<?xml version="1.0" encoding="utf-8"?>
<svg xmlns="http://www.w3.org/2000/svg" xmlns:xlink="http://www.w3.org/1999/xlink" width="600" height="400" viewBox="0 0 2400 1600">
<defs>
  <clipPath id="clip480">
    <rect x="0" y="0" width="2400" height="1600"/>
  </clipPath>
</defs>
<path clip-path="url(#clip480)" d="M0 1600 L2400 1600 L2400 0 L0 0  Z" fill="#ffffff" fill-rule="evenodd" fill-opacity="1"/>
<defs>
  <clipPath id="clip481">
    <rect x="480" y="0" width="1681" height="1600"/>
  </clipPath>
</defs>
<path clip-path="url(#clip480)" d="M156.274 1486.45 L2352.76 1486.45 L2352.76 47.2441 L156.274 47.2441  Z" fill="#ffffff" fill-rule="evenodd" fill-opacity="1"/>
<defs>
  <clipPath id="clip482">
    <rect x="156" y="47" width="2197" height="1440"/>
  </clipPath>
</defs>
<polyline clip-path="url(#clip482)" style="stroke:#000000; stroke-linecap:round; stroke-linejoin:round; stroke-width:2; stroke-opacity:0.1; fill:none" points="218.439,1486.45 218.439,47.2441 "/>
<polyline clip-path="url(#clip482)" style="stroke:#000000; stroke-linecap:round; stroke-linejoin:round; stroke-width:2; stroke-opacity:0.1; fill:none" points="736.995,1486.45 736.995,47.2441 "/>
<polyline clip-path="url(#clip482)" style="stroke:#000000; stroke-linecap:round; stroke-linejoin:round; stroke-width:2; stroke-opacity:0.1; fill:none" points="1255.55,1486.45 1255.55,47.2441 "/>
<polyline clip-path="url(#clip482)" style="stroke:#000000; stroke-linecap:round; stroke-linejoin:round; stroke-width:2; stroke-opacity:0.1; fill:none" points="1774.11,1486.45 1774.11,47.2441 "/>
<polyline clip-path="url(#clip482)" style="stroke:#000000; stroke-linecap:round; stroke-linejoin:round; stroke-width:2; stroke-opacity:0.1; fill:none" points="2292.67,1486.45 2292.67,47.2441 "/>
<polyline clip-path="url(#clip480)" style="stroke:#000000; stroke-linecap:round; stroke-linejoin:round; stroke-width:4; stroke-opacity:1; fill:none" points="156.274,1486.45 2352.76,1486.45 "/>
<polyline clip-path="url(#clip480)" style="stroke:#000000; stroke-linecap:round; stroke-linejoin:round; stroke-width:4; stroke-opacity:1; fill:none" points="218.439,1486.45 218.439,1467.55 "/>
<polyline clip-path="url(#clip480)" style="stroke:#000000; stroke-linecap:round; stroke-linejoin:round; stroke-width:4; stroke-opacity:1; fill:none" points="736.995,1486.45 736.995,1467.55 "/>
<polyline clip-path="url(#clip480)" style="stroke:#000000; stroke-linecap:round; stroke-linejoin:round; stroke-width:4; stroke-opacity:1; fill:none" points="1255.55,1486.45 1255.55,1467.55 "/>
<polyline clip-path="url(#clip480)" style="stroke:#000000; stroke-linecap:round; stroke-linejoin:round; stroke-width:4; stroke-opacity:1; fill:none" points="1774.11,1486.45 1774.11,1467.55 "/>
<polyline clip-path="url(#clip480)" style="stroke:#000000; stroke-linecap:round; stroke-linejoin:round; stroke-width:4; stroke-opacity:1; fill:none" points="2292.67,1486.45 2292.67,1467.55 "/>
<path clip-path="url(#clip480)" d="M218.439 1517.37 Q214.828 1517.37 212.999 1520.93 Q211.193 1524.47 211.193 1531.6 Q211.193 1538.71 212.999 1542.27 Q214.828 1545.82 218.439 1545.82 Q222.073 1545.82 223.879 1542.27 Q225.707 1538.71 225.707 1531.6 Q225.707 1524.47 223.879 1520.93 Q222.073 1517.37 218.439 1517.37 M218.439 1513.66 Q224.249 1513.66 227.304 1518.27 Q230.383 1522.85 230.383 1531.6 Q230.383 1540.33 227.304 1544.94 Q224.249 1549.52 218.439 1549.52 Q212.629 1549.52 209.55 1544.94 Q206.494 1540.33 206.494 1531.6 Q206.494 1522.85 209.55 1518.27 Q212.629 1513.66 218.439 1513.66 Z" fill="#000000" fill-rule="nonzero" fill-opacity="1" /><path clip-path="url(#clip480)" d="M700.688 1544.91 L717.007 1544.91 L717.007 1548.85 L695.063 1548.85 L695.063 1544.91 Q697.725 1542.16 702.308 1537.53 Q706.915 1532.88 708.095 1531.53 Q710.34 1529.01 711.22 1527.27 Q712.123 1525.51 712.123 1523.82 Q712.123 1521.07 710.178 1519.33 Q708.257 1517.6 705.155 1517.6 Q702.956 1517.6 700.503 1518.36 Q698.072 1519.13 695.294 1520.68 L695.294 1515.95 Q698.118 1514.82 700.572 1514.24 Q703.026 1513.66 705.063 1513.66 Q710.433 1513.66 713.628 1516.35 Q716.822 1519.03 716.822 1523.52 Q716.822 1525.65 716.012 1527.57 Q715.225 1529.47 713.118 1532.07 Q712.54 1532.74 709.438 1535.95 Q706.336 1539.15 700.688 1544.91 Z" fill="#000000" fill-rule="nonzero" fill-opacity="1" /><path clip-path="url(#clip480)" d="M726.868 1514.29 L745.225 1514.29 L745.225 1518.22 L731.151 1518.22 L731.151 1526.7 Q732.169 1526.35 733.188 1526.19 Q734.206 1526 735.225 1526 Q741.012 1526 744.391 1529.17 Q747.771 1532.34 747.771 1537.76 Q747.771 1543.34 744.299 1546.44 Q740.826 1549.52 734.507 1549.52 Q732.331 1549.52 730.063 1549.15 Q727.817 1548.78 725.41 1548.04 L725.41 1543.34 Q727.493 1544.47 729.715 1545.03 Q731.938 1545.58 734.414 1545.58 Q738.419 1545.58 740.757 1543.48 Q743.095 1541.37 743.095 1537.76 Q743.095 1534.15 740.757 1532.04 Q738.419 1529.94 734.414 1529.94 Q732.539 1529.94 730.664 1530.35 Q728.813 1530.77 726.868 1531.65 L726.868 1514.29 Z" fill="#000000" fill-rule="nonzero" fill-opacity="1" /><path clip-path="url(#clip480)" d="M766.984 1517.37 Q763.373 1517.37 761.544 1520.93 Q759.738 1524.47 759.738 1531.6 Q759.738 1538.71 761.544 1542.27 Q763.373 1545.82 766.984 1545.82 Q770.618 1545.82 772.423 1542.27 Q774.252 1538.71 774.252 1531.6 Q774.252 1524.47 772.423 1520.93 Q770.618 1517.37 766.984 1517.37 M766.984 1513.66 Q772.794 1513.66 775.849 1518.27 Q778.928 1522.85 778.928 1531.6 Q778.928 1540.33 775.849 1544.94 Q772.794 1549.52 766.984 1549.52 Q761.174 1549.52 758.095 1544.94 Q755.039 1540.33 755.039 1531.6 Q755.039 1522.85 758.095 1518.27 Q761.174 1513.66 766.984 1513.66 Z" fill="#000000" fill-rule="nonzero" fill-opacity="1" /><path clip-path="url(#clip480)" d="M1215.17 1514.29 L1233.53 1514.29 L1233.53 1518.22 L1219.45 1518.22 L1219.45 1526.7 Q1220.47 1526.35 1221.49 1526.19 Q1222.51 1526 1223.53 1526 Q1229.31 1526 1232.69 1529.17 Q1236.07 1532.34 1236.07 1537.76 Q1236.07 1543.34 1232.6 1546.44 Q1229.13 1549.52 1222.81 1549.52 Q1220.63 1549.52 1218.36 1549.15 Q1216.12 1548.78 1213.71 1548.04 L1213.71 1543.34 Q1215.8 1544.47 1218.02 1545.03 Q1220.24 1545.58 1222.72 1545.58 Q1226.72 1545.58 1229.06 1543.48 Q1231.4 1541.37 1231.4 1537.76 Q1231.4 1534.15 1229.06 1532.04 Q1226.72 1529.94 1222.72 1529.94 Q1220.84 1529.94 1218.97 1530.35 Q1217.11 1530.77 1215.17 1531.65 L1215.17 1514.29 Z" fill="#000000" fill-rule="nonzero" fill-opacity="1" /><path clip-path="url(#clip480)" d="M1255.29 1517.37 Q1251.67 1517.37 1249.85 1520.93 Q1248.04 1524.47 1248.04 1531.6 Q1248.04 1538.71 1249.85 1542.27 Q1251.67 1545.82 1255.29 1545.82 Q1258.92 1545.82 1260.73 1542.27 Q1262.55 1538.71 1262.55 1531.6 Q1262.55 1524.47 1260.73 1520.93 Q1258.92 1517.37 1255.29 1517.37 M1255.29 1513.66 Q1261.1 1513.66 1264.15 1518.27 Q1267.23 1522.85 1267.23 1531.6 Q1267.23 1540.33 1264.15 1544.94 Q1261.1 1549.52 1255.29 1549.52 Q1249.48 1549.52 1246.4 1544.94 Q1243.34 1540.33 1243.34 1531.6 Q1243.34 1522.85 1246.4 1518.27 Q1249.48 1513.66 1255.29 1513.66 Z" fill="#000000" fill-rule="nonzero" fill-opacity="1" /><path clip-path="url(#clip480)" d="M1285.45 1517.37 Q1281.84 1517.37 1280.01 1520.93 Q1278.2 1524.47 1278.2 1531.6 Q1278.2 1538.71 1280.01 1542.27 Q1281.84 1545.82 1285.45 1545.82 Q1289.08 1545.82 1290.89 1542.27 Q1292.72 1538.71 1292.72 1531.6 Q1292.72 1524.47 1290.89 1520.93 Q1289.08 1517.37 1285.45 1517.37 M1285.45 1513.66 Q1291.26 1513.66 1294.31 1518.27 Q1297.39 1522.85 1297.39 1531.6 Q1297.39 1540.33 1294.31 1544.94 Q1291.26 1549.52 1285.45 1549.52 Q1279.64 1549.52 1276.56 1544.94 Q1273.5 1540.33 1273.5 1531.6 Q1273.5 1522.85 1276.56 1518.27 Q1279.64 1513.66 1285.45 1513.66 Z" fill="#000000" fill-rule="nonzero" fill-opacity="1" /><path clip-path="url(#clip480)" d="M1732.38 1514.29 L1754.61 1514.29 L1754.61 1516.28 L1742.06 1548.85 L1737.18 1548.85 L1748.98 1518.22 L1732.38 1518.22 L1732.38 1514.29 Z" fill="#000000" fill-rule="nonzero" fill-opacity="1" /><path clip-path="url(#clip480)" d="M1763.77 1514.29 L1782.13 1514.29 L1782.13 1518.22 L1768.06 1518.22 L1768.06 1526.7 Q1769.07 1526.35 1770.09 1526.19 Q1771.11 1526 1772.13 1526 Q1777.92 1526 1781.3 1529.17 Q1784.68 1532.34 1784.68 1537.76 Q1784.68 1543.34 1781.2 1546.44 Q1777.73 1549.52 1771.41 1549.52 Q1769.24 1549.52 1766.97 1549.15 Q1764.72 1548.78 1762.31 1548.04 L1762.31 1543.34 Q1764.4 1544.47 1766.62 1545.03 Q1768.84 1545.58 1771.32 1545.58 Q1775.32 1545.58 1777.66 1543.48 Q1780 1541.37 1780 1537.76 Q1780 1534.15 1777.66 1532.04 Q1775.32 1529.94 1771.32 1529.94 Q1769.44 1529.94 1767.57 1530.35 Q1765.72 1530.77 1763.77 1531.65 L1763.77 1514.29 Z" fill="#000000" fill-rule="nonzero" fill-opacity="1" /><path clip-path="url(#clip480)" d="M1803.89 1517.37 Q1800.28 1517.37 1798.45 1520.93 Q1796.64 1524.47 1796.64 1531.6 Q1796.64 1538.71 1798.45 1542.27 Q1800.28 1545.82 1803.89 1545.82 Q1807.52 1545.82 1809.33 1542.27 Q1811.16 1538.71 1811.16 1531.6 Q1811.16 1524.47 1809.33 1520.93 Q1807.52 1517.37 1803.89 1517.37 M1803.89 1513.66 Q1809.7 1513.66 1812.75 1518.27 Q1815.83 1522.85 1815.83 1531.6 Q1815.83 1540.33 1812.75 1544.94 Q1809.7 1549.52 1803.89 1549.52 Q1798.08 1549.52 1795 1544.94 Q1791.94 1540.33 1791.94 1531.6 Q1791.94 1522.85 1795 1518.27 Q1798.08 1513.66 1803.89 1513.66 Z" fill="#000000" fill-rule="nonzero" fill-opacity="1" /><path clip-path="url(#clip480)" d="M2237.19 1544.91 L2244.83 1544.91 L2244.83 1518.55 L2236.52 1520.21 L2236.52 1515.95 L2244.78 1514.29 L2249.46 1514.29 L2249.46 1544.91 L2257.1 1544.91 L2257.1 1548.85 L2237.19 1548.85 L2237.19 1544.91 Z" fill="#000000" fill-rule="nonzero" fill-opacity="1" /><path clip-path="url(#clip480)" d="M2276.54 1517.37 Q2272.93 1517.37 2271.1 1520.93 Q2269.3 1524.47 2269.3 1531.6 Q2269.3 1538.71 2271.1 1542.27 Q2272.93 1545.82 2276.54 1545.82 Q2280.18 1545.82 2281.98 1542.27 Q2283.81 1538.71 2283.81 1531.6 Q2283.81 1524.47 2281.98 1520.93 Q2280.18 1517.37 2276.54 1517.37 M2276.54 1513.66 Q2282.35 1513.66 2285.41 1518.27 Q2288.49 1522.85 2288.49 1531.6 Q2288.49 1540.33 2285.41 1544.94 Q2282.35 1549.52 2276.54 1549.52 Q2270.73 1549.52 2267.65 1544.94 Q2264.6 1540.33 2264.6 1531.6 Q2264.6 1522.85 2267.65 1518.27 Q2270.73 1513.66 2276.54 1513.66 Z" fill="#000000" fill-rule="nonzero" fill-opacity="1" /><path clip-path="url(#clip480)" d="M2306.7 1517.37 Q2303.09 1517.37 2301.27 1520.93 Q2299.46 1524.47 2299.46 1531.6 Q2299.46 1538.71 2301.27 1542.27 Q2303.09 1545.82 2306.7 1545.82 Q2310.34 1545.82 2312.14 1542.27 Q2313.97 1538.71 2313.97 1531.6 Q2313.97 1524.47 2312.14 1520.93 Q2310.34 1517.37 2306.7 1517.37 M2306.7 1513.66 Q2312.51 1513.66 2315.57 1518.27 Q2318.65 1522.85 2318.65 1531.6 Q2318.65 1540.33 2315.57 1544.94 Q2312.51 1549.52 2306.7 1549.52 Q2300.89 1549.52 2297.82 1544.94 Q2294.76 1540.33 2294.76 1531.6 Q2294.76 1522.85 2297.82 1518.27 Q2300.89 1513.66 2306.7 1513.66 Z" fill="#000000" fill-rule="nonzero" fill-opacity="1" /><path clip-path="url(#clip480)" d="M2336.87 1517.37 Q2333.26 1517.37 2331.43 1520.93 Q2329.62 1524.47 2329.62 1531.6 Q2329.62 1538.71 2331.43 1542.27 Q2333.26 1545.82 2336.87 1545.82 Q2340.5 1545.82 2342.31 1542.27 Q2344.14 1538.71 2344.14 1531.6 Q2344.14 1524.47 2342.31 1520.93 Q2340.5 1517.37 2336.87 1517.37 M2336.87 1513.66 Q2342.68 1513.66 2345.73 1518.27 Q2348.81 1522.85 2348.81 1531.6 Q2348.81 1540.33 2345.73 1544.94 Q2342.68 1549.52 2336.87 1549.52 Q2331.06 1549.52 2327.98 1544.94 Q2324.92 1540.33 2324.92 1531.6 Q2324.92 1522.85 2327.98 1518.27 Q2331.06 1513.66 2336.87 1513.66 Z" fill="#000000" fill-rule="nonzero" fill-opacity="1" /><polyline clip-path="url(#clip482)" style="stroke:#000000; stroke-linecap:round; stroke-linejoin:round; stroke-width:2; stroke-opacity:0.1; fill:none" points="156.274,1473.42 2352.76,1473.42 "/>
<polyline clip-path="url(#clip482)" style="stroke:#000000; stroke-linecap:round; stroke-linejoin:round; stroke-width:2; stroke-opacity:0.1; fill:none" points="156.274,1196.33 2352.76,1196.33 "/>
<polyline clip-path="url(#clip482)" style="stroke:#000000; stroke-linecap:round; stroke-linejoin:round; stroke-width:2; stroke-opacity:0.1; fill:none" points="156.274,919.245 2352.76,919.245 "/>
<polyline clip-path="url(#clip482)" style="stroke:#000000; stroke-linecap:round; stroke-linejoin:round; stroke-width:2; stroke-opacity:0.1; fill:none" points="156.274,642.156 2352.76,642.156 "/>
<polyline clip-path="url(#clip482)" style="stroke:#000000; stroke-linecap:round; stroke-linejoin:round; stroke-width:2; stroke-opacity:0.1; fill:none" points="156.274,365.066 2352.76,365.066 "/>
<polyline clip-path="url(#clip482)" style="stroke:#000000; stroke-linecap:round; stroke-linejoin:round; stroke-width:2; stroke-opacity:0.1; fill:none" points="156.274,87.9763 2352.76,87.9763 "/>
<polyline clip-path="url(#clip480)" style="stroke:#000000; stroke-linecap:round; stroke-linejoin:round; stroke-width:4; stroke-opacity:1; fill:none" points="156.274,1486.45 156.274,47.2441 "/>
<polyline clip-path="url(#clip480)" style="stroke:#000000; stroke-linecap:round; stroke-linejoin:round; stroke-width:4; stroke-opacity:1; fill:none" points="156.274,1473.42 175.172,1473.42 "/>
<polyline clip-path="url(#clip480)" style="stroke:#000000; stroke-linecap:round; stroke-linejoin:round; stroke-width:4; stroke-opacity:1; fill:none" points="156.274,1196.33 175.172,1196.33 "/>
<polyline clip-path="url(#clip480)" style="stroke:#000000; stroke-linecap:round; stroke-linejoin:round; stroke-width:4; stroke-opacity:1; fill:none" points="156.274,919.245 175.172,919.245 "/>
<polyline clip-path="url(#clip480)" style="stroke:#000000; stroke-linecap:round; stroke-linejoin:round; stroke-width:4; stroke-opacity:1; fill:none" points="156.274,642.156 175.172,642.156 "/>
<polyline clip-path="url(#clip480)" style="stroke:#000000; stroke-linecap:round; stroke-linejoin:round; stroke-width:4; stroke-opacity:1; fill:none" points="156.274,365.066 175.172,365.066 "/>
<polyline clip-path="url(#clip480)" style="stroke:#000000; stroke-linecap:round; stroke-linejoin:round; stroke-width:4; stroke-opacity:1; fill:none" points="156.274,87.9763 175.172,87.9763 "/>
<path clip-path="url(#clip480)" d="M64.0939 1459.22 Q60.4828 1459.22 58.6541 1462.79 Q56.8486 1466.33 56.8486 1473.46 Q56.8486 1480.57 58.6541 1484.13 Q60.4828 1487.67 64.0939 1487.67 Q67.7281 1487.67 69.5337 1484.13 Q71.3624 1480.57 71.3624 1473.46 Q71.3624 1466.33 69.5337 1462.79 Q67.7281 1459.22 64.0939 1459.22 M64.0939 1455.52 Q69.9041 1455.52 72.9596 1460.13 Q76.0383 1464.71 76.0383 1473.46 Q76.0383 1482.19 72.9596 1486.79 Q69.9041 1491.38 64.0939 1491.38 Q58.2838 1491.38 55.2051 1486.79 Q52.1495 1482.19 52.1495 1473.46 Q52.1495 1464.71 55.2051 1460.13 Q58.2838 1455.52 64.0939 1455.52 Z" fill="#000000" fill-rule="nonzero" fill-opacity="1" /><path clip-path="url(#clip480)" d="M84.2558 1484.83 L89.1401 1484.83 L89.1401 1490.7 L84.2558 1490.7 L84.2558 1484.83 Z" fill="#000000" fill-rule="nonzero" fill-opacity="1" /><path clip-path="url(#clip480)" d="M99.3715 1456.14 L117.728 1456.14 L117.728 1460.08 L103.654 1460.08 L103.654 1468.55 Q104.672 1468.2 105.691 1468.04 Q106.709 1467.86 107.728 1467.86 Q113.515 1467.86 116.895 1471.03 Q120.274 1474.2 120.274 1479.62 Q120.274 1485.2 116.802 1488.3 Q113.33 1491.38 107.01 1491.38 Q104.834 1491.38 102.566 1491.01 Q100.321 1490.64 97.9132 1489.89 L97.9132 1485.2 Q99.9965 1486.33 102.219 1486.89 Q104.441 1487.44 106.918 1487.44 Q110.922 1487.44 113.26 1485.33 Q115.598 1483.23 115.598 1479.62 Q115.598 1476.01 113.26 1473.9 Q110.922 1471.79 106.918 1471.79 Q105.043 1471.79 103.168 1472.21 Q101.316 1472.63 99.3715 1473.51 L99.3715 1456.14 Z" fill="#000000" fill-rule="nonzero" fill-opacity="1" /><path clip-path="url(#clip480)" d="M62.9365 1182.13 Q59.3254 1182.13 57.4967 1185.7 Q55.6912 1189.24 55.6912 1196.37 Q55.6912 1203.48 57.4967 1207.04 Q59.3254 1210.58 62.9365 1210.58 Q66.5707 1210.58 68.3763 1207.04 Q70.205 1203.48 70.205 1196.37 Q70.205 1189.24 68.3763 1185.7 Q66.5707 1182.13 62.9365 1182.13 M62.9365 1178.43 Q68.7467 1178.43 71.8022 1183.04 Q74.8809 1187.62 74.8809 1196.37 Q74.8809 1205.1 71.8022 1209.7 Q68.7467 1214.29 62.9365 1214.29 Q57.1264 1214.29 54.0477 1209.7 Q50.9921 1205.1 50.9921 1196.37 Q50.9921 1187.62 54.0477 1183.04 Q57.1264 1178.43 62.9365 1178.43 Z" fill="#000000" fill-rule="nonzero" fill-opacity="1" /><path clip-path="url(#clip480)" d="M83.0984 1207.74 L87.9827 1207.74 L87.9827 1213.61 L83.0984 1213.61 L83.0984 1207.74 Z" fill="#000000" fill-rule="nonzero" fill-opacity="1" /><path clip-path="url(#clip480)" d="M108.746 1194.47 Q105.598 1194.47 103.746 1196.62 Q101.918 1198.78 101.918 1202.53 Q101.918 1206.25 103.746 1208.43 Q105.598 1210.58 108.746 1210.58 Q111.895 1210.58 113.723 1208.43 Q115.575 1206.25 115.575 1202.53 Q115.575 1198.78 113.723 1196.62 Q111.895 1194.47 108.746 1194.47 M118.029 1179.82 L118.029 1184.08 Q116.27 1183.24 114.464 1182.8 Q112.682 1182.37 110.922 1182.37 Q106.293 1182.37 103.839 1185.49 Q101.409 1188.62 101.061 1194.93 Q102.427 1192.92 104.487 1191.86 Q106.547 1190.77 109.024 1190.77 Q114.233 1190.77 117.242 1193.94 Q120.274 1197.09 120.274 1202.53 Q120.274 1207.85 117.126 1211.07 Q113.978 1214.29 108.746 1214.29 Q102.751 1214.29 99.5798 1209.7 Q96.4085 1205.1 96.4085 1196.37 Q96.4085 1188.18 100.297 1183.31 Q104.186 1178.43 110.737 1178.43 Q112.496 1178.43 114.279 1178.78 Q116.084 1179.12 118.029 1179.82 Z" fill="#000000" fill-rule="nonzero" fill-opacity="1" /><path clip-path="url(#clip480)" d="M64.0013 905.044 Q60.3902 905.044 58.5615 908.609 Q56.756 912.15 56.756 919.28 Q56.756 926.386 58.5615 929.951 Q60.3902 933.493 64.0013 933.493 Q67.6356 933.493 69.4411 929.951 Q71.2698 926.386 71.2698 919.28 Q71.2698 912.15 69.4411 908.609 Q67.6356 905.044 64.0013 905.044 M64.0013 901.34 Q69.8115 901.34 72.867 905.947 Q75.9457 910.53 75.9457 919.28 Q75.9457 928.007 72.867 932.613 Q69.8115 937.197 64.0013 937.197 Q58.1912 937.197 55.1125 932.613 Q52.0569 928.007 52.0569 919.28 Q52.0569 910.53 55.1125 905.947 Q58.1912 901.34 64.0013 901.34 Z" fill="#000000" fill-rule="nonzero" fill-opacity="1" /><path clip-path="url(#clip480)" d="M84.1632 930.646 L89.0475 930.646 L89.0475 936.525 L84.1632 936.525 L84.1632 930.646 Z" fill="#000000" fill-rule="nonzero" fill-opacity="1" /><path clip-path="url(#clip480)" d="M98.0521 901.965 L120.274 901.965 L120.274 903.956 L107.728 936.525 L102.844 936.525 L114.649 905.9 L98.0521 905.9 L98.0521 901.965 Z" fill="#000000" fill-rule="nonzero" fill-opacity="1" /><path clip-path="url(#clip480)" d="M63.1911 627.954 Q59.58 627.954 57.7513 631.519 Q55.9458 635.061 55.9458 642.19 Q55.9458 649.297 57.7513 652.862 Q59.58 656.403 63.1911 656.403 Q66.8254 656.403 68.6309 652.862 Q70.4596 649.297 70.4596 642.19 Q70.4596 635.061 68.6309 631.519 Q66.8254 627.954 63.1911 627.954 M63.1911 624.251 Q69.0013 624.251 72.0568 628.857 Q75.1355 633.44 75.1355 642.19 Q75.1355 650.917 72.0568 655.524 Q69.0013 660.107 63.1911 660.107 Q57.381 660.107 54.3023 655.524 Q51.2468 650.917 51.2468 642.19 Q51.2468 633.44 54.3023 628.857 Q57.381 624.251 63.1911 624.251 Z" fill="#000000" fill-rule="nonzero" fill-opacity="1" /><path clip-path="url(#clip480)" d="M83.3531 653.556 L88.2373 653.556 L88.2373 659.436 L83.3531 659.436 L83.3531 653.556 Z" fill="#000000" fill-rule="nonzero" fill-opacity="1" /><path clip-path="url(#clip480)" d="M108.422 643.024 Q105.089 643.024 103.168 644.806 Q101.27 646.588 101.27 649.713 Q101.27 652.838 103.168 654.621 Q105.089 656.403 108.422 656.403 Q111.756 656.403 113.677 654.621 Q115.598 652.815 115.598 649.713 Q115.598 646.588 113.677 644.806 Q111.779 643.024 108.422 643.024 M103.746 641.033 Q100.737 640.292 99.0474 638.232 Q97.3808 636.172 97.3808 633.209 Q97.3808 629.065 100.321 626.658 Q103.284 624.251 108.422 624.251 Q113.584 624.251 116.524 626.658 Q119.464 629.065 119.464 633.209 Q119.464 636.172 117.774 638.232 Q116.108 640.292 113.121 641.033 Q116.501 641.82 118.376 644.112 Q120.274 646.403 120.274 649.713 Q120.274 654.737 117.195 657.422 Q114.14 660.107 108.422 660.107 Q102.705 660.107 99.6261 657.422 Q96.5706 654.737 96.5706 649.713 Q96.5706 646.403 98.4687 644.112 Q100.367 641.82 103.746 641.033 M102.034 633.649 Q102.034 636.334 103.7 637.839 Q105.39 639.343 108.422 639.343 Q111.432 639.343 113.121 637.839 Q114.834 636.334 114.834 633.649 Q114.834 630.964 113.121 629.459 Q111.432 627.954 108.422 627.954 Q105.39 627.954 103.7 629.459 Q102.034 630.964 102.034 633.649 Z" fill="#000000" fill-rule="nonzero" fill-opacity="1" /><path clip-path="url(#clip480)" d="M63.2837 350.865 Q59.6726 350.865 57.8439 354.429 Q56.0384 357.971 56.0384 365.101 Q56.0384 372.207 57.8439 375.772 Q59.6726 379.314 63.2837 379.314 Q66.918 379.314 68.7235 375.772 Q70.5522 372.207 70.5522 365.101 Q70.5522 357.971 68.7235 354.429 Q66.918 350.865 63.2837 350.865 M63.2837 347.161 Q69.0939 347.161 72.1494 351.767 Q75.2281 356.351 75.2281 365.101 Q75.2281 373.827 72.1494 378.434 Q69.0939 383.017 63.2837 383.017 Q57.4736 383.017 54.3949 378.434 Q51.3393 373.827 51.3393 365.101 Q51.3393 356.351 54.3949 351.767 Q57.4736 347.161 63.2837 347.161 Z" fill="#000000" fill-rule="nonzero" fill-opacity="1" /><path clip-path="url(#clip480)" d="M83.4457 376.466 L88.3299 376.466 L88.3299 382.346 L83.4457 382.346 L83.4457 376.466 Z" fill="#000000" fill-rule="nonzero" fill-opacity="1" /><path clip-path="url(#clip480)" d="M98.6539 381.628 L98.6539 377.369 Q100.413 378.202 102.219 378.642 Q104.024 379.082 105.76 379.082 Q110.39 379.082 112.82 375.98 Q115.274 372.855 115.621 366.513 Q114.279 368.503 112.219 369.568 Q110.158 370.633 107.658 370.633 Q102.473 370.633 99.4409 367.508 Q96.4317 364.36 96.4317 358.92 Q96.4317 353.596 99.5798 350.379 Q102.728 347.161 107.959 347.161 Q113.955 347.161 117.103 351.767 Q120.274 356.351 120.274 365.101 Q120.274 373.272 116.385 378.156 Q112.52 383.017 105.969 383.017 Q104.209 383.017 102.404 382.67 Q100.598 382.323 98.6539 381.628 M107.959 366.976 Q111.108 366.976 112.936 364.823 Q114.788 362.67 114.788 358.92 Q114.788 355.193 112.936 353.041 Q111.108 350.865 107.959 350.865 Q104.811 350.865 102.959 353.041 Q101.131 355.193 101.131 358.92 Q101.131 362.67 102.959 364.823 Q104.811 366.976 107.959 366.976 Z" fill="#000000" fill-rule="nonzero" fill-opacity="1" /><path clip-path="url(#clip480)" d="M53.9088 101.321 L61.5476 101.321 L61.5476 74.9555 L53.2375 76.6222 L53.2375 72.3629 L61.5013 70.6963 L66.1772 70.6963 L66.1772 101.321 L73.8161 101.321 L73.8161 105.256 L53.9088 105.256 L53.9088 101.321 Z" fill="#000000" fill-rule="nonzero" fill-opacity="1" /><path clip-path="url(#clip480)" d="M83.2605 99.3767 L88.1447 99.3767 L88.1447 105.256 L83.2605 105.256 L83.2605 99.3767 Z" fill="#000000" fill-rule="nonzero" fill-opacity="1" /><path clip-path="url(#clip480)" d="M108.33 73.775 Q104.719 73.775 102.89 77.3398 Q101.084 80.8814 101.084 88.011 Q101.084 95.1174 102.89 98.6822 Q104.719 102.224 108.33 102.224 Q111.964 102.224 113.77 98.6822 Q115.598 95.1174 115.598 88.011 Q115.598 80.8814 113.77 77.3398 Q111.964 73.775 108.33 73.775 M108.33 70.0713 Q114.14 70.0713 117.195 74.6777 Q120.274 79.261 120.274 88.011 Q120.274 96.7378 117.195 101.344 Q114.14 105.928 108.33 105.928 Q102.52 105.928 99.4409 101.344 Q96.3854 96.7378 96.3854 88.011 Q96.3854 79.261 99.4409 74.6777 Q102.52 70.0713 108.33 70.0713 Z" fill="#000000" fill-rule="nonzero" fill-opacity="1" /><polyline clip-path="url(#clip482)" style="stroke:#009af9; stroke-linecap:round; stroke-linejoin:round; stroke-width:4; stroke-opacity:1; fill:none" points="218.439,1079.96 220.513,1129.83 222.587,1271.15 224.661,1298.86 226.736,1254.52 228.81,1307.17 230.884,1312.71 232.958,1445.72 235.033,1351.51 237.107,1290.55 239.181,1387.53 241.255,1359.82 243.329,1096.58 245.404,1193.56 247.478,1079.96 249.552,1113.21 251.626,883.224 253.701,800.097 255.775,736.366 257.849,736.366 259.923,625.53 261.998,570.112 264.072,647.697 266.146,561.8 268.22,448.193 270.294,456.506 272.369,445.422 274.443,409.4 276.517,414.942 278.591,306.877 280.666,367.837 282.74,356.753 284.814,329.044 286.888,312.419 288.962,298.564 291.037,276.397 293.111,257.001 295.185,276.397 297.259,248.688 299.334,251.459 301.408,254.23 303.482,229.292 305.556,215.438 307.63,212.667 309.705,226.521 311.779,212.667 313.853,179.416 315.927,179.416 318.002,220.979 320.076,243.146 322.15,193.27 324.224,187.729 326.299,196.041 328.373,218.208 330.447,190.499 332.521,171.103 334.595,198.812 336.67,165.561 338.744,196.041 340.818,171.103 342.892,193.27 344.967,179.416 347.041,168.332 349.115,165.561 351.189,143.394 353.263,148.936 355.338,168.332 357.412,157.249 359.486,157.249 361.56,171.103 363.635,146.165 365.709,165.561 367.783,157.249 369.857,171.103 371.932,162.79 374.006,157.249 376.08,168.332 378.154,148.936 380.228,160.02 382.303,146.165 384.377,132.311 386.451,146.165 388.525,137.852 390.6,143.394 392.674,143.394 394.748,140.623 396.822,160.02 398.896,137.852 400.971,135.082 403.045,132.311 405.119,121.227 407.193,140.623 409.268,140.623 411.342,135.082 413.416,151.707 415.49,140.623 417.565,137.852 419.639,126.769 421.713,132.311 423.787,118.456 425.861,135.082 427.936,112.914 430.01,115.685 432.084,132.311 434.158,132.311 436.233,123.998 438.307,132.311 440.381,137.852 442.455,115.685 444.529,126.769 446.604,104.602 448.678,107.373 450.752,137.852 452.826,121.227 454.901,123.998 456.975,118.456 459.049,118.456 461.123,126.769 463.198,137.852 465.272,146.165 467.346,112.914 469.42,132.311 471.494,118.456 473.569,123.998 475.643,135.082 477.717,118.456 479.791,115.685 481.866,135.082 483.94,107.373 486.014,110.143 488.088,126.769 490.162,110.143 492.237,143.394 494.311,132.311 496.385,121.227 498.459,121.227 500.534,104.602 502.608,110.143 504.682,123.998 506.756,110.143 508.83,101.831 510.905,129.54 512.979,115.685 515.053,121.227 517.127,129.54 519.202,104.602 521.276,126.769 523.35,110.143 525.424,112.914 527.499,112.914 529.573,121.227 531.647,121.227 533.721,99.0599 535.795,107.373 537.87,112.914 539.944,112.914 542.018,135.082 544.092,115.685 546.167,115.685 548.241,121.227 550.315,112.914 552.389,115.685 554.463,121.227 556.538,112.914 558.612,104.602 560.686,107.373 562.76,123.998 564.835,110.143 566.909,104.602 568.983,110.143 571.057,118.456 573.132,126.769 575.206,118.456 577.28,99.0599 579.354,96.289 581.428,118.456 583.503,115.685 585.577,115.685 587.651,99.0599 589.725,107.373 591.8,115.685 593.874,121.227 595.948,121.227 598.022,104.602 600.096,110.143 602.171,99.0599 604.245,104.602 606.319,96.289 608.393,110.143 610.468,112.914 612.542,132.311 614.616,115.685 616.69,110.143 618.765,112.914 620.839,110.143 622.913,121.227 624.987,110.143 627.061,123.998 629.136,96.289 631.21,99.0599 633.284,112.914 635.358,112.914 637.433,110.143 639.507,110.143 641.581,112.914 643.655,99.0599 645.729,101.831 647.804,115.685 649.878,107.373 651.952,96.289 654.026,104.602 656.101,104.602 658.175,101.831 660.249,110.143 662.323,101.831 664.398,101.831 666.472,107.373 668.546,121.227 670.62,93.5181 672.694,110.143 674.769,107.373 676.843,107.373 678.917,107.373 680.991,101.831 683.066,110.143 685.14,110.143 687.214,99.0599 689.288,104.602 691.362,90.7472 693.437,112.914 695.511,93.5181 697.585,115.685 699.659,107.373 701.734,104.602 703.808,107.373 705.882,101.831 707.956,96.289 710.03,104.602 712.105,96.289 714.179,104.602 716.253,90.7472 718.327,115.685 720.402,104.602 722.476,101.831 724.55,104.602 726.624,107.373 728.699,115.685 730.773,96.289 732.847,110.143 734.921,99.0599 736.995,107.373 739.07,110.143 741.144,93.5181 743.218,107.373 745.292,99.0599 747.367,110.143 749.441,99.0599 751.515,99.0599 753.589,99.0599 755.663,107.373 757.738,101.831 759.812,96.289 761.886,107.373 763.96,115.685 766.035,104.602 768.109,90.7472 770.183,99.0599 772.257,112.914 774.332,104.602 776.406,96.289 778.48,104.602 780.554,107.373 782.628,96.289 784.703,107.373 786.777,101.831 788.851,104.602 790.925,107.373 793,104.602 795.074,118.456 797.148,101.831 799.222,104.602 801.296,107.373 803.371,101.831 805.445,96.289 807.519,101.831 809.593,101.831 811.668,101.831 813.742,90.7472 815.816,96.289 817.89,104.602 819.965,101.831 822.039,99.0599 824.113,99.0599 826.187,104.602 828.261,104.602 830.336,96.289 832.41,96.289 834.484,101.831 836.558,99.0599 838.633,101.831 840.707,90.7472 842.781,93.5181 844.855,87.9763 846.929,99.0599 849.004,104.602 851.078,96.289 853.152,110.143 855.226,101.831 857.301,107.373 859.375,101.831 861.449,99.0599 863.523,96.289 865.598,99.0599 867.672,104.602 869.746,104.602 871.82,99.0599 873.894,96.289 875.969,99.0599 878.043,99.0599 880.117,93.5181 882.191,101.831 884.266,96.289 886.34,96.289 888.414,93.5181 890.488,96.289 892.562,99.0599 894.637,99.0599 896.711,101.831 898.785,101.831 900.859,104.602 902.934,96.289 905.008,87.9763 907.082,104.602 909.156,110.143 911.23,104.602 913.305,101.831 915.379,101.831 917.453,90.7472 919.527,93.5181 921.602,93.5181 923.676,107.373 925.75,107.373 927.824,96.289 929.899,93.5181 931.973,96.289 934.047,101.831 936.121,96.289 938.195,107.373 940.27,99.0599 942.344,107.373 944.418,96.289 946.492,90.7472 948.567,87.9763 950.641,104.602 952.715,99.0599 954.789,96.289 956.863,101.831 958.938,110.143 961.012,96.289 963.086,101.831 965.16,99.0599 967.235,99.0599 969.309,93.5181 971.383,93.5181 973.457,101.831 975.532,96.289 977.606,96.289 979.68,90.7472 981.754,96.289 983.828,96.289 985.903,101.831 987.977,99.0599 990.051,96.289 992.125,104.602 994.2,96.289 996.274,90.7472 998.348,99.0599 1000.42,99.0599 1002.5,93.5181 1004.57,90.7472 1006.64,93.5181 1008.72,104.602 1010.79,112.914 1012.87,104.602 1014.94,99.0599 1017.02,101.831 1019.09,96.289 1021.16,90.7472 1023.24,93.5181 1025.31,96.289 1027.39,90.7472 1029.46,110.143 1031.54,101.831 1033.61,96.289 1035.68,93.5181 1037.76,93.5181 1039.83,104.602 1041.91,90.7472 1043.98,93.5181 1046.06,87.9763 1048.13,93.5181 1050.2,96.289 1052.28,93.5181 1054.35,93.5181 1056.43,93.5181 1058.5,90.7472 1060.57,93.5181 1062.65,90.7472 1064.72,107.373 1066.8,99.0599 1068.87,96.289 1070.95,93.5181 1073.02,99.0599 1075.09,99.0599 1077.17,101.831 1079.24,101.831 1081.32,110.143 1083.39,104.602 1085.47,101.831 1087.54,96.289 1089.61,104.602 1091.69,99.0599 1093.76,96.289 1095.84,87.9763 1097.91,101.831 1099.99,90.7472 1102.06,93.5181 1104.13,93.5181 1106.21,87.9763 1108.28,96.289 1110.36,96.289 1112.43,99.0599 1114.5,96.289 1116.58,90.7472 1118.65,96.289 1120.73,96.289 1122.8,96.289 1124.88,96.289 1126.95,93.5181 1129.02,90.7472 1131.1,93.5181 1133.17,93.5181 1135.25,90.7472 1137.32,90.7472 1139.4,99.0599 1141.47,93.5181 1143.54,101.831 1145.62,99.0599 1147.69,93.5181 1149.77,101.831 1151.84,93.5181 1153.92,96.289 1155.99,101.831 1158.06,96.289 1160.14,87.9763 1162.21,101.831 1164.29,96.289 1166.36,90.7472 1168.43,96.289 1170.51,96.289 1172.58,93.5181 1174.66,93.5181 1176.73,90.7472 1178.81,90.7472 1180.88,96.289 1182.95,96.289 1185.03,101.831 1187.1,99.0599 1189.18,101.831 1191.25,93.5181 1193.33,99.0599 1195.4,96.289 1197.47,93.5181 1199.55,87.9763 1201.62,93.5181 1203.7,96.289 1205.77,99.0599 1207.84,101.831 1209.92,96.289 1211.99,90.7472 1214.07,93.5181 1216.14,96.289 1218.22,93.5181 1220.29,96.289 1222.36,99.0599 1224.44,90.7472 1226.51,90.7472 1228.59,96.289 1230.66,87.9763 1232.74,99.0599 1234.81,90.7472 1236.88,87.9763 1238.96,93.5181 1241.03,93.5181 1243.11,96.289 1245.18,96.289 1247.26,93.5181 1249.33,96.289 1251.4,96.289 1253.48,90.7472 1255.55,93.5181 1257.63,87.9763 1259.7,87.9763 1261.77,90.7472 1263.85,90.7472 1265.92,90.7472 1268,90.7472 1270.07,90.7472 1272.15,87.9763 1274.22,101.831 1276.29,99.0599 1278.37,90.7472 1280.44,93.5181 1282.52,93.5181 1284.59,99.0599 1286.67,93.5181 1288.74,96.289 1290.81,93.5181 1292.89,90.7472 1294.96,90.7472 1297.04,93.5181 1299.11,96.289 1301.19,96.289 1303.26,87.9763 1305.33,96.289 1307.41,96.289 1309.48,93.5181 1311.56,96.289 1313.63,93.5181 1315.7,90.7472 1317.78,93.5181 1319.85,99.0599 1321.93,99.0599 1324,96.289 1326.08,93.5181 1328.15,90.7472 1330.22,99.0599 1332.3,93.5181 1334.37,87.9763 1336.45,99.0599 1338.52,90.7472 1340.6,96.289 1342.67,90.7472 1344.74,93.5181 1346.82,90.7472 1348.89,93.5181 1350.97,90.7472 1353.04,101.831 1355.12,96.289 1357.19,99.0599 1359.26,99.0599 1361.34,99.0599 1363.41,96.289 1365.49,90.7472 1367.56,90.7472 1369.63,93.5181 1371.71,99.0599 1373.78,93.5181 1375.86,96.289 1377.93,90.7472 1380.01,93.5181 1382.08,93.5181 1384.15,87.9763 1386.23,93.5181 1388.3,93.5181 1390.38,93.5181 1392.45,96.289 1394.53,93.5181 1396.6,93.5181 1398.67,90.7472 1400.75,99.0599 1402.82,96.289 1404.9,93.5181 1406.97,96.289 1409.04,96.289 1411.12,96.289 1413.19,87.9763 1415.27,93.5181 1417.34,90.7472 1419.42,93.5181 1421.49,93.5181 1423.56,93.5181 1425.64,93.5181 1427.71,99.0599 1429.79,96.289 1431.86,90.7472 1433.94,99.0599 1436.01,93.5181 1438.08,93.5181 1440.16,96.289 1442.23,90.7472 1444.31,93.5181 1446.38,93.5181 1448.46,90.7472 1450.53,90.7472 1452.6,90.7472 1454.68,90.7472 1456.75,96.289 1458.83,87.9763 1460.9,90.7472 1462.97,93.5181 1465.05,90.7472 1467.12,96.289 1469.2,93.5181 1471.27,93.5181 1473.35,93.5181 1475.42,90.7472 1477.49,99.0599 1479.57,93.5181 1481.64,87.9763 1483.72,90.7472 1485.79,90.7472 1487.87,90.7472 1489.94,96.289 1492.01,96.289 1494.09,90.7472 1496.16,96.289 1498.24,99.0599 1500.31,96.289 1502.39,87.9763 1504.46,90.7472 1506.53,87.9763 1508.61,93.5181 1510.68,96.289 1512.76,87.9763 1514.83,87.9763 1516.9,93.5181 1518.98,99.0599 1521.05,93.5181 1523.13,96.289 1525.2,87.9763 1527.28,93.5181 1529.35,96.289 1531.42,90.7472 1533.5,93.5181 1535.57,93.5181 1537.65,87.9763 1539.72,90.7472 1541.8,93.5181 1543.87,90.7472 1545.94,93.5181 1548.02,96.289 1550.09,90.7472 1552.17,90.7472 1554.24,96.289 1556.32,93.5181 1558.39,96.289 1560.46,96.289 1562.54,90.7472 1564.61,96.289 1566.69,87.9763 1568.76,96.289 1570.83,87.9763 1572.91,93.5181 1574.98,96.289 1577.06,96.289 1579.13,96.289 1581.21,96.289 1583.28,90.7472 1585.35,93.5181 1587.43,93.5181 1589.5,93.5181 1591.58,87.9763 1593.65,96.289 1595.73,93.5181 1597.8,87.9763 1599.87,87.9763 1601.95,90.7472 1604.02,93.5181 1606.1,93.5181 1608.17,93.5181 1610.24,93.5181 1612.32,99.0599 1614.39,87.9763 1616.47,90.7472 1618.54,96.289 1620.62,96.289 1622.69,90.7472 1624.76,96.289 1626.84,96.289 1628.91,87.9763 1630.99,90.7472 1633.06,96.289 1635.14,87.9763 1637.21,90.7472 1639.28,90.7472 1641.36,93.5181 1643.43,93.5181 1645.51,87.9763 1647.58,96.289 1649.66,96.289 1651.73,101.831 1653.8,96.289 1655.88,96.289 1657.95,90.7472 1660.03,101.831 1662.1,90.7472 1664.17,87.9763 1666.25,96.289 1668.32,96.289 1670.4,90.7472 1672.47,90.7472 1674.55,90.7472 1676.62,87.9763 1678.69,87.9763 1680.77,90.7472 1682.84,96.289 1684.92,93.5181 1686.99,96.289 1689.07,93.5181 1691.14,93.5181 1693.21,93.5181 1695.29,90.7472 1697.36,93.5181 1699.44,93.5181 1701.51,93.5181 1703.59,96.289 1705.66,90.7472 1707.73,96.289 1709.81,93.5181 1711.88,93.5181 1713.96,93.5181 1716.03,93.5181 1718.1,90.7472 1720.18,93.5181 1722.25,93.5181 1724.33,96.289 1726.4,93.5181 1728.48,90.7472 1730.55,93.5181 1732.62,87.9763 1734.7,101.831 1736.77,101.831 1738.85,87.9763 1740.92,99.0599 1743,90.7472 1745.07,90.7472 1747.14,87.9763 1749.22,90.7472 1751.29,93.5181 1753.37,93.5181 1755.44,93.5181 1757.52,96.289 1759.59,87.9763 1761.66,93.5181 1763.74,87.9763 1765.81,93.5181 1767.89,90.7472 1769.96,90.7472 1772.03,87.9763 1774.11,101.831 1776.18,93.5181 1778.26,90.7472 1780.33,96.289 1782.41,90.7472 1784.48,90.7472 1786.55,90.7472 1788.63,99.0599 1790.7,90.7472 1792.78,90.7472 1794.85,96.289 1796.93,93.5181 1799,87.9763 1801.07,90.7472 1803.15,96.289 1805.22,90.7472 1807.3,101.831 1809.37,87.9763 1811.44,90.7472 1813.52,96.289 1815.59,87.9763 1817.67,87.9763 1819.74,96.289 1821.82,96.289 1823.89,90.7472 1825.96,90.7472 1828.04,90.7472 1830.11,93.5181 1832.19,93.5181 1834.26,87.9763 1836.34,87.9763 1838.41,90.7472 1840.48,90.7472 1842.56,93.5181 1844.63,90.7472 1846.71,93.5181 1848.78,99.0599 1850.86,90.7472 1852.93,90.7472 1855,96.289 1857.08,90.7472 1859.15,90.7472 1861.23,93.5181 1863.3,90.7472 1865.37,90.7472 1867.45,96.289 1869.52,93.5181 1871.6,96.289 1873.67,101.831 1875.75,87.9763 1877.82,90.7472 1879.89,93.5181 1881.97,90.7472 1884.04,87.9763 1886.12,90.7472 1888.19,93.5181 1890.27,87.9763 1892.34,96.289 1894.41,90.7472 1896.49,93.5181 1898.56,93.5181 1900.64,90.7472 1902.71,93.5181 1904.79,87.9763 1906.86,96.289 1908.93,101.831 1911.01,90.7472 1913.08,87.9763 1915.16,87.9763 1917.23,93.5181 1919.3,90.7472 1921.38,87.9763 1923.45,87.9763 1925.53,96.289 1927.6,93.5181 1929.68,90.7472 1931.75,101.831 1933.82,93.5181 1935.9,87.9763 1937.97,93.5181 1940.05,90.7472 1942.12,90.7472 1944.2,90.7472 1946.27,90.7472 1948.34,90.7472 1950.42,93.5181 1952.49,93.5181 1954.57,93.5181 1956.64,96.289 1958.72,93.5181 1960.79,93.5181 1962.86,90.7472 1964.94,90.7472 1967.01,87.9763 1969.09,87.9763 1971.16,96.289 1973.23,93.5181 1975.31,90.7472 1977.38,87.9763 1979.46,96.289 1981.53,90.7472 1983.61,87.9763 1985.68,90.7472 1987.75,90.7472 1989.83,90.7472 1991.9,87.9763 1993.98,87.9763 1996.05,87.9763 1998.13,90.7472 2000.2,90.7472 2002.27,90.7472 2004.35,90.7472 2006.42,90.7472 2008.5,93.5181 2010.57,90.7472 2012.64,87.9763 2014.72,90.7472 2016.79,93.5181 2018.87,90.7472 2020.94,90.7472 2023.02,99.0599 2025.09,87.9763 2027.16,87.9763 2029.24,90.7472 2031.31,90.7472 2033.39,87.9763 2035.46,99.0599 2037.54,96.289 2039.61,96.289 2041.68,87.9763 2043.76,90.7472 2045.83,93.5181 2047.91,93.5181 2049.98,90.7472 2052.06,90.7472 2054.13,99.0599 2056.2,90.7472 2058.28,90.7472 2060.35,87.9763 2062.43,96.289 2064.5,87.9763 2066.57,90.7472 2068.65,90.7472 2070.72,87.9763 2072.8,93.5181 2074.87,93.5181 2076.95,93.5181 2079.02,90.7472 2081.09,90.7472 2083.17,90.7472 2085.24,87.9763 2087.32,96.289 2089.39,87.9763 2091.47,90.7472 2093.54,93.5181 2095.61,93.5181 2097.69,90.7472 2099.76,96.289 2101.84,90.7472 2103.91,90.7472 2105.99,90.7472 2108.06,87.9763 2110.13,90.7472 2112.21,90.7472 2114.28,90.7472 2116.36,90.7472 2118.43,96.289 2120.5,96.289 2122.58,87.9763 2124.65,90.7472 2126.73,96.289 2128.8,90.7472 2130.88,93.5181 2132.95,93.5181 2135.02,90.7472 2137.1,96.289 2139.17,93.5181 2141.25,90.7472 2143.32,90.7472 2145.4,101.831 2147.47,93.5181 2149.54,90.7472 2151.62,87.9763 2153.69,90.7472 2155.77,93.5181 2157.84,96.289 2159.92,96.289 2161.99,93.5181 2164.06,93.5181 2166.14,99.0599 2168.21,93.5181 2170.29,87.9763 2172.36,99.0599 2174.43,90.7472 2176.51,93.5181 2178.58,93.5181 2180.66,90.7472 2182.73,90.7472 2184.81,87.9763 2186.88,90.7472 2188.95,90.7472 2191.03,93.5181 2193.1,87.9763 2195.18,87.9763 2197.25,87.9763 2199.33,87.9763 2201.4,90.7472 2203.47,90.7472 2205.55,101.831 2207.62,101.831 2209.7,93.5181 2211.77,87.9763 2213.84,90.7472 2215.92,90.7472 2217.99,90.7472 2220.07,87.9763 2222.14,90.7472 2224.22,90.7472 2226.29,90.7472 2228.36,93.5181 2230.44,87.9763 2232.51,87.9763 2234.59,90.7472 2236.66,90.7472 2238.74,96.289 2240.81,87.9763 2242.88,87.9763 2244.96,96.289 2247.03,90.7472 2249.11,93.5181 2251.18,87.9763 2253.26,90.7472 2255.33,93.5181 2257.4,87.9763 2259.48,93.5181 2261.55,93.5181 2263.63,96.289 2265.7,90.7472 2267.77,87.9763 2269.85,101.831 2271.92,90.7472 2274,87.9763 2276.07,96.289 2278.15,90.7472 2280.22,93.5181 2282.29,90.7472 2284.37,90.7472 2286.44,90.7472 2288.52,90.7472 2290.59,87.9763 "/>
<path clip-path="url(#clip480)" d="M2007.46 1438.47 L2279.54 1438.47 L2279.54 1334.79 L2007.46 1334.79  Z" fill="#ffffff" fill-rule="evenodd" fill-opacity="1"/>
<polyline clip-path="url(#clip480)" style="stroke:#000000; stroke-linecap:round; stroke-linejoin:round; stroke-width:4; stroke-opacity:1; fill:none" points="2007.46,1438.47 2279.54,1438.47 2279.54,1334.79 2007.46,1334.79 2007.46,1438.47 "/>
<polyline clip-path="url(#clip480)" style="stroke:#009af9; stroke-linecap:round; stroke-linejoin:round; stroke-width:4; stroke-opacity:1; fill:none" points="2031.87,1386.63 2178.3,1386.63 "/>
<path clip-path="url(#clip480)" d="M2216.55 1406.32 Q2214.74 1410.95 2213.03 1412.36 Q2211.32 1413.78 2208.44 1413.78 L2205.04 1413.78 L2205.04 1410.21 L2207.54 1410.21 Q2209.3 1410.21 2210.27 1409.38 Q2211.25 1408.54 2212.43 1405.44 L2213.19 1403.5 L2202.7 1377.99 L2207.22 1377.99 L2215.32 1398.27 L2223.42 1377.99 L2227.94 1377.99 L2216.55 1406.32 Z" fill="#000000" fill-rule="nonzero" fill-opacity="1" /><path clip-path="url(#clip480)" d="M2235.23 1399.98 L2242.87 1399.98 L2242.87 1373.61 L2234.56 1375.28 L2234.56 1371.02 L2242.82 1369.35 L2247.5 1369.35 L2247.5 1399.98 L2255.13 1399.98 L2255.13 1403.91 L2235.23 1403.91 L2235.23 1399.98 Z" fill="#000000" fill-rule="nonzero" fill-opacity="1" /></svg>
