<?xml version="1.0" encoding="utf-8"?>
<svg xmlns="http://www.w3.org/2000/svg" xmlns:xlink="http://www.w3.org/1999/xlink" width="600" height="400" viewBox="0 0 2400 1600">
<defs>
  <clipPath id="clip760">
    <rect x="0" y="0" width="2400" height="1600"/>
  </clipPath>
</defs>
<path clip-path="url(#clip760)" d="M0 1600 L2400 1600 L2400 0 L0 0  Z" fill="#ffffff" fill-rule="evenodd" fill-opacity="1"/>
<defs>
  <clipPath id="clip761">
    <rect x="480" y="0" width="1681" height="1600"/>
  </clipPath>
</defs>
<path clip-path="url(#clip760)" d="M184.191 1486.45 L2352.76 1486.45 L2352.76 47.2441 L184.191 47.2441  Z" fill="#ffffff" fill-rule="evenodd" fill-opacity="1"/>
<defs>
  <clipPath id="clip762">
    <rect x="184" y="47" width="2170" height="1440"/>
  </clipPath>
</defs>
<polyline clip-path="url(#clip762)" style="stroke:#000000; stroke-linecap:round; stroke-linejoin:round; stroke-width:2; stroke-opacity:0.1; fill:none" points="245.565,1486.45 245.565,47.2441 "/>
<polyline clip-path="url(#clip762)" style="stroke:#000000; stroke-linecap:round; stroke-linejoin:round; stroke-width:2; stroke-opacity:0.1; fill:none" points="757.019,1486.45 757.019,47.2441 "/>
<polyline clip-path="url(#clip762)" style="stroke:#000000; stroke-linecap:round; stroke-linejoin:round; stroke-width:2; stroke-opacity:0.1; fill:none" points="1268.47,1486.45 1268.47,47.2441 "/>
<polyline clip-path="url(#clip762)" style="stroke:#000000; stroke-linecap:round; stroke-linejoin:round; stroke-width:2; stroke-opacity:0.1; fill:none" points="1779.93,1486.45 1779.93,47.2441 "/>
<polyline clip-path="url(#clip762)" style="stroke:#000000; stroke-linecap:round; stroke-linejoin:round; stroke-width:2; stroke-opacity:0.1; fill:none" points="2291.38,1486.45 2291.38,47.2441 "/>
<polyline clip-path="url(#clip760)" style="stroke:#000000; stroke-linecap:round; stroke-linejoin:round; stroke-width:4; stroke-opacity:1; fill:none" points="184.191,1486.45 2352.76,1486.45 "/>
<polyline clip-path="url(#clip760)" style="stroke:#000000; stroke-linecap:round; stroke-linejoin:round; stroke-width:4; stroke-opacity:1; fill:none" points="245.565,1486.45 245.565,1467.55 "/>
<polyline clip-path="url(#clip760)" style="stroke:#000000; stroke-linecap:round; stroke-linejoin:round; stroke-width:4; stroke-opacity:1; fill:none" points="757.019,1486.45 757.019,1467.55 "/>
<polyline clip-path="url(#clip760)" style="stroke:#000000; stroke-linecap:round; stroke-linejoin:round; stroke-width:4; stroke-opacity:1; fill:none" points="1268.47,1486.45 1268.47,1467.55 "/>
<polyline clip-path="url(#clip760)" style="stroke:#000000; stroke-linecap:round; stroke-linejoin:round; stroke-width:4; stroke-opacity:1; fill:none" points="1779.93,1486.45 1779.93,1467.55 "/>
<polyline clip-path="url(#clip760)" style="stroke:#000000; stroke-linecap:round; stroke-linejoin:round; stroke-width:4; stroke-opacity:1; fill:none" points="2291.38,1486.45 2291.38,1467.55 "/>
<path clip-path="url(#clip760)" d="M245.565 1517.37 Q241.954 1517.37 240.125 1520.93 Q238.32 1524.47 238.32 1531.6 Q238.32 1538.71 240.125 1542.27 Q241.954 1545.82 245.565 1545.82 Q249.199 1545.82 251.005 1542.27 Q252.834 1538.71 252.834 1531.6 Q252.834 1524.47 251.005 1520.93 Q249.199 1517.37 245.565 1517.37 M245.565 1513.66 Q251.375 1513.66 254.431 1518.27 Q257.51 1522.85 257.51 1531.6 Q257.51 1540.33 254.431 1544.94 Q251.375 1549.52 245.565 1549.52 Q239.755 1549.52 236.676 1544.94 Q233.621 1540.33 233.621 1531.6 Q233.621 1522.85 236.676 1518.27 Q239.755 1513.66 245.565 1513.66 Z" fill="#000000" fill-rule="nonzero" fill-opacity="1" /><path clip-path="url(#clip760)" d="M701.545 1544.91 L709.184 1544.91 L709.184 1518.55 L700.874 1520.21 L700.874 1515.95 L709.138 1514.29 L713.813 1514.29 L713.813 1544.91 L721.452 1544.91 L721.452 1548.85 L701.545 1548.85 L701.545 1544.91 Z" fill="#000000" fill-rule="nonzero" fill-opacity="1" /><path clip-path="url(#clip760)" d="M740.897 1517.37 Q737.286 1517.37 735.457 1520.93 Q733.651 1524.47 733.651 1531.6 Q733.651 1538.71 735.457 1542.27 Q737.286 1545.82 740.897 1545.82 Q744.531 1545.82 746.336 1542.27 Q748.165 1538.71 748.165 1531.6 Q748.165 1524.47 746.336 1520.93 Q744.531 1517.37 740.897 1517.37 M740.897 1513.66 Q746.707 1513.66 749.762 1518.27 Q752.841 1522.85 752.841 1531.6 Q752.841 1540.33 749.762 1544.94 Q746.707 1549.52 740.897 1549.52 Q735.086 1549.52 732.008 1544.94 Q728.952 1540.33 728.952 1531.6 Q728.952 1522.85 732.008 1518.27 Q735.086 1513.66 740.897 1513.66 Z" fill="#000000" fill-rule="nonzero" fill-opacity="1" /><path clip-path="url(#clip760)" d="M771.059 1517.37 Q767.447 1517.37 765.619 1520.93 Q763.813 1524.47 763.813 1531.6 Q763.813 1538.71 765.619 1542.27 Q767.447 1545.82 771.059 1545.82 Q774.693 1545.82 776.498 1542.27 Q778.327 1538.71 778.327 1531.6 Q778.327 1524.47 776.498 1520.93 Q774.693 1517.37 771.059 1517.37 M771.059 1513.66 Q776.869 1513.66 779.924 1518.27 Q783.003 1522.85 783.003 1531.6 Q783.003 1540.33 779.924 1544.94 Q776.869 1549.52 771.059 1549.52 Q765.248 1549.52 762.17 1544.94 Q759.114 1540.33 759.114 1531.6 Q759.114 1522.85 762.17 1518.27 Q765.248 1513.66 771.059 1513.66 Z" fill="#000000" fill-rule="nonzero" fill-opacity="1" /><path clip-path="url(#clip760)" d="M801.22 1517.37 Q797.609 1517.37 795.781 1520.93 Q793.975 1524.47 793.975 1531.6 Q793.975 1538.71 795.781 1542.27 Q797.609 1545.82 801.22 1545.82 Q804.855 1545.82 806.66 1542.27 Q808.489 1538.71 808.489 1531.6 Q808.489 1524.47 806.66 1520.93 Q804.855 1517.37 801.22 1517.37 M801.22 1513.66 Q807.031 1513.66 810.086 1518.27 Q813.165 1522.85 813.165 1531.6 Q813.165 1540.33 810.086 1544.94 Q807.031 1549.52 801.22 1549.52 Q795.41 1549.52 792.332 1544.94 Q789.276 1540.33 789.276 1531.6 Q789.276 1522.85 792.332 1518.27 Q795.41 1513.66 801.22 1513.66 Z" fill="#000000" fill-rule="nonzero" fill-opacity="1" /><path clip-path="url(#clip760)" d="M1217.08 1544.91 L1233.4 1544.91 L1233.4 1548.85 L1211.46 1548.85 L1211.46 1544.91 Q1214.12 1542.16 1218.71 1537.53 Q1223.31 1532.88 1224.49 1531.53 Q1226.74 1529.01 1227.62 1527.27 Q1228.52 1525.51 1228.52 1523.82 Q1228.52 1521.07 1226.58 1519.33 Q1224.65 1517.6 1221.55 1517.6 Q1219.35 1517.6 1216.9 1518.36 Q1214.47 1519.13 1211.69 1520.68 L1211.69 1515.95 Q1214.52 1514.82 1216.97 1514.24 Q1219.42 1513.66 1221.46 1513.66 Q1226.83 1513.66 1230.02 1516.35 Q1233.22 1519.03 1233.22 1523.52 Q1233.22 1525.65 1232.41 1527.57 Q1231.62 1529.47 1229.52 1532.07 Q1228.94 1532.74 1225.83 1535.95 Q1222.73 1539.15 1217.08 1544.91 Z" fill="#000000" fill-rule="nonzero" fill-opacity="1" /><path clip-path="url(#clip760)" d="M1253.22 1517.37 Q1249.61 1517.37 1247.78 1520.93 Q1245.97 1524.47 1245.97 1531.6 Q1245.97 1538.71 1247.78 1542.27 Q1249.61 1545.82 1253.22 1545.82 Q1256.85 1545.82 1258.66 1542.27 Q1260.49 1538.71 1260.49 1531.6 Q1260.49 1524.47 1258.66 1520.93 Q1256.85 1517.37 1253.22 1517.37 M1253.22 1513.66 Q1259.03 1513.66 1262.08 1518.27 Q1265.16 1522.85 1265.16 1531.6 Q1265.16 1540.33 1262.08 1544.94 Q1259.03 1549.52 1253.22 1549.52 Q1247.41 1549.52 1244.33 1544.94 Q1241.27 1540.33 1241.27 1531.6 Q1241.27 1522.85 1244.33 1518.27 Q1247.41 1513.66 1253.22 1513.66 Z" fill="#000000" fill-rule="nonzero" fill-opacity="1" /><path clip-path="url(#clip760)" d="M1283.38 1517.37 Q1279.77 1517.37 1277.94 1520.93 Q1276.14 1524.47 1276.14 1531.6 Q1276.14 1538.71 1277.94 1542.27 Q1279.77 1545.82 1283.38 1545.82 Q1287.01 1545.82 1288.82 1542.27 Q1290.65 1538.71 1290.65 1531.6 Q1290.65 1524.47 1288.82 1520.93 Q1287.01 1517.37 1283.38 1517.37 M1283.38 1513.66 Q1289.19 1513.66 1292.25 1518.27 Q1295.33 1522.85 1295.33 1531.6 Q1295.33 1540.33 1292.25 1544.94 Q1289.19 1549.52 1283.38 1549.52 Q1277.57 1549.52 1274.49 1544.94 Q1271.44 1540.33 1271.44 1531.6 Q1271.44 1522.85 1274.49 1518.27 Q1277.57 1513.66 1283.38 1513.66 Z" fill="#000000" fill-rule="nonzero" fill-opacity="1" /><path clip-path="url(#clip760)" d="M1313.54 1517.37 Q1309.93 1517.37 1308.1 1520.93 Q1306.3 1524.47 1306.3 1531.6 Q1306.3 1538.71 1308.1 1542.27 Q1309.93 1545.82 1313.54 1545.82 Q1317.18 1545.82 1318.98 1542.27 Q1320.81 1538.71 1320.81 1531.6 Q1320.81 1524.47 1318.98 1520.93 Q1317.18 1517.37 1313.54 1517.37 M1313.54 1513.66 Q1319.35 1513.66 1322.41 1518.27 Q1325.49 1522.85 1325.49 1531.6 Q1325.49 1540.33 1322.41 1544.94 Q1319.35 1549.52 1313.54 1549.52 Q1307.73 1549.52 1304.65 1544.94 Q1301.6 1540.33 1301.6 1531.6 Q1301.6 1522.85 1304.65 1518.27 Q1307.73 1513.66 1313.54 1513.66 Z" fill="#000000" fill-rule="nonzero" fill-opacity="1" /><path clip-path="url(#clip760)" d="M1738.61 1530.21 Q1741.96 1530.93 1743.84 1533.2 Q1745.74 1535.47 1745.74 1538.8 Q1745.74 1543.92 1742.22 1546.72 Q1738.7 1549.52 1732.22 1549.52 Q1730.04 1549.52 1727.73 1549.08 Q1725.44 1548.66 1722.98 1547.81 L1722.98 1543.29 Q1724.93 1544.43 1727.24 1545.01 Q1729.56 1545.58 1732.08 1545.58 Q1736.48 1545.58 1738.77 1543.85 Q1741.08 1542.11 1741.08 1538.8 Q1741.08 1535.75 1738.93 1534.03 Q1736.8 1532.3 1732.98 1532.3 L1728.96 1532.3 L1728.96 1528.45 L1733.17 1528.45 Q1736.62 1528.45 1738.45 1527.09 Q1740.27 1525.7 1740.27 1523.11 Q1740.27 1520.45 1738.38 1519.03 Q1736.5 1517.6 1732.98 1517.6 Q1731.06 1517.6 1728.86 1518.01 Q1726.66 1518.43 1724.02 1519.31 L1724.02 1515.14 Q1726.69 1514.4 1729 1514.03 Q1731.34 1513.66 1733.4 1513.66 Q1738.72 1513.66 1741.83 1516.09 Q1744.93 1518.5 1744.93 1522.62 Q1744.93 1525.49 1743.28 1527.48 Q1741.64 1529.45 1738.61 1530.21 Z" fill="#000000" fill-rule="nonzero" fill-opacity="1" /><path clip-path="url(#clip760)" d="M1764.6 1517.37 Q1760.99 1517.37 1759.16 1520.93 Q1757.36 1524.47 1757.36 1531.6 Q1757.36 1538.71 1759.16 1542.27 Q1760.99 1545.82 1764.6 1545.82 Q1768.24 1545.82 1770.04 1542.27 Q1771.87 1538.71 1771.87 1531.6 Q1771.87 1524.47 1770.04 1520.93 Q1768.24 1517.37 1764.6 1517.37 M1764.6 1513.66 Q1770.41 1513.66 1773.47 1518.27 Q1776.55 1522.85 1776.55 1531.6 Q1776.55 1540.33 1773.47 1544.94 Q1770.41 1549.52 1764.6 1549.52 Q1758.79 1549.52 1755.71 1544.94 Q1752.66 1540.33 1752.66 1531.6 Q1752.66 1522.85 1755.71 1518.27 Q1758.79 1513.66 1764.6 1513.66 Z" fill="#000000" fill-rule="nonzero" fill-opacity="1" /><path clip-path="url(#clip760)" d="M1794.77 1517.37 Q1791.15 1517.37 1789.33 1520.93 Q1787.52 1524.47 1787.52 1531.6 Q1787.52 1538.71 1789.33 1542.27 Q1791.15 1545.82 1794.77 1545.82 Q1798.4 1545.82 1800.21 1542.27 Q1802.03 1538.71 1802.03 1531.6 Q1802.03 1524.47 1800.21 1520.93 Q1798.4 1517.37 1794.77 1517.37 M1794.77 1513.66 Q1800.58 1513.66 1803.63 1518.27 Q1806.71 1522.85 1806.71 1531.6 Q1806.71 1540.33 1803.63 1544.94 Q1800.58 1549.52 1794.77 1549.52 Q1788.96 1549.52 1785.88 1544.94 Q1782.82 1540.33 1782.82 1531.6 Q1782.82 1522.85 1785.88 1518.27 Q1788.96 1513.66 1794.77 1513.66 Z" fill="#000000" fill-rule="nonzero" fill-opacity="1" /><path clip-path="url(#clip760)" d="M1824.93 1517.37 Q1821.32 1517.37 1819.49 1520.93 Q1817.68 1524.47 1817.68 1531.6 Q1817.68 1538.71 1819.49 1542.27 Q1821.32 1545.82 1824.93 1545.82 Q1828.56 1545.82 1830.37 1542.27 Q1832.2 1538.71 1832.2 1531.6 Q1832.2 1524.47 1830.37 1520.93 Q1828.56 1517.37 1824.93 1517.37 M1824.93 1513.66 Q1830.74 1513.66 1833.79 1518.27 Q1836.87 1522.85 1836.87 1531.6 Q1836.87 1540.33 1833.79 1544.94 Q1830.74 1549.52 1824.93 1549.52 Q1819.12 1549.52 1816.04 1544.94 Q1812.98 1540.33 1812.98 1531.6 Q1812.98 1522.85 1816.04 1518.27 Q1819.12 1513.66 1824.93 1513.66 Z" fill="#000000" fill-rule="nonzero" fill-opacity="1" /><path clip-path="url(#clip760)" d="M2249.39 1518.36 L2237.59 1536.81 L2249.39 1536.81 L2249.39 1518.36 M2248.16 1514.29 L2254.04 1514.29 L2254.04 1536.81 L2258.97 1536.81 L2258.97 1540.7 L2254.04 1540.7 L2254.04 1548.85 L2249.39 1548.85 L2249.39 1540.7 L2233.79 1540.7 L2233.79 1536.19 L2248.16 1514.29 Z" fill="#000000" fill-rule="nonzero" fill-opacity="1" /><path clip-path="url(#clip760)" d="M2276.71 1517.37 Q2273.09 1517.37 2271.27 1520.93 Q2269.46 1524.47 2269.46 1531.6 Q2269.46 1538.71 2271.27 1542.27 Q2273.09 1545.82 2276.71 1545.82 Q2280.34 1545.82 2282.15 1542.27 Q2283.97 1538.71 2283.97 1531.6 Q2283.97 1524.47 2282.15 1520.93 Q2280.34 1517.37 2276.71 1517.37 M2276.71 1513.66 Q2282.52 1513.66 2285.57 1518.27 Q2288.65 1522.85 2288.65 1531.6 Q2288.65 1540.33 2285.57 1544.94 Q2282.52 1549.52 2276.71 1549.52 Q2270.9 1549.52 2267.82 1544.94 Q2264.76 1540.33 2264.76 1531.6 Q2264.76 1522.85 2267.82 1518.27 Q2270.9 1513.66 2276.71 1513.66 Z" fill="#000000" fill-rule="nonzero" fill-opacity="1" /><path clip-path="url(#clip760)" d="M2306.87 1517.37 Q2303.26 1517.37 2301.43 1520.93 Q2299.62 1524.47 2299.62 1531.6 Q2299.62 1538.71 2301.43 1542.27 Q2303.26 1545.82 2306.87 1545.82 Q2310.5 1545.82 2312.31 1542.27 Q2314.14 1538.71 2314.14 1531.6 Q2314.14 1524.47 2312.31 1520.93 Q2310.5 1517.37 2306.87 1517.37 M2306.87 1513.66 Q2312.68 1513.66 2315.73 1518.27 Q2318.81 1522.85 2318.81 1531.6 Q2318.81 1540.33 2315.73 1544.94 Q2312.68 1549.52 2306.87 1549.52 Q2301.06 1549.52 2297.98 1544.94 Q2294.92 1540.33 2294.92 1531.6 Q2294.92 1522.85 2297.98 1518.27 Q2301.06 1513.66 2306.87 1513.66 Z" fill="#000000" fill-rule="nonzero" fill-opacity="1" /><path clip-path="url(#clip760)" d="M2337.03 1517.37 Q2333.42 1517.37 2331.59 1520.93 Q2329.78 1524.47 2329.78 1531.6 Q2329.78 1538.71 2331.59 1542.27 Q2333.42 1545.82 2337.03 1545.82 Q2340.66 1545.82 2342.47 1542.27 Q2344.3 1538.71 2344.3 1531.6 Q2344.3 1524.47 2342.47 1520.93 Q2340.66 1517.37 2337.03 1517.37 M2337.03 1513.66 Q2342.84 1513.66 2345.9 1518.27 Q2348.97 1522.85 2348.97 1531.6 Q2348.97 1540.33 2345.9 1544.94 Q2342.84 1549.52 2337.03 1549.52 Q2331.22 1549.52 2328.14 1544.94 Q2325.08 1540.33 2325.08 1531.6 Q2325.08 1522.85 2328.14 1518.27 Q2331.22 1513.66 2337.03 1513.66 Z" fill="#000000" fill-rule="nonzero" fill-opacity="1" /><polyline clip-path="url(#clip762)" style="stroke:#000000; stroke-linecap:round; stroke-linejoin:round; stroke-width:2; stroke-opacity:0.1; fill:none" points="184.191,1319.29 2352.76,1319.29 "/>
<polyline clip-path="url(#clip762)" style="stroke:#000000; stroke-linecap:round; stroke-linejoin:round; stroke-width:2; stroke-opacity:0.1; fill:none" points="184.191,1061.71 2352.76,1061.71 "/>
<polyline clip-path="url(#clip762)" style="stroke:#000000; stroke-linecap:round; stroke-linejoin:round; stroke-width:2; stroke-opacity:0.1; fill:none" points="184.191,804.126 2352.76,804.126 "/>
<polyline clip-path="url(#clip762)" style="stroke:#000000; stroke-linecap:round; stroke-linejoin:round; stroke-width:2; stroke-opacity:0.1; fill:none" points="184.191,546.544 2352.76,546.544 "/>
<polyline clip-path="url(#clip762)" style="stroke:#000000; stroke-linecap:round; stroke-linejoin:round; stroke-width:2; stroke-opacity:0.1; fill:none" points="184.191,288.962 2352.76,288.962 "/>
<polyline clip-path="url(#clip760)" style="stroke:#000000; stroke-linecap:round; stroke-linejoin:round; stroke-width:4; stroke-opacity:1; fill:none" points="184.191,1486.45 184.191,47.2441 "/>
<polyline clip-path="url(#clip760)" style="stroke:#000000; stroke-linecap:round; stroke-linejoin:round; stroke-width:4; stroke-opacity:1; fill:none" points="184.191,1319.29 203.088,1319.29 "/>
<polyline clip-path="url(#clip760)" style="stroke:#000000; stroke-linecap:round; stroke-linejoin:round; stroke-width:4; stroke-opacity:1; fill:none" points="184.191,1061.71 203.088,1061.71 "/>
<polyline clip-path="url(#clip760)" style="stroke:#000000; stroke-linecap:round; stroke-linejoin:round; stroke-width:4; stroke-opacity:1; fill:none" points="184.191,804.126 203.088,804.126 "/>
<polyline clip-path="url(#clip760)" style="stroke:#000000; stroke-linecap:round; stroke-linejoin:round; stroke-width:4; stroke-opacity:1; fill:none" points="184.191,546.544 203.088,546.544 "/>
<polyline clip-path="url(#clip760)" style="stroke:#000000; stroke-linecap:round; stroke-linejoin:round; stroke-width:4; stroke-opacity:1; fill:none" points="184.191,288.962 203.088,288.962 "/>
<path clip-path="url(#clip760)" d="M51.6634 1332.63 L59.3023 1332.63 L59.3023 1306.27 L50.9921 1307.93 L50.9921 1303.68 L59.256 1302.01 L63.9319 1302.01 L63.9319 1332.63 L71.5707 1332.63 L71.5707 1336.57 L51.6634 1336.57 L51.6634 1332.63 Z" fill="#000000" fill-rule="nonzero" fill-opacity="1" /><path clip-path="url(#clip760)" d="M81.8253 1332.63 L89.4641 1332.63 L89.4641 1306.27 L81.154 1307.93 L81.154 1303.68 L89.4178 1302.01 L94.0937 1302.01 L94.0937 1332.63 L101.733 1332.63 L101.733 1336.57 L81.8253 1336.57 L81.8253 1332.63 Z" fill="#000000" fill-rule="nonzero" fill-opacity="1" /><path clip-path="url(#clip760)" d="M111.177 1330.69 L116.061 1330.69 L116.061 1336.57 L111.177 1336.57 L111.177 1330.69 Z" fill="#000000" fill-rule="nonzero" fill-opacity="1" /><path clip-path="url(#clip760)" d="M136.246 1305.09 Q132.635 1305.09 130.807 1308.65 Q129.001 1312.19 129.001 1319.32 Q129.001 1326.43 130.807 1329.99 Q132.635 1333.54 136.246 1333.54 Q139.881 1333.54 141.686 1329.99 Q143.515 1326.43 143.515 1319.32 Q143.515 1312.19 141.686 1308.65 Q139.881 1305.09 136.246 1305.09 M136.246 1301.38 Q142.056 1301.38 145.112 1305.99 Q148.191 1310.57 148.191 1319.32 Q148.191 1328.05 145.112 1332.66 Q142.056 1337.24 136.246 1337.24 Q130.436 1337.24 127.357 1332.66 Q124.302 1328.05 124.302 1319.32 Q124.302 1310.57 127.357 1305.99 Q130.436 1301.38 136.246 1301.38 Z" fill="#000000" fill-rule="nonzero" fill-opacity="1" /><path clip-path="url(#clip760)" d="M52.6588 1075.05 L60.2976 1075.05 L60.2976 1048.69 L51.9875 1050.35 L51.9875 1046.09 L60.2513 1044.43 L64.9272 1044.43 L64.9272 1075.05 L72.5661 1075.05 L72.5661 1078.99 L52.6588 1078.99 L52.6588 1075.05 Z" fill="#000000" fill-rule="nonzero" fill-opacity="1" /><path clip-path="url(#clip760)" d="M82.8207 1075.05 L90.4595 1075.05 L90.4595 1048.69 L82.1494 1050.35 L82.1494 1046.09 L90.4132 1044.43 L95.0891 1044.43 L95.0891 1075.05 L102.728 1075.05 L102.728 1078.99 L82.8207 1078.99 L82.8207 1075.05 Z" fill="#000000" fill-rule="nonzero" fill-opacity="1" /><path clip-path="url(#clip760)" d="M112.172 1073.11 L117.057 1073.11 L117.057 1078.99 L112.172 1078.99 L112.172 1073.11 Z" fill="#000000" fill-rule="nonzero" fill-opacity="1" /><path clip-path="url(#clip760)" d="M127.288 1044.43 L145.644 1044.43 L145.644 1048.36 L131.57 1048.36 L131.57 1056.83 Q132.589 1056.49 133.607 1056.33 Q134.626 1056.14 135.644 1056.14 Q141.431 1056.14 144.811 1059.31 Q148.191 1062.48 148.191 1067.9 Q148.191 1073.48 144.718 1076.58 Q141.246 1079.66 134.927 1079.66 Q132.751 1079.66 130.482 1079.29 Q128.237 1078.92 125.83 1078.18 L125.83 1073.48 Q127.913 1074.61 130.135 1075.17 Q132.357 1075.72 134.834 1075.72 Q138.839 1075.72 141.177 1073.62 Q143.515 1071.51 143.515 1067.9 Q143.515 1064.29 141.177 1062.18 Q138.839 1060.08 134.834 1060.08 Q132.959 1060.08 131.084 1060.49 Q129.232 1060.91 127.288 1061.79 L127.288 1044.43 Z" fill="#000000" fill-rule="nonzero" fill-opacity="1" /><path clip-path="url(#clip760)" d="M51.6634 817.47 L59.3023 817.47 L59.3023 791.105 L50.9921 792.771 L50.9921 788.512 L59.256 786.846 L63.9319 786.846 L63.9319 817.47 L71.5707 817.47 L71.5707 821.406 L51.6634 821.406 L51.6634 817.47 Z" fill="#000000" fill-rule="nonzero" fill-opacity="1" /><path clip-path="url(#clip760)" d="M85.0429 817.47 L101.362 817.47 L101.362 821.406 L79.4179 821.406 L79.4179 817.47 Q82.0799 814.716 86.6632 810.086 Q91.2697 805.433 92.4502 804.091 Q94.6956 801.568 95.5752 799.832 Q96.478 798.072 96.478 796.383 Q96.478 793.628 94.5336 791.892 Q92.6123 790.156 89.5104 790.156 Q87.3114 790.156 84.8577 790.92 Q82.4271 791.684 79.6494 793.234 L79.6494 788.512 Q82.4734 787.378 84.9271 786.799 Q87.3808 786.221 89.4178 786.221 Q94.7882 786.221 97.9826 788.906 Q101.177 791.591 101.177 796.082 Q101.177 798.211 100.367 800.133 Q99.5798 802.031 97.4734 804.623 Q96.8947 805.295 93.7928 808.512 Q90.691 811.707 85.0429 817.47 Z" fill="#000000" fill-rule="nonzero" fill-opacity="1" /><path clip-path="url(#clip760)" d="M111.177 815.526 L116.061 815.526 L116.061 821.406 L111.177 821.406 L111.177 815.526 Z" fill="#000000" fill-rule="nonzero" fill-opacity="1" /><path clip-path="url(#clip760)" d="M136.246 789.924 Q132.635 789.924 130.807 793.489 Q129.001 797.031 129.001 804.16 Q129.001 811.267 130.807 814.832 Q132.635 818.373 136.246 818.373 Q139.881 818.373 141.686 814.832 Q143.515 811.267 143.515 804.16 Q143.515 797.031 141.686 793.489 Q139.881 789.924 136.246 789.924 M136.246 786.221 Q142.056 786.221 145.112 790.827 Q148.191 795.41 148.191 804.16 Q148.191 812.887 145.112 817.494 Q142.056 822.077 136.246 822.077 Q130.436 822.077 127.357 817.494 Q124.302 812.887 124.302 804.16 Q124.302 795.41 127.357 790.827 Q130.436 786.221 136.246 786.221 Z" fill="#000000" fill-rule="nonzero" fill-opacity="1" /><path clip-path="url(#clip760)" d="M52.6588 559.889 L60.2976 559.889 L60.2976 533.523 L51.9875 535.19 L51.9875 530.931 L60.2513 529.264 L64.9272 529.264 L64.9272 559.889 L72.5661 559.889 L72.5661 563.824 L52.6588 563.824 L52.6588 559.889 Z" fill="#000000" fill-rule="nonzero" fill-opacity="1" /><path clip-path="url(#clip760)" d="M86.0382 559.889 L102.358 559.889 L102.358 563.824 L80.4133 563.824 L80.4133 559.889 Q83.0753 557.134 87.6586 552.505 Q92.2651 547.852 93.4456 546.509 Q95.691 543.986 96.5706 542.25 Q97.4734 540.491 97.4734 538.801 Q97.4734 536.046 95.5289 534.31 Q93.6076 532.574 90.5058 532.574 Q88.3067 532.574 85.8531 533.338 Q83.4225 534.102 80.6447 535.653 L80.6447 530.931 Q83.4688 529.796 85.9225 529.218 Q88.3762 528.639 90.4132 528.639 Q95.7836 528.639 98.978 531.324 Q102.172 534.009 102.172 538.5 Q102.172 540.63 101.362 542.551 Q100.575 544.449 98.4687 547.042 Q97.89 547.713 94.7882 550.931 Q91.6864 554.125 86.0382 559.889 Z" fill="#000000" fill-rule="nonzero" fill-opacity="1" /><path clip-path="url(#clip760)" d="M112.172 557.944 L117.057 557.944 L117.057 563.824 L112.172 563.824 L112.172 557.944 Z" fill="#000000" fill-rule="nonzero" fill-opacity="1" /><path clip-path="url(#clip760)" d="M127.288 529.264 L145.644 529.264 L145.644 533.199 L131.57 533.199 L131.57 541.671 Q132.589 541.324 133.607 541.162 Q134.626 540.977 135.644 540.977 Q141.431 540.977 144.811 544.148 Q148.191 547.319 148.191 552.736 Q148.191 558.315 144.718 561.417 Q141.246 564.495 134.927 564.495 Q132.751 564.495 130.482 564.125 Q128.237 563.755 125.83 563.014 L125.83 558.315 Q127.913 559.449 130.135 560.005 Q132.357 560.56 134.834 560.56 Q138.839 560.56 141.177 558.454 Q143.515 556.347 143.515 552.736 Q143.515 549.125 141.177 547.019 Q138.839 544.912 134.834 544.912 Q132.959 544.912 131.084 545.329 Q129.232 545.745 127.288 546.625 L127.288 529.264 Z" fill="#000000" fill-rule="nonzero" fill-opacity="1" /><path clip-path="url(#clip760)" d="M51.6634 302.307 L59.3023 302.307 L59.3023 275.942 L50.9921 277.608 L50.9921 273.349 L59.256 271.682 L63.9319 271.682 L63.9319 302.307 L71.5707 302.307 L71.5707 306.242 L51.6634 306.242 L51.6634 302.307 Z" fill="#000000" fill-rule="nonzero" fill-opacity="1" /><path clip-path="url(#clip760)" d="M95.1817 287.608 Q98.5382 288.326 100.413 290.594 Q102.311 292.863 102.311 296.196 Q102.311 301.312 98.7928 304.113 Q95.2743 306.914 88.7928 306.914 Q86.6169 306.914 84.3021 306.474 Q82.0105 306.057 79.5568 305.201 L79.5568 300.687 Q81.5012 301.821 83.816 302.4 Q86.1308 302.978 88.654 302.978 Q93.0521 302.978 95.3437 301.242 Q97.6585 299.506 97.6585 296.196 Q97.6585 293.141 95.5058 291.428 Q93.3762 289.692 89.5567 289.692 L85.529 289.692 L85.529 285.849 L89.7419 285.849 Q93.191 285.849 95.0197 284.483 Q96.8484 283.094 96.8484 280.502 Q96.8484 277.84 94.9502 276.428 Q93.0752 274.993 89.5567 274.993 Q87.6354 274.993 85.4364 275.409 Q83.2373 275.826 80.5984 276.705 L80.5984 272.539 Q83.2605 271.798 85.5753 271.428 Q87.9132 271.057 89.9734 271.057 Q95.2974 271.057 98.3993 273.488 Q101.501 275.895 101.501 280.016 Q101.501 282.886 99.8576 284.877 Q98.2141 286.844 95.1817 287.608 Z" fill="#000000" fill-rule="nonzero" fill-opacity="1" /><path clip-path="url(#clip760)" d="M111.177 300.363 L116.061 300.363 L116.061 306.242 L111.177 306.242 L111.177 300.363 Z" fill="#000000" fill-rule="nonzero" fill-opacity="1" /><path clip-path="url(#clip760)" d="M136.246 274.761 Q132.635 274.761 130.807 278.326 Q129.001 281.867 129.001 288.997 Q129.001 296.104 130.807 299.668 Q132.635 303.21 136.246 303.21 Q139.881 303.21 141.686 299.668 Q143.515 296.104 143.515 288.997 Q143.515 281.867 141.686 278.326 Q139.881 274.761 136.246 274.761 M136.246 271.057 Q142.056 271.057 145.112 275.664 Q148.191 280.247 148.191 288.997 Q148.191 297.724 145.112 302.33 Q142.056 306.914 136.246 306.914 Q130.436 306.914 127.357 302.33 Q124.302 297.724 124.302 288.997 Q124.302 280.247 127.357 275.664 Q130.436 271.057 136.246 271.057 Z" fill="#000000" fill-rule="nonzero" fill-opacity="1" /><polyline clip-path="url(#clip762)" style="stroke:#009af9; stroke-linecap:round; stroke-linejoin:round; stroke-width:4; stroke-opacity:1; fill:none" points="245.565,87.9763 246.077,317.035 246.588,489.516 247.1,621.484 247.611,724.488 248.122,806.407 248.634,872.922 249.145,928.759 249.657,975.509 250.168,1015.1 250.68,1049.18 251.191,1078.81 251.703,1104.95 252.214,1128.49 252.726,1149.51 253.237,1168.33 253.748,1185.39 254.26,1200.77 254.771,1214.86 255.283,1227.87 255.794,1239.86 256.306,1251.12 256.817,1261.56 257.329,1271.16 257.84,1280.09 258.352,1288.39 258.863,1296.14 259.374,1303.48 259.886,1310.37 260.397,1317.03 260.909,1323.29 261.42,1328.99 261.932,1334.38 262.443,1339.51 262.955,1344.35 263.466,1348.85 263.978,1353.1 264.489,1357.17 265,1361.01 265.512,1364.75 266.023,1368.3 266.535,1371.69 267.046,1374.9 267.558,1377.9 268.069,1380.75 268.581,1383.46 269.092,1386.04 269.604,1388.53 270.115,1390.9 270.626,1393.11 271.138,1395.22 271.649,1397.19 272.161,1399.06 272.672,1400.89 273.184,1402.62 273.695,1404.34 274.207,1405.99 274.718,1407.45 275.23,1408.85 275.741,1410.32 276.252,1411.72 276.764,1413.04 277.275,1414.32 277.787,1415.4 278.298,1416.44 278.81,1417.47 279.321,1418.47 279.833,1419.42 280.344,1420.34 280.855,1421.31 281.367,1422.24 281.878,1423.1 282.39,1423.93 282.901,1424.73 283.413,1425.49 283.924,1426.15 284.436,1426.79 284.947,1427.52 285.459,1428.21 285.97,1428.81 286.481,1429.39 286.993,1429.94 287.504,1430.47 288.016,1430.95 288.527,1431.42 289.039,1431.9 289.55,1432.36 290.062,1432.82 290.573,1433.27 291.085,1433.69 291.596,1434.1 292.107,1434.44 292.619,1434.78 293.13,1435.07 293.642,1435.35 294.153,1435.69 294.665,1436.01 295.176,1436.35 295.688,1436.68 296.199,1436.98 296.711,1437.27 297.222,1437.54 297.733,1437.79 298.245,1438.03 298.756,1438.25 299.268,1438.5 299.779,1438.74 300.291,1438.97 300.802,1439.19 301.314,1439.31 301.825,1439.43 302.337,1439.61 302.848,1439.79 303.359,1439.99 303.871,1440.17 304.382,1440.34 304.894,1440.49 305.405,1440.65 305.917,1440.8 306.428,1440.94 306.94,1441.08 307.451,1441.16 307.963,1441.24 308.474,1441.42 308.985,1441.59 309.497,1441.71 310.008,1441.83 310.52,1442.02 311.031,1442.19 311.543,1442.3 312.054,1442.41 312.566,1442.46 313.077,1442.51 313.589,1442.61 314.1,1442.7 314.611,1442.77 315.123,1442.85 315.634,1442.94 316.146,1443.03 316.657,1443.08 317.169,1443.13 317.68,1443.18 318.192,1443.23 318.703,1443.3 319.215,1443.36 319.726,1443.43 320.237,1443.5 320.749,1443.57 321.26,1443.64 321.772,1443.64 322.283,1443.65 322.795,1443.68 323.306,1443.7 323.818,1443.77 324.329,1443.84 324.841,1443.86 325.352,1443.89 325.863,1443.95 326.375,1444 326.886,1444.04 327.398,1444.08 327.909,1444.1 328.421,1444.12 328.932,1444.06 329.444,1444.01 329.955,1444.05 330.467,1444.1 330.978,1444.14 331.489,1444.18 332.001,1444.2 332.512,1444.22 333.024,1444.32 333.535,1444.41 334.047,1444.44 334.558,1444.47 335.07,1444.5 335.581,1444.53 336.093,1444.57 336.604,1444.62 337.115,1444.61 337.627,1444.59 338.138,1444.6 338.65,1444.6 339.161,1444.66 339.673,1444.71 340.184,1444.73 340.696,1444.75 341.207,1444.75 341.719,1444.74 342.23,1444.77 342.741,1444.79 343.253,1444.87 343.764,1444.94 344.276,1444.92 344.787,1444.89 345.299,1444.91 345.81,1444.92 346.322,1444.94 346.833,1444.95 347.345,1444.92 347.856,1444.89 348.367,1444.91 348.879,1444.93 349.39,1444.92 349.902,1444.9 350.413,1444.86 350.925,1444.81 351.436,1444.8 351.948,1444.8 352.459,1444.78 352.971,1444.77 353.482,1444.81 353.993,1444.84 354.505,1444.91 355.016,1444.98 355.528,1444.99 356.039,1445 356.551,1445.01 357.062,1445.02 357.574,1445.04 358.085,1445.06 358.597,1445.1 359.108,1445.14 359.619,1445.16 360.131,1445.17 360.642,1445.18 361.154,1445.18 361.665,1445.18 362.177,1445.18 362.688,1445.24 363.2,1445.29 363.711,1445.3 364.223,1445.31 364.734,1445.29 365.245,1445.27 365.757,1445.28 366.268,1445.29 366.78,1445.33 367.291,1445.36 367.803,1445.27 368.314,1445.18 368.826,1445.19 369.337,1445.19 369.849,1445.24 370.36,1445.28 370.871,1445.27 371.383,1445.26 371.894,1445.28 372.406,1445.29 372.917,1445.29 373.429,1445.29 373.94,1445.32 374.452,1445.35 374.963,1445.31 375.474,1445.27 375.986,1445.29 376.497,1445.31 377.009,1445.34 377.52,1445.36 378.032,1445.36 378.543,1445.36 379.055,1445.34 379.566,1445.31 380.078,1445.29 380.589,1445.27 381.1,1445.24 381.612,1445.22 382.123,1445.26 382.635,1445.29 383.146,1445.26 383.658,1445.23 384.169,1445.26 384.681,1445.3 385.192,1445.31 385.704,1445.32 386.215,1445.33 386.726,1445.34 387.238,1445.33 387.749,1445.33 388.261,1445.35 388.772,1445.37 389.284,1445.32 389.795,1445.28 390.307,1445.28 390.818,1445.28 391.33,1445.24 391.841,1445.2 392.352,1445.22 392.864,1445.24 393.375,1445.23 393.887,1445.22 394.398,1445.26 394.91,1445.3 395.421,1445.34 395.933,1445.37 396.444,1445.39 396.956,1445.41 397.467,1445.42 397.978,1445.42 398.49,1445.41 399.001,1445.4 399.513,1445.39 400.024,1445.37 400.536,1445.38 401.047,1445.39 401.559,1445.35 402.07,1445.3 402.582,1445.33 403.093,1445.36 403.604,1445.31 404.116,1445.27 404.627,1445.25 405.139,1445.24 405.65,1445.21 406.162,1445.19 406.673,1445.16 407.185,1445.14 407.696,1445.16 408.208,1445.18 408.719,1445.26 409.23,1445.34 409.742,1445.39 410.253,1445.43 410.765,1445.43 411.276,1445.42 411.788,1445.41 412.299,1445.41 412.811,1445.43 413.322,1445.46 413.834,1445.47 414.345,1445.48 414.856,1445.45 415.368,1445.42 415.879,1445.41 416.391,1445.4 416.902,1445.38 417.414,1445.36 417.925,1445.34 418.437,1445.31 418.948,1445.31 419.46,1445.3 419.971,1445.3 420.482,1445.29 420.994,1445.26 421.505,1445.22 422.017,1445.29 422.528,1445.36 423.04,1445.37 423.551,1445.39 424.063,1445.37 424.574,1445.36 425.086,1445.38 425.597,1445.39 426.108,1445.41 426.62,1445.43 427.131,1445.43 427.643,1445.43 428.154,1445.47 428.666,1445.5 429.177,1445.44 429.689,1445.39 430.2,1445.44 430.712,1445.48 431.223,1445.52 431.734,1445.57 432.246,1445.62 432.757,1445.67 433.269,1445.68 433.78,1445.69 434.292,1445.71 434.803,1445.72 435.315,1445.69 435.826,1445.66 436.338,1445.59 436.849,1445.53 437.36,1445.55 437.872,1445.58 438.383,1445.57 438.895,1445.56 439.406,1445.5 439.918,1445.44 440.429,1445.45 440.941,1445.46 441.452,1445.48 441.964,1445.49 442.475,1445.52 442.986,1445.55 443.498,1445.49 444.009,1445.42 444.521,1445.47 445.032,1445.51 445.544,1445.54 446.055,1445.56 446.567,1445.57 447.078,1445.59 447.59,1445.57 448.101,1445.56 448.612,1445.56 449.124,1445.56 449.635,1445.47 450.147,1445.39 450.658,1445.39 451.17,1445.39 451.681,1445.35 452.193,1445.32 452.704,1445.32 453.216,1445.32 453.727,1445.29 454.238,1445.27 454.75,1445.3 455.261,1445.34 455.773,1445.34 456.284,1445.34 456.796,1445.36 457.307,1445.38 457.819,1445.39 458.33,1445.4 458.842,1445.35 459.353,1445.29 459.864,1445.25 460.376,1445.21 460.887,1445.15 461.399,1445.09 461.91,1445.05 462.422,1445.01 462.933,1444.98 463.445,1444.96 463.956,1444.94 464.468,1444.92 464.979,1444.91 465.49,1444.9 466.002,1444.87 466.513,1444.83 467.025,1444.9 467.536,1444.96 468.048,1444.95 468.559,1444.93 469.071,1445.05 469.582,1445.16 470.094,1445.18 470.605,1445.2 471.116,1445.14 471.628,1445.09 472.139,1445.12 472.651,1445.15 473.162,1445.17 473.674,1445.19 474.185,1445.23 474.697,1445.27 475.208,1445.27 475.719,1445.27 476.231,1445.22 476.742,1445.16 477.254,1445.12 477.765,1445.08 478.277,1445.03 478.788,1444.98 479.3,1445.02 479.811,1445.06 480.323,1445.06 480.834,1445.05 481.345,1445.05 481.857,1445.04 482.368,1445.05 482.88,1445.05 483.391,1445.04 483.903,1445.03 484.414,1445.05 484.926,1445.06 485.437,1445.1 485.949,1445.13 486.46,1445.16 486.971,1445.19 487.483,1445.15 487.994,1445.12 488.506,1445.13 489.017,1445.15 489.529,1445.14 490.04,1445.13 490.552,1445.16 491.063,1445.2 491.575,1445.2 492.086,1445.21 492.597,1445.21 493.109,1445.22 493.62,1445.26 494.132,1445.29 494.643,1445.3 495.155,1445.31 495.666,1445.32 496.178,1445.33 496.689,1445.39 497.201,1445.45 497.712,1445.45 498.223,1445.44 498.735,1445.41 499.246,1445.38 499.758,1445.41 500.269,1445.43 500.781,1445.39 501.292,1445.35 501.804,1445.37 502.315,1445.38 502.827,1445.45 503.338,1445.51 503.849,1445.53 504.361,1445.54 504.872,1445.53 505.384,1445.51 505.895,1445.5 506.407,1445.48 506.918,1445.44 507.43,1445.4 507.941,1445.36 508.453,1445.32 508.964,1445.29 509.475,1445.25 509.987,1445.27 510.498,1445.28 511.01,1445.29 511.521,1445.3 512.033,1445.29 512.544,1445.28 513.056,1445.22 513.567,1445.17 514.079,1445.16 514.59,1445.15 515.101,1445.13 515.613,1445.12 516.124,1445.13 516.636,1445.14 517.147,1445.17 517.659,1445.2 518.17,1445.18 518.682,1445.16 519.193,1445.15 519.705,1445.14 520.216,1445.08 520.727,1445.02 521.239,1444.97 521.75,1444.92 522.262,1445.03 522.773,1445.14 523.285,1445.19 523.796,1445.24 524.308,1445.23 524.819,1445.22 525.331,1445.22 525.842,1445.22 526.353,1445.21 526.865,1445.21 527.376,1445.18 527.888,1445.14 528.399,1445.15 528.911,1445.16 529.422,1445.22 529.934,1445.27 530.445,1445.27 530.957,1445.27 531.468,1445.22 531.979,1445.18 532.491,1445.18 533.002,1445.17 533.514,1445.17 534.025,1445.17 534.537,1445.24 535.048,1445.31 535.56,1445.35 536.071,1445.38 536.583,1445.41 537.094,1445.44 537.605,1445.41 538.117,1445.37 538.628,1445.33 539.14,1445.29 539.651,1445.32 540.163,1445.35 540.674,1445.4 541.186,1445.46 541.697,1445.39 542.209,1445.33 542.72,1445.3 543.231,1445.27 543.743,1445.28 544.254,1445.28 544.766,1445.2 545.277,1445.12 545.789,1445.1 546.3,1445.09 546.812,1445.08 547.323,1445.07 547.835,1445.05 548.346,1445.04 548.857,1445.05 549.369,1445.07 549.88,1445.03 550.392,1444.98 550.903,1444.98 551.415,1444.98 551.926,1444.98 552.438,1444.98 552.949,1444.96 553.461,1444.94 553.972,1444.98 554.483,1445.02 554.995,1445.04 555.506,1445.06 556.018,1445.1 556.529,1445.13 557.041,1445.18 557.552,1445.22 558.064,1445.18 558.575,1445.13 559.087,1445.16 559.598,1445.19 560.109,1445.2 560.621,1445.2 561.132,1445.18 561.644,1445.16 562.155,1445.16 562.667,1445.17 563.178,1445.19 563.69,1445.22 564.201,1445.18 564.713,1445.15 565.224,1445.14 565.735,1445.12 566.247,1445.15 566.758,1445.17 567.27,1445.16 567.781,1445.15 568.293,1445.2 568.804,1445.24 569.316,1445.2 569.827,1445.17 570.338,1445.2 570.85,1445.23 571.361,1445.27 571.873,1445.3 572.384,1445.32 572.896,1445.34 573.407,1445.36 573.919,1445.37 574.43,1445.39 574.942,1445.41 575.453,1445.4 575.964,1445.38 576.476,1445.35 576.987,1445.31 577.499,1445.36 578.01,1445.41 578.522,1445.39 579.033,1445.36 579.545,1445.33 580.056,1445.3 580.568,1445.35 581.079,1445.39 581.59,1445.37 582.102,1445.35 582.613,1445.4 583.125,1445.45 583.636,1445.44 584.148,1445.44 584.659,1445.47 585.171,1445.49 585.682,1445.48 586.194,1445.47 586.705,1445.45 587.216,1445.42 587.728,1445.36 588.239,1445.31 588.751,1445.33 589.262,1445.34 589.774,1445.31 590.285,1445.29 590.797,1445.22 591.308,1445.15 591.82,1445.2 592.331,1445.24 592.842,1445.23 593.354,1445.22 593.865,1445.22 594.377,1445.23 594.888,1445.18 595.4,1445.13 595.911,1445.1 596.423,1445.07 596.934,1445.07 597.446,1445.06 597.957,1445.03 598.468,1445 598.98,1445.04 599.491,1445.08 600.003,1445.12 600.514,1445.16 601.026,1445.11 601.537,1445.07 602.049,1445.01 602.56,1444.95 603.072,1444.95 603.583,1444.94 604.094,1444.95 604.606,1444.95 605.117,1444.97 605.629,1444.99 606.14,1445.02 606.652,1445.05 607.163,1445.06 607.675,1445.08 608.186,1445.03 608.698,1444.98 609.209,1445 609.72,1445.01 610.232,1445.03 610.743,1445.06 611.255,1445.08 611.766,1445.1 612.278,1445.13 612.789,1445.16 613.301,1445.16 613.812,1445.16 614.324,1445.13 614.835,1445.11 615.346,1445.06 615.858,1445.01 616.369,1444.99 616.881,1444.97 617.392,1444.94 617.904,1444.91 618.415,1444.89 618.927,1444.88 619.438,1444.87 619.95,1444.86 620.461,1444.89 620.972,1444.92 621.484,1444.9 621.995,1444.87 622.507,1444.95 623.018,1445.02 623.53,1445.04 624.041,1445.05 624.553,1445.07 625.064,1445.08 625.576,1444.95 626.087,1444.83 626.598,1444.85 627.11,1444.86 627.621,1444.78 628.133,1444.7 628.644,1444.73 629.156,1444.76 629.667,1444.75 630.179,1444.75 630.69,1444.82 631.202,1444.89 631.713,1444.93 632.224,1444.96 632.736,1445 633.247,1445.04 633.759,1445.11 634.27,1445.17 634.782,1445.18 635.293,1445.19 635.805,1445.12 636.316,1445.05 636.828,1445.02 637.339,1444.99 637.85,1445.05 638.362,1445.1 638.873,1445.12 639.385,1445.14 639.896,1445.13 640.408,1445.12 640.919,1445.09 641.431,1445.06 641.942,1445.03 642.454,1445 642.965,1445.02 643.476,1445.04 643.988,1445.04 644.499,1445.05 645.011,1445.02 645.522,1445 646.034,1444.99 646.545,1444.98 647.057,1445.01 647.568,1445.05 648.08,1445.07 648.591,1445.09 649.102,1445.14 649.614,1445.19 650.125,1445.18 650.637,1445.17 651.148,1445.13 651.66,1445.08 652.171,1445.08 652.683,1445.07 653.194,1445.04 653.706,1445.01 654.217,1444.98 654.728,1444.96 655.24,1444.96 655.751,1444.95 656.263,1444.99 656.774,1445.02 657.286,1444.96 657.797,1444.9 658.309,1444.94 658.82,1444.98 659.332,1444.98 659.843,1444.99 660.354,1444.97 660.866,1444.95 661.377,1444.94 661.889,1444.94 662.4,1444.9 662.912,1444.87 663.423,1444.98 663.935,1445.09 664.446,1445.11 664.957,1445.14 665.469,1445.12 665.98,1445.11 666.492,1445.06 667.003,1445.02 667.515,1445.02 668.026,1445.02 668.538,1445.06 669.049,1445.1 669.561,1445.1 670.072,1445.09 670.583,1445.05 671.095,1445.01 671.606,1445.01 672.118,1445 672.629,1445.07 673.141,1445.13 673.652,1445.09 674.164,1445.06 674.675,1445.08 675.187,1445.1 675.698,1445.08 676.209,1445.05 676.721,1445.05 677.232,1445.05 677.744,1445.06 678.255,1445.07 678.767,1445.08 679.278,1445.08 679.79,1445.07 680.301,1445.06 680.813,1445.01 681.324,1444.95 681.835,1444.89 682.347,1444.83 682.858,1444.9 683.37,1444.96 683.881,1445 684.393,1445.04 684.904,1445 685.416,1444.97 685.927,1444.94 686.439,1444.92 686.95,1444.98 687.461,1445.04 687.973,1445.01 688.484,1444.99 688.996,1444.92 689.507,1444.86 690.019,1444.89 690.53,1444.91 691.042,1444.92 691.553,1444.94 692.065,1444.95 692.576,1444.96 693.087,1444.83 693.599,1444.71 694.11,1444.7 694.622,1444.69 695.133,1444.74 695.645,1444.78 696.156,1444.81 696.668,1444.83 697.179,1444.84 697.691,1444.85 698.202,1444.86 698.713,1444.87 699.225,1444.88 699.736,1444.89 700.248,1444.94 700.759,1444.97 701.271,1444.92 701.782,1444.87 702.294,1444.85 702.805,1444.83 703.317,1444.89 703.828,1444.95 704.339,1444.97 704.851,1444.98 705.362,1444.99 705.874,1445 706.385,1444.95 706.897,1444.9 707.408,1444.92 707.92,1444.93 708.431,1444.93 708.943,1444.93 709.454,1444.99 709.965,1445.05 710.477,1445.04 710.988,1445.04 711.5,1445.02 712.011,1445 712.523,1444.99 713.034,1444.98 713.546,1444.99 714.057,1445 714.569,1444.98 715.08,1444.96 715.591,1445 716.103,1445.04 716.614,1444.98 717.126,1444.92 717.637,1444.99 718.149,1445.04 718.66,1445.07 719.172,1445.1 719.683,1445.07 720.195,1445.03 720.706,1445.03 721.217,1445.02 721.729,1445.06 722.24,1445.09 722.752,1445.06 723.263,1445.02 723.775,1444.97 724.286,1444.91 724.798,1444.94 725.309,1444.96 725.821,1444.93 726.332,1444.9 726.843,1444.88 727.355,1444.86 727.866,1444.86 728.378,1444.87 728.889,1444.86 729.401,1444.86 729.912,1444.85 730.424,1444.83 730.935,1444.82 731.447,1444.81 731.958,1444.81 732.469,1444.81 732.981,1444.85 733.492,1444.89 734.004,1444.93 734.515,1444.96 735.027,1444.99 735.538,1445.02 736.05,1444.98 736.561,1444.95 737.073,1444.93 737.584,1444.91 738.095,1444.86 738.607,1444.81 739.118,1444.76 739.63,1444.7 740.141,1444.69 740.653,1444.69 741.164,1444.67 741.676,1444.66 742.187,1444.67 742.699,1444.69 743.21,1444.66 743.721,1444.64 744.233,1444.69 744.744,1444.73 745.256,1444.77 745.767,1444.81 746.279,1444.83 746.79,1444.85 747.302,1444.84 747.813,1444.82 748.325,1444.8 748.836,1444.79 749.347,1444.78 749.859,1444.78 750.37,1444.69 750.882,1444.6 751.393,1444.67 751.905,1444.73 752.416,1444.73 752.928,1444.73 753.439,1444.76 753.951,1444.8 754.462,1444.87 754.973,1444.93 755.485,1444.91 755.996,1444.89 756.508,1444.88 757.019,1444.86 757.531,1444.95 758.042,1445.03 758.554,1445.01 759.065,1445 759.576,1445.04 760.088,1445.07 760.599,1445.06 761.111,1445.04 761.622,1445.04 762.134,1445.05 762.645,1445.03 763.157,1445.01 763.668,1445.05 764.18,1445.09 764.691,1445.03 765.202,1444.97 765.714,1444.97 766.225,1444.97 766.737,1444.99 767.248,1445.01 767.76,1445.06 768.271,1445.1 768.783,1445.07 769.294,1445.04 769.806,1445.09 770.317,1445.14 770.828,1445.15 771.34,1445.16 771.851,1445.13 772.363,1445.11 772.874,1445.15 773.386,1445.19 773.897,1445.16 774.409,1445.12 774.92,1445.09 775.432,1445.06 775.943,1445.08 776.454,1445.1 776.966,1445.04 777.477,1444.98 777.989,1445.04 778.5,1445.09 779.012,1445.06 779.523,1445.04 780.035,1445.03 780.546,1445.02 781.058,1445.05 781.569,1445.07 782.08,1445.14 782.592,1445.21 783.103,1445.21 783.615,1445.2 784.126,1445.18 784.638,1445.15 785.149,1445.11 785.661,1445.07 786.172,1445.07 786.684,1445.07 787.195,1445.1 787.706,1445.12 788.218,1445.09 788.729,1445.06 789.241,1445.04 789.752,1445.03 790.264,1445.05 790.775,1445.07 791.287,1445.03 791.798,1444.99 792.31,1445.01 792.821,1445.04 793.332,1445.02 793.844,1445 794.355,1444.99 794.867,1444.98 795.378,1444.99 795.89,1444.99 796.401,1445.03 796.913,1445.06 797.424,1445.07 797.936,1445.07 798.447,1445.1 798.958,1445.12 799.47,1445.13 799.981,1445.14 800.493,1445.12 801.004,1445.09 801.516,1445 802.027,1444.92 802.539,1444.95 803.05,1444.97 803.562,1445 804.073,1445.02 804.584,1445.06 805.096,1445.09 805.607,1445.07 806.119,1445.05 806.63,1445.07 807.142,1445.08 807.653,1445.07 808.165,1445.06 808.676,1445.05 809.188,1445.05 809.699,1445.04 810.21,1445.04 810.722,1444.98 811.233,1444.92 811.745,1444.97 812.256,1445.02 812.768,1444.99 813.279,1444.95 813.791,1445 814.302,1445.04 814.814,1445.03 815.325,1445.02 815.836,1445.07 816.348,1445.11 816.859,1445.13 817.371,1445.14 817.882,1445.14 818.394,1445.14 818.905,1445.06 819.417,1444.99 819.928,1444.98 820.44,1444.97 820.951,1444.96 821.462,1444.96 821.974,1444.95 822.485,1444.94 822.997,1444.99 823.508,1445.04 824.02,1445.03 824.531,1445.02 825.043,1445.01 825.554,1445.01 826.066,1445 826.577,1444.99 827.088,1444.99 827.6,1445 828.111,1445.06 828.623,1445.11 829.134,1445.05 829.646,1444.99 830.157,1445.01 830.669,1445.04 831.18,1445.03 831.692,1445.03 832.203,1444.93 832.714,1444.84 833.226,1444.8 833.737,1444.76 834.249,1444.74 834.76,1444.72 835.272,1444.69 835.783,1444.66 836.295,1444.74 836.806,1444.8 837.318,1444.83 837.829,1444.86 838.34,1444.86 838.852,1444.86 839.363,1444.83 839.875,1444.81 840.386,1444.81 840.898,1444.82 841.409,1444.83 841.921,1444.83 842.432,1444.76 842.944,1444.7 843.455,1444.76 843.966,1444.81 844.478,1444.78 844.989,1444.75 845.501,1444.7 846.012,1444.66 846.524,1444.69 847.035,1444.73 847.547,1444.74 848.058,1444.76 848.57,1444.68 849.081,1444.6 849.592,1444.63 850.104,1444.66 850.615,1444.76 851.127,1444.86 851.638,1444.93 852.15,1445 852.661,1445.03 853.173,1445.07 853.684,1445 854.196,1444.94 854.707,1445 855.218,1445.06 855.73,1444.98 856.241,1444.9 856.753,1444.9 857.264,1444.89 857.776,1444.95 858.287,1445.01 858.799,1444.99 859.31,1444.98 859.821,1444.98 860.333,1444.98 860.844,1445.05 861.356,1445.12 861.867,1445.11 862.379,1445.09 862.89,1445 863.402,1444.91 863.913,1444.89 864.425,1444.86 864.936,1444.88 865.447,1444.9 865.959,1444.92 866.47,1444.93 866.982,1444.81 867.493,1444.68 868.005,1444.65 868.516,1444.63 869.028,1444.63 869.539,1444.63 870.051,1444.59 870.562,1444.56 871.073,1444.5 871.585,1444.44 872.096,1444.43 872.608,1444.42 873.119,1444.48 873.631,1444.53 874.142,1444.52 874.654,1444.52 875.165,1444.54 875.677,1444.55 876.188,1444.6 876.699,1444.64 877.211,1444.67 877.722,1444.69 878.234,1444.71 878.745,1444.72 879.257,1444.71 879.768,1444.7 880.28,1444.7 880.791,1444.7 881.303,1444.77 881.814,1444.84 882.325,1444.9 882.837,1444.95 883.348,1444.88 883.86,1444.82 884.371,1444.79 884.883,1444.77 885.394,1444.79 885.906,1444.8 886.417,1444.84 886.929,1444.87 887.44,1444.88 887.951,1444.89 888.463,1444.87 888.974,1444.85 889.486,1444.83 889.997,1444.82 890.509,1444.85 891.02,1444.87 891.532,1444.86 892.043,1444.85 892.555,1444.81 893.066,1444.77 893.577,1444.76 894.089,1444.75 894.6,1444.82 895.112,1444.89 895.623,1444.87 896.135,1444.85 896.646,1444.86 897.158,1444.86 897.669,1444.89 898.181,1444.91 898.692,1444.93 899.203,1444.95 899.715,1444.91 900.226,1444.87 900.738,1444.89 901.249,1444.9 901.761,1444.8 902.272,1444.7 902.784,1444.74 903.295,1444.78 903.807,1444.82 904.318,1444.85 904.829,1444.86 905.341,1444.87 905.852,1444.87 906.364,1444.87 906.875,1444.9 907.387,1444.93 907.898,1444.93 908.41,1444.94 908.921,1444.91 909.433,1444.88 909.944,1444.87 910.455,1444.86 910.967,1444.86 911.478,1444.87 911.99,1444.83 912.501,1444.79 913.013,1444.73 913.524,1444.68 914.036,1444.73 914.547,1444.78 915.059,1444.8 915.57,1444.82 916.081,1444.83 916.593,1444.85 917.104,1444.9 917.616,1444.95 918.127,1444.97 918.639,1444.98 919.15,1444.94 919.662,1444.89 920.173,1444.82 920.685,1444.75 921.196,1444.71 921.707,1444.68 922.219,1444.7 922.73,1444.72 923.242,1444.73 923.753,1444.74 924.265,1444.73 924.776,1444.72 925.288,1444.65 925.799,1444.59 926.311,1444.56 926.822,1444.52 927.333,1444.54 927.845,1444.55 928.356,1444.58 928.868,1444.61 929.379,1444.68 929.891,1444.75 930.402,1444.66 930.914,1444.57 931.425,1444.57 931.937,1444.58 932.448,1444.59 932.959,1444.6 933.471,1444.59 933.982,1444.58 934.494,1444.52 935.005,1444.47 935.517,1444.5 936.028,1444.52 936.54,1444.45 937.051,1444.38 937.563,1444.3 938.074,1444.23 938.585,1444.24 939.097,1444.24 939.608,1444.35 940.12,1444.44 940.631,1444.42 941.143,1444.39 941.654,1444.38 942.166,1444.38 942.677,1444.42 943.189,1444.45 943.7,1444.5 944.211,1444.54 944.723,1444.56 945.234,1444.57 945.746,1444.59 946.257,1444.61 946.769,1444.49 947.28,1444.38 947.792,1444.36 948.303,1444.35 948.815,1444.39 949.326,1444.43 949.837,1444.43 950.349,1444.44 950.86,1444.5 951.372,1444.55 951.883,1444.58 952.395,1444.61 952.906,1444.63 953.418,1444.65 953.929,1444.62 954.44,1444.59 954.952,1444.66 955.463,1444.73 955.975,1444.72 956.486,1444.7 956.998,1444.7 957.509,1444.7 958.021,1444.68 958.532,1444.67 959.044,1444.7 959.555,1444.72 960.066,1444.68 960.578,1444.65 961.089,1444.69 961.601,1444.73 962.112,1444.73 962.624,1444.73 963.135,1444.66 963.647,1444.59 964.158,1444.58 964.67,1444.57 965.181,1444.58 965.692,1444.59 966.204,1444.55 966.715,1444.5 967.227,1444.55 967.738,1444.59 968.25,1444.63 968.761,1444.68 969.273,1444.6 969.784,1444.52 970.296,1444.46 970.807,1444.41 971.318,1444.27 971.83,1444.14 972.341,1444.11 972.853,1444.09 973.364,1444.12 973.876,1444.15 974.387,1444.23 974.899,1444.29 975.41,1444.36 975.922,1444.41 976.433,1444.46 976.944,1444.5 977.456,1444.53 977.967,1444.57 978.479,1444.58 978.99,1444.59 979.502,1444.52 980.013,1444.44 980.525,1444.52 981.036,1444.59 981.548,1444.57 982.059,1444.55 982.57,1444.58 983.082,1444.6 983.593,1444.59 984.105,1444.58 984.616,1444.62 985.128,1444.66 985.639,1444.6 986.151,1444.55 986.662,1444.57 987.174,1444.58 987.685,1444.59 988.196,1444.59 988.708,1444.6 989.219,1444.61 989.731,1444.6 990.242,1444.59 990.754,1444.52 991.265,1444.45 991.777,1444.46 992.288,1444.47 992.8,1444.45 993.311,1444.44 993.822,1444.45 994.334,1444.45 994.845,1444.41 995.357,1444.37 995.868,1444.39 996.38,1444.4 996.891,1444.43 997.403,1444.45 997.914,1444.51 998.426,1444.56 998.937,1444.52 999.448,1444.48 999.96,1444.5 1000.47,1444.51 1000.98,1444.53 1001.49,1444.56 1002.01,1444.5 1002.52,1444.45 1003.03,1444.4 1003.54,1444.36 1004.05,1444.4 1004.56,1444.43 1005.07,1444.47 1005.59,1444.51 1006.1,1444.58 1006.61,1444.64 1007.12,1444.67 1007.63,1444.69 1008.14,1444.68 1008.65,1444.67 1009.17,1444.69 1009.68,1444.7 1010.19,1444.76 1010.7,1444.82 1011.21,1444.76 1011.72,1444.7 1012.23,1444.73 1012.75,1444.76 1013.26,1444.81 1013.77,1444.86 1014.28,1444.9 1014.79,1444.93 1015.3,1444.96 1015.81,1444.99 1016.33,1445 1016.84,1445.01 1017.35,1444.92 1017.86,1444.83 1018.37,1444.8 1018.88,1444.77 1019.4,1444.76 1019.91,1444.75 1020.42,1444.75 1020.93,1444.75 1021.44,1444.65 1021.95,1444.55 1022.46,1444.47 1022.98,1444.4 1023.49,1444.44 1024,1444.48 1024.51,1444.55 1025.02,1444.61 1025.53,1444.66 1026.04,1444.71 1026.56,1444.7 1027.07,1444.69 1027.58,1444.64 1028.09,1444.59 1028.6,1444.54 1029.11,1444.49 1029.62,1444.43 1030.14,1444.38 1030.65,1444.34 1031.16,1444.3 1031.67,1444.3 1032.18,1444.3 1032.69,1444.29 1033.2,1444.28 1033.72,1444.21 1034.23,1444.15 1034.74,1444.22 1035.25,1444.29 1035.76,1444.22 1036.27,1444.16 1036.78,1444.26 1037.3,1444.35 1037.81,1444.32 1038.32,1444.29 1038.83,1444.31 1039.34,1444.33 1039.85,1444.36 1040.36,1444.39 1040.88,1444.33 1041.39,1444.27 1041.9,1444.28 1042.41,1444.29 1042.92,1444.26 1043.43,1444.23 1043.94,1444.3 1044.46,1444.36 1044.97,1444.37 1045.48,1444.38 1045.99,1444.34 1046.5,1444.31 1047.01,1444.38 1047.53,1444.44 1048.04,1444.34 1048.55,1444.24 1049.06,1444.23 1049.57,1444.22 1050.08,1444.32 1050.59,1444.41 1051.11,1444.4 1051.62,1444.4 1052.13,1444.45 1052.64,1444.51 1053.15,1444.44 1053.66,1444.37 1054.17,1444.25 1054.69,1444.14 1055.2,1444.09 1055.71,1444.04 1056.22,1444.02 1056.73,1444.01 1057.24,1444 1057.75,1443.99 1058.27,1443.92 1058.78,1443.86 1059.29,1443.92 1059.8,1443.98 1060.31,1443.99 1060.82,1444.01 1061.33,1444 1061.85,1444 1062.36,1444.04 1062.87,1444.08 1063.38,1444.13 1063.89,1444.18 1064.4,1444.2 1064.91,1444.21 1065.43,1444.28 1065.94,1444.34 1066.45,1444.36 1066.96,1444.39 1067.47,1444.36 1067.98,1444.34 1068.49,1444.33 1069.01,1444.32 1069.52,1444.31 1070.03,1444.3 1070.54,1444.33 1071.05,1444.35 1071.56,1444.37 1072.07,1444.38 1072.59,1444.34 1073.1,1444.29 1073.61,1444.36 1074.12,1444.42 1074.63,1444.44 1075.14,1444.47 1075.66,1444.47 1076.17,1444.47 1076.68,1444.49 1077.19,1444.51 1077.7,1444.52 1078.21,1444.53 1078.72,1444.46 1079.24,1444.4 1079.75,1444.32 1080.26,1444.24 1080.77,1444.21 1081.28,1444.18 1081.79,1444.1 1082.3,1444.02 1082.82,1443.96 1083.33,1443.9 1083.84,1444 1084.35,1444.09 1084.86,1444.1 1085.37,1444.11 1085.88,1444.11 1086.4,1444.12 1086.91,1444.16 1087.42,1444.19 1087.93,1444.24 1088.44,1444.28 1088.95,1444.3 1089.46,1444.32 1089.98,1444.31 1090.49,1444.31 1091,1444.28 1091.51,1444.25 1092.02,1444.31 1092.53,1444.37 1093.04,1444.34 1093.56,1444.31 1094.07,1444.36 1094.58,1444.41 1095.09,1444.37 1095.6,1444.33 1096.11,1444.37 1096.62,1444.4 1097.14,1444.4 1097.65,1444.39 1098.16,1444.4 1098.67,1444.4 1099.18,1444.44 1099.69,1444.47 1100.2,1444.52 1100.72,1444.57 1101.23,1444.54 1101.74,1444.51 1102.25,1444.48 1102.76,1444.44 1103.27,1444.4 1103.79,1444.37 1104.3,1444.35 1104.81,1444.32 1105.32,1444.23 1105.83,1444.14 1106.34,1444.15 1106.85,1444.15 1107.37,1444.12 1107.88,1444.09 1108.39,1444.11 1108.9,1444.12 1109.41,1444.12 1109.92,1444.12 1110.43,1444.11 1110.95,1444.1 1111.46,1444.07 1111.97,1444.04 1112.48,1443.99 1112.99,1443.94 1113.5,1443.95 1114.01,1443.95 1114.53,1443.92 1115.04,1443.89 1115.55,1443.91 1116.06,1443.94 1116.57,1444.07 1117.08,1444.18 1117.59,1444.24 1118.11,1444.3 1118.62,1444.23 1119.13,1444.18 1119.64,1444.1 1120.15,1444.03 1120.66,1443.99 1121.17,1443.95 1121.69,1443.89 1122.2,1443.84 1122.71,1443.89 1123.22,1443.95 1123.73,1443.92 1124.24,1443.89 1124.75,1443.93 1125.27,1443.97 1125.78,1444.09 1126.29,1444.2 1126.8,1444.18 1127.31,1444.17 1127.82,1444.19 1128.33,1444.22 1128.85,1444.22 1129.36,1444.22 1129.87,1444.25 1130.38,1444.28 1130.89,1444.32 1131.4,1444.35 1131.92,1444.31 1132.43,1444.27 1132.94,1444.26 1133.45,1444.25 1133.96,1444.24 1134.47,1444.22 1134.98,1444.19 1135.5,1444.16 1136.01,1444.09 1136.52,1444.03 1137.03,1443.98 1137.54,1443.93 1138.05,1443.9 1138.56,1443.87 1139.08,1443.85 1139.59,1443.84 1140.1,1443.86 1140.61,1443.87 1141.12,1443.83 1141.63,1443.78 1142.14,1443.68 1142.66,1443.58 1143.17,1443.66 1143.68,1443.73 1144.19,1443.75 1144.7,1443.76 1145.21,1443.78 1145.72,1443.79 1146.24,1443.94 1146.75,1444.07 1147.26,1444.09 1147.77,1444.11 1148.28,1444.2 1148.79,1444.29 1149.3,1444.29 1149.82,1444.29 1150.33,1444.23 1150.84,1444.17 1151.35,1444.22 1151.86,1444.27 1152.37,1444.31 1152.88,1444.34 1153.4,1444.48 1153.91,1444.6 1154.42,1444.6 1154.93,1444.6 1155.44,1444.59 1155.95,1444.59 1156.46,1444.62 1156.98,1444.64 1157.49,1444.62 1158,1444.6 1158.51,1444.56 1159.02,1444.53 1159.53,1444.51 1160.05,1444.49 1160.56,1444.64 1161.07,1444.78 1161.58,1444.64 1162.09,1444.51 1162.6,1444.42 1163.11,1444.34 1163.63,1444.24 1164.14,1444.14 1164.65,1444.2 1165.16,1444.26 1165.67,1444.19 1166.18,1444.11 1166.69,1444.07 1167.21,1444.03 1167.72,1444.09 1168.23,1444.14 1168.74,1444.17 1169.25,1444.2 1169.76,1444.22 1170.27,1444.24 1170.79,1444.32 1171.3,1444.4 1171.81,1444.4 1172.32,1444.39 1172.83,1444.33 1173.34,1444.27 1173.85,1444.23 1174.37,1444.18 1174.88,1444.28 1175.39,1444.37 1175.9,1444.5 1176.41,1444.61 1176.92,1444.58 1177.43,1444.54 1177.95,1444.54 1178.46,1444.55 1178.97,1444.56 1179.48,1444.58 1179.99,1444.52 1180.5,1444.46 1181.01,1444.55 1181.53,1444.63 1182.04,1444.6 1182.55,1444.56 1183.06,1444.49 1183.57,1444.41 1184.08,1444.45 1184.59,1444.48 1185.11,1444.36 1185.62,1444.24 1186.13,1444.26 1186.64,1444.28 1187.15,1444.23 1187.66,1444.19 1188.18,1444.14 1188.69,1444.08 1189.2,1444.06 1189.71,1444.04 1190.22,1444.21 1190.73,1444.35 1191.24,1444.28 1191.76,1444.2 1192.27,1444.24 1192.78,1444.28 1193.29,1444.33 1193.8,1444.38 1194.31,1444.24 1194.82,1444.1 1195.34,1444.12 1195.85,1444.13 1196.36,1444.1 1196.87,1444.06 1197.38,1444.08 1197.89,1444.11 1198.4,1444.19 1198.92,1444.27 1199.43,1444.21 1199.94,1444.16 1200.45,1444.09 1200.96,1444.02 1201.47,1443.99 1201.98,1443.96 1202.5,1443.91 1203.01,1443.87 1203.52,1443.8 1204.03,1443.73 1204.54,1443.77 1205.05,1443.81 1205.56,1443.89 1206.08,1443.96 1206.59,1444.03 1207.1,1444.1 1207.61,1444.09 1208.12,1444.08 1208.63,1444.06 1209.14,1444.05 1209.66,1444.1 1210.17,1444.14 1210.68,1444.15 1211.19,1444.16 1211.7,1444.12 1212.21,1444.09 1212.72,1444.06 1213.24,1444.04 1213.75,1444.05 1214.26,1444.05 1214.77,1444 1215.28,1443.95 1215.79,1443.92 1216.3,1443.88 1216.82,1443.82 1217.33,1443.77 1217.84,1443.89 1218.35,1444.01 1218.86,1443.98 1219.37,1443.95 1219.89,1444.07 1220.4,1444.19 1220.91,1444.23 1221.42,1444.26 1221.93,1444.28 1222.44,1444.3 1222.95,1444.36 1223.47,1444.42 1223.98,1444.39 1224.49,1444.36 1225,1444.33 1225.51,1444.3 1226.02,1444.31 1226.53,1444.33 1227.05,1444.34 1227.56,1444.34 1228.07,1444.37 1228.58,1444.41 1229.09,1444.38 1229.6,1444.36 1230.11,1444.36 1230.63,1444.36 1231.14,1444.34 1231.65,1444.33 1232.16,1444.27 1232.67,1444.2 1233.18,1444.25 1233.69,1444.29 1234.21,1444.28 1234.72,1444.27 1235.23,1444.22 1235.74,1444.17 1236.25,1444.12 1236.76,1444.08 1237.27,1444.08 1237.79,1444.08 1238.3,1444.19 1238.81,1444.29 1239.32,1444.26 1239.83,1444.23 1240.34,1444.11 1240.85,1444 1241.37,1443.98 1241.88,1443.97 1242.39,1443.97 1242.9,1443.98 1243.41,1444.03 1243.92,1444.07 1244.43,1443.88 1244.95,1443.7 1245.46,1443.62 1245.97,1443.54 1246.48,1443.52 1246.99,1443.51 1247.5,1443.57 1248.02,1443.62 1248.53,1443.7 1249.04,1443.77 1249.55,1443.83 1250.06,1443.89 1250.57,1443.86 1251.08,1443.82 1251.6,1443.88 1252.11,1443.94 1252.62,1444.01 1253.13,1444.08 1253.64,1444.13 1254.15,1444.19 1254.66,1444.24 1255.18,1444.28 1255.69,1444.22 1256.2,1444.16 1256.71,1444.11 1257.22,1444.06 1257.73,1443.98 1258.24,1443.9 1258.76,1443.82 1259.27,1443.75 1259.78,1443.65 1260.29,1443.56 1260.8,1443.62 1261.31,1443.67 1261.82,1443.68 1262.34,1443.68 1262.85,1443.66 1263.36,1443.64 1263.87,1443.72 1264.38,1443.79 1264.89,1443.88 1265.4,1443.95 1265.92,1443.93 1266.43,1443.9 1266.94,1443.76 1267.45,1443.62 1267.96,1443.6 1268.47,1443.59 1268.98,1443.55 1269.5,1443.52 1270.01,1443.52 1270.52,1443.53 1271.03,1443.54 1271.54,1443.55 1272.05,1443.63 1272.56,1443.71 1273.08,1443.59 1273.59,1443.47 1274.1,1443.51 1274.61,1443.56 1275.12,1443.54 1275.63,1443.53 1276.15,1443.5 1276.66,1443.47 1277.17,1443.5 1277.68,1443.52 1278.19,1443.57 1278.7,1443.61 1279.21,1443.63 1279.73,1443.64 1280.24,1443.65 1280.75,1443.66 1281.26,1443.72 1281.77,1443.78 1282.28,1443.83 1282.79,1443.88 1283.31,1443.83 1283.82,1443.79 1284.33,1443.76 1284.84,1443.73 1285.35,1443.69 1285.86,1443.64 1286.37,1443.63 1286.89,1443.62 1287.4,1443.62 1287.91,1443.61 1288.42,1443.66 1288.93,1443.71 1289.44,1443.65 1289.95,1443.59 1290.47,1443.69 1290.98,1443.79 1291.49,1443.91 1292,1444.03 1292.51,1444.05 1293.02,1444.07 1293.53,1444.01 1294.05,1443.96 1294.56,1443.97 1295.07,1443.98 1295.58,1444 1296.09,1444.02 1296.6,1443.98 1297.11,1443.95 1297.63,1443.97 1298.14,1443.99 1298.65,1443.9 1299.16,1443.82 1299.67,1443.86 1300.18,1443.9 1300.69,1443.95 1301.21,1443.99 1301.72,1443.99 1302.23,1444 1302.74,1444.12 1303.25,1444.24 1303.76,1444.23 1304.28,1444.22 1304.79,1444.3 1305.3,1444.37 1305.81,1444.34 1306.32,1444.3 1306.83,1444.28 1307.34,1444.25 1307.86,1444.23 1308.37,1444.21 1308.88,1444.2 1309.39,1444.19 1309.9,1444.19 1310.41,1444.19 1310.92,1444.23 1311.44,1444.27 1311.95,1444.16 1312.46,1444.07 1312.97,1443.99 1313.48,1443.92 1313.99,1443.84 1314.5,1443.77 1315.02,1443.82 1315.53,1443.86 1316.04,1443.87 1316.55,1443.87 1317.06,1443.9 1317.57,1443.92 1318.08,1443.97 1318.6,1444.01 1319.11,1444.08 1319.62,1444.14 1320.13,1444.18 1320.64,1444.22 1321.15,1444.21 1321.66,1444.2 1322.18,1444.18 1322.69,1444.16 1323.2,1444.14 1323.71,1444.13 1324.22,1444.09 1324.73,1444.05 1325.24,1444.05 1325.76,1444.05 1326.27,1444.04 1326.78,1444.02 1327.29,1443.98 1327.8,1443.94 1328.31,1444 1328.82,1444.06 1329.34,1443.98 1329.85,1443.91 1330.36,1443.88 1330.87,1443.86 1331.38,1443.73 1331.89,1443.6 1332.41,1443.55 1332.92,1443.5 1333.43,1443.58 1333.94,1443.66 1334.45,1443.71 1334.96,1443.76 1335.47,1443.68 1335.99,1443.6 1336.5,1443.58 1337.01,1443.55 1337.52,1443.55 1338.03,1443.55 1338.54,1443.64 1339.05,1443.72 1339.57,1443.59 1340.08,1443.46 1340.59,1443.4 1341.1,1443.33 1341.61,1443.33 1342.12,1443.34 1342.63,1443.41 1343.15,1443.47 1343.66,1443.5 1344.17,1443.53 1344.68,1443.46 1345.19,1443.39 1345.7,1443.4 1346.21,1443.41 1346.73,1443.44 1347.24,1443.47 1347.75,1443.48 1348.26,1443.48 1348.77,1443.54 1349.28,1443.6 1349.79,1443.54 1350.31,1443.48 1350.82,1443.48 1351.33,1443.48 1351.84,1443.5 1352.35,1443.52 1352.86,1443.55 1353.37,1443.59 1353.89,1443.59 1354.4,1443.59 1354.91,1443.6 1355.42,1443.6 1355.93,1443.63 1356.44,1443.65 1356.95,1443.63 1357.47,1443.61 1357.98,1443.65 1358.49,1443.68 1359,1443.74 1359.51,1443.79 1360.02,1443.82 1360.54,1443.85 1361.05,1443.81 1361.56,1443.77 1362.07,1443.76 1362.58,1443.76 1363.09,1443.84 1363.6,1443.91 1364.12,1443.97 1364.63,1444.03 1365.14,1443.97 1365.65,1443.91 1366.16,1443.95 1366.67,1443.99 1367.18,1443.94 1367.7,1443.9 1368.21,1443.86 1368.72,1443.83 1369.23,1443.7 1369.74,1443.58 1370.25,1443.54 1370.76,1443.49 1371.28,1443.46 1371.79,1443.44 1372.3,1443.55 1372.81,1443.66 1373.32,1443.64 1373.83,1443.62 1374.34,1443.66 1374.86,1443.7 1375.37,1443.78 1375.88,1443.86 1376.39,1443.93 1376.9,1443.99 1377.41,1443.92 1377.92,1443.84 1378.44,1443.84 1378.95,1443.83 1379.46,1443.86 1379.97,1443.89 1380.48,1443.9 1380.99,1443.9 1381.5,1443.88 1382.02,1443.85 1382.53,1443.77 1383.04,1443.7 1383.55,1443.76 1384.06,1443.82 1384.57,1443.78 1385.08,1443.75 1385.6,1443.67 1386.11,1443.6 1386.62,1443.68 1387.13,1443.76 1387.64,1443.79 1388.15,1443.82 1388.66,1443.8 1389.18,1443.78 1389.69,1443.6 1390.2,1443.44 1390.71,1443.54 1391.22,1443.64 1391.73,1443.61 1392.25,1443.58 1392.76,1443.56 1393.27,1443.54 1393.78,1443.53 1394.29,1443.52 1394.8,1443.54 1395.31,1443.56 1395.83,1443.59 1396.34,1443.62 1396.85,1443.62 1397.36,1443.63 1397.87,1443.75 1398.38,1443.86 1398.89,1443.9 1399.41,1443.95 1399.92,1443.99 1400.43,1444.03 1400.94,1444.05 1401.45,1444.07 1401.96,1444.05 1402.47,1444.03 1402.99,1444.07 1403.5,1444.11 1404.01,1444.11 1404.52,1444.11 1405.03,1444.09 1405.54,1444.08 1406.05,1444.03 1406.57,1443.98 1407.08,1443.92 1407.59,1443.87 1408.1,1444.01 1408.61,1444.14 1409.12,1444.08 1409.63,1444.03 1410.15,1443.97 1410.66,1443.91 1411.17,1443.93 1411.68,1443.94 1412.19,1443.99 1412.7,1444.02 1413.21,1443.99 1413.73,1443.96 1414.24,1443.96 1414.75,1443.96 1415.26,1443.93 1415.77,1443.9 1416.28,1443.83 1416.79,1443.77 1417.31,1443.8 1417.82,1443.82 1418.33,1443.78 1418.84,1443.75 1419.35,1443.75 1419.86,1443.75 1420.38,1443.75 1420.89,1443.75 1421.4,1443.72 1421.91,1443.7 1422.42,1443.69 1422.93,1443.68 1423.44,1443.66 1423.96,1443.64 1424.47,1443.68 1424.98,1443.72 1425.49,1443.78 1426,1443.85 1426.51,1443.94 1427.02,1444.02 1427.54,1443.9 1428.05,1443.79 1428.56,1443.8 1429.07,1443.8 1429.58,1443.8 1430.09,1443.8 1430.6,1443.82 1431.12,1443.84 1431.63,1443.86 1432.14,1443.87 1432.65,1443.89 1433.16,1443.9 1433.67,1443.98 1434.18,1444.05 1434.7,1444.07 1435.21,1444.08 1435.72,1444 1436.23,1443.93 1436.74,1443.95 1437.25,1443.96 1437.76,1443.92 1438.28,1443.88 1438.79,1443.75 1439.3,1443.62 1439.81,1443.56 1440.32,1443.5 1440.83,1443.6 1441.34,1443.69 1441.86,1443.62 1442.37,1443.57 1442.88,1443.64 1443.39,1443.72 1443.9,1443.64 1444.41,1443.56 1444.92,1443.53 1445.44,1443.49 1445.95,1443.58 1446.46,1443.67 1446.97,1443.66 1447.48,1443.65 1447.99,1443.68 1448.51,1443.71 1449.02,1443.75 1449.53,1443.79 1450.04,1443.8 1450.55,1443.81 1451.06,1443.81 1451.57,1443.81 1452.09,1443.81 1452.6,1443.8 1453.11,1443.75 1453.62,1443.7 1454.13,1443.64 1454.64,1443.58 1455.15,1443.61 1455.67,1443.64 1456.18,1443.63 1456.69,1443.62 1457.2,1443.61 1457.71,1443.6 1458.22,1443.57 1458.73,1443.54 1459.25,1443.58 1459.76,1443.61 1460.27,1443.64 1460.78,1443.67 1461.29,1443.66 1461.8,1443.66 1462.31,1443.71 1462.83,1443.76 1463.34,1443.84 1463.85,1443.91 1464.36,1443.88 1464.87,1443.84 1465.38,1443.77 1465.89,1443.7 1466.41,1443.65 1466.92,1443.6 1467.43,1443.7 1467.94,1443.78 1468.45,1443.84 1468.96,1443.89 1469.47,1443.81 1469.99,1443.73 1470.5,1443.69 1471.01,1443.64 1471.52,1443.62 1472.03,1443.59 1472.54,1443.58 1473.05,1443.56 1473.57,1443.54 1474.08,1443.51 1474.59,1443.52 1475.1,1443.52 1475.61,1443.5 1476.12,1443.48 1476.64,1443.55 1477.15,1443.6 1477.66,1443.57 1478.17,1443.54 1478.68,1443.53 1479.19,1443.52 1479.7,1443.53 1480.22,1443.53 1480.73,1443.45 1481.24,1443.38 1481.75,1443.3 1482.26,1443.22 1482.77,1443.09 1483.28,1442.95 1483.8,1442.99 1484.31,1443.03 1484.82,1443.14 1485.33,1443.25 1485.84,1443.26 1486.35,1443.27 1486.86,1443.28 1487.38,1443.28 1487.89,1443.24 1488.4,1443.21 1488.91,1443.16 1489.42,1443.13 1489.93,1443.06 1490.44,1442.99 1490.96,1442.99 1491.47,1442.99 1491.98,1442.98 1492.49,1442.97 1493,1442.96 1493.51,1442.95 1494.02,1443.08 1494.54,1443.19 1495.05,1443.21 1495.56,1443.22 1496.07,1443.29 1496.58,1443.34 1497.09,1443.22 1497.6,1443.1 1498.12,1443.2 1498.63,1443.29 1499.14,1443.3 1499.65,1443.31 1500.16,1443.37 1500.67,1443.42 1501.18,1443.46 1501.7,1443.5 1502.21,1443.57 1502.72,1443.63 1503.23,1443.69 1503.74,1443.74 1504.25,1443.61 1504.77,1443.48 1505.28,1443.42 1505.79,1443.36 1506.3,1443.37 1506.81,1443.37 1507.32,1443.42 1507.83,1443.46 1508.35,1443.51 1508.86,1443.55 1509.37,1443.49 1509.88,1443.43 1510.39,1443.51 1510.9,1443.58 1511.41,1443.57 1511.93,1443.57 1512.44,1443.59 1512.95,1443.6 1513.46,1443.61 1513.97,1443.61 1514.48,1443.68 1514.99,1443.73 1515.51,1443.72 1516.02,1443.7 1516.53,1443.7 1517.04,1443.7 1517.55,1443.73 1518.06,1443.75 1518.57,1443.71 1519.09,1443.68 1519.6,1443.7 1520.11,1443.73 1520.62,1443.67 1521.13,1443.61 1521.64,1443.53 1522.15,1443.46 1522.67,1443.5 1523.18,1443.54 1523.69,1443.64 1524.2,1443.74 1524.71,1443.75 1525.22,1443.76 1525.73,1443.74 1526.25,1443.71 1526.76,1443.64 1527.27,1443.56 1527.78,1443.55 1528.29,1443.54 1528.8,1443.48 1529.31,1443.41 1529.83,1443.32 1530.34,1443.24 1530.85,1443.29 1531.36,1443.34 1531.87,1443.3 1532.38,1443.26 1532.9,1443.32 1533.41,1443.38 1533.92,1443.32 1534.43,1443.27 1534.94,1443.22 1535.45,1443.18 1535.96,1443.07 1536.48,1442.96 1536.99,1442.99 1537.5,1443.01 1538.01,1443.05 1538.52,1443.08 1539.03,1443.13 1539.54,1443.17 1540.06,1443.2 1540.57,1443.22 1541.08,1443.33 1541.59,1443.42 1542.1,1443.3 1542.61,1443.18 1543.12,1443.2 1543.64,1443.22 1544.15,1443.33 1544.66,1443.43 1545.17,1443.55 1545.68,1443.67 1546.19,1443.61 1546.7,1443.56 1547.22,1443.61 1547.73,1443.65 1548.24,1443.65 1548.75,1443.65 1549.26,1443.72 1549.77,1443.78 1550.28,1443.72 1550.8,1443.66 1551.31,1443.71 1551.82,1443.76 1552.33,1443.71 1552.84,1443.67 1553.35,1443.63 1553.86,1443.6 1554.38,1443.57 1554.89,1443.55 1555.4,1443.55 1555.91,1443.55 1556.42,1443.53 1556.93,1443.5 1557.44,1443.46 1557.96,1443.42 1558.47,1443.35 1558.98,1443.28 1559.49,1443.23 1560,1443.18 1560.51,1443.24 1561.03,1443.3 1561.54,1443.24 1562.05,1443.18 1562.56,1443.15 1563.07,1443.12 1563.58,1443.26 1564.09,1443.39 1564.61,1443.44 1565.12,1443.49 1565.63,1443.57 1566.14,1443.66 1566.65,1443.69 1567.16,1443.72 1567.67,1443.68 1568.19,1443.63 1568.7,1443.64 1569.21,1443.66 1569.72,1443.7 1570.23,1443.74 1570.74,1443.78 1571.25,1443.83 1571.77,1443.85 1572.28,1443.87 1572.79,1443.81 1573.3,1443.76 1573.81,1443.84 1574.32,1443.92 1574.83,1443.87 1575.35,1443.83 1575.86,1443.88 1576.37,1443.93 1576.88,1443.86 1577.39,1443.8 1577.9,1443.79 1578.41,1443.78 1578.93,1443.75 1579.44,1443.72 1579.95,1443.71 1580.46,1443.7 1580.97,1443.69 1581.48,1443.69 1581.99,1443.6 1582.51,1443.51 1583.02,1443.5 1583.53,1443.48 1584.04,1443.49 1584.55,1443.49 1585.06,1443.47 1585.57,1443.46 1586.09,1443.51 1586.6,1443.55 1587.11,1443.52 1587.62,1443.5 1588.13,1443.53 1588.64,1443.55 1589.15,1443.49 1589.67,1443.43 1590.18,1443.49 1590.69,1443.56 1591.2,1443.56 1591.71,1443.56 1592.22,1443.65 1592.74,1443.73 1593.25,1443.61 1593.76,1443.49 1594.27,1443.63 1594.78,1443.75 1595.29,1443.74 1595.8,1443.72 1596.32,1443.82 1596.83,1443.91 1597.34,1443.87 1597.85,1443.82 1598.36,1443.72 1598.87,1443.62 1599.38,1443.69 1599.9,1443.75 1600.41,1443.77 1600.92,1443.79 1601.43,1443.86 1601.94,1443.92 1602.45,1443.92 1602.96,1443.93 1603.48,1443.95 1603.99,1443.96 1604.5,1443.96 1605.01,1443.96 1605.52,1443.88 1606.03,1443.81 1606.54,1443.77 1607.06,1443.73 1607.57,1443.65 1608.08,1443.57 1608.59,1443.66 1609.1,1443.75 1609.61,1443.83 1610.12,1443.9 1610.64,1443.95 1611.15,1444 1611.66,1443.9 1612.17,1443.8 1612.68,1443.71 1613.19,1443.62 1613.7,1443.65 1614.22,1443.69 1614.73,1443.64 1615.24,1443.59 1615.75,1443.54 1616.26,1443.5 1616.77,1443.53 1617.28,1443.56 1617.8,1443.6 1618.31,1443.63 1618.82,1443.65 1619.33,1443.68 1619.84,1443.69 1620.35,1443.71 1620.87,1443.72 1621.38,1443.72 1621.89,1443.68 1622.4,1443.65 1622.91,1443.7 1623.42,1443.73 1623.93,1443.75 1624.45,1443.77 1624.96,1443.75 1625.47,1443.72 1625.98,1443.75 1626.49,1443.77 1627,1443.71 1627.51,1443.66 1628.03,1443.68 1628.54,1443.7 1629.05,1443.61 1629.56,1443.53 1630.07,1443.55 1630.58,1443.56 1631.09,1443.54 1631.61,1443.53 1632.12,1443.49 1632.63,1443.45 1633.14,1443.36 1633.65,1443.27 1634.16,1443.27 1634.67,1443.27 1635.19,1443.27 1635.7,1443.26 1636.21,1443.3 1636.72,1443.34 1637.23,1443.27 1637.74,1443.2 1638.25,1443.22 1638.77,1443.23 1639.28,1443.33 1639.79,1443.42 1640.3,1443.42 1640.81,1443.42 1641.32,1443.48 1641.83,1443.54 1642.35,1443.48 1642.86,1443.42 1643.37,1443.51 1643.88,1443.59 1644.39,1443.59 1644.9,1443.6 1645.41,1443.51 1645.93,1443.42 1646.44,1443.44 1646.95,1443.46 1647.46,1443.56 1647.97,1443.64 1648.48,1443.65 1649,1443.66 1649.51,1443.67 1650.02,1443.68 1650.53,1443.72 1651.04,1443.75 1651.55,1443.74 1652.06,1443.73 1652.58,1443.8 1653.09,1443.87 1653.6,1443.8 1654.11,1443.74 1654.62,1443.76 1655.13,1443.78 1655.64,1443.74 1656.16,1443.7 1656.67,1443.7 1657.18,1443.71 1657.69,1443.78 1658.2,1443.84 1658.71,1443.91 1659.22,1443.97 1659.74,1444 1660.25,1444.04 1660.76,1443.93 1661.27,1443.82 1661.78,1443.83 1662.29,1443.85 1662.8,1443.76 1663.32,1443.68 1663.83,1443.68 1664.34,1443.69 1664.85,1443.62 1665.36,1443.55 1665.87,1443.53 1666.38,1443.51 1666.9,1443.53 1667.41,1443.56 1667.92,1443.55 1668.43,1443.54 1668.94,1443.52 1669.45,1443.51 1669.96,1443.54 1670.48,1443.56 1670.99,1443.6 1671.5,1443.63 1672.01,1443.57 1672.52,1443.52 1673.03,1443.45 1673.54,1443.39 1674.06,1443.3 1674.57,1443.21 1675.08,1443.25 1675.59,1443.28 1676.1,1443.27 1676.61,1443.26 1677.13,1443.27 1677.64,1443.29 1678.15,1443.3 1678.66,1443.3 1679.17,1443.25 1679.68,1443.21 1680.19,1443.16 1680.71,1443.12 1681.22,1443.19 1681.73,1443.26 1682.24,1443.33 1682.75,1443.39 1683.26,1443.32 1683.77,1443.25 1684.29,1443.35 1684.8,1443.44 1685.31,1443.42 1685.82,1443.41 1686.33,1443.37 1686.84,1443.33 1687.35,1443.31 1687.87,1443.28 1688.38,1443.28 1688.89,1443.29 1689.4,1443.29 1689.91,1443.29 1690.42,1443.26 1690.93,1443.24 1691.45,1443.3 1691.96,1443.37 1692.47,1443.35 1692.98,1443.34 1693.49,1443.36 1694,1443.37 1694.51,1443.34 1695.03,1443.31 1695.54,1443.25 1696.05,1443.18 1696.56,1443.24 1697.07,1443.3 1697.58,1443.36 1698.09,1443.41 1698.61,1443.57 1699.12,1443.71 1699.63,1443.78 1700.14,1443.84 1700.65,1443.93 1701.16,1444.01 1701.67,1443.95 1702.19,1443.9 1702.7,1443.96 1703.21,1444.02 1703.72,1443.9 1704.23,1443.77 1704.74,1443.7 1705.26,1443.63 1705.77,1443.62 1706.28,1443.61 1706.79,1443.63 1707.3,1443.64 1707.81,1443.61 1708.32,1443.58 1708.84,1443.49 1709.35,1443.39 1709.86,1443.37 1710.37,1443.35 1710.88,1443.35 1711.39,1443.34 1711.9,1443.39 1712.42,1443.44 1712.93,1443.47 1713.44,1443.49 1713.95,1443.56 1714.46,1443.62 1714.97,1443.55 1715.48,1443.48 1716,1443.45 1716.51,1443.42 1717.02,1443.38 1717.53,1443.35 1718.04,1443.36 1718.55,1443.38 1719.06,1443.36 1719.58,1443.34 1720.09,1443.33 1720.6,1443.32 1721.11,1443.19 1721.62,1443.07 1722.13,1443.08 1722.64,1443.08 1723.16,1443.08 1723.67,1443.07 1724.18,1443.05 1724.69,1443.03 1725.2,1442.9 1725.71,1442.78 1726.22,1442.81 1726.74,1442.83 1727.25,1442.91 1727.76,1442.99 1728.27,1442.99 1728.78,1442.99 1729.29,1443.12 1729.8,1443.25 1730.32,1443.2 1730.83,1443.15 1731.34,1443.21 1731.85,1443.27 1732.36,1443.25 1732.87,1443.23 1733.39,1443.28 1733.9,1443.32 1734.41,1443.35 1734.92,1443.36 1735.43,1443.41 1735.94,1443.45 1736.45,1443.45 1736.97,1443.45 1737.48,1443.47 1737.99,1443.48 1738.5,1443.44 1739.01,1443.4 1739.52,1443.48 1740.03,1443.56 1740.55,1443.58 1741.06,1443.6 1741.57,1443.52 1742.08,1443.44 1742.59,1443.39 1743.1,1443.35 1743.61,1443.44 1744.13,1443.52 1744.64,1443.53 1745.15,1443.54 1745.66,1443.7 1746.17,1443.84 1746.68,1443.79 1747.19,1443.75 1747.71,1443.64 1748.22,1443.53 1748.73,1443.56 1749.24,1443.6 1749.75,1443.61 1750.26,1443.61 1750.77,1443.62 1751.29,1443.64 1751.8,1443.58 1752.31,1443.53 1752.82,1443.52 1753.33,1443.51 1753.84,1443.5 1754.35,1443.5 1754.87,1443.47 1755.38,1443.45 1755.89,1443.42 1756.4,1443.39 1756.91,1443.35 1757.42,1443.31 1757.93,1443.31 1758.45,1443.31 1758.96,1443.35 1759.47,1443.39 1759.98,1443.37 1760.49,1443.35 1761,1443.42 1761.52,1443.48 1762.03,1443.47 1762.54,1443.46 1763.05,1443.49 1763.56,1443.52 1764.07,1443.55 1764.58,1443.57 1765.1,1443.67 1765.61,1443.76 1766.12,1443.83 1766.63,1443.89 1767.14,1443.85 1767.65,1443.81 1768.16,1443.83 1768.68,1443.84 1769.19,1443.79 1769.7,1443.74 1770.21,1443.81 1770.72,1443.87 1771.23,1443.82 1771.74,1443.78 1772.26,1443.75 1772.77,1443.73 1773.28,1443.59 1773.79,1443.46 1774.3,1443.44 1774.81,1443.42 1775.32,1443.48 1775.84,1443.53 1776.35,1443.48 1776.86,1443.43 1777.37,1443.43 1777.88,1443.42 1778.39,1443.37 1778.9,1443.33 1779.42,1443.37 1779.93,1443.39 1780.44,1443.41 1780.95,1443.42 1781.46,1443.5 1781.97,1443.58 1782.48,1443.65 1783,1443.72 1783.51,1443.75 1784.02,1443.78 1784.53,1443.76 1785.04,1443.73 1785.55,1443.78 1786.06,1443.82 1786.58,1443.75 1787.09,1443.68 1787.6,1443.56 1788.11,1443.45 1788.62,1443.38 1789.13,1443.32 1789.64,1443.32 1790.16,1443.31 1790.67,1443.28 1791.18,1443.24 1791.69,1443.23 1792.2,1443.22 1792.71,1443.17 1793.23,1443.12 1793.74,1443.11 1794.25,1443.09 1794.76,1443.07 1795.27,1443.04 1795.78,1443.04 1796.29,1443.04 1796.81,1443.07 1797.32,1443.1 1797.83,1443.23 1798.34,1443.35 1798.85,1443.4 1799.36,1443.44 1799.87,1443.45 1800.39,1443.45 1800.9,1443.49 1801.41,1443.52 1801.92,1443.45 1802.43,1443.38 1802.94,1443.3 1803.45,1443.22 1803.97,1443.31 1804.48,1443.39 1804.99,1443.34 1805.5,1443.3 1806.01,1443.25 1806.52,1443.21 1807.03,1443.2 1807.55,1443.19 1808.06,1443.28 1808.57,1443.36 1809.08,1443.39 1809.59,1443.41 1810.1,1443.27 1810.61,1443.13 1811.13,1443.12 1811.64,1443.11 1812.15,1443.21 1812.66,1443.3 1813.17,1443.21 1813.68,1443.11 1814.19,1443.13 1814.71,1443.15 1815.22,1443.25 1815.73,1443.35 1816.24,1443.19 1816.75,1443.05 1817.26,1443.11 1817.77,1443.18 1818.29,1443.15 1818.8,1443.12 1819.31,1443.14 1819.82,1443.17 1820.33,1443.33 1820.84,1443.49 1821.36,1443.52 1821.87,1443.55 1822.38,1443.56 1822.89,1443.57 1823.4,1443.48 1823.91,1443.4 1824.42,1443.47 1824.94,1443.54 1825.45,1443.57 1825.96,1443.61 1826.47,1443.7 1826.98,1443.79 1827.49,1443.87 1828,1443.95 1828.52,1443.98 1829.03,1444.01 1829.54,1443.98 1830.05,1443.96 1830.56,1443.99 1831.07,1444.03 1831.58,1443.93 1832.1,1443.84 1832.61,1444.01 1833.12,1444.17 1833.63,1444.17 1834.14,1444.17 1834.65,1444.12 1835.16,1444.07 1835.68,1444 1836.19,1443.93 1836.7,1443.86 1837.21,1443.78 1837.72,1443.78 1838.23,1443.78 1838.74,1443.75 1839.26,1443.73 1839.77,1443.71 1840.28,1443.69 1840.79,1443.71 1841.3,1443.73 1841.81,1443.7 1842.32,1443.66 1842.84,1443.74 1843.35,1443.8 1843.86,1443.69 1844.37,1443.58 1844.88,1443.69 1845.39,1443.79 1845.9,1443.69 1846.42,1443.58 1846.93,1443.64 1847.44,1443.69 1847.95,1443.71 1848.46,1443.73 1848.97,1443.73 1849.49,1443.73 1850,1443.66 1850.51,1443.6 1851.02,1443.62 1851.53,1443.63 1852.04,1443.53 1852.55,1443.43 1853.07,1443.35 1853.58,1443.26 1854.09,1443.33 1854.6,1443.4 1855.11,1443.38 1855.62,1443.37 1856.13,1443.36 1856.65,1443.36 1857.16,1443.45 1857.67,1443.54 1858.18,1443.53 1858.69,1443.51 1859.2,1443.6 1859.71,1443.68 1860.23,1443.71 1860.74,1443.74 1861.25,1443.72 1861.76,1443.69 1862.27,1443.65 1862.78,1443.6 1863.29,1443.67 1863.81,1443.74 1864.32,1443.7 1864.83,1443.66 1865.34,1443.63 1865.85,1443.61 1866.36,1443.64 1866.87,1443.67 1867.39,1443.71 1867.9,1443.74 1868.41,1443.63 1868.92,1443.52 1869.43,1443.43 1869.94,1443.35 1870.45,1443.25 1870.97,1443.17 1871.48,1443.27 1871.99,1443.38 1872.5,1443.43 1873.01,1443.48 1873.52,1443.48 1874.03,1443.48 1874.55,1443.48 1875.06,1443.48 1875.57,1443.47 1876.08,1443.47 1876.59,1443.49 1877.1,1443.5 1877.62,1443.48 1878.13,1443.46 1878.64,1443.42 1879.15,1443.39 1879.66,1443.4 1880.17,1443.42 1880.68,1443.4 1881.2,1443.38 1881.71,1443.4 1882.22,1443.42 1882.73,1443.35 1883.24,1443.3 1883.75,1443.28 1884.26,1443.27 1884.78,1443.3 1885.29,1443.32 1885.8,1443.26 1886.31,1443.2 1886.82,1443.28 1887.33,1443.35 1887.84,1443.33 1888.36,1443.3 1888.87,1443.28 1889.38,1443.26 1889.89,1443.34 1890.4,1443.41 1890.91,1443.46 1891.42,1443.51 1891.94,1443.53 1892.45,1443.55 1892.96,1443.51 1893.47,1443.46 1893.98,1443.43 1894.49,1443.4 1895,1443.39 1895.52,1443.37 1896.03,1443.48 1896.54,1443.58 1897.05,1443.6 1897.56,1443.62 1898.07,1443.64 1898.58,1443.66 1899.1,1443.66 1899.61,1443.66 1900.12,1443.73 1900.63,1443.78 1901.14,1443.62 1901.65,1443.47 1902.16,1443.57 1902.68,1443.67 1903.19,1443.62 1903.7,1443.56 1904.21,1443.51 1904.72,1443.46 1905.23,1443.46 1905.75,1443.46 1906.26,1443.29 1906.77,1443.13 1907.28,1443.15 1907.79,1443.17 1908.3,1443.1 1908.81,1443.03 1909.33,1443.04 1909.84,1443.05 1910.35,1443.07 1910.86,1443.08 1911.37,1443.2 1911.88,1443.31 1912.39,1443.24 1912.91,1443.16 1913.42,1443.18 1913.93,1443.2 1914.44,1443.24 1914.95,1443.27 1915.46,1443.17 1915.97,1443.08 1916.49,1443.2 1917,1443.31 1917.51,1443.3 1918.02,1443.28 1918.53,1443.24 1919.04,1443.2 1919.55,1443.22 1920.07,1443.24 1920.58,1443.15 1921.09,1443.06 1921.6,1442.95 1922.11,1442.84 1922.62,1442.94 1923.13,1443.04 1923.65,1442.98 1924.16,1442.93 1924.67,1442.86 1925.18,1442.8 1925.69,1442.96 1926.2,1443.11 1926.71,1443.08 1927.23,1443.04 1927.74,1443.12 1928.25,1443.19 1928.76,1443.19 1929.27,1443.2 1929.78,1443.08 1930.29,1442.96 1930.81,1443.08 1931.32,1443.19 1931.83,1443.28 1932.34,1443.36 1932.85,1443.38 1933.36,1443.4 1933.88,1443.38 1934.39,1443.37 1934.9,1443.42 1935.41,1443.46 1935.92,1443.42 1936.43,1443.38 1936.94,1443.45 1937.46,1443.51 1937.97,1443.6 1938.48,1443.69 1938.99,1443.53 1939.5,1443.38 1940.01,1443.38 1940.52,1443.39 1941.04,1443.44 1941.55,1443.49 1942.06,1443.49 1942.57,1443.5 1943.08,1443.62 1943.59,1443.73 1944.1,1443.68 1944.62,1443.64 1945.13,1443.61 1945.64,1443.58 1946.15,1443.62 1946.66,1443.65 1947.17,1443.58 1947.68,1443.52 1948.2,1443.35 1948.71,1443.19 1949.22,1443.12 1949.73,1443.06 1950.24,1443.09 1950.75,1443.12 1951.26,1443.13 1951.78,1443.15 1952.29,1443 1952.8,1442.86 1953.31,1443.03 1953.82,1443.18 1954.33,1443.29 1954.84,1443.39 1955.36,1443.39 1955.87,1443.39 1956.38,1443.36 1956.89,1443.33 1957.4,1443.42 1957.91,1443.51 1958.42,1443.53 1958.94,1443.55 1959.45,1443.51 1959.96,1443.49 1960.47,1443.48 1960.98,1443.48 1961.49,1443.4 1962.01,1443.31 1962.52,1443.36 1963.03,1443.4 1963.54,1443.31 1964.05,1443.22 1964.56,1443.07 1965.07,1442.92 1965.59,1442.94 1966.1,1442.95 1966.61,1443 1967.12,1443.05 1967.63,1443.05 1968.14,1443.06 1968.65,1442.99 1969.17,1442.92 1969.68,1442.82 1970.19,1442.72 1970.7,1442.74 1971.21,1442.77 1971.72,1442.76 1972.23,1442.75 1972.75,1442.7 1973.26,1442.65 1973.77,1442.6 1974.28,1442.55 1974.79,1442.6 1975.3,1442.63 1975.81,1442.63 1976.33,1442.62 1976.84,1442.62 1977.35,1442.62 1977.86,1442.81 1978.37,1442.99 1978.88,1443.12 1979.39,1443.23 1979.91,1443.33 1980.42,1443.42 1980.93,1443.48 1981.44,1443.54 1981.95,1443.46 1982.46,1443.39 1982.97,1443.33 1983.49,1443.27 1984,1443.27 1984.51,1443.26 1985.02,1443.2 1985.53,1443.14 1986.04,1443.22 1986.55,1443.29 1987.07,1443.26 1987.58,1443.23 1988.09,1443.26 1988.6,1443.28 1989.11,1443.23 1989.62,1443.18 1990.13,1443.14 1990.65,1443.1 1991.16,1443.2 1991.67,1443.29 1992.18,1443.33 1992.69,1443.37 1993.2,1443.47 1993.72,1443.56 1994.23,1443.56 1994.74,1443.56 1995.25,1443.57 1995.76,1443.58 1996.27,1443.63 1996.78,1443.67 1997.3,1443.62 1997.81,1443.57 1998.32,1443.59 1998.83,1443.61 1999.34,1443.6 1999.85,1443.59 2000.36,1443.53 2000.88,1443.47 2001.39,1443.43 2001.9,1443.39 2002.41,1443.37 2002.92,1443.35 2003.43,1443.33 2003.94,1443.31 2004.46,1443.27 2004.97,1443.23 2005.48,1443.23 2005.99,1443.24 2006.5,1443.27 2007.01,1443.29 2007.52,1443.23 2008.04,1443.17 2008.55,1443.19 2009.06,1443.21 2009.57,1443.12 2010.08,1443.04 2010.59,1443.04 2011.1,1443.04 2011.62,1442.98 2012.13,1442.92 2012.64,1442.92 2013.15,1442.92 2013.66,1442.87 2014.17,1442.84 2014.68,1442.88 2015.2,1442.92 2015.71,1442.87 2016.22,1442.82 2016.73,1442.79 2017.24,1442.76 2017.75,1442.87 2018.26,1442.97 2018.78,1442.97 2019.29,1442.97 2019.8,1443.02 2020.31,1443.06 2020.82,1443.06 2021.33,1443.07 2021.85,1443.1 2022.36,1443.13 2022.87,1443.25 2023.38,1443.37 2023.89,1443.36 2024.4,1443.34 2024.91,1443.33 2025.43,1443.31 2025.94,1443.35 2026.45,1443.38 2026.96,1443.4 2027.47,1443.41 2027.98,1443.34 2028.49,1443.26 2029.01,1443.23 2029.52,1443.2 2030.03,1443.25 2030.54,1443.31 2031.05,1443.28 2031.56,1443.25 2032.07,1443.28 2032.59,1443.31 2033.1,1443.17 2033.61,1443.03 2034.12,1443.01 2034.63,1442.99 2035.14,1443.04 2035.65,1443.09 2036.17,1443.04 2036.68,1442.99 2037.19,1442.99 2037.7,1442.98 2038.21,1442.85 2038.72,1442.72 2039.23,1442.8 2039.75,1442.88 2040.26,1442.94 2040.77,1443 2041.28,1442.96 2041.79,1442.93 2042.3,1442.91 2042.81,1442.9 2043.33,1442.97 2043.84,1443.04 2044.35,1443.11 2044.86,1443.17 2045.37,1443.1 2045.88,1443.02 2046.39,1443.12 2046.91,1443.2 2047.42,1443.28 2047.93,1443.35 2048.44,1443.49 2048.95,1443.61 2049.46,1443.69 2049.98,1443.75 2050.49,1443.67 2051,1443.6 2051.51,1443.53 2052.02,1443.48 2052.53,1443.4 2053.04,1443.33 2053.56,1443.23 2054.07,1443.14 2054.58,1443.26 2055.09,1443.37 2055.6,1443.48 2056.11,1443.58 2056.62,1443.59 2057.14,1443.6 2057.65,1443.58 2058.16,1443.57 2058.67,1443.61 2059.18,1443.65 2059.69,1443.64 2060.2,1443.62 2060.72,1443.65 2061.23,1443.67 2061.74,1443.64 2062.25,1443.61 2062.76,1443.67 2063.27,1443.72 2063.78,1443.68 2064.3,1443.63 2064.81,1443.59 2065.32,1443.55 2065.83,1443.58 2066.34,1443.62 2066.85,1443.54 2067.36,1443.46 2067.88,1443.51 2068.39,1443.56 2068.9,1443.52 2069.41,1443.48 2069.92,1443.44 2070.43,1443.4 2070.94,1443.39 2071.46,1443.38 2071.97,1443.43 2072.48,1443.48 2072.99,1443.38 2073.5,1443.29 2074.01,1443.15 2074.52,1443.01 2075.04,1443.05 2075.55,1443.08 2076.06,1443.14 2076.57,1443.19 2077.08,1443.32 2077.59,1443.44 2078.11,1443.5 2078.62,1443.54 2079.13,1443.52 2079.64,1443.51 2080.15,1443.54 2080.66,1443.58 2081.17,1443.48 2081.69,1443.38 2082.2,1443.42 2082.71,1443.45 2083.22,1443.32 2083.73,1443.2 2084.24,1443.17 2084.75,1443.15 2085.27,1443.14 2085.78,1443.14 2086.29,1443.16 2086.8,1443.19 2087.31,1443.16 2087.82,1443.13 2088.33,1443.08 2088.85,1443.04 2089.36,1443.05 2089.87,1443.05 2090.38,1443.12 2090.89,1443.18 2091.4,1443.2 2091.91,1443.21 2092.43,1443.08 2092.94,1442.96 2093.45,1443.03 2093.96,1443.1 2094.47,1443.09 2094.98,1443.09 2095.49,1443.03 2096.01,1442.98 2096.52,1442.93 2097.03,1442.89 2097.54,1442.85 2098.05,1442.81 2098.56,1442.94 2099.07,1443.06 2099.59,1442.92 2100.1,1442.78 2100.61,1442.92 2101.12,1443.04 2101.63,1443.09 2102.14,1443.13 2102.65,1443.13 2103.17,1443.12 2103.68,1443.11 2104.19,1443.1 2104.7,1443.1 2105.21,1443.11 2105.72,1443.07 2106.24,1443.03 2106.75,1443.16 2107.26,1443.28 2107.77,1443.45 2108.28,1443.6 2108.79,1443.64 2109.3,1443.67 2109.82,1443.62 2110.33,1443.56 2110.84,1443.57 2111.35,1443.58 2111.86,1443.59 2112.37,1443.6 2112.88,1443.62 2113.4,1443.63 2113.91,1443.69 2114.42,1443.74 2114.93,1443.64 2115.44,1443.55 2115.95,1443.52 2116.46,1443.5 2116.98,1443.43 2117.49,1443.37 2118,1443.32 2118.51,1443.27 2119.02,1443.29 2119.53,1443.31 2120.04,1443.36 2120.56,1443.42 2121.07,1443.37 2121.58,1443.32 2122.09,1443.32 2122.6,1443.32 2123.11,1443.43 2123.62,1443.53 2124.14,1443.53 2124.65,1443.53 2125.16,1443.54 2125.67,1443.55 2126.18,1443.41 2126.69,1443.27 2127.2,1443.24 2127.72,1443.21 2128.23,1443.25 2128.74,1443.29 2129.25,1443.25 2129.76,1443.22 2130.27,1443.21 2130.78,1443.2 2131.3,1443.2 2131.81,1443.2 2132.32,1443.16 2132.83,1443.12 2133.34,1443.25 2133.85,1443.37 2134.37,1443.39 2134.88,1443.4 2135.39,1443.35 2135.9,1443.29 2136.41,1443.28 2136.92,1443.27 2137.43,1443.28 2137.95,1443.29 2138.46,1443.28 2138.97,1443.28 2139.48,1443.15 2139.99,1443.04 2140.5,1443.04 2141.01,1443.04 2141.53,1443.03 2142.04,1443.02 2142.55,1443 2143.06,1442.98 2143.57,1442.97 2144.08,1442.96 2144.59,1443 2145.11,1443.04 2145.62,1443.04 2146.13,1443.03 2146.64,1443.11 2147.15,1443.17 2147.66,1443.18 2148.17,1443.18 2148.69,1443.17 2149.2,1443.17 2149.71,1443.19 2150.22,1443.21 2150.73,1443.23 2151.24,1443.25 2151.75,1443.3 2152.27,1443.34 2152.78,1443.3 2153.29,1443.27 2153.8,1443.36 2154.31,1443.44 2154.82,1443.4 2155.33,1443.37 2155.85,1443.41 2156.36,1443.44 2156.87,1443.47 2157.38,1443.5 2157.89,1443.56 2158.4,1443.63 2158.91,1443.59 2159.43,1443.56 2159.94,1443.57 2160.45,1443.57 2160.96,1443.47 2161.47,1443.37 2161.98,1443.27 2162.49,1443.17 2163.01,1443.18 2163.52,1443.19 2164.03,1443.12 2164.54,1443.06 2165.05,1442.96 2165.56,1442.87 2166.08,1442.84 2166.59,1442.81 2167.1,1442.84 2167.61,1442.86 2168.12,1442.97 2168.63,1443.07 2169.14,1443.11 2169.66,1443.16 2170.17,1443.11 2170.68,1443.07 2171.19,1443.13 2171.7,1443.17 2172.21,1443.18 2172.72,1443.18 2173.24,1443.18 2173.75,1443.17 2174.26,1443.16 2174.77,1443.15 2175.28,1443.06 2175.79,1442.98 2176.3,1442.98 2176.82,1442.97 2177.33,1442.89 2177.84,1442.81 2178.35,1442.59 2178.86,1442.39 2179.37,1442.51 2179.88,1442.63 2180.4,1442.58 2180.91,1442.54 2181.42,1442.65 2181.93,1442.75 2182.44,1442.82 2182.95,1442.89 2183.46,1442.84 2183.98,1442.8 2184.49,1442.86 2185,1442.92 2185.51,1443.05 2186.02,1443.16 2186.53,1443.16 2187.04,1443.15 2187.56,1443.22 2188.07,1443.28 2188.58,1443.3 2189.09,1443.32 2189.6,1443.35 2190.11,1443.37 2190.62,1443.38 2191.14,1443.38 2191.65,1443.4 2192.16,1443.43 2192.67,1443.37 2193.18,1443.3 2193.69,1443.38 2194.21,1443.46 2194.72,1443.52 2195.23,1443.57 2195.74,1443.61 2196.25,1443.64 2196.76,1443.7 2197.27,1443.74 2197.79,1443.65 2198.3,1443.55 2198.81,1443.51 2199.32,1443.47 2199.83,1443.41 2200.34,1443.34 2200.85,1443.33 2201.37,1443.31 2201.88,1443.32 2202.39,1443.32 2202.9,1443.38 2203.41,1443.43 2203.92,1443.54 2204.43,1443.63 2204.95,1443.6 2205.46,1443.57 2205.97,1443.5 2206.48,1443.42 2206.99,1443.48 2207.5,1443.53 2208.01,1443.45 2208.53,1443.38 2209.04,1443.27 2209.55,1443.16 2210.06,1443.06 2210.57,1442.96 2211.08,1443.03 2211.59,1443.11 2212.11,1442.94 2212.62,1442.78 2213.13,1442.86 2213.64,1442.93 2214.15,1443.07 2214.66,1443.19 2215.17,1443.19 2215.69,1443.19 2216.2,1443.28 2216.71,1443.37 2217.22,1443.3 2217.73,1443.23 2218.24,1443.27 2218.75,1443.31 2219.27,1443.23 2219.78,1443.16 2220.29,1443.16 2220.8,1443.17 2221.31,1443.22 2221.82,1443.27 2222.34,1443.22 2222.85,1443.18 2223.36,1443.16 2223.87,1443.14 2224.38,1443.11 2224.89,1443.09 2225.4,1443.21 2225.92,1443.33 2226.43,1443.32 2226.94,1443.32 2227.45,1443.26 2227.96,1443.21 2228.47,1443.27 2228.98,1443.32 2229.5,1443.27 2230.01,1443.21 2230.52,1443.25 2231.03,1443.29 2231.54,1443.37 2232.05,1443.44 2232.56,1443.46 2233.08,1443.48 2233.59,1443.5 2234.1,1443.52 2234.61,1443.52 2235.12,1443.53 2235.63,1443.44 2236.14,1443.35 2236.66,1443.23 2237.17,1443.11 2237.68,1443.07 2238.19,1443.03 2238.7,1443.17 2239.21,1443.3 2239.72,1443.38 2240.24,1443.45 2240.75,1443.4 2241.26,1443.35 2241.77,1443.32 2242.28,1443.3 2242.79,1443.16 2243.3,1443.03 2243.82,1442.94 2244.33,1442.85 2244.84,1442.92 2245.35,1442.98 2245.86,1443.04 2246.37,1443.09 2246.88,1443.02 2247.4,1442.94 2247.91,1443 2248.42,1443.06 2248.93,1443.03 2249.44,1443 2249.95,1443.13 2250.47,1443.25 2250.98,1443.17 2251.49,1443.1 2252,1443.09 2252.51,1443.08 2253.02,1443.15 2253.53,1443.21 2254.05,1443.18 2254.56,1443.16 2255.07,1443.12 2255.58,1443.08 2256.09,1443.06 2256.6,1443.05 2257.11,1443.11 2257.63,1443.16 2258.14,1443.06 2258.65,1442.97 2259.16,1442.98 2259.67,1442.98 2260.18,1443.08 2260.69,1443.18 2261.21,1443.08 2261.72,1442.99 2262.23,1443.03 2262.74,1443.07 2263.25,1443.1 2263.76,1443.12 2264.27,1443.21 2264.79,1443.3 2265.3,1443.31 2265.81,1443.33 2266.32,1443.3 2266.83,1443.27 2267.34,1443.32 2267.85,1443.36 2268.37,1443.36 2268.88,1443.37 2269.39,1443.28 2269.9,1443.21 2270.41,1443.2 2270.92,1443.19 2271.43,1443.12 2271.95,1443.04 2272.46,1443.1 2272.97,1443.16 2273.48,1443.14 2273.99,1443.12 2274.5,1443.18 2275.01,1443.23 2275.53,1443.14 2276.04,1443.07 2276.55,1443.18 2277.06,1443.29 2277.57,1443.23 2278.08,1443.19 2278.6,1443.22 2279.11,1443.24 2279.62,1443.27 2280.13,1443.29 2280.64,1443.31 2281.15,1443.32 2281.66,1443.34 2282.18,1443.36 2282.69,1443.22 2283.2,1443.09 2283.71,1443.16 2284.22,1443.23 2284.73,1443.2 2285.24,1443.17 2285.76,1443.13 2286.27,1443.1 2286.78,1443.16 2287.29,1443.21 2287.8,1443.01 2288.31,1442.82 2288.82,1442.77 2289.34,1442.73 2289.85,1442.67 2290.36,1442.6 2290.87,1442.56 2291.38,1442.52 "/>
<path clip-path="url(#clip760)" d="M2011.18 198.898 L2280.47 198.898 L2280.47 95.2176 L2011.18 95.2176  Z" fill="#ffffff" fill-rule="evenodd" fill-opacity="1"/>
<polyline clip-path="url(#clip760)" style="stroke:#000000; stroke-linecap:round; stroke-linejoin:round; stroke-width:4; stroke-opacity:1; fill:none" points="2011.18,198.898 2280.47,198.898 2280.47,95.2176 2011.18,95.2176 2011.18,198.898 "/>
<polyline clip-path="url(#clip760)" style="stroke:#009af9; stroke-linecap:round; stroke-linejoin:round; stroke-width:4; stroke-opacity:1; fill:none" points="2035.28,147.058 2179.85,147.058 "/>
<path clip-path="url(#clip760)" d="M2217.79 166.745 Q2215.98 171.375 2214.27 172.787 Q2212.56 174.199 2209.69 174.199 L2206.28 174.199 L2206.28 170.634 L2208.78 170.634 Q2210.54 170.634 2211.51 169.8 Q2212.49 168.967 2213.67 165.865 L2214.43 163.921 L2203.94 138.412 L2208.46 138.412 L2216.56 158.689 L2224.66 138.412 L2229.18 138.412 L2217.79 166.745 Z" fill="#000000" fill-rule="nonzero" fill-opacity="1" /><path clip-path="url(#clip760)" d="M2236.47 160.402 L2244.11 160.402 L2244.11 134.037 L2235.8 135.703 L2235.8 131.444 L2244.06 129.778 L2248.74 129.778 L2248.74 160.402 L2256.38 160.402 L2256.38 164.338 L2236.47 164.338 L2236.47 160.402 Z" fill="#000000" fill-rule="nonzero" fill-opacity="1" /></svg>
