<?xml version="1.0" encoding="utf-8"?>
<svg xmlns="http://www.w3.org/2000/svg" xmlns:xlink="http://www.w3.org/1999/xlink" width="600" height="400" viewBox="0 0 2400 1600">
<defs>
  <clipPath id="clip780">
    <rect x="0" y="0" width="2400" height="1600"/>
  </clipPath>
</defs>
<path clip-path="url(#clip780)" d="M0 1600 L2400 1600 L2400 0 L0 0  Z" fill="#ffffff" fill-rule="evenodd" fill-opacity="1"/>
<defs>
  <clipPath id="clip781">
    <rect x="480" y="0" width="1681" height="1600"/>
  </clipPath>
</defs>
<path clip-path="url(#clip780)" d="M156.598 1486.45 L2352.76 1486.45 L2352.76 47.2441 L156.598 47.2441  Z" fill="#ffffff" fill-rule="evenodd" fill-opacity="1"/>
<defs>
  <clipPath id="clip782">
    <rect x="156" y="47" width="2197" height="1440"/>
  </clipPath>
</defs>
<polyline clip-path="url(#clip782)" style="stroke:#000000; stroke-linecap:round; stroke-linejoin:round; stroke-width:2; stroke-opacity:0.1; fill:none" points="218.754,1486.45 218.754,47.2441 "/>
<polyline clip-path="url(#clip782)" style="stroke:#000000; stroke-linecap:round; stroke-linejoin:round; stroke-width:2; stroke-opacity:0.1; fill:none" points="737.234,1486.45 737.234,47.2441 "/>
<polyline clip-path="url(#clip782)" style="stroke:#000000; stroke-linecap:round; stroke-linejoin:round; stroke-width:2; stroke-opacity:0.1; fill:none" points="1255.71,1486.45 1255.71,47.2441 "/>
<polyline clip-path="url(#clip782)" style="stroke:#000000; stroke-linecap:round; stroke-linejoin:round; stroke-width:2; stroke-opacity:0.1; fill:none" points="1774.19,1486.45 1774.19,47.2441 "/>
<polyline clip-path="url(#clip782)" style="stroke:#000000; stroke-linecap:round; stroke-linejoin:round; stroke-width:2; stroke-opacity:0.1; fill:none" points="2292.67,1486.45 2292.67,47.2441 "/>
<polyline clip-path="url(#clip780)" style="stroke:#000000; stroke-linecap:round; stroke-linejoin:round; stroke-width:4; stroke-opacity:1; fill:none" points="156.598,1486.45 2352.76,1486.45 "/>
<polyline clip-path="url(#clip780)" style="stroke:#000000; stroke-linecap:round; stroke-linejoin:round; stroke-width:4; stroke-opacity:1; fill:none" points="218.754,1486.45 218.754,1467.55 "/>
<polyline clip-path="url(#clip780)" style="stroke:#000000; stroke-linecap:round; stroke-linejoin:round; stroke-width:4; stroke-opacity:1; fill:none" points="737.234,1486.45 737.234,1467.55 "/>
<polyline clip-path="url(#clip780)" style="stroke:#000000; stroke-linecap:round; stroke-linejoin:round; stroke-width:4; stroke-opacity:1; fill:none" points="1255.71,1486.45 1255.71,1467.55 "/>
<polyline clip-path="url(#clip780)" style="stroke:#000000; stroke-linecap:round; stroke-linejoin:round; stroke-width:4; stroke-opacity:1; fill:none" points="1774.19,1486.45 1774.19,1467.55 "/>
<polyline clip-path="url(#clip780)" style="stroke:#000000; stroke-linecap:round; stroke-linejoin:round; stroke-width:4; stroke-opacity:1; fill:none" points="2292.67,1486.45 2292.67,1467.55 "/>
<path clip-path="url(#clip780)" d="M218.754 1517.37 Q215.143 1517.37 213.314 1520.93 Q211.508 1524.47 211.508 1531.6 Q211.508 1538.71 213.314 1542.27 Q215.143 1545.82 218.754 1545.82 Q222.388 1545.82 224.193 1542.27 Q226.022 1538.71 226.022 1531.6 Q226.022 1524.47 224.193 1520.93 Q222.388 1517.37 218.754 1517.37 M218.754 1513.66 Q224.564 1513.66 227.619 1518.27 Q230.698 1522.85 230.698 1531.6 Q230.698 1540.33 227.619 1544.94 Q224.564 1549.52 218.754 1549.52 Q212.943 1549.52 209.865 1544.94 Q206.809 1540.33 206.809 1531.6 Q206.809 1522.85 209.865 1518.27 Q212.943 1513.66 218.754 1513.66 Z" fill="#000000" fill-rule="nonzero" fill-opacity="1" /><path clip-path="url(#clip780)" d="M700.926 1544.91 L717.246 1544.91 L717.246 1548.85 L695.301 1548.85 L695.301 1544.91 Q697.963 1542.16 702.547 1537.53 Q707.153 1532.88 708.334 1531.53 Q710.579 1529.01 711.459 1527.27 Q712.361 1525.51 712.361 1523.82 Q712.361 1521.07 710.417 1519.33 Q708.496 1517.6 705.394 1517.6 Q703.195 1517.6 700.741 1518.36 Q698.31 1519.13 695.533 1520.68 L695.533 1515.95 Q698.357 1514.82 700.81 1514.24 Q703.264 1513.66 705.301 1513.66 Q710.671 1513.66 713.866 1516.35 Q717.06 1519.03 717.06 1523.52 Q717.06 1525.65 716.25 1527.57 Q715.463 1529.47 713.357 1532.07 Q712.778 1532.74 709.676 1535.95 Q706.574 1539.15 700.926 1544.91 Z" fill="#000000" fill-rule="nonzero" fill-opacity="1" /><path clip-path="url(#clip780)" d="M727.107 1514.29 L745.463 1514.29 L745.463 1518.22 L731.389 1518.22 L731.389 1526.7 Q732.407 1526.35 733.426 1526.19 Q734.444 1526 735.463 1526 Q741.25 1526 744.63 1529.17 Q748.009 1532.34 748.009 1537.76 Q748.009 1543.34 744.537 1546.44 Q741.065 1549.52 734.745 1549.52 Q732.57 1549.52 730.301 1549.15 Q728.056 1548.78 725.648 1548.04 L725.648 1543.34 Q727.732 1544.47 729.954 1545.03 Q732.176 1545.58 734.653 1545.58 Q738.657 1545.58 740.995 1543.48 Q743.333 1541.37 743.333 1537.76 Q743.333 1534.15 740.995 1532.04 Q738.657 1529.94 734.653 1529.94 Q732.778 1529.94 730.903 1530.35 Q729.051 1530.77 727.107 1531.65 L727.107 1514.29 Z" fill="#000000" fill-rule="nonzero" fill-opacity="1" /><path clip-path="url(#clip780)" d="M767.222 1517.37 Q763.611 1517.37 761.782 1520.93 Q759.977 1524.47 759.977 1531.6 Q759.977 1538.71 761.782 1542.27 Q763.611 1545.82 767.222 1545.82 Q770.856 1545.82 772.662 1542.27 Q774.491 1538.71 774.491 1531.6 Q774.491 1524.47 772.662 1520.93 Q770.856 1517.37 767.222 1517.37 M767.222 1513.66 Q773.032 1513.66 776.088 1518.27 Q779.166 1522.85 779.166 1531.6 Q779.166 1540.33 776.088 1544.94 Q773.032 1549.52 767.222 1549.52 Q761.412 1549.52 758.333 1544.94 Q755.278 1540.33 755.278 1531.6 Q755.278 1522.85 758.333 1518.27 Q761.412 1513.66 767.222 1513.66 Z" fill="#000000" fill-rule="nonzero" fill-opacity="1" /><path clip-path="url(#clip780)" d="M1215.33 1514.29 L1233.69 1514.29 L1233.69 1518.22 L1219.61 1518.22 L1219.61 1526.7 Q1220.63 1526.35 1221.65 1526.19 Q1222.67 1526 1223.69 1526 Q1229.48 1526 1232.86 1529.17 Q1236.23 1532.34 1236.23 1537.76 Q1236.23 1543.34 1232.76 1546.44 Q1229.29 1549.52 1222.97 1549.52 Q1220.8 1549.52 1218.53 1549.15 Q1216.28 1548.78 1213.87 1548.04 L1213.87 1543.34 Q1215.96 1544.47 1218.18 1545.03 Q1220.4 1545.58 1222.88 1545.58 Q1226.88 1545.58 1229.22 1543.48 Q1231.56 1541.37 1231.56 1537.76 Q1231.56 1534.15 1229.22 1532.04 Q1226.88 1529.94 1222.88 1529.94 Q1221 1529.94 1219.13 1530.35 Q1217.28 1530.77 1215.33 1531.65 L1215.33 1514.29 Z" fill="#000000" fill-rule="nonzero" fill-opacity="1" /><path clip-path="url(#clip780)" d="M1255.45 1517.37 Q1251.84 1517.37 1250.01 1520.93 Q1248.2 1524.47 1248.2 1531.6 Q1248.2 1538.71 1250.01 1542.27 Q1251.84 1545.82 1255.45 1545.82 Q1259.08 1545.82 1260.89 1542.27 Q1262.72 1538.71 1262.72 1531.6 Q1262.72 1524.47 1260.89 1520.93 Q1259.08 1517.37 1255.45 1517.37 M1255.45 1513.66 Q1261.26 1513.66 1264.31 1518.27 Q1267.39 1522.85 1267.39 1531.6 Q1267.39 1540.33 1264.31 1544.94 Q1261.26 1549.52 1255.45 1549.52 Q1249.64 1549.52 1246.56 1544.94 Q1243.5 1540.33 1243.5 1531.6 Q1243.5 1522.85 1246.56 1518.27 Q1249.64 1513.66 1255.45 1513.66 Z" fill="#000000" fill-rule="nonzero" fill-opacity="1" /><path clip-path="url(#clip780)" d="M1285.61 1517.37 Q1282 1517.37 1280.17 1520.93 Q1278.36 1524.47 1278.36 1531.6 Q1278.36 1538.71 1280.17 1542.27 Q1282 1545.82 1285.61 1545.82 Q1289.24 1545.82 1291.05 1542.27 Q1292.88 1538.71 1292.88 1531.6 Q1292.88 1524.47 1291.05 1520.93 Q1289.24 1517.37 1285.61 1517.37 M1285.61 1513.66 Q1291.42 1513.66 1294.48 1518.27 Q1297.55 1522.85 1297.55 1531.6 Q1297.55 1540.33 1294.48 1544.94 Q1291.42 1549.52 1285.61 1549.52 Q1279.8 1549.52 1276.72 1544.94 Q1273.67 1540.33 1273.67 1531.6 Q1273.67 1522.85 1276.72 1518.27 Q1279.8 1513.66 1285.61 1513.66 Z" fill="#000000" fill-rule="nonzero" fill-opacity="1" /><path clip-path="url(#clip780)" d="M1732.47 1514.29 L1754.69 1514.29 L1754.69 1516.28 L1742.15 1548.85 L1737.26 1548.85 L1749.07 1518.22 L1732.47 1518.22 L1732.47 1514.29 Z" fill="#000000" fill-rule="nonzero" fill-opacity="1" /><path clip-path="url(#clip780)" d="M1763.86 1514.29 L1782.22 1514.29 L1782.22 1518.22 L1768.14 1518.22 L1768.14 1526.7 Q1769.16 1526.35 1770.18 1526.19 Q1771.2 1526 1772.22 1526 Q1778 1526 1781.38 1529.17 Q1784.76 1532.34 1784.76 1537.76 Q1784.76 1543.34 1781.29 1546.44 Q1777.82 1549.52 1771.5 1549.52 Q1769.32 1549.52 1767.05 1549.15 Q1764.81 1548.78 1762.4 1548.04 L1762.4 1543.34 Q1764.48 1544.47 1766.71 1545.03 Q1768.93 1545.58 1771.4 1545.58 Q1775.41 1545.58 1777.75 1543.48 Q1780.09 1541.37 1780.09 1537.76 Q1780.09 1534.15 1777.75 1532.04 Q1775.41 1529.94 1771.4 1529.94 Q1769.53 1529.94 1767.65 1530.35 Q1765.8 1530.77 1763.86 1531.65 L1763.86 1514.29 Z" fill="#000000" fill-rule="nonzero" fill-opacity="1" /><path clip-path="url(#clip780)" d="M1803.97 1517.37 Q1800.36 1517.37 1798.53 1520.93 Q1796.73 1524.47 1796.73 1531.6 Q1796.73 1538.71 1798.53 1542.27 Q1800.36 1545.82 1803.97 1545.82 Q1807.61 1545.82 1809.41 1542.27 Q1811.24 1538.71 1811.24 1531.6 Q1811.24 1524.47 1809.41 1520.93 Q1807.61 1517.37 1803.97 1517.37 M1803.97 1513.66 Q1809.78 1513.66 1812.84 1518.27 Q1815.92 1522.85 1815.92 1531.6 Q1815.92 1540.33 1812.84 1544.94 Q1809.78 1549.52 1803.97 1549.52 Q1798.16 1549.52 1795.09 1544.94 Q1792.03 1540.33 1792.03 1531.6 Q1792.03 1522.85 1795.09 1518.27 Q1798.16 1513.66 1803.97 1513.66 Z" fill="#000000" fill-rule="nonzero" fill-opacity="1" /><path clip-path="url(#clip780)" d="M2237.2 1544.91 L2244.84 1544.91 L2244.84 1518.55 L2236.53 1520.21 L2236.53 1515.95 L2244.79 1514.29 L2249.47 1514.29 L2249.47 1544.91 L2257.11 1544.91 L2257.11 1548.85 L2237.2 1548.85 L2237.2 1544.91 Z" fill="#000000" fill-rule="nonzero" fill-opacity="1" /><path clip-path="url(#clip780)" d="M2276.55 1517.37 Q2272.94 1517.37 2271.11 1520.93 Q2269.31 1524.47 2269.31 1531.6 Q2269.31 1538.71 2271.11 1542.27 Q2272.94 1545.82 2276.55 1545.82 Q2280.19 1545.82 2281.99 1542.27 Q2283.82 1538.71 2283.82 1531.6 Q2283.82 1524.47 2281.99 1520.93 Q2280.19 1517.37 2276.55 1517.37 M2276.55 1513.66 Q2282.36 1513.66 2285.42 1518.27 Q2288.5 1522.85 2288.5 1531.6 Q2288.5 1540.33 2285.42 1544.94 Q2282.36 1549.52 2276.55 1549.52 Q2270.74 1549.52 2267.66 1544.94 Q2264.61 1540.33 2264.61 1531.6 Q2264.61 1522.85 2267.66 1518.27 Q2270.74 1513.66 2276.55 1513.66 Z" fill="#000000" fill-rule="nonzero" fill-opacity="1" /><path clip-path="url(#clip780)" d="M2306.71 1517.37 Q2303.1 1517.37 2301.27 1520.93 Q2299.47 1524.47 2299.47 1531.6 Q2299.47 1538.71 2301.27 1542.27 Q2303.1 1545.82 2306.71 1545.82 Q2310.35 1545.82 2312.15 1542.27 Q2313.98 1538.71 2313.98 1531.6 Q2313.98 1524.47 2312.15 1520.93 Q2310.35 1517.37 2306.71 1517.37 M2306.71 1513.66 Q2312.52 1513.66 2315.58 1518.27 Q2318.66 1522.85 2318.66 1531.6 Q2318.66 1540.33 2315.58 1544.94 Q2312.52 1549.52 2306.71 1549.52 Q2300.9 1549.52 2297.82 1544.94 Q2294.77 1540.33 2294.77 1531.6 Q2294.77 1522.85 2297.82 1518.27 Q2300.9 1513.66 2306.71 1513.66 Z" fill="#000000" fill-rule="nonzero" fill-opacity="1" /><path clip-path="url(#clip780)" d="M2336.88 1517.37 Q2333.26 1517.37 2331.44 1520.93 Q2329.63 1524.47 2329.63 1531.6 Q2329.63 1538.71 2331.44 1542.27 Q2333.26 1545.82 2336.88 1545.82 Q2340.51 1545.82 2342.32 1542.27 Q2344.14 1538.71 2344.14 1531.6 Q2344.14 1524.47 2342.32 1520.93 Q2340.51 1517.37 2336.88 1517.37 M2336.88 1513.66 Q2342.69 1513.66 2345.74 1518.27 Q2348.82 1522.85 2348.82 1531.6 Q2348.82 1540.33 2345.74 1544.94 Q2342.69 1549.52 2336.88 1549.52 Q2331.07 1549.52 2327.99 1544.94 Q2324.93 1540.33 2324.93 1531.6 Q2324.93 1522.85 2327.99 1518.27 Q2331.07 1513.66 2336.88 1513.66 Z" fill="#000000" fill-rule="nonzero" fill-opacity="1" /><polyline clip-path="url(#clip782)" style="stroke:#000000; stroke-linecap:round; stroke-linejoin:round; stroke-width:2; stroke-opacity:0.1; fill:none" points="156.598,1445.72 2352.76,1445.72 "/>
<polyline clip-path="url(#clip782)" style="stroke:#000000; stroke-linecap:round; stroke-linejoin:round; stroke-width:2; stroke-opacity:0.1; fill:none" points="156.598,1101.98 2352.76,1101.98 "/>
<polyline clip-path="url(#clip782)" style="stroke:#000000; stroke-linecap:round; stroke-linejoin:round; stroke-width:2; stroke-opacity:0.1; fill:none" points="156.598,758.253 2352.76,758.253 "/>
<polyline clip-path="url(#clip782)" style="stroke:#000000; stroke-linecap:round; stroke-linejoin:round; stroke-width:2; stroke-opacity:0.1; fill:none" points="156.598,414.521 2352.76,414.521 "/>
<polyline clip-path="url(#clip782)" style="stroke:#000000; stroke-linecap:round; stroke-linejoin:round; stroke-width:2; stroke-opacity:0.1; fill:none" points="156.598,70.7897 2352.76,70.7897 "/>
<polyline clip-path="url(#clip780)" style="stroke:#000000; stroke-linecap:round; stroke-linejoin:round; stroke-width:4; stroke-opacity:1; fill:none" points="156.598,1486.45 156.598,47.2441 "/>
<polyline clip-path="url(#clip780)" style="stroke:#000000; stroke-linecap:round; stroke-linejoin:round; stroke-width:4; stroke-opacity:1; fill:none" points="156.598,1445.72 175.496,1445.72 "/>
<polyline clip-path="url(#clip780)" style="stroke:#000000; stroke-linecap:round; stroke-linejoin:round; stroke-width:4; stroke-opacity:1; fill:none" points="156.598,1101.98 175.496,1101.98 "/>
<polyline clip-path="url(#clip780)" style="stroke:#000000; stroke-linecap:round; stroke-linejoin:round; stroke-width:4; stroke-opacity:1; fill:none" points="156.598,758.253 175.496,758.253 "/>
<polyline clip-path="url(#clip780)" style="stroke:#000000; stroke-linecap:round; stroke-linejoin:round; stroke-width:4; stroke-opacity:1; fill:none" points="156.598,414.521 175.496,414.521 "/>
<polyline clip-path="url(#clip780)" style="stroke:#000000; stroke-linecap:round; stroke-linejoin:round; stroke-width:4; stroke-opacity:1; fill:none" points="156.598,70.7897 175.496,70.7897 "/>
<path clip-path="url(#clip780)" d="M63.4226 1431.51 Q59.8115 1431.51 57.9828 1435.08 Q56.1773 1438.62 56.1773 1445.75 Q56.1773 1452.86 57.9828 1456.42 Q59.8115 1459.96 63.4226 1459.96 Q67.0569 1459.96 68.8624 1456.42 Q70.6911 1452.86 70.6911 1445.75 Q70.6911 1438.62 68.8624 1435.08 Q67.0569 1431.51 63.4226 1431.51 M63.4226 1427.81 Q69.2328 1427.81 72.2883 1432.42 Q75.367 1437 75.367 1445.75 Q75.367 1454.48 72.2883 1459.08 Q69.2328 1463.67 63.4226 1463.67 Q57.6125 1463.67 54.5338 1459.08 Q51.4782 1454.48 51.4782 1445.75 Q51.4782 1437 54.5338 1432.42 Q57.6125 1427.81 63.4226 1427.81 Z" fill="#000000" fill-rule="nonzero" fill-opacity="1" /><path clip-path="url(#clip780)" d="M83.5845 1457.12 L88.4688 1457.12 L88.4688 1463 L83.5845 1463 L83.5845 1457.12 Z" fill="#000000" fill-rule="nonzero" fill-opacity="1" /><path clip-path="url(#clip780)" d="M108.654 1431.51 Q105.043 1431.51 103.214 1435.08 Q101.409 1438.62 101.409 1445.75 Q101.409 1452.86 103.214 1456.42 Q105.043 1459.96 108.654 1459.96 Q112.288 1459.96 114.094 1456.42 Q115.922 1452.86 115.922 1445.75 Q115.922 1438.62 114.094 1435.08 Q112.288 1431.51 108.654 1431.51 M108.654 1427.81 Q114.464 1427.81 117.52 1432.42 Q120.598 1437 120.598 1445.75 Q120.598 1454.48 117.52 1459.08 Q114.464 1463.67 108.654 1463.67 Q102.844 1463.67 99.765 1459.08 Q96.7095 1454.48 96.7095 1445.75 Q96.7095 1437 99.765 1432.42 Q102.844 1427.81 108.654 1427.81 Z" fill="#000000" fill-rule="nonzero" fill-opacity="1" /><path clip-path="url(#clip780)" d="M64.6495 1087.78 Q61.0384 1087.78 59.2097 1091.35 Q57.4041 1094.89 57.4041 1102.02 Q57.4041 1109.13 59.2097 1112.69 Q61.0384 1116.23 64.6495 1116.23 Q68.2837 1116.23 70.0892 1112.69 Q71.9179 1109.13 71.9179 1102.02 Q71.9179 1094.89 70.0892 1091.35 Q68.2837 1087.78 64.6495 1087.78 M64.6495 1084.08 Q70.4596 1084.08 73.5152 1088.69 Q76.5938 1093.27 76.5938 1102.02 Q76.5938 1110.75 73.5152 1115.35 Q70.4596 1119.94 64.6495 1119.94 Q58.8393 1119.94 55.7606 1115.35 Q52.7051 1110.75 52.7051 1102.02 Q52.7051 1093.27 55.7606 1088.69 Q58.8393 1084.08 64.6495 1084.08 Z" fill="#000000" fill-rule="nonzero" fill-opacity="1" /><path clip-path="url(#clip780)" d="M84.8114 1113.38 L89.6956 1113.38 L89.6956 1119.26 L84.8114 1119.26 L84.8114 1113.38 Z" fill="#000000" fill-rule="nonzero" fill-opacity="1" /><path clip-path="url(#clip780)" d="M100.691 1115.33 L108.33 1115.33 L108.33 1088.96 L100.02 1090.63 L100.02 1086.37 L108.283 1084.7 L112.959 1084.7 L112.959 1115.33 L120.598 1115.33 L120.598 1119.26 L100.691 1119.26 L100.691 1115.33 Z" fill="#000000" fill-rule="nonzero" fill-opacity="1" /><path clip-path="url(#clip780)" d="M65.0198 744.051 Q61.4087 744.051 59.58 747.616 Q57.7745 751.158 57.7745 758.287 Q57.7745 765.394 59.58 768.959 Q61.4087 772.5 65.0198 772.5 Q68.6541 772.5 70.4596 768.959 Q72.2883 765.394 72.2883 758.287 Q72.2883 751.158 70.4596 747.616 Q68.6541 744.051 65.0198 744.051 M65.0198 740.348 Q70.83 740.348 73.8855 744.954 Q76.9642 749.537 76.9642 758.287 Q76.9642 767.014 73.8855 771.621 Q70.83 776.204 65.0198 776.204 Q59.2097 776.204 56.131 771.621 Q53.0754 767.014 53.0754 758.287 Q53.0754 749.537 56.131 744.954 Q59.2097 740.348 65.0198 740.348 Z" fill="#000000" fill-rule="nonzero" fill-opacity="1" /><path clip-path="url(#clip780)" d="M85.1818 769.653 L90.066 769.653 L90.066 775.533 L85.1818 775.533 L85.1818 769.653 Z" fill="#000000" fill-rule="nonzero" fill-opacity="1" /><path clip-path="url(#clip780)" d="M104.279 771.598 L120.598 771.598 L120.598 775.533 L98.6539 775.533 L98.6539 771.598 Q101.316 768.843 105.899 764.213 Q110.506 759.561 111.686 758.218 Q113.932 755.695 114.811 753.959 Q115.714 752.199 115.714 750.51 Q115.714 747.755 113.77 746.019 Q111.848 744.283 108.746 744.283 Q106.547 744.283 104.094 745.047 Q101.663 745.811 98.8854 747.362 L98.8854 742.639 Q101.709 741.505 104.163 740.926 Q106.617 740.348 108.654 740.348 Q114.024 740.348 117.219 743.033 Q120.413 745.718 120.413 750.209 Q120.413 752.338 119.603 754.26 Q118.816 756.158 116.709 758.75 Q116.131 759.422 113.029 762.639 Q109.927 765.834 104.279 771.598 Z" fill="#000000" fill-rule="nonzero" fill-opacity="1" /><path clip-path="url(#clip780)" d="M64.0708 400.32 Q60.4597 400.32 58.631 403.885 Q56.8254 407.426 56.8254 414.556 Q56.8254 421.662 58.631 425.227 Q60.4597 428.769 64.0708 428.769 Q67.705 428.769 69.5105 425.227 Q71.3392 421.662 71.3392 414.556 Q71.3392 407.426 69.5105 403.885 Q67.705 400.32 64.0708 400.32 M64.0708 396.616 Q69.8809 396.616 72.9365 401.223 Q76.0151 405.806 76.0151 414.556 Q76.0151 423.283 72.9365 427.889 Q69.8809 432.472 64.0708 432.472 Q58.2606 432.472 55.1819 427.889 Q52.1264 423.283 52.1264 414.556 Q52.1264 405.806 55.1819 401.223 Q58.2606 396.616 64.0708 396.616 Z" fill="#000000" fill-rule="nonzero" fill-opacity="1" /><path clip-path="url(#clip780)" d="M84.2327 425.922 L89.1169 425.922 L89.1169 431.801 L84.2327 431.801 L84.2327 425.922 Z" fill="#000000" fill-rule="nonzero" fill-opacity="1" /><path clip-path="url(#clip780)" d="M113.469 413.167 Q116.825 413.885 118.7 416.153 Q120.598 418.422 120.598 421.755 Q120.598 426.871 117.08 429.672 Q113.561 432.472 107.08 432.472 Q104.904 432.472 102.589 432.033 Q100.297 431.616 97.8437 430.76 L97.8437 426.246 Q99.7882 427.38 102.103 427.959 Q104.418 428.537 106.941 428.537 Q111.339 428.537 113.631 426.801 Q115.945 425.065 115.945 421.755 Q115.945 418.699 113.793 416.986 Q111.663 415.25 107.844 415.25 L103.816 415.25 L103.816 411.408 L108.029 411.408 Q111.478 411.408 113.307 410.042 Q115.135 408.653 115.135 406.061 Q115.135 403.399 113.237 401.987 Q111.362 400.551 107.844 400.551 Q105.922 400.551 103.723 400.968 Q101.524 401.385 98.8854 402.264 L98.8854 398.098 Q101.547 397.357 103.862 396.987 Q106.2 396.616 108.26 396.616 Q113.584 396.616 116.686 399.047 Q119.788 401.454 119.788 405.574 Q119.788 408.445 118.145 410.436 Q116.501 412.403 113.469 413.167 Z" fill="#000000" fill-rule="nonzero" fill-opacity="1" /><path clip-path="url(#clip780)" d="M62.9365 56.5884 Q59.3254 56.5884 57.4967 60.1532 Q55.6912 63.6948 55.6912 70.8244 Q55.6912 77.9309 57.4967 81.4957 Q59.3254 85.0373 62.9365 85.0373 Q66.5707 85.0373 68.3763 81.4957 Q70.205 77.9309 70.205 70.8244 Q70.205 63.6948 68.3763 60.1532 Q66.5707 56.5884 62.9365 56.5884 M62.9365 52.8847 Q68.7467 52.8847 71.8022 57.4912 Q74.8809 62.0745 74.8809 70.8244 Q74.8809 79.5512 71.8022 84.1577 Q68.7467 88.741 62.9365 88.741 Q57.1264 88.741 54.0477 84.1577 Q50.9921 79.5512 50.9921 70.8244 Q50.9921 62.0745 54.0477 57.4912 Q57.1264 52.8847 62.9365 52.8847 Z" fill="#000000" fill-rule="nonzero" fill-opacity="1" /><path clip-path="url(#clip780)" d="M83.0984 82.1901 L87.9827 82.1901 L87.9827 88.0697 L83.0984 88.0697 L83.0984 82.1901 Z" fill="#000000" fill-rule="nonzero" fill-opacity="1" /><path clip-path="url(#clip780)" d="M111.015 57.5838 L99.2095 76.0327 L111.015 76.0327 L111.015 57.5838 M109.788 53.5097 L115.668 53.5097 L115.668 76.0327 L120.598 76.0327 L120.598 79.9216 L115.668 79.9216 L115.668 88.0697 L111.015 88.0697 L111.015 79.9216 L95.4132 79.9216 L95.4132 75.4077 L109.788 53.5097 Z" fill="#000000" fill-rule="nonzero" fill-opacity="1" /><polyline clip-path="url(#clip782)" style="stroke:#009af9; stroke-linecap:round; stroke-linejoin:round; stroke-width:4; stroke-opacity:1; fill:none" points="218.754,87.9763 220.828,448.894 222.901,448.894 224.975,466.081 227.049,500.454 229.123,534.827 231.197,826.999 233.271,741.066 235.345,706.693 237.419,792.626 239.493,895.745 241.567,895.745 243.641,964.492 245.715,1050.42 247.789,1033.24 249.862,998.865 251.936,1067.61 254.01,1119.17 256.084,1222.29 258.158,1101.98 260.232,1170.73 262.306,1205.1 264.38,1308.22 266.454,1325.41 268.528,1342.6 270.602,1411.34 272.676,1342.6 274.75,1342.6 276.823,1376.97 278.897,1325.41 280.971,1342.6 283.045,1394.16 285.119,1411.34 287.193,1359.78 289.267,1325.41 291.341,1411.34 293.415,1411.34 295.489,1376.97 297.563,1411.34 299.637,1428.53 301.71,1428.53 303.784,1411.34 305.858,1411.34 307.932,1428.53 310.006,1445.72 312.08,1428.53 314.154,1376.97 316.228,1411.34 318.302,1394.16 320.376,1428.53 322.45,1428.53 324.524,1445.72 326.598,1445.72 328.671,1428.53 330.745,1411.34 332.819,1445.72 334.893,1411.34 336.967,1428.53 339.041,1411.34 341.115,1428.53 343.189,1428.53 345.263,1445.72 347.337,1411.34 349.411,1445.72 351.485,1394.16 353.558,1428.53 355.632,1445.72 357.706,1445.72 359.78,1445.72 361.854,1428.53 363.928,1445.72 366.002,1428.53 368.076,1445.72 370.15,1445.72 372.224,1445.72 374.298,1445.72 376.372,1428.53 378.446,1445.72 380.519,1445.72 382.593,1428.53 384.667,1428.53 386.741,1428.53 388.815,1445.72 390.889,1445.72 392.963,1394.16 395.037,1428.53 397.111,1428.53 399.185,1445.72 401.259,1428.53 403.333,1428.53 405.407,1428.53 407.48,1445.72 409.554,1411.34 411.628,1428.53 413.702,1445.72 415.776,1445.72 417.85,1445.72 419.924,1445.72 421.998,1428.53 424.072,1445.72 426.146,1445.72 428.22,1445.72 430.294,1445.72 432.367,1445.72 434.441,1428.53 436.515,1445.72 438.589,1445.72 440.663,1445.72 442.737,1428.53 444.811,1445.72 446.885,1445.72 448.959,1445.72 451.033,1428.53 453.107,1445.72 455.181,1445.72 457.255,1445.72 459.328,1428.53 461.402,1445.72 463.476,1428.53 465.55,1445.72 467.624,1445.72 469.698,1445.72 471.772,1445.72 473.846,1411.34 475.92,1445.72 477.994,1428.53 480.068,1445.72 482.142,1445.72 484.216,1445.72 486.289,1445.72 488.363,1445.72 490.437,1445.72 492.511,1445.72 494.585,1445.72 496.659,1445.72 498.733,1445.72 500.807,1428.53 502.881,1445.72 504.955,1428.53 507.029,1445.72 509.103,1445.72 511.176,1445.72 513.25,1445.72 515.324,1445.72 517.398,1445.72 519.472,1445.72 521.546,1445.72 523.62,1445.72 525.694,1411.34 527.768,1445.72 529.842,1445.72 531.916,1445.72 533.99,1445.72 536.064,1411.34 538.137,1445.72 540.211,1445.72 542.285,1411.34 544.359,1445.72 546.433,1445.72 548.507,1445.72 550.581,1445.72 552.655,1445.72 554.729,1445.72 556.803,1445.72 558.877,1445.72 560.951,1445.72 563.024,1445.72 565.098,1445.72 567.172,1445.72 569.246,1428.53 571.32,1428.53 573.394,1428.53 575.468,1445.72 577.542,1445.72 579.616,1445.72 581.69,1445.72 583.764,1428.53 585.838,1445.72 587.912,1445.72 589.985,1445.72 592.059,1445.72 594.133,1445.72 596.207,1445.72 598.281,1445.72 600.355,1445.72 602.429,1428.53 604.503,1428.53 606.577,1445.72 608.651,1445.72 610.725,1445.72 612.799,1445.72 614.873,1445.72 616.946,1445.72 619.02,1445.72 621.094,1445.72 623.168,1445.72 625.242,1445.72 627.316,1445.72 629.39,1428.53 631.464,1428.53 633.538,1445.72 635.612,1445.72 637.686,1445.72 639.76,1445.72 641.833,1445.72 643.907,1445.72 645.981,1445.72 648.055,1428.53 650.129,1445.72 652.203,1445.72 654.277,1428.53 656.351,1445.72 658.425,1445.72 660.499,1428.53 662.573,1445.72 664.647,1445.72 666.721,1445.72 668.794,1428.53 670.868,1445.72 672.942,1445.72 675.016,1445.72 677.09,1445.72 679.164,1445.72 681.238,1445.72 683.312,1445.72 685.386,1445.72 687.46,1445.72 689.534,1445.72 691.608,1445.72 693.681,1445.72 695.755,1445.72 697.829,1445.72 699.903,1445.72 701.977,1445.72 704.051,1445.72 706.125,1445.72 708.199,1445.72 710.273,1445.72 712.347,1445.72 714.421,1445.72 716.495,1445.72 718.569,1428.53 720.642,1445.72 722.716,1445.72 724.79,1428.53 726.864,1428.53 728.938,1445.72 731.012,1445.72 733.086,1445.72 735.16,1428.53 737.234,1445.72 739.308,1445.72 741.382,1445.72 743.456,1428.53 745.53,1445.72 747.603,1445.72 749.677,1445.72 751.751,1445.72 753.825,1445.72 755.899,1428.53 757.973,1445.72 760.047,1445.72 762.121,1428.53 764.195,1445.72 766.269,1445.72 768.343,1445.72 770.417,1445.72 772.49,1445.72 774.564,1445.72 776.638,1445.72 778.712,1445.72 780.786,1445.72 782.86,1428.53 784.934,1428.53 787.008,1445.72 789.082,1445.72 791.156,1445.72 793.23,1445.72 795.304,1445.72 797.378,1445.72 799.451,1445.72 801.525,1445.72 803.599,1445.72 805.673,1445.72 807.747,1445.72 809.821,1445.72 811.895,1445.72 813.969,1445.72 816.043,1445.72 818.117,1445.72 820.191,1445.72 822.265,1445.72 824.339,1445.72 826.412,1445.72 828.486,1445.72 830.56,1445.72 832.634,1445.72 834.708,1445.72 836.782,1445.72 838.856,1445.72 840.93,1445.72 843.004,1445.72 845.078,1445.72 847.152,1445.72 849.226,1445.72 851.299,1445.72 853.373,1445.72 855.447,1445.72 857.521,1445.72 859.595,1445.72 861.669,1428.53 863.743,1445.72 865.817,1445.72 867.891,1445.72 869.965,1445.72 872.039,1445.72 874.113,1445.72 876.187,1445.72 878.26,1445.72 880.334,1445.72 882.408,1445.72 884.482,1445.72 886.556,1445.72 888.63,1445.72 890.704,1445.72 892.778,1445.72 894.852,1445.72 896.926,1445.72 899,1428.53 901.074,1445.72 903.147,1428.53 905.221,1445.72 907.295,1428.53 909.369,1428.53 911.443,1428.53 913.517,1445.72 915.591,1428.53 917.665,1445.72 919.739,1445.72 921.813,1445.72 923.887,1445.72 925.961,1445.72 928.035,1445.72 930.108,1445.72 932.182,1445.72 934.256,1445.72 936.33,1445.72 938.404,1445.72 940.478,1445.72 942.552,1445.72 944.626,1428.53 946.7,1445.72 948.774,1445.72 950.848,1445.72 952.922,1445.72 954.996,1445.72 957.069,1445.72 959.143,1445.72 961.217,1445.72 963.291,1445.72 965.365,1445.72 967.439,1428.53 969.513,1445.72 971.587,1445.72 973.661,1445.72 975.735,1445.72 977.809,1445.72 979.883,1445.72 981.956,1445.72 984.03,1445.72 986.104,1445.72 988.178,1445.72 990.252,1445.72 992.326,1445.72 994.4,1445.72 996.474,1445.72 998.548,1445.72 1000.62,1428.53 1002.7,1445.72 1004.77,1445.72 1006.84,1445.72 1008.92,1445.72 1010.99,1445.72 1013.07,1445.72 1015.14,1445.72 1017.21,1445.72 1019.29,1411.34 1021.36,1445.72 1023.43,1445.72 1025.51,1445.72 1027.58,1428.53 1029.66,1445.72 1031.73,1445.72 1033.8,1445.72 1035.88,1445.72 1037.95,1445.72 1040.03,1445.72 1042.1,1445.72 1044.17,1445.72 1046.25,1428.53 1048.32,1428.53 1050.4,1445.72 1052.47,1445.72 1054.54,1445.72 1056.62,1445.72 1058.69,1445.72 1060.77,1445.72 1062.84,1445.72 1064.91,1445.72 1066.99,1445.72 1069.06,1445.72 1071.14,1445.72 1073.21,1445.72 1075.28,1445.72 1077.36,1445.72 1079.43,1445.72 1081.5,1445.72 1083.58,1445.72 1085.65,1445.72 1087.73,1445.72 1089.8,1445.72 1091.87,1428.53 1093.95,1445.72 1096.02,1445.72 1098.1,1445.72 1100.17,1445.72 1102.24,1445.72 1104.32,1428.53 1106.39,1445.72 1108.47,1445.72 1110.54,1428.53 1112.61,1445.72 1114.69,1445.72 1116.76,1445.72 1118.84,1445.72 1120.91,1445.72 1122.98,1445.72 1125.06,1428.53 1127.13,1445.72 1129.2,1445.72 1131.28,1445.72 1133.35,1445.72 1135.43,1445.72 1137.5,1445.72 1139.57,1445.72 1141.65,1445.72 1143.72,1445.72 1145.8,1445.72 1147.87,1445.72 1149.94,1445.72 1152.02,1445.72 1154.09,1445.72 1156.17,1445.72 1158.24,1445.72 1160.31,1445.72 1162.39,1445.72 1164.46,1445.72 1166.54,1445.72 1168.61,1445.72 1170.68,1428.53 1172.76,1445.72 1174.83,1445.72 1176.91,1445.72 1178.98,1445.72 1181.05,1445.72 1183.13,1445.72 1185.2,1445.72 1187.27,1445.72 1189.35,1445.72 1191.42,1445.72 1193.5,1445.72 1195.57,1445.72 1197.64,1445.72 1199.72,1445.72 1201.79,1445.72 1203.87,1445.72 1205.94,1445.72 1208.01,1445.72 1210.09,1445.72 1212.16,1445.72 1214.24,1445.72 1216.31,1445.72 1218.38,1445.72 1220.46,1445.72 1222.53,1445.72 1224.61,1445.72 1226.68,1445.72 1228.75,1445.72 1230.83,1445.72 1232.9,1445.72 1234.97,1445.72 1237.05,1445.72 1239.12,1445.72 1241.2,1428.53 1243.27,1445.72 1245.34,1445.72 1247.42,1445.72 1249.49,1445.72 1251.57,1445.72 1253.64,1445.72 1255.71,1445.72 1257.79,1445.72 1259.86,1445.72 1261.94,1445.72 1264.01,1445.72 1266.08,1445.72 1268.16,1445.72 1270.23,1445.72 1272.31,1445.72 1274.38,1445.72 1276.45,1445.72 1278.53,1428.53 1280.6,1445.72 1282.68,1445.72 1284.75,1445.72 1286.82,1445.72 1288.9,1445.72 1290.97,1445.72 1293.04,1445.72 1295.12,1445.72 1297.19,1445.72 1299.27,1445.72 1301.34,1445.72 1303.41,1445.72 1305.49,1445.72 1307.56,1445.72 1309.64,1445.72 1311.71,1445.72 1313.78,1428.53 1315.86,1445.72 1317.93,1445.72 1320.01,1445.72 1322.08,1445.72 1324.15,1445.72 1326.23,1445.72 1328.3,1445.72 1330.38,1445.72 1332.45,1445.72 1334.52,1445.72 1336.6,1445.72 1338.67,1445.72 1340.74,1445.72 1342.82,1445.72 1344.89,1445.72 1346.97,1445.72 1349.04,1445.72 1351.11,1445.72 1353.19,1445.72 1355.26,1445.72 1357.34,1428.53 1359.41,1445.72 1361.48,1445.72 1363.56,1445.72 1365.63,1445.72 1367.71,1445.72 1369.78,1445.72 1371.85,1445.72 1373.93,1445.72 1376,1445.72 1378.08,1445.72 1380.15,1445.72 1382.22,1445.72 1384.3,1445.72 1386.37,1445.72 1388.44,1445.72 1390.52,1445.72 1392.59,1445.72 1394.67,1445.72 1396.74,1445.72 1398.81,1445.72 1400.89,1445.72 1402.96,1445.72 1405.04,1445.72 1407.11,1445.72 1409.18,1445.72 1411.26,1445.72 1413.33,1445.72 1415.41,1445.72 1417.48,1445.72 1419.55,1445.72 1421.63,1445.72 1423.7,1445.72 1425.78,1445.72 1427.85,1445.72 1429.92,1445.72 1432,1445.72 1434.07,1445.72 1436.15,1445.72 1438.22,1445.72 1440.29,1445.72 1442.37,1445.72 1444.44,1445.72 1446.51,1445.72 1448.59,1445.72 1450.66,1445.72 1452.74,1445.72 1454.81,1428.53 1456.88,1445.72 1458.96,1445.72 1461.03,1445.72 1463.11,1445.72 1465.18,1445.72 1467.25,1445.72 1469.33,1445.72 1471.4,1445.72 1473.48,1445.72 1475.55,1445.72 1477.62,1445.72 1479.7,1445.72 1481.77,1445.72 1483.85,1428.53 1485.92,1445.72 1487.99,1445.72 1490.07,1445.72 1492.14,1445.72 1494.21,1445.72 1496.29,1445.72 1498.36,1445.72 1500.44,1445.72 1502.51,1445.72 1504.58,1445.72 1506.66,1445.72 1508.73,1445.72 1510.81,1445.72 1512.88,1445.72 1514.95,1445.72 1517.03,1445.72 1519.1,1445.72 1521.18,1445.72 1523.25,1445.72 1525.32,1445.72 1527.4,1445.72 1529.47,1445.72 1531.55,1445.72 1533.62,1445.72 1535.69,1445.72 1537.77,1428.53 1539.84,1445.72 1541.92,1445.72 1543.99,1445.72 1546.06,1445.72 1548.14,1445.72 1550.21,1445.72 1552.28,1445.72 1554.36,1445.72 1556.43,1445.72 1558.51,1445.72 1560.58,1445.72 1562.65,1445.72 1564.73,1445.72 1566.8,1428.53 1568.88,1445.72 1570.95,1445.72 1573.02,1445.72 1575.1,1445.72 1577.17,1445.72 1579.25,1445.72 1581.32,1445.72 1583.39,1428.53 1585.47,1445.72 1587.54,1445.72 1589.62,1445.72 1591.69,1445.72 1593.76,1445.72 1595.84,1445.72 1597.91,1445.72 1599.98,1445.72 1602.06,1445.72 1604.13,1428.53 1606.21,1445.72 1608.28,1445.72 1610.35,1445.72 1612.43,1445.72 1614.5,1445.72 1616.58,1445.72 1618.65,1445.72 1620.72,1445.72 1622.8,1445.72 1624.87,1428.53 1626.95,1445.72 1629.02,1445.72 1631.09,1445.72 1633.17,1445.72 1635.24,1428.53 1637.32,1445.72 1639.39,1445.72 1641.46,1445.72 1643.54,1428.53 1645.61,1445.72 1647.69,1445.72 1649.76,1445.72 1651.83,1445.72 1653.91,1445.72 1655.98,1445.72 1658.05,1445.72 1660.13,1445.72 1662.2,1445.72 1664.28,1445.72 1666.35,1445.72 1668.42,1445.72 1670.5,1445.72 1672.57,1445.72 1674.65,1445.72 1676.72,1445.72 1678.79,1445.72 1680.87,1445.72 1682.94,1428.53 1685.02,1445.72 1687.09,1445.72 1689.16,1445.72 1691.24,1445.72 1693.31,1445.72 1695.39,1445.72 1697.46,1445.72 1699.53,1445.72 1701.61,1445.72 1703.68,1445.72 1705.75,1445.72 1707.83,1445.72 1709.9,1445.72 1711.98,1445.72 1714.05,1445.72 1716.12,1445.72 1718.2,1445.72 1720.27,1445.72 1722.35,1445.72 1724.42,1445.72 1726.49,1445.72 1728.57,1445.72 1730.64,1445.72 1732.72,1445.72 1734.79,1445.72 1736.86,1445.72 1738.94,1445.72 1741.01,1445.72 1743.09,1445.72 1745.16,1445.72 1747.23,1445.72 1749.31,1445.72 1751.38,1445.72 1753.46,1445.72 1755.53,1445.72 1757.6,1428.53 1759.68,1445.72 1761.75,1445.72 1763.82,1445.72 1765.9,1445.72 1767.97,1445.72 1770.05,1445.72 1772.12,1445.72 1774.19,1445.72 1776.27,1445.72 1778.34,1445.72 1780.42,1445.72 1782.49,1445.72 1784.56,1445.72 1786.64,1445.72 1788.71,1445.72 1790.79,1445.72 1792.86,1445.72 1794.93,1445.72 1797.01,1445.72 1799.08,1445.72 1801.16,1445.72 1803.23,1445.72 1805.3,1445.72 1807.38,1445.72 1809.45,1445.72 1811.52,1445.72 1813.6,1445.72 1815.67,1445.72 1817.75,1445.72 1819.82,1445.72 1821.89,1445.72 1823.97,1445.72 1826.04,1445.72 1828.12,1445.72 1830.19,1445.72 1832.26,1445.72 1834.34,1445.72 1836.41,1445.72 1838.49,1445.72 1840.56,1445.72 1842.63,1445.72 1844.71,1445.72 1846.78,1445.72 1848.86,1445.72 1850.93,1445.72 1853,1428.53 1855.08,1445.72 1857.15,1445.72 1859.22,1445.72 1861.3,1445.72 1863.37,1445.72 1865.45,1445.72 1867.52,1445.72 1869.59,1445.72 1871.67,1445.72 1873.74,1445.72 1875.82,1445.72 1877.89,1445.72 1879.96,1445.72 1882.04,1445.72 1884.11,1445.72 1886.19,1445.72 1888.26,1445.72 1890.33,1445.72 1892.41,1445.72 1894.48,1445.72 1896.56,1445.72 1898.63,1445.72 1900.7,1445.72 1902.78,1428.53 1904.85,1445.72 1906.93,1445.72 1909,1445.72 1911.07,1445.72 1913.15,1445.72 1915.22,1445.72 1917.29,1428.53 1919.37,1445.72 1921.44,1445.72 1923.52,1445.72 1925.59,1445.72 1927.66,1445.72 1929.74,1445.72 1931.81,1428.53 1933.89,1445.72 1935.96,1445.72 1938.03,1445.72 1940.11,1445.72 1942.18,1445.72 1944.26,1445.72 1946.33,1445.72 1948.4,1445.72 1950.48,1445.72 1952.55,1445.72 1954.63,1445.72 1956.7,1445.72 1958.77,1445.72 1960.85,1445.72 1962.92,1445.72 1964.99,1445.72 1967.07,1445.72 1969.14,1445.72 1971.22,1445.72 1973.29,1445.72 1975.36,1445.72 1977.44,1445.72 1979.51,1445.72 1981.59,1445.72 1983.66,1445.72 1985.73,1445.72 1987.81,1445.72 1989.88,1445.72 1991.96,1445.72 1994.03,1445.72 1996.1,1445.72 1998.18,1445.72 2000.25,1445.72 2002.33,1445.72 2004.4,1445.72 2006.47,1445.72 2008.55,1428.53 2010.62,1445.72 2012.7,1445.72 2014.77,1445.72 2016.84,1445.72 2018.92,1445.72 2020.99,1445.72 2023.06,1445.72 2025.14,1445.72 2027.21,1445.72 2029.29,1445.72 2031.36,1445.72 2033.43,1445.72 2035.51,1445.72 2037.58,1428.53 2039.66,1445.72 2041.73,1445.72 2043.8,1445.72 2045.88,1445.72 2047.95,1445.72 2050.03,1445.72 2052.1,1445.72 2054.17,1445.72 2056.25,1445.72 2058.32,1445.72 2060.4,1445.72 2062.47,1445.72 2064.54,1445.72 2066.62,1445.72 2068.69,1445.72 2070.76,1445.72 2072.84,1445.72 2074.91,1445.72 2076.99,1445.72 2079.06,1445.72 2081.13,1445.72 2083.21,1445.72 2085.28,1445.72 2087.36,1445.72 2089.43,1428.53 2091.5,1445.72 2093.58,1445.72 2095.65,1445.72 2097.73,1445.72 2099.8,1445.72 2101.87,1445.72 2103.95,1445.72 2106.02,1445.72 2108.1,1445.72 2110.17,1445.72 2112.24,1445.72 2114.32,1445.72 2116.39,1445.72 2118.47,1445.72 2120.54,1445.72 2122.61,1445.72 2124.69,1445.72 2126.76,1445.72 2128.83,1445.72 2130.91,1445.72 2132.98,1445.72 2135.06,1445.72 2137.13,1445.72 2139.2,1445.72 2141.28,1445.72 2143.35,1445.72 2145.43,1445.72 2147.5,1445.72 2149.57,1445.72 2151.65,1445.72 2153.72,1445.72 2155.8,1445.72 2157.87,1445.72 2159.94,1445.72 2162.02,1445.72 2164.09,1445.72 2166.17,1445.72 2168.24,1445.72 2170.31,1445.72 2172.39,1445.72 2174.46,1445.72 2176.53,1445.72 2178.61,1445.72 2180.68,1445.72 2182.76,1445.72 2184.83,1445.72 2186.9,1445.72 2188.98,1445.72 2191.05,1445.72 2193.13,1445.72 2195.2,1445.72 2197.27,1445.72 2199.35,1445.72 2201.42,1445.72 2203.5,1445.72 2205.57,1445.72 2207.64,1445.72 2209.72,1445.72 2211.79,1445.72 2213.87,1445.72 2215.94,1445.72 2218.01,1445.72 2220.09,1445.72 2222.16,1445.72 2224.24,1428.53 2226.31,1445.72 2228.38,1428.53 2230.46,1445.72 2232.53,1445.72 2234.6,1445.72 2236.68,1445.72 2238.75,1411.34 2240.83,1445.72 2242.9,1445.72 2244.97,1445.72 2247.05,1445.72 2249.12,1445.72 2251.2,1445.72 2253.27,1445.72 2255.34,1445.72 2257.42,1445.72 2259.49,1445.72 2261.57,1445.72 2263.64,1445.72 2265.71,1445.72 2267.79,1445.72 2269.86,1445.72 2271.94,1445.72 2274.01,1445.72 2276.08,1445.72 2278.16,1445.72 2280.23,1445.72 2282.3,1445.72 2284.38,1445.72 2286.45,1445.72 2288.53,1445.72 2290.6,1445.72 "/>
<path clip-path="url(#clip780)" d="M2007.5 198.898 L2279.55 198.898 L2279.55 95.2176 L2007.5 95.2176  Z" fill="#ffffff" fill-rule="evenodd" fill-opacity="1"/>
<polyline clip-path="url(#clip780)" style="stroke:#000000; stroke-linecap:round; stroke-linejoin:round; stroke-width:4; stroke-opacity:1; fill:none" points="2007.5,198.898 2279.55,198.898 2279.55,95.2176 2007.5,95.2176 2007.5,198.898 "/>
<polyline clip-path="url(#clip780)" style="stroke:#009af9; stroke-linecap:round; stroke-linejoin:round; stroke-width:4; stroke-opacity:1; fill:none" points="2031.91,147.058 2178.32,147.058 "/>
<path clip-path="url(#clip780)" d="M2216.56 166.745 Q2214.76 171.375 2213.04 172.787 Q2211.33 174.199 2208.46 174.199 L2205.06 174.199 L2205.06 170.634 L2207.56 170.634 Q2209.32 170.634 2210.29 169.8 Q2211.26 168.967 2212.44 165.865 L2213.2 163.921 L2202.72 138.412 L2207.23 138.412 L2215.33 158.689 L2223.44 138.412 L2227.95 138.412 L2216.56 166.745 Z" fill="#000000" fill-rule="nonzero" fill-opacity="1" /><path clip-path="url(#clip780)" d="M2235.24 160.402 L2242.88 160.402 L2242.88 134.037 L2234.57 135.703 L2234.57 131.444 L2242.83 129.778 L2247.51 129.778 L2247.51 160.402 L2255.15 160.402 L2255.15 164.338 L2235.24 164.338 L2235.24 160.402 Z" fill="#000000" fill-rule="nonzero" fill-opacity="1" /></svg>
