<?xml version="1.0" encoding="utf-8"?>
<svg xmlns="http://www.w3.org/2000/svg" xmlns:xlink="http://www.w3.org/1999/xlink" width="600" height="400" viewBox="0 0 2400 1600">
<defs>
  <clipPath id="clip010">
    <rect x="0" y="0" width="2400" height="1600"/>
  </clipPath>
</defs>
<path clip-path="url(#clip010)" d="M0 1600 L2400 1600 L2400 0 L0 0  Z" fill="#ffffff" fill-rule="evenodd" fill-opacity="1"/>
<defs>
  <clipPath id="clip011">
    <rect x="480" y="0" width="1681" height="1600"/>
  </clipPath>
</defs>
<path clip-path="url(#clip010)" d="M184.191 1486.45 L2352.76 1486.45 L2352.76 47.2441 L184.191 47.2441  Z" fill="#ffffff" fill-rule="evenodd" fill-opacity="1"/>
<defs>
  <clipPath id="clip012">
    <rect x="184" y="47" width="2170" height="1440"/>
  </clipPath>
</defs>
<polyline clip-path="url(#clip012)" style="stroke:#000000; stroke-linecap:round; stroke-linejoin:round; stroke-width:2; stroke-opacity:0.1; fill:none" points="245.565,1486.45 245.565,47.2441 "/>
<polyline clip-path="url(#clip012)" style="stroke:#000000; stroke-linecap:round; stroke-linejoin:round; stroke-width:2; stroke-opacity:0.1; fill:none" points="757.019,1486.45 757.019,47.2441 "/>
<polyline clip-path="url(#clip012)" style="stroke:#000000; stroke-linecap:round; stroke-linejoin:round; stroke-width:2; stroke-opacity:0.1; fill:none" points="1268.47,1486.45 1268.47,47.2441 "/>
<polyline clip-path="url(#clip012)" style="stroke:#000000; stroke-linecap:round; stroke-linejoin:round; stroke-width:2; stroke-opacity:0.1; fill:none" points="1779.93,1486.45 1779.93,47.2441 "/>
<polyline clip-path="url(#clip012)" style="stroke:#000000; stroke-linecap:round; stroke-linejoin:round; stroke-width:2; stroke-opacity:0.1; fill:none" points="2291.38,1486.45 2291.38,47.2441 "/>
<polyline clip-path="url(#clip010)" style="stroke:#000000; stroke-linecap:round; stroke-linejoin:round; stroke-width:4; stroke-opacity:1; fill:none" points="184.191,1486.45 2352.76,1486.45 "/>
<polyline clip-path="url(#clip010)" style="stroke:#000000; stroke-linecap:round; stroke-linejoin:round; stroke-width:4; stroke-opacity:1; fill:none" points="245.565,1486.45 245.565,1467.55 "/>
<polyline clip-path="url(#clip010)" style="stroke:#000000; stroke-linecap:round; stroke-linejoin:round; stroke-width:4; stroke-opacity:1; fill:none" points="757.019,1486.45 757.019,1467.55 "/>
<polyline clip-path="url(#clip010)" style="stroke:#000000; stroke-linecap:round; stroke-linejoin:round; stroke-width:4; stroke-opacity:1; fill:none" points="1268.47,1486.45 1268.47,1467.55 "/>
<polyline clip-path="url(#clip010)" style="stroke:#000000; stroke-linecap:round; stroke-linejoin:round; stroke-width:4; stroke-opacity:1; fill:none" points="1779.93,1486.45 1779.93,1467.55 "/>
<polyline clip-path="url(#clip010)" style="stroke:#000000; stroke-linecap:round; stroke-linejoin:round; stroke-width:4; stroke-opacity:1; fill:none" points="2291.38,1486.45 2291.38,1467.55 "/>
<path clip-path="url(#clip010)" d="M245.565 1517.37 Q241.954 1517.37 240.125 1520.93 Q238.32 1524.47 238.32 1531.6 Q238.32 1538.71 240.125 1542.27 Q241.954 1545.82 245.565 1545.82 Q249.199 1545.82 251.005 1542.27 Q252.834 1538.71 252.834 1531.6 Q252.834 1524.47 251.005 1520.93 Q249.199 1517.37 245.565 1517.37 M245.565 1513.66 Q251.375 1513.66 254.431 1518.27 Q257.51 1522.85 257.51 1531.6 Q257.51 1540.33 254.431 1544.94 Q251.375 1549.52 245.565 1549.52 Q239.755 1549.52 236.676 1544.94 Q233.621 1540.33 233.621 1531.6 Q233.621 1522.85 236.676 1518.27 Q239.755 1513.66 245.565 1513.66 Z" fill="#000000" fill-rule="nonzero" fill-opacity="1" /><path clip-path="url(#clip010)" d="M701.545 1544.91 L709.184 1544.91 L709.184 1518.55 L700.874 1520.21 L700.874 1515.95 L709.138 1514.29 L713.813 1514.29 L713.813 1544.91 L721.452 1544.91 L721.452 1548.85 L701.545 1548.85 L701.545 1544.91 Z" fill="#000000" fill-rule="nonzero" fill-opacity="1" /><path clip-path="url(#clip010)" d="M740.897 1517.37 Q737.286 1517.37 735.457 1520.93 Q733.651 1524.47 733.651 1531.6 Q733.651 1538.71 735.457 1542.27 Q737.286 1545.82 740.897 1545.82 Q744.531 1545.82 746.336 1542.27 Q748.165 1538.71 748.165 1531.6 Q748.165 1524.47 746.336 1520.93 Q744.531 1517.37 740.897 1517.37 M740.897 1513.66 Q746.707 1513.66 749.762 1518.27 Q752.841 1522.85 752.841 1531.6 Q752.841 1540.33 749.762 1544.94 Q746.707 1549.52 740.897 1549.52 Q735.086 1549.52 732.008 1544.94 Q728.952 1540.33 728.952 1531.6 Q728.952 1522.85 732.008 1518.27 Q735.086 1513.66 740.897 1513.66 Z" fill="#000000" fill-rule="nonzero" fill-opacity="1" /><path clip-path="url(#clip010)" d="M771.059 1517.37 Q767.447 1517.37 765.619 1520.93 Q763.813 1524.47 763.813 1531.6 Q763.813 1538.71 765.619 1542.27 Q767.447 1545.82 771.059 1545.82 Q774.693 1545.82 776.498 1542.27 Q778.327 1538.71 778.327 1531.6 Q778.327 1524.47 776.498 1520.93 Q774.693 1517.37 771.059 1517.37 M771.059 1513.66 Q776.869 1513.66 779.924 1518.27 Q783.003 1522.85 783.003 1531.6 Q783.003 1540.33 779.924 1544.94 Q776.869 1549.52 771.059 1549.52 Q765.248 1549.52 762.17 1544.94 Q759.114 1540.33 759.114 1531.6 Q759.114 1522.85 762.17 1518.27 Q765.248 1513.66 771.059 1513.66 Z" fill="#000000" fill-rule="nonzero" fill-opacity="1" /><path clip-path="url(#clip010)" d="M801.22 1517.37 Q797.609 1517.37 795.781 1520.93 Q793.975 1524.47 793.975 1531.6 Q793.975 1538.71 795.781 1542.27 Q797.609 1545.82 801.22 1545.82 Q804.855 1545.82 806.66 1542.27 Q808.489 1538.71 808.489 1531.6 Q808.489 1524.47 806.66 1520.93 Q804.855 1517.37 801.22 1517.37 M801.22 1513.66 Q807.031 1513.66 810.086 1518.27 Q813.165 1522.85 813.165 1531.6 Q813.165 1540.33 810.086 1544.94 Q807.031 1549.52 801.22 1549.52 Q795.41 1549.52 792.332 1544.94 Q789.276 1540.33 789.276 1531.6 Q789.276 1522.85 792.332 1518.27 Q795.41 1513.66 801.22 1513.66 Z" fill="#000000" fill-rule="nonzero" fill-opacity="1" /><path clip-path="url(#clip010)" d="M1217.08 1544.91 L1233.4 1544.91 L1233.4 1548.85 L1211.46 1548.85 L1211.46 1544.91 Q1214.12 1542.16 1218.71 1537.53 Q1223.31 1532.88 1224.49 1531.53 Q1226.74 1529.01 1227.62 1527.27 Q1228.52 1525.51 1228.52 1523.82 Q1228.52 1521.07 1226.58 1519.33 Q1224.65 1517.6 1221.55 1517.6 Q1219.35 1517.6 1216.9 1518.36 Q1214.47 1519.13 1211.69 1520.68 L1211.69 1515.95 Q1214.52 1514.82 1216.97 1514.24 Q1219.42 1513.66 1221.46 1513.66 Q1226.83 1513.66 1230.02 1516.35 Q1233.22 1519.03 1233.22 1523.52 Q1233.22 1525.65 1232.41 1527.57 Q1231.62 1529.47 1229.52 1532.07 Q1228.94 1532.74 1225.83 1535.95 Q1222.73 1539.15 1217.08 1544.91 Z" fill="#000000" fill-rule="nonzero" fill-opacity="1" /><path clip-path="url(#clip010)" d="M1253.22 1517.37 Q1249.61 1517.37 1247.78 1520.93 Q1245.97 1524.47 1245.97 1531.6 Q1245.97 1538.71 1247.78 1542.27 Q1249.61 1545.82 1253.22 1545.82 Q1256.85 1545.82 1258.66 1542.27 Q1260.49 1538.71 1260.49 1531.6 Q1260.49 1524.47 1258.66 1520.93 Q1256.85 1517.37 1253.22 1517.37 M1253.22 1513.66 Q1259.03 1513.66 1262.08 1518.27 Q1265.16 1522.85 1265.16 1531.6 Q1265.16 1540.33 1262.08 1544.94 Q1259.03 1549.52 1253.22 1549.52 Q1247.41 1549.52 1244.33 1544.94 Q1241.27 1540.33 1241.27 1531.6 Q1241.27 1522.85 1244.33 1518.27 Q1247.41 1513.66 1253.22 1513.66 Z" fill="#000000" fill-rule="nonzero" fill-opacity="1" /><path clip-path="url(#clip010)" d="M1283.38 1517.37 Q1279.77 1517.37 1277.94 1520.93 Q1276.14 1524.47 1276.14 1531.6 Q1276.14 1538.71 1277.94 1542.27 Q1279.77 1545.82 1283.38 1545.82 Q1287.01 1545.82 1288.82 1542.27 Q1290.65 1538.71 1290.65 1531.6 Q1290.65 1524.47 1288.82 1520.93 Q1287.01 1517.37 1283.38 1517.37 M1283.38 1513.66 Q1289.19 1513.66 1292.25 1518.27 Q1295.33 1522.85 1295.33 1531.6 Q1295.33 1540.33 1292.25 1544.94 Q1289.19 1549.52 1283.38 1549.52 Q1277.57 1549.52 1274.49 1544.94 Q1271.44 1540.33 1271.44 1531.6 Q1271.44 1522.85 1274.49 1518.27 Q1277.57 1513.66 1283.38 1513.66 Z" fill="#000000" fill-rule="nonzero" fill-opacity="1" /><path clip-path="url(#clip010)" d="M1313.54 1517.37 Q1309.93 1517.37 1308.1 1520.93 Q1306.3 1524.47 1306.3 1531.6 Q1306.3 1538.71 1308.1 1542.27 Q1309.93 1545.82 1313.54 1545.82 Q1317.18 1545.82 1318.98 1542.27 Q1320.81 1538.71 1320.81 1531.6 Q1320.81 1524.47 1318.98 1520.93 Q1317.18 1517.37 1313.54 1517.37 M1313.54 1513.66 Q1319.35 1513.66 1322.41 1518.27 Q1325.49 1522.85 1325.49 1531.6 Q1325.49 1540.33 1322.41 1544.94 Q1319.35 1549.52 1313.54 1549.52 Q1307.73 1549.52 1304.65 1544.94 Q1301.6 1540.33 1301.6 1531.6 Q1301.6 1522.85 1304.65 1518.27 Q1307.73 1513.66 1313.54 1513.66 Z" fill="#000000" fill-rule="nonzero" fill-opacity="1" /><path clip-path="url(#clip010)" d="M1738.61 1530.21 Q1741.96 1530.93 1743.84 1533.2 Q1745.74 1535.47 1745.74 1538.8 Q1745.74 1543.92 1742.22 1546.72 Q1738.7 1549.52 1732.22 1549.52 Q1730.04 1549.52 1727.73 1549.08 Q1725.44 1548.66 1722.98 1547.81 L1722.98 1543.29 Q1724.93 1544.43 1727.24 1545.01 Q1729.56 1545.58 1732.08 1545.58 Q1736.48 1545.58 1738.77 1543.85 Q1741.08 1542.11 1741.08 1538.8 Q1741.08 1535.75 1738.93 1534.03 Q1736.8 1532.3 1732.98 1532.3 L1728.96 1532.3 L1728.96 1528.45 L1733.17 1528.45 Q1736.62 1528.45 1738.45 1527.09 Q1740.27 1525.7 1740.27 1523.11 Q1740.27 1520.45 1738.38 1519.03 Q1736.5 1517.6 1732.98 1517.6 Q1731.06 1517.6 1728.86 1518.01 Q1726.66 1518.43 1724.02 1519.31 L1724.02 1515.14 Q1726.69 1514.4 1729 1514.03 Q1731.34 1513.66 1733.4 1513.66 Q1738.72 1513.66 1741.83 1516.09 Q1744.93 1518.5 1744.93 1522.62 Q1744.93 1525.49 1743.28 1527.48 Q1741.64 1529.45 1738.61 1530.21 Z" fill="#000000" fill-rule="nonzero" fill-opacity="1" /><path clip-path="url(#clip010)" d="M1764.6 1517.37 Q1760.99 1517.37 1759.16 1520.93 Q1757.36 1524.47 1757.36 1531.6 Q1757.36 1538.71 1759.16 1542.27 Q1760.99 1545.82 1764.6 1545.82 Q1768.24 1545.82 1770.04 1542.27 Q1771.87 1538.71 1771.87 1531.6 Q1771.87 1524.47 1770.04 1520.93 Q1768.24 1517.37 1764.6 1517.37 M1764.6 1513.66 Q1770.41 1513.66 1773.47 1518.27 Q1776.55 1522.85 1776.55 1531.6 Q1776.55 1540.33 1773.47 1544.94 Q1770.41 1549.52 1764.6 1549.52 Q1758.79 1549.52 1755.71 1544.94 Q1752.66 1540.33 1752.66 1531.6 Q1752.66 1522.85 1755.71 1518.27 Q1758.79 1513.66 1764.6 1513.66 Z" fill="#000000" fill-rule="nonzero" fill-opacity="1" /><path clip-path="url(#clip010)" d="M1794.77 1517.37 Q1791.15 1517.37 1789.33 1520.93 Q1787.52 1524.47 1787.52 1531.6 Q1787.52 1538.71 1789.33 1542.27 Q1791.15 1545.82 1794.77 1545.82 Q1798.4 1545.82 1800.21 1542.27 Q1802.03 1538.71 1802.03 1531.6 Q1802.03 1524.47 1800.21 1520.93 Q1798.4 1517.37 1794.77 1517.37 M1794.77 1513.66 Q1800.58 1513.66 1803.63 1518.27 Q1806.71 1522.85 1806.71 1531.6 Q1806.71 1540.33 1803.63 1544.94 Q1800.58 1549.52 1794.77 1549.52 Q1788.96 1549.52 1785.88 1544.94 Q1782.82 1540.33 1782.82 1531.6 Q1782.82 1522.85 1785.88 1518.27 Q1788.96 1513.66 1794.77 1513.66 Z" fill="#000000" fill-rule="nonzero" fill-opacity="1" /><path clip-path="url(#clip010)" d="M1824.93 1517.37 Q1821.32 1517.37 1819.49 1520.93 Q1817.68 1524.47 1817.68 1531.6 Q1817.68 1538.71 1819.49 1542.27 Q1821.32 1545.82 1824.93 1545.82 Q1828.56 1545.82 1830.37 1542.27 Q1832.2 1538.71 1832.2 1531.6 Q1832.2 1524.47 1830.37 1520.93 Q1828.56 1517.37 1824.93 1517.37 M1824.93 1513.66 Q1830.74 1513.66 1833.79 1518.27 Q1836.87 1522.85 1836.87 1531.6 Q1836.87 1540.33 1833.79 1544.94 Q1830.74 1549.52 1824.93 1549.52 Q1819.12 1549.52 1816.04 1544.94 Q1812.98 1540.33 1812.98 1531.6 Q1812.98 1522.85 1816.04 1518.27 Q1819.12 1513.66 1824.93 1513.66 Z" fill="#000000" fill-rule="nonzero" fill-opacity="1" /><path clip-path="url(#clip010)" d="M2249.39 1518.36 L2237.59 1536.81 L2249.39 1536.81 L2249.39 1518.36 M2248.16 1514.29 L2254.04 1514.29 L2254.04 1536.81 L2258.97 1536.81 L2258.97 1540.7 L2254.04 1540.7 L2254.04 1548.85 L2249.39 1548.85 L2249.39 1540.7 L2233.79 1540.7 L2233.79 1536.19 L2248.16 1514.29 Z" fill="#000000" fill-rule="nonzero" fill-opacity="1" /><path clip-path="url(#clip010)" d="M2276.71 1517.37 Q2273.09 1517.37 2271.27 1520.93 Q2269.46 1524.47 2269.46 1531.6 Q2269.46 1538.71 2271.27 1542.27 Q2273.09 1545.82 2276.71 1545.82 Q2280.34 1545.82 2282.15 1542.27 Q2283.97 1538.71 2283.97 1531.6 Q2283.97 1524.47 2282.15 1520.93 Q2280.34 1517.37 2276.71 1517.37 M2276.71 1513.66 Q2282.52 1513.66 2285.57 1518.27 Q2288.65 1522.85 2288.65 1531.6 Q2288.65 1540.33 2285.57 1544.94 Q2282.52 1549.52 2276.71 1549.52 Q2270.9 1549.52 2267.82 1544.94 Q2264.76 1540.33 2264.76 1531.6 Q2264.76 1522.85 2267.82 1518.27 Q2270.9 1513.66 2276.71 1513.66 Z" fill="#000000" fill-rule="nonzero" fill-opacity="1" /><path clip-path="url(#clip010)" d="M2306.87 1517.37 Q2303.26 1517.37 2301.43 1520.93 Q2299.62 1524.47 2299.62 1531.6 Q2299.62 1538.71 2301.43 1542.27 Q2303.26 1545.82 2306.87 1545.82 Q2310.5 1545.82 2312.31 1542.27 Q2314.14 1538.71 2314.14 1531.6 Q2314.14 1524.47 2312.31 1520.93 Q2310.5 1517.37 2306.87 1517.37 M2306.87 1513.66 Q2312.68 1513.66 2315.73 1518.27 Q2318.81 1522.85 2318.81 1531.6 Q2318.81 1540.33 2315.73 1544.94 Q2312.68 1549.52 2306.87 1549.52 Q2301.06 1549.52 2297.98 1544.94 Q2294.92 1540.33 2294.92 1531.6 Q2294.92 1522.85 2297.98 1518.27 Q2301.06 1513.66 2306.87 1513.66 Z" fill="#000000" fill-rule="nonzero" fill-opacity="1" /><path clip-path="url(#clip010)" d="M2337.03 1517.37 Q2333.42 1517.37 2331.59 1520.93 Q2329.78 1524.47 2329.78 1531.6 Q2329.78 1538.71 2331.59 1542.27 Q2333.42 1545.82 2337.03 1545.82 Q2340.66 1545.82 2342.47 1542.27 Q2344.3 1538.71 2344.3 1531.6 Q2344.3 1524.47 2342.47 1520.93 Q2340.66 1517.37 2337.03 1517.37 M2337.03 1513.66 Q2342.84 1513.66 2345.9 1518.27 Q2348.97 1522.85 2348.97 1531.6 Q2348.97 1540.33 2345.9 1544.94 Q2342.84 1549.52 2337.03 1549.52 Q2331.22 1549.52 2328.14 1544.94 Q2325.08 1540.33 2325.08 1531.6 Q2325.08 1522.85 2328.14 1518.27 Q2331.22 1513.66 2337.03 1513.66 Z" fill="#000000" fill-rule="nonzero" fill-opacity="1" /><polyline clip-path="url(#clip012)" style="stroke:#000000; stroke-linecap:round; stroke-linejoin:round; stroke-width:2; stroke-opacity:0.1; fill:none" points="184.191,1320.89 2352.76,1320.89 "/>
<polyline clip-path="url(#clip012)" style="stroke:#000000; stroke-linecap:round; stroke-linejoin:round; stroke-width:2; stroke-opacity:0.1; fill:none" points="184.191,1062.97 2352.76,1062.97 "/>
<polyline clip-path="url(#clip012)" style="stroke:#000000; stroke-linecap:round; stroke-linejoin:round; stroke-width:2; stroke-opacity:0.1; fill:none" points="184.191,805.057 2352.76,805.057 "/>
<polyline clip-path="url(#clip012)" style="stroke:#000000; stroke-linecap:round; stroke-linejoin:round; stroke-width:2; stroke-opacity:0.1; fill:none" points="184.191,547.141 2352.76,547.141 "/>
<polyline clip-path="url(#clip012)" style="stroke:#000000; stroke-linecap:round; stroke-linejoin:round; stroke-width:2; stroke-opacity:0.1; fill:none" points="184.191,289.224 2352.76,289.224 "/>
<polyline clip-path="url(#clip010)" style="stroke:#000000; stroke-linecap:round; stroke-linejoin:round; stroke-width:4; stroke-opacity:1; fill:none" points="184.191,1486.45 184.191,47.2441 "/>
<polyline clip-path="url(#clip010)" style="stroke:#000000; stroke-linecap:round; stroke-linejoin:round; stroke-width:4; stroke-opacity:1; fill:none" points="184.191,1320.89 203.088,1320.89 "/>
<polyline clip-path="url(#clip010)" style="stroke:#000000; stroke-linecap:round; stroke-linejoin:round; stroke-width:4; stroke-opacity:1; fill:none" points="184.191,1062.97 203.088,1062.97 "/>
<polyline clip-path="url(#clip010)" style="stroke:#000000; stroke-linecap:round; stroke-linejoin:round; stroke-width:4; stroke-opacity:1; fill:none" points="184.191,805.057 203.088,805.057 "/>
<polyline clip-path="url(#clip010)" style="stroke:#000000; stroke-linecap:round; stroke-linejoin:round; stroke-width:4; stroke-opacity:1; fill:none" points="184.191,547.141 203.088,547.141 "/>
<polyline clip-path="url(#clip010)" style="stroke:#000000; stroke-linecap:round; stroke-linejoin:round; stroke-width:4; stroke-opacity:1; fill:none" points="184.191,289.224 203.088,289.224 "/>
<path clip-path="url(#clip010)" d="M51.6634 1334.24 L59.3023 1334.24 L59.3023 1307.87 L50.9921 1309.54 L50.9921 1305.28 L59.256 1303.61 L63.9319 1303.61 L63.9319 1334.24 L71.5707 1334.24 L71.5707 1338.17 L51.6634 1338.17 L51.6634 1334.24 Z" fill="#000000" fill-rule="nonzero" fill-opacity="1" /><path clip-path="url(#clip010)" d="M81.8253 1334.24 L89.4641 1334.24 L89.4641 1307.87 L81.154 1309.54 L81.154 1305.28 L89.4178 1303.61 L94.0937 1303.61 L94.0937 1334.24 L101.733 1334.24 L101.733 1338.17 L81.8253 1338.17 L81.8253 1334.24 Z" fill="#000000" fill-rule="nonzero" fill-opacity="1" /><path clip-path="url(#clip010)" d="M111.177 1332.29 L116.061 1332.29 L116.061 1338.17 L111.177 1338.17 L111.177 1332.29 Z" fill="#000000" fill-rule="nonzero" fill-opacity="1" /><path clip-path="url(#clip010)" d="M136.246 1306.69 Q132.635 1306.69 130.807 1310.25 Q129.001 1313.8 129.001 1320.93 Q129.001 1328.03 130.807 1331.6 Q132.635 1335.14 136.246 1335.14 Q139.881 1335.14 141.686 1331.6 Q143.515 1328.03 143.515 1320.93 Q143.515 1313.8 141.686 1310.25 Q139.881 1306.69 136.246 1306.69 M136.246 1302.99 Q142.056 1302.99 145.112 1307.59 Q148.191 1312.18 148.191 1320.93 Q148.191 1329.65 145.112 1334.26 Q142.056 1338.84 136.246 1338.84 Q130.436 1338.84 127.357 1334.26 Q124.302 1329.65 124.302 1320.93 Q124.302 1312.18 127.357 1307.59 Q130.436 1302.99 136.246 1302.99 Z" fill="#000000" fill-rule="nonzero" fill-opacity="1" /><path clip-path="url(#clip010)" d="M52.6588 1076.32 L60.2976 1076.32 L60.2976 1049.95 L51.9875 1051.62 L51.9875 1047.36 L60.2513 1045.69 L64.9272 1045.69 L64.9272 1076.32 L72.5661 1076.32 L72.5661 1080.25 L52.6588 1080.25 L52.6588 1076.32 Z" fill="#000000" fill-rule="nonzero" fill-opacity="1" /><path clip-path="url(#clip010)" d="M82.8207 1076.32 L90.4595 1076.32 L90.4595 1049.95 L82.1494 1051.62 L82.1494 1047.36 L90.4132 1045.69 L95.0891 1045.69 L95.0891 1076.32 L102.728 1076.32 L102.728 1080.25 L82.8207 1080.25 L82.8207 1076.32 Z" fill="#000000" fill-rule="nonzero" fill-opacity="1" /><path clip-path="url(#clip010)" d="M112.172 1074.37 L117.057 1074.37 L117.057 1080.25 L112.172 1080.25 L112.172 1074.37 Z" fill="#000000" fill-rule="nonzero" fill-opacity="1" /><path clip-path="url(#clip010)" d="M127.288 1045.69 L145.644 1045.69 L145.644 1049.63 L131.57 1049.63 L131.57 1058.1 Q132.589 1057.75 133.607 1057.59 Q134.626 1057.41 135.644 1057.41 Q141.431 1057.41 144.811 1060.58 Q148.191 1063.75 148.191 1069.17 Q148.191 1074.74 144.718 1077.85 Q141.246 1080.93 134.927 1080.93 Q132.751 1080.93 130.482 1080.56 Q128.237 1080.18 125.83 1079.44 L125.83 1074.74 Q127.913 1075.88 130.135 1076.43 Q132.357 1076.99 134.834 1076.99 Q138.839 1076.99 141.177 1074.88 Q143.515 1072.78 143.515 1069.17 Q143.515 1065.56 141.177 1063.45 Q138.839 1061.34 134.834 1061.34 Q132.959 1061.34 131.084 1061.76 Q129.232 1062.18 127.288 1063.06 L127.288 1045.69 Z" fill="#000000" fill-rule="nonzero" fill-opacity="1" /><path clip-path="url(#clip010)" d="M51.6634 818.402 L59.3023 818.402 L59.3023 792.037 L50.9921 793.703 L50.9921 789.444 L59.256 787.777 L63.9319 787.777 L63.9319 818.402 L71.5707 818.402 L71.5707 822.337 L51.6634 822.337 L51.6634 818.402 Z" fill="#000000" fill-rule="nonzero" fill-opacity="1" /><path clip-path="url(#clip010)" d="M85.0429 818.402 L101.362 818.402 L101.362 822.337 L79.4179 822.337 L79.4179 818.402 Q82.0799 815.648 86.6632 811.018 Q91.2697 806.365 92.4502 805.023 Q94.6956 802.5 95.5752 800.763 Q96.478 799.004 96.478 797.314 Q96.478 794.56 94.5336 792.824 Q92.6123 791.088 89.5104 791.088 Q87.3114 791.088 84.8577 791.851 Q82.4271 792.615 79.6494 794.166 L79.6494 789.444 Q82.4734 788.31 84.9271 787.731 Q87.3808 787.152 89.4178 787.152 Q94.7882 787.152 97.9826 789.838 Q101.177 792.523 101.177 797.013 Q101.177 799.143 100.367 801.064 Q99.5798 802.962 97.4734 805.555 Q96.8947 806.226 93.7928 809.444 Q90.691 812.638 85.0429 818.402 Z" fill="#000000" fill-rule="nonzero" fill-opacity="1" /><path clip-path="url(#clip010)" d="M111.177 816.458 L116.061 816.458 L116.061 822.337 L111.177 822.337 L111.177 816.458 Z" fill="#000000" fill-rule="nonzero" fill-opacity="1" /><path clip-path="url(#clip010)" d="M136.246 790.856 Q132.635 790.856 130.807 794.421 Q129.001 797.963 129.001 805.092 Q129.001 812.199 130.807 815.763 Q132.635 819.305 136.246 819.305 Q139.881 819.305 141.686 815.763 Q143.515 812.199 143.515 805.092 Q143.515 797.963 141.686 794.421 Q139.881 790.856 136.246 790.856 M136.246 787.152 Q142.056 787.152 145.112 791.759 Q148.191 796.342 148.191 805.092 Q148.191 813.819 145.112 818.425 Q142.056 823.009 136.246 823.009 Q130.436 823.009 127.357 818.425 Q124.302 813.819 124.302 805.092 Q124.302 796.342 127.357 791.759 Q130.436 787.152 136.246 787.152 Z" fill="#000000" fill-rule="nonzero" fill-opacity="1" /><path clip-path="url(#clip010)" d="M52.6588 560.485 L60.2976 560.485 L60.2976 534.12 L51.9875 535.787 L51.9875 531.527 L60.2513 529.861 L64.9272 529.861 L64.9272 560.485 L72.5661 560.485 L72.5661 564.421 L52.6588 564.421 L52.6588 560.485 Z" fill="#000000" fill-rule="nonzero" fill-opacity="1" /><path clip-path="url(#clip010)" d="M86.0382 560.485 L102.358 560.485 L102.358 564.421 L80.4133 564.421 L80.4133 560.485 Q83.0753 557.731 87.6586 553.101 Q92.2651 548.448 93.4456 547.106 Q95.691 544.583 96.5706 542.847 Q97.4734 541.087 97.4734 539.398 Q97.4734 536.643 95.5289 534.907 Q93.6076 533.171 90.5058 533.171 Q88.3067 533.171 85.8531 533.935 Q83.4225 534.699 80.6447 536.249 L80.6447 531.527 Q83.4688 530.393 85.9225 529.814 Q88.3762 529.236 90.4132 529.236 Q95.7836 529.236 98.978 531.921 Q102.172 534.606 102.172 539.097 Q102.172 541.226 101.362 543.148 Q100.575 545.046 98.4687 547.638 Q97.89 548.31 94.7882 551.527 Q91.6864 554.722 86.0382 560.485 Z" fill="#000000" fill-rule="nonzero" fill-opacity="1" /><path clip-path="url(#clip010)" d="M112.172 558.541 L117.057 558.541 L117.057 564.421 L112.172 564.421 L112.172 558.541 Z" fill="#000000" fill-rule="nonzero" fill-opacity="1" /><path clip-path="url(#clip010)" d="M127.288 529.861 L145.644 529.861 L145.644 533.796 L131.57 533.796 L131.57 542.268 Q132.589 541.921 133.607 541.759 Q134.626 541.574 135.644 541.574 Q141.431 541.574 144.811 544.745 Q148.191 547.916 148.191 553.333 Q148.191 558.911 144.718 562.013 Q141.246 565.092 134.927 565.092 Q132.751 565.092 130.482 564.722 Q128.237 564.351 125.83 563.61 L125.83 558.911 Q127.913 560.046 130.135 560.601 Q132.357 561.157 134.834 561.157 Q138.839 561.157 141.177 559.05 Q143.515 556.944 143.515 553.333 Q143.515 549.722 141.177 547.615 Q138.839 545.509 134.834 545.509 Q132.959 545.509 131.084 545.925 Q129.232 546.342 127.288 547.222 L127.288 529.861 Z" fill="#000000" fill-rule="nonzero" fill-opacity="1" /><path clip-path="url(#clip010)" d="M51.6634 302.569 L59.3023 302.569 L59.3023 276.203 L50.9921 277.87 L50.9921 273.611 L59.256 271.944 L63.9319 271.944 L63.9319 302.569 L71.5707 302.569 L71.5707 306.504 L51.6634 306.504 L51.6634 302.569 Z" fill="#000000" fill-rule="nonzero" fill-opacity="1" /><path clip-path="url(#clip010)" d="M95.1817 287.87 Q98.5382 288.587 100.413 290.856 Q102.311 293.124 102.311 296.458 Q102.311 301.573 98.7928 304.374 Q95.2743 307.175 88.7928 307.175 Q86.6169 307.175 84.3021 306.735 Q82.0105 306.319 79.5568 305.462 L79.5568 300.948 Q81.5012 302.083 83.816 302.661 Q86.1308 303.24 88.654 303.24 Q93.0521 303.24 95.3437 301.504 Q97.6585 299.768 97.6585 296.458 Q97.6585 293.402 95.5058 291.689 Q93.3762 289.953 89.5567 289.953 L85.529 289.953 L85.529 286.11 L89.7419 286.11 Q93.191 286.11 95.0197 284.745 Q96.8484 283.356 96.8484 280.763 Q96.8484 278.101 94.9502 276.689 Q93.0752 275.254 89.5567 275.254 Q87.6354 275.254 85.4364 275.671 Q83.2373 276.087 80.5984 276.967 L80.5984 272.8 Q83.2605 272.06 85.5753 271.689 Q87.9132 271.319 89.9734 271.319 Q95.2974 271.319 98.3993 273.749 Q101.501 276.157 101.501 280.277 Q101.501 283.148 99.8576 285.138 Q98.2141 287.106 95.1817 287.87 Z" fill="#000000" fill-rule="nonzero" fill-opacity="1" /><path clip-path="url(#clip010)" d="M111.177 300.624 L116.061 300.624 L116.061 306.504 L111.177 306.504 L111.177 300.624 Z" fill="#000000" fill-rule="nonzero" fill-opacity="1" /><path clip-path="url(#clip010)" d="M136.246 275.023 Q132.635 275.023 130.807 278.587 Q129.001 282.129 129.001 289.259 Q129.001 296.365 130.807 299.93 Q132.635 303.471 136.246 303.471 Q139.881 303.471 141.686 299.93 Q143.515 296.365 143.515 289.259 Q143.515 282.129 141.686 278.587 Q139.881 275.023 136.246 275.023 M136.246 271.319 Q142.056 271.319 145.112 275.925 Q148.191 280.509 148.191 289.259 Q148.191 297.985 145.112 302.592 Q142.056 307.175 136.246 307.175 Q130.436 307.175 127.357 302.592 Q124.302 297.985 124.302 289.259 Q124.302 280.509 127.357 275.925 Q130.436 271.319 136.246 271.319 Z" fill="#000000" fill-rule="nonzero" fill-opacity="1" /><polyline clip-path="url(#clip012)" style="stroke:#009af9; stroke-linecap:round; stroke-linejoin:round; stroke-width:4; stroke-opacity:1; fill:none" points="245.565,87.9763 246.077,159.762 246.588,225.834 247.1,287.124 247.611,343.603 248.122,395.095 248.634,442.716 249.145,487.347 249.657,528.736 250.168,567.134 250.68,602.842 251.191,637.174 251.703,669.121 252.214,697.784 252.726,724.632 253.237,749.664 253.748,773.198 254.26,795.309 254.771,816.151 255.283,836.505 255.794,855.704 256.306,873.539 256.817,890.435 257.329,906.384 257.84,921.548 258.352,936.261 258.863,950.257 259.374,962.816 259.886,974.841 260.397,986.527 260.909,997.735 261.42,1008.96 261.932,1019.71 262.443,1029.95 262.955,1039.78 263.466,1048.91 263.978,1057.71 264.489,1066.62 265,1075.19 265.512,1083.31 266.023,1091.14 266.535,1099.06 267.046,1106.69 267.558,1113.55 268.069,1120.19 268.581,1126.67 269.092,1132.97 269.604,1139.2 270.115,1145.24 270.626,1150.63 271.138,1155.9 271.649,1161.42 272.161,1166.78 272.672,1171.83 273.184,1176.74 273.695,1181.62 274.207,1186.37 274.718,1191 275.23,1195.52 275.741,1199.89 276.252,1204.15 276.764,1208.31 277.275,1212.36 277.787,1216.39 278.298,1220.31 278.81,1224.28 279.321,1228.15 279.833,1231.77 280.344,1235.3 280.855,1238.9 281.367,1242.42 281.878,1245.81 282.39,1249.12 282.901,1252.37 283.413,1255.56 283.924,1258.58 284.436,1261.53 284.947,1264.51 285.459,1267.42 285.97,1270.28 286.481,1273.07 286.993,1275.83 287.504,1278.54 288.016,1281.18 288.527,1283.77 289.039,1286.26 289.55,1288.69 290.062,1291.26 290.573,1293.77 291.085,1296.07 291.596,1298.33 292.107,1300.48 292.619,1302.59 293.13,1304.67 293.642,1306.71 294.153,1308.76 294.665,1310.77 295.176,1312.85 295.688,1314.88 296.199,1316.78 296.711,1318.65 297.222,1320.52 297.733,1322.36 298.245,1324.17 298.756,1325.94 299.268,1327.61 299.779,1329.25 300.291,1330.91 300.802,1332.54 301.314,1334.1 301.825,1335.63 302.337,1337.18 302.848,1338.71 303.359,1340.26 303.871,1341.78 304.382,1343.17 304.894,1344.54 305.405,1345.86 305.917,1347.16 306.428,1348.56 306.94,1349.94 307.451,1351.23 307.963,1352.51 308.474,1353.74 308.985,1354.95 309.497,1356.07 310.008,1357.18 310.52,1358.38 311.031,1359.56 311.543,1360.74 312.054,1361.89 312.566,1362.95 313.077,1363.99 313.589,1365.08 314.1,1366.15 314.611,1367.2 315.123,1368.23 315.634,1369.24 316.146,1370.23 316.657,1371.3 317.169,1372.35 317.68,1373.32 318.192,1374.27 318.703,1375.18 319.215,1376.07 319.726,1376.94 320.237,1377.79 320.749,1378.73 321.26,1379.65 321.772,1380.55 322.283,1381.43 322.795,1382.23 323.306,1383.02 323.818,1383.78 324.329,1384.52 324.841,1385.26 325.352,1385.99 325.863,1386.81 326.375,1387.61 326.886,1388.35 327.398,1389.08 327.909,1389.83 328.421,1390.57 328.932,1391.25 329.444,1391.93 329.955,1392.56 330.467,1393.18 330.978,1393.74 331.489,1394.29 332.001,1394.87 332.512,1395.45 333.024,1396.05 333.535,1396.63 334.047,1397.15 334.558,1397.66 335.07,1398.24 335.581,1398.82 336.093,1399.41 336.604,1400 337.115,1400.53 337.627,1401.06 338.138,1401.58 338.65,1402.09 339.161,1402.65 339.673,1403.21 340.184,1403.69 340.696,1404.16 341.207,1404.61 341.719,1405.06 342.23,1405.47 342.741,1405.88 343.253,1406.33 343.764,1406.77 344.276,1407.25 344.787,1407.71 345.299,1408.18 345.81,1408.64 346.322,1409.08 346.833,1409.52 347.345,1409.88 347.856,1410.24 348.367,1410.68 348.879,1411.11 349.39,1411.49 349.902,1411.87 350.413,1412.26 350.925,1412.64 351.436,1413.05 351.948,1413.44 352.459,1413.76 352.971,1414.07 353.482,1414.42 353.993,1414.76 354.505,1415.07 355.016,1415.36 355.528,1415.64 356.039,1415.91 356.551,1416.19 357.062,1416.47 357.574,1416.8 358.085,1417.12 358.597,1417.44 359.108,1417.75 359.619,1418.09 360.131,1418.41 360.642,1418.7 361.154,1418.99 361.665,1419.27 362.177,1419.55 362.688,1419.86 363.2,1420.16 363.711,1420.46 364.223,1420.75 364.734,1421.02 365.245,1421.29 365.757,1421.56 366.268,1421.82 366.78,1422.07 367.291,1422.31 367.803,1422.58 368.314,1422.84 368.826,1423.08 369.337,1423.31 369.849,1423.6 370.36,1423.88 370.871,1424.11 371.383,1424.33 371.894,1424.56 372.406,1424.8 372.917,1425.03 373.429,1425.25 373.94,1425.49 374.452,1425.73 374.963,1425.93 375.474,1426.12 375.986,1426.34 376.497,1426.56 377.009,1426.75 377.52,1426.93 378.032,1427.13 378.543,1427.32 379.055,1427.51 379.566,1427.7 380.078,1427.88 380.589,1428.05 381.1,1428.21 381.612,1428.36 382.123,1428.5 382.635,1428.64 383.146,1428.86 383.658,1429.08 384.169,1429.22 384.681,1429.35 385.192,1429.55 385.704,1429.75 386.215,1429.96 386.726,1430.17 387.238,1430.33 387.749,1430.48 388.261,1430.58 388.772,1430.67 389.284,1430.77 389.795,1430.87 390.307,1431 390.818,1431.13 391.33,1431.26 391.841,1431.38 392.352,1431.58 392.864,1431.77 393.375,1431.85 393.887,1431.94 394.398,1432.04 394.91,1432.13 395.421,1432.28 395.933,1432.43 396.444,1432.56 396.956,1432.7 397.467,1432.76 397.978,1432.81 398.49,1432.9 399.001,1432.99 399.513,1433.18 400.024,1433.36 400.536,1433.46 401.047,1433.55 401.559,1433.67 402.07,1433.79 402.582,1433.89 403.093,1433.98 403.604,1434.07 404.116,1434.15 404.627,1434.21 405.139,1434.28 405.65,1434.4 406.162,1434.52 406.673,1434.63 407.185,1434.73 407.696,1434.79 408.208,1434.85 408.719,1434.92 409.23,1434.98 409.742,1435.06 410.253,1435.14 410.765,1435.28 411.276,1435.41 411.788,1435.5 412.299,1435.59 412.811,1435.68 413.322,1435.77 413.834,1435.89 414.345,1436 414.856,1436.13 415.368,1436.25 415.879,1436.35 416.391,1436.46 416.902,1436.51 417.414,1436.56 417.925,1436.63 418.437,1436.7 418.948,1436.75 419.46,1436.79 419.971,1436.86 420.482,1436.92 420.994,1437.01 421.505,1437.1 422.017,1437.14 422.528,1437.18 423.04,1437.26 423.551,1437.33 424.063,1437.35 424.574,1437.38 425.086,1437.41 425.597,1437.44 426.108,1437.54 426.62,1437.63 427.131,1437.72 427.643,1437.81 428.154,1437.88 428.666,1437.94 429.177,1438.01 429.689,1438.08 430.2,1438.11 430.712,1438.14 431.223,1438.26 431.734,1438.38 432.246,1438.44 432.757,1438.5 433.269,1438.57 433.78,1438.63 434.292,1438.69 434.803,1438.75 435.315,1438.74 435.826,1438.73 436.338,1438.76 436.849,1438.79 437.36,1438.84 437.872,1438.88 438.383,1438.88 438.895,1438.88 439.406,1438.97 439.918,1439.07 440.429,1439.15 440.941,1439.24 441.452,1439.33 441.964,1439.43 442.475,1439.52 442.986,1439.6 443.498,1439.63 444.009,1439.65 444.521,1439.7 445.032,1439.74 445.544,1439.8 446.055,1439.86 446.567,1439.91 447.078,1439.97 447.59,1440.07 448.101,1440.17 448.612,1440.23 449.124,1440.29 449.635,1440.36 450.147,1440.43 450.658,1440.4 451.17,1440.36 451.681,1440.44 452.193,1440.53 452.704,1440.59 453.216,1440.65 453.727,1440.67 454.238,1440.68 454.75,1440.72 455.261,1440.76 455.773,1440.77 456.284,1440.78 456.796,1440.84 457.307,1440.9 457.819,1440.95 458.33,1441.01 458.842,1441.08 459.353,1441.15 459.864,1441.21 460.376,1441.26 460.887,1441.29 461.399,1441.32 461.91,1441.4 462.422,1441.48 462.933,1441.49 463.445,1441.5 463.956,1441.51 464.468,1441.53 464.979,1441.63 465.49,1441.73 466.002,1441.76 466.513,1441.79 467.025,1441.81 467.536,1441.84 468.048,1441.87 468.559,1441.9 469.071,1441.93 469.582,1441.95 470.094,1441.95 470.605,1441.94 471.116,1441.95 471.628,1441.97 472.139,1442.01 472.651,1442.05 473.162,1442.03 473.674,1442.02 474.185,1442.02 474.697,1442.03 475.208,1442.05 475.719,1442.07 476.231,1442.06 476.742,1442.05 477.254,1442.04 477.765,1442.02 478.277,1442.09 478.788,1442.15 479.3,1442.12 479.811,1442.09 480.323,1442.12 480.834,1442.15 481.345,1442.18 481.857,1442.2 482.368,1442.27 482.88,1442.34 483.391,1442.35 483.903,1442.36 484.414,1442.39 484.926,1442.41 485.437,1442.44 485.949,1442.47 486.46,1442.52 486.971,1442.57 487.483,1442.63 487.994,1442.69 488.506,1442.72 489.017,1442.74 489.529,1442.73 490.04,1442.72 490.552,1442.7 491.063,1442.69 491.575,1442.73 492.086,1442.77 492.597,1442.78 493.109,1442.79 493.62,1442.84 494.132,1442.89 494.643,1442.88 495.155,1442.87 495.666,1442.92 496.178,1442.97 496.689,1442.95 497.201,1442.94 497.712,1442.9 498.223,1442.87 498.735,1442.87 499.246,1442.87 499.758,1442.93 500.269,1442.99 500.781,1442.99 501.292,1442.98 501.804,1443.03 502.315,1443.07 502.827,1443.12 503.338,1443.17 503.849,1443.2 504.361,1443.22 504.872,1443.22 505.384,1443.22 505.895,1443.27 506.407,1443.32 506.918,1443.35 507.43,1443.39 507.941,1443.33 508.453,1443.27 508.964,1443.36 509.475,1443.44 509.987,1443.41 510.498,1443.39 511.01,1443.38 511.521,1443.37 512.033,1443.42 512.544,1443.46 513.056,1443.45 513.567,1443.43 514.079,1443.45 514.59,1443.46 515.101,1443.5 515.613,1443.55 516.124,1443.61 516.636,1443.67 517.147,1443.7 517.659,1443.73 518.17,1443.77 518.682,1443.8 519.193,1443.78 519.705,1443.77 520.216,1443.83 520.727,1443.88 521.239,1443.89 521.75,1443.89 522.262,1443.91 522.773,1443.93 523.285,1443.99 523.796,1444.04 524.308,1444.03 524.819,1444.03 525.331,1444.05 525.842,1444.07 526.353,1444.1 526.865,1444.13 527.376,1444.15 527.888,1444.17 528.399,1444.19 528.911,1444.2 529.422,1444.23 529.934,1444.25 530.445,1444.26 530.957,1444.26 531.468,1444.27 531.979,1444.27 532.491,1444.24 533.002,1444.21 533.514,1444.23 534.025,1444.24 534.537,1444.27 535.048,1444.29 535.56,1444.28 536.071,1444.27 536.583,1444.24 537.094,1444.21 537.605,1444.23 538.117,1444.25 538.628,1444.25 539.14,1444.26 539.651,1444.26 540.163,1444.25 540.674,1444.25 541.186,1444.24 541.697,1444.29 542.209,1444.33 542.72,1444.34 543.231,1444.35 543.743,1444.39 544.254,1444.43 544.766,1444.47 545.277,1444.5 545.789,1444.49 546.3,1444.47 546.812,1444.49 547.323,1444.52 547.835,1444.53 548.346,1444.55 548.857,1444.54 549.369,1444.54 549.88,1444.53 550.392,1444.51 550.903,1444.53 551.415,1444.55 551.926,1444.55 552.438,1444.54 552.949,1444.58 553.461,1444.62 553.972,1444.65 554.483,1444.69 554.995,1444.69 555.506,1444.68 556.018,1444.68 556.529,1444.68 557.041,1444.69 557.552,1444.69 558.064,1444.69 558.575,1444.69 559.087,1444.76 559.598,1444.84 560.109,1444.81 560.621,1444.78 561.132,1444.77 561.644,1444.77 562.155,1444.79 562.667,1444.8 563.178,1444.78 563.69,1444.76 564.201,1444.72 564.713,1444.67 565.224,1444.67 565.735,1444.66 566.247,1444.66 566.758,1444.65 567.27,1444.65 567.781,1444.64 568.293,1444.64 568.804,1444.64 569.316,1444.64 569.827,1444.63 570.338,1444.67 570.85,1444.7 571.361,1444.69 571.873,1444.67 572.384,1444.69 572.896,1444.72 573.407,1444.72 573.919,1444.73 574.43,1444.74 574.942,1444.76 575.453,1444.8 575.964,1444.84 576.476,1444.9 576.987,1444.96 577.499,1445 578.01,1445.05 578.522,1445.05 579.033,1445.05 579.545,1445.03 580.056,1445 580.568,1445.04 581.079,1445.08 581.59,1445.05 582.102,1445.03 582.613,1445 583.125,1444.97 583.636,1445.01 584.148,1445.04 584.659,1445.03 585.171,1445.03 585.682,1445.05 586.194,1445.08 586.705,1445.08 587.216,1445.08 587.728,1445.1 588.239,1445.11 588.751,1445.14 589.262,1445.17 589.774,1445.18 590.285,1445.19 590.797,1445.22 591.308,1445.25 591.82,1445.21 592.331,1445.17 592.842,1445.21 593.354,1445.24 593.865,1445.22 594.377,1445.19 594.888,1445.21 595.4,1445.22 595.911,1445.19 596.423,1445.17 596.934,1445.23 597.446,1445.28 597.957,1445.3 598.468,1445.31 598.98,1445.31 599.491,1445.31 600.003,1445.27 600.514,1445.24 601.026,1445.19 601.537,1445.14 602.049,1445.1 602.56,1445.07 603.072,1445.04 603.583,1445.02 604.094,1445.04 604.606,1445.05 605.117,1445.05 605.629,1445.05 606.14,1445.06 606.652,1445.07 607.163,1445.07 607.675,1445.06 608.186,1445.11 608.698,1445.16 609.209,1445.21 609.72,1445.26 610.232,1445.25 610.743,1445.24 611.255,1445.26 611.766,1445.27 612.278,1445.27 612.789,1445.27 613.301,1445.3 613.812,1445.32 614.324,1445.33 614.835,1445.34 615.346,1445.33 615.858,1445.32 616.369,1445.33 616.881,1445.34 617.392,1445.35 617.904,1445.36 618.415,1445.31 618.927,1445.25 619.438,1445.27 619.95,1445.28 620.461,1445.28 620.972,1445.28 621.484,1445.25 621.995,1445.22 622.507,1445.21 623.018,1445.2 623.53,1445.18 624.041,1445.16 624.553,1445.13 625.064,1445.1 625.576,1445.09 626.087,1445.09 626.598,1445.08 627.11,1445.07 627.621,1445.09 628.133,1445.11 628.644,1445.13 629.156,1445.15 629.667,1445.13 630.179,1445.1 630.69,1445.07 631.202,1445.04 631.713,1445.09 632.224,1445.13 632.736,1445.07 633.247,1445.01 633.759,1444.99 634.27,1444.97 634.782,1445.02 635.293,1445.06 635.805,1445.06 636.316,1445.05 636.828,1445.03 637.339,1445 637.85,1444.97 638.362,1444.93 638.873,1444.91 639.385,1444.89 639.896,1444.9 640.408,1444.92 640.919,1444.93 641.431,1444.94 641.942,1445.01 642.454,1445.09 642.965,1445.07 643.476,1445.06 643.988,1445.05 644.499,1445.03 645.011,1445.02 645.522,1445.01 646.034,1445 646.545,1444.98 647.057,1444.98 647.568,1444.98 648.08,1444.94 648.591,1444.9 649.102,1444.91 649.614,1444.93 650.125,1444.93 650.637,1444.93 651.148,1444.89 651.66,1444.86 652.171,1444.89 652.683,1444.92 653.194,1444.87 653.706,1444.81 654.217,1444.86 654.728,1444.92 655.24,1444.94 655.751,1444.96 656.263,1444.91 656.774,1444.87 657.286,1444.9 657.797,1444.92 658.309,1444.9 658.82,1444.89 659.332,1444.94 659.843,1444.99 660.354,1445.01 660.866,1445.04 661.377,1445.08 661.889,1445.13 662.4,1445.15 662.912,1445.18 663.423,1445.2 663.935,1445.22 664.446,1445.26 664.957,1445.3 665.469,1445.34 665.98,1445.37 666.492,1445.37 667.003,1445.38 667.515,1445.33 668.026,1445.28 668.538,1445.3 669.049,1445.33 669.561,1445.35 670.072,1445.37 670.583,1445.34 671.095,1445.31 671.606,1445.32 672.118,1445.33 672.629,1445.32 673.141,1445.32 673.652,1445.29 674.164,1445.27 674.675,1445.29 675.187,1445.32 675.698,1445.28 676.209,1445.24 676.721,1445.24 677.232,1445.24 677.744,1445.27 678.255,1445.3 678.767,1445.27 679.278,1445.24 679.79,1445.22 680.301,1445.19 680.813,1445.19 681.324,1445.19 681.835,1445.2 682.347,1445.22 682.858,1445.23 683.37,1445.25 683.881,1445.24 684.393,1445.22 684.904,1445.22 685.416,1445.21 685.927,1445.21 686.439,1445.21 686.95,1445.23 687.461,1445.25 687.973,1445.22 688.484,1445.19 688.996,1445.18 689.507,1445.16 690.019,1445.11 690.53,1445.05 691.042,1445.04 691.553,1445.02 692.065,1445.08 692.576,1445.13 693.087,1445.08 693.599,1445.03 694.11,1445.07 694.622,1445.12 695.133,1445.14 695.645,1445.16 696.156,1445.16 696.668,1445.17 697.179,1445.19 697.691,1445.21 698.202,1445.18 698.713,1445.16 699.225,1445.13 699.736,1445.09 700.248,1445.08 700.759,1445.06 701.271,1445.05 701.782,1445.03 702.294,1445.01 702.805,1444.98 703.317,1445.01 703.828,1445.04 704.339,1445.07 704.851,1445.1 705.362,1445.14 705.874,1445.18 706.385,1445.14 706.897,1445.09 707.408,1445.11 707.92,1445.12 708.431,1445.12 708.943,1445.12 709.454,1445.11 709.965,1445.09 710.477,1445.1 710.988,1445.12 711.5,1445.09 712.011,1445.07 712.523,1445.07 713.034,1445.08 713.546,1445 714.057,1444.92 714.569,1444.94 715.08,1444.95 715.591,1444.97 716.103,1444.98 716.614,1444.97 717.126,1444.96 717.637,1444.98 718.149,1445 718.66,1445 719.172,1444.99 719.683,1444.97 720.195,1444.94 720.706,1444.93 721.217,1444.92 721.729,1444.89 722.24,1444.86 722.752,1444.85 723.263,1444.84 723.775,1444.83 724.286,1444.83 724.798,1444.84 725.309,1444.86 725.821,1444.83 726.332,1444.81 726.843,1444.74 727.355,1444.66 727.866,1444.63 728.378,1444.6 728.889,1444.59 729.401,1444.57 729.912,1444.62 730.424,1444.67 730.935,1444.65 731.447,1444.64 731.958,1444.64 732.469,1444.65 732.981,1444.6 733.492,1444.56 734.004,1444.56 734.515,1444.55 735.027,1444.57 735.538,1444.59 736.05,1444.6 736.561,1444.62 737.073,1444.58 737.584,1444.55 738.095,1444.56 738.607,1444.57 739.118,1444.55 739.63,1444.53 740.141,1444.54 740.653,1444.54 741.164,1444.49 741.676,1444.43 742.187,1444.48 742.699,1444.53 743.21,1444.53 743.721,1444.53 744.233,1444.56 744.744,1444.59 745.256,1444.62 745.767,1444.66 746.279,1444.7 746.79,1444.74 747.302,1444.74 747.813,1444.74 748.325,1444.75 748.836,1444.77 749.347,1444.76 749.859,1444.76 750.37,1444.8 750.882,1444.84 751.393,1444.84 751.905,1444.84 752.416,1444.83 752.928,1444.82 753.439,1444.86 753.951,1444.89 754.462,1444.91 754.973,1444.94 755.485,1444.96 755.996,1444.98 756.508,1445 757.019,1445.02 757.531,1445.01 758.042,1445 758.554,1444.99 759.065,1444.98 759.576,1445 760.088,1445.01 760.599,1445.05 761.111,1445.08 761.622,1445.12 762.134,1445.16 762.645,1445.17 763.157,1445.17 763.668,1445.17 764.18,1445.18 764.691,1445.22 765.202,1445.25 765.714,1445.24 766.225,1445.23 766.737,1445.19 767.248,1445.14 767.76,1445.14 768.271,1445.14 768.783,1445.17 769.294,1445.2 769.806,1445.21 770.317,1445.23 770.828,1445.26 771.34,1445.29 771.851,1445.26 772.363,1445.22 772.874,1445.2 773.386,1445.17 773.897,1445.2 774.409,1445.24 774.92,1445.28 775.432,1445.31 775.943,1445.28 776.454,1445.25 776.966,1445.22 777.477,1445.19 777.989,1445.19 778.5,1445.18 779.012,1445.23 779.523,1445.28 780.035,1445.24 780.546,1445.2 781.058,1445.19 781.569,1445.17 782.08,1445.13 782.592,1445.09 783.103,1445.07 783.615,1445.05 784.126,1444.97 784.638,1444.9 785.149,1444.93 785.661,1444.95 786.172,1444.96 786.684,1444.97 787.195,1444.95 787.706,1444.93 788.218,1444.9 788.729,1444.87 789.241,1444.87 789.752,1444.87 790.264,1444.87 790.775,1444.87 791.287,1444.9 791.798,1444.93 792.31,1444.91 792.821,1444.89 793.332,1444.88 793.844,1444.88 794.355,1444.86 794.867,1444.84 795.378,1444.83 795.89,1444.82 796.401,1444.78 796.913,1444.74 797.424,1444.72 797.936,1444.7 798.447,1444.67 798.958,1444.64 799.47,1444.62 799.981,1444.6 800.493,1444.64 801.004,1444.67 801.516,1444.75 802.027,1444.82 802.539,1444.83 803.05,1444.83 803.562,1444.83 804.073,1444.83 804.584,1444.84 805.096,1444.84 805.607,1444.85 806.119,1444.86 806.63,1444.88 807.142,1444.9 807.653,1444.91 808.165,1444.93 808.676,1444.95 809.188,1444.96 809.699,1444.97 810.21,1444.97 810.722,1444.95 811.233,1444.93 811.745,1444.96 812.256,1444.99 812.768,1445.04 813.279,1445.09 813.791,1445.1 814.302,1445.11 814.814,1445.12 815.325,1445.14 815.836,1445.07 816.348,1445.01 816.859,1444.98 817.371,1444.95 817.882,1444.94 818.394,1444.92 818.905,1444.94 819.417,1444.95 819.928,1444.98 820.44,1445.01 820.951,1445.01 821.462,1445.02 821.974,1445.03 822.485,1445.04 822.997,1445.02 823.508,1445.01 824.02,1444.97 824.531,1444.93 825.043,1444.94 825.554,1444.96 826.066,1445.02 826.577,1445.08 827.088,1445.05 827.6,1445.03 828.111,1445.02 828.623,1445.02 829.134,1445.01 829.646,1445.01 830.157,1445 830.669,1444.98 831.18,1445 831.692,1445.02 832.203,1445 832.714,1444.98 833.226,1445.02 833.737,1445.06 834.249,1445.07 834.76,1445.07 835.272,1445.06 835.783,1445.04 836.295,1445.02 836.806,1445.01 837.318,1444.99 837.829,1444.97 838.34,1445.03 838.852,1445.09 839.363,1445.1 839.875,1445.11 840.386,1445.16 840.898,1445.21 841.409,1445.2 841.921,1445.18 842.432,1445.18 842.944,1445.17 843.455,1445.19 843.966,1445.2 844.478,1445.21 844.989,1445.21 845.501,1445.21 846.012,1445.2 846.524,1445.25 847.035,1445.29 847.547,1445.26 848.058,1445.23 848.57,1445.23 849.081,1445.24 849.592,1445.19 850.104,1445.14 850.615,1445.12 851.127,1445.11 851.638,1445.12 852.15,1445.14 852.661,1445.14 853.173,1445.14 853.684,1445.14 854.196,1445.13 854.707,1445.13 855.218,1445.13 855.73,1445.18 856.241,1445.23 856.753,1445.19 857.264,1445.15 857.776,1445.2 858.287,1445.25 858.799,1445.2 859.31,1445.14 859.821,1445.18 860.333,1445.21 860.844,1445.2 861.356,1445.19 861.867,1445.17 862.379,1445.15 862.89,1445.15 863.402,1445.15 863.913,1445.15 864.425,1445.16 864.936,1445.16 865.447,1445.16 865.959,1445.15 866.47,1445.14 866.982,1445.16 867.493,1445.18 868.005,1445.17 868.516,1445.16 869.028,1445.17 869.539,1445.18 870.051,1445.14 870.562,1445.1 871.073,1445.11 871.585,1445.12 872.096,1445.09 872.608,1445.07 873.119,1445.06 873.631,1445.05 874.142,1445.03 874.654,1445.01 875.165,1445.04 875.677,1445.08 876.188,1445.09 876.699,1445.1 877.211,1445.13 877.722,1445.16 878.234,1445.13 878.745,1445.09 879.257,1445.09 879.768,1445.09 880.28,1445.05 880.791,1445.02 881.303,1445.04 881.814,1445.06 882.325,1445.06 882.837,1445.05 883.348,1445.01 883.86,1444.97 884.371,1444.94 884.883,1444.92 885.394,1444.87 885.906,1444.82 886.417,1444.8 886.929,1444.78 887.44,1444.78 887.951,1444.77 888.463,1444.78 888.974,1444.78 889.486,1444.82 889.997,1444.85 890.509,1444.84 891.02,1444.82 891.532,1444.83 892.043,1444.83 892.555,1444.8 893.066,1444.78 893.577,1444.78 894.089,1444.77 894.6,1444.77 895.112,1444.77 895.623,1444.77 896.135,1444.77 896.646,1444.78 897.158,1444.78 897.669,1444.76 898.181,1444.73 898.692,1444.78 899.203,1444.83 899.715,1444.87 900.226,1444.92 900.738,1444.9 901.249,1444.88 901.761,1444.91 902.272,1444.93 902.784,1444.87 903.295,1444.8 903.807,1444.78 904.318,1444.77 904.829,1444.78 905.341,1444.79 905.852,1444.81 906.364,1444.83 906.875,1444.84 907.387,1444.84 907.898,1444.9 908.41,1444.95 908.921,1444.94 909.433,1444.93 909.944,1444.88 910.455,1444.83 910.967,1444.85 911.478,1444.88 911.99,1444.86 912.501,1444.84 913.013,1444.84 913.524,1444.85 914.036,1444.87 914.547,1444.9 915.059,1444.95 915.57,1445 916.081,1445.04 916.593,1445.07 917.104,1445.12 917.616,1445.17 918.127,1445.16 918.639,1445.15 919.15,1445.18 919.662,1445.2 920.173,1445.2 920.685,1445.19 921.196,1445.15 921.707,1445.12 922.219,1445.07 922.73,1445.01 923.242,1445 923.753,1444.98 924.265,1445.03 924.776,1445.08 925.288,1445.11 925.799,1445.14 926.311,1445.18 926.822,1445.22 927.333,1445.21 927.845,1445.2 928.356,1445.21 928.868,1445.22 929.379,1445.19 929.891,1445.15 930.402,1445.14 930.914,1445.13 931.425,1445.07 931.937,1445.02 932.448,1445.05 932.959,1445.09 933.471,1445.11 933.982,1445.13 934.494,1445.06 935.005,1445 935.517,1445.04 936.028,1445.07 936.54,1445.06 937.051,1445.06 937.563,1445.03 938.074,1445.01 938.585,1444.99 939.097,1444.96 939.608,1444.93 940.12,1444.9 940.631,1444.87 941.143,1444.85 941.654,1444.87 942.166,1444.89 942.677,1444.89 943.189,1444.89 943.7,1444.87 944.211,1444.84 944.723,1444.85 945.234,1444.87 945.746,1444.88 946.257,1444.89 946.769,1444.85 947.28,1444.82 947.792,1444.88 948.303,1444.93 948.815,1444.91 949.326,1444.9 949.837,1444.86 950.349,1444.82 950.86,1444.8 951.372,1444.78 951.883,1444.74 952.395,1444.7 952.906,1444.7 953.418,1444.7 953.929,1444.71 954.44,1444.72 954.952,1444.74 955.463,1444.76 955.975,1444.73 956.486,1444.7 956.998,1444.72 957.509,1444.74 958.021,1444.75 958.532,1444.77 959.044,1444.77 959.555,1444.78 960.066,1444.77 960.578,1444.76 961.089,1444.77 961.601,1444.78 962.112,1444.84 962.624,1444.89 963.135,1444.95 963.647,1445 964.158,1445.03 964.67,1445.07 965.181,1445.05 965.692,1445.03 966.204,1445.05 966.715,1445.08 967.227,1445.03 967.738,1444.98 968.25,1444.94 968.761,1444.9 969.273,1444.93 969.784,1444.96 970.296,1444.98 970.807,1445 971.318,1444.98 971.83,1444.96 972.341,1444.94 972.853,1444.91 973.364,1444.91 973.876,1444.9 974.387,1444.92 974.899,1444.94 975.41,1444.95 975.922,1444.95 976.433,1444.92 976.944,1444.88 977.456,1444.89 977.967,1444.91 978.479,1444.9 978.99,1444.9 979.502,1444.87 980.013,1444.85 980.525,1444.79 981.036,1444.74 981.548,1444.77 982.059,1444.8 982.57,1444.8 983.082,1444.79 983.593,1444.76 984.105,1444.74 984.616,1444.73 985.128,1444.72 985.639,1444.74 986.151,1444.76 986.662,1444.71 987.174,1444.65 987.685,1444.69 988.196,1444.73 988.708,1444.75 989.219,1444.78 989.731,1444.79 990.242,1444.8 990.754,1444.82 991.265,1444.84 991.777,1444.9 992.288,1444.96 992.8,1444.91 993.311,1444.85 993.822,1444.84 994.334,1444.83 994.845,1444.87 995.357,1444.9 995.868,1444.87 996.38,1444.84 996.891,1444.8 997.403,1444.77 997.914,1444.78 998.426,1444.79 998.937,1444.79 999.448,1444.79 999.96,1444.84 1000.47,1444.9 1000.98,1444.93 1001.49,1444.95 1002.01,1444.94 1002.52,1444.92 1003.03,1444.91 1003.54,1444.9 1004.05,1444.91 1004.56,1444.91 1005.07,1444.9 1005.59,1444.89 1006.1,1444.91 1006.61,1444.92 1007.12,1444.9 1007.63,1444.89 1008.14,1444.86 1008.65,1444.84 1009.17,1444.86 1009.68,1444.89 1010.19,1444.93 1010.7,1444.96 1011.21,1444.95 1011.72,1444.93 1012.23,1444.95 1012.75,1444.96 1013.26,1444.98 1013.77,1445 1014.28,1445 1014.79,1445.01 1015.3,1444.99 1015.81,1444.96 1016.33,1445 1016.84,1445.04 1017.35,1445.03 1017.86,1445.03 1018.37,1445.01 1018.88,1445 1019.4,1444.99 1019.91,1444.98 1020.42,1444.99 1020.93,1445 1021.44,1445.01 1021.95,1445.03 1022.46,1445.04 1022.98,1445.05 1023.49,1445.1 1024,1445.16 1024.51,1445.18 1025.02,1445.19 1025.53,1445.15 1026.04,1445.12 1026.56,1445.11 1027.07,1445.09 1027.58,1445.11 1028.09,1445.13 1028.6,1445.14 1029.11,1445.16 1029.62,1445.17 1030.14,1445.17 1030.65,1445.2 1031.16,1445.23 1031.67,1445.21 1032.18,1445.19 1032.69,1445.18 1033.2,1445.17 1033.72,1445.18 1034.23,1445.18 1034.74,1445.11 1035.25,1445.04 1035.76,1444.98 1036.27,1444.92 1036.78,1444.94 1037.3,1444.96 1037.81,1444.92 1038.32,1444.89 1038.83,1444.89 1039.34,1444.88 1039.85,1444.86 1040.36,1444.85 1040.88,1444.87 1041.39,1444.9 1041.9,1444.91 1042.41,1444.92 1042.92,1444.89 1043.43,1444.87 1043.94,1444.9 1044.46,1444.92 1044.97,1444.92 1045.48,1444.92 1045.99,1444.91 1046.5,1444.91 1047.01,1444.91 1047.53,1444.91 1048.04,1444.94 1048.55,1444.97 1049.06,1444.95 1049.57,1444.93 1050.08,1444.95 1050.59,1444.96 1051.11,1444.97 1051.62,1444.98 1052.13,1444.96 1052.64,1444.94 1053.15,1444.95 1053.66,1444.95 1054.17,1444.93 1054.69,1444.91 1055.2,1444.95 1055.71,1445 1056.22,1445.04 1056.73,1445.08 1057.24,1445.03 1057.75,1444.98 1058.27,1444.97 1058.78,1444.96 1059.29,1444.99 1059.8,1445.02 1060.31,1445.03 1060.82,1445.04 1061.33,1444.99 1061.85,1444.94 1062.36,1444.96 1062.87,1444.99 1063.38,1445 1063.89,1445.02 1064.4,1445.02 1064.91,1445.03 1065.43,1445.04 1065.94,1445.05 1066.45,1445.08 1066.96,1445.12 1067.47,1445.14 1067.98,1445.16 1068.49,1445.16 1069.01,1445.17 1069.52,1445.12 1070.03,1445.08 1070.54,1445.12 1071.05,1445.16 1071.56,1445.1 1072.07,1445.04 1072.59,1445.02 1073.1,1444.99 1073.61,1444.98 1074.12,1444.97 1074.63,1444.95 1075.14,1444.93 1075.66,1444.93 1076.17,1444.93 1076.68,1444.98 1077.19,1445.03 1077.7,1445.04 1078.21,1445.05 1078.72,1445.01 1079.24,1444.98 1079.75,1445.02 1080.26,1445.07 1080.77,1445.08 1081.28,1445.09 1081.79,1445.09 1082.3,1445.09 1082.82,1445.07 1083.33,1445.05 1083.84,1445.05 1084.35,1445.04 1084.86,1445.08 1085.37,1445.13 1085.88,1445.1 1086.4,1445.07 1086.91,1445.08 1087.42,1445.09 1087.93,1445.05 1088.44,1445.01 1088.95,1445.02 1089.46,1445.04 1089.98,1445.04 1090.49,1445.03 1091,1445.04 1091.51,1445.05 1092.02,1445.08 1092.53,1445.1 1093.04,1445.09 1093.56,1445.08 1094.07,1445.05 1094.58,1445.02 1095.09,1445.03 1095.6,1445.03 1096.11,1445.09 1096.62,1445.14 1097.14,1445.16 1097.65,1445.18 1098.16,1445.15 1098.67,1445.12 1099.18,1445.06 1099.69,1445.01 1100.2,1445.03 1100.72,1445.05 1101.23,1445.07 1101.74,1445.09 1102.25,1445.06 1102.76,1445.04 1103.27,1445.06 1103.79,1445.09 1104.3,1445.05 1104.81,1445.01 1105.32,1445.03 1105.83,1445.05 1106.34,1445.04 1106.85,1445.02 1107.37,1445.01 1107.88,1445 1108.39,1444.99 1108.9,1444.97 1109.41,1444.99 1109.92,1445.01 1110.43,1445.03 1110.95,1445.05 1111.46,1445.06 1111.97,1445.07 1112.48,1445.02 1112.99,1444.96 1113.5,1444.96 1114.01,1444.96 1114.53,1444.94 1115.04,1444.92 1115.55,1444.94 1116.06,1444.95 1116.57,1444.98 1117.08,1445.01 1117.59,1445.02 1118.11,1445.03 1118.62,1445 1119.13,1444.97 1119.64,1444.94 1120.15,1444.91 1120.66,1444.9 1121.17,1444.89 1121.69,1444.87 1122.2,1444.85 1122.71,1444.86 1123.22,1444.87 1123.73,1444.92 1124.24,1444.96 1124.75,1444.97 1125.27,1444.98 1125.78,1444.92 1126.29,1444.87 1126.8,1444.84 1127.31,1444.81 1127.82,1444.79 1128.33,1444.78 1128.85,1444.83 1129.36,1444.88 1129.87,1444.82 1130.38,1444.76 1130.89,1444.75 1131.4,1444.74 1131.92,1444.73 1132.43,1444.72 1132.94,1444.73 1133.45,1444.75 1133.96,1444.74 1134.47,1444.73 1134.98,1444.73 1135.5,1444.74 1136.01,1444.72 1136.52,1444.71 1137.03,1444.72 1137.54,1444.74 1138.05,1444.71 1138.56,1444.68 1139.08,1444.66 1139.59,1444.64 1140.1,1444.66 1140.61,1444.67 1141.12,1444.69 1141.63,1444.71 1142.14,1444.7 1142.66,1444.68 1143.17,1444.69 1143.68,1444.69 1144.19,1444.72 1144.7,1444.75 1145.21,1444.78 1145.72,1444.8 1146.24,1444.78 1146.75,1444.76 1147.26,1444.78 1147.77,1444.8 1148.28,1444.76 1148.79,1444.71 1149.3,1444.68 1149.82,1444.64 1150.33,1444.65 1150.84,1444.66 1151.35,1444.69 1151.86,1444.72 1152.37,1444.71 1152.88,1444.71 1153.4,1444.69 1153.91,1444.67 1154.42,1444.65 1154.93,1444.64 1155.44,1444.68 1155.95,1444.72 1156.46,1444.75 1156.98,1444.78 1157.49,1444.8 1158,1444.82 1158.51,1444.84 1159.02,1444.84 1159.53,1444.89 1160.05,1444.94 1160.56,1444.97 1161.07,1444.99 1161.58,1445.04 1162.09,1445.09 1162.6,1445.11 1163.11,1445.13 1163.63,1445.12 1164.14,1445.12 1164.65,1445.12 1165.16,1445.12 1165.67,1445.14 1166.18,1445.16 1166.69,1445.14 1167.21,1445.13 1167.72,1445.14 1168.23,1445.15 1168.74,1445.18 1169.25,1445.2 1169.76,1445.2 1170.27,1445.2 1170.79,1445.23 1171.3,1445.25 1171.81,1445.24 1172.32,1445.22 1172.83,1445.21 1173.34,1445.2 1173.85,1445.2 1174.37,1445.2 1174.88,1445.21 1175.39,1445.21 1175.9,1445.24 1176.41,1445.26 1176.92,1445.26 1177.43,1445.27 1177.95,1445.28 1178.46,1445.3 1178.97,1445.26 1179.48,1445.21 1179.99,1445.19 1180.5,1445.16 1181.01,1445.17 1181.53,1445.18 1182.04,1445.17 1182.55,1445.17 1183.06,1445.19 1183.57,1445.22 1184.08,1445.17 1184.59,1445.11 1185.11,1445.13 1185.62,1445.16 1186.13,1445.14 1186.64,1445.12 1187.15,1445.07 1187.66,1445.02 1188.18,1445.02 1188.69,1445.02 1189.2,1445.04 1189.71,1445.07 1190.22,1445.01 1190.73,1444.94 1191.24,1444.95 1191.76,1444.97 1192.27,1444.97 1192.78,1444.97 1193.29,1444.97 1193.8,1444.98 1194.31,1444.95 1194.82,1444.93 1195.34,1444.93 1195.85,1444.94 1196.36,1444.96 1196.87,1444.97 1197.38,1444.99 1197.89,1445.01 1198.4,1445.03 1198.92,1445.05 1199.43,1445.1 1199.94,1445.14 1200.45,1445.14 1200.96,1445.14 1201.47,1445.17 1201.98,1445.2 1202.5,1445.16 1203.01,1445.13 1203.52,1445.14 1204.03,1445.16 1204.54,1445.21 1205.05,1445.26 1205.56,1445.3 1206.08,1445.33 1206.59,1445.32 1207.1,1445.31 1207.61,1445.33 1208.12,1445.35 1208.63,1445.35 1209.14,1445.35 1209.66,1445.38 1210.17,1445.41 1210.68,1445.41 1211.19,1445.41 1211.7,1445.4 1212.21,1445.39 1212.72,1445.4 1213.24,1445.41 1213.75,1445.39 1214.26,1445.36 1214.77,1445.37 1215.28,1445.37 1215.79,1445.36 1216.3,1445.35 1216.82,1445.35 1217.33,1445.35 1217.84,1445.38 1218.35,1445.42 1218.86,1445.42 1219.37,1445.41 1219.89,1445.42 1220.4,1445.43 1220.91,1445.43 1221.42,1445.44 1221.93,1445.45 1222.44,1445.46 1222.95,1445.47 1223.47,1445.48 1223.98,1445.52 1224.49,1445.55 1225,1445.51 1225.51,1445.48 1226.02,1445.44 1226.53,1445.4 1227.05,1445.39 1227.56,1445.38 1228.07,1445.44 1228.58,1445.49 1229.09,1445.44 1229.6,1445.39 1230.11,1445.4 1230.63,1445.41 1231.14,1445.41 1231.65,1445.4 1232.16,1445.36 1232.67,1445.31 1233.18,1445.32 1233.69,1445.34 1234.21,1445.29 1234.72,1445.24 1235.23,1445.24 1235.74,1445.23 1236.25,1445.28 1236.76,1445.33 1237.27,1445.33 1237.79,1445.32 1238.3,1445.28 1238.81,1445.24 1239.32,1445.23 1239.83,1445.22 1240.34,1445.17 1240.85,1445.11 1241.37,1445.14 1241.88,1445.17 1242.39,1445.13 1242.9,1445.09 1243.41,1445.07 1243.92,1445.05 1244.43,1445.05 1244.95,1445.04 1245.46,1445.04 1245.97,1445.04 1246.48,1445.08 1246.99,1445.12 1247.5,1445.1 1248.02,1445.09 1248.53,1445.13 1249.04,1445.17 1249.55,1445.2 1250.06,1445.23 1250.57,1445.25 1251.08,1445.27 1251.6,1445.27 1252.11,1445.26 1252.62,1445.25 1253.13,1445.24 1253.64,1445.26 1254.15,1445.29 1254.66,1445.23 1255.18,1445.17 1255.69,1445.14 1256.2,1445.12 1256.71,1445.19 1257.22,1445.25 1257.73,1445.24 1258.24,1445.24 1258.76,1445.23 1259.27,1445.23 1259.78,1445.2 1260.29,1445.17 1260.8,1445.16 1261.31,1445.15 1261.82,1445.13 1262.34,1445.11 1262.85,1445.14 1263.36,1445.18 1263.87,1445.13 1264.38,1445.08 1264.89,1445.07 1265.4,1445.06 1265.92,1445.07 1266.43,1445.09 1266.94,1445.11 1267.45,1445.12 1267.96,1445.15 1268.47,1445.18 1268.98,1445.2 1269.5,1445.21 1270.01,1445.19 1270.52,1445.18 1271.03,1445.16 1271.54,1445.15 1272.05,1445.16 1272.56,1445.17 1273.08,1445.15 1273.59,1445.13 1274.1,1445.13 1274.61,1445.13 1275.12,1445.12 1275.63,1445.1 1276.15,1445.11 1276.66,1445.11 1277.17,1445.16 1277.68,1445.2 1278.19,1445.2 1278.7,1445.2 1279.21,1445.24 1279.73,1445.28 1280.24,1445.29 1280.75,1445.31 1281.26,1445.31 1281.77,1445.32 1282.28,1445.33 1282.79,1445.34 1283.31,1445.38 1283.82,1445.42 1284.33,1445.44 1284.84,1445.45 1285.35,1445.48 1285.86,1445.51 1286.37,1445.51 1286.89,1445.52 1287.4,1445.53 1287.91,1445.54 1288.42,1445.6 1288.93,1445.65 1289.44,1445.62 1289.95,1445.58 1290.47,1445.57 1290.98,1445.55 1291.49,1445.54 1292,1445.54 1292.51,1445.48 1293.02,1445.43 1293.53,1445.41 1294.05,1445.4 1294.56,1445.41 1295.07,1445.41 1295.58,1445.42 1296.09,1445.43 1296.6,1445.45 1297.11,1445.47 1297.63,1445.48 1298.14,1445.49 1298.65,1445.54 1299.16,1445.59 1299.67,1445.6 1300.18,1445.61 1300.69,1445.59 1301.21,1445.57 1301.72,1445.59 1302.23,1445.6 1302.74,1445.61 1303.25,1445.62 1303.76,1445.62 1304.28,1445.63 1304.79,1445.62 1305.3,1445.6 1305.81,1445.58 1306.32,1445.56 1306.83,1445.52 1307.34,1445.49 1307.86,1445.49 1308.37,1445.5 1308.88,1445.48 1309.39,1445.46 1309.9,1445.47 1310.41,1445.47 1310.92,1445.47 1311.44,1445.46 1311.95,1445.48 1312.46,1445.51 1312.97,1445.51 1313.48,1445.52 1313.99,1445.54 1314.5,1445.57 1315.02,1445.56 1315.53,1445.55 1316.04,1445.55 1316.55,1445.54 1317.06,1445.52 1317.57,1445.49 1318.08,1445.55 1318.6,1445.6 1319.11,1445.59 1319.62,1445.57 1320.13,1445.61 1320.64,1445.65 1321.15,1445.62 1321.66,1445.6 1322.18,1445.59 1322.69,1445.59 1323.2,1445.59 1323.71,1445.6 1324.22,1445.56 1324.73,1445.52 1325.24,1445.54 1325.76,1445.57 1326.27,1445.52 1326.78,1445.47 1327.29,1445.49 1327.8,1445.51 1328.31,1445.54 1328.82,1445.57 1329.34,1445.53 1329.85,1445.49 1330.36,1445.5 1330.87,1445.5 1331.38,1445.54 1331.89,1445.58 1332.41,1445.54 1332.92,1445.51 1333.43,1445.47 1333.94,1445.42 1334.45,1445.44 1334.96,1445.47 1335.47,1445.45 1335.99,1445.43 1336.5,1445.39 1337.01,1445.35 1337.52,1445.38 1338.03,1445.42 1338.54,1445.42 1339.05,1445.42 1339.57,1445.45 1340.08,1445.48 1340.59,1445.52 1341.1,1445.56 1341.61,1445.57 1342.12,1445.57 1342.63,1445.54 1343.15,1445.5 1343.66,1445.51 1344.17,1445.51 1344.68,1445.49 1345.19,1445.48 1345.7,1445.44 1346.21,1445.4 1346.73,1445.4 1347.24,1445.39 1347.75,1445.4 1348.26,1445.4 1348.77,1445.4 1349.28,1445.39 1349.79,1445.42 1350.31,1445.44 1350.82,1445.44 1351.33,1445.44 1351.84,1445.41 1352.35,1445.38 1352.86,1445.38 1353.37,1445.38 1353.89,1445.37 1354.4,1445.36 1354.91,1445.37 1355.42,1445.39 1355.93,1445.41 1356.44,1445.43 1356.95,1445.42 1357.47,1445.42 1357.98,1445.42 1358.49,1445.42 1359,1445.46 1359.51,1445.5 1360.02,1445.54 1360.54,1445.57 1361.05,1445.51 1361.56,1445.46 1362.07,1445.49 1362.58,1445.52 1363.09,1445.51 1363.6,1445.51 1364.12,1445.52 1364.63,1445.54 1365.14,1445.53 1365.65,1445.53 1366.16,1445.52 1366.67,1445.5 1367.18,1445.52 1367.7,1445.54 1368.21,1445.52 1368.72,1445.49 1369.23,1445.5 1369.74,1445.51 1370.25,1445.53 1370.76,1445.54 1371.28,1445.52 1371.79,1445.5 1372.3,1445.48 1372.81,1445.46 1373.32,1445.44 1373.83,1445.42 1374.34,1445.39 1374.86,1445.37 1375.37,1445.42 1375.88,1445.48 1376.39,1445.47 1376.9,1445.47 1377.41,1445.37 1377.92,1445.27 1378.44,1445.25 1378.95,1445.22 1379.46,1445.2 1379.97,1445.18 1380.48,1445.17 1380.99,1445.16 1381.5,1445.13 1382.02,1445.09 1382.53,1445.06 1383.04,1445.03 1383.55,1445.07 1384.06,1445.11 1384.57,1445.06 1385.08,1445.01 1385.6,1445.06 1386.11,1445.12 1386.62,1445.13 1387.13,1445.15 1387.64,1445.14 1388.15,1445.14 1388.66,1445.18 1389.18,1445.22 1389.69,1445.18 1390.2,1445.13 1390.71,1445.17 1391.22,1445.2 1391.73,1445.18 1392.25,1445.15 1392.76,1445.16 1393.27,1445.16 1393.78,1445.12 1394.29,1445.08 1394.8,1445.11 1395.31,1445.14 1395.83,1445.11 1396.34,1445.09 1396.85,1445.07 1397.36,1445.05 1397.87,1445.04 1398.38,1445.03 1398.89,1445.04 1399.41,1445.05 1399.92,1445.04 1400.43,1445.03 1400.94,1445.05 1401.45,1445.07 1401.96,1445.05 1402.47,1445.03 1402.99,1445.05 1403.5,1445.08 1404.01,1445.06 1404.52,1445.05 1405.03,1445.06 1405.54,1445.07 1406.05,1445.12 1406.57,1445.18 1407.08,1445.12 1407.59,1445.07 1408.1,1445.07 1408.61,1445.07 1409.12,1445.06 1409.63,1445.06 1410.15,1445.08 1410.66,1445.1 1411.17,1445.11 1411.68,1445.13 1412.19,1445.16 1412.7,1445.19 1413.21,1445.21 1413.73,1445.23 1414.24,1445.23 1414.75,1445.23 1415.26,1445.19 1415.77,1445.16 1416.28,1445.15 1416.79,1445.15 1417.31,1445.12 1417.82,1445.09 1418.33,1445.08 1418.84,1445.07 1419.35,1445.09 1419.86,1445.11 1420.38,1445.11 1420.89,1445.11 1421.4,1445.12 1421.91,1445.13 1422.42,1445.12 1422.93,1445.1 1423.44,1445.09 1423.96,1445.09 1424.47,1445.11 1424.98,1445.12 1425.49,1445.15 1426,1445.18 1426.51,1445.19 1427.02,1445.21 1427.54,1445.23 1428.05,1445.26 1428.56,1445.28 1429.07,1445.31 1429.58,1445.29 1430.09,1445.28 1430.6,1445.28 1431.12,1445.28 1431.63,1445.32 1432.14,1445.36 1432.65,1445.36 1433.16,1445.36 1433.67,1445.4 1434.18,1445.43 1434.7,1445.39 1435.21,1445.35 1435.72,1445.29 1436.23,1445.24 1436.74,1445.23 1437.25,1445.22 1437.76,1445.2 1438.28,1445.17 1438.79,1445.19 1439.3,1445.22 1439.81,1445.24 1440.32,1445.27 1440.83,1445.24 1441.34,1445.22 1441.86,1445.21 1442.37,1445.2 1442.88,1445.17 1443.39,1445.13 1443.9,1445.09 1444.41,1445.05 1444.92,1445.05 1445.44,1445.05 1445.95,1445.04 1446.46,1445.02 1446.97,1445.05 1447.48,1445.07 1447.99,1445.03 1448.51,1445 1449.02,1445.01 1449.53,1445.03 1450.04,1445.04 1450.55,1445.06 1451.06,1445.07 1451.57,1445.08 1452.09,1445.04 1452.6,1445.01 1453.11,1444.97 1453.62,1444.94 1454.13,1444.96 1454.64,1444.98 1455.15,1445 1455.67,1445.02 1456.18,1445.01 1456.69,1444.99 1457.2,1445.01 1457.71,1445.03 1458.22,1445.03 1458.73,1445.03 1459.25,1445.06 1459.76,1445.09 1460.27,1445.09 1460.78,1445.09 1461.29,1445.09 1461.8,1445.09 1462.31,1445.1 1462.83,1445.11 1463.34,1445.08 1463.85,1445.04 1464.36,1445.05 1464.87,1445.07 1465.38,1445.07 1465.89,1445.08 1466.41,1445.12 1466.92,1445.17 1467.43,1445.13 1467.94,1445.09 1468.45,1445.04 1468.96,1445 1469.47,1444.97 1469.99,1444.94 1470.5,1444.98 1471.01,1445.03 1471.52,1445 1472.03,1444.97 1472.54,1444.94 1473.05,1444.9 1473.57,1444.91 1474.08,1444.92 1474.59,1444.9 1475.1,1444.89 1475.61,1444.9 1476.12,1444.92 1476.64,1444.93 1477.15,1444.95 1477.66,1444.91 1478.17,1444.87 1478.68,1444.89 1479.19,1444.9 1479.7,1444.92 1480.22,1444.93 1480.73,1444.9 1481.24,1444.86 1481.75,1444.9 1482.26,1444.94 1482.77,1444.92 1483.28,1444.9 1483.8,1444.94 1484.31,1444.97 1484.82,1444.96 1485.33,1444.96 1485.84,1444.97 1486.35,1444.98 1486.86,1444.96 1487.38,1444.94 1487.89,1444.95 1488.4,1444.97 1488.91,1444.97 1489.42,1444.97 1489.93,1444.98 1490.44,1444.99 1490.96,1445.02 1491.47,1445.04 1491.98,1445.06 1492.49,1445.08 1493,1445.09 1493.51,1445.1 1494.02,1445.12 1494.54,1445.15 1495.05,1445.13 1495.56,1445.12 1496.07,1445.11 1496.58,1445.11 1497.09,1445.09 1497.6,1445.07 1498.12,1445.1 1498.63,1445.14 1499.14,1445.11 1499.65,1445.08 1500.16,1445.09 1500.67,1445.09 1501.18,1445.06 1501.7,1445.03 1502.21,1445.03 1502.72,1445.03 1503.23,1445.04 1503.74,1445.04 1504.25,1445.01 1504.77,1444.98 1505.28,1444.95 1505.79,1444.92 1506.3,1444.89 1506.81,1444.87 1507.32,1444.84 1507.83,1444.82 1508.35,1444.88 1508.86,1444.95 1509.37,1444.92 1509.88,1444.9 1510.39,1444.86 1510.9,1444.82 1511.41,1444.83 1511.93,1444.84 1512.44,1444.86 1512.95,1444.88 1513.46,1444.87 1513.97,1444.86 1514.48,1444.79 1514.99,1444.73 1515.51,1444.69 1516.02,1444.66 1516.53,1444.65 1517.04,1444.63 1517.55,1444.61 1518.06,1444.6 1518.57,1444.56 1519.09,1444.52 1519.6,1444.55 1520.11,1444.58 1520.62,1444.6 1521.13,1444.61 1521.64,1444.64 1522.15,1444.67 1522.67,1444.65 1523.18,1444.63 1523.69,1444.59 1524.2,1444.55 1524.71,1444.58 1525.22,1444.61 1525.73,1444.59 1526.25,1444.57 1526.76,1444.54 1527.27,1444.51 1527.78,1444.55 1528.29,1444.59 1528.8,1444.64 1529.31,1444.68 1529.83,1444.68 1530.34,1444.68 1530.85,1444.66 1531.36,1444.65 1531.87,1444.65 1532.38,1444.64 1532.9,1444.67 1533.41,1444.7 1533.92,1444.69 1534.43,1444.69 1534.94,1444.67 1535.45,1444.64 1535.96,1444.62 1536.48,1444.6 1536.99,1444.59 1537.5,1444.57 1538.01,1444.56 1538.52,1444.55 1539.03,1444.55 1539.54,1444.54 1540.06,1444.54 1540.57,1444.54 1541.08,1444.58 1541.59,1444.61 1542.1,1444.6 1542.61,1444.59 1543.12,1444.62 1543.64,1444.65 1544.15,1444.65 1544.66,1444.65 1545.17,1444.62 1545.68,1444.59 1546.19,1444.62 1546.7,1444.65 1547.22,1444.65 1547.73,1444.64 1548.24,1444.66 1548.75,1444.67 1549.26,1444.64 1549.77,1444.61 1550.28,1444.62 1550.8,1444.64 1551.31,1444.63 1551.82,1444.63 1552.33,1444.63 1552.84,1444.64 1553.35,1444.7 1553.86,1444.76 1554.38,1444.75 1554.89,1444.75 1555.4,1444.75 1555.91,1444.75 1556.42,1444.79 1556.93,1444.83 1557.44,1444.82 1557.96,1444.8 1558.47,1444.76 1558.98,1444.72 1559.49,1444.7 1560,1444.68 1560.51,1444.69 1561.03,1444.69 1561.54,1444.67 1562.05,1444.65 1562.56,1444.67 1563.07,1444.68 1563.58,1444.71 1564.09,1444.74 1564.61,1444.78 1565.12,1444.82 1565.63,1444.85 1566.14,1444.89 1566.65,1444.91 1567.16,1444.92 1567.67,1444.96 1568.19,1445 1568.7,1444.98 1569.21,1444.97 1569.72,1444.94 1570.23,1444.91 1570.74,1444.91 1571.25,1444.91 1571.77,1444.89 1572.28,1444.88 1572.79,1444.89 1573.3,1444.9 1573.81,1444.86 1574.32,1444.82 1574.83,1444.84 1575.35,1444.86 1575.86,1444.83 1576.37,1444.79 1576.88,1444.76 1577.39,1444.73 1577.9,1444.76 1578.41,1444.79 1578.93,1444.84 1579.44,1444.88 1579.95,1444.88 1580.46,1444.88 1580.97,1444.89 1581.48,1444.89 1581.99,1444.93 1582.51,1444.97 1583.02,1444.98 1583.53,1444.99 1584.04,1445.02 1584.55,1445.06 1585.06,1445.02 1585.57,1444.99 1586.09,1445.02 1586.6,1445.04 1587.11,1445.05 1587.62,1445.05 1588.13,1445.03 1588.64,1445 1589.15,1444.99 1589.67,1444.97 1590.18,1444.97 1590.69,1444.96 1591.2,1444.95 1591.71,1444.94 1592.22,1444.96 1592.74,1444.99 1593.25,1444.96 1593.76,1444.93 1594.27,1444.89 1594.78,1444.85 1595.29,1444.84 1595.8,1444.83 1596.32,1444.84 1596.83,1444.85 1597.34,1444.84 1597.85,1444.82 1598.36,1444.81 1598.87,1444.81 1599.38,1444.81 1599.9,1444.81 1600.41,1444.77 1600.92,1444.74 1601.43,1444.73 1601.94,1444.72 1602.45,1444.71 1602.96,1444.71 1603.48,1444.73 1603.99,1444.75 1604.5,1444.76 1605.01,1444.76 1605.52,1444.77 1606.03,1444.78 1606.54,1444.81 1607.06,1444.84 1607.57,1444.82 1608.08,1444.8 1608.59,1444.83 1609.1,1444.85 1609.61,1444.91 1610.12,1444.96 1610.64,1444.97 1611.15,1444.98 1611.66,1444.97 1612.17,1444.96 1612.68,1444.97 1613.19,1444.98 1613.7,1444.96 1614.22,1444.94 1614.73,1444.97 1615.24,1444.99 1615.75,1444.98 1616.26,1444.96 1616.77,1444.9 1617.28,1444.84 1617.8,1444.85 1618.31,1444.86 1618.82,1444.91 1619.33,1444.96 1619.84,1444.97 1620.35,1444.98 1620.87,1445.01 1621.38,1445.03 1621.89,1445.08 1622.4,1445.12 1622.91,1445.18 1623.42,1445.24 1623.93,1445.22 1624.45,1445.21 1624.96,1445.18 1625.47,1445.16 1625.98,1445.12 1626.49,1445.07 1627,1445.09 1627.51,1445.11 1628.03,1445.11 1628.54,1445.1 1629.05,1445.13 1629.56,1445.15 1630.07,1445.17 1630.58,1445.19 1631.09,1445.16 1631.61,1445.13 1632.12,1445.15 1632.63,1445.17 1633.14,1445.16 1633.65,1445.14 1634.16,1445.15 1634.67,1445.16 1635.19,1445.17 1635.7,1445.19 1636.21,1445.18 1636.72,1445.16 1637.23,1445.14 1637.74,1445.11 1638.25,1445.1 1638.77,1445.09 1639.28,1445.05 1639.79,1445.02 1640.3,1445 1640.81,1444.97 1641.32,1444.94 1641.83,1444.91 1642.35,1444.88 1642.86,1444.84 1643.37,1444.89 1643.88,1444.94 1644.39,1444.94 1644.9,1444.93 1645.41,1444.91 1645.93,1444.89 1646.44,1444.96 1646.95,1445.02 1647.46,1445.03 1647.97,1445.05 1648.48,1445.01 1649,1444.97 1649.51,1444.99 1650.02,1445 1650.53,1444.97 1651.04,1444.94 1651.55,1444.96 1652.06,1444.97 1652.58,1444.95 1653.09,1444.93 1653.6,1444.92 1654.11,1444.92 1654.62,1444.95 1655.13,1444.98 1655.64,1444.97 1656.16,1444.96 1656.67,1444.98 1657.18,1444.99 1657.69,1445.01 1658.2,1445.03 1658.71,1445.07 1659.22,1445.11 1659.74,1445.06 1660.25,1445 1660.76,1445.03 1661.27,1445.05 1661.78,1445.05 1662.29,1445.05 1662.8,1445.09 1663.32,1445.12 1663.83,1445.13 1664.34,1445.13 1664.85,1445.15 1665.36,1445.18 1665.87,1445.17 1666.38,1445.17 1666.9,1445.19 1667.41,1445.21 1667.92,1445.18 1668.43,1445.14 1668.94,1445.16 1669.45,1445.17 1669.96,1445.17 1670.48,1445.16 1670.99,1445.18 1671.5,1445.2 1672.01,1445.15 1672.52,1445.1 1673.03,1445.06 1673.54,1445.02 1674.06,1445.02 1674.57,1445.02 1675.08,1444.99 1675.59,1444.96 1676.1,1444.99 1676.61,1445.01 1677.13,1445.01 1677.64,1445.01 1678.15,1445.02 1678.66,1445.04 1679.17,1445.04 1679.68,1445.03 1680.19,1445.06 1680.71,1445.1 1681.22,1445.11 1681.73,1445.13 1682.24,1445.15 1682.75,1445.17 1683.26,1445.24 1683.77,1445.3 1684.29,1445.28 1684.8,1445.27 1685.31,1445.26 1685.82,1445.26 1686.33,1445.23 1686.84,1445.2 1687.35,1445.22 1687.87,1445.25 1688.38,1445.24 1688.89,1445.24 1689.4,1445.28 1689.91,1445.32 1690.42,1445.29 1690.93,1445.27 1691.45,1445.29 1691.96,1445.31 1692.47,1445.31 1692.98,1445.3 1693.49,1445.26 1694,1445.21 1694.51,1445.22 1695.03,1445.23 1695.54,1445.2 1696.05,1445.17 1696.56,1445.18 1697.07,1445.2 1697.58,1445.22 1698.09,1445.24 1698.61,1445.23 1699.12,1445.22 1699.63,1445.2 1700.14,1445.18 1700.65,1445.19 1701.16,1445.19 1701.67,1445.18 1702.19,1445.17 1702.7,1445.17 1703.21,1445.16 1703.72,1445.19 1704.23,1445.21 1704.74,1445.17 1705.26,1445.12 1705.77,1445.12 1706.28,1445.12 1706.79,1445.12 1707.3,1445.13 1707.81,1445.12 1708.32,1445.1 1708.84,1445.1 1709.35,1445.09 1709.86,1445.13 1710.37,1445.16 1710.88,1445.15 1711.39,1445.13 1711.9,1445.12 1712.42,1445.12 1712.93,1445.09 1713.44,1445.07 1713.95,1445.11 1714.46,1445.15 1714.97,1445.15 1715.48,1445.15 1716,1445.14 1716.51,1445.12 1717.02,1445.12 1717.53,1445.13 1718.04,1445.14 1718.55,1445.14 1719.06,1445.17 1719.58,1445.2 1720.09,1445.18 1720.6,1445.16 1721.11,1445.16 1721.62,1445.16 1722.13,1445.18 1722.64,1445.21 1723.16,1445.28 1723.67,1445.34 1724.18,1445.31 1724.69,1445.28 1725.2,1445.29 1725.71,1445.3 1726.22,1445.34 1726.74,1445.38 1727.25,1445.37 1727.76,1445.37 1728.27,1445.36 1728.78,1445.35 1729.29,1445.36 1729.8,1445.36 1730.32,1445.35 1730.83,1445.34 1731.34,1445.41 1731.85,1445.48 1732.36,1445.47 1732.87,1445.46 1733.39,1445.48 1733.9,1445.49 1734.41,1445.57 1734.92,1445.64 1735.43,1445.67 1735.94,1445.7 1736.45,1445.7 1736.97,1445.7 1737.48,1445.65 1737.99,1445.61 1738.5,1445.62 1739.01,1445.63 1739.52,1445.65 1740.03,1445.66 1740.55,1445.69 1741.06,1445.72 1741.57,1445.71 1742.08,1445.7 1742.59,1445.7 1743.1,1445.7 1743.61,1445.67 1744.13,1445.65 1744.64,1445.63 1745.15,1445.6 1745.66,1445.6 1746.17,1445.59 1746.68,1445.59 1747.19,1445.59 1747.71,1445.59 1748.22,1445.59 1748.73,1445.6 1749.24,1445.62 1749.75,1445.62 1750.26,1445.62 1750.77,1445.58 1751.29,1445.53 1751.8,1445.57 1752.31,1445.6 1752.82,1445.56 1753.33,1445.52 1753.84,1445.52 1754.35,1445.51 1754.87,1445.51 1755.38,1445.52 1755.89,1445.5 1756.4,1445.48 1756.91,1445.5 1757.42,1445.52 1757.93,1445.53 1758.45,1445.54 1758.96,1445.52 1759.47,1445.51 1759.98,1445.45 1760.49,1445.39 1761,1445.41 1761.52,1445.43 1762.03,1445.41 1762.54,1445.39 1763.05,1445.36 1763.56,1445.34 1764.07,1445.34 1764.58,1445.35 1765.1,1445.36 1765.61,1445.38 1766.12,1445.35 1766.63,1445.32 1767.14,1445.24 1767.65,1445.15 1768.16,1445.15 1768.68,1445.16 1769.19,1445.16 1769.7,1445.16 1770.21,1445.18 1770.72,1445.2 1771.23,1445.2 1771.74,1445.2 1772.26,1445.17 1772.77,1445.14 1773.28,1445.17 1773.79,1445.19 1774.3,1445.23 1774.81,1445.26 1775.32,1445.23 1775.84,1445.2 1776.35,1445.25 1776.86,1445.29 1777.37,1445.26 1777.88,1445.24 1778.39,1445.23 1778.9,1445.23 1779.42,1445.23 1779.93,1445.24 1780.44,1445.21 1780.95,1445.17 1781.46,1445.14 1781.97,1445.1 1782.48,1445.15 1783,1445.19 1783.51,1445.17 1784.02,1445.15 1784.53,1445.18 1785.04,1445.21 1785.55,1445.17 1786.06,1445.13 1786.58,1445.08 1787.09,1445.03 1787.6,1445.05 1788.11,1445.08 1788.62,1445.04 1789.13,1445.01 1789.64,1445.03 1790.16,1445.06 1790.67,1445.04 1791.18,1445.03 1791.69,1445.06 1792.2,1445.08 1792.71,1445.1 1793.23,1445.12 1793.74,1445.13 1794.25,1445.14 1794.76,1445.05 1795.27,1444.97 1795.78,1444.99 1796.29,1445 1796.81,1444.96 1797.32,1444.92 1797.83,1444.96 1798.34,1444.99 1798.85,1444.98 1799.36,1444.96 1799.87,1445 1800.39,1445.03 1800.9,1445.03 1801.41,1445.03 1801.92,1445.03 1802.43,1445.04 1802.94,1445.07 1803.45,1445.09 1803.97,1445.12 1804.48,1445.14 1804.99,1445.18 1805.5,1445.22 1806.01,1445.23 1806.52,1445.24 1807.03,1445.23 1807.55,1445.21 1808.06,1445.18 1808.57,1445.14 1809.08,1445.15 1809.59,1445.17 1810.1,1445.15 1810.61,1445.13 1811.13,1445.17 1811.64,1445.21 1812.15,1445.17 1812.66,1445.14 1813.17,1445.14 1813.68,1445.14 1814.19,1445.19 1814.71,1445.24 1815.22,1445.24 1815.73,1445.24 1816.24,1445.24 1816.75,1445.25 1817.26,1445.19 1817.77,1445.12 1818.29,1445.07 1818.8,1445.01 1819.31,1445.04 1819.82,1445.06 1820.33,1445 1820.84,1444.94 1821.36,1444.92 1821.87,1444.9 1822.38,1444.93 1822.89,1444.95 1823.4,1444.94 1823.91,1444.92 1824.42,1444.89 1824.94,1444.85 1825.45,1444.9 1825.96,1444.96 1826.47,1444.95 1826.98,1444.95 1827.49,1444.97 1828,1445 1828.52,1445.01 1829.03,1445.02 1829.54,1445.02 1830.05,1445.02 1830.56,1445.03 1831.07,1445.04 1831.58,1445.08 1832.1,1445.11 1832.61,1445.12 1833.12,1445.13 1833.63,1445.14 1834.14,1445.16 1834.65,1445.14 1835.16,1445.12 1835.68,1445.16 1836.19,1445.2 1836.7,1445.22 1837.21,1445.24 1837.72,1445.22 1838.23,1445.21 1838.74,1445.23 1839.26,1445.24 1839.77,1445.24 1840.28,1445.23 1840.79,1445.25 1841.3,1445.26 1841.81,1445.28 1842.32,1445.29 1842.84,1445.33 1843.35,1445.36 1843.86,1445.34 1844.37,1445.32 1844.88,1445.38 1845.39,1445.43 1845.9,1445.46 1846.42,1445.49 1846.93,1445.48 1847.44,1445.48 1847.95,1445.45 1848.46,1445.41 1848.97,1445.42 1849.49,1445.44 1850,1445.41 1850.51,1445.39 1851.02,1445.37 1851.53,1445.35 1852.04,1445.34 1852.55,1445.33 1853.07,1445.41 1853.58,1445.48 1854.09,1445.46 1854.6,1445.44 1855.11,1445.45 1855.62,1445.46 1856.13,1445.42 1856.65,1445.38 1857.16,1445.44 1857.67,1445.49 1858.18,1445.5 1858.69,1445.52 1859.2,1445.49 1859.71,1445.46 1860.23,1445.42 1860.74,1445.37 1861.25,1445.4 1861.76,1445.43 1862.27,1445.44 1862.78,1445.45 1863.29,1445.44 1863.81,1445.42 1864.32,1445.43 1864.83,1445.44 1865.34,1445.46 1865.85,1445.48 1866.36,1445.46 1866.87,1445.45 1867.39,1445.43 1867.9,1445.41 1868.41,1445.39 1868.92,1445.36 1869.43,1445.36 1869.94,1445.35 1870.45,1445.29 1870.97,1445.23 1871.48,1445.22 1871.99,1445.21 1872.5,1445.19 1873.01,1445.17 1873.52,1445.16 1874.03,1445.16 1874.55,1445.18 1875.06,1445.19 1875.57,1445.13 1876.08,1445.07 1876.59,1445.06 1877.1,1445.05 1877.62,1445.08 1878.13,1445.11 1878.64,1445.1 1879.15,1445.1 1879.66,1445.13 1880.17,1445.16 1880.68,1445.17 1881.2,1445.17 1881.71,1445.15 1882.22,1445.13 1882.73,1445.11 1883.24,1445.09 1883.75,1445.13 1884.26,1445.16 1884.78,1445.12 1885.29,1445.09 1885.8,1445.1 1886.31,1445.1 1886.82,1445.11 1887.33,1445.12 1887.84,1445.11 1888.36,1445.1 1888.87,1445.07 1889.38,1445.04 1889.89,1445.05 1890.4,1445.05 1890.91,1445.08 1891.42,1445.1 1891.94,1445.11 1892.45,1445.11 1892.96,1445.15 1893.47,1445.2 1893.98,1445.23 1894.49,1445.27 1895,1445.33 1895.52,1445.4 1896.03,1445.38 1896.54,1445.37 1897.05,1445.34 1897.56,1445.31 1898.07,1445.3 1898.58,1445.3 1899.1,1445.3 1899.61,1445.3 1900.12,1445.32 1900.63,1445.34 1901.14,1445.32 1901.65,1445.31 1902.16,1445.33 1902.68,1445.34 1903.19,1445.36 1903.7,1445.38 1904.21,1445.37 1904.72,1445.36 1905.23,1445.34 1905.75,1445.33 1906.26,1445.33 1906.77,1445.34 1907.28,1445.33 1907.79,1445.32 1908.3,1445.32 1908.81,1445.32 1909.33,1445.3 1909.84,1445.28 1910.35,1445.33 1910.86,1445.38 1911.37,1445.36 1911.88,1445.33 1912.39,1445.31 1912.91,1445.29 1913.42,1445.28 1913.93,1445.26 1914.44,1445.26 1914.95,1445.27 1915.46,1445.26 1915.97,1445.26 1916.49,1445.21 1917,1445.16 1917.51,1445.22 1918.02,1445.28 1918.53,1445.24 1919.04,1445.19 1919.55,1445.23 1920.07,1445.26 1920.58,1445.23 1921.09,1445.19 1921.6,1445.2 1922.11,1445.21 1922.62,1445.26 1923.13,1445.32 1923.65,1445.34 1924.16,1445.36 1924.67,1445.37 1925.18,1445.38 1925.69,1445.41 1926.2,1445.44 1926.71,1445.46 1927.23,1445.48 1927.74,1445.47 1928.25,1445.47 1928.76,1445.45 1929.27,1445.43 1929.78,1445.38 1930.29,1445.32 1930.81,1445.38 1931.32,1445.43 1931.83,1445.39 1932.34,1445.36 1932.85,1445.31 1933.36,1445.25 1933.88,1445.3 1934.39,1445.34 1934.9,1445.37 1935.41,1445.4 1935.92,1445.44 1936.43,1445.47 1936.94,1445.51 1937.46,1445.55 1937.97,1445.57 1938.48,1445.59 1938.99,1445.55 1939.5,1445.51 1940.01,1445.54 1940.52,1445.56 1941.04,1445.56 1941.55,1445.56 1942.06,1445.52 1942.57,1445.48 1943.08,1445.51 1943.59,1445.54 1944.1,1445.55 1944.62,1445.56 1945.13,1445.58 1945.64,1445.59 1946.15,1445.56 1946.66,1445.53 1947.17,1445.58 1947.68,1445.63 1948.2,1445.58 1948.71,1445.52 1949.22,1445.52 1949.73,1445.52 1950.24,1445.48 1950.75,1445.45 1951.26,1445.45 1951.78,1445.45 1952.29,1445.46 1952.8,1445.46 1953.31,1445.48 1953.82,1445.49 1954.33,1445.49 1954.84,1445.5 1955.36,1445.48 1955.87,1445.47 1956.38,1445.45 1956.89,1445.43 1957.4,1445.41 1957.91,1445.39 1958.42,1445.41 1958.94,1445.43 1959.45,1445.44 1959.96,1445.45 1960.47,1445.41 1960.98,1445.36 1961.49,1445.39 1962.01,1445.41 1962.52,1445.42 1963.03,1445.43 1963.54,1445.4 1964.05,1445.36 1964.56,1445.39 1965.07,1445.41 1965.59,1445.42 1966.1,1445.42 1966.61,1445.42 1967.12,1445.43 1967.63,1445.42 1968.14,1445.41 1968.65,1445.44 1969.17,1445.47 1969.68,1445.49 1970.19,1445.5 1970.7,1445.51 1971.21,1445.52 1971.72,1445.49 1972.23,1445.47 1972.75,1445.46 1973.26,1445.45 1973.77,1445.47 1974.28,1445.48 1974.79,1445.45 1975.3,1445.43 1975.81,1445.39 1976.33,1445.36 1976.84,1445.38 1977.35,1445.39 1977.86,1445.38 1978.37,1445.38 1978.88,1445.38 1979.39,1445.38 1979.91,1445.37 1980.42,1445.35 1980.93,1445.34 1981.44,1445.34 1981.95,1445.35 1982.46,1445.37 1982.97,1445.41 1983.49,1445.45 1984,1445.42 1984.51,1445.39 1985.02,1445.37 1985.53,1445.35 1986.04,1445.34 1986.55,1445.33 1987.07,1445.28 1987.58,1445.23 1988.09,1445.27 1988.6,1445.32 1989.11,1445.33 1989.62,1445.34 1990.13,1445.36 1990.65,1445.37 1991.16,1445.39 1991.67,1445.4 1992.18,1445.4 1992.69,1445.4 1993.2,1445.44 1993.72,1445.48 1994.23,1445.47 1994.74,1445.46 1995.25,1445.47 1995.76,1445.48 1996.27,1445.45 1996.78,1445.43 1997.3,1445.44 1997.81,1445.45 1998.32,1445.45 1998.83,1445.44 1999.34,1445.44 1999.85,1445.44 2000.36,1445.46 2000.88,1445.49 2001.39,1445.43 2001.9,1445.38 2002.41,1445.4 2002.92,1445.42 2003.43,1445.36 2003.94,1445.31 2004.46,1445.31 2004.97,1445.31 2005.48,1445.34 2005.99,1445.36 2006.5,1445.35 2007.01,1445.35 2007.52,1445.38 2008.04,1445.41 2008.55,1445.4 2009.06,1445.39 2009.57,1445.35 2010.08,1445.31 2010.59,1445.32 2011.1,1445.33 2011.62,1445.34 2012.13,1445.35 2012.64,1445.37 2013.15,1445.38 2013.66,1445.42 2014.17,1445.45 2014.68,1445.48 2015.2,1445.51 2015.71,1445.51 2016.22,1445.52 2016.73,1445.52 2017.24,1445.52 2017.75,1445.57 2018.26,1445.63 2018.78,1445.62 2019.29,1445.61 2019.8,1445.62 2020.31,1445.64 2020.82,1445.6 2021.33,1445.56 2021.85,1445.52 2022.36,1445.48 2022.87,1445.51 2023.38,1445.54 2023.89,1445.53 2024.4,1445.52 2024.91,1445.48 2025.43,1445.44 2025.94,1445.43 2026.45,1445.42 2026.96,1445.41 2027.47,1445.41 2027.98,1445.47 2028.49,1445.53 2029.01,1445.5 2029.52,1445.48 2030.03,1445.48 2030.54,1445.48 2031.05,1445.49 2031.56,1445.49 2032.07,1445.54 2032.59,1445.59 2033.1,1445.57 2033.61,1445.56 2034.12,1445.58 2034.63,1445.6 2035.14,1445.58 2035.65,1445.56 2036.17,1445.53 2036.68,1445.51 2037.19,1445.48 2037.7,1445.45 2038.21,1445.42 2038.72,1445.4 2039.23,1445.44 2039.75,1445.49 2040.26,1445.46 2040.77,1445.43 2041.28,1445.41 2041.79,1445.39 2042.3,1445.39 2042.81,1445.39 2043.33,1445.44 2043.84,1445.49 2044.35,1445.49 2044.86,1445.49 2045.37,1445.48 2045.88,1445.47 2046.39,1445.44 2046.91,1445.4 2047.42,1445.4 2047.93,1445.4 2048.44,1445.38 2048.95,1445.35 2049.46,1445.32 2049.98,1445.28 2050.49,1445.25 2051,1445.23 2051.51,1445.22 2052.02,1445.2 2052.53,1445.21 2053.04,1445.22 2053.56,1445.16 2054.07,1445.11 2054.58,1445.22 2055.09,1445.32 2055.6,1445.29 2056.11,1445.27 2056.62,1445.32 2057.14,1445.37 2057.65,1445.34 2058.16,1445.31 2058.67,1445.28 2059.18,1445.25 2059.69,1445.24 2060.2,1445.24 2060.72,1445.2 2061.23,1445.16 2061.74,1445.16 2062.25,1445.16 2062.76,1445.13 2063.27,1445.11 2063.78,1445.16 2064.3,1445.21 2064.81,1445.19 2065.32,1445.16 2065.83,1445.21 2066.34,1445.26 2066.85,1445.22 2067.36,1445.19 2067.88,1445.18 2068.39,1445.17 2068.9,1445.19 2069.41,1445.22 2069.92,1445.17 2070.43,1445.13 2070.94,1445.16 2071.46,1445.19 2071.97,1445.25 2072.48,1445.3 2072.99,1445.3 2073.5,1445.3 2074.01,1445.32 2074.52,1445.33 2075.04,1445.32 2075.55,1445.3 2076.06,1445.29 2076.57,1445.28 2077.08,1445.21 2077.59,1445.15 2078.11,1445.18 2078.62,1445.2 2079.13,1445.2 2079.64,1445.21 2080.15,1445.22 2080.66,1445.24 2081.17,1445.23 2081.69,1445.21 2082.2,1445.23 2082.71,1445.24 2083.22,1445.26 2083.73,1445.28 2084.24,1445.27 2084.75,1445.27 2085.27,1445.23 2085.78,1445.19 2086.29,1445.22 2086.8,1445.24 2087.31,1445.26 2087.82,1445.27 2088.33,1445.29 2088.85,1445.3 2089.36,1445.31 2089.87,1445.32 2090.38,1445.31 2090.89,1445.3 2091.4,1445.31 2091.91,1445.31 2092.43,1445.31 2092.94,1445.3 2093.45,1445.32 2093.96,1445.34 2094.47,1445.31 2094.98,1445.27 2095.49,1445.23 2096.01,1445.19 2096.52,1445.2 2097.03,1445.2 2097.54,1445.2 2098.05,1445.19 2098.56,1445.17 2099.07,1445.15 2099.59,1445.18 2100.1,1445.2 2100.61,1445.2 2101.12,1445.2 2101.63,1445.22 2102.14,1445.24 2102.65,1445.2 2103.17,1445.16 2103.68,1445.17 2104.19,1445.19 2104.7,1445.19 2105.21,1445.19 2105.72,1445.14 2106.24,1445.08 2106.75,1445.07 2107.26,1445.05 2107.77,1445.12 2108.28,1445.19 2108.79,1445.2 2109.3,1445.2 2109.82,1445.15 2110.33,1445.1 2110.84,1445.09 2111.35,1445.08 2111.86,1445.06 2112.37,1445.04 2112.88,1445.03 2113.4,1445.02 2113.91,1445.05 2114.42,1445.08 2114.93,1445.08 2115.44,1445.08 2115.95,1445.04 2116.46,1445 2116.98,1445.01 2117.49,1445.02 2118,1445.04 2118.51,1445.05 2119.02,1445.06 2119.53,1445.06 2120.04,1445.05 2120.56,1445.04 2121.07,1445 2121.58,1444.96 2122.09,1444.99 2122.6,1445.02 2123.11,1444.99 2123.62,1444.95 2124.14,1444.9 2124.65,1444.86 2125.16,1444.88 2125.67,1444.91 2126.18,1444.85 2126.69,1444.79 2127.2,1444.74 2127.72,1444.69 2128.23,1444.73 2128.74,1444.76 2129.25,1444.83 2129.76,1444.89 2130.27,1444.86 2130.78,1444.83 2131.3,1444.85 2131.81,1444.86 2132.32,1444.88 2132.83,1444.9 2133.34,1444.92 2133.85,1444.95 2134.37,1444.93 2134.88,1444.92 2135.39,1444.87 2135.9,1444.82 2136.41,1444.76 2136.92,1444.7 2137.43,1444.75 2137.95,1444.8 2138.46,1444.82 2138.97,1444.84 2139.48,1444.86 2139.99,1444.87 2140.5,1444.87 2141.01,1444.88 2141.53,1444.92 2142.04,1444.95 2142.55,1444.98 2143.06,1445 2143.57,1445.03 2144.08,1445.06 2144.59,1445.08 2145.11,1445.11 2145.62,1445.07 2146.13,1445.03 2146.64,1445.05 2147.15,1445.07 2147.66,1445.02 2148.17,1444.97 2148.69,1444.99 2149.2,1445 2149.71,1444.98 2150.22,1444.95 2150.73,1444.95 2151.24,1444.95 2151.75,1444.99 2152.27,1445.03 2152.78,1445.02 2153.29,1445.01 2153.8,1445.07 2154.31,1445.14 2154.82,1445.1 2155.33,1445.06 2155.85,1445.08 2156.36,1445.1 2156.87,1445.1 2157.38,1445.11 2157.89,1445.12 2158.4,1445.14 2158.91,1445.11 2159.43,1445.08 2159.94,1445.1 2160.45,1445.12 2160.96,1445.12 2161.47,1445.12 2161.98,1445.11 2162.49,1445.09 2163.01,1445.13 2163.52,1445.16 2164.03,1445.16 2164.54,1445.16 2165.05,1445.2 2165.56,1445.24 2166.08,1445.31 2166.59,1445.38 2167.1,1445.41 2167.61,1445.44 2168.12,1445.41 2168.63,1445.39 2169.14,1445.34 2169.66,1445.3 2170.17,1445.3 2170.68,1445.29 2171.19,1445.3 2171.7,1445.3 2172.21,1445.26 2172.72,1445.23 2173.24,1445.18 2173.75,1445.12 2174.26,1445.17 2174.77,1445.21 2175.28,1445.18 2175.79,1445.15 2176.3,1445.14 2176.82,1445.13 2177.33,1445.14 2177.84,1445.14 2178.35,1445.18 2178.86,1445.23 2179.37,1445.25 2179.88,1445.26 2180.4,1445.28 2180.91,1445.29 2181.42,1445.3 2181.93,1445.3 2182.44,1445.27 2182.95,1445.24 2183.46,1445.29 2183.98,1445.34 2184.49,1445.35 2185,1445.36 2185.51,1445.35 2186.02,1445.34 2186.53,1445.28 2187.04,1445.21 2187.56,1445.23 2188.07,1445.24 2188.58,1445.2 2189.09,1445.16 2189.6,1445.18 2190.11,1445.21 2190.62,1445.23 2191.14,1445.25 2191.65,1445.22 2192.16,1445.19 2192.67,1445.27 2193.18,1445.34 2193.69,1445.38 2194.21,1445.42 2194.72,1445.4 2195.23,1445.38 2195.74,1445.41 2196.25,1445.44 2196.76,1445.48 2197.27,1445.52 2197.79,1445.51 2198.3,1445.5 2198.81,1445.5 2199.32,1445.5 2199.83,1445.47 2200.34,1445.45 2200.85,1445.4 2201.37,1445.35 2201.88,1445.37 2202.39,1445.39 2202.9,1445.37 2203.41,1445.34 2203.92,1445.35 2204.43,1445.35 2204.95,1445.32 2205.46,1445.3 2205.97,1445.29 2206.48,1445.28 2206.99,1445.31 2207.5,1445.34 2208.01,1445.35 2208.53,1445.36 2209.04,1445.33 2209.55,1445.3 2210.06,1445.31 2210.57,1445.32 2211.08,1445.31 2211.59,1445.3 2212.11,1445.28 2212.62,1445.27 2213.13,1445.22 2213.64,1445.18 2214.15,1445.17 2214.66,1445.15 2215.17,1445.16 2215.69,1445.16 2216.2,1445.16 2216.71,1445.16 2217.22,1445.19 2217.73,1445.21 2218.24,1445.2 2218.75,1445.18 2219.27,1445.18 2219.78,1445.18 2220.29,1445.19 2220.8,1445.2 2221.31,1445.16 2221.82,1445.12 2222.34,1445.11 2222.85,1445.09 2223.36,1445.08 2223.87,1445.06 2224.38,1445.04 2224.89,1445.02 2225.4,1445.01 2225.92,1445 2226.43,1445.02 2226.94,1445.03 2227.45,1445.08 2227.96,1445.13 2228.47,1445.16 2228.98,1445.19 2229.5,1445.18 2230.01,1445.18 2230.52,1445.2 2231.03,1445.22 2231.54,1445.18 2232.05,1445.15 2232.56,1445.15 2233.08,1445.15 2233.59,1445.17 2234.1,1445.19 2234.61,1445.19 2235.12,1445.19 2235.63,1445.19 2236.14,1445.19 2236.66,1445.11 2237.17,1445.03 2237.68,1445.01 2238.19,1444.99 2238.7,1444.95 2239.21,1444.92 2239.72,1444.95 2240.24,1444.98 2240.75,1445 2241.26,1445.02 2241.77,1444.98 2242.28,1444.95 2242.79,1444.95 2243.3,1444.95 2243.82,1444.94 2244.33,1444.92 2244.84,1444.9 2245.35,1444.87 2245.86,1444.85 2246.37,1444.83 2246.88,1444.82 2247.4,1444.81 2247.91,1444.83 2248.42,1444.85 2248.93,1444.86 2249.44,1444.86 2249.95,1444.88 2250.47,1444.9 2250.98,1444.9 2251.49,1444.9 2252,1444.85 2252.51,1444.8 2253.02,1444.83 2253.53,1444.85 2254.05,1444.81 2254.56,1444.78 2255.07,1444.76 2255.58,1444.74 2256.09,1444.75 2256.6,1444.76 2257.11,1444.81 2257.63,1444.85 2258.14,1444.81 2258.65,1444.77 2259.16,1444.78 2259.67,1444.79 2260.18,1444.82 2260.69,1444.85 2261.21,1444.82 2261.72,1444.79 2262.23,1444.74 2262.74,1444.69 2263.25,1444.69 2263.76,1444.68 2264.27,1444.65 2264.79,1444.63 2265.3,1444.6 2265.81,1444.56 2266.32,1444.53 2266.83,1444.51 2267.34,1444.49 2267.85,1444.47 2268.37,1444.47 2268.88,1444.47 2269.39,1444.5 2269.9,1444.54 2270.41,1444.58 2270.92,1444.62 2271.43,1444.55 2271.95,1444.48 2272.46,1444.54 2272.97,1444.59 2273.48,1444.57 2273.99,1444.56 2274.5,1444.54 2275.01,1444.52 2275.53,1444.57 2276.04,1444.61 2276.55,1444.62 2277.06,1444.63 2277.57,1444.66 2278.08,1444.68 2278.6,1444.72 2279.11,1444.76 2279.62,1444.75 2280.13,1444.75 2280.64,1444.74 2281.15,1444.73 2281.66,1444.78 2282.18,1444.84 2282.69,1444.83 2283.2,1444.81 2283.71,1444.76 2284.22,1444.71 2284.73,1444.7 2285.24,1444.68 2285.76,1444.74 2286.27,1444.8 2286.78,1444.87 2287.29,1444.93 2287.8,1444.96 2288.31,1444.99 2288.82,1444.99 2289.34,1444.99 2289.85,1445.02 2290.36,1445.05 2290.87,1445.06 2291.38,1445.06 "/>
<path clip-path="url(#clip010)" d="M2011.18 198.898 L2280.47 198.898 L2280.47 95.2176 L2011.18 95.2176  Z" fill="#ffffff" fill-rule="evenodd" fill-opacity="1"/>
<polyline clip-path="url(#clip010)" style="stroke:#000000; stroke-linecap:round; stroke-linejoin:round; stroke-width:4; stroke-opacity:1; fill:none" points="2011.18,198.898 2280.47,198.898 2280.47,95.2176 2011.18,95.2176 2011.18,198.898 "/>
<polyline clip-path="url(#clip010)" style="stroke:#009af9; stroke-linecap:round; stroke-linejoin:round; stroke-width:4; stroke-opacity:1; fill:none" points="2035.28,147.058 2179.85,147.058 "/>
<path clip-path="url(#clip010)" d="M2217.79 166.745 Q2215.98 171.375 2214.27 172.787 Q2212.56 174.199 2209.69 174.199 L2206.28 174.199 L2206.28 170.634 L2208.78 170.634 Q2210.54 170.634 2211.51 169.8 Q2212.49 168.967 2213.67 165.865 L2214.43 163.921 L2203.94 138.412 L2208.46 138.412 L2216.56 158.689 L2224.66 138.412 L2229.18 138.412 L2217.79 166.745 Z" fill="#000000" fill-rule="nonzero" fill-opacity="1" /><path clip-path="url(#clip010)" d="M2236.47 160.402 L2244.11 160.402 L2244.11 134.037 L2235.8 135.703 L2235.8 131.444 L2244.06 129.778 L2248.74 129.778 L2248.74 160.402 L2256.38 160.402 L2256.38 164.338 L2236.47 164.338 L2236.47 160.402 Z" fill="#000000" fill-rule="nonzero" fill-opacity="1" /></svg>
