<?xml version="1.0" encoding="utf-8"?>
<svg xmlns="http://www.w3.org/2000/svg" xmlns:xlink="http://www.w3.org/1999/xlink" width="600" height="400" viewBox="0 0 2400 1600">
<defs>
  <clipPath id="clip670">
    <rect x="0" y="0" width="2400" height="1600"/>
  </clipPath>
</defs>
<path clip-path="url(#clip670)" d="M0 1600 L2400 1600 L2400 0 L0 0  Z" fill="#ffffff" fill-rule="evenodd" fill-opacity="1"/>
<defs>
  <clipPath id="clip671">
    <rect x="480" y="0" width="1681" height="1600"/>
  </clipPath>
</defs>
<path clip-path="url(#clip670)" d="M156.274 1486.45 L2352.76 1486.45 L2352.76 47.2441 L156.274 47.2441  Z" fill="#ffffff" fill-rule="evenodd" fill-opacity="1"/>
<defs>
  <clipPath id="clip672">
    <rect x="156" y="47" width="2197" height="1440"/>
  </clipPath>
</defs>
<polyline clip-path="url(#clip672)" style="stroke:#000000; stroke-linecap:round; stroke-linejoin:round; stroke-width:2; stroke-opacity:0.1; fill:none" points="218.439,1486.45 218.439,47.2441 "/>
<polyline clip-path="url(#clip672)" style="stroke:#000000; stroke-linecap:round; stroke-linejoin:round; stroke-width:2; stroke-opacity:0.1; fill:none" points="736.995,1486.45 736.995,47.2441 "/>
<polyline clip-path="url(#clip672)" style="stroke:#000000; stroke-linecap:round; stroke-linejoin:round; stroke-width:2; stroke-opacity:0.1; fill:none" points="1255.55,1486.45 1255.55,47.2441 "/>
<polyline clip-path="url(#clip672)" style="stroke:#000000; stroke-linecap:round; stroke-linejoin:round; stroke-width:2; stroke-opacity:0.1; fill:none" points="1774.11,1486.45 1774.11,47.2441 "/>
<polyline clip-path="url(#clip672)" style="stroke:#000000; stroke-linecap:round; stroke-linejoin:round; stroke-width:2; stroke-opacity:0.1; fill:none" points="2292.67,1486.45 2292.67,47.2441 "/>
<polyline clip-path="url(#clip670)" style="stroke:#000000; stroke-linecap:round; stroke-linejoin:round; stroke-width:4; stroke-opacity:1; fill:none" points="156.274,1486.45 2352.76,1486.45 "/>
<polyline clip-path="url(#clip670)" style="stroke:#000000; stroke-linecap:round; stroke-linejoin:round; stroke-width:4; stroke-opacity:1; fill:none" points="218.439,1486.45 218.439,1467.55 "/>
<polyline clip-path="url(#clip670)" style="stroke:#000000; stroke-linecap:round; stroke-linejoin:round; stroke-width:4; stroke-opacity:1; fill:none" points="736.995,1486.45 736.995,1467.55 "/>
<polyline clip-path="url(#clip670)" style="stroke:#000000; stroke-linecap:round; stroke-linejoin:round; stroke-width:4; stroke-opacity:1; fill:none" points="1255.55,1486.45 1255.55,1467.55 "/>
<polyline clip-path="url(#clip670)" style="stroke:#000000; stroke-linecap:round; stroke-linejoin:round; stroke-width:4; stroke-opacity:1; fill:none" points="1774.11,1486.45 1774.11,1467.55 "/>
<polyline clip-path="url(#clip670)" style="stroke:#000000; stroke-linecap:round; stroke-linejoin:round; stroke-width:4; stroke-opacity:1; fill:none" points="2292.67,1486.45 2292.67,1467.55 "/>
<path clip-path="url(#clip670)" d="M218.439 1517.37 Q214.828 1517.37 212.999 1520.93 Q211.193 1524.47 211.193 1531.6 Q211.193 1538.71 212.999 1542.27 Q214.828 1545.82 218.439 1545.82 Q222.073 1545.82 223.879 1542.27 Q225.707 1538.71 225.707 1531.6 Q225.707 1524.47 223.879 1520.93 Q222.073 1517.37 218.439 1517.37 M218.439 1513.66 Q224.249 1513.66 227.304 1518.27 Q230.383 1522.85 230.383 1531.6 Q230.383 1540.33 227.304 1544.94 Q224.249 1549.52 218.439 1549.52 Q212.629 1549.52 209.55 1544.94 Q206.494 1540.33 206.494 1531.6 Q206.494 1522.85 209.55 1518.27 Q212.629 1513.66 218.439 1513.66 Z" fill="#000000" fill-rule="nonzero" fill-opacity="1" /><path clip-path="url(#clip670)" d="M700.688 1544.91 L717.007 1544.91 L717.007 1548.85 L695.063 1548.85 L695.063 1544.91 Q697.725 1542.16 702.308 1537.53 Q706.915 1532.88 708.095 1531.53 Q710.34 1529.01 711.22 1527.27 Q712.123 1525.51 712.123 1523.82 Q712.123 1521.07 710.178 1519.33 Q708.257 1517.6 705.155 1517.6 Q702.956 1517.6 700.503 1518.36 Q698.072 1519.13 695.294 1520.68 L695.294 1515.95 Q698.118 1514.82 700.572 1514.24 Q703.026 1513.66 705.063 1513.66 Q710.433 1513.66 713.628 1516.35 Q716.822 1519.03 716.822 1523.52 Q716.822 1525.65 716.012 1527.57 Q715.225 1529.47 713.118 1532.07 Q712.54 1532.74 709.438 1535.95 Q706.336 1539.15 700.688 1544.91 Z" fill="#000000" fill-rule="nonzero" fill-opacity="1" /><path clip-path="url(#clip670)" d="M726.868 1514.29 L745.225 1514.29 L745.225 1518.22 L731.151 1518.22 L731.151 1526.7 Q732.169 1526.35 733.188 1526.19 Q734.206 1526 735.225 1526 Q741.012 1526 744.391 1529.17 Q747.771 1532.34 747.771 1537.76 Q747.771 1543.34 744.299 1546.44 Q740.826 1549.52 734.507 1549.52 Q732.331 1549.52 730.063 1549.15 Q727.817 1548.78 725.41 1548.04 L725.41 1543.34 Q727.493 1544.47 729.715 1545.03 Q731.938 1545.58 734.414 1545.58 Q738.419 1545.58 740.757 1543.48 Q743.095 1541.37 743.095 1537.76 Q743.095 1534.15 740.757 1532.04 Q738.419 1529.94 734.414 1529.94 Q732.539 1529.94 730.664 1530.35 Q728.813 1530.77 726.868 1531.65 L726.868 1514.29 Z" fill="#000000" fill-rule="nonzero" fill-opacity="1" /><path clip-path="url(#clip670)" d="M766.984 1517.37 Q763.373 1517.37 761.544 1520.93 Q759.738 1524.47 759.738 1531.6 Q759.738 1538.71 761.544 1542.27 Q763.373 1545.82 766.984 1545.82 Q770.618 1545.82 772.423 1542.27 Q774.252 1538.71 774.252 1531.6 Q774.252 1524.47 772.423 1520.93 Q770.618 1517.37 766.984 1517.37 M766.984 1513.66 Q772.794 1513.66 775.849 1518.27 Q778.928 1522.85 778.928 1531.6 Q778.928 1540.33 775.849 1544.94 Q772.794 1549.52 766.984 1549.52 Q761.174 1549.52 758.095 1544.94 Q755.039 1540.33 755.039 1531.6 Q755.039 1522.85 758.095 1518.27 Q761.174 1513.66 766.984 1513.66 Z" fill="#000000" fill-rule="nonzero" fill-opacity="1" /><path clip-path="url(#clip670)" d="M1215.17 1514.29 L1233.53 1514.29 L1233.53 1518.22 L1219.45 1518.22 L1219.45 1526.7 Q1220.47 1526.35 1221.49 1526.19 Q1222.51 1526 1223.53 1526 Q1229.31 1526 1232.69 1529.17 Q1236.07 1532.34 1236.07 1537.76 Q1236.07 1543.34 1232.6 1546.44 Q1229.13 1549.52 1222.81 1549.52 Q1220.63 1549.52 1218.36 1549.15 Q1216.12 1548.78 1213.71 1548.04 L1213.71 1543.34 Q1215.8 1544.47 1218.02 1545.03 Q1220.24 1545.58 1222.72 1545.58 Q1226.72 1545.58 1229.06 1543.48 Q1231.4 1541.37 1231.4 1537.76 Q1231.4 1534.15 1229.06 1532.04 Q1226.72 1529.94 1222.72 1529.94 Q1220.84 1529.94 1218.97 1530.35 Q1217.11 1530.77 1215.17 1531.65 L1215.17 1514.29 Z" fill="#000000" fill-rule="nonzero" fill-opacity="1" /><path clip-path="url(#clip670)" d="M1255.29 1517.37 Q1251.67 1517.37 1249.85 1520.93 Q1248.04 1524.47 1248.04 1531.6 Q1248.04 1538.71 1249.85 1542.27 Q1251.67 1545.82 1255.29 1545.82 Q1258.92 1545.82 1260.73 1542.27 Q1262.55 1538.71 1262.55 1531.6 Q1262.55 1524.47 1260.73 1520.93 Q1258.92 1517.37 1255.29 1517.37 M1255.29 1513.66 Q1261.1 1513.66 1264.15 1518.27 Q1267.23 1522.85 1267.23 1531.6 Q1267.23 1540.33 1264.15 1544.94 Q1261.1 1549.52 1255.29 1549.52 Q1249.48 1549.52 1246.4 1544.94 Q1243.34 1540.33 1243.34 1531.6 Q1243.34 1522.85 1246.4 1518.27 Q1249.48 1513.66 1255.29 1513.66 Z" fill="#000000" fill-rule="nonzero" fill-opacity="1" /><path clip-path="url(#clip670)" d="M1285.45 1517.37 Q1281.84 1517.37 1280.01 1520.93 Q1278.2 1524.47 1278.2 1531.6 Q1278.2 1538.71 1280.01 1542.27 Q1281.84 1545.82 1285.45 1545.82 Q1289.08 1545.82 1290.89 1542.27 Q1292.72 1538.71 1292.72 1531.6 Q1292.72 1524.47 1290.89 1520.93 Q1289.08 1517.37 1285.45 1517.37 M1285.45 1513.66 Q1291.26 1513.66 1294.31 1518.27 Q1297.39 1522.85 1297.39 1531.6 Q1297.39 1540.33 1294.31 1544.94 Q1291.26 1549.52 1285.45 1549.52 Q1279.64 1549.52 1276.56 1544.94 Q1273.5 1540.33 1273.5 1531.6 Q1273.5 1522.85 1276.56 1518.27 Q1279.64 1513.66 1285.45 1513.66 Z" fill="#000000" fill-rule="nonzero" fill-opacity="1" /><path clip-path="url(#clip670)" d="M1732.38 1514.29 L1754.61 1514.29 L1754.61 1516.28 L1742.06 1548.85 L1737.18 1548.85 L1748.98 1518.22 L1732.38 1518.22 L1732.38 1514.29 Z" fill="#000000" fill-rule="nonzero" fill-opacity="1" /><path clip-path="url(#clip670)" d="M1763.77 1514.29 L1782.13 1514.29 L1782.13 1518.22 L1768.06 1518.22 L1768.06 1526.7 Q1769.07 1526.35 1770.09 1526.19 Q1771.11 1526 1772.13 1526 Q1777.92 1526 1781.3 1529.17 Q1784.68 1532.34 1784.68 1537.76 Q1784.68 1543.34 1781.2 1546.44 Q1777.73 1549.52 1771.41 1549.52 Q1769.24 1549.52 1766.97 1549.15 Q1764.72 1548.78 1762.31 1548.04 L1762.31 1543.34 Q1764.4 1544.47 1766.62 1545.03 Q1768.84 1545.58 1771.32 1545.58 Q1775.32 1545.58 1777.66 1543.48 Q1780 1541.37 1780 1537.76 Q1780 1534.15 1777.66 1532.04 Q1775.32 1529.94 1771.32 1529.94 Q1769.44 1529.94 1767.57 1530.35 Q1765.72 1530.77 1763.77 1531.65 L1763.77 1514.29 Z" fill="#000000" fill-rule="nonzero" fill-opacity="1" /><path clip-path="url(#clip670)" d="M1803.89 1517.37 Q1800.28 1517.37 1798.45 1520.93 Q1796.64 1524.47 1796.64 1531.6 Q1796.64 1538.71 1798.45 1542.27 Q1800.28 1545.82 1803.89 1545.82 Q1807.52 1545.82 1809.33 1542.27 Q1811.16 1538.71 1811.16 1531.6 Q1811.16 1524.47 1809.33 1520.93 Q1807.52 1517.37 1803.89 1517.37 M1803.89 1513.66 Q1809.7 1513.66 1812.75 1518.27 Q1815.83 1522.85 1815.83 1531.6 Q1815.83 1540.33 1812.75 1544.94 Q1809.7 1549.52 1803.89 1549.52 Q1798.08 1549.52 1795 1544.94 Q1791.94 1540.33 1791.94 1531.6 Q1791.94 1522.85 1795 1518.27 Q1798.08 1513.66 1803.89 1513.66 Z" fill="#000000" fill-rule="nonzero" fill-opacity="1" /><path clip-path="url(#clip670)" d="M2237.19 1544.91 L2244.83 1544.91 L2244.83 1518.55 L2236.52 1520.21 L2236.52 1515.95 L2244.78 1514.29 L2249.46 1514.29 L2249.46 1544.91 L2257.1 1544.91 L2257.1 1548.85 L2237.19 1548.85 L2237.19 1544.91 Z" fill="#000000" fill-rule="nonzero" fill-opacity="1" /><path clip-path="url(#clip670)" d="M2276.54 1517.37 Q2272.93 1517.37 2271.1 1520.93 Q2269.3 1524.47 2269.3 1531.6 Q2269.3 1538.71 2271.1 1542.27 Q2272.93 1545.82 2276.54 1545.82 Q2280.18 1545.82 2281.98 1542.27 Q2283.81 1538.71 2283.81 1531.6 Q2283.81 1524.47 2281.98 1520.93 Q2280.18 1517.37 2276.54 1517.37 M2276.54 1513.66 Q2282.35 1513.66 2285.41 1518.27 Q2288.49 1522.85 2288.49 1531.6 Q2288.49 1540.33 2285.41 1544.94 Q2282.35 1549.52 2276.54 1549.52 Q2270.73 1549.52 2267.65 1544.94 Q2264.6 1540.33 2264.6 1531.6 Q2264.6 1522.85 2267.65 1518.27 Q2270.73 1513.66 2276.54 1513.66 Z" fill="#000000" fill-rule="nonzero" fill-opacity="1" /><path clip-path="url(#clip670)" d="M2306.7 1517.37 Q2303.09 1517.37 2301.27 1520.93 Q2299.46 1524.47 2299.46 1531.6 Q2299.46 1538.71 2301.27 1542.27 Q2303.09 1545.82 2306.7 1545.82 Q2310.34 1545.82 2312.14 1542.27 Q2313.97 1538.71 2313.97 1531.6 Q2313.97 1524.47 2312.14 1520.93 Q2310.34 1517.37 2306.7 1517.37 M2306.7 1513.66 Q2312.51 1513.66 2315.57 1518.27 Q2318.65 1522.85 2318.65 1531.6 Q2318.65 1540.33 2315.57 1544.94 Q2312.51 1549.52 2306.7 1549.52 Q2300.89 1549.52 2297.82 1544.94 Q2294.76 1540.33 2294.76 1531.6 Q2294.76 1522.85 2297.82 1518.27 Q2300.89 1513.66 2306.7 1513.66 Z" fill="#000000" fill-rule="nonzero" fill-opacity="1" /><path clip-path="url(#clip670)" d="M2336.87 1517.37 Q2333.26 1517.37 2331.43 1520.93 Q2329.62 1524.47 2329.62 1531.6 Q2329.62 1538.71 2331.43 1542.27 Q2333.26 1545.82 2336.87 1545.82 Q2340.5 1545.82 2342.31 1542.27 Q2344.14 1538.71 2344.14 1531.6 Q2344.14 1524.47 2342.31 1520.93 Q2340.5 1517.37 2336.87 1517.37 M2336.87 1513.66 Q2342.68 1513.66 2345.73 1518.27 Q2348.81 1522.85 2348.81 1531.6 Q2348.81 1540.33 2345.73 1544.94 Q2342.68 1549.52 2336.87 1549.52 Q2331.06 1549.52 2327.98 1544.94 Q2324.92 1540.33 2324.92 1531.6 Q2324.92 1522.85 2327.98 1518.27 Q2331.06 1513.66 2336.87 1513.66 Z" fill="#000000" fill-rule="nonzero" fill-opacity="1" /><polyline clip-path="url(#clip672)" style="stroke:#000000; stroke-linecap:round; stroke-linejoin:round; stroke-width:2; stroke-opacity:0.1; fill:none" points="156.274,1391.41 2352.76,1391.41 "/>
<polyline clip-path="url(#clip672)" style="stroke:#000000; stroke-linecap:round; stroke-linejoin:round; stroke-width:2; stroke-opacity:0.1; fill:none" points="156.274,1119.86 2352.76,1119.86 "/>
<polyline clip-path="url(#clip672)" style="stroke:#000000; stroke-linecap:round; stroke-linejoin:round; stroke-width:2; stroke-opacity:0.1; fill:none" points="156.274,848.31 2352.76,848.31 "/>
<polyline clip-path="url(#clip672)" style="stroke:#000000; stroke-linecap:round; stroke-linejoin:round; stroke-width:2; stroke-opacity:0.1; fill:none" points="156.274,576.762 2352.76,576.762 "/>
<polyline clip-path="url(#clip672)" style="stroke:#000000; stroke-linecap:round; stroke-linejoin:round; stroke-width:2; stroke-opacity:0.1; fill:none" points="156.274,305.215 2352.76,305.215 "/>
<polyline clip-path="url(#clip670)" style="stroke:#000000; stroke-linecap:round; stroke-linejoin:round; stroke-width:4; stroke-opacity:1; fill:none" points="156.274,1486.45 156.274,47.2441 "/>
<polyline clip-path="url(#clip670)" style="stroke:#000000; stroke-linecap:round; stroke-linejoin:round; stroke-width:4; stroke-opacity:1; fill:none" points="156.274,1391.41 175.172,1391.41 "/>
<polyline clip-path="url(#clip670)" style="stroke:#000000; stroke-linecap:round; stroke-linejoin:round; stroke-width:4; stroke-opacity:1; fill:none" points="156.274,1119.86 175.172,1119.86 "/>
<polyline clip-path="url(#clip670)" style="stroke:#000000; stroke-linecap:round; stroke-linejoin:round; stroke-width:4; stroke-opacity:1; fill:none" points="156.274,848.31 175.172,848.31 "/>
<polyline clip-path="url(#clip670)" style="stroke:#000000; stroke-linecap:round; stroke-linejoin:round; stroke-width:4; stroke-opacity:1; fill:none" points="156.274,576.762 175.172,576.762 "/>
<polyline clip-path="url(#clip670)" style="stroke:#000000; stroke-linecap:round; stroke-linejoin:round; stroke-width:4; stroke-opacity:1; fill:none" points="156.274,305.215 175.172,305.215 "/>
<path clip-path="url(#clip670)" d="M64.0939 1377.2 Q60.4828 1377.2 58.6541 1380.77 Q56.8486 1384.31 56.8486 1391.44 Q56.8486 1398.55 58.6541 1402.11 Q60.4828 1405.65 64.0939 1405.65 Q67.7281 1405.65 69.5337 1402.11 Q71.3624 1398.55 71.3624 1391.44 Q71.3624 1384.31 69.5337 1380.77 Q67.7281 1377.2 64.0939 1377.2 M64.0939 1373.5 Q69.9041 1373.5 72.9596 1378.11 Q76.0383 1382.69 76.0383 1391.44 Q76.0383 1400.17 72.9596 1404.77 Q69.9041 1409.36 64.0939 1409.36 Q58.2838 1409.36 55.2051 1404.77 Q52.1495 1400.17 52.1495 1391.44 Q52.1495 1382.69 55.2051 1378.11 Q58.2838 1373.5 64.0939 1373.5 Z" fill="#000000" fill-rule="nonzero" fill-opacity="1" /><path clip-path="url(#clip670)" d="M84.2558 1402.81 L89.1401 1402.81 L89.1401 1408.69 L84.2558 1408.69 L84.2558 1402.81 Z" fill="#000000" fill-rule="nonzero" fill-opacity="1" /><path clip-path="url(#clip670)" d="M99.3715 1374.13 L117.728 1374.13 L117.728 1378.06 L103.654 1378.06 L103.654 1386.53 Q104.672 1386.19 105.691 1386.02 Q106.709 1385.84 107.728 1385.84 Q113.515 1385.84 116.895 1389.01 Q120.274 1392.18 120.274 1397.6 Q120.274 1403.18 116.802 1406.28 Q113.33 1409.36 107.01 1409.36 Q104.834 1409.36 102.566 1408.99 Q100.321 1408.62 97.9132 1407.88 L97.9132 1403.18 Q99.9965 1404.31 102.219 1404.87 Q104.441 1405.42 106.918 1405.42 Q110.922 1405.42 113.26 1403.32 Q115.598 1401.21 115.598 1397.6 Q115.598 1393.99 113.26 1391.88 Q110.922 1389.77 106.918 1389.77 Q105.043 1389.77 103.168 1390.19 Q101.316 1390.61 99.3715 1391.49 L99.3715 1374.13 Z" fill="#000000" fill-rule="nonzero" fill-opacity="1" /><path clip-path="url(#clip670)" d="M62.9365 1105.66 Q59.3254 1105.66 57.4967 1109.22 Q55.6912 1112.76 55.6912 1119.89 Q55.6912 1127 57.4967 1130.56 Q59.3254 1134.11 62.9365 1134.11 Q66.5707 1134.11 68.3763 1130.56 Q70.205 1127 70.205 1119.89 Q70.205 1112.76 68.3763 1109.22 Q66.5707 1105.66 62.9365 1105.66 M62.9365 1101.95 Q68.7467 1101.95 71.8022 1106.56 Q74.8809 1111.14 74.8809 1119.89 Q74.8809 1128.62 71.8022 1133.23 Q68.7467 1137.81 62.9365 1137.81 Q57.1264 1137.81 54.0477 1133.23 Q50.9921 1128.62 50.9921 1119.89 Q50.9921 1111.14 54.0477 1106.56 Q57.1264 1101.95 62.9365 1101.95 Z" fill="#000000" fill-rule="nonzero" fill-opacity="1" /><path clip-path="url(#clip670)" d="M83.0984 1131.26 L87.9827 1131.26 L87.9827 1137.14 L83.0984 1137.14 L83.0984 1131.26 Z" fill="#000000" fill-rule="nonzero" fill-opacity="1" /><path clip-path="url(#clip670)" d="M108.746 1117.99 Q105.598 1117.99 103.746 1120.15 Q101.918 1122.3 101.918 1126.05 Q101.918 1129.78 103.746 1131.95 Q105.598 1134.11 108.746 1134.11 Q111.895 1134.11 113.723 1131.95 Q115.575 1129.78 115.575 1126.05 Q115.575 1122.3 113.723 1120.15 Q111.895 1117.99 108.746 1117.99 M118.029 1103.34 L118.029 1107.6 Q116.27 1106.77 114.464 1106.33 Q112.682 1105.89 110.922 1105.89 Q106.293 1105.89 103.839 1109.01 Q101.409 1112.14 101.061 1118.46 Q102.427 1116.44 104.487 1115.38 Q106.547 1114.29 109.024 1114.29 Q114.233 1114.29 117.242 1117.46 Q120.274 1120.61 120.274 1126.05 Q120.274 1131.37 117.126 1134.59 Q113.978 1137.81 108.746 1137.81 Q102.751 1137.81 99.5798 1133.23 Q96.4085 1128.62 96.4085 1119.89 Q96.4085 1111.7 100.297 1106.84 Q104.186 1101.95 110.737 1101.95 Q112.496 1101.95 114.279 1102.3 Q116.084 1102.65 118.029 1103.34 Z" fill="#000000" fill-rule="nonzero" fill-opacity="1" /><path clip-path="url(#clip670)" d="M64.0013 834.109 Q60.3902 834.109 58.5615 837.674 Q56.756 841.215 56.756 848.345 Q56.756 855.452 58.5615 859.016 Q60.3902 862.558 64.0013 862.558 Q67.6356 862.558 69.4411 859.016 Q71.2698 855.452 71.2698 848.345 Q71.2698 841.215 69.4411 837.674 Q67.6356 834.109 64.0013 834.109 M64.0013 830.405 Q69.8115 830.405 72.867 835.012 Q75.9457 839.595 75.9457 848.345 Q75.9457 857.072 72.867 861.678 Q69.8115 866.262 64.0013 866.262 Q58.1912 866.262 55.1125 861.678 Q52.0569 857.072 52.0569 848.345 Q52.0569 839.595 55.1125 835.012 Q58.1912 830.405 64.0013 830.405 Z" fill="#000000" fill-rule="nonzero" fill-opacity="1" /><path clip-path="url(#clip670)" d="M84.1632 859.711 L89.0475 859.711 L89.0475 865.59 L84.1632 865.59 L84.1632 859.711 Z" fill="#000000" fill-rule="nonzero" fill-opacity="1" /><path clip-path="url(#clip670)" d="M98.0521 831.03 L120.274 831.03 L120.274 833.021 L107.728 865.59 L102.844 865.59 L114.649 834.966 L98.0521 834.966 L98.0521 831.03 Z" fill="#000000" fill-rule="nonzero" fill-opacity="1" /><path clip-path="url(#clip670)" d="M63.1911 562.561 Q59.58 562.561 57.7513 566.126 Q55.9458 569.668 55.9458 576.797 Q55.9458 583.904 57.7513 587.468 Q59.58 591.01 63.1911 591.01 Q66.8254 591.01 68.6309 587.468 Q70.4596 583.904 70.4596 576.797 Q70.4596 569.668 68.6309 566.126 Q66.8254 562.561 63.1911 562.561 M63.1911 558.857 Q69.0013 558.857 72.0568 563.464 Q75.1355 568.047 75.1355 576.797 Q75.1355 585.524 72.0568 590.13 Q69.0013 594.714 63.1911 594.714 Q57.381 594.714 54.3023 590.13 Q51.2468 585.524 51.2468 576.797 Q51.2468 568.047 54.3023 563.464 Q57.381 558.857 63.1911 558.857 Z" fill="#000000" fill-rule="nonzero" fill-opacity="1" /><path clip-path="url(#clip670)" d="M83.3531 588.163 L88.2373 588.163 L88.2373 594.042 L83.3531 594.042 L83.3531 588.163 Z" fill="#000000" fill-rule="nonzero" fill-opacity="1" /><path clip-path="url(#clip670)" d="M108.422 577.631 Q105.089 577.631 103.168 579.413 Q101.27 581.195 101.27 584.32 Q101.27 587.445 103.168 589.228 Q105.089 591.01 108.422 591.01 Q111.756 591.01 113.677 589.228 Q115.598 587.422 115.598 584.32 Q115.598 581.195 113.677 579.413 Q111.779 577.631 108.422 577.631 M103.746 575.64 Q100.737 574.899 99.0474 572.839 Q97.3808 570.779 97.3808 567.816 Q97.3808 563.672 100.321 561.265 Q103.284 558.857 108.422 558.857 Q113.584 558.857 116.524 561.265 Q119.464 563.672 119.464 567.816 Q119.464 570.779 117.774 572.839 Q116.108 574.899 113.121 575.64 Q116.501 576.427 118.376 578.718 Q120.274 581.01 120.274 584.32 Q120.274 589.343 117.195 592.029 Q114.14 594.714 108.422 594.714 Q102.705 594.714 99.6261 592.029 Q96.5706 589.343 96.5706 584.32 Q96.5706 581.01 98.4687 578.718 Q100.367 576.427 103.746 575.64 M102.034 568.256 Q102.034 570.941 103.7 572.445 Q105.39 573.95 108.422 573.95 Q111.432 573.95 113.121 572.445 Q114.834 570.941 114.834 568.256 Q114.834 565.57 113.121 564.066 Q111.432 562.561 108.422 562.561 Q105.39 562.561 103.7 564.066 Q102.034 565.57 102.034 568.256 Z" fill="#000000" fill-rule="nonzero" fill-opacity="1" /><path clip-path="url(#clip670)" d="M63.2837 291.013 Q59.6726 291.013 57.8439 294.578 Q56.0384 298.12 56.0384 305.249 Q56.0384 312.356 57.8439 315.921 Q59.6726 319.462 63.2837 319.462 Q66.918 319.462 68.7235 315.921 Q70.5522 312.356 70.5522 305.249 Q70.5522 298.12 68.7235 294.578 Q66.918 291.013 63.2837 291.013 M63.2837 287.31 Q69.0939 287.31 72.1494 291.916 Q75.2281 296.499 75.2281 305.249 Q75.2281 313.976 72.1494 318.583 Q69.0939 323.166 63.2837 323.166 Q57.4736 323.166 54.3949 318.583 Q51.3393 313.976 51.3393 305.249 Q51.3393 296.499 54.3949 291.916 Q57.4736 287.31 63.2837 287.31 Z" fill="#000000" fill-rule="nonzero" fill-opacity="1" /><path clip-path="url(#clip670)" d="M83.4457 316.615 L88.3299 316.615 L88.3299 322.495 L83.4457 322.495 L83.4457 316.615 Z" fill="#000000" fill-rule="nonzero" fill-opacity="1" /><path clip-path="url(#clip670)" d="M98.6539 321.777 L98.6539 317.518 Q100.413 318.351 102.219 318.791 Q104.024 319.231 105.76 319.231 Q110.39 319.231 112.82 316.129 Q115.274 313.004 115.621 306.661 Q114.279 308.652 112.219 309.717 Q110.158 310.782 107.658 310.782 Q102.473 310.782 99.4409 307.657 Q96.4317 304.509 96.4317 299.069 Q96.4317 293.745 99.5798 290.527 Q102.728 287.31 107.959 287.31 Q113.955 287.31 117.103 291.916 Q120.274 296.499 120.274 305.249 Q120.274 313.421 116.385 318.305 Q112.52 323.166 105.969 323.166 Q104.209 323.166 102.404 322.819 Q100.598 322.471 98.6539 321.777 M107.959 307.124 Q111.108 307.124 112.936 304.972 Q114.788 302.819 114.788 299.069 Q114.788 295.342 112.936 293.189 Q111.108 291.013 107.959 291.013 Q104.811 291.013 102.959 293.189 Q101.131 295.342 101.131 299.069 Q101.131 302.819 102.959 304.972 Q104.811 307.124 107.959 307.124 Z" fill="#000000" fill-rule="nonzero" fill-opacity="1" /><polyline clip-path="url(#clip672)" style="stroke:#009af9; stroke-linecap:round; stroke-linejoin:round; stroke-width:4; stroke-opacity:1; fill:none" points="218.439,1119.86 220.513,902.62 222.587,1174.17 224.661,1228.48 226.736,1011.24 228.81,1065.55 230.884,1011.24 232.958,1174.17 235.033,1119.86 237.107,1174.17 239.181,1282.79 241.255,1065.55 243.329,956.93 245.404,956.93 247.478,1119.86 249.552,848.31 251.626,1119.86 253.701,902.62 255.775,1174.17 257.849,1391.41 259.923,956.93 261.998,848.31 264.072,902.62 266.146,1282.79 268.22,1011.24 270.294,1391.41 272.369,1119.86 274.443,739.691 276.517,848.31 278.591,794.001 280.666,956.93 282.74,902.62 284.814,1174.17 286.888,631.072 288.962,902.62 291.037,1119.86 293.111,1228.48 295.185,956.93 297.259,794.001 299.334,1065.55 301.408,1011.24 303.482,685.382 305.556,631.072 307.63,956.93 309.705,848.31 311.779,956.93 313.853,794.001 315.927,1174.17 318.002,794.001 320.076,1119.86 322.15,1119.86 324.224,902.62 326.299,902.62 328.373,685.382 330.447,1119.86 332.521,1011.24 334.595,1391.41 336.67,956.93 338.744,1065.55 340.818,1065.55 342.892,685.382 344.967,1119.86 347.041,1174.17 349.115,956.93 351.189,848.31 353.263,956.93 355.338,902.62 357.412,794.001 359.486,739.691 361.56,1228.48 363.635,522.453 365.709,1119.86 367.783,1174.17 369.857,794.001 371.932,1119.86 374.006,1119.86 376.08,902.62 378.154,1174.17 380.228,902.62 382.303,1174.17 384.377,1119.86 386.451,739.691 388.525,1174.17 390.6,848.31 392.674,1282.79 394.748,1011.24 396.822,1065.55 398.896,1011.24 400.971,1174.17 403.045,956.93 405.119,1011.24 407.193,848.31 409.268,685.382 411.342,739.691 413.416,956.93 415.49,1065.55 417.565,1337.1 419.639,1065.55 421.713,1119.86 423.787,1445.72 425.861,902.62 427.936,956.93 430.01,902.62 432.084,1174.17 434.158,1119.86 436.233,1228.48 438.307,902.62 440.381,902.62 442.455,1119.86 444.529,794.001 446.604,1011.24 448.678,1011.24 450.752,794.001 452.826,1011.24 454.901,848.31 456.975,1011.24 459.049,685.382 461.123,848.31 463.198,848.31 465.272,631.072 467.346,794.001 469.42,1282.79 471.494,956.93 473.569,956.93 475.643,1174.17 477.717,685.382 479.791,1119.86 481.866,956.93 483.94,956.93 486.014,1119.86 488.088,1011.24 490.162,902.62 492.237,631.072 494.311,848.31 496.385,1065.55 498.459,1065.55 500.534,739.691 502.608,902.62 504.682,956.93 506.756,631.072 508.83,848.31 510.905,848.31 512.979,576.762 515.053,576.762 517.127,1228.48 519.202,1228.48 521.276,956.93 523.35,848.31 525.424,902.62 527.499,794.001 529.573,1065.55 531.647,848.31 533.721,1065.55 535.795,956.93 537.87,631.072 539.944,522.453 542.018,685.382 544.092,631.072 546.167,739.691 548.241,902.62 550.315,794.001 552.389,956.93 554.463,739.691 556.538,468.143 558.612,1174.17 560.686,848.31 562.76,468.143 564.835,794.001 566.909,1065.55 568.983,848.31 571.057,794.001 573.132,522.453 575.206,631.072 577.28,848.31 579.354,794.001 581.428,1119.86 583.503,902.62 585.577,685.382 587.651,631.072 589.725,1011.24 591.8,685.382 593.874,794.001 595.948,902.62 598.022,794.001 600.096,1065.55 602.171,902.62 604.245,848.31 606.319,739.691 608.393,1228.48 610.468,631.072 612.542,848.31 614.616,956.93 616.69,522.453 618.765,1011.24 620.839,631.072 622.913,739.691 624.987,522.453 627.061,848.31 629.136,1228.48 631.21,956.93 633.284,1011.24 635.358,848.31 637.433,956.93 639.507,1011.24 641.581,739.691 643.655,468.143 645.729,794.001 647.804,631.072 649.878,576.762 651.952,631.072 654.026,1011.24 656.101,794.001 658.175,739.691 660.249,794.001 662.323,794.001 664.398,848.31 666.472,1065.55 668.546,794.001 670.62,739.691 672.694,902.62 674.769,685.382 676.843,956.93 678.917,794.001 680.991,1065.55 683.066,794.001 685.14,794.001 687.214,848.31 689.288,1228.48 691.362,685.382 693.437,1011.24 695.511,1011.24 697.585,902.62 699.659,794.001 701.734,739.691 703.808,902.62 705.882,739.691 707.956,739.691 710.03,576.762 712.105,576.762 714.179,685.382 716.253,522.453 718.327,576.762 720.402,685.382 722.476,902.62 724.55,1011.24 726.624,848.31 728.699,739.691 730.773,576.762 732.847,902.62 734.921,739.691 736.995,522.453 739.07,739.691 741.144,685.382 743.218,794.001 745.292,631.072 747.367,685.382 749.441,631.072 751.515,576.762 753.589,1011.24 755.663,794.001 757.738,685.382 759.812,631.072 761.886,794.001 763.96,739.691 766.035,794.001 768.109,1011.24 770.183,468.143 772.257,685.382 774.332,1119.86 776.406,522.453 778.48,1228.48 780.554,576.762 782.628,522.453 784.703,576.762 786.777,902.62 788.851,848.31 790.925,522.453 793,522.453 795.074,739.691 797.148,739.691 799.222,956.93 801.296,1011.24 803.371,631.072 805.445,1011.24 807.519,739.691 809.593,576.762 811.668,685.382 813.742,848.31 815.816,468.143 817.89,468.143 819.965,685.382 822.039,1011.24 824.113,739.691 826.187,794.001 828.261,794.001 830.336,576.762 832.41,956.93 834.484,902.62 836.558,902.62 838.633,1011.24 840.707,794.001 842.781,685.382 844.855,902.62 846.929,413.834 849.004,631.072 851.078,522.453 853.152,468.143 855.226,685.382 857.301,576.762 859.375,902.62 861.449,468.143 863.523,739.691 865.598,848.31 867.672,739.691 869.746,956.93 871.82,631.072 873.894,576.762 875.969,522.453 878.043,902.62 880.117,739.691 882.191,631.072 884.266,739.691 886.34,794.001 888.414,576.762 890.488,468.143 892.562,359.524 894.637,576.762 896.711,576.762 898.785,685.382 900.859,956.93 902.934,576.762 905.008,794.001 907.082,1065.55 909.156,522.453 911.23,522.453 913.305,631.072 915.379,685.382 917.453,794.001 919.527,468.143 921.602,576.762 923.676,1011.24 925.75,739.691 927.824,522.453 929.899,685.382 931.973,902.62 934.047,685.382 936.121,739.691 938.195,848.31 940.27,685.382 942.344,685.382 944.418,902.62 946.492,522.453 948.567,576.762 950.641,739.691 952.715,794.001 954.789,576.762 956.863,576.762 958.938,685.382 961.012,468.143 963.086,468.143 965.16,739.691 967.235,631.072 969.309,794.001 971.383,794.001 973.457,413.834 975.532,685.382 977.606,576.762 979.68,413.834 981.754,794.001 983.828,631.072 985.903,794.001 987.977,956.93 990.051,739.691 992.125,576.762 994.2,739.691 996.274,631.072 998.348,685.382 1000.42,739.691 1002.5,848.31 1004.57,685.382 1006.64,739.691 1008.72,794.001 1010.79,685.382 1012.87,522.453 1014.94,848.31 1017.02,685.382 1019.09,631.072 1021.16,576.762 1023.24,848.31 1025.31,848.31 1027.39,848.31 1029.46,1119.86 1031.54,739.691 1033.61,413.834 1035.68,468.143 1037.76,576.762 1039.83,631.072 1041.91,794.001 1043.98,576.762 1046.06,848.31 1048.13,794.001 1050.2,359.524 1052.28,468.143 1054.35,576.762 1056.43,685.382 1058.5,739.691 1060.57,848.31 1062.65,468.143 1064.72,631.072 1066.8,522.453 1068.87,413.834 1070.95,739.691 1073.02,902.62 1075.09,631.072 1077.17,576.762 1079.24,685.382 1081.32,848.31 1083.39,522.453 1085.47,468.143 1087.54,468.143 1089.61,413.834 1091.69,576.762 1093.76,685.382 1095.84,685.382 1097.91,468.143 1099.99,468.143 1102.06,468.143 1104.13,685.382 1106.21,739.691 1108.28,739.691 1110.36,413.834 1112.43,685.382 1114.5,522.453 1116.58,631.072 1118.65,522.453 1120.73,956.93 1122.8,685.382 1124.88,359.524 1126.95,522.453 1129.02,576.762 1131.1,956.93 1133.17,413.834 1135.25,631.072 1137.32,739.691 1139.4,739.691 1141.47,359.524 1143.54,739.691 1145.62,794.001 1147.69,576.762 1149.77,685.382 1151.84,576.762 1153.92,739.691 1155.99,413.834 1158.06,522.453 1160.14,631.072 1162.21,576.762 1164.29,250.905 1166.36,631.072 1168.43,794.001 1170.51,631.072 1172.58,685.382 1174.66,522.453 1176.73,685.382 1178.81,576.762 1180.88,305.215 1182.95,685.382 1185.03,522.453 1187.1,631.072 1189.18,848.31 1191.25,739.691 1193.33,685.382 1195.4,522.453 1197.47,739.691 1199.55,739.691 1201.62,631.072 1203.7,576.762 1205.77,631.072 1207.84,359.524 1209.92,305.215 1211.99,848.31 1214.07,305.215 1216.14,413.834 1218.22,576.762 1220.29,739.691 1222.36,794.001 1224.44,848.31 1226.51,794.001 1228.59,468.143 1230.66,576.762 1232.74,576.762 1234.81,359.524 1236.88,413.834 1238.96,631.072 1241.03,794.001 1243.11,359.524 1245.18,576.762 1247.26,413.834 1249.33,956.93 1251.4,631.072 1253.48,685.382 1255.55,468.143 1257.63,305.215 1259.7,739.691 1261.77,576.762 1263.85,631.072 1265.92,631.072 1268,468.143 1270.07,739.691 1272.15,794.001 1274.22,794.001 1276.29,522.453 1278.37,522.453 1280.44,468.143 1282.52,739.691 1284.59,739.691 1286.67,576.762 1288.74,305.215 1290.81,794.001 1292.89,576.762 1294.96,739.691 1297.04,685.382 1299.11,468.143 1301.19,631.072 1303.26,685.382 1305.33,522.453 1307.41,631.072 1309.48,1065.55 1311.56,522.453 1313.63,413.834 1315.7,359.524 1317.78,522.453 1319.85,522.453 1321.93,794.001 1324,522.453 1326.08,902.62 1328.15,739.691 1330.22,739.691 1332.3,739.691 1334.37,305.215 1336.45,631.072 1338.52,794.001 1340.6,739.691 1342.67,413.834 1344.74,359.524 1346.82,413.834 1348.89,848.31 1350.97,413.834 1353.04,522.453 1355.12,468.143 1357.19,631.072 1359.26,685.382 1361.34,413.834 1363.41,576.762 1365.49,522.453 1367.56,576.762 1369.63,685.382 1371.71,413.834 1373.78,576.762 1375.86,468.143 1377.93,413.834 1380.01,359.524 1382.08,631.072 1384.15,631.072 1386.23,522.453 1388.3,576.762 1390.38,522.453 1392.45,685.382 1394.53,522.453 1396.6,413.834 1398.67,468.143 1400.75,305.215 1402.82,631.072 1404.9,522.453 1406.97,848.31 1409.04,359.524 1411.12,413.834 1413.19,576.762 1415.27,848.31 1417.34,359.524 1419.42,468.143 1421.49,305.215 1423.56,468.143 1425.64,522.453 1427.71,739.691 1429.79,359.524 1431.86,413.834 1433.94,631.072 1436.01,468.143 1438.08,956.93 1440.16,576.762 1442.23,739.691 1444.31,87.9763 1446.38,413.834 1448.46,631.072 1450.53,359.524 1452.6,576.762 1454.68,685.382 1456.75,413.834 1458.83,413.834 1460.9,468.143 1462.97,413.834 1465.05,468.143 1467.12,413.834 1469.2,685.382 1471.27,576.762 1473.35,468.143 1475.42,576.762 1477.49,413.834 1479.57,468.143 1481.64,576.762 1483.72,739.691 1485.79,468.143 1487.87,522.453 1489.94,576.762 1492.01,576.762 1494.09,250.905 1496.16,522.453 1498.24,685.382 1500.31,359.524 1502.39,305.215 1504.46,631.072 1506.53,413.834 1508.61,522.453 1510.68,522.453 1512.76,359.524 1514.83,468.143 1516.9,576.762 1518.98,522.453 1521.05,522.453 1523.13,305.215 1525.2,250.905 1527.28,576.762 1529.35,305.215 1531.42,468.143 1533.5,413.834 1535.57,359.524 1537.65,468.143 1539.72,468.143 1541.8,468.143 1543.87,631.072 1545.94,468.143 1548.02,413.834 1550.09,413.834 1552.17,576.762 1554.24,413.834 1556.32,522.453 1558.39,522.453 1560.46,739.691 1562.54,468.143 1564.61,196.595 1566.69,631.072 1568.76,468.143 1570.83,468.143 1572.91,522.453 1574.98,413.834 1577.06,359.524 1579.13,413.834 1581.21,250.905 1583.28,250.905 1585.35,522.453 1587.43,576.762 1589.5,576.762 1591.58,359.524 1593.65,576.762 1595.73,468.143 1597.8,413.834 1599.87,468.143 1601.95,413.834 1604.02,576.762 1606.1,359.524 1608.17,739.691 1610.24,468.143 1612.32,576.762 1614.39,522.453 1616.47,359.524 1618.54,631.072 1620.62,468.143 1622.69,359.524 1624.76,359.524 1626.84,631.072 1628.91,522.453 1630.99,522.453 1633.06,522.453 1635.14,631.072 1637.21,468.143 1639.28,359.524 1641.36,413.834 1643.43,359.524 1645.51,468.143 1647.58,468.143 1649.66,576.762 1651.73,794.001 1653.8,522.453 1655.88,468.143 1657.95,522.453 1660.03,576.762 1662.1,468.143 1664.17,631.072 1666.25,250.905 1668.32,250.905 1670.4,522.453 1672.47,522.453 1674.55,468.143 1676.62,468.143 1678.69,468.143 1680.77,359.524 1682.84,576.762 1684.92,631.072 1686.99,739.691 1689.07,468.143 1691.14,468.143 1693.21,305.215 1695.29,359.524 1697.36,250.905 1699.44,305.215 1701.51,631.072 1703.59,413.834 1705.66,468.143 1707.73,359.524 1709.81,305.215 1711.88,359.524 1713.96,196.595 1716.03,739.691 1718.1,250.905 1720.18,522.453 1722.25,413.834 1724.33,631.072 1726.4,305.215 1728.48,685.382 1730.55,413.834 1732.62,685.382 1734.7,305.215 1736.77,305.215 1738.85,468.143 1740.92,522.453 1743,468.143 1745.07,359.524 1747.14,468.143 1749.22,305.215 1751.29,522.453 1753.37,794.001 1755.44,468.143 1757.52,468.143 1759.59,522.453 1761.66,305.215 1763.74,413.834 1765.81,359.524 1767.89,142.286 1769.96,359.524 1772.03,522.453 1774.11,359.524 1776.18,250.905 1778.26,739.691 1780.33,468.143 1782.41,196.595 1784.48,305.215 1786.55,468.143 1788.63,631.072 1790.7,468.143 1792.78,468.143 1794.85,468.143 1796.93,250.905 1799,359.524 1801.07,305.215 1803.15,631.072 1805.22,250.905 1807.3,631.072 1809.37,413.834 1811.44,359.524 1813.52,413.834 1815.59,631.072 1817.67,413.834 1819.74,468.143 1821.82,468.143 1823.89,468.143 1825.96,413.834 1828.04,522.453 1830.11,250.905 1832.19,305.215 1834.26,576.762 1836.34,305.215 1838.41,468.143 1840.48,576.762 1842.56,576.762 1844.63,522.453 1846.71,359.524 1848.78,522.453 1850.86,468.143 1852.93,576.762 1855,359.524 1857.08,468.143 1859.15,359.524 1861.23,522.453 1863.3,522.453 1865.37,468.143 1867.45,250.905 1869.52,522.453 1871.6,468.143 1873.67,196.595 1875.75,522.453 1877.82,576.762 1879.89,468.143 1881.97,305.215 1884.04,468.143 1886.12,413.834 1888.19,576.762 1890.27,1011.24 1892.34,522.453 1894.41,87.9763 1896.49,468.143 1898.56,522.453 1900.64,305.215 1902.71,196.595 1904.79,305.215 1906.86,305.215 1908.93,250.905 1911.01,413.834 1913.08,522.453 1915.16,305.215 1917.23,468.143 1919.3,305.215 1921.38,631.072 1923.45,305.215 1925.53,305.215 1927.6,468.143 1929.68,413.834 1931.75,305.215 1933.82,576.762 1935.9,413.834 1937.97,250.905 1940.05,250.905 1942.12,468.143 1944.2,250.905 1946.27,576.762 1948.34,413.834 1950.42,413.834 1952.49,196.595 1954.57,250.905 1956.64,305.215 1958.72,413.834 1960.79,468.143 1962.86,196.595 1964.94,359.524 1967.01,250.905 1969.09,413.834 1971.16,359.524 1973.23,196.595 1975.31,522.453 1977.38,522.453 1979.46,576.762 1981.53,522.453 1983.61,631.072 1985.68,468.143 1987.75,359.524 1989.83,522.453 1991.9,576.762 1993.98,359.524 1996.05,413.834 1998.13,359.524 2000.2,468.143 2002.27,413.834 2004.35,305.215 2006.42,142.286 2008.5,196.595 2010.57,142.286 2012.64,359.524 2014.72,522.453 2016.79,87.9763 2018.87,413.834 2020.94,522.453 2023.02,359.524 2025.09,468.143 2027.16,468.143 2029.24,250.905 2031.31,468.143 2033.39,250.905 2035.46,305.215 2037.54,196.595 2039.61,468.143 2041.68,359.524 2043.76,413.834 2045.83,305.215 2047.91,305.215 2049.98,305.215 2052.06,305.215 2054.13,142.286 2056.2,250.905 2058.28,359.524 2060.35,359.524 2062.43,305.215 2064.5,359.524 2066.57,305.215 2068.65,359.524 2070.72,522.453 2072.8,413.834 2074.87,305.215 2076.95,359.524 2079.02,359.524 2081.09,359.524 2083.17,522.453 2085.24,522.453 2087.32,196.595 2089.39,576.762 2091.47,359.524 2093.54,413.834 2095.61,576.762 2097.69,142.286 2099.76,413.834 2101.84,250.905 2103.91,685.382 2105.99,413.834 2108.06,359.524 2110.13,305.215 2112.21,413.834 2114.28,522.453 2116.36,413.834 2118.43,305.215 2120.5,413.834 2122.58,250.905 2124.65,359.524 2126.73,305.215 2128.8,576.762 2130.88,413.834 2132.95,468.143 2135.02,305.215 2137.1,250.905 2139.17,359.524 2141.25,305.215 2143.32,250.905 2145.4,522.453 2147.47,468.143 2149.54,305.215 2151.62,359.524 2153.69,576.762 2155.77,631.072 2157.84,142.286 2159.92,468.143 2161.99,250.905 2164.06,413.834 2166.14,413.834 2168.21,359.524 2170.29,522.453 2172.36,359.524 2174.43,522.453 2176.51,468.143 2178.58,305.215 2180.66,413.834 2182.73,359.524 2184.81,413.834 2186.88,359.524 2188.95,468.143 2191.03,359.524 2193.1,794.001 2195.18,468.143 2197.25,142.286 2199.33,522.453 2201.4,250.905 2203.47,468.143 2205.55,305.215 2207.62,250.905 2209.7,250.905 2211.77,305.215 2213.84,305.215 2215.92,413.834 2217.99,468.143 2220.07,413.834 2222.14,413.834 2224.22,196.595 2226.29,305.215 2228.36,196.595 2230.44,305.215 2232.51,196.595 2234.59,468.143 2236.66,142.286 2238.74,196.595 2240.81,413.834 2242.88,522.453 2244.96,522.453 2247.03,522.453 2249.11,250.905 2251.18,250.905 2253.26,468.143 2255.33,468.143 2257.4,250.905 2259.48,196.595 2261.55,359.524 2263.63,196.595 2265.7,305.215 2267.77,359.524 2269.85,359.524 2271.92,87.9763 2274,522.453 2276.07,305.215 2278.15,359.524 2280.22,305.215 2282.29,196.595 2284.37,305.215 2286.44,87.9763 2288.52,196.595 2290.59,413.834 "/>
<path clip-path="url(#clip670)" d="M229.49 198.898 L501.569 198.898 L501.569 95.2176 L229.49 95.2176  Z" fill="#ffffff" fill-rule="evenodd" fill-opacity="1"/>
<polyline clip-path="url(#clip670)" style="stroke:#000000; stroke-linecap:round; stroke-linejoin:round; stroke-width:4; stroke-opacity:1; fill:none" points="229.49,198.898 501.569,198.898 501.569,95.2176 229.49,95.2176 229.49,198.898 "/>
<polyline clip-path="url(#clip670)" style="stroke:#009af9; stroke-linecap:round; stroke-linejoin:round; stroke-width:4; stroke-opacity:1; fill:none" points="253.896,147.058 400.328,147.058 "/>
<path clip-path="url(#clip670)" d="M438.576 166.745 Q436.77 171.375 435.057 172.787 Q433.344 174.199 430.474 174.199 L427.071 174.199 L427.071 170.634 L429.571 170.634 Q431.33 170.634 432.302 169.8 Q433.275 168.967 434.455 165.865 L435.219 163.921 L424.733 138.412 L429.247 138.412 L437.349 158.689 L445.451 138.412 L449.964 138.412 L438.576 166.745 Z" fill="#000000" fill-rule="nonzero" fill-opacity="1" /><path clip-path="url(#clip670)" d="M457.256 160.402 L464.895 160.402 L464.895 134.037 L456.585 135.703 L456.585 131.444 L464.849 129.778 L469.524 129.778 L469.524 160.402 L477.163 160.402 L477.163 164.338 L457.256 164.338 L457.256 160.402 Z" fill="#000000" fill-rule="nonzero" fill-opacity="1" /></svg>
