<?xml version="1.0" encoding="utf-8"?>
<svg xmlns="http://www.w3.org/2000/svg" xmlns:xlink="http://www.w3.org/1999/xlink" width="600" height="400" viewBox="0 0 2400 1600">
<defs>
  <clipPath id="clip330">
    <rect x="0" y="0" width="2400" height="1600"/>
  </clipPath>
</defs>
<path clip-path="url(#clip330)" d="M0 1600 L2400 1600 L2400 0 L0 0  Z" fill="#ffffff" fill-rule="evenodd" fill-opacity="1"/>
<defs>
  <clipPath id="clip331">
    <rect x="480" y="0" width="1681" height="1600"/>
  </clipPath>
</defs>
<path clip-path="url(#clip330)" d="M170.857 1486.45 L2352.76 1486.45 L2352.76 47.2441 L170.857 47.2441  Z" fill="#ffffff" fill-rule="evenodd" fill-opacity="1"/>
<defs>
  <clipPath id="clip332">
    <rect x="170" y="47" width="2183" height="1440"/>
  </clipPath>
</defs>
<polyline clip-path="url(#clip332)" style="stroke:#000000; stroke-linecap:round; stroke-linejoin:round; stroke-width:2; stroke-opacity:0.1; fill:none" points="211.817,1486.45 211.817,47.2441 "/>
<polyline clip-path="url(#clip332)" style="stroke:#000000; stroke-linecap:round; stroke-linejoin:round; stroke-width:2; stroke-opacity:0.1; fill:none" points="731.614,1486.45 731.614,47.2441 "/>
<polyline clip-path="url(#clip332)" style="stroke:#000000; stroke-linecap:round; stroke-linejoin:round; stroke-width:2; stroke-opacity:0.1; fill:none" points="1251.41,1486.45 1251.41,47.2441 "/>
<polyline clip-path="url(#clip332)" style="stroke:#000000; stroke-linecap:round; stroke-linejoin:round; stroke-width:2; stroke-opacity:0.1; fill:none" points="1771.21,1486.45 1771.21,47.2441 "/>
<polyline clip-path="url(#clip332)" style="stroke:#000000; stroke-linecap:round; stroke-linejoin:round; stroke-width:2; stroke-opacity:0.1; fill:none" points="2291,1486.45 2291,47.2441 "/>
<polyline clip-path="url(#clip330)" style="stroke:#000000; stroke-linecap:round; stroke-linejoin:round; stroke-width:4; stroke-opacity:1; fill:none" points="170.857,1486.45 2352.76,1486.45 "/>
<polyline clip-path="url(#clip330)" style="stroke:#000000; stroke-linecap:round; stroke-linejoin:round; stroke-width:4; stroke-opacity:1; fill:none" points="211.817,1486.45 211.817,1467.55 "/>
<polyline clip-path="url(#clip330)" style="stroke:#000000; stroke-linecap:round; stroke-linejoin:round; stroke-width:4; stroke-opacity:1; fill:none" points="731.614,1486.45 731.614,1467.55 "/>
<polyline clip-path="url(#clip330)" style="stroke:#000000; stroke-linecap:round; stroke-linejoin:round; stroke-width:4; stroke-opacity:1; fill:none" points="1251.41,1486.45 1251.41,1467.55 "/>
<polyline clip-path="url(#clip330)" style="stroke:#000000; stroke-linecap:round; stroke-linejoin:round; stroke-width:4; stroke-opacity:1; fill:none" points="1771.21,1486.45 1771.21,1467.55 "/>
<polyline clip-path="url(#clip330)" style="stroke:#000000; stroke-linecap:round; stroke-linejoin:round; stroke-width:4; stroke-opacity:1; fill:none" points="2291,1486.45 2291,1467.55 "/>
<path clip-path="url(#clip330)" d="M211.817 1517.37 Q208.206 1517.37 206.378 1520.93 Q204.572 1524.47 204.572 1531.6 Q204.572 1538.71 206.378 1542.27 Q208.206 1545.82 211.817 1545.82 Q215.452 1545.82 217.257 1542.27 Q219.086 1538.71 219.086 1531.6 Q219.086 1524.47 217.257 1520.93 Q215.452 1517.37 211.817 1517.37 M211.817 1513.66 Q217.628 1513.66 220.683 1518.27 Q223.762 1522.85 223.762 1531.6 Q223.762 1540.33 220.683 1544.94 Q217.628 1549.52 211.817 1549.52 Q206.007 1549.52 202.929 1544.94 Q199.873 1540.33 199.873 1531.6 Q199.873 1522.85 202.929 1518.27 Q206.007 1513.66 211.817 1513.66 Z" fill="#000000" fill-rule="nonzero" fill-opacity="1" /><path clip-path="url(#clip330)" d="M710.885 1544.91 L727.204 1544.91 L727.204 1548.85 L705.26 1548.85 L705.26 1544.91 Q707.922 1542.16 712.505 1537.53 Q717.112 1532.88 718.292 1531.53 Q720.538 1529.01 721.417 1527.27 Q722.32 1525.51 722.32 1523.82 Q722.32 1521.07 720.376 1519.33 Q718.454 1517.6 715.353 1517.6 Q713.154 1517.6 710.7 1518.36 Q708.269 1519.13 705.492 1520.68 L705.492 1515.95 Q708.316 1514.82 710.769 1514.24 Q713.223 1513.66 715.26 1513.66 Q720.63 1513.66 723.825 1516.35 Q727.019 1519.03 727.019 1523.52 Q727.019 1525.65 726.209 1527.57 Q725.422 1529.47 723.315 1532.07 Q722.737 1532.74 719.635 1535.95 Q716.533 1539.15 710.885 1544.91 Z" fill="#000000" fill-rule="nonzero" fill-opacity="1" /><path clip-path="url(#clip330)" d="M737.065 1514.29 L755.422 1514.29 L755.422 1518.22 L741.348 1518.22 L741.348 1526.7 Q742.366 1526.35 743.385 1526.19 Q744.403 1526 745.422 1526 Q751.209 1526 754.588 1529.17 Q757.968 1532.34 757.968 1537.76 Q757.968 1543.34 754.496 1546.44 Q751.024 1549.52 744.704 1549.52 Q742.528 1549.52 740.26 1549.15 Q738.014 1548.78 735.607 1548.04 L735.607 1543.34 Q737.69 1544.47 739.913 1545.03 Q742.135 1545.58 744.612 1545.58 Q748.616 1545.58 750.954 1543.48 Q753.292 1541.37 753.292 1537.76 Q753.292 1534.15 750.954 1532.04 Q748.616 1529.94 744.612 1529.94 Q742.737 1529.94 740.862 1530.35 Q739.01 1530.77 737.065 1531.65 L737.065 1514.29 Z" fill="#000000" fill-rule="nonzero" fill-opacity="1" /><path clip-path="url(#clip330)" d="M1226.11 1514.29 L1244.47 1514.29 L1244.47 1518.22 L1230.39 1518.22 L1230.39 1526.7 Q1231.41 1526.35 1232.43 1526.19 Q1233.45 1526 1234.47 1526 Q1240.25 1526 1243.63 1529.17 Q1247.01 1532.34 1247.01 1537.76 Q1247.01 1543.34 1243.54 1546.44 Q1240.07 1549.52 1233.75 1549.52 Q1231.57 1549.52 1229.3 1549.15 Q1227.06 1548.78 1224.65 1548.04 L1224.65 1543.34 Q1226.73 1544.47 1228.96 1545.03 Q1231.18 1545.58 1233.66 1545.58 Q1237.66 1545.58 1240 1543.48 Q1242.34 1541.37 1242.34 1537.76 Q1242.34 1534.15 1240 1532.04 Q1237.66 1529.94 1233.66 1529.94 Q1231.78 1529.94 1229.91 1530.35 Q1228.05 1530.77 1226.11 1531.65 L1226.11 1514.29 Z" fill="#000000" fill-rule="nonzero" fill-opacity="1" /><path clip-path="url(#clip330)" d="M1266.23 1517.37 Q1262.61 1517.37 1260.79 1520.93 Q1258.98 1524.47 1258.98 1531.6 Q1258.98 1538.71 1260.79 1542.27 Q1262.61 1545.82 1266.23 1545.82 Q1269.86 1545.82 1271.67 1542.27 Q1273.49 1538.71 1273.49 1531.6 Q1273.49 1524.47 1271.67 1520.93 Q1269.86 1517.37 1266.23 1517.37 M1266.23 1513.66 Q1272.04 1513.66 1275.09 1518.27 Q1278.17 1522.85 1278.17 1531.6 Q1278.17 1540.33 1275.09 1544.94 Q1272.04 1549.52 1266.23 1549.52 Q1260.42 1549.52 1257.34 1544.94 Q1254.28 1540.33 1254.28 1531.6 Q1254.28 1522.85 1257.34 1518.27 Q1260.42 1513.66 1266.23 1513.66 Z" fill="#000000" fill-rule="nonzero" fill-opacity="1" /><path clip-path="url(#clip330)" d="M1745.06 1514.29 L1767.28 1514.29 L1767.28 1516.28 L1754.74 1548.85 L1749.85 1548.85 L1761.66 1518.22 L1745.06 1518.22 L1745.06 1514.29 Z" fill="#000000" fill-rule="nonzero" fill-opacity="1" /><path clip-path="url(#clip330)" d="M1776.45 1514.29 L1794.81 1514.29 L1794.81 1518.22 L1780.73 1518.22 L1780.73 1526.7 Q1781.75 1526.35 1782.77 1526.19 Q1783.79 1526 1784.81 1526 Q1790.59 1526 1793.97 1529.17 Q1797.35 1532.34 1797.35 1537.76 Q1797.35 1543.34 1793.88 1546.44 Q1790.41 1549.52 1784.09 1549.52 Q1781.91 1549.52 1779.64 1549.15 Q1777.4 1548.78 1774.99 1548.04 L1774.99 1543.34 Q1777.08 1544.47 1779.3 1545.03 Q1781.52 1545.58 1784 1545.58 Q1788 1545.58 1790.34 1543.48 Q1792.68 1541.37 1792.68 1537.76 Q1792.68 1534.15 1790.34 1532.04 Q1788 1529.94 1784 1529.94 Q1782.12 1529.94 1780.25 1530.35 Q1778.39 1530.77 1776.45 1531.65 L1776.45 1514.29 Z" fill="#000000" fill-rule="nonzero" fill-opacity="1" /><path clip-path="url(#clip330)" d="M2250.61 1544.91 L2258.25 1544.91 L2258.25 1518.55 L2249.94 1520.21 L2249.94 1515.95 L2258.2 1514.29 L2262.88 1514.29 L2262.88 1544.91 L2270.52 1544.91 L2270.52 1548.85 L2250.61 1548.85 L2250.61 1544.91 Z" fill="#000000" fill-rule="nonzero" fill-opacity="1" /><path clip-path="url(#clip330)" d="M2289.96 1517.37 Q2286.35 1517.37 2284.52 1520.93 Q2282.72 1524.47 2282.72 1531.6 Q2282.72 1538.71 2284.52 1542.27 Q2286.35 1545.82 2289.96 1545.82 Q2293.6 1545.82 2295.4 1542.27 Q2297.23 1538.71 2297.23 1531.6 Q2297.23 1524.47 2295.4 1520.93 Q2293.6 1517.37 2289.96 1517.37 M2289.96 1513.66 Q2295.77 1513.66 2298.83 1518.27 Q2301.91 1522.85 2301.91 1531.6 Q2301.91 1540.33 2298.83 1544.94 Q2295.77 1549.52 2289.96 1549.52 Q2284.15 1549.52 2281.07 1544.94 Q2278.02 1540.33 2278.02 1531.6 Q2278.02 1522.85 2281.07 1518.27 Q2284.15 1513.66 2289.96 1513.66 Z" fill="#000000" fill-rule="nonzero" fill-opacity="1" /><path clip-path="url(#clip330)" d="M2320.12 1517.37 Q2316.51 1517.37 2314.68 1520.93 Q2312.88 1524.47 2312.88 1531.6 Q2312.88 1538.71 2314.68 1542.27 Q2316.51 1545.82 2320.12 1545.82 Q2323.76 1545.82 2325.56 1542.27 Q2327.39 1538.71 2327.39 1531.6 Q2327.39 1524.47 2325.56 1520.93 Q2323.76 1517.37 2320.12 1517.37 M2320.12 1513.66 Q2325.93 1513.66 2328.99 1518.27 Q2332.07 1522.85 2332.07 1531.6 Q2332.07 1540.33 2328.99 1544.94 Q2325.93 1549.52 2320.12 1549.52 Q2314.31 1549.52 2311.24 1544.94 Q2308.18 1540.33 2308.18 1531.6 Q2308.18 1522.85 2311.24 1518.27 Q2314.31 1513.66 2320.12 1513.66 Z" fill="#000000" fill-rule="nonzero" fill-opacity="1" /><polyline clip-path="url(#clip332)" style="stroke:#000000; stroke-linecap:round; stroke-linejoin:round; stroke-width:2; stroke-opacity:0.1; fill:none" points="170.857,1445.72 2352.76,1445.72 "/>
<polyline clip-path="url(#clip332)" style="stroke:#000000; stroke-linecap:round; stroke-linejoin:round; stroke-width:2; stroke-opacity:0.1; fill:none" points="170.857,993.136 2352.76,993.136 "/>
<polyline clip-path="url(#clip332)" style="stroke:#000000; stroke-linecap:round; stroke-linejoin:round; stroke-width:2; stroke-opacity:0.1; fill:none" points="170.857,540.556 2352.76,540.556 "/>
<polyline clip-path="url(#clip332)" style="stroke:#000000; stroke-linecap:round; stroke-linejoin:round; stroke-width:2; stroke-opacity:0.1; fill:none" points="170.857,87.9763 2352.76,87.9763 "/>
<polyline clip-path="url(#clip330)" style="stroke:#000000; stroke-linecap:round; stroke-linejoin:round; stroke-width:4; stroke-opacity:1; fill:none" points="170.857,1486.45 170.857,47.2441 "/>
<polyline clip-path="url(#clip330)" style="stroke:#000000; stroke-linecap:round; stroke-linejoin:round; stroke-width:4; stroke-opacity:1; fill:none" points="170.857,1445.72 189.755,1445.72 "/>
<polyline clip-path="url(#clip330)" style="stroke:#000000; stroke-linecap:round; stroke-linejoin:round; stroke-width:4; stroke-opacity:1; fill:none" points="170.857,993.136 189.755,993.136 "/>
<polyline clip-path="url(#clip330)" style="stroke:#000000; stroke-linecap:round; stroke-linejoin:round; stroke-width:4; stroke-opacity:1; fill:none" points="170.857,540.556 189.755,540.556 "/>
<polyline clip-path="url(#clip330)" style="stroke:#000000; stroke-linecap:round; stroke-linejoin:round; stroke-width:4; stroke-opacity:1; fill:none" points="170.857,87.9763 189.755,87.9763 "/>
<path clip-path="url(#clip330)" d="M122.913 1431.51 Q119.302 1431.51 117.473 1435.08 Q115.668 1438.62 115.668 1445.75 Q115.668 1452.86 117.473 1456.42 Q119.302 1459.96 122.913 1459.96 Q126.547 1459.96 128.353 1456.42 Q130.182 1452.86 130.182 1445.75 Q130.182 1438.62 128.353 1435.08 Q126.547 1431.51 122.913 1431.51 M122.913 1427.81 Q128.723 1427.81 131.779 1432.42 Q134.857 1437 134.857 1445.75 Q134.857 1454.48 131.779 1459.08 Q128.723 1463.67 122.913 1463.67 Q117.103 1463.67 114.024 1459.08 Q110.969 1454.48 110.969 1445.75 Q110.969 1437 114.024 1432.42 Q117.103 1427.81 122.913 1427.81 Z" fill="#000000" fill-rule="nonzero" fill-opacity="1" /><path clip-path="url(#clip330)" d="M53.3995 1006.48 L61.0384 1006.48 L61.0384 980.115 L52.7282 981.782 L52.7282 977.523 L60.9921 975.856 L65.668 975.856 L65.668 1006.48 L73.3068 1006.48 L73.3068 1010.42 L53.3995 1010.42 L53.3995 1006.48 Z" fill="#000000" fill-rule="nonzero" fill-opacity="1" /><path clip-path="url(#clip330)" d="M92.7512 978.935 Q89.1401 978.935 87.3114 982.499 Q85.5058 986.041 85.5058 993.171 Q85.5058 1000.28 87.3114 1003.84 Q89.1401 1007.38 92.7512 1007.38 Q96.3854 1007.38 98.1909 1003.84 Q100.02 1000.28 100.02 993.171 Q100.02 986.041 98.1909 982.499 Q96.3854 978.935 92.7512 978.935 M92.7512 975.231 Q98.5613 975.231 101.617 979.837 Q104.696 984.421 104.696 993.171 Q104.696 1001.9 101.617 1006.5 Q98.5613 1011.09 92.7512 1011.09 Q86.941 1011.09 83.8623 1006.5 Q80.8068 1001.9 80.8068 993.171 Q80.8068 984.421 83.8623 979.837 Q86.941 975.231 92.7512 975.231 Z" fill="#000000" fill-rule="nonzero" fill-opacity="1" /><path clip-path="url(#clip330)" d="M122.913 978.935 Q119.302 978.935 117.473 982.499 Q115.668 986.041 115.668 993.171 Q115.668 1000.28 117.473 1003.84 Q119.302 1007.38 122.913 1007.38 Q126.547 1007.38 128.353 1003.84 Q130.182 1000.28 130.182 993.171 Q130.182 986.041 128.353 982.499 Q126.547 978.935 122.913 978.935 M122.913 975.231 Q128.723 975.231 131.779 979.837 Q134.857 984.421 134.857 993.171 Q134.857 1001.9 131.779 1006.5 Q128.723 1011.09 122.913 1011.09 Q117.103 1011.09 114.024 1006.5 Q110.969 1001.9 110.969 993.171 Q110.969 984.421 114.024 979.837 Q117.103 975.231 122.913 975.231 Z" fill="#000000" fill-rule="nonzero" fill-opacity="1" /><path clip-path="url(#clip330)" d="M56.6171 553.901 L72.9365 553.901 L72.9365 557.836 L50.9921 557.836 L50.9921 553.901 Q53.6541 551.146 58.2375 546.517 Q62.8439 541.864 64.0245 540.521 Q66.2698 537.998 67.1494 536.262 Q68.0522 534.503 68.0522 532.813 Q68.0522 530.058 66.1078 528.322 Q64.1865 526.586 61.0847 526.586 Q58.8856 526.586 56.4319 527.35 Q54.0014 528.114 51.2236 529.665 L51.2236 524.943 Q54.0477 523.808 56.5014 523.23 Q58.955 522.651 60.9921 522.651 Q66.3624 522.651 69.5568 525.336 Q72.7513 528.021 72.7513 532.512 Q72.7513 534.642 71.9411 536.563 Q71.1541 538.461 69.0476 541.054 Q68.4689 541.725 65.367 544.943 Q62.2652 548.137 56.6171 553.901 Z" fill="#000000" fill-rule="nonzero" fill-opacity="1" /><path clip-path="url(#clip330)" d="M92.7512 526.355 Q89.1401 526.355 87.3114 529.92 Q85.5058 533.461 85.5058 540.591 Q85.5058 547.697 87.3114 551.262 Q89.1401 554.804 92.7512 554.804 Q96.3854 554.804 98.1909 551.262 Q100.02 547.697 100.02 540.591 Q100.02 533.461 98.1909 529.92 Q96.3854 526.355 92.7512 526.355 M92.7512 522.651 Q98.5613 522.651 101.617 527.258 Q104.696 531.841 104.696 540.591 Q104.696 549.318 101.617 553.924 Q98.5613 558.507 92.7512 558.507 Q86.941 558.507 83.8623 553.924 Q80.8068 549.318 80.8068 540.591 Q80.8068 531.841 83.8623 527.258 Q86.941 522.651 92.7512 522.651 Z" fill="#000000" fill-rule="nonzero" fill-opacity="1" /><path clip-path="url(#clip330)" d="M122.913 526.355 Q119.302 526.355 117.473 529.92 Q115.668 533.461 115.668 540.591 Q115.668 547.697 117.473 551.262 Q119.302 554.804 122.913 554.804 Q126.547 554.804 128.353 551.262 Q130.182 547.697 130.182 540.591 Q130.182 533.461 128.353 529.92 Q126.547 526.355 122.913 526.355 M122.913 522.651 Q128.723 522.651 131.779 527.258 Q134.857 531.841 134.857 540.591 Q134.857 549.318 131.779 553.924 Q128.723 558.507 122.913 558.507 Q117.103 558.507 114.024 553.924 Q110.969 549.318 110.969 540.591 Q110.969 531.841 114.024 527.258 Q117.103 522.651 122.913 522.651 Z" fill="#000000" fill-rule="nonzero" fill-opacity="1" /><path clip-path="url(#clip330)" d="M66.7559 86.6221 Q70.1124 87.3397 71.9874 89.6082 Q73.8855 91.8767 73.8855 95.21 Q73.8855 100.326 70.367 103.127 Q66.8485 105.928 60.3671 105.928 Q58.1912 105.928 55.8764 105.488 Q53.5847 105.071 51.131 104.215 L51.131 99.7008 Q53.0754 100.835 55.3903 101.414 Q57.7051 101.992 60.2282 101.992 Q64.6263 101.992 66.918 100.256 Q69.2328 98.5202 69.2328 95.21 Q69.2328 92.1545 67.08 90.4415 Q64.9504 88.7054 61.131 88.7054 L57.1032 88.7054 L57.1032 84.8629 L61.3161 84.8629 Q64.7652 84.8629 66.5939 83.4971 Q68.4226 82.1083 68.4226 79.5157 Q68.4226 76.8537 66.5245 75.4416 Q64.6495 74.0064 61.131 74.0064 Q59.2097 74.0064 57.0106 74.4231 Q54.8115 74.8398 52.1727 75.7194 L52.1727 71.5528 Q54.8347 70.812 57.1495 70.4416 Q59.4875 70.0713 61.5476 70.0713 Q66.8717 70.0713 69.9735 72.5018 Q73.0753 74.9092 73.0753 79.0296 Q73.0753 81.8999 71.4318 83.8907 Q69.7883 85.8582 66.7559 86.6221 Z" fill="#000000" fill-rule="nonzero" fill-opacity="1" /><path clip-path="url(#clip330)" d="M92.7512 73.775 Q89.1401 73.775 87.3114 77.3398 Q85.5058 80.8814 85.5058 88.011 Q85.5058 95.1174 87.3114 98.6822 Q89.1401 102.224 92.7512 102.224 Q96.3854 102.224 98.1909 98.6822 Q100.02 95.1174 100.02 88.011 Q100.02 80.8814 98.1909 77.3398 Q96.3854 73.775 92.7512 73.775 M92.7512 70.0713 Q98.5613 70.0713 101.617 74.6777 Q104.696 79.261 104.696 88.011 Q104.696 96.7378 101.617 101.344 Q98.5613 105.928 92.7512 105.928 Q86.941 105.928 83.8623 101.344 Q80.8068 96.7378 80.8068 88.011 Q80.8068 79.261 83.8623 74.6777 Q86.941 70.0713 92.7512 70.0713 Z" fill="#000000" fill-rule="nonzero" fill-opacity="1" /><path clip-path="url(#clip330)" d="M122.913 73.775 Q119.302 73.775 117.473 77.3398 Q115.668 80.8814 115.668 88.011 Q115.668 95.1174 117.473 98.6822 Q119.302 102.224 122.913 102.224 Q126.547 102.224 128.353 98.6822 Q130.182 95.1174 130.182 88.011 Q130.182 80.8814 128.353 77.3398 Q126.547 73.775 122.913 73.775 M122.913 70.0713 Q128.723 70.0713 131.779 74.6777 Q134.857 79.261 134.857 88.011 Q134.857 96.7378 131.779 101.344 Q128.723 105.928 122.913 105.928 Q117.103 105.928 114.024 101.344 Q110.969 96.7378 110.969 88.011 Q110.969 79.261 114.024 74.6777 Q117.103 70.0713 122.913 70.0713 Z" fill="#000000" fill-rule="nonzero" fill-opacity="1" /><path clip-path="url(#clip332)" d="M232.609 1418.56 L253.401 1418.56 L274.193 1427.61 L294.985 1436.66 L315.777 1427.61 L336.569 1423.09 L357.36 1423.09 L378.152 1432.14 L398.944 1414.04 L419.736 1423.09 L440.528 1423.09 L461.32 1418.56 L482.112 1409.51 L502.904 1400.46 L523.695 1418.56 L544.487 1418.56 L565.279 1418.56 L586.071 1391.41 L606.863 1409.51 L627.655 1404.98 L648.447 1400.46 L669.238 1391.41 L690.03 1427.61 L710.822 1395.93 L731.614 1418.56 L752.406 1409.51 L773.198 1395.93 L793.99 1391.41 L814.782 1427.61 L835.573 1395.93 L856.365 1395.93 L877.157 1414.04 L897.949 1391.41 L918.741 1400.46 L939.533 1414.04 L960.325 1386.88 L981.116 1404.98 L1001.91 1373.3 L1022.7 1382.35 L1043.49 1386.88 L1064.28 1404.98 L1085.08 1373.3 L1105.87 1382.35 L1126.66 1409.51 L1147.45 1400.46 L1168.24 1409.51 L1189.04 1386.88 L1209.83 1395.93 L1230.62 1359.73 L1251.41 1368.78 L1272.2 1395.93 L1292.99 1373.3 L1313.79 1377.83 L1334.58 1391.41 L1355.37 1350.67 L1376.16 1346.15 L1396.95 1368.78 L1417.75 1359.73 L1438.54 1359.73 L1459.33 1391.41 L1480.12 1386.88 L1500.91 1373.3 L1521.7 1337.1 L1542.5 1382.35 L1563.29 1332.57 L1584.08 1355.2 L1604.87 1341.62 L1625.66 1346.15 L1646.46 1359.73 L1667.25 1323.52 L1688.04 1341.62 L1708.83 1382.35 L1729.62 1341.62 L1750.42 1300.89 L1771.21 1368.78 L1792 1332.57 L1812.79 1341.62 L1833.58 1323.52 L1854.37 1337.1 L1875.17 1355.2 L1895.96 1346.15 L1916.75 1332.57 L1937.54 1314.47 L1958.33 1309.94 L1979.13 1318.99 L1999.92 1309.94 L2020.71 1314.47 L2041.5 1269.21 L2062.29 1341.62 L2083.09 1287.31 L2103.88 1314.47 L2124.67 1282.79 L2145.46 1341.62 L2166.25 1318.99 L2187.04 1355.2 L2207.84 1309.94 L2228.63 1328.04 L2249.42 1305.42 L2270.21 1314.47 L2291 1305.42 L2291 1445.72 L2270.21 1445.72 L2249.42 1445.72 L2228.63 1445.72 L2207.84 1445.72 L2187.04 1445.72 L2166.25 1445.72 L2145.46 1445.72 L2124.67 1445.72 L2103.88 1445.72 L2083.09 1445.72 L2062.29 1445.72 L2041.5 1445.72 L2020.71 1445.72 L1999.92 1445.72 L1979.13 1445.72 L1958.33 1445.72 L1937.54 1445.72 L1916.75 1445.72 L1895.96 1445.72 L1875.17 1445.72 L1854.37 1445.72 L1833.58 1445.72 L1812.79 1445.72 L1792 1445.72 L1771.21 1445.72 L1750.42 1445.72 L1729.62 1445.72 L1708.83 1445.72 L1688.04 1445.72 L1667.25 1445.72 L1646.46 1445.72 L1625.66 1445.72 L1604.87 1445.72 L1584.08 1445.72 L1563.29 1445.72 L1542.5 1445.72 L1521.7 1445.72 L1500.91 1445.72 L1480.12 1445.72 L1459.33 1445.72 L1438.54 1445.72 L1417.75 1445.72 L1396.95 1445.72 L1376.16 1445.72 L1355.37 1445.72 L1334.58 1445.72 L1313.79 1445.72 L1292.99 1445.72 L1272.2 1445.72 L1251.41 1445.72 L1230.62 1445.72 L1209.83 1445.72 L1189.04 1445.72 L1168.24 1445.72 L1147.45 1445.72 L1126.66 1445.72 L1105.87 1445.72 L1085.08 1445.72 L1064.28 1445.72 L1043.49 1445.72 L1022.7 1445.72 L1001.91 1445.72 L981.116 1445.72 L960.325 1445.72 L939.533 1445.72 L918.741 1445.72 L897.949 1445.72 L877.157 1445.72 L856.365 1445.72 L835.573 1445.72 L814.782 1445.72 L793.99 1445.72 L773.198 1445.72 L752.406 1445.72 L731.614 1445.72 L710.822 1445.72 L690.03 1445.72 L669.238 1445.72 L648.447 1445.72 L627.655 1445.72 L606.863 1445.72 L586.071 1445.72 L565.279 1445.72 L544.487 1445.72 L523.695 1445.72 L502.904 1445.72 L482.112 1445.72 L461.32 1445.72 L440.528 1445.72 L419.736 1445.72 L398.944 1445.72 L378.152 1445.72 L357.36 1445.72 L336.569 1445.72 L315.777 1445.72 L294.985 1445.72 L274.193 1445.72 L253.401 1445.72 L232.609 1445.72  Z" fill="#032333" fill-rule="evenodd" fill-opacity="1"/>
<polyline clip-path="url(#clip332)" style="stroke:#032333; stroke-linecap:round; stroke-linejoin:round; stroke-width:4; stroke-opacity:1; fill:none" points="232.609,1418.56 253.401,1418.56 274.193,1427.61 294.985,1436.66 315.777,1427.61 336.569,1423.09 357.36,1423.09 378.152,1432.14 398.944,1414.04 419.736,1423.09 440.528,1423.09 461.32,1418.56 482.112,1409.51 502.904,1400.46 523.695,1418.56 544.487,1418.56 565.279,1418.56 586.071,1391.41 606.863,1409.51 627.655,1404.98 648.447,1400.46 669.238,1391.41 690.03,1427.61 710.822,1395.93 731.614,1418.56 752.406,1409.51 773.198,1395.93 793.99,1391.41 814.782,1427.61 835.573,1395.93 856.365,1395.93 877.157,1414.04 897.949,1391.41 918.741,1400.46 939.533,1414.04 960.325,1386.88 981.116,1404.98 1001.91,1373.3 1022.7,1382.35 1043.49,1386.88 1064.28,1404.98 1085.08,1373.3 1105.87,1382.35 1126.66,1409.51 1147.45,1400.46 1168.24,1409.51 1189.04,1386.88 1209.83,1395.93 1230.62,1359.73 1251.41,1368.78 1272.2,1395.93 1292.99,1373.3 1313.79,1377.83 1334.58,1391.41 1355.37,1350.67 1376.16,1346.15 1396.95,1368.78 1417.75,1359.73 1438.54,1359.73 1459.33,1391.41 1480.12,1386.88 1500.91,1373.3 1521.7,1337.1 1542.5,1382.35 1563.29,1332.57 1584.08,1355.2 1604.87,1341.62 1625.66,1346.15 1646.46,1359.73 1667.25,1323.52 1688.04,1341.62 1708.83,1382.35 1729.62,1341.62 1750.42,1300.89 1771.21,1368.78 1792,1332.57 1812.79,1341.62 1833.58,1323.52 1854.37,1337.1 1875.17,1355.2 1895.96,1346.15 1916.75,1332.57 1937.54,1314.47 1958.33,1309.94 1979.13,1318.99 1999.92,1309.94 2020.71,1314.47 2041.5,1269.21 2062.29,1341.62 2083.09,1287.31 2103.88,1314.47 2124.67,1282.79 2145.46,1341.62 2166.25,1318.99 2187.04,1355.2 2207.84,1309.94 2228.63,1328.04 2249.42,1305.42 2270.21,1314.47 2291,1305.42 "/>
<path clip-path="url(#clip332)" d="M232.609 1414.04 L253.401 1418.56 L274.193 1414.04 L294.985 1432.14 L315.777 1423.09 L336.569 1414.04 L357.36 1418.56 L378.152 1432.14 L398.944 1414.04 L419.736 1418.56 L440.528 1409.51 L461.32 1414.04 L482.112 1400.46 L502.904 1386.88 L523.695 1409.51 L544.487 1414.04 L565.279 1414.04 L586.071 1382.35 L606.863 1391.41 L627.655 1395.93 L648.447 1391.41 L669.238 1377.83 L690.03 1418.56 L710.822 1386.88 L731.614 1395.93 L752.406 1400.46 L773.198 1395.93 L793.99 1373.3 L814.782 1409.51 L835.573 1377.83 L856.365 1377.83 L877.157 1391.41 L897.949 1359.73 L918.741 1377.83 L939.533 1400.46 L960.325 1368.78 L981.116 1359.73 L1001.91 1350.67 L1022.7 1368.78 L1043.49 1373.3 L1064.28 1355.2 L1085.08 1355.2 L1105.87 1346.15 L1126.66 1391.41 L1147.45 1377.83 L1168.24 1364.25 L1189.04 1337.1 L1209.83 1382.35 L1230.62 1296.36 L1251.41 1341.62 L1272.2 1332.57 L1292.99 1318.99 L1313.79 1355.2 L1334.58 1350.67 L1355.37 1332.57 L1376.16 1296.36 L1396.95 1309.94 L1417.75 1318.99 L1438.54 1300.89 L1459.33 1328.04 L1480.12 1314.47 L1500.91 1332.57 L1521.7 1296.36 L1542.5 1328.04 L1563.29 1282.79 L1584.08 1296.36 L1604.87 1291.84 L1625.66 1291.84 L1646.46 1296.36 L1667.25 1282.79 L1688.04 1246.58 L1708.83 1323.52 L1729.62 1287.31 L1750.42 1251.11 L1771.21 1278.26 L1792 1278.26 L1812.79 1282.79 L1833.58 1251.11 L1854.37 1278.26 L1875.17 1287.31 L1895.96 1282.79 L1916.75 1242.05 L1937.54 1233 L1958.33 1233 L1979.13 1237.53 L1999.92 1223.95 L2020.71 1196.8 L2041.5 1187.75 L2062.29 1264.68 L2083.09 1196.8 L2103.88 1228.48 L2124.67 1174.17 L2145.46 1219.43 L2166.25 1196.8 L2187.04 1260.16 L2207.84 1183.22 L2228.63 1237.53 L2249.42 1192.27 L2270.21 1183.22 L2291 1192.27 L2291 1305.42 L2270.21 1314.47 L2249.42 1305.42 L2228.63 1328.04 L2207.84 1309.94 L2187.04 1355.2 L2166.25 1318.99 L2145.46 1341.62 L2124.67 1282.79 L2103.88 1314.47 L2083.09 1287.31 L2062.29 1341.62 L2041.5 1269.21 L2020.71 1314.47 L1999.92 1309.94 L1979.13 1318.99 L1958.33 1309.94 L1937.54 1314.47 L1916.75 1332.57 L1895.96 1346.15 L1875.17 1355.2 L1854.37 1337.1 L1833.58 1323.52 L1812.79 1341.62 L1792 1332.57 L1771.21 1368.78 L1750.42 1300.89 L1729.62 1341.62 L1708.83 1382.35 L1688.04 1341.62 L1667.25 1323.52 L1646.46 1359.73 L1625.66 1346.15 L1604.87 1341.62 L1584.08 1355.2 L1563.29 1332.57 L1542.5 1382.35 L1521.7 1337.1 L1500.91 1373.3 L1480.12 1386.88 L1459.33 1391.41 L1438.54 1359.73 L1417.75 1359.73 L1396.95 1368.78 L1376.16 1346.15 L1355.37 1350.67 L1334.58 1391.41 L1313.79 1377.83 L1292.99 1373.3 L1272.2 1395.93 L1251.41 1368.78 L1230.62 1359.73 L1209.83 1395.93 L1189.04 1386.88 L1168.24 1409.51 L1147.45 1400.46 L1126.66 1409.51 L1105.87 1382.35 L1085.08 1373.3 L1064.28 1404.98 L1043.49 1386.88 L1022.7 1382.35 L1001.91 1373.3 L981.116 1404.98 L960.325 1386.88 L939.533 1414.04 L918.741 1400.46 L897.949 1391.41 L877.157 1414.04 L856.365 1395.93 L835.573 1395.93 L814.782 1427.61 L793.99 1391.41 L773.198 1395.93 L752.406 1409.51 L731.614 1418.56 L710.822 1395.93 L690.03 1427.61 L669.238 1391.41 L648.447 1400.46 L627.655 1404.98 L606.863 1409.51 L586.071 1391.41 L565.279 1418.56 L544.487 1418.56 L523.695 1418.56 L502.904 1400.46 L482.112 1409.51 L461.32 1418.56 L440.528 1423.09 L419.736 1423.09 L398.944 1414.04 L378.152 1432.14 L357.36 1423.09 L336.569 1423.09 L315.777 1427.61 L294.985 1436.66 L274.193 1427.61 L253.401 1418.56 L232.609 1418.56  Z" fill="#e7fa5a" fill-rule="evenodd" fill-opacity="1"/>
<polyline clip-path="url(#clip332)" style="stroke:#e7fa5a; stroke-linecap:round; stroke-linejoin:round; stroke-width:4; stroke-opacity:1; fill:none" points="232.609,1414.04 253.401,1418.56 274.193,1414.04 294.985,1432.14 315.777,1423.09 336.569,1414.04 357.36,1418.56 378.152,1432.14 398.944,1414.04 419.736,1418.56 440.528,1409.51 461.32,1414.04 482.112,1400.46 502.904,1386.88 523.695,1409.51 544.487,1414.04 565.279,1414.04 586.071,1382.35 606.863,1391.41 627.655,1395.93 648.447,1391.41 669.238,1377.83 690.03,1418.56 710.822,1386.88 731.614,1395.93 752.406,1400.46 773.198,1395.93 793.99,1373.3 814.782,1409.51 835.573,1377.83 856.365,1377.83 877.157,1391.41 897.949,1359.73 918.741,1377.83 939.533,1400.46 960.325,1368.78 981.116,1359.73 1001.91,1350.67 1022.7,1368.78 1043.49,1373.3 1064.28,1355.2 1085.08,1355.2 1105.87,1346.15 1126.66,1391.41 1147.45,1377.83 1168.24,1364.25 1189.04,1337.1 1209.83,1382.35 1230.62,1296.36 1251.41,1341.62 1272.2,1332.57 1292.99,1318.99 1313.79,1355.2 1334.58,1350.67 1355.37,1332.57 1376.16,1296.36 1396.95,1309.94 1417.75,1318.99 1438.54,1300.89 1459.33,1328.04 1480.12,1314.47 1500.91,1332.57 1521.7,1296.36 1542.5,1328.04 1563.29,1282.79 1584.08,1296.36 1604.87,1291.84 1625.66,1291.84 1646.46,1296.36 1667.25,1282.79 1688.04,1246.58 1708.83,1323.52 1729.62,1287.31 1750.42,1251.11 1771.21,1278.26 1792,1278.26 1812.79,1282.79 1833.58,1251.11 1854.37,1278.26 1875.17,1287.31 1895.96,1282.79 1916.75,1242.05 1937.54,1233 1958.33,1233 1979.13,1237.53 1999.92,1223.95 2020.71,1196.8 2041.5,1187.75 2062.29,1264.68 2083.09,1196.8 2103.88,1228.48 2124.67,1174.17 2145.46,1219.43 2166.25,1196.8 2187.04,1260.16 2207.84,1183.22 2228.63,1237.53 2249.42,1192.27 2270.21,1183.22 2291,1192.27 "/>
<path clip-path="url(#clip332)" d="M232.609 1233 L253.401 1242.05 L274.193 1246.58 L294.985 1273.74 L315.777 1196.8 L336.569 1174.17 L357.36 1223.95 L378.152 1223.95 L398.944 1214.9 L419.736 1233 L440.528 1219.43 L461.32 1214.9 L482.112 1223.95 L502.904 1133.44 L523.695 1228.48 L544.487 1223.95 L565.279 1242.05 L586.071 1169.64 L606.863 1169.64 L627.655 1174.17 L648.447 1151.54 L669.238 1201.32 L690.03 1183.22 L710.822 1147.01 L731.614 1110.81 L752.406 1174.17 L773.198 1183.22 L793.99 1115.33 L814.782 1147.01 L835.573 1097.23 L856.365 1151.54 L877.157 1174.17 L897.949 1147.01 L918.741 1160.59 L939.533 1192.27 L960.325 1156.06 L981.116 1092.7 L1001.91 1092.7 L1022.7 1101.76 L1043.49 1160.59 L1064.28 1097.23 L1085.08 1119.86 L1105.87 1051.97 L1126.66 1160.59 L1147.45 1110.81 L1168.24 1097.23 L1189.04 1033.87 L1209.83 1137.96 L1230.62 1079.13 L1251.41 1128.91 L1272.2 1079.13 L1292.99 1088.18 L1313.79 1097.23 L1334.58 1097.23 L1355.37 1029.34 L1376.16 1083.65 L1396.95 1070.07 L1417.75 1038.39 L1438.54 1029.34 L1459.33 1110.81 L1480.12 1110.81 L1500.91 1097.23 L1521.7 1065.55 L1542.5 1047.45 L1563.29 1061.02 L1584.08 1047.45 L1604.87 1015.76 L1625.66 1092.7 L1646.46 1061.02 L1667.25 1042.92 L1688.04 993.136 L1708.83 1061.02 L1729.62 1047.45 L1750.42 1038.39 L1771.21 1047.45 L1792 1033.87 L1812.79 1061.02 L1833.58 1042.92 L1854.37 1061.02 L1875.17 1042.92 L1895.96 1115.33 L1916.75 984.084 L1937.54 1006.71 L1958.33 1006.71 L1979.13 1047.45 L1999.92 1065.55 L2020.71 965.981 L2041.5 952.404 L2062.29 1024.82 L2083.09 947.878 L2103.88 1024.82 L2124.67 1011.24 L2145.46 975.033 L2166.25 979.558 L2187.04 1002.19 L2207.84 961.455 L2228.63 1033.87 L2249.42 997.662 L2270.21 997.662 L2291 975.033 L2291 1192.27 L2270.21 1183.22 L2249.42 1192.27 L2228.63 1237.53 L2207.84 1183.22 L2187.04 1260.16 L2166.25 1196.8 L2145.46 1219.43 L2124.67 1174.17 L2103.88 1228.48 L2083.09 1196.8 L2062.29 1264.68 L2041.5 1187.75 L2020.71 1196.8 L1999.92 1223.95 L1979.13 1237.53 L1958.33 1233 L1937.54 1233 L1916.75 1242.05 L1895.96 1282.79 L1875.17 1287.31 L1854.37 1278.26 L1833.58 1251.11 L1812.79 1282.79 L1792 1278.26 L1771.21 1278.26 L1750.42 1251.11 L1729.62 1287.31 L1708.83 1323.52 L1688.04 1246.58 L1667.25 1282.79 L1646.46 1296.36 L1625.66 1291.84 L1604.87 1291.84 L1584.08 1296.36 L1563.29 1282.79 L1542.5 1328.04 L1521.7 1296.36 L1500.91 1332.57 L1480.12 1314.47 L1459.33 1328.04 L1438.54 1300.89 L1417.75 1318.99 L1396.95 1309.94 L1376.16 1296.36 L1355.37 1332.57 L1334.58 1350.67 L1313.79 1355.2 L1292.99 1318.99 L1272.2 1332.57 L1251.41 1341.62 L1230.62 1296.36 L1209.83 1382.35 L1189.04 1337.1 L1168.24 1364.25 L1147.45 1377.83 L1126.66 1391.41 L1105.87 1346.15 L1085.08 1355.2 L1064.28 1355.2 L1043.49 1373.3 L1022.7 1368.78 L1001.91 1350.67 L981.116 1359.73 L960.325 1368.78 L939.533 1400.46 L918.741 1377.83 L897.949 1359.73 L877.157 1391.41 L856.365 1377.83 L835.573 1377.83 L814.782 1409.51 L793.99 1373.3 L773.198 1395.93 L752.406 1400.46 L731.614 1395.93 L710.822 1386.88 L690.03 1418.56 L669.238 1377.83 L648.447 1391.41 L627.655 1395.93 L606.863 1391.41 L586.071 1382.35 L565.279 1414.04 L544.487 1414.04 L523.695 1409.51 L502.904 1386.88 L482.112 1400.46 L461.32 1414.04 L440.528 1409.51 L419.736 1418.56 L398.944 1414.04 L378.152 1432.14 L357.36 1418.56 L336.569 1414.04 L315.777 1423.09 L294.985 1432.14 L274.193 1414.04 L253.401 1418.56 L232.609 1414.04  Z" fill="#af5f81" fill-rule="evenodd" fill-opacity="1"/>
<polyline clip-path="url(#clip332)" style="stroke:#af5f81; stroke-linecap:round; stroke-linejoin:round; stroke-width:4; stroke-opacity:1; fill:none" points="232.609,1233 253.401,1242.05 274.193,1246.58 294.985,1273.74 315.777,1196.8 336.569,1174.17 357.36,1223.95 378.152,1223.95 398.944,1214.9 419.736,1233 440.528,1219.43 461.32,1214.9 482.112,1223.95 502.904,1133.44 523.695,1228.48 544.487,1223.95 565.279,1242.05 586.071,1169.64 606.863,1169.64 627.655,1174.17 648.447,1151.54 669.238,1201.32 690.03,1183.22 710.822,1147.01 731.614,1110.81 752.406,1174.17 773.198,1183.22 793.99,1115.33 814.782,1147.01 835.573,1097.23 856.365,1151.54 877.157,1174.17 897.949,1147.01 918.741,1160.59 939.533,1192.27 960.325,1156.06 981.116,1092.7 1001.91,1092.7 1022.7,1101.76 1043.49,1160.59 1064.28,1097.23 1085.08,1119.86 1105.87,1051.97 1126.66,1160.59 1147.45,1110.81 1168.24,1097.23 1189.04,1033.87 1209.83,1137.96 1230.62,1079.13 1251.41,1128.91 1272.2,1079.13 1292.99,1088.18 1313.79,1097.23 1334.58,1097.23 1355.37,1029.34 1376.16,1083.65 1396.95,1070.07 1417.75,1038.39 1438.54,1029.34 1459.33,1110.81 1480.12,1110.81 1500.91,1097.23 1521.7,1065.55 1542.5,1047.45 1563.29,1061.02 1584.08,1047.45 1604.87,1015.76 1625.66,1092.7 1646.46,1061.02 1667.25,1042.92 1688.04,993.136 1708.83,1061.02 1729.62,1047.45 1750.42,1038.39 1771.21,1047.45 1792,1033.87 1812.79,1061.02 1833.58,1042.92 1854.37,1061.02 1875.17,1042.92 1895.96,1115.33 1916.75,984.084 1937.54,1006.71 1958.33,1006.71 1979.13,1047.45 1999.92,1065.55 2020.71,965.981 2041.5,952.404 2062.29,1024.82 2083.09,947.878 2103.88,1024.82 2124.67,1011.24 2145.46,975.033 2166.25,979.558 2187.04,1002.19 2207.84,961.455 2228.63,1033.87 2249.42,997.662 2270.21,997.662 2291,975.033 "/>
<path clip-path="url(#clip332)" d="M232.609 1210.37 L253.401 1210.37 L274.193 1228.48 L294.985 1223.95 L315.777 1160.59 L336.569 1142.49 L357.36 1196.8 L378.152 1165.12 L398.944 1169.64 L419.736 1183.22 L440.528 1169.64 L461.32 1156.06 L482.112 1151.54 L502.904 1110.81 L523.695 1156.06 L544.487 1147.01 L565.279 1178.69 L586.071 1106.28 L606.863 1110.81 L627.655 1088.18 L648.447 1083.65 L669.238 1124.38 L690.03 1079.13 L710.822 1061.02 L731.614 1051.97 L752.406 1070.07 L773.198 1119.86 L793.99 1033.87 L814.782 1047.45 L835.573 1015.76 L856.365 1006.71 L877.157 1056.5 L897.949 988.61 L918.741 1079.13 L939.533 1074.6 L960.325 1056.5 L981.116 1002.19 L1001.91 993.136 L1022.7 979.558 L1043.49 1038.39 L1064.28 970.507 L1085.08 993.136 L1105.87 988.61 L1126.66 1029.34 L1147.45 1011.24 L1168.24 1015.76 L1189.04 907.146 L1209.83 1006.71 L1230.62 938.826 L1251.41 1024.82 L1272.2 943.352 L1292.99 920.723 L1313.79 1006.71 L1334.58 979.558 L1355.37 893.568 L1376.16 952.404 L1396.95 961.455 L1417.75 866.414 L1438.54 893.568 L1459.33 920.723 L1480.12 956.93 L1500.91 934.301 L1521.7 947.878 L1542.5 907.146 L1563.29 889.043 L1584.08 857.362 L1604.87 879.991 L1625.66 993.136 L1646.46 925.249 L1667.25 907.146 L1688.04 884.517 L1708.83 929.775 L1729.62 889.043 L1750.42 870.939 L1771.21 884.517 L1792 884.517 L1812.79 898.094 L1833.58 879.991 L1854.37 875.465 L1875.17 916.197 L1895.96 934.301 L1916.75 807.578 L1937.54 866.414 L1958.33 803.052 L1979.13 884.517 L1999.92 893.568 L2020.71 784.949 L2041.5 812.104 L2062.29 821.156 L2083.09 825.681 L2103.88 870.939 L2124.67 830.207 L2145.46 775.898 L2166.25 852.836 L2187.04 852.836 L2207.84 821.156 L2228.63 870.939 L2249.42 807.578 L2270.21 839.259 L2291 807.578 L2291 975.033 L2270.21 997.662 L2249.42 997.662 L2228.63 1033.87 L2207.84 961.455 L2187.04 1002.19 L2166.25 979.558 L2145.46 975.033 L2124.67 1011.24 L2103.88 1024.82 L2083.09 947.878 L2062.29 1024.82 L2041.5 952.404 L2020.71 965.981 L1999.92 1065.55 L1979.13 1047.45 L1958.33 1006.71 L1937.54 1006.71 L1916.75 984.084 L1895.96 1115.33 L1875.17 1042.92 L1854.37 1061.02 L1833.58 1042.92 L1812.79 1061.02 L1792 1033.87 L1771.21 1047.45 L1750.42 1038.39 L1729.62 1047.45 L1708.83 1061.02 L1688.04 993.136 L1667.25 1042.92 L1646.46 1061.02 L1625.66 1092.7 L1604.87 1015.76 L1584.08 1047.45 L1563.29 1061.02 L1542.5 1047.45 L1521.7 1065.55 L1500.91 1097.23 L1480.12 1110.81 L1459.33 1110.81 L1438.54 1029.34 L1417.75 1038.39 L1396.95 1070.07 L1376.16 1083.65 L1355.37 1029.34 L1334.58 1097.23 L1313.79 1097.23 L1292.99 1088.18 L1272.2 1079.13 L1251.41 1128.91 L1230.62 1079.13 L1209.83 1137.96 L1189.04 1033.87 L1168.24 1097.23 L1147.45 1110.81 L1126.66 1160.59 L1105.87 1051.97 L1085.08 1119.86 L1064.28 1097.23 L1043.49 1160.59 L1022.7 1101.76 L1001.91 1092.7 L981.116 1092.7 L960.325 1156.06 L939.533 1192.27 L918.741 1160.59 L897.949 1147.01 L877.157 1174.17 L856.365 1151.54 L835.573 1097.23 L814.782 1147.01 L793.99 1115.33 L773.198 1183.22 L752.406 1174.17 L731.614 1110.81 L710.822 1147.01 L690.03 1183.22 L669.238 1201.32 L648.447 1151.54 L627.655 1174.17 L606.863 1169.64 L586.071 1169.64 L565.279 1242.05 L544.487 1223.95 L523.695 1228.48 L502.904 1133.44 L482.112 1223.95 L461.32 1214.9 L440.528 1219.43 L419.736 1233 L398.944 1214.9 L378.152 1223.95 L357.36 1223.95 L336.569 1174.17 L315.777 1196.8 L294.985 1273.74 L274.193 1246.58 L253.401 1242.05 L232.609 1233  Z" fill="#553b9c" fill-rule="evenodd" fill-opacity="1"/>
<polyline clip-path="url(#clip332)" style="stroke:#553b9c; stroke-linecap:round; stroke-linejoin:round; stroke-width:4; stroke-opacity:1; fill:none" points="232.609,1210.37 253.401,1210.37 274.193,1228.48 294.985,1223.95 315.777,1160.59 336.569,1142.49 357.36,1196.8 378.152,1165.12 398.944,1169.64 419.736,1183.22 440.528,1169.64 461.32,1156.06 482.112,1151.54 502.904,1110.81 523.695,1156.06 544.487,1147.01 565.279,1178.69 586.071,1106.28 606.863,1110.81 627.655,1088.18 648.447,1083.65 669.238,1124.38 690.03,1079.13 710.822,1061.02 731.614,1051.97 752.406,1070.07 773.198,1119.86 793.99,1033.87 814.782,1047.45 835.573,1015.76 856.365,1006.71 877.157,1056.5 897.949,988.61 918.741,1079.13 939.533,1074.6 960.325,1056.5 981.116,1002.19 1001.91,993.136 1022.7,979.558 1043.49,1038.39 1064.28,970.507 1085.08,993.136 1105.87,988.61 1126.66,1029.34 1147.45,1011.24 1168.24,1015.76 1189.04,907.146 1209.83,1006.71 1230.62,938.826 1251.41,1024.82 1272.2,943.352 1292.99,920.723 1313.79,1006.71 1334.58,979.558 1355.37,893.568 1376.16,952.404 1396.95,961.455 1417.75,866.414 1438.54,893.568 1459.33,920.723 1480.12,956.93 1500.91,934.301 1521.7,947.878 1542.5,907.146 1563.29,889.043 1584.08,857.362 1604.87,879.991 1625.66,993.136 1646.46,925.249 1667.25,907.146 1688.04,884.517 1708.83,929.775 1729.62,889.043 1750.42,870.939 1771.21,884.517 1792,884.517 1812.79,898.094 1833.58,879.991 1854.37,875.465 1875.17,916.197 1895.96,934.301 1916.75,807.578 1937.54,866.414 1958.33,803.052 1979.13,884.517 1999.92,893.568 2020.71,784.949 2041.5,812.104 2062.29,821.156 2083.09,825.681 2103.88,870.939 2124.67,830.207 2145.46,775.898 2166.25,852.836 2187.04,852.836 2207.84,821.156 2228.63,870.939 2249.42,807.578 2270.21,839.259 2291,807.578 "/>
<path clip-path="url(#clip332)" d="M232.609 1124.38 L253.401 1124.38 L274.193 1142.49 L294.985 1142.49 L315.777 1065.55 L336.569 1051.97 L357.36 1083.65 L378.152 1051.97 L398.944 1061.02 L419.736 1079.13 L440.528 1079.13 L461.32 1038.39 L482.112 1038.39 L502.904 1002.19 L523.695 1056.5 L544.487 1047.45 L565.279 1051.97 L586.071 988.61 L606.863 988.61 L627.655 984.084 L648.447 984.084 L669.238 1042.92 L690.03 965.981 L710.822 952.404 L731.614 925.249 L752.406 965.981 L773.198 997.662 L793.99 965.981 L814.782 907.146 L835.573 947.878 L856.365 875.465 L877.157 934.301 L897.949 898.094 L918.741 961.455 L939.533 970.507 L960.325 965.981 L981.116 884.517 L1001.91 898.094 L1022.7 866.414 L1043.49 861.888 L1064.28 839.259 L1085.08 879.991 L1105.87 875.465 L1126.66 893.568 L1147.45 857.362 L1168.24 907.146 L1189.04 766.846 L1209.83 875.465 L1230.62 812.104 L1251.41 852.836 L1272.2 857.362 L1292.99 798.527 L1313.79 861.888 L1334.58 834.733 L1355.37 771.372 L1376.16 821.156 L1396.95 812.104 L1417.75 757.794 L1438.54 735.165 L1459.33 775.898 L1480.12 807.578 L1500.91 735.165 L1521.7 762.32 L1542.5 771.372 L1563.29 762.32 L1584.08 775.898 L1604.87 771.372 L1625.66 839.259 L1646.46 789.475 L1667.25 775.898 L1688.04 726.114 L1708.83 780.423 L1729.62 717.062 L1750.42 762.32 L1771.21 744.217 L1792 712.536 L1812.79 735.165 L1833.58 726.114 L1854.37 698.959 L1875.17 780.423 L1895.96 753.269 L1916.75 667.278 L1937.54 712.536 L1958.33 676.33 L1979.13 726.114 L1999.92 748.743 L2020.71 640.124 L2041.5 717.062 L2062.29 667.278 L2083.09 667.278 L2103.88 721.588 L2124.67 694.433 L2145.46 626.546 L2166.25 685.382 L2187.04 744.217 L2207.84 708.011 L2228.63 680.856 L2249.42 680.856 L2270.21 640.124 L2291 685.382 L2291 807.578 L2270.21 839.259 L2249.42 807.578 L2228.63 870.939 L2207.84 821.156 L2187.04 852.836 L2166.25 852.836 L2145.46 775.898 L2124.67 830.207 L2103.88 870.939 L2083.09 825.681 L2062.29 821.156 L2041.5 812.104 L2020.71 784.949 L1999.92 893.568 L1979.13 884.517 L1958.33 803.052 L1937.54 866.414 L1916.75 807.578 L1895.96 934.301 L1875.17 916.197 L1854.37 875.465 L1833.58 879.991 L1812.79 898.094 L1792 884.517 L1771.21 884.517 L1750.42 870.939 L1729.62 889.043 L1708.83 929.775 L1688.04 884.517 L1667.25 907.146 L1646.46 925.249 L1625.66 993.136 L1604.87 879.991 L1584.08 857.362 L1563.29 889.043 L1542.5 907.146 L1521.7 947.878 L1500.91 934.301 L1480.12 956.93 L1459.33 920.723 L1438.54 893.568 L1417.75 866.414 L1396.95 961.455 L1376.16 952.404 L1355.37 893.568 L1334.58 979.558 L1313.79 1006.71 L1292.99 920.723 L1272.2 943.352 L1251.41 1024.82 L1230.62 938.826 L1209.83 1006.71 L1189.04 907.146 L1168.24 1015.76 L1147.45 1011.24 L1126.66 1029.34 L1105.87 988.61 L1085.08 993.136 L1064.28 970.507 L1043.49 1038.39 L1022.7 979.558 L1001.91 993.136 L981.116 1002.19 L960.325 1056.5 L939.533 1074.6 L918.741 1079.13 L897.949 988.61 L877.157 1056.5 L856.365 1006.71 L835.573 1015.76 L814.782 1047.45 L793.99 1033.87 L773.198 1119.86 L752.406 1070.07 L731.614 1051.97 L710.822 1061.02 L690.03 1079.13 L669.238 1124.38 L648.447 1083.65 L627.655 1088.18 L606.863 1110.81 L586.071 1106.28 L565.279 1178.69 L544.487 1147.01 L523.695 1156.06 L502.904 1110.81 L482.112 1151.54 L461.32 1156.06 L440.528 1169.64 L419.736 1183.22 L398.944 1169.64 L378.152 1165.12 L357.36 1196.8 L336.569 1142.49 L315.777 1160.59 L294.985 1223.95 L274.193 1228.48 L253.401 1210.37 L232.609 1210.37  Z" fill="#f99241" fill-rule="evenodd" fill-opacity="1"/>
<polyline clip-path="url(#clip332)" style="stroke:#f99241; stroke-linecap:round; stroke-linejoin:round; stroke-width:4; stroke-opacity:1; fill:none" points="232.609,1124.38 253.401,1124.38 274.193,1142.49 294.985,1142.49 315.777,1065.55 336.569,1051.97 357.36,1083.65 378.152,1051.97 398.944,1061.02 419.736,1079.13 440.528,1079.13 461.32,1038.39 482.112,1038.39 502.904,1002.19 523.695,1056.5 544.487,1047.45 565.279,1051.97 586.071,988.61 606.863,988.61 627.655,984.084 648.447,984.084 669.238,1042.92 690.03,965.981 710.822,952.404 731.614,925.249 752.406,965.981 773.198,997.662 793.99,965.981 814.782,907.146 835.573,947.878 856.365,875.465 877.157,934.301 897.949,898.094 918.741,961.455 939.533,970.507 960.325,965.981 981.116,884.517 1001.91,898.094 1022.7,866.414 1043.49,861.888 1064.28,839.259 1085.08,879.991 1105.87,875.465 1126.66,893.568 1147.45,857.362 1168.24,907.146 1189.04,766.846 1209.83,875.465 1230.62,812.104 1251.41,852.836 1272.2,857.362 1292.99,798.527 1313.79,861.888 1334.58,834.733 1355.37,771.372 1376.16,821.156 1396.95,812.104 1417.75,757.794 1438.54,735.165 1459.33,775.898 1480.12,807.578 1500.91,735.165 1521.7,762.32 1542.5,771.372 1563.29,762.32 1584.08,775.898 1604.87,771.372 1625.66,839.259 1646.46,789.475 1667.25,775.898 1688.04,726.114 1708.83,780.423 1729.62,717.062 1750.42,762.32 1771.21,744.217 1792,712.536 1812.79,735.165 1833.58,726.114 1854.37,698.959 1875.17,780.423 1895.96,753.269 1916.75,667.278 1937.54,712.536 1958.33,676.33 1979.13,726.114 1999.92,748.743 2020.71,640.124 2041.5,717.062 2062.29,667.278 2083.09,667.278 2103.88,721.588 2124.67,694.433 2145.46,626.546 2166.25,685.382 2187.04,744.217 2207.84,708.011 2228.63,680.856 2249.42,680.856 2270.21,640.124 2291,685.382 "/>
<path clip-path="url(#clip332)" d="M232.609 1110.81 L253.401 1106.28 L274.193 1119.86 L294.985 1124.38 L315.777 1056.5 L336.569 1033.87 L357.36 1074.6 L378.152 1029.34 L398.944 1042.92 L419.736 1042.92 L440.528 1056.5 L461.32 1006.71 L482.112 1015.76 L502.904 979.558 L523.695 1033.87 L544.487 1029.34 L565.279 1024.82 L586.071 952.404 L606.863 961.455 L627.655 961.455 L648.447 943.352 L669.238 1006.71 L690.03 929.775 L710.822 916.197 L731.614 916.197 L752.406 925.249 L773.198 956.93 L793.99 911.672 L814.782 893.568 L835.573 902.62 L856.365 830.207 L877.157 889.043 L897.949 861.888 L918.741 911.672 L939.533 907.146 L960.325 911.672 L981.116 816.63 L1001.91 843.785 L1022.7 816.63 L1043.49 807.578 L1064.28 775.898 L1085.08 830.207 L1105.87 830.207 L1126.66 794.001 L1147.45 798.527 L1168.24 812.104 L1189.04 689.907 L1209.83 834.733 L1230.62 744.217 L1251.41 789.475 L1272.2 794.001 L1292.99 748.743 L1313.79 775.898 L1334.58 748.743 L1355.37 685.382 L1376.16 766.846 L1396.95 717.062 L1417.75 680.856 L1438.54 649.175 L1459.33 685.382 L1480.12 703.485 L1500.91 685.382 L1521.7 694.433 L1542.5 671.804 L1563.29 658.227 L1584.08 735.165 L1604.87 626.546 L1625.66 708.011 L1646.46 685.382 L1667.25 676.33 L1688.04 603.917 L1708.83 649.175 L1729.62 617.495 L1750.42 631.072 L1771.21 608.443 L1792 635.598 L1812.79 653.701 L1833.58 622.02 L1854.37 612.969 L1875.17 680.856 L1895.96 612.969 L1916.75 576.762 L1937.54 594.866 L1958.33 563.185 L1979.13 590.34 L1999.92 617.495 L2020.71 545.082 L2041.5 590.34 L2062.29 563.185 L2083.09 549.608 L2103.88 594.866 L2124.67 563.185 L2145.46 499.824 L2166.25 526.979 L2187.04 631.072 L2207.84 581.288 L2228.63 554.133 L2249.42 563.185 L2270.21 508.875 L2291 572.237 L2291 685.382 L2270.21 640.124 L2249.42 680.856 L2228.63 680.856 L2207.84 708.011 L2187.04 744.217 L2166.25 685.382 L2145.46 626.546 L2124.67 694.433 L2103.88 721.588 L2083.09 667.278 L2062.29 667.278 L2041.5 717.062 L2020.71 640.124 L1999.92 748.743 L1979.13 726.114 L1958.33 676.33 L1937.54 712.536 L1916.75 667.278 L1895.96 753.269 L1875.17 780.423 L1854.37 698.959 L1833.58 726.114 L1812.79 735.165 L1792 712.536 L1771.21 744.217 L1750.42 762.32 L1729.62 717.062 L1708.83 780.423 L1688.04 726.114 L1667.25 775.898 L1646.46 789.475 L1625.66 839.259 L1604.87 771.372 L1584.08 775.898 L1563.29 762.32 L1542.5 771.372 L1521.7 762.32 L1500.91 735.165 L1480.12 807.578 L1459.33 775.898 L1438.54 735.165 L1417.75 757.794 L1396.95 812.104 L1376.16 821.156 L1355.37 771.372 L1334.58 834.733 L1313.79 861.888 L1292.99 798.527 L1272.2 857.362 L1251.41 852.836 L1230.62 812.104 L1209.83 875.465 L1189.04 766.846 L1168.24 907.146 L1147.45 857.362 L1126.66 893.568 L1105.87 875.465 L1085.08 879.991 L1064.28 839.259 L1043.49 861.888 L1022.7 866.414 L1001.91 898.094 L981.116 884.517 L960.325 965.981 L939.533 970.507 L918.741 961.455 L897.949 898.094 L877.157 934.301 L856.365 875.465 L835.573 947.878 L814.782 907.146 L793.99 965.981 L773.198 997.662 L752.406 965.981 L731.614 925.249 L710.822 952.404 L690.03 965.981 L669.238 1042.92 L648.447 984.084 L627.655 984.084 L606.863 988.61 L586.071 988.61 L565.279 1051.97 L544.487 1047.45 L523.695 1056.5 L502.904 1002.19 L482.112 1038.39 L461.32 1038.39 L440.528 1079.13 L419.736 1079.13 L398.944 1061.02 L378.152 1051.97 L357.36 1083.65 L336.569 1051.97 L315.777 1065.55 L294.985 1142.49 L274.193 1142.49 L253.401 1124.38 L232.609 1124.38  Z" fill="#18337b" fill-rule="evenodd" fill-opacity="1"/>
<polyline clip-path="url(#clip332)" style="stroke:#18337b; stroke-linecap:round; stroke-linejoin:round; stroke-width:4; stroke-opacity:1; fill:none" points="232.609,1110.81 253.401,1106.28 274.193,1119.86 294.985,1124.38 315.777,1056.5 336.569,1033.87 357.36,1074.6 378.152,1029.34 398.944,1042.92 419.736,1042.92 440.528,1056.5 461.32,1006.71 482.112,1015.76 502.904,979.558 523.695,1033.87 544.487,1029.34 565.279,1024.82 586.071,952.404 606.863,961.455 627.655,961.455 648.447,943.352 669.238,1006.71 690.03,929.775 710.822,916.197 731.614,916.197 752.406,925.249 773.198,956.93 793.99,911.672 814.782,893.568 835.573,902.62 856.365,830.207 877.157,889.043 897.949,861.888 918.741,911.672 939.533,907.146 960.325,911.672 981.116,816.63 1001.91,843.785 1022.7,816.63 1043.49,807.578 1064.28,775.898 1085.08,830.207 1105.87,830.207 1126.66,794.001 1147.45,798.527 1168.24,812.104 1189.04,689.907 1209.83,834.733 1230.62,744.217 1251.41,789.475 1272.2,794.001 1292.99,748.743 1313.79,775.898 1334.58,748.743 1355.37,685.382 1376.16,766.846 1396.95,717.062 1417.75,680.856 1438.54,649.175 1459.33,685.382 1480.12,703.485 1500.91,685.382 1521.7,694.433 1542.5,671.804 1563.29,658.227 1584.08,735.165 1604.87,626.546 1625.66,708.011 1646.46,685.382 1667.25,676.33 1688.04,603.917 1708.83,649.175 1729.62,617.495 1750.42,631.072 1771.21,608.443 1792,635.598 1812.79,653.701 1833.58,622.02 1854.37,612.969 1875.17,680.856 1895.96,612.969 1916.75,576.762 1937.54,594.866 1958.33,563.185 1979.13,590.34 1999.92,617.495 2020.71,545.082 2041.5,590.34 2062.29,563.185 2083.09,549.608 2103.88,594.866 2124.67,563.185 2145.46,499.824 2166.25,526.979 2187.04,631.072 2207.84,581.288 2228.63,554.133 2249.42,563.185 2270.21,508.875 2291,572.237 "/>
<path clip-path="url(#clip332)" d="M232.609 232.802 L253.401 273.534 L274.193 287.111 L294.985 241.853 L315.777 255.431 L336.569 241.853 L357.36 269.008 L378.152 232.802 L398.944 246.379 L419.736 259.957 L440.528 282.586 L461.32 223.75 L482.112 327.844 L502.904 305.215 L523.695 287.111 L544.487 278.06 L565.279 269.008 L586.071 255.431 L606.863 332.369 L627.655 278.06 L648.447 300.689 L669.238 300.689 L690.03 278.06 L710.822 336.895 L731.614 341.421 L752.406 332.369 L773.198 323.318 L793.99 296.163 L814.782 341.421 L835.573 332.369 L856.365 323.318 L877.157 300.689 L897.949 323.318 L918.741 296.163 L939.533 300.689 L960.325 354.998 L981.116 332.369 L1001.91 318.792 L1022.7 377.627 L1043.49 323.318 L1064.28 273.534 L1085.08 341.421 L1105.87 323.318 L1126.66 350.473 L1147.45 336.895 L1168.24 332.369 L1189.04 332.369 L1209.83 404.782 L1230.62 300.689 L1251.41 323.318 L1272.2 354.998 L1292.99 296.163 L1313.79 327.844 L1334.58 323.318 L1355.37 273.534 L1376.16 332.369 L1396.95 336.895 L1417.75 327.844 L1438.54 273.534 L1459.33 327.844 L1480.12 314.266 L1500.91 327.844 L1521.7 345.947 L1542.5 336.895 L1563.29 345.947 L1584.08 305.215 L1604.87 300.689 L1625.66 368.576 L1646.46 314.266 L1667.25 309.74 L1688.04 264.482 L1708.83 323.318 L1729.62 323.318 L1750.42 309.74 L1771.21 332.369 L1792 314.266 L1812.79 323.318 L1833.58 336.895 L1854.37 318.792 L1875.17 327.844 L1895.96 287.111 L1916.75 278.06 L1937.54 336.895 L1958.33 300.689 L1979.13 300.689 L1999.92 291.637 L2020.71 332.369 L2041.5 309.74 L2062.29 323.318 L2083.09 305.215 L2103.88 314.266 L2124.67 296.163 L2145.46 278.06 L2166.25 282.586 L2187.04 359.524 L2207.84 336.895 L2228.63 296.163 L2249.42 300.689 L2270.21 300.689 L2291 300.689 L2291 572.237 L2270.21 508.875 L2249.42 563.185 L2228.63 554.133 L2207.84 581.288 L2187.04 631.072 L2166.25 526.979 L2145.46 499.824 L2124.67 563.185 L2103.88 594.866 L2083.09 549.608 L2062.29 563.185 L2041.5 590.34 L2020.71 545.082 L1999.92 617.495 L1979.13 590.34 L1958.33 563.185 L1937.54 594.866 L1916.75 576.762 L1895.96 612.969 L1875.17 680.856 L1854.37 612.969 L1833.58 622.02 L1812.79 653.701 L1792 635.598 L1771.21 608.443 L1750.42 631.072 L1729.62 617.495 L1708.83 649.175 L1688.04 603.917 L1667.25 676.33 L1646.46 685.382 L1625.66 708.011 L1604.87 626.546 L1584.08 735.165 L1563.29 658.227 L1542.5 671.804 L1521.7 694.433 L1500.91 685.382 L1480.12 703.485 L1459.33 685.382 L1438.54 649.175 L1417.75 680.856 L1396.95 717.062 L1376.16 766.846 L1355.37 685.382 L1334.58 748.743 L1313.79 775.898 L1292.99 748.743 L1272.2 794.001 L1251.41 789.475 L1230.62 744.217 L1209.83 834.733 L1189.04 689.907 L1168.24 812.104 L1147.45 798.527 L1126.66 794.001 L1105.87 830.207 L1085.08 830.207 L1064.28 775.898 L1043.49 807.578 L1022.7 816.63 L1001.91 843.785 L981.116 816.63 L960.325 911.672 L939.533 907.146 L918.741 911.672 L897.949 861.888 L877.157 889.043 L856.365 830.207 L835.573 902.62 L814.782 893.568 L793.99 911.672 L773.198 956.93 L752.406 925.249 L731.614 916.197 L710.822 916.197 L690.03 929.775 L669.238 1006.71 L648.447 943.352 L627.655 961.455 L606.863 961.455 L586.071 952.404 L565.279 1024.82 L544.487 1029.34 L523.695 1033.87 L502.904 979.558 L482.112 1015.76 L461.32 1006.71 L440.528 1056.5 L419.736 1042.92 L398.944 1042.92 L378.152 1029.34 L357.36 1074.6 L336.569 1033.87 L315.777 1056.5 L294.985 1124.38 L274.193 1119.86 L253.401 1106.28 L232.609 1110.81  Z" fill="#de6f64" fill-rule="evenodd" fill-opacity="1"/>
<polyline clip-path="url(#clip332)" style="stroke:#de6f64; stroke-linecap:round; stroke-linejoin:round; stroke-width:4; stroke-opacity:1; fill:none" points="232.609,232.802 253.401,273.534 274.193,287.111 294.985,241.853 315.777,255.431 336.569,241.853 357.36,269.008 378.152,232.802 398.944,246.379 419.736,259.957 440.528,282.586 461.32,223.75 482.112,327.844 502.904,305.215 523.695,287.111 544.487,278.06 565.279,269.008 586.071,255.431 606.863,332.369 627.655,278.06 648.447,300.689 669.238,300.689 690.03,278.06 710.822,336.895 731.614,341.421 752.406,332.369 773.198,323.318 793.99,296.163 814.782,341.421 835.573,332.369 856.365,323.318 877.157,300.689 897.949,323.318 918.741,296.163 939.533,300.689 960.325,354.998 981.116,332.369 1001.91,318.792 1022.7,377.627 1043.49,323.318 1064.28,273.534 1085.08,341.421 1105.87,323.318 1126.66,350.473 1147.45,336.895 1168.24,332.369 1189.04,332.369 1209.83,404.782 1230.62,300.689 1251.41,323.318 1272.2,354.998 1292.99,296.163 1313.79,327.844 1334.58,323.318 1355.37,273.534 1376.16,332.369 1396.95,336.895 1417.75,327.844 1438.54,273.534 1459.33,327.844 1480.12,314.266 1500.91,327.844 1521.7,345.947 1542.5,336.895 1563.29,345.947 1584.08,305.215 1604.87,300.689 1625.66,368.576 1646.46,314.266 1667.25,309.74 1688.04,264.482 1708.83,323.318 1729.62,323.318 1750.42,309.74 1771.21,332.369 1792,314.266 1812.79,323.318 1833.58,336.895 1854.37,318.792 1875.17,327.844 1895.96,287.111 1916.75,278.06 1937.54,336.895 1958.33,300.689 1979.13,300.689 1999.92,291.637 2020.71,332.369 2041.5,309.74 2062.29,323.318 2083.09,305.215 2103.88,314.266 2124.67,296.163 2145.46,278.06 2166.25,282.586 2187.04,359.524 2207.84,336.895 2228.63,296.163 2249.42,300.689 2270.21,300.689 2291,300.689 "/>
<path clip-path="url(#clip332)" d="M232.609 87.9763 L253.401 87.9763 L274.193 87.9763 L294.985 87.9763 L315.777 87.9763 L336.569 87.9763 L357.36 87.9763 L378.152 87.9763 L398.944 87.9763 L419.736 87.9763 L440.528 87.9763 L461.32 87.9763 L482.112 87.9763 L502.904 87.9763 L523.695 87.9763 L544.487 87.9763 L565.279 87.9763 L586.071 87.9763 L606.863 87.9763 L627.655 87.9763 L648.447 87.9763 L669.238 87.9763 L690.03 87.9763 L710.822 87.9763 L731.614 87.9763 L752.406 87.9763 L773.198 87.9763 L793.99 87.9763 L814.782 87.9763 L835.573 87.9763 L856.365 87.9763 L877.157 87.9763 L897.949 87.9763 L918.741 87.9763 L939.533 87.9763 L960.325 87.9763 L981.116 87.9763 L1001.91 87.9763 L1022.7 87.9763 L1043.49 87.9763 L1064.28 87.9763 L1085.08 87.9763 L1105.87 87.9763 L1126.66 87.9763 L1147.45 87.9763 L1168.24 87.9763 L1189.04 87.9763 L1209.83 87.9763 L1230.62 87.9763 L1251.41 87.9763 L1272.2 87.9763 L1292.99 87.9763 L1313.79 87.9763 L1334.58 87.9763 L1355.37 87.9763 L1376.16 87.9763 L1396.95 87.9763 L1417.75 87.9763 L1438.54 87.9763 L1459.33 87.9763 L1480.12 87.9763 L1500.91 87.9763 L1521.7 87.9763 L1542.5 87.9763 L1563.29 87.9763 L1584.08 87.9763 L1604.87 87.9763 L1625.66 87.9763 L1646.46 87.9763 L1667.25 87.9763 L1688.04 87.9763 L1708.83 87.9763 L1729.62 87.9763 L1750.42 87.9763 L1771.21 87.9763 L1792 87.9763 L1812.79 87.9763 L1833.58 87.9763 L1854.37 87.9763 L1875.17 87.9763 L1895.96 87.9763 L1916.75 87.9763 L1937.54 87.9763 L1958.33 87.9763 L1979.13 87.9763 L1999.92 87.9763 L2020.71 87.9763 L2041.5 87.9763 L2062.29 87.9763 L2083.09 87.9763 L2103.88 87.9763 L2124.67 87.9763 L2145.46 87.9763 L2166.25 87.9763 L2187.04 87.9763 L2207.84 87.9763 L2228.63 87.9763 L2249.42 87.9763 L2270.21 87.9763 L2291 87.9763 L2291 300.689 L2270.21 300.689 L2249.42 300.689 L2228.63 296.163 L2207.84 336.895 L2187.04 359.524 L2166.25 282.586 L2145.46 278.06 L2124.67 296.163 L2103.88 314.266 L2083.09 305.215 L2062.29 323.318 L2041.5 309.74 L2020.71 332.369 L1999.92 291.637 L1979.13 300.689 L1958.33 300.689 L1937.54 336.895 L1916.75 278.06 L1895.96 287.111 L1875.17 327.844 L1854.37 318.792 L1833.58 336.895 L1812.79 323.318 L1792 314.266 L1771.21 332.369 L1750.42 309.74 L1729.62 323.318 L1708.83 323.318 L1688.04 264.482 L1667.25 309.74 L1646.46 314.266 L1625.66 368.576 L1604.87 300.689 L1584.08 305.215 L1563.29 345.947 L1542.5 336.895 L1521.7 345.947 L1500.91 327.844 L1480.12 314.266 L1459.33 327.844 L1438.54 273.534 L1417.75 327.844 L1396.95 336.895 L1376.16 332.369 L1355.37 273.534 L1334.58 323.318 L1313.79 327.844 L1292.99 296.163 L1272.2 354.998 L1251.41 323.318 L1230.62 300.689 L1209.83 404.782 L1189.04 332.369 L1168.24 332.369 L1147.45 336.895 L1126.66 350.473 L1105.87 323.318 L1085.08 341.421 L1064.28 273.534 L1043.49 323.318 L1022.7 377.627 L1001.91 318.792 L981.116 332.369 L960.325 354.998 L939.533 300.689 L918.741 296.163 L897.949 323.318 L877.157 300.689 L856.365 323.318 L835.573 332.369 L814.782 341.421 L793.99 296.163 L773.198 323.318 L752.406 332.369 L731.614 341.421 L710.822 336.895 L690.03 278.06 L669.238 300.689 L648.447 300.689 L627.655 278.06 L606.863 332.369 L586.071 255.431 L565.279 269.008 L544.487 278.06 L523.695 287.111 L502.904 305.215 L482.112 327.844 L461.32 223.75 L440.528 282.586 L419.736 259.957 L398.944 246.379 L378.152 232.802 L357.36 269.008 L336.569 241.853 L315.777 255.431 L294.985 241.853 L274.193 287.111 L253.401 273.534 L232.609 232.802  Z" fill="#824f8e" fill-rule="evenodd" fill-opacity="1"/>
<polyline clip-path="url(#clip332)" style="stroke:#824f8e; stroke-linecap:round; stroke-linejoin:round; stroke-width:4; stroke-opacity:1; fill:none" points="232.609,87.9763 253.401,87.9763 274.193,87.9763 294.985,87.9763 315.777,87.9763 336.569,87.9763 357.36,87.9763 378.152,87.9763 398.944,87.9763 419.736,87.9763 440.528,87.9763 461.32,87.9763 482.112,87.9763 502.904,87.9763 523.695,87.9763 544.487,87.9763 565.279,87.9763 586.071,87.9763 606.863,87.9763 627.655,87.9763 648.447,87.9763 669.238,87.9763 690.03,87.9763 710.822,87.9763 731.614,87.9763 752.406,87.9763 773.198,87.9763 793.99,87.9763 814.782,87.9763 835.573,87.9763 856.365,87.9763 877.157,87.9763 897.949,87.9763 918.741,87.9763 939.533,87.9763 960.325,87.9763 981.116,87.9763 1001.91,87.9763 1022.7,87.9763 1043.49,87.9763 1064.28,87.9763 1085.08,87.9763 1105.87,87.9763 1126.66,87.9763 1147.45,87.9763 1168.24,87.9763 1189.04,87.9763 1209.83,87.9763 1230.62,87.9763 1251.41,87.9763 1272.2,87.9763 1292.99,87.9763 1313.79,87.9763 1334.58,87.9763 1355.37,87.9763 1376.16,87.9763 1396.95,87.9763 1417.75,87.9763 1438.54,87.9763 1459.33,87.9763 1480.12,87.9763 1500.91,87.9763 1521.7,87.9763 1542.5,87.9763 1563.29,87.9763 1584.08,87.9763 1604.87,87.9763 1625.66,87.9763 1646.46,87.9763 1667.25,87.9763 1688.04,87.9763 1708.83,87.9763 1729.62,87.9763 1750.42,87.9763 1771.21,87.9763 1792,87.9763 1812.79,87.9763 1833.58,87.9763 1854.37,87.9763 1875.17,87.9763 1895.96,87.9763 1916.75,87.9763 1937.54,87.9763 1958.33,87.9763 1979.13,87.9763 1999.92,87.9763 2020.71,87.9763 2041.5,87.9763 2062.29,87.9763 2083.09,87.9763 2103.88,87.9763 2124.67,87.9763 2145.46,87.9763 2166.25,87.9763 2187.04,87.9763 2207.84,87.9763 2228.63,87.9763 2249.42,87.9763 2270.21,87.9763 2291,87.9763 "/>
</svg>
