<?xml version="1.0" encoding="utf-8"?>
<svg xmlns="http://www.w3.org/2000/svg" xmlns:xlink="http://www.w3.org/1999/xlink" width="600" height="400" viewBox="0 0 2400 1600">
<defs>
  <clipPath id="clip800">
    <rect x="0" y="0" width="2400" height="1600"/>
  </clipPath>
</defs>
<path clip-path="url(#clip800)" d="M0 1600 L2400 1600 L2400 0 L0 0  Z" fill="#ffffff" fill-rule="evenodd" fill-opacity="1"/>
<defs>
  <clipPath id="clip801">
    <rect x="480" y="0" width="1681" height="1600"/>
  </clipPath>
</defs>
<path clip-path="url(#clip800)" d="M186.274 1486.45 L2352.76 1486.45 L2352.76 47.2441 L186.274 47.2441  Z" fill="#ffffff" fill-rule="evenodd" fill-opacity="1"/>
<defs>
  <clipPath id="clip802">
    <rect x="186" y="47" width="2167" height="1440"/>
  </clipPath>
</defs>
<polyline clip-path="url(#clip802)" style="stroke:#000000; stroke-linecap:round; stroke-linejoin:round; stroke-width:2; stroke-opacity:0.1; fill:none" points="247.59,1486.45 247.59,47.2441 "/>
<polyline clip-path="url(#clip802)" style="stroke:#000000; stroke-linecap:round; stroke-linejoin:round; stroke-width:2; stroke-opacity:0.1; fill:none" points="758.552,1486.45 758.552,47.2441 "/>
<polyline clip-path="url(#clip802)" style="stroke:#000000; stroke-linecap:round; stroke-linejoin:round; stroke-width:2; stroke-opacity:0.1; fill:none" points="1269.51,1486.45 1269.51,47.2441 "/>
<polyline clip-path="url(#clip802)" style="stroke:#000000; stroke-linecap:round; stroke-linejoin:round; stroke-width:2; stroke-opacity:0.1; fill:none" points="1780.48,1486.45 1780.48,47.2441 "/>
<polyline clip-path="url(#clip802)" style="stroke:#000000; stroke-linecap:round; stroke-linejoin:round; stroke-width:2; stroke-opacity:0.1; fill:none" points="2291.44,1486.45 2291.44,47.2441 "/>
<polyline clip-path="url(#clip800)" style="stroke:#000000; stroke-linecap:round; stroke-linejoin:round; stroke-width:4; stroke-opacity:1; fill:none" points="186.274,1486.45 2352.76,1486.45 "/>
<polyline clip-path="url(#clip800)" style="stroke:#000000; stroke-linecap:round; stroke-linejoin:round; stroke-width:4; stroke-opacity:1; fill:none" points="247.59,1486.45 247.59,1467.55 "/>
<polyline clip-path="url(#clip800)" style="stroke:#000000; stroke-linecap:round; stroke-linejoin:round; stroke-width:4; stroke-opacity:1; fill:none" points="758.552,1486.45 758.552,1467.55 "/>
<polyline clip-path="url(#clip800)" style="stroke:#000000; stroke-linecap:round; stroke-linejoin:round; stroke-width:4; stroke-opacity:1; fill:none" points="1269.51,1486.45 1269.51,1467.55 "/>
<polyline clip-path="url(#clip800)" style="stroke:#000000; stroke-linecap:round; stroke-linejoin:round; stroke-width:4; stroke-opacity:1; fill:none" points="1780.48,1486.45 1780.48,1467.55 "/>
<polyline clip-path="url(#clip800)" style="stroke:#000000; stroke-linecap:round; stroke-linejoin:round; stroke-width:4; stroke-opacity:1; fill:none" points="2291.44,1486.45 2291.44,1467.55 "/>
<path clip-path="url(#clip800)" d="M247.59 1517.37 Q243.978 1517.37 242.15 1520.93 Q240.344 1524.47 240.344 1531.6 Q240.344 1538.71 242.15 1542.27 Q243.978 1545.82 247.59 1545.82 Q251.224 1545.82 253.029 1542.27 Q254.858 1538.71 254.858 1531.6 Q254.858 1524.47 253.029 1520.93 Q251.224 1517.37 247.59 1517.37 M247.59 1513.66 Q253.4 1513.66 256.455 1518.27 Q259.534 1522.85 259.534 1531.6 Q259.534 1540.33 256.455 1544.94 Q253.4 1549.52 247.59 1549.52 Q241.779 1549.52 238.701 1544.94 Q235.645 1540.33 235.645 1531.6 Q235.645 1522.85 238.701 1518.27 Q241.779 1513.66 247.59 1513.66 Z" fill="#000000" fill-rule="nonzero" fill-opacity="1" /><path clip-path="url(#clip800)" d="M718.171 1514.29 L736.527 1514.29 L736.527 1518.22 L722.453 1518.22 L722.453 1526.7 Q723.471 1526.35 724.49 1526.19 Q725.508 1526 726.527 1526 Q732.314 1526 735.694 1529.17 Q739.073 1532.34 739.073 1537.76 Q739.073 1543.34 735.601 1546.44 Q732.129 1549.52 725.809 1549.52 Q723.633 1549.52 721.365 1549.15 Q719.12 1548.78 716.712 1548.04 L716.712 1543.34 Q718.796 1544.47 721.018 1545.03 Q723.24 1545.58 725.717 1545.58 Q729.721 1545.58 732.059 1543.48 Q734.397 1541.37 734.397 1537.76 Q734.397 1534.15 732.059 1532.04 Q729.721 1529.94 725.717 1529.94 Q723.842 1529.94 721.967 1530.35 Q720.115 1530.77 718.171 1531.65 L718.171 1514.29 Z" fill="#000000" fill-rule="nonzero" fill-opacity="1" /><path clip-path="url(#clip800)" d="M758.286 1517.37 Q754.675 1517.37 752.846 1520.93 Q751.041 1524.47 751.041 1531.6 Q751.041 1538.71 752.846 1542.27 Q754.675 1545.82 758.286 1545.82 Q761.92 1545.82 763.726 1542.27 Q765.555 1538.71 765.555 1531.6 Q765.555 1524.47 763.726 1520.93 Q761.92 1517.37 758.286 1517.37 M758.286 1513.66 Q764.096 1513.66 767.152 1518.27 Q770.23 1522.85 770.23 1531.6 Q770.23 1540.33 767.152 1544.94 Q764.096 1549.52 758.286 1549.52 Q752.476 1549.52 749.397 1544.94 Q746.342 1540.33 746.342 1531.6 Q746.342 1522.85 749.397 1518.27 Q752.476 1513.66 758.286 1513.66 Z" fill="#000000" fill-rule="nonzero" fill-opacity="1" /><path clip-path="url(#clip800)" d="M788.448 1517.37 Q784.837 1517.37 783.008 1520.93 Q781.203 1524.47 781.203 1531.6 Q781.203 1538.71 783.008 1542.27 Q784.837 1545.82 788.448 1545.82 Q792.082 1545.82 793.888 1542.27 Q795.716 1538.71 795.716 1531.6 Q795.716 1524.47 793.888 1520.93 Q792.082 1517.37 788.448 1517.37 M788.448 1513.66 Q794.258 1513.66 797.314 1518.27 Q800.392 1522.85 800.392 1531.6 Q800.392 1540.33 797.314 1544.94 Q794.258 1549.52 788.448 1549.52 Q782.638 1549.52 779.559 1544.94 Q776.504 1540.33 776.504 1531.6 Q776.504 1522.85 779.559 1518.27 Q782.638 1513.66 788.448 1513.66 Z" fill="#000000" fill-rule="nonzero" fill-opacity="1" /><path clip-path="url(#clip800)" d="M1214.04 1544.91 L1221.68 1544.91 L1221.68 1518.55 L1213.37 1520.21 L1213.37 1515.95 L1221.63 1514.29 L1226.31 1514.29 L1226.31 1544.91 L1233.95 1544.91 L1233.95 1548.85 L1214.04 1548.85 L1214.04 1544.91 Z" fill="#000000" fill-rule="nonzero" fill-opacity="1" /><path clip-path="url(#clip800)" d="M1253.39 1517.37 Q1249.78 1517.37 1247.95 1520.93 Q1246.15 1524.47 1246.15 1531.6 Q1246.15 1538.71 1247.95 1542.27 Q1249.78 1545.82 1253.39 1545.82 Q1257.03 1545.82 1258.83 1542.27 Q1260.66 1538.71 1260.66 1531.6 Q1260.66 1524.47 1258.83 1520.93 Q1257.03 1517.37 1253.39 1517.37 M1253.39 1513.66 Q1259.2 1513.66 1262.26 1518.27 Q1265.34 1522.85 1265.34 1531.6 Q1265.34 1540.33 1262.26 1544.94 Q1259.2 1549.52 1253.39 1549.52 Q1247.58 1549.52 1244.5 1544.94 Q1241.45 1540.33 1241.45 1531.6 Q1241.45 1522.85 1244.5 1518.27 Q1247.58 1513.66 1253.39 1513.66 Z" fill="#000000" fill-rule="nonzero" fill-opacity="1" /><path clip-path="url(#clip800)" d="M1283.55 1517.37 Q1279.94 1517.37 1278.11 1520.93 Q1276.31 1524.47 1276.31 1531.6 Q1276.31 1538.71 1278.11 1542.27 Q1279.94 1545.82 1283.55 1545.82 Q1287.19 1545.82 1288.99 1542.27 Q1290.82 1538.71 1290.82 1531.6 Q1290.82 1524.47 1288.99 1520.93 Q1287.19 1517.37 1283.55 1517.37 M1283.55 1513.66 Q1289.36 1513.66 1292.42 1518.27 Q1295.5 1522.85 1295.5 1531.6 Q1295.5 1540.33 1292.42 1544.94 Q1289.36 1549.52 1283.55 1549.52 Q1277.74 1549.52 1274.67 1544.94 Q1271.61 1540.33 1271.61 1531.6 Q1271.61 1522.85 1274.67 1518.27 Q1277.74 1513.66 1283.55 1513.66 Z" fill="#000000" fill-rule="nonzero" fill-opacity="1" /><path clip-path="url(#clip800)" d="M1313.72 1517.37 Q1310.11 1517.37 1308.28 1520.93 Q1306.47 1524.47 1306.47 1531.6 Q1306.47 1538.71 1308.28 1542.27 Q1310.11 1545.82 1313.72 1545.82 Q1317.35 1545.82 1319.16 1542.27 Q1320.98 1538.71 1320.98 1531.6 Q1320.98 1524.47 1319.16 1520.93 Q1317.35 1517.37 1313.72 1517.37 M1313.72 1513.66 Q1319.53 1513.66 1322.58 1518.27 Q1325.66 1522.85 1325.66 1531.6 Q1325.66 1540.33 1322.58 1544.94 Q1319.53 1549.52 1313.72 1549.52 Q1307.91 1549.52 1304.83 1544.94 Q1301.77 1540.33 1301.77 1531.6 Q1301.77 1522.85 1304.83 1518.27 Q1307.91 1513.66 1313.72 1513.66 Z" fill="#000000" fill-rule="nonzero" fill-opacity="1" /><path clip-path="url(#clip800)" d="M1725 1544.91 L1732.64 1544.91 L1732.64 1518.55 L1724.33 1520.21 L1724.33 1515.95 L1732.6 1514.29 L1737.27 1514.29 L1737.27 1544.91 L1744.91 1544.91 L1744.91 1548.85 L1725 1548.85 L1725 1544.91 Z" fill="#000000" fill-rule="nonzero" fill-opacity="1" /><path clip-path="url(#clip800)" d="M1754.4 1514.29 L1772.76 1514.29 L1772.76 1518.22 L1758.68 1518.22 L1758.68 1526.7 Q1759.7 1526.35 1760.72 1526.19 Q1761.74 1526 1762.76 1526 Q1768.54 1526 1771.92 1529.17 Q1775.3 1532.34 1775.3 1537.76 Q1775.3 1543.34 1771.83 1546.44 Q1768.36 1549.52 1762.04 1549.52 Q1759.86 1549.52 1757.6 1549.15 Q1755.35 1548.78 1752.94 1548.04 L1752.94 1543.34 Q1755.03 1544.47 1757.25 1545.03 Q1759.47 1545.58 1761.95 1545.58 Q1765.95 1545.58 1768.29 1543.48 Q1770.63 1541.37 1770.63 1537.76 Q1770.63 1534.15 1768.29 1532.04 Q1765.95 1529.94 1761.95 1529.94 Q1760.07 1529.94 1758.2 1530.35 Q1756.35 1530.77 1754.4 1531.65 L1754.4 1514.29 Z" fill="#000000" fill-rule="nonzero" fill-opacity="1" /><path clip-path="url(#clip800)" d="M1794.52 1517.37 Q1790.91 1517.37 1789.08 1520.93 Q1787.27 1524.47 1787.27 1531.6 Q1787.27 1538.71 1789.08 1542.27 Q1790.91 1545.82 1794.52 1545.82 Q1798.15 1545.82 1799.96 1542.27 Q1801.79 1538.71 1801.79 1531.6 Q1801.79 1524.47 1799.96 1520.93 Q1798.15 1517.37 1794.52 1517.37 M1794.52 1513.66 Q1800.33 1513.66 1803.38 1518.27 Q1806.46 1522.85 1806.46 1531.6 Q1806.46 1540.33 1803.38 1544.94 Q1800.33 1549.52 1794.52 1549.52 Q1788.71 1549.52 1785.63 1544.94 Q1782.57 1540.33 1782.57 1531.6 Q1782.57 1522.85 1785.63 1518.27 Q1788.71 1513.66 1794.52 1513.66 Z" fill="#000000" fill-rule="nonzero" fill-opacity="1" /><path clip-path="url(#clip800)" d="M1824.68 1517.37 Q1821.07 1517.37 1819.24 1520.93 Q1817.43 1524.47 1817.43 1531.6 Q1817.43 1538.71 1819.24 1542.27 Q1821.07 1545.82 1824.68 1545.82 Q1828.31 1545.82 1830.12 1542.27 Q1831.95 1538.71 1831.95 1531.6 Q1831.95 1524.47 1830.12 1520.93 Q1828.31 1517.37 1824.68 1517.37 M1824.68 1513.66 Q1830.49 1513.66 1833.54 1518.27 Q1836.62 1522.85 1836.62 1531.6 Q1836.62 1540.33 1833.54 1544.94 Q1830.49 1549.52 1824.68 1549.52 Q1818.87 1549.52 1815.79 1544.94 Q1812.73 1540.33 1812.73 1531.6 Q1812.73 1522.85 1815.79 1518.27 Q1818.87 1513.66 1824.68 1513.66 Z" fill="#000000" fill-rule="nonzero" fill-opacity="1" /><path clip-path="url(#clip800)" d="M2240.05 1544.91 L2256.37 1544.91 L2256.37 1548.85 L2234.43 1548.85 L2234.43 1544.91 Q2237.09 1542.16 2241.67 1537.53 Q2246.28 1532.88 2247.46 1531.53 Q2249.7 1529.01 2250.58 1527.27 Q2251.49 1525.51 2251.49 1523.82 Q2251.49 1521.07 2249.54 1519.33 Q2247.62 1517.6 2244.52 1517.6 Q2242.32 1517.6 2239.87 1518.36 Q2237.44 1519.13 2234.66 1520.68 L2234.66 1515.95 Q2237.48 1514.82 2239.94 1514.24 Q2242.39 1513.66 2244.43 1513.66 Q2249.8 1513.66 2252.99 1516.35 Q2256.19 1519.03 2256.19 1523.52 Q2256.19 1525.65 2255.38 1527.57 Q2254.59 1529.47 2252.48 1532.07 Q2251.9 1532.74 2248.8 1535.95 Q2245.7 1539.15 2240.05 1544.91 Z" fill="#000000" fill-rule="nonzero" fill-opacity="1" /><path clip-path="url(#clip800)" d="M2276.19 1517.37 Q2272.57 1517.37 2270.75 1520.93 Q2268.94 1524.47 2268.94 1531.6 Q2268.94 1538.71 2270.75 1542.27 Q2272.57 1545.82 2276.19 1545.82 Q2279.82 1545.82 2281.63 1542.27 Q2283.45 1538.71 2283.45 1531.6 Q2283.45 1524.47 2281.63 1520.93 Q2279.82 1517.37 2276.19 1517.37 M2276.19 1513.66 Q2282 1513.66 2285.05 1518.27 Q2288.13 1522.85 2288.13 1531.6 Q2288.13 1540.33 2285.05 1544.94 Q2282 1549.52 2276.19 1549.52 Q2270.38 1549.52 2267.3 1544.94 Q2264.24 1540.33 2264.24 1531.6 Q2264.24 1522.85 2267.3 1518.27 Q2270.38 1513.66 2276.19 1513.66 Z" fill="#000000" fill-rule="nonzero" fill-opacity="1" /><path clip-path="url(#clip800)" d="M2306.35 1517.37 Q2302.74 1517.37 2300.91 1520.93 Q2299.1 1524.47 2299.1 1531.6 Q2299.1 1538.71 2300.91 1542.27 Q2302.74 1545.82 2306.35 1545.82 Q2309.98 1545.82 2311.79 1542.27 Q2313.62 1538.71 2313.62 1531.6 Q2313.62 1524.47 2311.79 1520.93 Q2309.98 1517.37 2306.35 1517.37 M2306.35 1513.66 Q2312.16 1513.66 2315.21 1518.27 Q2318.29 1522.85 2318.29 1531.6 Q2318.29 1540.33 2315.21 1544.94 Q2312.16 1549.52 2306.35 1549.52 Q2300.54 1549.52 2297.46 1544.94 Q2294.4 1540.33 2294.4 1531.6 Q2294.4 1522.85 2297.46 1518.27 Q2300.54 1513.66 2306.35 1513.66 Z" fill="#000000" fill-rule="nonzero" fill-opacity="1" /><path clip-path="url(#clip800)" d="M2336.51 1517.37 Q2332.9 1517.37 2331.07 1520.93 Q2329.26 1524.47 2329.26 1531.6 Q2329.26 1538.71 2331.07 1542.27 Q2332.9 1545.82 2336.51 1545.82 Q2340.14 1545.82 2341.95 1542.27 Q2343.78 1538.71 2343.78 1531.6 Q2343.78 1524.47 2341.95 1520.93 Q2340.14 1517.37 2336.51 1517.37 M2336.51 1513.66 Q2342.32 1513.66 2345.38 1518.27 Q2348.45 1522.85 2348.45 1531.6 Q2348.45 1540.33 2345.38 1544.94 Q2342.32 1549.52 2336.51 1549.52 Q2330.7 1549.52 2327.62 1544.94 Q2324.57 1540.33 2324.57 1531.6 Q2324.57 1522.85 2327.62 1518.27 Q2330.7 1513.66 2336.51 1513.66 Z" fill="#000000" fill-rule="nonzero" fill-opacity="1" /><polyline clip-path="url(#clip802)" style="stroke:#000000; stroke-linecap:round; stroke-linejoin:round; stroke-width:2; stroke-opacity:0.1; fill:none" points="186.274,1460.03 2352.76,1460.03 "/>
<polyline clip-path="url(#clip802)" style="stroke:#000000; stroke-linecap:round; stroke-linejoin:round; stroke-width:2; stroke-opacity:0.1; fill:none" points="186.274,1131.15 2352.76,1131.15 "/>
<polyline clip-path="url(#clip802)" style="stroke:#000000; stroke-linecap:round; stroke-linejoin:round; stroke-width:2; stroke-opacity:0.1; fill:none" points="186.274,802.262 2352.76,802.262 "/>
<polyline clip-path="url(#clip802)" style="stroke:#000000; stroke-linecap:round; stroke-linejoin:round; stroke-width:2; stroke-opacity:0.1; fill:none" points="186.274,473.375 2352.76,473.375 "/>
<polyline clip-path="url(#clip802)" style="stroke:#000000; stroke-linecap:round; stroke-linejoin:round; stroke-width:2; stroke-opacity:0.1; fill:none" points="186.274,144.489 2352.76,144.489 "/>
<polyline clip-path="url(#clip800)" style="stroke:#000000; stroke-linecap:round; stroke-linejoin:round; stroke-width:4; stroke-opacity:1; fill:none" points="186.274,1486.45 186.274,47.2441 "/>
<polyline clip-path="url(#clip800)" style="stroke:#000000; stroke-linecap:round; stroke-linejoin:round; stroke-width:4; stroke-opacity:1; fill:none" points="186.274,1460.03 205.172,1460.03 "/>
<polyline clip-path="url(#clip800)" style="stroke:#000000; stroke-linecap:round; stroke-linejoin:round; stroke-width:4; stroke-opacity:1; fill:none" points="186.274,1131.15 205.172,1131.15 "/>
<polyline clip-path="url(#clip800)" style="stroke:#000000; stroke-linecap:round; stroke-linejoin:round; stroke-width:4; stroke-opacity:1; fill:none" points="186.274,802.262 205.172,802.262 "/>
<polyline clip-path="url(#clip800)" style="stroke:#000000; stroke-linecap:round; stroke-linejoin:round; stroke-width:4; stroke-opacity:1; fill:none" points="186.274,473.375 205.172,473.375 "/>
<polyline clip-path="url(#clip800)" style="stroke:#000000; stroke-linecap:round; stroke-linejoin:round; stroke-width:4; stroke-opacity:1; fill:none" points="186.274,144.489 205.172,144.489 "/>
<path clip-path="url(#clip800)" d="M63.9319 1445.83 Q60.3208 1445.83 58.4921 1449.4 Q56.6865 1452.94 56.6865 1460.07 Q56.6865 1467.18 58.4921 1470.74 Q60.3208 1474.28 63.9319 1474.28 Q67.5661 1474.28 69.3717 1470.74 Q71.2004 1467.18 71.2004 1460.07 Q71.2004 1452.94 69.3717 1449.4 Q67.5661 1445.83 63.9319 1445.83 M63.9319 1442.13 Q69.742 1442.13 72.7976 1446.74 Q75.8763 1451.32 75.8763 1460.07 Q75.8763 1468.8 72.7976 1473.4 Q69.742 1477.99 63.9319 1477.99 Q58.1217 1477.99 55.043 1473.4 Q51.9875 1468.8 51.9875 1460.07 Q51.9875 1451.32 55.043 1446.74 Q58.1217 1442.13 63.9319 1442.13 Z" fill="#000000" fill-rule="nonzero" fill-opacity="1" /><path clip-path="url(#clip800)" d="M84.0938 1471.43 L88.978 1471.43 L88.978 1477.31 L84.0938 1477.31 L84.0938 1471.43 Z" fill="#000000" fill-rule="nonzero" fill-opacity="1" /><path clip-path="url(#clip800)" d="M103.191 1473.38 L119.51 1473.38 L119.51 1477.31 L97.566 1477.31 L97.566 1473.38 Q100.228 1470.62 104.811 1466 Q109.418 1461.34 110.598 1460 Q112.844 1457.48 113.723 1455.74 Q114.626 1453.98 114.626 1452.29 Q114.626 1449.54 112.682 1447.8 Q110.76 1446.06 107.658 1446.06 Q105.459 1446.06 103.006 1446.83 Q100.575 1447.59 97.7974 1449.14 L97.7974 1444.42 Q100.621 1443.29 103.075 1442.71 Q105.529 1442.13 107.566 1442.13 Q112.936 1442.13 116.131 1444.81 Q119.325 1447.5 119.325 1451.99 Q119.325 1454.12 118.515 1456.04 Q117.728 1457.94 115.621 1460.53 Q115.043 1461.2 111.941 1464.42 Q108.839 1467.62 103.191 1473.38 Z" fill="#000000" fill-rule="nonzero" fill-opacity="1" /><path clip-path="url(#clip800)" d="M129.371 1442.75 L147.728 1442.75 L147.728 1446.69 L133.654 1446.69 L133.654 1455.16 Q134.672 1454.81 135.691 1454.65 Q136.709 1454.47 137.728 1454.47 Q143.515 1454.47 146.894 1457.64 Q150.274 1460.81 150.274 1466.23 Q150.274 1471.81 146.802 1474.91 Q143.33 1477.99 137.01 1477.99 Q134.834 1477.99 132.566 1477.62 Q130.32 1477.25 127.913 1476.5 L127.913 1471.81 Q129.996 1472.94 132.219 1473.5 Q134.441 1474.05 136.918 1474.05 Q140.922 1474.05 143.26 1471.94 Q145.598 1469.84 145.598 1466.23 Q145.598 1462.62 143.26 1460.51 Q140.922 1458.4 136.918 1458.4 Q135.043 1458.4 133.168 1458.82 Q131.316 1459.24 129.371 1460.12 L129.371 1442.75 Z" fill="#000000" fill-rule="nonzero" fill-opacity="1" /><path clip-path="url(#clip800)" d="M62.9365 1116.95 Q59.3254 1116.95 57.4967 1120.51 Q55.6912 1124.05 55.6912 1131.18 Q55.6912 1138.29 57.4967 1141.85 Q59.3254 1145.4 62.9365 1145.4 Q66.5707 1145.4 68.3763 1141.85 Q70.205 1138.29 70.205 1131.18 Q70.205 1124.05 68.3763 1120.51 Q66.5707 1116.95 62.9365 1116.95 M62.9365 1113.24 Q68.7467 1113.24 71.8022 1117.85 Q74.8809 1122.43 74.8809 1131.18 Q74.8809 1139.91 71.8022 1144.52 Q68.7467 1149.1 62.9365 1149.1 Q57.1264 1149.1 54.0477 1144.52 Q50.9921 1139.91 50.9921 1131.18 Q50.9921 1122.43 54.0477 1117.85 Q57.1264 1113.24 62.9365 1113.24 Z" fill="#000000" fill-rule="nonzero" fill-opacity="1" /><path clip-path="url(#clip800)" d="M83.0984 1142.55 L87.9827 1142.55 L87.9827 1148.43 L83.0984 1148.43 L83.0984 1142.55 Z" fill="#000000" fill-rule="nonzero" fill-opacity="1" /><path clip-path="url(#clip800)" d="M112.334 1129.79 Q115.691 1130.51 117.566 1132.78 Q119.464 1135.05 119.464 1138.38 Q119.464 1143.5 115.945 1146.3 Q112.427 1149.1 105.946 1149.1 Q103.77 1149.1 101.455 1148.66 Q99.1632 1148.24 96.7095 1147.39 L96.7095 1142.87 Q98.6539 1144.01 100.969 1144.59 Q103.284 1145.16 105.807 1145.16 Q110.205 1145.16 112.496 1143.43 Q114.811 1141.69 114.811 1138.38 Q114.811 1135.33 112.658 1133.61 Q110.529 1131.88 106.709 1131.88 L102.682 1131.88 L102.682 1128.03 L106.895 1128.03 Q110.344 1128.03 112.172 1126.67 Q114.001 1125.28 114.001 1122.69 Q114.001 1120.03 112.103 1118.61 Q110.228 1117.18 106.709 1117.18 Q104.788 1117.18 102.589 1117.59 Q100.39 1118.01 97.7511 1118.89 L97.7511 1114.72 Q100.413 1113.98 102.728 1113.61 Q105.066 1113.24 107.126 1113.24 Q112.45 1113.24 115.552 1115.67 Q118.654 1118.08 118.654 1122.2 Q118.654 1125.07 117.01 1127.06 Q115.367 1129.03 112.334 1129.79 Z" fill="#000000" fill-rule="nonzero" fill-opacity="1" /><path clip-path="url(#clip800)" d="M138.33 1116.95 Q134.719 1116.95 132.89 1120.51 Q131.084 1124.05 131.084 1131.18 Q131.084 1138.29 132.89 1141.85 Q134.719 1145.4 138.33 1145.4 Q141.964 1145.4 143.769 1141.85 Q145.598 1138.29 145.598 1131.18 Q145.598 1124.05 143.769 1120.51 Q141.964 1116.95 138.33 1116.95 M138.33 1113.24 Q144.14 1113.24 147.195 1117.85 Q150.274 1122.43 150.274 1131.18 Q150.274 1139.91 147.195 1144.52 Q144.14 1149.1 138.33 1149.1 Q132.519 1149.1 129.441 1144.52 Q126.385 1139.91 126.385 1131.18 Q126.385 1122.43 129.441 1117.85 Q132.519 1113.24 138.33 1113.24 Z" fill="#000000" fill-rule="nonzero" fill-opacity="1" /><path clip-path="url(#clip800)" d="M63.9319 788.06 Q60.3208 788.06 58.4921 791.625 Q56.6865 795.167 56.6865 802.296 Q56.6865 809.403 58.4921 812.968 Q60.3208 816.509 63.9319 816.509 Q67.5661 816.509 69.3717 812.968 Q71.2004 809.403 71.2004 802.296 Q71.2004 795.167 69.3717 791.625 Q67.5661 788.06 63.9319 788.06 M63.9319 784.357 Q69.742 784.357 72.7976 788.963 Q75.8763 793.546 75.8763 802.296 Q75.8763 811.023 72.7976 815.63 Q69.742 820.213 63.9319 820.213 Q58.1217 820.213 55.043 815.63 Q51.9875 811.023 51.9875 802.296 Q51.9875 793.546 55.043 788.963 Q58.1217 784.357 63.9319 784.357 Z" fill="#000000" fill-rule="nonzero" fill-opacity="1" /><path clip-path="url(#clip800)" d="M84.0938 813.662 L88.978 813.662 L88.978 819.542 L84.0938 819.542 L84.0938 813.662 Z" fill="#000000" fill-rule="nonzero" fill-opacity="1" /><path clip-path="url(#clip800)" d="M113.33 800.907 Q116.686 801.625 118.561 803.894 Q120.459 806.162 120.459 809.495 Q120.459 814.611 116.941 817.412 Q113.422 820.213 106.941 820.213 Q104.765 820.213 102.45 819.773 Q100.159 819.356 97.7048 818.5 L97.7048 813.986 Q99.6493 815.12 101.964 815.699 Q104.279 816.278 106.802 816.278 Q111.2 816.278 113.492 814.542 Q115.807 812.806 115.807 809.495 Q115.807 806.44 113.654 804.727 Q111.524 802.991 107.705 802.991 L103.677 802.991 L103.677 799.148 L107.89 799.148 Q111.339 799.148 113.168 797.783 Q114.996 796.394 114.996 793.801 Q114.996 791.139 113.098 789.727 Q111.223 788.292 107.705 788.292 Q105.783 788.292 103.584 788.708 Q101.385 789.125 98.7465 790.005 L98.7465 785.838 Q101.409 785.097 103.723 784.727 Q106.061 784.357 108.121 784.357 Q113.445 784.357 116.547 786.787 Q119.649 789.195 119.649 793.315 Q119.649 796.185 118.006 798.176 Q116.362 800.144 113.33 800.907 Z" fill="#000000" fill-rule="nonzero" fill-opacity="1" /><path clip-path="url(#clip800)" d="M129.371 784.982 L147.728 784.982 L147.728 788.917 L133.654 788.917 L133.654 797.389 Q134.672 797.042 135.691 796.88 Q136.709 796.695 137.728 796.695 Q143.515 796.695 146.894 799.866 Q150.274 803.037 150.274 808.454 Q150.274 814.032 146.802 817.134 Q143.33 820.213 137.01 820.213 Q134.834 820.213 132.566 819.843 Q130.32 819.472 127.913 818.731 L127.913 814.032 Q129.996 815.167 132.219 815.722 Q134.441 816.278 136.918 816.278 Q140.922 816.278 143.26 814.171 Q145.598 812.065 145.598 808.454 Q145.598 804.843 143.26 802.736 Q140.922 800.63 136.918 800.63 Q135.043 800.63 133.168 801.046 Q131.316 801.463 129.371 802.343 L129.371 784.982 Z" fill="#000000" fill-rule="nonzero" fill-opacity="1" /><path clip-path="url(#clip800)" d="M62.9365 459.174 Q59.3254 459.174 57.4967 462.739 Q55.6912 466.28 55.6912 473.41 Q55.6912 480.516 57.4967 484.081 Q59.3254 487.623 62.9365 487.623 Q66.5707 487.623 68.3763 484.081 Q70.205 480.516 70.205 473.41 Q70.205 466.28 68.3763 462.739 Q66.5707 459.174 62.9365 459.174 M62.9365 455.47 Q68.7467 455.47 71.8022 460.077 Q74.8809 464.66 74.8809 473.41 Q74.8809 482.137 71.8022 486.743 Q68.7467 491.327 62.9365 491.327 Q57.1264 491.327 54.0477 486.743 Q50.9921 482.137 50.9921 473.41 Q50.9921 464.66 54.0477 460.077 Q57.1264 455.47 62.9365 455.47 Z" fill="#000000" fill-rule="nonzero" fill-opacity="1" /><path clip-path="url(#clip800)" d="M83.0984 484.776 L87.9827 484.776 L87.9827 490.655 L83.0984 490.655 L83.0984 484.776 Z" fill="#000000" fill-rule="nonzero" fill-opacity="1" /><path clip-path="url(#clip800)" d="M111.015 460.169 L99.2095 478.618 L111.015 478.618 L111.015 460.169 M109.788 456.095 L115.668 456.095 L115.668 478.618 L120.598 478.618 L120.598 482.507 L115.668 482.507 L115.668 490.655 L111.015 490.655 L111.015 482.507 L95.4132 482.507 L95.4132 477.993 L109.788 456.095 Z" fill="#000000" fill-rule="nonzero" fill-opacity="1" /><path clip-path="url(#clip800)" d="M138.33 459.174 Q134.719 459.174 132.89 462.739 Q131.084 466.28 131.084 473.41 Q131.084 480.516 132.89 484.081 Q134.719 487.623 138.33 487.623 Q141.964 487.623 143.769 484.081 Q145.598 480.516 145.598 473.41 Q145.598 466.28 143.769 462.739 Q141.964 459.174 138.33 459.174 M138.33 455.47 Q144.14 455.47 147.195 460.077 Q150.274 464.66 150.274 473.41 Q150.274 482.137 147.195 486.743 Q144.14 491.327 138.33 491.327 Q132.519 491.327 129.441 486.743 Q126.385 482.137 126.385 473.41 Q126.385 464.66 129.441 460.077 Q132.519 455.47 138.33 455.47 Z" fill="#000000" fill-rule="nonzero" fill-opacity="1" /><path clip-path="url(#clip800)" d="M63.9319 130.288 Q60.3208 130.288 58.4921 133.852 Q56.6865 137.394 56.6865 144.524 Q56.6865 151.63 58.4921 155.195 Q60.3208 158.736 63.9319 158.736 Q67.5661 158.736 69.3717 155.195 Q71.2004 151.63 71.2004 144.524 Q71.2004 137.394 69.3717 133.852 Q67.5661 130.288 63.9319 130.288 M63.9319 126.584 Q69.742 126.584 72.7976 131.19 Q75.8763 135.774 75.8763 144.524 Q75.8763 153.25 72.7976 157.857 Q69.742 162.44 63.9319 162.44 Q58.1217 162.44 55.043 157.857 Q51.9875 153.25 51.9875 144.524 Q51.9875 135.774 55.043 131.19 Q58.1217 126.584 63.9319 126.584 Z" fill="#000000" fill-rule="nonzero" fill-opacity="1" /><path clip-path="url(#clip800)" d="M84.0938 155.889 L88.978 155.889 L88.978 161.769 L84.0938 161.769 L84.0938 155.889 Z" fill="#000000" fill-rule="nonzero" fill-opacity="1" /><path clip-path="url(#clip800)" d="M112.01 131.283 L100.205 149.732 L112.01 149.732 L112.01 131.283 M110.783 127.209 L116.663 127.209 L116.663 149.732 L121.594 149.732 L121.594 153.621 L116.663 153.621 L116.663 161.769 L112.01 161.769 L112.01 153.621 L96.4085 153.621 L96.4085 149.107 L110.783 127.209 Z" fill="#000000" fill-rule="nonzero" fill-opacity="1" /><path clip-path="url(#clip800)" d="M129.371 127.209 L147.728 127.209 L147.728 131.144 L133.654 131.144 L133.654 139.616 Q134.672 139.269 135.691 139.107 Q136.709 138.922 137.728 138.922 Q143.515 138.922 146.894 142.093 Q150.274 145.264 150.274 150.681 Q150.274 156.26 146.802 159.361 Q143.33 162.44 137.01 162.44 Q134.834 162.44 132.566 162.07 Q130.32 161.699 127.913 160.959 L127.913 156.26 Q129.996 157.394 132.219 157.949 Q134.441 158.505 136.918 158.505 Q140.922 158.505 143.26 156.398 Q145.598 154.292 145.598 150.681 Q145.598 147.07 143.26 144.963 Q140.922 142.857 136.918 142.857 Q135.043 142.857 133.168 143.274 Q131.316 143.69 129.371 144.57 L129.371 127.209 Z" fill="#000000" fill-rule="nonzero" fill-opacity="1" /><polyline clip-path="url(#clip802)" style="stroke:#009af9; stroke-linecap:round; stroke-linejoin:round; stroke-width:4; stroke-opacity:1; fill:none" points="247.59,87.9763 248.611,88.8815 249.633,89.7863 250.655,90.6909 251.677,91.5952 252.699,92.4991 253.721,93.4028 254.743,94.3061 255.765,95.2091 256.787,96.1118 257.809,97.0142 258.831,97.9163 259.853,98.8181 260.875,99.7196 261.896,100.621 262.918,101.522 263.94,102.422 264.962,103.322 265.984,104.222 267.006,105.122 268.028,106.021 269.05,106.92 270.072,107.819 271.094,108.717 272.116,109.616 273.138,110.513 274.16,111.411 275.182,112.308 276.203,113.205 277.225,114.101 278.247,114.998 279.269,115.894 280.291,116.789 281.313,117.685 282.335,118.58 283.357,119.475 284.379,120.369 285.401,121.263 286.423,122.157 287.445,123.051 288.467,123.944 289.488,124.837 290.51,125.729 291.532,126.622 292.554,127.514 293.576,128.405 294.598,129.297 295.62,130.188 296.642,131.079 297.664,131.969 298.686,132.86 299.708,133.749 300.73,134.639 301.752,135.528 302.774,136.417 303.795,137.306 304.817,138.195 305.839,139.083 306.861,139.971 307.883,140.858 308.905,141.745 309.927,142.632 310.949,143.519 311.971,144.405 312.993,145.291 314.015,146.177 315.037,147.062 316.059,147.948 317.08,148.832 318.102,149.717 319.124,150.601 320.146,151.485 321.168,152.369 322.19,153.252 323.212,154.135 324.234,155.018 325.256,155.901 326.278,156.783 327.3,157.665 328.322,158.546 329.344,159.427 330.365,160.308 331.387,161.189 332.409,162.07 333.431,162.95 334.453,163.83 335.475,164.709 336.497,165.588 337.519,166.467 338.541,167.346 339.563,168.224 340.585,169.102 341.607,169.98 342.629,170.858 343.651,171.735 344.672,172.612 345.694,173.488 346.716,174.365 347.738,175.241 348.76,176.116 349.782,176.992 350.804,177.867 351.826,178.742 352.848,179.616 353.87,180.491 354.892,181.365 355.914,182.238 356.936,183.112 357.957,183.985 358.979,184.858 360.001,185.73 361.023,186.603 362.045,187.475 363.067,188.346 364.089,189.218 365.111,190.089 366.133,190.96 367.155,191.83 368.177,192.7 369.199,193.57 370.221,194.44 371.243,195.309 372.264,196.179 373.286,197.047 374.308,197.916 375.33,198.784 376.352,199.652 377.374,200.52 378.396,201.387 379.418,202.254 380.44,203.121 381.462,203.988 382.484,204.854 383.506,205.72 384.528,206.585 385.549,207.451 386.571,208.316 387.593,209.181 388.615,210.045 389.637,210.91 390.659,211.774 391.681,212.637 392.703,213.501 393.725,214.364 394.747,215.227 395.769,216.089 396.791,216.951 397.813,217.813 398.834,218.675 399.856,219.537 400.878,220.398 401.9,221.259 402.922,222.119 403.944,222.979 404.966,223.839 405.988,224.699 407.01,225.559 408.032,226.418 409.054,227.277 410.076,228.135 411.098,228.994 412.12,229.852 413.141,230.71 414.163,231.567 415.185,232.424 416.207,233.281 417.229,234.138 418.251,234.994 419.273,235.85 420.295,236.706 421.317,237.562 422.339,238.417 423.361,239.272 424.383,240.127 425.405,240.981 426.426,241.835 427.448,242.689 428.47,243.543 429.492,244.396 430.514,245.249 431.536,246.102 432.558,246.955 433.58,247.807 434.602,248.659 435.624,249.511 436.646,250.362 437.668,251.213 438.69,252.064 439.712,252.915 440.733,253.765 441.755,254.615 442.777,255.465 443.799,256.314 444.821,257.163 445.843,258.012 446.865,258.861 447.887,259.709 448.909,260.557 449.931,261.405 450.953,262.253 451.975,263.1 452.997,263.947 454.018,264.794 455.04,265.64 456.062,266.487 457.084,267.333 458.106,268.178 459.128,269.024 460.15,269.869 461.172,270.714 462.194,271.558 463.216,272.402 464.238,273.246 465.26,274.09 466.282,274.934 467.303,275.777 468.325,276.62 469.347,277.463 470.369,278.305 471.391,279.147 472.413,279.989 473.435,280.831 474.457,281.672 475.479,282.513 476.501,283.354 477.523,284.194 478.545,285.035 479.567,285.875 480.589,286.714 481.61,287.554 482.632,288.393 483.654,289.232 484.676,290.071 485.698,290.909 486.72,291.747 487.742,292.585 488.764,293.423 489.786,294.26 490.808,295.097 491.83,295.934 492.852,296.77 493.874,297.607 494.895,298.443 495.917,299.278 496.939,300.114 497.961,300.949 498.983,301.784 500.005,302.619 501.027,303.453 502.049,304.287 503.071,305.121 504.093,305.955 505.115,306.788 506.137,307.621 507.159,308.454 508.181,309.286 509.202,310.119 510.224,310.951 511.246,311.782 512.268,312.614 513.29,313.445 514.312,314.276 515.334,315.107 516.356,315.937 517.378,316.768 518.4,317.597 519.422,318.427 520.444,319.257 521.466,320.086 522.487,320.915 523.509,321.743 524.531,322.572 525.553,323.4 526.575,324.227 527.597,325.055 528.619,325.882 529.641,326.709 530.663,327.536 531.685,328.363 532.707,329.189 533.729,330.015 534.751,330.841 535.772,331.666 536.794,332.491 537.816,333.316 538.838,334.141 539.86,334.966 540.882,335.79 541.904,336.614 542.926,337.437 543.948,338.261 544.97,339.084 545.992,339.907 547.014,340.73 548.036,341.552 549.058,342.374 550.079,343.196 551.101,344.018 552.123,344.839 553.145,345.66 554.167,346.481 555.189,347.302 556.211,348.122 557.233,348.942 558.255,349.762 559.277,350.581 560.299,351.401 561.321,352.22 562.343,353.039 563.364,353.857 564.386,354.675 565.408,355.493 566.43,356.311 567.452,357.129 568.474,357.946 569.496,358.763 570.518,359.58 571.54,360.396 572.562,361.213 573.584,362.029 574.606,362.844 575.628,363.66 576.65,364.475 577.671,365.29 578.693,366.105 579.715,366.919 580.737,367.733 581.759,368.547 582.781,369.361 583.803,370.175 584.825,370.988 585.847,371.801 586.869,372.613 587.891,373.426 588.913,374.238 589.935,375.05 590.956,375.862 591.978,376.673 593,377.485 594.022,378.295 595.044,379.106 596.066,379.917 597.088,380.727 598.11,381.537 599.132,382.346 600.154,383.156 601.176,383.965 602.198,384.774 603.22,385.583 604.242,386.391 605.263,387.199 606.285,388.007 607.307,388.815 608.329,389.623 609.351,390.43 610.373,391.237 611.395,392.043 612.417,392.85 613.439,393.656 614.461,394.462 615.483,395.268 616.505,396.073 617.527,396.878 618.548,397.683 619.57,398.488 620.592,399.293 621.614,400.097 622.636,400.901 623.658,401.705 624.68,402.508 625.702,403.311 626.724,404.114 627.746,404.917 628.768,405.72 629.79,406.522 630.812,407.324 631.833,408.126 632.855,408.927 633.877,409.728 634.899,410.529 635.921,411.33 636.943,412.131 637.965,412.931 638.987,413.731 640.009,414.531 641.031,415.331 642.053,416.13 643.075,416.929 644.097,417.728 645.119,418.526 646.14,419.325 647.162,420.123 648.184,420.921 649.206,421.718 650.228,422.516 651.25,423.313 652.272,424.11 653.294,424.906 654.316,425.703 655.338,426.499 656.36,427.295 657.382,428.09 658.404,428.886 659.425,429.681 660.447,430.476 661.469,431.271 662.491,432.065 663.513,432.859 664.535,433.653 665.557,434.447 666.579,435.241 667.601,436.034 668.623,436.827 669.645,437.62 670.667,438.412 671.689,439.204 672.711,439.996 673.732,440.788 674.754,441.58 675.776,442.371 676.798,443.162 677.82,443.953 678.842,444.744 679.864,445.534 680.886,446.324 681.908,447.114 682.93,447.904 683.952,448.693 684.974,449.482 685.996,450.271 687.017,451.06 688.039,451.848 689.061,452.637 690.083,453.425 691.105,454.212 692.127,455 693.149,455.787 694.171,456.574 695.193,457.361 696.215,458.148 697.237,458.934 698.259,459.72 699.281,460.506 700.302,461.291 701.324,462.077 702.346,462.862 703.368,463.647 704.39,464.431 705.412,465.216 706.434,466 707.456,466.784 708.478,467.568 709.5,468.351 710.522,469.134 711.544,469.917 712.566,470.7 713.588,471.483 714.609,472.265 715.631,473.047 716.653,473.829 717.675,474.611 718.697,475.392 719.719,476.173 720.741,476.954 721.763,477.735 722.785,478.515 723.807,479.295 724.829,480.075 725.851,480.855 726.873,481.634 727.894,482.414 728.916,483.193 729.938,483.972 730.96,484.75 731.982,485.528 733.004,486.306 734.026,487.084 735.048,487.862 736.07,488.639 737.092,489.417 738.114,490.193 739.136,490.97 740.158,491.747 741.18,492.523 742.201,493.299 743.223,494.075 744.245,494.85 745.267,495.625 746.289,496.4 747.311,497.175 748.333,497.95 749.355,498.724 750.377,499.498 751.399,500.272 752.421,501.046 753.443,501.82 754.465,502.593 755.486,503.366 756.508,504.139 757.53,504.911 758.552,505.683 759.574,506.455 760.596,507.227 761.618,507.999 762.64,508.77 763.662,509.541 764.684,510.312 765.706,511.083 766.728,511.854 767.75,512.624 768.771,513.394 769.793,514.164 770.815,514.933 771.837,515.702 772.859,516.472 773.881,517.24 774.903,518.009 775.925,518.777 776.947,519.546 777.969,520.314 778.991,521.081 780.013,521.849 781.035,522.616 782.057,523.383 783.078,524.15 784.1,524.916 785.122,525.683 786.144,526.449 787.166,527.215 788.188,527.981 789.21,528.746 790.232,529.511 791.254,530.276 792.276,531.041 793.298,531.806 794.32,532.57 795.342,533.334 796.363,534.098 797.385,534.862 798.407,535.625 799.429,536.388 800.451,537.151 801.473,537.914 802.495,538.676 803.517,539.439 804.539,540.201 805.561,540.963 806.583,541.724 807.605,542.486 808.627,543.247 809.649,544.008 810.67,544.768 811.692,545.529 812.714,546.289 813.736,547.049 814.758,547.809 815.78,548.569 816.802,549.328 817.824,550.087 818.846,550.846 819.868,551.605 820.89,552.363 821.912,553.122 822.934,553.88 823.955,554.637 824.977,555.395 825.999,556.152 827.021,556.91 828.043,557.666 829.065,558.423 830.087,559.18 831.109,559.936 832.131,560.692 833.153,561.448 834.175,562.203 835.197,562.959 836.219,563.714 837.24,564.469 838.262,565.223 839.284,565.978 840.306,566.732 841.328,567.486 842.35,568.24 843.372,568.994 844.394,569.747 845.416,570.5 846.438,571.253 847.46,572.006 848.482,572.758 849.504,573.511 850.526,574.263 851.547,575.015 852.569,575.766 853.591,576.518 854.613,577.269 855.635,578.02 856.657,578.77 857.679,579.521 858.701,580.271 859.723,581.021 860.745,581.771 861.767,582.521 862.789,583.27 863.811,584.019 864.832,584.768 865.854,585.517 866.876,586.266 867.898,587.014 868.92,587.762 869.942,588.51 870.964,589.258 871.986,590.005 873.008,590.752 874.03,591.499 875.052,592.246 876.074,592.993 877.096,593.739 878.118,594.485 879.139,595.231 880.161,595.977 881.183,596.722 882.205,597.468 883.227,598.213 884.249,598.958 885.271,599.702 886.293,600.447 887.315,601.191 888.337,601.935 889.359,602.679 890.381,603.422 891.403,604.165 892.424,604.908 893.446,605.651 894.468,606.394 895.49,607.137 896.512,607.879 897.534,608.621 898.556,609.363 899.578,610.104 900.6,610.846 901.622,611.587 902.644,612.328 903.666,613.068 904.688,613.809 905.71,614.549 906.731,615.289 907.753,616.029 908.775,616.769 909.797,617.508 910.819,618.248 911.841,618.987 912.863,619.725 913.885,620.464 914.907,621.202 915.929,621.941 916.951,622.679 917.973,623.416 918.995,624.154 920.016,624.891 921.038,625.628 922.06,626.365 923.082,627.102 924.104,627.838 925.126,628.574 926.148,629.31 927.17,630.046 928.192,630.782 929.214,631.517 930.236,632.252 931.258,632.987 932.28,633.722 933.301,634.457 934.323,635.191 935.345,635.925 936.367,636.659 937.389,637.393 938.411,638.126 939.433,638.86 940.455,639.593 941.477,640.325 942.499,641.058 943.521,641.79 944.543,642.523 945.565,643.255 946.587,643.986 947.608,644.718 948.63,645.449 949.652,646.181 950.674,646.911 951.696,647.642 952.718,648.373 953.74,649.103 954.762,649.833 955.784,650.563 956.806,651.293 957.828,652.022 958.85,652.751 959.872,653.48 960.893,654.209 961.915,654.938 962.937,655.666 963.959,656.395 964.981,657.123 966.003,657.85 967.025,658.578 968.047,659.305 969.069,660.032 970.091,660.759 971.113,661.486 972.135,662.213 973.157,662.939 974.179,663.665 975.2,664.391 976.222,665.117 977.244,665.842 978.266,666.568 979.288,667.293 980.31,668.017 981.332,668.742 982.354,669.467 983.376,670.191 984.398,670.915 985.42,671.639 986.442,672.362 987.464,673.086 988.485,673.809 989.507,674.532 990.529,675.255 991.551,675.977 992.573,676.7 993.595,677.422 994.617,678.144 995.639,678.865 996.661,679.587 997.683,680.308 998.705,681.029 999.727,681.75 1000.75,682.471 1001.77,683.192 1002.79,683.912 1003.81,684.632 1004.84,685.352 1005.86,686.072 1006.88,686.791 1007.9,687.51 1008.92,688.229 1009.95,688.948 1010.97,689.667 1011.99,690.385 1013.01,691.104 1014.03,691.822 1015.06,692.539 1016.08,693.257 1017.1,693.974 1018.12,694.692 1019.14,695.409 1020.17,696.125 1021.19,696.842 1022.21,697.558 1023.23,698.275 1024.25,698.991 1025.27,699.706 1026.3,700.422 1027.32,701.137 1028.34,701.852 1029.36,702.567 1030.38,703.282 1031.41,703.997 1032.43,704.711 1033.45,705.425 1034.47,706.139 1035.49,706.853 1036.52,707.566 1037.54,708.28 1038.56,708.993 1039.58,709.706 1040.6,710.419 1041.63,711.131 1042.65,711.843 1043.67,712.555 1044.69,713.267 1045.71,713.979 1046.74,714.691 1047.76,715.402 1048.78,716.113 1049.8,716.824 1050.82,717.534 1051.84,718.245 1052.87,718.955 1053.89,719.665 1054.91,720.375 1055.93,721.085 1056.95,721.794 1057.98,722.504 1059,723.213 1060.02,723.921 1061.04,724.63 1062.06,725.339 1063.09,726.047 1064.11,726.755 1065.13,727.463 1066.15,728.17 1067.17,728.878 1068.2,729.585 1069.22,730.292 1070.24,730.999 1071.26,731.706 1072.28,732.412 1073.31,733.118 1074.33,733.824 1075.35,734.53 1076.37,735.236 1077.39,735.941 1078.41,736.646 1079.44,737.351 1080.46,738.056 1081.48,738.761 1082.5,739.465 1083.52,740.17 1084.55,740.874 1085.57,741.577 1086.59,742.281 1087.61,742.984 1088.63,743.688 1089.66,744.391 1090.68,745.094 1091.7,745.796 1092.72,746.499 1093.74,747.201 1094.77,747.903 1095.79,748.605 1096.81,749.306 1097.83,750.008 1098.85,750.709 1099.88,751.41 1100.9,752.111 1101.92,752.811 1102.94,753.512 1103.96,754.212 1104.98,754.912 1106.01,755.612 1107.03,756.312 1108.05,757.011 1109.07,757.71 1110.09,758.409 1111.12,759.108 1112.14,759.807 1113.16,760.505 1114.18,761.203 1115.2,761.902 1116.23,762.599 1117.25,763.297 1118.27,763.994 1119.29,764.692 1120.31,765.389 1121.34,766.086 1122.36,766.782 1123.38,767.479 1124.4,768.175 1125.42,768.871 1126.45,769.567 1127.47,770.263 1128.49,770.958 1129.51,771.653 1130.53,772.348 1131.56,773.043 1132.58,773.738 1133.6,774.433 1134.62,775.127 1135.64,775.821 1136.66,776.515 1137.69,777.209 1138.71,777.902 1139.73,778.595 1140.75,779.288 1141.77,779.981 1142.8,780.674 1143.82,781.367 1144.84,782.059 1145.86,782.751 1146.88,783.443 1147.91,784.135 1148.93,784.826 1149.95,785.518 1150.97,786.209 1151.99,786.9 1153.02,787.59 1154.04,788.281 1155.06,788.971 1156.08,789.662 1157.1,790.352 1158.13,791.041 1159.15,791.731 1160.17,792.42 1161.19,793.109 1162.21,793.798 1163.23,794.487 1164.26,795.176 1165.28,795.864 1166.3,796.553 1167.32,797.241 1168.34,797.928 1169.37,798.616 1170.39,799.303 1171.41,799.991 1172.43,800.678 1173.45,801.365 1174.48,802.051 1175.5,802.738 1176.52,803.424 1177.54,804.11 1178.56,804.796 1179.59,805.482 1180.61,806.167 1181.63,806.852 1182.65,807.538 1183.67,808.222 1184.7,808.907 1185.72,809.592 1186.74,810.276 1187.76,810.96 1188.78,811.644 1189.8,812.328 1190.83,813.011 1191.85,813.695 1192.87,814.378 1193.89,815.061 1194.91,815.744 1195.94,816.426 1196.96,817.109 1197.98,817.791 1199,818.473 1200.02,819.155 1201.05,819.836 1202.07,820.518 1203.09,821.199 1204.11,821.88 1205.13,822.561 1206.16,823.241 1207.18,823.922 1208.2,824.602 1209.22,825.282 1210.24,825.962 1211.27,826.642 1212.29,827.321 1213.31,828.001 1214.33,828.68 1215.35,829.359 1216.37,830.037 1217.4,830.716 1218.42,831.394 1219.44,832.073 1220.46,832.751 1221.48,833.428 1222.51,834.106 1223.53,834.783 1224.55,835.46 1225.57,836.137 1226.59,836.814 1227.62,837.491 1228.64,838.167 1229.66,838.844 1230.68,839.52 1231.7,840.196 1232.73,840.871 1233.75,841.547 1234.77,842.222 1235.79,842.897 1236.81,843.572 1237.84,844.247 1238.86,844.921 1239.88,845.596 1240.9,846.27 1241.92,846.944 1242.94,847.617 1243.97,848.291 1244.99,848.964 1246.01,849.638 1247.03,850.311 1248.05,850.983 1249.08,851.656 1250.1,852.328 1251.12,853.001 1252.14,853.673 1253.16,854.345 1254.19,855.016 1255.21,855.688 1256.23,856.359 1257.25,857.03 1258.27,857.701 1259.3,858.372 1260.32,859.042 1261.34,859.713 1262.36,860.383 1263.38,861.053 1264.41,861.723 1265.43,862.392 1266.45,863.062 1267.47,863.731 1268.49,864.4 1269.51,865.069 1270.54,865.737 1271.56,866.406 1272.58,867.074 1273.6,867.742 1274.62,868.41 1275.65,869.078 1276.67,869.745 1277.69,870.412 1278.71,871.08 1279.73,871.746 1280.76,872.413 1281.78,873.08 1282.8,873.746 1283.82,874.412 1284.84,875.078 1285.87,875.744 1286.89,876.41 1287.91,877.075 1288.93,877.74 1289.95,878.406 1290.98,879.07 1292,879.735 1293.02,880.4 1294.04,881.064 1295.06,881.728 1296.09,882.392 1297.11,883.056 1298.13,883.719 1299.15,884.383 1300.17,885.046 1301.19,885.709 1302.22,886.372 1303.24,887.034 1304.26,887.697 1305.28,888.359 1306.3,889.021 1307.33,889.683 1308.35,890.344 1309.37,891.006 1310.39,891.667 1311.41,892.328 1312.44,892.989 1313.46,893.65 1314.48,894.311 1315.5,894.971 1316.52,895.631 1317.55,896.291 1318.57,896.951 1319.59,897.611 1320.61,898.27 1321.63,898.929 1322.66,899.588 1323.68,900.247 1324.7,900.906 1325.72,901.564 1326.74,902.223 1327.76,902.881 1328.79,903.539 1329.81,904.197 1330.83,904.854 1331.85,905.512 1332.87,906.169 1333.9,906.826 1334.92,907.483 1335.94,908.139 1336.96,908.796 1337.98,909.452 1339.01,910.108 1340.03,910.764 1341.05,911.42 1342.07,912.075 1343.09,912.731 1344.12,913.386 1345.14,914.041 1346.16,914.696 1347.18,915.35 1348.2,916.005 1349.23,916.659 1350.25,917.313 1351.27,917.967 1352.29,918.62 1353.31,919.274 1354.33,919.927 1355.36,920.58 1356.38,921.233 1357.4,921.886 1358.42,922.539 1359.44,923.191 1360.47,923.843 1361.49,924.495 1362.51,925.147 1363.53,925.799 1364.55,926.45 1365.58,927.102 1366.6,927.753 1367.62,928.404 1368.64,929.054 1369.66,929.705 1370.69,930.355 1371.71,931.005 1372.73,931.655 1373.75,932.305 1374.77,932.955 1375.8,933.604 1376.82,934.253 1377.84,934.903 1378.86,935.551 1379.88,936.2 1380.9,936.849 1381.93,937.497 1382.95,938.145 1383.97,938.793 1384.99,939.441 1386.01,940.088 1387.04,940.736 1388.06,941.383 1389.08,942.03 1390.1,942.677 1391.12,943.324 1392.15,943.97 1393.17,944.617 1394.19,945.263 1395.21,945.909 1396.23,946.554 1397.26,947.2 1398.28,947.845 1399.3,948.491 1400.32,949.136 1401.34,949.781 1402.37,950.425 1403.39,951.07 1404.41,951.714 1405.43,952.358 1406.45,953.002 1407.47,953.646 1408.5,954.289 1409.52,954.933 1410.54,955.576 1411.56,956.219 1412.58,956.862 1413.61,957.505 1414.63,958.147 1415.65,958.789 1416.67,959.431 1417.69,960.073 1418.72,960.715 1419.74,961.357 1420.76,961.998 1421.78,962.639 1422.8,963.28 1423.83,963.921 1424.85,964.562 1425.87,965.202 1426.89,965.843 1427.91,966.483 1428.94,967.123 1429.96,967.762 1430.98,968.402 1432,969.041 1433.02,969.681 1434.04,970.32 1435.07,970.958 1436.09,971.597 1437.11,972.236 1438.13,972.874 1439.15,973.512 1440.18,974.15 1441.2,974.788 1442.22,975.425 1443.24,976.063 1444.26,976.7 1445.29,977.337 1446.31,977.974 1447.33,978.611 1448.35,979.247 1449.37,979.883 1450.4,980.519 1451.42,981.155 1452.44,981.791 1453.46,982.427 1454.48,983.062 1455.51,983.697 1456.53,984.332 1457.55,984.967 1458.57,985.602 1459.59,986.236 1460.62,986.871 1461.64,987.505 1462.66,988.139 1463.68,988.773 1464.7,989.406 1465.72,990.04 1466.75,990.673 1467.77,991.306 1468.79,991.939 1469.81,992.572 1470.83,993.204 1471.86,993.836 1472.88,994.469 1473.9,995.101 1474.92,995.732 1475.94,996.364 1476.97,996.995 1477.99,997.627 1479.01,998.258 1480.03,998.889 1481.05,999.519 1482.08,1000.15 1483.1,1000.78 1484.12,1001.41 1485.14,1002.04 1486.16,1002.67 1487.19,1003.3 1488.21,1003.93 1489.23,1004.56 1490.25,1005.19 1491.27,1005.82 1492.29,1006.45 1493.32,1007.07 1494.34,1007.7 1495.36,1008.33 1496.38,1008.96 1497.4,1009.59 1498.43,1010.21 1499.45,1010.84 1500.47,1011.47 1501.49,1012.1 1502.51,1012.72 1503.54,1013.35 1504.56,1013.98 1505.58,1014.6 1506.6,1015.23 1507.62,1015.86 1508.65,1016.48 1509.67,1017.11 1510.69,1017.73 1511.71,1018.36 1512.73,1018.98 1513.76,1019.61 1514.78,1020.23 1515.8,1020.86 1516.82,1021.48 1517.84,1022.11 1518.86,1022.73 1519.89,1023.35 1520.91,1023.98 1521.93,1024.6 1522.95,1025.23 1523.97,1025.85 1525,1026.47 1526.02,1027.09 1527.04,1027.72 1528.06,1028.34 1529.08,1028.96 1530.11,1029.58 1531.13,1030.21 1532.15,1030.83 1533.17,1031.45 1534.19,1032.07 1535.22,1032.69 1536.24,1033.31 1537.26,1033.93 1538.28,1034.55 1539.3,1035.18 1540.33,1035.8 1541.35,1036.42 1542.37,1037.04 1543.39,1037.66 1544.41,1038.28 1545.43,1038.89 1546.46,1039.51 1547.48,1040.13 1548.5,1040.75 1549.52,1041.37 1550.54,1041.99 1551.57,1042.61 1552.59,1043.23 1553.61,1043.84 1554.63,1044.46 1555.65,1045.08 1556.68,1045.7 1557.7,1046.31 1558.72,1046.93 1559.74,1047.55 1560.76,1048.17 1561.79,1048.78 1562.81,1049.4 1563.83,1050.02 1564.85,1050.63 1565.87,1051.25 1566.9,1051.86 1567.92,1052.48 1568.94,1053.09 1569.96,1053.71 1570.98,1054.32 1572,1054.94 1573.03,1055.55 1574.05,1056.17 1575.07,1056.78 1576.09,1057.4 1577.11,1058.01 1578.14,1058.62 1579.16,1059.24 1580.18,1059.85 1581.2,1060.47 1582.22,1061.08 1583.25,1061.69 1584.27,1062.3 1585.29,1062.92 1586.31,1063.53 1587.33,1064.14 1588.36,1064.75 1589.38,1065.37 1590.4,1065.98 1591.42,1066.59 1592.44,1067.2 1593.47,1067.81 1594.49,1068.42 1595.51,1069.03 1596.53,1069.64 1597.55,1070.25 1598.57,1070.86 1599.6,1071.47 1600.62,1072.08 1601.64,1072.69 1602.66,1073.3 1603.68,1073.91 1604.71,1074.52 1605.73,1075.13 1606.75,1075.74 1607.77,1076.35 1608.79,1076.96 1609.82,1077.57 1610.84,1078.17 1611.86,1078.78 1612.88,1079.39 1613.9,1080 1614.93,1080.61 1615.95,1081.21 1616.97,1081.82 1617.99,1082.43 1619.01,1083.03 1620.04,1083.64 1621.06,1084.25 1622.08,1084.85 1623.1,1085.46 1624.12,1086.07 1625.15,1086.67 1626.17,1087.28 1627.19,1087.88 1628.21,1088.49 1629.23,1089.09 1630.25,1089.7 1631.28,1090.3 1632.3,1090.91 1633.32,1091.51 1634.34,1092.12 1635.36,1092.72 1636.39,1093.32 1637.41,1093.93 1638.43,1094.53 1639.45,1095.13 1640.47,1095.74 1641.5,1096.34 1642.52,1096.94 1643.54,1097.55 1644.56,1098.15 1645.58,1098.75 1646.61,1099.35 1647.63,1099.95 1648.65,1100.56 1649.67,1101.16 1650.69,1101.76 1651.72,1102.36 1652.74,1102.96 1653.76,1103.56 1654.78,1104.16 1655.8,1104.76 1656.82,1105.36 1657.85,1105.96 1658.87,1106.56 1659.89,1107.16 1660.91,1107.76 1661.93,1108.36 1662.96,1108.96 1663.98,1109.56 1665,1110.16 1666.02,1110.76 1667.04,1111.36 1668.07,1111.96 1669.09,1112.55 1670.11,1113.15 1671.13,1113.75 1672.15,1114.35 1673.18,1114.95 1674.2,1115.54 1675.22,1116.14 1676.24,1116.74 1677.26,1117.33 1678.29,1117.93 1679.31,1118.53 1680.33,1119.12 1681.35,1119.72 1682.37,1120.32 1683.39,1120.91 1684.42,1121.51 1685.44,1122.1 1686.46,1122.7 1687.48,1123.29 1688.5,1123.89 1689.53,1124.48 1690.55,1125.08 1691.57,1125.67 1692.59,1126.27 1693.61,1126.86 1694.64,1127.46 1695.66,1128.05 1696.68,1128.64 1697.7,1129.24 1698.72,1129.83 1699.75,1130.42 1700.77,1131.02 1701.79,1131.61 1702.81,1132.2 1703.83,1132.79 1704.86,1133.39 1705.88,1133.98 1706.9,1134.57 1707.92,1135.16 1708.94,1135.75 1709.96,1136.34 1710.99,1136.93 1712.01,1137.53 1713.03,1138.12 1714.05,1138.71 1715.07,1139.3 1716.1,1139.89 1717.12,1140.48 1718.14,1141.07 1719.16,1141.66 1720.18,1142.25 1721.21,1142.84 1722.23,1143.43 1723.25,1144.02 1724.27,1144.6 1725.29,1145.19 1726.32,1145.78 1727.34,1146.37 1728.36,1146.96 1729.38,1147.55 1730.4,1148.14 1731.43,1148.72 1732.45,1149.31 1733.47,1149.9 1734.49,1150.49 1735.51,1151.07 1736.53,1151.66 1737.56,1152.25 1738.58,1152.83 1739.6,1153.42 1740.62,1154.01 1741.64,1154.59 1742.67,1155.18 1743.69,1155.76 1744.71,1156.35 1745.73,1156.93 1746.75,1157.52 1747.78,1158.1 1748.8,1158.69 1749.82,1159.27 1750.84,1159.86 1751.86,1160.44 1752.89,1161.03 1753.91,1161.61 1754.93,1162.19 1755.95,1162.78 1756.97,1163.36 1758,1163.94 1759.02,1164.53 1760.04,1165.11 1761.06,1165.69 1762.08,1166.28 1763.1,1166.86 1764.13,1167.44 1765.15,1168.02 1766.17,1168.61 1767.19,1169.19 1768.21,1169.77 1769.24,1170.35 1770.26,1170.93 1771.28,1171.51 1772.3,1172.09 1773.32,1172.67 1774.35,1173.25 1775.37,1173.83 1776.39,1174.42 1777.41,1175 1778.43,1175.58 1779.46,1176.15 1780.48,1176.73 1781.5,1177.31 1782.52,1177.89 1783.54,1178.47 1784.57,1179.05 1785.59,1179.63 1786.61,1180.21 1787.63,1180.79 1788.65,1181.36 1789.67,1181.94 1790.7,1182.52 1791.72,1183.1 1792.74,1183.68 1793.76,1184.25 1794.78,1184.83 1795.81,1185.41 1796.83,1185.98 1797.85,1186.56 1798.87,1187.14 1799.89,1187.71 1800.92,1188.29 1801.94,1188.87 1802.96,1189.44 1803.98,1190.02 1805,1190.59 1806.03,1191.17 1807.05,1191.74 1808.07,1192.32 1809.09,1192.89 1810.11,1193.47 1811.14,1194.04 1812.16,1194.62 1813.18,1195.19 1814.2,1195.76 1815.22,1196.34 1816.25,1196.91 1817.27,1197.49 1818.29,1198.06 1819.31,1198.63 1820.33,1199.2 1821.35,1199.78 1822.38,1200.35 1823.4,1200.92 1824.42,1201.5 1825.44,1202.07 1826.46,1202.64 1827.49,1203.21 1828.51,1203.78 1829.53,1204.35 1830.55,1204.93 1831.57,1205.5 1832.6,1206.07 1833.62,1206.64 1834.64,1207.21 1835.66,1207.78 1836.68,1208.35 1837.71,1208.92 1838.73,1209.49 1839.75,1210.06 1840.77,1210.63 1841.79,1211.2 1842.82,1211.77 1843.84,1212.34 1844.86,1212.9 1845.88,1213.47 1846.9,1214.04 1847.92,1214.61 1848.95,1215.18 1849.97,1215.75 1850.99,1216.31 1852.01,1216.88 1853.03,1217.45 1854.06,1218.02 1855.08,1218.58 1856.1,1219.15 1857.12,1219.72 1858.14,1220.29 1859.17,1220.85 1860.19,1221.42 1861.21,1221.98 1862.23,1222.55 1863.25,1223.12 1864.28,1223.68 1865.3,1224.25 1866.32,1224.81 1867.34,1225.38 1868.36,1225.94 1869.39,1226.51 1870.41,1227.07 1871.43,1227.64 1872.45,1228.2 1873.47,1228.77 1874.49,1229.33 1875.52,1229.89 1876.54,1230.46 1877.56,1231.02 1878.58,1231.58 1879.6,1232.15 1880.63,1232.71 1881.65,1233.27 1882.67,1233.84 1883.69,1234.4 1884.71,1234.96 1885.74,1235.52 1886.76,1236.08 1887.78,1236.65 1888.8,1237.21 1889.82,1237.77 1890.85,1238.33 1891.87,1238.89 1892.89,1239.45 1893.91,1240.01 1894.93,1240.57 1895.96,1241.14 1896.98,1241.7 1898,1242.26 1899.02,1242.82 1900.04,1243.38 1901.06,1243.94 1902.09,1244.49 1903.11,1245.05 1904.13,1245.61 1905.15,1246.17 1906.17,1246.73 1907.2,1247.29 1908.22,1247.85 1909.24,1248.41 1910.26,1248.96 1911.28,1249.52 1912.31,1250.08 1913.33,1250.64 1914.35,1251.2 1915.37,1251.75 1916.39,1252.31 1917.42,1252.87 1918.44,1253.42 1919.46,1253.98 1920.48,1254.54 1921.5,1255.09 1922.53,1255.65 1923.55,1256.21 1924.57,1256.76 1925.59,1257.32 1926.61,1257.87 1927.63,1258.43 1928.66,1258.98 1929.68,1259.54 1930.7,1260.09 1931.72,1260.65 1932.74,1261.2 1933.77,1261.76 1934.79,1262.31 1935.81,1262.86 1936.83,1263.42 1937.85,1263.97 1938.88,1264.53 1939.9,1265.08 1940.92,1265.63 1941.94,1266.18 1942.96,1266.74 1943.99,1267.29 1945.01,1267.84 1946.03,1268.4 1947.05,1268.95 1948.07,1269.5 1949.1,1270.05 1950.12,1270.6 1951.14,1271.15 1952.16,1271.71 1953.18,1272.26 1954.2,1272.81 1955.23,1273.36 1956.25,1273.91 1957.27,1274.46 1958.29,1275.01 1959.31,1275.56 1960.34,1276.11 1961.36,1276.66 1962.38,1277.21 1963.4,1277.76 1964.42,1278.31 1965.45,1278.86 1966.47,1279.41 1967.49,1279.96 1968.51,1280.5 1969.53,1281.05 1970.56,1281.6 1971.58,1282.15 1972.6,1282.7 1973.62,1283.25 1974.64,1283.79 1975.67,1284.34 1976.69,1284.89 1977.71,1285.43 1978.73,1285.98 1979.75,1286.53 1980.78,1287.08 1981.8,1287.62 1982.82,1288.17 1983.84,1288.71 1984.86,1289.26 1985.88,1289.81 1986.91,1290.35 1987.93,1290.9 1988.95,1291.44 1989.97,1291.99 1990.99,1292.53 1992.02,1293.08 1993.04,1293.62 1994.06,1294.17 1995.08,1294.71 1996.1,1295.26 1997.13,1295.8 1998.15,1296.34 1999.17,1296.89 2000.19,1297.43 2001.21,1297.97 2002.24,1298.52 2003.26,1299.06 2004.28,1299.6 2005.3,1300.15 2006.32,1300.69 2007.35,1301.23 2008.37,1301.77 2009.39,1302.32 2010.41,1302.86 2011.43,1303.4 2012.45,1303.94 2013.48,1304.48 2014.5,1305.02 2015.52,1305.56 2016.54,1306.11 2017.56,1306.65 2018.59,1307.19 2019.61,1307.73 2020.63,1308.27 2021.65,1308.81 2022.67,1309.35 2023.7,1309.89 2024.72,1310.43 2025.74,1310.97 2026.76,1311.51 2027.78,1312.05 2028.81,1312.58 2029.83,1313.12 2030.85,1313.66 2031.87,1314.2 2032.89,1314.74 2033.92,1315.28 2034.94,1315.81 2035.96,1316.35 2036.98,1316.89 2038,1317.43 2039.02,1317.96 2040.05,1318.5 2041.07,1319.04 2042.09,1319.58 2043.11,1320.11 2044.13,1320.65 2045.16,1321.18 2046.18,1321.72 2047.2,1322.26 2048.22,1322.79 2049.24,1323.33 2050.27,1323.86 2051.29,1324.4 2052.31,1324.93 2053.33,1325.47 2054.35,1326 2055.38,1326.54 2056.4,1327.07 2057.42,1327.61 2058.44,1328.14 2059.46,1328.68 2060.49,1329.21 2061.51,1329.74 2062.53,1330.28 2063.55,1330.81 2064.57,1331.34 2065.59,1331.88 2066.62,1332.41 2067.64,1332.94 2068.66,1333.48 2069.68,1334.01 2070.7,1334.54 2071.73,1335.07 2072.75,1335.6 2073.77,1336.14 2074.79,1336.67 2075.81,1337.2 2076.84,1337.73 2077.86,1338.26 2078.88,1338.79 2079.9,1339.32 2080.92,1339.85 2081.95,1340.38 2082.97,1340.91 2083.99,1341.44 2085.01,1341.97 2086.03,1342.5 2087.06,1343.03 2088.08,1343.56 2089.1,1344.09 2090.12,1344.62 2091.14,1345.15 2092.16,1345.68 2093.19,1346.21 2094.21,1346.74 2095.23,1347.26 2096.25,1347.79 2097.27,1348.32 2098.3,1348.85 2099.32,1349.38 2100.34,1349.9 2101.36,1350.43 2102.38,1350.96 2103.41,1351.49 2104.43,1352.01 2105.45,1352.54 2106.47,1353.07 2107.49,1353.59 2108.52,1354.12 2109.54,1354.64 2110.56,1355.17 2111.58,1355.7 2112.6,1356.22 2113.63,1356.75 2114.65,1357.27 2115.67,1357.8 2116.69,1358.32 2117.71,1358.85 2118.73,1359.37 2119.76,1359.9 2120.78,1360.42 2121.8,1360.94 2122.82,1361.47 2123.84,1361.99 2124.87,1362.52 2125.89,1363.04 2126.91,1363.56 2127.93,1364.09 2128.95,1364.61 2129.98,1365.13 2131,1365.65 2132.02,1366.18 2133.04,1366.7 2134.06,1367.22 2135.09,1367.74 2136.11,1368.26 2137.13,1368.79 2138.15,1369.31 2139.17,1369.83 2140.2,1370.35 2141.22,1370.87 2142.24,1371.39 2143.26,1371.91 2144.28,1372.43 2145.31,1372.95 2146.33,1373.47 2147.35,1373.99 2148.37,1374.51 2149.39,1375.03 2150.41,1375.55 2151.44,1376.07 2152.46,1376.59 2153.48,1377.11 2154.5,1377.63 2155.52,1378.15 2156.55,1378.67 2157.57,1379.19 2158.59,1379.7 2159.61,1380.22 2160.63,1380.74 2161.66,1381.26 2162.68,1381.78 2163.7,1382.29 2164.72,1382.81 2165.74,1383.33 2166.77,1383.84 2167.79,1384.36 2168.81,1384.88 2169.83,1385.39 2170.85,1385.91 2171.88,1386.43 2172.9,1386.94 2173.92,1387.46 2174.94,1387.97 2175.96,1388.49 2176.98,1389.01 2178.01,1389.52 2179.03,1390.04 2180.05,1390.55 2181.07,1391.07 2182.09,1391.58 2183.12,1392.09 2184.14,1392.61 2185.16,1393.12 2186.18,1393.64 2187.2,1394.15 2188.23,1394.66 2189.25,1395.18 2190.27,1395.69 2191.29,1396.2 2192.31,1396.72 2193.34,1397.23 2194.36,1397.74 2195.38,1398.25 2196.4,1398.77 2197.42,1399.28 2198.45,1399.79 2199.47,1400.3 2200.49,1400.81 2201.51,1401.33 2202.53,1401.84 2203.55,1402.35 2204.58,1402.86 2205.6,1403.37 2206.62,1403.88 2207.64,1404.39 2208.66,1404.9 2209.69,1405.41 2210.71,1405.92 2211.73,1406.43 2212.75,1406.94 2213.77,1407.45 2214.8,1407.96 2215.82,1408.47 2216.84,1408.98 2217.86,1409.49 2218.88,1410 2219.91,1410.51 2220.93,1411.01 2221.95,1411.52 2222.97,1412.03 2223.99,1412.54 2225.02,1413.05 2226.04,1413.55 2227.06,1414.06 2228.08,1414.57 2229.1,1415.08 2230.12,1415.58 2231.15,1416.09 2232.17,1416.6 2233.19,1417.1 2234.21,1417.61 2235.23,1418.12 2236.26,1418.62 2237.28,1419.13 2238.3,1419.63 2239.32,1420.14 2240.34,1420.65 2241.37,1421.15 2242.39,1421.66 2243.41,1422.16 2244.43,1422.67 2245.45,1423.17 2246.48,1423.68 2247.5,1424.18 2248.52,1424.68 2249.54,1425.19 2250.56,1425.69 2251.59,1426.2 2252.61,1426.7 2253.63,1427.2 2254.65,1427.71 2255.67,1428.21 2256.69,1428.71 2257.72,1429.21 2258.74,1429.72 2259.76,1430.22 2260.78,1430.72 2261.8,1431.22 2262.83,1431.73 2263.85,1432.23 2264.87,1432.73 2265.89,1433.23 2266.91,1433.73 2267.94,1434.23 2268.96,1434.73 2269.98,1435.23 2271,1435.74 2272.02,1436.24 2273.05,1436.74 2274.07,1437.24 2275.09,1437.74 2276.11,1438.24 2277.13,1438.74 2278.16,1439.24 2279.18,1439.74 2280.2,1440.23 2281.22,1440.73 2282.24,1441.23 2283.26,1441.73 2284.29,1442.23 2285.31,1442.73 2286.33,1443.23 2287.35,1443.72 2288.37,1444.22 2289.4,1444.72 2290.42,1445.22 2291.44,1445.72 "/>
<path clip-path="url(#clip800)" d="M2011.46 198.898 L2280.54 198.898 L2280.54 95.2176 L2011.46 95.2176  Z" fill="#ffffff" fill-rule="evenodd" fill-opacity="1"/>
<polyline clip-path="url(#clip800)" style="stroke:#000000; stroke-linecap:round; stroke-linejoin:round; stroke-width:4; stroke-opacity:1; fill:none" points="2011.46,198.898 2280.54,198.898 2280.54,95.2176 2011.46,95.2176 2011.46,198.898 "/>
<polyline clip-path="url(#clip800)" style="stroke:#009af9; stroke-linecap:round; stroke-linejoin:round; stroke-width:4; stroke-opacity:1; fill:none" points="2035.53,147.058 2179.97,147.058 "/>
<path clip-path="url(#clip800)" d="M2217.88 166.745 Q2216.07 171.375 2214.36 172.787 Q2212.65 174.199 2209.78 174.199 L2206.38 174.199 L2206.38 170.634 L2208.88 170.634 Q2210.63 170.634 2211.61 169.8 Q2212.58 168.967 2213.76 165.865 L2214.52 163.921 L2204.04 138.412 L2208.55 138.412 L2216.65 158.689 L2224.76 138.412 L2229.27 138.412 L2217.88 166.745 Z" fill="#000000" fill-rule="nonzero" fill-opacity="1" /><path clip-path="url(#clip800)" d="M2236.56 160.402 L2244.2 160.402 L2244.2 134.037 L2235.89 135.703 L2235.89 131.444 L2244.15 129.778 L2248.83 129.778 L2248.83 160.402 L2256.47 160.402 L2256.47 164.338 L2236.56 164.338 L2236.56 160.402 Z" fill="#000000" fill-rule="nonzero" fill-opacity="1" /></svg>
