<?xml version="1.0" encoding="utf-8"?>
<svg xmlns="http://www.w3.org/2000/svg" xmlns:xlink="http://www.w3.org/1999/xlink" width="600" height="400" viewBox="0 0 2400 1600">
<defs>
  <clipPath id="clip430">
    <rect x="0" y="0" width="2400" height="1600"/>
  </clipPath>
</defs>
<path clip-path="url(#clip430)" d="M0 1600 L2400 1600 L2400 0 L0 0  Z" fill="#ffffff" fill-rule="evenodd" fill-opacity="1"/>
<defs>
  <clipPath id="clip431">
    <rect x="480" y="0" width="1681" height="1600"/>
  </clipPath>
</defs>
<path clip-path="url(#clip430)" d="M156.598 1486.45 L2352.76 1486.45 L2352.76 47.2441 L156.598 47.2441  Z" fill="#ffffff" fill-rule="evenodd" fill-opacity="1"/>
<defs>
  <clipPath id="clip432">
    <rect x="156" y="47" width="2197" height="1440"/>
  </clipPath>
</defs>
<polyline clip-path="url(#clip432)" style="stroke:#000000; stroke-linecap:round; stroke-linejoin:round; stroke-width:2; stroke-opacity:0.1; fill:none" points="218.754,1486.45 218.754,47.2441 "/>
<polyline clip-path="url(#clip432)" style="stroke:#000000; stroke-linecap:round; stroke-linejoin:round; stroke-width:2; stroke-opacity:0.1; fill:none" points="737.234,1486.45 737.234,47.2441 "/>
<polyline clip-path="url(#clip432)" style="stroke:#000000; stroke-linecap:round; stroke-linejoin:round; stroke-width:2; stroke-opacity:0.1; fill:none" points="1255.71,1486.45 1255.71,47.2441 "/>
<polyline clip-path="url(#clip432)" style="stroke:#000000; stroke-linecap:round; stroke-linejoin:round; stroke-width:2; stroke-opacity:0.1; fill:none" points="1774.19,1486.45 1774.19,47.2441 "/>
<polyline clip-path="url(#clip432)" style="stroke:#000000; stroke-linecap:round; stroke-linejoin:round; stroke-width:2; stroke-opacity:0.1; fill:none" points="2292.67,1486.45 2292.67,47.2441 "/>
<polyline clip-path="url(#clip430)" style="stroke:#000000; stroke-linecap:round; stroke-linejoin:round; stroke-width:4; stroke-opacity:1; fill:none" points="156.598,1486.45 2352.76,1486.45 "/>
<polyline clip-path="url(#clip430)" style="stroke:#000000; stroke-linecap:round; stroke-linejoin:round; stroke-width:4; stroke-opacity:1; fill:none" points="218.754,1486.45 218.754,1467.55 "/>
<polyline clip-path="url(#clip430)" style="stroke:#000000; stroke-linecap:round; stroke-linejoin:round; stroke-width:4; stroke-opacity:1; fill:none" points="737.234,1486.45 737.234,1467.55 "/>
<polyline clip-path="url(#clip430)" style="stroke:#000000; stroke-linecap:round; stroke-linejoin:round; stroke-width:4; stroke-opacity:1; fill:none" points="1255.71,1486.45 1255.71,1467.55 "/>
<polyline clip-path="url(#clip430)" style="stroke:#000000; stroke-linecap:round; stroke-linejoin:round; stroke-width:4; stroke-opacity:1; fill:none" points="1774.19,1486.45 1774.19,1467.55 "/>
<polyline clip-path="url(#clip430)" style="stroke:#000000; stroke-linecap:round; stroke-linejoin:round; stroke-width:4; stroke-opacity:1; fill:none" points="2292.67,1486.45 2292.67,1467.55 "/>
<path clip-path="url(#clip430)" d="M218.754 1517.37 Q215.143 1517.37 213.314 1520.93 Q211.508 1524.47 211.508 1531.6 Q211.508 1538.71 213.314 1542.27 Q215.143 1545.82 218.754 1545.82 Q222.388 1545.82 224.193 1542.27 Q226.022 1538.71 226.022 1531.6 Q226.022 1524.47 224.193 1520.93 Q222.388 1517.37 218.754 1517.37 M218.754 1513.66 Q224.564 1513.66 227.619 1518.27 Q230.698 1522.85 230.698 1531.6 Q230.698 1540.33 227.619 1544.94 Q224.564 1549.52 218.754 1549.52 Q212.943 1549.52 209.865 1544.94 Q206.809 1540.33 206.809 1531.6 Q206.809 1522.85 209.865 1518.27 Q212.943 1513.66 218.754 1513.66 Z" fill="#000000" fill-rule="nonzero" fill-opacity="1" /><path clip-path="url(#clip430)" d="M700.926 1544.91 L717.246 1544.91 L717.246 1548.85 L695.301 1548.85 L695.301 1544.91 Q697.963 1542.16 702.547 1537.53 Q707.153 1532.88 708.334 1531.53 Q710.579 1529.01 711.459 1527.27 Q712.361 1525.51 712.361 1523.82 Q712.361 1521.07 710.417 1519.33 Q708.496 1517.6 705.394 1517.6 Q703.195 1517.6 700.741 1518.36 Q698.31 1519.13 695.533 1520.68 L695.533 1515.95 Q698.357 1514.82 700.81 1514.24 Q703.264 1513.66 705.301 1513.66 Q710.671 1513.66 713.866 1516.35 Q717.06 1519.03 717.06 1523.52 Q717.06 1525.65 716.25 1527.57 Q715.463 1529.47 713.357 1532.07 Q712.778 1532.74 709.676 1535.95 Q706.574 1539.15 700.926 1544.91 Z" fill="#000000" fill-rule="nonzero" fill-opacity="1" /><path clip-path="url(#clip430)" d="M727.107 1514.29 L745.463 1514.29 L745.463 1518.22 L731.389 1518.22 L731.389 1526.7 Q732.407 1526.35 733.426 1526.19 Q734.444 1526 735.463 1526 Q741.25 1526 744.63 1529.17 Q748.009 1532.34 748.009 1537.76 Q748.009 1543.34 744.537 1546.44 Q741.065 1549.52 734.745 1549.52 Q732.57 1549.52 730.301 1549.15 Q728.056 1548.78 725.648 1548.04 L725.648 1543.34 Q727.732 1544.47 729.954 1545.03 Q732.176 1545.58 734.653 1545.58 Q738.657 1545.58 740.995 1543.48 Q743.333 1541.37 743.333 1537.76 Q743.333 1534.15 740.995 1532.04 Q738.657 1529.94 734.653 1529.94 Q732.778 1529.94 730.903 1530.35 Q729.051 1530.77 727.107 1531.65 L727.107 1514.29 Z" fill="#000000" fill-rule="nonzero" fill-opacity="1" /><path clip-path="url(#clip430)" d="M767.222 1517.37 Q763.611 1517.37 761.782 1520.93 Q759.977 1524.47 759.977 1531.6 Q759.977 1538.71 761.782 1542.27 Q763.611 1545.82 767.222 1545.82 Q770.856 1545.82 772.662 1542.27 Q774.491 1538.71 774.491 1531.6 Q774.491 1524.47 772.662 1520.93 Q770.856 1517.37 767.222 1517.37 M767.222 1513.66 Q773.032 1513.66 776.088 1518.27 Q779.166 1522.85 779.166 1531.6 Q779.166 1540.33 776.088 1544.94 Q773.032 1549.52 767.222 1549.52 Q761.412 1549.52 758.333 1544.94 Q755.278 1540.33 755.278 1531.6 Q755.278 1522.85 758.333 1518.27 Q761.412 1513.66 767.222 1513.66 Z" fill="#000000" fill-rule="nonzero" fill-opacity="1" /><path clip-path="url(#clip430)" d="M1215.33 1514.29 L1233.69 1514.29 L1233.69 1518.22 L1219.61 1518.22 L1219.61 1526.7 Q1220.63 1526.35 1221.65 1526.19 Q1222.67 1526 1223.69 1526 Q1229.48 1526 1232.86 1529.17 Q1236.23 1532.34 1236.23 1537.76 Q1236.23 1543.34 1232.76 1546.44 Q1229.29 1549.52 1222.97 1549.52 Q1220.8 1549.52 1218.53 1549.15 Q1216.28 1548.78 1213.87 1548.04 L1213.87 1543.34 Q1215.96 1544.47 1218.18 1545.03 Q1220.4 1545.58 1222.88 1545.58 Q1226.88 1545.58 1229.22 1543.48 Q1231.56 1541.37 1231.56 1537.76 Q1231.56 1534.15 1229.22 1532.04 Q1226.88 1529.94 1222.88 1529.94 Q1221 1529.94 1219.13 1530.35 Q1217.28 1530.77 1215.33 1531.65 L1215.33 1514.29 Z" fill="#000000" fill-rule="nonzero" fill-opacity="1" /><path clip-path="url(#clip430)" d="M1255.45 1517.37 Q1251.84 1517.37 1250.01 1520.93 Q1248.2 1524.47 1248.2 1531.6 Q1248.2 1538.71 1250.01 1542.27 Q1251.84 1545.82 1255.45 1545.82 Q1259.08 1545.82 1260.89 1542.27 Q1262.72 1538.71 1262.72 1531.6 Q1262.72 1524.47 1260.89 1520.93 Q1259.08 1517.37 1255.45 1517.37 M1255.45 1513.66 Q1261.26 1513.66 1264.31 1518.27 Q1267.39 1522.85 1267.39 1531.6 Q1267.39 1540.33 1264.31 1544.94 Q1261.26 1549.52 1255.45 1549.52 Q1249.64 1549.52 1246.56 1544.94 Q1243.5 1540.33 1243.5 1531.6 Q1243.5 1522.85 1246.56 1518.27 Q1249.64 1513.66 1255.45 1513.66 Z" fill="#000000" fill-rule="nonzero" fill-opacity="1" /><path clip-path="url(#clip430)" d="M1285.61 1517.37 Q1282 1517.37 1280.17 1520.93 Q1278.36 1524.47 1278.36 1531.6 Q1278.36 1538.71 1280.17 1542.27 Q1282 1545.82 1285.61 1545.82 Q1289.24 1545.82 1291.05 1542.27 Q1292.88 1538.71 1292.88 1531.6 Q1292.88 1524.47 1291.05 1520.93 Q1289.24 1517.37 1285.61 1517.37 M1285.61 1513.66 Q1291.42 1513.66 1294.48 1518.27 Q1297.55 1522.85 1297.55 1531.6 Q1297.55 1540.33 1294.48 1544.94 Q1291.42 1549.52 1285.61 1549.52 Q1279.8 1549.52 1276.72 1544.94 Q1273.67 1540.33 1273.67 1531.6 Q1273.67 1522.85 1276.72 1518.27 Q1279.8 1513.66 1285.61 1513.66 Z" fill="#000000" fill-rule="nonzero" fill-opacity="1" /><path clip-path="url(#clip430)" d="M1732.47 1514.29 L1754.69 1514.29 L1754.69 1516.28 L1742.15 1548.85 L1737.26 1548.85 L1749.07 1518.22 L1732.47 1518.22 L1732.47 1514.29 Z" fill="#000000" fill-rule="nonzero" fill-opacity="1" /><path clip-path="url(#clip430)" d="M1763.86 1514.29 L1782.22 1514.29 L1782.22 1518.22 L1768.14 1518.22 L1768.14 1526.7 Q1769.16 1526.35 1770.18 1526.19 Q1771.2 1526 1772.22 1526 Q1778 1526 1781.38 1529.17 Q1784.76 1532.34 1784.76 1537.76 Q1784.76 1543.34 1781.29 1546.44 Q1777.82 1549.52 1771.5 1549.52 Q1769.32 1549.52 1767.05 1549.15 Q1764.81 1548.78 1762.4 1548.04 L1762.4 1543.34 Q1764.48 1544.47 1766.71 1545.03 Q1768.93 1545.58 1771.4 1545.58 Q1775.41 1545.58 1777.75 1543.48 Q1780.09 1541.37 1780.09 1537.76 Q1780.09 1534.15 1777.75 1532.04 Q1775.41 1529.94 1771.4 1529.94 Q1769.53 1529.94 1767.65 1530.35 Q1765.8 1530.77 1763.86 1531.65 L1763.86 1514.29 Z" fill="#000000" fill-rule="nonzero" fill-opacity="1" /><path clip-path="url(#clip430)" d="M1803.97 1517.37 Q1800.36 1517.37 1798.53 1520.93 Q1796.73 1524.47 1796.73 1531.6 Q1796.73 1538.71 1798.53 1542.27 Q1800.36 1545.82 1803.97 1545.82 Q1807.61 1545.82 1809.41 1542.27 Q1811.24 1538.71 1811.24 1531.6 Q1811.24 1524.47 1809.41 1520.93 Q1807.61 1517.37 1803.97 1517.37 M1803.97 1513.66 Q1809.78 1513.66 1812.84 1518.27 Q1815.92 1522.85 1815.92 1531.6 Q1815.92 1540.33 1812.84 1544.94 Q1809.78 1549.52 1803.97 1549.52 Q1798.16 1549.52 1795.09 1544.94 Q1792.03 1540.33 1792.03 1531.6 Q1792.03 1522.85 1795.09 1518.27 Q1798.16 1513.66 1803.97 1513.66 Z" fill="#000000" fill-rule="nonzero" fill-opacity="1" /><path clip-path="url(#clip430)" d="M2237.2 1544.91 L2244.84 1544.91 L2244.84 1518.55 L2236.53 1520.21 L2236.53 1515.95 L2244.79 1514.29 L2249.47 1514.29 L2249.47 1544.91 L2257.11 1544.91 L2257.11 1548.85 L2237.2 1548.85 L2237.2 1544.91 Z" fill="#000000" fill-rule="nonzero" fill-opacity="1" /><path clip-path="url(#clip430)" d="M2276.55 1517.37 Q2272.94 1517.37 2271.11 1520.93 Q2269.31 1524.47 2269.31 1531.6 Q2269.31 1538.71 2271.11 1542.27 Q2272.94 1545.82 2276.55 1545.82 Q2280.19 1545.82 2281.99 1542.27 Q2283.82 1538.71 2283.82 1531.6 Q2283.82 1524.47 2281.99 1520.93 Q2280.19 1517.37 2276.55 1517.37 M2276.55 1513.66 Q2282.36 1513.66 2285.42 1518.27 Q2288.5 1522.85 2288.5 1531.6 Q2288.5 1540.33 2285.42 1544.94 Q2282.36 1549.52 2276.55 1549.52 Q2270.74 1549.52 2267.66 1544.94 Q2264.61 1540.33 2264.61 1531.6 Q2264.61 1522.85 2267.66 1518.27 Q2270.74 1513.66 2276.55 1513.66 Z" fill="#000000" fill-rule="nonzero" fill-opacity="1" /><path clip-path="url(#clip430)" d="M2306.71 1517.37 Q2303.1 1517.37 2301.27 1520.93 Q2299.47 1524.47 2299.47 1531.6 Q2299.47 1538.71 2301.27 1542.27 Q2303.1 1545.82 2306.71 1545.82 Q2310.35 1545.82 2312.15 1542.27 Q2313.98 1538.71 2313.98 1531.6 Q2313.98 1524.47 2312.15 1520.93 Q2310.35 1517.37 2306.71 1517.37 M2306.71 1513.66 Q2312.52 1513.66 2315.58 1518.27 Q2318.66 1522.85 2318.66 1531.6 Q2318.66 1540.33 2315.58 1544.94 Q2312.52 1549.52 2306.71 1549.52 Q2300.9 1549.52 2297.82 1544.94 Q2294.77 1540.33 2294.77 1531.6 Q2294.77 1522.85 2297.82 1518.27 Q2300.9 1513.66 2306.71 1513.66 Z" fill="#000000" fill-rule="nonzero" fill-opacity="1" /><path clip-path="url(#clip430)" d="M2336.88 1517.37 Q2333.26 1517.37 2331.44 1520.93 Q2329.63 1524.47 2329.63 1531.6 Q2329.63 1538.71 2331.44 1542.27 Q2333.26 1545.82 2336.88 1545.82 Q2340.51 1545.82 2342.32 1542.27 Q2344.14 1538.71 2344.14 1531.6 Q2344.14 1524.47 2342.32 1520.93 Q2340.51 1517.37 2336.88 1517.37 M2336.88 1513.66 Q2342.69 1513.66 2345.74 1518.27 Q2348.82 1522.85 2348.82 1531.6 Q2348.82 1540.33 2345.74 1544.94 Q2342.69 1549.52 2336.88 1549.52 Q2331.07 1549.52 2327.99 1544.94 Q2324.93 1540.33 2324.93 1531.6 Q2324.93 1522.85 2327.99 1518.27 Q2331.07 1513.66 2336.88 1513.66 Z" fill="#000000" fill-rule="nonzero" fill-opacity="1" /><polyline clip-path="url(#clip432)" style="stroke:#000000; stroke-linecap:round; stroke-linejoin:round; stroke-width:2; stroke-opacity:0.1; fill:none" points="156.598,1401.92 2352.76,1401.92 "/>
<polyline clip-path="url(#clip432)" style="stroke:#000000; stroke-linecap:round; stroke-linejoin:round; stroke-width:2; stroke-opacity:0.1; fill:none" points="156.598,1182.93 2352.76,1182.93 "/>
<polyline clip-path="url(#clip432)" style="stroke:#000000; stroke-linecap:round; stroke-linejoin:round; stroke-width:2; stroke-opacity:0.1; fill:none" points="156.598,963.937 2352.76,963.937 "/>
<polyline clip-path="url(#clip432)" style="stroke:#000000; stroke-linecap:round; stroke-linejoin:round; stroke-width:2; stroke-opacity:0.1; fill:none" points="156.598,744.947 2352.76,744.947 "/>
<polyline clip-path="url(#clip432)" style="stroke:#000000; stroke-linecap:round; stroke-linejoin:round; stroke-width:2; stroke-opacity:0.1; fill:none" points="156.598,525.957 2352.76,525.957 "/>
<polyline clip-path="url(#clip432)" style="stroke:#000000; stroke-linecap:round; stroke-linejoin:round; stroke-width:2; stroke-opacity:0.1; fill:none" points="156.598,306.967 2352.76,306.967 "/>
<polyline clip-path="url(#clip432)" style="stroke:#000000; stroke-linecap:round; stroke-linejoin:round; stroke-width:2; stroke-opacity:0.1; fill:none" points="156.598,87.9763 2352.76,87.9763 "/>
<polyline clip-path="url(#clip430)" style="stroke:#000000; stroke-linecap:round; stroke-linejoin:round; stroke-width:4; stroke-opacity:1; fill:none" points="156.598,1486.45 156.598,47.2441 "/>
<polyline clip-path="url(#clip430)" style="stroke:#000000; stroke-linecap:round; stroke-linejoin:round; stroke-width:4; stroke-opacity:1; fill:none" points="156.598,1401.92 175.496,1401.92 "/>
<polyline clip-path="url(#clip430)" style="stroke:#000000; stroke-linecap:round; stroke-linejoin:round; stroke-width:4; stroke-opacity:1; fill:none" points="156.598,1182.93 175.496,1182.93 "/>
<polyline clip-path="url(#clip430)" style="stroke:#000000; stroke-linecap:round; stroke-linejoin:round; stroke-width:4; stroke-opacity:1; fill:none" points="156.598,963.937 175.496,963.937 "/>
<polyline clip-path="url(#clip430)" style="stroke:#000000; stroke-linecap:round; stroke-linejoin:round; stroke-width:4; stroke-opacity:1; fill:none" points="156.598,744.947 175.496,744.947 "/>
<polyline clip-path="url(#clip430)" style="stroke:#000000; stroke-linecap:round; stroke-linejoin:round; stroke-width:4; stroke-opacity:1; fill:none" points="156.598,525.957 175.496,525.957 "/>
<polyline clip-path="url(#clip430)" style="stroke:#000000; stroke-linecap:round; stroke-linejoin:round; stroke-width:4; stroke-opacity:1; fill:none" points="156.598,306.967 175.496,306.967 "/>
<polyline clip-path="url(#clip430)" style="stroke:#000000; stroke-linecap:round; stroke-linejoin:round; stroke-width:4; stroke-opacity:1; fill:none" points="156.598,87.9763 175.496,87.9763 "/>
<path clip-path="url(#clip430)" d="M62.9365 1387.72 Q59.3254 1387.72 57.4967 1391.28 Q55.6912 1394.82 55.6912 1401.95 Q55.6912 1409.06 57.4967 1412.62 Q59.3254 1416.17 62.9365 1416.17 Q66.5707 1416.17 68.3763 1412.62 Q70.205 1409.06 70.205 1401.95 Q70.205 1394.82 68.3763 1391.28 Q66.5707 1387.72 62.9365 1387.72 M62.9365 1384.01 Q68.7467 1384.01 71.8022 1388.62 Q74.8809 1393.2 74.8809 1401.95 Q74.8809 1410.68 71.8022 1415.29 Q68.7467 1419.87 62.9365 1419.87 Q57.1264 1419.87 54.0477 1415.29 Q50.9921 1410.68 50.9921 1401.95 Q50.9921 1393.2 54.0477 1388.62 Q57.1264 1384.01 62.9365 1384.01 Z" fill="#000000" fill-rule="nonzero" fill-opacity="1" /><path clip-path="url(#clip430)" d="M83.0984 1413.32 L87.9827 1413.32 L87.9827 1419.2 L83.0984 1419.2 L83.0984 1413.32 Z" fill="#000000" fill-rule="nonzero" fill-opacity="1" /><path clip-path="url(#clip430)" d="M111.015 1388.71 L99.2095 1407.16 L111.015 1407.16 L111.015 1388.71 M109.788 1384.64 L115.668 1384.64 L115.668 1407.16 L120.598 1407.16 L120.598 1411.05 L115.668 1411.05 L115.668 1419.2 L111.015 1419.2 L111.015 1411.05 L95.4132 1411.05 L95.4132 1406.54 L109.788 1384.64 Z" fill="#000000" fill-rule="nonzero" fill-opacity="1" /><path clip-path="url(#clip430)" d="M64.418 1168.73 Q60.8069 1168.73 58.9782 1172.29 Q57.1726 1175.83 57.1726 1182.96 Q57.1726 1190.07 58.9782 1193.63 Q60.8069 1197.18 64.418 1197.18 Q68.0522 1197.18 69.8578 1193.63 Q71.6865 1190.07 71.6865 1182.96 Q71.6865 1175.83 69.8578 1172.29 Q68.0522 1168.73 64.418 1168.73 M64.418 1165.02 Q70.2281 1165.02 73.2837 1169.63 Q76.3624 1174.21 76.3624 1182.96 Q76.3624 1191.69 73.2837 1196.3 Q70.2281 1200.88 64.418 1200.88 Q58.6078 1200.88 55.5291 1196.3 Q52.4736 1191.69 52.4736 1182.96 Q52.4736 1174.21 55.5291 1169.63 Q58.6078 1165.02 64.418 1165.02 Z" fill="#000000" fill-rule="nonzero" fill-opacity="1" /><path clip-path="url(#clip430)" d="M84.5799 1194.33 L89.4641 1194.33 L89.4641 1200.21 L84.5799 1200.21 L84.5799 1194.33 Z" fill="#000000" fill-rule="nonzero" fill-opacity="1" /><path clip-path="url(#clip430)" d="M99.6956 1165.65 L118.052 1165.65 L118.052 1169.58 L103.978 1169.58 L103.978 1178.05 Q104.996 1177.71 106.015 1177.55 Q107.033 1177.36 108.052 1177.36 Q113.839 1177.36 117.219 1180.53 Q120.598 1183.7 120.598 1189.12 Q120.598 1194.7 117.126 1197.8 Q113.654 1200.88 107.334 1200.88 Q105.159 1200.88 102.89 1200.51 Q100.645 1200.14 98.2372 1199.4 L98.2372 1194.7 Q100.321 1195.83 102.543 1196.39 Q104.765 1196.94 107.242 1196.94 Q111.246 1196.94 113.584 1194.84 Q115.922 1192.73 115.922 1189.12 Q115.922 1185.51 113.584 1183.4 Q111.246 1181.3 107.242 1181.3 Q105.367 1181.3 103.492 1181.71 Q101.64 1182.13 99.6956 1183.01 L99.6956 1165.65 Z" fill="#000000" fill-rule="nonzero" fill-opacity="1" /><path clip-path="url(#clip430)" d="M63.2606 949.736 Q59.6495 949.736 57.8208 953.301 Q56.0152 956.842 56.0152 963.972 Q56.0152 971.078 57.8208 974.643 Q59.6495 978.185 63.2606 978.185 Q66.8948 978.185 68.7004 974.643 Q70.5291 971.078 70.5291 963.972 Q70.5291 956.842 68.7004 953.301 Q66.8948 949.736 63.2606 949.736 M63.2606 946.032 Q69.0707 946.032 72.1263 950.639 Q75.205 955.222 75.205 963.972 Q75.205 972.699 72.1263 977.305 Q69.0707 981.888 63.2606 981.888 Q57.4504 981.888 54.3717 977.305 Q51.3162 972.699 51.3162 963.972 Q51.3162 955.222 54.3717 950.639 Q57.4504 946.032 63.2606 946.032 Z" fill="#000000" fill-rule="nonzero" fill-opacity="1" /><path clip-path="url(#clip430)" d="M83.4225 975.338 L88.3067 975.338 L88.3067 981.217 L83.4225 981.217 L83.4225 975.338 Z" fill="#000000" fill-rule="nonzero" fill-opacity="1" /><path clip-path="url(#clip430)" d="M109.071 962.074 Q105.922 962.074 104.071 964.227 Q102.242 966.379 102.242 970.129 Q102.242 973.856 104.071 976.032 Q105.922 978.185 109.071 978.185 Q112.219 978.185 114.047 976.032 Q115.899 973.856 115.899 970.129 Q115.899 966.379 114.047 964.227 Q112.219 962.074 109.071 962.074 M118.353 947.421 L118.353 951.68 Q116.594 950.847 114.788 950.407 Q113.006 949.967 111.246 949.967 Q106.617 949.967 104.163 953.092 Q101.733 956.217 101.385 962.537 Q102.751 960.523 104.811 959.458 Q106.871 958.37 109.348 958.37 Q114.557 958.37 117.566 961.541 Q120.598 964.69 120.598 970.129 Q120.598 975.453 117.45 978.671 Q114.302 981.888 109.071 981.888 Q103.075 981.888 99.9039 977.305 Q96.7326 972.699 96.7326 963.972 Q96.7326 955.778 100.621 950.916 Q104.51 946.032 111.061 946.032 Q112.82 946.032 114.603 946.379 Q116.408 946.727 118.353 947.421 Z" fill="#000000" fill-rule="nonzero" fill-opacity="1" /><path clip-path="url(#clip430)" d="M64.3254 730.746 Q60.7143 730.746 58.8856 734.31 Q57.0801 737.852 57.0801 744.982 Q57.0801 752.088 58.8856 755.653 Q60.7143 759.195 64.3254 759.195 Q67.9596 759.195 69.7652 755.653 Q71.5939 752.088 71.5939 744.982 Q71.5939 737.852 69.7652 734.31 Q67.9596 730.746 64.3254 730.746 M64.3254 727.042 Q70.1355 727.042 73.1911 731.648 Q76.2698 736.232 76.2698 744.982 Q76.2698 753.708 73.1911 758.315 Q70.1355 762.898 64.3254 762.898 Q58.5152 762.898 55.4365 758.315 Q52.381 753.708 52.381 744.982 Q52.381 736.232 55.4365 731.648 Q58.5152 727.042 64.3254 727.042 Z" fill="#000000" fill-rule="nonzero" fill-opacity="1" /><path clip-path="url(#clip430)" d="M84.4873 756.347 L89.3715 756.347 L89.3715 762.227 L84.4873 762.227 L84.4873 756.347 Z" fill="#000000" fill-rule="nonzero" fill-opacity="1" /><path clip-path="url(#clip430)" d="M98.3761 727.667 L120.598 727.667 L120.598 729.658 L108.052 762.227 L103.168 762.227 L114.973 731.602 L98.3761 731.602 L98.3761 727.667 Z" fill="#000000" fill-rule="nonzero" fill-opacity="1" /><path clip-path="url(#clip430)" d="M63.5152 511.755 Q59.9041 511.755 58.0754 515.32 Q56.2699 518.862 56.2699 525.991 Q56.2699 533.098 58.0754 536.663 Q59.9041 540.204 63.5152 540.204 Q67.1494 540.204 68.955 536.663 Q70.7837 533.098 70.7837 525.991 Q70.7837 518.862 68.955 515.32 Q67.1494 511.755 63.5152 511.755 M63.5152 508.052 Q69.3254 508.052 72.3809 512.658 Q75.4596 517.242 75.4596 525.991 Q75.4596 534.718 72.3809 539.325 Q69.3254 543.908 63.5152 543.908 Q57.7051 543.908 54.6264 539.325 Q51.5708 534.718 51.5708 525.991 Q51.5708 517.242 54.6264 512.658 Q57.7051 508.052 63.5152 508.052 Z" fill="#000000" fill-rule="nonzero" fill-opacity="1" /><path clip-path="url(#clip430)" d="M83.6771 537.357 L88.5614 537.357 L88.5614 543.237 L83.6771 543.237 L83.6771 537.357 Z" fill="#000000" fill-rule="nonzero" fill-opacity="1" /><path clip-path="url(#clip430)" d="M108.746 526.825 Q105.413 526.825 103.492 528.607 Q101.594 530.39 101.594 533.515 Q101.594 536.64 103.492 538.422 Q105.413 540.204 108.746 540.204 Q112.08 540.204 114.001 538.422 Q115.922 536.616 115.922 533.515 Q115.922 530.39 114.001 528.607 Q112.103 526.825 108.746 526.825 M104.071 524.834 Q101.061 524.093 99.3715 522.033 Q97.7048 519.973 97.7048 517.01 Q97.7048 512.867 100.645 510.459 Q103.608 508.052 108.746 508.052 Q113.908 508.052 116.848 510.459 Q119.788 512.867 119.788 517.01 Q119.788 519.973 118.098 522.033 Q116.432 524.093 113.445 524.834 Q116.825 525.621 118.7 527.913 Q120.598 530.204 120.598 533.515 Q120.598 538.538 117.52 541.223 Q114.464 543.908 108.746 543.908 Q103.029 543.908 99.9502 541.223 Q96.8947 538.538 96.8947 533.515 Q96.8947 530.204 98.7928 527.913 Q100.691 525.621 104.071 524.834 M102.358 517.45 Q102.358 520.135 104.024 521.64 Q105.714 523.144 108.746 523.144 Q111.756 523.144 113.445 521.64 Q115.158 520.135 115.158 517.45 Q115.158 514.765 113.445 513.26 Q111.756 511.755 108.746 511.755 Q105.714 511.755 104.024 513.26 Q102.358 514.765 102.358 517.45 Z" fill="#000000" fill-rule="nonzero" fill-opacity="1" /><path clip-path="url(#clip430)" d="M63.6078 292.765 Q59.9967 292.765 58.168 296.33 Q56.3625 299.872 56.3625 307.001 Q56.3625 314.108 58.168 317.672 Q59.9967 321.214 63.6078 321.214 Q67.242 321.214 69.0476 317.672 Q70.8763 314.108 70.8763 307.001 Q70.8763 299.872 69.0476 296.33 Q67.242 292.765 63.6078 292.765 M63.6078 289.062 Q69.418 289.062 72.4735 293.668 Q75.5522 298.251 75.5522 307.001 Q75.5522 315.728 72.4735 320.334 Q69.418 324.918 63.6078 324.918 Q57.7976 324.918 54.719 320.334 Q51.6634 315.728 51.6634 307.001 Q51.6634 298.251 54.719 293.668 Q57.7976 289.062 63.6078 289.062 Z" fill="#000000" fill-rule="nonzero" fill-opacity="1" /><path clip-path="url(#clip430)" d="M83.7697 318.367 L88.654 318.367 L88.654 324.247 L83.7697 324.247 L83.7697 318.367 Z" fill="#000000" fill-rule="nonzero" fill-opacity="1" /><path clip-path="url(#clip430)" d="M98.978 323.529 L98.978 319.27 Q100.737 320.103 102.543 320.543 Q104.348 320.983 106.084 320.983 Q110.714 320.983 113.145 317.881 Q115.598 314.756 115.945 308.413 Q114.603 310.404 112.543 311.469 Q110.483 312.534 107.983 312.534 Q102.797 312.534 99.765 309.409 Q96.7558 306.26 96.7558 300.821 Q96.7558 295.497 99.9039 292.279 Q103.052 289.062 108.283 289.062 Q114.279 289.062 117.427 293.668 Q120.598 298.251 120.598 307.001 Q120.598 315.172 116.709 320.057 Q112.844 324.918 106.293 324.918 Q104.534 324.918 102.728 324.571 Q100.922 324.223 98.978 323.529 M108.283 308.876 Q111.432 308.876 113.26 306.723 Q115.112 304.571 115.112 300.821 Q115.112 297.094 113.26 294.941 Q111.432 292.765 108.283 292.765 Q105.135 292.765 103.284 294.941 Q101.455 297.094 101.455 300.821 Q101.455 304.571 103.284 306.723 Q105.135 308.876 108.283 308.876 Z" fill="#000000" fill-rule="nonzero" fill-opacity="1" /><path clip-path="url(#clip430)" d="M54.2328 101.321 L61.8717 101.321 L61.8717 74.9555 L53.5616 76.6222 L53.5616 72.3629 L61.8254 70.6963 L66.5013 70.6963 L66.5013 101.321 L74.1402 101.321 L74.1402 105.256 L54.2328 105.256 L54.2328 101.321 Z" fill="#000000" fill-rule="nonzero" fill-opacity="1" /><path clip-path="url(#clip430)" d="M83.5845 99.3767 L88.4688 99.3767 L88.4688 105.256 L83.5845 105.256 L83.5845 99.3767 Z" fill="#000000" fill-rule="nonzero" fill-opacity="1" /><path clip-path="url(#clip430)" d="M108.654 73.775 Q105.043 73.775 103.214 77.3398 Q101.409 80.8814 101.409 88.011 Q101.409 95.1174 103.214 98.6822 Q105.043 102.224 108.654 102.224 Q112.288 102.224 114.094 98.6822 Q115.922 95.1174 115.922 88.011 Q115.922 80.8814 114.094 77.3398 Q112.288 73.775 108.654 73.775 M108.654 70.0713 Q114.464 70.0713 117.52 74.6777 Q120.598 79.261 120.598 88.011 Q120.598 96.7378 117.52 101.344 Q114.464 105.928 108.654 105.928 Q102.844 105.928 99.765 101.344 Q96.7095 96.7378 96.7095 88.011 Q96.7095 79.261 99.765 74.6777 Q102.844 70.0713 108.654 70.0713 Z" fill="#000000" fill-rule="nonzero" fill-opacity="1" /><polyline clip-path="url(#clip432)" style="stroke:#009af9; stroke-linecap:round; stroke-linejoin:round; stroke-width:4; stroke-opacity:1; fill:none" points="218.754,1412.87 220.828,1445.72 222.901,1423.82 224.975,1314.32 227.049,1412.87 229.123,1423.82 231.197,1401.92 233.271,1314.32 235.345,1281.47 237.419,1237.67 239.493,1128.18 241.567,1117.23 243.641,1029.63 245.715,1182.93 247.789,1073.43 249.862,1193.88 251.936,1018.68 254.01,1270.52 256.084,1095.33 258.158,898.24 260.232,854.442 262.306,799.695 264.38,887.291 266.454,985.836 268.528,876.341 270.602,832.543 272.676,810.644 274.75,843.493 276.823,679.25 278.897,755.896 280.971,712.098 283.045,843.493 285.119,657.351 287.193,755.896 289.267,657.351 291.341,766.846 293.415,635.452 295.489,602.603 297.563,755.896 299.637,799.695 301.71,602.603 303.784,624.502 305.858,668.3 307.932,591.654 310.006,690.199 312.08,580.704 314.154,547.856 316.228,712.098 318.302,504.058 320.376,515.007 322.45,449.31 324.524,482.159 326.598,449.31 328.671,624.502 330.745,416.462 332.819,558.805 334.893,558.805 336.967,449.31 339.041,416.462 341.115,471.209 343.189,427.411 345.263,427.411 347.337,427.411 349.411,394.563 351.485,438.361 353.558,416.462 355.632,405.512 357.706,427.411 359.78,558.805 361.854,438.361 363.928,361.714 366.002,383.613 368.076,449.31 370.15,449.31 372.224,504.058 374.298,394.563 376.372,460.26 378.446,416.462 380.519,394.563 382.593,317.916 384.667,296.017 386.741,339.815 388.815,372.664 390.889,361.714 392.963,317.916 395.037,317.916 397.111,350.765 399.185,317.916 401.259,274.118 403.333,230.32 405.407,317.916 407.48,230.32 409.554,383.613 411.628,285.067 413.702,296.017 415.776,252.219 417.85,263.168 419.924,317.916 421.998,274.118 424.072,285.067 426.146,252.219 428.22,274.118 430.294,317.916 432.367,197.471 434.441,241.269 436.515,241.269 438.589,252.219 440.663,274.118 442.737,263.168 444.811,208.421 446.885,208.421 448.959,230.32 451.033,405.512 453.107,339.815 455.181,186.522 457.255,241.269 459.328,175.572 461.402,186.522 463.476,241.269 465.55,274.118 467.624,131.774 469.698,186.522 471.772,241.269 473.846,219.37 475.92,241.269 477.994,186.522 480.068,285.067 482.142,241.269 484.216,186.522 486.289,274.118 488.363,208.421 490.437,131.774 492.511,175.572 494.585,186.522 496.659,142.724 498.733,230.32 500.807,219.37 502.881,197.471 504.955,164.623 507.029,186.522 509.103,208.421 511.176,230.32 513.25,186.522 515.324,142.724 517.398,175.572 519.472,175.572 521.546,164.623 523.62,164.623 525.694,153.673 527.768,175.572 529.842,175.572 531.916,186.522 533.99,175.572 536.064,120.825 538.137,175.572 540.211,120.825 542.285,142.724 544.359,164.623 546.433,164.623 548.507,164.623 550.581,175.572 552.655,164.623 554.729,164.623 556.803,120.825 558.877,241.269 560.951,109.875 563.024,142.724 565.098,131.774 567.172,109.875 569.246,175.572 571.32,153.673 573.394,153.673 575.468,98.9258 577.542,109.875 579.616,142.724 581.69,120.825 583.764,153.673 585.838,131.774 587.912,120.825 589.985,142.724 592.059,153.673 594.133,153.673 596.207,131.774 598.281,120.825 600.355,142.724 602.429,131.774 604.503,142.724 606.577,109.875 608.651,142.724 610.725,120.825 612.799,153.673 614.873,98.9258 616.946,120.825 619.02,175.572 621.094,109.875 623.168,131.774 625.242,142.724 627.316,142.724 629.39,120.825 631.464,98.9258 633.538,109.875 635.612,120.825 637.686,153.673 639.76,109.875 641.833,197.471 643.907,142.724 645.981,109.875 648.055,131.774 650.129,120.825 652.203,98.9258 654.277,142.724 656.351,109.875 658.425,109.875 660.499,120.825 662.573,131.774 664.647,120.825 666.721,109.875 668.794,109.875 670.868,109.875 672.942,120.825 675.016,98.9258 677.09,98.9258 679.164,120.825 681.238,120.825 683.312,109.875 685.386,109.875 687.46,164.623 689.534,109.875 691.608,87.9763 693.681,153.673 695.755,131.774 697.829,120.825 699.903,98.9258 701.977,120.825 704.051,98.9258 706.125,120.825 708.199,120.825 710.273,109.875 712.347,120.825 714.421,142.724 716.495,120.825 718.569,131.774 720.642,131.774 722.716,120.825 724.79,120.825 726.864,109.875 728.938,120.825 731.012,131.774 733.086,98.9258 735.16,87.9763 737.234,120.825 739.308,131.774 741.382,131.774 743.456,98.9258 745.53,131.774 747.603,109.875 749.677,131.774 751.751,98.9258 753.825,98.9258 755.899,131.774 757.973,109.875 760.047,109.875 762.121,120.825 764.195,142.724 766.269,120.825 768.343,153.673 770.417,109.875 772.49,87.9763 774.564,142.724 776.638,109.875 778.712,142.724 780.786,131.774 782.86,98.9258 784.934,153.673 787.008,109.875 789.082,87.9763 791.156,131.774 793.23,98.9258 795.304,98.9258 797.378,109.875 799.451,98.9258 801.525,87.9763 803.599,109.875 805.673,120.825 807.747,109.875 809.821,131.774 811.895,98.9258 813.969,120.825 816.043,109.875 818.117,109.875 820.191,120.825 822.265,87.9763 824.339,120.825 826.412,120.825 828.486,120.825 830.56,109.875 832.634,109.875 834.708,98.9258 836.782,98.9258 838.856,98.9258 840.93,109.875 843.004,98.9258 845.078,109.875 847.152,120.825 849.226,98.9258 851.299,98.9258 853.373,87.9763 855.447,87.9763 857.521,109.875 859.595,120.825 861.669,87.9763 863.743,98.9258 865.817,109.875 867.891,109.875 869.965,142.724 872.039,120.825 874.113,109.875 876.187,109.875 878.26,98.9258 880.334,87.9763 882.408,98.9258 884.482,164.623 886.556,98.9258 888.63,98.9258 890.704,98.9258 892.778,98.9258 894.852,87.9763 896.926,87.9763 899,98.9258 901.074,109.875 903.147,120.825 905.221,98.9258 907.295,87.9763 909.369,98.9258 911.443,109.875 913.517,109.875 915.591,120.825 917.665,120.825 919.739,109.875 921.813,98.9258 923.887,98.9258 925.961,120.825 928.035,120.825 930.108,120.825 932.182,98.9258 934.256,109.875 936.33,98.9258 938.404,98.9258 940.478,87.9763 942.552,109.875 944.626,87.9763 946.7,98.9258 948.774,98.9258 950.848,98.9258 952.922,120.825 954.996,98.9258 957.069,109.875 959.143,109.875 961.217,109.875 963.291,120.825 965.365,87.9763 967.439,98.9258 969.513,98.9258 971.587,87.9763 973.661,98.9258 975.735,109.875 977.809,120.825 979.883,98.9258 981.956,98.9258 984.03,109.875 986.104,109.875 988.178,87.9763 990.252,109.875 992.326,98.9258 994.4,142.724 996.474,87.9763 998.548,109.875 1000.62,109.875 1002.7,87.9763 1004.77,87.9763 1006.84,131.774 1008.92,109.875 1010.99,109.875 1013.07,109.875 1015.14,109.875 1017.21,98.9258 1019.29,98.9258 1021.36,87.9763 1023.43,109.875 1025.51,87.9763 1027.58,98.9258 1029.66,109.875 1031.73,98.9258 1033.8,131.774 1035.88,109.875 1037.95,109.875 1040.03,120.825 1042.1,120.825 1044.17,120.825 1046.25,87.9763 1048.32,120.825 1050.4,98.9258 1052.47,98.9258 1054.54,131.774 1056.62,109.875 1058.69,98.9258 1060.77,98.9258 1062.84,98.9258 1064.91,98.9258 1066.99,109.875 1069.06,98.9258 1071.14,98.9258 1073.21,87.9763 1075.28,120.825 1077.36,87.9763 1079.43,98.9258 1081.5,109.875 1083.58,109.875 1085.65,87.9763 1087.73,109.875 1089.8,87.9763 1091.87,87.9763 1093.95,98.9258 1096.02,98.9258 1098.1,109.875 1100.17,87.9763 1102.24,87.9763 1104.32,109.875 1106.39,98.9258 1108.47,98.9258 1110.54,120.825 1112.61,98.9258 1114.69,98.9258 1116.76,98.9258 1118.84,109.875 1120.91,109.875 1122.98,98.9258 1125.06,120.825 1127.13,98.9258 1129.2,87.9763 1131.28,120.825 1133.35,87.9763 1135.43,120.825 1137.5,109.875 1139.57,98.9258 1141.65,109.875 1143.72,87.9763 1145.8,87.9763 1147.87,98.9258 1149.94,109.875 1152.02,98.9258 1154.09,131.774 1156.17,98.9258 1158.24,109.875 1160.31,87.9763 1162.39,98.9258 1164.46,109.875 1166.54,109.875 1168.61,109.875 1170.68,109.875 1172.76,109.875 1174.83,87.9763 1176.91,87.9763 1178.98,98.9258 1181.05,87.9763 1183.13,87.9763 1185.2,98.9258 1187.27,98.9258 1189.35,98.9258 1191.42,98.9258 1193.5,120.825 1195.57,120.825 1197.64,98.9258 1199.72,87.9763 1201.79,98.9258 1203.87,98.9258 1205.94,87.9763 1208.01,98.9258 1210.09,87.9763 1212.16,87.9763 1214.24,98.9258 1216.31,98.9258 1218.38,98.9258 1220.46,87.9763 1222.53,98.9258 1224.61,87.9763 1226.68,109.875 1228.75,87.9763 1230.83,109.875 1232.9,109.875 1234.97,98.9258 1237.05,109.875 1239.12,109.875 1241.2,87.9763 1243.27,109.875 1245.34,109.875 1247.42,98.9258 1249.49,109.875 1251.57,98.9258 1253.64,87.9763 1255.71,109.875 1257.79,109.875 1259.86,87.9763 1261.94,109.875 1264.01,87.9763 1266.08,98.9258 1268.16,120.825 1270.23,98.9258 1272.31,87.9763 1274.38,87.9763 1276.45,109.875 1278.53,98.9258 1280.6,87.9763 1282.68,98.9258 1284.75,87.9763 1286.82,98.9258 1288.9,131.774 1290.97,98.9258 1293.04,98.9258 1295.12,98.9258 1297.19,98.9258 1299.27,87.9763 1301.34,109.875 1303.41,120.825 1305.49,98.9258 1307.56,109.875 1309.64,98.9258 1311.71,87.9763 1313.78,87.9763 1315.86,98.9258 1317.93,109.875 1320.01,87.9763 1322.08,87.9763 1324.15,98.9258 1326.23,87.9763 1328.3,87.9763 1330.38,98.9258 1332.45,98.9258 1334.52,98.9258 1336.6,98.9258 1338.67,98.9258 1340.74,87.9763 1342.82,87.9763 1344.89,87.9763 1346.97,87.9763 1349.04,87.9763 1351.11,120.825 1353.19,87.9763 1355.26,87.9763 1357.34,98.9258 1359.41,87.9763 1361.48,98.9258 1363.56,87.9763 1365.63,109.875 1367.71,87.9763 1369.78,120.825 1371.85,109.875 1373.93,87.9763 1376,98.9258 1378.08,87.9763 1380.15,87.9763 1382.22,87.9763 1384.3,98.9258 1386.37,98.9258 1388.44,109.875 1390.52,98.9258 1392.59,98.9258 1394.67,87.9763 1396.74,109.875 1398.81,87.9763 1400.89,87.9763 1402.96,87.9763 1405.04,109.875 1407.11,87.9763 1409.18,109.875 1411.26,87.9763 1413.33,87.9763 1415.41,87.9763 1417.48,87.9763 1419.55,98.9258 1421.63,87.9763 1423.7,98.9258 1425.78,98.9258 1427.85,109.875 1429.92,87.9763 1432,109.875 1434.07,98.9258 1436.15,98.9258 1438.22,98.9258 1440.29,98.9258 1442.37,98.9258 1444.44,98.9258 1446.51,87.9763 1448.59,87.9763 1450.66,87.9763 1452.74,87.9763 1454.81,109.875 1456.88,87.9763 1458.96,109.875 1461.03,98.9258 1463.11,98.9258 1465.18,109.875 1467.25,98.9258 1469.33,98.9258 1471.4,87.9763 1473.48,109.875 1475.55,98.9258 1477.62,87.9763 1479.7,120.825 1481.77,98.9258 1483.85,98.9258 1485.92,87.9763 1487.99,87.9763 1490.07,87.9763 1492.14,98.9258 1494.21,98.9258 1496.29,109.875 1498.36,87.9763 1500.44,98.9258 1502.51,87.9763 1504.58,87.9763 1506.66,87.9763 1508.73,109.875 1510.81,87.9763 1512.88,87.9763 1514.95,87.9763 1517.03,87.9763 1519.1,87.9763 1521.18,109.875 1523.25,98.9258 1525.32,120.825 1527.4,87.9763 1529.47,87.9763 1531.55,87.9763 1533.62,87.9763 1535.69,109.875 1537.77,87.9763 1539.84,98.9258 1541.92,87.9763 1543.99,98.9258 1546.06,87.9763 1548.14,109.875 1550.21,87.9763 1552.28,98.9258 1554.36,109.875 1556.43,98.9258 1558.51,87.9763 1560.58,87.9763 1562.65,87.9763 1564.73,98.9258 1566.8,98.9258 1568.88,87.9763 1570.95,98.9258 1573.02,87.9763 1575.1,98.9258 1577.17,109.875 1579.25,109.875 1581.32,98.9258 1583.39,87.9763 1585.47,120.825 1587.54,98.9258 1589.62,109.875 1591.69,87.9763 1593.76,98.9258 1595.84,87.9763 1597.91,109.875 1599.98,98.9258 1602.06,98.9258 1604.13,98.9258 1606.21,87.9763 1608.28,98.9258 1610.35,109.875 1612.43,87.9763 1614.5,98.9258 1616.58,120.825 1618.65,87.9763 1620.72,87.9763 1622.8,87.9763 1624.87,142.724 1626.95,87.9763 1629.02,98.9258 1631.09,109.875 1633.17,98.9258 1635.24,98.9258 1637.32,109.875 1639.39,98.9258 1641.46,109.875 1643.54,87.9763 1645.61,109.875 1647.69,98.9258 1649.76,98.9258 1651.83,87.9763 1653.91,87.9763 1655.98,98.9258 1658.05,87.9763 1660.13,98.9258 1662.2,87.9763 1664.28,87.9763 1666.35,109.875 1668.42,109.875 1670.5,131.774 1672.57,87.9763 1674.65,109.875 1676.72,98.9258 1678.79,87.9763 1680.87,98.9258 1682.94,98.9258 1685.02,87.9763 1687.09,98.9258 1689.16,87.9763 1691.24,87.9763 1693.31,98.9258 1695.39,87.9763 1697.46,87.9763 1699.53,98.9258 1701.61,87.9763 1703.68,87.9763 1705.75,87.9763 1707.83,87.9763 1709.9,98.9258 1711.98,87.9763 1714.05,87.9763 1716.12,87.9763 1718.2,98.9258 1720.27,98.9258 1722.35,98.9258 1724.42,87.9763 1726.49,87.9763 1728.57,87.9763 1730.64,109.875 1732.72,87.9763 1734.79,109.875 1736.86,98.9258 1738.94,98.9258 1741.01,87.9763 1743.09,98.9258 1745.16,109.875 1747.23,98.9258 1749.31,98.9258 1751.38,98.9258 1753.46,98.9258 1755.53,87.9763 1757.6,98.9258 1759.68,98.9258 1761.75,87.9763 1763.82,98.9258 1765.9,98.9258 1767.97,98.9258 1770.05,98.9258 1772.12,87.9763 1774.19,87.9763 1776.27,109.875 1778.34,109.875 1780.42,87.9763 1782.49,98.9258 1784.56,87.9763 1786.64,87.9763 1788.71,87.9763 1790.79,98.9258 1792.86,87.9763 1794.93,87.9763 1797.01,87.9763 1799.08,98.9258 1801.16,87.9763 1803.23,98.9258 1805.3,98.9258 1807.38,98.9258 1809.45,98.9258 1811.52,98.9258 1813.6,98.9258 1815.67,98.9258 1817.75,87.9763 1819.82,131.774 1821.89,87.9763 1823.97,98.9258 1826.04,87.9763 1828.12,120.825 1830.19,98.9258 1832.26,87.9763 1834.34,98.9258 1836.41,98.9258 1838.49,87.9763 1840.56,87.9763 1842.63,109.875 1844.71,87.9763 1846.78,109.875 1848.86,87.9763 1850.93,120.825 1853,98.9258 1855.08,87.9763 1857.15,98.9258 1859.22,87.9763 1861.3,87.9763 1863.37,87.9763 1865.45,87.9763 1867.52,98.9258 1869.59,87.9763 1871.67,87.9763 1873.74,98.9258 1875.82,87.9763 1877.89,98.9258 1879.96,98.9258 1882.04,87.9763 1884.11,98.9258 1886.19,98.9258 1888.26,98.9258 1890.33,87.9763 1892.41,87.9763 1894.48,87.9763 1896.56,87.9763 1898.63,87.9763 1900.7,98.9258 1902.78,87.9763 1904.85,87.9763 1906.93,87.9763 1909,87.9763 1911.07,98.9258 1913.15,87.9763 1915.22,98.9258 1917.29,98.9258 1919.37,87.9763 1921.44,98.9258 1923.52,87.9763 1925.59,87.9763 1927.66,87.9763 1929.74,87.9763 1931.81,98.9258 1933.89,98.9258 1935.96,98.9258 1938.03,109.875 1940.11,98.9258 1942.18,87.9763 1944.26,109.875 1946.33,87.9763 1948.4,87.9763 1950.48,87.9763 1952.55,87.9763 1954.63,87.9763 1956.7,98.9258 1958.77,98.9258 1960.85,87.9763 1962.92,87.9763 1964.99,98.9258 1967.07,109.875 1969.14,87.9763 1971.22,87.9763 1973.29,87.9763 1975.36,87.9763 1977.44,87.9763 1979.51,98.9258 1981.59,87.9763 1983.66,87.9763 1985.73,109.875 1987.81,87.9763 1989.88,109.875 1991.96,87.9763 1994.03,87.9763 1996.1,98.9258 1998.18,87.9763 2000.25,87.9763 2002.33,98.9258 2004.4,98.9258 2006.47,109.875 2008.55,87.9763 2010.62,109.875 2012.7,87.9763 2014.77,109.875 2016.84,109.875 2018.92,87.9763 2020.99,98.9258 2023.06,98.9258 2025.14,98.9258 2027.21,98.9258 2029.29,98.9258 2031.36,87.9763 2033.43,87.9763 2035.51,87.9763 2037.58,87.9763 2039.66,87.9763 2041.73,87.9763 2043.8,87.9763 2045.88,98.9258 2047.95,87.9763 2050.03,109.875 2052.1,87.9763 2054.17,109.875 2056.25,87.9763 2058.32,87.9763 2060.4,87.9763 2062.47,87.9763 2064.54,87.9763 2066.62,98.9258 2068.69,87.9763 2070.76,87.9763 2072.84,87.9763 2074.91,98.9258 2076.99,87.9763 2079.06,98.9258 2081.13,87.9763 2083.21,87.9763 2085.28,87.9763 2087.36,87.9763 2089.43,98.9258 2091.5,109.875 2093.58,98.9258 2095.65,87.9763 2097.73,98.9258 2099.8,87.9763 2101.87,87.9763 2103.95,98.9258 2106.02,98.9258 2108.1,87.9763 2110.17,98.9258 2112.24,109.875 2114.32,87.9763 2116.39,98.9258 2118.47,98.9258 2120.54,87.9763 2122.61,98.9258 2124.69,98.9258 2126.76,98.9258 2128.83,87.9763 2130.91,87.9763 2132.98,87.9763 2135.06,87.9763 2137.13,98.9258 2139.2,87.9763 2141.28,98.9258 2143.35,87.9763 2145.43,109.875 2147.5,87.9763 2149.57,98.9258 2151.65,98.9258 2153.72,87.9763 2155.8,98.9258 2157.87,87.9763 2159.94,109.875 2162.02,87.9763 2164.09,87.9763 2166.17,87.9763 2168.24,87.9763 2170.31,87.9763 2172.39,87.9763 2174.46,87.9763 2176.53,87.9763 2178.61,87.9763 2180.68,87.9763 2182.76,87.9763 2184.83,98.9258 2186.9,98.9258 2188.98,109.875 2191.05,87.9763 2193.13,98.9258 2195.2,87.9763 2197.27,87.9763 2199.35,98.9258 2201.42,87.9763 2203.5,87.9763 2205.57,87.9763 2207.64,98.9258 2209.72,87.9763 2211.79,87.9763 2213.87,98.9258 2215.94,98.9258 2218.01,87.9763 2220.09,87.9763 2222.16,87.9763 2224.24,87.9763 2226.31,87.9763 2228.38,87.9763 2230.46,87.9763 2232.53,87.9763 2234.6,87.9763 2236.68,87.9763 2238.75,120.825 2240.83,87.9763 2242.9,98.9258 2244.97,98.9258 2247.05,87.9763 2249.12,98.9258 2251.2,87.9763 2253.27,109.875 2255.34,87.9763 2257.42,98.9258 2259.49,87.9763 2261.57,87.9763 2263.64,98.9258 2265.71,87.9763 2267.79,87.9763 2269.86,98.9258 2271.94,87.9763 2274.01,87.9763 2276.08,87.9763 2278.16,87.9763 2280.23,87.9763 2282.3,87.9763 2284.38,120.825 2286.45,98.9258 2288.53,87.9763 2290.6,87.9763 "/>
<path clip-path="url(#clip430)" d="M2007.5 1438.47 L2279.55 1438.47 L2279.55 1334.79 L2007.5 1334.79  Z" fill="#ffffff" fill-rule="evenodd" fill-opacity="1"/>
<polyline clip-path="url(#clip430)" style="stroke:#000000; stroke-linecap:round; stroke-linejoin:round; stroke-width:4; stroke-opacity:1; fill:none" points="2007.5,1438.47 2279.55,1438.47 2279.55,1334.79 2007.5,1334.79 2007.5,1438.47 "/>
<polyline clip-path="url(#clip430)" style="stroke:#009af9; stroke-linecap:round; stroke-linejoin:round; stroke-width:4; stroke-opacity:1; fill:none" points="2031.91,1386.63 2178.32,1386.63 "/>
<path clip-path="url(#clip430)" d="M2216.56 1406.32 Q2214.76 1410.95 2213.04 1412.36 Q2211.33 1413.78 2208.46 1413.78 L2205.06 1413.78 L2205.06 1410.21 L2207.56 1410.21 Q2209.32 1410.21 2210.29 1409.38 Q2211.26 1408.54 2212.44 1405.44 L2213.2 1403.5 L2202.72 1377.99 L2207.23 1377.99 L2215.33 1398.27 L2223.44 1377.99 L2227.95 1377.99 L2216.56 1406.32 Z" fill="#000000" fill-rule="nonzero" fill-opacity="1" /><path clip-path="url(#clip430)" d="M2235.24 1399.98 L2242.88 1399.98 L2242.88 1373.61 L2234.57 1375.28 L2234.57 1371.02 L2242.83 1369.35 L2247.51 1369.35 L2247.51 1399.98 L2255.15 1399.98 L2255.15 1403.91 L2235.24 1403.91 L2235.24 1399.98 Z" fill="#000000" fill-rule="nonzero" fill-opacity="1" /></svg>
