<?xml version="1.0" encoding="utf-8"?>
<svg xmlns="http://www.w3.org/2000/svg" xmlns:xlink="http://www.w3.org/1999/xlink" width="600" height="400" viewBox="0 0 2400 1600">
<defs>
  <clipPath id="clip390">
    <rect x="0" y="0" width="2400" height="1600"/>
  </clipPath>
</defs>
<path clip-path="url(#clip390)" d="M0 1600 L2400 1600 L2400 0 L0 0  Z" fill="#ffffff" fill-rule="evenodd" fill-opacity="1"/>
<defs>
  <clipPath id="clip391">
    <rect x="480" y="0" width="1681" height="1600"/>
  </clipPath>
</defs>
<path clip-path="url(#clip390)" d="M209.029 1486.45 L2352.76 1486.45 L2352.76 47.2441 L209.029 47.2441  Z" fill="#ffffff" fill-rule="evenodd" fill-opacity="1"/>
<defs>
  <clipPath id="clip392">
    <rect x="209" y="47" width="2145" height="1440"/>
  </clipPath>
</defs>
<polyline clip-path="url(#clip392)" style="stroke:#000000; stroke-linecap:round; stroke-linejoin:round; stroke-width:2; stroke-opacity:0.1; fill:none" points="269.7,1486.45 269.7,47.2441 "/>
<polyline clip-path="url(#clip392)" style="stroke:#000000; stroke-linecap:round; stroke-linejoin:round; stroke-width:2; stroke-opacity:0.1; fill:none" points="775.549,1486.45 775.549,47.2441 "/>
<polyline clip-path="url(#clip392)" style="stroke:#000000; stroke-linecap:round; stroke-linejoin:round; stroke-width:2; stroke-opacity:0.1; fill:none" points="1281.4,1486.45 1281.4,47.2441 "/>
<polyline clip-path="url(#clip392)" style="stroke:#000000; stroke-linecap:round; stroke-linejoin:round; stroke-width:2; stroke-opacity:0.1; fill:none" points="1787.25,1486.45 1787.25,47.2441 "/>
<polyline clip-path="url(#clip392)" style="stroke:#000000; stroke-linecap:round; stroke-linejoin:round; stroke-width:2; stroke-opacity:0.1; fill:none" points="2293.1,1486.45 2293.1,47.2441 "/>
<polyline clip-path="url(#clip390)" style="stroke:#000000; stroke-linecap:round; stroke-linejoin:round; stroke-width:4; stroke-opacity:1; fill:none" points="209.029,1486.45 2352.76,1486.45 "/>
<polyline clip-path="url(#clip390)" style="stroke:#000000; stroke-linecap:round; stroke-linejoin:round; stroke-width:4; stroke-opacity:1; fill:none" points="269.7,1486.45 269.7,1467.55 "/>
<polyline clip-path="url(#clip390)" style="stroke:#000000; stroke-linecap:round; stroke-linejoin:round; stroke-width:4; stroke-opacity:1; fill:none" points="775.549,1486.45 775.549,1467.55 "/>
<polyline clip-path="url(#clip390)" style="stroke:#000000; stroke-linecap:round; stroke-linejoin:round; stroke-width:4; stroke-opacity:1; fill:none" points="1281.4,1486.45 1281.4,1467.55 "/>
<polyline clip-path="url(#clip390)" style="stroke:#000000; stroke-linecap:round; stroke-linejoin:round; stroke-width:4; stroke-opacity:1; fill:none" points="1787.25,1486.45 1787.25,1467.55 "/>
<polyline clip-path="url(#clip390)" style="stroke:#000000; stroke-linecap:round; stroke-linejoin:round; stroke-width:4; stroke-opacity:1; fill:none" points="2293.1,1486.45 2293.1,1467.55 "/>
<path clip-path="url(#clip390)" d="M269.7 1517.37 Q266.089 1517.37 264.26 1520.93 Q262.455 1524.47 262.455 1531.6 Q262.455 1538.71 264.26 1542.27 Q266.089 1545.82 269.7 1545.82 Q273.334 1545.82 275.14 1542.27 Q276.969 1538.71 276.969 1531.6 Q276.969 1524.47 275.14 1520.93 Q273.334 1517.37 269.7 1517.37 M269.7 1513.66 Q275.51 1513.66 278.566 1518.27 Q281.644 1522.85 281.644 1531.6 Q281.644 1540.33 278.566 1544.94 Q275.51 1549.52 269.7 1549.52 Q263.89 1549.52 260.811 1544.94 Q257.756 1540.33 257.756 1531.6 Q257.756 1522.85 260.811 1518.27 Q263.89 1513.66 269.7 1513.66 Z" fill="#000000" fill-rule="nonzero" fill-opacity="1" /><path clip-path="url(#clip390)" d="M735.167 1514.29 L753.524 1514.29 L753.524 1518.22 L739.45 1518.22 L739.45 1526.7 Q740.468 1526.35 741.487 1526.19 Q742.505 1526 743.524 1526 Q749.311 1526 752.69 1529.17 Q756.07 1532.34 756.07 1537.76 Q756.07 1543.34 752.598 1546.44 Q749.126 1549.52 742.806 1549.52 Q740.63 1549.52 738.362 1549.15 Q736.116 1548.78 733.709 1548.04 L733.709 1543.34 Q735.792 1544.47 738.015 1545.03 Q740.237 1545.58 742.714 1545.58 Q746.718 1545.58 749.056 1543.48 Q751.394 1541.37 751.394 1537.76 Q751.394 1534.15 749.056 1532.04 Q746.718 1529.94 742.714 1529.94 Q740.839 1529.94 738.964 1530.35 Q737.112 1530.77 735.167 1531.65 L735.167 1514.29 Z" fill="#000000" fill-rule="nonzero" fill-opacity="1" /><path clip-path="url(#clip390)" d="M775.283 1517.37 Q771.672 1517.37 769.843 1520.93 Q768.038 1524.47 768.038 1531.6 Q768.038 1538.71 769.843 1542.27 Q771.672 1545.82 775.283 1545.82 Q778.917 1545.82 780.723 1542.27 Q782.551 1538.71 782.551 1531.6 Q782.551 1524.47 780.723 1520.93 Q778.917 1517.37 775.283 1517.37 M775.283 1513.66 Q781.093 1513.66 784.149 1518.27 Q787.227 1522.85 787.227 1531.6 Q787.227 1540.33 784.149 1544.94 Q781.093 1549.52 775.283 1549.52 Q769.473 1549.52 766.394 1544.94 Q763.338 1540.33 763.338 1531.6 Q763.338 1522.85 766.394 1518.27 Q769.473 1513.66 775.283 1513.66 Z" fill="#000000" fill-rule="nonzero" fill-opacity="1" /><path clip-path="url(#clip390)" d="M805.445 1517.37 Q801.834 1517.37 800.005 1520.93 Q798.199 1524.47 798.199 1531.6 Q798.199 1538.71 800.005 1542.27 Q801.834 1545.82 805.445 1545.82 Q809.079 1545.82 810.885 1542.27 Q812.713 1538.71 812.713 1531.6 Q812.713 1524.47 810.885 1520.93 Q809.079 1517.37 805.445 1517.37 M805.445 1513.66 Q811.255 1513.66 814.31 1518.27 Q817.389 1522.85 817.389 1531.6 Q817.389 1540.33 814.31 1544.94 Q811.255 1549.52 805.445 1549.52 Q799.635 1549.52 796.556 1544.94 Q793.5 1540.33 793.5 1531.6 Q793.5 1522.85 796.556 1518.27 Q799.635 1513.66 805.445 1513.66 Z" fill="#000000" fill-rule="nonzero" fill-opacity="1" /><path clip-path="url(#clip390)" d="M1225.92 1544.91 L1233.56 1544.91 L1233.56 1518.55 L1225.25 1520.21 L1225.25 1515.95 L1233.52 1514.29 L1238.19 1514.29 L1238.19 1544.91 L1245.83 1544.91 L1245.83 1548.85 L1225.92 1548.85 L1225.92 1544.91 Z" fill="#000000" fill-rule="nonzero" fill-opacity="1" /><path clip-path="url(#clip390)" d="M1265.28 1517.37 Q1261.66 1517.37 1259.84 1520.93 Q1258.03 1524.47 1258.03 1531.6 Q1258.03 1538.71 1259.84 1542.27 Q1261.66 1545.82 1265.28 1545.82 Q1268.91 1545.82 1270.72 1542.27 Q1272.54 1538.71 1272.54 1531.6 Q1272.54 1524.47 1270.72 1520.93 Q1268.91 1517.37 1265.28 1517.37 M1265.28 1513.66 Q1271.09 1513.66 1274.14 1518.27 Q1277.22 1522.85 1277.22 1531.6 Q1277.22 1540.33 1274.14 1544.94 Q1271.09 1549.52 1265.28 1549.52 Q1259.47 1549.52 1256.39 1544.94 Q1253.33 1540.33 1253.33 1531.6 Q1253.33 1522.85 1256.39 1518.27 Q1259.47 1513.66 1265.28 1513.66 Z" fill="#000000" fill-rule="nonzero" fill-opacity="1" /><path clip-path="url(#clip390)" d="M1295.44 1517.37 Q1291.83 1517.37 1290 1520.93 Q1288.19 1524.47 1288.19 1531.6 Q1288.19 1538.71 1290 1542.27 Q1291.83 1545.82 1295.44 1545.82 Q1299.07 1545.82 1300.88 1542.27 Q1302.71 1538.71 1302.71 1531.6 Q1302.71 1524.47 1300.88 1520.93 Q1299.07 1517.37 1295.44 1517.37 M1295.44 1513.66 Q1301.25 1513.66 1304.3 1518.27 Q1307.38 1522.85 1307.38 1531.6 Q1307.38 1540.33 1304.3 1544.94 Q1301.25 1549.52 1295.44 1549.52 Q1289.63 1549.52 1286.55 1544.94 Q1283.49 1540.33 1283.49 1531.6 Q1283.49 1522.85 1286.55 1518.27 Q1289.63 1513.66 1295.44 1513.66 Z" fill="#000000" fill-rule="nonzero" fill-opacity="1" /><path clip-path="url(#clip390)" d="M1325.6 1517.37 Q1321.99 1517.37 1320.16 1520.93 Q1318.35 1524.47 1318.35 1531.6 Q1318.35 1538.71 1320.16 1542.27 Q1321.99 1545.82 1325.6 1545.82 Q1329.23 1545.82 1331.04 1542.27 Q1332.87 1538.71 1332.87 1531.6 Q1332.87 1524.47 1331.04 1520.93 Q1329.23 1517.37 1325.6 1517.37 M1325.6 1513.66 Q1331.41 1513.66 1334.46 1518.27 Q1337.54 1522.85 1337.54 1531.6 Q1337.54 1540.33 1334.46 1544.94 Q1331.41 1549.52 1325.6 1549.52 Q1319.79 1549.52 1316.71 1544.94 Q1313.65 1540.33 1313.65 1531.6 Q1313.65 1522.85 1316.71 1518.27 Q1319.79 1513.66 1325.6 1513.66 Z" fill="#000000" fill-rule="nonzero" fill-opacity="1" /><path clip-path="url(#clip390)" d="M1731.77 1544.91 L1739.41 1544.91 L1739.41 1518.55 L1731.1 1520.21 L1731.1 1515.95 L1739.37 1514.29 L1744.04 1514.29 L1744.04 1544.91 L1751.68 1544.91 L1751.68 1548.85 L1731.77 1548.85 L1731.77 1544.91 Z" fill="#000000" fill-rule="nonzero" fill-opacity="1" /><path clip-path="url(#clip390)" d="M1761.17 1514.29 L1779.53 1514.29 L1779.53 1518.22 L1765.45 1518.22 L1765.45 1526.7 Q1766.47 1526.35 1767.49 1526.19 Q1768.51 1526 1769.53 1526 Q1775.31 1526 1778.69 1529.17 Q1782.07 1532.34 1782.07 1537.76 Q1782.07 1543.34 1778.6 1546.44 Q1775.13 1549.52 1768.81 1549.52 Q1766.63 1549.52 1764.37 1549.15 Q1762.12 1548.78 1759.71 1548.04 L1759.71 1543.34 Q1761.8 1544.47 1764.02 1545.03 Q1766.24 1545.58 1768.72 1545.58 Q1772.72 1545.58 1775.06 1543.48 Q1777.4 1541.37 1777.4 1537.76 Q1777.4 1534.15 1775.06 1532.04 Q1772.72 1529.94 1768.72 1529.94 Q1766.84 1529.94 1764.97 1530.35 Q1763.12 1530.77 1761.17 1531.65 L1761.17 1514.29 Z" fill="#000000" fill-rule="nonzero" fill-opacity="1" /><path clip-path="url(#clip390)" d="M1801.29 1517.37 Q1797.68 1517.37 1795.85 1520.93 Q1794.04 1524.47 1794.04 1531.6 Q1794.04 1538.71 1795.85 1542.27 Q1797.68 1545.82 1801.29 1545.82 Q1804.92 1545.82 1806.73 1542.27 Q1808.55 1538.71 1808.55 1531.6 Q1808.55 1524.47 1806.73 1520.93 Q1804.92 1517.37 1801.29 1517.37 M1801.29 1513.66 Q1807.1 1513.66 1810.15 1518.27 Q1813.23 1522.85 1813.23 1531.6 Q1813.23 1540.33 1810.15 1544.94 Q1807.1 1549.52 1801.29 1549.52 Q1795.48 1549.52 1792.4 1544.94 Q1789.34 1540.33 1789.34 1531.6 Q1789.34 1522.85 1792.4 1518.27 Q1795.48 1513.66 1801.29 1513.66 Z" fill="#000000" fill-rule="nonzero" fill-opacity="1" /><path clip-path="url(#clip390)" d="M1831.45 1517.37 Q1827.84 1517.37 1826.01 1520.93 Q1824.2 1524.47 1824.2 1531.6 Q1824.2 1538.71 1826.01 1542.27 Q1827.84 1545.82 1831.45 1545.82 Q1835.08 1545.82 1836.89 1542.27 Q1838.72 1538.71 1838.72 1531.6 Q1838.72 1524.47 1836.89 1520.93 Q1835.08 1517.37 1831.45 1517.37 M1831.45 1513.66 Q1837.26 1513.66 1840.31 1518.27 Q1843.39 1522.85 1843.39 1531.6 Q1843.39 1540.33 1840.31 1544.94 Q1837.26 1549.52 1831.45 1549.52 Q1825.64 1549.52 1822.56 1544.94 Q1819.5 1540.33 1819.5 1531.6 Q1819.5 1522.85 1822.56 1518.27 Q1825.64 1513.66 1831.45 1513.66 Z" fill="#000000" fill-rule="nonzero" fill-opacity="1" /><path clip-path="url(#clip390)" d="M2241.71 1544.91 L2258.03 1544.91 L2258.03 1548.85 L2236.08 1548.85 L2236.08 1544.91 Q2238.74 1542.16 2243.33 1537.53 Q2247.93 1532.88 2249.11 1531.53 Q2251.36 1529.01 2252.24 1527.27 Q2253.14 1525.51 2253.14 1523.82 Q2253.14 1521.07 2251.2 1519.33 Q2249.28 1517.6 2246.18 1517.6 Q2243.98 1517.6 2241.52 1518.36 Q2239.09 1519.13 2236.31 1520.68 L2236.31 1515.95 Q2239.14 1514.82 2241.59 1514.24 Q2244.05 1513.66 2246.08 1513.66 Q2251.45 1513.66 2254.65 1516.35 Q2257.84 1519.03 2257.84 1523.52 Q2257.84 1525.65 2257.03 1527.57 Q2256.24 1529.47 2254.14 1532.07 Q2253.56 1532.74 2250.46 1535.95 Q2247.36 1539.15 2241.71 1544.91 Z" fill="#000000" fill-rule="nonzero" fill-opacity="1" /><path clip-path="url(#clip390)" d="M2277.84 1517.37 Q2274.23 1517.37 2272.4 1520.93 Q2270.6 1524.47 2270.6 1531.6 Q2270.6 1538.71 2272.4 1542.27 Q2274.23 1545.82 2277.84 1545.82 Q2281.48 1545.82 2283.28 1542.27 Q2285.11 1538.71 2285.11 1531.6 Q2285.11 1524.47 2283.28 1520.93 Q2281.48 1517.37 2277.84 1517.37 M2277.84 1513.66 Q2283.65 1513.66 2286.71 1518.27 Q2289.79 1522.85 2289.79 1531.6 Q2289.79 1540.33 2286.71 1544.94 Q2283.65 1549.52 2277.84 1549.52 Q2272.03 1549.52 2268.95 1544.94 Q2265.9 1540.33 2265.9 1531.6 Q2265.9 1522.85 2268.95 1518.27 Q2272.03 1513.66 2277.84 1513.66 Z" fill="#000000" fill-rule="nonzero" fill-opacity="1" /><path clip-path="url(#clip390)" d="M2308 1517.37 Q2304.39 1517.37 2302.56 1520.93 Q2300.76 1524.47 2300.76 1531.6 Q2300.76 1538.71 2302.56 1542.27 Q2304.39 1545.82 2308 1545.82 Q2311.64 1545.82 2313.44 1542.27 Q2315.27 1538.71 2315.27 1531.6 Q2315.27 1524.47 2313.44 1520.93 Q2311.64 1517.37 2308 1517.37 M2308 1513.66 Q2313.81 1513.66 2316.87 1518.27 Q2319.95 1522.85 2319.95 1531.6 Q2319.95 1540.33 2316.87 1544.94 Q2313.81 1549.52 2308 1549.52 Q2302.19 1549.52 2299.11 1544.94 Q2296.06 1540.33 2296.06 1531.6 Q2296.06 1522.85 2299.11 1518.27 Q2302.19 1513.66 2308 1513.66 Z" fill="#000000" fill-rule="nonzero" fill-opacity="1" /><path clip-path="url(#clip390)" d="M2338.17 1517.37 Q2334.55 1517.37 2332.73 1520.93 Q2330.92 1524.47 2330.92 1531.6 Q2330.92 1538.71 2332.73 1542.27 Q2334.55 1545.82 2338.17 1545.82 Q2341.8 1545.82 2343.61 1542.27 Q2345.43 1538.71 2345.43 1531.6 Q2345.43 1524.47 2343.61 1520.93 Q2341.8 1517.37 2338.17 1517.37 M2338.17 1513.66 Q2343.98 1513.66 2347.03 1518.27 Q2350.11 1522.85 2350.11 1531.6 Q2350.11 1540.33 2347.03 1544.94 Q2343.98 1549.52 2338.17 1549.52 Q2332.36 1549.52 2329.28 1544.94 Q2326.22 1540.33 2326.22 1531.6 Q2326.22 1522.85 2329.28 1518.27 Q2332.36 1513.66 2338.17 1513.66 Z" fill="#000000" fill-rule="nonzero" fill-opacity="1" /><polyline clip-path="url(#clip392)" style="stroke:#000000; stroke-linecap:round; stroke-linejoin:round; stroke-width:2; stroke-opacity:0.1; fill:none" points="209.029,1306.42 2352.76,1306.42 "/>
<polyline clip-path="url(#clip392)" style="stroke:#000000; stroke-linecap:round; stroke-linejoin:round; stroke-width:2; stroke-opacity:0.1; fill:none" points="209.029,1109.04 2352.76,1109.04 "/>
<polyline clip-path="url(#clip392)" style="stroke:#000000; stroke-linecap:round; stroke-linejoin:round; stroke-width:2; stroke-opacity:0.1; fill:none" points="209.029,911.666 2352.76,911.666 "/>
<polyline clip-path="url(#clip392)" style="stroke:#000000; stroke-linecap:round; stroke-linejoin:round; stroke-width:2; stroke-opacity:0.1; fill:none" points="209.029,714.289 2352.76,714.289 "/>
<polyline clip-path="url(#clip392)" style="stroke:#000000; stroke-linecap:round; stroke-linejoin:round; stroke-width:2; stroke-opacity:0.1; fill:none" points="209.029,516.912 2352.76,516.912 "/>
<polyline clip-path="url(#clip392)" style="stroke:#000000; stroke-linecap:round; stroke-linejoin:round; stroke-width:2; stroke-opacity:0.1; fill:none" points="209.029,319.534 2352.76,319.534 "/>
<polyline clip-path="url(#clip392)" style="stroke:#000000; stroke-linecap:round; stroke-linejoin:round; stroke-width:2; stroke-opacity:0.1; fill:none" points="209.029,122.157 2352.76,122.157 "/>
<polyline clip-path="url(#clip390)" style="stroke:#000000; stroke-linecap:round; stroke-linejoin:round; stroke-width:4; stroke-opacity:1; fill:none" points="209.029,1486.45 209.029,47.2441 "/>
<polyline clip-path="url(#clip390)" style="stroke:#000000; stroke-linecap:round; stroke-linejoin:round; stroke-width:4; stroke-opacity:1; fill:none" points="209.029,1306.42 227.926,1306.42 "/>
<polyline clip-path="url(#clip390)" style="stroke:#000000; stroke-linecap:round; stroke-linejoin:round; stroke-width:4; stroke-opacity:1; fill:none" points="209.029,1109.04 227.926,1109.04 "/>
<polyline clip-path="url(#clip390)" style="stroke:#000000; stroke-linecap:round; stroke-linejoin:round; stroke-width:4; stroke-opacity:1; fill:none" points="209.029,911.666 227.926,911.666 "/>
<polyline clip-path="url(#clip390)" style="stroke:#000000; stroke-linecap:round; stroke-linejoin:round; stroke-width:4; stroke-opacity:1; fill:none" points="209.029,714.289 227.926,714.289 "/>
<polyline clip-path="url(#clip390)" style="stroke:#000000; stroke-linecap:round; stroke-linejoin:round; stroke-width:4; stroke-opacity:1; fill:none" points="209.029,516.912 227.926,516.912 "/>
<polyline clip-path="url(#clip390)" style="stroke:#000000; stroke-linecap:round; stroke-linejoin:round; stroke-width:4; stroke-opacity:1; fill:none" points="209.029,319.534 227.926,319.534 "/>
<polyline clip-path="url(#clip390)" style="stroke:#000000; stroke-linecap:round; stroke-linejoin:round; stroke-width:4; stroke-opacity:1; fill:none" points="209.029,122.157 227.926,122.157 "/>
<path clip-path="url(#clip390)" d="M50.9921 1306.87 L80.6679 1306.87 L80.6679 1310.81 L50.9921 1310.81 L50.9921 1306.87 Z" fill="#000000" fill-rule="nonzero" fill-opacity="1" /><path clip-path="url(#clip390)" d="M100.76 1307.29 Q97.4271 1307.29 95.5058 1309.07 Q93.6076 1310.85 93.6076 1313.98 Q93.6076 1317.1 95.5058 1318.89 Q97.4271 1320.67 100.76 1320.67 Q104.094 1320.67 106.015 1318.89 Q107.936 1317.08 107.936 1313.98 Q107.936 1310.85 106.015 1309.07 Q104.117 1307.29 100.76 1307.29 M96.0845 1305.3 Q93.0752 1304.56 91.3854 1302.5 Q89.7188 1300.44 89.7188 1297.47 Q89.7188 1293.33 92.6586 1290.92 Q95.6215 1288.52 100.76 1288.52 Q105.922 1288.52 108.862 1290.92 Q111.802 1293.33 111.802 1297.47 Q111.802 1300.44 110.112 1302.5 Q108.446 1304.56 105.459 1305.3 Q108.839 1306.09 110.714 1308.38 Q112.612 1310.67 112.612 1313.98 Q112.612 1319 109.533 1321.69 Q106.478 1324.37 100.76 1324.37 Q95.0428 1324.37 91.9641 1321.69 Q88.9086 1319 88.9086 1313.98 Q88.9086 1310.67 90.8067 1308.38 Q92.7049 1306.09 96.0845 1305.3 M94.3715 1297.91 Q94.3715 1300.6 96.0382 1302.1 Q97.728 1303.61 100.76 1303.61 Q103.77 1303.61 105.459 1302.1 Q107.172 1300.6 107.172 1297.91 Q107.172 1295.23 105.459 1293.72 Q103.77 1292.22 100.76 1292.22 Q97.728 1292.22 96.0382 1293.72 Q94.3715 1295.23 94.3715 1297.91 Z" fill="#000000" fill-rule="nonzero" fill-opacity="1" /><path clip-path="url(#clip390)" d="M130.922 1292.22 Q127.311 1292.22 125.482 1295.78 Q123.677 1299.33 123.677 1306.46 Q123.677 1313.56 125.482 1317.13 Q127.311 1320.67 130.922 1320.67 Q134.556 1320.67 136.362 1317.13 Q138.191 1313.56 138.191 1306.46 Q138.191 1299.33 136.362 1295.78 Q134.556 1292.22 130.922 1292.22 M130.922 1288.52 Q136.732 1288.52 139.788 1293.12 Q142.867 1297.71 142.867 1306.46 Q142.867 1315.18 139.788 1319.79 Q136.732 1324.37 130.922 1324.37 Q125.112 1324.37 122.033 1319.79 Q118.978 1315.18 118.978 1306.46 Q118.978 1297.71 122.033 1293.12 Q125.112 1288.52 130.922 1288.52 Z" fill="#000000" fill-rule="nonzero" fill-opacity="1" /><path clip-path="url(#clip390)" d="M161.084 1292.22 Q157.473 1292.22 155.644 1295.78 Q153.839 1299.33 153.839 1306.46 Q153.839 1313.56 155.644 1317.13 Q157.473 1320.67 161.084 1320.67 Q164.718 1320.67 166.524 1317.13 Q168.353 1313.56 168.353 1306.46 Q168.353 1299.33 166.524 1295.78 Q164.718 1292.22 161.084 1292.22 M161.084 1288.52 Q166.894 1288.52 169.95 1293.12 Q173.029 1297.71 173.029 1306.46 Q173.029 1315.18 169.95 1319.79 Q166.894 1324.37 161.084 1324.37 Q155.274 1324.37 152.195 1319.79 Q149.14 1315.18 149.14 1306.46 Q149.14 1297.71 152.195 1293.12 Q155.274 1288.52 161.084 1288.52 Z" fill="#000000" fill-rule="nonzero" fill-opacity="1" /><path clip-path="url(#clip390)" d="M50.9921 1109.5 L80.6679 1109.5 L80.6679 1113.43 L50.9921 1113.43 L50.9921 1109.5 Z" fill="#000000" fill-rule="nonzero" fill-opacity="1" /><path clip-path="url(#clip390)" d="M89.5799 1091.76 L111.802 1091.76 L111.802 1093.75 L99.2558 1126.32 L94.3715 1126.32 L106.177 1095.7 L89.5799 1095.7 L89.5799 1091.76 Z" fill="#000000" fill-rule="nonzero" fill-opacity="1" /><path clip-path="url(#clip390)" d="M130.922 1094.84 Q127.311 1094.84 125.482 1098.41 Q123.677 1101.95 123.677 1109.08 Q123.677 1116.18 125.482 1119.75 Q127.311 1123.29 130.922 1123.29 Q134.556 1123.29 136.362 1119.75 Q138.191 1116.18 138.191 1109.08 Q138.191 1101.95 136.362 1098.41 Q134.556 1094.84 130.922 1094.84 M130.922 1091.14 Q136.732 1091.14 139.788 1095.75 Q142.867 1100.33 142.867 1109.08 Q142.867 1117.81 139.788 1122.41 Q136.732 1126.99 130.922 1126.99 Q125.112 1126.99 122.033 1122.41 Q118.978 1117.81 118.978 1109.08 Q118.978 1100.33 122.033 1095.75 Q125.112 1091.14 130.922 1091.14 Z" fill="#000000" fill-rule="nonzero" fill-opacity="1" /><path clip-path="url(#clip390)" d="M161.084 1094.84 Q157.473 1094.84 155.644 1098.41 Q153.839 1101.95 153.839 1109.08 Q153.839 1116.18 155.644 1119.75 Q157.473 1123.29 161.084 1123.29 Q164.718 1123.29 166.524 1119.75 Q168.353 1116.18 168.353 1109.08 Q168.353 1101.95 166.524 1098.41 Q164.718 1094.84 161.084 1094.84 M161.084 1091.14 Q166.894 1091.14 169.95 1095.75 Q173.029 1100.33 173.029 1109.08 Q173.029 1117.81 169.95 1122.41 Q166.894 1126.99 161.084 1126.99 Q155.274 1126.99 152.195 1122.41 Q149.14 1117.81 149.14 1109.08 Q149.14 1100.33 152.195 1095.75 Q155.274 1091.14 161.084 1091.14 Z" fill="#000000" fill-rule="nonzero" fill-opacity="1" /><path clip-path="url(#clip390)" d="M50.9921 912.118 L80.6679 912.118 L80.6679 916.053 L50.9921 916.053 L50.9921 912.118 Z" fill="#000000" fill-rule="nonzero" fill-opacity="1" /><path clip-path="url(#clip390)" d="M101.339 909.803 Q98.1909 909.803 96.3391 911.956 Q94.5104 914.108 94.5104 917.858 Q94.5104 921.585 96.3391 923.761 Q98.1909 925.914 101.339 925.914 Q104.487 925.914 106.316 923.761 Q108.168 921.585 108.168 917.858 Q108.168 914.108 106.316 911.956 Q104.487 909.803 101.339 909.803 M110.621 895.15 L110.621 899.409 Q108.862 898.576 107.057 898.136 Q105.274 897.697 103.515 897.697 Q98.8854 897.697 96.4317 900.822 Q94.0012 903.946 93.6539 910.266 Q95.0197 908.252 97.0798 907.187 Q99.14 906.099 101.617 906.099 Q106.825 906.099 109.834 909.271 Q112.867 912.419 112.867 917.858 Q112.867 923.182 109.719 926.4 Q106.571 929.618 101.339 929.618 Q95.3437 929.618 92.1725 925.034 Q89.0012 920.428 89.0012 911.701 Q89.0012 903.507 92.89 898.646 Q96.7789 893.761 103.33 893.761 Q105.089 893.761 106.871 894.109 Q108.677 894.456 110.621 895.15 Z" fill="#000000" fill-rule="nonzero" fill-opacity="1" /><path clip-path="url(#clip390)" d="M130.922 897.465 Q127.311 897.465 125.482 901.03 Q123.677 904.571 123.677 911.701 Q123.677 918.808 125.482 922.372 Q127.311 925.914 130.922 925.914 Q134.556 925.914 136.362 922.372 Q138.191 918.808 138.191 911.701 Q138.191 904.571 136.362 901.03 Q134.556 897.465 130.922 897.465 M130.922 893.761 Q136.732 893.761 139.788 898.368 Q142.867 902.951 142.867 911.701 Q142.867 920.428 139.788 925.034 Q136.732 929.618 130.922 929.618 Q125.112 929.618 122.033 925.034 Q118.978 920.428 118.978 911.701 Q118.978 902.951 122.033 898.368 Q125.112 893.761 130.922 893.761 Z" fill="#000000" fill-rule="nonzero" fill-opacity="1" /><path clip-path="url(#clip390)" d="M161.084 897.465 Q157.473 897.465 155.644 901.03 Q153.839 904.571 153.839 911.701 Q153.839 918.808 155.644 922.372 Q157.473 925.914 161.084 925.914 Q164.718 925.914 166.524 922.372 Q168.353 918.808 168.353 911.701 Q168.353 904.571 166.524 901.03 Q164.718 897.465 161.084 897.465 M161.084 893.761 Q166.894 893.761 169.95 898.368 Q173.029 902.951 173.029 911.701 Q173.029 920.428 169.95 925.034 Q166.894 929.618 161.084 929.618 Q155.274 929.618 152.195 925.034 Q149.14 920.428 149.14 911.701 Q149.14 902.951 152.195 898.368 Q155.274 893.761 161.084 893.761 Z" fill="#000000" fill-rule="nonzero" fill-opacity="1" /><path clip-path="url(#clip390)" d="M50.9921 714.74 L80.6679 714.74 L80.6679 718.676 L50.9921 718.676 L50.9921 714.74 Z" fill="#000000" fill-rule="nonzero" fill-opacity="1" /><path clip-path="url(#clip390)" d="M90.8067 697.009 L109.163 697.009 L109.163 700.944 L95.0891 700.944 L95.0891 709.416 Q96.1076 709.069 97.1261 708.907 Q98.1447 708.722 99.1632 708.722 Q104.95 708.722 108.33 711.893 Q111.709 715.064 111.709 720.481 Q111.709 726.06 108.237 729.162 Q104.765 732.24 98.4456 732.24 Q96.2697 732.24 94.0012 731.87 Q91.7558 731.5 89.3484 730.759 L89.3484 726.06 Q91.4317 727.194 93.6539 727.75 Q95.8761 728.305 98.353 728.305 Q102.358 728.305 104.696 726.199 Q107.033 724.092 107.033 720.481 Q107.033 716.87 104.696 714.764 Q102.358 712.657 98.353 712.657 Q96.478 712.657 94.603 713.074 Q92.7512 713.49 90.8067 714.37 L90.8067 697.009 Z" fill="#000000" fill-rule="nonzero" fill-opacity="1" /><path clip-path="url(#clip390)" d="M130.922 700.088 Q127.311 700.088 125.482 703.653 Q123.677 707.194 123.677 714.324 Q123.677 721.43 125.482 724.995 Q127.311 728.537 130.922 728.537 Q134.556 728.537 136.362 724.995 Q138.191 721.43 138.191 714.324 Q138.191 707.194 136.362 703.653 Q134.556 700.088 130.922 700.088 M130.922 696.384 Q136.732 696.384 139.788 700.99 Q142.867 705.574 142.867 714.324 Q142.867 723.051 139.788 727.657 Q136.732 732.24 130.922 732.24 Q125.112 732.24 122.033 727.657 Q118.978 723.051 118.978 714.324 Q118.978 705.574 122.033 700.99 Q125.112 696.384 130.922 696.384 Z" fill="#000000" fill-rule="nonzero" fill-opacity="1" /><path clip-path="url(#clip390)" d="M161.084 700.088 Q157.473 700.088 155.644 703.653 Q153.839 707.194 153.839 714.324 Q153.839 721.43 155.644 724.995 Q157.473 728.537 161.084 728.537 Q164.718 728.537 166.524 724.995 Q168.353 721.43 168.353 714.324 Q168.353 707.194 166.524 703.653 Q164.718 700.088 161.084 700.088 M161.084 696.384 Q166.894 696.384 169.95 700.99 Q173.029 705.574 173.029 714.324 Q173.029 723.051 169.95 727.657 Q166.894 732.24 161.084 732.24 Q155.274 732.24 152.195 727.657 Q149.14 723.051 149.14 714.324 Q149.14 705.574 152.195 700.99 Q155.274 696.384 161.084 696.384 Z" fill="#000000" fill-rule="nonzero" fill-opacity="1" /><path clip-path="url(#clip390)" d="M50.9921 517.363 L80.6679 517.363 L80.6679 521.298 L50.9921 521.298 L50.9921 517.363 Z" fill="#000000" fill-rule="nonzero" fill-opacity="1" /><path clip-path="url(#clip390)" d="M103.608 503.706 L91.8021 522.155 L103.608 522.155 L103.608 503.706 M102.381 499.632 L108.26 499.632 L108.26 522.155 L113.191 522.155 L113.191 526.044 L108.26 526.044 L108.26 534.192 L103.608 534.192 L103.608 526.044 L88.0058 526.044 L88.0058 521.53 L102.381 499.632 Z" fill="#000000" fill-rule="nonzero" fill-opacity="1" /><path clip-path="url(#clip390)" d="M130.922 502.71 Q127.311 502.71 125.482 506.275 Q123.677 509.817 123.677 516.946 Q123.677 524.053 125.482 527.618 Q127.311 531.159 130.922 531.159 Q134.556 531.159 136.362 527.618 Q138.191 524.053 138.191 516.946 Q138.191 509.817 136.362 506.275 Q134.556 502.71 130.922 502.71 M130.922 499.007 Q136.732 499.007 139.788 503.613 Q142.867 508.196 142.867 516.946 Q142.867 525.673 139.788 530.28 Q136.732 534.863 130.922 534.863 Q125.112 534.863 122.033 530.28 Q118.978 525.673 118.978 516.946 Q118.978 508.196 122.033 503.613 Q125.112 499.007 130.922 499.007 Z" fill="#000000" fill-rule="nonzero" fill-opacity="1" /><path clip-path="url(#clip390)" d="M161.084 502.71 Q157.473 502.71 155.644 506.275 Q153.839 509.817 153.839 516.946 Q153.839 524.053 155.644 527.618 Q157.473 531.159 161.084 531.159 Q164.718 531.159 166.524 527.618 Q168.353 524.053 168.353 516.946 Q168.353 509.817 166.524 506.275 Q164.718 502.71 161.084 502.71 M161.084 499.007 Q166.894 499.007 169.95 503.613 Q173.029 508.196 173.029 516.946 Q173.029 525.673 169.95 530.28 Q166.894 534.863 161.084 534.863 Q155.274 534.863 152.195 530.28 Q149.14 525.673 149.14 516.946 Q149.14 508.196 152.195 503.613 Q155.274 499.007 161.084 499.007 Z" fill="#000000" fill-rule="nonzero" fill-opacity="1" /><path clip-path="url(#clip390)" d="M50.9921 319.986 L80.6679 319.986 L80.6679 323.921 L50.9921 323.921 L50.9921 319.986 Z" fill="#000000" fill-rule="nonzero" fill-opacity="1" /><path clip-path="url(#clip390)" d="M104.927 318.18 Q108.283 318.898 110.158 321.166 Q112.057 323.435 112.057 326.768 Q112.057 331.884 108.538 334.685 Q105.02 337.486 98.5382 337.486 Q96.3623 337.486 94.0475 337.046 Q91.7558 336.629 89.3021 335.773 L89.3021 331.259 Q91.2465 332.393 93.5613 332.972 Q95.8761 333.551 98.3993 333.551 Q102.797 333.551 105.089 331.814 Q107.404 330.078 107.404 326.768 Q107.404 323.713 105.251 322 Q103.121 320.264 99.3021 320.264 L95.2743 320.264 L95.2743 316.421 L99.4872 316.421 Q102.936 316.421 104.765 315.055 Q106.594 313.666 106.594 311.074 Q106.594 308.412 104.696 307 Q102.821 305.565 99.3021 305.565 Q97.3808 305.565 95.1817 305.981 Q92.9826 306.398 90.3438 307.278 L90.3438 303.111 Q93.0058 302.37 95.3206 302 Q97.6585 301.629 99.7187 301.629 Q105.043 301.629 108.145 304.06 Q111.246 306.467 111.246 310.588 Q111.246 313.458 109.603 315.449 Q107.959 317.416 104.927 318.18 Z" fill="#000000" fill-rule="nonzero" fill-opacity="1" /><path clip-path="url(#clip390)" d="M130.922 305.333 Q127.311 305.333 125.482 308.898 Q123.677 312.44 123.677 319.569 Q123.677 326.676 125.482 330.24 Q127.311 333.782 130.922 333.782 Q134.556 333.782 136.362 330.24 Q138.191 326.676 138.191 319.569 Q138.191 312.44 136.362 308.898 Q134.556 305.333 130.922 305.333 M130.922 301.629 Q136.732 301.629 139.788 306.236 Q142.867 310.819 142.867 319.569 Q142.867 328.296 139.788 332.902 Q136.732 337.486 130.922 337.486 Q125.112 337.486 122.033 332.902 Q118.978 328.296 118.978 319.569 Q118.978 310.819 122.033 306.236 Q125.112 301.629 130.922 301.629 Z" fill="#000000" fill-rule="nonzero" fill-opacity="1" /><path clip-path="url(#clip390)" d="M161.084 305.333 Q157.473 305.333 155.644 308.898 Q153.839 312.44 153.839 319.569 Q153.839 326.676 155.644 330.24 Q157.473 333.782 161.084 333.782 Q164.718 333.782 166.524 330.24 Q168.353 326.676 168.353 319.569 Q168.353 312.44 166.524 308.898 Q164.718 305.333 161.084 305.333 M161.084 301.629 Q166.894 301.629 169.95 306.236 Q173.029 310.819 173.029 319.569 Q173.029 328.296 169.95 332.902 Q166.894 337.486 161.084 337.486 Q155.274 337.486 152.195 332.902 Q149.14 328.296 149.14 319.569 Q149.14 310.819 152.195 306.236 Q155.274 301.629 161.084 301.629 Z" fill="#000000" fill-rule="nonzero" fill-opacity="1" /><path clip-path="url(#clip390)" d="M50.9921 122.608 L80.6679 122.608 L80.6679 126.544 L50.9921 126.544 L50.9921 122.608 Z" fill="#000000" fill-rule="nonzero" fill-opacity="1" /><path clip-path="url(#clip390)" d="M94.7882 135.502 L111.108 135.502 L111.108 139.437 L89.1632 139.437 L89.1632 135.502 Q91.8252 132.747 96.4085 128.118 Q101.015 123.465 102.196 122.122 Q104.441 119.599 105.321 117.863 Q106.223 116.104 106.223 114.414 Q106.223 111.659 104.279 109.923 Q102.358 108.187 99.2558 108.187 Q97.0567 108.187 94.603 108.951 Q92.1725 109.715 89.3947 111.266 L89.3947 106.544 Q92.2188 105.409 94.6724 104.831 Q97.1261 104.252 99.1632 104.252 Q104.534 104.252 107.728 106.937 Q110.922 109.622 110.922 114.113 Q110.922 116.243 110.112 118.164 Q109.325 120.062 107.219 122.655 Q106.64 123.326 103.538 126.544 Q100.436 129.738 94.7882 135.502 Z" fill="#000000" fill-rule="nonzero" fill-opacity="1" /><path clip-path="url(#clip390)" d="M130.922 107.956 Q127.311 107.956 125.482 111.521 Q123.677 115.062 123.677 122.192 Q123.677 129.298 125.482 132.863 Q127.311 136.405 130.922 136.405 Q134.556 136.405 136.362 132.863 Q138.191 129.298 138.191 122.192 Q138.191 115.062 136.362 111.521 Q134.556 107.956 130.922 107.956 M130.922 104.252 Q136.732 104.252 139.788 108.859 Q142.867 113.442 142.867 122.192 Q142.867 130.919 139.788 135.525 Q136.732 140.108 130.922 140.108 Q125.112 140.108 122.033 135.525 Q118.978 130.919 118.978 122.192 Q118.978 113.442 122.033 108.859 Q125.112 104.252 130.922 104.252 Z" fill="#000000" fill-rule="nonzero" fill-opacity="1" /><path clip-path="url(#clip390)" d="M161.084 107.956 Q157.473 107.956 155.644 111.521 Q153.839 115.062 153.839 122.192 Q153.839 129.298 155.644 132.863 Q157.473 136.405 161.084 136.405 Q164.718 136.405 166.524 132.863 Q168.353 129.298 168.353 122.192 Q168.353 115.062 166.524 111.521 Q164.718 107.956 161.084 107.956 M161.084 104.252 Q166.894 104.252 169.95 108.859 Q173.029 113.442 173.029 122.192 Q173.029 130.919 169.95 135.525 Q166.894 140.108 161.084 140.108 Q155.274 140.108 152.195 135.525 Q149.14 130.919 149.14 122.192 Q149.14 113.442 152.195 108.859 Q155.274 104.252 161.084 104.252 Z" fill="#000000" fill-rule="nonzero" fill-opacity="1" /><polyline clip-path="url(#clip392)" style="stroke:#009af9; stroke-linecap:round; stroke-linejoin:round; stroke-width:4; stroke-opacity:1; fill:none" points="269.7,144.678 270.712,143.38 271.723,89.1706 272.735,87.9763 273.747,148.075 274.759,146.193 275.77,133.573 276.782,131.819 277.794,91.4139 278.805,89.9172 279.817,198.363 280.829,196.796 281.84,199.595 282.852,198.143 283.864,120.215 284.876,118.498 285.887,188.247 286.899,186.791 287.911,205.174 288.922,204.172 289.934,174.468 290.946,173.423 291.957,170.394 292.969,169.153 293.981,142.315 294.992,141.04 296.004,228.281 297.016,226.747 298.028,96.2696 299.039,94.8519 300.051,195.999 301.063,195.359 302.074,174.885 303.086,173.956 304.098,241.269 305.109,240.219 306.121,256.126 307.133,255.408 308.145,183.505 309.156,182.475 310.168,149.995 311.18,149.526 312.191,167.811 313.203,166.794 314.215,160.311 315.226,159.219 316.238,187.984 317.25,186.821 318.262,172.011 319.273,171.403 320.285,164.791 321.297,164.089 322.308,133.652 323.32,132.769 324.332,202.668 325.343,201.799 326.355,181.321 327.367,180.502 328.379,161.697 329.39,160.613 330.402,244.725 331.414,244.401 332.425,249.498 333.437,248.952 334.449,291.418 335.46,291.228 336.472,148.882 337.484,147.539 338.496,290.125 339.507,289.811 340.519,175.167 341.531,174.677 342.542,313.337 343.554,313.159 344.566,252.68 345.577,252.232 346.589,221.953 347.601,221.514 348.612,234.766 349.624,233.697 350.636,262.115 351.648,261.471 352.659,239.557 353.671,239.37 354.683,200.887 355.694,200.564 356.706,234.367 357.718,233.726 358.729,273.659 359.741,273.107 360.753,173.911 361.765,172.094 362.776,210.115 363.788,209.396 364.8,217.415 365.811,217.112 366.823,252.201 367.835,252.146 368.846,364.668 369.858,364.278 370.87,227.478 371.882,227.357 372.893,221.165 373.905,220.347 374.917,295.455 375.928,294.236 376.94,244.65 377.952,244.206 378.963,180.966 379.975,180.211 380.987,160.325 381.999,159.472 383.01,340.383 384.022,339.335 385.034,232.591 386.045,232.133 387.057,185.539 388.069,184.565 389.08,245.666 390.092,245.277 391.104,325.069 392.115,325.16 393.127,312.432 394.139,312.113 395.151,263.488 396.162,263.549 397.174,232.078 398.186,231.665 399.197,281.308 400.209,281.181 401.221,385.101 402.232,384.584 403.244,287.025 404.256,286.021 405.268,297.238 406.279,296.99 407.291,292.296 408.303,292.347 409.314,247.238 410.326,245.902 411.338,345.664 412.349,345.631 413.361,355.889 414.373,355.695 415.385,343.146 416.396,343.197 417.408,268.308 418.42,267.996 419.431,304.701 420.443,304.567 421.455,282.491 422.466,281.266 423.478,276.215 424.49,275.183 425.502,244.325 426.513,243.803 427.525,278.48 428.537,278.084 429.548,329.274 430.56,329.055 431.572,271.558 432.583,270.734 433.595,188.313 434.607,187.088 435.619,249.866 436.63,249.589 437.642,197.493 438.654,197.174 439.665,432.02 440.677,432.228 441.689,328.237 442.7,327.522 443.712,388.736 444.724,388.298 445.735,266.493 446.747,265.841 447.759,328.35 448.771,327.789 449.782,248.441 450.794,248.031 451.806,313.013 452.817,312.625 453.829,277.108 454.841,276.484 455.852,321.515 456.864,321.418 457.876,382.412 458.888,381.728 459.899,235.228 460.911,234.796 461.923,403.002 462.934,403.138 463.946,326.189 464.958,326.149 465.969,423.681 466.981,422.808 467.993,404.957 469.005,405.073 470.016,343.101 471.028,342.716 472.04,239.053 473.051,238.844 474.063,298.395 475.075,298.009 476.086,315.539 477.098,315.048 478.11,324.581 479.122,323.697 480.133,311.216 481.145,310.929 482.157,271.078 483.168,270.918 484.18,323.276 485.192,323.034 486.203,343.714 487.215,343.287 488.227,278.05 489.239,277.606 490.25,486.797 491.262,486.577 492.274,319.189 493.285,319.226 494.297,409.385 495.309,409.118 496.32,414.59 497.332,414.264 498.344,385.676 499.355,385.185 500.367,284.31 501.379,282.932 502.391,413.324 503.402,413.028 504.414,368.712 505.426,368.138 506.437,358.166 507.449,357.735 508.461,378.931 509.472,379.134 510.484,355.973 511.496,355.455 512.508,283.358 513.519,283.078 514.531,460.496 515.543,460.369 516.554,414.099 517.566,413.974 518.578,358.484 519.589,358.412 520.601,366.206 521.613,366.162 522.625,336.107 523.636,335.661 524.648,390.356 525.66,389.787 526.671,418.202 527.683,417.185 528.695,412.915 529.706,412.159 530.718,429.617 531.73,429.395 532.742,394.375 533.753,394.078 534.765,378.558 535.777,378.281 536.788,343.662 537.8,341.99 538.812,441.93 539.823,441.75 540.835,339.515 541.847,338.592 542.859,360.216 543.87,359.714 544.882,433.581 545.894,433.451 546.905,457.681 547.917,457.283 548.929,330.808 549.94,329.987 550.952,399.285 551.964,399.258 552.975,421.011 553.987,421.038 554.999,340.915 556.011,340.42 557.022,393.897 558.034,393.329 559.046,481.754 560.057,480.643 561.069,466.917 562.081,466.768 563.092,260.123 564.104,259.084 565.116,350.386 566.128,349.727 567.139,288.419 568.151,287.807 569.163,402.257 570.174,401.755 571.186,366.449 572.198,365.895 573.209,282.575 574.221,280.54 575.233,283.921 576.245,283.505 577.256,369.439 578.268,369.186 579.28,315.51 580.291,315.247 581.303,311.995 582.315,311.14 583.326,379.018 584.338,379.207 585.35,325.607 586.362,324.559 587.373,368.925 588.385,368.34 589.397,357.742 590.408,357.269 591.42,396.24 592.432,395.807 593.443,325.976 594.455,326.034 595.467,470.904 596.478,470.77 597.49,434.445 598.502,433.351 599.514,363.996 600.525,363.936 601.537,448.72 602.549,448.788 603.56,440.787 604.572,440.668 605.584,367.177 606.595,366.593 607.607,357.688 608.619,357.471 609.631,414.076 610.642,413.804 611.654,419.275 612.666,419.389 613.677,438.421 614.689,437.982 615.701,311.103 616.712,310.466 617.724,481.495 618.736,481.8 619.748,321.497 620.759,319.788 621.771,468.717 622.783,468.213 623.794,354.262 624.806,353.471 625.818,458.879 626.829,458.144 627.841,351.994 628.853,350.95 629.865,341.001 630.876,340.985 631.888,351.922 632.9,351.067 633.911,321.359 634.923,321.189 635.935,341.508 636.946,340.998 637.958,446.181 638.97,446.042 639.982,416.239 640.993,415.96 642.005,361.015 643.017,360.124 644.028,415.258 645.04,415.095 646.052,420.558 647.063,420.053 648.075,461.616 649.087,461.409 650.098,477.953 651.11,477.918 652.122,495.943 653.134,495.135 654.145,392.441 655.157,392.466 656.169,451.427 657.18,451.352 658.192,372.575 659.204,371.545 660.215,528.912 661.227,529.299 662.239,465.642 663.251,464.067 664.262,404.75 665.274,404.804 666.286,418.318 667.297,418.36 668.309,448.053 669.321,448.065 670.332,391.891 671.344,392.039 672.356,492.465 673.368,492.312 674.379,365.452 675.391,363.758 676.403,406.199 677.414,406.15 678.426,368.18 679.438,367.632 680.449,605.062 681.461,605.351 682.473,482.08 683.485,482.064 684.496,352.158 685.508,350.751 686.52,334.194 687.531,334.085 688.543,486.466 689.555,486.532 690.566,482.563 691.578,482.185 692.59,524.29 693.602,524.245 694.613,418.559 695.625,417.908 696.637,397.731 697.648,396.919 698.66,353.393 699.672,352.791 700.683,411.948 701.695,411.398 702.707,437.246 703.718,436.759 704.73,469.494 705.742,469.32 706.754,406.944 707.765,407.026 708.777,389.418 709.789,388.757 710.8,523.817 711.812,523.595 712.824,529.325 713.835,529.468 714.847,437.304 715.859,437.238 716.871,338.084 717.882,337.168 718.894,453.105 719.906,452.378 720.917,475.273 721.929,474.998 722.941,539.476 723.952,539.453 724.964,379.813 725.976,379.193 726.988,377.116 727.999,375.472 729.011,431.244 730.023,431.117 731.034,516.064 732.046,515.802 733.058,409.043 734.069,408.55 735.081,500.502 736.093,499.886 737.105,466.751 738.116,466.542 739.128,506.877 740.14,506.673 741.151,555.813 742.163,555.809 743.175,412.359 744.186,411.322 745.198,448.764 746.21,447.915 747.222,388.615 748.233,388.295 749.245,438.876 750.257,438.32 751.268,363.002 752.28,362.298 753.292,530.213 754.303,529.45 755.315,351.443 756.327,349.663 757.338,511.092 758.35,510.751 759.362,510.968 760.374,510.542 761.385,505.68 762.397,505.933 763.409,500.197 764.42,499.225 765.432,479.172 766.444,478.998 767.455,544.594 768.467,544.344 769.479,449.079 770.491,448.67 771.502,523.436 772.514,523.303 773.526,502.117 774.537,502.005 775.549,478.368 776.561,477.548 777.572,506.47 778.584,505.994 779.596,522.867 780.608,522.75 781.619,527.717 782.631,527.061 783.643,484.057 784.654,483.561 785.666,468.489 786.678,468.406 787.689,397.476 788.701,395.279 789.713,435.768 790.725,435.68 791.736,505.76 792.748,505.249 793.76,495.678 794.771,493.338 795.783,574.689 796.795,574.667 797.806,462.129 798.818,461.26 799.83,505.563 800.841,505.295 801.853,454.855 802.865,454.774 803.877,625.374 804.888,625.465 805.9,511.013 806.912,510.766 807.923,679.166 808.935,679.224 809.947,474.415 810.958,474.074 811.97,543.71 812.982,542.738 813.994,441.469 815.005,440.693 816.017,546.985 817.029,546.811 818.04,488.963 819.052,488.54 820.064,512.152 821.075,511.976 822.087,540.586 823.099,540.372 824.111,492.775 825.122,491.916 826.134,432.728 827.146,431.813 828.157,427.794 829.169,427.608 830.181,397.794 831.192,397.631 832.204,513.017 833.216,513.02 834.228,394.476 835.239,394.147 836.251,592.997 837.263,592.325 838.274,483.842 839.286,482.482 840.298,478.989 841.309,478.775 842.321,663.671 843.333,663.614 844.345,514.292 845.356,513.693 846.368,540.545 847.38,539.842 848.391,601.834 849.403,601.755 850.415,506.502 851.426,506.01 852.438,604.79 853.45,604.853 854.461,532.427 855.473,532.214 856.485,539.454 857.497,539.236 858.508,535.389 859.52,535.093 860.532,425.153 861.543,424.57 862.555,511.702 863.567,511.147 864.578,521.744 865.59,521.278 866.602,518.318 867.614,517.625 868.625,562.29 869.637,561.972 870.649,575.628 871.66,575.453 872.672,502.912 873.684,502.1 874.695,475.451 875.707,475.215 876.719,540.21 877.731,540.115 878.742,445.94 879.754,445.36 880.766,498.617 881.777,498.43 882.789,566.648 883.801,566.157 884.812,557.182 885.824,556.62 886.836,457.498 887.848,456.639 888.859,572.347 889.871,571.893 890.883,460.963 891.894,460.595 892.906,515.147 893.918,514.264 894.929,454.863 895.941,454.509 896.953,525.657 897.965,525.296 898.976,580.853 899.988,580.737 901,568.619 902.011,568.128 903.023,557.656 904.035,557.279 905.046,503.856 906.058,503.756 907.07,520.609 908.081,520.335 909.093,549.939 910.105,549.177 911.117,594.488 912.128,593.708 913.14,514.404 914.152,513.795 915.163,537.086 916.175,536.772 917.187,434.624 918.198,433.669 919.21,570.717 920.222,570.651 921.234,613.252 922.245,613.143 923.257,566.538 924.269,566.092 925.28,571.648 926.292,571.581 927.304,704.605 928.315,704.26 929.327,600.733 930.339,600.568 931.351,572.184 932.362,571.689 933.374,482.565 934.386,482.127 935.397,519.841 936.409,519.445 937.421,459.174 938.432,458.54 939.444,566.342 940.456,565.893 941.468,605.522 942.479,604.936 943.491,421.329 944.503,420.458 945.514,476.126 946.526,475.844 947.538,597.52 948.549,597.097 949.561,530.02 950.573,529.105 951.585,449.199 952.596,448.771 953.608,583.172 954.62,582.849 955.631,619.302 956.643,618.811 957.655,665.713 958.666,665.348 959.678,547.862 960.69,547.427 961.701,515.655 962.713,515.299 963.725,479.613 964.737,479.241 965.748,552.209 966.76,551.848 967.772,645.903 968.783,645.438 969.795,513.649 970.807,513.352 971.818,674.091 972.83,673.479 973.842,689.373 974.854,689.136 975.865,626.707 976.877,626.182 977.889,584.391 978.9,584.193 979.912,597.775 980.924,597.344 981.935,599.508 982.947,599.269 983.959,459.128 984.971,458.62 985.982,557.434 986.994,556.826 988.006,654.483 989.017,654.154 990.029,581.015 991.041,579.923 992.052,542.039 993.064,541.555 994.076,628.911 995.088,628.469 996.099,587.552 997.111,587.217 998.123,527.386 999.134,526.15 1000.15,613.954 1001.16,613.778 1002.17,548.58 1003.18,548.051 1004.19,533.655 1005.2,533.311 1006.22,503.144 1007.23,502.795 1008.24,657.768 1009.25,657.169 1010.26,609.335 1011.27,608.634 1012.29,449.948 1013.3,448.563 1014.31,688.314 1015.32,687.827 1016.33,586.908 1017.34,586.756 1018.36,696.423 1019.37,696.168 1020.38,536.52 1021.39,535.882 1022.4,575.21 1023.42,574.91 1024.43,550.287 1025.44,549.99 1026.45,708.486 1027.46,708.283 1028.47,769.649 1029.49,769.256 1030.5,724.232 1031.51,724.063 1032.52,528.296 1033.53,527.891 1034.54,616.582 1035.56,616.202 1036.57,553.874 1037.58,553.072 1038.59,722.291 1039.6,721.876 1040.61,630.642 1041.63,629.269 1042.64,663.422 1043.65,662.95 1044.66,679.193 1045.67,678.963 1046.68,701.662 1047.7,701.273 1048.71,549.517 1049.72,549.036 1050.73,632.078 1051.74,631.901 1052.75,555.099 1053.77,553.693 1054.78,622.847 1055.79,622.435 1056.8,614.744 1057.81,614.292 1058.82,666.859 1059.84,666.646 1060.85,639.638 1061.86,639.303 1062.87,592.122 1063.88,591.544 1064.89,589.667 1065.91,589.149 1066.92,630.307 1067.93,629.791 1068.94,678.837 1069.95,678.611 1070.96,633.417 1071.98,632.982 1072.99,634.106 1074,633.846 1075.01,688.578 1076.02,688.351 1077.04,749.745 1078.05,749.558 1079.06,636.843 1080.07,636.606 1081.08,614.749 1082.09,614.064 1083.11,633.809 1084.12,633.464 1085.13,581.451 1086.14,580.577 1087.15,622.68 1088.16,622.269 1089.18,727.921 1090.19,727.556 1091.2,586.975 1092.21,586.444 1093.22,647.049 1094.23,646.65 1095.25,544.877 1096.26,544.598 1097.27,621.92 1098.28,621.118 1099.29,675.74 1100.3,675.295 1101.32,652.108 1102.33,651.765 1103.34,635.443 1104.35,635.12 1105.36,573.47 1106.37,572.905 1107.39,674.557 1108.4,674.189 1109.41,695.457 1110.42,694.816 1111.43,662.398 1112.44,661.97 1113.46,617.777 1114.47,617.303 1115.48,597.707 1116.49,597.233 1117.5,673.02 1118.51,672.431 1119.53,593.136 1120.54,592.679 1121.55,634.913 1122.56,634.531 1123.57,637.021 1124.58,636.598 1125.6,572.498 1126.61,572.12 1127.62,548.034 1128.63,547.608 1129.64,606.293 1130.66,605.767 1131.67,655.009 1132.68,654.713 1133.69,587.174 1134.7,586.704 1135.71,724.336 1136.73,723.867 1137.74,624.807 1138.75,624.298 1139.76,676.916 1140.77,676.62 1141.78,629.844 1142.8,629.306 1143.81,684.146 1144.82,683.355 1145.83,697.704 1146.84,697.413 1147.85,666.205 1148.87,665.764 1149.88,676.734 1150.89,676.278 1151.9,683.406 1152.91,682.634 1153.92,580.124 1154.94,579.874 1155.95,775.996 1156.96,775.471 1157.97,666.173 1158.98,665.962 1159.99,807.147 1161.01,806.977 1162.02,638.711 1163.03,638.1 1164.04,718.751 1165.05,718.456 1166.06,634.285 1167.08,633.977 1168.09,590.143 1169.1,589.284 1170.11,609.111 1171.12,608.662 1172.13,608.343 1173.15,607.986 1174.16,668.068 1175.17,667.572 1176.18,743.885 1177.19,743.52 1178.2,636.738 1179.22,636.214 1180.23,700.967 1181.24,700.64 1182.25,712.61 1183.26,712.245 1184.28,674.314 1185.29,673.82 1186.3,607.422 1187.31,606.995 1188.32,756.873 1189.33,756.353 1190.35,573.2 1191.36,572.627 1192.37,659.488 1193.38,659.125 1194.39,715.25 1195.4,714.436 1196.42,560.114 1197.43,559.673 1198.44,750.367 1199.45,750.015 1200.46,625.064 1201.47,624.402 1202.49,793.118 1203.5,792.608 1204.51,751.86 1205.52,751.121 1206.53,651.149 1207.54,650.371 1208.56,735.457 1209.57,734.7 1210.58,804.255 1211.59,803.632 1212.6,757.376 1213.61,756.574 1214.63,735.135 1215.64,734.821 1216.65,766.712 1217.66,765.82 1218.67,633.056 1219.68,632.558 1220.7,643.508 1221.71,642.947 1222.72,669.966 1223.73,669.559 1224.74,688.434 1225.75,687.995 1226.77,637.785 1227.78,637.074 1228.79,639.966 1229.8,639.456 1230.81,573.249 1231.82,572.722 1232.84,771.728 1233.85,771.231 1234.86,733.766 1235.87,733.294 1236.88,696.148 1237.9,695.595 1238.91,806.293 1239.92,805.973 1240.93,666.147 1241.94,665.475 1242.95,750.37 1243.97,749.705 1244.98,828.235 1245.99,827.804 1247,743.383 1248.01,743.03 1249.02,715.61 1250.04,715.097 1251.05,775.151 1252.06,774.608 1253.07,732.271 1254.08,731.804 1255.09,781.449 1256.11,781.205 1257.12,676.965 1258.13,676.639 1259.14,676.65 1260.15,675.494 1261.16,723.925 1262.18,723.422 1263.19,806.683 1264.2,806.338 1265.21,765.152 1266.22,764.688 1267.23,690.117 1268.25,689.608 1269.26,823.919 1270.27,823.375 1271.28,633.959 1272.29,633.61 1273.3,703.083 1274.32,702.714 1275.33,746.106 1276.34,745.587 1277.35,773.61 1278.36,773.133 1279.37,602.5 1280.39,602.011 1281.4,647.364 1282.41,647.048 1283.42,837.867 1284.43,837.36 1285.44,691.958 1286.46,691.225 1287.47,744.439 1288.48,744.075 1289.49,805.074 1290.5,804.403 1291.52,693.18 1292.53,692.564 1293.54,665.443 1294.55,664.991 1295.56,809.582 1296.57,808.567 1297.59,775.345 1298.6,774.659 1299.61,633.471 1300.62,633.188 1301.63,775.726 1302.64,775.236 1303.66,821.396 1304.67,820.932 1305.68,729.488 1306.69,729.264 1307.7,672 1308.71,671.39 1309.73,629.725 1310.74,629.214 1311.75,657.418 1312.76,656.589 1313.77,727.134 1314.78,726.642 1315.8,771.532 1316.81,771.032 1317.82,761.53 1318.83,761.245 1319.84,751.153 1320.85,750.554 1321.87,849.323 1322.88,848.764 1323.89,719.311 1324.9,718.907 1325.91,662.32 1326.92,661.683 1327.94,867.703 1328.95,867.3 1329.96,716.161 1330.97,715.66 1331.98,853.332 1332.99,852.842 1334.01,726.763 1335.02,726.268 1336.03,726.087 1337.04,725.598 1338.05,594.845 1339.06,594.568 1340.08,728.328 1341.09,727.692 1342.1,786.413 1343.11,785.823 1344.12,838.151 1345.14,837.75 1346.15,796.299 1347.16,795.746 1348.17,810.642 1349.18,810.053 1350.19,694.057 1351.21,692.815 1352.22,704.243 1353.23,703.576 1354.24,828.759 1355.25,828.182 1356.26,727.815 1357.28,727.376 1358.29,680.648 1359.3,680.289 1360.31,894.53 1361.32,893.97 1362.33,771.838 1363.35,771.244 1364.36,766.521 1365.37,765.311 1366.38,705.207 1367.39,704.657 1368.4,800.51 1369.42,799.791 1370.43,864.998 1371.44,864.488 1372.45,716.839 1373.46,716.407 1374.47,786.802 1375.49,786.339 1376.5,952.771 1377.51,952.085 1378.52,780.459 1379.53,779.646 1380.54,812.436 1381.56,811.942 1382.57,708.391 1383.58,708.151 1384.59,757.983 1385.6,757.421 1386.61,761.561 1387.63,760.887 1388.64,776.102 1389.65,775.246 1390.66,782.429 1391.67,781.829 1392.68,852.449 1393.7,851.992 1394.71,754.178 1395.72,753.465 1396.73,839.375 1397.74,838.941 1398.76,805.964 1399.77,805.083 1400.78,802.927 1401.79,802.633 1402.8,854.755 1403.81,854.043 1404.83,847.919 1405.84,847.371 1406.85,935.72 1407.86,935.419 1408.87,824.876 1409.88,824.099 1410.9,757.956 1411.91,757.694 1412.92,786.78 1413.93,786.417 1414.94,847.847 1415.95,847.062 1416.97,806.875 1417.98,806.496 1418.99,918.355 1420,917.69 1421.01,892.94 1422.02,892.414 1423.04,765.384 1424.05,764.927 1425.06,717.691 1426.07,717.091 1427.08,805.836 1428.09,805.142 1429.11,835.384 1430.12,834.956 1431.13,911.547 1432.14,911.123 1433.15,800.503 1434.16,799.899 1435.18,912.373 1436.19,911.946 1437.2,859.131 1438.21,858.491 1439.22,898.076 1440.23,897.786 1441.25,787.761 1442.26,787.153 1443.27,771.042 1444.28,770.731 1445.29,841.6 1446.3,841.04 1447.32,755.932 1448.33,755.661 1449.34,794.298 1450.35,793.99 1451.36,803.993 1452.38,803.645 1453.39,799.668 1454.4,798.858 1455.41,946.862 1456.42,946.327 1457.43,871.229 1458.45,870.587 1459.46,911.722 1460.47,911.005 1461.48,896.621 1462.49,896.204 1463.5,789.333 1464.52,788.721 1465.53,770.747 1466.54,770.045 1467.55,881.3 1468.56,880.952 1469.57,802.678 1470.59,802.249 1471.6,833.429 1472.61,832.775 1473.62,862.373 1474.63,861.732 1475.64,896.952 1476.66,896.236 1477.67,760.555 1478.68,760.201 1479.69,936.352 1480.7,935.641 1481.71,885.886 1482.73,884.493 1483.74,771.065 1484.75,770.679 1485.76,915.921 1486.77,915.333 1487.78,790.522 1488.8,790.101 1489.81,882.346 1490.82,881.788 1491.83,823.201 1492.84,822.29 1493.85,845.608 1494.87,845.247 1495.88,836.261 1496.89,835.841 1497.9,899.502 1498.91,899.028 1499.92,878.494 1500.94,878.165 1501.95,821.367 1502.96,820.308 1503.97,808.661 1504.98,808.322 1506,905.351 1507.01,904.788 1508.02,994.401 1509.03,993.723 1510.04,780.191 1511.05,779.326 1512.07,980.06 1513.08,979.796 1514.09,919.108 1515.1,918.407 1516.11,763.998 1517.12,763.618 1518.14,820.981 1519.15,820.247 1520.16,871.621 1521.17,871.305 1522.18,878.944 1523.19,878.255 1524.21,868.01 1525.22,867.055 1526.23,889.802 1527.24,889.209 1528.25,880.566 1529.26,880.141 1530.28,830.939 1531.29,830.421 1532.3,860.981 1533.31,860.257 1534.32,877.143 1535.33,876.47 1536.35,920.24 1537.36,919.682 1538.37,973.899 1539.38,973.445 1540.39,1024.81 1541.4,1024.27 1542.42,917.749 1543.43,916.974 1544.44,916.102 1545.45,915.586 1546.46,902.896 1547.47,902.307 1548.49,901.545 1549.5,900.924 1550.51,897.235 1551.52,896.481 1552.53,923.194 1553.54,922.558 1554.56,932.336 1555.57,931.977 1556.58,834.564 1557.59,833.4 1558.6,823.4 1559.62,822.855 1560.63,811.053 1561.64,810.393 1562.65,882.815 1563.66,882.258 1564.67,831.488 1565.69,831.129 1566.7,784.175 1567.71,783.834 1568.72,999.716 1569.73,999.309 1570.74,864.775 1571.76,864.131 1572.77,839.541 1573.78,839.004 1574.79,792.209 1575.8,791.808 1576.81,905.926 1577.83,905.572 1578.84,1015.1 1579.85,1014.69 1580.86,929.101 1581.87,928.368 1582.88,787.376 1583.9,786.814 1584.91,1016.83 1585.92,1016.23 1586.93,850.191 1587.94,849.58 1588.95,886.918 1589.97,885.729 1590.98,876.797 1591.99,876.356 1593,890.133 1594.01,889.607 1595.02,1025.25 1596.04,1024.41 1597.05,884.778 1598.06,884.235 1599.07,732.334 1600.08,731.856 1601.09,797.672 1602.11,797.123 1603.12,907.631 1604.13,906.823 1605.14,908.125 1606.15,907.416 1607.16,890.692 1608.18,890.294 1609.19,833.414 1610.2,832.866 1611.21,799.651 1612.22,799.063 1613.24,823.651 1614.25,823.302 1615.26,872.333 1616.27,871.467 1617.28,844.102 1618.29,843.529 1619.31,887.783 1620.32,887.552 1621.33,874.905 1622.34,874.412 1623.35,949.935 1624.36,949.111 1625.38,869.13 1626.39,868.371 1627.4,956.416 1628.41,955.764 1629.42,928.477 1630.43,928.092 1631.45,859.346 1632.46,858.771 1633.47,935.841 1634.48,935.312 1635.49,873.434 1636.5,872.985 1637.52,915.841 1638.53,915.283 1639.54,905.709 1640.55,905.034 1641.56,966.311 1642.57,965.374 1643.59,819.419 1644.6,818.667 1645.61,922.587 1646.62,922.146 1647.63,917.419 1648.64,916.935 1649.66,817.776 1650.67,817.252 1651.68,905.237 1652.69,904.854 1653.7,851.896 1654.71,851.602 1655.73,847.634 1656.74,847.22 1657.75,927.286 1658.76,926.81 1659.77,943.169 1660.78,942.781 1661.8,969.027 1662.81,968.528 1663.82,1012.39 1664.83,1011.67 1665.84,864.537 1666.86,864.021 1667.87,868.253 1668.88,867.572 1669.89,993.88 1670.9,993.322 1671.91,946.609 1672.93,945.97 1673.94,937.856 1674.95,937.516 1675.96,955.647 1676.97,954.83 1677.98,1065.94 1679,1065.39 1680.01,919.698 1681.02,918.823 1682.03,955.346 1683.04,954.468 1684.05,927.719 1685.07,927.149 1686.08,960.976 1687.09,960.4 1688.1,957.749 1689.11,956.985 1690.12,902.278 1691.14,901.816 1692.15,902.511 1693.16,901.826 1694.17,931.547 1695.18,931.129 1696.19,966.497 1697.21,966.065 1698.22,903.268 1699.23,902.871 1700.24,855.036 1701.25,854.479 1702.26,980.014 1703.28,979.4 1704.29,960.748 1705.3,960.3 1706.31,840.751 1707.32,840.206 1708.33,1011.52 1709.35,1011.1 1710.36,1013.15 1711.37,1012.55 1712.38,941.716 1713.39,941.164 1714.4,1030.24 1715.42,1029.77 1716.43,1012.02 1717.44,1011.6 1718.45,910.988 1719.46,909.971 1720.47,928.578 1721.49,927.963 1722.5,922.06 1723.51,921.468 1724.52,930.359 1725.53,929.825 1726.55,1018.17 1727.56,1017.01 1728.57,945.76 1729.58,945.254 1730.59,938.555 1731.6,938.148 1732.62,991.896 1733.63,991.336 1734.64,941.713 1735.65,941.184 1736.66,915.721 1737.67,915.002 1738.69,958.741 1739.7,958.347 1740.71,1000.6 1741.72,999.836 1742.73,1030.64 1743.74,1030.15 1744.76,903.761 1745.77,902.805 1746.78,1095.77 1747.79,1095.09 1748.8,920.549 1749.81,920.205 1750.83,1049.65 1751.84,1048.79 1752.85,1030.09 1753.86,1029.36 1754.87,993.341 1755.88,992.761 1756.9,970.141 1757.91,969.762 1758.92,1019.1 1759.93,1018.38 1760.94,893.244 1761.95,892.389 1762.97,861.863 1763.98,860.917 1764.99,904.945 1766,904.312 1767.01,1012.82 1768.02,1012.44 1769.04,923.343 1770.05,922.902 1771.06,951.574 1772.07,951.317 1773.08,1037.8 1774.09,1037.04 1775.11,922.099 1776.12,921.269 1777.13,1101.07 1778.14,1100.59 1779.15,979.663 1780.17,978.261 1781.18,961.934 1782.19,960.836 1783.2,1060.22 1784.21,1059.83 1785.22,910.261 1786.24,909.505 1787.25,985.253 1788.26,984.635 1789.27,979.618 1790.28,979.033 1791.29,914.108 1792.31,913.359 1793.32,920.492 1794.33,919.902 1795.34,1034.01 1796.35,1033.71 1797.36,1076.11 1798.38,1075.43 1799.39,1096.71 1800.4,1096.06 1801.41,911.031 1802.42,910.449 1803.43,984.525 1804.45,983.76 1805.46,1092.67 1806.47,1092.17 1807.48,989.444 1808.49,989.103 1809.5,983.845 1810.52,983.419 1811.53,1009.24 1812.54,1008.4 1813.55,1016.76 1814.56,1016.28 1815.57,1057.66 1816.59,1057.23 1817.6,958.36 1818.61,957.736 1819.62,1068.42 1820.63,1067.69 1821.64,1024.57 1822.66,1023.68 1823.67,1027.44 1824.68,1026.56 1825.69,990.877 1826.7,990.033 1827.71,923.768 1828.73,923.323 1829.74,1051.9 1830.75,1051.34 1831.76,1024.88 1832.77,1024.12 1833.79,1040.39 1834.8,1039.74 1835.81,977.379 1836.82,976.69 1837.83,1029.11 1838.84,1028.4 1839.86,975.216 1840.87,974.71 1841.88,984.989 1842.89,984.512 1843.9,967.136 1844.91,966.785 1845.93,923.97 1846.94,923.346 1847.95,1026.57 1848.96,1026.06 1849.97,982.664 1850.98,982.248 1852,1093.9 1853.01,1093.26 1854.02,1042.61 1855.03,1042.17 1856.04,1054.55 1857.05,1053.78 1858.07,987.177 1859.08,986.4 1860.09,1040.18 1861.1,1039.78 1862.11,1036.33 1863.12,1034.99 1864.14,1129.95 1865.15,1129.03 1866.16,1098.14 1867.17,1097.69 1868.18,1023.41 1869.19,1022.95 1870.21,1000.14 1871.22,999.674 1872.23,1030.85 1873.24,1030.24 1874.25,1054.38 1875.26,1053.76 1876.28,1075.2 1877.29,1074.33 1878.3,1059.15 1879.31,1058.66 1880.32,1039.32 1881.33,1038.93 1882.35,843.797 1883.36,842.986 1884.37,1131.9 1885.38,1130.41 1886.39,1146.8 1887.41,1146.45 1888.42,1060.66 1889.43,1060.01 1890.44,1040.1 1891.45,1039.61 1892.46,1004.53 1893.48,1003.92 1894.49,926.644 1895.5,925.706 1896.51,1037.56 1897.52,1036.03 1898.53,1003.35 1899.55,1002.51 1900.56,1057.5 1901.57,1056.85 1902.58,976.81 1903.59,975.885 1904.6,1034.33 1905.62,1033.39 1906.63,1025.83 1907.64,1025.39 1908.65,922.313 1909.66,921.616 1910.67,1121.13 1911.69,1120.48 1912.7,1089.12 1913.71,1088.29 1914.72,967.704 1915.73,966.916 1916.74,1123.29 1917.76,1122.53 1918.77,1009.35 1919.78,1008.85 1920.79,1056.78 1921.8,1056.18 1922.81,960.796 1923.83,960.331 1924.84,977.502 1925.85,976.368 1926.86,1087.62 1927.87,1086.62 1928.88,1085.2 1929.9,1083.51 1930.91,1066.66 1931.92,1066.17 1932.93,1088.11 1933.94,1087.19 1934.95,1033.34 1935.97,1032.84 1936.98,998.224 1937.99,997.569 1939,964.674 1940.01,964.316 1941.03,962.135 1942.04,961.479 1943.05,989.995 1944.06,989.425 1945.07,936.741 1946.08,936.01 1947.1,1079.44 1948.11,1078.82 1949.12,1087.28 1950.13,1086.89 1951.14,1127.06 1952.15,1126.58 1953.17,1104.72 1954.18,1103.89 1955.19,1105.04 1956.2,1103.69 1957.21,1087.72 1958.22,1087.06 1959.24,1038.45 1960.25,1037.94 1961.26,1082.32 1962.27,1081.8 1963.28,888.936 1964.29,888.512 1965.31,1125.69 1966.32,1124.47 1967.33,1149.18 1968.34,1148.64 1969.35,1146.96 1970.36,1146.3 1971.38,1111.57 1972.39,1111.07 1973.4,985.28 1974.41,984.795 1975.42,1093.93 1976.43,1093.22 1977.45,1125.88 1978.46,1125.08 1979.47,1153.47 1980.48,1153.08 1981.49,1063.18 1982.5,1062.58 1983.52,1149.38 1984.53,1148.7 1985.54,1056.73 1986.55,1056.14 1987.56,1064.19 1988.57,1063.36 1989.59,1158.83 1990.6,1158.22 1991.61,1052.96 1992.62,1052.36 1993.63,1066.4 1994.65,1065.63 1995.66,1058.54 1996.67,1058.22 1997.68,1249.68 1998.69,1249.26 1999.7,1098.65 2000.72,1098.08 2001.73,1052.83 2002.74,1051.74 2003.75,1101.03 2004.76,1099.28 2005.77,1092.74 2006.79,1091.74 2007.8,1180.26 2008.81,1179.53 2009.82,1229.68 2010.83,1229.23 2011.84,1072.67 2012.86,1071.97 2013.87,1049.56 2014.88,1048.49 2015.89,1082.24 2016.9,1080.85 2017.91,1136.23 2018.93,1135.63 2019.94,1131.08 2020.95,1129.95 2021.96,1088.79 2022.97,1088.02 2023.98,1022.87 2025,1022.22 2026.01,1197.48 2027.02,1196.99 2028.03,1094.59 2029.04,1093.93 2030.05,1104.34 2031.07,1103.49 2032.08,1129.98 2033.09,1129.11 2034.1,1090.41 2035.11,1087.35 2036.12,1213.23 2037.14,1212.52 2038.15,1188.7 2039.16,1187.67 2040.17,1044.94 2041.18,1044.69 2042.19,1105.03 2043.21,1103.87 2044.22,1212.71 2045.23,1212.34 2046.24,1126.36 2047.25,1125.81 2048.27,1162.75 2049.28,1162.32 2050.29,1180.05 2051.3,1179.18 2052.31,1118.29 2053.32,1117.7 2054.34,1075.9 2055.35,1075.52 2056.36,1083.87 2057.37,1082.86 2058.38,1057.88 2059.39,1057.13 2060.41,1099.26 2061.42,1098.82 2062.43,1029.21 2063.44,1027.98 2064.45,1099.13 2065.46,1098.28 2066.48,1196.92 2067.49,1196.39 2068.5,1113.87 2069.51,1113.29 2070.52,1114.09 2071.53,1113.46 2072.55,1081.79 2073.56,1080.48 2074.57,1206.83 2075.58,1206.02 2076.59,990.73 2077.6,989.769 2078.62,1224.57 2079.63,1223.61 2080.64,1165.05 2081.65,1164.27 2082.66,1120.81 2083.67,1120.13 2084.69,1129.51 2085.7,1128.02 2086.71,1109.96 2087.72,1109.39 2088.73,1142.31 2089.74,1141.5 2090.76,1080.25 2091.77,1078.54 2092.78,1046.13 2093.79,1045.28 2094.8,1224.18 2095.81,1223.68 2096.83,1138.37 2097.84,1137.24 2098.85,1154.75 2099.86,1153.63 2100.87,1127.79 2101.89,1127.02 2102.9,1216.06 2103.91,1214.64 2104.92,1226.43 2105.93,1225.16 2106.94,1189.46 2107.96,1188.68 2108.97,1073.87 2109.98,1073.21 2110.99,1137.68 2112,1136.74 2113.01,1090.58 2114.03,1089.76 2115.04,1194.33 2116.05,1193.35 2117.06,1116.01 2118.07,1115.28 2119.08,1135.24 2120.1,1134.78 2121.11,1179.76 2122.12,1178.84 2123.13,1128.27 2124.14,1127.04 2125.15,1295.98 2126.17,1295.18 2127.18,1214.98 2128.19,1213.84 2129.2,1259.48 2130.21,1258.65 2131.22,1001.28 2132.24,1000.62 2133.25,1193.48 2134.26,1192.59 2135.27,1107.35 2136.28,1105.74 2137.29,1082.28 2138.31,1081.71 2139.32,1191.39 2140.33,1190.92 2141.34,1174.72 2142.35,1174.11 2143.36,1180.24 2144.38,1179.56 2145.39,1220.78 2146.4,1220.13 2147.41,1058.96 2148.42,1058.36 2149.43,1231.45 2150.45,1229.86 2151.46,1236.3 2152.47,1235.63 2153.48,1135.3 2154.49,1134.58 2155.51,1197.32 2156.52,1196.58 2157.53,1187.47 2158.54,1186.84 2159.55,1199.51 2160.56,1198.75 2161.58,1291.4 2162.59,1290.88 2163.6,1200.45 2164.61,1199.7 2165.62,1236.02 2166.63,1235.35 2167.65,1254.32 2168.66,1253.76 2169.67,1237.93 2170.68,1237.28 2171.69,1077.19 2172.7,1076.54 2173.72,1077.38 2174.73,1076.41 2175.74,1161.83 2176.75,1160.57 2177.76,1235.67 2178.77,1235.01 2179.79,1208.61 2180.8,1207.81 2181.81,1293.01 2182.82,1292.48 2183.83,1188.39 2184.84,1187.86 2185.86,1199.95 2186.87,1198.91 2187.88,1178.84 2188.89,1177.86 2189.9,1219.62 2190.91,1219.31 2191.93,1135.69 2192.94,1135 2193.95,1110.65 2194.96,1110.1 2195.97,1197.14 2196.98,1196.39 2198,1166.76 2199.01,1165.9 2200.02,1161.12 2201.03,1160.01 2202.04,1179.8 2203.05,1179.17 2204.07,1254.32 2205.08,1253.4 2206.09,1160.56 2207.1,1159.69 2208.11,1268.45 2209.13,1267.72 2210.14,1250.86 2211.15,1250.35 2212.16,1225.37 2213.17,1224.79 2214.18,1316.01 2215.2,1315.28 2216.21,1445.72 2217.22,1444.55 2218.23,1216.39 2219.24,1215.1 2220.25,1299.53 2221.27,1299.13 2222.28,1186.84 2223.29,1186.08 2224.3,1157.06 2225.31,1156.54 2226.32,1278 2227.34,1277.32 2228.35,1322.53 2229.36,1321.88 2230.37,1281 2231.38,1280.05 2232.39,1268.09 2233.41,1267.19 2234.42,1304.67 2235.43,1303.9 2236.44,1415.78 2237.45,1414.43 2238.46,1214.99 2239.48,1214.47 2240.49,1176.57 2241.5,1176.2 2242.51,1194.42 2243.52,1193.58 2244.53,1289.93 2245.55,1288.8 2246.56,1336.61 2247.57,1336.14 2248.58,1245.47 2249.59,1242.65 2250.6,1199.83 2251.62,1199.17 2252.63,1270.51 2253.64,1269.21 2254.65,1343.65 2255.66,1342.61 2256.67,1231.3 2257.69,1230.72 2258.7,1249.64 2259.71,1248.81 2260.72,1324.53 2261.73,1323.6 2262.75,1197.58 2263.76,1196.81 2264.77,1213.18 2265.78,1212.46 2266.79,1223 2267.8,1221.12 2268.82,1392.19 2269.83,1391.66 2270.84,1229.47 2271.85,1228.66 2272.86,1298.49 2273.87,1297.67 2274.89,1333.52 2275.9,1332.7 2276.91,1292.25 2277.92,1291.25 2278.93,1319.82 2279.94,1317.9 2280.96,1308.66 2281.97,1307.53 2282.98,1182.25 2283.99,1181.45 2285,1203.61 2286.01,1202.52 2287.03,1218.53 2288.04,1218.04 2289.05,1348.37 2290.06,1347.83 2291.07,1212.31 2292.08,1210.99 "/>
<path clip-path="url(#clip390)" d="M2014.5 198.898 L2281.3 198.898 L2281.3 95.2176 L2014.5 95.2176  Z" fill="#ffffff" fill-rule="evenodd" fill-opacity="1"/>
<polyline clip-path="url(#clip390)" style="stroke:#000000; stroke-linecap:round; stroke-linejoin:round; stroke-width:4; stroke-opacity:1; fill:none" points="2014.5,198.898 2281.3,198.898 2281.3,95.2176 2014.5,95.2176 2014.5,198.898 "/>
<polyline clip-path="url(#clip390)" style="stroke:#009af9; stroke-linecap:round; stroke-linejoin:round; stroke-width:4; stroke-opacity:1; fill:none" points="2038.31,147.058 2181.23,147.058 "/>
<path clip-path="url(#clip390)" d="M2218.89 166.745 Q2217.09 171.375 2215.37 172.787 Q2213.66 174.199 2210.79 174.199 L2207.39 174.199 L2207.39 170.634 L2209.89 170.634 Q2211.65 170.634 2212.62 169.8 Q2213.59 168.967 2214.77 165.865 L2215.53 163.921 L2205.05 138.412 L2209.56 138.412 L2217.66 158.689 L2225.77 138.412 L2230.28 138.412 L2218.89 166.745 Z" fill="#000000" fill-rule="nonzero" fill-opacity="1" /><path clip-path="url(#clip390)" d="M2237.57 160.402 L2245.21 160.402 L2245.21 134.037 L2236.9 135.703 L2236.9 131.444 L2245.16 129.778 L2249.84 129.778 L2249.84 160.402 L2257.48 160.402 L2257.48 164.338 L2237.57 164.338 L2237.57 160.402 Z" fill="#000000" fill-rule="nonzero" fill-opacity="1" /></svg>
