<?xml version="1.0" encoding="utf-8"?>
<svg xmlns="http://www.w3.org/2000/svg" xmlns:xlink="http://www.w3.org/1999/xlink" width="600" height="400" viewBox="0 0 2400 1600">
<defs>
  <clipPath id="clip160">
    <rect x="0" y="0" width="2400" height="1600"/>
  </clipPath>
</defs>
<path clip-path="url(#clip160)" d="M0 1600 L2400 1600 L2400 0 L0 0  Z" fill="#ffffff" fill-rule="evenodd" fill-opacity="1"/>
<defs>
  <clipPath id="clip161">
    <rect x="480" y="0" width="1681" height="1600"/>
  </clipPath>
</defs>
<path clip-path="url(#clip160)" d="M140.696 1486.45 L2352.76 1486.45 L2352.76 47.2441 L140.696 47.2441  Z" fill="#ffffff" fill-rule="evenodd" fill-opacity="1"/>
<defs>
  <clipPath id="clip162">
    <rect x="140" y="47" width="2213" height="1440"/>
  </clipPath>
</defs>
<polyline clip-path="url(#clip162)" style="stroke:#000000; stroke-linecap:round; stroke-linejoin:round; stroke-width:2; stroke-opacity:0.1; fill:none" points="203.301,1486.45 203.301,47.2441 "/>
<polyline clip-path="url(#clip162)" style="stroke:#000000; stroke-linecap:round; stroke-linejoin:round; stroke-width:2; stroke-opacity:0.1; fill:none" points="725.013,1486.45 725.013,47.2441 "/>
<polyline clip-path="url(#clip162)" style="stroke:#000000; stroke-linecap:round; stroke-linejoin:round; stroke-width:2; stroke-opacity:0.1; fill:none" points="1246.73,1486.45 1246.73,47.2441 "/>
<polyline clip-path="url(#clip162)" style="stroke:#000000; stroke-linecap:round; stroke-linejoin:round; stroke-width:2; stroke-opacity:0.1; fill:none" points="1768.44,1486.45 1768.44,47.2441 "/>
<polyline clip-path="url(#clip162)" style="stroke:#000000; stroke-linecap:round; stroke-linejoin:round; stroke-width:2; stroke-opacity:0.1; fill:none" points="2290.15,1486.45 2290.15,47.2441 "/>
<polyline clip-path="url(#clip160)" style="stroke:#000000; stroke-linecap:round; stroke-linejoin:round; stroke-width:4; stroke-opacity:1; fill:none" points="140.696,1486.45 2352.76,1486.45 "/>
<polyline clip-path="url(#clip160)" style="stroke:#000000; stroke-linecap:round; stroke-linejoin:round; stroke-width:4; stroke-opacity:1; fill:none" points="203.301,1486.45 203.301,1467.55 "/>
<polyline clip-path="url(#clip160)" style="stroke:#000000; stroke-linecap:round; stroke-linejoin:round; stroke-width:4; stroke-opacity:1; fill:none" points="725.013,1486.45 725.013,1467.55 "/>
<polyline clip-path="url(#clip160)" style="stroke:#000000; stroke-linecap:round; stroke-linejoin:round; stroke-width:4; stroke-opacity:1; fill:none" points="1246.73,1486.45 1246.73,1467.55 "/>
<polyline clip-path="url(#clip160)" style="stroke:#000000; stroke-linecap:round; stroke-linejoin:round; stroke-width:4; stroke-opacity:1; fill:none" points="1768.44,1486.45 1768.44,1467.55 "/>
<polyline clip-path="url(#clip160)" style="stroke:#000000; stroke-linecap:round; stroke-linejoin:round; stroke-width:4; stroke-opacity:1; fill:none" points="2290.15,1486.45 2290.15,1467.55 "/>
<path clip-path="url(#clip160)" d="M203.301 1517.37 Q199.69 1517.37 197.861 1520.93 Q196.056 1524.47 196.056 1531.6 Q196.056 1538.71 197.861 1542.27 Q199.69 1545.82 203.301 1545.82 Q206.935 1545.82 208.741 1542.27 Q210.57 1538.71 210.57 1531.6 Q210.57 1524.47 208.741 1520.93 Q206.935 1517.37 203.301 1517.37 M203.301 1513.66 Q209.111 1513.66 212.167 1518.27 Q215.245 1522.85 215.245 1531.6 Q215.245 1540.33 212.167 1544.94 Q209.111 1549.52 203.301 1549.52 Q197.491 1549.52 194.412 1544.94 Q191.357 1540.33 191.357 1531.6 Q191.357 1522.85 194.412 1518.27 Q197.491 1513.66 203.301 1513.66 Z" fill="#000000" fill-rule="nonzero" fill-opacity="1" /><path clip-path="url(#clip160)" d="M684.632 1514.29 L702.988 1514.29 L702.988 1518.22 L688.914 1518.22 L688.914 1526.7 Q689.933 1526.35 690.951 1526.19 Q691.97 1526 692.988 1526 Q698.775 1526 702.155 1529.17 Q705.534 1532.34 705.534 1537.76 Q705.534 1543.34 702.062 1546.44 Q698.59 1549.52 692.27 1549.52 Q690.095 1549.52 687.826 1549.15 Q685.581 1548.78 683.173 1548.04 L683.173 1543.34 Q685.257 1544.47 687.479 1545.03 Q689.701 1545.58 692.178 1545.58 Q696.183 1545.58 698.52 1543.48 Q700.858 1541.37 700.858 1537.76 Q700.858 1534.15 698.52 1532.04 Q696.183 1529.94 692.178 1529.94 Q690.303 1529.94 688.428 1530.35 Q686.576 1530.77 684.632 1531.65 L684.632 1514.29 Z" fill="#000000" fill-rule="nonzero" fill-opacity="1" /><path clip-path="url(#clip160)" d="M724.747 1517.37 Q721.136 1517.37 719.307 1520.93 Q717.502 1524.47 717.502 1531.6 Q717.502 1538.71 719.307 1542.27 Q721.136 1545.82 724.747 1545.82 Q728.381 1545.82 730.187 1542.27 Q732.016 1538.71 732.016 1531.6 Q732.016 1524.47 730.187 1520.93 Q728.381 1517.37 724.747 1517.37 M724.747 1513.66 Q730.557 1513.66 733.613 1518.27 Q736.692 1522.85 736.692 1531.6 Q736.692 1540.33 733.613 1544.94 Q730.557 1549.52 724.747 1549.52 Q718.937 1549.52 715.858 1544.94 Q712.803 1540.33 712.803 1531.6 Q712.803 1522.85 715.858 1518.27 Q718.937 1513.66 724.747 1513.66 Z" fill="#000000" fill-rule="nonzero" fill-opacity="1" /><path clip-path="url(#clip160)" d="M754.909 1517.37 Q751.298 1517.37 749.469 1520.93 Q747.664 1524.47 747.664 1531.6 Q747.664 1538.71 749.469 1542.27 Q751.298 1545.82 754.909 1545.82 Q758.543 1545.82 760.349 1542.27 Q762.178 1538.71 762.178 1531.6 Q762.178 1524.47 760.349 1520.93 Q758.543 1517.37 754.909 1517.37 M754.909 1513.66 Q760.719 1513.66 763.775 1518.27 Q766.853 1522.85 766.853 1531.6 Q766.853 1540.33 763.775 1544.94 Q760.719 1549.52 754.909 1549.52 Q749.099 1549.52 746.02 1544.94 Q742.965 1540.33 742.965 1531.6 Q742.965 1522.85 746.02 1518.27 Q749.099 1513.66 754.909 1513.66 Z" fill="#000000" fill-rule="nonzero" fill-opacity="1" /><path clip-path="url(#clip160)" d="M1191.25 1544.91 L1198.89 1544.91 L1198.89 1518.55 L1190.58 1520.21 L1190.58 1515.95 L1198.84 1514.29 L1203.52 1514.29 L1203.52 1544.91 L1211.16 1544.91 L1211.16 1548.85 L1191.25 1548.85 L1191.25 1544.91 Z" fill="#000000" fill-rule="nonzero" fill-opacity="1" /><path clip-path="url(#clip160)" d="M1230.6 1517.37 Q1226.99 1517.37 1225.16 1520.93 Q1223.36 1524.47 1223.36 1531.6 Q1223.36 1538.71 1225.16 1542.27 Q1226.99 1545.82 1230.6 1545.82 Q1234.24 1545.82 1236.04 1542.27 Q1237.87 1538.71 1237.87 1531.6 Q1237.87 1524.47 1236.04 1520.93 Q1234.24 1517.37 1230.6 1517.37 M1230.6 1513.66 Q1236.41 1513.66 1239.47 1518.27 Q1242.55 1522.85 1242.55 1531.6 Q1242.55 1540.33 1239.47 1544.94 Q1236.41 1549.52 1230.6 1549.52 Q1224.79 1549.52 1221.71 1544.94 Q1218.66 1540.33 1218.66 1531.6 Q1218.66 1522.85 1221.71 1518.27 Q1224.79 1513.66 1230.6 1513.66 Z" fill="#000000" fill-rule="nonzero" fill-opacity="1" /><path clip-path="url(#clip160)" d="M1260.77 1517.37 Q1257.15 1517.37 1255.33 1520.93 Q1253.52 1524.47 1253.52 1531.6 Q1253.52 1538.71 1255.33 1542.27 Q1257.15 1545.82 1260.77 1545.82 Q1264.4 1545.82 1266.2 1542.27 Q1268.03 1538.71 1268.03 1531.6 Q1268.03 1524.47 1266.2 1520.93 Q1264.4 1517.37 1260.77 1517.37 M1260.77 1513.66 Q1266.58 1513.66 1269.63 1518.27 Q1272.71 1522.85 1272.71 1531.6 Q1272.71 1540.33 1269.63 1544.94 Q1266.58 1549.52 1260.77 1549.52 Q1254.95 1549.52 1251.88 1544.94 Q1248.82 1540.33 1248.82 1531.6 Q1248.82 1522.85 1251.88 1518.27 Q1254.95 1513.66 1260.77 1513.66 Z" fill="#000000" fill-rule="nonzero" fill-opacity="1" /><path clip-path="url(#clip160)" d="M1290.93 1517.37 Q1287.32 1517.37 1285.49 1520.93 Q1283.68 1524.47 1283.68 1531.6 Q1283.68 1538.71 1285.49 1542.27 Q1287.32 1545.82 1290.93 1545.82 Q1294.56 1545.82 1296.37 1542.27 Q1298.2 1538.71 1298.2 1531.6 Q1298.2 1524.47 1296.37 1520.93 Q1294.56 1517.37 1290.93 1517.37 M1290.93 1513.66 Q1296.74 1513.66 1299.79 1518.27 Q1302.87 1522.85 1302.87 1531.6 Q1302.87 1540.33 1299.79 1544.94 Q1296.74 1549.52 1290.93 1549.52 Q1285.12 1549.52 1282.04 1544.94 Q1278.98 1540.33 1278.98 1531.6 Q1278.98 1522.85 1282.04 1518.27 Q1285.12 1513.66 1290.93 1513.66 Z" fill="#000000" fill-rule="nonzero" fill-opacity="1" /><path clip-path="url(#clip160)" d="M1712.96 1544.91 L1720.6 1544.91 L1720.6 1518.55 L1712.29 1520.21 L1712.29 1515.95 L1720.56 1514.29 L1725.23 1514.29 L1725.23 1544.91 L1732.87 1544.91 L1732.87 1548.85 L1712.96 1548.85 L1712.96 1544.91 Z" fill="#000000" fill-rule="nonzero" fill-opacity="1" /><path clip-path="url(#clip160)" d="M1742.36 1514.29 L1760.72 1514.29 L1760.72 1518.22 L1746.64 1518.22 L1746.64 1526.7 Q1747.66 1526.35 1748.68 1526.19 Q1749.7 1526 1750.72 1526 Q1756.51 1526 1759.88 1529.17 Q1763.26 1532.34 1763.26 1537.76 Q1763.26 1543.34 1759.79 1546.44 Q1756.32 1549.52 1750 1549.52 Q1747.82 1549.52 1745.56 1549.15 Q1743.31 1548.78 1740.9 1548.04 L1740.9 1543.34 Q1742.99 1544.47 1745.21 1545.03 Q1747.43 1545.58 1749.91 1545.58 Q1753.91 1545.58 1756.25 1543.48 Q1758.59 1541.37 1758.59 1537.76 Q1758.59 1534.15 1756.25 1532.04 Q1753.91 1529.94 1749.91 1529.94 Q1748.03 1529.94 1746.16 1530.35 Q1744.31 1530.77 1742.36 1531.65 L1742.36 1514.29 Z" fill="#000000" fill-rule="nonzero" fill-opacity="1" /><path clip-path="url(#clip160)" d="M1782.48 1517.37 Q1778.87 1517.37 1777.04 1520.93 Q1775.23 1524.47 1775.23 1531.6 Q1775.23 1538.71 1777.04 1542.27 Q1778.87 1545.82 1782.48 1545.82 Q1786.11 1545.82 1787.92 1542.27 Q1789.75 1538.71 1789.75 1531.6 Q1789.75 1524.47 1787.92 1520.93 Q1786.11 1517.37 1782.48 1517.37 M1782.48 1513.66 Q1788.29 1513.66 1791.34 1518.27 Q1794.42 1522.85 1794.42 1531.6 Q1794.42 1540.33 1791.34 1544.94 Q1788.29 1549.52 1782.48 1549.52 Q1776.67 1549.52 1773.59 1544.94 Q1770.53 1540.33 1770.53 1531.6 Q1770.53 1522.85 1773.59 1518.27 Q1776.67 1513.66 1782.48 1513.66 Z" fill="#000000" fill-rule="nonzero" fill-opacity="1" /><path clip-path="url(#clip160)" d="M1812.64 1517.37 Q1809.03 1517.37 1807.2 1520.93 Q1805.39 1524.47 1805.39 1531.6 Q1805.39 1538.71 1807.2 1542.27 Q1809.03 1545.82 1812.64 1545.82 Q1816.27 1545.82 1818.08 1542.27 Q1819.91 1538.71 1819.91 1531.6 Q1819.91 1524.47 1818.08 1520.93 Q1816.27 1517.37 1812.64 1517.37 M1812.64 1513.66 Q1818.45 1513.66 1821.5 1518.27 Q1824.58 1522.85 1824.58 1531.6 Q1824.58 1540.33 1821.5 1544.94 Q1818.45 1549.52 1812.64 1549.52 Q1806.83 1549.52 1803.75 1544.94 Q1800.69 1540.33 1800.69 1531.6 Q1800.69 1522.85 1803.75 1518.27 Q1806.83 1513.66 1812.64 1513.66 Z" fill="#000000" fill-rule="nonzero" fill-opacity="1" /><path clip-path="url(#clip160)" d="M2238.76 1544.91 L2255.08 1544.91 L2255.08 1548.85 L2233.14 1548.85 L2233.14 1544.91 Q2235.8 1542.16 2240.38 1537.53 Q2244.99 1532.88 2246.17 1531.53 Q2248.41 1529.01 2249.29 1527.27 Q2250.2 1525.51 2250.2 1523.82 Q2250.2 1521.07 2248.25 1519.33 Q2246.33 1517.6 2243.23 1517.6 Q2241.03 1517.6 2238.58 1518.36 Q2236.15 1519.13 2233.37 1520.68 L2233.37 1515.95 Q2236.19 1514.82 2238.65 1514.24 Q2241.1 1513.66 2243.14 1513.66 Q2248.51 1513.66 2251.7 1516.35 Q2254.9 1519.03 2254.9 1523.52 Q2254.9 1525.65 2254.09 1527.57 Q2253.3 1529.47 2251.19 1532.07 Q2250.61 1532.74 2247.51 1535.95 Q2244.41 1539.15 2238.76 1544.91 Z" fill="#000000" fill-rule="nonzero" fill-opacity="1" /><path clip-path="url(#clip160)" d="M2274.9 1517.37 Q2271.28 1517.37 2269.46 1520.93 Q2267.65 1524.47 2267.65 1531.6 Q2267.65 1538.71 2269.46 1542.27 Q2271.28 1545.82 2274.9 1545.82 Q2278.53 1545.82 2280.34 1542.27 Q2282.16 1538.71 2282.16 1531.6 Q2282.16 1524.47 2280.34 1520.93 Q2278.53 1517.37 2274.9 1517.37 M2274.9 1513.66 Q2280.71 1513.66 2283.76 1518.27 Q2286.84 1522.85 2286.84 1531.6 Q2286.84 1540.33 2283.76 1544.94 Q2280.71 1549.52 2274.9 1549.52 Q2269.09 1549.52 2266.01 1544.94 Q2262.95 1540.33 2262.95 1531.6 Q2262.95 1522.85 2266.01 1518.27 Q2269.09 1513.66 2274.9 1513.66 Z" fill="#000000" fill-rule="nonzero" fill-opacity="1" /><path clip-path="url(#clip160)" d="M2305.06 1517.37 Q2301.45 1517.37 2299.62 1520.93 Q2297.81 1524.47 2297.81 1531.6 Q2297.81 1538.71 2299.62 1542.27 Q2301.45 1545.82 2305.06 1545.82 Q2308.69 1545.82 2310.5 1542.27 Q2312.33 1538.71 2312.33 1531.6 Q2312.33 1524.47 2310.5 1520.93 Q2308.69 1517.37 2305.06 1517.37 M2305.06 1513.66 Q2310.87 1513.66 2313.92 1518.27 Q2317 1522.85 2317 1531.6 Q2317 1540.33 2313.92 1544.94 Q2310.87 1549.52 2305.06 1549.52 Q2299.25 1549.52 2296.17 1544.94 Q2293.11 1540.33 2293.11 1531.6 Q2293.11 1522.85 2296.17 1518.27 Q2299.25 1513.66 2305.06 1513.66 Z" fill="#000000" fill-rule="nonzero" fill-opacity="1" /><path clip-path="url(#clip160)" d="M2335.22 1517.37 Q2331.61 1517.37 2329.78 1520.93 Q2327.97 1524.47 2327.97 1531.6 Q2327.97 1538.71 2329.78 1542.27 Q2331.61 1545.82 2335.22 1545.82 Q2338.85 1545.82 2340.66 1542.27 Q2342.49 1538.71 2342.49 1531.6 Q2342.49 1524.47 2340.66 1520.93 Q2338.85 1517.37 2335.22 1517.37 M2335.22 1513.66 Q2341.03 1513.66 2344.09 1518.27 Q2347.16 1522.85 2347.16 1531.6 Q2347.16 1540.33 2344.09 1544.94 Q2341.03 1549.52 2335.22 1549.52 Q2329.41 1549.52 2326.33 1544.94 Q2323.28 1540.33 2323.28 1531.6 Q2323.28 1522.85 2326.33 1518.27 Q2329.41 1513.66 2335.22 1513.66 Z" fill="#000000" fill-rule="nonzero" fill-opacity="1" /><polyline clip-path="url(#clip162)" style="stroke:#000000; stroke-linecap:round; stroke-linejoin:round; stroke-width:2; stroke-opacity:0.1; fill:none" points="140.696,1270.85 2352.76,1270.85 "/>
<polyline clip-path="url(#clip162)" style="stroke:#000000; stroke-linecap:round; stroke-linejoin:round; stroke-width:2; stroke-opacity:0.1; fill:none" points="140.696,975.663 2352.76,975.663 "/>
<polyline clip-path="url(#clip162)" style="stroke:#000000; stroke-linecap:round; stroke-linejoin:round; stroke-width:2; stroke-opacity:0.1; fill:none" points="140.696,680.471 2352.76,680.471 "/>
<polyline clip-path="url(#clip162)" style="stroke:#000000; stroke-linecap:round; stroke-linejoin:round; stroke-width:2; stroke-opacity:0.1; fill:none" points="140.696,385.279 2352.76,385.279 "/>
<polyline clip-path="url(#clip162)" style="stroke:#000000; stroke-linecap:round; stroke-linejoin:round; stroke-width:2; stroke-opacity:0.1; fill:none" points="140.696,90.087 2352.76,90.087 "/>
<polyline clip-path="url(#clip160)" style="stroke:#000000; stroke-linecap:round; stroke-linejoin:round; stroke-width:4; stroke-opacity:1; fill:none" points="140.696,1486.45 140.696,47.2441 "/>
<polyline clip-path="url(#clip160)" style="stroke:#000000; stroke-linecap:round; stroke-linejoin:round; stroke-width:4; stroke-opacity:1; fill:none" points="140.696,1270.85 159.593,1270.85 "/>
<polyline clip-path="url(#clip160)" style="stroke:#000000; stroke-linecap:round; stroke-linejoin:round; stroke-width:4; stroke-opacity:1; fill:none" points="140.696,975.663 159.593,975.663 "/>
<polyline clip-path="url(#clip160)" style="stroke:#000000; stroke-linecap:round; stroke-linejoin:round; stroke-width:4; stroke-opacity:1; fill:none" points="140.696,680.471 159.593,680.471 "/>
<polyline clip-path="url(#clip160)" style="stroke:#000000; stroke-linecap:round; stroke-linejoin:round; stroke-width:4; stroke-opacity:1; fill:none" points="140.696,385.279 159.593,385.279 "/>
<polyline clip-path="url(#clip160)" style="stroke:#000000; stroke-linecap:round; stroke-linejoin:round; stroke-width:4; stroke-opacity:1; fill:none" points="140.696,90.087 159.593,90.087 "/>
<path clip-path="url(#clip160)" d="M52.9134 1284.2 L60.5523 1284.2 L60.5523 1257.83 L52.2421 1259.5 L52.2421 1255.24 L60.506 1253.57 L65.1819 1253.57 L65.1819 1284.2 L72.8207 1284.2 L72.8207 1288.13 L52.9134 1288.13 L52.9134 1284.2 Z" fill="#000000" fill-rule="nonzero" fill-opacity="1" /><path clip-path="url(#clip160)" d="M95.1123 1257.65 L83.3068 1276.1 L95.1123 1276.1 L95.1123 1257.65 M93.8854 1253.57 L99.765 1253.57 L99.765 1276.1 L104.696 1276.1 L104.696 1279.99 L99.765 1279.99 L99.765 1288.13 L95.1123 1288.13 L95.1123 1279.99 L79.5105 1279.99 L79.5105 1275.47 L93.8854 1253.57 Z" fill="#000000" fill-rule="nonzero" fill-opacity="1" /><path clip-path="url(#clip160)" d="M53.2375 989.008 L60.8763 989.008 L60.8763 962.642 L52.5662 964.309 L52.5662 960.049 L60.83 958.383 L65.5059 958.383 L65.5059 989.008 L73.1448 989.008 L73.1448 992.943 L53.2375 992.943 L53.2375 989.008 Z" fill="#000000" fill-rule="nonzero" fill-opacity="1" /><path clip-path="url(#clip160)" d="M93.1678 973.799 Q90.0197 973.799 88.1679 975.952 Q86.3392 978.105 86.3392 981.855 Q86.3392 985.582 88.1679 987.758 Q90.0197 989.91 93.1678 989.91 Q96.316 989.91 98.1447 987.758 Q99.9965 985.582 99.9965 981.855 Q99.9965 978.105 98.1447 975.952 Q96.316 973.799 93.1678 973.799 M102.45 959.147 L102.45 963.406 Q100.691 962.573 98.8854 962.133 Q97.103 961.693 95.3437 961.693 Q90.7141 961.693 88.2604 964.818 Q85.8299 967.943 85.4827 974.262 Q86.8484 972.248 88.9086 971.184 Q90.9688 970.096 93.4456 970.096 Q98.6539 970.096 101.663 973.267 Q104.696 976.415 104.696 981.855 Q104.696 987.179 101.547 990.396 Q98.3993 993.614 93.1678 993.614 Q87.1725 993.614 84.0012 989.031 Q80.8299 984.424 80.8299 975.697 Q80.8299 967.503 84.7188 962.642 Q88.6077 957.758 95.1586 957.758 Q96.9178 957.758 98.7002 958.105 Q100.506 958.452 102.45 959.147 Z" fill="#000000" fill-rule="nonzero" fill-opacity="1" /><path clip-path="url(#clip160)" d="M53.4921 693.816 L61.131 693.816 L61.131 667.45 L52.8208 669.117 L52.8208 664.857 L61.0847 663.191 L65.7606 663.191 L65.7606 693.816 L73.3994 693.816 L73.3994 697.751 L53.4921 697.751 L53.4921 693.816 Z" fill="#000000" fill-rule="nonzero" fill-opacity="1" /><path clip-path="url(#clip160)" d="M92.8438 681.339 Q89.5104 681.339 87.5892 683.121 Q85.691 684.904 85.691 688.029 Q85.691 691.154 87.5892 692.936 Q89.5104 694.718 92.8438 694.718 Q96.1771 694.718 98.0984 692.936 Q100.02 691.131 100.02 688.029 Q100.02 684.904 98.0984 683.121 Q96.2002 681.339 92.8438 681.339 M88.1679 679.348 Q85.1586 678.607 83.4688 676.547 Q81.8021 674.487 81.8021 671.524 Q81.8021 667.381 84.7419 664.973 Q87.7049 662.566 92.8438 662.566 Q98.0058 662.566 100.946 664.973 Q103.885 667.381 103.885 671.524 Q103.885 674.487 102.196 676.547 Q100.529 678.607 97.5428 679.348 Q100.922 680.135 102.797 682.427 Q104.696 684.718 104.696 688.029 Q104.696 693.052 101.617 695.737 Q98.5613 698.422 92.8438 698.422 Q87.1262 698.422 84.0475 695.737 Q80.992 693.052 80.992 688.029 Q80.992 684.718 82.8901 682.427 Q84.7882 680.135 88.1679 679.348 M86.4549 671.964 Q86.4549 674.649 88.1216 676.154 Q89.8114 677.658 92.8438 677.658 Q95.853 677.658 97.5428 676.154 Q99.2558 674.649 99.2558 671.964 Q99.2558 669.279 97.5428 667.774 Q95.853 666.27 92.8438 666.27 Q89.8114 666.27 88.1216 667.774 Q86.4549 669.279 86.4549 671.964 Z" fill="#000000" fill-rule="nonzero" fill-opacity="1" /><path clip-path="url(#clip160)" d="M56.6171 398.624 L72.9365 398.624 L72.9365 402.559 L50.9921 402.559 L50.9921 398.624 Q53.6541 395.869 58.2375 391.24 Q62.8439 386.587 64.0245 385.244 Q66.2698 382.721 67.1494 380.985 Q68.0522 379.226 68.0522 377.536 Q68.0522 374.781 66.1078 373.045 Q64.1865 371.309 61.0847 371.309 Q58.8856 371.309 56.4319 372.073 Q54.0014 372.837 51.2236 374.388 L51.2236 369.666 Q54.0477 368.531 56.5014 367.953 Q58.955 367.374 60.9921 367.374 Q66.3624 367.374 69.5568 370.059 Q72.7513 372.744 72.7513 377.235 Q72.7513 379.365 71.9411 381.286 Q71.1541 383.184 69.0476 385.777 Q68.4689 386.448 65.367 389.665 Q62.2652 392.86 56.6171 398.624 Z" fill="#000000" fill-rule="nonzero" fill-opacity="1" /><path clip-path="url(#clip160)" d="M92.7512 371.078 Q89.1401 371.078 87.3114 374.642 Q85.5058 378.184 85.5058 385.314 Q85.5058 392.42 87.3114 395.985 Q89.1401 399.527 92.7512 399.527 Q96.3854 399.527 98.1909 395.985 Q100.02 392.42 100.02 385.314 Q100.02 378.184 98.1909 374.642 Q96.3854 371.078 92.7512 371.078 M92.7512 367.374 Q98.5613 367.374 101.617 371.98 Q104.696 376.564 104.696 385.314 Q104.696 394.04 101.617 398.647 Q98.5613 403.23 92.7512 403.23 Q86.941 403.23 83.8623 398.647 Q80.8068 394.04 80.8068 385.314 Q80.8068 376.564 83.8623 371.98 Q86.941 367.374 92.7512 367.374 Z" fill="#000000" fill-rule="nonzero" fill-opacity="1" /><path clip-path="url(#clip160)" d="M58.2143 103.432 L74.5337 103.432 L74.5337 107.367 L52.5893 107.367 L52.5893 103.432 Q55.2514 100.677 59.8347 96.0477 Q64.4411 91.3949 65.6217 90.0523 Q67.867 87.5292 68.7467 85.7931 Q69.6494 84.0338 69.6494 82.344 Q69.6494 79.5894 67.705 77.8533 Q65.7837 76.1172 62.6819 76.1172 Q60.4828 76.1172 58.0291 76.8811 Q55.5986 77.645 52.8208 79.1959 L52.8208 74.4737 Q55.6449 73.3395 58.0986 72.7608 Q60.5523 72.182 62.5893 72.182 Q67.9596 72.182 71.1541 74.8672 Q74.3485 77.5524 74.3485 82.0431 Q74.3485 84.1727 73.5383 86.094 Q72.7513 87.9922 70.6448 90.5847 Q70.0661 91.256 66.9643 94.4736 Q63.8624 97.668 58.2143 103.432 Z" fill="#000000" fill-rule="nonzero" fill-opacity="1" /><path clip-path="url(#clip160)" d="M88.3762 103.432 L104.696 103.432 L104.696 107.367 L82.7512 107.367 L82.7512 103.432 Q85.4132 100.677 89.9965 96.0477 Q94.603 91.3949 95.7836 90.0523 Q98.0289 87.5292 98.9085 85.7931 Q99.8113 84.0338 99.8113 82.344 Q99.8113 79.5894 97.8669 77.8533 Q95.9456 76.1172 92.8438 76.1172 Q90.6447 76.1172 88.191 76.8811 Q85.7605 77.645 82.9827 79.1959 L82.9827 74.4737 Q85.8068 73.3395 88.2604 72.7608 Q90.7141 72.182 92.7512 72.182 Q98.1215 72.182 101.316 74.8672 Q104.51 77.5524 104.51 82.0431 Q104.51 84.1727 103.7 86.094 Q102.913 87.9922 100.807 90.5847 Q100.228 91.256 97.1261 94.4736 Q94.0243 97.668 88.3762 103.432 Z" fill="#000000" fill-rule="nonzero" fill-opacity="1" /><polyline clip-path="url(#clip162)" style="stroke:#009af9; stroke-linecap:round; stroke-linejoin:round; stroke-width:4; stroke-opacity:1; fill:none" points="203.301,87.9763 204.344,147.747 205.388,203.554 206.431,255.908 207.475,305.211 208.518,351.78 209.562,395.862 210.605,437.655 211.648,477.314 212.692,514.967 213.735,550.72 214.779,584.664 215.822,616.883 216.866,647.45 217.909,676.438 218.952,703.916 219.996,729.954 221.039,754.619 222.083,777.979 223.126,800.099 224.17,821.046 225.213,840.883 226.256,859.673 227.3,877.477 228.343,894.353 229.387,910.355 230.43,925.539 231.473,939.952 232.517,953.645 233.56,966.66 234.604,979.042 235.647,990.828 236.691,1002.06 237.734,1012.76 238.777,1022.98 239.821,1032.73 240.864,1042.05 241.908,1050.97 242.951,1059.5 243.995,1067.67 245.038,1075.51 246.081,1083.02 247.125,1090.24 248.168,1097.17 249.212,1103.83 250.255,1110.25 251.299,1116.42 252.342,1122.36 253.385,1128.1 254.429,1133.63 255.472,1138.96 256.516,1144.12 257.559,1149.1 258.603,1153.92 259.646,1158.58 260.689,1163.09 261.733,1167.46 262.776,1171.69 263.82,1175.8 264.863,1179.78 265.907,1183.64 266.95,1187.39 267.993,1191.04 269.037,1194.58 270.08,1198.03 271.124,1201.38 272.167,1204.64 273.21,1207.81 274.254,1210.9 275.297,1213.91 276.341,1216.85 277.384,1219.71 278.428,1222.5 279.471,1225.22 280.514,1227.88 281.558,1230.48 282.601,1233.02 283.645,1235.49 284.688,1237.92 285.732,1240.28 286.775,1242.6 287.818,1244.86 288.862,1247.08 289.905,1249.25 290.949,1251.38 291.992,1253.46 293.036,1255.5 294.079,1257.5 295.122,1259.46 296.166,1261.38 297.209,1263.26 298.253,1265.11 299.296,1266.92 300.34,1268.7 301.383,1270.45 302.426,1272.16 303.47,1273.84 304.513,1275.5 305.557,1277.12 306.6,1278.72 307.643,1280.29 308.687,1281.83 309.73,1283.35 310.774,1284.84 311.817,1286.31 312.861,1287.76 313.904,1289.18 314.947,1290.58 315.991,1291.95 317.034,1293.31 318.078,1294.64 319.121,1295.96 320.165,1297.25 321.208,1298.53 322.251,1299.79 323.295,1301.02 324.338,1302.25 325.382,1303.45 326.425,1304.64 327.469,1305.81 328.512,1306.96 329.555,1308.1 330.599,1309.22 331.642,1310.33 332.686,1311.42 333.729,1312.5 334.773,1313.56 335.816,1314.61 336.859,1315.65 337.903,1316.67 338.946,1317.68 339.99,1318.68 341.033,1319.66 342.077,1320.64 343.12,1321.6 344.163,1322.55 345.207,1323.49 346.25,1324.41 347.294,1325.33 348.337,1326.24 349.38,1327.13 350.424,1328.02 351.467,1328.89 352.511,1329.75 353.554,1330.61 354.598,1331.45 355.641,1332.29 356.684,1333.12 357.728,1333.93 358.771,1334.74 359.815,1335.54 360.858,1336.33 361.902,1337.11 362.945,1337.89 363.988,1338.65 365.032,1339.41 366.075,1340.16 367.119,1340.9 368.162,1341.64 369.206,1342.37 370.249,1343.09 371.292,1343.8 372.336,1344.5 373.379,1345.2 374.423,1345.89 375.466,1346.58 376.51,1347.26 377.553,1347.93 378.596,1348.59 379.64,1349.25 380.683,1349.9 381.727,1350.55 382.77,1351.19 383.813,1351.82 384.857,1352.45 385.9,1353.07 386.944,1353.69 387.987,1354.3 389.031,1354.91 390.074,1355.51 391.117,1356.1 392.161,1356.69 393.204,1357.27 394.248,1357.85 395.291,1358.42 396.335,1358.99 397.378,1359.55 398.421,1360.11 399.465,1360.66 400.508,1361.21 401.552,1361.76 402.595,1362.29 403.639,1362.83 404.682,1363.36 405.725,1363.88 406.769,1364.4 407.812,1364.92 408.856,1365.43 409.899,1365.94 410.943,1366.44 411.986,1366.94 413.029,1367.44 414.073,1367.93 415.116,1368.41 416.16,1368.9 417.203,1369.38 418.247,1369.85 419.29,1370.32 420.333,1370.79 421.377,1371.25 422.42,1371.71 423.464,1372.17 424.507,1372.62 425.55,1373.07 426.594,1373.52 427.637,1373.96 428.681,1374.4 429.724,1374.83 430.768,1375.26 431.811,1375.69 432.854,1376.12 433.898,1376.54 434.941,1376.96 435.985,1377.37 437.028,1377.78 438.072,1378.19 439.115,1378.6 440.158,1379 441.202,1379.4 442.245,1379.8 443.289,1380.19 444.332,1380.58 445.376,1380.97 446.419,1381.36 447.462,1381.74 448.506,1382.12 449.549,1382.49 450.593,1382.87 451.636,1383.24 452.68,1383.61 453.723,1383.97 454.766,1384.33 455.81,1384.69 456.853,1385.05 457.897,1385.41 458.94,1385.76 459.984,1386.11 461.027,1386.46 462.07,1386.8 463.114,1387.14 464.157,1387.48 465.201,1387.82 466.244,1388.16 467.287,1388.49 468.331,1388.82 469.374,1389.15 470.418,1389.47 471.461,1389.8 472.505,1390.12 473.548,1390.44 474.591,1390.75 475.635,1391.07 476.678,1391.38 477.722,1391.69 478.765,1392 479.809,1392.3 480.852,1392.61 481.895,1392.91 482.939,1393.21 483.982,1393.51 485.026,1393.8 486.069,1394.09 487.113,1394.39 488.156,1394.67 489.199,1394.96 490.243,1395.25 491.286,1395.53 492.33,1395.81 493.373,1396.09 494.417,1396.37 495.46,1396.65 496.503,1396.92 497.547,1397.19 498.59,1397.46 499.634,1397.73 500.677,1398 501.72,1398.26 502.764,1398.53 503.807,1398.79 504.851,1399.05 505.894,1399.31 506.938,1399.56 507.981,1399.82 509.024,1400.07 510.068,1400.32 511.111,1400.57 512.155,1400.82 513.198,1401.07 514.242,1401.31 515.285,1401.56 516.328,1401.8 517.372,1402.04 518.415,1402.28 519.459,1402.51 520.502,1402.75 521.546,1402.98 522.589,1403.22 523.632,1403.45 524.676,1403.68 525.719,1403.9 526.763,1404.13 527.806,1404.36 528.85,1404.58 529.893,1404.8 530.936,1405.02 531.98,1405.24 533.023,1405.46 534.067,1405.68 535.11,1405.89 536.154,1406.11 537.197,1406.32 538.24,1406.53 539.284,1406.74 540.327,1406.95 541.371,1407.16 542.414,1407.36 543.457,1407.57 544.501,1407.77 545.544,1407.97 546.588,1408.17 547.631,1408.37 548.675,1408.57 549.718,1408.77 550.761,1408.96 551.805,1409.16 552.848,1409.35 553.892,1409.54 554.935,1409.73 555.979,1409.92 557.022,1410.11 558.065,1410.3 559.109,1410.49 560.152,1410.67 561.196,1410.86 562.239,1411.04 563.283,1411.22 564.326,1411.4 565.369,1411.58 566.413,1411.76 567.456,1411.94 568.5,1412.11 569.543,1412.29 570.587,1412.46 571.63,1412.64 572.673,1412.81 573.717,1412.98 574.76,1413.15 575.804,1413.32 576.847,1413.48 577.89,1413.65 578.934,1413.82 579.977,1413.98 581.021,1414.15 582.064,1414.31 583.108,1414.47 584.151,1414.63 585.194,1414.79 586.238,1414.95 587.281,1415.11 588.325,1415.26 589.368,1415.42 590.412,1415.58 591.455,1415.73 592.498,1415.88 593.542,1416.04 594.585,1416.19 595.629,1416.34 596.672,1416.49 597.716,1416.64 598.759,1416.78 599.802,1416.93 600.846,1417.08 601.889,1417.22 602.933,1417.37 603.976,1417.51 605.02,1417.65 606.063,1417.79 607.106,1417.94 608.15,1418.08 609.193,1418.21 610.237,1418.35 611.28,1418.49 612.324,1418.63 613.367,1418.76 614.41,1418.9 615.454,1419.03 616.497,1419.17 617.541,1419.3 618.584,1419.43 619.627,1419.56 620.671,1419.69 621.714,1419.82 622.758,1419.95 623.801,1420.08 624.845,1420.21 625.888,1420.33 626.931,1420.46 627.975,1420.59 629.018,1420.71 630.062,1420.83 631.105,1420.96 632.149,1421.08 633.192,1421.2 634.235,1421.32 635.279,1421.44 636.322,1421.56 637.366,1421.68 638.409,1421.8 639.453,1421.92 640.496,1422.03 641.539,1422.15 642.583,1422.26 643.626,1422.38 644.67,1422.49 645.713,1422.61 646.757,1422.72 647.8,1422.83 648.843,1422.94 649.887,1423.05 650.93,1423.16 651.974,1423.27 653.017,1423.38 654.06,1423.49 655.104,1423.6 656.147,1423.7 657.191,1423.81 658.234,1423.92 659.278,1424.02 660.321,1424.13 661.364,1424.23 662.408,1424.33 663.451,1424.44 664.495,1424.54 665.538,1424.64 666.582,1424.74 667.625,1424.84 668.668,1424.94 669.712,1425.04 670.755,1425.14 671.799,1425.24 672.842,1425.34 673.886,1425.43 674.929,1425.53 675.972,1425.63 677.016,1425.72 678.059,1425.82 679.103,1425.91 680.146,1426 681.19,1426.1 682.233,1426.19 683.276,1426.28 684.32,1426.37 685.363,1426.47 686.407,1426.56 687.45,1426.65 688.494,1426.74 689.537,1426.82 690.58,1426.91 691.624,1427 692.667,1427.09 693.711,1427.18 694.754,1427.26 695.797,1427.35 696.841,1427.43 697.884,1427.52 698.928,1427.6 699.971,1427.69 701.015,1427.77 702.058,1427.86 703.101,1427.94 704.145,1428.02 705.188,1428.1 706.232,1428.18 707.275,1428.27 708.319,1428.35 709.362,1428.43 710.405,1428.51 711.449,1428.59 712.492,1428.66 713.536,1428.74 714.579,1428.82 715.623,1428.9 716.666,1428.97 717.709,1429.05 718.753,1429.13 719.796,1429.2 720.84,1429.28 721.883,1429.35 722.927,1429.43 723.97,1429.5 725.013,1429.58 726.057,1429.65 727.1,1429.72 728.144,1429.79 729.187,1429.87 730.23,1429.94 731.274,1430.01 732.317,1430.08 733.361,1430.15 734.404,1430.22 735.448,1430.29 736.491,1430.36 737.534,1430.43 738.578,1430.5 739.621,1430.56 740.665,1430.63 741.708,1430.7 742.752,1430.77 743.795,1430.83 744.838,1430.9 745.882,1430.97 746.925,1431.03 747.969,1431.1 749.012,1431.16 750.056,1431.23 751.099,1431.29 752.142,1431.35 753.186,1431.42 754.229,1431.48 755.273,1431.54 756.316,1431.61 757.36,1431.67 758.403,1431.73 759.446,1431.79 760.49,1431.85 761.533,1431.91 762.577,1431.97 763.62,1432.03 764.664,1432.09 765.707,1432.15 766.75,1432.21 767.794,1432.27 768.837,1432.33 769.881,1432.39 770.924,1432.45 771.967,1432.5 773.011,1432.56 774.054,1432.62 775.098,1432.67 776.141,1432.73 777.185,1432.79 778.228,1432.84 779.271,1432.9 780.315,1432.95 781.358,1433.01 782.402,1433.06 783.445,1433.12 784.489,1433.17 785.532,1433.22 786.575,1433.28 787.619,1433.33 788.662,1433.38 789.706,1433.43 790.749,1433.49 791.793,1433.54 792.836,1433.59 793.879,1433.64 794.923,1433.69 795.966,1433.74 797.01,1433.79 798.053,1433.84 799.097,1433.89 800.14,1433.94 801.183,1433.99 802.227,1434.04 803.27,1434.09 804.314,1434.14 805.357,1434.19 806.401,1434.24 807.444,1434.28 808.487,1434.33 809.531,1434.38 810.574,1434.43 811.618,1434.47 812.661,1434.52 813.704,1434.57 814.748,1434.61 815.791,1434.66 816.835,1434.7 817.878,1434.75 818.922,1434.8 819.965,1434.84 821.008,1434.89 822.052,1434.93 823.095,1434.97 824.139,1435.02 825.182,1435.06 826.226,1435.11 827.269,1435.15 828.312,1435.19 829.356,1435.23 830.399,1435.28 831.443,1435.32 832.486,1435.36 833.53,1435.4 834.573,1435.45 835.616,1435.49 836.66,1435.53 837.703,1435.57 838.747,1435.61 839.79,1435.65 840.834,1435.69 841.877,1435.73 842.92,1435.77 843.964,1435.81 845.007,1435.85 846.051,1435.89 847.094,1435.93 848.137,1435.97 849.181,1436.01 850.224,1436.05 851.268,1436.09 852.311,1436.12 853.355,1436.16 854.398,1436.2 855.441,1436.24 856.485,1436.27 857.528,1436.31 858.572,1436.35 859.615,1436.39 860.659,1436.42 861.702,1436.46 862.745,1436.49 863.789,1436.53 864.832,1436.57 865.876,1436.6 866.919,1436.64 867.963,1436.67 869.006,1436.71 870.049,1436.74 871.093,1436.78 872.136,1436.81 873.18,1436.85 874.223,1436.88 875.267,1436.92 876.31,1436.95 877.353,1436.98 878.397,1437.02 879.44,1437.05 880.484,1437.08 881.527,1437.12 882.571,1437.15 883.614,1437.18 884.657,1437.22 885.701,1437.25 886.744,1437.28 887.788,1437.31 888.831,1437.34 889.874,1437.38 890.918,1437.41 891.961,1437.44 893.005,1437.47 894.048,1437.5 895.092,1437.53 896.135,1437.56 897.178,1437.59 898.222,1437.63 899.265,1437.66 900.309,1437.69 901.352,1437.72 902.396,1437.75 903.439,1437.78 904.482,1437.81 905.526,1437.83 906.569,1437.86 907.613,1437.89 908.656,1437.92 909.7,1437.95 910.743,1437.98 911.786,1438.01 912.83,1438.04 913.873,1438.07 914.917,1438.09 915.96,1438.12 917.004,1438.15 918.047,1438.18 919.09,1438.2 920.134,1438.23 921.177,1438.26 922.221,1438.29 923.264,1438.31 924.307,1438.34 925.351,1438.37 926.394,1438.39 927.438,1438.42 928.481,1438.45 929.525,1438.47 930.568,1438.5 931.611,1438.53 932.655,1438.55 933.698,1438.58 934.742,1438.6 935.785,1438.63 936.829,1438.65 937.872,1438.68 938.915,1438.7 939.959,1438.73 941.002,1438.75 942.046,1438.78 943.089,1438.8 944.133,1438.83 945.176,1438.85 946.219,1438.88 947.263,1438.9 948.306,1438.93 949.35,1438.95 950.393,1438.97 951.437,1439 952.48,1439.02 953.523,1439.04 954.567,1439.07 955.61,1439.09 956.654,1439.11 957.697,1439.14 958.741,1439.16 959.784,1439.18 960.827,1439.21 961.871,1439.23 962.914,1439.25 963.958,1439.27 965.001,1439.3 966.044,1439.32 967.088,1439.34 968.131,1439.36 969.175,1439.38 970.218,1439.41 971.262,1439.43 972.305,1439.45 973.348,1439.47 974.392,1439.49 975.435,1439.51 976.479,1439.54 977.522,1439.56 978.566,1439.58 979.609,1439.6 980.652,1439.62 981.696,1439.64 982.739,1439.66 983.783,1439.68 984.826,1439.7 985.87,1439.72 986.913,1439.74 987.956,1439.76 989,1439.78 990.043,1439.8 991.087,1439.82 992.13,1439.84 993.174,1439.86 994.217,1439.88 995.26,1439.9 996.304,1439.92 997.347,1439.94 998.391,1439.96 999.434,1439.98 1000.48,1440 1001.52,1440.01 1002.56,1440.03 1003.61,1440.05 1004.65,1440.07 1005.69,1440.09 1006.74,1440.11 1007.78,1440.13 1008.82,1440.15 1009.87,1440.16 1010.91,1440.18 1011.96,1440.2 1013,1440.22 1014.04,1440.24 1015.09,1440.25 1016.13,1440.27 1017.17,1440.29 1018.22,1440.31 1019.26,1440.32 1020.3,1440.34 1021.35,1440.36 1022.39,1440.38 1023.43,1440.39 1024.48,1440.41 1025.52,1440.43 1026.56,1440.44 1027.61,1440.46 1028.65,1440.48 1029.69,1440.5 1030.74,1440.51 1031.78,1440.53 1032.82,1440.55 1033.87,1440.56 1034.91,1440.58 1035.95,1440.59 1037,1440.61 1038.04,1440.63 1039.08,1440.64 1040.13,1440.66 1041.17,1440.67 1042.21,1440.69 1043.26,1440.71 1044.3,1440.72 1045.34,1440.74 1046.39,1440.75 1047.43,1440.77 1048.48,1440.78 1049.52,1440.8 1050.56,1440.82 1051.61,1440.83 1052.65,1440.85 1053.69,1440.86 1054.74,1440.88 1055.78,1440.89 1056.82,1440.91 1057.87,1440.92 1058.91,1440.94 1059.95,1440.95 1061,1440.96 1062.04,1440.98 1063.08,1440.99 1064.13,1441.01 1065.17,1441.02 1066.21,1441.04 1067.26,1441.05 1068.3,1441.07 1069.34,1441.08 1070.39,1441.09 1071.43,1441.11 1072.47,1441.12 1073.52,1441.14 1074.56,1441.15 1075.6,1441.16 1076.65,1441.18 1077.69,1441.19 1078.73,1441.21 1079.78,1441.22 1080.82,1441.23 1081.86,1441.25 1082.91,1441.26 1083.95,1441.27 1084.99,1441.29 1086.04,1441.3 1087.08,1441.31 1088.13,1441.33 1089.17,1441.34 1090.21,1441.35 1091.26,1441.36 1092.3,1441.38 1093.34,1441.39 1094.39,1441.4 1095.43,1441.42 1096.47,1441.43 1097.52,1441.44 1098.56,1441.45 1099.6,1441.47 1100.65,1441.48 1101.69,1441.49 1102.73,1441.5 1103.78,1441.52 1104.82,1441.53 1105.86,1441.54 1106.91,1441.55 1107.95,1441.57 1108.99,1441.58 1110.04,1441.59 1111.08,1441.6 1112.12,1441.61 1113.17,1441.63 1114.21,1441.64 1115.25,1441.65 1116.3,1441.66 1117.34,1441.67 1118.38,1441.68 1119.43,1441.7 1120.47,1441.71 1121.51,1441.72 1122.56,1441.73 1123.6,1441.74 1124.65,1441.75 1125.69,1441.76 1126.73,1441.78 1127.78,1441.79 1128.82,1441.8 1129.86,1441.81 1130.91,1441.82 1131.95,1441.83 1132.99,1441.84 1134.04,1441.85 1135.08,1441.86 1136.12,1441.88 1137.17,1441.89 1138.21,1441.9 1139.25,1441.91 1140.3,1441.92 1141.34,1441.93 1142.38,1441.94 1143.43,1441.95 1144.47,1441.96 1145.51,1441.97 1146.56,1441.98 1147.6,1441.99 1148.64,1442 1149.69,1442.01 1150.73,1442.02 1151.77,1442.03 1152.82,1442.04 1153.86,1442.05 1154.9,1442.06 1155.95,1442.07 1156.99,1442.08 1158.03,1442.09 1159.08,1442.1 1160.12,1442.11 1161.16,1442.12 1162.21,1442.13 1163.25,1442.14 1164.3,1442.15 1165.34,1442.16 1166.38,1442.17 1167.43,1442.18 1168.47,1442.19 1169.51,1442.2 1170.56,1442.21 1171.6,1442.22 1172.64,1442.23 1173.69,1442.24 1174.73,1442.25 1175.77,1442.26 1176.82,1442.27 1177.86,1442.28 1178.9,1442.29 1179.95,1442.3 1180.99,1442.31 1182.03,1442.32 1183.08,1442.32 1184.12,1442.33 1185.16,1442.34 1186.21,1442.35 1187.25,1442.36 1188.29,1442.37 1189.34,1442.38 1190.38,1442.39 1191.42,1442.4 1192.47,1442.41 1193.51,1442.41 1194.55,1442.42 1195.6,1442.43 1196.64,1442.44 1197.68,1442.45 1198.73,1442.46 1199.77,1442.47 1200.82,1442.48 1201.86,1442.48 1202.9,1442.49 1203.95,1442.5 1204.99,1442.51 1206.03,1442.52 1207.08,1442.53 1208.12,1442.54 1209.16,1442.54 1210.21,1442.55 1211.25,1442.56 1212.29,1442.57 1213.34,1442.58 1214.38,1442.58 1215.42,1442.59 1216.47,1442.6 1217.51,1442.61 1218.55,1442.62 1219.6,1442.63 1220.64,1442.63 1221.68,1442.64 1222.73,1442.65 1223.77,1442.66 1224.81,1442.67 1225.86,1442.67 1226.9,1442.68 1227.94,1442.69 1228.99,1442.7 1230.03,1442.71 1231.07,1442.71 1232.12,1442.72 1233.16,1442.73 1234.2,1442.74 1235.25,1442.74 1236.29,1442.75 1237.33,1442.76 1238.38,1442.77 1239.42,1442.77 1240.47,1442.78 1241.51,1442.79 1242.55,1442.8 1243.6,1442.8 1244.64,1442.81 1245.68,1442.82 1246.73,1442.83 1247.77,1442.83 1248.81,1442.84 1249.86,1442.85 1250.9,1442.86 1251.94,1442.86 1252.99,1442.87 1254.03,1442.88 1255.07,1442.88 1256.12,1442.89 1257.16,1442.9 1258.2,1442.91 1259.25,1442.91 1260.29,1442.92 1261.33,1442.93 1262.38,1442.93 1263.42,1442.94 1264.46,1442.95 1265.51,1442.96 1266.55,1442.96 1267.59,1442.97 1268.64,1442.98 1269.68,1442.98 1270.72,1442.99 1271.77,1443 1272.81,1443 1273.85,1443.01 1274.9,1443.02 1275.94,1443.02 1276.99,1443.03 1278.03,1443.04 1279.07,1443.04 1280.12,1443.05 1281.16,1443.06 1282.2,1443.06 1283.25,1443.07 1284.29,1443.08 1285.33,1443.08 1286.38,1443.09 1287.42,1443.1 1288.46,1443.1 1289.51,1443.11 1290.55,1443.12 1291.59,1443.12 1292.64,1443.13 1293.68,1443.14 1294.72,1443.14 1295.77,1443.15 1296.81,1443.15 1297.85,1443.16 1298.9,1443.17 1299.94,1443.17 1300.98,1443.18 1302.03,1443.19 1303.07,1443.19 1304.11,1443.2 1305.16,1443.2 1306.2,1443.21 1307.24,1443.22 1308.29,1443.22 1309.33,1443.23 1310.37,1443.23 1311.42,1443.24 1312.46,1443.25 1313.5,1443.25 1314.55,1443.26 1315.59,1443.26 1316.64,1443.27 1317.68,1443.28 1318.72,1443.28 1319.77,1443.29 1320.81,1443.29 1321.85,1443.3 1322.9,1443.31 1323.94,1443.31 1324.98,1443.32 1326.03,1443.32 1327.07,1443.33 1328.11,1443.34 1329.16,1443.34 1330.2,1443.35 1331.24,1443.35 1332.29,1443.36 1333.33,1443.36 1334.37,1443.37 1335.42,1443.38 1336.46,1443.38 1337.5,1443.39 1338.55,1443.39 1339.59,1443.4 1340.63,1443.4 1341.68,1443.41 1342.72,1443.41 1343.76,1443.42 1344.81,1443.43 1345.85,1443.43 1346.89,1443.44 1347.94,1443.44 1348.98,1443.45 1350.02,1443.45 1351.07,1443.46 1352.11,1443.46 1353.16,1443.47 1354.2,1443.47 1355.24,1443.48 1356.29,1443.49 1357.33,1443.49 1358.37,1443.5 1359.42,1443.5 1360.46,1443.51 1361.5,1443.51 1362.55,1443.52 1363.59,1443.52 1364.63,1443.53 1365.68,1443.53 1366.72,1443.54 1367.76,1443.54 1368.81,1443.55 1369.85,1443.55 1370.89,1443.56 1371.94,1443.56 1372.98,1443.57 1374.02,1443.57 1375.07,1443.58 1376.11,1443.58 1377.15,1443.59 1378.2,1443.59 1379.24,1443.6 1380.28,1443.6 1381.33,1443.61 1382.37,1443.61 1383.41,1443.62 1384.46,1443.62 1385.5,1443.63 1386.54,1443.63 1387.59,1443.64 1388.63,1443.64 1389.67,1443.65 1390.72,1443.65 1391.76,1443.66 1392.81,1443.66 1393.85,1443.67 1394.89,1443.67 1395.94,1443.68 1396.98,1443.68 1398.02,1443.69 1399.07,1443.69 1400.11,1443.7 1401.15,1443.7 1402.2,1443.71 1403.24,1443.71 1404.28,1443.72 1405.33,1443.72 1406.37,1443.73 1407.41,1443.73 1408.46,1443.73 1409.5,1443.74 1410.54,1443.74 1411.59,1443.75 1412.63,1443.75 1413.67,1443.76 1414.72,1443.76 1415.76,1443.77 1416.8,1443.77 1417.85,1443.78 1418.89,1443.78 1419.93,1443.79 1420.98,1443.79 1422.02,1443.79 1423.06,1443.8 1424.11,1443.8 1425.15,1443.81 1426.19,1443.81 1427.24,1443.82 1428.28,1443.82 1429.33,1443.83 1430.37,1443.83 1431.41,1443.83 1432.46,1443.84 1433.5,1443.84 1434.54,1443.85 1435.59,1443.85 1436.63,1443.86 1437.67,1443.86 1438.72,1443.86 1439.76,1443.87 1440.8,1443.87 1441.85,1443.88 1442.89,1443.88 1443.93,1443.89 1444.98,1443.89 1446.02,1443.89 1447.06,1443.9 1448.11,1443.9 1449.15,1443.91 1450.19,1443.91 1451.24,1443.92 1452.28,1443.92 1453.32,1443.92 1454.37,1443.93 1455.41,1443.93 1456.45,1443.94 1457.5,1443.94 1458.54,1443.95 1459.58,1443.95 1460.63,1443.95 1461.67,1443.96 1462.71,1443.96 1463.76,1443.97 1464.8,1443.97 1465.84,1443.97 1466.89,1443.98 1467.93,1443.98 1468.98,1443.99 1470.02,1443.99 1471.06,1443.99 1472.11,1444 1473.15,1444 1474.19,1444.01 1475.24,1444.01 1476.28,1444.01 1477.32,1444.02 1478.37,1444.02 1479.41,1444.03 1480.45,1444.03 1481.5,1444.03 1482.54,1444.04 1483.58,1444.04 1484.63,1444.05 1485.67,1444.05 1486.71,1444.05 1487.76,1444.06 1488.8,1444.06 1489.84,1444.06 1490.89,1444.07 1491.93,1444.07 1492.97,1444.08 1494.02,1444.08 1495.06,1444.08 1496.1,1444.09 1497.15,1444.09 1498.19,1444.1 1499.23,1444.1 1500.28,1444.1 1501.32,1444.11 1502.36,1444.11 1503.41,1444.11 1504.45,1444.12 1505.5,1444.12 1506.54,1444.13 1507.58,1444.13 1508.63,1444.13 1509.67,1444.14 1510.71,1444.14 1511.76,1444.14 1512.8,1444.15 1513.84,1444.15 1514.89,1444.16 1515.93,1444.16 1516.97,1444.16 1518.02,1444.17 1519.06,1444.17 1520.1,1444.17 1521.15,1444.18 1522.19,1444.18 1523.23,1444.18 1524.28,1444.19 1525.32,1444.19 1526.36,1444.19 1527.41,1444.2 1528.45,1444.2 1529.49,1444.21 1530.54,1444.21 1531.58,1444.21 1532.62,1444.22 1533.67,1444.22 1534.71,1444.22 1535.75,1444.23 1536.8,1444.23 1537.84,1444.23 1538.88,1444.24 1539.93,1444.24 1540.97,1444.24 1542.01,1444.25 1543.06,1444.25 1544.1,1444.25 1545.15,1444.26 1546.19,1444.26 1547.23,1444.26 1548.28,1444.27 1549.32,1444.27 1550.36,1444.27 1551.41,1444.28 1552.45,1444.28 1553.49,1444.29 1554.54,1444.29 1555.58,1444.29 1556.62,1444.3 1557.67,1444.3 1558.71,1444.3 1559.75,1444.31 1560.8,1444.31 1561.84,1444.31 1562.88,1444.32 1563.93,1444.32 1564.97,1444.32 1566.01,1444.33 1567.06,1444.33 1568.1,1444.33 1569.14,1444.33 1570.19,1444.34 1571.23,1444.34 1572.27,1444.34 1573.32,1444.35 1574.36,1444.35 1575.4,1444.35 1576.45,1444.36 1577.49,1444.36 1578.53,1444.36 1579.58,1444.37 1580.62,1444.37 1581.67,1444.37 1582.71,1444.38 1583.75,1444.38 1584.8,1444.38 1585.84,1444.39 1586.88,1444.39 1587.93,1444.39 1588.97,1444.4 1590.01,1444.4 1591.06,1444.4 1592.1,1444.41 1593.14,1444.41 1594.19,1444.41 1595.23,1444.41 1596.27,1444.42 1597.32,1444.42 1598.36,1444.42 1599.4,1444.43 1600.45,1444.43 1601.49,1444.43 1602.53,1444.44 1603.58,1444.44 1604.62,1444.44 1605.66,1444.45 1606.71,1444.45 1607.75,1444.45 1608.79,1444.45 1609.84,1444.46 1610.88,1444.46 1611.92,1444.46 1612.97,1444.47 1614.01,1444.47 1615.05,1444.47 1616.1,1444.48 1617.14,1444.48 1618.18,1444.48 1619.23,1444.48 1620.27,1444.49 1621.32,1444.49 1622.36,1444.49 1623.4,1444.5 1624.45,1444.5 1625.49,1444.5 1626.53,1444.51 1627.58,1444.51 1628.62,1444.51 1629.66,1444.51 1630.71,1444.52 1631.75,1444.52 1632.79,1444.52 1633.84,1444.53 1634.88,1444.53 1635.92,1444.53 1636.97,1444.53 1638.01,1444.54 1639.05,1444.54 1640.1,1444.54 1641.14,1444.55 1642.18,1444.55 1643.23,1444.55 1644.27,1444.56 1645.31,1444.56 1646.36,1444.56 1647.4,1444.56 1648.44,1444.57 1649.49,1444.57 1650.53,1444.57 1651.57,1444.57 1652.62,1444.58 1653.66,1444.58 1654.7,1444.58 1655.75,1444.59 1656.79,1444.59 1657.84,1444.59 1658.88,1444.59 1659.92,1444.6 1660.97,1444.6 1662.01,1444.6 1663.05,1444.61 1664.1,1444.61 1665.14,1444.61 1666.18,1444.61 1667.23,1444.62 1668.27,1444.62 1669.31,1444.62 1670.36,1444.62 1671.4,1444.63 1672.44,1444.63 1673.49,1444.63 1674.53,1444.64 1675.57,1444.64 1676.62,1444.64 1677.66,1444.64 1678.7,1444.65 1679.75,1444.65 1680.79,1444.65 1681.83,1444.65 1682.88,1444.66 1683.92,1444.66 1684.96,1444.66 1686.01,1444.67 1687.05,1444.67 1688.09,1444.67 1689.14,1444.67 1690.18,1444.68 1691.22,1444.68 1692.27,1444.68 1693.31,1444.68 1694.35,1444.69 1695.4,1444.69 1696.44,1444.69 1697.49,1444.69 1698.53,1444.7 1699.57,1444.7 1700.62,1444.7 1701.66,1444.7 1702.7,1444.71 1703.75,1444.71 1704.79,1444.71 1705.83,1444.72 1706.88,1444.72 1707.92,1444.72 1708.96,1444.72 1710.01,1444.73 1711.05,1444.73 1712.09,1444.73 1713.14,1444.73 1714.18,1444.74 1715.22,1444.74 1716.27,1444.74 1717.31,1444.74 1718.35,1444.75 1719.4,1444.75 1720.44,1444.75 1721.48,1444.75 1722.53,1444.76 1723.57,1444.76 1724.61,1444.76 1725.66,1444.76 1726.7,1444.77 1727.74,1444.77 1728.79,1444.77 1729.83,1444.77 1730.87,1444.78 1731.92,1444.78 1732.96,1444.78 1734.01,1444.78 1735.05,1444.79 1736.09,1444.79 1737.14,1444.79 1738.18,1444.79 1739.22,1444.8 1740.27,1444.8 1741.31,1444.8 1742.35,1444.8 1743.4,1444.81 1744.44,1444.81 1745.48,1444.81 1746.53,1444.81 1747.57,1444.81 1748.61,1444.82 1749.66,1444.82 1750.7,1444.82 1751.74,1444.82 1752.79,1444.83 1753.83,1444.83 1754.87,1444.83 1755.92,1444.83 1756.96,1444.84 1758,1444.84 1759.05,1444.84 1760.09,1444.84 1761.13,1444.85 1762.18,1444.85 1763.22,1444.85 1764.26,1444.85 1765.31,1444.86 1766.35,1444.86 1767.39,1444.86 1768.44,1444.86 1769.48,1444.86 1770.52,1444.87 1771.57,1444.87 1772.61,1444.87 1773.66,1444.87 1774.7,1444.88 1775.74,1444.88 1776.79,1444.88 1777.83,1444.88 1778.87,1444.89 1779.92,1444.89 1780.96,1444.89 1782,1444.89 1783.05,1444.89 1784.09,1444.9 1785.13,1444.9 1786.18,1444.9 1787.22,1444.9 1788.26,1444.91 1789.31,1444.91 1790.35,1444.91 1791.39,1444.91 1792.44,1444.92 1793.48,1444.92 1794.52,1444.92 1795.57,1444.92 1796.61,1444.92 1797.65,1444.93 1798.7,1444.93 1799.74,1444.93 1800.78,1444.93 1801.83,1444.94 1802.87,1444.94 1803.91,1444.94 1804.96,1444.94 1806,1444.94 1807.04,1444.95 1808.09,1444.95 1809.13,1444.95 1810.18,1444.95 1811.22,1444.96 1812.26,1444.96 1813.31,1444.96 1814.35,1444.96 1815.39,1444.96 1816.44,1444.97 1817.48,1444.97 1818.52,1444.97 1819.57,1444.97 1820.61,1444.97 1821.65,1444.98 1822.7,1444.98 1823.74,1444.98 1824.78,1444.98 1825.83,1444.99 1826.87,1444.99 1827.91,1444.99 1828.96,1444.99 1830,1444.99 1831.04,1445 1832.09,1445 1833.13,1445 1834.17,1445 1835.22,1445.01 1836.26,1445.01 1837.3,1445.01 1838.35,1445.01 1839.39,1445.01 1840.43,1445.02 1841.48,1445.02 1842.52,1445.02 1843.56,1445.02 1844.61,1445.02 1845.65,1445.03 1846.69,1445.03 1847.74,1445.03 1848.78,1445.03 1849.83,1445.03 1850.87,1445.04 1851.91,1445.04 1852.96,1445.04 1854,1445.04 1855.04,1445.04 1856.09,1445.05 1857.13,1445.05 1858.17,1445.05 1859.22,1445.05 1860.26,1445.06 1861.3,1445.06 1862.35,1445.06 1863.39,1445.06 1864.43,1445.06 1865.48,1445.07 1866.52,1445.07 1867.56,1445.07 1868.61,1445.07 1869.65,1445.07 1870.69,1445.08 1871.74,1445.08 1872.78,1445.08 1873.82,1445.08 1874.87,1445.08 1875.91,1445.09 1876.95,1445.09 1878,1445.09 1879.04,1445.09 1880.08,1445.09 1881.13,1445.1 1882.17,1445.1 1883.21,1445.1 1884.26,1445.1 1885.3,1445.1 1886.35,1445.11 1887.39,1445.11 1888.43,1445.11 1889.48,1445.11 1890.52,1445.11 1891.56,1445.12 1892.61,1445.12 1893.65,1445.12 1894.69,1445.12 1895.74,1445.12 1896.78,1445.13 1897.82,1445.13 1898.87,1445.13 1899.91,1445.13 1900.95,1445.13 1902,1445.14 1903.04,1445.14 1904.08,1445.14 1905.13,1445.14 1906.17,1445.14 1907.21,1445.14 1908.26,1445.15 1909.3,1445.15 1910.34,1445.15 1911.39,1445.15 1912.43,1445.15 1913.47,1445.16 1914.52,1445.16 1915.56,1445.16 1916.6,1445.16 1917.65,1445.16 1918.69,1445.17 1919.73,1445.17 1920.78,1445.17 1921.82,1445.17 1922.86,1445.17 1923.91,1445.18 1924.95,1445.18 1926,1445.18 1927.04,1445.18 1928.08,1445.18 1929.13,1445.18 1930.17,1445.19 1931.21,1445.19 1932.26,1445.19 1933.3,1445.19 1934.34,1445.19 1935.39,1445.2 1936.43,1445.2 1937.47,1445.2 1938.52,1445.2 1939.56,1445.2 1940.6,1445.21 1941.65,1445.21 1942.69,1445.21 1943.73,1445.21 1944.78,1445.21 1945.82,1445.21 1946.86,1445.22 1947.91,1445.22 1948.95,1445.22 1949.99,1445.22 1951.04,1445.22 1952.08,1445.23 1953.12,1445.23 1954.17,1445.23 1955.21,1445.23 1956.25,1445.23 1957.3,1445.23 1958.34,1445.24 1959.38,1445.24 1960.43,1445.24 1961.47,1445.24 1962.52,1445.24 1963.56,1445.25 1964.6,1445.25 1965.65,1445.25 1966.69,1445.25 1967.73,1445.25 1968.78,1445.25 1969.82,1445.26 1970.86,1445.26 1971.91,1445.26 1972.95,1445.26 1973.99,1445.26 1975.04,1445.27 1976.08,1445.27 1977.12,1445.27 1978.17,1445.27 1979.21,1445.27 1980.25,1445.27 1981.3,1445.28 1982.34,1445.28 1983.38,1445.28 1984.43,1445.28 1985.47,1445.28 1986.51,1445.28 1987.56,1445.29 1988.6,1445.29 1989.64,1445.29 1990.69,1445.29 1991.73,1445.29 1992.77,1445.29 1993.82,1445.3 1994.86,1445.3 1995.9,1445.3 1996.95,1445.3 1997.99,1445.3 1999.03,1445.31 2000.08,1445.31 2001.12,1445.31 2002.17,1445.31 2003.21,1445.31 2004.25,1445.31 2005.3,1445.32 2006.34,1445.32 2007.38,1445.32 2008.43,1445.32 2009.47,1445.32 2010.51,1445.32 2011.56,1445.33 2012.6,1445.33 2013.64,1445.33 2014.69,1445.33 2015.73,1445.33 2016.77,1445.33 2017.82,1445.34 2018.86,1445.34 2019.9,1445.34 2020.95,1445.34 2021.99,1445.34 2023.03,1445.34 2024.08,1445.35 2025.12,1445.35 2026.16,1445.35 2027.21,1445.35 2028.25,1445.35 2029.29,1445.35 2030.34,1445.36 2031.38,1445.36 2032.42,1445.36 2033.47,1445.36 2034.51,1445.36 2035.55,1445.36 2036.6,1445.37 2037.64,1445.37 2038.69,1445.37 2039.73,1445.37 2040.77,1445.37 2041.82,1445.37 2042.86,1445.38 2043.9,1445.38 2044.95,1445.38 2045.99,1445.38 2047.03,1445.38 2048.08,1445.38 2049.12,1445.39 2050.16,1445.39 2051.21,1445.39 2052.25,1445.39 2053.29,1445.39 2054.34,1445.39 2055.38,1445.4 2056.42,1445.4 2057.47,1445.4 2058.51,1445.4 2059.55,1445.4 2060.6,1445.4 2061.64,1445.41 2062.68,1445.41 2063.73,1445.41 2064.77,1445.41 2065.81,1445.41 2066.86,1445.41 2067.9,1445.41 2068.94,1445.42 2069.99,1445.42 2071.03,1445.42 2072.07,1445.42 2073.12,1445.42 2074.16,1445.42 2075.2,1445.43 2076.25,1445.43 2077.29,1445.43 2078.34,1445.43 2079.38,1445.43 2080.42,1445.43 2081.47,1445.44 2082.51,1445.44 2083.55,1445.44 2084.6,1445.44 2085.64,1445.44 2086.68,1445.44 2087.73,1445.44 2088.77,1445.45 2089.81,1445.45 2090.86,1445.45 2091.9,1445.45 2092.94,1445.45 2093.99,1445.45 2095.03,1445.46 2096.07,1445.46 2097.12,1445.46 2098.16,1445.46 2099.2,1445.46 2100.25,1445.46 2101.29,1445.46 2102.33,1445.47 2103.38,1445.47 2104.42,1445.47 2105.46,1445.47 2106.51,1445.47 2107.55,1445.47 2108.59,1445.48 2109.64,1445.48 2110.68,1445.48 2111.72,1445.48 2112.77,1445.48 2113.81,1445.48 2114.86,1445.48 2115.9,1445.49 2116.94,1445.49 2117.99,1445.49 2119.03,1445.49 2120.07,1445.49 2121.12,1445.49 2122.16,1445.49 2123.2,1445.5 2124.25,1445.5 2125.29,1445.5 2126.33,1445.5 2127.38,1445.5 2128.42,1445.5 2129.46,1445.51 2130.51,1445.51 2131.55,1445.51 2132.59,1445.51 2133.64,1445.51 2134.68,1445.51 2135.72,1445.51 2136.77,1445.52 2137.81,1445.52 2138.85,1445.52 2139.9,1445.52 2140.94,1445.52 2141.98,1445.52 2143.03,1445.52 2144.07,1445.53 2145.11,1445.53 2146.16,1445.53 2147.2,1445.53 2148.24,1445.53 2149.29,1445.53 2150.33,1445.53 2151.37,1445.54 2152.42,1445.54 2153.46,1445.54 2154.51,1445.54 2155.55,1445.54 2156.59,1445.54 2157.64,1445.54 2158.68,1445.55 2159.72,1445.55 2160.77,1445.55 2161.81,1445.55 2162.85,1445.55 2163.9,1445.55 2164.94,1445.55 2165.98,1445.56 2167.03,1445.56 2168.07,1445.56 2169.11,1445.56 2170.16,1445.56 2171.2,1445.56 2172.24,1445.56 2173.29,1445.57 2174.33,1445.57 2175.37,1445.57 2176.42,1445.57 2177.46,1445.57 2178.5,1445.57 2179.55,1445.57 2180.59,1445.58 2181.63,1445.58 2182.68,1445.58 2183.72,1445.58 2184.76,1445.58 2185.81,1445.58 2186.85,1445.58 2187.89,1445.59 2188.94,1445.59 2189.98,1445.59 2191.03,1445.59 2192.07,1445.59 2193.11,1445.59 2194.16,1445.59 2195.2,1445.6 2196.24,1445.6 2197.29,1445.6 2198.33,1445.6 2199.37,1445.6 2200.42,1445.6 2201.46,1445.6 2202.5,1445.61 2203.55,1445.61 2204.59,1445.61 2205.63,1445.61 2206.68,1445.61 2207.72,1445.61 2208.76,1445.61 2209.81,1445.61 2210.85,1445.62 2211.89,1445.62 2212.94,1445.62 2213.98,1445.62 2215.02,1445.62 2216.07,1445.62 2217.11,1445.62 2218.15,1445.63 2219.2,1445.63 2220.24,1445.63 2221.28,1445.63 2222.33,1445.63 2223.37,1445.63 2224.41,1445.63 2225.46,1445.64 2226.5,1445.64 2227.54,1445.64 2228.59,1445.64 2229.63,1445.64 2230.68,1445.64 2231.72,1445.64 2232.76,1445.64 2233.81,1445.65 2234.85,1445.65 2235.89,1445.65 2236.94,1445.65 2237.98,1445.65 2239.02,1445.65 2240.07,1445.65 2241.11,1445.66 2242.15,1445.66 2243.2,1445.66 2244.24,1445.66 2245.28,1445.66 2246.33,1445.66 2247.37,1445.66 2248.41,1445.66 2249.46,1445.67 2250.5,1445.67 2251.54,1445.67 2252.59,1445.67 2253.63,1445.67 2254.67,1445.67 2255.72,1445.67 2256.76,1445.67 2257.8,1445.68 2258.85,1445.68 2259.89,1445.68 2260.93,1445.68 2261.98,1445.68 2263.02,1445.68 2264.06,1445.68 2265.11,1445.69 2266.15,1445.69 2267.2,1445.69 2268.24,1445.69 2269.28,1445.69 2270.33,1445.69 2271.37,1445.69 2272.41,1445.69 2273.46,1445.7 2274.5,1445.7 2275.54,1445.7 2276.59,1445.7 2277.63,1445.7 2278.67,1445.7 2279.72,1445.7 2280.76,1445.7 2281.8,1445.71 2282.85,1445.71 2283.89,1445.71 2284.93,1445.71 2285.98,1445.71 2287.02,1445.71 2288.06,1445.71 2289.11,1445.71 2290.15,1445.72 "/>
<path clip-path="url(#clip160)" d="M2005.38 198.898 L2279.02 198.898 L2279.02 95.2176 L2005.38 95.2176  Z" fill="#ffffff" fill-rule="evenodd" fill-opacity="1"/>
<polyline clip-path="url(#clip160)" style="stroke:#000000; stroke-linecap:round; stroke-linejoin:round; stroke-width:4; stroke-opacity:1; fill:none" points="2005.38,198.898 2279.02,198.898 2279.02,95.2176 2005.38,95.2176 2005.38,198.898 "/>
<polyline clip-path="url(#clip160)" style="stroke:#009af9; stroke-linecap:round; stroke-linejoin:round; stroke-width:4; stroke-opacity:1; fill:none" points="2029.96,147.058 2177.43,147.058 "/>
<path clip-path="url(#clip160)" d="M2215.85 166.745 Q2214.05 171.375 2212.34 172.787 Q2210.62 174.199 2207.75 174.199 L2204.35 174.199 L2204.35 170.634 L2206.85 170.634 Q2208.61 170.634 2209.58 169.8 Q2210.55 168.967 2211.73 165.865 L2212.5 163.921 L2202.01 138.412 L2206.53 138.412 L2214.63 158.689 L2222.73 138.412 L2227.24 138.412 L2215.85 166.745 Z" fill="#000000" fill-rule="nonzero" fill-opacity="1" /><path clip-path="url(#clip160)" d="M2234.53 160.402 L2242.17 160.402 L2242.17 134.037 L2233.86 135.703 L2233.86 131.444 L2242.13 129.778 L2246.8 129.778 L2246.8 160.402 L2254.44 160.402 L2254.44 164.338 L2234.53 164.338 L2234.53 160.402 Z" fill="#000000" fill-rule="nonzero" fill-opacity="1" /></svg>
