<?xml version="1.0" encoding="utf-8"?>
<svg xmlns="http://www.w3.org/2000/svg" xmlns:xlink="http://www.w3.org/1999/xlink" width="600" height="400" viewBox="0 0 2400 1600">
<defs>
  <clipPath id="clip590">
    <rect x="0" y="0" width="2400" height="1600"/>
  </clipPath>
</defs>
<path clip-path="url(#clip590)" d="M0 1600 L2400 1600 L2400 0 L0 0  Z" fill="#ffffff" fill-rule="evenodd" fill-opacity="1"/>
<defs>
  <clipPath id="clip591">
    <rect x="480" y="0" width="1681" height="1600"/>
  </clipPath>
</defs>
<path clip-path="url(#clip590)" d="M229.445 1486.45 L2352.76 1486.45 L2352.76 47.2441 L229.445 47.2441  Z" fill="#ffffff" fill-rule="evenodd" fill-opacity="1"/>
<defs>
  <clipPath id="clip592">
    <rect x="229" y="47" width="2124" height="1440"/>
  </clipPath>
</defs>
<polyline clip-path="url(#clip592)" style="stroke:#000000; stroke-linecap:round; stroke-linejoin:round; stroke-width:2; stroke-opacity:0.1; fill:none" points="289.539,1486.45 289.539,47.2441 "/>
<polyline clip-path="url(#clip592)" style="stroke:#000000; stroke-linecap:round; stroke-linejoin:round; stroke-width:2; stroke-opacity:0.1; fill:none" points="790.32,1486.45 790.32,47.2441 "/>
<polyline clip-path="url(#clip592)" style="stroke:#000000; stroke-linecap:round; stroke-linejoin:round; stroke-width:2; stroke-opacity:0.1; fill:none" points="1291.1,1486.45 1291.1,47.2441 "/>
<polyline clip-path="url(#clip592)" style="stroke:#000000; stroke-linecap:round; stroke-linejoin:round; stroke-width:2; stroke-opacity:0.1; fill:none" points="1791.88,1486.45 1791.88,47.2441 "/>
<polyline clip-path="url(#clip592)" style="stroke:#000000; stroke-linecap:round; stroke-linejoin:round; stroke-width:2; stroke-opacity:0.1; fill:none" points="2292.66,1486.45 2292.66,47.2441 "/>
<polyline clip-path="url(#clip590)" style="stroke:#000000; stroke-linecap:round; stroke-linejoin:round; stroke-width:4; stroke-opacity:1; fill:none" points="229.445,1486.45 2352.76,1486.45 "/>
<polyline clip-path="url(#clip590)" style="stroke:#000000; stroke-linecap:round; stroke-linejoin:round; stroke-width:4; stroke-opacity:1; fill:none" points="289.539,1486.45 289.539,1467.55 "/>
<polyline clip-path="url(#clip590)" style="stroke:#000000; stroke-linecap:round; stroke-linejoin:round; stroke-width:4; stroke-opacity:1; fill:none" points="790.32,1486.45 790.32,1467.55 "/>
<polyline clip-path="url(#clip590)" style="stroke:#000000; stroke-linecap:round; stroke-linejoin:round; stroke-width:4; stroke-opacity:1; fill:none" points="1291.1,1486.45 1291.1,1467.55 "/>
<polyline clip-path="url(#clip590)" style="stroke:#000000; stroke-linecap:round; stroke-linejoin:round; stroke-width:4; stroke-opacity:1; fill:none" points="1791.88,1486.45 1791.88,1467.55 "/>
<polyline clip-path="url(#clip590)" style="stroke:#000000; stroke-linecap:round; stroke-linejoin:round; stroke-width:4; stroke-opacity:1; fill:none" points="2292.66,1486.45 2292.66,1467.55 "/>
<path clip-path="url(#clip590)" d="M289.539 1517.37 Q285.928 1517.37 284.099 1520.93 Q282.293 1524.47 282.293 1531.6 Q282.293 1538.71 284.099 1542.27 Q285.928 1545.82 289.539 1545.82 Q293.173 1545.82 294.979 1542.27 Q296.807 1538.71 296.807 1531.6 Q296.807 1524.47 294.979 1520.93 Q293.173 1517.37 289.539 1517.37 M289.539 1513.66 Q295.349 1513.66 298.404 1518.27 Q301.483 1522.85 301.483 1531.6 Q301.483 1540.33 298.404 1544.94 Q295.349 1549.52 289.539 1549.52 Q283.729 1549.52 280.65 1544.94 Q277.594 1540.33 277.594 1531.6 Q277.594 1522.85 280.65 1518.27 Q283.729 1513.66 289.539 1513.66 Z" fill="#000000" fill-rule="nonzero" fill-opacity="1" /><path clip-path="url(#clip590)" d="M749.938 1514.29 L768.294 1514.29 L768.294 1518.22 L754.22 1518.22 L754.22 1526.7 Q755.239 1526.35 756.257 1526.19 Q757.276 1526 758.294 1526 Q764.081 1526 767.461 1529.17 Q770.841 1532.34 770.841 1537.76 Q770.841 1543.34 767.368 1546.44 Q763.896 1549.52 757.577 1549.52 Q755.401 1549.52 753.132 1549.15 Q750.887 1548.78 748.48 1548.04 L748.48 1543.34 Q750.563 1544.47 752.785 1545.03 Q755.007 1545.58 757.484 1545.58 Q761.489 1545.58 763.827 1543.48 Q766.165 1541.37 766.165 1537.76 Q766.165 1534.15 763.827 1532.04 Q761.489 1529.94 757.484 1529.94 Q755.609 1529.94 753.734 1530.35 Q751.882 1530.77 749.938 1531.65 L749.938 1514.29 Z" fill="#000000" fill-rule="nonzero" fill-opacity="1" /><path clip-path="url(#clip590)" d="M790.053 1517.37 Q786.442 1517.37 784.614 1520.93 Q782.808 1524.47 782.808 1531.6 Q782.808 1538.71 784.614 1542.27 Q786.442 1545.82 790.053 1545.82 Q793.688 1545.82 795.493 1542.27 Q797.322 1538.71 797.322 1531.6 Q797.322 1524.47 795.493 1520.93 Q793.688 1517.37 790.053 1517.37 M790.053 1513.66 Q795.864 1513.66 798.919 1518.27 Q801.998 1522.85 801.998 1531.6 Q801.998 1540.33 798.919 1544.94 Q795.864 1549.52 790.053 1549.52 Q784.243 1549.52 781.165 1544.94 Q778.109 1540.33 778.109 1531.6 Q778.109 1522.85 781.165 1518.27 Q784.243 1513.66 790.053 1513.66 Z" fill="#000000" fill-rule="nonzero" fill-opacity="1" /><path clip-path="url(#clip590)" d="M820.215 1517.37 Q816.604 1517.37 814.776 1520.93 Q812.97 1524.47 812.97 1531.6 Q812.97 1538.71 814.776 1542.27 Q816.604 1545.82 820.215 1545.82 Q823.85 1545.82 825.655 1542.27 Q827.484 1538.71 827.484 1531.6 Q827.484 1524.47 825.655 1520.93 Q823.85 1517.37 820.215 1517.37 M820.215 1513.66 Q826.025 1513.66 829.081 1518.27 Q832.16 1522.85 832.16 1531.6 Q832.16 1540.33 829.081 1544.94 Q826.025 1549.52 820.215 1549.52 Q814.405 1549.52 811.326 1544.94 Q808.271 1540.33 808.271 1531.6 Q808.271 1522.85 811.326 1518.27 Q814.405 1513.66 820.215 1513.66 Z" fill="#000000" fill-rule="nonzero" fill-opacity="1" /><path clip-path="url(#clip590)" d="M1235.63 1544.91 L1243.27 1544.91 L1243.27 1518.55 L1234.95 1520.21 L1234.95 1515.95 L1243.22 1514.29 L1247.89 1514.29 L1247.89 1544.91 L1255.53 1544.91 L1255.53 1548.85 L1235.63 1548.85 L1235.63 1544.91 Z" fill="#000000" fill-rule="nonzero" fill-opacity="1" /><path clip-path="url(#clip590)" d="M1274.98 1517.37 Q1271.37 1517.37 1269.54 1520.93 Q1267.73 1524.47 1267.73 1531.6 Q1267.73 1538.71 1269.54 1542.27 Q1271.37 1545.82 1274.98 1545.82 Q1278.61 1545.82 1280.42 1542.27 Q1282.25 1538.71 1282.25 1531.6 Q1282.25 1524.47 1280.42 1520.93 Q1278.61 1517.37 1274.98 1517.37 M1274.98 1513.66 Q1280.79 1513.66 1283.84 1518.27 Q1286.92 1522.85 1286.92 1531.6 Q1286.92 1540.33 1283.84 1544.94 Q1280.79 1549.52 1274.98 1549.52 Q1269.17 1549.52 1266.09 1544.94 Q1263.03 1540.33 1263.03 1531.6 Q1263.03 1522.85 1266.09 1518.27 Q1269.17 1513.66 1274.98 1513.66 Z" fill="#000000" fill-rule="nonzero" fill-opacity="1" /><path clip-path="url(#clip590)" d="M1305.14 1517.37 Q1301.53 1517.37 1299.7 1520.93 Q1297.89 1524.47 1297.89 1531.6 Q1297.89 1538.71 1299.7 1542.27 Q1301.53 1545.82 1305.14 1545.82 Q1308.77 1545.82 1310.58 1542.27 Q1312.41 1538.71 1312.41 1531.6 Q1312.41 1524.47 1310.58 1520.93 Q1308.77 1517.37 1305.14 1517.37 M1305.14 1513.66 Q1310.95 1513.66 1314.01 1518.27 Q1317.08 1522.85 1317.08 1531.6 Q1317.08 1540.33 1314.01 1544.94 Q1310.95 1549.52 1305.14 1549.52 Q1299.33 1549.52 1296.25 1544.94 Q1293.2 1540.33 1293.2 1531.6 Q1293.2 1522.85 1296.25 1518.27 Q1299.33 1513.66 1305.14 1513.66 Z" fill="#000000" fill-rule="nonzero" fill-opacity="1" /><path clip-path="url(#clip590)" d="M1335.3 1517.37 Q1331.69 1517.37 1329.86 1520.93 Q1328.06 1524.47 1328.06 1531.6 Q1328.06 1538.71 1329.86 1542.27 Q1331.69 1545.82 1335.3 1545.82 Q1338.94 1545.82 1340.74 1542.27 Q1342.57 1538.71 1342.57 1531.6 Q1342.57 1524.47 1340.74 1520.93 Q1338.94 1517.37 1335.3 1517.37 M1335.3 1513.66 Q1341.11 1513.66 1344.17 1518.27 Q1347.25 1522.85 1347.25 1531.6 Q1347.25 1540.33 1344.17 1544.94 Q1341.11 1549.52 1335.3 1549.52 Q1329.49 1549.52 1326.41 1544.94 Q1323.36 1540.33 1323.36 1531.6 Q1323.36 1522.85 1326.41 1518.27 Q1329.49 1513.66 1335.3 1513.66 Z" fill="#000000" fill-rule="nonzero" fill-opacity="1" /><path clip-path="url(#clip590)" d="M1736.41 1544.91 L1744.05 1544.91 L1744.05 1518.55 L1735.74 1520.21 L1735.74 1515.95 L1744 1514.29 L1748.68 1514.29 L1748.68 1544.91 L1756.31 1544.91 L1756.31 1548.85 L1736.41 1548.85 L1736.41 1544.91 Z" fill="#000000" fill-rule="nonzero" fill-opacity="1" /><path clip-path="url(#clip590)" d="M1765.81 1514.29 L1784.16 1514.29 L1784.16 1518.22 L1770.09 1518.22 L1770.09 1526.7 Q1771.11 1526.35 1772.12 1526.19 Q1773.14 1526 1774.16 1526 Q1779.95 1526 1783.33 1529.17 Q1786.71 1532.34 1786.71 1537.76 Q1786.71 1543.34 1783.24 1546.44 Q1779.76 1549.52 1773.44 1549.52 Q1771.27 1549.52 1769 1549.15 Q1766.75 1548.78 1764.35 1548.04 L1764.35 1543.34 Q1766.43 1544.47 1768.65 1545.03 Q1770.87 1545.58 1773.35 1545.58 Q1777.36 1545.58 1779.69 1543.48 Q1782.03 1541.37 1782.03 1537.76 Q1782.03 1534.15 1779.69 1532.04 Q1777.36 1529.94 1773.35 1529.94 Q1771.48 1529.94 1769.6 1530.35 Q1767.75 1530.77 1765.81 1531.65 L1765.81 1514.29 Z" fill="#000000" fill-rule="nonzero" fill-opacity="1" /><path clip-path="url(#clip590)" d="M1805.92 1517.37 Q1802.31 1517.37 1800.48 1520.93 Q1798.68 1524.47 1798.68 1531.6 Q1798.68 1538.71 1800.48 1542.27 Q1802.31 1545.82 1805.92 1545.82 Q1809.55 1545.82 1811.36 1542.27 Q1813.19 1538.71 1813.19 1531.6 Q1813.19 1524.47 1811.36 1520.93 Q1809.55 1517.37 1805.92 1517.37 M1805.92 1513.66 Q1811.73 1513.66 1814.79 1518.27 Q1817.87 1522.85 1817.87 1531.6 Q1817.87 1540.33 1814.79 1544.94 Q1811.73 1549.52 1805.92 1549.52 Q1800.11 1549.52 1797.03 1544.94 Q1793.98 1540.33 1793.98 1531.6 Q1793.98 1522.85 1797.03 1518.27 Q1800.11 1513.66 1805.92 1513.66 Z" fill="#000000" fill-rule="nonzero" fill-opacity="1" /><path clip-path="url(#clip590)" d="M1836.08 1517.37 Q1832.47 1517.37 1830.64 1520.93 Q1828.84 1524.47 1828.84 1531.6 Q1828.84 1538.71 1830.64 1542.27 Q1832.47 1545.82 1836.08 1545.82 Q1839.72 1545.82 1841.52 1542.27 Q1843.35 1538.71 1843.35 1531.6 Q1843.35 1524.47 1841.52 1520.93 Q1839.72 1517.37 1836.08 1517.37 M1836.08 1513.66 Q1841.89 1513.66 1844.95 1518.27 Q1848.03 1522.85 1848.03 1531.6 Q1848.03 1540.33 1844.95 1544.94 Q1841.89 1549.52 1836.08 1549.52 Q1830.27 1549.52 1827.19 1544.94 Q1824.14 1540.33 1824.14 1531.6 Q1824.14 1522.85 1827.19 1518.27 Q1830.27 1513.66 1836.08 1513.66 Z" fill="#000000" fill-rule="nonzero" fill-opacity="1" /><path clip-path="url(#clip590)" d="M2241.27 1544.91 L2257.59 1544.91 L2257.59 1548.85 L2235.65 1548.85 L2235.65 1544.91 Q2238.31 1542.16 2242.89 1537.53 Q2247.5 1532.88 2248.68 1531.53 Q2250.93 1529.01 2251.81 1527.27 Q2252.71 1525.51 2252.71 1523.82 Q2252.71 1521.07 2250.76 1519.33 Q2248.84 1517.6 2245.74 1517.6 Q2243.54 1517.6 2241.09 1518.36 Q2238.66 1519.13 2235.88 1520.68 L2235.88 1515.95 Q2238.7 1514.82 2241.16 1514.24 Q2243.61 1513.66 2245.65 1513.66 Q2251.02 1513.66 2254.21 1516.35 Q2257.41 1519.03 2257.41 1523.52 Q2257.41 1525.65 2256.6 1527.57 Q2255.81 1529.47 2253.7 1532.07 Q2253.13 1532.74 2250.02 1535.95 Q2246.92 1539.15 2241.27 1544.91 Z" fill="#000000" fill-rule="nonzero" fill-opacity="1" /><path clip-path="url(#clip590)" d="M2277.41 1517.37 Q2273.8 1517.37 2271.97 1520.93 Q2270.16 1524.47 2270.16 1531.6 Q2270.16 1538.71 2271.97 1542.27 Q2273.8 1545.82 2277.41 1545.82 Q2281.04 1545.82 2282.85 1542.27 Q2284.68 1538.71 2284.68 1531.6 Q2284.68 1524.47 2282.85 1520.93 Q2281.04 1517.37 2277.41 1517.37 M2277.41 1513.66 Q2283.22 1513.66 2286.27 1518.27 Q2289.35 1522.85 2289.35 1531.6 Q2289.35 1540.33 2286.27 1544.94 Q2283.22 1549.52 2277.41 1549.52 Q2271.6 1549.52 2268.52 1544.94 Q2265.46 1540.33 2265.46 1531.6 Q2265.46 1522.85 2268.52 1518.27 Q2271.6 1513.66 2277.41 1513.66 Z" fill="#000000" fill-rule="nonzero" fill-opacity="1" /><path clip-path="url(#clip590)" d="M2307.57 1517.37 Q2303.96 1517.37 2302.13 1520.93 Q2300.32 1524.47 2300.32 1531.6 Q2300.32 1538.71 2302.13 1542.27 Q2303.96 1545.82 2307.57 1545.82 Q2311.2 1545.82 2313.01 1542.27 Q2314.84 1538.71 2314.84 1531.6 Q2314.84 1524.47 2313.01 1520.93 Q2311.2 1517.37 2307.57 1517.37 M2307.57 1513.66 Q2313.38 1513.66 2316.44 1518.27 Q2319.51 1522.85 2319.51 1531.6 Q2319.51 1540.33 2316.44 1544.94 Q2313.38 1549.52 2307.57 1549.52 Q2301.76 1549.52 2298.68 1544.94 Q2295.63 1540.33 2295.63 1531.6 Q2295.63 1522.85 2298.68 1518.27 Q2301.76 1513.66 2307.57 1513.66 Z" fill="#000000" fill-rule="nonzero" fill-opacity="1" /><path clip-path="url(#clip590)" d="M2337.73 1517.37 Q2334.12 1517.37 2332.29 1520.93 Q2330.49 1524.47 2330.49 1531.6 Q2330.49 1538.71 2332.29 1542.27 Q2334.12 1545.82 2337.73 1545.82 Q2341.37 1545.82 2343.17 1542.27 Q2345 1538.71 2345 1531.6 Q2345 1524.47 2343.17 1520.93 Q2341.37 1517.37 2337.73 1517.37 M2337.73 1513.66 Q2343.54 1513.66 2346.6 1518.27 Q2349.68 1522.85 2349.68 1531.6 Q2349.68 1540.33 2346.6 1544.94 Q2343.54 1549.52 2337.73 1549.52 Q2331.92 1549.52 2328.84 1544.94 Q2325.79 1540.33 2325.79 1531.6 Q2325.79 1522.85 2328.84 1518.27 Q2331.92 1513.66 2337.73 1513.66 Z" fill="#000000" fill-rule="nonzero" fill-opacity="1" /><polyline clip-path="url(#clip592)" style="stroke:#000000; stroke-linecap:round; stroke-linejoin:round; stroke-width:2; stroke-opacity:0.1; fill:none" points="229.445,1391.44 2352.76,1391.44 "/>
<polyline clip-path="url(#clip592)" style="stroke:#000000; stroke-linecap:round; stroke-linejoin:round; stroke-width:2; stroke-opacity:0.1; fill:none" points="229.445,1106.74 2352.76,1106.74 "/>
<polyline clip-path="url(#clip592)" style="stroke:#000000; stroke-linecap:round; stroke-linejoin:round; stroke-width:2; stroke-opacity:0.1; fill:none" points="229.445,822.048 2352.76,822.048 "/>
<polyline clip-path="url(#clip592)" style="stroke:#000000; stroke-linecap:round; stroke-linejoin:round; stroke-width:2; stroke-opacity:0.1; fill:none" points="229.445,537.352 2352.76,537.352 "/>
<polyline clip-path="url(#clip592)" style="stroke:#000000; stroke-linecap:round; stroke-linejoin:round; stroke-width:2; stroke-opacity:0.1; fill:none" points="229.445,252.656 2352.76,252.656 "/>
<polyline clip-path="url(#clip590)" style="stroke:#000000; stroke-linecap:round; stroke-linejoin:round; stroke-width:4; stroke-opacity:1; fill:none" points="229.445,1486.45 229.445,47.2441 "/>
<polyline clip-path="url(#clip590)" style="stroke:#000000; stroke-linecap:round; stroke-linejoin:round; stroke-width:4; stroke-opacity:1; fill:none" points="229.445,1391.44 248.343,1391.44 "/>
<polyline clip-path="url(#clip590)" style="stroke:#000000; stroke-linecap:round; stroke-linejoin:round; stroke-width:4; stroke-opacity:1; fill:none" points="229.445,1106.74 248.343,1106.74 "/>
<polyline clip-path="url(#clip590)" style="stroke:#000000; stroke-linecap:round; stroke-linejoin:round; stroke-width:4; stroke-opacity:1; fill:none" points="229.445,822.048 248.343,822.048 "/>
<polyline clip-path="url(#clip590)" style="stroke:#000000; stroke-linecap:round; stroke-linejoin:round; stroke-width:4; stroke-opacity:1; fill:none" points="229.445,537.352 248.343,537.352 "/>
<polyline clip-path="url(#clip590)" style="stroke:#000000; stroke-linecap:round; stroke-linejoin:round; stroke-width:4; stroke-opacity:1; fill:none" points="229.445,252.656 248.343,252.656 "/>
<path clip-path="url(#clip590)" d="M85.0429 1404.78 L101.362 1404.78 L101.362 1408.72 L79.4179 1408.72 L79.4179 1404.78 Q82.0799 1402.03 86.6632 1397.4 Q91.2697 1392.75 92.4502 1391.41 Q94.6956 1388.88 95.5752 1387.15 Q96.478 1385.39 96.478 1383.7 Q96.478 1380.94 94.5336 1379.21 Q92.6123 1377.47 89.5104 1377.47 Q87.3114 1377.47 84.8577 1378.23 Q82.4271 1379 79.6494 1380.55 L79.6494 1375.83 Q82.4734 1374.69 84.9271 1374.11 Q87.3808 1373.53 89.4178 1373.53 Q94.7882 1373.53 97.9826 1376.22 Q101.177 1378.91 101.177 1383.4 Q101.177 1385.53 100.367 1387.45 Q99.5798 1389.34 97.4734 1391.94 Q96.8947 1392.61 93.7928 1395.83 Q90.691 1399.02 85.0429 1404.78 Z" fill="#000000" fill-rule="nonzero" fill-opacity="1" /><path clip-path="url(#clip590)" d="M121.177 1377.24 Q117.566 1377.24 115.737 1380.8 Q113.932 1384.34 113.932 1391.47 Q113.932 1398.58 115.737 1402.15 Q117.566 1405.69 121.177 1405.69 Q124.811 1405.69 126.617 1402.15 Q128.445 1398.58 128.445 1391.47 Q128.445 1384.34 126.617 1380.8 Q124.811 1377.24 121.177 1377.24 M121.177 1373.53 Q126.987 1373.53 130.043 1378.14 Q133.121 1382.72 133.121 1391.47 Q133.121 1400.2 130.043 1404.81 Q126.987 1409.39 121.177 1409.39 Q115.367 1409.39 112.288 1404.81 Q109.233 1400.2 109.233 1391.47 Q109.233 1382.72 112.288 1378.14 Q115.367 1373.53 121.177 1373.53 Z" fill="#000000" fill-rule="nonzero" fill-opacity="1" /><path clip-path="url(#clip590)" d="M151.339 1377.24 Q147.728 1377.24 145.899 1380.8 Q144.093 1384.34 144.093 1391.47 Q144.093 1398.58 145.899 1402.15 Q147.728 1405.69 151.339 1405.69 Q154.973 1405.69 156.779 1402.15 Q158.607 1398.58 158.607 1391.47 Q158.607 1384.34 156.779 1380.8 Q154.973 1377.24 151.339 1377.24 M151.339 1373.53 Q157.149 1373.53 160.205 1378.14 Q163.283 1382.72 163.283 1391.47 Q163.283 1400.2 160.205 1404.81 Q157.149 1409.39 151.339 1409.39 Q145.529 1409.39 142.45 1404.81 Q139.394 1400.2 139.394 1391.47 Q139.394 1382.72 142.45 1378.14 Q145.529 1373.53 151.339 1373.53 Z" fill="#000000" fill-rule="nonzero" fill-opacity="1" /><path clip-path="url(#clip590)" d="M181.501 1377.24 Q177.89 1377.24 176.061 1380.8 Q174.255 1384.34 174.255 1391.47 Q174.255 1398.58 176.061 1402.15 Q177.89 1405.69 181.501 1405.69 Q185.135 1405.69 186.94 1402.15 Q188.769 1398.58 188.769 1391.47 Q188.769 1384.34 186.94 1380.8 Q185.135 1377.24 181.501 1377.24 M181.501 1373.53 Q187.311 1373.53 190.366 1378.14 Q193.445 1382.72 193.445 1391.47 Q193.445 1400.2 190.366 1404.81 Q187.311 1409.39 181.501 1409.39 Q175.691 1409.39 172.612 1404.81 Q169.556 1400.2 169.556 1391.47 Q169.556 1382.72 172.612 1378.14 Q175.691 1373.53 181.501 1373.53 Z" fill="#000000" fill-rule="nonzero" fill-opacity="1" /><path clip-path="url(#clip590)" d="M93.8623 1093.54 L82.0568 1111.99 L93.8623 1111.99 L93.8623 1093.54 M92.6354 1089.46 L98.515 1089.46 L98.515 1111.99 L103.446 1111.99 L103.446 1115.88 L98.515 1115.88 L98.515 1124.02 L93.8623 1124.02 L93.8623 1115.88 L78.2605 1115.88 L78.2605 1111.36 L92.6354 1089.46 Z" fill="#000000" fill-rule="nonzero" fill-opacity="1" /><path clip-path="url(#clip590)" d="M121.177 1092.54 Q117.566 1092.54 115.737 1096.11 Q113.932 1099.65 113.932 1106.78 Q113.932 1113.88 115.737 1117.45 Q117.566 1120.99 121.177 1120.99 Q124.811 1120.99 126.617 1117.45 Q128.445 1113.88 128.445 1106.78 Q128.445 1099.65 126.617 1096.11 Q124.811 1092.54 121.177 1092.54 M121.177 1088.84 Q126.987 1088.84 130.043 1093.45 Q133.121 1098.03 133.121 1106.78 Q133.121 1115.51 130.043 1120.11 Q126.987 1124.7 121.177 1124.7 Q115.367 1124.7 112.288 1120.11 Q109.233 1115.51 109.233 1106.78 Q109.233 1098.03 112.288 1093.45 Q115.367 1088.84 121.177 1088.84 Z" fill="#000000" fill-rule="nonzero" fill-opacity="1" /><path clip-path="url(#clip590)" d="M151.339 1092.54 Q147.728 1092.54 145.899 1096.11 Q144.093 1099.65 144.093 1106.78 Q144.093 1113.88 145.899 1117.45 Q147.728 1120.99 151.339 1120.99 Q154.973 1120.99 156.779 1117.45 Q158.607 1113.88 158.607 1106.78 Q158.607 1099.65 156.779 1096.11 Q154.973 1092.54 151.339 1092.54 M151.339 1088.84 Q157.149 1088.84 160.205 1093.45 Q163.283 1098.03 163.283 1106.78 Q163.283 1115.51 160.205 1120.11 Q157.149 1124.7 151.339 1124.7 Q145.529 1124.7 142.45 1120.11 Q139.394 1115.51 139.394 1106.78 Q139.394 1098.03 142.45 1093.45 Q145.529 1088.84 151.339 1088.84 Z" fill="#000000" fill-rule="nonzero" fill-opacity="1" /><path clip-path="url(#clip590)" d="M181.501 1092.54 Q177.89 1092.54 176.061 1096.11 Q174.255 1099.65 174.255 1106.78 Q174.255 1113.88 176.061 1117.45 Q177.89 1120.99 181.501 1120.99 Q185.135 1120.99 186.94 1117.45 Q188.769 1113.88 188.769 1106.78 Q188.769 1099.65 186.94 1096.11 Q185.135 1092.54 181.501 1092.54 M181.501 1088.84 Q187.311 1088.84 190.366 1093.45 Q193.445 1098.03 193.445 1106.78 Q193.445 1115.51 190.366 1120.11 Q187.311 1124.7 181.501 1124.7 Q175.691 1124.7 172.612 1120.11 Q169.556 1115.51 169.556 1106.78 Q169.556 1098.03 172.612 1093.45 Q175.691 1088.84 181.501 1088.84 Z" fill="#000000" fill-rule="nonzero" fill-opacity="1" /><path clip-path="url(#clip590)" d="M91.5938 820.184 Q88.4456 820.184 86.5938 822.337 Q84.7651 824.49 84.7651 828.24 Q84.7651 831.967 86.5938 834.143 Q88.4456 836.295 91.5938 836.295 Q94.7419 836.295 96.5706 834.143 Q98.4224 831.967 98.4224 828.24 Q98.4224 824.49 96.5706 822.337 Q94.7419 820.184 91.5938 820.184 M100.876 805.532 L100.876 809.791 Q99.1169 808.958 97.3113 808.518 Q95.5289 808.078 93.7697 808.078 Q89.1401 808.078 86.6864 811.203 Q84.2558 814.328 83.9086 820.647 Q85.2743 818.633 87.3345 817.569 Q89.3947 816.481 91.8715 816.481 Q97.0798 816.481 100.089 819.652 Q103.121 822.8 103.121 828.24 Q103.121 833.564 99.9733 836.781 Q96.8252 839.999 91.5938 839.999 Q85.5984 839.999 82.4271 835.416 Q79.2559 830.809 79.2559 822.082 Q79.2559 813.888 83.1447 809.027 Q87.0336 804.143 93.5845 804.143 Q95.3437 804.143 97.1261 804.49 Q98.9317 804.837 100.876 805.532 Z" fill="#000000" fill-rule="nonzero" fill-opacity="1" /><path clip-path="url(#clip590)" d="M121.177 807.846 Q117.566 807.846 115.737 811.411 Q113.932 814.953 113.932 822.082 Q113.932 829.189 115.737 832.754 Q117.566 836.295 121.177 836.295 Q124.811 836.295 126.617 832.754 Q128.445 829.189 128.445 822.082 Q128.445 814.953 126.617 811.411 Q124.811 807.846 121.177 807.846 M121.177 804.143 Q126.987 804.143 130.043 808.749 Q133.121 813.333 133.121 822.082 Q133.121 830.809 130.043 835.416 Q126.987 839.999 121.177 839.999 Q115.367 839.999 112.288 835.416 Q109.233 830.809 109.233 822.082 Q109.233 813.333 112.288 808.749 Q115.367 804.143 121.177 804.143 Z" fill="#000000" fill-rule="nonzero" fill-opacity="1" /><path clip-path="url(#clip590)" d="M151.339 807.846 Q147.728 807.846 145.899 811.411 Q144.093 814.953 144.093 822.082 Q144.093 829.189 145.899 832.754 Q147.728 836.295 151.339 836.295 Q154.973 836.295 156.779 832.754 Q158.607 829.189 158.607 822.082 Q158.607 814.953 156.779 811.411 Q154.973 807.846 151.339 807.846 M151.339 804.143 Q157.149 804.143 160.205 808.749 Q163.283 813.333 163.283 822.082 Q163.283 830.809 160.205 835.416 Q157.149 839.999 151.339 839.999 Q145.529 839.999 142.45 835.416 Q139.394 830.809 139.394 822.082 Q139.394 813.333 142.45 808.749 Q145.529 804.143 151.339 804.143 Z" fill="#000000" fill-rule="nonzero" fill-opacity="1" /><path clip-path="url(#clip590)" d="M181.501 807.846 Q177.89 807.846 176.061 811.411 Q174.255 814.953 174.255 822.082 Q174.255 829.189 176.061 832.754 Q177.89 836.295 181.501 836.295 Q185.135 836.295 186.94 832.754 Q188.769 829.189 188.769 822.082 Q188.769 814.953 186.94 811.411 Q185.135 807.846 181.501 807.846 M181.501 804.143 Q187.311 804.143 190.366 808.749 Q193.445 813.333 193.445 822.082 Q193.445 830.809 190.366 835.416 Q187.311 839.999 181.501 839.999 Q175.691 839.999 172.612 835.416 Q169.556 830.809 169.556 822.082 Q169.556 813.333 172.612 808.749 Q175.691 804.143 181.501 804.143 Z" fill="#000000" fill-rule="nonzero" fill-opacity="1" /><path clip-path="url(#clip590)" d="M91.0151 538.22 Q87.6817 538.22 85.7605 540.002 Q83.8623 541.785 83.8623 544.91 Q83.8623 548.035 85.7605 549.817 Q87.6817 551.599 91.0151 551.599 Q94.3484 551.599 96.2697 549.817 Q98.1909 548.011 98.1909 544.91 Q98.1909 541.785 96.2697 540.002 Q94.3715 538.22 91.0151 538.22 M86.3392 536.229 Q83.3299 535.488 81.6401 533.428 Q79.9735 531.368 79.9735 528.405 Q79.9735 524.261 82.9133 521.854 Q85.8762 519.447 91.0151 519.447 Q96.1771 519.447 99.1169 521.854 Q102.057 524.261 102.057 528.405 Q102.057 531.368 100.367 533.428 Q98.7002 535.488 95.7141 536.229 Q99.0937 537.016 100.969 539.308 Q102.867 541.599 102.867 544.91 Q102.867 549.933 99.7882 552.618 Q96.7326 555.303 91.0151 555.303 Q85.2975 555.303 82.2188 552.618 Q79.1633 549.933 79.1633 544.91 Q79.1633 541.599 81.0614 539.308 Q82.9595 537.016 86.3392 536.229 M84.6262 528.845 Q84.6262 531.53 86.2929 533.035 Q87.9827 534.539 91.0151 534.539 Q94.0243 534.539 95.7141 533.035 Q97.4271 531.53 97.4271 528.845 Q97.4271 526.16 95.7141 524.655 Q94.0243 523.15 91.0151 523.15 Q87.9827 523.15 86.2929 524.655 Q84.6262 526.16 84.6262 528.845 Z" fill="#000000" fill-rule="nonzero" fill-opacity="1" /><path clip-path="url(#clip590)" d="M121.177 523.15 Q117.566 523.15 115.737 526.715 Q113.932 530.257 113.932 537.386 Q113.932 544.493 115.737 548.058 Q117.566 551.599 121.177 551.599 Q124.811 551.599 126.617 548.058 Q128.445 544.493 128.445 537.386 Q128.445 530.257 126.617 526.715 Q124.811 523.15 121.177 523.15 M121.177 519.447 Q126.987 519.447 130.043 524.053 Q133.121 528.636 133.121 537.386 Q133.121 546.113 130.043 550.72 Q126.987 555.303 121.177 555.303 Q115.367 555.303 112.288 550.72 Q109.233 546.113 109.233 537.386 Q109.233 528.636 112.288 524.053 Q115.367 519.447 121.177 519.447 Z" fill="#000000" fill-rule="nonzero" fill-opacity="1" /><path clip-path="url(#clip590)" d="M151.339 523.15 Q147.728 523.15 145.899 526.715 Q144.093 530.257 144.093 537.386 Q144.093 544.493 145.899 548.058 Q147.728 551.599 151.339 551.599 Q154.973 551.599 156.779 548.058 Q158.607 544.493 158.607 537.386 Q158.607 530.257 156.779 526.715 Q154.973 523.15 151.339 523.15 M151.339 519.447 Q157.149 519.447 160.205 524.053 Q163.283 528.636 163.283 537.386 Q163.283 546.113 160.205 550.72 Q157.149 555.303 151.339 555.303 Q145.529 555.303 142.45 550.72 Q139.394 546.113 139.394 537.386 Q139.394 528.636 142.45 524.053 Q145.529 519.447 151.339 519.447 Z" fill="#000000" fill-rule="nonzero" fill-opacity="1" /><path clip-path="url(#clip590)" d="M181.501 523.15 Q177.89 523.15 176.061 526.715 Q174.255 530.257 174.255 537.386 Q174.255 544.493 176.061 548.058 Q177.89 551.599 181.501 551.599 Q185.135 551.599 186.94 548.058 Q188.769 544.493 188.769 537.386 Q188.769 530.257 186.94 526.715 Q185.135 523.15 181.501 523.15 M181.501 519.447 Q187.311 519.447 190.366 524.053 Q193.445 528.636 193.445 537.386 Q193.445 546.113 190.366 550.72 Q187.311 555.303 181.501 555.303 Q175.691 555.303 172.612 550.72 Q169.556 546.113 169.556 537.386 Q169.556 528.636 172.612 524.053 Q175.691 519.447 181.501 519.447 Z" fill="#000000" fill-rule="nonzero" fill-opacity="1" /><path clip-path="url(#clip590)" d="M51.6634 266 L59.3023 266 L59.3023 239.635 L50.9921 241.302 L50.9921 237.042 L59.256 235.376 L63.9319 235.376 L63.9319 266 L71.5707 266 L71.5707 269.936 L51.6634 269.936 L51.6634 266 Z" fill="#000000" fill-rule="nonzero" fill-opacity="1" /><path clip-path="url(#clip590)" d="M91.0151 238.454 Q87.404 238.454 85.5753 242.019 Q83.7697 245.561 83.7697 252.69 Q83.7697 259.797 85.5753 263.362 Q87.404 266.903 91.0151 266.903 Q94.6493 266.903 96.4548 263.362 Q98.2835 259.797 98.2835 252.69 Q98.2835 245.561 96.4548 242.019 Q94.6493 238.454 91.0151 238.454 M91.0151 234.751 Q96.8252 234.751 99.8808 239.357 Q102.959 243.94 102.959 252.69 Q102.959 261.417 99.8808 266.024 Q96.8252 270.607 91.0151 270.607 Q85.2049 270.607 82.1262 266.024 Q79.0707 261.417 79.0707 252.69 Q79.0707 243.94 82.1262 239.357 Q85.2049 234.751 91.0151 234.751 Z" fill="#000000" fill-rule="nonzero" fill-opacity="1" /><path clip-path="url(#clip590)" d="M121.177 238.454 Q117.566 238.454 115.737 242.019 Q113.932 245.561 113.932 252.69 Q113.932 259.797 115.737 263.362 Q117.566 266.903 121.177 266.903 Q124.811 266.903 126.617 263.362 Q128.445 259.797 128.445 252.69 Q128.445 245.561 126.617 242.019 Q124.811 238.454 121.177 238.454 M121.177 234.751 Q126.987 234.751 130.043 239.357 Q133.121 243.94 133.121 252.69 Q133.121 261.417 130.043 266.024 Q126.987 270.607 121.177 270.607 Q115.367 270.607 112.288 266.024 Q109.233 261.417 109.233 252.69 Q109.233 243.94 112.288 239.357 Q115.367 234.751 121.177 234.751 Z" fill="#000000" fill-rule="nonzero" fill-opacity="1" /><path clip-path="url(#clip590)" d="M151.339 238.454 Q147.728 238.454 145.899 242.019 Q144.093 245.561 144.093 252.69 Q144.093 259.797 145.899 263.362 Q147.728 266.903 151.339 266.903 Q154.973 266.903 156.779 263.362 Q158.607 259.797 158.607 252.69 Q158.607 245.561 156.779 242.019 Q154.973 238.454 151.339 238.454 M151.339 234.751 Q157.149 234.751 160.205 239.357 Q163.283 243.94 163.283 252.69 Q163.283 261.417 160.205 266.024 Q157.149 270.607 151.339 270.607 Q145.529 270.607 142.45 266.024 Q139.394 261.417 139.394 252.69 Q139.394 243.94 142.45 239.357 Q145.529 234.751 151.339 234.751 Z" fill="#000000" fill-rule="nonzero" fill-opacity="1" /><path clip-path="url(#clip590)" d="M181.501 238.454 Q177.89 238.454 176.061 242.019 Q174.255 245.561 174.255 252.69 Q174.255 259.797 176.061 263.362 Q177.89 266.903 181.501 266.903 Q185.135 266.903 186.94 263.362 Q188.769 259.797 188.769 252.69 Q188.769 245.561 186.94 242.019 Q185.135 238.454 181.501 238.454 M181.501 234.751 Q187.311 234.751 190.366 239.357 Q193.445 243.94 193.445 252.69 Q193.445 261.417 190.366 266.024 Q187.311 270.607 181.501 270.607 Q175.691 270.607 172.612 266.024 Q169.556 261.417 169.556 252.69 Q169.556 243.94 172.612 239.357 Q175.691 234.751 181.501 234.751 Z" fill="#000000" fill-rule="nonzero" fill-opacity="1" /><polyline clip-path="url(#clip592)" style="stroke:#009af9; stroke-linecap:round; stroke-linejoin:round; stroke-width:4; stroke-opacity:1; fill:none" points="289.539,87.9763 290.54,1282.04 291.542,1418.45 292.543,1439.66 293.545,1441.61 294.547,1442.38 295.548,1442.71 296.55,1442.93 297.551,1443.09 298.553,1443.22 299.554,1443.32 300.556,1443.38 301.558,1443.28 302.559,1442.89 303.561,1440.98 304.562,1442.33 305.564,1441.83 306.565,1442.74 307.567,1442.52 308.568,1442.98 309.57,1442.72 310.572,1443.04 311.573,1442.65 312.575,1443.01 313.576,1442.54 314.578,1443 315.579,1442.59 316.581,1443.05 317.582,1442.69 318.584,1443.1 319.586,1442.73 320.587,1443.13 321.589,1442.72 322.59,1443.14 323.592,1442.72 324.593,1443.15 325.595,1442.74 326.597,1443.16 327.598,1442.76 328.6,1443.18 329.601,1442.77 330.603,1443.2 331.604,1442.78 332.606,1443.21 333.607,1442.79 334.609,1443.22 335.611,1442.8 336.612,1443.24 337.614,1442.82 338.615,1443.26 339.617,1442.84 340.618,1443.28 341.62,1442.86 342.622,1443.3 343.623,1442.88 344.625,1443.32 345.626,1442.91 346.628,1443.34 347.629,1442.93 348.631,1443.37 349.632,1442.96 350.634,1443.39 351.636,1442.98 352.637,1443.41 353.639,1443.01 354.64,1443.43 355.642,1443.04 356.643,1443.46 357.645,1443.06 358.647,1443.48 359.648,1443.09 360.65,1443.5 361.651,1443.11 362.653,1443.52 363.654,1443.13 364.656,1443.54 365.657,1443.16 366.659,1443.56 367.661,1443.18 368.662,1443.58 369.664,1443.2 370.665,1443.6 371.667,1443.22 372.668,1443.61 373.67,1443.25 374.672,1443.63 375.673,1443.27 376.675,1443.65 377.676,1443.29 378.678,1443.67 379.679,1443.31 380.681,1443.68 381.682,1443.33 382.684,1443.7 383.686,1443.35 384.687,1443.72 385.689,1443.37 386.69,1443.73 387.692,1443.39 388.693,1443.75 389.695,1443.4 390.697,1443.76 391.698,1443.42 392.7,1443.78 393.701,1443.44 394.703,1443.79 395.704,1443.45 396.706,1443.81 397.707,1443.47 398.709,1443.82 399.711,1443.48 400.712,1443.83 401.714,1443.5 402.715,1443.84 403.717,1443.51 404.718,1443.86 405.72,1443.52 406.721,1443.87 407.723,1443.54 408.725,1443.88 409.726,1443.55 410.728,1443.89 411.729,1443.56 412.731,1443.9 413.732,1443.57 414.734,1443.91 415.736,1443.58 416.737,1443.92 417.739,1443.58 418.74,1443.93 419.742,1443.59 420.743,1443.94 421.745,1443.6 422.746,1443.95 423.748,1443.61 424.75,1443.96 425.751,1443.61 426.753,1443.96 427.754,1443.62 428.756,1443.97 429.757,1443.62 430.759,1443.98 431.761,1443.63 432.762,1443.99 433.764,1443.63 434.765,1444 435.767,1443.63 436.768,1444.01 437.77,1443.64 438.771,1444.01 439.773,1443.64 440.775,1444.02 441.776,1443.64 442.778,1444.03 443.779,1443.65 444.781,1444.04 445.782,1443.65 446.784,1444.05 447.786,1443.65 448.787,1444.06 449.789,1443.66 450.79,1444.06 451.792,1443.66 452.793,1444.07 453.795,1443.66 454.796,1444.08 455.798,1443.67 456.8,1444.09 457.801,1443.67 458.803,1444.1 459.804,1443.67 460.806,1444.11 461.807,1443.68 462.809,1444.12 463.811,1443.68 464.812,1444.13 465.814,1443.68 466.815,1444.14 467.817,1443.69 468.818,1444.15 469.82,1443.69 470.821,1444.15 471.823,1443.7 472.825,1444.16 473.826,1443.7 474.828,1444.17 475.829,1443.7 476.831,1444.18 477.832,1443.71 478.834,1444.19 479.835,1443.71 480.837,1444.2 481.839,1443.72 482.84,1444.21 483.842,1443.72 484.843,1444.22 485.845,1443.73 486.846,1444.23 487.848,1443.73 488.85,1444.24 489.851,1443.74 490.853,1444.24 491.854,1443.74 492.856,1444.25 493.857,1443.75 494.859,1444.26 495.86,1443.75 496.862,1444.27 497.864,1443.76 498.865,1444.28 499.867,1443.76 500.868,1444.29 501.87,1443.77 502.871,1444.3 503.873,1443.77 504.875,1444.3 505.876,1443.78 506.878,1444.31 507.879,1443.78 508.881,1444.32 509.882,1443.79 510.884,1444.33 511.885,1443.8 512.887,1444.34 513.889,1443.8 514.89,1444.34 515.892,1443.81 516.893,1444.35 517.895,1443.8 518.896,1444.37 519.898,1443.87 520.9,1444.34 521.901,1443.67 522.903,1444.4 523.904,1444.23 524.906,1444.07 525.907,1442.92 526.909,1443.76 527.91,1443.66 528.912,1444.18 529.914,1444.21 530.915,1444.6 531.917,1444.71 532.918,1444.51 533.92,1443.47 534.921,1444.13 535.923,1444.15 536.925,1444.55 537.926,1444.22 538.928,1444.29 539.929,1443.22 540.931,1444.12 541.932,1444.27 542.934,1444.63 543.935,1444.3 544.937,1444.38 545.939,1443.36 546.94,1444.23 547.942,1444.42 548.943,1444.54 549.945,1443.7 550.946,1444.44 551.948,1444.58 552.95,1444.18 553.951,1443.01 554.953,1443.78 555.954,1443.61 556.956,1444.12 557.957,1444.06 558.959,1444.43 559.96,1444.51 560.962,1444.8 561.964,1444.78 562.965,1444.44 563.967,1443.27 564.968,1443.97 565.97,1443.85 566.971,1444.42 567.973,1444.57 568.974,1444.72 569.976,1444.13 570.978,1444.6 571.979,1444.22 572.981,1444.36 573.982,1443.31 574.984,1444.25 575.985,1444.46 576.987,1444.75 577.989,1444.36 578.99,1444.56 579.992,1443.72 580.993,1444.53 581.995,1444.68 582.996,1444.27 583.998,1443.14 584.999,1443.92 586.001,1443.81 587.003,1444.25 588.004,1444.22 589.006,1444.54 590.007,1444.61 591.009,1444.88 592.01,1444.9 593.012,1444.59 594.014,1443.51 595.015,1444.19 596.017,1444.16 597.018,1444.68 598.02,1444.82 599.021,1444.62 600.023,1443.63 601.024,1444.33 602.026,1444.43 603.028,1444.83 604.029,1444.81 605.031,1444.53 606.032,1443.47 607.034,1444.19 608.035,1444.19 609.037,1444.66 610.039,1444.82 611.04,1444.89 612.042,1444.34 613.043,1444.76 614.045,1444.46 615.046,1444.52 616.048,1443.55 617.049,1444.42 618.051,1444.63 619.053,1444.91 620.054,1444.63 621.056,1444.7 622.057,1443.87 623.059,1444.63 624.06,1444.82 625.062,1444.66 626.064,1443.71 627.065,1444.42 628.067,1444.53 629.068,1444.91 630.07,1444.89 631.071,1444.66 632.073,1443.67 633.074,1444.36 634.076,1444.35 635.078,1444.82 636.079,1444.84 637.081,1444.7 638.082,1443.76 639.084,1444.45 640.085,1444.43 641.087,1444.83 642.088,1444.56 643.09,1444.63 644.092,1443.72 645.093,1444.51 646.095,1444.49 647.096,1444.73 648.098,1444.05 649.099,1444.68 650.101,1444.47 651.103,1444.54 652.104,1443.56 653.106,1444.39 654.107,1444.26 655.109,1444.74 656.11,1444.4 657.112,1444.64 658.113,1443.86 659.115,1444.58 660.117,1444.38 661.118,1444.55 662.12,1443.66 663.121,1444.47 664.123,1444.29 665.124,1444.65 666.126,1444.01 667.128,1444.62 668.129,1444.23 669.131,1444.56 670.132,1443.79 671.134,1444.54 672.135,1444.29 673.137,1444.56 674.138,1443.75 675.14,1444.52 676.142,1444.28 677.143,1444.6 678.145,1443.86 679.146,1444.56 680.148,1444.26 681.149,1444.57 682.151,1443.79 683.153,1444.53 684.154,1444.24 685.156,1444.58 686.157,1443.82 687.159,1444.54 688.16,1444.23 689.162,1444.57 690.163,1443.83 691.165,1444.54 692.167,1444.22 693.168,1444.57 694.17,1443.84 695.171,1444.55 696.173,1444.21 697.174,1444.57 698.176,1443.84 699.178,1444.55 700.179,1444.2 701.181,1444.57 702.182,1443.85 703.184,1444.55 704.185,1444.2 705.187,1444.58 706.188,1443.87 707.19,1444.56 708.192,1444.19 709.193,1444.58 710.195,1443.88 711.196,1444.56 712.198,1444.19 713.199,1444.58 714.201,1443.89 715.202,1444.57 716.204,1444.19 717.206,1444.59 718.207,1443.9 719.209,1444.57 720.21,1444.19 721.212,1444.59 722.213,1443.92 723.215,1444.58 724.217,1444.19 725.218,1444.6 726.22,1443.93 727.221,1444.58 728.223,1444.2 729.224,1444.6 730.226,1443.95 731.227,1444.59 732.229,1444.2 733.231,1444.61 734.232,1443.96 735.234,1444.6 736.235,1444.2 737.237,1444.62 738.238,1443.98 739.24,1444.61 740.242,1444.21 741.243,1444.62 742.245,1443.99 743.246,1444.61 744.248,1444.21 745.249,1444.63 746.251,1444.01 747.252,1444.62 748.254,1444.22 749.256,1444.64 750.257,1444.02 751.259,1444.63 752.26,1444.22 753.262,1444.65 754.263,1444.04 755.265,1444.64 756.267,1444.23 757.268,1444.65 758.27,1444.05 759.271,1444.64 760.273,1444.23 761.274,1444.66 762.276,1444.07 763.277,1444.65 764.279,1444.24 765.281,1444.67 766.282,1444.08 767.284,1444.66 768.285,1444.24 769.287,1444.67 770.288,1444.1 771.29,1444.67 772.292,1444.25 773.293,1444.68 774.295,1444.11 775.296,1444.67 776.298,1444.25 777.299,1444.69 778.301,1444.12 779.302,1444.68 780.304,1444.26 781.306,1444.69 782.307,1444.14 783.309,1444.69 784.31,1444.26 785.312,1444.7 786.313,1444.15 787.315,1444.69 788.317,1444.26 789.318,1444.7 790.32,1444.16 791.321,1444.7 792.323,1444.27 793.324,1444.71 794.326,1444.18 795.327,1444.71 796.329,1444.27 797.331,1444.72 798.332,1444.19 799.334,1444.71 800.335,1444.28 801.337,1444.72 802.338,1444.2 803.34,1444.72 804.341,1444.28 805.343,1444.73 806.345,1444.21 807.346,1444.72 808.348,1444.28 809.349,1444.73 810.351,1444.22 811.352,1444.73 812.354,1444.29 813.356,1444.74 814.357,1444.23 815.359,1444.74 816.36,1444.29 817.362,1444.74 818.363,1444.24 819.365,1444.74 820.366,1444.29 821.368,1444.75 822.37,1444.25 823.371,1444.75 824.373,1444.3 825.374,1444.75 826.376,1444.26 827.377,1444.75 828.379,1444.3 829.381,1444.76 830.382,1444.27 831.384,1444.76 832.385,1444.31 833.387,1444.76 834.388,1444.28 835.39,1444.76 836.391,1444.31 837.393,1444.76 838.395,1444.29 839.396,1444.77 840.398,1444.31 841.399,1444.77 842.401,1444.3 843.402,1444.77 844.404,1444.32 845.406,1444.77 846.407,1444.31 847.409,1444.77 848.41,1444.32 849.412,1444.78 850.413,1444.31 851.415,1444.78 852.416,1444.33 853.418,1444.78 854.42,1444.32 855.421,1444.78 856.423,1444.33 857.424,1444.78 858.426,1444.33 859.427,1444.79 860.429,1444.34 861.431,1444.79 862.432,1444.33 863.434,1444.79 864.435,1444.34 865.437,1444.79 866.438,1444.34 867.44,1444.79 868.441,1444.34 869.443,1444.8 870.445,1444.34 871.446,1444.8 872.448,1444.35 873.449,1444.8 874.451,1444.35 875.452,1444.8 876.454,1444.35 877.455,1444.8 878.457,1444.35 879.459,1444.81 880.46,1444.36 881.462,1444.81 882.463,1444.36 883.465,1444.81 884.466,1444.36 885.468,1444.81 886.47,1444.36 887.471,1444.81 888.473,1444.37 889.474,1444.81 890.476,1444.37 891.477,1444.82 892.479,1444.37 893.48,1444.82 894.482,1444.37 895.484,1444.82 896.485,1444.38 897.487,1444.82 898.488,1444.38 899.49,1444.82 900.491,1444.38 901.493,1444.83 902.495,1444.38 903.496,1444.83 904.498,1444.39 905.499,1444.83 906.501,1444.39 907.502,1444.83 908.504,1444.39 909.505,1444.83 910.507,1444.39 911.509,1444.83 912.51,1444.4 913.512,1444.84 914.513,1444.4 915.515,1444.84 916.516,1444.4 917.518,1444.84 918.52,1444.4 919.521,1444.84 920.523,1444.41 921.524,1444.84 922.526,1444.41 923.527,1444.85 924.529,1444.41 925.53,1444.85 926.532,1444.42 927.534,1444.85 928.535,1444.42 929.537,1444.85 930.538,1444.42 931.54,1444.85 932.541,1444.42 933.543,1444.86 934.545,1444.43 935.546,1444.86 936.548,1444.43 937.549,1444.86 938.551,1444.43 939.552,1444.86 940.554,1444.44 941.555,1444.87 942.557,1444.44 943.559,1444.87 944.56,1444.44 945.562,1444.87 946.563,1444.44 947.565,1444.87 948.566,1444.45 949.568,1444.87 950.57,1444.45 951.571,1444.88 952.573,1444.46 953.574,1444.88 954.576,1444.46 955.577,1444.88 956.579,1444.46 957.58,1444.88 958.582,1444.47 959.584,1444.89 960.585,1444.47 961.587,1444.89 962.588,1444.47 963.59,1444.89 964.591,1444.48 965.593,1444.9 966.594,1444.48 967.596,1444.9 968.598,1444.49 969.599,1444.9 970.601,1444.49 971.602,1444.9 972.604,1444.49 973.605,1444.91 974.607,1444.5 975.609,1444.91 976.61,1444.5 977.612,1444.91 978.613,1444.51 979.615,1444.92 980.616,1444.51 981.618,1444.92 982.619,1444.52 983.621,1444.92 984.623,1444.52 985.624,1444.93 986.626,1444.53 987.627,1444.93 988.629,1444.53 989.63,1444.93 990.632,1444.54 991.634,1444.94 992.635,1444.54 993.637,1444.94 994.638,1444.55 995.64,1444.95 996.641,1444.55 997.643,1444.95 998.644,1444.56 999.646,1444.95 1000.65,1444.56 1001.65,1444.96 1002.65,1444.57 1003.65,1444.96 1004.65,1444.57 1005.66,1444.96 1006.66,1444.58 1007.66,1444.97 1008.66,1444.59 1009.66,1444.97 1010.66,1444.59 1011.66,1444.98 1012.67,1444.6 1013.67,1444.98 1014.67,1444.6 1015.67,1444.99 1016.67,1444.61 1017.67,1444.99 1018.68,1444.61 1019.68,1444.99 1020.68,1444.62 1021.68,1445 1022.68,1444.63 1023.68,1445 1024.69,1444.63 1025.69,1445.01 1026.69,1444.64 1027.69,1445.01 1028.69,1444.65 1029.69,1445.02 1030.69,1444.65 1031.7,1445.02 1032.7,1444.66 1033.7,1445.03 1034.7,1444.67 1035.7,1445.03 1036.7,1444.67 1037.71,1445.03 1038.71,1444.68 1039.71,1445.04 1040.71,1444.69 1041.71,1445.04 1042.71,1444.69 1043.71,1445.05 1044.72,1444.7 1045.72,1445.05 1046.72,1444.71 1047.72,1445.06 1048.72,1444.71 1049.72,1445.06 1050.73,1444.72 1051.73,1445.07 1052.73,1444.73 1053.73,1445.07 1054.73,1444.73 1055.73,1445.08 1056.74,1444.74 1057.74,1445.08 1058.74,1444.75 1059.74,1445.09 1060.74,1444.75 1061.74,1445.09 1062.74,1444.76 1063.75,1445.1 1064.75,1444.77 1065.75,1445.1 1066.75,1444.77 1067.75,1445.11 1068.75,1444.78 1069.76,1445.11 1070.76,1444.79 1071.76,1445.11 1072.76,1444.79 1073.76,1445.12 1074.76,1444.8 1075.76,1445.12 1076.77,1444.81 1077.77,1445.13 1078.77,1444.81 1079.77,1445.13 1080.77,1444.82 1081.77,1445.14 1082.78,1444.83 1083.78,1445.14 1084.78,1444.83 1085.78,1445.15 1086.78,1444.84 1087.78,1445.15 1088.79,1444.85 1089.79,1445.16 1090.79,1444.85 1091.79,1445.16 1092.79,1444.86 1093.79,1445.16 1094.79,1444.86 1095.8,1445.17 1096.8,1444.87 1097.8,1445.17 1098.8,1444.88 1099.8,1445.18 1100.8,1444.88 1101.81,1445.18 1102.81,1444.89 1103.81,1445.19 1104.81,1444.89 1105.81,1445.19 1106.81,1444.9 1107.81,1445.19 1108.82,1444.91 1109.82,1445.2 1110.82,1444.91 1111.82,1445.2 1112.82,1444.92 1113.82,1445.21 1114.83,1444.92 1115.83,1445.21 1116.83,1444.93 1117.83,1445.21 1118.83,1444.93 1119.83,1445.22 1120.83,1444.94 1121.84,1445.22 1122.84,1444.94 1123.84,1445.23 1124.84,1444.95 1125.84,1445.23 1126.84,1444.96 1127.85,1445.23 1128.85,1444.96 1129.85,1445.24 1130.85,1444.97 1131.85,1445.24 1132.85,1444.97 1133.86,1445.24 1134.86,1444.98 1135.86,1445.25 1136.86,1444.98 1137.86,1445.25 1138.86,1444.99 1139.86,1445.25 1140.87,1444.99 1141.87,1445.26 1142.87,1445 1143.87,1445.26 1144.87,1445 1145.87,1445.26 1146.88,1445.01 1147.88,1445.27 1148.88,1445.01 1149.88,1445.27 1150.88,1445.01 1151.88,1445.27 1152.88,1445.02 1153.89,1445.28 1154.89,1445.02 1155.89,1445.28 1156.89,1445.03 1157.89,1445.28 1158.89,1445.03 1159.9,1445.29 1160.9,1445.04 1161.9,1445.29 1162.9,1445.04 1163.9,1445.29 1164.9,1445.05 1165.91,1445.3 1166.91,1445.05 1167.91,1445.3 1168.91,1445.06 1169.91,1445.3 1170.91,1445.06 1171.91,1445.31 1172.92,1445.06 1173.92,1445.31 1174.92,1445.07 1175.92,1445.31 1176.92,1445.07 1177.92,1445.32 1178.93,1445.08 1179.93,1445.32 1180.93,1445.08 1181.93,1445.32 1182.93,1445.09 1183.93,1445.33 1184.93,1445.09 1185.94,1445.33 1186.94,1445.09 1187.94,1445.33 1188.94,1445.1 1189.94,1445.33 1190.94,1445.1 1191.95,1445.34 1192.95,1445.11 1193.95,1445.34 1194.95,1445.11 1195.95,1445.34 1196.95,1445.12 1197.96,1445.35 1198.96,1445.12 1199.96,1445.35 1200.96,1445.12 1201.96,1445.35 1202.96,1445.13 1203.96,1445.36 1204.97,1445.13 1205.97,1445.36 1206.97,1445.14 1207.97,1445.36 1208.97,1445.14 1209.97,1445.36 1210.98,1445.14 1211.98,1445.37 1212.98,1445.15 1213.98,1445.37 1214.98,1445.15 1215.98,1445.37 1216.98,1445.15 1217.99,1445.37 1218.99,1445.16 1219.99,1445.38 1220.99,1445.16 1221.99,1445.38 1222.99,1445.17 1224,1445.38 1225,1445.17 1226,1445.39 1227,1445.17 1228,1445.39 1229,1445.18 1230.01,1445.39 1231.01,1445.18 1232.01,1445.39 1233.01,1445.18 1234.01,1445.4 1235.01,1445.19 1236.01,1445.4 1237.02,1445.19 1238.02,1445.4 1239.02,1445.2 1240.02,1445.4 1241.02,1445.2 1242.02,1445.41 1243.03,1445.2 1244.03,1445.41 1245.03,1445.21 1246.03,1445.41 1247.03,1445.21 1248.03,1445.42 1249.03,1445.21 1250.04,1445.42 1251.04,1445.22 1252.04,1445.42 1253.04,1445.22 1254.04,1445.42 1255.04,1445.22 1256.05,1445.43 1257.05,1445.23 1258.05,1445.43 1259.05,1445.23 1260.05,1445.43 1261.05,1445.23 1262.06,1445.43 1263.06,1445.24 1264.06,1445.44 1265.06,1445.24 1266.06,1445.44 1267.06,1445.24 1268.06,1445.44 1269.07,1445.25 1270.07,1445.44 1271.07,1445.25 1272.07,1445.45 1273.07,1445.25 1274.07,1445.45 1275.08,1445.26 1276.08,1445.45 1277.08,1445.26 1278.08,1445.45 1279.08,1445.26 1280.08,1445.45 1281.08,1445.27 1282.09,1445.46 1283.09,1445.27 1284.09,1445.46 1285.09,1445.27 1286.09,1445.46 1287.09,1445.28 1288.1,1445.46 1289.1,1445.28 1290.1,1445.47 1291.1,1445.28 1292.1,1445.47 1293.1,1445.29 1294.11,1445.47 1295.11,1445.29 1296.11,1445.47 1297.11,1445.29 1298.11,1445.48 1299.11,1445.3 1300.11,1445.48 1301.12,1445.3 1302.12,1445.48 1303.12,1445.3 1304.12,1445.48 1305.12,1445.31 1306.12,1445.48 1307.13,1445.31 1308.13,1445.49 1309.13,1445.31 1310.13,1445.49 1311.13,1445.31 1312.13,1445.49 1313.13,1445.32 1314.14,1445.49 1315.14,1445.32 1316.14,1445.5 1317.14,1445.32 1318.14,1445.5 1319.14,1445.33 1320.15,1445.5 1321.15,1445.33 1322.15,1445.5 1323.15,1445.33 1324.15,1445.5 1325.15,1445.33 1326.16,1445.51 1327.16,1445.34 1328.16,1445.51 1329.16,1445.34 1330.16,1445.51 1331.16,1445.34 1332.16,1445.51 1333.17,1445.35 1334.17,1445.51 1335.17,1445.35 1336.17,1445.52 1337.17,1445.35 1338.17,1445.52 1339.18,1445.35 1340.18,1445.52 1341.18,1445.36 1342.18,1445.52 1343.18,1445.36 1344.18,1445.52 1345.18,1445.36 1346.19,1445.53 1347.19,1445.36 1348.19,1445.53 1349.19,1445.37 1350.19,1445.53 1351.19,1445.37 1352.2,1445.53 1353.2,1445.37 1354.2,1445.53 1355.2,1445.37 1356.2,1445.53 1357.2,1445.38 1358.21,1445.54 1359.21,1445.38 1360.21,1445.54 1361.21,1445.38 1362.21,1445.54 1363.21,1445.38 1364.21,1445.54 1365.22,1445.39 1366.22,1445.54 1367.22,1445.39 1368.22,1445.55 1369.22,1445.39 1370.22,1445.55 1371.23,1445.39 1372.23,1445.55 1373.23,1445.39 1374.23,1445.55 1375.23,1445.4 1376.23,1445.55 1377.23,1445.4 1378.24,1445.55 1379.24,1445.4 1380.24,1445.56 1381.24,1445.4 1382.24,1445.56 1383.24,1445.41 1384.25,1445.56 1385.25,1445.41 1386.25,1445.56 1387.25,1445.41 1388.25,1445.56 1389.25,1445.41 1390.26,1445.56 1391.26,1445.41 1392.26,1445.57 1393.26,1445.42 1394.26,1445.57 1395.26,1445.42 1396.26,1445.57 1397.27,1445.42 1398.27,1445.57 1399.27,1445.42 1400.27,1445.57 1401.27,1445.42 1402.27,1445.57 1403.28,1445.43 1404.28,1445.57 1405.28,1445.43 1406.28,1445.58 1407.28,1445.43 1408.28,1445.58 1409.28,1445.43 1410.29,1445.58 1411.29,1445.43 1412.29,1445.58 1413.29,1445.44 1414.29,1445.58 1415.29,1445.44 1416.3,1445.58 1417.3,1445.44 1418.3,1445.58 1419.3,1445.44 1420.3,1445.59 1421.3,1445.44 1422.31,1445.59 1423.31,1445.44 1424.31,1445.59 1425.31,1445.45 1426.31,1445.59 1427.31,1445.45 1428.31,1445.59 1429.32,1445.45 1430.32,1445.59 1431.32,1445.45 1432.32,1445.59 1433.32,1445.45 1434.32,1445.59 1435.33,1445.45 1436.33,1445.6 1437.33,1445.46 1438.33,1445.6 1439.33,1445.46 1440.33,1445.6 1441.33,1445.46 1442.34,1445.6 1443.34,1445.46 1444.34,1445.6 1445.34,1445.46 1446.34,1445.6 1447.34,1445.46 1448.35,1445.6 1449.35,1445.46 1450.35,1445.6 1451.35,1445.47 1452.35,1445.61 1453.35,1445.47 1454.36,1445.61 1455.36,1445.47 1456.36,1445.61 1457.36,1445.47 1458.36,1445.61 1459.36,1445.47 1460.36,1445.61 1461.37,1445.47 1462.37,1445.61 1463.37,1445.47 1464.37,1445.61 1465.37,1445.48 1466.37,1445.61 1467.38,1445.48 1468.38,1445.61 1469.38,1445.48 1470.38,1445.61 1471.38,1445.48 1472.38,1445.62 1473.38,1445.48 1474.39,1445.62 1475.39,1445.48 1476.39,1445.62 1477.39,1445.48 1478.39,1445.62 1479.39,1445.49 1480.4,1445.62 1481.4,1445.49 1482.4,1445.62 1483.4,1445.49 1484.4,1445.62 1485.4,1445.49 1486.41,1445.62 1487.41,1445.49 1488.41,1445.62 1489.41,1445.49 1490.41,1445.62 1491.41,1445.49 1492.41,1445.62 1493.42,1445.49 1494.42,1445.63 1495.42,1445.49 1496.42,1445.63 1497.42,1445.5 1498.42,1445.63 1499.43,1445.5 1500.43,1445.63 1501.43,1445.5 1502.43,1445.63 1503.43,1445.5 1504.43,1445.63 1505.43,1445.5 1506.44,1445.63 1507.44,1445.5 1508.44,1445.63 1509.44,1445.5 1510.44,1445.63 1511.44,1445.5 1512.45,1445.63 1513.45,1445.5 1514.45,1445.63 1515.45,1445.5 1516.45,1445.63 1517.45,1445.51 1518.45,1445.64 1519.46,1445.51 1520.46,1445.64 1521.46,1445.51 1522.46,1445.64 1523.46,1445.51 1524.46,1445.64 1525.47,1445.51 1526.47,1445.64 1527.47,1445.51 1528.47,1445.64 1529.47,1445.51 1530.47,1445.64 1531.48,1445.51 1532.48,1445.64 1533.48,1445.51 1534.48,1445.64 1535.48,1445.51 1536.48,1445.64 1537.48,1445.51 1538.49,1445.64 1539.49,1445.51 1540.49,1445.64 1541.49,1445.52 1542.49,1445.64 1543.49,1445.52 1544.5,1445.64 1545.5,1445.52 1546.5,1445.64 1547.5,1445.52 1548.5,1445.65 1549.5,1445.52 1550.5,1445.65 1551.51,1445.52 1552.51,1445.65 1553.51,1445.52 1554.51,1445.65 1555.51,1445.52 1556.51,1445.65 1557.52,1445.52 1558.52,1445.65 1559.52,1445.52 1560.52,1445.65 1561.52,1445.52 1562.52,1445.65 1563.53,1445.52 1564.53,1445.65 1565.53,1445.52 1566.53,1445.65 1567.53,1445.52 1568.53,1445.65 1569.53,1445.53 1570.54,1445.65 1571.54,1445.53 1572.54,1445.65 1573.54,1445.53 1574.54,1445.65 1575.54,1445.53 1576.55,1445.65 1577.55,1445.53 1578.55,1445.65 1579.55,1445.53 1580.55,1445.65 1581.55,1445.53 1582.55,1445.65 1583.56,1445.53 1584.56,1445.65 1585.56,1445.53 1586.56,1445.65 1587.56,1445.53 1588.56,1445.66 1589.57,1445.53 1590.57,1445.66 1591.57,1445.53 1592.57,1445.66 1593.57,1445.53 1594.57,1445.66 1595.58,1445.53 1596.58,1445.66 1597.58,1445.53 1598.58,1445.66 1599.58,1445.53 1600.58,1445.66 1601.58,1445.53 1602.59,1445.66 1603.59,1445.53 1604.59,1445.66 1605.59,1445.54 1606.59,1445.66 1607.59,1445.54 1608.6,1445.66 1609.6,1445.54 1610.6,1445.66 1611.6,1445.54 1612.6,1445.66 1613.6,1445.54 1614.6,1445.66 1615.61,1445.54 1616.61,1445.66 1617.61,1445.54 1618.61,1445.66 1619.61,1445.54 1620.61,1445.66 1621.62,1445.54 1622.62,1445.66 1623.62,1445.54 1624.62,1445.66 1625.62,1445.54 1626.62,1445.66 1627.63,1445.54 1628.63,1445.66 1629.63,1445.54 1630.63,1445.66 1631.63,1445.54 1632.63,1445.66 1633.63,1445.54 1634.64,1445.66 1635.64,1445.54 1636.64,1445.66 1637.64,1445.54 1638.64,1445.66 1639.64,1445.54 1640.65,1445.66 1641.65,1445.54 1642.65,1445.66 1643.65,1445.54 1644.65,1445.67 1645.65,1445.54 1646.65,1445.67 1647.66,1445.54 1648.66,1445.67 1649.66,1445.54 1650.66,1445.67 1651.66,1445.54 1652.66,1445.67 1653.67,1445.54 1654.67,1445.67 1655.67,1445.55 1656.67,1445.67 1657.67,1445.55 1658.67,1445.67 1659.68,1445.55 1660.68,1445.67 1661.68,1445.55 1662.68,1445.67 1663.68,1445.55 1664.68,1445.67 1665.68,1445.55 1666.69,1445.67 1667.69,1445.55 1668.69,1445.67 1669.69,1445.55 1670.69,1445.67 1671.69,1445.55 1672.7,1445.67 1673.7,1445.55 1674.7,1445.67 1675.7,1445.55 1676.7,1445.67 1677.7,1445.55 1678.7,1445.67 1679.71,1445.55 1680.71,1445.67 1681.71,1445.55 1682.71,1445.67 1683.71,1445.55 1684.71,1445.67 1685.72,1445.55 1686.72,1445.67 1687.72,1445.55 1688.72,1445.67 1689.72,1445.55 1690.72,1445.67 1691.73,1445.55 1692.73,1445.67 1693.73,1445.55 1694.73,1445.67 1695.73,1445.55 1696.73,1445.67 1697.73,1445.55 1698.74,1445.67 1699.74,1445.55 1700.74,1445.67 1701.74,1445.55 1702.74,1445.67 1703.74,1445.55 1704.75,1445.67 1705.75,1445.55 1706.75,1445.67 1707.75,1445.55 1708.75,1445.67 1709.75,1445.55 1710.75,1445.67 1711.76,1445.55 1712.76,1445.67 1713.76,1445.55 1714.76,1445.67 1715.76,1445.55 1716.76,1445.67 1717.77,1445.55 1718.77,1445.67 1719.77,1445.55 1720.77,1445.67 1721.77,1445.55 1722.77,1445.67 1723.78,1445.55 1724.78,1445.67 1725.78,1445.55 1726.78,1445.67 1727.78,1445.55 1728.78,1445.67 1729.78,1445.55 1730.79,1445.67 1731.79,1445.55 1732.79,1445.67 1733.79,1445.55 1734.79,1445.67 1735.79,1445.55 1736.8,1445.67 1737.8,1445.55 1738.8,1445.68 1739.8,1445.55 1740.8,1445.68 1741.8,1445.56 1742.8,1445.68 1743.81,1445.56 1744.81,1445.68 1745.81,1445.56 1746.81,1445.68 1747.81,1445.56 1748.81,1445.68 1749.82,1445.56 1750.82,1445.68 1751.82,1445.56 1752.82,1445.68 1753.82,1445.56 1754.82,1445.68 1755.83,1445.56 1756.83,1445.68 1757.83,1445.56 1758.83,1445.68 1759.83,1445.56 1760.83,1445.68 1761.83,1445.56 1762.84,1445.68 1763.84,1445.56 1764.84,1445.68 1765.84,1445.56 1766.84,1445.68 1767.84,1445.56 1768.85,1445.68 1769.85,1445.56 1770.85,1445.68 1771.85,1445.56 1772.85,1445.68 1773.85,1445.56 1774.85,1445.68 1775.86,1445.56 1776.86,1445.68 1777.86,1445.56 1778.86,1445.68 1779.86,1445.56 1780.86,1445.68 1781.87,1445.56 1782.87,1445.68 1783.87,1445.56 1784.87,1445.68 1785.87,1445.56 1786.87,1445.68 1787.88,1445.56 1788.88,1445.68 1789.88,1445.56 1790.88,1445.68 1791.88,1445.56 1792.88,1445.68 1793.88,1445.56 1794.89,1445.68 1795.89,1445.56 1796.89,1445.68 1797.89,1445.56 1798.89,1445.68 1799.89,1445.56 1800.9,1445.68 1801.9,1445.56 1802.9,1445.68 1803.9,1445.56 1804.9,1445.68 1805.9,1445.56 1806.9,1445.68 1807.91,1445.56 1808.91,1445.68 1809.91,1445.56 1810.91,1445.68 1811.91,1445.56 1812.91,1445.68 1813.92,1445.56 1814.92,1445.68 1815.92,1445.56 1816.92,1445.68 1817.92,1445.56 1818.92,1445.68 1819.93,1445.56 1820.93,1445.68 1821.93,1445.56 1822.93,1445.68 1823.93,1445.56 1824.93,1445.68 1825.93,1445.56 1826.94,1445.68 1827.94,1445.56 1828.94,1445.68 1829.94,1445.56 1830.94,1445.68 1831.94,1445.56 1832.95,1445.68 1833.95,1445.56 1834.95,1445.68 1835.95,1445.56 1836.95,1445.68 1837.95,1445.56 1838.95,1445.68 1839.96,1445.56 1840.96,1445.68 1841.96,1445.56 1842.96,1445.68 1843.96,1445.56 1844.96,1445.68 1845.97,1445.56 1846.97,1445.68 1847.97,1445.56 1848.97,1445.68 1849.97,1445.56 1850.97,1445.68 1851.98,1445.56 1852.98,1445.68 1853.98,1445.56 1854.98,1445.68 1855.98,1445.56 1856.98,1445.68 1857.98,1445.56 1858.99,1445.68 1859.99,1445.56 1860.99,1445.68 1861.99,1445.56 1862.99,1445.68 1863.99,1445.56 1865,1445.68 1866,1445.56 1867,1445.68 1868,1445.56 1869,1445.68 1870,1445.56 1871,1445.68 1872.01,1445.56 1873.01,1445.68 1874.01,1445.57 1875.01,1445.68 1876.01,1445.57 1877.01,1445.68 1878.02,1445.57 1879.02,1445.68 1880.02,1445.57 1881.02,1445.68 1882.02,1445.57 1883.02,1445.68 1884.03,1445.57 1885.03,1445.68 1886.03,1445.57 1887.03,1445.68 1888.03,1445.57 1889.03,1445.69 1890.03,1445.57 1891.04,1445.69 1892.04,1445.57 1893.04,1445.69 1894.04,1445.57 1895.04,1445.69 1896.04,1445.57 1897.05,1445.69 1898.05,1445.57 1899.05,1445.69 1900.05,1445.57 1901.05,1445.69 1902.05,1445.57 1903.05,1445.69 1904.06,1445.57 1905.06,1445.69 1906.06,1445.57 1907.06,1445.69 1908.06,1445.57 1909.06,1445.69 1910.07,1445.57 1911.07,1445.69 1912.07,1445.57 1913.07,1445.69 1914.07,1445.57 1915.07,1445.69 1916.07,1445.57 1917.08,1445.69 1918.08,1445.57 1919.08,1445.69 1920.08,1445.57 1921.08,1445.69 1922.08,1445.57 1923.09,1445.69 1924.09,1445.57 1925.09,1445.69 1926.09,1445.57 1927.09,1445.69 1928.09,1445.57 1929.1,1445.69 1930.1,1445.57 1931.1,1445.69 1932.1,1445.57 1933.1,1445.69 1934.1,1445.57 1935.1,1445.69 1936.11,1445.57 1937.11,1445.69 1938.11,1445.57 1939.11,1445.69 1940.11,1445.57 1941.11,1445.69 1942.12,1445.57 1943.12,1445.69 1944.12,1445.57 1945.12,1445.69 1946.12,1445.57 1947.12,1445.69 1948.12,1445.57 1949.13,1445.69 1950.13,1445.57 1951.13,1445.69 1952.13,1445.57 1953.13,1445.69 1954.13,1445.57 1955.14,1445.69 1956.14,1445.57 1957.14,1445.69 1958.14,1445.57 1959.14,1445.69 1960.14,1445.57 1961.15,1445.69 1962.15,1445.57 1963.15,1445.69 1964.15,1445.57 1965.15,1445.69 1966.15,1445.57 1967.15,1445.69 1968.16,1445.57 1969.16,1445.69 1970.16,1445.57 1971.16,1445.69 1972.16,1445.57 1973.16,1445.69 1974.17,1445.57 1975.17,1445.69 1976.17,1445.57 1977.17,1445.69 1978.17,1445.57 1979.17,1445.69 1980.17,1445.57 1981.18,1445.69 1982.18,1445.57 1983.18,1445.69 1984.18,1445.57 1985.18,1445.69 1986.18,1445.57 1987.19,1445.69 1988.19,1445.57 1989.19,1445.69 1990.19,1445.57 1991.19,1445.69 1992.19,1445.58 1993.2,1445.69 1994.2,1445.58 1995.2,1445.69 1996.2,1445.58 1997.2,1445.69 1998.2,1445.58 1999.2,1445.69 2000.21,1445.58 2001.21,1445.69 2002.21,1445.58 2003.21,1445.69 2004.21,1445.58 2005.21,1445.69 2006.22,1445.58 2007.22,1445.69 2008.22,1445.58 2009.22,1445.69 2010.22,1445.58 2011.22,1445.69 2012.22,1445.58 2013.23,1445.69 2014.23,1445.58 2015.23,1445.69 2016.23,1445.58 2017.23,1445.69 2018.23,1445.58 2019.24,1445.69 2020.24,1445.58 2021.24,1445.69 2022.24,1445.58 2023.24,1445.69 2024.24,1445.58 2025.25,1445.69 2026.25,1445.58 2027.25,1445.69 2028.25,1445.58 2029.25,1445.7 2030.25,1445.58 2031.25,1445.7 2032.26,1445.58 2033.26,1445.7 2034.26,1445.58 2035.26,1445.7 2036.26,1445.58 2037.26,1445.7 2038.27,1445.58 2039.27,1445.7 2040.27,1445.58 2041.27,1445.7 2042.27,1445.58 2043.27,1445.7 2044.27,1445.58 2045.28,1445.7 2046.28,1445.58 2047.28,1445.7 2048.28,1445.58 2049.28,1445.7 2050.28,1445.58 2051.29,1445.7 2052.29,1445.58 2053.29,1445.7 2054.29,1445.58 2055.29,1445.7 2056.29,1445.58 2057.3,1445.7 2058.3,1445.58 2059.3,1445.7 2060.3,1445.58 2061.3,1445.7 2062.3,1445.58 2063.3,1445.7 2064.31,1445.58 2065.31,1445.7 2066.31,1445.58 2067.31,1445.7 2068.31,1445.58 2069.31,1445.7 2070.32,1445.58 2071.32,1445.7 2072.32,1445.58 2073.32,1445.7 2074.32,1445.58 2075.32,1445.7 2076.32,1445.58 2077.33,1445.7 2078.33,1445.58 2079.33,1445.7 2080.33,1445.58 2081.33,1445.7 2082.33,1445.58 2083.34,1445.7 2084.34,1445.58 2085.34,1445.7 2086.34,1445.58 2087.34,1445.7 2088.34,1445.58 2089.35,1445.7 2090.35,1445.58 2091.35,1445.7 2092.35,1445.58 2093.35,1445.7 2094.35,1445.59 2095.35,1445.7 2096.36,1445.59 2097.36,1445.7 2098.36,1445.59 2099.36,1445.7 2100.36,1445.59 2101.36,1445.7 2102.37,1445.59 2103.37,1445.7 2104.37,1445.59 2105.37,1445.7 2106.37,1445.59 2107.37,1445.7 2108.37,1445.59 2109.38,1445.7 2110.38,1445.59 2111.38,1445.7 2112.38,1445.59 2113.38,1445.7 2114.38,1445.59 2115.39,1445.7 2116.39,1445.59 2117.39,1445.7 2118.39,1445.59 2119.39,1445.7 2120.39,1445.59 2121.4,1445.7 2122.4,1445.59 2123.4,1445.7 2124.4,1445.59 2125.4,1445.7 2126.4,1445.59 2127.4,1445.7 2128.41,1445.59 2129.41,1445.7 2130.41,1445.59 2131.41,1445.7 2132.41,1445.59 2133.41,1445.7 2134.42,1445.59 2135.42,1445.7 2136.42,1445.59 2137.42,1445.7 2138.42,1445.59 2139.42,1445.7 2140.42,1445.59 2141.43,1445.7 2142.43,1445.59 2143.43,1445.7 2144.43,1445.59 2145.43,1445.7 2146.43,1445.59 2147.44,1445.7 2148.44,1445.59 2149.44,1445.7 2150.44,1445.59 2151.44,1445.7 2152.44,1445.59 2153.45,1445.7 2154.45,1445.59 2155.45,1445.7 2156.45,1445.59 2157.45,1445.71 2158.45,1445.59 2159.45,1445.71 2160.46,1445.59 2161.46,1445.71 2162.46,1445.59 2163.46,1445.71 2164.46,1445.59 2165.46,1445.71 2166.47,1445.59 2167.47,1445.71 2168.47,1445.59 2169.47,1445.71 2170.47,1445.59 2171.47,1445.71 2172.47,1445.59 2173.48,1445.71 2174.48,1445.59 2175.48,1445.71 2176.48,1445.59 2177.48,1445.71 2178.48,1445.59 2179.49,1445.71 2180.49,1445.59 2181.49,1445.71 2182.49,1445.59 2183.49,1445.71 2184.49,1445.59 2185.5,1445.71 2186.5,1445.59 2187.5,1445.71 2188.5,1445.59 2189.5,1445.71 2190.5,1445.59 2191.5,1445.71 2192.51,1445.6 2193.51,1445.71 2194.51,1445.6 2195.51,1445.71 2196.51,1445.6 2197.51,1445.71 2198.52,1445.6 2199.52,1445.71 2200.52,1445.6 2201.52,1445.71 2202.52,1445.6 2203.52,1445.71 2204.52,1445.6 2205.53,1445.71 2206.53,1445.6 2207.53,1445.71 2208.53,1445.6 2209.53,1445.71 2210.53,1445.6 2211.54,1445.71 2212.54,1445.6 2213.54,1445.71 2214.54,1445.6 2215.54,1445.71 2216.54,1445.6 2217.55,1445.71 2218.55,1445.6 2219.55,1445.71 2220.55,1445.6 2221.55,1445.71 2222.55,1445.6 2223.55,1445.71 2224.56,1445.6 2225.56,1445.71 2226.56,1445.6 2227.56,1445.71 2228.56,1445.6 2229.56,1445.71 2230.57,1445.6 2231.57,1445.71 2232.57,1445.6 2233.57,1445.71 2234.57,1445.6 2235.57,1445.71 2236.57,1445.6 2237.58,1445.71 2238.58,1445.6 2239.58,1445.71 2240.58,1445.6 2241.58,1445.71 2242.58,1445.6 2243.59,1445.71 2244.59,1445.6 2245.59,1445.71 2246.59,1445.6 2247.59,1445.71 2248.59,1445.6 2249.6,1445.71 2250.6,1445.6 2251.6,1445.71 2252.6,1445.6 2253.6,1445.71 2254.6,1445.6 2255.6,1445.71 2256.61,1445.6 2257.61,1445.71 2258.61,1445.6 2259.61,1445.71 2260.61,1445.6 2261.61,1445.71 2262.62,1445.6 2263.62,1445.71 2264.62,1445.6 2265.62,1445.71 2266.62,1445.6 2267.62,1445.71 2268.62,1445.6 2269.63,1445.71 2270.63,1445.6 2271.63,1445.71 2272.63,1445.6 2273.63,1445.71 2274.63,1445.6 2275.64,1445.71 2276.64,1445.6 2277.64,1445.71 2278.64,1445.6 2279.64,1445.71 2280.64,1445.6 2281.65,1445.71 2282.65,1445.6 2283.65,1445.72 2284.65,1445.6 2285.65,1445.72 2286.65,1445.6 2287.65,1445.72 2288.66,1445.6 2289.66,1445.72 2290.66,1445.6 2291.66,1445.72 2292.66,1445.61 "/>
<path clip-path="url(#clip590)" d="M2017.22 198.898 L2281.98 198.898 L2281.98 95.2176 L2017.22 95.2176  Z" fill="#ffffff" fill-rule="evenodd" fill-opacity="1"/>
<polyline clip-path="url(#clip590)" style="stroke:#000000; stroke-linecap:round; stroke-linejoin:round; stroke-width:4; stroke-opacity:1; fill:none" points="2017.22,198.898 2281.98,198.898 2281.98,95.2176 2017.22,95.2176 2017.22,198.898 "/>
<polyline clip-path="url(#clip590)" style="stroke:#009af9; stroke-linecap:round; stroke-linejoin:round; stroke-width:4; stroke-opacity:1; fill:none" points="2040.81,147.058 2182.36,147.058 "/>
<path clip-path="url(#clip590)" d="M2219.8 166.745 Q2217.99 171.375 2216.28 172.787 Q2214.57 174.199 2211.7 174.199 L2208.29 174.199 L2208.29 170.634 L2210.79 170.634 Q2212.55 170.634 2213.53 169.8 Q2214.5 168.967 2215.68 165.865 L2216.44 163.921 L2205.96 138.412 L2210.47 138.412 L2218.57 158.689 L2226.67 138.412 L2231.19 138.412 L2219.8 166.745 Z" fill="#000000" fill-rule="nonzero" fill-opacity="1" /><path clip-path="url(#clip590)" d="M2238.48 160.402 L2246.12 160.402 L2246.12 134.037 L2237.81 135.703 L2237.81 131.444 L2246.07 129.778 L2250.75 129.778 L2250.75 160.402 L2258.39 160.402 L2258.39 164.338 L2238.48 164.338 L2238.48 160.402 Z" fill="#000000" fill-rule="nonzero" fill-opacity="1" /></svg>
