<?xml version="1.0" encoding="utf-8"?>
<svg xmlns="http://www.w3.org/2000/svg" xmlns:xlink="http://www.w3.org/1999/xlink" width="600" height="400" viewBox="0 0 2400 1600">
<defs>
  <clipPath id="clip420">
    <rect x="0" y="0" width="2400" height="1600"/>
  </clipPath>
</defs>
<path clip-path="url(#clip420)" d="M0 1600 L2400 1600 L2400 0 L0 0  Z" fill="#ffffff" fill-rule="evenodd" fill-opacity="1"/>
<defs>
  <clipPath id="clip421">
    <rect x="480" y="0" width="1681" height="1600"/>
  </clipPath>
</defs>
<path clip-path="url(#clip420)" d="M215.95 1486.45 L2352.76 1486.45 L2352.76 47.2441 L215.95 47.2441  Z" fill="#ffffff" fill-rule="evenodd" fill-opacity="1"/>
<defs>
  <clipPath id="clip422">
    <rect x="215" y="47" width="2138" height="1440"/>
  </clipPath>
</defs>
<polyline clip-path="url(#clip422)" style="stroke:#000000; stroke-linecap:round; stroke-linejoin:round; stroke-width:2; stroke-opacity:0.1; fill:none" points="276.425,1486.45 276.425,47.2441 "/>
<polyline clip-path="url(#clip422)" style="stroke:#000000; stroke-linecap:round; stroke-linejoin:round; stroke-width:2; stroke-opacity:0.1; fill:none" points="948.377,1486.45 948.377,47.2441 "/>
<polyline clip-path="url(#clip422)" style="stroke:#000000; stroke-linecap:round; stroke-linejoin:round; stroke-width:2; stroke-opacity:0.1; fill:none" points="1620.33,1486.45 1620.33,47.2441 "/>
<polyline clip-path="url(#clip422)" style="stroke:#000000; stroke-linecap:round; stroke-linejoin:round; stroke-width:2; stroke-opacity:0.1; fill:none" points="2292.28,1486.45 2292.28,47.2441 "/>
<polyline clip-path="url(#clip420)" style="stroke:#000000; stroke-linecap:round; stroke-linejoin:round; stroke-width:4; stroke-opacity:1; fill:none" points="215.95,1486.45 2352.76,1486.45 "/>
<polyline clip-path="url(#clip420)" style="stroke:#000000; stroke-linecap:round; stroke-linejoin:round; stroke-width:4; stroke-opacity:1; fill:none" points="276.425,1486.45 276.425,1467.55 "/>
<polyline clip-path="url(#clip420)" style="stroke:#000000; stroke-linecap:round; stroke-linejoin:round; stroke-width:4; stroke-opacity:1; fill:none" points="948.377,1486.45 948.377,1467.55 "/>
<polyline clip-path="url(#clip420)" style="stroke:#000000; stroke-linecap:round; stroke-linejoin:round; stroke-width:4; stroke-opacity:1; fill:none" points="1620.33,1486.45 1620.33,1467.55 "/>
<polyline clip-path="url(#clip420)" style="stroke:#000000; stroke-linecap:round; stroke-linejoin:round; stroke-width:4; stroke-opacity:1; fill:none" points="2292.28,1486.45 2292.28,1467.55 "/>
<path clip-path="url(#clip420)" d="M276.425 1517.37 Q272.814 1517.37 270.986 1520.93 Q269.18 1524.47 269.18 1531.6 Q269.18 1538.71 270.986 1542.27 Q272.814 1545.82 276.425 1545.82 Q280.06 1545.82 281.865 1542.27 Q283.694 1538.71 283.694 1531.6 Q283.694 1524.47 281.865 1520.93 Q280.06 1517.37 276.425 1517.37 M276.425 1513.66 Q282.236 1513.66 285.291 1518.27 Q288.37 1522.85 288.37 1531.6 Q288.37 1540.33 285.291 1544.94 Q282.236 1549.52 276.425 1549.52 Q270.615 1549.52 267.537 1544.94 Q264.481 1540.33 264.481 1531.6 Q264.481 1522.85 267.537 1518.27 Q270.615 1513.66 276.425 1513.66 Z" fill="#000000" fill-rule="nonzero" fill-opacity="1" /><path clip-path="url(#clip420)" d="M938.759 1544.91 L946.398 1544.91 L946.398 1518.55 L938.088 1520.21 L938.088 1515.95 L946.352 1514.29 L951.027 1514.29 L951.027 1544.91 L958.666 1544.91 L958.666 1548.85 L938.759 1548.85 L938.759 1544.91 Z" fill="#000000" fill-rule="nonzero" fill-opacity="1" /><path clip-path="url(#clip420)" d="M1614.98 1544.91 L1631.3 1544.91 L1631.3 1548.85 L1609.36 1548.85 L1609.36 1544.91 Q1612.02 1542.16 1616.6 1537.53 Q1621.21 1532.88 1622.39 1531.53 Q1624.63 1529.01 1625.51 1527.27 Q1626.42 1525.51 1626.42 1523.82 Q1626.42 1521.07 1624.47 1519.33 Q1622.55 1517.6 1619.45 1517.6 Q1617.25 1517.6 1614.8 1518.36 Q1612.37 1519.13 1609.59 1520.68 L1609.59 1515.95 Q1612.41 1514.82 1614.87 1514.24 Q1617.32 1513.66 1619.36 1513.66 Q1624.73 1513.66 1627.92 1516.35 Q1631.12 1519.03 1631.12 1523.52 Q1631.12 1525.65 1630.31 1527.57 Q1629.52 1529.47 1627.41 1532.07 Q1626.83 1532.74 1623.73 1535.95 Q1620.63 1539.15 1614.98 1544.91 Z" fill="#000000" fill-rule="nonzero" fill-opacity="1" /><path clip-path="url(#clip420)" d="M2296.53 1530.21 Q2299.88 1530.93 2301.76 1533.2 Q2303.66 1535.47 2303.66 1538.8 Q2303.66 1543.92 2300.14 1546.72 Q2296.62 1549.52 2290.14 1549.52 Q2287.96 1549.52 2285.65 1549.08 Q2283.36 1548.66 2280.9 1547.81 L2280.9 1543.29 Q2282.85 1544.43 2285.16 1545.01 Q2287.48 1545.58 2290 1545.58 Q2294.4 1545.58 2296.69 1543.85 Q2299 1542.11 2299 1538.8 Q2299 1535.75 2296.85 1534.03 Q2294.72 1532.3 2290.9 1532.3 L2286.88 1532.3 L2286.88 1528.45 L2291.09 1528.45 Q2294.54 1528.45 2296.37 1527.09 Q2298.19 1525.7 2298.19 1523.11 Q2298.19 1520.45 2296.3 1519.03 Q2294.42 1517.6 2290.9 1517.6 Q2288.98 1517.6 2286.78 1518.01 Q2284.58 1518.43 2281.94 1519.31 L2281.94 1515.14 Q2284.61 1514.4 2286.92 1514.03 Q2289.26 1513.66 2291.32 1513.66 Q2296.64 1513.66 2299.75 1516.09 Q2302.85 1518.5 2302.85 1522.62 Q2302.85 1525.49 2301.2 1527.48 Q2299.56 1529.45 2296.53 1530.21 Z" fill="#000000" fill-rule="nonzero" fill-opacity="1" /><polyline clip-path="url(#clip422)" style="stroke:#000000; stroke-linecap:round; stroke-linejoin:round; stroke-width:2; stroke-opacity:0.1; fill:none" points="215.95,1450.5 2352.76,1450.5 "/>
<polyline clip-path="url(#clip422)" style="stroke:#000000; stroke-linecap:round; stroke-linejoin:round; stroke-width:2; stroke-opacity:0.1; fill:none" points="215.95,1203.53 2352.76,1203.53 "/>
<polyline clip-path="url(#clip422)" style="stroke:#000000; stroke-linecap:round; stroke-linejoin:round; stroke-width:2; stroke-opacity:0.1; fill:none" points="215.95,956.557 2352.76,956.557 "/>
<polyline clip-path="url(#clip422)" style="stroke:#000000; stroke-linecap:round; stroke-linejoin:round; stroke-width:2; stroke-opacity:0.1; fill:none" points="215.95,709.583 2352.76,709.583 "/>
<polyline clip-path="url(#clip422)" style="stroke:#000000; stroke-linecap:round; stroke-linejoin:round; stroke-width:2; stroke-opacity:0.1; fill:none" points="215.95,462.609 2352.76,462.609 "/>
<polyline clip-path="url(#clip422)" style="stroke:#000000; stroke-linecap:round; stroke-linejoin:round; stroke-width:2; stroke-opacity:0.1; fill:none" points="215.95,215.635 2352.76,215.635 "/>
<polyline clip-path="url(#clip420)" style="stroke:#000000; stroke-linecap:round; stroke-linejoin:round; stroke-width:4; stroke-opacity:1; fill:none" points="215.95,1486.45 215.95,47.2441 "/>
<polyline clip-path="url(#clip420)" style="stroke:#000000; stroke-linecap:round; stroke-linejoin:round; stroke-width:4; stroke-opacity:1; fill:none" points="215.95,1450.5 234.847,1450.5 "/>
<polyline clip-path="url(#clip420)" style="stroke:#000000; stroke-linecap:round; stroke-linejoin:round; stroke-width:4; stroke-opacity:1; fill:none" points="215.95,1203.53 234.847,1203.53 "/>
<polyline clip-path="url(#clip420)" style="stroke:#000000; stroke-linecap:round; stroke-linejoin:round; stroke-width:4; stroke-opacity:1; fill:none" points="215.95,956.557 234.847,956.557 "/>
<polyline clip-path="url(#clip420)" style="stroke:#000000; stroke-linecap:round; stroke-linejoin:round; stroke-width:4; stroke-opacity:1; fill:none" points="215.95,709.583 234.847,709.583 "/>
<polyline clip-path="url(#clip420)" style="stroke:#000000; stroke-linecap:round; stroke-linejoin:round; stroke-width:4; stroke-opacity:1; fill:none" points="215.95,462.609 234.847,462.609 "/>
<polyline clip-path="url(#clip420)" style="stroke:#000000; stroke-linecap:round; stroke-linejoin:round; stroke-width:4; stroke-opacity:1; fill:none" points="215.95,215.635 234.847,215.635 "/>
<path clip-path="url(#clip420)" d="M67.6124 1449.15 Q70.9689 1449.87 72.8439 1452.14 Q74.742 1454.4 74.742 1457.74 Q74.742 1462.85 71.2235 1465.65 Q67.705 1468.46 61.2236 1468.46 Q59.0476 1468.46 56.7328 1468.02 Q54.4412 1467.6 51.9875 1466.74 L51.9875 1462.23 Q53.9319 1463.36 56.2467 1463.94 Q58.5615 1464.52 61.0847 1464.52 Q65.4828 1464.52 67.7744 1462.78 Q70.0892 1461.05 70.0892 1457.74 Q70.0892 1454.68 67.9365 1452.97 Q65.8069 1451.23 61.9874 1451.23 L57.9597 1451.23 L57.9597 1447.39 L62.1726 1447.39 Q65.6217 1447.39 67.4504 1446.03 Q69.2791 1444.64 69.2791 1442.04 Q69.2791 1439.38 67.3809 1437.97 Q65.5059 1436.53 61.9874 1436.53 Q60.0662 1436.53 57.8671 1436.95 Q55.668 1437.37 53.0292 1438.25 L53.0292 1434.08 Q55.6912 1433.34 58.006 1432.97 Q60.3439 1432.6 62.4041 1432.6 Q67.7281 1432.6 70.83 1435.03 Q73.9318 1437.44 73.9318 1441.56 Q73.9318 1444.43 72.2883 1446.42 Q70.6448 1448.39 67.6124 1449.15 Z" fill="#000000" fill-rule="nonzero" fill-opacity="1" /><path clip-path="url(#clip420)" d="M93.6076 1451.37 Q90.2743 1451.37 88.353 1453.15 Q86.4549 1454.94 86.4549 1458.06 Q86.4549 1461.19 88.353 1462.97 Q90.2743 1464.75 93.6076 1464.75 Q96.941 1464.75 98.8622 1462.97 Q100.784 1461.16 100.784 1458.06 Q100.784 1454.94 98.8622 1453.15 Q96.9641 1451.37 93.6076 1451.37 M88.9317 1449.38 Q85.9225 1448.64 84.2327 1446.58 Q82.566 1444.52 82.566 1441.56 Q82.566 1437.41 85.5058 1435.01 Q88.4688 1432.6 93.6076 1432.6 Q98.7696 1432.6 101.709 1435.01 Q104.649 1437.41 104.649 1441.56 Q104.649 1444.52 102.959 1446.58 Q101.293 1448.64 98.3067 1449.38 Q101.686 1450.17 103.561 1452.46 Q105.459 1454.75 105.459 1458.06 Q105.459 1463.09 102.381 1465.77 Q99.3252 1468.46 93.6076 1468.46 Q87.8901 1468.46 84.8114 1465.77 Q81.7559 1463.09 81.7559 1458.06 Q81.7559 1454.75 83.654 1452.46 Q85.5521 1450.17 88.9317 1449.38 M87.2188 1442 Q87.2188 1444.68 88.8854 1446.19 Q90.5752 1447.69 93.6076 1447.69 Q96.6169 1447.69 98.3067 1446.19 Q100.02 1444.68 100.02 1442 Q100.02 1439.31 98.3067 1437.81 Q96.6169 1436.3 93.6076 1436.3 Q90.5752 1436.3 88.8854 1437.81 Q87.2188 1439.31 87.2188 1442 Z" fill="#000000" fill-rule="nonzero" fill-opacity="1" /><path clip-path="url(#clip420)" d="M113.77 1461.9 L118.654 1461.9 L118.654 1467.78 L113.77 1467.78 L113.77 1461.9 Z" fill="#000000" fill-rule="nonzero" fill-opacity="1" /><path clip-path="url(#clip420)" d="M127.658 1433.22 L149.88 1433.22 L149.88 1435.22 L137.334 1467.78 L132.45 1467.78 L144.256 1437.16 L127.658 1437.16 L127.658 1433.22 Z" fill="#000000" fill-rule="nonzero" fill-opacity="1" /><path clip-path="url(#clip420)" d="M159.047 1433.22 L177.403 1433.22 L177.403 1437.16 L163.329 1437.16 L163.329 1445.63 Q164.348 1445.28 165.367 1445.12 Q166.385 1444.94 167.404 1444.94 Q173.191 1444.94 176.57 1448.11 Q179.95 1451.28 179.95 1456.7 Q179.95 1462.28 176.478 1465.38 Q173.005 1468.46 166.686 1468.46 Q164.51 1468.46 162.242 1468.09 Q159.996 1467.71 157.589 1466.97 L157.589 1462.28 Q159.672 1463.41 161.894 1463.96 Q164.117 1464.52 166.593 1464.52 Q170.598 1464.52 172.936 1462.41 Q175.274 1460.31 175.274 1456.7 Q175.274 1453.09 172.936 1450.98 Q170.598 1448.87 166.593 1448.87 Q164.718 1448.87 162.843 1449.29 Q160.992 1449.71 159.047 1450.59 L159.047 1433.22 Z" fill="#000000" fill-rule="nonzero" fill-opacity="1" /><path clip-path="url(#clip420)" d="M66.617 1202.18 Q69.9735 1202.89 71.8485 1205.16 Q73.7466 1207.43 73.7466 1210.76 Q73.7466 1215.88 70.2281 1218.68 Q66.7096 1221.48 60.2282 1221.48 Q58.0523 1221.48 55.7375 1221.04 Q53.4458 1220.63 50.9921 1219.77 L50.9921 1215.25 Q52.9366 1216.39 55.2514 1216.97 Q57.5662 1217.55 60.0893 1217.55 Q64.4874 1217.55 66.7791 1215.81 Q69.0939 1214.07 69.0939 1210.76 Q69.0939 1207.71 66.9411 1206 Q64.8115 1204.26 60.9921 1204.26 L56.9643 1204.26 L56.9643 1200.42 L61.1773 1200.42 Q64.6263 1200.42 66.455 1199.05 Q68.2837 1197.66 68.2837 1195.07 Q68.2837 1192.41 66.3856 1191 Q64.5106 1189.56 60.9921 1189.56 Q59.0708 1189.56 56.8717 1189.98 Q54.6727 1190.39 52.0338 1191.27 L52.0338 1187.11 Q54.6958 1186.37 57.0106 1186 Q59.3486 1185.63 61.4087 1185.63 Q66.7328 1185.63 69.8346 1188.06 Q72.9365 1190.46 72.9365 1194.58 Q72.9365 1197.45 71.2929 1199.44 Q69.6494 1201.41 66.617 1202.18 Z" fill="#000000" fill-rule="nonzero" fill-opacity="1" /><path clip-path="url(#clip420)" d="M92.6123 1204.4 Q89.279 1204.4 87.3577 1206.18 Q85.4595 1207.96 85.4595 1211.09 Q85.4595 1214.21 87.3577 1216 Q89.279 1217.78 92.6123 1217.78 Q95.9456 1217.78 97.8669 1216 Q99.7882 1214.19 99.7882 1211.09 Q99.7882 1207.96 97.8669 1206.18 Q95.9687 1204.4 92.6123 1204.4 M87.9364 1202.41 Q84.9271 1201.67 83.2373 1199.61 Q81.5707 1197.55 81.5707 1194.58 Q81.5707 1190.44 84.5105 1188.03 Q87.4734 1185.63 92.6123 1185.63 Q97.7743 1185.63 100.714 1188.03 Q103.654 1190.44 103.654 1194.58 Q103.654 1197.55 101.964 1199.61 Q100.297 1201.67 97.3113 1202.41 Q100.691 1203.19 102.566 1205.49 Q104.464 1207.78 104.464 1211.09 Q104.464 1216.11 101.385 1218.8 Q98.3298 1221.48 92.6123 1221.48 Q86.8947 1221.48 83.816 1218.8 Q80.7605 1216.11 80.7605 1211.09 Q80.7605 1207.78 82.6586 1205.49 Q84.5568 1203.19 87.9364 1202.41 M86.2234 1195.02 Q86.2234 1197.71 87.8901 1199.21 Q89.5799 1200.72 92.6123 1200.72 Q95.6215 1200.72 97.3113 1199.21 Q99.0243 1197.71 99.0243 1195.02 Q99.0243 1192.34 97.3113 1190.83 Q95.6215 1189.33 92.6123 1189.33 Q89.5799 1189.33 87.8901 1190.83 Q86.2234 1192.34 86.2234 1195.02 Z" fill="#000000" fill-rule="nonzero" fill-opacity="1" /><path clip-path="url(#clip420)" d="M112.774 1214.93 L117.658 1214.93 L117.658 1220.81 L112.774 1220.81 L112.774 1214.93 Z" fill="#000000" fill-rule="nonzero" fill-opacity="1" /><path clip-path="url(#clip420)" d="M137.844 1204.4 Q134.51 1204.4 132.589 1206.18 Q130.691 1207.96 130.691 1211.09 Q130.691 1214.21 132.589 1216 Q134.51 1217.78 137.844 1217.78 Q141.177 1217.78 143.098 1216 Q145.019 1214.19 145.019 1211.09 Q145.019 1207.96 143.098 1206.18 Q141.2 1204.4 137.844 1204.4 M133.168 1202.41 Q130.158 1201.67 128.469 1199.61 Q126.802 1197.55 126.802 1194.58 Q126.802 1190.44 129.742 1188.03 Q132.705 1185.63 137.844 1185.63 Q143.006 1185.63 145.945 1188.03 Q148.885 1190.44 148.885 1194.58 Q148.885 1197.55 147.195 1199.61 Q145.529 1201.67 142.543 1202.41 Q145.922 1203.19 147.797 1205.49 Q149.695 1207.78 149.695 1211.09 Q149.695 1216.11 146.617 1218.8 Q143.561 1221.48 137.844 1221.48 Q132.126 1221.48 129.047 1218.8 Q125.992 1216.11 125.992 1211.09 Q125.992 1207.78 127.89 1205.49 Q129.788 1203.19 133.168 1202.41 M131.455 1195.02 Q131.455 1197.71 133.121 1199.21 Q134.811 1200.72 137.844 1200.72 Q140.853 1200.72 142.543 1199.21 Q144.256 1197.71 144.256 1195.02 Q144.256 1192.34 142.543 1190.83 Q140.853 1189.33 137.844 1189.33 Q134.811 1189.33 133.121 1190.83 Q131.455 1192.34 131.455 1195.02 Z" fill="#000000" fill-rule="nonzero" fill-opacity="1" /><path clip-path="url(#clip420)" d="M168.005 1189.33 Q164.394 1189.33 162.566 1192.89 Q160.76 1196.44 160.76 1203.57 Q160.76 1210.67 162.566 1214.24 Q164.394 1217.78 168.005 1217.78 Q171.64 1217.78 173.445 1214.24 Q175.274 1210.67 175.274 1203.57 Q175.274 1196.44 173.445 1192.89 Q171.64 1189.33 168.005 1189.33 M168.005 1185.63 Q173.816 1185.63 176.871 1190.23 Q179.95 1194.82 179.95 1203.57 Q179.95 1212.29 176.871 1216.9 Q173.816 1221.48 168.005 1221.48 Q162.195 1221.48 159.117 1216.9 Q156.061 1212.29 156.061 1203.57 Q156.061 1194.82 159.117 1190.23 Q162.195 1185.63 168.005 1185.63 Z" fill="#000000" fill-rule="nonzero" fill-opacity="1" /><path clip-path="url(#clip420)" d="M67.6124 955.202 Q70.9689 955.92 72.8439 958.188 Q74.742 960.457 74.742 963.79 Q74.742 968.906 71.2235 971.707 Q67.705 974.508 61.2236 974.508 Q59.0476 974.508 56.7328 974.068 Q54.4412 973.651 51.9875 972.795 L51.9875 968.281 Q53.9319 969.415 56.2467 969.994 Q58.5615 970.573 61.0847 970.573 Q65.4828 970.573 67.7744 968.837 Q70.0892 967.1 70.0892 963.79 Q70.0892 960.735 67.9365 959.022 Q65.8069 957.286 61.9874 957.286 L57.9597 957.286 L57.9597 953.443 L62.1726 953.443 Q65.6217 953.443 67.4504 952.077 Q69.2791 950.689 69.2791 948.096 Q69.2791 945.434 67.3809 944.022 Q65.5059 942.587 61.9874 942.587 Q60.0662 942.587 57.8671 943.003 Q55.668 943.42 53.0292 944.3 L53.0292 940.133 Q55.6912 939.392 58.006 939.022 Q60.3439 938.652 62.4041 938.652 Q67.7281 938.652 70.83 941.082 Q73.9318 943.489 73.9318 947.61 Q73.9318 950.48 72.2883 952.471 Q70.6448 954.438 67.6124 955.202 Z" fill="#000000" fill-rule="nonzero" fill-opacity="1" /><path clip-path="url(#clip420)" d="M93.6076 957.425 Q90.2743 957.425 88.353 959.207 Q86.4549 960.989 86.4549 964.114 Q86.4549 967.239 88.353 969.022 Q90.2743 970.804 93.6076 970.804 Q96.941 970.804 98.8622 969.022 Q100.784 967.216 100.784 964.114 Q100.784 960.989 98.8622 959.207 Q96.9641 957.425 93.6076 957.425 M88.9317 955.434 Q85.9225 954.693 84.2327 952.633 Q82.566 950.573 82.566 947.61 Q82.566 943.466 85.5058 941.059 Q88.4688 938.652 93.6076 938.652 Q98.7696 938.652 101.709 941.059 Q104.649 943.466 104.649 947.61 Q104.649 950.573 102.959 952.633 Q101.293 954.693 98.3067 955.434 Q101.686 956.221 103.561 958.513 Q105.459 960.804 105.459 964.114 Q105.459 969.137 102.381 971.823 Q99.3252 974.508 93.6076 974.508 Q87.8901 974.508 84.8114 971.823 Q81.7559 969.137 81.7559 964.114 Q81.7559 960.804 83.654 958.513 Q85.5521 956.221 88.9317 955.434 M87.2188 948.05 Q87.2188 950.735 88.8854 952.239 Q90.5752 953.744 93.6076 953.744 Q96.6169 953.744 98.3067 952.239 Q100.02 950.735 100.02 948.05 Q100.02 945.364 98.3067 943.86 Q96.6169 942.355 93.6076 942.355 Q90.5752 942.355 88.8854 943.86 Q87.2188 945.364 87.2188 948.05 Z" fill="#000000" fill-rule="nonzero" fill-opacity="1" /><path clip-path="url(#clip420)" d="M113.77 967.957 L118.654 967.957 L118.654 973.837 L113.77 973.837 L113.77 967.957 Z" fill="#000000" fill-rule="nonzero" fill-opacity="1" /><path clip-path="url(#clip420)" d="M138.839 957.425 Q135.506 957.425 133.584 959.207 Q131.686 960.989 131.686 964.114 Q131.686 967.239 133.584 969.022 Q135.506 970.804 138.839 970.804 Q142.172 970.804 144.093 969.022 Q146.015 967.216 146.015 964.114 Q146.015 960.989 144.093 959.207 Q142.195 957.425 138.839 957.425 M134.163 955.434 Q131.154 954.693 129.464 952.633 Q127.797 950.573 127.797 947.61 Q127.797 943.466 130.737 941.059 Q133.7 938.652 138.839 938.652 Q144.001 938.652 146.941 941.059 Q149.88 943.466 149.88 947.61 Q149.88 950.573 148.191 952.633 Q146.524 954.693 143.538 955.434 Q146.918 956.221 148.793 958.513 Q150.691 960.804 150.691 964.114 Q150.691 969.137 147.612 971.823 Q144.556 974.508 138.839 974.508 Q133.121 974.508 130.043 971.823 Q126.987 969.137 126.987 964.114 Q126.987 960.804 128.885 958.513 Q130.783 956.221 134.163 955.434 M132.45 948.05 Q132.45 950.735 134.117 952.239 Q135.806 953.744 138.839 953.744 Q141.848 953.744 143.538 952.239 Q145.251 950.735 145.251 948.05 Q145.251 945.364 143.538 943.86 Q141.848 942.355 138.839 942.355 Q135.806 942.355 134.117 943.86 Q132.45 945.364 132.45 948.05 Z" fill="#000000" fill-rule="nonzero" fill-opacity="1" /><path clip-path="url(#clip420)" d="M159.047 939.277 L177.403 939.277 L177.403 943.212 L163.329 943.212 L163.329 951.684 Q164.348 951.337 165.367 951.175 Q166.385 950.989 167.404 950.989 Q173.191 950.989 176.57 954.161 Q179.95 957.332 179.95 962.749 Q179.95 968.327 176.478 971.429 Q173.005 974.508 166.686 974.508 Q164.51 974.508 162.242 974.137 Q159.996 973.767 157.589 973.026 L157.589 968.327 Q159.672 969.462 161.894 970.017 Q164.117 970.573 166.593 970.573 Q170.598 970.573 172.936 968.466 Q175.274 966.36 175.274 962.749 Q175.274 959.138 172.936 957.031 Q170.598 954.925 166.593 954.925 Q164.718 954.925 162.843 955.341 Q160.992 955.758 159.047 956.638 L159.047 939.277 Z" fill="#000000" fill-rule="nonzero" fill-opacity="1" /><path clip-path="url(#clip420)" d="M66.617 708.228 Q69.9735 708.946 71.8485 711.215 Q73.7466 713.483 73.7466 716.816 Q73.7466 721.932 70.2281 724.733 Q66.7096 727.534 60.2282 727.534 Q58.0523 727.534 55.7375 727.094 Q53.4458 726.677 50.9921 725.821 L50.9921 721.307 Q52.9366 722.441 55.2514 723.02 Q57.5662 723.599 60.0893 723.599 Q64.4874 723.599 66.7791 721.863 Q69.0939 720.127 69.0939 716.816 Q69.0939 713.761 66.9411 712.048 Q64.8115 710.312 60.9921 710.312 L56.9643 710.312 L56.9643 706.469 L61.1773 706.469 Q64.6263 706.469 66.455 705.103 Q68.2837 703.715 68.2837 701.122 Q68.2837 698.46 66.3856 697.048 Q64.5106 695.613 60.9921 695.613 Q59.0708 695.613 56.8717 696.029 Q54.6727 696.446 52.0338 697.326 L52.0338 693.159 Q54.6958 692.418 57.0106 692.048 Q59.3486 691.678 61.4087 691.678 Q66.7328 691.678 69.8346 694.108 Q72.9365 696.516 72.9365 700.636 Q72.9365 703.506 71.2929 705.497 Q69.6494 707.465 66.617 708.228 Z" fill="#000000" fill-rule="nonzero" fill-opacity="1" /><path clip-path="url(#clip420)" d="M92.6123 710.451 Q89.279 710.451 87.3577 712.233 Q85.4595 714.015 85.4595 717.14 Q85.4595 720.265 87.3577 722.048 Q89.279 723.83 92.6123 723.83 Q95.9456 723.83 97.8669 722.048 Q99.7882 720.242 99.7882 717.14 Q99.7882 714.015 97.8669 712.233 Q95.9687 710.451 92.6123 710.451 M87.9364 708.46 Q84.9271 707.719 83.2373 705.659 Q81.5707 703.599 81.5707 700.636 Q81.5707 696.492 84.5105 694.085 Q87.4734 691.678 92.6123 691.678 Q97.7743 691.678 100.714 694.085 Q103.654 696.492 103.654 700.636 Q103.654 703.599 101.964 705.659 Q100.297 707.719 97.3113 708.46 Q100.691 709.247 102.566 711.539 Q104.464 713.83 104.464 717.14 Q104.464 722.164 101.385 724.849 Q98.3298 727.534 92.6123 727.534 Q86.8947 727.534 83.816 724.849 Q80.7605 722.164 80.7605 717.14 Q80.7605 713.83 82.6586 711.539 Q84.5568 709.247 87.9364 708.46 M86.2234 701.076 Q86.2234 703.761 87.8901 705.265 Q89.5799 706.77 92.6123 706.77 Q95.6215 706.77 97.3113 705.265 Q99.0243 703.761 99.0243 701.076 Q99.0243 698.391 97.3113 696.886 Q95.6215 695.381 92.6123 695.381 Q89.5799 695.381 87.8901 696.886 Q86.2234 698.391 86.2234 701.076 Z" fill="#000000" fill-rule="nonzero" fill-opacity="1" /><path clip-path="url(#clip420)" d="M112.774 720.983 L117.658 720.983 L117.658 726.863 L112.774 726.863 L112.774 720.983 Z" fill="#000000" fill-rule="nonzero" fill-opacity="1" /><path clip-path="url(#clip420)" d="M127.982 726.145 L127.982 721.886 Q129.742 722.719 131.547 723.159 Q133.353 723.599 135.089 723.599 Q139.719 723.599 142.149 720.497 Q144.603 717.372 144.95 711.029 Q143.607 713.02 141.547 714.085 Q139.487 715.15 136.987 715.15 Q131.802 715.15 128.769 712.025 Q125.76 708.877 125.76 703.437 Q125.76 698.113 128.908 694.895 Q132.057 691.678 137.288 691.678 Q143.283 691.678 146.431 696.284 Q149.603 700.867 149.603 709.617 Q149.603 717.789 145.714 722.673 Q141.848 727.534 135.297 727.534 Q133.538 727.534 131.732 727.187 Q129.927 726.839 127.982 726.145 M137.288 711.492 Q140.436 711.492 142.265 709.34 Q144.117 707.187 144.117 703.437 Q144.117 699.71 142.265 697.557 Q140.436 695.381 137.288 695.381 Q134.14 695.381 132.288 697.557 Q130.459 699.71 130.459 703.437 Q130.459 707.187 132.288 709.34 Q134.14 711.492 137.288 711.492 Z" fill="#000000" fill-rule="nonzero" fill-opacity="1" /><path clip-path="url(#clip420)" d="M168.005 695.381 Q164.394 695.381 162.566 698.946 Q160.76 702.488 160.76 709.617 Q160.76 716.724 162.566 720.289 Q164.394 723.83 168.005 723.83 Q171.64 723.83 173.445 720.289 Q175.274 716.724 175.274 709.617 Q175.274 702.488 173.445 698.946 Q171.64 695.381 168.005 695.381 M168.005 691.678 Q173.816 691.678 176.871 696.284 Q179.95 700.867 179.95 709.617 Q179.95 718.344 176.871 722.951 Q173.816 727.534 168.005 727.534 Q162.195 727.534 159.117 722.951 Q156.061 718.344 156.061 709.617 Q156.061 700.867 159.117 696.284 Q162.195 691.678 168.005 691.678 Z" fill="#000000" fill-rule="nonzero" fill-opacity="1" /><path clip-path="url(#clip420)" d="M67.6124 461.254 Q70.9689 461.972 72.8439 464.241 Q74.742 466.509 74.742 469.842 Q74.742 474.958 71.2235 477.759 Q67.705 480.56 61.2236 480.56 Q59.0476 480.56 56.7328 480.12 Q54.4412 479.703 51.9875 478.847 L51.9875 474.333 Q53.9319 475.467 56.2467 476.046 Q58.5615 476.625 61.0847 476.625 Q65.4828 476.625 67.7744 474.889 Q70.0892 473.153 70.0892 469.842 Q70.0892 466.787 67.9365 465.074 Q65.8069 463.338 61.9874 463.338 L57.9597 463.338 L57.9597 459.495 L62.1726 459.495 Q65.6217 459.495 67.4504 458.13 Q69.2791 456.741 69.2791 454.148 Q69.2791 451.486 67.3809 450.074 Q65.5059 448.639 61.9874 448.639 Q60.0662 448.639 57.8671 449.055 Q55.668 449.472 53.0292 450.352 L53.0292 446.185 Q55.6912 445.444 58.006 445.074 Q60.3439 444.704 62.4041 444.704 Q67.7281 444.704 70.83 447.134 Q73.9318 449.542 73.9318 453.662 Q73.9318 456.532 72.2883 458.523 Q70.6448 460.491 67.6124 461.254 Z" fill="#000000" fill-rule="nonzero" fill-opacity="1" /><path clip-path="url(#clip420)" d="M93.6076 463.477 Q90.2743 463.477 88.353 465.259 Q86.4549 467.041 86.4549 470.166 Q86.4549 473.291 88.353 475.074 Q90.2743 476.856 93.6076 476.856 Q96.941 476.856 98.8622 475.074 Q100.784 473.268 100.784 470.166 Q100.784 467.041 98.8622 465.259 Q96.9641 463.477 93.6076 463.477 M88.9317 461.486 Q85.9225 460.745 84.2327 458.685 Q82.566 456.625 82.566 453.662 Q82.566 449.518 85.5058 447.111 Q88.4688 444.704 93.6076 444.704 Q98.7696 444.704 101.709 447.111 Q104.649 449.518 104.649 453.662 Q104.649 456.625 102.959 458.685 Q101.293 460.745 98.3067 461.486 Q101.686 462.273 103.561 464.565 Q105.459 466.856 105.459 470.166 Q105.459 475.19 102.381 477.875 Q99.3252 480.56 93.6076 480.56 Q87.8901 480.56 84.8114 477.875 Q81.7559 475.19 81.7559 470.166 Q81.7559 466.856 83.654 464.565 Q85.5521 462.273 88.9317 461.486 M87.2188 454.102 Q87.2188 456.787 88.8854 458.292 Q90.5752 459.796 93.6076 459.796 Q96.6169 459.796 98.3067 458.292 Q100.02 456.787 100.02 454.102 Q100.02 451.417 98.3067 449.912 Q96.6169 448.407 93.6076 448.407 Q90.5752 448.407 88.8854 449.912 Q87.2188 451.417 87.2188 454.102 Z" fill="#000000" fill-rule="nonzero" fill-opacity="1" /><path clip-path="url(#clip420)" d="M113.77 474.009 L118.654 474.009 L118.654 479.889 L113.77 479.889 L113.77 474.009 Z" fill="#000000" fill-rule="nonzero" fill-opacity="1" /><path clip-path="url(#clip420)" d="M128.978 479.171 L128.978 474.912 Q130.737 475.745 132.543 476.185 Q134.348 476.625 136.084 476.625 Q140.714 476.625 143.144 473.523 Q145.598 470.398 145.945 464.055 Q144.603 466.046 142.543 467.111 Q140.482 468.176 137.982 468.176 Q132.797 468.176 129.765 465.051 Q126.756 461.903 126.756 456.463 Q126.756 451.139 129.904 447.921 Q133.052 444.704 138.283 444.704 Q144.279 444.704 147.427 449.31 Q150.598 453.893 150.598 462.643 Q150.598 470.815 146.709 475.699 Q142.843 480.56 136.293 480.56 Q134.533 480.56 132.728 480.213 Q130.922 479.865 128.978 479.171 M138.283 464.518 Q141.431 464.518 143.26 462.366 Q145.112 460.213 145.112 456.463 Q145.112 452.736 143.26 450.583 Q141.431 448.407 138.283 448.407 Q135.135 448.407 133.283 450.583 Q131.455 452.736 131.455 456.463 Q131.455 460.213 133.283 462.366 Q135.135 464.518 138.283 464.518 Z" fill="#000000" fill-rule="nonzero" fill-opacity="1" /><path clip-path="url(#clip420)" d="M159.047 445.329 L177.403 445.329 L177.403 449.264 L163.329 449.264 L163.329 457.736 Q164.348 457.389 165.367 457.227 Q166.385 457.042 167.404 457.042 Q173.191 457.042 176.57 460.213 Q179.95 463.384 179.95 468.801 Q179.95 474.379 176.478 477.481 Q173.005 480.56 166.686 480.56 Q164.51 480.56 162.242 480.19 Q159.996 479.819 157.589 479.078 L157.589 474.379 Q159.672 475.514 161.894 476.069 Q164.117 476.625 166.593 476.625 Q170.598 476.625 172.936 474.518 Q175.274 472.412 175.274 468.801 Q175.274 465.19 172.936 463.083 Q170.598 460.977 166.593 460.977 Q164.718 460.977 162.843 461.393 Q160.992 461.81 159.047 462.69 L159.047 445.329 Z" fill="#000000" fill-rule="nonzero" fill-opacity="1" /><path clip-path="url(#clip420)" d="M66.617 214.281 Q69.9735 214.998 71.8485 217.267 Q73.7466 219.535 73.7466 222.868 Q73.7466 227.984 70.2281 230.785 Q66.7096 233.586 60.2282 233.586 Q58.0523 233.586 55.7375 233.146 Q53.4458 232.73 50.9921 231.873 L50.9921 227.359 Q52.9366 228.493 55.2514 229.072 Q57.5662 229.651 60.0893 229.651 Q64.4874 229.651 66.7791 227.915 Q69.0939 226.179 69.0939 222.868 Q69.0939 219.813 66.9411 218.1 Q64.8115 216.364 60.9921 216.364 L56.9643 216.364 L56.9643 212.521 L61.1773 212.521 Q64.6263 212.521 66.455 211.156 Q68.2837 209.767 68.2837 207.174 Q68.2837 204.512 66.3856 203.1 Q64.5106 201.665 60.9921 201.665 Q59.0708 201.665 56.8717 202.082 Q54.6727 202.498 52.0338 203.378 L52.0338 199.211 Q54.6958 198.47 57.0106 198.1 Q59.3486 197.73 61.4087 197.73 Q66.7328 197.73 69.8346 200.16 Q72.9365 202.568 72.9365 206.688 Q72.9365 209.558 71.2929 211.549 Q69.6494 213.517 66.617 214.281 Z" fill="#000000" fill-rule="nonzero" fill-opacity="1" /><path clip-path="url(#clip420)" d="M82.7512 232.197 L82.7512 227.938 Q84.5105 228.771 86.316 229.211 Q88.1216 229.651 89.8577 229.651 Q94.4873 229.651 96.9178 226.549 Q99.3715 223.424 99.7187 217.081 Q98.3761 219.072 96.316 220.137 Q94.2558 221.202 91.7558 221.202 Q86.5706 221.202 83.5382 218.077 Q80.529 214.929 80.529 209.489 Q80.529 204.165 83.6771 200.947 Q86.8253 197.73 92.0567 197.73 Q98.0521 197.73 101.2 202.336 Q104.371 206.919 104.371 215.669 Q104.371 223.841 100.483 228.725 Q96.6169 233.586 90.066 233.586 Q88.3067 233.586 86.5012 233.239 Q84.6956 232.892 82.7512 232.197 M92.0567 217.544 Q95.2049 217.544 97.0335 215.392 Q98.8854 213.239 98.8854 209.489 Q98.8854 205.762 97.0335 203.609 Q95.2049 201.433 92.0567 201.433 Q88.9086 201.433 87.0567 203.609 Q85.2281 205.762 85.2281 209.489 Q85.2281 213.239 87.0567 215.392 Q88.9086 217.544 92.0567 217.544 Z" fill="#000000" fill-rule="nonzero" fill-opacity="1" /><path clip-path="url(#clip420)" d="M112.774 227.035 L117.658 227.035 L117.658 232.915 L112.774 232.915 L112.774 227.035 Z" fill="#000000" fill-rule="nonzero" fill-opacity="1" /><path clip-path="url(#clip420)" d="M137.844 201.433 Q134.232 201.433 132.404 204.998 Q130.598 208.54 130.598 215.669 Q130.598 222.776 132.404 226.341 Q134.232 229.882 137.844 229.882 Q141.478 229.882 143.283 226.341 Q145.112 222.776 145.112 215.669 Q145.112 208.54 143.283 204.998 Q141.478 201.433 137.844 201.433 M137.844 197.73 Q143.654 197.73 146.709 202.336 Q149.788 206.919 149.788 215.669 Q149.788 224.396 146.709 229.003 Q143.654 233.586 137.844 233.586 Q132.033 233.586 128.955 229.003 Q125.899 224.396 125.899 215.669 Q125.899 206.919 128.955 202.336 Q132.033 197.73 137.844 197.73 Z" fill="#000000" fill-rule="nonzero" fill-opacity="1" /><path clip-path="url(#clip420)" d="M168.005 201.433 Q164.394 201.433 162.566 204.998 Q160.76 208.54 160.76 215.669 Q160.76 222.776 162.566 226.341 Q164.394 229.882 168.005 229.882 Q171.64 229.882 173.445 226.341 Q175.274 222.776 175.274 215.669 Q175.274 208.54 173.445 204.998 Q171.64 201.433 168.005 201.433 M168.005 197.73 Q173.816 197.73 176.871 202.336 Q179.95 206.919 179.95 215.669 Q179.95 224.396 176.871 229.003 Q173.816 233.586 168.005 233.586 Q162.195 233.586 159.117 229.003 Q156.061 224.396 156.061 215.669 Q156.061 206.919 159.117 202.336 Q162.195 197.73 168.005 197.73 Z" fill="#000000" fill-rule="nonzero" fill-opacity="1" /><polyline clip-path="url(#clip422)" style="stroke:#009af9; stroke-linecap:round; stroke-linejoin:round; stroke-width:4; stroke-opacity:1; fill:none" points="276.425,87.9763 948.377,567.642 1620.33,1019.49 2292.28,1445.72 "/>
<path clip-path="url(#clip420)" d="M2015.42 198.898 L2281.53 198.898 L2281.53 95.2176 L2015.42 95.2176  Z" fill="#ffffff" fill-rule="evenodd" fill-opacity="1"/>
<polyline clip-path="url(#clip420)" style="stroke:#000000; stroke-linecap:round; stroke-linejoin:round; stroke-width:4; stroke-opacity:1; fill:none" points="2015.42,198.898 2281.53,198.898 2281.53,95.2176 2015.42,95.2176 2015.42,198.898 "/>
<polyline clip-path="url(#clip420)" style="stroke:#009af9; stroke-linecap:round; stroke-linejoin:round; stroke-width:4; stroke-opacity:1; fill:none" points="2039.16,147.058 2181.61,147.058 "/>
<path clip-path="url(#clip420)" d="M2219.2 166.745 Q2217.39 171.375 2215.68 172.787 Q2213.97 174.199 2211.1 174.199 L2207.69 174.199 L2207.69 170.634 L2210.19 170.634 Q2211.95 170.634 2212.93 169.8 Q2213.9 168.967 2215.08 165.865 L2215.84 163.921 L2205.36 138.412 L2209.87 138.412 L2217.97 158.689 L2226.07 138.412 L2230.59 138.412 L2219.2 166.745 Z" fill="#000000" fill-rule="nonzero" fill-opacity="1" /><path clip-path="url(#clip420)" d="M2237.88 160.402 L2245.52 160.402 L2245.52 134.037 L2237.21 135.703 L2237.21 131.444 L2245.47 129.778 L2250.15 129.778 L2250.15 160.402 L2257.79 160.402 L2257.79 164.338 L2237.88 164.338 L2237.88 160.402 Z" fill="#000000" fill-rule="nonzero" fill-opacity="1" /></svg>
