<?xml version="1.0" encoding="utf-8"?>
<svg xmlns="http://www.w3.org/2000/svg" xmlns:xlink="http://www.w3.org/1999/xlink" width="600" height="400" viewBox="0 0 2400 1600">
<defs>
  <clipPath id="clip960">
    <rect x="0" y="0" width="2400" height="1600"/>
  </clipPath>
</defs>
<path clip-path="url(#clip960)" d="M0 1600 L2400 1600 L2400 0 L0 0  Z" fill="#ffffff" fill-rule="evenodd" fill-opacity="1"/>
<defs>
  <clipPath id="clip961">
    <rect x="480" y="0" width="1681" height="1600"/>
  </clipPath>
</defs>
<path clip-path="url(#clip960)" d="M156.598 1486.45 L2352.76 1486.45 L2352.76 47.2441 L156.598 47.2441  Z" fill="#ffffff" fill-rule="evenodd" fill-opacity="1"/>
<defs>
  <clipPath id="clip962">
    <rect x="156" y="47" width="2197" height="1440"/>
  </clipPath>
</defs>
<polyline clip-path="url(#clip962)" style="stroke:#000000; stroke-linecap:round; stroke-linejoin:round; stroke-width:2; stroke-opacity:0.1; fill:none" points="218.754,1486.45 218.754,47.2441 "/>
<polyline clip-path="url(#clip962)" style="stroke:#000000; stroke-linecap:round; stroke-linejoin:round; stroke-width:2; stroke-opacity:0.1; fill:none" points="633.953,1486.45 633.953,47.2441 "/>
<polyline clip-path="url(#clip962)" style="stroke:#000000; stroke-linecap:round; stroke-linejoin:round; stroke-width:2; stroke-opacity:0.1; fill:none" points="1049.15,1486.45 1049.15,47.2441 "/>
<polyline clip-path="url(#clip962)" style="stroke:#000000; stroke-linecap:round; stroke-linejoin:round; stroke-width:2; stroke-opacity:0.1; fill:none" points="1464.35,1486.45 1464.35,47.2441 "/>
<polyline clip-path="url(#clip962)" style="stroke:#000000; stroke-linecap:round; stroke-linejoin:round; stroke-width:2; stroke-opacity:0.1; fill:none" points="1879.55,1486.45 1879.55,47.2441 "/>
<polyline clip-path="url(#clip962)" style="stroke:#000000; stroke-linecap:round; stroke-linejoin:round; stroke-width:2; stroke-opacity:0.1; fill:none" points="2294.75,1486.45 2294.75,47.2441 "/>
<polyline clip-path="url(#clip960)" style="stroke:#000000; stroke-linecap:round; stroke-linejoin:round; stroke-width:4; stroke-opacity:1; fill:none" points="156.598,1486.45 2352.76,1486.45 "/>
<polyline clip-path="url(#clip960)" style="stroke:#000000; stroke-linecap:round; stroke-linejoin:round; stroke-width:4; stroke-opacity:1; fill:none" points="218.754,1486.45 218.754,1467.55 "/>
<polyline clip-path="url(#clip960)" style="stroke:#000000; stroke-linecap:round; stroke-linejoin:round; stroke-width:4; stroke-opacity:1; fill:none" points="633.953,1486.45 633.953,1467.55 "/>
<polyline clip-path="url(#clip960)" style="stroke:#000000; stroke-linecap:round; stroke-linejoin:round; stroke-width:4; stroke-opacity:1; fill:none" points="1049.15,1486.45 1049.15,1467.55 "/>
<polyline clip-path="url(#clip960)" style="stroke:#000000; stroke-linecap:round; stroke-linejoin:round; stroke-width:4; stroke-opacity:1; fill:none" points="1464.35,1486.45 1464.35,1467.55 "/>
<polyline clip-path="url(#clip960)" style="stroke:#000000; stroke-linecap:round; stroke-linejoin:round; stroke-width:4; stroke-opacity:1; fill:none" points="1879.55,1486.45 1879.55,1467.55 "/>
<polyline clip-path="url(#clip960)" style="stroke:#000000; stroke-linecap:round; stroke-linejoin:round; stroke-width:4; stroke-opacity:1; fill:none" points="2294.75,1486.45 2294.75,1467.55 "/>
<path clip-path="url(#clip960)" d="M218.754 1517.37 Q215.143 1517.37 213.314 1520.93 Q211.508 1524.47 211.508 1531.6 Q211.508 1538.71 213.314 1542.27 Q215.143 1545.82 218.754 1545.82 Q222.388 1545.82 224.193 1542.27 Q226.022 1538.71 226.022 1531.6 Q226.022 1524.47 224.193 1520.93 Q222.388 1517.37 218.754 1517.37 M218.754 1513.66 Q224.564 1513.66 227.619 1518.27 Q230.698 1522.85 230.698 1531.6 Q230.698 1540.33 227.619 1544.94 Q224.564 1549.52 218.754 1549.52 Q212.943 1549.52 209.865 1544.94 Q206.809 1540.33 206.809 1531.6 Q206.809 1522.85 209.865 1518.27 Q212.943 1513.66 218.754 1513.66 Z" fill="#000000" fill-rule="nonzero" fill-opacity="1" /><path clip-path="url(#clip960)" d="M593.56 1544.91 L601.199 1544.91 L601.199 1518.55 L592.889 1520.21 L592.889 1515.95 L601.153 1514.29 L605.829 1514.29 L605.829 1544.91 L613.467 1544.91 L613.467 1548.85 L593.56 1548.85 L593.56 1544.91 Z" fill="#000000" fill-rule="nonzero" fill-opacity="1" /><path clip-path="url(#clip960)" d="M632.912 1517.37 Q629.301 1517.37 627.472 1520.93 Q625.666 1524.47 625.666 1531.6 Q625.666 1538.71 627.472 1542.27 Q629.301 1545.82 632.912 1545.82 Q636.546 1545.82 638.352 1542.27 Q640.18 1538.71 640.18 1531.6 Q640.18 1524.47 638.352 1520.93 Q636.546 1517.37 632.912 1517.37 M632.912 1513.66 Q638.722 1513.66 641.777 1518.27 Q644.856 1522.85 644.856 1531.6 Q644.856 1540.33 641.777 1544.94 Q638.722 1549.52 632.912 1549.52 Q627.102 1549.52 624.023 1544.94 Q620.967 1540.33 620.967 1531.6 Q620.967 1522.85 624.023 1518.27 Q627.102 1513.66 632.912 1513.66 Z" fill="#000000" fill-rule="nonzero" fill-opacity="1" /><path clip-path="url(#clip960)" d="M663.074 1517.37 Q659.463 1517.37 657.634 1520.93 Q655.828 1524.47 655.828 1531.6 Q655.828 1538.71 657.634 1542.27 Q659.463 1545.82 663.074 1545.82 Q666.708 1545.82 668.513 1542.27 Q670.342 1538.71 670.342 1531.6 Q670.342 1524.47 668.513 1520.93 Q666.708 1517.37 663.074 1517.37 M663.074 1513.66 Q668.884 1513.66 671.939 1518.27 Q675.018 1522.85 675.018 1531.6 Q675.018 1540.33 671.939 1544.94 Q668.884 1549.52 663.074 1549.52 Q657.263 1549.52 654.185 1544.94 Q651.129 1540.33 651.129 1531.6 Q651.129 1522.85 654.185 1518.27 Q657.263 1513.66 663.074 1513.66 Z" fill="#000000" fill-rule="nonzero" fill-opacity="1" /><path clip-path="url(#clip960)" d="M1012.85 1544.91 L1029.16 1544.91 L1029.16 1548.85 L1007.22 1548.85 L1007.22 1544.91 Q1009.88 1542.16 1014.47 1537.53 Q1019.07 1532.88 1020.25 1531.53 Q1022.5 1529.01 1023.38 1527.27 Q1024.28 1525.51 1024.28 1523.82 Q1024.28 1521.07 1022.34 1519.33 Q1020.41 1517.6 1017.31 1517.6 Q1015.11 1517.6 1012.66 1518.36 Q1010.23 1519.13 1007.45 1520.68 L1007.45 1515.95 Q1010.28 1514.82 1012.73 1514.24 Q1015.18 1513.66 1017.22 1513.66 Q1022.59 1513.66 1025.79 1516.35 Q1028.98 1519.03 1028.98 1523.52 Q1028.98 1525.65 1028.17 1527.57 Q1027.38 1529.47 1025.28 1532.07 Q1024.7 1532.74 1021.6 1535.95 Q1018.49 1539.15 1012.85 1544.91 Z" fill="#000000" fill-rule="nonzero" fill-opacity="1" /><path clip-path="url(#clip960)" d="M1048.98 1517.37 Q1045.37 1517.37 1043.54 1520.93 Q1041.73 1524.47 1041.73 1531.6 Q1041.73 1538.71 1043.54 1542.27 Q1045.37 1545.82 1048.98 1545.82 Q1052.61 1545.82 1054.42 1542.27 Q1056.25 1538.71 1056.25 1531.6 Q1056.25 1524.47 1054.42 1520.93 Q1052.61 1517.37 1048.98 1517.37 M1048.98 1513.66 Q1054.79 1513.66 1057.85 1518.27 Q1060.92 1522.85 1060.92 1531.6 Q1060.92 1540.33 1057.85 1544.94 Q1054.79 1549.52 1048.98 1549.52 Q1043.17 1549.52 1040.09 1544.94 Q1037.04 1540.33 1037.04 1531.6 Q1037.04 1522.85 1040.09 1518.27 Q1043.17 1513.66 1048.98 1513.66 Z" fill="#000000" fill-rule="nonzero" fill-opacity="1" /><path clip-path="url(#clip960)" d="M1079.14 1517.37 Q1075.53 1517.37 1073.7 1520.93 Q1071.9 1524.47 1071.9 1531.6 Q1071.9 1538.71 1073.7 1542.27 Q1075.53 1545.82 1079.14 1545.82 Q1082.78 1545.82 1084.58 1542.27 Q1086.41 1538.71 1086.41 1531.6 Q1086.41 1524.47 1084.58 1520.93 Q1082.78 1517.37 1079.14 1517.37 M1079.14 1513.66 Q1084.95 1513.66 1088.01 1518.27 Q1091.09 1522.85 1091.09 1531.6 Q1091.09 1540.33 1088.01 1544.94 Q1084.95 1549.52 1079.14 1549.52 Q1073.33 1549.52 1070.25 1544.94 Q1067.2 1540.33 1067.2 1531.6 Q1067.2 1522.85 1070.25 1518.27 Q1073.33 1513.66 1079.14 1513.66 Z" fill="#000000" fill-rule="nonzero" fill-opacity="1" /><path clip-path="url(#clip960)" d="M1438.11 1530.21 Q1441.47 1530.93 1443.35 1533.2 Q1445.24 1535.47 1445.24 1538.8 Q1445.24 1543.92 1441.73 1546.72 Q1438.21 1549.52 1431.73 1549.52 Q1429.55 1549.52 1427.24 1549.08 Q1424.94 1548.66 1422.49 1547.81 L1422.49 1543.29 Q1424.43 1544.43 1426.75 1545.01 Q1429.06 1545.58 1431.59 1545.58 Q1435.99 1545.58 1438.28 1543.85 Q1440.59 1542.11 1440.59 1538.8 Q1440.59 1535.75 1438.44 1534.03 Q1436.31 1532.3 1432.49 1532.3 L1428.46 1532.3 L1428.46 1528.45 L1432.67 1528.45 Q1436.12 1528.45 1437.95 1527.09 Q1439.78 1525.7 1439.78 1523.11 Q1439.78 1520.45 1437.88 1519.03 Q1436.01 1517.6 1432.49 1517.6 Q1430.57 1517.6 1428.37 1518.01 Q1426.17 1518.43 1423.53 1519.31 L1423.53 1515.14 Q1426.19 1514.4 1428.51 1514.03 Q1430.85 1513.66 1432.91 1513.66 Q1438.23 1513.66 1441.33 1516.09 Q1444.43 1518.5 1444.43 1522.62 Q1444.43 1525.49 1442.79 1527.48 Q1441.15 1529.45 1438.11 1530.21 Z" fill="#000000" fill-rule="nonzero" fill-opacity="1" /><path clip-path="url(#clip960)" d="M1464.11 1517.37 Q1460.5 1517.37 1458.67 1520.93 Q1456.86 1524.47 1456.86 1531.6 Q1456.86 1538.71 1458.67 1542.27 Q1460.5 1545.82 1464.11 1545.82 Q1467.74 1545.82 1469.55 1542.27 Q1471.38 1538.71 1471.38 1531.6 Q1471.38 1524.47 1469.55 1520.93 Q1467.74 1517.37 1464.11 1517.37 M1464.11 1513.66 Q1469.92 1513.66 1472.98 1518.27 Q1476.05 1522.85 1476.05 1531.6 Q1476.05 1540.33 1472.98 1544.94 Q1469.92 1549.52 1464.11 1549.52 Q1458.3 1549.52 1455.22 1544.94 Q1452.17 1540.33 1452.17 1531.6 Q1452.17 1522.85 1455.22 1518.27 Q1458.3 1513.66 1464.11 1513.66 Z" fill="#000000" fill-rule="nonzero" fill-opacity="1" /><path clip-path="url(#clip960)" d="M1494.27 1517.37 Q1490.66 1517.37 1488.83 1520.93 Q1487.03 1524.47 1487.03 1531.6 Q1487.03 1538.71 1488.83 1542.27 Q1490.66 1545.82 1494.27 1545.82 Q1497.91 1545.82 1499.71 1542.27 Q1501.54 1538.71 1501.54 1531.6 Q1501.54 1524.47 1499.71 1520.93 Q1497.91 1517.37 1494.27 1517.37 M1494.27 1513.66 Q1500.08 1513.66 1503.14 1518.27 Q1506.22 1522.85 1506.22 1531.6 Q1506.22 1540.33 1503.14 1544.94 Q1500.08 1549.52 1494.27 1549.52 Q1488.46 1549.52 1485.38 1544.94 Q1482.33 1540.33 1482.33 1531.6 Q1482.33 1522.85 1485.38 1518.27 Q1488.46 1513.66 1494.27 1513.66 Z" fill="#000000" fill-rule="nonzero" fill-opacity="1" /><path clip-path="url(#clip960)" d="M1852.64 1518.36 L1840.84 1536.81 L1852.64 1536.81 L1852.64 1518.36 M1851.42 1514.29 L1857.3 1514.29 L1857.3 1536.81 L1862.23 1536.81 L1862.23 1540.7 L1857.3 1540.7 L1857.3 1548.85 L1852.64 1548.85 L1852.64 1540.7 L1837.04 1540.7 L1837.04 1536.19 L1851.42 1514.29 Z" fill="#000000" fill-rule="nonzero" fill-opacity="1" /><path clip-path="url(#clip960)" d="M1879.96 1517.37 Q1876.35 1517.37 1874.52 1520.93 Q1872.71 1524.47 1872.71 1531.6 Q1872.71 1538.71 1874.52 1542.27 Q1876.35 1545.82 1879.96 1545.82 Q1883.59 1545.82 1885.4 1542.27 Q1887.23 1538.71 1887.23 1531.6 Q1887.23 1524.47 1885.4 1520.93 Q1883.59 1517.37 1879.96 1517.37 M1879.96 1513.66 Q1885.77 1513.66 1888.82 1518.27 Q1891.9 1522.85 1891.9 1531.6 Q1891.9 1540.33 1888.82 1544.94 Q1885.77 1549.52 1879.96 1549.52 Q1874.15 1549.52 1871.07 1544.94 Q1868.01 1540.33 1868.01 1531.6 Q1868.01 1522.85 1871.07 1518.27 Q1874.15 1513.66 1879.96 1513.66 Z" fill="#000000" fill-rule="nonzero" fill-opacity="1" /><path clip-path="url(#clip960)" d="M1910.12 1517.37 Q1906.51 1517.37 1904.68 1520.93 Q1902.87 1524.47 1902.87 1531.6 Q1902.87 1538.71 1904.68 1542.27 Q1906.51 1545.82 1910.12 1545.82 Q1913.75 1545.82 1915.56 1542.27 Q1917.39 1538.71 1917.39 1531.6 Q1917.39 1524.47 1915.56 1520.93 Q1913.75 1517.37 1910.12 1517.37 M1910.12 1513.66 Q1915.93 1513.66 1918.99 1518.27 Q1922.06 1522.85 1922.06 1531.6 Q1922.06 1540.33 1918.99 1544.94 Q1915.93 1549.52 1910.12 1549.52 Q1904.31 1549.52 1901.23 1544.94 Q1898.18 1540.33 1898.18 1531.6 Q1898.18 1522.85 1901.23 1518.27 Q1904.31 1513.66 1910.12 1513.66 Z" fill="#000000" fill-rule="nonzero" fill-opacity="1" /><path clip-path="url(#clip960)" d="M2254.37 1514.29 L2272.73 1514.29 L2272.73 1518.22 L2258.65 1518.22 L2258.65 1526.7 Q2259.67 1526.35 2260.69 1526.19 Q2261.71 1526 2262.73 1526 Q2268.51 1526 2271.89 1529.17 Q2275.27 1532.34 2275.27 1537.76 Q2275.27 1543.34 2271.8 1546.44 Q2268.33 1549.52 2262.01 1549.52 Q2259.83 1549.52 2257.57 1549.15 Q2255.32 1548.78 2252.91 1548.04 L2252.91 1543.34 Q2255 1544.47 2257.22 1545.03 Q2259.44 1545.58 2261.92 1545.58 Q2265.92 1545.58 2268.26 1543.48 Q2270.6 1541.37 2270.6 1537.76 Q2270.6 1534.15 2268.26 1532.04 Q2265.92 1529.94 2261.92 1529.94 Q2260.04 1529.94 2258.17 1530.35 Q2256.32 1530.77 2254.37 1531.65 L2254.37 1514.29 Z" fill="#000000" fill-rule="nonzero" fill-opacity="1" /><path clip-path="url(#clip960)" d="M2294.49 1517.37 Q2290.88 1517.37 2289.05 1520.93 Q2287.24 1524.47 2287.24 1531.6 Q2287.24 1538.71 2289.05 1542.27 Q2290.88 1545.82 2294.49 1545.82 Q2298.12 1545.82 2299.93 1542.27 Q2301.75 1538.71 2301.75 1531.6 Q2301.75 1524.47 2299.93 1520.93 Q2298.12 1517.37 2294.49 1517.37 M2294.49 1513.66 Q2300.3 1513.66 2303.35 1518.27 Q2306.43 1522.85 2306.43 1531.6 Q2306.43 1540.33 2303.35 1544.94 Q2300.3 1549.52 2294.49 1549.52 Q2288.68 1549.52 2285.6 1544.94 Q2282.54 1540.33 2282.54 1531.6 Q2282.54 1522.85 2285.6 1518.27 Q2288.68 1513.66 2294.49 1513.66 Z" fill="#000000" fill-rule="nonzero" fill-opacity="1" /><path clip-path="url(#clip960)" d="M2324.65 1517.37 Q2321.04 1517.37 2319.21 1520.93 Q2317.4 1524.47 2317.4 1531.6 Q2317.4 1538.71 2319.21 1542.27 Q2321.04 1545.82 2324.65 1545.82 Q2328.28 1545.82 2330.09 1542.27 Q2331.92 1538.71 2331.92 1531.6 Q2331.92 1524.47 2330.09 1520.93 Q2328.28 1517.37 2324.65 1517.37 M2324.65 1513.66 Q2330.46 1513.66 2333.51 1518.27 Q2336.59 1522.85 2336.59 1531.6 Q2336.59 1540.33 2333.51 1544.94 Q2330.46 1549.52 2324.65 1549.52 Q2318.84 1549.52 2315.76 1544.94 Q2312.7 1540.33 2312.7 1531.6 Q2312.7 1522.85 2315.76 1518.27 Q2318.84 1513.66 2324.65 1513.66 Z" fill="#000000" fill-rule="nonzero" fill-opacity="1" /><polyline clip-path="url(#clip962)" style="stroke:#000000; stroke-linecap:round; stroke-linejoin:round; stroke-width:2; stroke-opacity:0.1; fill:none" points="156.598,1251.75 2352.76,1251.75 "/>
<polyline clip-path="url(#clip962)" style="stroke:#000000; stroke-linecap:round; stroke-linejoin:round; stroke-width:2; stroke-opacity:0.1; fill:none" points="156.598,1009.3 2352.76,1009.3 "/>
<polyline clip-path="url(#clip962)" style="stroke:#000000; stroke-linecap:round; stroke-linejoin:round; stroke-width:2; stroke-opacity:0.1; fill:none" points="156.598,766.846 2352.76,766.846 "/>
<polyline clip-path="url(#clip962)" style="stroke:#000000; stroke-linecap:round; stroke-linejoin:round; stroke-width:2; stroke-opacity:0.1; fill:none" points="156.598,524.393 2352.76,524.393 "/>
<polyline clip-path="url(#clip962)" style="stroke:#000000; stroke-linecap:round; stroke-linejoin:round; stroke-width:2; stroke-opacity:0.1; fill:none" points="156.598,281.939 2352.76,281.939 "/>
<polyline clip-path="url(#clip960)" style="stroke:#000000; stroke-linecap:round; stroke-linejoin:round; stroke-width:4; stroke-opacity:1; fill:none" points="156.598,1486.45 156.598,47.2441 "/>
<polyline clip-path="url(#clip960)" style="stroke:#000000; stroke-linecap:round; stroke-linejoin:round; stroke-width:4; stroke-opacity:1; fill:none" points="156.598,1251.75 175.496,1251.75 "/>
<polyline clip-path="url(#clip960)" style="stroke:#000000; stroke-linecap:round; stroke-linejoin:round; stroke-width:4; stroke-opacity:1; fill:none" points="156.598,1009.3 175.496,1009.3 "/>
<polyline clip-path="url(#clip960)" style="stroke:#000000; stroke-linecap:round; stroke-linejoin:round; stroke-width:4; stroke-opacity:1; fill:none" points="156.598,766.846 175.496,766.846 "/>
<polyline clip-path="url(#clip960)" style="stroke:#000000; stroke-linecap:round; stroke-linejoin:round; stroke-width:4; stroke-opacity:1; fill:none" points="156.598,524.393 175.496,524.393 "/>
<polyline clip-path="url(#clip960)" style="stroke:#000000; stroke-linecap:round; stroke-linejoin:round; stroke-width:4; stroke-opacity:1; fill:none" points="156.598,281.939 175.496,281.939 "/>
<path clip-path="url(#clip960)" d="M64.0708 1237.55 Q60.4597 1237.55 58.631 1241.12 Q56.8254 1244.66 56.8254 1251.79 Q56.8254 1258.89 58.631 1262.46 Q60.4597 1266 64.0708 1266 Q67.705 1266 69.5105 1262.46 Q71.3392 1258.89 71.3392 1251.79 Q71.3392 1244.66 69.5105 1241.12 Q67.705 1237.55 64.0708 1237.55 M64.0708 1233.85 Q69.8809 1233.85 72.9365 1238.45 Q76.0151 1243.04 76.0151 1251.79 Q76.0151 1260.51 72.9365 1265.12 Q69.8809 1269.7 64.0708 1269.7 Q58.2606 1269.7 55.1819 1265.12 Q52.1264 1260.51 52.1264 1251.79 Q52.1264 1243.04 55.1819 1238.45 Q58.2606 1233.85 64.0708 1233.85 Z" fill="#000000" fill-rule="nonzero" fill-opacity="1" /><path clip-path="url(#clip960)" d="M84.2327 1263.15 L89.1169 1263.15 L89.1169 1269.03 L84.2327 1269.03 L84.2327 1263.15 Z" fill="#000000" fill-rule="nonzero" fill-opacity="1" /><path clip-path="url(#clip960)" d="M113.469 1250.4 Q116.825 1251.12 118.7 1253.38 Q120.598 1255.65 120.598 1258.99 Q120.598 1264.1 117.08 1266.9 Q113.561 1269.7 107.08 1269.7 Q104.904 1269.7 102.589 1269.26 Q100.297 1268.85 97.8437 1267.99 L97.8437 1263.48 Q99.7882 1264.61 102.103 1265.19 Q104.418 1265.77 106.941 1265.77 Q111.339 1265.77 113.631 1264.03 Q115.945 1262.3 115.945 1258.99 Q115.945 1255.93 113.793 1254.22 Q111.663 1252.48 107.844 1252.48 L103.816 1252.48 L103.816 1248.64 L108.029 1248.64 Q111.478 1248.64 113.307 1247.27 Q115.135 1245.88 115.135 1243.29 Q115.135 1240.63 113.237 1239.22 Q111.362 1237.78 107.844 1237.78 Q105.922 1237.78 103.723 1238.2 Q101.524 1238.62 98.8854 1239.5 L98.8854 1235.33 Q101.547 1234.59 103.862 1234.22 Q106.2 1233.85 108.26 1233.85 Q113.584 1233.85 116.686 1236.28 Q119.788 1238.69 119.788 1242.81 Q119.788 1245.68 118.145 1247.67 Q116.501 1249.63 113.469 1250.4 Z" fill="#000000" fill-rule="nonzero" fill-opacity="1" /><path clip-path="url(#clip960)" d="M62.9365 995.098 Q59.3254 995.098 57.4967 998.663 Q55.6912 1002.2 55.6912 1009.33 Q55.6912 1016.44 57.4967 1020.01 Q59.3254 1023.55 62.9365 1023.55 Q66.5707 1023.55 68.3763 1020.01 Q70.205 1016.44 70.205 1009.33 Q70.205 1002.2 68.3763 998.663 Q66.5707 995.098 62.9365 995.098 M62.9365 991.394 Q68.7467 991.394 71.8022 996.001 Q74.8809 1000.58 74.8809 1009.33 Q74.8809 1018.06 71.8022 1022.67 Q68.7467 1027.25 62.9365 1027.25 Q57.1264 1027.25 54.0477 1022.67 Q50.9921 1018.06 50.9921 1009.33 Q50.9921 1000.58 54.0477 996.001 Q57.1264 991.394 62.9365 991.394 Z" fill="#000000" fill-rule="nonzero" fill-opacity="1" /><path clip-path="url(#clip960)" d="M83.0984 1020.7 L87.9827 1020.7 L87.9827 1026.58 L83.0984 1026.58 L83.0984 1020.7 Z" fill="#000000" fill-rule="nonzero" fill-opacity="1" /><path clip-path="url(#clip960)" d="M111.015 996.094 L99.2095 1014.54 L111.015 1014.54 L111.015 996.094 M109.788 992.019 L115.668 992.019 L115.668 1014.54 L120.598 1014.54 L120.598 1018.43 L115.668 1018.43 L115.668 1026.58 L111.015 1026.58 L111.015 1018.43 L95.4132 1018.43 L95.4132 1013.92 L109.788 992.019 Z" fill="#000000" fill-rule="nonzero" fill-opacity="1" /><path clip-path="url(#clip960)" d="M64.418 752.645 Q60.8069 752.645 58.9782 756.209 Q57.1726 759.751 57.1726 766.881 Q57.1726 773.987 58.9782 777.552 Q60.8069 781.094 64.418 781.094 Q68.0522 781.094 69.8578 777.552 Q71.6865 773.987 71.6865 766.881 Q71.6865 759.751 69.8578 756.209 Q68.0522 752.645 64.418 752.645 M64.418 748.941 Q70.2281 748.941 73.2837 753.547 Q76.3624 758.131 76.3624 766.881 Q76.3624 775.608 73.2837 780.214 Q70.2281 784.797 64.418 784.797 Q58.6078 784.797 55.5291 780.214 Q52.4736 775.608 52.4736 766.881 Q52.4736 758.131 55.5291 753.547 Q58.6078 748.941 64.418 748.941 Z" fill="#000000" fill-rule="nonzero" fill-opacity="1" /><path clip-path="url(#clip960)" d="M84.5799 778.246 L89.4641 778.246 L89.4641 784.126 L84.5799 784.126 L84.5799 778.246 Z" fill="#000000" fill-rule="nonzero" fill-opacity="1" /><path clip-path="url(#clip960)" d="M99.6956 749.566 L118.052 749.566 L118.052 753.501 L103.978 753.501 L103.978 761.973 Q104.996 761.626 106.015 761.464 Q107.033 761.279 108.052 761.279 Q113.839 761.279 117.219 764.45 Q120.598 767.621 120.598 773.038 Q120.598 778.617 117.126 781.719 Q113.654 784.797 107.334 784.797 Q105.159 784.797 102.89 784.427 Q100.645 784.057 98.2372 783.316 L98.2372 778.617 Q100.321 779.751 102.543 780.307 Q104.765 780.862 107.242 780.862 Q111.246 780.862 113.584 778.756 Q115.922 776.649 115.922 773.038 Q115.922 769.427 113.584 767.321 Q111.246 765.214 107.242 765.214 Q105.367 765.214 103.492 765.631 Q101.64 766.047 99.6956 766.927 L99.6956 749.566 Z" fill="#000000" fill-rule="nonzero" fill-opacity="1" /><path clip-path="url(#clip960)" d="M63.2606 510.191 Q59.6495 510.191 57.8208 513.756 Q56.0152 517.298 56.0152 524.427 Q56.0152 531.534 57.8208 535.098 Q59.6495 538.64 63.2606 538.64 Q66.8948 538.64 68.7004 535.098 Q70.5291 531.534 70.5291 524.427 Q70.5291 517.298 68.7004 513.756 Q66.8948 510.191 63.2606 510.191 M63.2606 506.488 Q69.0707 506.488 72.1263 511.094 Q75.205 515.677 75.205 524.427 Q75.205 533.154 72.1263 537.761 Q69.0707 542.344 63.2606 542.344 Q57.4504 542.344 54.3717 537.761 Q51.3162 533.154 51.3162 524.427 Q51.3162 515.677 54.3717 511.094 Q57.4504 506.488 63.2606 506.488 Z" fill="#000000" fill-rule="nonzero" fill-opacity="1" /><path clip-path="url(#clip960)" d="M83.4225 535.793 L88.3067 535.793 L88.3067 541.673 L83.4225 541.673 L83.4225 535.793 Z" fill="#000000" fill-rule="nonzero" fill-opacity="1" /><path clip-path="url(#clip960)" d="M109.071 522.529 Q105.922 522.529 104.071 524.682 Q102.242 526.835 102.242 530.585 Q102.242 534.311 104.071 536.487 Q105.922 538.64 109.071 538.64 Q112.219 538.64 114.047 536.487 Q115.899 534.311 115.899 530.585 Q115.899 526.835 114.047 524.682 Q112.219 522.529 109.071 522.529 M118.353 507.876 L118.353 512.136 Q116.594 511.302 114.788 510.862 Q113.006 510.423 111.246 510.423 Q106.617 510.423 104.163 513.548 Q101.733 516.673 101.385 522.992 Q102.751 520.978 104.811 519.913 Q106.871 518.825 109.348 518.825 Q114.557 518.825 117.566 521.997 Q120.598 525.145 120.598 530.585 Q120.598 535.909 117.45 539.126 Q114.302 542.344 109.071 542.344 Q103.075 542.344 99.9039 537.761 Q96.7326 533.154 96.7326 524.427 Q96.7326 516.233 100.621 511.372 Q104.51 506.488 111.061 506.488 Q112.82 506.488 114.603 506.835 Q116.408 507.182 118.353 507.876 Z" fill="#000000" fill-rule="nonzero" fill-opacity="1" /><path clip-path="url(#clip960)" d="M64.3254 267.738 Q60.7143 267.738 58.8856 271.303 Q57.0801 274.844 57.0801 281.974 Q57.0801 289.08 58.8856 292.645 Q60.7143 296.187 64.3254 296.187 Q67.9596 296.187 69.7652 292.645 Q71.5939 289.08 71.5939 281.974 Q71.5939 274.844 69.7652 271.303 Q67.9596 267.738 64.3254 267.738 M64.3254 264.034 Q70.1355 264.034 73.1911 268.641 Q76.2698 273.224 76.2698 281.974 Q76.2698 290.701 73.1911 295.307 Q70.1355 299.89 64.3254 299.89 Q58.5152 299.89 55.4365 295.307 Q52.381 290.701 52.381 281.974 Q52.381 273.224 55.4365 268.641 Q58.5152 264.034 64.3254 264.034 Z" fill="#000000" fill-rule="nonzero" fill-opacity="1" /><path clip-path="url(#clip960)" d="M84.4873 293.339 L89.3715 293.339 L89.3715 299.219 L84.4873 299.219 L84.4873 293.339 Z" fill="#000000" fill-rule="nonzero" fill-opacity="1" /><path clip-path="url(#clip960)" d="M98.3761 264.659 L120.598 264.659 L120.598 266.65 L108.052 299.219 L103.168 299.219 L114.973 268.594 L98.3761 268.594 L98.3761 264.659 Z" fill="#000000" fill-rule="nonzero" fill-opacity="1" /><polyline clip-path="url(#clip962)" style="stroke:#009af9; stroke-linecap:round; stroke-linejoin:round; stroke-width:4; stroke-opacity:1; fill:none" points="218.754,1106.28 222.906,1154.77 227.058,1106.28 231.21,1057.79 235.362,1154.77 239.514,1154.77 243.666,1445.72 247.818,1154.77 251.97,1203.26 256.122,1154.77 260.274,1106.28 264.426,1300.24 268.578,815.337 272.73,1009.3 276.882,1348.73 281.034,960.809 285.186,1300.24 289.338,1106.28 293.49,1106.28 297.642,1057.79 301.794,1057.79 305.946,1251.75 310.098,1203.26 314.25,1009.3 318.402,815.337 322.554,863.827 326.706,912.318 330.858,1203.26 335.01,1300.24 339.162,1057.79 343.314,1251.75 347.466,815.337 351.618,912.318 355.77,1057.79 359.922,1154.77 364.074,1203.26 368.226,1106.28 372.378,1203.26 376.53,1251.75 380.682,863.827 384.834,1154.77 388.986,1251.75 393.138,1009.3 397.29,1009.3 401.442,815.337 405.594,1106.28 409.746,1106.28 413.898,815.337 418.05,1106.28 422.202,1203.26 426.354,1009.3 430.506,1348.73 434.658,1106.28 438.81,1203.26 442.962,863.827 447.114,1009.3 451.266,912.318 455.418,718.355 459.57,1009.3 463.722,815.337 467.874,1348.73 472.026,1057.79 476.177,1009.3 480.329,1106.28 484.481,863.827 488.633,1203.26 492.785,912.318 496.937,815.337 501.089,1009.3 505.241,1009.3 509.393,960.809 513.545,1057.79 517.697,815.337 521.849,1057.79 526.001,1106.28 530.153,1154.77 534.305,1009.3 538.457,912.318 542.609,621.374 546.761,1057.79 550.913,960.809 555.065,1009.3 559.217,863.827 563.369,815.337 567.521,863.827 571.673,1106.28 575.825,863.827 579.977,766.846 584.129,1251.75 588.281,766.846 592.433,960.809 596.585,1397.22 600.737,912.318 604.889,1154.77 609.041,378.92 613.193,1009.3 617.345,1154.77 621.497,1057.79 625.649,1057.79 629.801,1057.79 633.953,960.809 638.105,815.337 642.257,1251.75 646.409,912.318 650.561,1057.79 654.713,1106.28 658.865,912.318 663.017,1009.3 667.169,427.411 671.321,1106.28 675.473,863.827 679.625,912.318 683.777,1057.79 687.929,815.337 692.081,572.883 696.233,863.827 700.385,766.846 704.537,718.355 708.689,1106.28 712.841,815.337 716.993,815.337 721.145,766.846 725.297,863.827 729.449,1009.3 733.601,912.318 737.753,669.865 741.905,766.846 746.057,1057.79 750.209,815.337 754.361,863.827 758.513,1154.77 762.665,1154.77 766.817,815.337 770.969,863.827 775.121,912.318 779.273,669.865 783.425,912.318 787.577,960.809 791.729,912.318 795.881,1009.3 800.033,572.883 804.185,1106.28 808.337,815.337 812.489,1057.79 816.641,1106.28 820.793,815.337 824.945,718.355 829.097,1057.79 833.249,815.337 837.401,863.827 841.553,1154.77 845.705,912.318 849.857,912.318 854.009,1057.79 858.161,863.827 862.313,669.865 866.465,1154.77 870.617,1057.79 874.769,766.846 878.921,572.883 883.073,863.827 887.225,960.809 891.377,621.374 895.529,912.318 899.681,815.337 903.833,815.337 907.985,863.827 912.137,572.883 916.289,960.809 920.441,863.827 924.593,669.865 928.745,912.318 932.897,621.374 937.049,863.827 941.201,766.846 945.353,815.337 949.505,863.827 953.657,960.809 957.809,1106.28 961.961,475.902 966.113,1057.79 970.265,621.374 974.417,621.374 978.569,863.827 982.721,960.809 986.873,815.337 991.025,766.846 995.177,815.337 999.329,863.827 1003.48,766.846 1007.63,863.827 1011.79,475.902 1015.94,669.865 1020.09,912.318 1024.24,912.318 1028.39,669.865 1032.55,572.883 1036.7,524.393 1040.85,912.318 1045,475.902 1049.15,718.355 1053.31,815.337 1057.46,766.846 1061.61,669.865 1065.76,1009.3 1069.91,960.809 1074.07,766.846 1078.22,475.902 1082.37,718.355 1086.52,815.337 1090.67,815.337 1094.83,524.393 1098.98,815.337 1103.13,669.865 1107.28,815.337 1111.43,427.411 1115.59,524.393 1119.74,718.355 1123.89,912.318 1128.04,766.846 1132.19,815.337 1136.35,863.827 1140.5,621.374 1144.65,718.355 1148.8,912.318 1152.95,960.809 1157.11,524.393 1161.26,524.393 1165.41,621.374 1169.56,718.355 1173.71,815.337 1177.87,572.883 1182.02,766.846 1186.17,621.374 1190.32,960.809 1194.47,766.846 1198.63,815.337 1202.78,960.809 1206.93,378.92 1211.08,669.865 1215.23,766.846 1219.39,572.883 1223.54,766.846 1227.69,815.337 1231.84,1057.79 1235.99,669.865 1240.15,669.865 1244.3,766.846 1248.45,766.846 1252.6,572.883 1256.75,815.337 1260.91,718.355 1265.06,427.411 1269.21,1203.26 1273.36,621.374 1277.51,766.846 1281.67,766.846 1285.82,912.318 1289.97,621.374 1294.12,233.448 1298.27,766.846 1302.43,475.902 1306.58,524.393 1310.73,572.883 1314.88,766.846 1319.03,863.827 1323.19,572.883 1327.34,912.318 1331.49,815.337 1335.64,524.393 1339.79,475.902 1343.95,669.865 1348.1,669.865 1352.25,718.355 1356.4,863.827 1360.55,718.355 1364.71,766.846 1368.86,572.883 1373.01,572.883 1377.16,378.92 1381.31,281.939 1385.46,912.318 1389.62,718.355 1393.77,572.883 1397.92,475.902 1402.07,524.393 1406.22,766.846 1410.38,863.827 1414.53,815.337 1418.68,572.883 1422.83,524.393 1426.98,621.374 1431.14,475.902 1435.29,621.374 1439.44,766.846 1443.59,766.846 1447.74,669.865 1451.9,475.902 1456.05,960.809 1460.2,572.883 1464.35,281.939 1468.5,815.337 1472.66,1057.79 1476.81,572.883 1480.96,718.355 1485.11,330.43 1489.26,330.43 1493.42,427.411 1497.57,524.393 1501.72,766.846 1505.87,427.411 1510.02,572.883 1514.18,572.883 1518.33,524.393 1522.48,524.393 1526.63,621.374 1530.78,766.846 1534.94,330.43 1539.09,524.393 1543.24,330.43 1547.39,669.865 1551.54,330.43 1555.7,572.883 1559.85,475.902 1564,524.393 1568.15,475.902 1572.3,621.374 1576.46,524.393 1580.61,524.393 1584.76,233.448 1588.91,669.865 1593.06,621.374 1597.22,475.902 1601.37,572.883 1605.52,669.865 1609.67,718.355 1613.82,378.92 1617.98,766.846 1622.13,669.865 1626.28,766.846 1630.43,233.448 1634.58,621.374 1638.74,912.318 1642.89,572.883 1647.04,378.92 1651.19,718.355 1655.34,815.337 1659.5,427.411 1663.65,572.883 1667.8,378.92 1671.95,330.43 1676.1,475.902 1680.26,863.827 1684.41,136.467 1688.56,184.958 1692.71,572.883 1696.86,427.411 1701.02,621.374 1705.17,718.355 1709.32,524.393 1713.47,669.865 1717.62,475.902 1721.78,766.846 1725.93,572.883 1730.08,427.411 1734.23,669.865 1738.38,572.883 1742.54,427.411 1746.69,766.846 1750.84,718.355 1754.99,378.92 1759.14,621.374 1763.3,621.374 1767.45,718.355 1771.6,766.846 1775.75,815.337 1779.9,281.939 1784.06,572.883 1788.21,718.355 1792.36,621.374 1796.51,378.92 1800.66,669.865 1804.82,475.902 1808.97,621.374 1813.12,669.865 1817.27,378.92 1821.42,572.883 1825.58,524.393 1829.73,524.393 1833.88,572.883 1838.03,427.411 1842.18,815.337 1846.34,475.902 1850.49,766.846 1854.64,475.902 1858.79,766.846 1862.94,815.337 1867.1,766.846 1871.25,427.411 1875.4,863.827 1879.55,427.411 1883.7,475.902 1887.86,378.92 1892.01,233.448 1896.16,815.337 1900.31,815.337 1904.46,572.883 1908.62,475.902 1912.77,669.865 1916.92,621.374 1921.07,475.902 1925.22,378.92 1929.38,524.393 1933.53,330.43 1937.68,475.902 1941.83,330.43 1945.98,475.902 1950.14,718.355 1954.29,815.337 1958.44,815.337 1962.59,427.411 1966.74,233.448 1970.9,427.411 1975.05,766.846 1979.2,427.411 1983.35,669.865 1987.5,233.448 1991.66,87.9763 1995.81,669.865 1999.96,669.865 2004.11,233.448 2008.26,524.393 2012.42,281.939 2016.57,184.958 2020.72,427.411 2024.87,524.393 2029.02,475.902 2033.18,718.355 2037.33,281.939 2041.48,524.393 2045.63,621.374 2049.78,184.958 2053.94,572.883 2058.09,184.958 2062.24,184.958 2066.39,330.43 2070.54,572.883 2074.7,233.448 2078.85,136.467 2083,815.337 2087.15,621.374 2091.3,669.865 2095.46,718.355 2099.61,233.448 2103.76,718.355 2107.91,621.374 2112.06,475.902 2116.22,524.393 2120.37,233.448 2124.52,184.958 2128.67,378.92 2132.82,475.902 2136.98,330.43 2141.13,718.355 2145.28,475.902 2149.43,475.902 2153.58,427.411 2157.74,718.355 2161.89,281.939 2166.04,524.393 2170.19,524.393 2174.34,281.939 2178.5,281.939 2182.65,330.43 2186.8,621.374 2190.95,233.448 2195.1,184.958 2199.26,378.92 2203.41,233.448 2207.56,427.411 2211.71,572.883 2215.86,427.411 2220.02,524.393 2224.17,281.939 2228.32,427.411 2232.47,524.393 2236.62,330.43 2240.78,621.374 2244.93,233.448 2249.08,475.902 2253.23,281.939 2257.38,669.865 2261.54,524.393 2265.69,475.902 2269.84,427.411 2273.99,281.939 2278.14,330.43 2282.3,233.448 2286.45,330.43 2290.6,281.939 "/>
<path clip-path="url(#clip960)" d="M2007.5 1438.47 L2279.55 1438.47 L2279.55 1334.79 L2007.5 1334.79  Z" fill="#ffffff" fill-rule="evenodd" fill-opacity="1"/>
<polyline clip-path="url(#clip960)" style="stroke:#000000; stroke-linecap:round; stroke-linejoin:round; stroke-width:4; stroke-opacity:1; fill:none" points="2007.5,1438.47 2279.55,1438.47 2279.55,1334.79 2007.5,1334.79 2007.5,1438.47 "/>
<polyline clip-path="url(#clip960)" style="stroke:#009af9; stroke-linecap:round; stroke-linejoin:round; stroke-width:4; stroke-opacity:1; fill:none" points="2031.91,1386.63 2178.32,1386.63 "/>
<path clip-path="url(#clip960)" d="M2216.56 1406.32 Q2214.76 1410.95 2213.04 1412.36 Q2211.33 1413.78 2208.46 1413.78 L2205.06 1413.78 L2205.06 1410.21 L2207.56 1410.21 Q2209.32 1410.21 2210.29 1409.38 Q2211.26 1408.54 2212.44 1405.44 L2213.2 1403.5 L2202.72 1377.99 L2207.23 1377.99 L2215.33 1398.27 L2223.44 1377.99 L2227.95 1377.99 L2216.56 1406.32 Z" fill="#000000" fill-rule="nonzero" fill-opacity="1" /><path clip-path="url(#clip960)" d="M2235.24 1399.98 L2242.88 1399.98 L2242.88 1373.61 L2234.57 1375.28 L2234.57 1371.02 L2242.83 1369.35 L2247.51 1369.35 L2247.51 1399.98 L2255.15 1399.98 L2255.15 1403.91 L2235.24 1403.91 L2235.24 1399.98 Z" fill="#000000" fill-rule="nonzero" fill-opacity="1" /></svg>
