<?xml version="1.0" encoding="utf-8"?>
<svg xmlns="http://www.w3.org/2000/svg" xmlns:xlink="http://www.w3.org/1999/xlink" width="600" height="400" viewBox="0 0 2400 1600">
<defs>
  <clipPath id="clip000">
    <rect x="0" y="0" width="2400" height="1600"/>
  </clipPath>
</defs>
<path clip-path="url(#clip000)" d="M0 1600 L2400 1600 L2400 0 L0 0  Z" fill="#ffffff" fill-rule="evenodd" fill-opacity="1"/>
<defs>
  <clipPath id="clip001">
    <rect x="480" y="0" width="1681" height="1600"/>
  </clipPath>
</defs>
<path clip-path="url(#clip000)" d="M199.283 1486.45 L2352.76 1486.45 L2352.76 47.2441 L199.283 47.2441  Z" fill="#ffffff" fill-rule="evenodd" fill-opacity="1"/>
<defs>
  <clipPath id="clip002">
    <rect x="199" y="47" width="2154" height="1440"/>
  </clipPath>
</defs>
<polyline clip-path="url(#clip002)" style="stroke:#000000; stroke-linecap:round; stroke-linejoin:round; stroke-width:2; stroke-opacity:0.1; fill:none" points="260.231,1486.45 260.231,47.2441 "/>
<polyline clip-path="url(#clip002)" style="stroke:#000000; stroke-linecap:round; stroke-linejoin:round; stroke-width:2; stroke-opacity:0.1; fill:none" points="768.125,1486.45 768.125,47.2441 "/>
<polyline clip-path="url(#clip002)" style="stroke:#000000; stroke-linecap:round; stroke-linejoin:round; stroke-width:2; stroke-opacity:0.1; fill:none" points="1276.02,1486.45 1276.02,47.2441 "/>
<polyline clip-path="url(#clip002)" style="stroke:#000000; stroke-linecap:round; stroke-linejoin:round; stroke-width:2; stroke-opacity:0.1; fill:none" points="1783.91,1486.45 1783.91,47.2441 "/>
<polyline clip-path="url(#clip002)" style="stroke:#000000; stroke-linecap:round; stroke-linejoin:round; stroke-width:2; stroke-opacity:0.1; fill:none" points="2291.81,1486.45 2291.81,47.2441 "/>
<polyline clip-path="url(#clip000)" style="stroke:#000000; stroke-linecap:round; stroke-linejoin:round; stroke-width:4; stroke-opacity:1; fill:none" points="199.283,1486.45 2352.76,1486.45 "/>
<polyline clip-path="url(#clip000)" style="stroke:#000000; stroke-linecap:round; stroke-linejoin:round; stroke-width:4; stroke-opacity:1; fill:none" points="260.231,1486.45 260.231,1467.55 "/>
<polyline clip-path="url(#clip000)" style="stroke:#000000; stroke-linecap:round; stroke-linejoin:round; stroke-width:4; stroke-opacity:1; fill:none" points="768.125,1486.45 768.125,1467.55 "/>
<polyline clip-path="url(#clip000)" style="stroke:#000000; stroke-linecap:round; stroke-linejoin:round; stroke-width:4; stroke-opacity:1; fill:none" points="1276.02,1486.45 1276.02,1467.55 "/>
<polyline clip-path="url(#clip000)" style="stroke:#000000; stroke-linecap:round; stroke-linejoin:round; stroke-width:4; stroke-opacity:1; fill:none" points="1783.91,1486.45 1783.91,1467.55 "/>
<polyline clip-path="url(#clip000)" style="stroke:#000000; stroke-linecap:round; stroke-linejoin:round; stroke-width:4; stroke-opacity:1; fill:none" points="2291.81,1486.45 2291.81,1467.55 "/>
<path clip-path="url(#clip000)" d="M260.231 1517.37 Q256.619 1517.37 254.791 1520.93 Q252.985 1524.47 252.985 1531.6 Q252.985 1538.71 254.791 1542.27 Q256.619 1545.82 260.231 1545.82 Q263.865 1545.82 265.67 1542.27 Q267.499 1538.71 267.499 1531.6 Q267.499 1524.47 265.67 1520.93 Q263.865 1517.37 260.231 1517.37 M260.231 1513.66 Q266.041 1513.66 269.096 1518.27 Q272.175 1522.85 272.175 1531.6 Q272.175 1540.33 269.096 1544.94 Q266.041 1549.52 260.231 1549.52 Q254.42 1549.52 251.342 1544.94 Q248.286 1540.33 248.286 1531.6 Q248.286 1522.85 251.342 1518.27 Q254.42 1513.66 260.231 1513.66 Z" fill="#000000" fill-rule="nonzero" fill-opacity="1" /><path clip-path="url(#clip000)" d="M727.743 1514.29 L746.1 1514.29 L746.1 1518.22 L732.026 1518.22 L732.026 1526.7 Q733.044 1526.35 734.063 1526.19 Q735.081 1526 736.1 1526 Q741.887 1526 745.266 1529.17 Q748.646 1532.34 748.646 1537.76 Q748.646 1543.34 745.174 1546.44 Q741.702 1549.52 735.382 1549.52 Q733.206 1549.52 730.938 1549.15 Q728.692 1548.78 726.285 1548.04 L726.285 1543.34 Q728.368 1544.47 730.591 1545.03 Q732.813 1545.58 735.29 1545.58 Q739.294 1545.58 741.632 1543.48 Q743.97 1541.37 743.97 1537.76 Q743.97 1534.15 741.632 1532.04 Q739.294 1529.94 735.29 1529.94 Q733.415 1529.94 731.54 1530.35 Q729.688 1530.77 727.743 1531.65 L727.743 1514.29 Z" fill="#000000" fill-rule="nonzero" fill-opacity="1" /><path clip-path="url(#clip000)" d="M767.859 1517.37 Q764.248 1517.37 762.419 1520.93 Q760.614 1524.47 760.614 1531.6 Q760.614 1538.71 762.419 1542.27 Q764.248 1545.82 767.859 1545.82 Q771.493 1545.82 773.299 1542.27 Q775.127 1538.71 775.127 1531.6 Q775.127 1524.47 773.299 1520.93 Q771.493 1517.37 767.859 1517.37 M767.859 1513.66 Q773.669 1513.66 776.725 1518.27 Q779.803 1522.85 779.803 1531.6 Q779.803 1540.33 776.725 1544.94 Q773.669 1549.52 767.859 1549.52 Q762.049 1549.52 758.97 1544.94 Q755.914 1540.33 755.914 1531.6 Q755.914 1522.85 758.97 1518.27 Q762.049 1513.66 767.859 1513.66 Z" fill="#000000" fill-rule="nonzero" fill-opacity="1" /><path clip-path="url(#clip000)" d="M798.021 1517.37 Q794.41 1517.37 792.581 1520.93 Q790.775 1524.47 790.775 1531.6 Q790.775 1538.71 792.581 1542.27 Q794.41 1545.82 798.021 1545.82 Q801.655 1545.82 803.46 1542.27 Q805.289 1538.71 805.289 1531.6 Q805.289 1524.47 803.46 1520.93 Q801.655 1517.37 798.021 1517.37 M798.021 1513.66 Q803.831 1513.66 806.886 1518.27 Q809.965 1522.85 809.965 1531.6 Q809.965 1540.33 806.886 1544.94 Q803.831 1549.52 798.021 1549.52 Q792.211 1549.52 789.132 1544.94 Q786.076 1540.33 786.076 1531.6 Q786.076 1522.85 789.132 1518.27 Q792.211 1513.66 798.021 1513.66 Z" fill="#000000" fill-rule="nonzero" fill-opacity="1" /><path clip-path="url(#clip000)" d="M1220.55 1544.91 L1228.18 1544.91 L1228.18 1518.55 L1219.87 1520.21 L1219.87 1515.95 L1228.14 1514.29 L1232.81 1514.29 L1232.81 1544.91 L1240.45 1544.91 L1240.45 1548.85 L1220.55 1548.85 L1220.55 1544.91 Z" fill="#000000" fill-rule="nonzero" fill-opacity="1" /><path clip-path="url(#clip000)" d="M1259.9 1517.37 Q1256.29 1517.37 1254.46 1520.93 Q1252.65 1524.47 1252.65 1531.6 Q1252.65 1538.71 1254.46 1542.27 Q1256.29 1545.82 1259.9 1545.82 Q1263.53 1545.82 1265.34 1542.27 Q1267.17 1538.71 1267.17 1531.6 Q1267.17 1524.47 1265.34 1520.93 Q1263.53 1517.37 1259.9 1517.37 M1259.9 1513.66 Q1265.71 1513.66 1268.76 1518.27 Q1271.84 1522.85 1271.84 1531.6 Q1271.84 1540.33 1268.76 1544.94 Q1265.71 1549.52 1259.9 1549.52 Q1254.09 1549.52 1251.01 1544.94 Q1247.95 1540.33 1247.95 1531.6 Q1247.95 1522.85 1251.01 1518.27 Q1254.09 1513.66 1259.9 1513.66 Z" fill="#000000" fill-rule="nonzero" fill-opacity="1" /><path clip-path="url(#clip000)" d="M1290.06 1517.37 Q1286.45 1517.37 1284.62 1520.93 Q1282.81 1524.47 1282.81 1531.6 Q1282.81 1538.71 1284.62 1542.27 Q1286.45 1545.82 1290.06 1545.82 Q1293.69 1545.82 1295.5 1542.27 Q1297.33 1538.71 1297.33 1531.6 Q1297.33 1524.47 1295.5 1520.93 Q1293.69 1517.37 1290.06 1517.37 M1290.06 1513.66 Q1295.87 1513.66 1298.92 1518.27 Q1302 1522.85 1302 1531.6 Q1302 1540.33 1298.92 1544.94 Q1295.87 1549.52 1290.06 1549.52 Q1284.25 1549.52 1281.17 1544.94 Q1278.11 1540.33 1278.11 1531.6 Q1278.11 1522.85 1281.17 1518.27 Q1284.25 1513.66 1290.06 1513.66 Z" fill="#000000" fill-rule="nonzero" fill-opacity="1" /><path clip-path="url(#clip000)" d="M1320.22 1517.37 Q1316.61 1517.37 1314.78 1520.93 Q1312.98 1524.47 1312.98 1531.6 Q1312.98 1538.71 1314.78 1542.27 Q1316.61 1545.82 1320.22 1545.82 Q1323.85 1545.82 1325.66 1542.27 Q1327.49 1538.71 1327.49 1531.6 Q1327.49 1524.47 1325.66 1520.93 Q1323.85 1517.37 1320.22 1517.37 M1320.22 1513.66 Q1326.03 1513.66 1329.09 1518.27 Q1332.17 1522.85 1332.17 1531.6 Q1332.17 1540.33 1329.09 1544.94 Q1326.03 1549.52 1320.22 1549.52 Q1314.41 1549.52 1311.33 1544.94 Q1308.28 1540.33 1308.28 1531.6 Q1308.28 1522.85 1311.33 1518.27 Q1314.41 1513.66 1320.22 1513.66 Z" fill="#000000" fill-rule="nonzero" fill-opacity="1" /><path clip-path="url(#clip000)" d="M1728.44 1544.91 L1736.08 1544.91 L1736.08 1518.55 L1727.77 1520.21 L1727.77 1515.95 L1736.03 1514.29 L1740.71 1514.29 L1740.71 1544.91 L1748.35 1544.91 L1748.35 1548.85 L1728.44 1548.85 L1728.44 1544.91 Z" fill="#000000" fill-rule="nonzero" fill-opacity="1" /><path clip-path="url(#clip000)" d="M1757.84 1514.29 L1776.19 1514.29 L1776.19 1518.22 L1762.12 1518.22 L1762.12 1526.7 Q1763.14 1526.35 1764.16 1526.19 Q1765.18 1526 1766.19 1526 Q1771.98 1526 1775.36 1529.17 Q1778.74 1532.34 1778.74 1537.76 Q1778.74 1543.34 1775.27 1546.44 Q1771.8 1549.52 1765.48 1549.52 Q1763.3 1549.52 1761.03 1549.15 Q1758.79 1548.78 1756.38 1548.04 L1756.38 1543.34 Q1758.46 1544.47 1760.69 1545.03 Q1762.91 1545.58 1765.38 1545.58 Q1769.39 1545.58 1771.73 1543.48 Q1774.06 1541.37 1774.06 1537.76 Q1774.06 1534.15 1771.73 1532.04 Q1769.39 1529.94 1765.38 1529.94 Q1763.51 1529.94 1761.63 1530.35 Q1759.78 1530.77 1757.84 1531.65 L1757.84 1514.29 Z" fill="#000000" fill-rule="nonzero" fill-opacity="1" /><path clip-path="url(#clip000)" d="M1797.95 1517.37 Q1794.34 1517.37 1792.51 1520.93 Q1790.71 1524.47 1790.71 1531.6 Q1790.71 1538.71 1792.51 1542.27 Q1794.34 1545.82 1797.95 1545.82 Q1801.59 1545.82 1803.39 1542.27 Q1805.22 1538.71 1805.22 1531.6 Q1805.22 1524.47 1803.39 1520.93 Q1801.59 1517.37 1797.95 1517.37 M1797.95 1513.66 Q1803.76 1513.66 1806.82 1518.27 Q1809.9 1522.85 1809.9 1531.6 Q1809.9 1540.33 1806.82 1544.94 Q1803.76 1549.52 1797.95 1549.52 Q1792.14 1549.52 1789.06 1544.94 Q1786.01 1540.33 1786.01 1531.6 Q1786.01 1522.85 1789.06 1518.27 Q1792.14 1513.66 1797.95 1513.66 Z" fill="#000000" fill-rule="nonzero" fill-opacity="1" /><path clip-path="url(#clip000)" d="M1828.12 1517.37 Q1824.5 1517.37 1822.68 1520.93 Q1820.87 1524.47 1820.87 1531.6 Q1820.87 1538.71 1822.68 1542.27 Q1824.5 1545.82 1828.12 1545.82 Q1831.75 1545.82 1833.55 1542.27 Q1835.38 1538.71 1835.38 1531.6 Q1835.38 1524.47 1833.55 1520.93 Q1831.75 1517.37 1828.12 1517.37 M1828.12 1513.66 Q1833.93 1513.66 1836.98 1518.27 Q1840.06 1522.85 1840.06 1531.6 Q1840.06 1540.33 1836.98 1544.94 Q1833.93 1549.52 1828.12 1549.52 Q1822.31 1549.52 1819.23 1544.94 Q1816.17 1540.33 1816.17 1531.6 Q1816.17 1522.85 1819.23 1518.27 Q1822.31 1513.66 1828.12 1513.66 Z" fill="#000000" fill-rule="nonzero" fill-opacity="1" /><path clip-path="url(#clip000)" d="M2240.42 1544.91 L2256.74 1544.91 L2256.74 1548.85 L2234.79 1548.85 L2234.79 1544.91 Q2237.46 1542.16 2242.04 1537.53 Q2246.65 1532.88 2247.83 1531.53 Q2250.07 1529.01 2250.95 1527.27 Q2251.86 1525.51 2251.86 1523.82 Q2251.86 1521.07 2249.91 1519.33 Q2247.99 1517.6 2244.89 1517.6 Q2242.69 1517.6 2240.23 1518.36 Q2237.8 1519.13 2235.03 1520.68 L2235.03 1515.95 Q2237.85 1514.82 2240.3 1514.24 Q2242.76 1513.66 2244.79 1513.66 Q2250.17 1513.66 2253.36 1516.35 Q2256.55 1519.03 2256.55 1523.52 Q2256.55 1525.65 2255.74 1527.57 Q2254.96 1529.47 2252.85 1532.07 Q2252.27 1532.74 2249.17 1535.95 Q2246.07 1539.15 2240.42 1544.91 Z" fill="#000000" fill-rule="nonzero" fill-opacity="1" /><path clip-path="url(#clip000)" d="M2276.55 1517.37 Q2272.94 1517.37 2271.11 1520.93 Q2269.31 1524.47 2269.31 1531.6 Q2269.31 1538.71 2271.11 1542.27 Q2272.94 1545.82 2276.55 1545.82 Q2280.19 1545.82 2281.99 1542.27 Q2283.82 1538.71 2283.82 1531.6 Q2283.82 1524.47 2281.99 1520.93 Q2280.19 1517.37 2276.55 1517.37 M2276.55 1513.66 Q2282.36 1513.66 2285.42 1518.27 Q2288.5 1522.85 2288.5 1531.6 Q2288.5 1540.33 2285.42 1544.94 Q2282.36 1549.52 2276.55 1549.52 Q2270.74 1549.52 2267.67 1544.94 Q2264.61 1540.33 2264.61 1531.6 Q2264.61 1522.85 2267.67 1518.27 Q2270.74 1513.66 2276.55 1513.66 Z" fill="#000000" fill-rule="nonzero" fill-opacity="1" /><path clip-path="url(#clip000)" d="M2306.72 1517.37 Q2303.1 1517.37 2301.28 1520.93 Q2299.47 1524.47 2299.47 1531.6 Q2299.47 1538.71 2301.28 1542.27 Q2303.1 1545.82 2306.72 1545.82 Q2310.35 1545.82 2312.16 1542.27 Q2313.98 1538.71 2313.98 1531.6 Q2313.98 1524.47 2312.16 1520.93 Q2310.35 1517.37 2306.72 1517.37 M2306.72 1513.66 Q2312.53 1513.66 2315.58 1518.27 Q2318.66 1522.85 2318.66 1531.6 Q2318.66 1540.33 2315.58 1544.94 Q2312.53 1549.52 2306.72 1549.52 Q2300.91 1549.52 2297.83 1544.94 Q2294.77 1540.33 2294.77 1531.6 Q2294.77 1522.85 2297.83 1518.27 Q2300.91 1513.66 2306.72 1513.66 Z" fill="#000000" fill-rule="nonzero" fill-opacity="1" /><path clip-path="url(#clip000)" d="M2336.88 1517.37 Q2333.27 1517.37 2331.44 1520.93 Q2329.63 1524.47 2329.63 1531.6 Q2329.63 1538.71 2331.44 1542.27 Q2333.27 1545.82 2336.88 1545.82 Q2340.51 1545.82 2342.32 1542.27 Q2344.15 1538.71 2344.15 1531.6 Q2344.15 1524.47 2342.32 1520.93 Q2340.51 1517.37 2336.88 1517.37 M2336.88 1513.66 Q2342.69 1513.66 2345.74 1518.27 Q2348.82 1522.85 2348.82 1531.6 Q2348.82 1540.33 2345.74 1544.94 Q2342.69 1549.52 2336.88 1549.52 Q2331.07 1549.52 2327.99 1544.94 Q2324.93 1540.33 2324.93 1531.6 Q2324.93 1522.85 2327.99 1518.27 Q2331.07 1513.66 2336.88 1513.66 Z" fill="#000000" fill-rule="nonzero" fill-opacity="1" /><polyline clip-path="url(#clip002)" style="stroke:#000000; stroke-linecap:round; stroke-linejoin:round; stroke-width:2; stroke-opacity:0.1; fill:none" points="199.283,1234.46 2352.76,1234.46 "/>
<polyline clip-path="url(#clip002)" style="stroke:#000000; stroke-linecap:round; stroke-linejoin:round; stroke-width:2; stroke-opacity:0.1; fill:none" points="199.283,949.181 2352.76,949.181 "/>
<polyline clip-path="url(#clip002)" style="stroke:#000000; stroke-linecap:round; stroke-linejoin:round; stroke-width:2; stroke-opacity:0.1; fill:none" points="199.283,663.9 2352.76,663.9 "/>
<polyline clip-path="url(#clip002)" style="stroke:#000000; stroke-linecap:round; stroke-linejoin:round; stroke-width:2; stroke-opacity:0.1; fill:none" points="199.283,378.619 2352.76,378.619 "/>
<polyline clip-path="url(#clip002)" style="stroke:#000000; stroke-linecap:round; stroke-linejoin:round; stroke-width:2; stroke-opacity:0.1; fill:none" points="199.283,93.3383 2352.76,93.3383 "/>
<polyline clip-path="url(#clip000)" style="stroke:#000000; stroke-linecap:round; stroke-linejoin:round; stroke-width:4; stroke-opacity:1; fill:none" points="199.283,1486.45 199.283,47.2441 "/>
<polyline clip-path="url(#clip000)" style="stroke:#000000; stroke-linecap:round; stroke-linejoin:round; stroke-width:4; stroke-opacity:1; fill:none" points="199.283,1234.46 218.181,1234.46 "/>
<polyline clip-path="url(#clip000)" style="stroke:#000000; stroke-linecap:round; stroke-linejoin:round; stroke-width:4; stroke-opacity:1; fill:none" points="199.283,949.181 218.181,949.181 "/>
<polyline clip-path="url(#clip000)" style="stroke:#000000; stroke-linecap:round; stroke-linejoin:round; stroke-width:4; stroke-opacity:1; fill:none" points="199.283,663.9 218.181,663.9 "/>
<polyline clip-path="url(#clip000)" style="stroke:#000000; stroke-linecap:round; stroke-linejoin:round; stroke-width:4; stroke-opacity:1; fill:none" points="199.283,378.619 218.181,378.619 "/>
<polyline clip-path="url(#clip000)" style="stroke:#000000; stroke-linecap:round; stroke-linejoin:round; stroke-width:4; stroke-opacity:1; fill:none" points="199.283,93.3383 218.181,93.3383 "/>
<path clip-path="url(#clip000)" d="M85.0429 1247.81 L101.362 1247.81 L101.362 1251.74 L79.4179 1251.74 L79.4179 1247.81 Q82.0799 1245.05 86.6632 1240.42 Q91.2697 1235.77 92.4502 1234.43 Q94.6956 1231.9 95.5752 1230.17 Q96.478 1228.41 96.478 1226.72 Q96.478 1223.96 94.5336 1222.23 Q92.6123 1220.49 89.5104 1220.49 Q87.3114 1220.49 84.8577 1221.26 Q82.4271 1222.02 79.6494 1223.57 L79.6494 1218.85 Q82.4734 1217.71 84.9271 1217.14 Q87.3808 1216.56 89.4178 1216.56 Q94.7882 1216.56 97.9826 1219.24 Q101.177 1221.93 101.177 1226.42 Q101.177 1228.55 100.367 1230.47 Q99.5798 1232.37 97.4734 1234.96 Q96.8947 1235.63 93.7928 1238.85 Q90.691 1242.04 85.0429 1247.81 Z" fill="#000000" fill-rule="nonzero" fill-opacity="1" /><path clip-path="url(#clip000)" d="M111.223 1217.18 L129.58 1217.18 L129.58 1221.12 L115.506 1221.12 L115.506 1229.59 Q116.524 1229.24 117.543 1229.08 Q118.561 1228.89 119.58 1228.89 Q125.367 1228.89 128.746 1232.07 Q132.126 1235.24 132.126 1240.65 Q132.126 1246.23 128.654 1249.33 Q125.182 1252.41 118.862 1252.41 Q116.686 1252.41 114.418 1252.04 Q112.172 1251.67 109.765 1250.93 L109.765 1246.23 Q111.848 1247.37 114.07 1247.92 Q116.293 1248.48 118.77 1248.48 Q122.774 1248.48 125.112 1246.37 Q127.45 1244.26 127.45 1240.65 Q127.45 1237.04 125.112 1234.94 Q122.774 1232.83 118.77 1232.83 Q116.895 1232.83 115.02 1233.25 Q113.168 1233.66 111.223 1234.54 L111.223 1217.18 Z" fill="#000000" fill-rule="nonzero" fill-opacity="1" /><path clip-path="url(#clip000)" d="M151.339 1220.26 Q147.728 1220.26 145.899 1223.82 Q144.093 1227.37 144.093 1234.5 Q144.093 1241.6 145.899 1245.17 Q147.728 1248.71 151.339 1248.71 Q154.973 1248.71 156.779 1245.17 Q158.607 1241.6 158.607 1234.5 Q158.607 1227.37 156.779 1223.82 Q154.973 1220.26 151.339 1220.26 M151.339 1216.56 Q157.149 1216.56 160.205 1221.16 Q163.283 1225.75 163.283 1234.5 Q163.283 1243.22 160.205 1247.83 Q157.149 1252.41 151.339 1252.41 Q145.529 1252.41 142.45 1247.83 Q139.394 1243.22 139.394 1234.5 Q139.394 1225.75 142.45 1221.16 Q145.529 1216.56 151.339 1216.56 Z" fill="#000000" fill-rule="nonzero" fill-opacity="1" /><path clip-path="url(#clip000)" d="M81.0614 931.901 L99.4178 931.901 L99.4178 935.836 L85.3438 935.836 L85.3438 944.308 Q86.3623 943.961 87.3808 943.799 Q88.3993 943.613 89.4178 943.613 Q95.2049 943.613 98.5845 946.785 Q101.964 949.956 101.964 955.373 Q101.964 960.951 98.4919 964.053 Q95.0197 967.132 88.7003 967.132 Q86.5243 967.132 84.2558 966.761 Q82.0105 966.391 79.6031 965.65 L79.6031 960.951 Q81.6864 962.086 83.9086 962.641 Q86.1308 963.197 88.6077 963.197 Q92.6123 963.197 94.9502 961.09 Q97.2882 958.984 97.2882 955.373 Q97.2882 951.762 94.9502 949.655 Q92.6123 947.549 88.6077 947.549 Q86.7327 947.549 84.8577 947.965 Q83.0058 948.382 81.0614 949.262 L81.0614 931.901 Z" fill="#000000" fill-rule="nonzero" fill-opacity="1" /><path clip-path="url(#clip000)" d="M121.177 934.979 Q117.566 934.979 115.737 938.544 Q113.932 942.086 113.932 949.215 Q113.932 956.322 115.737 959.887 Q117.566 963.428 121.177 963.428 Q124.811 963.428 126.617 959.887 Q128.445 956.322 128.445 949.215 Q128.445 942.086 126.617 938.544 Q124.811 934.979 121.177 934.979 M121.177 931.276 Q126.987 931.276 130.043 935.882 Q133.121 940.465 133.121 949.215 Q133.121 957.942 130.043 962.549 Q126.987 967.132 121.177 967.132 Q115.367 967.132 112.288 962.549 Q109.233 957.942 109.233 949.215 Q109.233 940.465 112.288 935.882 Q115.367 931.276 121.177 931.276 Z" fill="#000000" fill-rule="nonzero" fill-opacity="1" /><path clip-path="url(#clip000)" d="M151.339 934.979 Q147.728 934.979 145.899 938.544 Q144.093 942.086 144.093 949.215 Q144.093 956.322 145.899 959.887 Q147.728 963.428 151.339 963.428 Q154.973 963.428 156.779 959.887 Q158.607 956.322 158.607 949.215 Q158.607 942.086 156.779 938.544 Q154.973 934.979 151.339 934.979 M151.339 931.276 Q157.149 931.276 160.205 935.882 Q163.283 940.465 163.283 949.215 Q163.283 957.942 160.205 962.549 Q157.149 967.132 151.339 967.132 Q145.529 967.132 142.45 962.549 Q139.394 957.942 139.394 949.215 Q139.394 940.465 142.45 935.882 Q145.529 931.276 151.339 931.276 Z" fill="#000000" fill-rule="nonzero" fill-opacity="1" /><path clip-path="url(#clip000)" d="M79.8346 646.62 L102.057 646.62 L102.057 648.611 L89.5104 681.18 L84.6262 681.18 L96.4317 650.555 L79.8346 650.555 L79.8346 646.62 Z" fill="#000000" fill-rule="nonzero" fill-opacity="1" /><path clip-path="url(#clip000)" d="M111.223 646.62 L129.58 646.62 L129.58 650.555 L115.506 650.555 L115.506 659.027 Q116.524 658.68 117.543 658.518 Q118.561 658.333 119.58 658.333 Q125.367 658.333 128.746 661.504 Q132.126 664.675 132.126 670.092 Q132.126 675.671 128.654 678.772 Q125.182 681.851 118.862 681.851 Q116.686 681.851 114.418 681.481 Q112.172 681.11 109.765 680.37 L109.765 675.671 Q111.848 676.805 114.07 677.36 Q116.293 677.916 118.77 677.916 Q122.774 677.916 125.112 675.809 Q127.45 673.703 127.45 670.092 Q127.45 666.481 125.112 664.374 Q122.774 662.268 118.77 662.268 Q116.895 662.268 115.02 662.685 Q113.168 663.101 111.223 663.981 L111.223 646.62 Z" fill="#000000" fill-rule="nonzero" fill-opacity="1" /><path clip-path="url(#clip000)" d="M151.339 649.699 Q147.728 649.699 145.899 653.263 Q144.093 656.805 144.093 663.935 Q144.093 671.041 145.899 674.606 Q147.728 678.147 151.339 678.147 Q154.973 678.147 156.779 674.606 Q158.607 671.041 158.607 663.935 Q158.607 656.805 156.779 653.263 Q154.973 649.699 151.339 649.699 M151.339 645.995 Q157.149 645.995 160.205 650.601 Q163.283 655.185 163.283 663.935 Q163.283 672.661 160.205 677.268 Q157.149 681.851 151.339 681.851 Q145.529 681.851 142.45 677.268 Q139.394 672.661 139.394 663.935 Q139.394 655.185 142.45 650.601 Q145.529 645.995 151.339 645.995 Z" fill="#000000" fill-rule="nonzero" fill-opacity="1" /><path clip-path="url(#clip000)" d="M51.6634 391.964 L59.3023 391.964 L59.3023 365.598 L50.9921 367.265 L50.9921 363.006 L59.256 361.339 L63.9319 361.339 L63.9319 391.964 L71.5707 391.964 L71.5707 395.899 L51.6634 395.899 L51.6634 391.964 Z" fill="#000000" fill-rule="nonzero" fill-opacity="1" /><path clip-path="url(#clip000)" d="M91.0151 364.418 Q87.404 364.418 85.5753 367.983 Q83.7697 371.524 83.7697 378.654 Q83.7697 385.76 85.5753 389.325 Q87.404 392.867 91.0151 392.867 Q94.6493 392.867 96.4548 389.325 Q98.2835 385.76 98.2835 378.654 Q98.2835 371.524 96.4548 367.983 Q94.6493 364.418 91.0151 364.418 M91.0151 360.714 Q96.8252 360.714 99.8808 365.321 Q102.959 369.904 102.959 378.654 Q102.959 387.381 99.8808 391.987 Q96.8252 396.57 91.0151 396.57 Q85.2049 396.57 82.1262 391.987 Q79.0707 387.381 79.0707 378.654 Q79.0707 369.904 82.1262 365.321 Q85.2049 360.714 91.0151 360.714 Z" fill="#000000" fill-rule="nonzero" fill-opacity="1" /><path clip-path="url(#clip000)" d="M121.177 364.418 Q117.566 364.418 115.737 367.983 Q113.932 371.524 113.932 378.654 Q113.932 385.76 115.737 389.325 Q117.566 392.867 121.177 392.867 Q124.811 392.867 126.617 389.325 Q128.445 385.76 128.445 378.654 Q128.445 371.524 126.617 367.983 Q124.811 364.418 121.177 364.418 M121.177 360.714 Q126.987 360.714 130.043 365.321 Q133.121 369.904 133.121 378.654 Q133.121 387.381 130.043 391.987 Q126.987 396.57 121.177 396.57 Q115.367 396.57 112.288 391.987 Q109.233 387.381 109.233 378.654 Q109.233 369.904 112.288 365.321 Q115.367 360.714 121.177 360.714 Z" fill="#000000" fill-rule="nonzero" fill-opacity="1" /><path clip-path="url(#clip000)" d="M151.339 364.418 Q147.728 364.418 145.899 367.983 Q144.093 371.524 144.093 378.654 Q144.093 385.76 145.899 389.325 Q147.728 392.867 151.339 392.867 Q154.973 392.867 156.779 389.325 Q158.607 385.76 158.607 378.654 Q158.607 371.524 156.779 367.983 Q154.973 364.418 151.339 364.418 M151.339 360.714 Q157.149 360.714 160.205 365.321 Q163.283 369.904 163.283 378.654 Q163.283 387.381 160.205 391.987 Q157.149 396.57 151.339 396.57 Q145.529 396.57 142.45 391.987 Q139.394 387.381 139.394 378.654 Q139.394 369.904 142.45 365.321 Q145.529 360.714 151.339 360.714 Z" fill="#000000" fill-rule="nonzero" fill-opacity="1" /><path clip-path="url(#clip000)" d="M51.6634 106.683 L59.3023 106.683 L59.3023 80.3175 L50.9921 81.9842 L50.9921 77.725 L59.256 76.0583 L63.9319 76.0583 L63.9319 106.683 L71.5707 106.683 L71.5707 110.618 L51.6634 110.618 L51.6634 106.683 Z" fill="#000000" fill-rule="nonzero" fill-opacity="1" /><path clip-path="url(#clip000)" d="M85.0429 106.683 L101.362 106.683 L101.362 110.618 L79.4179 110.618 L79.4179 106.683 Q82.0799 103.929 86.6632 99.2989 Q91.2697 94.6462 92.4502 93.3036 Q94.6956 90.7804 95.5752 89.0443 Q96.478 87.2851 96.478 85.5953 Q96.478 82.8407 94.5336 81.1046 Q92.6123 79.3685 89.5104 79.3685 Q87.3114 79.3685 84.8577 80.1324 Q82.4271 80.8962 79.6494 82.4472 L79.6494 77.725 Q82.4734 76.5907 84.9271 76.012 Q87.3808 75.4333 89.4178 75.4333 Q94.7882 75.4333 97.9826 78.1185 Q101.177 80.8037 101.177 85.2944 Q101.177 87.424 100.367 89.3453 Q99.5798 91.2434 97.4734 93.836 Q96.8947 94.5073 93.7928 97.7249 Q90.691 100.919 85.0429 106.683 Z" fill="#000000" fill-rule="nonzero" fill-opacity="1" /><path clip-path="url(#clip000)" d="M111.223 76.0583 L129.58 76.0583 L129.58 79.9935 L115.506 79.9935 L115.506 88.4656 Q116.524 88.1184 117.543 87.9564 Q118.561 87.7712 119.58 87.7712 Q125.367 87.7712 128.746 90.9425 Q132.126 94.1138 132.126 99.5304 Q132.126 105.109 128.654 108.211 Q125.182 111.29 118.862 111.29 Q116.686 111.29 114.418 110.919 Q112.172 110.549 109.765 109.808 L109.765 105.109 Q111.848 106.243 114.07 106.799 Q116.293 107.354 118.77 107.354 Q122.774 107.354 125.112 105.248 Q127.45 103.141 127.45 99.5304 Q127.45 95.9193 125.112 93.8128 Q122.774 91.7064 118.77 91.7064 Q116.895 91.7064 115.02 92.123 Q113.168 92.5397 111.223 93.4193 L111.223 76.0583 Z" fill="#000000" fill-rule="nonzero" fill-opacity="1" /><path clip-path="url(#clip000)" d="M151.339 79.137 Q147.728 79.137 145.899 82.7018 Q144.093 86.2434 144.093 93.373 Q144.093 100.479 145.899 104.044 Q147.728 107.586 151.339 107.586 Q154.973 107.586 156.779 104.044 Q158.607 100.479 158.607 93.373 Q158.607 86.2434 156.779 82.7018 Q154.973 79.137 151.339 79.137 M151.339 75.4333 Q157.149 75.4333 160.205 80.0398 Q163.283 84.6231 163.283 93.373 Q163.283 102.1 160.205 106.706 Q157.149 111.29 151.339 111.29 Q145.529 111.29 142.45 106.706 Q139.394 102.1 139.394 93.373 Q139.394 84.6231 142.45 80.0398 Q145.529 75.4333 151.339 75.4333 Z" fill="#000000" fill-rule="nonzero" fill-opacity="1" /><polyline clip-path="url(#clip002)" style="stroke:#009af9; stroke-linecap:round; stroke-linejoin:round; stroke-width:4; stroke-opacity:1; fill:none" points="260.231,1441.11 261.246,1441.42 262.262,1445.44 263.278,1445.72 264.294,1431.9 265.309,1432.14 266.325,1418.43 267.341,1418.81 268.357,1421.37 269.373,1421.77 270.388,1419.26 271.404,1419.61 272.42,1424.66 273.436,1424.94 274.452,1405.31 275.467,1405.71 276.483,1365.32 277.499,1365.88 278.515,1375.48 279.531,1376.06 280.546,1358.12 281.562,1358.66 282.578,1361.21 283.594,1361.95 284.609,1349.34 285.625,1349.9 286.641,1336.31 287.657,1336.99 288.673,1325.43 289.688,1326.06 290.704,1321 291.72,1321.44 292.736,1329 293.752,1329.3 294.767,1274.3 295.783,1274.92 296.799,1295.44 297.815,1295.96 298.831,1243.38 299.846,1244.15 300.862,1285.86 301.878,1286.45 302.894,1214.74 303.909,1215.63 304.925,1225.51 305.941,1226.33 306.957,1184.93 307.973,1185.88 308.988,1146.34 310.004,1147.5 311.02,1117.04 312.036,1117.93 313.052,1143.78 314.067,1144.54 315.083,1119.86 316.099,1120.76 317.115,1037.3 318.131,1038.56 319.146,1069.39 320.162,1070.34 321.178,1011.96 322.194,1013.11 323.209,978.863 324.225,979.997 325.241,955.307 326.257,956.415 327.273,946.336 328.288,947.648 329.304,884.193 330.32,885.307 331.336,881.875 332.352,882.979 333.367,853.65 334.383,854.945 335.399,761.102 336.415,763.169 337.43,789.55 338.446,790.505 339.462,718.801 340.478,720.802 341.494,732.942 342.509,734.983 343.525,720.598 344.541,721.921 345.557,642.649 346.573,643.576 347.588,607.247 348.604,608.473 349.62,521.844 350.636,523.53 351.652,470.953 352.667,471.059 353.683,563.952 354.699,564.904 355.715,544.644 356.73,545.79 357.746,474.367 358.762,475.182 359.778,452.94 360.794,452.819 361.809,413.504 362.825,415.148 363.841,451.898 364.857,452.736 365.873,392.152 366.888,393.562 367.904,464.51 368.92,465.449 369.936,423.387 370.952,424.895 371.967,389.288 372.983,390.985 373.999,385.032 375.015,385.893 376.03,342.353 377.046,342.924 378.062,371.379 379.078,372.436 380.094,299.929 381.109,299.863 382.125,353.102 383.141,354.714 384.157,366.619 385.173,367.527 386.188,326.574 387.204,327.58 388.22,314.903 389.236,315.909 390.252,331.443 391.267,333.35 392.283,310.856 393.299,313.315 394.315,271.176 395.33,272.771 396.346,323.703 397.362,325.457 398.378,224.654 399.394,225.186 400.409,208.992 401.425,209.737 402.441,195.515 403.457,196.445 404.473,174.139 405.488,175.659 406.504,196.86 407.52,197.643 408.536,208.703 409.552,210.494 410.567,199.364 411.583,200.134 412.599,184.948 413.615,185.962 414.63,150.708 415.646,151.602 416.662,166.117 417.678,168.575 418.694,125.437 419.709,126.109 420.725,143.765 421.741,144.515 422.757,154.977 423.773,157.181 424.788,161.508 425.804,162.505 426.82,116.922 427.836,118.157 428.852,113.152 429.867,114.093 430.883,174.875 431.899,176.045 432.915,151.87 433.93,153.434 434.946,155.159 435.962,155.491 436.978,193.361 437.994,194.439 439.009,172.764 440.025,174.34 441.041,145.163 442.057,146.953 443.073,166.627 444.088,168.261 445.104,148.326 446.12,149.817 447.136,195.621 448.151,197.697 449.167,248.831 450.183,250.766 451.199,214.696 452.215,215.896 453.23,189.954 454.246,191.361 455.262,190.641 456.278,193.445 457.294,208.901 458.309,210.194 459.325,234.431 460.341,236.07 461.357,252.091 462.373,253.78 463.388,222.72 464.404,224.213 465.42,261.054 466.436,262.526 467.451,235.577 468.467,236.732 469.483,256.699 470.499,258.411 471.515,303.74 472.53,305.233 473.546,223.597 474.562,225.646 475.578,211.043 476.594,212.939 477.609,277.475 478.625,279.43 479.641,277.9 480.657,279.169 481.673,258.038 482.688,259.375 483.704,283.511 484.72,284.794 485.736,244.921 486.751,246.256 487.767,249.867 488.783,250.741 489.799,251.16 490.815,252.433 491.83,246.346 492.846,247.865 493.862,186.318 494.878,187.637 495.894,204.983 496.909,206.138 497.925,227.738 498.941,229.471 499.957,251.436 500.973,253.128 501.988,237.626 503.004,239.298 504.02,192.695 505.036,194.812 506.051,243.765 507.067,244.833 508.083,238.692 509.099,239.629 510.115,207.016 511.13,208.099 512.146,236.307 513.162,237.177 514.178,179.456 515.194,180.043 516.209,233.064 517.225,234.345 518.241,278.821 519.257,280.974 520.273,309.706 521.288,310.442 522.304,267.438 523.32,268.381 524.336,296.75 525.351,298.473 526.367,262.109 527.383,264.14 528.399,248.879 529.415,250.141 530.43,229.321 531.446,230.995 532.462,259.774 533.478,261.251 534.494,200.799 535.509,201.828 536.525,254.492 537.541,256.512 538.557,195.635 539.573,196.627 540.588,285.383 541.604,286.991 542.62,265.387 543.636,267.121 544.651,235.519 545.667,237.628 546.683,254.057 547.699,256.024 548.715,260.642 549.73,261.838 550.746,243.765 551.762,245.296 552.778,217.819 553.794,219.126 554.809,232.86 555.825,234.333 556.841,236.482 557.857,237.435 558.873,238.989 559.888,239.883 560.904,257.767 561.92,259.424 562.936,240.332 563.951,241.597 564.967,262.907 565.983,264.951 566.999,257.931 568.015,259.353 569.03,274.504 570.046,275.811 571.062,231.974 572.078,233.473 573.094,241.114 574.109,242.538 575.125,210.026 576.141,212.856 577.157,208.567 578.172,210.137 579.188,257.353 580.204,258.834 581.22,208.845 582.236,209.765 583.251,269.239 584.267,271.587 585.283,273.742 586.299,275.311 587.315,258.315 588.33,259.449 589.346,242.993 590.362,243.906 591.378,223.39 592.394,225.637 593.409,286.818 594.425,288.62 595.441,273.38 596.457,274.714 597.472,239.838 598.488,241.786 599.504,223.94 600.52,225.167 601.536,267.958 602.551,268.889 603.567,237.584 604.583,238.819 605.599,289.267 606.615,290.776 607.63,281.613 608.646,282.313 609.662,257.974 610.678,259.116 611.694,235.189 612.709,236.762 613.725,276.579 614.741,277.874 615.757,238.938 616.772,241.279 617.788,291.883 618.804,293.165 619.82,293.859 620.836,295.031 621.851,281.979 622.867,283.048 623.883,244.418 624.899,245.326 625.915,235.822 626.93,237.288 627.946,241.042 628.962,241.873 629.978,280.206 630.994,281.493 632.009,290.721 633.025,292.188 634.041,247.508 635.057,248.877 636.072,243.284 637.088,244.858 638.104,242.115 639.12,243.373 640.136,231.369 641.151,232.902 642.167,204.814 643.183,205.925 644.199,249.88 645.215,251.778 646.23,256.561 647.246,258.11 648.262,264.676 649.278,266.066 650.294,261.047 651.309,262.258 652.325,293.633 653.341,295.442 654.357,269.964 655.372,271.418 656.388,201.138 657.404,202.31 658.42,193.107 659.436,194.035 660.451,230.67 661.467,231.826 662.483,218.85 663.499,220.529 664.515,219.542 665.53,221.765 666.546,240.332 667.562,241.354 668.578,230.112 669.594,231.795 670.609,197.06 671.625,198.983 672.641,215.733 673.657,217.261 674.672,253.173 675.688,254.484 676.704,245.839 677.72,246.731 678.736,278.781 679.751,279.501 680.767,234.321 681.783,235.705 682.799,241.977 683.815,243.025 684.83,243.365 685.846,244.56 686.862,214.538 687.878,216.095 688.893,188.118 689.909,189.445 690.925,257.936 691.941,258.453 692.957,188.782 693.972,189.758 694.988,213.651 696.004,214.908 697.02,200.536 698.036,201.11 699.051,203.781 700.067,205.883 701.083,174.664 702.099,175.433 703.115,215.662 704.13,217.143 705.146,243.917 706.162,244.865 707.178,204.143 708.193,204.822 709.209,221.114 710.225,222.603 711.241,255.3 712.257,256.101 713.272,227.645 714.288,229.161 715.304,251.555 716.32,252.64 717.336,243.346 718.351,244.378 719.367,277.2 720.383,278.717 721.399,266.827 722.415,268.201 723.43,246.138 724.446,249.015 725.462,271.341 726.478,272.7 727.493,272.5 728.509,274.189 729.525,284.103 730.541,285.8 731.557,200.053 732.572,201.292 733.588,246.39 734.604,247.014 735.62,287.817 736.636,288.275 737.651,261.745 738.667,263.208 739.683,267.196 740.699,268.15 741.715,239.223 742.73,241.261 743.746,267.414 744.762,268.25 745.778,238.173 746.793,239.53 747.809,225.728 748.825,227.542 749.841,219.767 750.857,220.77 751.872,245.5 752.888,246.786 753.904,227.244 754.92,228.833 755.936,252.123 756.951,253.202 757.967,241.316 758.983,242.406 759.999,252.313 761.015,253.444 762.03,193.129 763.046,193.801 764.062,232.163 765.078,233.655 766.093,235.29 767.109,236.647 768.125,227.926 769.141,229.457 770.157,263.496 771.172,264.89 772.188,249.166 773.204,251.425 774.22,223.907 775.236,225.557 776.251,231.208 777.267,232.599 778.283,188.649 779.299,189.573 780.315,190.704 781.33,191.81 782.346,244.286 783.362,245.15 784.378,306.868 785.393,308.11 786.409,225.075 787.425,226.946 788.441,250.131 789.457,252.589 790.472,252.746 791.488,253.453 792.504,251.528 793.52,252.933 794.536,252.89 795.551,254.291 796.567,277.662 797.583,279.332 798.599,205.386 799.614,207.137 800.63,221.366 801.646,222.511 802.662,227.755 803.678,229.193 804.693,241.827 805.709,243.499 806.725,236.278 807.741,237.74 808.757,221.39 809.772,223.827 810.788,190.731 811.804,192.246 812.82,214.383 813.836,215.104 814.851,260.955 815.867,262.504 816.883,227.23 817.899,228.615 818.914,240.697 819.93,241.65 820.946,238.849 821.962,239.813 822.978,247.239 823.993,249.922 825.009,278.618 826.025,280.139 827.041,267.072 828.057,268.743 829.072,237.938 830.088,239.055 831.104,276.419 832.12,277.081 833.136,288.799 834.151,289.993 835.167,238.64 836.183,239.333 837.199,271.771 838.214,273.71 839.23,285.886 840.246,287.96 841.262,284.884 842.278,286.508 843.293,245.9 844.309,247.315 845.325,261.326 846.341,263.01 847.357,238.361 848.372,239.994 849.388,278.038 850.404,279.517 851.42,293.617 852.436,295.276 853.451,235.48 854.467,237.274 855.483,259.93 856.499,261.098 857.514,246.036 858.53,247.333 859.546,273.301 860.562,274.313 861.578,270.225 862.593,271.549 863.609,258.157 864.625,260.114 865.641,274.794 866.657,276.271 867.672,213.118 868.688,214.17 869.704,201.906 870.72,203.536 871.736,245.768 872.751,246.753 873.767,213.287 874.783,214.595 875.799,179.965 876.814,181.822 877.83,216.874 878.846,218.09 879.862,211.874 880.878,213.809 881.893,234.69 882.909,236.063 883.925,203.226 884.941,204.419 885.957,208.126 886.972,209.445 887.988,253.924 889.004,254.985 890.02,248.963 891.036,249.689 892.051,205.792 893.067,207.027 894.083,220.088 895.099,221.06 896.114,180.318 897.13,181.847 898.146,214.064 899.162,215.214 900.178,186.655 901.193,187.879 902.209,250.615 903.225,251.993 904.241,204.598 905.257,207.434 906.272,241.461 907.288,242.166 908.304,235.736 909.32,236.66 910.336,244.144 911.351,246.981 912.367,243.292 913.383,245.419 914.399,259.704 915.414,260.6 916.43,193.53 917.446,194.328 918.462,221.35 919.478,223.527 920.493,272.208 921.509,273.07 922.525,263.26 923.541,264.157 924.557,218.916 925.572,220.139 926.588,240.7 927.604,242.032 928.62,257.598 929.635,258.929 930.651,208.777 931.667,210.053 932.683,247.082 933.699,248.603 934.714,248.62 935.73,249.27 936.746,219.268 937.762,220.377 938.778,214.546 939.793,215.712 940.809,236.872 941.825,238.107 942.841,239.56 943.857,241.221 944.872,258.463 945.888,259.29 946.904,275.553 947.92,277.011 948.935,247.446 949.951,248.671 950.967,260.6 951.983,261.776 952.999,290.196 954.014,292.359 955.03,293.661 956.046,294.258 957.062,276.066 958.078,277.014 959.093,234.108 960.109,234.783 961.125,240.973 962.141,242.36 963.157,283.971 964.172,284.886 965.188,276.49 966.204,277.303 967.22,306.473 968.235,307.479 969.251,244.684 970.267,246.942 971.283,281.995 972.299,284.201 973.314,298.502 974.33,300.409 975.346,295.511 976.362,296.777 977.378,309.046 978.393,309.927 979.409,244.368 980.425,245.57 981.441,282.746 982.457,284.547 983.472,264.764 984.488,267.066 985.504,283.132 986.52,283.628 987.535,306.148 988.551,308.3 989.567,296.816 990.583,297.317 991.599,223.127 992.614,223.993 993.63,290.32 994.646,291.515 995.662,304.106 996.678,304.81 997.693,286.519 998.709,287.495 999.725,280.102 1000.74,281.973 1001.76,264.388 1002.77,265.187 1003.79,271.992 1004.8,274.026 1005.82,272.26 1006.84,273.277 1007.85,245.769 1008.87,247.089 1009.88,270.931 1010.9,273.678 1011.91,238.218 1012.93,239.241 1013.95,272.403 1014.96,273.008 1015.98,261.582 1016.99,262.981 1018.01,285.273 1019.02,286.142 1020.04,266.656 1021.06,267.81 1022.07,267.981 1023.09,269.357 1024.1,263.631 1025.12,265.291 1026.14,241.854 1027.15,242.937 1028.17,262.246 1029.18,264.58 1030.2,207.657 1031.21,208.947 1032.23,276.874 1033.25,278.297 1034.26,285.127 1035.28,286.812 1036.29,255.137 1037.31,256.858 1038.32,210.628 1039.34,212.154 1040.36,239.449 1041.37,241.179 1042.39,210.433 1043.4,211.777 1044.42,224.103 1045.44,225.873 1046.45,214.613 1047.47,215.78 1048.48,222.994 1049.5,224.268 1050.51,258.562 1051.53,259.578 1052.55,265.07 1053.56,266.605 1054.58,246.91 1055.59,248.364 1056.61,190.479 1057.62,191.01 1058.64,268.087 1059.66,269.084 1060.67,213.395 1061.69,214.85 1062.7,253.289 1063.72,254.214 1064.74,244.105 1065.75,245.451 1066.77,265.502 1067.78,266.683 1068.8,250.058 1069.81,251.334 1070.83,233.725 1071.85,235.254 1072.86,203.018 1073.88,204.704 1074.89,212.455 1075.91,213.503 1076.92,186.455 1077.94,187.221 1078.96,209.554 1079.97,210.453 1080.99,189.404 1082,190.627 1083.02,171.531 1084.04,172.815 1085.05,177.533 1086.07,178.591 1087.08,206.254 1088.1,207.483 1089.11,196.175 1090.13,198.12 1091.15,164.495 1092.16,165.36 1093.18,205.436 1094.19,206.698 1095.21,196.771 1096.22,197.79 1097.24,174.681 1098.26,176.135 1099.27,167.018 1100.29,167.515 1101.3,241.251 1102.32,242.174 1103.34,218.242 1104.35,218.985 1105.37,209.426 1106.38,210.252 1107.4,183.127 1108.41,184.121 1109.43,259.598 1110.45,260.845 1111.46,245.512 1112.48,246.867 1113.49,235.816 1114.51,237.395 1115.52,196.639 1116.54,198.41 1117.56,176.433 1118.57,177.579 1119.59,253.039 1120.6,254.722 1121.62,254.251 1122.64,255.087 1123.65,248.723 1124.67,249.436 1125.68,223.62 1126.7,224.806 1127.71,200.357 1128.73,202.151 1129.75,232.686 1130.76,234.285 1131.78,203.119 1132.79,204.319 1133.81,197.925 1134.82,200.041 1135.84,178.56 1136.86,179.77 1137.87,162.958 1138.89,165.02 1139.9,213.352 1140.92,214.201 1141.94,197.301 1142.95,197.984 1143.97,207.264 1144.98,207.949 1146,203.297 1147.01,204.684 1148.03,184.203 1149.05,185.175 1150.06,207.54 1151.08,209.36 1152.09,169.59 1153.11,172.068 1154.12,187.539 1155.14,189.044 1156.16,201.553 1157.17,202.482 1158.19,225.098 1159.2,226.428 1160.22,191.518 1161.24,193.101 1162.25,182.711 1163.27,183.961 1164.28,211.527 1165.3,212.583 1166.31,193.531 1167.33,194.327 1168.35,245.108 1169.36,246.506 1170.38,199.365 1171.39,201.093 1172.41,215.057 1173.42,216.268 1174.44,169.064 1175.46,170.719 1176.47,203.886 1177.49,204.916 1178.5,191.405 1179.52,192.411 1180.54,198.235 1181.55,199.372 1182.57,165.576 1183.58,166.816 1184.6,176.601 1185.61,177.668 1186.63,204.07 1187.65,204.886 1188.66,225.792 1189.68,227.235 1190.69,155.35 1191.71,156.311 1192.72,223.448 1193.74,224.58 1194.76,236.245 1195.77,237.416 1196.79,197.097 1197.8,199.301 1198.82,192.804 1199.84,194.659 1200.85,206.956 1201.87,208.041 1202.88,159.586 1203.9,160.88 1204.91,202.686 1205.93,203.923 1206.95,195.828 1207.96,197.223 1208.98,221.951 1209.99,223.375 1211.01,228.473 1212.02,229.234 1213.04,167.454 1214.06,168.891 1215.07,145.339 1216.09,147.069 1217.1,207.164 1218.12,208.077 1219.14,189.696 1220.15,191.397 1221.17,246.986 1222.18,248.211 1223.2,225.092 1224.21,226.103 1225.23,257.163 1226.25,259.323 1227.26,222.156 1228.28,223.571 1229.29,234.459 1230.31,235.665 1231.32,201.978 1232.34,202.658 1233.36,260.591 1234.37,262.266 1235.39,199.576 1236.4,200.769 1237.42,218.771 1238.44,220.013 1239.45,242.24 1240.47,243.98 1241.48,204.962 1242.5,206.263 1243.51,206.036 1244.53,207.266 1245.55,166.02 1246.56,166.843 1247.58,161.413 1248.59,162.435 1249.61,190.729 1250.62,191.753 1251.64,136.284 1252.66,137.435 1253.67,223.249 1254.69,224.874 1255.7,219.08 1256.72,220.386 1257.74,219.092 1258.75,220.463 1259.77,237.546 1260.78,238.439 1261.8,205.05 1262.81,206.241 1263.83,207.621 1264.85,208.875 1265.86,225.712 1266.88,226.504 1267.89,231.478 1268.91,232.19 1269.92,219.231 1270.94,219.922 1271.96,212.838 1272.97,213.726 1273.99,222.476 1275,224.213 1276.02,217.548 1277.04,218.353 1278.05,222.885 1279.07,224.289 1280.08,220.837 1281.1,222.636 1282.11,189.454 1283.13,191.529 1284.15,170.469 1285.16,171.378 1286.18,196.292 1287.19,197.559 1288.21,231.783 1289.22,233.198 1290.24,226.676 1291.26,227.641 1292.27,220.195 1293.29,221.123 1294.3,204.015 1295.32,205.382 1296.34,190.184 1297.35,191.407 1298.37,191.038 1299.38,191.943 1300.4,175.477 1301.41,176.224 1302.43,203.102 1303.45,204.181 1304.46,203.286 1305.48,204.908 1306.49,176.49 1307.51,177.415 1308.52,239.113 1309.54,240.224 1310.56,221.106 1311.57,222.561 1312.59,223.687 1313.6,225.235 1314.62,221.916 1315.64,223.139 1316.65,178.739 1317.67,179.663 1318.68,208.324 1319.7,209.472 1320.71,232.037 1321.73,234.04 1322.75,196.122 1323.76,196.959 1324.78,211.829 1325.79,212.714 1326.81,272.642 1327.82,273.644 1328.84,248.152 1329.86,249.366 1330.87,201.168 1331.89,201.679 1332.9,246.294 1333.92,247.905 1334.94,244.401 1335.95,246.071 1336.97,239.612 1337.98,240.914 1339,227.98 1340.01,229.198 1341.03,223.453 1342.05,224.667 1343.06,226.875 1344.08,227.67 1345.09,219.245 1346.11,220.034 1347.12,208.549 1348.14,210.649 1349.16,167.099 1350.17,168.682 1351.19,182.256 1352.2,183.71 1353.22,174.286 1354.24,175.337 1355.25,171.725 1356.27,173.368 1357.28,157.661 1358.3,159.022 1359.31,177.932 1360.33,179.151 1361.35,163.155 1362.36,164.174 1363.38,216.764 1364.39,218.15 1365.41,174.908 1366.42,176.965 1367.44,213.778 1368.46,216.196 1369.47,208.665 1370.49,210.063 1371.5,230.434 1372.52,231.589 1373.54,218.785 1374.55,220.924 1375.57,237.358 1376.58,237.928 1377.6,198.617 1378.61,199.685 1379.63,236.113 1380.65,236.932 1381.66,193.514 1382.68,194.597 1383.69,233.772 1384.71,235.135 1385.72,225.261 1386.74,226.979 1387.76,176.029 1388.77,177.152 1389.79,197.944 1390.8,198.885 1391.82,189.474 1392.84,190.498 1393.85,237.776 1394.87,238.528 1395.88,224.05 1396.9,225.208 1397.91,217.3 1398.93,218.292 1399.95,252.494 1400.96,253.268 1401.98,229.513 1402.99,230.764 1404.01,178.989 1405.02,180.033 1406.04,224.538 1407.06,225.564 1408.07,181.734 1409.09,182.658 1410.1,217.759 1411.12,218.81 1412.14,223.651 1413.15,225.428 1414.17,247.388 1415.18,249.361 1416.2,246.925 1417.21,248.214 1418.23,221.354 1419.25,223.022 1420.26,239.393 1421.28,240.403 1422.29,201.648 1423.31,202.662 1424.32,210.427 1425.34,212.252 1426.36,209.434 1427.37,211.309 1428.39,190.417 1429.4,191.252 1430.42,183.366 1431.44,185.614 1432.45,213.937 1433.47,215.095 1434.48,192.804 1435.5,194.649 1436.51,208.762 1437.53,209.851 1438.55,192.964 1439.56,194.897 1440.58,224.1 1441.59,224.939 1442.61,184.383 1443.62,186.078 1444.64,212.585 1445.66,214.841 1446.67,224.105 1447.69,225.206 1448.7,191.795 1449.72,193.235 1450.74,195.891 1451.75,196.744 1452.77,145.232 1453.78,147.255 1454.8,198.983 1455.81,200.623 1456.83,190.276 1457.85,192.112 1458.86,231.695 1459.88,233.599 1460.89,193.259 1461.91,194.175 1462.92,165.637 1463.94,167.033 1464.96,173.983 1465.97,176.457 1466.99,203.16 1468,205.157 1469.02,181.929 1470.04,183.194 1471.05,167.427 1472.07,168.404 1473.08,171.102 1474.1,172.338 1475.11,161.347 1476.13,162.207 1477.15,170.782 1478.16,171.505 1479.18,175.354 1480.19,176.43 1481.21,167.572 1482.22,169.636 1483.24,149.488 1484.26,150.87 1485.27,181.062 1486.29,182.087 1487.3,181.938 1488.32,183.119 1489.34,187.37 1490.35,188.882 1491.37,161.55 1492.38,162.577 1493.4,167.546 1494.41,168.399 1495.43,174.087 1496.45,175.862 1497.46,159.758 1498.48,161.33 1499.49,144.7 1500.51,145.366 1501.52,176.133 1502.54,177.155 1503.56,162.58 1504.57,164.033 1505.59,161.898 1506.6,163.238 1507.62,126.977 1508.64,127.892 1509.65,177.523 1510.67,179.141 1511.68,141.731 1512.7,143.177 1513.71,160.602 1514.73,162.428 1515.75,183.843 1516.76,184.815 1517.78,131.131 1518.79,133.522 1519.81,169.024 1520.82,170.266 1521.84,140.552 1522.86,141.489 1523.87,191.553 1524.89,192.522 1525.9,145.962 1526.92,147.77 1527.94,178.426 1528.95,180.356 1529.97,184.837 1530.98,186.234 1532,168.881 1533.01,170.567 1534.03,187.513 1535.05,188.673 1536.06,198.122 1537.08,199.561 1538.09,188.332 1539.11,189.254 1540.12,152.276 1541.14,153.429 1542.16,203.335 1543.17,204.527 1544.19,206.893 1545.2,208.162 1546.22,155.359 1547.24,156.812 1548.25,182.772 1549.27,183.659 1550.28,190.593 1551.3,191.853 1552.31,196.542 1553.33,197.794 1554.35,138.93 1555.36,140.223 1556.38,195.113 1557.39,196.346 1558.41,248.746 1559.42,249.622 1560.44,193.16 1561.46,194.19 1562.47,259.208 1563.49,260.695 1564.5,252.337 1565.52,253.513 1566.54,251.291 1567.55,253.067 1568.57,260.695 1569.58,261.517 1570.6,307.475 1571.61,308.557 1572.63,293.89 1573.65,295.989 1574.66,269.366 1575.68,270.773 1576.69,277.196 1577.71,278.446 1578.72,252.335 1579.74,253.52 1580.76,265.455 1581.77,266.751 1582.79,262.211 1583.8,263.01 1584.82,232.985 1585.84,233.949 1586.85,229.767 1587.87,230.727 1588.88,252.187 1589.9,253.741 1590.91,202.156 1591.93,203.693 1592.95,209.578 1593.96,210.598 1594.98,196.138 1595.99,197.47 1597.01,203.61 1598.02,204.913 1599.04,187.197 1600.06,188.294 1601.07,194.147 1602.09,195.554 1603.1,136.748 1604.12,138.812 1605.14,193.138 1606.15,194.228 1607.17,149.949 1608.18,150.967 1609.2,182.85 1610.21,183.978 1611.23,184.613 1612.25,187.058 1613.26,146.977 1614.28,147.868 1615.29,164.604 1616.31,165.857 1617.32,135.947 1618.34,137.248 1619.36,176.535 1620.37,178.079 1621.39,152.807 1622.4,154.04 1623.42,118.918 1624.44,119.691 1625.45,127.842 1626.47,130.607 1627.48,139.076 1628.5,140.099 1629.51,162.982 1630.53,164.327 1631.55,135.377 1632.56,136.353 1633.58,129.888 1634.59,131.297 1635.61,128.026 1636.62,129.349 1637.64,134.401 1638.66,136.156 1639.67,98.1091 1640.69,99.2738 1641.7,143.486 1642.72,145.526 1643.74,150.342 1644.75,151.341 1645.77,150.851 1646.78,151.633 1647.8,156.631 1648.81,157.814 1649.83,149.951 1650.85,151.491 1651.86,172.319 1652.88,173.26 1653.89,169.169 1654.91,171.04 1655.92,132.754 1656.94,134.17 1657.96,179.861 1658.97,180.586 1659.99,176.367 1661,178.356 1662.02,141.732 1663.04,142.964 1664.05,126.356 1665.07,127.454 1666.08,156.157 1667.1,157.688 1668.11,125.542 1669.13,127.365 1670.15,165.015 1671.16,166.118 1672.18,147.705 1673.19,149.964 1674.21,205.099 1675.22,206.956 1676.24,185.484 1677.26,186.926 1678.27,166.965 1679.29,168.164 1680.3,187.278 1681.32,188.307 1682.34,221.759 1683.35,222.998 1684.37,192.365 1685.38,193.157 1686.4,193.689 1687.41,195.15 1688.43,210.519 1689.45,211.766 1690.46,240.732 1691.48,242.82 1692.49,244.632 1693.51,245.446 1694.52,215.009 1695.54,216.391 1696.56,184.947 1697.57,186.331 1698.59,162.049 1699.6,163.139 1700.62,167.796 1701.64,168.883 1702.65,131.592 1703.67,132.926 1704.68,144.899 1705.7,145.817 1706.71,182.119 1707.73,182.819 1708.75,147.736 1709.76,148.722 1710.78,134.782 1711.79,135.124 1712.81,186.774 1713.82,187.915 1714.84,224.122 1715.86,225.224 1716.87,230.545 1717.89,232.413 1718.9,209.291 1719.92,210.177 1720.94,198.151 1721.95,199.087 1722.97,174.626 1723.98,175.638 1725,183.374 1726.01,184.423 1727.03,194.669 1728.05,197.224 1729.06,157.778 1730.08,160.594 1731.09,197.633 1732.11,199.047 1733.12,196.546 1734.14,198.033 1735.16,194.85 1736.17,196.151 1737.19,147.008 1738.2,148.627 1739.22,140.443 1740.24,141.094 1741.25,159.856 1742.27,161.697 1743.28,139.981 1744.3,141.174 1745.31,121.978 1746.33,122.782 1747.35,87.9763 1748.36,88.9583 1749.38,137.26 1750.39,137.866 1751.41,133.795 1752.42,134.983 1753.44,158.465 1754.46,160.68 1755.47,147.751 1756.49,148.987 1757.5,226.169 1758.52,227.57 1759.54,181.025 1760.55,181.933 1761.57,204.725 1762.58,206.19 1763.6,177.551 1764.61,179.356 1765.63,187.185 1766.65,187.97 1767.66,155.637 1768.68,157.167 1769.69,185.286 1770.71,186.699 1771.72,239.502 1772.74,240.755 1773.76,164.429 1774.77,165.993 1775.79,213.517 1776.8,214.526 1777.82,185.973 1778.84,187.224 1779.85,188.89 1780.87,189.763 1781.88,210.207 1782.9,211.014 1783.91,217.059 1784.93,219.496 1785.95,251.745 1786.96,253.305 1787.98,245.581 1788.99,247.447 1790.01,220.919 1791.02,221.745 1792.04,177.708 1793.06,178.26 1794.07,217.456 1795.09,218.895 1796.1,197.959 1797.12,200.037 1798.14,168.217 1799.15,169.701 1800.17,203 1801.18,204.614 1802.2,179.195 1803.21,180.501 1804.23,178.338 1805.25,179.496 1806.26,158.346 1807.28,159.532 1808.29,193.602 1809.31,195.328 1810.32,126.546 1811.34,127.368 1812.36,137.345 1813.37,138.719 1814.39,172.981 1815.4,174.392 1816.42,190.544 1817.44,191.694 1818.45,173.985 1819.47,175.37 1820.48,190.357 1821.5,191.417 1822.51,157.98 1823.53,158.63 1824.55,176.882 1825.56,177.909 1826.58,185.038 1827.59,186.321 1828.61,182.433 1829.62,183.374 1830.64,172.81 1831.66,173.576 1832.67,200.751 1833.69,202.092 1834.7,177.254 1835.72,178.524 1836.74,185.448 1837.75,186.18 1838.77,157.795 1839.78,159.254 1840.8,167.542 1841.81,168.33 1842.83,179.914 1843.85,180.664 1844.86,201.058 1845.88,201.876 1846.89,199.899 1847.91,201.37 1848.92,179.343 1849.94,180.757 1850.96,177.845 1851.97,179.058 1852.99,203.844 1854,205.816 1855.02,197.649 1856.04,199.225 1857.05,196.147 1858.07,197.911 1859.08,237.831 1860.1,239.199 1861.11,223.635 1862.13,224.751 1863.15,246.988 1864.16,249.432 1865.18,190.872 1866.19,192.433 1867.21,193.468 1868.22,194.539 1869.24,179.023 1870.26,179.815 1871.27,198.951 1872.29,200.572 1873.3,198.549 1874.32,199.757 1875.34,176.207 1876.35,178.009 1877.37,176.386 1878.38,178.185 1879.4,193.917 1880.41,195.404 1881.43,180.016 1882.45,181.161 1883.46,158.499 1884.48,159.676 1885.49,185.833 1886.51,186.943 1887.52,194.551 1888.54,196.563 1889.56,222.84 1890.57,223.805 1891.59,189.803 1892.6,191.098 1893.62,199.687 1894.64,200.773 1895.65,149.088 1896.67,149.824 1897.68,216.689 1898.7,217.891 1899.71,214.777 1900.73,216.343 1901.75,206.648 1902.76,207.612 1903.78,230.25 1904.79,232.599 1905.81,246.392 1906.82,247.682 1907.84,212.121 1908.86,213.606 1909.87,223.99 1910.89,224.78 1911.9,197.888 1912.92,199.347 1913.94,228.671 1914.95,230.739 1915.97,202.279 1916.98,204.435 1918,234.454 1919.01,235.64 1920.03,177.42 1921.05,179.673 1922.06,202.471 1923.08,203.622 1924.09,191.309 1925.11,192.146 1926.12,206.338 1927.14,207.57 1928.16,189.85 1929.17,190.808 1930.19,189.835 1931.2,190.709 1932.22,192.615 1933.24,193.346 1934.25,178.198 1935.27,179.363 1936.28,178.326 1937.3,179.135 1938.31,159.601 1939.33,159.982 1940.35,201.518 1941.36,203.288 1942.38,174.829 1943.39,175.165 1944.41,246.089 1945.42,246.625 1946.44,204.973 1947.46,206.478 1948.47,261.554 1949.49,262.998 1950.5,238.111 1951.52,238.988 1952.54,241.891 1953.55,242.743 1954.57,200.221 1955.58,201.744 1956.6,209.297 1957.61,210.072 1958.63,221.984 1959.65,222.748 1960.66,202.662 1961.68,203.441 1962.69,217.313 1963.71,218.298 1964.72,188.562 1965.74,189.957 1966.76,162.767 1967.77,164.256 1968.79,186.141 1969.8,187.329 1970.82,178.195 1971.84,179.048 1972.85,234.697 1973.87,236.922 1974.88,188.849 1975.9,190.006 1976.91,220.957 1977.93,223.11 1978.95,227.912 1979.96,228.749 1980.98,239.089 1981.99,240.025 1983.01,199.123 1984.02,200.537 1985.04,200.949 1986.06,202.784 1987.07,214.893 1988.09,215.803 1989.1,188.721 1990.12,189.919 1991.14,218.012 1992.15,219.911 1993.17,159.194 1994.18,159.721 1995.2,152.194 1996.21,153.499 1997.23,203.421 1998.25,204.168 1999.26,173.358 2000.28,174.21 2001.29,220.775 2002.31,221.919 2003.32,184.996 2004.34,186.612 2005.36,233.948 2006.37,234.7 2007.39,207.721 2008.4,209.025 2009.42,237.376 2010.44,238.214 2011.45,198.845 2012.47,200.107 2013.48,201.457 2014.5,202.412 2015.51,205.904 2016.53,206.911 2017.55,211.429 2018.56,213.164 2019.58,224.503 2020.59,225.339 2021.61,207.507 2022.62,208.359 2023.64,233.483 2024.66,234.693 2025.67,239.662 2026.69,241.286 2027.7,229.433 2028.72,230.09 2029.73,181.11 2030.75,181.882 2031.77,176.837 2032.78,177.497 2033.8,254.077 2034.81,255.005 2035.83,218.116 2036.85,219.419 2037.86,198.83 2038.88,200.219 2039.89,220.756 2040.91,221.706 2041.92,204.018 2042.94,204.838 2043.96,230.78 2044.97,231.294 2045.99,174.008 2047,175.106 2048.02,163.752 2049.03,165.409 2050.05,201.398 2051.07,202.408 2052.08,203.62 2053.1,205.516 2054.11,168.752 2055.13,169.868 2056.15,163.168 2057.16,164.245 2058.18,163.567 2059.19,165.306 2060.21,181.003 2061.22,181.886 2062.24,181.524 2063.26,182.055 2064.27,174.336 2065.29,175.408 2066.3,214.53 2067.32,216.158 2068.33,194.807 2069.35,196.249 2070.37,200.15 2071.38,202.186 2072.4,162.916 2073.41,163.847 2074.43,213.838 2075.45,214.58 2076.46,218.835 2077.48,220.021 2078.49,152.865 2079.51,153.909 2080.52,135.853 2081.54,136.926 2082.56,187.881 2083.57,189.095 2084.59,194.171 2085.6,196.27 2086.62,156.257 2087.63,157.178 2088.65,231.084 2089.67,232.54 2090.68,192.211 2091.7,194.069 2092.71,170.167 2093.73,171.288 2094.75,232.757 2095.76,234.145 2096.78,226.891 2097.79,228.166 2098.81,266.066 2099.82,267.214 2100.84,185.49 2101.86,187.002 2102.87,200.961 2103.89,202.457 2104.9,200.922 2105.92,201.991 2106.93,177.064 2107.95,178.141 2108.97,176.269 2109.98,177.648 2111,171.244 2112.01,171.809 2113.03,181.388 2114.05,182.061 2115.06,176.646 2116.08,178.273 2117.09,198.013 2118.11,199.813 2119.12,181.531 2120.14,182.611 2121.16,182.541 2122.17,183.222 2123.19,175.282 2124.2,176.689 2125.22,199.843 2126.23,201.366 2127.25,165.05 2128.27,166.068 2129.28,137.097 2130.3,138.742 2131.31,210.684 2132.33,211.827 2133.35,131.4 2134.36,132.365 2135.38,159.198 2136.39,160.703 2137.41,136.135 2138.42,136.878 2139.44,181.506 2140.46,183.409 2141.47,156.947 2142.49,157.783 2143.5,197.475 2144.52,198.907 2145.53,139.249 2146.55,140.05 2147.57,155.756 2148.58,156.875 2149.6,183.021 2150.61,184.457 2151.63,121.593 2152.65,122.599 2153.66,176.96 2154.68,177.922 2155.69,191.345 2156.71,192.207 2157.72,181.454 2158.74,182.65 2159.76,162.807 2160.77,163.783 2161.79,170.459 2162.8,171.869 2163.82,175.089 2164.83,176.648 2165.85,179.228 2166.87,180.684 2167.88,165.922 2168.9,166.568 2169.91,164.731 2170.93,167.21 2171.95,142.395 2172.96,144.001 2173.98,198.996 2174.99,200.193 2176.01,192.663 2177.02,193.331 2178.04,194.556 2179.06,195.37 2180.07,166.54 2181.09,167.894 2182.1,188.703 2183.12,190.017 2184.13,163.882 2185.15,166.246 2186.17,199.511 2187.18,200.519 2188.2,166.448 2189.21,167.534 2190.23,225.953 2191.25,227.264 2192.26,216.703 2193.28,217.627 2194.29,191.118 2195.31,192.164 2196.32,191.523 2197.34,192.837 2198.36,160.759 2199.37,161.432 2200.39,136.579 2201.4,137.495 2202.42,145.666 2203.43,146.892 2204.45,154.611 2205.47,155.948 2206.48,146.614 2207.5,147.766 2208.51,157.809 2209.53,158.79 2210.55,159.968 2211.56,160.747 2212.58,192.833 2213.59,194.298 2214.61,186.825 2215.62,187.535 2216.64,159.341 2217.66,161.242 2218.67,130.008 2219.69,130.76 2220.7,168.894 2221.72,169.906 2222.73,197.818 2223.75,198.68 2224.77,207.597 2225.78,208.917 2226.8,181.48 2227.81,182.828 2228.83,195.357 2229.85,196.247 2230.86,135.157 2231.88,137.08 2232.89,185.875 2233.91,187.296 2234.92,196.338 2235.94,198.031 2236.96,163.58 2237.97,164.433 2238.99,212.772 2240,214.194 2241.02,187.277 2242.03,188.241 2243.05,177.607 2244.07,179.387 2245.08,143.69 2246.1,145.802 2247.11,175.085 2248.13,176.325 2249.15,151.511 2250.16,152.817 2251.18,181.122 2252.19,182.65 2253.21,182.37 2254.22,183.799 2255.24,170.089 2256.26,171.622 2257.27,156.244 2258.29,157.386 2259.3,180.607 2260.32,182.258 2261.33,163.393 2262.35,165.842 2263.37,157.499 2264.38,158.166 2265.4,147.438 2266.41,148.603 2267.43,164.328 2268.45,165.585 2269.46,176.861 2270.48,178.079 2271.49,162.187 2272.51,163.243 2273.52,194.307 2274.54,196.188 2275.56,215.191 2276.57,215.807 2277.59,217.384 2278.6,217.967 2279.62,180.586 2280.63,181.716 2281.65,167.929 2282.67,168.718 2283.68,192.233 2284.7,194.149 2285.71,194.26 2286.73,196.073 2287.75,216.47 2288.76,217.297 2289.78,215.876 2290.79,217.164 2291.81,216.255 "/>
<path clip-path="url(#clip000)" d="M2013.2 1438.47 L2280.97 1438.47 L2280.97 1334.79 L2013.2 1334.79  Z" fill="#ffffff" fill-rule="evenodd" fill-opacity="1"/>
<polyline clip-path="url(#clip000)" style="stroke:#000000; stroke-linecap:round; stroke-linejoin:round; stroke-width:4; stroke-opacity:1; fill:none" points="2013.2,1438.47 2280.97,1438.47 2280.97,1334.79 2013.2,1334.79 2013.2,1438.47 "/>
<polyline clip-path="url(#clip000)" style="stroke:#009af9; stroke-linecap:round; stroke-linejoin:round; stroke-width:4; stroke-opacity:1; fill:none" points="2037.12,1386.63 2180.69,1386.63 "/>
<path clip-path="url(#clip000)" d="M2218.46 1406.32 Q2216.65 1410.95 2214.94 1412.36 Q2213.23 1413.78 2210.36 1413.78 L2206.95 1413.78 L2206.95 1410.21 L2209.45 1410.21 Q2211.21 1410.21 2212.19 1409.38 Q2213.16 1408.54 2214.34 1405.44 L2215.1 1403.5 L2204.62 1377.99 L2209.13 1377.99 L2217.23 1398.27 L2225.33 1377.99 L2229.85 1377.99 L2218.46 1406.32 Z" fill="#000000" fill-rule="nonzero" fill-opacity="1" /><path clip-path="url(#clip000)" d="M2237.14 1399.98 L2244.78 1399.98 L2244.78 1373.61 L2236.47 1375.28 L2236.47 1371.02 L2244.73 1369.35 L2249.41 1369.35 L2249.41 1399.98 L2257.05 1399.98 L2257.05 1403.91 L2237.14 1403.91 L2237.14 1399.98 Z" fill="#000000" fill-rule="nonzero" fill-opacity="1" /></svg>
