<?xml version="1.0" encoding="utf-8"?>
<svg xmlns="http://www.w3.org/2000/svg" xmlns:xlink="http://www.w3.org/1999/xlink" width="600" height="400" viewBox="0 0 2400 1600">
<defs>
  <clipPath id="clip740">
    <rect x="0" y="0" width="2400" height="1600"/>
  </clipPath>
</defs>
<path clip-path="url(#clip740)" d="M0 1600 L2400 1600 L2400 0 L0 0  Z" fill="#ffffff" fill-rule="evenodd" fill-opacity="1"/>
<defs>
  <clipPath id="clip741">
    <rect x="480" y="0" width="1681" height="1600"/>
  </clipPath>
</defs>
<path clip-path="url(#clip740)" d="M209.029 1486.45 L2352.76 1486.45 L2352.76 47.2441 L209.029 47.2441  Z" fill="#ffffff" fill-rule="evenodd" fill-opacity="1"/>
<defs>
  <clipPath id="clip742">
    <rect x="209" y="47" width="2145" height="1440"/>
  </clipPath>
</defs>
<polyline clip-path="url(#clip742)" style="stroke:#000000; stroke-linecap:round; stroke-linejoin:round; stroke-width:2; stroke-opacity:0.1; fill:none" points="269.7,1486.45 269.7,47.2441 "/>
<polyline clip-path="url(#clip742)" style="stroke:#000000; stroke-linecap:round; stroke-linejoin:round; stroke-width:2; stroke-opacity:0.1; fill:none" points="674.987,1486.45 674.987,47.2441 "/>
<polyline clip-path="url(#clip742)" style="stroke:#000000; stroke-linecap:round; stroke-linejoin:round; stroke-width:2; stroke-opacity:0.1; fill:none" points="1080.27,1486.45 1080.27,47.2441 "/>
<polyline clip-path="url(#clip742)" style="stroke:#000000; stroke-linecap:round; stroke-linejoin:round; stroke-width:2; stroke-opacity:0.1; fill:none" points="1485.56,1486.45 1485.56,47.2441 "/>
<polyline clip-path="url(#clip742)" style="stroke:#000000; stroke-linecap:round; stroke-linejoin:round; stroke-width:2; stroke-opacity:0.1; fill:none" points="1890.85,1486.45 1890.85,47.2441 "/>
<polyline clip-path="url(#clip742)" style="stroke:#000000; stroke-linecap:round; stroke-linejoin:round; stroke-width:2; stroke-opacity:0.1; fill:none" points="2296.14,1486.45 2296.14,47.2441 "/>
<polyline clip-path="url(#clip740)" style="stroke:#000000; stroke-linecap:round; stroke-linejoin:round; stroke-width:4; stroke-opacity:1; fill:none" points="209.029,1486.45 2352.76,1486.45 "/>
<polyline clip-path="url(#clip740)" style="stroke:#000000; stroke-linecap:round; stroke-linejoin:round; stroke-width:4; stroke-opacity:1; fill:none" points="269.7,1486.45 269.7,1467.55 "/>
<polyline clip-path="url(#clip740)" style="stroke:#000000; stroke-linecap:round; stroke-linejoin:round; stroke-width:4; stroke-opacity:1; fill:none" points="674.987,1486.45 674.987,1467.55 "/>
<polyline clip-path="url(#clip740)" style="stroke:#000000; stroke-linecap:round; stroke-linejoin:round; stroke-width:4; stroke-opacity:1; fill:none" points="1080.27,1486.45 1080.27,1467.55 "/>
<polyline clip-path="url(#clip740)" style="stroke:#000000; stroke-linecap:round; stroke-linejoin:round; stroke-width:4; stroke-opacity:1; fill:none" points="1485.56,1486.45 1485.56,1467.55 "/>
<polyline clip-path="url(#clip740)" style="stroke:#000000; stroke-linecap:round; stroke-linejoin:round; stroke-width:4; stroke-opacity:1; fill:none" points="1890.85,1486.45 1890.85,1467.55 "/>
<polyline clip-path="url(#clip740)" style="stroke:#000000; stroke-linecap:round; stroke-linejoin:round; stroke-width:4; stroke-opacity:1; fill:none" points="2296.14,1486.45 2296.14,1467.55 "/>
<path clip-path="url(#clip740)" d="M269.7 1517.37 Q266.089 1517.37 264.26 1520.93 Q262.455 1524.47 262.455 1531.6 Q262.455 1538.71 264.26 1542.27 Q266.089 1545.82 269.7 1545.82 Q273.334 1545.82 275.14 1542.27 Q276.969 1538.71 276.969 1531.6 Q276.969 1524.47 275.14 1520.93 Q273.334 1517.37 269.7 1517.37 M269.7 1513.66 Q275.51 1513.66 278.566 1518.27 Q281.644 1522.85 281.644 1531.6 Q281.644 1540.33 278.566 1544.94 Q275.51 1549.52 269.7 1549.52 Q263.89 1549.52 260.811 1544.94 Q257.756 1540.33 257.756 1531.6 Q257.756 1522.85 260.811 1518.27 Q263.89 1513.66 269.7 1513.66 Z" fill="#000000" fill-rule="nonzero" fill-opacity="1" /><path clip-path="url(#clip740)" d="M634.594 1544.91 L642.233 1544.91 L642.233 1518.55 L633.923 1520.21 L633.923 1515.95 L642.187 1514.29 L646.863 1514.29 L646.863 1544.91 L654.501 1544.91 L654.501 1548.85 L634.594 1548.85 L634.594 1544.91 Z" fill="#000000" fill-rule="nonzero" fill-opacity="1" /><path clip-path="url(#clip740)" d="M673.946 1517.37 Q670.335 1517.37 668.506 1520.93 Q666.7 1524.47 666.7 1531.6 Q666.7 1538.71 668.506 1542.27 Q670.335 1545.82 673.946 1545.82 Q677.58 1545.82 679.386 1542.27 Q681.214 1538.71 681.214 1531.6 Q681.214 1524.47 679.386 1520.93 Q677.58 1517.37 673.946 1517.37 M673.946 1513.66 Q679.756 1513.66 682.812 1518.27 Q685.89 1522.85 685.89 1531.6 Q685.89 1540.33 682.812 1544.94 Q679.756 1549.52 673.946 1549.52 Q668.136 1549.52 665.057 1544.94 Q662.001 1540.33 662.001 1531.6 Q662.001 1522.85 665.057 1518.27 Q668.136 1513.66 673.946 1513.66 Z" fill="#000000" fill-rule="nonzero" fill-opacity="1" /><path clip-path="url(#clip740)" d="M704.108 1517.37 Q700.497 1517.37 698.668 1520.93 Q696.862 1524.47 696.862 1531.6 Q696.862 1538.71 698.668 1542.27 Q700.497 1545.82 704.108 1545.82 Q707.742 1545.82 709.547 1542.27 Q711.376 1538.71 711.376 1531.6 Q711.376 1524.47 709.547 1520.93 Q707.742 1517.37 704.108 1517.37 M704.108 1513.66 Q709.918 1513.66 712.973 1518.27 Q716.052 1522.85 716.052 1531.6 Q716.052 1540.33 712.973 1544.94 Q709.918 1549.52 704.108 1549.52 Q698.298 1549.52 695.219 1544.94 Q692.163 1540.33 692.163 1531.6 Q692.163 1522.85 695.219 1518.27 Q698.298 1513.66 704.108 1513.66 Z" fill="#000000" fill-rule="nonzero" fill-opacity="1" /><path clip-path="url(#clip740)" d="M1043.97 1544.91 L1060.29 1544.91 L1060.29 1548.85 L1038.34 1548.85 L1038.34 1544.91 Q1041 1542.16 1045.59 1537.53 Q1050.19 1532.88 1051.37 1531.53 Q1053.62 1529.01 1054.5 1527.27 Q1055.4 1525.51 1055.4 1523.82 Q1055.4 1521.07 1053.46 1519.33 Q1051.54 1517.6 1048.43 1517.6 Q1046.24 1517.6 1043.78 1518.36 Q1041.35 1519.13 1038.57 1520.68 L1038.57 1515.95 Q1041.4 1514.82 1043.85 1514.24 Q1046.31 1513.66 1048.34 1513.66 Q1053.71 1513.66 1056.91 1516.35 Q1060.1 1519.03 1060.1 1523.52 Q1060.1 1525.65 1059.29 1527.57 Q1058.5 1529.47 1056.4 1532.07 Q1055.82 1532.74 1052.72 1535.95 Q1049.62 1539.15 1043.97 1544.91 Z" fill="#000000" fill-rule="nonzero" fill-opacity="1" /><path clip-path="url(#clip740)" d="M1080.1 1517.37 Q1076.49 1517.37 1074.66 1520.93 Q1072.86 1524.47 1072.86 1531.6 Q1072.86 1538.71 1074.66 1542.27 Q1076.49 1545.82 1080.1 1545.82 Q1083.74 1545.82 1085.54 1542.27 Q1087.37 1538.71 1087.37 1531.6 Q1087.37 1524.47 1085.54 1520.93 Q1083.74 1517.37 1080.1 1517.37 M1080.1 1513.66 Q1085.91 1513.66 1088.97 1518.27 Q1092.05 1522.85 1092.05 1531.6 Q1092.05 1540.33 1088.97 1544.94 Q1085.91 1549.52 1080.1 1549.52 Q1074.29 1549.52 1071.21 1544.94 Q1068.16 1540.33 1068.16 1531.6 Q1068.16 1522.85 1071.21 1518.27 Q1074.29 1513.66 1080.1 1513.66 Z" fill="#000000" fill-rule="nonzero" fill-opacity="1" /><path clip-path="url(#clip740)" d="M1110.26 1517.37 Q1106.65 1517.37 1104.82 1520.93 Q1103.02 1524.47 1103.02 1531.6 Q1103.02 1538.71 1104.82 1542.27 Q1106.65 1545.82 1110.26 1545.82 Q1113.9 1545.82 1115.7 1542.27 Q1117.53 1538.71 1117.53 1531.6 Q1117.53 1524.47 1115.7 1520.93 Q1113.9 1517.37 1110.26 1517.37 M1110.26 1513.66 Q1116.07 1513.66 1119.13 1518.27 Q1122.21 1522.85 1122.21 1531.6 Q1122.21 1540.33 1119.13 1544.94 Q1116.07 1549.52 1110.26 1549.52 Q1104.45 1549.52 1101.37 1544.94 Q1098.32 1540.33 1098.32 1531.6 Q1098.32 1522.85 1101.37 1518.27 Q1104.45 1513.66 1110.26 1513.66 Z" fill="#000000" fill-rule="nonzero" fill-opacity="1" /><path clip-path="url(#clip740)" d="M1459.32 1530.21 Q1462.68 1530.93 1464.56 1533.2 Q1466.45 1535.47 1466.45 1538.8 Q1466.45 1543.92 1462.94 1546.72 Q1459.42 1549.52 1452.94 1549.52 Q1450.76 1549.52 1448.44 1549.08 Q1446.15 1548.66 1443.7 1547.81 L1443.7 1543.29 Q1445.64 1544.43 1447.96 1545.01 Q1450.27 1545.58 1452.8 1545.58 Q1457.19 1545.58 1459.49 1543.85 Q1461.8 1542.11 1461.8 1538.8 Q1461.8 1535.75 1459.65 1534.03 Q1457.52 1532.3 1453.7 1532.3 L1449.67 1532.3 L1449.67 1528.45 L1453.88 1528.45 Q1457.33 1528.45 1459.16 1527.09 Q1460.99 1525.7 1460.99 1523.11 Q1460.99 1520.45 1459.09 1519.03 Q1457.22 1517.6 1453.7 1517.6 Q1451.78 1517.6 1449.58 1518.01 Q1447.38 1518.43 1444.74 1519.31 L1444.74 1515.14 Q1447.4 1514.4 1449.72 1514.03 Q1452.06 1513.66 1454.12 1513.66 Q1459.44 1513.66 1462.54 1516.09 Q1465.64 1518.5 1465.64 1522.62 Q1465.64 1525.49 1464 1527.48 Q1462.36 1529.45 1459.32 1530.21 Z" fill="#000000" fill-rule="nonzero" fill-opacity="1" /><path clip-path="url(#clip740)" d="M1485.32 1517.37 Q1481.71 1517.37 1479.88 1520.93 Q1478.07 1524.47 1478.07 1531.6 Q1478.07 1538.71 1479.88 1542.27 Q1481.71 1545.82 1485.32 1545.82 Q1488.95 1545.82 1490.76 1542.27 Q1492.59 1538.71 1492.59 1531.6 Q1492.59 1524.47 1490.76 1520.93 Q1488.95 1517.37 1485.32 1517.37 M1485.32 1513.66 Q1491.13 1513.66 1494.19 1518.27 Q1497.26 1522.85 1497.26 1531.6 Q1497.26 1540.33 1494.19 1544.94 Q1491.13 1549.52 1485.32 1549.52 Q1479.51 1549.52 1476.43 1544.94 Q1473.37 1540.33 1473.37 1531.6 Q1473.37 1522.85 1476.43 1518.27 Q1479.51 1513.66 1485.32 1513.66 Z" fill="#000000" fill-rule="nonzero" fill-opacity="1" /><path clip-path="url(#clip740)" d="M1515.48 1517.37 Q1511.87 1517.37 1510.04 1520.93 Q1508.24 1524.47 1508.24 1531.6 Q1508.24 1538.71 1510.04 1542.27 Q1511.87 1545.82 1515.48 1545.82 Q1519.12 1545.82 1520.92 1542.27 Q1522.75 1538.71 1522.75 1531.6 Q1522.75 1524.47 1520.92 1520.93 Q1519.12 1517.37 1515.48 1517.37 M1515.48 1513.66 Q1521.29 1513.66 1524.35 1518.27 Q1527.43 1522.85 1527.43 1531.6 Q1527.43 1540.33 1524.35 1544.94 Q1521.29 1549.52 1515.48 1549.52 Q1509.67 1549.52 1506.59 1544.94 Q1503.54 1540.33 1503.54 1531.6 Q1503.54 1522.85 1506.59 1518.27 Q1509.67 1513.66 1515.48 1513.66 Z" fill="#000000" fill-rule="nonzero" fill-opacity="1" /><path clip-path="url(#clip740)" d="M1863.94 1518.36 L1852.13 1536.81 L1863.94 1536.81 L1863.94 1518.36 M1862.71 1514.29 L1868.59 1514.29 L1868.59 1536.81 L1873.52 1536.81 L1873.52 1540.7 L1868.59 1540.7 L1868.59 1548.85 L1863.94 1548.85 L1863.94 1540.7 L1848.34 1540.7 L1848.34 1536.19 L1862.71 1514.29 Z" fill="#000000" fill-rule="nonzero" fill-opacity="1" /><path clip-path="url(#clip740)" d="M1891.25 1517.37 Q1887.64 1517.37 1885.82 1520.93 Q1884.01 1524.47 1884.01 1531.6 Q1884.01 1538.71 1885.82 1542.27 Q1887.64 1545.82 1891.25 1545.82 Q1894.89 1545.82 1896.69 1542.27 Q1898.52 1538.71 1898.52 1531.6 Q1898.52 1524.47 1896.69 1520.93 Q1894.89 1517.37 1891.25 1517.37 M1891.25 1513.66 Q1897.07 1513.66 1900.12 1518.27 Q1903.2 1522.85 1903.2 1531.6 Q1903.2 1540.33 1900.12 1544.94 Q1897.07 1549.52 1891.25 1549.52 Q1885.44 1549.52 1882.37 1544.94 Q1879.31 1540.33 1879.31 1531.6 Q1879.31 1522.85 1882.37 1518.27 Q1885.44 1513.66 1891.25 1513.66 Z" fill="#000000" fill-rule="nonzero" fill-opacity="1" /><path clip-path="url(#clip740)" d="M1921.42 1517.37 Q1917.81 1517.37 1915.98 1520.93 Q1914.17 1524.47 1914.17 1531.6 Q1914.17 1538.71 1915.98 1542.27 Q1917.81 1545.82 1921.42 1545.82 Q1925.05 1545.82 1926.86 1542.27 Q1928.69 1538.71 1928.69 1531.6 Q1928.69 1524.47 1926.86 1520.93 Q1925.05 1517.37 1921.42 1517.37 M1921.42 1513.66 Q1927.23 1513.66 1930.28 1518.27 Q1933.36 1522.85 1933.36 1531.6 Q1933.36 1540.33 1930.28 1544.94 Q1927.23 1549.52 1921.42 1549.52 Q1915.61 1549.52 1912.53 1544.94 Q1909.47 1540.33 1909.47 1531.6 Q1909.47 1522.85 1912.53 1518.27 Q1915.61 1513.66 1921.42 1513.66 Z" fill="#000000" fill-rule="nonzero" fill-opacity="1" /><path clip-path="url(#clip740)" d="M2255.76 1514.29 L2274.11 1514.29 L2274.11 1518.22 L2260.04 1518.22 L2260.04 1526.7 Q2261.06 1526.35 2262.07 1526.19 Q2263.09 1526 2264.11 1526 Q2269.9 1526 2273.28 1529.17 Q2276.66 1532.34 2276.66 1537.76 Q2276.66 1543.34 2273.19 1546.44 Q2269.71 1549.52 2263.39 1549.52 Q2261.22 1549.52 2258.95 1549.15 Q2256.7 1548.78 2254.3 1548.04 L2254.3 1543.34 Q2256.38 1544.47 2258.6 1545.03 Q2260.82 1545.58 2263.3 1545.58 Q2267.31 1545.58 2269.64 1543.48 Q2271.98 1541.37 2271.98 1537.76 Q2271.98 1534.15 2269.64 1532.04 Q2267.31 1529.94 2263.3 1529.94 Q2261.43 1529.94 2259.55 1530.35 Q2257.7 1530.77 2255.76 1531.65 L2255.76 1514.29 Z" fill="#000000" fill-rule="nonzero" fill-opacity="1" /><path clip-path="url(#clip740)" d="M2295.87 1517.37 Q2292.26 1517.37 2290.43 1520.93 Q2288.63 1524.47 2288.63 1531.6 Q2288.63 1538.71 2290.43 1542.27 Q2292.26 1545.82 2295.87 1545.82 Q2299.51 1545.82 2301.31 1542.27 Q2303.14 1538.71 2303.14 1531.6 Q2303.14 1524.47 2301.31 1520.93 Q2299.51 1517.37 2295.87 1517.37 M2295.87 1513.66 Q2301.68 1513.66 2304.74 1518.27 Q2307.82 1522.85 2307.82 1531.6 Q2307.82 1540.33 2304.74 1544.94 Q2301.68 1549.52 2295.87 1549.52 Q2290.06 1549.52 2286.98 1544.94 Q2283.93 1540.33 2283.93 1531.6 Q2283.93 1522.85 2286.98 1518.27 Q2290.06 1513.66 2295.87 1513.66 Z" fill="#000000" fill-rule="nonzero" fill-opacity="1" /><path clip-path="url(#clip740)" d="M2326.03 1517.37 Q2322.42 1517.37 2320.59 1520.93 Q2318.79 1524.47 2318.79 1531.6 Q2318.79 1538.71 2320.59 1542.27 Q2322.42 1545.82 2326.03 1545.82 Q2329.67 1545.82 2331.47 1542.27 Q2333.3 1538.71 2333.3 1531.6 Q2333.3 1524.47 2331.47 1520.93 Q2329.67 1517.37 2326.03 1517.37 M2326.03 1513.66 Q2331.84 1513.66 2334.9 1518.27 Q2337.98 1522.85 2337.98 1531.6 Q2337.98 1540.33 2334.9 1544.94 Q2331.84 1549.52 2326.03 1549.52 Q2320.22 1549.52 2317.14 1544.94 Q2314.09 1540.33 2314.09 1531.6 Q2314.09 1522.85 2317.14 1518.27 Q2320.22 1513.66 2326.03 1513.66 Z" fill="#000000" fill-rule="nonzero" fill-opacity="1" /><polyline clip-path="url(#clip742)" style="stroke:#000000; stroke-linecap:round; stroke-linejoin:round; stroke-width:2; stroke-opacity:0.1; fill:none" points="209.029,1253.37 2352.76,1253.37 "/>
<polyline clip-path="url(#clip742)" style="stroke:#000000; stroke-linecap:round; stroke-linejoin:round; stroke-width:2; stroke-opacity:0.1; fill:none" points="209.029,872.634 2352.76,872.634 "/>
<polyline clip-path="url(#clip742)" style="stroke:#000000; stroke-linecap:round; stroke-linejoin:round; stroke-width:2; stroke-opacity:0.1; fill:none" points="209.029,491.897 2352.76,491.897 "/>
<polyline clip-path="url(#clip742)" style="stroke:#000000; stroke-linecap:round; stroke-linejoin:round; stroke-width:2; stroke-opacity:0.1; fill:none" points="209.029,111.159 2352.76,111.159 "/>
<polyline clip-path="url(#clip740)" style="stroke:#000000; stroke-linecap:round; stroke-linejoin:round; stroke-width:4; stroke-opacity:1; fill:none" points="209.029,1486.45 209.029,47.2441 "/>
<polyline clip-path="url(#clip740)" style="stroke:#000000; stroke-linecap:round; stroke-linejoin:round; stroke-width:4; stroke-opacity:1; fill:none" points="209.029,1253.37 227.926,1253.37 "/>
<polyline clip-path="url(#clip740)" style="stroke:#000000; stroke-linecap:round; stroke-linejoin:round; stroke-width:4; stroke-opacity:1; fill:none" points="209.029,872.634 227.926,872.634 "/>
<polyline clip-path="url(#clip740)" style="stroke:#000000; stroke-linecap:round; stroke-linejoin:round; stroke-width:4; stroke-opacity:1; fill:none" points="209.029,491.897 227.926,491.897 "/>
<polyline clip-path="url(#clip740)" style="stroke:#000000; stroke-linecap:round; stroke-linejoin:round; stroke-width:4; stroke-opacity:1; fill:none" points="209.029,111.159 227.926,111.159 "/>
<path clip-path="url(#clip740)" d="M50.9921 1253.82 L80.6679 1253.82 L80.6679 1257.76 L50.9921 1257.76 L50.9921 1253.82 Z" fill="#000000" fill-rule="nonzero" fill-opacity="1" /><path clip-path="url(#clip740)" d="M94.7882 1266.72 L111.108 1266.72 L111.108 1270.65 L89.1632 1270.65 L89.1632 1266.72 Q91.8252 1263.96 96.4085 1259.33 Q101.015 1254.68 102.196 1253.34 Q104.441 1250.81 105.321 1249.08 Q106.223 1247.32 106.223 1245.63 Q106.223 1242.87 104.279 1241.14 Q102.358 1239.4 99.2558 1239.4 Q97.0567 1239.4 94.603 1240.17 Q92.1725 1240.93 89.3947 1242.48 L89.3947 1237.76 Q92.2188 1236.62 94.6724 1236.05 Q97.1261 1235.47 99.1632 1235.47 Q104.534 1235.47 107.728 1238.15 Q110.922 1240.84 110.922 1245.33 Q110.922 1247.46 110.112 1249.38 Q109.325 1251.28 107.219 1253.87 Q106.64 1254.54 103.538 1257.76 Q100.436 1260.95 94.7882 1266.72 Z" fill="#000000" fill-rule="nonzero" fill-opacity="1" /><path clip-path="url(#clip740)" d="M130.922 1239.17 Q127.311 1239.17 125.482 1242.73 Q123.677 1246.28 123.677 1253.41 Q123.677 1260.51 125.482 1264.08 Q127.311 1267.62 130.922 1267.62 Q134.556 1267.62 136.362 1264.08 Q138.191 1260.51 138.191 1253.41 Q138.191 1246.28 136.362 1242.73 Q134.556 1239.17 130.922 1239.17 M130.922 1235.47 Q136.732 1235.47 139.788 1240.07 Q142.867 1244.66 142.867 1253.41 Q142.867 1262.13 139.788 1266.74 Q136.732 1271.32 130.922 1271.32 Q125.112 1271.32 122.033 1266.74 Q118.978 1262.13 118.978 1253.41 Q118.978 1244.66 122.033 1240.07 Q125.112 1235.47 130.922 1235.47 Z" fill="#000000" fill-rule="nonzero" fill-opacity="1" /><path clip-path="url(#clip740)" d="M161.084 1239.17 Q157.473 1239.17 155.644 1242.73 Q153.839 1246.28 153.839 1253.41 Q153.839 1260.51 155.644 1264.08 Q157.473 1267.62 161.084 1267.62 Q164.718 1267.62 166.524 1264.08 Q168.353 1260.51 168.353 1253.41 Q168.353 1246.28 166.524 1242.73 Q164.718 1239.17 161.084 1239.17 M161.084 1235.47 Q166.894 1235.47 169.95 1240.07 Q173.029 1244.66 173.029 1253.41 Q173.029 1262.13 169.95 1266.74 Q166.894 1271.32 161.084 1271.32 Q155.274 1271.32 152.195 1266.74 Q149.14 1262.13 149.14 1253.41 Q149.14 1244.66 152.195 1240.07 Q155.274 1235.47 161.084 1235.47 Z" fill="#000000" fill-rule="nonzero" fill-opacity="1" /><path clip-path="url(#clip740)" d="M50.9921 873.085 L80.6679 873.085 L80.6679 877.021 L50.9921 877.021 L50.9921 873.085 Z" fill="#000000" fill-rule="nonzero" fill-opacity="1" /><path clip-path="url(#clip740)" d="M91.5706 885.979 L99.2095 885.979 L99.2095 859.613 L90.8993 861.28 L90.8993 857.021 L99.1632 855.354 L103.839 855.354 L103.839 885.979 L111.478 885.979 L111.478 889.914 L91.5706 889.914 L91.5706 885.979 Z" fill="#000000" fill-rule="nonzero" fill-opacity="1" /><path clip-path="url(#clip740)" d="M120.969 855.354 L139.325 855.354 L139.325 859.289 L125.251 859.289 L125.251 867.761 Q126.27 867.414 127.288 867.252 Q128.307 867.067 129.325 867.067 Q135.112 867.067 138.492 870.238 Q141.871 873.409 141.871 878.826 Q141.871 884.405 138.399 887.507 Q134.927 890.585 128.607 890.585 Q126.432 890.585 124.163 890.215 Q121.918 889.845 119.51 889.104 L119.51 884.405 Q121.594 885.539 123.816 886.095 Q126.038 886.65 128.515 886.65 Q132.519 886.65 134.857 884.544 Q137.195 882.437 137.195 878.826 Q137.195 875.215 134.857 873.109 Q132.519 871.002 128.515 871.002 Q126.64 871.002 124.765 871.419 Q122.913 871.835 120.969 872.715 L120.969 855.354 Z" fill="#000000" fill-rule="nonzero" fill-opacity="1" /><path clip-path="url(#clip740)" d="M161.084 858.433 Q157.473 858.433 155.644 861.997 Q153.839 865.539 153.839 872.669 Q153.839 879.775 155.644 883.34 Q157.473 886.882 161.084 886.882 Q164.718 886.882 166.524 883.34 Q168.353 879.775 168.353 872.669 Q168.353 865.539 166.524 861.997 Q164.718 858.433 161.084 858.433 M161.084 854.729 Q166.894 854.729 169.95 859.335 Q173.029 863.919 173.029 872.669 Q173.029 881.396 169.95 886.002 Q166.894 890.585 161.084 890.585 Q155.274 890.585 152.195 886.002 Q149.14 881.396 149.14 872.669 Q149.14 863.919 152.195 859.335 Q155.274 854.729 161.084 854.729 Z" fill="#000000" fill-rule="nonzero" fill-opacity="1" /><path clip-path="url(#clip740)" d="M50.9921 492.348 L80.6679 492.348 L80.6679 496.283 L50.9921 496.283 L50.9921 492.348 Z" fill="#000000" fill-rule="nonzero" fill-opacity="1" /><path clip-path="url(#clip740)" d="M91.5706 505.241 L99.2095 505.241 L99.2095 478.876 L90.8993 480.543 L90.8993 476.283 L99.1632 474.617 L103.839 474.617 L103.839 505.241 L111.478 505.241 L111.478 509.177 L91.5706 509.177 L91.5706 505.241 Z" fill="#000000" fill-rule="nonzero" fill-opacity="1" /><path clip-path="url(#clip740)" d="M130.922 477.695 Q127.311 477.695 125.482 481.26 Q123.677 484.802 123.677 491.931 Q123.677 499.038 125.482 502.603 Q127.311 506.144 130.922 506.144 Q134.556 506.144 136.362 502.603 Q138.191 499.038 138.191 491.931 Q138.191 484.802 136.362 481.26 Q134.556 477.695 130.922 477.695 M130.922 473.992 Q136.732 473.992 139.788 478.598 Q142.867 483.181 142.867 491.931 Q142.867 500.658 139.788 505.265 Q136.732 509.848 130.922 509.848 Q125.112 509.848 122.033 505.265 Q118.978 500.658 118.978 491.931 Q118.978 483.181 122.033 478.598 Q125.112 473.992 130.922 473.992 Z" fill="#000000" fill-rule="nonzero" fill-opacity="1" /><path clip-path="url(#clip740)" d="M161.084 477.695 Q157.473 477.695 155.644 481.26 Q153.839 484.802 153.839 491.931 Q153.839 499.038 155.644 502.603 Q157.473 506.144 161.084 506.144 Q164.718 506.144 166.524 502.603 Q168.353 499.038 168.353 491.931 Q168.353 484.802 166.524 481.26 Q164.718 477.695 161.084 477.695 M161.084 473.992 Q166.894 473.992 169.95 478.598 Q173.029 483.181 173.029 491.931 Q173.029 500.658 169.95 505.265 Q166.894 509.848 161.084 509.848 Q155.274 509.848 152.195 505.265 Q149.14 500.658 149.14 491.931 Q149.14 483.181 152.195 478.598 Q155.274 473.992 161.084 473.992 Z" fill="#000000" fill-rule="nonzero" fill-opacity="1" /><path clip-path="url(#clip740)" d="M81.154 111.611 L110.83 111.611 L110.83 115.546 L81.154 115.546 L81.154 111.611 Z" fill="#000000" fill-rule="nonzero" fill-opacity="1" /><path clip-path="url(#clip740)" d="M120.969 93.8793 L139.325 93.8793 L139.325 97.8145 L125.251 97.8145 L125.251 106.287 Q126.27 105.939 127.288 105.777 Q128.307 105.592 129.325 105.592 Q135.112 105.592 138.492 108.764 Q141.871 111.935 141.871 117.351 Q141.871 122.93 138.399 126.032 Q134.927 129.111 128.607 129.111 Q126.432 129.111 124.163 128.74 Q121.918 128.37 119.51 127.629 L119.51 122.93 Q121.594 124.064 123.816 124.62 Q126.038 125.175 128.515 125.175 Q132.519 125.175 134.857 123.069 Q137.195 120.963 137.195 117.351 Q137.195 113.74 134.857 111.634 Q132.519 109.527 128.515 109.527 Q126.64 109.527 124.765 109.944 Q122.913 110.361 120.969 111.24 L120.969 93.8793 Z" fill="#000000" fill-rule="nonzero" fill-opacity="1" /><path clip-path="url(#clip740)" d="M161.084 96.958 Q157.473 96.958 155.644 100.523 Q153.839 104.064 153.839 111.194 Q153.839 118.3 155.644 121.865 Q157.473 125.407 161.084 125.407 Q164.718 125.407 166.524 121.865 Q168.353 118.3 168.353 111.194 Q168.353 104.064 166.524 100.523 Q164.718 96.958 161.084 96.958 M161.084 93.2543 Q166.894 93.2543 169.95 97.8608 Q173.029 102.444 173.029 111.194 Q173.029 119.921 169.95 124.527 Q166.894 129.111 161.084 129.111 Q155.274 129.111 152.195 124.527 Q149.14 119.921 149.14 111.194 Q149.14 102.444 152.195 97.8608 Q155.274 93.2543 161.084 93.2543 Z" fill="#000000" fill-rule="nonzero" fill-opacity="1" /><polyline clip-path="url(#clip742)" style="stroke:#009af9; stroke-linecap:round; stroke-linejoin:round; stroke-width:4; stroke-opacity:1; fill:none" points="269.7,173.786 273.753,172.44 277.806,171.112 281.859,169.802 285.912,168.509 289.964,101.043 294.017,99.881 298.07,98.7356 302.123,97.6066 306.176,96.4937 310.229,92.2426 314.282,91.1564 318.335,90.0834 322.387,89.0235 326.44,87.9763 330.493,321.539 334.546,319.518 338.599,317.526 342.652,315.561 346.705,313.623 350.758,420.536 354.81,417.645 358.863,414.837 362.916,412.106 366.969,409.448 371.022,106.99 375.075,106.038 379.128,105.095 383.181,104.163 387.233,103.241 391.286,443.335 395.339,441.299 399.392,439.298 403.445,437.33 407.498,435.395 411.551,485.764 415.604,483.224 419.656,480.732 423.709,478.286 427.762,475.885 431.815,331.953 435.868,329.423 439.921,326.94 443.974,324.502 448.027,322.11 452.079,484.968 456.132,482.982 460.185,481.032 464.238,479.118 468.291,477.238 472.344,423.243 476.397,420.985 480.45,418.765 484.502,416.582 488.555,414.434 492.608,282.819 496.661,281.22 500.714,279.646 504.767,278.097 508.82,276.573 512.873,300.375 516.925,298.902 520.978,297.454 525.031,296.03 529.084,294.63 533.137,495.459 537.19,493.436 541.243,491.452 545.295,489.505 549.348,487.594 553.401,630.052 557.454,626.541 561.507,623.135 565.56,619.828 569.613,616.617 573.666,491.619 577.718,489.829 581.771,488.073 585.824,486.35 589.877,484.66 593.93,261.996 597.983,260.663 602.036,259.349 606.089,258.054 610.141,256.778 614.194,250.008 618.247,248.723 622.3,247.46 626.353,246.218 630.406,244.998 634.459,483.669 638.512,481.542 642.564,479.456 646.617,477.41 650.67,475.402 654.723,530.891 658.776,528.527 662.829,526.23 666.882,523.997 670.935,521.827 674.987,366.895 679.04,365.807 683.093,364.736 687.146,363.684 691.199,362.649 695.252,422.767 699.305,421.804 703.358,420.854 707.41,419.917 711.463,418.994 715.516,366.711 719.569,365.631 723.622,364.566 727.675,363.517 731.728,362.482 735.781,444.703 739.833,443.236 743.886,441.798 747.939,440.388 751.992,439.005 756.045,334.299 760.098,333.037 764.151,331.808 768.204,330.61 772.256,329.443 776.309,531.945 780.362,530.517 784.415,529.12 788.468,527.753 792.521,526.416 796.574,377.867 800.627,376.794 804.679,375.738 808.732,374.698 812.785,373.673 816.838,737.987 820.891,736.528 824.944,735.1 828.997,733.703 833.05,732.503 837.102,517.254 841.155,516.03 845.208,514.831 849.261,513.778 853.314,512.796 857.367,607.836 861.42,605.992 865.473,604.186 869.525,602.418 873.578,600.686 877.631,694.311 881.684,692.894 885.737,691.511 889.79,690.16 893.843,688.841 897.896,330.893 901.948,329.801 906.001,328.732 910.054,327.683 914.107,326.654 918.16,467.988 922.213,467.165 926.266,466.355 930.319,465.557 934.371,464.772 938.424,592.189 942.477,590.624 946.53,589.098 950.583,587.611 954.636,586.16 958.689,492.04 962.742,490.955 966.794,489.894 970.847,488.857 974.9,487.842 978.953,996.801 983.006,993.627 987.059,990.584 991.112,987.665 995.165,984.864 999.217,676.031 1003.27,674.83 1007.32,673.658 1011.38,672.516 1015.43,671.401 1019.48,651.731 1023.53,650.823 1027.59,649.932 1031.64,649.057 1035.69,648.199 1039.75,624.774 1043.8,623.858 1047.85,622.957 1051.9,622.071 1055.96,621.199 1060.01,483.659 1064.06,482.06 1068.12,480.5 1072.17,478.978 1076.22,477.493 1080.27,720.159 1084.33,718.385 1088.38,716.674 1092.43,715.02 1096.49,713.422 1100.54,599.817 1104.59,598.99 1108.65,598.189 1112.7,597.414 1116.75,596.662 1120.8,428.83 1124.86,428.195 1128.91,427.567 1132.96,426.946 1137.02,426.332 1141.07,661.279 1145.12,660.022 1149.17,658.786 1153.23,657.57 1157.28,656.375 1161.33,905.391 1165.39,903.928 1169.44,902.51 1173.49,901.138 1177.54,899.81 1181.6,517.004 1185.65,515.659 1189.7,514.338 1193.76,513.04 1197.81,511.765 1201.86,565.691 1205.91,565.146 1209.97,564.607 1214.02,564.074 1218.07,563.547 1222.13,699.198 1226.18,697.71 1230.23,696.264 1234.28,694.858 1238.34,693.491 1242.39,1045.92 1246.44,1043.56 1250.5,1041.26 1254.55,1039.04 1258.6,1036.87 1262.65,600.996 1266.71,600.15 1270.76,599.321 1274.81,598.507 1278.87,597.708 1282.92,674.857 1286.97,672.932 1291.02,671.064 1295.08,669.249 1299.13,667.486 1303.18,634.14 1307.24,632.808 1311.29,631.508 1315.34,630.237 1319.39,628.995 1323.45,494.21 1327.5,492.884 1331.55,491.582 1335.61,490.305 1339.66,489.051 1343.71,890.63 1347.76,888.761 1351.82,886.95 1355.87,885.196 1359.92,883.495 1363.98,691.717 1368.03,690.103 1372.08,688.528 1376.13,686.991 1380.19,685.489 1384.24,798.5 1388.29,797.023 1392.35,795.57 1396.4,794.14 1400.45,792.732 1404.5,990.806 1408.56,989.956 1412.61,989.126 1416.66,988.314 1420.72,987.522 1424.77,1002.93 1428.82,1000.72 1432.87,998.584 1436.93,996.515 1440.98,994.511 1445.03,841.602 1449.09,839.376 1453.14,837.228 1457.19,835.152 1461.25,833.147 1465.3,881.93 1469.35,880.173 1473.4,878.483 1477.46,876.855 1481.51,875.287 1485.56,1012.79 1489.62,1011.59 1493.67,1010.42 1497.72,1009.28 1501.77,1008.16 1505.83,837.486 1509.88,836.531 1513.93,835.596 1517.99,834.68 1522.04,833.785 1526.09,920.695 1530.14,919.685 1534.2,918.712 1538.25,917.808 1542.3,916.931 1546.36,834.862 1550.41,833.377 1554.46,831.917 1558.51,830.481 1562.57,829.07 1566.62,769.754 1570.67,768.371 1574.73,767.013 1578.78,765.682 1582.83,764.375 1586.88,971.229 1590.94,969.638 1594.99,968.087 1599.04,966.575 1603.1,965.1 1607.15,826.057 1611.2,824.016 1615.25,822.04 1619.31,820.125 1623.36,818.268 1627.41,929.786 1631.47,926.38 1635.52,923.112 1639.57,919.972 1643.62,916.955 1647.68,872.697 1651.73,871.19 1655.78,869.762 1659.84,868.387 1663.89,867.054 1667.94,1015.52 1671.99,1012.73 1676.05,1010.03 1680.1,1007.43 1684.15,1004.93 1688.21,980.409 1692.26,979.201 1696.31,978.028 1700.36,976.889 1704.42,975.783 1708.47,1007.49 1712.52,1004.78 1716.58,1002.14 1720.63,999.558 1724.68,997.038 1728.73,640.434 1732.79,639.1 1736.84,637.803 1740.89,636.542 1744.95,635.315 1749,1133.1 1753.05,1130.54 1757.1,1128.08 1761.16,1125.71 1765.21,1123.43 1769.26,1137.66 1773.32,1134.9 1777.37,1132.26 1781.42,1129.74 1785.48,1127.33 1789.53,1315.11 1793.58,1312.71 1797.63,1310.41 1801.69,1308.21 1805.74,1306.08 1809.79,840.447 1813.85,839.234 1817.9,838.047 1821.95,836.886 1826,835.75 1830.06,1129.85 1834.11,1126.24 1838.16,1122.78 1842.22,1119.47 1846.27,1116.33 1850.32,1403.93 1854.37,1402.02 1858.43,1400.18 1862.48,1398.41 1866.53,1396.69 1870.59,1005.53 1874.64,1003.71 1878.69,1001.97 1882.74,1000.31 1886.8,998.728 1890.85,871.469 1894.9,870.39 1898.96,869.339 1903.01,868.314 1907.06,867.315 1911.11,1179.3 1915.17,1177.58 1919.22,1175.92 1923.27,1174.31 1927.33,1172.75 1931.38,849.7 1935.43,848.05 1939.48,846.434 1943.54,844.852 1947.59,843.301 1951.64,856.206 1955.7,854.772 1959.75,853.372 1963.8,852.005 1967.85,850.671 1971.91,829.877 1975.96,828.354 1980.01,826.866 1984.07,825.412 1988.12,823.991 1992.17,1248.34 1996.22,1245.64 2000.28,1243.02 2004.33,1240.48 2008.38,1238.03 2012.44,1445.72 2016.49,1440.93 2020.54,1436.42 2024.59,1432.16 2028.65,1428.15 2032.7,1212.91 2036.75,1210.9 2040.81,1208.95 2044.86,1207.05 2048.91,1205.27 2052.96,1150.39 2057.02,1147.15 2061.07,1144.08 2065.12,1141.16 2069.18,1138.38 2073.23,884.169 2077.28,882.588 2081.33,881.04 2085.39,879.525 2089.44,878.041 2093.49,1265.71 2097.55,1262.63 2101.6,1259.71 2105.65,1256.95 2109.71,1254.32 2113.76,1100.12 2117.81,1096.83 2121.86,1093.67 2125.92,1090.64 2129.97,1087.72 2134.02,807.593 2138.08,806.226 2142.13,804.892 2146.18,803.589 2150.23,802.316 2154.29,965.944 2158.34,964.631 2162.39,963.355 2166.45,962.114 2170.5,960.907 2174.55,1130.64 2178.6,1129.04 2182.66,1127.49 2186.71,1125.98 2190.76,1124.51 2194.82,902.816 2198.87,901.385 2202.92,900.008 2206.97,898.686 2211.03,897.409 2215.08,1180.99 2219.13,1177.56 2223.19,1174.32 2227.24,1171.25 2231.29,1168.33 2235.34,1382.89 2239.4,1379.57 2243.45,1376.36 2247.5,1373.25 2251.56,1370.23 2255.61,1063.94 2259.66,1060.97 2263.71,1058.15 2267.77,1055.45 2271.82,1052.87 2275.87,1240.81 2279.93,1237.45 2283.98,1234.2 2288.03,1231.05 2292.08,1228.01 "/>
<path clip-path="url(#clip740)" d="M2014.5 198.898 L2281.3 198.898 L2281.3 95.2176 L2014.5 95.2176  Z" fill="#ffffff" fill-rule="evenodd" fill-opacity="1"/>
<polyline clip-path="url(#clip740)" style="stroke:#000000; stroke-linecap:round; stroke-linejoin:round; stroke-width:4; stroke-opacity:1; fill:none" points="2014.5,198.898 2281.3,198.898 2281.3,95.2176 2014.5,95.2176 2014.5,198.898 "/>
<polyline clip-path="url(#clip740)" style="stroke:#009af9; stroke-linecap:round; stroke-linejoin:round; stroke-width:4; stroke-opacity:1; fill:none" points="2038.31,147.058 2181.23,147.058 "/>
<path clip-path="url(#clip740)" d="M2218.89 166.745 Q2217.09 171.375 2215.37 172.787 Q2213.66 174.199 2210.79 174.199 L2207.39 174.199 L2207.39 170.634 L2209.89 170.634 Q2211.65 170.634 2212.62 169.8 Q2213.59 168.967 2214.77 165.865 L2215.53 163.921 L2205.05 138.412 L2209.56 138.412 L2217.66 158.689 L2225.77 138.412 L2230.28 138.412 L2218.89 166.745 Z" fill="#000000" fill-rule="nonzero" fill-opacity="1" /><path clip-path="url(#clip740)" d="M2237.57 160.402 L2245.21 160.402 L2245.21 134.037 L2236.9 135.703 L2236.9 131.444 L2245.16 129.778 L2249.84 129.778 L2249.84 160.402 L2257.48 160.402 L2257.48 164.338 L2237.57 164.338 L2237.57 160.402 Z" fill="#000000" fill-rule="nonzero" fill-opacity="1" /></svg>
