<?xml version="1.0" encoding="utf-8"?>
<svg xmlns="http://www.w3.org/2000/svg" xmlns:xlink="http://www.w3.org/1999/xlink" width="600" height="400" viewBox="0 0 2400 1600">
<defs>
  <clipPath id="clip190">
    <rect x="0" y="0" width="2400" height="1600"/>
  </clipPath>
</defs>
<path clip-path="url(#clip190)" d="M0 1600 L2400 1600 L2400 0 L0 0  Z" fill="#ffffff" fill-rule="evenodd" fill-opacity="1"/>
<defs>
  <clipPath id="clip191">
    <rect x="480" y="0" width="1681" height="1600"/>
  </clipPath>
</defs>
<path clip-path="url(#clip190)" d="M239.19 1486.45 L2352.76 1486.45 L2352.76 47.2441 L239.19 47.2441  Z" fill="#ffffff" fill-rule="evenodd" fill-opacity="1"/>
<defs>
  <clipPath id="clip192">
    <rect x="239" y="47" width="2115" height="1440"/>
  </clipPath>
</defs>
<polyline clip-path="url(#clip192)" style="stroke:#000000; stroke-linecap:round; stroke-linejoin:round; stroke-width:2; stroke-opacity:0.1; fill:none" points="299.008,1486.45 299.008,47.2441 "/>
<polyline clip-path="url(#clip192)" style="stroke:#000000; stroke-linecap:round; stroke-linejoin:round; stroke-width:2; stroke-opacity:0.1; fill:none" points="797.74,1486.45 797.74,47.2441 "/>
<polyline clip-path="url(#clip192)" style="stroke:#000000; stroke-linecap:round; stroke-linejoin:round; stroke-width:2; stroke-opacity:0.1; fill:none" points="1296.47,1486.45 1296.47,47.2441 "/>
<polyline clip-path="url(#clip192)" style="stroke:#000000; stroke-linecap:round; stroke-linejoin:round; stroke-width:2; stroke-opacity:0.1; fill:none" points="1795.2,1486.45 1795.2,47.2441 "/>
<polyline clip-path="url(#clip192)" style="stroke:#000000; stroke-linecap:round; stroke-linejoin:round; stroke-width:2; stroke-opacity:0.1; fill:none" points="2293.94,1486.45 2293.94,47.2441 "/>
<polyline clip-path="url(#clip190)" style="stroke:#000000; stroke-linecap:round; stroke-linejoin:round; stroke-width:4; stroke-opacity:1; fill:none" points="239.19,1486.45 2352.76,1486.45 "/>
<polyline clip-path="url(#clip190)" style="stroke:#000000; stroke-linecap:round; stroke-linejoin:round; stroke-width:4; stroke-opacity:1; fill:none" points="299.008,1486.45 299.008,1467.55 "/>
<polyline clip-path="url(#clip190)" style="stroke:#000000; stroke-linecap:round; stroke-linejoin:round; stroke-width:4; stroke-opacity:1; fill:none" points="797.74,1486.45 797.74,1467.55 "/>
<polyline clip-path="url(#clip190)" style="stroke:#000000; stroke-linecap:round; stroke-linejoin:round; stroke-width:4; stroke-opacity:1; fill:none" points="1296.47,1486.45 1296.47,1467.55 "/>
<polyline clip-path="url(#clip190)" style="stroke:#000000; stroke-linecap:round; stroke-linejoin:round; stroke-width:4; stroke-opacity:1; fill:none" points="1795.2,1486.45 1795.2,1467.55 "/>
<polyline clip-path="url(#clip190)" style="stroke:#000000; stroke-linecap:round; stroke-linejoin:round; stroke-width:4; stroke-opacity:1; fill:none" points="2293.94,1486.45 2293.94,1467.55 "/>
<path clip-path="url(#clip190)" d="M299.008 1517.37 Q295.397 1517.37 293.568 1520.93 Q291.763 1524.47 291.763 1531.6 Q291.763 1538.71 293.568 1542.27 Q295.397 1545.82 299.008 1545.82 Q302.643 1545.82 304.448 1542.27 Q306.277 1538.71 306.277 1531.6 Q306.277 1524.47 304.448 1520.93 Q302.643 1517.37 299.008 1517.37 M299.008 1513.66 Q304.818 1513.66 307.874 1518.27 Q310.953 1522.85 310.953 1531.6 Q310.953 1540.33 307.874 1544.94 Q304.818 1549.52 299.008 1549.52 Q293.198 1549.52 290.119 1544.94 Q287.064 1540.33 287.064 1531.6 Q287.064 1522.85 290.119 1518.27 Q293.198 1513.66 299.008 1513.66 Z" fill="#000000" fill-rule="nonzero" fill-opacity="1" /><path clip-path="url(#clip190)" d="M757.358 1514.29 L775.715 1514.29 L775.715 1518.22 L761.641 1518.22 L761.641 1526.7 Q762.659 1526.35 763.678 1526.19 Q764.696 1526 765.715 1526 Q771.502 1526 774.881 1529.17 Q778.261 1532.34 778.261 1537.76 Q778.261 1543.34 774.789 1546.44 Q771.317 1549.52 764.997 1549.52 Q762.821 1549.52 760.553 1549.15 Q758.307 1548.78 755.9 1548.04 L755.9 1543.34 Q757.983 1544.47 760.206 1545.03 Q762.428 1545.58 764.905 1545.58 Q768.909 1545.58 771.247 1543.48 Q773.585 1541.37 773.585 1537.76 Q773.585 1534.15 771.247 1532.04 Q768.909 1529.94 764.905 1529.94 Q763.03 1529.94 761.155 1530.35 Q759.303 1530.77 757.358 1531.65 L757.358 1514.29 Z" fill="#000000" fill-rule="nonzero" fill-opacity="1" /><path clip-path="url(#clip190)" d="M797.474 1517.37 Q793.863 1517.37 792.034 1520.93 Q790.229 1524.47 790.229 1531.6 Q790.229 1538.71 792.034 1542.27 Q793.863 1545.82 797.474 1545.82 Q801.108 1545.82 802.914 1542.27 Q804.742 1538.71 804.742 1531.6 Q804.742 1524.47 802.914 1520.93 Q801.108 1517.37 797.474 1517.37 M797.474 1513.66 Q803.284 1513.66 806.34 1518.27 Q809.418 1522.85 809.418 1531.6 Q809.418 1540.33 806.34 1544.94 Q803.284 1549.52 797.474 1549.52 Q791.664 1549.52 788.585 1544.94 Q785.529 1540.33 785.529 1531.6 Q785.529 1522.85 788.585 1518.27 Q791.664 1513.66 797.474 1513.66 Z" fill="#000000" fill-rule="nonzero" fill-opacity="1" /><path clip-path="url(#clip190)" d="M827.636 1517.37 Q824.025 1517.37 822.196 1520.93 Q820.39 1524.47 820.39 1531.6 Q820.39 1538.71 822.196 1542.27 Q824.025 1545.82 827.636 1545.82 Q831.27 1545.82 833.076 1542.27 Q834.904 1538.71 834.904 1531.6 Q834.904 1524.47 833.076 1520.93 Q831.27 1517.37 827.636 1517.37 M827.636 1513.66 Q833.446 1513.66 836.501 1518.27 Q839.58 1522.85 839.58 1531.6 Q839.58 1540.33 836.501 1544.94 Q833.446 1549.52 827.636 1549.52 Q821.826 1549.52 818.747 1544.94 Q815.691 1540.33 815.691 1531.6 Q815.691 1522.85 818.747 1518.27 Q821.826 1513.66 827.636 1513.66 Z" fill="#000000" fill-rule="nonzero" fill-opacity="1" /><path clip-path="url(#clip190)" d="M1241 1544.91 L1248.64 1544.91 L1248.64 1518.55 L1240.33 1520.21 L1240.33 1515.95 L1248.59 1514.29 L1253.27 1514.29 L1253.27 1544.91 L1260.9 1544.91 L1260.9 1548.85 L1241 1548.85 L1241 1544.91 Z" fill="#000000" fill-rule="nonzero" fill-opacity="1" /><path clip-path="url(#clip190)" d="M1280.35 1517.37 Q1276.74 1517.37 1274.91 1520.93 Q1273.1 1524.47 1273.1 1531.6 Q1273.1 1538.71 1274.91 1542.27 Q1276.74 1545.82 1280.35 1545.82 Q1283.98 1545.82 1285.79 1542.27 Q1287.62 1538.71 1287.62 1531.6 Q1287.62 1524.47 1285.79 1520.93 Q1283.98 1517.37 1280.35 1517.37 M1280.35 1513.66 Q1286.16 1513.66 1289.21 1518.27 Q1292.29 1522.85 1292.29 1531.6 Q1292.29 1540.33 1289.21 1544.94 Q1286.16 1549.52 1280.35 1549.52 Q1274.54 1549.52 1271.46 1544.94 Q1268.4 1540.33 1268.4 1531.6 Q1268.4 1522.85 1271.46 1518.27 Q1274.54 1513.66 1280.35 1513.66 Z" fill="#000000" fill-rule="nonzero" fill-opacity="1" /><path clip-path="url(#clip190)" d="M1310.51 1517.37 Q1306.9 1517.37 1305.07 1520.93 Q1303.27 1524.47 1303.27 1531.6 Q1303.27 1538.71 1305.07 1542.27 Q1306.9 1545.82 1310.51 1545.82 Q1314.15 1545.82 1315.95 1542.27 Q1317.78 1538.71 1317.78 1531.6 Q1317.78 1524.47 1315.95 1520.93 Q1314.15 1517.37 1310.51 1517.37 M1310.51 1513.66 Q1316.32 1513.66 1319.38 1518.27 Q1322.46 1522.85 1322.46 1531.6 Q1322.46 1540.33 1319.38 1544.94 Q1316.32 1549.52 1310.51 1549.52 Q1304.7 1549.52 1301.62 1544.94 Q1298.57 1540.33 1298.57 1531.6 Q1298.57 1522.85 1301.62 1518.27 Q1304.7 1513.66 1310.51 1513.66 Z" fill="#000000" fill-rule="nonzero" fill-opacity="1" /><path clip-path="url(#clip190)" d="M1340.67 1517.37 Q1337.06 1517.37 1335.23 1520.93 Q1333.43 1524.47 1333.43 1531.6 Q1333.43 1538.71 1335.23 1542.27 Q1337.06 1545.82 1340.67 1545.82 Q1344.31 1545.82 1346.11 1542.27 Q1347.94 1538.71 1347.94 1531.6 Q1347.94 1524.47 1346.11 1520.93 Q1344.31 1517.37 1340.67 1517.37 M1340.67 1513.66 Q1346.48 1513.66 1349.54 1518.27 Q1352.62 1522.85 1352.62 1531.6 Q1352.62 1540.33 1349.54 1544.94 Q1346.48 1549.52 1340.67 1549.52 Q1334.86 1549.52 1331.78 1544.94 Q1328.73 1540.33 1328.73 1531.6 Q1328.73 1522.85 1331.78 1518.27 Q1334.86 1513.66 1340.67 1513.66 Z" fill="#000000" fill-rule="nonzero" fill-opacity="1" /><path clip-path="url(#clip190)" d="M1739.73 1544.91 L1747.37 1544.91 L1747.37 1518.55 L1739.06 1520.21 L1739.06 1515.95 L1747.32 1514.29 L1752 1514.29 L1752 1544.91 L1759.64 1544.91 L1759.64 1548.85 L1739.73 1548.85 L1739.73 1544.91 Z" fill="#000000" fill-rule="nonzero" fill-opacity="1" /><path clip-path="url(#clip190)" d="M1769.13 1514.29 L1787.48 1514.29 L1787.48 1518.22 L1773.41 1518.22 L1773.41 1526.7 Q1774.43 1526.35 1775.45 1526.19 Q1776.47 1526 1777.48 1526 Q1783.27 1526 1786.65 1529.17 Q1790.03 1532.34 1790.03 1537.76 Q1790.03 1543.34 1786.56 1546.44 Q1783.09 1549.52 1776.77 1549.52 Q1774.59 1549.52 1772.32 1549.15 Q1770.08 1548.78 1767.67 1548.04 L1767.67 1543.34 Q1769.75 1544.47 1771.97 1545.03 Q1774.2 1545.58 1776.67 1545.58 Q1780.68 1545.58 1783.02 1543.48 Q1785.35 1541.37 1785.35 1537.76 Q1785.35 1534.15 1783.02 1532.04 Q1780.68 1529.94 1776.67 1529.94 Q1774.8 1529.94 1772.92 1530.35 Q1771.07 1530.77 1769.13 1531.65 L1769.13 1514.29 Z" fill="#000000" fill-rule="nonzero" fill-opacity="1" /><path clip-path="url(#clip190)" d="M1809.24 1517.37 Q1805.63 1517.37 1803.8 1520.93 Q1802 1524.47 1802 1531.6 Q1802 1538.71 1803.8 1542.27 Q1805.63 1545.82 1809.24 1545.82 Q1812.88 1545.82 1814.68 1542.27 Q1816.51 1538.71 1816.51 1531.6 Q1816.51 1524.47 1814.68 1520.93 Q1812.88 1517.37 1809.24 1517.37 M1809.24 1513.66 Q1815.05 1513.66 1818.11 1518.27 Q1821.19 1522.85 1821.19 1531.6 Q1821.19 1540.33 1818.11 1544.94 Q1815.05 1549.52 1809.24 1549.52 Q1803.43 1549.52 1800.35 1544.94 Q1797.3 1540.33 1797.3 1531.6 Q1797.3 1522.85 1800.35 1518.27 Q1803.43 1513.66 1809.24 1513.66 Z" fill="#000000" fill-rule="nonzero" fill-opacity="1" /><path clip-path="url(#clip190)" d="M1839.4 1517.37 Q1835.79 1517.37 1833.97 1520.93 Q1832.16 1524.47 1832.16 1531.6 Q1832.16 1538.71 1833.97 1542.27 Q1835.79 1545.82 1839.4 1545.82 Q1843.04 1545.82 1844.84 1542.27 Q1846.67 1538.71 1846.67 1531.6 Q1846.67 1524.47 1844.84 1520.93 Q1843.04 1517.37 1839.4 1517.37 M1839.4 1513.66 Q1845.21 1513.66 1848.27 1518.27 Q1851.35 1522.85 1851.35 1531.6 Q1851.35 1540.33 1848.27 1544.94 Q1845.21 1549.52 1839.4 1549.52 Q1833.59 1549.52 1830.52 1544.94 Q1827.46 1540.33 1827.46 1531.6 Q1827.46 1522.85 1830.52 1518.27 Q1833.59 1513.66 1839.4 1513.66 Z" fill="#000000" fill-rule="nonzero" fill-opacity="1" /><path clip-path="url(#clip190)" d="M2242.55 1544.91 L2258.87 1544.91 L2258.87 1548.85 L2236.92 1548.85 L2236.92 1544.91 Q2239.58 1542.16 2244.17 1537.53 Q2248.77 1532.88 2249.95 1531.53 Q2252.2 1529.01 2253.08 1527.27 Q2253.98 1525.51 2253.98 1523.82 Q2253.98 1521.07 2252.04 1519.33 Q2250.12 1517.6 2247.01 1517.6 Q2244.82 1517.6 2242.36 1518.36 Q2239.93 1519.13 2237.15 1520.68 L2237.15 1515.95 Q2239.98 1514.82 2242.43 1514.24 Q2244.88 1513.66 2246.92 1513.66 Q2252.29 1513.66 2255.49 1516.35 Q2258.68 1519.03 2258.68 1523.52 Q2258.68 1525.65 2257.87 1527.57 Q2257.08 1529.47 2254.98 1532.07 Q2254.4 1532.74 2251.3 1535.95 Q2248.19 1539.15 2242.55 1544.91 Z" fill="#000000" fill-rule="nonzero" fill-opacity="1" /><path clip-path="url(#clip190)" d="M2278.68 1517.37 Q2275.07 1517.37 2273.24 1520.93 Q2271.44 1524.47 2271.44 1531.6 Q2271.44 1538.71 2273.24 1542.27 Q2275.07 1545.82 2278.68 1545.82 Q2282.32 1545.82 2284.12 1542.27 Q2285.95 1538.71 2285.95 1531.6 Q2285.95 1524.47 2284.12 1520.93 Q2282.32 1517.37 2278.68 1517.37 M2278.68 1513.66 Q2284.49 1513.66 2287.55 1518.27 Q2290.63 1522.85 2290.63 1531.6 Q2290.63 1540.33 2287.55 1544.94 Q2284.49 1549.52 2278.68 1549.52 Q2272.87 1549.52 2269.79 1544.94 Q2266.74 1540.33 2266.74 1531.6 Q2266.74 1522.85 2269.79 1518.27 Q2272.87 1513.66 2278.68 1513.66 Z" fill="#000000" fill-rule="nonzero" fill-opacity="1" /><path clip-path="url(#clip190)" d="M2308.84 1517.37 Q2305.23 1517.37 2303.4 1520.93 Q2301.6 1524.47 2301.6 1531.6 Q2301.6 1538.71 2303.4 1542.27 Q2305.23 1545.82 2308.84 1545.82 Q2312.48 1545.82 2314.28 1542.27 Q2316.11 1538.71 2316.11 1531.6 Q2316.11 1524.47 2314.28 1520.93 Q2312.48 1517.37 2308.84 1517.37 M2308.84 1513.66 Q2314.65 1513.66 2317.71 1518.27 Q2320.79 1522.85 2320.79 1531.6 Q2320.79 1540.33 2317.71 1544.94 Q2314.65 1549.52 2308.84 1549.52 Q2303.03 1549.52 2299.95 1544.94 Q2296.9 1540.33 2296.9 1531.6 Q2296.9 1522.85 2299.95 1518.27 Q2303.03 1513.66 2308.84 1513.66 Z" fill="#000000" fill-rule="nonzero" fill-opacity="1" /><path clip-path="url(#clip190)" d="M2339 1517.37 Q2335.39 1517.37 2333.56 1520.93 Q2331.76 1524.47 2331.76 1531.6 Q2331.76 1538.71 2333.56 1542.27 Q2335.39 1545.82 2339 1545.82 Q2342.64 1545.82 2344.44 1542.27 Q2346.27 1538.71 2346.27 1531.6 Q2346.27 1524.47 2344.44 1520.93 Q2342.64 1517.37 2339 1517.37 M2339 1513.66 Q2344.81 1513.66 2347.87 1518.27 Q2350.95 1522.85 2350.95 1531.6 Q2350.95 1540.33 2347.87 1544.94 Q2344.81 1549.52 2339 1549.52 Q2333.19 1549.52 2330.12 1544.94 Q2327.06 1540.33 2327.06 1531.6 Q2327.06 1522.85 2330.12 1518.27 Q2333.19 1513.66 2339 1513.66 Z" fill="#000000" fill-rule="nonzero" fill-opacity="1" /><polyline clip-path="url(#clip192)" style="stroke:#000000; stroke-linecap:round; stroke-linejoin:round; stroke-width:2; stroke-opacity:0.1; fill:none" points="239.19,1276.19 2352.76,1276.19 "/>
<polyline clip-path="url(#clip192)" style="stroke:#000000; stroke-linecap:round; stroke-linejoin:round; stroke-width:2; stroke-opacity:0.1; fill:none" points="239.19,948.8 2352.76,948.8 "/>
<polyline clip-path="url(#clip192)" style="stroke:#000000; stroke-linecap:round; stroke-linejoin:round; stroke-width:2; stroke-opacity:0.1; fill:none" points="239.19,621.41 2352.76,621.41 "/>
<polyline clip-path="url(#clip192)" style="stroke:#000000; stroke-linecap:round; stroke-linejoin:round; stroke-width:2; stroke-opacity:0.1; fill:none" points="239.19,294.019 2352.76,294.019 "/>
<polyline clip-path="url(#clip190)" style="stroke:#000000; stroke-linecap:round; stroke-linejoin:round; stroke-width:4; stroke-opacity:1; fill:none" points="239.19,1486.45 239.19,47.2441 "/>
<polyline clip-path="url(#clip190)" style="stroke:#000000; stroke-linecap:round; stroke-linejoin:round; stroke-width:4; stroke-opacity:1; fill:none" points="239.19,1276.19 258.088,1276.19 "/>
<polyline clip-path="url(#clip190)" style="stroke:#000000; stroke-linecap:round; stroke-linejoin:round; stroke-width:4; stroke-opacity:1; fill:none" points="239.19,948.8 258.088,948.8 "/>
<polyline clip-path="url(#clip190)" style="stroke:#000000; stroke-linecap:round; stroke-linejoin:round; stroke-width:4; stroke-opacity:1; fill:none" points="239.19,621.41 258.088,621.41 "/>
<polyline clip-path="url(#clip190)" style="stroke:#000000; stroke-linecap:round; stroke-linejoin:round; stroke-width:4; stroke-opacity:1; fill:none" points="239.19,294.019 258.088,294.019 "/>
<path clip-path="url(#clip190)" d="M50.9921 1276.64 L80.6679 1276.64 L80.6679 1280.58 L50.9921 1280.58 L50.9921 1276.64 Z" fill="#000000" fill-rule="nonzero" fill-opacity="1" /><path clip-path="url(#clip190)" d="M100.76 1277.06 Q97.4271 1277.06 95.5058 1278.84 Q93.6076 1280.62 93.6076 1283.75 Q93.6076 1286.87 95.5058 1288.66 Q97.4271 1290.44 100.76 1290.44 Q104.094 1290.44 106.015 1288.66 Q107.936 1286.85 107.936 1283.75 Q107.936 1280.62 106.015 1278.84 Q104.117 1277.06 100.76 1277.06 M96.0845 1275.07 Q93.0752 1274.33 91.3854 1272.27 Q89.7188 1270.21 89.7188 1267.24 Q89.7188 1263.1 92.6586 1260.69 Q95.6215 1258.29 100.76 1258.29 Q105.922 1258.29 108.862 1260.69 Q111.802 1263.1 111.802 1267.24 Q111.802 1270.21 110.112 1272.27 Q108.446 1274.33 105.459 1275.07 Q108.839 1275.85 110.714 1278.15 Q112.612 1280.44 112.612 1283.75 Q112.612 1288.77 109.533 1291.46 Q106.478 1294.14 100.76 1294.14 Q95.0428 1294.14 91.9641 1291.46 Q88.9086 1288.77 88.9086 1283.75 Q88.9086 1280.44 90.8067 1278.15 Q92.7049 1275.85 96.0845 1275.07 M94.3715 1267.68 Q94.3715 1270.37 96.0382 1271.87 Q97.728 1273.38 100.76 1273.38 Q103.77 1273.38 105.459 1271.87 Q107.172 1270.37 107.172 1267.68 Q107.172 1265 105.459 1263.49 Q103.77 1261.99 100.76 1261.99 Q97.728 1261.99 96.0382 1263.49 Q94.3715 1265 94.3715 1267.68 Z" fill="#000000" fill-rule="nonzero" fill-opacity="1" /><path clip-path="url(#clip190)" d="M130.922 1261.99 Q127.311 1261.99 125.482 1265.55 Q123.677 1269.1 123.677 1276.22 Q123.677 1283.33 125.482 1286.9 Q127.311 1290.44 130.922 1290.44 Q134.556 1290.44 136.362 1286.9 Q138.191 1283.33 138.191 1276.22 Q138.191 1269.1 136.362 1265.55 Q134.556 1261.99 130.922 1261.99 M130.922 1258.29 Q136.732 1258.29 139.788 1262.89 Q142.867 1267.47 142.867 1276.22 Q142.867 1284.95 139.788 1289.56 Q136.732 1294.14 130.922 1294.14 Q125.112 1294.14 122.033 1289.56 Q118.978 1284.95 118.978 1276.22 Q118.978 1267.47 122.033 1262.89 Q125.112 1258.29 130.922 1258.29 Z" fill="#000000" fill-rule="nonzero" fill-opacity="1" /><path clip-path="url(#clip190)" d="M161.084 1261.99 Q157.473 1261.99 155.644 1265.55 Q153.839 1269.1 153.839 1276.22 Q153.839 1283.33 155.644 1286.9 Q157.473 1290.44 161.084 1290.44 Q164.718 1290.44 166.524 1286.9 Q168.353 1283.33 168.353 1276.22 Q168.353 1269.1 166.524 1265.55 Q164.718 1261.99 161.084 1261.99 M161.084 1258.29 Q166.894 1258.29 169.95 1262.89 Q173.029 1267.47 173.029 1276.22 Q173.029 1284.95 169.95 1289.56 Q166.894 1294.14 161.084 1294.14 Q155.274 1294.14 152.195 1289.56 Q149.14 1284.95 149.14 1276.22 Q149.14 1267.47 152.195 1262.89 Q155.274 1258.29 161.084 1258.29 Z" fill="#000000" fill-rule="nonzero" fill-opacity="1" /><path clip-path="url(#clip190)" d="M191.246 1261.99 Q187.635 1261.99 185.806 1265.55 Q184.001 1269.1 184.001 1276.22 Q184.001 1283.33 185.806 1286.9 Q187.635 1290.44 191.246 1290.44 Q194.88 1290.44 196.686 1286.9 Q198.514 1283.33 198.514 1276.22 Q198.514 1269.1 196.686 1265.55 Q194.88 1261.99 191.246 1261.99 M191.246 1258.29 Q197.056 1258.29 200.112 1262.89 Q203.19 1267.47 203.19 1276.22 Q203.19 1284.95 200.112 1289.56 Q197.056 1294.14 191.246 1294.14 Q185.436 1294.14 182.357 1289.56 Q179.302 1284.95 179.302 1276.22 Q179.302 1267.47 182.357 1262.89 Q185.436 1258.29 191.246 1258.29 Z" fill="#000000" fill-rule="nonzero" fill-opacity="1" /><path clip-path="url(#clip190)" d="M50.9921 949.251 L80.6679 949.251 L80.6679 953.186 L50.9921 953.186 L50.9921 949.251 Z" fill="#000000" fill-rule="nonzero" fill-opacity="1" /><path clip-path="url(#clip190)" d="M101.339 946.936 Q98.1909 946.936 96.3391 949.089 Q94.5104 951.242 94.5104 954.992 Q94.5104 958.719 96.3391 960.895 Q98.1909 963.047 101.339 963.047 Q104.487 963.047 106.316 960.895 Q108.168 958.719 108.168 954.992 Q108.168 951.242 106.316 949.089 Q104.487 946.936 101.339 946.936 M110.621 932.284 L110.621 936.543 Q108.862 935.71 107.057 935.27 Q105.274 934.83 103.515 934.83 Q98.8854 934.83 96.4317 937.955 Q94.0012 941.08 93.6539 947.399 Q95.0197 945.386 97.0798 944.321 Q99.14 943.233 101.617 943.233 Q106.825 943.233 109.834 946.404 Q112.867 949.552 112.867 954.992 Q112.867 960.316 109.719 963.534 Q106.571 966.751 101.339 966.751 Q95.3437 966.751 92.1725 962.168 Q89.0012 957.561 89.0012 948.835 Q89.0012 940.64 92.89 935.779 Q96.7789 930.895 103.33 930.895 Q105.089 930.895 106.871 931.242 Q108.677 931.589 110.621 932.284 Z" fill="#000000" fill-rule="nonzero" fill-opacity="1" /><path clip-path="url(#clip190)" d="M130.922 934.599 Q127.311 934.599 125.482 938.163 Q123.677 941.705 123.677 948.835 Q123.677 955.941 125.482 959.506 Q127.311 963.047 130.922 963.047 Q134.556 963.047 136.362 959.506 Q138.191 955.941 138.191 948.835 Q138.191 941.705 136.362 938.163 Q134.556 934.599 130.922 934.599 M130.922 930.895 Q136.732 930.895 139.788 935.501 Q142.867 940.085 142.867 948.835 Q142.867 957.561 139.788 962.168 Q136.732 966.751 130.922 966.751 Q125.112 966.751 122.033 962.168 Q118.978 957.561 118.978 948.835 Q118.978 940.085 122.033 935.501 Q125.112 930.895 130.922 930.895 Z" fill="#000000" fill-rule="nonzero" fill-opacity="1" /><path clip-path="url(#clip190)" d="M161.084 934.599 Q157.473 934.599 155.644 938.163 Q153.839 941.705 153.839 948.835 Q153.839 955.941 155.644 959.506 Q157.473 963.047 161.084 963.047 Q164.718 963.047 166.524 959.506 Q168.353 955.941 168.353 948.835 Q168.353 941.705 166.524 938.163 Q164.718 934.599 161.084 934.599 M161.084 930.895 Q166.894 930.895 169.95 935.501 Q173.029 940.085 173.029 948.835 Q173.029 957.561 169.95 962.168 Q166.894 966.751 161.084 966.751 Q155.274 966.751 152.195 962.168 Q149.14 957.561 149.14 948.835 Q149.14 940.085 152.195 935.501 Q155.274 930.895 161.084 930.895 Z" fill="#000000" fill-rule="nonzero" fill-opacity="1" /><path clip-path="url(#clip190)" d="M191.246 934.599 Q187.635 934.599 185.806 938.163 Q184.001 941.705 184.001 948.835 Q184.001 955.941 185.806 959.506 Q187.635 963.047 191.246 963.047 Q194.88 963.047 196.686 959.506 Q198.514 955.941 198.514 948.835 Q198.514 941.705 196.686 938.163 Q194.88 934.599 191.246 934.599 M191.246 930.895 Q197.056 930.895 200.112 935.501 Q203.19 940.085 203.19 948.835 Q203.19 957.561 200.112 962.168 Q197.056 966.751 191.246 966.751 Q185.436 966.751 182.357 962.168 Q179.302 957.561 179.302 948.835 Q179.302 940.085 182.357 935.501 Q185.436 930.895 191.246 930.895 Z" fill="#000000" fill-rule="nonzero" fill-opacity="1" /><path clip-path="url(#clip190)" d="M50.9921 621.861 L80.6679 621.861 L80.6679 625.796 L50.9921 625.796 L50.9921 621.861 Z" fill="#000000" fill-rule="nonzero" fill-opacity="1" /><path clip-path="url(#clip190)" d="M103.608 608.204 L91.8021 626.653 L103.608 626.653 L103.608 608.204 M102.381 604.13 L108.26 604.13 L108.26 626.653 L113.191 626.653 L113.191 630.542 L108.26 630.542 L108.26 638.69 L103.608 638.69 L103.608 630.542 L88.0058 630.542 L88.0058 626.028 L102.381 604.13 Z" fill="#000000" fill-rule="nonzero" fill-opacity="1" /><path clip-path="url(#clip190)" d="M130.922 607.208 Q127.311 607.208 125.482 610.773 Q123.677 614.315 123.677 621.444 Q123.677 628.551 125.482 632.116 Q127.311 635.657 130.922 635.657 Q134.556 635.657 136.362 632.116 Q138.191 628.551 138.191 621.444 Q138.191 614.315 136.362 610.773 Q134.556 607.208 130.922 607.208 M130.922 603.505 Q136.732 603.505 139.788 608.111 Q142.867 612.694 142.867 621.444 Q142.867 630.171 139.788 634.778 Q136.732 639.361 130.922 639.361 Q125.112 639.361 122.033 634.778 Q118.978 630.171 118.978 621.444 Q118.978 612.694 122.033 608.111 Q125.112 603.505 130.922 603.505 Z" fill="#000000" fill-rule="nonzero" fill-opacity="1" /><path clip-path="url(#clip190)" d="M161.084 607.208 Q157.473 607.208 155.644 610.773 Q153.839 614.315 153.839 621.444 Q153.839 628.551 155.644 632.116 Q157.473 635.657 161.084 635.657 Q164.718 635.657 166.524 632.116 Q168.353 628.551 168.353 621.444 Q168.353 614.315 166.524 610.773 Q164.718 607.208 161.084 607.208 M161.084 603.505 Q166.894 603.505 169.95 608.111 Q173.029 612.694 173.029 621.444 Q173.029 630.171 169.95 634.778 Q166.894 639.361 161.084 639.361 Q155.274 639.361 152.195 634.778 Q149.14 630.171 149.14 621.444 Q149.14 612.694 152.195 608.111 Q155.274 603.505 161.084 603.505 Z" fill="#000000" fill-rule="nonzero" fill-opacity="1" /><path clip-path="url(#clip190)" d="M191.246 607.208 Q187.635 607.208 185.806 610.773 Q184.001 614.315 184.001 621.444 Q184.001 628.551 185.806 632.116 Q187.635 635.657 191.246 635.657 Q194.88 635.657 196.686 632.116 Q198.514 628.551 198.514 621.444 Q198.514 614.315 196.686 610.773 Q194.88 607.208 191.246 607.208 M191.246 603.505 Q197.056 603.505 200.112 608.111 Q203.19 612.694 203.19 621.444 Q203.19 630.171 200.112 634.778 Q197.056 639.361 191.246 639.361 Q185.436 639.361 182.357 634.778 Q179.302 630.171 179.302 621.444 Q179.302 612.694 182.357 608.111 Q185.436 603.505 191.246 603.505 Z" fill="#000000" fill-rule="nonzero" fill-opacity="1" /><path clip-path="url(#clip190)" d="M50.9921 294.471 L80.6679 294.471 L80.6679 298.406 L50.9921 298.406 L50.9921 294.471 Z" fill="#000000" fill-rule="nonzero" fill-opacity="1" /><path clip-path="url(#clip190)" d="M94.7882 307.364 L111.108 307.364 L111.108 311.299 L89.1632 311.299 L89.1632 307.364 Q91.8252 304.61 96.4085 299.98 Q101.015 295.327 102.196 293.985 Q104.441 291.462 105.321 289.725 Q106.223 287.966 106.223 286.276 Q106.223 283.522 104.279 281.786 Q102.358 280.05 99.2558 280.05 Q97.0567 280.05 94.603 280.813 Q92.1725 281.577 89.3947 283.128 L89.3947 278.406 Q92.2188 277.272 94.6724 276.693 Q97.1261 276.114 99.1632 276.114 Q104.534 276.114 107.728 278.8 Q110.922 281.485 110.922 285.975 Q110.922 288.105 110.112 290.026 Q109.325 291.925 107.219 294.517 Q106.64 295.188 103.538 298.406 Q100.436 301.6 94.7882 307.364 Z" fill="#000000" fill-rule="nonzero" fill-opacity="1" /><path clip-path="url(#clip190)" d="M130.922 279.818 Q127.311 279.818 125.482 283.383 Q123.677 286.925 123.677 294.054 Q123.677 301.161 125.482 304.725 Q127.311 308.267 130.922 308.267 Q134.556 308.267 136.362 304.725 Q138.191 301.161 138.191 294.054 Q138.191 286.925 136.362 283.383 Q134.556 279.818 130.922 279.818 M130.922 276.114 Q136.732 276.114 139.788 280.721 Q142.867 285.304 142.867 294.054 Q142.867 302.781 139.788 307.387 Q136.732 311.971 130.922 311.971 Q125.112 311.971 122.033 307.387 Q118.978 302.781 118.978 294.054 Q118.978 285.304 122.033 280.721 Q125.112 276.114 130.922 276.114 Z" fill="#000000" fill-rule="nonzero" fill-opacity="1" /><path clip-path="url(#clip190)" d="M161.084 279.818 Q157.473 279.818 155.644 283.383 Q153.839 286.925 153.839 294.054 Q153.839 301.161 155.644 304.725 Q157.473 308.267 161.084 308.267 Q164.718 308.267 166.524 304.725 Q168.353 301.161 168.353 294.054 Q168.353 286.925 166.524 283.383 Q164.718 279.818 161.084 279.818 M161.084 276.114 Q166.894 276.114 169.95 280.721 Q173.029 285.304 173.029 294.054 Q173.029 302.781 169.95 307.387 Q166.894 311.971 161.084 311.971 Q155.274 311.971 152.195 307.387 Q149.14 302.781 149.14 294.054 Q149.14 285.304 152.195 280.721 Q155.274 276.114 161.084 276.114 Z" fill="#000000" fill-rule="nonzero" fill-opacity="1" /><path clip-path="url(#clip190)" d="M191.246 279.818 Q187.635 279.818 185.806 283.383 Q184.001 286.925 184.001 294.054 Q184.001 301.161 185.806 304.725 Q187.635 308.267 191.246 308.267 Q194.88 308.267 196.686 304.725 Q198.514 301.161 198.514 294.054 Q198.514 286.925 196.686 283.383 Q194.88 279.818 191.246 279.818 M191.246 276.114 Q197.056 276.114 200.112 280.721 Q203.19 285.304 203.19 294.054 Q203.19 302.781 200.112 307.387 Q197.056 311.971 191.246 311.971 Q185.436 311.971 182.357 307.387 Q179.302 302.781 179.302 294.054 Q179.302 285.304 182.357 280.721 Q185.436 276.114 191.246 276.114 Z" fill="#000000" fill-rule="nonzero" fill-opacity="1" /><polyline clip-path="url(#clip192)" style="stroke:#009af9; stroke-linecap:round; stroke-linejoin:round; stroke-width:4; stroke-opacity:1; fill:none" points="299.008,89.0577 300.006,87.9763 301.003,99.5883 302.001,98.2792 302.998,93.9291 303.996,92.9152 304.993,127.469 305.991,126.055 306.988,89.3807 307.985,88.5546 308.983,147.617 309.98,146.477 310.978,129.343 311.975,128.216 312.973,147.938 313.97,146.789 314.968,180.768 315.965,179.191 316.963,177.448 317.96,176.219 318.958,207.481 319.955,206.007 320.952,219.155 321.95,217.159 322.947,245.26 323.945,243.798 324.942,265.792 325.94,263.57 326.937,276.307 327.935,274.717 328.932,318.17 329.93,316.351 330.927,292.263 331.925,290.111 332.922,323.918 333.92,321.519 334.917,373.615 335.914,370.923 336.912,341.952 337.909,339.936 338.907,412.664 339.904,409.358 340.902,417.864 341.899,414.598 342.897,447.26 343.894,444.31 344.892,491.306 345.889,487.495 346.887,488.913 347.884,485.2 348.881,491.6 349.879,487.851 350.876,607.061 351.874,602.049 352.871,617.072 353.869,611.263 354.866,647.904 355.864,642.482 356.861,725.562 357.859,719.089 358.856,686.145 359.854,680.073 360.851,737.052 361.848,729.491 362.846,774.58 363.843,766.732 364.841,841.346 365.838,833.337 366.836,893.852 367.833,886.212 368.831,882.429 369.828,872.735 370.826,943.912 371.823,935.246 372.821,1005.27 373.818,995.023 374.816,1028.12 375.813,1017.67 376.81,1073.36 377.808,1064.38 378.805,1026.38 379.803,1017.71 380.8,1036.71 381.798,1027.38 382.795,1088.2 383.793,1077.82 384.79,1165.66 385.788,1156.12 386.785,1227.58 387.783,1218.12 388.78,1175.93 389.777,1164.14 390.775,1226.35 391.772,1218.27 392.77,1244.3 393.767,1234.75 394.765,1278.94 395.762,1270.88 396.76,1387.63 397.757,1382.25 398.755,1384.93 399.752,1377.99 400.75,1389.08 401.747,1380.93 402.744,1397.81 403.742,1392.09 404.739,1418.04 405.737,1414.91 406.734,1445.35 407.732,1440.74 408.729,1421.83 409.727,1420.83 410.724,1445.72 411.722,1441.76 412.719,1422.39 413.717,1420.15 414.714,1368.91 415.712,1364.38 416.709,1408.95 417.706,1409.05 418.704,1410.78 419.701,1406.56 420.699,1345.16 421.696,1336.94 422.694,1360.64 423.691,1357.61 424.689,1327.02 425.686,1322 426.684,1332.81 427.681,1328.3 428.679,1304.58 429.676,1299.15 430.673,1308.6 431.671,1303.84 432.668,1235.33 433.666,1227.79 434.663,1251.69 435.661,1248.15 436.658,1236.18 437.656,1230.85 438.653,1254.63 439.651,1247.4 440.648,1253.9 441.646,1247.93 442.643,1249.53 443.64,1243.91 444.638,1267.08 445.635,1263.31 446.633,1262.3 447.63,1259.26 448.628,1243.86 449.625,1239.73 450.623,1266.61 451.62,1261.04 452.618,1254.27 453.615,1248.56 454.613,1246.59 455.61,1240.11 456.608,1273.72 457.605,1267.46 458.602,1252.76 459.6,1244.16 460.597,1242.35 461.595,1236 462.592,1232.16 463.59,1226.07 464.587,1261.91 465.585,1256.71 466.582,1243.27 467.58,1238.23 468.577,1237.55 469.575,1232.36 470.572,1283.16 471.569,1278.08 472.567,1266.55 473.564,1261.32 474.562,1259.58 475.559,1252.32 476.557,1260.22 477.554,1252.81 478.552,1267 479.549,1261.9 480.547,1247.31 481.544,1238.8 482.542,1260.29 483.539,1255.29 484.537,1273.16 485.534,1267.66 486.531,1254.73 487.529,1247.74 488.526,1258.35 489.524,1252.05 490.521,1280.83 491.519,1276.4 492.516,1254.97 493.514,1248.63 494.511,1273.65 495.509,1268.51 496.506,1257.74 497.504,1250.91 498.501,1253.7 499.498,1247.29 500.496,1237.82 501.493,1231.28 502.491,1243.26 503.488,1236.68 504.486,1255.13 505.483,1249.92 506.481,1254.26 507.478,1247.85 508.476,1256.33 509.473,1250.04 510.471,1259.74 511.468,1254.19 512.465,1220.37 513.463,1214.46 514.46,1247.82 515.458,1241.79 516.455,1266.47 517.453,1261.27 518.45,1243.21 519.448,1237.22 520.445,1237.53 521.443,1231.27 522.44,1274.13 523.438,1269.06 524.435,1262.43 525.433,1259.3 526.43,1270.77 527.427,1266.23 528.425,1264.18 529.422,1260.19 530.42,1276.84 531.417,1271.11 532.415,1282.74 533.412,1280.63 534.41,1246.53 535.407,1240.91 536.405,1251.62 537.402,1246.92 538.4,1248.18 539.397,1242.98 540.394,1248.56 541.392,1242.37 542.389,1243.7 543.387,1237.11 544.384,1216.2 545.382,1209.33 546.379,1235.95 547.377,1231.47 548.374,1254.37 549.372,1248.15 550.369,1281.32 551.367,1276.31 552.364,1261.31 553.361,1256.26 554.359,1262.31 555.356,1256.85 556.354,1271.12 557.351,1264.3 558.349,1257.02 559.346,1250.27 560.344,1263.7 561.341,1257.33 562.339,1250.88 563.336,1246.52 564.334,1242.79 565.331,1235.71 566.329,1227.4 567.326,1220.99 568.323,1220.39 569.321,1215.23 570.318,1241.37 571.316,1236.04 572.313,1238.3 573.311,1233.07 574.308,1230.36 575.306,1223.53 576.303,1203.21 577.301,1196.43 578.298,1228.84 579.296,1220.28 580.293,1237.8 581.29,1229.52 582.288,1217.18 583.285,1210.57 584.283,1239.46 585.28,1233.63 586.278,1230.47 587.275,1223.36 588.273,1223.33 589.27,1216.26 590.268,1192.89 591.265,1187.46 592.263,1213.83 593.26,1206.02 594.258,1216.51 595.255,1209.57 596.252,1238.89 597.25,1231.97 598.247,1235.89 599.245,1230.28 600.242,1237.75 601.24,1230.76 602.237,1254.76 603.235,1248.01 604.232,1248.5 605.23,1243.04 606.227,1255.98 607.225,1250.39 608.222,1264.43 609.219,1258.98 610.217,1250.29 611.214,1243.02 612.212,1256.83 613.209,1250.57 614.207,1272.54 615.204,1267.37 616.202,1280.48 617.199,1278.38 618.197,1263.44 619.194,1258.41 620.192,1271.68 621.189,1267.6 622.186,1253.89 623.184,1247.16 624.181,1270.44 625.179,1265.37 626.176,1246.86 627.174,1240.65 628.171,1261.57 629.169,1253.99 630.166,1259.88 631.164,1254.95 632.161,1259.5 633.159,1255.27 634.156,1277.98 635.154,1273.35 636.151,1299.54 637.148,1295.07 638.146,1315.8 639.143,1311.78 640.141,1284.93 641.138,1280.47 642.136,1271.59 643.133,1265.48 644.131,1278.88 645.128,1274.35 646.126,1271.77 647.123,1265.69 648.121,1264.2 649.118,1259.03 650.115,1279.83 651.113,1273.64 652.11,1281.93 653.108,1276.65 654.105,1267.7 655.103,1261.96 656.1,1263.43 657.098,1256 658.095,1237.69 659.093,1232.57 660.09,1245.77 661.088,1239.42 662.085,1240.89 663.082,1234.89 664.08,1272.88 665.077,1268 666.075,1280.15 667.072,1274.83 668.07,1276.09 669.067,1270.73 670.065,1282.27 671.062,1279.27 672.06,1276 673.057,1272.86 674.055,1273.21 675.052,1267.26 676.05,1271.33 677.047,1264.3 678.044,1275.44 679.042,1271.92 680.039,1272.67 681.037,1264.83 682.034,1277.5 683.032,1272.86 684.029,1256.09 685.027,1251.6 686.024,1268.98 687.022,1265.38 688.019,1261.61 689.017,1255.89 690.014,1261.64 691.011,1256.83 692.009,1253.22 693.006,1249.8 694.004,1235.31 695.001,1229.74 695.999,1233.99 696.996,1228.23 697.994,1250.5 698.991,1244.21 699.989,1250.88 700.986,1246.81 701.984,1247.97 702.981,1242.53 703.978,1224 704.976,1218.76 705.973,1215.9 706.971,1209.4 707.968,1219.77 708.966,1215.01 709.963,1210.03 710.961,1203.71 711.958,1236.92 712.956,1232.72 713.953,1234.53 714.951,1229.83 715.948,1187.33 716.946,1182.04 717.943,1180.16 718.94,1175.05 719.938,1192.36 720.935,1187.07 721.933,1204.97 722.93,1199.3 723.928,1230.84 724.925,1225.92 725.923,1221.38 726.92,1216.27 727.918,1221.76 728.915,1216.19 729.913,1224.96 730.91,1218.99 731.907,1230.75 732.905,1225.19 733.902,1219.73 734.9,1211.66 735.897,1239.27 736.895,1232.63 737.892,1223.92 738.89,1218.77 739.887,1226.33 740.885,1220.96 741.882,1234.79 742.88,1229.48 743.877,1233.09 744.875,1227.2 745.872,1215.79 746.869,1209.5 747.867,1209.88 748.864,1203.3 749.862,1213.42 750.859,1207.99 751.857,1230.26 752.854,1223.94 753.852,1222.03 754.849,1216.9 755.847,1224.04 756.844,1218.64 757.842,1227.34 758.839,1221.09 759.836,1235.01 760.834,1229.35 761.831,1227.32 762.829,1220.73 763.826,1233.54 764.824,1225.75 765.821,1219.53 766.819,1212.39 767.816,1212.25 768.814,1207.72 769.811,1233.51 770.809,1227.44 771.806,1216.7 772.803,1210.41 773.801,1217.89 774.798,1211.71 775.796,1200.19 776.793,1194.41 777.791,1221.5 778.788,1215.99 779.786,1241.09 780.783,1235.22 781.781,1206.07 782.778,1201.29 783.776,1213.71 784.773,1207.65 785.771,1193.08 786.768,1186.89 787.765,1208.84 788.763,1201.84 789.76,1219.8 790.758,1213.88 791.755,1229.37 792.753,1224.45 793.75,1210.22 794.748,1204.33 795.745,1237.72 796.743,1230.44 797.74,1251.24 798.738,1246.42 799.735,1229.87 800.732,1222.35 801.73,1210.07 802.727,1202.12 803.725,1215.25 804.722,1209.02 805.72,1222.99 806.717,1218.04 807.715,1223.8 808.712,1218.59 809.71,1219.35 810.707,1212.45 811.705,1233.52 812.702,1228.02 813.699,1223.26 814.697,1216.91 815.694,1212.26 816.692,1203.47 817.689,1215.28 818.687,1210.21 819.684,1238.82 820.682,1232.64 821.679,1216.16 822.677,1210.29 823.674,1213.18 824.672,1206.67 825.669,1228.08 826.667,1222.89 827.664,1233.9 828.661,1228.68 829.659,1236.87 830.656,1231.36 831.654,1228.16 832.651,1222.16 833.649,1243.86 834.646,1239.52 835.644,1246.11 836.641,1239.3 837.639,1264.67 838.636,1258.9 839.634,1263.4 840.631,1256.76 841.628,1242.98 842.626,1237.97 843.623,1270.53 844.621,1264.04 845.618,1271.23 846.616,1265.22 847.613,1295.18 848.611,1290.56 849.608,1295.15 850.606,1290 851.603,1285.08 852.601,1279.02 853.598,1305.26 854.596,1300.32 855.593,1295.49 856.59,1290.06 857.588,1300.26 858.585,1294.59 859.583,1293.34 860.58,1288.98 861.578,1302.44 862.575,1296.82 863.573,1279.51 864.57,1271.9 865.568,1261.5 866.565,1255.66 867.563,1275.86 868.56,1267.98 869.557,1265.51 870.555,1259.39 871.552,1268.75 872.55,1262.24 873.547,1276.43 874.545,1270.05 875.542,1284.82 876.54,1278.71 877.537,1294.68 878.535,1289.97 879.532,1285.4 880.53,1280.32 881.527,1273.21 882.524,1266.87 883.522,1294.08 884.519,1286.82 885.517,1292.39 886.514,1287.58 887.512,1304.31 888.509,1300.55 889.507,1299.78 890.504,1294.23 891.502,1315.01 892.499,1310.99 893.497,1304 894.494,1298.07 895.492,1293.58 896.489,1288.05 897.486,1278.64 898.484,1272.01 899.481,1277.06 900.479,1270.08 901.476,1265.96 902.474,1262.44 903.471,1289.73 904.469,1284.92 905.466,1284.24 906.464,1280.92 907.461,1293.24 908.459,1289.13 909.456,1289.33 910.453,1284.57 911.451,1301.99 912.448,1295.87 913.446,1285.38 914.443,1281.37 915.441,1289.04 916.438,1284.92 917.436,1282.66 918.433,1275.75 919.431,1277.25 920.428,1271.5 921.426,1283.16 922.423,1278.62 923.42,1278.65 924.418,1274.13 925.415,1275.9 926.413,1271.08 927.41,1273.83 928.408,1269.18 929.405,1269.12 930.403,1264.12 931.4,1273.45 932.398,1268.37 933.395,1271.76 934.393,1266.53 935.39,1263.93 936.388,1260.36 937.385,1257.53 938.382,1251.24 939.38,1279.04 940.377,1274.25 941.375,1279.34 942.372,1274.44 943.37,1271.05 944.367,1266.3 945.365,1278.4 946.362,1274.51 947.36,1269.68 948.357,1265.57 949.355,1254.45 950.352,1248.16 951.349,1273.71 952.347,1269.95 953.344,1273.08 954.342,1266.86 955.339,1275.66 956.337,1270.5 957.334,1269.29 958.332,1266.27 959.329,1259.96 960.327,1253.59 961.324,1265.5 962.322,1261.96 963.319,1291.06 964.316,1288.08 965.314,1296.79 966.311,1292.68 967.309,1283.62 968.306,1277.49 969.304,1276.55 970.301,1270.59 971.299,1248.75 972.296,1243.22 973.294,1257.2 974.291,1252.58 975.289,1277.67 976.286,1273.38 977.284,1273.2 978.281,1268.76 979.278,1278.53 980.276,1275.74 981.273,1272.09 982.271,1266.33 983.268,1244.92 984.266,1239.48 985.263,1242.9 986.261,1238.31 987.258,1236.71 988.256,1233.09 989.253,1245.89 990.251,1241.52 991.248,1257.11 992.245,1251.06 993.243,1265.58 994.24,1260.66 995.238,1238.1 996.235,1234.81 997.233,1223.07 998.23,1217.64 999.228,1230.95 1000.23,1226.87 1001.22,1227.64 1002.22,1224.42 1003.22,1231.26 1004.22,1225.17 1005.21,1247.18 1006.21,1244.25 1007.21,1241.59 1008.2,1238.2 1009.2,1247.97 1010.2,1242.86 1011.2,1265.15 1012.19,1261.02 1013.19,1266.15 1014.19,1262.45 1015.19,1259.59 1016.18,1255.14 1017.18,1278.72 1018.18,1276.41 1019.18,1257.43 1020.17,1253.48 1021.17,1260.69 1022.17,1255.95 1023.17,1238.85 1024.16,1234.32 1025.16,1239.6 1026.16,1234.29 1027.16,1234.88 1028.15,1229.92 1029.15,1245.09 1030.15,1238.73 1031.15,1242.05 1032.14,1236.36 1033.14,1249.05 1034.14,1245.26 1035.14,1237.01 1036.13,1231.42 1037.13,1252.88 1038.13,1249.82 1039.13,1255.6 1040.12,1250.99 1041.12,1262.59 1042.12,1258.62 1043.12,1231.65 1044.11,1225.88 1045.11,1223.93 1046.11,1219.75 1047.11,1228.77 1048.1,1223.35 1049.1,1223.23 1050.1,1219.73 1051.1,1232.48 1052.09,1228.23 1053.09,1216.19 1054.09,1211.43 1055.09,1239.38 1056.08,1235.01 1057.08,1234 1058.08,1229.96 1059.08,1255.52 1060.07,1250.92 1061.07,1256.36 1062.07,1250.96 1063.07,1271.93 1064.06,1268.44 1065.06,1273.09 1066.06,1270.91 1067.06,1279.59 1068.05,1275.15 1069.05,1261.44 1070.05,1256.84 1071.05,1260.5 1072.04,1255.48 1073.04,1286.21 1074.04,1281.89 1075.03,1269.08 1076.03,1263.2 1077.03,1264.76 1078.03,1260.02 1079.02,1256.99 1080.02,1254.29 1081.02,1229.1 1082.02,1224.81 1083.01,1244.62 1084.01,1240.22 1085.01,1246.84 1086.01,1241.54 1087,1266.07 1088,1262.32 1089,1259.17 1090,1255.44 1090.99,1256.09 1091.99,1252.28 1092.99,1282.68 1093.99,1279.44 1094.98,1277.32 1095.98,1274.01 1096.98,1252.08 1097.98,1247.33 1098.97,1268.08 1099.97,1263.47 1100.97,1276.72 1101.97,1273.37 1102.96,1265.32 1103.96,1261.15 1104.96,1249.41 1105.96,1244.84 1106.95,1256.48 1107.95,1251.59 1108.95,1264.33 1109.95,1260.41 1110.94,1263.15 1111.94,1258.88 1112.94,1242.15 1113.94,1237.96 1114.93,1236.96 1115.93,1231.79 1116.93,1243.03 1117.93,1239.98 1118.92,1226.96 1119.92,1221.1 1120.92,1232.8 1121.92,1228.88 1122.91,1231.12 1123.91,1226.97 1124.91,1229.27 1125.91,1225.85 1126.9,1232.96 1127.9,1229.1 1128.9,1226.79 1129.9,1222.56 1130.89,1196 1131.89,1190.38 1132.89,1211.59 1133.89,1207.51 1134.88,1203.34 1135.88,1198.63 1136.88,1216.75 1137.88,1212.2 1138.87,1211.34 1139.87,1207.46 1140.87,1190.66 1141.87,1186.94 1142.86,1204.12 1143.86,1198.8 1144.86,1207.28 1145.85,1201.53 1146.85,1212.27 1147.85,1208.25 1148.85,1221.95 1149.84,1216.11 1150.84,1211.44 1151.84,1206.21 1152.84,1220.47 1153.83,1216.04 1154.83,1229.17 1155.83,1225.29 1156.83,1220.91 1157.82,1215.62 1158.82,1237.49 1159.82,1233.33 1160.82,1231.71 1161.81,1227.44 1162.81,1204.25 1163.81,1199.06 1164.81,1234.45 1165.8,1230.42 1166.8,1225.2 1167.8,1221.94 1168.8,1216.95 1169.79,1212.52 1170.79,1222.66 1171.79,1219.24 1172.79,1201.17 1173.78,1195.78 1174.78,1211.2 1175.78,1205.03 1176.78,1203.5 1177.77,1198.25 1178.77,1185.41 1179.77,1182 1180.77,1192.18 1181.76,1188.01 1182.76,1196.48 1183.76,1191.93 1184.76,1214.73 1185.75,1210.03 1186.75,1209.69 1187.75,1207.04 1188.75,1189.16 1189.74,1183.76 1190.74,1188.99 1191.74,1185.2 1192.74,1199.68 1193.73,1194.67 1194.73,1209.85 1195.73,1203.97 1196.73,1198.33 1197.72,1191.51 1198.72,1196.08 1199.72,1192.02 1200.72,1203.2 1201.71,1199.2 1202.71,1211.77 1203.71,1207.2 1204.71,1202.36 1205.7,1196.07 1206.7,1183.95 1207.7,1180.23 1208.7,1189.63 1209.69,1184.05 1210.69,1208.95 1211.69,1204.02 1212.68,1220.61 1213.68,1216.3 1214.68,1224.83 1215.68,1220.76 1216.67,1226.78 1217.67,1221.17 1218.67,1229.26 1219.67,1224.43 1220.66,1218.73 1221.66,1214.22 1222.66,1211.35 1223.66,1204.13 1224.65,1211.26 1225.65,1207.09 1226.65,1207.28 1227.65,1202.76 1228.64,1198.78 1229.64,1194.55 1230.64,1213.27 1231.64,1207.49 1232.63,1238.73 1233.63,1233.96 1234.63,1234.7 1235.63,1230.08 1236.62,1241.24 1237.62,1237.42 1238.62,1238.47 1239.62,1235.44 1240.61,1245.05 1241.61,1240.64 1242.61,1239.32 1243.61,1233.47 1244.6,1248.92 1245.6,1243.16 1246.6,1250.59 1247.6,1245.35 1248.59,1219.24 1249.59,1214.49 1250.59,1225.77 1251.59,1221.38 1252.58,1228 1253.58,1223.52 1254.58,1232.24 1255.58,1230.07 1256.57,1229.42 1257.57,1224.52 1258.57,1223.38 1259.57,1219.14 1260.56,1228.73 1261.56,1224.1 1262.56,1244.43 1263.56,1240.46 1264.55,1250.78 1265.55,1246.14 1266.55,1272.7 1267.55,1269.38 1268.54,1283.42 1269.54,1280.68 1270.54,1262.9 1271.54,1259.81 1272.53,1258.27 1273.53,1254.45 1274.53,1228.72 1275.53,1223.78 1276.52,1248.47 1277.52,1242.21 1278.52,1231.54 1279.51,1226.18 1280.51,1223.33 1281.51,1217.68 1282.51,1217.65 1283.5,1211.86 1284.5,1237.11 1285.5,1231.11 1286.5,1238.85 1287.49,1233.94 1288.49,1234.43 1289.49,1230.3 1290.49,1243.27 1291.48,1238.09 1292.48,1236.45 1293.48,1232.97 1294.48,1262.6 1295.47,1257.65 1296.47,1255.26 1297.47,1248.73 1298.47,1273.32 1299.46,1268.77 1300.46,1299.62 1301.46,1298.14 1302.46,1285.43 1303.45,1281.5 1304.45,1281.2 1305.45,1277.57 1306.45,1286.16 1307.44,1282.7 1308.44,1290.22 1309.44,1285.25 1310.44,1288.49 1311.43,1286.75 1312.43,1267.27 1313.43,1264.41 1314.43,1270.13 1315.42,1266.08 1316.42,1264.03 1317.42,1258.53 1318.42,1241.89 1319.41,1234.72 1320.41,1216.97 1321.41,1209.74 1322.41,1227.01 1323.4,1223.57 1324.4,1238.3 1325.4,1232.48 1326.4,1231.61 1327.39,1224.72 1328.39,1236.04 1329.39,1231.99 1330.39,1261.89 1331.38,1256.61 1332.38,1258.84 1333.38,1253.4 1334.38,1267.55 1335.37,1264.28 1336.37,1271.8 1337.37,1268.52 1338.37,1272.59 1339.36,1267.51 1340.36,1268.96 1341.36,1264.36 1342.36,1260.11 1343.35,1255.97 1344.35,1256.77 1345.35,1252.39 1346.35,1290.12 1347.34,1285.66 1348.34,1269.15 1349.34,1264.47 1350.33,1234.83 1351.33,1228.2 1352.33,1251.31 1353.33,1246.68 1354.32,1275.49 1355.32,1271.5 1356.32,1267.07 1357.32,1262.37 1358.31,1249.76 1359.31,1245.62 1360.31,1259.8 1361.31,1255.64 1362.3,1263.78 1363.3,1260.13 1364.3,1252.8 1365.3,1247.67 1366.29,1257.67 1367.29,1253.5 1368.29,1247.88 1369.29,1242.76 1370.28,1227.85 1371.28,1223.09 1372.28,1242.57 1373.28,1238.92 1374.27,1238.08 1375.27,1232.88 1376.27,1249.83 1377.27,1244.95 1378.26,1218.38 1379.26,1211 1380.26,1223.49 1381.26,1219.44 1382.25,1215.11 1383.25,1210.67 1384.25,1233.41 1385.25,1229.68 1386.24,1235.78 1387.24,1231.7 1388.24,1229.5 1389.24,1223.39 1390.23,1247.86 1391.23,1242.61 1392.23,1246.44 1393.23,1242.64 1394.22,1247.44 1395.22,1242.89 1396.22,1237.37 1397.22,1231.45 1398.21,1227.48 1399.21,1221.5 1400.21,1242.02 1401.21,1237.67 1402.2,1252.78 1403.2,1248.55 1404.2,1280.07 1405.2,1276.23 1406.19,1278.07 1407.19,1275.08 1408.19,1249.61 1409.19,1243.98 1410.18,1238.39 1411.18,1233.65 1412.18,1232.75 1413.18,1227.59 1414.17,1238.04 1415.17,1233.67 1416.17,1241.31 1417.16,1236.74 1418.16,1227.62 1419.16,1223.39 1420.16,1249.77 1421.15,1245.82 1422.15,1218.98 1423.15,1212.53 1424.15,1199.62 1425.14,1195.57 1426.14,1214.28 1427.14,1208.56 1428.14,1204.78 1429.13,1199.2 1430.13,1186.04 1431.13,1180.78 1432.13,1189.87 1433.12,1184.5 1434.12,1198.26 1435.12,1193.8 1436.12,1201.25 1437.11,1195.49 1438.11,1210.53 1439.11,1205.3 1440.11,1217.6 1441.1,1214.14 1442.1,1214.01 1443.1,1208.79 1444.1,1238.38 1445.09,1234.92 1446.09,1200 1447.09,1194.75 1448.09,1216.92 1449.08,1210.23 1450.08,1207.78 1451.08,1202.67 1452.08,1197.55 1453.07,1192.33 1454.07,1226.08 1455.07,1222.02 1456.07,1206.46 1457.06,1202.69 1458.06,1204.97 1459.06,1199.39 1460.06,1219.87 1461.05,1214.19 1462.05,1185.05 1463.05,1180.26 1464.05,1188.85 1465.04,1184.25 1466.04,1175.62 1467.04,1169.95 1468.04,1179.29 1469.03,1173.67 1470.03,1201.73 1471.03,1197.02 1472.03,1208.78 1473.02,1202.31 1474.02,1202.23 1475.02,1196.43 1476.02,1230.13 1477.01,1226.3 1478.01,1213.13 1479.01,1206.36 1480.01,1211.03 1481,1205.74 1482,1200.83 1483,1196.48 1484,1224.78 1484.99,1220.27 1485.99,1212.95 1486.99,1207.1 1487.98,1205.92 1488.98,1201.71 1489.98,1194.85 1490.98,1188.53 1491.97,1196.44 1492.97,1191.04 1493.97,1219.35 1494.97,1214.91 1495.96,1247.46 1496.96,1242.94 1497.96,1223.98 1498.96,1218.54 1499.95,1227.83 1500.95,1224.72 1501.95,1220.6 1502.95,1217.35 1503.94,1221.57 1504.94,1216.33 1505.94,1219.15 1506.94,1214.34 1507.93,1228.04 1508.93,1223.11 1509.93,1225.7 1510.93,1219.6 1511.92,1228.47 1512.92,1223.96 1513.92,1240.22 1514.92,1233.48 1515.91,1260.81 1516.91,1255.44 1517.91,1256.12 1518.91,1250.85 1519.9,1253.57 1520.9,1248.67 1521.9,1227.31 1522.9,1221.54 1523.89,1227.35 1524.89,1221.57 1525.89,1222.14 1526.89,1215.8 1527.88,1243.03 1528.88,1238.09 1529.88,1261.88 1530.88,1256.2 1531.87,1231.08 1532.87,1225.4 1533.87,1213.61 1534.87,1208.6 1535.86,1217.52 1536.86,1212.2 1537.86,1201.43 1538.86,1194.87 1539.85,1213.39 1540.85,1208.14 1541.85,1208.67 1542.85,1204.38 1543.84,1216.74 1544.84,1212.89 1545.84,1227.84 1546.84,1223.2 1547.83,1199.43 1548.83,1194.43 1549.83,1210.47 1550.83,1206.28 1551.82,1202.81 1552.82,1197.31 1553.82,1211.39 1554.81,1207.73 1555.81,1238.55 1556.81,1232.69 1557.81,1228.19 1558.8,1223.13 1559.8,1239.95 1560.8,1235.49 1561.8,1242.5 1562.79,1237.57 1563.79,1225.02 1564.79,1220.61 1565.79,1240.51 1566.78,1235.99 1567.78,1248.52 1568.78,1241.84 1569.78,1249.08 1570.77,1242.79 1571.77,1246.12 1572.77,1241.41 1573.77,1226.89 1574.76,1221.31 1575.76,1242.43 1576.76,1236.61 1577.76,1248.04 1578.75,1242.89 1579.75,1227.69 1580.75,1222.06 1581.75,1242.88 1582.74,1237.54 1583.74,1244.75 1584.74,1235.98 1585.74,1247.58 1586.73,1241.8 1587.73,1274.07 1588.73,1270.12 1589.73,1261.14 1590.72,1254.78 1591.72,1266.6 1592.72,1261.37 1593.72,1260.9 1594.71,1256.61 1595.71,1273.46 1596.71,1268 1597.71,1273.16 1598.7,1268.1 1599.7,1264.83 1600.7,1259.71 1601.7,1257.26 1602.69,1252.91 1603.69,1267.92 1604.69,1262.95 1605.69,1278.94 1606.68,1273.85 1607.68,1268.36 1608.68,1261.8 1609.68,1273.12 1610.67,1267.25 1611.67,1264.6 1612.67,1259.17 1613.67,1270.45 1614.66,1264.91 1615.66,1266.84 1616.66,1261.69 1617.66,1267.19 1618.65,1261.8 1619.65,1254.23 1620.65,1249.04 1621.65,1241.23 1622.64,1235.27 1623.64,1247.7 1624.64,1242.57 1625.63,1243.92 1626.63,1239.6 1627.63,1217.74 1628.63,1211.77 1629.62,1249.64 1630.62,1245.62 1631.62,1239.51 1632.62,1235.32 1633.61,1238.6 1634.61,1233.11 1635.61,1272.21 1636.61,1266.36 1637.6,1242.99 1638.6,1237.6 1639.6,1276.11 1640.6,1272.26 1641.59,1271.94 1642.59,1268.27 1643.59,1277.75 1644.59,1271.91 1645.58,1253.6 1646.58,1248.2 1647.58,1253.5 1648.58,1249.98 1649.57,1276.14 1650.57,1272.9 1651.57,1287.85 1652.57,1283.03 1653.56,1292.18 1654.56,1288.12 1655.56,1294.04 1656.56,1287.99 1657.55,1275.47 1658.55,1270.45 1659.55,1293.94 1660.55,1289.88 1661.54,1304.01 1662.54,1297.62 1663.54,1283.44 1664.54,1279.59 1665.53,1290.07 1666.53,1285.62 1667.53,1286.87 1668.53,1282.41 1669.52,1283.62 1670.52,1280.12 1671.52,1261.72 1672.52,1257.94 1673.51,1285.63 1674.51,1281.34 1675.51,1261.79 1676.51,1257.66 1677.5,1271.19 1678.5,1267.55 1679.5,1232.92 1680.5,1225.92 1681.49,1264.61 1682.49,1260.4 1683.49,1248.82 1684.49,1245.78 1685.48,1265.82 1686.48,1262.59 1687.48,1223.5 1688.48,1218.18 1689.47,1237.44 1690.47,1231.93 1691.47,1252.72 1692.46,1245.03 1693.46,1267.93 1694.46,1263 1695.46,1260.04 1696.45,1255.59 1697.45,1284.82 1698.45,1280.65 1699.45,1282.52 1700.44,1277.33 1701.44,1288.19 1702.44,1283.88 1703.44,1278.26 1704.43,1273.03 1705.43,1276.12 1706.43,1272.3 1707.43,1279.69 1708.42,1276.54 1709.42,1268.24 1710.42,1264.68 1711.42,1278.28 1712.41,1275.17 1713.41,1281 1714.41,1278.66 1715.41,1276.05 1716.4,1272.74 1717.4,1257.74 1718.4,1253.5 1719.4,1248.3 1720.39,1243.5 1721.39,1252.81 1722.39,1247.71 1723.39,1254.27 1724.38,1250.72 1725.38,1256.09 1726.38,1250.57 1727.38,1256.47 1728.37,1252.08 1729.37,1256.89 1730.37,1252.05 1731.37,1263.86 1732.36,1259.32 1733.36,1264.25 1734.36,1260.18 1735.36,1267.15 1736.35,1262.74 1737.35,1258.24 1738.35,1255.15 1739.35,1275.92 1740.34,1273.07 1741.34,1269.91 1742.34,1265.69 1743.34,1283.17 1744.33,1280.2 1745.33,1286.23 1746.33,1281.91 1747.33,1295.94 1748.32,1292.35 1749.32,1282.33 1750.32,1278.48 1751.32,1267.1 1752.31,1262.11 1753.31,1267.59 1754.31,1263.66 1755.31,1266.63 1756.3,1261.83 1757.3,1250.99 1758.3,1245.11 1759.29,1250.99 1760.29,1246.56 1761.29,1247.1 1762.29,1241.94 1763.28,1252.05 1764.28,1248.04 1765.28,1242.25 1766.28,1238.89 1767.27,1239.23 1768.27,1235.26 1769.27,1223.84 1770.27,1218.78 1771.26,1231.52 1772.26,1227.32 1773.26,1237.65 1774.26,1232.19 1775.25,1257.8 1776.25,1253.46 1777.25,1253.71 1778.25,1249.09 1779.24,1238.84 1780.24,1233.35 1781.24,1235.17 1782.24,1230.92 1783.23,1242.91 1784.23,1237.95 1785.23,1244.72 1786.23,1239.43 1787.22,1250.56 1788.22,1245.72 1789.22,1274.62 1790.22,1273.03 1791.21,1271.18 1792.21,1267.15 1793.21,1266.41 1794.21,1262.21 1795.2,1269.69 1796.2,1267.06 1797.2,1274.13 1798.2,1270.43 1799.19,1271.57 1800.19,1267.05 1801.19,1258.05 1802.19,1252.49 1803.18,1239.75 1804.18,1234.52 1805.18,1251.4 1806.18,1247.85 1807.17,1222.45 1808.17,1216.1 1809.17,1222.95 1810.17,1218.48 1811.16,1228.95 1812.16,1224.45 1813.16,1222.77 1814.16,1216.8 1815.15,1229.44 1816.15,1225.32 1817.15,1244.06 1818.15,1240.66 1819.14,1241.06 1820.14,1236.24 1821.14,1236.25 1822.14,1232.24 1823.13,1252.32 1824.13,1246.03 1825.13,1266.4 1826.13,1263.2 1827.12,1265.78 1828.12,1261.2 1829.12,1258.59 1830.11,1253.74 1831.11,1248.17 1832.11,1243.83 1833.11,1260.34 1834.1,1254.63 1835.1,1247.31 1836.1,1243.6 1837.1,1253.29 1838.09,1250.23 1839.09,1234.35 1840.09,1229.43 1841.09,1231.01 1842.08,1226.1 1843.08,1246.04 1844.08,1241.76 1845.08,1252.15 1846.07,1249.48 1847.07,1229.05 1848.07,1222.21 1849.07,1228.68 1850.06,1223.74 1851.06,1241.04 1852.06,1237.38 1853.06,1222.86 1854.05,1219.19 1855.05,1223.98 1856.05,1220.32 1857.05,1210.01 1858.04,1205.55 1859.04,1206.92 1860.04,1202.36 1861.04,1205.09 1862.03,1198.75 1863.03,1208.78 1864.03,1204.03 1865.03,1204.85 1866.02,1199.67 1867.02,1191.36 1868.02,1184.58 1869.02,1196.46 1870.01,1191.38 1871.01,1217.16 1872.01,1212.67 1873.01,1212.45 1874,1207.63 1875,1206.64 1876,1199.18 1877,1214.93 1877.99,1208.97 1878.99,1215.98 1879.99,1210.89 1880.99,1229.64 1881.98,1224.59 1882.98,1207.89 1883.98,1202.15 1884.98,1215.28 1885.97,1210.64 1886.97,1224.04 1887.97,1219.39 1888.97,1213.12 1889.96,1208.58 1890.96,1217.61 1891.96,1212.8 1892.96,1228.48 1893.95,1222.52 1894.95,1212.26 1895.95,1207.48 1896.94,1226.3 1897.94,1222.39 1898.94,1223.08 1899.94,1218.17 1900.93,1228.85 1901.93,1223.81 1902.93,1203.75 1903.93,1199.65 1904.92,1210.89 1905.92,1205.78 1906.92,1222.83 1907.92,1218.11 1908.91,1214.17 1909.91,1208.15 1910.91,1199.97 1911.91,1194.99 1912.9,1210.11 1913.9,1205.47 1914.9,1216.74 1915.9,1211.73 1916.89,1216.81 1917.89,1212.37 1918.89,1219.71 1919.89,1215.83 1920.88,1216.69 1921.88,1212.34 1922.88,1235.78 1923.88,1231.6 1924.87,1236.26 1925.87,1232.16 1926.87,1231.44 1927.87,1228.16 1928.86,1223.99 1929.86,1218.17 1930.86,1227.59 1931.86,1221.74 1932.85,1221.27 1933.85,1216.35 1934.85,1194.95 1935.85,1189.05 1936.84,1211.85 1937.84,1207.49 1938.84,1246.3 1939.84,1241.82 1940.83,1238.11 1941.83,1233.28 1942.83,1239.17 1943.83,1236.03 1944.82,1241.16 1945.82,1236.9 1946.82,1255.37 1947.82,1250.62 1948.81,1243.59 1949.81,1239.07 1950.81,1230.39 1951.81,1224.44 1952.8,1239.47 1953.8,1235.98 1954.8,1229.03 1955.8,1226.03 1956.79,1227.12 1957.79,1223.76 1958.79,1233.61 1959.79,1228.32 1960.78,1215.54 1961.78,1210.7 1962.78,1199.81 1963.78,1195.03 1964.77,1198.81 1965.77,1192.9 1966.77,1216.2 1967.76,1211.36 1968.76,1194.17 1969.76,1189.78 1970.76,1207.42 1971.75,1203.8 1972.75,1202.07 1973.75,1197.29 1974.75,1200.52 1975.74,1196.62 1976.74,1183.29 1977.74,1177.72 1978.74,1183.92 1979.73,1178.87 1980.73,1195.66 1981.73,1190.18 1982.73,1194.69 1983.72,1191.15 1984.72,1198.35 1985.72,1193.44 1986.72,1240.3 1987.71,1236.34 1988.71,1240.6 1989.71,1236.02 1990.71,1254.81 1991.7,1251.15 1992.7,1245.21 1993.7,1241.65 1994.7,1233.02 1995.69,1229.51 1996.69,1252.82 1997.69,1249.53 1998.69,1258.27 1999.68,1256.05 2000.68,1256.23 2001.68,1252.46 2002.68,1252.62 2003.67,1248.46 2004.67,1274.86 2005.67,1271.93 2006.67,1245.13 2007.66,1241.84 2008.66,1239.77 2009.66,1236.2 2010.66,1229.53 2011.65,1225.89 2012.65,1232.26 2013.65,1227.06 2014.65,1247.73 2015.64,1243.85 2016.64,1244.44 2017.64,1241.77 2018.64,1249.14 2019.63,1245.28 2020.63,1249.35 2021.63,1244.22 2022.63,1250.93 2023.62,1247.17 2024.62,1249.82 2025.62,1245.49 2026.62,1223.05 2027.61,1218.71 2028.61,1225.14 2029.61,1222.24 2030.61,1229.22 2031.6,1225.62 2032.6,1227.49 2033.6,1223.88 2034.59,1202.13 2035.59,1197.64 2036.59,1198.51 2037.59,1193.81 2038.58,1196.38 2039.58,1192.09 2040.58,1193.42 2041.58,1188.54 2042.57,1202.55 2043.57,1198.47 2044.57,1208.43 2045.57,1204.46 2046.56,1234.28 2047.56,1231.41 2048.56,1224.97 2049.56,1220.59 2050.55,1200.44 2051.55,1195.95 2052.55,1226.33 2053.55,1223.31 2054.54,1215.81 2055.54,1212.2 2056.54,1207.93 2057.54,1204.07 2058.53,1182.69 2059.53,1177.7 2060.53,1204.36 2061.53,1201.67 2062.52,1205.57 2063.52,1200.93 2064.52,1215.56 2065.52,1212.58 2066.51,1217.15 2067.51,1215.19 2068.51,1193.96 2069.51,1189.76 2070.5,1202.72 2071.5,1197.73 2072.5,1204.41 2073.5,1200.84 2074.49,1228.38 2075.49,1225.82 2076.49,1218.51 2077.49,1213.27 2078.48,1225.61 2079.48,1221.45 2080.48,1204.18 2081.48,1200.36 2082.47,1200.68 2083.47,1195.9 2084.47,1206.23 2085.47,1201.38 2086.46,1238.77 2087.46,1235.93 2088.46,1223.09 2089.46,1220.71 2090.45,1191.69 2091.45,1186.51 2092.45,1208.93 2093.45,1205.1 2094.44,1206.97 2095.44,1201.88 2096.44,1212.66 2097.44,1209.94 2098.43,1200.24 2099.43,1196.63 2100.43,1199.92 2101.43,1195.35 2102.42,1218.31 2103.42,1214.41 2104.42,1207.3 2105.41,1202.97 2106.41,1208.08 2107.41,1202.32 2108.41,1212.8 2109.4,1208.59 2110.4,1192.42 2111.4,1187.19 2112.4,1191.1 2113.39,1187.14 2114.39,1188.57 2115.39,1183.19 2116.39,1198.82 2117.38,1194.7 2118.38,1211.14 2119.38,1207.8 2120.38,1216.38 2121.37,1212.46 2122.37,1218.78 2123.37,1214.48 2124.37,1208.6 2125.36,1204.18 2126.36,1247.93 2127.36,1244.87 2128.36,1249.82 2129.35,1246.69 2130.35,1221.22 2131.35,1217.14 2132.35,1220.61 2133.34,1216.1 2134.34,1221.73 2135.34,1217.31 2136.34,1235.5 2137.33,1230.97 2138.33,1228.29 2139.33,1225.13 2140.33,1234.28 2141.32,1231.2 2142.32,1206.94 2143.32,1202.62 2144.32,1203.11 2145.31,1198.77 2146.31,1209.12 2147.31,1204.44 2148.31,1213.06 2149.3,1210.63 2150.3,1214.5 2151.3,1210.17 2152.3,1232.64 2153.29,1229.63 2154.29,1210.1 2155.29,1205.71 2156.29,1209.11 2157.28,1205 2158.28,1211.71 2159.28,1207.75 2160.28,1205.79 2161.27,1202.63 2162.27,1188.43 2163.27,1183.08 2164.27,1187.97 2165.26,1183.14 2166.26,1187.43 2167.26,1183.12 2168.26,1193.97 2169.25,1189.77 2170.25,1210.25 2171.25,1206.61 2172.24,1219.94 2173.24,1218.37 2174.24,1194.19 2175.24,1190.5 2176.23,1184.7 2177.23,1180.24 2178.23,1184.5 2179.23,1180.88 2180.22,1199.28 2181.22,1195.62 2182.22,1205.07 2183.22,1201.04 2184.21,1174.04 2185.21,1168.56 2186.21,1196.36 2187.21,1193.35 2188.2,1191.3 2189.2,1187.72 2190.2,1197.19 2191.2,1193.38 2192.19,1197.36 2193.19,1193.23 2194.19,1211.99 2195.19,1208.45 2196.18,1199.03 2197.18,1192.96 2198.18,1185.17 2199.18,1180.71 2200.17,1194.99 2201.17,1190.46 2202.17,1187.37 2203.17,1184.47 2204.16,1199.82 2205.16,1196.64 2206.16,1184.28 2207.16,1179.54 2208.15,1163.39 2209.15,1158.43 2210.15,1191.23 2211.15,1187.53 2212.14,1185.97 2213.14,1183.06 2214.14,1174.89 2215.14,1170.87 2216.13,1180.25 2217.13,1175.83 2218.13,1203.93 2219.13,1199.49 2220.12,1207.58 2221.12,1201.74 2222.12,1213.16 2223.12,1206.89 2224.11,1212.23 2225.11,1206.29 2226.11,1201.14 2227.11,1196.63 2228.1,1177.46 2229.1,1173.92 2230.1,1176.31 2231.1,1171.74 2232.09,1176.98 2233.09,1171.63 2234.09,1174.69 2235.09,1169.94 2236.08,1157.53 2237.08,1151.96 2238.08,1175.73 2239.07,1170.61 2240.07,1173.27 2241.07,1170.16 2242.07,1162.39 2243.06,1157.14 2244.06,1155.69 2245.06,1151.12 2246.06,1166.63 2247.05,1162.36 2248.05,1172.36 2249.05,1168.51 2250.05,1166.4 2251.04,1162.72 2252.04,1147.46 2253.04,1142.03 2254.04,1160.83 2255.03,1157.38 2256.03,1145.07 2257.03,1141.94 2258.03,1151.7 2259.02,1146.56 2260.02,1152.2 2261.02,1147.28 2262.02,1149.04 2263.01,1144.05 2264.01,1161.26 2265.01,1156.55 2266.01,1165.81 2267,1159.97 2268,1161.95 2269,1156.33 2270,1165.51 2270.99,1159.55 2271.99,1168.62 2272.99,1163.34 2273.99,1177.93 2274.98,1174 2275.98,1195.88 2276.98,1191.3 2277.98,1179.37 2278.97,1175.3 2279.97,1205.12 2280.97,1201.32 2281.97,1191.11 2282.96,1187.21 2283.96,1193.4 2284.96,1189.9 2285.96,1208.47 2286.95,1205.39 2287.95,1202.75 2288.95,1197.94 2289.95,1187.63 2290.94,1181.83 2291.94,1195.27 2292.94,1190.31 "/>
<path clip-path="url(#clip190)" d="M2018.52 198.898 L2282.3 198.898 L2282.3 95.2176 L2018.52 95.2176  Z" fill="#ffffff" fill-rule="evenodd" fill-opacity="1"/>
<polyline clip-path="url(#clip190)" style="stroke:#000000; stroke-linecap:round; stroke-linejoin:round; stroke-width:4; stroke-opacity:1; fill:none" points="2018.52,198.898 2282.3,198.898 2282.3,95.2176 2018.52,95.2176 2018.52,198.898 "/>
<polyline clip-path="url(#clip190)" style="stroke:#009af9; stroke-linecap:round; stroke-linejoin:round; stroke-width:4; stroke-opacity:1; fill:none" points="2042,147.058 2182.91,147.058 "/>
<path clip-path="url(#clip190)" d="M2220.23 166.745 Q2218.43 171.375 2216.71 172.787 Q2215 174.199 2212.13 174.199 L2208.73 174.199 L2208.73 170.634 L2211.23 170.634 Q2212.99 170.634 2213.96 169.8 Q2214.93 168.967 2216.11 165.865 L2216.88 163.921 L2206.39 138.412 L2210.9 138.412 L2219.01 158.689 L2227.11 138.412 L2231.62 138.412 L2220.23 166.745 Z" fill="#000000" fill-rule="nonzero" fill-opacity="1" /><path clip-path="url(#clip190)" d="M2238.91 160.402 L2246.55 160.402 L2246.55 134.037 L2238.24 135.703 L2238.24 131.444 L2246.5 129.778 L2251.18 129.778 L2251.18 160.402 L2258.82 160.402 L2258.82 164.338 L2238.91 164.338 L2238.91 160.402 Z" fill="#000000" fill-rule="nonzero" fill-opacity="1" /></svg>
