<?xml version="1.0" encoding="utf-8"?>
<svg xmlns="http://www.w3.org/2000/svg" xmlns:xlink="http://www.w3.org/1999/xlink" width="600" height="400" viewBox="0 0 2400 1600">
<defs>
  <clipPath id="clip790">
    <rect x="0" y="0" width="2400" height="1600"/>
  </clipPath>
</defs>
<path clip-path="url(#clip790)" d="M0 1600 L2400 1600 L2400 0 L0 0  Z" fill="#ffffff" fill-rule="evenodd" fill-opacity="1"/>
<defs>
  <clipPath id="clip791">
    <rect x="480" y="0" width="1681" height="1600"/>
  </clipPath>
</defs>
<path clip-path="url(#clip790)" d="M156.02 1486.45 L2352.76 1486.45 L2352.76 47.2441 L156.02 47.2441  Z" fill="#ffffff" fill-rule="evenodd" fill-opacity="1"/>
<defs>
  <clipPath id="clip792">
    <rect x="156" y="47" width="2198" height="1440"/>
  </clipPath>
</defs>
<polyline clip-path="url(#clip792)" style="stroke:#000000; stroke-linecap:round; stroke-linejoin:round; stroke-width:2; stroke-opacity:0.1; fill:none" points="218.191,1486.45 218.191,47.2441 "/>
<polyline clip-path="url(#clip792)" style="stroke:#000000; stroke-linecap:round; stroke-linejoin:round; stroke-width:2; stroke-opacity:0.1; fill:none" points="736.808,1486.45 736.808,47.2441 "/>
<polyline clip-path="url(#clip792)" style="stroke:#000000; stroke-linecap:round; stroke-linejoin:round; stroke-width:2; stroke-opacity:0.1; fill:none" points="1255.42,1486.45 1255.42,47.2441 "/>
<polyline clip-path="url(#clip792)" style="stroke:#000000; stroke-linecap:round; stroke-linejoin:round; stroke-width:2; stroke-opacity:0.1; fill:none" points="1774.04,1486.45 1774.04,47.2441 "/>
<polyline clip-path="url(#clip792)" style="stroke:#000000; stroke-linecap:round; stroke-linejoin:round; stroke-width:2; stroke-opacity:0.1; fill:none" points="2292.66,1486.45 2292.66,47.2441 "/>
<polyline clip-path="url(#clip790)" style="stroke:#000000; stroke-linecap:round; stroke-linejoin:round; stroke-width:4; stroke-opacity:1; fill:none" points="156.02,1486.45 2352.76,1486.45 "/>
<polyline clip-path="url(#clip790)" style="stroke:#000000; stroke-linecap:round; stroke-linejoin:round; stroke-width:4; stroke-opacity:1; fill:none" points="218.191,1486.45 218.191,1467.55 "/>
<polyline clip-path="url(#clip790)" style="stroke:#000000; stroke-linecap:round; stroke-linejoin:round; stroke-width:4; stroke-opacity:1; fill:none" points="736.808,1486.45 736.808,1467.55 "/>
<polyline clip-path="url(#clip790)" style="stroke:#000000; stroke-linecap:round; stroke-linejoin:round; stroke-width:4; stroke-opacity:1; fill:none" points="1255.42,1486.45 1255.42,1467.55 "/>
<polyline clip-path="url(#clip790)" style="stroke:#000000; stroke-linecap:round; stroke-linejoin:round; stroke-width:4; stroke-opacity:1; fill:none" points="1774.04,1486.45 1774.04,1467.55 "/>
<polyline clip-path="url(#clip790)" style="stroke:#000000; stroke-linecap:round; stroke-linejoin:round; stroke-width:4; stroke-opacity:1; fill:none" points="2292.66,1486.45 2292.66,1467.55 "/>
<path clip-path="url(#clip790)" d="M218.191 1517.37 Q214.58 1517.37 212.752 1520.93 Q210.946 1524.47 210.946 1531.6 Q210.946 1538.71 212.752 1542.27 Q214.58 1545.82 218.191 1545.82 Q221.826 1545.82 223.631 1542.27 Q225.46 1538.71 225.46 1531.6 Q225.46 1524.47 223.631 1520.93 Q221.826 1517.37 218.191 1517.37 M218.191 1513.66 Q224.001 1513.66 227.057 1518.27 Q230.136 1522.85 230.136 1531.6 Q230.136 1540.33 227.057 1544.94 Q224.001 1549.52 218.191 1549.52 Q212.381 1549.52 209.302 1544.94 Q206.247 1540.33 206.247 1531.6 Q206.247 1522.85 209.302 1518.27 Q212.381 1513.66 218.191 1513.66 Z" fill="#000000" fill-rule="nonzero" fill-opacity="1" /><path clip-path="url(#clip790)" d="M700.5 1544.91 L716.82 1544.91 L716.82 1548.85 L694.875 1548.85 L694.875 1544.91 Q697.538 1542.16 702.121 1537.53 Q706.727 1532.88 707.908 1531.53 Q710.153 1529.01 711.033 1527.27 Q711.936 1525.51 711.936 1523.82 Q711.936 1521.07 709.991 1519.33 Q708.07 1517.6 704.968 1517.6 Q702.769 1517.6 700.315 1518.36 Q697.885 1519.13 695.107 1520.68 L695.107 1515.95 Q697.931 1514.82 700.385 1514.24 Q702.838 1513.66 704.875 1513.66 Q710.246 1513.66 713.44 1516.35 Q716.635 1519.03 716.635 1523.52 Q716.635 1525.65 715.824 1527.57 Q715.037 1529.47 712.931 1532.07 Q712.352 1532.74 709.25 1535.95 Q706.149 1539.15 700.5 1544.91 Z" fill="#000000" fill-rule="nonzero" fill-opacity="1" /><path clip-path="url(#clip790)" d="M726.681 1514.29 L745.037 1514.29 L745.037 1518.22 L730.963 1518.22 L730.963 1526.7 Q731.982 1526.35 733 1526.19 Q734.019 1526 735.037 1526 Q740.824 1526 744.204 1529.17 Q747.584 1532.34 747.584 1537.76 Q747.584 1543.34 744.111 1546.44 Q740.639 1549.52 734.32 1549.52 Q732.144 1549.52 729.875 1549.15 Q727.63 1548.78 725.223 1548.04 L725.223 1543.34 Q727.306 1544.47 729.528 1545.03 Q731.75 1545.58 734.227 1545.58 Q738.232 1545.58 740.57 1543.48 Q742.908 1541.37 742.908 1537.76 Q742.908 1534.15 740.57 1532.04 Q738.232 1529.94 734.227 1529.94 Q732.352 1529.94 730.477 1530.35 Q728.625 1530.77 726.681 1531.65 L726.681 1514.29 Z" fill="#000000" fill-rule="nonzero" fill-opacity="1" /><path clip-path="url(#clip790)" d="M766.796 1517.37 Q763.185 1517.37 761.357 1520.93 Q759.551 1524.47 759.551 1531.6 Q759.551 1538.71 761.357 1542.27 Q763.185 1545.82 766.796 1545.82 Q770.431 1545.82 772.236 1542.27 Q774.065 1538.71 774.065 1531.6 Q774.065 1524.47 772.236 1520.93 Q770.431 1517.37 766.796 1517.37 M766.796 1513.66 Q772.607 1513.66 775.662 1518.27 Q778.741 1522.85 778.741 1531.6 Q778.741 1540.33 775.662 1544.94 Q772.607 1549.52 766.796 1549.52 Q760.986 1549.52 757.908 1544.94 Q754.852 1540.33 754.852 1531.6 Q754.852 1522.85 757.908 1518.27 Q760.986 1513.66 766.796 1513.66 Z" fill="#000000" fill-rule="nonzero" fill-opacity="1" /><path clip-path="url(#clip790)" d="M1215.04 1514.29 L1233.4 1514.29 L1233.4 1518.22 L1219.33 1518.22 L1219.33 1526.7 Q1220.34 1526.35 1221.36 1526.19 Q1222.38 1526 1223.4 1526 Q1229.19 1526 1232.57 1529.17 Q1235.95 1532.34 1235.95 1537.76 Q1235.95 1543.34 1232.47 1546.44 Q1229 1549.52 1222.68 1549.52 Q1220.51 1549.52 1218.24 1549.15 Q1215.99 1548.78 1213.58 1548.04 L1213.58 1543.34 Q1215.67 1544.47 1217.89 1545.03 Q1220.11 1545.58 1222.59 1545.58 Q1226.59 1545.58 1228.93 1543.48 Q1231.27 1541.37 1231.27 1537.76 Q1231.27 1534.15 1228.93 1532.04 Q1226.59 1529.94 1222.59 1529.94 Q1220.71 1529.94 1218.84 1530.35 Q1216.99 1530.77 1215.04 1531.65 L1215.04 1514.29 Z" fill="#000000" fill-rule="nonzero" fill-opacity="1" /><path clip-path="url(#clip790)" d="M1255.16 1517.37 Q1251.55 1517.37 1249.72 1520.93 Q1247.91 1524.47 1247.91 1531.6 Q1247.91 1538.71 1249.72 1542.27 Q1251.55 1545.82 1255.16 1545.82 Q1258.79 1545.82 1260.6 1542.27 Q1262.43 1538.71 1262.43 1531.6 Q1262.43 1524.47 1260.6 1520.93 Q1258.79 1517.37 1255.16 1517.37 M1255.16 1513.66 Q1260.97 1513.66 1264.02 1518.27 Q1267.1 1522.85 1267.1 1531.6 Q1267.1 1540.33 1264.02 1544.94 Q1260.97 1549.52 1255.16 1549.52 Q1249.35 1549.52 1246.27 1544.94 Q1243.21 1540.33 1243.21 1531.6 Q1243.21 1522.85 1246.27 1518.27 Q1249.35 1513.66 1255.16 1513.66 Z" fill="#000000" fill-rule="nonzero" fill-opacity="1" /><path clip-path="url(#clip790)" d="M1285.32 1517.37 Q1281.71 1517.37 1279.88 1520.93 Q1278.08 1524.47 1278.08 1531.6 Q1278.08 1538.71 1279.88 1542.27 Q1281.71 1545.82 1285.32 1545.82 Q1288.95 1545.82 1290.76 1542.27 Q1292.59 1538.71 1292.59 1531.6 Q1292.59 1524.47 1290.76 1520.93 Q1288.95 1517.37 1285.32 1517.37 M1285.32 1513.66 Q1291.13 1513.66 1294.19 1518.27 Q1297.27 1522.85 1297.27 1531.6 Q1297.27 1540.33 1294.19 1544.94 Q1291.13 1549.52 1285.32 1549.52 Q1279.51 1549.52 1276.43 1544.94 Q1273.38 1540.33 1273.38 1531.6 Q1273.38 1522.85 1276.43 1518.27 Q1279.51 1513.66 1285.32 1513.66 Z" fill="#000000" fill-rule="nonzero" fill-opacity="1" /><path clip-path="url(#clip790)" d="M1732.32 1514.29 L1754.54 1514.29 L1754.54 1516.28 L1741.99 1548.85 L1737.11 1548.85 L1748.91 1518.22 L1732.32 1518.22 L1732.32 1514.29 Z" fill="#000000" fill-rule="nonzero" fill-opacity="1" /><path clip-path="url(#clip790)" d="M1763.71 1514.29 L1782.06 1514.29 L1782.06 1518.22 L1767.99 1518.22 L1767.99 1526.7 Q1769.01 1526.35 1770.03 1526.19 Q1771.04 1526 1772.06 1526 Q1777.85 1526 1781.23 1529.17 Q1784.61 1532.34 1784.61 1537.76 Q1784.61 1543.34 1781.14 1546.44 Q1777.66 1549.52 1771.35 1549.52 Q1769.17 1549.52 1766.9 1549.15 Q1764.66 1548.78 1762.25 1548.04 L1762.25 1543.34 Q1764.33 1544.47 1766.55 1545.03 Q1768.78 1545.58 1771.25 1545.58 Q1775.26 1545.58 1777.59 1543.48 Q1779.93 1541.37 1779.93 1537.76 Q1779.93 1534.15 1777.59 1532.04 Q1775.26 1529.94 1771.25 1529.94 Q1769.38 1529.94 1767.5 1530.35 Q1765.65 1530.77 1763.71 1531.65 L1763.71 1514.29 Z" fill="#000000" fill-rule="nonzero" fill-opacity="1" /><path clip-path="url(#clip790)" d="M1803.82 1517.37 Q1800.21 1517.37 1798.38 1520.93 Q1796.58 1524.47 1796.58 1531.6 Q1796.58 1538.71 1798.38 1542.27 Q1800.21 1545.82 1803.82 1545.82 Q1807.46 1545.82 1809.26 1542.27 Q1811.09 1538.71 1811.09 1531.6 Q1811.09 1524.47 1809.26 1520.93 Q1807.46 1517.37 1803.82 1517.37 M1803.82 1513.66 Q1809.63 1513.66 1812.69 1518.27 Q1815.77 1522.85 1815.77 1531.6 Q1815.77 1540.33 1812.69 1544.94 Q1809.63 1549.52 1803.82 1549.52 Q1798.01 1549.52 1794.93 1544.94 Q1791.88 1540.33 1791.88 1531.6 Q1791.88 1522.85 1794.93 1518.27 Q1798.01 1513.66 1803.82 1513.66 Z" fill="#000000" fill-rule="nonzero" fill-opacity="1" /><path clip-path="url(#clip790)" d="M2237.18 1544.91 L2244.82 1544.91 L2244.82 1518.55 L2236.51 1520.21 L2236.51 1515.95 L2244.78 1514.29 L2249.45 1514.29 L2249.45 1544.91 L2257.09 1544.91 L2257.09 1548.85 L2237.18 1548.85 L2237.18 1544.91 Z" fill="#000000" fill-rule="nonzero" fill-opacity="1" /><path clip-path="url(#clip790)" d="M2276.54 1517.37 Q2272.92 1517.37 2271.1 1520.93 Q2269.29 1524.47 2269.29 1531.6 Q2269.29 1538.71 2271.1 1542.27 Q2272.92 1545.82 2276.54 1545.82 Q2280.17 1545.82 2281.98 1542.27 Q2283.8 1538.71 2283.8 1531.6 Q2283.8 1524.47 2281.98 1520.93 Q2280.17 1517.37 2276.54 1517.37 M2276.54 1513.66 Q2282.35 1513.66 2285.4 1518.27 Q2288.48 1522.85 2288.48 1531.6 Q2288.48 1540.33 2285.4 1544.94 Q2282.35 1549.52 2276.54 1549.52 Q2270.73 1549.52 2267.65 1544.94 Q2264.59 1540.33 2264.59 1531.6 Q2264.59 1522.85 2267.65 1518.27 Q2270.73 1513.66 2276.54 1513.66 Z" fill="#000000" fill-rule="nonzero" fill-opacity="1" /><path clip-path="url(#clip790)" d="M2306.7 1517.37 Q2303.09 1517.37 2301.26 1520.93 Q2299.45 1524.47 2299.45 1531.6 Q2299.45 1538.71 2301.26 1542.27 Q2303.09 1545.82 2306.7 1545.82 Q2310.33 1545.82 2312.14 1542.27 Q2313.97 1538.71 2313.97 1531.6 Q2313.97 1524.47 2312.14 1520.93 Q2310.33 1517.37 2306.7 1517.37 M2306.7 1513.66 Q2312.51 1513.66 2315.56 1518.27 Q2318.64 1522.85 2318.64 1531.6 Q2318.64 1540.33 2315.56 1544.94 Q2312.51 1549.52 2306.7 1549.52 Q2300.89 1549.52 2297.81 1544.94 Q2294.75 1540.33 2294.75 1531.6 Q2294.75 1522.85 2297.81 1518.27 Q2300.89 1513.66 2306.7 1513.66 Z" fill="#000000" fill-rule="nonzero" fill-opacity="1" /><path clip-path="url(#clip790)" d="M2336.86 1517.37 Q2333.25 1517.37 2331.42 1520.93 Q2329.61 1524.47 2329.61 1531.6 Q2329.61 1538.71 2331.42 1542.27 Q2333.25 1545.82 2336.86 1545.82 Q2340.49 1545.82 2342.3 1542.27 Q2344.13 1538.71 2344.13 1531.6 Q2344.13 1524.47 2342.3 1520.93 Q2340.49 1517.37 2336.86 1517.37 M2336.86 1513.66 Q2342.67 1513.66 2345.73 1518.27 Q2348.8 1522.85 2348.8 1531.6 Q2348.8 1540.33 2345.73 1544.94 Q2342.67 1549.52 2336.86 1549.52 Q2331.05 1549.52 2327.97 1544.94 Q2324.92 1540.33 2324.92 1531.6 Q2324.92 1522.85 2327.97 1518.27 Q2331.05 1513.66 2336.86 1513.66 Z" fill="#000000" fill-rule="nonzero" fill-opacity="1" /><polyline clip-path="url(#clip792)" style="stroke:#000000; stroke-linecap:round; stroke-linejoin:round; stroke-width:2; stroke-opacity:0.1; fill:none" points="156.02,1468.73 2352.76,1468.73 "/>
<polyline clip-path="url(#clip792)" style="stroke:#000000; stroke-linecap:round; stroke-linejoin:round; stroke-width:2; stroke-opacity:0.1; fill:none" points="156.02,1008.48 2352.76,1008.48 "/>
<polyline clip-path="url(#clip792)" style="stroke:#000000; stroke-linecap:round; stroke-linejoin:round; stroke-width:2; stroke-opacity:0.1; fill:none" points="156.02,548.227 2352.76,548.227 "/>
<polyline clip-path="url(#clip792)" style="stroke:#000000; stroke-linecap:round; stroke-linejoin:round; stroke-width:2; stroke-opacity:0.1; fill:none" points="156.02,87.9763 2352.76,87.9763 "/>
<polyline clip-path="url(#clip790)" style="stroke:#000000; stroke-linecap:round; stroke-linejoin:round; stroke-width:4; stroke-opacity:1; fill:none" points="156.02,1486.45 156.02,47.2441 "/>
<polyline clip-path="url(#clip790)" style="stroke:#000000; stroke-linecap:round; stroke-linejoin:round; stroke-width:4; stroke-opacity:1; fill:none" points="156.02,1468.73 174.917,1468.73 "/>
<polyline clip-path="url(#clip790)" style="stroke:#000000; stroke-linecap:round; stroke-linejoin:round; stroke-width:4; stroke-opacity:1; fill:none" points="156.02,1008.48 174.917,1008.48 "/>
<polyline clip-path="url(#clip790)" style="stroke:#000000; stroke-linecap:round; stroke-linejoin:round; stroke-width:4; stroke-opacity:1; fill:none" points="156.02,548.227 174.917,548.227 "/>
<polyline clip-path="url(#clip790)" style="stroke:#000000; stroke-linecap:round; stroke-linejoin:round; stroke-width:4; stroke-opacity:1; fill:none" points="156.02,87.9763 174.917,87.9763 "/>
<path clip-path="url(#clip790)" d="M63.7467 1454.53 Q60.1356 1454.53 58.3069 1458.09 Q56.5014 1461.63 56.5014 1468.76 Q56.5014 1475.87 58.3069 1479.43 Q60.1356 1482.98 63.7467 1482.98 Q67.3809 1482.98 69.1865 1479.43 Q71.0152 1475.87 71.0152 1468.76 Q71.0152 1461.63 69.1865 1458.09 Q67.3809 1454.53 63.7467 1454.53 M63.7467 1450.82 Q69.5568 1450.82 72.6124 1455.43 Q75.6911 1460.01 75.6911 1468.76 Q75.6911 1477.49 72.6124 1482.1 Q69.5568 1486.68 63.7467 1486.68 Q57.9365 1486.68 54.8578 1482.1 Q51.8023 1477.49 51.8023 1468.76 Q51.8023 1460.01 54.8578 1455.43 Q57.9365 1450.82 63.7467 1450.82 Z" fill="#000000" fill-rule="nonzero" fill-opacity="1" /><path clip-path="url(#clip790)" d="M83.9086 1480.13 L88.7928 1480.13 L88.7928 1486.01 L83.9086 1486.01 L83.9086 1480.13 Z" fill="#000000" fill-rule="nonzero" fill-opacity="1" /><path clip-path="url(#clip790)" d="M97.7974 1451.45 L120.02 1451.45 L120.02 1453.44 L107.473 1486.01 L102.589 1486.01 L114.395 1455.38 L97.7974 1455.38 L97.7974 1451.45 Z" fill="#000000" fill-rule="nonzero" fill-opacity="1" /><path clip-path="url(#clip790)" d="M62.9365 994.276 Q59.3254 994.276 57.4967 997.841 Q55.6912 1001.38 55.6912 1008.51 Q55.6912 1015.62 57.4967 1019.18 Q59.3254 1022.73 62.9365 1022.73 Q66.5707 1022.73 68.3763 1019.18 Q70.205 1015.62 70.205 1008.51 Q70.205 1001.38 68.3763 997.841 Q66.5707 994.276 62.9365 994.276 M62.9365 990.573 Q68.7467 990.573 71.8022 995.179 Q74.8809 999.762 74.8809 1008.51 Q74.8809 1017.24 71.8022 1021.85 Q68.7467 1026.43 62.9365 1026.43 Q57.1264 1026.43 54.0477 1021.85 Q50.9921 1017.24 50.9921 1008.51 Q50.9921 999.762 54.0477 995.179 Q57.1264 990.573 62.9365 990.573 Z" fill="#000000" fill-rule="nonzero" fill-opacity="1" /><path clip-path="url(#clip790)" d="M83.0984 1019.88 L87.9827 1019.88 L87.9827 1025.76 L83.0984 1025.76 L83.0984 1019.88 Z" fill="#000000" fill-rule="nonzero" fill-opacity="1" /><path clip-path="url(#clip790)" d="M108.168 1009.35 Q104.834 1009.35 102.913 1011.13 Q101.015 1012.91 101.015 1016.04 Q101.015 1019.16 102.913 1020.94 Q104.834 1022.73 108.168 1022.73 Q111.501 1022.73 113.422 1020.94 Q115.344 1019.14 115.344 1016.04 Q115.344 1012.91 113.422 1011.13 Q111.524 1009.35 108.168 1009.35 M103.492 1007.35 Q100.483 1006.61 98.7928 1004.55 Q97.1261 1002.49 97.1261 999.531 Q97.1261 995.387 100.066 992.98 Q103.029 990.573 108.168 990.573 Q113.33 990.573 116.27 992.98 Q119.209 995.387 119.209 999.531 Q119.209 1002.49 117.52 1004.55 Q115.853 1006.61 112.867 1007.35 Q116.246 1008.14 118.121 1010.43 Q120.02 1012.73 120.02 1016.04 Q120.02 1021.06 116.941 1023.74 Q113.885 1026.43 108.168 1026.43 Q102.45 1026.43 99.3715 1023.74 Q96.316 1021.06 96.316 1016.04 Q96.316 1012.73 98.2141 1010.43 Q100.112 1008.14 103.492 1007.35 M101.779 999.971 Q101.779 1002.66 103.446 1004.16 Q105.135 1005.67 108.168 1005.67 Q111.177 1005.67 112.867 1004.16 Q114.58 1002.66 114.58 999.971 Q114.58 997.286 112.867 995.781 Q111.177 994.276 108.168 994.276 Q105.135 994.276 103.446 995.781 Q101.779 997.286 101.779 999.971 Z" fill="#000000" fill-rule="nonzero" fill-opacity="1" /><path clip-path="url(#clip790)" d="M63.0291 534.026 Q59.418 534.026 57.5893 537.59 Q55.7838 541.132 55.7838 548.262 Q55.7838 555.368 57.5893 558.933 Q59.418 562.475 63.0291 562.475 Q66.6633 562.475 68.4689 558.933 Q70.2976 555.368 70.2976 548.262 Q70.2976 541.132 68.4689 537.59 Q66.6633 534.026 63.0291 534.026 M63.0291 530.322 Q68.8393 530.322 71.8948 534.928 Q74.9735 539.512 74.9735 548.262 Q74.9735 556.988 71.8948 561.595 Q68.8393 566.178 63.0291 566.178 Q57.2189 566.178 54.1403 561.595 Q51.0847 556.988 51.0847 548.262 Q51.0847 539.512 54.1403 534.928 Q57.2189 530.322 63.0291 530.322 Z" fill="#000000" fill-rule="nonzero" fill-opacity="1" /><path clip-path="url(#clip790)" d="M83.191 559.627 L88.0753 559.627 L88.0753 565.507 L83.191 565.507 L83.191 559.627 Z" fill="#000000" fill-rule="nonzero" fill-opacity="1" /><path clip-path="url(#clip790)" d="M98.3993 564.789 L98.3993 560.53 Q100.159 561.363 101.964 561.803 Q103.77 562.243 105.506 562.243 Q110.135 562.243 112.566 559.141 Q115.02 556.016 115.367 549.674 Q114.024 551.664 111.964 552.729 Q109.904 553.794 107.404 553.794 Q102.219 553.794 99.1863 550.669 Q96.1771 547.521 96.1771 542.081 Q96.1771 536.757 99.3252 533.54 Q102.473 530.322 107.705 530.322 Q113.7 530.322 116.848 534.928 Q120.02 539.512 120.02 548.262 Q120.02 556.433 116.131 561.317 Q112.265 566.178 105.714 566.178 Q103.955 566.178 102.149 565.831 Q100.344 565.484 98.3993 564.789 M107.705 550.137 Q110.853 550.137 112.682 547.984 Q114.533 545.831 114.533 542.081 Q114.533 538.354 112.682 536.202 Q110.853 534.026 107.705 534.026 Q104.557 534.026 102.705 536.202 Q100.876 538.354 100.876 542.081 Q100.876 545.831 102.705 547.984 Q104.557 550.137 107.705 550.137 Z" fill="#000000" fill-rule="nonzero" fill-opacity="1" /><path clip-path="url(#clip790)" d="M53.6541 101.321 L61.293 101.321 L61.293 74.9555 L52.9829 76.6222 L52.9829 72.3629 L61.2467 70.6963 L65.9226 70.6963 L65.9226 101.321 L73.5614 101.321 L73.5614 105.256 L53.6541 105.256 L53.6541 101.321 Z" fill="#000000" fill-rule="nonzero" fill-opacity="1" /><path clip-path="url(#clip790)" d="M83.0058 99.3767 L87.8901 99.3767 L87.8901 105.256 L83.0058 105.256 L83.0058 99.3767 Z" fill="#000000" fill-rule="nonzero" fill-opacity="1" /><path clip-path="url(#clip790)" d="M108.075 73.775 Q104.464 73.775 102.635 77.3398 Q100.83 80.8814 100.83 88.011 Q100.83 95.1174 102.635 98.6822 Q104.464 102.224 108.075 102.224 Q111.709 102.224 113.515 98.6822 Q115.344 95.1174 115.344 88.011 Q115.344 80.8814 113.515 77.3398 Q111.709 73.775 108.075 73.775 M108.075 70.0713 Q113.885 70.0713 116.941 74.6777 Q120.02 79.261 120.02 88.011 Q120.02 96.7378 116.941 101.344 Q113.885 105.928 108.075 105.928 Q102.265 105.928 99.1863 101.344 Q96.1308 96.7378 96.1308 88.011 Q96.1308 79.261 99.1863 74.6777 Q102.265 70.0713 108.075 70.0713 Z" fill="#000000" fill-rule="nonzero" fill-opacity="1" /><polyline clip-path="url(#clip792)" style="stroke:#009af9; stroke-linecap:round; stroke-linejoin:round; stroke-width:4; stroke-opacity:1; fill:none" points="218.191,1238.6 220.266,1445.72 222.34,1123.54 224.415,1031.49 226.489,755.34 228.564,916.427 230.638,755.34 232.713,847.39 234.787,479.189 236.862,548.227 238.936,548.227 241.01,479.189 243.085,456.177 245.159,548.227 247.234,410.152 249.308,203.039 251.383,387.139 253.457,203.039 255.532,341.114 257.606,295.089 259.681,272.077 261.755,341.114 263.83,364.127 265.904,226.051 267.979,157.014 270.053,157.014 272.127,157.014 274.202,180.026 276.276,134.001 278.351,110.989 280.425,157.014 282.5,134.001 284.574,226.051 286.649,134.001 288.723,203.039 290.798,157.014 292.872,110.989 294.947,180.026 297.021,110.989 299.096,203.039 301.17,134.001 303.244,87.9763 305.319,180.026 307.393,134.001 309.468,110.989 311.542,180.026 313.617,134.001 315.691,180.026 317.766,110.989 319.84,87.9763 321.915,134.001 323.989,87.9763 326.064,110.989 328.138,134.001 330.213,110.989 332.287,134.001 334.361,134.001 336.436,134.001 338.51,134.001 340.585,110.989 342.659,110.989 344.734,110.989 346.808,87.9763 348.883,87.9763 350.957,87.9763 353.032,87.9763 355.106,87.9763 357.181,87.9763 359.255,87.9763 361.33,87.9763 363.404,87.9763 365.478,87.9763 367.553,87.9763 369.627,87.9763 371.702,87.9763 373.776,87.9763 375.851,110.989 377.925,110.989 380,110.989 382.074,87.9763 384.149,87.9763 386.223,87.9763 388.298,87.9763 390.372,87.9763 392.447,87.9763 394.521,87.9763 396.596,110.989 398.67,87.9763 400.744,87.9763 402.819,87.9763 404.893,87.9763 406.968,87.9763 409.042,134.001 411.117,87.9763 413.191,87.9763 415.266,87.9763 417.34,87.9763 419.415,87.9763 421.489,87.9763 423.564,110.989 425.638,87.9763 427.713,87.9763 429.787,87.9763 431.861,87.9763 433.936,87.9763 436.01,87.9763 438.085,87.9763 440.159,87.9763 442.234,87.9763 444.308,87.9763 446.383,87.9763 448.457,87.9763 450.532,110.989 452.606,87.9763 454.681,87.9763 456.755,110.989 458.83,87.9763 460.904,110.989 462.978,87.9763 465.053,87.9763 467.127,87.9763 469.202,110.989 471.276,87.9763 473.351,87.9763 475.425,110.989 477.5,110.989 479.574,87.9763 481.649,110.989 483.723,87.9763 485.798,110.989 487.872,110.989 489.947,110.989 492.021,110.989 494.095,87.9763 496.17,87.9763 498.244,87.9763 500.319,87.9763 502.393,110.989 504.468,110.989 506.542,87.9763 508.617,110.989 510.691,87.9763 512.766,134.001 514.84,87.9763 516.915,87.9763 518.989,87.9763 521.064,87.9763 523.138,87.9763 525.212,110.989 527.287,87.9763 529.361,87.9763 531.436,110.989 533.51,87.9763 535.585,87.9763 537.659,110.989 539.734,87.9763 541.808,87.9763 543.883,110.989 545.957,87.9763 548.032,110.989 550.106,134.001 552.181,87.9763 554.255,87.9763 556.329,87.9763 558.404,87.9763 560.478,87.9763 562.553,87.9763 564.627,87.9763 566.702,87.9763 568.776,110.989 570.851,87.9763 572.925,87.9763 575,87.9763 577.074,87.9763 579.149,87.9763 581.223,87.9763 583.298,87.9763 585.372,110.989 587.446,87.9763 589.521,87.9763 591.595,110.989 593.67,87.9763 595.744,87.9763 597.819,110.989 599.893,87.9763 601.968,87.9763 604.042,87.9763 606.117,87.9763 608.191,87.9763 610.266,87.9763 612.34,87.9763 614.415,87.9763 616.489,87.9763 618.564,87.9763 620.638,110.989 622.712,110.989 624.787,87.9763 626.861,87.9763 628.936,87.9763 631.01,87.9763 633.085,110.989 635.159,87.9763 637.234,134.001 639.308,87.9763 641.383,87.9763 643.457,87.9763 645.532,87.9763 647.606,87.9763 649.681,87.9763 651.755,87.9763 653.829,87.9763 655.904,87.9763 657.978,87.9763 660.053,87.9763 662.127,87.9763 664.202,87.9763 666.276,87.9763 668.351,87.9763 670.425,87.9763 672.5,110.989 674.574,87.9763 676.649,134.001 678.723,87.9763 680.798,87.9763 682.872,87.9763 684.946,87.9763 687.021,87.9763 689.095,87.9763 691.17,87.9763 693.244,87.9763 695.319,87.9763 697.393,87.9763 699.468,87.9763 701.542,87.9763 703.617,110.989 705.691,87.9763 707.766,87.9763 709.84,87.9763 711.915,110.989 713.989,87.9763 716.063,87.9763 718.138,87.9763 720.212,87.9763 722.287,87.9763 724.361,87.9763 726.436,87.9763 728.51,87.9763 730.585,87.9763 732.659,87.9763 734.734,87.9763 736.808,87.9763 738.883,87.9763 740.957,87.9763 743.032,110.989 745.106,87.9763 747.18,87.9763 749.255,87.9763 751.329,87.9763 753.404,87.9763 755.478,87.9763 757.553,87.9763 759.627,87.9763 761.702,87.9763 763.776,110.989 765.851,87.9763 767.925,87.9763 770,87.9763 772.074,87.9763 774.149,87.9763 776.223,87.9763 778.297,87.9763 780.372,110.989 782.446,110.989 784.521,87.9763 786.595,87.9763 788.67,87.9763 790.744,87.9763 792.819,87.9763 794.893,134.001 796.968,87.9763 799.042,110.989 801.117,87.9763 803.191,87.9763 805.266,87.9763 807.34,110.989 809.414,87.9763 811.489,87.9763 813.563,87.9763 815.638,87.9763 817.712,87.9763 819.787,87.9763 821.861,87.9763 823.936,87.9763 826.01,87.9763 828.085,87.9763 830.159,87.9763 832.234,87.9763 834.308,87.9763 836.383,87.9763 838.457,87.9763 840.531,87.9763 842.606,87.9763 844.68,87.9763 846.755,87.9763 848.829,87.9763 850.904,110.989 852.978,87.9763 855.053,87.9763 857.127,87.9763 859.202,87.9763 861.276,87.9763 863.351,87.9763 865.425,87.9763 867.5,110.989 869.574,87.9763 871.649,87.9763 873.723,87.9763 875.797,87.9763 877.872,87.9763 879.946,87.9763 882.021,110.989 884.095,87.9763 886.17,87.9763 888.244,87.9763 890.319,87.9763 892.393,87.9763 894.468,87.9763 896.542,110.989 898.617,87.9763 900.691,87.9763 902.766,87.9763 904.84,87.9763 906.914,87.9763 908.989,87.9763 911.063,87.9763 913.138,87.9763 915.212,87.9763 917.287,87.9763 919.361,110.989 921.436,87.9763 923.51,87.9763 925.585,87.9763 927.659,87.9763 929.734,87.9763 931.808,87.9763 933.883,87.9763 935.957,87.9763 938.031,87.9763 940.106,110.989 942.18,87.9763 944.255,87.9763 946.329,110.989 948.404,87.9763 950.478,87.9763 952.553,87.9763 954.627,87.9763 956.702,87.9763 958.776,87.9763 960.851,87.9763 962.925,110.989 965,87.9763 967.074,87.9763 969.148,87.9763 971.223,87.9763 973.297,87.9763 975.372,87.9763 977.446,87.9763 979.521,87.9763 981.595,87.9763 983.67,87.9763 985.744,87.9763 987.819,87.9763 989.893,87.9763 991.968,87.9763 994.042,87.9763 996.117,87.9763 998.191,87.9763 1000.27,87.9763 1002.34,87.9763 1004.41,87.9763 1006.49,87.9763 1008.56,87.9763 1010.64,87.9763 1012.71,87.9763 1014.79,87.9763 1016.86,87.9763 1018.94,87.9763 1021.01,87.9763 1023.08,110.989 1025.16,87.9763 1027.23,87.9763 1029.31,87.9763 1031.38,87.9763 1033.46,87.9763 1035.53,87.9763 1037.61,87.9763 1039.68,87.9763 1041.75,87.9763 1043.83,87.9763 1045.9,87.9763 1047.98,87.9763 1050.05,87.9763 1052.13,110.989 1054.2,87.9763 1056.28,87.9763 1058.35,87.9763 1060.43,87.9763 1062.5,87.9763 1064.57,87.9763 1066.65,110.989 1068.72,87.9763 1070.8,87.9763 1072.87,87.9763 1074.95,87.9763 1077.02,87.9763 1079.1,87.9763 1081.17,87.9763 1083.24,87.9763 1085.32,87.9763 1087.39,110.989 1089.47,87.9763 1091.54,87.9763 1093.62,87.9763 1095.69,87.9763 1097.77,87.9763 1099.84,87.9763 1101.91,87.9763 1103.99,87.9763 1106.06,87.9763 1108.14,87.9763 1110.21,87.9763 1112.29,87.9763 1114.36,87.9763 1116.44,87.9763 1118.51,87.9763 1120.58,87.9763 1122.66,87.9763 1124.73,87.9763 1126.81,87.9763 1128.88,87.9763 1130.96,87.9763 1133.03,87.9763 1135.11,87.9763 1137.18,87.9763 1139.25,87.9763 1141.33,87.9763 1143.4,87.9763 1145.48,87.9763 1147.55,87.9763 1149.63,87.9763 1151.7,87.9763 1153.78,87.9763 1155.85,87.9763 1157.92,110.989 1160,110.989 1162.07,110.989 1164.15,87.9763 1166.22,87.9763 1168.3,87.9763 1170.37,87.9763 1172.45,87.9763 1174.52,134.001 1176.6,87.9763 1178.67,87.9763 1180.74,87.9763 1182.82,87.9763 1184.89,87.9763 1186.97,87.9763 1189.04,87.9763 1191.12,87.9763 1193.19,87.9763 1195.27,87.9763 1197.34,87.9763 1199.41,87.9763 1201.49,87.9763 1203.56,87.9763 1205.64,87.9763 1207.71,87.9763 1209.79,87.9763 1211.86,87.9763 1213.94,87.9763 1216.01,87.9763 1218.08,87.9763 1220.16,87.9763 1222.23,87.9763 1224.31,87.9763 1226.38,87.9763 1228.46,87.9763 1230.53,87.9763 1232.61,87.9763 1234.68,87.9763 1236.75,87.9763 1238.83,87.9763 1240.9,87.9763 1242.98,87.9763 1245.05,87.9763 1247.13,87.9763 1249.2,87.9763 1251.28,87.9763 1253.35,87.9763 1255.42,87.9763 1257.5,87.9763 1259.57,87.9763 1261.65,87.9763 1263.72,87.9763 1265.8,87.9763 1267.87,87.9763 1269.95,87.9763 1272.02,87.9763 1274.1,87.9763 1276.17,87.9763 1278.24,87.9763 1280.32,87.9763 1282.39,110.989 1284.47,87.9763 1286.54,87.9763 1288.62,87.9763 1290.69,87.9763 1292.77,87.9763 1294.84,87.9763 1296.91,87.9763 1298.99,87.9763 1301.06,87.9763 1303.14,87.9763 1305.21,87.9763 1307.29,87.9763 1309.36,110.989 1311.44,87.9763 1313.51,87.9763 1315.58,87.9763 1317.66,87.9763 1319.73,87.9763 1321.81,87.9763 1323.88,87.9763 1325.96,87.9763 1328.03,87.9763 1330.11,87.9763 1332.18,87.9763 1334.25,87.9763 1336.33,87.9763 1338.4,87.9763 1340.48,87.9763 1342.55,87.9763 1344.63,87.9763 1346.7,87.9763 1348.78,87.9763 1350.85,87.9763 1352.92,87.9763 1355,87.9763 1357.07,87.9763 1359.15,87.9763 1361.22,87.9763 1363.3,110.989 1365.37,87.9763 1367.45,87.9763 1369.52,87.9763 1371.6,87.9763 1373.67,87.9763 1375.74,87.9763 1377.82,87.9763 1379.89,87.9763 1381.97,87.9763 1384.04,87.9763 1386.12,87.9763 1388.19,87.9763 1390.27,87.9763 1392.34,87.9763 1394.41,87.9763 1396.49,110.989 1398.56,110.989 1400.64,87.9763 1402.71,87.9763 1404.79,87.9763 1406.86,87.9763 1408.94,87.9763 1411.01,87.9763 1413.08,87.9763 1415.16,87.9763 1417.23,87.9763 1419.31,87.9763 1421.38,87.9763 1423.46,87.9763 1425.53,87.9763 1427.61,87.9763 1429.68,87.9763 1431.75,87.9763 1433.83,87.9763 1435.9,87.9763 1437.98,87.9763 1440.05,87.9763 1442.13,87.9763 1444.2,87.9763 1446.28,87.9763 1448.35,87.9763 1450.42,87.9763 1452.5,87.9763 1454.57,87.9763 1456.65,87.9763 1458.72,87.9763 1460.8,87.9763 1462.87,87.9763 1464.95,87.9763 1467.02,87.9763 1469.1,87.9763 1471.17,87.9763 1473.24,87.9763 1475.32,110.989 1477.39,87.9763 1479.47,87.9763 1481.54,87.9763 1483.62,110.989 1485.69,87.9763 1487.77,87.9763 1489.84,87.9763 1491.91,87.9763 1493.99,87.9763 1496.06,87.9763 1498.14,87.9763 1500.21,87.9763 1502.29,87.9763 1504.36,87.9763 1506.44,87.9763 1508.51,87.9763 1510.58,87.9763 1512.66,87.9763 1514.73,87.9763 1516.81,87.9763 1518.88,87.9763 1520.96,87.9763 1523.03,87.9763 1525.11,110.989 1527.18,87.9763 1529.25,87.9763 1531.33,87.9763 1533.4,87.9763 1535.48,87.9763 1537.55,87.9763 1539.63,87.9763 1541.7,87.9763 1543.78,87.9763 1545.85,87.9763 1547.92,87.9763 1550,87.9763 1552.07,87.9763 1554.15,87.9763 1556.22,87.9763 1558.3,87.9763 1560.37,87.9763 1562.45,110.989 1564.52,87.9763 1566.6,87.9763 1568.67,110.989 1570.74,87.9763 1572.82,87.9763 1574.89,87.9763 1576.97,87.9763 1579.04,87.9763 1581.12,87.9763 1583.19,87.9763 1585.27,87.9763 1587.34,87.9763 1589.41,87.9763 1591.49,87.9763 1593.56,87.9763 1595.64,87.9763 1597.71,87.9763 1599.79,87.9763 1601.86,87.9763 1603.94,87.9763 1606.01,87.9763 1608.08,87.9763 1610.16,87.9763 1612.23,87.9763 1614.31,110.989 1616.38,87.9763 1618.46,87.9763 1620.53,87.9763 1622.61,87.9763 1624.68,87.9763 1626.75,87.9763 1628.83,87.9763 1630.9,87.9763 1632.98,87.9763 1635.05,87.9763 1637.13,87.9763 1639.2,87.9763 1641.28,87.9763 1643.35,87.9763 1645.42,87.9763 1647.5,87.9763 1649.57,87.9763 1651.65,87.9763 1653.72,87.9763 1655.8,87.9763 1657.87,87.9763 1659.95,87.9763 1662.02,87.9763 1664.1,87.9763 1666.17,87.9763 1668.24,87.9763 1670.32,87.9763 1672.39,87.9763 1674.47,87.9763 1676.54,87.9763 1678.62,87.9763 1680.69,87.9763 1682.77,87.9763 1684.84,87.9763 1686.91,87.9763 1688.99,87.9763 1691.06,87.9763 1693.14,87.9763 1695.21,87.9763 1697.29,87.9763 1699.36,87.9763 1701.44,87.9763 1703.51,87.9763 1705.58,87.9763 1707.66,87.9763 1709.73,87.9763 1711.81,87.9763 1713.88,87.9763 1715.96,87.9763 1718.03,87.9763 1720.11,87.9763 1722.18,87.9763 1724.25,87.9763 1726.33,87.9763 1728.4,87.9763 1730.48,87.9763 1732.55,87.9763 1734.63,87.9763 1736.7,87.9763 1738.78,87.9763 1740.85,87.9763 1742.92,87.9763 1745,87.9763 1747.07,87.9763 1749.15,87.9763 1751.22,87.9763 1753.3,87.9763 1755.37,87.9763 1757.45,87.9763 1759.52,87.9763 1761.59,87.9763 1763.67,87.9763 1765.74,87.9763 1767.82,87.9763 1769.89,87.9763 1771.97,87.9763 1774.04,87.9763 1776.12,87.9763 1778.19,87.9763 1780.27,87.9763 1782.34,87.9763 1784.41,87.9763 1786.49,87.9763 1788.56,87.9763 1790.64,87.9763 1792.71,87.9763 1794.79,87.9763 1796.86,87.9763 1798.94,87.9763 1801.01,87.9763 1803.08,87.9763 1805.16,87.9763 1807.23,87.9763 1809.31,87.9763 1811.38,87.9763 1813.46,87.9763 1815.53,87.9763 1817.61,87.9763 1819.68,87.9763 1821.75,87.9763 1823.83,87.9763 1825.9,87.9763 1827.98,87.9763 1830.05,87.9763 1832.13,87.9763 1834.2,87.9763 1836.28,87.9763 1838.35,87.9763 1840.42,87.9763 1842.5,87.9763 1844.57,87.9763 1846.65,87.9763 1848.72,87.9763 1850.8,87.9763 1852.87,87.9763 1854.95,87.9763 1857.02,87.9763 1859.09,87.9763 1861.17,87.9763 1863.24,87.9763 1865.32,87.9763 1867.39,110.989 1869.47,87.9763 1871.54,87.9763 1873.62,87.9763 1875.69,87.9763 1877.77,87.9763 1879.84,87.9763 1881.91,87.9763 1883.99,87.9763 1886.06,87.9763 1888.14,87.9763 1890.21,87.9763 1892.29,87.9763 1894.36,87.9763 1896.44,87.9763 1898.51,87.9763 1900.58,87.9763 1902.66,87.9763 1904.73,87.9763 1906.81,87.9763 1908.88,87.9763 1910.96,87.9763 1913.03,87.9763 1915.11,87.9763 1917.18,87.9763 1919.25,87.9763 1921.33,87.9763 1923.4,87.9763 1925.48,87.9763 1927.55,87.9763 1929.63,87.9763 1931.7,87.9763 1933.78,87.9763 1935.85,87.9763 1937.92,87.9763 1940,87.9763 1942.07,87.9763 1944.15,87.9763 1946.22,87.9763 1948.3,87.9763 1950.37,87.9763 1952.45,87.9763 1954.52,87.9763 1956.59,87.9763 1958.67,87.9763 1960.74,87.9763 1962.82,87.9763 1964.89,87.9763 1966.97,87.9763 1969.04,87.9763 1971.12,110.989 1973.19,87.9763 1975.27,87.9763 1977.34,87.9763 1979.41,87.9763 1981.49,87.9763 1983.56,87.9763 1985.64,87.9763 1987.71,87.9763 1989.79,87.9763 1991.86,87.9763 1993.94,87.9763 1996.01,87.9763 1998.08,87.9763 2000.16,87.9763 2002.23,87.9763 2004.31,87.9763 2006.38,110.989 2008.46,87.9763 2010.53,87.9763 2012.61,87.9763 2014.68,87.9763 2016.75,87.9763 2018.83,87.9763 2020.9,87.9763 2022.98,87.9763 2025.05,87.9763 2027.13,87.9763 2029.2,87.9763 2031.28,87.9763 2033.35,87.9763 2035.42,87.9763 2037.5,87.9763 2039.57,87.9763 2041.65,87.9763 2043.72,87.9763 2045.8,87.9763 2047.87,87.9763 2049.95,87.9763 2052.02,87.9763 2054.09,87.9763 2056.17,87.9763 2058.24,87.9763 2060.32,87.9763 2062.39,87.9763 2064.47,87.9763 2066.54,87.9763 2068.62,110.989 2070.69,87.9763 2072.77,87.9763 2074.84,87.9763 2076.91,87.9763 2078.99,87.9763 2081.06,87.9763 2083.14,87.9763 2085.21,87.9763 2087.29,87.9763 2089.36,110.989 2091.44,87.9763 2093.51,87.9763 2095.58,110.989 2097.66,87.9763 2099.73,87.9763 2101.81,87.9763 2103.88,87.9763 2105.96,87.9763 2108.03,87.9763 2110.11,87.9763 2112.18,87.9763 2114.25,87.9763 2116.33,110.989 2118.4,87.9763 2120.48,87.9763 2122.55,87.9763 2124.63,87.9763 2126.7,110.989 2128.78,87.9763 2130.85,87.9763 2132.92,87.9763 2135,87.9763 2137.07,87.9763 2139.15,87.9763 2141.22,87.9763 2143.3,87.9763 2145.37,87.9763 2147.45,87.9763 2149.52,87.9763 2151.59,87.9763 2153.67,87.9763 2155.74,87.9763 2157.82,87.9763 2159.89,87.9763 2161.97,87.9763 2164.04,87.9763 2166.12,87.9763 2168.19,87.9763 2170.27,87.9763 2172.34,87.9763 2174.41,87.9763 2176.49,87.9763 2178.56,87.9763 2180.64,87.9763 2182.71,87.9763 2184.79,87.9763 2186.86,87.9763 2188.94,87.9763 2191.01,87.9763 2193.08,87.9763 2195.16,87.9763 2197.23,87.9763 2199.31,87.9763 2201.38,87.9763 2203.46,87.9763 2205.53,87.9763 2207.61,87.9763 2209.68,87.9763 2211.75,87.9763 2213.83,87.9763 2215.9,87.9763 2217.98,87.9763 2220.05,87.9763 2222.13,87.9763 2224.2,87.9763 2226.28,87.9763 2228.35,87.9763 2230.42,87.9763 2232.5,87.9763 2234.57,87.9763 2236.65,87.9763 2238.72,87.9763 2240.8,87.9763 2242.87,87.9763 2244.95,87.9763 2247.02,87.9763 2249.09,110.989 2251.17,87.9763 2253.24,87.9763 2255.32,87.9763 2257.39,87.9763 2259.47,87.9763 2261.54,87.9763 2263.62,87.9763 2265.69,87.9763 2267.76,87.9763 2269.84,87.9763 2271.91,87.9763 2273.99,87.9763 2276.06,87.9763 2278.14,87.9763 2280.21,87.9763 2282.29,87.9763 2284.36,87.9763 2286.44,87.9763 2288.51,87.9763 2290.58,87.9763 "/>
<path clip-path="url(#clip790)" d="M2007.43 1438.47 L2279.53 1438.47 L2279.53 1334.79 L2007.43 1334.79  Z" fill="#ffffff" fill-rule="evenodd" fill-opacity="1"/>
<polyline clip-path="url(#clip790)" style="stroke:#000000; stroke-linecap:round; stroke-linejoin:round; stroke-width:4; stroke-opacity:1; fill:none" points="2007.43,1438.47 2279.53,1438.47 2279.53,1334.79 2007.43,1334.79 2007.43,1438.47 "/>
<polyline clip-path="url(#clip790)" style="stroke:#009af9; stroke-linecap:round; stroke-linejoin:round; stroke-width:4; stroke-opacity:1; fill:none" points="2031.84,1386.63 2178.28,1386.63 "/>
<path clip-path="url(#clip790)" d="M2216.54 1406.32 Q2214.73 1410.95 2213.02 1412.36 Q2211.3 1413.78 2208.43 1413.78 L2205.03 1413.78 L2205.03 1410.21 L2207.53 1410.21 Q2209.29 1410.21 2210.26 1409.38 Q2211.23 1408.54 2212.42 1405.44 L2213.18 1403.5 L2202.69 1377.99 L2207.21 1377.99 L2215.31 1398.27 L2223.41 1377.99 L2227.92 1377.99 L2216.54 1406.32 Z" fill="#000000" fill-rule="nonzero" fill-opacity="1" /><path clip-path="url(#clip790)" d="M2235.22 1399.98 L2242.85 1399.98 L2242.85 1373.61 L2234.54 1375.28 L2234.54 1371.02 L2242.81 1369.35 L2247.48 1369.35 L2247.48 1399.98 L2255.12 1399.98 L2255.12 1403.91 L2235.22 1403.91 L2235.22 1399.98 Z" fill="#000000" fill-rule="nonzero" fill-opacity="1" /></svg>
