<?xml version="1.0" encoding="utf-8"?>
<svg xmlns="http://www.w3.org/2000/svg" xmlns:xlink="http://www.w3.org/1999/xlink" width="600" height="400" viewBox="0 0 2400 1600">
<defs>
  <clipPath id="clip730">
    <rect x="0" y="0" width="2400" height="1600"/>
  </clipPath>
</defs>
<path clip-path="url(#clip730)" d="M0 1600 L2400 1600 L2400 0 L0 0  Z" fill="#ffffff" fill-rule="evenodd" fill-opacity="1"/>
<defs>
  <clipPath id="clip731">
    <rect x="480" y="0" width="1681" height="1600"/>
  </clipPath>
</defs>
<path clip-path="url(#clip730)" d="M170.857 1486.45 L2352.76 1486.45 L2352.76 47.2441 L170.857 47.2441  Z" fill="#ffffff" fill-rule="evenodd" fill-opacity="1"/>
<defs>
  <clipPath id="clip732">
    <rect x="170" y="47" width="2183" height="1440"/>
  </clipPath>
</defs>
<polyline clip-path="url(#clip732)" style="stroke:#000000; stroke-linecap:round; stroke-linejoin:round; stroke-width:2; stroke-opacity:0.1; fill:none" points="232.609,1486.45 232.609,47.2441 "/>
<polyline clip-path="url(#clip732)" style="stroke:#000000; stroke-linecap:round; stroke-linejoin:round; stroke-width:2; stroke-opacity:0.1; fill:none" points="747.208,1486.45 747.208,47.2441 "/>
<polyline clip-path="url(#clip732)" style="stroke:#000000; stroke-linecap:round; stroke-linejoin:round; stroke-width:2; stroke-opacity:0.1; fill:none" points="1261.81,1486.45 1261.81,47.2441 "/>
<polyline clip-path="url(#clip732)" style="stroke:#000000; stroke-linecap:round; stroke-linejoin:round; stroke-width:2; stroke-opacity:0.1; fill:none" points="1776.41,1486.45 1776.41,47.2441 "/>
<polyline clip-path="url(#clip732)" style="stroke:#000000; stroke-linecap:round; stroke-linejoin:round; stroke-width:2; stroke-opacity:0.1; fill:none" points="2291,1486.45 2291,47.2441 "/>
<polyline clip-path="url(#clip730)" style="stroke:#000000; stroke-linecap:round; stroke-linejoin:round; stroke-width:4; stroke-opacity:1; fill:none" points="170.857,1486.45 2352.76,1486.45 "/>
<polyline clip-path="url(#clip730)" style="stroke:#000000; stroke-linecap:round; stroke-linejoin:round; stroke-width:4; stroke-opacity:1; fill:none" points="232.609,1486.45 232.609,1467.55 "/>
<polyline clip-path="url(#clip730)" style="stroke:#000000; stroke-linecap:round; stroke-linejoin:round; stroke-width:4; stroke-opacity:1; fill:none" points="747.208,1486.45 747.208,1467.55 "/>
<polyline clip-path="url(#clip730)" style="stroke:#000000; stroke-linecap:round; stroke-linejoin:round; stroke-width:4; stroke-opacity:1; fill:none" points="1261.81,1486.45 1261.81,1467.55 "/>
<polyline clip-path="url(#clip730)" style="stroke:#000000; stroke-linecap:round; stroke-linejoin:round; stroke-width:4; stroke-opacity:1; fill:none" points="1776.41,1486.45 1776.41,1467.55 "/>
<polyline clip-path="url(#clip730)" style="stroke:#000000; stroke-linecap:round; stroke-linejoin:round; stroke-width:4; stroke-opacity:1; fill:none" points="2291,1486.45 2291,1467.55 "/>
<path clip-path="url(#clip730)" d="M232.609 1517.37 Q228.998 1517.37 227.169 1520.93 Q225.364 1524.47 225.364 1531.6 Q225.364 1538.71 227.169 1542.27 Q228.998 1545.82 232.609 1545.82 Q236.244 1545.82 238.049 1542.27 Q239.878 1538.71 239.878 1531.6 Q239.878 1524.47 238.049 1520.93 Q236.244 1517.37 232.609 1517.37 M232.609 1513.66 Q238.419 1513.66 241.475 1518.27 Q244.554 1522.85 244.554 1531.6 Q244.554 1540.33 241.475 1544.94 Q238.419 1549.52 232.609 1549.52 Q226.799 1549.52 223.72 1544.94 Q220.665 1540.33 220.665 1531.6 Q220.665 1522.85 223.72 1518.27 Q226.799 1513.66 232.609 1513.66 Z" fill="#000000" fill-rule="nonzero" fill-opacity="1" /><path clip-path="url(#clip730)" d="M706.826 1514.29 L725.183 1514.29 L725.183 1518.22 L711.109 1518.22 L711.109 1526.7 Q712.127 1526.35 713.146 1526.19 Q714.164 1526 715.183 1526 Q720.97 1526 724.349 1529.17 Q727.729 1532.34 727.729 1537.76 Q727.729 1543.34 724.257 1546.44 Q720.784 1549.52 714.465 1549.52 Q712.289 1549.52 710.021 1549.15 Q707.775 1548.78 705.368 1548.04 L705.368 1543.34 Q707.451 1544.47 709.673 1545.03 Q711.896 1545.58 714.372 1545.58 Q718.377 1545.58 720.715 1543.48 Q723.053 1541.37 723.053 1537.76 Q723.053 1534.15 720.715 1532.04 Q718.377 1529.94 714.372 1529.94 Q712.497 1529.94 710.623 1530.35 Q708.771 1530.77 706.826 1531.65 L706.826 1514.29 Z" fill="#000000" fill-rule="nonzero" fill-opacity="1" /><path clip-path="url(#clip730)" d="M746.942 1517.37 Q743.331 1517.37 741.502 1520.93 Q739.696 1524.47 739.696 1531.6 Q739.696 1538.71 741.502 1542.27 Q743.331 1545.82 746.942 1545.82 Q750.576 1545.82 752.382 1542.27 Q754.21 1538.71 754.21 1531.6 Q754.21 1524.47 752.382 1520.93 Q750.576 1517.37 746.942 1517.37 M746.942 1513.66 Q752.752 1513.66 755.807 1518.27 Q758.886 1522.85 758.886 1531.6 Q758.886 1540.33 755.807 1544.94 Q752.752 1549.52 746.942 1549.52 Q741.132 1549.52 738.053 1544.94 Q734.997 1540.33 734.997 1531.6 Q734.997 1522.85 738.053 1518.27 Q741.132 1513.66 746.942 1513.66 Z" fill="#000000" fill-rule="nonzero" fill-opacity="1" /><path clip-path="url(#clip730)" d="M777.104 1517.37 Q773.493 1517.37 771.664 1520.93 Q769.858 1524.47 769.858 1531.6 Q769.858 1538.71 771.664 1542.27 Q773.493 1545.82 777.104 1545.82 Q780.738 1545.82 782.543 1542.27 Q784.372 1538.71 784.372 1531.6 Q784.372 1524.47 782.543 1520.93 Q780.738 1517.37 777.104 1517.37 M777.104 1513.66 Q782.914 1513.66 785.969 1518.27 Q789.048 1522.85 789.048 1531.6 Q789.048 1540.33 785.969 1544.94 Q782.914 1549.52 777.104 1549.52 Q771.293 1549.52 768.215 1544.94 Q765.159 1540.33 765.159 1531.6 Q765.159 1522.85 768.215 1518.27 Q771.293 1513.66 777.104 1513.66 Z" fill="#000000" fill-rule="nonzero" fill-opacity="1" /><path clip-path="url(#clip730)" d="M1206.33 1544.91 L1213.97 1544.91 L1213.97 1518.55 L1205.66 1520.21 L1205.66 1515.95 L1213.92 1514.29 L1218.6 1514.29 L1218.6 1544.91 L1226.24 1544.91 L1226.24 1548.85 L1206.33 1548.85 L1206.33 1544.91 Z" fill="#000000" fill-rule="nonzero" fill-opacity="1" /><path clip-path="url(#clip730)" d="M1245.68 1517.37 Q1242.07 1517.37 1240.24 1520.93 Q1238.44 1524.47 1238.44 1531.6 Q1238.44 1538.71 1240.24 1542.27 Q1242.07 1545.82 1245.68 1545.82 Q1249.32 1545.82 1251.12 1542.27 Q1252.95 1538.71 1252.95 1531.6 Q1252.95 1524.47 1251.12 1520.93 Q1249.32 1517.37 1245.68 1517.37 M1245.68 1513.66 Q1251.49 1513.66 1254.55 1518.27 Q1257.63 1522.85 1257.63 1531.6 Q1257.63 1540.33 1254.55 1544.94 Q1251.49 1549.52 1245.68 1549.52 Q1239.87 1549.52 1236.8 1544.94 Q1233.74 1540.33 1233.74 1531.6 Q1233.74 1522.85 1236.8 1518.27 Q1239.87 1513.66 1245.68 1513.66 Z" fill="#000000" fill-rule="nonzero" fill-opacity="1" /><path clip-path="url(#clip730)" d="M1275.85 1517.37 Q1272.23 1517.37 1270.41 1520.93 Q1268.6 1524.47 1268.6 1531.6 Q1268.6 1538.71 1270.41 1542.27 Q1272.23 1545.82 1275.85 1545.82 Q1279.48 1545.82 1281.29 1542.27 Q1283.11 1538.71 1283.11 1531.6 Q1283.11 1524.47 1281.29 1520.93 Q1279.48 1517.37 1275.85 1517.37 M1275.85 1513.66 Q1281.66 1513.66 1284.71 1518.27 Q1287.79 1522.85 1287.79 1531.6 Q1287.79 1540.33 1284.71 1544.94 Q1281.66 1549.52 1275.85 1549.52 Q1270.04 1549.52 1266.96 1544.94 Q1263.9 1540.33 1263.9 1531.6 Q1263.9 1522.85 1266.96 1518.27 Q1270.04 1513.66 1275.85 1513.66 Z" fill="#000000" fill-rule="nonzero" fill-opacity="1" /><path clip-path="url(#clip730)" d="M1306.01 1517.37 Q1302.4 1517.37 1300.57 1520.93 Q1298.76 1524.47 1298.76 1531.6 Q1298.76 1538.71 1300.57 1542.27 Q1302.4 1545.82 1306.01 1545.82 Q1309.64 1545.82 1311.45 1542.27 Q1313.28 1538.71 1313.28 1531.6 Q1313.28 1524.47 1311.45 1520.93 Q1309.64 1517.37 1306.01 1517.37 M1306.01 1513.66 Q1311.82 1513.66 1314.87 1518.27 Q1317.95 1522.85 1317.95 1531.6 Q1317.95 1540.33 1314.87 1544.94 Q1311.82 1549.52 1306.01 1549.52 Q1300.2 1549.52 1297.12 1544.94 Q1294.06 1540.33 1294.06 1531.6 Q1294.06 1522.85 1297.12 1518.27 Q1300.2 1513.66 1306.01 1513.66 Z" fill="#000000" fill-rule="nonzero" fill-opacity="1" /><path clip-path="url(#clip730)" d="M1720.93 1544.91 L1728.57 1544.91 L1728.57 1518.55 L1720.26 1520.21 L1720.26 1515.95 L1728.52 1514.29 L1733.2 1514.29 L1733.2 1544.91 L1740.84 1544.91 L1740.84 1548.85 L1720.93 1548.85 L1720.93 1544.91 Z" fill="#000000" fill-rule="nonzero" fill-opacity="1" /><path clip-path="url(#clip730)" d="M1750.33 1514.29 L1768.69 1514.29 L1768.69 1518.22 L1754.61 1518.22 L1754.61 1526.7 Q1755.63 1526.35 1756.65 1526.19 Q1757.67 1526 1758.69 1526 Q1764.47 1526 1767.85 1529.17 Q1771.23 1532.34 1771.23 1537.76 Q1771.23 1543.34 1767.76 1546.44 Q1764.29 1549.52 1757.97 1549.52 Q1755.79 1549.52 1753.52 1549.15 Q1751.28 1548.78 1748.87 1548.04 L1748.87 1543.34 Q1750.95 1544.47 1753.18 1545.03 Q1755.4 1545.58 1757.88 1545.58 Q1761.88 1545.58 1764.22 1543.48 Q1766.56 1541.37 1766.56 1537.76 Q1766.56 1534.15 1764.22 1532.04 Q1761.88 1529.94 1757.88 1529.94 Q1756 1529.94 1754.13 1530.35 Q1752.27 1530.77 1750.33 1531.65 L1750.33 1514.29 Z" fill="#000000" fill-rule="nonzero" fill-opacity="1" /><path clip-path="url(#clip730)" d="M1790.44 1517.37 Q1786.83 1517.37 1785 1520.93 Q1783.2 1524.47 1783.2 1531.6 Q1783.2 1538.71 1785 1542.27 Q1786.83 1545.82 1790.44 1545.82 Q1794.08 1545.82 1795.88 1542.27 Q1797.71 1538.71 1797.71 1531.6 Q1797.71 1524.47 1795.88 1520.93 Q1794.08 1517.37 1790.44 1517.37 M1790.44 1513.66 Q1796.25 1513.66 1799.31 1518.27 Q1802.39 1522.85 1802.39 1531.6 Q1802.39 1540.33 1799.31 1544.94 Q1796.25 1549.52 1790.44 1549.52 Q1784.63 1549.52 1781.56 1544.94 Q1778.5 1540.33 1778.5 1531.6 Q1778.5 1522.85 1781.56 1518.27 Q1784.63 1513.66 1790.44 1513.66 Z" fill="#000000" fill-rule="nonzero" fill-opacity="1" /><path clip-path="url(#clip730)" d="M1820.61 1517.37 Q1817 1517.37 1815.17 1520.93 Q1813.36 1524.47 1813.36 1531.6 Q1813.36 1538.71 1815.17 1542.27 Q1817 1545.82 1820.61 1545.82 Q1824.24 1545.82 1826.05 1542.27 Q1827.87 1538.71 1827.87 1531.6 Q1827.87 1524.47 1826.05 1520.93 Q1824.24 1517.37 1820.61 1517.37 M1820.61 1513.66 Q1826.42 1513.66 1829.47 1518.27 Q1832.55 1522.85 1832.55 1531.6 Q1832.55 1540.33 1829.47 1544.94 Q1826.42 1549.52 1820.61 1549.52 Q1814.8 1549.52 1811.72 1544.94 Q1808.66 1540.33 1808.66 1531.6 Q1808.66 1522.85 1811.72 1518.27 Q1814.8 1513.66 1820.61 1513.66 Z" fill="#000000" fill-rule="nonzero" fill-opacity="1" /><path clip-path="url(#clip730)" d="M2239.62 1544.91 L2255.93 1544.91 L2255.93 1548.85 L2233.99 1548.85 L2233.99 1544.91 Q2236.65 1542.16 2241.24 1537.53 Q2245.84 1532.88 2247.02 1531.53 Q2249.27 1529.01 2250.15 1527.27 Q2251.05 1525.51 2251.05 1523.82 Q2251.05 1521.07 2249.11 1519.33 Q2247.18 1517.6 2244.08 1517.6 Q2241.88 1517.6 2239.43 1518.36 Q2237 1519.13 2234.22 1520.68 L2234.22 1515.95 Q2237.05 1514.82 2239.5 1514.24 Q2241.95 1513.66 2243.99 1513.66 Q2249.36 1513.66 2252.56 1516.35 Q2255.75 1519.03 2255.75 1523.52 Q2255.75 1525.65 2254.94 1527.57 Q2254.15 1529.47 2252.05 1532.07 Q2251.47 1532.74 2248.37 1535.95 Q2245.26 1539.15 2239.62 1544.91 Z" fill="#000000" fill-rule="nonzero" fill-opacity="1" /><path clip-path="url(#clip730)" d="M2275.75 1517.37 Q2272.14 1517.37 2270.31 1520.93 Q2268.5 1524.47 2268.5 1531.6 Q2268.5 1538.71 2270.31 1542.27 Q2272.14 1545.82 2275.75 1545.82 Q2279.38 1545.82 2281.19 1542.27 Q2283.02 1538.71 2283.02 1531.6 Q2283.02 1524.47 2281.19 1520.93 Q2279.38 1517.37 2275.75 1517.37 M2275.75 1513.66 Q2281.56 1513.66 2284.62 1518.27 Q2287.69 1522.85 2287.69 1531.6 Q2287.69 1540.33 2284.62 1544.94 Q2281.56 1549.52 2275.75 1549.52 Q2269.94 1549.52 2266.86 1544.94 Q2263.81 1540.33 2263.81 1531.6 Q2263.81 1522.85 2266.86 1518.27 Q2269.94 1513.66 2275.75 1513.66 Z" fill="#000000" fill-rule="nonzero" fill-opacity="1" /><path clip-path="url(#clip730)" d="M2305.91 1517.37 Q2302.3 1517.37 2300.47 1520.93 Q2298.67 1524.47 2298.67 1531.6 Q2298.67 1538.71 2300.47 1542.27 Q2302.3 1545.82 2305.91 1545.82 Q2309.55 1545.82 2311.35 1542.27 Q2313.18 1538.71 2313.18 1531.6 Q2313.18 1524.47 2311.35 1520.93 Q2309.55 1517.37 2305.91 1517.37 M2305.91 1513.66 Q2311.72 1513.66 2314.78 1518.27 Q2317.86 1522.85 2317.86 1531.6 Q2317.86 1540.33 2314.78 1544.94 Q2311.72 1549.52 2305.91 1549.52 Q2300.1 1549.52 2297.02 1544.94 Q2293.97 1540.33 2293.97 1531.6 Q2293.97 1522.85 2297.02 1518.27 Q2300.1 1513.66 2305.91 1513.66 Z" fill="#000000" fill-rule="nonzero" fill-opacity="1" /><path clip-path="url(#clip730)" d="M2336.07 1517.37 Q2332.46 1517.37 2330.63 1520.93 Q2328.83 1524.47 2328.83 1531.6 Q2328.83 1538.71 2330.63 1542.27 Q2332.46 1545.82 2336.07 1545.82 Q2339.71 1545.82 2341.51 1542.27 Q2343.34 1538.71 2343.34 1531.6 Q2343.34 1524.47 2341.51 1520.93 Q2339.71 1517.37 2336.07 1517.37 M2336.07 1513.66 Q2341.88 1513.66 2344.94 1518.27 Q2348.02 1522.85 2348.02 1531.6 Q2348.02 1540.33 2344.94 1544.94 Q2341.88 1549.52 2336.07 1549.52 Q2330.26 1549.52 2327.18 1544.94 Q2324.13 1540.33 2324.13 1531.6 Q2324.13 1522.85 2327.18 1518.27 Q2330.26 1513.66 2336.07 1513.66 Z" fill="#000000" fill-rule="nonzero" fill-opacity="1" /><polyline clip-path="url(#clip732)" style="stroke:#000000; stroke-linecap:round; stroke-linejoin:round; stroke-width:2; stroke-opacity:0.1; fill:none" points="170.857,1247.67 2352.76,1247.67 "/>
<polyline clip-path="url(#clip732)" style="stroke:#000000; stroke-linecap:round; stroke-linejoin:round; stroke-width:2; stroke-opacity:0.1; fill:none" points="170.857,1005.89 2352.76,1005.89 "/>
<polyline clip-path="url(#clip732)" style="stroke:#000000; stroke-linecap:round; stroke-linejoin:round; stroke-width:2; stroke-opacity:0.1; fill:none" points="170.857,764.1 2352.76,764.1 "/>
<polyline clip-path="url(#clip732)" style="stroke:#000000; stroke-linecap:round; stroke-linejoin:round; stroke-width:2; stroke-opacity:0.1; fill:none" points="170.857,522.315 2352.76,522.315 "/>
<polyline clip-path="url(#clip732)" style="stroke:#000000; stroke-linecap:round; stroke-linejoin:round; stroke-width:2; stroke-opacity:0.1; fill:none" points="170.857,280.53 2352.76,280.53 "/>
<polyline clip-path="url(#clip730)" style="stroke:#000000; stroke-linecap:round; stroke-linejoin:round; stroke-width:4; stroke-opacity:1; fill:none" points="170.857,1486.45 170.857,47.2441 "/>
<polyline clip-path="url(#clip730)" style="stroke:#000000; stroke-linecap:round; stroke-linejoin:round; stroke-width:4; stroke-opacity:1; fill:none" points="170.857,1247.67 189.755,1247.67 "/>
<polyline clip-path="url(#clip730)" style="stroke:#000000; stroke-linecap:round; stroke-linejoin:round; stroke-width:4; stroke-opacity:1; fill:none" points="170.857,1005.89 189.755,1005.89 "/>
<polyline clip-path="url(#clip730)" style="stroke:#000000; stroke-linecap:round; stroke-linejoin:round; stroke-width:4; stroke-opacity:1; fill:none" points="170.857,764.1 189.755,764.1 "/>
<polyline clip-path="url(#clip730)" style="stroke:#000000; stroke-linecap:round; stroke-linejoin:round; stroke-width:4; stroke-opacity:1; fill:none" points="170.857,522.315 189.755,522.315 "/>
<polyline clip-path="url(#clip730)" style="stroke:#000000; stroke-linecap:round; stroke-linejoin:round; stroke-width:4; stroke-opacity:1; fill:none" points="170.857,280.53 189.755,280.53 "/>
<path clip-path="url(#clip730)" d="M82.7975 1230.39 L101.154 1230.39 L101.154 1234.33 L87.0799 1234.33 L87.0799 1242.8 Q88.0984 1242.45 89.1169 1242.29 Q90.1354 1242.1 91.1539 1242.1 Q96.941 1242.1 100.321 1245.27 Q103.7 1248.45 103.7 1253.86 Q103.7 1259.44 100.228 1262.54 Q96.7558 1265.62 90.4364 1265.62 Q88.2604 1265.62 85.9919 1265.25 Q83.7466 1264.88 81.3392 1264.14 L81.3392 1259.44 Q83.4225 1260.58 85.6447 1261.13 Q87.8669 1261.69 90.3438 1261.69 Q94.3484 1261.69 96.6863 1259.58 Q99.0243 1257.47 99.0243 1253.86 Q99.0243 1250.25 96.6863 1248.15 Q94.3484 1246.04 90.3438 1246.04 Q88.4688 1246.04 86.5938 1246.46 Q84.7419 1246.87 82.7975 1247.75 L82.7975 1230.39 Z" fill="#000000" fill-rule="nonzero" fill-opacity="1" /><path clip-path="url(#clip730)" d="M122.913 1233.47 Q119.302 1233.47 117.473 1237.03 Q115.668 1240.58 115.668 1247.71 Q115.668 1254.81 117.473 1258.38 Q119.302 1261.92 122.913 1261.92 Q126.547 1261.92 128.353 1258.38 Q130.182 1254.81 130.182 1247.71 Q130.182 1240.58 128.353 1237.03 Q126.547 1233.47 122.913 1233.47 M122.913 1229.77 Q128.723 1229.77 131.779 1234.37 Q134.857 1238.96 134.857 1247.71 Q134.857 1256.43 131.779 1261.04 Q128.723 1265.62 122.913 1265.62 Q117.103 1265.62 114.024 1261.04 Q110.969 1256.43 110.969 1247.71 Q110.969 1238.96 114.024 1234.37 Q117.103 1229.77 122.913 1229.77 Z" fill="#000000" fill-rule="nonzero" fill-opacity="1" /><path clip-path="url(#clip730)" d="M53.3995 1019.23 L61.0384 1019.23 L61.0384 992.865 L52.7282 994.531 L52.7282 990.272 L60.9921 988.605 L65.668 988.605 L65.668 1019.23 L73.3068 1019.23 L73.3068 1023.17 L53.3995 1023.17 L53.3995 1019.23 Z" fill="#000000" fill-rule="nonzero" fill-opacity="1" /><path clip-path="url(#clip730)" d="M92.7512 991.684 Q89.1401 991.684 87.3114 995.249 Q85.5058 998.791 85.5058 1005.92 Q85.5058 1013.03 87.3114 1016.59 Q89.1401 1020.13 92.7512 1020.13 Q96.3854 1020.13 98.1909 1016.59 Q100.02 1013.03 100.02 1005.92 Q100.02 998.791 98.1909 995.249 Q96.3854 991.684 92.7512 991.684 M92.7512 987.98 Q98.5613 987.98 101.617 992.587 Q104.696 997.17 104.696 1005.92 Q104.696 1014.65 101.617 1019.25 Q98.5613 1023.84 92.7512 1023.84 Q86.941 1023.84 83.8623 1019.25 Q80.8068 1014.65 80.8068 1005.92 Q80.8068 997.17 83.8623 992.587 Q86.941 987.98 92.7512 987.98 Z" fill="#000000" fill-rule="nonzero" fill-opacity="1" /><path clip-path="url(#clip730)" d="M122.913 991.684 Q119.302 991.684 117.473 995.249 Q115.668 998.791 115.668 1005.92 Q115.668 1013.03 117.473 1016.59 Q119.302 1020.13 122.913 1020.13 Q126.547 1020.13 128.353 1016.59 Q130.182 1013.03 130.182 1005.92 Q130.182 998.791 128.353 995.249 Q126.547 991.684 122.913 991.684 M122.913 987.98 Q128.723 987.98 131.779 992.587 Q134.857 997.17 134.857 1005.92 Q134.857 1014.65 131.779 1019.25 Q128.723 1023.84 122.913 1023.84 Q117.103 1023.84 114.024 1019.25 Q110.969 1014.65 110.969 1005.92 Q110.969 997.17 114.024 992.587 Q117.103 987.98 122.913 987.98 Z" fill="#000000" fill-rule="nonzero" fill-opacity="1" /><path clip-path="url(#clip730)" d="M53.3995 777.445 L61.0384 777.445 L61.0384 751.079 L52.7282 752.746 L52.7282 748.487 L60.9921 746.82 L65.668 746.82 L65.668 777.445 L73.3068 777.445 L73.3068 781.38 L53.3995 781.38 L53.3995 777.445 Z" fill="#000000" fill-rule="nonzero" fill-opacity="1" /><path clip-path="url(#clip730)" d="M82.7975 746.82 L101.154 746.82 L101.154 750.755 L87.0799 750.755 L87.0799 759.228 Q88.0984 758.88 89.1169 758.718 Q90.1354 758.533 91.1539 758.533 Q96.941 758.533 100.321 761.704 Q103.7 764.876 103.7 770.292 Q103.7 775.871 100.228 778.973 Q96.7558 782.051 90.4364 782.051 Q88.2604 782.051 85.9919 781.681 Q83.7466 781.311 81.3392 780.57 L81.3392 775.871 Q83.4225 777.005 85.6447 777.561 Q87.8669 778.116 90.3438 778.116 Q94.3484 778.116 96.6863 776.01 Q99.0243 773.903 99.0243 770.292 Q99.0243 766.681 96.6863 764.575 Q94.3484 762.468 90.3438 762.468 Q88.4688 762.468 86.5938 762.885 Q84.7419 763.302 82.7975 764.181 L82.7975 746.82 Z" fill="#000000" fill-rule="nonzero" fill-opacity="1" /><path clip-path="url(#clip730)" d="M122.913 749.899 Q119.302 749.899 117.473 753.464 Q115.668 757.005 115.668 764.135 Q115.668 771.241 117.473 774.806 Q119.302 778.348 122.913 778.348 Q126.547 778.348 128.353 774.806 Q130.182 771.241 130.182 764.135 Q130.182 757.005 128.353 753.464 Q126.547 749.899 122.913 749.899 M122.913 746.195 Q128.723 746.195 131.779 750.802 Q134.857 755.385 134.857 764.135 Q134.857 772.862 131.779 777.468 Q128.723 782.051 122.913 782.051 Q117.103 782.051 114.024 777.468 Q110.969 772.862 110.969 764.135 Q110.969 755.385 114.024 750.802 Q117.103 746.195 122.913 746.195 Z" fill="#000000" fill-rule="nonzero" fill-opacity="1" /><path clip-path="url(#clip730)" d="M56.6171 535.66 L72.9365 535.66 L72.9365 539.595 L50.9921 539.595 L50.9921 535.66 Q53.6541 532.905 58.2375 528.276 Q62.8439 523.623 64.0245 522.28 Q66.2698 519.757 67.1494 518.021 Q68.0522 516.262 68.0522 514.572 Q68.0522 511.817 66.1078 510.081 Q64.1865 508.345 61.0847 508.345 Q58.8856 508.345 56.4319 509.109 Q54.0014 509.873 51.2236 511.424 L51.2236 506.702 Q54.0477 505.567 56.5014 504.989 Q58.955 504.41 60.9921 504.41 Q66.3624 504.41 69.5568 507.095 Q72.7513 509.78 72.7513 514.271 Q72.7513 516.401 71.9411 518.322 Q71.1541 520.22 69.0476 522.813 Q68.4689 523.484 65.367 526.701 Q62.2652 529.896 56.6171 535.66 Z" fill="#000000" fill-rule="nonzero" fill-opacity="1" /><path clip-path="url(#clip730)" d="M92.7512 508.114 Q89.1401 508.114 87.3114 511.678 Q85.5058 515.22 85.5058 522.35 Q85.5058 529.456 87.3114 533.021 Q89.1401 536.563 92.7512 536.563 Q96.3854 536.563 98.1909 533.021 Q100.02 529.456 100.02 522.35 Q100.02 515.22 98.1909 511.678 Q96.3854 508.114 92.7512 508.114 M92.7512 504.41 Q98.5613 504.41 101.617 509.016 Q104.696 513.6 104.696 522.35 Q104.696 531.076 101.617 535.683 Q98.5613 540.266 92.7512 540.266 Q86.941 540.266 83.8623 535.683 Q80.8068 531.076 80.8068 522.35 Q80.8068 513.6 83.8623 509.016 Q86.941 504.41 92.7512 504.41 Z" fill="#000000" fill-rule="nonzero" fill-opacity="1" /><path clip-path="url(#clip730)" d="M122.913 508.114 Q119.302 508.114 117.473 511.678 Q115.668 515.22 115.668 522.35 Q115.668 529.456 117.473 533.021 Q119.302 536.563 122.913 536.563 Q126.547 536.563 128.353 533.021 Q130.182 529.456 130.182 522.35 Q130.182 515.22 128.353 511.678 Q126.547 508.114 122.913 508.114 M122.913 504.41 Q128.723 504.41 131.779 509.016 Q134.857 513.6 134.857 522.35 Q134.857 531.076 131.779 535.683 Q128.723 540.266 122.913 540.266 Q117.103 540.266 114.024 535.683 Q110.969 531.076 110.969 522.35 Q110.969 513.6 114.024 509.016 Q117.103 504.41 122.913 504.41 Z" fill="#000000" fill-rule="nonzero" fill-opacity="1" /><path clip-path="url(#clip730)" d="M56.6171 293.874 L72.9365 293.874 L72.9365 297.81 L50.9921 297.81 L50.9921 293.874 Q53.6541 291.12 58.2375 286.49 Q62.8439 281.837 64.0245 280.495 Q66.2698 277.972 67.1494 276.236 Q68.0522 274.476 68.0522 272.787 Q68.0522 270.032 66.1078 268.296 Q64.1865 266.56 61.0847 266.56 Q58.8856 266.56 56.4319 267.324 Q54.0014 268.088 51.2236 269.638 L51.2236 264.916 Q54.0477 263.782 56.5014 263.203 Q58.955 262.625 60.9921 262.625 Q66.3624 262.625 69.5568 265.31 Q72.7513 267.995 72.7513 272.486 Q72.7513 274.615 71.9411 276.537 Q71.1541 278.435 69.0476 281.027 Q68.4689 281.699 65.367 284.916 Q62.2652 288.111 56.6171 293.874 Z" fill="#000000" fill-rule="nonzero" fill-opacity="1" /><path clip-path="url(#clip730)" d="M82.7975 263.25 L101.154 263.25 L101.154 267.185 L87.0799 267.185 L87.0799 275.657 Q88.0984 275.31 89.1169 275.148 Q90.1354 274.963 91.1539 274.963 Q96.941 274.963 100.321 278.134 Q103.7 281.305 103.7 286.722 Q103.7 292.3 100.228 295.402 Q96.7558 298.481 90.4364 298.481 Q88.2604 298.481 85.9919 298.111 Q83.7466 297.74 81.3392 296.999 L81.3392 292.3 Q83.4225 293.435 85.6447 293.99 Q87.8669 294.546 90.3438 294.546 Q94.3484 294.546 96.6863 292.439 Q99.0243 290.333 99.0243 286.722 Q99.0243 283.111 96.6863 281.004 Q94.3484 278.898 90.3438 278.898 Q88.4688 278.898 86.5938 279.314 Q84.7419 279.731 82.7975 280.611 L82.7975 263.25 Z" fill="#000000" fill-rule="nonzero" fill-opacity="1" /><path clip-path="url(#clip730)" d="M122.913 266.328 Q119.302 266.328 117.473 269.893 Q115.668 273.435 115.668 280.564 Q115.668 287.671 117.473 291.236 Q119.302 294.777 122.913 294.777 Q126.547 294.777 128.353 291.236 Q130.182 287.671 130.182 280.564 Q130.182 273.435 128.353 269.893 Q126.547 266.328 122.913 266.328 M122.913 262.625 Q128.723 262.625 131.779 267.231 Q134.857 271.814 134.857 280.564 Q134.857 289.291 131.779 293.898 Q128.723 298.481 122.913 298.481 Q117.103 298.481 114.024 293.898 Q110.969 289.291 110.969 280.564 Q110.969 271.814 114.024 267.231 Q117.103 262.625 122.913 262.625 Z" fill="#000000" fill-rule="nonzero" fill-opacity="1" /><polyline clip-path="url(#clip732)" style="stroke:#009af9; stroke-linecap:round; stroke-linejoin:round; stroke-width:4; stroke-opacity:1; fill:none" points="232.609,1440.62 233.638,1440.95 234.668,1430.5 235.697,1430.91 236.726,1445.51 237.755,1445.72 238.784,1414.06 239.814,1414.54 240.843,1432.11 241.872,1432.38 242.901,1424.79 243.93,1425.14 244.96,1414.83 245.989,1415.19 247.018,1412.56 248.047,1412.89 249.076,1396.84 250.106,1397.34 251.135,1416.39 252.164,1416.65 253.193,1393.13 254.222,1393.54 255.252,1392.15 256.281,1392.59 257.31,1361.97 258.339,1362.59 259.368,1336.5 260.398,1337.49 261.427,1328.1 262.456,1328.89 263.485,1325.33 264.514,1326.04 265.544,1329.46 266.573,1330.03 267.602,1329.55 268.631,1330.2 269.66,1303.41 270.69,1304.08 271.719,1290.69 272.748,1291.49 273.777,1331.27 274.806,1331.7 275.836,1260.54 276.865,1261.38 277.894,1285.95 278.923,1286.52 279.952,1245.4 280.982,1246.21 282.011,1254.35 283.04,1255.03 284.069,1294.24 285.098,1294.64 286.128,1238.14 287.157,1238.88 288.186,1231.43 289.215,1232.08 290.244,1267.8 291.274,1268.25 292.303,1264.17 293.332,1264.63 294.361,1229.93 295.39,1230.49 296.42,1242.92 297.449,1243.44 298.478,1184.77 299.507,1185.68 300.536,1214.93 301.565,1215.67 302.595,1187.22 303.624,1187.91 304.653,1185.54 305.682,1186.23 306.711,1205.33 307.741,1205.98 308.77,1179.18 309.799,1179.83 310.828,1203.8 311.857,1204.36 312.887,1146.5 313.916,1147.33 314.945,1154.3 315.974,1154.95 317.003,1153.81 318.033,1154.4 319.062,1140.17 320.091,1141.02 321.12,1147.3 322.149,1147.97 323.179,1154.79 324.208,1155.47 325.237,1094.22 326.266,1095.07 327.295,1068.53 328.325,1069.51 329.354,1131.8 330.383,1132.44 331.412,1089.61 332.441,1090.33 333.471,1138.96 334.5,1139.65 335.529,1104.63 336.558,1105.39 337.587,1100.13 338.617,1100.92 339.646,1112.12 340.675,1112.7 341.704,1096.95 342.733,1097.61 343.763,1090.11 344.792,1090.84 345.821,1041.97 346.85,1042.8 347.879,1055.93 348.909,1056.73 349.938,1027.11 350.967,1027.93 351.996,1076.24 353.025,1076.8 354.055,1073.61 355.084,1074.42 356.113,1065.98 357.142,1066.59 358.171,1041.21 359.201,1041.95 360.23,988.757 361.259,989.628 362.288,1035.1 363.317,1035.85 364.347,1035.09 365.376,1035.71 366.405,1026.3 367.434,1027.01 368.463,1034.17 369.493,1034.93 370.522,1025.64 371.551,1026.49 372.58,960.031 373.609,961 374.639,1002.24 375.668,1002.92 376.697,955.263 377.726,956.167 378.755,991.553 379.784,992.341 380.814,1006.31 381.843,1007.13 382.872,1001.75 383.901,1002.58 384.93,966.805 385.96,967.725 386.989,1002.07 388.018,1002.83 389.047,997.069 390.076,997.919 391.106,948.87 392.135,950.07 393.164,928.564 394.193,929.579 395.222,962.632 396.252,963.53 397.281,935.858 398.31,936.806 399.339,883.037 400.368,884.174 401.398,966.849 402.427,967.623 403.456,940.241 404.485,941.185 405.514,900.615 406.544,901.921 407.573,932.323 408.602,933.387 409.631,957.096 410.66,957.944 411.69,921.343 412.719,922.265 413.748,934.458 414.777,935.442 415.806,928.687 416.836,929.506 417.865,930.366 418.894,931.041 419.923,875.351 420.952,876.453 421.982,910.853 423.011,911.721 424.04,875.605 425.069,876.766 426.098,866.414 427.128,867.631 428.157,913.398 429.186,914.276 430.215,870.596 431.244,871.96 432.274,878.591 433.303,879.66 434.332,900.924 435.361,901.828 436.39,919.863 437.42,920.712 438.449,856.038 439.478,857.193 440.507,872.601 441.536,873.758 442.566,816.082 443.595,817.384 444.624,843.12 445.653,844.387 446.682,808.674 447.712,810.061 448.741,832.307 449.77,833.614 450.799,815.659 451.828,816.996 452.858,833.74 453.887,834.829 454.916,779.871 455.945,781.215 456.974,759.751 458.003,761.331 459.033,796.066 460.062,797.41 461.091,792.667 462.12,794.041 463.149,833.099 464.179,834.226 465.208,833.379 466.237,834.279 467.266,810.814 468.295,811.908 469.325,773.729 470.354,775.036 471.383,812.126 472.412,813.114 473.441,815.014 474.471,816.151 475.5,760.64 476.529,761.822 477.558,802.37 478.587,803.498 479.617,792.062 480.646,793.391 481.675,797.946 482.704,799.105 483.733,807.735 484.763,808.8 485.792,809.641 486.821,810.99 487.85,743.69 488.879,745.2 489.909,761.045 490.938,762.7 491.967,770.8 492.996,772.02 494.025,774.893 495.055,776.238 496.084,755.363 497.113,756.947 498.142,759.698 499.171,761.204 500.201,741.089 501.23,742.681 502.259,775.425 503.288,776.833 504.317,746.179 505.347,747.627 506.376,701.225 507.405,702.659 508.434,746.139 509.463,747.288 510.493,756.115 511.522,757.179 512.551,776.277 513.58,777.485 514.609,736.222 515.639,737.767 516.668,758.932 517.697,760.142 518.726,745.437 519.755,747.037 520.785,715.75 521.814,717.297 522.843,751.558 523.872,752.733 524.901,721.661 525.931,723.194 526.96,735.298 527.989,736.694 529.018,688.482 530.047,690.063 531.077,729.198 532.106,730.472 533.135,716.082 534.164,717.492 535.193,706.889 536.222,708.225 537.252,693.424 538.281,695.026 539.31,745.801 540.339,747.113 541.368,729.178 542.398,730.498 543.427,729.726 544.456,731.07 545.485,684.429 546.514,686.004 547.544,680.654 548.573,682.207 549.602,683.186 550.631,684.679 551.66,680.188 552.69,681.606 553.719,700.022 554.748,701.347 555.777,689.72 556.806,691.154 557.836,705.18 558.865,706.323 559.894,698.615 560.923,699.835 561.952,664.878 562.982,666.346 564.011,671.429 565.04,672.91 566.069,678.228 567.098,679.605 568.128,677.739 569.157,679.311 570.186,664.491 571.215,666.007 572.244,708.306 573.274,709.868 574.303,666.466 575.332,668.027 576.361,708.688 577.39,710.139 578.42,653.91 579.449,655.457 580.478,674.617 581.507,675.949 582.536,637.198 583.566,638.817 584.595,673.362 585.624,675.075 586.653,611.681 587.682,613.247 588.712,587.413 589.741,589.253 590.77,636.847 591.799,638.517 592.828,647.607 593.858,649.188 594.887,613.276 595.916,614.813 596.945,620.871 597.974,622.427 599.004,643.607 600.033,645.114 601.062,674.561 602.091,676.388 603.12,640.019 604.15,641.602 605.179,657.235 606.208,658.642 607.237,584.133 608.266,585.908 609.296,596.411 610.325,597.937 611.354,606.334 612.383,608.248 613.412,628.922 614.441,630.621 615.471,652.862 616.5,654.542 617.529,575.013 618.558,576.829 619.587,574.43 620.617,576.123 621.646,573.621 622.675,575.339 623.704,599.28 624.733,601.429 625.763,566.071 626.792,567.897 627.821,589.097 628.85,590.935 629.879,585.468 630.909,587.243 631.938,630.091 632.967,631.718 633.996,551.571 635.025,553.255 636.055,583.801 637.084,585.758 638.113,609.605 639.142,611.088 640.171,551.745 641.201,553.188 642.23,581.455 643.259,582.918 644.288,557.212 645.317,558.906 646.347,558.954 647.376,560.631 648.405,527.653 649.434,529.668 650.463,613.628 651.493,615.627 652.522,532.012 653.551,533.95 654.58,589.986 655.609,591.745 656.639,533.328 657.668,535.265 658.697,550.883 659.726,552.544 660.755,570.561 661.785,572.32 662.814,571.595 663.843,573.627 664.872,494.792 665.901,497.044 666.931,507.93 667.96,510.038 668.989,554.795 670.018,556.396 671.047,564.384 672.077,566.183 673.106,528.825 674.135,530.615 675.164,538.903 676.193,540.836 677.223,515.49 678.252,517.56 679.281,521.137 680.31,523.106 681.339,508.678 682.369,511.556 683.398,488.114 684.427,490.323 685.456,454.279 686.485,457.062 687.515,524.899 688.544,527.086 689.573,429.599 690.602,432.43 691.631,499.096 692.66,501.803 693.69,500.935 694.719,502.88 695.748,519.855 696.777,522.197 697.806,444.637 698.836,447.597 699.865,480.052 700.894,483.077 701.923,438.541 702.952,441.191 703.982,462.026 705.011,464.13 706.04,476.367 707.069,478.705 708.098,439.978 709.128,442.805 710.157,444.367 711.186,446.879 712.215,476.204 713.244,478.218 714.274,444.128 715.303,447.476 716.332,436.012 717.361,438.087 718.39,424.32 719.42,427.222 720.449,429.591 721.478,431.731 722.507,452.025 723.536,454.202 724.566,452.842 725.595,455.003 726.624,441.323 727.653,443.775 728.682,432.073 729.712,434.302 730.741,440.308 731.77,442.825 732.799,397.426 733.828,399.725 734.858,414.623 735.887,416.949 736.916,451.89 737.945,453.864 738.974,396.582 740.004,399.649 741.033,430.857 742.062,433.237 743.091,408.111 744.12,410.82 745.15,385.565 746.179,387.857 747.208,409.712 748.237,411.451 749.266,393.62 750.296,395.681 751.325,387.33 752.354,389.838 753.383,414.537 754.412,416.947 755.442,408.661 756.471,411.547 757.5,427.543 758.529,430.471 759.558,363.714 760.588,366.335 761.617,377.143 762.646,379.64 763.675,384.245 764.704,386.423 765.734,336.279 766.763,339.845 767.792,360.79 768.821,363.528 769.85,387.174 770.88,389.783 771.909,353.883 772.938,356.597 773.967,404.088 774.996,406.426 776.025,357.748 777.055,360.387 778.084,393.939 779.113,396.253 780.142,348.465 781.171,351.808 782.201,382.276 783.23,384.754 784.259,353.868 785.288,357.022 786.317,353.853 787.347,356.198 788.376,389.236 789.405,391.613 790.434,329.505 791.463,331.905 792.493,362.435 793.522,365.354 794.551,338.463 795.58,341.259 796.609,305.532 797.639,308.865 798.668,334.554 799.697,337.317 800.726,328.644 801.755,331.1 802.785,343.888 803.814,346.529 804.843,374.244 805.872,376.409 806.901,342.564 807.931,344.865 808.96,350.069 809.989,352.758 811.018,334.472 812.047,336.784 813.077,334.646 814.106,337.471 815.135,357.661 816.164,360.554 817.193,318.748 818.223,320.997 819.252,352.73 820.281,355.846 821.31,361.022 822.339,363.648 823.369,329.856 824.398,332.367 825.427,307.268 826.456,309.696 827.485,344.646 828.515,346.836 829.544,351.541 830.573,353.558 831.602,356.284 832.631,358.705 833.661,305.25 834.69,307.771 835.719,335.083 836.748,337.86 837.777,331.666 838.807,334.77 839.836,321.306 840.865,323.33 841.894,355.694 842.923,358.252 843.953,348.488 844.982,350.553 846.011,305.765 847.04,308.591 848.069,301.115 849.099,303.856 850.128,337.849 851.157,340.507 852.186,330.697 853.215,332.904 854.244,319.511 855.274,322.457 856.303,319.643 857.332,322.334 858.361,309.327 859.39,311.714 860.42,297.247 861.449,299.436 862.478,322.629 863.507,325.078 864.536,318.569 865.566,321.37 866.595,292.65 867.624,295.079 868.653,278.07 869.682,280.735 870.712,351.066 871.741,353.136 872.77,319.393 873.799,322.237 874.828,309.204 875.858,311.925 876.887,286.206 877.916,289.006 878.945,287.962 879.974,290.695 881.004,305.347 882.033,308.773 883.062,315.558 884.091,319.11 885.12,278.362 886.15,280.653 887.179,300.817 888.208,303.034 889.237,270.07 890.266,272.652 891.296,318.252 892.325,321.12 893.354,263.815 894.383,266.352 895.412,288.763 896.442,291.206 897.471,302.994 898.5,305.984 899.529,295.021 900.558,297.375 901.588,293.031 902.617,295.704 903.646,244.164 904.675,247.069 905.704,327.77 906.734,330.486 907.763,302.163 908.792,304.677 909.821,282.54 910.85,285.712 911.88,290.135 912.909,293.038 913.938,283.012 914.967,285.65 915.996,326.796 917.026,328.764 918.055,283.319 919.084,285.886 920.113,274.931 921.142,277.845 922.172,301.863 923.201,304.536 924.23,280.934 925.259,284.417 926.288,261.614 927.318,264.037 928.347,296.031 929.376,298.429 930.405,313.491 931.434,315.966 932.463,212.625 933.493,215.719 934.522,322.099 935.551,324.999 936.58,294.259 937.609,296.665 938.639,256.811 939.668,259.443 940.697,273.518 941.726,276.857 942.755,300.537 943.785,302.818 944.814,290.812 945.843,294.108 946.872,275.978 947.901,278.532 948.931,266.303 949.96,269.048 950.989,315.893 952.018,318.496 953.047,265.874 954.077,268.953 955.106,270.878 956.135,274.566 957.164,258.333 958.193,261.846 959.223,260.927 960.252,263.688 961.281,271.488 962.31,274.642 963.339,241.742 964.369,244.767 965.398,298.379 966.427,300.902 967.456,273.398 968.485,275.965 969.515,249.396 970.544,251.973 971.573,284.573 972.602,286.957 973.631,290.369 974.661,293.129 975.69,245.471 976.719,248.555 977.748,253.363 978.777,256.428 979.807,237.392 980.836,240.019 981.865,270.22 982.894,273.721 983.923,280.033 984.953,283.089 985.982,235.957 987.011,239.404 988.04,257.189 989.069,260.223 990.099,252.445 991.128,255.503 992.157,238.62 993.186,241.622 994.215,241.045 995.245,243.386 996.274,267.52 997.303,270.311 998.332,234.057 999.361,236.623 1000.39,265.294 1001.42,267.933 1002.45,275.662 1003.48,278.458 1004.51,266.248 1005.54,268.863 1006.57,287.623 1007.59,289.652 1008.62,248.682 1009.65,251.172 1010.68,277.062 1011.71,279.791 1012.74,219.944 1013.77,222.511 1014.8,256.298 1015.83,258.914 1016.86,245.869 1017.89,248.599 1018.92,249.954 1019.95,253.2 1020.97,236.064 1022,238.809 1023.03,263.074 1024.06,266.018 1025.09,263.539 1026.12,265.964 1027.15,249.235 1028.18,252.112 1029.21,244.63 1030.24,248.104 1031.27,230.88 1032.3,234.025 1033.32,245.651 1034.35,248.527 1035.38,199.58 1036.41,202.549 1037.44,227.322 1038.47,230.225 1039.5,221.238 1040.53,224.739 1041.56,223.36 1042.59,226.552 1043.62,253.714 1044.65,257.282 1045.68,230.985 1046.7,233.881 1047.73,239.485 1048.76,242.072 1049.79,251.283 1050.82,254.824 1051.85,195.638 1052.88,198.577 1053.91,194.984 1054.94,197.837 1055.97,226.365 1057,229.5 1058.03,239.539 1059.05,242.706 1060.08,228.049 1061.11,230.749 1062.14,199.639 1063.17,202.214 1064.2,203.306 1065.23,205.793 1066.26,264.864 1067.29,267.384 1068.32,214.996 1069.35,218.043 1070.38,204.324 1071.41,207.444 1072.43,198.529 1073.46,202.088 1074.49,245.744 1075.52,249.184 1076.55,231.884 1077.58,235.021 1078.61,212.318 1079.64,216.675 1080.67,225.349 1081.7,227.673 1082.73,191.392 1083.76,194.231 1084.78,200.891 1085.81,203.958 1086.84,222.603 1087.87,225.564 1088.9,196.363 1089.93,199.48 1090.96,206.775 1091.99,210.383 1093.02,202.309 1094.05,206.279 1095.08,188.048 1096.11,191.67 1097.14,210.147 1098.16,214.959 1099.19,199.006 1100.22,202.617 1101.25,192.704 1102.28,194.967 1103.31,174.022 1104.34,177.518 1105.37,193.327 1106.4,196.753 1107.43,177.499 1108.46,180.603 1109.49,226.091 1110.51,229.011 1111.54,240.502 1112.57,242.977 1113.6,232.203 1114.63,235.615 1115.66,200.456 1116.69,203.532 1117.72,215.029 1118.75,217.95 1119.78,204.421 1120.81,207.51 1121.84,188.862 1122.87,192.667 1123.89,174.887 1124.92,179.256 1125.95,211.389 1126.98,215.271 1128.01,194.748 1129.04,198.265 1130.07,219.036 1131.1,222.282 1132.13,195.503 1133.16,198.55 1134.19,191.412 1135.22,196.299 1136.24,183.711 1137.27,186.686 1138.3,190.808 1139.33,193.877 1140.36,178.194 1141.39,181.814 1142.42,192.225 1143.45,195.399 1144.48,176.093 1145.51,179.101 1146.54,193.653 1147.57,196.897 1148.59,203.682 1149.62,207.409 1150.65,194.121 1151.68,197.769 1152.71,225.542 1153.74,228.086 1154.77,213.737 1155.8,217.101 1156.83,204.352 1157.86,207.765 1158.89,196.783 1159.92,200.021 1160.95,188.512 1161.97,192.17 1163,183.575 1164.03,187.982 1165.06,190.434 1166.09,193.553 1167.12,190.668 1168.15,193.995 1169.18,155.152 1170.21,158.702 1171.24,188.437 1172.27,191.454 1173.3,172.614 1174.32,175.942 1175.35,206.314 1176.38,208.723 1177.41,190.809 1178.44,193.95 1179.47,174.353 1180.5,177.465 1181.53,191.787 1182.56,195.158 1183.59,185.937 1184.62,188.785 1185.65,191.014 1186.68,193.627 1187.7,169.102 1188.73,172.005 1189.76,187.541 1190.79,190.786 1191.82,183.074 1192.85,186.259 1193.88,172.732 1194.91,176.691 1195.94,178.731 1196.97,181.861 1198,221.522 1199.03,224.081 1200.05,187.044 1201.08,190.066 1202.11,206.348 1203.14,210.001 1204.17,197.569 1205.2,200.503 1206.23,189.536 1207.26,192.578 1208.29,190.597 1209.32,194.905 1210.35,172.578 1211.38,175.261 1212.41,212.587 1213.43,216.038 1214.46,176.955 1215.49,181.562 1216.52,159.435 1217.55,163.068 1218.58,168.974 1219.61,172.144 1220.64,166.42 1221.67,170.199 1222.7,183.215 1223.73,185.539 1224.76,175.329 1225.78,178.251 1226.81,140.442 1227.84,144.266 1228.87,157.029 1229.9,160.476 1230.93,157.969 1231.96,161.028 1232.99,156.846 1234.02,161.091 1235.05,164.279 1236.08,167.497 1237.11,160.804 1238.14,164.449 1239.16,141.323 1240.19,145.408 1241.22,164.485 1242.25,168.618 1243.28,182.763 1244.31,185.974 1245.34,161.102 1246.37,164.3 1247.4,190.812 1248.43,193.223 1249.46,191.998 1250.49,195.7 1251.51,163.471 1252.54,166.762 1253.57,158.072 1254.6,160.98 1255.63,169.223 1256.66,173.296 1257.69,191.982 1258.72,195.686 1259.75,165.178 1260.78,168.765 1261.81,205.889 1262.84,209.684 1263.87,195.98 1264.89,199.871 1265.92,163.705 1266.95,166.72 1267.98,193.917 1269.01,198.463 1270.04,190.88 1271.07,193.847 1272.1,181.468 1273.13,184.803 1274.16,177.328 1275.19,180.176 1276.22,176.958 1277.24,179.618 1278.27,167.923 1279.3,170.787 1280.33,169.143 1281.36,172.435 1282.39,179.359 1283.42,181.95 1284.45,185.718 1285.48,189.291 1286.51,169.621 1287.54,172.121 1288.57,170.113 1289.59,173.093 1290.62,188.211 1291.65,191.628 1292.68,155.918 1293.71,160.278 1294.74,189.115 1295.77,191.579 1296.8,150.639 1297.83,153.487 1298.86,184.992 1299.89,188.735 1300.92,198.935 1301.95,201.853 1302.97,162.717 1304,167.629 1305.03,162.419 1306.06,165.062 1307.09,168.711 1308.12,171.564 1309.15,122.086 1310.18,126.054 1311.21,159.574 1312.24,163.642 1313.27,169.956 1314.3,173.682 1315.32,158.034 1316.35,161.271 1317.38,132.567 1318.41,137.317 1319.44,155.365 1320.47,159.142 1321.5,176.852 1322.53,181.064 1323.56,156.526 1324.59,159.298 1325.62,170.095 1326.65,173.455 1327.68,184.225 1328.7,187.804 1329.73,149.812 1330.76,154.837 1331.79,141.246 1332.82,145.96 1333.85,149.831 1334.88,153.015 1335.91,165.719 1336.94,169.836 1337.97,170.997 1339,174.041 1340.03,130.725 1341.05,134.915 1342.08,159.119 1343.11,161.828 1344.14,157.24 1345.17,160.605 1346.2,147.678 1347.23,152.09 1348.26,139.512 1349.29,143.618 1350.32,148.586 1351.35,151.824 1352.38,141.482 1353.41,145.025 1354.43,150.911 1355.46,154.654 1356.49,157.791 1357.52,160.237 1358.55,142.979 1359.58,146.347 1360.61,155.91 1361.64,158.35 1362.67,135.363 1363.7,139.003 1364.73,143.992 1365.76,148.005 1366.78,136.957 1367.81,140.687 1368.84,146.037 1369.87,151.194 1370.9,129.99 1371.93,134.562 1372.96,124.199 1373.99,127.04 1375.02,164.307 1376.05,167.006 1377.08,137.28 1378.11,140.719 1379.14,164.609 1380.16,168.186 1381.19,127.429 1382.22,130.857 1383.25,128.643 1384.28,132.866 1385.31,137.204 1386.34,141.402 1387.37,139.849 1388.4,144.162 1389.43,142.964 1390.46,146.11 1391.49,133.41 1392.51,136.754 1393.54,148.841 1394.57,153.423 1395.6,148.303 1396.63,151.742 1397.66,140.249 1398.69,143.605 1399.72,131.54 1400.75,134.562 1401.78,130.978 1402.81,133.783 1403.84,149.274 1404.87,152.518 1405.89,143.306 1406.92,146.808 1407.95,116.252 1408.98,119.624 1410.01,145.502 1411.04,148.484 1412.07,107.938 1413.1,111.05 1414.13,128.369 1415.16,131.106 1416.19,132.434 1417.22,135.579 1418.24,123.23 1419.27,127.39 1420.3,142.817 1421.33,146.134 1422.36,150.75 1423.39,154.245 1424.42,124.12 1425.45,127.992 1426.48,127.029 1427.51,130.014 1428.54,142.371 1429.57,145.821 1430.6,163.573 1431.62,167.722 1432.65,144.562 1433.68,148.221 1434.71,168.337 1435.74,172.186 1436.77,139.071 1437.8,143.495 1438.83,130.465 1439.86,133.859 1440.89,134.663 1441.92,139.135 1442.95,152.893 1443.97,156.89 1445,149.106 1446.03,153.276 1447.06,127.942 1448.09,131.595 1449.12,143.409 1450.15,146.431 1451.18,131.987 1452.21,136.225 1453.24,140.918 1454.27,143.867 1455.3,132.772 1456.32,136.1 1457.35,130.778 1458.38,133.818 1459.41,129.745 1460.44,134.289 1461.47,153.662 1462.5,157.348 1463.53,122.851 1464.56,126.72 1465.59,134.381 1466.62,137.82 1467.65,147.458 1468.68,150.959 1469.7,156.552 1470.73,159.247 1471.76,136.556 1472.79,140.931 1473.82,129.608 1474.85,132.683 1475.88,140.828 1476.91,144.638 1477.94,155.631 1478.97,159.192 1480,141.013 1481.03,145.788 1482.05,154.841 1483.08,158.444 1484.11,135.442 1485.14,139.313 1486.17,149.601 1487.2,152.74 1488.23,151.731 1489.26,155.927 1490.29,141.015 1491.32,144.69 1492.35,167.328 1493.38,171.265 1494.41,128.042 1495.43,132.195 1496.46,155.452 1497.49,158.612 1498.52,142.883 1499.55,147.18 1500.58,162.034 1501.61,166.215 1502.64,144.98 1503.67,148.055 1504.7,147.853 1505.73,150.917 1506.76,133.95 1507.78,137.775 1508.81,149.265 1509.84,152.309 1510.87,132.551 1511.9,136.137 1512.93,127.55 1513.96,131.511 1514.99,147.633 1516.02,150.736 1517.05,144.8 1518.08,148.463 1519.11,123.467 1520.14,126.469 1521.16,134.309 1522.19,137.536 1523.22,135.148 1524.25,138.675 1525.28,145.082 1526.31,148.364 1527.34,142.412 1528.37,145.416 1529.4,152.599 1530.43,156.137 1531.46,146.548 1532.49,149.403 1533.51,147.941 1534.54,151.414 1535.57,140.427 1536.6,144.214 1537.63,144.037 1538.66,147.119 1539.69,143.918 1540.72,147.365 1541.75,137.663 1542.78,140.959 1543.81,185.191 1544.84,189.246 1545.87,148.308 1546.89,151.372 1547.92,149.15 1548.95,152.728 1549.98,149.908 1551.01,152.796 1552.04,174.65 1553.07,178.648 1554.1,159.894 1555.13,162.571 1556.16,142.902 1557.19,146.586 1558.22,163.718 1559.24,166.748 1560.27,135.307 1561.3,138.425 1562.33,140.274 1563.36,143.323 1564.39,162.022 1565.42,165.132 1566.45,165.353 1567.48,169.235 1568.51,137.805 1569.54,141.435 1570.57,150.991 1571.6,155.132 1572.62,137.437 1573.65,141.6 1574.68,141.702 1575.71,145.239 1576.74,146.164 1577.77,149.818 1578.8,143.766 1579.83,146.589 1580.86,161.228 1581.89,164.395 1582.92,127.223 1583.95,131.008 1584.97,158.472 1586,162.752 1587.03,137.758 1588.06,141.507 1589.09,161.859 1590.12,165.295 1591.15,163.704 1592.18,167.947 1593.21,160.102 1594.24,163.438 1595.27,147.522 1596.3,151.276 1597.33,129.403 1598.35,132.769 1599.38,140.206 1600.41,143.47 1601.44,125.357 1602.47,128.797 1603.5,119.003 1604.53,122.315 1605.56,145.421 1606.59,148.416 1607.62,146.346 1608.65,150.327 1609.68,144.683 1610.7,147.822 1611.73,139.255 1612.76,143.094 1613.79,122.455 1614.82,125.931 1615.85,146.181 1616.88,149.385 1617.91,148.462 1618.94,151.541 1619.97,144.549 1621,147.189 1622.03,124.517 1623.05,130.327 1624.08,133.421 1625.11,137.079 1626.14,141.506 1627.17,144.821 1628.2,139.147 1629.23,142.6 1630.26,134.871 1631.29,138.233 1632.32,152.225 1633.35,155.643 1634.38,141.374 1635.41,145.109 1636.43,109.089 1637.46,112.652 1638.49,138.617 1639.52,141.672 1640.55,131.436 1641.58,134.237 1642.61,148.164 1643.64,152.358 1644.67,128.417 1645.7,132.877 1646.73,127.554 1647.76,130.907 1648.78,143.266 1649.81,147.06 1650.84,136.144 1651.87,139.86 1652.9,135.592 1653.93,138.926 1654.96,115.428 1655.99,118.884 1657.02,113.922 1658.05,117.552 1659.08,157.784 1660.11,160.545 1661.14,143.488 1662.16,146.85 1663.19,146.109 1664.22,148.903 1665.25,146.844 1666.28,150.279 1667.31,145.516 1668.34,148.437 1669.37,133.569 1670.4,136.081 1671.43,138.151 1672.46,141.229 1673.49,117.086 1674.51,120.086 1675.54,168.073 1676.57,172.112 1677.6,136.654 1678.63,139.856 1679.66,139.594 1680.69,142.903 1681.72,140.922 1682.75,144.22 1683.78,128.477 1684.81,132.278 1685.84,142.106 1686.87,145.065 1687.89,173.272 1688.92,175.952 1689.95,149.674 1690.98,151.522 1692.01,132.215 1693.04,135.922 1694.07,144.29 1695.1,147.396 1696.13,151.306 1697.16,154.918 1698.19,159.819 1699.22,163.611 1700.24,167.172 1701.27,170.691 1702.3,144.951 1703.33,148.278 1704.36,143.216 1705.39,146.661 1706.42,114.09 1707.45,117.428 1708.48,133.312 1709.51,136.145 1710.54,133.414 1711.57,136.551 1712.6,136.087 1713.62,139.379 1714.65,151.871 1715.68,156.891 1716.71,135.659 1717.74,139.701 1718.77,108.522 1719.8,112.013 1720.83,121.845 1721.86,124.452 1722.89,117.306 1723.92,120.727 1724.95,128.445 1725.97,132.041 1727,133.784 1728.03,136.103 1729.06,127.507 1730.09,130.337 1731.12,139.217 1732.15,142.389 1733.18,136.679 1734.21,139.976 1735.24,135.253 1736.27,138.925 1737.3,122.262 1738.33,125.815 1739.35,121.332 1740.38,125.793 1741.41,126.055 1742.44,130.566 1743.47,136.537 1744.5,139.194 1745.53,122.59 1746.56,126.813 1747.59,116.26 1748.62,120.303 1749.65,127.487 1750.68,130.878 1751.7,129.776 1752.73,133.655 1753.76,117.717 1754.79,122.502 1755.82,125.051 1756.85,127.506 1757.88,103.331 1758.91,107.073 1759.94,121.011 1760.97,124.063 1762,127.662 1763.03,131.191 1764.05,117.224 1765.08,120.675 1766.11,121.552 1767.14,125.167 1768.17,144.005 1769.2,147.664 1770.23,128.876 1771.26,132.405 1772.29,109.787 1773.32,113.101 1774.35,138.183 1775.38,141.142 1776.41,139.768 1777.43,143.511 1778.46,144.817 1779.49,147.953 1780.52,115.81 1781.55,120.62 1782.58,127.629 1783.61,130.442 1784.64,155.171 1785.67,158.667 1786.7,125.467 1787.73,128.888 1788.76,160.119 1789.78,163.634 1790.81,124.94 1791.84,128.265 1792.87,141.389 1793.9,144.917 1794.93,131.549 1795.96,134.22 1796.99,138.778 1798.02,141.607 1799.05,114.598 1800.08,117.515 1801.11,132.72 1802.14,136.103 1803.16,134.389 1804.19,137.705 1805.22,130.518 1806.25,134.334 1807.28,135.465 1808.31,139.082 1809.34,138.748 1810.37,141.959 1811.4,125.552 1812.43,129.018 1813.46,126.682 1814.49,129.824 1815.51,140.774 1816.54,143.998 1817.57,126.491 1818.6,130.218 1819.63,127.991 1820.66,131.698 1821.69,118.261 1822.72,121.698 1823.75,126.408 1824.78,129.732 1825.81,144.971 1826.84,147.977 1827.87,145.761 1828.89,148.788 1829.92,125.003 1830.95,128.522 1831.98,123.973 1833.01,127.547 1834.04,124.338 1835.07,128.33 1836.1,124.354 1837.13,127.347 1838.16,132.512 1839.19,135.668 1840.22,142.072 1841.24,145.211 1842.27,119.405 1843.3,122.466 1844.33,133.028 1845.36,136.331 1846.39,112.684 1847.42,116.539 1848.45,129.136 1849.48,132.843 1850.51,123.14 1851.54,126.829 1852.57,115.048 1853.6,119.493 1854.62,116.808 1855.65,121.338 1856.68,137.628 1857.71,140.688 1858.74,116.658 1859.77,120.361 1860.8,107.63 1861.83,112.13 1862.86,110.652 1863.89,113.332 1864.92,133.818 1865.95,138.077 1866.97,139.648 1868,142.498 1869.03,152.62 1870.06,156.461 1871.09,137.109 1872.12,140.514 1873.15,126.536 1874.18,129.803 1875.21,129.618 1876.24,133.083 1877.27,134.778 1878.3,138.705 1879.33,144.322 1880.35,147.938 1881.38,120.053 1882.41,123.557 1883.44,145.966 1884.47,149.093 1885.5,135.928 1886.53,139.619 1887.56,118.992 1888.59,123.709 1889.62,116.149 1890.65,120.192 1891.68,138.223 1892.7,141.061 1893.73,132.932 1894.76,136.773 1895.79,131.106 1896.82,133.802 1897.85,134.679 1898.88,138.845 1899.91,114.702 1900.94,119.081 1901.97,114.52 1903,118.331 1904.03,139.227 1905.06,142.474 1906.08,128.628 1907.11,133.133 1908.14,120.793 1909.17,123.701 1910.2,115.277 1911.23,119.732 1912.26,120.109 1913.29,123.021 1914.32,124.127 1915.35,127.354 1916.38,121.881 1917.41,124.72 1918.43,116.51 1919.46,119.953 1920.49,135.265 1921.52,138.88 1922.55,112.242 1923.58,116.287 1924.61,122.166 1925.64,125.596 1926.67,113.956 1927.7,116.869 1928.73,114.657 1929.76,117.052 1930.78,110.922 1931.81,114.721 1932.84,120.319 1933.87,123.4 1934.9,122.106 1935.93,125.564 1936.96,139.646 1937.99,142.566 1939.02,132.075 1940.05,136.653 1941.08,147.669 1942.11,150.846 1943.14,131.447 1944.16,135.371 1945.19,97.743 1946.22,101.067 1947.25,104.975 1948.28,107.967 1949.31,133.123 1950.34,136.723 1951.37,115.522 1952.4,119.396 1953.43,130.722 1954.46,134.35 1955.49,119.791 1956.51,123.453 1957.54,92.9096 1958.57,96.5724 1959.6,87.9763 1960.63,91.721 1961.66,105.852 1962.69,109.458 1963.72,90.3247 1964.75,94.4663 1965.78,103.652 1966.81,106.657 1967.84,119.856 1968.87,123.727 1969.89,96.8399 1970.92,100.203 1971.95,119.919 1972.98,122.973 1974.01,100.104 1975.04,104.471 1976.07,90.1853 1977.1,93.3889 1978.13,118.344 1979.16,122.012 1980.19,133.692 1981.22,137.25 1982.24,125.451 1983.27,128.179 1984.3,118.547 1985.33,121.714 1986.36,127.034 1987.39,130.049 1988.42,127.4 1989.45,131.307 1990.48,122.809 1991.51,126.876 1992.54,122.933 1993.57,126.186 1994.6,106.345 1995.62,108.771 1996.65,124.687 1997.68,128.948 1998.71,129.185 1999.74,132.415 2000.77,123.178 2001.8,126.926 2002.83,115.106 2003.86,119.31 2004.89,137.458 2005.92,141.061 2006.95,133.634 2007.97,137.016 2009,119.361 2010.03,122.829 2011.06,143.751 2012.09,147.524 2013.12,137.984 2014.15,140.852 2015.18,107.692 2016.21,110.918 2017.24,119.202 2018.27,122.605 2019.3,102.477 2020.33,105.923 2021.35,104.412 2022.38,107.596 2023.41,108.794 2024.44,112.267 2025.47,116.68 2026.5,120.007 2027.53,93.9275 2028.56,97.3442 2029.59,129.458 2030.62,132.907 2031.65,120.233 2032.68,122.816 2033.7,131.901 2034.73,134.744 2035.76,116.509 2036.79,120.443 2037.82,119.024 2038.85,122.26 2039.88,123.708 2040.91,127.486 2041.94,135.909 2042.97,138.978 2044,114.759 2045.03,118.815 2046.06,125.034 2047.08,128.49 2048.11,114.658 2049.14,117.271 2050.17,110.988 2051.2,114.545 2052.23,136.906 2053.26,142.792 2054.29,120.271 2055.32,124.056 2056.35,118.111 2057.38,122.108 2058.41,117.318 2059.43,121.251 2060.46,132.207 2061.49,135.514 2062.52,131.504 2063.55,134.185 2064.58,122.846 2065.61,126.118 2066.64,107.051 2067.67,111.038 2068.7,121.955 2069.73,125.054 2070.76,133.969 2071.79,136.397 2072.81,121.128 2073.84,124.074 2074.87,125.193 2075.9,128.872 2076.93,120.615 2077.96,124.092 2078.99,109.257 2080.02,112.551 2081.05,125.513 2082.08,129.457 2083.11,117.386 2084.14,120.352 2085.16,118.917 2086.19,122.094 2087.22,101.77 2088.25,105.936 2089.28,131.038 2090.31,134.945 2091.34,122.551 2092.37,126.687 2093.4,109.399 2094.43,113.712 2095.46,153.719 2096.49,156.639 2097.51,111.716 2098.54,114.462 2099.57,119.341 2100.6,123.036 2101.63,116.309 2102.66,119.889 2103.69,123.023 2104.72,126.563 2105.75,123.023 2106.78,126.875 2107.81,131.593 2108.84,135.346 2109.87,128.398 2110.89,131.609 2111.92,123.584 2112.95,126.985 2113.98,119.444 2115.01,123.128 2116.04,118.889 2117.07,122.695 2118.1,93.2156 2119.13,96.1448 2120.16,114.662 2121.19,117.691 2122.22,124.903 2123.24,128.087 2124.27,124.05 2125.3,127.547 2126.33,147.198 2127.36,150.505 2128.39,114.9 2129.42,117.503 2130.45,96.5635 2131.48,100.589 2132.51,119.255 2133.54,122.058 2134.57,117.39 2135.6,120.218 2136.62,107.087 2137.65,111.696 2138.68,118.683 2139.71,121.73 2140.74,108.159 2141.77,112.172 2142.8,118.251 2143.83,121.806 2144.86,125.307 2145.89,129.109 2146.92,114.172 2147.95,117 2148.97,118.496 2150,121.478 2151.03,113.509 2152.06,116.87 2153.09,116.286 2154.12,120.106 2155.15,127.842 2156.18,131.258 2157.21,137.534 2158.24,140.405 2159.27,102.163 2160.3,105.258 2161.33,115.32 2162.35,119.024 2163.38,134.338 2164.41,137.07 2165.44,110.08 2166.47,113.407 2167.5,129.813 2168.53,133.262 2169.56,106.989 2170.59,110.397 2171.62,128.205 2172.65,131.85 2173.68,127.016 2174.7,130.017 2175.73,122.32 2176.76,125.228 2177.79,120.337 2178.82,123.626 2179.85,109.351 2180.88,113.153 2181.91,116.017 2182.94,119.524 2183.97,119.028 2185,122.832 2186.03,127.937 2187.06,130.666 2188.08,135.978 2189.11,138.916 2190.14,128.129 2191.17,130.859 2192.2,124.366 2193.23,127.693 2194.26,111.085 2195.29,114.977 2196.32,114.485 2197.35,117.409 2198.38,126.822 2199.41,129.72 2200.43,116.389 2201.46,119.214 2202.49,120.205 2203.52,123.72 2204.55,115.9 2205.58,119.394 2206.61,122.779 2207.64,126.039 2208.67,101.602 2209.7,105.468 2210.73,101.082 2211.76,106.022 2212.79,121.3 2213.81,124.981 2214.84,120.397 2215.87,124.779 2216.9,102.156 2217.93,105.503 2218.96,119.532 2219.99,122.67 2221.02,122.801 2222.05,126.136 2223.08,115.879 2224.11,119.038 2225.14,125.164 2226.16,128.25 2227.19,99.6552 2228.22,102.944 2229.25,128.378 2230.28,131.677 2231.31,141.394 2232.34,144.966 2233.37,106.246 2234.4,109.281 2235.43,119.655 2236.46,123.757 2237.49,124.503 2238.51,128.16 2239.54,129.619 2240.57,132.74 2241.6,131.668 2242.63,135.022 2243.66,149.726 2244.69,152.55 2245.72,131.125 2246.75,134.573 2247.78,148.367 2248.81,151.997 2249.84,144.807 2250.87,148.042 2251.89,147.086 2252.92,150.564 2253.95,150.859 2254.98,153.452 2256.01,151.564 2257.04,154.442 2258.07,130.495 2259.1,133.866 2260.13,146.425 2261.16,149.315 2262.19,124.404 2263.22,129.683 2264.24,129.459 2265.27,132.829 2266.3,105.375 2267.33,109.684 2268.36,136.419 2269.39,139.778 2270.42,143.666 2271.45,146.662 2272.48,146.738 2273.51,150.74 2274.54,130.625 2275.57,134.791 2276.6,146.51 2277.62,149.414 2278.65,119.582 2279.68,122.849 2280.71,128.56 2281.74,132.237 2282.77,131.591 2283.8,135.768 2284.83,131.853 2285.86,134.987 2286.89,120.821 2287.92,123.882 2288.95,115.884 2289.97,119.723 2291,122.477 "/>
<path clip-path="url(#clip730)" d="M243.587 198.898 L514.207 198.898 L514.207 95.2176 L243.587 95.2176  Z" fill="#ffffff" fill-rule="evenodd" fill-opacity="1"/>
<polyline clip-path="url(#clip730)" style="stroke:#000000; stroke-linecap:round; stroke-linejoin:round; stroke-width:4; stroke-opacity:1; fill:none" points="243.587,198.898 514.207,198.898 514.207,95.2176 243.587,95.2176 243.587,198.898 "/>
<polyline clip-path="url(#clip730)" style="stroke:#009af9; stroke-linecap:round; stroke-linejoin:round; stroke-width:4; stroke-opacity:1; fill:none" points="267.831,147.058 413.291,147.058 "/>
<path clip-path="url(#clip730)" d="M451.376 166.745 Q449.571 171.375 447.858 172.787 Q446.145 174.199 443.275 174.199 L439.872 174.199 L439.872 170.634 L442.372 170.634 Q444.131 170.634 445.103 169.8 Q446.076 168.967 447.256 165.865 L448.02 163.921 L437.534 138.412 L442.048 138.412 L450.15 158.689 L458.251 138.412 L462.765 138.412 L451.376 166.745 Z" fill="#000000" fill-rule="nonzero" fill-opacity="1" /><path clip-path="url(#clip730)" d="M470.057 160.402 L477.696 160.402 L477.696 134.037 L469.386 135.703 L469.386 131.444 L477.649 129.778 L482.325 129.778 L482.325 160.402 L489.964 160.402 L489.964 164.338 L470.057 164.338 L470.057 160.402 Z" fill="#000000" fill-rule="nonzero" fill-opacity="1" /></svg>
