<?xml version="1.0" encoding="utf-8"?>
<svg xmlns="http://www.w3.org/2000/svg" xmlns:xlink="http://www.w3.org/1999/xlink" width="600" height="400" viewBox="0 0 2400 1600">
<defs>
  <clipPath id="clip360">
    <rect x="0" y="0" width="2400" height="1600"/>
  </clipPath>
</defs>
<path clip-path="url(#clip360)" d="M0 1600 L2400 1600 L2400 0 L0 0  Z" fill="#ffffff" fill-rule="evenodd" fill-opacity="1"/>
<defs>
  <clipPath id="clip361">
    <rect x="480" y="0" width="1681" height="1600"/>
  </clipPath>
</defs>
<path clip-path="url(#clip360)" d="M186.274 1486.45 L2352.76 1486.45 L2352.76 47.2441 L186.274 47.2441  Z" fill="#ffffff" fill-rule="evenodd" fill-opacity="1"/>
<defs>
  <clipPath id="clip362">
    <rect x="186" y="47" width="2167" height="1440"/>
  </clipPath>
</defs>
<polyline clip-path="url(#clip362)" style="stroke:#000000; stroke-linecap:round; stroke-linejoin:round; stroke-width:2; stroke-opacity:0.1; fill:none" points="226.945,1486.45 226.945,47.2441 "/>
<polyline clip-path="url(#clip362)" style="stroke:#000000; stroke-linecap:round; stroke-linejoin:round; stroke-width:2; stroke-opacity:0.1; fill:none" points="743.069,1486.45 743.069,47.2441 "/>
<polyline clip-path="url(#clip362)" style="stroke:#000000; stroke-linecap:round; stroke-linejoin:round; stroke-width:2; stroke-opacity:0.1; fill:none" points="1259.19,1486.45 1259.19,47.2441 "/>
<polyline clip-path="url(#clip362)" style="stroke:#000000; stroke-linecap:round; stroke-linejoin:round; stroke-width:2; stroke-opacity:0.1; fill:none" points="1775.32,1486.45 1775.32,47.2441 "/>
<polyline clip-path="url(#clip362)" style="stroke:#000000; stroke-linecap:round; stroke-linejoin:round; stroke-width:2; stroke-opacity:0.1; fill:none" points="2291.44,1486.45 2291.44,47.2441 "/>
<polyline clip-path="url(#clip360)" style="stroke:#000000; stroke-linecap:round; stroke-linejoin:round; stroke-width:4; stroke-opacity:1; fill:none" points="186.274,1486.45 2352.76,1486.45 "/>
<polyline clip-path="url(#clip360)" style="stroke:#000000; stroke-linecap:round; stroke-linejoin:round; stroke-width:4; stroke-opacity:1; fill:none" points="226.945,1486.45 226.945,1467.55 "/>
<polyline clip-path="url(#clip360)" style="stroke:#000000; stroke-linecap:round; stroke-linejoin:round; stroke-width:4; stroke-opacity:1; fill:none" points="743.069,1486.45 743.069,1467.55 "/>
<polyline clip-path="url(#clip360)" style="stroke:#000000; stroke-linecap:round; stroke-linejoin:round; stroke-width:4; stroke-opacity:1; fill:none" points="1259.19,1486.45 1259.19,1467.55 "/>
<polyline clip-path="url(#clip360)" style="stroke:#000000; stroke-linecap:round; stroke-linejoin:round; stroke-width:4; stroke-opacity:1; fill:none" points="1775.32,1486.45 1775.32,1467.55 "/>
<polyline clip-path="url(#clip360)" style="stroke:#000000; stroke-linecap:round; stroke-linejoin:round; stroke-width:4; stroke-opacity:1; fill:none" points="2291.44,1486.45 2291.44,1467.55 "/>
<path clip-path="url(#clip360)" d="M226.945 1517.37 Q223.333 1517.37 221.505 1520.93 Q219.699 1524.47 219.699 1531.6 Q219.699 1538.71 221.505 1542.27 Q223.333 1545.82 226.945 1545.82 Q230.579 1545.82 232.384 1542.27 Q234.213 1538.71 234.213 1531.6 Q234.213 1524.47 232.384 1520.93 Q230.579 1517.37 226.945 1517.37 M226.945 1513.66 Q232.755 1513.66 235.81 1518.27 Q238.889 1522.85 238.889 1531.6 Q238.889 1540.33 235.81 1544.94 Q232.755 1549.52 226.945 1549.52 Q221.134 1549.52 218.056 1544.94 Q215 1540.33 215 1531.6 Q215 1522.85 218.056 1518.27 Q221.134 1513.66 226.945 1513.66 Z" fill="#000000" fill-rule="nonzero" fill-opacity="1" /><path clip-path="url(#clip360)" d="M722.339 1544.91 L738.659 1544.91 L738.659 1548.85 L716.714 1548.85 L716.714 1544.91 Q719.377 1542.16 723.96 1537.53 Q728.566 1532.88 729.747 1531.53 Q731.992 1529.01 732.872 1527.27 Q733.775 1525.51 733.775 1523.82 Q733.775 1521.07 731.83 1519.33 Q729.909 1517.6 726.807 1517.6 Q724.608 1517.6 722.154 1518.36 Q719.724 1519.13 716.946 1520.68 L716.946 1515.95 Q719.77 1514.82 722.224 1514.24 Q724.677 1513.66 726.714 1513.66 Q732.085 1513.66 735.279 1516.35 Q738.474 1519.03 738.474 1523.52 Q738.474 1525.65 737.663 1527.57 Q736.876 1529.47 734.77 1532.07 Q734.191 1532.74 731.089 1535.95 Q727.988 1539.15 722.339 1544.91 Z" fill="#000000" fill-rule="nonzero" fill-opacity="1" /><path clip-path="url(#clip360)" d="M748.52 1514.29 L766.876 1514.29 L766.876 1518.22 L752.802 1518.22 L752.802 1526.7 Q753.821 1526.35 754.839 1526.19 Q755.858 1526 756.876 1526 Q762.663 1526 766.043 1529.17 Q769.423 1532.34 769.423 1537.76 Q769.423 1543.34 765.95 1546.44 Q762.478 1549.52 756.159 1549.52 Q753.983 1549.52 751.714 1549.15 Q749.469 1548.78 747.062 1548.04 L747.062 1543.34 Q749.145 1544.47 751.367 1545.03 Q753.589 1545.58 756.066 1545.58 Q760.071 1545.58 762.409 1543.48 Q764.747 1541.37 764.747 1537.76 Q764.747 1534.15 762.409 1532.04 Q760.071 1529.94 756.066 1529.94 Q754.191 1529.94 752.316 1530.35 Q750.464 1530.77 748.52 1531.65 L748.52 1514.29 Z" fill="#000000" fill-rule="nonzero" fill-opacity="1" /><path clip-path="url(#clip360)" d="M1233.89 1514.29 L1252.25 1514.29 L1252.25 1518.22 L1238.17 1518.22 L1238.17 1526.7 Q1239.19 1526.35 1240.21 1526.19 Q1241.23 1526 1242.25 1526 Q1248.04 1526 1251.41 1529.17 Q1254.79 1532.34 1254.79 1537.76 Q1254.79 1543.34 1251.32 1546.44 Q1247.85 1549.52 1241.53 1549.52 Q1239.35 1549.52 1237.09 1549.15 Q1234.84 1548.78 1232.43 1548.04 L1232.43 1543.34 Q1234.52 1544.47 1236.74 1545.03 Q1238.96 1545.58 1241.44 1545.58 Q1245.44 1545.58 1247.78 1543.48 Q1250.12 1541.37 1250.12 1537.76 Q1250.12 1534.15 1247.78 1532.04 Q1245.44 1529.94 1241.44 1529.94 Q1239.56 1529.94 1237.69 1530.35 Q1235.84 1530.77 1233.89 1531.65 L1233.89 1514.29 Z" fill="#000000" fill-rule="nonzero" fill-opacity="1" /><path clip-path="url(#clip360)" d="M1274.01 1517.37 Q1270.4 1517.37 1268.57 1520.93 Q1266.76 1524.47 1266.76 1531.6 Q1266.76 1538.71 1268.57 1542.27 Q1270.4 1545.82 1274.01 1545.82 Q1277.64 1545.82 1279.45 1542.27 Q1281.28 1538.71 1281.28 1531.6 Q1281.28 1524.47 1279.45 1520.93 Q1277.64 1517.37 1274.01 1517.37 M1274.01 1513.66 Q1279.82 1513.66 1282.87 1518.27 Q1285.95 1522.85 1285.95 1531.6 Q1285.95 1540.33 1282.87 1544.94 Q1279.82 1549.52 1274.01 1549.52 Q1268.2 1549.52 1265.12 1544.94 Q1262.06 1540.33 1262.06 1531.6 Q1262.06 1522.85 1265.12 1518.27 Q1268.2 1513.66 1274.01 1513.66 Z" fill="#000000" fill-rule="nonzero" fill-opacity="1" /><path clip-path="url(#clip360)" d="M1749.17 1514.29 L1771.39 1514.29 L1771.39 1516.28 L1758.85 1548.85 L1753.96 1548.85 L1765.77 1518.22 L1749.17 1518.22 L1749.17 1514.29 Z" fill="#000000" fill-rule="nonzero" fill-opacity="1" /><path clip-path="url(#clip360)" d="M1780.56 1514.29 L1798.92 1514.29 L1798.92 1518.22 L1784.84 1518.22 L1784.84 1526.7 Q1785.86 1526.35 1786.88 1526.19 Q1787.9 1526 1788.92 1526 Q1794.7 1526 1798.08 1529.17 Q1801.46 1532.34 1801.46 1537.76 Q1801.46 1543.34 1797.99 1546.44 Q1794.52 1549.52 1788.2 1549.52 Q1786.02 1549.52 1783.75 1549.15 Q1781.51 1548.78 1779.1 1548.04 L1779.1 1543.34 Q1781.18 1544.47 1783.41 1545.03 Q1785.63 1545.58 1788.11 1545.58 Q1792.11 1545.58 1794.45 1543.48 Q1796.79 1541.37 1796.79 1537.76 Q1796.79 1534.15 1794.45 1532.04 Q1792.11 1529.94 1788.11 1529.94 Q1786.23 1529.94 1784.36 1530.35 Q1782.5 1530.77 1780.56 1531.65 L1780.56 1514.29 Z" fill="#000000" fill-rule="nonzero" fill-opacity="1" /><path clip-path="url(#clip360)" d="M2251.05 1544.91 L2258.69 1544.91 L2258.69 1518.55 L2250.38 1520.21 L2250.38 1515.95 L2258.64 1514.29 L2263.32 1514.29 L2263.32 1544.91 L2270.95 1544.91 L2270.95 1548.85 L2251.05 1548.85 L2251.05 1544.91 Z" fill="#000000" fill-rule="nonzero" fill-opacity="1" /><path clip-path="url(#clip360)" d="M2290.4 1517.37 Q2286.79 1517.37 2284.96 1520.93 Q2283.15 1524.47 2283.15 1531.6 Q2283.15 1538.71 2284.96 1542.27 Q2286.79 1545.82 2290.4 1545.82 Q2294.03 1545.82 2295.84 1542.27 Q2297.67 1538.71 2297.67 1531.6 Q2297.67 1524.47 2295.84 1520.93 Q2294.03 1517.37 2290.4 1517.37 M2290.4 1513.66 Q2296.21 1513.66 2299.26 1518.27 Q2302.34 1522.85 2302.34 1531.6 Q2302.34 1540.33 2299.26 1544.94 Q2296.21 1549.52 2290.4 1549.52 Q2284.59 1549.52 2281.51 1544.94 Q2278.45 1540.33 2278.45 1531.6 Q2278.45 1522.85 2281.51 1518.27 Q2284.59 1513.66 2290.4 1513.66 Z" fill="#000000" fill-rule="nonzero" fill-opacity="1" /><path clip-path="url(#clip360)" d="M2320.56 1517.37 Q2316.95 1517.37 2315.12 1520.93 Q2313.32 1524.47 2313.32 1531.6 Q2313.32 1538.71 2315.12 1542.27 Q2316.95 1545.82 2320.56 1545.82 Q2324.19 1545.82 2326 1542.27 Q2327.83 1538.71 2327.83 1531.6 Q2327.83 1524.47 2326 1520.93 Q2324.19 1517.37 2320.56 1517.37 M2320.56 1513.66 Q2326.37 1513.66 2329.43 1518.27 Q2332.5 1522.85 2332.5 1531.6 Q2332.5 1540.33 2329.43 1544.94 Q2326.37 1549.52 2320.56 1549.52 Q2314.75 1549.52 2311.67 1544.94 Q2308.62 1540.33 2308.62 1531.6 Q2308.62 1522.85 2311.67 1518.27 Q2314.75 1513.66 2320.56 1513.66 Z" fill="#000000" fill-rule="nonzero" fill-opacity="1" /><polyline clip-path="url(#clip362)" style="stroke:#000000; stroke-linecap:round; stroke-linejoin:round; stroke-width:2; stroke-opacity:0.1; fill:none" points="186.274,1445.72 2352.76,1445.72 "/>
<polyline clip-path="url(#clip362)" style="stroke:#000000; stroke-linecap:round; stroke-linejoin:round; stroke-width:2; stroke-opacity:0.1; fill:none" points="186.274,1106.28 2352.76,1106.28 "/>
<polyline clip-path="url(#clip362)" style="stroke:#000000; stroke-linecap:round; stroke-linejoin:round; stroke-width:2; stroke-opacity:0.1; fill:none" points="186.274,766.846 2352.76,766.846 "/>
<polyline clip-path="url(#clip362)" style="stroke:#000000; stroke-linecap:round; stroke-linejoin:round; stroke-width:2; stroke-opacity:0.1; fill:none" points="186.274,427.411 2352.76,427.411 "/>
<polyline clip-path="url(#clip362)" style="stroke:#000000; stroke-linecap:round; stroke-linejoin:round; stroke-width:2; stroke-opacity:0.1; fill:none" points="186.274,87.9763 2352.76,87.9763 "/>
<polyline clip-path="url(#clip360)" style="stroke:#000000; stroke-linecap:round; stroke-linejoin:round; stroke-width:4; stroke-opacity:1; fill:none" points="186.274,1486.45 186.274,47.2441 "/>
<polyline clip-path="url(#clip360)" style="stroke:#000000; stroke-linecap:round; stroke-linejoin:round; stroke-width:4; stroke-opacity:1; fill:none" points="186.274,1445.72 205.172,1445.72 "/>
<polyline clip-path="url(#clip360)" style="stroke:#000000; stroke-linecap:round; stroke-linejoin:round; stroke-width:4; stroke-opacity:1; fill:none" points="186.274,1106.28 205.172,1106.28 "/>
<polyline clip-path="url(#clip360)" style="stroke:#000000; stroke-linecap:round; stroke-linejoin:round; stroke-width:4; stroke-opacity:1; fill:none" points="186.274,766.846 205.172,766.846 "/>
<polyline clip-path="url(#clip360)" style="stroke:#000000; stroke-linecap:round; stroke-linejoin:round; stroke-width:4; stroke-opacity:1; fill:none" points="186.274,427.411 205.172,427.411 "/>
<polyline clip-path="url(#clip360)" style="stroke:#000000; stroke-linecap:round; stroke-linejoin:round; stroke-width:4; stroke-opacity:1; fill:none" points="186.274,87.9763 205.172,87.9763 "/>
<path clip-path="url(#clip360)" d="M62.9365 1431.51 Q59.3254 1431.51 57.4967 1435.08 Q55.6912 1438.62 55.6912 1445.75 Q55.6912 1452.86 57.4967 1456.42 Q59.3254 1459.96 62.9365 1459.96 Q66.5707 1459.96 68.3763 1456.42 Q70.205 1452.86 70.205 1445.75 Q70.205 1438.62 68.3763 1435.08 Q66.5707 1431.51 62.9365 1431.51 M62.9365 1427.81 Q68.7467 1427.81 71.8022 1432.42 Q74.8809 1437 74.8809 1445.75 Q74.8809 1454.48 71.8022 1459.08 Q68.7467 1463.67 62.9365 1463.67 Q57.1264 1463.67 54.0477 1459.08 Q50.9921 1454.48 50.9921 1445.75 Q50.9921 1437 54.0477 1432.42 Q57.1264 1427.81 62.9365 1427.81 Z" fill="#000000" fill-rule="nonzero" fill-opacity="1" /><path clip-path="url(#clip360)" d="M83.0984 1457.12 L87.9827 1457.12 L87.9827 1463 L83.0984 1463 L83.0984 1457.12 Z" fill="#000000" fill-rule="nonzero" fill-opacity="1" /><path clip-path="url(#clip360)" d="M108.168 1431.51 Q104.557 1431.51 102.728 1435.08 Q100.922 1438.62 100.922 1445.75 Q100.922 1452.86 102.728 1456.42 Q104.557 1459.96 108.168 1459.96 Q111.802 1459.96 113.608 1456.42 Q115.436 1452.86 115.436 1445.75 Q115.436 1438.62 113.608 1435.08 Q111.802 1431.51 108.168 1431.51 M108.168 1427.81 Q113.978 1427.81 117.033 1432.42 Q120.112 1437 120.112 1445.75 Q120.112 1454.48 117.033 1459.08 Q113.978 1463.67 108.168 1463.67 Q102.358 1463.67 99.2789 1459.08 Q96.2234 1454.48 96.2234 1445.75 Q96.2234 1437 99.2789 1432.42 Q102.358 1427.81 108.168 1427.81 Z" fill="#000000" fill-rule="nonzero" fill-opacity="1" /><path clip-path="url(#clip360)" d="M138.33 1431.51 Q134.719 1431.51 132.89 1435.08 Q131.084 1438.62 131.084 1445.75 Q131.084 1452.86 132.89 1456.42 Q134.719 1459.96 138.33 1459.96 Q141.964 1459.96 143.769 1456.42 Q145.598 1452.86 145.598 1445.75 Q145.598 1438.62 143.769 1435.08 Q141.964 1431.51 138.33 1431.51 M138.33 1427.81 Q144.14 1427.81 147.195 1432.42 Q150.274 1437 150.274 1445.75 Q150.274 1454.48 147.195 1459.08 Q144.14 1463.67 138.33 1463.67 Q132.519 1463.67 129.441 1459.08 Q126.385 1454.48 126.385 1445.75 Q126.385 1437 129.441 1432.42 Q132.519 1427.81 138.33 1427.81 Z" fill="#000000" fill-rule="nonzero" fill-opacity="1" /><path clip-path="url(#clip360)" d="M63.9319 1092.08 Q60.3208 1092.08 58.4921 1095.64 Q56.6865 1099.19 56.6865 1106.32 Q56.6865 1113.42 58.4921 1116.99 Q60.3208 1120.53 63.9319 1120.53 Q67.5661 1120.53 69.3717 1116.99 Q71.2004 1113.42 71.2004 1106.32 Q71.2004 1099.19 69.3717 1095.64 Q67.5661 1092.08 63.9319 1092.08 M63.9319 1088.38 Q69.742 1088.38 72.7976 1092.98 Q75.8763 1097.57 75.8763 1106.32 Q75.8763 1115.04 72.7976 1119.65 Q69.742 1124.23 63.9319 1124.23 Q58.1217 1124.23 55.043 1119.65 Q51.9875 1115.04 51.9875 1106.32 Q51.9875 1097.57 55.043 1092.98 Q58.1217 1088.38 63.9319 1088.38 Z" fill="#000000" fill-rule="nonzero" fill-opacity="1" /><path clip-path="url(#clip360)" d="M84.0938 1117.68 L88.978 1117.68 L88.978 1123.56 L84.0938 1123.56 L84.0938 1117.68 Z" fill="#000000" fill-rule="nonzero" fill-opacity="1" /><path clip-path="url(#clip360)" d="M103.191 1119.63 L119.51 1119.63 L119.51 1123.56 L97.566 1123.56 L97.566 1119.63 Q100.228 1116.87 104.811 1112.24 Q109.418 1107.59 110.598 1106.25 Q112.844 1103.72 113.723 1101.99 Q114.626 1100.23 114.626 1098.54 Q114.626 1095.78 112.682 1094.05 Q110.76 1092.31 107.658 1092.31 Q105.459 1092.31 103.006 1093.07 Q100.575 1093.84 97.7974 1095.39 L97.7974 1090.67 Q100.621 1089.53 103.075 1088.95 Q105.529 1088.38 107.566 1088.38 Q112.936 1088.38 116.131 1091.06 Q119.325 1093.75 119.325 1098.24 Q119.325 1100.37 118.515 1102.29 Q117.728 1104.19 115.621 1106.78 Q115.043 1107.45 111.941 1110.67 Q108.839 1113.86 103.191 1119.63 Z" fill="#000000" fill-rule="nonzero" fill-opacity="1" /><path clip-path="url(#clip360)" d="M129.371 1089 L147.728 1089 L147.728 1092.94 L133.654 1092.94 L133.654 1101.41 Q134.672 1101.06 135.691 1100.9 Q136.709 1100.71 137.728 1100.71 Q143.515 1100.71 146.894 1103.89 Q150.274 1107.06 150.274 1112.47 Q150.274 1118.05 146.802 1121.15 Q143.33 1124.23 137.01 1124.23 Q134.834 1124.23 132.566 1123.86 Q130.32 1123.49 127.913 1122.75 L127.913 1118.05 Q129.996 1119.19 132.219 1119.74 Q134.441 1120.3 136.918 1120.3 Q140.922 1120.3 143.26 1118.19 Q145.598 1116.08 145.598 1112.47 Q145.598 1108.86 143.26 1106.76 Q140.922 1104.65 136.918 1104.65 Q135.043 1104.65 133.168 1105.07 Q131.316 1105.48 129.371 1106.36 L129.371 1089 Z" fill="#000000" fill-rule="nonzero" fill-opacity="1" /><path clip-path="url(#clip360)" d="M62.9365 752.645 Q59.3254 752.645 57.4967 756.209 Q55.6912 759.751 55.6912 766.881 Q55.6912 773.987 57.4967 777.552 Q59.3254 781.094 62.9365 781.094 Q66.5707 781.094 68.3763 777.552 Q70.205 773.987 70.205 766.881 Q70.205 759.751 68.3763 756.209 Q66.5707 752.645 62.9365 752.645 M62.9365 748.941 Q68.7467 748.941 71.8022 753.547 Q74.8809 758.131 74.8809 766.881 Q74.8809 775.608 71.8022 780.214 Q68.7467 784.797 62.9365 784.797 Q57.1264 784.797 54.0477 780.214 Q50.9921 775.608 50.9921 766.881 Q50.9921 758.131 54.0477 753.547 Q57.1264 748.941 62.9365 748.941 Z" fill="#000000" fill-rule="nonzero" fill-opacity="1" /><path clip-path="url(#clip360)" d="M83.0984 778.246 L87.9827 778.246 L87.9827 784.126 L83.0984 784.126 L83.0984 778.246 Z" fill="#000000" fill-rule="nonzero" fill-opacity="1" /><path clip-path="url(#clip360)" d="M98.2141 749.566 L116.57 749.566 L116.57 753.501 L102.496 753.501 L102.496 761.973 Q103.515 761.626 104.534 761.464 Q105.552 761.279 106.571 761.279 Q112.358 761.279 115.737 764.45 Q119.117 767.621 119.117 773.038 Q119.117 778.617 115.645 781.719 Q112.172 784.797 105.853 784.797 Q103.677 784.797 101.409 784.427 Q99.1632 784.057 96.7558 783.316 L96.7558 778.617 Q98.8391 779.751 101.061 780.307 Q103.284 780.862 105.76 780.862 Q109.765 780.862 112.103 778.756 Q114.441 776.649 114.441 773.038 Q114.441 769.427 112.103 767.321 Q109.765 765.214 105.76 765.214 Q103.885 765.214 102.01 765.631 Q100.159 766.047 98.2141 766.927 L98.2141 749.566 Z" fill="#000000" fill-rule="nonzero" fill-opacity="1" /><path clip-path="url(#clip360)" d="M138.33 752.645 Q134.719 752.645 132.89 756.209 Q131.084 759.751 131.084 766.881 Q131.084 773.987 132.89 777.552 Q134.719 781.094 138.33 781.094 Q141.964 781.094 143.769 777.552 Q145.598 773.987 145.598 766.881 Q145.598 759.751 143.769 756.209 Q141.964 752.645 138.33 752.645 M138.33 748.941 Q144.14 748.941 147.195 753.547 Q150.274 758.131 150.274 766.881 Q150.274 775.608 147.195 780.214 Q144.14 784.797 138.33 784.797 Q132.519 784.797 129.441 780.214 Q126.385 775.608 126.385 766.881 Q126.385 758.131 129.441 753.547 Q132.519 748.941 138.33 748.941 Z" fill="#000000" fill-rule="nonzero" fill-opacity="1" /><path clip-path="url(#clip360)" d="M63.9319 413.21 Q60.3208 413.21 58.4921 416.775 Q56.6865 420.316 56.6865 427.446 Q56.6865 434.552 58.4921 438.117 Q60.3208 441.659 63.9319 441.659 Q67.5661 441.659 69.3717 438.117 Q71.2004 434.552 71.2004 427.446 Q71.2004 420.316 69.3717 416.775 Q67.5661 413.21 63.9319 413.21 M63.9319 409.506 Q69.742 409.506 72.7976 414.113 Q75.8763 418.696 75.8763 427.446 Q75.8763 436.173 72.7976 440.779 Q69.742 445.362 63.9319 445.362 Q58.1217 445.362 55.043 440.779 Q51.9875 436.173 51.9875 427.446 Q51.9875 418.696 55.043 414.113 Q58.1217 409.506 63.9319 409.506 Z" fill="#000000" fill-rule="nonzero" fill-opacity="1" /><path clip-path="url(#clip360)" d="M84.0938 438.812 L88.978 438.812 L88.978 444.691 L84.0938 444.691 L84.0938 438.812 Z" fill="#000000" fill-rule="nonzero" fill-opacity="1" /><path clip-path="url(#clip360)" d="M97.9826 410.131 L120.205 410.131 L120.205 412.122 L107.658 444.691 L102.774 444.691 L114.58 414.066 L97.9826 414.066 L97.9826 410.131 Z" fill="#000000" fill-rule="nonzero" fill-opacity="1" /><path clip-path="url(#clip360)" d="M129.371 410.131 L147.728 410.131 L147.728 414.066 L133.654 414.066 L133.654 422.538 Q134.672 422.191 135.691 422.029 Q136.709 421.844 137.728 421.844 Q143.515 421.844 146.894 425.015 Q150.274 428.187 150.274 433.603 Q150.274 439.182 146.802 442.284 Q143.33 445.362 137.01 445.362 Q134.834 445.362 132.566 444.992 Q130.32 444.622 127.913 443.881 L127.913 439.182 Q129.996 440.316 132.219 440.872 Q134.441 441.427 136.918 441.427 Q140.922 441.427 143.26 439.321 Q145.598 437.214 145.598 433.603 Q145.598 429.992 143.26 427.886 Q140.922 425.779 136.918 425.779 Q135.043 425.779 133.168 426.196 Q131.316 426.613 129.371 427.492 L129.371 410.131 Z" fill="#000000" fill-rule="nonzero" fill-opacity="1" /><path clip-path="url(#clip360)" d="M53.7467 101.321 L61.3856 101.321 L61.3856 74.9555 L53.0754 76.6222 L53.0754 72.3629 L61.3393 70.6963 L66.0152 70.6963 L66.0152 101.321 L73.654 101.321 L73.654 105.256 L53.7467 105.256 L53.7467 101.321 Z" fill="#000000" fill-rule="nonzero" fill-opacity="1" /><path clip-path="url(#clip360)" d="M83.0984 99.3767 L87.9827 99.3767 L87.9827 105.256 L83.0984 105.256 L83.0984 99.3767 Z" fill="#000000" fill-rule="nonzero" fill-opacity="1" /><path clip-path="url(#clip360)" d="M108.168 73.775 Q104.557 73.775 102.728 77.3398 Q100.922 80.8814 100.922 88.011 Q100.922 95.1174 102.728 98.6822 Q104.557 102.224 108.168 102.224 Q111.802 102.224 113.608 98.6822 Q115.436 95.1174 115.436 88.011 Q115.436 80.8814 113.608 77.3398 Q111.802 73.775 108.168 73.775 M108.168 70.0713 Q113.978 70.0713 117.033 74.6777 Q120.112 79.261 120.112 88.011 Q120.112 96.7378 117.033 101.344 Q113.978 105.928 108.168 105.928 Q102.358 105.928 99.2789 101.344 Q96.2234 96.7378 96.2234 88.011 Q96.2234 79.261 99.2789 74.6777 Q102.358 70.0713 108.168 70.0713 Z" fill="#000000" fill-rule="nonzero" fill-opacity="1" /><path clip-path="url(#clip360)" d="M138.33 73.775 Q134.719 73.775 132.89 77.3398 Q131.084 80.8814 131.084 88.011 Q131.084 95.1174 132.89 98.6822 Q134.719 102.224 138.33 102.224 Q141.964 102.224 143.769 98.6822 Q145.598 95.1174 145.598 88.011 Q145.598 80.8814 143.769 77.3398 Q141.964 73.775 138.33 73.775 M138.33 70.0713 Q144.14 70.0713 147.195 74.6777 Q150.274 79.261 150.274 88.011 Q150.274 96.7378 147.195 101.344 Q144.14 105.928 138.33 105.928 Q132.519 105.928 129.441 101.344 Q126.385 96.7378 126.385 88.011 Q126.385 79.261 129.441 74.6777 Q132.519 70.0713 138.33 70.0713 Z" fill="#000000" fill-rule="nonzero" fill-opacity="1" /><path clip-path="url(#clip362)" d="M247.59 1427.78 L268.234 1425.55 L288.879 1425.25 L309.524 1424.92 L330.169 1424.67 L350.814 1424.36 L371.459 1423.95 L392.104 1423.63 L412.749 1423.28 L433.394 1422.89 L454.039 1422.54 L474.684 1422.23 L495.329 1421.79 L515.974 1421.42 L536.619 1420.91 L557.264 1420.54 L577.909 1420.17 L598.554 1419.86 L619.199 1419.25 L639.844 1418.78 L660.489 1418.35 L681.134 1417.86 L701.779 1417.42 L722.424 1417.06 L743.069 1416.59 L763.713 1416.16 L784.358 1415.79 L805.003 1415.43 L825.648 1414.89 L846.293 1414.56 L866.938 1414.12 L887.583 1413.56 L908.228 1413.14 L928.873 1412.64 L949.518 1412.16 L970.163 1411.7 L990.808 1411.2 L1011.45 1410.58 L1032.1 1410.01 L1052.74 1409.53 L1073.39 1408.98 L1094.03 1408.33 L1114.68 1407.63 L1135.32 1407.03 L1155.97 1406.63 L1176.61 1406.15 L1197.26 1405.73 L1217.9 1404.91 L1238.55 1404.73 L1259.19 1403.86 L1279.84 1403.16 L1300.48 1402.69 L1321.13 1402.01 L1341.77 1401.49 L1362.42 1400.98 L1383.06 1400.26 L1403.71 1399.46 L1424.35 1398.77 L1445 1398.23 L1465.64 1397.51 L1486.29 1396.98 L1506.93 1396.41 L1527.58 1395.78 L1548.22 1395.15 L1568.87 1394.84 L1589.51 1394.22 L1610.16 1393.62 L1630.8 1392.92 L1651.45 1392.31 L1672.09 1391.94 L1692.74 1391.11 L1713.38 1390.28 L1734.03 1389.68 L1754.67 1389.01 L1775.32 1388.33 L1795.96 1387.37 L1816.61 1386.68 L1837.25 1386.26 L1857.9 1385.63 L1878.54 1385.19 L1899.19 1384.58 L1919.83 1384.15 L1940.48 1383.31 L1961.12 1382.83 L1981.77 1382.06 L2002.41 1381.52 L2023.06 1380.66 L2043.7 1379.8 L2064.35 1378.72 L2084.99 1378.4 L2105.64 1377.55 L2126.28 1376.75 L2146.93 1375.96 L2167.57 1375.18 L2188.22 1374.15 L2208.86 1374.04 L2229.51 1373.32 L2250.15 1372.72 L2270.8 1371.75 L2291.44 1370.8 L2291.44 1445.72 L2270.8 1445.72 L2250.15 1445.72 L2229.51 1445.72 L2208.86 1445.72 L2188.22 1445.72 L2167.57 1445.72 L2146.93 1445.72 L2126.28 1445.72 L2105.64 1445.72 L2084.99 1445.72 L2064.35 1445.72 L2043.7 1445.72 L2023.06 1445.72 L2002.41 1445.72 L1981.77 1445.72 L1961.12 1445.72 L1940.48 1445.72 L1919.83 1445.72 L1899.19 1445.72 L1878.54 1445.72 L1857.9 1445.72 L1837.25 1445.72 L1816.61 1445.72 L1795.96 1445.72 L1775.32 1445.72 L1754.67 1445.72 L1734.03 1445.72 L1713.38 1445.72 L1692.74 1445.72 L1672.09 1445.72 L1651.45 1445.72 L1630.8 1445.72 L1610.16 1445.72 L1589.51 1445.72 L1568.87 1445.72 L1548.22 1445.72 L1527.58 1445.72 L1506.93 1445.72 L1486.29 1445.72 L1465.64 1445.72 L1445 1445.72 L1424.35 1445.72 L1403.71 1445.72 L1383.06 1445.72 L1362.42 1445.72 L1341.77 1445.72 L1321.13 1445.72 L1300.48 1445.72 L1279.84 1445.72 L1259.19 1445.72 L1238.55 1445.72 L1217.9 1445.72 L1197.26 1445.72 L1176.61 1445.72 L1155.97 1445.72 L1135.32 1445.72 L1114.68 1445.72 L1094.03 1445.72 L1073.39 1445.72 L1052.74 1445.72 L1032.1 1445.72 L1011.45 1445.72 L990.808 1445.72 L970.163 1445.72 L949.518 1445.72 L928.873 1445.72 L908.228 1445.72 L887.583 1445.72 L866.938 1445.72 L846.293 1445.72 L825.648 1445.72 L805.003 1445.72 L784.358 1445.72 L763.713 1445.72 L743.069 1445.72 L722.424 1445.72 L701.779 1445.72 L681.134 1445.72 L660.489 1445.72 L639.844 1445.72 L619.199 1445.72 L598.554 1445.72 L577.909 1445.72 L557.264 1445.72 L536.619 1445.72 L515.974 1445.72 L495.329 1445.72 L474.684 1445.72 L454.039 1445.72 L433.394 1445.72 L412.749 1445.72 L392.104 1445.72 L371.459 1445.72 L350.814 1445.72 L330.169 1445.72 L309.524 1445.72 L288.879 1445.72 L268.234 1445.72 L247.59 1445.72  Z" fill="#032333" fill-rule="evenodd" fill-opacity="1"/>
<polyline clip-path="url(#clip362)" style="stroke:#032333; stroke-linecap:round; stroke-linejoin:round; stroke-width:4; stroke-opacity:1; fill:none" points="247.59,1427.78 268.234,1425.55 288.879,1425.25 309.524,1424.92 330.169,1424.67 350.814,1424.36 371.459,1423.95 392.104,1423.63 412.749,1423.28 433.394,1422.89 454.039,1422.54 474.684,1422.23 495.329,1421.79 515.974,1421.42 536.619,1420.91 557.264,1420.54 577.909,1420.17 598.554,1419.86 619.199,1419.25 639.844,1418.78 660.489,1418.35 681.134,1417.86 701.779,1417.42 722.424,1417.06 743.069,1416.59 763.713,1416.16 784.358,1415.79 805.003,1415.43 825.648,1414.89 846.293,1414.56 866.938,1414.12 887.583,1413.56 908.228,1413.14 928.873,1412.64 949.518,1412.16 970.163,1411.7 990.808,1411.2 1011.45,1410.58 1032.1,1410.01 1052.74,1409.53 1073.39,1408.98 1094.03,1408.33 1114.68,1407.63 1135.32,1407.03 1155.97,1406.63 1176.61,1406.15 1197.26,1405.73 1217.9,1404.91 1238.55,1404.73 1259.19,1403.86 1279.84,1403.16 1300.48,1402.69 1321.13,1402.01 1341.77,1401.49 1362.42,1400.98 1383.06,1400.26 1403.71,1399.46 1424.35,1398.77 1445,1398.23 1465.64,1397.51 1486.29,1396.98 1506.93,1396.41 1527.58,1395.78 1548.22,1395.15 1568.87,1394.84 1589.51,1394.22 1610.16,1393.62 1630.8,1392.92 1651.45,1392.31 1672.09,1391.94 1692.74,1391.11 1713.38,1390.28 1734.03,1389.68 1754.67,1389.01 1775.32,1388.33 1795.96,1387.37 1816.61,1386.68 1837.25,1386.26 1857.9,1385.63 1878.54,1385.19 1899.19,1384.58 1919.83,1384.15 1940.48,1383.31 1961.12,1382.83 1981.77,1382.06 2002.41,1381.52 2023.06,1380.66 2043.7,1379.8 2064.35,1378.72 2084.99,1378.4 2105.64,1377.55 2126.28,1376.75 2146.93,1375.96 2167.57,1375.18 2188.22,1374.15 2208.86,1374.04 2229.51,1373.32 2250.15,1372.72 2270.8,1371.75 2291.44,1370.8 "/>
<path clip-path="url(#clip362)" d="M247.59 1424.25 L268.234 1421.55 L288.879 1421.14 L309.524 1420.69 L330.169 1420.34 L350.814 1419.93 L371.459 1419.4 L392.104 1418.97 L412.749 1418.5 L433.394 1417.99 L454.039 1417.5 L474.684 1417.06 L495.329 1416.47 L515.974 1415.93 L536.619 1415.25 L557.264 1414.72 L577.909 1414.2 L598.554 1413.76 L619.199 1412.95 L639.844 1412.29 L660.489 1411.66 L681.134 1410.97 L701.779 1410.33 L722.424 1409.79 L743.069 1409.09 L763.713 1408.48 L784.358 1407.91 L805.003 1407.37 L825.648 1406.59 L846.293 1406.05 L866.938 1405.37 L887.583 1404.52 L908.228 1403.85 L928.873 1403.06 L949.518 1402.36 L970.163 1401.68 L990.808 1400.93 L1011.45 1400 L1032.1 1399.15 L1052.74 1398.37 L1073.39 1397.55 L1094.03 1396.56 L1114.68 1395.53 L1135.32 1394.67 L1155.97 1393.95 L1176.61 1393.19 L1197.26 1392.47 L1217.9 1391.26 L1238.55 1390.89 L1259.19 1389.62 L1279.84 1388.59 L1300.48 1387.76 L1321.13 1386.73 L1341.77 1385.94 L1362.42 1385.11 L1383.06 1384.03 L1403.71 1382.84 L1424.35 1381.75 L1445 1380.82 L1465.64 1379.68 L1486.29 1378.67 L1506.93 1377.66 L1527.58 1376.66 L1548.22 1375.64 L1568.87 1375.02 L1589.51 1373.89 L1610.16 1372.89 L1630.8 1371.7 L1651.45 1370.62 L1672.09 1369.92 L1692.74 1368.63 L1713.38 1367.33 L1734.03 1366.28 L1754.67 1365.15 L1775.32 1364.01 L1795.96 1362.41 L1816.61 1361.31 L1837.25 1360.43 L1857.9 1359.15 L1878.54 1358.31 L1899.19 1357.28 L1919.83 1356.45 L1940.48 1354.97 L1961.12 1354.06 L1981.77 1352.69 L2002.41 1351.75 L2023.06 1350.13 L2043.7 1348.51 L2064.35 1346.62 L2084.99 1345.82 L2105.64 1344.32 L2126.28 1342.84 L2146.93 1341.28 L2167.57 1339.7 L2188.22 1337.9 L2208.86 1337.41 L2229.51 1335.83 L2250.15 1334.72 L2270.8 1332.9 L2291.44 1331.13 L2291.44 1370.8 L2270.8 1371.75 L2250.15 1372.72 L2229.51 1373.32 L2208.86 1374.04 L2188.22 1374.15 L2167.57 1375.18 L2146.93 1375.96 L2126.28 1376.75 L2105.64 1377.55 L2084.99 1378.4 L2064.35 1378.72 L2043.7 1379.8 L2023.06 1380.66 L2002.41 1381.52 L1981.77 1382.06 L1961.12 1382.83 L1940.48 1383.31 L1919.83 1384.15 L1899.19 1384.58 L1878.54 1385.19 L1857.9 1385.63 L1837.25 1386.26 L1816.61 1386.68 L1795.96 1387.37 L1775.32 1388.33 L1754.67 1389.01 L1734.03 1389.68 L1713.38 1390.28 L1692.74 1391.11 L1672.09 1391.94 L1651.45 1392.31 L1630.8 1392.92 L1610.16 1393.62 L1589.51 1394.22 L1568.87 1394.84 L1548.22 1395.15 L1527.58 1395.78 L1506.93 1396.41 L1486.29 1396.98 L1465.64 1397.51 L1445 1398.23 L1424.35 1398.77 L1403.71 1399.46 L1383.06 1400.26 L1362.42 1400.98 L1341.77 1401.49 L1321.13 1402.01 L1300.48 1402.69 L1279.84 1403.16 L1259.19 1403.86 L1238.55 1404.73 L1217.9 1404.91 L1197.26 1405.73 L1176.61 1406.15 L1155.97 1406.63 L1135.32 1407.03 L1114.68 1407.63 L1094.03 1408.33 L1073.39 1408.98 L1052.74 1409.53 L1032.1 1410.01 L1011.45 1410.58 L990.808 1411.2 L970.163 1411.7 L949.518 1412.16 L928.873 1412.64 L908.228 1413.14 L887.583 1413.56 L866.938 1414.12 L846.293 1414.56 L825.648 1414.89 L805.003 1415.43 L784.358 1415.79 L763.713 1416.16 L743.069 1416.59 L722.424 1417.06 L701.779 1417.42 L681.134 1417.86 L660.489 1418.35 L639.844 1418.78 L619.199 1419.25 L598.554 1419.86 L577.909 1420.17 L557.264 1420.54 L536.619 1420.91 L515.974 1421.42 L495.329 1421.79 L474.684 1422.23 L454.039 1422.54 L433.394 1422.89 L412.749 1423.28 L392.104 1423.63 L371.459 1423.95 L350.814 1424.36 L330.169 1424.67 L309.524 1424.92 L288.879 1425.25 L268.234 1425.55 L247.59 1427.78  Z" fill="#e7fa5a" fill-rule="evenodd" fill-opacity="1"/>
<polyline clip-path="url(#clip362)" style="stroke:#e7fa5a; stroke-linecap:round; stroke-linejoin:round; stroke-width:4; stroke-opacity:1; fill:none" points="247.59,1424.25 268.234,1421.55 288.879,1421.14 309.524,1420.69 330.169,1420.34 350.814,1419.93 371.459,1419.4 392.104,1418.97 412.749,1418.5 433.394,1417.99 454.039,1417.5 474.684,1417.06 495.329,1416.47 515.974,1415.93 536.619,1415.25 557.264,1414.72 577.909,1414.2 598.554,1413.76 619.199,1412.95 639.844,1412.29 660.489,1411.66 681.134,1410.97 701.779,1410.33 722.424,1409.79 743.069,1409.09 763.713,1408.48 784.358,1407.91 805.003,1407.37 825.648,1406.59 846.293,1406.05 866.938,1405.37 887.583,1404.52 908.228,1403.85 928.873,1403.06 949.518,1402.36 970.163,1401.68 990.808,1400.93 1011.45,1400 1032.1,1399.15 1052.74,1398.37 1073.39,1397.55 1094.03,1396.56 1114.68,1395.53 1135.32,1394.67 1155.97,1393.95 1176.61,1393.19 1197.26,1392.47 1217.9,1391.26 1238.55,1390.89 1259.19,1389.62 1279.84,1388.59 1300.48,1387.76 1321.13,1386.73 1341.77,1385.94 1362.42,1385.11 1383.06,1384.03 1403.71,1382.84 1424.35,1381.75 1445,1380.82 1465.64,1379.68 1486.29,1378.67 1506.93,1377.66 1527.58,1376.66 1548.22,1375.64 1568.87,1375.02 1589.51,1373.89 1610.16,1372.89 1630.8,1371.7 1651.45,1370.62 1672.09,1369.92 1692.74,1368.63 1713.38,1367.33 1734.03,1366.28 1754.67,1365.15 1775.32,1364.01 1795.96,1362.41 1816.61,1361.31 1837.25,1360.43 1857.9,1359.15 1878.54,1358.31 1899.19,1357.28 1919.83,1356.45 1940.48,1354.97 1961.12,1354.06 1981.77,1352.69 2002.41,1351.75 2023.06,1350.13 2043.7,1348.51 2064.35,1346.62 2084.99,1345.82 2105.64,1344.32 2126.28,1342.84 2146.93,1341.28 2167.57,1339.7 2188.22,1337.9 2208.86,1337.41 2229.51,1335.83 2250.15,1334.72 2270.8,1332.9 2291.44,1331.13 "/>
<path clip-path="url(#clip362)" d="M247.59 1242.15 L268.234 1240.06 L288.879 1238.64 L309.524 1237.43 L330.169 1236.09 L350.814 1234.24 L371.459 1232.15 L392.104 1230.69 L412.749 1229.17 L433.394 1227.24 L454.039 1226.22 L474.684 1224.8 L495.329 1222.99 L515.974 1221.8 L536.619 1219.55 L557.264 1217.87 L577.909 1216.22 L598.554 1215.25 L619.199 1212.93 L639.844 1211.25 L660.489 1209.41 L681.134 1207.53 L701.779 1205.81 L722.424 1204.37 L743.069 1202.69 L763.713 1200.47 L784.358 1199.09 L805.003 1198.22 L825.648 1196 L846.293 1194.49 L866.938 1192.47 L887.583 1190.58 L908.228 1189.36 L928.873 1187.35 L949.518 1186.11 L970.163 1184.88 L990.808 1183.02 L1011.45 1181.38 L1032.1 1179.32 L1052.74 1177.62 L1073.39 1176.15 L1094.03 1174.18 L1114.68 1171.97 L1135.32 1170.07 L1155.97 1168.99 L1176.61 1168.15 L1197.26 1167.76 L1217.9 1164.83 L1238.55 1164.09 L1259.19 1161.42 L1279.84 1159.73 L1300.48 1158.14 L1321.13 1155.48 L1341.77 1154.37 L1362.42 1153.49 L1383.06 1151.75 L1403.71 1149.47 L1424.35 1147.73 L1445 1146.02 L1465.64 1143.58 L1486.29 1141.97 L1506.93 1141.33 L1527.58 1139.89 L1548.22 1138.91 L1568.87 1138.04 L1589.51 1136.34 L1610.16 1134.35 L1630.8 1132.75 L1651.45 1132.35 L1672.09 1132.12 L1692.74 1130.21 L1713.38 1128.22 L1734.03 1127.33 L1754.67 1125.61 L1775.32 1123.55 L1795.96 1121.44 L1816.61 1119.4 L1837.25 1118.6 L1857.9 1117.52 L1878.54 1117.14 L1899.19 1115.29 L1919.83 1115.24 L1940.48 1112.81 L1961.12 1111.92 L1981.77 1109.37 L2002.41 1108.53 L2023.06 1106.87 L2043.7 1104.98 L2064.35 1102.92 L2084.99 1101.95 L2105.64 1100.69 L2126.28 1099.09 L2146.93 1097.8 L2167.57 1095.95 L2188.22 1094.77 L2208.86 1095.19 L2229.51 1094.3 L2250.15 1093.56 L2270.8 1091.64 L2291.44 1090.66 L2291.44 1331.13 L2270.8 1332.9 L2250.15 1334.72 L2229.51 1335.83 L2208.86 1337.41 L2188.22 1337.9 L2167.57 1339.7 L2146.93 1341.28 L2126.28 1342.84 L2105.64 1344.32 L2084.99 1345.82 L2064.35 1346.62 L2043.7 1348.51 L2023.06 1350.13 L2002.41 1351.75 L1981.77 1352.69 L1961.12 1354.06 L1940.48 1354.97 L1919.83 1356.45 L1899.19 1357.28 L1878.54 1358.31 L1857.9 1359.15 L1837.25 1360.43 L1816.61 1361.31 L1795.96 1362.41 L1775.32 1364.01 L1754.67 1365.15 L1734.03 1366.28 L1713.38 1367.33 L1692.74 1368.63 L1672.09 1369.92 L1651.45 1370.62 L1630.8 1371.7 L1610.16 1372.89 L1589.51 1373.89 L1568.87 1375.02 L1548.22 1375.64 L1527.58 1376.66 L1506.93 1377.66 L1486.29 1378.67 L1465.64 1379.68 L1445 1380.82 L1424.35 1381.75 L1403.71 1382.84 L1383.06 1384.03 L1362.42 1385.11 L1341.77 1385.94 L1321.13 1386.73 L1300.48 1387.76 L1279.84 1388.59 L1259.19 1389.62 L1238.55 1390.89 L1217.9 1391.26 L1197.26 1392.47 L1176.61 1393.19 L1155.97 1393.95 L1135.32 1394.67 L1114.68 1395.53 L1094.03 1396.56 L1073.39 1397.55 L1052.74 1398.37 L1032.1 1399.15 L1011.45 1400 L990.808 1400.93 L970.163 1401.68 L949.518 1402.36 L928.873 1403.06 L908.228 1403.85 L887.583 1404.52 L866.938 1405.37 L846.293 1406.05 L825.648 1406.59 L805.003 1407.37 L784.358 1407.91 L763.713 1408.48 L743.069 1409.09 L722.424 1409.79 L701.779 1410.33 L681.134 1410.97 L660.489 1411.66 L639.844 1412.29 L619.199 1412.95 L598.554 1413.76 L577.909 1414.2 L557.264 1414.72 L536.619 1415.25 L515.974 1415.93 L495.329 1416.47 L474.684 1417.06 L454.039 1417.5 L433.394 1417.99 L412.749 1418.5 L392.104 1418.97 L371.459 1419.4 L350.814 1419.93 L330.169 1420.34 L309.524 1420.69 L288.879 1421.14 L268.234 1421.55 L247.59 1424.25  Z" fill="#af5f81" fill-rule="evenodd" fill-opacity="1"/>
<polyline clip-path="url(#clip362)" style="stroke:#af5f81; stroke-linecap:round; stroke-linejoin:round; stroke-width:4; stroke-opacity:1; fill:none" points="247.59,1242.15 268.234,1240.06 288.879,1238.64 309.524,1237.43 330.169,1236.09 350.814,1234.24 371.459,1232.15 392.104,1230.69 412.749,1229.17 433.394,1227.24 454.039,1226.22 474.684,1224.8 495.329,1222.99 515.974,1221.8 536.619,1219.55 557.264,1217.87 577.909,1216.22 598.554,1215.25 619.199,1212.93 639.844,1211.25 660.489,1209.41 681.134,1207.53 701.779,1205.81 722.424,1204.37 743.069,1202.69 763.713,1200.47 784.358,1199.09 805.003,1198.22 825.648,1196 846.293,1194.49 866.938,1192.47 887.583,1190.58 908.228,1189.36 928.873,1187.35 949.518,1186.11 970.163,1184.88 990.808,1183.02 1011.45,1181.38 1032.1,1179.32 1052.74,1177.62 1073.39,1176.15 1094.03,1174.18 1114.68,1171.97 1135.32,1170.07 1155.97,1168.99 1176.61,1168.15 1197.26,1167.76 1217.9,1164.83 1238.55,1164.09 1259.19,1161.42 1279.84,1159.73 1300.48,1158.14 1321.13,1155.48 1341.77,1154.37 1362.42,1153.49 1383.06,1151.75 1403.71,1149.47 1424.35,1147.73 1445,1146.02 1465.64,1143.58 1486.29,1141.97 1506.93,1141.33 1527.58,1139.89 1548.22,1138.91 1568.87,1138.04 1589.51,1136.34 1610.16,1134.35 1630.8,1132.75 1651.45,1132.35 1672.09,1132.12 1692.74,1130.21 1713.38,1128.22 1734.03,1127.33 1754.67,1125.61 1775.32,1123.55 1795.96,1121.44 1816.61,1119.4 1837.25,1118.6 1857.9,1117.52 1878.54,1117.14 1899.19,1115.29 1919.83,1115.24 1940.48,1112.81 1961.12,1111.92 1981.77,1109.37 2002.41,1108.53 2023.06,1106.87 2043.7,1104.98 2064.35,1102.92 2084.99,1101.95 2105.64,1100.69 2126.28,1099.09 2146.93,1097.8 2167.57,1095.95 2188.22,1094.77 2208.86,1095.19 2229.51,1094.3 2250.15,1093.56 2270.8,1091.64 2291.44,1090.66 "/>
<path clip-path="url(#clip362)" d="M247.59 1206.27 L268.234 1204.03 L288.879 1202 L309.524 1200.14 L330.169 1198.18 L350.814 1195.7 L371.459 1192.97 L392.104 1190.98 L412.749 1188.82 L433.394 1186.27 L454.039 1184.6 L474.684 1182.47 L495.329 1180.01 L515.974 1177.89 L536.619 1174.87 L557.264 1172.33 L577.909 1169.96 L598.554 1168.47 L619.199 1165.32 L639.844 1162.74 L660.489 1160.02 L681.134 1157.19 L701.779 1154.52 L722.424 1152.28 L743.069 1149.6 L763.713 1146.41 L784.358 1144.07 L805.003 1142.56 L825.648 1139.25 L846.293 1136.71 L866.938 1133.51 L887.583 1130.42 L908.228 1128.19 L928.873 1124.9 L949.518 1122.96 L970.163 1120.99 L990.808 1118.18 L1011.45 1115.55 L1032.1 1112.43 L1052.74 1109.51 L1073.39 1107.22 L1094.03 1104.2 L1114.68 1100.97 L1135.32 1098.3 L1155.97 1096.05 L1176.61 1094.43 L1197.26 1093.27 L1217.9 1089.09 L1238.55 1087.47 L1259.19 1083.81 L1279.84 1081.36 L1300.48 1078.46 L1321.13 1074.61 L1341.77 1072.97 L1362.42 1071.35 L1383.06 1068.79 L1403.71 1065.64 L1424.35 1062.88 L1445 1059.91 L1465.64 1056.22 L1486.29 1053.06 L1506.93 1051.44 L1527.58 1049.21 L1548.22 1047.57 L1568.87 1045.68 L1589.51 1042.54 L1610.16 1039.44 L1630.8 1036.73 L1651.45 1035.59 L1672.09 1034.75 L1692.74 1032.07 L1713.38 1029.21 L1734.03 1027.55 L1754.67 1024.81 L1775.32 1021.64 L1795.96 1018.33 L1816.61 1015.4 L1837.25 1013.57 L1857.9 1011.04 L1878.54 1010.02 L1899.19 1007.22 L1919.83 1006.72 L1940.48 1002.82 L1961.12 1001.15 L1981.77 997.128 L2002.41 995.733 L2023.06 992.734 L2043.7 989.395 L2064.35 986.19 L2084.99 983.947 L2105.64 981.906 L2126.28 979.263 L2146.93 976.748 L2167.57 973.358 L2188.22 971.601 L2208.86 971.403 L2229.51 969.21 L2250.15 967.996 L2270.8 964.895 L2291.44 963.299 L2291.44 1090.66 L2270.8 1091.64 L2250.15 1093.56 L2229.51 1094.3 L2208.86 1095.19 L2188.22 1094.77 L2167.57 1095.95 L2146.93 1097.8 L2126.28 1099.09 L2105.64 1100.69 L2084.99 1101.95 L2064.35 1102.92 L2043.7 1104.98 L2023.06 1106.87 L2002.41 1108.53 L1981.77 1109.37 L1961.12 1111.92 L1940.48 1112.81 L1919.83 1115.24 L1899.19 1115.29 L1878.54 1117.14 L1857.9 1117.52 L1837.25 1118.6 L1816.61 1119.4 L1795.96 1121.44 L1775.32 1123.55 L1754.67 1125.61 L1734.03 1127.33 L1713.38 1128.22 L1692.74 1130.21 L1672.09 1132.12 L1651.45 1132.35 L1630.8 1132.75 L1610.16 1134.35 L1589.51 1136.34 L1568.87 1138.04 L1548.22 1138.91 L1527.58 1139.89 L1506.93 1141.33 L1486.29 1141.97 L1465.64 1143.58 L1445 1146.02 L1424.35 1147.73 L1403.71 1149.47 L1383.06 1151.75 L1362.42 1153.49 L1341.77 1154.37 L1321.13 1155.48 L1300.48 1158.14 L1279.84 1159.73 L1259.19 1161.42 L1238.55 1164.09 L1217.9 1164.83 L1197.26 1167.76 L1176.61 1168.15 L1155.97 1168.99 L1135.32 1170.07 L1114.68 1171.97 L1094.03 1174.18 L1073.39 1176.15 L1052.74 1177.62 L1032.1 1179.32 L1011.45 1181.38 L990.808 1183.02 L970.163 1184.88 L949.518 1186.11 L928.873 1187.35 L908.228 1189.36 L887.583 1190.58 L866.938 1192.47 L846.293 1194.49 L825.648 1196 L805.003 1198.22 L784.358 1199.09 L763.713 1200.47 L743.069 1202.69 L722.424 1204.37 L701.779 1205.81 L681.134 1207.53 L660.489 1209.41 L639.844 1211.25 L619.199 1212.93 L598.554 1215.25 L577.909 1216.22 L557.264 1217.87 L536.619 1219.55 L515.974 1221.8 L495.329 1222.99 L474.684 1224.8 L454.039 1226.22 L433.394 1227.24 L412.749 1229.17 L392.104 1230.69 L371.459 1232.15 L350.814 1234.24 L330.169 1236.09 L309.524 1237.43 L288.879 1238.64 L268.234 1240.06 L247.59 1242.15  Z" fill="#553b9c" fill-rule="evenodd" fill-opacity="1"/>
<polyline clip-path="url(#clip362)" style="stroke:#553b9c; stroke-linecap:round; stroke-linejoin:round; stroke-width:4; stroke-opacity:1; fill:none" points="247.59,1206.27 268.234,1204.03 288.879,1202 309.524,1200.14 330.169,1198.18 350.814,1195.7 371.459,1192.97 392.104,1190.98 412.749,1188.82 433.394,1186.27 454.039,1184.6 474.684,1182.47 495.329,1180.01 515.974,1177.89 536.619,1174.87 557.264,1172.33 577.909,1169.96 598.554,1168.47 619.199,1165.32 639.844,1162.74 660.489,1160.02 681.134,1157.19 701.779,1154.52 722.424,1152.28 743.069,1149.6 763.713,1146.41 784.358,1144.07 805.003,1142.56 825.648,1139.25 846.293,1136.71 866.938,1133.51 887.583,1130.42 908.228,1128.19 928.873,1124.9 949.518,1122.96 970.163,1120.99 990.808,1118.18 1011.45,1115.55 1032.1,1112.43 1052.74,1109.51 1073.39,1107.22 1094.03,1104.2 1114.68,1100.97 1135.32,1098.3 1155.97,1096.05 1176.61,1094.43 1197.26,1093.27 1217.9,1089.09 1238.55,1087.47 1259.19,1083.81 1279.84,1081.36 1300.48,1078.46 1321.13,1074.61 1341.77,1072.97 1362.42,1071.35 1383.06,1068.79 1403.71,1065.64 1424.35,1062.88 1445,1059.91 1465.64,1056.22 1486.29,1053.06 1506.93,1051.44 1527.58,1049.21 1548.22,1047.57 1568.87,1045.68 1589.51,1042.54 1610.16,1039.44 1630.8,1036.73 1651.45,1035.59 1672.09,1034.75 1692.74,1032.07 1713.38,1029.21 1734.03,1027.55 1754.67,1024.81 1775.32,1021.64 1795.96,1018.33 1816.61,1015.4 1837.25,1013.57 1857.9,1011.04 1878.54,1010.02 1899.19,1007.22 1919.83,1006.72 1940.48,1002.82 1961.12,1001.15 1981.77,997.128 2002.41,995.733 2023.06,992.734 2043.7,989.395 2064.35,986.19 2084.99,983.947 2105.64,981.906 2126.28,979.263 2146.93,976.748 2167.57,973.358 2188.22,971.601 2208.86,971.403 2229.51,969.21 2250.15,967.996 2270.8,964.895 2291.44,963.299 "/>
<path clip-path="url(#clip362)" d="M247.59 1122.52 L268.234 1110.91 L288.879 1108.44 L309.524 1105.98 L330.169 1103.78 L350.814 1101.08 L371.459 1097.82 L392.104 1095.34 L412.749 1092.68 L433.394 1089.64 L454.039 1087.28 L474.684 1084.82 L495.329 1081.67 L515.974 1079.04 L536.619 1075.32 L557.264 1072.48 L577.909 1069.73 L598.554 1067.69 L619.199 1063.63 L639.844 1060.45 L660.489 1057.33 L681.134 1053.96 L701.779 1050.89 L722.424 1048.35 L743.069 1045.17 L763.713 1041.9 L784.358 1039.3 L805.003 1037.2 L825.648 1033.52 L846.293 1030.97 L866.938 1027.7 L887.583 1024.11 L908.228 1021.47 L928.873 1017.98 L949.518 1015.36 L970.163 1012.79 L990.808 1009.61 L1011.45 1006.19 L1032.1 1002.69 L1052.74 999.57 L1073.39 996.616 L1094.03 992.942 L1114.68 989.045 L1135.32 985.803 L1155.97 983.362 L1176.61 981.072 L1197.26 979.206 L1217.9 974.546 L1238.55 973.129 L1259.19 968.636 L1279.84 965.349 L1300.48 962.428 L1321.13 958.414 L1341.77 956.092 L1362.42 953.835 L1383.06 950.519 L1403.71 946.645 L1424.35 943.336 L1445 940.295 L1465.64 936.391 L1486.29 933.264 L1506.93 930.956 L1527.58 928.155 L1548.22 925.702 L1568.87 923.892 L1589.51 920.616 L1610.16 917.431 L1630.8 914.245 L1651.45 912.183 L1672.09 910.86 L1692.74 907.441 L1713.38 903.938 L1734.03 901.637 L1754.67 898.599 L1775.32 895.299 L1795.96 891.325 L1816.61 888.176 L1837.25 886.216 L1857.9 883.442 L1878.54 881.931 L1899.19 879.062 L1919.83 877.874 L1940.48 873.918 L1961.12 871.978 L1981.77 868.111 L2002.41 866.23 L2023.06 862.792 L2043.7 859.177 L2064.35 855.229 L2084.99 853.326 L2105.64 850.53 L2126.28 847.48 L2146.93 844.546 L2167.57 841.14 L2188.22 838.226 L2208.86 837.906 L2229.51 835.329 L2250.15 833.531 L2270.8 830.003 L2291.44 827.374 L2291.44 963.299 L2270.8 964.895 L2250.15 967.996 L2229.51 969.21 L2208.86 971.403 L2188.22 971.601 L2167.57 973.358 L2146.93 976.748 L2126.28 979.263 L2105.64 981.906 L2084.99 983.947 L2064.35 986.19 L2043.7 989.395 L2023.06 992.734 L2002.41 995.733 L1981.77 997.128 L1961.12 1001.15 L1940.48 1002.82 L1919.83 1006.72 L1899.19 1007.22 L1878.54 1010.02 L1857.9 1011.04 L1837.25 1013.57 L1816.61 1015.4 L1795.96 1018.33 L1775.32 1021.64 L1754.67 1024.81 L1734.03 1027.55 L1713.38 1029.21 L1692.74 1032.07 L1672.09 1034.75 L1651.45 1035.59 L1630.8 1036.73 L1610.16 1039.44 L1589.51 1042.54 L1568.87 1045.68 L1548.22 1047.57 L1527.58 1049.21 L1506.93 1051.44 L1486.29 1053.06 L1465.64 1056.22 L1445 1059.91 L1424.35 1062.88 L1403.71 1065.64 L1383.06 1068.79 L1362.42 1071.35 L1341.77 1072.97 L1321.13 1074.61 L1300.48 1078.46 L1279.84 1081.36 L1259.19 1083.81 L1238.55 1087.47 L1217.9 1089.09 L1197.26 1093.27 L1176.61 1094.43 L1155.97 1096.05 L1135.32 1098.3 L1114.68 1100.97 L1094.03 1104.2 L1073.39 1107.22 L1052.74 1109.51 L1032.1 1112.43 L1011.45 1115.55 L990.808 1118.18 L970.163 1120.99 L949.518 1122.96 L928.873 1124.9 L908.228 1128.19 L887.583 1130.42 L866.938 1133.51 L846.293 1136.71 L825.648 1139.25 L805.003 1142.56 L784.358 1144.07 L763.713 1146.41 L743.069 1149.6 L722.424 1152.28 L701.779 1154.52 L681.134 1157.19 L660.489 1160.02 L639.844 1162.74 L619.199 1165.32 L598.554 1168.47 L577.909 1169.96 L557.264 1172.33 L536.619 1174.87 L515.974 1177.89 L495.329 1180.01 L474.684 1182.47 L454.039 1184.6 L433.394 1186.27 L412.749 1188.82 L392.104 1190.98 L371.459 1192.97 L350.814 1195.7 L330.169 1198.18 L309.524 1200.14 L288.879 1202 L268.234 1204.03 L247.59 1206.27  Z" fill="#f99241" fill-rule="evenodd" fill-opacity="1"/>
<polyline clip-path="url(#clip362)" style="stroke:#f99241; stroke-linecap:round; stroke-linejoin:round; stroke-width:4; stroke-opacity:1; fill:none" points="247.59,1122.52 268.234,1110.91 288.879,1108.44 309.524,1105.98 330.169,1103.78 350.814,1101.08 371.459,1097.82 392.104,1095.34 412.749,1092.68 433.394,1089.64 454.039,1087.28 474.684,1084.82 495.329,1081.67 515.974,1079.04 536.619,1075.32 557.264,1072.48 577.909,1069.73 598.554,1067.69 619.199,1063.63 639.844,1060.45 660.489,1057.33 681.134,1053.96 701.779,1050.89 722.424,1048.35 743.069,1045.17 763.713,1041.9 784.358,1039.3 805.003,1037.2 825.648,1033.52 846.293,1030.97 866.938,1027.7 887.583,1024.11 908.228,1021.47 928.873,1017.98 949.518,1015.36 970.163,1012.79 990.808,1009.61 1011.45,1006.19 1032.1,1002.69 1052.74,999.57 1073.39,996.616 1094.03,992.942 1114.68,989.045 1135.32,985.803 1155.97,983.362 1176.61,981.072 1197.26,979.206 1217.9,974.546 1238.55,973.129 1259.19,968.636 1279.84,965.349 1300.48,962.428 1321.13,958.414 1341.77,956.092 1362.42,953.835 1383.06,950.519 1403.71,946.645 1424.35,943.336 1445,940.295 1465.64,936.391 1486.29,933.264 1506.93,930.956 1527.58,928.155 1548.22,925.702 1568.87,923.892 1589.51,920.616 1610.16,917.431 1630.8,914.245 1651.45,912.183 1672.09,910.86 1692.74,907.441 1713.38,903.938 1734.03,901.637 1754.67,898.599 1775.32,895.299 1795.96,891.325 1816.61,888.176 1837.25,886.216 1857.9,883.442 1878.54,881.931 1899.19,879.062 1919.83,877.874 1940.48,873.918 1961.12,871.978 1981.77,868.111 2002.41,866.23 2023.06,862.792 2043.7,859.177 2064.35,855.229 2084.99,853.326 2105.64,850.53 2126.28,847.48 2146.93,844.546 2167.57,841.14 2188.22,838.226 2208.86,837.906 2229.51,835.329 2250.15,833.531 2270.8,830.003 2291.44,827.374 "/>
<path clip-path="url(#clip362)" d="M247.59 1106.03 L268.234 1092.43 L288.879 1089.65 L309.524 1086.83 L330.169 1084.36 L350.814 1081.44 L371.459 1077.91 L392.104 1075.17 L412.749 1072.2 L433.394 1068.88 L454.039 1066.11 L474.684 1063.33 L495.329 1059.83 L515.974 1056.68 L536.619 1052.59 L557.264 1049.38 L577.909 1046.31 L598.554 1043.94 L619.199 1039.43 L639.844 1035.77 L660.489 1032.25 L681.134 1028.42 L701.779 1024.9 L722.424 1021.99 L743.069 1018.31 L763.713 1014.74 L784.358 1011.69 L805.003 1009.17 L825.648 1005.02 L846.293 1002.09 L866.938 998.39 L887.583 994.222 L908.228 991.038 L928.873 987.023 L949.518 983.94 L970.163 980.907 L990.808 977.303 L1011.45 973.265 L1032.1 969.297 L1052.74 965.648 L1073.39 962.18 L1094.03 957.927 L1114.68 953.501 L1135.32 949.857 L1155.97 946.824 L1176.61 943.936 L1197.26 941.393 L1217.9 936.232 L1238.55 934.499 L1259.19 929.466 L1279.84 925.62 L1300.48 922.166 L1321.13 917.776 L1341.77 915.004 L1362.42 912.162 L1383.06 908.278 L1403.71 903.898 L1424.35 899.995 L1445 896.431 L1465.64 892.052 L1486.29 888.262 L1506.93 885.127 L1527.58 881.791 L1548.22 878.678 L1568.87 876.428 L1589.51 872.473 L1610.16 868.89 L1630.8 865.024 L1651.45 862.066 L1672.09 860.129 L1692.74 856.139 L1713.38 852.063 L1734.03 849.057 L1754.67 845.487 L1775.32 841.752 L1795.96 836.981 L1816.61 833.478 L1837.25 830.906 L1857.9 827.216 L1878.54 825.04 L1899.19 821.83 L1919.83 819.91 L1940.48 815.371 L1961.12 812.89 L1981.77 808.602 L2002.41 806.17 L2023.06 801.825 L2043.7 797.375 L2064.35 792.497 L2084.99 790.125 L2105.64 786.474 L2126.28 782.693 L2146.93 778.818 L2167.57 774.638 L2188.22 770.656 L2208.86 769.688 L2229.51 765.992 L2250.15 763.519 L2270.8 759.133 L2291.44 755.385 L2291.44 827.374 L2270.8 830.003 L2250.15 833.531 L2229.51 835.329 L2208.86 837.906 L2188.22 838.226 L2167.57 841.14 L2146.93 844.546 L2126.28 847.48 L2105.64 850.53 L2084.99 853.326 L2064.35 855.229 L2043.7 859.177 L2023.06 862.792 L2002.41 866.23 L1981.77 868.111 L1961.12 871.978 L1940.48 873.918 L1919.83 877.874 L1899.19 879.062 L1878.54 881.931 L1857.9 883.442 L1837.25 886.216 L1816.61 888.176 L1795.96 891.325 L1775.32 895.299 L1754.67 898.599 L1734.03 901.637 L1713.38 903.938 L1692.74 907.441 L1672.09 910.86 L1651.45 912.183 L1630.8 914.245 L1610.16 917.431 L1589.51 920.616 L1568.87 923.892 L1548.22 925.702 L1527.58 928.155 L1506.93 930.956 L1486.29 933.264 L1465.64 936.391 L1445 940.295 L1424.35 943.336 L1403.71 946.645 L1383.06 950.519 L1362.42 953.835 L1341.77 956.092 L1321.13 958.414 L1300.48 962.428 L1279.84 965.349 L1259.19 968.636 L1238.55 973.129 L1217.9 974.546 L1197.26 979.206 L1176.61 981.072 L1155.97 983.362 L1135.32 985.803 L1114.68 989.045 L1094.03 992.942 L1073.39 996.616 L1052.74 999.57 L1032.1 1002.69 L1011.45 1006.19 L990.808 1009.61 L970.163 1012.79 L949.518 1015.36 L928.873 1017.98 L908.228 1021.47 L887.583 1024.11 L866.938 1027.7 L846.293 1030.97 L825.648 1033.52 L805.003 1037.2 L784.358 1039.3 L763.713 1041.9 L743.069 1045.17 L722.424 1048.35 L701.779 1050.89 L681.134 1053.96 L660.489 1057.33 L639.844 1060.45 L619.199 1063.63 L598.554 1067.69 L577.909 1069.73 L557.264 1072.48 L536.619 1075.32 L515.974 1079.04 L495.329 1081.67 L474.684 1084.82 L454.039 1087.28 L433.394 1089.64 L412.749 1092.68 L392.104 1095.34 L371.459 1097.82 L350.814 1101.08 L330.169 1103.78 L309.524 1105.98 L288.879 1108.44 L268.234 1110.91 L247.59 1122.52  Z" fill="#18337b" fill-rule="evenodd" fill-opacity="1"/>
<polyline clip-path="url(#clip362)" style="stroke:#18337b; stroke-linecap:round; stroke-linejoin:round; stroke-width:4; stroke-opacity:1; fill:none" points="247.59,1106.03 268.234,1092.43 288.879,1089.65 309.524,1086.83 330.169,1084.36 350.814,1081.44 371.459,1077.91 392.104,1075.17 412.749,1072.2 433.394,1068.88 454.039,1066.11 474.684,1063.33 495.329,1059.83 515.974,1056.68 536.619,1052.59 557.264,1049.38 577.909,1046.31 598.554,1043.94 619.199,1039.43 639.844,1035.77 660.489,1032.25 681.134,1028.42 701.779,1024.9 722.424,1021.99 743.069,1018.31 763.713,1014.74 784.358,1011.69 805.003,1009.17 825.648,1005.02 846.293,1002.09 866.938,998.39 887.583,994.222 908.228,991.038 928.873,987.023 949.518,983.94 970.163,980.907 990.808,977.303 1011.45,973.265 1032.1,969.297 1052.74,965.648 1073.39,962.18 1094.03,957.927 1114.68,953.501 1135.32,949.857 1155.97,946.824 1176.61,943.936 1197.26,941.393 1217.9,936.232 1238.55,934.499 1259.19,929.466 1279.84,925.62 1300.48,922.166 1321.13,917.776 1341.77,915.004 1362.42,912.162 1383.06,908.278 1403.71,903.898 1424.35,899.995 1445,896.431 1465.64,892.052 1486.29,888.262 1506.93,885.127 1527.58,881.791 1548.22,878.678 1568.87,876.428 1589.51,872.473 1610.16,868.89 1630.8,865.024 1651.45,862.066 1672.09,860.129 1692.74,856.139 1713.38,852.063 1734.03,849.057 1754.67,845.487 1775.32,841.752 1795.96,836.981 1816.61,833.478 1837.25,830.906 1857.9,827.216 1878.54,825.04 1899.19,821.83 1919.83,819.91 1940.48,815.371 1961.12,812.89 1981.77,808.602 2002.41,806.17 2023.06,801.825 2043.7,797.375 2064.35,792.497 2084.99,790.125 2105.64,786.474 2126.28,782.693 2146.93,778.818 2167.57,774.638 2188.22,770.656 2208.86,769.688 2229.51,765.992 2250.15,763.519 2270.8,759.133 2291.44,755.385 "/>
<path clip-path="url(#clip362)" d="M247.59 255.513 L268.234 254.336 L288.879 255.435 L309.524 256.837 L330.169 258.001 L350.814 258.744 L371.459 259.263 L392.104 259.928 L412.749 260.868 L433.394 261.415 L454.039 262.781 L474.684 263.947 L495.329 264.621 L515.974 266.651 L536.619 267.296 L557.264 268.624 L577.909 269.514 L598.554 270.316 L619.199 270.901 L639.844 272.21 L660.489 273.316 L681.134 274.512 L701.779 275.855 L722.424 276.885 L743.069 278.315 L763.713 279.148 L784.358 280.604 L805.003 281.595 L825.648 282.639 L846.293 284.057 L866.938 285.431 L887.583 286.859 L908.228 288.375 L928.873 289.823 L949.518 290.487 L970.163 291.225 L990.808 291.924 L1011.45 292.853 L1032.1 293.591 L1052.74 294.926 L1073.39 295.53 L1094.03 296.229 L1114.68 296.593 L1135.32 296.686 L1155.97 298.262 L1176.61 299.192 L1197.26 300.45 L1217.9 300.587 L1238.55 301.747 L1259.19 301.528 L1279.84 301.653 L1300.48 302.864 L1321.13 302.993 L1341.77 303.096 L1362.42 303.743 L1383.06 303.849 L1403.71 303.623 L1424.35 304.04 L1445 304.896 L1465.64 305.14 L1486.29 306.514 L1506.93 307.64 L1527.58 307.808 L1548.22 308.134 L1568.87 309.084 L1589.51 310.059 L1610.16 310.231 L1630.8 310.726 L1651.45 311.553 L1672.09 312.3 L1692.74 311.976 L1713.38 311.721 L1734.03 312.17 L1754.67 312.338 L1775.32 312.349 L1795.96 312.424 L1816.61 312.122 L1837.25 312.937 L1857.9 314.085 L1878.54 314.665 L1899.19 314.523 L1919.83 315.084 L1940.48 315.165 L1961.12 315.498 L1981.77 315.447 L2002.41 315.525 L2023.06 315.944 L2043.7 316.298 L2064.35 316.152 L2084.99 316.93 L2105.64 316.921 L2126.28 316.945 L2146.93 317.389 L2167.57 317.77 L2188.22 317.536 L2208.86 318.525 L2229.51 319.313 L2250.15 319.28 L2270.8 319.14 L2291.44 319.063 L2291.44 755.385 L2270.8 759.133 L2250.15 763.519 L2229.51 765.992 L2208.86 769.688 L2188.22 770.656 L2167.57 774.638 L2146.93 778.818 L2126.28 782.693 L2105.64 786.474 L2084.99 790.125 L2064.35 792.497 L2043.7 797.375 L2023.06 801.825 L2002.41 806.17 L1981.77 808.602 L1961.12 812.89 L1940.48 815.371 L1919.83 819.91 L1899.19 821.83 L1878.54 825.04 L1857.9 827.216 L1837.25 830.906 L1816.61 833.478 L1795.96 836.981 L1775.32 841.752 L1754.67 845.487 L1734.03 849.057 L1713.38 852.063 L1692.74 856.139 L1672.09 860.129 L1651.45 862.066 L1630.8 865.024 L1610.16 868.89 L1589.51 872.473 L1568.87 876.428 L1548.22 878.678 L1527.58 881.791 L1506.93 885.127 L1486.29 888.262 L1465.64 892.052 L1445 896.431 L1424.35 899.995 L1403.71 903.898 L1383.06 908.278 L1362.42 912.162 L1341.77 915.004 L1321.13 917.776 L1300.48 922.166 L1279.84 925.62 L1259.19 929.466 L1238.55 934.499 L1217.9 936.232 L1197.26 941.393 L1176.61 943.936 L1155.97 946.824 L1135.32 949.857 L1114.68 953.501 L1094.03 957.927 L1073.39 962.18 L1052.74 965.648 L1032.1 969.297 L1011.45 973.265 L990.808 977.303 L970.163 980.907 L949.518 983.94 L928.873 987.023 L908.228 991.038 L887.583 994.222 L866.938 998.39 L846.293 1002.09 L825.648 1005.02 L805.003 1009.17 L784.358 1011.69 L763.713 1014.74 L743.069 1018.31 L722.424 1021.99 L701.779 1024.9 L681.134 1028.42 L660.489 1032.25 L639.844 1035.77 L619.199 1039.43 L598.554 1043.94 L577.909 1046.31 L557.264 1049.38 L536.619 1052.59 L515.974 1056.68 L495.329 1059.83 L474.684 1063.33 L454.039 1066.11 L433.394 1068.88 L412.749 1072.2 L392.104 1075.17 L371.459 1077.91 L350.814 1081.44 L330.169 1084.36 L309.524 1086.83 L288.879 1089.65 L268.234 1092.43 L247.59 1106.03  Z" fill="#de6f64" fill-rule="evenodd" fill-opacity="1"/>
<polyline clip-path="url(#clip362)" style="stroke:#de6f64; stroke-linecap:round; stroke-linejoin:round; stroke-width:4; stroke-opacity:1; fill:none" points="247.59,255.513 268.234,254.336 288.879,255.435 309.524,256.837 330.169,258.001 350.814,258.744 371.459,259.263 392.104,259.928 412.749,260.868 433.394,261.415 454.039,262.781 474.684,263.947 495.329,264.621 515.974,266.651 536.619,267.296 557.264,268.624 577.909,269.514 598.554,270.316 619.199,270.901 639.844,272.21 660.489,273.316 681.134,274.512 701.779,275.855 722.424,276.885 743.069,278.315 763.713,279.148 784.358,280.604 805.003,281.595 825.648,282.639 846.293,284.057 866.938,285.431 887.583,286.859 908.228,288.375 928.873,289.823 949.518,290.487 970.163,291.225 990.808,291.924 1011.45,292.853 1032.1,293.591 1052.74,294.926 1073.39,295.53 1094.03,296.229 1114.68,296.593 1135.32,296.686 1155.97,298.262 1176.61,299.192 1197.26,300.45 1217.9,300.587 1238.55,301.747 1259.19,301.528 1279.84,301.653 1300.48,302.864 1321.13,302.993 1341.77,303.096 1362.42,303.743 1383.06,303.849 1403.71,303.623 1424.35,304.04 1445,304.896 1465.64,305.14 1486.29,306.514 1506.93,307.64 1527.58,307.808 1548.22,308.134 1568.87,309.084 1589.51,310.059 1610.16,310.231 1630.8,310.726 1651.45,311.553 1672.09,312.3 1692.74,311.976 1713.38,311.721 1734.03,312.17 1754.67,312.338 1775.32,312.349 1795.96,312.424 1816.61,312.122 1837.25,312.937 1857.9,314.085 1878.54,314.665 1899.19,314.523 1919.83,315.084 1940.48,315.165 1961.12,315.498 1981.77,315.447 2002.41,315.525 2023.06,315.944 2043.7,316.298 2064.35,316.152 2084.99,316.93 2105.64,316.921 2126.28,316.945 2146.93,317.389 2167.57,317.77 2188.22,317.536 2208.86,318.525 2229.51,319.313 2250.15,319.28 2270.8,319.14 2291.44,319.063 "/>
<path clip-path="url(#clip362)" d="M247.59 87.9763 L268.234 87.9763 L288.879 87.9763 L309.524 87.9763 L330.169 87.9763 L350.814 87.9763 L371.459 87.9763 L392.104 87.9763 L412.749 87.9763 L433.394 87.9763 L454.039 87.9763 L474.684 87.9763 L495.329 87.9763 L515.974 87.9763 L536.619 87.9763 L557.264 87.9763 L577.909 87.9763 L598.554 87.9763 L619.199 87.9763 L639.844 87.9763 L660.489 87.9763 L681.134 87.9763 L701.779 87.9763 L722.424 87.9763 L743.069 87.9763 L763.713 87.9763 L784.358 87.9763 L805.003 87.9763 L825.648 87.9763 L846.293 87.9763 L866.938 87.9763 L887.583 87.9763 L908.228 87.9763 L928.873 87.9763 L949.518 87.9763 L970.163 87.9763 L990.808 87.9763 L1011.45 87.9763 L1032.1 87.9763 L1052.74 87.9763 L1073.39 87.9763 L1094.03 87.9763 L1114.68 87.9763 L1135.32 87.9763 L1155.97 87.9763 L1176.61 87.9763 L1197.26 87.9763 L1217.9 87.9763 L1238.55 87.9763 L1259.19 87.9763 L1279.84 87.9763 L1300.48 87.9763 L1321.13 87.9763 L1341.77 87.9763 L1362.42 87.9763 L1383.06 87.9763 L1403.71 87.9763 L1424.35 87.9763 L1445 87.9763 L1465.64 87.9763 L1486.29 87.9763 L1506.93 87.9763 L1527.58 87.9763 L1548.22 87.9763 L1568.87 87.9763 L1589.51 87.9763 L1610.16 87.9763 L1630.8 87.9763 L1651.45 87.9763 L1672.09 87.9763 L1692.74 87.9763 L1713.38 87.9763 L1734.03 87.9763 L1754.67 87.9763 L1775.32 87.9763 L1795.96 87.9763 L1816.61 87.9763 L1837.25 87.9763 L1857.9 87.9763 L1878.54 87.9763 L1899.19 87.9763 L1919.83 87.9763 L1940.48 87.9763 L1961.12 87.9763 L1981.77 87.9763 L2002.41 87.9763 L2023.06 87.9763 L2043.7 87.9763 L2064.35 87.9763 L2084.99 87.9763 L2105.64 87.9763 L2126.28 87.9763 L2146.93 87.9763 L2167.57 87.9763 L2188.22 87.9763 L2208.86 87.9763 L2229.51 87.9763 L2250.15 87.9763 L2270.8 87.9763 L2291.44 87.9763 L2291.44 319.063 L2270.8 319.14 L2250.15 319.28 L2229.51 319.313 L2208.86 318.525 L2188.22 317.536 L2167.57 317.77 L2146.93 317.389 L2126.28 316.945 L2105.64 316.921 L2084.99 316.93 L2064.35 316.152 L2043.7 316.298 L2023.06 315.944 L2002.41 315.525 L1981.77 315.447 L1961.12 315.498 L1940.48 315.165 L1919.83 315.084 L1899.19 314.523 L1878.54 314.665 L1857.9 314.085 L1837.25 312.937 L1816.61 312.122 L1795.96 312.424 L1775.32 312.349 L1754.67 312.338 L1734.03 312.17 L1713.38 311.721 L1692.74 311.976 L1672.09 312.3 L1651.45 311.553 L1630.8 310.726 L1610.16 310.231 L1589.51 310.059 L1568.87 309.084 L1548.22 308.134 L1527.58 307.808 L1506.93 307.64 L1486.29 306.514 L1465.64 305.14 L1445 304.896 L1424.35 304.04 L1403.71 303.623 L1383.06 303.849 L1362.42 303.743 L1341.77 303.096 L1321.13 302.993 L1300.48 302.864 L1279.84 301.653 L1259.19 301.528 L1238.55 301.747 L1217.9 300.587 L1197.26 300.45 L1176.61 299.192 L1155.97 298.262 L1135.32 296.686 L1114.68 296.593 L1094.03 296.229 L1073.39 295.53 L1052.74 294.926 L1032.1 293.591 L1011.45 292.853 L990.808 291.924 L970.163 291.225 L949.518 290.487 L928.873 289.823 L908.228 288.375 L887.583 286.859 L866.938 285.431 L846.293 284.057 L825.648 282.639 L805.003 281.595 L784.358 280.604 L763.713 279.148 L743.069 278.315 L722.424 276.885 L701.779 275.855 L681.134 274.512 L660.489 273.316 L639.844 272.21 L619.199 270.901 L598.554 270.316 L577.909 269.514 L557.264 268.624 L536.619 267.296 L515.974 266.651 L495.329 264.621 L474.684 263.947 L454.039 262.781 L433.394 261.415 L412.749 260.868 L392.104 259.928 L371.459 259.263 L350.814 258.744 L330.169 258.001 L309.524 256.837 L288.879 255.435 L268.234 254.336 L247.59 255.513  Z" fill="#824f8e" fill-rule="evenodd" fill-opacity="1"/>
<polyline clip-path="url(#clip362)" style="stroke:#824f8e; stroke-linecap:round; stroke-linejoin:round; stroke-width:4; stroke-opacity:1; fill:none" points="247.59,87.9763 268.234,87.9763 288.879,87.9763 309.524,87.9763 330.169,87.9763 350.814,87.9763 371.459,87.9763 392.104,87.9763 412.749,87.9763 433.394,87.9763 454.039,87.9763 474.684,87.9763 495.329,87.9763 515.974,87.9763 536.619,87.9763 557.264,87.9763 577.909,87.9763 598.554,87.9763 619.199,87.9763 639.844,87.9763 660.489,87.9763 681.134,87.9763 701.779,87.9763 722.424,87.9763 743.069,87.9763 763.713,87.9763 784.358,87.9763 805.003,87.9763 825.648,87.9763 846.293,87.9763 866.938,87.9763 887.583,87.9763 908.228,87.9763 928.873,87.9763 949.518,87.9763 970.163,87.9763 990.808,87.9763 1011.45,87.9763 1032.1,87.9763 1052.74,87.9763 1073.39,87.9763 1094.03,87.9763 1114.68,87.9763 1135.32,87.9763 1155.97,87.9763 1176.61,87.9763 1197.26,87.9763 1217.9,87.9763 1238.55,87.9763 1259.19,87.9763 1279.84,87.9763 1300.48,87.9763 1321.13,87.9763 1341.77,87.9763 1362.42,87.9763 1383.06,87.9763 1403.71,87.9763 1424.35,87.9763 1445,87.9763 1465.64,87.9763 1486.29,87.9763 1506.93,87.9763 1527.58,87.9763 1548.22,87.9763 1568.87,87.9763 1589.51,87.9763 1610.16,87.9763 1630.8,87.9763 1651.45,87.9763 1672.09,87.9763 1692.74,87.9763 1713.38,87.9763 1734.03,87.9763 1754.67,87.9763 1775.32,87.9763 1795.96,87.9763 1816.61,87.9763 1837.25,87.9763 1857.9,87.9763 1878.54,87.9763 1899.19,87.9763 1919.83,87.9763 1940.48,87.9763 1961.12,87.9763 1981.77,87.9763 2002.41,87.9763 2023.06,87.9763 2043.7,87.9763 2064.35,87.9763 2084.99,87.9763 2105.64,87.9763 2126.28,87.9763 2146.93,87.9763 2167.57,87.9763 2188.22,87.9763 2208.86,87.9763 2229.51,87.9763 2250.15,87.9763 2270.8,87.9763 2291.44,87.9763 "/>
</svg>
