<?xml version="1.0" encoding="utf-8"?>
<svg xmlns="http://www.w3.org/2000/svg" xmlns:xlink="http://www.w3.org/1999/xlink" width="600" height="400" viewBox="0 0 2400 1600">
<defs>
  <clipPath id="clip500">
    <rect x="0" y="0" width="2400" height="1600"/>
  </clipPath>
</defs>
<path clip-path="url(#clip500)" d="M0 1600 L2400 1600 L2400 0 L0 0  Z" fill="#ffffff" fill-rule="evenodd" fill-opacity="1"/>
<defs>
  <clipPath id="clip501">
    <rect x="480" y="0" width="1681" height="1600"/>
  </clipPath>
</defs>
<path clip-path="url(#clip500)" d="M140.696 1486.45 L2352.76 1486.45 L2352.76 47.2441 L140.696 47.2441  Z" fill="#ffffff" fill-rule="evenodd" fill-opacity="1"/>
<defs>
  <clipPath id="clip502">
    <rect x="140" y="47" width="2213" height="1440"/>
  </clipPath>
</defs>
<polyline clip-path="url(#clip502)" style="stroke:#000000; stroke-linecap:round; stroke-linejoin:round; stroke-width:2; stroke-opacity:0.1; fill:none" points="203.301,1486.45 203.301,47.2441 "/>
<polyline clip-path="url(#clip502)" style="stroke:#000000; stroke-linecap:round; stroke-linejoin:round; stroke-width:2; stroke-opacity:0.1; fill:none" points="725.013,1486.45 725.013,47.2441 "/>
<polyline clip-path="url(#clip502)" style="stroke:#000000; stroke-linecap:round; stroke-linejoin:round; stroke-width:2; stroke-opacity:0.1; fill:none" points="1246.73,1486.45 1246.73,47.2441 "/>
<polyline clip-path="url(#clip502)" style="stroke:#000000; stroke-linecap:round; stroke-linejoin:round; stroke-width:2; stroke-opacity:0.1; fill:none" points="1768.44,1486.45 1768.44,47.2441 "/>
<polyline clip-path="url(#clip502)" style="stroke:#000000; stroke-linecap:round; stroke-linejoin:round; stroke-width:2; stroke-opacity:0.1; fill:none" points="2290.15,1486.45 2290.15,47.2441 "/>
<polyline clip-path="url(#clip500)" style="stroke:#000000; stroke-linecap:round; stroke-linejoin:round; stroke-width:4; stroke-opacity:1; fill:none" points="140.696,1486.45 2352.76,1486.45 "/>
<polyline clip-path="url(#clip500)" style="stroke:#000000; stroke-linecap:round; stroke-linejoin:round; stroke-width:4; stroke-opacity:1; fill:none" points="203.301,1486.45 203.301,1467.55 "/>
<polyline clip-path="url(#clip500)" style="stroke:#000000; stroke-linecap:round; stroke-linejoin:round; stroke-width:4; stroke-opacity:1; fill:none" points="725.013,1486.45 725.013,1467.55 "/>
<polyline clip-path="url(#clip500)" style="stroke:#000000; stroke-linecap:round; stroke-linejoin:round; stroke-width:4; stroke-opacity:1; fill:none" points="1246.73,1486.45 1246.73,1467.55 "/>
<polyline clip-path="url(#clip500)" style="stroke:#000000; stroke-linecap:round; stroke-linejoin:round; stroke-width:4; stroke-opacity:1; fill:none" points="1768.44,1486.45 1768.44,1467.55 "/>
<polyline clip-path="url(#clip500)" style="stroke:#000000; stroke-linecap:round; stroke-linejoin:round; stroke-width:4; stroke-opacity:1; fill:none" points="2290.15,1486.45 2290.15,1467.55 "/>
<path clip-path="url(#clip500)" d="M203.301 1517.37 Q199.69 1517.37 197.861 1520.93 Q196.056 1524.47 196.056 1531.6 Q196.056 1538.71 197.861 1542.27 Q199.69 1545.82 203.301 1545.82 Q206.935 1545.82 208.741 1542.27 Q210.57 1538.71 210.57 1531.6 Q210.57 1524.47 208.741 1520.93 Q206.935 1517.37 203.301 1517.37 M203.301 1513.66 Q209.111 1513.66 212.167 1518.27 Q215.245 1522.85 215.245 1531.6 Q215.245 1540.33 212.167 1544.94 Q209.111 1549.52 203.301 1549.52 Q197.491 1549.52 194.412 1544.94 Q191.357 1540.33 191.357 1531.6 Q191.357 1522.85 194.412 1518.27 Q197.491 1513.66 203.301 1513.66 Z" fill="#000000" fill-rule="nonzero" fill-opacity="1" /><path clip-path="url(#clip500)" d="M684.632 1514.29 L702.988 1514.29 L702.988 1518.22 L688.914 1518.22 L688.914 1526.7 Q689.933 1526.35 690.951 1526.19 Q691.97 1526 692.988 1526 Q698.775 1526 702.155 1529.17 Q705.534 1532.34 705.534 1537.76 Q705.534 1543.34 702.062 1546.44 Q698.59 1549.52 692.27 1549.52 Q690.095 1549.52 687.826 1549.15 Q685.581 1548.78 683.173 1548.04 L683.173 1543.34 Q685.257 1544.47 687.479 1545.03 Q689.701 1545.58 692.178 1545.58 Q696.183 1545.58 698.52 1543.48 Q700.858 1541.37 700.858 1537.76 Q700.858 1534.15 698.52 1532.04 Q696.183 1529.94 692.178 1529.94 Q690.303 1529.94 688.428 1530.35 Q686.576 1530.77 684.632 1531.65 L684.632 1514.29 Z" fill="#000000" fill-rule="nonzero" fill-opacity="1" /><path clip-path="url(#clip500)" d="M724.747 1517.37 Q721.136 1517.37 719.307 1520.93 Q717.502 1524.47 717.502 1531.6 Q717.502 1538.71 719.307 1542.27 Q721.136 1545.82 724.747 1545.82 Q728.381 1545.82 730.187 1542.27 Q732.016 1538.71 732.016 1531.6 Q732.016 1524.47 730.187 1520.93 Q728.381 1517.37 724.747 1517.37 M724.747 1513.66 Q730.557 1513.66 733.613 1518.27 Q736.692 1522.85 736.692 1531.6 Q736.692 1540.33 733.613 1544.94 Q730.557 1549.52 724.747 1549.52 Q718.937 1549.52 715.858 1544.94 Q712.803 1540.33 712.803 1531.6 Q712.803 1522.85 715.858 1518.27 Q718.937 1513.66 724.747 1513.66 Z" fill="#000000" fill-rule="nonzero" fill-opacity="1" /><path clip-path="url(#clip500)" d="M754.909 1517.37 Q751.298 1517.37 749.469 1520.93 Q747.664 1524.47 747.664 1531.6 Q747.664 1538.71 749.469 1542.27 Q751.298 1545.82 754.909 1545.82 Q758.543 1545.82 760.349 1542.27 Q762.178 1538.71 762.178 1531.6 Q762.178 1524.47 760.349 1520.93 Q758.543 1517.37 754.909 1517.37 M754.909 1513.66 Q760.719 1513.66 763.775 1518.27 Q766.853 1522.85 766.853 1531.6 Q766.853 1540.33 763.775 1544.94 Q760.719 1549.52 754.909 1549.52 Q749.099 1549.52 746.02 1544.94 Q742.965 1540.33 742.965 1531.6 Q742.965 1522.85 746.02 1518.27 Q749.099 1513.66 754.909 1513.66 Z" fill="#000000" fill-rule="nonzero" fill-opacity="1" /><path clip-path="url(#clip500)" d="M1191.25 1544.91 L1198.89 1544.91 L1198.89 1518.55 L1190.58 1520.21 L1190.58 1515.95 L1198.84 1514.29 L1203.52 1514.29 L1203.52 1544.91 L1211.16 1544.91 L1211.16 1548.85 L1191.25 1548.85 L1191.25 1544.91 Z" fill="#000000" fill-rule="nonzero" fill-opacity="1" /><path clip-path="url(#clip500)" d="M1230.6 1517.37 Q1226.99 1517.37 1225.16 1520.93 Q1223.36 1524.47 1223.36 1531.6 Q1223.36 1538.71 1225.16 1542.27 Q1226.99 1545.82 1230.6 1545.82 Q1234.24 1545.82 1236.04 1542.27 Q1237.87 1538.71 1237.87 1531.6 Q1237.87 1524.47 1236.04 1520.93 Q1234.24 1517.37 1230.6 1517.37 M1230.6 1513.66 Q1236.41 1513.66 1239.47 1518.27 Q1242.55 1522.85 1242.55 1531.6 Q1242.55 1540.33 1239.47 1544.94 Q1236.41 1549.52 1230.6 1549.52 Q1224.79 1549.52 1221.71 1544.94 Q1218.66 1540.33 1218.66 1531.6 Q1218.66 1522.85 1221.71 1518.27 Q1224.79 1513.66 1230.6 1513.66 Z" fill="#000000" fill-rule="nonzero" fill-opacity="1" /><path clip-path="url(#clip500)" d="M1260.77 1517.37 Q1257.15 1517.37 1255.33 1520.93 Q1253.52 1524.47 1253.52 1531.6 Q1253.52 1538.71 1255.33 1542.27 Q1257.15 1545.82 1260.77 1545.82 Q1264.4 1545.82 1266.2 1542.27 Q1268.03 1538.71 1268.03 1531.6 Q1268.03 1524.47 1266.2 1520.93 Q1264.4 1517.37 1260.77 1517.37 M1260.77 1513.66 Q1266.58 1513.66 1269.63 1518.27 Q1272.71 1522.85 1272.71 1531.6 Q1272.71 1540.33 1269.63 1544.94 Q1266.58 1549.52 1260.77 1549.52 Q1254.95 1549.52 1251.88 1544.94 Q1248.82 1540.33 1248.82 1531.6 Q1248.82 1522.85 1251.88 1518.27 Q1254.95 1513.66 1260.77 1513.66 Z" fill="#000000" fill-rule="nonzero" fill-opacity="1" /><path clip-path="url(#clip500)" d="M1290.93 1517.37 Q1287.32 1517.37 1285.49 1520.93 Q1283.68 1524.47 1283.68 1531.6 Q1283.68 1538.71 1285.49 1542.27 Q1287.32 1545.82 1290.93 1545.82 Q1294.56 1545.82 1296.37 1542.27 Q1298.2 1538.71 1298.2 1531.6 Q1298.2 1524.47 1296.37 1520.93 Q1294.56 1517.37 1290.93 1517.37 M1290.93 1513.66 Q1296.74 1513.66 1299.79 1518.27 Q1302.87 1522.85 1302.87 1531.6 Q1302.87 1540.33 1299.79 1544.94 Q1296.74 1549.52 1290.93 1549.52 Q1285.12 1549.52 1282.04 1544.94 Q1278.98 1540.33 1278.98 1531.6 Q1278.98 1522.85 1282.04 1518.27 Q1285.12 1513.66 1290.93 1513.66 Z" fill="#000000" fill-rule="nonzero" fill-opacity="1" /><path clip-path="url(#clip500)" d="M1712.96 1544.91 L1720.6 1544.91 L1720.6 1518.55 L1712.29 1520.21 L1712.29 1515.95 L1720.56 1514.29 L1725.23 1514.29 L1725.23 1544.91 L1732.87 1544.91 L1732.87 1548.85 L1712.96 1548.85 L1712.96 1544.91 Z" fill="#000000" fill-rule="nonzero" fill-opacity="1" /><path clip-path="url(#clip500)" d="M1742.36 1514.29 L1760.72 1514.29 L1760.72 1518.22 L1746.64 1518.22 L1746.64 1526.7 Q1747.66 1526.35 1748.68 1526.19 Q1749.7 1526 1750.72 1526 Q1756.51 1526 1759.88 1529.17 Q1763.26 1532.34 1763.26 1537.76 Q1763.26 1543.34 1759.79 1546.44 Q1756.32 1549.52 1750 1549.52 Q1747.82 1549.52 1745.56 1549.15 Q1743.31 1548.78 1740.9 1548.04 L1740.9 1543.34 Q1742.99 1544.47 1745.21 1545.03 Q1747.43 1545.58 1749.91 1545.58 Q1753.91 1545.58 1756.25 1543.48 Q1758.59 1541.37 1758.59 1537.76 Q1758.59 1534.15 1756.25 1532.04 Q1753.91 1529.94 1749.91 1529.94 Q1748.03 1529.94 1746.16 1530.35 Q1744.31 1530.77 1742.36 1531.65 L1742.36 1514.29 Z" fill="#000000" fill-rule="nonzero" fill-opacity="1" /><path clip-path="url(#clip500)" d="M1782.48 1517.37 Q1778.87 1517.37 1777.04 1520.93 Q1775.23 1524.47 1775.23 1531.6 Q1775.23 1538.71 1777.04 1542.27 Q1778.87 1545.82 1782.48 1545.82 Q1786.11 1545.82 1787.92 1542.27 Q1789.75 1538.71 1789.75 1531.6 Q1789.75 1524.47 1787.92 1520.93 Q1786.11 1517.37 1782.48 1517.37 M1782.48 1513.66 Q1788.29 1513.66 1791.34 1518.27 Q1794.42 1522.85 1794.42 1531.6 Q1794.42 1540.33 1791.34 1544.94 Q1788.29 1549.52 1782.48 1549.52 Q1776.67 1549.52 1773.59 1544.94 Q1770.53 1540.33 1770.53 1531.6 Q1770.53 1522.85 1773.59 1518.27 Q1776.67 1513.66 1782.48 1513.66 Z" fill="#000000" fill-rule="nonzero" fill-opacity="1" /><path clip-path="url(#clip500)" d="M1812.64 1517.37 Q1809.03 1517.37 1807.2 1520.93 Q1805.39 1524.47 1805.39 1531.6 Q1805.39 1538.71 1807.2 1542.27 Q1809.03 1545.82 1812.64 1545.82 Q1816.27 1545.82 1818.08 1542.27 Q1819.91 1538.71 1819.91 1531.6 Q1819.91 1524.47 1818.08 1520.93 Q1816.27 1517.37 1812.64 1517.37 M1812.64 1513.66 Q1818.45 1513.66 1821.5 1518.27 Q1824.58 1522.85 1824.58 1531.6 Q1824.58 1540.33 1821.5 1544.94 Q1818.45 1549.52 1812.64 1549.52 Q1806.83 1549.52 1803.75 1544.94 Q1800.69 1540.33 1800.69 1531.6 Q1800.69 1522.85 1803.75 1518.27 Q1806.83 1513.66 1812.64 1513.66 Z" fill="#000000" fill-rule="nonzero" fill-opacity="1" /><path clip-path="url(#clip500)" d="M2238.76 1544.91 L2255.08 1544.91 L2255.08 1548.85 L2233.14 1548.85 L2233.14 1544.91 Q2235.8 1542.16 2240.38 1537.53 Q2244.99 1532.88 2246.17 1531.53 Q2248.41 1529.01 2249.29 1527.27 Q2250.2 1525.51 2250.2 1523.82 Q2250.2 1521.07 2248.25 1519.33 Q2246.33 1517.6 2243.23 1517.6 Q2241.03 1517.6 2238.58 1518.36 Q2236.15 1519.13 2233.37 1520.68 L2233.37 1515.95 Q2236.19 1514.82 2238.65 1514.24 Q2241.1 1513.66 2243.14 1513.66 Q2248.51 1513.66 2251.7 1516.35 Q2254.9 1519.03 2254.9 1523.52 Q2254.9 1525.65 2254.09 1527.57 Q2253.3 1529.47 2251.19 1532.07 Q2250.61 1532.74 2247.51 1535.95 Q2244.41 1539.15 2238.76 1544.91 Z" fill="#000000" fill-rule="nonzero" fill-opacity="1" /><path clip-path="url(#clip500)" d="M2274.9 1517.37 Q2271.28 1517.37 2269.46 1520.93 Q2267.65 1524.47 2267.65 1531.6 Q2267.65 1538.71 2269.46 1542.27 Q2271.28 1545.82 2274.9 1545.82 Q2278.53 1545.82 2280.34 1542.27 Q2282.16 1538.71 2282.16 1531.6 Q2282.16 1524.47 2280.34 1520.93 Q2278.53 1517.37 2274.9 1517.37 M2274.9 1513.66 Q2280.71 1513.66 2283.76 1518.27 Q2286.84 1522.85 2286.84 1531.6 Q2286.84 1540.33 2283.76 1544.94 Q2280.71 1549.52 2274.9 1549.52 Q2269.09 1549.52 2266.01 1544.94 Q2262.95 1540.33 2262.95 1531.6 Q2262.95 1522.85 2266.01 1518.27 Q2269.09 1513.66 2274.9 1513.66 Z" fill="#000000" fill-rule="nonzero" fill-opacity="1" /><path clip-path="url(#clip500)" d="M2305.06 1517.37 Q2301.45 1517.37 2299.62 1520.93 Q2297.81 1524.47 2297.81 1531.6 Q2297.81 1538.71 2299.62 1542.27 Q2301.45 1545.82 2305.06 1545.82 Q2308.69 1545.82 2310.5 1542.27 Q2312.33 1538.71 2312.33 1531.6 Q2312.33 1524.47 2310.5 1520.93 Q2308.69 1517.37 2305.06 1517.37 M2305.06 1513.66 Q2310.87 1513.66 2313.92 1518.27 Q2317 1522.85 2317 1531.6 Q2317 1540.33 2313.92 1544.94 Q2310.87 1549.52 2305.06 1549.52 Q2299.25 1549.52 2296.17 1544.94 Q2293.11 1540.33 2293.11 1531.6 Q2293.11 1522.85 2296.17 1518.27 Q2299.25 1513.66 2305.06 1513.66 Z" fill="#000000" fill-rule="nonzero" fill-opacity="1" /><path clip-path="url(#clip500)" d="M2335.22 1517.37 Q2331.61 1517.37 2329.78 1520.93 Q2327.97 1524.47 2327.97 1531.6 Q2327.97 1538.71 2329.78 1542.27 Q2331.61 1545.82 2335.22 1545.82 Q2338.85 1545.82 2340.66 1542.27 Q2342.49 1538.71 2342.49 1531.6 Q2342.49 1524.47 2340.66 1520.93 Q2338.85 1517.37 2335.22 1517.37 M2335.22 1513.66 Q2341.03 1513.66 2344.09 1518.27 Q2347.16 1522.85 2347.16 1531.6 Q2347.16 1540.33 2344.09 1544.94 Q2341.03 1549.52 2335.22 1549.52 Q2329.41 1549.52 2326.33 1544.94 Q2323.28 1540.33 2323.28 1531.6 Q2323.28 1522.85 2326.33 1518.27 Q2329.41 1513.66 2335.22 1513.66 Z" fill="#000000" fill-rule="nonzero" fill-opacity="1" /><polyline clip-path="url(#clip502)" style="stroke:#000000; stroke-linecap:round; stroke-linejoin:round; stroke-width:2; stroke-opacity:0.1; fill:none" points="140.696,1182.51 2352.76,1182.51 "/>
<polyline clip-path="url(#clip502)" style="stroke:#000000; stroke-linecap:round; stroke-linejoin:round; stroke-width:2; stroke-opacity:0.1; fill:none" points="140.696,877.655 2352.76,877.655 "/>
<polyline clip-path="url(#clip502)" style="stroke:#000000; stroke-linecap:round; stroke-linejoin:round; stroke-width:2; stroke-opacity:0.1; fill:none" points="140.696,572.803 2352.76,572.803 "/>
<polyline clip-path="url(#clip502)" style="stroke:#000000; stroke-linecap:round; stroke-linejoin:round; stroke-width:2; stroke-opacity:0.1; fill:none" points="140.696,267.95 2352.76,267.95 "/>
<polyline clip-path="url(#clip500)" style="stroke:#000000; stroke-linecap:round; stroke-linejoin:round; stroke-width:4; stroke-opacity:1; fill:none" points="140.696,1486.45 140.696,47.2441 "/>
<polyline clip-path="url(#clip500)" style="stroke:#000000; stroke-linecap:round; stroke-linejoin:round; stroke-width:4; stroke-opacity:1; fill:none" points="140.696,1182.51 159.593,1182.51 "/>
<polyline clip-path="url(#clip500)" style="stroke:#000000; stroke-linecap:round; stroke-linejoin:round; stroke-width:4; stroke-opacity:1; fill:none" points="140.696,877.655 159.593,877.655 "/>
<polyline clip-path="url(#clip500)" style="stroke:#000000; stroke-linecap:round; stroke-linejoin:round; stroke-width:4; stroke-opacity:1; fill:none" points="140.696,572.803 159.593,572.803 "/>
<polyline clip-path="url(#clip500)" style="stroke:#000000; stroke-linecap:round; stroke-linejoin:round; stroke-width:4; stroke-opacity:1; fill:none" points="140.696,267.95 159.593,267.95 "/>
<path clip-path="url(#clip500)" d="M53.3995 1195.85 L61.0384 1195.85 L61.0384 1169.49 L52.7282 1171.15 L52.7282 1166.89 L60.9921 1165.23 L65.668 1165.23 L65.668 1195.85 L73.3068 1195.85 L73.3068 1199.79 L53.3995 1199.79 L53.3995 1195.85 Z" fill="#000000" fill-rule="nonzero" fill-opacity="1" /><path clip-path="url(#clip500)" d="M92.7512 1168.31 Q89.1401 1168.31 87.3114 1171.87 Q85.5058 1175.41 85.5058 1182.54 Q85.5058 1189.65 87.3114 1193.21 Q89.1401 1196.75 92.7512 1196.75 Q96.3854 1196.75 98.1909 1193.21 Q100.02 1189.65 100.02 1182.54 Q100.02 1175.41 98.1909 1171.87 Q96.3854 1168.31 92.7512 1168.31 M92.7512 1164.6 Q98.5613 1164.6 101.617 1169.21 Q104.696 1173.79 104.696 1182.54 Q104.696 1191.27 101.617 1195.87 Q98.5613 1200.46 92.7512 1200.46 Q86.941 1200.46 83.8623 1195.87 Q80.8068 1191.27 80.8068 1182.54 Q80.8068 1173.79 83.8623 1169.21 Q86.941 1164.6 92.7512 1164.6 Z" fill="#000000" fill-rule="nonzero" fill-opacity="1" /><path clip-path="url(#clip500)" d="M54.3949 890.999 L62.0337 890.999 L62.0337 864.634 L53.7236 866.301 L53.7236 862.041 L61.9874 860.375 L66.6633 860.375 L66.6633 890.999 L74.3022 890.999 L74.3022 894.935 L54.3949 894.935 L54.3949 890.999 Z" fill="#000000" fill-rule="nonzero" fill-opacity="1" /><path clip-path="url(#clip500)" d="M83.7929 860.375 L102.149 860.375 L102.149 864.31 L88.0753 864.31 L88.0753 872.782 Q89.0938 872.435 90.1123 872.273 Q91.1308 872.088 92.1493 872.088 Q97.9363 872.088 101.316 875.259 Q104.696 878.43 104.696 883.847 Q104.696 889.425 101.223 892.527 Q97.7511 895.606 91.4317 895.606 Q89.2558 895.606 86.9873 895.236 Q84.7419 894.865 82.3346 894.124 L82.3346 889.425 Q84.4179 890.56 86.6401 891.115 Q88.8623 891.671 91.3391 891.671 Q95.3437 891.671 97.6817 889.564 Q100.02 887.458 100.02 883.847 Q100.02 880.236 97.6817 878.129 Q95.3437 876.023 91.3391 876.023 Q89.4641 876.023 87.5892 876.439 Q85.7373 876.856 83.7929 877.736 L83.7929 860.375 Z" fill="#000000" fill-rule="nonzero" fill-opacity="1" /><path clip-path="url(#clip500)" d="M56.6171 586.147 L72.9365 586.147 L72.9365 590.083 L50.9921 590.083 L50.9921 586.147 Q53.6541 583.393 58.2375 578.763 Q62.8439 574.11 64.0245 572.768 Q66.2698 570.245 67.1494 568.509 Q68.0522 566.749 68.0522 565.06 Q68.0522 562.305 66.1078 560.569 Q64.1865 558.833 61.0847 558.833 Q58.8856 558.833 56.4319 559.597 Q54.0014 560.36 51.2236 561.911 L51.2236 557.189 Q54.0477 556.055 56.5014 555.476 Q58.955 554.898 60.9921 554.898 Q66.3624 554.898 69.5568 557.583 Q72.7513 560.268 72.7513 564.759 Q72.7513 566.888 71.9411 568.809 Q71.1541 570.708 69.0476 573.3 Q68.4689 573.971 65.367 577.189 Q62.2652 580.384 56.6171 586.147 Z" fill="#000000" fill-rule="nonzero" fill-opacity="1" /><path clip-path="url(#clip500)" d="M92.7512 558.601 Q89.1401 558.601 87.3114 562.166 Q85.5058 565.708 85.5058 572.837 Q85.5058 579.944 87.3114 583.508 Q89.1401 587.05 92.7512 587.05 Q96.3854 587.05 98.1909 583.508 Q100.02 579.944 100.02 572.837 Q100.02 565.708 98.1909 562.166 Q96.3854 558.601 92.7512 558.601 M92.7512 554.898 Q98.5613 554.898 101.617 559.504 Q104.696 564.087 104.696 572.837 Q104.696 581.564 101.617 586.171 Q98.5613 590.754 92.7512 590.754 Q86.941 590.754 83.8623 586.171 Q80.8068 581.564 80.8068 572.837 Q80.8068 564.087 83.8623 559.504 Q86.941 554.898 92.7512 554.898 Z" fill="#000000" fill-rule="nonzero" fill-opacity="1" /><path clip-path="url(#clip500)" d="M57.6125 281.295 L73.9318 281.295 L73.9318 285.23 L51.9875 285.23 L51.9875 281.295 Q54.6495 278.541 59.2328 273.911 Q63.8393 269.258 65.0198 267.916 Q67.2652 265.393 68.1448 263.656 Q69.0476 261.897 69.0476 260.207 Q69.0476 257.453 67.1032 255.717 Q65.1819 253.981 62.08 253.981 Q59.881 253.981 57.4273 254.744 Q54.9967 255.508 52.219 257.059 L52.219 252.337 Q55.043 251.203 57.4967 250.624 Q59.9504 250.045 61.9874 250.045 Q67.3578 250.045 70.5522 252.731 Q73.7466 255.416 73.7466 259.906 Q73.7466 262.036 72.9365 263.957 Q72.1494 265.856 70.0429 268.448 Q69.4642 269.119 66.3624 272.337 Q63.2606 275.531 57.6125 281.295 Z" fill="#000000" fill-rule="nonzero" fill-opacity="1" /><path clip-path="url(#clip500)" d="M83.7929 250.67 L102.149 250.67 L102.149 254.606 L88.0753 254.606 L88.0753 263.078 Q89.0938 262.731 90.1123 262.569 Q91.1308 262.383 92.1493 262.383 Q97.9363 262.383 101.316 265.555 Q104.696 268.726 104.696 274.143 Q104.696 279.721 101.223 282.823 Q97.7511 285.902 91.4317 285.902 Q89.2558 285.902 86.9873 285.531 Q84.7419 285.161 82.3346 284.42 L82.3346 279.721 Q84.4179 280.855 86.6401 281.411 Q88.8623 281.967 91.3391 281.967 Q95.3437 281.967 97.6817 279.86 Q100.02 277.754 100.02 274.143 Q100.02 270.531 97.6817 268.425 Q95.3437 266.318 91.3391 266.318 Q89.4641 266.318 87.5892 266.735 Q85.7373 267.152 83.7929 268.031 L83.7929 250.67 Z" fill="#000000" fill-rule="nonzero" fill-opacity="1" /><polyline clip-path="url(#clip502)" style="stroke:#009af9; stroke-linecap:round; stroke-linejoin:round; stroke-width:4; stroke-opacity:1; fill:none" points="203.301,1357.35 204.344,1358.07 205.388,1289.59 206.431,1290.43 207.475,1238.45 208.518,1239.07 209.562,1445.16 210.605,1445.72 211.648,1160.78 212.692,1161.7 213.735,1243.68 214.779,1244.51 215.822,1268.58 216.866,1269.65 217.909,1385.07 218.952,1385.58 219.996,1171.33 221.039,1172.41 222.083,954.048 223.126,955.473 224.17,1353.27 225.213,1353.71 226.256,1160.84 227.3,1161.94 228.343,1250.77 229.387,1251.61 230.43,1276.99 231.473,1277.92 232.517,1318.96 233.56,1319.71 234.604,1103.15 235.647,1104.14 236.691,1290.7 237.734,1291.29 238.777,1170.96 239.821,1172.1 240.864,1034.09 241.908,1035.3 242.951,1180.17 243.995,1181.15 245.038,994.841 246.081,996.299 247.125,1124.36 248.168,1125.36 249.212,1178.73 250.255,1179.49 251.299,933.75 252.342,935.837 253.385,1037.75 254.429,1038.82 255.472,988.081 256.516,989.412 257.559,1048.19 258.603,1049.49 259.646,1120.33 260.689,1121.32 261.733,1138.27 262.776,1139.23 263.82,1151.54 264.863,1152.52 265.907,1039.33 266.95,1040.5 267.993,1045.31 269.037,1046.11 270.08,1102.9 271.124,1103.79 272.167,925.642 273.21,926.749 274.254,770.397 275.297,772.323 276.341,918.013 277.384,919.822 278.428,1172.48 279.471,1173.44 280.514,994.922 281.558,996.659 282.601,1021.48 283.645,1022.5 284.688,868.815 285.732,870.469 286.775,831.835 287.818,833.141 288.862,931.832 289.905,933.127 290.949,906.72 291.992,908.026 293.036,731.341 294.079,732.95 295.122,963.731 296.166,964.682 297.209,888.794 298.253,890.142 299.296,851.607 300.34,853.005 301.383,796.329 302.426,797.875 303.47,915.553 304.513,916.78 305.557,906.216 306.6,907.552 307.643,959.627 308.687,960.819 309.73,912.199 310.774,913.471 311.817,886.796 312.861,887.801 313.904,763.627 314.947,765.502 315.991,653.926 317.034,655.683 318.078,707.347 319.121,708.89 320.165,917.12 321.208,918.255 322.251,880.93 323.295,881.869 324.338,907.923 325.382,908.619 326.425,618.6 327.469,620.082 328.512,856.292 329.555,857.728 330.599,781.613 331.642,782.628 332.686,649.512 333.729,650.807 334.773,887.068 335.816,888.332 336.859,850.293 337.903,851.641 338.946,783.086 339.99,784.46 341.033,907.2 342.077,908.283 343.12,704.841 344.163,706.181 345.207,836.007 346.25,837.042 347.294,853.062 348.337,853.865 349.38,695.031 350.424,696.093 351.467,611.619 352.511,613.058 353.554,636.771 354.598,638.252 355.641,509.899 356.684,511.183 357.728,809.001 358.771,810.327 359.815,783.617 360.858,784.77 361.902,762.775 362.945,763.506 363.988,697.955 365.032,698.923 366.075,728.793 367.119,729.975 368.162,723.884 369.206,724.996 370.249,711.618 371.292,712.702 372.336,877.867 373.379,878.751 374.423,528.647 375.466,529.771 376.51,584.213 377.553,585.549 378.596,746.255 379.64,747.148 380.683,540.504 381.727,541.43 382.77,743.638 383.813,744.499 384.857,787.493 385.9,788.068 386.944,616.813 387.987,617.655 389.031,719.922 390.074,720.706 391.117,499 392.161,499.896 393.204,599.663 394.248,600.481 395.291,642.187 396.335,642.943 397.378,536.55 398.421,537.421 399.465,569.365 400.508,570.208 401.552,534.175 402.595,535.053 403.639,597.615 404.682,598.467 405.725,486.23 406.769,487.016 407.812,711.353 408.856,711.997 409.899,683.878 410.943,684.95 411.986,676.222 413.029,676.97 414.073,508.546 415.116,509.177 416.16,619.287 417.203,620.112 418.247,552.387 419.29,553.193 420.333,473.99 421.377,474.64 422.42,318.252 423.464,319.223 424.507,492.587 425.55,493.342 426.594,528.646 427.637,529.326 428.681,400.771 429.724,401.614 430.768,444.298 431.811,445.015 432.854,614.243 433.898,614.84 434.941,511.394 435.985,512.086 437.028,493.36 438.072,494.144 439.115,697.56 440.158,698.275 441.202,405.283 442.245,406.082 443.289,519.692 444.332,520.55 445.376,515.662 446.419,516.447 447.462,311.498 448.506,312.486 449.549,489.962 450.593,490.558 451.636,569.503 452.68,570.197 453.723,551.584 454.766,552.107 455.81,556.863 456.853,557.861 457.897,452.144 458.94,452.766 459.984,401.066 461.027,401.633 462.07,592.013 463.114,592.719 464.157,668.207 465.201,668.712 466.244,422.893 467.287,423.823 468.331,476.447 469.374,477.07 470.418,611.196 471.461,612.091 472.505,519.463 473.548,519.847 474.591,424.188 475.635,424.672 476.678,442.163 477.722,442.877 478.765,434.492 479.809,435.259 480.852,488.176 481.895,488.756 482.939,519.955 483.982,520.748 485.026,645.944 486.069,646.707 487.113,409.713 488.156,410.386 489.199,368.751 490.243,370.07 491.286,607.252 492.33,608.194 493.373,538.254 494.417,539.058 495.46,505.141 496.503,505.836 497.547,469.413 498.59,470.088 499.634,519.159 500.677,519.82 501.72,563.832 502.764,564.734 503.807,437.62 504.851,438.292 505.894,515.648 506.938,516.191 507.981,513.858 509.024,514.44 510.068,558.763 511.111,559.176 512.155,542.865 513.198,544.06 514.242,466.195 515.285,466.68 516.328,237.772 517.372,238.312 518.415,529.015 519.459,529.588 520.502,442.68 521.546,443.552 522.589,502.171 523.632,502.731 524.676,422.427 525.719,423.056 526.763,460.001 527.806,461.127 528.85,522.134 529.893,522.908 530.936,455.122 531.98,455.6 533.023,386.106 534.067,386.578 535.11,536.795 536.154,537.292 537.197,570.514 538.24,570.979 539.284,488.386 540.327,488.698 541.371,348.781 542.414,349.155 543.457,476.137 544.501,476.496 545.544,530.138 546.588,530.976 547.631,382.306 548.675,382.805 549.718,501.137 550.761,501.582 551.805,440.896 552.848,441.596 553.892,446.709 554.935,447.247 555.979,443.206 557.022,443.551 558.065,486.278 559.109,486.668 560.152,463.31 561.196,464.258 562.239,349.945 563.283,350.645 564.326,516.721 565.369,517.36 566.413,476.968 567.456,477.569 568.5,576.222 569.543,576.527 570.587,431.113 571.63,431.643 572.673,448.163 573.717,448.578 574.76,372.035 575.804,372.522 576.847,436.848 577.89,437.668 578.934,377.951 579.977,378.648 581.021,489.17 582.064,489.437 583.108,384.662 584.151,385.242 585.194,445.999 586.238,446.516 587.281,448.285 588.325,448.637 589.368,449.311 590.412,449.891 591.455,391.79 592.498,392.311 593.542,380.723 594.585,381.063 595.629,606.589 596.672,606.995 597.716,351.026 598.759,351.531 599.802,407.107 600.846,407.345 601.889,462.731 602.933,463.33 603.976,475.567 605.02,476.026 606.063,468.6 607.106,469.335 608.15,484.164 609.193,485.048 610.237,442.628 611.28,443.07 612.324,470.929 613.367,471.353 614.41,493.203 615.454,493.607 616.497,438.372 617.541,438.8 618.584,455.699 619.627,455.989 620.671,327.382 621.714,327.784 622.758,400.047 623.801,400.412 624.845,424.982 625.888,425.64 626.931,467.402 627.975,467.839 629.018,348.674 630.062,348.992 631.105,444.477 632.149,444.96 633.192,308.001 634.235,308.929 635.279,481.242 636.322,481.755 637.366,363.623 638.409,363.902 639.453,490.864 640.496,491.191 641.539,429.482 642.583,429.983 643.626,394.761 644.67,395.197 645.713,299.645 646.757,300.146 647.8,484.636 648.843,484.906 649.887,379.197 650.93,379.678 651.974,371.901 653.017,372.726 654.06,405.096 655.104,405.551 656.147,480.056 657.191,480.589 658.234,441.539 659.278,441.96 660.321,378.785 661.364,379.2 662.408,480.79 663.451,481.397 664.495,458.183 665.538,458.418 666.582,335.188 667.625,335.719 668.668,362.841 669.712,363.659 670.755,423.375 671.799,423.689 672.842,346.663 673.886,347.407 674.929,404.88 675.972,405.532 677.016,504.628 678.059,504.849 679.103,334.515 680.146,335 681.19,437.564 682.233,437.833 683.276,373.649 684.32,374.03 685.363,384.524 686.407,384.873 687.45,361.318 688.494,362.16 689.537,404.608 690.58,405.403 691.624,491.254 692.667,491.955 693.711,427.72 694.754,428.137 695.797,244.853 696.841,245.448 697.884,329.452 698.928,330.249 699.971,492.957 701.015,493.26 702.058,392.951 703.101,393.425 704.145,406.096 705.188,406.892 706.232,243.781 707.275,244.189 708.319,469.328 709.362,469.704 710.405,386.028 711.449,386.55 712.492,308.809 713.536,309.051 714.579,421.536 715.623,422.017 716.666,386.617 717.709,387.089 718.753,396.609 719.796,396.911 720.84,395.503 721.883,395.98 722.927,393.417 723.97,393.724 725.013,456.613 726.057,457.24 727.1,324.07 728.144,324.684 729.187,386.761 730.23,387.51 731.274,433.282 732.317,433.586 733.361,366.104 734.404,366.401 735.448,491.564 736.491,492.118 737.534,413.972 738.578,414.224 739.621,387.995 740.665,388.311 741.708,458.501 742.752,458.823 743.795,342.831 744.838,343.209 745.882,371.716 746.925,372.085 747.969,250.202 749.012,250.469 750.056,430.001 751.099,430.334 752.142,270.269 753.186,270.56 754.229,385.319 755.273,385.659 756.316,405.419 757.36,405.704 758.403,465.583 759.446,466.228 760.49,483.303 761.533,483.604 762.577,383.47 763.62,384.089 764.664,482.09 765.707,482.441 766.75,372.551 767.794,372.973 768.837,428.569 769.881,428.718 770.924,450.681 771.967,451.098 773.011,363.29 774.054,363.618 775.098,421.168 776.141,421.688 777.185,328.629 778.228,328.972 779.271,412.862 780.315,413.296 781.358,435.522 782.402,436.103 783.445,396.225 784.489,396.566 785.532,334.793 786.575,335.547 787.619,286.416 788.662,286.964 789.706,422.185 790.749,422.53 791.793,398.383 792.836,398.998 793.879,378.116 794.923,378.257 795.966,295.575 797.01,296.044 798.053,295.386 799.097,295.53 800.14,304.42 801.183,304.911 802.227,483.788 803.27,484.403 804.314,431.322 805.357,431.507 806.401,425.782 807.444,425.917 808.487,468.08 809.531,468.631 810.574,416.408 811.618,416.76 812.661,417.02 813.704,417.37 814.748,388.121 815.791,388.55 816.835,436.376 817.878,437.285 818.922,349.728 819.965,350.065 821.008,415.561 822.052,415.939 823.095,400.111 824.139,400.404 825.182,358.401 826.226,358.877 827.269,356.297 828.312,356.821 829.356,400.559 830.399,400.985 831.443,413.287 832.486,413.723 833.53,427.299 834.573,427.47 835.616,400.436 836.66,401.047 837.703,377.889 838.747,378.649 839.79,415.047 840.834,415.486 841.877,399.907 842.92,400.434 843.964,448.633 845.007,448.843 846.051,290.129 847.094,290.477 848.137,393.142 849.181,393.751 850.224,463.888 851.268,464.138 852.311,410.09 853.355,411.164 854.398,432.17 855.441,432.552 856.485,322.706 857.528,323.069 858.572,405.899 859.615,406.381 860.659,378.48 861.702,378.857 862.745,294.765 863.789,295.021 864.832,399.1 865.876,399.595 866.919,382.477 867.963,383.121 869.006,395.43 870.049,396.029 871.093,420.721 872.136,421.23 873.18,441.363 874.223,441.911 875.267,396.582 876.31,397.123 877.353,369.554 878.397,370.222 879.44,491.996 880.484,492.37 881.527,433.427 882.571,434.054 883.614,289.959 884.657,290.197 885.701,361.402 886.744,361.708 887.788,330.46 888.831,330.877 889.874,462.673 890.918,463.013 891.961,448.047 893.005,448.534 894.048,398.845 895.092,399.261 896.135,407.966 897.178,408.274 898.222,87.9763 899.265,88.8236 900.309,293.023 901.352,293.621 902.396,352.803 903.439,353.137 904.482,284.346 905.526,284.795 906.569,369.391 907.613,369.826 908.656,380.482 909.7,380.697 910.743,432.52 911.786,432.871 912.83,336.13 913.873,336.502 914.917,365.2 915.96,365.68 917.004,334.537 918.047,334.752 919.09,282.138 920.134,282.505 921.177,333.416 922.221,334.28 923.264,415.463 924.307,415.577 925.351,392.048 926.394,392.307 927.438,370.35 928.481,371.019 929.525,422.469 930.568,422.803 931.611,330.691 932.655,331.086 933.698,331.644 934.742,332.053 935.785,320.591 936.829,320.787 937.872,372.216 938.915,372.975 939.959,336.824 941.002,337.403 942.046,419.117 943.089,419.341 944.133,420.622 945.176,420.98 946.219,226.335 947.263,226.823 948.306,397.283 949.35,397.7 950.393,344.577 951.437,344.972 952.48,441.028 953.523,441.173 954.567,252.265 955.61,252.549 956.654,273.447 957.697,273.636 958.741,353.388 959.784,353.737 960.827,383.745 961.871,384.402 962.914,367.624 963.958,368.076 965.001,374.463 966.044,374.952 967.088,432.761 968.131,432.89 969.175,430.186 970.218,430.746 971.262,339.936 972.305,340.194 973.348,383.811 974.392,384.349 975.435,410.291 976.479,410.533 977.522,284.406 978.566,284.683 979.609,303.271 980.652,303.744 981.696,342.578 982.739,342.972 983.783,370.765 984.826,370.933 985.87,287.256 986.913,287.778 987.956,338.316 989,338.635 990.043,430.063 991.087,430.53 992.13,310.703 993.174,311.237 994.217,368.429 995.26,368.756 996.304,367.266 997.347,367.787 998.391,396.206 999.434,396.38 1000.48,453.351 1001.52,453.647 1002.56,319.635 1003.61,320.061 1004.65,381.428 1005.69,381.876 1006.74,290.439 1007.78,290.908 1008.82,358.643 1009.87,358.945 1010.91,293.41 1011.96,294.058 1013,393.241 1014.04,393.775 1015.09,351.766 1016.13,352.193 1017.17,375.975 1018.22,376.351 1019.26,322.099 1020.3,322.383 1021.35,330.615 1022.39,331.6 1023.43,382.312 1024.48,382.974 1025.52,359.358 1026.56,359.936 1027.61,363.234 1028.65,363.589 1029.69,423.282 1030.74,424.142 1031.78,223.485 1032.82,223.917 1033.87,404.041 1034.91,404.486 1035.95,322.887 1037,323.234 1038.04,370.083 1039.08,370.505 1040.13,394.832 1041.17,395.156 1042.21,356.163 1043.26,356.503 1044.3,363.544 1045.34,363.676 1046.39,358.132 1047.43,358.629 1048.48,374.267 1049.52,374.89 1050.56,323.73 1051.61,324.066 1052.65,393.095 1053.69,393.492 1054.74,416.469 1055.78,416.649 1056.82,365.669 1057.87,365.775 1058.91,272.048 1059.95,272.987 1061,381.329 1062.04,381.666 1063.08,385.073 1064.13,385.484 1065.17,299.721 1066.21,300.167 1067.26,353.605 1068.3,353.803 1069.34,407.544 1070.39,407.932 1071.43,297.712 1072.47,298.189 1073.52,343.137 1074.56,343.498 1075.6,354.177 1076.65,354.445 1077.69,377.101 1078.73,377.5 1079.78,405.282 1080.82,405.453 1081.86,291.018 1082.91,291.547 1083.95,356.738 1084.99,357.446 1086.04,339.403 1087.08,339.725 1088.13,377.789 1089.17,378.32 1090.21,327.884 1091.26,328.243 1092.3,385.176 1093.34,385.618 1094.39,278.718 1095.43,279.047 1096.47,317.754 1097.52,318.657 1098.56,380.827 1099.6,381.404 1100.65,384.116 1101.69,384.211 1102.73,420.506 1103.78,420.661 1104.82,383.746 1105.86,384.116 1106.91,298.31 1107.95,298.617 1108.99,147.591 1110.04,148.014 1111.08,355.837 1112.12,356.044 1113.17,374.228 1114.21,374.672 1115.25,404.396 1116.3,404.866 1117.34,385.286 1118.38,385.707 1119.43,358.79 1120.47,359.23 1121.51,383.002 1122.56,383.333 1123.6,354.285 1124.65,354.682 1125.69,409.657 1126.73,410.038 1127.78,372.406 1128.82,372.562 1129.86,330.405 1130.91,330.83 1131.95,355.686 1132.99,356.035 1134.04,311.607 1135.08,312.043 1136.12,371.633 1137.17,372.55 1138.21,368.235 1139.25,368.702 1140.3,380.357 1141.34,380.826 1142.38,378.906 1143.43,379.216 1144.47,344.433 1145.51,344.797 1146.56,399.307 1147.6,399.63 1148.64,341.096 1149.69,341.345 1150.73,419.509 1151.77,419.966 1152.82,364.957 1153.86,365.429 1154.9,328.816 1155.95,329.181 1156.99,302.383 1158.03,302.801 1159.08,403.337 1160.12,403.567 1161.16,360.489 1162.21,360.608 1163.25,400.04 1164.3,400.466 1165.34,367.363 1166.38,368.095 1167.43,419.798 1168.47,420.441 1169.51,383.632 1170.56,383.947 1171.6,322.805 1172.64,323.108 1173.69,348.852 1174.73,349.5 1175.77,342.983 1176.82,343.416 1177.86,392.387 1178.9,392.834 1179.95,360.488 1180.99,360.983 1182.03,314.008 1183.08,314.294 1184.12,289.383 1185.16,289.741 1186.21,272.682 1187.25,273.023 1188.29,361.988 1189.34,362.452 1190.38,400.555 1191.42,400.752 1192.47,369.084 1193.51,369.335 1194.55,414.667 1195.6,414.907 1196.64,412.155 1197.68,412.471 1198.73,385.14 1199.77,385.363 1200.82,289.347 1201.86,290.313 1202.9,314.748 1203.95,315.366 1204.99,371.625 1206.03,372.013 1207.08,383.783 1208.12,384.22 1209.16,395.488 1210.21,396.032 1211.25,353.217 1212.29,353.61 1213.34,335.034 1214.38,335.491 1215.42,328.074 1216.47,328.468 1217.51,390.579 1218.55,390.953 1219.6,400.351 1220.64,400.869 1221.68,330.576 1222.73,330.931 1223.77,334.916 1224.81,335.903 1225.86,212.552 1226.9,212.755 1227.94,409.102 1228.99,409.737 1230.03,344.331 1231.07,344.57 1232.12,395.713 1233.16,396.353 1234.2,372.708 1235.25,373.041 1236.29,349.198 1237.33,349.547 1238.38,371.101 1239.42,371.262 1240.47,426.043 1241.51,426.403 1242.55,346.97 1243.6,347.817 1244.64,374.996 1245.68,375.247 1246.73,372.22 1247.77,372.526 1248.81,371.479 1249.86,371.96 1250.9,362.194 1251.94,362.572 1252.99,346.133 1254.03,346.253 1255.07,292.122 1256.12,292.476 1257.16,349.253 1258.2,349.512 1259.25,341.145 1260.29,341.583 1261.33,301.045 1262.38,301.491 1263.42,278.405 1264.46,278.892 1265.51,365.771 1266.55,366.289 1267.59,404.835 1268.64,405.087 1269.68,421.585 1270.72,421.802 1271.77,404.524 1272.81,404.884 1273.85,337.09 1274.9,337.549 1275.94,289.163 1276.99,290.013 1278.03,310.571 1279.07,310.815 1280.12,347.843 1281.16,348.243 1282.2,253.084 1283.25,253.402 1284.29,397.462 1285.33,397.823 1286.38,383.161 1287.42,383.628 1288.46,399.948 1289.51,400.213 1290.55,378.886 1291.59,379.212 1292.64,307.88 1293.68,308.212 1294.72,405.166 1295.77,405.566 1296.81,327.529 1297.85,327.871 1298.9,364.345 1299.94,365.062 1300.98,323.898 1302.03,324.202 1303.07,358.191 1304.11,358.564 1305.16,380.872 1306.2,381.206 1307.24,357.645 1308.29,357.899 1309.33,395.066 1310.37,395.375 1311.42,406.212 1312.46,406.515 1313.5,347.82 1314.55,348.026 1315.59,367.298 1316.64,367.606 1317.68,412.789 1318.72,413.281 1319.77,323.88 1320.81,324.378 1321.85,396.827 1322.9,397.15 1323.94,410.846 1324.98,411.387 1326.03,411.25 1327.07,411.387 1328.11,386.574 1329.16,386.999 1330.2,428.927 1331.24,429.221 1332.29,350.723 1333.33,351.521 1334.37,346.231 1335.42,346.444 1336.46,366.63 1337.5,366.885 1338.55,394.256 1339.59,394.61 1340.63,364.101 1341.68,364.41 1342.72,369.692 1343.76,370.086 1344.81,318.244 1345.85,318.68 1346.89,335.744 1347.94,336.575 1348.98,408.289 1350.02,408.772 1351.07,363.215 1352.11,364.403 1353.16,352.006 1354.2,352.622 1355.24,338.258 1356.29,338.492 1357.33,393.41 1358.37,393.673 1359.42,365.378 1360.46,365.708 1361.5,375.912 1362.55,376.331 1363.59,212.443 1364.63,212.8 1365.68,373.059 1366.72,373.296 1367.76,315.734 1368.81,315.91 1369.85,340.843 1370.89,341.438 1371.94,399.645 1372.98,399.87 1374.02,402.722 1375.07,402.867 1376.11,302.697 1377.15,303.414 1378.2,393.404 1379.24,393.633 1380.28,380.995 1381.33,381.435 1382.37,340.053 1383.41,340.578 1384.46,332.504 1385.5,332.797 1386.54,390.742 1387.59,390.965 1388.63,332.072 1389.67,332.301 1390.72,292.068 1391.76,292.455 1392.81,349.381 1393.85,349.828 1394.89,255.51 1395.94,255.923 1396.98,326.551 1398.02,326.779 1399.07,356.883 1400.11,357.246 1401.15,368.686 1402.2,369.075 1403.24,404.625 1404.28,404.814 1405.33,334.342 1406.37,334.528 1407.41,344.263 1408.46,344.446 1409.5,407.323 1410.54,407.888 1411.59,387.386 1412.63,387.48 1413.67,372.203 1414.72,372.933 1415.76,284.172 1416.8,284.713 1417.85,359.672 1418.89,359.987 1419.93,376.034 1420.98,376.153 1422.02,378.707 1423.06,379.21 1424.11,386.224 1425.15,387.082 1426.19,357.953 1427.24,358.473 1428.28,320.511 1429.33,321.011 1430.37,365.478 1431.41,365.776 1432.46,252.006 1433.5,252.332 1434.54,393.006 1435.59,393.242 1436.63,335.166 1437.67,335.775 1438.72,397.067 1439.76,397.242 1440.8,359.163 1441.85,359.523 1442.89,415.577 1443.93,415.838 1444.98,317.123 1446.02,317.474 1447.06,393.824 1448.11,394.185 1449.15,379.636 1450.19,379.913 1451.24,328.127 1452.28,329.031 1453.32,388.66 1454.37,389.003 1455.41,453.668 1456.45,453.797 1457.5,328.085 1458.54,328.769 1459.58,343.834 1460.63,344.554 1461.67,394.009 1462.71,394.311 1463.76,348.798 1464.8,349.075 1465.84,421.356 1466.89,421.586 1467.93,340.035 1468.98,340.336 1470.02,318.678 1471.06,318.938 1472.11,340.462 1473.15,340.912 1474.19,321.262 1475.24,321.579 1476.28,399.187 1477.32,399.684 1478.37,263.8 1479.41,264.148 1480.45,324.219 1481.5,324.511 1482.54,398.178 1483.58,398.344 1484.63,342.156 1485.67,342.318 1486.71,308.181 1487.76,308.939 1488.8,393.119 1489.84,393.257 1490.89,362.749 1491.93,362.955 1492.97,342.946 1494.02,343.464 1495.06,354.061 1496.1,354.26 1497.15,408.577 1498.19,408.888 1499.23,364.115 1500.28,364.744 1501.32,282.93 1502.36,283.297 1503.41,390.558 1504.45,391.235 1505.5,357.994 1506.54,358.319 1507.58,391.045 1508.63,391.545 1509.67,409.24 1510.71,409.416 1511.76,344.782 1512.8,345.318 1513.84,327.942 1514.89,328.048 1515.93,378.911 1516.97,379.118 1518.02,391.202 1519.06,391.244 1520.1,259.915 1521.15,260.524 1522.19,378.113 1523.23,378.668 1524.28,388.712 1525.32,389.303 1526.36,384.25 1527.41,384.576 1528.45,334.133 1529.49,334.308 1530.54,330.176 1531.58,330.557 1532.62,363.726 1533.67,364.432 1534.71,384.614 1535.75,384.878 1536.8,410.844 1537.84,411.172 1538.88,409.965 1539.93,410.137 1540.97,306.005 1542.01,306.241 1543.06,162.593 1544.1,163.247 1545.15,376.601 1546.19,376.694 1547.23,341.984 1548.28,342.053 1549.32,369.512 1550.36,369.785 1551.41,365.265 1552.45,365.61 1553.49,329.432 1554.54,329.739 1555.58,410.263 1556.62,410.644 1557.67,364.574 1558.71,364.719 1559.75,402.78 1560.8,402.952 1561.84,408.823 1562.88,408.921 1563.93,361.378 1564.97,361.676 1566.01,369.284 1567.06,369.654 1568.1,394.52 1569.14,395.082 1570.19,259.204 1571.23,259.823 1572.27,370.514 1573.32,370.671 1574.36,211.23 1575.4,211.542 1576.45,406.051 1577.49,406.285 1578.53,353.371 1579.58,353.96 1580.62,203.301 1581.67,203.85 1582.71,397.455 1583.75,397.895 1584.8,413.047 1585.84,413.282 1586.88,253.128 1587.93,253.603 1588.97,382.98 1590.01,383.387 1591.06,375.658 1592.1,375.922 1593.14,378.391 1594.19,378.909 1595.23,256.824 1596.27,257.183 1597.32,379.391 1598.36,379.761 1599.4,305.639 1600.45,306.293 1601.49,276.615 1602.53,276.882 1603.58,251.34 1604.62,251.714 1605.66,340.581 1606.71,340.899 1607.75,329.118 1608.79,329.4 1609.84,307.125 1610.88,307.655 1611.92,352.717 1612.97,353.192 1614.01,308.682 1615.05,309.093 1616.1,361.858 1617.14,362.296 1618.18,328.452 1619.23,328.702 1620.27,386.533 1621.32,386.67 1622.36,380.705 1623.4,381.031 1624.45,369.625 1625.49,370.157 1626.53,334.353 1627.58,334.566 1628.62,329.738 1629.66,330.098 1630.71,341.517 1631.75,342.087 1632.79,398.252 1633.84,398.341 1634.88,338.462 1635.92,338.654 1636.97,407.995 1638.01,408.235 1639.05,341.313 1640.1,341.937 1641.14,365.705 1642.18,365.884 1643.23,428.698 1644.27,429.341 1645.31,417.154 1646.36,417.467 1647.4,247.364 1648.44,247.687 1649.49,325.715 1650.53,325.903 1651.57,379.298 1652.62,379.984 1653.66,278.75 1654.7,279.03 1655.75,378.209 1656.79,378.844 1657.84,410.939 1658.88,411.243 1659.92,316.848 1660.97,317.207 1662.01,369.893 1663.05,370.388 1664.1,356.163 1665.14,356.255 1666.18,374.32 1667.23,374.574 1668.27,322.797 1669.31,323.414 1670.36,295.629 1671.4,295.881 1672.44,396.106 1673.49,396.402 1674.53,318.887 1675.57,319.215 1676.62,316.526 1677.66,316.748 1678.7,402.529 1679.75,402.737 1680.79,380.027 1681.83,380.189 1682.88,312.302 1683.92,312.374 1684.96,382.693 1686.01,383.212 1687.05,341.035 1688.09,341.644 1689.14,375.859 1690.18,376.037 1691.22,353.955 1692.27,354.389 1693.31,367.571 1694.35,368.018 1695.4,404.162 1696.44,404.597 1697.49,222.449 1698.53,222.877 1699.57,368.552 1700.62,368.956 1701.66,355.203 1702.7,355.512 1703.75,414.143 1704.79,414.469 1705.83,349.307 1706.88,349.602 1707.92,373.369 1708.96,373.606 1710.01,377.614 1711.05,378.111 1712.09,380.548 1713.14,381.072 1714.18,345.75 1715.22,345.938 1716.27,287.331 1717.31,287.67 1718.35,356.767 1719.4,357.278 1720.44,293.136 1721.48,293.66 1722.53,301.257 1723.57,301.767 1724.61,374.776 1725.66,375.912 1726.7,353.83 1727.74,354.05 1728.79,386.37 1729.83,387.099 1730.87,385.655 1731.92,386.486 1732.96,367.356 1734.01,367.701 1735.05,323.283 1736.09,323.534 1737.14,374.137 1738.18,374.543 1739.22,385.365 1740.27,385.657 1741.31,384.657 1742.35,384.927 1743.4,350.924 1744.44,351.831 1745.48,378.133 1746.53,378.549 1747.57,275.275 1748.61,275.755 1749.66,391.544 1750.7,391.778 1751.74,380.68 1752.79,381.014 1753.83,389.133 1754.87,389.54 1755.92,380.468 1756.96,381.054 1758,340.249 1759.05,340.529 1760.09,373.521 1761.13,373.85 1762.18,369.502 1763.22,370.099 1764.26,361.233 1765.31,361.614 1766.35,352.054 1767.39,352.389 1768.44,295.312 1769.48,295.705 1770.52,259.688 1771.57,260.17 1772.61,312.096 1773.66,312.364 1774.7,413.491 1775.74,413.9 1776.79,217.373 1777.83,217.949 1778.87,391.094 1779.92,391.326 1780.96,365.242 1782,365.477 1783.05,310.537 1784.09,310.874 1785.13,294.282 1786.18,294.749 1787.22,387.814 1788.26,388.233 1789.31,345.046 1790.35,345.447 1791.39,338.204 1792.44,338.845 1793.48,376.454 1794.52,376.642 1795.57,388.458 1796.61,388.809 1797.65,333.339 1798.7,333.496 1799.74,382.597 1800.78,382.944 1801.83,372.726 1802.87,373.132 1803.91,322.163 1804.96,322.475 1806,313.715 1807.04,313.943 1808.09,350.896 1809.13,351.14 1810.18,307.194 1811.22,307.249 1812.26,308.266 1813.31,309.038 1814.35,359.381 1815.39,359.757 1816.44,369.81 1817.48,370.06 1818.52,310.279 1819.57,310.977 1820.61,311.649 1821.65,311.875 1822.7,311.401 1823.74,311.685 1824.78,405.978 1825.83,406.538 1826.87,410.323 1827.91,410.556 1828.96,317.6 1830,317.98 1831.04,380.665 1832.09,380.921 1833.13,364.744 1834.17,365.061 1835.22,365.583 1836.26,366.134 1837.3,421.822 1838.35,422.354 1839.39,370.767 1840.43,371.202 1841.48,366.122 1842.52,366.271 1843.56,350.969 1844.61,351.248 1845.65,404.516 1846.69,405.009 1847.74,297.552 1848.78,297.726 1849.83,364.624 1850.87,365.12 1851.91,331.721 1852.96,331.996 1854,310.861 1855.04,311.468 1856.09,390.82 1857.13,390.984 1858.17,308.519 1859.22,308.97 1860.26,341.506 1861.3,341.646 1862.35,270.852 1863.39,271.538 1864.43,301.776 1865.48,302.265 1866.52,258.256 1867.56,258.78 1868.61,231.526 1869.65,231.773 1870.69,357.88 1871.74,358.234 1872.78,312.244 1873.82,312.847 1874.87,367.526 1875.91,368.162 1876.95,374.044 1878,374.192 1879.04,364.741 1880.08,364.981 1881.13,398.176 1882.17,398.399 1883.21,306.81 1884.26,307.11 1885.3,360.137 1886.35,360.589 1887.39,278.62 1888.43,279.151 1889.48,232.423 1890.52,233.615 1891.56,308.538 1892.61,308.933 1893.65,355.722 1894.69,355.958 1895.74,359.254 1896.78,359.368 1897.82,351.673 1898.87,352.233 1899.91,376.84 1900.95,377.136 1902,271.539 1903.04,271.915 1904.08,375.469 1905.13,375.664 1906.17,305.005 1907.21,305.512 1908.26,318.243 1909.3,319.077 1910.34,392.749 1911.39,392.897 1912.43,365.183 1913.47,365.44 1914.52,362.104 1915.56,362.562 1916.6,406.158 1917.65,406.275 1918.69,309.555 1919.73,310.144 1920.78,246.227 1921.82,246.807 1922.86,372.927 1923.91,373.361 1924.95,367.72 1926,368.125 1927.04,394.409 1928.08,394.673 1929.13,396.308 1930.17,397.138 1931.21,315.837 1932.26,315.92 1933.3,394.131 1934.34,394.317 1935.39,254.848 1936.43,255.83 1937.47,351.586 1938.52,351.855 1939.56,261.15 1940.6,261.451 1941.65,277.197 1942.69,277.982 1943.73,401.086 1944.78,401.483 1945.82,235.407 1946.86,235.927 1947.91,297.08 1948.95,297.41 1949.99,383.223 1951.04,383.527 1952.08,293.768 1953.12,294.541 1954.17,274.622 1955.21,274.92 1956.25,399.019 1957.3,399.204 1958.34,303.516 1959.38,303.894 1960.43,372.013 1961.47,372.416 1962.52,367.698 1963.56,368.289 1964.6,378.477 1965.65,378.879 1966.69,354.365 1967.73,354.497 1968.78,312.832 1969.82,313.366 1970.86,389.768 1971.91,389.933 1972.95,368.379 1973.99,368.795 1975.04,282.179 1976.08,282.362 1977.12,393.207 1978.17,393.729 1979.21,358.229 1980.25,358.726 1981.3,359.029 1982.34,359.486 1983.38,364.009 1984.43,364.283 1985.47,320.387 1986.51,320.78 1987.56,266.999 1988.6,267.654 1989.64,374.791 1990.69,374.949 1991.73,373.477 1992.77,374.184 1993.82,374.866 1994.86,375.201 1995.9,354.55 1996.95,355.032 1997.99,395.707 1999.03,396.163 2000.08,353.672 2001.12,353.992 2002.17,336.61 2003.21,336.923 2004.25,312.876 2005.3,313.104 2006.34,359.397 2007.38,359.604 2008.43,378.133 2009.47,378.354 2010.51,379.39 2011.56,379.86 2012.6,350.595 2013.64,350.964 2014.69,320.229 2015.73,320.543 2016.77,361.838 2017.82,362.537 2018.86,291.498 2019.9,292.369 2020.95,369.787 2021.99,370.261 2023.03,356.622 2024.08,356.93 2025.12,340.711 2026.16,341.231 2027.21,372.891 2028.25,373.368 2029.29,376.15 2030.34,376.554 2031.38,284.639 2032.42,284.857 2033.47,389.515 2034.51,390.235 2035.55,353.407 2036.6,354.061 2037.64,325.58 2038.69,325.999 2039.73,368.282 2040.77,368.734 2041.82,366.297 2042.86,366.784 2043.9,247.74 2044.95,248.564 2045.99,384.281 2047.03,384.747 2048.08,377.802 2049.12,377.938 2050.16,261.701 2051.21,262.13 2052.25,313.66 2053.29,314.066 2054.34,371.876 2055.38,372.455 2056.42,372.775 2057.47,373.155 2058.51,307.842 2059.55,308.118 2060.6,353.093 2061.64,353.344 2062.68,379.168 2063.73,379.22 2064.77,389.769 2065.81,390.072 2066.86,362.899 2067.9,363.142 2068.94,371.685 2069.99,372.223 2071.03,314.13 2072.07,314.58 2073.12,310.541 2074.16,311.221 2075.2,290.497 2076.25,291.037 2077.29,379.269 2078.34,379.741 2079.38,380.189 2080.42,380.857 2081.47,313.161 2082.51,313.344 2083.55,245.477 2084.6,246.193 2085.64,366.095 2086.68,366.257 2087.73,324.737 2088.77,325.326 2089.81,342.943 2090.86,343.392 2091.9,254.087 2092.94,254.53 2093.99,319.493 2095.03,319.902 2096.07,381.827 2097.12,382.083 2098.16,360.552 2099.2,360.859 2100.25,330.998 2101.29,331.173 2102.33,408.176 2103.38,408.786 2104.42,309.965 2105.46,310.151 2106.51,410.401 2107.55,410.783 2108.59,310.681 2109.64,311.315 2110.68,277.792 2111.72,278.301 2112.77,366.716 2113.81,366.893 2114.86,382.355 2115.9,382.745 2116.94,341.699 2117.99,342.597 2119.03,379.079 2120.07,379.654 2121.12,375.053 2122.16,375.451 2123.2,369.91 2124.25,370.433 2125.29,307.109 2126.33,307.513 2127.38,196.498 2128.42,197.137 2129.46,375.367 2130.51,375.893 2131.55,346.031 2132.59,346.427 2133.64,273.334 2134.68,273.665 2135.72,375.368 2136.77,375.702 2137.81,305.916 2138.85,306.315 2139.9,363.642 2140.94,363.974 2141.98,368.663 2143.03,368.901 2144.07,370.914 2145.11,371.302 2146.16,354.812 2147.2,355.6 2148.24,291.932 2149.29,292.217 2150.33,306.869 2151.37,307.254 2152.42,366.659 2153.46,367.104 2154.51,362.365 2155.55,362.731 2156.59,311.587 2157.64,312.104 2158.68,376.538 2159.72,376.822 2160.77,346.196 2161.81,347.017 2162.85,343.177 2163.9,343.747 2164.94,372.121 2165.98,372.232 2167.03,315.342 2168.07,315.864 2169.11,307.852 2170.16,308.303 2171.2,342.489 2172.24,342.76 2173.29,390.49 2174.33,390.79 2175.37,362.888 2176.42,363.362 2177.46,339.211 2178.5,339.587 2179.55,297.963 2180.59,298.066 2181.63,303.505 2182.68,303.773 2183.72,366.83 2184.76,367.052 2185.81,364.655 2186.85,364.818 2187.89,237.096 2188.94,237.47 2189.98,358.012 2191.03,358.554 2192.07,392.293 2193.11,392.939 2194.16,298.475 2195.2,298.672 2196.24,378.453 2197.29,378.564 2198.33,319.852 2199.37,320.275 2200.42,367.806 2201.46,368.069 2202.5,307.637 2203.55,308.392 2204.59,357.317 2205.63,357.529 2206.68,367.665 2207.72,367.853 2208.76,391.14 2209.81,391.698 2210.85,307.556 2211.89,307.878 2212.94,349.167 2213.98,349.474 2215.02,376.089 2216.07,376.337 2217.11,413.198 2218.15,413.667 2219.2,365.445 2220.24,365.874 2221.28,271.613 2222.33,271.922 2223.37,398.234 2224.41,398.802 2225.46,350.474 2226.5,351 2227.54,281.561 2228.59,281.688 2229.63,385.311 2230.68,385.454 2231.72,252.676 2232.76,253.199 2233.81,382.489 2234.85,382.744 2235.89,320.733 2236.94,320.959 2237.98,319.522 2239.02,319.808 2240.07,376.124 2241.11,376.52 2242.15,367.847 2243.2,367.998 2244.24,303.206 2245.28,303.469 2246.33,370.548 2247.37,371.147 2248.41,365.599 2249.46,365.943 2250.5,328.463 2251.54,329.211 2252.59,382.17 2253.63,382.579 2254.67,333.003 2255.72,333.295 2256.76,377.894 2257.8,378.426 2258.85,358.709 2259.89,359.478 2260.93,292.693 2261.98,293.426 2263.02,384.252 2264.06,384.446 2265.11,385.864 2266.15,385.973 2267.2,316.684 2268.24,316.971 2269.28,374.031 2270.33,374.143 2271.37,384.842 2272.41,385.216 2273.46,313.754 2274.5,314.074 2275.54,303.46 2276.59,303.907 2277.63,254.267 2278.67,254.93 2279.72,381.173 2280.76,381.685 2281.8,228.926 2282.85,229.043 2283.89,296.444 2284.93,296.597 2285.98,372.769 2287.02,373.05 2288.06,312.079 2289.11,312.504 2290.15,312.901 "/>
<path clip-path="url(#clip500)" d="M2005.38 1438.47 L2279.02 1438.47 L2279.02 1334.79 L2005.38 1334.79  Z" fill="#ffffff" fill-rule="evenodd" fill-opacity="1"/>
<polyline clip-path="url(#clip500)" style="stroke:#000000; stroke-linecap:round; stroke-linejoin:round; stroke-width:4; stroke-opacity:1; fill:none" points="2005.38,1438.47 2279.02,1438.47 2279.02,1334.79 2005.38,1334.79 2005.38,1438.47 "/>
<polyline clip-path="url(#clip500)" style="stroke:#009af9; stroke-linecap:round; stroke-linejoin:round; stroke-width:4; stroke-opacity:1; fill:none" points="2029.96,1386.63 2177.43,1386.63 "/>
<path clip-path="url(#clip500)" d="M2215.85 1406.32 Q2214.05 1410.95 2212.34 1412.36 Q2210.62 1413.78 2207.75 1413.78 L2204.35 1413.78 L2204.35 1410.21 L2206.85 1410.21 Q2208.61 1410.21 2209.58 1409.38 Q2210.55 1408.54 2211.73 1405.44 L2212.5 1403.5 L2202.01 1377.99 L2206.53 1377.99 L2214.63 1398.27 L2222.73 1377.99 L2227.24 1377.99 L2215.85 1406.32 Z" fill="#000000" fill-rule="nonzero" fill-opacity="1" /><path clip-path="url(#clip500)" d="M2234.53 1399.98 L2242.17 1399.98 L2242.17 1373.61 L2233.86 1375.28 L2233.86 1371.02 L2242.13 1369.35 L2246.8 1369.35 L2246.8 1399.98 L2254.44 1399.98 L2254.44 1403.91 L2234.53 1403.91 L2234.53 1399.98 Z" fill="#000000" fill-rule="nonzero" fill-opacity="1" /></svg>
