<?xml version="1.0" encoding="utf-8"?>
<svg xmlns="http://www.w3.org/2000/svg" xmlns:xlink="http://www.w3.org/1999/xlink" width="600" height="400" viewBox="0 0 2400 1600">
<defs>
  <clipPath id="clip910">
    <rect x="0" y="0" width="2400" height="1600"/>
  </clipPath>
</defs>
<path clip-path="url(#clip910)" d="M0 1600 L2400 1600 L2400 0 L0 0  Z" fill="#ffffff" fill-rule="evenodd" fill-opacity="1"/>
<defs>
  <clipPath id="clip911">
    <rect x="480" y="0" width="1681" height="1600"/>
  </clipPath>
</defs>
<path clip-path="url(#clip910)" d="M140.696 1486.45 L2352.76 1486.45 L2352.76 47.2441 L140.696 47.2441  Z" fill="#ffffff" fill-rule="evenodd" fill-opacity="1"/>
<defs>
  <clipPath id="clip912">
    <rect x="140" y="47" width="2213" height="1440"/>
  </clipPath>
</defs>
<polyline clip-path="url(#clip912)" style="stroke:#000000; stroke-linecap:round; stroke-linejoin:round; stroke-width:2; stroke-opacity:0.1; fill:none" points="203.301,1486.45 203.301,47.2441 "/>
<polyline clip-path="url(#clip912)" style="stroke:#000000; stroke-linecap:round; stroke-linejoin:round; stroke-width:2; stroke-opacity:0.1; fill:none" points="725.013,1486.45 725.013,47.2441 "/>
<polyline clip-path="url(#clip912)" style="stroke:#000000; stroke-linecap:round; stroke-linejoin:round; stroke-width:2; stroke-opacity:0.1; fill:none" points="1246.73,1486.45 1246.73,47.2441 "/>
<polyline clip-path="url(#clip912)" style="stroke:#000000; stroke-linecap:round; stroke-linejoin:round; stroke-width:2; stroke-opacity:0.1; fill:none" points="1768.44,1486.45 1768.44,47.2441 "/>
<polyline clip-path="url(#clip912)" style="stroke:#000000; stroke-linecap:round; stroke-linejoin:round; stroke-width:2; stroke-opacity:0.1; fill:none" points="2290.15,1486.45 2290.15,47.2441 "/>
<polyline clip-path="url(#clip910)" style="stroke:#000000; stroke-linecap:round; stroke-linejoin:round; stroke-width:4; stroke-opacity:1; fill:none" points="140.696,1486.45 2352.76,1486.45 "/>
<polyline clip-path="url(#clip910)" style="stroke:#000000; stroke-linecap:round; stroke-linejoin:round; stroke-width:4; stroke-opacity:1; fill:none" points="203.301,1486.45 203.301,1467.55 "/>
<polyline clip-path="url(#clip910)" style="stroke:#000000; stroke-linecap:round; stroke-linejoin:round; stroke-width:4; stroke-opacity:1; fill:none" points="725.013,1486.45 725.013,1467.55 "/>
<polyline clip-path="url(#clip910)" style="stroke:#000000; stroke-linecap:round; stroke-linejoin:round; stroke-width:4; stroke-opacity:1; fill:none" points="1246.73,1486.45 1246.73,1467.55 "/>
<polyline clip-path="url(#clip910)" style="stroke:#000000; stroke-linecap:round; stroke-linejoin:round; stroke-width:4; stroke-opacity:1; fill:none" points="1768.44,1486.45 1768.44,1467.55 "/>
<polyline clip-path="url(#clip910)" style="stroke:#000000; stroke-linecap:round; stroke-linejoin:round; stroke-width:4; stroke-opacity:1; fill:none" points="2290.15,1486.45 2290.15,1467.55 "/>
<path clip-path="url(#clip910)" d="M203.301 1517.37 Q199.69 1517.37 197.861 1520.93 Q196.056 1524.47 196.056 1531.6 Q196.056 1538.71 197.861 1542.27 Q199.69 1545.82 203.301 1545.82 Q206.935 1545.82 208.741 1542.27 Q210.57 1538.71 210.57 1531.6 Q210.57 1524.47 208.741 1520.93 Q206.935 1517.37 203.301 1517.37 M203.301 1513.66 Q209.111 1513.66 212.167 1518.27 Q215.245 1522.85 215.245 1531.6 Q215.245 1540.33 212.167 1544.94 Q209.111 1549.52 203.301 1549.52 Q197.491 1549.52 194.412 1544.94 Q191.357 1540.33 191.357 1531.6 Q191.357 1522.85 194.412 1518.27 Q197.491 1513.66 203.301 1513.66 Z" fill="#000000" fill-rule="nonzero" fill-opacity="1" /><path clip-path="url(#clip910)" d="M684.632 1514.29 L702.988 1514.29 L702.988 1518.22 L688.914 1518.22 L688.914 1526.7 Q689.933 1526.35 690.951 1526.19 Q691.97 1526 692.988 1526 Q698.775 1526 702.155 1529.17 Q705.534 1532.34 705.534 1537.76 Q705.534 1543.34 702.062 1546.44 Q698.59 1549.52 692.27 1549.52 Q690.095 1549.52 687.826 1549.15 Q685.581 1548.78 683.173 1548.04 L683.173 1543.34 Q685.257 1544.47 687.479 1545.03 Q689.701 1545.58 692.178 1545.58 Q696.183 1545.58 698.52 1543.48 Q700.858 1541.37 700.858 1537.76 Q700.858 1534.15 698.52 1532.04 Q696.183 1529.94 692.178 1529.94 Q690.303 1529.94 688.428 1530.35 Q686.576 1530.77 684.632 1531.65 L684.632 1514.29 Z" fill="#000000" fill-rule="nonzero" fill-opacity="1" /><path clip-path="url(#clip910)" d="M724.747 1517.37 Q721.136 1517.37 719.307 1520.93 Q717.502 1524.47 717.502 1531.6 Q717.502 1538.71 719.307 1542.27 Q721.136 1545.82 724.747 1545.82 Q728.381 1545.82 730.187 1542.27 Q732.016 1538.71 732.016 1531.6 Q732.016 1524.47 730.187 1520.93 Q728.381 1517.37 724.747 1517.37 M724.747 1513.66 Q730.557 1513.66 733.613 1518.27 Q736.692 1522.85 736.692 1531.6 Q736.692 1540.33 733.613 1544.94 Q730.557 1549.52 724.747 1549.52 Q718.937 1549.52 715.858 1544.94 Q712.803 1540.33 712.803 1531.6 Q712.803 1522.85 715.858 1518.27 Q718.937 1513.66 724.747 1513.66 Z" fill="#000000" fill-rule="nonzero" fill-opacity="1" /><path clip-path="url(#clip910)" d="M754.909 1517.37 Q751.298 1517.37 749.469 1520.93 Q747.664 1524.47 747.664 1531.6 Q747.664 1538.71 749.469 1542.27 Q751.298 1545.82 754.909 1545.82 Q758.543 1545.82 760.349 1542.27 Q762.178 1538.71 762.178 1531.6 Q762.178 1524.47 760.349 1520.93 Q758.543 1517.37 754.909 1517.37 M754.909 1513.66 Q760.719 1513.66 763.775 1518.27 Q766.853 1522.85 766.853 1531.6 Q766.853 1540.33 763.775 1544.94 Q760.719 1549.52 754.909 1549.52 Q749.099 1549.52 746.02 1544.94 Q742.965 1540.33 742.965 1531.6 Q742.965 1522.85 746.02 1518.27 Q749.099 1513.66 754.909 1513.66 Z" fill="#000000" fill-rule="nonzero" fill-opacity="1" /><path clip-path="url(#clip910)" d="M1191.25 1544.91 L1198.89 1544.91 L1198.89 1518.55 L1190.58 1520.21 L1190.58 1515.95 L1198.84 1514.29 L1203.52 1514.29 L1203.52 1544.91 L1211.16 1544.91 L1211.16 1548.85 L1191.25 1548.85 L1191.25 1544.91 Z" fill="#000000" fill-rule="nonzero" fill-opacity="1" /><path clip-path="url(#clip910)" d="M1230.6 1517.37 Q1226.99 1517.37 1225.16 1520.93 Q1223.36 1524.47 1223.36 1531.6 Q1223.36 1538.71 1225.16 1542.27 Q1226.99 1545.82 1230.6 1545.82 Q1234.24 1545.82 1236.04 1542.27 Q1237.87 1538.71 1237.87 1531.6 Q1237.87 1524.47 1236.04 1520.93 Q1234.24 1517.37 1230.6 1517.37 M1230.6 1513.66 Q1236.41 1513.66 1239.47 1518.27 Q1242.55 1522.85 1242.55 1531.6 Q1242.55 1540.33 1239.47 1544.94 Q1236.41 1549.52 1230.6 1549.52 Q1224.79 1549.52 1221.71 1544.94 Q1218.66 1540.33 1218.66 1531.6 Q1218.66 1522.85 1221.71 1518.27 Q1224.79 1513.66 1230.6 1513.66 Z" fill="#000000" fill-rule="nonzero" fill-opacity="1" /><path clip-path="url(#clip910)" d="M1260.77 1517.37 Q1257.15 1517.37 1255.33 1520.93 Q1253.52 1524.47 1253.52 1531.6 Q1253.52 1538.71 1255.33 1542.27 Q1257.15 1545.82 1260.77 1545.82 Q1264.4 1545.82 1266.2 1542.27 Q1268.03 1538.71 1268.03 1531.6 Q1268.03 1524.47 1266.2 1520.93 Q1264.4 1517.37 1260.77 1517.37 M1260.77 1513.66 Q1266.58 1513.66 1269.63 1518.27 Q1272.71 1522.85 1272.71 1531.6 Q1272.71 1540.33 1269.63 1544.94 Q1266.58 1549.52 1260.77 1549.52 Q1254.95 1549.52 1251.88 1544.94 Q1248.82 1540.33 1248.82 1531.6 Q1248.82 1522.85 1251.88 1518.27 Q1254.95 1513.66 1260.77 1513.66 Z" fill="#000000" fill-rule="nonzero" fill-opacity="1" /><path clip-path="url(#clip910)" d="M1290.93 1517.37 Q1287.32 1517.37 1285.49 1520.93 Q1283.68 1524.47 1283.68 1531.6 Q1283.68 1538.71 1285.49 1542.27 Q1287.32 1545.82 1290.93 1545.82 Q1294.56 1545.82 1296.37 1542.27 Q1298.2 1538.71 1298.2 1531.6 Q1298.2 1524.47 1296.37 1520.93 Q1294.56 1517.37 1290.93 1517.37 M1290.93 1513.66 Q1296.74 1513.66 1299.79 1518.27 Q1302.87 1522.85 1302.87 1531.6 Q1302.87 1540.33 1299.79 1544.94 Q1296.74 1549.52 1290.93 1549.52 Q1285.12 1549.52 1282.04 1544.94 Q1278.98 1540.33 1278.98 1531.6 Q1278.98 1522.85 1282.04 1518.27 Q1285.12 1513.66 1290.93 1513.66 Z" fill="#000000" fill-rule="nonzero" fill-opacity="1" /><path clip-path="url(#clip910)" d="M1712.96 1544.91 L1720.6 1544.91 L1720.6 1518.55 L1712.29 1520.21 L1712.29 1515.95 L1720.56 1514.29 L1725.23 1514.29 L1725.23 1544.91 L1732.87 1544.91 L1732.87 1548.85 L1712.96 1548.85 L1712.96 1544.91 Z" fill="#000000" fill-rule="nonzero" fill-opacity="1" /><path clip-path="url(#clip910)" d="M1742.36 1514.29 L1760.72 1514.29 L1760.72 1518.22 L1746.64 1518.22 L1746.64 1526.7 Q1747.66 1526.35 1748.68 1526.19 Q1749.7 1526 1750.72 1526 Q1756.51 1526 1759.88 1529.17 Q1763.26 1532.34 1763.26 1537.76 Q1763.26 1543.34 1759.79 1546.44 Q1756.32 1549.52 1750 1549.52 Q1747.82 1549.52 1745.56 1549.15 Q1743.31 1548.78 1740.9 1548.04 L1740.9 1543.34 Q1742.99 1544.47 1745.21 1545.03 Q1747.43 1545.58 1749.91 1545.58 Q1753.91 1545.58 1756.25 1543.48 Q1758.59 1541.37 1758.59 1537.76 Q1758.59 1534.15 1756.25 1532.04 Q1753.91 1529.94 1749.91 1529.94 Q1748.03 1529.94 1746.16 1530.35 Q1744.31 1530.77 1742.36 1531.65 L1742.36 1514.29 Z" fill="#000000" fill-rule="nonzero" fill-opacity="1" /><path clip-path="url(#clip910)" d="M1782.48 1517.37 Q1778.87 1517.37 1777.04 1520.93 Q1775.23 1524.47 1775.23 1531.6 Q1775.23 1538.71 1777.04 1542.27 Q1778.87 1545.82 1782.48 1545.82 Q1786.11 1545.82 1787.92 1542.27 Q1789.75 1538.71 1789.75 1531.6 Q1789.75 1524.47 1787.92 1520.93 Q1786.11 1517.37 1782.48 1517.37 M1782.48 1513.66 Q1788.29 1513.66 1791.34 1518.27 Q1794.42 1522.85 1794.42 1531.6 Q1794.42 1540.33 1791.34 1544.94 Q1788.29 1549.52 1782.48 1549.52 Q1776.67 1549.52 1773.59 1544.94 Q1770.53 1540.33 1770.53 1531.6 Q1770.53 1522.85 1773.59 1518.27 Q1776.67 1513.66 1782.48 1513.66 Z" fill="#000000" fill-rule="nonzero" fill-opacity="1" /><path clip-path="url(#clip910)" d="M1812.64 1517.37 Q1809.03 1517.37 1807.2 1520.93 Q1805.39 1524.47 1805.39 1531.6 Q1805.39 1538.71 1807.2 1542.27 Q1809.03 1545.82 1812.64 1545.82 Q1816.27 1545.82 1818.08 1542.27 Q1819.91 1538.71 1819.91 1531.6 Q1819.91 1524.47 1818.08 1520.93 Q1816.27 1517.37 1812.64 1517.37 M1812.64 1513.66 Q1818.45 1513.66 1821.5 1518.27 Q1824.58 1522.85 1824.58 1531.6 Q1824.58 1540.33 1821.5 1544.94 Q1818.45 1549.52 1812.64 1549.52 Q1806.83 1549.52 1803.75 1544.94 Q1800.69 1540.33 1800.69 1531.6 Q1800.69 1522.85 1803.75 1518.27 Q1806.83 1513.66 1812.64 1513.66 Z" fill="#000000" fill-rule="nonzero" fill-opacity="1" /><path clip-path="url(#clip910)" d="M2238.76 1544.91 L2255.08 1544.91 L2255.08 1548.85 L2233.14 1548.85 L2233.14 1544.91 Q2235.8 1542.16 2240.38 1537.53 Q2244.99 1532.88 2246.17 1531.53 Q2248.41 1529.01 2249.29 1527.27 Q2250.2 1525.51 2250.2 1523.82 Q2250.2 1521.07 2248.25 1519.33 Q2246.33 1517.6 2243.23 1517.6 Q2241.03 1517.6 2238.58 1518.36 Q2236.15 1519.13 2233.37 1520.68 L2233.37 1515.95 Q2236.19 1514.82 2238.65 1514.24 Q2241.1 1513.66 2243.14 1513.66 Q2248.51 1513.66 2251.7 1516.35 Q2254.9 1519.03 2254.9 1523.52 Q2254.9 1525.65 2254.09 1527.57 Q2253.3 1529.47 2251.19 1532.07 Q2250.61 1532.74 2247.51 1535.95 Q2244.41 1539.15 2238.76 1544.91 Z" fill="#000000" fill-rule="nonzero" fill-opacity="1" /><path clip-path="url(#clip910)" d="M2274.9 1517.37 Q2271.28 1517.37 2269.46 1520.93 Q2267.65 1524.47 2267.65 1531.6 Q2267.65 1538.71 2269.46 1542.27 Q2271.28 1545.82 2274.9 1545.82 Q2278.53 1545.82 2280.34 1542.27 Q2282.16 1538.71 2282.16 1531.6 Q2282.16 1524.47 2280.34 1520.93 Q2278.53 1517.37 2274.9 1517.37 M2274.9 1513.66 Q2280.71 1513.66 2283.76 1518.27 Q2286.84 1522.85 2286.84 1531.6 Q2286.84 1540.33 2283.76 1544.94 Q2280.71 1549.52 2274.9 1549.52 Q2269.09 1549.52 2266.01 1544.94 Q2262.95 1540.33 2262.95 1531.6 Q2262.95 1522.85 2266.01 1518.27 Q2269.09 1513.66 2274.9 1513.66 Z" fill="#000000" fill-rule="nonzero" fill-opacity="1" /><path clip-path="url(#clip910)" d="M2305.06 1517.37 Q2301.45 1517.37 2299.62 1520.93 Q2297.81 1524.47 2297.81 1531.6 Q2297.81 1538.71 2299.62 1542.27 Q2301.45 1545.82 2305.06 1545.82 Q2308.69 1545.82 2310.5 1542.27 Q2312.33 1538.71 2312.33 1531.6 Q2312.33 1524.47 2310.5 1520.93 Q2308.69 1517.37 2305.06 1517.37 M2305.06 1513.66 Q2310.87 1513.66 2313.92 1518.27 Q2317 1522.85 2317 1531.6 Q2317 1540.33 2313.92 1544.94 Q2310.87 1549.52 2305.06 1549.52 Q2299.25 1549.52 2296.17 1544.94 Q2293.11 1540.33 2293.11 1531.6 Q2293.11 1522.85 2296.17 1518.27 Q2299.25 1513.66 2305.06 1513.66 Z" fill="#000000" fill-rule="nonzero" fill-opacity="1" /><path clip-path="url(#clip910)" d="M2335.22 1517.37 Q2331.61 1517.37 2329.78 1520.93 Q2327.97 1524.47 2327.97 1531.6 Q2327.97 1538.71 2329.78 1542.27 Q2331.61 1545.82 2335.22 1545.82 Q2338.85 1545.82 2340.66 1542.27 Q2342.49 1538.71 2342.49 1531.6 Q2342.49 1524.47 2340.66 1520.93 Q2338.85 1517.37 2335.22 1517.37 M2335.22 1513.66 Q2341.03 1513.66 2344.09 1518.27 Q2347.16 1522.85 2347.16 1531.6 Q2347.16 1540.33 2344.09 1544.94 Q2341.03 1549.52 2335.22 1549.52 Q2329.41 1549.52 2326.33 1544.94 Q2323.28 1540.33 2323.28 1531.6 Q2323.28 1522.85 2326.33 1518.27 Q2329.41 1513.66 2335.22 1513.66 Z" fill="#000000" fill-rule="nonzero" fill-opacity="1" /><polyline clip-path="url(#clip912)" style="stroke:#000000; stroke-linecap:round; stroke-linejoin:round; stroke-width:2; stroke-opacity:0.1; fill:none" points="140.696,1200.87 2352.76,1200.87 "/>
<polyline clip-path="url(#clip912)" style="stroke:#000000; stroke-linecap:round; stroke-linejoin:round; stroke-width:2; stroke-opacity:0.1; fill:none" points="140.696,870.208 2352.76,870.208 "/>
<polyline clip-path="url(#clip912)" style="stroke:#000000; stroke-linecap:round; stroke-linejoin:round; stroke-width:2; stroke-opacity:0.1; fill:none" points="140.696,539.547 2352.76,539.547 "/>
<polyline clip-path="url(#clip912)" style="stroke:#000000; stroke-linecap:round; stroke-linejoin:round; stroke-width:2; stroke-opacity:0.1; fill:none" points="140.696,208.886 2352.76,208.886 "/>
<polyline clip-path="url(#clip910)" style="stroke:#000000; stroke-linecap:round; stroke-linejoin:round; stroke-width:4; stroke-opacity:1; fill:none" points="140.696,1486.45 140.696,47.2441 "/>
<polyline clip-path="url(#clip910)" style="stroke:#000000; stroke-linecap:round; stroke-linejoin:round; stroke-width:4; stroke-opacity:1; fill:none" points="140.696,1200.87 159.593,1200.87 "/>
<polyline clip-path="url(#clip910)" style="stroke:#000000; stroke-linecap:round; stroke-linejoin:round; stroke-width:4; stroke-opacity:1; fill:none" points="140.696,870.208 159.593,870.208 "/>
<polyline clip-path="url(#clip910)" style="stroke:#000000; stroke-linecap:round; stroke-linejoin:round; stroke-width:4; stroke-opacity:1; fill:none" points="140.696,539.547 159.593,539.547 "/>
<polyline clip-path="url(#clip910)" style="stroke:#000000; stroke-linecap:round; stroke-linejoin:round; stroke-width:4; stroke-opacity:1; fill:none" points="140.696,208.886 159.593,208.886 "/>
<path clip-path="url(#clip910)" d="M53.3995 1214.21 L61.0384 1214.21 L61.0384 1187.85 L52.7282 1189.52 L52.7282 1185.26 L60.9921 1183.59 L65.668 1183.59 L65.668 1214.21 L73.3068 1214.21 L73.3068 1218.15 L53.3995 1218.15 L53.3995 1214.21 Z" fill="#000000" fill-rule="nonzero" fill-opacity="1" /><path clip-path="url(#clip910)" d="M92.7512 1186.67 Q89.1401 1186.67 87.3114 1190.23 Q85.5058 1193.77 85.5058 1200.9 Q85.5058 1208.01 87.3114 1211.58 Q89.1401 1215.12 92.7512 1215.12 Q96.3854 1215.12 98.1909 1211.58 Q100.02 1208.01 100.02 1200.9 Q100.02 1193.77 98.1909 1190.23 Q96.3854 1186.67 92.7512 1186.67 M92.7512 1182.96 Q98.5613 1182.96 101.617 1187.57 Q104.696 1192.15 104.696 1200.9 Q104.696 1209.63 101.617 1214.24 Q98.5613 1218.82 92.7512 1218.82 Q86.941 1218.82 83.8623 1214.24 Q80.8068 1209.63 80.8068 1200.9 Q80.8068 1192.15 83.8623 1187.57 Q86.941 1182.96 92.7512 1182.96 Z" fill="#000000" fill-rule="nonzero" fill-opacity="1" /><path clip-path="url(#clip910)" d="M54.3949 883.553 L62.0337 883.553 L62.0337 857.188 L53.7236 858.854 L53.7236 854.595 L61.9874 852.928 L66.6633 852.928 L66.6633 883.553 L74.3022 883.553 L74.3022 887.488 L54.3949 887.488 L54.3949 883.553 Z" fill="#000000" fill-rule="nonzero" fill-opacity="1" /><path clip-path="url(#clip910)" d="M83.7929 852.928 L102.149 852.928 L102.149 856.863 L88.0753 856.863 L88.0753 865.336 Q89.0938 864.988 90.1123 864.826 Q91.1308 864.641 92.1493 864.641 Q97.9363 864.641 101.316 867.812 Q104.696 870.984 104.696 876.4 Q104.696 881.979 101.223 885.081 Q97.7511 888.16 91.4317 888.16 Q89.2558 888.16 86.9873 887.789 Q84.7419 887.419 82.3346 886.678 L82.3346 881.979 Q84.4179 883.113 86.6401 883.669 Q88.8623 884.224 91.3391 884.224 Q95.3437 884.224 97.6817 882.118 Q100.02 880.012 100.02 876.4 Q100.02 872.789 97.6817 870.683 Q95.3437 868.576 91.3391 868.576 Q89.4641 868.576 87.5892 868.993 Q85.7373 869.41 83.7929 870.289 L83.7929 852.928 Z" fill="#000000" fill-rule="nonzero" fill-opacity="1" /><path clip-path="url(#clip910)" d="M56.6171 552.892 L72.9365 552.892 L72.9365 556.827 L50.9921 556.827 L50.9921 552.892 Q53.6541 550.137 58.2375 545.508 Q62.8439 540.855 64.0245 539.512 Q66.2698 536.989 67.1494 535.253 Q68.0522 533.494 68.0522 531.804 Q68.0522 529.049 66.1078 527.313 Q64.1865 525.577 61.0847 525.577 Q58.8856 525.577 56.4319 526.341 Q54.0014 527.105 51.2236 528.656 L51.2236 523.934 Q54.0477 522.799 56.5014 522.221 Q58.955 521.642 60.9921 521.642 Q66.3624 521.642 69.5568 524.327 Q72.7513 527.012 72.7513 531.503 Q72.7513 533.633 71.9411 535.554 Q71.1541 537.452 69.0476 540.045 Q68.4689 540.716 65.367 543.934 Q62.2652 547.128 56.6171 552.892 Z" fill="#000000" fill-rule="nonzero" fill-opacity="1" /><path clip-path="url(#clip910)" d="M92.7512 525.346 Q89.1401 525.346 87.3114 528.911 Q85.5058 532.452 85.5058 539.582 Q85.5058 546.688 87.3114 550.253 Q89.1401 553.795 92.7512 553.795 Q96.3854 553.795 98.1909 550.253 Q100.02 546.688 100.02 539.582 Q100.02 532.452 98.1909 528.911 Q96.3854 525.346 92.7512 525.346 M92.7512 521.642 Q98.5613 521.642 101.617 526.248 Q104.696 530.832 104.696 539.582 Q104.696 548.309 101.617 552.915 Q98.5613 557.498 92.7512 557.498 Q86.941 557.498 83.8623 552.915 Q80.8068 548.309 80.8068 539.582 Q80.8068 530.832 83.8623 526.248 Q86.941 521.642 92.7512 521.642 Z" fill="#000000" fill-rule="nonzero" fill-opacity="1" /><path clip-path="url(#clip910)" d="M57.6125 222.231 L73.9318 222.231 L73.9318 226.166 L51.9875 226.166 L51.9875 222.231 Q54.6495 219.476 59.2328 214.846 Q63.8393 210.194 65.0198 208.851 Q67.2652 206.328 68.1448 204.592 Q69.0476 202.833 69.0476 201.143 Q69.0476 198.388 67.1032 196.652 Q65.1819 194.916 62.08 194.916 Q59.881 194.916 57.4273 195.68 Q54.9967 196.444 52.219 197.995 L52.219 193.272 Q55.043 192.138 57.4967 191.559 Q59.9504 190.981 61.9874 190.981 Q67.3578 190.981 70.5522 193.666 Q73.7466 196.351 73.7466 200.842 Q73.7466 202.971 72.9365 204.893 Q72.1494 206.791 70.0429 209.383 Q69.4642 210.055 66.3624 213.272 Q63.2606 216.467 57.6125 222.231 Z" fill="#000000" fill-rule="nonzero" fill-opacity="1" /><path clip-path="url(#clip910)" d="M83.7929 191.606 L102.149 191.606 L102.149 195.541 L88.0753 195.541 L88.0753 204.013 Q89.0938 203.666 90.1123 203.504 Q91.1308 203.319 92.1493 203.319 Q97.9363 203.319 101.316 206.49 Q104.696 209.661 104.696 215.078 Q104.696 220.657 101.223 223.758 Q97.7511 226.837 91.4317 226.837 Q89.2558 226.837 86.9873 226.467 Q84.7419 226.096 82.3346 225.356 L82.3346 220.657 Q84.4179 221.791 86.6401 222.346 Q88.8623 222.902 91.3391 222.902 Q95.3437 222.902 97.6817 220.795 Q100.02 218.689 100.02 215.078 Q100.02 211.467 97.6817 209.36 Q95.3437 207.254 91.3391 207.254 Q89.4641 207.254 87.5892 207.67 Q85.7373 208.087 83.7929 208.967 L83.7929 191.606 Z" fill="#000000" fill-rule="nonzero" fill-opacity="1" /><polyline clip-path="url(#clip912)" style="stroke:#009af9; stroke-linecap:round; stroke-linejoin:round; stroke-width:4; stroke-opacity:1; fill:none" points="203.301,1305.68 204.344,1306.24 205.388,1392.51 206.431,1392.84 207.475,1379.35 208.518,1379.7 209.562,1248.34 210.605,1248.79 211.648,1333.7 212.692,1334.09 213.735,1423.41 214.779,1423.7 215.822,1355.16 216.866,1355.52 217.909,1077.6 218.952,1078.16 219.996,1397.87 221.039,1398.13 222.083,1365.03 223.126,1365.23 224.17,1325.97 225.213,1326.32 226.256,1375.32 227.3,1375.66 228.343,1427.86 229.387,1428.18 230.43,1301.26 231.473,1301.61 232.517,975.261 233.56,976.038 234.604,1314.25 235.647,1314.59 236.691,1359.98 237.734,1360.42 238.777,1295.14 239.821,1295.46 240.864,1330.61 241.908,1331.07 242.951,1247.3 243.995,1247.81 245.038,1277.19 246.081,1277.63 247.125,1365.35 248.168,1365.62 249.212,1199.55 250.255,1200.19 251.299,1238.25 252.342,1238.73 253.385,1276.64 254.429,1277.17 255.472,1190.64 256.516,1191.08 257.559,1355.3 258.603,1355.7 259.646,1402.43 260.689,1402.67 261.733,1432.29 262.776,1432.59 263.82,1244.29 264.863,1244.69 265.907,1342.04 266.95,1342.34 267.993,1145.42 269.037,1146.06 270.08,1445.52 271.124,1445.72 272.167,1145.39 273.21,1146.06 274.254,1248.53 275.297,1248.98 276.341,1407.28 277.384,1407.5 278.428,1405.12 279.471,1405.33 280.514,1081.46 281.558,1082.23 282.601,1088.67 283.645,1089.19 284.688,1046.77 285.732,1047.74 286.775,1241.82 287.818,1242.25 288.862,1200.55 289.905,1201.2 290.949,1217.75 291.992,1218.21 293.036,1270.49 294.079,1270.8 295.122,1221.15 296.166,1221.52 297.209,1114.41 298.253,1114.88 299.296,1142.74 300.34,1143.35 301.383,1211.99 302.426,1212.38 303.47,1140.84 304.513,1141.42 305.557,1183.46 306.6,1183.91 307.643,1103.29 308.687,1103.94 309.73,1062.46 310.774,1063.13 311.817,1239.99 312.861,1240.29 313.904,1396.64 314.947,1396.85 315.991,1178.22 317.034,1178.73 318.078,1148.31 319.121,1148.85 320.165,1208.17 321.208,1208.49 322.251,1027.71 323.295,1028.22 324.338,1176.78 325.382,1177.28 326.425,1130.41 327.469,1130.86 328.512,1089.16 329.555,1089.77 330.599,1257.44 331.642,1257.86 332.686,1020.38 333.729,1021.02 334.773,1025.15 335.816,1025.71 336.859,998.317 337.903,999.042 338.946,1229.17 339.99,1229.52 341.033,1351.86 342.077,1352.05 343.12,986.034 344.163,986.627 345.207,1096.05 346.25,1096.58 347.294,1303.22 348.337,1303.49 349.38,1083.47 350.424,1083.86 351.467,1108.21 352.511,1108.7 353.554,1086.45 354.598,1086.81 355.641,995.542 356.684,996.097 357.728,1119.09 358.771,1119.53 359.815,820.511 360.858,821.322 361.902,1162.51 362.945,1162.87 363.988,1051.42 365.032,1051.9 366.075,1066.39 367.119,1066.82 368.162,1051 369.206,1051.44 370.249,1218.87 371.292,1219.14 372.336,1194.41 373.379,1194.79 374.423,1220.1 375.466,1220.6 376.51,1170.46 377.553,1170.89 378.596,1131.52 379.64,1132.16 380.683,1051.56 381.727,1052.12 382.77,1175.49 383.813,1175.87 384.857,941.334 385.9,941.898 386.944,952.142 387.987,952.606 389.031,950.292 390.074,950.951 391.117,1002.57 392.161,1003.11 393.204,1033.81 394.248,1034.43 395.291,925.221 396.335,925.903 397.378,974.543 398.421,975.239 399.465,819.266 400.508,820.187 401.552,1037.79 402.595,1038.15 403.639,925.297 404.682,925.94 405.725,1014.6 406.769,1014.98 407.812,958.027 408.856,958.416 409.899,905.155 410.943,905.793 411.986,989.711 413.029,990.138 414.073,1036.82 415.116,1037.38 416.16,1130.74 417.203,1131.22 418.247,878.011 419.29,878.627 420.333,1154.93 421.377,1155.28 422.42,971.941 423.464,972.421 424.507,805.022 425.55,805.641 426.594,945.129 427.637,945.774 428.681,954.826 429.724,955.397 430.768,991.605 431.811,992.099 432.854,1023.27 433.898,1023.83 434.941,997.194 435.985,997.891 437.028,992.258 438.072,992.71 439.115,925.703 440.158,926.381 441.202,909.899 442.245,910.505 443.289,1132.75 444.332,1133.04 445.376,1044.25 446.419,1045.08 447.462,1126.27 448.506,1126.75 449.549,1023.49 450.593,1023.9 451.636,928.866 452.68,929.565 453.723,994.383 454.766,995.033 455.81,1030.08 456.853,1030.65 457.897,1015.91 458.94,1016.69 459.984,935.406 461.027,935.908 462.07,1030.6 463.114,1031.47 464.157,1088.53 465.201,1088.94 466.244,1068.8 467.287,1069.38 468.331,902.188 469.374,902.72 470.418,665.987 471.461,666.709 472.505,803.044 473.548,803.584 474.591,955.419 475.635,955.896 476.678,898.975 477.722,899.493 478.765,1010.13 479.809,1010.72 480.852,968.296 481.895,968.622 482.939,841.812 483.982,842.454 485.026,905.987 486.069,906.464 487.113,1026 488.156,1026.46 489.199,996.499 490.243,996.847 491.286,674.634 492.33,675.315 493.373,805.979 494.417,806.984 495.46,941.388 496.503,942.093 497.547,881.845 498.59,882.719 499.634,737.7 500.677,738.34 501.72,847.635 502.764,848.312 503.807,950.077 504.851,950.697 505.894,742.982 506.938,743.832 507.981,1049.29 509.024,1049.81 510.068,939.936 511.111,940.347 512.155,1098.36 513.198,1098.79 514.242,761.77 515.285,762.35 516.328,1000.92 517.372,1001.28 518.415,564.869 519.459,565.812 520.502,837.958 521.546,838.547 522.589,967.269 523.632,967.865 524.676,960.434 525.719,961.17 526.763,768.388 527.806,768.818 528.85,736.26 529.893,737.012 530.936,569.206 531.98,569.964 533.023,881.394 534.067,881.931 535.11,952.23 536.154,952.619 537.197,924.138 538.24,924.445 539.284,810.194 540.327,810.945 541.371,887.249 542.414,887.675 543.457,908.19 544.501,908.6 545.544,937.969 546.588,938.574 547.631,687.415 548.675,688.032 549.718,689.782 550.761,690.403 551.805,695.316 552.848,695.889 553.892,980.708 554.935,981.014 555.979,854.881 557.022,855.518 558.065,896.899 559.109,897.275 560.152,919.969 561.196,920.32 562.239,912.732 563.283,913.15 564.326,853.625 565.369,854.187 566.413,705.036 567.456,705.853 568.5,1040.13 569.543,1040.41 570.587,746.862 571.63,747.55 572.673,863.728 573.717,864.305 574.76,745.965 575.804,746.645 576.847,729.733 577.89,730.52 578.934,877.373 579.977,877.983 581.021,680.847 582.064,681.564 583.108,650.003 584.151,650.563 585.194,713.865 586.238,714.55 587.281,852.521 588.325,852.961 589.368,832.646 590.412,833.243 591.455,696.018 592.498,696.613 593.542,601.51 594.585,602.202 595.629,695.961 596.672,696.358 597.716,794.726 598.759,795.218 599.802,735.091 600.846,736.004 601.889,501.699 602.933,502.385 603.976,749.795 605.02,750.387 606.063,1057.41 607.106,1057.61 608.15,777.604 609.193,777.996 610.237,699.539 611.28,700.102 612.324,684.047 613.367,684.516 614.41,726.314 615.454,726.793 616.497,741.662 617.541,742.177 618.584,743.604 619.627,744.336 620.671,488.233 621.714,488.834 622.758,781.692 623.801,782.055 624.845,552.145 625.888,552.756 626.931,434.246 627.975,434.924 629.018,864.158 630.062,864.568 631.105,650.296 632.149,651.078 633.192,774.879 634.235,775.304 635.279,742.91 636.322,743.607 637.366,726.698 638.409,727.233 639.453,544.926 640.496,545.558 641.539,640.296 642.583,641.056 643.626,633.09 644.67,633.866 645.713,614.914 646.757,615.484 647.8,687.555 648.843,688.009 649.887,583.843 650.93,584.538 651.974,852.655 653.017,853.147 654.06,677.176 655.104,677.703 656.147,580.664 657.191,581.516 658.234,743.557 659.278,744.076 660.321,651.135 661.364,651.693 662.408,548.94 663.451,549.626 664.495,702.808 665.538,703.411 666.582,550.945 667.625,551.662 668.668,688.888 669.712,689.81 670.755,685.339 671.799,686.059 672.842,661.867 673.886,662.436 674.929,742.524 675.972,743.369 677.016,587.311 678.059,588.223 679.103,710.352 680.146,711.02 681.19,646.497 682.233,647.197 683.276,707.576 684.32,708.04 685.363,741.421 686.407,741.967 687.45,836.43 688.494,836.783 689.537,575.123 690.58,575.677 691.624,579.251 692.667,580.051 693.711,673.317 694.754,673.668 695.797,607.596 696.841,608.401 697.884,716.697 698.928,717.407 699.971,685.914 701.015,686.617 702.058,643.168 703.101,643.981 704.145,705.075 705.188,705.691 706.232,592.182 707.275,592.893 708.319,561.701 709.362,562.209 710.405,311.412 711.449,312.343 712.492,762.226 713.536,762.857 714.579,718.981 715.623,719.57 716.666,544 717.709,544.506 718.753,680.756 719.796,681.274 720.84,426.967 721.883,427.47 722.927,575.384 723.97,575.758 725.013,515.885 726.057,516.55 727.1,743.487 728.144,744.062 729.187,716.192 730.23,716.707 731.274,531.742 732.317,532.387 733.361,573.604 734.404,574.281 735.448,552.226 736.491,552.85 737.534,613.329 738.578,614.445 739.621,350.57 740.665,351.379 741.708,473.86 742.752,474.486 743.795,692.931 744.838,693.484 745.882,496.092 746.925,496.592 747.969,653.014 749.012,653.417 750.056,632.037 751.099,632.486 752.142,461.384 753.186,462.1 754.229,671.322 755.273,671.719 756.316,459.641 757.36,460.069 758.403,574.855 759.446,575.945 760.49,296.488 761.533,297.136 762.577,585.855 763.62,586.535 764.664,510.802 765.707,511.837 766.75,644.454 767.794,645.064 768.837,427.287 769.881,428.807 770.924,565.36 771.967,565.767 773.011,470.938 774.054,471.599 775.098,726.13 776.141,726.713 777.185,495.697 778.228,496.21 779.271,393.412 780.315,394.167 781.358,429.369 782.402,429.979 783.445,590.575 784.489,591.284 785.532,542.898 786.575,543.494 787.619,567.639 788.662,568.048 789.706,706.85 790.749,707.168 791.793,530.546 792.836,531.061 793.879,354.191 794.923,354.876 795.966,500.685 797.01,501.047 798.053,552.06 799.097,552.714 800.14,605.117 801.183,605.529 802.227,472.382 803.27,472.941 804.314,464.516 805.357,464.974 806.401,595.55 807.444,595.903 808.487,501.822 809.531,502.418 810.574,322.837 811.618,323.769 812.661,476.627 813.704,477.108 814.748,608.019 815.791,608.737 816.835,522.519 817.878,523.168 818.922,514.798 819.965,515.472 821.008,534.112 822.052,534.838 823.095,588.716 824.139,589.165 825.182,591.705 826.226,592.263 827.269,622.875 828.312,623.672 829.356,582.745 830.399,583.176 831.443,553.458 832.486,554.293 833.53,530.566 834.573,531.061 835.616,514.572 836.66,514.932 837.703,657.761 838.747,658.383 839.79,513.268 840.834,513.738 841.877,571.056 842.92,571.406 843.964,268.592 845.007,269.219 846.051,610.948 847.094,611.372 848.137,610.509 849.181,610.832 850.224,461.9 851.268,462.251 852.311,520.441 853.355,520.784 854.398,511.464 855.441,511.964 856.485,658.101 857.528,658.812 858.572,549.249 859.615,549.836 860.659,464.62 861.702,465.256 862.745,531.001 863.789,531.817 864.832,485.008 865.876,485.467 866.919,559.083 867.963,559.504 869.006,497.688 870.049,498.017 871.093,543.852 872.136,544.213 873.18,374.679 874.223,375.534 875.267,594.564 876.31,595.031 877.353,629.052 878.397,629.677 879.44,588.784 880.484,589.199 881.527,606.337 882.571,606.705 883.614,447.055 884.657,447.656 885.701,363.485 886.744,364.515 887.788,377.969 888.831,378.973 889.874,431.902 890.918,432.609 891.961,521.415 893.005,522.394 894.048,533.761 895.092,534.248 896.135,472.589 897.178,472.968 898.222,522.257 899.265,522.653 900.309,508.075 901.352,508.478 902.396,404.387 903.439,405.328 904.482,488.902 905.526,489.282 906.569,417.39 907.613,418.198 908.656,451.719 909.7,452.215 910.743,449.354 911.786,450.124 912.83,427.119 913.873,427.853 914.917,443.334 915.96,443.833 917.004,402.791 918.047,403.263 919.09,426.224 920.134,426.951 921.177,281.538 922.221,282.462 923.264,495.007 924.307,495.545 925.351,579.354 926.394,579.715 927.438,502.41 928.481,502.708 929.525,549.296 930.568,549.729 931.611,430.062 932.655,430.563 933.698,440.008 934.742,440.296 935.785,511.35 936.829,511.829 937.872,416.884 938.915,417.282 939.959,422.45 941.002,422.831 942.046,380.793 943.089,381.169 944.133,357.206 945.176,357.725 946.219,289.665 947.263,290.955 948.306,485.614 949.35,485.881 950.393,377.065 951.437,377.611 952.48,469.693 953.523,470.316 954.567,394.26 955.61,394.789 956.654,486.188 957.697,486.626 958.741,597.2 959.784,597.589 960.827,524.255 961.871,524.759 962.914,234.898 963.958,236.018 965.001,424.757 966.044,425.042 967.088,230.313 968.131,231.068 969.175,406.462 970.218,406.969 971.262,470.156 972.305,470.386 973.348,442.061 974.392,442.541 975.435,463.919 976.479,464.604 977.522,312.057 978.566,312.7 979.609,501.818 980.652,502.512 981.696,380.361 982.739,380.96 983.783,472.425 984.826,472.9 985.87,410.566 986.913,411.421 987.956,268.542 989,269.336 990.043,481.641 991.087,481.903 992.13,528.319 993.174,528.882 994.217,449.419 995.26,449.788 996.304,480.549 997.347,480.881 998.391,413.571 999.434,414.115 1000.48,521.065 1001.52,521.333 1002.56,356.717 1003.61,357.379 1004.65,440.986 1005.69,441.858 1006.74,457.948 1007.78,458.556 1008.82,507.435 1009.87,507.643 1010.91,500.538 1011.96,500.924 1013,432.214 1014.04,432.659 1015.09,377 1016.13,377.499 1017.17,481.633 1018.22,482.092 1019.26,389.704 1020.3,390.224 1021.35,499.153 1022.39,499.567 1023.43,527.923 1024.48,528.187 1025.52,488.365 1026.56,488.814 1027.61,383.259 1028.65,383.711 1029.69,538.379 1030.74,538.921 1031.78,313.599 1032.82,314.63 1033.87,377.851 1034.91,378.771 1035.95,472.694 1037,473.06 1038.04,401.013 1039.08,401.355 1040.13,481.508 1041.17,482.205 1042.21,469.464 1043.26,469.739 1044.3,455.676 1045.34,456.031 1046.39,484.134 1047.43,484.477 1048.48,399.894 1049.52,400.484 1050.56,288.654 1051.61,289.059 1052.65,521.43 1053.69,521.86 1054.74,438.732 1055.78,439.015 1056.82,476.055 1057.87,476.63 1058.91,371.115 1059.95,371.42 1061,428.696 1062.04,429.148 1063.08,404.497 1064.13,405.193 1065.17,494.82 1066.21,495.557 1067.26,347.329 1068.3,347.759 1069.34,337.552 1070.39,338.104 1071.43,411.396 1072.47,412.183 1073.52,342.04 1074.56,342.568 1075.6,413.294 1076.65,413.524 1077.69,457.218 1078.73,457.742 1079.78,416.048 1080.82,416.639 1081.86,422.882 1082.91,423.175 1083.95,376.106 1084.99,376.58 1086.04,300.456 1087.08,301.085 1088.13,381.781 1089.17,382.128 1090.21,460.08 1091.26,460.311 1092.3,396.91 1093.34,397.223 1094.39,324.807 1095.43,325.432 1096.47,444.496 1097.52,444.733 1098.56,473.868 1099.6,474.628 1100.65,394.051 1101.69,394.426 1102.73,219.941 1103.78,220.221 1104.82,406.242 1105.86,406.681 1106.91,464.274 1107.95,464.713 1108.99,327.822 1110.04,328.602 1111.08,425.452 1112.12,425.701 1113.17,500.258 1114.21,500.576 1115.25,359.381 1116.3,360.447 1117.34,356.882 1118.38,357.679 1119.43,377.532 1120.47,377.981 1121.51,402.982 1122.56,403.412 1123.6,396.086 1124.65,396.753 1125.69,397.025 1126.73,397.271 1127.78,315.97 1128.82,316.316 1129.86,380.703 1130.91,381.291 1131.95,365.742 1132.99,366.006 1134.04,481.064 1135.08,481.638 1136.12,409.906 1137.17,410.321 1138.21,438.018 1139.25,438.285 1140.3,323.234 1141.34,323.549 1142.38,426.564 1143.43,427.089 1144.47,432.073 1145.51,432.296 1146.56,314.284 1147.6,314.624 1148.64,396.571 1149.69,396.8 1150.73,358.329 1151.77,358.936 1152.82,485.561 1153.86,485.986 1154.9,400.322 1155.95,400.663 1156.99,400.148 1158.03,400.871 1159.08,418.529 1160.12,418.723 1161.16,533.583 1162.21,533.865 1163.25,448.477 1164.3,448.81 1165.34,463.221 1166.38,463.397 1167.43,341.782 1168.47,342.202 1169.51,432.594 1170.56,432.794 1171.6,400.216 1172.64,400.439 1173.69,338.534 1174.73,339.13 1175.77,423.196 1176.82,424.245 1177.86,347.627 1178.9,347.937 1179.95,372.099 1180.99,372.319 1182.03,377.578 1183.08,378.179 1184.12,359.033 1185.16,359.324 1186.21,357.208 1187.25,357.782 1188.29,385.106 1189.34,385.505 1190.38,380.255 1191.42,381.173 1192.47,435.901 1193.51,436.03 1194.55,339.081 1195.6,339.782 1196.64,360.114 1197.68,360.466 1198.73,385.537 1199.77,386.019 1200.82,418.009 1201.86,418.614 1202.9,458.784 1203.95,458.979 1204.99,443.064 1206.03,443.411 1207.08,362.081 1208.12,362.997 1209.16,391.899 1210.21,392.432 1211.25,365.519 1212.29,365.863 1213.34,356.66 1214.38,357.226 1215.42,350.793 1216.47,350.944 1217.51,400.418 1218.55,400.934 1219.6,444.962 1220.64,445.32 1221.68,395.368 1222.73,395.531 1223.77,425.746 1224.81,426.232 1225.86,374.843 1226.9,375.001 1227.94,475.135 1228.99,475.292 1230.03,334.672 1231.07,334.822 1232.12,347.271 1233.16,347.568 1234.2,389.74 1235.25,390.041 1236.29,232.787 1237.33,233.171 1238.38,381.034 1239.42,381.935 1240.47,409.208 1241.51,409.489 1242.55,364.313 1243.6,364.8 1244.64,514.504 1245.68,514.711 1246.73,326.502 1247.77,326.687 1248.81,360.989 1249.86,361.418 1250.9,336.246 1251.94,336.594 1252.99,342.71 1254.03,342.837 1255.07,409.973 1256.12,410.093 1257.16,401.064 1258.2,401.322 1259.25,396.15 1260.29,396.266 1261.33,253.47 1262.38,254.47 1263.42,368.203 1264.46,368.485 1265.51,348.961 1266.55,349.222 1267.59,453.643 1268.64,453.79 1269.68,323.795 1270.72,324.103 1271.77,429.423 1272.81,429.745 1273.85,358.653 1274.9,358.808 1275.94,356.897 1276.99,357.577 1278.03,254.612 1279.07,255.266 1280.12,247.729 1281.16,248.24 1282.2,305.216 1283.25,305.658 1284.29,317.772 1285.33,318.122 1286.38,418.08 1287.42,418.427 1288.46,261.474 1289.51,262.058 1290.55,127.225 1291.59,127.738 1292.64,428.991 1293.68,429.498 1294.72,371.496 1295.77,371.818 1296.81,363.626 1297.85,363.88 1298.9,370.005 1299.94,370.164 1300.98,295.96 1302.03,296.745 1303.07,294.391 1304.11,294.684 1305.16,291.187 1306.2,291.448 1307.24,357.294 1308.29,357.526 1309.33,418.411 1310.37,418.637 1311.42,404.081 1312.46,404.218 1313.5,459.271 1314.55,459.492 1315.59,409.002 1316.64,409.58 1317.68,405.491 1318.72,405.76 1319.77,333.51 1320.81,333.783 1321.85,320.186 1322.9,320.63 1323.94,443.729 1324.98,443.851 1326.03,235.818 1327.07,236.257 1328.11,347.131 1329.16,347.355 1330.2,208.338 1331.24,208.832 1332.29,436.535 1333.33,436.901 1334.37,411.642 1335.42,412.025 1336.46,377.051 1337.5,377.546 1338.55,347.672 1339.59,347.928 1340.63,290.926 1341.68,291.993 1342.72,386.89 1343.76,387.027 1344.81,432.368 1345.85,432.939 1346.89,320.601 1347.94,321.177 1348.98,462.213 1350.02,462.456 1351.07,358.826 1352.11,358.953 1353.16,393.203 1354.2,393.48 1355.24,368.67 1356.29,369.225 1357.33,339.771 1358.37,340.376 1359.42,337.145 1360.46,337.273 1361.5,325.777 1362.55,326.255 1363.59,426.975 1364.63,427.221 1365.68,327.27 1366.72,327.675 1367.76,411.145 1368.81,411.461 1369.85,302.942 1370.89,303.276 1371.94,376.273 1372.98,376.594 1374.02,320.169 1375.07,320.363 1376.11,393.377 1377.15,393.718 1378.2,298.311 1379.24,298.792 1380.28,359.433 1381.33,359.913 1382.37,313.364 1383.41,313.68 1384.46,470.818 1385.5,470.961 1386.54,282.306 1387.59,282.455 1388.63,414.972 1389.67,415.232 1390.72,432.95 1391.76,433.291 1392.81,326.203 1393.85,326.675 1394.89,337.306 1395.94,337.629 1396.98,346.376 1398.02,347.139 1399.07,334.035 1400.11,334.46 1401.15,438.115 1402.2,438.722 1403.24,443.199 1404.28,443.489 1405.33,319.876 1406.37,320.189 1407.41,366.51 1408.46,366.696 1409.5,362.39 1410.54,362.631 1411.59,271.779 1412.63,271.942 1413.67,356.942 1414.72,357.353 1415.76,303.886 1416.8,304.235 1417.85,371.995 1418.89,372.245 1419.93,390.772 1420.98,390.959 1422.02,328.795 1423.06,329.579 1424.11,354.008 1425.15,354.443 1426.19,322.603 1427.24,323.075 1428.28,392.095 1429.33,392.206 1430.37,343.403 1431.41,344.096 1432.46,344.778 1433.5,345.314 1434.54,353.669 1435.59,353.78 1436.63,275.835 1437.67,276.058 1438.72,372.243 1439.76,372.365 1440.8,369.648 1441.85,370.03 1442.89,438.164 1443.93,438.235 1444.98,320.811 1446.02,321.025 1447.06,394.663 1448.11,395.03 1449.15,369.476 1450.19,369.777 1451.24,380.121 1452.28,380.545 1453.32,368.276 1454.37,368.677 1455.41,362.15 1456.45,362.428 1457.5,251.723 1458.54,252.136 1459.58,312.489 1460.63,312.611 1461.67,400.753 1462.71,400.993 1463.76,419.529 1464.8,419.793 1465.84,213.416 1466.89,213.749 1467.93,339.976 1468.98,340.474 1470.02,320.568 1471.06,320.804 1472.11,330.753 1473.15,331.031 1474.19,390.335 1475.24,391.042 1476.28,368.448 1477.32,368.7 1478.37,288.548 1479.41,289.135 1480.45,371.007 1481.5,371.297 1482.54,191.009 1483.58,191.447 1484.63,423.095 1485.67,423.71 1486.71,372.968 1487.76,373.438 1488.8,87.9763 1489.84,88.4574 1490.89,322.146 1491.93,322.355 1492.97,302.054 1494.02,302.392 1495.06,335.209 1496.1,335.648 1497.15,304.754 1498.19,304.96 1499.23,380.083 1500.28,380.469 1501.32,407.904 1502.36,408.28 1503.41,357.211 1504.45,357.834 1505.5,392.325 1506.54,392.758 1507.58,299.57 1508.63,299.956 1509.67,393.579 1510.71,393.865 1511.76,299.298 1512.8,299.651 1513.84,294.882 1514.89,295.296 1515.93,402.472 1516.97,402.757 1518.02,321.812 1519.06,322.278 1520.1,324.472 1521.15,324.887 1522.19,435.998 1523.23,436.128 1524.28,369.324 1525.32,369.431 1526.36,409.928 1527.41,410.075 1528.45,370.827 1529.49,371.1 1530.54,403.753 1531.58,404.296 1532.62,392.843 1533.67,393.527 1534.71,351.242 1535.75,351.658 1536.8,334.856 1537.84,335.2 1538.88,358.898 1539.93,359.728 1540.97,392.354 1542.01,392.813 1543.06,283.308 1544.1,283.795 1545.15,391.771 1546.19,392.173 1547.23,338.066 1548.28,338.294 1549.32,385.459 1550.36,385.948 1551.41,368.6 1552.45,368.689 1553.49,322.768 1554.54,323.218 1555.58,351.391 1556.62,351.734 1557.67,372.094 1558.71,372.379 1559.75,375.075 1560.8,375.405 1561.84,355.644 1562.88,356.092 1563.93,301.912 1564.97,302.439 1566.01,271.278 1567.06,271.471 1568.1,330.026 1569.14,330.368 1570.19,377.097 1571.23,377.599 1572.27,318.027 1573.32,318.312 1574.36,357.767 1575.4,357.983 1576.45,354.77 1577.49,355.159 1578.53,428.529 1579.58,428.734 1580.62,316.959 1581.67,317.294 1582.71,354.176 1583.75,354.617 1584.8,239.398 1585.84,239.718 1586.88,369.866 1587.93,370.572 1588.97,403.338 1590.01,403.817 1591.06,238.931 1592.1,239.375 1593.14,410.498 1594.19,411.076 1595.23,409.374 1596.27,409.495 1597.32,342.691 1598.36,343.123 1599.4,285.489 1600.45,285.632 1601.49,396.862 1602.53,397.034 1603.58,238.865 1604.62,239.332 1605.66,412.438 1606.71,412.642 1607.75,397.335 1608.79,397.768 1609.84,293.268 1610.88,293.608 1611.92,336.731 1612.97,337.016 1614.01,290.37 1615.05,290.605 1616.1,390.614 1617.14,390.782 1618.18,236.224 1619.23,236.533 1620.27,217.777 1621.32,218.071 1622.36,355.348 1623.4,355.959 1624.45,303.771 1625.49,304.193 1626.53,299.107 1627.58,299.249 1628.62,336.367 1629.66,336.837 1630.71,314.567 1631.75,314.986 1632.79,364.661 1633.84,364.873 1634.88,398 1635.92,398.081 1636.97,400.165 1638.01,401.185 1639.05,224.046 1640.1,224.183 1641.14,382.154 1642.18,382.557 1643.23,356.792 1644.27,356.973 1645.31,317.926 1646.36,318.4 1647.4,314.051 1648.44,314.385 1649.49,422.923 1650.53,423.109 1651.57,301.535 1652.62,301.866 1653.66,344.364 1654.7,344.751 1655.75,407.273 1656.79,407.589 1657.84,305.124 1658.88,305.429 1659.92,332.011 1660.97,332.539 1662.01,300.149 1663.05,300.239 1664.1,349.644 1665.14,349.899 1666.18,369.314 1667.23,369.517 1668.27,335.539 1669.31,336.01 1670.36,390.672 1671.4,390.941 1672.44,366.037 1673.49,366.697 1674.53,360.382 1675.57,360.551 1676.62,369.599 1677.66,369.928 1678.7,206.345 1679.75,206.665 1680.79,387.227 1681.83,387.793 1682.88,415.412 1683.92,415.718 1684.96,375.702 1686.01,375.948 1687.05,383.831 1688.09,384.252 1689.14,327.093 1690.18,327.502 1691.22,259.666 1692.27,259.857 1693.31,303.929 1694.35,304.235 1695.4,253.403 1696.44,253.684 1697.49,374.071 1698.53,374.42 1699.57,351.758 1700.62,352.396 1701.66,220.765 1702.7,220.913 1703.75,277.209 1704.79,277.429 1705.83,296.125 1706.88,296.383 1707.92,293.128 1708.96,293.374 1710.01,280.968 1711.05,281.188 1712.09,376.842 1713.14,377.051 1714.18,404.852 1715.22,405.096 1716.27,380.966 1717.31,381.377 1718.35,399.909 1719.4,400.234 1720.44,319.54 1721.48,319.727 1722.53,341.183 1723.57,342.038 1724.61,288.537 1725.66,288.665 1726.7,352.472 1727.74,352.841 1728.79,279.159 1729.83,279.893 1730.87,364.049 1731.92,364.516 1732.96,356.833 1734.01,357.27 1735.05,411.65 1736.09,412.187 1737.14,370.682 1738.18,370.938 1739.22,224.486 1740.27,224.76 1741.31,321.643 1742.35,322.161 1743.4,366.417 1744.44,366.586 1745.48,376.247 1746.53,376.585 1747.57,317.53 1748.61,317.751 1749.66,352.143 1750.7,352.373 1751.74,379.075 1752.79,379.716 1753.83,379.859 1754.87,380.076 1755.92,342.708 1756.96,343.321 1758,357.257 1759.05,357.357 1760.09,357.002 1761.13,357.281 1762.18,352.503 1763.22,352.712 1764.26,386.155 1765.31,386.563 1766.35,361.467 1767.39,361.826 1768.44,369.358 1769.48,369.552 1770.52,347.977 1771.57,348.066 1772.61,367.728 1773.66,368.045 1774.7,434.148 1775.74,434.229 1776.79,300.788 1777.83,301.223 1778.87,336.57 1779.92,336.98 1780.96,320.162 1782,320.471 1783.05,264.304 1784.09,264.628 1785.13,299.233 1786.18,299.754 1787.22,316.754 1788.26,316.998 1789.31,403.065 1790.35,403.339 1791.39,244.187 1792.44,244.394 1793.48,304.979 1794.52,305.758 1795.57,287.746 1796.61,288.421 1797.65,358.301 1798.7,358.673 1799.74,341.085 1800.78,341.646 1801.83,351.996 1802.87,352.314 1803.91,380.548 1804.96,380.93 1806,233.246 1807.04,233.622 1808.09,372.062 1809.13,372.372 1810.18,394.835 1811.22,395.151 1812.26,432.917 1813.31,433.313 1814.35,376.564 1815.39,377.084 1816.44,329.324 1817.48,329.422 1818.52,306.851 1819.57,307.247 1820.61,417.536 1821.65,418.337 1822.7,294.393 1823.74,294.718 1824.78,283.138 1825.83,283.378 1826.87,325.503 1827.91,325.813 1828.96,344.377 1830,344.629 1831.04,240.826 1832.09,241.315 1833.13,362.764 1834.17,363.212 1835.22,363.327 1836.26,363.875 1837.3,352.129 1838.35,352.443 1839.39,295.867 1840.43,296.354 1841.48,279.688 1842.52,280.088 1843.56,386.273 1844.61,386.595 1845.65,310.033 1846.69,310.791 1847.74,351.605 1848.78,351.727 1849.83,308.515 1850.87,308.78 1851.91,358.257 1852.96,358.622 1854,276.322 1855.04,276.864 1856.09,326.909 1857.13,327.053 1858.17,294.727 1859.22,295.069 1860.26,235.441 1861.3,236.528 1862.35,333.063 1863.39,333.257 1864.43,354.63 1865.48,354.804 1866.52,315.57 1867.56,315.862 1868.61,282.646 1869.65,283.208 1870.69,348.992 1871.74,349.462 1872.78,273.548 1873.82,273.916 1874.87,341.138 1875.91,341.541 1876.95,340.797 1878,341.186 1879.04,345.578 1880.08,346.107 1881.13,215.187 1882.17,215.588 1883.21,366.884 1884.26,367.393 1885.3,320.3 1886.35,320.707 1887.39,348.311 1888.43,348.951 1889.48,341.631 1890.52,341.882 1891.56,281.458 1892.61,281.779 1893.65,330.494 1894.69,331.393 1895.74,307.207 1896.78,307.567 1897.82,337.563 1898.87,337.865 1899.91,368.879 1900.95,369.405 1902,283.389 1903.04,284.232 1904.08,292.021 1905.13,292.383 1906.17,383.694 1907.21,383.957 1908.26,291.178 1909.3,291.532 1910.34,323.628 1911.39,324.032 1912.43,352.271 1913.47,353.109 1914.52,313.855 1915.56,314.051 1916.6,366.979 1917.65,367.46 1918.69,322.291 1919.73,322.691 1920.78,329.099 1921.82,329.44 1922.86,373.954 1923.91,374.475 1924.95,332.546 1926,333.064 1927.04,323.396 1928.08,324.005 1929.13,324.492 1930.17,324.747 1931.21,347.872 1932.26,347.958 1933.3,271.351 1934.34,271.585 1935.39,381.94 1936.43,382.686 1937.47,338.015 1938.52,338.355 1939.56,342.534 1940.6,342.851 1941.65,350.629 1942.69,350.718 1943.73,287.715 1944.78,287.913 1945.82,321.649 1946.86,321.979 1947.91,349.762 1948.95,349.969 1949.99,369.556 1951.04,369.866 1952.08,308.98 1953.12,309.304 1954.17,372.404 1955.21,372.923 1956.25,328.969 1957.3,329.298 1958.34,304.32 1959.38,304.779 1960.43,360.492 1961.47,360.651 1962.52,380.748 1963.56,381.179 1964.6,284.109 1965.65,284.557 1966.69,341.749 1967.73,342.213 1968.78,270.015 1969.82,270.75 1970.86,266.889 1971.91,267.958 1972.95,366.174 1973.99,366.382 1975.04,380.326 1976.08,380.473 1977.12,271.596 1978.17,271.901 1979.21,365.741 1980.25,365.954 1981.3,189.837 1982.34,190.395 1983.38,362.289 1984.43,362.507 1985.47,340.178 1986.51,340.734 1987.56,362.567 1988.6,362.712 1989.64,331.044 1990.69,331.931 1991.73,288.182 1992.77,288.549 1993.82,337.063 1994.86,337.317 1995.9,229.269 1996.95,229.887 1997.99,340.424 1999.03,340.766 2000.08,371.518 2001.12,371.733 2002.17,257.924 2003.21,258.28 2004.25,326.645 2005.3,327.059 2006.34,387.366 2007.38,387.633 2008.43,365.981 2009.47,366.372 2010.51,344.544 2011.56,345.452 2012.6,386.083 2013.64,386.306 2014.69,260.803 2015.73,261.011 2016.77,274.016 2017.82,274.269 2018.86,397.555 2019.9,397.677 2020.95,301.444 2021.99,301.826 2023.03,356.129 2024.08,356.286 2025.12,151.107 2026.16,152.293 2027.21,289.869 2028.25,290.297 2029.29,371.177 2030.34,371.571 2031.38,343.15 2032.42,343.686 2033.47,298.616 2034.51,299.026 2035.55,315.147 2036.6,315.839 2037.64,323.639 2038.69,323.764 2039.73,248.907 2040.77,249.179 2041.82,273.814 2042.86,274.008 2043.9,347.84 2044.95,348.256 2045.99,333.885 2047.03,334.226 2048.08,367.233 2049.12,367.419 2050.16,373.34 2051.21,373.661 2052.25,318.785 2053.29,319.023 2054.34,348.912 2055.38,349.138 2056.42,307.886 2057.47,308.619 2058.51,338.751 2059.55,339.301 2060.6,299.01 2061.64,299.222 2062.68,345.964 2063.73,346.44 2064.77,359.243 2065.81,359.342 2066.86,379.879 2067.9,380.039 2068.94,314.176 2069.99,314.764 2071.03,315.328 2072.07,315.441 2073.12,315.414 2074.16,315.942 2075.2,345.499 2076.25,345.742 2077.29,318.896 2078.34,319.137 2079.38,309.514 2080.42,309.562 2081.47,349.315 2082.51,349.934 2083.55,357.555 2084.6,357.794 2085.64,383.342 2086.68,383.616 2087.73,304.94 2088.77,305.651 2089.81,311.16 2090.86,311.507 2091.9,299.976 2092.94,300.191 2093.99,378.767 2095.03,379.193 2096.07,298.079 2097.12,298.432 2098.16,326.169 2099.2,326.49 2100.25,385.024 2101.29,385.653 2102.33,341.853 2103.38,342.217 2104.42,261.489 2105.46,262.246 2106.51,359.119 2107.55,359.248 2108.59,336.395 2109.64,336.724 2110.68,346.817 2111.72,347.048 2112.77,323.29 2113.81,323.489 2114.86,329.531 2115.9,329.67 2116.94,313.534 2117.99,313.729 2119.03,330.307 2120.07,331.022 2121.12,333.556 2122.16,334.188 2123.2,328.642 2124.25,329.02 2125.29,330.645 2126.33,331.099 2127.38,332.522 2128.42,332.99 2129.46,310.17 2130.51,310.306 2131.55,204.357 2132.59,204.681 2133.64,275.026 2134.68,275.31 2135.72,323.829 2136.77,324.121 2137.81,261.4 2138.85,261.612 2139.9,366.354 2140.94,366.766 2141.98,377.356 2143.03,377.48 2144.07,346.482 2145.11,346.866 2146.16,345.524 2147.2,345.645 2148.24,268.34 2149.29,268.871 2150.33,331.659 2151.37,332.126 2152.42,319.588 2153.46,319.884 2154.51,335.469 2155.55,335.615 2156.59,360.942 2157.64,361.51 2158.68,355.727 2159.72,355.831 2160.77,254.42 2161.81,254.912 2162.85,366.148 2163.9,366.294 2164.94,324.531 2165.98,324.921 2167.03,337.93 2168.07,338.032 2169.11,305.734 2170.16,306.215 2171.2,266.741 2172.24,267.011 2173.29,313.263 2174.33,313.442 2175.37,297.725 2176.42,297.939 2177.46,289.036 2178.5,289.716 2179.55,239.207 2180.59,239.613 2181.63,313.388 2182.68,313.731 2183.72,272.337 2184.76,272.658 2185.81,320.733 2186.85,320.89 2187.89,372.818 2188.94,372.9 2189.98,246.723 2191.03,247.177 2192.07,356.91 2193.11,357.369 2194.16,330.192 2195.2,330.422 2196.24,317.385 2197.29,317.586 2198.33,271.325 2199.37,271.895 2200.42,380.838 2201.46,380.961 2202.5,247.981 2203.55,248.492 2204.59,312.919 2205.63,312.987 2206.68,343.825 2207.72,344.286 2208.76,304.73 2209.81,305.483 2210.85,307.707 2211.89,308.19 2212.94,344.918 2213.98,345.115 2215.02,269.009 2216.07,269.432 2217.11,356.31 2218.15,356.934 2219.2,300.591 2220.24,301.077 2221.28,275.01 2222.33,275.3 2223.37,342.122 2224.41,342.379 2225.46,177.464 2226.5,177.881 2227.54,267.963 2228.59,268.178 2229.63,224.254 2230.68,225.408 2231.72,380.227 2232.76,380.664 2233.81,303.333 2234.85,303.724 2235.89,331.391 2236.94,331.618 2237.98,356.965 2239.02,357.066 2240.07,326.879 2241.11,327.107 2242.15,249.45 2243.2,249.876 2244.24,287.427 2245.28,287.881 2246.33,234.747 2247.37,234.927 2248.41,272.933 2249.46,273.195 2250.5,357.363 2251.54,357.551 2252.59,358.673 2253.63,358.725 2254.67,369.637 2255.72,369.841 2256.76,357.777 2257.8,357.835 2258.85,336.991 2259.89,337.534 2260.93,345.912 2261.98,346.343 2263.02,330.594 2264.06,330.834 2265.11,352.955 2266.15,353.118 2267.2,317.97 2268.24,318.306 2269.28,291.43 2270.33,292.046 2271.37,320.745 2272.41,320.99 2273.46,323.434 2274.5,323.897 2275.54,352.558 2276.59,352.793 2277.63,284.415 2278.67,284.941 2279.72,369.309 2280.76,369.404 2281.8,342.535 2282.85,342.651 2283.89,275.92 2284.93,276.266 2285.98,342.039 2287.02,342.243 2288.06,356.467 2289.11,357.745 2290.15,358.939 "/>
<path clip-path="url(#clip910)" d="M214.431 198.898 L488.067 198.898 L488.067 95.2176 L214.431 95.2176  Z" fill="#ffffff" fill-rule="evenodd" fill-opacity="1"/>
<polyline clip-path="url(#clip910)" style="stroke:#000000; stroke-linecap:round; stroke-linejoin:round; stroke-width:4; stroke-opacity:1; fill:none" points="214.431,198.898 488.067,198.898 488.067,95.2176 214.431,95.2176 214.431,198.898 "/>
<polyline clip-path="url(#clip910)" style="stroke:#009af9; stroke-linecap:round; stroke-linejoin:round; stroke-width:4; stroke-opacity:1; fill:none" points="239.009,147.058 386.48,147.058 "/>
<path clip-path="url(#clip910)" d="M424.901 166.745 Q423.095 171.375 421.382 172.787 Q419.67 174.199 416.799 174.199 L413.396 174.199 L413.396 170.634 L415.896 170.634 Q417.656 170.634 418.628 169.8 Q419.6 168.967 420.781 165.865 L421.545 163.921 L411.058 138.412 L415.572 138.412 L423.674 158.689 L431.776 138.412 L436.29 138.412 L424.901 166.745 Z" fill="#000000" fill-rule="nonzero" fill-opacity="1" /><path clip-path="url(#clip910)" d="M443.581 160.402 L451.22 160.402 L451.22 134.037 L442.91 135.703 L442.91 131.444 L451.174 129.778 L455.85 129.778 L455.85 160.402 L463.489 160.402 L463.489 164.338 L443.581 164.338 L443.581 160.402 Z" fill="#000000" fill-rule="nonzero" fill-opacity="1" /></svg>
