<?xml version="1.0" encoding="utf-8"?>
<svg xmlns="http://www.w3.org/2000/svg" xmlns:xlink="http://www.w3.org/1999/xlink" width="600" height="400" viewBox="0 0 2400 1600">
<defs>
  <clipPath id="clip400">
    <rect x="0" y="0" width="2400" height="1600"/>
  </clipPath>
</defs>
<path clip-path="url(#clip400)" d="M0 1600 L2400 1600 L2400 0 L0 0  Z" fill="#ffffff" fill-rule="evenodd" fill-opacity="1"/>
<defs>
  <clipPath id="clip401">
    <rect x="480" y="0" width="1681" height="1600"/>
  </clipPath>
</defs>
<path clip-path="url(#clip400)" d="M239.19 1486.45 L2352.76 1486.45 L2352.76 47.2441 L239.19 47.2441  Z" fill="#ffffff" fill-rule="evenodd" fill-opacity="1"/>
<defs>
  <clipPath id="clip402">
    <rect x="239" y="47" width="2115" height="1440"/>
  </clipPath>
</defs>
<polyline clip-path="url(#clip402)" style="stroke:#000000; stroke-linecap:round; stroke-linejoin:round; stroke-width:2; stroke-opacity:0.1; fill:none" points="299.008,1486.45 299.008,47.2441 "/>
<polyline clip-path="url(#clip402)" style="stroke:#000000; stroke-linecap:round; stroke-linejoin:round; stroke-width:2; stroke-opacity:0.1; fill:none" points="742.104,1486.45 742.104,47.2441 "/>
<polyline clip-path="url(#clip402)" style="stroke:#000000; stroke-linecap:round; stroke-linejoin:round; stroke-width:2; stroke-opacity:0.1; fill:none" points="1185.2,1486.45 1185.2,47.2441 "/>
<polyline clip-path="url(#clip402)" style="stroke:#000000; stroke-linecap:round; stroke-linejoin:round; stroke-width:2; stroke-opacity:0.1; fill:none" points="1628.29,1486.45 1628.29,47.2441 "/>
<polyline clip-path="url(#clip402)" style="stroke:#000000; stroke-linecap:round; stroke-linejoin:round; stroke-width:2; stroke-opacity:0.1; fill:none" points="2071.39,1486.45 2071.39,47.2441 "/>
<polyline clip-path="url(#clip400)" style="stroke:#000000; stroke-linecap:round; stroke-linejoin:round; stroke-width:4; stroke-opacity:1; fill:none" points="239.19,1486.45 2352.76,1486.45 "/>
<polyline clip-path="url(#clip400)" style="stroke:#000000; stroke-linecap:round; stroke-linejoin:round; stroke-width:4; stroke-opacity:1; fill:none" points="299.008,1486.45 299.008,1467.55 "/>
<polyline clip-path="url(#clip400)" style="stroke:#000000; stroke-linecap:round; stroke-linejoin:round; stroke-width:4; stroke-opacity:1; fill:none" points="742.104,1486.45 742.104,1467.55 "/>
<polyline clip-path="url(#clip400)" style="stroke:#000000; stroke-linecap:round; stroke-linejoin:round; stroke-width:4; stroke-opacity:1; fill:none" points="1185.2,1486.45 1185.2,1467.55 "/>
<polyline clip-path="url(#clip400)" style="stroke:#000000; stroke-linecap:round; stroke-linejoin:round; stroke-width:4; stroke-opacity:1; fill:none" points="1628.29,1486.45 1628.29,1467.55 "/>
<polyline clip-path="url(#clip400)" style="stroke:#000000; stroke-linecap:round; stroke-linejoin:round; stroke-width:4; stroke-opacity:1; fill:none" points="2071.39,1486.45 2071.39,1467.55 "/>
<path clip-path="url(#clip400)" d="M299.008 1517.37 Q295.397 1517.37 293.568 1520.93 Q291.763 1524.47 291.763 1531.6 Q291.763 1538.71 293.568 1542.27 Q295.397 1545.82 299.008 1545.82 Q302.643 1545.82 304.448 1542.27 Q306.277 1538.71 306.277 1531.6 Q306.277 1524.47 304.448 1520.93 Q302.643 1517.37 299.008 1517.37 M299.008 1513.66 Q304.818 1513.66 307.874 1518.27 Q310.953 1522.85 310.953 1531.6 Q310.953 1540.33 307.874 1544.94 Q304.818 1549.52 299.008 1549.52 Q293.198 1549.52 290.119 1544.94 Q287.064 1540.33 287.064 1531.6 Q287.064 1522.85 290.119 1518.27 Q293.198 1513.66 299.008 1513.66 Z" fill="#000000" fill-rule="nonzero" fill-opacity="1" /><path clip-path="url(#clip400)" d="M736.757 1544.91 L753.076 1544.91 L753.076 1548.85 L731.132 1548.85 L731.132 1544.91 Q733.794 1542.16 738.377 1537.53 Q742.983 1532.88 744.164 1531.53 Q746.409 1529.01 747.289 1527.27 Q748.192 1525.51 748.192 1523.82 Q748.192 1521.07 746.247 1519.33 Q744.326 1517.6 741.224 1517.6 Q739.025 1517.6 736.571 1518.36 Q734.141 1519.13 731.363 1520.68 L731.363 1515.95 Q734.187 1514.82 736.641 1514.24 Q739.095 1513.66 741.132 1513.66 Q746.502 1513.66 749.696 1516.35 Q752.891 1519.03 752.891 1523.52 Q752.891 1525.65 752.081 1527.57 Q751.294 1529.47 749.187 1532.07 Q748.608 1532.74 745.507 1535.95 Q742.405 1539.15 736.757 1544.91 Z" fill="#000000" fill-rule="nonzero" fill-opacity="1" /><path clip-path="url(#clip400)" d="M1188.21 1518.36 L1176.4 1536.81 L1188.21 1536.81 L1188.21 1518.36 M1186.98 1514.29 L1192.86 1514.29 L1192.86 1536.81 L1197.79 1536.81 L1197.79 1540.7 L1192.86 1540.7 L1192.86 1548.85 L1188.21 1548.85 L1188.21 1540.7 L1172.61 1540.7 L1172.61 1536.19 L1186.98 1514.29 Z" fill="#000000" fill-rule="nonzero" fill-opacity="1" /><path clip-path="url(#clip400)" d="M1628.7 1529.7 Q1625.55 1529.7 1623.7 1531.86 Q1621.87 1534.01 1621.87 1537.76 Q1621.87 1541.49 1623.7 1543.66 Q1625.55 1545.82 1628.7 1545.82 Q1631.85 1545.82 1633.68 1543.66 Q1635.53 1541.49 1635.53 1537.76 Q1635.53 1534.01 1633.68 1531.86 Q1631.85 1529.7 1628.7 1529.7 M1637.98 1515.05 L1637.98 1519.31 Q1636.22 1518.48 1634.42 1518.04 Q1632.64 1517.6 1630.88 1517.6 Q1626.25 1517.6 1623.79 1520.72 Q1621.36 1523.85 1621.01 1530.17 Q1622.38 1528.15 1624.44 1527.09 Q1626.5 1526 1628.98 1526 Q1634.19 1526 1637.2 1529.17 Q1640.23 1532.32 1640.23 1537.76 Q1640.23 1543.08 1637.08 1546.3 Q1633.93 1549.52 1628.7 1549.52 Q1622.7 1549.52 1619.53 1544.94 Q1616.36 1540.33 1616.36 1531.6 Q1616.36 1523.41 1620.25 1518.55 Q1624.14 1513.66 1630.69 1513.66 Q1632.45 1513.66 1634.23 1514.01 Q1636.04 1514.36 1637.98 1515.05 Z" fill="#000000" fill-rule="nonzero" fill-opacity="1" /><path clip-path="url(#clip400)" d="M2071.39 1532.44 Q2068.06 1532.44 2066.14 1534.22 Q2064.24 1536 2064.24 1539.13 Q2064.24 1542.25 2066.14 1544.03 Q2068.06 1545.82 2071.39 1545.82 Q2074.72 1545.82 2076.64 1544.03 Q2078.57 1542.23 2078.57 1539.13 Q2078.57 1536 2076.64 1534.22 Q2074.75 1532.44 2071.39 1532.44 M2066.71 1530.45 Q2063.71 1529.7 2062.02 1527.64 Q2060.35 1525.58 2060.35 1522.62 Q2060.35 1518.48 2063.29 1516.07 Q2066.25 1513.66 2071.39 1513.66 Q2076.55 1513.66 2079.49 1516.07 Q2082.43 1518.48 2082.43 1522.62 Q2082.43 1525.58 2080.74 1527.64 Q2079.08 1529.7 2076.09 1530.45 Q2079.47 1531.23 2081.34 1533.52 Q2083.24 1535.82 2083.24 1539.13 Q2083.24 1544.15 2080.16 1546.83 Q2077.11 1549.52 2071.39 1549.52 Q2065.67 1549.52 2062.59 1546.83 Q2059.54 1544.15 2059.54 1539.13 Q2059.54 1535.82 2061.44 1533.52 Q2063.33 1531.23 2066.71 1530.45 M2065 1523.06 Q2065 1525.75 2066.67 1527.25 Q2068.36 1528.76 2071.39 1528.76 Q2074.4 1528.76 2076.09 1527.25 Q2077.8 1525.75 2077.8 1523.06 Q2077.8 1520.38 2076.09 1518.87 Q2074.4 1517.37 2071.39 1517.37 Q2068.36 1517.37 2066.67 1518.87 Q2065 1520.38 2065 1523.06 Z" fill="#000000" fill-rule="nonzero" fill-opacity="1" /><polyline clip-path="url(#clip402)" style="stroke:#000000; stroke-linecap:round; stroke-linejoin:round; stroke-width:2; stroke-opacity:0.1; fill:none" points="239.19,1355.28 2352.76,1355.28 "/>
<polyline clip-path="url(#clip402)" style="stroke:#000000; stroke-linecap:round; stroke-linejoin:round; stroke-width:2; stroke-opacity:0.1; fill:none" points="239.19,1128.69 2352.76,1128.69 "/>
<polyline clip-path="url(#clip402)" style="stroke:#000000; stroke-linecap:round; stroke-linejoin:round; stroke-width:2; stroke-opacity:0.1; fill:none" points="239.19,902.104 2352.76,902.104 "/>
<polyline clip-path="url(#clip402)" style="stroke:#000000; stroke-linecap:round; stroke-linejoin:round; stroke-width:2; stroke-opacity:0.1; fill:none" points="239.19,675.519 2352.76,675.519 "/>
<polyline clip-path="url(#clip402)" style="stroke:#000000; stroke-linecap:round; stroke-linejoin:round; stroke-width:2; stroke-opacity:0.1; fill:none" points="239.19,448.933 2352.76,448.933 "/>
<polyline clip-path="url(#clip402)" style="stroke:#000000; stroke-linecap:round; stroke-linejoin:round; stroke-width:2; stroke-opacity:0.1; fill:none" points="239.19,222.348 2352.76,222.348 "/>
<polyline clip-path="url(#clip400)" style="stroke:#000000; stroke-linecap:round; stroke-linejoin:round; stroke-width:4; stroke-opacity:1; fill:none" points="239.19,1486.45 239.19,47.2441 "/>
<polyline clip-path="url(#clip400)" style="stroke:#000000; stroke-linecap:round; stroke-linejoin:round; stroke-width:4; stroke-opacity:1; fill:none" points="239.19,1355.28 258.088,1355.28 "/>
<polyline clip-path="url(#clip400)" style="stroke:#000000; stroke-linecap:round; stroke-linejoin:round; stroke-width:4; stroke-opacity:1; fill:none" points="239.19,1128.69 258.088,1128.69 "/>
<polyline clip-path="url(#clip400)" style="stroke:#000000; stroke-linecap:round; stroke-linejoin:round; stroke-width:4; stroke-opacity:1; fill:none" points="239.19,902.104 258.088,902.104 "/>
<polyline clip-path="url(#clip400)" style="stroke:#000000; stroke-linecap:round; stroke-linejoin:round; stroke-width:4; stroke-opacity:1; fill:none" points="239.19,675.519 258.088,675.519 "/>
<polyline clip-path="url(#clip400)" style="stroke:#000000; stroke-linecap:round; stroke-linejoin:round; stroke-width:4; stroke-opacity:1; fill:none" points="239.19,448.933 258.088,448.933 "/>
<polyline clip-path="url(#clip400)" style="stroke:#000000; stroke-linecap:round; stroke-linejoin:round; stroke-width:4; stroke-opacity:1; fill:none" points="239.19,222.348 258.088,222.348 "/>
<path clip-path="url(#clip400)" d="M50.9921 1355.73 L80.6679 1355.73 L80.6679 1359.66 L50.9921 1359.66 L50.9921 1355.73 Z" fill="#000000" fill-rule="nonzero" fill-opacity="1" /><path clip-path="url(#clip400)" d="M104.927 1353.92 Q108.283 1354.64 110.158 1356.91 Q112.057 1359.18 112.057 1362.51 Q112.057 1367.63 108.538 1370.43 Q105.02 1373.23 98.5382 1373.23 Q96.3623 1373.23 94.0475 1372.79 Q91.7558 1372.37 89.3021 1371.51 L89.3021 1367 Q91.2465 1368.13 93.5613 1368.71 Q95.8761 1369.29 98.3993 1369.29 Q102.797 1369.29 105.089 1367.56 Q107.404 1365.82 107.404 1362.51 Q107.404 1359.45 105.251 1357.74 Q103.121 1356 99.3021 1356 L95.2743 1356 L95.2743 1352.16 L99.4872 1352.16 Q102.936 1352.16 104.765 1350.8 Q106.594 1349.41 106.594 1346.82 Q106.594 1344.15 104.696 1342.74 Q102.821 1341.31 99.3021 1341.31 Q97.3808 1341.31 95.1817 1341.72 Q92.9826 1342.14 90.3438 1343.02 L90.3438 1338.85 Q93.0058 1338.11 95.3206 1337.74 Q97.6585 1337.37 99.7187 1337.37 Q105.043 1337.37 108.145 1339.8 Q111.246 1342.21 111.246 1346.33 Q111.246 1349.2 109.603 1351.19 Q107.959 1353.16 104.927 1353.92 Z" fill="#000000" fill-rule="nonzero" fill-opacity="1" /><path clip-path="url(#clip400)" d="M133.769 1342.07 L121.964 1360.52 L133.769 1360.52 L133.769 1342.07 M132.543 1338 L138.422 1338 L138.422 1360.52 L143.353 1360.52 L143.353 1364.41 L138.422 1364.41 L138.422 1372.56 L133.769 1372.56 L133.769 1364.41 L118.168 1364.41 L118.168 1359.89 L132.543 1338 Z" fill="#000000" fill-rule="nonzero" fill-opacity="1" /><path clip-path="url(#clip400)" d="M161.084 1341.07 Q157.473 1341.07 155.644 1344.64 Q153.839 1348.18 153.839 1355.31 Q153.839 1362.42 155.644 1365.98 Q157.473 1369.52 161.084 1369.52 Q164.718 1369.52 166.524 1365.98 Q168.353 1362.42 168.353 1355.31 Q168.353 1348.18 166.524 1344.64 Q164.718 1341.07 161.084 1341.07 M161.084 1337.37 Q166.894 1337.37 169.95 1341.98 Q173.029 1346.56 173.029 1355.31 Q173.029 1364.04 169.95 1368.64 Q166.894 1373.23 161.084 1373.23 Q155.274 1373.23 152.195 1368.64 Q149.14 1364.04 149.14 1355.31 Q149.14 1346.56 152.195 1341.98 Q155.274 1337.37 161.084 1337.37 Z" fill="#000000" fill-rule="nonzero" fill-opacity="1" /><path clip-path="url(#clip400)" d="M191.246 1341.07 Q187.635 1341.07 185.806 1344.64 Q184.001 1348.18 184.001 1355.31 Q184.001 1362.42 185.806 1365.98 Q187.635 1369.52 191.246 1369.52 Q194.88 1369.52 196.686 1365.98 Q198.514 1362.42 198.514 1355.31 Q198.514 1348.18 196.686 1344.64 Q194.88 1341.07 191.246 1341.07 M191.246 1337.37 Q197.056 1337.37 200.112 1341.98 Q203.19 1346.56 203.19 1355.31 Q203.19 1364.04 200.112 1368.64 Q197.056 1373.23 191.246 1373.23 Q185.436 1373.23 182.357 1368.64 Q179.302 1364.04 179.302 1355.31 Q179.302 1346.56 182.357 1341.98 Q185.436 1337.37 191.246 1337.37 Z" fill="#000000" fill-rule="nonzero" fill-opacity="1" /><path clip-path="url(#clip400)" d="M50.9921 1129.14 L80.6679 1129.14 L80.6679 1133.08 L50.9921 1133.08 L50.9921 1129.14 Z" fill="#000000" fill-rule="nonzero" fill-opacity="1" /><path clip-path="url(#clip400)" d="M104.927 1127.34 Q108.283 1128.05 110.158 1130.32 Q112.057 1132.59 112.057 1135.92 Q112.057 1141.04 108.538 1143.84 Q105.02 1146.64 98.5382 1146.64 Q96.3623 1146.64 94.0475 1146.2 Q91.7558 1145.78 89.3021 1144.93 L89.3021 1140.41 Q91.2465 1141.55 93.5613 1142.13 Q95.8761 1142.71 98.3993 1142.71 Q102.797 1142.71 105.089 1140.97 Q107.404 1139.23 107.404 1135.92 Q107.404 1132.87 105.251 1131.16 Q103.121 1129.42 99.3021 1129.42 L95.2743 1129.42 L95.2743 1125.58 L99.4872 1125.58 Q102.936 1125.58 104.765 1124.21 Q106.594 1122.82 106.594 1120.23 Q106.594 1117.57 104.696 1116.16 Q102.821 1114.72 99.3021 1114.72 Q97.3808 1114.72 95.1817 1115.14 Q92.9826 1115.55 90.3438 1116.43 L90.3438 1112.27 Q93.0058 1111.53 95.3206 1111.16 Q97.6585 1110.79 99.7187 1110.79 Q105.043 1110.79 108.145 1113.22 Q111.246 1115.62 111.246 1119.74 Q111.246 1122.61 109.603 1124.6 Q107.959 1126.57 104.927 1127.34 Z" fill="#000000" fill-rule="nonzero" fill-opacity="1" /><path clip-path="url(#clip400)" d="M135.089 1127.34 Q138.445 1128.05 140.32 1130.32 Q142.218 1132.59 142.218 1135.92 Q142.218 1141.04 138.7 1143.84 Q135.181 1146.64 128.7 1146.64 Q126.524 1146.64 124.209 1146.2 Q121.918 1145.78 119.464 1144.93 L119.464 1140.41 Q121.408 1141.55 123.723 1142.13 Q126.038 1142.71 128.561 1142.71 Q132.959 1142.71 135.251 1140.97 Q137.566 1139.23 137.566 1135.92 Q137.566 1132.87 135.413 1131.16 Q133.283 1129.42 129.464 1129.42 L125.436 1129.42 L125.436 1125.58 L129.649 1125.58 Q133.098 1125.58 134.927 1124.21 Q136.756 1122.82 136.756 1120.23 Q136.756 1117.57 134.857 1116.16 Q132.982 1114.72 129.464 1114.72 Q127.543 1114.72 125.344 1115.14 Q123.145 1115.55 120.506 1116.43 L120.506 1112.27 Q123.168 1111.53 125.482 1111.16 Q127.82 1110.79 129.881 1110.79 Q135.205 1110.79 138.306 1113.22 Q141.408 1115.62 141.408 1119.74 Q141.408 1122.61 139.765 1124.6 Q138.121 1126.57 135.089 1127.34 Z" fill="#000000" fill-rule="nonzero" fill-opacity="1" /><path clip-path="url(#clip400)" d="M161.084 1114.49 Q157.473 1114.49 155.644 1118.05 Q153.839 1121.6 153.839 1128.72 Q153.839 1135.83 155.644 1139.4 Q157.473 1142.94 161.084 1142.94 Q164.718 1142.94 166.524 1139.4 Q168.353 1135.83 168.353 1128.72 Q168.353 1121.6 166.524 1118.05 Q164.718 1114.49 161.084 1114.49 M161.084 1110.79 Q166.894 1110.79 169.95 1115.39 Q173.029 1119.97 173.029 1128.72 Q173.029 1137.45 169.95 1142.06 Q166.894 1146.64 161.084 1146.64 Q155.274 1146.64 152.195 1142.06 Q149.14 1137.45 149.14 1128.72 Q149.14 1119.97 152.195 1115.39 Q155.274 1110.79 161.084 1110.79 Z" fill="#000000" fill-rule="nonzero" fill-opacity="1" /><path clip-path="url(#clip400)" d="M191.246 1114.49 Q187.635 1114.49 185.806 1118.05 Q184.001 1121.6 184.001 1128.72 Q184.001 1135.83 185.806 1139.4 Q187.635 1142.94 191.246 1142.94 Q194.88 1142.94 196.686 1139.4 Q198.514 1135.83 198.514 1128.72 Q198.514 1121.6 196.686 1118.05 Q194.88 1114.49 191.246 1114.49 M191.246 1110.79 Q197.056 1110.79 200.112 1115.39 Q203.19 1119.97 203.19 1128.72 Q203.19 1137.45 200.112 1142.06 Q197.056 1146.64 191.246 1146.64 Q185.436 1146.64 182.357 1142.06 Q179.302 1137.45 179.302 1128.72 Q179.302 1119.97 182.357 1115.39 Q185.436 1110.79 191.246 1110.79 Z" fill="#000000" fill-rule="nonzero" fill-opacity="1" /><path clip-path="url(#clip400)" d="M50.9921 902.556 L80.6679 902.556 L80.6679 906.491 L50.9921 906.491 L50.9921 902.556 Z" fill="#000000" fill-rule="nonzero" fill-opacity="1" /><path clip-path="url(#clip400)" d="M104.927 900.75 Q108.283 901.468 110.158 903.736 Q112.057 906.005 112.057 909.338 Q112.057 914.454 108.538 917.255 Q105.02 920.056 98.5382 920.056 Q96.3623 920.056 94.0475 919.616 Q91.7558 919.199 89.3021 918.343 L89.3021 913.829 Q91.2465 914.963 93.5613 915.542 Q95.8761 916.121 98.3993 916.121 Q102.797 916.121 105.089 914.384 Q107.404 912.648 107.404 909.338 Q107.404 906.283 105.251 904.57 Q103.121 902.834 99.3021 902.834 L95.2743 902.834 L95.2743 898.991 L99.4872 898.991 Q102.936 898.991 104.765 897.625 Q106.594 896.236 106.594 893.644 Q106.594 890.982 104.696 889.57 Q102.821 888.135 99.3021 888.135 Q97.3808 888.135 95.1817 888.551 Q92.9826 888.968 90.3438 889.848 L90.3438 885.681 Q93.0058 884.94 95.3206 884.57 Q97.6585 884.199 99.7187 884.199 Q105.043 884.199 108.145 886.63 Q111.246 889.037 111.246 893.158 Q111.246 896.028 109.603 898.019 Q107.959 899.986 104.927 900.75 Z" fill="#000000" fill-rule="nonzero" fill-opacity="1" /><path clip-path="url(#clip400)" d="M124.95 915.449 L141.269 915.449 L141.269 919.384 L119.325 919.384 L119.325 915.449 Q121.987 912.695 126.57 908.065 Q131.177 903.412 132.357 902.07 Q134.603 899.547 135.482 897.811 Q136.385 896.051 136.385 894.361 Q136.385 891.607 134.441 889.871 Q132.519 888.135 129.418 888.135 Q127.219 888.135 124.765 888.899 Q122.334 889.662 119.557 891.213 L119.557 886.491 Q122.381 885.357 124.834 884.778 Q127.288 884.199 129.325 884.199 Q134.695 884.199 137.89 886.885 Q141.084 889.57 141.084 894.061 Q141.084 896.19 140.274 898.111 Q139.487 900.01 137.381 902.602 Q136.802 903.273 133.7 906.491 Q130.598 909.685 124.95 915.449 Z" fill="#000000" fill-rule="nonzero" fill-opacity="1" /><path clip-path="url(#clip400)" d="M161.084 887.903 Q157.473 887.903 155.644 891.468 Q153.839 895.01 153.839 902.139 Q153.839 909.246 155.644 912.81 Q157.473 916.352 161.084 916.352 Q164.718 916.352 166.524 912.81 Q168.353 909.246 168.353 902.139 Q168.353 895.01 166.524 891.468 Q164.718 887.903 161.084 887.903 M161.084 884.199 Q166.894 884.199 169.95 888.806 Q173.029 893.389 173.029 902.139 Q173.029 910.866 169.95 915.472 Q166.894 920.056 161.084 920.056 Q155.274 920.056 152.195 915.472 Q149.14 910.866 149.14 902.139 Q149.14 893.389 152.195 888.806 Q155.274 884.199 161.084 884.199 Z" fill="#000000" fill-rule="nonzero" fill-opacity="1" /><path clip-path="url(#clip400)" d="M191.246 887.903 Q187.635 887.903 185.806 891.468 Q184.001 895.01 184.001 902.139 Q184.001 909.246 185.806 912.81 Q187.635 916.352 191.246 916.352 Q194.88 916.352 196.686 912.81 Q198.514 909.246 198.514 902.139 Q198.514 895.01 196.686 891.468 Q194.88 887.903 191.246 887.903 M191.246 884.199 Q197.056 884.199 200.112 888.806 Q203.19 893.389 203.19 902.139 Q203.19 910.866 200.112 915.472 Q197.056 920.056 191.246 920.056 Q185.436 920.056 182.357 915.472 Q179.302 910.866 179.302 902.139 Q179.302 893.389 182.357 888.806 Q185.436 884.199 191.246 884.199 Z" fill="#000000" fill-rule="nonzero" fill-opacity="1" /><path clip-path="url(#clip400)" d="M50.9921 675.97 L80.6679 675.97 L80.6679 679.905 L50.9921 679.905 L50.9921 675.97 Z" fill="#000000" fill-rule="nonzero" fill-opacity="1" /><path clip-path="url(#clip400)" d="M104.927 674.165 Q108.283 674.882 110.158 677.151 Q112.057 679.419 112.057 682.753 Q112.057 687.868 108.538 690.669 Q105.02 693.47 98.5382 693.47 Q96.3623 693.47 94.0475 693.03 Q91.7558 692.614 89.3021 691.757 L89.3021 687.243 Q91.2465 688.378 93.5613 688.956 Q95.8761 689.535 98.3993 689.535 Q102.797 689.535 105.089 687.799 Q107.404 686.063 107.404 682.753 Q107.404 679.697 105.251 677.984 Q103.121 676.248 99.3021 676.248 L95.2743 676.248 L95.2743 672.405 L99.4872 672.405 Q102.936 672.405 104.765 671.04 Q106.594 669.651 106.594 667.058 Q106.594 664.396 104.696 662.984 Q102.821 661.549 99.3021 661.549 Q97.3808 661.549 95.1817 661.966 Q92.9826 662.382 90.3438 663.262 L90.3438 659.095 Q93.0058 658.355 95.3206 657.984 Q97.6585 657.614 99.7187 657.614 Q105.043 657.614 108.145 660.044 Q111.246 662.452 111.246 666.572 Q111.246 669.442 109.603 671.433 Q107.959 673.401 104.927 674.165 Z" fill="#000000" fill-rule="nonzero" fill-opacity="1" /><path clip-path="url(#clip400)" d="M121.732 688.864 L129.371 688.864 L129.371 662.498 L121.061 664.165 L121.061 659.905 L129.325 658.239 L134.001 658.239 L134.001 688.864 L141.64 688.864 L141.64 692.799 L121.732 692.799 L121.732 688.864 Z" fill="#000000" fill-rule="nonzero" fill-opacity="1" /><path clip-path="url(#clip400)" d="M161.084 661.318 Q157.473 661.318 155.644 664.882 Q153.839 668.424 153.839 675.554 Q153.839 682.66 155.644 686.225 Q157.473 689.766 161.084 689.766 Q164.718 689.766 166.524 686.225 Q168.353 682.66 168.353 675.554 Q168.353 668.424 166.524 664.882 Q164.718 661.318 161.084 661.318 M161.084 657.614 Q166.894 657.614 169.95 662.22 Q173.029 666.804 173.029 675.554 Q173.029 684.28 169.95 688.887 Q166.894 693.47 161.084 693.47 Q155.274 693.47 152.195 688.887 Q149.14 684.28 149.14 675.554 Q149.14 666.804 152.195 662.22 Q155.274 657.614 161.084 657.614 Z" fill="#000000" fill-rule="nonzero" fill-opacity="1" /><path clip-path="url(#clip400)" d="M191.246 661.318 Q187.635 661.318 185.806 664.882 Q184.001 668.424 184.001 675.554 Q184.001 682.66 185.806 686.225 Q187.635 689.766 191.246 689.766 Q194.88 689.766 196.686 686.225 Q198.514 682.66 198.514 675.554 Q198.514 668.424 196.686 664.882 Q194.88 661.318 191.246 661.318 M191.246 657.614 Q197.056 657.614 200.112 662.22 Q203.19 666.804 203.19 675.554 Q203.19 684.28 200.112 688.887 Q197.056 693.47 191.246 693.47 Q185.436 693.47 182.357 688.887 Q179.302 684.28 179.302 675.554 Q179.302 666.804 182.357 662.22 Q185.436 657.614 191.246 657.614 Z" fill="#000000" fill-rule="nonzero" fill-opacity="1" /><path clip-path="url(#clip400)" d="M50.9921 449.385 L80.6679 449.385 L80.6679 453.32 L50.9921 453.32 L50.9921 449.385 Z" fill="#000000" fill-rule="nonzero" fill-opacity="1" /><path clip-path="url(#clip400)" d="M104.927 447.579 Q108.283 448.297 110.158 450.565 Q112.057 452.834 112.057 456.167 Q112.057 461.283 108.538 464.084 Q105.02 466.884 98.5382 466.884 Q96.3623 466.884 94.0475 466.445 Q91.7558 466.028 89.3021 465.172 L89.3021 460.658 Q91.2465 461.792 93.5613 462.371 Q95.8761 462.949 98.3993 462.949 Q102.797 462.949 105.089 461.213 Q107.404 459.477 107.404 456.167 Q107.404 453.111 105.251 451.398 Q103.121 449.662 99.3021 449.662 L95.2743 449.662 L95.2743 445.82 L99.4872 445.82 Q102.936 445.82 104.765 444.454 Q106.594 443.065 106.594 440.473 Q106.594 437.811 104.696 436.399 Q102.821 434.963 99.3021 434.963 Q97.3808 434.963 95.1817 435.38 Q92.9826 435.797 90.3438 436.676 L90.3438 432.51 Q93.0058 431.769 95.3206 431.399 Q97.6585 431.028 99.7187 431.028 Q105.043 431.028 108.145 433.459 Q111.246 435.866 111.246 439.986 Q111.246 442.857 109.603 444.848 Q107.959 446.815 104.927 447.579 Z" fill="#000000" fill-rule="nonzero" fill-opacity="1" /><path clip-path="url(#clip400)" d="M130.922 434.732 Q127.311 434.732 125.482 438.297 Q123.677 441.838 123.677 448.968 Q123.677 456.074 125.482 459.639 Q127.311 463.181 130.922 463.181 Q134.556 463.181 136.362 459.639 Q138.191 456.074 138.191 448.968 Q138.191 441.838 136.362 438.297 Q134.556 434.732 130.922 434.732 M130.922 431.028 Q136.732 431.028 139.788 435.635 Q142.867 440.218 142.867 448.968 Q142.867 457.695 139.788 462.301 Q136.732 466.884 130.922 466.884 Q125.112 466.884 122.033 462.301 Q118.978 457.695 118.978 448.968 Q118.978 440.218 122.033 435.635 Q125.112 431.028 130.922 431.028 Z" fill="#000000" fill-rule="nonzero" fill-opacity="1" /><path clip-path="url(#clip400)" d="M161.084 434.732 Q157.473 434.732 155.644 438.297 Q153.839 441.838 153.839 448.968 Q153.839 456.074 155.644 459.639 Q157.473 463.181 161.084 463.181 Q164.718 463.181 166.524 459.639 Q168.353 456.074 168.353 448.968 Q168.353 441.838 166.524 438.297 Q164.718 434.732 161.084 434.732 M161.084 431.028 Q166.894 431.028 169.95 435.635 Q173.029 440.218 173.029 448.968 Q173.029 457.695 169.95 462.301 Q166.894 466.884 161.084 466.884 Q155.274 466.884 152.195 462.301 Q149.14 457.695 149.14 448.968 Q149.14 440.218 152.195 435.635 Q155.274 431.028 161.084 431.028 Z" fill="#000000" fill-rule="nonzero" fill-opacity="1" /><path clip-path="url(#clip400)" d="M191.246 434.732 Q187.635 434.732 185.806 438.297 Q184.001 441.838 184.001 448.968 Q184.001 456.074 185.806 459.639 Q187.635 463.181 191.246 463.181 Q194.88 463.181 196.686 459.639 Q198.514 456.074 198.514 448.968 Q198.514 441.838 196.686 438.297 Q194.88 434.732 191.246 434.732 M191.246 431.028 Q197.056 431.028 200.112 435.635 Q203.19 440.218 203.19 448.968 Q203.19 457.695 200.112 462.301 Q197.056 466.884 191.246 466.884 Q185.436 466.884 182.357 462.301 Q179.302 457.695 179.302 448.968 Q179.302 440.218 182.357 435.635 Q185.436 431.028 191.246 431.028 Z" fill="#000000" fill-rule="nonzero" fill-opacity="1" /><path clip-path="url(#clip400)" d="M50.9921 222.799 L80.6679 222.799 L80.6679 226.734 L50.9921 226.734 L50.9921 222.799 Z" fill="#000000" fill-rule="nonzero" fill-opacity="1" /><path clip-path="url(#clip400)" d="M94.7882 235.692 L111.108 235.692 L111.108 239.628 L89.1632 239.628 L89.1632 235.692 Q91.8252 232.938 96.4085 228.308 Q101.015 223.655 102.196 222.313 Q104.441 219.79 105.321 218.054 Q106.223 216.294 106.223 214.605 Q106.223 211.85 104.279 210.114 Q102.358 208.378 99.2558 208.378 Q97.0567 208.378 94.603 209.142 Q92.1725 209.905 89.3947 211.456 L89.3947 206.734 Q92.2188 205.6 94.6724 205.021 Q97.1261 204.443 99.1632 204.443 Q104.534 204.443 107.728 207.128 Q110.922 209.813 110.922 214.304 Q110.922 216.433 110.112 218.355 Q109.325 220.253 107.219 222.845 Q106.64 223.517 103.538 226.734 Q100.436 229.929 94.7882 235.692 Z" fill="#000000" fill-rule="nonzero" fill-opacity="1" /><path clip-path="url(#clip400)" d="M121.061 238.91 L121.061 234.651 Q122.82 235.484 124.626 235.924 Q126.432 236.364 128.168 236.364 Q132.797 236.364 135.228 233.262 Q137.681 230.137 138.029 223.794 Q136.686 225.785 134.626 226.85 Q132.566 227.915 130.066 227.915 Q124.881 227.915 121.848 224.79 Q118.839 221.642 118.839 216.202 Q118.839 210.878 121.987 207.66 Q125.135 204.443 130.367 204.443 Q136.362 204.443 139.51 209.049 Q142.681 213.632 142.681 222.382 Q142.681 230.554 138.793 235.438 Q134.927 240.299 128.376 240.299 Q126.617 240.299 124.811 239.952 Q123.006 239.604 121.061 238.91 M130.367 224.257 Q133.515 224.257 135.344 222.105 Q137.195 219.952 137.195 216.202 Q137.195 212.475 135.344 210.322 Q133.515 208.146 130.367 208.146 Q127.219 208.146 125.367 210.322 Q123.538 212.475 123.538 216.202 Q123.538 219.952 125.367 222.105 Q127.219 224.257 130.367 224.257 Z" fill="#000000" fill-rule="nonzero" fill-opacity="1" /><path clip-path="url(#clip400)" d="M161.084 208.146 Q157.473 208.146 155.644 211.711 Q153.839 215.253 153.839 222.382 Q153.839 229.489 155.644 233.054 Q157.473 236.595 161.084 236.595 Q164.718 236.595 166.524 233.054 Q168.353 229.489 168.353 222.382 Q168.353 215.253 166.524 211.711 Q164.718 208.146 161.084 208.146 M161.084 204.443 Q166.894 204.443 169.95 209.049 Q173.029 213.632 173.029 222.382 Q173.029 231.109 169.95 235.716 Q166.894 240.299 161.084 240.299 Q155.274 240.299 152.195 235.716 Q149.14 231.109 149.14 222.382 Q149.14 213.632 152.195 209.049 Q155.274 204.443 161.084 204.443 Z" fill="#000000" fill-rule="nonzero" fill-opacity="1" /><path clip-path="url(#clip400)" d="M191.246 208.146 Q187.635 208.146 185.806 211.711 Q184.001 215.253 184.001 222.382 Q184.001 229.489 185.806 233.054 Q187.635 236.595 191.246 236.595 Q194.88 236.595 196.686 233.054 Q198.514 229.489 198.514 222.382 Q198.514 215.253 196.686 211.711 Q194.88 208.146 191.246 208.146 M191.246 204.443 Q197.056 204.443 200.112 209.049 Q203.19 213.632 203.19 222.382 Q203.19 231.109 200.112 235.716 Q197.056 240.299 191.246 240.299 Q185.436 240.299 182.357 235.716 Q179.302 231.109 179.302 222.382 Q179.302 213.632 182.357 209.049 Q185.436 204.443 191.246 204.443 Z" fill="#000000" fill-rule="nonzero" fill-opacity="1" /><polyline clip-path="url(#clip402)" style="stroke:#009af9; stroke-linecap:round; stroke-linejoin:round; stroke-width:4; stroke-opacity:1; fill:none" points="299.008,108.281 520.556,102.027 742.104,91.2612 963.652,87.9763 1185.2,334.124 1406.75,333.993 1628.29,1055.12 1849.84,1052.3 2071.39,1445.72 2292.94,1438.57 "/>
<path clip-path="url(#clip400)" d="M2018.52 198.898 L2282.3 198.898 L2282.3 95.2176 L2018.52 95.2176  Z" fill="#ffffff" fill-rule="evenodd" fill-opacity="1"/>
<polyline clip-path="url(#clip400)" style="stroke:#000000; stroke-linecap:round; stroke-linejoin:round; stroke-width:4; stroke-opacity:1; fill:none" points="2018.52,198.898 2282.3,198.898 2282.3,95.2176 2018.52,95.2176 2018.52,198.898 "/>
<polyline clip-path="url(#clip400)" style="stroke:#009af9; stroke-linecap:round; stroke-linejoin:round; stroke-width:4; stroke-opacity:1; fill:none" points="2042,147.058 2182.91,147.058 "/>
<path clip-path="url(#clip400)" d="M2220.23 166.745 Q2218.43 171.375 2216.71 172.787 Q2215 174.199 2212.13 174.199 L2208.73 174.199 L2208.73 170.634 L2211.23 170.634 Q2212.99 170.634 2213.96 169.8 Q2214.93 168.967 2216.11 165.865 L2216.88 163.921 L2206.39 138.412 L2210.9 138.412 L2219.01 158.689 L2227.11 138.412 L2231.62 138.412 L2220.23 166.745 Z" fill="#000000" fill-rule="nonzero" fill-opacity="1" /><path clip-path="url(#clip400)" d="M2238.91 160.402 L2246.55 160.402 L2246.55 134.037 L2238.24 135.703 L2238.24 131.444 L2246.5 129.778 L2251.18 129.778 L2251.18 160.402 L2258.82 160.402 L2258.82 164.338 L2238.91 164.338 L2238.91 160.402 Z" fill="#000000" fill-rule="nonzero" fill-opacity="1" /></svg>
