<?xml version="1.0" encoding="utf-8"?>
<svg xmlns="http://www.w3.org/2000/svg" xmlns:xlink="http://www.w3.org/1999/xlink" width="600" height="400" viewBox="0 0 2400 1600">
<defs>
  <clipPath id="clip930">
    <rect x="0" y="0" width="2400" height="1600"/>
  </clipPath>
</defs>
<path clip-path="url(#clip930)" d="M0 1600 L2400 1600 L2400 0 L0 0  Z" fill="#ffffff" fill-rule="evenodd" fill-opacity="1"/>
<defs>
  <clipPath id="clip931">
    <rect x="480" y="0" width="1681" height="1600"/>
  </clipPath>
</defs>
<path clip-path="url(#clip930)" d="M209.029 1486.45 L2352.76 1486.45 L2352.76 47.2441 L209.029 47.2441  Z" fill="#ffffff" fill-rule="evenodd" fill-opacity="1"/>
<defs>
  <clipPath id="clip932">
    <rect x="209" y="47" width="2145" height="1440"/>
  </clipPath>
</defs>
<polyline clip-path="url(#clip932)" style="stroke:#000000; stroke-linecap:round; stroke-linejoin:round; stroke-width:2; stroke-opacity:0.1; fill:none" points="269.7,1486.45 269.7,47.2441 "/>
<polyline clip-path="url(#clip932)" style="stroke:#000000; stroke-linecap:round; stroke-linejoin:round; stroke-width:2; stroke-opacity:0.1; fill:none" points="775.549,1486.45 775.549,47.2441 "/>
<polyline clip-path="url(#clip932)" style="stroke:#000000; stroke-linecap:round; stroke-linejoin:round; stroke-width:2; stroke-opacity:0.1; fill:none" points="1281.4,1486.45 1281.4,47.2441 "/>
<polyline clip-path="url(#clip932)" style="stroke:#000000; stroke-linecap:round; stroke-linejoin:round; stroke-width:2; stroke-opacity:0.1; fill:none" points="1787.25,1486.45 1787.25,47.2441 "/>
<polyline clip-path="url(#clip932)" style="stroke:#000000; stroke-linecap:round; stroke-linejoin:round; stroke-width:2; stroke-opacity:0.1; fill:none" points="2293.1,1486.45 2293.1,47.2441 "/>
<polyline clip-path="url(#clip930)" style="stroke:#000000; stroke-linecap:round; stroke-linejoin:round; stroke-width:4; stroke-opacity:1; fill:none" points="209.029,1486.45 2352.76,1486.45 "/>
<polyline clip-path="url(#clip930)" style="stroke:#000000; stroke-linecap:round; stroke-linejoin:round; stroke-width:4; stroke-opacity:1; fill:none" points="269.7,1486.45 269.7,1467.55 "/>
<polyline clip-path="url(#clip930)" style="stroke:#000000; stroke-linecap:round; stroke-linejoin:round; stroke-width:4; stroke-opacity:1; fill:none" points="775.549,1486.45 775.549,1467.55 "/>
<polyline clip-path="url(#clip930)" style="stroke:#000000; stroke-linecap:round; stroke-linejoin:round; stroke-width:4; stroke-opacity:1; fill:none" points="1281.4,1486.45 1281.4,1467.55 "/>
<polyline clip-path="url(#clip930)" style="stroke:#000000; stroke-linecap:round; stroke-linejoin:round; stroke-width:4; stroke-opacity:1; fill:none" points="1787.25,1486.45 1787.25,1467.55 "/>
<polyline clip-path="url(#clip930)" style="stroke:#000000; stroke-linecap:round; stroke-linejoin:round; stroke-width:4; stroke-opacity:1; fill:none" points="2293.1,1486.45 2293.1,1467.55 "/>
<path clip-path="url(#clip930)" d="M269.7 1517.37 Q266.089 1517.37 264.26 1520.93 Q262.455 1524.47 262.455 1531.6 Q262.455 1538.71 264.26 1542.27 Q266.089 1545.82 269.7 1545.82 Q273.334 1545.82 275.14 1542.27 Q276.969 1538.71 276.969 1531.6 Q276.969 1524.47 275.14 1520.93 Q273.334 1517.37 269.7 1517.37 M269.7 1513.66 Q275.51 1513.66 278.566 1518.27 Q281.644 1522.85 281.644 1531.6 Q281.644 1540.33 278.566 1544.94 Q275.51 1549.52 269.7 1549.52 Q263.89 1549.52 260.811 1544.94 Q257.756 1540.33 257.756 1531.6 Q257.756 1522.85 260.811 1518.27 Q263.89 1513.66 269.7 1513.66 Z" fill="#000000" fill-rule="nonzero" fill-opacity="1" /><path clip-path="url(#clip930)" d="M735.167 1514.29 L753.524 1514.29 L753.524 1518.22 L739.45 1518.22 L739.45 1526.7 Q740.468 1526.35 741.487 1526.19 Q742.505 1526 743.524 1526 Q749.311 1526 752.69 1529.17 Q756.07 1532.34 756.07 1537.76 Q756.07 1543.34 752.598 1546.44 Q749.126 1549.52 742.806 1549.52 Q740.63 1549.52 738.362 1549.15 Q736.116 1548.78 733.709 1548.04 L733.709 1543.34 Q735.792 1544.47 738.015 1545.03 Q740.237 1545.58 742.714 1545.58 Q746.718 1545.58 749.056 1543.48 Q751.394 1541.37 751.394 1537.76 Q751.394 1534.15 749.056 1532.04 Q746.718 1529.94 742.714 1529.94 Q740.839 1529.94 738.964 1530.35 Q737.112 1530.77 735.167 1531.65 L735.167 1514.29 Z" fill="#000000" fill-rule="nonzero" fill-opacity="1" /><path clip-path="url(#clip930)" d="M775.283 1517.37 Q771.672 1517.37 769.843 1520.93 Q768.038 1524.47 768.038 1531.6 Q768.038 1538.71 769.843 1542.27 Q771.672 1545.82 775.283 1545.82 Q778.917 1545.82 780.723 1542.27 Q782.551 1538.71 782.551 1531.6 Q782.551 1524.47 780.723 1520.93 Q778.917 1517.37 775.283 1517.37 M775.283 1513.66 Q781.093 1513.66 784.149 1518.27 Q787.227 1522.85 787.227 1531.6 Q787.227 1540.33 784.149 1544.94 Q781.093 1549.52 775.283 1549.52 Q769.473 1549.52 766.394 1544.94 Q763.338 1540.33 763.338 1531.6 Q763.338 1522.85 766.394 1518.27 Q769.473 1513.66 775.283 1513.66 Z" fill="#000000" fill-rule="nonzero" fill-opacity="1" /><path clip-path="url(#clip930)" d="M805.445 1517.37 Q801.834 1517.37 800.005 1520.93 Q798.199 1524.47 798.199 1531.6 Q798.199 1538.71 800.005 1542.27 Q801.834 1545.82 805.445 1545.82 Q809.079 1545.82 810.885 1542.27 Q812.713 1538.71 812.713 1531.6 Q812.713 1524.47 810.885 1520.93 Q809.079 1517.37 805.445 1517.37 M805.445 1513.66 Q811.255 1513.66 814.31 1518.27 Q817.389 1522.85 817.389 1531.6 Q817.389 1540.33 814.31 1544.94 Q811.255 1549.52 805.445 1549.52 Q799.635 1549.52 796.556 1544.94 Q793.5 1540.33 793.5 1531.6 Q793.5 1522.85 796.556 1518.27 Q799.635 1513.66 805.445 1513.66 Z" fill="#000000" fill-rule="nonzero" fill-opacity="1" /><path clip-path="url(#clip930)" d="M1225.92 1544.91 L1233.56 1544.91 L1233.56 1518.55 L1225.25 1520.21 L1225.25 1515.95 L1233.52 1514.29 L1238.19 1514.29 L1238.19 1544.91 L1245.83 1544.91 L1245.83 1548.85 L1225.92 1548.85 L1225.92 1544.91 Z" fill="#000000" fill-rule="nonzero" fill-opacity="1" /><path clip-path="url(#clip930)" d="M1265.28 1517.37 Q1261.66 1517.37 1259.84 1520.93 Q1258.03 1524.47 1258.03 1531.6 Q1258.03 1538.71 1259.84 1542.27 Q1261.66 1545.82 1265.28 1545.82 Q1268.91 1545.82 1270.72 1542.27 Q1272.54 1538.71 1272.54 1531.6 Q1272.54 1524.47 1270.72 1520.93 Q1268.91 1517.37 1265.28 1517.37 M1265.28 1513.66 Q1271.09 1513.66 1274.14 1518.27 Q1277.22 1522.85 1277.22 1531.6 Q1277.22 1540.33 1274.14 1544.94 Q1271.09 1549.52 1265.28 1549.52 Q1259.47 1549.52 1256.39 1544.94 Q1253.33 1540.33 1253.33 1531.6 Q1253.33 1522.85 1256.39 1518.27 Q1259.47 1513.66 1265.28 1513.66 Z" fill="#000000" fill-rule="nonzero" fill-opacity="1" /><path clip-path="url(#clip930)" d="M1295.44 1517.37 Q1291.83 1517.37 1290 1520.93 Q1288.19 1524.47 1288.19 1531.6 Q1288.19 1538.71 1290 1542.27 Q1291.83 1545.82 1295.44 1545.82 Q1299.07 1545.82 1300.88 1542.27 Q1302.71 1538.71 1302.71 1531.6 Q1302.71 1524.47 1300.88 1520.93 Q1299.07 1517.37 1295.44 1517.37 M1295.44 1513.66 Q1301.25 1513.66 1304.3 1518.27 Q1307.38 1522.85 1307.38 1531.6 Q1307.38 1540.33 1304.3 1544.94 Q1301.25 1549.52 1295.44 1549.52 Q1289.63 1549.52 1286.55 1544.94 Q1283.49 1540.33 1283.49 1531.6 Q1283.49 1522.85 1286.55 1518.27 Q1289.63 1513.66 1295.44 1513.66 Z" fill="#000000" fill-rule="nonzero" fill-opacity="1" /><path clip-path="url(#clip930)" d="M1325.6 1517.37 Q1321.99 1517.37 1320.16 1520.93 Q1318.35 1524.47 1318.35 1531.6 Q1318.35 1538.71 1320.16 1542.27 Q1321.99 1545.82 1325.6 1545.82 Q1329.23 1545.82 1331.04 1542.27 Q1332.87 1538.71 1332.87 1531.6 Q1332.87 1524.47 1331.04 1520.93 Q1329.23 1517.37 1325.6 1517.37 M1325.6 1513.66 Q1331.41 1513.66 1334.46 1518.27 Q1337.54 1522.85 1337.54 1531.6 Q1337.54 1540.33 1334.46 1544.94 Q1331.41 1549.52 1325.6 1549.52 Q1319.79 1549.52 1316.71 1544.94 Q1313.65 1540.33 1313.65 1531.6 Q1313.65 1522.85 1316.71 1518.27 Q1319.79 1513.66 1325.6 1513.66 Z" fill="#000000" fill-rule="nonzero" fill-opacity="1" /><path clip-path="url(#clip930)" d="M1731.77 1544.91 L1739.41 1544.91 L1739.41 1518.55 L1731.1 1520.21 L1731.1 1515.95 L1739.37 1514.29 L1744.04 1514.29 L1744.04 1544.91 L1751.68 1544.91 L1751.68 1548.85 L1731.77 1548.85 L1731.77 1544.91 Z" fill="#000000" fill-rule="nonzero" fill-opacity="1" /><path clip-path="url(#clip930)" d="M1761.17 1514.29 L1779.53 1514.29 L1779.53 1518.22 L1765.45 1518.22 L1765.45 1526.7 Q1766.47 1526.35 1767.49 1526.19 Q1768.51 1526 1769.53 1526 Q1775.31 1526 1778.69 1529.17 Q1782.07 1532.34 1782.07 1537.76 Q1782.07 1543.34 1778.6 1546.44 Q1775.13 1549.52 1768.81 1549.52 Q1766.63 1549.52 1764.37 1549.15 Q1762.12 1548.78 1759.71 1548.04 L1759.71 1543.34 Q1761.8 1544.47 1764.02 1545.03 Q1766.24 1545.58 1768.72 1545.58 Q1772.72 1545.58 1775.06 1543.48 Q1777.4 1541.37 1777.4 1537.76 Q1777.4 1534.15 1775.06 1532.04 Q1772.72 1529.94 1768.72 1529.94 Q1766.84 1529.94 1764.97 1530.35 Q1763.12 1530.77 1761.17 1531.65 L1761.17 1514.29 Z" fill="#000000" fill-rule="nonzero" fill-opacity="1" /><path clip-path="url(#clip930)" d="M1801.29 1517.37 Q1797.68 1517.37 1795.85 1520.93 Q1794.04 1524.47 1794.04 1531.6 Q1794.04 1538.71 1795.85 1542.27 Q1797.68 1545.82 1801.29 1545.82 Q1804.92 1545.82 1806.73 1542.27 Q1808.55 1538.71 1808.55 1531.6 Q1808.55 1524.47 1806.73 1520.93 Q1804.92 1517.37 1801.29 1517.37 M1801.29 1513.66 Q1807.1 1513.66 1810.15 1518.27 Q1813.23 1522.85 1813.23 1531.6 Q1813.23 1540.33 1810.15 1544.94 Q1807.1 1549.52 1801.29 1549.52 Q1795.48 1549.52 1792.4 1544.94 Q1789.34 1540.33 1789.34 1531.6 Q1789.34 1522.85 1792.4 1518.27 Q1795.48 1513.66 1801.29 1513.66 Z" fill="#000000" fill-rule="nonzero" fill-opacity="1" /><path clip-path="url(#clip930)" d="M1831.45 1517.37 Q1827.84 1517.37 1826.01 1520.93 Q1824.2 1524.47 1824.2 1531.6 Q1824.2 1538.71 1826.01 1542.27 Q1827.84 1545.82 1831.45 1545.82 Q1835.08 1545.82 1836.89 1542.27 Q1838.72 1538.71 1838.72 1531.6 Q1838.72 1524.47 1836.89 1520.93 Q1835.08 1517.37 1831.45 1517.37 M1831.45 1513.66 Q1837.26 1513.66 1840.31 1518.27 Q1843.39 1522.85 1843.39 1531.6 Q1843.39 1540.33 1840.31 1544.94 Q1837.26 1549.52 1831.45 1549.52 Q1825.64 1549.52 1822.56 1544.94 Q1819.5 1540.33 1819.5 1531.6 Q1819.5 1522.85 1822.56 1518.27 Q1825.64 1513.66 1831.45 1513.66 Z" fill="#000000" fill-rule="nonzero" fill-opacity="1" /><path clip-path="url(#clip930)" d="M2241.71 1544.91 L2258.03 1544.91 L2258.03 1548.85 L2236.08 1548.85 L2236.08 1544.91 Q2238.74 1542.16 2243.33 1537.53 Q2247.93 1532.88 2249.11 1531.53 Q2251.36 1529.01 2252.24 1527.27 Q2253.14 1525.51 2253.14 1523.82 Q2253.14 1521.07 2251.2 1519.33 Q2249.28 1517.6 2246.18 1517.6 Q2243.98 1517.6 2241.52 1518.36 Q2239.09 1519.13 2236.31 1520.68 L2236.31 1515.95 Q2239.14 1514.82 2241.59 1514.24 Q2244.05 1513.66 2246.08 1513.66 Q2251.45 1513.66 2254.65 1516.35 Q2257.84 1519.03 2257.84 1523.52 Q2257.84 1525.65 2257.03 1527.57 Q2256.24 1529.47 2254.14 1532.07 Q2253.56 1532.74 2250.46 1535.95 Q2247.36 1539.15 2241.71 1544.91 Z" fill="#000000" fill-rule="nonzero" fill-opacity="1" /><path clip-path="url(#clip930)" d="M2277.84 1517.37 Q2274.23 1517.37 2272.4 1520.93 Q2270.6 1524.47 2270.6 1531.6 Q2270.6 1538.71 2272.4 1542.27 Q2274.23 1545.82 2277.84 1545.82 Q2281.48 1545.82 2283.28 1542.27 Q2285.11 1538.71 2285.11 1531.6 Q2285.11 1524.47 2283.28 1520.93 Q2281.48 1517.37 2277.84 1517.37 M2277.84 1513.66 Q2283.65 1513.66 2286.71 1518.27 Q2289.79 1522.85 2289.79 1531.6 Q2289.79 1540.33 2286.71 1544.94 Q2283.65 1549.52 2277.84 1549.52 Q2272.03 1549.52 2268.95 1544.94 Q2265.9 1540.33 2265.9 1531.6 Q2265.9 1522.85 2268.95 1518.27 Q2272.03 1513.66 2277.84 1513.66 Z" fill="#000000" fill-rule="nonzero" fill-opacity="1" /><path clip-path="url(#clip930)" d="M2308 1517.37 Q2304.39 1517.37 2302.56 1520.93 Q2300.76 1524.47 2300.76 1531.6 Q2300.76 1538.71 2302.56 1542.27 Q2304.39 1545.82 2308 1545.82 Q2311.64 1545.82 2313.44 1542.27 Q2315.27 1538.71 2315.27 1531.6 Q2315.27 1524.47 2313.44 1520.93 Q2311.64 1517.37 2308 1517.37 M2308 1513.66 Q2313.81 1513.66 2316.87 1518.27 Q2319.95 1522.85 2319.95 1531.6 Q2319.95 1540.33 2316.87 1544.94 Q2313.81 1549.52 2308 1549.52 Q2302.19 1549.52 2299.11 1544.94 Q2296.06 1540.33 2296.06 1531.6 Q2296.06 1522.85 2299.11 1518.27 Q2302.19 1513.66 2308 1513.66 Z" fill="#000000" fill-rule="nonzero" fill-opacity="1" /><path clip-path="url(#clip930)" d="M2338.17 1517.37 Q2334.55 1517.37 2332.73 1520.93 Q2330.92 1524.47 2330.92 1531.6 Q2330.92 1538.71 2332.73 1542.27 Q2334.55 1545.82 2338.17 1545.82 Q2341.8 1545.82 2343.61 1542.27 Q2345.43 1538.71 2345.43 1531.6 Q2345.43 1524.47 2343.61 1520.93 Q2341.8 1517.37 2338.17 1517.37 M2338.17 1513.66 Q2343.98 1513.66 2347.03 1518.27 Q2350.11 1522.85 2350.11 1531.6 Q2350.11 1540.33 2347.03 1544.94 Q2343.98 1549.52 2338.17 1549.52 Q2332.36 1549.52 2329.28 1544.94 Q2326.22 1540.33 2326.22 1531.6 Q2326.22 1522.85 2329.28 1518.27 Q2332.36 1513.66 2338.17 1513.66 Z" fill="#000000" fill-rule="nonzero" fill-opacity="1" /><polyline clip-path="url(#clip932)" style="stroke:#000000; stroke-linecap:round; stroke-linejoin:round; stroke-width:2; stroke-opacity:0.1; fill:none" points="209.029,1275.15 2352.76,1275.15 "/>
<polyline clip-path="url(#clip932)" style="stroke:#000000; stroke-linecap:round; stroke-linejoin:round; stroke-width:2; stroke-opacity:0.1; fill:none" points="209.029,1059.46 2352.76,1059.46 "/>
<polyline clip-path="url(#clip932)" style="stroke:#000000; stroke-linecap:round; stroke-linejoin:round; stroke-width:2; stroke-opacity:0.1; fill:none" points="209.029,843.769 2352.76,843.769 "/>
<polyline clip-path="url(#clip932)" style="stroke:#000000; stroke-linecap:round; stroke-linejoin:round; stroke-width:2; stroke-opacity:0.1; fill:none" points="209.029,628.078 2352.76,628.078 "/>
<polyline clip-path="url(#clip932)" style="stroke:#000000; stroke-linecap:round; stroke-linejoin:round; stroke-width:2; stroke-opacity:0.1; fill:none" points="209.029,412.386 2352.76,412.386 "/>
<polyline clip-path="url(#clip932)" style="stroke:#000000; stroke-linecap:round; stroke-linejoin:round; stroke-width:2; stroke-opacity:0.1; fill:none" points="209.029,196.695 2352.76,196.695 "/>
<polyline clip-path="url(#clip930)" style="stroke:#000000; stroke-linecap:round; stroke-linejoin:round; stroke-width:4; stroke-opacity:1; fill:none" points="209.029,1486.45 209.029,47.2441 "/>
<polyline clip-path="url(#clip930)" style="stroke:#000000; stroke-linecap:round; stroke-linejoin:round; stroke-width:4; stroke-opacity:1; fill:none" points="209.029,1275.15 227.926,1275.15 "/>
<polyline clip-path="url(#clip930)" style="stroke:#000000; stroke-linecap:round; stroke-linejoin:round; stroke-width:4; stroke-opacity:1; fill:none" points="209.029,1059.46 227.926,1059.46 "/>
<polyline clip-path="url(#clip930)" style="stroke:#000000; stroke-linecap:round; stroke-linejoin:round; stroke-width:4; stroke-opacity:1; fill:none" points="209.029,843.769 227.926,843.769 "/>
<polyline clip-path="url(#clip930)" style="stroke:#000000; stroke-linecap:round; stroke-linejoin:round; stroke-width:4; stroke-opacity:1; fill:none" points="209.029,628.078 227.926,628.078 "/>
<polyline clip-path="url(#clip930)" style="stroke:#000000; stroke-linecap:round; stroke-linejoin:round; stroke-width:4; stroke-opacity:1; fill:none" points="209.029,412.386 227.926,412.386 "/>
<polyline clip-path="url(#clip930)" style="stroke:#000000; stroke-linecap:round; stroke-linejoin:round; stroke-width:4; stroke-opacity:1; fill:none" points="209.029,196.695 227.926,196.695 "/>
<path clip-path="url(#clip930)" d="M50.9921 1275.6 L80.6679 1275.6 L80.6679 1279.54 L50.9921 1279.54 L50.9921 1275.6 Z" fill="#000000" fill-rule="nonzero" fill-opacity="1" /><path clip-path="url(#clip930)" d="M103.608 1261.95 L91.8021 1280.4 L103.608 1280.4 L103.608 1261.95 M102.381 1257.87 L108.26 1257.87 L108.26 1280.4 L113.191 1280.4 L113.191 1284.28 L108.26 1284.28 L108.26 1292.43 L103.608 1292.43 L103.608 1284.28 L88.0058 1284.28 L88.0058 1279.77 L102.381 1257.87 Z" fill="#000000" fill-rule="nonzero" fill-opacity="1" /><path clip-path="url(#clip930)" d="M120.969 1257.87 L139.325 1257.87 L139.325 1261.81 L125.251 1261.81 L125.251 1270.28 Q126.27 1269.93 127.288 1269.77 Q128.307 1269.58 129.325 1269.58 Q135.112 1269.58 138.492 1272.76 Q141.871 1275.93 141.871 1281.34 Q141.871 1286.92 138.399 1290.02 Q134.927 1293.1 128.607 1293.1 Q126.432 1293.1 124.163 1292.73 Q121.918 1292.36 119.51 1291.62 L119.51 1286.92 Q121.594 1288.06 123.816 1288.61 Q126.038 1289.17 128.515 1289.17 Q132.519 1289.17 134.857 1287.06 Q137.195 1284.96 137.195 1281.34 Q137.195 1277.73 134.857 1275.63 Q132.519 1273.52 128.515 1273.52 Q126.64 1273.52 124.765 1273.94 Q122.913 1274.35 120.969 1275.23 L120.969 1257.87 Z" fill="#000000" fill-rule="nonzero" fill-opacity="1" /><path clip-path="url(#clip930)" d="M161.084 1260.95 Q157.473 1260.95 155.644 1264.52 Q153.839 1268.06 153.839 1275.19 Q153.839 1282.29 155.644 1285.86 Q157.473 1289.4 161.084 1289.4 Q164.718 1289.4 166.524 1285.86 Q168.353 1282.29 168.353 1275.19 Q168.353 1268.06 166.524 1264.52 Q164.718 1260.95 161.084 1260.95 M161.084 1257.25 Q166.894 1257.25 169.95 1261.85 Q173.029 1266.44 173.029 1275.19 Q173.029 1283.91 169.95 1288.52 Q166.894 1293.1 161.084 1293.1 Q155.274 1293.1 152.195 1288.52 Q149.14 1283.91 149.14 1275.19 Q149.14 1266.44 152.195 1261.85 Q155.274 1257.25 161.084 1257.25 Z" fill="#000000" fill-rule="nonzero" fill-opacity="1" /><path clip-path="url(#clip930)" d="M50.9921 1059.91 L80.6679 1059.91 L80.6679 1063.85 L50.9921 1063.85 L50.9921 1059.91 Z" fill="#000000" fill-rule="nonzero" fill-opacity="1" /><path clip-path="url(#clip930)" d="M103.608 1046.25 L91.8021 1064.7 L103.608 1064.7 L103.608 1046.25 M102.381 1042.18 L108.26 1042.18 L108.26 1064.7 L113.191 1064.7 L113.191 1068.59 L108.26 1068.59 L108.26 1076.74 L103.608 1076.74 L103.608 1068.59 L88.0058 1068.59 L88.0058 1064.08 L102.381 1042.18 Z" fill="#000000" fill-rule="nonzero" fill-opacity="1" /><path clip-path="url(#clip930)" d="M130.922 1045.26 Q127.311 1045.26 125.482 1048.82 Q123.677 1052.37 123.677 1059.5 Q123.677 1066.6 125.482 1070.17 Q127.311 1073.71 130.922 1073.71 Q134.556 1073.71 136.362 1070.17 Q138.191 1066.6 138.191 1059.5 Q138.191 1052.37 136.362 1048.82 Q134.556 1045.26 130.922 1045.26 M130.922 1041.56 Q136.732 1041.56 139.788 1046.16 Q142.867 1050.75 142.867 1059.5 Q142.867 1068.22 139.788 1072.83 Q136.732 1077.41 130.922 1077.41 Q125.112 1077.41 122.033 1072.83 Q118.978 1068.22 118.978 1059.5 Q118.978 1050.75 122.033 1046.16 Q125.112 1041.56 130.922 1041.56 Z" fill="#000000" fill-rule="nonzero" fill-opacity="1" /><path clip-path="url(#clip930)" d="M161.084 1045.26 Q157.473 1045.26 155.644 1048.82 Q153.839 1052.37 153.839 1059.5 Q153.839 1066.6 155.644 1070.17 Q157.473 1073.71 161.084 1073.71 Q164.718 1073.71 166.524 1070.17 Q168.353 1066.6 168.353 1059.5 Q168.353 1052.37 166.524 1048.82 Q164.718 1045.26 161.084 1045.26 M161.084 1041.56 Q166.894 1041.56 169.95 1046.16 Q173.029 1050.75 173.029 1059.5 Q173.029 1068.22 169.95 1072.83 Q166.894 1077.41 161.084 1077.41 Q155.274 1077.41 152.195 1072.83 Q149.14 1068.22 149.14 1059.5 Q149.14 1050.75 152.195 1046.16 Q155.274 1041.56 161.084 1041.56 Z" fill="#000000" fill-rule="nonzero" fill-opacity="1" /><path clip-path="url(#clip930)" d="M50.9921 844.22 L80.6679 844.22 L80.6679 848.156 L50.9921 848.156 L50.9921 844.22 Z" fill="#000000" fill-rule="nonzero" fill-opacity="1" /><path clip-path="url(#clip930)" d="M104.927 842.415 Q108.283 843.133 110.158 845.401 Q112.057 847.67 112.057 851.003 Q112.057 856.119 108.538 858.919 Q105.02 861.72 98.5382 861.72 Q96.3623 861.72 94.0475 861.281 Q91.7558 860.864 89.3021 860.007 L89.3021 855.494 Q91.2465 856.628 93.5613 857.207 Q95.8761 857.785 98.3993 857.785 Q102.797 857.785 105.089 856.049 Q107.404 854.313 107.404 851.003 Q107.404 847.947 105.251 846.234 Q103.121 844.498 99.3021 844.498 L95.2743 844.498 L95.2743 840.656 L99.4872 840.656 Q102.936 840.656 104.765 839.29 Q106.594 837.901 106.594 835.308 Q106.594 832.646 104.696 831.234 Q102.821 829.799 99.3021 829.799 Q97.3808 829.799 95.1817 830.216 Q92.9826 830.633 90.3438 831.512 L90.3438 827.346 Q93.0058 826.605 95.3206 826.234 Q97.6585 825.864 99.7187 825.864 Q105.043 825.864 108.145 828.295 Q111.246 830.702 111.246 834.822 Q111.246 837.693 109.603 839.683 Q107.959 841.651 104.927 842.415 Z" fill="#000000" fill-rule="nonzero" fill-opacity="1" /><path clip-path="url(#clip930)" d="M120.969 826.489 L139.325 826.489 L139.325 830.424 L125.251 830.424 L125.251 838.896 Q126.27 838.549 127.288 838.387 Q128.307 838.202 129.325 838.202 Q135.112 838.202 138.492 841.373 Q141.871 844.545 141.871 849.961 Q141.871 855.54 138.399 858.642 Q134.927 861.72 128.607 861.72 Q126.432 861.72 124.163 861.35 Q121.918 860.98 119.51 860.239 L119.51 855.54 Q121.594 856.674 123.816 857.23 Q126.038 857.785 128.515 857.785 Q132.519 857.785 134.857 855.679 Q137.195 853.572 137.195 849.961 Q137.195 846.35 134.857 844.244 Q132.519 842.137 128.515 842.137 Q126.64 842.137 124.765 842.554 Q122.913 842.97 120.969 843.85 L120.969 826.489 Z" fill="#000000" fill-rule="nonzero" fill-opacity="1" /><path clip-path="url(#clip930)" d="M161.084 829.568 Q157.473 829.568 155.644 833.133 Q153.839 836.674 153.839 843.804 Q153.839 850.91 155.644 854.475 Q157.473 858.017 161.084 858.017 Q164.718 858.017 166.524 854.475 Q168.353 850.91 168.353 843.804 Q168.353 836.674 166.524 833.133 Q164.718 829.568 161.084 829.568 M161.084 825.864 Q166.894 825.864 169.95 830.471 Q173.029 835.054 173.029 843.804 Q173.029 852.531 169.95 857.137 Q166.894 861.72 161.084 861.72 Q155.274 861.72 152.195 857.137 Q149.14 852.531 149.14 843.804 Q149.14 835.054 152.195 830.471 Q155.274 825.864 161.084 825.864 Z" fill="#000000" fill-rule="nonzero" fill-opacity="1" /><path clip-path="url(#clip930)" d="M50.9921 628.529 L80.6679 628.529 L80.6679 632.464 L50.9921 632.464 L50.9921 628.529 Z" fill="#000000" fill-rule="nonzero" fill-opacity="1" /><path clip-path="url(#clip930)" d="M104.927 626.723 Q108.283 627.441 110.158 629.71 Q112.057 631.978 112.057 635.311 Q112.057 640.427 108.538 643.228 Q105.02 646.029 98.5382 646.029 Q96.3623 646.029 94.0475 645.589 Q91.7558 645.172 89.3021 644.316 L89.3021 639.802 Q91.2465 640.936 93.5613 641.515 Q95.8761 642.094 98.3993 642.094 Q102.797 642.094 105.089 640.358 Q107.404 638.622 107.404 635.311 Q107.404 632.256 105.251 630.543 Q103.121 628.807 99.3021 628.807 L95.2743 628.807 L95.2743 624.964 L99.4872 624.964 Q102.936 624.964 104.765 623.598 Q106.594 622.21 106.594 619.617 Q106.594 616.955 104.696 615.543 Q102.821 614.108 99.3021 614.108 Q97.3808 614.108 95.1817 614.524 Q92.9826 614.941 90.3438 615.821 L90.3438 611.654 Q93.0058 610.913 95.3206 610.543 Q97.6585 610.173 99.7187 610.173 Q105.043 610.173 108.145 612.603 Q111.246 615.011 111.246 619.131 Q111.246 622.001 109.603 623.992 Q107.959 625.96 104.927 626.723 Z" fill="#000000" fill-rule="nonzero" fill-opacity="1" /><path clip-path="url(#clip930)" d="M130.922 613.876 Q127.311 613.876 125.482 617.441 Q123.677 620.983 123.677 628.112 Q123.677 635.219 125.482 638.784 Q127.311 642.325 130.922 642.325 Q134.556 642.325 136.362 638.784 Q138.191 635.219 138.191 628.112 Q138.191 620.983 136.362 617.441 Q134.556 613.876 130.922 613.876 M130.922 610.173 Q136.732 610.173 139.788 614.779 Q142.867 619.362 142.867 628.112 Q142.867 636.839 139.788 641.446 Q136.732 646.029 130.922 646.029 Q125.112 646.029 122.033 641.446 Q118.978 636.839 118.978 628.112 Q118.978 619.362 122.033 614.779 Q125.112 610.173 130.922 610.173 Z" fill="#000000" fill-rule="nonzero" fill-opacity="1" /><path clip-path="url(#clip930)" d="M161.084 613.876 Q157.473 613.876 155.644 617.441 Q153.839 620.983 153.839 628.112 Q153.839 635.219 155.644 638.784 Q157.473 642.325 161.084 642.325 Q164.718 642.325 166.524 638.784 Q168.353 635.219 168.353 628.112 Q168.353 620.983 166.524 617.441 Q164.718 613.876 161.084 613.876 M161.084 610.173 Q166.894 610.173 169.95 614.779 Q173.029 619.362 173.029 628.112 Q173.029 636.839 169.95 641.446 Q166.894 646.029 161.084 646.029 Q155.274 646.029 152.195 641.446 Q149.14 636.839 149.14 628.112 Q149.14 619.362 152.195 614.779 Q155.274 610.173 161.084 610.173 Z" fill="#000000" fill-rule="nonzero" fill-opacity="1" /><path clip-path="url(#clip930)" d="M50.9921 412.837 L80.6679 412.837 L80.6679 416.773 L50.9921 416.773 L50.9921 412.837 Z" fill="#000000" fill-rule="nonzero" fill-opacity="1" /><path clip-path="url(#clip930)" d="M94.7882 425.731 L111.108 425.731 L111.108 429.666 L89.1632 429.666 L89.1632 425.731 Q91.8252 422.976 96.4085 418.347 Q101.015 413.694 102.196 412.351 Q104.441 409.828 105.321 408.092 Q106.223 406.333 106.223 404.643 Q106.223 401.888 104.279 400.152 Q102.358 398.416 99.2558 398.416 Q97.0567 398.416 94.603 399.18 Q92.1725 399.944 89.3947 401.495 L89.3947 396.773 Q92.2188 395.639 94.6724 395.06 Q97.1261 394.481 99.1632 394.481 Q104.534 394.481 107.728 397.166 Q110.922 399.851 110.922 404.342 Q110.922 406.472 110.112 408.393 Q109.325 410.291 107.219 412.884 Q106.64 413.555 103.538 416.773 Q100.436 419.967 94.7882 425.731 Z" fill="#000000" fill-rule="nonzero" fill-opacity="1" /><path clip-path="url(#clip930)" d="M120.969 395.106 L139.325 395.106 L139.325 399.041 L125.251 399.041 L125.251 407.513 Q126.27 407.166 127.288 407.004 Q128.307 406.819 129.325 406.819 Q135.112 406.819 138.492 409.99 Q141.871 413.162 141.871 418.578 Q141.871 424.157 138.399 427.259 Q134.927 430.337 128.607 430.337 Q126.432 430.337 124.163 429.967 Q121.918 429.597 119.51 428.856 L119.51 424.157 Q121.594 425.291 123.816 425.847 Q126.038 426.402 128.515 426.402 Q132.519 426.402 134.857 424.296 Q137.195 422.189 137.195 418.578 Q137.195 414.967 134.857 412.861 Q132.519 410.754 128.515 410.754 Q126.64 410.754 124.765 411.171 Q122.913 411.587 120.969 412.467 L120.969 395.106 Z" fill="#000000" fill-rule="nonzero" fill-opacity="1" /><path clip-path="url(#clip930)" d="M161.084 398.185 Q157.473 398.185 155.644 401.75 Q153.839 405.291 153.839 412.421 Q153.839 419.527 155.644 423.092 Q157.473 426.634 161.084 426.634 Q164.718 426.634 166.524 423.092 Q168.353 419.527 168.353 412.421 Q168.353 405.291 166.524 401.75 Q164.718 398.185 161.084 398.185 M161.084 394.481 Q166.894 394.481 169.95 399.088 Q173.029 403.671 173.029 412.421 Q173.029 421.148 169.95 425.754 Q166.894 430.337 161.084 430.337 Q155.274 430.337 152.195 425.754 Q149.14 421.148 149.14 412.421 Q149.14 403.671 152.195 399.088 Q155.274 394.481 161.084 394.481 Z" fill="#000000" fill-rule="nonzero" fill-opacity="1" /><path clip-path="url(#clip930)" d="M50.9921 197.146 L80.6679 197.146 L80.6679 201.081 L50.9921 201.081 L50.9921 197.146 Z" fill="#000000" fill-rule="nonzero" fill-opacity="1" /><path clip-path="url(#clip930)" d="M94.7882 210.039 L111.108 210.039 L111.108 213.975 L89.1632 213.975 L89.1632 210.039 Q91.8252 207.285 96.4085 202.655 Q101.015 198.002 102.196 196.66 Q104.441 194.137 105.321 192.401 Q106.223 190.641 106.223 188.952 Q106.223 186.197 104.279 184.461 Q102.358 182.725 99.2558 182.725 Q97.0567 182.725 94.603 183.489 Q92.1725 184.253 89.3947 185.803 L89.3947 181.081 Q92.2188 179.947 94.6724 179.368 Q97.1261 178.79 99.1632 178.79 Q104.534 178.79 107.728 181.475 Q110.922 184.16 110.922 188.651 Q110.922 190.78 110.112 192.702 Q109.325 194.6 107.219 197.192 Q106.64 197.864 103.538 201.081 Q100.436 204.276 94.7882 210.039 Z" fill="#000000" fill-rule="nonzero" fill-opacity="1" /><path clip-path="url(#clip930)" d="M130.922 182.493 Q127.311 182.493 125.482 186.058 Q123.677 189.6 123.677 196.729 Q123.677 203.836 125.482 207.401 Q127.311 210.942 130.922 210.942 Q134.556 210.942 136.362 207.401 Q138.191 203.836 138.191 196.729 Q138.191 189.6 136.362 186.058 Q134.556 182.493 130.922 182.493 M130.922 178.79 Q136.732 178.79 139.788 183.396 Q142.867 187.979 142.867 196.729 Q142.867 205.456 139.788 210.063 Q136.732 214.646 130.922 214.646 Q125.112 214.646 122.033 210.063 Q118.978 205.456 118.978 196.729 Q118.978 187.979 122.033 183.396 Q125.112 178.79 130.922 178.79 Z" fill="#000000" fill-rule="nonzero" fill-opacity="1" /><path clip-path="url(#clip930)" d="M161.084 182.493 Q157.473 182.493 155.644 186.058 Q153.839 189.6 153.839 196.729 Q153.839 203.836 155.644 207.401 Q157.473 210.942 161.084 210.942 Q164.718 210.942 166.524 207.401 Q168.353 203.836 168.353 196.729 Q168.353 189.6 166.524 186.058 Q164.718 182.493 161.084 182.493 M161.084 178.79 Q166.894 178.79 169.95 183.396 Q173.029 187.979 173.029 196.729 Q173.029 205.456 169.95 210.063 Q166.894 214.646 161.084 214.646 Q155.274 214.646 152.195 210.063 Q149.14 205.456 149.14 196.729 Q149.14 187.979 152.195 183.396 Q155.274 178.79 161.084 178.79 Z" fill="#000000" fill-rule="nonzero" fill-opacity="1" /><polyline clip-path="url(#clip932)" style="stroke:#009af9; stroke-linecap:round; stroke-linejoin:round; stroke-width:4; stroke-opacity:1; fill:none" points="269.7,529.976 270.712,529.881 271.723,562.676 272.735,562.566 273.747,377.173 274.759,377.07 275.77,469.706 276.782,469.625 277.794,487.469 278.805,487.383 279.817,430.498 280.829,430.409 281.84,334.795 282.852,334.723 283.864,310.747 284.876,310.675 285.887,540.544 286.899,540.444 287.911,385.111 288.922,385.032 289.934,301.562 290.946,301.469 291.957,355.281 292.969,355.208 293.981,370.056 294.992,369.964 296.004,438.452 297.016,438.382 298.028,232.261 299.039,232.201 300.051,491.848 301.063,491.753 302.074,416.973 303.086,416.88 304.098,336.246 305.109,336.172 306.121,521.297 307.133,521.196 308.145,351.057 309.156,350.984 310.168,479.289 311.18,479.193 312.191,190.03 313.203,189.98 314.215,452.31 315.226,452.222 316.238,535.234 317.25,535.127 318.262,448.43 319.273,448.34 320.285,443.137 321.297,443.054 322.308,374.271 323.32,374.209 324.332,489.624 325.343,489.518 326.355,531.184 327.367,531.079 328.379,644.182 329.39,644.057 330.402,465.437 331.414,465.33 332.425,578.237 333.437,578.131 334.449,334.473 335.46,334.394 336.472,393.76 337.484,393.68 338.496,596.134 339.507,596.027 340.519,577.651 341.531,577.529 342.542,690.765 343.554,690.646 344.566,411.191 345.577,411.121 346.589,455.194 347.601,455.101 348.612,573.25 349.624,573.112 350.636,562.405 351.648,562.316 352.659,340.214 353.671,340.168 354.683,481.724 355.694,481.609 356.706,564.63 357.718,564.519 358.729,393.262 359.741,393.198 360.753,377.969 361.765,377.913 362.776,630.521 363.788,630.435 364.8,531.847 365.811,531.75 366.823,561.297 367.835,561.195 368.846,637.807 369.858,637.708 370.87,773.782 371.882,773.641 372.893,296.533 373.905,296.468 374.917,586.538 375.928,586.419 376.94,604.197 377.952,604.063 378.963,691.099 379.975,690.99 380.987,387.824 381.999,387.757 383.01,378.705 384.022,378.627 385.034,407.566 386.045,407.455 387.057,614.732 388.069,614.612 389.08,378.656 390.092,378.566 391.104,461.491 392.115,461.413 393.127,574.182 394.139,574.089 395.151,499.946 396.162,499.854 397.174,771.652 398.186,771.492 399.197,438.898 400.209,438.799 401.221,753.622 402.232,753.504 403.244,339.07 404.256,339.005 405.268,541.776 406.279,541.662 407.291,513.482 408.303,513.408 409.314,480.429 410.326,480.34 411.338,767.78 412.349,767.645 413.361,516.627 414.373,516.524 415.385,502.758 416.396,502.664 417.408,485.442 418.42,485.352 419.431,533.528 420.443,533.429 421.455,403.362 422.466,403.302 423.478,665.755 424.49,665.644 425.502,88.0191 426.513,87.9763 427.525,268.881 428.537,268.819 429.548,667.477 430.56,667.349 431.572,502.992 432.583,502.902 433.595,436.283 434.607,436.218 435.619,421.273 436.63,421.193 437.642,561.269 438.654,561.178 439.665,494.012 440.677,493.924 441.689,404.982 442.7,404.897 443.712,345.351 444.724,345.285 445.735,523.16 446.747,523.084 447.759,745.825 448.771,745.685 449.782,715.501 450.794,715.394 451.806,428.656 452.817,428.561 453.829,494.67 454.841,494.581 455.852,537.171 456.864,537.091 457.876,416.217 458.888,416.128 459.899,682.898 460.911,682.783 461.923,523.635 462.934,523.558 463.946,452.682 464.958,452.589 465.969,676.872 466.981,676.719 467.993,567.547 469.005,567.442 470.016,594.065 471.028,593.945 472.04,351.918 473.051,351.853 474.063,631.276 475.075,631.135 476.086,531.973 477.098,531.89 478.11,526.126 479.122,526.019 480.133,762.274 481.145,762.156 482.157,506.862 483.168,506.757 484.18,702.006 485.192,701.872 486.203,287.779 487.215,287.722 488.227,554.262 489.239,554.17 490.25,560.013 491.262,559.895 492.274,380.161 493.285,380.096 494.297,354.716 495.309,354.635 496.32,433.06 497.332,432.973 498.344,713.033 499.355,712.896 500.367,434.949 501.379,434.864 502.391,371.213 503.402,371.135 504.414,569.432 505.426,569.348 506.437,482.245 507.449,482.174 508.461,418.831 509.472,418.735 510.484,514.518 511.496,514.43 512.508,404.501 513.519,404.439 514.531,646.795 515.543,646.689 516.554,490.81 517.566,490.706 518.578,643.21 519.589,643.075 520.601,488.733 521.613,488.642 522.625,539.601 523.636,539.507 524.648,458.955 525.66,458.875 526.671,923.286 527.683,923.108 528.695,648.796 529.706,648.66 530.718,361.935 531.73,361.858 532.742,539.854 533.753,539.765 534.765,652.086 535.777,651.999 536.788,446.776 537.8,446.691 538.812,682.46 539.823,682.339 540.835,620.791 541.847,620.694 542.859,602.351 543.87,602.246 544.882,415.965 545.894,415.876 546.905,638.791 547.917,638.708 548.929,497.451 549.94,497.342 550.952,656.062 551.964,655.942 552.975,459.66 553.987,459.58 554.999,605.621 556.011,605.519 557.022,563.651 558.034,563.553 559.046,230.096 560.057,230.043 561.069,563.294 562.081,563.194 563.092,564.978 564.104,564.893 565.116,487.148 566.128,487.09 567.139,564.869 568.151,564.791 569.163,696.841 570.174,696.7 571.186,642.458 572.198,642.323 573.209,517.908 574.221,517.81 575.233,633.117 576.245,633.03 577.256,622.393 578.268,622.312 579.28,540.147 580.291,540.044 581.303,550.445 582.315,550.362 583.326,593.443 584.338,593.338 585.35,532.622 586.362,532.522 587.373,537.097 588.385,537.032 589.397,522.924 590.408,522.828 591.42,616.941 592.432,616.859 593.443,668.041 594.455,667.933 595.467,647.051 596.478,646.96 597.49,581.904 598.502,581.82 599.514,886.101 600.525,885.931 601.537,596.75 602.549,596.655 603.56,567.976 604.572,567.866 605.584,530.243 606.595,530.146 607.607,800.921 608.619,800.795 609.631,461.007 610.642,460.915 611.654,657.549 612.666,657.462 613.677,516.555 614.689,516.476 615.701,432.826 616.712,432.75 617.724,705.193 618.736,705.05 619.748,564.477 620.759,564.388 621.771,393.744 622.783,393.655 623.794,669.561 624.806,669.46 625.818,767.706 626.829,767.597 627.841,519.279 628.853,519.211 629.865,593.363 630.876,593.245 631.888,466.729 632.9,466.646 633.911,562.423 634.923,562.336 635.935,312.338 636.946,312.266 637.958,532.537 638.97,532.476 639.982,547.849 640.993,547.765 642.005,408.022 643.017,407.942 644.028,602.425 645.04,602.339 646.052,398.181 647.063,398.095 648.075,544.844 649.087,544.746 650.098,600.67 651.11,600.568 652.122,661.302 653.134,661.179 654.145,531.373 655.157,531.291 656.169,464.806 657.18,464.718 658.192,430.72 659.204,430.653 660.215,780.265 661.227,780.123 662.239,703.459 663.251,703.352 664.262,357.785 665.274,357.726 666.286,626.81 667.297,626.724 668.309,620.951 669.321,620.855 670.332,280.298 671.344,280.251 672.356,611.751 673.368,611.665 674.379,567.932 675.391,567.853 676.403,402.38 677.414,402.31 678.426,411.07 679.438,411.005 680.449,706.437 681.461,706.28 682.473,590.26 683.485,590.139 684.496,895.166 685.508,895.041 686.52,381.239 687.531,381.179 688.543,501.359 689.555,501.272 690.566,503.726 691.578,503.639 692.59,733.959 693.602,733.856 694.613,474.239 695.625,474.146 696.637,586.37 697.648,586.278 698.66,424.496 699.672,424.432 700.683,475.685 701.695,475.624 702.707,544.617 703.718,544.511 704.73,722.757 705.742,722.669 706.754,672.688 707.765,672.605 708.777,508.3 709.789,508.215 710.8,486.889 711.812,486.8 712.824,346.552 713.835,346.482 714.847,577.162 715.859,577.074 716.871,833.929 717.882,833.811 718.894,514.024 719.906,513.928 720.917,639.293 721.929,639.206 722.941,623.99 723.952,623.892 724.964,585.317 725.976,585.242 726.988,604.498 727.999,604.421 729.011,707.902 730.023,707.825 731.034,759.485 732.046,759.371 733.058,685.622 734.069,685.517 735.081,666.641 736.093,666.517 737.105,589.573 738.116,589.48 739.128,699.269 740.14,699.15 741.151,578.164 742.163,578.066 743.175,780.265 744.186,780.153 745.198,581.138 746.21,581.048 747.222,772.109 748.233,771.985 749.245,812.319 750.257,812.238 751.268,711.252 752.28,711.157 753.292,685.932 754.303,685.839 755.315,670.287 756.327,670.208 757.338,311.002 758.35,310.945 759.362,479.975 760.374,479.886 761.385,613.734 762.397,613.646 763.409,489.291 764.42,489.216 765.432,542.12 766.444,542.039 767.455,364.097 768.467,364.019 769.479,449.671 770.491,449.582 771.502,471.521 772.514,471.441 773.526,665.404 774.537,665.306 775.549,743.353 776.561,743.227 777.572,735.346 778.584,735.248 779.596,584.429 780.608,584.335 781.619,843.189 782.631,842.925 783.643,626.891 784.654,626.79 785.666,595.797 786.678,595.725 787.689,617.102 788.701,617.02 789.713,441.847 790.725,441.754 791.736,410.624 792.748,410.548 793.76,884.024 794.771,883.887 795.783,645.944 796.795,645.857 797.806,565.405 798.818,565.328 799.83,551.027 800.841,550.941 801.853,450.913 802.865,450.838 803.877,552.382 804.888,552.313 805.9,731.189 806.912,731.09 807.923,672.046 808.935,671.943 809.947,331.514 810.958,331.439 811.97,499.937 812.982,499.847 813.994,789.082 815.005,788.974 816.017,226.617 817.029,226.555 818.04,921.033 819.052,920.853 820.064,560.512 821.075,560.416 822.087,729.505 823.099,729.404 824.111,948.671 825.122,948.525 826.134,472.896 827.146,472.806 828.157,511.612 829.169,511.52 830.181,547.116 831.192,547.013 832.204,554.984 833.216,554.887 834.228,618.465 835.239,618.387 836.251,551.35 837.263,551.277 838.274,531.762 839.286,531.696 840.298,756.215 841.309,756.097 842.321,727.366 843.333,727.265 844.345,508.728 845.356,508.659 846.368,935.323 847.38,935.171 848.391,590.885 849.403,590.79 850.415,499.498 851.426,499.424 852.438,903.676 853.45,903.545 854.461,358.671 855.473,358.593 856.485,412.482 857.497,412.419 858.508,512.477 859.52,512.403 860.532,900.371 861.543,900.231 862.555,862.211 863.567,862.083 864.578,594.049 865.59,593.985 866.602,884.935 867.614,884.797 868.625,861.351 869.637,861.212 870.649,739.243 871.66,739.132 872.672,712.082 873.684,711.972 874.695,836.396 875.707,836.3 876.719,672.401 877.731,672.295 878.742,680.618 879.754,680.48 880.766,555.9 881.777,555.805 882.789,626.168 883.801,626.094 884.812,697.821 885.824,697.742 886.836,610.983 887.848,610.905 888.859,415.275 889.871,415.202 890.883,615.384 891.894,615.291 892.906,442.338 893.918,442.261 894.929,720.513 895.941,720.421 896.953,665.873 897.965,665.777 898.976,574.84 899.988,574.734 901,405.985 902.011,405.934 903.023,292.65 904.035,292.585 905.046,603.859 906.058,603.772 907.07,489.436 908.081,489.366 909.093,754.939 910.105,754.839 911.117,392.754 912.128,392.681 913.14,687.348 914.152,687.245 915.163,627.974 916.175,627.873 917.187,515.231 918.198,515.165 919.21,573.98 920.222,573.9 921.234,776.461 922.245,776.343 923.257,479.025 924.269,478.961 925.28,526.58 926.292,526.477 927.304,480.802 928.315,480.732 929.327,614.731 930.339,614.644 931.351,522.756 932.362,522.674 933.374,460.459 934.386,460.39 935.397,624.737 936.409,624.652 937.421,866.622 938.432,866.496 939.444,621.399 940.456,621.295 941.468,771.162 942.479,771.048 943.491,789.918 944.503,789.814 945.514,667.862 946.526,667.743 947.538,730.444 948.549,730.32 949.561,778.642 950.573,778.538 951.585,908.683 952.596,908.577 953.608,536.545 954.62,536.467 955.631,553.379 956.643,553.304 957.655,478.824 958.666,478.745 959.678,756.844 960.69,756.741 961.701,460.038 962.713,459.963 963.725,680.586 964.737,680.514 965.748,659.962 966.76,659.865 967.772,590.351 968.783,590.245 969.795,726.237 970.807,726.144 971.818,525.39 972.83,525.316 973.842,571.111 974.854,571.033 975.865,803.958 976.877,803.836 977.889,881.078 978.9,880.991 979.912,765.045 980.924,764.922 981.935,605.383 982.947,605.295 983.959,869.659 984.971,869.532 985.982,786.877 986.994,786.763 988.006,490.183 989.017,490.105 990.029,798.401 991.041,798.241 992.052,681.515 993.064,681.439 994.076,600.07 995.088,599.96 996.099,746.107 997.111,746.003 998.123,695.52 999.134,695.434 1000.15,945.091 1001.16,944.978 1002.17,697.537 1003.18,697.448 1004.19,569.457 1005.2,569.374 1006.22,646.185 1007.23,646.104 1008.24,512.03 1009.25,511.951 1010.26,668.208 1011.27,668.116 1012.29,787.029 1013.3,786.923 1014.31,512.1 1015.32,512.013 1016.33,718.392 1017.34,718.294 1018.36,436.68 1019.37,436.616 1020.38,849.726 1021.39,849.595 1022.4,339.026 1023.42,338.943 1024.43,763.457 1025.44,763.357 1026.45,581.018 1027.46,580.94 1028.47,581.2 1029.49,581.11 1030.5,682.707 1031.51,682.607 1032.52,491.19 1033.53,491.127 1034.54,643.809 1035.56,643.723 1036.57,529.616 1037.58,529.529 1038.59,729.322 1039.6,729.227 1040.61,702.412 1041.63,702.317 1042.64,836.099 1043.65,835.996 1044.66,676.045 1045.67,675.953 1046.68,651.303 1047.7,651.209 1048.71,837.629 1049.72,837.527 1050.73,725.202 1051.74,725.087 1052.75,750.317 1053.77,750.208 1054.78,582.931 1055.79,582.843 1056.8,1027.09 1057.81,1026.95 1058.82,908.244 1059.84,908.124 1060.85,918.956 1061.86,918.842 1062.87,661.687 1063.88,661.601 1064.89,614.734 1065.91,614.642 1066.92,848.688 1067.93,848.576 1068.94,586.019 1069.95,585.961 1070.96,679.554 1071.98,679.464 1072.99,651.647 1074,651.544 1075.01,725.817 1076.02,725.701 1077.04,875.86 1078.05,875.729 1079.06,768.048 1080.07,767.935 1081.08,543.124 1082.09,543.048 1083.11,740.004 1084.12,739.908 1085.13,678.745 1086.14,678.663 1087.15,713.676 1088.16,713.6 1089.18,964.957 1090.19,964.854 1091.2,809.241 1092.21,809.143 1093.22,500.451 1094.23,500.376 1095.25,704.199 1096.26,704.117 1097.27,819.958 1098.28,819.881 1099.29,746.224 1100.3,746.144 1101.32,660.331 1102.33,660.242 1103.34,664.991 1104.35,664.869 1105.36,684.218 1106.37,684.138 1107.39,575.467 1108.4,575.373 1109.41,669.65 1110.42,669.544 1111.43,833.573 1112.44,833.459 1113.46,781.933 1114.47,781.813 1115.48,862.124 1116.49,862.011 1117.5,966.952 1118.51,966.772 1119.53,993.26 1120.54,993.135 1121.55,693.984 1122.56,693.892 1123.57,776.339 1124.58,776.222 1125.6,734.702 1126.61,734.609 1127.62,752.991 1128.63,752.906 1129.64,654.47 1130.66,654.384 1131.67,487.592 1132.68,487.506 1133.69,897.074 1134.7,896.942 1135.71,1092.17 1136.73,1092.02 1137.74,917.701 1138.75,917.61 1139.76,703.028 1140.77,702.949 1141.78,642.63 1142.8,642.543 1143.81,576.19 1144.82,576.132 1145.83,473.769 1146.84,473.704 1147.85,574.098 1148.87,574.023 1149.88,659.574 1150.89,659.456 1151.9,802.702 1152.91,802.616 1153.92,829.084 1154.94,828.969 1155.95,632.699 1156.96,632.611 1157.97,743.409 1158.98,743.281 1159.99,783.181 1161.01,783.027 1162.02,632.66 1163.03,632.584 1164.04,854.176 1165.05,854.058 1166.06,795.155 1167.08,795.054 1168.09,841.843 1169.1,841.742 1170.11,744.988 1171.12,744.9 1172.13,601.99 1173.15,601.878 1174.16,617.158 1175.17,617.103 1176.18,553.975 1177.19,553.898 1178.2,813.571 1179.22,813.47 1180.23,622.994 1181.24,622.92 1182.25,657.05 1183.26,656.952 1184.28,803.147 1185.29,803.038 1186.3,644.346 1187.31,644.263 1188.32,682.234 1189.33,682.133 1190.35,743.633 1191.36,743.543 1192.37,965.699 1193.38,965.518 1194.39,920.968 1195.4,920.849 1196.42,985.753 1197.43,985.57 1198.44,761.304 1199.45,761.161 1200.46,865.199 1201.47,865.092 1202.49,682.484 1203.5,682.395 1204.51,833.518 1205.52,833.418 1206.53,910.48 1207.54,910.33 1208.56,820.629 1209.57,820.513 1210.58,672.401 1211.59,672.33 1212.6,909.238 1213.61,909.128 1214.63,864.238 1215.64,864.151 1216.65,678.41 1217.66,678.32 1218.67,743.131 1219.68,743.073 1220.7,696.952 1221.71,696.865 1222.72,825.778 1223.73,825.647 1224.74,749.723 1225.75,749.639 1226.77,622.428 1227.78,622.324 1228.79,1249.09 1229.8,1248.9 1230.81,641.232 1231.82,641.15 1232.84,698.869 1233.85,698.79 1234.86,874.495 1235.87,874.39 1236.88,647.686 1237.9,647.575 1238.91,815.367 1239.92,815.257 1240.93,491.419 1241.94,491.355 1242.95,769.822 1243.97,769.721 1244.98,484.836 1245.99,484.763 1247,711.944 1248.01,711.836 1249.02,741.448 1250.04,741.346 1251.05,670.348 1252.06,670.272 1253.07,827.14 1254.08,827.006 1255.09,846.212 1256.11,846.091 1257.12,854.432 1258.13,854.308 1259.14,767.869 1260.15,767.779 1261.16,795.184 1262.18,795.099 1263.19,1196.98 1264.2,1196.81 1265.21,670.22 1266.22,670.129 1267.23,530.96 1268.25,530.871 1269.26,775.334 1270.27,775.231 1271.28,779.879 1272.29,779.788 1273.3,824.695 1274.32,824.593 1275.33,699.717 1276.34,699.619 1277.35,701.763 1278.36,701.663 1279.37,576.243 1280.39,576.172 1281.4,1097.79 1282.41,1097.66 1283.42,599.712 1284.43,599.645 1285.44,715.188 1286.46,715.105 1287.47,805.388 1288.48,805.305 1289.49,678.357 1290.5,678.266 1291.52,565.346 1292.53,565.257 1293.54,767.753 1294.55,767.657 1295.56,730.624 1296.57,730.535 1297.59,864.116 1298.6,863.962 1299.61,737.345 1300.62,737.24 1301.63,622.13 1302.64,622.019 1303.66,635.579 1304.67,635.487 1305.68,844.194 1306.69,844.122 1307.7,723.168 1308.71,723.073 1309.73,917.658 1310.74,917.535 1311.75,882.247 1312.76,882.133 1313.77,964.197 1314.78,964.079 1315.8,958.024 1316.81,957.865 1317.82,1089.09 1318.83,1088.95 1319.84,800.072 1320.85,799.948 1321.87,1175.72 1322.88,1175.51 1323.89,819.817 1324.9,819.739 1325.91,488.029 1326.92,487.954 1327.94,1007.95 1328.95,1007.83 1329.96,716.741 1330.97,716.636 1331.98,706.962 1332.99,706.878 1334.01,785.118 1335.02,785.035 1336.03,646.692 1337.04,646.609 1338.05,865.987 1339.06,865.875 1340.08,864.698 1341.09,864.582 1342.1,746.19 1343.11,746.087 1344.12,950.464 1345.14,950.359 1346.15,934.524 1347.16,934.438 1348.17,927.192 1349.18,927.072 1350.19,776.549 1351.21,776.434 1352.22,1179.21 1353.23,1179.05 1354.24,866.679 1355.25,866.587 1356.26,534.684 1357.28,534.604 1358.29,843.493 1359.3,843.386 1360.31,871.237 1361.32,871.125 1362.33,589.125 1363.35,589.047 1364.36,1016.32 1365.37,1016.2 1366.38,718.438 1367.39,718.361 1368.4,779.528 1369.42,779.404 1370.43,792.173 1371.44,792.086 1372.45,846.453 1373.46,846.339 1374.47,760.906 1375.49,760.829 1376.5,1105.08 1377.51,1104.96 1378.52,699.165 1379.53,699.077 1380.54,887.723 1381.56,887.579 1382.57,900.15 1383.58,900.057 1384.59,1012.19 1385.6,1012.08 1386.61,780.075 1387.63,779.983 1388.64,702.716 1389.65,702.631 1390.66,885.064 1391.67,884.931 1392.68,867.892 1393.7,867.78 1394.71,684.4 1395.72,684.306 1396.73,958.616 1397.74,958.496 1398.76,918.661 1399.77,918.558 1400.78,723.486 1401.79,723.402 1402.8,893.859 1403.81,893.775 1404.83,656.284 1405.84,656.205 1406.85,1039.47 1407.86,1039.33 1408.87,964.089 1409.88,963.94 1410.9,706.731 1411.91,706.647 1412.92,633.089 1413.93,633 1414.94,1011.77 1415.95,1011.63 1416.97,929.003 1417.98,928.877 1418.99,851.809 1420,851.721 1421.01,560.982 1422.02,560.904 1423.04,769.407 1424.05,769.286 1425.06,625.83 1426.07,625.757 1427.08,1154.11 1428.09,1154 1429.11,1072.48 1430.12,1072.34 1431.13,631.797 1432.14,631.7 1433.15,802.418 1434.16,802.326 1435.18,1101.99 1436.19,1101.85 1437.2,786.694 1438.21,786.598 1439.22,685.475 1440.23,685.384 1441.25,951.978 1442.26,951.835 1443.27,987.137 1444.28,987.029 1445.29,1011.96 1446.3,1011.85 1447.32,848.535 1448.33,848.425 1449.34,570.636 1450.35,570.567 1451.36,884.467 1452.38,884.383 1453.39,984.827 1454.4,984.721 1455.41,705.91 1456.42,705.824 1457.43,651.376 1458.45,651.302 1459.46,726.648 1460.47,726.561 1461.48,722.529 1462.49,722.455 1463.5,965.054 1464.52,964.932 1465.53,750.337 1466.54,750.254 1467.55,624.064 1468.56,623.989 1469.57,1076.97 1470.59,1076.81 1471.6,811.344 1472.61,811.259 1473.62,707.053 1474.63,706.969 1475.64,915.823 1476.66,915.707 1477.67,866.928 1478.68,866.848 1479.69,975.329 1480.7,975.2 1481.71,870.844 1482.73,870.735 1483.74,873.733 1484.75,873.63 1485.76,1358.09 1486.77,1357.86 1487.78,900.091 1488.8,899.989 1489.81,1124.73 1490.82,1124.57 1491.83,935.324 1492.84,935.169 1493.85,624.513 1494.87,624.427 1495.88,778.046 1496.89,777.962 1497.9,760.785 1498.91,760.697 1499.92,1066.81 1500.94,1066.68 1501.95,655.544 1502.96,655.46 1503.97,1105.58 1504.98,1105.45 1506,832.755 1507.01,832.651 1508.02,715.529 1509.03,715.45 1510.04,878.741 1511.05,878.636 1512.07,857.178 1513.08,857.073 1514.09,746.559 1515.1,746.466 1516.11,1016.5 1517.12,1016.38 1518.14,1079.08 1519.15,1078.92 1520.16,799.641 1521.17,799.509 1522.18,673.645 1523.19,673.534 1524.21,1115.77 1525.22,1115.63 1526.23,874.965 1527.24,874.834 1528.25,835.118 1529.26,834.992 1530.28,760.286 1531.29,760.201 1532.3,670.267 1533.31,670.189 1534.32,826.581 1535.33,826.473 1536.35,917.625 1537.36,917.503 1538.37,1087.44 1539.38,1087.32 1540.39,778.092 1541.4,777.98 1542.42,668.685 1543.43,668.574 1544.44,661.55 1545.45,661.44 1546.46,587.354 1547.47,587.272 1548.49,926.878 1549.5,926.769 1550.51,912.282 1551.52,912.168 1552.53,949.895 1553.54,949.799 1554.56,977.923 1555.57,977.81 1556.58,905.163 1557.59,905.065 1558.6,1013.28 1559.62,1013.17 1560.63,1150.81 1561.64,1150.68 1562.65,1212.24 1563.66,1212.12 1564.67,826.841 1565.69,826.744 1566.7,824.69 1567.71,824.576 1568.72,970.009 1569.73,969.902 1570.74,791.568 1571.76,791.495 1572.77,994.332 1573.78,994.182 1574.79,695.52 1575.8,695.413 1576.81,877.324 1577.83,877.209 1578.84,900.425 1579.85,900.327 1580.86,1188.23 1581.87,1188.12 1582.88,790.921 1583.9,790.821 1584.91,905.621 1585.92,905.472 1586.93,716.92 1587.94,716.823 1588.95,615.781 1589.97,615.708 1590.98,1053 1591.99,1052.89 1593,801.004 1594.01,800.921 1595.02,917.178 1596.04,917.098 1597.05,1144.78 1598.06,1144.65 1599.07,711.376 1600.08,711.296 1601.09,914.019 1602.11,913.911 1603.12,923.353 1604.13,923.275 1605.14,896.197 1606.15,896.095 1607.16,749.335 1608.18,749.246 1609.19,867.734 1610.2,867.646 1611.21,938.561 1612.22,938.447 1613.24,785.069 1614.25,784.949 1615.26,787.374 1616.27,787.28 1617.28,795.463 1618.29,795.344 1619.31,892.473 1620.32,892.381 1621.33,776.667 1622.34,776.571 1623.35,889.823 1624.36,889.733 1625.38,1022.39 1626.39,1022.26 1627.4,724.153 1628.41,724.068 1629.42,825.789 1630.43,825.703 1631.45,867.689 1632.46,867.592 1633.47,610.228 1634.48,610.135 1635.49,780.261 1636.5,780.172 1637.52,915.095 1638.53,915.004 1639.54,784.465 1640.55,784.385 1641.56,817.579 1642.57,817.451 1643.59,1136.88 1644.6,1136.75 1645.61,849.771 1646.62,849.67 1647.63,1015.1 1648.64,1014.95 1649.66,1063.37 1650.67,1063.23 1651.68,773.66 1652.69,773.558 1653.7,1066.52 1654.71,1066.4 1655.73,1146.44 1656.74,1146.32 1657.75,819.27 1658.76,819.159 1659.77,953.367 1660.78,953.259 1661.8,851.437 1662.81,851.343 1663.82,755.051 1664.83,754.965 1665.84,639.686 1666.86,639.607 1667.87,962.616 1668.88,962.508 1669.89,582.025 1670.9,581.93 1671.91,897.631 1672.93,897.487 1673.94,987.606 1674.95,987.491 1675.96,695.426 1676.97,695.323 1677.98,1045.55 1679,1045.45 1680.01,816.951 1681.02,816.86 1682.03,668.939 1683.04,668.871 1684.05,820.978 1685.07,820.849 1686.08,879.639 1687.09,879.511 1688.1,1005.85 1689.11,1005.73 1690.12,923.642 1691.14,923.556 1692.15,1078.32 1693.16,1078.2 1694.17,980.421 1695.18,980.277 1696.19,944.054 1697.21,943.949 1698.22,1082.34 1699.23,1082.18 1700.24,681.268 1701.25,681.17 1702.26,902.214 1703.28,902.025 1704.29,1061.03 1705.3,1060.91 1706.31,918.976 1707.32,918.869 1708.33,865.615 1709.35,865.524 1710.36,956.52 1711.37,956.408 1712.38,1119.53 1713.39,1119.4 1714.4,1051.43 1715.42,1051.26 1716.43,987.584 1717.44,987.474 1718.45,864.865 1719.46,864.761 1720.47,745.832 1721.49,745.752 1722.5,1330.95 1723.51,1330.81 1724.52,1060.55 1725.53,1060.43 1726.55,1020.52 1727.56,1020.41 1728.57,806.596 1729.58,806.491 1730.59,838.671 1731.6,838.579 1732.62,970.99 1733.63,970.887 1734.64,841.112 1735.65,841.008 1736.66,691.408 1737.67,691.342 1738.69,885.956 1739.7,885.869 1740.71,1031.99 1741.72,1031.88 1742.73,1078.27 1743.74,1078.14 1744.76,1125.31 1745.77,1125.19 1746.78,1083.23 1747.79,1083.14 1748.8,1157.85 1749.81,1157.67 1750.83,1065.12 1751.84,1065.01 1752.85,690.75 1753.86,690.674 1754.87,841.235 1755.88,841.138 1756.9,1043.41 1757.91,1043.32 1758.92,745.793 1759.93,745.713 1760.94,858.002 1761.95,857.897 1762.97,853.426 1763.98,853.342 1764.99,747.684 1766,747.576 1767.01,1058.37 1768.02,1058.26 1769.04,867.61 1770.05,867.535 1771.06,998.064 1772.07,997.944 1773.08,1083.08 1774.09,1082.97 1775.11,934.45 1776.12,934.353 1777.13,742.229 1778.14,742.15 1779.15,885.425 1780.17,885.32 1781.18,602.836 1782.19,602.76 1783.2,984.283 1784.21,984.183 1785.22,861.222 1786.24,861.115 1787.25,948.697 1788.26,948.604 1789.27,1019.86 1790.28,1019.75 1791.29,1063.19 1792.31,1063.08 1793.32,1059.21 1794.33,1059.09 1795.34,1021.4 1796.35,1021.3 1797.36,905.713 1798.38,905.614 1799.39,779.244 1800.4,779.172 1801.41,942.337 1802.42,942.195 1803.43,1019.83 1804.45,1019.7 1805.46,1328.86 1806.47,1328.65 1807.48,1049.25 1808.49,1049.13 1809.5,1019.6 1810.52,1019.48 1811.53,953.056 1812.54,952.954 1813.55,828.641 1814.56,828.549 1815.57,1041.34 1816.59,1041.19 1817.6,1119.37 1818.61,1119.21 1819.62,991.316 1820.63,991.219 1821.64,1082.08 1822.66,1081.98 1823.67,774.234 1824.68,774.156 1825.69,1091.95 1826.7,1091.82 1827.71,963.885 1828.73,963.81 1829.74,919.107 1830.75,919.001 1831.76,818.259 1832.77,818.155 1833.79,1061.97 1834.8,1061.85 1835.81,979.78 1836.82,979.693 1837.83,648.112 1838.84,648.028 1839.86,870.92 1840.87,870.824 1841.88,912.898 1842.89,912.782 1843.9,1084.42 1844.91,1084.3 1845.93,809.36 1846.94,809.281 1847.95,1265.12 1848.96,1265.02 1849.97,1073.49 1850.98,1073.34 1852,1112.83 1853.01,1112.7 1854.02,1146.59 1855.03,1146.43 1856.04,1082.56 1857.05,1082.38 1858.07,851.323 1859.08,851.245 1860.09,1052.56 1861.1,1052.46 1862.11,808.222 1863.12,808.139 1864.14,901.848 1865.15,901.732 1866.16,1046.29 1867.17,1046.21 1868.18,653.284 1869.19,653.211 1870.21,872.415 1871.22,872.341 1872.23,1023.26 1873.24,1023.18 1874.25,948.402 1875.26,948.298 1876.28,921.42 1877.29,921.32 1878.3,1014.13 1879.31,1014.03 1880.32,847.065 1881.33,846.962 1882.35,824.473 1883.36,824.37 1884.37,998.646 1885.38,998.538 1886.39,1178.47 1887.41,1178.31 1888.42,1006.07 1889.43,1005.95 1890.44,889.95 1891.45,889.854 1892.46,1325.63 1893.48,1325.49 1894.49,1011.22 1895.5,1011.12 1896.51,938.768 1897.52,938.667 1898.53,1026.65 1899.55,1026.45 1900.56,877.528 1901.57,877.441 1902.58,875.477 1903.59,875.367 1904.6,843.193 1905.62,843.074 1906.63,1258.99 1907.64,1258.81 1908.65,1152.43 1909.66,1152.32 1910.67,966.959 1911.69,966.851 1912.7,962.754 1913.71,962.646 1914.72,853.856 1915.73,853.785 1916.74,993.551 1917.76,993.444 1918.77,814.899 1919.78,814.829 1920.79,910.278 1921.8,910.195 1922.81,809.429 1923.83,809.342 1924.84,1021.53 1925.85,1021.42 1926.86,838.191 1927.87,838.068 1928.88,719.559 1929.9,719.469 1930.91,984.186 1931.92,984.062 1932.93,1153.38 1933.94,1153.25 1934.95,945.512 1935.97,945.428 1936.98,915.7 1937.99,915.575 1939,1077.97 1940.01,1077.89 1941.03,805.746 1942.04,805.663 1943.05,1104.41 1944.06,1104.31 1945.07,1172.49 1946.08,1172.39 1947.1,853.347 1948.11,853.263 1949.12,1058.3 1950.13,1058.18 1951.14,963.796 1952.15,963.675 1953.17,940.437 1954.18,940.294 1955.19,882.771 1956.2,882.659 1957.21,990.167 1958.22,990.061 1959.24,1041.79 1960.25,1041.7 1961.26,1131.3 1962.27,1131.19 1963.28,905.667 1964.29,905.575 1965.31,926.094 1966.32,925.98 1967.33,960.828 1968.34,960.696 1969.35,1135.17 1970.36,1135.04 1971.38,1373.54 1972.39,1373.36 1973.4,1285.88 1974.41,1285.76 1975.42,1079.62 1976.43,1079.51 1977.45,994.457 1978.46,994.347 1979.47,739.219 1980.48,739.123 1981.49,1030.83 1982.5,1030.73 1983.52,1110.47 1984.53,1110.35 1985.54,984.231 1986.55,984.133 1987.56,1067.17 1988.57,1067.07 1989.59,989.128 1990.6,989.01 1991.61,753.537 1992.62,753.447 1993.63,1084.27 1994.65,1084.18 1995.66,1057.48 1996.67,1057.29 1997.68,1109.61 1998.69,1109.48 1999.7,811.333 2000.72,811.259 2001.73,1129 2002.74,1128.87 2003.75,833.941 2004.76,833.866 2005.77,911.658 2006.79,911.54 2007.8,1161.19 2008.81,1161.06 2009.82,917.569 2010.83,917.489 2011.84,961.296 2012.86,961.163 2013.87,1244.17 2014.88,1244.05 2015.89,1030.41 2016.9,1030.31 2017.91,886.336 2018.93,886.211 2019.94,1199.59 2020.95,1199.44 2021.96,1113.64 2022.97,1113.51 2023.98,658.497 2025,658.409 2026.01,985.492 2027.02,985.397 2028.03,1057.63 2029.04,1057.48 2030.05,1021.47 2031.07,1021.33 2032.08,1132.04 2033.09,1131.91 2034.1,920.291 2035.11,920.194 2036.12,1044.72 2037.14,1044.6 2038.15,1059.71 2039.16,1059.61 2040.17,983.936 2041.18,983.839 2042.19,982.926 2043.21,982.768 2044.22,1066.85 2045.23,1066.72 2046.24,1062.1 2047.25,1061.94 2048.27,1384.49 2049.28,1384.33 2050.29,986.159 2051.3,986.039 2052.31,1132.07 2053.32,1131.97 2054.34,1203.16 2055.35,1203.01 2056.36,1150.01 2057.37,1149.87 2058.38,1214.36 2059.39,1214.22 2060.41,1102.88 2061.42,1102.77 2062.43,1029.3 2063.44,1029.2 2064.45,1079.81 2065.46,1079.72 2066.48,1089.14 2067.49,1089.05 2068.5,1036.56 2069.51,1036.46 2070.52,939.513 2071.53,939.428 2072.55,1023.65 2073.56,1023.53 2074.57,1014.24 2075.58,1014.14 2076.59,860.788 2077.6,860.707 2078.62,1211.62 2079.63,1211.5 2080.64,1176.85 2081.65,1176.75 2082.66,944.728 2083.67,944.605 2084.69,1025.58 2085.7,1025.46 2086.71,1118.29 2087.72,1118.17 2088.73,969.531 2089.74,969.448 2090.76,1113.11 2091.77,1113.02 2092.78,900.779 2093.79,900.693 2094.8,1091.67 2095.81,1091.55 2096.83,1133.97 2097.84,1133.83 2098.85,808.724 2099.86,808.635 2100.87,1057.31 2101.89,1057.21 2102.9,1173.89 2103.91,1173.81 2104.92,1195.94 2105.93,1195.82 2106.94,1047.16 2107.96,1047.06 2108.97,730.847 2109.98,730.775 2110.99,978.636 2112,978.551 2113.01,1142.19 2114.03,1142.09 2115.04,962.741 2116.05,962.629 2117.06,969.63 2118.07,969.535 2119.08,1124.61 2120.1,1124.52 2121.11,970.652 2122.12,970.558 2123.13,873.352 2124.14,873.261 2125.15,1231.38 2126.17,1231.26 2127.18,866.24 2128.19,866.146 2129.2,1005.06 2130.21,1004.93 2131.22,982.166 2132.24,982.077 2133.25,1146.86 2134.26,1146.78 2135.27,1152.51 2136.28,1152.37 2137.29,1106.59 2138.31,1106.49 2139.32,791.273 2140.33,791.176 2141.34,959.531 2142.35,959.449 2143.36,1058.98 2144.38,1058.84 2145.39,1154.91 2146.4,1154.84 2147.41,965.871 2148.42,965.78 2149.43,1124.83 2150.45,1124.7 2151.46,1061.85 2152.47,1061.73 2153.48,981.499 2154.49,981.406 2155.51,1352.01 2156.52,1351.81 2157.53,1274.7 2158.54,1274.55 2159.55,967.69 2160.56,967.544 2161.58,964.294 2162.59,964.19 2163.6,673.654 2164.61,673.579 2165.62,1018.22 2166.63,1018.11 2167.65,1294.21 2168.66,1294.08 2169.67,776.073 2170.68,776.002 2171.69,1099.89 2172.7,1099.76 2173.72,1342.84 2174.73,1342.72 2175.74,941.288 2176.75,941.222 2177.76,1209.42 2178.77,1209.25 2179.79,1097.94 2180.8,1097.85 2181.81,1149.91 2182.82,1149.81 2183.83,1235.58 2184.84,1235.44 2185.86,1096.57 2186.87,1096.47 2187.88,1091.81 2188.89,1091.7 2189.9,1074.1 2190.91,1074.01 2191.93,1015.94 2192.94,1015.84 2193.95,1359.7 2194.96,1359.58 2195.97,1248.23 2196.98,1248.09 2198,1106.46 2199.01,1106.35 2200.02,1303.38 2201.03,1303.25 2202.04,1029.52 2203.05,1029.42 2204.07,987.359 2205.08,987.276 2206.09,1149.17 2207.1,1149.05 2208.11,914.116 2209.13,914.033 2210.14,917.965 2211.15,917.842 2212.16,1009.74 2213.17,1009.64 2214.18,920.878 2215.2,920.773 2216.21,1057.28 2217.22,1057.19 2218.23,1273.7 2219.24,1273.6 2220.25,1189.23 2221.27,1189.08 2222.28,987.71 2223.29,987.638 2224.3,1080.9 2225.31,1080.81 2226.32,1244.92 2227.34,1244.81 2228.35,1231.79 2229.36,1231.69 2230.37,1005.32 2231.38,1005.2 2232.39,970.902 2233.41,970.814 2234.42,1120.9 2235.43,1120.77 2236.44,918.273 2237.45,918.12 2238.46,1445.72 2239.48,1445.49 2240.49,1209.09 2241.5,1208.98 2242.51,1004.79 2243.52,1004.71 2244.53,987.213 2245.55,987.056 2246.56,1084.09 2247.57,1084.01 2248.58,1013.93 2249.59,1013.85 2250.6,1356.96 2251.62,1356.84 2252.63,1088.32 2253.64,1088.2 2254.65,1016.87 2255.66,1016.76 2256.67,1254.45 2257.69,1254.35 2258.7,941.671 2259.71,941.577 2260.72,857.549 2261.73,857.481 2262.75,1276.41 2263.76,1276.3 2264.77,893.772 2265.78,893.674 2266.79,995.778 2267.8,995.706 2268.82,870.074 2269.83,869.952 2270.84,1116.24 2271.85,1116.1 2272.86,1115.7 2273.87,1115.6 2274.89,1043.94 2275.9,1043.86 2276.91,1057.46 2277.92,1057.37 2278.93,980.266 2279.94,980.17 2280.96,1258.27 2281.97,1258.13 2282.98,993.613 2283.99,993.528 2285,1062.82 2286.01,1062.73 2287.03,1243 2288.04,1242.9 2289.05,1022.02 2290.06,1021.95 2291.07,1200.84 2292.08,1200.71 "/>
<path clip-path="url(#clip930)" d="M2014.5 198.898 L2281.3 198.898 L2281.3 95.2176 L2014.5 95.2176  Z" fill="#ffffff" fill-rule="evenodd" fill-opacity="1"/>
<polyline clip-path="url(#clip930)" style="stroke:#000000; stroke-linecap:round; stroke-linejoin:round; stroke-width:4; stroke-opacity:1; fill:none" points="2014.5,198.898 2281.3,198.898 2281.3,95.2176 2014.5,95.2176 2014.5,198.898 "/>
<polyline clip-path="url(#clip930)" style="stroke:#009af9; stroke-linecap:round; stroke-linejoin:round; stroke-width:4; stroke-opacity:1; fill:none" points="2038.31,147.058 2181.23,147.058 "/>
<path clip-path="url(#clip930)" d="M2218.89 166.745 Q2217.09 171.375 2215.37 172.787 Q2213.66 174.199 2210.79 174.199 L2207.39 174.199 L2207.39 170.634 L2209.89 170.634 Q2211.65 170.634 2212.62 169.8 Q2213.59 168.967 2214.77 165.865 L2215.53 163.921 L2205.05 138.412 L2209.56 138.412 L2217.66 158.689 L2225.77 138.412 L2230.28 138.412 L2218.89 166.745 Z" fill="#000000" fill-rule="nonzero" fill-opacity="1" /><path clip-path="url(#clip930)" d="M2237.57 160.402 L2245.21 160.402 L2245.21 134.037 L2236.9 135.703 L2236.9 131.444 L2245.16 129.778 L2249.84 129.778 L2249.84 160.402 L2257.48 160.402 L2257.48 164.338 L2237.57 164.338 L2237.57 160.402 Z" fill="#000000" fill-rule="nonzero" fill-opacity="1" /></svg>
