<?xml version="1.0" encoding="utf-8"?>
<svg xmlns="http://www.w3.org/2000/svg" xmlns:xlink="http://www.w3.org/1999/xlink" width="600" height="400" viewBox="0 0 2400 1600">
<defs>
  <clipPath id="clip140">
    <rect x="0" y="0" width="2400" height="1600"/>
  </clipPath>
</defs>
<path clip-path="url(#clip140)" d="M0 1600 L2400 1600 L2400 0 L0 0  Z" fill="#ffffff" fill-rule="evenodd" fill-opacity="1"/>
<defs>
  <clipPath id="clip141">
    <rect x="480" y="0" width="1681" height="1600"/>
  </clipPath>
</defs>
<path clip-path="url(#clip140)" d="M184.191 1486.45 L2352.76 1486.45 L2352.76 47.2441 L184.191 47.2441  Z" fill="#ffffff" fill-rule="evenodd" fill-opacity="1"/>
<defs>
  <clipPath id="clip142">
    <rect x="184" y="47" width="2170" height="1440"/>
  </clipPath>
</defs>
<polyline clip-path="url(#clip142)" style="stroke:#000000; stroke-linecap:round; stroke-linejoin:round; stroke-width:2; stroke-opacity:0.1; fill:none" points="245.565,1486.45 245.565,47.2441 "/>
<polyline clip-path="url(#clip142)" style="stroke:#000000; stroke-linecap:round; stroke-linejoin:round; stroke-width:2; stroke-opacity:0.1; fill:none" points="757.019,1486.45 757.019,47.2441 "/>
<polyline clip-path="url(#clip142)" style="stroke:#000000; stroke-linecap:round; stroke-linejoin:round; stroke-width:2; stroke-opacity:0.1; fill:none" points="1268.47,1486.45 1268.47,47.2441 "/>
<polyline clip-path="url(#clip142)" style="stroke:#000000; stroke-linecap:round; stroke-linejoin:round; stroke-width:2; stroke-opacity:0.1; fill:none" points="1779.93,1486.45 1779.93,47.2441 "/>
<polyline clip-path="url(#clip142)" style="stroke:#000000; stroke-linecap:round; stroke-linejoin:round; stroke-width:2; stroke-opacity:0.1; fill:none" points="2291.38,1486.45 2291.38,47.2441 "/>
<polyline clip-path="url(#clip140)" style="stroke:#000000; stroke-linecap:round; stroke-linejoin:round; stroke-width:4; stroke-opacity:1; fill:none" points="184.191,1486.45 2352.76,1486.45 "/>
<polyline clip-path="url(#clip140)" style="stroke:#000000; stroke-linecap:round; stroke-linejoin:round; stroke-width:4; stroke-opacity:1; fill:none" points="245.565,1486.45 245.565,1467.55 "/>
<polyline clip-path="url(#clip140)" style="stroke:#000000; stroke-linecap:round; stroke-linejoin:round; stroke-width:4; stroke-opacity:1; fill:none" points="757.019,1486.45 757.019,1467.55 "/>
<polyline clip-path="url(#clip140)" style="stroke:#000000; stroke-linecap:round; stroke-linejoin:round; stroke-width:4; stroke-opacity:1; fill:none" points="1268.47,1486.45 1268.47,1467.55 "/>
<polyline clip-path="url(#clip140)" style="stroke:#000000; stroke-linecap:round; stroke-linejoin:round; stroke-width:4; stroke-opacity:1; fill:none" points="1779.93,1486.45 1779.93,1467.55 "/>
<polyline clip-path="url(#clip140)" style="stroke:#000000; stroke-linecap:round; stroke-linejoin:round; stroke-width:4; stroke-opacity:1; fill:none" points="2291.38,1486.45 2291.38,1467.55 "/>
<path clip-path="url(#clip140)" d="M245.565 1517.37 Q241.954 1517.37 240.125 1520.93 Q238.32 1524.47 238.32 1531.6 Q238.32 1538.71 240.125 1542.27 Q241.954 1545.82 245.565 1545.82 Q249.199 1545.82 251.005 1542.27 Q252.834 1538.71 252.834 1531.6 Q252.834 1524.47 251.005 1520.93 Q249.199 1517.37 245.565 1517.37 M245.565 1513.66 Q251.375 1513.66 254.431 1518.27 Q257.51 1522.85 257.51 1531.6 Q257.51 1540.33 254.431 1544.94 Q251.375 1549.52 245.565 1549.52 Q239.755 1549.52 236.676 1544.94 Q233.621 1540.33 233.621 1531.6 Q233.621 1522.85 236.676 1518.27 Q239.755 1513.66 245.565 1513.66 Z" fill="#000000" fill-rule="nonzero" fill-opacity="1" /><path clip-path="url(#clip140)" d="M701.545 1544.91 L709.184 1544.91 L709.184 1518.55 L700.874 1520.21 L700.874 1515.95 L709.138 1514.29 L713.813 1514.29 L713.813 1544.91 L721.452 1544.91 L721.452 1548.85 L701.545 1548.85 L701.545 1544.91 Z" fill="#000000" fill-rule="nonzero" fill-opacity="1" /><path clip-path="url(#clip140)" d="M740.897 1517.37 Q737.286 1517.37 735.457 1520.93 Q733.651 1524.47 733.651 1531.6 Q733.651 1538.71 735.457 1542.27 Q737.286 1545.82 740.897 1545.82 Q744.531 1545.82 746.336 1542.27 Q748.165 1538.71 748.165 1531.6 Q748.165 1524.47 746.336 1520.93 Q744.531 1517.37 740.897 1517.37 M740.897 1513.66 Q746.707 1513.66 749.762 1518.27 Q752.841 1522.85 752.841 1531.6 Q752.841 1540.33 749.762 1544.94 Q746.707 1549.52 740.897 1549.52 Q735.086 1549.52 732.008 1544.94 Q728.952 1540.33 728.952 1531.6 Q728.952 1522.85 732.008 1518.27 Q735.086 1513.66 740.897 1513.66 Z" fill="#000000" fill-rule="nonzero" fill-opacity="1" /><path clip-path="url(#clip140)" d="M771.059 1517.37 Q767.447 1517.37 765.619 1520.93 Q763.813 1524.47 763.813 1531.6 Q763.813 1538.71 765.619 1542.27 Q767.447 1545.82 771.059 1545.82 Q774.693 1545.82 776.498 1542.27 Q778.327 1538.71 778.327 1531.6 Q778.327 1524.47 776.498 1520.93 Q774.693 1517.37 771.059 1517.37 M771.059 1513.66 Q776.869 1513.66 779.924 1518.27 Q783.003 1522.85 783.003 1531.6 Q783.003 1540.33 779.924 1544.94 Q776.869 1549.52 771.059 1549.52 Q765.248 1549.52 762.17 1544.94 Q759.114 1540.33 759.114 1531.6 Q759.114 1522.85 762.17 1518.27 Q765.248 1513.66 771.059 1513.66 Z" fill="#000000" fill-rule="nonzero" fill-opacity="1" /><path clip-path="url(#clip140)" d="M801.22 1517.37 Q797.609 1517.37 795.781 1520.93 Q793.975 1524.47 793.975 1531.6 Q793.975 1538.71 795.781 1542.27 Q797.609 1545.82 801.22 1545.82 Q804.855 1545.82 806.66 1542.27 Q808.489 1538.71 808.489 1531.6 Q808.489 1524.47 806.66 1520.93 Q804.855 1517.37 801.22 1517.37 M801.22 1513.66 Q807.031 1513.66 810.086 1518.27 Q813.165 1522.85 813.165 1531.6 Q813.165 1540.33 810.086 1544.94 Q807.031 1549.52 801.22 1549.52 Q795.41 1549.52 792.332 1544.94 Q789.276 1540.33 789.276 1531.6 Q789.276 1522.85 792.332 1518.27 Q795.41 1513.66 801.22 1513.66 Z" fill="#000000" fill-rule="nonzero" fill-opacity="1" /><path clip-path="url(#clip140)" d="M1217.08 1544.91 L1233.4 1544.91 L1233.4 1548.85 L1211.46 1548.85 L1211.46 1544.91 Q1214.12 1542.16 1218.71 1537.53 Q1223.31 1532.88 1224.49 1531.53 Q1226.74 1529.01 1227.62 1527.27 Q1228.52 1525.51 1228.52 1523.82 Q1228.52 1521.07 1226.58 1519.33 Q1224.65 1517.6 1221.55 1517.6 Q1219.35 1517.6 1216.9 1518.36 Q1214.47 1519.13 1211.69 1520.68 L1211.69 1515.95 Q1214.52 1514.82 1216.97 1514.24 Q1219.42 1513.66 1221.46 1513.66 Q1226.83 1513.66 1230.02 1516.35 Q1233.22 1519.03 1233.22 1523.52 Q1233.22 1525.65 1232.41 1527.57 Q1231.62 1529.47 1229.52 1532.07 Q1228.94 1532.74 1225.83 1535.95 Q1222.73 1539.15 1217.08 1544.91 Z" fill="#000000" fill-rule="nonzero" fill-opacity="1" /><path clip-path="url(#clip140)" d="M1253.22 1517.37 Q1249.61 1517.37 1247.78 1520.93 Q1245.97 1524.47 1245.97 1531.6 Q1245.97 1538.71 1247.78 1542.27 Q1249.61 1545.82 1253.22 1545.82 Q1256.85 1545.82 1258.66 1542.27 Q1260.49 1538.71 1260.49 1531.6 Q1260.49 1524.47 1258.66 1520.93 Q1256.85 1517.37 1253.22 1517.37 M1253.22 1513.66 Q1259.03 1513.66 1262.08 1518.27 Q1265.16 1522.85 1265.16 1531.6 Q1265.16 1540.33 1262.08 1544.94 Q1259.03 1549.52 1253.22 1549.52 Q1247.41 1549.52 1244.33 1544.94 Q1241.27 1540.33 1241.27 1531.6 Q1241.27 1522.85 1244.33 1518.27 Q1247.41 1513.66 1253.22 1513.66 Z" fill="#000000" fill-rule="nonzero" fill-opacity="1" /><path clip-path="url(#clip140)" d="M1283.38 1517.37 Q1279.77 1517.37 1277.94 1520.93 Q1276.14 1524.47 1276.14 1531.6 Q1276.14 1538.71 1277.94 1542.27 Q1279.77 1545.82 1283.38 1545.82 Q1287.01 1545.82 1288.82 1542.27 Q1290.65 1538.71 1290.65 1531.6 Q1290.65 1524.47 1288.82 1520.93 Q1287.01 1517.37 1283.38 1517.37 M1283.38 1513.66 Q1289.19 1513.66 1292.25 1518.27 Q1295.33 1522.85 1295.33 1531.6 Q1295.33 1540.33 1292.25 1544.94 Q1289.19 1549.52 1283.38 1549.52 Q1277.57 1549.52 1274.49 1544.94 Q1271.44 1540.33 1271.44 1531.6 Q1271.44 1522.85 1274.49 1518.27 Q1277.57 1513.66 1283.38 1513.66 Z" fill="#000000" fill-rule="nonzero" fill-opacity="1" /><path clip-path="url(#clip140)" d="M1313.54 1517.37 Q1309.93 1517.37 1308.1 1520.93 Q1306.3 1524.47 1306.3 1531.6 Q1306.3 1538.71 1308.1 1542.27 Q1309.93 1545.82 1313.54 1545.82 Q1317.18 1545.82 1318.98 1542.27 Q1320.81 1538.71 1320.81 1531.6 Q1320.81 1524.47 1318.98 1520.93 Q1317.18 1517.37 1313.54 1517.37 M1313.54 1513.66 Q1319.35 1513.66 1322.41 1518.27 Q1325.49 1522.85 1325.49 1531.6 Q1325.49 1540.33 1322.41 1544.94 Q1319.35 1549.52 1313.54 1549.52 Q1307.73 1549.52 1304.65 1544.94 Q1301.6 1540.33 1301.6 1531.6 Q1301.6 1522.85 1304.65 1518.27 Q1307.73 1513.66 1313.54 1513.66 Z" fill="#000000" fill-rule="nonzero" fill-opacity="1" /><path clip-path="url(#clip140)" d="M1738.61 1530.21 Q1741.96 1530.93 1743.84 1533.2 Q1745.74 1535.47 1745.74 1538.8 Q1745.74 1543.92 1742.22 1546.72 Q1738.7 1549.52 1732.22 1549.52 Q1730.04 1549.52 1727.73 1549.08 Q1725.44 1548.66 1722.98 1547.81 L1722.98 1543.29 Q1724.93 1544.43 1727.24 1545.01 Q1729.56 1545.58 1732.08 1545.58 Q1736.48 1545.58 1738.77 1543.85 Q1741.08 1542.11 1741.08 1538.8 Q1741.08 1535.75 1738.93 1534.03 Q1736.8 1532.3 1732.98 1532.3 L1728.96 1532.3 L1728.96 1528.45 L1733.17 1528.45 Q1736.62 1528.45 1738.45 1527.09 Q1740.27 1525.7 1740.27 1523.11 Q1740.27 1520.45 1738.38 1519.03 Q1736.5 1517.6 1732.98 1517.6 Q1731.06 1517.6 1728.86 1518.01 Q1726.66 1518.43 1724.02 1519.31 L1724.02 1515.14 Q1726.69 1514.4 1729 1514.03 Q1731.34 1513.66 1733.4 1513.66 Q1738.72 1513.66 1741.83 1516.09 Q1744.93 1518.5 1744.93 1522.62 Q1744.93 1525.49 1743.28 1527.48 Q1741.64 1529.45 1738.61 1530.21 Z" fill="#000000" fill-rule="nonzero" fill-opacity="1" /><path clip-path="url(#clip140)" d="M1764.6 1517.37 Q1760.99 1517.37 1759.16 1520.93 Q1757.36 1524.47 1757.36 1531.6 Q1757.36 1538.71 1759.16 1542.27 Q1760.99 1545.82 1764.6 1545.82 Q1768.24 1545.82 1770.04 1542.27 Q1771.87 1538.71 1771.87 1531.6 Q1771.87 1524.47 1770.04 1520.93 Q1768.24 1517.37 1764.6 1517.37 M1764.6 1513.66 Q1770.41 1513.66 1773.47 1518.27 Q1776.55 1522.85 1776.55 1531.6 Q1776.55 1540.33 1773.47 1544.94 Q1770.41 1549.52 1764.6 1549.52 Q1758.79 1549.52 1755.71 1544.94 Q1752.66 1540.33 1752.66 1531.6 Q1752.66 1522.85 1755.71 1518.27 Q1758.79 1513.66 1764.6 1513.66 Z" fill="#000000" fill-rule="nonzero" fill-opacity="1" /><path clip-path="url(#clip140)" d="M1794.77 1517.37 Q1791.15 1517.37 1789.33 1520.93 Q1787.52 1524.47 1787.52 1531.6 Q1787.52 1538.71 1789.33 1542.27 Q1791.15 1545.82 1794.77 1545.82 Q1798.4 1545.82 1800.21 1542.27 Q1802.03 1538.71 1802.03 1531.6 Q1802.03 1524.47 1800.21 1520.93 Q1798.4 1517.37 1794.77 1517.37 M1794.77 1513.66 Q1800.58 1513.66 1803.63 1518.27 Q1806.71 1522.85 1806.71 1531.6 Q1806.71 1540.33 1803.63 1544.94 Q1800.58 1549.52 1794.77 1549.52 Q1788.96 1549.52 1785.88 1544.94 Q1782.82 1540.33 1782.82 1531.6 Q1782.82 1522.85 1785.88 1518.27 Q1788.96 1513.66 1794.77 1513.66 Z" fill="#000000" fill-rule="nonzero" fill-opacity="1" /><path clip-path="url(#clip140)" d="M1824.93 1517.37 Q1821.32 1517.37 1819.49 1520.93 Q1817.68 1524.47 1817.68 1531.6 Q1817.68 1538.71 1819.49 1542.27 Q1821.32 1545.82 1824.93 1545.82 Q1828.56 1545.82 1830.37 1542.27 Q1832.2 1538.71 1832.2 1531.6 Q1832.2 1524.47 1830.37 1520.93 Q1828.56 1517.37 1824.93 1517.37 M1824.93 1513.66 Q1830.74 1513.66 1833.79 1518.27 Q1836.87 1522.85 1836.87 1531.6 Q1836.87 1540.33 1833.79 1544.94 Q1830.74 1549.52 1824.93 1549.52 Q1819.12 1549.52 1816.04 1544.94 Q1812.98 1540.33 1812.98 1531.6 Q1812.98 1522.85 1816.04 1518.27 Q1819.12 1513.66 1824.93 1513.66 Z" fill="#000000" fill-rule="nonzero" fill-opacity="1" /><path clip-path="url(#clip140)" d="M2249.39 1518.36 L2237.59 1536.81 L2249.39 1536.81 L2249.39 1518.36 M2248.16 1514.29 L2254.04 1514.29 L2254.04 1536.81 L2258.97 1536.81 L2258.97 1540.7 L2254.04 1540.7 L2254.04 1548.85 L2249.39 1548.85 L2249.39 1540.7 L2233.79 1540.7 L2233.79 1536.19 L2248.16 1514.29 Z" fill="#000000" fill-rule="nonzero" fill-opacity="1" /><path clip-path="url(#clip140)" d="M2276.71 1517.37 Q2273.09 1517.37 2271.27 1520.93 Q2269.46 1524.47 2269.46 1531.6 Q2269.46 1538.71 2271.27 1542.27 Q2273.09 1545.82 2276.71 1545.82 Q2280.34 1545.82 2282.15 1542.27 Q2283.97 1538.71 2283.97 1531.6 Q2283.97 1524.47 2282.15 1520.93 Q2280.34 1517.37 2276.71 1517.37 M2276.71 1513.66 Q2282.52 1513.66 2285.57 1518.27 Q2288.65 1522.85 2288.65 1531.6 Q2288.65 1540.33 2285.57 1544.94 Q2282.52 1549.52 2276.71 1549.52 Q2270.9 1549.52 2267.82 1544.94 Q2264.76 1540.33 2264.76 1531.6 Q2264.76 1522.85 2267.82 1518.27 Q2270.9 1513.66 2276.71 1513.66 Z" fill="#000000" fill-rule="nonzero" fill-opacity="1" /><path clip-path="url(#clip140)" d="M2306.87 1517.37 Q2303.26 1517.37 2301.43 1520.93 Q2299.62 1524.47 2299.62 1531.6 Q2299.62 1538.71 2301.43 1542.27 Q2303.26 1545.82 2306.87 1545.82 Q2310.5 1545.82 2312.31 1542.27 Q2314.14 1538.71 2314.14 1531.6 Q2314.14 1524.47 2312.31 1520.93 Q2310.5 1517.37 2306.87 1517.37 M2306.87 1513.66 Q2312.68 1513.66 2315.73 1518.27 Q2318.81 1522.85 2318.81 1531.6 Q2318.81 1540.33 2315.73 1544.94 Q2312.68 1549.52 2306.87 1549.52 Q2301.06 1549.52 2297.98 1544.94 Q2294.92 1540.33 2294.92 1531.6 Q2294.92 1522.85 2297.98 1518.27 Q2301.06 1513.66 2306.87 1513.66 Z" fill="#000000" fill-rule="nonzero" fill-opacity="1" /><path clip-path="url(#clip140)" d="M2337.03 1517.37 Q2333.42 1517.37 2331.59 1520.93 Q2329.78 1524.47 2329.78 1531.6 Q2329.78 1538.71 2331.59 1542.27 Q2333.42 1545.82 2337.03 1545.82 Q2340.66 1545.82 2342.47 1542.27 Q2344.3 1538.71 2344.3 1531.6 Q2344.3 1524.47 2342.47 1520.93 Q2340.66 1517.37 2337.03 1517.37 M2337.03 1513.66 Q2342.84 1513.66 2345.9 1518.27 Q2348.97 1522.85 2348.97 1531.6 Q2348.97 1540.33 2345.9 1544.94 Q2342.84 1549.52 2337.03 1549.52 Q2331.22 1549.52 2328.14 1544.94 Q2325.08 1540.33 2325.08 1531.6 Q2325.08 1522.85 2328.14 1518.27 Q2331.22 1513.66 2337.03 1513.66 Z" fill="#000000" fill-rule="nonzero" fill-opacity="1" /><polyline clip-path="url(#clip142)" style="stroke:#000000; stroke-linecap:round; stroke-linejoin:round; stroke-width:2; stroke-opacity:0.1; fill:none" points="184.191,1348.7 2352.76,1348.7 "/>
<polyline clip-path="url(#clip142)" style="stroke:#000000; stroke-linecap:round; stroke-linejoin:round; stroke-width:2; stroke-opacity:0.1; fill:none" points="184.191,1084.97 2352.76,1084.97 "/>
<polyline clip-path="url(#clip142)" style="stroke:#000000; stroke-linecap:round; stroke-linejoin:round; stroke-width:2; stroke-opacity:0.1; fill:none" points="184.191,821.233 2352.76,821.233 "/>
<polyline clip-path="url(#clip142)" style="stroke:#000000; stroke-linecap:round; stroke-linejoin:round; stroke-width:2; stroke-opacity:0.1; fill:none" points="184.191,557.499 2352.76,557.499 "/>
<polyline clip-path="url(#clip142)" style="stroke:#000000; stroke-linecap:round; stroke-linejoin:round; stroke-width:2; stroke-opacity:0.1; fill:none" points="184.191,293.764 2352.76,293.764 "/>
<polyline clip-path="url(#clip140)" style="stroke:#000000; stroke-linecap:round; stroke-linejoin:round; stroke-width:4; stroke-opacity:1; fill:none" points="184.191,1486.45 184.191,47.2441 "/>
<polyline clip-path="url(#clip140)" style="stroke:#000000; stroke-linecap:round; stroke-linejoin:round; stroke-width:4; stroke-opacity:1; fill:none" points="184.191,1348.7 203.088,1348.7 "/>
<polyline clip-path="url(#clip140)" style="stroke:#000000; stroke-linecap:round; stroke-linejoin:round; stroke-width:4; stroke-opacity:1; fill:none" points="184.191,1084.97 203.088,1084.97 "/>
<polyline clip-path="url(#clip140)" style="stroke:#000000; stroke-linecap:round; stroke-linejoin:round; stroke-width:4; stroke-opacity:1; fill:none" points="184.191,821.233 203.088,821.233 "/>
<polyline clip-path="url(#clip140)" style="stroke:#000000; stroke-linecap:round; stroke-linejoin:round; stroke-width:4; stroke-opacity:1; fill:none" points="184.191,557.499 203.088,557.499 "/>
<polyline clip-path="url(#clip140)" style="stroke:#000000; stroke-linecap:round; stroke-linejoin:round; stroke-width:4; stroke-opacity:1; fill:none" points="184.191,293.764 203.088,293.764 "/>
<path clip-path="url(#clip140)" d="M51.6634 1362.05 L59.3023 1362.05 L59.3023 1335.68 L50.9921 1337.35 L50.9921 1333.09 L59.256 1331.42 L63.9319 1331.42 L63.9319 1362.05 L71.5707 1362.05 L71.5707 1365.98 L51.6634 1365.98 L51.6634 1362.05 Z" fill="#000000" fill-rule="nonzero" fill-opacity="1" /><path clip-path="url(#clip140)" d="M81.8253 1362.05 L89.4641 1362.05 L89.4641 1335.68 L81.154 1337.35 L81.154 1333.09 L89.4178 1331.42 L94.0937 1331.42 L94.0937 1362.05 L101.733 1362.05 L101.733 1365.98 L81.8253 1365.98 L81.8253 1362.05 Z" fill="#000000" fill-rule="nonzero" fill-opacity="1" /><path clip-path="url(#clip140)" d="M111.177 1360.1 L116.061 1360.1 L116.061 1365.98 L111.177 1365.98 L111.177 1360.1 Z" fill="#000000" fill-rule="nonzero" fill-opacity="1" /><path clip-path="url(#clip140)" d="M136.246 1334.5 Q132.635 1334.5 130.807 1338.07 Q129.001 1341.61 129.001 1348.74 Q129.001 1355.84 130.807 1359.41 Q132.635 1362.95 136.246 1362.95 Q139.881 1362.95 141.686 1359.41 Q143.515 1355.84 143.515 1348.74 Q143.515 1341.61 141.686 1338.07 Q139.881 1334.5 136.246 1334.5 M136.246 1330.8 Q142.056 1330.8 145.112 1335.4 Q148.191 1339.99 148.191 1348.74 Q148.191 1357.46 145.112 1362.07 Q142.056 1366.65 136.246 1366.65 Q130.436 1366.65 127.357 1362.07 Q124.302 1357.46 124.302 1348.74 Q124.302 1339.99 127.357 1335.4 Q130.436 1330.8 136.246 1330.8 Z" fill="#000000" fill-rule="nonzero" fill-opacity="1" /><path clip-path="url(#clip140)" d="M52.6588 1098.31 L60.2976 1098.31 L60.2976 1071.95 L51.9875 1073.61 L51.9875 1069.35 L60.2513 1067.69 L64.9272 1067.69 L64.9272 1098.31 L72.5661 1098.31 L72.5661 1102.25 L52.6588 1102.25 L52.6588 1098.31 Z" fill="#000000" fill-rule="nonzero" fill-opacity="1" /><path clip-path="url(#clip140)" d="M82.8207 1098.31 L90.4595 1098.31 L90.4595 1071.95 L82.1494 1073.61 L82.1494 1069.35 L90.4132 1067.69 L95.0891 1067.69 L95.0891 1098.31 L102.728 1098.31 L102.728 1102.25 L82.8207 1102.25 L82.8207 1098.31 Z" fill="#000000" fill-rule="nonzero" fill-opacity="1" /><path clip-path="url(#clip140)" d="M112.172 1096.37 L117.057 1096.37 L117.057 1102.25 L112.172 1102.25 L112.172 1096.37 Z" fill="#000000" fill-rule="nonzero" fill-opacity="1" /><path clip-path="url(#clip140)" d="M127.288 1067.69 L145.644 1067.69 L145.644 1071.62 L131.57 1071.62 L131.57 1080.1 Q132.589 1079.75 133.607 1079.59 Q134.626 1079.4 135.644 1079.4 Q141.431 1079.4 144.811 1082.57 Q148.191 1085.74 148.191 1091.16 Q148.191 1096.74 144.718 1099.84 Q141.246 1102.92 134.927 1102.92 Q132.751 1102.92 130.482 1102.55 Q128.237 1102.18 125.83 1101.44 L125.83 1096.74 Q127.913 1097.87 130.135 1098.43 Q132.357 1098.98 134.834 1098.98 Q138.839 1098.98 141.177 1096.88 Q143.515 1094.77 143.515 1091.16 Q143.515 1087.55 141.177 1085.44 Q138.839 1083.34 134.834 1083.34 Q132.959 1083.34 131.084 1083.75 Q129.232 1084.17 127.288 1085.05 L127.288 1067.69 Z" fill="#000000" fill-rule="nonzero" fill-opacity="1" /><path clip-path="url(#clip140)" d="M51.6634 834.578 L59.3023 834.578 L59.3023 808.213 L50.9921 809.879 L50.9921 805.62 L59.256 803.953 L63.9319 803.953 L63.9319 834.578 L71.5707 834.578 L71.5707 838.513 L51.6634 838.513 L51.6634 834.578 Z" fill="#000000" fill-rule="nonzero" fill-opacity="1" /><path clip-path="url(#clip140)" d="M85.0429 834.578 L101.362 834.578 L101.362 838.513 L79.4179 838.513 L79.4179 834.578 Q82.0799 831.824 86.6632 827.194 Q91.2697 822.541 92.4502 821.199 Q94.6956 818.676 95.5752 816.939 Q96.478 815.18 96.478 813.49 Q96.478 810.736 94.5336 809 Q92.6123 807.264 89.5104 807.264 Q87.3114 807.264 84.8577 808.027 Q82.4271 808.791 79.6494 810.342 L79.6494 805.62 Q82.4734 804.486 84.9271 803.907 Q87.3808 803.328 89.4178 803.328 Q94.7882 803.328 97.9826 806.014 Q101.177 808.699 101.177 813.189 Q101.177 815.319 100.367 817.24 Q99.5798 819.138 97.4734 821.731 Q96.8947 822.402 93.7928 825.62 Q90.691 828.814 85.0429 834.578 Z" fill="#000000" fill-rule="nonzero" fill-opacity="1" /><path clip-path="url(#clip140)" d="M111.177 832.634 L116.061 832.634 L116.061 838.513 L111.177 838.513 L111.177 832.634 Z" fill="#000000" fill-rule="nonzero" fill-opacity="1" /><path clip-path="url(#clip140)" d="M136.246 807.032 Q132.635 807.032 130.807 810.597 Q129.001 814.139 129.001 821.268 Q129.001 828.375 130.807 831.939 Q132.635 835.481 136.246 835.481 Q139.881 835.481 141.686 831.939 Q143.515 828.375 143.515 821.268 Q143.515 814.139 141.686 810.597 Q139.881 807.032 136.246 807.032 M136.246 803.328 Q142.056 803.328 145.112 807.935 Q148.191 812.518 148.191 821.268 Q148.191 829.995 145.112 834.601 Q142.056 839.185 136.246 839.185 Q130.436 839.185 127.357 834.601 Q124.302 829.995 124.302 821.268 Q124.302 812.518 127.357 807.935 Q130.436 803.328 136.246 803.328 Z" fill="#000000" fill-rule="nonzero" fill-opacity="1" /><path clip-path="url(#clip140)" d="M52.6588 570.843 L60.2976 570.843 L60.2976 544.478 L51.9875 546.144 L51.9875 541.885 L60.2513 540.219 L64.9272 540.219 L64.9272 570.843 L72.5661 570.843 L72.5661 574.779 L52.6588 574.779 L52.6588 570.843 Z" fill="#000000" fill-rule="nonzero" fill-opacity="1" /><path clip-path="url(#clip140)" d="M86.0382 570.843 L102.358 570.843 L102.358 574.779 L80.4133 574.779 L80.4133 570.843 Q83.0753 568.089 87.6586 563.459 Q92.2651 558.806 93.4456 557.464 Q95.691 554.941 96.5706 553.205 Q97.4734 551.445 97.4734 549.755 Q97.4734 547.001 95.5289 545.265 Q93.6076 543.529 90.5058 543.529 Q88.3067 543.529 85.8531 544.293 Q83.4225 545.056 80.6447 546.607 L80.6447 541.885 Q83.4688 540.751 85.9225 540.172 Q88.3762 539.594 90.4132 539.594 Q95.7836 539.594 98.978 542.279 Q102.172 544.964 102.172 549.455 Q102.172 551.584 101.362 553.505 Q100.575 555.404 98.4687 557.996 Q97.89 558.667 94.7882 561.885 Q91.6864 565.079 86.0382 570.843 Z" fill="#000000" fill-rule="nonzero" fill-opacity="1" /><path clip-path="url(#clip140)" d="M112.172 568.899 L117.057 568.899 L117.057 574.779 L112.172 574.779 L112.172 568.899 Z" fill="#000000" fill-rule="nonzero" fill-opacity="1" /><path clip-path="url(#clip140)" d="M127.288 540.219 L145.644 540.219 L145.644 544.154 L131.57 544.154 L131.57 552.626 Q132.589 552.279 133.607 552.117 Q134.626 551.931 135.644 551.931 Q141.431 551.931 144.811 555.103 Q148.191 558.274 148.191 563.691 Q148.191 569.269 144.718 572.371 Q141.246 575.45 134.927 575.45 Q132.751 575.45 130.482 575.079 Q128.237 574.709 125.83 573.968 L125.83 569.269 Q127.913 570.404 130.135 570.959 Q132.357 571.515 134.834 571.515 Q138.839 571.515 141.177 569.408 Q143.515 567.302 143.515 563.691 Q143.515 560.08 141.177 557.973 Q138.839 555.867 134.834 555.867 Q132.959 555.867 131.084 556.283 Q129.232 556.7 127.288 557.58 L127.288 540.219 Z" fill="#000000" fill-rule="nonzero" fill-opacity="1" /><path clip-path="url(#clip140)" d="M51.6634 307.108 L59.3023 307.108 L59.3023 280.743 L50.9921 282.41 L50.9921 278.15 L59.256 276.484 L63.9319 276.484 L63.9319 307.108 L71.5707 307.108 L71.5707 311.044 L51.6634 311.044 L51.6634 307.108 Z" fill="#000000" fill-rule="nonzero" fill-opacity="1" /><path clip-path="url(#clip140)" d="M95.1817 292.409 Q98.5382 293.127 100.413 295.396 Q102.311 297.664 102.311 300.997 Q102.311 306.113 98.7928 308.914 Q95.2743 311.715 88.7928 311.715 Q86.6169 311.715 84.3021 311.275 Q82.0105 310.858 79.5568 310.002 L79.5568 305.488 Q81.5012 306.622 83.816 307.201 Q86.1308 307.78 88.654 307.78 Q93.0521 307.78 95.3437 306.044 Q97.6585 304.308 97.6585 300.997 Q97.6585 297.942 95.5058 296.229 Q93.3762 294.493 89.5567 294.493 L85.529 294.493 L85.529 290.65 L89.7419 290.65 Q93.191 290.65 95.0197 289.284 Q96.8484 287.896 96.8484 285.303 Q96.8484 282.641 94.9502 281.229 Q93.0752 279.794 89.5567 279.794 Q87.6354 279.794 85.4364 280.21 Q83.2373 280.627 80.5984 281.507 L80.5984 277.34 Q83.2605 276.599 85.5753 276.229 Q87.9132 275.859 89.9734 275.859 Q95.2974 275.859 98.3993 278.289 Q101.501 280.697 101.501 284.817 Q101.501 287.687 99.8576 289.678 Q98.2141 291.646 95.1817 292.409 Z" fill="#000000" fill-rule="nonzero" fill-opacity="1" /><path clip-path="url(#clip140)" d="M111.177 305.164 L116.061 305.164 L116.061 311.044 L111.177 311.044 L111.177 305.164 Z" fill="#000000" fill-rule="nonzero" fill-opacity="1" /><path clip-path="url(#clip140)" d="M136.246 279.562 Q132.635 279.562 130.807 283.127 Q129.001 286.669 129.001 293.798 Q129.001 300.905 130.807 304.47 Q132.635 308.011 136.246 308.011 Q139.881 308.011 141.686 304.47 Q143.515 300.905 143.515 293.798 Q143.515 286.669 141.686 283.127 Q139.881 279.562 136.246 279.562 M136.246 275.859 Q142.056 275.859 145.112 280.465 Q148.191 285.048 148.191 293.798 Q148.191 302.525 145.112 307.132 Q142.056 311.715 136.246 311.715 Q130.436 311.715 127.357 307.132 Q124.302 302.525 124.302 293.798 Q124.302 285.048 127.357 280.465 Q130.436 275.859 136.246 275.859 Z" fill="#000000" fill-rule="nonzero" fill-opacity="1" /><polyline clip-path="url(#clip142)" style="stroke:#009af9; stroke-linecap:round; stroke-linejoin:round; stroke-width:4; stroke-opacity:1; fill:none" points="245.565,87.9763 246.077,111.288 246.588,133.981 247.1,157.131 247.611,179.649 248.122,202.584 248.634,224.867 249.145,245.676 249.657,265.922 250.168,285.619 250.68,304.789 251.191,323.783 251.703,342.264 252.214,361.045 252.726,379.301 253.237,396.103 253.748,412.475 254.26,429.217 254.771,445.505 255.283,460.652 255.794,475.411 256.306,490.324 256.817,504.846 257.329,517.884 257.84,530.611 258.352,543.185 258.863,555.465 259.374,568.245 259.886,580.71 260.397,592.689 260.909,604.376 261.42,616.021 261.932,627.38 262.443,638.699 262.955,649.747 263.466,660.226 263.978,670.46 264.489,679.733 265,688.809 265.512,698.545 266.023,708.057 266.535,716.315 267.046,724.409 267.558,732.479 268.069,740.389 268.581,748.922 269.092,757.273 269.604,764.727 270.115,772.038 270.626,779.655 271.138,787.118 271.649,794.559 272.161,801.847 272.672,809.576 273.184,817.137 273.695,823.853 274.207,830.437 274.718,836.948 275.23,843.333 275.741,849.449 276.252,855.451 276.764,861.842 277.275,868.108 277.787,873.627 278.298,879.053 278.81,885.079 279.321,890.996 279.833,896.928 280.344,902.752 280.855,908.195 281.367,913.539 281.878,918.748 282.39,923.866 282.901,928.676 283.413,933.406 283.924,937.867 284.436,942.257 284.947,947.088 285.459,951.835 285.97,955.966 286.481,960.037 286.993,963.949 287.504,967.807 288.016,971.696 288.527,975.531 289.039,979.613 289.55,983.635 290.062,987.618 290.573,991.538 291.085,995.35 291.596,999.103 292.107,1002.63 292.619,1006.11 293.13,1009.83 293.642,1013.49 294.153,1017.27 294.665,1020.99 295.176,1025.14 295.688,1029.22 296.199,1032.64 296.711,1036 297.222,1039.22 297.733,1042.4 298.245,1045.64 298.756,1048.84 299.268,1051.74 299.779,1054.6 300.291,1057.83 300.802,1061.01 301.314,1063.89 301.825,1066.73 302.337,1069.39 302.848,1072.02 303.359,1075.09 303.871,1078.1 304.382,1080.5 304.894,1082.87 305.405,1085.83 305.917,1088.74 306.428,1091.14 306.94,1093.5 307.451,1096.31 307.963,1099.07 308.474,1101.37 308.985,1103.64 309.497,1105.92 310.008,1108.16 310.52,1110.58 311.031,1112.96 311.543,1115.42 312.054,1117.84 312.566,1119.53 313.077,1121.22 313.589,1123.47 314.1,1125.7 314.611,1127.73 315.123,1129.74 315.634,1131.94 316.146,1134.11 316.657,1136.26 317.169,1138.39 317.68,1140.24 318.192,1142.07 318.703,1144.27 319.215,1146.44 319.726,1148.29 320.237,1150.13 320.749,1152.27 321.26,1154.38 321.772,1156.48 322.283,1158.55 322.795,1160.46 323.306,1162.35 323.818,1164.36 324.329,1166.34 324.841,1168.03 325.352,1169.71 325.863,1171.44 326.375,1173.14 326.886,1174.87 327.398,1176.58 327.909,1178.08 328.421,1179.57 328.932,1181.2 329.444,1182.81 329.955,1184.42 330.467,1186.02 330.978,1187.68 331.489,1189.32 332.001,1190.67 332.512,1192.01 333.024,1193.29 333.535,1194.57 334.047,1195.99 334.558,1197.41 335.07,1198.85 335.581,1200.28 336.093,1201.6 336.604,1202.91 337.115,1204.31 337.627,1205.71 338.138,1207.31 338.65,1208.9 339.161,1210.23 339.673,1211.56 340.184,1212.7 340.696,1213.84 341.207,1215.12 341.719,1216.39 342.23,1217.76 342.741,1219.11 343.253,1220.55 343.764,1221.97 344.276,1223.41 344.787,1224.84 345.299,1226.16 345.81,1227.47 346.322,1228.73 346.833,1229.99 347.345,1231.14 347.856,1232.29 348.367,1233.46 348.879,1234.61 349.39,1235.74 349.902,1236.86 350.413,1238.03 350.925,1239.18 351.436,1240.27 351.948,1241.35 352.459,1242.44 352.971,1243.51 353.482,1244.45 353.993,1245.37 354.505,1246.43 355.016,1247.49 355.528,1248.55 356.039,1249.61 356.551,1250.81 357.062,1251.99 357.574,1253.08 358.085,1254.15 358.597,1255.54 359.108,1256.91 359.619,1257.69 360.131,1258.47 360.642,1259.42 361.154,1260.37 361.665,1261.25 362.177,1262.13 362.688,1263.03 363.2,1263.92 363.711,1264.8 364.223,1265.67 364.734,1266.49 365.245,1267.3 365.757,1268.22 366.268,1269.12 366.78,1270.15 367.291,1271.16 367.803,1272.04 368.314,1272.9 368.826,1273.76 369.337,1274.61 369.849,1275.23 370.36,1275.86 370.871,1276.61 371.383,1277.37 371.894,1277.95 372.406,1278.54 372.917,1279.4 373.429,1280.26 373.94,1281.12 374.452,1281.98 374.963,1282.88 375.474,1283.78 375.986,1284.52 376.497,1285.25 377.009,1286.07 377.52,1286.88 378.032,1287.74 378.543,1288.58 379.055,1289.33 379.566,1290.08 380.078,1290.79 380.589,1291.5 381.1,1292.2 381.612,1292.9 382.123,1293.62 382.635,1294.34 383.146,1295.09 383.658,1295.83 384.169,1296.54 384.681,1297.25 385.192,1297.96 385.704,1298.66 386.215,1299.37 386.726,1300.07 387.238,1300.83 387.749,1301.58 388.261,1302.2 388.772,1302.82 389.284,1303.46 389.795,1304.09 390.307,1304.75 390.818,1305.4 391.33,1306.04 391.841,1306.69 392.352,1307.37 392.864,1308.04 393.375,1308.68 393.887,1309.32 394.398,1309.86 394.91,1310.4 395.421,1310.84 395.933,1311.29 396.444,1311.79 396.956,1312.29 397.467,1313.14 397.978,1313.98 398.49,1314.59 399.001,1315.21 399.513,1315.74 400.024,1316.28 400.536,1316.99 401.047,1317.7 401.559,1318.36 402.07,1319.01 402.582,1319.47 403.093,1319.94 403.604,1320.74 404.116,1321.54 404.627,1322.16 405.139,1322.78 405.65,1323.46 406.162,1324.13 406.673,1324.6 407.185,1325.06 407.696,1325.62 408.208,1326.18 408.719,1326.63 409.23,1327.07 409.742,1327.5 410.253,1327.92 410.765,1328.41 411.276,1328.9 411.788,1329.44 412.299,1329.97 412.811,1330.47 413.322,1330.97 413.834,1331.45 414.345,1331.94 414.856,1332.38 415.368,1332.81 415.879,1333.28 416.391,1333.75 416.902,1334.33 417.414,1334.91 417.925,1335.19 418.437,1335.48 418.948,1335.94 419.46,1336.41 419.971,1336.93 420.482,1337.46 420.994,1337.81 421.505,1338.15 422.017,1338.65 422.528,1339.15 423.04,1339.68 423.551,1340.21 424.063,1340.65 424.574,1341.08 425.086,1341.35 425.597,1341.62 426.108,1342.01 426.62,1342.4 427.131,1342.84 427.643,1343.27 428.154,1343.7 428.666,1344.13 429.177,1344.6 429.689,1345.06 430.2,1345.43 430.712,1345.79 431.223,1346.2 431.734,1346.6 432.246,1347.08 432.757,1347.56 433.269,1347.95 433.78,1348.34 434.292,1348.68 434.803,1349.01 435.315,1349.39 435.826,1349.76 436.338,1350.11 436.849,1350.46 437.36,1350.69 437.872,1350.92 438.383,1351.33 438.895,1351.73 439.406,1352.15 439.918,1352.57 440.429,1352.94 440.941,1353.31 441.452,1353.69 441.964,1354.08 442.475,1354.56 442.986,1355.03 443.498,1355.31 444.009,1355.58 444.521,1355.91 445.032,1356.24 445.544,1356.42 446.055,1356.6 446.567,1356.9 447.078,1357.2 447.59,1357.54 448.101,1357.88 448.612,1358.21 449.124,1358.53 449.635,1358.86 450.147,1359.19 450.658,1359.57 451.17,1359.96 451.681,1360.45 452.193,1360.95 452.704,1361.32 453.216,1361.7 453.727,1362.1 454.238,1362.5 454.75,1362.96 455.261,1363.41 455.773,1363.79 456.284,1364.18 456.796,1364.56 457.307,1364.94 457.819,1365.19 458.33,1365.43 458.842,1365.7 459.353,1365.97 459.864,1366.32 460.376,1366.68 460.887,1366.93 461.399,1367.17 461.91,1367.5 462.422,1367.83 462.933,1368.01 463.445,1368.18 463.956,1368.44 464.468,1368.7 464.979,1368.89 465.49,1369.09 466.002,1369.39 466.513,1369.69 467.025,1370.03 467.536,1370.37 468.048,1370.63 468.559,1370.9 469.071,1371.18 469.582,1371.47 470.094,1371.7 470.605,1371.94 471.116,1372.25 471.628,1372.55 472.139,1372.74 472.651,1372.94 473.162,1373.21 473.674,1373.48 474.185,1373.71 474.697,1373.93 475.208,1374.34 475.719,1374.76 476.231,1374.96 476.742,1375.16 477.254,1375.43 477.765,1375.69 478.277,1375.92 478.788,1376.16 479.3,1376.46 479.811,1376.77 480.323,1377.04 480.834,1377.31 481.345,1377.57 481.857,1377.83 482.368,1378.12 482.88,1378.41 483.391,1378.64 483.903,1378.86 484.414,1379.04 484.926,1379.22 485.437,1379.44 485.949,1379.65 486.46,1379.86 486.971,1380.07 487.483,1380.22 487.994,1380.38 488.506,1380.66 489.017,1380.93 489.529,1381.29 490.04,1381.65 490.552,1381.89 491.063,1382.14 491.575,1382.26 492.086,1382.38 492.597,1382.59 493.109,1382.81 493.62,1383 494.132,1383.19 494.643,1383.36 495.155,1383.52 495.666,1383.84 496.178,1384.16 496.689,1384.23 497.201,1384.3 497.712,1384.55 498.223,1384.79 498.735,1385.06 499.246,1385.33 499.758,1385.52 500.269,1385.7 500.781,1385.87 501.292,1386.04 501.804,1386.22 502.315,1386.4 502.827,1386.58 503.338,1386.76 503.849,1387 504.361,1387.23 504.872,1387.4 505.384,1387.57 505.895,1387.85 506.407,1388.13 506.918,1388.34 507.43,1388.55 507.941,1388.65 508.453,1388.74 508.964,1388.99 509.475,1389.24 509.987,1389.47 510.498,1389.7 511.01,1389.84 511.521,1389.97 512.033,1390.19 512.544,1390.41 513.056,1390.46 513.567,1390.5 514.079,1390.79 514.59,1391.08 515.101,1391.19 515.613,1391.31 516.124,1391.54 516.636,1391.78 517.147,1391.88 517.659,1391.99 518.17,1392.2 518.682,1392.41 519.193,1392.8 519.705,1393.18 520.216,1393.39 520.727,1393.6 521.239,1393.67 521.75,1393.75 522.262,1393.93 522.773,1394.11 523.285,1394.22 523.796,1394.32 524.308,1394.72 524.819,1395.11 525.331,1395.28 525.842,1395.45 526.353,1395.6 526.865,1395.75 527.376,1395.98 527.888,1396.21 528.399,1396.25 528.911,1396.3 529.422,1396.45 529.934,1396.61 530.445,1396.76 530.957,1396.92 531.468,1397.07 531.979,1397.21 532.491,1397.28 533.002,1397.35 533.514,1397.67 534.025,1397.99 534.537,1398.23 535.048,1398.47 535.56,1398.66 536.071,1398.84 536.583,1398.93 537.094,1399.02 537.605,1398.96 538.117,1398.89 538.628,1398.98 539.14,1399.06 539.651,1399.3 540.163,1399.55 540.674,1399.71 541.186,1399.87 541.697,1400.16 542.209,1400.46 542.72,1400.76 543.231,1401.06 543.743,1401.31 544.254,1401.56 544.766,1401.74 545.277,1401.92 545.789,1402.12 546.3,1402.32 546.812,1402.59 547.323,1402.87 547.835,1402.98 548.346,1403.09 548.857,1403.31 549.369,1403.51 549.88,1403.54 550.392,1403.57 550.903,1403.88 551.415,1404.19 551.926,1404.39 552.438,1404.58 552.949,1404.82 553.461,1405.05 553.972,1405.14 554.483,1405.24 554.995,1405.31 555.506,1405.38 556.018,1405.56 556.529,1405.74 557.041,1405.83 557.552,1405.92 558.064,1406.03 558.575,1406.13 559.087,1406.21 559.598,1406.29 560.109,1406.4 560.621,1406.52 561.132,1406.67 561.644,1406.81 562.155,1406.89 562.667,1406.96 563.178,1407.17 563.69,1407.38 564.201,1407.45 564.713,1407.51 565.224,1407.53 565.735,1407.56 566.247,1407.67 566.758,1407.79 567.27,1407.83 567.781,1407.87 568.293,1408.07 568.804,1408.27 569.316,1408.36 569.827,1408.44 570.338,1408.51 570.85,1408.59 571.361,1408.72 571.873,1408.85 572.384,1408.9 572.896,1408.94 573.407,1409.14 573.919,1409.33 574.43,1409.45 574.942,1409.57 575.453,1409.74 575.964,1409.91 576.476,1410.17 576.987,1410.42 577.499,1410.45 578.01,1410.48 578.522,1410.48 579.033,1410.48 579.545,1410.83 580.056,1411.17 580.568,1411.28 581.079,1411.39 581.59,1411.45 582.102,1411.51 582.613,1411.67 583.125,1411.83 583.636,1411.88 584.148,1411.92 584.659,1411.93 585.171,1411.94 585.682,1412.01 586.194,1412.08 586.705,1412.18 587.216,1412.28 587.728,1412.35 588.239,1412.41 588.751,1412.47 589.262,1412.52 589.774,1412.66 590.285,1412.8 590.797,1412.79 591.308,1412.79 591.82,1412.99 592.331,1413.18 592.842,1413.28 593.354,1413.39 593.865,1413.49 594.377,1413.6 594.888,1413.79 595.4,1413.97 595.911,1414.15 596.423,1414.33 596.934,1414.42 597.446,1414.51 597.957,1414.6 598.468,1414.7 598.98,1414.79 599.491,1414.87 600.003,1415.04 600.514,1415.2 601.026,1415.24 601.537,1415.28 602.049,1415.22 602.56,1415.17 603.072,1415.26 603.583,1415.35 604.094,1415.5 604.606,1415.64 605.117,1415.74 605.629,1415.83 606.14,1415.98 606.652,1416.14 607.163,1416.36 607.675,1416.58 608.186,1416.54 608.698,1416.5 609.209,1416.69 609.72,1416.89 610.232,1416.94 610.743,1416.99 611.255,1417.02 611.766,1417.04 612.278,1417.15 612.789,1417.25 613.301,1417.22 613.812,1417.18 614.324,1417.14 614.835,1417.09 615.346,1417.18 615.858,1417.27 616.369,1417.56 616.881,1417.84 617.392,1418.02 617.904,1418.19 618.415,1418.23 618.927,1418.27 619.438,1418.38 619.95,1418.5 620.461,1418.6 620.972,1418.69 621.484,1418.88 621.995,1419.07 622.507,1419.08 623.018,1419.08 623.53,1419.21 624.041,1419.34 624.553,1419.47 625.064,1419.59 625.576,1419.7 626.087,1419.81 626.598,1419.9 627.11,1420 627.621,1420.06 628.133,1420.13 628.644,1420.08 629.156,1420.03 629.667,1420.1 630.179,1420.18 630.69,1420.4 631.202,1420.61 631.713,1420.58 632.224,1420.55 632.736,1420.56 633.247,1420.57 633.759,1420.6 634.27,1420.63 634.782,1420.71 635.293,1420.78 635.805,1420.89 636.316,1421 636.828,1421.04 637.339,1421.07 637.85,1421.14 638.362,1421.2 638.873,1421.32 639.385,1421.44 639.896,1421.55 640.408,1421.66 640.919,1421.68 641.431,1421.7 641.942,1421.93 642.454,1422.15 642.965,1422.27 643.476,1422.39 643.988,1422.52 644.499,1422.65 645.011,1422.62 645.522,1422.59 646.034,1422.75 646.545,1422.9 647.057,1422.93 647.568,1422.95 648.08,1422.99 648.591,1423.02 649.102,1423.11 649.614,1423.2 650.125,1423.22 650.637,1423.23 651.148,1423.38 651.66,1423.52 652.171,1423.62 652.683,1423.71 653.194,1423.72 653.706,1423.73 654.217,1423.78 654.728,1423.84 655.24,1423.82 655.751,1423.8 656.263,1423.77 656.774,1423.75 657.286,1423.72 657.797,1423.69 658.309,1423.71 658.82,1423.72 659.332,1423.68 659.843,1423.63 660.354,1423.78 660.866,1423.92 661.377,1424.12 661.889,1424.32 662.4,1424.42 662.912,1424.51 663.423,1424.6 663.935,1424.69 664.446,1424.72 664.957,1424.74 665.469,1424.75 665.98,1424.77 666.492,1424.87 667.003,1424.98 667.515,1424.99 668.026,1425 668.538,1425.04 669.049,1425.08 669.561,1425.15 670.072,1425.22 670.583,1425.21 671.095,1425.21 671.606,1425.18 672.118,1425.15 672.629,1425.19 673.141,1425.24 673.652,1425.35 674.164,1425.46 674.675,1425.57 675.187,1425.67 675.698,1425.82 676.209,1425.96 676.721,1425.94 677.232,1425.92 677.744,1426.04 678.255,1426.16 678.767,1425.99 679.278,1425.82 679.79,1425.97 680.301,1426.11 680.813,1426.19 681.324,1426.28 681.835,1426.23 682.347,1426.19 682.858,1426.19 683.37,1426.18 683.881,1426.24 684.393,1426.29 684.904,1426.22 685.416,1426.14 685.927,1426.24 686.439,1426.34 686.95,1426.43 687.461,1426.52 687.973,1426.5 688.484,1426.49 688.996,1426.59 689.507,1426.69 690.019,1426.7 690.53,1426.7 691.042,1426.94 691.553,1427.17 692.065,1427.28 692.576,1427.39 693.087,1427.34 693.599,1427.29 694.11,1427.34 694.622,1427.38 695.133,1427.5 695.645,1427.61 696.156,1427.56 696.668,1427.51 697.179,1427.59 697.691,1427.66 698.202,1427.67 698.713,1427.68 699.225,1427.72 699.736,1427.76 700.248,1427.85 700.759,1427.93 701.271,1427.94 701.782,1427.95 702.294,1428.09 702.805,1428.23 703.317,1428.3 703.828,1428.37 704.339,1428.34 704.851,1428.32 705.362,1428.31 705.874,1428.29 706.385,1428.34 706.897,1428.39 707.408,1428.42 707.92,1428.46 708.431,1428.4 708.943,1428.34 709.454,1428.45 709.965,1428.55 710.477,1428.54 710.988,1428.52 711.5,1428.67 712.011,1428.82 712.523,1428.83 713.034,1428.83 713.546,1428.81 714.057,1428.79 714.569,1428.98 715.08,1429.18 715.591,1429.34 716.103,1429.49 716.614,1429.51 717.126,1429.53 717.637,1429.5 718.149,1429.47 718.66,1429.54 719.172,1429.6 719.683,1429.55 720.195,1429.49 720.706,1429.56 721.217,1429.64 721.729,1429.66 722.24,1429.67 722.752,1429.8 723.263,1429.92 723.775,1429.94 724.286,1429.96 724.798,1429.98 725.309,1430 725.821,1430.04 726.332,1430.09 726.843,1430.14 727.355,1430.2 727.866,1430.3 728.378,1430.4 728.889,1430.32 729.401,1430.24 729.912,1430.15 730.424,1430.07 730.935,1430.17 731.447,1430.27 731.958,1430.26 732.469,1430.24 732.981,1430.25 733.492,1430.26 734.004,1430.31 734.515,1430.35 735.027,1430.34 735.538,1430.34 736.05,1430.53 736.561,1430.73 737.073,1430.52 737.584,1430.32 738.095,1430.33 738.607,1430.35 739.118,1430.45 739.63,1430.56 740.141,1430.61 740.653,1430.65 741.164,1430.69 741.676,1430.72 742.187,1430.8 742.699,1430.88 743.21,1430.82 743.721,1430.75 744.233,1430.82 744.744,1430.89 745.256,1431.02 745.767,1431.15 746.279,1431.18 746.79,1431.21 747.302,1431.23 747.813,1431.25 748.325,1431.32 748.836,1431.4 749.347,1431.22 749.859,1431.03 750.37,1431.11 750.882,1431.18 751.393,1431.22 751.905,1431.25 752.416,1431.18 752.928,1431.12 753.439,1431.05 753.951,1430.97 754.462,1431.09 754.973,1431.21 755.485,1431.26 755.996,1431.31 756.508,1431.43 757.019,1431.55 757.531,1431.52 758.042,1431.49 758.554,1431.53 759.065,1431.57 759.576,1431.53 760.088,1431.5 760.599,1431.64 761.111,1431.77 761.622,1431.78 762.134,1431.79 762.645,1431.85 763.157,1431.91 763.668,1431.78 764.18,1431.66 764.691,1431.59 765.202,1431.51 765.714,1431.54 766.225,1431.56 766.737,1431.63 767.248,1431.7 767.76,1431.77 768.271,1431.84 768.783,1431.91 769.294,1431.97 769.806,1432.05 770.317,1432.13 770.828,1432.16 771.34,1432.18 771.851,1432.2 772.363,1432.22 772.874,1432.21 773.386,1432.19 773.897,1432.06 774.409,1431.93 774.92,1432.06 775.432,1432.18 775.943,1432.18 776.454,1432.18 776.966,1432.24 777.477,1432.3 777.989,1432.42 778.5,1432.53 779.012,1432.44 779.523,1432.34 780.035,1432.3 780.546,1432.26 781.058,1432.2 781.569,1432.13 782.08,1432.18 782.592,1432.24 783.103,1432.22 783.615,1432.2 784.126,1432.2 784.638,1432.2 785.149,1432.12 785.661,1432.04 786.172,1432.18 786.684,1432.32 787.195,1432.36 787.706,1432.41 788.218,1432.53 788.729,1432.65 789.241,1432.55 789.752,1432.44 790.264,1432.47 790.775,1432.5 791.287,1432.53 791.798,1432.55 792.31,1432.58 792.821,1432.61 793.332,1432.59 793.844,1432.56 794.355,1432.59 794.867,1432.61 795.378,1432.68 795.89,1432.76 796.401,1432.81 796.913,1432.86 797.424,1432.79 797.936,1432.72 798.447,1432.74 798.958,1432.75 799.47,1432.85 799.981,1432.95 800.493,1432.9 801.004,1432.86 801.516,1432.7 802.027,1432.54 802.539,1432.61 803.05,1432.67 803.562,1432.73 804.073,1432.79 804.584,1432.68 805.096,1432.57 805.607,1432.62 806.119,1432.67 806.63,1432.76 807.142,1432.85 807.653,1433.18 808.165,1433.51 808.676,1433.53 809.188,1433.55 809.699,1433.49 810.21,1433.44 810.722,1433.46 811.233,1433.49 811.745,1433.51 812.256,1433.52 812.768,1433.64 813.279,1433.76 813.791,1433.8 814.302,1433.84 814.814,1433.87 815.325,1433.9 815.836,1433.87 816.348,1433.83 816.859,1433.9 817.371,1433.98 817.882,1434.06 818.394,1434.13 818.905,1434.23 819.417,1434.33 819.928,1434.36 820.44,1434.39 820.951,1434.51 821.462,1434.64 821.974,1434.73 822.485,1434.82 822.997,1434.72 823.508,1434.63 824.02,1434.62 824.531,1434.61 825.043,1434.7 825.554,1434.78 826.066,1434.72 826.577,1434.66 827.088,1434.69 827.6,1434.72 828.111,1434.65 828.623,1434.58 829.134,1434.63 829.646,1434.67 830.157,1434.65 830.669,1434.63 831.18,1434.72 831.692,1434.81 832.203,1434.75 832.714,1434.68 833.226,1434.8 833.737,1434.92 834.249,1434.94 834.76,1434.95 835.272,1435.03 835.783,1435.1 836.295,1435.1 836.806,1435.1 837.318,1435.11 837.829,1435.12 838.34,1435.01 838.852,1434.89 839.363,1434.98 839.875,1435.07 840.386,1435.25 840.898,1435.44 841.409,1435.5 841.921,1435.56 842.432,1435.52 842.944,1435.48 843.455,1435.62 843.966,1435.76 844.478,1435.63 844.989,1435.5 845.501,1435.58 846.012,1435.65 846.524,1435.54 847.035,1435.43 847.547,1435.48 848.058,1435.52 848.57,1435.5 849.081,1435.48 849.592,1435.5 850.104,1435.52 850.615,1435.51 851.127,1435.51 851.638,1435.54 852.15,1435.57 852.661,1435.65 853.173,1435.73 853.684,1435.9 854.196,1436.07 854.707,1436.01 855.218,1435.94 855.73,1436.06 856.241,1436.17 856.753,1436.07 857.264,1435.97 857.776,1435.98 858.287,1435.98 858.799,1435.94 859.31,1435.89 859.821,1435.95 860.333,1436.02 860.844,1436.07 861.356,1436.13 861.867,1436.14 862.379,1436.14 862.89,1436.1 863.402,1436.05 863.913,1436.12 864.425,1436.18 864.936,1436.18 865.447,1436.19 865.959,1436.18 866.47,1436.18 866.982,1436.2 867.493,1436.23 868.005,1436.37 868.516,1436.51 869.028,1436.54 869.539,1436.57 870.051,1436.71 870.562,1436.85 871.073,1436.89 871.585,1436.93 872.096,1437.05 872.608,1437.16 873.119,1437.24 873.631,1437.31 874.142,1437.21 874.654,1437.11 875.165,1437.23 875.677,1437.36 876.188,1437.34 876.699,1437.32 877.211,1437.24 877.722,1437.16 878.234,1437.1 878.745,1437.05 879.257,1437.05 879.768,1437.06 880.28,1436.91 880.791,1436.75 881.303,1436.92 881.814,1437.09 882.325,1437.16 882.837,1437.24 883.348,1437.16 883.86,1437.08 884.371,1436.94 884.883,1436.81 885.394,1436.74 885.906,1436.66 886.417,1436.67 886.929,1436.68 887.44,1436.7 887.951,1436.73 888.463,1436.84 888.974,1436.94 889.486,1437.05 889.997,1437.15 890.509,1437.2 891.02,1437.24 891.532,1437.27 892.043,1437.3 892.555,1437.28 893.066,1437.25 893.577,1437.31 894.089,1437.36 894.6,1437.32 895.112,1437.28 895.623,1437.22 896.135,1437.15 896.646,1437.16 897.158,1437.16 897.669,1437.13 898.181,1437.1 898.692,1437.15 899.203,1437.2 899.715,1437.25 900.226,1437.29 900.738,1437.36 901.249,1437.42 901.761,1437.51 902.272,1437.59 902.784,1437.71 903.295,1437.82 903.807,1437.75 904.318,1437.68 904.829,1437.74 905.341,1437.79 905.852,1437.87 906.364,1437.95 906.875,1437.96 907.387,1437.96 907.898,1437.99 908.41,1438.02 908.921,1437.95 909.433,1437.88 909.944,1437.88 910.455,1437.87 910.967,1437.94 911.478,1438.01 911.99,1437.9 912.501,1437.8 913.013,1437.75 913.524,1437.71 914.036,1437.7 914.547,1437.69 915.059,1437.8 915.57,1437.9 916.081,1437.95 916.593,1437.99 917.104,1438 917.616,1438.01 918.127,1438 918.639,1437.99 919.15,1437.95 919.662,1437.92 920.173,1437.96 920.685,1438 921.196,1437.97 921.707,1437.94 922.219,1437.93 922.73,1437.93 923.242,1438.03 923.753,1438.12 924.265,1438.2 924.776,1438.28 925.288,1438.25 925.799,1438.22 926.311,1438.14 926.822,1438.06 927.333,1437.99 927.845,1437.92 928.356,1437.99 928.868,1438.06 929.379,1438.03 929.891,1437.99 930.402,1437.93 930.914,1437.86 931.425,1437.91 931.937,1437.95 932.448,1438.03 932.959,1438.11 933.471,1438.11 933.982,1438.11 934.494,1438.05 935.005,1437.99 935.517,1438.02 936.028,1438.06 936.54,1438.09 937.051,1438.13 937.563,1438.23 938.074,1438.33 938.585,1438.34 939.097,1438.35 939.608,1438.38 940.12,1438.41 940.631,1438.33 941.143,1438.25 941.654,1438.22 942.166,1438.19 942.677,1438.3 943.189,1438.4 943.7,1438.39 944.211,1438.39 944.723,1438.5 945.234,1438.6 945.746,1438.61 946.257,1438.61 946.769,1438.59 947.28,1438.58 947.792,1438.61 948.303,1438.63 948.815,1438.49 949.326,1438.34 949.837,1438.49 950.349,1438.64 950.86,1438.7 951.372,1438.77 951.883,1438.86 952.395,1438.95 952.906,1438.94 953.418,1438.94 953.929,1439 954.44,1439.06 954.952,1438.98 955.463,1438.9 955.975,1438.8 956.486,1438.71 956.998,1438.75 957.509,1438.79 958.021,1438.76 958.532,1438.73 959.044,1438.8 959.555,1438.88 960.066,1439.03 960.578,1439.19 961.089,1439.21 961.601,1439.23 962.112,1439.21 962.624,1439.19 963.135,1439.13 963.647,1439.07 964.158,1439.09 964.67,1439.12 965.181,1439.16 965.692,1439.19 966.204,1439.17 966.715,1439.15 967.227,1439.22 967.738,1439.3 968.25,1439.41 968.761,1439.52 969.273,1439.64 969.784,1439.75 970.296,1439.81 970.807,1439.87 971.318,1439.83 971.83,1439.79 972.341,1439.79 972.853,1439.79 973.364,1439.82 973.876,1439.85 974.387,1439.8 974.899,1439.74 975.41,1439.77 975.922,1439.79 976.433,1439.94 976.944,1440.08 977.456,1440.07 977.967,1440.07 978.479,1440.04 978.99,1440.01 979.502,1439.96 980.013,1439.92 980.525,1439.96 981.036,1439.99 981.548,1439.92 982.059,1439.85 982.57,1439.84 983.082,1439.83 983.593,1439.74 984.105,1439.64 984.616,1439.59 985.128,1439.53 985.639,1439.45 986.151,1439.36 986.662,1439.4 987.174,1439.43 987.685,1439.35 988.196,1439.27 988.708,1439.19 989.219,1439.1 989.731,1439.08 990.242,1439.05 990.754,1438.99 991.265,1438.93 991.777,1438.97 992.288,1439.02 992.8,1439.06 993.311,1439.11 993.822,1439.17 994.334,1439.24 994.845,1439.26 995.357,1439.28 995.868,1439.25 996.38,1439.23 996.891,1439.14 997.403,1439.06 997.914,1439.1 998.426,1439.15 998.937,1439.17 999.448,1439.2 999.96,1439.34 1000.47,1439.46 1000.98,1439.45 1001.49,1439.43 1002.01,1439.5 1002.52,1439.56 1003.03,1439.52 1003.54,1439.47 1004.05,1439.32 1004.56,1439.18 1005.07,1439.2 1005.59,1439.22 1006.1,1439.13 1006.61,1439.03 1007.12,1439.03 1007.63,1439.02 1008.14,1439.06 1008.65,1439.11 1009.17,1439.08 1009.68,1439.05 1010.19,1438.99 1010.7,1438.93 1011.21,1438.86 1011.72,1438.78 1012.23,1438.82 1012.75,1438.87 1013.26,1438.93 1013.77,1438.99 1014.28,1439 1014.79,1439.02 1015.3,1438.83 1015.81,1438.65 1016.33,1438.66 1016.84,1438.67 1017.35,1438.72 1017.86,1438.77 1018.37,1438.96 1018.88,1439.13 1019.4,1439.17 1019.91,1439.2 1020.42,1439.3 1020.93,1439.41 1021.44,1439.51 1021.95,1439.61 1022.46,1439.63 1022.98,1439.65 1023.49,1439.77 1024,1439.89 1024.51,1439.96 1025.02,1440.02 1025.53,1440.05 1026.04,1440.09 1026.56,1439.98 1027.07,1439.88 1027.58,1439.95 1028.09,1440.03 1028.6,1440.12 1029.11,1440.21 1029.62,1440.2 1030.14,1440.19 1030.65,1440.2 1031.16,1440.2 1031.67,1440.13 1032.18,1440.06 1032.69,1440.23 1033.2,1440.41 1033.72,1440.35 1034.23,1440.3 1034.74,1440.3 1035.25,1440.3 1035.76,1440.32 1036.27,1440.34 1036.78,1440.38 1037.3,1440.41 1037.81,1440.41 1038.32,1440.4 1038.83,1440.51 1039.34,1440.63 1039.85,1440.61 1040.36,1440.59 1040.88,1440.61 1041.39,1440.62 1041.9,1440.7 1042.41,1440.78 1042.92,1440.84 1043.43,1440.9 1043.94,1440.97 1044.46,1441.04 1044.97,1440.88 1045.48,1440.72 1045.99,1440.72 1046.5,1440.71 1047.01,1440.71 1047.53,1440.7 1048.04,1440.78 1048.55,1440.86 1049.06,1440.88 1049.57,1440.91 1050.08,1440.9 1050.59,1440.9 1051.11,1440.87 1051.62,1440.84 1052.13,1440.97 1052.64,1441.11 1053.15,1441.11 1053.66,1441.11 1054.17,1441.09 1054.69,1441.08 1055.2,1441.07 1055.71,1441.06 1056.22,1441.02 1056.73,1440.97 1057.24,1441.07 1057.75,1441.16 1058.27,1441.14 1058.78,1441.12 1059.29,1441.14 1059.8,1441.15 1060.31,1441.18 1060.82,1441.2 1061.33,1441.14 1061.85,1441.08 1062.36,1441.12 1062.87,1441.16 1063.38,1441.1 1063.89,1441.04 1064.4,1441.03 1064.91,1441.02 1065.43,1441.21 1065.94,1441.39 1066.45,1441.35 1066.96,1441.31 1067.47,1441.42 1067.98,1441.53 1068.49,1441.36 1069.01,1441.19 1069.52,1441.09 1070.03,1440.98 1070.54,1440.98 1071.05,1440.97 1071.56,1440.89 1072.07,1440.81 1072.59,1440.8 1073.1,1440.79 1073.61,1440.78 1074.12,1440.76 1074.63,1440.68 1075.14,1440.61 1075.66,1440.56 1076.17,1440.51 1076.68,1440.55 1077.19,1440.59 1077.7,1440.46 1078.21,1440.33 1078.72,1440.32 1079.24,1440.31 1079.75,1440.34 1080.26,1440.37 1080.77,1440.44 1081.28,1440.51 1081.79,1440.42 1082.3,1440.33 1082.82,1440.44 1083.33,1440.55 1083.84,1440.61 1084.35,1440.68 1084.86,1440.65 1085.37,1440.61 1085.88,1440.66 1086.4,1440.71 1086.91,1440.7 1087.42,1440.68 1087.93,1440.64 1088.44,1440.59 1088.95,1440.54 1089.46,1440.49 1089.98,1440.45 1090.49,1440.42 1091,1440.41 1091.51,1440.39 1092.02,1440.43 1092.53,1440.47 1093.04,1440.62 1093.56,1440.77 1094.07,1440.63 1094.58,1440.49 1095.09,1440.52 1095.6,1440.54 1096.11,1440.53 1096.62,1440.51 1097.14,1440.47 1097.65,1440.42 1098.16,1440.42 1098.67,1440.41 1099.18,1440.43 1099.69,1440.44 1100.2,1440.31 1100.72,1440.18 1101.23,1440.18 1101.74,1440.19 1102.25,1440.22 1102.76,1440.25 1103.27,1440.22 1103.79,1440.19 1104.3,1440.35 1104.81,1440.5 1105.32,1440.48 1105.83,1440.46 1106.34,1440.53 1106.85,1440.6 1107.37,1440.63 1107.88,1440.66 1108.39,1440.66 1108.9,1440.67 1109.41,1440.67 1109.92,1440.67 1110.43,1440.77 1110.95,1440.86 1111.46,1440.96 1111.97,1441.05 1112.48,1441.05 1112.99,1441.05 1113.5,1440.98 1114.01,1440.92 1114.53,1440.71 1115.04,1440.5 1115.55,1440.46 1116.06,1440.42 1116.57,1440.36 1117.08,1440.29 1117.59,1440.39 1118.11,1440.49 1118.62,1440.54 1119.13,1440.59 1119.64,1440.67 1120.15,1440.76 1120.66,1440.83 1121.17,1440.9 1121.69,1440.85 1122.2,1440.8 1122.71,1440.8 1123.22,1440.8 1123.73,1440.89 1124.24,1440.97 1124.75,1440.88 1125.27,1440.79 1125.78,1440.79 1126.29,1440.79 1126.8,1440.9 1127.31,1441.01 1127.82,1441.12 1128.33,1441.23 1128.85,1441.19 1129.36,1441.15 1129.87,1441.15 1130.38,1441.14 1130.89,1441.06 1131.4,1440.97 1131.92,1440.93 1132.43,1440.89 1132.94,1440.95 1133.45,1441.01 1133.96,1440.88 1134.47,1440.76 1134.98,1440.78 1135.5,1440.8 1136.01,1440.77 1136.52,1440.75 1137.03,1440.67 1137.54,1440.6 1138.05,1440.62 1138.56,1440.65 1139.08,1440.62 1139.59,1440.59 1140.1,1440.64 1140.61,1440.68 1141.12,1440.56 1141.63,1440.44 1142.14,1440.46 1142.66,1440.48 1143.17,1440.46 1143.68,1440.44 1144.19,1440.51 1144.7,1440.59 1145.21,1440.61 1145.72,1440.63 1146.24,1440.61 1146.75,1440.6 1147.26,1440.54 1147.77,1440.47 1148.28,1440.42 1148.79,1440.38 1149.3,1440.54 1149.82,1440.69 1150.33,1440.89 1150.84,1441.07 1151.35,1441.08 1151.86,1441.08 1152.37,1441.21 1152.88,1441.34 1153.4,1441.37 1153.91,1441.4 1154.42,1441.28 1154.93,1441.15 1155.44,1441.2 1155.95,1441.24 1156.46,1441.36 1156.98,1441.48 1157.49,1441.4 1158,1441.32 1158.51,1441.36 1159.02,1441.4 1159.53,1441.46 1160.05,1441.53 1160.56,1441.6 1161.07,1441.67 1161.58,1441.64 1162.09,1441.6 1162.6,1441.66 1163.11,1441.72 1163.63,1441.85 1164.14,1441.97 1164.65,1441.91 1165.16,1441.84 1165.67,1441.82 1166.18,1441.79 1166.69,1441.81 1167.21,1441.82 1167.72,1441.85 1168.23,1441.87 1168.74,1441.83 1169.25,1441.8 1169.76,1441.79 1170.27,1441.78 1170.79,1441.83 1171.3,1441.87 1171.81,1441.78 1172.32,1441.68 1172.83,1441.73 1173.34,1441.78 1173.85,1441.67 1174.37,1441.56 1174.88,1441.55 1175.39,1441.53 1175.9,1441.42 1176.41,1441.31 1176.92,1441.24 1177.43,1441.17 1177.95,1441.11 1178.46,1441.05 1178.97,1441.02 1179.48,1440.98 1179.99,1441.02 1180.5,1441.07 1181.01,1441.13 1181.53,1441.2 1182.04,1441.28 1182.55,1441.35 1183.06,1441.4 1183.57,1441.45 1184.08,1441.47 1184.59,1441.49 1185.11,1441.47 1185.62,1441.45 1186.13,1441.45 1186.64,1441.45 1187.15,1441.51 1187.66,1441.57 1188.18,1441.6 1188.69,1441.63 1189.2,1441.54 1189.71,1441.46 1190.22,1441.51 1190.73,1441.56 1191.24,1441.59 1191.76,1441.61 1192.27,1441.54 1192.78,1441.48 1193.29,1441.57 1193.8,1441.65 1194.31,1441.69 1194.82,1441.73 1195.34,1441.71 1195.85,1441.69 1196.36,1441.7 1196.87,1441.72 1197.38,1441.82 1197.89,1441.93 1198.4,1441.82 1198.92,1441.71 1199.43,1441.72 1199.94,1441.74 1200.45,1441.84 1200.96,1441.93 1201.47,1441.89 1201.98,1441.85 1202.5,1441.78 1203.01,1441.7 1203.52,1441.73 1204.03,1441.76 1204.54,1441.84 1205.05,1441.9 1205.56,1441.96 1206.08,1442.01 1206.59,1442.01 1207.1,1442.01 1207.61,1442 1208.12,1441.99 1208.63,1442.06 1209.14,1442.13 1209.66,1442.33 1210.17,1442.53 1210.68,1442.44 1211.19,1442.35 1211.7,1442.38 1212.21,1442.4 1212.72,1442.41 1213.24,1442.42 1213.75,1442.37 1214.26,1442.31 1214.77,1442.35 1215.28,1442.39 1215.79,1442.45 1216.3,1442.52 1216.82,1442.53 1217.33,1442.55 1217.84,1442.5 1218.35,1442.44 1218.86,1442.41 1219.37,1442.37 1219.89,1442.47 1220.4,1442.56 1220.91,1442.46 1221.42,1442.37 1221.93,1442.44 1222.44,1442.5 1222.95,1442.46 1223.47,1442.42 1223.98,1442.51 1224.49,1442.61 1225,1442.7 1225.51,1442.78 1226.02,1442.82 1226.53,1442.85 1227.05,1442.77 1227.56,1442.69 1228.07,1442.69 1228.58,1442.69 1229.09,1442.61 1229.6,1442.54 1230.11,1442.55 1230.63,1442.56 1231.14,1442.5 1231.65,1442.45 1232.16,1442.42 1232.67,1442.4 1233.18,1442.38 1233.69,1442.37 1234.21,1442.48 1234.72,1442.59 1235.23,1442.52 1235.74,1442.45 1236.25,1442.47 1236.76,1442.48 1237.27,1442.54 1237.79,1442.6 1238.3,1442.51 1238.81,1442.41 1239.32,1442.47 1239.83,1442.53 1240.34,1442.44 1240.85,1442.36 1241.37,1442.31 1241.88,1442.26 1242.39,1442.21 1242.9,1442.15 1243.41,1442.08 1243.92,1442.02 1244.43,1442.01 1244.95,1442 1245.46,1442.1 1245.97,1442.2 1246.48,1442.22 1246.99,1442.24 1247.5,1442.24 1248.02,1442.23 1248.53,1442.16 1249.04,1442.09 1249.55,1441.94 1250.06,1441.79 1250.57,1441.86 1251.08,1441.94 1251.6,1441.98 1252.11,1442.02 1252.62,1442.12 1253.13,1442.22 1253.64,1442.17 1254.15,1442.12 1254.66,1442.04 1255.18,1441.96 1255.69,1442.08 1256.2,1442.19 1256.71,1442.13 1257.22,1442.08 1257.73,1442.02 1258.24,1441.97 1258.76,1441.92 1259.27,1441.87 1259.78,1441.94 1260.29,1442.01 1260.8,1442.06 1261.31,1442.11 1261.82,1442.12 1262.34,1442.14 1262.85,1442.12 1263.36,1442.09 1263.87,1442.13 1264.38,1442.17 1264.89,1442.11 1265.4,1442.04 1265.92,1441.98 1266.43,1441.91 1266.94,1441.9 1267.45,1441.9 1267.96,1441.71 1268.47,1441.52 1268.98,1441.53 1269.5,1441.53 1270.01,1441.6 1270.52,1441.67 1271.03,1441.62 1271.54,1441.57 1272.05,1441.55 1272.56,1441.52 1273.08,1441.5 1273.59,1441.47 1274.1,1441.53 1274.61,1441.58 1275.12,1441.51 1275.63,1441.43 1276.15,1441.57 1276.66,1441.71 1277.17,1441.67 1277.68,1441.63 1278.19,1441.67 1278.7,1441.72 1279.21,1441.61 1279.73,1441.49 1280.24,1441.5 1280.75,1441.51 1281.26,1441.59 1281.77,1441.67 1282.28,1441.78 1282.79,1441.89 1283.31,1441.8 1283.82,1441.71 1284.33,1441.74 1284.84,1441.76 1285.35,1441.64 1285.86,1441.52 1286.37,1441.61 1286.89,1441.7 1287.4,1441.66 1287.91,1441.63 1288.42,1441.7 1288.93,1441.77 1289.44,1441.72 1289.95,1441.67 1290.47,1441.59 1290.98,1441.52 1291.49,1441.5 1292,1441.47 1292.51,1441.43 1293.02,1441.38 1293.53,1441.33 1294.05,1441.29 1294.56,1441.26 1295.07,1441.23 1295.58,1441.23 1296.09,1441.23 1296.6,1441.22 1297.11,1441.22 1297.63,1441.23 1298.14,1441.24 1298.65,1441.26 1299.16,1441.28 1299.67,1441.35 1300.18,1441.41 1300.69,1441.47 1301.21,1441.53 1301.72,1441.47 1302.23,1441.41 1302.74,1441.44 1303.25,1441.47 1303.76,1441.58 1304.28,1441.68 1304.79,1441.73 1305.3,1441.77 1305.81,1441.69 1306.32,1441.61 1306.83,1441.57 1307.34,1441.53 1307.86,1441.57 1308.37,1441.61 1308.88,1441.59 1309.39,1441.56 1309.9,1441.63 1310.41,1441.7 1310.92,1441.66 1311.44,1441.62 1311.95,1441.67 1312.46,1441.71 1312.97,1441.63 1313.48,1441.55 1313.99,1441.54 1314.5,1441.53 1315.02,1441.73 1315.53,1441.94 1316.04,1442 1316.55,1442.07 1317.06,1442.03 1317.57,1441.99 1318.08,1441.92 1318.6,1441.86 1319.11,1441.8 1319.62,1441.74 1320.13,1441.73 1320.64,1441.72 1321.15,1441.65 1321.66,1441.57 1322.18,1441.51 1322.69,1441.44 1323.2,1441.48 1323.71,1441.51 1324.22,1441.55 1324.73,1441.59 1325.24,1441.57 1325.76,1441.54 1326.27,1441.62 1326.78,1441.69 1327.29,1441.76 1327.8,1441.83 1328.31,1441.81 1328.82,1441.79 1329.34,1441.7 1329.85,1441.61 1330.36,1441.61 1330.87,1441.61 1331.38,1441.65 1331.89,1441.69 1332.41,1441.64 1332.92,1441.6 1333.43,1441.45 1333.94,1441.29 1334.45,1441.31 1334.96,1441.33 1335.47,1441.34 1335.99,1441.35 1336.5,1441.2 1337.01,1441.04 1337.52,1441.09 1338.03,1441.14 1338.54,1441.07 1339.05,1441 1339.57,1441.1 1340.08,1441.2 1340.59,1441.02 1341.1,1440.85 1341.61,1440.88 1342.12,1440.9 1342.63,1440.99 1343.15,1441.08 1343.66,1441.12 1344.17,1441.16 1344.68,1441.22 1345.19,1441.28 1345.7,1441.34 1346.21,1441.4 1346.73,1441.44 1347.24,1441.47 1347.75,1441.25 1348.26,1441.03 1348.77,1441.04 1349.28,1441.05 1349.79,1440.92 1350.31,1440.8 1350.82,1440.98 1351.33,1441.16 1351.84,1441.14 1352.35,1441.13 1352.86,1441.14 1353.37,1441.15 1353.89,1441.33 1354.4,1441.5 1354.91,1441.56 1355.42,1441.62 1355.93,1441.53 1356.44,1441.44 1356.95,1441.5 1357.47,1441.56 1357.98,1441.39 1358.49,1441.21 1359,1441.12 1359.51,1441.02 1360.02,1441.02 1360.54,1441.02 1361.05,1440.94 1361.56,1440.85 1362.07,1440.87 1362.58,1440.89 1363.09,1440.88 1363.6,1440.88 1364.12,1440.84 1364.63,1440.8 1365.14,1440.83 1365.65,1440.85 1366.16,1440.83 1366.67,1440.8 1367.18,1440.83 1367.7,1440.86 1368.21,1440.88 1368.72,1440.91 1369.23,1440.87 1369.74,1440.83 1370.25,1440.95 1370.76,1441.07 1371.28,1440.94 1371.79,1440.81 1372.3,1440.81 1372.81,1440.81 1373.32,1440.91 1373.83,1441.01 1374.34,1441.01 1374.86,1441.01 1375.37,1441.07 1375.88,1441.13 1376.39,1441.24 1376.9,1441.35 1377.41,1441.31 1377.92,1441.27 1378.44,1441.21 1378.95,1441.16 1379.46,1441.13 1379.97,1441.11 1380.48,1441.14 1380.99,1441.17 1381.5,1441.06 1382.02,1440.96 1382.53,1440.85 1383.04,1440.73 1383.55,1440.89 1384.06,1441.04 1384.57,1441.05 1385.08,1441.06 1385.6,1440.93 1386.11,1440.81 1386.62,1440.77 1387.13,1440.72 1387.64,1440.79 1388.15,1440.87 1388.66,1440.92 1389.18,1440.97 1389.69,1441.08 1390.2,1441.19 1390.71,1441.12 1391.22,1441.05 1391.73,1440.94 1392.25,1440.83 1392.76,1440.89 1393.27,1440.96 1393.78,1440.9 1394.29,1440.84 1394.8,1440.86 1395.31,1440.88 1395.83,1440.97 1396.34,1441.06 1396.85,1441 1397.36,1440.95 1397.87,1441.07 1398.38,1441.19 1398.89,1441.16 1399.41,1441.13 1399.92,1441.29 1400.43,1441.44 1400.94,1441.56 1401.45,1441.67 1401.96,1441.58 1402.47,1441.49 1402.99,1441.44 1403.5,1441.39 1404.01,1441.43 1404.52,1441.46 1405.03,1441.49 1405.54,1441.53 1406.05,1441.57 1406.57,1441.61 1407.08,1441.56 1407.59,1441.52 1408.1,1441.69 1408.61,1441.86 1409.12,1441.98 1409.63,1442.09 1410.15,1442.17 1410.66,1442.25 1411.17,1442.19 1411.68,1442.12 1412.19,1442.03 1412.7,1441.93 1413.21,1442.1 1413.73,1442.27 1414.24,1442.33 1414.75,1442.39 1415.26,1442.35 1415.77,1442.31 1416.28,1442.32 1416.79,1442.33 1417.31,1442.33 1417.82,1442.32 1418.33,1442.42 1418.84,1442.51 1419.35,1442.41 1419.86,1442.31 1420.38,1442.41 1420.89,1442.51 1421.4,1442.48 1421.91,1442.45 1422.42,1442.51 1422.93,1442.56 1423.44,1442.51 1423.96,1442.46 1424.47,1442.49 1424.98,1442.52 1425.49,1442.55 1426,1442.58 1426.51,1442.64 1427.02,1442.69 1427.54,1442.63 1428.05,1442.56 1428.56,1442.64 1429.07,1442.71 1429.58,1442.63 1430.09,1442.55 1430.6,1442.5 1431.12,1442.44 1431.63,1442.37 1432.14,1442.31 1432.65,1442.43 1433.16,1442.56 1433.67,1442.55 1434.18,1442.55 1434.7,1442.64 1435.21,1442.72 1435.72,1442.68 1436.23,1442.63 1436.74,1442.69 1437.25,1442.75 1437.76,1442.77 1438.28,1442.8 1438.79,1442.88 1439.3,1442.97 1439.81,1442.9 1440.32,1442.84 1440.83,1442.81 1441.34,1442.78 1441.86,1442.76 1442.37,1442.74 1442.88,1442.55 1443.39,1442.36 1443.9,1442.3 1444.41,1442.25 1444.92,1442.33 1445.44,1442.42 1445.95,1442.43 1446.46,1442.44 1446.97,1442.33 1447.48,1442.22 1447.99,1442.21 1448.51,1442.2 1449.02,1442.09 1449.53,1441.99 1450.04,1441.88 1450.55,1441.78 1451.06,1441.9 1451.57,1442.03 1452.09,1442.05 1452.6,1442.08 1453.11,1441.97 1453.62,1441.87 1454.13,1441.65 1454.64,1441.43 1455.15,1441.43 1455.67,1441.43 1456.18,1441.47 1456.69,1441.5 1457.2,1441.57 1457.71,1441.64 1458.22,1441.55 1458.73,1441.47 1459.25,1441.57 1459.76,1441.67 1460.27,1441.65 1460.78,1441.64 1461.29,1441.53 1461.8,1441.43 1462.31,1441.38 1462.83,1441.33 1463.34,1441.22 1463.85,1441.1 1464.36,1441.22 1464.87,1441.33 1465.38,1441.19 1465.89,1441.05 1466.41,1441.08 1466.92,1441.11 1467.43,1441.24 1467.94,1441.37 1468.45,1441.46 1468.96,1441.56 1469.47,1441.5 1469.99,1441.44 1470.5,1441.44 1471.01,1441.43 1471.52,1441.41 1472.03,1441.38 1472.54,1441.39 1473.05,1441.39 1473.57,1441.31 1474.08,1441.23 1474.59,1441.26 1475.1,1441.29 1475.61,1441.13 1476.12,1440.97 1476.64,1441.1 1477.15,1441.23 1477.66,1441.2 1478.17,1441.17 1478.68,1441.22 1479.19,1441.27 1479.7,1441.28 1480.22,1441.3 1480.73,1441.37 1481.24,1441.44 1481.75,1441.46 1482.26,1441.49 1482.77,1441.46 1483.28,1441.44 1483.8,1441.31 1484.31,1441.17 1484.82,1441.11 1485.33,1441.06 1485.84,1441.08 1486.35,1441.1 1486.86,1441.29 1487.38,1441.49 1487.89,1441.51 1488.4,1441.52 1488.91,1441.31 1489.42,1441.1 1489.93,1441.14 1490.44,1441.18 1490.96,1441.09 1491.47,1441 1491.98,1440.89 1492.49,1440.78 1493,1440.75 1493.51,1440.71 1494.02,1440.81 1494.54,1440.9 1495.05,1440.83 1495.56,1440.76 1496.07,1441 1496.58,1441.24 1497.09,1441.22 1497.6,1441.2 1498.12,1441.23 1498.63,1441.26 1499.14,1441.37 1499.65,1441.48 1500.16,1441.35 1500.67,1441.22 1501.18,1441.18 1501.7,1441.14 1502.21,1441.03 1502.72,1440.93 1503.23,1440.83 1503.74,1440.73 1504.25,1440.59 1504.77,1440.44 1505.28,1440.46 1505.79,1440.49 1506.3,1440.51 1506.81,1440.53 1507.32,1440.61 1507.83,1440.69 1508.35,1440.59 1508.86,1440.49 1509.37,1440.48 1509.88,1440.48 1510.39,1440.55 1510.9,1440.63 1511.41,1440.63 1511.93,1440.63 1512.44,1440.64 1512.95,1440.64 1513.46,1440.71 1513.97,1440.78 1514.48,1440.76 1514.99,1440.74 1515.51,1440.73 1516.02,1440.73 1516.53,1440.79 1517.04,1440.85 1517.55,1440.9 1518.06,1440.95 1518.57,1440.85 1519.09,1440.75 1519.6,1440.9 1520.11,1441.04 1520.62,1441.08 1521.13,1441.12 1521.64,1441.18 1522.15,1441.25 1522.67,1441.21 1523.18,1441.17 1523.69,1441.27 1524.2,1441.36 1524.71,1441.49 1525.22,1441.62 1525.73,1441.65 1526.25,1441.69 1526.76,1441.67 1527.27,1441.65 1527.78,1441.68 1528.29,1441.71 1528.8,1441.68 1529.31,1441.65 1529.83,1441.71 1530.34,1441.77 1530.85,1441.72 1531.36,1441.66 1531.87,1441.65 1532.38,1441.64 1532.9,1441.52 1533.41,1441.4 1533.92,1441.43 1534.43,1441.46 1534.94,1441.35 1535.45,1441.23 1535.96,1441.29 1536.48,1441.34 1536.99,1441.28 1537.5,1441.23 1538.01,1441.16 1538.52,1441.1 1539.03,1441.24 1539.54,1441.37 1540.06,1441.42 1540.57,1441.46 1541.08,1441.49 1541.59,1441.53 1542.1,1441.37 1542.61,1441.21 1543.12,1441.26 1543.64,1441.31 1544.15,1441.23 1544.66,1441.15 1545.17,1441.12 1545.68,1441.08 1546.19,1441.2 1546.7,1441.31 1547.22,1441.3 1547.73,1441.28 1548.24,1441.2 1548.75,1441.13 1549.26,1440.87 1549.77,1440.62 1550.28,1440.63 1550.8,1440.64 1551.31,1440.54 1551.82,1440.43 1552.33,1440.56 1552.84,1440.69 1553.35,1440.48 1553.86,1440.28 1554.38,1440.3 1554.89,1440.33 1555.4,1440.31 1555.91,1440.3 1556.42,1440.36 1556.93,1440.42 1557.44,1440.52 1557.96,1440.61 1558.47,1440.55 1558.98,1440.48 1559.49,1440.45 1560,1440.42 1560.51,1440.43 1561.03,1440.45 1561.54,1440.41 1562.05,1440.38 1562.56,1440.35 1563.07,1440.32 1563.58,1440.34 1564.09,1440.36 1564.61,1440.22 1565.12,1440.09 1565.63,1440.18 1566.14,1440.27 1566.65,1440.19 1567.16,1440.11 1567.67,1440.13 1568.19,1440.16 1568.7,1440.19 1569.21,1440.22 1569.72,1440.18 1570.23,1440.13 1570.74,1440.25 1571.25,1440.36 1571.77,1440.23 1572.28,1440.1 1572.79,1440.26 1573.3,1440.42 1573.81,1440.41 1574.32,1440.39 1574.83,1440.39 1575.35,1440.39 1575.86,1440.4 1576.37,1440.42 1576.88,1440.43 1577.39,1440.45 1577.9,1440.52 1578.41,1440.59 1578.93,1440.46 1579.44,1440.34 1579.95,1440.32 1580.46,1440.31 1580.97,1440.38 1581.48,1440.46 1581.99,1440.52 1582.51,1440.58 1583.02,1440.64 1583.53,1440.71 1584.04,1440.78 1584.55,1440.84 1585.06,1440.77 1585.57,1440.7 1586.09,1440.67 1586.6,1440.64 1587.11,1440.65 1587.62,1440.67 1588.13,1440.65 1588.64,1440.62 1589.15,1440.68 1589.67,1440.73 1590.18,1440.79 1590.69,1440.85 1591.2,1440.89 1591.71,1440.92 1592.22,1440.86 1592.74,1440.79 1593.25,1440.83 1593.76,1440.87 1594.27,1440.95 1594.78,1441.03 1595.29,1441.08 1595.8,1441.13 1596.32,1441.03 1596.83,1440.92 1597.34,1440.92 1597.85,1440.92 1598.36,1441.14 1598.87,1441.36 1599.38,1441.34 1599.9,1441.33 1600.41,1441.19 1600.92,1441.05 1601.43,1441.1 1601.94,1441.15 1602.45,1441.1 1602.96,1441.06 1603.48,1441.06 1603.99,1441.07 1604.5,1441.15 1605.01,1441.23 1605.52,1441.25 1606.03,1441.27 1606.54,1441.18 1607.06,1441.09 1607.57,1441.05 1608.08,1441.01 1608.59,1441.02 1609.1,1441.03 1609.61,1441.12 1610.12,1441.21 1610.64,1441.31 1611.15,1441.41 1611.66,1441.48 1612.17,1441.54 1612.68,1441.48 1613.19,1441.43 1613.7,1441.43 1614.22,1441.42 1614.73,1441.39 1615.24,1441.36 1615.75,1441.39 1616.26,1441.42 1616.77,1441.49 1617.28,1441.56 1617.8,1441.43 1618.31,1441.29 1618.82,1441.36 1619.33,1441.43 1619.84,1441.38 1620.35,1441.33 1620.87,1441.21 1621.38,1441.09 1621.89,1441.21 1622.4,1441.33 1622.91,1441.35 1623.42,1441.38 1623.93,1441.36 1624.45,1441.34 1624.96,1441.21 1625.47,1441.08 1625.98,1441.13 1626.49,1441.19 1627,1441.22 1627.51,1441.26 1628.03,1441.29 1628.54,1441.32 1629.05,1441.3 1629.56,1441.27 1630.07,1441.15 1630.58,1441.04 1631.09,1441.11 1631.61,1441.17 1632.12,1441.13 1632.63,1441.1 1633.14,1441.07 1633.65,1441.04 1634.16,1441.08 1634.67,1441.11 1635.19,1441.1 1635.7,1441.1 1636.21,1441.03 1636.72,1440.96 1637.23,1441.04 1637.74,1441.13 1638.25,1441 1638.77,1440.88 1639.28,1441 1639.79,1441.12 1640.3,1441.15 1640.81,1441.17 1641.32,1441.26 1641.83,1441.34 1642.35,1441.42 1642.86,1441.49 1643.37,1441.49 1643.88,1441.48 1644.39,1441.55 1644.9,1441.61 1645.41,1441.75 1645.93,1441.89 1646.44,1441.85 1646.95,1441.81 1647.46,1441.85 1647.97,1441.89 1648.48,1441.89 1649,1441.89 1649.51,1442.03 1650.02,1442.17 1650.53,1442.04 1651.04,1441.91 1651.55,1441.87 1652.06,1441.82 1652.58,1441.71 1653.09,1441.61 1653.6,1441.59 1654.11,1441.57 1654.62,1441.56 1655.13,1441.55 1655.64,1441.55 1656.16,1441.54 1656.67,1441.54 1657.18,1441.54 1657.69,1441.47 1658.2,1441.4 1658.71,1441.39 1659.22,1441.37 1659.74,1441.42 1660.25,1441.48 1660.76,1441.36 1661.27,1441.24 1661.78,1441.24 1662.29,1441.23 1662.8,1441.32 1663.32,1441.42 1663.83,1441.57 1664.34,1441.72 1664.85,1441.83 1665.36,1441.94 1665.87,1441.92 1666.38,1441.9 1666.9,1441.86 1667.41,1441.83 1667.92,1441.88 1668.43,1441.92 1668.94,1442 1669.45,1442.06 1669.96,1442.01 1670.48,1441.96 1670.99,1441.96 1671.5,1441.96 1672.01,1441.93 1672.52,1441.9 1673.03,1441.96 1673.54,1442.02 1674.06,1441.98 1674.57,1441.93 1675.08,1442.03 1675.59,1442.14 1676.1,1442.14 1676.61,1442.13 1677.13,1442.23 1677.64,1442.33 1678.15,1442.25 1678.66,1442.16 1679.17,1442.11 1679.68,1442.06 1680.19,1442.04 1680.71,1442.01 1681.22,1442.05 1681.73,1442.09 1682.24,1442.1 1682.75,1442.11 1683.26,1442.22 1683.77,1442.33 1684.29,1442.31 1684.8,1442.29 1685.31,1442.45 1685.82,1442.61 1686.33,1442.65 1686.84,1442.7 1687.35,1442.69 1687.87,1442.68 1688.38,1442.69 1688.89,1442.7 1689.4,1442.61 1689.91,1442.53 1690.42,1442.57 1690.93,1442.62 1691.45,1442.63 1691.96,1442.63 1692.47,1442.53 1692.98,1442.43 1693.49,1442.44 1694,1442.46 1694.51,1442.45 1695.03,1442.43 1695.54,1442.59 1696.05,1442.74 1696.56,1442.79 1697.07,1442.85 1697.58,1442.89 1698.09,1442.93 1698.61,1442.92 1699.12,1442.91 1699.63,1443.12 1700.14,1443.32 1700.65,1443.28 1701.16,1443.24 1701.67,1443.28 1702.19,1443.32 1702.7,1443.22 1703.21,1443.11 1703.72,1443.12 1704.23,1443.14 1704.74,1443.13 1705.26,1443.12 1705.77,1443.03 1706.28,1442.95 1706.79,1443.03 1707.3,1443.11 1707.81,1443.15 1708.32,1443.19 1708.84,1443.14 1709.35,1443.08 1709.86,1443.04 1710.37,1443 1710.88,1443.13 1711.39,1443.25 1711.9,1443.21 1712.42,1443.17 1712.93,1443.18 1713.44,1443.19 1713.95,1443.14 1714.46,1443.09 1714.97,1443.08 1715.48,1443.07 1716,1443.12 1716.51,1443.17 1717.02,1443.15 1717.53,1443.13 1718.04,1443.19 1718.55,1443.24 1719.06,1443.17 1719.58,1443.1 1720.09,1443.02 1720.6,1442.94 1721.11,1442.91 1721.62,1442.89 1722.13,1442.87 1722.64,1442.85 1723.16,1442.71 1723.67,1442.57 1724.18,1442.56 1724.69,1442.54 1725.2,1442.7 1725.71,1442.86 1726.22,1442.77 1726.74,1442.68 1727.25,1442.63 1727.76,1442.58 1728.27,1442.67 1728.78,1442.76 1729.29,1442.81 1729.8,1442.85 1730.32,1442.84 1730.83,1442.83 1731.34,1442.97 1731.85,1443.11 1732.36,1443.14 1732.87,1443.16 1733.39,1443.2 1733.9,1443.23 1734.41,1443.29 1734.92,1443.34 1735.43,1443.4 1735.94,1443.46 1736.45,1443.5 1736.97,1443.53 1737.48,1443.58 1737.99,1443.63 1738.5,1443.65 1739.01,1443.67 1739.52,1443.74 1740.03,1443.8 1740.55,1443.9 1741.06,1444 1741.57,1444.08 1742.08,1444.17 1742.59,1444.21 1743.1,1444.25 1743.61,1444.26 1744.13,1444.26 1744.64,1444.25 1745.15,1444.25 1745.66,1444.2 1746.17,1444.16 1746.68,1444.1 1747.19,1444.04 1747.71,1443.98 1748.22,1443.92 1748.73,1443.9 1749.24,1443.88 1749.75,1443.89 1750.26,1443.91 1750.77,1443.94 1751.29,1443.98 1751.8,1443.93 1752.31,1443.87 1752.82,1443.87 1753.33,1443.87 1753.84,1443.82 1754.35,1443.77 1754.87,1443.79 1755.38,1443.82 1755.89,1443.8 1756.4,1443.78 1756.91,1443.75 1757.42,1443.73 1757.93,1443.56 1758.45,1443.4 1758.96,1443.37 1759.47,1443.34 1759.98,1443.41 1760.49,1443.48 1761,1443.53 1761.52,1443.59 1762.03,1443.62 1762.54,1443.66 1763.05,1443.69 1763.56,1443.72 1764.07,1443.62 1764.58,1443.52 1765.1,1443.5 1765.61,1443.49 1766.12,1443.4 1766.63,1443.32 1767.14,1443.45 1767.65,1443.59 1768.16,1443.68 1768.68,1443.76 1769.19,1443.83 1769.7,1443.9 1770.21,1443.88 1770.72,1443.85 1771.23,1443.79 1771.74,1443.73 1772.26,1443.84 1772.77,1443.95 1773.28,1443.93 1773.79,1443.92 1774.3,1443.85 1774.81,1443.79 1775.32,1443.61 1775.84,1443.43 1776.35,1443.45 1776.86,1443.47 1777.37,1443.56 1777.88,1443.64 1778.39,1443.53 1778.9,1443.41 1779.42,1443.47 1779.93,1443.53 1780.44,1443.56 1780.95,1443.59 1781.46,1443.6 1781.97,1443.62 1782.48,1443.61 1783,1443.6 1783.51,1443.6 1784.02,1443.6 1784.53,1443.69 1785.04,1443.79 1785.55,1443.88 1786.06,1443.98 1786.58,1443.95 1787.09,1443.93 1787.6,1443.9 1788.11,1443.87 1788.62,1443.83 1789.13,1443.78 1789.64,1443.8 1790.16,1443.81 1790.67,1443.85 1791.18,1443.9 1791.69,1443.99 1792.2,1444.07 1792.71,1444.17 1793.23,1444.27 1793.74,1444.31 1794.25,1444.34 1794.76,1444.36 1795.27,1444.38 1795.78,1444.46 1796.29,1444.53 1796.81,1444.48 1797.32,1444.43 1797.83,1444.3 1798.34,1444.17 1798.85,1444.1 1799.36,1444.02 1799.87,1444.06 1800.39,1444.11 1800.9,1444.15 1801.41,1444.19 1801.92,1444.19 1802.43,1444.2 1802.94,1444.24 1803.45,1444.27 1803.97,1444.18 1804.48,1444.09 1804.99,1444.06 1805.5,1444.03 1806.01,1444.04 1806.52,1444.06 1807.03,1443.98 1807.55,1443.91 1808.06,1443.87 1808.57,1443.82 1809.08,1443.75 1809.59,1443.67 1810.1,1443.67 1810.61,1443.66 1811.13,1443.63 1811.64,1443.59 1812.15,1443.63 1812.66,1443.67 1813.17,1443.52 1813.68,1443.37 1814.19,1443.25 1814.71,1443.12 1815.22,1443.16 1815.73,1443.19 1816.24,1443.15 1816.75,1443.11 1817.26,1443.11 1817.77,1443.12 1818.29,1443.05 1818.8,1442.98 1819.31,1442.98 1819.82,1442.97 1820.33,1442.96 1820.84,1442.96 1821.36,1442.99 1821.87,1443.03 1822.38,1442.98 1822.89,1442.94 1823.4,1443.02 1823.91,1443.1 1824.42,1443.16 1824.94,1443.21 1825.45,1443.21 1825.96,1443.2 1826.47,1443.21 1826.98,1443.22 1827.49,1443.32 1828,1443.42 1828.52,1443.4 1829.03,1443.39 1829.54,1443.45 1830.05,1443.5 1830.56,1443.46 1831.07,1443.42 1831.58,1443.47 1832.1,1443.53 1832.61,1443.47 1833.12,1443.41 1833.63,1443.43 1834.14,1443.45 1834.65,1443.42 1835.16,1443.39 1835.68,1443.42 1836.19,1443.46 1836.7,1443.46 1837.21,1443.45 1837.72,1443.53 1838.23,1443.61 1838.74,1443.49 1839.26,1443.37 1839.77,1443.27 1840.28,1443.16 1840.79,1443.18 1841.3,1443.2 1841.81,1443.26 1842.32,1443.31 1842.84,1443.36 1843.35,1443.41 1843.86,1443.47 1844.37,1443.54 1844.88,1443.42 1845.39,1443.3 1845.9,1443.32 1846.42,1443.34 1846.93,1443.21 1847.44,1443.08 1847.95,1443.1 1848.46,1443.12 1848.97,1443.12 1849.49,1443.13 1850,1442.95 1850.51,1442.76 1851.02,1442.73 1851.53,1442.7 1852.04,1442.65 1852.55,1442.61 1853.07,1442.57 1853.58,1442.53 1854.09,1442.59 1854.6,1442.64 1855.11,1442.7 1855.62,1442.77 1856.13,1442.83 1856.65,1442.9 1857.16,1442.89 1857.67,1442.88 1858.18,1442.96 1858.69,1443.04 1859.2,1443 1859.71,1442.96 1860.23,1443.07 1860.74,1443.17 1861.25,1443.3 1861.76,1443.42 1862.27,1443.41 1862.78,1443.39 1863.29,1443.38 1863.81,1443.37 1864.32,1443.36 1864.83,1443.35 1865.34,1443.28 1865.85,1443.22 1866.36,1443.28 1866.87,1443.34 1867.39,1443.34 1867.9,1443.33 1868.41,1443.29 1868.92,1443.25 1869.43,1443.21 1869.94,1443.17 1870.45,1443.1 1870.97,1443.03 1871.48,1443.15 1871.99,1443.26 1872.5,1443.32 1873.01,1443.38 1873.52,1443.31 1874.03,1443.24 1874.55,1443.26 1875.06,1443.27 1875.57,1443.26 1876.08,1443.26 1876.59,1443.26 1877.1,1443.27 1877.62,1443.14 1878.13,1443.01 1878.64,1443.13 1879.15,1443.25 1879.66,1443.22 1880.17,1443.18 1880.68,1443.09 1881.2,1443 1881.71,1443.01 1882.22,1443.02 1882.73,1443.02 1883.24,1443.03 1883.75,1442.98 1884.26,1442.93 1884.78,1442.88 1885.29,1442.83 1885.8,1442.82 1886.31,1442.81 1886.82,1442.77 1887.33,1442.72 1887.84,1442.63 1888.36,1442.54 1888.87,1442.6 1889.38,1442.66 1889.89,1442.69 1890.4,1442.73 1890.91,1442.76 1891.42,1442.79 1891.94,1442.68 1892.45,1442.57 1892.96,1442.6 1893.47,1442.64 1893.98,1442.7 1894.49,1442.75 1895,1442.81 1895.52,1442.87 1896.03,1442.82 1896.54,1442.76 1897.05,1442.68 1897.56,1442.6 1898.07,1442.61 1898.58,1442.63 1899.1,1442.57 1899.61,1442.52 1900.12,1442.51 1900.63,1442.5 1901.14,1442.56 1901.65,1442.61 1902.16,1442.57 1902.68,1442.54 1903.19,1442.58 1903.7,1442.61 1904.21,1442.58 1904.72,1442.54 1905.23,1442.49 1905.75,1442.44 1906.26,1442.36 1906.77,1442.29 1907.28,1442.28 1907.79,1442.27 1908.3,1442.35 1908.81,1442.42 1909.33,1442.47 1909.84,1442.51 1910.35,1442.47 1910.86,1442.42 1911.37,1442.51 1911.88,1442.58 1912.39,1442.72 1912.91,1442.86 1913.42,1442.83 1913.93,1442.81 1914.44,1442.86 1914.95,1442.9 1915.46,1442.85 1915.97,1442.79 1916.49,1442.78 1917,1442.77 1917.51,1442.76 1918.02,1442.75 1918.53,1442.68 1919.04,1442.62 1919.55,1442.56 1920.07,1442.5 1920.58,1442.45 1921.09,1442.41 1921.6,1442.38 1922.11,1442.35 1922.62,1442.41 1923.13,1442.47 1923.65,1442.52 1924.16,1442.56 1924.67,1442.71 1925.18,1442.86 1925.69,1442.9 1926.2,1442.94 1926.71,1442.81 1927.23,1442.68 1927.74,1442.64 1928.25,1442.6 1928.76,1442.55 1929.27,1442.5 1929.78,1442.57 1930.29,1442.64 1930.81,1442.62 1931.32,1442.6 1931.83,1442.47 1932.34,1442.33 1932.85,1442.29 1933.36,1442.25 1933.88,1442.32 1934.39,1442.39 1934.9,1442.28 1935.41,1442.18 1935.92,1442.16 1936.43,1442.14 1936.94,1442.27 1937.46,1442.41 1937.97,1442.43 1938.48,1442.46 1938.99,1442.45 1939.5,1442.44 1940.01,1442.6 1940.52,1442.76 1941.04,1442.76 1941.55,1442.76 1942.06,1442.85 1942.57,1442.93 1943.08,1442.97 1943.59,1443 1944.1,1442.99 1944.62,1442.98 1945.13,1443.09 1945.64,1443.2 1946.15,1443.14 1946.66,1443.08 1947.17,1443.14 1947.68,1443.19 1948.2,1443.21 1948.71,1443.24 1949.22,1443.29 1949.73,1443.35 1950.24,1443.29 1950.75,1443.24 1951.26,1443.23 1951.78,1443.22 1952.29,1443.18 1952.8,1443.15 1953.31,1443.25 1953.82,1443.34 1954.33,1443.22 1954.84,1443.1 1955.36,1443.25 1955.87,1443.4 1956.38,1443.49 1956.89,1443.57 1957.4,1443.53 1957.91,1443.5 1958.42,1443.32 1958.94,1443.14 1959.45,1443.16 1959.96,1443.17 1960.47,1443.1 1960.98,1443.03 1961.49,1443.11 1962.01,1443.18 1962.52,1443.34 1963.03,1443.49 1963.54,1443.38 1964.05,1443.28 1964.56,1443.34 1965.07,1443.39 1965.59,1443.47 1966.1,1443.54 1966.61,1443.73 1967.12,1443.91 1967.63,1443.88 1968.14,1443.85 1968.65,1443.73 1969.17,1443.62 1969.68,1443.66 1970.19,1443.69 1970.7,1443.75 1971.21,1443.81 1971.72,1443.81 1972.23,1443.82 1972.75,1443.87 1973.26,1443.92 1973.77,1443.97 1974.28,1444.02 1974.79,1444.05 1975.3,1444.07 1975.81,1444.08 1976.33,1444.1 1976.84,1444.02 1977.35,1443.94 1977.86,1443.92 1978.37,1443.91 1978.88,1443.93 1979.39,1443.95 1979.91,1444.05 1980.42,1444.14 1980.93,1444.21 1981.44,1444.28 1981.95,1444.22 1982.46,1444.16 1982.97,1444.17 1983.49,1444.18 1984,1444.08 1984.51,1443.98 1985.02,1444.02 1985.53,1444.07 1986.04,1444.25 1986.55,1444.44 1987.07,1444.61 1987.58,1444.79 1988.09,1444.8 1988.6,1444.82 1989.11,1444.88 1989.62,1444.93 1990.13,1444.96 1990.65,1444.98 1991.16,1444.99 1991.67,1445 1992.18,1444.96 1992.69,1444.93 1993.2,1444.78 1993.72,1444.63 1994.23,1444.52 1994.74,1444.42 1995.25,1444.45 1995.76,1444.49 1996.27,1444.57 1996.78,1444.65 1997.3,1444.63 1997.81,1444.61 1998.32,1444.66 1998.83,1444.71 1999.34,1444.64 1999.85,1444.57 2000.36,1444.61 2000.88,1444.66 2001.39,1444.63 2001.9,1444.6 2002.41,1444.68 2002.92,1444.75 2003.43,1444.8 2003.94,1444.85 2004.46,1444.85 2004.97,1444.86 2005.48,1444.79 2005.99,1444.71 2006.5,1444.65 2007.01,1444.6 2007.52,1444.55 2008.04,1444.51 2008.55,1444.54 2009.06,1444.57 2009.57,1444.35 2010.08,1444.12 2010.59,1444.14 2011.1,1444.16 2011.62,1444.16 2012.13,1444.15 2012.64,1444.33 2013.15,1444.51 2013.66,1444.51 2014.17,1444.51 2014.68,1444.51 2015.2,1444.5 2015.71,1444.64 2016.22,1444.78 2016.73,1444.84 2017.24,1444.91 2017.75,1444.95 2018.26,1444.98 2018.78,1444.99 2019.29,1444.99 2019.8,1445.03 2020.31,1445.06 2020.82,1445 2021.33,1444.93 2021.85,1444.96 2022.36,1444.99 2022.87,1445.06 2023.38,1445.13 2023.89,1445 2024.4,1444.88 2024.91,1444.88 2025.43,1444.89 2025.94,1444.99 2026.45,1445.09 2026.96,1445.09 2027.47,1445.09 2027.98,1445.04 2028.49,1444.99 2029.01,1444.96 2029.52,1444.92 2030.03,1444.88 2030.54,1444.85 2031.05,1444.87 2031.56,1444.89 2032.07,1444.84 2032.59,1444.79 2033.1,1444.74 2033.61,1444.69 2034.12,1444.59 2034.63,1444.49 2035.14,1444.59 2035.65,1444.7 2036.17,1444.73 2036.68,1444.77 2037.19,1444.77 2037.7,1444.77 2038.21,1444.81 2038.72,1444.85 2039.23,1444.8 2039.75,1444.75 2040.26,1444.74 2040.77,1444.72 2041.28,1444.61 2041.79,1444.51 2042.3,1444.56 2042.81,1444.61 2043.33,1444.65 2043.84,1444.69 2044.35,1444.75 2044.86,1444.81 2045.37,1444.94 2045.88,1445.08 2046.39,1445.09 2046.91,1445.1 2047.42,1444.91 2047.93,1444.71 2048.44,1444.72 2048.95,1444.72 2049.46,1444.73 2049.98,1444.74 2050.49,1444.89 2051,1445.03 2051.51,1444.96 2052.02,1444.88 2052.53,1444.99 2053.04,1445.1 2053.56,1445.08 2054.07,1445.07 2054.58,1445.07 2055.09,1445.06 2055.6,1445 2056.11,1444.94 2056.62,1444.99 2057.14,1445.03 2057.65,1444.97 2058.16,1444.9 2058.67,1444.81 2059.18,1444.73 2059.69,1444.82 2060.2,1444.91 2060.72,1444.9 2061.23,1444.89 2061.74,1444.85 2062.25,1444.82 2062.76,1444.9 2063.27,1444.98 2063.78,1444.95 2064.3,1444.93 2064.81,1444.86 2065.32,1444.78 2065.83,1444.89 2066.34,1445 2066.85,1444.97 2067.36,1444.94 2067.88,1444.92 2068.39,1444.89 2068.9,1444.76 2069.41,1444.62 2069.92,1444.63 2070.43,1444.64 2070.94,1444.64 2071.46,1444.63 2071.97,1444.71 2072.48,1444.79 2072.99,1444.82 2073.5,1444.84 2074.01,1444.81 2074.52,1444.77 2075.04,1444.77 2075.55,1444.76 2076.06,1444.87 2076.57,1444.97 2077.08,1445.06 2077.59,1445.15 2078.11,1445.3 2078.62,1445.45 2079.13,1445.44 2079.64,1445.42 2080.15,1445.44 2080.66,1445.46 2081.17,1445.49 2081.69,1445.51 2082.2,1445.4 2082.71,1445.3 2083.22,1445.29 2083.73,1445.29 2084.24,1445.26 2084.75,1445.23 2085.27,1445.26 2085.78,1445.29 2086.29,1445.38 2086.8,1445.46 2087.31,1445.47 2087.82,1445.47 2088.33,1445.44 2088.85,1445.42 2089.36,1445.53 2089.87,1445.65 2090.38,1445.65 2090.89,1445.66 2091.4,1445.61 2091.91,1445.56 2092.43,1445.55 2092.94,1445.55 2093.45,1445.5 2093.96,1445.45 2094.47,1445.52 2094.98,1445.58 2095.49,1445.62 2096.01,1445.65 2096.52,1445.68 2097.03,1445.72 2097.54,1445.63 2098.05,1445.54 2098.56,1445.42 2099.07,1445.3 2099.59,1445.22 2100.1,1445.14 2100.61,1445.11 2101.12,1445.08 2101.63,1445.12 2102.14,1445.16 2102.65,1445.12 2103.17,1445.07 2103.68,1445.11 2104.19,1445.15 2104.7,1445.11 2105.21,1445.07 2105.72,1445.04 2106.24,1445.02 2106.75,1444.95 2107.26,1444.87 2107.77,1444.89 2108.28,1444.91 2108.79,1444.89 2109.3,1444.86 2109.82,1444.75 2110.33,1444.65 2110.84,1444.71 2111.35,1444.78 2111.86,1444.77 2112.37,1444.76 2112.88,1444.67 2113.4,1444.58 2113.91,1444.48 2114.42,1444.37 2114.93,1444.29 2115.44,1444.21 2115.95,1444.29 2116.46,1444.37 2116.98,1444.29 2117.49,1444.2 2118,1444.29 2118.51,1444.37 2119.02,1444.41 2119.53,1444.44 2120.04,1444.57 2120.56,1444.69 2121.07,1444.74 2121.58,1444.79 2122.09,1444.85 2122.6,1444.91 2123.11,1444.82 2123.62,1444.73 2124.14,1444.77 2124.65,1444.8 2125.16,1444.86 2125.67,1444.91 2126.18,1444.9 2126.69,1444.89 2127.2,1444.78 2127.72,1444.67 2128.23,1444.58 2128.74,1444.49 2129.25,1444.52 2129.76,1444.55 2130.27,1444.51 2130.78,1444.48 2131.3,1444.5 2131.81,1444.51 2132.32,1444.32 2132.83,1444.13 2133.34,1444.08 2133.85,1444.02 2134.37,1444.13 2134.88,1444.23 2135.39,1444.24 2135.9,1444.25 2136.41,1444.27 2136.92,1444.29 2137.43,1444.39 2137.95,1444.49 2138.46,1444.4 2138.97,1444.3 2139.48,1444.14 2139.99,1443.98 2140.5,1444.06 2141.01,1444.14 2141.53,1444.26 2142.04,1444.37 2142.55,1444.44 2143.06,1444.51 2143.57,1444.48 2144.08,1444.45 2144.59,1444.46 2145.11,1444.48 2145.62,1444.63 2146.13,1444.79 2146.64,1444.77 2147.15,1444.76 2147.66,1444.8 2148.17,1444.84 2148.69,1444.73 2149.2,1444.62 2149.71,1444.64 2150.22,1444.66 2150.73,1444.59 2151.24,1444.53 2151.75,1444.42 2152.27,1444.32 2152.78,1444.45 2153.29,1444.58 2153.8,1444.66 2154.31,1444.75 2154.82,1444.78 2155.33,1444.8 2155.85,1444.79 2156.36,1444.77 2156.87,1444.73 2157.38,1444.7 2157.89,1444.68 2158.4,1444.67 2158.91,1444.77 2159.43,1444.86 2159.94,1444.9 2160.45,1444.93 2160.96,1444.91 2161.47,1444.88 2161.98,1444.88 2162.49,1444.88 2163.01,1444.84 2163.52,1444.8 2164.03,1444.68 2164.54,1444.56 2165.05,1444.53 2165.56,1444.5 2166.08,1444.58 2166.59,1444.66 2167.1,1444.77 2167.61,1444.87 2168.12,1444.73 2168.63,1444.59 2169.14,1444.61 2169.66,1444.63 2170.17,1444.61 2170.68,1444.59 2171.19,1444.5 2171.7,1444.4 2172.21,1444.37 2172.72,1444.33 2173.24,1444.32 2173.75,1444.3 2174.26,1444.31 2174.77,1444.33 2175.28,1444.31 2175.79,1444.3 2176.3,1444.33 2176.82,1444.36 2177.33,1444.28 2177.84,1444.2 2178.35,1444.16 2178.86,1444.12 2179.37,1444.2 2179.88,1444.28 2180.4,1444.26 2180.91,1444.23 2181.42,1444.17 2181.93,1444.11 2182.44,1444.17 2182.95,1444.22 2183.46,1444.38 2183.98,1444.53 2184.49,1444.34 2185,1444.15 2185.51,1444.14 2186.02,1444.12 2186.53,1444.13 2187.04,1444.14 2187.56,1444.09 2188.07,1444.05 2188.58,1444.07 2189.09,1444.09 2189.6,1444.16 2190.11,1444.22 2190.62,1444.21 2191.14,1444.2 2191.65,1444.24 2192.16,1444.28 2192.67,1444.15 2193.18,1444.02 2193.69,1443.95 2194.21,1443.87 2194.72,1443.87 2195.23,1443.88 2195.74,1443.84 2196.25,1443.8 2196.76,1443.73 2197.27,1443.67 2197.79,1443.55 2198.3,1443.44 2198.81,1443.35 2199.32,1443.25 2199.83,1443.21 2200.34,1443.17 2200.85,1443.15 2201.37,1443.14 2201.88,1443.15 2202.39,1443.17 2202.9,1443.12 2203.41,1443.07 2203.92,1443.11 2204.43,1443.14 2204.95,1443.03 2205.46,1442.91 2205.97,1442.91 2206.48,1442.92 2206.99,1442.89 2207.5,1442.86 2208.01,1442.79 2208.53,1442.73 2209.04,1442.71 2209.55,1442.7 2210.06,1442.69 2210.57,1442.68 2211.08,1442.65 2211.59,1442.62 2212.11,1442.63 2212.62,1442.65 2213.13,1442.62 2213.64,1442.59 2214.15,1442.64 2214.66,1442.69 2215.17,1442.82 2215.69,1442.95 2216.2,1442.99 2216.71,1443.03 2217.22,1443.01 2217.73,1443 2218.24,1442.91 2218.75,1442.81 2219.27,1442.87 2219.78,1442.93 2220.29,1442.95 2220.8,1442.97 2221.31,1443.1 2221.82,1443.22 2222.34,1443.27 2222.85,1443.32 2223.36,1443.33 2223.87,1443.35 2224.38,1443.28 2224.89,1443.21 2225.4,1443.16 2225.92,1443.11 2226.43,1443.01 2226.94,1442.91 2227.45,1442.83 2227.96,1442.75 2228.47,1442.72 2228.98,1442.68 2229.5,1442.61 2230.01,1442.53 2230.52,1442.57 2231.03,1442.61 2231.54,1442.6 2232.05,1442.6 2232.56,1442.59 2233.08,1442.57 2233.59,1442.55 2234.1,1442.53 2234.61,1442.37 2235.12,1442.21 2235.63,1442.18 2236.14,1442.15 2236.66,1442.27 2237.17,1442.39 2237.68,1442.31 2238.19,1442.23 2238.7,1442.24 2239.21,1442.25 2239.72,1442.23 2240.24,1442.21 2240.75,1442.13 2241.26,1442.04 2241.77,1442.16 2242.28,1442.27 2242.79,1442.23 2243.3,1442.19 2243.82,1442.3 2244.33,1442.41 2244.84,1442.49 2245.35,1442.57 2245.86,1442.63 2246.37,1442.7 2246.88,1442.81 2247.4,1442.92 2247.91,1443.02 2248.42,1443.12 2248.93,1443.25 2249.44,1443.38 2249.95,1443.34 2250.47,1443.29 2250.98,1443.38 2251.49,1443.46 2252,1443.39 2252.51,1443.31 2253.02,1443.34 2253.53,1443.38 2254.05,1443.29 2254.56,1443.2 2255.07,1443.13 2255.58,1443.05 2256.09,1443.1 2256.6,1443.15 2257.11,1443.13 2257.63,1443.12 2258.14,1443.18 2258.65,1443.25 2259.16,1443.25 2259.67,1443.24 2260.18,1443.14 2260.69,1443.05 2261.21,1443.02 2261.72,1442.99 2262.23,1442.94 2262.74,1442.89 2263.25,1442.79 2263.76,1442.69 2264.27,1442.58 2264.79,1442.46 2265.3,1442.36 2265.81,1442.27 2266.32,1442.19 2266.83,1442.12 2267.34,1442.14 2267.85,1442.15 2268.37,1442.12 2268.88,1442.08 2269.39,1442.21 2269.9,1442.34 2270.41,1442.49 2270.92,1442.63 2271.43,1442.6 2271.95,1442.57 2272.46,1442.54 2272.97,1442.5 2273.48,1442.57 2273.99,1442.63 2274.5,1442.71 2275.01,1442.78 2275.53,1442.77 2276.04,1442.76 2276.55,1442.83 2277.06,1442.89 2277.57,1442.97 2278.08,1443.04 2278.6,1443.06 2279.11,1443.07 2279.62,1443.03 2280.13,1443 2280.64,1443.17 2281.15,1443.34 2281.66,1443.27 2282.18,1443.2 2282.69,1443.18 2283.2,1443.15 2283.71,1443.3 2284.22,1443.44 2284.73,1443.5 2285.24,1443.55 2285.76,1443.42 2286.27,1443.29 2286.78,1443.22 2287.29,1443.14 2287.8,1443.11 2288.31,1443.08 2288.82,1442.9 2289.34,1442.72 2289.85,1442.83 2290.36,1442.94 2290.87,1442.86 2291.38,1442.78 "/>
<path clip-path="url(#clip140)" d="M2011.18 198.898 L2280.47 198.898 L2280.47 95.2176 L2011.18 95.2176  Z" fill="#ffffff" fill-rule="evenodd" fill-opacity="1"/>
<polyline clip-path="url(#clip140)" style="stroke:#000000; stroke-linecap:round; stroke-linejoin:round; stroke-width:4; stroke-opacity:1; fill:none" points="2011.18,198.898 2280.47,198.898 2280.47,95.2176 2011.18,95.2176 2011.18,198.898 "/>
<polyline clip-path="url(#clip140)" style="stroke:#009af9; stroke-linecap:round; stroke-linejoin:round; stroke-width:4; stroke-opacity:1; fill:none" points="2035.28,147.058 2179.85,147.058 "/>
<path clip-path="url(#clip140)" d="M2217.79 166.745 Q2215.98 171.375 2214.27 172.787 Q2212.56 174.199 2209.69 174.199 L2206.28 174.199 L2206.28 170.634 L2208.78 170.634 Q2210.54 170.634 2211.51 169.8 Q2212.49 168.967 2213.67 165.865 L2214.43 163.921 L2203.94 138.412 L2208.46 138.412 L2216.56 158.689 L2224.66 138.412 L2229.18 138.412 L2217.79 166.745 Z" fill="#000000" fill-rule="nonzero" fill-opacity="1" /><path clip-path="url(#clip140)" d="M2236.47 160.402 L2244.11 160.402 L2244.11 134.037 L2235.8 135.703 L2235.8 131.444 L2244.06 129.778 L2248.74 129.778 L2248.74 160.402 L2256.38 160.402 L2256.38 164.338 L2236.47 164.338 L2236.47 160.402 Z" fill="#000000" fill-rule="nonzero" fill-opacity="1" /></svg>
