<?xml version="1.0" encoding="utf-8"?>
<svg xmlns="http://www.w3.org/2000/svg" xmlns:xlink="http://www.w3.org/1999/xlink" width="600" height="400" viewBox="0 0 2400 1600">
<defs>
  <clipPath id="clip690">
    <rect x="0" y="0" width="2400" height="1600"/>
  </clipPath>
</defs>
<path clip-path="url(#clip690)" d="M0 1600 L2400 1600 L2400 0 L0 0  Z" fill="#ffffff" fill-rule="evenodd" fill-opacity="1"/>
<defs>
  <clipPath id="clip691">
    <rect x="480" y="0" width="1681" height="1600"/>
  </clipPath>
</defs>
<path clip-path="url(#clip690)" d="M186.274 1486.45 L2352.76 1486.45 L2352.76 47.2441 L186.274 47.2441  Z" fill="#ffffff" fill-rule="evenodd" fill-opacity="1"/>
<defs>
  <clipPath id="clip692">
    <rect x="186" y="47" width="2167" height="1440"/>
  </clipPath>
</defs>
<polyline clip-path="url(#clip692)" style="stroke:#000000; stroke-linecap:round; stroke-linejoin:round; stroke-width:2; stroke-opacity:0.1; fill:none" points="247.59,1486.45 247.59,47.2441 "/>
<polyline clip-path="url(#clip692)" style="stroke:#000000; stroke-linecap:round; stroke-linejoin:round; stroke-width:2; stroke-opacity:0.1; fill:none" points="759.064,1486.45 759.064,47.2441 "/>
<polyline clip-path="url(#clip692)" style="stroke:#000000; stroke-linecap:round; stroke-linejoin:round; stroke-width:2; stroke-opacity:0.1; fill:none" points="1270.54,1486.45 1270.54,47.2441 "/>
<polyline clip-path="url(#clip692)" style="stroke:#000000; stroke-linecap:round; stroke-linejoin:round; stroke-width:2; stroke-opacity:0.1; fill:none" points="1782.01,1486.45 1782.01,47.2441 "/>
<polyline clip-path="url(#clip692)" style="stroke:#000000; stroke-linecap:round; stroke-linejoin:round; stroke-width:2; stroke-opacity:0.1; fill:none" points="2293.49,1486.45 2293.49,47.2441 "/>
<polyline clip-path="url(#clip690)" style="stroke:#000000; stroke-linecap:round; stroke-linejoin:round; stroke-width:4; stroke-opacity:1; fill:none" points="186.274,1486.45 2352.76,1486.45 "/>
<polyline clip-path="url(#clip690)" style="stroke:#000000; stroke-linecap:round; stroke-linejoin:round; stroke-width:4; stroke-opacity:1; fill:none" points="247.59,1486.45 247.59,1467.55 "/>
<polyline clip-path="url(#clip690)" style="stroke:#000000; stroke-linecap:round; stroke-linejoin:round; stroke-width:4; stroke-opacity:1; fill:none" points="759.064,1486.45 759.064,1467.55 "/>
<polyline clip-path="url(#clip690)" style="stroke:#000000; stroke-linecap:round; stroke-linejoin:round; stroke-width:4; stroke-opacity:1; fill:none" points="1270.54,1486.45 1270.54,1467.55 "/>
<polyline clip-path="url(#clip690)" style="stroke:#000000; stroke-linecap:round; stroke-linejoin:round; stroke-width:4; stroke-opacity:1; fill:none" points="1782.01,1486.45 1782.01,1467.55 "/>
<polyline clip-path="url(#clip690)" style="stroke:#000000; stroke-linecap:round; stroke-linejoin:round; stroke-width:4; stroke-opacity:1; fill:none" points="2293.49,1486.45 2293.49,1467.55 "/>
<path clip-path="url(#clip690)" d="M247.59 1517.37 Q243.978 1517.37 242.15 1520.93 Q240.344 1524.47 240.344 1531.6 Q240.344 1538.71 242.15 1542.27 Q243.978 1545.82 247.59 1545.82 Q251.224 1545.82 253.029 1542.27 Q254.858 1538.71 254.858 1531.6 Q254.858 1524.47 253.029 1520.93 Q251.224 1517.37 247.59 1517.37 M247.59 1513.66 Q253.4 1513.66 256.455 1518.27 Q259.534 1522.85 259.534 1531.6 Q259.534 1540.33 256.455 1544.94 Q253.4 1549.52 247.59 1549.52 Q241.779 1549.52 238.701 1544.94 Q235.645 1540.33 235.645 1531.6 Q235.645 1522.85 238.701 1518.27 Q241.779 1513.66 247.59 1513.66 Z" fill="#000000" fill-rule="nonzero" fill-opacity="1" /><path clip-path="url(#clip690)" d="M722.756 1544.91 L739.075 1544.91 L739.075 1548.85 L717.131 1548.85 L717.131 1544.91 Q719.793 1542.16 724.376 1537.53 Q728.983 1532.88 730.163 1531.53 Q732.409 1529.01 733.288 1527.27 Q734.191 1525.51 734.191 1523.82 Q734.191 1521.07 732.247 1519.33 Q730.325 1517.6 727.224 1517.6 Q725.025 1517.6 722.571 1518.36 Q720.14 1519.13 717.363 1520.68 L717.363 1515.95 Q720.187 1514.82 722.64 1514.24 Q725.094 1513.66 727.131 1513.66 Q732.501 1513.66 735.696 1516.35 Q738.89 1519.03 738.89 1523.52 Q738.89 1525.65 738.08 1527.57 Q737.293 1529.47 735.187 1532.07 Q734.608 1532.74 731.506 1535.95 Q728.404 1539.15 722.756 1544.91 Z" fill="#000000" fill-rule="nonzero" fill-opacity="1" /><path clip-path="url(#clip690)" d="M748.936 1514.29 L767.293 1514.29 L767.293 1518.22 L753.219 1518.22 L753.219 1526.7 Q754.237 1526.35 755.256 1526.19 Q756.274 1526 757.293 1526 Q763.08 1526 766.46 1529.17 Q769.839 1532.34 769.839 1537.76 Q769.839 1543.34 766.367 1546.44 Q762.895 1549.52 756.575 1549.52 Q754.399 1549.52 752.131 1549.15 Q749.886 1548.78 747.478 1548.04 L747.478 1543.34 Q749.561 1544.47 751.784 1545.03 Q754.006 1545.58 756.483 1545.58 Q760.487 1545.58 762.825 1543.48 Q765.163 1541.37 765.163 1537.76 Q765.163 1534.15 762.825 1532.04 Q760.487 1529.94 756.483 1529.94 Q754.608 1529.94 752.733 1530.35 Q750.881 1530.77 748.936 1531.65 L748.936 1514.29 Z" fill="#000000" fill-rule="nonzero" fill-opacity="1" /><path clip-path="url(#clip690)" d="M789.052 1517.37 Q785.441 1517.37 783.612 1520.93 Q781.807 1524.47 781.807 1531.6 Q781.807 1538.71 783.612 1542.27 Q785.441 1545.82 789.052 1545.82 Q792.686 1545.82 794.492 1542.27 Q796.32 1538.71 796.32 1531.6 Q796.32 1524.47 794.492 1520.93 Q792.686 1517.37 789.052 1517.37 M789.052 1513.66 Q794.862 1513.66 797.918 1518.27 Q800.996 1522.85 800.996 1531.6 Q800.996 1540.33 797.918 1544.94 Q794.862 1549.52 789.052 1549.52 Q783.242 1549.52 780.163 1544.94 Q777.108 1540.33 777.108 1531.6 Q777.108 1522.85 780.163 1518.27 Q783.242 1513.66 789.052 1513.66 Z" fill="#000000" fill-rule="nonzero" fill-opacity="1" /><path clip-path="url(#clip690)" d="M1230.16 1514.29 L1248.51 1514.29 L1248.51 1518.22 L1234.44 1518.22 L1234.44 1526.7 Q1235.46 1526.35 1236.48 1526.19 Q1237.49 1526 1238.51 1526 Q1244.3 1526 1247.68 1529.17 Q1251.06 1532.34 1251.06 1537.76 Q1251.06 1543.34 1247.59 1546.44 Q1244.11 1549.52 1237.8 1549.52 Q1235.62 1549.52 1233.35 1549.15 Q1231.11 1548.78 1228.7 1548.04 L1228.7 1543.34 Q1230.78 1544.47 1233 1545.03 Q1235.23 1545.58 1237.7 1545.58 Q1241.71 1545.58 1244.04 1543.48 Q1246.38 1541.37 1246.38 1537.76 Q1246.38 1534.15 1244.04 1532.04 Q1241.71 1529.94 1237.7 1529.94 Q1235.83 1529.94 1233.95 1530.35 Q1232.1 1530.77 1230.16 1531.65 L1230.16 1514.29 Z" fill="#000000" fill-rule="nonzero" fill-opacity="1" /><path clip-path="url(#clip690)" d="M1270.27 1517.37 Q1266.66 1517.37 1264.83 1520.93 Q1263.03 1524.47 1263.03 1531.6 Q1263.03 1538.71 1264.83 1542.27 Q1266.66 1545.82 1270.27 1545.82 Q1273.91 1545.82 1275.71 1542.27 Q1277.54 1538.71 1277.54 1531.6 Q1277.54 1524.47 1275.71 1520.93 Q1273.91 1517.37 1270.27 1517.37 M1270.27 1513.66 Q1276.08 1513.66 1279.14 1518.27 Q1282.22 1522.85 1282.22 1531.6 Q1282.22 1540.33 1279.14 1544.94 Q1276.08 1549.52 1270.27 1549.52 Q1264.46 1549.52 1261.38 1544.94 Q1258.33 1540.33 1258.33 1531.6 Q1258.33 1522.85 1261.38 1518.27 Q1264.46 1513.66 1270.27 1513.66 Z" fill="#000000" fill-rule="nonzero" fill-opacity="1" /><path clip-path="url(#clip690)" d="M1300.43 1517.37 Q1296.82 1517.37 1294.99 1520.93 Q1293.19 1524.47 1293.19 1531.6 Q1293.19 1538.71 1294.99 1542.27 Q1296.82 1545.82 1300.43 1545.82 Q1304.07 1545.82 1305.87 1542.27 Q1307.7 1538.71 1307.7 1531.6 Q1307.7 1524.47 1305.87 1520.93 Q1304.07 1517.37 1300.43 1517.37 M1300.43 1513.66 Q1306.24 1513.66 1309.3 1518.27 Q1312.38 1522.85 1312.38 1531.6 Q1312.38 1540.33 1309.3 1544.94 Q1306.24 1549.52 1300.43 1549.52 Q1294.62 1549.52 1291.54 1544.94 Q1288.49 1540.33 1288.49 1531.6 Q1288.49 1522.85 1291.54 1518.27 Q1294.62 1513.66 1300.43 1513.66 Z" fill="#000000" fill-rule="nonzero" fill-opacity="1" /><path clip-path="url(#clip690)" d="M1740.29 1514.29 L1762.51 1514.29 L1762.51 1516.28 L1749.96 1548.85 L1745.08 1548.85 L1756.88 1518.22 L1740.29 1518.22 L1740.29 1514.29 Z" fill="#000000" fill-rule="nonzero" fill-opacity="1" /><path clip-path="url(#clip690)" d="M1771.68 1514.29 L1790.03 1514.29 L1790.03 1518.22 L1775.96 1518.22 L1775.96 1526.7 Q1776.98 1526.35 1778 1526.19 Q1779.01 1526 1780.03 1526 Q1785.82 1526 1789.2 1529.17 Q1792.58 1532.34 1792.58 1537.76 Q1792.58 1543.34 1789.11 1546.44 Q1785.63 1549.52 1779.32 1549.52 Q1777.14 1549.52 1774.87 1549.15 Q1772.63 1548.78 1770.22 1548.04 L1770.22 1543.34 Q1772.3 1544.47 1774.52 1545.03 Q1776.75 1545.58 1779.22 1545.58 Q1783.23 1545.58 1785.57 1543.48 Q1787.9 1541.37 1787.9 1537.76 Q1787.9 1534.15 1785.57 1532.04 Q1783.23 1529.94 1779.22 1529.94 Q1777.35 1529.94 1775.47 1530.35 Q1773.62 1530.77 1771.68 1531.65 L1771.68 1514.29 Z" fill="#000000" fill-rule="nonzero" fill-opacity="1" /><path clip-path="url(#clip690)" d="M1811.79 1517.37 Q1808.18 1517.37 1806.35 1520.93 Q1804.55 1524.47 1804.55 1531.6 Q1804.55 1538.71 1806.35 1542.27 Q1808.18 1545.82 1811.79 1545.82 Q1815.43 1545.82 1817.23 1542.27 Q1819.06 1538.71 1819.06 1531.6 Q1819.06 1524.47 1817.23 1520.93 Q1815.43 1517.37 1811.79 1517.37 M1811.79 1513.66 Q1817.6 1513.66 1820.66 1518.27 Q1823.74 1522.85 1823.74 1531.6 Q1823.74 1540.33 1820.66 1544.94 Q1817.6 1549.52 1811.79 1549.52 Q1805.98 1549.52 1802.9 1544.94 Q1799.85 1540.33 1799.85 1531.6 Q1799.85 1522.85 1802.9 1518.27 Q1805.98 1513.66 1811.79 1513.66 Z" fill="#000000" fill-rule="nonzero" fill-opacity="1" /><path clip-path="url(#clip690)" d="M2238.01 1544.91 L2245.65 1544.91 L2245.65 1518.55 L2237.34 1520.21 L2237.34 1515.95 L2245.6 1514.29 L2250.28 1514.29 L2250.28 1544.91 L2257.92 1544.91 L2257.92 1548.85 L2238.01 1548.85 L2238.01 1544.91 Z" fill="#000000" fill-rule="nonzero" fill-opacity="1" /><path clip-path="url(#clip690)" d="M2277.36 1517.37 Q2273.75 1517.37 2271.92 1520.93 Q2270.12 1524.47 2270.12 1531.6 Q2270.12 1538.71 2271.92 1542.27 Q2273.75 1545.82 2277.36 1545.82 Q2281 1545.82 2282.8 1542.27 Q2284.63 1538.71 2284.63 1531.6 Q2284.63 1524.47 2282.8 1520.93 Q2281 1517.37 2277.36 1517.37 M2277.36 1513.66 Q2283.17 1513.66 2286.23 1518.27 Q2289.31 1522.85 2289.31 1531.6 Q2289.31 1540.33 2286.23 1544.94 Q2283.17 1549.52 2277.36 1549.52 Q2271.55 1549.52 2268.47 1544.94 Q2265.42 1540.33 2265.42 1531.6 Q2265.42 1522.85 2268.47 1518.27 Q2271.55 1513.66 2277.36 1513.66 Z" fill="#000000" fill-rule="nonzero" fill-opacity="1" /><path clip-path="url(#clip690)" d="M2307.53 1517.37 Q2303.91 1517.37 2302.09 1520.93 Q2300.28 1524.47 2300.28 1531.6 Q2300.28 1538.71 2302.09 1542.27 Q2303.91 1545.82 2307.53 1545.82 Q2311.16 1545.82 2312.97 1542.27 Q2314.79 1538.71 2314.79 1531.6 Q2314.79 1524.47 2312.97 1520.93 Q2311.16 1517.37 2307.53 1517.37 M2307.53 1513.66 Q2313.34 1513.66 2316.39 1518.27 Q2319.47 1522.85 2319.47 1531.6 Q2319.47 1540.33 2316.39 1544.94 Q2313.34 1549.52 2307.53 1549.52 Q2301.72 1549.52 2298.64 1544.94 Q2295.58 1540.33 2295.58 1531.6 Q2295.58 1522.85 2298.64 1518.27 Q2301.72 1513.66 2307.53 1513.66 Z" fill="#000000" fill-rule="nonzero" fill-opacity="1" /><path clip-path="url(#clip690)" d="M2337.69 1517.37 Q2334.08 1517.37 2332.25 1520.93 Q2330.44 1524.47 2330.44 1531.6 Q2330.44 1538.71 2332.25 1542.27 Q2334.08 1545.82 2337.69 1545.82 Q2341.32 1545.82 2343.13 1542.27 Q2344.96 1538.71 2344.96 1531.6 Q2344.96 1524.47 2343.13 1520.93 Q2341.32 1517.37 2337.69 1517.37 M2337.69 1513.66 Q2343.5 1513.66 2346.55 1518.27 Q2349.63 1522.85 2349.63 1531.6 Q2349.63 1540.33 2346.55 1544.94 Q2343.5 1549.52 2337.69 1549.52 Q2331.88 1549.52 2328.8 1544.94 Q2325.74 1540.33 2325.74 1531.6 Q2325.74 1522.85 2328.8 1518.27 Q2331.88 1513.66 2337.69 1513.66 Z" fill="#000000" fill-rule="nonzero" fill-opacity="1" /><polyline clip-path="url(#clip692)" style="stroke:#000000; stroke-linecap:round; stroke-linejoin:round; stroke-width:2; stroke-opacity:0.1; fill:none" points="186.274,1445.72 2352.76,1445.72 "/>
<polyline clip-path="url(#clip692)" style="stroke:#000000; stroke-linecap:round; stroke-linejoin:round; stroke-width:2; stroke-opacity:0.1; fill:none" points="186.274,1207.52 2352.76,1207.52 "/>
<polyline clip-path="url(#clip692)" style="stroke:#000000; stroke-linecap:round; stroke-linejoin:round; stroke-width:2; stroke-opacity:0.1; fill:none" points="186.274,969.316 2352.76,969.316 "/>
<polyline clip-path="url(#clip692)" style="stroke:#000000; stroke-linecap:round; stroke-linejoin:round; stroke-width:2; stroke-opacity:0.1; fill:none" points="186.274,731.116 2352.76,731.116 "/>
<polyline clip-path="url(#clip692)" style="stroke:#000000; stroke-linecap:round; stroke-linejoin:round; stroke-width:2; stroke-opacity:0.1; fill:none" points="186.274,492.916 2352.76,492.916 "/>
<polyline clip-path="url(#clip692)" style="stroke:#000000; stroke-linecap:round; stroke-linejoin:round; stroke-width:2; stroke-opacity:0.1; fill:none" points="186.274,254.716 2352.76,254.716 "/>
<polyline clip-path="url(#clip690)" style="stroke:#000000; stroke-linecap:round; stroke-linejoin:round; stroke-width:4; stroke-opacity:1; fill:none" points="186.274,1486.45 186.274,47.2441 "/>
<polyline clip-path="url(#clip690)" style="stroke:#000000; stroke-linecap:round; stroke-linejoin:round; stroke-width:4; stroke-opacity:1; fill:none" points="186.274,1445.72 205.172,1445.72 "/>
<polyline clip-path="url(#clip690)" style="stroke:#000000; stroke-linecap:round; stroke-linejoin:round; stroke-width:4; stroke-opacity:1; fill:none" points="186.274,1207.52 205.172,1207.52 "/>
<polyline clip-path="url(#clip690)" style="stroke:#000000; stroke-linecap:round; stroke-linejoin:round; stroke-width:4; stroke-opacity:1; fill:none" points="186.274,969.316 205.172,969.316 "/>
<polyline clip-path="url(#clip690)" style="stroke:#000000; stroke-linecap:round; stroke-linejoin:round; stroke-width:4; stroke-opacity:1; fill:none" points="186.274,731.116 205.172,731.116 "/>
<polyline clip-path="url(#clip690)" style="stroke:#000000; stroke-linecap:round; stroke-linejoin:round; stroke-width:4; stroke-opacity:1; fill:none" points="186.274,492.916 205.172,492.916 "/>
<polyline clip-path="url(#clip690)" style="stroke:#000000; stroke-linecap:round; stroke-linejoin:round; stroke-width:4; stroke-opacity:1; fill:none" points="186.274,254.716 205.172,254.716 "/>
<path clip-path="url(#clip690)" d="M63.9319 1431.51 Q60.3208 1431.51 58.4921 1435.08 Q56.6865 1438.62 56.6865 1445.75 Q56.6865 1452.86 58.4921 1456.42 Q60.3208 1459.96 63.9319 1459.96 Q67.5661 1459.96 69.3717 1456.42 Q71.2004 1452.86 71.2004 1445.75 Q71.2004 1438.62 69.3717 1435.08 Q67.5661 1431.51 63.9319 1431.51 M63.9319 1427.81 Q69.742 1427.81 72.7976 1432.42 Q75.8763 1437 75.8763 1445.75 Q75.8763 1454.48 72.7976 1459.08 Q69.742 1463.67 63.9319 1463.67 Q58.1217 1463.67 55.043 1459.08 Q51.9875 1454.48 51.9875 1445.75 Q51.9875 1437 55.043 1432.42 Q58.1217 1427.81 63.9319 1427.81 Z" fill="#000000" fill-rule="nonzero" fill-opacity="1" /><path clip-path="url(#clip690)" d="M84.0938 1457.12 L88.978 1457.12 L88.978 1463 L84.0938 1463 L84.0938 1457.12 Z" fill="#000000" fill-rule="nonzero" fill-opacity="1" /><path clip-path="url(#clip690)" d="M109.742 1443.85 Q106.594 1443.85 104.742 1446.01 Q102.913 1448.16 102.913 1451.91 Q102.913 1455.63 104.742 1457.81 Q106.594 1459.96 109.742 1459.96 Q112.89 1459.96 114.719 1457.81 Q116.57 1455.63 116.57 1451.91 Q116.57 1448.16 114.719 1446.01 Q112.89 1443.85 109.742 1443.85 M119.024 1429.2 L119.024 1433.46 Q117.265 1432.63 115.459 1432.19 Q113.677 1431.75 111.918 1431.75 Q107.288 1431.75 104.834 1434.87 Q102.404 1438 102.057 1444.32 Q103.422 1442.3 105.483 1441.24 Q107.543 1440.15 110.02 1440.15 Q115.228 1440.15 118.237 1443.32 Q121.27 1446.47 121.27 1451.91 Q121.27 1457.23 118.121 1460.45 Q114.973 1463.67 109.742 1463.67 Q103.746 1463.67 100.575 1459.08 Q97.4039 1454.48 97.4039 1445.75 Q97.4039 1437.56 101.293 1432.69 Q105.182 1427.81 111.733 1427.81 Q113.492 1427.81 115.274 1428.16 Q117.08 1428.51 119.024 1429.2 Z" fill="#000000" fill-rule="nonzero" fill-opacity="1" /><path clip-path="url(#clip690)" d="M129.371 1428.44 L147.728 1428.44 L147.728 1432.37 L133.654 1432.37 L133.654 1440.84 Q134.672 1440.5 135.691 1440.33 Q136.709 1440.15 137.728 1440.15 Q143.515 1440.15 146.894 1443.32 Q150.274 1446.49 150.274 1451.91 Q150.274 1457.49 146.802 1460.59 Q143.33 1463.67 137.01 1463.67 Q134.834 1463.67 132.566 1463.3 Q130.32 1462.93 127.913 1462.19 L127.913 1457.49 Q129.996 1458.62 132.219 1459.18 Q134.441 1459.73 136.918 1459.73 Q140.922 1459.73 143.26 1457.63 Q145.598 1455.52 145.598 1451.91 Q145.598 1448.3 143.26 1446.19 Q140.922 1444.08 136.918 1444.08 Q135.043 1444.08 133.168 1444.5 Q131.316 1444.92 129.371 1445.8 L129.371 1428.44 Z" fill="#000000" fill-rule="nonzero" fill-opacity="1" /><path clip-path="url(#clip690)" d="M62.9365 1193.31 Q59.3254 1193.31 57.4967 1196.88 Q55.6912 1200.42 55.6912 1207.55 Q55.6912 1214.66 57.4967 1218.22 Q59.3254 1221.76 62.9365 1221.76 Q66.5707 1221.76 68.3763 1218.22 Q70.205 1214.66 70.205 1207.55 Q70.205 1200.42 68.3763 1196.88 Q66.5707 1193.31 62.9365 1193.31 M62.9365 1189.61 Q68.7467 1189.61 71.8022 1194.22 Q74.8809 1198.8 74.8809 1207.55 Q74.8809 1216.28 71.8022 1220.88 Q68.7467 1225.47 62.9365 1225.47 Q57.1264 1225.47 54.0477 1220.88 Q50.9921 1216.28 50.9921 1207.55 Q50.9921 1198.8 54.0477 1194.22 Q57.1264 1189.61 62.9365 1189.61 Z" fill="#000000" fill-rule="nonzero" fill-opacity="1" /><path clip-path="url(#clip690)" d="M83.0984 1218.92 L87.9827 1218.92 L87.9827 1224.8 L83.0984 1224.8 L83.0984 1218.92 Z" fill="#000000" fill-rule="nonzero" fill-opacity="1" /><path clip-path="url(#clip690)" d="M96.9872 1190.24 L119.209 1190.24 L119.209 1192.23 L106.663 1224.8 L101.779 1224.8 L113.584 1194.17 L96.9872 1194.17 L96.9872 1190.24 Z" fill="#000000" fill-rule="nonzero" fill-opacity="1" /><path clip-path="url(#clip690)" d="M138.33 1193.31 Q134.719 1193.31 132.89 1196.88 Q131.084 1200.42 131.084 1207.55 Q131.084 1214.66 132.89 1218.22 Q134.719 1221.76 138.33 1221.76 Q141.964 1221.76 143.769 1218.22 Q145.598 1214.66 145.598 1207.55 Q145.598 1200.42 143.769 1196.88 Q141.964 1193.31 138.33 1193.31 M138.33 1189.61 Q144.14 1189.61 147.195 1194.22 Q150.274 1198.8 150.274 1207.55 Q150.274 1216.28 147.195 1220.88 Q144.14 1225.47 138.33 1225.47 Q132.519 1225.47 129.441 1220.88 Q126.385 1216.28 126.385 1207.55 Q126.385 1198.8 129.441 1194.22 Q132.519 1189.61 138.33 1189.61 Z" fill="#000000" fill-rule="nonzero" fill-opacity="1" /><path clip-path="url(#clip690)" d="M63.9319 955.115 Q60.3208 955.115 58.4921 958.679 Q56.6865 962.221 56.6865 969.351 Q56.6865 976.457 58.4921 980.022 Q60.3208 983.564 63.9319 983.564 Q67.5661 983.564 69.3717 980.022 Q71.2004 976.457 71.2004 969.351 Q71.2004 962.221 69.3717 958.679 Q67.5661 955.115 63.9319 955.115 M63.9319 951.411 Q69.742 951.411 72.7976 956.017 Q75.8763 960.601 75.8763 969.351 Q75.8763 978.077 72.7976 982.684 Q69.742 987.267 63.9319 987.267 Q58.1217 987.267 55.043 982.684 Q51.9875 978.077 51.9875 969.351 Q51.9875 960.601 55.043 956.017 Q58.1217 951.411 63.9319 951.411 Z" fill="#000000" fill-rule="nonzero" fill-opacity="1" /><path clip-path="url(#clip690)" d="M84.0938 980.716 L88.978 980.716 L88.978 986.596 L84.0938 986.596 L84.0938 980.716 Z" fill="#000000" fill-rule="nonzero" fill-opacity="1" /><path clip-path="url(#clip690)" d="M97.9826 952.036 L120.205 952.036 L120.205 954.027 L107.658 986.596 L102.774 986.596 L114.58 955.971 L97.9826 955.971 L97.9826 952.036 Z" fill="#000000" fill-rule="nonzero" fill-opacity="1" /><path clip-path="url(#clip690)" d="M129.371 952.036 L147.728 952.036 L147.728 955.971 L133.654 955.971 L133.654 964.443 Q134.672 964.096 135.691 963.934 Q136.709 963.749 137.728 963.749 Q143.515 963.749 146.894 966.92 Q150.274 970.091 150.274 975.508 Q150.274 981.087 146.802 984.189 Q143.33 987.267 137.01 987.267 Q134.834 987.267 132.566 986.897 Q130.32 986.526 127.913 985.786 L127.913 981.087 Q129.996 982.221 132.219 982.776 Q134.441 983.332 136.918 983.332 Q140.922 983.332 143.26 981.226 Q145.598 979.119 145.598 975.508 Q145.598 971.897 143.26 969.79 Q140.922 967.684 136.918 967.684 Q135.043 967.684 133.168 968.101 Q131.316 968.517 129.371 969.397 L129.371 952.036 Z" fill="#000000" fill-rule="nonzero" fill-opacity="1" /><path clip-path="url(#clip690)" d="M62.9365 716.915 Q59.3254 716.915 57.4967 720.479 Q55.6912 724.021 55.6912 731.151 Q55.6912 738.257 57.4967 741.822 Q59.3254 745.364 62.9365 745.364 Q66.5707 745.364 68.3763 741.822 Q70.205 738.257 70.205 731.151 Q70.205 724.021 68.3763 720.479 Q66.5707 716.915 62.9365 716.915 M62.9365 713.211 Q68.7467 713.211 71.8022 717.817 Q74.8809 722.401 74.8809 731.151 Q74.8809 739.878 71.8022 744.484 Q68.7467 749.067 62.9365 749.067 Q57.1264 749.067 54.0477 744.484 Q50.9921 739.878 50.9921 731.151 Q50.9921 722.401 54.0477 717.817 Q57.1264 713.211 62.9365 713.211 Z" fill="#000000" fill-rule="nonzero" fill-opacity="1" /><path clip-path="url(#clip690)" d="M83.0984 742.516 L87.9827 742.516 L87.9827 748.396 L83.0984 748.396 L83.0984 742.516 Z" fill="#000000" fill-rule="nonzero" fill-opacity="1" /><path clip-path="url(#clip690)" d="M108.168 731.984 Q104.834 731.984 102.913 733.766 Q101.015 735.549 101.015 738.674 Q101.015 741.799 102.913 743.581 Q104.834 745.364 108.168 745.364 Q111.501 745.364 113.422 743.581 Q115.344 741.776 115.344 738.674 Q115.344 735.549 113.422 733.766 Q111.524 731.984 108.168 731.984 M103.492 729.993 Q100.483 729.253 98.7928 727.192 Q97.1261 725.132 97.1261 722.169 Q97.1261 718.026 100.066 715.618 Q103.029 713.211 108.168 713.211 Q113.33 713.211 116.27 715.618 Q119.209 718.026 119.209 722.169 Q119.209 725.132 117.52 727.192 Q115.853 729.253 112.867 729.993 Q116.246 730.78 118.121 733.072 Q120.02 735.364 120.02 738.674 Q120.02 743.697 116.941 746.382 Q113.885 749.067 108.168 749.067 Q102.45 749.067 99.3715 746.382 Q96.316 743.697 96.316 738.674 Q96.316 735.364 98.2141 733.072 Q100.112 730.78 103.492 729.993 M101.779 722.609 Q101.779 725.294 103.446 726.799 Q105.135 728.304 108.168 728.304 Q111.177 728.304 112.867 726.799 Q114.58 725.294 114.58 722.609 Q114.58 719.924 112.867 718.419 Q111.177 716.915 108.168 716.915 Q105.135 716.915 103.446 718.419 Q101.779 719.924 101.779 722.609 Z" fill="#000000" fill-rule="nonzero" fill-opacity="1" /><path clip-path="url(#clip690)" d="M138.33 716.915 Q134.719 716.915 132.89 720.479 Q131.084 724.021 131.084 731.151 Q131.084 738.257 132.89 741.822 Q134.719 745.364 138.33 745.364 Q141.964 745.364 143.769 741.822 Q145.598 738.257 145.598 731.151 Q145.598 724.021 143.769 720.479 Q141.964 716.915 138.33 716.915 M138.33 713.211 Q144.14 713.211 147.195 717.817 Q150.274 722.401 150.274 731.151 Q150.274 739.878 147.195 744.484 Q144.14 749.067 138.33 749.067 Q132.519 749.067 129.441 744.484 Q126.385 739.878 126.385 731.151 Q126.385 722.401 129.441 717.817 Q132.519 713.211 138.33 713.211 Z" fill="#000000" fill-rule="nonzero" fill-opacity="1" /><path clip-path="url(#clip690)" d="M63.9319 478.715 Q60.3208 478.715 58.4921 482.28 Q56.6865 485.821 56.6865 492.951 Q56.6865 500.057 58.4921 503.622 Q60.3208 507.164 63.9319 507.164 Q67.5661 507.164 69.3717 503.622 Q71.2004 500.057 71.2004 492.951 Q71.2004 485.821 69.3717 482.28 Q67.5661 478.715 63.9319 478.715 M63.9319 475.011 Q69.742 475.011 72.7976 479.618 Q75.8763 484.201 75.8763 492.951 Q75.8763 501.678 72.7976 506.284 Q69.742 510.867 63.9319 510.867 Q58.1217 510.867 55.043 506.284 Q51.9875 501.678 51.9875 492.951 Q51.9875 484.201 55.043 479.618 Q58.1217 475.011 63.9319 475.011 Z" fill="#000000" fill-rule="nonzero" fill-opacity="1" /><path clip-path="url(#clip690)" d="M84.0938 504.317 L88.978 504.317 L88.978 510.196 L84.0938 510.196 L84.0938 504.317 Z" fill="#000000" fill-rule="nonzero" fill-opacity="1" /><path clip-path="url(#clip690)" d="M109.163 493.784 Q105.83 493.784 103.909 495.567 Q102.01 497.349 102.01 500.474 Q102.01 503.599 103.909 505.381 Q105.83 507.164 109.163 507.164 Q112.496 507.164 114.418 505.381 Q116.339 503.576 116.339 500.474 Q116.339 497.349 114.418 495.567 Q112.52 493.784 109.163 493.784 M104.487 491.793 Q101.478 491.053 99.7882 488.993 Q98.1215 486.932 98.1215 483.969 Q98.1215 479.826 101.061 477.419 Q104.024 475.011 109.163 475.011 Q114.325 475.011 117.265 477.419 Q120.205 479.826 120.205 483.969 Q120.205 486.932 118.515 488.993 Q116.848 491.053 113.862 491.793 Q117.242 492.58 119.117 494.872 Q121.015 497.164 121.015 500.474 Q121.015 505.497 117.936 508.182 Q114.881 510.867 109.163 510.867 Q103.446 510.867 100.367 508.182 Q97.3113 505.497 97.3113 500.474 Q97.3113 497.164 99.2095 494.872 Q101.108 492.58 104.487 491.793 M102.774 484.409 Q102.774 487.094 104.441 488.599 Q106.131 490.104 109.163 490.104 Q112.172 490.104 113.862 488.599 Q115.575 487.094 115.575 484.409 Q115.575 481.724 113.862 480.219 Q112.172 478.715 109.163 478.715 Q106.131 478.715 104.441 480.219 Q102.774 481.724 102.774 484.409 Z" fill="#000000" fill-rule="nonzero" fill-opacity="1" /><path clip-path="url(#clip690)" d="M129.371 475.636 L147.728 475.636 L147.728 479.571 L133.654 479.571 L133.654 488.043 Q134.672 487.696 135.691 487.534 Q136.709 487.349 137.728 487.349 Q143.515 487.349 146.894 490.52 Q150.274 493.692 150.274 499.108 Q150.274 504.687 146.802 507.789 Q143.33 510.867 137.01 510.867 Q134.834 510.867 132.566 510.497 Q130.32 510.127 127.913 509.386 L127.913 504.687 Q129.996 505.821 132.219 506.377 Q134.441 506.932 136.918 506.932 Q140.922 506.932 143.26 504.826 Q145.598 502.719 145.598 499.108 Q145.598 495.497 143.26 493.391 Q140.922 491.284 136.918 491.284 Q135.043 491.284 133.168 491.701 Q131.316 492.117 129.371 492.997 L129.371 475.636 Z" fill="#000000" fill-rule="nonzero" fill-opacity="1" /><path clip-path="url(#clip690)" d="M62.9365 240.515 Q59.3254 240.515 57.4967 244.08 Q55.6912 247.621 55.6912 254.751 Q55.6912 261.857 57.4967 265.422 Q59.3254 268.964 62.9365 268.964 Q66.5707 268.964 68.3763 265.422 Q70.205 261.857 70.205 254.751 Q70.205 247.621 68.3763 244.08 Q66.5707 240.515 62.9365 240.515 M62.9365 236.811 Q68.7467 236.811 71.8022 241.418 Q74.8809 246.001 74.8809 254.751 Q74.8809 263.478 71.8022 268.084 Q68.7467 272.667 62.9365 272.667 Q57.1264 272.667 54.0477 268.084 Q50.9921 263.478 50.9921 254.751 Q50.9921 246.001 54.0477 241.418 Q57.1264 236.811 62.9365 236.811 Z" fill="#000000" fill-rule="nonzero" fill-opacity="1" /><path clip-path="url(#clip690)" d="M83.0984 266.117 L87.9827 266.117 L87.9827 271.996 L83.0984 271.996 L83.0984 266.117 Z" fill="#000000" fill-rule="nonzero" fill-opacity="1" /><path clip-path="url(#clip690)" d="M98.3067 271.279 L98.3067 267.019 Q100.066 267.853 101.871 268.293 Q103.677 268.732 105.413 268.732 Q110.043 268.732 112.473 265.63 Q114.927 262.506 115.274 256.163 Q113.932 258.154 111.871 259.218 Q109.811 260.283 107.311 260.283 Q102.126 260.283 99.0937 257.158 Q96.0845 254.01 96.0845 248.57 Q96.0845 243.246 99.2326 240.029 Q102.381 236.811 107.612 236.811 Q113.608 236.811 116.756 241.418 Q119.927 246.001 119.927 254.751 Q119.927 262.922 116.038 267.806 Q112.172 272.667 105.621 272.667 Q103.862 272.667 102.057 272.32 Q100.251 271.973 98.3067 271.279 M107.612 256.626 Q110.76 256.626 112.589 254.473 Q114.441 252.32 114.441 248.57 Q114.441 244.844 112.589 242.691 Q110.76 240.515 107.612 240.515 Q104.464 240.515 102.612 242.691 Q100.784 244.844 100.784 248.57 Q100.784 252.32 102.612 254.473 Q104.464 256.626 107.612 256.626 Z" fill="#000000" fill-rule="nonzero" fill-opacity="1" /><path clip-path="url(#clip690)" d="M138.33 240.515 Q134.719 240.515 132.89 244.08 Q131.084 247.621 131.084 254.751 Q131.084 261.857 132.89 265.422 Q134.719 268.964 138.33 268.964 Q141.964 268.964 143.769 265.422 Q145.598 261.857 145.598 254.751 Q145.598 247.621 143.769 244.08 Q141.964 240.515 138.33 240.515 M138.33 236.811 Q144.14 236.811 147.195 241.418 Q150.274 246.001 150.274 254.751 Q150.274 263.478 147.195 268.084 Q144.14 272.667 138.33 272.667 Q132.519 272.667 129.441 268.084 Q126.385 263.478 126.385 254.751 Q126.385 246.001 129.441 241.418 Q132.519 236.811 138.33 236.811 Z" fill="#000000" fill-rule="nonzero" fill-opacity="1" /><polyline clip-path="url(#clip692)" style="stroke:#009af9; stroke-linecap:round; stroke-linejoin:round; stroke-width:4; stroke-opacity:1; fill:none" points="247.59,1183.7 249.635,1374.26 251.681,1136.06 253.727,1040.78 255.773,1445.72 257.819,1136.06 259.865,1136.06 261.911,1278.98 263.957,1255.16 266.003,921.676 268.048,969.316 270.094,945.496 272.14,1088.42 274.186,945.496 276.232,1064.6 278.278,850.216 280.324,731.116 282.37,731.116 284.416,897.856 286.462,778.756 288.507,850.216 290.553,754.936 292.599,683.476 294.645,826.396 296.691,516.736 298.737,540.556 300.783,564.376 302.829,635.836 304.875,659.656 306.921,564.376 308.966,707.296 311.012,659.656 313.058,516.736 315.104,588.196 317.15,469.096 319.196,349.996 321.242,564.376 323.288,540.556 325.334,397.636 327.38,612.016 329.425,635.836 331.471,469.096 333.517,635.836 335.563,302.356 337.609,469.096 339.655,492.916 341.701,445.276 343.747,349.996 345.793,421.456 347.838,373.816 349.884,326.176 351.93,326.176 353.976,492.916 356.022,397.636 358.068,254.716 360.114,254.716 362.16,564.376 364.206,397.636 366.252,302.356 368.297,492.916 370.343,349.996 372.389,445.276 374.435,445.276 376.481,326.176 378.527,492.916 380.573,469.096 382.619,469.096 384.665,421.456 386.711,183.256 388.756,421.456 390.802,302.356 392.848,302.356 394.894,421.456 396.94,540.556 398.986,492.916 401.032,349.996 403.078,373.816 405.124,373.816 407.169,230.896 409.215,326.176 411.261,469.096 413.307,516.736 415.353,230.896 417.399,469.096 419.445,540.556 421.491,469.096 423.537,588.196 425.583,135.616 427.628,254.716 429.674,254.716 431.72,349.996 433.766,492.916 435.812,230.896 437.858,373.816 439.904,492.916 441.95,373.816 443.996,254.716 446.042,469.096 448.087,540.556 450.133,326.176 452.179,278.536 454.225,349.996 456.271,397.636 458.317,373.816 460.363,349.996 462.409,230.896 464.455,421.456 466.5,492.916 468.546,254.716 470.592,302.356 472.638,278.536 474.684,421.456 476.73,230.896 478.776,397.636 480.822,207.076 482.868,469.096 484.914,373.816 486.959,445.276 489.005,397.636 491.051,445.276 493.097,326.176 495.143,397.636 497.189,421.456 499.235,469.096 501.281,349.996 503.327,254.716 505.373,111.796 507.418,445.276 509.464,278.536 511.51,326.176 513.556,445.276 515.602,373.816 517.648,540.556 519.694,469.096 521.74,302.356 523.786,373.816 525.831,373.816 527.877,373.816 529.923,516.736 531.969,326.176 534.015,278.536 536.061,540.556 538.107,183.256 540.153,349.996 542.199,159.436 544.245,302.356 546.29,421.456 548.336,326.176 550.382,397.636 552.428,373.816 554.474,326.176 556.52,397.636 558.566,87.9763 560.612,397.636 562.658,302.356 564.704,397.636 566.749,326.176 568.795,349.996 570.841,326.176 572.887,492.916 574.933,516.736 576.979,302.356 579.025,349.996 581.071,373.816 583.117,492.916 585.162,445.276 587.208,421.456 589.254,302.356 591.3,397.636 593.346,373.816 595.392,254.716 597.438,612.016 599.484,445.276 601.53,326.176 603.576,278.536 605.621,445.276 607.667,469.096 609.713,445.276 611.759,445.276 613.805,421.456 615.851,612.016 617.897,612.016 619.943,421.456 621.989,492.916 624.035,349.996 626.08,492.916 628.126,612.016 630.172,540.556 632.218,445.276 634.264,373.816 636.31,397.636 638.356,397.636 640.402,445.276 642.448,445.276 644.493,445.276 646.539,373.816 648.585,254.716 650.631,516.736 652.677,540.556 654.723,492.916 656.769,326.176 658.815,445.276 660.861,373.816 662.907,612.016 664.952,302.356 666.998,397.636 669.044,540.556 671.09,540.556 673.136,683.476 675.182,564.376 677.228,516.736 679.274,469.096 681.32,469.096 683.366,445.276 685.411,373.816 687.457,659.656 689.503,421.456 691.549,492.916 693.595,469.096 695.641,564.376 697.687,302.356 699.733,445.276 701.779,326.176 703.825,469.096 705.87,516.736 707.916,540.556 709.962,397.636 712.008,564.376 714.054,445.276 716.1,588.196 718.146,492.916 720.192,492.916 722.238,349.996 724.283,445.276 726.329,516.736 728.375,445.276 730.421,516.736 732.467,254.716 734.513,707.296 736.559,564.376 738.605,659.656 740.651,302.356 742.697,635.836 744.742,421.456 746.788,564.376 748.834,397.636 750.88,754.936 752.926,373.816 754.972,469.096 757.018,445.276 759.064,492.916 761.11,516.736 763.156,659.656 765.201,516.736 767.247,492.916 769.293,373.816 771.339,469.096 773.385,612.016 775.431,540.556 777.477,326.176 779.523,802.576 781.569,612.016 783.614,683.476 785.66,516.736 787.706,540.556 789.752,683.476 791.798,612.016 793.844,540.556 795.89,659.656 797.936,445.276 799.982,707.296 802.028,445.276 804.073,373.816 806.119,588.196 808.165,492.916 810.211,349.996 812.257,445.276 814.303,397.636 816.349,397.636 818.395,707.296 820.441,612.016 822.487,588.196 824.532,421.456 826.578,302.356 828.624,397.636 830.67,588.196 832.716,492.916 834.762,516.736 836.808,326.176 838.854,445.276 840.9,707.296 842.945,469.096 844.991,421.456 847.037,349.996 849.083,278.536 851.129,373.816 853.175,302.356 855.221,492.916 857.267,469.096 859.313,564.376 861.359,254.716 863.404,469.096 865.45,183.256 867.496,183.256 869.542,516.736 871.588,469.096 873.634,445.276 875.68,445.276 877.726,492.916 879.772,326.176 881.818,469.096 883.863,373.816 885.909,421.456 887.955,564.376 890.001,707.296 892.047,731.116 894.093,445.276 896.139,421.456 898.185,397.636 900.231,540.556 902.276,445.276 904.322,397.636 906.368,516.736 908.414,588.196 910.46,373.816 912.506,230.896 914.552,421.456 916.598,326.176 918.644,397.636 920.69,254.716 922.735,731.116 924.781,254.716 926.827,230.896 928.873,373.816 930.919,326.176 932.965,373.816 935.011,111.796 937.057,207.076 939.103,278.536 941.149,492.916 943.194,492.916 945.24,564.376 947.286,397.636 949.332,326.176 951.378,564.376 953.424,397.636 955.47,326.176 957.516,540.556 959.562,278.536 961.607,326.176 963.653,469.096 965.699,564.376 967.745,588.196 969.791,278.536 971.837,278.536 973.883,421.456 975.929,326.176 977.975,421.456 980.021,469.096 982.066,349.996 984.112,540.556 986.158,373.816 988.204,421.456 990.25,492.916 992.296,397.636 994.342,397.636 996.388,326.176 998.434,445.276 1000.48,302.356 1002.53,421.456 1004.57,421.456 1006.62,87.9763 1008.66,469.096 1010.71,469.096 1012.75,397.636 1014.8,397.636 1016.85,349.996 1018.89,302.356 1020.94,707.296 1022.98,564.376 1025.03,635.836 1027.08,349.996 1029.12,421.456 1031.17,254.716 1033.21,612.016 1035.26,564.376 1037.31,492.916 1039.35,492.916 1041.4,111.796 1043.44,469.096 1045.49,540.556 1047.54,397.636 1049.58,421.456 1051.63,469.096 1053.67,516.736 1055.72,373.816 1057.76,492.916 1059.81,564.376 1061.86,540.556 1063.9,564.376 1065.95,588.196 1067.99,469.096 1070.04,707.296 1072.09,469.096 1074.13,445.276 1076.18,349.996 1078.22,564.376 1080.27,492.916 1082.32,659.656 1084.36,278.536 1086.41,349.996 1088.45,373.816 1090.5,754.936 1092.54,469.096 1094.59,373.816 1096.64,373.816 1098.68,373.816 1100.73,349.996 1102.77,349.996 1104.82,278.536 1106.87,564.376 1108.91,492.916 1110.96,564.376 1113,397.636 1115.05,207.076 1117.1,707.296 1119.14,564.376 1121.19,469.096 1123.23,612.016 1125.28,564.376 1127.33,516.736 1129.37,540.556 1131.42,278.536 1133.46,445.276 1135.51,421.456 1137.55,397.636 1139.6,326.176 1141.65,421.456 1143.69,445.276 1145.74,445.276 1147.78,421.456 1149.83,397.636 1151.88,516.736 1153.92,469.096 1155.97,397.636 1158.01,349.996 1160.06,564.376 1162.11,326.176 1164.15,635.836 1166.2,469.096 1168.24,540.556 1170.29,349.996 1172.33,540.556 1174.38,421.456 1176.43,659.656 1178.47,564.376 1180.52,421.456 1182.56,492.916 1184.61,564.376 1186.66,469.096 1188.7,349.996 1190.75,230.896 1192.79,469.096 1194.84,445.276 1196.89,254.716 1198.93,469.096 1200.98,754.936 1203.02,421.456 1205.07,540.556 1207.12,349.996 1209.16,492.916 1211.21,492.916 1213.25,516.736 1215.3,540.556 1217.34,373.816 1219.39,421.456 1221.44,373.816 1223.48,159.436 1225.53,397.636 1227.57,421.456 1229.62,373.816 1231.67,612.016 1233.71,326.176 1235.76,230.896 1237.8,445.276 1239.85,278.536 1241.9,445.276 1243.94,254.716 1245.99,159.436 1248.03,635.836 1250.08,373.816 1252.12,111.796 1254.17,397.636 1256.22,183.256 1258.26,469.096 1260.31,516.736 1262.35,445.276 1264.4,373.816 1266.45,469.096 1268.49,469.096 1270.54,516.736 1272.58,469.096 1274.63,445.276 1276.68,349.996 1278.72,516.736 1280.77,373.816 1282.81,373.816 1284.86,540.556 1286.91,707.296 1288.95,588.196 1291,278.536 1293.04,516.736 1295.09,421.456 1297.13,588.196 1299.18,159.436 1301.23,326.176 1303.27,492.916 1305.32,373.816 1307.36,397.636 1309.41,516.736 1311.46,492.916 1313.5,397.636 1315.55,230.896 1317.59,373.816 1319.64,445.276 1321.69,421.456 1323.73,207.076 1325.78,469.096 1327.82,469.096 1329.87,373.816 1331.91,588.196 1333.96,421.456 1336.01,445.276 1338.05,588.196 1340.1,230.896 1342.14,588.196 1344.19,349.996 1346.24,421.456 1348.28,278.536 1350.33,564.376 1352.37,278.536 1354.42,707.296 1356.47,612.016 1358.51,349.996 1360.56,469.096 1362.6,469.096 1364.65,326.176 1366.7,469.096 1368.74,683.476 1370.79,302.356 1372.83,349.996 1374.88,492.916 1376.92,612.016 1378.97,588.196 1381.02,516.736 1383.06,707.296 1385.11,540.556 1387.15,349.996 1389.2,183.256 1391.25,302.356 1393.29,373.816 1395.34,540.556 1397.38,469.096 1399.43,397.636 1401.48,469.096 1403.52,349.996 1405.57,373.816 1407.61,254.716 1409.66,445.276 1411.7,469.096 1413.75,302.356 1415.8,397.636 1417.84,445.276 1419.89,612.016 1421.93,302.356 1423.98,445.276 1426.03,612.016 1428.07,707.296 1430.12,516.736 1432.16,445.276 1434.21,230.896 1436.26,564.376 1438.3,635.836 1440.35,373.816 1442.39,754.936 1444.44,421.456 1446.49,802.576 1448.53,302.356 1450.58,421.456 1452.62,445.276 1454.67,469.096 1456.71,516.736 1458.76,540.556 1460.81,635.836 1462.85,683.476 1464.9,397.636 1466.94,659.656 1468.99,469.096 1471.04,564.376 1473.08,540.556 1475.13,349.996 1477.17,516.736 1479.22,349.996 1481.27,492.916 1483.31,373.816 1485.36,421.456 1487.4,516.736 1489.45,469.096 1491.49,326.176 1493.54,397.636 1495.59,564.376 1497.63,349.996 1499.68,683.476 1501.72,421.456 1503.77,278.536 1505.82,469.096 1507.86,397.636 1509.91,278.536 1511.95,445.276 1514,540.556 1516.05,445.276 1518.09,278.536 1520.14,254.716 1522.18,635.836 1524.23,683.476 1526.27,492.916 1528.32,445.276 1530.37,421.456 1532.41,540.556 1534.46,254.716 1536.5,564.376 1538.55,492.916 1540.6,469.096 1542.64,254.716 1544.69,397.636 1546.73,516.736 1548.78,302.356 1550.83,445.276 1552.87,278.536 1554.92,230.896 1556.96,397.636 1559.01,516.736 1561.06,373.816 1563.1,254.716 1565.15,302.356 1567.19,349.996 1569.24,349.996 1571.28,326.176 1573.33,349.996 1575.38,421.456 1577.42,278.536 1579.47,540.556 1581.51,492.916 1583.56,349.996 1585.61,516.736 1587.65,254.716 1589.7,469.096 1591.74,492.916 1593.79,492.916 1595.84,445.276 1597.88,302.356 1599.93,516.736 1601.97,111.796 1604.02,326.176 1606.06,230.896 1608.11,230.896 1610.16,326.176 1612.2,516.736 1614.25,302.356 1616.29,445.276 1618.34,326.176 1620.39,516.736 1622.43,326.176 1624.48,445.276 1626.52,516.736 1628.57,326.176 1630.62,349.996 1632.66,302.356 1634.71,302.356 1636.75,421.456 1638.8,421.456 1640.85,230.896 1642.89,207.076 1644.94,516.736 1646.98,349.996 1649.03,397.636 1651.07,254.716 1653.12,397.636 1655.17,421.456 1657.21,421.456 1659.26,516.736 1661.3,254.716 1663.35,445.276 1665.4,159.436 1667.44,254.716 1669.49,397.636 1671.53,492.916 1673.58,302.356 1675.63,469.096 1677.67,230.896 1679.72,564.376 1681.76,278.536 1683.81,254.716 1685.85,397.636 1687.9,421.456 1689.95,373.816 1691.99,326.176 1694.04,492.916 1696.08,421.456 1698.13,421.456 1700.18,754.936 1702.22,421.456 1704.27,397.636 1706.31,564.376 1708.36,540.556 1710.41,421.456 1712.45,421.456 1714.5,421.456 1716.54,659.656 1718.59,373.816 1720.64,397.636 1722.68,445.276 1724.73,540.556 1726.77,659.656 1728.82,349.996 1730.86,254.716 1732.91,516.736 1734.96,516.736 1737,254.716 1739.05,373.816 1741.09,540.556 1743.14,207.076 1745.19,397.636 1747.23,492.916 1749.28,421.456 1751.32,445.276 1753.37,278.536 1755.42,230.896 1757.46,326.176 1759.51,540.556 1761.55,445.276 1763.6,421.456 1765.64,445.276 1767.69,445.276 1769.74,469.096 1771.78,540.556 1773.83,802.576 1775.87,659.656 1777.92,469.096 1779.97,445.276 1782.01,564.376 1784.06,469.096 1786.1,373.816 1788.15,492.916 1790.2,302.356 1792.24,516.736 1794.29,326.176 1796.33,278.536 1798.38,421.456 1800.43,278.536 1802.47,445.276 1804.52,492.916 1806.56,445.276 1808.61,516.736 1810.65,540.556 1812.7,659.656 1814.75,469.096 1816.79,326.176 1818.84,492.916 1820.88,326.176 1822.93,278.536 1824.98,373.816 1827.02,421.456 1829.07,469.096 1831.11,516.736 1833.16,278.536 1835.21,230.896 1837.25,230.896 1839.3,397.636 1841.34,373.816 1843.39,516.736 1845.43,588.196 1847.48,516.736 1849.53,254.716 1851.57,659.656 1853.62,421.456 1855.66,254.716 1857.71,254.716 1859.76,397.636 1861.8,469.096 1863.85,492.916 1865.89,492.916 1867.94,492.916 1869.99,492.916 1872.03,516.736 1874.08,207.076 1876.12,230.896 1878.17,588.196 1880.22,492.916 1882.26,540.556 1884.31,302.356 1886.35,469.096 1888.4,612.016 1890.44,540.556 1892.49,516.736 1894.54,564.376 1896.58,469.096 1898.63,516.736 1900.67,326.176 1902.72,588.196 1904.77,349.996 1906.81,492.916 1908.86,659.656 1910.9,397.636 1912.95,278.536 1915,492.916 1917.04,254.716 1919.09,469.096 1921.13,492.916 1923.18,635.836 1925.22,516.736 1927.27,326.176 1929.32,326.176 1931.36,492.916 1933.41,516.736 1935.45,516.736 1937.5,373.816 1939.55,230.896 1941.59,349.996 1943.64,349.996 1945.68,659.656 1947.73,349.996 1949.78,326.176 1951.82,397.636 1953.87,326.176 1955.91,278.536 1957.96,492.916 1960.01,421.456 1962.05,254.716 1964.1,516.736 1966.14,588.196 1968.19,278.536 1970.23,278.536 1972.28,421.456 1974.33,564.376 1976.37,731.116 1978.42,326.176 1980.46,564.376 1982.51,397.636 1984.56,326.176 1986.6,207.076 1988.65,302.356 1990.69,278.536 1992.74,445.276 1994.79,397.636 1996.83,373.816 1998.88,349.996 2000.92,373.816 2002.97,492.916 2005.01,349.996 2007.06,373.816 2009.11,397.636 2011.15,254.716 2013.2,445.276 2015.24,373.816 2017.29,492.916 2019.34,397.636 2021.38,469.096 2023.43,111.796 2025.47,254.716 2027.52,469.096 2029.57,492.916 2031.61,326.176 2033.66,421.456 2035.7,278.536 2037.75,397.636 2039.8,397.636 2041.84,397.636 2043.89,445.276 2045.93,254.716 2047.98,564.376 2050.02,207.076 2052.07,397.636 2054.12,302.356 2056.16,540.556 2058.21,469.096 2060.25,445.276 2062.3,135.616 2064.35,373.816 2066.39,397.636 2068.44,397.636 2070.48,397.636 2072.53,349.996 2074.58,445.276 2076.62,302.356 2078.67,230.896 2080.71,516.736 2082.76,469.096 2084.8,492.916 2086.85,540.556 2088.9,445.276 2090.94,588.196 2092.99,564.376 2095.03,492.916 2097.08,612.016 2099.13,612.016 2101.17,421.456 2103.22,540.556 2105.26,421.456 2107.31,707.296 2109.36,373.816 2111.4,373.816 2113.45,373.816 2115.49,540.556 2117.54,659.656 2119.59,421.456 2121.63,445.276 2123.68,421.456 2125.72,492.916 2127.77,588.196 2129.81,540.556 2131.86,349.996 2133.91,302.356 2135.95,445.276 2138,397.636 2140.04,445.276 2142.09,492.916 2144.14,469.096 2146.18,349.996 2148.23,469.096 2150.27,540.556 2152.32,564.376 2154.37,349.996 2156.41,469.096 2158.46,612.016 2160.5,492.916 2162.55,564.376 2164.59,564.376 2166.64,754.936 2168.69,373.816 2170.73,397.636 2172.78,254.716 2174.82,397.636 2176.87,445.276 2178.92,421.456 2180.96,278.536 2183.01,683.476 2185.05,492.916 2187.1,659.656 2189.15,445.276 2191.19,492.916 2193.24,516.736 2195.28,540.556 2197.33,230.896 2199.38,254.716 2201.42,278.536 2203.47,373.816 2205.51,588.196 2207.56,445.276 2209.6,516.736 2211.65,492.916 2213.7,349.996 2215.74,469.096 2217.79,302.356 2219.83,349.996 2221.88,469.096 2223.93,492.916 2225.97,254.716 2228.02,397.636 2230.06,302.356 2232.11,373.816 2234.16,564.376 2236.2,397.636 2238.25,397.636 2240.29,183.256 2242.34,612.016 2244.38,254.716 2246.43,492.916 2248.48,349.996 2250.52,612.016 2252.57,492.916 2254.61,326.176 2256.66,516.736 2258.71,278.536 2260.75,492.916 2262.8,683.476 2264.84,635.836 2266.89,349.996 2268.94,302.356 2270.98,469.096 2273.03,302.356 2275.07,564.376 2277.12,373.816 2279.16,373.816 2281.21,659.656 2283.26,302.356 2285.3,469.096 2287.35,373.816 2289.39,445.276 2291.44,230.896 "/>
<path clip-path="url(#clip690)" d="M2011.46 1438.47 L2280.54 1438.47 L2280.54 1334.79 L2011.46 1334.79  Z" fill="#ffffff" fill-rule="evenodd" fill-opacity="1"/>
<polyline clip-path="url(#clip690)" style="stroke:#000000; stroke-linecap:round; stroke-linejoin:round; stroke-width:4; stroke-opacity:1; fill:none" points="2011.46,1438.47 2280.54,1438.47 2280.54,1334.79 2011.46,1334.79 2011.46,1438.47 "/>
<polyline clip-path="url(#clip690)" style="stroke:#009af9; stroke-linecap:round; stroke-linejoin:round; stroke-width:4; stroke-opacity:1; fill:none" points="2035.53,1386.63 2179.97,1386.63 "/>
<path clip-path="url(#clip690)" d="M2217.88 1406.32 Q2216.07 1410.95 2214.36 1412.36 Q2212.65 1413.78 2209.78 1413.78 L2206.38 1413.78 L2206.38 1410.21 L2208.88 1410.21 Q2210.63 1410.21 2211.61 1409.38 Q2212.58 1408.54 2213.76 1405.44 L2214.52 1403.5 L2204.04 1377.99 L2208.55 1377.99 L2216.65 1398.27 L2224.76 1377.99 L2229.27 1377.99 L2217.88 1406.32 Z" fill="#000000" fill-rule="nonzero" fill-opacity="1" /><path clip-path="url(#clip690)" d="M2236.56 1399.98 L2244.2 1399.98 L2244.2 1373.61 L2235.89 1375.28 L2235.89 1371.02 L2244.15 1369.35 L2248.83 1369.35 L2248.83 1399.98 L2256.47 1399.98 L2256.47 1403.91 L2236.56 1403.91 L2236.56 1399.98 Z" fill="#000000" fill-rule="nonzero" fill-opacity="1" /></svg>
