<?xml version="1.0" encoding="utf-8"?>
<svg xmlns="http://www.w3.org/2000/svg" xmlns:xlink="http://www.w3.org/1999/xlink" width="600" height="400" viewBox="0 0 2400 1600">
<defs>
  <clipPath id="clip630">
    <rect x="0" y="0" width="2400" height="1600"/>
  </clipPath>
</defs>
<path clip-path="url(#clip630)" d="M0 1600 L2400 1600 L2400 0 L0 0  Z" fill="#ffffff" fill-rule="evenodd" fill-opacity="1"/>
<defs>
  <clipPath id="clip631">
    <rect x="480" y="0" width="1681" height="1600"/>
  </clipPath>
</defs>
<path clip-path="url(#clip630)" d="M155.765 1486.45 L2352.76 1486.45 L2352.76 47.2441 L155.765 47.2441  Z" fill="#ffffff" fill-rule="evenodd" fill-opacity="1"/>
<defs>
  <clipPath id="clip632">
    <rect x="155" y="47" width="2198" height="1440"/>
  </clipPath>
</defs>
<polyline clip-path="url(#clip632)" style="stroke:#000000; stroke-linecap:round; stroke-linejoin:round; stroke-width:2; stroke-opacity:0.1; fill:none" points="217.944,1486.45 217.944,47.2441 "/>
<polyline clip-path="url(#clip632)" style="stroke:#000000; stroke-linecap:round; stroke-linejoin:round; stroke-width:2; stroke-opacity:0.1; fill:none" points="736.102,1486.45 736.102,47.2441 "/>
<polyline clip-path="url(#clip632)" style="stroke:#000000; stroke-linecap:round; stroke-linejoin:round; stroke-width:2; stroke-opacity:0.1; fill:none" points="1254.26,1486.45 1254.26,47.2441 "/>
<polyline clip-path="url(#clip632)" style="stroke:#000000; stroke-linecap:round; stroke-linejoin:round; stroke-width:2; stroke-opacity:0.1; fill:none" points="1772.42,1486.45 1772.42,47.2441 "/>
<polyline clip-path="url(#clip632)" style="stroke:#000000; stroke-linecap:round; stroke-linejoin:round; stroke-width:2; stroke-opacity:0.1; fill:none" points="2290.58,1486.45 2290.58,47.2441 "/>
<polyline clip-path="url(#clip630)" style="stroke:#000000; stroke-linecap:round; stroke-linejoin:round; stroke-width:4; stroke-opacity:1; fill:none" points="155.765,1486.45 2352.76,1486.45 "/>
<polyline clip-path="url(#clip630)" style="stroke:#000000; stroke-linecap:round; stroke-linejoin:round; stroke-width:4; stroke-opacity:1; fill:none" points="217.944,1486.45 217.944,1467.55 "/>
<polyline clip-path="url(#clip630)" style="stroke:#000000; stroke-linecap:round; stroke-linejoin:round; stroke-width:4; stroke-opacity:1; fill:none" points="736.102,1486.45 736.102,1467.55 "/>
<polyline clip-path="url(#clip630)" style="stroke:#000000; stroke-linecap:round; stroke-linejoin:round; stroke-width:4; stroke-opacity:1; fill:none" points="1254.26,1486.45 1254.26,1467.55 "/>
<polyline clip-path="url(#clip630)" style="stroke:#000000; stroke-linecap:round; stroke-linejoin:round; stroke-width:4; stroke-opacity:1; fill:none" points="1772.42,1486.45 1772.42,1467.55 "/>
<polyline clip-path="url(#clip630)" style="stroke:#000000; stroke-linecap:round; stroke-linejoin:round; stroke-width:4; stroke-opacity:1; fill:none" points="2290.58,1486.45 2290.58,1467.55 "/>
<path clip-path="url(#clip630)" d="M217.944 1517.37 Q214.333 1517.37 212.504 1520.93 Q210.699 1524.47 210.699 1531.6 Q210.699 1538.71 212.504 1542.27 Q214.333 1545.82 217.944 1545.82 Q221.578 1545.82 223.384 1542.27 Q225.212 1538.71 225.212 1531.6 Q225.212 1524.47 223.384 1520.93 Q221.578 1517.37 217.944 1517.37 M217.944 1513.66 Q223.754 1513.66 226.81 1518.27 Q229.888 1522.85 229.888 1531.6 Q229.888 1540.33 226.81 1544.94 Q223.754 1549.52 217.944 1549.52 Q212.134 1549.52 209.055 1544.94 Q206 1540.33 206 1531.6 Q206 1522.85 209.055 1518.27 Q212.134 1513.66 217.944 1513.66 Z" fill="#000000" fill-rule="nonzero" fill-opacity="1" /><path clip-path="url(#clip630)" d="M695.72 1514.29 L714.077 1514.29 L714.077 1518.22 L700.003 1518.22 L700.003 1526.7 Q701.021 1526.35 702.04 1526.19 Q703.058 1526 704.077 1526 Q709.864 1526 713.243 1529.17 Q716.623 1532.34 716.623 1537.76 Q716.623 1543.34 713.151 1546.44 Q709.679 1549.52 703.359 1549.52 Q701.183 1549.52 698.915 1549.15 Q696.669 1548.78 694.262 1548.04 L694.262 1543.34 Q696.345 1544.47 698.568 1545.03 Q700.79 1545.58 703.267 1545.58 Q707.271 1545.58 709.609 1543.48 Q711.947 1541.37 711.947 1537.76 Q711.947 1534.15 709.609 1532.04 Q707.271 1529.94 703.267 1529.94 Q701.392 1529.94 699.517 1530.35 Q697.665 1530.77 695.72 1531.65 L695.72 1514.29 Z" fill="#000000" fill-rule="nonzero" fill-opacity="1" /><path clip-path="url(#clip630)" d="M735.836 1517.37 Q732.225 1517.37 730.396 1520.93 Q728.591 1524.47 728.591 1531.6 Q728.591 1538.71 730.396 1542.27 Q732.225 1545.82 735.836 1545.82 Q739.47 1545.82 741.276 1542.27 Q743.104 1538.71 743.104 1531.6 Q743.104 1524.47 741.276 1520.93 Q739.47 1517.37 735.836 1517.37 M735.836 1513.66 Q741.646 1513.66 744.702 1518.27 Q747.78 1522.85 747.78 1531.6 Q747.78 1540.33 744.702 1544.94 Q741.646 1549.52 735.836 1549.52 Q730.026 1549.52 726.947 1544.94 Q723.892 1540.33 723.892 1531.6 Q723.892 1522.85 726.947 1518.27 Q730.026 1513.66 735.836 1513.66 Z" fill="#000000" fill-rule="nonzero" fill-opacity="1" /><path clip-path="url(#clip630)" d="M765.998 1517.37 Q762.387 1517.37 760.558 1520.93 Q758.752 1524.47 758.752 1531.6 Q758.752 1538.71 760.558 1542.27 Q762.387 1545.82 765.998 1545.82 Q769.632 1545.82 771.438 1542.27 Q773.266 1538.71 773.266 1531.6 Q773.266 1524.47 771.438 1520.93 Q769.632 1517.37 765.998 1517.37 M765.998 1513.66 Q771.808 1513.66 774.864 1518.27 Q777.942 1522.85 777.942 1531.6 Q777.942 1540.33 774.864 1544.94 Q771.808 1549.52 765.998 1549.52 Q760.188 1549.52 757.109 1544.94 Q754.053 1540.33 754.053 1531.6 Q754.053 1522.85 757.109 1518.27 Q760.188 1513.66 765.998 1513.66 Z" fill="#000000" fill-rule="nonzero" fill-opacity="1" /><path clip-path="url(#clip630)" d="M1198.79 1544.91 L1206.43 1544.91 L1206.43 1518.55 L1198.11 1520.21 L1198.11 1515.95 L1206.38 1514.29 L1211.05 1514.29 L1211.05 1544.91 L1218.69 1544.91 L1218.69 1548.85 L1198.79 1548.85 L1198.79 1544.91 Z" fill="#000000" fill-rule="nonzero" fill-opacity="1" /><path clip-path="url(#clip630)" d="M1238.14 1517.37 Q1234.53 1517.37 1232.7 1520.93 Q1230.89 1524.47 1230.89 1531.6 Q1230.89 1538.71 1232.7 1542.27 Q1234.53 1545.82 1238.14 1545.82 Q1241.77 1545.82 1243.58 1542.27 Q1245.41 1538.71 1245.41 1531.6 Q1245.41 1524.47 1243.58 1520.93 Q1241.77 1517.37 1238.14 1517.37 M1238.14 1513.66 Q1243.95 1513.66 1247 1518.27 Q1250.08 1522.85 1250.08 1531.6 Q1250.08 1540.33 1247 1544.94 Q1243.95 1549.52 1238.14 1549.52 Q1232.33 1549.52 1229.25 1544.94 Q1226.19 1540.33 1226.19 1531.6 Q1226.19 1522.85 1229.25 1518.27 Q1232.33 1513.66 1238.14 1513.66 Z" fill="#000000" fill-rule="nonzero" fill-opacity="1" /><path clip-path="url(#clip630)" d="M1268.3 1517.37 Q1264.69 1517.37 1262.86 1520.93 Q1261.05 1524.47 1261.05 1531.6 Q1261.05 1538.71 1262.86 1542.27 Q1264.69 1545.82 1268.3 1545.82 Q1271.93 1545.82 1273.74 1542.27 Q1275.57 1538.71 1275.57 1531.6 Q1275.57 1524.47 1273.74 1520.93 Q1271.93 1517.37 1268.3 1517.37 M1268.3 1513.66 Q1274.11 1513.66 1277.17 1518.27 Q1280.24 1522.85 1280.24 1531.6 Q1280.24 1540.33 1277.17 1544.94 Q1274.11 1549.52 1268.3 1549.52 Q1262.49 1549.52 1259.41 1544.94 Q1256.36 1540.33 1256.36 1531.6 Q1256.36 1522.85 1259.41 1518.27 Q1262.49 1513.66 1268.3 1513.66 Z" fill="#000000" fill-rule="nonzero" fill-opacity="1" /><path clip-path="url(#clip630)" d="M1298.46 1517.37 Q1294.85 1517.37 1293.02 1520.93 Q1291.22 1524.47 1291.22 1531.6 Q1291.22 1538.71 1293.02 1542.27 Q1294.85 1545.82 1298.46 1545.82 Q1302.1 1545.82 1303.9 1542.27 Q1305.73 1538.71 1305.73 1531.6 Q1305.73 1524.47 1303.9 1520.93 Q1302.1 1517.37 1298.46 1517.37 M1298.46 1513.66 Q1304.27 1513.66 1307.33 1518.27 Q1310.41 1522.85 1310.41 1531.6 Q1310.41 1540.33 1307.33 1544.94 Q1304.27 1549.52 1298.46 1549.52 Q1292.65 1549.52 1289.57 1544.94 Q1286.52 1540.33 1286.52 1531.6 Q1286.52 1522.85 1289.57 1518.27 Q1292.65 1513.66 1298.46 1513.66 Z" fill="#000000" fill-rule="nonzero" fill-opacity="1" /><path clip-path="url(#clip630)" d="M1716.94 1544.91 L1724.58 1544.91 L1724.58 1518.55 L1716.27 1520.21 L1716.27 1515.95 L1724.54 1514.29 L1729.21 1514.29 L1729.21 1544.91 L1736.85 1544.91 L1736.85 1548.85 L1716.94 1548.85 L1716.94 1544.91 Z" fill="#000000" fill-rule="nonzero" fill-opacity="1" /><path clip-path="url(#clip630)" d="M1746.34 1514.29 L1764.7 1514.29 L1764.7 1518.22 L1750.62 1518.22 L1750.62 1526.7 Q1751.64 1526.35 1752.66 1526.19 Q1753.68 1526 1754.7 1526 Q1760.49 1526 1763.87 1529.17 Q1767.25 1532.34 1767.25 1537.76 Q1767.25 1543.34 1763.77 1546.44 Q1760.3 1549.52 1753.98 1549.52 Q1751.81 1549.52 1749.54 1549.15 Q1747.29 1548.78 1744.88 1548.04 L1744.88 1543.34 Q1746.97 1544.47 1749.19 1545.03 Q1751.41 1545.58 1753.89 1545.58 Q1757.89 1545.58 1760.23 1543.48 Q1762.57 1541.37 1762.57 1537.76 Q1762.57 1534.15 1760.23 1532.04 Q1757.89 1529.94 1753.89 1529.94 Q1752.01 1529.94 1750.14 1530.35 Q1748.29 1530.77 1746.34 1531.65 L1746.34 1514.29 Z" fill="#000000" fill-rule="nonzero" fill-opacity="1" /><path clip-path="url(#clip630)" d="M1786.46 1517.37 Q1782.85 1517.37 1781.02 1520.93 Q1779.21 1524.47 1779.21 1531.6 Q1779.21 1538.71 1781.02 1542.27 Q1782.85 1545.82 1786.46 1545.82 Q1790.09 1545.82 1791.9 1542.27 Q1793.73 1538.71 1793.73 1531.6 Q1793.73 1524.47 1791.9 1520.93 Q1790.09 1517.37 1786.46 1517.37 M1786.46 1513.66 Q1792.27 1513.66 1795.32 1518.27 Q1798.4 1522.85 1798.4 1531.6 Q1798.4 1540.33 1795.32 1544.94 Q1792.27 1549.52 1786.46 1549.52 Q1780.65 1549.52 1777.57 1544.94 Q1774.51 1540.33 1774.51 1531.6 Q1774.51 1522.85 1777.57 1518.27 Q1780.65 1513.66 1786.46 1513.66 Z" fill="#000000" fill-rule="nonzero" fill-opacity="1" /><path clip-path="url(#clip630)" d="M1816.62 1517.37 Q1813.01 1517.37 1811.18 1520.93 Q1809.37 1524.47 1809.37 1531.6 Q1809.37 1538.71 1811.18 1542.27 Q1813.01 1545.82 1816.62 1545.82 Q1820.25 1545.82 1822.06 1542.27 Q1823.89 1538.71 1823.89 1531.6 Q1823.89 1524.47 1822.06 1520.93 Q1820.25 1517.37 1816.62 1517.37 M1816.62 1513.66 Q1822.43 1513.66 1825.49 1518.27 Q1828.56 1522.85 1828.56 1531.6 Q1828.56 1540.33 1825.49 1544.94 Q1822.43 1549.52 1816.62 1549.52 Q1810.81 1549.52 1807.73 1544.94 Q1804.68 1540.33 1804.68 1531.6 Q1804.68 1522.85 1807.73 1518.27 Q1810.81 1513.66 1816.62 1513.66 Z" fill="#000000" fill-rule="nonzero" fill-opacity="1" /><path clip-path="url(#clip630)" d="M2239.19 1544.91 L2255.51 1544.91 L2255.51 1548.85 L2233.56 1548.85 L2233.56 1544.91 Q2236.23 1542.16 2240.81 1537.53 Q2245.42 1532.88 2246.6 1531.53 Q2248.84 1529.01 2249.72 1527.27 Q2250.62 1525.51 2250.62 1523.82 Q2250.62 1521.07 2248.68 1519.33 Q2246.76 1517.6 2243.66 1517.6 Q2241.46 1517.6 2239 1518.36 Q2236.57 1519.13 2233.79 1520.68 L2233.79 1515.95 Q2236.62 1514.82 2239.07 1514.24 Q2241.53 1513.66 2243.56 1513.66 Q2248.93 1513.66 2252.13 1516.35 Q2255.32 1519.03 2255.32 1523.52 Q2255.32 1525.65 2254.51 1527.57 Q2253.73 1529.47 2251.62 1532.07 Q2251.04 1532.74 2247.94 1535.95 Q2244.84 1539.15 2239.19 1544.91 Z" fill="#000000" fill-rule="nonzero" fill-opacity="1" /><path clip-path="url(#clip630)" d="M2275.32 1517.37 Q2271.71 1517.37 2269.88 1520.93 Q2268.08 1524.47 2268.08 1531.6 Q2268.08 1538.71 2269.88 1542.27 Q2271.71 1545.82 2275.32 1545.82 Q2278.96 1545.82 2280.76 1542.27 Q2282.59 1538.71 2282.59 1531.6 Q2282.59 1524.47 2280.76 1520.93 Q2278.96 1517.37 2275.32 1517.37 M2275.32 1513.66 Q2281.13 1513.66 2284.19 1518.27 Q2287.27 1522.85 2287.27 1531.6 Q2287.27 1540.33 2284.19 1544.94 Q2281.13 1549.52 2275.32 1549.52 Q2269.51 1549.52 2266.43 1544.94 Q2263.38 1540.33 2263.38 1531.6 Q2263.38 1522.85 2266.43 1518.27 Q2269.51 1513.66 2275.32 1513.66 Z" fill="#000000" fill-rule="nonzero" fill-opacity="1" /><path clip-path="url(#clip630)" d="M2305.48 1517.37 Q2301.87 1517.37 2300.04 1520.93 Q2298.24 1524.47 2298.24 1531.6 Q2298.24 1538.71 2300.04 1542.27 Q2301.87 1545.82 2305.48 1545.82 Q2309.12 1545.82 2310.92 1542.27 Q2312.75 1538.71 2312.75 1531.6 Q2312.75 1524.47 2310.92 1520.93 Q2309.12 1517.37 2305.48 1517.37 M2305.48 1513.66 Q2311.29 1513.66 2314.35 1518.27 Q2317.43 1522.85 2317.43 1531.6 Q2317.43 1540.33 2314.35 1544.94 Q2311.29 1549.52 2305.48 1549.52 Q2299.67 1549.52 2296.6 1544.94 Q2293.54 1540.33 2293.54 1531.6 Q2293.54 1522.85 2296.6 1518.27 Q2299.67 1513.66 2305.48 1513.66 Z" fill="#000000" fill-rule="nonzero" fill-opacity="1" /><path clip-path="url(#clip630)" d="M2335.65 1517.37 Q2332.04 1517.37 2330.21 1520.93 Q2328.4 1524.47 2328.4 1531.6 Q2328.4 1538.71 2330.21 1542.27 Q2332.04 1545.82 2335.65 1545.82 Q2339.28 1545.82 2341.09 1542.27 Q2342.91 1538.71 2342.91 1531.6 Q2342.91 1524.47 2341.09 1520.93 Q2339.28 1517.37 2335.65 1517.37 M2335.65 1513.66 Q2341.46 1513.66 2344.51 1518.27 Q2347.59 1522.85 2347.59 1531.6 Q2347.59 1540.33 2344.51 1544.94 Q2341.46 1549.52 2335.65 1549.52 Q2329.84 1549.52 2326.76 1544.94 Q2323.7 1540.33 2323.7 1531.6 Q2323.7 1522.85 2326.76 1518.27 Q2329.84 1513.66 2335.65 1513.66 Z" fill="#000000" fill-rule="nonzero" fill-opacity="1" /><polyline clip-path="url(#clip632)" style="stroke:#000000; stroke-linecap:round; stroke-linejoin:round; stroke-width:2; stroke-opacity:0.1; fill:none" points="155.765,1332.36 2352.76,1332.36 "/>
<polyline clip-path="url(#clip632)" style="stroke:#000000; stroke-linecap:round; stroke-linejoin:round; stroke-width:2; stroke-opacity:0.1; fill:none" points="155.765,1144.5 2352.76,1144.5 "/>
<polyline clip-path="url(#clip632)" style="stroke:#000000; stroke-linecap:round; stroke-linejoin:round; stroke-width:2; stroke-opacity:0.1; fill:none" points="155.765,956.632 2352.76,956.632 "/>
<polyline clip-path="url(#clip632)" style="stroke:#000000; stroke-linecap:round; stroke-linejoin:round; stroke-width:2; stroke-opacity:0.1; fill:none" points="155.765,768.766 2352.76,768.766 "/>
<polyline clip-path="url(#clip632)" style="stroke:#000000; stroke-linecap:round; stroke-linejoin:round; stroke-width:2; stroke-opacity:0.1; fill:none" points="155.765,580.901 2352.76,580.901 "/>
<polyline clip-path="url(#clip632)" style="stroke:#000000; stroke-linecap:round; stroke-linejoin:round; stroke-width:2; stroke-opacity:0.1; fill:none" points="155.765,393.035 2352.76,393.035 "/>
<polyline clip-path="url(#clip632)" style="stroke:#000000; stroke-linecap:round; stroke-linejoin:round; stroke-width:2; stroke-opacity:0.1; fill:none" points="155.765,205.17 2352.76,205.17 "/>
<polyline clip-path="url(#clip630)" style="stroke:#000000; stroke-linecap:round; stroke-linejoin:round; stroke-width:4; stroke-opacity:1; fill:none" points="155.765,1486.45 155.765,47.2441 "/>
<polyline clip-path="url(#clip630)" style="stroke:#000000; stroke-linecap:round; stroke-linejoin:round; stroke-width:4; stroke-opacity:1; fill:none" points="155.765,1332.36 174.663,1332.36 "/>
<polyline clip-path="url(#clip630)" style="stroke:#000000; stroke-linecap:round; stroke-linejoin:round; stroke-width:4; stroke-opacity:1; fill:none" points="155.765,1144.5 174.663,1144.5 "/>
<polyline clip-path="url(#clip630)" style="stroke:#000000; stroke-linecap:round; stroke-linejoin:round; stroke-width:4; stroke-opacity:1; fill:none" points="155.765,956.632 174.663,956.632 "/>
<polyline clip-path="url(#clip630)" style="stroke:#000000; stroke-linecap:round; stroke-linejoin:round; stroke-width:4; stroke-opacity:1; fill:none" points="155.765,768.766 174.663,768.766 "/>
<polyline clip-path="url(#clip630)" style="stroke:#000000; stroke-linecap:round; stroke-linejoin:round; stroke-width:4; stroke-opacity:1; fill:none" points="155.765,580.901 174.663,580.901 "/>
<polyline clip-path="url(#clip630)" style="stroke:#000000; stroke-linecap:round; stroke-linejoin:round; stroke-width:4; stroke-opacity:1; fill:none" points="155.765,393.035 174.663,393.035 "/>
<polyline clip-path="url(#clip630)" style="stroke:#000000; stroke-linecap:round; stroke-linejoin:round; stroke-width:4; stroke-opacity:1; fill:none" points="155.765,205.17 174.663,205.17 "/>
<path clip-path="url(#clip630)" d="M53.3995 1345.71 L61.0384 1345.71 L61.0384 1319.34 L52.7282 1321.01 L52.7282 1316.75 L60.9921 1315.08 L65.668 1315.08 L65.668 1345.71 L73.3068 1345.71 L73.3068 1349.64 L53.3995 1349.64 L53.3995 1345.71 Z" fill="#000000" fill-rule="nonzero" fill-opacity="1" /><path clip-path="url(#clip630)" d="M82.7512 1343.76 L87.6354 1343.76 L87.6354 1349.64 L82.7512 1349.64 L82.7512 1343.76 Z" fill="#000000" fill-rule="nonzero" fill-opacity="1" /><path clip-path="url(#clip630)" d="M107.821 1318.16 Q104.209 1318.16 102.381 1321.73 Q100.575 1325.27 100.575 1332.4 Q100.575 1339.5 102.381 1343.07 Q104.209 1346.61 107.821 1346.61 Q111.455 1346.61 113.26 1343.07 Q115.089 1339.5 115.089 1332.4 Q115.089 1325.27 113.26 1321.73 Q111.455 1318.16 107.821 1318.16 M107.821 1314.46 Q113.631 1314.46 116.686 1319.06 Q119.765 1323.65 119.765 1332.4 Q119.765 1341.12 116.686 1345.73 Q113.631 1350.31 107.821 1350.31 Q102.01 1350.31 98.9317 1345.73 Q95.8761 1341.12 95.8761 1332.4 Q95.8761 1323.65 98.9317 1319.06 Q102.01 1314.46 107.821 1314.46 Z" fill="#000000" fill-rule="nonzero" fill-opacity="1" /><path clip-path="url(#clip630)" d="M54.9967 1157.84 L62.6356 1157.84 L62.6356 1131.48 L54.3254 1133.14 L54.3254 1128.88 L62.5893 1127.22 L67.2652 1127.22 L67.2652 1157.84 L74.904 1157.84 L74.904 1161.78 L54.9967 1161.78 L54.9967 1157.84 Z" fill="#000000" fill-rule="nonzero" fill-opacity="1" /><path clip-path="url(#clip630)" d="M84.3484 1155.9 L89.2327 1155.9 L89.2327 1161.78 L84.3484 1161.78 L84.3484 1155.9 Z" fill="#000000" fill-rule="nonzero" fill-opacity="1" /><path clip-path="url(#clip630)" d="M103.446 1157.84 L119.765 1157.84 L119.765 1161.78 L97.8206 1161.78 L97.8206 1157.84 Q100.483 1155.09 105.066 1150.46 Q109.672 1145.81 110.853 1144.46 Q113.098 1141.94 113.978 1140.2 Q114.881 1138.44 114.881 1136.75 Q114.881 1134 112.936 1132.26 Q111.015 1130.53 107.913 1130.53 Q105.714 1130.53 103.26 1131.29 Q100.83 1132.06 98.0521 1133.61 L98.0521 1128.88 Q100.876 1127.75 103.33 1127.17 Q105.783 1126.59 107.821 1126.59 Q113.191 1126.59 116.385 1129.28 Q119.58 1131.96 119.58 1136.45 Q119.58 1138.58 118.77 1140.5 Q117.983 1142.4 115.876 1145 Q115.297 1145.67 112.196 1148.88 Q109.094 1152.08 103.446 1157.84 Z" fill="#000000" fill-rule="nonzero" fill-opacity="1" /><path clip-path="url(#clip630)" d="M52.9134 969.977 L60.5523 969.977 L60.5523 943.611 L52.2421 945.278 L52.2421 941.019 L60.506 939.352 L65.1819 939.352 L65.1819 969.977 L72.8207 969.977 L72.8207 973.912 L52.9134 973.912 L52.9134 969.977 Z" fill="#000000" fill-rule="nonzero" fill-opacity="1" /><path clip-path="url(#clip630)" d="M82.2651 968.032 L87.1493 968.032 L87.1493 973.912 L82.2651 973.912 L82.2651 968.032 Z" fill="#000000" fill-rule="nonzero" fill-opacity="1" /><path clip-path="url(#clip630)" d="M110.182 943.426 L98.3761 961.875 L110.182 961.875 L110.182 943.426 M108.955 939.352 L114.834 939.352 L114.834 961.875 L119.765 961.875 L119.765 965.764 L114.834 965.764 L114.834 973.912 L110.182 973.912 L110.182 965.764 L94.5799 965.764 L94.5799 961.25 L108.955 939.352 Z" fill="#000000" fill-rule="nonzero" fill-opacity="1" /><path clip-path="url(#clip630)" d="M53.2375 782.111 L60.8763 782.111 L60.8763 755.746 L52.5662 757.412 L52.5662 753.153 L60.83 751.486 L65.5059 751.486 L65.5059 782.111 L73.1448 782.111 L73.1448 786.046 L53.2375 786.046 L53.2375 782.111 Z" fill="#000000" fill-rule="nonzero" fill-opacity="1" /><path clip-path="url(#clip630)" d="M82.5892 780.167 L87.4734 780.167 L87.4734 786.046 L82.5892 786.046 L82.5892 780.167 Z" fill="#000000" fill-rule="nonzero" fill-opacity="1" /><path clip-path="url(#clip630)" d="M108.237 766.903 Q105.089 766.903 103.237 769.056 Q101.409 771.209 101.409 774.959 Q101.409 778.685 103.237 780.861 Q105.089 783.014 108.237 783.014 Q111.385 783.014 113.214 780.861 Q115.066 778.685 115.066 774.959 Q115.066 771.209 113.214 769.056 Q111.385 766.903 108.237 766.903 M117.52 752.25 L117.52 756.51 Q115.76 755.676 113.955 755.236 Q112.172 754.797 110.413 754.797 Q105.783 754.797 103.33 757.922 Q100.899 761.047 100.552 767.366 Q101.918 765.352 103.978 764.287 Q106.038 763.199 108.515 763.199 Q113.723 763.199 116.733 766.371 Q119.765 769.519 119.765 774.959 Q119.765 780.283 116.617 783.5 Q113.469 786.718 108.237 786.718 Q102.242 786.718 99.0706 782.134 Q95.8993 777.528 95.8993 768.801 Q95.8993 760.607 99.7882 755.746 Q103.677 750.861 110.228 750.861 Q111.987 750.861 113.77 751.209 Q115.575 751.556 117.52 752.25 Z" fill="#000000" fill-rule="nonzero" fill-opacity="1" /><path clip-path="url(#clip630)" d="M53.4921 594.246 L61.131 594.246 L61.131 567.88 L52.8208 569.547 L52.8208 565.288 L61.0847 563.621 L65.7606 563.621 L65.7606 594.246 L73.3994 594.246 L73.3994 598.181 L53.4921 598.181 L53.4921 594.246 Z" fill="#000000" fill-rule="nonzero" fill-opacity="1" /><path clip-path="url(#clip630)" d="M82.8438 592.301 L87.728 592.301 L87.728 598.181 L82.8438 598.181 L82.8438 592.301 Z" fill="#000000" fill-rule="nonzero" fill-opacity="1" /><path clip-path="url(#clip630)" d="M107.913 581.769 Q104.58 581.769 102.659 583.551 Q100.76 585.334 100.76 588.459 Q100.76 591.584 102.659 593.366 Q104.58 595.149 107.913 595.149 Q111.246 595.149 113.168 593.366 Q115.089 591.561 115.089 588.459 Q115.089 585.334 113.168 583.551 Q111.27 581.769 107.913 581.769 M103.237 579.778 Q100.228 579.038 98.5382 576.977 Q96.8715 574.917 96.8715 571.954 Q96.8715 567.811 99.8113 565.403 Q102.774 562.996 107.913 562.996 Q113.075 562.996 116.015 565.403 Q118.955 567.811 118.955 571.954 Q118.955 574.917 117.265 576.977 Q115.598 579.038 112.612 579.778 Q115.992 580.565 117.867 582.857 Q119.765 585.149 119.765 588.459 Q119.765 593.482 116.686 596.167 Q113.631 598.852 107.913 598.852 Q102.196 598.852 99.1169 596.167 Q96.0613 593.482 96.0613 588.459 Q96.0613 585.149 97.9595 582.857 Q99.8576 580.565 103.237 579.778 M101.524 572.394 Q101.524 575.079 103.191 576.584 Q104.881 578.088 107.913 578.088 Q110.922 578.088 112.612 576.584 Q114.325 575.079 114.325 572.394 Q114.325 569.709 112.612 568.204 Q110.922 566.7 107.913 566.7 Q104.881 566.7 103.191 568.204 Q101.524 569.709 101.524 572.394 Z" fill="#000000" fill-rule="nonzero" fill-opacity="1" /><path clip-path="url(#clip630)" d="M56.6171 406.38 L72.9365 406.38 L72.9365 410.315 L50.9921 410.315 L50.9921 406.38 Q53.6541 403.626 58.2375 398.996 Q62.8439 394.343 64.0245 393.001 Q66.2698 390.478 67.1494 388.742 Q68.0522 386.982 68.0522 385.292 Q68.0522 382.538 66.1078 380.802 Q64.1865 379.066 61.0847 379.066 Q58.8856 379.066 56.4319 379.83 Q54.0014 380.593 51.2236 382.144 L51.2236 377.422 Q54.0477 376.288 56.5014 375.709 Q58.955 375.13 60.9921 375.13 Q66.3624 375.13 69.5568 377.816 Q72.7513 380.501 72.7513 384.992 Q72.7513 387.121 71.9411 389.042 Q71.1541 390.941 69.0476 393.533 Q68.4689 394.204 65.367 397.422 Q62.2652 400.616 56.6171 406.38 Z" fill="#000000" fill-rule="nonzero" fill-opacity="1" /><path clip-path="url(#clip630)" d="M82.7512 404.436 L87.6354 404.436 L87.6354 410.315 L82.7512 410.315 L82.7512 404.436 Z" fill="#000000" fill-rule="nonzero" fill-opacity="1" /><path clip-path="url(#clip630)" d="M107.821 378.834 Q104.209 378.834 102.381 382.399 Q100.575 385.941 100.575 393.07 Q100.575 400.177 102.381 403.741 Q104.209 407.283 107.821 407.283 Q111.455 407.283 113.26 403.741 Q115.089 400.177 115.089 393.07 Q115.089 385.941 113.26 382.399 Q111.455 378.834 107.821 378.834 M107.821 375.13 Q113.631 375.13 116.686 379.737 Q119.765 384.32 119.765 393.07 Q119.765 401.797 116.686 406.403 Q113.631 410.987 107.821 410.987 Q102.01 410.987 98.9317 406.403 Q95.8761 401.797 95.8761 393.07 Q95.8761 384.32 98.9317 379.737 Q102.01 375.13 107.821 375.13 Z" fill="#000000" fill-rule="nonzero" fill-opacity="1" /><path clip-path="url(#clip630)" d="M58.2143 218.515 L74.5337 218.515 L74.5337 222.45 L52.5893 222.45 L52.5893 218.515 Q55.2514 215.76 59.8347 211.131 Q64.4411 206.478 65.6217 205.135 Q67.867 202.612 68.7467 200.876 Q69.6494 199.117 69.6494 197.427 Q69.6494 194.672 67.705 192.936 Q65.7837 191.2 62.6819 191.2 Q60.4828 191.2 58.0291 191.964 Q55.5986 192.728 52.8208 194.279 L52.8208 189.557 Q55.6449 188.422 58.0986 187.844 Q60.5523 187.265 62.5893 187.265 Q67.9596 187.265 71.1541 189.95 Q74.3485 192.635 74.3485 197.126 Q74.3485 199.256 73.5383 201.177 Q72.7513 203.075 70.6448 205.668 Q70.0661 206.339 66.9643 209.557 Q63.8624 212.751 58.2143 218.515 Z" fill="#000000" fill-rule="nonzero" fill-opacity="1" /><path clip-path="url(#clip630)" d="M84.3484 216.57 L89.2327 216.57 L89.2327 222.45 L84.3484 222.45 L84.3484 216.57 Z" fill="#000000" fill-rule="nonzero" fill-opacity="1" /><path clip-path="url(#clip630)" d="M103.446 218.515 L119.765 218.515 L119.765 222.45 L97.8206 222.45 L97.8206 218.515 Q100.483 215.76 105.066 211.131 Q109.672 206.478 110.853 205.135 Q113.098 202.612 113.978 200.876 Q114.881 199.117 114.881 197.427 Q114.881 194.672 112.936 192.936 Q111.015 191.2 107.913 191.2 Q105.714 191.2 103.26 191.964 Q100.83 192.728 98.0521 194.279 L98.0521 189.557 Q100.876 188.422 103.33 187.844 Q105.783 187.265 107.821 187.265 Q113.191 187.265 116.385 189.95 Q119.58 192.635 119.58 197.126 Q119.58 199.256 118.77 201.177 Q117.983 203.075 115.876 205.668 Q115.297 206.339 112.196 209.557 Q109.094 212.751 103.446 218.515 Z" fill="#000000" fill-rule="nonzero" fill-opacity="1" /><polyline clip-path="url(#clip632)" style="stroke:#009af9; stroke-linecap:round; stroke-linejoin:round; stroke-width:4; stroke-opacity:1; fill:none" points="217.944,816.239 218.98,828.82 220.017,981.786 221.053,990.068 222.089,751.319 223.125,764.786 224.162,789.662 225.198,807.077 226.234,1043.42 227.271,1050.56 228.307,1135.03 229.343,1145.84 230.38,908.527 231.416,924.902 232.452,870.589 233.489,881.453 234.525,1202.88 235.561,1208.97 236.598,911.878 237.634,917.68 238.67,1024.53 239.707,1029.81 240.743,1130.86 241.779,1136.95 242.815,931.682 243.852,941.123 244.888,1065.94 245.924,1071.81 246.961,972.015 247.997,978.821 249.033,804.053 250.07,807.395 251.106,1243.78 252.142,1249.41 253.179,897.596 254.215,901.037 255.251,1246.01 256.288,1250.55 257.324,1121.39 258.36,1124.37 259.397,1249.6 260.433,1252.38 261.469,1224.84 262.506,1227.63 263.542,1381.63 264.578,1385.85 265.614,884.33 266.651,888.283 267.687,1087.16 268.723,1090.59 269.76,751.345 270.796,755.991 271.832,886.568 272.869,889.435 273.905,1176.68 274.941,1178.78 275.978,1090.36 277.014,1092.51 278.05,739.307 279.087,742.103 280.123,1081.26 281.159,1083.6 282.196,1109.09 283.232,1111.86 284.268,927.506 285.304,929.563 286.341,1189.42 287.377,1191.58 288.413,958.361 289.45,961.677 290.486,1059.35 291.522,1061.19 292.559,1073.01 293.595,1075.68 294.631,1298.66 295.668,1301.11 296.704,1119.93 297.74,1121.61 298.777,1273.65 299.813,1275.33 300.849,729.22 301.886,733.763 302.922,799.785 303.958,802.848 304.994,968.401 306.031,970.075 307.067,878.969 308.103,880.534 309.14,1168.91 310.176,1170.49 311.212,1442.85 312.249,1445.72 313.285,779.345 314.321,783.853 315.358,1034.06 316.394,1035.47 317.43,1162.31 318.467,1163.65 319.503,1081.99 320.539,1083.46 321.576,508.725 322.612,512.747 323.648,917.968 324.684,920.963 325.721,1099.36 326.757,1100.94 327.793,1010.56 328.83,1011.63 329.866,1214.42 330.902,1216.13 331.939,981.556 332.975,983.009 334.011,1332.88 335.048,1335.15 336.084,1179.81 337.12,1180.66 338.157,431.409 339.193,434.42 340.229,1128.84 341.266,1130.75 342.302,1076.2 343.338,1077.36 344.375,1097.37 345.411,1098.38 346.447,1001.59 347.483,1003.38 348.52,879.753 349.556,881.596 350.592,1297.12 351.629,1299.21 352.665,1043.85 353.701,1044.36 354.738,1367.92 355.774,1369.54 356.81,965.722 357.847,967.137 358.883,870.323 359.919,872.633 360.956,1301.32 361.992,1302.3 363.028,1123.26 364.065,1123.96 365.101,1253.67 366.137,1254.64 367.173,1076.76 368.21,1077.2 369.246,1264.15 370.282,1264.93 371.319,1193.23 372.355,1193.83 373.391,1068.6 374.428,1069.31 375.464,1208.17 376.5,1208.88 377.537,1091.88 378.573,1092.62 379.609,1154.58 380.646,1155.25 381.682,1301.74 382.718,1303.39 383.755,994.005 384.791,995.663 385.827,1057.64 386.863,1059.2 387.9,1126.36 388.936,1127.26 389.972,1202.39 391.009,1203.13 392.045,882.979 393.081,884.553 394.118,1083.34 395.154,1084.99 396.19,1320.96 397.227,1321.8 398.263,1242.67 399.299,1246.98 400.336,933.254 401.372,934.366 402.408,986.026 403.445,987.464 404.481,1081.94 405.517,1082.76 406.554,1334.34 407.59,1335.42 408.626,1042.49 409.662,1044.13 410.699,1004.09 411.735,1005.72 412.771,884.522 413.808,886.021 414.844,1232.95 415.88,1234.1 416.917,1170.19 417.953,1172.4 418.989,1275.25 420.026,1275.63 421.062,940.351 422.098,941.376 423.135,1253.8 424.171,1254.42 425.207,902.537 426.244,903.368 427.28,1013.02 428.316,1016.93 429.352,956.39 430.389,959.927 431.425,1141.93 432.461,1142.85 433.498,1201.72 434.534,1202.38 435.57,1152.74 436.607,1153.9 437.643,1122.22 438.679,1123.07 439.716,1259.5 440.752,1259.9 441.788,1008.57 442.825,1009.57 443.861,1284.24 444.897,1285.11 445.934,1194.94 446.97,1195.3 448.006,1261.03 449.042,1264.07 450.079,946.679 451.115,948.494 452.151,1094.21 453.188,1095.19 454.224,894.326 455.26,897.169 456.297,816.928 457.333,818.664 458.369,1060.33 459.406,1062.01 460.442,1222.22 461.478,1223.19 462.515,1045.16 463.551,1046.31 464.587,1251.46 465.624,1252.44 466.66,1149.56 467.696,1149.88 468.732,1133.39 469.769,1133.71 470.805,1017.05 471.841,1017.88 472.878,1342.78 473.914,1343.62 474.95,972.339 475.987,972.711 477.023,990.987 478.059,991.397 479.096,943.414 480.132,944.754 481.168,1310.42 482.205,1311.56 483.241,936.861 484.277,937.689 485.314,1266.98 486.35,1267.49 487.386,1110.2 488.423,1112.09 489.459,1177.32 490.495,1177.86 491.531,687.539 492.568,690.399 493.604,1116.04 494.64,1116.83 495.677,1230.87 496.713,1231.82 497.749,1202.42 498.786,1203.75 499.822,1335.88 500.858,1337.7 501.895,1280.14 502.931,1280.8 503.967,1251.83 505.004,1253.01 506.04,813.362 507.076,815.301 508.113,1187.57 509.149,1188.75 510.185,1432.65 511.221,1434.24 512.258,1182.25 513.294,1182.91 514.33,980.614 515.367,981.33 516.403,1017.09 517.439,1018.19 518.476,1090.96 519.512,1092.32 520.548,1312.78 521.585,1313.49 522.621,1071.87 523.657,1073.02 524.694,1200.54 525.73,1200.74 526.766,1080.79 527.803,1081.72 528.839,1024.69 529.875,1025.41 530.911,1029.39 531.948,1031.51 532.984,885.076 534.02,889.086 535.057,997.638 536.093,998.036 537.129,1156.7 538.166,1157.51 539.202,1306.89 540.238,1309.71 541.275,873.126 542.311,875.677 543.347,987.472 544.384,988.036 545.42,951.881 546.456,953.511 547.493,1140.92 548.529,1141.27 549.565,933.803 550.601,935.64 551.638,676.666 552.674,682.075 553.71,960.366 554.747,961.839 555.783,833.704 556.819,835.125 557.856,1161.8 558.892,1163.02 559.928,1191.1 560.965,1194.87 562.001,1010.81 563.037,1011.36 564.074,826.414 565.11,828.706 566.146,1155.32 567.183,1157.8 568.219,1205.76 569.255,1207.05 570.292,1190.35 571.328,1191.26 572.364,1227.08 573.4,1228.42 574.437,1273.77 575.473,1274.91 576.509,770.577 577.546,773.19 578.582,1178.66 579.618,1180.7 580.655,1110.86 581.691,1111.93 582.727,934.935 583.764,936.714 584.8,978.009 585.836,978.599 586.873,791.511 587.909,795.3 588.945,1088.62 589.982,1089 591.018,940.957 592.054,942.508 593.09,1103.53 594.127,1103.76 595.163,955.368 596.199,955.94 597.236,1285.14 598.272,1286.32 599.308,1000.2 600.345,1000.51 601.381,678.244 602.417,680.305 603.454,1267.21 604.49,1268.32 605.526,1189.23 606.563,1190.98 607.599,847.428 608.635,848.503 609.672,1095.85 610.708,1096.53 611.744,714.99 612.78,716.737 613.817,1030.15 614.853,1031.33 615.889,1023.49 616.926,1024.06 617.962,1077.57 618.998,1078.47 620.035,1187.69 621.071,1188.28 622.107,679.098 623.144,679.81 624.18,788.641 625.216,790.177 626.253,954.726 627.289,956.508 628.325,1145.33 629.362,1146.89 630.398,1131.63 631.434,1131.93 632.47,873.424 633.507,873.792 634.543,1121.97 635.579,1122.24 636.616,1067.91 637.652,1068.4 638.688,771.901 639.725,776.162 640.761,713.184 641.797,714.003 642.834,1136.79 643.87,1137.59 644.906,1004.79 645.943,1006.51 646.979,995.929 648.015,996.499 649.052,958.436 650.088,959.741 651.124,1169.37 652.161,1170.19 653.197,1011.55 654.233,1012.91 655.269,1078.28 656.306,1079.42 657.342,1079.55 658.378,1080.51 659.415,1187.33 660.451,1188.25 661.487,786.464 662.524,787.729 663.56,1117.95 664.596,1118.12 665.633,941.017 666.669,941.554 667.705,585.076 668.742,586.907 669.778,1081.33 670.814,1082.23 671.851,1193.4 672.887,1194.92 673.923,1167.2 674.959,1168.38 675.996,931.679 677.032,933.273 678.068,854.468 679.105,857.509 680.141,1014.9 681.177,1015.32 682.214,761.604 683.25,764.461 684.286,934.224 685.323,934.617 686.359,724.578 687.395,726.295 688.432,901.503 689.468,902.696 690.504,1275.88 691.541,1277.84 692.577,1043.44 693.613,1044.06 694.649,1068.71 695.686,1070.24 696.722,1211.17 697.758,1211.74 698.795,837.915 699.831,839.25 700.867,820.319 701.904,822.125 702.94,1079.65 703.976,1080.18 705.013,909.559 706.049,911.197 707.085,910.991 708.122,911.933 709.158,1014.57 710.194,1016.25 711.231,831.618 712.267,832.592 713.303,1081.9 714.34,1082.33 715.376,1052.14 716.412,1053.52 717.448,985.496 718.485,986.933 719.521,1115.38 720.557,1115.79 721.594,961.59 722.63,962.169 723.666,1195.81 724.703,1196.83 725.739,1005 726.775,1005.34 727.812,1195.12 728.848,1196.78 729.884,1092.61 730.921,1093.34 731.957,512.347 732.993,516.542 734.03,1049.53 735.066,1049.69 736.102,865.446 737.138,867.162 738.175,960.66 739.211,962.697 740.247,982.154 741.284,982.594 742.32,834.875 743.356,836.536 744.393,777.155 745.429,778.106 746.465,609.71 747.502,611.865 748.538,87.9763 749.574,92.3465 750.611,849.518 751.647,851.337 752.683,859.13 753.72,860.659 754.756,937.554 755.792,938.567 756.828,1188.36 757.865,1188.98 758.901,920.117 759.937,921.169 760.974,1094.38 762.01,1095.2 763.046,1227.66 764.083,1229.99 765.119,844.178 766.155,845.122 767.192,1205.32 768.228,1206.55 769.264,1109.38 770.301,1109.89 771.337,1070.16 772.373,1073.35 773.41,1131.49 774.446,1131.58 775.482,902.497 776.518,904.057 777.555,335.528 778.591,344.537 779.627,1027.8 780.664,1029.57 781.7,1011.29 782.736,1012.14 783.773,1101.33 784.809,1102.3 785.845,1006.45 786.882,1006.84 787.918,794.18 788.954,796.05 789.991,1120.49 791.027,1121.87 792.063,894.173 793.1,895.311 794.136,1142.45 795.172,1144.95 796.209,1287.35 797.245,1288.85 798.281,1110.91 799.317,1112.01 800.354,1140.71 801.39,1140.88 802.426,1001.25 803.463,1001.5 804.499,835.322 805.535,835.593 806.572,779.21 807.608,779.98 808.644,1054.44 809.681,1055.05 810.717,999.732 811.753,1001.72 812.79,1122.13 813.826,1122.42 814.862,599.387 815.899,601.861 816.935,1149.68 817.971,1151.69 819.007,1155.72 820.044,1156.11 821.08,1117.96 822.116,1118.31 823.153,1218.58 824.189,1219.66 825.225,787.22 826.262,788.708 827.298,892.271 828.334,892.539 829.371,862.307 830.407,863.126 831.443,1059.22 832.48,1059.89 833.516,743.722 834.552,747.125 835.589,963.257 836.625,963.964 837.661,1221.12 838.697,1222.48 839.734,972.867 840.77,973.277 841.806,1028.5 842.843,1029.24 843.879,872.18 844.915,873.377 845.952,1002.77 846.988,1003.3 848.024,936.53 849.061,937.876 850.097,989.739 851.133,990.268 852.17,1141.05 853.206,1141.76 854.242,1056.59 855.279,1058.59 856.315,553.74 857.351,557.546 858.387,981.914 859.424,982.502 860.46,1049.37 861.496,1050.16 862.533,1022.53 863.569,1024.62 864.605,1207.17 865.642,1209.13 866.678,1092.54 867.714,1093.05 868.751,907.073 869.787,908.551 870.823,969.073 871.86,969.641 872.896,1142.27 873.932,1142.89 874.969,1226.02 876.005,1227.37 877.041,1025.04 878.078,1025.27 879.114,1243.18 880.15,1243.92 881.186,1075.35 882.223,1075.9 883.259,916.549 884.295,916.887 885.332,1260.52 886.368,1262 887.404,1106.74 888.441,1107.47 889.477,883.924 890.513,884.528 891.55,295.076 892.586,300.346 893.622,1175.6 894.659,1176.46 895.695,1155.55 896.731,1156.85 897.768,1128.98 898.804,1129.26 899.84,1036.47 900.876,1036.73 901.913,1211.31 902.949,1211.53 903.985,752.567 905.022,753.926 906.058,1083.14 907.094,1084.43 908.131,723.879 909.167,725.409 910.203,1135.42 911.24,1136.22 912.276,949.918 913.312,950.567 914.349,1032.92 915.385,1033.97 916.421,701.945 917.458,703.203 918.494,779.106 919.53,780.033 920.566,1018.88 921.603,1019.65 922.639,1253.41 923.675,1255.5 924.712,1377.61 925.748,1381.91 926.784,1095.54 927.821,1095.68 928.857,1049.52 929.893,1050.16 930.93,1099.3 931.966,1099.85 933.002,974.16 934.039,975.466 935.075,986.528 936.111,986.893 937.148,1159.25 938.184,1159.94 939.22,1064.44 940.257,1064.76 941.293,877.567 942.329,883.432 943.365,882.592 944.402,883.379 945.438,1041.83 946.474,1042.11 947.511,1257.45 948.547,1258.24 949.583,899.135 950.62,899.978 951.656,886.469 952.692,887.633 953.729,1045.51 954.765,1046.45 955.801,805.611 956.838,808.728 957.874,915.129 958.91,915.793 959.947,1039.53 960.983,1039.9 962.019,925.789 963.055,926.176 964.092,879.369 965.128,880.883 966.164,1102.62 967.201,1103.14 968.237,1200.21 969.273,1201.18 970.31,1027.99 971.346,1028.91 972.382,1027.87 973.419,1028.11 974.455,1131.47 975.491,1131.94 976.528,744.315 977.564,747.007 978.6,1082.76 979.637,1083.27 980.673,759.577 981.709,760.731 982.745,980.727 983.782,984.995 984.818,650.293 985.854,652.771 986.891,1045.82 987.927,1046.79 988.963,1032.39 990,1033.53 991.036,1103.94 992.072,1104.25 993.109,1170.1 994.145,1171.1 995.181,818.509 996.218,820.674 997.254,938.138 998.29,940.308 999.327,847.795 1000.36,849.096 1001.4,1085.38 1002.44,1086.04 1003.47,1039.99 1004.51,1041.39 1005.54,1157.11 1006.58,1157.65 1007.62,623.332 1008.65,624.131 1009.69,991.485 1010.73,991.843 1011.76,1052.03 1012.8,1053.95 1013.83,1122.78 1014.87,1123.61 1015.91,915.826 1016.94,917.136 1017.98,1005.6 1019.02,1006.25 1020.05,1050.04 1021.09,1050.66 1022.13,912.638 1023.16,912.771 1024.2,1124.56 1025.23,1125.67 1026.27,1260.4 1027.31,1261.75 1028.34,1013.15 1029.38,1013.41 1030.42,1024.18 1031.45,1024.95 1032.49,1102.56 1033.52,1102.92 1034.56,1215.67 1035.6,1217.59 1036.63,883.449 1037.67,886.963 1038.71,667.42 1039.74,670.674 1040.78,1096.92 1041.82,1098.27 1042.85,768.914 1043.89,770.438 1044.92,965.811 1045.96,966.767 1047,1088.99 1048.03,1090.02 1049.07,532.81 1050.11,534.405 1051.14,1114.91 1052.18,1115.06 1053.22,791.294 1054.25,793.497 1055.29,1052.36 1056.32,1053.12 1057.36,869.596 1058.4,869.933 1059.43,1145.7 1060.47,1147.1 1061.51,800.317 1062.54,801.7 1063.58,1003.76 1064.61,1005.73 1065.65,1123.14 1066.69,1124.36 1067.72,588.641 1068.76,592.017 1069.8,1069.29 1070.83,1069.74 1071.87,1045.92 1072.91,1046.32 1073.94,1082.07 1074.98,1082.71 1076.01,1063.31 1077.05,1063.61 1078.09,864.837 1079.12,865.963 1080.16,854.535 1081.2,855.4 1082.23,1213.89 1083.27,1216.38 1084.3,924.717 1085.34,925.893 1086.38,896.448 1087.41,898.249 1088.45,908.129 1089.49,909.243 1090.52,950.567 1091.56,951.384 1092.6,959.7 1093.63,960.543 1094.67,880.379 1095.7,880.772 1096.74,860.955 1097.78,861.146 1098.81,1202.7 1099.85,1203.81 1100.89,860.114 1101.92,861.008 1102.96,836.478 1103.99,837.591 1105.03,1000.5 1106.07,1001.46 1107.1,1080.68 1108.14,1085.04 1109.18,1178.59 1110.21,1179.83 1111.25,1142.22 1112.29,1142.48 1113.32,1078.48 1114.36,1079.05 1115.39,1060.65 1116.43,1061.19 1117.47,1118.93 1118.5,1119.28 1119.54,1089.16 1120.58,1090.9 1121.61,890.139 1122.65,890.904 1123.68,1021.38 1124.72,1021.51 1125.76,1094.22 1126.79,1095.54 1127.83,1001.26 1128.87,1002.14 1129.9,823.473 1130.94,824.467 1131.98,931.211 1133.01,931.684 1134.05,918.484 1135.08,919.798 1136.12,1123.76 1137.16,1124.78 1138.19,893.473 1139.23,894.156 1140.27,869.418 1141.3,870.01 1142.34,1163.35 1143.37,1164.11 1144.41,885.341 1145.45,886.215 1146.48,1008.51 1147.52,1009.44 1148.56,636.062 1149.59,640.853 1150.63,1097.44 1151.67,1097.89 1152.7,726.776 1153.74,728.184 1154.77,789.335 1155.81,790.452 1156.85,1093.79 1157.88,1095.2 1158.92,1065.46 1159.96,1067.02 1160.99,1020.53 1162.03,1022.1 1163.06,982.41 1164.1,983.367 1165.14,1063.29 1166.17,1064.37 1167.21,1198.5 1168.25,1199.77 1169.28,1144.63 1170.32,1145.17 1171.36,1026.34 1172.39,1027.24 1173.43,1165.1 1174.46,1166.47 1175.5,1009.3 1176.54,1009.76 1177.57,1121.1 1178.61,1122.8 1179.65,1070.94 1180.68,1071.57 1181.72,1153.49 1182.75,1153.81 1183.79,1119.05 1184.83,1119.8 1185.86,1184.24 1186.9,1184.74 1187.94,1046.08 1188.97,1046.51 1190.01,1170.92 1191.05,1171.6 1192.08,992.549 1193.12,994.406 1194.15,1240.61 1195.19,1241.71 1196.23,1207.18 1197.26,1207.68 1198.3,1104.95 1199.34,1106.69 1200.37,1128.81 1201.41,1131.01 1202.44,1170.03 1203.48,1170.32 1204.52,1138.2 1205.55,1138.67 1206.59,796.956 1207.63,797.962 1208.66,1100.81 1209.7,1101.26 1210.74,1109.9 1211.77,1110.05 1212.81,894.439 1213.84,895.72 1214.88,1033.01 1215.92,1036.73 1216.95,1128.46 1217.99,1129.98 1219.03,1136.41 1220.06,1136.9 1221.1,1130.53 1222.13,1130.67 1223.17,1094.8 1224.21,1096.11 1225.24,1262.32 1226.28,1265.19 1227.32,1146.96 1228.35,1147.42 1229.39,1059.11 1230.43,1059.43 1231.46,1138.06 1232.5,1140.17 1233.53,873.567 1234.57,874.014 1235.61,1147.82 1236.64,1149.18 1237.68,1019.8 1238.72,1020.33 1239.75,1018.59 1240.79,1018.69 1241.82,989.539 1242.86,990.729 1243.9,880.24 1244.93,880.839 1245.97,1085.28 1247.01,1086.72 1248.04,1086.13 1249.08,1086.24 1250.12,997.309 1251.15,998.115 1252.19,1123.34 1253.22,1125.83 1254.26,1127.91 1255.3,1128.37 1256.33,709.602 1257.37,711.489 1258.41,1066.88 1259.44,1067.79 1260.48,1172.52 1261.51,1173.3 1262.55,848.6 1263.59,849.787 1264.62,551.659 1265.66,554.525 1266.7,1123.07 1267.73,1124.64 1268.77,1190.23 1269.81,1191.8 1270.84,991.862 1271.88,992.997 1272.91,1240.35 1273.95,1240.93 1274.99,1008.23 1276.02,1010.25 1277.06,1041.81 1278.1,1043.83 1279.13,1108.47 1280.17,1108.67 1281.2,1080.41 1282.24,1081.79 1283.28,1113.28 1284.31,1114.29 1285.35,997.723 1286.39,998.348 1287.42,1049.68 1288.46,1050.32 1289.5,1085.14 1290.53,1085.6 1291.57,950.02 1292.6,950.541 1293.64,1173.33 1294.68,1174.68 1295.71,897.397 1296.75,898.352 1297.79,1033.56 1298.82,1034.05 1299.86,851.741 1300.89,853.461 1301.93,958.359 1302.97,959.118 1304,801.304 1305.04,802.75 1306.08,1141.25 1307.11,1142.15 1308.15,1036.36 1309.19,1038.16 1310.22,851.138 1311.26,852.022 1312.29,709.4 1313.33,710.948 1314.37,1100 1315.4,1100.39 1316.44,872.948 1317.48,876.566 1318.51,1073.22 1319.55,1074.22 1320.58,1127.3 1321.62,1127.91 1322.66,1162.31 1323.69,1164.05 1324.73,1093.49 1325.77,1093.88 1326.8,1212.32 1327.84,1213.66 1328.88,1035.91 1329.91,1036.88 1330.95,701.2 1331.98,703.819 1333.02,1083.18 1334.06,1083.85 1335.09,1135.72 1336.13,1136.36 1337.17,999.622 1338.2,999.698 1339.24,925.884 1340.27,926.539 1341.31,973.203 1342.35,973.668 1343.38,1155.31 1344.42,1156.12 1345.46,881.261 1346.49,883.255 1347.53,972.875 1348.57,973.535 1349.6,1009.8 1350.64,1010.38 1351.67,980.616 1352.71,982.541 1353.75,1087.72 1354.78,1088.38 1355.82,984.411 1356.86,985.011 1357.89,986.336 1358.93,987.905 1359.96,995.235 1361,995.654 1362.04,963.026 1363.07,965.22 1364.11,1014 1365.15,1014.69 1366.18,1100.52 1367.22,1101.95 1368.26,1199.29 1369.29,1200.05 1370.33,1167.98 1371.36,1168.3 1372.4,1196.17 1373.44,1197.07 1374.47,1044.65 1375.51,1044.81 1376.55,1008.94 1377.58,1009.08 1378.62,818.072 1379.65,819.175 1380.69,933.082 1381.73,933.548 1382.76,1115.08 1383.8,1115.38 1384.84,1019.37 1385.87,1019.47 1386.91,957.928 1387.95,958.715 1388.98,1044.93 1390.02,1046.18 1391.05,1146.23 1392.09,1146.7 1393.13,1099.3 1394.16,1099.83 1395.2,1048.56 1396.24,1048.77 1397.27,1203.17 1398.31,1204.22 1399.34,1048.57 1400.38,1048.62 1401.42,1035.23 1402.45,1037.81 1403.49,1121.21 1404.53,1122.76 1405.56,985.454 1406.6,987.158 1407.64,855.837 1408.67,857.349 1409.71,1086.37 1410.74,1086.59 1411.78,1003.73 1412.82,1004.46 1413.85,1108.89 1414.89,1109.86 1415.93,1017.89 1416.96,1019.03 1418,1149.46 1419.03,1150.18 1420.07,908.565 1421.11,909.857 1422.14,566.42 1423.18,572.749 1424.22,924.37 1425.25,925.462 1426.29,976.749 1427.33,977.44 1428.36,1013.76 1429.4,1014.11 1430.43,953.811 1431.47,953.934 1432.51,1065.37 1433.54,1065.46 1434.58,954.832 1435.62,955.528 1436.65,1070.27 1437.69,1070.97 1438.72,1140.21 1439.76,1142.56 1440.8,969.236 1441.83,969.619 1442.87,1075.35 1443.91,1075.69 1444.94,1063.89 1445.98,1064.82 1447.02,1103.68 1448.05,1103.88 1449.09,693.562 1450.12,695.558 1451.16,990.605 1452.2,992.152 1453.23,1173.94 1454.27,1174.39 1455.31,1002.75 1456.34,1003.5 1457.38,1156.04 1458.41,1158.75 1459.45,838.431 1460.49,839.037 1461.52,1115.57 1462.56,1116.35 1463.6,923.798 1464.63,924.713 1465.67,1109.92 1466.71,1110.68 1467.74,1269.58 1468.78,1271.04 1469.81,1080 1470.85,1080.19 1471.89,904.525 1472.92,905.273 1473.96,1150.93 1475,1152.92 1476.03,882.68 1477.07,884 1478.1,1235.81 1479.14,1237.31 1480.18,1115.63 1481.21,1115.88 1482.25,1114.24 1483.29,1114.42 1484.32,854.649 1485.36,854.99 1486.4,789.542 1487.43,790.851 1488.47,1034.51 1489.5,1034.66 1490.54,1014.09 1491.58,1014.98 1492.61,1175.4 1493.65,1176.1 1494.69,1023.76 1495.72,1023.92 1496.76,886.106 1497.79,887.258 1498.83,1216.72 1499.87,1218.97 1500.9,1147.15 1501.94,1147.32 1502.98,1167.56 1504.01,1167.79 1505.05,954.477 1506.09,955.111 1507.12,989.828 1508.16,990.62 1509.19,1079.52 1510.23,1080.01 1511.27,1267.92 1512.3,1268.99 1513.34,1109.9 1514.38,1110.22 1515.41,938.851 1516.45,939.309 1517.48,1132.22 1518.52,1132.34 1519.56,1222.31 1520.59,1222.57 1521.63,1141.27 1522.67,1143.25 1523.7,859.26 1524.74,860.472 1525.78,942.026 1526.81,943.214 1527.85,1020.36 1528.88,1021.38 1529.92,676.54 1530.96,679.704 1531.99,1038.42 1533.03,1038.66 1534.07,1072.99 1535.1,1073.84 1536.14,961.93 1537.17,962.724 1538.21,1112.63 1539.25,1114.54 1540.28,908.083 1541.32,908.615 1542.36,1213.43 1543.39,1216.82 1544.43,847.45 1545.47,847.918 1546.5,1118.79 1547.54,1119.39 1548.57,1174.52 1549.61,1175.37 1550.65,956.565 1551.68,956.777 1552.72,1274.12 1553.76,1276.13 1554.79,935.018 1555.83,935.918 1556.86,826.047 1557.9,826.742 1558.94,1185 1559.97,1186.21 1561.01,1052.03 1562.05,1053.79 1563.08,909.77 1564.12,911.103 1565.16,1184.76 1566.19,1186.33 1567.23,1109.19 1568.26,1110.21 1569.3,778.517 1570.34,782.172 1571.37,1117.51 1572.41,1118.99 1573.45,1266.37 1574.48,1267.68 1575.52,1015.18 1576.55,1016.94 1577.59,1182.95 1578.63,1183.32 1579.66,1074.96 1580.7,1075.24 1581.74,1074.26 1582.77,1074.8 1583.81,1088.38 1584.85,1088.86 1585.88,1179.24 1586.92,1180 1587.95,1128.51 1588.99,1128.73 1590.03,997.168 1591.06,997.719 1592.1,1199.3 1593.14,1199.83 1594.17,1053.12 1595.21,1053.2 1596.24,872.209 1597.28,873.389 1598.32,1091.91 1599.35,1092 1600.39,1166.67 1601.43,1168.54 1602.46,755.261 1603.5,756.633 1604.54,857.366 1605.57,859.731 1606.61,1070.46 1607.64,1071.11 1608.68,1190.57 1609.72,1191.09 1610.75,819.347 1611.79,822.494 1612.83,1245.98 1613.86,1249.46 1614.9,934.065 1615.93,935.243 1616.97,1221.37 1618.01,1222.03 1619.04,983.894 1620.08,984.393 1621.12,1082.19 1622.15,1083.24 1623.19,1005.79 1624.23,1006.38 1625.26,772.417 1626.3,774.794 1627.33,1128.26 1628.37,1128.59 1629.41,871.375 1630.44,873.905 1631.48,961.383 1632.52,963.919 1633.55,1351.37 1634.59,1354.39 1635.62,907.295 1636.66,909.74 1637.7,1044.12 1638.73,1045.36 1639.77,999.568 1640.81,1000.57 1641.84,1086.84 1642.88,1087.46 1643.92,885.846 1644.95,887.096 1645.99,1107.17 1647.02,1107.38 1648.06,729.056 1649.1,731.075 1650.13,977.941 1651.17,978.633 1652.21,1174 1653.24,1174.68 1654.28,954.235 1655.31,954.701 1656.35,919.677 1657.39,920.12 1658.42,1161.85 1659.46,1162.56 1660.5,1221.84 1661.53,1222.68 1662.57,1049.26 1663.61,1049.75 1664.64,1120.36 1665.68,1121.63 1666.71,1076.24 1667.75,1076.62 1668.79,1118.15 1669.82,1118.43 1670.86,983.79 1671.9,984.393 1672.93,864.046 1673.97,866.322 1675,921.289 1676.04,922.299 1677.08,1209.42 1678.11,1210.45 1679.15,1134 1680.19,1135.28 1681.22,1243.7 1682.26,1245.64 1683.3,962.238 1684.33,963.438 1685.37,731.382 1686.4,735.649 1687.44,1016.9 1688.48,1018.11 1689.51,1173.75 1690.55,1173.87 1691.59,886.861 1692.62,888.562 1693.66,908.523 1694.69,909.258 1695.73,1108.69 1696.77,1110.39 1697.8,1248.99 1698.84,1250.02 1699.88,982.612 1700.91,984.089 1701.95,988.323 1702.99,989.397 1704.02,1135.79 1705.06,1136.48 1706.09,1215.7 1707.13,1216.01 1708.17,1007.79 1709.2,1009.38 1710.24,1065.6 1711.28,1065.71 1712.31,771.95 1713.35,777.871 1714.38,1150.03 1715.42,1150.4 1716.46,1034.66 1717.49,1035.31 1718.53,1015.24 1719.57,1015.26 1720.6,736.734 1721.64,738.285 1722.68,941.742 1723.71,942.61 1724.75,792.007 1725.78,801.348 1726.82,742.393 1727.86,743.421 1728.89,1133.6 1729.93,1134.65 1730.97,1007.27 1732,1010.3 1733.04,987.293 1734.07,987.82 1735.11,1061.08 1736.15,1061.76 1737.18,975.336 1738.22,976.255 1739.26,936.573 1740.29,936.948 1741.33,793.575 1742.37,794.245 1743.4,678.773 1744.44,679.722 1745.47,887.936 1746.51,888.552 1747.55,932.029 1748.58,932.392 1749.62,963.259 1750.66,965.987 1751.69,1109.67 1752.73,1110.54 1753.76,1135.22 1754.8,1138.6 1755.84,931.837 1756.87,932.456 1757.91,1030.5 1758.95,1032.25 1759.98,1157.92 1761.02,1159 1762.06,1177.85 1763.09,1178.99 1764.13,815.293 1765.16,819.927 1766.2,1024.08 1767.24,1026.15 1768.27,991.595 1769.31,992.404 1770.35,905.799 1771.38,906.99 1772.42,1079.26 1773.45,1080.04 1774.49,1130.02 1775.53,1130.94 1776.56,645.4 1777.6,646.594 1778.64,1088.27 1779.67,1088.83 1780.71,945.162 1781.75,946.68 1782.78,1033.3 1783.82,1034.02 1784.85,1056.58 1785.89,1056.78 1786.93,1053.83 1787.96,1054.97 1789,991.981 1790.04,992.21 1791.07,986.194 1792.11,986.268 1793.14,1089.45 1794.18,1089.9 1795.22,1076.06 1796.25,1076.73 1797.29,1062.53 1798.33,1062.91 1799.36,908.014 1800.4,908.965 1801.44,792.334 1802.47,793.942 1803.51,1060.97 1804.54,1061.2 1805.58,1142.02 1806.62,1143.65 1807.65,814.641 1808.69,816.341 1809.73,1081.1 1810.76,1081.39 1811.8,1120.72 1812.84,1125.75 1813.87,1025.08 1814.91,1025.21 1815.94,1101.45 1816.98,1102.18 1818.02,1111.82 1819.05,1112.02 1820.09,1194.81 1821.13,1196.27 1822.16,1108.24 1823.2,1111.15 1824.23,1207.3 1825.27,1208.45 1826.31,956.718 1827.34,957.558 1828.38,896.101 1829.42,897.656 1830.45,1128.29 1831.49,1128.9 1832.53,853.119 1833.56,854.22 1834.6,1131.58 1835.63,1132.04 1836.67,1113.81 1837.71,1114.43 1838.74,1116.35 1839.78,1116.44 1840.82,1080.4 1841.85,1080.57 1842.89,945.102 1843.92,945.641 1844.96,799.113 1846,801.966 1847.03,1240.42 1848.07,1242.63 1849.11,817.451 1850.14,820.973 1851.18,1107.86 1852.22,1108.14 1853.25,1140.89 1854.29,1141.14 1855.32,930.792 1856.36,931.718 1857.4,950.885 1858.43,951.291 1859.47,1169.93 1860.51,1170.84 1861.54,1041.7 1862.58,1042.56 1863.61,887.831 1864.65,889.601 1865.69,1007.01 1866.72,1007.73 1867.76,952.659 1868.8,952.801 1869.83,1053.67 1870.87,1054.87 1871.91,949.513 1872.94,950.966 1873.98,1010.71 1875.01,1011.54 1876.05,828.993 1877.09,829.703 1878.12,890.332 1879.16,891.115 1880.2,1285.09 1881.23,1288.01 1882.27,942.494 1883.3,943.481 1884.34,929.939 1885.38,932.424 1886.41,1065.86 1887.45,1065.98 1888.49,954.074 1889.52,957.3 1890.56,1132.89 1891.6,1134.26 1892.63,1105.41 1893.67,1106.61 1894.7,932.117 1895.74,933.044 1896.78,1023.8 1897.81,1024.13 1898.85,748.103 1899.89,749.95 1900.92,1187.01 1901.96,1189.43 1902.99,973.78 1904.03,974.552 1905.07,729.894 1906.1,730.591 1907.14,1004.9 1908.18,1005.88 1909.21,1135.89 1910.25,1137.51 1911.29,1081.07 1912.32,1081.59 1913.36,1039.02 1914.39,1039.28 1915.43,1069.5 1916.47,1069.57 1917.5,1168.04 1918.54,1169.57 1919.58,1074.14 1920.61,1074.77 1921.65,817.423 1922.68,818.879 1923.72,1103.87 1924.76,1105.32 1925.79,1148.37 1926.83,1148.68 1927.87,1038.24 1928.9,1039.05 1929.94,1046.75 1930.98,1047.33 1932.01,803.053 1933.05,803.677 1934.08,1065.81 1935.12,1066.02 1936.16,1109.04 1937.19,1109.95 1938.23,1175.14 1939.27,1175.64 1940.3,938.464 1941.34,942.577 1942.37,1115.36 1943.41,1115.85 1944.45,1027.98 1945.48,1028.22 1946.52,999.993 1947.56,1000.28 1948.59,1096.32 1949.63,1097.98 1950.67,1186.12 1951.7,1187.73 1952.74,1102.52 1953.77,1104.07 1954.81,1144.79 1955.85,1145.7 1956.88,1019.22 1957.92,1019.84 1958.96,993.439 1959.99,995.689 1961.03,551.97 1962.06,558.476 1963.1,1051.83 1964.14,1052.31 1965.17,1168.38 1966.21,1169.46 1967.25,1217.35 1968.28,1217.91 1969.32,1169.55 1970.36,1170 1971.39,1098.68 1972.43,1098.96 1973.46,1243.5 1974.5,1244.21 1975.54,1143.59 1976.57,1146.13 1977.61,1099.87 1978.65,1100.06 1979.68,1036.22 1980.72,1037.04 1981.75,1096.91 1982.79,1096.93 1983.83,998.203 1984.86,999.17 1985.9,773.504 1986.94,774.925 1987.97,1070.24 1989.01,1070.45 1990.05,1050.68 1991.08,1050.75 1992.12,1162.32 1993.15,1162.77 1994.19,1041.51 1995.23,1041.59 1996.26,1141.64 1997.3,1142.93 1998.34,1099.27 1999.37,1100.04 2000.41,984.007 2001.44,984.871 2002.48,781.368 2003.52,784.766 2004.55,980.375 2005.59,982.601 2006.63,1049.86 2007.66,1050.87 2008.7,1141.59 2009.74,1142.15 2010.77,1003.87 2011.81,1004.61 2012.84,1271.36 2013.88,1272.95 2014.92,1245.59 2015.95,1246.86 2016.99,997.367 2018.03,998.333 2019.06,1000.79 2020.1,1002.06 2021.13,1126.27 2022.17,1126.7 2023.21,880.761 2024.24,882.961 2025.28,1120.88 2026.32,1121.08 2027.35,1053.96 2028.39,1054.41 2029.43,1089.55 2030.46,1089.72 2031.5,1113.01 2032.53,1113.19 2033.57,1031.63 2034.61,1032.1 2035.64,1193.62 2036.68,1194.46 2037.72,956.857 2038.75,958.239 2039.79,992.523 2040.82,993.732 2041.86,1087.45 2042.9,1088.57 2043.93,819.44 2044.97,821.583 2046.01,1189.19 2047.04,1190.03 2048.08,1134.85 2049.12,1135.17 2050.15,960.976 2051.19,961.289 2052.22,858.509 2053.26,860.348 2054.3,1034.91 2055.33,1035.19 2056.37,1005.03 2057.41,1005.25 2058.44,1059.3 2059.48,1060.37 2060.51,499.257 2061.55,502.964 2062.59,1168.33 2063.62,1170.9 2064.66,1254.01 2065.7,1255.63 2066.73,885.71 2067.77,889.125 2068.81,1176.43 2069.84,1176.99 2070.88,1175.85 2071.91,1178.3 2072.95,873.471 2073.99,875.222 2075.02,717.284 2076.06,719.721 2077.1,982.399 2078.13,982.889 2079.17,1074.9 2080.2,1074.99 2081.24,1020.06 2082.28,1020.33 2083.31,990.291 2084.35,990.859 2085.39,1012.66 2086.42,1013.35 2087.46,1119.21 2088.5,1119.54 2089.53,639.992 2090.57,642.387 2091.6,1161.78 2092.64,1162.22 2093.68,1060.04 2094.71,1060.39 2095.75,973.186 2096.79,973.73 2097.82,980.998 2098.86,981.332 2099.89,1046.55 2100.93,1047.01 2101.97,1224.55 2103,1225.61 2104.04,868.583 2105.08,869.285 2106.11,1018.22 2107.15,1019.53 2108.19,1136.59 2109.22,1137.65 2110.26,1076.11 2111.29,1076.33 2112.33,1012.48 2113.37,1015.52 2114.4,1094.1 2115.44,1094.56 2116.48,761.318 2117.51,762.647 2118.55,780.823 2119.58,783.252 2120.62,1260.53 2121.66,1265.43 2122.69,1226.51 2123.73,1227.58 2124.77,926.093 2125.8,928.979 2126.84,1113.28 2127.88,1114.34 2128.91,932.899 2129.95,933.164 2130.98,1106.88 2132.02,1107.53 2133.06,1022.75 2134.09,1023.32 2135.13,968.942 2136.17,969.937 2137.2,1013.05 2138.24,1013.25 2139.27,1137.88 2140.31,1138.23 2141.35,707.344 2142.38,712.433 2143.42,754.485 2144.46,757.486 2145.49,1163.76 2146.53,1165.39 2147.57,1010.93 2148.6,1012.53 2149.64,1098.44 2150.67,1099.17 2151.71,1192.88 2152.75,1194.09 2153.78,742.482 2154.82,746.418 2155.86,946.957 2156.89,948.828 2157.93,1196.09 2158.96,1197.53 2160,1106.57 2161.04,1108.15 2162.07,1042.23 2163.11,1042.58 2164.15,1037.05 2165.18,1038.2 2166.22,1007.23 2167.26,1007.4 2168.29,979.941 2169.33,981.38 2170.36,1139.55 2171.4,1141.54 2172.44,1015.3 2173.47,1015.38 2174.51,911.109 2175.55,913.972 2176.58,1177.54 2177.62,1179.88 2178.65,1126.78 2179.69,1128.27 2180.73,1109.28 2181.76,1109.59 2182.8,1053.52 2183.84,1054.74 2184.87,1010.16 2185.91,1010.41 2186.95,1074.48 2187.98,1074.96 2189.02,1070.3 2190.05,1073.96 2191.09,1217.22 2192.13,1218.48 2193.16,1039.03 2194.2,1039.37 2195.24,1033.96 2196.27,1034.68 2197.31,1122.88 2198.34,1123.63 2199.38,882.869 2200.42,883.792 2201.45,1070.1 2202.49,1070.31 2203.53,972.936 2204.56,973.497 2205.6,1076.67 2206.64,1076.79 2207.67,1173.27 2208.71,1173.68 2209.74,1129.92 2210.78,1130.86 2211.82,1107.2 2212.85,1108.61 2213.89,756.953 2214.93,758.347 2215.96,1151.23 2217,1151.82 2218.03,1059.08 2219.07,1059.39 2220.11,1041.59 2221.14,1041.91 2222.18,973.942 2223.22,974.42 2224.25,1019.05 2225.29,1019.33 2226.33,1010.33 2227.36,1011.36 2228.4,900.557 2229.43,901.53 2230.47,1033.97 2231.51,1034.29 2232.54,1188.78 2233.58,1189.67 2234.62,1065.92 2235.65,1066.07 2236.69,1062.26 2237.72,1063.32 2238.76,1220.39 2239.8,1221.74 2240.83,981.734 2241.87,981.976 2242.91,1030.19 2243.94,1030.77 2244.98,866.512 2246.02,868.075 2247.05,1146.06 2248.09,1146.6 2249.12,1024.55 2250.16,1025.21 2251.2,1196.12 2252.23,1197.28 2253.27,1066.1 2254.31,1066.46 2255.34,780.561 2256.38,781.327 2257.41,904.223 2258.45,904.599 2259.49,1063.46 2260.52,1064 2261.56,1239.62 2262.6,1240.95 2263.63,1087.38 2264.67,1087.69 2265.71,1127.14 2266.74,1128.14 2267.78,875.933 2268.81,878.271 2269.85,1069.54 2270.89,1070.43 2271.92,1183.46 2272.96,1183.86 2274,957.326 2275.03,959.248 2276.07,1163.95 2277.1,1164.67 2278.14,1198.01 2279.18,1198.36 2280.21,933.419 2281.25,936.685 2282.29,1085 2283.32,1085.64 2284.36,1188.3 2285.4,1189.27 2286.43,1118.94 2287.47,1119.03 2288.5,1060.22 2289.54,1061.34 2290.58,1062.34 "/>
<path clip-path="url(#clip630)" d="M2007.39 198.898 L2279.52 198.898 L2279.52 95.2176 L2007.39 95.2176  Z" fill="#ffffff" fill-rule="evenodd" fill-opacity="1"/>
<polyline clip-path="url(#clip630)" style="stroke:#000000; stroke-linecap:round; stroke-linejoin:round; stroke-width:4; stroke-opacity:1; fill:none" points="2007.39,198.898 2279.52,198.898 2279.52,95.2176 2007.39,95.2176 2007.39,198.898 "/>
<polyline clip-path="url(#clip630)" style="stroke:#009af9; stroke-linecap:round; stroke-linejoin:round; stroke-width:4; stroke-opacity:1; fill:none" points="2031.8,147.058 2178.27,147.058 "/>
<path clip-path="url(#clip630)" d="M2216.52 166.745 Q2214.72 171.375 2213.01 172.787 Q2211.29 174.199 2208.42 174.199 L2205.02 174.199 L2205.02 170.634 L2207.52 170.634 Q2209.28 170.634 2210.25 169.8 Q2211.22 168.967 2212.4 165.865 L2213.17 163.921 L2202.68 138.412 L2207.2 138.412 L2215.3 158.689 L2223.4 138.412 L2227.91 138.412 L2216.52 166.745 Z" fill="#000000" fill-rule="nonzero" fill-opacity="1" /><path clip-path="url(#clip630)" d="M2235.2 160.402 L2242.84 160.402 L2242.84 134.037 L2234.53 135.703 L2234.53 131.444 L2242.8 129.778 L2247.47 129.778 L2247.47 160.402 L2255.11 160.402 L2255.11 164.338 L2235.2 164.338 L2235.2 160.402 Z" fill="#000000" fill-rule="nonzero" fill-opacity="1" /></svg>
