<?xml version="1.0" encoding="utf-8"?>
<svg xmlns="http://www.w3.org/2000/svg" xmlns:xlink="http://www.w3.org/1999/xlink" width="600" height="400" viewBox="0 0 2400 1600">
<defs>
  <clipPath id="clip900">
    <rect x="0" y="0" width="2400" height="1600"/>
  </clipPath>
</defs>
<path clip-path="url(#clip900)" d="M0 1600 L2400 1600 L2400 0 L0 0  Z" fill="#ffffff" fill-rule="evenodd" fill-opacity="1"/>
<defs>
  <clipPath id="clip901">
    <rect x="480" y="0" width="1681" height="1600"/>
  </clipPath>
</defs>
<path clip-path="url(#clip900)" d="M186.274 1486.45 L2352.76 1486.45 L2352.76 47.2441 L186.274 47.2441  Z" fill="#ffffff" fill-rule="evenodd" fill-opacity="1"/>
<defs>
  <clipPath id="clip902">
    <rect x="186" y="47" width="2167" height="1440"/>
  </clipPath>
</defs>
<polyline clip-path="url(#clip902)" style="stroke:#000000; stroke-linecap:round; stroke-linejoin:round; stroke-width:2; stroke-opacity:0.1; fill:none" points="226.945,1486.45 226.945,47.2441 "/>
<polyline clip-path="url(#clip902)" style="stroke:#000000; stroke-linecap:round; stroke-linejoin:round; stroke-width:2; stroke-opacity:0.1; fill:none" points="743.069,1486.45 743.069,47.2441 "/>
<polyline clip-path="url(#clip902)" style="stroke:#000000; stroke-linecap:round; stroke-linejoin:round; stroke-width:2; stroke-opacity:0.1; fill:none" points="1259.19,1486.45 1259.19,47.2441 "/>
<polyline clip-path="url(#clip902)" style="stroke:#000000; stroke-linecap:round; stroke-linejoin:round; stroke-width:2; stroke-opacity:0.1; fill:none" points="1775.32,1486.45 1775.32,47.2441 "/>
<polyline clip-path="url(#clip902)" style="stroke:#000000; stroke-linecap:round; stroke-linejoin:round; stroke-width:2; stroke-opacity:0.1; fill:none" points="2291.44,1486.45 2291.44,47.2441 "/>
<polyline clip-path="url(#clip900)" style="stroke:#000000; stroke-linecap:round; stroke-linejoin:round; stroke-width:4; stroke-opacity:1; fill:none" points="186.274,1486.45 2352.76,1486.45 "/>
<polyline clip-path="url(#clip900)" style="stroke:#000000; stroke-linecap:round; stroke-linejoin:round; stroke-width:4; stroke-opacity:1; fill:none" points="226.945,1486.45 226.945,1467.55 "/>
<polyline clip-path="url(#clip900)" style="stroke:#000000; stroke-linecap:round; stroke-linejoin:round; stroke-width:4; stroke-opacity:1; fill:none" points="743.069,1486.45 743.069,1467.55 "/>
<polyline clip-path="url(#clip900)" style="stroke:#000000; stroke-linecap:round; stroke-linejoin:round; stroke-width:4; stroke-opacity:1; fill:none" points="1259.19,1486.45 1259.19,1467.55 "/>
<polyline clip-path="url(#clip900)" style="stroke:#000000; stroke-linecap:round; stroke-linejoin:round; stroke-width:4; stroke-opacity:1; fill:none" points="1775.32,1486.45 1775.32,1467.55 "/>
<polyline clip-path="url(#clip900)" style="stroke:#000000; stroke-linecap:round; stroke-linejoin:round; stroke-width:4; stroke-opacity:1; fill:none" points="2291.44,1486.45 2291.44,1467.55 "/>
<path clip-path="url(#clip900)" d="M226.945 1517.37 Q223.333 1517.37 221.505 1520.93 Q219.699 1524.47 219.699 1531.6 Q219.699 1538.71 221.505 1542.27 Q223.333 1545.82 226.945 1545.82 Q230.579 1545.82 232.384 1542.27 Q234.213 1538.71 234.213 1531.6 Q234.213 1524.47 232.384 1520.93 Q230.579 1517.37 226.945 1517.37 M226.945 1513.66 Q232.755 1513.66 235.81 1518.27 Q238.889 1522.85 238.889 1531.6 Q238.889 1540.33 235.81 1544.94 Q232.755 1549.52 226.945 1549.52 Q221.134 1549.52 218.056 1544.94 Q215 1540.33 215 1531.6 Q215 1522.85 218.056 1518.27 Q221.134 1513.66 226.945 1513.66 Z" fill="#000000" fill-rule="nonzero" fill-opacity="1" /><path clip-path="url(#clip900)" d="M722.339 1544.91 L738.659 1544.91 L738.659 1548.85 L716.714 1548.85 L716.714 1544.91 Q719.377 1542.16 723.96 1537.53 Q728.566 1532.88 729.747 1531.53 Q731.992 1529.01 732.872 1527.27 Q733.775 1525.51 733.775 1523.82 Q733.775 1521.07 731.83 1519.33 Q729.909 1517.6 726.807 1517.6 Q724.608 1517.6 722.154 1518.36 Q719.724 1519.13 716.946 1520.68 L716.946 1515.95 Q719.77 1514.82 722.224 1514.24 Q724.677 1513.66 726.714 1513.66 Q732.085 1513.66 735.279 1516.35 Q738.474 1519.03 738.474 1523.52 Q738.474 1525.65 737.663 1527.57 Q736.876 1529.47 734.77 1532.07 Q734.191 1532.74 731.089 1535.95 Q727.988 1539.15 722.339 1544.91 Z" fill="#000000" fill-rule="nonzero" fill-opacity="1" /><path clip-path="url(#clip900)" d="M748.52 1514.29 L766.876 1514.29 L766.876 1518.22 L752.802 1518.22 L752.802 1526.7 Q753.821 1526.35 754.839 1526.19 Q755.858 1526 756.876 1526 Q762.663 1526 766.043 1529.17 Q769.423 1532.34 769.423 1537.76 Q769.423 1543.34 765.95 1546.44 Q762.478 1549.52 756.159 1549.52 Q753.983 1549.52 751.714 1549.15 Q749.469 1548.78 747.062 1548.04 L747.062 1543.34 Q749.145 1544.47 751.367 1545.03 Q753.589 1545.58 756.066 1545.58 Q760.071 1545.58 762.409 1543.48 Q764.747 1541.37 764.747 1537.76 Q764.747 1534.15 762.409 1532.04 Q760.071 1529.94 756.066 1529.94 Q754.191 1529.94 752.316 1530.35 Q750.464 1530.77 748.52 1531.65 L748.52 1514.29 Z" fill="#000000" fill-rule="nonzero" fill-opacity="1" /><path clip-path="url(#clip900)" d="M1233.89 1514.29 L1252.25 1514.29 L1252.25 1518.22 L1238.17 1518.22 L1238.17 1526.7 Q1239.19 1526.35 1240.21 1526.19 Q1241.23 1526 1242.25 1526 Q1248.04 1526 1251.41 1529.17 Q1254.79 1532.34 1254.79 1537.76 Q1254.79 1543.34 1251.32 1546.44 Q1247.85 1549.52 1241.53 1549.52 Q1239.35 1549.52 1237.09 1549.15 Q1234.84 1548.78 1232.43 1548.04 L1232.43 1543.34 Q1234.52 1544.47 1236.74 1545.03 Q1238.96 1545.58 1241.44 1545.58 Q1245.44 1545.58 1247.78 1543.48 Q1250.12 1541.37 1250.12 1537.76 Q1250.12 1534.15 1247.78 1532.04 Q1245.44 1529.94 1241.44 1529.94 Q1239.56 1529.94 1237.69 1530.35 Q1235.84 1530.77 1233.89 1531.65 L1233.89 1514.29 Z" fill="#000000" fill-rule="nonzero" fill-opacity="1" /><path clip-path="url(#clip900)" d="M1274.01 1517.37 Q1270.4 1517.37 1268.57 1520.93 Q1266.76 1524.47 1266.76 1531.6 Q1266.76 1538.71 1268.57 1542.27 Q1270.4 1545.82 1274.01 1545.82 Q1277.64 1545.82 1279.45 1542.27 Q1281.28 1538.71 1281.28 1531.6 Q1281.28 1524.47 1279.45 1520.93 Q1277.64 1517.37 1274.01 1517.37 M1274.01 1513.66 Q1279.82 1513.66 1282.87 1518.27 Q1285.95 1522.85 1285.95 1531.6 Q1285.95 1540.33 1282.87 1544.94 Q1279.82 1549.52 1274.01 1549.52 Q1268.2 1549.52 1265.12 1544.94 Q1262.06 1540.33 1262.06 1531.6 Q1262.06 1522.85 1265.12 1518.27 Q1268.2 1513.66 1274.01 1513.66 Z" fill="#000000" fill-rule="nonzero" fill-opacity="1" /><path clip-path="url(#clip900)" d="M1749.17 1514.29 L1771.39 1514.29 L1771.39 1516.28 L1758.85 1548.85 L1753.96 1548.85 L1765.77 1518.22 L1749.17 1518.22 L1749.17 1514.29 Z" fill="#000000" fill-rule="nonzero" fill-opacity="1" /><path clip-path="url(#clip900)" d="M1780.56 1514.29 L1798.92 1514.29 L1798.92 1518.22 L1784.84 1518.22 L1784.84 1526.7 Q1785.86 1526.35 1786.88 1526.19 Q1787.9 1526 1788.92 1526 Q1794.7 1526 1798.08 1529.17 Q1801.46 1532.34 1801.46 1537.76 Q1801.46 1543.34 1797.99 1546.44 Q1794.52 1549.52 1788.2 1549.52 Q1786.02 1549.52 1783.75 1549.15 Q1781.51 1548.78 1779.1 1548.04 L1779.1 1543.34 Q1781.18 1544.47 1783.41 1545.03 Q1785.63 1545.58 1788.11 1545.58 Q1792.11 1545.58 1794.45 1543.48 Q1796.79 1541.37 1796.79 1537.76 Q1796.79 1534.15 1794.45 1532.04 Q1792.11 1529.94 1788.11 1529.94 Q1786.23 1529.94 1784.36 1530.35 Q1782.5 1530.77 1780.56 1531.65 L1780.56 1514.29 Z" fill="#000000" fill-rule="nonzero" fill-opacity="1" /><path clip-path="url(#clip900)" d="M2251.05 1544.91 L2258.69 1544.91 L2258.69 1518.55 L2250.38 1520.21 L2250.38 1515.95 L2258.64 1514.29 L2263.32 1514.29 L2263.32 1544.91 L2270.95 1544.91 L2270.95 1548.85 L2251.05 1548.85 L2251.05 1544.91 Z" fill="#000000" fill-rule="nonzero" fill-opacity="1" /><path clip-path="url(#clip900)" d="M2290.4 1517.37 Q2286.79 1517.37 2284.96 1520.93 Q2283.15 1524.47 2283.15 1531.6 Q2283.15 1538.71 2284.96 1542.27 Q2286.79 1545.82 2290.4 1545.82 Q2294.03 1545.82 2295.84 1542.27 Q2297.67 1538.71 2297.67 1531.6 Q2297.67 1524.47 2295.84 1520.93 Q2294.03 1517.37 2290.4 1517.37 M2290.4 1513.66 Q2296.21 1513.66 2299.26 1518.27 Q2302.34 1522.85 2302.34 1531.6 Q2302.34 1540.33 2299.26 1544.94 Q2296.21 1549.52 2290.4 1549.52 Q2284.59 1549.52 2281.51 1544.94 Q2278.45 1540.33 2278.45 1531.6 Q2278.45 1522.85 2281.51 1518.27 Q2284.59 1513.66 2290.4 1513.66 Z" fill="#000000" fill-rule="nonzero" fill-opacity="1" /><path clip-path="url(#clip900)" d="M2320.56 1517.37 Q2316.95 1517.37 2315.12 1520.93 Q2313.32 1524.47 2313.32 1531.6 Q2313.32 1538.71 2315.12 1542.27 Q2316.95 1545.82 2320.56 1545.82 Q2324.19 1545.82 2326 1542.27 Q2327.83 1538.71 2327.83 1531.6 Q2327.83 1524.47 2326 1520.93 Q2324.19 1517.37 2320.56 1517.37 M2320.56 1513.66 Q2326.37 1513.66 2329.43 1518.27 Q2332.5 1522.85 2332.5 1531.6 Q2332.5 1540.33 2329.43 1544.94 Q2326.37 1549.52 2320.56 1549.52 Q2314.75 1549.52 2311.67 1544.94 Q2308.62 1540.33 2308.62 1531.6 Q2308.62 1522.85 2311.67 1518.27 Q2314.75 1513.66 2320.56 1513.66 Z" fill="#000000" fill-rule="nonzero" fill-opacity="1" /><polyline clip-path="url(#clip902)" style="stroke:#000000; stroke-linecap:round; stroke-linejoin:round; stroke-width:2; stroke-opacity:0.1; fill:none" points="186.274,1445.72 2352.76,1445.72 "/>
<polyline clip-path="url(#clip902)" style="stroke:#000000; stroke-linecap:round; stroke-linejoin:round; stroke-width:2; stroke-opacity:0.1; fill:none" points="186.274,1106.28 2352.76,1106.28 "/>
<polyline clip-path="url(#clip902)" style="stroke:#000000; stroke-linecap:round; stroke-linejoin:round; stroke-width:2; stroke-opacity:0.1; fill:none" points="186.274,766.846 2352.76,766.846 "/>
<polyline clip-path="url(#clip902)" style="stroke:#000000; stroke-linecap:round; stroke-linejoin:round; stroke-width:2; stroke-opacity:0.1; fill:none" points="186.274,427.411 2352.76,427.411 "/>
<polyline clip-path="url(#clip902)" style="stroke:#000000; stroke-linecap:round; stroke-linejoin:round; stroke-width:2; stroke-opacity:0.1; fill:none" points="186.274,87.9763 2352.76,87.9763 "/>
<polyline clip-path="url(#clip900)" style="stroke:#000000; stroke-linecap:round; stroke-linejoin:round; stroke-width:4; stroke-opacity:1; fill:none" points="186.274,1486.45 186.274,47.2441 "/>
<polyline clip-path="url(#clip900)" style="stroke:#000000; stroke-linecap:round; stroke-linejoin:round; stroke-width:4; stroke-opacity:1; fill:none" points="186.274,1445.72 205.172,1445.72 "/>
<polyline clip-path="url(#clip900)" style="stroke:#000000; stroke-linecap:round; stroke-linejoin:round; stroke-width:4; stroke-opacity:1; fill:none" points="186.274,1106.28 205.172,1106.28 "/>
<polyline clip-path="url(#clip900)" style="stroke:#000000; stroke-linecap:round; stroke-linejoin:round; stroke-width:4; stroke-opacity:1; fill:none" points="186.274,766.846 205.172,766.846 "/>
<polyline clip-path="url(#clip900)" style="stroke:#000000; stroke-linecap:round; stroke-linejoin:round; stroke-width:4; stroke-opacity:1; fill:none" points="186.274,427.411 205.172,427.411 "/>
<polyline clip-path="url(#clip900)" style="stroke:#000000; stroke-linecap:round; stroke-linejoin:round; stroke-width:4; stroke-opacity:1; fill:none" points="186.274,87.9763 205.172,87.9763 "/>
<path clip-path="url(#clip900)" d="M62.9365 1431.51 Q59.3254 1431.51 57.4967 1435.08 Q55.6912 1438.62 55.6912 1445.75 Q55.6912 1452.86 57.4967 1456.42 Q59.3254 1459.96 62.9365 1459.96 Q66.5707 1459.96 68.3763 1456.42 Q70.205 1452.86 70.205 1445.75 Q70.205 1438.62 68.3763 1435.08 Q66.5707 1431.51 62.9365 1431.51 M62.9365 1427.81 Q68.7467 1427.81 71.8022 1432.42 Q74.8809 1437 74.8809 1445.75 Q74.8809 1454.48 71.8022 1459.08 Q68.7467 1463.67 62.9365 1463.67 Q57.1264 1463.67 54.0477 1459.08 Q50.9921 1454.48 50.9921 1445.75 Q50.9921 1437 54.0477 1432.42 Q57.1264 1427.81 62.9365 1427.81 Z" fill="#000000" fill-rule="nonzero" fill-opacity="1" /><path clip-path="url(#clip900)" d="M83.0984 1457.12 L87.9827 1457.12 L87.9827 1463 L83.0984 1463 L83.0984 1457.12 Z" fill="#000000" fill-rule="nonzero" fill-opacity="1" /><path clip-path="url(#clip900)" d="M108.168 1431.51 Q104.557 1431.51 102.728 1435.08 Q100.922 1438.62 100.922 1445.75 Q100.922 1452.86 102.728 1456.42 Q104.557 1459.96 108.168 1459.96 Q111.802 1459.96 113.608 1456.42 Q115.436 1452.86 115.436 1445.75 Q115.436 1438.62 113.608 1435.08 Q111.802 1431.51 108.168 1431.51 M108.168 1427.81 Q113.978 1427.81 117.033 1432.42 Q120.112 1437 120.112 1445.75 Q120.112 1454.48 117.033 1459.08 Q113.978 1463.67 108.168 1463.67 Q102.358 1463.67 99.2789 1459.08 Q96.2234 1454.48 96.2234 1445.75 Q96.2234 1437 99.2789 1432.42 Q102.358 1427.81 108.168 1427.81 Z" fill="#000000" fill-rule="nonzero" fill-opacity="1" /><path clip-path="url(#clip900)" d="M138.33 1431.51 Q134.719 1431.51 132.89 1435.08 Q131.084 1438.62 131.084 1445.75 Q131.084 1452.86 132.89 1456.42 Q134.719 1459.96 138.33 1459.96 Q141.964 1459.96 143.769 1456.42 Q145.598 1452.86 145.598 1445.75 Q145.598 1438.62 143.769 1435.08 Q141.964 1431.51 138.33 1431.51 M138.33 1427.81 Q144.14 1427.81 147.195 1432.42 Q150.274 1437 150.274 1445.75 Q150.274 1454.48 147.195 1459.08 Q144.14 1463.67 138.33 1463.67 Q132.519 1463.67 129.441 1459.08 Q126.385 1454.48 126.385 1445.75 Q126.385 1437 129.441 1432.42 Q132.519 1427.81 138.33 1427.81 Z" fill="#000000" fill-rule="nonzero" fill-opacity="1" /><path clip-path="url(#clip900)" d="M63.9319 1092.08 Q60.3208 1092.08 58.4921 1095.64 Q56.6865 1099.19 56.6865 1106.32 Q56.6865 1113.42 58.4921 1116.99 Q60.3208 1120.53 63.9319 1120.53 Q67.5661 1120.53 69.3717 1116.99 Q71.2004 1113.42 71.2004 1106.32 Q71.2004 1099.19 69.3717 1095.64 Q67.5661 1092.08 63.9319 1092.08 M63.9319 1088.38 Q69.742 1088.38 72.7976 1092.98 Q75.8763 1097.57 75.8763 1106.32 Q75.8763 1115.04 72.7976 1119.65 Q69.742 1124.23 63.9319 1124.23 Q58.1217 1124.23 55.043 1119.65 Q51.9875 1115.04 51.9875 1106.32 Q51.9875 1097.57 55.043 1092.98 Q58.1217 1088.38 63.9319 1088.38 Z" fill="#000000" fill-rule="nonzero" fill-opacity="1" /><path clip-path="url(#clip900)" d="M84.0938 1117.68 L88.978 1117.68 L88.978 1123.56 L84.0938 1123.56 L84.0938 1117.68 Z" fill="#000000" fill-rule="nonzero" fill-opacity="1" /><path clip-path="url(#clip900)" d="M103.191 1119.63 L119.51 1119.63 L119.51 1123.56 L97.566 1123.56 L97.566 1119.63 Q100.228 1116.87 104.811 1112.24 Q109.418 1107.59 110.598 1106.25 Q112.844 1103.72 113.723 1101.99 Q114.626 1100.23 114.626 1098.54 Q114.626 1095.78 112.682 1094.05 Q110.76 1092.31 107.658 1092.31 Q105.459 1092.31 103.006 1093.07 Q100.575 1093.84 97.7974 1095.39 L97.7974 1090.67 Q100.621 1089.53 103.075 1088.95 Q105.529 1088.38 107.566 1088.38 Q112.936 1088.38 116.131 1091.06 Q119.325 1093.75 119.325 1098.24 Q119.325 1100.37 118.515 1102.29 Q117.728 1104.19 115.621 1106.78 Q115.043 1107.45 111.941 1110.67 Q108.839 1113.86 103.191 1119.63 Z" fill="#000000" fill-rule="nonzero" fill-opacity="1" /><path clip-path="url(#clip900)" d="M129.371 1089 L147.728 1089 L147.728 1092.94 L133.654 1092.94 L133.654 1101.41 Q134.672 1101.06 135.691 1100.9 Q136.709 1100.71 137.728 1100.71 Q143.515 1100.71 146.894 1103.89 Q150.274 1107.06 150.274 1112.47 Q150.274 1118.05 146.802 1121.15 Q143.33 1124.23 137.01 1124.23 Q134.834 1124.23 132.566 1123.86 Q130.32 1123.49 127.913 1122.75 L127.913 1118.05 Q129.996 1119.19 132.219 1119.74 Q134.441 1120.3 136.918 1120.3 Q140.922 1120.3 143.26 1118.19 Q145.598 1116.08 145.598 1112.47 Q145.598 1108.86 143.26 1106.76 Q140.922 1104.65 136.918 1104.65 Q135.043 1104.65 133.168 1105.07 Q131.316 1105.48 129.371 1106.36 L129.371 1089 Z" fill="#000000" fill-rule="nonzero" fill-opacity="1" /><path clip-path="url(#clip900)" d="M62.9365 752.645 Q59.3254 752.645 57.4967 756.209 Q55.6912 759.751 55.6912 766.881 Q55.6912 773.987 57.4967 777.552 Q59.3254 781.094 62.9365 781.094 Q66.5707 781.094 68.3763 777.552 Q70.205 773.987 70.205 766.881 Q70.205 759.751 68.3763 756.209 Q66.5707 752.645 62.9365 752.645 M62.9365 748.941 Q68.7467 748.941 71.8022 753.547 Q74.8809 758.131 74.8809 766.881 Q74.8809 775.608 71.8022 780.214 Q68.7467 784.797 62.9365 784.797 Q57.1264 784.797 54.0477 780.214 Q50.9921 775.608 50.9921 766.881 Q50.9921 758.131 54.0477 753.547 Q57.1264 748.941 62.9365 748.941 Z" fill="#000000" fill-rule="nonzero" fill-opacity="1" /><path clip-path="url(#clip900)" d="M83.0984 778.246 L87.9827 778.246 L87.9827 784.126 L83.0984 784.126 L83.0984 778.246 Z" fill="#000000" fill-rule="nonzero" fill-opacity="1" /><path clip-path="url(#clip900)" d="M98.2141 749.566 L116.57 749.566 L116.57 753.501 L102.496 753.501 L102.496 761.973 Q103.515 761.626 104.534 761.464 Q105.552 761.279 106.571 761.279 Q112.358 761.279 115.737 764.45 Q119.117 767.621 119.117 773.038 Q119.117 778.617 115.645 781.719 Q112.172 784.797 105.853 784.797 Q103.677 784.797 101.409 784.427 Q99.1632 784.057 96.7558 783.316 L96.7558 778.617 Q98.8391 779.751 101.061 780.307 Q103.284 780.862 105.76 780.862 Q109.765 780.862 112.103 778.756 Q114.441 776.649 114.441 773.038 Q114.441 769.427 112.103 767.321 Q109.765 765.214 105.76 765.214 Q103.885 765.214 102.01 765.631 Q100.159 766.047 98.2141 766.927 L98.2141 749.566 Z" fill="#000000" fill-rule="nonzero" fill-opacity="1" /><path clip-path="url(#clip900)" d="M138.33 752.645 Q134.719 752.645 132.89 756.209 Q131.084 759.751 131.084 766.881 Q131.084 773.987 132.89 777.552 Q134.719 781.094 138.33 781.094 Q141.964 781.094 143.769 777.552 Q145.598 773.987 145.598 766.881 Q145.598 759.751 143.769 756.209 Q141.964 752.645 138.33 752.645 M138.33 748.941 Q144.14 748.941 147.195 753.547 Q150.274 758.131 150.274 766.881 Q150.274 775.608 147.195 780.214 Q144.14 784.797 138.33 784.797 Q132.519 784.797 129.441 780.214 Q126.385 775.608 126.385 766.881 Q126.385 758.131 129.441 753.547 Q132.519 748.941 138.33 748.941 Z" fill="#000000" fill-rule="nonzero" fill-opacity="1" /><path clip-path="url(#clip900)" d="M63.9319 413.21 Q60.3208 413.21 58.4921 416.775 Q56.6865 420.316 56.6865 427.446 Q56.6865 434.552 58.4921 438.117 Q60.3208 441.659 63.9319 441.659 Q67.5661 441.659 69.3717 438.117 Q71.2004 434.552 71.2004 427.446 Q71.2004 420.316 69.3717 416.775 Q67.5661 413.21 63.9319 413.21 M63.9319 409.506 Q69.742 409.506 72.7976 414.113 Q75.8763 418.696 75.8763 427.446 Q75.8763 436.173 72.7976 440.779 Q69.742 445.362 63.9319 445.362 Q58.1217 445.362 55.043 440.779 Q51.9875 436.173 51.9875 427.446 Q51.9875 418.696 55.043 414.113 Q58.1217 409.506 63.9319 409.506 Z" fill="#000000" fill-rule="nonzero" fill-opacity="1" /><path clip-path="url(#clip900)" d="M84.0938 438.812 L88.978 438.812 L88.978 444.691 L84.0938 444.691 L84.0938 438.812 Z" fill="#000000" fill-rule="nonzero" fill-opacity="1" /><path clip-path="url(#clip900)" d="M97.9826 410.131 L120.205 410.131 L120.205 412.122 L107.658 444.691 L102.774 444.691 L114.58 414.066 L97.9826 414.066 L97.9826 410.131 Z" fill="#000000" fill-rule="nonzero" fill-opacity="1" /><path clip-path="url(#clip900)" d="M129.371 410.131 L147.728 410.131 L147.728 414.066 L133.654 414.066 L133.654 422.538 Q134.672 422.191 135.691 422.029 Q136.709 421.844 137.728 421.844 Q143.515 421.844 146.894 425.015 Q150.274 428.187 150.274 433.603 Q150.274 439.182 146.802 442.284 Q143.33 445.362 137.01 445.362 Q134.834 445.362 132.566 444.992 Q130.32 444.622 127.913 443.881 L127.913 439.182 Q129.996 440.316 132.219 440.872 Q134.441 441.427 136.918 441.427 Q140.922 441.427 143.26 439.321 Q145.598 437.214 145.598 433.603 Q145.598 429.992 143.26 427.886 Q140.922 425.779 136.918 425.779 Q135.043 425.779 133.168 426.196 Q131.316 426.613 129.371 427.492 L129.371 410.131 Z" fill="#000000" fill-rule="nonzero" fill-opacity="1" /><path clip-path="url(#clip900)" d="M53.7467 101.321 L61.3856 101.321 L61.3856 74.9555 L53.0754 76.6222 L53.0754 72.3629 L61.3393 70.6963 L66.0152 70.6963 L66.0152 101.321 L73.654 101.321 L73.654 105.256 L53.7467 105.256 L53.7467 101.321 Z" fill="#000000" fill-rule="nonzero" fill-opacity="1" /><path clip-path="url(#clip900)" d="M83.0984 99.3767 L87.9827 99.3767 L87.9827 105.256 L83.0984 105.256 L83.0984 99.3767 Z" fill="#000000" fill-rule="nonzero" fill-opacity="1" /><path clip-path="url(#clip900)" d="M108.168 73.775 Q104.557 73.775 102.728 77.3398 Q100.922 80.8814 100.922 88.011 Q100.922 95.1174 102.728 98.6822 Q104.557 102.224 108.168 102.224 Q111.802 102.224 113.608 98.6822 Q115.436 95.1174 115.436 88.011 Q115.436 80.8814 113.608 77.3398 Q111.802 73.775 108.168 73.775 M108.168 70.0713 Q113.978 70.0713 117.033 74.6777 Q120.112 79.261 120.112 88.011 Q120.112 96.7378 117.033 101.344 Q113.978 105.928 108.168 105.928 Q102.358 105.928 99.2789 101.344 Q96.2234 96.7378 96.2234 88.011 Q96.2234 79.261 99.2789 74.6777 Q102.358 70.0713 108.168 70.0713 Z" fill="#000000" fill-rule="nonzero" fill-opacity="1" /><path clip-path="url(#clip900)" d="M138.33 73.775 Q134.719 73.775 132.89 77.3398 Q131.084 80.8814 131.084 88.011 Q131.084 95.1174 132.89 98.6822 Q134.719 102.224 138.33 102.224 Q141.964 102.224 143.769 98.6822 Q145.598 95.1174 145.598 88.011 Q145.598 80.8814 143.769 77.3398 Q141.964 73.775 138.33 73.775 M138.33 70.0713 Q144.14 70.0713 147.195 74.6777 Q150.274 79.261 150.274 88.011 Q150.274 96.7378 147.195 101.344 Q144.14 105.928 138.33 105.928 Q132.519 105.928 129.441 101.344 Q126.385 96.7378 126.385 88.011 Q126.385 79.261 129.441 74.6777 Q132.519 70.0713 138.33 70.0713 Z" fill="#000000" fill-rule="nonzero" fill-opacity="1" /><path clip-path="url(#clip902)" d="M247.59 1427.78 L268.234 1425.71 L288.879 1425.71 L309.524 1425.7 L330.169 1425.7 L350.814 1425.7 L371.459 1425.69 L392.104 1425.69 L412.749 1425.69 L433.394 1425.69 L454.039 1425.68 L474.684 1425.68 L495.329 1425.68 L515.974 1425.67 L536.619 1425.67 L557.264 1425.67 L577.909 1425.66 L598.554 1425.66 L619.199 1425.66 L639.844 1425.65 L660.489 1425.65 L681.134 1425.65 L701.779 1425.64 L722.424 1425.64 L743.069 1425.64 L763.713 1425.63 L784.358 1425.63 L805.003 1425.63 L825.648 1425.62 L846.293 1425.62 L866.938 1425.62 L887.583 1425.62 L908.228 1425.61 L928.873 1425.61 L949.518 1425.61 L970.163 1425.6 L990.808 1425.6 L1011.45 1425.6 L1032.1 1425.59 L1052.74 1425.59 L1073.39 1425.59 L1094.03 1425.58 L1114.68 1425.58 L1135.32 1425.57 L1155.97 1425.57 L1176.61 1425.57 L1197.26 1425.57 L1217.9 1425.56 L1238.55 1425.56 L1259.19 1425.56 L1279.84 1425.55 L1300.48 1425.55 L1321.13 1425.55 L1341.77 1425.54 L1362.42 1425.54 L1383.06 1425.54 L1403.71 1425.53 L1424.35 1425.53 L1445 1425.53 L1465.64 1425.52 L1486.29 1425.52 L1506.93 1425.52 L1527.58 1425.52 L1548.22 1425.51 L1568.87 1425.51 L1589.51 1425.51 L1610.16 1425.5 L1630.8 1425.5 L1651.45 1425.5 L1672.09 1425.5 L1692.74 1425.49 L1713.38 1425.49 L1734.03 1425.48 L1754.67 1425.48 L1775.32 1425.48 L1795.96 1425.47 L1816.61 1425.47 L1837.25 1425.47 L1857.9 1425.46 L1878.54 1425.46 L1899.19 1425.46 L1919.83 1425.46 L1940.48 1425.45 L1961.12 1425.45 L1981.77 1425.45 L2002.41 1425.44 L2023.06 1425.44 L2043.7 1425.44 L2064.35 1425.43 L2084.99 1425.43 L2105.64 1425.43 L2126.28 1425.42 L2146.93 1425.42 L2167.57 1425.41 L2188.22 1425.41 L2208.86 1425.41 L2229.51 1425.4 L2250.15 1425.4 L2270.8 1425.4 L2291.44 1425.39 L2291.44 1445.72 L2270.8 1445.72 L2250.15 1445.72 L2229.51 1445.72 L2208.86 1445.72 L2188.22 1445.72 L2167.57 1445.72 L2146.93 1445.72 L2126.28 1445.72 L2105.64 1445.72 L2084.99 1445.72 L2064.35 1445.72 L2043.7 1445.72 L2023.06 1445.72 L2002.41 1445.72 L1981.77 1445.72 L1961.12 1445.72 L1940.48 1445.72 L1919.83 1445.72 L1899.19 1445.72 L1878.54 1445.72 L1857.9 1445.72 L1837.25 1445.72 L1816.61 1445.72 L1795.96 1445.72 L1775.32 1445.72 L1754.67 1445.72 L1734.03 1445.72 L1713.38 1445.72 L1692.74 1445.72 L1672.09 1445.72 L1651.45 1445.72 L1630.8 1445.72 L1610.16 1445.72 L1589.51 1445.72 L1568.87 1445.72 L1548.22 1445.72 L1527.58 1445.72 L1506.93 1445.72 L1486.29 1445.72 L1465.64 1445.72 L1445 1445.72 L1424.35 1445.72 L1403.71 1445.72 L1383.06 1445.72 L1362.42 1445.72 L1341.77 1445.72 L1321.13 1445.72 L1300.48 1445.72 L1279.84 1445.72 L1259.19 1445.72 L1238.55 1445.72 L1217.9 1445.72 L1197.26 1445.72 L1176.61 1445.72 L1155.97 1445.72 L1135.32 1445.72 L1114.68 1445.72 L1094.03 1445.72 L1073.39 1445.72 L1052.74 1445.72 L1032.1 1445.72 L1011.45 1445.72 L990.808 1445.72 L970.163 1445.72 L949.518 1445.72 L928.873 1445.72 L908.228 1445.72 L887.583 1445.72 L866.938 1445.72 L846.293 1445.72 L825.648 1445.72 L805.003 1445.72 L784.358 1445.72 L763.713 1445.72 L743.069 1445.72 L722.424 1445.72 L701.779 1445.72 L681.134 1445.72 L660.489 1445.72 L639.844 1445.72 L619.199 1445.72 L598.554 1445.72 L577.909 1445.72 L557.264 1445.72 L536.619 1445.72 L515.974 1445.72 L495.329 1445.72 L474.684 1445.72 L454.039 1445.72 L433.394 1445.72 L412.749 1445.72 L392.104 1445.72 L371.459 1445.72 L350.814 1445.72 L330.169 1445.72 L309.524 1445.72 L288.879 1445.72 L268.234 1445.72 L247.59 1445.72  Z" fill="#032333" fill-rule="evenodd" fill-opacity="1"/>
<polyline clip-path="url(#clip902)" style="stroke:#032333; stroke-linecap:round; stroke-linejoin:round; stroke-width:4; stroke-opacity:1; fill:none" points="247.59,1427.78 268.234,1425.71 288.879,1425.71 309.524,1425.7 330.169,1425.7 350.814,1425.7 371.459,1425.69 392.104,1425.69 412.749,1425.69 433.394,1425.69 454.039,1425.68 474.684,1425.68 495.329,1425.68 515.974,1425.67 536.619,1425.67 557.264,1425.67 577.909,1425.66 598.554,1425.66 619.199,1425.66 639.844,1425.65 660.489,1425.65 681.134,1425.65 701.779,1425.64 722.424,1425.64 743.069,1425.64 763.713,1425.63 784.358,1425.63 805.003,1425.63 825.648,1425.62 846.293,1425.62 866.938,1425.62 887.583,1425.62 908.228,1425.61 928.873,1425.61 949.518,1425.61 970.163,1425.6 990.808,1425.6 1011.45,1425.6 1032.1,1425.59 1052.74,1425.59 1073.39,1425.59 1094.03,1425.58 1114.68,1425.58 1135.32,1425.57 1155.97,1425.57 1176.61,1425.57 1197.26,1425.57 1217.9,1425.56 1238.55,1425.56 1259.19,1425.56 1279.84,1425.55 1300.48,1425.55 1321.13,1425.55 1341.77,1425.54 1362.42,1425.54 1383.06,1425.54 1403.71,1425.53 1424.35,1425.53 1445,1425.53 1465.64,1425.52 1486.29,1425.52 1506.93,1425.52 1527.58,1425.52 1548.22,1425.51 1568.87,1425.51 1589.51,1425.51 1610.16,1425.5 1630.8,1425.5 1651.45,1425.5 1672.09,1425.5 1692.74,1425.49 1713.38,1425.49 1734.03,1425.48 1754.67,1425.48 1775.32,1425.48 1795.96,1425.47 1816.61,1425.47 1837.25,1425.47 1857.9,1425.46 1878.54,1425.46 1899.19,1425.46 1919.83,1425.46 1940.48,1425.45 1961.12,1425.45 1981.77,1425.45 2002.41,1425.44 2023.06,1425.44 2043.7,1425.44 2064.35,1425.43 2084.99,1425.43 2105.64,1425.43 2126.28,1425.42 2146.93,1425.42 2167.57,1425.41 2188.22,1425.41 2208.86,1425.41 2229.51,1425.4 2250.15,1425.4 2270.8,1425.4 2291.44,1425.39 "/>
<path clip-path="url(#clip902)" d="M247.59 1424.25 L268.234 1421.77 L288.879 1421.77 L309.524 1421.76 L330.169 1421.76 L350.814 1421.75 L371.459 1421.75 L392.104 1421.74 L412.749 1421.74 L433.394 1421.74 L454.039 1421.73 L474.684 1421.73 L495.329 1421.72 L515.974 1421.72 L536.619 1421.71 L557.264 1421.71 L577.909 1421.71 L598.554 1421.7 L619.199 1421.7 L639.844 1421.69 L660.489 1421.69 L681.134 1421.68 L701.779 1421.68 L722.424 1421.68 L743.069 1421.67 L763.713 1421.67 L784.358 1421.66 L805.003 1421.66 L825.648 1421.65 L846.293 1421.65 L866.938 1421.65 L887.583 1421.64 L908.228 1421.64 L928.873 1421.63 L949.518 1421.63 L970.163 1421.62 L990.808 1421.62 L1011.45 1421.61 L1032.1 1421.61 L1052.74 1421.61 L1073.39 1421.6 L1094.03 1421.6 L1114.68 1421.59 L1135.32 1421.59 L1155.97 1421.58 L1176.61 1421.58 L1197.26 1421.58 L1217.9 1421.57 L1238.55 1421.57 L1259.19 1421.56 L1279.84 1421.56 L1300.48 1421.56 L1321.13 1421.55 L1341.77 1421.55 L1362.42 1421.54 L1383.06 1421.54 L1403.71 1421.53 L1424.35 1421.53 L1445 1421.53 L1465.64 1421.52 L1486.29 1421.52 L1506.93 1421.51 L1527.58 1421.51 L1548.22 1421.5 L1568.87 1421.5 L1589.51 1421.5 L1610.16 1421.49 L1630.8 1421.49 L1651.45 1421.48 L1672.09 1421.48 L1692.74 1421.48 L1713.38 1421.47 L1734.03 1421.47 L1754.67 1421.46 L1775.32 1421.46 L1795.96 1421.45 L1816.61 1421.45 L1837.25 1421.45 L1857.9 1421.44 L1878.54 1421.44 L1899.19 1421.43 L1919.83 1421.43 L1940.48 1421.42 L1961.12 1421.42 L1981.77 1421.42 L2002.41 1421.41 L2023.06 1421.41 L2043.7 1421.4 L2064.35 1421.4 L2084.99 1421.39 L2105.64 1421.39 L2126.28 1421.38 L2146.93 1421.38 L2167.57 1421.37 L2188.22 1421.37 L2208.86 1421.36 L2229.51 1421.36 L2250.15 1421.36 L2270.8 1421.35 L2291.44 1421.34 L2291.44 1425.39 L2270.8 1425.4 L2250.15 1425.4 L2229.51 1425.4 L2208.86 1425.41 L2188.22 1425.41 L2167.57 1425.41 L2146.93 1425.42 L2126.28 1425.42 L2105.64 1425.43 L2084.99 1425.43 L2064.35 1425.43 L2043.7 1425.44 L2023.06 1425.44 L2002.41 1425.44 L1981.77 1425.45 L1961.12 1425.45 L1940.48 1425.45 L1919.83 1425.46 L1899.19 1425.46 L1878.54 1425.46 L1857.9 1425.46 L1837.25 1425.47 L1816.61 1425.47 L1795.96 1425.47 L1775.32 1425.48 L1754.67 1425.48 L1734.03 1425.48 L1713.38 1425.49 L1692.74 1425.49 L1672.09 1425.5 L1651.45 1425.5 L1630.8 1425.5 L1610.16 1425.5 L1589.51 1425.51 L1568.87 1425.51 L1548.22 1425.51 L1527.58 1425.52 L1506.93 1425.52 L1486.29 1425.52 L1465.64 1425.52 L1445 1425.53 L1424.35 1425.53 L1403.71 1425.53 L1383.06 1425.54 L1362.42 1425.54 L1341.77 1425.54 L1321.13 1425.55 L1300.48 1425.55 L1279.84 1425.55 L1259.19 1425.56 L1238.55 1425.56 L1217.9 1425.56 L1197.26 1425.57 L1176.61 1425.57 L1155.97 1425.57 L1135.32 1425.57 L1114.68 1425.58 L1094.03 1425.58 L1073.39 1425.59 L1052.74 1425.59 L1032.1 1425.59 L1011.45 1425.6 L990.808 1425.6 L970.163 1425.6 L949.518 1425.61 L928.873 1425.61 L908.228 1425.61 L887.583 1425.62 L866.938 1425.62 L846.293 1425.62 L825.648 1425.62 L805.003 1425.63 L784.358 1425.63 L763.713 1425.63 L743.069 1425.64 L722.424 1425.64 L701.779 1425.64 L681.134 1425.65 L660.489 1425.65 L639.844 1425.65 L619.199 1425.66 L598.554 1425.66 L577.909 1425.66 L557.264 1425.67 L536.619 1425.67 L515.974 1425.67 L495.329 1425.68 L474.684 1425.68 L454.039 1425.68 L433.394 1425.69 L412.749 1425.69 L392.104 1425.69 L371.459 1425.69 L350.814 1425.7 L330.169 1425.7 L309.524 1425.7 L288.879 1425.71 L268.234 1425.71 L247.59 1427.78  Z" fill="#e7fa5a" fill-rule="evenodd" fill-opacity="1"/>
<polyline clip-path="url(#clip902)" style="stroke:#e7fa5a; stroke-linecap:round; stroke-linejoin:round; stroke-width:4; stroke-opacity:1; fill:none" points="247.59,1424.25 268.234,1421.77 288.879,1421.77 309.524,1421.76 330.169,1421.76 350.814,1421.75 371.459,1421.75 392.104,1421.74 412.749,1421.74 433.394,1421.74 454.039,1421.73 474.684,1421.73 495.329,1421.72 515.974,1421.72 536.619,1421.71 557.264,1421.71 577.909,1421.71 598.554,1421.7 619.199,1421.7 639.844,1421.69 660.489,1421.69 681.134,1421.68 701.779,1421.68 722.424,1421.68 743.069,1421.67 763.713,1421.67 784.358,1421.66 805.003,1421.66 825.648,1421.65 846.293,1421.65 866.938,1421.65 887.583,1421.64 908.228,1421.64 928.873,1421.63 949.518,1421.63 970.163,1421.62 990.808,1421.62 1011.45,1421.61 1032.1,1421.61 1052.74,1421.61 1073.39,1421.6 1094.03,1421.6 1114.68,1421.59 1135.32,1421.59 1155.97,1421.58 1176.61,1421.58 1197.26,1421.58 1217.9,1421.57 1238.55,1421.57 1259.19,1421.56 1279.84,1421.56 1300.48,1421.56 1321.13,1421.55 1341.77,1421.55 1362.42,1421.54 1383.06,1421.54 1403.71,1421.53 1424.35,1421.53 1445,1421.53 1465.64,1421.52 1486.29,1421.52 1506.93,1421.51 1527.58,1421.51 1548.22,1421.5 1568.87,1421.5 1589.51,1421.5 1610.16,1421.49 1630.8,1421.49 1651.45,1421.48 1672.09,1421.48 1692.74,1421.48 1713.38,1421.47 1734.03,1421.47 1754.67,1421.46 1775.32,1421.46 1795.96,1421.45 1816.61,1421.45 1837.25,1421.45 1857.9,1421.44 1878.54,1421.44 1899.19,1421.43 1919.83,1421.43 1940.48,1421.42 1961.12,1421.42 1981.77,1421.42 2002.41,1421.41 2023.06,1421.41 2043.7,1421.4 2064.35,1421.4 2084.99,1421.39 2105.64,1421.39 2126.28,1421.38 2146.93,1421.38 2167.57,1421.37 2188.22,1421.37 2208.86,1421.36 2229.51,1421.36 2250.15,1421.36 2270.8,1421.35 2291.44,1421.34 "/>
<path clip-path="url(#clip902)" d="M247.59 1242.15 L268.234 1241.72 L288.879 1241.71 L309.524 1241.69 L330.169 1241.68 L350.814 1241.66 L371.459 1241.64 L392.104 1241.63 L412.749 1241.61 L433.394 1241.6 L454.039 1241.59 L474.684 1241.57 L495.329 1241.56 L515.974 1241.55 L536.619 1241.52 L557.264 1241.51 L577.909 1241.49 L598.554 1241.48 L619.199 1241.46 L639.844 1241.45 L660.489 1241.43 L681.134 1241.42 L701.779 1241.4 L722.424 1241.39 L743.069 1241.37 L763.713 1241.35 L784.358 1241.33 L805.003 1241.33 L825.648 1241.31 L846.293 1241.29 L866.938 1241.27 L887.583 1241.26 L908.228 1241.24 L928.873 1241.22 L949.518 1241.21 L970.163 1241.2 L990.808 1241.18 L1011.45 1241.16 L1032.1 1241.14 L1052.74 1241.13 L1073.39 1241.11 L1094.03 1241.09 L1114.68 1241.07 L1135.32 1241.05 L1155.97 1241.04 L1176.61 1241.03 L1197.26 1241.02 L1217.9 1241 L1238.55 1240.99 L1259.19 1240.98 L1279.84 1240.96 L1300.48 1240.94 L1321.13 1240.92 L1341.77 1240.91 L1362.42 1240.9 L1383.06 1240.88 L1403.71 1240.86 L1424.35 1240.85 L1445 1240.83 L1465.64 1240.81 L1486.29 1240.8 L1506.93 1240.78 L1527.58 1240.77 L1548.22 1240.75 L1568.87 1240.74 L1589.51 1240.72 L1610.16 1240.71 L1630.8 1240.69 L1651.45 1240.68 L1672.09 1240.67 L1692.74 1240.65 L1713.38 1240.63 L1734.03 1240.62 L1754.67 1240.61 L1775.32 1240.59 L1795.96 1240.57 L1816.61 1240.55 L1837.25 1240.54 L1857.9 1240.52 L1878.54 1240.51 L1899.19 1240.49 L1919.83 1240.48 L1940.48 1240.46 L1961.12 1240.44 L1981.77 1240.42 L2002.41 1240.41 L2023.06 1240.38 L2043.7 1240.37 L2064.35 1240.35 L2084.99 1240.33 L2105.64 1240.32 L2126.28 1240.3 L2146.93 1240.28 L2167.57 1240.27 L2188.22 1240.26 L2208.86 1240.24 L2229.51 1240.22 L2250.15 1240.21 L2270.8 1240.18 L2291.44 1240.17 L2291.44 1421.34 L2270.8 1421.35 L2250.15 1421.36 L2229.51 1421.36 L2208.86 1421.36 L2188.22 1421.37 L2167.57 1421.37 L2146.93 1421.38 L2126.28 1421.38 L2105.64 1421.39 L2084.99 1421.39 L2064.35 1421.4 L2043.7 1421.4 L2023.06 1421.41 L2002.41 1421.41 L1981.77 1421.42 L1961.12 1421.42 L1940.48 1421.42 L1919.83 1421.43 L1899.19 1421.43 L1878.54 1421.44 L1857.9 1421.44 L1837.25 1421.45 L1816.61 1421.45 L1795.96 1421.45 L1775.32 1421.46 L1754.67 1421.46 L1734.03 1421.47 L1713.38 1421.47 L1692.74 1421.48 L1672.09 1421.48 L1651.45 1421.48 L1630.8 1421.49 L1610.16 1421.49 L1589.51 1421.5 L1568.87 1421.5 L1548.22 1421.5 L1527.58 1421.51 L1506.93 1421.51 L1486.29 1421.52 L1465.64 1421.52 L1445 1421.53 L1424.35 1421.53 L1403.71 1421.53 L1383.06 1421.54 L1362.42 1421.54 L1341.77 1421.55 L1321.13 1421.55 L1300.48 1421.56 L1279.84 1421.56 L1259.19 1421.56 L1238.55 1421.57 L1217.9 1421.57 L1197.26 1421.58 L1176.61 1421.58 L1155.97 1421.58 L1135.32 1421.59 L1114.68 1421.59 L1094.03 1421.6 L1073.39 1421.6 L1052.74 1421.61 L1032.1 1421.61 L1011.45 1421.61 L990.808 1421.62 L970.163 1421.62 L949.518 1421.63 L928.873 1421.63 L908.228 1421.64 L887.583 1421.64 L866.938 1421.65 L846.293 1421.65 L825.648 1421.65 L805.003 1421.66 L784.358 1421.66 L763.713 1421.67 L743.069 1421.67 L722.424 1421.68 L701.779 1421.68 L681.134 1421.68 L660.489 1421.69 L639.844 1421.69 L619.199 1421.7 L598.554 1421.7 L577.909 1421.71 L557.264 1421.71 L536.619 1421.71 L515.974 1421.72 L495.329 1421.72 L474.684 1421.73 L454.039 1421.73 L433.394 1421.74 L412.749 1421.74 L392.104 1421.74 L371.459 1421.75 L350.814 1421.75 L330.169 1421.76 L309.524 1421.76 L288.879 1421.77 L268.234 1421.77 L247.59 1424.25  Z" fill="#af5f81" fill-rule="evenodd" fill-opacity="1"/>
<polyline clip-path="url(#clip902)" style="stroke:#af5f81; stroke-linecap:round; stroke-linejoin:round; stroke-width:4; stroke-opacity:1; fill:none" points="247.59,1242.15 268.234,1241.72 288.879,1241.71 309.524,1241.69 330.169,1241.68 350.814,1241.66 371.459,1241.64 392.104,1241.63 412.749,1241.61 433.394,1241.6 454.039,1241.59 474.684,1241.57 495.329,1241.56 515.974,1241.55 536.619,1241.52 557.264,1241.51 577.909,1241.49 598.554,1241.48 619.199,1241.46 639.844,1241.45 660.489,1241.43 681.134,1241.42 701.779,1241.4 722.424,1241.39 743.069,1241.37 763.713,1241.35 784.358,1241.33 805.003,1241.33 825.648,1241.31 846.293,1241.29 866.938,1241.27 887.583,1241.26 908.228,1241.24 928.873,1241.22 949.518,1241.21 970.163,1241.2 990.808,1241.18 1011.45,1241.16 1032.1,1241.14 1052.74,1241.13 1073.39,1241.11 1094.03,1241.09 1114.68,1241.07 1135.32,1241.05 1155.97,1241.04 1176.61,1241.03 1197.26,1241.02 1217.9,1241 1238.55,1240.99 1259.19,1240.98 1279.84,1240.96 1300.48,1240.94 1321.13,1240.92 1341.77,1240.91 1362.42,1240.9 1383.06,1240.88 1403.71,1240.86 1424.35,1240.85 1445,1240.83 1465.64,1240.81 1486.29,1240.8 1506.93,1240.78 1527.58,1240.77 1548.22,1240.75 1568.87,1240.74 1589.51,1240.72 1610.16,1240.71 1630.8,1240.69 1651.45,1240.68 1672.09,1240.67 1692.74,1240.65 1713.38,1240.63 1734.03,1240.62 1754.67,1240.61 1775.32,1240.59 1795.96,1240.57 1816.61,1240.55 1837.25,1240.54 1857.9,1240.52 1878.54,1240.51 1899.19,1240.49 1919.83,1240.48 1940.48,1240.46 1961.12,1240.44 1981.77,1240.42 2002.41,1240.41 2023.06,1240.38 2043.7,1240.37 2064.35,1240.35 2084.99,1240.33 2105.64,1240.32 2126.28,1240.3 2146.93,1240.28 2167.57,1240.27 2188.22,1240.26 2208.86,1240.24 2229.51,1240.22 2250.15,1240.21 2270.8,1240.18 2291.44,1240.17 "/>
<path clip-path="url(#clip902)" d="M247.59 1206.27 L268.234 1206.25 L288.879 1206.23 L309.524 1206.21 L330.169 1206.19 L350.814 1206.17 L371.459 1206.14 L392.104 1206.12 L412.749 1206.1 L433.394 1206.08 L454.039 1206.06 L474.684 1206.04 L495.329 1206.02 L515.974 1206.01 L536.619 1205.98 L557.264 1205.95 L577.909 1205.93 L598.554 1205.92 L619.199 1205.89 L639.844 1205.87 L660.489 1205.85 L681.134 1205.82 L701.779 1205.8 L722.424 1205.78 L743.069 1205.76 L763.713 1205.73 L784.358 1205.71 L805.003 1205.69 L825.648 1205.67 L846.293 1205.65 L866.938 1205.62 L887.583 1205.59 L908.228 1205.57 L928.873 1205.55 L949.518 1205.53 L970.163 1205.51 L990.808 1205.49 L1011.45 1205.46 L1032.1 1205.44 L1052.74 1205.42 L1073.39 1205.39 L1094.03 1205.36 L1114.68 1205.34 L1135.32 1205.32 L1155.97 1205.3 L1176.61 1205.28 L1197.26 1205.26 L1217.9 1205.24 L1238.55 1205.23 L1259.19 1205.2 L1279.84 1205.18 L1300.48 1205.15 L1321.13 1205.13 L1341.77 1205.11 L1362.42 1205.09 L1383.06 1205.07 L1403.71 1205.05 L1424.35 1205.03 L1445 1205.01 L1465.64 1204.98 L1486.29 1204.96 L1506.93 1204.94 L1527.58 1204.91 L1548.22 1204.89 L1568.87 1204.88 L1589.51 1204.85 L1610.16 1204.83 L1630.8 1204.81 L1651.45 1204.79 L1672.09 1204.77 L1692.74 1204.75 L1713.38 1204.73 L1734.03 1204.71 L1754.67 1204.69 L1775.32 1204.66 L1795.96 1204.63 L1816.61 1204.61 L1837.25 1204.6 L1857.9 1204.57 L1878.54 1204.55 L1899.19 1204.53 L1919.83 1204.51 L1940.48 1204.49 L1961.12 1204.46 L1981.77 1204.43 L2002.41 1204.41 L2023.06 1204.38 L2043.7 1204.35 L2064.35 1204.33 L2084.99 1204.3 L2105.64 1204.28 L2126.28 1204.26 L2146.93 1204.23 L2167.57 1204.21 L2188.22 1204.19 L2208.86 1204.18 L2229.51 1204.15 L2250.15 1204.13 L2270.8 1204.1 L2291.44 1204.07 L2291.44 1240.17 L2270.8 1240.18 L2250.15 1240.21 L2229.51 1240.22 L2208.86 1240.24 L2188.22 1240.26 L2167.57 1240.27 L2146.93 1240.28 L2126.28 1240.3 L2105.64 1240.32 L2084.99 1240.33 L2064.35 1240.35 L2043.7 1240.37 L2023.06 1240.38 L2002.41 1240.41 L1981.77 1240.42 L1961.12 1240.44 L1940.48 1240.46 L1919.83 1240.48 L1899.19 1240.49 L1878.54 1240.51 L1857.9 1240.52 L1837.25 1240.54 L1816.61 1240.55 L1795.96 1240.57 L1775.32 1240.59 L1754.67 1240.61 L1734.03 1240.62 L1713.38 1240.63 L1692.74 1240.65 L1672.09 1240.67 L1651.45 1240.68 L1630.8 1240.69 L1610.16 1240.71 L1589.51 1240.72 L1568.87 1240.74 L1548.22 1240.75 L1527.58 1240.77 L1506.93 1240.78 L1486.29 1240.8 L1465.64 1240.81 L1445 1240.83 L1424.35 1240.85 L1403.71 1240.86 L1383.06 1240.88 L1362.42 1240.9 L1341.77 1240.91 L1321.13 1240.92 L1300.48 1240.94 L1279.84 1240.96 L1259.19 1240.98 L1238.55 1240.99 L1217.9 1241 L1197.26 1241.02 L1176.61 1241.03 L1155.97 1241.04 L1135.32 1241.05 L1114.68 1241.07 L1094.03 1241.09 L1073.39 1241.11 L1052.74 1241.13 L1032.1 1241.14 L1011.45 1241.16 L990.808 1241.18 L970.163 1241.2 L949.518 1241.21 L928.873 1241.22 L908.228 1241.24 L887.583 1241.26 L866.938 1241.27 L846.293 1241.29 L825.648 1241.31 L805.003 1241.33 L784.358 1241.33 L763.713 1241.35 L743.069 1241.37 L722.424 1241.39 L701.779 1241.4 L681.134 1241.42 L660.489 1241.43 L639.844 1241.45 L619.199 1241.46 L598.554 1241.48 L577.909 1241.49 L557.264 1241.51 L536.619 1241.52 L515.974 1241.55 L495.329 1241.56 L474.684 1241.57 L454.039 1241.59 L433.394 1241.6 L412.749 1241.61 L392.104 1241.63 L371.459 1241.64 L350.814 1241.66 L330.169 1241.68 L309.524 1241.69 L288.879 1241.71 L268.234 1241.72 L247.59 1242.15  Z" fill="#553b9c" fill-rule="evenodd" fill-opacity="1"/>
<polyline clip-path="url(#clip902)" style="stroke:#553b9c; stroke-linecap:round; stroke-linejoin:round; stroke-width:4; stroke-opacity:1; fill:none" points="247.59,1206.27 268.234,1206.25 288.879,1206.23 309.524,1206.21 330.169,1206.19 350.814,1206.17 371.459,1206.14 392.104,1206.12 412.749,1206.1 433.394,1206.08 454.039,1206.06 474.684,1206.04 495.329,1206.02 515.974,1206.01 536.619,1205.98 557.264,1205.95 577.909,1205.93 598.554,1205.92 619.199,1205.89 639.844,1205.87 660.489,1205.85 681.134,1205.82 701.779,1205.8 722.424,1205.78 743.069,1205.76 763.713,1205.73 784.358,1205.71 805.003,1205.69 825.648,1205.67 846.293,1205.65 866.938,1205.62 887.583,1205.59 908.228,1205.57 928.873,1205.55 949.518,1205.53 970.163,1205.51 990.808,1205.49 1011.45,1205.46 1032.1,1205.44 1052.74,1205.42 1073.39,1205.39 1094.03,1205.36 1114.68,1205.34 1135.32,1205.32 1155.97,1205.3 1176.61,1205.28 1197.26,1205.26 1217.9,1205.24 1238.55,1205.23 1259.19,1205.2 1279.84,1205.18 1300.48,1205.15 1321.13,1205.13 1341.77,1205.11 1362.42,1205.09 1383.06,1205.07 1403.71,1205.05 1424.35,1205.03 1445,1205.01 1465.64,1204.98 1486.29,1204.96 1506.93,1204.94 1527.58,1204.91 1548.22,1204.89 1568.87,1204.88 1589.51,1204.85 1610.16,1204.83 1630.8,1204.81 1651.45,1204.79 1672.09,1204.77 1692.74,1204.75 1713.38,1204.73 1734.03,1204.71 1754.67,1204.69 1775.32,1204.66 1795.96,1204.63 1816.61,1204.61 1837.25,1204.6 1857.9,1204.57 1878.54,1204.55 1899.19,1204.53 1919.83,1204.51 1940.48,1204.49 1961.12,1204.46 1981.77,1204.43 2002.41,1204.41 2023.06,1204.38 2043.7,1204.35 2064.35,1204.33 2084.99,1204.3 2105.64,1204.28 2126.28,1204.26 2146.93,1204.23 2167.57,1204.21 2188.22,1204.19 2208.86,1204.18 2229.51,1204.15 2250.15,1204.13 2270.8,1204.1 2291.44,1204.07 "/>
<path clip-path="url(#clip902)" d="M247.59 1122.52 L268.234 1112.83 L288.879 1112.8 L309.524 1112.78 L330.169 1112.76 L350.814 1112.73 L371.459 1112.7 L392.104 1112.67 L412.749 1112.65 L433.394 1112.62 L454.039 1112.6 L474.684 1112.57 L495.329 1112.55 L515.974 1112.52 L536.619 1112.49 L557.264 1112.46 L577.909 1112.44 L598.554 1112.42 L619.199 1112.38 L639.844 1112.36 L660.489 1112.33 L681.134 1112.3 L701.779 1112.27 L722.424 1112.25 L743.069 1112.22 L763.713 1112.19 L784.358 1112.17 L805.003 1112.15 L825.648 1112.12 L846.293 1112.1 L866.938 1112.07 L887.583 1112.04 L908.228 1112.01 L928.873 1111.99 L949.518 1111.96 L970.163 1111.93 L990.808 1111.91 L1011.45 1111.88 L1032.1 1111.85 L1052.74 1111.82 L1073.39 1111.79 L1094.03 1111.76 L1114.68 1111.73 L1135.32 1111.7 L1155.97 1111.68 L1176.61 1111.66 L1197.26 1111.64 L1217.9 1111.61 L1238.55 1111.59 L1259.19 1111.56 L1279.84 1111.54 L1300.48 1111.51 L1321.13 1111.48 L1341.77 1111.46 L1362.42 1111.43 L1383.06 1111.4 L1403.71 1111.38 L1424.35 1111.35 L1445 1111.33 L1465.64 1111.29 L1486.29 1111.27 L1506.93 1111.25 L1527.58 1111.22 L1548.22 1111.19 L1568.87 1111.18 L1589.51 1111.15 L1610.16 1111.12 L1630.8 1111.09 L1651.45 1111.07 L1672.09 1111.05 L1692.74 1111.02 L1713.38 1110.99 L1734.03 1110.97 L1754.67 1110.94 L1775.32 1110.91 L1795.96 1110.88 L1816.61 1110.85 L1837.25 1110.83 L1857.9 1110.8 L1878.54 1110.78 L1899.19 1110.75 L1919.83 1110.73 L1940.48 1110.7 L1961.12 1110.67 L1981.77 1110.64 L2002.41 1110.62 L2023.06 1110.59 L2043.7 1110.56 L2064.35 1110.52 L2084.99 1110.49 L2105.64 1110.47 L2126.28 1110.44 L2146.93 1110.41 L2167.57 1110.38 L2188.22 1110.35 L2208.86 1110.33 L2229.51 1110.3 L2250.15 1110.27 L2270.8 1110.24 L2291.44 1110.21 L2291.44 1204.07 L2270.8 1204.1 L2250.15 1204.13 L2229.51 1204.15 L2208.86 1204.18 L2188.22 1204.19 L2167.57 1204.21 L2146.93 1204.23 L2126.28 1204.26 L2105.64 1204.28 L2084.99 1204.3 L2064.35 1204.33 L2043.7 1204.35 L2023.06 1204.38 L2002.41 1204.41 L1981.77 1204.43 L1961.12 1204.46 L1940.48 1204.49 L1919.83 1204.51 L1899.19 1204.53 L1878.54 1204.55 L1857.9 1204.57 L1837.25 1204.6 L1816.61 1204.61 L1795.96 1204.63 L1775.32 1204.66 L1754.67 1204.69 L1734.03 1204.71 L1713.38 1204.73 L1692.74 1204.75 L1672.09 1204.77 L1651.45 1204.79 L1630.8 1204.81 L1610.16 1204.83 L1589.51 1204.85 L1568.87 1204.88 L1548.22 1204.89 L1527.58 1204.91 L1506.93 1204.94 L1486.29 1204.96 L1465.64 1204.98 L1445 1205.01 L1424.35 1205.03 L1403.71 1205.05 L1383.06 1205.07 L1362.42 1205.09 L1341.77 1205.11 L1321.13 1205.13 L1300.48 1205.15 L1279.84 1205.18 L1259.19 1205.2 L1238.55 1205.23 L1217.9 1205.24 L1197.26 1205.26 L1176.61 1205.28 L1155.97 1205.3 L1135.32 1205.32 L1114.68 1205.34 L1094.03 1205.36 L1073.39 1205.39 L1052.74 1205.42 L1032.1 1205.44 L1011.45 1205.46 L990.808 1205.49 L970.163 1205.51 L949.518 1205.53 L928.873 1205.55 L908.228 1205.57 L887.583 1205.59 L866.938 1205.62 L846.293 1205.65 L825.648 1205.67 L805.003 1205.69 L784.358 1205.71 L763.713 1205.73 L743.069 1205.76 L722.424 1205.78 L701.779 1205.8 L681.134 1205.82 L660.489 1205.85 L639.844 1205.87 L619.199 1205.89 L598.554 1205.92 L577.909 1205.93 L557.264 1205.95 L536.619 1205.98 L515.974 1206.01 L495.329 1206.02 L474.684 1206.04 L454.039 1206.06 L433.394 1206.08 L412.749 1206.1 L392.104 1206.12 L371.459 1206.14 L350.814 1206.17 L330.169 1206.19 L309.524 1206.21 L288.879 1206.23 L268.234 1206.25 L247.59 1206.27  Z" fill="#f99241" fill-rule="evenodd" fill-opacity="1"/>
<polyline clip-path="url(#clip902)" style="stroke:#f99241; stroke-linecap:round; stroke-linejoin:round; stroke-width:4; stroke-opacity:1; fill:none" points="247.59,1122.52 268.234,1112.83 288.879,1112.8 309.524,1112.78 330.169,1112.76 350.814,1112.73 371.459,1112.7 392.104,1112.67 412.749,1112.65 433.394,1112.62 454.039,1112.6 474.684,1112.57 495.329,1112.55 515.974,1112.52 536.619,1112.49 557.264,1112.46 577.909,1112.44 598.554,1112.42 619.199,1112.38 639.844,1112.36 660.489,1112.33 681.134,1112.3 701.779,1112.27 722.424,1112.25 743.069,1112.22 763.713,1112.19 784.358,1112.17 805.003,1112.15 825.648,1112.12 846.293,1112.1 866.938,1112.07 887.583,1112.04 908.228,1112.01 928.873,1111.99 949.518,1111.96 970.163,1111.93 990.808,1111.91 1011.45,1111.88 1032.1,1111.85 1052.74,1111.82 1073.39,1111.79 1094.03,1111.76 1114.68,1111.73 1135.32,1111.7 1155.97,1111.68 1176.61,1111.66 1197.26,1111.64 1217.9,1111.61 1238.55,1111.59 1259.19,1111.56 1279.84,1111.54 1300.48,1111.51 1321.13,1111.48 1341.77,1111.46 1362.42,1111.43 1383.06,1111.4 1403.71,1111.38 1424.35,1111.35 1445,1111.33 1465.64,1111.29 1486.29,1111.27 1506.93,1111.25 1527.58,1111.22 1548.22,1111.19 1568.87,1111.18 1589.51,1111.15 1610.16,1111.12 1630.8,1111.09 1651.45,1111.07 1672.09,1111.05 1692.74,1111.02 1713.38,1110.99 1734.03,1110.97 1754.67,1110.94 1775.32,1110.91 1795.96,1110.88 1816.61,1110.85 1837.25,1110.83 1857.9,1110.8 1878.54,1110.78 1899.19,1110.75 1919.83,1110.73 1940.48,1110.7 1961.12,1110.67 1981.77,1110.64 2002.41,1110.62 2023.06,1110.59 2043.7,1110.56 2064.35,1110.52 2084.99,1110.49 2105.64,1110.47 2126.28,1110.44 2146.93,1110.41 2167.57,1110.38 2188.22,1110.35 2208.86,1110.33 2229.51,1110.3 2250.15,1110.27 2270.8,1110.24 2291.44,1110.21 "/>
<path clip-path="url(#clip902)" d="M247.59 1106.03 L268.234 1094.42 L288.879 1094.4 L309.524 1094.37 L330.169 1094.34 L350.814 1094.31 L371.459 1094.28 L392.104 1094.25 L412.749 1094.22 L433.394 1094.19 L454.039 1094.17 L474.684 1094.14 L495.329 1094.11 L515.974 1094.08 L536.619 1094.05 L557.264 1094.02 L577.909 1093.99 L598.554 1093.97 L619.199 1093.93 L639.844 1093.9 L660.489 1093.87 L681.134 1093.84 L701.779 1093.81 L722.424 1093.78 L743.069 1093.75 L763.713 1093.72 L784.358 1093.69 L805.003 1093.67 L825.648 1093.63 L846.293 1093.61 L866.938 1093.58 L887.583 1093.54 L908.228 1093.51 L928.873 1093.48 L949.518 1093.46 L970.163 1093.43 L990.808 1093.4 L1011.45 1093.36 L1032.1 1093.33 L1052.74 1093.3 L1073.39 1093.27 L1094.03 1093.23 L1114.68 1093.2 L1135.32 1093.17 L1155.97 1093.15 L1176.61 1093.12 L1197.26 1093.1 L1217.9 1093.06 L1238.55 1093.05 L1259.19 1093.02 L1279.84 1092.99 L1300.48 1092.95 L1321.13 1092.92 L1341.77 1092.9 L1362.42 1092.87 L1383.06 1092.84 L1403.71 1092.81 L1424.35 1092.78 L1445 1092.76 L1465.64 1092.72 L1486.29 1092.69 L1506.93 1092.66 L1527.58 1092.63 L1548.22 1092.6 L1568.87 1092.58 L1589.51 1092.55 L1610.16 1092.53 L1630.8 1092.49 L1651.45 1092.46 L1672.09 1092.44 L1692.74 1092.41 L1713.38 1092.38 L1734.03 1092.35 L1754.67 1092.32 L1775.32 1092.29 L1795.96 1092.25 L1816.61 1092.22 L1837.25 1092.2 L1857.9 1092.17 L1878.54 1092.14 L1899.19 1092.11 L1919.83 1092.09 L1940.48 1092.06 L1961.12 1092.03 L1981.77 1091.99 L2002.41 1091.97 L2023.06 1091.93 L2043.7 1091.9 L2064.35 1091.86 L2084.99 1091.83 L2105.64 1091.8 L2126.28 1091.77 L2146.93 1091.73 L2167.57 1091.7 L2188.22 1091.67 L2208.86 1091.65 L2229.51 1091.61 L2250.15 1091.58 L2270.8 1091.54 L2291.44 1091.51 L2291.44 1110.21 L2270.8 1110.24 L2250.15 1110.27 L2229.51 1110.3 L2208.86 1110.33 L2188.22 1110.35 L2167.57 1110.38 L2146.93 1110.41 L2126.28 1110.44 L2105.64 1110.47 L2084.99 1110.49 L2064.35 1110.52 L2043.7 1110.56 L2023.06 1110.59 L2002.41 1110.62 L1981.77 1110.64 L1961.12 1110.67 L1940.48 1110.7 L1919.83 1110.73 L1899.19 1110.75 L1878.54 1110.78 L1857.9 1110.8 L1837.25 1110.83 L1816.61 1110.85 L1795.96 1110.88 L1775.32 1110.91 L1754.67 1110.94 L1734.03 1110.97 L1713.38 1110.99 L1692.74 1111.02 L1672.09 1111.05 L1651.45 1111.07 L1630.8 1111.09 L1610.16 1111.12 L1589.51 1111.15 L1568.87 1111.18 L1548.22 1111.19 L1527.58 1111.22 L1506.93 1111.25 L1486.29 1111.27 L1465.64 1111.29 L1445 1111.33 L1424.35 1111.35 L1403.71 1111.38 L1383.06 1111.4 L1362.42 1111.43 L1341.77 1111.46 L1321.13 1111.48 L1300.48 1111.51 L1279.84 1111.54 L1259.19 1111.56 L1238.55 1111.59 L1217.9 1111.61 L1197.26 1111.64 L1176.61 1111.66 L1155.97 1111.68 L1135.32 1111.7 L1114.68 1111.73 L1094.03 1111.76 L1073.39 1111.79 L1052.74 1111.82 L1032.1 1111.85 L1011.45 1111.88 L990.808 1111.91 L970.163 1111.93 L949.518 1111.96 L928.873 1111.99 L908.228 1112.01 L887.583 1112.04 L866.938 1112.07 L846.293 1112.1 L825.648 1112.12 L805.003 1112.15 L784.358 1112.17 L763.713 1112.19 L743.069 1112.22 L722.424 1112.25 L701.779 1112.27 L681.134 1112.3 L660.489 1112.33 L639.844 1112.36 L619.199 1112.38 L598.554 1112.42 L577.909 1112.44 L557.264 1112.46 L536.619 1112.49 L515.974 1112.52 L495.329 1112.55 L474.684 1112.57 L454.039 1112.6 L433.394 1112.62 L412.749 1112.65 L392.104 1112.67 L371.459 1112.7 L350.814 1112.73 L330.169 1112.76 L309.524 1112.78 L288.879 1112.8 L268.234 1112.83 L247.59 1122.52  Z" fill="#18337b" fill-rule="evenodd" fill-opacity="1"/>
<polyline clip-path="url(#clip902)" style="stroke:#18337b; stroke-linecap:round; stroke-linejoin:round; stroke-width:4; stroke-opacity:1; fill:none" points="247.59,1106.03 268.234,1094.42 288.879,1094.4 309.524,1094.37 330.169,1094.34 350.814,1094.31 371.459,1094.28 392.104,1094.25 412.749,1094.22 433.394,1094.19 454.039,1094.17 474.684,1094.14 495.329,1094.11 515.974,1094.08 536.619,1094.05 557.264,1094.02 577.909,1093.99 598.554,1093.97 619.199,1093.93 639.844,1093.9 660.489,1093.87 681.134,1093.84 701.779,1093.81 722.424,1093.78 743.069,1093.75 763.713,1093.72 784.358,1093.69 805.003,1093.67 825.648,1093.63 846.293,1093.61 866.938,1093.58 887.583,1093.54 908.228,1093.51 928.873,1093.48 949.518,1093.46 970.163,1093.43 990.808,1093.4 1011.45,1093.36 1032.1,1093.33 1052.74,1093.3 1073.39,1093.27 1094.03,1093.23 1114.68,1093.2 1135.32,1093.17 1155.97,1093.15 1176.61,1093.12 1197.26,1093.1 1217.9,1093.06 1238.55,1093.05 1259.19,1093.02 1279.84,1092.99 1300.48,1092.95 1321.13,1092.92 1341.77,1092.9 1362.42,1092.87 1383.06,1092.84 1403.71,1092.81 1424.35,1092.78 1445,1092.76 1465.64,1092.72 1486.29,1092.69 1506.93,1092.66 1527.58,1092.63 1548.22,1092.6 1568.87,1092.58 1589.51,1092.55 1610.16,1092.53 1630.8,1092.49 1651.45,1092.46 1672.09,1092.44 1692.74,1092.41 1713.38,1092.38 1734.03,1092.35 1754.67,1092.32 1775.32,1092.29 1795.96,1092.25 1816.61,1092.22 1837.25,1092.2 1857.9,1092.17 1878.54,1092.14 1899.19,1092.11 1919.83,1092.09 1940.48,1092.06 1961.12,1092.03 1981.77,1091.99 2002.41,1091.97 2023.06,1091.93 2043.7,1091.9 2064.35,1091.86 2084.99,1091.83 2105.64,1091.8 2126.28,1091.77 2146.93,1091.73 2167.57,1091.7 2188.22,1091.67 2208.86,1091.65 2229.51,1091.61 2250.15,1091.58 2270.8,1091.54 2291.44,1091.51 "/>
<path clip-path="url(#clip902)" d="M247.59 255.513 L268.234 253.614 L288.879 253.625 L309.524 253.639 L330.169 253.651 L350.814 253.659 L371.459 253.665 L392.104 253.672 L412.749 253.68 L433.394 253.686 L454.039 253.7 L474.684 253.711 L495.329 253.719 L515.974 253.74 L536.619 253.745 L557.264 253.757 L577.909 253.766 L598.554 253.776 L619.199 253.788 L639.844 253.801 L660.489 253.814 L681.134 253.828 L701.779 253.842 L722.424 253.852 L743.069 253.868 L763.713 253.881 L784.358 253.893 L805.003 253.904 L825.648 253.913 L846.293 253.927 L866.938 253.944 L887.583 253.959 L908.228 253.971 L928.873 253.99 L949.518 254.001 L970.163 254.009 L990.808 254.019 L1011.45 254.028 L1032.1 254.035 L1052.74 254.048 L1073.39 254.055 L1094.03 254.069 L1114.68 254.077 L1135.32 254.084 L1155.97 254.101 L1176.61 254.115 L1197.26 254.126 L1217.9 254.132 L1238.55 254.144 L1259.19 254.149 L1279.84 254.152 L1300.48 254.164 L1321.13 254.173 L1341.77 254.18 L1362.42 254.191 L1383.06 254.202 L1403.71 254.207 L1424.35 254.215 L1445 254.224 L1465.64 254.235 L1486.29 254.253 L1506.93 254.271 L1527.58 254.278 L1548.22 254.289 L1568.87 254.299 L1589.51 254.315 L1610.16 254.323 L1630.8 254.331 L1651.45 254.345 L1672.09 254.356 L1692.74 254.363 L1713.38 254.366 L1734.03 254.375 L1754.67 254.386 L1775.32 254.401 L1795.96 254.404 L1816.61 254.409 L1837.25 254.424 L1857.9 254.442 L1878.54 254.453 L1899.19 254.463 L1919.83 254.473 L1940.48 254.488 L1961.12 254.497 L1981.77 254.511 L2002.41 254.52 L2023.06 254.532 L2043.7 254.545 L2064.35 254.556 L2084.99 254.572 L2105.64 254.585 L2126.28 254.598 L2146.93 254.61 L2167.57 254.626 L2188.22 254.635 L2208.86 254.65 L2229.51 254.665 L2250.15 254.67 L2270.8 254.675 L2291.44 254.689 L2291.44 1091.51 L2270.8 1091.54 L2250.15 1091.58 L2229.51 1091.61 L2208.86 1091.65 L2188.22 1091.67 L2167.57 1091.7 L2146.93 1091.73 L2126.28 1091.77 L2105.64 1091.8 L2084.99 1091.83 L2064.35 1091.86 L2043.7 1091.9 L2023.06 1091.93 L2002.41 1091.97 L1981.77 1091.99 L1961.12 1092.03 L1940.48 1092.06 L1919.83 1092.09 L1899.19 1092.11 L1878.54 1092.14 L1857.9 1092.17 L1837.25 1092.2 L1816.61 1092.22 L1795.96 1092.25 L1775.32 1092.29 L1754.67 1092.32 L1734.03 1092.35 L1713.38 1092.38 L1692.74 1092.41 L1672.09 1092.44 L1651.45 1092.46 L1630.8 1092.49 L1610.16 1092.53 L1589.51 1092.55 L1568.87 1092.58 L1548.22 1092.6 L1527.58 1092.63 L1506.93 1092.66 L1486.29 1092.69 L1465.64 1092.72 L1445 1092.76 L1424.35 1092.78 L1403.71 1092.81 L1383.06 1092.84 L1362.42 1092.87 L1341.77 1092.9 L1321.13 1092.92 L1300.48 1092.95 L1279.84 1092.99 L1259.19 1093.02 L1238.55 1093.05 L1217.9 1093.06 L1197.26 1093.1 L1176.61 1093.12 L1155.97 1093.15 L1135.32 1093.17 L1114.68 1093.2 L1094.03 1093.23 L1073.39 1093.27 L1052.74 1093.3 L1032.1 1093.33 L1011.45 1093.36 L990.808 1093.4 L970.163 1093.43 L949.518 1093.46 L928.873 1093.48 L908.228 1093.51 L887.583 1093.54 L866.938 1093.58 L846.293 1093.61 L825.648 1093.63 L805.003 1093.67 L784.358 1093.69 L763.713 1093.72 L743.069 1093.75 L722.424 1093.78 L701.779 1093.81 L681.134 1093.84 L660.489 1093.87 L639.844 1093.9 L619.199 1093.93 L598.554 1093.97 L577.909 1093.99 L557.264 1094.02 L536.619 1094.05 L515.974 1094.08 L495.329 1094.11 L474.684 1094.14 L454.039 1094.17 L433.394 1094.19 L412.749 1094.22 L392.104 1094.25 L371.459 1094.28 L350.814 1094.31 L330.169 1094.34 L309.524 1094.37 L288.879 1094.4 L268.234 1094.42 L247.59 1106.03  Z" fill="#de6f64" fill-rule="evenodd" fill-opacity="1"/>
<polyline clip-path="url(#clip902)" style="stroke:#de6f64; stroke-linecap:round; stroke-linejoin:round; stroke-width:4; stroke-opacity:1; fill:none" points="247.59,255.513 268.234,253.614 288.879,253.625 309.524,253.639 330.169,253.651 350.814,253.659 371.459,253.665 392.104,253.672 412.749,253.68 433.394,253.686 454.039,253.7 474.684,253.711 495.329,253.719 515.974,253.74 536.619,253.745 557.264,253.757 577.909,253.766 598.554,253.776 619.199,253.788 639.844,253.801 660.489,253.814 681.134,253.828 701.779,253.842 722.424,253.852 743.069,253.868 763.713,253.881 784.358,253.893 805.003,253.904 825.648,253.913 846.293,253.927 866.938,253.944 887.583,253.959 908.228,253.971 928.873,253.99 949.518,254.001 970.163,254.009 990.808,254.019 1011.45,254.028 1032.1,254.035 1052.74,254.048 1073.39,254.055 1094.03,254.069 1114.68,254.077 1135.32,254.084 1155.97,254.101 1176.61,254.115 1197.26,254.126 1217.9,254.132 1238.55,254.144 1259.19,254.149 1279.84,254.152 1300.48,254.164 1321.13,254.173 1341.77,254.18 1362.42,254.191 1383.06,254.202 1403.71,254.207 1424.35,254.215 1445,254.224 1465.64,254.235 1486.29,254.253 1506.93,254.271 1527.58,254.278 1548.22,254.289 1568.87,254.299 1589.51,254.315 1610.16,254.323 1630.8,254.331 1651.45,254.345 1672.09,254.356 1692.74,254.363 1713.38,254.366 1734.03,254.375 1754.67,254.386 1775.32,254.401 1795.96,254.404 1816.61,254.409 1837.25,254.424 1857.9,254.442 1878.54,254.453 1899.19,254.463 1919.83,254.473 1940.48,254.488 1961.12,254.497 1981.77,254.511 2002.41,254.52 2023.06,254.532 2043.7,254.545 2064.35,254.556 2084.99,254.572 2105.64,254.585 2126.28,254.598 2146.93,254.61 2167.57,254.626 2188.22,254.635 2208.86,254.65 2229.51,254.665 2250.15,254.67 2270.8,254.675 2291.44,254.689 "/>
<path clip-path="url(#clip902)" d="M247.59 87.9763 L268.234 87.9763 L288.879 87.9763 L309.524 87.9763 L330.169 87.9763 L350.814 87.9763 L371.459 87.9763 L392.104 87.9763 L412.749 87.9763 L433.394 87.9763 L454.039 87.9763 L474.684 87.9763 L495.329 87.9763 L515.974 87.9763 L536.619 87.9763 L557.264 87.9763 L577.909 87.9763 L598.554 87.9763 L619.199 87.9763 L639.844 87.9763 L660.489 87.9763 L681.134 87.9763 L701.779 87.9763 L722.424 87.9763 L743.069 87.9763 L763.713 87.9763 L784.358 87.9763 L805.003 87.9763 L825.648 87.9763 L846.293 87.9763 L866.938 87.9763 L887.583 87.9763 L908.228 87.9763 L928.873 87.9763 L949.518 87.9763 L970.163 87.9763 L990.808 87.9763 L1011.45 87.9763 L1032.1 87.9763 L1052.74 87.9763 L1073.39 87.9763 L1094.03 87.9763 L1114.68 87.9763 L1135.32 87.9763 L1155.97 87.9763 L1176.61 87.9763 L1197.26 87.9763 L1217.9 87.9763 L1238.55 87.9763 L1259.19 87.9763 L1279.84 87.9763 L1300.48 87.9763 L1321.13 87.9763 L1341.77 87.9763 L1362.42 87.9763 L1383.06 87.9763 L1403.71 87.9763 L1424.35 87.9763 L1445 87.9763 L1465.64 87.9763 L1486.29 87.9763 L1506.93 87.9763 L1527.58 87.9763 L1548.22 87.9763 L1568.87 87.9763 L1589.51 87.9763 L1610.16 87.9763 L1630.8 87.9763 L1651.45 87.9763 L1672.09 87.9763 L1692.74 87.9763 L1713.38 87.9763 L1734.03 87.9763 L1754.67 87.9763 L1775.32 87.9763 L1795.96 87.9763 L1816.61 87.9763 L1837.25 87.9763 L1857.9 87.9763 L1878.54 87.9763 L1899.19 87.9763 L1919.83 87.9763 L1940.48 87.9763 L1961.12 87.9763 L1981.77 87.9763 L2002.41 87.9763 L2023.06 87.9763 L2043.7 87.9763 L2064.35 87.9763 L2084.99 87.9763 L2105.64 87.9763 L2126.28 87.9763 L2146.93 87.9763 L2167.57 87.9763 L2188.22 87.9763 L2208.86 87.9763 L2229.51 87.9763 L2250.15 87.9763 L2270.8 87.9763 L2291.44 87.9763 L2291.44 254.689 L2270.8 254.675 L2250.15 254.67 L2229.51 254.665 L2208.86 254.65 L2188.22 254.635 L2167.57 254.626 L2146.93 254.61 L2126.28 254.598 L2105.64 254.585 L2084.99 254.572 L2064.35 254.556 L2043.7 254.545 L2023.06 254.532 L2002.41 254.52 L1981.77 254.511 L1961.12 254.497 L1940.48 254.488 L1919.83 254.473 L1899.19 254.463 L1878.54 254.453 L1857.9 254.442 L1837.25 254.424 L1816.61 254.409 L1795.96 254.404 L1775.32 254.401 L1754.67 254.386 L1734.03 254.375 L1713.38 254.366 L1692.74 254.363 L1672.09 254.356 L1651.45 254.345 L1630.8 254.331 L1610.16 254.323 L1589.51 254.315 L1568.87 254.299 L1548.22 254.289 L1527.58 254.278 L1506.93 254.271 L1486.29 254.253 L1465.64 254.235 L1445 254.224 L1424.35 254.215 L1403.71 254.207 L1383.06 254.202 L1362.42 254.191 L1341.77 254.18 L1321.13 254.173 L1300.48 254.164 L1279.84 254.152 L1259.19 254.149 L1238.55 254.144 L1217.9 254.132 L1197.26 254.126 L1176.61 254.115 L1155.97 254.101 L1135.32 254.084 L1114.68 254.077 L1094.03 254.069 L1073.39 254.055 L1052.74 254.048 L1032.1 254.035 L1011.45 254.028 L990.808 254.019 L970.163 254.009 L949.518 254.001 L928.873 253.99 L908.228 253.971 L887.583 253.959 L866.938 253.944 L846.293 253.927 L825.648 253.913 L805.003 253.904 L784.358 253.893 L763.713 253.881 L743.069 253.868 L722.424 253.852 L701.779 253.842 L681.134 253.828 L660.489 253.814 L639.844 253.801 L619.199 253.788 L598.554 253.776 L577.909 253.766 L557.264 253.757 L536.619 253.745 L515.974 253.74 L495.329 253.719 L474.684 253.711 L454.039 253.7 L433.394 253.686 L412.749 253.68 L392.104 253.672 L371.459 253.665 L350.814 253.659 L330.169 253.651 L309.524 253.639 L288.879 253.625 L268.234 253.614 L247.59 255.513  Z" fill="#824f8e" fill-rule="evenodd" fill-opacity="1"/>
<polyline clip-path="url(#clip902)" style="stroke:#824f8e; stroke-linecap:round; stroke-linejoin:round; stroke-width:4; stroke-opacity:1; fill:none" points="247.59,87.9763 268.234,87.9763 288.879,87.9763 309.524,87.9763 330.169,87.9763 350.814,87.9763 371.459,87.9763 392.104,87.9763 412.749,87.9763 433.394,87.9763 454.039,87.9763 474.684,87.9763 495.329,87.9763 515.974,87.9763 536.619,87.9763 557.264,87.9763 577.909,87.9763 598.554,87.9763 619.199,87.9763 639.844,87.9763 660.489,87.9763 681.134,87.9763 701.779,87.9763 722.424,87.9763 743.069,87.9763 763.713,87.9763 784.358,87.9763 805.003,87.9763 825.648,87.9763 846.293,87.9763 866.938,87.9763 887.583,87.9763 908.228,87.9763 928.873,87.9763 949.518,87.9763 970.163,87.9763 990.808,87.9763 1011.45,87.9763 1032.1,87.9763 1052.74,87.9763 1073.39,87.9763 1094.03,87.9763 1114.68,87.9763 1135.32,87.9763 1155.97,87.9763 1176.61,87.9763 1197.26,87.9763 1217.9,87.9763 1238.55,87.9763 1259.19,87.9763 1279.84,87.9763 1300.48,87.9763 1321.13,87.9763 1341.77,87.9763 1362.42,87.9763 1383.06,87.9763 1403.71,87.9763 1424.35,87.9763 1445,87.9763 1465.64,87.9763 1486.29,87.9763 1506.93,87.9763 1527.58,87.9763 1548.22,87.9763 1568.87,87.9763 1589.51,87.9763 1610.16,87.9763 1630.8,87.9763 1651.45,87.9763 1672.09,87.9763 1692.74,87.9763 1713.38,87.9763 1734.03,87.9763 1754.67,87.9763 1775.32,87.9763 1795.96,87.9763 1816.61,87.9763 1837.25,87.9763 1857.9,87.9763 1878.54,87.9763 1899.19,87.9763 1919.83,87.9763 1940.48,87.9763 1961.12,87.9763 1981.77,87.9763 2002.41,87.9763 2023.06,87.9763 2043.7,87.9763 2064.35,87.9763 2084.99,87.9763 2105.64,87.9763 2126.28,87.9763 2146.93,87.9763 2167.57,87.9763 2188.22,87.9763 2208.86,87.9763 2229.51,87.9763 2250.15,87.9763 2270.8,87.9763 2291.44,87.9763 "/>
</svg>
