<?xml version="1.0" encoding="utf-8"?>
<svg xmlns="http://www.w3.org/2000/svg" xmlns:xlink="http://www.w3.org/1999/xlink" width="600" height="400" viewBox="0 0 2400 1600">
<defs>
  <clipPath id="clip990">
    <rect x="0" y="0" width="2400" height="1600"/>
  </clipPath>
</defs>
<path clip-path="url(#clip990)" d="M0 1600 L2400 1600 L2400 0 L0 0  Z" fill="#ffffff" fill-rule="evenodd" fill-opacity="1"/>
<defs>
  <clipPath id="clip991">
    <rect x="480" y="0" width="1681" height="1600"/>
  </clipPath>
</defs>
<path clip-path="url(#clip990)" d="M185.927 1486.45 L2352.76 1486.45 L2352.76 47.2441 L185.927 47.2441  Z" fill="#ffffff" fill-rule="evenodd" fill-opacity="1"/>
<defs>
  <clipPath id="clip992">
    <rect x="185" y="47" width="2168" height="1440"/>
  </clipPath>
</defs>
<polyline clip-path="url(#clip992)" style="stroke:#000000; stroke-linecap:round; stroke-linejoin:round; stroke-width:2; stroke-opacity:0.1; fill:none" points="247.252,1486.45 247.252,47.2441 "/>
<polyline clip-path="url(#clip992)" style="stroke:#000000; stroke-linecap:round; stroke-linejoin:round; stroke-width:2; stroke-opacity:0.1; fill:none" points="763.459,1486.45 763.459,47.2441 "/>
<polyline clip-path="url(#clip992)" style="stroke:#000000; stroke-linecap:round; stroke-linejoin:round; stroke-width:2; stroke-opacity:0.1; fill:none" points="1279.67,1486.45 1279.67,47.2441 "/>
<polyline clip-path="url(#clip992)" style="stroke:#000000; stroke-linecap:round; stroke-linejoin:round; stroke-width:2; stroke-opacity:0.1; fill:none" points="1795.87,1486.45 1795.87,47.2441 "/>
<polyline clip-path="url(#clip992)" style="stroke:#000000; stroke-linecap:round; stroke-linejoin:round; stroke-width:2; stroke-opacity:0.1; fill:none" points="2312.08,1486.45 2312.08,47.2441 "/>
<polyline clip-path="url(#clip990)" style="stroke:#000000; stroke-linecap:round; stroke-linejoin:round; stroke-width:4; stroke-opacity:1; fill:none" points="185.927,1486.45 2352.76,1486.45 "/>
<polyline clip-path="url(#clip990)" style="stroke:#000000; stroke-linecap:round; stroke-linejoin:round; stroke-width:4; stroke-opacity:1; fill:none" points="247.252,1486.45 247.252,1467.55 "/>
<polyline clip-path="url(#clip990)" style="stroke:#000000; stroke-linecap:round; stroke-linejoin:round; stroke-width:4; stroke-opacity:1; fill:none" points="763.459,1486.45 763.459,1467.55 "/>
<polyline clip-path="url(#clip990)" style="stroke:#000000; stroke-linecap:round; stroke-linejoin:round; stroke-width:4; stroke-opacity:1; fill:none" points="1279.67,1486.45 1279.67,1467.55 "/>
<polyline clip-path="url(#clip990)" style="stroke:#000000; stroke-linecap:round; stroke-linejoin:round; stroke-width:4; stroke-opacity:1; fill:none" points="1795.87,1486.45 1795.87,1467.55 "/>
<polyline clip-path="url(#clip990)" style="stroke:#000000; stroke-linecap:round; stroke-linejoin:round; stroke-width:4; stroke-opacity:1; fill:none" points="2312.08,1486.45 2312.08,1467.55 "/>
<path clip-path="url(#clip990)" d="M247.252 1517.37 Q243.641 1517.37 241.812 1520.93 Q240.007 1524.47 240.007 1531.6 Q240.007 1538.71 241.812 1542.27 Q243.641 1545.82 247.252 1545.82 Q250.886 1545.82 252.692 1542.27 Q254.521 1538.71 254.521 1531.6 Q254.521 1524.47 252.692 1520.93 Q250.886 1517.37 247.252 1517.37 M247.252 1513.66 Q253.062 1513.66 256.118 1518.27 Q259.197 1522.85 259.197 1531.6 Q259.197 1540.33 256.118 1544.94 Q253.062 1549.52 247.252 1549.52 Q241.442 1549.52 238.363 1544.94 Q235.308 1540.33 235.308 1531.6 Q235.308 1522.85 238.363 1518.27 Q241.442 1513.66 247.252 1513.66 Z" fill="#000000" fill-rule="nonzero" fill-opacity="1" /><path clip-path="url(#clip990)" d="M742.73 1544.91 L759.049 1544.91 L759.049 1548.85 L737.105 1548.85 L737.105 1544.91 Q739.767 1542.16 744.35 1537.53 Q748.957 1532.88 750.137 1531.53 Q752.382 1529.01 753.262 1527.27 Q754.165 1525.51 754.165 1523.82 Q754.165 1521.07 752.22 1519.33 Q750.299 1517.6 747.197 1517.6 Q744.998 1517.6 742.545 1518.36 Q740.114 1519.13 737.336 1520.68 L737.336 1515.95 Q740.16 1514.82 742.614 1514.24 Q745.068 1513.66 747.105 1513.66 Q752.475 1513.66 755.669 1516.35 Q758.864 1519.03 758.864 1523.52 Q758.864 1525.65 758.054 1527.57 Q757.267 1529.47 755.16 1532.07 Q754.582 1532.74 751.48 1535.95 Q748.378 1539.15 742.73 1544.91 Z" fill="#000000" fill-rule="nonzero" fill-opacity="1" /><path clip-path="url(#clip990)" d="M768.91 1514.29 L787.267 1514.29 L787.267 1518.22 L773.193 1518.22 L773.193 1526.7 Q774.211 1526.35 775.23 1526.19 Q776.248 1526 777.267 1526 Q783.054 1526 786.433 1529.17 Q789.813 1532.34 789.813 1537.76 Q789.813 1543.34 786.341 1546.44 Q782.868 1549.52 776.549 1549.52 Q774.373 1549.52 772.105 1549.15 Q769.859 1548.78 767.452 1548.04 L767.452 1543.34 Q769.535 1544.47 771.757 1545.03 Q773.98 1545.58 776.456 1545.58 Q780.461 1545.58 782.799 1543.48 Q785.137 1541.37 785.137 1537.76 Q785.137 1534.15 782.799 1532.04 Q780.461 1529.94 776.456 1529.94 Q774.581 1529.94 772.706 1530.35 Q770.855 1530.77 768.91 1531.65 L768.91 1514.29 Z" fill="#000000" fill-rule="nonzero" fill-opacity="1" /><path clip-path="url(#clip990)" d="M1254.36 1514.29 L1272.72 1514.29 L1272.72 1518.22 L1258.65 1518.22 L1258.65 1526.7 Q1259.67 1526.35 1260.68 1526.19 Q1261.7 1526 1262.72 1526 Q1268.51 1526 1271.89 1529.17 Q1275.27 1532.34 1275.27 1537.76 Q1275.27 1543.34 1271.8 1546.44 Q1268.32 1549.52 1262 1549.52 Q1259.83 1549.52 1257.56 1549.15 Q1255.31 1548.78 1252.91 1548.04 L1252.91 1543.34 Q1254.99 1544.47 1257.21 1545.03 Q1259.43 1545.58 1261.91 1545.58 Q1265.92 1545.58 1268.25 1543.48 Q1270.59 1541.37 1270.59 1537.76 Q1270.59 1534.15 1268.25 1532.04 Q1265.92 1529.94 1261.91 1529.94 Q1260.04 1529.94 1258.16 1530.35 Q1256.31 1530.77 1254.36 1531.65 L1254.36 1514.29 Z" fill="#000000" fill-rule="nonzero" fill-opacity="1" /><path clip-path="url(#clip990)" d="M1294.48 1517.37 Q1290.87 1517.37 1289.04 1520.93 Q1287.23 1524.47 1287.23 1531.6 Q1287.23 1538.71 1289.04 1542.27 Q1290.87 1545.82 1294.48 1545.82 Q1298.11 1545.82 1299.92 1542.27 Q1301.75 1538.71 1301.75 1531.6 Q1301.75 1524.47 1299.92 1520.93 Q1298.11 1517.37 1294.48 1517.37 M1294.48 1513.66 Q1300.29 1513.66 1303.35 1518.27 Q1306.42 1522.85 1306.42 1531.6 Q1306.42 1540.33 1303.35 1544.94 Q1300.29 1549.52 1294.48 1549.52 Q1288.67 1549.52 1285.59 1544.94 Q1282.54 1540.33 1282.54 1531.6 Q1282.54 1522.85 1285.59 1518.27 Q1288.67 1513.66 1294.48 1513.66 Z" fill="#000000" fill-rule="nonzero" fill-opacity="1" /><path clip-path="url(#clip990)" d="M1769.73 1514.29 L1791.95 1514.29 L1791.95 1516.28 L1779.4 1548.85 L1774.52 1548.85 L1786.32 1518.22 L1769.73 1518.22 L1769.73 1514.29 Z" fill="#000000" fill-rule="nonzero" fill-opacity="1" /><path clip-path="url(#clip990)" d="M1801.12 1514.29 L1819.47 1514.29 L1819.47 1518.22 L1805.4 1518.22 L1805.4 1526.7 Q1806.42 1526.35 1807.43 1526.19 Q1808.45 1526 1809.47 1526 Q1815.26 1526 1818.64 1529.17 Q1822.02 1532.34 1822.02 1537.76 Q1822.02 1543.34 1818.55 1546.44 Q1815.07 1549.52 1808.75 1549.52 Q1806.58 1549.52 1804.31 1549.15 Q1802.06 1548.78 1799.66 1548.04 L1799.66 1543.34 Q1801.74 1544.47 1803.96 1545.03 Q1806.18 1545.58 1808.66 1545.58 Q1812.67 1545.58 1815 1543.48 Q1817.34 1541.37 1817.34 1537.76 Q1817.34 1534.15 1815 1532.04 Q1812.67 1529.94 1808.66 1529.94 Q1806.79 1529.94 1804.91 1530.35 Q1803.06 1530.77 1801.12 1531.65 L1801.12 1514.29 Z" fill="#000000" fill-rule="nonzero" fill-opacity="1" /><path clip-path="url(#clip990)" d="M2271.69 1544.91 L2279.32 1544.91 L2279.32 1518.55 L2271.01 1520.21 L2271.01 1515.95 L2279.28 1514.29 L2283.95 1514.29 L2283.95 1544.91 L2291.59 1544.91 L2291.59 1548.85 L2271.69 1548.85 L2271.69 1544.91 Z" fill="#000000" fill-rule="nonzero" fill-opacity="1" /><path clip-path="url(#clip990)" d="M2311.04 1517.37 Q2307.43 1517.37 2305.6 1520.93 Q2303.79 1524.47 2303.79 1531.6 Q2303.79 1538.71 2305.6 1542.27 Q2307.43 1545.82 2311.04 1545.82 Q2314.67 1545.82 2316.48 1542.27 Q2318.31 1538.71 2318.31 1531.6 Q2318.31 1524.47 2316.48 1520.93 Q2314.67 1517.37 2311.04 1517.37 M2311.04 1513.66 Q2316.85 1513.66 2319.9 1518.27 Q2322.98 1522.85 2322.98 1531.6 Q2322.98 1540.33 2319.9 1544.94 Q2316.85 1549.52 2311.04 1549.52 Q2305.23 1549.52 2302.15 1544.94 Q2299.09 1540.33 2299.09 1531.6 Q2299.09 1522.85 2302.15 1518.27 Q2305.23 1513.66 2311.04 1513.66 Z" fill="#000000" fill-rule="nonzero" fill-opacity="1" /><path clip-path="url(#clip990)" d="M2341.2 1517.37 Q2337.59 1517.37 2335.76 1520.93 Q2333.95 1524.47 2333.95 1531.6 Q2333.95 1538.71 2335.76 1542.27 Q2337.59 1545.82 2341.2 1545.82 Q2344.83 1545.82 2346.64 1542.27 Q2348.47 1538.71 2348.47 1531.6 Q2348.47 1524.47 2346.64 1520.93 Q2344.83 1517.37 2341.2 1517.37 M2341.2 1513.66 Q2347.01 1513.66 2350.06 1518.27 Q2353.14 1522.85 2353.14 1531.6 Q2353.14 1540.33 2350.06 1544.94 Q2347.01 1549.52 2341.2 1549.52 Q2335.39 1549.52 2332.31 1544.94 Q2329.25 1540.33 2329.25 1531.6 Q2329.25 1522.85 2332.31 1518.27 Q2335.39 1513.66 2341.2 1513.66 Z" fill="#000000" fill-rule="nonzero" fill-opacity="1" /><polyline clip-path="url(#clip992)" style="stroke:#000000; stroke-linecap:round; stroke-linejoin:round; stroke-width:2; stroke-opacity:0.1; fill:none" points="185.927,1445.72 2352.76,1445.72 "/>
<polyline clip-path="url(#clip992)" style="stroke:#000000; stroke-linecap:round; stroke-linejoin:round; stroke-width:2; stroke-opacity:0.1; fill:none" points="185.927,1106.28 2352.76,1106.28 "/>
<polyline clip-path="url(#clip992)" style="stroke:#000000; stroke-linecap:round; stroke-linejoin:round; stroke-width:2; stroke-opacity:0.1; fill:none" points="185.927,766.846 2352.76,766.846 "/>
<polyline clip-path="url(#clip992)" style="stroke:#000000; stroke-linecap:round; stroke-linejoin:round; stroke-width:2; stroke-opacity:0.1; fill:none" points="185.927,427.411 2352.76,427.411 "/>
<polyline clip-path="url(#clip992)" style="stroke:#000000; stroke-linecap:round; stroke-linejoin:round; stroke-width:2; stroke-opacity:0.1; fill:none" points="185.927,87.9763 2352.76,87.9763 "/>
<polyline clip-path="url(#clip990)" style="stroke:#000000; stroke-linecap:round; stroke-linejoin:round; stroke-width:4; stroke-opacity:1; fill:none" points="185.927,1486.45 185.927,47.2441 "/>
<polyline clip-path="url(#clip990)" style="stroke:#000000; stroke-linecap:round; stroke-linejoin:round; stroke-width:4; stroke-opacity:1; fill:none" points="185.927,1445.72 204.824,1445.72 "/>
<polyline clip-path="url(#clip990)" style="stroke:#000000; stroke-linecap:round; stroke-linejoin:round; stroke-width:4; stroke-opacity:1; fill:none" points="185.927,1106.28 204.824,1106.28 "/>
<polyline clip-path="url(#clip990)" style="stroke:#000000; stroke-linecap:round; stroke-linejoin:round; stroke-width:4; stroke-opacity:1; fill:none" points="185.927,766.846 204.824,766.846 "/>
<polyline clip-path="url(#clip990)" style="stroke:#000000; stroke-linecap:round; stroke-linejoin:round; stroke-width:4; stroke-opacity:1; fill:none" points="185.927,427.411 204.824,427.411 "/>
<polyline clip-path="url(#clip990)" style="stroke:#000000; stroke-linecap:round; stroke-linejoin:round; stroke-width:4; stroke-opacity:1; fill:none" points="185.927,87.9763 204.824,87.9763 "/>
<path clip-path="url(#clip990)" d="M53.3995 1459.06 L61.0384 1459.06 L61.0384 1432.69 L52.7282 1434.36 L52.7282 1430.1 L60.9921 1428.44 L65.668 1428.44 L65.668 1459.06 L73.3068 1459.06 L73.3068 1463 L53.3995 1463 L53.3995 1459.06 Z" fill="#000000" fill-rule="nonzero" fill-opacity="1" /><path clip-path="url(#clip990)" d="M82.7512 1457.12 L87.6354 1457.12 L87.6354 1463 L82.7512 1463 L82.7512 1457.12 Z" fill="#000000" fill-rule="nonzero" fill-opacity="1" /><path clip-path="url(#clip990)" d="M107.821 1431.51 Q104.209 1431.51 102.381 1435.08 Q100.575 1438.62 100.575 1445.75 Q100.575 1452.86 102.381 1456.42 Q104.209 1459.96 107.821 1459.96 Q111.455 1459.96 113.26 1456.42 Q115.089 1452.86 115.089 1445.75 Q115.089 1438.62 113.26 1435.08 Q111.455 1431.51 107.821 1431.51 M107.821 1427.81 Q113.631 1427.81 116.686 1432.42 Q119.765 1437 119.765 1445.75 Q119.765 1454.48 116.686 1459.08 Q113.631 1463.67 107.821 1463.67 Q102.01 1463.67 98.9317 1459.08 Q95.8761 1454.48 95.8761 1445.75 Q95.8761 1437 98.9317 1432.42 Q102.01 1427.81 107.821 1427.81 Z" fill="#000000" fill-rule="nonzero" fill-opacity="1" /><path clip-path="url(#clip990)" d="M137.982 1431.51 Q134.371 1431.51 132.543 1435.08 Q130.737 1438.62 130.737 1445.75 Q130.737 1452.86 132.543 1456.42 Q134.371 1459.96 137.982 1459.96 Q141.617 1459.96 143.422 1456.42 Q145.251 1452.86 145.251 1445.75 Q145.251 1438.62 143.422 1435.08 Q141.617 1431.51 137.982 1431.51 M137.982 1427.81 Q143.793 1427.81 146.848 1432.42 Q149.927 1437 149.927 1445.75 Q149.927 1454.48 146.848 1459.08 Q143.793 1463.67 137.982 1463.67 Q132.172 1463.67 129.094 1459.08 Q126.038 1454.48 126.038 1445.75 Q126.038 1437 129.094 1432.42 Q132.172 1427.81 137.982 1427.81 Z" fill="#000000" fill-rule="nonzero" fill-opacity="1" /><path clip-path="url(#clip990)" d="M54.3949 1119.63 L62.0337 1119.63 L62.0337 1093.26 L53.7236 1094.93 L53.7236 1090.67 L61.9874 1089 L66.6633 1089 L66.6633 1119.63 L74.3022 1119.63 L74.3022 1123.56 L54.3949 1123.56 L54.3949 1119.63 Z" fill="#000000" fill-rule="nonzero" fill-opacity="1" /><path clip-path="url(#clip990)" d="M83.7466 1117.68 L88.6308 1117.68 L88.6308 1123.56 L83.7466 1123.56 L83.7466 1117.68 Z" fill="#000000" fill-rule="nonzero" fill-opacity="1" /><path clip-path="url(#clip990)" d="M102.844 1119.63 L119.163 1119.63 L119.163 1123.56 L97.2187 1123.56 L97.2187 1119.63 Q99.8808 1116.87 104.464 1112.24 Q109.071 1107.59 110.251 1106.25 Q112.496 1103.72 113.376 1101.99 Q114.279 1100.23 114.279 1098.54 Q114.279 1095.78 112.334 1094.05 Q110.413 1092.31 107.311 1092.31 Q105.112 1092.31 102.659 1093.07 Q100.228 1093.84 97.4502 1095.39 L97.4502 1090.67 Q100.274 1089.53 102.728 1088.95 Q105.182 1088.38 107.219 1088.38 Q112.589 1088.38 115.783 1091.06 Q118.978 1093.75 118.978 1098.24 Q118.978 1100.37 118.168 1102.29 Q117.381 1104.19 115.274 1106.78 Q114.695 1107.45 111.594 1110.67 Q108.492 1113.86 102.844 1119.63 Z" fill="#000000" fill-rule="nonzero" fill-opacity="1" /><path clip-path="url(#clip990)" d="M129.024 1089 L147.38 1089 L147.38 1092.94 L133.306 1092.94 L133.306 1101.41 Q134.325 1101.06 135.344 1100.9 Q136.362 1100.71 137.381 1100.71 Q143.168 1100.71 146.547 1103.89 Q149.927 1107.06 149.927 1112.47 Q149.927 1118.05 146.455 1121.15 Q142.982 1124.23 136.663 1124.23 Q134.487 1124.23 132.219 1123.86 Q129.973 1123.49 127.566 1122.75 L127.566 1118.05 Q129.649 1119.19 131.871 1119.74 Q134.094 1120.3 136.57 1120.3 Q140.575 1120.3 142.913 1118.19 Q145.251 1116.08 145.251 1112.47 Q145.251 1108.86 142.913 1106.76 Q140.575 1104.65 136.57 1104.65 Q134.695 1104.65 132.82 1105.07 Q130.969 1105.48 129.024 1106.36 L129.024 1089 Z" fill="#000000" fill-rule="nonzero" fill-opacity="1" /><path clip-path="url(#clip990)" d="M53.3995 780.191 L61.0384 780.191 L61.0384 753.825 L52.7282 755.492 L52.7282 751.233 L60.9921 749.566 L65.668 749.566 L65.668 780.191 L73.3068 780.191 L73.3068 784.126 L53.3995 784.126 L53.3995 780.191 Z" fill="#000000" fill-rule="nonzero" fill-opacity="1" /><path clip-path="url(#clip990)" d="M82.7512 778.246 L87.6354 778.246 L87.6354 784.126 L82.7512 784.126 L82.7512 778.246 Z" fill="#000000" fill-rule="nonzero" fill-opacity="1" /><path clip-path="url(#clip990)" d="M97.8669 749.566 L116.223 749.566 L116.223 753.501 L102.149 753.501 L102.149 761.973 Q103.168 761.626 104.186 761.464 Q105.205 761.279 106.223 761.279 Q112.01 761.279 115.39 764.45 Q118.77 767.621 118.77 773.038 Q118.77 778.617 115.297 781.719 Q111.825 784.797 105.506 784.797 Q103.33 784.797 101.061 784.427 Q98.8159 784.057 96.4085 783.316 L96.4085 778.617 Q98.4919 779.751 100.714 780.307 Q102.936 780.862 105.413 780.862 Q109.418 780.862 111.756 778.756 Q114.094 776.649 114.094 773.038 Q114.094 769.427 111.756 767.321 Q109.418 765.214 105.413 765.214 Q103.538 765.214 101.663 765.631 Q99.8113 766.047 97.8669 766.927 L97.8669 749.566 Z" fill="#000000" fill-rule="nonzero" fill-opacity="1" /><path clip-path="url(#clip990)" d="M137.982 752.645 Q134.371 752.645 132.543 756.209 Q130.737 759.751 130.737 766.881 Q130.737 773.987 132.543 777.552 Q134.371 781.094 137.982 781.094 Q141.617 781.094 143.422 777.552 Q145.251 773.987 145.251 766.881 Q145.251 759.751 143.422 756.209 Q141.617 752.645 137.982 752.645 M137.982 748.941 Q143.793 748.941 146.848 753.547 Q149.927 758.131 149.927 766.881 Q149.927 775.608 146.848 780.214 Q143.793 784.797 137.982 784.797 Q132.172 784.797 129.094 780.214 Q126.038 775.608 126.038 766.881 Q126.038 758.131 129.094 753.547 Q132.172 748.941 137.982 748.941 Z" fill="#000000" fill-rule="nonzero" fill-opacity="1" /><path clip-path="url(#clip990)" d="M54.3949 440.756 L62.0337 440.756 L62.0337 414.39 L53.7236 416.057 L53.7236 411.798 L61.9874 410.131 L66.6633 410.131 L66.6633 440.756 L74.3022 440.756 L74.3022 444.691 L54.3949 444.691 L54.3949 440.756 Z" fill="#000000" fill-rule="nonzero" fill-opacity="1" /><path clip-path="url(#clip990)" d="M83.7466 438.812 L88.6308 438.812 L88.6308 444.691 L83.7466 444.691 L83.7466 438.812 Z" fill="#000000" fill-rule="nonzero" fill-opacity="1" /><path clip-path="url(#clip990)" d="M97.6354 410.131 L119.857 410.131 L119.857 412.122 L107.311 444.691 L102.427 444.691 L114.233 414.066 L97.6354 414.066 L97.6354 410.131 Z" fill="#000000" fill-rule="nonzero" fill-opacity="1" /><path clip-path="url(#clip990)" d="M129.024 410.131 L147.38 410.131 L147.38 414.066 L133.306 414.066 L133.306 422.538 Q134.325 422.191 135.344 422.029 Q136.362 421.844 137.381 421.844 Q143.168 421.844 146.547 425.015 Q149.927 428.187 149.927 433.603 Q149.927 439.182 146.455 442.284 Q142.982 445.362 136.663 445.362 Q134.487 445.362 132.219 444.992 Q129.973 444.622 127.566 443.881 L127.566 439.182 Q129.649 440.316 131.871 440.872 Q134.094 441.427 136.57 441.427 Q140.575 441.427 142.913 439.321 Q145.251 437.214 145.251 433.603 Q145.251 429.992 142.913 427.886 Q140.575 425.779 136.57 425.779 Q134.695 425.779 132.82 426.196 Q130.969 426.613 129.024 427.492 L129.024 410.131 Z" fill="#000000" fill-rule="nonzero" fill-opacity="1" /><path clip-path="url(#clip990)" d="M56.6171 101.321 L72.9365 101.321 L72.9365 105.256 L50.9921 105.256 L50.9921 101.321 Q53.6541 98.5665 58.2375 93.9369 Q62.8439 89.2841 64.0245 87.9416 Q66.2698 85.4184 67.1494 83.6823 Q68.0522 81.9231 68.0522 80.2333 Q68.0522 77.4786 66.1078 75.7425 Q64.1865 74.0064 61.0847 74.0064 Q58.8856 74.0064 56.4319 74.7703 Q54.0014 75.5342 51.2236 77.0851 L51.2236 72.3629 Q54.0477 71.2287 56.5014 70.65 Q58.955 70.0713 60.9921 70.0713 Q66.3624 70.0713 69.5568 72.7565 Q72.7513 75.4416 72.7513 79.9323 Q72.7513 82.062 71.9411 83.9832 Q71.1541 85.8814 69.0476 88.474 Q68.4689 89.1453 65.367 92.3628 Q62.2652 95.5573 56.6171 101.321 Z" fill="#000000" fill-rule="nonzero" fill-opacity="1" /><path clip-path="url(#clip990)" d="M82.7512 99.3767 L87.6354 99.3767 L87.6354 105.256 L82.7512 105.256 L82.7512 99.3767 Z" fill="#000000" fill-rule="nonzero" fill-opacity="1" /><path clip-path="url(#clip990)" d="M107.821 73.775 Q104.209 73.775 102.381 77.3398 Q100.575 80.8814 100.575 88.011 Q100.575 95.1174 102.381 98.6822 Q104.209 102.224 107.821 102.224 Q111.455 102.224 113.26 98.6822 Q115.089 95.1174 115.089 88.011 Q115.089 80.8814 113.26 77.3398 Q111.455 73.775 107.821 73.775 M107.821 70.0713 Q113.631 70.0713 116.686 74.6777 Q119.765 79.261 119.765 88.011 Q119.765 96.7378 116.686 101.344 Q113.631 105.928 107.821 105.928 Q102.01 105.928 98.9317 101.344 Q95.8761 96.7378 95.8761 88.011 Q95.8761 79.261 98.9317 74.6777 Q102.01 70.0713 107.821 70.0713 Z" fill="#000000" fill-rule="nonzero" fill-opacity="1" /><path clip-path="url(#clip990)" d="M137.982 73.775 Q134.371 73.775 132.543 77.3398 Q130.737 80.8814 130.737 88.011 Q130.737 95.1174 132.543 98.6822 Q134.371 102.224 137.982 102.224 Q141.617 102.224 143.422 98.6822 Q145.251 95.1174 145.251 88.011 Q145.251 80.8814 143.422 77.3398 Q141.617 73.775 137.982 73.775 M137.982 70.0713 Q143.793 70.0713 146.848 74.6777 Q149.927 79.261 149.927 88.011 Q149.927 96.7378 146.848 101.344 Q143.793 105.928 137.982 105.928 Q132.172 105.928 129.094 101.344 Q126.038 96.7378 126.038 88.011 Q126.038 79.261 129.094 74.6777 Q132.172 70.0713 137.982 70.0713 Z" fill="#000000" fill-rule="nonzero" fill-opacity="1" /><polyline clip-path="url(#clip992)" style="stroke:#009af9; stroke-linecap:round; stroke-linejoin:round; stroke-width:4; stroke-opacity:1; fill:none" points="247.252,1445.72 267.9,1445.72 288.549,1445.72 309.197,1445.72 329.845,1445.72 350.493,1445.72 371.142,1445.72 391.79,1445.72 412.438,1445.72 433.087,1445.72 453.735,1445.72 474.383,1445.72 495.031,1445.72 515.68,1445.72 536.328,1445.72 556.976,1445.72 577.624,1445.72 598.273,1445.72 618.921,1445.72 639.569,1445.72 660.217,1445.72 680.866,1445.72 701.514,1445.72 722.162,1445.72 742.811,1445.72 763.459,1445.72 784.107,1445.72 804.755,1445.72 825.404,1445.72 846.052,1445.72 866.7,1445.72 887.348,1445.72 907.997,1445.72 928.645,1445.72 949.293,1445.72 969.941,1445.72 990.59,1445.72 1011.24,1445.72 1031.89,1445.72 1052.53,1445.72 1073.18,1445.72 1093.83,1445.72 1114.48,1445.72 1135.13,1445.72 1155.78,1445.72 1176.42,1445.72 1197.07,1445.72 1217.72,1445.72 1238.37,1445.72 1259.02,1445.72 1279.67,1445.72 1300.31,1445.72 1320.96,1445.72 1341.61,1445.72 1362.26,1445.72 1382.91,1445.72 1403.56,1445.72 1424.2,1445.72 1444.85,1445.72 1465.5,1445.72 1486.15,1445.72 1506.8,1445.72 1527.44,1445.72 1548.09,1445.72 1568.74,1445.72 1589.39,1445.72 1610.04,1445.72 1630.69,1445.72 1651.33,1445.72 1671.98,1445.72 1692.63,1445.72 1713.28,1445.72 1733.93,1445.72 1754.58,1445.72 1775.22,1445.72 1795.87,1445.72 1816.52,1445.72 1837.17,1445.72 1857.82,1445.72 1878.47,1445.72 1899.11,1445.72 1919.76,1445.72 1940.41,1445.72 1961.06,1445.72 1981.71,1445.72 2002.35,1445.72 2023,1445.72 2043.65,1445.72 2064.3,1445.72 2084.95,1445.72 2105.6,1445.72 2126.24,1445.72 2146.89,1445.72 2167.54,1445.72 2188.19,1445.72 2208.84,1445.72 2229.49,1445.72 2250.13,1445.72 2270.78,1445.72 2291.43,1445.72 "/>
<path clip-path="url(#clip990)" d="M2011.42 198.898 L2280.53 198.898 L2280.53 95.2176 L2011.42 95.2176  Z" fill="#ffffff" fill-rule="evenodd" fill-opacity="1"/>
<polyline clip-path="url(#clip990)" style="stroke:#000000; stroke-linecap:round; stroke-linejoin:round; stroke-width:4; stroke-opacity:1; fill:none" points="2011.42,198.898 2280.53,198.898 2280.53,95.2176 2011.42,95.2176 2011.42,198.898 "/>
<polyline clip-path="url(#clip990)" style="stroke:#009af9; stroke-linecap:round; stroke-linejoin:round; stroke-width:4; stroke-opacity:1; fill:none" points="2035.49,147.058 2179.95,147.058 "/>
<path clip-path="url(#clip990)" d="M2217.86 166.745 Q2216.06 171.375 2214.35 172.787 Q2212.63 174.199 2209.76 174.199 L2206.36 174.199 L2206.36 170.634 L2208.86 170.634 Q2210.62 170.634 2211.59 169.8 Q2212.56 168.967 2213.74 165.865 L2214.51 163.921 L2204.02 138.412 L2208.54 138.412 L2216.64 158.689 L2224.74 138.412 L2229.25 138.412 L2217.86 166.745 Z" fill="#000000" fill-rule="nonzero" fill-opacity="1" /><path clip-path="url(#clip990)" d="M2236.55 160.402 L2244.18 160.402 L2244.18 134.037 L2235.87 135.703 L2235.87 131.444 L2244.14 129.778 L2248.81 129.778 L2248.81 160.402 L2256.45 160.402 L2256.45 164.338 L2236.55 164.338 L2236.55 160.402 Z" fill="#000000" fill-rule="nonzero" fill-opacity="1" /></svg>
