<?xml version="1.0" encoding="utf-8"?>
<svg xmlns="http://www.w3.org/2000/svg" xmlns:xlink="http://www.w3.org/1999/xlink" width="600" height="400" viewBox="0 0 2400 1600">
<defs>
  <clipPath id="clip430">
    <rect x="0" y="0" width="2400" height="1600"/>
  </clipPath>
</defs>
<path clip-path="url(#clip430)" d="M0 1600 L2400 1600 L2400 0 L0 0  Z" fill="#ffffff" fill-rule="evenodd" fill-opacity="1"/>
<defs>
  <clipPath id="clip431">
    <rect x="480" y="0" width="1681" height="1600"/>
  </clipPath>
</defs>
<path clip-path="url(#clip430)" d="M184.191 1486.45 L2352.76 1486.45 L2352.76 47.2441 L184.191 47.2441  Z" fill="#ffffff" fill-rule="evenodd" fill-opacity="1"/>
<defs>
  <clipPath id="clip432">
    <rect x="184" y="47" width="2170" height="1440"/>
  </clipPath>
</defs>
<polyline clip-path="url(#clip432)" style="stroke:#000000; stroke-linecap:round; stroke-linejoin:round; stroke-width:2; stroke-opacity:0.1; fill:none" points="245.565,1486.45 245.565,47.2441 "/>
<polyline clip-path="url(#clip432)" style="stroke:#000000; stroke-linecap:round; stroke-linejoin:round; stroke-width:2; stroke-opacity:0.1; fill:none" points="757.019,1486.45 757.019,47.2441 "/>
<polyline clip-path="url(#clip432)" style="stroke:#000000; stroke-linecap:round; stroke-linejoin:round; stroke-width:2; stroke-opacity:0.1; fill:none" points="1268.47,1486.45 1268.47,47.2441 "/>
<polyline clip-path="url(#clip432)" style="stroke:#000000; stroke-linecap:round; stroke-linejoin:round; stroke-width:2; stroke-opacity:0.1; fill:none" points="1779.93,1486.45 1779.93,47.2441 "/>
<polyline clip-path="url(#clip432)" style="stroke:#000000; stroke-linecap:round; stroke-linejoin:round; stroke-width:2; stroke-opacity:0.1; fill:none" points="2291.38,1486.45 2291.38,47.2441 "/>
<polyline clip-path="url(#clip430)" style="stroke:#000000; stroke-linecap:round; stroke-linejoin:round; stroke-width:4; stroke-opacity:1; fill:none" points="184.191,1486.45 2352.76,1486.45 "/>
<polyline clip-path="url(#clip430)" style="stroke:#000000; stroke-linecap:round; stroke-linejoin:round; stroke-width:4; stroke-opacity:1; fill:none" points="245.565,1486.45 245.565,1467.55 "/>
<polyline clip-path="url(#clip430)" style="stroke:#000000; stroke-linecap:round; stroke-linejoin:round; stroke-width:4; stroke-opacity:1; fill:none" points="757.019,1486.45 757.019,1467.55 "/>
<polyline clip-path="url(#clip430)" style="stroke:#000000; stroke-linecap:round; stroke-linejoin:round; stroke-width:4; stroke-opacity:1; fill:none" points="1268.47,1486.45 1268.47,1467.55 "/>
<polyline clip-path="url(#clip430)" style="stroke:#000000; stroke-linecap:round; stroke-linejoin:round; stroke-width:4; stroke-opacity:1; fill:none" points="1779.93,1486.45 1779.93,1467.55 "/>
<polyline clip-path="url(#clip430)" style="stroke:#000000; stroke-linecap:round; stroke-linejoin:round; stroke-width:4; stroke-opacity:1; fill:none" points="2291.38,1486.45 2291.38,1467.55 "/>
<path clip-path="url(#clip430)" d="M245.565 1517.37 Q241.954 1517.37 240.125 1520.93 Q238.32 1524.47 238.32 1531.6 Q238.32 1538.71 240.125 1542.27 Q241.954 1545.82 245.565 1545.82 Q249.199 1545.82 251.005 1542.27 Q252.834 1538.71 252.834 1531.6 Q252.834 1524.47 251.005 1520.93 Q249.199 1517.37 245.565 1517.37 M245.565 1513.66 Q251.375 1513.66 254.431 1518.27 Q257.51 1522.85 257.51 1531.6 Q257.51 1540.33 254.431 1544.94 Q251.375 1549.52 245.565 1549.52 Q239.755 1549.52 236.676 1544.94 Q233.621 1540.33 233.621 1531.6 Q233.621 1522.85 236.676 1518.27 Q239.755 1513.66 245.565 1513.66 Z" fill="#000000" fill-rule="nonzero" fill-opacity="1" /><path clip-path="url(#clip430)" d="M701.545 1544.91 L709.184 1544.91 L709.184 1518.55 L700.874 1520.21 L700.874 1515.95 L709.138 1514.29 L713.813 1514.29 L713.813 1544.91 L721.452 1544.91 L721.452 1548.85 L701.545 1548.85 L701.545 1544.91 Z" fill="#000000" fill-rule="nonzero" fill-opacity="1" /><path clip-path="url(#clip430)" d="M740.897 1517.37 Q737.286 1517.37 735.457 1520.93 Q733.651 1524.47 733.651 1531.6 Q733.651 1538.71 735.457 1542.27 Q737.286 1545.82 740.897 1545.82 Q744.531 1545.82 746.336 1542.27 Q748.165 1538.71 748.165 1531.6 Q748.165 1524.47 746.336 1520.93 Q744.531 1517.37 740.897 1517.37 M740.897 1513.66 Q746.707 1513.66 749.762 1518.27 Q752.841 1522.85 752.841 1531.6 Q752.841 1540.33 749.762 1544.94 Q746.707 1549.52 740.897 1549.52 Q735.086 1549.52 732.008 1544.94 Q728.952 1540.33 728.952 1531.6 Q728.952 1522.85 732.008 1518.27 Q735.086 1513.66 740.897 1513.66 Z" fill="#000000" fill-rule="nonzero" fill-opacity="1" /><path clip-path="url(#clip430)" d="M771.059 1517.37 Q767.447 1517.37 765.619 1520.93 Q763.813 1524.47 763.813 1531.6 Q763.813 1538.71 765.619 1542.27 Q767.447 1545.82 771.059 1545.82 Q774.693 1545.82 776.498 1542.27 Q778.327 1538.71 778.327 1531.6 Q778.327 1524.47 776.498 1520.93 Q774.693 1517.37 771.059 1517.37 M771.059 1513.66 Q776.869 1513.66 779.924 1518.27 Q783.003 1522.85 783.003 1531.6 Q783.003 1540.33 779.924 1544.94 Q776.869 1549.52 771.059 1549.52 Q765.248 1549.52 762.17 1544.94 Q759.114 1540.33 759.114 1531.6 Q759.114 1522.85 762.17 1518.27 Q765.248 1513.66 771.059 1513.66 Z" fill="#000000" fill-rule="nonzero" fill-opacity="1" /><path clip-path="url(#clip430)" d="M801.22 1517.37 Q797.609 1517.37 795.781 1520.93 Q793.975 1524.47 793.975 1531.6 Q793.975 1538.71 795.781 1542.27 Q797.609 1545.82 801.22 1545.82 Q804.855 1545.82 806.66 1542.27 Q808.489 1538.71 808.489 1531.6 Q808.489 1524.47 806.66 1520.93 Q804.855 1517.37 801.22 1517.37 M801.22 1513.66 Q807.031 1513.66 810.086 1518.27 Q813.165 1522.85 813.165 1531.6 Q813.165 1540.33 810.086 1544.94 Q807.031 1549.52 801.22 1549.52 Q795.41 1549.52 792.332 1544.94 Q789.276 1540.33 789.276 1531.6 Q789.276 1522.85 792.332 1518.27 Q795.41 1513.66 801.22 1513.66 Z" fill="#000000" fill-rule="nonzero" fill-opacity="1" /><path clip-path="url(#clip430)" d="M1217.08 1544.91 L1233.4 1544.91 L1233.4 1548.85 L1211.46 1548.85 L1211.46 1544.91 Q1214.12 1542.16 1218.71 1537.53 Q1223.31 1532.88 1224.49 1531.53 Q1226.74 1529.01 1227.62 1527.27 Q1228.52 1525.51 1228.52 1523.82 Q1228.52 1521.07 1226.58 1519.33 Q1224.65 1517.6 1221.55 1517.6 Q1219.35 1517.6 1216.9 1518.36 Q1214.47 1519.13 1211.69 1520.68 L1211.69 1515.95 Q1214.52 1514.82 1216.97 1514.24 Q1219.42 1513.66 1221.46 1513.66 Q1226.83 1513.66 1230.02 1516.35 Q1233.22 1519.03 1233.22 1523.52 Q1233.22 1525.65 1232.41 1527.57 Q1231.62 1529.47 1229.52 1532.07 Q1228.94 1532.74 1225.83 1535.95 Q1222.73 1539.15 1217.08 1544.91 Z" fill="#000000" fill-rule="nonzero" fill-opacity="1" /><path clip-path="url(#clip430)" d="M1253.22 1517.37 Q1249.61 1517.37 1247.78 1520.93 Q1245.97 1524.47 1245.97 1531.6 Q1245.97 1538.71 1247.78 1542.27 Q1249.61 1545.82 1253.22 1545.82 Q1256.85 1545.82 1258.66 1542.27 Q1260.49 1538.71 1260.49 1531.6 Q1260.49 1524.47 1258.66 1520.93 Q1256.85 1517.37 1253.22 1517.37 M1253.22 1513.66 Q1259.03 1513.66 1262.08 1518.27 Q1265.16 1522.85 1265.16 1531.6 Q1265.16 1540.33 1262.08 1544.94 Q1259.03 1549.52 1253.22 1549.52 Q1247.41 1549.52 1244.33 1544.94 Q1241.27 1540.33 1241.27 1531.6 Q1241.27 1522.85 1244.33 1518.27 Q1247.41 1513.66 1253.22 1513.66 Z" fill="#000000" fill-rule="nonzero" fill-opacity="1" /><path clip-path="url(#clip430)" d="M1283.38 1517.37 Q1279.77 1517.37 1277.94 1520.93 Q1276.14 1524.47 1276.14 1531.6 Q1276.14 1538.71 1277.94 1542.27 Q1279.77 1545.82 1283.38 1545.82 Q1287.01 1545.82 1288.82 1542.27 Q1290.65 1538.71 1290.65 1531.6 Q1290.65 1524.47 1288.82 1520.93 Q1287.01 1517.37 1283.38 1517.37 M1283.38 1513.66 Q1289.19 1513.66 1292.25 1518.27 Q1295.33 1522.85 1295.33 1531.6 Q1295.33 1540.33 1292.25 1544.94 Q1289.19 1549.52 1283.38 1549.52 Q1277.57 1549.52 1274.49 1544.94 Q1271.44 1540.33 1271.44 1531.6 Q1271.44 1522.85 1274.49 1518.27 Q1277.57 1513.66 1283.38 1513.66 Z" fill="#000000" fill-rule="nonzero" fill-opacity="1" /><path clip-path="url(#clip430)" d="M1313.54 1517.37 Q1309.93 1517.37 1308.1 1520.93 Q1306.3 1524.47 1306.3 1531.6 Q1306.3 1538.71 1308.1 1542.27 Q1309.93 1545.82 1313.54 1545.82 Q1317.18 1545.82 1318.98 1542.27 Q1320.81 1538.71 1320.81 1531.6 Q1320.81 1524.47 1318.98 1520.93 Q1317.18 1517.37 1313.54 1517.37 M1313.54 1513.66 Q1319.35 1513.66 1322.41 1518.27 Q1325.49 1522.85 1325.49 1531.6 Q1325.49 1540.33 1322.41 1544.94 Q1319.35 1549.52 1313.54 1549.52 Q1307.73 1549.52 1304.65 1544.94 Q1301.6 1540.33 1301.6 1531.6 Q1301.6 1522.85 1304.65 1518.27 Q1307.73 1513.66 1313.54 1513.66 Z" fill="#000000" fill-rule="nonzero" fill-opacity="1" /><path clip-path="url(#clip430)" d="M1738.61 1530.21 Q1741.96 1530.93 1743.84 1533.2 Q1745.74 1535.47 1745.74 1538.8 Q1745.74 1543.92 1742.22 1546.72 Q1738.7 1549.52 1732.22 1549.52 Q1730.04 1549.52 1727.73 1549.08 Q1725.44 1548.66 1722.98 1547.81 L1722.98 1543.29 Q1724.93 1544.43 1727.24 1545.01 Q1729.56 1545.58 1732.08 1545.58 Q1736.48 1545.58 1738.77 1543.85 Q1741.08 1542.11 1741.08 1538.8 Q1741.08 1535.75 1738.93 1534.03 Q1736.8 1532.3 1732.98 1532.3 L1728.96 1532.3 L1728.96 1528.45 L1733.17 1528.45 Q1736.62 1528.45 1738.45 1527.09 Q1740.27 1525.7 1740.27 1523.11 Q1740.27 1520.45 1738.38 1519.03 Q1736.5 1517.6 1732.98 1517.6 Q1731.06 1517.6 1728.86 1518.01 Q1726.66 1518.43 1724.02 1519.31 L1724.02 1515.14 Q1726.69 1514.4 1729 1514.03 Q1731.34 1513.66 1733.4 1513.66 Q1738.72 1513.66 1741.83 1516.09 Q1744.93 1518.5 1744.93 1522.62 Q1744.93 1525.49 1743.28 1527.48 Q1741.64 1529.45 1738.61 1530.21 Z" fill="#000000" fill-rule="nonzero" fill-opacity="1" /><path clip-path="url(#clip430)" d="M1764.6 1517.37 Q1760.99 1517.37 1759.16 1520.93 Q1757.36 1524.47 1757.36 1531.6 Q1757.36 1538.71 1759.16 1542.27 Q1760.99 1545.82 1764.6 1545.82 Q1768.24 1545.82 1770.04 1542.27 Q1771.87 1538.71 1771.87 1531.6 Q1771.87 1524.47 1770.04 1520.93 Q1768.24 1517.37 1764.6 1517.37 M1764.6 1513.66 Q1770.41 1513.66 1773.47 1518.27 Q1776.55 1522.85 1776.55 1531.6 Q1776.55 1540.33 1773.47 1544.94 Q1770.41 1549.52 1764.6 1549.52 Q1758.79 1549.52 1755.71 1544.94 Q1752.66 1540.33 1752.66 1531.6 Q1752.66 1522.85 1755.71 1518.27 Q1758.79 1513.66 1764.6 1513.66 Z" fill="#000000" fill-rule="nonzero" fill-opacity="1" /><path clip-path="url(#clip430)" d="M1794.77 1517.37 Q1791.15 1517.37 1789.33 1520.93 Q1787.52 1524.47 1787.52 1531.6 Q1787.52 1538.71 1789.33 1542.27 Q1791.15 1545.82 1794.77 1545.82 Q1798.4 1545.82 1800.21 1542.27 Q1802.03 1538.71 1802.03 1531.6 Q1802.03 1524.47 1800.21 1520.93 Q1798.4 1517.37 1794.77 1517.37 M1794.77 1513.66 Q1800.58 1513.66 1803.63 1518.27 Q1806.71 1522.85 1806.71 1531.6 Q1806.71 1540.33 1803.63 1544.94 Q1800.58 1549.52 1794.77 1549.52 Q1788.96 1549.52 1785.88 1544.94 Q1782.82 1540.33 1782.82 1531.6 Q1782.82 1522.85 1785.88 1518.27 Q1788.96 1513.66 1794.77 1513.66 Z" fill="#000000" fill-rule="nonzero" fill-opacity="1" /><path clip-path="url(#clip430)" d="M1824.93 1517.37 Q1821.32 1517.37 1819.49 1520.93 Q1817.68 1524.47 1817.68 1531.6 Q1817.68 1538.71 1819.49 1542.27 Q1821.32 1545.82 1824.93 1545.82 Q1828.56 1545.82 1830.37 1542.27 Q1832.2 1538.71 1832.2 1531.6 Q1832.2 1524.47 1830.37 1520.93 Q1828.56 1517.37 1824.93 1517.37 M1824.93 1513.66 Q1830.74 1513.66 1833.79 1518.27 Q1836.87 1522.85 1836.87 1531.6 Q1836.87 1540.33 1833.79 1544.94 Q1830.74 1549.52 1824.93 1549.52 Q1819.12 1549.52 1816.04 1544.94 Q1812.98 1540.33 1812.98 1531.6 Q1812.98 1522.85 1816.04 1518.27 Q1819.12 1513.66 1824.93 1513.66 Z" fill="#000000" fill-rule="nonzero" fill-opacity="1" /><path clip-path="url(#clip430)" d="M2249.39 1518.36 L2237.59 1536.81 L2249.39 1536.81 L2249.39 1518.36 M2248.16 1514.29 L2254.04 1514.29 L2254.04 1536.81 L2258.97 1536.81 L2258.97 1540.7 L2254.04 1540.7 L2254.04 1548.85 L2249.39 1548.85 L2249.39 1540.7 L2233.79 1540.7 L2233.79 1536.19 L2248.16 1514.29 Z" fill="#000000" fill-rule="nonzero" fill-opacity="1" /><path clip-path="url(#clip430)" d="M2276.71 1517.37 Q2273.09 1517.37 2271.27 1520.93 Q2269.46 1524.47 2269.46 1531.6 Q2269.46 1538.71 2271.27 1542.27 Q2273.09 1545.82 2276.71 1545.82 Q2280.34 1545.82 2282.15 1542.27 Q2283.97 1538.71 2283.97 1531.6 Q2283.97 1524.47 2282.15 1520.93 Q2280.34 1517.37 2276.71 1517.37 M2276.71 1513.66 Q2282.52 1513.66 2285.57 1518.27 Q2288.65 1522.85 2288.65 1531.6 Q2288.65 1540.33 2285.57 1544.94 Q2282.52 1549.52 2276.71 1549.52 Q2270.9 1549.52 2267.82 1544.94 Q2264.76 1540.33 2264.76 1531.6 Q2264.76 1522.85 2267.82 1518.27 Q2270.9 1513.66 2276.71 1513.66 Z" fill="#000000" fill-rule="nonzero" fill-opacity="1" /><path clip-path="url(#clip430)" d="M2306.87 1517.37 Q2303.26 1517.37 2301.43 1520.93 Q2299.62 1524.47 2299.62 1531.6 Q2299.62 1538.71 2301.43 1542.27 Q2303.26 1545.82 2306.87 1545.82 Q2310.5 1545.82 2312.31 1542.27 Q2314.14 1538.71 2314.14 1531.6 Q2314.14 1524.47 2312.31 1520.93 Q2310.5 1517.37 2306.87 1517.37 M2306.87 1513.66 Q2312.68 1513.66 2315.73 1518.27 Q2318.81 1522.85 2318.81 1531.6 Q2318.81 1540.33 2315.73 1544.94 Q2312.68 1549.52 2306.87 1549.52 Q2301.06 1549.52 2297.98 1544.94 Q2294.92 1540.33 2294.92 1531.6 Q2294.92 1522.85 2297.98 1518.27 Q2301.06 1513.66 2306.87 1513.66 Z" fill="#000000" fill-rule="nonzero" fill-opacity="1" /><path clip-path="url(#clip430)" d="M2337.03 1517.37 Q2333.42 1517.37 2331.59 1520.93 Q2329.78 1524.47 2329.78 1531.6 Q2329.78 1538.71 2331.59 1542.27 Q2333.42 1545.82 2337.03 1545.82 Q2340.66 1545.82 2342.47 1542.27 Q2344.3 1538.71 2344.3 1531.6 Q2344.3 1524.47 2342.47 1520.93 Q2340.66 1517.37 2337.03 1517.37 M2337.03 1513.66 Q2342.84 1513.66 2345.9 1518.27 Q2348.97 1522.85 2348.97 1531.6 Q2348.97 1540.33 2345.9 1544.94 Q2342.84 1549.52 2337.03 1549.52 Q2331.22 1549.52 2328.14 1544.94 Q2325.08 1540.33 2325.08 1531.6 Q2325.08 1522.85 2328.14 1518.27 Q2331.22 1513.66 2337.03 1513.66 Z" fill="#000000" fill-rule="nonzero" fill-opacity="1" /><polyline clip-path="url(#clip432)" style="stroke:#000000; stroke-linecap:round; stroke-linejoin:round; stroke-width:2; stroke-opacity:0.1; fill:none" points="184.191,1320.97 2352.76,1320.97 "/>
<polyline clip-path="url(#clip432)" style="stroke:#000000; stroke-linecap:round; stroke-linejoin:round; stroke-width:2; stroke-opacity:0.1; fill:none" points="184.191,1063.04 2352.76,1063.04 "/>
<polyline clip-path="url(#clip432)" style="stroke:#000000; stroke-linecap:round; stroke-linejoin:round; stroke-width:2; stroke-opacity:0.1; fill:none" points="184.191,805.105 2352.76,805.105 "/>
<polyline clip-path="url(#clip432)" style="stroke:#000000; stroke-linecap:round; stroke-linejoin:round; stroke-width:2; stroke-opacity:0.1; fill:none" points="184.191,547.171 2352.76,547.171 "/>
<polyline clip-path="url(#clip432)" style="stroke:#000000; stroke-linecap:round; stroke-linejoin:round; stroke-width:2; stroke-opacity:0.1; fill:none" points="184.191,289.237 2352.76,289.237 "/>
<polyline clip-path="url(#clip430)" style="stroke:#000000; stroke-linecap:round; stroke-linejoin:round; stroke-width:4; stroke-opacity:1; fill:none" points="184.191,1486.45 184.191,47.2441 "/>
<polyline clip-path="url(#clip430)" style="stroke:#000000; stroke-linecap:round; stroke-linejoin:round; stroke-width:4; stroke-opacity:1; fill:none" points="184.191,1320.97 203.088,1320.97 "/>
<polyline clip-path="url(#clip430)" style="stroke:#000000; stroke-linecap:round; stroke-linejoin:round; stroke-width:4; stroke-opacity:1; fill:none" points="184.191,1063.04 203.088,1063.04 "/>
<polyline clip-path="url(#clip430)" style="stroke:#000000; stroke-linecap:round; stroke-linejoin:round; stroke-width:4; stroke-opacity:1; fill:none" points="184.191,805.105 203.088,805.105 "/>
<polyline clip-path="url(#clip430)" style="stroke:#000000; stroke-linecap:round; stroke-linejoin:round; stroke-width:4; stroke-opacity:1; fill:none" points="184.191,547.171 203.088,547.171 "/>
<polyline clip-path="url(#clip430)" style="stroke:#000000; stroke-linecap:round; stroke-linejoin:round; stroke-width:4; stroke-opacity:1; fill:none" points="184.191,289.237 203.088,289.237 "/>
<path clip-path="url(#clip430)" d="M51.6634 1334.32 L59.3023 1334.32 L59.3023 1307.95 L50.9921 1309.62 L50.9921 1305.36 L59.256 1303.69 L63.9319 1303.69 L63.9319 1334.32 L71.5707 1334.32 L71.5707 1338.25 L51.6634 1338.25 L51.6634 1334.32 Z" fill="#000000" fill-rule="nonzero" fill-opacity="1" /><path clip-path="url(#clip430)" d="M81.8253 1334.32 L89.4641 1334.32 L89.4641 1307.95 L81.154 1309.62 L81.154 1305.36 L89.4178 1303.69 L94.0937 1303.69 L94.0937 1334.32 L101.733 1334.32 L101.733 1338.25 L81.8253 1338.25 L81.8253 1334.32 Z" fill="#000000" fill-rule="nonzero" fill-opacity="1" /><path clip-path="url(#clip430)" d="M111.177 1332.37 L116.061 1332.37 L116.061 1338.25 L111.177 1338.25 L111.177 1332.37 Z" fill="#000000" fill-rule="nonzero" fill-opacity="1" /><path clip-path="url(#clip430)" d="M136.246 1306.77 Q132.635 1306.77 130.807 1310.34 Q129.001 1313.88 129.001 1321.01 Q129.001 1328.11 130.807 1331.68 Q132.635 1335.22 136.246 1335.22 Q139.881 1335.22 141.686 1331.68 Q143.515 1328.11 143.515 1321.01 Q143.515 1313.88 141.686 1310.34 Q139.881 1306.77 136.246 1306.77 M136.246 1303.07 Q142.056 1303.07 145.112 1307.67 Q148.191 1312.26 148.191 1321.01 Q148.191 1329.73 145.112 1334.34 Q142.056 1338.92 136.246 1338.92 Q130.436 1338.92 127.357 1334.34 Q124.302 1329.73 124.302 1321.01 Q124.302 1312.26 127.357 1307.67 Q130.436 1303.07 136.246 1303.07 Z" fill="#000000" fill-rule="nonzero" fill-opacity="1" /><path clip-path="url(#clip430)" d="M52.6588 1076.38 L60.2976 1076.38 L60.2976 1050.02 L51.9875 1051.68 L51.9875 1047.43 L60.2513 1045.76 L64.9272 1045.76 L64.9272 1076.38 L72.5661 1076.38 L72.5661 1080.32 L52.6588 1080.32 L52.6588 1076.38 Z" fill="#000000" fill-rule="nonzero" fill-opacity="1" /><path clip-path="url(#clip430)" d="M82.8207 1076.38 L90.4595 1076.38 L90.4595 1050.02 L82.1494 1051.68 L82.1494 1047.43 L90.4132 1045.76 L95.0891 1045.76 L95.0891 1076.38 L102.728 1076.38 L102.728 1080.32 L82.8207 1080.32 L82.8207 1076.38 Z" fill="#000000" fill-rule="nonzero" fill-opacity="1" /><path clip-path="url(#clip430)" d="M112.172 1074.44 L117.057 1074.44 L117.057 1080.32 L112.172 1080.32 L112.172 1074.44 Z" fill="#000000" fill-rule="nonzero" fill-opacity="1" /><path clip-path="url(#clip430)" d="M127.288 1045.76 L145.644 1045.76 L145.644 1049.69 L131.57 1049.69 L131.57 1058.17 Q132.589 1057.82 133.607 1057.66 Q134.626 1057.47 135.644 1057.47 Q141.431 1057.47 144.811 1060.64 Q148.191 1063.81 148.191 1069.23 Q148.191 1074.81 144.718 1077.91 Q141.246 1080.99 134.927 1080.99 Q132.751 1080.99 130.482 1080.62 Q128.237 1080.25 125.83 1079.51 L125.83 1074.81 Q127.913 1075.94 130.135 1076.5 Q132.357 1077.06 134.834 1077.06 Q138.839 1077.06 141.177 1074.95 Q143.515 1072.84 143.515 1069.23 Q143.515 1065.62 141.177 1063.51 Q138.839 1061.41 134.834 1061.41 Q132.959 1061.41 131.084 1061.82 Q129.232 1062.24 127.288 1063.12 L127.288 1045.76 Z" fill="#000000" fill-rule="nonzero" fill-opacity="1" /><path clip-path="url(#clip430)" d="M51.6634 818.45 L59.3023 818.45 L59.3023 792.084 L50.9921 793.751 L50.9921 789.492 L59.256 787.825 L63.9319 787.825 L63.9319 818.45 L71.5707 818.45 L71.5707 822.385 L51.6634 822.385 L51.6634 818.45 Z" fill="#000000" fill-rule="nonzero" fill-opacity="1" /><path clip-path="url(#clip430)" d="M85.0429 818.45 L101.362 818.45 L101.362 822.385 L79.4179 822.385 L79.4179 818.45 Q82.0799 815.695 86.6632 811.066 Q91.2697 806.413 92.4502 805.07 Q94.6956 802.547 95.5752 800.811 Q96.478 799.052 96.478 797.362 Q96.478 794.607 94.5336 792.871 Q92.6123 791.135 89.5104 791.135 Q87.3114 791.135 84.8577 791.899 Q82.4271 792.663 79.6494 794.214 L79.6494 789.492 Q82.4734 788.357 84.9271 787.779 Q87.3808 787.2 89.4178 787.2 Q94.7882 787.2 97.9826 789.885 Q101.177 792.57 101.177 797.061 Q101.177 799.191 100.367 801.112 Q99.5798 803.01 97.4734 805.603 Q96.8947 806.274 93.7928 809.492 Q90.691 812.686 85.0429 818.45 Z" fill="#000000" fill-rule="nonzero" fill-opacity="1" /><path clip-path="url(#clip430)" d="M111.177 816.505 L116.061 816.505 L116.061 822.385 L111.177 822.385 L111.177 816.505 Z" fill="#000000" fill-rule="nonzero" fill-opacity="1" /><path clip-path="url(#clip430)" d="M136.246 790.904 Q132.635 790.904 130.807 794.468 Q129.001 798.01 129.001 805.14 Q129.001 812.246 130.807 815.811 Q132.635 819.353 136.246 819.353 Q139.881 819.353 141.686 815.811 Q143.515 812.246 143.515 805.14 Q143.515 798.01 141.686 794.468 Q139.881 790.904 136.246 790.904 M136.246 787.2 Q142.056 787.2 145.112 791.806 Q148.191 796.39 148.191 805.14 Q148.191 813.867 145.112 818.473 Q142.056 823.056 136.246 823.056 Q130.436 823.056 127.357 818.473 Q124.302 813.867 124.302 805.14 Q124.302 796.39 127.357 791.806 Q130.436 787.2 136.246 787.2 Z" fill="#000000" fill-rule="nonzero" fill-opacity="1" /><path clip-path="url(#clip430)" d="M52.6588 560.516 L60.2976 560.516 L60.2976 534.15 L51.9875 535.817 L51.9875 531.558 L60.2513 529.891 L64.9272 529.891 L64.9272 560.516 L72.5661 560.516 L72.5661 564.451 L52.6588 564.451 L52.6588 560.516 Z" fill="#000000" fill-rule="nonzero" fill-opacity="1" /><path clip-path="url(#clip430)" d="M86.0382 560.516 L102.358 560.516 L102.358 564.451 L80.4133 564.451 L80.4133 560.516 Q83.0753 557.761 87.6586 553.132 Q92.2651 548.479 93.4456 547.136 Q95.691 544.613 96.5706 542.877 Q97.4734 541.118 97.4734 539.428 Q97.4734 536.673 95.5289 534.937 Q93.6076 533.201 90.5058 533.201 Q88.3067 533.201 85.8531 533.965 Q83.4225 534.729 80.6447 536.28 L80.6447 531.558 Q83.4688 530.424 85.9225 529.845 Q88.3762 529.266 90.4132 529.266 Q95.7836 529.266 98.978 531.951 Q102.172 534.636 102.172 539.127 Q102.172 541.257 101.362 543.178 Q100.575 545.076 98.4687 547.669 Q97.89 548.34 94.7882 551.558 Q91.6864 554.752 86.0382 560.516 Z" fill="#000000" fill-rule="nonzero" fill-opacity="1" /><path clip-path="url(#clip430)" d="M112.172 558.572 L117.057 558.572 L117.057 564.451 L112.172 564.451 L112.172 558.572 Z" fill="#000000" fill-rule="nonzero" fill-opacity="1" /><path clip-path="url(#clip430)" d="M127.288 529.891 L145.644 529.891 L145.644 533.826 L131.57 533.826 L131.57 542.298 Q132.589 541.951 133.607 541.789 Q134.626 541.604 135.644 541.604 Q141.431 541.604 144.811 544.775 Q148.191 547.947 148.191 553.363 Q148.191 558.942 144.718 562.044 Q141.246 565.122 134.927 565.122 Q132.751 565.122 130.482 564.752 Q128.237 564.382 125.83 563.641 L125.83 558.942 Q127.913 560.076 130.135 560.632 Q132.357 561.187 134.834 561.187 Q138.839 561.187 141.177 559.081 Q143.515 556.974 143.515 553.363 Q143.515 549.752 141.177 547.646 Q138.839 545.539 134.834 545.539 Q132.959 545.539 131.084 545.956 Q129.232 546.373 127.288 547.252 L127.288 529.891 Z" fill="#000000" fill-rule="nonzero" fill-opacity="1" /><path clip-path="url(#clip430)" d="M51.6634 302.582 L59.3023 302.582 L59.3023 276.216 L50.9921 277.883 L50.9921 273.624 L59.256 271.957 L63.9319 271.957 L63.9319 302.582 L71.5707 302.582 L71.5707 306.517 L51.6634 306.517 L51.6634 302.582 Z" fill="#000000" fill-rule="nonzero" fill-opacity="1" /><path clip-path="url(#clip430)" d="M95.1817 287.883 Q98.5382 288.601 100.413 290.869 Q102.311 293.138 102.311 296.471 Q102.311 301.587 98.7928 304.388 Q95.2743 307.189 88.7928 307.189 Q86.6169 307.189 84.3021 306.749 Q82.0105 306.332 79.5568 305.476 L79.5568 300.962 Q81.5012 302.096 83.816 302.675 Q86.1308 303.253 88.654 303.253 Q93.0521 303.253 95.3437 301.517 Q97.6585 299.781 97.6585 296.471 Q97.6585 293.415 95.5058 291.702 Q93.3762 289.966 89.5567 289.966 L85.529 289.966 L85.529 286.124 L89.7419 286.124 Q93.191 286.124 95.0197 284.758 Q96.8484 283.369 96.8484 280.777 Q96.8484 278.115 94.9502 276.703 Q93.0752 275.267 89.5567 275.267 Q87.6354 275.267 85.4364 275.684 Q83.2373 276.101 80.5984 276.98 L80.5984 272.814 Q83.2605 272.073 85.5753 271.703 Q87.9132 271.332 89.9734 271.332 Q95.2974 271.332 98.3993 273.763 Q101.501 276.17 101.501 280.291 Q101.501 283.161 99.8576 285.152 Q98.2141 287.119 95.1817 287.883 Z" fill="#000000" fill-rule="nonzero" fill-opacity="1" /><path clip-path="url(#clip430)" d="M111.177 300.638 L116.061 300.638 L116.061 306.517 L111.177 306.517 L111.177 300.638 Z" fill="#000000" fill-rule="nonzero" fill-opacity="1" /><path clip-path="url(#clip430)" d="M136.246 275.036 Q132.635 275.036 130.807 278.601 Q129.001 282.142 129.001 289.272 Q129.001 296.378 130.807 299.943 Q132.635 303.485 136.246 303.485 Q139.881 303.485 141.686 299.943 Q143.515 296.378 143.515 289.272 Q143.515 282.142 141.686 278.601 Q139.881 275.036 136.246 275.036 M136.246 271.332 Q142.056 271.332 145.112 275.939 Q148.191 280.522 148.191 289.272 Q148.191 297.999 145.112 302.605 Q142.056 307.189 136.246 307.189 Q130.436 307.189 127.357 302.605 Q124.302 297.999 124.302 289.272 Q124.302 280.522 127.357 275.939 Q130.436 271.332 136.246 271.332 Z" fill="#000000" fill-rule="nonzero" fill-opacity="1" /><polyline clip-path="url(#clip432)" style="stroke:#009af9; stroke-linecap:round; stroke-linejoin:round; stroke-width:4; stroke-opacity:1; fill:none" points="245.565,87.9763 246.077,159.291 246.588,224.969 247.1,286.048 247.611,342.376 248.122,393.885 248.634,441.553 249.145,485.518 249.657,526.332 250.168,564.209 250.68,599.491 251.191,632.917 251.703,664.104 252.214,693.849 252.726,721.667 253.237,747.183 253.748,771.154 254.26,793.422 254.771,814.416 255.283,834.575 255.794,853.619 256.306,871.742 256.817,888.905 257.329,905.163 257.84,920.598 258.352,935.338 258.863,949.369 259.374,962.498 259.886,975.032 260.397,987.197 260.909,998.828 261.42,1009.81 261.932,1020.35 262.443,1030.78 262.955,1040.79 263.466,1050.1 263.978,1059.06 264.489,1067.76 265,1076.13 265.512,1084.22 266.023,1092.03 266.535,1099.68 267.046,1107.07 267.558,1114.06 268.069,1120.83 268.581,1127.32 269.092,1133.61 269.604,1139.78 270.115,1145.76 270.626,1151.52 271.138,1157.12 271.649,1162.7 272.161,1168.13 272.672,1173.44 273.184,1178.6 273.695,1183.5 274.207,1188.27 274.718,1192.95 275.23,1197.5 275.741,1201.91 276.252,1206.21 276.764,1210.51 277.275,1214.69 277.787,1218.72 278.298,1222.65 278.81,1226.52 279.321,1230.29 279.833,1233.88 280.344,1237.39 280.855,1240.93 281.367,1244.38 281.878,1247.7 282.39,1250.95 282.901,1254.08 283.413,1257.14 283.924,1260.19 284.436,1263.18 284.947,1266.06 285.459,1268.88 285.97,1271.72 286.481,1274.5 286.993,1277.21 287.504,1279.86 288.016,1282.46 288.527,1285.01 289.039,1287.43 289.55,1289.8 290.062,1292.18 290.573,1294.5 291.085,1296.81 291.596,1299.08 292.107,1301.31 292.619,1303.49 293.13,1305.61 293.642,1307.7 294.153,1309.73 294.665,1311.72 295.176,1313.66 295.688,1315.56 296.199,1317.39 296.711,1319.19 297.222,1321.01 297.733,1322.79 298.245,1324.52 298.756,1326.22 299.268,1327.93 299.779,1329.61 300.291,1331.25 300.802,1332.86 301.314,1334.46 301.825,1336.03 302.337,1337.56 302.848,1339.05 303.359,1340.53 303.871,1341.98 304.382,1343.41 304.894,1344.81 305.405,1346.18 305.917,1347.52 306.428,1348.88 306.94,1350.21 307.451,1351.52 307.963,1352.81 308.474,1354.08 308.985,1355.33 309.497,1356.55 310.008,1357.76 310.52,1358.94 311.031,1360.11 311.543,1361.2 312.054,1362.28 312.566,1363.4 313.077,1364.5 313.589,1365.6 314.1,1366.68 314.611,1367.72 315.123,1368.75 315.634,1369.7 316.146,1370.64 316.657,1371.61 317.169,1372.56 317.68,1373.49 318.192,1374.41 318.703,1375.35 319.215,1376.27 319.726,1377.17 320.237,1378.07 320.749,1378.97 321.26,1379.86 321.772,1380.68 322.283,1381.49 322.795,1382.32 323.306,1383.14 323.818,1383.94 324.329,1384.71 324.841,1385.45 325.352,1386.17 325.863,1386.91 326.375,1387.64 326.886,1388.34 327.398,1389.04 327.909,1389.73 328.421,1390.41 328.932,1391.07 329.444,1391.72 329.955,1392.36 330.467,1392.99 330.978,1393.61 331.489,1394.22 332.001,1394.84 332.512,1395.44 333.024,1396.03 333.535,1396.61 334.047,1397.19 334.558,1397.77 335.07,1398.34 335.581,1398.91 336.093,1399.49 336.604,1400.06 337.115,1400.6 337.627,1401.14 338.138,1401.63 338.65,1402.11 339.161,1402.63 339.673,1403.14 340.184,1403.65 340.696,1404.16 341.207,1404.65 341.719,1405.14 342.23,1405.6 342.741,1406.06 343.253,1406.52 343.764,1406.97 344.276,1407.45 344.787,1407.91 345.299,1408.36 345.81,1408.81 346.322,1409.2 346.833,1409.59 347.345,1410.04 347.856,1410.48 348.367,1410.89 348.879,1411.3 349.39,1411.63 349.902,1411.95 350.413,1412.32 350.925,1412.68 351.436,1413.06 351.948,1413.44 352.459,1413.77 352.971,1414.1 353.482,1414.46 353.993,1414.81 354.505,1415.16 355.016,1415.51 355.528,1415.86 356.039,1416.21 356.551,1416.5 357.062,1416.78 357.574,1417.13 358.085,1417.47 358.597,1417.76 359.108,1418.05 359.619,1418.37 360.131,1418.67 360.642,1418.95 361.154,1419.22 361.665,1419.5 362.177,1419.77 362.688,1420.07 363.2,1420.37 363.711,1420.64 364.223,1420.91 364.734,1421.18 365.245,1421.45 365.757,1421.7 366.268,1421.94 366.78,1422.2 367.291,1422.45 367.803,1422.69 368.314,1422.94 368.826,1423.15 369.337,1423.36 369.849,1423.62 370.36,1423.87 370.871,1424.1 371.383,1424.32 371.894,1424.57 372.406,1424.81 372.917,1425.03 373.429,1425.24 373.94,1425.44 374.452,1425.64 374.963,1425.84 375.474,1426.04 375.986,1426.21 376.497,1426.39 377.009,1426.61 377.52,1426.84 378.032,1427.04 378.543,1427.23 379.055,1427.43 379.566,1427.63 380.078,1427.83 380.589,1428.03 381.1,1428.21 381.612,1428.4 382.123,1428.57 382.635,1428.74 383.146,1428.93 383.658,1429.11 384.169,1429.29 384.681,1429.46 385.192,1429.62 385.704,1429.77 386.215,1429.93 386.726,1430.08 387.238,1430.22 387.749,1430.37 388.261,1430.53 388.772,1430.69 389.284,1430.85 389.795,1431 390.307,1431.15 390.818,1431.3 391.33,1431.46 391.841,1431.61 392.352,1431.76 392.864,1431.9 393.375,1432.09 393.887,1432.26 394.398,1432.4 394.91,1432.54 395.421,1432.64 395.933,1432.75 396.444,1432.87 396.956,1433 397.467,1433.12 397.978,1433.24 398.49,1433.33 399.001,1433.42 399.513,1433.55 400.024,1433.68 400.536,1433.79 401.047,1433.9 401.559,1434.01 402.07,1434.13 402.582,1434.23 403.093,1434.34 403.604,1434.44 404.116,1434.55 404.627,1434.64 405.139,1434.73 405.65,1434.85 406.162,1434.96 406.673,1435.06 407.185,1435.16 407.696,1435.29 408.208,1435.42 408.719,1435.51 409.23,1435.6 409.742,1435.7 410.253,1435.79 410.765,1435.9 411.276,1436.01 411.788,1436.12 412.299,1436.24 412.811,1436.34 413.322,1436.43 413.834,1436.53 414.345,1436.62 414.856,1436.7 415.368,1436.78 415.879,1436.85 416.391,1436.92 416.902,1437.01 417.414,1437.1 417.925,1437.21 418.437,1437.31 418.948,1437.38 419.46,1437.45 419.971,1437.53 420.482,1437.6 420.994,1437.68 421.505,1437.75 422.017,1437.79 422.528,1437.83 423.04,1437.92 423.551,1438.01 424.063,1438.08 424.574,1438.15 425.086,1438.24 425.597,1438.33 426.108,1438.4 426.62,1438.48 427.131,1438.53 427.643,1438.58 428.154,1438.65 428.666,1438.72 429.177,1438.81 429.689,1438.9 430.2,1438.96 430.712,1439.02 431.223,1439.05 431.734,1439.08 432.246,1439.14 432.757,1439.19 433.269,1439.25 433.78,1439.31 434.292,1439.34 434.803,1439.38 435.315,1439.43 435.826,1439.47 436.338,1439.53 436.849,1439.59 437.36,1439.67 437.872,1439.74 438.383,1439.8 438.895,1439.86 439.406,1439.89 439.918,1439.93 440.429,1439.99 440.941,1440.05 441.452,1440.09 441.964,1440.13 442.475,1440.18 442.986,1440.24 443.498,1440.27 444.009,1440.3 444.521,1440.32 445.032,1440.35 445.544,1440.4 446.055,1440.45 446.567,1440.5 447.078,1440.55 447.59,1440.61 448.101,1440.67 448.612,1440.71 449.124,1440.74 449.635,1440.77 450.147,1440.79 450.658,1440.81 451.17,1440.83 451.681,1440.89 452.193,1440.95 452.704,1441.01 453.216,1441.07 453.727,1441.09 454.238,1441.12 454.75,1441.13 455.261,1441.15 455.773,1441.19 456.284,1441.24 456.796,1441.26 457.307,1441.29 457.819,1441.33 458.33,1441.37 458.842,1441.43 459.353,1441.48 459.864,1441.5 460.376,1441.52 460.887,1441.55 461.399,1441.58 461.91,1441.61 462.422,1441.64 462.933,1441.65 463.445,1441.65 463.956,1441.7 464.468,1441.76 464.979,1441.8 465.49,1441.84 466.002,1441.84 466.513,1441.84 467.025,1441.83 467.536,1441.82 468.048,1441.84 468.559,1441.86 469.071,1441.9 469.582,1441.95 470.094,1441.98 470.605,1442.02 471.116,1442.06 471.628,1442.09 472.139,1442.13 472.651,1442.17 473.162,1442.19 473.674,1442.22 474.185,1442.27 474.697,1442.32 475.208,1442.33 475.719,1442.35 476.231,1442.36 476.742,1442.37 477.254,1442.39 477.765,1442.41 478.277,1442.45 478.788,1442.48 479.3,1442.51 479.811,1442.53 480.323,1442.56 480.834,1442.58 481.345,1442.59 481.857,1442.59 482.368,1442.61 482.88,1442.63 483.391,1442.63 483.903,1442.64 484.414,1442.66 484.926,1442.68 485.437,1442.7 485.949,1442.73 486.46,1442.75 486.971,1442.78 487.483,1442.79 487.994,1442.8 488.506,1442.83 489.017,1442.86 489.529,1442.87 490.04,1442.88 490.552,1442.9 491.063,1442.93 491.575,1442.97 492.086,1443.02 492.597,1443.04 493.109,1443.06 493.62,1443.08 494.132,1443.1 494.643,1443.13 495.155,1443.17 495.666,1443.18 496.178,1443.2 496.689,1443.2 497.201,1443.21 497.712,1443.21 498.223,1443.21 498.735,1443.23 499.246,1443.24 499.758,1443.27 500.269,1443.3 500.781,1443.33 501.292,1443.36 501.804,1443.36 502.315,1443.37 502.827,1443.4 503.338,1443.43 503.849,1443.46 504.361,1443.48 504.872,1443.5 505.384,1443.51 505.895,1443.52 506.407,1443.53 506.918,1443.52 507.43,1443.52 507.941,1443.53 508.453,1443.54 508.964,1443.55 509.475,1443.55 509.987,1443.59 510.498,1443.63 511.01,1443.64 511.521,1443.66 512.033,1443.67 512.544,1443.68 513.056,1443.69 513.567,1443.69 514.079,1443.7 514.59,1443.71 515.101,1443.72 515.613,1443.73 516.124,1443.73 516.636,1443.73 517.147,1443.76 517.659,1443.79 518.17,1443.8 518.682,1443.81 519.193,1443.85 519.705,1443.88 520.216,1443.88 520.727,1443.89 521.239,1443.88 521.75,1443.88 522.262,1443.89 522.773,1443.9 523.285,1443.87 523.796,1443.84 524.308,1443.83 524.819,1443.83 525.331,1443.84 525.842,1443.85 526.353,1443.87 526.865,1443.88 527.376,1443.88 527.888,1443.87 528.399,1443.89 528.911,1443.91 529.422,1443.88 529.934,1443.86 530.445,1443.87 530.957,1443.88 531.468,1443.9 531.979,1443.93 532.491,1443.91 533.002,1443.9 533.514,1443.91 534.025,1443.92 534.537,1443.91 535.048,1443.91 535.56,1443.92 536.071,1443.94 536.583,1443.93 537.094,1443.92 537.605,1443.94 538.117,1443.96 538.628,1443.99 539.14,1444.01 539.651,1444 540.163,1443.99 540.674,1444 541.186,1444 541.697,1444.03 542.209,1444.06 542.72,1444.07 543.231,1444.09 543.743,1444.07 544.254,1444.05 544.766,1444.07 545.277,1444.09 545.789,1444.09 546.3,1444.08 546.812,1444.08 547.323,1444.09 547.835,1444.1 548.346,1444.12 548.857,1444.15 549.369,1444.18 549.88,1444.19 550.392,1444.2 550.903,1444.21 551.415,1444.22 551.926,1444.23 552.438,1444.23 552.949,1444.21 553.461,1444.2 553.972,1444.21 554.483,1444.21 554.995,1444.21 555.506,1444.21 556.018,1444.22 556.529,1444.23 557.041,1444.22 557.552,1444.21 558.064,1444.22 558.575,1444.24 559.087,1444.24 559.598,1444.24 560.109,1444.26 560.621,1444.27 561.132,1444.26 561.644,1444.26 562.155,1444.26 562.667,1444.27 563.178,1444.28 563.69,1444.28 564.201,1444.28 564.713,1444.29 565.224,1444.28 565.735,1444.28 566.247,1444.28 566.758,1444.28 567.27,1444.25 567.781,1444.22 568.293,1444.23 568.804,1444.25 569.316,1444.26 569.827,1444.27 570.338,1444.28 570.85,1444.29 571.361,1444.33 571.873,1444.36 572.384,1444.36 572.896,1444.36 573.407,1444.37 573.919,1444.39 574.43,1444.41 574.942,1444.42 575.453,1444.41 575.964,1444.41 576.476,1444.41 576.987,1444.41 577.499,1444.4 578.01,1444.39 578.522,1444.4 579.033,1444.41 579.545,1444.41 580.056,1444.42 580.568,1444.41 581.079,1444.41 581.59,1444.42 582.102,1444.43 582.613,1444.44 583.125,1444.45 583.636,1444.46 584.148,1444.48 584.659,1444.47 585.171,1444.46 585.682,1444.45 586.194,1444.45 586.705,1444.48 587.216,1444.5 587.728,1444.51 588.239,1444.52 588.751,1444.54 589.262,1444.55 589.774,1444.54 590.285,1444.54 590.797,1444.53 591.308,1444.52 591.82,1444.53 592.331,1444.55 592.842,1444.55 593.354,1444.55 593.865,1444.54 594.377,1444.53 594.888,1444.53 595.4,1444.54 595.911,1444.56 596.423,1444.58 596.934,1444.59 597.446,1444.61 597.957,1444.61 598.468,1444.62 598.98,1444.64 599.491,1444.65 600.003,1444.66 600.514,1444.68 601.026,1444.68 601.537,1444.69 602.049,1444.69 602.56,1444.7 603.072,1444.7 603.583,1444.7 604.094,1444.72 604.606,1444.73 605.117,1444.73 605.629,1444.72 606.14,1444.72 606.652,1444.71 607.163,1444.72 607.675,1444.74 608.186,1444.77 608.698,1444.79 609.209,1444.79 609.72,1444.8 610.232,1444.82 610.743,1444.84 611.255,1444.83 611.766,1444.83 612.278,1444.85 612.789,1444.87 613.301,1444.89 613.812,1444.91 614.324,1444.92 614.835,1444.92 615.346,1444.93 615.858,1444.93 616.369,1444.92 616.881,1444.91 617.392,1444.91 617.904,1444.9 618.415,1444.89 618.927,1444.88 619.438,1444.89 619.95,1444.9 620.461,1444.89 620.972,1444.88 621.484,1444.87 621.995,1444.85 622.507,1444.87 623.018,1444.88 623.53,1444.88 624.041,1444.88 624.553,1444.9 625.064,1444.92 625.576,1444.92 626.087,1444.93 626.598,1444.94 627.11,1444.94 627.621,1444.93 628.133,1444.92 628.644,1444.95 629.156,1444.97 629.667,1444.95 630.179,1444.93 630.69,1444.95 631.202,1444.96 631.713,1444.96 632.224,1444.96 632.736,1444.96 633.247,1444.96 633.759,1444.96 634.27,1444.96 634.782,1444.98 635.293,1444.99 635.805,1444.99 636.316,1444.99 636.828,1445.01 637.339,1445.03 637.85,1445.04 638.362,1445.06 638.873,1445.04 639.385,1445.01 639.896,1445.01 640.408,1445 640.919,1445.01 641.431,1445.01 641.942,1445.02 642.454,1445.02 642.965,1445.03 643.476,1445.03 643.988,1445.04 644.499,1445.06 645.011,1445.06 645.522,1445.07 646.034,1445.07 646.545,1445.07 647.057,1445.1 647.568,1445.13 648.08,1445.15 648.591,1445.17 649.102,1445.18 649.614,1445.18 650.125,1445.16 650.637,1445.14 651.148,1445.16 651.66,1445.18 652.171,1445.15 652.683,1445.12 653.194,1445.13 653.706,1445.13 654.217,1445.14 654.728,1445.14 655.24,1445.13 655.751,1445.12 656.263,1445.1 656.774,1445.07 657.286,1445.07 657.797,1445.06 658.309,1445.07 658.82,1445.07 659.332,1445.1 659.843,1445.13 660.354,1445.13 660.866,1445.14 661.377,1445.13 661.889,1445.12 662.4,1445.12 662.912,1445.11 663.423,1445.11 663.935,1445.12 664.446,1445.11 664.957,1445.11 665.469,1445.11 665.98,1445.12 666.492,1445.12 667.003,1445.12 667.515,1445.11 668.026,1445.09 668.538,1445.08 669.049,1445.08 669.561,1445.1 670.072,1445.12 670.583,1445.1 671.095,1445.09 671.606,1445.1 672.118,1445.1 672.629,1445.11 673.141,1445.11 673.652,1445.13 674.164,1445.15 674.675,1445.16 675.187,1445.17 675.698,1445.16 676.209,1445.16 676.721,1445.15 677.232,1445.14 677.744,1445.12 678.255,1445.11 678.767,1445.11 679.278,1445.12 679.79,1445.12 680.301,1445.12 680.813,1445.13 681.324,1445.14 681.835,1445.14 682.347,1445.14 682.858,1445.13 683.37,1445.13 683.881,1445.12 684.393,1445.12 684.904,1445.12 685.416,1445.12 685.927,1445.12 686.439,1445.13 686.95,1445.15 687.461,1445.17 687.973,1445.17 688.484,1445.17 688.996,1445.17 689.507,1445.16 690.019,1445.19 690.53,1445.22 691.042,1445.22 691.553,1445.22 692.065,1445.2 692.576,1445.18 693.087,1445.16 693.599,1445.15 694.11,1445.16 694.622,1445.17 695.133,1445.19 695.645,1445.21 696.156,1445.19 696.668,1445.18 697.179,1445.19 697.691,1445.2 698.202,1445.19 698.713,1445.19 699.225,1445.19 699.736,1445.2 700.248,1445.2 700.759,1445.2 701.271,1445.18 701.782,1445.16 702.294,1445.15 702.805,1445.14 703.317,1445.16 703.828,1445.18 704.339,1445.17 704.851,1445.17 705.362,1445.16 705.874,1445.15 706.385,1445.14 706.897,1445.14 707.408,1445.16 707.92,1445.18 708.431,1445.16 708.943,1445.13 709.454,1445.13 709.965,1445.12 710.477,1445.1 710.988,1445.08 711.5,1445.06 712.011,1445.05 712.523,1445.05 713.034,1445.04 713.546,1445.05 714.057,1445.05 714.569,1445.05 715.08,1445.05 715.591,1445.04 716.103,1445.03 716.614,1445.03 717.126,1445.03 717.637,1445.04 718.149,1445.05 718.66,1445.07 719.172,1445.09 719.683,1445.1 720.195,1445.11 720.706,1445.12 721.217,1445.12 721.729,1445.12 722.24,1445.13 722.752,1445.14 723.263,1445.15 723.775,1445.16 724.286,1445.17 724.798,1445.16 725.309,1445.15 725.821,1445.15 726.332,1445.14 726.843,1445.16 727.355,1445.17 727.866,1445.18 728.378,1445.18 728.889,1445.18 729.401,1445.17 729.912,1445.17 730.424,1445.18 730.935,1445.14 731.447,1445.1 731.958,1445.11 732.469,1445.12 732.981,1445.1 733.492,1445.09 734.004,1445.08 734.515,1445.07 735.027,1445.05 735.538,1445.03 736.05,1445.05 736.561,1445.07 737.073,1445.06 737.584,1445.04 738.095,1445.04 738.607,1445.05 739.118,1445.04 739.63,1445.03 740.141,1445.03 740.653,1445.03 741.164,1445.02 741.676,1445.01 742.187,1444.99 742.699,1444.97 743.21,1444.97 743.721,1444.98 744.233,1444.99 744.744,1445.01 745.256,1445.02 745.767,1445.03 746.279,1445.04 746.79,1445.04 747.302,1445.03 747.813,1445.01 748.325,1445.03 748.836,1445.05 749.347,1445.05 749.859,1445.06 750.37,1445.07 750.882,1445.07 751.393,1445.05 751.905,1445.03 752.416,1445.04 752.928,1445.04 753.439,1445.06 753.951,1445.08 754.462,1445.08 754.973,1445.09 755.485,1445.11 755.996,1445.13 756.508,1445.13 757.019,1445.13 757.531,1445.12 758.042,1445.11 758.554,1445.12 759.065,1445.12 759.576,1445.12 760.088,1445.13 760.599,1445.14 761.111,1445.16 761.622,1445.16 762.134,1445.16 762.645,1445.16 763.157,1445.17 763.668,1445.17 764.18,1445.18 764.691,1445.21 765.202,1445.23 765.714,1445.21 766.225,1445.18 766.737,1445.19 767.248,1445.19 767.76,1445.18 768.271,1445.17 768.783,1445.17 769.294,1445.18 769.806,1445.18 770.317,1445.18 770.828,1445.2 771.34,1445.21 771.851,1445.21 772.363,1445.2 772.874,1445.22 773.386,1445.23 773.897,1445.24 774.409,1445.25 774.92,1445.27 775.432,1445.3 775.943,1445.31 776.454,1445.33 776.966,1445.31 777.477,1445.29 777.989,1445.29 778.5,1445.29 779.012,1445.28 779.523,1445.26 780.035,1445.27 780.546,1445.27 781.058,1445.28 781.569,1445.28 782.08,1445.29 782.592,1445.29 783.103,1445.27 783.615,1445.26 784.126,1445.26 784.638,1445.26 785.149,1445.25 785.661,1445.24 786.172,1445.2 786.684,1445.16 787.195,1445.17 787.706,1445.18 788.218,1445.18 788.729,1445.19 789.241,1445.17 789.752,1445.14 790.264,1445.15 790.775,1445.16 791.287,1445.16 791.798,1445.15 792.31,1445.17 792.821,1445.18 793.332,1445.18 793.844,1445.17 794.355,1445.17 794.867,1445.17 795.378,1445.16 795.89,1445.16 796.401,1445.14 796.913,1445.13 797.424,1445.12 797.936,1445.12 798.447,1445.14 798.958,1445.15 799.47,1445.12 799.981,1445.1 800.493,1445.08 801.004,1445.06 801.516,1445.08 802.027,1445.1 802.539,1445.11 803.05,1445.12 803.562,1445.12 804.073,1445.12 804.584,1445.13 805.096,1445.15 805.607,1445.15 806.119,1445.14 806.63,1445.13 807.142,1445.12 807.653,1445.12 808.165,1445.12 808.676,1445.13 809.188,1445.14 809.699,1445.12 810.21,1445.1 810.722,1445.09 811.233,1445.08 811.745,1445.08 812.256,1445.08 812.768,1445.08 813.279,1445.07 813.791,1445.06 814.302,1445.06 814.814,1445.07 815.325,1445.08 815.836,1445.12 816.348,1445.15 816.859,1445.17 817.371,1445.19 817.882,1445.21 818.394,1445.23 818.905,1445.24 819.417,1445.24 819.928,1445.24 820.44,1445.25 820.951,1445.23 821.462,1445.21 821.974,1445.23 822.485,1445.25 822.997,1445.24 823.508,1445.24 824.02,1445.23 824.531,1445.23 825.043,1445.24 825.554,1445.24 826.066,1445.24 826.577,1445.24 827.088,1445.23 827.6,1445.22 828.111,1445.22 828.623,1445.22 829.134,1445.25 829.646,1445.27 830.157,1445.26 830.669,1445.24 831.18,1445.22 831.692,1445.2 832.203,1445.21 832.714,1445.22 833.226,1445.22 833.737,1445.23 834.249,1445.21 834.76,1445.19 835.272,1445.2 835.783,1445.21 836.295,1445.22 836.806,1445.22 837.318,1445.23 837.829,1445.24 838.34,1445.22 838.852,1445.2 839.363,1445.19 839.875,1445.17 840.386,1445.17 840.898,1445.16 841.409,1445.15 841.921,1445.14 842.432,1445.14 842.944,1445.14 843.455,1445.15 843.966,1445.15 844.478,1445.14 844.989,1445.13 845.501,1445.14 846.012,1445.15 846.524,1445.15 847.035,1445.15 847.547,1445.15 848.058,1445.15 848.57,1445.14 849.081,1445.12 849.592,1445.12 850.104,1445.12 850.615,1445.13 851.127,1445.13 851.638,1445.12 852.15,1445.1 852.661,1445.12 853.173,1445.14 853.684,1445.11 854.196,1445.08 854.707,1445.08 855.218,1445.08 855.73,1445.08 856.241,1445.07 856.753,1445.06 857.264,1445.05 857.776,1445.07 858.287,1445.09 858.799,1445.1 859.31,1445.1 859.821,1445.11 860.333,1445.12 860.844,1445.13 861.356,1445.15 861.867,1445.15 862.379,1445.15 862.89,1445.15 863.402,1445.15 863.913,1445.15 864.425,1445.16 864.936,1445.16 865.447,1445.16 865.959,1445.15 866.47,1445.15 866.982,1445.16 867.493,1445.17 868.005,1445.17 868.516,1445.17 869.028,1445.18 869.539,1445.19 870.051,1445.18 870.562,1445.17 871.073,1445.16 871.585,1445.16 872.096,1445.17 872.608,1445.18 873.119,1445.2 873.631,1445.21 874.142,1445.22 874.654,1445.23 875.165,1445.22 875.677,1445.21 876.188,1445.2 876.699,1445.19 877.211,1445.21 877.722,1445.22 878.234,1445.22 878.745,1445.22 879.257,1445.21 879.768,1445.2 880.28,1445.22 880.791,1445.24 881.303,1445.24 881.814,1445.24 882.325,1445.23 882.837,1445.23 883.348,1445.23 883.86,1445.24 884.371,1445.25 884.883,1445.26 885.394,1445.28 885.906,1445.3 886.417,1445.29 886.929,1445.28 887.44,1445.29 887.951,1445.3 888.463,1445.3 888.974,1445.29 889.486,1445.27 889.997,1445.25 890.509,1445.26 891.02,1445.28 891.532,1445.26 892.043,1445.24 892.555,1445.25 893.066,1445.26 893.577,1445.27 894.089,1445.29 894.6,1445.29 895.112,1445.29 895.623,1445.28 896.135,1445.27 896.646,1445.28 897.158,1445.29 897.669,1445.27 898.181,1445.24 898.692,1445.24 899.203,1445.24 899.715,1445.25 900.226,1445.25 900.738,1445.23 901.249,1445.2 901.761,1445.19 902.272,1445.17 902.784,1445.17 903.295,1445.17 903.807,1445.19 904.318,1445.21 904.829,1445.22 905.341,1445.22 905.852,1445.2 906.364,1445.18 906.875,1445.18 907.387,1445.18 907.898,1445.17 908.41,1445.17 908.921,1445.17 909.433,1445.17 909.944,1445.18 910.455,1445.19 910.967,1445.17 911.478,1445.15 911.99,1445.15 912.501,1445.15 913.013,1445.15 913.524,1445.15 914.036,1445.17 914.547,1445.2 915.059,1445.21 915.57,1445.22 916.081,1445.21 916.593,1445.2 917.104,1445.18 917.616,1445.16 918.127,1445.18 918.639,1445.19 919.15,1445.2 919.662,1445.21 920.173,1445.23 920.685,1445.25 921.196,1445.25 921.707,1445.26 922.219,1445.26 922.73,1445.26 923.242,1445.26 923.753,1445.26 924.265,1445.27 924.776,1445.27 925.288,1445.25 925.799,1445.23 926.311,1445.24 926.822,1445.25 927.333,1445.24 927.845,1445.23 928.356,1445.22 928.868,1445.2 929.379,1445.22 929.891,1445.24 930.402,1445.24 930.914,1445.25 931.425,1445.26 931.937,1445.27 932.448,1445.27 932.959,1445.27 933.471,1445.25 933.982,1445.23 934.494,1445.22 935.005,1445.21 935.517,1445.2 936.028,1445.19 936.54,1445.2 937.051,1445.21 937.563,1445.2 938.074,1445.19 938.585,1445.18 939.097,1445.16 939.608,1445.17 940.12,1445.18 940.631,1445.16 941.143,1445.14 941.654,1445.14 942.166,1445.14 942.677,1445.13 943.189,1445.13 943.7,1445.14 944.211,1445.15 944.723,1445.16 945.234,1445.17 945.746,1445.22 946.257,1445.26 946.769,1445.26 947.28,1445.25 947.792,1445.26 948.303,1445.27 948.815,1445.29 949.326,1445.3 949.837,1445.28 950.349,1445.27 950.86,1445.26 951.372,1445.26 951.883,1445.25 952.395,1445.24 952.906,1445.25 953.418,1445.27 953.929,1445.26 954.44,1445.25 954.952,1445.25 955.463,1445.26 955.975,1445.26 956.486,1445.26 956.998,1445.25 957.509,1445.25 958.021,1445.26 958.532,1445.27 959.044,1445.3 959.555,1445.32 960.066,1445.31 960.578,1445.3 961.089,1445.3 961.601,1445.3 962.112,1445.27 962.624,1445.24 963.135,1445.25 963.647,1445.25 964.158,1445.24 964.67,1445.22 965.181,1445.22 965.692,1445.21 966.204,1445.21 966.715,1445.21 967.227,1445.19 967.738,1445.18 968.25,1445.18 968.761,1445.18 969.273,1445.18 969.784,1445.18 970.296,1445.18 970.807,1445.18 971.318,1445.19 971.83,1445.21 972.341,1445.22 972.853,1445.23 973.364,1445.2 973.876,1445.18 974.387,1445.19 974.899,1445.21 975.41,1445.18 975.922,1445.14 976.433,1445.16 976.944,1445.18 977.456,1445.18 977.967,1445.19 978.479,1445.22 978.99,1445.25 979.502,1445.24 980.013,1445.24 980.525,1445.23 981.036,1445.22 981.548,1445.23 982.059,1445.25 982.57,1445.26 983.082,1445.27 983.593,1445.26 984.105,1445.24 984.616,1445.22 985.128,1445.2 985.639,1445.2 986.151,1445.2 986.662,1445.22 987.174,1445.24 987.685,1445.21 988.196,1445.19 988.708,1445.19 989.219,1445.19 989.731,1445.19 990.242,1445.18 990.754,1445.19 991.265,1445.2 991.777,1445.2 992.288,1445.2 992.8,1445.21 993.311,1445.22 993.822,1445.23 994.334,1445.24 994.845,1445.24 995.357,1445.25 995.868,1445.24 996.38,1445.24 996.891,1445.23 997.403,1445.21 997.914,1445.21 998.426,1445.21 998.937,1445.19 999.448,1445.18 999.96,1445.2 1000.47,1445.23 1000.98,1445.21 1001.49,1445.18 1002.01,1445.19 1002.52,1445.2 1003.03,1445.19 1003.54,1445.18 1004.05,1445.18 1004.56,1445.18 1005.07,1445.2 1005.59,1445.22 1006.1,1445.23 1006.61,1445.23 1007.12,1445.23 1007.63,1445.22 1008.14,1445.22 1008.65,1445.23 1009.17,1445.23 1009.68,1445.23 1010.19,1445.22 1010.7,1445.2 1011.21,1445.21 1011.72,1445.22 1012.23,1445.23 1012.75,1445.23 1013.26,1445.24 1013.77,1445.24 1014.28,1445.22 1014.79,1445.2 1015.3,1445.22 1015.81,1445.23 1016.33,1445.25 1016.84,1445.27 1017.35,1445.27 1017.86,1445.28 1018.37,1445.27 1018.88,1445.26 1019.4,1445.26 1019.91,1445.26 1020.42,1445.27 1020.93,1445.29 1021.44,1445.31 1021.95,1445.33 1022.46,1445.35 1022.98,1445.37 1023.49,1445.36 1024,1445.35 1024.51,1445.35 1025.02,1445.36 1025.53,1445.36 1026.04,1445.35 1026.56,1445.33 1027.07,1445.31 1027.58,1445.31 1028.09,1445.3 1028.6,1445.3 1029.11,1445.3 1029.62,1445.31 1030.14,1445.33 1030.65,1445.31 1031.16,1445.29 1031.67,1445.28 1032.18,1445.28 1032.69,1445.32 1033.2,1445.35 1033.72,1445.36 1034.23,1445.37 1034.74,1445.37 1035.25,1445.36 1035.76,1445.35 1036.27,1445.33 1036.78,1445.33 1037.3,1445.34 1037.81,1445.31 1038.32,1445.29 1038.83,1445.3 1039.34,1445.3 1039.85,1445.32 1040.36,1445.33 1040.88,1445.35 1041.39,1445.37 1041.9,1445.39 1042.41,1445.4 1042.92,1445.4 1043.43,1445.39 1043.94,1445.39 1044.46,1445.39 1044.97,1445.4 1045.48,1445.42 1045.99,1445.44 1046.5,1445.47 1047.01,1445.45 1047.53,1445.44 1048.04,1445.45 1048.55,1445.47 1049.06,1445.47 1049.57,1445.46 1050.08,1445.47 1050.59,1445.48 1051.11,1445.49 1051.62,1445.49 1052.13,1445.51 1052.64,1445.52 1053.15,1445.49 1053.66,1445.46 1054.17,1445.45 1054.69,1445.43 1055.2,1445.4 1055.71,1445.38 1056.22,1445.37 1056.73,1445.37 1057.24,1445.36 1057.75,1445.35 1058.27,1445.34 1058.78,1445.32 1059.29,1445.32 1059.8,1445.31 1060.31,1445.32 1060.82,1445.33 1061.33,1445.32 1061.85,1445.31 1062.36,1445.29 1062.87,1445.26 1063.38,1445.26 1063.89,1445.26 1064.4,1445.25 1064.91,1445.23 1065.43,1445.24 1065.94,1445.25 1066.45,1445.24 1066.96,1445.24 1067.47,1445.25 1067.98,1445.26 1068.49,1445.27 1069.01,1445.28 1069.52,1445.27 1070.03,1445.25 1070.54,1445.26 1071.05,1445.27 1071.56,1445.27 1072.07,1445.28 1072.59,1445.3 1073.1,1445.31 1073.61,1445.31 1074.12,1445.31 1074.63,1445.31 1075.14,1445.32 1075.66,1445.3 1076.17,1445.28 1076.68,1445.3 1077.19,1445.32 1077.7,1445.33 1078.21,1445.34 1078.72,1445.34 1079.24,1445.35 1079.75,1445.35 1080.26,1445.35 1080.77,1445.34 1081.28,1445.33 1081.79,1445.33 1082.3,1445.34 1082.82,1445.32 1083.33,1445.31 1083.84,1445.32 1084.35,1445.33 1084.86,1445.34 1085.37,1445.35 1085.88,1445.36 1086.4,1445.36 1086.91,1445.36 1087.42,1445.35 1087.93,1445.36 1088.44,1445.37 1088.95,1445.38 1089.46,1445.39 1089.98,1445.4 1090.49,1445.4 1091,1445.39 1091.51,1445.38 1092.02,1445.39 1092.53,1445.4 1093.04,1445.41 1093.56,1445.42 1094.07,1445.4 1094.58,1445.38 1095.09,1445.37 1095.6,1445.36 1096.11,1445.37 1096.62,1445.38 1097.14,1445.37 1097.65,1445.36 1098.16,1445.34 1098.67,1445.31 1099.18,1445.31 1099.69,1445.31 1100.2,1445.34 1100.72,1445.37 1101.23,1445.35 1101.74,1445.34 1102.25,1445.32 1102.76,1445.29 1103.27,1445.29 1103.79,1445.3 1104.3,1445.3 1104.81,1445.3 1105.32,1445.32 1105.83,1445.34 1106.34,1445.33 1106.85,1445.33 1107.37,1445.33 1107.88,1445.32 1108.39,1445.31 1108.9,1445.29 1109.41,1445.29 1109.92,1445.29 1110.43,1445.28 1110.95,1445.28 1111.46,1445.27 1111.97,1445.26 1112.48,1445.25 1112.99,1445.25 1113.5,1445.25 1114.01,1445.25 1114.53,1445.24 1115.04,1445.23 1115.55,1445.24 1116.06,1445.25 1116.57,1445.23 1117.08,1445.22 1117.59,1445.22 1118.11,1445.21 1118.62,1445.23 1119.13,1445.26 1119.64,1445.23 1120.15,1445.21 1120.66,1445.19 1121.17,1445.18 1121.69,1445.22 1122.2,1445.27 1122.71,1445.29 1123.22,1445.32 1123.73,1445.31 1124.24,1445.31 1124.75,1445.31 1125.27,1445.31 1125.78,1445.33 1126.29,1445.36 1126.8,1445.37 1127.31,1445.38 1127.82,1445.36 1128.33,1445.34 1128.85,1445.35 1129.36,1445.35 1129.87,1445.36 1130.38,1445.37 1130.89,1445.37 1131.4,1445.37 1131.92,1445.37 1132.43,1445.36 1132.94,1445.34 1133.45,1445.32 1133.96,1445.33 1134.47,1445.33 1134.98,1445.34 1135.5,1445.35 1136.01,1445.34 1136.52,1445.32 1137.03,1445.33 1137.54,1445.33 1138.05,1445.34 1138.56,1445.35 1139.08,1445.34 1139.59,1445.33 1140.1,1445.32 1140.61,1445.31 1141.12,1445.32 1141.63,1445.34 1142.14,1445.35 1142.66,1445.35 1143.17,1445.38 1143.68,1445.4 1144.19,1445.42 1144.7,1445.45 1145.21,1445.44 1145.72,1445.43 1146.24,1445.42 1146.75,1445.4 1147.26,1445.39 1147.77,1445.38 1148.28,1445.37 1148.79,1445.36 1149.3,1445.37 1149.82,1445.39 1150.33,1445.4 1150.84,1445.41 1151.35,1445.41 1151.86,1445.41 1152.37,1445.4 1152.88,1445.38 1153.4,1445.36 1153.91,1445.35 1154.42,1445.34 1154.93,1445.33 1155.44,1445.33 1155.95,1445.34 1156.46,1445.33 1156.98,1445.32 1157.49,1445.33 1158,1445.33 1158.51,1445.33 1159.02,1445.32 1159.53,1445.33 1160.05,1445.34 1160.56,1445.33 1161.07,1445.32 1161.58,1445.33 1162.09,1445.34 1162.6,1445.33 1163.11,1445.31 1163.63,1445.33 1164.14,1445.35 1164.65,1445.35 1165.16,1445.36 1165.67,1445.34 1166.18,1445.33 1166.69,1445.32 1167.21,1445.32 1167.72,1445.32 1168.23,1445.32 1168.74,1445.31 1169.25,1445.31 1169.76,1445.32 1170.27,1445.34 1170.79,1445.35 1171.3,1445.36 1171.81,1445.36 1172.32,1445.37 1172.83,1445.35 1173.34,1445.33 1173.85,1445.32 1174.37,1445.32 1174.88,1445.29 1175.39,1445.27 1175.9,1445.26 1176.41,1445.26 1176.92,1445.27 1177.43,1445.28 1177.95,1445.3 1178.46,1445.32 1178.97,1445.35 1179.48,1445.37 1179.99,1445.35 1180.5,1445.33 1181.01,1445.33 1181.53,1445.34 1182.04,1445.32 1182.55,1445.3 1183.06,1445.28 1183.57,1445.25 1184.08,1445.22 1184.59,1445.18 1185.11,1445.18 1185.62,1445.17 1186.13,1445.17 1186.64,1445.17 1187.15,1445.19 1187.66,1445.2 1188.18,1445.21 1188.69,1445.21 1189.2,1445.22 1189.71,1445.22 1190.22,1445.24 1190.73,1445.25 1191.24,1445.26 1191.76,1445.27 1192.27,1445.24 1192.78,1445.22 1193.29,1445.22 1193.8,1445.22 1194.31,1445.21 1194.82,1445.2 1195.34,1445.2 1195.85,1445.21 1196.36,1445.21 1196.87,1445.22 1197.38,1445.22 1197.89,1445.22 1198.4,1445.24 1198.92,1445.25 1199.43,1445.26 1199.94,1445.28 1200.45,1445.29 1200.96,1445.3 1201.47,1445.31 1201.98,1445.32 1202.5,1445.34 1203.01,1445.36 1203.52,1445.37 1204.03,1445.38 1204.54,1445.37 1205.05,1445.36 1205.56,1445.37 1206.08,1445.38 1206.59,1445.39 1207.1,1445.4 1207.61,1445.4 1208.12,1445.41 1208.63,1445.41 1209.14,1445.4 1209.66,1445.39 1210.17,1445.38 1210.68,1445.37 1211.19,1445.36 1211.7,1445.36 1212.21,1445.35 1212.72,1445.35 1213.24,1445.35 1213.75,1445.37 1214.26,1445.39 1214.77,1445.38 1215.28,1445.38 1215.79,1445.36 1216.3,1445.34 1216.82,1445.35 1217.33,1445.36 1217.84,1445.35 1218.35,1445.34 1218.86,1445.33 1219.37,1445.33 1219.89,1445.31 1220.4,1445.3 1220.91,1445.29 1221.42,1445.28 1221.93,1445.26 1222.44,1445.25 1222.95,1445.24 1223.47,1445.23 1223.98,1445.25 1224.49,1445.26 1225,1445.26 1225.51,1445.25 1226.02,1445.23 1226.53,1445.2 1227.05,1445.2 1227.56,1445.19 1228.07,1445.18 1228.58,1445.17 1229.09,1445.17 1229.6,1445.17 1230.11,1445.19 1230.63,1445.2 1231.14,1445.18 1231.65,1445.17 1232.16,1445.17 1232.67,1445.17 1233.18,1445.17 1233.69,1445.17 1234.21,1445.18 1234.72,1445.18 1235.23,1445.17 1235.74,1445.16 1236.25,1445.14 1236.76,1445.12 1237.27,1445.1 1237.79,1445.08 1238.3,1445.1 1238.81,1445.12 1239.32,1445.15 1239.83,1445.18 1240.34,1445.18 1240.85,1445.19 1241.37,1445.18 1241.88,1445.17 1242.39,1445.18 1242.9,1445.2 1243.41,1445.2 1243.92,1445.2 1244.43,1445.2 1244.95,1445.2 1245.46,1445.2 1245.97,1445.2 1246.48,1445.2 1246.99,1445.2 1247.5,1445.21 1248.02,1445.22 1248.53,1445.23 1249.04,1445.23 1249.55,1445.22 1250.06,1445.21 1250.57,1445.24 1251.08,1445.28 1251.6,1445.28 1252.11,1445.28 1252.62,1445.27 1253.13,1445.27 1253.64,1445.3 1254.15,1445.34 1254.66,1445.33 1255.18,1445.32 1255.69,1445.33 1256.2,1445.35 1256.71,1445.34 1257.22,1445.34 1257.73,1445.33 1258.24,1445.32 1258.76,1445.33 1259.27,1445.34 1259.78,1445.37 1260.29,1445.39 1260.8,1445.37 1261.31,1445.34 1261.82,1445.35 1262.34,1445.36 1262.85,1445.34 1263.36,1445.32 1263.87,1445.33 1264.38,1445.33 1264.89,1445.32 1265.4,1445.31 1265.92,1445.32 1266.43,1445.33 1266.94,1445.34 1267.45,1445.35 1267.96,1445.34 1268.47,1445.34 1268.98,1445.34 1269.5,1445.35 1270.01,1445.35 1270.52,1445.35 1271.03,1445.35 1271.54,1445.36 1272.05,1445.38 1272.56,1445.4 1273.08,1445.41 1273.59,1445.41 1274.1,1445.41 1274.61,1445.4 1275.12,1445.4 1275.63,1445.4 1276.15,1445.4 1276.66,1445.4 1277.17,1445.42 1277.68,1445.44 1278.19,1445.45 1278.7,1445.47 1279.21,1445.46 1279.73,1445.45 1280.24,1445.45 1280.75,1445.46 1281.26,1445.46 1281.77,1445.47 1282.28,1445.47 1282.79,1445.47 1283.31,1445.48 1283.82,1445.49 1284.33,1445.49 1284.84,1445.49 1285.35,1445.48 1285.86,1445.46 1286.37,1445.46 1286.89,1445.45 1287.4,1445.45 1287.91,1445.45 1288.42,1445.44 1288.93,1445.44 1289.44,1445.43 1289.95,1445.42 1290.47,1445.41 1290.98,1445.41 1291.49,1445.41 1292,1445.42 1292.51,1445.45 1293.02,1445.48 1293.53,1445.46 1294.05,1445.43 1294.56,1445.45 1295.07,1445.46 1295.58,1445.44 1296.09,1445.42 1296.6,1445.41 1297.11,1445.4 1297.63,1445.4 1298.14,1445.4 1298.65,1445.4 1299.16,1445.39 1299.67,1445.38 1300.18,1445.37 1300.69,1445.38 1301.21,1445.39 1301.72,1445.38 1302.23,1445.38 1302.74,1445.39 1303.25,1445.4 1303.76,1445.38 1304.28,1445.36 1304.79,1445.36 1305.3,1445.36 1305.81,1445.35 1306.32,1445.34 1306.83,1445.31 1307.34,1445.29 1307.86,1445.3 1308.37,1445.3 1308.88,1445.28 1309.39,1445.25 1309.9,1445.22 1310.41,1445.2 1310.92,1445.19 1311.44,1445.18 1311.95,1445.17 1312.46,1445.15 1312.97,1445.16 1313.48,1445.17 1313.99,1445.19 1314.5,1445.21 1315.02,1445.25 1315.53,1445.29 1316.04,1445.29 1316.55,1445.29 1317.06,1445.28 1317.57,1445.28 1318.08,1445.27 1318.6,1445.26 1319.11,1445.24 1319.62,1445.23 1320.13,1445.24 1320.64,1445.25 1321.15,1445.23 1321.66,1445.21 1322.18,1445.22 1322.69,1445.22 1323.2,1445.22 1323.71,1445.22 1324.22,1445.22 1324.73,1445.21 1325.24,1445.21 1325.76,1445.22 1326.27,1445.23 1326.78,1445.24 1327.29,1445.26 1327.8,1445.28 1328.31,1445.27 1328.82,1445.25 1329.34,1445.26 1329.85,1445.26 1330.36,1445.26 1330.87,1445.27 1331.38,1445.27 1331.89,1445.27 1332.41,1445.28 1332.92,1445.29 1333.43,1445.27 1333.94,1445.25 1334.45,1445.23 1334.96,1445.21 1335.47,1445.22 1335.99,1445.22 1336.5,1445.23 1337.01,1445.25 1337.52,1445.28 1338.03,1445.31 1338.54,1445.31 1339.05,1445.3 1339.57,1445.31 1340.08,1445.32 1340.59,1445.31 1341.1,1445.29 1341.61,1445.28 1342.12,1445.26 1342.63,1445.26 1343.15,1445.27 1343.66,1445.28 1344.17,1445.28 1344.68,1445.29 1345.19,1445.29 1345.7,1445.3 1346.21,1445.32 1346.73,1445.33 1347.24,1445.33 1347.75,1445.32 1348.26,1445.3 1348.77,1445.32 1349.28,1445.33 1349.79,1445.34 1350.31,1445.35 1350.82,1445.34 1351.33,1445.34 1351.84,1445.32 1352.35,1445.31 1352.86,1445.31 1353.37,1445.31 1353.89,1445.28 1354.4,1445.26 1354.91,1445.26 1355.42,1445.25 1355.93,1445.28 1356.44,1445.31 1356.95,1445.3 1357.47,1445.29 1357.98,1445.27 1358.49,1445.26 1359,1445.25 1359.51,1445.25 1360.02,1445.25 1360.54,1445.25 1361.05,1445.23 1361.56,1445.22 1362.07,1445.24 1362.58,1445.25 1363.09,1445.28 1363.6,1445.32 1364.12,1445.32 1364.63,1445.32 1365.14,1445.32 1365.65,1445.33 1366.16,1445.3 1366.67,1445.28 1367.18,1445.28 1367.7,1445.28 1368.21,1445.29 1368.72,1445.31 1369.23,1445.3 1369.74,1445.3 1370.25,1445.29 1370.76,1445.28 1371.28,1445.26 1371.79,1445.25 1372.3,1445.25 1372.81,1445.25 1373.32,1445.26 1373.83,1445.26 1374.34,1445.25 1374.86,1445.25 1375.37,1445.25 1375.88,1445.25 1376.39,1445.25 1376.9,1445.25 1377.41,1445.24 1377.92,1445.23 1378.44,1445.21 1378.95,1445.19 1379.46,1445.21 1379.97,1445.24 1380.48,1445.24 1380.99,1445.25 1381.5,1445.24 1382.02,1445.24 1382.53,1445.23 1383.04,1445.23 1383.55,1445.22 1384.06,1445.22 1384.57,1445.21 1385.08,1445.2 1385.6,1445.2 1386.11,1445.2 1386.62,1445.2 1387.13,1445.19 1387.64,1445.17 1388.15,1445.15 1388.66,1445.14 1389.18,1445.12 1389.69,1445.13 1390.2,1445.13 1390.71,1445.15 1391.22,1445.17 1391.73,1445.17 1392.25,1445.17 1392.76,1445.18 1393.27,1445.18 1393.78,1445.17 1394.29,1445.16 1394.8,1445.17 1395.31,1445.18 1395.83,1445.18 1396.34,1445.17 1396.85,1445.16 1397.36,1445.14 1397.87,1445.14 1398.38,1445.14 1398.89,1445.15 1399.41,1445.16 1399.92,1445.18 1400.43,1445.19 1400.94,1445.18 1401.45,1445.17 1401.96,1445.15 1402.47,1445.13 1402.99,1445.13 1403.5,1445.12 1404.01,1445.12 1404.52,1445.13 1405.03,1445.15 1405.54,1445.16 1406.05,1445.17 1406.57,1445.17 1407.08,1445.21 1407.59,1445.24 1408.1,1445.25 1408.61,1445.26 1409.12,1445.26 1409.63,1445.27 1410.15,1445.28 1410.66,1445.28 1411.17,1445.28 1411.68,1445.29 1412.19,1445.3 1412.7,1445.31 1413.21,1445.32 1413.73,1445.34 1414.24,1445.37 1414.75,1445.41 1415.26,1445.4 1415.77,1445.4 1416.28,1445.4 1416.79,1445.39 1417.31,1445.38 1417.82,1445.36 1418.33,1445.38 1418.84,1445.39 1419.35,1445.36 1419.86,1445.34 1420.38,1445.32 1420.89,1445.31 1421.4,1445.29 1421.91,1445.27 1422.42,1445.29 1422.93,1445.32 1423.44,1445.31 1423.96,1445.3 1424.47,1445.29 1424.98,1445.28 1425.49,1445.29 1426,1445.31 1426.51,1445.29 1427.02,1445.28 1427.54,1445.29 1428.05,1445.31 1428.56,1445.31 1429.07,1445.32 1429.58,1445.33 1430.09,1445.34 1430.6,1445.34 1431.12,1445.34 1431.63,1445.33 1432.14,1445.32 1432.65,1445.32 1433.16,1445.32 1433.67,1445.33 1434.18,1445.34 1434.7,1445.36 1435.21,1445.37 1435.72,1445.38 1436.23,1445.39 1436.74,1445.38 1437.25,1445.36 1437.76,1445.35 1438.28,1445.34 1438.79,1445.33 1439.3,1445.33 1439.81,1445.33 1440.32,1445.34 1440.83,1445.32 1441.34,1445.3 1441.86,1445.31 1442.37,1445.33 1442.88,1445.34 1443.39,1445.35 1443.9,1445.36 1444.41,1445.36 1444.92,1445.36 1445.44,1445.36 1445.95,1445.38 1446.46,1445.4 1446.97,1445.41 1447.48,1445.42 1447.99,1445.41 1448.51,1445.4 1449.02,1445.39 1449.53,1445.38 1450.04,1445.38 1450.55,1445.38 1451.06,1445.38 1451.57,1445.39 1452.09,1445.38 1452.6,1445.37 1453.11,1445.36 1453.62,1445.34 1454.13,1445.32 1454.64,1445.29 1455.15,1445.31 1455.67,1445.33 1456.18,1445.32 1456.69,1445.3 1457.2,1445.28 1457.71,1445.27 1458.22,1445.27 1458.73,1445.28 1459.25,1445.29 1459.76,1445.3 1460.27,1445.32 1460.78,1445.34 1461.29,1445.32 1461.8,1445.3 1462.31,1445.3 1462.83,1445.29 1463.34,1445.28 1463.85,1445.27 1464.36,1445.25 1464.87,1445.24 1465.38,1445.22 1465.89,1445.21 1466.41,1445.21 1466.92,1445.21 1467.43,1445.21 1467.94,1445.21 1468.45,1445.23 1468.96,1445.24 1469.47,1445.21 1469.99,1445.19 1470.5,1445.18 1471.01,1445.18 1471.52,1445.19 1472.03,1445.19 1472.54,1445.2 1473.05,1445.22 1473.57,1445.23 1474.08,1445.24 1474.59,1445.23 1475.1,1445.23 1475.61,1445.25 1476.12,1445.27 1476.64,1445.28 1477.15,1445.28 1477.66,1445.3 1478.17,1445.31 1478.68,1445.31 1479.19,1445.31 1479.7,1445.32 1480.22,1445.33 1480.73,1445.34 1481.24,1445.35 1481.75,1445.33 1482.26,1445.31 1482.77,1445.3 1483.28,1445.28 1483.8,1445.31 1484.31,1445.34 1484.82,1445.34 1485.33,1445.35 1485.84,1445.37 1486.35,1445.38 1486.86,1445.38 1487.38,1445.38 1487.89,1445.38 1488.4,1445.37 1488.91,1445.38 1489.42,1445.38 1489.93,1445.37 1490.44,1445.36 1490.96,1445.32 1491.47,1445.29 1491.98,1445.28 1492.49,1445.27 1493,1445.23 1493.51,1445.19 1494.02,1445.19 1494.54,1445.18 1495.05,1445.18 1495.56,1445.17 1496.07,1445.15 1496.58,1445.12 1497.09,1445.12 1497.6,1445.11 1498.12,1445.11 1498.63,1445.12 1499.14,1445.1 1499.65,1445.09 1500.16,1445.06 1500.67,1445.03 1501.18,1445.03 1501.7,1445.04 1502.21,1445.05 1502.72,1445.06 1503.23,1445.05 1503.74,1445.05 1504.25,1445.05 1504.77,1445.06 1505.28,1445.05 1505.79,1445.04 1506.3,1445.03 1506.81,1445.03 1507.32,1445.04 1507.83,1445.04 1508.35,1445.03 1508.86,1445.03 1509.37,1445.04 1509.88,1445.05 1510.39,1445.06 1510.9,1445.07 1511.41,1445.09 1511.93,1445.11 1512.44,1445.12 1512.95,1445.13 1513.46,1445.13 1513.97,1445.13 1514.48,1445.13 1514.99,1445.12 1515.51,1445.13 1516.02,1445.14 1516.53,1445.13 1517.04,1445.12 1517.55,1445.11 1518.06,1445.1 1518.57,1445.11 1519.09,1445.11 1519.6,1445.13 1520.11,1445.15 1520.62,1445.16 1521.13,1445.18 1521.64,1445.17 1522.15,1445.16 1522.67,1445.16 1523.18,1445.16 1523.69,1445.15 1524.2,1445.13 1524.71,1445.1 1525.22,1445.06 1525.73,1445.08 1526.25,1445.11 1526.76,1445.08 1527.27,1445.05 1527.78,1445.05 1528.29,1445.06 1528.8,1445.06 1529.31,1445.07 1529.83,1445.06 1530.34,1445.05 1530.85,1445.05 1531.36,1445.05 1531.87,1445.06 1532.38,1445.07 1532.9,1445.07 1533.41,1445.08 1533.92,1445.06 1534.43,1445.04 1534.94,1445.04 1535.45,1445.04 1535.96,1445.07 1536.48,1445.09 1536.99,1445.08 1537.5,1445.07 1538.01,1445.07 1538.52,1445.07 1539.03,1445.11 1539.54,1445.14 1540.06,1445.16 1540.57,1445.17 1541.08,1445.15 1541.59,1445.13 1542.1,1445.1 1542.61,1445.07 1543.12,1445.08 1543.64,1445.09 1544.15,1445.1 1544.66,1445.12 1545.17,1445.12 1545.68,1445.12 1546.19,1445.1 1546.7,1445.08 1547.22,1445.07 1547.73,1445.07 1548.24,1445.06 1548.75,1445.06 1549.26,1445.04 1549.77,1445.03 1550.28,1445.06 1550.8,1445.09 1551.31,1445.11 1551.82,1445.13 1552.33,1445.16 1552.84,1445.2 1553.35,1445.19 1553.86,1445.18 1554.38,1445.19 1554.89,1445.2 1555.4,1445.21 1555.91,1445.22 1556.42,1445.23 1556.93,1445.24 1557.44,1445.25 1557.96,1445.26 1558.47,1445.26 1558.98,1445.25 1559.49,1445.24 1560,1445.22 1560.51,1445.23 1561.03,1445.24 1561.54,1445.27 1562.05,1445.3 1562.56,1445.3 1563.07,1445.31 1563.58,1445.33 1564.09,1445.34 1564.61,1445.36 1565.12,1445.39 1565.63,1445.37 1566.14,1445.35 1566.65,1445.34 1567.16,1445.33 1567.67,1445.3 1568.19,1445.27 1568.7,1445.28 1569.21,1445.29 1569.72,1445.3 1570.23,1445.32 1570.74,1445.32 1571.25,1445.32 1571.77,1445.32 1572.28,1445.32 1572.79,1445.32 1573.3,1445.33 1573.81,1445.33 1574.32,1445.33 1574.83,1445.33 1575.35,1445.33 1575.86,1445.33 1576.37,1445.32 1576.88,1445.32 1577.39,1445.32 1577.9,1445.32 1578.41,1445.31 1578.93,1445.32 1579.44,1445.32 1579.95,1445.33 1580.46,1445.33 1580.97,1445.32 1581.48,1445.31 1581.99,1445.28 1582.51,1445.26 1583.02,1445.26 1583.53,1445.25 1584.04,1445.26 1584.55,1445.28 1585.06,1445.27 1585.57,1445.25 1586.09,1445.23 1586.6,1445.21 1587.11,1445.22 1587.62,1445.24 1588.13,1445.25 1588.64,1445.26 1589.15,1445.25 1589.67,1445.24 1590.18,1445.26 1590.69,1445.29 1591.2,1445.28 1591.71,1445.28 1592.22,1445.26 1592.74,1445.24 1593.25,1445.26 1593.76,1445.27 1594.27,1445.29 1594.78,1445.31 1595.29,1445.33 1595.8,1445.34 1596.32,1445.34 1596.83,1445.34 1597.34,1445.32 1597.85,1445.29 1598.36,1445.26 1598.87,1445.24 1599.38,1445.23 1599.9,1445.23 1600.41,1445.24 1600.92,1445.24 1601.43,1445.26 1601.94,1445.27 1602.45,1445.27 1602.96,1445.27 1603.48,1445.28 1603.99,1445.3 1604.5,1445.29 1605.01,1445.28 1605.52,1445.3 1606.03,1445.31 1606.54,1445.29 1607.06,1445.26 1607.57,1445.28 1608.08,1445.29 1608.59,1445.28 1609.1,1445.27 1609.61,1445.25 1610.12,1445.24 1610.64,1445.25 1611.15,1445.25 1611.66,1445.26 1612.17,1445.26 1612.68,1445.25 1613.19,1445.24 1613.7,1445.24 1614.22,1445.25 1614.73,1445.26 1615.24,1445.28 1615.75,1445.28 1616.26,1445.28 1616.77,1445.29 1617.28,1445.29 1617.8,1445.29 1618.31,1445.29 1618.82,1445.31 1619.33,1445.33 1619.84,1445.31 1620.35,1445.28 1620.87,1445.27 1621.38,1445.25 1621.89,1445.25 1622.4,1445.26 1622.91,1445.24 1623.42,1445.22 1623.93,1445.22 1624.45,1445.22 1624.96,1445.18 1625.47,1445.15 1625.98,1445.14 1626.49,1445.13 1627,1445.13 1627.51,1445.12 1628.03,1445.11 1628.54,1445.1 1629.05,1445.09 1629.56,1445.08 1630.07,1445.07 1630.58,1445.07 1631.09,1445.06 1631.61,1445.05 1632.12,1445.04 1632.63,1445.03 1633.14,1445.01 1633.65,1444.99 1634.16,1444.98 1634.67,1444.98 1635.19,1444.99 1635.7,1445 1636.21,1445.03 1636.72,1445.05 1637.23,1445.07 1637.74,1445.1 1638.25,1445.11 1638.77,1445.11 1639.28,1445.11 1639.79,1445.1 1640.3,1445.1 1640.81,1445.1 1641.32,1445.09 1641.83,1445.09 1642.35,1445.1 1642.86,1445.11 1643.37,1445.11 1643.88,1445.11 1644.39,1445.11 1644.9,1445.1 1645.41,1445.12 1645.93,1445.15 1646.44,1445.14 1646.95,1445.14 1647.46,1445.13 1647.97,1445.13 1648.48,1445.12 1649,1445.11 1649.51,1445.11 1650.02,1445.12 1650.53,1445.13 1651.04,1445.13 1651.55,1445.14 1652.06,1445.14 1652.58,1445.13 1653.09,1445.12 1653.6,1445.14 1654.11,1445.16 1654.62,1445.15 1655.13,1445.15 1655.64,1445.16 1656.16,1445.16 1656.67,1445.14 1657.18,1445.12 1657.69,1445.13 1658.2,1445.14 1658.71,1445.16 1659.22,1445.17 1659.74,1445.19 1660.25,1445.2 1660.76,1445.17 1661.27,1445.14 1661.78,1445.14 1662.29,1445.13 1662.8,1445.12 1663.32,1445.1 1663.83,1445.1 1664.34,1445.09 1664.85,1445.07 1665.36,1445.05 1665.87,1445.08 1666.38,1445.12 1666.9,1445.13 1667.41,1445.14 1667.92,1445.13 1668.43,1445.13 1668.94,1445.15 1669.45,1445.17 1669.96,1445.17 1670.48,1445.18 1670.99,1445.18 1671.5,1445.18 1672.01,1445.19 1672.52,1445.2 1673.03,1445.19 1673.54,1445.19 1674.06,1445.18 1674.57,1445.17 1675.08,1445.16 1675.59,1445.14 1676.1,1445.13 1676.61,1445.12 1677.13,1445.11 1677.64,1445.09 1678.15,1445.1 1678.66,1445.11 1679.17,1445.11 1679.68,1445.12 1680.19,1445.11 1680.71,1445.1 1681.22,1445.09 1681.73,1445.09 1682.24,1445.08 1682.75,1445.08 1683.26,1445.08 1683.77,1445.09 1684.29,1445.08 1684.8,1445.08 1685.31,1445.07 1685.82,1445.05 1686.33,1445.06 1686.84,1445.06 1687.35,1445.08 1687.87,1445.1 1688.38,1445.11 1688.89,1445.12 1689.4,1445.12 1689.91,1445.12 1690.42,1445.09 1690.93,1445.07 1691.45,1445.07 1691.96,1445.06 1692.47,1445.07 1692.98,1445.07 1693.49,1445.07 1694,1445.08 1694.51,1445.11 1695.03,1445.13 1695.54,1445.13 1696.05,1445.12 1696.56,1445.14 1697.07,1445.16 1697.58,1445.2 1698.09,1445.23 1698.61,1445.24 1699.12,1445.25 1699.63,1445.23 1700.14,1445.21 1700.65,1445.21 1701.16,1445.21 1701.67,1445.2 1702.19,1445.2 1702.7,1445.21 1703.21,1445.21 1703.72,1445.24 1704.23,1445.27 1704.74,1445.29 1705.26,1445.31 1705.77,1445.32 1706.28,1445.33 1706.79,1445.32 1707.3,1445.32 1707.81,1445.3 1708.32,1445.29 1708.84,1445.3 1709.35,1445.32 1709.86,1445.3 1710.37,1445.28 1710.88,1445.28 1711.39,1445.28 1711.9,1445.24 1712.42,1445.21 1712.93,1445.19 1713.44,1445.16 1713.95,1445.16 1714.46,1445.16 1714.97,1445.19 1715.48,1445.23 1716,1445.21 1716.51,1445.2 1717.02,1445.18 1717.53,1445.17 1718.04,1445.17 1718.55,1445.17 1719.06,1445.17 1719.58,1445.18 1720.09,1445.18 1720.6,1445.17 1721.11,1445.18 1721.62,1445.19 1722.13,1445.19 1722.64,1445.19 1723.16,1445.19 1723.67,1445.19 1724.18,1445.19 1724.69,1445.19 1725.2,1445.19 1725.71,1445.19 1726.22,1445.2 1726.74,1445.21 1727.25,1445.21 1727.76,1445.21 1728.27,1445.19 1728.78,1445.18 1729.29,1445.17 1729.8,1445.16 1730.32,1445.15 1730.83,1445.15 1731.34,1445.11 1731.85,1445.08 1732.36,1445.08 1732.87,1445.07 1733.39,1445.07 1733.9,1445.06 1734.41,1445.07 1734.92,1445.08 1735.43,1445.09 1735.94,1445.09 1736.45,1445.1 1736.97,1445.11 1737.48,1445.12 1737.99,1445.13 1738.5,1445.12 1739.01,1445.12 1739.52,1445.12 1740.03,1445.11 1740.55,1445.1 1741.06,1445.09 1741.57,1445.07 1742.08,1445.05 1742.59,1445.05 1743.1,1445.05 1743.61,1445.04 1744.13,1445.04 1744.64,1445.04 1745.15,1445.05 1745.66,1445.08 1746.17,1445.1 1746.68,1445.1 1747.19,1445.1 1747.71,1445.1 1748.22,1445.1 1748.73,1445.1 1749.24,1445.11 1749.75,1445.1 1750.26,1445.09 1750.77,1445.11 1751.29,1445.12 1751.8,1445.12 1752.31,1445.11 1752.82,1445.11 1753.33,1445.11 1753.84,1445.11 1754.35,1445.11 1754.87,1445.13 1755.38,1445.15 1755.89,1445.14 1756.4,1445.12 1756.91,1445.11 1757.42,1445.09 1757.93,1445.09 1758.45,1445.1 1758.96,1445.11 1759.47,1445.13 1759.98,1445.14 1760.49,1445.15 1761,1445.12 1761.52,1445.1 1762.03,1445.09 1762.54,1445.07 1763.05,1445.09 1763.56,1445.11 1764.07,1445.13 1764.58,1445.15 1765.1,1445.15 1765.61,1445.15 1766.12,1445.17 1766.63,1445.19 1767.14,1445.2 1767.65,1445.21 1768.16,1445.21 1768.68,1445.2 1769.19,1445.22 1769.7,1445.23 1770.21,1445.24 1770.72,1445.24 1771.23,1445.25 1771.74,1445.27 1772.26,1445.29 1772.77,1445.31 1773.28,1445.33 1773.79,1445.35 1774.3,1445.36 1774.81,1445.38 1775.32,1445.37 1775.84,1445.37 1776.35,1445.38 1776.86,1445.39 1777.37,1445.39 1777.88,1445.4 1778.39,1445.38 1778.9,1445.36 1779.42,1445.35 1779.93,1445.34 1780.44,1445.35 1780.95,1445.36 1781.46,1445.39 1781.97,1445.42 1782.48,1445.41 1783,1445.39 1783.51,1445.37 1784.02,1445.35 1784.53,1445.35 1785.04,1445.34 1785.55,1445.34 1786.06,1445.35 1786.58,1445.35 1787.09,1445.36 1787.6,1445.35 1788.11,1445.34 1788.62,1445.34 1789.13,1445.34 1789.64,1445.33 1790.16,1445.33 1790.67,1445.32 1791.18,1445.32 1791.69,1445.31 1792.2,1445.3 1792.71,1445.29 1793.23,1445.28 1793.74,1445.27 1794.25,1445.26 1794.76,1445.25 1795.27,1445.24 1795.78,1445.24 1796.29,1445.25 1796.81,1445.23 1797.32,1445.21 1797.83,1445.22 1798.34,1445.23 1798.85,1445.26 1799.36,1445.29 1799.87,1445.29 1800.39,1445.29 1800.9,1445.3 1801.41,1445.31 1801.92,1445.3 1802.43,1445.3 1802.94,1445.31 1803.45,1445.33 1803.97,1445.31 1804.48,1445.29 1804.99,1445.31 1805.5,1445.33 1806.01,1445.33 1806.52,1445.33 1807.03,1445.34 1807.55,1445.35 1808.06,1445.36 1808.57,1445.38 1809.08,1445.38 1809.59,1445.39 1810.1,1445.38 1810.61,1445.38 1811.13,1445.37 1811.64,1445.37 1812.15,1445.37 1812.66,1445.37 1813.17,1445.35 1813.68,1445.33 1814.19,1445.33 1814.71,1445.32 1815.22,1445.33 1815.73,1445.34 1816.24,1445.32 1816.75,1445.31 1817.26,1445.29 1817.77,1445.26 1818.29,1445.27 1818.8,1445.27 1819.31,1445.27 1819.82,1445.26 1820.33,1445.27 1820.84,1445.27 1821.36,1445.28 1821.87,1445.29 1822.38,1445.27 1822.89,1445.25 1823.4,1445.26 1823.91,1445.27 1824.42,1445.26 1824.94,1445.24 1825.45,1445.25 1825.96,1445.26 1826.47,1445.26 1826.98,1445.26 1827.49,1445.27 1828,1445.29 1828.52,1445.29 1829.03,1445.29 1829.54,1445.31 1830.05,1445.33 1830.56,1445.35 1831.07,1445.38 1831.58,1445.37 1832.1,1445.37 1832.61,1445.4 1833.12,1445.42 1833.63,1445.41 1834.14,1445.4 1834.65,1445.41 1835.16,1445.41 1835.68,1445.41 1836.19,1445.41 1836.7,1445.39 1837.21,1445.36 1837.72,1445.35 1838.23,1445.35 1838.74,1445.35 1839.26,1445.36 1839.77,1445.39 1840.28,1445.41 1840.79,1445.41 1841.3,1445.41 1841.81,1445.4 1842.32,1445.4 1842.84,1445.4 1843.35,1445.4 1843.86,1445.4 1844.37,1445.41 1844.88,1445.42 1845.39,1445.42 1845.9,1445.4 1846.42,1445.38 1846.93,1445.38 1847.44,1445.39 1847.95,1445.38 1848.46,1445.37 1848.97,1445.36 1849.49,1445.36 1850,1445.36 1850.51,1445.36 1851.02,1445.36 1851.53,1445.36 1852.04,1445.36 1852.55,1445.37 1853.07,1445.36 1853.58,1445.35 1854.09,1445.33 1854.6,1445.31 1855.11,1445.31 1855.62,1445.31 1856.13,1445.31 1856.65,1445.31 1857.16,1445.3 1857.67,1445.29 1858.18,1445.29 1858.69,1445.29 1859.2,1445.3 1859.71,1445.32 1860.23,1445.34 1860.74,1445.36 1861.25,1445.36 1861.76,1445.36 1862.27,1445.37 1862.78,1445.37 1863.29,1445.37 1863.81,1445.37 1864.32,1445.38 1864.83,1445.4 1865.34,1445.4 1865.85,1445.41 1866.36,1445.4 1866.87,1445.39 1867.39,1445.4 1867.9,1445.4 1868.41,1445.4 1868.92,1445.39 1869.43,1445.39 1869.94,1445.38 1870.45,1445.37 1870.97,1445.37 1871.48,1445.36 1871.99,1445.35 1872.5,1445.33 1873.01,1445.3 1873.52,1445.31 1874.03,1445.32 1874.55,1445.34 1875.06,1445.35 1875.57,1445.34 1876.08,1445.34 1876.59,1445.34 1877.1,1445.34 1877.62,1445.34 1878.13,1445.35 1878.64,1445.35 1879.15,1445.34 1879.66,1445.32 1880.17,1445.3 1880.68,1445.28 1881.2,1445.27 1881.71,1445.25 1882.22,1445.23 1882.73,1445.24 1883.24,1445.25 1883.75,1445.25 1884.26,1445.26 1884.78,1445.25 1885.29,1445.25 1885.8,1445.24 1886.31,1445.23 1886.82,1445.21 1887.33,1445.2 1887.84,1445.19 1888.36,1445.19 1888.87,1445.18 1889.38,1445.17 1889.89,1445.17 1890.4,1445.17 1890.91,1445.17 1891.42,1445.17 1891.94,1445.19 1892.45,1445.2 1892.96,1445.2 1893.47,1445.21 1893.98,1445.21 1894.49,1445.21 1895,1445.2 1895.52,1445.2 1896.03,1445.18 1896.54,1445.17 1897.05,1445.19 1897.56,1445.21 1898.07,1445.22 1898.58,1445.23 1899.1,1445.24 1899.61,1445.25 1900.12,1445.27 1900.63,1445.29 1901.14,1445.26 1901.65,1445.24 1902.16,1445.26 1902.68,1445.27 1903.19,1445.27 1903.7,1445.27 1904.21,1445.27 1904.72,1445.27 1905.23,1445.27 1905.75,1445.28 1906.26,1445.28 1906.77,1445.28 1907.28,1445.26 1907.79,1445.25 1908.3,1445.24 1908.81,1445.23 1909.33,1445.23 1909.84,1445.23 1910.35,1445.23 1910.86,1445.24 1911.37,1445.24 1911.88,1445.24 1912.39,1445.22 1912.91,1445.21 1913.42,1445.21 1913.93,1445.22 1914.44,1445.25 1914.95,1445.27 1915.46,1445.28 1915.97,1445.3 1916.49,1445.3 1917,1445.3 1917.51,1445.28 1918.02,1445.25 1918.53,1445.26 1919.04,1445.27 1919.55,1445.28 1920.07,1445.28 1920.58,1445.27 1921.09,1445.27 1921.6,1445.27 1922.11,1445.27 1922.62,1445.27 1923.13,1445.27 1923.65,1445.27 1924.16,1445.26 1924.67,1445.25 1925.18,1445.23 1925.69,1445.25 1926.2,1445.26 1926.71,1445.27 1927.23,1445.27 1927.74,1445.25 1928.25,1445.24 1928.76,1445.23 1929.27,1445.23 1929.78,1445.25 1930.29,1445.28 1930.81,1445.3 1931.32,1445.31 1931.83,1445.31 1932.34,1445.31 1932.85,1445.34 1933.36,1445.37 1933.88,1445.38 1934.39,1445.39 1934.9,1445.37 1935.41,1445.35 1935.92,1445.34 1936.43,1445.32 1936.94,1445.3 1937.46,1445.27 1937.97,1445.24 1938.48,1445.2 1938.99,1445.2 1939.5,1445.19 1940.01,1445.2 1940.52,1445.21 1941.04,1445.21 1941.55,1445.21 1942.06,1445.22 1942.57,1445.24 1943.08,1445.25 1943.59,1445.26 1944.1,1445.26 1944.62,1445.26 1945.13,1445.27 1945.64,1445.28 1946.15,1445.27 1946.66,1445.26 1947.17,1445.25 1947.68,1445.24 1948.2,1445.22 1948.71,1445.21 1949.22,1445.21 1949.73,1445.21 1950.24,1445.2 1950.75,1445.19 1951.26,1445.2 1951.78,1445.2 1952.29,1445.19 1952.8,1445.17 1953.31,1445.18 1953.82,1445.19 1954.33,1445.19 1954.84,1445.18 1955.36,1445.18 1955.87,1445.17 1956.38,1445.19 1956.89,1445.21 1957.4,1445.19 1957.91,1445.17 1958.42,1445.17 1958.94,1445.17 1959.45,1445.16 1959.96,1445.16 1960.47,1445.18 1960.98,1445.19 1961.49,1445.17 1962.01,1445.15 1962.52,1445.18 1963.03,1445.22 1963.54,1445.21 1964.05,1445.19 1964.56,1445.2 1965.07,1445.2 1965.59,1445.18 1966.1,1445.16 1966.61,1445.16 1967.12,1445.15 1967.63,1445.16 1968.14,1445.16 1968.65,1445.16 1969.17,1445.16 1969.68,1445.14 1970.19,1445.13 1970.7,1445.11 1971.21,1445.1 1971.72,1445.1 1972.23,1445.1 1972.75,1445.13 1973.26,1445.16 1973.77,1445.17 1974.28,1445.19 1974.79,1445.19 1975.3,1445.2 1975.81,1445.21 1976.33,1445.21 1976.84,1445.23 1977.35,1445.25 1977.86,1445.25 1978.37,1445.25 1978.88,1445.28 1979.39,1445.3 1979.91,1445.3 1980.42,1445.3 1980.93,1445.28 1981.44,1445.27 1981.95,1445.25 1982.46,1445.24 1982.97,1445.25 1983.49,1445.27 1984,1445.27 1984.51,1445.27 1985.02,1445.26 1985.53,1445.26 1986.04,1445.26 1986.55,1445.26 1987.07,1445.26 1987.58,1445.25 1988.09,1445.25 1988.6,1445.25 1989.11,1445.24 1989.62,1445.23 1990.13,1445.22 1990.65,1445.22 1991.16,1445.23 1991.67,1445.24 1992.18,1445.25 1992.69,1445.25 1993.2,1445.25 1993.72,1445.26 1994.23,1445.26 1994.74,1445.27 1995.25,1445.27 1995.76,1445.27 1996.27,1445.29 1996.78,1445.32 1997.3,1445.33 1997.81,1445.34 1998.32,1445.34 1998.83,1445.35 1999.34,1445.34 1999.85,1445.32 2000.36,1445.34 2000.88,1445.36 2001.39,1445.38 2001.9,1445.4 2002.41,1445.41 2002.92,1445.42 2003.43,1445.41 2003.94,1445.4 2004.46,1445.4 2004.97,1445.4 2005.48,1445.41 2005.99,1445.41 2006.5,1445.42 2007.01,1445.43 2007.52,1445.42 2008.04,1445.41 2008.55,1445.39 2009.06,1445.37 2009.57,1445.36 2010.08,1445.35 2010.59,1445.35 2011.1,1445.34 2011.62,1445.34 2012.13,1445.34 2012.64,1445.37 2013.15,1445.39 2013.66,1445.4 2014.17,1445.41 2014.68,1445.41 2015.2,1445.41 2015.71,1445.41 2016.22,1445.42 2016.73,1445.42 2017.24,1445.43 2017.75,1445.43 2018.26,1445.44 2018.78,1445.44 2019.29,1445.44 2019.8,1445.43 2020.31,1445.41 2020.82,1445.4 2021.33,1445.38 2021.85,1445.42 2022.36,1445.46 2022.87,1445.46 2023.38,1445.47 2023.89,1445.47 2024.4,1445.46 2024.91,1445.43 2025.43,1445.4 2025.94,1445.41 2026.45,1445.42 2026.96,1445.43 2027.47,1445.45 2027.98,1445.43 2028.49,1445.41 2029.01,1445.4 2029.52,1445.39 2030.03,1445.37 2030.54,1445.35 2031.05,1445.37 2031.56,1445.38 2032.07,1445.38 2032.59,1445.37 2033.1,1445.36 2033.61,1445.34 2034.12,1445.33 2034.63,1445.32 2035.14,1445.31 2035.65,1445.31 2036.17,1445.32 2036.68,1445.33 2037.19,1445.33 2037.7,1445.33 2038.21,1445.32 2038.72,1445.31 2039.23,1445.34 2039.75,1445.37 2040.26,1445.37 2040.77,1445.37 2041.28,1445.35 2041.79,1445.33 2042.3,1445.33 2042.81,1445.32 2043.33,1445.32 2043.84,1445.31 2044.35,1445.31 2044.86,1445.3 2045.37,1445.3 2045.88,1445.3 2046.39,1445.32 2046.91,1445.35 2047.42,1445.34 2047.93,1445.34 2048.44,1445.33 2048.95,1445.32 2049.46,1445.32 2049.98,1445.32 2050.49,1445.33 2051,1445.35 2051.51,1445.36 2052.02,1445.37 2052.53,1445.35 2053.04,1445.34 2053.56,1445.34 2054.07,1445.35 2054.58,1445.37 2055.09,1445.38 2055.6,1445.39 2056.11,1445.4 2056.62,1445.4 2057.14,1445.4 2057.65,1445.41 2058.16,1445.43 2058.67,1445.43 2059.18,1445.43 2059.69,1445.41 2060.2,1445.39 2060.72,1445.37 2061.23,1445.34 2061.74,1445.35 2062.25,1445.35 2062.76,1445.34 2063.27,1445.33 2063.78,1445.31 2064.3,1445.3 2064.81,1445.29 2065.32,1445.29 2065.83,1445.29 2066.34,1445.29 2066.85,1445.26 2067.36,1445.24 2067.88,1445.26 2068.39,1445.28 2068.9,1445.25 2069.41,1445.22 2069.92,1445.2 2070.43,1445.19 2070.94,1445.19 2071.46,1445.19 2071.97,1445.18 2072.48,1445.18 2072.99,1445.17 2073.5,1445.17 2074.01,1445.17 2074.52,1445.18 2075.04,1445.18 2075.55,1445.18 2076.06,1445.19 2076.57,1445.21 2077.08,1445.23 2077.59,1445.25 2078.11,1445.26 2078.62,1445.28 2079.13,1445.25 2079.64,1445.22 2080.15,1445.24 2080.66,1445.26 2081.17,1445.28 2081.69,1445.3 2082.2,1445.29 2082.71,1445.28 2083.22,1445.3 2083.73,1445.31 2084.24,1445.28 2084.75,1445.25 2085.27,1445.28 2085.78,1445.31 2086.29,1445.31 2086.8,1445.3 2087.31,1445.27 2087.82,1445.23 2088.33,1445.24 2088.85,1445.26 2089.36,1445.26 2089.87,1445.26 2090.38,1445.26 2090.89,1445.26 2091.4,1445.24 2091.91,1445.22 2092.43,1445.22 2092.94,1445.22 2093.45,1445.23 2093.96,1445.25 2094.47,1445.25 2094.98,1445.25 2095.49,1445.23 2096.01,1445.22 2096.52,1445.22 2097.03,1445.22 2097.54,1445.24 2098.05,1445.26 2098.56,1445.25 2099.07,1445.24 2099.59,1445.27 2100.1,1445.29 2100.61,1445.29 2101.12,1445.28 2101.63,1445.3 2102.14,1445.32 2102.65,1445.34 2103.17,1445.35 2103.68,1445.34 2104.19,1445.34 2104.7,1445.33 2105.21,1445.32 2105.72,1445.32 2106.24,1445.32 2106.75,1445.31 2107.26,1445.31 2107.77,1445.31 2108.28,1445.31 2108.79,1445.3 2109.3,1445.29 2109.82,1445.28 2110.33,1445.27 2110.84,1445.27 2111.35,1445.26 2111.86,1445.29 2112.37,1445.32 2112.88,1445.33 2113.4,1445.34 2113.91,1445.33 2114.42,1445.32 2114.93,1445.32 2115.44,1445.32 2115.95,1445.32 2116.46,1445.33 2116.98,1445.31 2117.49,1445.29 2118,1445.31 2118.51,1445.32 2119.02,1445.32 2119.53,1445.32 2120.04,1445.33 2120.56,1445.33 2121.07,1445.36 2121.58,1445.38 2122.09,1445.37 2122.6,1445.37 2123.11,1445.38 2123.62,1445.4 2124.14,1445.4 2124.65,1445.4 2125.16,1445.43 2125.67,1445.46 2126.18,1445.48 2126.69,1445.5 2127.2,1445.5 2127.72,1445.49 2128.23,1445.5 2128.74,1445.5 2129.25,1445.48 2129.76,1445.46 2130.27,1445.47 2130.78,1445.48 2131.3,1445.49 2131.81,1445.49 2132.32,1445.48 2132.83,1445.47 2133.34,1445.47 2133.85,1445.47 2134.37,1445.49 2134.88,1445.5 2135.39,1445.5 2135.9,1445.5 2136.41,1445.51 2136.92,1445.53 2137.43,1445.54 2137.95,1445.55 2138.46,1445.57 2138.97,1445.58 2139.48,1445.57 2139.99,1445.56 2140.5,1445.56 2141.01,1445.57 2141.53,1445.55 2142.04,1445.54 2142.55,1445.54 2143.06,1445.53 2143.57,1445.54 2144.08,1445.55 2144.59,1445.57 2145.11,1445.6 2145.62,1445.61 2146.13,1445.63 2146.64,1445.64 2147.15,1445.66 2147.66,1445.68 2148.17,1445.71 2148.69,1445.7 2149.2,1445.69 2149.71,1445.7 2150.22,1445.72 2150.73,1445.72 2151.24,1445.72 2151.75,1445.69 2152.27,1445.67 2152.78,1445.65 2153.29,1445.63 2153.8,1445.62 2154.31,1445.61 2154.82,1445.61 2155.33,1445.61 2155.85,1445.61 2156.36,1445.6 2156.87,1445.64 2157.38,1445.67 2157.89,1445.66 2158.4,1445.65 2158.91,1445.63 2159.43,1445.61 2159.94,1445.59 2160.45,1445.57 2160.96,1445.55 2161.47,1445.54 2161.98,1445.55 2162.49,1445.55 2163.01,1445.55 2163.52,1445.55 2164.03,1445.58 2164.54,1445.62 2165.05,1445.59 2165.56,1445.57 2166.08,1445.57 2166.59,1445.56 2167.1,1445.56 2167.61,1445.56 2168.12,1445.57 2168.63,1445.59 2169.14,1445.58 2169.66,1445.58 2170.17,1445.58 2170.68,1445.58 2171.19,1445.56 2171.7,1445.53 2172.21,1445.54 2172.72,1445.54 2173.24,1445.53 2173.75,1445.53 2174.26,1445.53 2174.77,1445.53 2175.28,1445.51 2175.79,1445.49 2176.3,1445.51 2176.82,1445.52 2177.33,1445.52 2177.84,1445.52 2178.35,1445.5 2178.86,1445.49 2179.37,1445.49 2179.88,1445.5 2180.4,1445.49 2180.91,1445.49 2181.42,1445.48 2181.93,1445.47 2182.44,1445.44 2182.95,1445.41 2183.46,1445.4 2183.98,1445.39 2184.49,1445.4 2185,1445.4 2185.51,1445.43 2186.02,1445.45 2186.53,1445.49 2187.04,1445.54 2187.56,1445.54 2188.07,1445.55 2188.58,1445.57 2189.09,1445.58 2189.6,1445.58 2190.11,1445.57 2190.62,1445.55 2191.14,1445.53 2191.65,1445.52 2192.16,1445.51 2192.67,1445.5 2193.18,1445.49 2193.69,1445.5 2194.21,1445.5 2194.72,1445.49 2195.23,1445.47 2195.74,1445.49 2196.25,1445.51 2196.76,1445.49 2197.27,1445.46 2197.79,1445.46 2198.3,1445.47 2198.81,1445.45 2199.32,1445.44 2199.83,1445.45 2200.34,1445.46 2200.85,1445.47 2201.37,1445.48 2201.88,1445.48 2202.39,1445.49 2202.9,1445.46 2203.41,1445.44 2203.92,1445.42 2204.43,1445.41 2204.95,1445.4 2205.46,1445.39 2205.97,1445.39 2206.48,1445.4 2206.99,1445.38 2207.5,1445.36 2208.01,1445.35 2208.53,1445.34 2209.04,1445.34 2209.55,1445.35 2210.06,1445.35 2210.57,1445.34 2211.08,1445.33 2211.59,1445.32 2212.11,1445.31 2212.62,1445.3 2213.13,1445.31 2213.64,1445.31 2214.15,1445.31 2214.66,1445.31 2215.17,1445.31 2215.69,1445.31 2216.2,1445.31 2216.71,1445.31 2217.22,1445.31 2217.73,1445.31 2218.24,1445.32 2218.75,1445.32 2219.27,1445.34 2219.78,1445.36 2220.29,1445.33 2220.8,1445.31 2221.31,1445.3 2221.82,1445.28 2222.34,1445.28 2222.85,1445.28 2223.36,1445.27 2223.87,1445.27 2224.38,1445.26 2224.89,1445.24 2225.4,1445.25 2225.92,1445.25 2226.43,1445.27 2226.94,1445.3 2227.45,1445.3 2227.96,1445.3 2228.47,1445.29 2228.98,1445.28 2229.5,1445.26 2230.01,1445.23 2230.52,1445.2 2231.03,1445.18 2231.54,1445.17 2232.05,1445.16 2232.56,1445.17 2233.08,1445.17 2233.59,1445.18 2234.1,1445.2 2234.61,1445.2 2235.12,1445.21 2235.63,1445.21 2236.14,1445.21 2236.66,1445.19 2237.17,1445.17 2237.68,1445.18 2238.19,1445.19 2238.7,1445.21 2239.21,1445.22 2239.72,1445.21 2240.24,1445.2 2240.75,1445.2 2241.26,1445.2 2241.77,1445.2 2242.28,1445.21 2242.79,1445.2 2243.3,1445.2 2243.82,1445.2 2244.33,1445.2 2244.84,1445.18 2245.35,1445.17 2245.86,1445.16 2246.37,1445.16 2246.88,1445.14 2247.4,1445.13 2247.91,1445.13 2248.42,1445.13 2248.93,1445.15 2249.44,1445.17 2249.95,1445.18 2250.47,1445.19 2250.98,1445.21 2251.49,1445.23 2252,1445.21 2252.51,1445.18 2253.02,1445.18 2253.53,1445.17 2254.05,1445.15 2254.56,1445.13 2255.07,1445.12 2255.58,1445.1 2256.09,1445.12 2256.6,1445.13 2257.11,1445.13 2257.63,1445.13 2258.14,1445.12 2258.65,1445.12 2259.16,1445.11 2259.67,1445.11 2260.18,1445.12 2260.69,1445.13 2261.21,1445.15 2261.72,1445.17 2262.23,1445.17 2262.74,1445.18 2263.25,1445.16 2263.76,1445.14 2264.27,1445.16 2264.79,1445.18 2265.3,1445.19 2265.81,1445.2 2266.32,1445.2 2266.83,1445.19 2267.34,1445.2 2267.85,1445.2 2268.37,1445.2 2268.88,1445.21 2269.39,1445.2 2269.9,1445.2 2270.41,1445.2 2270.92,1445.19 2271.43,1445.2 2271.95,1445.2 2272.46,1445.2 2272.97,1445.21 2273.48,1445.21 2273.99,1445.21 2274.5,1445.18 2275.01,1445.15 2275.53,1445.13 2276.04,1445.11 2276.55,1445.11 2277.06,1445.11 2277.57,1445.1 2278.08,1445.08 2278.6,1445.09 2279.11,1445.1 2279.62,1445.09 2280.13,1445.07 2280.64,1445.1 2281.15,1445.12 2281.66,1445.11 2282.18,1445.1 2282.69,1445.08 2283.2,1445.07 2283.71,1445.07 2284.22,1445.06 2284.73,1445.07 2285.24,1445.09 2285.76,1445.1 2286.27,1445.11 2286.78,1445.1 2287.29,1445.1 2287.8,1445.08 2288.31,1445.06 2288.82,1445.07 2289.34,1445.08 2289.85,1445.08 2290.36,1445.08 2290.87,1445.1 2291.38,1445.13 "/>
<path clip-path="url(#clip430)" d="M2011.18 198.898 L2280.47 198.898 L2280.47 95.2176 L2011.18 95.2176  Z" fill="#ffffff" fill-rule="evenodd" fill-opacity="1"/>
<polyline clip-path="url(#clip430)" style="stroke:#000000; stroke-linecap:round; stroke-linejoin:round; stroke-width:4; stroke-opacity:1; fill:none" points="2011.18,198.898 2280.47,198.898 2280.47,95.2176 2011.18,95.2176 2011.18,198.898 "/>
<polyline clip-path="url(#clip430)" style="stroke:#009af9; stroke-linecap:round; stroke-linejoin:round; stroke-width:4; stroke-opacity:1; fill:none" points="2035.28,147.058 2179.85,147.058 "/>
<path clip-path="url(#clip430)" d="M2217.79 166.745 Q2215.98 171.375 2214.27 172.787 Q2212.56 174.199 2209.69 174.199 L2206.28 174.199 L2206.28 170.634 L2208.78 170.634 Q2210.54 170.634 2211.51 169.8 Q2212.49 168.967 2213.67 165.865 L2214.43 163.921 L2203.94 138.412 L2208.46 138.412 L2216.56 158.689 L2224.66 138.412 L2229.18 138.412 L2217.79 166.745 Z" fill="#000000" fill-rule="nonzero" fill-opacity="1" /><path clip-path="url(#clip430)" d="M2236.47 160.402 L2244.11 160.402 L2244.11 134.037 L2235.8 135.703 L2235.8 131.444 L2244.06 129.778 L2248.74 129.778 L2248.74 160.402 L2256.38 160.402 L2256.38 164.338 L2236.47 164.338 L2236.47 160.402 Z" fill="#000000" fill-rule="nonzero" fill-opacity="1" /></svg>
