<?xml version="1.0" encoding="utf-8"?>
<svg xmlns="http://www.w3.org/2000/svg" xmlns:xlink="http://www.w3.org/1999/xlink" width="600" height="400" viewBox="0 0 2400 1600">
<defs>
  <clipPath id="clip460">
    <rect x="0" y="0" width="2400" height="1600"/>
  </clipPath>
</defs>
<path clip-path="url(#clip460)" d="M0 1600 L2400 1600 L2400 0 L0 0  Z" fill="#ffffff" fill-rule="evenodd" fill-opacity="1"/>
<defs>
  <clipPath id="clip461">
    <rect x="480" y="0" width="1681" height="1600"/>
  </clipPath>
</defs>
<path clip-path="url(#clip460)" d="M184.191 1486.45 L2352.76 1486.45 L2352.76 47.2441 L184.191 47.2441  Z" fill="#ffffff" fill-rule="evenodd" fill-opacity="1"/>
<defs>
  <clipPath id="clip462">
    <rect x="184" y="47" width="2170" height="1440"/>
  </clipPath>
</defs>
<polyline clip-path="url(#clip462)" style="stroke:#000000; stroke-linecap:round; stroke-linejoin:round; stroke-width:2; stroke-opacity:0.1; fill:none" points="245.565,1486.45 245.565,47.2441 "/>
<polyline clip-path="url(#clip462)" style="stroke:#000000; stroke-linecap:round; stroke-linejoin:round; stroke-width:2; stroke-opacity:0.1; fill:none" points="757.019,1486.45 757.019,47.2441 "/>
<polyline clip-path="url(#clip462)" style="stroke:#000000; stroke-linecap:round; stroke-linejoin:round; stroke-width:2; stroke-opacity:0.1; fill:none" points="1268.47,1486.45 1268.47,47.2441 "/>
<polyline clip-path="url(#clip462)" style="stroke:#000000; stroke-linecap:round; stroke-linejoin:round; stroke-width:2; stroke-opacity:0.1; fill:none" points="1779.93,1486.45 1779.93,47.2441 "/>
<polyline clip-path="url(#clip462)" style="stroke:#000000; stroke-linecap:round; stroke-linejoin:round; stroke-width:2; stroke-opacity:0.1; fill:none" points="2291.38,1486.45 2291.38,47.2441 "/>
<polyline clip-path="url(#clip460)" style="stroke:#000000; stroke-linecap:round; stroke-linejoin:round; stroke-width:4; stroke-opacity:1; fill:none" points="184.191,1486.45 2352.76,1486.45 "/>
<polyline clip-path="url(#clip460)" style="stroke:#000000; stroke-linecap:round; stroke-linejoin:round; stroke-width:4; stroke-opacity:1; fill:none" points="245.565,1486.45 245.565,1467.55 "/>
<polyline clip-path="url(#clip460)" style="stroke:#000000; stroke-linecap:round; stroke-linejoin:round; stroke-width:4; stroke-opacity:1; fill:none" points="757.019,1486.45 757.019,1467.55 "/>
<polyline clip-path="url(#clip460)" style="stroke:#000000; stroke-linecap:round; stroke-linejoin:round; stroke-width:4; stroke-opacity:1; fill:none" points="1268.47,1486.45 1268.47,1467.55 "/>
<polyline clip-path="url(#clip460)" style="stroke:#000000; stroke-linecap:round; stroke-linejoin:round; stroke-width:4; stroke-opacity:1; fill:none" points="1779.93,1486.45 1779.93,1467.55 "/>
<polyline clip-path="url(#clip460)" style="stroke:#000000; stroke-linecap:round; stroke-linejoin:round; stroke-width:4; stroke-opacity:1; fill:none" points="2291.38,1486.45 2291.38,1467.55 "/>
<path clip-path="url(#clip460)" d="M245.565 1517.37 Q241.954 1517.37 240.125 1520.93 Q238.32 1524.47 238.32 1531.6 Q238.32 1538.71 240.125 1542.27 Q241.954 1545.82 245.565 1545.82 Q249.199 1545.82 251.005 1542.27 Q252.834 1538.71 252.834 1531.6 Q252.834 1524.47 251.005 1520.93 Q249.199 1517.37 245.565 1517.37 M245.565 1513.66 Q251.375 1513.66 254.431 1518.27 Q257.51 1522.85 257.51 1531.6 Q257.51 1540.33 254.431 1544.94 Q251.375 1549.52 245.565 1549.52 Q239.755 1549.52 236.676 1544.94 Q233.621 1540.33 233.621 1531.6 Q233.621 1522.85 236.676 1518.27 Q239.755 1513.66 245.565 1513.66 Z" fill="#000000" fill-rule="nonzero" fill-opacity="1" /><path clip-path="url(#clip460)" d="M701.545 1544.91 L709.184 1544.91 L709.184 1518.55 L700.874 1520.21 L700.874 1515.95 L709.138 1514.29 L713.813 1514.29 L713.813 1544.91 L721.452 1544.91 L721.452 1548.85 L701.545 1548.85 L701.545 1544.91 Z" fill="#000000" fill-rule="nonzero" fill-opacity="1" /><path clip-path="url(#clip460)" d="M740.897 1517.37 Q737.286 1517.37 735.457 1520.93 Q733.651 1524.47 733.651 1531.6 Q733.651 1538.71 735.457 1542.27 Q737.286 1545.82 740.897 1545.82 Q744.531 1545.82 746.336 1542.27 Q748.165 1538.71 748.165 1531.6 Q748.165 1524.47 746.336 1520.93 Q744.531 1517.37 740.897 1517.37 M740.897 1513.66 Q746.707 1513.66 749.762 1518.27 Q752.841 1522.85 752.841 1531.6 Q752.841 1540.33 749.762 1544.94 Q746.707 1549.52 740.897 1549.52 Q735.086 1549.52 732.008 1544.94 Q728.952 1540.33 728.952 1531.6 Q728.952 1522.85 732.008 1518.27 Q735.086 1513.66 740.897 1513.66 Z" fill="#000000" fill-rule="nonzero" fill-opacity="1" /><path clip-path="url(#clip460)" d="M771.059 1517.37 Q767.447 1517.37 765.619 1520.93 Q763.813 1524.47 763.813 1531.6 Q763.813 1538.71 765.619 1542.27 Q767.447 1545.82 771.059 1545.82 Q774.693 1545.82 776.498 1542.27 Q778.327 1538.71 778.327 1531.6 Q778.327 1524.47 776.498 1520.93 Q774.693 1517.37 771.059 1517.37 M771.059 1513.66 Q776.869 1513.66 779.924 1518.27 Q783.003 1522.85 783.003 1531.6 Q783.003 1540.33 779.924 1544.94 Q776.869 1549.52 771.059 1549.52 Q765.248 1549.52 762.17 1544.94 Q759.114 1540.33 759.114 1531.6 Q759.114 1522.85 762.17 1518.27 Q765.248 1513.66 771.059 1513.66 Z" fill="#000000" fill-rule="nonzero" fill-opacity="1" /><path clip-path="url(#clip460)" d="M801.22 1517.37 Q797.609 1517.37 795.781 1520.93 Q793.975 1524.47 793.975 1531.6 Q793.975 1538.71 795.781 1542.27 Q797.609 1545.82 801.22 1545.82 Q804.855 1545.82 806.66 1542.27 Q808.489 1538.71 808.489 1531.6 Q808.489 1524.47 806.66 1520.93 Q804.855 1517.37 801.22 1517.37 M801.22 1513.66 Q807.031 1513.66 810.086 1518.27 Q813.165 1522.85 813.165 1531.6 Q813.165 1540.33 810.086 1544.94 Q807.031 1549.52 801.22 1549.52 Q795.41 1549.52 792.332 1544.94 Q789.276 1540.33 789.276 1531.6 Q789.276 1522.85 792.332 1518.27 Q795.41 1513.66 801.22 1513.66 Z" fill="#000000" fill-rule="nonzero" fill-opacity="1" /><path clip-path="url(#clip460)" d="M1217.08 1544.91 L1233.4 1544.91 L1233.4 1548.85 L1211.46 1548.85 L1211.46 1544.91 Q1214.12 1542.16 1218.71 1537.53 Q1223.31 1532.88 1224.49 1531.53 Q1226.74 1529.01 1227.62 1527.27 Q1228.52 1525.51 1228.52 1523.82 Q1228.52 1521.07 1226.58 1519.33 Q1224.65 1517.6 1221.55 1517.6 Q1219.35 1517.6 1216.9 1518.36 Q1214.47 1519.13 1211.69 1520.68 L1211.69 1515.95 Q1214.52 1514.82 1216.97 1514.24 Q1219.42 1513.66 1221.46 1513.66 Q1226.83 1513.66 1230.02 1516.35 Q1233.22 1519.03 1233.22 1523.52 Q1233.22 1525.65 1232.41 1527.57 Q1231.62 1529.47 1229.52 1532.07 Q1228.94 1532.74 1225.83 1535.95 Q1222.73 1539.15 1217.08 1544.91 Z" fill="#000000" fill-rule="nonzero" fill-opacity="1" /><path clip-path="url(#clip460)" d="M1253.22 1517.37 Q1249.61 1517.37 1247.78 1520.93 Q1245.97 1524.47 1245.97 1531.6 Q1245.97 1538.71 1247.78 1542.27 Q1249.61 1545.82 1253.22 1545.82 Q1256.85 1545.82 1258.66 1542.27 Q1260.49 1538.71 1260.49 1531.6 Q1260.49 1524.47 1258.66 1520.93 Q1256.85 1517.37 1253.22 1517.37 M1253.22 1513.66 Q1259.03 1513.66 1262.08 1518.27 Q1265.16 1522.85 1265.16 1531.6 Q1265.16 1540.33 1262.08 1544.94 Q1259.03 1549.52 1253.22 1549.52 Q1247.41 1549.52 1244.33 1544.94 Q1241.27 1540.33 1241.27 1531.6 Q1241.27 1522.85 1244.33 1518.27 Q1247.41 1513.66 1253.22 1513.66 Z" fill="#000000" fill-rule="nonzero" fill-opacity="1" /><path clip-path="url(#clip460)" d="M1283.38 1517.37 Q1279.77 1517.37 1277.94 1520.93 Q1276.14 1524.47 1276.14 1531.6 Q1276.14 1538.71 1277.94 1542.27 Q1279.77 1545.82 1283.38 1545.82 Q1287.01 1545.82 1288.82 1542.27 Q1290.65 1538.71 1290.65 1531.6 Q1290.65 1524.47 1288.82 1520.93 Q1287.01 1517.37 1283.38 1517.37 M1283.38 1513.66 Q1289.19 1513.66 1292.25 1518.27 Q1295.33 1522.85 1295.33 1531.6 Q1295.33 1540.33 1292.25 1544.94 Q1289.19 1549.52 1283.38 1549.52 Q1277.57 1549.52 1274.49 1544.94 Q1271.44 1540.33 1271.44 1531.6 Q1271.44 1522.85 1274.49 1518.27 Q1277.57 1513.66 1283.38 1513.66 Z" fill="#000000" fill-rule="nonzero" fill-opacity="1" /><path clip-path="url(#clip460)" d="M1313.54 1517.37 Q1309.93 1517.37 1308.1 1520.93 Q1306.3 1524.47 1306.3 1531.6 Q1306.3 1538.71 1308.1 1542.27 Q1309.93 1545.82 1313.54 1545.82 Q1317.18 1545.82 1318.98 1542.27 Q1320.81 1538.71 1320.81 1531.6 Q1320.81 1524.47 1318.98 1520.93 Q1317.18 1517.37 1313.54 1517.37 M1313.54 1513.66 Q1319.35 1513.66 1322.41 1518.27 Q1325.49 1522.85 1325.49 1531.6 Q1325.49 1540.33 1322.41 1544.94 Q1319.35 1549.52 1313.54 1549.52 Q1307.73 1549.52 1304.65 1544.94 Q1301.6 1540.33 1301.6 1531.6 Q1301.6 1522.85 1304.65 1518.27 Q1307.73 1513.66 1313.54 1513.66 Z" fill="#000000" fill-rule="nonzero" fill-opacity="1" /><path clip-path="url(#clip460)" d="M1738.61 1530.21 Q1741.96 1530.93 1743.84 1533.2 Q1745.74 1535.47 1745.74 1538.8 Q1745.74 1543.92 1742.22 1546.72 Q1738.7 1549.52 1732.22 1549.52 Q1730.04 1549.52 1727.73 1549.08 Q1725.44 1548.66 1722.98 1547.81 L1722.98 1543.29 Q1724.93 1544.43 1727.24 1545.01 Q1729.56 1545.58 1732.08 1545.58 Q1736.48 1545.58 1738.77 1543.85 Q1741.08 1542.11 1741.08 1538.8 Q1741.08 1535.75 1738.93 1534.03 Q1736.8 1532.3 1732.98 1532.3 L1728.96 1532.3 L1728.96 1528.45 L1733.17 1528.45 Q1736.62 1528.45 1738.45 1527.09 Q1740.27 1525.7 1740.27 1523.11 Q1740.27 1520.45 1738.38 1519.03 Q1736.5 1517.6 1732.98 1517.6 Q1731.06 1517.6 1728.86 1518.01 Q1726.66 1518.43 1724.02 1519.31 L1724.02 1515.14 Q1726.69 1514.4 1729 1514.03 Q1731.34 1513.66 1733.4 1513.66 Q1738.72 1513.66 1741.83 1516.09 Q1744.93 1518.5 1744.93 1522.62 Q1744.93 1525.49 1743.28 1527.48 Q1741.64 1529.45 1738.61 1530.21 Z" fill="#000000" fill-rule="nonzero" fill-opacity="1" /><path clip-path="url(#clip460)" d="M1764.6 1517.37 Q1760.99 1517.37 1759.16 1520.93 Q1757.36 1524.47 1757.36 1531.6 Q1757.36 1538.71 1759.16 1542.27 Q1760.99 1545.82 1764.6 1545.82 Q1768.24 1545.82 1770.04 1542.27 Q1771.87 1538.71 1771.87 1531.6 Q1771.87 1524.47 1770.04 1520.93 Q1768.24 1517.37 1764.6 1517.37 M1764.6 1513.66 Q1770.41 1513.66 1773.47 1518.27 Q1776.55 1522.85 1776.55 1531.6 Q1776.55 1540.33 1773.47 1544.94 Q1770.41 1549.52 1764.6 1549.52 Q1758.79 1549.52 1755.71 1544.94 Q1752.66 1540.33 1752.66 1531.6 Q1752.66 1522.85 1755.71 1518.27 Q1758.79 1513.66 1764.6 1513.66 Z" fill="#000000" fill-rule="nonzero" fill-opacity="1" /><path clip-path="url(#clip460)" d="M1794.77 1517.37 Q1791.15 1517.37 1789.33 1520.93 Q1787.52 1524.47 1787.52 1531.6 Q1787.52 1538.71 1789.33 1542.27 Q1791.15 1545.82 1794.77 1545.82 Q1798.4 1545.82 1800.21 1542.27 Q1802.03 1538.71 1802.03 1531.6 Q1802.03 1524.47 1800.21 1520.93 Q1798.4 1517.37 1794.77 1517.37 M1794.77 1513.66 Q1800.58 1513.66 1803.63 1518.27 Q1806.71 1522.85 1806.71 1531.6 Q1806.71 1540.33 1803.63 1544.94 Q1800.58 1549.52 1794.77 1549.52 Q1788.96 1549.52 1785.88 1544.94 Q1782.82 1540.33 1782.82 1531.6 Q1782.82 1522.85 1785.88 1518.27 Q1788.96 1513.66 1794.77 1513.66 Z" fill="#000000" fill-rule="nonzero" fill-opacity="1" /><path clip-path="url(#clip460)" d="M1824.93 1517.37 Q1821.32 1517.37 1819.49 1520.93 Q1817.68 1524.47 1817.68 1531.6 Q1817.68 1538.71 1819.49 1542.27 Q1821.32 1545.82 1824.93 1545.82 Q1828.56 1545.82 1830.37 1542.27 Q1832.2 1538.71 1832.2 1531.6 Q1832.2 1524.47 1830.37 1520.93 Q1828.56 1517.37 1824.93 1517.37 M1824.93 1513.66 Q1830.74 1513.66 1833.79 1518.27 Q1836.87 1522.85 1836.87 1531.6 Q1836.87 1540.33 1833.79 1544.94 Q1830.74 1549.52 1824.93 1549.52 Q1819.12 1549.52 1816.04 1544.94 Q1812.98 1540.33 1812.98 1531.6 Q1812.98 1522.85 1816.04 1518.27 Q1819.12 1513.66 1824.93 1513.66 Z" fill="#000000" fill-rule="nonzero" fill-opacity="1" /><path clip-path="url(#clip460)" d="M2249.39 1518.36 L2237.59 1536.81 L2249.39 1536.81 L2249.39 1518.36 M2248.16 1514.29 L2254.04 1514.29 L2254.04 1536.81 L2258.97 1536.81 L2258.97 1540.7 L2254.04 1540.7 L2254.04 1548.85 L2249.39 1548.85 L2249.39 1540.7 L2233.79 1540.7 L2233.79 1536.19 L2248.16 1514.29 Z" fill="#000000" fill-rule="nonzero" fill-opacity="1" /><path clip-path="url(#clip460)" d="M2276.71 1517.37 Q2273.09 1517.37 2271.27 1520.93 Q2269.46 1524.47 2269.46 1531.6 Q2269.46 1538.71 2271.27 1542.27 Q2273.09 1545.82 2276.71 1545.82 Q2280.34 1545.82 2282.15 1542.27 Q2283.97 1538.71 2283.97 1531.6 Q2283.97 1524.47 2282.15 1520.93 Q2280.34 1517.37 2276.71 1517.37 M2276.71 1513.66 Q2282.52 1513.66 2285.57 1518.27 Q2288.65 1522.85 2288.65 1531.6 Q2288.65 1540.33 2285.57 1544.94 Q2282.52 1549.52 2276.71 1549.52 Q2270.9 1549.52 2267.82 1544.94 Q2264.76 1540.33 2264.76 1531.6 Q2264.76 1522.85 2267.82 1518.27 Q2270.9 1513.66 2276.71 1513.66 Z" fill="#000000" fill-rule="nonzero" fill-opacity="1" /><path clip-path="url(#clip460)" d="M2306.87 1517.37 Q2303.26 1517.37 2301.43 1520.93 Q2299.62 1524.47 2299.62 1531.6 Q2299.62 1538.71 2301.43 1542.27 Q2303.26 1545.82 2306.87 1545.82 Q2310.5 1545.82 2312.31 1542.27 Q2314.14 1538.71 2314.14 1531.6 Q2314.14 1524.47 2312.31 1520.93 Q2310.5 1517.37 2306.87 1517.37 M2306.87 1513.66 Q2312.68 1513.66 2315.73 1518.27 Q2318.81 1522.85 2318.81 1531.6 Q2318.81 1540.33 2315.73 1544.94 Q2312.68 1549.52 2306.87 1549.52 Q2301.06 1549.52 2297.98 1544.94 Q2294.92 1540.33 2294.92 1531.6 Q2294.92 1522.85 2297.98 1518.27 Q2301.06 1513.66 2306.87 1513.66 Z" fill="#000000" fill-rule="nonzero" fill-opacity="1" /><path clip-path="url(#clip460)" d="M2337.03 1517.37 Q2333.42 1517.37 2331.59 1520.93 Q2329.78 1524.47 2329.78 1531.6 Q2329.78 1538.71 2331.59 1542.27 Q2333.42 1545.82 2337.03 1545.82 Q2340.66 1545.82 2342.47 1542.27 Q2344.3 1538.71 2344.3 1531.6 Q2344.3 1524.47 2342.47 1520.93 Q2340.66 1517.37 2337.03 1517.37 M2337.03 1513.66 Q2342.84 1513.66 2345.9 1518.27 Q2348.97 1522.85 2348.97 1531.6 Q2348.97 1540.33 2345.9 1544.94 Q2342.84 1549.52 2337.03 1549.52 Q2331.22 1549.52 2328.14 1544.94 Q2325.08 1540.33 2325.08 1531.6 Q2325.08 1522.85 2328.14 1518.27 Q2331.22 1513.66 2337.03 1513.66 Z" fill="#000000" fill-rule="nonzero" fill-opacity="1" /><polyline clip-path="url(#clip462)" style="stroke:#000000; stroke-linecap:round; stroke-linejoin:round; stroke-width:2; stroke-opacity:0.1; fill:none" points="184.191,1317.67 2352.76,1317.67 "/>
<polyline clip-path="url(#clip462)" style="stroke:#000000; stroke-linecap:round; stroke-linejoin:round; stroke-width:2; stroke-opacity:0.1; fill:none" points="184.191,1060.43 2352.76,1060.43 "/>
<polyline clip-path="url(#clip462)" style="stroke:#000000; stroke-linecap:round; stroke-linejoin:round; stroke-width:2; stroke-opacity:0.1; fill:none" points="184.191,803.186 2352.76,803.186 "/>
<polyline clip-path="url(#clip462)" style="stroke:#000000; stroke-linecap:round; stroke-linejoin:round; stroke-width:2; stroke-opacity:0.1; fill:none" points="184.191,545.942 2352.76,545.942 "/>
<polyline clip-path="url(#clip462)" style="stroke:#000000; stroke-linecap:round; stroke-linejoin:round; stroke-width:2; stroke-opacity:0.1; fill:none" points="184.191,288.699 2352.76,288.699 "/>
<polyline clip-path="url(#clip460)" style="stroke:#000000; stroke-linecap:round; stroke-linejoin:round; stroke-width:4; stroke-opacity:1; fill:none" points="184.191,1486.45 184.191,47.2441 "/>
<polyline clip-path="url(#clip460)" style="stroke:#000000; stroke-linecap:round; stroke-linejoin:round; stroke-width:4; stroke-opacity:1; fill:none" points="184.191,1317.67 203.088,1317.67 "/>
<polyline clip-path="url(#clip460)" style="stroke:#000000; stroke-linecap:round; stroke-linejoin:round; stroke-width:4; stroke-opacity:1; fill:none" points="184.191,1060.43 203.088,1060.43 "/>
<polyline clip-path="url(#clip460)" style="stroke:#000000; stroke-linecap:round; stroke-linejoin:round; stroke-width:4; stroke-opacity:1; fill:none" points="184.191,803.186 203.088,803.186 "/>
<polyline clip-path="url(#clip460)" style="stroke:#000000; stroke-linecap:round; stroke-linejoin:round; stroke-width:4; stroke-opacity:1; fill:none" points="184.191,545.942 203.088,545.942 "/>
<polyline clip-path="url(#clip460)" style="stroke:#000000; stroke-linecap:round; stroke-linejoin:round; stroke-width:4; stroke-opacity:1; fill:none" points="184.191,288.699 203.088,288.699 "/>
<path clip-path="url(#clip460)" d="M51.6634 1331.02 L59.3023 1331.02 L59.3023 1304.65 L50.9921 1306.32 L50.9921 1302.06 L59.256 1300.39 L63.9319 1300.39 L63.9319 1331.02 L71.5707 1331.02 L71.5707 1334.95 L51.6634 1334.95 L51.6634 1331.02 Z" fill="#000000" fill-rule="nonzero" fill-opacity="1" /><path clip-path="url(#clip460)" d="M81.8253 1331.02 L89.4641 1331.02 L89.4641 1304.65 L81.154 1306.32 L81.154 1302.06 L89.4178 1300.39 L94.0937 1300.39 L94.0937 1331.02 L101.733 1331.02 L101.733 1334.95 L81.8253 1334.95 L81.8253 1331.02 Z" fill="#000000" fill-rule="nonzero" fill-opacity="1" /><path clip-path="url(#clip460)" d="M111.177 1329.07 L116.061 1329.07 L116.061 1334.95 L111.177 1334.95 L111.177 1329.07 Z" fill="#000000" fill-rule="nonzero" fill-opacity="1" /><path clip-path="url(#clip460)" d="M136.246 1303.47 Q132.635 1303.47 130.807 1307.04 Q129.001 1310.58 129.001 1317.71 Q129.001 1324.81 130.807 1328.38 Q132.635 1331.92 136.246 1331.92 Q139.881 1331.92 141.686 1328.38 Q143.515 1324.81 143.515 1317.71 Q143.515 1310.58 141.686 1307.04 Q139.881 1303.47 136.246 1303.47 M136.246 1299.77 Q142.056 1299.77 145.112 1304.37 Q148.191 1308.96 148.191 1317.71 Q148.191 1326.43 145.112 1331.04 Q142.056 1335.62 136.246 1335.62 Q130.436 1335.62 127.357 1331.04 Q124.302 1326.43 124.302 1317.71 Q124.302 1308.96 127.357 1304.37 Q130.436 1299.77 136.246 1299.77 Z" fill="#000000" fill-rule="nonzero" fill-opacity="1" /><path clip-path="url(#clip460)" d="M52.6588 1073.77 L60.2976 1073.77 L60.2976 1047.41 L51.9875 1049.08 L51.9875 1044.82 L60.2513 1043.15 L64.9272 1043.15 L64.9272 1073.77 L72.5661 1073.77 L72.5661 1077.71 L52.6588 1077.71 L52.6588 1073.77 Z" fill="#000000" fill-rule="nonzero" fill-opacity="1" /><path clip-path="url(#clip460)" d="M82.8207 1073.77 L90.4595 1073.77 L90.4595 1047.41 L82.1494 1049.08 L82.1494 1044.82 L90.4132 1043.15 L95.0891 1043.15 L95.0891 1073.77 L102.728 1073.77 L102.728 1077.71 L82.8207 1077.71 L82.8207 1073.77 Z" fill="#000000" fill-rule="nonzero" fill-opacity="1" /><path clip-path="url(#clip460)" d="M112.172 1071.83 L117.057 1071.83 L117.057 1077.71 L112.172 1077.71 L112.172 1071.83 Z" fill="#000000" fill-rule="nonzero" fill-opacity="1" /><path clip-path="url(#clip460)" d="M127.288 1043.15 L145.644 1043.15 L145.644 1047.08 L131.57 1047.08 L131.57 1055.56 Q132.589 1055.21 133.607 1055.05 Q134.626 1054.86 135.644 1054.86 Q141.431 1054.86 144.811 1058.03 Q148.191 1061.2 148.191 1066.62 Q148.191 1072.2 144.718 1075.3 Q141.246 1078.38 134.927 1078.38 Q132.751 1078.38 130.482 1078.01 Q128.237 1077.64 125.83 1076.9 L125.83 1072.2 Q127.913 1073.33 130.135 1073.89 Q132.357 1074.45 134.834 1074.45 Q138.839 1074.45 141.177 1072.34 Q143.515 1070.23 143.515 1066.62 Q143.515 1063.01 141.177 1060.9 Q138.839 1058.8 134.834 1058.8 Q132.959 1058.8 131.084 1059.21 Q129.232 1059.63 127.288 1060.51 L127.288 1043.15 Z" fill="#000000" fill-rule="nonzero" fill-opacity="1" /><path clip-path="url(#clip460)" d="M51.6634 816.53 L59.3023 816.53 L59.3023 790.165 L50.9921 791.832 L50.9921 787.572 L59.256 785.906 L63.9319 785.906 L63.9319 816.53 L71.5707 816.53 L71.5707 820.466 L51.6634 820.466 L51.6634 816.53 Z" fill="#000000" fill-rule="nonzero" fill-opacity="1" /><path clip-path="url(#clip460)" d="M85.0429 816.53 L101.362 816.53 L101.362 820.466 L79.4179 820.466 L79.4179 816.53 Q82.0799 813.776 86.6632 809.146 Q91.2697 804.494 92.4502 803.151 Q94.6956 800.628 95.5752 798.892 Q96.478 797.132 96.478 795.443 Q96.478 792.688 94.5336 790.952 Q92.6123 789.216 89.5104 789.216 Q87.3114 789.216 84.8577 789.98 Q82.4271 790.744 79.6494 792.294 L79.6494 787.572 Q82.4734 786.438 84.9271 785.859 Q87.3808 785.281 89.4178 785.281 Q94.7882 785.281 97.9826 787.966 Q101.177 790.651 101.177 795.142 Q101.177 797.271 100.367 799.193 Q99.5798 801.091 97.4734 803.683 Q96.8947 804.355 93.7928 807.572 Q90.691 810.767 85.0429 816.53 Z" fill="#000000" fill-rule="nonzero" fill-opacity="1" /><path clip-path="url(#clip460)" d="M111.177 814.586 L116.061 814.586 L116.061 820.466 L111.177 820.466 L111.177 814.586 Z" fill="#000000" fill-rule="nonzero" fill-opacity="1" /><path clip-path="url(#clip460)" d="M136.246 788.984 Q132.635 788.984 130.807 792.549 Q129.001 796.091 129.001 803.22 Q129.001 810.327 130.807 813.892 Q132.635 817.433 136.246 817.433 Q139.881 817.433 141.686 813.892 Q143.515 810.327 143.515 803.22 Q143.515 796.091 141.686 792.549 Q139.881 788.984 136.246 788.984 M136.246 785.281 Q142.056 785.281 145.112 789.887 Q148.191 794.47 148.191 803.22 Q148.191 811.947 145.112 816.554 Q142.056 821.137 136.246 821.137 Q130.436 821.137 127.357 816.554 Q124.302 811.947 124.302 803.22 Q124.302 794.47 127.357 789.887 Q130.436 785.281 136.246 785.281 Z" fill="#000000" fill-rule="nonzero" fill-opacity="1" /><path clip-path="url(#clip460)" d="M52.6588 559.287 L60.2976 559.287 L60.2976 532.921 L51.9875 534.588 L51.9875 530.329 L60.2513 528.662 L64.9272 528.662 L64.9272 559.287 L72.5661 559.287 L72.5661 563.222 L52.6588 563.222 L52.6588 559.287 Z" fill="#000000" fill-rule="nonzero" fill-opacity="1" /><path clip-path="url(#clip460)" d="M86.0382 559.287 L102.358 559.287 L102.358 563.222 L80.4133 563.222 L80.4133 559.287 Q83.0753 556.532 87.6586 551.903 Q92.2651 547.25 93.4456 545.907 Q95.691 543.384 96.5706 541.648 Q97.4734 539.889 97.4734 538.199 Q97.4734 535.444 95.5289 533.708 Q93.6076 531.972 90.5058 531.972 Q88.3067 531.972 85.8531 532.736 Q83.4225 533.5 80.6447 535.051 L80.6447 530.329 Q83.4688 529.195 85.9225 528.616 Q88.3762 528.037 90.4132 528.037 Q95.7836 528.037 98.978 530.722 Q102.172 533.407 102.172 537.898 Q102.172 540.028 101.362 541.949 Q100.575 543.847 98.4687 546.44 Q97.89 547.111 94.7882 550.329 Q91.6864 553.523 86.0382 559.287 Z" fill="#000000" fill-rule="nonzero" fill-opacity="1" /><path clip-path="url(#clip460)" d="M112.172 557.343 L117.057 557.343 L117.057 563.222 L112.172 563.222 L112.172 557.343 Z" fill="#000000" fill-rule="nonzero" fill-opacity="1" /><path clip-path="url(#clip460)" d="M127.288 528.662 L145.644 528.662 L145.644 532.597 L131.57 532.597 L131.57 541.069 Q132.589 540.722 133.607 540.56 Q134.626 540.375 135.644 540.375 Q141.431 540.375 144.811 543.546 Q148.191 546.718 148.191 552.134 Q148.191 557.713 144.718 560.815 Q141.246 563.893 134.927 563.893 Q132.751 563.893 130.482 563.523 Q128.237 563.153 125.83 562.412 L125.83 557.713 Q127.913 558.847 130.135 559.403 Q132.357 559.958 134.834 559.958 Q138.839 559.958 141.177 557.852 Q143.515 555.745 143.515 552.134 Q143.515 548.523 141.177 546.417 Q138.839 544.31 134.834 544.31 Q132.959 544.31 131.084 544.727 Q129.232 545.143 127.288 546.023 L127.288 528.662 Z" fill="#000000" fill-rule="nonzero" fill-opacity="1" /><path clip-path="url(#clip460)" d="M51.6634 302.043 L59.3023 302.043 L59.3023 275.678 L50.9921 277.344 L50.9921 273.085 L59.256 271.419 L63.9319 271.419 L63.9319 302.043 L71.5707 302.043 L71.5707 305.979 L51.6634 305.979 L51.6634 302.043 Z" fill="#000000" fill-rule="nonzero" fill-opacity="1" /><path clip-path="url(#clip460)" d="M95.1817 287.344 Q98.5382 288.062 100.413 290.331 Q102.311 292.599 102.311 295.932 Q102.311 301.048 98.7928 303.849 Q95.2743 306.65 88.7928 306.65 Q86.6169 306.65 84.3021 306.21 Q82.0105 305.793 79.5568 304.937 L79.5568 300.423 Q81.5012 301.557 83.816 302.136 Q86.1308 302.715 88.654 302.715 Q93.0521 302.715 95.3437 300.979 Q97.6585 299.242 97.6585 295.932 Q97.6585 292.877 95.5058 291.164 Q93.3762 289.428 89.5567 289.428 L85.529 289.428 L85.529 285.585 L89.7419 285.585 Q93.191 285.585 95.0197 284.219 Q96.8484 282.831 96.8484 280.238 Q96.8484 277.576 94.9502 276.164 Q93.0752 274.729 89.5567 274.729 Q87.6354 274.729 85.4364 275.145 Q83.2373 275.562 80.5984 276.442 L80.5984 272.275 Q83.2605 271.534 85.5753 271.164 Q87.9132 270.794 89.9734 270.794 Q95.2974 270.794 98.3993 273.224 Q101.501 275.632 101.501 279.752 Q101.501 282.622 99.8576 284.613 Q98.2141 286.581 95.1817 287.344 Z" fill="#000000" fill-rule="nonzero" fill-opacity="1" /><path clip-path="url(#clip460)" d="M111.177 300.099 L116.061 300.099 L116.061 305.979 L111.177 305.979 L111.177 300.099 Z" fill="#000000" fill-rule="nonzero" fill-opacity="1" /><path clip-path="url(#clip460)" d="M136.246 274.497 Q132.635 274.497 130.807 278.062 Q129.001 281.604 129.001 288.733 Q129.001 295.84 130.807 299.405 Q132.635 302.946 136.246 302.946 Q139.881 302.946 141.686 299.405 Q143.515 295.84 143.515 288.733 Q143.515 281.604 141.686 278.062 Q139.881 274.497 136.246 274.497 M136.246 270.794 Q142.056 270.794 145.112 275.4 Q148.191 279.983 148.191 288.733 Q148.191 297.46 145.112 302.067 Q142.056 306.65 136.246 306.65 Q130.436 306.65 127.357 302.067 Q124.302 297.46 124.302 288.733 Q124.302 279.983 127.357 275.4 Q130.436 270.794 136.246 270.794 Z" fill="#000000" fill-rule="nonzero" fill-opacity="1" /><polyline clip-path="url(#clip462)" style="stroke:#009af9; stroke-linecap:round; stroke-linejoin:round; stroke-width:4; stroke-opacity:1; fill:none" points="245.565,87.9763 246.077,314 246.588,484.899 247.1,616.265 247.611,719.118 248.122,800.74 248.634,867.245 249.145,922.173 249.657,968.49 250.168,1008.49 250.68,1043.06 251.191,1073.36 251.703,1100.1 252.214,1123.84 252.726,1145.13 253.237,1164.22 253.748,1181.56 254.26,1197.62 254.771,1212.31 255.283,1225.75 255.794,1238.15 256.306,1249.55 256.817,1260.14 257.329,1270.14 257.84,1279.44 258.352,1288.09 258.863,1296.17 259.374,1303.7 259.886,1310.77 260.397,1317.4 260.909,1323.64 261.42,1329.64 261.932,1335.28 262.443,1340.56 262.955,1345.53 263.466,1350.22 263.978,1354.65 264.489,1358.84 265,1362.81 265.512,1366.56 266.023,1370.1 266.535,1373.42 267.046,1376.56 267.558,1379.6 268.069,1382.48 268.581,1385.18 269.092,1387.74 269.604,1390.16 270.115,1392.47 270.626,1394.68 271.138,1396.79 271.649,1398.79 272.161,1400.69 272.672,1402.54 273.184,1404.3 273.695,1405.97 274.207,1407.57 274.718,1409.08 275.23,1410.53 275.741,1411.94 276.252,1413.28 276.764,1414.58 277.275,1415.83 277.787,1416.99 278.298,1418.1 278.81,1419.16 279.321,1420.18 279.833,1421.13 280.344,1422.04 280.855,1422.95 281.367,1423.81 281.878,1424.62 282.39,1425.39 282.901,1426.14 283.413,1426.87 283.924,1427.55 284.436,1428.21 284.947,1428.83 285.459,1429.42 285.97,1430 286.481,1430.56 286.993,1431.12 287.504,1431.66 288.016,1432.14 288.527,1432.6 289.039,1433.07 289.55,1433.51 290.062,1433.94 290.573,1434.35 291.085,1434.75 291.596,1435.14 292.107,1435.5 292.619,1435.84 293.13,1436.19 293.642,1436.53 294.153,1436.84 294.665,1437.13 295.176,1437.42 295.688,1437.7 296.199,1437.94 296.711,1438.18 297.222,1438.43 297.733,1438.67 298.245,1438.92 298.756,1439.16 299.268,1439.38 299.779,1439.58 300.291,1439.76 300.802,1439.94 301.314,1440.12 301.825,1440.3 302.337,1440.47 302.848,1440.63 303.359,1440.79 303.871,1440.94 304.382,1441.1 304.894,1441.25 305.405,1441.41 305.917,1441.56 306.428,1441.68 306.94,1441.79 307.451,1441.93 307.963,1442.05 308.474,1442.18 308.985,1442.29 309.497,1442.41 310.008,1442.52 310.52,1442.63 311.031,1442.72 311.543,1442.82 312.054,1442.92 312.566,1443.02 313.077,1443.11 313.589,1443.2 314.1,1443.29 314.611,1443.37 315.123,1443.44 315.634,1443.51 316.146,1443.57 316.657,1443.62 317.169,1443.67 317.68,1443.72 318.192,1443.78 318.703,1443.83 319.215,1443.88 319.726,1443.95 320.237,1444.01 320.749,1444.06 321.26,1444.11 321.772,1444.16 322.283,1444.21 322.795,1444.26 323.306,1444.31 323.818,1444.35 324.329,1444.39 324.841,1444.42 325.352,1444.45 325.863,1444.48 326.375,1444.51 326.886,1444.53 327.398,1444.55 327.909,1444.58 328.421,1444.61 328.932,1444.65 329.444,1444.68 329.955,1444.7 330.467,1444.73 330.978,1444.77 331.489,1444.81 332.001,1444.83 332.512,1444.85 333.024,1444.87 333.535,1444.88 334.047,1444.91 334.558,1444.94 335.07,1444.94 335.581,1444.95 336.093,1444.97 336.604,1444.99 337.115,1445.03 337.627,1445.05 338.138,1445.06 338.65,1445.07 339.161,1445.09 339.673,1445.11 340.184,1445.14 340.696,1445.16 341.207,1445.18 341.719,1445.19 342.23,1445.2 342.741,1445.2 343.253,1445.21 343.764,1445.21 344.276,1445.21 344.787,1445.2 345.299,1445.2 345.81,1445.2 346.322,1445.21 346.833,1445.21 347.345,1445.25 347.856,1445.29 348.367,1445.3 348.879,1445.31 349.39,1445.34 349.902,1445.37 350.413,1445.38 350.925,1445.39 351.436,1445.4 351.948,1445.41 352.459,1445.42 352.971,1445.43 353.482,1445.42 353.993,1445.42 354.505,1445.44 355.016,1445.46 355.528,1445.46 356.039,1445.47 356.551,1445.47 357.062,1445.48 357.574,1445.49 358.085,1445.5 358.597,1445.49 359.108,1445.49 359.619,1445.48 360.131,1445.48 360.642,1445.48 361.154,1445.49 361.665,1445.49 362.177,1445.49 362.688,1445.5 363.2,1445.51 363.711,1445.53 364.223,1445.54 364.734,1445.54 365.245,1445.54 365.757,1445.56 366.268,1445.58 366.78,1445.58 367.291,1445.59 367.803,1445.58 368.314,1445.58 368.826,1445.59 369.337,1445.6 369.849,1445.59 370.36,1445.59 370.871,1445.6 371.383,1445.61 371.894,1445.59 372.406,1445.58 372.917,1445.59 373.429,1445.6 373.94,1445.59 374.452,1445.59 374.963,1445.59 375.474,1445.6 375.986,1445.6 376.497,1445.59 377.009,1445.6 377.52,1445.6 378.032,1445.61 378.543,1445.61 379.055,1445.62 379.566,1445.62 380.078,1445.61 380.589,1445.6 381.1,1445.61 381.612,1445.61 382.123,1445.6 382.635,1445.6 383.146,1445.59 383.658,1445.59 384.169,1445.59 384.681,1445.59 385.192,1445.58 385.704,1445.57 386.215,1445.58 386.726,1445.58 387.238,1445.57 387.749,1445.56 388.261,1445.56 388.772,1445.56 389.284,1445.57 389.795,1445.57 390.307,1445.58 390.818,1445.58 391.33,1445.59 391.841,1445.61 392.352,1445.6 392.864,1445.59 393.375,1445.6 393.887,1445.6 394.398,1445.6 394.91,1445.6 395.421,1445.6 395.933,1445.59 396.444,1445.59 396.956,1445.59 397.467,1445.58 397.978,1445.57 398.49,1445.57 399.001,1445.56 399.513,1445.56 400.024,1445.55 400.536,1445.54 401.047,1445.53 401.559,1445.51 402.07,1445.5 402.582,1445.51 403.093,1445.51 403.604,1445.52 404.116,1445.52 404.627,1445.52 405.139,1445.52 405.65,1445.54 406.162,1445.55 406.673,1445.55 407.185,1445.56 407.696,1445.56 408.208,1445.56 408.719,1445.57 409.23,1445.57 409.742,1445.57 410.253,1445.57 410.765,1445.55 411.276,1445.53 411.788,1445.55 412.299,1445.56 412.811,1445.55 413.322,1445.54 413.834,1445.53 414.345,1445.52 414.856,1445.5 415.368,1445.48 415.879,1445.5 416.391,1445.52 416.902,1445.53 417.414,1445.53 417.925,1445.53 418.437,1445.53 418.948,1445.52 419.46,1445.51 419.971,1445.52 420.482,1445.53 420.994,1445.52 421.505,1445.52 422.017,1445.53 422.528,1445.53 423.04,1445.54 423.551,1445.54 424.063,1445.55 424.574,1445.55 425.086,1445.56 425.597,1445.56 426.108,1445.55 426.62,1445.53 427.131,1445.54 427.643,1445.54 428.154,1445.55 428.666,1445.56 429.177,1445.54 429.689,1445.53 430.2,1445.51 430.712,1445.5 431.223,1445.5 431.734,1445.51 432.246,1445.51 432.757,1445.51 433.269,1445.51 433.78,1445.52 434.292,1445.52 434.803,1445.52 435.315,1445.52 435.826,1445.52 436.338,1445.53 436.849,1445.53 437.36,1445.54 437.872,1445.54 438.383,1445.54 438.895,1445.55 439.406,1445.53 439.918,1445.52 440.429,1445.53 440.941,1445.54 441.452,1445.53 441.964,1445.53 442.475,1445.54 442.986,1445.54 443.498,1445.53 444.009,1445.51 444.521,1445.5 445.032,1445.48 445.544,1445.49 446.055,1445.5 446.567,1445.49 447.078,1445.49 447.59,1445.49 448.101,1445.5 448.612,1445.5 449.124,1445.5 449.635,1445.5 450.147,1445.5 450.658,1445.51 451.17,1445.51 451.681,1445.52 452.193,1445.52 452.704,1445.53 453.216,1445.54 453.727,1445.54 454.238,1445.54 454.75,1445.55 455.261,1445.56 455.773,1445.56 456.284,1445.56 456.796,1445.55 457.307,1445.55 457.819,1445.56 458.33,1445.57 458.842,1445.58 459.353,1445.6 459.864,1445.58 460.376,1445.56 460.887,1445.56 461.399,1445.55 461.91,1445.55 462.422,1445.54 462.933,1445.54 463.445,1445.54 463.956,1445.53 464.468,1445.51 464.979,1445.53 465.49,1445.54 466.002,1445.52 466.513,1445.51 467.025,1445.5 467.536,1445.49 468.048,1445.5 468.559,1445.5 469.071,1445.49 469.582,1445.48 470.094,1445.48 470.605,1445.49 471.116,1445.49 471.628,1445.5 472.139,1445.51 472.651,1445.52 473.162,1445.54 473.674,1445.55 474.185,1445.55 474.697,1445.55 475.208,1445.55 475.719,1445.56 476.231,1445.56 476.742,1445.57 477.254,1445.57 477.765,1445.57 478.277,1445.56 478.788,1445.56 479.3,1445.55 479.811,1445.54 480.323,1445.54 480.834,1445.54 481.345,1445.55 481.857,1445.56 482.368,1445.57 482.88,1445.59 483.391,1445.59 483.903,1445.59 484.414,1445.6 484.926,1445.6 485.437,1445.6 485.949,1445.6 486.46,1445.61 486.971,1445.63 487.483,1445.64 487.994,1445.66 488.506,1445.66 489.017,1445.66 489.529,1445.65 490.04,1445.63 490.552,1445.63 491.063,1445.64 491.575,1445.64 492.086,1445.63 492.597,1445.64 493.109,1445.65 493.62,1445.65 494.132,1445.65 494.643,1445.64 495.155,1445.62 495.666,1445.61 496.178,1445.59 496.689,1445.59 497.201,1445.59 497.712,1445.61 498.223,1445.62 498.735,1445.61 499.246,1445.61 499.758,1445.61 500.269,1445.61 500.781,1445.62 501.292,1445.62 501.804,1445.63 502.315,1445.64 502.827,1445.65 503.338,1445.65 503.849,1445.66 504.361,1445.66 504.872,1445.66 505.384,1445.65 505.895,1445.65 506.407,1445.65 506.918,1445.65 507.43,1445.64 507.941,1445.63 508.453,1445.62 508.964,1445.62 509.475,1445.62 509.987,1445.61 510.498,1445.6 511.01,1445.57 511.521,1445.55 512.033,1445.55 512.544,1445.55 513.056,1445.55 513.567,1445.55 514.079,1445.55 514.59,1445.55 515.101,1445.54 515.613,1445.53 516.124,1445.53 516.636,1445.54 517.147,1445.55 517.659,1445.57 518.17,1445.57 518.682,1445.57 519.193,1445.58 519.705,1445.59 520.216,1445.58 520.727,1445.58 521.239,1445.58 521.75,1445.58 522.262,1445.57 522.773,1445.55 523.285,1445.55 523.796,1445.55 524.308,1445.55 524.819,1445.55 525.331,1445.57 525.842,1445.58 526.353,1445.56 526.865,1445.55 527.376,1445.55 527.888,1445.55 528.399,1445.55 528.911,1445.55 529.422,1445.54 529.934,1445.54 530.445,1445.54 530.957,1445.54 531.468,1445.54 531.979,1445.54 532.491,1445.53 533.002,1445.52 533.514,1445.53 534.025,1445.53 534.537,1445.52 535.048,1445.52 535.56,1445.53 536.071,1445.54 536.583,1445.55 537.094,1445.57 537.605,1445.58 538.117,1445.6 538.628,1445.58 539.14,1445.56 539.651,1445.57 540.163,1445.58 540.674,1445.59 541.186,1445.6 541.697,1445.6 542.209,1445.6 542.72,1445.59 543.231,1445.58 543.743,1445.59 544.254,1445.6 544.766,1445.6 545.277,1445.6 545.789,1445.59 546.3,1445.58 546.812,1445.58 547.323,1445.57 547.835,1445.56 548.346,1445.54 548.857,1445.54 549.369,1445.53 549.88,1445.55 550.392,1445.56 550.903,1445.55 551.415,1445.55 551.926,1445.55 552.438,1445.55 552.949,1445.55 553.461,1445.55 553.972,1445.53 554.483,1445.52 554.995,1445.52 555.506,1445.51 556.018,1445.5 556.529,1445.5 557.041,1445.51 557.552,1445.51 558.064,1445.53 558.575,1445.54 559.087,1445.53 559.598,1445.52 560.109,1445.52 560.621,1445.53 561.132,1445.54 561.644,1445.56 562.155,1445.56 562.667,1445.56 563.178,1445.57 563.69,1445.59 564.201,1445.59 564.713,1445.59 565.224,1445.6 565.735,1445.61 566.247,1445.59 566.758,1445.58 567.27,1445.58 567.781,1445.59 568.293,1445.59 568.804,1445.6 569.316,1445.59 569.827,1445.58 570.338,1445.57 570.85,1445.56 571.361,1445.55 571.873,1445.54 572.384,1445.54 572.896,1445.55 573.407,1445.54 573.919,1445.54 574.43,1445.54 574.942,1445.55 575.453,1445.56 575.964,1445.57 576.476,1445.56 576.987,1445.56 577.499,1445.56 578.01,1445.56 578.522,1445.55 579.033,1445.55 579.545,1445.56 580.056,1445.57 580.568,1445.58 581.079,1445.58 581.59,1445.59 582.102,1445.59 582.613,1445.58 583.125,1445.58 583.636,1445.58 584.148,1445.58 584.659,1445.57 585.171,1445.57 585.682,1445.58 586.194,1445.58 586.705,1445.59 587.216,1445.59 587.728,1445.59 588.239,1445.58 588.751,1445.59 589.262,1445.6 589.774,1445.61 590.285,1445.63 590.797,1445.63 591.308,1445.64 591.82,1445.65 592.331,1445.65 592.842,1445.66 593.354,1445.66 593.865,1445.66 594.377,1445.66 594.888,1445.65 595.4,1445.65 595.911,1445.66 596.423,1445.66 596.934,1445.66 597.446,1445.66 597.957,1445.66 598.468,1445.65 598.98,1445.64 599.491,1445.63 600.003,1445.63 600.514,1445.63 601.026,1445.62 601.537,1445.62 602.049,1445.63 602.56,1445.63 603.072,1445.62 603.583,1445.61 604.094,1445.61 604.606,1445.61 605.117,1445.61 605.629,1445.61 606.14,1445.62 606.652,1445.62 607.163,1445.63 607.675,1445.63 608.186,1445.64 608.698,1445.64 609.209,1445.65 609.72,1445.66 610.232,1445.64 610.743,1445.62 611.255,1445.62 611.766,1445.62 612.278,1445.61 612.789,1445.61 613.301,1445.62 613.812,1445.62 614.324,1445.62 614.835,1445.62 615.346,1445.63 615.858,1445.64 616.369,1445.64 616.881,1445.63 617.392,1445.63 617.904,1445.62 618.415,1445.62 618.927,1445.62 619.438,1445.62 619.95,1445.63 620.461,1445.62 620.972,1445.61 621.484,1445.6 621.995,1445.6 622.507,1445.59 623.018,1445.59 623.53,1445.58 624.041,1445.58 624.553,1445.58 625.064,1445.57 625.576,1445.57 626.087,1445.57 626.598,1445.57 627.11,1445.58 627.621,1445.57 628.133,1445.57 628.644,1445.56 629.156,1445.56 629.667,1445.56 630.179,1445.55 630.69,1445.57 631.202,1445.58 631.713,1445.59 632.224,1445.6 632.736,1445.6 633.247,1445.6 633.759,1445.6 634.27,1445.61 634.782,1445.62 635.293,1445.62 635.805,1445.61 636.316,1445.61 636.828,1445.59 637.339,1445.58 637.85,1445.59 638.362,1445.59 638.873,1445.59 639.385,1445.59 639.896,1445.6 640.408,1445.61 640.919,1445.61 641.431,1445.61 641.942,1445.61 642.454,1445.61 642.965,1445.6 643.476,1445.6 643.988,1445.6 644.499,1445.6 645.011,1445.59 645.522,1445.58 646.034,1445.58 646.545,1445.58 647.057,1445.59 647.568,1445.59 648.08,1445.59 648.591,1445.58 649.102,1445.58 649.614,1445.59 650.125,1445.58 650.637,1445.58 651.148,1445.57 651.66,1445.57 652.171,1445.57 652.683,1445.56 653.194,1445.56 653.706,1445.56 654.217,1445.54 654.728,1445.53 655.24,1445.52 655.751,1445.51 656.263,1445.51 656.774,1445.51 657.286,1445.5 657.797,1445.5 658.309,1445.5 658.82,1445.49 659.332,1445.5 659.843,1445.51 660.354,1445.53 660.866,1445.55 661.377,1445.55 661.889,1445.54 662.4,1445.55 662.912,1445.56 663.423,1445.55 663.935,1445.54 664.446,1445.53 664.957,1445.52 665.469,1445.54 665.98,1445.56 666.492,1445.57 667.003,1445.58 667.515,1445.59 668.026,1445.59 668.538,1445.59 669.049,1445.6 669.561,1445.57 670.072,1445.55 670.583,1445.55 671.095,1445.55 671.606,1445.55 672.118,1445.55 672.629,1445.55 673.141,1445.55 673.652,1445.56 674.164,1445.56 674.675,1445.57 675.187,1445.58 675.698,1445.57 676.209,1445.57 676.721,1445.56 677.232,1445.55 677.744,1445.54 678.255,1445.54 678.767,1445.53 679.278,1445.52 679.79,1445.54 680.301,1445.56 680.813,1445.58 681.324,1445.61 681.835,1445.61 682.347,1445.61 682.858,1445.6 683.37,1445.6 683.881,1445.6 684.393,1445.59 684.904,1445.59 685.416,1445.59 685.927,1445.58 686.439,1445.57 686.95,1445.56 687.461,1445.56 687.973,1445.56 688.484,1445.56 688.996,1445.57 689.507,1445.57 690.019,1445.58 690.53,1445.58 691.042,1445.59 691.553,1445.6 692.065,1445.6 692.576,1445.61 693.087,1445.61 693.599,1445.61 694.11,1445.61 694.622,1445.62 695.133,1445.63 695.645,1445.64 696.156,1445.65 696.668,1445.66 697.179,1445.65 697.691,1445.64 698.202,1445.64 698.713,1445.63 699.225,1445.63 699.736,1445.63 700.248,1445.63 700.759,1445.63 701.271,1445.63 701.782,1445.64 702.294,1445.63 702.805,1445.62 703.317,1445.6 703.828,1445.58 704.339,1445.59 704.851,1445.6 705.362,1445.6 705.874,1445.6 706.385,1445.61 706.897,1445.63 707.408,1445.62 707.92,1445.61 708.431,1445.6 708.943,1445.58 709.454,1445.58 709.965,1445.57 710.477,1445.58 710.988,1445.59 711.5,1445.57 712.011,1445.56 712.523,1445.55 713.034,1445.54 713.546,1445.54 714.057,1445.53 714.569,1445.54 715.08,1445.54 715.591,1445.55 716.103,1445.56 716.614,1445.55 717.126,1445.55 717.637,1445.56 718.149,1445.58 718.66,1445.56 719.172,1445.55 719.683,1445.55 720.195,1445.56 720.706,1445.56 721.217,1445.55 721.729,1445.55 722.24,1445.55 722.752,1445.57 723.263,1445.58 723.775,1445.59 724.286,1445.6 724.798,1445.59 725.309,1445.59 725.821,1445.58 726.332,1445.58 726.843,1445.57 727.355,1445.56 727.866,1445.58 728.378,1445.59 728.889,1445.59 729.401,1445.58 729.912,1445.58 730.424,1445.59 730.935,1445.58 731.447,1445.58 731.958,1445.58 732.469,1445.58 732.981,1445.59 733.492,1445.59 734.004,1445.58 734.515,1445.57 735.027,1445.58 735.538,1445.58 736.05,1445.61 736.561,1445.63 737.073,1445.63 737.584,1445.63 738.095,1445.61 738.607,1445.59 739.118,1445.58 739.63,1445.57 740.141,1445.57 740.653,1445.57 741.164,1445.57 741.676,1445.56 742.187,1445.57 742.699,1445.58 743.21,1445.57 743.721,1445.57 744.233,1445.57 744.744,1445.57 745.256,1445.56 745.767,1445.56 746.279,1445.57 746.79,1445.57 747.302,1445.58 747.813,1445.58 748.325,1445.56 748.836,1445.53 749.347,1445.54 749.859,1445.54 750.37,1445.55 750.882,1445.55 751.393,1445.56 751.905,1445.57 752.416,1445.57 752.928,1445.57 753.439,1445.57 753.951,1445.57 754.462,1445.56 754.973,1445.56 755.485,1445.56 755.996,1445.56 756.508,1445.55 757.019,1445.54 757.531,1445.54 758.042,1445.55 758.554,1445.55 759.065,1445.56 759.576,1445.57 760.088,1445.58 760.599,1445.56 761.111,1445.55 761.622,1445.56 762.134,1445.57 762.645,1445.58 763.157,1445.59 763.668,1445.58 764.18,1445.57 764.691,1445.58 765.202,1445.59 765.714,1445.59 766.225,1445.58 766.737,1445.59 767.248,1445.59 767.76,1445.59 768.271,1445.59 768.783,1445.59 769.294,1445.59 769.806,1445.59 770.317,1445.59 770.828,1445.58 771.34,1445.58 771.851,1445.57 772.363,1445.57 772.874,1445.57 773.386,1445.58 773.897,1445.57 774.409,1445.56 774.92,1445.57 775.432,1445.57 775.943,1445.58 776.454,1445.58 776.966,1445.58 777.477,1445.58 777.989,1445.59 778.5,1445.6 779.012,1445.6 779.523,1445.61 780.035,1445.6 780.546,1445.6 781.058,1445.6 781.569,1445.61 782.08,1445.62 782.592,1445.63 783.103,1445.62 783.615,1445.61 784.126,1445.6 784.638,1445.59 785.149,1445.58 785.661,1445.57 786.172,1445.58 786.684,1445.58 787.195,1445.59 787.706,1445.59 788.218,1445.58 788.729,1445.57 789.241,1445.58 789.752,1445.58 790.264,1445.57 790.775,1445.56 791.287,1445.57 791.798,1445.57 792.31,1445.57 792.821,1445.57 793.332,1445.58 793.844,1445.59 794.355,1445.57 794.867,1445.55 795.378,1445.55 795.89,1445.55 796.401,1445.55 796.913,1445.55 797.424,1445.55 797.936,1445.55 798.447,1445.55 798.958,1445.55 799.47,1445.58 799.981,1445.61 800.493,1445.6 801.004,1445.58 801.516,1445.58 802.027,1445.57 802.539,1445.57 803.05,1445.58 803.562,1445.57 804.073,1445.56 804.584,1445.57 805.096,1445.58 805.607,1445.6 806.119,1445.62 806.63,1445.62 807.142,1445.62 807.653,1445.63 808.165,1445.63 808.676,1445.63 809.188,1445.63 809.699,1445.64 810.21,1445.65 810.722,1445.64 811.233,1445.63 811.745,1445.64 812.256,1445.65 812.768,1445.65 813.279,1445.65 813.791,1445.66 814.302,1445.67 814.814,1445.67 815.325,1445.67 815.836,1445.66 816.348,1445.65 816.859,1445.65 817.371,1445.64 817.882,1445.63 818.394,1445.61 818.905,1445.62 819.417,1445.63 819.928,1445.63 820.44,1445.62 820.951,1445.62 821.462,1445.61 821.974,1445.6 822.485,1445.6 822.997,1445.59 823.508,1445.59 824.02,1445.59 824.531,1445.59 825.043,1445.59 825.554,1445.59 826.066,1445.58 826.577,1445.57 827.088,1445.59 827.6,1445.61 828.111,1445.62 828.623,1445.64 829.134,1445.63 829.646,1445.62 830.157,1445.63 830.669,1445.63 831.18,1445.63 831.692,1445.62 832.203,1445.61 832.714,1445.61 833.226,1445.62 833.737,1445.62 834.249,1445.61 834.76,1445.6 835.272,1445.61 835.783,1445.62 836.295,1445.62 836.806,1445.61 837.318,1445.61 837.829,1445.62 838.34,1445.62 838.852,1445.62 839.363,1445.62 839.875,1445.61 840.386,1445.6 840.898,1445.6 841.409,1445.59 841.921,1445.59 842.432,1445.59 842.944,1445.59 843.455,1445.6 843.966,1445.61 844.478,1445.61 844.989,1445.62 845.501,1445.62 846.012,1445.63 846.524,1445.63 847.035,1445.63 847.547,1445.62 848.058,1445.6 848.57,1445.6 849.081,1445.59 849.592,1445.61 850.104,1445.63 850.615,1445.64 851.127,1445.65 851.638,1445.66 852.15,1445.66 852.661,1445.67 853.173,1445.68 853.684,1445.68 854.196,1445.67 854.707,1445.65 855.218,1445.63 855.73,1445.62 856.241,1445.6 856.753,1445.59 857.264,1445.58 857.776,1445.59 858.287,1445.59 858.799,1445.57 859.31,1445.55 859.821,1445.55 860.333,1445.55 860.844,1445.53 861.356,1445.52 861.867,1445.51 862.379,1445.51 862.89,1445.52 863.402,1445.53 863.913,1445.52 864.425,1445.51 864.936,1445.53 865.447,1445.56 865.959,1445.55 866.47,1445.54 866.982,1445.56 867.493,1445.58 868.005,1445.59 868.516,1445.6 869.028,1445.6 869.539,1445.59 870.051,1445.59 870.562,1445.59 871.073,1445.59 871.585,1445.58 872.096,1445.59 872.608,1445.6 873.119,1445.61 873.631,1445.61 874.142,1445.61 874.654,1445.6 875.165,1445.6 875.677,1445.61 876.188,1445.62 876.699,1445.63 877.211,1445.62 877.722,1445.62 878.234,1445.6 878.745,1445.59 879.257,1445.6 879.768,1445.6 880.28,1445.61 880.791,1445.61 881.303,1445.6 881.814,1445.59 882.325,1445.58 882.837,1445.58 883.348,1445.57 883.86,1445.55 884.371,1445.56 884.883,1445.57 885.394,1445.59 885.906,1445.61 886.417,1445.6 886.929,1445.58 887.44,1445.59 887.951,1445.59 888.463,1445.59 888.974,1445.6 889.486,1445.59 889.997,1445.59 890.509,1445.58 891.02,1445.56 891.532,1445.58 892.043,1445.6 892.555,1445.59 893.066,1445.58 893.577,1445.58 894.089,1445.59 894.6,1445.59 895.112,1445.59 895.623,1445.59 896.135,1445.59 896.646,1445.6 897.158,1445.61 897.669,1445.62 898.181,1445.63 898.692,1445.63 899.203,1445.63 899.715,1445.63 900.226,1445.63 900.738,1445.63 901.249,1445.63 901.761,1445.63 902.272,1445.63 902.784,1445.61 903.295,1445.6 903.807,1445.58 904.318,1445.57 904.829,1445.56 905.341,1445.56 905.852,1445.55 906.364,1445.55 906.875,1445.55 907.387,1445.54 907.898,1445.54 908.41,1445.54 908.921,1445.54 909.433,1445.55 909.944,1445.53 910.455,1445.52 910.967,1445.52 911.478,1445.53 911.99,1445.53 912.501,1445.54 913.013,1445.55 913.524,1445.56 914.036,1445.55 914.547,1445.55 915.059,1445.55 915.57,1445.55 916.081,1445.54 916.593,1445.53 917.104,1445.53 917.616,1445.52 918.127,1445.51 918.639,1445.5 919.15,1445.51 919.662,1445.52 920.173,1445.52 920.685,1445.53 921.196,1445.52 921.707,1445.51 922.219,1445.51 922.73,1445.51 923.242,1445.53 923.753,1445.54 924.265,1445.53 924.776,1445.52 925.288,1445.52 925.799,1445.51 926.311,1445.52 926.822,1445.52 927.333,1445.52 927.845,1445.51 928.356,1445.52 928.868,1445.52 929.379,1445.53 929.891,1445.54 930.402,1445.54 930.914,1445.54 931.425,1445.53 931.937,1445.52 932.448,1445.54 932.959,1445.55 933.471,1445.56 933.982,1445.57 934.494,1445.58 935.005,1445.59 935.517,1445.57 936.028,1445.56 936.54,1445.55 937.051,1445.55 937.563,1445.55 938.074,1445.54 938.585,1445.54 939.097,1445.53 939.608,1445.53 940.12,1445.53 940.631,1445.53 941.143,1445.53 941.654,1445.52 942.166,1445.51 942.677,1445.5 943.189,1445.5 943.7,1445.48 944.211,1445.46 944.723,1445.47 945.234,1445.48 945.746,1445.47 946.257,1445.46 946.769,1445.47 947.28,1445.49 947.792,1445.5 948.303,1445.51 948.815,1445.5 949.326,1445.49 949.837,1445.5 950.349,1445.52 950.86,1445.52 951.372,1445.51 951.883,1445.55 952.395,1445.58 952.906,1445.59 953.418,1445.59 953.929,1445.58 954.44,1445.57 954.952,1445.56 955.463,1445.56 955.975,1445.56 956.486,1445.56 956.998,1445.57 957.509,1445.59 958.021,1445.6 958.532,1445.61 959.044,1445.59 959.555,1445.58 960.066,1445.58 960.578,1445.59 961.089,1445.59 961.601,1445.6 962.112,1445.61 962.624,1445.61 963.135,1445.61 963.647,1445.6 964.158,1445.6 964.67,1445.6 965.181,1445.59 965.692,1445.59 966.204,1445.6 966.715,1445.61 967.227,1445.59 967.738,1445.58 968.25,1445.57 968.761,1445.56 969.273,1445.57 969.784,1445.57 970.296,1445.58 970.807,1445.58 971.318,1445.59 971.83,1445.6 972.341,1445.6 972.853,1445.6 973.364,1445.61 973.876,1445.62 974.387,1445.62 974.899,1445.62 975.41,1445.62 975.922,1445.61 976.433,1445.62 976.944,1445.62 977.456,1445.63 977.967,1445.64 978.479,1445.63 978.99,1445.63 979.502,1445.62 980.013,1445.62 980.525,1445.62 981.036,1445.62 981.548,1445.61 982.059,1445.61 982.57,1445.61 983.082,1445.61 983.593,1445.61 984.105,1445.61 984.616,1445.58 985.128,1445.55 985.639,1445.54 986.151,1445.53 986.662,1445.54 987.174,1445.54 987.685,1445.52 988.196,1445.51 988.708,1445.51 989.219,1445.51 989.731,1445.51 990.242,1445.51 990.754,1445.51 991.265,1445.52 991.777,1445.53 992.288,1445.54 992.8,1445.54 993.311,1445.54 993.822,1445.54 994.334,1445.54 994.845,1445.54 995.357,1445.54 995.868,1445.54 996.38,1445.53 996.891,1445.54 997.403,1445.55 997.914,1445.54 998.426,1445.54 998.937,1445.54 999.448,1445.54 999.96,1445.55 1000.47,1445.54 1000.98,1445.54 1001.49,1445.53 1002.01,1445.53 1002.52,1445.52 1003.03,1445.52 1003.54,1445.52 1004.05,1445.53 1004.56,1445.53 1005.07,1445.53 1005.59,1445.53 1006.1,1445.54 1006.61,1445.55 1007.12,1445.56 1007.63,1445.57 1008.14,1445.56 1008.65,1445.56 1009.17,1445.55 1009.68,1445.55 1010.19,1445.56 1010.7,1445.56 1011.21,1445.56 1011.72,1445.56 1012.23,1445.55 1012.75,1445.55 1013.26,1445.56 1013.77,1445.57 1014.28,1445.58 1014.79,1445.58 1015.3,1445.6 1015.81,1445.61 1016.33,1445.62 1016.84,1445.62 1017.35,1445.63 1017.86,1445.63 1018.37,1445.62 1018.88,1445.6 1019.4,1445.59 1019.91,1445.59 1020.42,1445.57 1020.93,1445.55 1021.44,1445.54 1021.95,1445.53 1022.46,1445.54 1022.98,1445.54 1023.49,1445.54 1024,1445.55 1024.51,1445.54 1025.02,1445.54 1025.53,1445.55 1026.04,1445.56 1026.56,1445.56 1027.07,1445.55 1027.58,1445.55 1028.09,1445.54 1028.6,1445.55 1029.11,1445.55 1029.62,1445.55 1030.14,1445.55 1030.65,1445.58 1031.16,1445.6 1031.67,1445.61 1032.18,1445.61 1032.69,1445.61 1033.2,1445.61 1033.72,1445.61 1034.23,1445.61 1034.74,1445.61 1035.25,1445.6 1035.76,1445.6 1036.27,1445.6 1036.78,1445.59 1037.3,1445.59 1037.81,1445.59 1038.32,1445.6 1038.83,1445.6 1039.34,1445.61 1039.85,1445.59 1040.36,1445.58 1040.88,1445.58 1041.39,1445.59 1041.9,1445.58 1042.41,1445.58 1042.92,1445.57 1043.43,1445.56 1043.94,1445.57 1044.46,1445.58 1044.97,1445.56 1045.48,1445.53 1045.99,1445.54 1046.5,1445.55 1047.01,1445.55 1047.53,1445.55 1048.04,1445.56 1048.55,1445.56 1049.06,1445.56 1049.57,1445.56 1050.08,1445.54 1050.59,1445.52 1051.11,1445.52 1051.62,1445.52 1052.13,1445.52 1052.64,1445.52 1053.15,1445.53 1053.66,1445.54 1054.17,1445.55 1054.69,1445.55 1055.2,1445.56 1055.71,1445.56 1056.22,1445.55 1056.73,1445.55 1057.24,1445.55 1057.75,1445.54 1058.27,1445.55 1058.78,1445.55 1059.29,1445.56 1059.8,1445.57 1060.31,1445.55 1060.82,1445.54 1061.33,1445.55 1061.85,1445.56 1062.36,1445.57 1062.87,1445.58 1063.38,1445.58 1063.89,1445.57 1064.4,1445.57 1064.91,1445.57 1065.43,1445.57 1065.94,1445.57 1066.45,1445.59 1066.96,1445.61 1067.47,1445.62 1067.98,1445.62 1068.49,1445.63 1069.01,1445.64 1069.52,1445.64 1070.03,1445.63 1070.54,1445.64 1071.05,1445.64 1071.56,1445.63 1072.07,1445.61 1072.59,1445.62 1073.1,1445.64 1073.61,1445.62 1074.12,1445.61 1074.63,1445.6 1075.14,1445.6 1075.66,1445.6 1076.17,1445.6 1076.68,1445.6 1077.19,1445.6 1077.7,1445.6 1078.21,1445.6 1078.72,1445.6 1079.24,1445.59 1079.75,1445.59 1080.26,1445.59 1080.77,1445.59 1081.28,1445.59 1081.79,1445.6 1082.3,1445.61 1082.82,1445.61 1083.33,1445.61 1083.84,1445.6 1084.35,1445.6 1084.86,1445.61 1085.37,1445.61 1085.88,1445.62 1086.4,1445.62 1086.91,1445.63 1087.42,1445.64 1087.93,1445.63 1088.44,1445.62 1088.95,1445.62 1089.46,1445.61 1089.98,1445.61 1090.49,1445.61 1091,1445.62 1091.51,1445.62 1092.02,1445.61 1092.53,1445.6 1093.04,1445.58 1093.56,1445.56 1094.07,1445.55 1094.58,1445.53 1095.09,1445.52 1095.6,1445.51 1096.11,1445.53 1096.62,1445.55 1097.14,1445.57 1097.65,1445.59 1098.16,1445.59 1098.67,1445.58 1099.18,1445.59 1099.69,1445.59 1100.2,1445.59 1100.72,1445.59 1101.23,1445.59 1101.74,1445.59 1102.25,1445.58 1102.76,1445.58 1103.27,1445.6 1103.79,1445.61 1104.3,1445.6 1104.81,1445.59 1105.32,1445.6 1105.83,1445.59 1106.34,1445.59 1106.85,1445.59 1107.37,1445.6 1107.88,1445.6 1108.39,1445.61 1108.9,1445.61 1109.41,1445.62 1109.92,1445.62 1110.43,1445.62 1110.95,1445.62 1111.46,1445.61 1111.97,1445.61 1112.48,1445.59 1112.99,1445.58 1113.5,1445.6 1114.01,1445.62 1114.53,1445.61 1115.04,1445.6 1115.55,1445.6 1116.06,1445.6 1116.57,1445.61 1117.08,1445.61 1117.59,1445.62 1118.11,1445.62 1118.62,1445.62 1119.13,1445.61 1119.64,1445.61 1120.15,1445.61 1120.66,1445.62 1121.17,1445.63 1121.69,1445.62 1122.2,1445.6 1122.71,1445.6 1123.22,1445.59 1123.73,1445.58 1124.24,1445.57 1124.75,1445.58 1125.27,1445.59 1125.78,1445.57 1126.29,1445.56 1126.8,1445.53 1127.31,1445.51 1127.82,1445.54 1128.33,1445.58 1128.85,1445.58 1129.36,1445.58 1129.87,1445.6 1130.38,1445.61 1130.89,1445.62 1131.4,1445.62 1131.92,1445.62 1132.43,1445.62 1132.94,1445.62 1133.45,1445.62 1133.96,1445.61 1134.47,1445.61 1134.98,1445.6 1135.5,1445.59 1136.01,1445.59 1136.52,1445.59 1137.03,1445.59 1137.54,1445.58 1138.05,1445.59 1138.56,1445.6 1139.08,1445.6 1139.59,1445.6 1140.1,1445.61 1140.61,1445.62 1141.12,1445.62 1141.63,1445.63 1142.14,1445.62 1142.66,1445.62 1143.17,1445.63 1143.68,1445.64 1144.19,1445.64 1144.7,1445.63 1145.21,1445.62 1145.72,1445.62 1146.24,1445.63 1146.75,1445.65 1147.26,1445.64 1147.77,1445.64 1148.28,1445.64 1148.79,1445.64 1149.3,1445.64 1149.82,1445.64 1150.33,1445.65 1150.84,1445.66 1151.35,1445.66 1151.86,1445.66 1152.37,1445.66 1152.88,1445.66 1153.4,1445.66 1153.91,1445.66 1154.42,1445.66 1154.93,1445.65 1155.44,1445.64 1155.95,1445.63 1156.46,1445.63 1156.98,1445.63 1157.49,1445.65 1158,1445.66 1158.51,1445.64 1159.02,1445.62 1159.53,1445.62 1160.05,1445.62 1160.56,1445.62 1161.07,1445.62 1161.58,1445.61 1162.09,1445.59 1162.6,1445.59 1163.11,1445.59 1163.63,1445.56 1164.14,1445.53 1164.65,1445.54 1165.16,1445.55 1165.67,1445.54 1166.18,1445.53 1166.69,1445.53 1167.21,1445.53 1167.72,1445.53 1168.23,1445.54 1168.74,1445.54 1169.25,1445.55 1169.76,1445.53 1170.27,1445.52 1170.79,1445.53 1171.3,1445.54 1171.81,1445.54 1172.32,1445.54 1172.83,1445.53 1173.34,1445.52 1173.85,1445.51 1174.37,1445.5 1174.88,1445.52 1175.39,1445.54 1175.9,1445.54 1176.41,1445.55 1176.92,1445.55 1177.43,1445.55 1177.95,1445.55 1178.46,1445.55 1178.97,1445.55 1179.48,1445.55 1179.99,1445.54 1180.5,1445.54 1181.01,1445.54 1181.53,1445.55 1182.04,1445.55 1182.55,1445.55 1183.06,1445.56 1183.57,1445.57 1184.08,1445.56 1184.59,1445.54 1185.11,1445.55 1185.62,1445.56 1186.13,1445.55 1186.64,1445.53 1187.15,1445.52 1187.66,1445.51 1188.18,1445.5 1188.69,1445.49 1189.2,1445.49 1189.71,1445.49 1190.22,1445.48 1190.73,1445.48 1191.24,1445.48 1191.76,1445.48 1192.27,1445.47 1192.78,1445.47 1193.29,1445.48 1193.8,1445.49 1194.31,1445.48 1194.82,1445.48 1195.34,1445.5 1195.85,1445.51 1196.36,1445.52 1196.87,1445.53 1197.38,1445.52 1197.89,1445.52 1198.4,1445.51 1198.92,1445.51 1199.43,1445.52 1199.94,1445.54 1200.45,1445.54 1200.96,1445.54 1201.47,1445.55 1201.98,1445.55 1202.5,1445.56 1203.01,1445.57 1203.52,1445.57 1204.03,1445.58 1204.54,1445.58 1205.05,1445.59 1205.56,1445.6 1206.08,1445.6 1206.59,1445.6 1207.1,1445.61 1207.61,1445.6 1208.12,1445.6 1208.63,1445.59 1209.14,1445.58 1209.66,1445.56 1210.17,1445.55 1210.68,1445.57 1211.19,1445.58 1211.7,1445.59 1212.21,1445.59 1212.72,1445.58 1213.24,1445.57 1213.75,1445.57 1214.26,1445.58 1214.77,1445.58 1215.28,1445.58 1215.79,1445.59 1216.3,1445.6 1216.82,1445.6 1217.33,1445.6 1217.84,1445.61 1218.35,1445.62 1218.86,1445.62 1219.37,1445.62 1219.89,1445.63 1220.4,1445.64 1220.91,1445.65 1221.42,1445.66 1221.93,1445.65 1222.44,1445.65 1222.95,1445.63 1223.47,1445.62 1223.98,1445.61 1224.49,1445.59 1225,1445.6 1225.51,1445.6 1226.02,1445.6 1226.53,1445.6 1227.05,1445.6 1227.56,1445.61 1228.07,1445.6 1228.58,1445.59 1229.09,1445.6 1229.6,1445.61 1230.11,1445.6 1230.63,1445.58 1231.14,1445.58 1231.65,1445.58 1232.16,1445.58 1232.67,1445.58 1233.18,1445.57 1233.69,1445.57 1234.21,1445.56 1234.72,1445.55 1235.23,1445.56 1235.74,1445.57 1236.25,1445.56 1236.76,1445.56 1237.27,1445.57 1237.79,1445.57 1238.3,1445.6 1238.81,1445.63 1239.32,1445.64 1239.83,1445.65 1240.34,1445.65 1240.85,1445.65 1241.37,1445.66 1241.88,1445.66 1242.39,1445.64 1242.9,1445.61 1243.41,1445.63 1243.92,1445.64 1244.43,1445.64 1244.95,1445.63 1245.46,1445.63 1245.97,1445.63 1246.48,1445.63 1246.99,1445.63 1247.5,1445.62 1248.02,1445.61 1248.53,1445.61 1249.04,1445.61 1249.55,1445.6 1250.06,1445.59 1250.57,1445.57 1251.08,1445.56 1251.6,1445.55 1252.11,1445.54 1252.62,1445.53 1253.13,1445.52 1253.64,1445.52 1254.15,1445.52 1254.66,1445.51 1255.18,1445.51 1255.69,1445.5 1256.2,1445.49 1256.71,1445.48 1257.22,1445.47 1257.73,1445.49 1258.24,1445.51 1258.76,1445.52 1259.27,1445.53 1259.78,1445.53 1260.29,1445.53 1260.8,1445.53 1261.31,1445.52 1261.82,1445.52 1262.34,1445.52 1262.85,1445.53 1263.36,1445.54 1263.87,1445.55 1264.38,1445.57 1264.89,1445.55 1265.4,1445.52 1265.92,1445.54 1266.43,1445.55 1266.94,1445.54 1267.45,1445.52 1267.96,1445.54 1268.47,1445.55 1268.98,1445.55 1269.5,1445.56 1270.01,1445.54 1270.52,1445.52 1271.03,1445.55 1271.54,1445.57 1272.05,1445.57 1272.56,1445.58 1273.08,1445.58 1273.59,1445.59 1274.1,1445.59 1274.61,1445.59 1275.12,1445.59 1275.63,1445.58 1276.15,1445.58 1276.66,1445.57 1277.17,1445.58 1277.68,1445.59 1278.19,1445.57 1278.7,1445.55 1279.21,1445.56 1279.73,1445.57 1280.24,1445.57 1280.75,1445.58 1281.26,1445.59 1281.77,1445.59 1282.28,1445.59 1282.79,1445.59 1283.31,1445.61 1283.82,1445.62 1284.33,1445.62 1284.84,1445.62 1285.35,1445.61 1285.86,1445.61 1286.37,1445.62 1286.89,1445.62 1287.4,1445.63 1287.91,1445.63 1288.42,1445.63 1288.93,1445.64 1289.44,1445.65 1289.95,1445.66 1290.47,1445.64 1290.98,1445.62 1291.49,1445.61 1292,1445.6 1292.51,1445.62 1293.02,1445.64 1293.53,1445.64 1294.05,1445.65 1294.56,1445.65 1295.07,1445.65 1295.58,1445.64 1296.09,1445.63 1296.6,1445.64 1297.11,1445.65 1297.63,1445.64 1298.14,1445.63 1298.65,1445.63 1299.16,1445.63 1299.67,1445.63 1300.18,1445.62 1300.69,1445.62 1301.21,1445.62 1301.72,1445.62 1302.23,1445.63 1302.74,1445.64 1303.25,1445.65 1303.76,1445.66 1304.28,1445.67 1304.79,1445.67 1305.3,1445.67 1305.81,1445.67 1306.32,1445.67 1306.83,1445.66 1307.34,1445.66 1307.86,1445.65 1308.37,1445.64 1308.88,1445.64 1309.39,1445.63 1309.9,1445.63 1310.41,1445.62 1310.92,1445.62 1311.44,1445.61 1311.95,1445.61 1312.46,1445.61 1312.97,1445.62 1313.48,1445.63 1313.99,1445.63 1314.5,1445.63 1315.02,1445.62 1315.53,1445.6 1316.04,1445.59 1316.55,1445.58 1317.06,1445.59 1317.57,1445.6 1318.08,1445.59 1318.6,1445.58 1319.11,1445.59 1319.62,1445.61 1320.13,1445.6 1320.64,1445.59 1321.15,1445.59 1321.66,1445.6 1322.18,1445.59 1322.69,1445.59 1323.2,1445.6 1323.71,1445.61 1324.22,1445.6 1324.73,1445.6 1325.24,1445.61 1325.76,1445.62 1326.27,1445.62 1326.78,1445.63 1327.29,1445.63 1327.8,1445.63 1328.31,1445.63 1328.82,1445.63 1329.34,1445.62 1329.85,1445.62 1330.36,1445.61 1330.87,1445.61 1331.38,1445.62 1331.89,1445.62 1332.41,1445.62 1332.92,1445.61 1333.43,1445.63 1333.94,1445.64 1334.45,1445.64 1334.96,1445.63 1335.47,1445.64 1335.99,1445.65 1336.5,1445.63 1337.01,1445.62 1337.52,1445.62 1338.03,1445.62 1338.54,1445.62 1339.05,1445.61 1339.57,1445.59 1340.08,1445.57 1340.59,1445.58 1341.1,1445.58 1341.61,1445.59 1342.12,1445.59 1342.63,1445.59 1343.15,1445.6 1343.66,1445.59 1344.17,1445.57 1344.68,1445.58 1345.19,1445.58 1345.7,1445.58 1346.21,1445.59 1346.73,1445.59 1347.24,1445.59 1347.75,1445.59 1348.26,1445.59 1348.77,1445.59 1349.28,1445.59 1349.79,1445.59 1350.31,1445.59 1350.82,1445.59 1351.33,1445.59 1351.84,1445.59 1352.35,1445.6 1352.86,1445.59 1353.37,1445.58 1353.89,1445.56 1354.4,1445.54 1354.91,1445.53 1355.42,1445.52 1355.93,1445.52 1356.44,1445.51 1356.95,1445.51 1357.47,1445.52 1357.98,1445.52 1358.49,1445.52 1359,1445.53 1359.51,1445.54 1360.02,1445.54 1360.54,1445.53 1361.05,1445.53 1361.56,1445.52 1362.07,1445.53 1362.58,1445.54 1363.09,1445.53 1363.6,1445.53 1364.12,1445.53 1364.63,1445.54 1365.14,1445.54 1365.65,1445.54 1366.16,1445.55 1366.67,1445.56 1367.18,1445.56 1367.7,1445.56 1368.21,1445.57 1368.72,1445.57 1369.23,1445.59 1369.74,1445.6 1370.25,1445.6 1370.76,1445.61 1371.28,1445.6 1371.79,1445.6 1372.3,1445.6 1372.81,1445.6 1373.32,1445.61 1373.83,1445.61 1374.34,1445.6 1374.86,1445.6 1375.37,1445.6 1375.88,1445.6 1376.39,1445.62 1376.9,1445.64 1377.41,1445.65 1377.92,1445.65 1378.44,1445.65 1378.95,1445.66 1379.46,1445.66 1379.97,1445.65 1380.48,1445.66 1380.99,1445.66 1381.5,1445.66 1382.02,1445.66 1382.53,1445.65 1383.04,1445.64 1383.55,1445.65 1384.06,1445.66 1384.57,1445.65 1385.08,1445.63 1385.6,1445.62 1386.11,1445.61 1386.62,1445.61 1387.13,1445.62 1387.64,1445.62 1388.15,1445.62 1388.66,1445.61 1389.18,1445.6 1389.69,1445.59 1390.2,1445.58 1390.71,1445.59 1391.22,1445.61 1391.73,1445.62 1392.25,1445.63 1392.76,1445.62 1393.27,1445.6 1393.78,1445.62 1394.29,1445.63 1394.8,1445.63 1395.31,1445.62 1395.83,1445.62 1396.34,1445.63 1396.85,1445.63 1397.36,1445.63 1397.87,1445.63 1398.38,1445.63 1398.89,1445.63 1399.41,1445.63 1399.92,1445.62 1400.43,1445.61 1400.94,1445.6 1401.45,1445.59 1401.96,1445.59 1402.47,1445.59 1402.99,1445.58 1403.5,1445.57 1404.01,1445.58 1404.52,1445.6 1405.03,1445.59 1405.54,1445.58 1406.05,1445.57 1406.57,1445.56 1407.08,1445.57 1407.59,1445.58 1408.1,1445.56 1408.61,1445.55 1409.12,1445.56 1409.63,1445.56 1410.15,1445.56 1410.66,1445.56 1411.17,1445.58 1411.68,1445.6 1412.19,1445.6 1412.7,1445.6 1413.21,1445.6 1413.73,1445.6 1414.24,1445.6 1414.75,1445.6 1415.26,1445.61 1415.77,1445.62 1416.28,1445.62 1416.79,1445.63 1417.31,1445.62 1417.82,1445.62 1418.33,1445.62 1418.84,1445.62 1419.35,1445.64 1419.86,1445.65 1420.38,1445.65 1420.89,1445.64 1421.4,1445.65 1421.91,1445.66 1422.42,1445.66 1422.93,1445.66 1423.44,1445.66 1423.96,1445.66 1424.47,1445.66 1424.98,1445.67 1425.49,1445.65 1426,1445.63 1426.51,1445.62 1427.02,1445.61 1427.54,1445.61 1428.05,1445.61 1428.56,1445.6 1429.07,1445.6 1429.58,1445.59 1430.09,1445.58 1430.6,1445.57 1431.12,1445.56 1431.63,1445.56 1432.14,1445.56 1432.65,1445.58 1433.16,1445.59 1433.67,1445.57 1434.18,1445.55 1434.7,1445.57 1435.21,1445.59 1435.72,1445.6 1436.23,1445.6 1436.74,1445.61 1437.25,1445.62 1437.76,1445.63 1438.28,1445.64 1438.79,1445.64 1439.3,1445.65 1439.81,1445.64 1440.32,1445.63 1440.83,1445.64 1441.34,1445.66 1441.86,1445.67 1442.37,1445.68 1442.88,1445.67 1443.39,1445.67 1443.9,1445.66 1444.41,1445.65 1444.92,1445.63 1445.44,1445.62 1445.95,1445.62 1446.46,1445.62 1446.97,1445.61 1447.48,1445.6 1447.99,1445.6 1448.51,1445.6 1449.02,1445.6 1449.53,1445.6 1450.04,1445.62 1450.55,1445.64 1451.06,1445.64 1451.57,1445.65 1452.09,1445.65 1452.6,1445.65 1453.11,1445.65 1453.62,1445.66 1454.13,1445.66 1454.64,1445.66 1455.15,1445.67 1455.67,1445.67 1456.18,1445.67 1456.69,1445.66 1457.2,1445.66 1457.71,1445.67 1458.22,1445.66 1458.73,1445.66 1459.25,1445.65 1459.76,1445.65 1460.27,1445.65 1460.78,1445.65 1461.29,1445.64 1461.8,1445.63 1462.31,1445.64 1462.83,1445.65 1463.34,1445.66 1463.85,1445.66 1464.36,1445.65 1464.87,1445.64 1465.38,1445.63 1465.89,1445.63 1466.41,1445.64 1466.92,1445.65 1467.43,1445.64 1467.94,1445.64 1468.45,1445.64 1468.96,1445.64 1469.47,1445.64 1469.99,1445.64 1470.5,1445.64 1471.01,1445.64 1471.52,1445.65 1472.03,1445.66 1472.54,1445.64 1473.05,1445.63 1473.57,1445.65 1474.08,1445.66 1474.59,1445.66 1475.1,1445.65 1475.61,1445.65 1476.12,1445.64 1476.64,1445.63 1477.15,1445.63 1477.66,1445.62 1478.17,1445.61 1478.68,1445.61 1479.19,1445.62 1479.7,1445.62 1480.22,1445.63 1480.73,1445.63 1481.24,1445.63 1481.75,1445.63 1482.26,1445.63 1482.77,1445.63 1483.28,1445.64 1483.8,1445.62 1484.31,1445.61 1484.82,1445.61 1485.33,1445.6 1485.84,1445.61 1486.35,1445.61 1486.86,1445.61 1487.38,1445.61 1487.89,1445.6 1488.4,1445.59 1488.91,1445.59 1489.42,1445.59 1489.93,1445.58 1490.44,1445.57 1490.96,1445.56 1491.47,1445.56 1491.98,1445.56 1492.49,1445.57 1493,1445.57 1493.51,1445.57 1494.02,1445.58 1494.54,1445.59 1495.05,1445.61 1495.56,1445.62 1496.07,1445.62 1496.58,1445.62 1497.09,1445.63 1497.6,1445.64 1498.12,1445.66 1498.63,1445.68 1499.14,1445.68 1499.65,1445.67 1500.16,1445.67 1500.67,1445.67 1501.18,1445.68 1501.7,1445.69 1502.21,1445.7 1502.72,1445.7 1503.23,1445.7 1503.74,1445.7 1504.25,1445.69 1504.77,1445.68 1505.28,1445.67 1505.79,1445.67 1506.3,1445.65 1506.81,1445.63 1507.32,1445.62 1507.83,1445.61 1508.35,1445.59 1508.86,1445.58 1509.37,1445.58 1509.88,1445.58 1510.39,1445.58 1510.9,1445.58 1511.41,1445.58 1511.93,1445.58 1512.44,1445.59 1512.95,1445.59 1513.46,1445.6 1513.97,1445.6 1514.48,1445.61 1514.99,1445.61 1515.51,1445.63 1516.02,1445.65 1516.53,1445.65 1517.04,1445.64 1517.55,1445.65 1518.06,1445.66 1518.57,1445.66 1519.09,1445.66 1519.6,1445.68 1520.11,1445.69 1520.62,1445.69 1521.13,1445.69 1521.64,1445.7 1522.15,1445.7 1522.67,1445.7 1523.18,1445.7 1523.69,1445.69 1524.2,1445.68 1524.71,1445.68 1525.22,1445.68 1525.73,1445.67 1526.25,1445.66 1526.76,1445.66 1527.27,1445.67 1527.78,1445.65 1528.29,1445.64 1528.8,1445.64 1529.31,1445.65 1529.83,1445.65 1530.34,1445.66 1530.85,1445.66 1531.36,1445.67 1531.87,1445.66 1532.38,1445.64 1532.9,1445.64 1533.41,1445.64 1533.92,1445.63 1534.43,1445.62 1534.94,1445.59 1535.45,1445.56 1535.96,1445.56 1536.48,1445.56 1536.99,1445.57 1537.5,1445.58 1538.01,1445.58 1538.52,1445.57 1539.03,1445.56 1539.54,1445.55 1540.06,1445.56 1540.57,1445.57 1541.08,1445.57 1541.59,1445.56 1542.1,1445.58 1542.61,1445.59 1543.12,1445.59 1543.64,1445.58 1544.15,1445.58 1544.66,1445.58 1545.17,1445.58 1545.68,1445.59 1546.19,1445.59 1546.7,1445.6 1547.22,1445.61 1547.73,1445.61 1548.24,1445.61 1548.75,1445.6 1549.26,1445.58 1549.77,1445.57 1550.28,1445.58 1550.8,1445.59 1551.31,1445.58 1551.82,1445.57 1552.33,1445.57 1552.84,1445.57 1553.35,1445.59 1553.86,1445.6 1554.38,1445.58 1554.89,1445.57 1555.4,1445.57 1555.91,1445.58 1556.42,1445.56 1556.93,1445.53 1557.44,1445.53 1557.96,1445.53 1558.47,1445.52 1558.98,1445.51 1559.49,1445.51 1560,1445.5 1560.51,1445.5 1561.03,1445.51 1561.54,1445.51 1562.05,1445.51 1562.56,1445.52 1563.07,1445.52 1563.58,1445.53 1564.09,1445.55 1564.61,1445.55 1565.12,1445.56 1565.63,1445.59 1566.14,1445.63 1566.65,1445.62 1567.16,1445.6 1567.67,1445.6 1568.19,1445.6 1568.7,1445.59 1569.21,1445.59 1569.72,1445.59 1570.23,1445.6 1570.74,1445.6 1571.25,1445.6 1571.77,1445.6 1572.28,1445.6 1572.79,1445.6 1573.3,1445.61 1573.81,1445.6 1574.32,1445.59 1574.83,1445.57 1575.35,1445.56 1575.86,1445.56 1576.37,1445.56 1576.88,1445.54 1577.39,1445.52 1577.9,1445.52 1578.41,1445.51 1578.93,1445.52 1579.44,1445.53 1579.95,1445.54 1580.46,1445.54 1580.97,1445.54 1581.48,1445.54 1581.99,1445.55 1582.51,1445.56 1583.02,1445.58 1583.53,1445.6 1584.04,1445.61 1584.55,1445.61 1585.06,1445.59 1585.57,1445.58 1586.09,1445.58 1586.6,1445.59 1587.11,1445.58 1587.62,1445.57 1588.13,1445.59 1588.64,1445.6 1589.15,1445.59 1589.67,1445.58 1590.18,1445.57 1590.69,1445.57 1591.2,1445.57 1591.71,1445.57 1592.22,1445.58 1592.74,1445.59 1593.25,1445.57 1593.76,1445.54 1594.27,1445.53 1594.78,1445.52 1595.29,1445.56 1595.8,1445.59 1596.32,1445.58 1596.83,1445.58 1597.34,1445.58 1597.85,1445.58 1598.36,1445.57 1598.87,1445.55 1599.38,1445.57 1599.9,1445.58 1600.41,1445.58 1600.92,1445.58 1601.43,1445.59 1601.94,1445.59 1602.45,1445.61 1602.96,1445.62 1603.48,1445.62 1603.99,1445.63 1604.5,1445.64 1605.01,1445.65 1605.52,1445.63 1606.03,1445.61 1606.54,1445.61 1607.06,1445.62 1607.57,1445.61 1608.08,1445.59 1608.59,1445.61 1609.1,1445.63 1609.61,1445.64 1610.12,1445.65 1610.64,1445.64 1611.15,1445.64 1611.66,1445.64 1612.17,1445.63 1612.68,1445.63 1613.19,1445.62 1613.7,1445.61 1614.22,1445.6 1614.73,1445.59 1615.24,1445.58 1615.75,1445.57 1616.26,1445.57 1616.77,1445.56 1617.28,1445.56 1617.8,1445.56 1618.31,1445.56 1618.82,1445.56 1619.33,1445.56 1619.84,1445.57 1620.35,1445.57 1620.87,1445.56 1621.38,1445.54 1621.89,1445.55 1622.4,1445.55 1622.91,1445.56 1623.42,1445.56 1623.93,1445.56 1624.45,1445.56 1624.96,1445.56 1625.47,1445.56 1625.98,1445.58 1626.49,1445.6 1627,1445.6 1627.51,1445.6 1628.03,1445.6 1628.54,1445.59 1629.05,1445.57 1629.56,1445.54 1630.07,1445.55 1630.58,1445.55 1631.09,1445.54 1631.61,1445.54 1632.12,1445.54 1632.63,1445.53 1633.14,1445.53 1633.65,1445.52 1634.16,1445.52 1634.67,1445.53 1635.19,1445.54 1635.7,1445.55 1636.21,1445.57 1636.72,1445.59 1637.23,1445.6 1637.74,1445.6 1638.25,1445.59 1638.77,1445.58 1639.28,1445.55 1639.79,1445.53 1640.3,1445.53 1640.81,1445.53 1641.32,1445.52 1641.83,1445.51 1642.35,1445.52 1642.86,1445.53 1643.37,1445.53 1643.88,1445.53 1644.39,1445.54 1644.9,1445.55 1645.41,1445.55 1645.93,1445.56 1646.44,1445.57 1646.95,1445.58 1647.46,1445.58 1647.97,1445.59 1648.48,1445.57 1649,1445.55 1649.51,1445.54 1650.02,1445.53 1650.53,1445.54 1651.04,1445.55 1651.55,1445.55 1652.06,1445.56 1652.58,1445.56 1653.09,1445.56 1653.6,1445.56 1654.11,1445.55 1654.62,1445.56 1655.13,1445.56 1655.64,1445.58 1656.16,1445.59 1656.67,1445.59 1657.18,1445.59 1657.69,1445.59 1658.2,1445.59 1658.71,1445.59 1659.22,1445.58 1659.74,1445.58 1660.25,1445.58 1660.76,1445.58 1661.27,1445.58 1661.78,1445.6 1662.29,1445.62 1662.8,1445.63 1663.32,1445.65 1663.83,1445.64 1664.34,1445.62 1664.85,1445.63 1665.36,1445.63 1665.87,1445.63 1666.38,1445.63 1666.9,1445.64 1667.41,1445.64 1667.92,1445.63 1668.43,1445.63 1668.94,1445.64 1669.45,1445.64 1669.96,1445.62 1670.48,1445.61 1670.99,1445.62 1671.5,1445.64 1672.01,1445.64 1672.52,1445.63 1673.03,1445.63 1673.54,1445.62 1674.06,1445.63 1674.57,1445.63 1675.08,1445.64 1675.59,1445.64 1676.1,1445.63 1676.61,1445.61 1677.13,1445.61 1677.64,1445.61 1678.15,1445.61 1678.66,1445.61 1679.17,1445.6 1679.68,1445.6 1680.19,1445.6 1680.71,1445.61 1681.22,1445.62 1681.73,1445.63 1682.24,1445.64 1682.75,1445.65 1683.26,1445.64 1683.77,1445.64 1684.29,1445.64 1684.8,1445.64 1685.31,1445.63 1685.82,1445.63 1686.33,1445.62 1686.84,1445.6 1687.35,1445.6 1687.87,1445.59 1688.38,1445.59 1688.89,1445.6 1689.4,1445.61 1689.91,1445.63 1690.42,1445.64 1690.93,1445.65 1691.45,1445.62 1691.96,1445.6 1692.47,1445.59 1692.98,1445.59 1693.49,1445.6 1694,1445.61 1694.51,1445.61 1695.03,1445.62 1695.54,1445.61 1696.05,1445.61 1696.56,1445.61 1697.07,1445.6 1697.58,1445.58 1698.09,1445.56 1698.61,1445.57 1699.12,1445.58 1699.63,1445.57 1700.14,1445.57 1700.65,1445.57 1701.16,1445.58 1701.67,1445.58 1702.19,1445.58 1702.7,1445.58 1703.21,1445.58 1703.72,1445.58 1704.23,1445.58 1704.74,1445.6 1705.26,1445.62 1705.77,1445.63 1706.28,1445.63 1706.79,1445.62 1707.3,1445.61 1707.81,1445.61 1708.32,1445.61 1708.84,1445.59 1709.35,1445.58 1709.86,1445.57 1710.37,1445.57 1710.88,1445.56 1711.39,1445.54 1711.9,1445.54 1712.42,1445.54 1712.93,1445.55 1713.44,1445.55 1713.95,1445.55 1714.46,1445.54 1714.97,1445.54 1715.48,1445.54 1716,1445.54 1716.51,1445.54 1717.02,1445.53 1717.53,1445.52 1718.04,1445.53 1718.55,1445.55 1719.06,1445.54 1719.58,1445.53 1720.09,1445.54 1720.6,1445.56 1721.11,1445.53 1721.62,1445.51 1722.13,1445.52 1722.64,1445.53 1723.16,1445.56 1723.67,1445.58 1724.18,1445.6 1724.69,1445.63 1725.2,1445.61 1725.71,1445.6 1726.22,1445.61 1726.74,1445.61 1727.25,1445.61 1727.76,1445.62 1728.27,1445.61 1728.78,1445.61 1729.29,1445.62 1729.8,1445.62 1730.32,1445.63 1730.83,1445.63 1731.34,1445.63 1731.85,1445.62 1732.36,1445.62 1732.87,1445.63 1733.39,1445.61 1733.9,1445.59 1734.41,1445.59 1734.92,1445.59 1735.43,1445.59 1735.94,1445.59 1736.45,1445.6 1736.97,1445.62 1737.48,1445.63 1737.99,1445.65 1738.5,1445.65 1739.01,1445.64 1739.52,1445.64 1740.03,1445.63 1740.55,1445.64 1741.06,1445.65 1741.57,1445.64 1742.08,1445.63 1742.59,1445.63 1743.1,1445.63 1743.61,1445.63 1744.13,1445.63 1744.64,1445.63 1745.15,1445.63 1745.66,1445.63 1746.17,1445.63 1746.68,1445.64 1747.19,1445.64 1747.71,1445.62 1748.22,1445.6 1748.73,1445.59 1749.24,1445.59 1749.75,1445.59 1750.26,1445.6 1750.77,1445.62 1751.29,1445.64 1751.8,1445.65 1752.31,1445.65 1752.82,1445.65 1753.33,1445.64 1753.84,1445.63 1754.35,1445.63 1754.87,1445.64 1755.38,1445.64 1755.89,1445.65 1756.4,1445.65 1756.91,1445.65 1757.42,1445.64 1757.93,1445.64 1758.45,1445.64 1758.96,1445.62 1759.47,1445.6 1759.98,1445.61 1760.49,1445.62 1761,1445.61 1761.52,1445.6 1762.03,1445.6 1762.54,1445.59 1763.05,1445.59 1763.56,1445.58 1764.07,1445.58 1764.58,1445.58 1765.1,1445.6 1765.61,1445.62 1766.12,1445.63 1766.63,1445.63 1767.14,1445.63 1767.65,1445.63 1768.16,1445.63 1768.68,1445.64 1769.19,1445.64 1769.7,1445.64 1770.21,1445.65 1770.72,1445.67 1771.23,1445.67 1771.74,1445.68 1772.26,1445.68 1772.77,1445.68 1773.28,1445.69 1773.79,1445.69 1774.3,1445.68 1774.81,1445.67 1775.32,1445.67 1775.84,1445.67 1776.35,1445.68 1776.86,1445.68 1777.37,1445.67 1777.88,1445.67 1778.39,1445.65 1778.9,1445.63 1779.42,1445.63 1779.93,1445.63 1780.44,1445.62 1780.95,1445.62 1781.46,1445.62 1781.97,1445.63 1782.48,1445.64 1783,1445.64 1783.51,1445.64 1784.02,1445.64 1784.53,1445.63 1785.04,1445.61 1785.55,1445.61 1786.06,1445.61 1786.58,1445.61 1787.09,1445.6 1787.6,1445.59 1788.11,1445.57 1788.62,1445.58 1789.13,1445.59 1789.64,1445.6 1790.16,1445.6 1790.67,1445.61 1791.18,1445.62 1791.69,1445.62 1792.2,1445.62 1792.71,1445.63 1793.23,1445.64 1793.74,1445.65 1794.25,1445.66 1794.76,1445.67 1795.27,1445.69 1795.78,1445.69 1796.29,1445.69 1796.81,1445.69 1797.32,1445.7 1797.83,1445.69 1798.34,1445.68 1798.85,1445.69 1799.36,1445.69 1799.87,1445.69 1800.39,1445.68 1800.9,1445.69 1801.41,1445.69 1801.92,1445.69 1802.43,1445.7 1802.94,1445.69 1803.45,1445.69 1803.97,1445.68 1804.48,1445.67 1804.99,1445.66 1805.5,1445.66 1806.01,1445.64 1806.52,1445.63 1807.03,1445.64 1807.55,1445.65 1808.06,1445.65 1808.57,1445.66 1809.08,1445.66 1809.59,1445.67 1810.1,1445.65 1810.61,1445.64 1811.13,1445.64 1811.64,1445.65 1812.15,1445.66 1812.66,1445.67 1813.17,1445.66 1813.68,1445.66 1814.19,1445.66 1814.71,1445.67 1815.22,1445.66 1815.73,1445.65 1816.24,1445.65 1816.75,1445.64 1817.26,1445.65 1817.77,1445.65 1818.29,1445.64 1818.8,1445.63 1819.31,1445.64 1819.82,1445.64 1820.33,1445.65 1820.84,1445.66 1821.36,1445.66 1821.87,1445.66 1822.38,1445.65 1822.89,1445.63 1823.4,1445.64 1823.91,1445.65 1824.42,1445.65 1824.94,1445.66 1825.45,1445.66 1825.96,1445.66 1826.47,1445.65 1826.98,1445.64 1827.49,1445.64 1828,1445.64 1828.52,1445.63 1829.03,1445.63 1829.54,1445.63 1830.05,1445.63 1830.56,1445.63 1831.07,1445.62 1831.58,1445.64 1832.1,1445.66 1832.61,1445.66 1833.12,1445.66 1833.63,1445.68 1834.14,1445.69 1834.65,1445.67 1835.16,1445.65 1835.68,1445.66 1836.19,1445.67 1836.7,1445.67 1837.21,1445.68 1837.72,1445.68 1838.23,1445.69 1838.74,1445.69 1839.26,1445.69 1839.77,1445.68 1840.28,1445.67 1840.79,1445.67 1841.3,1445.67 1841.81,1445.67 1842.32,1445.66 1842.84,1445.65 1843.35,1445.65 1843.86,1445.65 1844.37,1445.65 1844.88,1445.64 1845.39,1445.62 1845.9,1445.61 1846.42,1445.6 1846.93,1445.61 1847.44,1445.62 1847.95,1445.64 1848.46,1445.65 1848.97,1445.66 1849.49,1445.66 1850,1445.65 1850.51,1445.65 1851.02,1445.65 1851.53,1445.65 1852.04,1445.65 1852.55,1445.64 1853.07,1445.65 1853.58,1445.66 1854.09,1445.66 1854.6,1445.66 1855.11,1445.66 1855.62,1445.66 1856.13,1445.67 1856.65,1445.68 1857.16,1445.67 1857.67,1445.65 1858.18,1445.67 1858.69,1445.68 1859.2,1445.67 1859.71,1445.66 1860.23,1445.64 1860.74,1445.63 1861.25,1445.61 1861.76,1445.6 1862.27,1445.59 1862.78,1445.57 1863.29,1445.58 1863.81,1445.58 1864.32,1445.59 1864.83,1445.6 1865.34,1445.6 1865.85,1445.61 1866.36,1445.61 1866.87,1445.61 1867.39,1445.63 1867.9,1445.64 1868.41,1445.64 1868.92,1445.64 1869.43,1445.64 1869.94,1445.63 1870.45,1445.62 1870.97,1445.61 1871.48,1445.61 1871.99,1445.61 1872.5,1445.62 1873.01,1445.62 1873.52,1445.63 1874.03,1445.64 1874.55,1445.64 1875.06,1445.64 1875.57,1445.65 1876.08,1445.65 1876.59,1445.66 1877.1,1445.67 1877.62,1445.65 1878.13,1445.63 1878.64,1445.62 1879.15,1445.61 1879.66,1445.61 1880.17,1445.61 1880.68,1445.6 1881.2,1445.6 1881.71,1445.59 1882.22,1445.59 1882.73,1445.59 1883.24,1445.59 1883.75,1445.57 1884.26,1445.55 1884.78,1445.55 1885.29,1445.55 1885.8,1445.57 1886.31,1445.58 1886.82,1445.57 1887.33,1445.57 1887.84,1445.58 1888.36,1445.59 1888.87,1445.59 1889.38,1445.59 1889.89,1445.59 1890.4,1445.6 1890.91,1445.62 1891.42,1445.64 1891.94,1445.65 1892.45,1445.66 1892.96,1445.64 1893.47,1445.61 1893.98,1445.6 1894.49,1445.59 1895,1445.6 1895.52,1445.61 1896.03,1445.61 1896.54,1445.62 1897.05,1445.61 1897.56,1445.61 1898.07,1445.6 1898.58,1445.6 1899.1,1445.61 1899.61,1445.62 1900.12,1445.61 1900.63,1445.6 1901.14,1445.59 1901.65,1445.57 1902.16,1445.59 1902.68,1445.6 1903.19,1445.59 1903.7,1445.58 1904.21,1445.58 1904.72,1445.59 1905.23,1445.59 1905.75,1445.59 1906.26,1445.6 1906.77,1445.6 1907.28,1445.6 1907.79,1445.6 1908.3,1445.6 1908.81,1445.61 1909.33,1445.6 1909.84,1445.6 1910.35,1445.61 1910.86,1445.62 1911.37,1445.62 1911.88,1445.62 1912.39,1445.63 1912.91,1445.64 1913.42,1445.64 1913.93,1445.64 1914.44,1445.65 1914.95,1445.65 1915.46,1445.66 1915.97,1445.67 1916.49,1445.68 1917,1445.68 1917.51,1445.67 1918.02,1445.66 1918.53,1445.65 1919.04,1445.65 1919.55,1445.65 1920.07,1445.65 1920.58,1445.66 1921.09,1445.66 1921.6,1445.66 1922.11,1445.67 1922.62,1445.67 1923.13,1445.67 1923.65,1445.66 1924.16,1445.65 1924.67,1445.65 1925.18,1445.65 1925.69,1445.63 1926.2,1445.61 1926.71,1445.62 1927.23,1445.64 1927.74,1445.64 1928.25,1445.64 1928.76,1445.65 1929.27,1445.66 1929.78,1445.65 1930.29,1445.64 1930.81,1445.64 1931.32,1445.64 1931.83,1445.64 1932.34,1445.64 1932.85,1445.64 1933.36,1445.63 1933.88,1445.61 1934.39,1445.6 1934.9,1445.6 1935.41,1445.61 1935.92,1445.63 1936.43,1445.64 1936.94,1445.63 1937.46,1445.63 1937.97,1445.63 1938.48,1445.64 1938.99,1445.64 1939.5,1445.65 1940.01,1445.65 1940.52,1445.66 1941.04,1445.67 1941.55,1445.67 1942.06,1445.67 1942.57,1445.68 1943.08,1445.67 1943.59,1445.67 1944.1,1445.68 1944.62,1445.68 1945.13,1445.69 1945.64,1445.7 1946.15,1445.7 1946.66,1445.7 1947.17,1445.69 1947.68,1445.69 1948.2,1445.69 1948.71,1445.69 1949.22,1445.69 1949.73,1445.7 1950.24,1445.7 1950.75,1445.7 1951.26,1445.69 1951.78,1445.68 1952.29,1445.68 1952.8,1445.69 1953.31,1445.69 1953.82,1445.7 1954.33,1445.69 1954.84,1445.68 1955.36,1445.68 1955.87,1445.68 1956.38,1445.68 1956.89,1445.68 1957.4,1445.69 1957.91,1445.69 1958.42,1445.69 1958.94,1445.69 1959.45,1445.69 1959.96,1445.69 1960.47,1445.67 1960.98,1445.66 1961.49,1445.65 1962.01,1445.65 1962.52,1445.64 1963.03,1445.64 1963.54,1445.64 1964.05,1445.64 1964.56,1445.64 1965.07,1445.64 1965.59,1445.63 1966.1,1445.61 1966.61,1445.61 1967.12,1445.6 1967.63,1445.6 1968.14,1445.61 1968.65,1445.61 1969.17,1445.61 1969.68,1445.61 1970.19,1445.6 1970.7,1445.6 1971.21,1445.6 1971.72,1445.6 1972.23,1445.6 1972.75,1445.6 1973.26,1445.6 1973.77,1445.58 1974.28,1445.57 1974.79,1445.56 1975.3,1445.56 1975.81,1445.56 1976.33,1445.57 1976.84,1445.57 1977.35,1445.57 1977.86,1445.59 1978.37,1445.6 1978.88,1445.6 1979.39,1445.6 1979.91,1445.61 1980.42,1445.62 1980.93,1445.61 1981.44,1445.61 1981.95,1445.62 1982.46,1445.63 1982.97,1445.64 1983.49,1445.65 1984,1445.64 1984.51,1445.64 1985.02,1445.63 1985.53,1445.62 1986.04,1445.62 1986.55,1445.62 1987.07,1445.63 1987.58,1445.64 1988.09,1445.65 1988.6,1445.66 1989.11,1445.65 1989.62,1445.64 1990.13,1445.64 1990.65,1445.64 1991.16,1445.64 1991.67,1445.65 1992.18,1445.65 1992.69,1445.65 1993.2,1445.64 1993.72,1445.63 1994.23,1445.62 1994.74,1445.61 1995.25,1445.62 1995.76,1445.62 1996.27,1445.6 1996.78,1445.58 1997.3,1445.57 1997.81,1445.57 1998.32,1445.58 1998.83,1445.6 1999.34,1445.59 1999.85,1445.58 2000.36,1445.59 2000.88,1445.6 2001.39,1445.58 2001.9,1445.57 2002.41,1445.57 2002.92,1445.56 2003.43,1445.57 2003.94,1445.57 2004.46,1445.57 2004.97,1445.58 2005.48,1445.57 2005.99,1445.57 2006.5,1445.56 2007.01,1445.56 2007.52,1445.58 2008.04,1445.6 2008.55,1445.61 2009.06,1445.63 2009.57,1445.62 2010.08,1445.61 2010.59,1445.59 2011.1,1445.58 2011.62,1445.57 2012.13,1445.55 2012.64,1445.57 2013.15,1445.58 2013.66,1445.6 2014.17,1445.61 2014.68,1445.6 2015.2,1445.59 2015.71,1445.59 2016.22,1445.59 2016.73,1445.59 2017.24,1445.6 2017.75,1445.6 2018.26,1445.6 2018.78,1445.6 2019.29,1445.6 2019.8,1445.6 2020.31,1445.61 2020.82,1445.6 2021.33,1445.6 2021.85,1445.61 2022.36,1445.62 2022.87,1445.61 2023.38,1445.6 2023.89,1445.6 2024.4,1445.6 2024.91,1445.59 2025.43,1445.59 2025.94,1445.58 2026.45,1445.57 2026.96,1445.56 2027.47,1445.55 2027.98,1445.57 2028.49,1445.58 2029.01,1445.58 2029.52,1445.58 2030.03,1445.58 2030.54,1445.58 2031.05,1445.59 2031.56,1445.6 2032.07,1445.6 2032.59,1445.59 2033.1,1445.6 2033.61,1445.61 2034.12,1445.62 2034.63,1445.63 2035.14,1445.63 2035.65,1445.63 2036.17,1445.63 2036.68,1445.63 2037.19,1445.63 2037.7,1445.64 2038.21,1445.62 2038.72,1445.6 2039.23,1445.6 2039.75,1445.61 2040.26,1445.61 2040.77,1445.61 2041.28,1445.61 2041.79,1445.6 2042.3,1445.6 2042.81,1445.6 2043.33,1445.59 2043.84,1445.59 2044.35,1445.59 2044.86,1445.59 2045.37,1445.58 2045.88,1445.57 2046.39,1445.56 2046.91,1445.56 2047.42,1445.56 2047.93,1445.57 2048.44,1445.57 2048.95,1445.58 2049.46,1445.58 2049.98,1445.59 2050.49,1445.6 2051,1445.61 2051.51,1445.61 2052.02,1445.62 2052.53,1445.6 2053.04,1445.59 2053.56,1445.6 2054.07,1445.61 2054.58,1445.6 2055.09,1445.6 2055.6,1445.61 2056.11,1445.62 2056.62,1445.63 2057.14,1445.63 2057.65,1445.63 2058.16,1445.63 2058.67,1445.62 2059.18,1445.61 2059.69,1445.62 2060.2,1445.63 2060.72,1445.63 2061.23,1445.64 2061.74,1445.63 2062.25,1445.62 2062.76,1445.62 2063.27,1445.61 2063.78,1445.6 2064.3,1445.6 2064.81,1445.59 2065.32,1445.58 2065.83,1445.58 2066.34,1445.57 2066.85,1445.56 2067.36,1445.55 2067.88,1445.56 2068.39,1445.57 2068.9,1445.57 2069.41,1445.56 2069.92,1445.57 2070.43,1445.58 2070.94,1445.56 2071.46,1445.55 2071.97,1445.57 2072.48,1445.58 2072.99,1445.57 2073.5,1445.56 2074.01,1445.58 2074.52,1445.59 2075.04,1445.62 2075.55,1445.65 2076.06,1445.66 2076.57,1445.67 2077.08,1445.66 2077.59,1445.65 2078.11,1445.64 2078.62,1445.63 2079.13,1445.63 2079.64,1445.62 2080.15,1445.62 2080.66,1445.62 2081.17,1445.64 2081.69,1445.65 2082.2,1445.66 2082.71,1445.66 2083.22,1445.66 2083.73,1445.66 2084.24,1445.67 2084.75,1445.67 2085.27,1445.68 2085.78,1445.68 2086.29,1445.66 2086.8,1445.65 2087.31,1445.64 2087.82,1445.63 2088.33,1445.63 2088.85,1445.63 2089.36,1445.63 2089.87,1445.62 2090.38,1445.61 2090.89,1445.6 2091.4,1445.6 2091.91,1445.59 2092.43,1445.61 2092.94,1445.63 2093.45,1445.63 2093.96,1445.64 2094.47,1445.63 2094.98,1445.63 2095.49,1445.64 2096.01,1445.65 2096.52,1445.64 2097.03,1445.63 2097.54,1445.63 2098.05,1445.64 2098.56,1445.62 2099.07,1445.61 2099.59,1445.62 2100.1,1445.62 2100.61,1445.61 2101.12,1445.6 2101.63,1445.61 2102.14,1445.61 2102.65,1445.61 2103.17,1445.61 2103.68,1445.6 2104.19,1445.59 2104.7,1445.6 2105.21,1445.61 2105.72,1445.62 2106.24,1445.63 2106.75,1445.63 2107.26,1445.62 2107.77,1445.62 2108.28,1445.62 2108.79,1445.63 2109.3,1445.64 2109.82,1445.61 2110.33,1445.59 2110.84,1445.58 2111.35,1445.58 2111.86,1445.58 2112.37,1445.59 2112.88,1445.59 2113.4,1445.6 2113.91,1445.6 2114.42,1445.61 2114.93,1445.61 2115.44,1445.61 2115.95,1445.61 2116.46,1445.61 2116.98,1445.61 2117.49,1445.61 2118,1445.61 2118.51,1445.6 2119.02,1445.61 2119.53,1445.61 2120.04,1445.6 2120.56,1445.59 2121.07,1445.59 2121.58,1445.59 2122.09,1445.59 2122.6,1445.59 2123.11,1445.61 2123.62,1445.63 2124.14,1445.64 2124.65,1445.65 2125.16,1445.66 2125.67,1445.67 2126.18,1445.66 2126.69,1445.66 2127.2,1445.65 2127.72,1445.64 2128.23,1445.65 2128.74,1445.65 2129.25,1445.65 2129.76,1445.65 2130.27,1445.65 2130.78,1445.66 2131.3,1445.66 2131.81,1445.65 2132.32,1445.65 2132.83,1445.65 2133.34,1445.66 2133.85,1445.67 2134.37,1445.67 2134.88,1445.67 2135.39,1445.67 2135.9,1445.68 2136.41,1445.67 2136.92,1445.67 2137.43,1445.67 2137.95,1445.67 2138.46,1445.67 2138.97,1445.68 2139.48,1445.68 2139.99,1445.67 2140.5,1445.67 2141.01,1445.67 2141.53,1445.67 2142.04,1445.66 2142.55,1445.66 2143.06,1445.66 2143.57,1445.67 2144.08,1445.67 2144.59,1445.65 2145.11,1445.64 2145.62,1445.64 2146.13,1445.63 2146.64,1445.64 2147.15,1445.64 2147.66,1445.63 2148.17,1445.61 2148.69,1445.61 2149.2,1445.6 2149.71,1445.61 2150.22,1445.62 2150.73,1445.62 2151.24,1445.62 2151.75,1445.62 2152.27,1445.61 2152.78,1445.59 2153.29,1445.57 2153.8,1445.56 2154.31,1445.55 2154.82,1445.57 2155.33,1445.58 2155.85,1445.57 2156.36,1445.55 2156.87,1445.55 2157.38,1445.55 2157.89,1445.56 2158.4,1445.57 2158.91,1445.57 2159.43,1445.56 2159.94,1445.56 2160.45,1445.55 2160.96,1445.56 2161.47,1445.57 2161.98,1445.57 2162.49,1445.57 2163.01,1445.57 2163.52,1445.57 2164.03,1445.57 2164.54,1445.58 2165.05,1445.58 2165.56,1445.58 2166.08,1445.6 2166.59,1445.61 2167.1,1445.59 2167.61,1445.56 2168.12,1445.58 2168.63,1445.59 2169.14,1445.58 2169.66,1445.58 2170.17,1445.58 2170.68,1445.59 2171.19,1445.59 2171.7,1445.58 2172.21,1445.58 2172.72,1445.57 2173.24,1445.57 2173.75,1445.57 2174.26,1445.57 2174.77,1445.56 2175.28,1445.57 2175.79,1445.57 2176.3,1445.58 2176.82,1445.59 2177.33,1445.58 2177.84,1445.57 2178.35,1445.59 2178.86,1445.6 2179.37,1445.6 2179.88,1445.61 2180.4,1445.6 2180.91,1445.6 2181.42,1445.6 2181.93,1445.6 2182.44,1445.6 2182.95,1445.6 2183.46,1445.61 2183.98,1445.62 2184.49,1445.63 2185,1445.64 2185.51,1445.64 2186.02,1445.64 2186.53,1445.64 2187.04,1445.65 2187.56,1445.64 2188.07,1445.64 2188.58,1445.63 2189.09,1445.62 2189.6,1445.63 2190.11,1445.64 2190.62,1445.63 2191.14,1445.63 2191.65,1445.62 2192.16,1445.61 2192.67,1445.62 2193.18,1445.62 2193.69,1445.61 2194.21,1445.6 2194.72,1445.6 2195.23,1445.6 2195.74,1445.59 2196.25,1445.59 2196.76,1445.59 2197.27,1445.59 2197.79,1445.6 2198.3,1445.6 2198.81,1445.62 2199.32,1445.64 2199.83,1445.63 2200.34,1445.62 2200.85,1445.62 2201.37,1445.61 2201.88,1445.61 2202.39,1445.6 2202.9,1445.61 2203.41,1445.61 2203.92,1445.6 2204.43,1445.59 2204.95,1445.58 2205.46,1445.57 2205.97,1445.58 2206.48,1445.59 2206.99,1445.59 2207.5,1445.59 2208.01,1445.6 2208.53,1445.61 2209.04,1445.62 2209.55,1445.63 2210.06,1445.62 2210.57,1445.61 2211.08,1445.63 2211.59,1445.64 2212.11,1445.63 2212.62,1445.63 2213.13,1445.63 2213.64,1445.63 2214.15,1445.64 2214.66,1445.64 2215.17,1445.65 2215.69,1445.65 2216.2,1445.65 2216.71,1445.64 2217.22,1445.63 2217.73,1445.63 2218.24,1445.63 2218.75,1445.64 2219.27,1445.65 2219.78,1445.67 2220.29,1445.67 2220.8,1445.67 2221.31,1445.67 2221.82,1445.68 2222.34,1445.68 2222.85,1445.68 2223.36,1445.67 2223.87,1445.66 2224.38,1445.65 2224.89,1445.64 2225.4,1445.64 2225.92,1445.64 2226.43,1445.65 2226.94,1445.65 2227.45,1445.65 2227.96,1445.65 2228.47,1445.65 2228.98,1445.65 2229.5,1445.67 2230.01,1445.68 2230.52,1445.66 2231.03,1445.65 2231.54,1445.65 2232.05,1445.64 2232.56,1445.65 2233.08,1445.66 2233.59,1445.67 2234.1,1445.67 2234.61,1445.66 2235.12,1445.65 2235.63,1445.65 2236.14,1445.65 2236.66,1445.64 2237.17,1445.64 2237.68,1445.64 2238.19,1445.64 2238.7,1445.62 2239.21,1445.6 2239.72,1445.61 2240.24,1445.61 2240.75,1445.6 2241.26,1445.59 2241.77,1445.59 2242.28,1445.59 2242.79,1445.6 2243.3,1445.6 2243.82,1445.6 2244.33,1445.6 2244.84,1445.6 2245.35,1445.6 2245.86,1445.62 2246.37,1445.63 2246.88,1445.63 2247.4,1445.63 2247.91,1445.64 2248.42,1445.65 2248.93,1445.66 2249.44,1445.66 2249.95,1445.67 2250.47,1445.67 2250.98,1445.68 2251.49,1445.68 2252,1445.68 2252.51,1445.68 2253.02,1445.69 2253.53,1445.69 2254.05,1445.68 2254.56,1445.67 2255.07,1445.66 2255.58,1445.65 2256.09,1445.66 2256.6,1445.67 2257.11,1445.67 2257.63,1445.68 2258.14,1445.68 2258.65,1445.68 2259.16,1445.68 2259.67,1445.67 2260.18,1445.67 2260.69,1445.67 2261.21,1445.68 2261.72,1445.68 2262.23,1445.69 2262.74,1445.7 2263.25,1445.71 2263.76,1445.72 2264.27,1445.71 2264.79,1445.7 2265.3,1445.7 2265.81,1445.69 2266.32,1445.69 2266.83,1445.7 2267.34,1445.7 2267.85,1445.71 2268.37,1445.7 2268.88,1445.7 2269.39,1445.69 2269.9,1445.68 2270.41,1445.67 2270.92,1445.66 2271.43,1445.66 2271.95,1445.66 2272.46,1445.65 2272.97,1445.64 2273.48,1445.64 2273.99,1445.64 2274.5,1445.65 2275.01,1445.65 2275.53,1445.64 2276.04,1445.64 2276.55,1445.62 2277.06,1445.61 2277.57,1445.63 2278.08,1445.64 2278.6,1445.65 2279.11,1445.66 2279.62,1445.65 2280.13,1445.64 2280.64,1445.64 2281.15,1445.65 2281.66,1445.64 2282.18,1445.64 2282.69,1445.61 2283.2,1445.59 2283.71,1445.6 2284.22,1445.61 2284.73,1445.61 2285.24,1445.61 2285.76,1445.61 2286.27,1445.6 2286.78,1445.59 2287.29,1445.59 2287.8,1445.58 2288.31,1445.57 2288.82,1445.57 2289.34,1445.56 2289.85,1445.56 2290.36,1445.56 2290.87,1445.57 2291.38,1445.59 "/>
<path clip-path="url(#clip460)" d="M2011.18 198.898 L2280.47 198.898 L2280.47 95.2176 L2011.18 95.2176  Z" fill="#ffffff" fill-rule="evenodd" fill-opacity="1"/>
<polyline clip-path="url(#clip460)" style="stroke:#000000; stroke-linecap:round; stroke-linejoin:round; stroke-width:4; stroke-opacity:1; fill:none" points="2011.18,198.898 2280.47,198.898 2280.47,95.2176 2011.18,95.2176 2011.18,198.898 "/>
<polyline clip-path="url(#clip460)" style="stroke:#009af9; stroke-linecap:round; stroke-linejoin:round; stroke-width:4; stroke-opacity:1; fill:none" points="2035.28,147.058 2179.85,147.058 "/>
<path clip-path="url(#clip460)" d="M2217.79 166.745 Q2215.98 171.375 2214.27 172.787 Q2212.56 174.199 2209.69 174.199 L2206.28 174.199 L2206.28 170.634 L2208.78 170.634 Q2210.54 170.634 2211.51 169.8 Q2212.49 168.967 2213.67 165.865 L2214.43 163.921 L2203.94 138.412 L2208.46 138.412 L2216.56 158.689 L2224.66 138.412 L2229.18 138.412 L2217.79 166.745 Z" fill="#000000" fill-rule="nonzero" fill-opacity="1" /><path clip-path="url(#clip460)" d="M2236.47 160.402 L2244.11 160.402 L2244.11 134.037 L2235.8 135.703 L2235.8 131.444 L2244.06 129.778 L2248.74 129.778 L2248.74 160.402 L2256.38 160.402 L2256.38 164.338 L2236.47 164.338 L2236.47 160.402 Z" fill="#000000" fill-rule="nonzero" fill-opacity="1" /></svg>
