<?xml version="1.0" encoding="utf-8"?>
<svg xmlns="http://www.w3.org/2000/svg" xmlns:xlink="http://www.w3.org/1999/xlink" width="600" height="400" viewBox="0 0 2400 1600">
<defs>
  <clipPath id="clip430">
    <rect x="0" y="0" width="2400" height="1600"/>
  </clipPath>
</defs>
<path clip-path="url(#clip430)" d="M0 1600 L2400 1600 L2400 0 L0 0  Z" fill="#ffffff" fill-rule="evenodd" fill-opacity="1"/>
<defs>
  <clipPath id="clip431">
    <rect x="480" y="0" width="1681" height="1600"/>
  </clipPath>
</defs>
<path clip-path="url(#clip430)" d="M155.765 1486.45 L2352.76 1486.45 L2352.76 47.2441 L155.765 47.2441  Z" fill="#ffffff" fill-rule="evenodd" fill-opacity="1"/>
<defs>
  <clipPath id="clip432">
    <rect x="155" y="47" width="2198" height="1440"/>
  </clipPath>
</defs>
<polyline clip-path="url(#clip432)" style="stroke:#000000; stroke-linecap:round; stroke-linejoin:round; stroke-width:2; stroke-opacity:0.1; fill:none" points="217.944,1486.45 217.944,47.2441 "/>
<polyline clip-path="url(#clip432)" style="stroke:#000000; stroke-linecap:round; stroke-linejoin:round; stroke-width:2; stroke-opacity:0.1; fill:none" points="736.102,1486.45 736.102,47.2441 "/>
<polyline clip-path="url(#clip432)" style="stroke:#000000; stroke-linecap:round; stroke-linejoin:round; stroke-width:2; stroke-opacity:0.1; fill:none" points="1254.26,1486.45 1254.26,47.2441 "/>
<polyline clip-path="url(#clip432)" style="stroke:#000000; stroke-linecap:round; stroke-linejoin:round; stroke-width:2; stroke-opacity:0.1; fill:none" points="1772.42,1486.45 1772.42,47.2441 "/>
<polyline clip-path="url(#clip432)" style="stroke:#000000; stroke-linecap:round; stroke-linejoin:round; stroke-width:2; stroke-opacity:0.1; fill:none" points="2290.58,1486.45 2290.58,47.2441 "/>
<polyline clip-path="url(#clip430)" style="stroke:#000000; stroke-linecap:round; stroke-linejoin:round; stroke-width:4; stroke-opacity:1; fill:none" points="155.765,1486.45 2352.76,1486.45 "/>
<polyline clip-path="url(#clip430)" style="stroke:#000000; stroke-linecap:round; stroke-linejoin:round; stroke-width:4; stroke-opacity:1; fill:none" points="217.944,1486.45 217.944,1467.55 "/>
<polyline clip-path="url(#clip430)" style="stroke:#000000; stroke-linecap:round; stroke-linejoin:round; stroke-width:4; stroke-opacity:1; fill:none" points="736.102,1486.45 736.102,1467.55 "/>
<polyline clip-path="url(#clip430)" style="stroke:#000000; stroke-linecap:round; stroke-linejoin:round; stroke-width:4; stroke-opacity:1; fill:none" points="1254.26,1486.45 1254.26,1467.55 "/>
<polyline clip-path="url(#clip430)" style="stroke:#000000; stroke-linecap:round; stroke-linejoin:round; stroke-width:4; stroke-opacity:1; fill:none" points="1772.42,1486.45 1772.42,1467.55 "/>
<polyline clip-path="url(#clip430)" style="stroke:#000000; stroke-linecap:round; stroke-linejoin:round; stroke-width:4; stroke-opacity:1; fill:none" points="2290.58,1486.45 2290.58,1467.55 "/>
<path clip-path="url(#clip430)" d="M217.944 1517.37 Q214.333 1517.37 212.504 1520.93 Q210.699 1524.47 210.699 1531.6 Q210.699 1538.71 212.504 1542.27 Q214.333 1545.82 217.944 1545.82 Q221.578 1545.82 223.384 1542.27 Q225.212 1538.71 225.212 1531.6 Q225.212 1524.47 223.384 1520.93 Q221.578 1517.37 217.944 1517.37 M217.944 1513.66 Q223.754 1513.66 226.81 1518.27 Q229.888 1522.85 229.888 1531.6 Q229.888 1540.33 226.81 1544.94 Q223.754 1549.52 217.944 1549.52 Q212.134 1549.52 209.055 1544.94 Q206 1540.33 206 1531.6 Q206 1522.85 209.055 1518.27 Q212.134 1513.66 217.944 1513.66 Z" fill="#000000" fill-rule="nonzero" fill-opacity="1" /><path clip-path="url(#clip430)" d="M680.628 1544.91 L688.267 1544.91 L688.267 1518.55 L679.957 1520.21 L679.957 1515.95 L688.22 1514.29 L692.896 1514.29 L692.896 1544.91 L700.535 1544.91 L700.535 1548.85 L680.628 1548.85 L680.628 1544.91 Z" fill="#000000" fill-rule="nonzero" fill-opacity="1" /><path clip-path="url(#clip430)" d="M719.98 1517.37 Q716.368 1517.37 714.54 1520.93 Q712.734 1524.47 712.734 1531.6 Q712.734 1538.71 714.54 1542.27 Q716.368 1545.82 719.98 1545.82 Q723.614 1545.82 725.419 1542.27 Q727.248 1538.71 727.248 1531.6 Q727.248 1524.47 725.419 1520.93 Q723.614 1517.37 719.98 1517.37 M719.98 1513.66 Q725.79 1513.66 728.845 1518.27 Q731.924 1522.85 731.924 1531.6 Q731.924 1540.33 728.845 1544.94 Q725.79 1549.52 719.98 1549.52 Q714.169 1549.52 711.091 1544.94 Q708.035 1540.33 708.035 1531.6 Q708.035 1522.85 711.091 1518.27 Q714.169 1513.66 719.98 1513.66 Z" fill="#000000" fill-rule="nonzero" fill-opacity="1" /><path clip-path="url(#clip430)" d="M750.141 1517.37 Q746.53 1517.37 744.702 1520.93 Q742.896 1524.47 742.896 1531.6 Q742.896 1538.71 744.702 1542.27 Q746.53 1545.82 750.141 1545.82 Q753.776 1545.82 755.581 1542.27 Q757.41 1538.71 757.41 1531.6 Q757.41 1524.47 755.581 1520.93 Q753.776 1517.37 750.141 1517.37 M750.141 1513.66 Q755.952 1513.66 759.007 1518.27 Q762.086 1522.85 762.086 1531.6 Q762.086 1540.33 759.007 1544.94 Q755.952 1549.52 750.141 1549.52 Q744.331 1549.52 741.253 1544.94 Q738.197 1540.33 738.197 1531.6 Q738.197 1522.85 741.253 1518.27 Q744.331 1513.66 750.141 1513.66 Z" fill="#000000" fill-rule="nonzero" fill-opacity="1" /><path clip-path="url(#clip430)" d="M780.303 1517.37 Q776.692 1517.37 774.864 1520.93 Q773.058 1524.47 773.058 1531.6 Q773.058 1538.71 774.864 1542.27 Q776.692 1545.82 780.303 1545.82 Q783.938 1545.82 785.743 1542.27 Q787.572 1538.71 787.572 1531.6 Q787.572 1524.47 785.743 1520.93 Q783.938 1517.37 780.303 1517.37 M780.303 1513.66 Q786.113 1513.66 789.169 1518.27 Q792.248 1522.85 792.248 1531.6 Q792.248 1540.33 789.169 1544.94 Q786.113 1549.52 780.303 1549.52 Q774.493 1549.52 771.414 1544.94 Q768.359 1540.33 768.359 1531.6 Q768.359 1522.85 771.414 1518.27 Q774.493 1513.66 780.303 1513.66 Z" fill="#000000" fill-rule="nonzero" fill-opacity="1" /><path clip-path="url(#clip430)" d="M1202.87 1544.91 L1219.19 1544.91 L1219.19 1548.85 L1197.25 1548.85 L1197.25 1544.91 Q1199.91 1542.16 1204.49 1537.53 Q1209.1 1532.88 1210.28 1531.53 Q1212.52 1529.01 1213.4 1527.27 Q1214.31 1525.51 1214.31 1523.82 Q1214.31 1521.07 1212.36 1519.33 Q1210.44 1517.6 1207.34 1517.6 Q1205.14 1517.6 1202.69 1518.36 Q1200.26 1519.13 1197.48 1520.68 L1197.48 1515.95 Q1200.3 1514.82 1202.76 1514.24 Q1205.21 1513.66 1207.25 1513.66 Q1212.62 1513.66 1215.81 1516.35 Q1219.01 1519.03 1219.01 1523.52 Q1219.01 1525.65 1218.2 1527.57 Q1217.41 1529.47 1215.3 1532.07 Q1214.72 1532.74 1211.62 1535.95 Q1208.52 1539.15 1202.87 1544.91 Z" fill="#000000" fill-rule="nonzero" fill-opacity="1" /><path clip-path="url(#clip430)" d="M1239.01 1517.37 Q1235.39 1517.37 1233.57 1520.93 Q1231.76 1524.47 1231.76 1531.6 Q1231.76 1538.71 1233.57 1542.27 Q1235.39 1545.82 1239.01 1545.82 Q1242.64 1545.82 1244.45 1542.27 Q1246.27 1538.71 1246.27 1531.6 Q1246.27 1524.47 1244.45 1520.93 Q1242.64 1517.37 1239.01 1517.37 M1239.01 1513.66 Q1244.82 1513.66 1247.87 1518.27 Q1250.95 1522.85 1250.95 1531.6 Q1250.95 1540.33 1247.87 1544.94 Q1244.82 1549.52 1239.01 1549.52 Q1233.2 1549.52 1230.12 1544.94 Q1227.06 1540.33 1227.06 1531.6 Q1227.06 1522.85 1230.12 1518.27 Q1233.2 1513.66 1239.01 1513.66 Z" fill="#000000" fill-rule="nonzero" fill-opacity="1" /><path clip-path="url(#clip430)" d="M1269.17 1517.37 Q1265.56 1517.37 1263.73 1520.93 Q1261.92 1524.47 1261.92 1531.6 Q1261.92 1538.71 1263.73 1542.27 Q1265.56 1545.82 1269.17 1545.82 Q1272.8 1545.82 1274.61 1542.27 Q1276.44 1538.71 1276.44 1531.6 Q1276.44 1524.47 1274.61 1520.93 Q1272.8 1517.37 1269.17 1517.37 M1269.17 1513.66 Q1274.98 1513.66 1278.03 1518.27 Q1281.11 1522.85 1281.11 1531.6 Q1281.11 1540.33 1278.03 1544.94 Q1274.98 1549.52 1269.17 1549.52 Q1263.36 1549.52 1260.28 1544.94 Q1257.22 1540.33 1257.22 1531.6 Q1257.22 1522.85 1260.28 1518.27 Q1263.36 1513.66 1269.17 1513.66 Z" fill="#000000" fill-rule="nonzero" fill-opacity="1" /><path clip-path="url(#clip430)" d="M1299.33 1517.37 Q1295.72 1517.37 1293.89 1520.93 Q1292.08 1524.47 1292.08 1531.6 Q1292.08 1538.71 1293.89 1542.27 Q1295.72 1545.82 1299.33 1545.82 Q1302.96 1545.82 1304.77 1542.27 Q1306.6 1538.71 1306.6 1531.6 Q1306.6 1524.47 1304.77 1520.93 Q1302.96 1517.37 1299.33 1517.37 M1299.33 1513.66 Q1305.14 1513.66 1308.2 1518.27 Q1311.27 1522.85 1311.27 1531.6 Q1311.27 1540.33 1308.2 1544.94 Q1305.14 1549.52 1299.33 1549.52 Q1293.52 1549.52 1290.44 1544.94 Q1287.39 1540.33 1287.39 1531.6 Q1287.39 1522.85 1290.44 1518.27 Q1293.52 1513.66 1299.33 1513.66 Z" fill="#000000" fill-rule="nonzero" fill-opacity="1" /><path clip-path="url(#clip430)" d="M1731.1 1530.21 Q1734.46 1530.93 1736.33 1533.2 Q1738.23 1535.47 1738.23 1538.8 Q1738.23 1543.92 1734.71 1546.72 Q1731.19 1549.52 1724.71 1549.52 Q1722.53 1549.52 1720.22 1549.08 Q1717.93 1548.66 1715.47 1547.81 L1715.47 1543.29 Q1717.42 1544.43 1719.73 1545.01 Q1722.05 1545.58 1724.57 1545.58 Q1728.97 1545.58 1731.26 1543.85 Q1733.58 1542.11 1733.58 1538.8 Q1733.58 1535.75 1731.42 1534.03 Q1729.29 1532.3 1725.47 1532.3 L1721.45 1532.3 L1721.45 1528.45 L1725.66 1528.45 Q1729.11 1528.45 1730.94 1527.09 Q1732.77 1525.7 1732.77 1523.11 Q1732.77 1520.45 1730.87 1519.03 Q1728.99 1517.6 1725.47 1517.6 Q1723.55 1517.6 1721.35 1518.01 Q1719.16 1518.43 1716.52 1519.31 L1716.52 1515.14 Q1719.18 1514.4 1721.49 1514.03 Q1723.83 1513.66 1725.89 1513.66 Q1731.22 1513.66 1734.32 1516.09 Q1737.42 1518.5 1737.42 1522.62 Q1737.42 1525.49 1735.78 1527.48 Q1734.13 1529.45 1731.1 1530.21 Z" fill="#000000" fill-rule="nonzero" fill-opacity="1" /><path clip-path="url(#clip430)" d="M1757.09 1517.37 Q1753.48 1517.37 1751.65 1520.93 Q1749.85 1524.47 1749.85 1531.6 Q1749.85 1538.71 1751.65 1542.27 Q1753.48 1545.82 1757.09 1545.82 Q1760.73 1545.82 1762.53 1542.27 Q1764.36 1538.71 1764.36 1531.6 Q1764.36 1524.47 1762.53 1520.93 Q1760.73 1517.37 1757.09 1517.37 M1757.09 1513.66 Q1762.9 1513.66 1765.96 1518.27 Q1769.04 1522.85 1769.04 1531.6 Q1769.04 1540.33 1765.96 1544.94 Q1762.9 1549.52 1757.09 1549.52 Q1751.28 1549.52 1748.21 1544.94 Q1745.15 1540.33 1745.15 1531.6 Q1745.15 1522.85 1748.21 1518.27 Q1751.28 1513.66 1757.09 1513.66 Z" fill="#000000" fill-rule="nonzero" fill-opacity="1" /><path clip-path="url(#clip430)" d="M1787.26 1517.37 Q1783.65 1517.37 1781.82 1520.93 Q1780.01 1524.47 1780.01 1531.6 Q1780.01 1538.71 1781.82 1542.27 Q1783.65 1545.82 1787.26 1545.82 Q1790.89 1545.82 1792.7 1542.27 Q1794.53 1538.71 1794.53 1531.6 Q1794.53 1524.47 1792.7 1520.93 Q1790.89 1517.37 1787.26 1517.37 M1787.26 1513.66 Q1793.07 1513.66 1796.12 1518.27 Q1799.2 1522.85 1799.2 1531.6 Q1799.2 1540.33 1796.12 1544.94 Q1793.07 1549.52 1787.26 1549.52 Q1781.45 1549.52 1778.37 1544.94 Q1775.31 1540.33 1775.31 1531.6 Q1775.31 1522.85 1778.37 1518.27 Q1781.45 1513.66 1787.26 1513.66 Z" fill="#000000" fill-rule="nonzero" fill-opacity="1" /><path clip-path="url(#clip430)" d="M1817.42 1517.37 Q1813.81 1517.37 1811.98 1520.93 Q1810.17 1524.47 1810.17 1531.6 Q1810.17 1538.71 1811.98 1542.27 Q1813.81 1545.82 1817.42 1545.82 Q1821.05 1545.82 1822.86 1542.27 Q1824.69 1538.71 1824.69 1531.6 Q1824.69 1524.47 1822.86 1520.93 Q1821.05 1517.37 1817.42 1517.37 M1817.42 1513.66 Q1823.23 1513.66 1826.28 1518.27 Q1829.36 1522.85 1829.36 1531.6 Q1829.36 1540.33 1826.28 1544.94 Q1823.23 1549.52 1817.42 1549.52 Q1811.61 1549.52 1808.53 1544.94 Q1805.47 1540.33 1805.47 1531.6 Q1805.47 1522.85 1808.53 1518.27 Q1811.61 1513.66 1817.42 1513.66 Z" fill="#000000" fill-rule="nonzero" fill-opacity="1" /><path clip-path="url(#clip430)" d="M2248.59 1518.36 L2236.78 1536.81 L2248.59 1536.81 L2248.59 1518.36 M2247.36 1514.29 L2253.24 1514.29 L2253.24 1536.81 L2258.17 1536.81 L2258.17 1540.7 L2253.24 1540.7 L2253.24 1548.85 L2248.59 1548.85 L2248.59 1540.7 L2232.98 1540.7 L2232.98 1536.19 L2247.36 1514.29 Z" fill="#000000" fill-rule="nonzero" fill-opacity="1" /><path clip-path="url(#clip430)" d="M2275.9 1517.37 Q2272.29 1517.37 2270.46 1520.93 Q2268.66 1524.47 2268.66 1531.6 Q2268.66 1538.71 2270.46 1542.27 Q2272.29 1545.82 2275.9 1545.82 Q2279.54 1545.82 2281.34 1542.27 Q2283.17 1538.71 2283.17 1531.6 Q2283.17 1524.47 2281.34 1520.93 Q2279.54 1517.37 2275.9 1517.37 M2275.9 1513.66 Q2281.71 1513.66 2284.77 1518.27 Q2287.85 1522.85 2287.85 1531.6 Q2287.85 1540.33 2284.77 1544.94 Q2281.71 1549.52 2275.9 1549.52 Q2270.09 1549.52 2267.01 1544.94 Q2263.96 1540.33 2263.96 1531.6 Q2263.96 1522.85 2267.01 1518.27 Q2270.09 1513.66 2275.9 1513.66 Z" fill="#000000" fill-rule="nonzero" fill-opacity="1" /><path clip-path="url(#clip430)" d="M2306.06 1517.37 Q2302.45 1517.37 2300.62 1520.93 Q2298.82 1524.47 2298.82 1531.6 Q2298.82 1538.71 2300.62 1542.27 Q2302.45 1545.82 2306.06 1545.82 Q2309.7 1545.82 2311.5 1542.27 Q2313.33 1538.71 2313.33 1531.6 Q2313.33 1524.47 2311.5 1520.93 Q2309.7 1517.37 2306.06 1517.37 M2306.06 1513.66 Q2311.87 1513.66 2314.93 1518.27 Q2318.01 1522.85 2318.01 1531.6 Q2318.01 1540.33 2314.93 1544.94 Q2311.87 1549.52 2306.06 1549.52 Q2300.25 1549.52 2297.17 1544.94 Q2294.12 1540.33 2294.12 1531.6 Q2294.12 1522.85 2297.17 1518.27 Q2300.25 1513.66 2306.06 1513.66 Z" fill="#000000" fill-rule="nonzero" fill-opacity="1" /><path clip-path="url(#clip430)" d="M2336.22 1517.37 Q2332.61 1517.37 2330.79 1520.93 Q2328.98 1524.47 2328.98 1531.6 Q2328.98 1538.71 2330.79 1542.27 Q2332.61 1545.82 2336.22 1545.82 Q2339.86 1545.82 2341.66 1542.27 Q2343.49 1538.71 2343.49 1531.6 Q2343.49 1524.47 2341.66 1520.93 Q2339.86 1517.37 2336.22 1517.37 M2336.22 1513.66 Q2342.03 1513.66 2345.09 1518.27 Q2348.17 1522.85 2348.17 1531.6 Q2348.17 1540.33 2345.09 1544.94 Q2342.03 1549.52 2336.22 1549.52 Q2330.41 1549.52 2327.34 1544.94 Q2324.28 1540.33 2324.28 1531.6 Q2324.28 1522.85 2327.34 1518.27 Q2330.41 1513.66 2336.22 1513.66 Z" fill="#000000" fill-rule="nonzero" fill-opacity="1" /><polyline clip-path="url(#clip432)" style="stroke:#000000; stroke-linecap:round; stroke-linejoin:round; stroke-width:2; stroke-opacity:0.1; fill:none" points="155.765,1324.42 2352.76,1324.42 "/>
<polyline clip-path="url(#clip432)" style="stroke:#000000; stroke-linecap:round; stroke-linejoin:round; stroke-width:2; stroke-opacity:0.1; fill:none" points="155.765,1110.95 2352.76,1110.95 "/>
<polyline clip-path="url(#clip432)" style="stroke:#000000; stroke-linecap:round; stroke-linejoin:round; stroke-width:2; stroke-opacity:0.1; fill:none" points="155.765,897.491 2352.76,897.491 "/>
<polyline clip-path="url(#clip432)" style="stroke:#000000; stroke-linecap:round; stroke-linejoin:round; stroke-width:2; stroke-opacity:0.1; fill:none" points="155.765,684.028 2352.76,684.028 "/>
<polyline clip-path="url(#clip432)" style="stroke:#000000; stroke-linecap:round; stroke-linejoin:round; stroke-width:2; stroke-opacity:0.1; fill:none" points="155.765,470.565 2352.76,470.565 "/>
<polyline clip-path="url(#clip432)" style="stroke:#000000; stroke-linecap:round; stroke-linejoin:round; stroke-width:2; stroke-opacity:0.1; fill:none" points="155.765,257.102 2352.76,257.102 "/>
<polyline clip-path="url(#clip430)" style="stroke:#000000; stroke-linecap:round; stroke-linejoin:round; stroke-width:4; stroke-opacity:1; fill:none" points="155.765,1486.45 155.765,47.2441 "/>
<polyline clip-path="url(#clip430)" style="stroke:#000000; stroke-linecap:round; stroke-linejoin:round; stroke-width:4; stroke-opacity:1; fill:none" points="155.765,1324.42 174.663,1324.42 "/>
<polyline clip-path="url(#clip430)" style="stroke:#000000; stroke-linecap:round; stroke-linejoin:round; stroke-width:4; stroke-opacity:1; fill:none" points="155.765,1110.95 174.663,1110.95 "/>
<polyline clip-path="url(#clip430)" style="stroke:#000000; stroke-linecap:round; stroke-linejoin:round; stroke-width:4; stroke-opacity:1; fill:none" points="155.765,897.491 174.663,897.491 "/>
<polyline clip-path="url(#clip430)" style="stroke:#000000; stroke-linecap:round; stroke-linejoin:round; stroke-width:4; stroke-opacity:1; fill:none" points="155.765,684.028 174.663,684.028 "/>
<polyline clip-path="url(#clip430)" style="stroke:#000000; stroke-linecap:round; stroke-linejoin:round; stroke-width:4; stroke-opacity:1; fill:none" points="155.765,470.565 174.663,470.565 "/>
<polyline clip-path="url(#clip430)" style="stroke:#000000; stroke-linecap:round; stroke-linejoin:round; stroke-width:4; stroke-opacity:1; fill:none" points="155.765,257.102 174.663,257.102 "/>
<path clip-path="url(#clip430)" d="M53.3995 1337.76 L61.0384 1337.76 L61.0384 1311.4 L52.7282 1313.06 L52.7282 1308.8 L60.9921 1307.14 L65.668 1307.14 L65.668 1337.76 L73.3068 1337.76 L73.3068 1341.7 L53.3995 1341.7 L53.3995 1337.76 Z" fill="#000000" fill-rule="nonzero" fill-opacity="1" /><path clip-path="url(#clip430)" d="M82.7512 1335.82 L87.6354 1335.82 L87.6354 1341.7 L82.7512 1341.7 L82.7512 1335.82 Z" fill="#000000" fill-rule="nonzero" fill-opacity="1" /><path clip-path="url(#clip430)" d="M107.821 1310.22 Q104.209 1310.22 102.381 1313.78 Q100.575 1317.32 100.575 1324.45 Q100.575 1331.56 102.381 1335.12 Q104.209 1338.66 107.821 1338.66 Q111.455 1338.66 113.26 1335.12 Q115.089 1331.56 115.089 1324.45 Q115.089 1317.32 113.26 1313.78 Q111.455 1310.22 107.821 1310.22 M107.821 1306.51 Q113.631 1306.51 116.686 1311.12 Q119.765 1315.7 119.765 1324.45 Q119.765 1333.18 116.686 1337.79 Q113.631 1342.37 107.821 1342.37 Q102.01 1342.37 98.9317 1337.79 Q95.8761 1333.18 95.8761 1324.45 Q95.8761 1315.7 98.9317 1311.12 Q102.01 1306.51 107.821 1306.51 Z" fill="#000000" fill-rule="nonzero" fill-opacity="1" /><path clip-path="url(#clip430)" d="M54.3949 1124.3 L62.0337 1124.3 L62.0337 1097.93 L53.7236 1099.6 L53.7236 1095.34 L61.9874 1093.67 L66.6633 1093.67 L66.6633 1124.3 L74.3022 1124.3 L74.3022 1128.23 L54.3949 1128.23 L54.3949 1124.3 Z" fill="#000000" fill-rule="nonzero" fill-opacity="1" /><path clip-path="url(#clip430)" d="M83.7466 1122.35 L88.6308 1122.35 L88.6308 1128.23 L83.7466 1128.23 L83.7466 1122.35 Z" fill="#000000" fill-rule="nonzero" fill-opacity="1" /><path clip-path="url(#clip430)" d="M98.8622 1093.67 L117.219 1093.67 L117.219 1097.61 L103.145 1097.61 L103.145 1106.08 Q104.163 1105.73 105.182 1105.57 Q106.2 1105.39 107.219 1105.39 Q113.006 1105.39 116.385 1108.56 Q119.765 1111.73 119.765 1117.15 Q119.765 1122.72 116.293 1125.83 Q112.82 1128.91 106.501 1128.91 Q104.325 1128.91 102.057 1128.53 Q99.8113 1128.16 97.4039 1127.42 L97.4039 1122.72 Q99.4872 1123.86 101.709 1124.41 Q103.932 1124.97 106.408 1124.97 Q110.413 1124.97 112.751 1122.86 Q115.089 1120.76 115.089 1117.15 Q115.089 1113.53 112.751 1111.43 Q110.413 1109.32 106.408 1109.32 Q104.534 1109.32 102.659 1109.74 Q100.807 1110.16 98.8622 1111.03 L98.8622 1093.67 Z" fill="#000000" fill-rule="nonzero" fill-opacity="1" /><path clip-path="url(#clip430)" d="M56.6171 910.836 L72.9365 910.836 L72.9365 914.771 L50.9921 914.771 L50.9921 910.836 Q53.6541 908.081 58.2375 903.452 Q62.8439 898.799 64.0245 897.456 Q66.2698 894.933 67.1494 893.197 Q68.0522 891.438 68.0522 889.748 Q68.0522 886.993 66.1078 885.257 Q64.1865 883.521 61.0847 883.521 Q58.8856 883.521 56.4319 884.285 Q54.0014 885.049 51.2236 886.6 L51.2236 881.878 Q54.0477 880.743 56.5014 880.165 Q58.955 879.586 60.9921 879.586 Q66.3624 879.586 69.5568 882.271 Q72.7513 884.956 72.7513 889.447 Q72.7513 891.577 71.9411 893.498 Q71.1541 895.396 69.0476 897.989 Q68.4689 898.66 65.367 901.877 Q62.2652 905.072 56.6171 910.836 Z" fill="#000000" fill-rule="nonzero" fill-opacity="1" /><path clip-path="url(#clip430)" d="M82.7512 908.891 L87.6354 908.891 L87.6354 914.771 L82.7512 914.771 L82.7512 908.891 Z" fill="#000000" fill-rule="nonzero" fill-opacity="1" /><path clip-path="url(#clip430)" d="M107.821 883.29 Q104.209 883.29 102.381 886.854 Q100.575 890.396 100.575 897.526 Q100.575 904.632 102.381 908.197 Q104.209 911.739 107.821 911.739 Q111.455 911.739 113.26 908.197 Q115.089 904.632 115.089 897.526 Q115.089 890.396 113.26 886.854 Q111.455 883.29 107.821 883.29 M107.821 879.586 Q113.631 879.586 116.686 884.192 Q119.765 888.776 119.765 897.526 Q119.765 906.252 116.686 910.859 Q113.631 915.442 107.821 915.442 Q102.01 915.442 98.9317 910.859 Q95.8761 906.252 95.8761 897.526 Q95.8761 888.776 98.9317 884.192 Q102.01 879.586 107.821 879.586 Z" fill="#000000" fill-rule="nonzero" fill-opacity="1" /><path clip-path="url(#clip430)" d="M57.6125 697.373 L73.9318 697.373 L73.9318 701.308 L51.9875 701.308 L51.9875 697.373 Q54.6495 694.618 59.2328 689.989 Q63.8393 685.336 65.0198 683.993 Q67.2652 681.47 68.1448 679.734 Q69.0476 677.975 69.0476 676.285 Q69.0476 673.53 67.1032 671.794 Q65.1819 670.058 62.08 670.058 Q59.881 670.058 57.4273 670.822 Q54.9967 671.586 52.219 673.137 L52.219 668.415 Q55.043 667.28 57.4967 666.702 Q59.9504 666.123 61.9874 666.123 Q67.3578 666.123 70.5522 668.808 Q73.7466 671.493 73.7466 675.984 Q73.7466 678.114 72.9365 680.035 Q72.1494 681.933 70.0429 684.526 Q69.4642 685.197 66.3624 688.414 Q63.2606 691.609 57.6125 697.373 Z" fill="#000000" fill-rule="nonzero" fill-opacity="1" /><path clip-path="url(#clip430)" d="M83.7466 695.428 L88.6308 695.428 L88.6308 701.308 L83.7466 701.308 L83.7466 695.428 Z" fill="#000000" fill-rule="nonzero" fill-opacity="1" /><path clip-path="url(#clip430)" d="M98.8622 666.748 L117.219 666.748 L117.219 670.683 L103.145 670.683 L103.145 679.155 Q104.163 678.808 105.182 678.646 Q106.2 678.461 107.219 678.461 Q113.006 678.461 116.385 681.632 Q119.765 684.803 119.765 690.22 Q119.765 695.799 116.293 698.901 Q112.82 701.979 106.501 701.979 Q104.325 701.979 102.057 701.609 Q99.8113 701.238 97.4039 700.498 L97.4039 695.799 Q99.4872 696.933 101.709 697.488 Q103.932 698.044 106.408 698.044 Q110.413 698.044 112.751 695.938 Q115.089 693.831 115.089 690.22 Q115.089 686.609 112.751 684.502 Q110.413 682.396 106.408 682.396 Q104.534 682.396 102.659 682.813 Q100.807 683.229 98.8622 684.109 L98.8622 666.748 Z" fill="#000000" fill-rule="nonzero" fill-opacity="1" /><path clip-path="url(#clip430)" d="M66.7559 469.211 Q70.1124 469.928 71.9874 472.197 Q73.8855 474.465 73.8855 477.799 Q73.8855 482.914 70.367 485.715 Q66.8485 488.516 60.3671 488.516 Q58.1912 488.516 55.8764 488.076 Q53.5847 487.66 51.131 486.803 L51.131 482.289 Q53.0754 483.424 55.3903 484.002 Q57.7051 484.581 60.2282 484.581 Q64.6263 484.581 66.918 482.845 Q69.2328 481.109 69.2328 477.799 Q69.2328 474.743 67.08 473.03 Q64.9504 471.294 61.131 471.294 L57.1032 471.294 L57.1032 467.451 L61.3161 467.451 Q64.7652 467.451 66.5939 466.086 Q68.4226 464.697 68.4226 462.104 Q68.4226 459.442 66.5245 458.03 Q64.6495 456.595 61.131 456.595 Q59.2097 456.595 57.0106 457.012 Q54.8115 457.428 52.1727 458.308 L52.1727 454.141 Q54.8347 453.401 57.1495 453.03 Q59.4875 452.66 61.5476 452.66 Q66.8717 452.66 69.9735 455.09 Q73.0753 457.498 73.0753 461.618 Q73.0753 464.489 71.4318 466.479 Q69.7883 468.447 66.7559 469.211 Z" fill="#000000" fill-rule="nonzero" fill-opacity="1" /><path clip-path="url(#clip430)" d="M82.7512 481.965 L87.6354 481.965 L87.6354 487.845 L82.7512 487.845 L82.7512 481.965 Z" fill="#000000" fill-rule="nonzero" fill-opacity="1" /><path clip-path="url(#clip430)" d="M107.821 456.364 Q104.209 456.364 102.381 459.928 Q100.575 463.47 100.575 470.6 Q100.575 477.706 102.381 481.271 Q104.209 484.812 107.821 484.812 Q111.455 484.812 113.26 481.271 Q115.089 477.706 115.089 470.6 Q115.089 463.47 113.26 459.928 Q111.455 456.364 107.821 456.364 M107.821 452.66 Q113.631 452.66 116.686 457.266 Q119.765 461.85 119.765 470.6 Q119.765 479.326 116.686 483.933 Q113.631 488.516 107.821 488.516 Q102.01 488.516 98.9317 483.933 Q95.8761 479.326 95.8761 470.6 Q95.8761 461.85 98.9317 457.266 Q102.01 452.66 107.821 452.66 Z" fill="#000000" fill-rule="nonzero" fill-opacity="1" /><path clip-path="url(#clip430)" d="M67.7513 255.748 Q71.1078 256.465 72.9827 258.734 Q74.8809 261.002 74.8809 264.336 Q74.8809 269.451 71.3624 272.252 Q67.8439 275.053 61.3624 275.053 Q59.1865 275.053 56.8717 274.613 Q54.5801 274.197 52.1264 273.34 L52.1264 268.826 Q54.0708 269.961 56.3856 270.539 Q58.7004 271.118 61.2236 271.118 Q65.6217 271.118 67.9133 269.382 Q70.2281 267.646 70.2281 264.336 Q70.2281 261.28 68.0754 259.567 Q65.9457 257.831 62.1263 257.831 L58.0986 257.831 L58.0986 253.988 L62.3115 253.988 Q65.7606 253.988 67.5893 252.623 Q69.418 251.234 69.418 248.641 Q69.418 245.979 67.5198 244.567 Q65.6448 243.132 62.1263 243.132 Q60.205 243.132 58.006 243.549 Q55.8069 243.965 53.168 244.845 L53.168 240.678 Q55.8301 239.938 58.1449 239.567 Q60.4828 239.197 62.543 239.197 Q67.867 239.197 70.9689 241.627 Q74.0707 244.035 74.0707 248.155 Q74.0707 251.025 72.4272 253.016 Q70.7837 254.984 67.7513 255.748 Z" fill="#000000" fill-rule="nonzero" fill-opacity="1" /><path clip-path="url(#clip430)" d="M83.7466 268.502 L88.6308 268.502 L88.6308 274.382 L83.7466 274.382 L83.7466 268.502 Z" fill="#000000" fill-rule="nonzero" fill-opacity="1" /><path clip-path="url(#clip430)" d="M98.8622 239.822 L117.219 239.822 L117.219 243.757 L103.145 243.757 L103.145 252.229 Q104.163 251.882 105.182 251.72 Q106.2 251.535 107.219 251.535 Q113.006 251.535 116.385 254.706 Q119.765 257.877 119.765 263.294 Q119.765 268.873 116.293 271.974 Q112.82 275.053 106.501 275.053 Q104.325 275.053 102.057 274.683 Q99.8113 274.312 97.4039 273.572 L97.4039 268.873 Q99.4872 270.007 101.709 270.562 Q103.932 271.118 106.408 271.118 Q110.413 271.118 112.751 269.011 Q115.089 266.905 115.089 263.294 Q115.089 259.683 112.751 257.576 Q110.413 255.47 106.408 255.47 Q104.534 255.47 102.659 255.887 Q100.807 256.303 98.8622 257.183 L98.8622 239.822 Z" fill="#000000" fill-rule="nonzero" fill-opacity="1" /><polyline clip-path="url(#clip432)" style="stroke:#009af9; stroke-linecap:round; stroke-linejoin:round; stroke-width:4; stroke-opacity:1; fill:none" points="217.944,1193.42 218.462,1194.13 218.98,1157.49 219.498,1154.7 220.017,1163.9 220.535,1154.96 221.053,1111.52 221.571,1101.52 222.089,1088.15 222.607,1083.24 223.125,926.769 223.644,923.333 224.162,988.622 224.68,985.245 225.198,868.681 225.716,864.812 226.234,1114.17 226.753,1112.52 227.271,1158.36 227.789,1156.32 228.307,1036.18 228.825,1033.95 229.343,925.845 229.862,924.994 230.38,780.69 230.898,779.924 231.416,1225.84 231.934,1224.63 232.452,1022.36 232.97,1021.41 233.489,732.838 234.007,733.134 234.525,1097.21 235.043,1096.62 235.561,1285.25 236.079,1284.59 236.598,1092.52 237.116,1092.03 237.634,954.476 238.152,954.154 238.67,942.364 239.188,942.046 239.707,762.555 240.225,762.558 240.743,700.297 241.261,699.998 241.779,399.297 242.297,399.213 242.815,1033.7 243.334,1033.33 243.852,843.254 244.37,842.986 244.888,1028.51 245.406,1028.26 245.924,1148.53 246.443,1148.16 246.961,896.276 247.479,896.131 247.997,1244.35 248.515,1244.05 249.033,1445.72 249.552,1445.5 250.07,1003.98 250.588,1003.75 251.106,1222.35 251.624,1222.11 252.142,905.862 252.66,905.803 253.179,1116.62 253.697,1116.65 254.215,844.897 254.733,844.82 255.251,1015 255.769,1015.01 256.288,779.717 256.806,779.631 257.324,921.45 257.842,921.527 258.36,1005.21 258.878,1005.05 259.397,1006.87 259.915,1006.83 260.433,899.125 260.951,899.122 261.469,945.263 261.987,945.145 262.506,968.88 263.024,968.835 263.542,828.315 264.06,828.32 264.578,974.063 265.096,974.019 265.614,1143.88 266.133,1143.81 266.651,866.402 267.169,866.56 267.687,800.893 268.205,801.074 268.723,816.289 269.242,816.405 269.76,777.285 270.278,777.314 270.796,1148.58 271.314,1148.56 271.832,964.534 272.351,964.506 272.869,660.873 273.387,661.13 273.905,477.508 274.423,477.836 274.941,590.732 275.459,591.129 275.978,765.832 276.496,766.102 277.014,1198.94 277.532,1199.03 278.05,1121.06 278.568,1120.99 279.087,805.434 279.605,805.566 280.123,952.686 280.641,952.677 281.159,828.721 281.677,828.766 282.196,1232.68 282.714,1232.63 283.232,879.122 283.75,879.131 284.268,1111.31 284.786,1111.45 285.304,1308.33 285.823,1308.27 286.341,1305.33 286.859,1305.29 287.377,876.798 287.895,876.909 288.413,1118.1 288.932,1118.29 289.45,502.733 289.968,503.414 290.486,696.78 291.004,696.998 291.522,1067.6 292.041,1067.87 292.559,1205.38 293.077,1205.35 293.595,1173.28 294.113,1173.35 294.631,771.676 295.149,771.744 295.668,1115.93 296.186,1115.91 296.704,1200.79 297.222,1200.89 297.74,802.762 298.258,802.917 298.777,609.295 299.295,609.663 299.813,679.966 300.331,680.35 300.849,1070.87 301.367,1071.03 301.886,1013.55 302.404,1013.54 302.922,1045.19 303.44,1045.24 303.958,1333.95 304.476,1333.96 304.994,998.59 305.513,998.692 306.031,880.456 306.549,880.563 307.067,1180.93 307.585,1181.05 308.103,910.071 308.622,910.395 309.14,1249.65 309.658,1249.78 310.176,1192.23 310.694,1192.22 311.212,891.847 311.731,892.059 312.249,825.6 312.767,825.719 313.285,1194.44 313.803,1194.41 314.321,875.692 314.839,875.798 315.358,829.071 315.876,829.205 316.394,720.139 316.912,720.328 317.43,627.818 317.948,628.347 318.467,864.638 318.985,864.818 319.503,1044.16 320.021,1044.47 320.539,1024.06 321.057,1024.17 321.576,966.557 322.094,966.67 322.612,856.434 323.13,856.576 323.648,1113.9 324.166,1113.99 324.684,1148.45 325.203,1148.55 325.721,1084.8 326.239,1084.91 326.757,830.941 327.275,831.064 327.793,1359.08 328.312,1359.02 328.83,846.118 329.348,846.216 329.866,1085.98 330.384,1086.08 330.902,1200.88 331.421,1200.86 331.939,1031.45 332.457,1031.75 332.975,853.677 333.493,853.811 334.011,960.846 334.53,961.001 335.048,956.846 335.566,956.921 336.084,1063.2 336.602,1063.21 337.12,1270.18 337.638,1270.21 338.157,1173.55 338.675,1173.59 339.193,1143.03 339.711,1143.06 340.229,830.967 340.747,831.481 341.266,934.01 341.784,934.082 342.302,980.397 342.82,980.483 343.338,1047.48 343.856,1047.63 344.375,1142.96 344.893,1143.05 345.411,800.183 345.929,800.38 346.447,1177.03 346.965,1177.1 347.483,1114.91 348.002,1115.3 348.52,989.975 349.038,990.093 349.556,798.109 350.074,798.296 350.592,1014.31 351.111,1014.37 351.629,1326.32 352.147,1326.42 352.665,878.927 353.183,879.108 353.701,722.439 354.22,722.706 354.738,1098.88 355.256,1098.95 355.774,353.543 356.292,353.832 356.81,759.012 357.328,759.348 357.847,553.71 358.365,553.983 358.883,797.009 359.401,797.332 359.919,1147.21 360.437,1147.21 360.956,959.998 361.474,960.288 361.992,992.031 362.51,992.104 363.028,1228.37 363.546,1228.34 364.065,987.971 364.583,987.978 365.101,1192.41 365.619,1192.4 366.137,1019.75 366.655,1019.86 367.173,939.298 367.692,939.513 368.21,859.135 368.728,859.668 369.246,883.25 369.764,883.348 370.282,1151.47 370.801,1151.52 371.319,684.992 371.837,685.479 372.355,1022.23 372.873,1022.32 373.391,860.829 373.91,860.996 374.428,878.27 374.946,878.486 375.464,907.632 375.982,907.887 376.5,862.538 377.018,862.611 377.537,1050.39 378.055,1050.42 378.573,883.649 379.091,883.695 379.609,905.442 380.127,905.444 380.646,526.893 381.164,527.266 381.682,1126.64 382.2,1126.64 382.718,1016.05 383.236,1016.04 383.755,960.166 384.273,960.224 384.791,474.28 385.309,474.813 385.827,1011.36 386.345,1011.39 386.863,787.803 387.382,787.976 387.9,857.776 388.418,858.043 388.936,765.077 389.454,765.306 389.972,920.423 390.491,920.46 391.009,1149.51 391.527,1149.53 392.045,884.409 392.563,884.478 393.081,898.64 393.6,898.797 394.118,956.064 394.636,956.075 395.154,728.982 395.672,729.189 396.19,783.66 396.708,783.915 397.227,630.445 397.745,630.554 398.263,659.83 398.781,660.203 399.299,1180.79 399.817,1180.77 400.336,824.372 400.854,824.739 401.372,651.742 401.89,652.048 402.408,1203.63 402.926,1203.61 403.445,815.148 403.963,815.351 404.481,840.5 404.999,840.707 405.517,1000.69 406.035,1000.92 406.554,996.463 407.072,996.563 407.59,1132.2 408.108,1132.2 408.626,1097.13 409.144,1097.16 409.662,828.811 410.181,829.088 410.699,1230.24 411.217,1230.31 411.735,880.568 412.253,880.648 412.771,1070.66 413.29,1070.67 413.808,673.424 414.326,673.839 414.844,836.194 415.362,836.331 415.88,910.242 416.399,910.318 416.917,1101.43 417.435,1101.4 417.953,636.003 418.471,636.331 418.989,470.744 419.507,471.18 420.026,767.506 420.544,767.644 421.062,808.71 421.58,808.789 422.098,924.371 422.616,924.474 423.135,943.253 423.653,943.263 424.171,1040.08 424.689,1040.18 425.207,1113.15 425.725,1113.37 426.244,1069.49 426.762,1069.7 427.28,957.174 427.798,957.317 428.316,962.236 428.834,962.283 429.352,810.512 429.871,810.821 430.389,963.492 430.907,963.624 431.425,930.324 431.943,930.512 432.461,938.715 432.98,938.93 433.498,1148.71 434.016,1148.66 434.534,829.383 435.052,829.693 435.57,868.727 436.089,869.047 436.607,986.503 437.125,986.723 437.643,990.714 438.161,990.751 438.679,707.731 439.197,707.93 439.716,1230.61 440.234,1230.56 440.752,807.866 441.27,808.085 441.788,889.133 442.306,889.251 442.825,840.134 443.343,840.232 443.861,606.416 444.379,606.708 444.897,788.003 445.415,788.089 445.934,1017.89 446.452,1017.99 446.97,1099.92 447.488,1099.87 448.006,997.174 448.524,997.297 449.042,1085.87 449.561,1086.11 450.079,989.862 450.597,989.901 451.115,1021.96 451.633,1021.98 452.151,607.256 452.67,607.441 453.188,914.944 453.706,915.007 454.224,851.794 454.742,852.458 455.26,988.583 455.779,988.637 456.297,908.224 456.815,908.306 457.333,1171.97 457.851,1172.06 458.369,859.058 458.887,859.17 459.406,1154.24 459.924,1154.22 460.442,990.588 460.96,990.684 461.478,851.03 461.996,851.207 462.515,1049.86 463.033,1049.91 463.551,1068.42 464.069,1068.44 464.587,904.064 465.105,904.478 465.624,860.463 466.142,860.719 466.66,1020.18 467.178,1020.27 467.696,1309.59 468.214,1309.55 468.732,879.124 469.251,879.271 469.769,934.583 470.287,934.84 470.805,678.753 471.323,678.989 471.841,1100.15 472.36,1100.15 472.878,829.362 473.396,829.486 473.914,1074.66 474.432,1074.79 474.95,811.893 475.469,812.046 475.987,1219.64 476.505,1219.75 477.023,1274.54 477.541,1274.58 478.059,653.906 478.577,654.063 479.096,968.064 479.614,968.165 480.132,1017.05 480.65,1017.2 481.168,743.161 481.686,743.281 482.205,988.32 482.723,988.415 483.241,986.215 483.759,986.418 484.277,1072.56 484.795,1072.59 485.314,889.722 485.832,889.869 486.35,508.068 486.868,508.675 487.386,1075.12 487.904,1075.12 488.423,919.317 488.941,919.431 489.459,967.998 489.977,968.059 490.495,803.55 491.013,803.79 491.531,1012.2 492.05,1012.31 492.568,1014.6 493.086,1014.63 493.604,1167.08 494.122,1167.28 494.64,1045.1 495.159,1045.09 495.677,996.97 496.195,997.031 496.713,651.412 497.231,651.57 497.749,601.515 498.268,601.896 498.786,991.675 499.304,991.727 499.822,1044.43 500.34,1044.45 500.858,492.373 501.376,492.53 501.895,664.122 502.413,664.588 502.931,677.725 503.449,677.842 503.967,1046.92 504.485,1046.95 505.004,1040.37 505.522,1040.49 506.04,629.633 506.558,629.791 507.076,937.815 507.594,937.866 508.113,737.384 508.631,737.563 509.149,1147.6 509.667,1147.6 510.185,891.58 510.703,891.682 511.221,1230.22 511.74,1230.19 512.258,505.506 512.776,505.718 513.294,1403.48 513.812,1403.55 514.33,838.076 514.849,838.347 515.367,1042.69 515.885,1042.74 516.403,826.743 516.921,826.796 517.439,1155.26 517.958,1155.31 518.476,910.803 518.994,910.995 519.512,1076.3 520.03,1076.35 520.548,1046.94 521.066,1046.95 521.585,891.84 522.103,892.038 522.621,844.845 523.139,845.002 523.657,733.878 524.175,734.089 524.694,935.511 525.212,935.748 525.73,996.22 526.248,996.288 526.766,557.579 527.284,557.888 527.803,1124.04 528.321,1124.03 528.839,1024.06 529.357,1024.1 529.875,830.944 530.393,831.371 530.911,698.951 531.43,699.556 531.948,1024.34 532.466,1024.42 532.984,1177.16 533.502,1177.2 534.02,1178.87 534.539,1178.85 535.057,872.852 535.575,873.041 536.093,832.659 536.611,832.807 537.129,1127.12 537.648,1127.21 538.166,944.643 538.684,944.743 539.202,1152.77 539.72,1152.73 540.238,572.509 540.756,572.934 541.275,1119.93 541.793,1119.92 542.311,821.047 542.829,821.33 543.347,1026.67 543.865,1026.69 544.384,871.735 544.902,871.887 545.42,787.03 545.938,787.193 546.456,761.484 546.974,761.661 547.493,996.626 548.011,996.922 548.529,1123.9 549.047,1123.88 549.565,856.5 550.083,856.818 550.601,1061.77 551.12,1061.93 551.638,1049.62 552.156,1049.6 552.674,1069.84 553.192,1069.88 553.71,692.339 554.229,692.591 554.747,777.667 555.265,778.06 555.783,380.971 556.301,381.224 556.819,1154.66 557.338,1154.64 557.856,847.575 558.374,847.754 558.892,583.354 559.41,583.586 559.928,950.135 560.447,950.197 560.965,1090.91 561.483,1091.05 562.001,1194.5 562.519,1194.63 563.037,1124.78 563.555,1124.81 564.074,841.917 564.592,842.018 565.11,1098.08 565.628,1098.07 566.146,1075.01 566.664,1075.04 567.183,928.037 567.701,928.207 568.219,795.857 568.737,796.005 569.255,1157.54 569.773,1157.58 570.292,838.389 570.81,838.525 571.328,1026.56 571.846,1026.66 572.364,1274.75 572.882,1274.75 573.4,1158.49 573.919,1158.63 574.437,811.95 574.955,812.104 575.473,678.823 575.991,679.133 576.509,1176.84 577.028,1176.89 577.546,886.813 578.064,886.906 578.582,980.834 579.1,980.977 579.618,842.242 580.137,842.381 580.655,1017.67 581.173,1017.75 581.691,941.313 582.209,941.349 582.727,1225.69 583.245,1225.81 583.764,762.701 584.282,762.943 584.8,1166.22 585.318,1166.28 585.836,1124.52 586.354,1124.5 586.873,883.552 587.391,883.814 587.909,901.96 588.427,902.122 588.945,969.066 589.463,969.102 589.982,1127.11 590.5,1127.11 591.018,885.661 591.536,885.723 592.054,1021.91 592.572,1021.96 593.09,760.296 593.609,760.408 594.127,865.475 594.645,865.604 595.163,870.603 595.681,870.708 596.199,1109.85 596.718,1109.95 597.236,809.785 597.754,810.246 598.272,866.666 598.79,866.757 599.308,886.516 599.827,886.604 600.345,787.153 600.863,787.333 601.381,876.928 601.899,877.142 602.417,938.068 602.935,938.306 603.454,800.52 603.972,800.795 604.49,898.198 605.008,898.34 605.526,889.37 606.044,889.453 606.563,860.583 607.081,860.898 607.599,951.84 608.117,951.929 608.635,1279.9 609.153,1279.85 609.672,968.843 610.19,968.892 610.708,1143.7 611.226,1143.77 611.744,1220.16 612.262,1220.19 612.78,975.077 613.299,975.199 613.817,811.659 614.335,811.822 614.853,1139.54 615.371,1139.63 615.889,879.477 616.408,879.703 616.926,1105.21 617.444,1105.2 617.962,782.741 618.48,783.013 618.998,975.606 619.517,975.689 620.035,942.478 620.553,942.656 621.071,1100.67 621.589,1100.67 622.107,490.931 622.625,491.244 623.144,1117.16 623.662,1117.19 624.18,1209.73 624.698,1209.72 625.216,1112.91 625.734,1113.22 626.253,1007.89 626.771,1007.98 627.289,800.607 627.807,800.833 628.325,937.25 628.843,937.331 629.362,988.282 629.88,988.555 630.398,986.856 630.916,987.003 631.434,890.567 631.952,890.693 632.47,766.133 632.989,766.262 633.507,797.544 634.025,797.659 634.543,757.275 635.061,757.591 635.579,1071.29 636.098,1071.38 636.616,801.348 637.134,801.514 637.652,1340.68 638.17,1340.6 638.688,944.423 639.207,944.5 639.725,1176.08 640.243,1176.07 640.761,933.264 641.279,933.498 641.797,1009.53 642.316,1009.69 642.834,1114.94 643.352,1115.03 643.87,1189.01 644.388,1189.02 644.906,1138.46 645.424,1138.53 645.943,996.387 646.461,996.406 646.979,776.22 647.497,776.613 648.015,1097.42 648.533,1097.48 649.052,965.382 649.57,965.405 650.088,651.273 650.606,651.514 651.124,1014.63 651.642,1014.76 652.161,927.673 652.679,927.735 653.197,1107.08 653.715,1107.42 654.233,818.58 654.751,818.79 655.269,1005.1 655.788,1005.19 656.306,858.635 656.824,858.816 657.342,1216.91 657.86,1216.89 658.378,884.199 658.897,884.291 659.415,491.068 659.933,491.489 660.451,867.726 660.969,867.81 661.487,940.654 662.006,940.894 662.524,867.15 663.042,867.244 663.56,955.613 664.078,955.76 664.596,978.443 665.114,978.592 665.633,888.965 666.151,889.122 666.669,1066.19 667.187,1066.25 667.705,1170.72 668.223,1170.71 668.742,751.673 669.26,752.125 669.778,1233.11 670.296,1233.31 670.814,998.619 671.332,998.674 671.851,974.478 672.369,974.537 672.887,788.859 673.405,788.992 673.923,1132.76 674.441,1132.75 674.959,1031.48 675.478,1031.68 675.996,965.627 676.514,965.746 677.032,790.609 677.55,790.681 678.068,817.201 678.587,817.52 679.105,1336.83 679.623,1336.96 680.141,985.198 680.659,985.336 681.177,933.623 681.696,933.937 682.214,1077.15 682.732,1077.18 683.25,881.882 683.768,882.029 684.286,846.035 684.804,846.138 685.323,1019.39 685.841,1019.45 686.359,968.62 686.877,969.088 687.395,733.61 687.913,733.993 688.432,1071.56 688.95,1071.73 689.468,849.208 689.986,849.478 690.504,723.979 691.022,724.191 691.541,1050.47 692.059,1050.75 692.577,896.624 693.095,896.653 693.613,1047.3 694.131,1047.29 694.649,892.42 695.168,892.538 695.686,1230.41 696.204,1230.36 696.722,779.275 697.24,779.681 697.758,1049.88 698.277,1049.89 698.795,1026.03 699.313,1026.05 699.831,684.314 700.349,684.526 700.867,905.523 701.386,905.671 701.904,1062.59 702.422,1062.65 702.94,827.97 703.458,828.119 703.976,480.788 704.494,481.41 705.013,966.317 705.531,966.466 706.049,1147.72 706.567,1147.85 707.085,945.225 707.603,945.542 708.122,1068.83 708.64,1068.94 709.158,947.478 709.676,947.636 710.194,1000.09 710.712,1000.1 711.231,1093.36 711.749,1093.38 712.267,857.661 712.785,857.844 713.303,1109.38 713.821,1109.57 714.34,1377.84 714.858,1377.84 715.376,342.678 715.894,343.029 716.412,897.735 716.93,898.02 717.448,803.599 717.967,803.894 718.485,1137.25 719.003,1137.49 719.521,1024.65 720.039,1024.77 720.557,842.487 721.076,842.503 721.594,647.016 722.112,647.167 722.63,1012.45 723.148,1012.5 723.666,856.941 724.185,857.082 724.703,1023.54 725.221,1023.59 725.739,1012.58 726.257,1012.68 726.775,498.309 727.293,498.74 727.812,899.124 728.33,899.421 728.848,570.425 729.366,570.583 729.884,1001.91 730.402,1001.95 730.921,763.35 731.439,763.67 731.957,1174.37 732.475,1174.46 732.993,818.283 733.511,818.563 734.03,387.943 734.548,388.48 735.066,549.939 735.584,550.197 736.102,969.151 736.62,969.347 737.138,938.459 737.657,938.559 738.175,1301.68 738.693,1301.69 739.211,932.749 739.729,933.065 740.247,1213.87 740.766,1213.82 741.284,1111.81 741.802,1112.03 742.32,804.386 742.838,804.779 743.356,1220.41 743.875,1220.57 744.393,1019.76 744.911,1019.82 745.429,1117.91 745.947,1117.92 746.465,1172.02 746.983,1172.25 747.502,740.99 748.02,741.72 748.538,1066.75 749.056,1067.05 749.574,905.105 750.092,905.168 750.611,1079.57 751.129,1079.72 751.647,850.385 752.165,850.586 752.683,831.646 753.201,831.771 753.72,1086.56 754.238,1086.65 754.756,945.22 755.274,945.333 755.792,1006.01 756.31,1006.15 756.828,1201.1 757.347,1201.17 757.865,924.759 758.383,924.903 758.901,649.055 759.419,649.209 759.937,1035.38 760.456,1035.5 760.974,1002.92 761.492,1003.02 762.01,920.191 762.528,920.765 763.046,733.064 763.565,733.196 764.083,683.327 764.601,683.485 765.119,1087.6 765.637,1087.63 766.155,960.616 766.673,960.764 767.192,825.685 767.71,825.825 768.228,1079.99 768.746,1080.21 769.264,720.599 769.782,720.872 770.301,685.582 770.819,685.678 771.337,1019.19 771.855,1019.26 772.373,992.906 772.891,992.88 773.41,756.877 773.928,757.197 774.446,1007.77 774.964,1007.93 775.482,686.045 776,686.151 776.518,1043.92 777.037,1044.06 777.555,946.097 778.073,946.133 778.591,723.731 779.109,723.871 779.627,848.62 780.146,848.807 780.664,612.732 781.182,612.902 781.7,972.615 782.218,972.64 782.736,910.89 783.255,911.016 783.773,1134.91 784.291,1134.92 784.809,1307.72 785.327,1307.79 785.845,1180.67 786.364,1180.73 786.882,982.809 787.4,982.854 787.918,795.54 788.436,795.694 788.954,592.914 789.472,593.415 789.991,872.851 790.509,873.012 791.027,1269.23 791.545,1269.24 792.063,933.59 792.581,933.805 793.1,869.813 793.618,869.967 794.136,1083.6 794.654,1083.61 795.172,792.968 795.69,793.196 796.209,875.349 796.727,875.458 797.245,489.032 797.763,489.399 798.281,1033.21 798.799,1033.21 799.317,948.928 799.836,949.38 800.354,397.152 800.872,397.849 801.39,901.731 801.908,901.902 802.426,1006.32 802.945,1006.45 803.463,1039.6 803.981,1039.9 804.499,673.364 805.017,673.601 805.535,659.526 806.054,659.698 806.572,1074.6 807.09,1074.66 807.608,1001.63 808.126,1001.77 808.644,979.182 809.162,979.286 809.681,792.323 810.199,792.395 810.717,832.615 811.235,832.81 811.753,857.177 812.271,857.535 812.79,1048.93 813.308,1049.04 813.826,828.903 814.344,829.062 814.862,1249.14 815.38,1249.1 815.899,929.139 816.417,929.309 816.935,900.51 817.453,900.595 817.971,1276.73 818.489,1276.97 819.007,753.814 819.526,754.165 820.044,719.498 820.562,719.682 821.08,933.76 821.598,933.887 822.116,981.833 822.635,981.844 823.153,473.323 823.671,473.5 824.189,1184.58 824.707,1184.55 825.225,1125.57 825.744,1125.58 826.262,1064.92 826.78,1065 827.298,962.719 827.816,963.02 828.334,1114.91 828.852,1115.04 829.371,953.49 829.889,953.559 830.407,1107.39 830.925,1107.4 831.443,979.871 831.961,980.081 832.48,1182.17 832.998,1182.48 833.516,1043.53 834.034,1043.62 834.552,806.359 835.07,806.7 835.589,549.171 836.107,549.646 836.625,678.043 837.143,678.39 837.661,1010.95 838.179,1011.07 838.697,841.187 839.216,841.489 839.734,683.297 840.252,683.387 840.77,678.059 841.288,678.355 841.806,990.239 842.325,990.495 842.843,918.991 843.361,918.976 843.879,1047.22 844.397,1047.59 844.915,714.428 845.434,714.677 845.952,615.843 846.47,616.099 846.988,1329.22 847.506,1329.26 848.024,573.441 848.542,573.787 849.061,924.688 849.579,924.784 850.097,970.29 850.615,970.335 851.133,769.592 851.651,769.962 852.17,1060.6 852.688,1060.69 853.206,1050.34 853.724,1050.41 854.242,919.762 854.76,919.893 855.279,1112.74 855.797,1112.75 856.315,661.463 856.833,661.611 857.351,259.59 857.869,259.871 858.387,796.731 858.906,796.882 859.424,946.361 859.942,946.361 860.46,1199.78 860.978,1199.89 861.496,863.239 862.015,863.41 862.533,887.666 863.051,887.754 863.569,471.739 864.087,472.146 864.605,609.232 865.124,609.444 865.642,862.14 866.16,862.401 866.678,1007.81 867.196,1008.15 867.714,1007.78 868.233,1007.83 868.751,1218.2 869.269,1218.17 869.787,902.684 870.305,902.841 870.823,640.957 871.341,641.141 871.86,1284.04 872.378,1283.97 872.896,710.186 873.414,710.3 873.932,1140.37 874.45,1140.35 874.969,1152.47 875.487,1152.6 876.005,1137.88 876.523,1137.98 877.041,836.366 877.559,836.52 878.078,547.566 878.596,548.007 879.114,765.509 879.632,765.636 880.15,1130.57 880.668,1130.57 881.186,917.506 881.705,917.649 882.223,777.107 882.741,777.373 883.259,613.715 883.777,613.957 884.295,728.839 884.814,729.078 885.332,936.645 885.85,936.757 886.368,855.963 886.886,856.11 887.404,850.101 887.923,850.226 888.441,1015.52 888.959,1015.57 889.477,750.301 889.995,750.396 890.513,769.11 891.031,769.405 891.55,910.847 892.068,910.883 892.586,998.045 893.104,998.168 893.622,758.767 894.14,758.845 894.659,805.857 895.177,805.936 895.695,859.553 896.213,859.761 896.731,820.817 897.249,821.152 897.768,1023.11 898.286,1023.25 898.804,660.278 899.322,660.515 899.84,983.172 900.358,983.223 900.876,818.137 901.395,818.312 901.913,384.28 902.431,384.873 902.949,859.94 903.467,860.094 903.985,908.124 904.504,908.126 905.022,685.674 905.54,685.785 906.058,892.494 906.576,892.675 907.094,939.569 907.613,939.649 908.131,807.004 908.649,807.454 909.167,940.763 909.685,940.782 910.203,837.543 910.721,837.626 911.24,1053.54 911.758,1053.55 912.276,695.364 912.794,695.626 913.312,791.65 913.83,791.867 914.349,1202.42 914.867,1202.38 915.385,1116.85 915.903,1117.18 916.421,648.986 916.939,649.302 917.458,810.037 917.976,810.321 918.494,949.8 919.012,949.927 919.53,911.064 920.048,911.206 920.566,914.143 921.085,914.169 921.603,989.623 922.121,989.806 922.639,696.341 923.157,696.587 923.675,793.523 924.194,793.633 924.712,468.727 925.23,469.006 925.748,646.069 926.266,646.347 926.784,780.789 927.303,780.964 927.821,971.496 928.339,971.544 928.857,1193.85 929.375,1193.93 929.893,816.36 930.411,816.603 930.93,1071.18 931.448,1071.23 931.966,1049.96 932.484,1050.03 933.002,980.895 933.52,980.976 934.039,966.72 934.557,966.738 935.075,847.148 935.593,847.423 936.111,816.837 936.629,816.984 937.148,949.557 937.666,949.585 938.184,911.786 938.702,911.893 939.22,986.576 939.738,986.632 940.257,891.022 940.775,891.249 941.293,896.219 941.811,896.526 942.329,1030.88 942.847,1030.96 943.365,678.366 943.884,678.619 944.402,1144.03 944.92,1144.23 945.438,765.703 945.956,765.886 946.474,913.735 946.993,913.787 947.511,1058.47 948.029,1058.54 948.547,592.239 949.065,592.66 949.583,893.935 950.102,894.042 950.62,1062.16 951.138,1062.18 951.656,1035.35 952.174,1035.38 952.692,1229.96 953.21,1229.95 953.729,1123.75 954.247,1123.89 954.765,1218.44 955.283,1218.4 955.801,720.434 956.319,720.609 956.838,1005.11 957.356,1005.3 957.874,951.011 958.392,951.064 958.91,1316.34 959.428,1316.44 959.947,1027.38 960.465,1027.48 960.983,1065.61 961.501,1065.73 962.019,749.636 962.537,749.777 963.055,1119.79 963.574,1119.83 964.092,718.66 964.61,718.941 965.128,545.355 965.646,545.663 966.164,506.03 966.683,506.454 967.201,1002.17 967.719,1002.48 968.237,1018.51 968.755,1018.57 969.273,562.088 969.792,562.379 970.31,855.313 970.828,855.36 971.346,827.851 971.864,827.913 972.382,1038.15 972.9,1038.13 973.419,876.956 973.937,876.972 974.455,930.943 974.973,930.999 975.491,940.856 976.009,941.004 976.528,719.336 977.046,719.572 977.564,888.213 978.082,888.268 978.6,1176.41 979.118,1176.38 979.637,980.186 980.155,980.498 980.673,995.998 981.191,996.101 981.709,708.322 982.227,708.566 982.745,921.6 983.264,921.688 983.782,767.059 984.3,767.196 984.818,719.306 985.336,719.53 985.854,570.263 986.373,570.482 986.891,1171.24 987.409,1171.45 987.927,1082.39 988.445,1082.39 988.963,741.641 989.482,741.76 990,906.262 990.518,906.334 991.036,922.688 991.554,922.999 992.072,1088.97 992.59,1089.06 993.109,917.053 993.627,917.111 994.145,896.609 994.663,896.952 995.181,1025.25 995.699,1025.23 996.218,1151.23 996.736,1151.37 997.254,1273.12 997.772,1273.06 998.29,1057.58 998.808,1057.57 999.327,1165.3 999.845,1165.36 1000.36,782.04 1000.88,782.274 1001.4,929.199 1001.92,929.379 1002.44,588.045 1002.95,588.416 1003.47,872.264 1003.99,872.559 1004.51,263.443 1005.03,263.843 1005.54,946.008 1006.06,946.016 1006.58,1006.92 1007.1,1007.05 1007.62,1141.37 1008.14,1141.34 1008.65,932.747 1009.17,932.804 1009.69,730.917 1010.21,731.144 1010.73,1158.93 1011.24,1158.94 1011.76,1029.02 1012.28,1029.16 1012.8,162.966 1013.32,163.634 1013.83,1035.08 1014.35,1035.35 1014.87,812.586 1015.39,812.795 1015.91,672.009 1016.43,672.194 1016.94,852.557 1017.46,852.669 1017.98,1093.06 1018.5,1093.2 1019.02,762.068 1019.53,762.209 1020.05,1117.46 1020.57,1117.52 1021.09,990.278 1021.61,990.298 1022.13,764.377 1022.64,764.582 1023.16,1050.11 1023.68,1050.16 1024.2,769.901 1024.72,770.123 1025.23,552.515 1025.75,552.733 1026.27,949.164 1026.79,949.191 1027.31,731.051 1027.83,731.443 1028.34,808.093 1028.86,808.21 1029.38,1048.08 1029.9,1048.15 1030.42,878.702 1030.93,878.772 1031.45,950.23 1031.97,950.269 1032.49,819.417 1033.01,819.78 1033.52,477.4 1034.04,477.604 1034.56,934.776 1035.08,935.205 1035.6,625.54 1036.12,625.724 1036.63,620.204 1037.15,620.319 1037.67,604.831 1038.19,605.039 1038.71,863.686 1039.22,863.766 1039.74,509.55 1040.26,509.9 1040.78,960.381 1041.3,960.452 1041.82,925.172 1042.33,925.197 1042.85,908.705 1043.37,908.931 1043.89,1012.9 1044.41,1012.89 1044.92,1074.77 1045.44,1074.73 1045.96,881.205 1046.48,881.33 1047,1048.38 1047.52,1048.65 1048.03,970.367 1048.55,970.703 1049.07,1108.7 1049.59,1108.65 1050.11,1092.6 1050.62,1092.62 1051.14,787.745 1051.66,787.911 1052.18,890.382 1052.7,890.533 1053.22,1018.66 1053.73,1018.74 1054.25,888.903 1054.77,889.159 1055.29,999.262 1055.81,999.252 1056.32,816.485 1056.84,816.64 1057.36,844.025 1057.88,844.14 1058.4,1137.6 1058.91,1137.71 1059.43,1051.8 1059.95,1051.83 1060.47,1058.61 1060.99,1058.63 1061.51,1036.27 1062.02,1036.46 1062.54,927.578 1063.06,927.736 1063.58,1115.66 1064.1,1115.94 1064.61,687.601 1065.13,687.783 1065.65,781.982 1066.17,782.163 1066.69,879.956 1067.21,880.071 1067.72,1173.86 1068.24,1173.92 1068.76,87.9763 1069.28,88.3672 1069.8,1032.54 1070.31,1032.54 1070.83,1015.57 1071.35,1015.77 1071.87,846.24 1072.39,846.358 1072.91,808.774 1073.42,808.956 1073.94,951.389 1074.46,951.428 1074.98,603.047 1075.5,603.233 1076.01,482.667 1076.53,483.053 1077.05,925.571 1077.57,925.851 1078.09,987.196 1078.6,987.494 1079.12,795.089 1079.64,795.17 1080.16,1270.2 1080.68,1270.15 1081.2,808.376 1081.71,808.532 1082.23,1148.6 1082.75,1148.62 1083.27,858.153 1083.79,858.257 1084.3,895.604 1084.82,895.706 1085.34,776.484 1085.86,776.72 1086.38,863.265 1086.9,863.472 1087.41,772.677 1087.93,772.776 1088.45,707.554 1088.97,707.829 1089.49,1124.25 1090,1124.6 1090.52,930.032 1091.04,930.083 1091.56,1175.94 1092.08,1175.93 1092.6,738.092 1093.11,738.298 1093.63,977.982 1094.15,978.024 1094.67,1157.43 1095.19,1157.55 1095.7,451.697 1096.22,452.15 1096.74,1291.1 1097.26,1291.14 1097.78,870.653 1098.29,870.824 1098.81,897.588 1099.33,897.591 1099.85,1043.73 1100.37,1043.77 1100.89,1078.55 1101.4,1078.52 1101.92,871.965 1102.44,872.294 1102.96,1007.24 1103.48,1007.31 1103.99,975.751 1104.51,975.8 1105.03,661.624 1105.55,661.934 1106.07,416.358 1106.59,416.7 1107.1,855.472 1107.62,855.663 1108.14,1174.41 1108.66,1174.38 1109.18,885.923 1109.69,886.173 1110.21,854.3 1110.73,854.988 1111.25,1190.75 1111.77,1190.7 1112.29,1176.51 1112.8,1176.64 1113.32,1182.79 1113.84,1182.75 1114.36,986.591 1114.88,986.661 1115.39,777.213 1115.91,777.368 1116.43,1076.5 1116.95,1076.55 1117.47,820.583 1117.98,820.754 1118.5,719.811 1119.02,720.278 1119.54,724.485 1120.06,724.697 1120.58,975.43 1121.09,975.789 1121.61,968.374 1122.13,968.53 1122.65,259 1123.17,259.398 1123.68,536.438 1124.2,536.567 1124.72,746.111 1125.24,746.221 1125.76,778.037 1126.28,778.224 1126.79,1132.35 1127.31,1132.44 1127.83,992.071 1128.35,992.34 1128.87,718.149 1129.38,718.402 1129.9,1192.69 1130.42,1192.72 1130.94,1006 1131.46,1006.15 1131.98,657.291 1132.49,657.711 1133.01,777.088 1133.53,777.333 1134.05,933.49 1134.57,933.657 1135.08,1143.99 1135.6,1144.17 1136.12,1122.66 1136.64,1122.75 1137.16,1112.56 1137.67,1112.59 1138.19,1053.71 1138.71,1053.99 1139.23,811.439 1139.75,811.841 1140.27,1003.01 1140.78,1003.05 1141.3,1111.65 1141.82,1111.65 1142.34,709.329 1142.86,709.722 1143.37,713.847 1143.89,714.312 1144.41,930.892 1144.93,931.055 1145.45,808.098 1145.97,808.489 1146.48,994.999 1147,995.196 1147.52,379.452 1148.04,380.045 1148.56,990.499 1149.07,990.568 1149.59,511.601 1150.11,511.883 1150.63,859.94 1151.15,859.991 1151.67,774.806 1152.18,774.876 1152.7,953.448 1153.22,953.483 1153.74,782.665 1154.26,782.903 1154.77,947.244 1155.29,947.214 1155.81,1081.69 1156.33,1081.75 1156.85,831.274 1157.36,831.46 1157.88,799.588 1158.4,799.874 1158.92,421.33 1159.44,421.612 1159.96,945.051 1160.47,945.066 1160.99,992.014 1161.51,992.196 1162.03,1062.78 1162.55,1062.8 1163.06,990.345 1163.58,990.429 1164.1,708.856 1164.62,709.101 1165.14,1193.87 1165.66,1193.83 1166.17,1008.88 1166.69,1008.92 1167.21,624.368 1167.73,624.664 1168.25,779.743 1168.76,780.079 1169.28,898.071 1169.8,898.1 1170.32,842.748 1170.84,843.3 1171.36,744.203 1171.87,744.377 1172.39,631.273 1172.91,631.46 1173.43,883.6 1173.95,883.823 1174.46,1007.81 1174.98,1007.9 1175.5,838.091 1176.02,838.257 1176.54,712.393 1177.05,712.536 1177.57,1056.31 1178.09,1056.26 1178.61,729.322 1179.13,729.517 1179.65,1046.05 1180.16,1045.98 1180.68,1057.77 1181.2,1057.8 1181.72,652.145 1182.24,652.346 1182.75,865.065 1183.27,865.127 1183.79,1309.95 1184.31,1309.89 1184.83,914.809 1185.35,914.865 1185.86,852.645 1186.38,852.891 1186.9,951.957 1187.42,952.121 1187.94,615.023 1188.45,615.138 1188.97,1040.2 1189.49,1040.22 1190.01,692.476 1190.53,692.581 1191.05,1140.86 1191.56,1140.85 1192.08,1014.43 1192.6,1014.53 1193.12,940.487 1193.64,940.84 1194.15,734.498 1194.67,734.729 1195.19,1257.03 1195.71,1257 1196.23,926.42 1196.74,926.498 1197.26,810.23 1197.78,810.403 1198.3,1165.1 1198.82,1165.13 1199.34,801.534 1199.85,801.695 1200.37,1108.73 1200.89,1108.7 1201.41,1011.45 1201.93,1011.8 1202.44,1035.51 1202.96,1035.47 1203.48,1031.97 1204,1032.03 1204.52,1089.9 1205.04,1089.89 1205.55,1024.96 1206.07,1025.06 1206.59,858.929 1207.11,859.053 1207.63,608.608 1208.14,608.805 1208.66,862.04 1209.18,862.305 1209.7,1001.39 1210.22,1001.47 1210.74,832.381 1211.25,832.418 1211.77,845.131 1212.29,845.474 1212.81,991.279 1213.33,991.386 1213.84,997.054 1214.36,997.09 1214.88,913.357 1215.4,913.817 1215.92,805.141 1216.43,805.24 1216.95,1060.63 1217.47,1060.69 1217.99,745.704 1218.51,745.819 1219.03,819.786 1219.54,819.946 1220.06,980.511 1220.58,980.686 1221.1,1006.62 1221.62,1006.73 1222.13,924.568 1222.65,924.617 1223.17,504.248 1223.69,504.595 1224.21,1024.62 1224.73,1024.67 1225.24,1113.42 1225.76,1113.44 1226.28,1122.73 1226.8,1122.85 1227.32,723.948 1227.83,724.397 1228.35,1155.5 1228.87,1155.49 1229.39,884.407 1229.91,884.514 1230.43,888.351 1230.94,888.479 1231.46,907.419 1231.98,907.594 1232.5,719.42 1233.02,719.774 1233.53,922.691 1234.05,922.693 1234.57,783.83 1235.09,784.096 1235.61,619.961 1236.12,620.323 1236.64,451.309 1237.16,451.555 1237.68,752.907 1238.2,753.085 1238.72,926.871 1239.23,926.945 1239.75,262.122 1240.27,262.456 1240.79,989.593 1241.31,989.834 1241.82,626.526 1242.34,626.698 1242.86,1146.39 1243.38,1146.32 1243.9,922.634 1244.42,922.648 1244.93,1005.97 1245.45,1006.02 1245.97,797.339 1246.49,797.59 1247.01,795.411 1247.52,795.542 1248.04,1026.46 1248.56,1026.47 1249.08,975.123 1249.6,975.232 1250.12,758.84 1250.63,759.499 1251.15,1283.61 1251.67,1283.59 1252.19,895.707 1252.71,895.858 1253.22,582.204 1253.74,582.379 1254.26,967.873 1254.78,967.856 1255.3,885.722 1255.81,886.081 1256.33,1323.73 1256.85,1323.74 1257.37,439.422 1257.89,440.057 1258.41,932.794 1258.92,932.828 1259.44,620.553 1259.96,620.757 1260.48,985.922 1261,986.058 1261.51,951.331 1262.03,951.448 1262.55,632.292 1263.07,632.465 1263.59,613.451 1264.11,613.952 1264.62,1046.25 1265.14,1046.23 1265.66,865.954 1266.18,865.978 1266.7,1245.88 1267.21,1245.96 1267.73,1155.77 1268.25,1155.87 1268.77,1236.06 1269.29,1236.04 1269.81,1020.63 1270.32,1020.85 1270.84,904.865 1271.36,905.027 1271.88,1216.99 1272.4,1217.05 1272.91,867.923 1273.43,867.987 1273.95,898.322 1274.47,898.373 1274.99,648.85 1275.5,648.978 1276.02,718.898 1276.54,719.496 1277.06,982.392 1277.58,982.535 1278.1,939.013 1278.61,939.082 1279.13,1063.21 1279.65,1063.38 1280.17,1229.1 1280.69,1229.15 1281.2,897.403 1281.72,897.646 1282.24,1003.36 1282.76,1003.62 1283.28,835.442 1283.8,835.654 1284.31,1120.69 1284.83,1120.79 1285.35,961.822 1285.87,962.153 1286.39,685.684 1286.9,685.797 1287.42,1206.34 1287.94,1206.41 1288.46,849.362 1288.98,849.802 1289.5,1123.33 1290.01,1123.3 1290.53,840.224 1291.05,840.377 1291.57,802.847 1292.09,802.911 1292.6,765.857 1293.12,765.937 1293.64,591.288 1294.16,591.568 1294.68,858.695 1295.19,858.811 1295.71,884.312 1296.23,884.414 1296.75,875.772 1297.27,876.088 1297.79,753.096 1298.3,753.202 1298.82,1080.19 1299.34,1080.36 1299.86,1011.69 1300.38,1012.01 1300.89,417.263 1301.41,417.623 1301.93,793.534 1302.45,793.768 1302.97,1282.76 1303.49,1282.75 1304,855.496 1304.52,855.695 1305.04,748.92 1305.56,749.114 1306.08,544.738 1306.59,545.234 1307.11,717.174 1307.63,717.321 1308.15,841.575 1308.67,841.976 1309.19,1206.75 1309.7,1206.74 1310.22,809.417 1310.74,809.5 1311.26,1000.13 1311.78,1000.14 1312.29,1001.05 1312.81,1001.3 1313.33,1201.25 1313.85,1201.33 1314.37,996.045 1314.88,996.267 1315.4,694.423 1315.92,694.766 1316.44,974.63 1316.96,974.713 1317.48,1184.1 1317.99,1184.07 1318.51,876.479 1319.03,876.659 1319.55,1190.15 1320.07,1190.36 1320.58,975.156 1321.1,975.205 1321.62,995.921 1322.14,995.974 1322.66,825.741 1323.18,825.928 1323.69,404.505 1324.21,404.848 1324.73,994.218 1325.25,994.383 1325.77,486.05 1326.28,486.686 1326.8,1055.83 1327.32,1056.02 1327.84,1042.69 1328.36,1042.98 1328.88,1037.18 1329.39,1037.3 1329.91,820.156 1330.43,820.594 1330.95,1124.8 1331.47,1124.82 1331.98,929.719 1332.5,929.778 1333.02,898.836 1333.54,898.943 1334.06,664.984 1334.57,665.218 1335.09,951.678 1335.61,951.786 1336.13,1007.33 1336.65,1007.45 1337.17,896.47 1337.68,896.581 1338.2,1000.23 1338.72,1000.28 1339.24,826.905 1339.76,827.297 1340.27,724.646 1340.79,724.915 1341.31,1038.63 1341.83,1039.02 1342.35,706.572 1342.87,706.797 1343.38,1040.58 1343.9,1040.6 1344.42,779.921 1344.94,779.973 1345.46,1074.36 1345.97,1074.31 1346.49,529.717 1347.01,530.472 1347.53,895.111 1348.05,895.455 1348.57,1094.53 1349.08,1094.49 1349.6,883.362 1350.12,884.007 1350.64,1172.16 1351.16,1172.32 1351.67,818.449 1352.19,818.492 1352.71,735.701 1353.23,735.788 1353.75,902.407 1354.26,902.774 1354.78,652.364 1355.3,652.649 1355.82,1190.7 1356.34,1190.68 1356.86,1162.73 1357.37,1162.82 1357.89,889.61 1358.41,889.705 1358.93,1220.02 1359.45,1220.09 1359.96,765.555 1360.48,765.971 1361,484.176 1361.52,484.489 1362.04,847.17 1362.56,847.287 1363.07,816.532 1363.59,816.974 1364.11,970.94 1364.63,971.017 1365.15,1172.63 1365.66,1172.63 1366.18,1065.96 1366.7,1066.01 1367.22,951.742 1367.74,951.761 1368.26,1011.04 1368.77,1011.08 1369.29,359.991 1369.81,360.368 1370.33,1246.28 1370.85,1246.33 1371.36,594.431 1371.88,594.751 1372.4,653.214 1372.92,653.613 1373.44,928.214 1373.95,928.321 1374.47,763.47 1374.99,763.585 1375.51,402.99 1376.03,403.339 1376.55,720.8 1377.06,721.007 1377.58,636.537 1378.1,636.788 1378.62,773.725 1379.14,773.857 1379.65,898.916 1380.17,899.489 1380.69,1083.47 1381.21,1083.42 1381.73,916.786 1382.25,916.886 1382.76,776.091 1383.28,776.237 1383.8,913.203 1384.32,913.234 1384.84,677.472 1385.35,677.611 1385.87,801.48 1386.39,801.671 1386.91,852.998 1387.43,853.315 1387.95,624.709 1388.46,624.871 1388.98,768.213 1389.5,768.341 1390.02,754.533 1390.54,754.747 1391.05,1052.42 1391.57,1052.54 1392.09,491.743 1392.61,492.13 1393.13,633.265 1393.64,633.737 1394.16,883.981 1394.68,884.074 1395.2,842.794 1395.72,843.132 1396.24,1062.49 1396.75,1062.52 1397.27,944.589 1397.79,944.721 1398.31,929.244 1398.83,929.415 1399.34,776.82 1399.86,777.02 1400.38,939.144 1400.9,939.243 1401.42,972.654 1401.94,972.899 1402.45,951.967 1402.97,951.94 1403.49,887.238 1404.01,887.412 1404.53,933.824 1405.04,933.911 1405.56,741.05 1406.08,741.399 1406.6,1205.47 1407.12,1205.39 1407.64,692.675 1408.15,692.907 1408.67,1250.07 1409.19,1250.1 1409.71,798.161 1410.23,798.315 1410.74,992.937 1411.26,993.019 1411.78,806.787 1412.3,807.098 1412.82,702.911 1413.33,703.521 1413.85,817.791 1414.37,818.125 1414.89,678.228 1415.41,678.52 1415.93,510.043 1416.44,510.424 1416.96,817.137 1417.48,817.296 1418,785.263 1418.52,785.465 1419.03,863.005 1419.55,863.025 1420.07,930.908 1420.59,930.981 1421.11,779.145 1421.63,780.131 1422.14,1229.25 1422.66,1229.38 1423.18,810.022 1423.7,810.145 1424.22,561.292 1424.73,561.513 1425.25,1184.75 1425.77,1184.77 1426.29,951.047 1426.81,951.089 1427.33,802.779 1427.84,802.94 1428.36,1094.89 1428.88,1094.94 1429.4,1136.09 1429.92,1136.04 1430.43,835.305 1430.95,835.877 1431.47,759.458 1431.99,759.709 1432.51,813.785 1433.03,814.052 1433.54,921.207 1434.06,921.402 1434.58,762.177 1435.1,762.323 1435.62,1034.85 1436.13,1035.03 1436.65,1047.53 1437.17,1047.54 1437.69,1444.94 1438.21,1444.91 1438.72,1111.07 1439.24,1111.09 1439.76,1010.06 1440.28,1010.1 1440.8,1040.08 1441.32,1040.11 1441.83,693.018 1442.35,693.283 1442.87,716.34 1443.39,716.637 1443.91,883.421 1444.42,883.633 1444.94,1166.49 1445.46,1166.59 1445.98,1040.54 1446.5,1040.6 1447.02,715.861 1447.53,716.063 1448.05,783.789 1448.57,783.946 1449.09,763.432 1449.61,763.767 1450.12,837.021 1450.64,837.19 1451.16,1022.81 1451.68,1022.86 1452.2,961.684 1452.72,961.845 1453.23,739.319 1453.75,739.534 1454.27,958.808 1454.79,958.906 1455.31,936.686 1455.82,936.956 1456.34,1037.34 1456.86,1037.37 1457.38,1122.86 1457.9,1122.92 1458.41,896.839 1458.93,896.865 1459.45,918.46 1459.97,918.637 1460.49,899.656 1461.01,899.973 1461.52,1210.21 1462.04,1210.34 1462.56,972.084 1463.08,972.165 1463.6,971.318 1464.11,971.471 1464.63,540.531 1465.15,540.787 1465.67,743.173 1466.19,743.404 1466.71,864.224 1467.22,864.651 1467.74,1020.47 1468.26,1020.46 1468.78,1109.19 1469.3,1109.23 1469.81,784.889 1470.33,785.306 1470.85,1221.3 1471.37,1221.48 1471.89,682.774 1472.41,682.985 1472.92,556.589 1473.44,556.786 1473.96,412.712 1474.48,413.154 1475,1006.56 1475.51,1006.64 1476.03,801.495 1476.55,801.653 1477.07,727.426 1477.59,727.506 1478.1,835.399 1478.62,835.582 1479.14,1119.67 1479.66,1119.89 1480.18,972.742 1480.7,972.78 1481.21,911.129 1481.73,911.452 1482.25,773.259 1482.77,773.354 1483.29,1326.65 1483.8,1326.6 1484.32,881.7 1484.84,881.796 1485.36,1332.37 1485.88,1332.44 1486.4,1083.41 1486.91,1083.43 1487.43,860.679 1487.95,861.001 1488.47,871.018 1488.99,871.11 1489.5,905.368 1490.02,905.495 1490.54,1054.82 1491.06,1054.87 1491.58,978.084 1492.1,978.163 1492.61,827.702 1493.13,827.841 1493.65,1011.95 1494.17,1012.07 1494.69,871.453 1495.2,871.692 1495.72,949.179 1496.24,949.464 1496.76,853.852 1497.28,854.05 1497.79,701.976 1498.31,702.244 1498.83,830.516 1499.35,830.61 1499.87,710.988 1500.39,711.059 1500.9,721.884 1501.42,722.067 1501.94,1063.98 1502.46,1064.17 1502.98,1069.34 1503.49,1069.35 1504.01,1290.73 1504.53,1290.66 1505.05,979.469 1505.57,979.765 1506.09,1149.56 1506.6,1149.53 1507.12,1164.24 1507.64,1164.34 1508.16,1083.13 1508.68,1083.16 1509.19,1009.58 1509.71,1009.78 1510.23,807.788 1510.75,808.116 1511.27,1067.06 1511.79,1067.08 1512.3,832.6 1512.82,832.847 1513.34,1061.41 1513.86,1061.5 1514.38,937.118 1514.89,937.318 1515.41,528.913 1515.93,529.423 1516.45,443.302 1516.97,443.689 1517.48,928.259 1518,928.506 1518.52,955.047 1519.04,955.14 1519.56,1087.04 1520.08,1087.08 1520.59,881.411 1521.11,881.63 1521.63,1006.71 1522.15,1006.75 1522.67,663.44 1523.18,663.605 1523.7,483.954 1524.22,484.898 1524.74,1049.74 1525.26,1049.95 1525.78,1041.13 1526.29,1041.12 1526.81,1010.36 1527.33,1010.43 1527.85,815.131 1528.37,815.27 1528.88,1043.11 1529.4,1043.09 1529.92,1000.29 1530.44,1000.37 1530.96,975.192 1531.48,975.39 1531.99,951.941 1532.51,952.078 1533.03,706.042 1533.55,706.164 1534.07,1068.5 1534.58,1068.53 1535.1,934.963 1535.62,935.032 1536.14,1091 1536.66,1091.13 1537.17,972.314 1537.69,972.44 1538.21,671.054 1538.73,671.354 1539.25,1220.38 1539.77,1220.33 1540.28,811.445 1540.8,811.596 1541.32,1070.87 1541.84,1070.89 1542.36,935.24 1542.87,935.25 1543.39,533.49 1543.91,533.849 1544.43,948.223 1544.95,948.229 1545.47,700.985 1545.98,701.605 1546.5,913.13 1547.02,913.175 1547.54,764.004 1548.06,764.198 1548.57,902.181 1549.09,902.363 1549.61,771.907 1550.13,772.104 1550.65,939.366 1551.17,939.514 1551.68,801.52 1552.2,801.755 1552.72,1025.63 1553.24,1025.59 1553.76,1026.98 1554.27,1026.96 1554.79,1332.11 1555.31,1332.12 1555.83,902.751 1556.35,903.226 1556.86,1111.03 1557.38,1111.26 1557.9,646.982 1558.42,647.274 1558.94,1205.93 1559.46,1206.01 1559.97,961.938 1560.49,962.003 1561.01,1039.78 1561.53,1040.01 1562.05,495.115 1562.56,495.434 1563.08,594.686 1563.6,594.907 1564.12,652.013 1564.64,652.362 1565.16,781.506 1565.67,781.733 1566.19,555.17 1566.71,555.479 1567.23,573.926 1567.75,574.321 1568.26,1113.97 1568.78,1113.95 1569.3,939.669 1569.82,939.839 1570.34,531.701 1570.86,531.826 1571.37,1138.29 1571.89,1138.3 1572.41,1141.72 1572.93,1141.68 1573.45,1043.33 1573.96,1043.38 1574.48,669.984 1575,670.284 1575.52,1059.29 1576.04,1059.34 1576.55,1078 1577.07,1078.39 1577.59,756.023 1578.11,756.235 1578.63,878.437 1579.15,878.708 1579.66,955.263 1580.18,955.376 1580.7,467.688 1581.22,467.978 1581.74,952.621 1582.25,952.668 1582.77,692.626 1583.29,693.119 1583.81,915.428 1584.33,915.911 1584.85,1325.93 1585.36,1325.86 1585.88,988.312 1586.4,988.382 1586.92,867.982 1587.44,868.01 1587.95,796.322 1588.47,796.523 1588.99,1081.25 1589.51,1081.4 1590.03,817.368 1590.55,817.592 1591.06,1045.45 1591.58,1045.45 1592.1,1091.12 1592.62,1091.12 1593.14,1159.22 1593.65,1159.26 1594.17,1241.2 1594.69,1241.26 1595.21,718.905 1595.73,719.344 1596.24,796.965 1596.76,797.102 1597.28,723.692 1597.8,723.919 1598.32,1029.51 1598.84,1029.57 1599.35,902.458 1599.87,902.492 1600.39,1088.86 1600.91,1088.98 1601.43,775.02 1601.94,775.411 1602.46,980.897 1602.98,980.987 1603.5,947.32 1604.02,947.499 1604.54,945.729 1605.05,945.899 1605.57,886.931 1606.09,887.088 1606.61,846.724 1607.13,846.923 1607.64,1018.62 1608.16,1018.62 1608.68,982.303 1609.2,982.345 1609.72,841.885 1610.24,841.915 1610.75,759.5 1611.27,759.751 1611.79,1081.17 1612.31,1081.16 1612.83,1096.06 1613.34,1096.05 1613.86,848.977 1614.38,849.066 1614.9,1067.35 1615.42,1067.47 1615.93,1423.81 1616.45,1423.72 1616.97,836.045 1617.49,836.254 1618.01,817.683 1618.53,817.944 1619.04,746.784 1619.56,747.28 1620.08,938.299 1620.6,938.338 1621.12,566.875 1621.63,567.426 1622.15,986.294 1622.67,986.529 1623.19,687.358 1623.71,687.539 1624.23,875.148 1624.74,875.38 1625.26,989.656 1625.78,989.827 1626.3,1363.68 1626.82,1363.67 1627.33,736.779 1627.85,737.006 1628.37,659.81 1628.89,660.085 1629.41,436.519 1629.93,437.344 1630.44,1089.9 1630.96,1089.97 1631.48,995.71 1632,996.477 1632.52,1113.48 1633.03,1113.5 1633.55,1001.12 1634.07,1001.16 1634.59,969.908 1635.11,969.962 1635.62,889.033 1636.14,889.051 1636.66,956.969 1637.18,957.033 1637.7,1046.36 1638.22,1046.35 1638.73,615.274 1639.25,615.706 1639.77,713.54 1640.29,713.732 1640.81,861.954 1641.32,862.114 1641.84,879.553 1642.36,879.612 1642.88,1160.33 1643.4,1160.34 1643.92,813.882 1644.43,814.013 1644.95,921.655 1645.47,921.885 1645.99,1090.26 1646.51,1090.28 1647.02,1036.07 1647.54,1036.07 1648.06,1012.1 1648.58,1012.2 1649.1,894.857 1649.62,894.968 1650.13,901.535 1650.65,901.676 1651.17,820.183 1651.69,820.307 1652.21,1125.26 1652.72,1125.2 1653.24,1089.26 1653.76,1089.22 1654.28,505.468 1654.8,505.772 1655.31,675.58 1655.83,675.793 1656.35,1106.49 1656.87,1106.6 1657.39,845.093 1657.91,845.5 1658.42,802.215 1658.94,802.393 1659.46,1145.9 1659.98,1145.97 1660.5,844.577 1661.01,844.892 1661.53,1234.93 1662.05,1234.92 1662.57,672.566 1663.09,672.868 1663.61,1011.37 1664.12,1011.46 1664.64,1047.77 1665.16,1047.81 1665.68,938.387 1666.2,938.409 1666.71,768.721 1667.23,768.914 1667.75,953.84 1668.27,953.917 1668.79,1064.07 1669.31,1064.24 1669.82,919.096 1670.34,919.192 1670.86,1121.69 1671.38,1121.69 1671.9,1223.2 1672.41,1223.15 1672.93,1141.11 1673.45,1141.11 1673.97,811.975 1674.49,812.15 1675,808.601 1675.52,808.691 1676.04,981.452 1676.56,981.536 1677.08,932.576 1677.6,932.822 1678.11,683.962 1678.63,684.43 1679.15,1109.4 1679.67,1109.4 1680.19,1011.46 1680.7,1011.46 1681.22,1228.64 1681.74,1228.65 1682.26,732.399 1682.78,732.886 1683.3,927.28 1683.81,927.491 1684.33,1205.56 1684.85,1205.54 1685.37,1135.52 1685.89,1135.55 1686.4,658.778 1686.92,658.944 1687.44,1031.72 1687.96,1031.88 1688.48,750.218 1689,750.504 1689.51,923.151 1690.03,923.18 1690.55,977.753 1691.07,977.989 1691.59,1053.63 1692.1,1053.61 1692.62,905.386 1693.14,905.645 1693.66,754.719 1694.18,754.887 1694.69,738.445 1695.21,738.545 1695.73,958.96 1696.25,959.077 1696.77,635.804 1697.29,636.055 1697.8,636.924 1698.32,637.335 1698.84,1149.18 1699.36,1149.22 1699.88,748.283 1700.39,748.829 1700.91,919.565 1701.43,919.903 1701.95,583.245 1702.47,583.542 1702.99,826.648 1703.5,826.961 1704.02,786.053 1704.54,786.114 1705.06,849.22 1705.58,849.42 1706.09,914.784 1706.61,914.979 1707.13,978.365 1707.65,978.39 1708.17,694.182 1708.69,694.587 1709.2,522.15 1709.72,522.565 1710.24,588.171 1710.76,588.708 1711.28,1175.66 1711.79,1175.65 1712.31,767.919 1712.83,768.305 1713.35,1039.79 1713.87,1039.82 1714.38,987.995 1714.9,987.978 1715.42,861.084 1715.94,861.221 1716.46,571.481 1716.98,571.838 1717.49,1140.52 1718.01,1140.52 1718.53,847.864 1719.05,848.026 1719.57,835.263 1720.08,835.322 1720.6,1183.29 1721.12,1183.26 1721.64,1041.91 1722.16,1041.93 1722.68,777.946 1723.19,778.159 1723.71,1241.06 1724.23,1241.08 1724.75,657.694 1725.27,658.072 1725.78,903.669 1726.3,903.791 1726.82,861.915 1727.34,862.113 1727.86,1163.3 1728.38,1163.26 1728.89,1088.28 1729.41,1088.26 1729.93,1035.77 1730.45,1036.04 1730.97,979.846 1731.48,980.143 1732,1041.65 1732.52,1041.66 1733.04,666.953 1733.56,667.19 1734.07,946.349 1734.59,946.41 1735.11,909.446 1735.63,909.581 1736.15,1038.89 1736.67,1038.95 1737.18,861.387 1737.7,861.404 1738.22,987.018 1738.74,986.999 1739.26,506.16 1739.77,506.486 1740.29,943.888 1740.81,944.025 1741.33,920.401 1741.85,920.554 1742.37,1111 1742.88,1111.05 1743.4,835.855 1743.92,836.111 1744.44,853.561 1744.96,853.88 1745.47,760.412 1745.99,760.49 1746.51,1002.31 1747.03,1002.31 1747.55,888.539 1748.07,888.698 1748.58,1095.8 1749.1,1095.91 1749.62,927.345 1750.14,927.562 1750.66,848.613 1751.17,848.944 1751.69,1213.48 1752.21,1213.54 1752.73,887.134 1753.25,887.276 1753.76,940.355 1754.28,940.409 1754.8,902.357 1755.32,902.448 1755.84,1075.3 1756.36,1075.48 1756.87,1204.54 1757.39,1204.53 1757.91,926.025 1758.43,926.004 1758.95,1156.04 1759.46,1156.1 1759.98,1037.36 1760.5,1037.36 1761.02,1182.86 1761.54,1182.88 1762.06,1160.61 1762.57,1160.58 1763.09,1122.97 1763.61,1122.96 1764.13,780.976 1764.65,781.037 1765.16,903.841 1765.68,903.952 1766.2,710.035 1766.72,710.271 1767.24,665.787 1767.76,666.064 1768.27,407.986 1768.79,408.47 1769.31,1056.26 1769.83,1056.48 1770.35,740.356 1770.86,740.729 1771.38,1099.83 1771.9,1100.02 1772.42,1059.02 1772.94,1059.21 1773.45,918.485 1773.97,918.966 1774.49,392.51 1775.01,392.829 1775.53,1063.97 1776.05,1064.04 1776.56,746.389 1777.08,746.729 1777.6,823.579 1778.12,824.093 1778.64,779.246 1779.15,779.4 1779.67,850.922 1780.19,851.172 1780.71,978.384 1781.23,978.368 1781.75,1144.82 1782.26,1144.82 1782.78,1005.96 1783.3,1006.02 1783.82,1010.05 1784.34,1010.14 1784.85,1160.8 1785.37,1160.76 1785.89,819.479 1786.41,819.725 1786.93,948.102 1787.45,948.122 1787.96,996.235 1788.48,996.338 1789,1092.4 1789.52,1092.49 1790.04,672.869 1790.55,673.305 1791.07,985.321 1791.59,985.505 1792.11,799.64 1792.63,800.068 1793.14,1105.72 1793.66,1105.73 1794.18,873.919 1794.7,873.979 1795.22,893.806 1795.74,893.923 1796.25,689.65 1796.77,690.07 1797.29,790.747 1797.81,790.885 1798.33,737.981 1798.84,738.477 1799.36,1082.08 1799.88,1082.08 1800.4,961.153 1800.92,961.178 1801.44,1106.26 1801.95,1106.26 1802.47,544.13 1802.99,544.421 1803.51,1133.36 1804.03,1133.43 1804.54,1101.6 1805.06,1101.57 1805.58,697.322 1806.1,697.465 1806.62,1193.22 1807.14,1193.24 1807.65,822.036 1808.17,822.185 1808.69,779.667 1809.21,779.914 1809.73,1204.67 1810.24,1204.77 1810.76,944.197 1811.28,944.411 1811.8,626.546 1812.32,626.899 1812.84,1133.93 1813.35,1133.9 1813.87,1246.83 1814.39,1246.92 1814.91,575.043 1815.43,575.652 1815.94,934.64 1816.46,934.637 1816.98,978.41 1817.5,978.533 1818.02,1024.52 1818.53,1024.62 1819.05,948.72 1819.57,949.143 1820.09,883.923 1820.61,884.013 1821.13,590.944 1821.64,591.129 1822.16,970.328 1822.68,970.354 1823.2,869.703 1823.72,869.957 1824.23,971.542 1824.75,971.563 1825.27,752.628 1825.79,752.883 1826.31,1079.34 1826.83,1079.47 1827.34,788.358 1827.86,788.851 1828.38,956.916 1828.9,957.021 1829.42,1105.27 1829.93,1105.28 1830.45,1382.23 1830.97,1382.29 1831.49,896.505 1832.01,896.754 1832.53,605.541 1833.04,605.784 1833.56,832.085 1834.08,832.158 1834.6,490.19 1835.12,490.553 1835.63,863.622 1836.15,863.765 1836.67,1053.16 1837.19,1053.19 1837.71,747.873 1838.22,748.126 1838.74,786.316 1839.26,786.711 1839.78,1118.09 1840.3,1118.11 1840.82,1307.88 1841.33,1307.83 1841.85,831.811 1842.37,831.887 1842.89,829.101 1843.41,829.424 1843.92,1060.66 1844.44,1060.69 1844.96,962.019 1845.48,962.304 1846,1179.78 1846.52,1179.8 1847.03,896.518 1847.55,896.576 1848.07,1073.84 1848.59,1073.9 1849.11,881.077 1849.62,881.142 1850.14,886.986 1850.66,887.182 1851.18,1021.98 1851.7,1022.03 1852.22,902.261 1852.73,902.423 1853.25,442.863 1853.77,443.183 1854.29,587.051 1854.81,587.526 1855.32,827.247 1855.84,827.579 1856.36,1028.06 1856.88,1028.07 1857.4,968.766 1857.91,968.848 1858.43,1113.39 1858.95,1113.39 1859.47,980.37 1859.99,980.542 1860.51,947.526 1861.02,947.676 1861.54,1155.16 1862.06,1155.26 1862.58,886.37 1863.1,886.451 1863.61,567.627 1864.13,567.984 1864.65,1019.4 1865.17,1019.46 1865.69,429.856 1866.21,430.305 1866.72,1033.01 1867.24,1033.02 1867.76,725.267 1868.28,725.339 1868.8,927.644 1869.31,927.722 1869.83,1149.27 1870.35,1149.26 1870.87,616.387 1871.39,616.732 1871.91,555.412 1872.42,555.681 1872.94,1131.39 1873.46,1131.48 1873.98,862.645 1874.5,862.871 1875.01,758.718 1875.53,758.937 1876.05,686.279 1876.57,686.528 1877.09,623.368 1877.6,623.642 1878.12,848.839 1878.64,848.944 1879.16,819.378 1879.68,819.493 1880.2,913.206 1880.71,913.303 1881.23,1120.88 1881.75,1120.84 1882.27,1086.78 1882.79,1086.8 1883.3,577.688 1883.82,577.969 1884.34,1312.03 1884.86,1311.97 1885.38,954.184 1885.9,954.294 1886.41,506.202 1886.93,506.537 1887.45,885.601 1887.97,885.748 1888.49,844.827 1889,844.879 1889.52,1054.26 1890.04,1054.3 1890.56,919.318 1891.08,919.453 1891.6,480.877 1892.11,481.063 1892.63,1112.37 1893.15,1112.37 1893.67,1012.93 1894.19,1013.09 1894.7,963.161 1895.22,963.528 1895.74,1135.72 1896.26,1135.73 1896.78,835.844 1897.29,835.964 1897.81,1004.68 1898.33,1004.69 1898.85,713.697 1899.37,713.774 1899.89,866.296 1900.4,866.501 1900.92,487.877 1901.44,488.133 1901.96,861.712 1902.48,862.033 1902.99,793.596 1903.51,793.731 1904.03,983.609 1904.55,983.713 1905.07,1223.47 1905.59,1223.84 1906.1,1159.29 1906.62,1159.3 1907.14,861.415 1907.66,861.446 1908.18,1012.57 1908.69,1012.64 1909.21,1334.77 1909.73,1334.83 1910.25,1131.25 1910.77,1131.3 1911.29,582.426 1911.8,582.822 1912.32,619.334 1912.84,619.766 1913.36,612.566 1913.88,612.808 1914.39,791.451 1914.91,791.587 1915.43,1050.39 1915.95,1050.41 1916.47,1115.84 1916.98,1115.86 1917.5,865.703 1918.02,865.926 1918.54,1005.35 1919.06,1005.46 1919.58,521.915 1920.09,522.598 1920.61,893.09 1921.13,893.206 1921.65,718.448 1922.17,718.512 1922.68,1046.92 1923.2,1046.92 1923.72,866.533 1924.24,866.728 1924.76,1063.07 1925.28,1063.18 1925.79,1012.99 1926.31,1013.01 1926.83,918.859 1927.35,918.976 1927.87,865.977 1928.38,866.371 1928.9,830.178 1929.42,830.209 1929.94,1193.4 1930.46,1193.34 1930.98,1006.81 1931.49,1007.06 1932.01,644.295 1932.53,644.592 1933.05,872.738 1933.57,872.881 1934.08,921.37 1934.6,921.479 1935.12,1109.3 1935.64,1109.29 1936.16,1073.89 1936.67,1073.91 1937.19,1010.88 1937.71,1010.99 1938.23,1116.75 1938.75,1116.79 1939.27,1201.74 1939.78,1201.8 1940.3,467.259 1940.82,467.573 1941.34,838.285 1941.86,838.48 1942.37,1054.52 1942.89,1054.58 1943.41,1092.18 1943.93,1092.29 1944.45,964.318 1944.97,964.44 1945.48,883.111 1946,883.494 1946.52,1087.49 1947.04,1087.65 1947.56,960.989 1948.07,961.049 1948.59,680.788 1949.11,681.157 1949.63,825.005 1950.15,825.067 1950.67,1055.36 1951.18,1055.4 1951.7,1109.06 1952.22,1109.15 1952.74,725.801 1953.26,726.107 1953.77,912.463 1954.29,912.552 1954.81,906.92 1955.33,907.242 1955.85,768.832 1956.36,769.157 1956.88,893.135 1957.4,893.283 1957.92,1082.06 1958.44,1082.09 1958.96,1078.59 1959.47,1078.63 1959.99,418.471 1960.51,419.139 1961.03,928.488 1961.55,928.574 1962.06,972.671 1962.58,972.84 1963.1,937.252 1963.62,937.258 1964.14,717.687 1964.66,718.212 1965.17,999.496 1965.69,999.592 1966.21,956.962 1966.73,957.021 1967.25,824.013 1967.76,824.134 1968.28,693.519 1968.8,693.761 1969.32,856.139 1969.84,856.245 1970.36,643.666 1970.87,643.797 1971.39,936.498 1971.91,936.569 1972.43,1074.8 1972.95,1074.87 1973.46,644.438 1973.98,644.546 1974.5,1187.73 1975.02,1187.69 1975.54,869.593 1976.05,869.706 1976.57,994.361 1977.09,994.349 1977.61,1220.02 1978.13,1220.05 1978.65,742.601 1979.16,742.887 1979.68,896.318 1980.2,896.687 1980.72,871.523 1981.24,871.607 1981.75,845.823 1982.27,845.85 1982.79,1069.44 1983.31,1069.49 1983.83,556.893 1984.35,557.304 1984.86,750.236 1985.38,750.352 1985.9,988.654 1986.42,988.64 1986.94,966.297 1987.45,966.435 1987.97,703.671 1988.49,703.811 1989.01,811.167 1989.53,811.5 1990.05,531.631 1990.56,531.929 1991.08,579.464 1991.6,579.879 1992.12,736.427 1992.64,736.7 1993.15,655.872 1993.67,656.076 1994.19,728.336 1994.71,728.658 1995.23,1068.48 1995.74,1068.45 1996.26,840.558 1996.78,840.778 1997.3,1008.96 1997.82,1009.16 1998.34,883.608 1998.85,883.713 1999.37,823.258 1999.89,823.375 2000.41,824.689 2000.93,824.804 2001.44,812.964 2001.96,813 2002.48,1110.87 2003,1110.89 2003.52,1157.94 2004.04,1157.91 2004.55,575.181 2005.07,575.629 2005.59,455.541 2006.11,455.773 2006.63,667.088 2007.14,667.369 2007.66,811.963 2008.18,812.165 2008.7,982.228 2009.22,982.271 2009.74,553.853 2010.25,554.015 2010.77,1025.52 2011.29,1025.62 2011.81,1019.92 2012.33,1019.94 2012.84,809.536 2013.36,809.762 2013.88,951.828 2014.4,951.917 2014.92,1078.69 2015.43,1078.73 2015.95,1049.32 2016.47,1049.37 2016.99,1062.54 2017.51,1062.51 2018.03,575.267 2018.54,575.439 2019.06,927.517 2019.58,927.541 2020.1,844.067 2020.62,844.194 2021.13,754.886 2021.65,754.998 2022.17,526.434 2022.69,526.872 2023.21,1093.64 2023.73,1093.63 2024.24,788.229 2024.76,788.279 2025.28,802.724 2025.8,802.773 2026.32,938.29 2026.83,938.347 2027.35,983.544 2027.87,983.593 2028.39,1046.08 2028.91,1046.06 2029.43,929.54 2029.94,929.741 2030.46,885.58 2030.98,885.672 2031.5,1112.98 2032.02,1113 2032.53,947.194 2033.05,947.286 2033.57,882.615 2034.09,883.271 2034.61,271.675 2035.12,271.92 2035.64,1117.41 2036.16,1117.48 2036.68,382.002 2037.2,382.545 2037.72,906.142 2038.23,906.174 2038.75,734.768 2039.27,734.932 2039.79,722.063 2040.31,722.164 2040.82,611.488 2041.34,611.622 2041.86,374.435 2042.38,374.85 2042.9,922.999 2043.42,923.108 2043.93,948.848 2044.45,948.847 2044.97,1113.57 2045.49,1113.56 2046.01,1052.06 2046.52,1052.13 2047.04,1058.63 2047.56,1058.78 2048.08,878.713 2048.6,879.065 2049.12,873.121 2049.63,873.201 2050.15,984.291 2050.67,984.414 2051.19,1074.71 2051.71,1074.7 2052.22,1122.52 2052.74,1122.61 2053.26,858.701 2053.78,858.839 2054.3,983.783 2054.81,983.989 2055.33,1142.81 2055.85,1142.95 2056.37,1165.17 2056.89,1165.17 2057.41,964.675 2057.92,964.981 2058.44,929.708 2058.96,929.788 2059.48,926.458 2060,926.788 2060.51,725.12 2061.03,725.352 2061.55,961.624 2062.07,961.762 2062.59,872.502 2063.11,872.72 2063.62,1268.67 2064.14,1268.73 2064.66,817.839 2065.18,818.067 2065.7,1092.62 2066.21,1092.6 2066.73,630.508 2067.25,630.818 2067.77,1241.32 2068.29,1241.28 2068.81,580.266 2069.32,580.566 2069.84,856.117 2070.36,856.184 2070.88,1248.03 2071.4,1248.11 2071.91,1127.98 2072.43,1127.96 2072.95,885.404 2073.47,885.664 2073.99,837.225 2074.5,837.34 2075.02,937.777 2075.54,937.971 2076.06,892.489 2076.58,892.547 2077.1,401.409 2077.61,401.676 2078.13,767.49 2078.65,767.711 2079.17,910.603 2079.69,910.725 2080.2,1280.39 2080.72,1280.43 2081.24,888.242 2081.76,888.432 2082.28,649.46 2082.8,649.681 2083.31,846.545 2083.83,846.737 2084.35,994.131 2084.87,994.148 2085.39,843.037 2085.9,843.425 2086.42,1052.15 2086.94,1052.38 2087.46,904.747 2087.98,904.865 2088.5,1234.79 2089.01,1234.73 2089.53,952.833 2090.05,953.023 2090.57,824.855 2091.09,824.951 2091.6,859.75 2092.12,860.006 2092.64,784.066 2093.16,784.261 2093.68,844.37 2094.19,844.586 2094.71,400.067 2095.23,400.518 2095.75,972.435 2096.27,972.437 2096.79,725.154 2097.3,725.344 2097.82,809.888 2098.34,809.953 2098.86,1053.1 2099.38,1053.17 2099.89,789.758 2100.41,789.951 2100.93,1131.86 2101.45,1131.88 2101.97,1154.95 2102.49,1154.92 2103,709.556 2103.52,709.726 2104.04,967.937 2104.56,967.945 2105.08,1027.69 2105.59,1027.81 2106.11,748.71 2106.63,749.057 2107.15,634.309 2107.67,634.486 2108.19,1141.22 2108.7,1141.2 2109.22,941.931 2109.74,942.013 2110.26,907.075 2110.78,907.107 2111.29,775.73 2111.81,775.999 2112.33,806.373 2112.85,806.411 2113.37,1043.5 2113.88,1043.5 2114.4,919.447 2114.92,919.525 2115.44,851.121 2115.96,851.206 2116.48,676.599 2116.99,676.916 2117.51,811.867 2118.03,812.017 2118.55,866.811 2119.07,866.876 2119.58,1126.21 2120.1,1126.24 2120.62,1104.3 2121.14,1104.3 2121.66,1229.95 2122.18,1229.9 2122.69,773.848 2123.21,774.083 2123.73,1119.17 2124.25,1119.35 2124.77,908.601 2125.28,908.609 2125.8,706.535 2126.32,706.919 2126.84,800.26 2127.36,800.526 2127.88,1035.28 2128.39,1035.38 2128.91,997.451 2129.43,997.585 2129.95,1019.21 2130.47,1019.29 2130.98,1103.82 2131.5,1103.88 2132.02,1055.27 2132.54,1055.32 2133.06,1090.21 2133.57,1090.39 2134.09,1050.13 2134.61,1050.2 2135.13,1108.09 2135.65,1108.1 2136.17,579.2 2136.68,579.4 2137.2,1075.92 2137.72,1075.98 2138.24,996.008 2138.76,996.092 2139.27,866 2139.79,866.059 2140.31,1099.17 2140.83,1099.21 2141.35,671.77 2141.87,671.999 2142.38,861.651 2142.9,861.867 2143.42,750.032 2143.94,750.319 2144.46,800.162 2144.97,800.459 2145.49,1093.05 2146.01,1093.48 2146.53,1115.18 2147.05,1115.16 2147.57,974.849 2148.08,975.052 2148.6,825.834 2149.12,826.143 2149.64,397.549 2150.16,398.602 2150.67,752.976 2151.19,753.285 2151.71,733.336 2152.23,733.497 2152.75,804.832 2153.26,805.231 2153.78,982.966 2154.3,983.047 2154.82,1156.63 2155.34,1156.58 2155.86,916.101 2156.37,916.191 2156.89,883.133 2157.41,883.368 2157.93,937.14 2158.45,937.302 2158.96,789.542 2159.48,789.592 2160,498.004 2160.52,498.479 2161.04,1131.01 2161.56,1131.04 2162.07,707.372 2162.59,707.425 2163.11,1071.65 2163.63,1071.64 2164.15,579.924 2164.66,580.253 2165.18,1194.62 2165.7,1194.59 2166.22,934.891 2166.74,935.03 2167.26,895.613 2167.77,895.694 2168.29,842.11 2168.81,842.437 2169.33,952.707 2169.85,952.797 2170.36,911.04 2170.88,911.177 2171.4,954.94 2171.92,955.059 2172.44,991.519 2172.95,991.587 2173.47,1027.88 2173.99,1028.02 2174.51,908.899 2175.03,909.082 2175.55,965.913 2176.06,965.954 2176.58,761.153 2177.1,761.251 2177.62,862.847 2178.14,863.119 2178.65,1059.54 2179.17,1059.56 2179.69,906.229 2180.21,906.308 2180.73,1271.36 2181.25,1271.45 2181.76,772.7 2182.28,772.84 2182.8,1008.33 2183.32,1008.34 2183.84,731.068 2184.35,731.143 2184.87,895.887 2185.39,896.006 2185.91,978.125 2186.43,978.3 2186.95,752.226 2187.46,752.352 2187.98,1009.32 2188.5,1009.43 2189.02,875.416 2189.54,875.61 2190.05,563.52 2190.57,563.709 2191.09,799.708 2191.61,800.017 2192.13,898.44 2192.65,898.487 2193.16,800.304 2193.68,800.463 2194.2,1113.4 2194.72,1113.5 2195.24,1236.58 2195.75,1236.55 2196.27,858.278 2196.79,858.378 2197.31,902.56 2197.83,902.923 2198.34,654.711 2198.86,654.807 2199.38,984.074 2199.9,984.187 2200.42,815.802 2200.94,815.974 2201.45,840.627 2201.97,840.77 2202.49,972.314 2203.01,972.519 2203.53,1033.32 2204.04,1033.32 2204.56,838.761 2205.08,838.853 2205.6,1019.88 2206.12,1019.97 2206.64,835.894 2207.15,836.01 2207.67,793.315 2208.19,793.602 2208.71,790.435 2209.23,790.91 2209.74,996.711 2210.26,996.822 2210.78,918.669 2211.3,918.829 2211.82,978.681 2212.34,978.751 2212.85,915.076 2213.37,915.209 2213.89,572.313 2214.41,572.471 2214.93,759.851 2215.44,759.988 2215.96,869.967 2216.48,870.162 2217,1268.28 2217.52,1268.41 2218.03,543.691 2218.55,544.042 2219.07,1125.33 2219.59,1125.56 2220.11,897.754 2220.63,897.782 2221.14,833.758 2221.66,833.994 2222.18,944.595 2222.7,944.719 2223.22,711.956 2223.73,712.222 2224.25,948.395 2224.77,948.403 2225.29,1006.34 2225.81,1006.6 2226.33,1179.25 2226.84,1179.37 2227.36,1184.81 2227.88,1184.92 2228.4,864.777 2228.92,865.031 2229.43,654.681 2229.95,654.777 2230.47,1092.26 2230.99,1092.31 2231.51,1148.74 2232.03,1148.75 2232.54,927.232 2233.06,927.49 2233.58,948.231 2234.1,948.326 2234.62,920.256 2235.13,920.349 2235.65,853.222 2236.17,853.357 2236.69,604.93 2237.21,605.512 2237.72,1118.36 2238.24,1118.43 2238.76,885.054 2239.28,885.622 2239.8,1056.1 2240.32,1056.2 2240.83,816.356 2241.35,816.408 2241.87,846.257 2242.39,846.445 2242.91,925.786 2243.42,925.896 2243.94,1071.46 2244.46,1071.45 2244.98,1164.08 2245.5,1164.17 2246.02,902.925 2246.53,902.982 2247.05,1191.69 2247.57,1191.71 2248.09,1101.15 2248.61,1101.24 2249.12,1116.05 2249.64,1116.09 2250.16,881.464 2250.68,881.704 2251.2,965.492 2251.72,965.636 2252.23,741.953 2252.75,742.137 2253.27,851.472 2253.79,851.753 2254.31,988.905 2254.82,989.085 2255.34,935.168 2255.86,935.269 2256.38,907.025 2256.9,907.136 2257.41,836.467 2257.93,836.707 2258.45,1030.38 2258.97,1030.48 2259.49,1033.65 2260.01,1033.76 2260.52,1121.35 2261.04,1121.31 2261.56,1233.31 2262.08,1233.46 2262.6,940.533 2263.11,940.645 2263.63,973.014 2264.15,973.122 2264.67,866.536 2265.19,866.708 2265.71,826.297 2266.22,826.582 2266.74,967.429 2267.26,967.524 2267.78,785.416 2268.3,785.687 2268.81,851.464 2269.33,851.641 2269.85,1139.03 2270.37,1139.07 2270.89,621.8 2271.41,621.997 2271.92,612.865 2272.44,613.114 2272.96,1130.41 2273.48,1130.43 2274,642.187 2274.51,642.516 2275.03,675.856 2275.55,676.135 2276.07,933.225 2276.59,933.23 2277.1,1079.57 2277.62,1079.52 2278.14,985.795 2278.66,986.013 2279.18,941.773 2279.7,941.879 2280.21,912.567 2280.73,912.733 2281.25,750.777 2281.77,751.238 2282.29,1200.85 2282.8,1200.92 2283.32,992.882 2283.84,992.915 2284.36,749.515 2284.88,749.671 2285.4,521.304 2285.91,521.473 2286.43,820.197 2286.95,820.434 2287.47,844.112 2287.99,844.218 2288.5,642.6 2289.02,642.749 2289.54,1152.07 2290.06,1152.02 2290.58,1151.98 "/>
<path clip-path="url(#clip430)" d="M228.998 198.898 L501.127 198.898 L501.127 95.2176 L228.998 95.2176  Z" fill="#ffffff" fill-rule="evenodd" fill-opacity="1"/>
<polyline clip-path="url(#clip430)" style="stroke:#000000; stroke-linecap:round; stroke-linejoin:round; stroke-width:4; stroke-opacity:1; fill:none" points="228.998,198.898 501.127,198.898 501.127,95.2176 228.998,95.2176 228.998,198.898 "/>
<polyline clip-path="url(#clip430)" style="stroke:#009af9; stroke-linecap:round; stroke-linejoin:round; stroke-width:4; stroke-opacity:1; fill:none" points="253.409,147.058 399.875,147.058 "/>
<path clip-path="url(#clip430)" d="M438.129 166.745 Q436.323 171.375 434.61 172.787 Q432.897 174.199 430.027 174.199 L426.624 174.199 L426.624 170.634 L429.124 170.634 Q430.883 170.634 431.855 169.8 Q432.828 168.967 434.008 165.865 L434.772 163.921 L424.286 138.412 L428.8 138.412 L436.902 158.689 L445.004 138.412 L449.517 138.412 L438.129 166.745 Z" fill="#000000" fill-rule="nonzero" fill-opacity="1" /><path clip-path="url(#clip430)" d="M456.809 160.402 L464.448 160.402 L464.448 134.037 L456.138 135.703 L456.138 131.444 L464.402 129.778 L469.077 129.778 L469.077 160.402 L476.716 160.402 L476.716 164.338 L456.809 164.338 L456.809 160.402 Z" fill="#000000" fill-rule="nonzero" fill-opacity="1" /></svg>
