<?xml version="1.0" encoding="utf-8"?>
<svg xmlns="http://www.w3.org/2000/svg" xmlns:xlink="http://www.w3.org/1999/xlink" width="600" height="400" viewBox="0 0 2400 1600">
<defs>
  <clipPath id="clip430">
    <rect x="0" y="0" width="2400" height="1600"/>
  </clipPath>
</defs>
<path clip-path="url(#clip430)" d="M0 1600 L2400 1600 L2400 0 L0 0  Z" fill="#ffffff" fill-rule="evenodd" fill-opacity="1"/>
<defs>
  <clipPath id="clip431">
    <rect x="480" y="0" width="1681" height="1600"/>
  </clipPath>
</defs>
<path clip-path="url(#clip430)" d="M209.029 1486.45 L2352.76 1486.45 L2352.76 47.2441 L209.029 47.2441  Z" fill="#ffffff" fill-rule="evenodd" fill-opacity="1"/>
<defs>
  <clipPath id="clip432">
    <rect x="209" y="47" width="2145" height="1440"/>
  </clipPath>
</defs>
<polyline clip-path="url(#clip432)" style="stroke:#000000; stroke-linecap:round; stroke-linejoin:round; stroke-width:2; stroke-opacity:0.1; fill:none" points="269.7,1486.45 269.7,47.2441 "/>
<polyline clip-path="url(#clip432)" style="stroke:#000000; stroke-linecap:round; stroke-linejoin:round; stroke-width:2; stroke-opacity:0.1; fill:none" points="775.549,1486.45 775.549,47.2441 "/>
<polyline clip-path="url(#clip432)" style="stroke:#000000; stroke-linecap:round; stroke-linejoin:round; stroke-width:2; stroke-opacity:0.1; fill:none" points="1281.4,1486.45 1281.4,47.2441 "/>
<polyline clip-path="url(#clip432)" style="stroke:#000000; stroke-linecap:round; stroke-linejoin:round; stroke-width:2; stroke-opacity:0.1; fill:none" points="1787.25,1486.45 1787.25,47.2441 "/>
<polyline clip-path="url(#clip432)" style="stroke:#000000; stroke-linecap:round; stroke-linejoin:round; stroke-width:2; stroke-opacity:0.1; fill:none" points="2293.1,1486.45 2293.1,47.2441 "/>
<polyline clip-path="url(#clip430)" style="stroke:#000000; stroke-linecap:round; stroke-linejoin:round; stroke-width:4; stroke-opacity:1; fill:none" points="209.029,1486.45 2352.76,1486.45 "/>
<polyline clip-path="url(#clip430)" style="stroke:#000000; stroke-linecap:round; stroke-linejoin:round; stroke-width:4; stroke-opacity:1; fill:none" points="269.7,1486.45 269.7,1467.55 "/>
<polyline clip-path="url(#clip430)" style="stroke:#000000; stroke-linecap:round; stroke-linejoin:round; stroke-width:4; stroke-opacity:1; fill:none" points="775.549,1486.45 775.549,1467.55 "/>
<polyline clip-path="url(#clip430)" style="stroke:#000000; stroke-linecap:round; stroke-linejoin:round; stroke-width:4; stroke-opacity:1; fill:none" points="1281.4,1486.45 1281.4,1467.55 "/>
<polyline clip-path="url(#clip430)" style="stroke:#000000; stroke-linecap:round; stroke-linejoin:round; stroke-width:4; stroke-opacity:1; fill:none" points="1787.25,1486.45 1787.25,1467.55 "/>
<polyline clip-path="url(#clip430)" style="stroke:#000000; stroke-linecap:round; stroke-linejoin:round; stroke-width:4; stroke-opacity:1; fill:none" points="2293.1,1486.45 2293.1,1467.55 "/>
<path clip-path="url(#clip430)" d="M269.7 1517.37 Q266.089 1517.37 264.26 1520.93 Q262.455 1524.47 262.455 1531.6 Q262.455 1538.71 264.26 1542.27 Q266.089 1545.82 269.7 1545.82 Q273.334 1545.82 275.14 1542.27 Q276.969 1538.71 276.969 1531.6 Q276.969 1524.47 275.14 1520.93 Q273.334 1517.37 269.7 1517.37 M269.7 1513.66 Q275.51 1513.66 278.566 1518.27 Q281.644 1522.85 281.644 1531.6 Q281.644 1540.33 278.566 1544.94 Q275.51 1549.52 269.7 1549.52 Q263.89 1549.52 260.811 1544.94 Q257.756 1540.33 257.756 1531.6 Q257.756 1522.85 260.811 1518.27 Q263.89 1513.66 269.7 1513.66 Z" fill="#000000" fill-rule="nonzero" fill-opacity="1" /><path clip-path="url(#clip430)" d="M735.167 1514.29 L753.524 1514.29 L753.524 1518.22 L739.45 1518.22 L739.45 1526.7 Q740.468 1526.35 741.487 1526.19 Q742.505 1526 743.524 1526 Q749.311 1526 752.69 1529.17 Q756.07 1532.34 756.07 1537.76 Q756.07 1543.34 752.598 1546.44 Q749.126 1549.52 742.806 1549.52 Q740.63 1549.52 738.362 1549.15 Q736.116 1548.78 733.709 1548.04 L733.709 1543.34 Q735.792 1544.47 738.015 1545.03 Q740.237 1545.58 742.714 1545.58 Q746.718 1545.58 749.056 1543.48 Q751.394 1541.37 751.394 1537.76 Q751.394 1534.15 749.056 1532.04 Q746.718 1529.94 742.714 1529.94 Q740.839 1529.94 738.964 1530.35 Q737.112 1530.77 735.167 1531.65 L735.167 1514.29 Z" fill="#000000" fill-rule="nonzero" fill-opacity="1" /><path clip-path="url(#clip430)" d="M775.283 1517.37 Q771.672 1517.37 769.843 1520.93 Q768.038 1524.47 768.038 1531.6 Q768.038 1538.71 769.843 1542.27 Q771.672 1545.82 775.283 1545.82 Q778.917 1545.82 780.723 1542.27 Q782.551 1538.71 782.551 1531.6 Q782.551 1524.47 780.723 1520.93 Q778.917 1517.37 775.283 1517.37 M775.283 1513.66 Q781.093 1513.66 784.149 1518.27 Q787.227 1522.85 787.227 1531.6 Q787.227 1540.33 784.149 1544.94 Q781.093 1549.52 775.283 1549.52 Q769.473 1549.52 766.394 1544.94 Q763.338 1540.33 763.338 1531.6 Q763.338 1522.85 766.394 1518.27 Q769.473 1513.66 775.283 1513.66 Z" fill="#000000" fill-rule="nonzero" fill-opacity="1" /><path clip-path="url(#clip430)" d="M805.445 1517.37 Q801.834 1517.37 800.005 1520.93 Q798.199 1524.47 798.199 1531.6 Q798.199 1538.71 800.005 1542.27 Q801.834 1545.82 805.445 1545.82 Q809.079 1545.82 810.885 1542.27 Q812.713 1538.71 812.713 1531.6 Q812.713 1524.47 810.885 1520.93 Q809.079 1517.37 805.445 1517.37 M805.445 1513.66 Q811.255 1513.66 814.31 1518.27 Q817.389 1522.85 817.389 1531.6 Q817.389 1540.33 814.31 1544.94 Q811.255 1549.52 805.445 1549.52 Q799.635 1549.52 796.556 1544.94 Q793.5 1540.33 793.5 1531.6 Q793.5 1522.85 796.556 1518.27 Q799.635 1513.66 805.445 1513.66 Z" fill="#000000" fill-rule="nonzero" fill-opacity="1" /><path clip-path="url(#clip430)" d="M1225.92 1544.91 L1233.56 1544.91 L1233.56 1518.55 L1225.25 1520.21 L1225.25 1515.95 L1233.52 1514.29 L1238.19 1514.29 L1238.19 1544.91 L1245.83 1544.91 L1245.83 1548.85 L1225.92 1548.85 L1225.92 1544.91 Z" fill="#000000" fill-rule="nonzero" fill-opacity="1" /><path clip-path="url(#clip430)" d="M1265.28 1517.37 Q1261.66 1517.37 1259.84 1520.93 Q1258.03 1524.47 1258.03 1531.6 Q1258.03 1538.71 1259.84 1542.27 Q1261.66 1545.82 1265.28 1545.82 Q1268.91 1545.82 1270.72 1542.27 Q1272.54 1538.71 1272.54 1531.6 Q1272.54 1524.47 1270.72 1520.93 Q1268.91 1517.37 1265.28 1517.37 M1265.28 1513.66 Q1271.09 1513.66 1274.14 1518.27 Q1277.22 1522.85 1277.22 1531.6 Q1277.22 1540.33 1274.14 1544.94 Q1271.09 1549.52 1265.28 1549.52 Q1259.47 1549.52 1256.39 1544.94 Q1253.33 1540.33 1253.33 1531.6 Q1253.33 1522.85 1256.39 1518.27 Q1259.47 1513.66 1265.28 1513.66 Z" fill="#000000" fill-rule="nonzero" fill-opacity="1" /><path clip-path="url(#clip430)" d="M1295.44 1517.37 Q1291.83 1517.37 1290 1520.93 Q1288.19 1524.47 1288.19 1531.6 Q1288.19 1538.71 1290 1542.27 Q1291.83 1545.82 1295.44 1545.82 Q1299.07 1545.82 1300.88 1542.27 Q1302.71 1538.71 1302.71 1531.6 Q1302.71 1524.47 1300.88 1520.93 Q1299.07 1517.37 1295.44 1517.37 M1295.44 1513.66 Q1301.25 1513.66 1304.3 1518.27 Q1307.38 1522.85 1307.38 1531.6 Q1307.38 1540.33 1304.3 1544.94 Q1301.25 1549.52 1295.44 1549.52 Q1289.63 1549.52 1286.55 1544.94 Q1283.49 1540.33 1283.49 1531.6 Q1283.49 1522.85 1286.55 1518.27 Q1289.63 1513.66 1295.44 1513.66 Z" fill="#000000" fill-rule="nonzero" fill-opacity="1" /><path clip-path="url(#clip430)" d="M1325.6 1517.37 Q1321.99 1517.37 1320.16 1520.93 Q1318.35 1524.47 1318.35 1531.6 Q1318.35 1538.71 1320.16 1542.27 Q1321.99 1545.82 1325.6 1545.82 Q1329.23 1545.82 1331.04 1542.27 Q1332.87 1538.71 1332.87 1531.6 Q1332.87 1524.47 1331.04 1520.93 Q1329.23 1517.37 1325.6 1517.37 M1325.6 1513.66 Q1331.41 1513.66 1334.46 1518.27 Q1337.54 1522.85 1337.54 1531.6 Q1337.54 1540.33 1334.46 1544.94 Q1331.41 1549.52 1325.6 1549.52 Q1319.79 1549.52 1316.71 1544.94 Q1313.65 1540.33 1313.65 1531.6 Q1313.65 1522.85 1316.71 1518.27 Q1319.79 1513.66 1325.6 1513.66 Z" fill="#000000" fill-rule="nonzero" fill-opacity="1" /><path clip-path="url(#clip430)" d="M1731.77 1544.91 L1739.41 1544.91 L1739.41 1518.55 L1731.1 1520.21 L1731.1 1515.95 L1739.37 1514.29 L1744.04 1514.29 L1744.04 1544.91 L1751.68 1544.91 L1751.68 1548.85 L1731.77 1548.85 L1731.77 1544.91 Z" fill="#000000" fill-rule="nonzero" fill-opacity="1" /><path clip-path="url(#clip430)" d="M1761.17 1514.29 L1779.53 1514.29 L1779.53 1518.22 L1765.45 1518.22 L1765.45 1526.7 Q1766.47 1526.35 1767.49 1526.19 Q1768.51 1526 1769.53 1526 Q1775.31 1526 1778.69 1529.17 Q1782.07 1532.34 1782.07 1537.76 Q1782.07 1543.34 1778.6 1546.44 Q1775.13 1549.52 1768.81 1549.52 Q1766.63 1549.52 1764.37 1549.15 Q1762.12 1548.78 1759.71 1548.04 L1759.71 1543.34 Q1761.8 1544.47 1764.02 1545.03 Q1766.24 1545.58 1768.72 1545.58 Q1772.72 1545.58 1775.06 1543.48 Q1777.4 1541.37 1777.4 1537.76 Q1777.4 1534.15 1775.06 1532.04 Q1772.72 1529.94 1768.72 1529.94 Q1766.84 1529.94 1764.97 1530.35 Q1763.12 1530.77 1761.17 1531.65 L1761.17 1514.29 Z" fill="#000000" fill-rule="nonzero" fill-opacity="1" /><path clip-path="url(#clip430)" d="M1801.29 1517.37 Q1797.68 1517.37 1795.85 1520.93 Q1794.04 1524.47 1794.04 1531.6 Q1794.04 1538.71 1795.85 1542.27 Q1797.68 1545.82 1801.29 1545.82 Q1804.92 1545.82 1806.73 1542.27 Q1808.55 1538.71 1808.55 1531.6 Q1808.55 1524.47 1806.73 1520.93 Q1804.92 1517.37 1801.29 1517.37 M1801.29 1513.66 Q1807.1 1513.66 1810.15 1518.27 Q1813.23 1522.85 1813.23 1531.6 Q1813.23 1540.33 1810.15 1544.94 Q1807.1 1549.52 1801.29 1549.52 Q1795.48 1549.52 1792.4 1544.94 Q1789.34 1540.33 1789.34 1531.6 Q1789.34 1522.85 1792.4 1518.27 Q1795.48 1513.66 1801.29 1513.66 Z" fill="#000000" fill-rule="nonzero" fill-opacity="1" /><path clip-path="url(#clip430)" d="M1831.45 1517.37 Q1827.84 1517.37 1826.01 1520.93 Q1824.2 1524.47 1824.2 1531.6 Q1824.2 1538.71 1826.01 1542.27 Q1827.84 1545.82 1831.45 1545.82 Q1835.08 1545.82 1836.89 1542.27 Q1838.72 1538.71 1838.72 1531.6 Q1838.72 1524.47 1836.89 1520.93 Q1835.08 1517.37 1831.45 1517.37 M1831.45 1513.66 Q1837.26 1513.66 1840.31 1518.27 Q1843.39 1522.85 1843.39 1531.6 Q1843.39 1540.33 1840.31 1544.94 Q1837.26 1549.52 1831.45 1549.52 Q1825.64 1549.52 1822.56 1544.94 Q1819.5 1540.33 1819.5 1531.6 Q1819.5 1522.85 1822.56 1518.27 Q1825.64 1513.66 1831.45 1513.66 Z" fill="#000000" fill-rule="nonzero" fill-opacity="1" /><path clip-path="url(#clip430)" d="M2241.71 1544.91 L2258.03 1544.91 L2258.03 1548.85 L2236.08 1548.85 L2236.08 1544.91 Q2238.74 1542.16 2243.33 1537.53 Q2247.93 1532.88 2249.11 1531.53 Q2251.36 1529.01 2252.24 1527.27 Q2253.14 1525.51 2253.14 1523.82 Q2253.14 1521.07 2251.2 1519.33 Q2249.28 1517.6 2246.18 1517.6 Q2243.98 1517.6 2241.52 1518.36 Q2239.09 1519.13 2236.31 1520.68 L2236.31 1515.95 Q2239.14 1514.82 2241.59 1514.24 Q2244.05 1513.66 2246.08 1513.66 Q2251.45 1513.66 2254.65 1516.35 Q2257.84 1519.03 2257.84 1523.52 Q2257.84 1525.65 2257.03 1527.57 Q2256.24 1529.47 2254.14 1532.07 Q2253.56 1532.74 2250.46 1535.95 Q2247.36 1539.15 2241.71 1544.91 Z" fill="#000000" fill-rule="nonzero" fill-opacity="1" /><path clip-path="url(#clip430)" d="M2277.84 1517.37 Q2274.23 1517.37 2272.4 1520.93 Q2270.6 1524.47 2270.6 1531.6 Q2270.6 1538.71 2272.4 1542.27 Q2274.23 1545.82 2277.84 1545.82 Q2281.48 1545.82 2283.28 1542.27 Q2285.11 1538.71 2285.11 1531.6 Q2285.11 1524.47 2283.28 1520.93 Q2281.48 1517.37 2277.84 1517.37 M2277.84 1513.66 Q2283.65 1513.66 2286.71 1518.27 Q2289.79 1522.85 2289.79 1531.6 Q2289.79 1540.33 2286.71 1544.94 Q2283.65 1549.52 2277.84 1549.52 Q2272.03 1549.52 2268.95 1544.94 Q2265.9 1540.33 2265.9 1531.6 Q2265.9 1522.85 2268.95 1518.27 Q2272.03 1513.66 2277.84 1513.66 Z" fill="#000000" fill-rule="nonzero" fill-opacity="1" /><path clip-path="url(#clip430)" d="M2308 1517.37 Q2304.39 1517.37 2302.56 1520.93 Q2300.76 1524.47 2300.76 1531.6 Q2300.76 1538.71 2302.56 1542.27 Q2304.39 1545.82 2308 1545.82 Q2311.64 1545.82 2313.44 1542.27 Q2315.27 1538.71 2315.27 1531.6 Q2315.27 1524.47 2313.44 1520.93 Q2311.64 1517.37 2308 1517.37 M2308 1513.66 Q2313.81 1513.66 2316.87 1518.27 Q2319.95 1522.85 2319.95 1531.6 Q2319.95 1540.33 2316.87 1544.94 Q2313.81 1549.52 2308 1549.52 Q2302.19 1549.52 2299.11 1544.94 Q2296.06 1540.33 2296.06 1531.6 Q2296.06 1522.85 2299.11 1518.27 Q2302.19 1513.66 2308 1513.66 Z" fill="#000000" fill-rule="nonzero" fill-opacity="1" /><path clip-path="url(#clip430)" d="M2338.17 1517.37 Q2334.55 1517.37 2332.73 1520.93 Q2330.92 1524.47 2330.92 1531.6 Q2330.92 1538.71 2332.73 1542.27 Q2334.55 1545.82 2338.17 1545.82 Q2341.8 1545.82 2343.61 1542.27 Q2345.43 1538.71 2345.43 1531.6 Q2345.43 1524.47 2343.61 1520.93 Q2341.8 1517.37 2338.17 1517.37 M2338.17 1513.66 Q2343.98 1513.66 2347.03 1518.27 Q2350.11 1522.85 2350.11 1531.6 Q2350.11 1540.33 2347.03 1544.94 Q2343.98 1549.52 2338.17 1549.52 Q2332.36 1549.52 2329.28 1544.94 Q2326.22 1540.33 2326.22 1531.6 Q2326.22 1522.85 2329.28 1518.27 Q2332.36 1513.66 2338.17 1513.66 Z" fill="#000000" fill-rule="nonzero" fill-opacity="1" /><polyline clip-path="url(#clip432)" style="stroke:#000000; stroke-linecap:round; stroke-linejoin:round; stroke-width:2; stroke-opacity:0.1; fill:none" points="209.029,1239.95 2352.76,1239.95 "/>
<polyline clip-path="url(#clip432)" style="stroke:#000000; stroke-linecap:round; stroke-linejoin:round; stroke-width:2; stroke-opacity:0.1; fill:none" points="209.029,980.798 2352.76,980.798 "/>
<polyline clip-path="url(#clip432)" style="stroke:#000000; stroke-linecap:round; stroke-linejoin:round; stroke-width:2; stroke-opacity:0.1; fill:none" points="209.029,721.642 2352.76,721.642 "/>
<polyline clip-path="url(#clip432)" style="stroke:#000000; stroke-linecap:round; stroke-linejoin:round; stroke-width:2; stroke-opacity:0.1; fill:none" points="209.029,462.486 2352.76,462.486 "/>
<polyline clip-path="url(#clip432)" style="stroke:#000000; stroke-linecap:round; stroke-linejoin:round; stroke-width:2; stroke-opacity:0.1; fill:none" points="209.029,203.33 2352.76,203.33 "/>
<polyline clip-path="url(#clip430)" style="stroke:#000000; stroke-linecap:round; stroke-linejoin:round; stroke-width:4; stroke-opacity:1; fill:none" points="209.029,1486.45 209.029,47.2441 "/>
<polyline clip-path="url(#clip430)" style="stroke:#000000; stroke-linecap:round; stroke-linejoin:round; stroke-width:4; stroke-opacity:1; fill:none" points="209.029,1239.95 227.926,1239.95 "/>
<polyline clip-path="url(#clip430)" style="stroke:#000000; stroke-linecap:round; stroke-linejoin:round; stroke-width:4; stroke-opacity:1; fill:none" points="209.029,980.798 227.926,980.798 "/>
<polyline clip-path="url(#clip430)" style="stroke:#000000; stroke-linecap:round; stroke-linejoin:round; stroke-width:4; stroke-opacity:1; fill:none" points="209.029,721.642 227.926,721.642 "/>
<polyline clip-path="url(#clip430)" style="stroke:#000000; stroke-linecap:round; stroke-linejoin:round; stroke-width:4; stroke-opacity:1; fill:none" points="209.029,462.486 227.926,462.486 "/>
<polyline clip-path="url(#clip430)" style="stroke:#000000; stroke-linecap:round; stroke-linejoin:round; stroke-width:4; stroke-opacity:1; fill:none" points="209.029,203.33 227.926,203.33 "/>
<path clip-path="url(#clip430)" d="M51.9875 1240.41 L81.6633 1240.41 L81.6633 1244.34 L51.9875 1244.34 L51.9875 1240.41 Z" fill="#000000" fill-rule="nonzero" fill-opacity="1" /><path clip-path="url(#clip430)" d="M95.7836 1253.3 L112.103 1253.3 L112.103 1257.23 L90.1586 1257.23 L90.1586 1253.3 Q92.8206 1250.54 97.4039 1245.91 Q102.01 1241.26 103.191 1239.92 Q105.436 1237.4 106.316 1235.66 Q107.219 1233.9 107.219 1232.21 Q107.219 1229.46 105.274 1227.72 Q103.353 1225.98 100.251 1225.98 Q98.0521 1225.98 95.5984 1226.75 Q93.1678 1227.51 90.3901 1229.06 L90.3901 1224.34 Q93.2141 1223.21 95.6678 1222.63 Q98.1215 1222.05 100.159 1222.05 Q105.529 1222.05 108.723 1224.73 Q111.918 1227.42 111.918 1231.91 Q111.918 1234.04 111.108 1235.96 Q110.321 1237.86 108.214 1240.45 Q107.635 1241.12 104.534 1244.34 Q101.432 1247.53 95.7836 1253.3 Z" fill="#000000" fill-rule="nonzero" fill-opacity="1" /><path clip-path="url(#clip430)" d="M125.945 1253.3 L142.265 1253.3 L142.265 1257.23 L120.32 1257.23 L120.32 1253.3 Q122.982 1250.54 127.566 1245.91 Q132.172 1241.26 133.353 1239.92 Q135.598 1237.4 136.478 1235.66 Q137.381 1233.9 137.381 1232.21 Q137.381 1229.46 135.436 1227.72 Q133.515 1225.98 130.413 1225.98 Q128.214 1225.98 125.76 1226.75 Q123.33 1227.51 120.552 1229.06 L120.552 1224.34 Q123.376 1223.21 125.83 1222.63 Q128.283 1222.05 130.32 1222.05 Q135.691 1222.05 138.885 1224.73 Q142.08 1227.42 142.08 1231.91 Q142.08 1234.04 141.269 1235.96 Q140.482 1237.86 138.376 1240.45 Q137.797 1241.12 134.695 1244.34 Q131.594 1247.53 125.945 1253.3 Z" fill="#000000" fill-rule="nonzero" fill-opacity="1" /><path clip-path="url(#clip430)" d="M152.126 1222.67 L170.482 1222.67 L170.482 1226.61 L156.408 1226.61 L156.408 1235.08 Q157.427 1234.73 158.445 1234.57 Q159.464 1234.39 160.482 1234.39 Q166.269 1234.39 169.649 1237.56 Q173.029 1240.73 173.029 1246.15 Q173.029 1251.72 169.556 1254.83 Q166.084 1257.9 159.765 1257.9 Q157.589 1257.9 155.32 1257.53 Q153.075 1257.16 150.668 1256.42 L150.668 1251.72 Q152.751 1252.86 154.973 1253.41 Q157.195 1253.97 159.672 1253.97 Q163.677 1253.97 166.015 1251.86 Q168.353 1249.76 168.353 1246.15 Q168.353 1242.53 166.015 1240.43 Q163.677 1238.32 159.672 1238.32 Q157.797 1238.32 155.922 1238.74 Q154.07 1239.16 152.126 1240.03 L152.126 1222.67 Z" fill="#000000" fill-rule="nonzero" fill-opacity="1" /><path clip-path="url(#clip430)" d="M50.9921 981.249 L80.6679 981.249 L80.6679 985.184 L50.9921 985.184 L50.9921 981.249 Z" fill="#000000" fill-rule="nonzero" fill-opacity="1" /><path clip-path="url(#clip430)" d="M94.7882 994.142 L111.108 994.142 L111.108 998.078 L89.1632 998.078 L89.1632 994.142 Q91.8252 991.388 96.4085 986.758 Q101.015 982.105 102.196 980.763 Q104.441 978.24 105.321 976.504 Q106.223 974.744 106.223 973.055 Q106.223 970.3 104.279 968.564 Q102.358 966.828 99.2558 966.828 Q97.0567 966.828 94.603 967.592 Q92.1725 968.356 89.3947 969.906 L89.3947 965.184 Q92.2188 964.05 94.6724 963.471 Q97.1261 962.893 99.1632 962.893 Q104.534 962.893 107.728 965.578 Q110.922 968.263 110.922 972.754 Q110.922 974.883 110.112 976.805 Q109.325 978.703 107.219 981.295 Q106.64 981.967 103.538 985.184 Q100.436 988.379 94.7882 994.142 Z" fill="#000000" fill-rule="nonzero" fill-opacity="1" /><path clip-path="url(#clip430)" d="M130.922 966.596 Q127.311 966.596 125.482 970.161 Q123.677 973.703 123.677 980.832 Q123.677 987.939 125.482 991.504 Q127.311 995.045 130.922 995.045 Q134.556 995.045 136.362 991.504 Q138.191 987.939 138.191 980.832 Q138.191 973.703 136.362 970.161 Q134.556 966.596 130.922 966.596 M130.922 962.893 Q136.732 962.893 139.788 967.499 Q142.867 972.082 142.867 980.832 Q142.867 989.559 139.788 994.166 Q136.732 998.749 130.922 998.749 Q125.112 998.749 122.033 994.166 Q118.978 989.559 118.978 980.832 Q118.978 972.082 122.033 967.499 Q125.112 962.893 130.922 962.893 Z" fill="#000000" fill-rule="nonzero" fill-opacity="1" /><path clip-path="url(#clip430)" d="M161.084 966.596 Q157.473 966.596 155.644 970.161 Q153.839 973.703 153.839 980.832 Q153.839 987.939 155.644 991.504 Q157.473 995.045 161.084 995.045 Q164.718 995.045 166.524 991.504 Q168.353 987.939 168.353 980.832 Q168.353 973.703 166.524 970.161 Q164.718 966.596 161.084 966.596 M161.084 962.893 Q166.894 962.893 169.95 967.499 Q173.029 972.082 173.029 980.832 Q173.029 989.559 169.95 994.166 Q166.894 998.749 161.084 998.749 Q155.274 998.749 152.195 994.166 Q149.14 989.559 149.14 980.832 Q149.14 972.082 152.195 967.499 Q155.274 962.893 161.084 962.893 Z" fill="#000000" fill-rule="nonzero" fill-opacity="1" /><path clip-path="url(#clip430)" d="M51.9875 722.093 L81.6633 722.093 L81.6633 726.028 L51.9875 726.028 L51.9875 722.093 Z" fill="#000000" fill-rule="nonzero" fill-opacity="1" /><path clip-path="url(#clip430)" d="M92.566 734.986 L100.205 734.986 L100.205 708.621 L91.8947 710.287 L91.8947 706.028 L100.159 704.362 L104.834 704.362 L104.834 734.986 L112.473 734.986 L112.473 738.922 L92.566 738.922 L92.566 734.986 Z" fill="#000000" fill-rule="nonzero" fill-opacity="1" /><path clip-path="url(#clip430)" d="M120.737 704.362 L142.959 704.362 L142.959 706.352 L130.413 738.922 L125.529 738.922 L137.334 708.297 L120.737 708.297 L120.737 704.362 Z" fill="#000000" fill-rule="nonzero" fill-opacity="1" /><path clip-path="url(#clip430)" d="M152.126 704.362 L170.482 704.362 L170.482 708.297 L156.408 708.297 L156.408 716.769 Q157.427 716.422 158.445 716.26 Q159.464 716.075 160.482 716.075 Q166.269 716.075 169.649 719.246 Q173.029 722.417 173.029 727.834 Q173.029 733.412 169.556 736.514 Q166.084 739.593 159.765 739.593 Q157.589 739.593 155.32 739.223 Q153.075 738.852 150.668 738.111 L150.668 733.412 Q152.751 734.547 154.973 735.102 Q157.195 735.658 159.672 735.658 Q163.677 735.658 166.015 733.551 Q168.353 731.445 168.353 727.834 Q168.353 724.223 166.015 722.116 Q163.677 720.01 159.672 720.01 Q157.797 720.01 155.922 720.426 Q154.07 720.843 152.126 721.723 L152.126 704.362 Z" fill="#000000" fill-rule="nonzero" fill-opacity="1" /><path clip-path="url(#clip430)" d="M50.9921 462.937 L80.6679 462.937 L80.6679 466.872 L50.9921 466.872 L50.9921 462.937 Z" fill="#000000" fill-rule="nonzero" fill-opacity="1" /><path clip-path="url(#clip430)" d="M91.5706 475.83 L99.2095 475.83 L99.2095 449.465 L90.8993 451.131 L90.8993 446.872 L99.1632 445.206 L103.839 445.206 L103.839 475.83 L111.478 475.83 L111.478 479.766 L91.5706 479.766 L91.5706 475.83 Z" fill="#000000" fill-rule="nonzero" fill-opacity="1" /><path clip-path="url(#clip430)" d="M120.969 445.206 L139.325 445.206 L139.325 449.141 L125.251 449.141 L125.251 457.613 Q126.27 457.266 127.288 457.104 Q128.307 456.918 129.325 456.918 Q135.112 456.918 138.492 460.09 Q141.871 463.261 141.871 468.678 Q141.871 474.256 138.399 477.358 Q134.927 480.437 128.607 480.437 Q126.432 480.437 124.163 480.067 Q121.918 479.696 119.51 478.955 L119.51 474.256 Q121.594 475.391 123.816 475.946 Q126.038 476.502 128.515 476.502 Q132.519 476.502 134.857 474.395 Q137.195 472.289 137.195 468.678 Q137.195 465.067 134.857 462.96 Q132.519 460.854 128.515 460.854 Q126.64 460.854 124.765 461.27 Q122.913 461.687 120.969 462.567 L120.969 445.206 Z" fill="#000000" fill-rule="nonzero" fill-opacity="1" /><path clip-path="url(#clip430)" d="M161.084 448.284 Q157.473 448.284 155.644 451.849 Q153.839 455.391 153.839 462.52 Q153.839 469.627 155.644 473.192 Q157.473 476.733 161.084 476.733 Q164.718 476.733 166.524 473.192 Q168.353 469.627 168.353 462.52 Q168.353 455.391 166.524 451.849 Q164.718 448.284 161.084 448.284 M161.084 444.581 Q166.894 444.581 169.95 449.187 Q173.029 453.77 173.029 462.52 Q173.029 471.247 169.95 475.854 Q166.894 480.437 161.084 480.437 Q155.274 480.437 152.195 475.854 Q149.14 471.247 149.14 462.52 Q149.14 453.77 152.195 449.187 Q155.274 444.581 161.084 444.581 Z" fill="#000000" fill-rule="nonzero" fill-opacity="1" /><path clip-path="url(#clip430)" d="M51.9875 203.781 L81.6633 203.781 L81.6633 207.716 L51.9875 207.716 L51.9875 203.781 Z" fill="#000000" fill-rule="nonzero" fill-opacity="1" /><path clip-path="url(#clip430)" d="M92.566 216.674 L100.205 216.674 L100.205 190.309 L91.8947 191.975 L91.8947 187.716 L100.159 186.05 L104.834 186.05 L104.834 216.674 L112.473 216.674 L112.473 220.61 L92.566 220.61 L92.566 216.674 Z" fill="#000000" fill-rule="nonzero" fill-opacity="1" /><path clip-path="url(#clip430)" d="M125.945 216.674 L142.265 216.674 L142.265 220.61 L120.32 220.61 L120.32 216.674 Q122.982 213.92 127.566 209.29 Q132.172 204.637 133.353 203.295 Q135.598 200.772 136.478 199.036 Q137.381 197.276 137.381 195.587 Q137.381 192.832 135.436 191.096 Q133.515 189.36 130.413 189.36 Q128.214 189.36 125.76 190.124 Q123.33 190.888 120.552 192.438 L120.552 187.716 Q123.376 186.582 125.83 186.003 Q128.283 185.425 130.32 185.425 Q135.691 185.425 138.885 188.11 Q142.08 190.795 142.08 195.286 Q142.08 197.415 141.269 199.337 Q140.482 201.235 138.376 203.827 Q137.797 204.499 134.695 207.716 Q131.594 210.911 125.945 216.674 Z" fill="#000000" fill-rule="nonzero" fill-opacity="1" /><path clip-path="url(#clip430)" d="M152.126 186.05 L170.482 186.05 L170.482 189.985 L156.408 189.985 L156.408 198.457 Q157.427 198.11 158.445 197.948 Q159.464 197.762 160.482 197.762 Q166.269 197.762 169.649 200.934 Q173.029 204.105 173.029 209.522 Q173.029 215.1 169.556 218.202 Q166.084 221.281 159.765 221.281 Q157.589 221.281 155.32 220.91 Q153.075 220.54 150.668 219.799 L150.668 215.1 Q152.751 216.235 154.973 216.79 Q157.195 217.346 159.672 217.346 Q163.677 217.346 166.015 215.239 Q168.353 213.133 168.353 209.522 Q168.353 205.911 166.015 203.804 Q163.677 201.698 159.672 201.698 Q157.797 201.698 155.922 202.114 Q154.07 202.531 152.126 203.411 L152.126 186.05 Z" fill="#000000" fill-rule="nonzero" fill-opacity="1" /><polyline clip-path="url(#clip432)" style="stroke:#009af9; stroke-linecap:round; stroke-linejoin:round; stroke-width:4; stroke-opacity:1; fill:none" points="269.7,308.689 270.712,304.569 271.723,437.033 272.735,435.973 273.747,565.296 274.759,563.725 275.77,420.372 276.782,417.999 277.794,93.7085 278.805,87.9763 279.817,562.67 280.829,561.916 281.84,441.069 282.852,440.443 283.864,448.497 284.876,447.121 285.887,702.154 286.899,702.387 287.911,588.759 288.922,589.187 289.934,470.083 290.946,468.759 291.957,429.158 292.969,427.696 293.981,510.212 294.992,505.871 296.004,640.52 297.016,639.394 298.028,284.82 299.039,283.804 300.051,658.153 301.063,657.854 302.074,519.65 303.086,516.307 304.098,787.386 305.109,786.645 306.121,796.796 307.133,797.041 308.145,546.735 309.156,544.916 310.168,504.365 311.18,502.59 312.191,799.089 313.203,797.669 314.215,692.85 315.226,691.96 316.238,717.168 317.25,715.842 318.262,632.3 319.273,630.288 320.285,585.492 321.297,585.21 322.308,643.239 323.32,642.161 324.332,672.261 325.343,671.078 326.355,602.233 327.367,599.315 328.379,769.372 329.39,768.209 330.402,645.155 331.414,642.3 332.425,686.347 333.437,685.797 334.449,833.664 335.46,831.838 336.472,648.981 337.484,648.631 338.496,915.43 339.507,915.394 340.519,836.97 341.531,836.102 342.542,704.212 343.554,702.384 344.566,565.491 345.577,562.955 346.589,613.06 347.601,611.506 348.612,863.951 349.624,862.957 350.636,1031.54 351.648,1029.83 352.659,653.212 353.671,650.294 354.683,653.448 355.694,648.989 356.706,722.157 357.718,721.025 358.729,846.913 359.741,845.421 360.753,775.345 361.765,773.181 362.776,910.6 363.788,907.695 364.8,1019.26 365.811,1017.38 366.823,928.477 367.835,928.015 368.846,815.205 369.858,813.723 370.87,659.236 371.882,657.745 372.893,1033.74 373.905,1031.35 374.917,843.614 375.928,842.039 376.94,1103.13 377.952,1102.19 378.963,777.031 379.975,775.182 380.987,1081.25 381.999,1078.82 383.01,1129.76 384.022,1127.56 385.034,855.845 386.045,853.161 387.057,706.496 388.069,702.418 389.08,755.7 390.092,753.124 391.104,759.707 392.115,756.682 393.127,930.316 394.139,927.335 395.151,727.619 396.162,725.357 397.174,1142.73 398.186,1138.51 399.197,958.205 400.209,956.673 401.221,1081.67 402.232,1079.83 403.244,1061.08 404.256,1058.54 405.268,915.065 406.279,912.041 407.291,941.027 408.303,936.795 409.314,1090.2 410.326,1088.9 411.338,1036.96 412.349,1035 413.361,981.183 414.373,978.808 415.385,1218.04 416.396,1216.75 417.408,922.441 418.42,919.822 419.431,978.299 420.443,975.085 421.455,1020.8 422.466,1018.7 423.478,1122.57 424.49,1119.95 425.502,1076.35 426.513,1074.2 427.525,954.859 428.537,951.019 429.548,991.275 430.56,988.699 431.572,1169.06 432.583,1165.41 433.595,1065.3 434.607,1060.27 435.619,906.154 436.63,902.743 437.642,966.849 438.654,964.547 439.665,1061.21 440.677,1058.69 441.689,1068.47 442.7,1065.6 443.712,970.907 444.724,966.12 445.735,886.237 446.747,883.08 447.759,1174.14 448.771,1171.69 449.782,1018.87 450.794,1016.14 451.806,1049.16 452.817,1046.9 453.829,1171.55 454.841,1169.96 455.852,1038.42 456.864,1036.43 457.876,1204.52 458.888,1201.07 459.899,1059.57 460.911,1057.78 461.923,1102.19 462.934,1099.43 463.946,923.083 464.958,917.953 465.969,1087.68 466.981,1084.25 467.993,1032.84 469.005,1030.08 470.016,1220.24 471.028,1218.39 472.04,1155.25 473.051,1152.8 474.063,1155.57 475.075,1153.58 476.086,1134.03 477.098,1132.68 478.11,1056.65 479.122,1054.8 480.133,1114.59 481.145,1111.3 482.157,1249.56 483.168,1247.05 484.18,1034.15 485.192,1029.84 486.203,1139.34 487.215,1137 488.227,934.205 489.239,927.434 490.25,1166.03 491.262,1163.73 492.274,1074.09 493.285,1072.01 494.297,1179.81 495.309,1176.32 496.32,1257.7 497.332,1256.28 498.344,1057.13 499.355,1054.7 500.367,1127.14 501.379,1124.99 502.391,965.45 503.402,961.331 504.414,1095.62 505.426,1093.3 506.437,1005.57 507.449,1004.15 508.461,1103.72 509.472,1101.47 510.484,1138.89 511.496,1137.19 512.508,1104.48 513.519,1102.49 514.531,1199 515.543,1197.46 516.554,1082.76 517.566,1080.95 518.578,1206.67 519.589,1204.59 520.601,1186.08 521.613,1183.22 522.625,1208.01 523.636,1206.39 524.648,1069.38 525.66,1067.33 526.671,1198.91 527.683,1197.01 528.695,1170.74 529.706,1168.54 530.718,1211.03 531.73,1207.89 532.742,1152.67 533.753,1150.06 534.765,1238.77 535.777,1233.85 536.788,1114.31 537.8,1112.42 538.812,1136.86 539.823,1134.99 540.835,1267.44 541.847,1265.55 542.859,1323.08 543.87,1321.57 544.882,1183.41 545.894,1182.41 546.905,1164.28 547.917,1163.08 548.929,1103.25 549.94,1101.68 550.952,1137.02 551.964,1135.33 552.975,1150.51 553.987,1146.46 554.999,1070.96 556.011,1064.94 557.022,1185.35 558.034,1183.77 559.046,1141.45 560.057,1139.02 561.069,1291.94 562.081,1289.16 563.092,1183.97 564.104,1182.01 565.116,1285 566.128,1283.89 567.139,1117.27 568.151,1115.16 569.163,1182.72 570.174,1181.57 571.186,1101.93 572.198,1099.76 573.209,1180.31 574.221,1179.12 575.233,1207.16 576.245,1204.53 577.256,1188.32 578.268,1187.29 579.28,1150.63 580.291,1149.11 581.303,1297.92 582.315,1296.84 583.326,1261.06 584.338,1259.33 585.35,1063.03 586.362,1062.02 587.373,1141.05 588.385,1139.97 589.397,1159.5 590.408,1158.02 591.42,1350.63 592.432,1349.09 593.443,1135.3 594.455,1133.73 595.467,1244.33 596.478,1242.46 597.49,1240.16 598.502,1239.17 599.514,1203.25 600.525,1202.43 601.537,1061.24 602.549,1060.37 603.56,1120.34 604.572,1118.54 605.584,1270.02 606.595,1267.83 607.607,1213.04 608.619,1211.73 609.631,1144.29 610.642,1141.12 611.654,1259.17 612.666,1258.06 613.677,1156.84 614.689,1153.76 615.701,1097.68 616.712,1094.74 617.724,1154.61 618.736,1153.15 619.748,996.647 620.759,995.655 621.771,1155.73 622.783,1154.6 623.794,1218.11 624.806,1217 625.818,1081.87 626.829,1081.09 627.841,1164.9 628.853,1162.61 629.865,1094.6 630.876,1092.46 631.888,1302.47 632.9,1300.96 633.911,1177.47 634.923,1173.59 635.935,1135.95 636.946,1135.68 637.958,1124.61 638.97,1122.3 639.982,1053.82 640.993,1053.29 642.005,1082.45 643.017,1081.98 644.028,1106.35 645.04,1103.79 646.052,1313.56 647.063,1313 648.075,1118.76 649.087,1116.73 650.098,1138.51 651.11,1138.16 652.122,1224.34 653.134,1224.32 654.145,1264.19 655.157,1264.16 656.169,1199.13 657.18,1197.78 658.192,1193.21 659.204,1192.98 660.215,1107.31 661.227,1105.98 662.239,1068.12 663.251,1067.65 664.262,1213.11 665.274,1212.58 666.286,1169.62 667.297,1169.23 668.309,1121.75 669.321,1121.45 670.332,1188.12 671.344,1188 672.356,1191.88 673.368,1191.64 674.379,1264.24 675.391,1264.41 676.403,1178.4 677.414,1178.16 678.426,1222.13 679.438,1221.67 680.449,1211.51 681.461,1210.43 682.473,1175.08 683.485,1173.17 684.496,1145.92 685.508,1145.62 686.52,1250.94 687.531,1250.06 688.543,1179.9 689.555,1174.58 690.566,1203.74 691.578,1203.34 692.59,1126.03 693.602,1125.64 694.613,1263.11 695.625,1263.07 696.637,1222.61 697.648,1222.63 698.66,1195.78 699.672,1194.61 700.683,1123.96 701.695,1122.15 702.707,1160.78 703.718,1160.71 704.73,1254.67 705.742,1254.32 706.754,1152.26 707.765,1151.72 708.777,1134.94 709.789,1134.18 710.8,1220.99 711.812,1220.98 712.824,1235.89 713.835,1234.97 714.847,1191.91 715.859,1191.48 716.871,1249.43 717.882,1248.88 718.894,1208.46 719.906,1207.14 720.917,1181.01 721.929,1180.41 722.941,1218.21 723.952,1216.53 724.964,1172.81 725.976,1172.22 726.988,1224.17 727.999,1224.14 729.011,1211.38 730.023,1211.2 731.034,1188.18 732.046,1186.19 733.058,1202.9 734.069,1202.94 735.081,1210.36 736.093,1210.23 737.105,1296.27 738.116,1295.96 739.128,1238.25 740.14,1237.96 741.151,1187.44 742.163,1187.1 743.175,1039.86 744.186,1039.87 745.198,1126.49 746.21,1126.14 747.222,1223.16 748.233,1223.05 749.245,1133.66 750.257,1133.06 751.268,1139.2 752.28,1138.06 753.292,1237.93 754.303,1237.15 755.315,1271.57 756.327,1271.25 757.338,1128.1 758.35,1127.9 759.362,1225.39 760.374,1225.59 761.385,1148.86 762.397,1148.57 763.409,1184.43 764.42,1184.42 765.432,1131.42 766.444,1129.91 767.455,1329.79 768.467,1329.95 769.479,1104.52 770.491,1104.18 771.502,1228.61 772.514,1228.82 773.526,1224.53 774.537,1223.74 775.549,1175.6 776.561,1175.24 777.572,1130.77 778.584,1129.71 779.596,1223.98 780.608,1224.09 781.619,1193.48 782.631,1193.44 783.643,1283.6 784.654,1283.49 785.666,1172.85 786.678,1172.69 787.689,1198.74 788.701,1198 789.713,1289.16 790.725,1288.4 791.736,1208.3 792.748,1208.24 793.76,1194.09 794.771,1194.02 795.783,1067.64 796.795,1067.04 797.806,1147.96 798.818,1146.68 799.83,1386.06 800.841,1386.11 801.853,1198.24 802.865,1198 803.877,1178.35 804.888,1178.29 805.9,1253.19 806.912,1253.06 807.923,1068.68 808.935,1068.39 809.947,1158.79 810.958,1158.78 811.97,1214.23 812.982,1213.83 813.994,1181.18 815.005,1181.06 816.017,1159.89 817.029,1159.89 818.04,1268.25 819.052,1268.13 820.064,1170.84 821.075,1170.84 822.087,1317.98 823.099,1318.04 824.111,1203.89 825.122,1203.39 826.134,1139.05 827.146,1138.36 828.157,1221.1 829.169,1221.04 830.181,1175.06 831.192,1168.86 832.204,1228.6 833.216,1227.98 834.228,1185.22 835.239,1184.94 836.251,1283.6 837.263,1283.69 838.274,1169.86 839.286,1169.74 840.298,1178.67 841.309,1177.68 842.321,1133.42 843.333,1133.12 844.345,1139.58 845.356,1139.28 846.368,1049.04 847.38,1048.8 848.391,1300.3 849.403,1300.42 850.415,1155.55 851.426,1154.62 852.438,1138.25 853.45,1138.27 854.461,1261.23 855.473,1260.36 856.485,1240.25 857.497,1240.12 858.508,1130.4 859.52,1130.3 860.532,1257.36 861.543,1257.12 862.555,1206.39 863.567,1206.26 864.578,1113.02 865.59,1112.63 866.602,1269.28 867.614,1269.08 868.625,1131.76 869.637,1130.84 870.649,1179.49 871.66,1179.39 872.672,1273.71 873.684,1272.47 874.695,1122.48 875.707,1120.96 876.719,1059.77 877.731,1059.5 878.742,1197.51 879.754,1197.65 880.766,1172.25 881.777,1172.05 882.789,1108.85 883.801,1108.9 884.812,1191.26 885.824,1190.95 886.836,1142.69 887.848,1142.27 888.859,1144.74 889.871,1143.52 890.883,1163.18 891.894,1163.31 892.906,1164.5 893.918,1164.47 894.929,1089.39 895.941,1088.62 896.953,1073.3 897.965,1072.52 898.976,1168.13 899.988,1168.13 901,1199.66 902.011,1199.75 903.023,1251.76 904.035,1251.85 905.046,1280.18 906.058,1280.33 907.07,1201.31 908.081,1200.95 909.093,1139.57 910.105,1139.5 911.117,1090.89 912.128,1090.66 913.14,1236.52 914.152,1236.1 915.163,1132.85 916.175,1129.56 917.187,1145.49 918.198,1145.47 919.21,1253.66 920.222,1253.73 921.234,1289.52 922.245,1289.53 923.257,1174.01 924.269,1173.97 925.28,1062.55 926.292,1062.49 927.304,1252.66 928.315,1249.53 929.327,1267.25 930.339,1267.09 931.351,1194.6 932.362,1194.65 933.374,1175.41 934.386,1173.39 935.397,1139.35 936.409,1139.36 937.421,1445.44 938.432,1445.72 939.444,1161.66 940.456,1161.45 941.468,1099.8 942.479,1099.73 943.491,1190.24 944.503,1190.21 945.514,1252.16 946.526,1251.2 947.538,1063.97 948.549,1061.8 949.561,1190.05 950.573,1190.09 951.585,1263.41 952.596,1262.82 953.608,1237.9 954.62,1236.43 955.631,1152.34 956.643,1151.29 957.655,1226.67 958.666,1226.75 959.678,1211.7 960.69,1211.84 961.701,1198.22 962.713,1197.99 963.725,1163.31 964.737,1163.23 965.748,1151.51 966.76,1147.62 967.772,1105.89 968.783,1105.83 969.795,1298.68 970.807,1298.35 971.818,1168.59 972.83,1167.22 973.842,1234.54 974.854,1234.46 975.865,1238.33 976.877,1238.41 977.889,1165.92 978.9,1165.81 979.912,1217.55 980.924,1215.96 981.935,1171.15 982.947,1171.23 983.959,1178.78 984.971,1178.71 985.982,1277.49 986.994,1276.42 988.006,1240.4 989.017,1240.31 990.029,1110.53 991.041,1109.23 992.052,1247.55 993.064,1246.94 994.076,1239.58 995.088,1239.7 996.099,1155.22 997.111,1155.11 998.123,1132.09 999.134,1127.63 1000.15,1124.03 1001.16,1123.93 1002.17,1216.05 1003.18,1215.96 1004.19,1107.53 1005.2,1107.3 1006.22,1201.63 1007.23,1201.54 1008.24,1232.03 1009.25,1231.11 1010.26,1190.51 1011.27,1187.32 1012.29,1159.18 1013.3,1157.92 1014.31,1257.18 1015.32,1256.67 1016.33,1278.22 1017.34,1278.42 1018.36,1112.15 1019.37,1108.29 1020.38,1159.31 1021.39,1157.65 1022.4,1115.5 1023.42,1115.31 1024.43,1099.07 1025.44,1097.78 1026.45,1282.47 1027.46,1282.63 1028.47,1142.77 1029.49,1142.77 1030.5,1289.38 1031.51,1287.89 1032.52,1196.84 1033.53,1196.81 1034.54,1181.84 1035.56,1181.61 1036.57,1112.59 1037.58,1112.36 1038.59,1150.06 1039.6,1149.98 1040.61,1105.81 1041.63,1103.34 1042.64,1310.9 1043.65,1310.13 1044.66,1149.84 1045.67,1149.91 1046.68,1151.49 1047.7,1151.56 1048.71,1186.41 1049.72,1185.92 1050.73,1100.15 1051.74,1099.52 1052.75,1213.08 1053.77,1213.13 1054.78,1264.79 1055.79,1264.79 1056.8,1229.44 1057.81,1229.3 1058.82,1161.56 1059.84,1161.38 1060.85,1165.41 1061.86,1165.36 1062.87,1217.33 1063.88,1217.34 1064.89,1188.46 1065.91,1187.11 1066.92,1163.15 1067.93,1163.01 1068.94,1362.04 1069.95,1362.24 1070.96,1181.17 1071.98,1180.89 1072.99,1291.2 1074,1291.24 1075.01,1234.31 1076.02,1233.21 1077.04,1176.16 1078.05,1176.11 1079.06,1217.88 1080.07,1216.99 1081.08,1144.15 1082.09,1141.46 1083.11,1197.54 1084.12,1196.75 1085.13,1209.22 1086.14,1209.24 1087.15,1228.15 1088.16,1228 1089.18,1153.72 1090.19,1153.36 1091.2,1233.8 1092.21,1233.96 1093.22,1131.66 1094.23,1127.67 1095.25,1152.7 1096.26,1152.89 1097.27,1065.73 1098.28,1065.6 1099.29,1180.95 1100.3,1178.94 1101.32,1126.21 1102.33,1125.99 1103.34,1226.48 1104.35,1226.06 1105.36,1140.3 1106.37,1140.32 1107.39,1153.93 1108.4,1153.63 1109.41,1225.6 1110.42,1225.87 1111.43,1127.49 1112.44,1127.48 1113.46,1258.1 1114.47,1257.37 1115.48,1248.27 1116.49,1248.27 1117.5,1148.42 1118.51,1148.37 1119.53,1286.31 1120.54,1286.11 1121.55,1254.34 1122.56,1254.02 1123.57,1211.72 1124.58,1208.93 1125.6,1288.42 1126.61,1288.06 1127.62,1144.1 1128.63,1143.81 1129.64,1139.16 1130.66,1136.24 1131.67,1317.35 1132.68,1317.28 1133.69,1085.21 1134.7,1084.74 1135.71,1183.23 1136.73,1182.97 1137.74,1204.38 1138.75,1203.34 1139.76,1282.03 1140.77,1281.74 1141.78,1142.94 1142.8,1140.5 1143.81,1139.36 1144.82,1137.71 1145.83,1189.79 1146.84,1189.51 1147.85,1173.12 1148.87,1172.55 1149.88,1081.79 1150.89,1078.76 1151.9,1248.33 1152.91,1248.4 1153.92,1161.92 1154.94,1161.23 1155.95,1199.37 1156.96,1198.98 1157.97,1251.67 1158.98,1250.45 1159.99,1222.36 1161.01,1221.88 1162.02,1194.09 1163.03,1194.04 1164.04,1129.1 1165.05,1127.34 1166.06,1176.28 1167.08,1175.2 1168.09,1221.64 1169.1,1221.16 1170.11,1066.33 1171.12,1062.4 1172.13,1185.13 1173.15,1184.49 1174.16,1225.89 1175.17,1225.76 1176.18,1158 1177.19,1155.86 1178.2,1181.15 1179.22,1180.9 1180.23,1171.39 1181.24,1171.54 1182.25,1221.16 1183.26,1220.07 1184.28,1199.11 1185.29,1199.23 1186.3,1164.37 1187.31,1164.3 1188.32,1098.62 1189.33,1097.91 1190.35,1222.77 1191.36,1222.42 1192.37,1219.74 1193.38,1219.59 1194.39,1192.14 1195.4,1192.15 1196.42,1236.22 1197.43,1236.38 1198.44,1129.31 1199.45,1128.93 1200.46,1043.22 1201.47,1042.93 1202.49,1189.19 1203.5,1189.25 1204.51,1167.04 1205.52,1167.13 1206.53,1184.83 1207.54,1184.6 1208.56,1151.55 1209.57,1149.91 1210.58,1120.39 1211.59,1120 1212.6,1199.74 1213.61,1199.93 1214.63,1033.37 1215.64,1033.35 1216.65,1241.8 1217.66,1241.23 1218.67,1208.5 1219.68,1207.7 1220.7,1113.98 1221.71,1113.94 1222.72,1187.49 1223.73,1187.47 1224.74,1298.51 1225.75,1298.6 1226.77,1163.28 1227.78,1162.93 1228.79,1176.9 1229.8,1176.72 1230.81,1216.18 1231.82,1215.7 1232.84,1157.76 1233.85,1157.72 1234.86,1332.26 1235.87,1332.47 1236.88,1147.72 1237.9,1146.86 1238.91,1247.3 1239.92,1246.31 1240.93,1177.43 1241.94,1177.33 1242.95,1147.84 1243.97,1147.3 1244.98,1215.65 1245.99,1215.62 1247,1179.76 1248.01,1179.63 1249.02,1139.46 1250.04,1139.56 1251.05,1162.16 1252.06,1161.78 1253.07,1118.47 1254.08,1117.27 1255.09,1149.3 1256.11,1148.7 1257.12,1281.35 1258.13,1281.12 1259.14,1235.86 1260.15,1235.1 1261.16,1212.91 1262.18,1212.99 1263.19,1166.93 1264.2,1166.81 1265.21,1203.83 1266.22,1202.47 1267.23,1215.78 1268.25,1215.66 1269.26,1152.84 1270.27,1151.86 1271.28,1281.77 1272.29,1281.61 1273.3,1126.64 1274.32,1126.55 1275.33,1228.43 1276.34,1228.43 1277.35,1073.91 1278.36,1073.59 1279.37,1278.15 1280.39,1278.2 1281.4,1061.95 1282.41,1061.55 1283.42,1144.99 1284.43,1144.3 1285.44,1306.13 1286.46,1306.27 1287.47,1297.13 1288.48,1296.86 1289.49,1192.67 1290.5,1192 1291.52,1227.31 1292.53,1226.62 1293.54,1271.66 1294.55,1271.82 1295.56,1098.92 1296.57,1098.63 1297.59,1161.41 1298.6,1161.27 1299.61,1253.82 1300.62,1253.57 1301.63,1183.11 1302.64,1183.21 1303.66,1273.1 1304.67,1272.35 1305.68,1203.47 1306.69,1203.4 1307.7,1207.67 1308.71,1207.48 1309.73,1177.44 1310.74,1177.42 1311.75,1143.74 1312.76,1143.7 1313.77,1145.26 1314.78,1143.96 1315.8,1094.02 1316.81,1093.15 1317.82,1185.66 1318.83,1184.43 1319.84,1268.17 1320.85,1267.88 1321.87,1131.08 1322.88,1131.14 1323.89,1110.64 1324.9,1109.45 1325.91,1211.44 1326.92,1211.51 1327.94,1177.47 1328.95,1177.46 1329.96,1252.9 1330.97,1252.66 1331.98,1066.69 1332.99,1066.08 1334.01,1186.54 1335.02,1186.19 1336.03,1072.72 1337.04,1072.27 1338.05,1090.31 1339.06,1090.01 1340.08,1193.1 1341.09,1192.77 1342.1,1211.87 1343.11,1211.06 1344.12,1145.15 1345.14,1145.09 1346.15,1307.9 1347.16,1307.84 1348.17,1139.1 1349.18,1138.6 1350.19,1216.79 1351.21,1216.18 1352.22,1208.59 1353.23,1208.1 1354.24,1143.66 1355.25,1143.85 1356.26,987.202 1357.28,982.895 1358.29,1229.53 1359.3,1227.75 1360.31,1180.14 1361.32,1180.06 1362.33,1287.18 1363.35,1287.4 1364.36,1183.29 1365.37,1182.98 1366.38,1167.85 1367.39,1167.75 1368.4,1161.55 1369.42,1161.48 1370.43,1223.18 1371.44,1223.24 1372.45,1046.34 1373.46,1046.16 1374.47,1184.69 1375.49,1183.57 1376.5,1257.29 1377.51,1257.33 1378.52,1235.95 1379.53,1235 1380.54,1167.02 1381.56,1166.28 1382.57,1128.51 1383.58,1128.36 1384.59,1148.09 1385.6,1148.04 1386.61,1217.2 1387.63,1216.22 1388.64,1162.36 1389.65,1162.48 1390.66,1189.2 1391.67,1189.07 1392.68,1181.61 1393.7,1181.82 1394.71,1227.96 1395.72,1228 1396.73,1179.07 1397.74,1178.75 1398.76,1216.55 1399.77,1216.45 1400.78,1437.37 1401.79,1437.72 1402.8,1201.08 1403.81,1199 1404.83,1235.08 1405.84,1235.07 1406.85,1166.32 1407.86,1166.05 1408.87,1215.04 1409.88,1214.99 1410.9,1174.52 1411.91,1168.88 1412.92,1170.4 1413.93,1170.02 1414.94,1170.1 1415.95,1170.08 1416.97,1243.98 1417.98,1244.03 1418.99,1211.08 1420,1211.01 1421.01,1126.92 1422.02,1126.92 1423.04,1314.36 1424.05,1314.14 1425.06,1149.25 1426.07,1149.03 1427.08,1085.05 1428.09,1083.33 1429.11,1258.22 1430.12,1258.41 1431.13,1150.95 1432.14,1149.99 1433.15,1200.58 1434.16,1200.63 1435.18,1077.06 1436.19,1073.83 1437.2,1178.77 1438.21,1178.66 1439.22,1170.96 1440.23,1171.01 1441.25,1182.47 1442.26,1182.48 1443.27,1270.38 1444.28,1270.55 1445.29,1183.22 1446.3,1181.82 1447.32,1238.69 1448.33,1238.53 1449.34,1206.89 1450.35,1207.07 1451.36,1141.31 1452.38,1141.28 1453.39,1199.03 1454.4,1198.44 1455.41,1227.09 1456.42,1227.01 1457.43,1206 1458.45,1206.07 1459.46,1097.77 1460.47,1097.85 1461.48,1066.15 1462.49,1064.58 1463.5,1232.05 1464.52,1231.68 1465.53,1197.82 1466.54,1197.73 1467.55,1102.54 1468.56,1097.68 1469.57,1265.04 1470.59,1265.24 1471.6,1132.8 1472.61,1132.67 1473.62,1176.65 1474.63,1176.39 1475.64,1158.2 1476.66,1157.94 1477.67,1236.54 1478.68,1236.6 1479.69,1064.27 1480.7,1062.96 1481.71,1086.7 1482.73,1086.48 1483.74,1356.9 1484.75,1356.07 1485.76,1257.53 1486.77,1257.23 1487.78,1158.54 1488.8,1158.44 1489.81,1205.96 1490.82,1205.79 1491.83,1121.17 1492.84,1121.16 1493.85,1231.45 1494.87,1231.2 1495.88,1280.96 1496.89,1281.07 1497.9,1185.1 1498.91,1185.29 1499.92,1140.54 1500.94,1140.37 1501.95,1129.89 1502.96,1130.09 1503.97,1144.3 1504.98,1143.82 1506,1163.66 1507.01,1162.91 1508.02,1230.38 1509.03,1230.46 1510.04,1119.14 1511.05,1117.45 1512.07,1148.39 1513.08,1147.88 1514.09,1068.59 1515.1,1067.77 1516.11,1145.72 1517.12,1145.68 1518.14,1359.42 1519.15,1359.92 1520.16,1176.53 1521.17,1176.14 1522.18,1247.8 1523.19,1247.95 1524.21,1143.44 1525.22,1143.33 1526.23,1116.46 1527.24,1116.62 1528.25,1220.81 1529.26,1220.93 1530.28,1299.87 1531.29,1299.63 1532.3,1144.64 1533.31,1144.5 1534.32,1179.1 1535.33,1179.27 1536.35,1143.33 1537.36,1143.22 1538.37,1264.25 1539.38,1264.52 1540.39,1242.99 1541.4,1243.02 1542.42,1222.8 1543.43,1222.5 1544.44,1300.65 1545.45,1299.26 1546.46,1134.34 1547.47,1133.61 1548.49,1268.12 1549.5,1266.25 1550.51,1178.35 1551.52,1177.52 1552.53,1223.21 1553.54,1223.25 1554.56,1250.15 1555.57,1250.09 1556.58,1220.13 1557.59,1220.1 1558.6,1119.8 1559.62,1119.34 1560.63,1169.03 1561.64,1168.78 1562.65,1209.12 1563.66,1205.26 1564.67,1134.68 1565.69,1134.77 1566.7,1189.01 1567.71,1188.93 1568.72,1166.69 1569.73,1165.49 1570.74,1212.85 1571.76,1212.74 1572.77,1088.17 1573.78,1088.23 1574.79,1112.6 1575.8,1112.66 1576.81,1299.35 1577.83,1299.59 1578.84,1234.12 1579.85,1232.98 1580.86,1132.9 1581.87,1131.42 1582.88,1180.47 1583.9,1180.14 1584.91,1260.4 1585.92,1260.53 1586.93,1121.67 1587.94,1116.99 1588.95,1193.53 1589.97,1193.72 1590.98,1084.93 1591.99,1084.89 1593,1252.89 1594.01,1253.12 1595.02,1132.87 1596.04,1132.75 1597.05,1141 1598.06,1140.67 1599.07,1185.4 1600.08,1185.36 1601.09,1274.38 1602.11,1274.56 1603.12,1228.54 1604.13,1228.1 1605.14,1107.23 1606.15,1106.98 1607.16,1323.32 1608.18,1323.35 1609.19,1214.27 1610.2,1214.29 1611.21,1129.11 1612.22,1128.87 1613.24,1302.44 1614.25,1302.53 1615.26,1193.98 1616.27,1193.12 1617.28,1279.23 1618.29,1279 1619.31,1192.63 1620.32,1192.29 1621.33,1244.15 1622.34,1243.88 1623.35,1220.4 1624.36,1220.41 1625.38,1220.05 1626.39,1217.74 1627.4,1260.52 1628.41,1260.43 1629.42,1325.49 1630.43,1325.43 1631.45,1150.47 1632.46,1150.47 1633.47,1180.36 1634.48,1180.08 1635.49,1161.08 1636.5,1157.69 1637.52,1157.94 1638.53,1157.94 1639.54,1262 1640.55,1262.07 1641.56,1238.1 1642.57,1237.98 1643.59,1230.64 1644.6,1228.7 1645.61,1174.36 1646.62,1173.48 1647.63,1135.44 1648.64,1134.69 1649.66,1380.14 1650.67,1380.33 1651.68,1049.46 1652.69,1046.76 1653.7,1118.25 1654.71,1118.22 1655.73,1202.54 1656.74,1201.62 1657.75,1249.86 1658.76,1249.82 1659.77,1212.61 1660.78,1212.62 1661.8,1173.69 1662.81,1173.34 1663.82,1346.41 1664.83,1346.77 1665.84,1205.02 1666.86,1204.65 1667.87,1429.52 1668.88,1427.89 1669.89,1170.94 1670.9,1169.3 1671.91,1202.53 1672.93,1202.28 1673.94,1254.43 1674.95,1253.58 1675.96,1182.48 1676.97,1181.96 1677.98,1128.47 1679,1127.79 1680.01,1162.97 1681.02,1163.02 1682.03,1197.94 1683.04,1196.85 1684.05,1210.28 1685.07,1210.26 1686.08,1176.05 1687.09,1175.83 1688.1,1194.09 1689.11,1193.66 1690.12,1210.68 1691.14,1210.67 1692.15,1191.44 1693.16,1191.32 1694.17,1318.18 1695.18,1317.8 1696.19,1189.82 1697.21,1187.99 1698.22,1346.05 1699.23,1346.13 1700.24,1172.88 1701.25,1172.96 1702.26,1210.1 1703.28,1209.72 1704.29,1204.26 1705.3,1203.82 1706.31,1099.61 1707.32,1098.38 1708.33,1225.18 1709.35,1225.28 1710.36,1295.14 1711.37,1295.24 1712.38,1199.17 1713.39,1198.61 1714.4,1093.27 1715.42,1093.15 1716.43,1232.91 1717.44,1232.57 1718.45,1137.24 1719.46,1136.67 1720.47,1229.59 1721.49,1229.53 1722.5,1173.77 1723.51,1173.36 1724.52,1214 1725.53,1214.08 1726.55,1284.55 1727.56,1283.88 1728.57,1208.06 1729.58,1207.98 1730.59,1151.49 1731.6,1151.44 1732.62,1174.08 1733.63,1173.75 1734.64,1225.55 1735.65,1224.98 1736.66,1161.09 1737.67,1158.72 1738.69,1216.4 1739.7,1215 1740.71,1178.13 1741.72,1176.51 1742.73,1150.28 1743.74,1150.07 1744.76,1171.11 1745.77,1171.04 1746.78,1192.23 1747.79,1192.08 1748.8,1138.6 1749.81,1138.5 1750.83,1195.26 1751.84,1192.83 1752.85,1166.8 1753.86,1166.74 1754.87,1140.7 1755.88,1140.67 1756.9,1190.3 1757.91,1189.87 1758.92,1198.14 1759.93,1197.92 1760.94,1321.08 1761.95,1320.15 1762.97,1140.1 1763.98,1139.87 1764.99,1127.57 1766,1126.97 1767.01,1227.66 1768.02,1225.82 1769.04,1119.36 1770.05,1118.73 1771.06,1108.53 1772.07,1108.63 1773.08,1219.01 1774.09,1219.18 1775.11,1146.24 1776.12,1145.54 1777.13,1215.48 1778.14,1215.67 1779.15,1238.12 1780.17,1237.76 1781.18,1225.43 1782.19,1225.58 1783.2,1122.91 1784.21,1120.88 1785.22,1193.99 1786.24,1193.64 1787.25,1141.89 1788.26,1141.89 1789.27,1127.36 1790.28,1127.14 1791.29,1277.41 1792.31,1277.08 1793.32,1189.66 1794.33,1185.55 1795.34,1112.72 1796.35,1112.74 1797.36,1128.79 1798.38,1127.55 1799.39,1123.6 1800.4,1123.65 1801.41,1237.21 1802.42,1236.59 1803.43,1259.79 1804.45,1259.59 1805.46,1127.06 1806.47,1127.22 1807.48,1095.34 1808.49,1093.58 1809.5,1229 1810.52,1228.61 1811.53,1222.47 1812.54,1222.46 1813.55,1170.7 1814.56,1170.25 1815.57,1179.16 1816.59,1179.26 1817.6,1038.1 1818.61,1038 1819.62,1228.81 1820.63,1225.31 1821.64,1157.29 1822.66,1156.32 1823.67,1150.38 1824.68,1150.53 1825.69,1215.2 1826.7,1214.43 1827.71,1186.58 1828.73,1186.24 1829.74,1237.95 1830.75,1238.17 1831.76,1185.98 1832.77,1186.23 1833.79,1077.99 1834.8,1077.74 1835.81,1188.97 1836.82,1188.8 1837.83,1324.04 1838.84,1323.88 1839.86,1210.41 1840.87,1210.21 1841.88,1228.68 1842.89,1227.32 1843.9,1282.48 1844.91,1282.62 1845.93,1308.99 1846.94,1309.05 1847.95,1231.72 1848.96,1231.06 1849.97,1114.48 1850.98,1114.23 1852,1213.01 1853.01,1211.95 1854.02,1070.34 1855.03,1069.92 1856.04,1169.62 1857.05,1169.32 1858.07,1098.09 1859.08,1097.49 1860.09,1267.68 1861.1,1267.87 1862.11,1115.4 1863.12,1113.92 1864.14,1306.86 1865.15,1307.07 1866.16,1142.77 1867.17,1142.46 1868.18,1199.63 1869.19,1199.62 1870.21,1166.27 1871.22,1165.84 1872.23,1230.17 1873.24,1230.03 1874.25,1130.38 1875.26,1128.06 1876.28,1190.26 1877.29,1190.19 1878.3,1161.56 1879.31,1161.47 1880.32,1132.59 1881.33,1132.12 1882.35,1210.13 1883.36,1210.26 1884.37,1192.8 1885.38,1192.54 1886.39,1032.25 1887.41,1031.05 1888.42,1158.92 1889.43,1158.6 1890.44,1194.86 1891.45,1194.93 1892.46,1189.04 1893.48,1188.95 1894.49,1214.61 1895.5,1213.55 1896.51,1247.55 1897.52,1247.59 1898.53,1360.33 1899.55,1359.9 1900.56,1194.44 1901.57,1194.15 1902.58,1241.62 1903.59,1241.18 1904.6,1248.03 1905.62,1248.02 1906.63,1251.59 1907.64,1250.96 1908.65,1238.69 1909.66,1238.73 1910.67,1170.37 1911.69,1169.82 1912.7,1170.3 1913.71,1170.33 1914.72,1219.19 1915.73,1219.02 1916.74,1203.64 1917.76,1202.52 1918.77,1231.48 1919.78,1230.19 1920.79,1100.1 1921.8,1099.92 1922.81,1279.68 1923.83,1279.78 1924.84,1229.07 1925.85,1228.85 1926.86,1259.94 1927.87,1259.93 1928.88,1255.01 1929.9,1253.03 1930.91,1224.82 1931.92,1224.25 1932.93,1264.51 1933.94,1264.5 1934.95,1189 1935.97,1186.36 1936.98,1304.2 1937.99,1304.35 1939,1262.48 1940.01,1262.39 1941.03,1307.54 1942.04,1307.75 1943.05,1277.75 1944.06,1277.78 1945.07,1130.46 1946.08,1130.21 1947.1,1248.28 1948.11,1247.58 1949.12,1240.08 1950.13,1238.59 1951.14,1137.81 1952.15,1137.51 1953.17,1265.03 1954.18,1264.98 1955.19,1221.49 1956.2,1221.03 1957.21,1235.13 1958.22,1234.38 1959.24,1179.72 1960.25,1179.59 1961.26,1186.89 1962.27,1186.69 1963.28,1210.49 1964.29,1209.39 1965.31,1185.18 1966.32,1185.16 1967.33,1269.59 1968.34,1269.1 1969.35,1194.32 1970.36,1194.11 1971.38,1134.76 1972.39,1134.05 1973.4,1125.64 1974.41,1125.59 1975.42,1167.13 1976.43,1166.71 1977.45,1221.26 1978.46,1218.46 1979.47,1158.52 1980.48,1158.53 1981.49,1230.23 1982.5,1228.54 1983.52,1112.1 1984.53,1110.2 1985.54,1084.26 1986.55,1084.35 1987.56,1267.53 1988.57,1267.42 1989.59,1183.85 1990.6,1182.93 1991.61,1102.23 1992.62,1101.52 1993.63,1252.17 1994.65,1251.83 1995.66,1227.68 1996.67,1227.89 1997.68,1270.22 1998.69,1267.58 1999.7,1324.85 2000.72,1324.99 2001.73,1124.13 2002.74,1123.69 2003.75,1097.37 2004.76,1097.1 2005.77,1260.65 2006.79,1260.62 2007.8,1060.38 2008.81,1060.39 2009.82,1051.36 2010.83,1051.12 2011.84,1090.48 2012.86,1090.36 2013.87,1221.37 2014.88,1219.8 2015.89,1170.31 2016.9,1169.82 2017.91,1151.85 2018.93,1152.12 2019.94,1128.92 2020.95,1128.59 2021.96,1207.82 2022.97,1207.98 2023.98,1171.26 2025,1164.41 2026.01,1268.8 2027.02,1268.8 2028.03,1254.78 2029.04,1254.88 2030.05,1202.85 2031.07,1202.9 2032.08,1307.72 2033.09,1307.17 2034.1,1186.79 2035.11,1185.88 2036.12,1179.54 2037.14,1179.69 2038.15,1219.68 2039.16,1219.49 2040.17,1258.61 2041.18,1258.22 2042.19,1113 2043.21,1112.72 2044.22,1118.2 2045.23,1117.71 2046.24,1186.72 2047.25,1186.74 2048.27,1184.45 2049.28,1184.47 2050.29,1214.79 2051.3,1214.14 2052.31,1177.05 2053.32,1177.06 2054.34,1093.98 2055.35,1093.83 2056.36,1191.57 2057.37,1191.05 2058.38,1290.45 2059.39,1290.65 2060.41,1213.95 2061.42,1213.67 2062.43,1080.58 2063.44,1079.37 2064.45,1128.29 2065.46,1127.38 2066.48,1248.95 2067.49,1248.53 2068.5,1127.2 2069.51,1126.57 2070.52,1297.74 2071.53,1297.76 2072.55,1246.95 2073.56,1246.8 2074.57,1129.88 2075.58,1129.7 2076.59,1303.62 2077.6,1302.33 2078.62,1123.14 2079.63,1122.49 2080.64,1114.63 2081.65,1114.41 2082.66,1237.43 2083.67,1237.44 2084.69,1219.71 2085.7,1215.99 2086.71,1217.08 2087.72,1215.76 2088.73,1198.75 2089.74,1197.51 2090.76,1167.24 2091.77,1166.86 2092.78,1128.03 2093.79,1127.12 2094.8,1193.48 2095.81,1193.13 2096.83,1148.74 2097.84,1146.5 2098.85,1215.05 2099.86,1215.2 2100.87,1253.77 2101.89,1253.33 2102.9,1158.36 2103.91,1158.33 2104.92,1132.28 2105.93,1131.52 2106.94,1277.5 2107.96,1274.85 2108.97,1216.11 2109.98,1215.35 2110.99,1300.61 2112,1300.9 2113.01,1225.5 2114.03,1225.52 2115.04,1177.91 2116.05,1174.46 2117.06,1176.88 2118.07,1176.66 2119.08,1235.91 2120.1,1235.76 2121.11,1161.05 2122.12,1160.98 2123.13,1219.87 2124.14,1219.45 2125.15,1152.51 2126.17,1151.84 2127.18,1300.02 2128.19,1300.08 2129.2,1440.38 2130.21,1440.57 2131.22,1170.01 2132.24,1169.25 2133.25,1313.04 2134.26,1312.82 2135.27,1276.56 2136.28,1275.96 2137.29,1210.56 2138.31,1210.46 2139.32,1154.63 2140.33,1153.8 2141.34,1211.22 2142.35,1211.11 2143.36,1097.85 2144.38,1097.05 2145.39,1267.83 2146.4,1267.65 2147.41,1035.36 2148.42,1034.92 2149.43,1269.36 2150.45,1269.31 2151.46,1289.96 2152.47,1289.8 2153.48,1141.68 2154.49,1141.49 2155.51,1369.32 2156.52,1368.49 2157.53,1178.66 2158.54,1177.76 2159.55,1203.89 2160.56,1203.74 2161.58,1215.04 2162.59,1214.97 2163.6,1065.59 2164.61,1064.81 2165.62,1218.84 2166.63,1218.69 2167.65,1233.13 2168.66,1232.7 2169.67,1285.35 2170.68,1282.98 2171.69,1266.02 2172.7,1264.22 2173.72,1217.95 2174.73,1217.81 2175.74,1090.57 2176.75,1090.12 2177.76,1110.63 2178.77,1109.02 2179.79,1244.6 2180.8,1243.49 2181.81,1165.24 2182.82,1165.19 2183.83,1165.09 2184.84,1162.63 2185.86,1159.44 2186.87,1159.56 2187.88,1163.64 2188.89,1162.16 2189.9,1183.05 2190.91,1182.82 2191.93,1207.99 2192.94,1206.51 2193.95,1180.87 2194.96,1179.75 2195.97,1211.7 2196.98,1211.45 2198,1254.46 2199.01,1253.08 2200.02,1104.49 2201.03,1104.49 2202.04,1112.15 2203.05,1112.17 2204.07,1257.02 2205.08,1257.14 2206.09,1290.79 2207.1,1290.06 2208.11,1137.64 2209.13,1137.44 2210.14,1107.73 2211.15,1107.54 2212.16,1184.53 2213.17,1184.54 2214.18,1141.25 2215.2,1141.24 2216.21,1181.27 2217.22,1180.98 2218.23,1194.96 2219.24,1195.1 2220.25,1172.23 2221.27,1172.07 2222.28,1136.02 2223.29,1134.69 2224.3,1212.77 2225.31,1212.82 2226.32,1221.84 2227.34,1221.96 2228.35,1148.92 2229.36,1148.3 2230.37,1220.62 2231.38,1220.77 2232.39,1173.48 2233.41,1173.38 2234.42,1125.54 2235.43,1124.53 2236.44,1178.18 2237.45,1177.94 2238.46,1160.23 2239.48,1159.57 2240.49,1191.91 2241.5,1190.44 2242.51,1238.28 2243.52,1238.14 2244.53,1124.43 2245.55,1124.36 2246.56,1108.22 2247.57,1106.55 2248.58,1112.83 2249.59,1112.46 2250.6,1147.89 2251.62,1147.97 2252.63,1210.03 2253.64,1208.99 2254.65,1136.23 2255.66,1136.34 2256.67,1224.64 2257.69,1224.35 2258.7,1200.05 2259.71,1198.22 2260.72,1332.42 2261.73,1332.51 2262.75,1157.28 2263.76,1156.6 2264.77,1130.26 2265.78,1129.87 2266.79,1370.42 2267.8,1370.28 2268.82,1153.3 2269.83,1152.69 2270.84,1207.41 2271.85,1204.75 2272.86,977.904 2273.87,977.859 2274.89,1229.57 2275.9,1228.33 2276.91,1261.75 2277.92,1261.12 2278.93,1191.46 2279.94,1191.3 2280.96,1188.55 2281.97,1187.4 2282.98,1108.17 2283.99,1107.89 2285,1278.78 2286.01,1278.96 2287.03,1108.75 2288.04,1108.82 2289.05,1213.06 2290.06,1212.94 2291.07,1221.56 2292.08,1221.67 "/>
<path clip-path="url(#clip430)" d="M2014.5 198.898 L2281.3 198.898 L2281.3 95.2176 L2014.5 95.2176  Z" fill="#ffffff" fill-rule="evenodd" fill-opacity="1"/>
<polyline clip-path="url(#clip430)" style="stroke:#000000; stroke-linecap:round; stroke-linejoin:round; stroke-width:4; stroke-opacity:1; fill:none" points="2014.5,198.898 2281.3,198.898 2281.3,95.2176 2014.5,95.2176 2014.5,198.898 "/>
<polyline clip-path="url(#clip430)" style="stroke:#009af9; stroke-linecap:round; stroke-linejoin:round; stroke-width:4; stroke-opacity:1; fill:none" points="2038.31,147.058 2181.23,147.058 "/>
<path clip-path="url(#clip430)" d="M2218.89 166.745 Q2217.09 171.375 2215.37 172.787 Q2213.66 174.199 2210.79 174.199 L2207.39 174.199 L2207.39 170.634 L2209.89 170.634 Q2211.65 170.634 2212.62 169.8 Q2213.59 168.967 2214.77 165.865 L2215.53 163.921 L2205.05 138.412 L2209.56 138.412 L2217.66 158.689 L2225.77 138.412 L2230.28 138.412 L2218.89 166.745 Z" fill="#000000" fill-rule="nonzero" fill-opacity="1" /><path clip-path="url(#clip430)" d="M2237.57 160.402 L2245.21 160.402 L2245.21 134.037 L2236.9 135.703 L2236.9 131.444 L2245.16 129.778 L2249.84 129.778 L2249.84 160.402 L2257.48 160.402 L2257.48 164.338 L2237.57 164.338 L2237.57 160.402 Z" fill="#000000" fill-rule="nonzero" fill-opacity="1" /></svg>
