<?xml version="1.0" encoding="utf-8"?>
<svg xmlns="http://www.w3.org/2000/svg" xmlns:xlink="http://www.w3.org/1999/xlink" width="600" height="400" viewBox="0 0 2400 1600">
<defs>
  <clipPath id="clip730">
    <rect x="0" y="0" width="2400" height="1600"/>
  </clipPath>
</defs>
<path clip-path="url(#clip730)" d="M0 1600 L2400 1600 L2400 0 L0 0  Z" fill="#ffffff" fill-rule="evenodd" fill-opacity="1"/>
<defs>
  <clipPath id="clip731">
    <rect x="480" y="0" width="1681" height="1600"/>
  </clipPath>
</defs>
<path clip-path="url(#clip730)" d="M156.274 1486.45 L2352.76 1486.45 L2352.76 47.2441 L156.274 47.2441  Z" fill="#ffffff" fill-rule="evenodd" fill-opacity="1"/>
<defs>
  <clipPath id="clip732">
    <rect x="156" y="47" width="2197" height="1440"/>
  </clipPath>
</defs>
<polyline clip-path="url(#clip732)" style="stroke:#000000; stroke-linecap:round; stroke-linejoin:round; stroke-width:2; stroke-opacity:0.1; fill:none" points="218.439,1486.45 218.439,47.2441 "/>
<polyline clip-path="url(#clip732)" style="stroke:#000000; stroke-linecap:round; stroke-linejoin:round; stroke-width:2; stroke-opacity:0.1; fill:none" points="736.995,1486.45 736.995,47.2441 "/>
<polyline clip-path="url(#clip732)" style="stroke:#000000; stroke-linecap:round; stroke-linejoin:round; stroke-width:2; stroke-opacity:0.1; fill:none" points="1255.55,1486.45 1255.55,47.2441 "/>
<polyline clip-path="url(#clip732)" style="stroke:#000000; stroke-linecap:round; stroke-linejoin:round; stroke-width:2; stroke-opacity:0.1; fill:none" points="1774.11,1486.45 1774.11,47.2441 "/>
<polyline clip-path="url(#clip732)" style="stroke:#000000; stroke-linecap:round; stroke-linejoin:round; stroke-width:2; stroke-opacity:0.1; fill:none" points="2292.67,1486.45 2292.67,47.2441 "/>
<polyline clip-path="url(#clip730)" style="stroke:#000000; stroke-linecap:round; stroke-linejoin:round; stroke-width:4; stroke-opacity:1; fill:none" points="156.274,1486.45 2352.76,1486.45 "/>
<polyline clip-path="url(#clip730)" style="stroke:#000000; stroke-linecap:round; stroke-linejoin:round; stroke-width:4; stroke-opacity:1; fill:none" points="218.439,1486.45 218.439,1467.55 "/>
<polyline clip-path="url(#clip730)" style="stroke:#000000; stroke-linecap:round; stroke-linejoin:round; stroke-width:4; stroke-opacity:1; fill:none" points="736.995,1486.45 736.995,1467.55 "/>
<polyline clip-path="url(#clip730)" style="stroke:#000000; stroke-linecap:round; stroke-linejoin:round; stroke-width:4; stroke-opacity:1; fill:none" points="1255.55,1486.45 1255.55,1467.55 "/>
<polyline clip-path="url(#clip730)" style="stroke:#000000; stroke-linecap:round; stroke-linejoin:round; stroke-width:4; stroke-opacity:1; fill:none" points="1774.11,1486.45 1774.11,1467.55 "/>
<polyline clip-path="url(#clip730)" style="stroke:#000000; stroke-linecap:round; stroke-linejoin:round; stroke-width:4; stroke-opacity:1; fill:none" points="2292.67,1486.45 2292.67,1467.55 "/>
<path clip-path="url(#clip730)" d="M218.439 1517.37 Q214.828 1517.37 212.999 1520.93 Q211.193 1524.47 211.193 1531.6 Q211.193 1538.71 212.999 1542.27 Q214.828 1545.82 218.439 1545.82 Q222.073 1545.82 223.879 1542.27 Q225.707 1538.71 225.707 1531.6 Q225.707 1524.47 223.879 1520.93 Q222.073 1517.37 218.439 1517.37 M218.439 1513.66 Q224.249 1513.66 227.304 1518.27 Q230.383 1522.85 230.383 1531.6 Q230.383 1540.33 227.304 1544.94 Q224.249 1549.52 218.439 1549.52 Q212.629 1549.52 209.55 1544.94 Q206.494 1540.33 206.494 1531.6 Q206.494 1522.85 209.55 1518.27 Q212.629 1513.66 218.439 1513.66 Z" fill="#000000" fill-rule="nonzero" fill-opacity="1" /><path clip-path="url(#clip730)" d="M700.688 1544.91 L717.007 1544.91 L717.007 1548.85 L695.063 1548.85 L695.063 1544.91 Q697.725 1542.16 702.308 1537.53 Q706.915 1532.88 708.095 1531.53 Q710.34 1529.01 711.22 1527.27 Q712.123 1525.51 712.123 1523.82 Q712.123 1521.07 710.178 1519.33 Q708.257 1517.6 705.155 1517.6 Q702.956 1517.6 700.503 1518.36 Q698.072 1519.13 695.294 1520.68 L695.294 1515.95 Q698.118 1514.82 700.572 1514.24 Q703.026 1513.66 705.063 1513.66 Q710.433 1513.66 713.628 1516.35 Q716.822 1519.03 716.822 1523.52 Q716.822 1525.65 716.012 1527.57 Q715.225 1529.47 713.118 1532.07 Q712.54 1532.74 709.438 1535.95 Q706.336 1539.15 700.688 1544.91 Z" fill="#000000" fill-rule="nonzero" fill-opacity="1" /><path clip-path="url(#clip730)" d="M726.868 1514.29 L745.225 1514.29 L745.225 1518.22 L731.151 1518.22 L731.151 1526.7 Q732.169 1526.35 733.188 1526.19 Q734.206 1526 735.225 1526 Q741.012 1526 744.391 1529.17 Q747.771 1532.34 747.771 1537.76 Q747.771 1543.34 744.299 1546.44 Q740.826 1549.52 734.507 1549.52 Q732.331 1549.52 730.063 1549.15 Q727.817 1548.78 725.41 1548.04 L725.41 1543.34 Q727.493 1544.47 729.715 1545.03 Q731.938 1545.58 734.414 1545.58 Q738.419 1545.58 740.757 1543.48 Q743.095 1541.37 743.095 1537.76 Q743.095 1534.15 740.757 1532.04 Q738.419 1529.94 734.414 1529.94 Q732.539 1529.94 730.664 1530.35 Q728.813 1530.77 726.868 1531.65 L726.868 1514.29 Z" fill="#000000" fill-rule="nonzero" fill-opacity="1" /><path clip-path="url(#clip730)" d="M766.984 1517.37 Q763.373 1517.37 761.544 1520.93 Q759.738 1524.47 759.738 1531.6 Q759.738 1538.71 761.544 1542.27 Q763.373 1545.82 766.984 1545.82 Q770.618 1545.82 772.423 1542.27 Q774.252 1538.71 774.252 1531.6 Q774.252 1524.47 772.423 1520.93 Q770.618 1517.37 766.984 1517.37 M766.984 1513.66 Q772.794 1513.66 775.849 1518.27 Q778.928 1522.85 778.928 1531.6 Q778.928 1540.33 775.849 1544.94 Q772.794 1549.52 766.984 1549.52 Q761.174 1549.52 758.095 1544.94 Q755.039 1540.33 755.039 1531.6 Q755.039 1522.85 758.095 1518.27 Q761.174 1513.66 766.984 1513.66 Z" fill="#000000" fill-rule="nonzero" fill-opacity="1" /><path clip-path="url(#clip730)" d="M1215.17 1514.29 L1233.53 1514.29 L1233.53 1518.22 L1219.45 1518.22 L1219.45 1526.7 Q1220.47 1526.35 1221.49 1526.19 Q1222.51 1526 1223.53 1526 Q1229.31 1526 1232.69 1529.17 Q1236.07 1532.34 1236.07 1537.76 Q1236.07 1543.34 1232.6 1546.44 Q1229.13 1549.52 1222.81 1549.52 Q1220.63 1549.52 1218.36 1549.15 Q1216.12 1548.78 1213.71 1548.04 L1213.71 1543.34 Q1215.8 1544.47 1218.02 1545.03 Q1220.24 1545.58 1222.72 1545.58 Q1226.72 1545.58 1229.06 1543.48 Q1231.4 1541.37 1231.4 1537.76 Q1231.4 1534.15 1229.06 1532.04 Q1226.72 1529.94 1222.72 1529.94 Q1220.84 1529.94 1218.97 1530.35 Q1217.11 1530.77 1215.17 1531.65 L1215.17 1514.29 Z" fill="#000000" fill-rule="nonzero" fill-opacity="1" /><path clip-path="url(#clip730)" d="M1255.29 1517.37 Q1251.67 1517.37 1249.85 1520.93 Q1248.04 1524.47 1248.04 1531.6 Q1248.04 1538.71 1249.85 1542.27 Q1251.67 1545.82 1255.29 1545.82 Q1258.92 1545.82 1260.73 1542.27 Q1262.55 1538.71 1262.55 1531.6 Q1262.55 1524.47 1260.73 1520.93 Q1258.92 1517.37 1255.29 1517.37 M1255.29 1513.66 Q1261.1 1513.66 1264.15 1518.27 Q1267.23 1522.85 1267.23 1531.6 Q1267.23 1540.33 1264.15 1544.94 Q1261.1 1549.52 1255.29 1549.52 Q1249.48 1549.52 1246.4 1544.94 Q1243.34 1540.33 1243.34 1531.6 Q1243.34 1522.85 1246.4 1518.27 Q1249.48 1513.66 1255.29 1513.66 Z" fill="#000000" fill-rule="nonzero" fill-opacity="1" /><path clip-path="url(#clip730)" d="M1285.45 1517.37 Q1281.84 1517.37 1280.01 1520.93 Q1278.2 1524.47 1278.2 1531.6 Q1278.2 1538.71 1280.01 1542.27 Q1281.84 1545.82 1285.45 1545.82 Q1289.08 1545.82 1290.89 1542.27 Q1292.72 1538.71 1292.72 1531.6 Q1292.72 1524.47 1290.89 1520.93 Q1289.08 1517.37 1285.45 1517.37 M1285.45 1513.66 Q1291.26 1513.66 1294.31 1518.27 Q1297.39 1522.85 1297.39 1531.6 Q1297.39 1540.33 1294.31 1544.94 Q1291.26 1549.52 1285.45 1549.52 Q1279.64 1549.52 1276.56 1544.94 Q1273.5 1540.33 1273.5 1531.6 Q1273.5 1522.85 1276.56 1518.27 Q1279.64 1513.66 1285.45 1513.66 Z" fill="#000000" fill-rule="nonzero" fill-opacity="1" /><path clip-path="url(#clip730)" d="M1732.38 1514.29 L1754.61 1514.29 L1754.61 1516.28 L1742.06 1548.85 L1737.18 1548.85 L1748.98 1518.22 L1732.38 1518.22 L1732.38 1514.29 Z" fill="#000000" fill-rule="nonzero" fill-opacity="1" /><path clip-path="url(#clip730)" d="M1763.77 1514.29 L1782.13 1514.29 L1782.13 1518.22 L1768.06 1518.22 L1768.06 1526.7 Q1769.07 1526.35 1770.09 1526.19 Q1771.11 1526 1772.13 1526 Q1777.92 1526 1781.3 1529.17 Q1784.68 1532.34 1784.68 1537.76 Q1784.68 1543.34 1781.2 1546.44 Q1777.73 1549.52 1771.41 1549.52 Q1769.24 1549.52 1766.97 1549.15 Q1764.72 1548.78 1762.31 1548.04 L1762.31 1543.34 Q1764.4 1544.47 1766.62 1545.03 Q1768.84 1545.58 1771.32 1545.58 Q1775.32 1545.58 1777.66 1543.48 Q1780 1541.37 1780 1537.76 Q1780 1534.15 1777.66 1532.04 Q1775.32 1529.94 1771.32 1529.94 Q1769.44 1529.94 1767.57 1530.35 Q1765.72 1530.77 1763.77 1531.65 L1763.77 1514.29 Z" fill="#000000" fill-rule="nonzero" fill-opacity="1" /><path clip-path="url(#clip730)" d="M1803.89 1517.37 Q1800.28 1517.37 1798.45 1520.93 Q1796.64 1524.47 1796.64 1531.6 Q1796.64 1538.71 1798.45 1542.27 Q1800.28 1545.82 1803.89 1545.82 Q1807.52 1545.82 1809.33 1542.27 Q1811.16 1538.71 1811.16 1531.6 Q1811.16 1524.47 1809.33 1520.93 Q1807.52 1517.37 1803.89 1517.37 M1803.89 1513.66 Q1809.7 1513.66 1812.75 1518.27 Q1815.83 1522.85 1815.83 1531.6 Q1815.83 1540.33 1812.75 1544.94 Q1809.7 1549.52 1803.89 1549.52 Q1798.08 1549.52 1795 1544.94 Q1791.94 1540.33 1791.94 1531.6 Q1791.94 1522.85 1795 1518.27 Q1798.08 1513.66 1803.89 1513.66 Z" fill="#000000" fill-rule="nonzero" fill-opacity="1" /><path clip-path="url(#clip730)" d="M2237.19 1544.91 L2244.83 1544.91 L2244.83 1518.55 L2236.52 1520.21 L2236.52 1515.95 L2244.78 1514.29 L2249.46 1514.29 L2249.46 1544.91 L2257.1 1544.91 L2257.1 1548.85 L2237.19 1548.85 L2237.19 1544.91 Z" fill="#000000" fill-rule="nonzero" fill-opacity="1" /><path clip-path="url(#clip730)" d="M2276.54 1517.37 Q2272.93 1517.37 2271.1 1520.93 Q2269.3 1524.47 2269.3 1531.6 Q2269.3 1538.71 2271.1 1542.27 Q2272.93 1545.82 2276.54 1545.82 Q2280.18 1545.82 2281.98 1542.27 Q2283.81 1538.71 2283.81 1531.6 Q2283.81 1524.47 2281.98 1520.93 Q2280.18 1517.37 2276.54 1517.37 M2276.54 1513.66 Q2282.35 1513.66 2285.41 1518.27 Q2288.49 1522.85 2288.49 1531.6 Q2288.49 1540.33 2285.41 1544.94 Q2282.35 1549.52 2276.54 1549.52 Q2270.73 1549.52 2267.65 1544.94 Q2264.6 1540.33 2264.6 1531.6 Q2264.6 1522.85 2267.65 1518.27 Q2270.73 1513.66 2276.54 1513.66 Z" fill="#000000" fill-rule="nonzero" fill-opacity="1" /><path clip-path="url(#clip730)" d="M2306.7 1517.37 Q2303.09 1517.37 2301.27 1520.93 Q2299.46 1524.47 2299.46 1531.6 Q2299.46 1538.71 2301.27 1542.27 Q2303.09 1545.82 2306.7 1545.82 Q2310.34 1545.82 2312.14 1542.27 Q2313.97 1538.71 2313.97 1531.6 Q2313.97 1524.47 2312.14 1520.93 Q2310.34 1517.37 2306.7 1517.37 M2306.7 1513.66 Q2312.51 1513.66 2315.57 1518.27 Q2318.65 1522.85 2318.65 1531.6 Q2318.65 1540.33 2315.57 1544.94 Q2312.51 1549.52 2306.7 1549.52 Q2300.89 1549.52 2297.82 1544.94 Q2294.76 1540.33 2294.76 1531.6 Q2294.76 1522.85 2297.82 1518.27 Q2300.89 1513.66 2306.7 1513.66 Z" fill="#000000" fill-rule="nonzero" fill-opacity="1" /><path clip-path="url(#clip730)" d="M2336.87 1517.37 Q2333.26 1517.37 2331.43 1520.93 Q2329.62 1524.47 2329.62 1531.6 Q2329.62 1538.71 2331.43 1542.27 Q2333.26 1545.82 2336.87 1545.82 Q2340.5 1545.82 2342.31 1542.27 Q2344.14 1538.71 2344.14 1531.6 Q2344.14 1524.47 2342.31 1520.93 Q2340.5 1517.37 2336.87 1517.37 M2336.87 1513.66 Q2342.68 1513.66 2345.73 1518.27 Q2348.81 1522.85 2348.81 1531.6 Q2348.81 1540.33 2345.73 1544.94 Q2342.68 1549.52 2336.87 1549.52 Q2331.06 1549.52 2327.98 1544.94 Q2324.92 1540.33 2324.92 1531.6 Q2324.92 1522.85 2327.98 1518.27 Q2331.06 1513.66 2336.87 1513.66 Z" fill="#000000" fill-rule="nonzero" fill-opacity="1" /><polyline clip-path="url(#clip732)" style="stroke:#000000; stroke-linecap:round; stroke-linejoin:round; stroke-width:2; stroke-opacity:0.1; fill:none" points="156.274,1282.79 2352.76,1282.79 "/>
<polyline clip-path="url(#clip732)" style="stroke:#000000; stroke-linecap:round; stroke-linejoin:round; stroke-width:2; stroke-opacity:0.1; fill:none" points="156.274,1011.24 2352.76,1011.24 "/>
<polyline clip-path="url(#clip732)" style="stroke:#000000; stroke-linecap:round; stroke-linejoin:round; stroke-width:2; stroke-opacity:0.1; fill:none" points="156.274,739.691 2352.76,739.691 "/>
<polyline clip-path="url(#clip732)" style="stroke:#000000; stroke-linecap:round; stroke-linejoin:round; stroke-width:2; stroke-opacity:0.1; fill:none" points="156.274,468.143 2352.76,468.143 "/>
<polyline clip-path="url(#clip732)" style="stroke:#000000; stroke-linecap:round; stroke-linejoin:round; stroke-width:2; stroke-opacity:0.1; fill:none" points="156.274,196.595 2352.76,196.595 "/>
<polyline clip-path="url(#clip730)" style="stroke:#000000; stroke-linecap:round; stroke-linejoin:round; stroke-width:4; stroke-opacity:1; fill:none" points="156.274,1486.45 156.274,47.2441 "/>
<polyline clip-path="url(#clip730)" style="stroke:#000000; stroke-linecap:round; stroke-linejoin:round; stroke-width:4; stroke-opacity:1; fill:none" points="156.274,1282.79 175.172,1282.79 "/>
<polyline clip-path="url(#clip730)" style="stroke:#000000; stroke-linecap:round; stroke-linejoin:round; stroke-width:4; stroke-opacity:1; fill:none" points="156.274,1011.24 175.172,1011.24 "/>
<polyline clip-path="url(#clip730)" style="stroke:#000000; stroke-linecap:round; stroke-linejoin:round; stroke-width:4; stroke-opacity:1; fill:none" points="156.274,739.691 175.172,739.691 "/>
<polyline clip-path="url(#clip730)" style="stroke:#000000; stroke-linecap:round; stroke-linejoin:round; stroke-width:4; stroke-opacity:1; fill:none" points="156.274,468.143 175.172,468.143 "/>
<polyline clip-path="url(#clip730)" style="stroke:#000000; stroke-linecap:round; stroke-linejoin:round; stroke-width:4; stroke-opacity:1; fill:none" points="156.274,196.595 175.172,196.595 "/>
<path clip-path="url(#clip730)" d="M64.0939 1268.59 Q60.4828 1268.59 58.6541 1272.15 Q56.8486 1275.69 56.8486 1282.82 Q56.8486 1289.93 58.6541 1293.49 Q60.4828 1297.03 64.0939 1297.03 Q67.7281 1297.03 69.5337 1293.49 Q71.3624 1289.93 71.3624 1282.82 Q71.3624 1275.69 69.5337 1272.15 Q67.7281 1268.59 64.0939 1268.59 M64.0939 1264.88 Q69.9041 1264.88 72.9596 1269.49 Q76.0383 1274.07 76.0383 1282.82 Q76.0383 1291.55 72.9596 1296.15 Q69.9041 1300.74 64.0939 1300.74 Q58.2838 1300.74 55.2051 1296.15 Q52.1495 1291.55 52.1495 1282.82 Q52.1495 1274.07 55.2051 1269.49 Q58.2838 1264.88 64.0939 1264.88 Z" fill="#000000" fill-rule="nonzero" fill-opacity="1" /><path clip-path="url(#clip730)" d="M84.2558 1294.19 L89.1401 1294.19 L89.1401 1300.07 L84.2558 1300.07 L84.2558 1294.19 Z" fill="#000000" fill-rule="nonzero" fill-opacity="1" /><path clip-path="url(#clip730)" d="M99.3715 1265.51 L117.728 1265.51 L117.728 1269.44 L103.654 1269.44 L103.654 1277.91 Q104.672 1277.57 105.691 1277.41 Q106.709 1277.22 107.728 1277.22 Q113.515 1277.22 116.895 1280.39 Q120.274 1283.56 120.274 1288.98 Q120.274 1294.56 116.802 1297.66 Q113.33 1300.74 107.01 1300.74 Q104.834 1300.74 102.566 1300.37 Q100.321 1300 97.9132 1299.26 L97.9132 1294.56 Q99.9965 1295.69 102.219 1296.25 Q104.441 1296.8 106.918 1296.8 Q110.922 1296.8 113.26 1294.7 Q115.598 1292.59 115.598 1288.98 Q115.598 1285.37 113.26 1283.26 Q110.922 1281.16 106.918 1281.16 Q105.043 1281.16 103.168 1281.57 Q101.316 1281.99 99.3715 1282.87 L99.3715 1265.51 Z" fill="#000000" fill-rule="nonzero" fill-opacity="1" /><path clip-path="url(#clip730)" d="M62.9365 997.038 Q59.3254 997.038 57.4967 1000.6 Q55.6912 1004.14 55.6912 1011.27 Q55.6912 1018.38 57.4967 1021.95 Q59.3254 1025.49 62.9365 1025.49 Q66.5707 1025.49 68.3763 1021.95 Q70.205 1018.38 70.205 1011.27 Q70.205 1004.14 68.3763 1000.6 Q66.5707 997.038 62.9365 997.038 M62.9365 993.334 Q68.7467 993.334 71.8022 997.941 Q74.8809 1002.52 74.8809 1011.27 Q74.8809 1020 71.8022 1024.61 Q68.7467 1029.19 62.9365 1029.19 Q57.1264 1029.19 54.0477 1024.61 Q50.9921 1020 50.9921 1011.27 Q50.9921 1002.52 54.0477 997.941 Q57.1264 993.334 62.9365 993.334 Z" fill="#000000" fill-rule="nonzero" fill-opacity="1" /><path clip-path="url(#clip730)" d="M83.0984 1022.64 L87.9827 1022.64 L87.9827 1028.52 L83.0984 1028.52 L83.0984 1022.64 Z" fill="#000000" fill-rule="nonzero" fill-opacity="1" /><path clip-path="url(#clip730)" d="M108.746 1009.38 Q105.598 1009.38 103.746 1011.53 Q101.918 1013.68 101.918 1017.43 Q101.918 1021.16 103.746 1023.33 Q105.598 1025.49 108.746 1025.49 Q111.895 1025.49 113.723 1023.33 Q115.575 1021.16 115.575 1017.43 Q115.575 1013.68 113.723 1011.53 Q111.895 1009.38 108.746 1009.38 M118.029 994.723 L118.029 998.982 Q116.27 998.149 114.464 997.709 Q112.682 997.269 110.922 997.269 Q106.293 997.269 103.839 1000.39 Q101.409 1003.52 101.061 1009.84 Q102.427 1007.82 104.487 1006.76 Q106.547 1005.67 109.024 1005.67 Q114.233 1005.67 117.242 1008.84 Q120.274 1011.99 120.274 1017.43 Q120.274 1022.76 117.126 1025.97 Q113.978 1029.19 108.746 1029.19 Q102.751 1029.19 99.5798 1024.61 Q96.4085 1020 96.4085 1011.27 Q96.4085 1003.08 100.297 998.218 Q104.186 993.334 110.737 993.334 Q112.496 993.334 114.279 993.681 Q116.084 994.029 118.029 994.723 Z" fill="#000000" fill-rule="nonzero" fill-opacity="1" /><path clip-path="url(#clip730)" d="M64.0013 725.49 Q60.3902 725.49 58.5615 729.055 Q56.756 732.596 56.756 739.726 Q56.756 746.832 58.5615 750.397 Q60.3902 753.939 64.0013 753.939 Q67.6356 753.939 69.4411 750.397 Q71.2698 746.832 71.2698 739.726 Q71.2698 732.596 69.4411 729.055 Q67.6356 725.49 64.0013 725.49 M64.0013 721.786 Q69.8115 721.786 72.867 726.393 Q75.9457 730.976 75.9457 739.726 Q75.9457 748.453 72.867 753.059 Q69.8115 757.642 64.0013 757.642 Q58.1912 757.642 55.1125 753.059 Q52.0569 748.453 52.0569 739.726 Q52.0569 730.976 55.1125 726.393 Q58.1912 721.786 64.0013 721.786 Z" fill="#000000" fill-rule="nonzero" fill-opacity="1" /><path clip-path="url(#clip730)" d="M84.1632 751.092 L89.0475 751.092 L89.0475 756.971 L84.1632 756.971 L84.1632 751.092 Z" fill="#000000" fill-rule="nonzero" fill-opacity="1" /><path clip-path="url(#clip730)" d="M98.0521 722.411 L120.274 722.411 L120.274 724.402 L107.728 756.971 L102.844 756.971 L114.649 726.346 L98.0521 726.346 L98.0521 722.411 Z" fill="#000000" fill-rule="nonzero" fill-opacity="1" /><path clip-path="url(#clip730)" d="M63.1911 453.942 Q59.58 453.942 57.7513 457.507 Q55.9458 461.048 55.9458 468.178 Q55.9458 475.284 57.7513 478.849 Q59.58 482.391 63.1911 482.391 Q66.8254 482.391 68.6309 478.849 Q70.4596 475.284 70.4596 468.178 Q70.4596 461.048 68.6309 457.507 Q66.8254 453.942 63.1911 453.942 M63.1911 450.238 Q69.0013 450.238 72.0568 454.845 Q75.1355 459.428 75.1355 468.178 Q75.1355 476.905 72.0568 481.511 Q69.0013 486.095 63.1911 486.095 Q57.381 486.095 54.3023 481.511 Q51.2468 476.905 51.2468 468.178 Q51.2468 459.428 54.3023 454.845 Q57.381 450.238 63.1911 450.238 Z" fill="#000000" fill-rule="nonzero" fill-opacity="1" /><path clip-path="url(#clip730)" d="M83.3531 479.544 L88.2373 479.544 L88.2373 485.423 L83.3531 485.423 L83.3531 479.544 Z" fill="#000000" fill-rule="nonzero" fill-opacity="1" /><path clip-path="url(#clip730)" d="M108.422 469.011 Q105.089 469.011 103.168 470.794 Q101.27 472.576 101.27 475.701 Q101.27 478.826 103.168 480.609 Q105.089 482.391 108.422 482.391 Q111.756 482.391 113.677 480.609 Q115.598 478.803 115.598 475.701 Q115.598 472.576 113.677 470.794 Q111.779 469.011 108.422 469.011 M103.746 467.021 Q100.737 466.28 99.0474 464.22 Q97.3808 462.16 97.3808 459.197 Q97.3808 455.053 100.321 452.646 Q103.284 450.238 108.422 450.238 Q113.584 450.238 116.524 452.646 Q119.464 455.053 119.464 459.197 Q119.464 462.16 117.774 464.22 Q116.108 466.28 113.121 467.021 Q116.501 467.808 118.376 470.099 Q120.274 472.391 120.274 475.701 Q120.274 480.724 117.195 483.409 Q114.14 486.095 108.422 486.095 Q102.705 486.095 99.6261 483.409 Q96.5706 480.724 96.5706 475.701 Q96.5706 472.391 98.4687 470.099 Q100.367 467.808 103.746 467.021 M102.034 459.636 Q102.034 462.322 103.7 463.826 Q105.39 465.331 108.422 465.331 Q111.432 465.331 113.121 463.826 Q114.834 462.322 114.834 459.636 Q114.834 456.951 113.121 455.447 Q111.432 453.942 108.422 453.942 Q105.39 453.942 103.7 455.447 Q102.034 456.951 102.034 459.636 Z" fill="#000000" fill-rule="nonzero" fill-opacity="1" /><path clip-path="url(#clip730)" d="M63.2837 182.394 Q59.6726 182.394 57.8439 185.959 Q56.0384 189.501 56.0384 196.63 Q56.0384 203.737 57.8439 207.301 Q59.6726 210.843 63.2837 210.843 Q66.918 210.843 68.7235 207.301 Q70.5522 203.737 70.5522 196.63 Q70.5522 189.501 68.7235 185.959 Q66.918 182.394 63.2837 182.394 M63.2837 178.69 Q69.0939 178.69 72.1494 183.297 Q75.2281 187.88 75.2281 196.63 Q75.2281 205.357 72.1494 209.963 Q69.0939 214.547 63.2837 214.547 Q57.4736 214.547 54.3949 209.963 Q51.3393 205.357 51.3393 196.63 Q51.3393 187.88 54.3949 183.297 Q57.4736 178.69 63.2837 178.69 Z" fill="#000000" fill-rule="nonzero" fill-opacity="1" /><path clip-path="url(#clip730)" d="M83.4457 207.996 L88.3299 207.996 L88.3299 213.875 L83.4457 213.875 L83.4457 207.996 Z" fill="#000000" fill-rule="nonzero" fill-opacity="1" /><path clip-path="url(#clip730)" d="M98.6539 213.158 L98.6539 208.899 Q100.413 209.732 102.219 210.172 Q104.024 210.612 105.76 210.612 Q110.39 210.612 112.82 207.51 Q115.274 204.385 115.621 198.042 Q114.279 200.033 112.219 201.098 Q110.158 202.163 107.658 202.163 Q102.473 202.163 99.4409 199.038 Q96.4317 195.889 96.4317 190.45 Q96.4317 185.126 99.5798 181.908 Q102.728 178.69 107.959 178.69 Q113.955 178.69 117.103 183.297 Q120.274 187.88 120.274 196.63 Q120.274 204.801 116.385 209.686 Q112.52 214.547 105.969 214.547 Q104.209 214.547 102.404 214.2 Q100.598 213.852 98.6539 213.158 M107.959 198.505 Q111.108 198.505 112.936 196.352 Q114.788 194.2 114.788 190.45 Q114.788 186.723 112.936 184.57 Q111.108 182.394 107.959 182.394 Q104.811 182.394 102.959 184.57 Q101.131 186.723 101.131 190.45 Q101.131 194.2 102.959 196.352 Q104.811 198.505 107.959 198.505 Z" fill="#000000" fill-rule="nonzero" fill-opacity="1" /><polyline clip-path="url(#clip732)" style="stroke:#009af9; stroke-linecap:round; stroke-linejoin:round; stroke-width:4; stroke-opacity:1; fill:none" points="218.439,902.62 220.513,956.93 222.587,902.62 224.661,848.31 226.736,956.93 228.81,1174.17 230.884,1282.79 232.958,956.93 235.033,848.31 237.107,413.834 239.181,1065.55 241.255,1011.24 243.329,902.62 245.404,631.072 247.478,1174.17 249.552,902.62 251.626,902.62 253.701,956.93 255.775,739.691 257.849,739.691 259.923,1119.86 261.998,794.001 264.072,685.382 266.146,1011.24 268.22,956.93 270.294,848.31 272.369,685.382 274.443,956.93 276.517,1119.86 278.591,956.93 280.666,848.31 282.74,1011.24 284.814,1065.55 286.888,685.382 288.962,794.001 291.037,1065.55 293.111,576.762 295.185,685.382 297.259,1174.17 299.334,956.93 301.408,848.31 303.482,902.62 305.556,848.31 307.63,1011.24 309.705,1011.24 311.779,685.382 313.853,794.001 315.927,522.453 318.002,794.001 320.076,576.762 322.15,848.31 324.224,1119.86 326.299,1174.17 328.373,848.31 330.447,1011.24 332.521,739.691 334.595,902.62 336.67,1011.24 338.744,739.691 340.818,522.453 342.892,956.93 344.967,1228.48 347.041,1065.55 349.115,794.001 351.189,685.382 353.263,902.62 355.338,1119.86 357.412,631.072 359.486,956.93 361.56,902.62 363.635,956.93 365.709,794.001 367.783,1011.24 369.857,576.762 371.932,739.691 374.006,902.62 376.08,1065.55 378.154,1174.17 380.228,576.762 382.303,902.62 384.377,1011.24 386.451,1011.24 388.525,1174.17 390.6,739.691 392.674,1174.17 394.748,1119.86 396.822,468.143 398.896,739.691 400.971,685.382 403.045,902.62 405.119,1119.86 407.193,848.31 409.268,739.691 411.342,1011.24 413.416,739.691 415.49,794.001 417.565,739.691 419.639,1011.24 421.713,956.93 423.787,631.072 425.861,1065.55 427.936,1065.55 430.01,1174.17 432.084,1011.24 434.158,1065.55 436.233,739.691 438.307,956.93 440.381,739.691 442.455,848.31 444.529,956.93 446.604,1282.79 448.678,956.93 450.752,468.143 452.826,1282.79 454.901,956.93 456.975,956.93 459.049,1011.24 461.123,956.93 463.198,794.001 465.272,685.382 467.346,1174.17 469.42,1011.24 471.494,685.382 473.569,739.691 475.643,1011.24 477.717,956.93 479.791,739.691 481.866,902.62 483.94,794.001 486.014,1065.55 488.088,576.762 490.162,956.93 492.237,848.31 494.311,522.453 496.385,739.691 498.459,902.62 500.534,1119.86 502.608,956.93 504.682,794.001 506.756,794.001 508.83,794.001 510.905,848.31 512.979,685.382 515.053,1174.17 517.127,1011.24 519.202,739.691 521.276,848.31 523.35,413.834 525.424,739.691 527.499,739.691 529.573,1174.17 531.647,1065.55 533.721,685.382 535.795,794.001 537.87,631.072 539.944,848.31 542.018,794.001 544.092,848.31 546.167,848.31 548.241,739.691 550.315,1065.55 552.389,685.382 554.463,631.072 556.538,1065.55 558.612,1011.24 560.686,956.93 562.76,1011.24 564.835,685.382 566.909,685.382 568.983,848.31 571.057,848.31 573.132,739.691 575.206,576.762 577.28,794.001 579.354,468.143 581.428,631.072 583.503,522.453 585.577,1065.55 587.651,685.382 589.725,1011.24 591.8,794.001 593.874,631.072 595.948,739.691 598.022,1119.86 600.096,631.072 602.171,739.691 604.245,902.62 606.319,902.62 608.393,902.62 610.468,739.691 612.542,1174.17 614.616,739.691 616.69,848.31 618.765,956.93 620.839,631.072 622.913,794.001 624.987,631.072 627.061,794.001 629.136,631.072 631.21,1011.24 633.284,739.691 635.358,522.453 637.433,848.31 639.507,848.31 641.581,739.691 643.655,902.62 645.729,1011.24 647.804,1174.17 649.878,1445.72 651.952,1065.55 654.026,631.072 656.101,739.691 658.175,1011.24 660.249,413.834 662.323,739.691 664.398,848.31 666.472,956.93 668.546,956.93 670.62,1065.55 672.694,956.93 674.769,739.691 676.843,1119.86 678.917,1065.55 680.991,956.93 683.066,1011.24 685.14,794.001 687.214,1119.86 689.288,848.31 691.362,576.762 693.437,956.93 695.511,739.691 697.585,1011.24 699.659,522.453 701.734,902.62 703.808,1065.55 705.882,794.001 707.956,794.001 710.03,1119.86 712.105,902.62 714.179,956.93 716.253,956.93 718.327,902.62 720.402,1011.24 722.476,1065.55 724.55,576.762 726.624,739.691 728.699,739.691 730.773,1011.24 732.847,522.453 734.921,739.691 736.995,794.001 739.07,848.31 741.144,902.62 743.218,956.93 745.292,522.453 747.367,956.93 749.441,956.93 751.515,1174.17 753.589,1119.86 755.663,1011.24 757.738,685.382 759.812,576.762 761.886,1065.55 763.96,794.001 766.035,739.691 768.109,1011.24 770.183,902.62 772.257,956.93 774.332,739.691 776.406,902.62 778.48,794.001 780.554,794.001 782.628,902.62 784.703,739.691 786.777,848.31 788.851,1011.24 790.925,794.001 793,902.62 795.074,685.382 797.148,1011.24 799.222,902.62 801.296,631.072 803.371,1011.24 805.445,576.762 807.519,1119.86 809.593,1011.24 811.668,739.691 813.742,576.762 815.816,631.072 817.89,956.93 819.965,522.453 822.039,685.382 824.113,902.62 826.187,631.072 828.261,902.62 830.336,685.382 832.41,576.762 834.484,576.762 836.558,794.001 838.633,685.382 840.707,1011.24 842.781,576.762 844.855,902.62 846.929,739.691 849.004,902.62 851.078,902.62 853.152,1174.17 855.226,576.762 857.301,1119.86 859.375,685.382 861.449,794.001 863.523,902.62 865.598,956.93 867.672,739.691 869.746,1174.17 871.82,794.001 873.894,794.001 875.969,1011.24 878.043,631.072 880.117,305.215 882.191,794.001 884.266,848.31 886.34,685.382 888.414,848.31 890.488,576.762 892.562,902.62 894.637,848.31 896.711,1119.86 898.785,1119.86 900.859,685.382 902.934,631.072 905.008,848.31 907.082,794.001 909.156,794.001 911.23,685.382 913.305,794.001 915.379,685.382 917.453,794.001 919.527,685.382 921.602,794.001 923.676,685.382 925.75,794.001 927.824,1065.55 929.899,1011.24 931.973,1011.24 934.047,902.62 936.121,848.31 938.195,685.382 940.27,794.001 942.344,794.001 944.418,956.93 946.492,413.834 948.567,848.31 950.641,848.31 952.715,739.691 954.789,685.382 956.863,1011.24 958.938,1011.24 961.012,522.453 963.086,522.453 965.16,956.93 967.235,956.93 969.309,685.382 971.383,685.382 973.457,794.001 975.532,794.001 977.606,956.93 979.68,1119.86 981.754,685.382 983.828,794.001 985.903,739.691 987.977,468.143 990.051,685.382 992.125,739.691 994.2,631.072 996.274,794.001 998.348,902.62 1000.42,685.382 1002.5,1011.24 1004.57,468.143 1006.64,848.31 1008.72,794.001 1010.79,902.62 1012.87,413.834 1014.94,631.072 1017.02,522.453 1019.09,739.691 1021.16,794.001 1023.24,631.072 1025.31,739.691 1027.39,576.762 1029.46,848.31 1031.54,685.382 1033.61,739.691 1035.68,468.143 1037.76,902.62 1039.83,956.93 1041.91,956.93 1043.98,848.31 1046.06,576.762 1048.13,576.762 1050.2,739.691 1052.28,739.691 1054.35,522.453 1056.43,956.93 1058.5,576.762 1060.57,522.453 1062.65,794.001 1064.72,631.072 1066.8,902.62 1068.87,522.453 1070.95,902.62 1073.02,685.382 1075.09,631.072 1077.17,576.762 1079.24,631.072 1081.32,576.762 1083.39,848.31 1085.47,576.762 1087.54,739.691 1089.61,848.31 1091.69,576.762 1093.76,576.762 1095.84,522.453 1097.91,522.453 1099.99,522.453 1102.06,631.072 1104.13,631.072 1106.21,631.072 1108.28,739.691 1110.36,848.31 1112.43,794.001 1114.5,848.31 1116.58,794.001 1118.65,685.382 1120.73,685.382 1122.8,685.382 1124.88,956.93 1126.95,576.762 1129.02,956.93 1131.1,956.93 1133.17,956.93 1135.25,522.453 1137.32,848.31 1139.4,1065.55 1141.47,794.001 1143.54,631.072 1145.62,794.001 1147.69,1065.55 1149.77,631.072 1151.84,902.62 1153.92,685.382 1155.99,1065.55 1158.06,576.762 1160.14,739.691 1162.21,1011.24 1164.29,739.691 1166.36,794.001 1168.43,956.93 1170.51,631.072 1172.58,739.691 1174.66,739.691 1176.73,413.834 1178.81,739.691 1180.88,522.453 1182.95,522.453 1185.03,631.072 1187.1,685.382 1189.18,685.382 1191.25,685.382 1193.33,794.001 1195.4,522.453 1197.47,631.072 1199.55,413.834 1201.62,739.691 1203.7,631.072 1205.77,468.143 1207.84,631.072 1209.92,739.691 1211.99,956.93 1214.07,794.001 1216.14,739.691 1218.22,739.691 1220.29,468.143 1222.36,685.382 1224.44,848.31 1226.51,631.072 1228.59,685.382 1230.66,902.62 1232.74,576.762 1234.81,631.072 1236.88,522.453 1238.96,794.001 1241.03,685.382 1243.11,794.001 1245.18,576.762 1247.26,848.31 1249.33,413.834 1251.4,631.072 1253.48,739.691 1255.55,468.143 1257.63,685.382 1259.7,848.31 1261.77,1065.55 1263.85,1119.86 1265.92,631.072 1268,739.691 1270.07,794.001 1272.15,305.215 1274.22,1174.17 1276.29,631.072 1278.37,576.762 1280.44,739.691 1282.52,685.382 1284.59,685.382 1286.67,794.001 1288.74,848.31 1290.81,468.143 1292.89,576.762 1294.96,576.762 1297.04,1065.55 1299.11,794.001 1301.19,956.93 1303.26,1065.55 1305.33,468.143 1307.41,631.072 1309.48,848.31 1311.56,848.31 1313.63,739.691 1315.7,739.691 1317.78,685.382 1319.85,576.762 1321.93,848.31 1324,631.072 1326.08,359.524 1328.15,956.93 1330.22,631.072 1332.3,685.382 1334.37,739.691 1336.45,794.001 1338.52,902.62 1340.6,848.31 1342.67,685.382 1344.74,794.001 1346.82,848.31 1348.89,1065.55 1350.97,902.62 1353.04,794.001 1355.12,848.31 1357.19,794.001 1359.26,468.143 1361.34,685.382 1363.41,522.453 1365.49,739.691 1367.56,468.143 1369.63,522.453 1371.71,522.453 1373.78,468.143 1375.86,1011.24 1377.93,522.453 1380.01,522.453 1382.08,685.382 1384.15,794.001 1386.23,413.834 1388.3,739.691 1390.38,631.072 1392.45,631.072 1394.53,413.834 1396.6,413.834 1398.67,468.143 1400.75,848.31 1402.82,848.31 1404.9,739.691 1406.97,739.691 1409.04,956.93 1411.12,413.834 1413.19,576.762 1415.27,685.382 1417.34,956.93 1419.42,1011.24 1421.49,576.762 1423.56,902.62 1425.64,685.382 1427.71,956.93 1429.79,685.382 1431.86,631.072 1433.94,685.382 1436.01,902.62 1438.08,739.691 1440.16,631.072 1442.23,685.382 1444.31,522.453 1446.38,468.143 1448.46,413.834 1450.53,576.762 1452.6,1065.55 1454.68,685.382 1456.75,685.382 1458.83,522.453 1460.9,739.691 1462.97,902.62 1465.05,522.453 1467.12,250.905 1469.2,739.691 1471.27,631.072 1473.35,848.31 1475.42,956.93 1477.49,685.382 1479.57,359.524 1481.64,739.691 1483.72,522.453 1485.79,739.691 1487.87,359.524 1489.94,522.453 1492.01,576.762 1494.09,794.001 1496.16,413.834 1498.24,739.691 1500.31,739.691 1502.39,739.691 1504.46,794.001 1506.53,468.143 1508.61,576.762 1510.68,685.382 1512.76,413.834 1514.83,685.382 1516.9,468.143 1518.98,794.001 1521.05,685.382 1523.13,794.001 1525.2,794.001 1527.28,794.001 1529.35,685.382 1531.42,848.31 1533.5,413.834 1535.57,956.93 1537.65,848.31 1539.72,576.762 1541.8,631.072 1543.87,902.62 1545.94,794.001 1548.02,685.382 1550.09,576.762 1552.17,631.072 1554.24,468.143 1556.32,413.834 1558.39,902.62 1560.46,468.143 1562.54,522.453 1564.61,631.072 1566.69,576.762 1568.76,848.31 1570.83,522.453 1572.91,631.072 1574.98,685.382 1577.06,305.215 1579.13,794.001 1581.21,468.143 1583.28,305.215 1585.35,631.072 1587.43,848.31 1589.5,794.001 1591.58,359.524 1593.65,576.762 1595.73,739.691 1597.8,631.072 1599.87,631.072 1601.95,685.382 1604.02,848.31 1606.1,794.001 1608.17,631.072 1610.24,848.31 1612.32,956.93 1614.39,631.072 1616.47,739.691 1618.54,359.524 1620.62,522.453 1622.69,305.215 1624.76,631.072 1626.84,848.31 1628.91,739.691 1630.99,468.143 1633.06,522.453 1635.14,685.382 1637.21,902.62 1639.28,794.001 1641.36,902.62 1643.43,631.072 1645.51,631.072 1647.58,413.834 1649.66,794.001 1651.73,739.691 1653.8,576.762 1655.88,196.595 1657.95,848.31 1660.03,576.762 1662.1,685.382 1664.17,468.143 1666.25,522.453 1668.32,956.93 1670.4,631.072 1672.47,739.691 1674.55,739.691 1676.62,631.072 1678.69,576.762 1680.77,739.691 1682.84,468.143 1684.92,522.453 1686.99,576.762 1689.07,631.072 1691.14,576.762 1693.21,794.001 1695.29,576.762 1697.36,902.62 1699.44,794.001 1701.51,468.143 1703.59,685.382 1705.66,631.072 1707.73,739.691 1709.81,468.143 1711.88,468.143 1713.96,576.762 1716.03,576.762 1718.1,413.834 1720.18,848.31 1722.25,685.382 1724.33,631.072 1726.4,631.072 1728.48,739.691 1730.55,468.143 1732.62,685.382 1734.7,413.834 1736.77,794.001 1738.85,685.382 1740.92,522.453 1743,794.001 1745.07,522.453 1747.14,631.072 1749.22,576.762 1751.29,794.001 1753.37,413.834 1755.44,902.62 1757.52,576.762 1759.59,522.453 1761.66,576.762 1763.74,305.215 1765.81,522.453 1767.89,413.834 1769.96,739.691 1772.03,413.834 1774.11,685.382 1776.18,576.762 1778.26,522.453 1780.33,631.072 1782.41,631.072 1784.48,794.001 1786.55,413.834 1788.63,631.072 1790.7,631.072 1792.78,848.31 1794.85,250.905 1796.93,359.524 1799,413.834 1801.07,685.382 1803.15,359.524 1805.22,739.691 1807.3,739.691 1809.37,576.762 1811.44,468.143 1813.52,685.382 1815.59,305.215 1817.67,956.93 1819.74,631.072 1821.82,685.382 1823.89,468.143 1825.96,359.524 1828.04,305.215 1830.11,739.691 1832.19,413.834 1834.26,522.453 1836.34,685.382 1838.41,413.834 1840.48,576.762 1842.56,685.382 1844.63,794.001 1846.71,413.834 1848.78,576.762 1850.86,413.834 1852.93,576.762 1855,522.453 1857.08,902.62 1859.15,468.143 1861.23,739.691 1863.3,576.762 1865.37,685.382 1867.45,848.31 1869.52,468.143 1871.6,359.524 1873.67,631.072 1875.75,631.072 1877.82,522.453 1879.89,359.524 1881.97,576.762 1884.04,576.762 1886.12,522.453 1888.19,739.691 1890.27,631.072 1892.34,576.762 1894.41,631.072 1896.49,522.453 1898.56,848.31 1900.64,522.453 1902.71,576.762 1904.79,631.072 1906.86,522.453 1908.93,685.382 1911.01,522.453 1913.08,522.453 1915.16,576.762 1917.23,305.215 1919.3,956.93 1921.38,468.143 1923.45,468.143 1925.53,413.834 1927.6,576.762 1929.68,848.31 1931.75,631.072 1933.82,359.524 1935.9,631.072 1937.97,685.382 1940.05,576.762 1942.12,522.453 1944.2,196.595 1946.27,359.524 1948.34,359.524 1950.42,739.691 1952.49,413.834 1954.57,468.143 1956.64,359.524 1958.72,576.762 1960.79,576.762 1962.86,685.382 1964.94,413.834 1967.01,576.762 1969.09,739.691 1971.16,685.382 1973.23,739.691 1975.31,522.453 1977.38,413.834 1979.46,468.143 1981.53,413.834 1983.61,468.143 1985.68,468.143 1987.75,794.001 1989.83,739.691 1991.9,631.072 1993.98,196.595 1996.05,902.62 1998.13,359.524 2000.2,631.072 2002.27,576.762 2004.35,413.834 2006.42,576.762 2008.5,413.834 2010.57,413.834 2012.64,413.834 2014.72,142.286 2016.79,468.143 2018.87,359.524 2020.94,685.382 2023.02,522.453 2025.09,359.524 2027.16,576.762 2029.24,250.905 2031.31,413.834 2033.39,794.001 2035.46,576.762 2037.54,413.834 2039.61,359.524 2041.68,631.072 2043.76,848.31 2045.83,468.143 2047.91,576.762 2049.98,359.524 2052.06,413.834 2054.13,631.072 2056.2,359.524 2058.28,631.072 2060.35,576.762 2062.43,685.382 2064.5,305.215 2066.57,522.453 2068.65,413.834 2070.72,522.453 2072.8,413.834 2074.87,359.524 2076.95,739.691 2079.02,739.691 2081.09,359.524 2083.17,468.143 2085.24,631.072 2087.32,522.453 2089.39,576.762 2091.47,685.382 2093.54,576.762 2095.61,631.072 2097.69,305.215 2099.76,359.524 2101.84,794.001 2103.91,468.143 2105.99,359.524 2108.06,413.834 2110.13,305.215 2112.21,794.001 2114.28,522.453 2116.36,413.834 2118.43,576.762 2120.5,359.524 2122.58,522.453 2124.65,413.834 2126.73,685.382 2128.8,522.453 2130.88,305.215 2132.95,413.834 2135.02,522.453 2137.1,522.453 2139.17,468.143 2141.25,522.453 2143.32,250.905 2145.4,685.382 2147.47,413.834 2149.54,522.453 2151.62,468.143 2153.69,631.072 2155.77,468.143 2157.84,468.143 2159.92,468.143 2161.99,794.001 2164.06,468.143 2166.14,359.524 2168.21,739.691 2170.29,413.834 2172.36,685.382 2174.43,468.143 2176.51,468.143 2178.58,522.453 2180.66,685.382 2182.73,631.072 2184.81,87.9763 2186.88,576.762 2188.95,413.834 2191.03,576.762 2193.1,685.382 2195.18,468.143 2197.25,250.905 2199.33,739.691 2201.4,250.905 2203.47,413.834 2205.55,468.143 2207.62,468.143 2209.7,359.524 2211.77,685.382 2213.84,468.143 2215.92,522.453 2217.99,413.834 2220.07,631.072 2222.14,468.143 2224.22,413.834 2226.29,359.524 2228.36,359.524 2230.44,522.453 2232.51,196.595 2234.59,359.524 2236.66,522.453 2238.74,522.453 2240.81,413.834 2242.88,413.834 2244.96,468.143 2247.03,522.453 2249.11,576.762 2251.18,685.382 2253.26,413.834 2255.33,305.215 2257.4,631.072 2259.48,413.834 2261.55,522.453 2263.63,359.524 2265.7,902.62 2267.77,468.143 2269.85,413.834 2271.92,522.453 2274,631.072 2276.07,468.143 2278.15,468.143 2280.22,631.072 2282.29,576.762 2284.37,468.143 2286.44,250.905 2288.52,468.143 2290.59,902.62 "/>
<path clip-path="url(#clip730)" d="M229.49 198.898 L501.569 198.898 L501.569 95.2176 L229.49 95.2176  Z" fill="#ffffff" fill-rule="evenodd" fill-opacity="1"/>
<polyline clip-path="url(#clip730)" style="stroke:#000000; stroke-linecap:round; stroke-linejoin:round; stroke-width:4; stroke-opacity:1; fill:none" points="229.49,198.898 501.569,198.898 501.569,95.2176 229.49,95.2176 229.49,198.898 "/>
<polyline clip-path="url(#clip730)" style="stroke:#009af9; stroke-linecap:round; stroke-linejoin:round; stroke-width:4; stroke-opacity:1; fill:none" points="253.896,147.058 400.328,147.058 "/>
<path clip-path="url(#clip730)" d="M438.576 166.745 Q436.77 171.375 435.057 172.787 Q433.344 174.199 430.474 174.199 L427.071 174.199 L427.071 170.634 L429.571 170.634 Q431.33 170.634 432.302 169.8 Q433.275 168.967 434.455 165.865 L435.219 163.921 L424.733 138.412 L429.247 138.412 L437.349 158.689 L445.451 138.412 L449.964 138.412 L438.576 166.745 Z" fill="#000000" fill-rule="nonzero" fill-opacity="1" /><path clip-path="url(#clip730)" d="M457.256 160.402 L464.895 160.402 L464.895 134.037 L456.585 135.703 L456.585 131.444 L464.849 129.778 L469.524 129.778 L469.524 160.402 L477.163 160.402 L477.163 164.338 L457.256 164.338 L457.256 160.402 Z" fill="#000000" fill-rule="nonzero" fill-opacity="1" /></svg>
