<?xml version="1.0" encoding="utf-8"?>
<svg xmlns="http://www.w3.org/2000/svg" xmlns:xlink="http://www.w3.org/1999/xlink" width="600" height="400" viewBox="0 0 2400 1600">
<defs>
  <clipPath id="clip230">
    <rect x="0" y="0" width="2400" height="1600"/>
  </clipPath>
</defs>
<path clip-path="url(#clip230)" d="M0 1600 L2400 1600 L2400 0 L0 0  Z" fill="#ffffff" fill-rule="evenodd" fill-opacity="1"/>
<defs>
  <clipPath id="clip231">
    <rect x="480" y="0" width="1681" height="1600"/>
  </clipPath>
</defs>
<path clip-path="url(#clip230)" d="M141.853 1486.45 L2352.76 1486.45 L2352.76 47.2441 L141.853 47.2441  Z" fill="#ffffff" fill-rule="evenodd" fill-opacity="1"/>
<defs>
  <clipPath id="clip232">
    <rect x="141" y="47" width="2212" height="1440"/>
  </clipPath>
</defs>
<polyline clip-path="url(#clip232)" style="stroke:#000000; stroke-linecap:round; stroke-linejoin:round; stroke-width:2; stroke-opacity:0.1; fill:none" points="204.426,1486.45 204.426,47.2441 "/>
<polyline clip-path="url(#clip232)" style="stroke:#000000; stroke-linecap:round; stroke-linejoin:round; stroke-width:2; stroke-opacity:0.1; fill:none" points="725.865,1486.45 725.865,47.2441 "/>
<polyline clip-path="url(#clip232)" style="stroke:#000000; stroke-linecap:round; stroke-linejoin:round; stroke-width:2; stroke-opacity:0.1; fill:none" points="1247.3,1486.45 1247.3,47.2441 "/>
<polyline clip-path="url(#clip232)" style="stroke:#000000; stroke-linecap:round; stroke-linejoin:round; stroke-width:2; stroke-opacity:0.1; fill:none" points="1768.74,1486.45 1768.74,47.2441 "/>
<polyline clip-path="url(#clip232)" style="stroke:#000000; stroke-linecap:round; stroke-linejoin:round; stroke-width:2; stroke-opacity:0.1; fill:none" points="2290.18,1486.45 2290.18,47.2441 "/>
<polyline clip-path="url(#clip230)" style="stroke:#000000; stroke-linecap:round; stroke-linejoin:round; stroke-width:4; stroke-opacity:1; fill:none" points="141.853,1486.45 2352.76,1486.45 "/>
<polyline clip-path="url(#clip230)" style="stroke:#000000; stroke-linecap:round; stroke-linejoin:round; stroke-width:4; stroke-opacity:1; fill:none" points="204.426,1486.45 204.426,1467.55 "/>
<polyline clip-path="url(#clip230)" style="stroke:#000000; stroke-linecap:round; stroke-linejoin:round; stroke-width:4; stroke-opacity:1; fill:none" points="725.865,1486.45 725.865,1467.55 "/>
<polyline clip-path="url(#clip230)" style="stroke:#000000; stroke-linecap:round; stroke-linejoin:round; stroke-width:4; stroke-opacity:1; fill:none" points="1247.3,1486.45 1247.3,1467.55 "/>
<polyline clip-path="url(#clip230)" style="stroke:#000000; stroke-linecap:round; stroke-linejoin:round; stroke-width:4; stroke-opacity:1; fill:none" points="1768.74,1486.45 1768.74,1467.55 "/>
<polyline clip-path="url(#clip230)" style="stroke:#000000; stroke-linecap:round; stroke-linejoin:round; stroke-width:4; stroke-opacity:1; fill:none" points="2290.18,1486.45 2290.18,1467.55 "/>
<path clip-path="url(#clip230)" d="M204.426 1517.37 Q200.815 1517.37 198.986 1520.93 Q197.18 1524.47 197.18 1531.6 Q197.18 1538.71 198.986 1542.27 Q200.815 1545.82 204.426 1545.82 Q208.06 1545.82 209.865 1542.27 Q211.694 1538.71 211.694 1531.6 Q211.694 1524.47 209.865 1520.93 Q208.06 1517.37 204.426 1517.37 M204.426 1513.66 Q210.236 1513.66 213.291 1518.27 Q216.37 1522.85 216.37 1531.6 Q216.37 1540.33 213.291 1544.94 Q210.236 1549.52 204.426 1549.52 Q198.616 1549.52 195.537 1544.94 Q192.481 1540.33 192.481 1531.6 Q192.481 1522.85 195.537 1518.27 Q198.616 1513.66 204.426 1513.66 Z" fill="#000000" fill-rule="nonzero" fill-opacity="1" /><path clip-path="url(#clip230)" d="M685.483 1514.29 L703.84 1514.29 L703.84 1518.22 L689.766 1518.22 L689.766 1526.7 Q690.784 1526.35 691.803 1526.19 Q692.821 1526 693.84 1526 Q699.627 1526 703.006 1529.17 Q706.386 1532.34 706.386 1537.76 Q706.386 1543.34 702.914 1546.44 Q699.442 1549.52 693.122 1549.52 Q690.946 1549.52 688.678 1549.15 Q686.432 1548.78 684.025 1548.04 L684.025 1543.34 Q686.108 1544.47 688.331 1545.03 Q690.553 1545.58 693.03 1545.58 Q697.034 1545.58 699.372 1543.48 Q701.71 1541.37 701.71 1537.76 Q701.71 1534.15 699.372 1532.04 Q697.034 1529.94 693.03 1529.94 Q691.155 1529.94 689.28 1530.35 Q687.428 1530.77 685.483 1531.65 L685.483 1514.29 Z" fill="#000000" fill-rule="nonzero" fill-opacity="1" /><path clip-path="url(#clip230)" d="M725.599 1517.37 Q721.988 1517.37 720.159 1520.93 Q718.354 1524.47 718.354 1531.6 Q718.354 1538.71 720.159 1542.27 Q721.988 1545.82 725.599 1545.82 Q729.233 1545.82 731.039 1542.27 Q732.867 1538.71 732.867 1531.6 Q732.867 1524.47 731.039 1520.93 Q729.233 1517.37 725.599 1517.37 M725.599 1513.66 Q731.409 1513.66 734.465 1518.27 Q737.543 1522.85 737.543 1531.6 Q737.543 1540.33 734.465 1544.94 Q731.409 1549.52 725.599 1549.52 Q719.789 1549.52 716.71 1544.94 Q713.654 1540.33 713.654 1531.6 Q713.654 1522.85 716.71 1518.27 Q719.789 1513.66 725.599 1513.66 Z" fill="#000000" fill-rule="nonzero" fill-opacity="1" /><path clip-path="url(#clip230)" d="M755.761 1517.37 Q752.15 1517.37 750.321 1520.93 Q748.515 1524.47 748.515 1531.6 Q748.515 1538.71 750.321 1542.27 Q752.15 1545.82 755.761 1545.82 Q759.395 1545.82 761.201 1542.27 Q763.029 1538.71 763.029 1531.6 Q763.029 1524.47 761.201 1520.93 Q759.395 1517.37 755.761 1517.37 M755.761 1513.66 Q761.571 1513.66 764.626 1518.27 Q767.705 1522.85 767.705 1531.6 Q767.705 1540.33 764.626 1544.94 Q761.571 1549.52 755.761 1549.52 Q749.951 1549.52 746.872 1544.94 Q743.816 1540.33 743.816 1531.6 Q743.816 1522.85 746.872 1518.27 Q749.951 1513.66 755.761 1513.66 Z" fill="#000000" fill-rule="nonzero" fill-opacity="1" /><path clip-path="url(#clip230)" d="M1191.83 1544.91 L1199.47 1544.91 L1199.47 1518.55 L1191.16 1520.21 L1191.16 1515.95 L1199.42 1514.29 L1204.1 1514.29 L1204.1 1544.91 L1211.74 1544.91 L1211.74 1548.85 L1191.83 1548.85 L1191.83 1544.91 Z" fill="#000000" fill-rule="nonzero" fill-opacity="1" /><path clip-path="url(#clip230)" d="M1231.18 1517.37 Q1227.57 1517.37 1225.74 1520.93 Q1223.94 1524.47 1223.94 1531.6 Q1223.94 1538.71 1225.74 1542.27 Q1227.57 1545.82 1231.18 1545.82 Q1234.82 1545.82 1236.62 1542.27 Q1238.45 1538.71 1238.45 1531.6 Q1238.45 1524.47 1236.62 1520.93 Q1234.82 1517.37 1231.18 1517.37 M1231.18 1513.66 Q1236.99 1513.66 1240.05 1518.27 Q1243.13 1522.85 1243.13 1531.6 Q1243.13 1540.33 1240.05 1544.94 Q1236.99 1549.52 1231.18 1549.52 Q1225.37 1549.52 1222.29 1544.94 Q1219.24 1540.33 1219.24 1531.6 Q1219.24 1522.85 1222.29 1518.27 Q1225.37 1513.66 1231.18 1513.66 Z" fill="#000000" fill-rule="nonzero" fill-opacity="1" /><path clip-path="url(#clip230)" d="M1261.34 1517.37 Q1257.73 1517.37 1255.9 1520.93 Q1254.1 1524.47 1254.1 1531.6 Q1254.1 1538.71 1255.9 1542.27 Q1257.73 1545.82 1261.34 1545.82 Q1264.98 1545.82 1266.78 1542.27 Q1268.61 1538.71 1268.61 1531.6 Q1268.61 1524.47 1266.78 1520.93 Q1264.98 1517.37 1261.34 1517.37 M1261.34 1513.66 Q1267.15 1513.66 1270.21 1518.27 Q1273.29 1522.85 1273.29 1531.6 Q1273.29 1540.33 1270.21 1544.94 Q1267.15 1549.52 1261.34 1549.52 Q1255.53 1549.52 1252.45 1544.94 Q1249.4 1540.33 1249.4 1531.6 Q1249.4 1522.85 1252.45 1518.27 Q1255.53 1513.66 1261.34 1513.66 Z" fill="#000000" fill-rule="nonzero" fill-opacity="1" /><path clip-path="url(#clip230)" d="M1291.51 1517.37 Q1287.89 1517.37 1286.07 1520.93 Q1284.26 1524.47 1284.26 1531.6 Q1284.26 1538.71 1286.07 1542.27 Q1287.89 1545.82 1291.51 1545.82 Q1295.14 1545.82 1296.95 1542.27 Q1298.77 1538.71 1298.77 1531.6 Q1298.77 1524.47 1296.95 1520.93 Q1295.14 1517.37 1291.51 1517.37 M1291.51 1513.66 Q1297.32 1513.66 1300.37 1518.27 Q1303.45 1522.85 1303.45 1531.6 Q1303.45 1540.33 1300.37 1544.94 Q1297.32 1549.52 1291.51 1549.52 Q1285.7 1549.52 1282.62 1544.94 Q1279.56 1540.33 1279.56 1531.6 Q1279.56 1522.85 1282.62 1518.27 Q1285.7 1513.66 1291.51 1513.66 Z" fill="#000000" fill-rule="nonzero" fill-opacity="1" /><path clip-path="url(#clip230)" d="M1713.27 1544.91 L1720.91 1544.91 L1720.91 1518.55 L1712.6 1520.21 L1712.6 1515.95 L1720.86 1514.29 L1725.54 1514.29 L1725.54 1544.91 L1733.18 1544.91 L1733.18 1548.85 L1713.27 1548.85 L1713.27 1544.91 Z" fill="#000000" fill-rule="nonzero" fill-opacity="1" /><path clip-path="url(#clip230)" d="M1742.67 1514.29 L1761.02 1514.29 L1761.02 1518.22 L1746.95 1518.22 L1746.95 1526.7 Q1747.97 1526.35 1748.99 1526.19 Q1750.01 1526 1751.02 1526 Q1756.81 1526 1760.19 1529.17 Q1763.57 1532.34 1763.57 1537.76 Q1763.57 1543.34 1760.1 1546.44 Q1756.63 1549.52 1750.31 1549.52 Q1748.13 1549.52 1745.86 1549.15 Q1743.62 1548.78 1741.21 1548.04 L1741.21 1543.34 Q1743.29 1544.47 1745.51 1545.03 Q1747.74 1545.58 1750.21 1545.58 Q1754.22 1545.58 1756.56 1543.48 Q1758.89 1541.37 1758.89 1537.76 Q1758.89 1534.15 1756.56 1532.04 Q1754.22 1529.94 1750.21 1529.94 Q1748.34 1529.94 1746.46 1530.35 Q1744.61 1530.77 1742.67 1531.65 L1742.67 1514.29 Z" fill="#000000" fill-rule="nonzero" fill-opacity="1" /><path clip-path="url(#clip230)" d="M1782.78 1517.37 Q1779.17 1517.37 1777.34 1520.93 Q1775.54 1524.47 1775.54 1531.6 Q1775.54 1538.71 1777.34 1542.27 Q1779.17 1545.82 1782.78 1545.82 Q1786.42 1545.82 1788.22 1542.27 Q1790.05 1538.71 1790.05 1531.6 Q1790.05 1524.47 1788.22 1520.93 Q1786.42 1517.37 1782.78 1517.37 M1782.78 1513.66 Q1788.59 1513.66 1791.65 1518.27 Q1794.73 1522.85 1794.73 1531.6 Q1794.73 1540.33 1791.65 1544.94 Q1788.59 1549.52 1782.78 1549.52 Q1776.97 1549.52 1773.89 1544.94 Q1770.84 1540.33 1770.84 1531.6 Q1770.84 1522.85 1773.89 1518.27 Q1776.97 1513.66 1782.78 1513.66 Z" fill="#000000" fill-rule="nonzero" fill-opacity="1" /><path clip-path="url(#clip230)" d="M1812.94 1517.37 Q1809.33 1517.37 1807.51 1520.93 Q1805.7 1524.47 1805.7 1531.6 Q1805.7 1538.71 1807.51 1542.27 Q1809.33 1545.82 1812.94 1545.82 Q1816.58 1545.82 1818.38 1542.27 Q1820.21 1538.71 1820.21 1531.6 Q1820.21 1524.47 1818.38 1520.93 Q1816.58 1517.37 1812.94 1517.37 M1812.94 1513.66 Q1818.76 1513.66 1821.81 1518.27 Q1824.89 1522.85 1824.89 1531.6 Q1824.89 1540.33 1821.81 1544.94 Q1818.76 1549.52 1812.94 1549.52 Q1807.13 1549.52 1804.06 1544.94 Q1801 1540.33 1801 1531.6 Q1801 1522.85 1804.06 1518.27 Q1807.13 1513.66 1812.94 1513.66 Z" fill="#000000" fill-rule="nonzero" fill-opacity="1" /><path clip-path="url(#clip230)" d="M2238.79 1544.91 L2255.11 1544.91 L2255.11 1548.85 L2233.17 1548.85 L2233.17 1544.91 Q2235.83 1542.16 2240.41 1537.53 Q2245.02 1532.88 2246.2 1531.53 Q2248.45 1529.01 2249.33 1527.27 Q2250.23 1525.51 2250.23 1523.82 Q2250.23 1521.07 2248.29 1519.33 Q2246.36 1517.6 2243.26 1517.6 Q2241.06 1517.6 2238.61 1518.36 Q2236.18 1519.13 2233.4 1520.68 L2233.4 1515.95 Q2236.23 1514.82 2238.68 1514.24 Q2241.13 1513.66 2243.17 1513.66 Q2248.54 1513.66 2251.73 1516.35 Q2254.93 1519.03 2254.93 1523.52 Q2254.93 1525.65 2254.12 1527.57 Q2253.33 1529.47 2251.23 1532.07 Q2250.65 1532.74 2247.54 1535.95 Q2244.44 1539.15 2238.79 1544.91 Z" fill="#000000" fill-rule="nonzero" fill-opacity="1" /><path clip-path="url(#clip230)" d="M2274.93 1517.37 Q2271.32 1517.37 2269.49 1520.93 Q2267.68 1524.47 2267.68 1531.6 Q2267.68 1538.71 2269.49 1542.27 Q2271.32 1545.82 2274.93 1545.82 Q2278.56 1545.82 2280.37 1542.27 Q2282.2 1538.71 2282.2 1531.6 Q2282.2 1524.47 2280.37 1520.93 Q2278.56 1517.37 2274.93 1517.37 M2274.93 1513.66 Q2280.74 1513.66 2283.79 1518.27 Q2286.87 1522.85 2286.87 1531.6 Q2286.87 1540.33 2283.79 1544.94 Q2280.74 1549.52 2274.93 1549.52 Q2269.12 1549.52 2266.04 1544.94 Q2262.98 1540.33 2262.98 1531.6 Q2262.98 1522.85 2266.04 1518.27 Q2269.12 1513.66 2274.93 1513.66 Z" fill="#000000" fill-rule="nonzero" fill-opacity="1" /><path clip-path="url(#clip230)" d="M2305.09 1517.37 Q2301.48 1517.37 2299.65 1520.93 Q2297.85 1524.47 2297.85 1531.6 Q2297.85 1538.71 2299.65 1542.27 Q2301.48 1545.82 2305.09 1545.82 Q2308.72 1545.82 2310.53 1542.27 Q2312.36 1538.71 2312.36 1531.6 Q2312.36 1524.47 2310.53 1520.93 Q2308.72 1517.37 2305.09 1517.37 M2305.09 1513.66 Q2310.9 1513.66 2313.96 1518.27 Q2317.03 1522.85 2317.03 1531.6 Q2317.03 1540.33 2313.96 1544.94 Q2310.9 1549.52 2305.09 1549.52 Q2299.28 1549.52 2296.2 1544.94 Q2293.15 1540.33 2293.15 1531.6 Q2293.15 1522.85 2296.2 1518.27 Q2299.28 1513.66 2305.09 1513.66 Z" fill="#000000" fill-rule="nonzero" fill-opacity="1" /><path clip-path="url(#clip230)" d="M2335.25 1517.37 Q2331.64 1517.37 2329.81 1520.93 Q2328.01 1524.47 2328.01 1531.6 Q2328.01 1538.71 2329.81 1542.27 Q2331.64 1545.82 2335.25 1545.82 Q2338.89 1545.82 2340.69 1542.27 Q2342.52 1538.71 2342.52 1531.6 Q2342.52 1524.47 2340.69 1520.93 Q2338.89 1517.37 2335.25 1517.37 M2335.25 1513.66 Q2341.06 1513.66 2344.12 1518.27 Q2347.2 1522.85 2347.2 1531.6 Q2347.2 1540.33 2344.12 1544.94 Q2341.06 1549.52 2335.25 1549.52 Q2329.44 1549.52 2326.36 1544.94 Q2323.31 1540.33 2323.31 1531.6 Q2323.31 1522.85 2326.36 1518.27 Q2329.44 1513.66 2335.25 1513.66 Z" fill="#000000" fill-rule="nonzero" fill-opacity="1" /><polyline clip-path="url(#clip232)" style="stroke:#000000; stroke-linecap:round; stroke-linejoin:round; stroke-width:2; stroke-opacity:0.1; fill:none" points="141.853,1299.44 2352.76,1299.44 "/>
<polyline clip-path="url(#clip232)" style="stroke:#000000; stroke-linecap:round; stroke-linejoin:round; stroke-width:2; stroke-opacity:0.1; fill:none" points="141.853,1020.14 2352.76,1020.14 "/>
<polyline clip-path="url(#clip232)" style="stroke:#000000; stroke-linecap:round; stroke-linejoin:round; stroke-width:2; stroke-opacity:0.1; fill:none" points="141.853,740.848 2352.76,740.848 "/>
<polyline clip-path="url(#clip232)" style="stroke:#000000; stroke-linecap:round; stroke-linejoin:round; stroke-width:2; stroke-opacity:0.1; fill:none" points="141.853,461.552 2352.76,461.552 "/>
<polyline clip-path="url(#clip232)" style="stroke:#000000; stroke-linecap:round; stroke-linejoin:round; stroke-width:2; stroke-opacity:0.1; fill:none" points="141.853,182.255 2352.76,182.255 "/>
<polyline clip-path="url(#clip230)" style="stroke:#000000; stroke-linecap:round; stroke-linejoin:round; stroke-width:4; stroke-opacity:1; fill:none" points="141.853,1486.45 141.853,47.2441 "/>
<polyline clip-path="url(#clip230)" style="stroke:#000000; stroke-linecap:round; stroke-linejoin:round; stroke-width:4; stroke-opacity:1; fill:none" points="141.853,1299.44 160.751,1299.44 "/>
<polyline clip-path="url(#clip230)" style="stroke:#000000; stroke-linecap:round; stroke-linejoin:round; stroke-width:4; stroke-opacity:1; fill:none" points="141.853,1020.14 160.751,1020.14 "/>
<polyline clip-path="url(#clip230)" style="stroke:#000000; stroke-linecap:round; stroke-linejoin:round; stroke-width:4; stroke-opacity:1; fill:none" points="141.853,740.848 160.751,740.848 "/>
<polyline clip-path="url(#clip230)" style="stroke:#000000; stroke-linecap:round; stroke-linejoin:round; stroke-width:4; stroke-opacity:1; fill:none" points="141.853,461.552 160.751,461.552 "/>
<polyline clip-path="url(#clip230)" style="stroke:#000000; stroke-linecap:round; stroke-linejoin:round; stroke-width:4; stroke-opacity:1; fill:none" points="141.853,182.255 160.751,182.255 "/>
<path clip-path="url(#clip230)" d="M54.5569 1312.79 L62.1958 1312.79 L62.1958 1286.42 L53.8856 1288.09 L53.8856 1283.83 L62.1495 1282.16 L66.8254 1282.16 L66.8254 1312.79 L74.4642 1312.79 L74.4642 1316.72 L54.5569 1316.72 L54.5569 1312.79 Z" fill="#000000" fill-rule="nonzero" fill-opacity="1" /><path clip-path="url(#clip230)" d="M93.9086 1285.24 Q90.2975 1285.24 88.4688 1288.8 Q86.6632 1292.35 86.6632 1299.48 Q86.6632 1306.58 88.4688 1310.15 Q90.2975 1313.69 93.9086 1313.69 Q97.5428 1313.69 99.3483 1310.15 Q101.177 1306.58 101.177 1299.48 Q101.177 1292.35 99.3483 1288.8 Q97.5428 1285.24 93.9086 1285.24 M93.9086 1281.54 Q99.7187 1281.54 102.774 1286.14 Q105.853 1290.73 105.853 1299.48 Q105.853 1308.2 102.774 1312.81 Q99.7187 1317.39 93.9086 1317.39 Q88.0984 1317.39 85.0197 1312.81 Q81.9642 1308.2 81.9642 1299.48 Q81.9642 1290.73 85.0197 1286.14 Q88.0984 1281.54 93.9086 1281.54 Z" fill="#000000" fill-rule="nonzero" fill-opacity="1" /><path clip-path="url(#clip230)" d="M57.7745 1033.49 L74.0939 1033.49 L74.0939 1037.42 L52.1495 1037.42 L52.1495 1033.49 Q54.8115 1030.73 59.3949 1026.11 Q64.0013 1021.45 65.1819 1020.11 Q67.4272 1017.59 68.3068 1015.85 Q69.2096 1014.09 69.2096 1012.4 Q69.2096 1009.65 67.2652 1007.91 Q65.3439 1006.17 62.2421 1006.17 Q60.043 1006.17 57.5893 1006.94 Q55.1588 1007.7 52.381 1009.25 L52.381 1004.53 Q55.2051 1003.4 57.6588 1002.82 Q60.1124 1002.24 62.1495 1002.24 Q67.5198 1002.24 70.7142 1004.92 Q73.9087 1007.61 73.9087 1012.1 Q73.9087 1014.23 73.0985 1016.15 Q72.3115 1018.05 70.205 1020.64 Q69.6263 1021.31 66.5245 1024.53 Q63.4226 1027.73 57.7745 1033.49 Z" fill="#000000" fill-rule="nonzero" fill-opacity="1" /><path clip-path="url(#clip230)" d="M93.9086 1005.94 Q90.2975 1005.94 88.4688 1009.51 Q86.6632 1013.05 86.6632 1020.18 Q86.6632 1027.29 88.4688 1030.85 Q90.2975 1034.39 93.9086 1034.39 Q97.5428 1034.39 99.3483 1030.85 Q101.177 1027.29 101.177 1020.18 Q101.177 1013.05 99.3483 1009.51 Q97.5428 1005.94 93.9086 1005.94 M93.9086 1002.24 Q99.7187 1002.24 102.774 1006.85 Q105.853 1011.43 105.853 1020.18 Q105.853 1028.91 102.774 1033.51 Q99.7187 1038.1 93.9086 1038.1 Q88.0984 1038.1 85.0197 1033.51 Q81.9642 1028.91 81.9642 1020.18 Q81.9642 1011.43 85.0197 1006.85 Q88.0984 1002.24 93.9086 1002.24 Z" fill="#000000" fill-rule="nonzero" fill-opacity="1" /><path clip-path="url(#clip230)" d="M67.9133 739.494 Q71.2698 740.212 73.1448 742.48 Q75.0429 744.749 75.0429 748.082 Q75.0429 753.198 71.5244 755.998 Q68.0059 758.799 61.5245 758.799 Q59.3486 758.799 57.0338 758.36 Q54.7421 757.943 52.2884 757.086 L52.2884 752.573 Q54.2328 753.707 56.5477 754.286 Q58.8625 754.864 61.3856 754.864 Q65.7837 754.864 68.0754 753.128 Q70.3902 751.392 70.3902 748.082 Q70.3902 745.026 68.2374 743.313 Q66.1078 741.577 62.2884 741.577 L58.2606 741.577 L58.2606 737.735 L62.4735 737.735 Q65.9226 737.735 67.7513 736.369 Q69.58 734.98 69.58 732.387 Q69.58 729.725 67.6819 728.313 Q65.8069 726.878 62.2884 726.878 Q60.3671 726.878 58.168 727.295 Q55.969 727.712 53.3301 728.591 L53.3301 724.425 Q55.9921 723.684 58.3069 723.313 Q60.6449 722.943 62.705 722.943 Q68.0291 722.943 71.1309 725.374 Q74.2327 727.781 74.2327 731.901 Q74.2327 734.772 72.5892 736.762 Q70.9457 738.73 67.9133 739.494 Z" fill="#000000" fill-rule="nonzero" fill-opacity="1" /><path clip-path="url(#clip230)" d="M93.9086 726.647 Q90.2975 726.647 88.4688 730.212 Q86.6632 733.753 86.6632 740.883 Q86.6632 747.989 88.4688 751.554 Q90.2975 755.096 93.9086 755.096 Q97.5428 755.096 99.3483 751.554 Q101.177 747.989 101.177 740.883 Q101.177 733.753 99.3483 730.212 Q97.5428 726.647 93.9086 726.647 M93.9086 722.943 Q99.7187 722.943 102.774 727.55 Q105.853 732.133 105.853 740.883 Q105.853 749.61 102.774 754.216 Q99.7187 758.799 93.9086 758.799 Q88.0984 758.799 85.0197 754.216 Q81.9642 749.61 81.9642 740.883 Q81.9642 732.133 85.0197 727.55 Q88.0984 722.943 93.9086 722.943 Z" fill="#000000" fill-rule="nonzero" fill-opacity="1" /><path clip-path="url(#clip230)" d="M66.5939 448.346 L54.7884 466.795 L66.5939 466.795 L66.5939 448.346 M65.367 444.272 L71.2466 444.272 L71.2466 466.795 L76.1772 466.795 L76.1772 470.683 L71.2466 470.683 L71.2466 478.832 L66.5939 478.832 L66.5939 470.683 L50.9921 470.683 L50.9921 466.17 L65.367 444.272 Z" fill="#000000" fill-rule="nonzero" fill-opacity="1" /><path clip-path="url(#clip230)" d="M93.9086 447.35 Q90.2975 447.35 88.4688 450.915 Q86.6632 454.457 86.6632 461.586 Q86.6632 468.693 88.4688 472.258 Q90.2975 475.799 93.9086 475.799 Q97.5428 475.799 99.3483 472.258 Q101.177 468.693 101.177 461.586 Q101.177 454.457 99.3483 450.915 Q97.5428 447.35 93.9086 447.35 M93.9086 443.647 Q99.7187 443.647 102.774 448.253 Q105.853 452.836 105.853 461.586 Q105.853 470.313 102.774 474.92 Q99.7187 479.503 93.9086 479.503 Q88.0984 479.503 85.0197 474.92 Q81.9642 470.313 81.9642 461.586 Q81.9642 452.836 85.0197 448.253 Q88.0984 443.647 93.9086 443.647 Z" fill="#000000" fill-rule="nonzero" fill-opacity="1" /><path clip-path="url(#clip230)" d="M53.793 164.975 L72.1494 164.975 L72.1494 168.91 L58.0754 168.91 L58.0754 177.382 Q59.0939 177.035 60.1124 176.873 Q61.131 176.688 62.1495 176.688 Q67.9365 176.688 71.3161 179.859 Q74.6957 183.031 74.6957 188.447 Q74.6957 194.026 71.2235 197.128 Q67.7513 200.206 61.4319 200.206 Q59.256 200.206 56.9875 199.836 Q54.7421 199.466 52.3347 198.725 L52.3347 194.026 Q54.418 195.16 56.6402 195.716 Q58.8625 196.271 61.3393 196.271 Q65.3439 196.271 67.6819 194.165 Q70.0198 192.058 70.0198 188.447 Q70.0198 184.836 67.6819 182.73 Q65.3439 180.623 61.3393 180.623 Q59.4643 180.623 57.5893 181.04 Q55.7375 181.457 53.793 182.336 L53.793 164.975 Z" fill="#000000" fill-rule="nonzero" fill-opacity="1" /><path clip-path="url(#clip230)" d="M93.9086 168.054 Q90.2975 168.054 88.4688 171.619 Q86.6632 175.16 86.6632 182.29 Q86.6632 189.396 88.4688 192.961 Q90.2975 196.503 93.9086 196.503 Q97.5428 196.503 99.3483 192.961 Q101.177 189.396 101.177 182.29 Q101.177 175.16 99.3483 171.619 Q97.5428 168.054 93.9086 168.054 M93.9086 164.35 Q99.7187 164.35 102.774 168.957 Q105.853 173.54 105.853 182.29 Q105.853 191.017 102.774 195.623 Q99.7187 200.206 93.9086 200.206 Q88.0984 200.206 85.0197 195.623 Q81.9642 191.017 81.9642 182.29 Q81.9642 173.54 85.0197 168.957 Q88.0984 164.35 93.9086 164.35 Z" fill="#000000" fill-rule="nonzero" fill-opacity="1" /><polyline clip-path="url(#clip232)" style="stroke:#009af9; stroke-linecap:round; stroke-linejoin:round; stroke-width:4; stroke-opacity:1; fill:none" points="204.426,1432.27 205.469,1433.23 206.511,1388.51 207.554,1389.28 208.597,1394.35 209.64,1395.48 210.683,1381.97 211.726,1383.18 212.769,1399.67 213.812,1400.51 214.854,1410.61 215.897,1411.54 216.94,1445.13 217.983,1445.72 219.026,1379.56 220.069,1380.78 221.112,1318.05 222.155,1319.75 223.197,1351.06 224.24,1352.18 225.283,1379.75 226.326,1380.78 227.369,1429.97 228.412,1430.59 229.455,1384.17 230.498,1385.18 231.541,1357.37 232.583,1358.41 233.626,1317.73 234.669,1318.79 235.712,1294.48 236.755,1295.53 237.798,1358.89 238.841,1359.9 239.884,1304.5 240.926,1305.7 241.969,1322.79 243.012,1323.53 244.055,1294.64 245.098,1295.83 246.141,1259.99 247.184,1261.17 248.227,1308.88 249.269,1309.91 250.312,1267.7 251.355,1268.77 252.398,1282.04 253.441,1283.02 254.484,1247 255.527,1248.41 256.57,1188.03 257.612,1189.83 258.655,1267.76 259.698,1268.83 260.741,1280.92 261.784,1281.72 262.827,1237.03 263.87,1237.98 264.913,1284.07 265.956,1284.98 266.998,1196.92 268.041,1198.54 269.084,1276.3 270.127,1276.9 271.17,1277.46 272.213,1277.96 273.256,1272.57 274.299,1273.21 275.341,1199.2 276.384,1200.26 277.427,1160.06 278.47,1161.25 279.513,1135.63 280.556,1136.98 281.599,1212.41 282.642,1213.59 283.684,1238.61 284.727,1239.27 285.77,1243.81 286.813,1244.66 287.856,1210.76 288.899,1211.53 289.942,1096.39 290.985,1097.87 292.027,1106.71 293.07,1107.88 294.113,1162.68 295.156,1163.68 296.199,1175.15 297.242,1175.88 298.285,1130 299.328,1131.36 300.371,1242.45 301.413,1242.89 302.456,1171.56 303.499,1172.45 304.542,1176.96 305.585,1177.79 306.628,1165.25 307.671,1165.98 308.714,1058.12 309.756,1059.53 310.799,1191.29 311.842,1191.9 312.885,1111.93 313.928,1113.14 314.971,1193.99 316.014,1194.58 317.057,1031.57 318.099,1032.95 319.142,1109.75 320.185,1110.55 321.228,1013.9 322.271,1015.33 323.314,1056.18 324.357,1057.79 325.4,1025.18 326.442,1026.35 327.485,1015.25 328.528,1016.35 329.571,1035.01 330.614,1036.06 331.657,970.913 332.7,973.067 333.743,1048.07 334.786,1049.06 335.828,1034.44 336.871,1035.47 337.914,1143.7 338.957,1144.36 340,1031.24 341.043,1032.17 342.086,1005.95 343.129,1007.37 344.171,959.75 345.214,960.908 346.257,1049.81 347.3,1050.8 348.343,918.394 349.386,919.425 350.429,896.102 351.472,898.035 352.514,909.202 353.557,910.484 354.6,1014.33 355.643,1015.37 356.686,932.873 357.729,933.897 358.772,1096.78 359.815,1097.38 360.857,880.008 361.9,881.593 362.943,948.85 363.986,949.864 365.029,808.525 366.072,810.284 367.115,1020.45 368.158,1021.23 369.201,1040.87 370.243,1041.87 371.286,917.161 372.329,918.079 373.372,955.643 374.415,956.771 375.458,778.951 376.501,780.762 377.544,819.313 378.586,820.854 379.629,812.328 380.672,814.01 381.715,892.849 382.758,894.148 383.801,947.715 384.844,948.813 385.887,1020.13 386.929,1021.45 387.972,796.921 389.015,798.36 390.058,801.646 391.101,802.842 392.144,828.498 393.187,829.951 394.23,874.336 395.272,875.495 396.315,827.549 397.358,829.22 398.401,829.712 399.444,830.69 400.487,970.629 401.53,971.586 402.573,953.964 403.616,954.582 404.658,848.583 405.701,849.642 406.744,829.844 407.787,831.315 408.83,806.61 409.873,808.001 410.916,729.645 411.959,730.837 413.001,758.202 414.044,759.982 415.087,868.094 416.13,869.148 417.173,860.742 418.216,861.543 419.259,865.126 420.302,866.31 421.344,792.146 422.387,792.905 423.43,680.54 424.473,682.732 425.516,824.666 426.559,825.931 427.602,810.341 428.645,811.786 429.687,876.204 430.73,877.394 431.773,796.961 432.816,798.126 433.859,912.826 434.902,913.902 435.945,799.65 436.988,801.17 438.031,705.244 439.073,706.626 440.116,742.871 441.159,744.187 442.202,817.161 443.245,818.47 444.288,587.475 445.331,589.724 446.374,863.63 447.416,864.733 448.459,836.939 449.502,838.404 450.545,788.348 451.588,789.874 452.631,824.657 453.674,825.331 454.717,771.273 455.759,772.528 456.802,633.79 457.845,635.258 458.888,806.037 459.931,807.015 460.974,717.589 462.017,719.65 463.06,725.844 464.102,727.093 465.145,677.94 466.188,679.178 467.231,920.626 468.274,921.515 469.317,746.339 470.36,747.657 471.403,556.288 472.446,557.966 473.488,661.827 474.531,663.645 475.574,584.468 476.617,587.626 477.66,695.438 478.703,696.785 479.746,709.051 480.789,710.145 481.831,630.382 482.874,631.709 483.917,681.954 484.96,683.492 486.003,684.428 487.046,685.699 488.089,727.448 489.132,728.395 490.174,752.214 491.217,753.39 492.26,750.29 493.303,751.203 494.346,828.312 495.389,829.189 496.432,772.567 497.475,774.208 498.517,689.473 499.56,690.747 500.603,507.497 501.646,509.937 502.689,774.644 503.732,775.865 504.775,613.138 505.818,614.451 506.861,657.458 507.903,658.457 508.946,565.023 509.989,566.264 511.032,718.502 512.075,719.779 513.118,696.854 514.161,697.685 515.204,655.787 516.246,657.147 517.289,774.67 518.332,775.847 519.375,533.555 520.418,535.529 521.461,706.228 522.504,707.584 523.547,641.293 524.589,643.017 525.632,629.579 526.675,632.151 527.718,651.06 528.761,651.875 529.804,784.003 530.847,784.78 531.89,620.612 532.932,621.96 533.975,581.007 535.018,582.421 536.061,428.786 537.104,430.475 538.147,549.119 539.19,551.057 540.233,540.252 541.276,541.649 542.318,682.912 543.361,684.019 544.404,528.935 545.447,531.242 546.49,671.408 547.533,672.477 548.576,657.327 549.619,658.728 550.661,642.182 551.704,643.544 552.747,587.743 553.79,589.061 554.833,487.63 555.876,490.373 556.919,682.574 557.962,683.991 559.004,637.768 560.047,639.117 561.09,548.734 562.133,550.48 563.176,670.108 564.219,672.032 565.262,699.737 566.305,701.503 567.347,517.206 568.39,518.527 569.433,640.246 570.476,641.403 571.519,643.85 572.562,645.349 573.605,691.454 574.648,692.258 575.691,505.39 576.733,507.345 577.776,545.887 578.819,547.25 579.862,634.073 580.905,635.057 581.948,514.135 582.991,515.4 584.034,684.36 585.076,685.685 586.119,744.586 587.162,745.804 588.205,660.328 589.248,661.43 590.291,632.232 591.334,633.801 592.377,585.597 593.419,586.869 594.462,462.667 595.505,464.6 596.548,439.56 597.591,442.074 598.634,513.265 599.677,515.56 600.72,491.422 601.762,493.555 602.805,496.188 603.848,497.793 604.891,637.545 605.934,638.727 606.977,523.304 608.02,524.839 609.063,596.872 610.106,598.217 611.148,345.311 612.191,346.903 613.234,478.851 614.277,480.23 615.32,594.908 616.363,596.263 617.406,516.715 618.449,518.293 619.491,567.081 620.534,568.66 621.577,478.365 622.62,479.712 623.663,614.582 624.706,615.719 625.749,466.914 626.792,469.583 627.834,663.316 628.877,664.629 629.92,555 630.963,556.84 632.006,534.727 633.049,536.389 634.092,619.961 635.135,621.485 636.177,554.564 637.22,556.026 638.263,456.038 639.306,458.573 640.349,556.565 641.392,558.644 642.435,358.66 643.478,360.078 644.521,485.825 645.563,488.049 646.606,509.585 647.649,512.103 648.692,574.593 649.735,576.446 650.778,533.723 651.821,535.748 652.864,544.692 653.906,546.012 654.949,503.387 655.992,504.421 657.035,443.663 658.078,445.229 659.121,448.272 660.164,449.761 661.207,709.188 662.249,710.74 663.292,529.952 664.335,531.457 665.378,538.917 666.421,540.312 667.464,401.902 668.507,402.85 669.55,481.319 670.592,482.674 671.635,360.725 672.678,362.845 673.721,547.186 674.764,548.276 675.807,482.575 676.85,484.163 677.893,540.137 678.936,541.684 679.978,459.004 681.021,461.091 682.064,346.985 683.107,348.74 684.15,347.438 685.193,348.65 686.236,399.654 687.279,401.931 688.321,362.265 689.364,363.642 690.407,413.352 691.45,415.138 692.493,454.895 693.536,456.485 694.579,244.839 695.622,247.448 696.664,593.729 697.707,595.208 698.75,493.424 699.793,494.488 700.836,537.38 701.879,538.472 702.922,322.363 703.965,325.526 705.007,388.558 706.05,389.839 707.093,560.558 708.136,561.271 709.179,625.377 710.222,627.038 711.265,569.25 712.308,570.79 713.351,616.476 714.393,618.04 715.436,614.869 716.479,616.528 717.522,464.951 718.565,466.955 719.608,626.844 720.651,628.532 721.694,381.147 722.736,383.228 723.779,403.851 724.822,405.603 725.865,472.984 726.908,473.861 727.951,406.747 728.994,408.081 730.037,493.51 731.079,494.229 732.122,481.724 733.165,484.274 734.208,399.355 735.251,400.628 736.294,427.339 737.337,429.277 738.38,388.648 739.422,389.974 740.465,409.648 741.508,411.719 742.551,556.938 743.594,558.659 744.637,443.717 745.68,445.147 746.723,359.912 747.766,362.211 748.808,477.67 749.851,479.509 750.894,516.719 751.937,518.926 752.98,384.61 754.023,386.562 755.066,421.365 756.109,423.069 757.151,330.322 758.194,332.419 759.237,513.2 760.28,515.053 761.323,477.182 762.366,479.567 763.409,347.198 764.452,348.477 765.494,372.325 766.537,373.448 767.58,550.497 768.623,551.741 769.666,406.624 770.709,407.741 771.752,364.091 772.795,366.155 773.837,394.016 774.88,395.939 775.923,410.443 776.966,411.805 778.009,498.947 779.052,500.43 780.095,488.195 781.138,489.18 782.18,457.218 783.223,459.055 784.266,395.05 785.309,396.186 786.352,528.749 787.395,530.204 788.438,482.072 789.481,484.025 790.524,416.317 791.566,417.748 792.609,385.064 793.652,387.018 794.695,442.765 795.738,444.532 796.781,430.489 797.824,431.787 798.867,469.376 799.909,470.878 800.952,382.702 801.995,384.081 803.038,255.932 804.081,257.984 805.124,517.971 806.167,519.246 807.21,548.886 808.252,550.421 809.295,514.034 810.338,515.367 811.381,494.078 812.424,495.049 813.467,395.687 814.51,397.58 815.553,534.54 816.595,535.844 817.638,449.348 818.681,451.14 819.724,624.668 820.767,625.745 821.81,360.501 822.853,362.329 823.896,411.217 824.939,413.211 825.981,543.886 827.024,545.692 828.067,572.35 829.11,573.893 830.153,561.827 831.196,562.949 832.239,323.526 833.282,325.463 834.324,273.182 835.367,274.901 836.41,486.278 837.453,487.978 838.496,458.398 839.539,460.217 840.582,463.328 841.625,464.23 842.667,597.408 843.71,598.8 844.753,418.285 845.796,420.213 846.839,370.687 847.882,372.731 848.925,607.572 849.968,608.939 851.01,480.62 852.053,482.194 853.096,590.01 854.139,591.39 855.182,364.806 856.225,366.441 857.268,457.569 858.311,459.121 859.354,399.737 860.396,401.37 861.439,361.221 862.482,363.35 863.525,509.336 864.568,510.902 865.611,381.006 866.654,382.281 867.697,555.9 868.739,556.754 869.782,453.239 870.825,454.365 871.868,451.993 872.911,454.391 873.954,368.799 874.997,370.338 876.04,290.74 877.082,292.857 878.125,299.84 879.168,301.27 880.211,445.81 881.254,447.523 882.297,338.107 883.34,340.518 884.383,480.384 885.425,481.69 886.468,546.88 887.511,548.63 888.554,357.533 889.597,359.384 890.64,250.875 891.683,253.514 892.726,528.613 893.769,529.614 894.811,420.452 895.854,422.521 896.897,459.1 897.94,460.546 898.983,353.913 900.026,355.959 901.069,350.605 902.112,352.466 903.154,279.011 904.197,281.081 905.24,500.627 906.283,502.21 907.326,263.939 908.369,266.241 909.412,396.046 910.455,397.29 911.497,166.719 912.54,168.538 913.583,516.78 914.626,518.283 915.669,278.588 916.712,280.429 917.755,339.04 918.798,340.957 919.84,469.686 920.883,470.592 921.926,461.691 922.969,462.8 924.012,574.001 925.055,575.457 926.098,445.809 927.141,447.112 928.184,312.404 929.226,314.664 930.269,360.804 931.312,363.661 932.355,457.856 933.398,459.039 934.441,460.982 935.484,462.645 936.527,547.856 937.569,550.051 938.612,410.693 939.655,411.856 940.698,312.296 941.741,314.636 942.784,265.639 943.827,267.674 944.87,470.935 945.912,472.847 946.955,537.475 947.998,539.737 949.041,281.824 950.084,283.714 951.127,337.103 952.17,339.991 953.213,318.884 954.255,321.014 955.298,399.431 956.341,401.428 957.384,361.959 958.427,363.866 959.47,505.058 960.513,506.228 961.556,559.874 962.599,561.333 963.641,322.264 964.684,323.932 965.727,473.402 966.77,474.31 967.813,368.011 968.856,369.869 969.899,374.541 970.942,375.796 971.984,492.329 973.027,494.607 974.07,409.28 975.113,410.906 976.156,443.761 977.199,445.427 978.242,349.051 979.285,350.001 980.327,428.509 981.37,430.189 982.413,455.54 983.456,456.281 984.499,275.185 985.542,277.368 986.585,410.192 987.628,411.984 988.67,383.675 989.713,385.645 990.756,503.5 991.799,504.778 992.842,387.907 993.885,388.96 994.928,325.569 995.971,328.135 997.014,413.79 998.056,415.247 999.099,464.652 1000.14,466.135 1001.19,271.085 1002.23,274.215 1003.27,270.204 1004.31,272.066 1005.36,388.452 1006.4,390.175 1007.44,446.911 1008.49,448.638 1009.53,484.662 1010.57,485.984 1011.61,545.833 1012.66,546.952 1013.7,365.409 1014.74,367.202 1015.79,405.862 1016.83,407.359 1017.87,282.919 1018.91,284.843 1019.96,441.64 1021,443.734 1022.04,601.215 1023.09,602.593 1024.13,528.837 1025.17,530.327 1026.21,389.614 1027.26,391.068 1028.3,643.31 1029.34,644.548 1030.39,381.302 1031.43,383.305 1032.47,446.802 1033.51,448.195 1034.56,539.002 1035.6,540.897 1036.64,305.206 1037.69,307.8 1038.73,366.366 1039.77,367.724 1040.81,307.24 1041.86,308.14 1042.9,465.375 1043.94,466.824 1044.99,569.669 1046.03,570.816 1047.07,362.252 1048.11,364.176 1049.16,354.011 1050.2,356.351 1051.24,251.265 1052.29,253.591 1053.33,455.51 1054.37,457.551 1055.41,354.395 1056.46,356.552 1057.5,330.09 1058.54,331.893 1059.59,257.515 1060.63,259.515 1061.67,193.276 1062.71,195.856 1063.76,376.832 1064.8,378.455 1065.84,489.192 1066.89,490.762 1067.93,453.858 1068.97,455.42 1070.02,443.438 1071.06,444.917 1072.1,429.326 1073.14,430.639 1074.19,379.029 1075.23,380.175 1076.27,362.053 1077.32,363.509 1078.36,440.257 1079.4,441.376 1080.44,231.591 1081.49,233.746 1082.53,384.333 1083.57,387.027 1084.62,266.682 1085.66,269.611 1086.7,265.463 1087.74,266.994 1088.79,457.953 1089.83,459.897 1090.87,451.43 1091.92,452.883 1092.96,275.092 1094,276.377 1095.04,352.969 1096.09,354.589 1097.13,404.411 1098.17,405.852 1099.22,294.285 1100.26,296.014 1101.3,412.301 1102.34,414.035 1103.39,414.228 1104.43,416.783 1105.47,427.125 1106.52,428.471 1107.56,442.683 1108.6,443.6 1109.64,350.399 1110.69,352.596 1111.73,422.942 1112.77,424.675 1113.82,398.766 1114.86,399.586 1115.9,352.547 1116.94,353.439 1117.99,404.133 1119.03,405.794 1120.07,353.182 1121.12,355.223 1122.16,456.087 1123.2,457.374 1124.24,468.89 1125.29,470.01 1126.33,344.776 1127.37,347.25 1128.42,247.048 1129.46,249.66 1130.5,420.213 1131.54,421.694 1132.59,415.902 1133.63,417.301 1134.67,413.36 1135.72,416.153 1136.76,303.238 1137.8,304.827 1138.85,287.865 1139.89,290.285 1140.93,408.663 1141.97,411.074 1143.02,327.451 1144.06,328.848 1145.1,540.438 1146.15,541.781 1147.19,554.525 1148.23,556.057 1149.27,246.022 1150.32,248.803 1151.36,237.758 1152.4,240.957 1153.45,374.306 1154.49,376.427 1155.53,353.015 1156.57,356.186 1157.62,511.383 1158.66,513.177 1159.7,297.586 1160.75,299.628 1161.79,357.201 1162.83,359.434 1163.87,323.377 1164.92,326.65 1165.96,355.811 1167,357.809 1168.05,427.205 1169.09,428.532 1170.13,376.167 1171.17,377.944 1172.22,363.776 1173.26,365.019 1174.3,284.398 1175.35,285.865 1176.39,291.507 1177.43,293.318 1178.47,416.856 1179.52,418.823 1180.56,646.635 1181.6,648.058 1182.65,524.43 1183.69,526.909 1184.73,536.563 1185.77,538.66 1186.82,302.942 1187.86,304.446 1188.9,219.778 1189.95,222.816 1190.99,193.983 1192.03,195.4 1193.07,300.338 1194.12,301.589 1195.16,534.428 1196.2,535.887 1197.25,283.259 1198.29,284.831 1199.33,438.224 1200.37,441.78 1201.42,453.27 1202.46,455.078 1203.5,338.437 1204.55,340.614 1205.59,388.821 1206.63,390.841 1207.68,350.47 1208.72,351.688 1209.76,540.219 1210.8,541.695 1211.85,495.918 1212.89,497.293 1213.93,469.745 1214.98,471.782 1216.02,277.867 1217.06,279.907 1218.1,385.775 1219.15,387.865 1220.19,388.663 1221.23,390.11 1222.28,352.366 1223.32,353.789 1224.36,307.731 1225.4,309.795 1226.45,379.603 1227.49,382.096 1228.53,488.049 1229.58,489.712 1230.62,336.698 1231.66,339.02 1232.7,479.736 1233.75,481.631 1234.79,251.287 1235.83,252.658 1236.88,400.762 1237.92,402.969 1238.96,186.976 1240,190.001 1241.05,114.406 1242.09,117.896 1243.13,502.293 1244.18,503.753 1245.22,446.122 1246.26,447.356 1247.3,404.295 1248.35,405.903 1249.39,392.431 1250.43,394.447 1251.48,315.773 1252.52,317.49 1253.56,465.542 1254.6,466.592 1255.65,315.703 1256.69,318.899 1257.73,360.514 1258.78,362.304 1259.82,459.28 1260.86,460.699 1261.9,414.096 1262.95,415.236 1263.99,363.369 1265.03,365.848 1266.08,348.536 1267.12,350.545 1268.16,467.227 1269.2,468.944 1270.25,253.881 1271.29,255.143 1272.33,449.849 1273.38,451.276 1274.42,354.182 1275.46,356.17 1276.51,589.245 1277.55,590.158 1278.59,312.997 1279.63,315.486 1280.68,339.238 1281.72,341.539 1282.76,367.302 1283.81,369.505 1284.85,411.831 1285.89,413.745 1286.93,247.513 1287.98,250.489 1289.02,293.838 1290.06,295.733 1291.11,471.709 1292.15,473.465 1293.19,360.957 1294.23,362.208 1295.28,311.075 1296.32,314.791 1297.36,323.709 1298.41,325.356 1299.45,383.164 1300.49,385.069 1301.53,440.571 1302.58,442.39 1303.62,545.434 1304.66,547.3 1305.71,363.972 1306.75,365.859 1307.79,489.403 1308.83,490.986 1309.88,400.883 1310.92,402.836 1311.96,439.066 1313.01,441.043 1314.05,258.172 1315.09,259.572 1316.13,379.434 1317.18,381.469 1318.22,326.979 1319.26,328.677 1320.31,270.017 1321.35,271.758 1322.39,431.458 1323.43,432.645 1324.48,529.48 1325.52,530.388 1326.56,344.038 1327.61,346.693 1328.65,460.324 1329.69,462.528 1330.73,378.578 1331.78,380.721 1332.82,412.985 1333.86,414.236 1334.91,391.286 1335.95,393.037 1336.99,371.263 1338.03,372.793 1339.08,353.393 1340.12,354.438 1341.16,225.923 1342.21,227.129 1343.25,465.788 1344.29,468.78 1345.34,345.925 1346.38,347.415 1347.42,219.479 1348.46,221.105 1349.51,208.213 1350.55,210.716 1351.59,410.204 1352.64,411.837 1353.68,425.084 1354.72,427.019 1355.76,382.041 1356.81,383.832 1357.85,418.217 1358.89,419.439 1359.94,274.878 1360.98,276.682 1362.02,420.739 1363.06,422.404 1364.11,361.632 1365.15,362.693 1366.19,451.232 1367.24,452.327 1368.28,441.7 1369.32,443.516 1370.36,454.826 1371.41,457.641 1372.45,413.488 1373.49,415.151 1374.54,349.974 1375.58,351.908 1376.62,609.343 1377.66,610.574 1378.71,338.396 1379.75,340.31 1380.79,415.46 1381.84,417.636 1382.88,539.524 1383.92,541.637 1384.96,478.206 1386.01,479.82 1387.05,306.4 1388.09,307.749 1389.14,472.234 1390.18,473.438 1391.22,358.756 1392.26,360.542 1393.31,340.954 1394.35,342.35 1395.39,439.833 1396.44,442.244 1397.48,556.923 1398.52,558.56 1399.56,315.054 1400.61,317.035 1401.65,336.855 1402.69,338.397 1403.74,359.187 1404.78,360.484 1405.82,461.183 1406.86,463.17 1407.91,414.345 1408.95,416.001 1409.99,343.924 1411.04,345.742 1412.08,376.074 1413.12,377.018 1414.17,494.127 1415.21,495.251 1416.25,569.686 1417.29,570.151 1418.34,133.85 1419.38,136.008 1420.42,345.979 1421.47,349.007 1422.51,461.134 1423.55,462.575 1424.59,435.149 1425.64,437.314 1426.68,478.573 1427.72,480.107 1428.77,263.652 1429.81,264.917 1430.85,447.648 1431.89,449.2 1432.94,423.761 1433.98,425.44 1435.02,298.723 1436.07,300.568 1437.11,485.09 1438.15,486.293 1439.19,343.469 1440.24,345.142 1441.28,337.76 1442.32,339.473 1443.37,406.86 1444.41,408.503 1445.45,313.31 1446.49,314.38 1447.54,299.895 1448.58,301.955 1449.62,327.639 1450.67,329.268 1451.71,287.87 1452.75,290.555 1453.79,370.802 1454.84,372.738 1455.88,370.315 1456.92,371.428 1457.97,538.393 1459.01,539.693 1460.05,222.929 1461.09,224.884 1462.14,199.676 1463.18,201.642 1464.22,382.111 1465.27,384.449 1466.31,156.079 1467.35,157.845 1468.39,326.421 1469.44,327.746 1470.48,525.312 1471.52,526.186 1472.57,348.899 1473.61,351.461 1474.65,419.57 1475.69,420.795 1476.74,410.882 1477.78,413.172 1478.82,424.364 1479.87,425.725 1480.91,376.025 1481.95,377.321 1483,385.829 1484.04,387.758 1485.08,280.623 1486.12,282.768 1487.17,396.698 1488.21,398.254 1489.25,341.669 1490.3,343.251 1491.34,405.243 1492.38,406.783 1493.42,354.16 1494.47,355.369 1495.51,497.751 1496.55,500.133 1497.6,480.867 1498.64,482.38 1499.68,275.598 1500.72,277.164 1501.77,554.909 1502.81,556.413 1503.85,364.13 1504.9,365.546 1505.94,387.551 1506.98,389.099 1508.02,418.434 1509.07,419.672 1510.11,394.724 1511.15,396.932 1512.2,359.043 1513.24,359.91 1514.28,366.507 1515.32,368.409 1516.37,440.753 1517.41,442.499 1518.45,349.621 1519.5,352.071 1520.54,421.533 1521.58,423.806 1522.62,406.53 1523.67,407.974 1524.71,442.035 1525.75,443.547 1526.8,423.692 1527.84,424.669 1528.88,342.915 1529.92,344.683 1530.97,394.617 1532.01,396.426 1533.05,329.452 1534.1,331.612 1535.14,403.874 1536.18,405.604 1537.22,189.258 1538.27,191.726 1539.31,322.178 1540.35,324.624 1541.4,417.522 1542.44,418.859 1543.48,484.602 1544.52,486.163 1545.57,313.91 1546.61,315.554 1547.65,216.812 1548.7,219.64 1549.74,336.101 1550.78,337.659 1551.83,347.214 1552.87,348.588 1553.91,325.01 1554.95,326.492 1556,427.184 1557.04,428.573 1558.08,372.805 1559.13,374.997 1560.17,328.015 1561.21,329.392 1562.25,524.114 1563.3,525.909 1564.34,474.012 1565.38,475.229 1566.43,374.088 1567.47,376.203 1568.51,465.965 1569.55,467.227 1570.6,346.357 1571.64,348.384 1572.68,371.541 1573.73,372.983 1574.77,190.548 1575.81,191.992 1576.85,374.367 1577.9,375.978 1578.94,449.458 1579.98,450.781 1581.03,533.158 1582.07,534.318 1583.11,449.846 1584.15,451.004 1585.2,422.272 1586.24,423.718 1587.28,396.397 1588.33,398.216 1589.37,301.608 1590.41,303.816 1591.45,375.2 1592.5,377.401 1593.54,351.318 1594.58,354.377 1595.63,351.818 1596.67,353.397 1597.71,399.894 1598.75,401.122 1599.8,508.342 1600.84,509.504 1601.88,217.574 1602.93,218.736 1603.97,268.108 1605.01,269.297 1606.05,327.401 1607.1,329.353 1608.14,170.786 1609.18,172.262 1610.23,259.173 1611.27,260.584 1612.31,256.001 1613.35,257.365 1614.4,528.689 1615.44,529.968 1616.48,300.492 1617.53,301.915 1618.57,446.202 1619.61,447.808 1620.66,417.325 1621.7,418.656 1622.74,389.384 1623.78,390.622 1624.83,436.464 1625.87,437.778 1626.91,240.066 1627.96,241.602 1629,560.896 1630.04,562.227 1631.08,337.472 1632.13,338.531 1633.17,460.664 1634.21,462.395 1635.26,346.873 1636.3,349.083 1637.34,349.669 1638.38,351.607 1639.43,357.294 1640.47,359.416 1641.51,273.212 1642.56,275.225 1643.6,251.549 1644.64,253.907 1645.68,431.214 1646.73,432.5 1647.77,281.612 1648.81,283.612 1649.86,387.623 1650.9,389.14 1651.94,351.554 1652.98,352.654 1654.03,268.201 1655.07,269.755 1656.11,336.853 1657.16,338.441 1658.2,358.464 1659.24,359.793 1660.28,204.939 1661.33,207.668 1662.37,419.839 1663.41,421.039 1664.46,214.082 1665.5,215.937 1666.54,530.736 1667.58,531.8 1668.63,287.368 1669.67,288.902 1670.71,320.586 1671.76,322.744 1672.8,182.366 1673.84,185.228 1674.88,338.814 1675.93,340.392 1676.97,213.142 1678.01,215.683 1679.06,371.932 1680.1,373.787 1681.14,420.773 1682.18,422.666 1683.23,443.803 1684.27,445.335 1685.31,243.773 1686.36,245.111 1687.4,316.883 1688.44,319.336 1689.49,356.551 1690.53,358.07 1691.57,226.366 1692.61,227.847 1693.66,217.55 1694.7,219.544 1695.74,302.29 1696.79,303.803 1697.83,565.508 1698.87,566.489 1699.91,410.685 1700.96,412.666 1702,163.784 1703.04,165.516 1704.09,263.014 1705.13,265.353 1706.17,274.462 1707.21,276.165 1708.26,479.569 1709.3,480.98 1710.34,278.41 1711.39,280.527 1712.43,177.178 1713.47,179.283 1714.51,371.01 1715.56,372.727 1716.6,394.43 1717.64,395.937 1718.69,379.519 1719.73,381.381 1720.77,228.225 1721.81,230.598 1722.86,297.308 1723.9,298.745 1724.94,458.518 1725.99,460.376 1727.03,310.747 1728.07,311.731 1729.11,430.126 1730.16,431.871 1731.2,493.465 1732.24,494.471 1733.29,323.185 1734.33,325.597 1735.37,411.073 1736.41,412.913 1737.46,495.471 1738.5,496.379 1739.54,480.861 1740.59,482.104 1741.63,305.295 1742.67,306.973 1743.71,352.243 1744.76,353.07 1745.8,517.15 1746.84,518.491 1747.89,318.751 1748.93,320.458 1749.97,278.178 1751.01,279.758 1752.06,354.67 1753.1,356.594 1754.14,446.012 1755.19,447.135 1756.23,382.15 1757.27,383.685 1758.32,428.466 1759.36,430.025 1760.4,456.557 1761.44,457.77 1762.49,414.638 1763.53,416.299 1764.57,188.037 1765.62,189.751 1766.66,437.041 1767.7,438.631 1768.74,476.182 1769.79,477.382 1770.83,286.33 1771.87,287.45 1772.92,475.064 1773.96,476.976 1775,397.839 1776.04,398.949 1777.09,339.85 1778.13,341.423 1779.17,482.891 1780.22,484.488 1781.26,333.641 1782.3,335.738 1783.34,441.308 1784.39,442.49 1785.43,300.991 1786.47,303.627 1787.52,333.871 1788.56,335.217 1789.6,497.288 1790.64,499.077 1791.69,400.384 1792.73,402.025 1793.77,414.268 1794.82,415.648 1795.86,299.424 1796.9,301.426 1797.94,340.527 1798.99,341.788 1800.03,394.419 1801.07,396.819 1802.12,438.937 1803.16,441.164 1804.2,560.933 1805.24,562.781 1806.29,438.106 1807.33,439.447 1808.37,366.361 1809.42,368.238 1810.46,381.737 1811.5,383.015 1812.54,326.828 1813.59,329.178 1814.63,203.4 1815.67,205.704 1816.72,540.518 1817.76,542.108 1818.8,462.024 1819.84,463.885 1820.89,418.642 1821.93,420.463 1822.97,379.613 1824.02,381.331 1825.06,346.754 1826.1,348.016 1827.15,296.731 1828.19,298.685 1829.23,187.374 1830.27,189.635 1831.32,441.24 1832.36,443.085 1833.4,400.654 1834.45,401.863 1835.49,366.668 1836.53,369.444 1837.57,558.919 1838.62,560.84 1839.66,383.747 1840.7,385.725 1841.75,423.605 1842.79,425.622 1843.83,439.318 1844.87,441.152 1845.92,363.3 1846.96,364.633 1848,700.857 1849.05,701.942 1850.09,203.661 1851.13,206.074 1852.17,357.282 1853.22,358.832 1854.26,391.165 1855.3,392.496 1856.35,292.154 1857.39,294.53 1858.43,192.589 1859.47,194.398 1860.52,202.344 1861.56,205.05 1862.6,465.401 1863.65,466.338 1864.69,87.9763 1865.73,89.4308 1866.77,406.817 1867.82,408.024 1868.86,437.358 1869.9,438.371 1870.95,465.903 1871.99,467.456 1873.03,323.68 1874.07,325.113 1875.12,398.854 1876.16,400.768 1877.2,204.207 1878.25,207.292 1879.29,319.458 1880.33,321.12 1881.37,317.939 1882.42,319.193 1883.46,314.437 1884.5,315.905 1885.55,349.608 1886.59,351.142 1887.63,478.737 1888.67,480.719 1889.72,323.634 1890.76,324.848 1891.8,176.836 1892.85,178.806 1893.89,416.621 1894.93,417.894 1895.98,426.741 1897.02,427.863 1898.06,242.782 1899.1,244.68 1900.15,494.259 1901.19,495.484 1902.23,419.399 1903.28,420.719 1904.32,253.474 1905.36,255.172 1906.4,468.17 1907.45,469.768 1908.49,280.196 1909.53,281.663 1910.58,421.139 1911.62,422.427 1912.66,405.418 1913.7,406.487 1914.75,415.342 1915.79,417.993 1916.83,350.358 1917.88,352.147 1918.92,431.025 1919.96,432.282 1921,329.312 1922.05,331.417 1923.09,445.582 1924.13,446.828 1925.18,381.391 1926.22,383.789 1927.26,402.534 1928.3,404.467 1929.35,384.573 1930.39,386.193 1931.43,341.509 1932.48,343.017 1933.52,519.93 1934.56,521.701 1935.6,406.548 1936.65,409.387 1937.69,373.831 1938.73,375.594 1939.78,365.742 1940.82,367.295 1941.86,431.691 1942.9,433.095 1943.95,215.551 1944.99,217.904 1946.03,316.154 1947.08,317.077 1948.12,169.084 1949.16,171.716 1950.2,315.326 1951.25,318.077 1952.29,222.774 1953.33,224.264 1954.38,394.303 1955.42,395.825 1956.46,489.921 1957.5,491.04 1958.55,170.653 1959.59,173.62 1960.63,333.712 1961.68,335.451 1962.72,253.043 1963.76,254.885 1964.81,482.903 1965.85,483.965 1966.89,420.049 1967.93,421.661 1968.98,333.174 1970.02,335.26 1971.06,517.521 1972.11,519.113 1973.15,428.059 1974.19,429.881 1975.23,482.109 1976.28,482.922 1977.32,338.563 1978.36,340.827 1979.41,208.919 1980.45,210.416 1981.49,381.938 1982.53,383.992 1983.58,489.617 1984.62,491.095 1985.66,277.76 1986.71,279.701 1987.75,233.059 1988.79,234.924 1989.83,300.671 1990.88,302.512 1991.92,469.967 1992.96,471.939 1994.01,368.099 1995.05,369.703 1996.09,292.362 1997.13,294.011 1998.18,423.014 1999.22,424.493 2000.26,426.105 2001.31,427.196 2002.35,354.153 2003.39,356.428 2004.43,215.236 2005.48,217.683 2006.52,279.416 2007.56,281.699 2008.61,322.452 2009.65,323.911 2010.69,462.568 2011.73,463.827 2012.78,529.333 2013.82,530.006 2014.86,340.967 2015.91,342.614 2016.95,516.685 2017.99,518.04 2019.03,428.756 2020.08,431.293 2021.12,388.646 2022.16,390.051 2023.21,189.139 2024.25,191.343 2025.29,386.63 2026.33,388.262 2027.38,393.99 2028.42,395.706 2029.46,487.095 2030.51,488.068 2031.55,439.264 2032.59,440.963 2033.64,246.096 2034.68,248.5 2035.72,399.225 2036.76,401.052 2037.81,403.141 2038.85,404.343 2039.89,286.446 2040.94,288.272 2041.98,464.123 2043.02,465.659 2044.06,230.121 2045.11,232.643 2046.15,316.331 2047.19,317.29 2048.24,334.04 2049.28,336.301 2050.32,179.49 2051.36,180.772 2052.41,342.761 2053.45,344.739 2054.49,311.72 2055.54,313.008 2056.58,275.827 2057.62,277.564 2058.66,291.997 2059.71,293.822 2060.75,286.452 2061.79,288.401 2062.84,442.08 2063.88,443.836 2064.92,428.005 2065.96,429.575 2067.01,307.879 2068.05,310.097 2069.09,253.392 2070.14,254.478 2071.18,253.145 2072.22,254.765 2073.26,399.311 2074.31,400.495 2075.35,396.199 2076.39,397.955 2077.44,285.105 2078.48,287.045 2079.52,444.26 2080.56,445.752 2081.61,259.075 2082.65,260.608 2083.69,115.507 2084.74,117.397 2085.78,314.765 2086.82,315.97 2087.86,215.672 2088.91,217.37 2089.95,356.451 2090.99,357.503 2092.04,403.611 2093.08,405.479 2094.12,465.988 2095.16,467.513 2096.21,332.323 2097.25,333.871 2098.29,468.846 2099.34,470.59 2100.38,300.795 2101.42,302.048 2102.47,379.623 2103.51,380.786 2104.55,349.446 2105.59,350.714 2106.64,319.643 2107.68,321.001 2108.72,375.545 2109.77,376.844 2110.81,133.183 2111.85,135.443 2112.89,430.83 2113.94,432.326 2114.98,359.051 2116.02,360.801 2117.07,420.862 2118.11,422.367 2119.15,351.501 2120.19,353.406 2121.24,319.506 2122.28,321.563 2123.32,472.496 2124.37,473.52 2125.41,359.815 2126.45,361.936 2127.49,286.474 2128.54,288.412 2129.58,385.026 2130.62,387.165 2131.67,308.517 2132.71,310.545 2133.75,288.677 2134.79,291.199 2135.84,351.668 2136.88,353.849 2137.92,249.434 2138.97,250.526 2140.01,405.424 2141.05,407.459 2142.09,349.425 2143.14,351.867 2144.18,376.529 2145.22,378.356 2146.27,387.789 2147.31,389.684 2148.35,476.657 2149.39,478.535 2150.44,463.561 2151.48,464.977 2152.52,353.137 2153.57,355.109 2154.61,369.272 2155.65,371.378 2156.69,365.713 2157.74,367.176 2158.78,299.817 2159.82,300.912 2160.87,425.303 2161.91,427.11 2162.95,266.912 2163.99,269.418 2165.04,199.415 2166.08,201.258 2167.12,262.507 2168.17,264.379 2169.21,374.488 2170.25,376.232 2171.3,286.519 2172.34,288.442 2173.38,341.493 2174.42,343.541 2175.47,277.323 2176.51,278.965 2177.55,261.286 2178.6,262.793 2179.64,296.157 2180.68,297.653 2181.72,286.063 2182.77,288.251 2183.81,190.289 2184.85,192.078 2185.9,467.626 2186.94,468.763 2187.98,317.47 2189.02,319.392 2190.07,240.982 2191.11,242.318 2192.15,222.685 2193.2,224.767 2194.24,384.965 2195.28,387.753 2196.32,384.738 2197.37,386.326 2198.41,177.759 2199.45,179.739 2200.5,364.862 2201.54,366.436 2202.58,221.533 2203.62,223.756 2204.67,340.331 2205.71,341.292 2206.75,478.553 2207.8,480.405 2208.84,350.515 2209.88,352.343 2210.92,405.219 2211.97,406.243 2213.01,528.801 2214.05,530.547 2215.1,273.759 2216.14,275.472 2217.18,344 2218.22,345.626 2219.27,499.412 2220.31,500.755 2221.35,213.864 2222.4,216.606 2223.44,243.674 2224.48,245.563 2225.52,355.079 2226.57,356.384 2227.61,318.745 2228.65,321.415 2229.7,433.321 2230.74,434.606 2231.78,346.238 2232.82,347.976 2233.87,355.304 2234.91,357.271 2235.95,289.619 2237,292.185 2238.04,449.657 2239.08,450.845 2240.12,257.625 2241.17,258.855 2242.21,448.272 2243.25,449.883 2244.3,442.011 2245.34,443.459 2246.38,337.275 2247.43,339.38 2248.47,318.239 2249.51,319.251 2250.55,391.701 2251.6,393.363 2252.64,381.321 2253.68,383.863 2254.73,250.213 2255.77,252.072 2256.81,293.107 2257.85,295.08 2258.9,352.446 2259.94,353.946 2260.98,511.276 2262.03,513.94 2263.07,333.354 2264.11,334.702 2265.15,186.7 2266.2,188.195 2267.24,422.848 2268.28,423.89 2269.33,439.302 2270.37,441.023 2271.41,399.693 2272.45,401.008 2273.5,514.094 2274.54,515.86 2275.58,465.908 2276.63,467.312 2277.67,441.286 2278.71,442.56 2279.75,311.873 2280.8,314.598 2281.84,336.397 2282.88,338.15 2283.93,459.056 2284.97,460.115 2286.01,463.917 2287.05,465.055 2288.1,236.58 2289.14,238.25 2290.18,239.747 "/>
<path clip-path="url(#clip230)" d="M2005.54 1438.47 L2279.06 1438.47 L2279.06 1334.79 L2005.54 1334.79  Z" fill="#ffffff" fill-rule="evenodd" fill-opacity="1"/>
<polyline clip-path="url(#clip230)" style="stroke:#000000; stroke-linecap:round; stroke-linejoin:round; stroke-width:4; stroke-opacity:1; fill:none" points="2005.54,1438.47 2279.06,1438.47 2279.06,1334.79 2005.54,1334.79 2005.54,1438.47 "/>
<polyline clip-path="url(#clip230)" style="stroke:#009af9; stroke-linecap:round; stroke-linejoin:round; stroke-width:4; stroke-opacity:1; fill:none" points="2030.1,1386.63 2177.5,1386.63 "/>
<path clip-path="url(#clip230)" d="M2215.91 1406.32 Q2214.1 1410.95 2212.39 1412.36 Q2210.67 1413.78 2207.8 1413.78 L2204.4 1413.78 L2204.4 1410.21 L2206.9 1410.21 Q2208.66 1410.21 2209.63 1409.38 Q2210.6 1408.54 2211.79 1405.44 L2212.55 1403.5 L2202.06 1377.99 L2206.58 1377.99 L2214.68 1398.27 L2222.78 1377.99 L2227.29 1377.99 L2215.91 1406.32 Z" fill="#000000" fill-rule="nonzero" fill-opacity="1" /><path clip-path="url(#clip230)" d="M2234.59 1399.98 L2242.23 1399.98 L2242.23 1373.61 L2233.91 1375.28 L2233.91 1371.02 L2242.18 1369.35 L2246.85 1369.35 L2246.85 1399.98 L2254.49 1399.98 L2254.49 1403.91 L2234.59 1403.91 L2234.59 1399.98 Z" fill="#000000" fill-rule="nonzero" fill-opacity="1" /></svg>
