<?xml version="1.0" encoding="utf-8"?>
<svg xmlns="http://www.w3.org/2000/svg" xmlns:xlink="http://www.w3.org/1999/xlink" width="600" height="400" viewBox="0 0 2400 1600">
<defs>
  <clipPath id="clip650">
    <rect x="0" y="0" width="2400" height="1600"/>
  </clipPath>
</defs>
<path clip-path="url(#clip650)" d="M0 1600 L2400 1600 L2400 0 L0 0  Z" fill="#ffffff" fill-rule="evenodd" fill-opacity="1"/>
<defs>
  <clipPath id="clip651">
    <rect x="480" y="0" width="1681" height="1600"/>
  </clipPath>
</defs>
<path clip-path="url(#clip650)" d="M155.765 1486.45 L2352.76 1486.45 L2352.76 47.2441 L155.765 47.2441  Z" fill="#ffffff" fill-rule="evenodd" fill-opacity="1"/>
<defs>
  <clipPath id="clip652">
    <rect x="155" y="47" width="2198" height="1440"/>
  </clipPath>
</defs>
<polyline clip-path="url(#clip652)" style="stroke:#000000; stroke-linecap:round; stroke-linejoin:round; stroke-width:2; stroke-opacity:0.1; fill:none" points="217.944,1486.45 217.944,47.2441 "/>
<polyline clip-path="url(#clip652)" style="stroke:#000000; stroke-linecap:round; stroke-linejoin:round; stroke-width:2; stroke-opacity:0.1; fill:none" points="736.102,1486.45 736.102,47.2441 "/>
<polyline clip-path="url(#clip652)" style="stroke:#000000; stroke-linecap:round; stroke-linejoin:round; stroke-width:2; stroke-opacity:0.1; fill:none" points="1254.26,1486.45 1254.26,47.2441 "/>
<polyline clip-path="url(#clip652)" style="stroke:#000000; stroke-linecap:round; stroke-linejoin:round; stroke-width:2; stroke-opacity:0.1; fill:none" points="1772.42,1486.45 1772.42,47.2441 "/>
<polyline clip-path="url(#clip652)" style="stroke:#000000; stroke-linecap:round; stroke-linejoin:round; stroke-width:2; stroke-opacity:0.1; fill:none" points="2290.58,1486.45 2290.58,47.2441 "/>
<polyline clip-path="url(#clip650)" style="stroke:#000000; stroke-linecap:round; stroke-linejoin:round; stroke-width:4; stroke-opacity:1; fill:none" points="155.765,1486.45 2352.76,1486.45 "/>
<polyline clip-path="url(#clip650)" style="stroke:#000000; stroke-linecap:round; stroke-linejoin:round; stroke-width:4; stroke-opacity:1; fill:none" points="217.944,1486.45 217.944,1467.55 "/>
<polyline clip-path="url(#clip650)" style="stroke:#000000; stroke-linecap:round; stroke-linejoin:round; stroke-width:4; stroke-opacity:1; fill:none" points="736.102,1486.45 736.102,1467.55 "/>
<polyline clip-path="url(#clip650)" style="stroke:#000000; stroke-linecap:round; stroke-linejoin:round; stroke-width:4; stroke-opacity:1; fill:none" points="1254.26,1486.45 1254.26,1467.55 "/>
<polyline clip-path="url(#clip650)" style="stroke:#000000; stroke-linecap:round; stroke-linejoin:round; stroke-width:4; stroke-opacity:1; fill:none" points="1772.42,1486.45 1772.42,1467.55 "/>
<polyline clip-path="url(#clip650)" style="stroke:#000000; stroke-linecap:round; stroke-linejoin:round; stroke-width:4; stroke-opacity:1; fill:none" points="2290.58,1486.45 2290.58,1467.55 "/>
<path clip-path="url(#clip650)" d="M217.944 1517.37 Q214.333 1517.37 212.504 1520.93 Q210.699 1524.47 210.699 1531.6 Q210.699 1538.71 212.504 1542.27 Q214.333 1545.82 217.944 1545.82 Q221.578 1545.82 223.384 1542.27 Q225.212 1538.71 225.212 1531.6 Q225.212 1524.47 223.384 1520.93 Q221.578 1517.37 217.944 1517.37 M217.944 1513.66 Q223.754 1513.66 226.81 1518.27 Q229.888 1522.85 229.888 1531.6 Q229.888 1540.33 226.81 1544.94 Q223.754 1549.52 217.944 1549.52 Q212.134 1549.52 209.055 1544.94 Q206 1540.33 206 1531.6 Q206 1522.85 209.055 1518.27 Q212.134 1513.66 217.944 1513.66 Z" fill="#000000" fill-rule="nonzero" fill-opacity="1" /><path clip-path="url(#clip650)" d="M695.72 1514.29 L714.077 1514.29 L714.077 1518.22 L700.003 1518.22 L700.003 1526.7 Q701.021 1526.35 702.04 1526.19 Q703.058 1526 704.077 1526 Q709.864 1526 713.243 1529.17 Q716.623 1532.34 716.623 1537.76 Q716.623 1543.34 713.151 1546.44 Q709.679 1549.52 703.359 1549.52 Q701.183 1549.52 698.915 1549.15 Q696.669 1548.78 694.262 1548.04 L694.262 1543.34 Q696.345 1544.47 698.568 1545.03 Q700.79 1545.58 703.267 1545.58 Q707.271 1545.58 709.609 1543.48 Q711.947 1541.37 711.947 1537.76 Q711.947 1534.15 709.609 1532.04 Q707.271 1529.94 703.267 1529.94 Q701.392 1529.94 699.517 1530.35 Q697.665 1530.77 695.72 1531.65 L695.72 1514.29 Z" fill="#000000" fill-rule="nonzero" fill-opacity="1" /><path clip-path="url(#clip650)" d="M735.836 1517.37 Q732.225 1517.37 730.396 1520.93 Q728.591 1524.47 728.591 1531.6 Q728.591 1538.71 730.396 1542.27 Q732.225 1545.82 735.836 1545.82 Q739.47 1545.82 741.276 1542.27 Q743.104 1538.71 743.104 1531.6 Q743.104 1524.47 741.276 1520.93 Q739.47 1517.37 735.836 1517.37 M735.836 1513.66 Q741.646 1513.66 744.702 1518.27 Q747.78 1522.85 747.78 1531.6 Q747.78 1540.33 744.702 1544.94 Q741.646 1549.52 735.836 1549.52 Q730.026 1549.52 726.947 1544.94 Q723.892 1540.33 723.892 1531.6 Q723.892 1522.85 726.947 1518.27 Q730.026 1513.66 735.836 1513.66 Z" fill="#000000" fill-rule="nonzero" fill-opacity="1" /><path clip-path="url(#clip650)" d="M765.998 1517.37 Q762.387 1517.37 760.558 1520.93 Q758.752 1524.47 758.752 1531.6 Q758.752 1538.71 760.558 1542.27 Q762.387 1545.82 765.998 1545.82 Q769.632 1545.82 771.438 1542.27 Q773.266 1538.71 773.266 1531.6 Q773.266 1524.47 771.438 1520.93 Q769.632 1517.37 765.998 1517.37 M765.998 1513.66 Q771.808 1513.66 774.864 1518.27 Q777.942 1522.85 777.942 1531.6 Q777.942 1540.33 774.864 1544.94 Q771.808 1549.52 765.998 1549.52 Q760.188 1549.52 757.109 1544.94 Q754.053 1540.33 754.053 1531.6 Q754.053 1522.85 757.109 1518.27 Q760.188 1513.66 765.998 1513.66 Z" fill="#000000" fill-rule="nonzero" fill-opacity="1" /><path clip-path="url(#clip650)" d="M1198.79 1544.91 L1206.43 1544.91 L1206.43 1518.55 L1198.11 1520.21 L1198.11 1515.95 L1206.38 1514.29 L1211.05 1514.29 L1211.05 1544.91 L1218.69 1544.91 L1218.69 1548.85 L1198.79 1548.85 L1198.79 1544.91 Z" fill="#000000" fill-rule="nonzero" fill-opacity="1" /><path clip-path="url(#clip650)" d="M1238.14 1517.37 Q1234.53 1517.37 1232.7 1520.93 Q1230.89 1524.47 1230.89 1531.6 Q1230.89 1538.71 1232.7 1542.27 Q1234.53 1545.82 1238.14 1545.82 Q1241.77 1545.82 1243.58 1542.27 Q1245.41 1538.71 1245.41 1531.6 Q1245.41 1524.47 1243.58 1520.93 Q1241.77 1517.37 1238.14 1517.37 M1238.14 1513.66 Q1243.95 1513.66 1247 1518.27 Q1250.08 1522.85 1250.08 1531.6 Q1250.08 1540.33 1247 1544.94 Q1243.95 1549.52 1238.14 1549.52 Q1232.33 1549.52 1229.25 1544.94 Q1226.19 1540.33 1226.19 1531.6 Q1226.19 1522.85 1229.25 1518.27 Q1232.33 1513.66 1238.14 1513.66 Z" fill="#000000" fill-rule="nonzero" fill-opacity="1" /><path clip-path="url(#clip650)" d="M1268.3 1517.37 Q1264.69 1517.37 1262.86 1520.93 Q1261.05 1524.47 1261.05 1531.6 Q1261.05 1538.71 1262.86 1542.27 Q1264.69 1545.82 1268.3 1545.82 Q1271.93 1545.82 1273.74 1542.27 Q1275.57 1538.71 1275.57 1531.6 Q1275.57 1524.47 1273.74 1520.93 Q1271.93 1517.37 1268.3 1517.37 M1268.3 1513.66 Q1274.11 1513.66 1277.17 1518.27 Q1280.24 1522.85 1280.24 1531.6 Q1280.24 1540.33 1277.17 1544.94 Q1274.11 1549.52 1268.3 1549.52 Q1262.49 1549.52 1259.41 1544.94 Q1256.36 1540.33 1256.36 1531.6 Q1256.36 1522.85 1259.41 1518.27 Q1262.49 1513.66 1268.3 1513.66 Z" fill="#000000" fill-rule="nonzero" fill-opacity="1" /><path clip-path="url(#clip650)" d="M1298.46 1517.37 Q1294.85 1517.37 1293.02 1520.93 Q1291.22 1524.47 1291.22 1531.6 Q1291.22 1538.71 1293.02 1542.27 Q1294.85 1545.82 1298.46 1545.82 Q1302.1 1545.82 1303.9 1542.27 Q1305.73 1538.71 1305.73 1531.6 Q1305.73 1524.47 1303.9 1520.93 Q1302.1 1517.37 1298.46 1517.37 M1298.46 1513.66 Q1304.27 1513.66 1307.33 1518.27 Q1310.41 1522.85 1310.41 1531.6 Q1310.41 1540.33 1307.33 1544.94 Q1304.27 1549.52 1298.46 1549.52 Q1292.65 1549.52 1289.57 1544.94 Q1286.52 1540.33 1286.52 1531.6 Q1286.52 1522.85 1289.57 1518.27 Q1292.65 1513.66 1298.46 1513.66 Z" fill="#000000" fill-rule="nonzero" fill-opacity="1" /><path clip-path="url(#clip650)" d="M1716.94 1544.91 L1724.58 1544.91 L1724.58 1518.55 L1716.27 1520.21 L1716.27 1515.95 L1724.54 1514.29 L1729.21 1514.29 L1729.21 1544.91 L1736.85 1544.91 L1736.85 1548.85 L1716.94 1548.85 L1716.94 1544.91 Z" fill="#000000" fill-rule="nonzero" fill-opacity="1" /><path clip-path="url(#clip650)" d="M1746.34 1514.29 L1764.7 1514.29 L1764.7 1518.22 L1750.62 1518.22 L1750.62 1526.7 Q1751.64 1526.35 1752.66 1526.19 Q1753.68 1526 1754.7 1526 Q1760.49 1526 1763.87 1529.17 Q1767.25 1532.34 1767.25 1537.76 Q1767.25 1543.34 1763.77 1546.44 Q1760.3 1549.52 1753.98 1549.52 Q1751.81 1549.52 1749.54 1549.15 Q1747.29 1548.78 1744.88 1548.04 L1744.88 1543.34 Q1746.97 1544.47 1749.19 1545.03 Q1751.41 1545.58 1753.89 1545.58 Q1757.89 1545.58 1760.23 1543.48 Q1762.57 1541.37 1762.57 1537.76 Q1762.57 1534.15 1760.23 1532.04 Q1757.89 1529.94 1753.89 1529.94 Q1752.01 1529.94 1750.14 1530.35 Q1748.29 1530.77 1746.34 1531.65 L1746.34 1514.29 Z" fill="#000000" fill-rule="nonzero" fill-opacity="1" /><path clip-path="url(#clip650)" d="M1786.46 1517.37 Q1782.85 1517.37 1781.02 1520.93 Q1779.21 1524.47 1779.21 1531.6 Q1779.21 1538.71 1781.02 1542.27 Q1782.85 1545.82 1786.46 1545.82 Q1790.09 1545.82 1791.9 1542.27 Q1793.73 1538.71 1793.73 1531.6 Q1793.73 1524.47 1791.9 1520.93 Q1790.09 1517.37 1786.46 1517.37 M1786.46 1513.66 Q1792.27 1513.66 1795.32 1518.27 Q1798.4 1522.85 1798.4 1531.6 Q1798.4 1540.33 1795.32 1544.94 Q1792.27 1549.52 1786.46 1549.52 Q1780.65 1549.52 1777.57 1544.94 Q1774.51 1540.33 1774.51 1531.6 Q1774.51 1522.85 1777.57 1518.27 Q1780.65 1513.66 1786.46 1513.66 Z" fill="#000000" fill-rule="nonzero" fill-opacity="1" /><path clip-path="url(#clip650)" d="M1816.62 1517.37 Q1813.01 1517.37 1811.18 1520.93 Q1809.37 1524.47 1809.37 1531.6 Q1809.37 1538.71 1811.18 1542.27 Q1813.01 1545.82 1816.62 1545.82 Q1820.25 1545.82 1822.06 1542.27 Q1823.89 1538.71 1823.89 1531.6 Q1823.89 1524.47 1822.06 1520.93 Q1820.25 1517.37 1816.62 1517.37 M1816.62 1513.66 Q1822.43 1513.66 1825.49 1518.27 Q1828.56 1522.85 1828.56 1531.6 Q1828.56 1540.33 1825.49 1544.94 Q1822.43 1549.52 1816.62 1549.52 Q1810.81 1549.52 1807.73 1544.94 Q1804.68 1540.33 1804.68 1531.6 Q1804.68 1522.85 1807.73 1518.27 Q1810.81 1513.66 1816.62 1513.66 Z" fill="#000000" fill-rule="nonzero" fill-opacity="1" /><path clip-path="url(#clip650)" d="M2239.19 1544.91 L2255.51 1544.91 L2255.51 1548.85 L2233.56 1548.85 L2233.56 1544.91 Q2236.23 1542.16 2240.81 1537.53 Q2245.42 1532.88 2246.6 1531.53 Q2248.84 1529.01 2249.72 1527.27 Q2250.62 1525.51 2250.62 1523.82 Q2250.62 1521.07 2248.68 1519.33 Q2246.76 1517.6 2243.66 1517.6 Q2241.46 1517.6 2239 1518.36 Q2236.57 1519.13 2233.79 1520.68 L2233.79 1515.95 Q2236.62 1514.82 2239.07 1514.24 Q2241.53 1513.66 2243.56 1513.66 Q2248.93 1513.66 2252.13 1516.35 Q2255.32 1519.03 2255.32 1523.52 Q2255.32 1525.65 2254.51 1527.57 Q2253.73 1529.47 2251.62 1532.07 Q2251.04 1532.74 2247.94 1535.95 Q2244.84 1539.15 2239.19 1544.91 Z" fill="#000000" fill-rule="nonzero" fill-opacity="1" /><path clip-path="url(#clip650)" d="M2275.32 1517.37 Q2271.71 1517.37 2269.88 1520.93 Q2268.08 1524.47 2268.08 1531.6 Q2268.08 1538.71 2269.88 1542.27 Q2271.71 1545.82 2275.32 1545.82 Q2278.96 1545.82 2280.76 1542.27 Q2282.59 1538.71 2282.59 1531.6 Q2282.59 1524.47 2280.76 1520.93 Q2278.96 1517.37 2275.32 1517.37 M2275.32 1513.66 Q2281.13 1513.66 2284.19 1518.27 Q2287.27 1522.85 2287.27 1531.6 Q2287.27 1540.33 2284.19 1544.94 Q2281.13 1549.52 2275.32 1549.52 Q2269.51 1549.52 2266.43 1544.94 Q2263.38 1540.33 2263.38 1531.6 Q2263.38 1522.85 2266.43 1518.27 Q2269.51 1513.66 2275.32 1513.66 Z" fill="#000000" fill-rule="nonzero" fill-opacity="1" /><path clip-path="url(#clip650)" d="M2305.48 1517.37 Q2301.87 1517.37 2300.04 1520.93 Q2298.24 1524.47 2298.24 1531.6 Q2298.24 1538.71 2300.04 1542.27 Q2301.87 1545.82 2305.48 1545.82 Q2309.12 1545.82 2310.92 1542.27 Q2312.75 1538.71 2312.75 1531.6 Q2312.75 1524.47 2310.92 1520.93 Q2309.12 1517.37 2305.48 1517.37 M2305.48 1513.66 Q2311.29 1513.66 2314.35 1518.27 Q2317.43 1522.85 2317.43 1531.6 Q2317.43 1540.33 2314.35 1544.94 Q2311.29 1549.52 2305.48 1549.52 Q2299.67 1549.52 2296.6 1544.94 Q2293.54 1540.33 2293.54 1531.6 Q2293.54 1522.85 2296.6 1518.27 Q2299.67 1513.66 2305.48 1513.66 Z" fill="#000000" fill-rule="nonzero" fill-opacity="1" /><path clip-path="url(#clip650)" d="M2335.65 1517.37 Q2332.04 1517.37 2330.21 1520.93 Q2328.4 1524.47 2328.4 1531.6 Q2328.4 1538.71 2330.21 1542.27 Q2332.04 1545.82 2335.65 1545.82 Q2339.28 1545.82 2341.09 1542.27 Q2342.91 1538.71 2342.91 1531.6 Q2342.91 1524.47 2341.09 1520.93 Q2339.28 1517.37 2335.65 1517.37 M2335.65 1513.66 Q2341.46 1513.66 2344.51 1518.27 Q2347.59 1522.85 2347.59 1531.6 Q2347.59 1540.33 2344.51 1544.94 Q2341.46 1549.52 2335.65 1549.52 Q2329.84 1549.52 2326.76 1544.94 Q2323.7 1540.33 2323.7 1531.6 Q2323.7 1522.85 2326.76 1518.27 Q2329.84 1513.66 2335.65 1513.66 Z" fill="#000000" fill-rule="nonzero" fill-opacity="1" /><polyline clip-path="url(#clip652)" style="stroke:#000000; stroke-linecap:round; stroke-linejoin:round; stroke-width:2; stroke-opacity:0.1; fill:none" points="155.765,1343.55 2352.76,1343.55 "/>
<polyline clip-path="url(#clip652)" style="stroke:#000000; stroke-linecap:round; stroke-linejoin:round; stroke-width:2; stroke-opacity:0.1; fill:none" points="155.765,1139.66 2352.76,1139.66 "/>
<polyline clip-path="url(#clip652)" style="stroke:#000000; stroke-linecap:round; stroke-linejoin:round; stroke-width:2; stroke-opacity:0.1; fill:none" points="155.765,935.765 2352.76,935.765 "/>
<polyline clip-path="url(#clip652)" style="stroke:#000000; stroke-linecap:round; stroke-linejoin:round; stroke-width:2; stroke-opacity:0.1; fill:none" points="155.765,731.871 2352.76,731.871 "/>
<polyline clip-path="url(#clip652)" style="stroke:#000000; stroke-linecap:round; stroke-linejoin:round; stroke-width:2; stroke-opacity:0.1; fill:none" points="155.765,527.977 2352.76,527.977 "/>
<polyline clip-path="url(#clip652)" style="stroke:#000000; stroke-linecap:round; stroke-linejoin:round; stroke-width:2; stroke-opacity:0.1; fill:none" points="155.765,324.083 2352.76,324.083 "/>
<polyline clip-path="url(#clip652)" style="stroke:#000000; stroke-linecap:round; stroke-linejoin:round; stroke-width:2; stroke-opacity:0.1; fill:none" points="155.765,120.189 2352.76,120.189 "/>
<polyline clip-path="url(#clip650)" style="stroke:#000000; stroke-linecap:round; stroke-linejoin:round; stroke-width:4; stroke-opacity:1; fill:none" points="155.765,1486.45 155.765,47.2441 "/>
<polyline clip-path="url(#clip650)" style="stroke:#000000; stroke-linecap:round; stroke-linejoin:round; stroke-width:4; stroke-opacity:1; fill:none" points="155.765,1343.55 174.663,1343.55 "/>
<polyline clip-path="url(#clip650)" style="stroke:#000000; stroke-linecap:round; stroke-linejoin:round; stroke-width:4; stroke-opacity:1; fill:none" points="155.765,1139.66 174.663,1139.66 "/>
<polyline clip-path="url(#clip650)" style="stroke:#000000; stroke-linecap:round; stroke-linejoin:round; stroke-width:4; stroke-opacity:1; fill:none" points="155.765,935.765 174.663,935.765 "/>
<polyline clip-path="url(#clip650)" style="stroke:#000000; stroke-linecap:round; stroke-linejoin:round; stroke-width:4; stroke-opacity:1; fill:none" points="155.765,731.871 174.663,731.871 "/>
<polyline clip-path="url(#clip650)" style="stroke:#000000; stroke-linecap:round; stroke-linejoin:round; stroke-width:4; stroke-opacity:1; fill:none" points="155.765,527.977 174.663,527.977 "/>
<polyline clip-path="url(#clip650)" style="stroke:#000000; stroke-linecap:round; stroke-linejoin:round; stroke-width:4; stroke-opacity:1; fill:none" points="155.765,324.083 174.663,324.083 "/>
<polyline clip-path="url(#clip650)" style="stroke:#000000; stroke-linecap:round; stroke-linejoin:round; stroke-width:4; stroke-opacity:1; fill:none" points="155.765,120.189 174.663,120.189 "/>
<path clip-path="url(#clip650)" d="M53.3995 1356.9 L61.0384 1356.9 L61.0384 1330.53 L52.7282 1332.2 L52.7282 1327.94 L60.9921 1326.27 L65.668 1326.27 L65.668 1356.9 L73.3068 1356.9 L73.3068 1360.83 L53.3995 1360.83 L53.3995 1356.9 Z" fill="#000000" fill-rule="nonzero" fill-opacity="1" /><path clip-path="url(#clip650)" d="M82.7512 1354.95 L87.6354 1354.95 L87.6354 1360.83 L82.7512 1360.83 L82.7512 1354.95 Z" fill="#000000" fill-rule="nonzero" fill-opacity="1" /><path clip-path="url(#clip650)" d="M107.821 1329.35 Q104.209 1329.35 102.381 1332.92 Q100.575 1336.46 100.575 1343.59 Q100.575 1350.69 102.381 1354.26 Q104.209 1357.8 107.821 1357.8 Q111.455 1357.8 113.26 1354.26 Q115.089 1350.69 115.089 1343.59 Q115.089 1336.46 113.26 1332.92 Q111.455 1329.35 107.821 1329.35 M107.821 1325.65 Q113.631 1325.65 116.686 1330.25 Q119.765 1334.84 119.765 1343.59 Q119.765 1352.31 116.686 1356.92 Q113.631 1361.5 107.821 1361.5 Q102.01 1361.5 98.9317 1356.92 Q95.8761 1352.31 95.8761 1343.59 Q95.8761 1334.84 98.9317 1330.25 Q102.01 1325.65 107.821 1325.65 Z" fill="#000000" fill-rule="nonzero" fill-opacity="1" /><path clip-path="url(#clip650)" d="M54.9967 1153 L62.6356 1153 L62.6356 1126.64 L54.3254 1128.3 L54.3254 1124.05 L62.5893 1122.38 L67.2652 1122.38 L67.2652 1153 L74.904 1153 L74.904 1156.94 L54.9967 1156.94 L54.9967 1153 Z" fill="#000000" fill-rule="nonzero" fill-opacity="1" /><path clip-path="url(#clip650)" d="M84.3484 1151.06 L89.2327 1151.06 L89.2327 1156.94 L84.3484 1156.94 L84.3484 1151.06 Z" fill="#000000" fill-rule="nonzero" fill-opacity="1" /><path clip-path="url(#clip650)" d="M103.446 1153 L119.765 1153 L119.765 1156.94 L97.8206 1156.94 L97.8206 1153 Q100.483 1150.25 105.066 1145.62 Q109.672 1140.97 110.853 1139.62 Q113.098 1137.1 113.978 1135.37 Q114.881 1133.61 114.881 1131.92 Q114.881 1129.16 112.936 1127.43 Q111.015 1125.69 107.913 1125.69 Q105.714 1125.69 103.26 1126.45 Q100.83 1127.22 98.0521 1128.77 L98.0521 1124.05 Q100.876 1122.91 103.33 1122.33 Q105.783 1121.75 107.821 1121.75 Q113.191 1121.75 116.385 1124.44 Q119.58 1127.12 119.58 1131.62 Q119.58 1133.74 118.77 1135.67 Q117.983 1137.56 115.876 1140.16 Q115.297 1140.83 112.196 1144.05 Q109.094 1147.24 103.446 1153 Z" fill="#000000" fill-rule="nonzero" fill-opacity="1" /><path clip-path="url(#clip650)" d="M52.9134 949.11 L60.5523 949.11 L60.5523 922.744 L52.2421 924.411 L52.2421 920.152 L60.506 918.485 L65.1819 918.485 L65.1819 949.11 L72.8207 949.11 L72.8207 953.045 L52.9134 953.045 L52.9134 949.11 Z" fill="#000000" fill-rule="nonzero" fill-opacity="1" /><path clip-path="url(#clip650)" d="M82.2651 947.165 L87.1493 947.165 L87.1493 953.045 L82.2651 953.045 L82.2651 947.165 Z" fill="#000000" fill-rule="nonzero" fill-opacity="1" /><path clip-path="url(#clip650)" d="M110.182 922.559 L98.3761 941.008 L110.182 941.008 L110.182 922.559 M108.955 918.485 L114.834 918.485 L114.834 941.008 L119.765 941.008 L119.765 944.897 L114.834 944.897 L114.834 953.045 L110.182 953.045 L110.182 944.897 L94.5799 944.897 L94.5799 940.383 L108.955 918.485 Z" fill="#000000" fill-rule="nonzero" fill-opacity="1" /><path clip-path="url(#clip650)" d="M53.2375 745.216 L60.8763 745.216 L60.8763 718.85 L52.5662 720.517 L52.5662 716.258 L60.83 714.591 L65.5059 714.591 L65.5059 745.216 L73.1448 745.216 L73.1448 749.151 L53.2375 749.151 L53.2375 745.216 Z" fill="#000000" fill-rule="nonzero" fill-opacity="1" /><path clip-path="url(#clip650)" d="M82.5892 743.272 L87.4734 743.272 L87.4734 749.151 L82.5892 749.151 L82.5892 743.272 Z" fill="#000000" fill-rule="nonzero" fill-opacity="1" /><path clip-path="url(#clip650)" d="M108.237 730.008 Q105.089 730.008 103.237 732.16 Q101.409 734.313 101.409 738.063 Q101.409 741.79 103.237 743.966 Q105.089 746.119 108.237 746.119 Q111.385 746.119 113.214 743.966 Q115.066 741.79 115.066 738.063 Q115.066 734.313 113.214 732.16 Q111.385 730.008 108.237 730.008 M117.52 715.355 L117.52 719.614 Q115.76 718.781 113.955 718.341 Q112.172 717.901 110.413 717.901 Q105.783 717.901 103.33 721.026 Q100.899 724.151 100.552 730.471 Q101.918 728.457 103.978 727.392 Q106.038 726.304 108.515 726.304 Q113.723 726.304 116.733 729.475 Q119.765 732.623 119.765 738.063 Q119.765 743.387 116.617 746.605 Q113.469 749.822 108.237 749.822 Q102.242 749.822 99.0706 745.239 Q95.8993 740.633 95.8993 731.906 Q95.8993 723.711 99.7882 718.85 Q103.677 713.966 110.228 713.966 Q111.987 713.966 113.77 714.313 Q115.575 714.661 117.52 715.355 Z" fill="#000000" fill-rule="nonzero" fill-opacity="1" /><path clip-path="url(#clip650)" d="M53.4921 541.322 L61.131 541.322 L61.131 514.956 L52.8208 516.623 L52.8208 512.364 L61.0847 510.697 L65.7606 510.697 L65.7606 541.322 L73.3994 541.322 L73.3994 545.257 L53.4921 545.257 L53.4921 541.322 Z" fill="#000000" fill-rule="nonzero" fill-opacity="1" /><path clip-path="url(#clip650)" d="M82.8438 539.378 L87.728 539.378 L87.728 545.257 L82.8438 545.257 L82.8438 539.378 Z" fill="#000000" fill-rule="nonzero" fill-opacity="1" /><path clip-path="url(#clip650)" d="M107.913 528.845 Q104.58 528.845 102.659 530.628 Q100.76 532.41 100.76 535.535 Q100.76 538.66 102.659 540.442 Q104.58 542.225 107.913 542.225 Q111.246 542.225 113.168 540.442 Q115.089 538.637 115.089 535.535 Q115.089 532.41 113.168 530.628 Q111.27 528.845 107.913 528.845 M103.237 526.855 Q100.228 526.114 98.5382 524.054 Q96.8715 521.993 96.8715 519.031 Q96.8715 514.887 99.8113 512.48 Q102.774 510.072 107.913 510.072 Q113.075 510.072 116.015 512.48 Q118.955 514.887 118.955 519.031 Q118.955 521.993 117.265 524.054 Q115.598 526.114 112.612 526.855 Q115.992 527.642 117.867 529.933 Q119.765 532.225 119.765 535.535 Q119.765 540.558 116.686 543.243 Q113.631 545.929 107.913 545.929 Q102.196 545.929 99.1169 543.243 Q96.0613 540.558 96.0613 535.535 Q96.0613 532.225 97.9595 529.933 Q99.8576 527.642 103.237 526.855 M101.524 519.47 Q101.524 522.155 103.191 523.66 Q104.881 525.165 107.913 525.165 Q110.922 525.165 112.612 523.66 Q114.325 522.155 114.325 519.47 Q114.325 516.785 112.612 515.281 Q110.922 513.776 107.913 513.776 Q104.881 513.776 103.191 515.281 Q101.524 516.785 101.524 519.47 Z" fill="#000000" fill-rule="nonzero" fill-opacity="1" /><path clip-path="url(#clip650)" d="M56.6171 337.428 L72.9365 337.428 L72.9365 341.363 L50.9921 341.363 L50.9921 337.428 Q53.6541 334.673 58.2375 330.044 Q62.8439 325.391 64.0245 324.049 Q66.2698 321.525 67.1494 319.789 Q68.0522 318.03 68.0522 316.34 Q68.0522 313.586 66.1078 311.85 Q64.1865 310.113 61.0847 310.113 Q58.8856 310.113 56.4319 310.877 Q54.0014 311.641 51.2236 313.192 L51.2236 308.47 Q54.0477 307.336 56.5014 306.757 Q58.955 306.178 60.9921 306.178 Q66.3624 306.178 69.5568 308.863 Q72.7513 311.549 72.7513 316.039 Q72.7513 318.169 71.9411 320.09 Q71.1541 321.988 69.0476 324.581 Q68.4689 325.252 65.367 328.47 Q62.2652 331.664 56.6171 337.428 Z" fill="#000000" fill-rule="nonzero" fill-opacity="1" /><path clip-path="url(#clip650)" d="M82.7512 335.484 L87.6354 335.484 L87.6354 341.363 L82.7512 341.363 L82.7512 335.484 Z" fill="#000000" fill-rule="nonzero" fill-opacity="1" /><path clip-path="url(#clip650)" d="M107.821 309.882 Q104.209 309.882 102.381 313.447 Q100.575 316.988 100.575 324.118 Q100.575 331.224 102.381 334.789 Q104.209 338.331 107.821 338.331 Q111.455 338.331 113.26 334.789 Q115.089 331.224 115.089 324.118 Q115.089 316.988 113.26 313.447 Q111.455 309.882 107.821 309.882 M107.821 306.178 Q113.631 306.178 116.686 310.785 Q119.765 315.368 119.765 324.118 Q119.765 332.845 116.686 337.451 Q113.631 342.035 107.821 342.035 Q102.01 342.035 98.9317 337.451 Q95.8761 332.845 95.8761 324.118 Q95.8761 315.368 98.9317 310.785 Q102.01 306.178 107.821 306.178 Z" fill="#000000" fill-rule="nonzero" fill-opacity="1" /><path clip-path="url(#clip650)" d="M58.2143 133.534 L74.5337 133.534 L74.5337 137.469 L52.5893 137.469 L52.5893 133.534 Q55.2514 130.78 59.8347 126.15 Q64.4411 121.497 65.6217 120.155 Q67.867 117.631 68.7467 115.895 Q69.6494 114.136 69.6494 112.446 Q69.6494 109.692 67.705 107.956 Q65.7837 106.22 62.6819 106.22 Q60.4828 106.22 58.0291 106.983 Q55.5986 107.747 52.8208 109.298 L52.8208 104.576 Q55.6449 103.442 58.0986 102.863 Q60.5523 102.284 62.5893 102.284 Q67.9596 102.284 71.1541 104.97 Q74.3485 107.655 74.3485 112.145 Q74.3485 114.275 73.5383 116.196 Q72.7513 118.094 70.6448 120.687 Q70.0661 121.358 66.9643 124.576 Q63.8624 127.77 58.2143 133.534 Z" fill="#000000" fill-rule="nonzero" fill-opacity="1" /><path clip-path="url(#clip650)" d="M84.3484 131.59 L89.2327 131.59 L89.2327 137.469 L84.3484 137.469 L84.3484 131.59 Z" fill="#000000" fill-rule="nonzero" fill-opacity="1" /><path clip-path="url(#clip650)" d="M103.446 133.534 L119.765 133.534 L119.765 137.469 L97.8206 137.469 L97.8206 133.534 Q100.483 130.78 105.066 126.15 Q109.672 121.497 110.853 120.155 Q113.098 117.631 113.978 115.895 Q114.881 114.136 114.881 112.446 Q114.881 109.692 112.936 107.956 Q111.015 106.22 107.913 106.22 Q105.714 106.22 103.26 106.983 Q100.83 107.747 98.0521 109.298 L98.0521 104.576 Q100.876 103.442 103.33 102.863 Q105.783 102.284 107.821 102.284 Q113.191 102.284 116.385 104.97 Q119.58 107.655 119.58 112.145 Q119.58 114.275 118.77 116.196 Q117.983 118.094 115.876 120.687 Q115.297 121.358 112.196 124.576 Q109.094 127.77 103.446 133.534 Z" fill="#000000" fill-rule="nonzero" fill-opacity="1" /><polyline clip-path="url(#clip652)" style="stroke:#009af9; stroke-linecap:round; stroke-linejoin:round; stroke-width:4; stroke-opacity:1; fill:none" points="217.944,1082.18 218.98,1082.29 220.017,1271.05 221.053,1271.11 222.089,659.217 223.125,659.361 224.162,701.629 225.198,701.817 226.234,931.944 227.271,932.055 228.307,780.285 229.343,780.395 230.38,825.115 231.416,825.27 232.452,646.052 233.489,646.146 234.525,901.805 235.561,901.925 236.598,819.598 237.634,819.759 238.67,1178.5 239.707,1178.57 240.743,917.73 241.779,917.839 242.815,772.08 243.852,772.147 244.888,681.2 245.924,681.349 246.961,911.604 247.997,911.739 249.033,335.693 250.07,335.829 251.106,962.407 252.142,962.48 253.179,851.567 254.215,851.681 255.251,775.643 256.288,775.755 257.324,609.159 258.36,609.344 259.397,354.972 260.433,355.244 261.469,1183.92 262.506,1184 263.542,682.953 264.578,683.086 265.614,1215.6 266.651,1215.65 267.687,913.603 268.723,913.721 269.76,1140.39 270.796,1140.48 271.832,486.412 272.869,486.563 273.905,915.164 274.941,915.25 275.978,960.593 277.014,960.683 278.05,629.983 279.087,630.175 280.123,470.344 281.159,470.526 282.196,451.673 283.232,451.893 284.268,454.556 285.304,454.821 286.341,824.728 287.377,824.884 288.413,792.774 289.45,792.915 290.486,727.184 291.522,727.338 292.559,741.765 293.595,741.939 294.631,712.435 295.668,712.597 296.704,931.735 297.74,931.798 298.777,1100.8 299.813,1100.88 300.849,1030.41 301.886,1030.53 302.922,787.226 303.958,787.329 304.994,1307.67 306.031,1307.74 307.067,1166.23 308.103,1166.35 309.14,593.967 310.176,594.144 311.212,1081.73 312.249,1081.82 313.285,924.74 314.321,924.845 315.358,464.352 316.394,464.495 317.43,1292.23 318.467,1292.3 319.503,1208.87 320.539,1208.94 321.576,743.206 322.612,743.349 323.648,964.085 324.684,964.192 325.721,1227.66 326.757,1227.73 327.793,273.58 328.83,273.818 329.866,1143.91 330.902,1143.98 331.939,856.87 332.975,856.941 334.011,996.397 335.048,996.497 336.084,696.1 337.12,696.219 338.157,569.205 339.193,569.338 340.229,899.837 341.266,899.918 342.302,593.906 343.338,594.033 344.375,950.923 345.411,951.075 346.447,662.362 347.483,662.493 348.52,987.165 349.556,987.245 350.592,1197.24 351.629,1197.31 352.665,811.255 353.701,811.4 354.738,271.36 355.774,271.55 356.81,1407.92 357.847,1407.98 358.883,804.195 359.919,804.361 360.956,1310.01 361.992,1310.09 363.028,1171.43 364.065,1171.52 365.101,1192.63 366.137,1192.71 367.173,930.142 368.21,930.3 369.246,1104.05 370.282,1104.16 371.319,953.336 372.355,953.436 373.391,1076.17 374.428,1076.26 375.464,1015.86 376.5,1015.96 377.537,394.12 378.573,394.299 379.609,1159.31 380.646,1159.39 381.682,868.207 382.718,868.339 383.755,1057.21 384.791,1057.29 385.827,932.176 386.863,932.317 387.9,983.551 388.936,983.646 389.972,1020.67 391.009,1020.74 392.045,863.987 393.081,864.181 394.118,1052.84 395.154,1052.95 396.19,1065.96 397.227,1066.05 398.263,964.767 399.299,964.911 400.336,1262.13 401.372,1262.19 402.408,866.032 403.445,866.117 404.481,1127.4 405.517,1127.49 406.554,1054.86 407.59,1054.98 408.626,1205.22 409.662,1205.28 410.699,1127.51 411.735,1127.59 412.771,1102.21 413.808,1102.28 414.844,1089.9 415.88,1089.97 416.917,897.358 417.953,897.468 418.989,1114.6 420.026,1114.7 421.062,1164.7 422.098,1164.77 423.135,680.045 424.171,680.206 425.207,1107.68 426.244,1107.75 427.28,858.537 428.316,858.63 429.352,996.245 430.389,996.344 431.425,927.739 432.461,927.854 433.498,1092.22 434.534,1092.31 435.57,1224.58 436.607,1224.65 437.643,1137.45 438.679,1137.53 439.716,904.335 440.752,904.453 441.788,1107.74 442.825,1107.82 443.861,1109.21 444.897,1109.31 445.934,621.487 446.97,621.701 448.006,945.987 449.042,946.098 450.079,878.087 451.115,878.192 452.151,1175.62 453.188,1175.7 454.224,670.875 455.26,671.01 456.297,829.955 457.333,830.094 458.369,647.656 459.406,647.754 460.442,455.438 461.478,455.583 462.515,938.385 463.551,938.461 464.587,383.406 465.624,383.616 466.66,995.282 467.696,995.37 468.732,917.329 469.769,917.413 470.805,795.947 471.841,796.087 472.878,1032.43 473.914,1032.51 474.95,810.983 475.987,811.11 477.023,954.827 478.059,954.935 479.096,1030.95 480.132,1031.06 481.168,1266 482.205,1266.05 483.241,758.206 484.277,758.28 485.314,765.014 486.35,765.167 487.386,875.733 488.423,875.845 489.459,515.756 490.495,515.92 491.531,947.766 492.568,947.856 493.604,1233.18 494.64,1233.26 495.677,676.394 496.713,676.515 497.749,930.373 498.786,930.466 499.822,866.04 500.858,866.164 501.895,1328.75 502.931,1328.81 503.967,918.842 505.004,918.982 506.04,1038.63 507.076,1038.72 508.113,1054.07 509.149,1054.15 510.185,801.359 511.221,801.504 512.258,864.718 513.294,864.824 514.33,926.171 515.367,926.261 516.403,934.799 517.439,934.913 518.476,963.766 519.512,963.844 520.548,489.541 521.585,489.777 522.621,1003.49 523.657,1003.56 524.694,569.91 525.73,570.071 526.766,1445.66 527.803,1445.72 528.839,884.801 529.875,884.896 530.911,457.373 531.948,457.531 532.984,797.552 534.02,797.712 535.057,1319.25 536.093,1319.31 537.129,1089.77 538.166,1089.86 539.202,1062.89 540.238,1062.95 541.275,992.8 542.311,992.895 543.347,834.159 544.384,834.331 545.42,778.642 546.456,778.742 547.493,567.383 548.529,567.534 549.565,1037.73 550.601,1037.83 551.638,424.064 552.674,424.258 553.71,762.202 554.747,762.304 555.783,1074.12 556.819,1074.22 557.856,826.597 558.892,826.735 559.928,887.088 560.965,887.228 562.001,822.448 563.037,822.591 564.074,804.425 565.11,804.512 566.146,770.377 567.183,770.499 568.219,1080.03 569.255,1080.09 570.292,1147.37 571.328,1147.46 572.364,818.925 573.4,819.061 574.437,1149.28 575.473,1149.37 576.509,995.749 577.546,995.863 578.582,1260.15 579.618,1260.23 580.655,1036.65 581.691,1036.77 582.727,754.24 583.764,754.465 584.8,802.147 585.836,802.3 586.873,765.039 587.909,765.199 588.945,1105.24 589.982,1105.35 591.018,567.721 592.054,567.954 593.09,692.526 594.127,692.63 595.163,1073.18 596.199,1073.29 597.236,1211.98 598.272,1212.05 599.308,776.307 600.345,776.449 601.381,783.503 602.417,783.61 603.454,885.277 604.49,885.381 605.526,839.101 606.563,839.18 607.599,699.922 608.635,700.096 609.672,973.962 610.708,974.034 611.744,603.267 612.78,603.408 613.817,1307.32 614.853,1307.41 615.889,965.477 616.926,965.573 617.962,792.419 618.998,792.584 620.035,1036.63 621.071,1036.74 622.107,1066.79 623.144,1066.87 624.18,793.509 625.216,793.641 626.253,882.285 627.289,882.39 628.325,920.933 629.362,921.041 630.398,656.261 631.434,656.396 632.47,1038.8 633.507,1038.92 634.543,1080.23 635.579,1080.34 636.616,421.261 637.652,421.417 638.688,851.21 639.725,851.344 640.761,973.886 641.797,973.997 642.834,696.126 643.87,696.262 644.906,979.175 645.943,979.245 646.979,660.72 648.015,660.893 649.052,979.332 650.088,979.444 651.124,1391.6 652.161,1391.66 653.197,950.013 654.233,950.12 655.269,571.035 656.306,571.231 657.342,1010.07 658.378,1010.17 659.415,973.369 660.451,973.465 661.487,1048.65 662.524,1048.74 663.56,1112.44 664.596,1112.51 665.633,946.305 666.669,946.396 667.705,1178.86 668.742,1178.94 669.778,966.768 670.814,966.854 671.851,503.131 672.887,503.328 673.923,1146.99 674.959,1147.05 675.996,529.103 677.032,529.323 678.068,935.208 679.105,935.332 680.141,1010.5 681.177,1010.58 682.214,687.855 683.25,687.931 684.286,918.904 685.323,918.972 686.359,797.894 687.395,798.047 688.432,1035.52 689.468,1035.6 690.504,945.577 691.541,945.655 692.577,453.316 693.613,453.512 694.649,1099.55 695.686,1099.64 696.722,770.506 697.758,770.633 698.795,970.144 699.831,970.249 700.867,591.905 701.904,592.069 702.94,805.166 703.976,805.323 705.013,682.569 706.049,682.693 707.085,927.116 708.122,927.264 709.158,571.327 710.194,571.506 711.231,897.868 712.267,897.987 713.303,684.259 714.34,684.441 715.376,631.645 716.412,631.798 717.448,703.909 718.485,704.051 719.521,391.693 720.557,391.838 721.594,918.764 722.63,918.844 723.666,919.745 724.703,919.853 725.739,832.259 726.775,832.453 727.812,1038.06 728.848,1038.18 729.884,1059 730.921,1059.11 731.957,817.391 732.993,817.482 734.03,708.572 735.066,708.696 736.102,1150.73 737.138,1150.8 738.175,832.099 739.211,832.235 740.247,1265.43 741.284,1265.5 742.32,794.124 743.356,794.27 744.393,820.215 745.429,820.32 746.465,605.82 747.502,605.993 748.538,1118.82 749.574,1118.9 750.611,767.591 751.647,767.768 752.683,1133.02 753.72,1133.11 754.756,975.789 755.792,975.925 756.828,1173.95 757.865,1174 758.901,1347.22 759.937,1347.27 760.974,937.828 762.01,937.961 763.046,884.503 764.083,884.585 765.119,1000.03 766.155,1000.12 767.192,521.166 768.228,521.383 769.264,902.908 770.301,903.042 771.337,720.475 772.373,720.583 773.41,682.958 774.446,683.024 775.482,843.945 776.518,844.035 777.555,1018.66 778.591,1018.75 779.627,809.838 780.664,809.954 781.7,833.378 782.736,833.462 783.773,600.537 784.809,600.679 785.845,537.703 786.882,537.901 787.918,537.694 788.954,537.918 789.991,583.955 791.027,584.124 792.063,935.874 793.1,935.97 794.136,790.938 795.172,791.11 796.209,890.65 797.245,890.727 798.281,1440.6 799.317,1440.65 800.354,424.546 801.39,424.716 802.426,626.277 803.463,626.467 804.499,732.479 805.535,732.652 806.572,1169.21 807.608,1169.28 808.644,885.472 809.681,885.584 810.717,1005.33 811.753,1005.44 812.79,566.936 813.826,567.094 814.862,1003.68 815.899,1003.76 816.935,970.156 817.971,970.239 819.007,772.077 820.044,772.204 821.08,762.858 822.116,762.988 823.153,1201.9 824.189,1201.98 825.225,816.469 826.262,816.595 827.298,843.104 828.334,843.236 829.371,852.766 830.407,852.907 831.443,612.285 832.48,612.406 833.516,1175.05 834.552,1175.12 835.589,512.216 836.625,512.338 837.661,738.064 838.697,738.217 839.734,819.693 840.77,819.765 841.806,862.284 842.843,862.419 843.879,1059.09 844.915,1059.18 845.952,1295.17 846.988,1295.23 848.024,607.885 849.061,607.96 850.097,1076.33 851.133,1076.4 852.17,1401.44 853.206,1401.49 854.242,803.735 855.279,803.849 856.315,768.001 857.351,768.152 858.387,897.32 859.424,897.453 860.46,1040.55 861.496,1040.66 862.533,1039.72 863.569,1039.81 864.605,597.607 865.642,597.722 866.678,1184.33 867.714,1184.4 868.751,706.229 869.787,706.333 870.823,471.578 871.86,471.8 872.896,591.836 873.932,591.995 874.969,660.188 876.005,660.319 877.041,992.226 878.078,992.337 879.114,766.609 880.15,766.747 881.186,617.57 882.223,617.74 883.259,969.991 884.295,970.13 885.332,482.284 886.368,482.454 887.404,950.486 888.441,950.586 889.477,1015.09 890.513,1015.15 891.55,1181.13 892.586,1181.21 893.622,932.441 894.659,932.527 895.695,1087.66 896.731,1087.72 897.768,1144.77 898.804,1144.86 899.84,446.529 900.876,446.726 901.913,928.008 902.949,928.114 903.985,554.573 905.022,554.749 906.058,946.367 907.094,946.514 908.131,1011.66 909.167,1011.76 910.203,963.542 911.24,963.64 912.276,1217.07 913.312,1217.14 914.349,730.875 915.385,731.057 916.421,910.982 917.458,911.117 918.494,520.861 919.53,521.066 920.566,766.57 921.603,766.703 922.639,690.491 923.675,690.689 924.712,897.149 925.748,897.306 926.784,667.385 927.821,667.529 928.857,811.166 929.893,811.241 930.93,1077.53 931.966,1077.61 933.002,1275.99 934.039,1276.06 935.075,681.129 936.111,681.241 937.148,1088.4 938.184,1088.49 939.22,631.622 940.257,631.803 941.293,855.942 942.329,856.026 943.365,981.007 944.402,981.123 945.438,478.388 946.474,478.595 947.511,732.091 948.547,732.226 949.583,888.958 950.62,889.101 951.656,794.638 952.692,794.73 953.729,571.579 954.765,571.734 955.801,847.926 956.838,848.076 957.874,87.9763 958.91,88.0985 959.947,1028.85 960.983,1028.93 962.019,625.666 963.055,625.82 964.092,1025.48 965.128,1025.59 966.164,639.973 967.201,640.124 968.237,1333.26 969.273,1333.34 970.31,1000.41 971.346,1000.51 972.382,667.836 973.419,667.979 974.455,993.802 975.491,993.925 976.528,908.824 977.564,908.921 978.6,817.775 979.637,817.862 980.673,1033.03 981.709,1033.12 982.745,985.133 983.782,985.203 984.818,988.62 985.854,988.723 986.891,962.203 987.927,962.305 988.963,1025.23 990,1025.35 991.036,699.285 992.072,699.427 993.109,1081.17 994.145,1081.29 995.181,664.907 996.218,665.049 997.254,881.099 998.29,881.216 999.327,1012.66 1000.36,1012.74 1001.4,1119.51 1002.44,1119.59 1003.47,521.096 1004.51,521.224 1005.54,279.806 1006.58,279.98 1007.62,606.796 1008.65,606.958 1009.69,591.715 1010.73,591.905 1011.76,1022.08 1012.8,1022.21 1013.83,721.106 1014.87,721.313 1015.91,1113.53 1016.94,1113.6 1017.98,571.997 1019.02,572.209 1020.05,842.567 1021.09,842.708 1022.13,829.839 1023.16,830.024 1024.2,1042.7 1025.23,1042.77 1026.27,703.658 1027.31,703.798 1028.34,647.842 1029.38,647.943 1030.42,528.74 1031.45,528.875 1032.49,104.138 1033.52,104.373 1034.56,1052.77 1035.6,1052.87 1036.63,769.483 1037.67,769.66 1038.71,725.617 1039.74,725.728 1040.78,994.084 1041.82,994.184 1042.85,988.981 1043.89,989.117 1044.92,991.651 1045.96,991.767 1047,686.086 1048.03,686.272 1049.07,665.203 1050.11,665.492 1051.14,829.514 1052.18,829.616 1053.22,568.375 1054.25,568.619 1055.29,1132.99 1056.32,1133.07 1057.36,649.228 1058.4,649.373 1059.43,814.503 1060.47,814.633 1061.51,1212.45 1062.54,1212.53 1063.58,1011.65 1064.61,1011.74 1065.65,1000.05 1066.69,1000.15 1067.72,1015.9 1068.76,1016.02 1069.8,651.428 1070.83,651.621 1071.87,748.383 1072.91,748.509 1073.94,498.441 1074.98,498.64 1076.01,1129.01 1077.05,1129.08 1078.09,1144 1079.12,1144.06 1080.16,503.427 1081.2,503.649 1082.23,711.551 1083.27,711.665 1084.3,924.289 1085.34,924.379 1086.38,603.887 1087.41,604.015 1088.45,1150.43 1089.49,1150.52 1090.52,361.728 1091.56,361.882 1092.6,986.416 1093.63,986.544 1094.67,492.99 1095.7,493.119 1096.74,898.66 1097.78,898.797 1098.81,974.265 1099.85,974.394 1100.89,944.646 1101.92,944.729 1102.96,968.31 1103.99,968.418 1105.03,580.249 1106.07,580.421 1107.1,408.716 1108.14,408.899 1109.18,927.088 1110.21,927.2 1111.25,1022.95 1112.29,1023.06 1113.32,664.215 1114.36,664.366 1115.39,757.583 1116.43,757.669 1117.47,999.331 1118.5,999.444 1119.54,574.425 1120.58,574.609 1121.61,1330.56 1122.65,1330.63 1123.68,489.219 1124.72,489.394 1125.76,1001.38 1126.79,1001.47 1127.83,840.21 1128.87,840.366 1129.9,814.306 1130.94,814.458 1131.98,736.219 1133.01,736.35 1134.05,718.289 1135.08,718.431 1136.12,1131.36 1137.16,1131.45 1138.19,724.497 1139.23,724.595 1140.27,863.584 1141.3,863.684 1142.34,722.809 1143.37,722.924 1144.41,1390.66 1145.45,1390.71 1146.48,480.007 1147.52,480.177 1148.56,717.796 1149.59,717.9 1150.63,454.613 1151.67,454.794 1152.7,933.976 1153.74,934.057 1154.77,1052.63 1155.81,1052.76 1156.85,1030.91 1157.88,1030.99 1158.92,706.94 1159.96,707.042 1160.99,1014.53 1162.03,1014.62 1163.06,603.516 1164.1,603.639 1165.14,1338.56 1166.17,1338.61 1167.21,1200.68 1168.25,1200.76 1169.28,1004.99 1170.32,1005.06 1171.36,617.532 1172.39,617.709 1173.43,964.144 1174.46,964.235 1175.5,764.26 1176.54,764.409 1177.57,601.296 1178.61,601.471 1179.65,451.957 1180.68,452.18 1181.72,402.409 1182.75,402.553 1183.79,835.067 1184.83,835.195 1185.86,803.64 1186.9,803.761 1187.94,541.504 1188.97,541.669 1190.01,794.822 1191.05,794.947 1192.08,805.985 1193.12,806.098 1194.15,643.839 1195.19,643.972 1196.23,720.528 1197.26,720.676 1198.3,783.6 1199.34,783.703 1200.37,602.605 1201.41,602.742 1202.44,997.223 1203.48,997.308 1204.52,738.257 1205.55,738.426 1206.59,1269.42 1207.63,1269.49 1208.66,658.258 1209.7,658.506 1210.74,999.18 1211.77,999.28 1212.81,959.733 1213.84,959.798 1214.88,747.718 1215.92,747.873 1216.95,689.83 1217.99,689.969 1219.03,954.7 1220.06,954.78 1221.1,768.24 1222.13,768.366 1223.17,1085.19 1224.21,1085.26 1225.24,671.839 1226.28,671.984 1227.32,417.74 1228.35,417.934 1229.39,873.554 1230.43,873.63 1231.46,1162.47 1232.5,1162.55 1233.53,740.591 1234.57,740.699 1235.61,744.341 1236.64,744.492 1237.68,571.151 1238.72,571.282 1239.75,421.295 1240.79,421.456 1241.82,1018.97 1242.86,1019.04 1243.9,826.597 1244.93,826.719 1245.97,1164.65 1247.01,1164.71 1248.04,727.396 1249.08,727.546 1250.12,1144.4 1251.15,1144.48 1252.19,757.473 1253.22,757.582 1254.26,753.573 1255.3,753.72 1256.33,782.709 1257.37,782.838 1258.41,560.471 1259.44,560.62 1260.48,789.53 1261.51,789.639 1262.55,949.706 1263.59,949.781 1264.62,824.169 1265.66,824.262 1266.7,1237.47 1267.73,1237.53 1268.77,898.639 1269.81,898.756 1270.84,446.575 1271.88,446.711 1272.91,713.489 1273.95,713.597 1274.99,931.901 1276.02,932.008 1277.06,869.036 1278.1,869.159 1279.13,662.929 1280.17,663.088 1281.2,1150.58 1282.24,1150.64 1283.28,913.116 1284.31,913.214 1285.35,150.868 1286.39,151.15 1287.42,856.444 1288.46,856.529 1289.5,582.523 1290.53,582.709 1291.57,554.199 1292.6,554.314 1293.64,656.026 1294.68,656.199 1295.71,829.249 1296.75,829.375 1297.79,645.742 1298.82,645.87 1299.86,981.941 1300.89,982.042 1301.93,725.919 1302.97,726.052 1304,636.348 1305.04,636.496 1306.08,775.595 1307.11,775.695 1308.15,750.585 1309.19,750.683 1310.22,509.341 1311.26,509.573 1312.29,1236.28 1313.33,1236.34 1314.37,705.606 1315.4,705.769 1316.44,1036.6 1317.48,1036.67 1318.51,840.872 1319.55,840.987 1320.58,1125.64 1321.62,1125.72 1322.66,1089.1 1323.69,1089.18 1324.73,992.165 1325.77,992.267 1326.8,926.556 1327.84,926.659 1328.88,819.063 1329.91,819.235 1330.95,832.286 1331.98,832.411 1333.02,995.111 1334.06,995.182 1335.09,940.397 1336.13,940.5 1337.17,815.769 1338.2,816.019 1339.24,952.569 1340.27,952.649 1341.31,994.037 1342.35,994.126 1343.38,894.057 1344.42,894.165 1345.46,742.883 1346.49,742.99 1347.53,501.348 1348.57,501.492 1349.6,474.814 1350.64,475.02 1351.67,954.699 1352.71,954.763 1353.75,1285.33 1354.78,1285.4 1355.82,810.321 1356.86,810.436 1357.89,875.882 1358.93,875.976 1359.96,621.394 1361,621.539 1362.04,982.167 1363.07,982.245 1364.11,937.449 1365.15,937.543 1366.18,654.942 1367.22,655.099 1368.26,916.359 1369.29,916.444 1370.33,965.243 1371.36,965.319 1372.4,771.175 1373.44,771.275 1374.47,268.413 1375.51,268.673 1376.55,976.336 1377.58,976.406 1378.62,1062.3 1379.65,1062.38 1380.69,979.205 1381.73,979.33 1382.76,992.969 1383.8,993.102 1384.84,971.865 1385.87,971.978 1386.91,767.869 1387.95,768.002 1388.98,764.491 1390.02,764.611 1391.05,747.615 1392.09,747.72 1393.13,865.333 1394.16,865.458 1395.2,1023.48 1396.24,1023.57 1397.27,987.3 1398.31,987.402 1399.34,900.514 1400.38,900.611 1401.42,909.186 1402.45,909.322 1403.49,1062.03 1404.53,1062.12 1405.56,890.707 1406.6,890.854 1407.64,904.206 1408.67,904.3 1409.71,611.261 1410.74,611.42 1411.78,897.877 1412.82,898.041 1413.85,663.398 1414.89,663.553 1415.93,760.072 1416.96,760.156 1418,791.48 1419.03,791.597 1420.07,580.1 1421.11,580.22 1422.14,1134.38 1423.18,1134.44 1424.22,1035.88 1425.25,1035.95 1426.29,770.334 1427.33,770.454 1428.36,1287.21 1429.4,1287.27 1430.43,738.247 1431.47,738.391 1432.51,682.598 1433.54,682.741 1434.58,664.951 1435.62,665.107 1436.65,780.071 1437.69,780.175 1438.72,1078.9 1439.76,1078.96 1440.8,1304.47 1441.83,1304.53 1442.87,689.098 1443.91,689.272 1444.94,637.761 1445.98,637.92 1447.02,894.093 1448.05,894.228 1449.09,1059.4 1450.12,1059.49 1451.16,688.471 1452.2,688.63 1453.23,1006.8 1454.27,1006.91 1455.31,1132.1 1456.34,1132.17 1457.38,738.841 1458.41,738.968 1459.45,889.26 1460.49,889.37 1461.52,829.88 1462.56,830.002 1463.6,941.58 1464.63,941.686 1465.67,351.892 1466.71,352.053 1467.74,713.636 1468.78,713.775 1469.81,629.752 1470.85,629.926 1471.89,529.734 1472.92,529.944 1473.96,985.423 1475,985.491 1476.03,1005.03 1477.07,1005.12 1478.1,1051.94 1479.14,1052.02 1480.18,1045.1 1481.21,1045.18 1482.25,364.088 1483.29,364.322 1484.32,559.841 1485.36,559.99 1486.4,1217.71 1487.43,1217.78 1488.47,791.768 1489.5,791.933 1490.54,938.246 1491.58,938.395 1492.61,917.436 1493.65,917.559 1494.69,901.898 1495.72,901.987 1496.76,935.911 1497.79,936.044 1498.83,1208.35 1499.87,1208.41 1500.9,892.613 1501.94,892.701 1502.98,823.115 1504.01,823.232 1505.05,707.315 1506.09,707.404 1507.12,491.075 1508.16,491.276 1509.19,409.324 1510.23,409.495 1511.27,793.922 1512.3,794.058 1513.34,778.37 1514.38,778.476 1515.41,454.283 1516.45,454.467 1517.48,854.804 1518.52,854.898 1519.56,975.144 1520.59,975.207 1521.63,1189.25 1522.67,1189.32 1523.7,1089.12 1524.74,1089.2 1525.78,1287.24 1526.81,1287.32 1527.85,573.319 1528.88,573.43 1529.92,607.669 1530.96,607.856 1531.99,907.988 1533.03,908.076 1534.07,762.327 1535.1,762.471 1536.14,579.871 1537.17,580.068 1538.21,1157 1539.25,1157.06 1540.28,636.517 1541.32,636.619 1542.36,972.864 1543.39,972.962 1544.43,623.142 1545.47,623.323 1546.5,862.535 1547.54,862.667 1548.57,1166.98 1549.61,1167.05 1550.65,688.897 1551.68,689.05 1552.72,621.097 1553.76,621.286 1554.79,1009.22 1555.83,1009.34 1556.86,871.59 1557.9,871.699 1558.94,720.575 1559.97,720.65 1561.01,1088.52 1562.05,1088.59 1563.08,343.621 1564.12,343.843 1565.16,1152.55 1566.19,1152.62 1567.23,818.768 1568.26,818.859 1569.3,882.582 1570.34,882.702 1571.37,1028.3 1572.41,1028.39 1573.45,640.509 1574.48,640.687 1575.52,559.07 1576.55,559.225 1577.59,775.389 1578.63,775.574 1579.66,866.054 1580.7,866.139 1581.74,679.94 1582.77,680.043 1583.81,741.794 1584.85,741.904 1585.88,590.203 1586.92,590.362 1587.95,886.371 1588.99,886.581 1590.03,531.083 1591.06,531.235 1592.1,723.907 1593.14,724.036 1594.17,696.497 1595.21,696.617 1596.24,458.749 1597.28,458.958 1598.32,702.624 1599.35,702.757 1600.39,945.086 1601.43,945.244 1602.46,882.13 1603.5,882.224 1604.54,724.02 1605.57,724.188 1606.61,537.509 1607.64,537.683 1608.68,826.01 1609.72,826.063 1610.75,913.424 1611.79,913.522 1612.83,718.418 1613.86,718.543 1614.9,865.241 1615.93,865.334 1616.97,782.351 1618.01,782.45 1619.04,965.438 1620.08,965.534 1621.12,731.198 1622.15,731.349 1623.19,530.451 1624.23,530.631 1625.26,851.928 1626.3,852.05 1627.33,954.155 1628.37,954.227 1629.41,813.775 1630.44,813.908 1631.48,861.005 1632.52,861.105 1633.55,979.358 1634.59,979.449 1635.62,807.378 1636.66,807.493 1637.7,1125.93 1638.73,1126 1639.77,945.811 1640.81,945.883 1641.84,835.432 1642.88,835.541 1643.92,632.527 1644.95,632.648 1645.99,965.821 1647.02,965.94 1648.06,683.229 1649.1,683.393 1650.13,981.244 1651.17,981.326 1652.21,954.96 1653.24,955.019 1654.28,631.457 1655.31,631.612 1656.35,1154.65 1657.39,1154.7 1658.42,679.721 1659.46,679.834 1660.5,650.594 1661.53,650.759 1662.57,637.327 1663.61,637.431 1664.64,545.034 1665.68,545.178 1666.71,558.649 1667.75,558.791 1668.79,796.793 1669.82,796.924 1670.86,935.958 1671.9,936.041 1672.93,620.843 1673.97,621.071 1675,1246.7 1676.04,1246.8 1677.08,659.925 1678.11,660.087 1679.15,439.732 1680.19,439.88 1681.22,749.551 1682.26,749.652 1683.3,605.537 1684.33,605.675 1685.37,798.717 1686.4,798.863 1687.44,844.542 1688.48,844.645 1689.51,788.906 1690.55,789.103 1691.59,993.099 1692.62,993.203 1693.66,910.288 1694.69,910.398 1695.73,839.927 1696.77,840.038 1697.8,632.855 1698.84,632.964 1699.88,941.746 1700.91,941.864 1701.95,1061.01 1702.99,1061.1 1704.02,583.351 1705.06,583.551 1706.09,551.733 1707.13,551.893 1708.17,906.982 1709.2,907.075 1710.24,858.192 1711.28,858.297 1712.31,1041.31 1713.35,1041.41 1714.38,1047.54 1715.42,1047.64 1716.46,992.482 1717.49,992.594 1718.53,516.809 1719.57,516.95 1720.6,574.904 1721.64,575.023 1722.68,595.015 1723.71,595.138 1724.75,550.477 1725.78,550.628 1726.82,770.647 1727.86,770.765 1728.89,1031.32 1729.93,1031.38 1730.97,1064.26 1732,1064.34 1733.04,443.798 1734.07,444.055 1735.11,1034.6 1736.15,1034.68 1737.18,463.7 1738.22,463.82 1739.26,660.544 1740.29,660.621 1741.33,934.503 1742.37,934.591 1743.4,582.905 1744.44,583.023 1745.47,1240.98 1746.51,1241.04 1747.55,486.847 1748.58,486.96 1749.62,785.933 1750.66,786.079 1751.69,526.563 1752.73,526.691 1753.76,871.153 1754.8,871.24 1755.84,692.757 1756.87,692.882 1757.91,499.925 1758.95,500.102 1759.98,868.017 1761.02,868.118 1762.06,676.137 1763.09,676.297 1764.13,1007.39 1765.16,1007.49 1766.2,656.387 1767.24,656.573 1768.27,991.095 1769.31,991.196 1770.35,883.435 1771.38,883.526 1772.42,978.44 1773.45,978.565 1774.49,653.714 1775.53,653.858 1776.56,685.563 1777.6,685.688 1778.64,865.362 1779.67,865.468 1780.71,868.696 1781.75,868.786 1782.78,987.705 1783.82,987.789 1784.85,768.747 1785.89,768.884 1786.93,1230.53 1787.96,1230.6 1789,751.587 1790.04,751.694 1791.07,914.225 1792.11,914.325 1793.14,972.345 1794.18,972.458 1795.22,865.256 1796.25,865.387 1797.29,334.954 1798.33,335.131 1799.36,901.336 1800.4,901.428 1801.44,735.179 1802.47,735.35 1803.51,670.861 1804.54,670.993 1805.58,705.998 1806.62,706.189 1807.65,772.584 1808.69,772.739 1809.73,690.794 1810.76,690.911 1811.8,939.667 1812.84,939.761 1813.87,969.97 1814.91,970.075 1815.94,1217.53 1816.98,1217.59 1818.02,1105.64 1819.05,1105.7 1820.09,440.858 1821.13,441.017 1822.16,884.729 1823.2,884.817 1824.23,829.43 1825.27,829.557 1826.31,838.151 1827.34,838.253 1828.38,1236.5 1829.42,1236.56 1830.45,1075.73 1831.49,1075.84 1832.53,704.514 1833.56,704.691 1834.6,512.094 1835.63,512.217 1836.67,862.521 1837.71,862.626 1838.74,387.341 1839.78,387.443 1840.82,380.449 1841.85,380.641 1842.89,686.236 1843.92,686.38 1844.96,888.802 1846,888.908 1847.03,498.424 1848.07,498.677 1849.11,566.691 1850.14,566.841 1851.18,658.621 1852.22,658.749 1853.25,678.458 1854.29,678.559 1855.32,666.577 1856.36,666.711 1857.4,963.214 1858.43,963.33 1859.47,465.854 1860.51,466.065 1861.54,712.251 1862.58,712.331 1863.61,922.18 1864.65,922.278 1865.69,687.899 1866.72,688.097 1867.76,427.19 1868.8,427.315 1869.83,826.795 1870.87,826.882 1871.91,931.028 1872.94,931.117 1873.98,558.302 1875.01,558.448 1876.05,953.505 1877.09,953.618 1878.12,869.581 1879.16,869.706 1880.2,722.67 1881.23,722.81 1882.27,741.923 1883.3,742.055 1884.34,641.644 1885.38,641.766 1886.41,501.475 1887.45,501.622 1888.49,1064.11 1889.52,1064.18 1890.56,1022 1891.6,1022.08 1892.63,908.031 1893.67,908.124 1894.7,734.416 1895.74,734.572 1896.78,833.706 1897.81,833.836 1898.85,812.632 1899.89,812.752 1900.92,678.005 1901.96,678.18 1902.99,998.478 1904.03,998.562 1905.07,720.616 1906.1,720.745 1907.14,611.304 1908.18,611.425 1909.21,1170.48 1910.25,1170.53 1911.29,873.884 1912.32,873.979 1913.36,180.665 1914.39,180.804 1915.43,936.04 1916.47,936.123 1917.5,863.244 1918.54,863.343 1919.58,1003.84 1920.61,1003.91 1921.65,659.929 1922.68,660.071 1923.72,560.525 1924.76,560.697 1925.79,479.315 1926.83,479.468 1927.87,871.981 1928.9,872.097 1929.94,587.598 1930.98,587.744 1932.01,593.661 1933.05,593.824 1934.08,895.078 1935.12,895.156 1936.16,596.228 1937.19,596.342 1938.23,948.842 1939.27,948.913 1940.3,990.919 1941.34,991.009 1942.37,839.334 1943.41,839.478 1944.45,718.597 1945.48,718.774 1946.52,451.825 1947.56,451.966 1948.59,474.031 1949.63,474.193 1950.67,830.122 1951.7,830.228 1952.74,896.997 1953.77,897.113 1954.81,533.486 1955.85,533.659 1956.88,723.27 1957.92,723.372 1958.96,564.204 1959.99,564.296 1961.03,947.21 1962.06,947.284 1963.1,429.877 1964.14,430.011 1965.17,679.255 1966.21,679.357 1967.25,723.318 1968.28,723.436 1969.32,873.791 1970.36,873.923 1971.39,713.198 1972.43,713.313 1973.46,937.399 1974.5,937.472 1975.54,538.792 1976.57,538.899 1977.61,864.138 1978.65,864.224 1979.68,815.034 1980.72,815.116 1981.75,890.948 1982.79,891.045 1983.83,863.496 1984.86,863.586 1985.9,1220.02 1986.94,1220.08 1987.97,736.396 1989.01,736.502 1990.05,1074.05 1991.08,1074.15 1992.12,429.008 1993.15,429.206 1994.19,924.858 1995.23,924.959 1996.26,781.026 1997.3,781.132 1998.34,729.605 1999.37,729.733 2000.41,708.396 2001.44,708.519 2002.48,801.444 2003.52,801.564 2004.55,1007.92 2005.59,1007.98 2006.63,756.073 2007.66,756.171 2008.7,948.227 2009.74,948.336 2010.77,717.992 2011.81,718.082 2012.84,1012.14 2013.88,1012.22 2014.92,1032.14 2015.95,1032.2 2016.99,959.168 2018.03,959.26 2019.06,775.884 2020.1,775.984 2021.13,807.208 2022.17,807.321 2023.21,1063.96 2024.24,1064.07 2025.28,432.483 2026.32,432.659 2027.35,1005.53 2028.39,1005.64 2029.43,748.827 2030.46,748.942 2031.5,746.655 2032.53,746.795 2033.57,754.791 2034.61,754.913 2035.64,881.82 2036.68,881.924 2037.72,574.522 2038.75,574.672 2039.79,789.463 2040.82,789.584 2041.86,1045.57 2042.9,1045.66 2043.93,165.359 2044.97,165.505 2046.01,940.52 2047.04,940.636 2048.08,634.478 2049.12,634.63 2050.15,834.738 2051.19,834.855 2052.22,657.669 2053.26,657.78 2054.3,865.791 2055.33,865.915 2056.37,629.795 2057.41,629.895 2058.44,439.775 2059.48,439.961 2060.51,689.345 2061.55,689.454 2062.59,677.85 2063.62,677.954 2064.66,763.791 2065.7,763.93 2066.73,667.113 2067.77,667.237 2068.81,975.487 2069.84,975.572 2070.88,1009.21 2071.91,1009.3 2072.95,572.47 2073.99,572.674 2075.02,676.246 2076.06,676.343 2077.1,858.331 2078.13,858.427 2079.17,785.607 2080.2,785.741 2081.24,581.408 2082.28,581.568 2083.31,971.789 2084.35,971.869 2085.39,959.885 2086.42,959.97 2087.46,637.076 2088.5,637.231 2089.53,866.117 2090.57,866.283 2091.6,780.942 2092.64,781.026 2093.68,881.121 2094.71,881.214 2095.75,847.633 2096.79,847.744 2097.82,1021.85 2098.86,1021.95 2099.89,687.53 2100.93,687.667 2101.97,1092.38 2103,1092.46 2104.04,724.54 2105.08,724.718 2106.11,614.478 2107.15,614.586 2108.19,557.442 2109.22,557.589 2110.26,701.464 2111.29,701.592 2112.33,638.33 2113.37,638.432 2114.4,873.554 2115.44,873.61 2116.48,1074.14 2117.51,1074.23 2118.55,283.261 2119.58,283.515 2120.62,851.156 2121.66,851.276 2122.69,481.324 2123.73,481.444 2124.77,790.178 2125.8,790.3 2126.84,864.323 2127.88,864.412 2128.91,947.378 2129.95,947.464 2130.98,972.041 2132.02,972.153 2133.06,812.154 2134.09,812.26 2135.13,833.983 2136.17,834.053 2137.2,649.575 2138.24,649.764 2139.27,779.999 2140.31,780.109 2141.35,930.404 2142.38,930.499 2143.42,624.419 2144.46,624.654 2145.49,855.107 2146.53,855.253 2147.57,808.268 2148.6,808.393 2149.64,569.894 2150.67,569.999 2151.71,916.563 2152.75,916.66 2153.78,918.234 2154.82,918.313 2155.86,1184.47 2156.89,1184.54 2157.93,521.933 2158.96,522.036 2160,905.773 2161.04,905.87 2162.07,1024.18 2163.11,1024.26 2164.15,938.511 2165.18,938.584 2166.22,722.731 2167.26,722.932 2168.29,631.267 2169.33,631.393 2170.36,807.055 2171.4,807.217 2172.44,841.437 2173.47,841.557 2174.51,1088.92 2175.55,1089.01 2176.58,338.476 2177.62,338.703 2178.65,701.656 2179.69,701.798 2180.73,1000.54 2181.76,1000.64 2182.8,841.398 2183.84,841.511 2184.87,786.114 2185.91,786.206 2186.95,861.955 2187.98,862.095 2189.02,718.764 2190.05,718.873 2191.09,900.743 2192.13,900.839 2193.16,1020.71 2194.2,1020.81 2195.24,750.23 2196.27,750.339 2197.31,731.136 2198.34,731.24 2199.38,507.005 2200.42,507.122 2201.45,934.779 2202.49,934.855 2203.53,965.267 2204.56,965.359 2205.6,1038.08 2206.64,1038.15 2207.67,910.608 2208.71,910.683 2209.74,1032.41 2210.78,1032.5 2211.82,966.996 2212.85,967.061 2213.89,843.252 2214.93,843.409 2215.96,806.929 2217,807.099 2218.03,1132.25 2219.07,1132.31 2220.11,857.735 2221.14,857.828 2222.18,1024.46 2223.22,1024.53 2224.25,691.823 2225.29,691.925 2226.33,859.133 2227.36,859.22 2228.4,871.777 2229.43,871.904 2230.47,364.834 2231.51,364.942 2232.54,659.543 2233.58,659.651 2234.62,1012.77 2235.65,1012.85 2236.69,376.215 2237.72,376.367 2238.76,607.514 2239.8,607.653 2240.83,631.233 2241.87,631.371 2242.91,531.314 2243.94,531.481 2244.98,1005.35 2246.02,1005.45 2247.05,656.741 2248.09,656.892 2249.12,679.689 2250.16,679.788 2251.2,875.123 2252.23,875.254 2253.27,669.121 2254.31,669.261 2255.34,911.766 2256.38,911.855 2257.41,787.14 2258.45,787.273 2259.49,730.896 2260.52,731.03 2261.56,736.489 2262.6,736.587 2263.63,868.942 2264.67,869.058 2265.71,487.291 2266.74,487.52 2267.78,938.907 2268.81,938.983 2269.85,639.743 2270.89,639.846 2271.92,957.512 2272.96,957.592 2274,711.506 2275.03,711.596 2276.07,482.858 2277.1,482.952 2278.14,607.41 2279.18,607.55 2280.21,1060.16 2281.25,1060.23 2282.29,518.62 2283.32,518.775 2284.36,386.601 2285.4,386.914 2286.43,922.308 2287.47,922.397 2288.5,809.873 2289.54,809.976 2290.58,810.078 "/>
<path clip-path="url(#clip650)" d="M2007.39 1438.47 L2279.52 1438.47 L2279.52 1334.79 L2007.39 1334.79  Z" fill="#ffffff" fill-rule="evenodd" fill-opacity="1"/>
<polyline clip-path="url(#clip650)" style="stroke:#000000; stroke-linecap:round; stroke-linejoin:round; stroke-width:4; stroke-opacity:1; fill:none" points="2007.39,1438.47 2279.52,1438.47 2279.52,1334.79 2007.39,1334.79 2007.39,1438.47 "/>
<polyline clip-path="url(#clip650)" style="stroke:#009af9; stroke-linecap:round; stroke-linejoin:round; stroke-width:4; stroke-opacity:1; fill:none" points="2031.8,1386.63 2178.27,1386.63 "/>
<path clip-path="url(#clip650)" d="M2216.52 1406.32 Q2214.72 1410.95 2213.01 1412.36 Q2211.29 1413.78 2208.42 1413.78 L2205.02 1413.78 L2205.02 1410.21 L2207.52 1410.21 Q2209.28 1410.21 2210.25 1409.38 Q2211.22 1408.54 2212.4 1405.44 L2213.17 1403.5 L2202.68 1377.99 L2207.2 1377.99 L2215.3 1398.27 L2223.4 1377.99 L2227.91 1377.99 L2216.52 1406.32 Z" fill="#000000" fill-rule="nonzero" fill-opacity="1" /><path clip-path="url(#clip650)" d="M2235.2 1399.98 L2242.84 1399.98 L2242.84 1373.61 L2234.53 1375.28 L2234.53 1371.02 L2242.8 1369.35 L2247.47 1369.35 L2247.47 1399.98 L2255.11 1399.98 L2255.11 1403.91 L2235.2 1403.91 L2235.2 1399.98 Z" fill="#000000" fill-rule="nonzero" fill-opacity="1" /></svg>
