<?xml version="1.0" encoding="utf-8"?>
<svg xmlns="http://www.w3.org/2000/svg" xmlns:xlink="http://www.w3.org/1999/xlink" width="600" height="400" viewBox="0 0 2400 1600">
<defs>
  <clipPath id="clip790">
    <rect x="0" y="0" width="2400" height="1600"/>
  </clipPath>
</defs>
<path clip-path="url(#clip790)" d="M0 1600 L2400 1600 L2400 0 L0 0  Z" fill="#ffffff" fill-rule="evenodd" fill-opacity="1"/>
<defs>
  <clipPath id="clip791">
    <rect x="480" y="0" width="1681" height="1600"/>
  </clipPath>
</defs>
<path clip-path="url(#clip790)" d="M156.274 1486.45 L2352.76 1486.45 L2352.76 47.2441 L156.274 47.2441  Z" fill="#ffffff" fill-rule="evenodd" fill-opacity="1"/>
<defs>
  <clipPath id="clip792">
    <rect x="156" y="47" width="2197" height="1440"/>
  </clipPath>
</defs>
<polyline clip-path="url(#clip792)" style="stroke:#000000; stroke-linecap:round; stroke-linejoin:round; stroke-width:2; stroke-opacity:0.1; fill:none" points="218.439,1486.45 218.439,47.2441 "/>
<polyline clip-path="url(#clip792)" style="stroke:#000000; stroke-linecap:round; stroke-linejoin:round; stroke-width:2; stroke-opacity:0.1; fill:none" points="736.736,1486.45 736.736,47.2441 "/>
<polyline clip-path="url(#clip792)" style="stroke:#000000; stroke-linecap:round; stroke-linejoin:round; stroke-width:2; stroke-opacity:0.1; fill:none" points="1255.03,1486.45 1255.03,47.2441 "/>
<polyline clip-path="url(#clip792)" style="stroke:#000000; stroke-linecap:round; stroke-linejoin:round; stroke-width:2; stroke-opacity:0.1; fill:none" points="1773.33,1486.45 1773.33,47.2441 "/>
<polyline clip-path="url(#clip792)" style="stroke:#000000; stroke-linecap:round; stroke-linejoin:round; stroke-width:2; stroke-opacity:0.1; fill:none" points="2291.63,1486.45 2291.63,47.2441 "/>
<polyline clip-path="url(#clip790)" style="stroke:#000000; stroke-linecap:round; stroke-linejoin:round; stroke-width:4; stroke-opacity:1; fill:none" points="156.274,1486.45 2352.76,1486.45 "/>
<polyline clip-path="url(#clip790)" style="stroke:#000000; stroke-linecap:round; stroke-linejoin:round; stroke-width:4; stroke-opacity:1; fill:none" points="218.439,1486.45 218.439,1467.55 "/>
<polyline clip-path="url(#clip790)" style="stroke:#000000; stroke-linecap:round; stroke-linejoin:round; stroke-width:4; stroke-opacity:1; fill:none" points="736.736,1486.45 736.736,1467.55 "/>
<polyline clip-path="url(#clip790)" style="stroke:#000000; stroke-linecap:round; stroke-linejoin:round; stroke-width:4; stroke-opacity:1; fill:none" points="1255.03,1486.45 1255.03,1467.55 "/>
<polyline clip-path="url(#clip790)" style="stroke:#000000; stroke-linecap:round; stroke-linejoin:round; stroke-width:4; stroke-opacity:1; fill:none" points="1773.33,1486.45 1773.33,1467.55 "/>
<polyline clip-path="url(#clip790)" style="stroke:#000000; stroke-linecap:round; stroke-linejoin:round; stroke-width:4; stroke-opacity:1; fill:none" points="2291.63,1486.45 2291.63,1467.55 "/>
<path clip-path="url(#clip790)" d="M218.439 1517.37 Q214.828 1517.37 212.999 1520.93 Q211.193 1524.47 211.193 1531.6 Q211.193 1538.71 212.999 1542.27 Q214.828 1545.82 218.439 1545.82 Q222.073 1545.82 223.879 1542.27 Q225.707 1538.71 225.707 1531.6 Q225.707 1524.47 223.879 1520.93 Q222.073 1517.37 218.439 1517.37 M218.439 1513.66 Q224.249 1513.66 227.304 1518.27 Q230.383 1522.85 230.383 1531.6 Q230.383 1540.33 227.304 1544.94 Q224.249 1549.52 218.439 1549.52 Q212.629 1549.52 209.55 1544.94 Q206.494 1540.33 206.494 1531.6 Q206.494 1522.85 209.55 1518.27 Q212.629 1513.66 218.439 1513.66 Z" fill="#000000" fill-rule="nonzero" fill-opacity="1" /><path clip-path="url(#clip790)" d="M696.354 1514.29 L714.711 1514.29 L714.711 1518.22 L700.637 1518.22 L700.637 1526.7 Q701.655 1526.35 702.674 1526.19 Q703.692 1526 704.711 1526 Q710.498 1526 713.877 1529.17 Q717.257 1532.34 717.257 1537.76 Q717.257 1543.34 713.785 1546.44 Q710.313 1549.52 703.993 1549.52 Q701.817 1549.52 699.549 1549.15 Q697.303 1548.78 694.896 1548.04 L694.896 1543.34 Q696.979 1544.47 699.202 1545.03 Q701.424 1545.58 703.901 1545.58 Q707.905 1545.58 710.243 1543.48 Q712.581 1541.37 712.581 1537.76 Q712.581 1534.15 710.243 1532.04 Q707.905 1529.94 703.901 1529.94 Q702.026 1529.94 700.151 1530.35 Q698.299 1530.77 696.354 1531.65 L696.354 1514.29 Z" fill="#000000" fill-rule="nonzero" fill-opacity="1" /><path clip-path="url(#clip790)" d="M736.47 1517.37 Q732.859 1517.37 731.03 1520.93 Q729.225 1524.47 729.225 1531.6 Q729.225 1538.71 731.03 1542.27 Q732.859 1545.82 736.47 1545.82 Q740.104 1545.82 741.91 1542.27 Q743.738 1538.71 743.738 1531.6 Q743.738 1524.47 741.91 1520.93 Q740.104 1517.37 736.47 1517.37 M736.47 1513.66 Q742.28 1513.66 745.336 1518.27 Q748.414 1522.85 748.414 1531.6 Q748.414 1540.33 745.336 1544.94 Q742.28 1549.52 736.47 1549.52 Q730.66 1549.52 727.581 1544.94 Q724.525 1540.33 724.525 1531.6 Q724.525 1522.85 727.581 1518.27 Q730.66 1513.66 736.47 1513.66 Z" fill="#000000" fill-rule="nonzero" fill-opacity="1" /><path clip-path="url(#clip790)" d="M766.632 1517.37 Q763.021 1517.37 761.192 1520.93 Q759.386 1524.47 759.386 1531.6 Q759.386 1538.71 761.192 1542.27 Q763.021 1545.82 766.632 1545.82 Q770.266 1545.82 772.071 1542.27 Q773.9 1538.71 773.9 1531.6 Q773.9 1524.47 772.071 1520.93 Q770.266 1517.37 766.632 1517.37 M766.632 1513.66 Q772.442 1513.66 775.497 1518.27 Q778.576 1522.85 778.576 1531.6 Q778.576 1540.33 775.497 1544.94 Q772.442 1549.52 766.632 1549.52 Q760.822 1549.52 757.743 1544.94 Q754.687 1540.33 754.687 1531.6 Q754.687 1522.85 757.743 1518.27 Q760.822 1513.66 766.632 1513.66 Z" fill="#000000" fill-rule="nonzero" fill-opacity="1" /><path clip-path="url(#clip790)" d="M1199.56 1544.91 L1207.2 1544.91 L1207.2 1518.55 L1198.89 1520.21 L1198.89 1515.95 L1207.15 1514.29 L1211.83 1514.29 L1211.83 1544.91 L1219.47 1544.91 L1219.47 1548.85 L1199.56 1548.85 L1199.56 1544.91 Z" fill="#000000" fill-rule="nonzero" fill-opacity="1" /><path clip-path="url(#clip790)" d="M1238.91 1517.37 Q1235.3 1517.37 1233.47 1520.93 Q1231.67 1524.47 1231.67 1531.6 Q1231.67 1538.71 1233.47 1542.27 Q1235.3 1545.82 1238.91 1545.82 Q1242.54 1545.82 1244.35 1542.27 Q1246.18 1538.71 1246.18 1531.6 Q1246.18 1524.47 1244.35 1520.93 Q1242.54 1517.37 1238.91 1517.37 M1238.91 1513.66 Q1244.72 1513.66 1247.78 1518.27 Q1250.86 1522.85 1250.86 1531.6 Q1250.86 1540.33 1247.78 1544.94 Q1244.72 1549.52 1238.91 1549.52 Q1233.1 1549.52 1230.02 1544.94 Q1226.97 1540.33 1226.97 1531.6 Q1226.97 1522.85 1230.02 1518.27 Q1233.1 1513.66 1238.91 1513.66 Z" fill="#000000" fill-rule="nonzero" fill-opacity="1" /><path clip-path="url(#clip790)" d="M1269.07 1517.37 Q1265.46 1517.37 1263.63 1520.93 Q1261.83 1524.47 1261.83 1531.6 Q1261.83 1538.71 1263.63 1542.27 Q1265.46 1545.82 1269.07 1545.82 Q1272.71 1545.82 1274.51 1542.27 Q1276.34 1538.71 1276.34 1531.6 Q1276.34 1524.47 1274.51 1520.93 Q1272.71 1517.37 1269.07 1517.37 M1269.07 1513.66 Q1274.88 1513.66 1277.94 1518.27 Q1281.02 1522.85 1281.02 1531.6 Q1281.02 1540.33 1277.94 1544.94 Q1274.88 1549.52 1269.07 1549.52 Q1263.26 1549.52 1260.18 1544.94 Q1257.13 1540.33 1257.13 1531.6 Q1257.13 1522.85 1260.18 1518.27 Q1263.26 1513.66 1269.07 1513.66 Z" fill="#000000" fill-rule="nonzero" fill-opacity="1" /><path clip-path="url(#clip790)" d="M1299.23 1517.37 Q1295.62 1517.37 1293.79 1520.93 Q1291.99 1524.47 1291.99 1531.6 Q1291.99 1538.71 1293.79 1542.27 Q1295.62 1545.82 1299.23 1545.82 Q1302.87 1545.82 1304.67 1542.27 Q1306.5 1538.71 1306.5 1531.6 Q1306.5 1524.47 1304.67 1520.93 Q1302.87 1517.37 1299.23 1517.37 M1299.23 1513.66 Q1305.04 1513.66 1308.1 1518.27 Q1311.18 1522.85 1311.18 1531.6 Q1311.18 1540.33 1308.1 1544.94 Q1305.04 1549.52 1299.23 1549.52 Q1293.42 1549.52 1290.35 1544.94 Q1287.29 1540.33 1287.29 1531.6 Q1287.29 1522.85 1290.35 1518.27 Q1293.42 1513.66 1299.23 1513.66 Z" fill="#000000" fill-rule="nonzero" fill-opacity="1" /><path clip-path="url(#clip790)" d="M1717.86 1544.91 L1725.5 1544.91 L1725.5 1518.55 L1717.19 1520.21 L1717.19 1515.95 L1725.45 1514.29 L1730.12 1514.29 L1730.12 1544.91 L1737.76 1544.91 L1737.76 1548.85 L1717.86 1548.85 L1717.86 1544.91 Z" fill="#000000" fill-rule="nonzero" fill-opacity="1" /><path clip-path="url(#clip790)" d="M1747.25 1514.29 L1765.61 1514.29 L1765.61 1518.22 L1751.54 1518.22 L1751.54 1526.7 Q1752.56 1526.35 1753.57 1526.19 Q1754.59 1526 1755.61 1526 Q1761.4 1526 1764.78 1529.17 Q1768.16 1532.34 1768.16 1537.76 Q1768.16 1543.34 1764.68 1546.44 Q1761.21 1549.52 1754.89 1549.52 Q1752.72 1549.52 1750.45 1549.15 Q1748.2 1548.78 1745.8 1548.04 L1745.8 1543.34 Q1747.88 1544.47 1750.1 1545.03 Q1752.32 1545.58 1754.8 1545.58 Q1758.81 1545.58 1761.14 1543.48 Q1763.48 1541.37 1763.48 1537.76 Q1763.48 1534.15 1761.14 1532.04 Q1758.81 1529.94 1754.8 1529.94 Q1752.93 1529.94 1751.05 1530.35 Q1749.2 1530.77 1747.25 1531.65 L1747.25 1514.29 Z" fill="#000000" fill-rule="nonzero" fill-opacity="1" /><path clip-path="url(#clip790)" d="M1787.37 1517.37 Q1783.76 1517.37 1781.93 1520.93 Q1780.12 1524.47 1780.12 1531.6 Q1780.12 1538.71 1781.93 1542.27 Q1783.76 1545.82 1787.37 1545.82 Q1791 1545.82 1792.81 1542.27 Q1794.64 1538.71 1794.64 1531.6 Q1794.64 1524.47 1792.81 1520.93 Q1791 1517.37 1787.37 1517.37 M1787.37 1513.66 Q1793.18 1513.66 1796.24 1518.27 Q1799.31 1522.85 1799.31 1531.6 Q1799.31 1540.33 1796.24 1544.94 Q1793.18 1549.52 1787.37 1549.52 Q1781.56 1549.52 1778.48 1544.94 Q1775.43 1540.33 1775.43 1531.6 Q1775.43 1522.85 1778.48 1518.27 Q1781.56 1513.66 1787.37 1513.66 Z" fill="#000000" fill-rule="nonzero" fill-opacity="1" /><path clip-path="url(#clip790)" d="M1817.53 1517.37 Q1813.92 1517.37 1812.09 1520.93 Q1810.29 1524.47 1810.29 1531.6 Q1810.29 1538.71 1812.09 1542.27 Q1813.92 1545.82 1817.53 1545.82 Q1821.17 1545.82 1822.97 1542.27 Q1824.8 1538.71 1824.8 1531.6 Q1824.8 1524.47 1822.97 1520.93 Q1821.17 1517.37 1817.53 1517.37 M1817.53 1513.66 Q1823.34 1513.66 1826.4 1518.27 Q1829.48 1522.85 1829.48 1531.6 Q1829.48 1540.33 1826.4 1544.94 Q1823.34 1549.52 1817.53 1549.52 Q1811.72 1549.52 1808.64 1544.94 Q1805.59 1540.33 1805.59 1531.6 Q1805.59 1522.85 1808.64 1518.27 Q1811.72 1513.66 1817.53 1513.66 Z" fill="#000000" fill-rule="nonzero" fill-opacity="1" /><path clip-path="url(#clip790)" d="M2240.24 1544.91 L2256.56 1544.91 L2256.56 1548.85 L2234.61 1548.85 L2234.61 1544.91 Q2237.28 1542.16 2241.86 1537.53 Q2246.47 1532.88 2247.65 1531.53 Q2249.89 1529.01 2250.77 1527.27 Q2251.67 1525.51 2251.67 1523.82 Q2251.67 1521.07 2249.73 1519.33 Q2247.81 1517.6 2244.71 1517.6 Q2242.51 1517.6 2240.05 1518.36 Q2237.62 1519.13 2234.85 1520.68 L2234.85 1515.95 Q2237.67 1514.82 2240.12 1514.24 Q2242.58 1513.66 2244.61 1513.66 Q2249.98 1513.66 2253.18 1516.35 Q2256.37 1519.03 2256.37 1523.52 Q2256.37 1525.65 2255.56 1527.57 Q2254.78 1529.47 2252.67 1532.07 Q2252.09 1532.74 2248.99 1535.95 Q2245.89 1539.15 2240.24 1544.91 Z" fill="#000000" fill-rule="nonzero" fill-opacity="1" /><path clip-path="url(#clip790)" d="M2276.37 1517.37 Q2272.76 1517.37 2270.93 1520.93 Q2269.13 1524.47 2269.13 1531.6 Q2269.13 1538.71 2270.93 1542.27 Q2272.76 1545.82 2276.37 1545.82 Q2280.01 1545.82 2281.81 1542.27 Q2283.64 1538.71 2283.64 1531.6 Q2283.64 1524.47 2281.81 1520.93 Q2280.01 1517.37 2276.37 1517.37 M2276.37 1513.66 Q2282.18 1513.66 2285.24 1518.27 Q2288.32 1522.85 2288.32 1531.6 Q2288.32 1540.33 2285.24 1544.94 Q2282.18 1549.52 2276.37 1549.52 Q2270.56 1549.52 2267.48 1544.94 Q2264.43 1540.33 2264.43 1531.6 Q2264.43 1522.85 2267.48 1518.27 Q2270.56 1513.66 2276.37 1513.66 Z" fill="#000000" fill-rule="nonzero" fill-opacity="1" /><path clip-path="url(#clip790)" d="M2306.54 1517.37 Q2302.92 1517.37 2301.1 1520.93 Q2299.29 1524.47 2299.29 1531.6 Q2299.29 1538.71 2301.1 1542.27 Q2302.92 1545.82 2306.54 1545.82 Q2310.17 1545.82 2311.98 1542.27 Q2313.8 1538.71 2313.8 1531.6 Q2313.8 1524.47 2311.98 1520.93 Q2310.17 1517.37 2306.54 1517.37 M2306.54 1513.66 Q2312.35 1513.66 2315.4 1518.27 Q2318.48 1522.85 2318.48 1531.6 Q2318.48 1540.33 2315.4 1544.94 Q2312.35 1549.52 2306.54 1549.52 Q2300.73 1549.52 2297.65 1544.94 Q2294.59 1540.33 2294.59 1531.6 Q2294.59 1522.85 2297.65 1518.27 Q2300.73 1513.66 2306.54 1513.66 Z" fill="#000000" fill-rule="nonzero" fill-opacity="1" /><path clip-path="url(#clip790)" d="M2336.7 1517.37 Q2333.09 1517.37 2331.26 1520.93 Q2329.45 1524.47 2329.45 1531.6 Q2329.45 1538.71 2331.26 1542.27 Q2333.09 1545.82 2336.7 1545.82 Q2340.33 1545.82 2342.14 1542.27 Q2343.97 1538.71 2343.97 1531.6 Q2343.97 1524.47 2342.14 1520.93 Q2340.33 1517.37 2336.7 1517.37 M2336.7 1513.66 Q2342.51 1513.66 2345.56 1518.27 Q2348.64 1522.85 2348.64 1531.6 Q2348.64 1540.33 2345.56 1544.94 Q2342.51 1549.52 2336.7 1549.52 Q2330.89 1549.52 2327.81 1544.94 Q2324.75 1540.33 2324.75 1531.6 Q2324.75 1522.85 2327.81 1518.27 Q2330.89 1513.66 2336.7 1513.66 Z" fill="#000000" fill-rule="nonzero" fill-opacity="1" /><polyline clip-path="url(#clip792)" style="stroke:#000000; stroke-linecap:round; stroke-linejoin:round; stroke-width:2; stroke-opacity:0.1; fill:none" points="156.274,1345.14 2352.76,1345.14 "/>
<polyline clip-path="url(#clip792)" style="stroke:#000000; stroke-linecap:round; stroke-linejoin:round; stroke-width:2; stroke-opacity:0.1; fill:none" points="156.274,1093.71 2352.76,1093.71 "/>
<polyline clip-path="url(#clip792)" style="stroke:#000000; stroke-linecap:round; stroke-linejoin:round; stroke-width:2; stroke-opacity:0.1; fill:none" points="156.274,842.276 2352.76,842.276 "/>
<polyline clip-path="url(#clip792)" style="stroke:#000000; stroke-linecap:round; stroke-linejoin:round; stroke-width:2; stroke-opacity:0.1; fill:none" points="156.274,590.843 2352.76,590.843 "/>
<polyline clip-path="url(#clip792)" style="stroke:#000000; stroke-linecap:round; stroke-linejoin:round; stroke-width:2; stroke-opacity:0.1; fill:none" points="156.274,339.41 2352.76,339.41 "/>
<polyline clip-path="url(#clip792)" style="stroke:#000000; stroke-linecap:round; stroke-linejoin:round; stroke-width:2; stroke-opacity:0.1; fill:none" points="156.274,87.9763 2352.76,87.9763 "/>
<polyline clip-path="url(#clip790)" style="stroke:#000000; stroke-linecap:round; stroke-linejoin:round; stroke-width:4; stroke-opacity:1; fill:none" points="156.274,1486.45 156.274,47.2441 "/>
<polyline clip-path="url(#clip790)" style="stroke:#000000; stroke-linecap:round; stroke-linejoin:round; stroke-width:4; stroke-opacity:1; fill:none" points="156.274,1345.14 175.172,1345.14 "/>
<polyline clip-path="url(#clip790)" style="stroke:#000000; stroke-linecap:round; stroke-linejoin:round; stroke-width:4; stroke-opacity:1; fill:none" points="156.274,1093.71 175.172,1093.71 "/>
<polyline clip-path="url(#clip790)" style="stroke:#000000; stroke-linecap:round; stroke-linejoin:round; stroke-width:4; stroke-opacity:1; fill:none" points="156.274,842.276 175.172,842.276 "/>
<polyline clip-path="url(#clip790)" style="stroke:#000000; stroke-linecap:round; stroke-linejoin:round; stroke-width:4; stroke-opacity:1; fill:none" points="156.274,590.843 175.172,590.843 "/>
<polyline clip-path="url(#clip790)" style="stroke:#000000; stroke-linecap:round; stroke-linejoin:round; stroke-width:4; stroke-opacity:1; fill:none" points="156.274,339.41 175.172,339.41 "/>
<polyline clip-path="url(#clip790)" style="stroke:#000000; stroke-linecap:round; stroke-linejoin:round; stroke-width:4; stroke-opacity:1; fill:none" points="156.274,87.9763 175.172,87.9763 "/>
<path clip-path="url(#clip790)" d="M64.0939 1330.94 Q60.4828 1330.94 58.6541 1334.51 Q56.8486 1338.05 56.8486 1345.18 Q56.8486 1352.28 58.6541 1355.85 Q60.4828 1359.39 64.0939 1359.39 Q67.7281 1359.39 69.5337 1355.85 Q71.3624 1352.28 71.3624 1345.18 Q71.3624 1338.05 69.5337 1334.51 Q67.7281 1330.94 64.0939 1330.94 M64.0939 1327.24 Q69.9041 1327.24 72.9596 1331.84 Q76.0383 1336.43 76.0383 1345.18 Q76.0383 1353.9 72.9596 1358.51 Q69.9041 1363.09 64.0939 1363.09 Q58.2838 1363.09 55.2051 1358.51 Q52.1495 1353.9 52.1495 1345.18 Q52.1495 1336.43 55.2051 1331.84 Q58.2838 1327.24 64.0939 1327.24 Z" fill="#000000" fill-rule="nonzero" fill-opacity="1" /><path clip-path="url(#clip790)" d="M84.2558 1356.54 L89.1401 1356.54 L89.1401 1362.42 L84.2558 1362.42 L84.2558 1356.54 Z" fill="#000000" fill-rule="nonzero" fill-opacity="1" /><path clip-path="url(#clip790)" d="M99.3715 1327.86 L117.728 1327.86 L117.728 1331.8 L103.654 1331.8 L103.654 1340.27 Q104.672 1339.92 105.691 1339.76 Q106.709 1339.58 107.728 1339.58 Q113.515 1339.58 116.895 1342.75 Q120.274 1345.92 120.274 1351.33 Q120.274 1356.91 116.802 1360.02 Q113.33 1363.09 107.01 1363.09 Q104.834 1363.09 102.566 1362.72 Q100.321 1362.35 97.9132 1361.61 L97.9132 1356.91 Q99.9965 1358.05 102.219 1358.6 Q104.441 1359.16 106.918 1359.16 Q110.922 1359.16 113.26 1357.05 Q115.598 1354.95 115.598 1351.33 Q115.598 1347.72 113.26 1345.62 Q110.922 1343.51 106.918 1343.51 Q105.043 1343.51 103.168 1343.93 Q101.316 1344.34 99.3715 1345.22 L99.3715 1327.86 Z" fill="#000000" fill-rule="nonzero" fill-opacity="1" /><path clip-path="url(#clip790)" d="M62.9365 1079.51 Q59.3254 1079.51 57.4967 1083.07 Q55.6912 1086.61 55.6912 1093.74 Q55.6912 1100.85 57.4967 1104.42 Q59.3254 1107.96 62.9365 1107.96 Q66.5707 1107.96 68.3763 1104.42 Q70.205 1100.85 70.205 1093.74 Q70.205 1086.61 68.3763 1083.07 Q66.5707 1079.51 62.9365 1079.51 M62.9365 1075.8 Q68.7467 1075.8 71.8022 1080.41 Q74.8809 1084.99 74.8809 1093.74 Q74.8809 1102.47 71.8022 1107.08 Q68.7467 1111.66 62.9365 1111.66 Q57.1264 1111.66 54.0477 1107.08 Q50.9921 1102.47 50.9921 1093.74 Q50.9921 1084.99 54.0477 1080.41 Q57.1264 1075.8 62.9365 1075.8 Z" fill="#000000" fill-rule="nonzero" fill-opacity="1" /><path clip-path="url(#clip790)" d="M83.0984 1105.11 L87.9827 1105.11 L87.9827 1110.99 L83.0984 1110.99 L83.0984 1105.11 Z" fill="#000000" fill-rule="nonzero" fill-opacity="1" /><path clip-path="url(#clip790)" d="M108.746 1091.85 Q105.598 1091.85 103.746 1094 Q101.918 1096.15 101.918 1099.9 Q101.918 1103.63 103.746 1105.8 Q105.598 1107.96 108.746 1107.96 Q111.895 1107.96 113.723 1105.8 Q115.575 1103.63 115.575 1099.9 Q115.575 1096.15 113.723 1094 Q111.895 1091.85 108.746 1091.85 M118.029 1077.19 L118.029 1081.45 Q116.27 1080.62 114.464 1080.18 Q112.682 1079.74 110.922 1079.74 Q106.293 1079.74 103.839 1082.86 Q101.409 1085.99 101.061 1092.31 Q102.427 1090.29 104.487 1089.23 Q106.547 1088.14 109.024 1088.14 Q114.233 1088.14 117.242 1091.31 Q120.274 1094.46 120.274 1099.9 Q120.274 1105.23 117.126 1108.44 Q113.978 1111.66 108.746 1111.66 Q102.751 1111.66 99.5798 1107.08 Q96.4085 1102.47 96.4085 1093.74 Q96.4085 1085.55 100.297 1080.69 Q104.186 1075.8 110.737 1075.8 Q112.496 1075.8 114.279 1076.15 Q116.084 1076.5 118.029 1077.19 Z" fill="#000000" fill-rule="nonzero" fill-opacity="1" /><path clip-path="url(#clip790)" d="M64.0013 828.075 Q60.3902 828.075 58.5615 831.639 Q56.756 835.181 56.756 842.311 Q56.756 849.417 58.5615 852.982 Q60.3902 856.524 64.0013 856.524 Q67.6356 856.524 69.4411 852.982 Q71.2698 849.417 71.2698 842.311 Q71.2698 835.181 69.4411 831.639 Q67.6356 828.075 64.0013 828.075 M64.0013 824.371 Q69.8115 824.371 72.867 828.977 Q75.9457 833.561 75.9457 842.311 Q75.9457 851.037 72.867 855.644 Q69.8115 860.227 64.0013 860.227 Q58.1912 860.227 55.1125 855.644 Q52.0569 851.037 52.0569 842.311 Q52.0569 833.561 55.1125 828.977 Q58.1912 824.371 64.0013 824.371 Z" fill="#000000" fill-rule="nonzero" fill-opacity="1" /><path clip-path="url(#clip790)" d="M84.1632 853.676 L89.0475 853.676 L89.0475 859.556 L84.1632 859.556 L84.1632 853.676 Z" fill="#000000" fill-rule="nonzero" fill-opacity="1" /><path clip-path="url(#clip790)" d="M98.0521 824.996 L120.274 824.996 L120.274 826.987 L107.728 859.556 L102.844 859.556 L114.649 828.931 L98.0521 828.931 L98.0521 824.996 Z" fill="#000000" fill-rule="nonzero" fill-opacity="1" /><path clip-path="url(#clip790)" d="M63.1911 576.641 Q59.58 576.641 57.7513 580.206 Q55.9458 583.748 55.9458 590.877 Q55.9458 597.984 57.7513 601.549 Q59.58 605.09 63.1911 605.09 Q66.8254 605.09 68.6309 601.549 Q70.4596 597.984 70.4596 590.877 Q70.4596 583.748 68.6309 580.206 Q66.8254 576.641 63.1911 576.641 M63.1911 572.938 Q69.0013 572.938 72.0568 577.544 Q75.1355 582.127 75.1355 590.877 Q75.1355 599.604 72.0568 604.211 Q69.0013 608.794 63.1911 608.794 Q57.381 608.794 54.3023 604.211 Q51.2468 599.604 51.2468 590.877 Q51.2468 582.127 54.3023 577.544 Q57.381 572.938 63.1911 572.938 Z" fill="#000000" fill-rule="nonzero" fill-opacity="1" /><path clip-path="url(#clip790)" d="M83.3531 602.243 L88.2373 602.243 L88.2373 608.123 L83.3531 608.123 L83.3531 602.243 Z" fill="#000000" fill-rule="nonzero" fill-opacity="1" /><path clip-path="url(#clip790)" d="M108.422 591.711 Q105.089 591.711 103.168 593.493 Q101.27 595.276 101.27 598.401 Q101.27 601.526 103.168 603.308 Q105.089 605.09 108.422 605.09 Q111.756 605.09 113.677 603.308 Q115.598 601.502 115.598 598.401 Q115.598 595.276 113.677 593.493 Q111.779 591.711 108.422 591.711 M103.746 589.72 Q100.737 588.979 99.0474 586.919 Q97.3808 584.859 97.3808 581.896 Q97.3808 577.753 100.321 575.345 Q103.284 572.938 108.422 572.938 Q113.584 572.938 116.524 575.345 Q119.464 577.753 119.464 581.896 Q119.464 584.859 117.774 586.919 Q116.108 588.979 113.121 589.72 Q116.501 590.507 118.376 592.799 Q120.274 595.09 120.274 598.401 Q120.274 603.424 117.195 606.109 Q114.14 608.794 108.422 608.794 Q102.705 608.794 99.6261 606.109 Q96.5706 603.424 96.5706 598.401 Q96.5706 595.09 98.4687 592.799 Q100.367 590.507 103.746 589.72 M102.034 582.336 Q102.034 585.021 103.7 586.526 Q105.39 588.03 108.422 588.03 Q111.432 588.03 113.121 586.526 Q114.834 585.021 114.834 582.336 Q114.834 579.651 113.121 578.146 Q111.432 576.641 108.422 576.641 Q105.39 576.641 103.7 578.146 Q102.034 579.651 102.034 582.336 Z" fill="#000000" fill-rule="nonzero" fill-opacity="1" /><path clip-path="url(#clip790)" d="M63.2837 325.208 Q59.6726 325.208 57.8439 328.773 Q56.0384 332.315 56.0384 339.444 Q56.0384 346.551 57.8439 350.115 Q59.6726 353.657 63.2837 353.657 Q66.918 353.657 68.7235 350.115 Q70.5522 346.551 70.5522 339.444 Q70.5522 332.315 68.7235 328.773 Q66.918 325.208 63.2837 325.208 M63.2837 321.505 Q69.0939 321.505 72.1494 326.111 Q75.2281 330.694 75.2281 339.444 Q75.2281 348.171 72.1494 352.777 Q69.0939 357.361 63.2837 357.361 Q57.4736 357.361 54.3949 352.777 Q51.3393 348.171 51.3393 339.444 Q51.3393 330.694 54.3949 326.111 Q57.4736 321.505 63.2837 321.505 Z" fill="#000000" fill-rule="nonzero" fill-opacity="1" /><path clip-path="url(#clip790)" d="M83.4457 350.81 L88.3299 350.81 L88.3299 356.69 L83.4457 356.69 L83.4457 350.81 Z" fill="#000000" fill-rule="nonzero" fill-opacity="1" /><path clip-path="url(#clip790)" d="M98.6539 355.972 L98.6539 351.713 Q100.413 352.546 102.219 352.986 Q104.024 353.426 105.76 353.426 Q110.39 353.426 112.82 350.324 Q115.274 347.199 115.621 340.856 Q114.279 342.847 112.219 343.912 Q110.158 344.977 107.658 344.977 Q102.473 344.977 99.4409 341.852 Q96.4317 338.703 96.4317 333.264 Q96.4317 327.94 99.5798 324.722 Q102.728 321.505 107.959 321.505 Q113.955 321.505 117.103 326.111 Q120.274 330.694 120.274 339.444 Q120.274 347.615 116.385 352.5 Q112.52 357.361 105.969 357.361 Q104.209 357.361 102.404 357.014 Q100.598 356.666 98.6539 355.972 M107.959 341.319 Q111.108 341.319 112.936 339.166 Q114.788 337.014 114.788 333.264 Q114.788 329.537 112.936 327.384 Q111.108 325.208 107.959 325.208 Q104.811 325.208 102.959 327.384 Q101.131 329.537 101.131 333.264 Q101.131 337.014 102.959 339.166 Q104.811 341.319 107.959 341.319 Z" fill="#000000" fill-rule="nonzero" fill-opacity="1" /><path clip-path="url(#clip790)" d="M53.9088 101.321 L61.5476 101.321 L61.5476 74.9555 L53.2375 76.6222 L53.2375 72.3629 L61.5013 70.6963 L66.1772 70.6963 L66.1772 101.321 L73.8161 101.321 L73.8161 105.256 L53.9088 105.256 L53.9088 101.321 Z" fill="#000000" fill-rule="nonzero" fill-opacity="1" /><path clip-path="url(#clip790)" d="M83.2605 99.3767 L88.1447 99.3767 L88.1447 105.256 L83.2605 105.256 L83.2605 99.3767 Z" fill="#000000" fill-rule="nonzero" fill-opacity="1" /><path clip-path="url(#clip790)" d="M108.33 73.775 Q104.719 73.775 102.89 77.3398 Q101.084 80.8814 101.084 88.011 Q101.084 95.1174 102.89 98.6822 Q104.719 102.224 108.33 102.224 Q111.964 102.224 113.77 98.6822 Q115.598 95.1174 115.598 88.011 Q115.598 80.8814 113.77 77.3398 Q111.964 73.775 108.33 73.775 M108.33 70.0713 Q114.14 70.0713 117.195 74.6777 Q120.274 79.261 120.274 88.011 Q120.274 96.7378 117.195 101.344 Q114.14 105.928 108.33 105.928 Q102.52 105.928 99.4409 101.344 Q96.3854 96.7378 96.3854 88.011 Q96.3854 79.261 99.4409 74.6777 Q102.52 70.0713 108.33 70.0713 Z" fill="#000000" fill-rule="nonzero" fill-opacity="1" /><polyline clip-path="url(#clip792)" style="stroke:#009af9; stroke-linecap:round; stroke-linejoin:round; stroke-width:4; stroke-opacity:1; fill:none" points="218.439,993.136 219.475,842.276 220.512,892.563 221.549,993.136 222.585,1144 223.622,1043.42 224.658,993.136 225.695,1194.28 226.731,942.849 227.768,842.276 228.805,791.989 229.841,1093.71 230.878,1144 231.914,993.136 232.951,641.129 233.988,791.989 235.024,1194.28 236.061,1194.28 237.097,1043.42 238.134,1043.42 239.171,1244.57 240.207,1345.14 241.244,842.276 242.28,842.276 243.317,892.563 244.354,942.849 245.39,791.989 246.427,892.563 247.463,942.849 248.5,1144 249.537,1043.42 250.573,1194.28 251.61,1395.43 252.646,741.703 253.683,1093.71 254.72,1093.71 255.756,942.849 256.793,1194.28 257.829,741.703 258.866,1144 259.903,1244.57 260.939,993.136 261.976,993.136 263.012,993.136 264.049,1144 265.085,1244.57 266.122,1294.86 267.159,1345.14 268.195,1043.42 269.232,1294.86 270.268,1294.86 271.305,1093.71 272.342,1244.57 273.378,1144 274.415,1093.71 275.451,993.136 276.488,1144 277.525,1194.28 278.561,1194.28 279.598,942.849 280.634,1043.42 281.671,1093.71 282.708,1093.71 283.744,741.703 284.781,1294.86 285.817,1294.86 286.854,993.136 287.891,993.136 288.927,1294.86 289.964,1093.71 291,892.563 292.037,1144 293.074,1144 294.11,1445.72 295.147,1093.71 296.183,993.136 297.22,1093.71 298.257,942.849 299.293,1043.42 300.33,1093.71 301.366,942.849 302.403,1294.86 303.439,1244.57 304.476,1144 305.513,993.136 306.549,1244.57 307.586,892.563 308.622,1294.86 309.659,1244.57 310.696,1294.86 311.732,1093.71 312.769,1395.43 313.805,1144 314.842,1093.71 315.879,892.563 316.915,1093.71 317.952,1093.71 318.988,892.563 320.025,1244.57 321.062,1093.71 322.098,1244.57 323.135,842.276 324.171,1244.57 325.208,842.276 326.245,1144 327.281,1043.42 328.318,1345.14 329.354,892.563 330.391,1144 331.428,1144 332.464,942.849 333.501,1043.42 334.537,892.563 335.574,842.276 336.611,1345.14 337.647,1244.57 338.684,1093.71 339.72,1093.71 340.757,1345.14 341.793,1043.42 342.83,1294.86 343.867,892.563 344.903,1093.71 345.94,1093.71 346.976,892.563 348.013,1395.43 349.05,1144 350.086,993.136 351.123,942.849 352.159,942.849 353.196,1345.14 354.233,1093.71 355.269,842.276 356.306,1144 357.342,1043.42 358.379,993.136 359.416,1144 360.452,993.136 361.489,1043.42 362.525,1144 363.562,1144 364.599,993.136 365.635,892.563 366.672,1144 367.708,1244.57 368.745,1194.28 369.782,1093.71 370.818,1043.42 371.855,892.563 372.891,741.703 373.928,791.989 374.965,942.849 376.001,942.849 377.038,993.136 378.074,1194.28 379.111,1144 380.147,1144 381.184,1093.71 382.221,892.563 383.257,641.129 384.294,1345.14 385.33,741.703 386.367,1093.71 387.404,741.703 388.44,691.416 389.477,842.276 390.513,1144 391.55,1043.42 392.587,942.849 393.623,1345.14 394.66,1194.28 395.696,942.849 396.733,741.703 397.77,993.136 398.806,1144 399.843,1244.57 400.879,1043.42 401.916,993.136 402.953,1043.42 403.989,1093.71 405.026,1144 406.062,1194.28 407.099,1043.42 408.136,1294.86 409.172,942.849 410.209,1093.71 411.245,993.136 412.282,842.276 413.319,842.276 414.355,791.989 415.392,691.416 416.428,942.849 417.465,942.849 418.501,691.416 419.538,1093.71 420.575,842.276 421.611,791.989 422.648,942.849 423.684,993.136 424.721,791.989 425.758,641.129 426.794,1043.42 427.831,892.563 428.867,892.563 429.904,1043.42 430.941,842.276 431.977,791.989 433.014,1294.86 434.05,691.416 435.087,842.276 436.124,942.849 437.16,892.563 438.197,1043.42 439.233,993.136 440.27,1043.42 441.307,741.703 442.343,842.276 443.38,1043.42 444.416,842.276 445.453,942.849 446.49,942.849 447.526,741.703 448.563,892.563 449.599,741.703 450.636,842.276 451.673,1194.28 452.709,942.849 453.746,892.563 454.782,993.136 455.819,691.416 456.855,791.989 457.892,590.843 458.929,942.849 459.965,540.556 461.002,791.989 462.038,842.276 463.075,741.703 464.112,993.136 465.148,791.989 466.185,842.276 467.221,540.556 468.258,1043.42 469.295,942.849 470.331,791.989 471.368,641.129 472.404,791.989 473.441,942.849 474.478,842.276 475.514,691.416 476.551,842.276 477.587,641.129 478.624,942.849 479.661,993.136 480.697,791.989 481.734,791.989 482.77,791.989 483.807,993.136 484.844,691.416 485.88,540.556 486.917,1144 487.953,842.276 488.99,641.129 490.027,590.843 491.063,641.129 492.1,1194.28 493.136,993.136 494.173,842.276 495.209,741.703 496.246,641.129 497.283,993.136 498.319,641.129 499.356,791.989 500.392,641.129 501.429,791.989 502.466,842.276 503.502,540.556 504.539,641.129 505.575,691.416 506.612,590.843 507.649,590.843 508.685,741.703 509.722,641.129 510.758,691.416 511.795,741.703 512.832,1093.71 513.868,691.416 514.905,993.136 515.941,691.416 516.978,439.983 518.015,892.563 519.051,842.276 520.088,691.416 521.124,741.703 522.161,741.703 523.198,490.269 524.234,590.843 525.271,691.416 526.307,641.129 527.344,791.989 528.381,942.849 529.417,590.843 530.454,892.563 531.49,590.843 532.527,590.843 533.563,590.843 534.6,540.556 535.637,590.843 536.673,641.129 537.71,691.416 538.746,641.129 539.783,641.129 540.82,791.989 541.856,641.129 542.893,741.703 543.929,791.989 544.966,641.129 546.003,641.129 547.039,691.416 548.076,741.703 549.112,691.416 550.149,691.416 551.186,439.983 552.222,641.129 553.259,842.276 554.295,892.563 555.332,641.129 556.369,289.123 557.405,691.416 558.442,641.129 559.478,289.123 560.515,590.843 561.552,641.129 562.588,389.696 563.625,691.416 564.661,641.129 565.698,389.696 566.735,540.556 567.771,691.416 568.808,641.129 569.844,641.129 570.881,540.556 571.917,892.563 572.954,490.269 573.991,590.843 575.027,741.703 576.064,490.269 577.1,741.703 578.137,389.696 579.174,590.843 580.21,540.556 581.247,842.276 582.283,691.416 583.32,942.849 584.357,540.556 585.393,892.563 586.43,691.416 587.466,791.989 588.503,641.129 589.54,641.129 590.576,540.556 591.613,540.556 592.649,540.556 593.686,439.983 594.723,490.269 595.759,791.989 596.796,389.696 597.832,691.416 598.869,490.269 599.906,490.269 600.942,590.843 601.979,540.556 603.015,590.843 604.052,389.696 605.089,389.696 606.125,741.703 607.162,339.41 608.198,590.843 609.235,540.556 610.271,540.556 611.308,842.276 612.345,691.416 613.381,791.989 614.418,892.563 615.454,590.843 616.491,490.269 617.528,540.556 618.564,540.556 619.601,540.556 620.637,641.129 621.674,540.556 622.711,490.269 623.747,590.843 624.784,490.269 625.82,540.556 626.857,691.416 627.894,691.416 628.93,238.836 629.967,641.129 631.003,590.843 632.04,439.983 633.077,389.696 634.113,691.416 635.15,540.556 636.186,540.556 637.223,439.983 638.26,289.123 639.296,490.269 640.333,188.55 641.369,389.696 642.406,590.843 643.443,490.269 644.479,339.41 645.516,238.836 646.552,490.269 647.589,439.983 648.625,691.416 649.662,188.55 650.699,490.269 651.735,691.416 652.772,389.696 653.808,439.983 654.845,691.416 655.882,540.556 656.918,691.416 657.955,439.983 658.991,540.556 660.028,641.129 661.065,540.556 662.101,641.129 663.138,439.983 664.174,339.41 665.211,590.843 666.248,439.983 667.284,540.556 668.321,439.983 669.357,641.129 670.394,540.556 671.431,490.269 672.467,289.123 673.504,490.269 674.54,741.703 675.577,289.123 676.614,389.696 677.65,339.41 678.687,389.696 679.723,691.416 680.76,490.269 681.797,389.696 682.833,339.41 683.87,389.696 684.906,641.129 685.943,439.983 686.979,339.41 688.016,439.983 689.053,389.696 690.089,590.843 691.126,540.556 692.162,389.696 693.199,389.696 694.236,439.983 695.272,490.269 696.309,590.843 697.345,188.55 698.382,289.123 699.419,439.983 700.455,439.983 701.492,590.843 702.528,490.269 703.565,439.983 704.602,339.41 705.638,389.696 706.675,439.983 707.711,641.129 708.748,490.269 709.785,289.123 710.821,490.269 711.858,439.983 712.894,490.269 713.931,641.129 714.968,490.269 716.004,590.843 717.041,439.983 718.077,540.556 719.114,641.129 720.151,389.696 721.187,389.696 722.224,439.983 723.26,490.269 724.297,439.983 725.333,389.696 726.37,540.556 727.407,439.983 728.443,540.556 729.48,439.983 730.516,339.41 731.553,188.55 732.59,641.129 733.626,439.983 734.663,490.269 735.699,691.416 736.736,540.556 737.773,490.269 738.809,590.843 739.846,439.983 740.882,339.41 741.919,238.836 742.956,389.696 743.992,540.556 745.029,289.123 746.065,289.123 747.102,289.123 748.139,641.129 749.175,641.129 750.212,389.696 751.248,590.843 752.285,490.269 753.322,339.41 754.358,590.843 755.395,540.556 756.431,490.269 757.468,339.41 758.505,439.983 759.541,389.696 760.578,490.269 761.614,389.696 762.651,439.983 763.687,389.696 764.724,339.41 765.761,439.983 766.797,289.123 767.834,238.836 768.87,389.696 769.907,540.556 770.944,389.696 771.98,339.41 773.017,540.556 774.053,289.123 775.09,490.269 776.127,389.696 777.163,138.263 778.2,439.983 779.236,188.55 780.273,289.123 781.31,339.41 782.346,490.269 783.383,439.983 784.419,289.123 785.456,389.696 786.493,389.696 787.529,590.843 788.566,389.696 789.602,439.983 790.639,439.983 791.676,238.836 792.712,439.983 793.749,439.983 794.785,289.123 795.822,339.41 796.859,741.703 797.895,238.836 798.932,339.41 799.968,238.836 801.005,439.983 802.041,238.836 803.078,490.269 804.115,590.843 805.151,439.983 806.188,439.983 807.224,439.983 808.261,339.41 809.298,289.123 810.334,339.41 811.371,289.123 812.407,289.123 813.444,389.696 814.481,439.983 815.517,188.55 816.554,641.129 817.59,389.696 818.627,590.843 819.664,892.563 820.7,339.41 821.737,439.983 822.773,439.983 823.81,289.123 824.847,389.696 825.883,339.41 826.92,138.263 827.956,389.696 828.993,339.41 830.03,389.696 831.066,490.269 832.103,238.836 833.139,590.843 834.176,188.55 835.213,741.703 836.249,389.696 837.286,590.843 838.322,238.836 839.359,439.983 840.395,490.269 841.432,238.836 842.469,188.55 843.505,289.123 844.542,389.696 845.578,138.263 846.615,540.556 847.652,389.696 848.688,439.983 849.725,339.41 850.761,238.836 851.798,339.41 852.835,439.983 853.871,439.983 854.908,188.55 855.944,389.696 856.981,339.41 858.018,339.41 859.054,439.983 860.091,490.269 861.127,138.263 862.164,490.269 863.201,439.983 864.237,188.55 865.274,389.696 866.31,490.269 867.347,188.55 868.384,289.123 869.42,238.836 870.457,289.123 871.493,389.696 872.53,289.123 873.567,540.556 874.603,289.123 875.64,389.696 876.676,389.696 877.713,289.123 878.749,188.55 879.786,238.836 880.823,339.41 881.859,540.556 882.896,641.129 883.932,439.983 884.969,439.983 886.006,289.123 887.042,339.41 888.079,289.123 889.115,339.41 890.152,439.983 891.189,188.55 892.225,289.123 893.262,289.123 894.298,289.123 895.335,439.983 896.372,138.263 897.408,238.836 898.445,590.843 899.481,339.41 900.518,238.836 901.555,490.269 902.591,389.696 903.628,289.123 904.664,389.696 905.701,238.836 906.738,490.269 907.774,389.696 908.811,289.123 909.847,389.696 910.884,339.41 911.921,490.269 912.957,339.41 913.994,339.41 915.03,339.41 916.067,238.836 917.103,439.983 918.14,339.41 919.177,439.983 920.213,389.696 921.25,439.983 922.286,188.55 923.323,389.696 924.36,389.696 925.396,490.269 926.433,490.269 927.469,490.269 928.506,339.41 929.543,389.696 930.579,389.696 931.616,389.696 932.652,87.9763 933.689,439.983 934.726,540.556 935.762,389.696 936.799,339.41 937.835,389.696 938.872,238.836 939.909,389.696 940.945,339.41 941.982,540.556 943.018,238.836 944.055,289.123 945.092,188.55 946.128,289.123 947.165,339.41 948.201,289.123 949.238,490.269 950.275,188.55 951.311,289.123 952.348,389.696 953.384,238.836 954.421,289.123 955.457,490.269 956.494,289.123 957.531,490.269 958.567,439.983 959.604,389.696 960.64,339.41 961.677,389.696 962.714,490.269 963.75,238.836 964.787,238.836 965.823,238.836 966.86,87.9763 967.897,389.696 968.933,389.696 969.97,339.41 971.006,439.983 972.043,439.983 973.08,188.55 974.116,389.696 975.153,339.41 976.189,238.836 977.226,389.696 978.263,339.41 979.299,238.836 980.336,289.123 981.372,289.123 982.409,238.836 983.446,439.983 984.482,490.269 985.519,188.55 986.555,138.263 987.592,289.123 988.629,188.55 989.665,188.55 990.702,339.41 991.738,238.836 992.775,289.123 993.811,289.123 994.848,590.843 995.885,289.123 996.921,289.123 997.958,238.836 998.994,289.123 1000.03,339.41 1001.07,188.55 1002.1,339.41 1003.14,289.123 1004.18,439.983 1005.21,389.696 1006.25,289.123 1007.29,339.41 1008.32,339.41 1009.36,188.55 1010.4,389.696 1011.43,289.123 1012.47,289.123 1013.51,339.41 1014.54,188.55 1015.58,289.123 1016.62,389.696 1017.65,439.983 1018.69,389.696 1019.73,490.269 1020.76,389.696 1021.8,289.123 1022.84,389.696 1023.87,339.41 1024.91,138.263 1025.95,339.41 1026.98,389.696 1028.02,389.696 1029.06,339.41 1030.09,389.696 1031.13,138.263 1032.17,238.836 1033.2,238.836 1034.24,238.836 1035.28,540.556 1036.31,490.269 1037.35,188.55 1038.39,138.263 1039.42,389.696 1040.46,339.41 1041.49,238.836 1042.53,339.41 1043.57,238.836 1044.6,389.696 1045.64,188.55 1046.68,339.41 1047.71,138.263 1048.75,540.556 1049.79,188.55 1050.82,238.836 1051.86,389.696 1052.9,238.836 1053.93,339.41 1054.97,490.269 1056.01,238.836 1057.04,289.123 1058.08,339.41 1059.12,289.123 1060.15,289.123 1061.19,138.263 1062.23,389.696 1063.26,389.696 1064.3,339.41 1065.34,138.263 1066.37,188.55 1067.41,138.263 1068.45,238.836 1069.48,238.836 1070.52,439.983 1071.56,389.696 1072.59,289.123 1073.63,238.836 1074.67,188.55 1075.7,289.123 1076.74,238.836 1077.78,238.836 1078.81,590.843 1079.85,188.55 1080.89,439.983 1081.92,238.836 1082.96,439.983 1084,289.123 1085.03,339.41 1086.07,289.123 1087.11,138.263 1088.14,339.41 1089.18,339.41 1090.21,238.836 1091.25,389.696 1092.29,289.123 1093.32,439.983 1094.36,339.41 1095.4,289.123 1096.43,339.41 1097.47,238.836 1098.51,289.123 1099.54,238.836 1100.58,138.263 1101.62,238.836 1102.65,339.41 1103.69,490.269 1104.73,138.263 1105.76,490.269 1106.8,289.123 1107.84,188.55 1108.87,289.123 1109.91,289.123 1110.95,138.263 1111.98,339.41 1113.02,389.696 1114.06,339.41 1115.09,339.41 1116.13,289.123 1117.17,238.836 1118.2,289.123 1119.24,138.263 1120.28,138.263 1121.31,238.836 1122.35,389.696 1123.39,188.55 1124.42,389.696 1125.46,289.123 1126.5,238.836 1127.53,339.41 1128.57,238.836 1129.61,238.836 1130.64,289.123 1131.68,238.836 1132.72,339.41 1133.75,389.696 1134.79,389.696 1135.82,238.836 1136.86,339.41 1137.9,439.983 1138.93,339.41 1139.97,188.55 1141.01,238.836 1142.04,188.55 1143.08,289.123 1144.12,238.836 1145.15,238.836 1146.19,87.9763 1147.23,289.123 1148.26,87.9763 1149.3,188.55 1150.34,339.41 1151.37,138.263 1152.41,339.41 1153.45,289.123 1154.48,238.836 1155.52,389.696 1156.56,289.123 1157.59,238.836 1158.63,439.983 1159.67,238.836 1160.7,238.836 1161.74,238.836 1162.78,188.55 1163.81,540.556 1164.85,238.836 1165.89,188.55 1166.92,238.836 1167.96,540.556 1169,138.263 1170.03,238.836 1171.07,238.836 1172.11,188.55 1173.14,389.696 1174.18,188.55 1175.22,339.41 1176.25,188.55 1177.29,238.836 1178.33,490.269 1179.36,389.696 1180.4,289.123 1181.44,238.836 1182.47,188.55 1183.51,138.263 1184.54,389.696 1185.58,138.263 1186.62,339.41 1187.65,289.123 1188.69,289.123 1189.73,389.696 1190.76,238.836 1191.8,188.55 1192.84,188.55 1193.87,289.123 1194.91,188.55 1195.95,439.983 1196.98,490.269 1198.02,490.269 1199.06,188.55 1200.09,540.556 1201.13,188.55 1202.17,138.263 1203.2,238.836 1204.24,289.123 1205.28,87.9763 1206.31,439.983 1207.35,138.263 1208.39,238.836 1209.42,188.55 1210.46,87.9763 1211.5,339.41 1212.53,339.41 1213.57,289.123 1214.61,339.41 1215.64,289.123 1216.68,289.123 1217.72,289.123 1218.75,289.123 1219.79,238.836 1220.83,339.41 1221.86,439.983 1222.9,238.836 1223.94,188.55 1224.97,289.123 1226.01,439.983 1227.05,188.55 1228.08,138.263 1229.12,389.696 1230.16,138.263 1231.19,289.123 1232.23,188.55 1233.26,188.55 1234.3,339.41 1235.34,138.263 1236.37,238.836 1237.41,339.41 1238.45,238.836 1239.48,188.55 1240.52,289.123 1241.56,188.55 1242.59,289.123 1243.63,138.263 1244.67,289.123 1245.7,389.696 1246.74,238.836 1247.78,339.41 1248.81,87.9763 1249.85,138.263 1250.89,238.836 1251.92,188.55 1252.96,138.263 1254,289.123 1255.03,238.836 1256.07,289.123 1257.11,188.55 1258.14,289.123 1259.18,289.123 1260.22,138.263 1261.25,138.263 1262.29,339.41 1263.33,238.836 1264.36,188.55 1265.4,238.836 1266.44,289.123 1267.47,188.55 1268.51,339.41 1269.55,188.55 1270.58,238.836 1271.62,389.696 1272.66,289.123 1273.69,87.9763 1274.73,188.55 1275.77,138.263 1276.8,238.836 1277.84,238.836 1278.88,138.263 1279.91,339.41 1280.95,188.55 1281.98,289.123 1283.02,540.556 1284.06,289.123 1285.09,138.263 1286.13,490.269 1287.17,339.41 1288.2,289.123 1289.24,188.55 1290.28,238.836 1291.31,289.123 1292.35,138.263 1293.39,439.983 1294.42,188.55 1295.46,188.55 1296.5,238.836 1297.53,138.263 1298.57,138.263 1299.61,339.41 1300.64,389.696 1301.68,138.263 1302.72,87.9763 1303.75,238.836 1304.79,238.836 1305.83,238.836 1306.86,389.696 1307.9,289.123 1308.94,188.55 1309.97,188.55 1311.01,188.55 1312.05,289.123 1313.08,188.55 1314.12,188.55 1315.16,339.41 1316.19,238.836 1317.23,439.983 1318.27,138.263 1319.3,138.263 1320.34,289.123 1321.38,87.9763 1322.41,339.41 1323.45,188.55 1324.49,238.836 1325.52,289.123 1326.56,289.123 1327.59,339.41 1328.63,188.55 1329.67,238.836 1330.7,389.696 1331.74,188.55 1332.78,339.41 1333.81,238.836 1334.85,188.55 1335.89,188.55 1336.92,188.55 1337.96,289.123 1339,238.836 1340.03,188.55 1341.07,339.41 1342.11,289.123 1343.14,238.836 1344.18,238.836 1345.22,138.263 1346.25,289.123 1347.29,188.55 1348.33,188.55 1349.36,188.55 1350.4,188.55 1351.44,289.123 1352.47,238.836 1353.51,138.263 1354.55,138.263 1355.58,238.836 1356.62,289.123 1357.66,188.55 1358.69,289.123 1359.73,238.836 1360.77,138.263 1361.8,138.263 1362.84,289.123 1363.88,238.836 1364.91,238.836 1365.95,339.41 1366.99,188.55 1368.02,188.55 1369.06,188.55 1370.1,238.836 1371.13,238.836 1372.17,289.123 1373.21,188.55 1374.24,138.263 1375.28,289.123 1376.31,389.696 1377.35,188.55 1378.39,188.55 1379.42,188.55 1380.46,238.836 1381.5,188.55 1382.53,540.556 1383.57,289.123 1384.61,87.9763 1385.64,439.983 1386.68,238.836 1387.72,289.123 1388.75,238.836 1389.79,188.55 1390.83,289.123 1391.86,138.263 1392.9,138.263 1393.94,238.836 1394.97,138.263 1396.01,188.55 1397.05,339.41 1398.08,87.9763 1399.12,238.836 1400.16,238.836 1401.19,339.41 1402.23,289.123 1403.27,289.123 1404.3,188.55 1405.34,339.41 1406.38,339.41 1407.41,238.836 1408.45,138.263 1409.49,138.263 1410.52,188.55 1411.56,138.263 1412.6,238.836 1413.63,188.55 1414.67,188.55 1415.71,339.41 1416.74,138.263 1417.78,339.41 1418.82,188.55 1419.85,188.55 1420.89,188.55 1421.93,289.123 1422.96,238.836 1424,188.55 1425.03,289.123 1426.07,87.9763 1427.11,289.123 1428.14,238.836 1429.18,339.41 1430.22,238.836 1431.25,389.696 1432.29,238.836 1433.33,389.696 1434.36,238.836 1435.4,138.263 1436.44,339.41 1437.47,188.55 1438.51,138.263 1439.55,188.55 1440.58,289.123 1441.62,339.41 1442.66,188.55 1443.69,188.55 1444.73,339.41 1445.77,87.9763 1446.8,188.55 1447.84,238.836 1448.88,188.55 1449.91,238.836 1450.95,138.263 1451.99,138.263 1453.02,188.55 1454.06,188.55 1455.1,238.836 1456.13,238.836 1457.17,188.55 1458.21,238.836 1459.24,188.55 1460.28,238.836 1461.32,188.55 1462.35,238.836 1463.39,439.983 1464.43,188.55 1465.46,238.836 1466.5,289.123 1467.54,238.836 1468.57,87.9763 1469.61,238.836 1470.65,238.836 1471.68,289.123 1472.72,87.9763 1473.75,339.41 1474.79,138.263 1475.83,188.55 1476.86,138.263 1477.9,188.55 1478.94,339.41 1479.97,389.696 1481.01,238.836 1482.05,389.696 1483.08,238.836 1484.12,238.836 1485.16,339.41 1486.19,188.55 1487.23,289.123 1488.27,289.123 1489.3,188.55 1490.34,188.55 1491.38,289.123 1492.41,289.123 1493.45,238.836 1494.49,188.55 1495.52,289.123 1496.56,238.836 1497.6,87.9763 1498.63,138.263 1499.67,238.836 1500.71,238.836 1501.74,238.836 1502.78,238.836 1503.82,289.123 1504.85,87.9763 1505.89,138.263 1506.93,188.55 1507.96,138.263 1509,138.263 1510.04,138.263 1511.07,188.55 1512.11,339.41 1513.15,289.123 1514.18,188.55 1515.22,238.836 1516.26,188.55 1517.29,188.55 1518.33,389.696 1519.36,238.836 1520.4,238.836 1521.44,188.55 1522.47,289.123 1523.51,238.836 1524.55,339.41 1525.58,87.9763 1526.62,238.836 1527.66,188.55 1528.69,188.55 1529.73,188.55 1530.77,238.836 1531.8,188.55 1532.84,188.55 1533.88,289.123 1534.91,389.696 1535.95,188.55 1536.99,238.836 1538.02,188.55 1539.06,188.55 1540.1,389.696 1541.13,289.123 1542.17,188.55 1543.21,439.983 1544.24,389.696 1545.28,289.123 1546.32,188.55 1547.35,188.55 1548.39,188.55 1549.43,339.41 1550.46,238.836 1551.5,389.696 1552.54,138.263 1553.57,188.55 1554.61,238.836 1555.65,138.263 1556.68,289.123 1557.72,289.123 1558.76,87.9763 1559.79,289.123 1560.83,188.55 1561.87,138.263 1562.9,289.123 1563.94,138.263 1564.98,188.55 1566.01,138.263 1567.05,188.55 1568.08,339.41 1569.12,238.836 1570.16,339.41 1571.19,138.263 1572.23,188.55 1573.27,138.263 1574.3,138.263 1575.34,238.836 1576.38,188.55 1577.41,238.836 1578.45,238.836 1579.49,138.263 1580.52,188.55 1581.56,289.123 1582.6,138.263 1583.63,339.41 1584.67,138.263 1585.71,188.55 1586.74,188.55 1587.78,188.55 1588.82,238.836 1589.85,138.263 1590.89,188.55 1591.93,389.696 1592.96,188.55 1594,238.836 1595.04,138.263 1596.07,339.41 1597.11,138.263 1598.15,238.836 1599.18,188.55 1600.22,188.55 1601.26,289.123 1602.29,289.123 1603.33,238.836 1604.37,87.9763 1605.4,188.55 1606.44,238.836 1607.48,138.263 1608.51,339.41 1609.55,238.836 1610.59,238.836 1611.62,138.263 1612.66,138.263 1613.7,188.55 1614.73,389.696 1615.77,289.123 1616.8,339.41 1617.84,289.123 1618.88,339.41 1619.91,289.123 1620.95,188.55 1621.99,389.696 1623.02,138.263 1624.06,339.41 1625.1,289.123 1626.13,188.55 1627.17,238.836 1628.21,188.55 1629.24,238.836 1630.28,138.263 1631.32,289.123 1632.35,238.836 1633.39,238.836 1634.43,138.263 1635.46,339.41 1636.5,238.836 1637.54,289.123 1638.57,289.123 1639.61,138.263 1640.65,188.55 1641.68,289.123 1642.72,188.55 1643.76,389.696 1644.79,87.9763 1645.83,138.263 1646.87,389.696 1647.9,238.836 1648.94,188.55 1649.98,188.55 1651.01,238.836 1652.05,188.55 1653.09,238.836 1654.12,289.123 1655.16,188.55 1656.2,188.55 1657.23,238.836 1658.27,188.55 1659.31,289.123 1660.34,238.836 1661.38,188.55 1662.42,238.836 1663.45,188.55 1664.49,339.41 1665.52,238.836 1666.56,188.55 1667.6,238.836 1668.63,87.9763 1669.67,238.836 1670.71,188.55 1671.74,289.123 1672.78,188.55 1673.82,138.263 1674.85,138.263 1675.89,138.263 1676.93,188.55 1677.96,138.263 1679,289.123 1680.04,138.263 1681.07,138.263 1682.11,188.55 1683.15,339.41 1684.18,188.55 1685.22,289.123 1686.26,238.836 1687.29,238.836 1688.33,188.55 1689.37,188.55 1690.4,87.9763 1691.44,87.9763 1692.48,289.123 1693.51,339.41 1694.55,339.41 1695.59,289.123 1696.62,238.836 1697.66,188.55 1698.7,138.263 1699.73,238.836 1700.77,289.123 1701.81,339.41 1702.84,238.836 1703.88,238.836 1704.92,87.9763 1705.95,188.55 1706.99,188.55 1708.03,289.123 1709.06,138.263 1710.1,439.983 1711.13,138.263 1712.17,138.263 1713.21,138.263 1714.24,389.696 1715.28,138.263 1716.32,188.55 1717.35,138.263 1718.39,138.263 1719.43,188.55 1720.46,138.263 1721.5,289.123 1722.54,188.55 1723.57,289.123 1724.61,238.836 1725.65,138.263 1726.68,339.41 1727.72,138.263 1728.76,188.55 1729.79,87.9763 1730.83,238.836 1731.87,289.123 1732.9,238.836 1733.94,389.696 1734.98,238.836 1736.01,138.263 1737.05,87.9763 1738.09,289.123 1739.12,238.836 1740.16,188.55 1741.2,238.836 1742.23,289.123 1743.27,87.9763 1744.31,289.123 1745.34,188.55 1746.38,188.55 1747.42,138.263 1748.45,188.55 1749.49,238.836 1750.53,238.836 1751.56,188.55 1752.6,138.263 1753.64,289.123 1754.67,188.55 1755.71,289.123 1756.75,289.123 1757.78,188.55 1758.82,188.55 1759.85,238.836 1760.89,138.263 1761.93,138.263 1762.96,339.41 1764,238.836 1765.04,87.9763 1766.07,238.836 1767.11,87.9763 1768.15,138.263 1769.18,138.263 1770.22,188.55 1771.26,188.55 1772.29,238.836 1773.33,188.55 1774.37,188.55 1775.4,87.9763 1776.44,188.55 1777.48,138.263 1778.51,238.836 1779.55,289.123 1780.59,389.696 1781.62,238.836 1782.66,238.836 1783.7,138.263 1784.73,238.836 1785.77,138.263 1786.81,289.123 1787.84,138.263 1788.88,188.55 1789.92,238.836 1790.95,339.41 1791.99,188.55 1793.03,188.55 1794.06,188.55 1795.1,188.55 1796.14,188.55 1797.17,238.836 1798.21,188.55 1799.25,87.9763 1800.28,188.55 1801.32,188.55 1802.36,138.263 1803.39,188.55 1804.43,188.55 1805.47,138.263 1806.5,188.55 1807.54,339.41 1808.57,238.836 1809.61,138.263 1810.65,289.123 1811.68,188.55 1812.72,188.55 1813.76,339.41 1814.79,289.123 1815.83,238.836 1816.87,138.263 1817.9,289.123 1818.94,289.123 1819.98,87.9763 1821.01,138.263 1822.05,289.123 1823.09,439.983 1824.12,339.41 1825.16,238.836 1826.2,188.55 1827.23,188.55 1828.27,490.269 1829.31,138.263 1830.34,138.263 1831.38,188.55 1832.42,87.9763 1833.45,188.55 1834.49,188.55 1835.53,238.836 1836.56,188.55 1837.6,188.55 1838.64,188.55 1839.67,238.836 1840.71,188.55 1841.75,138.263 1842.78,87.9763 1843.82,238.836 1844.86,188.55 1845.89,87.9763 1846.93,188.55 1847.97,188.55 1849,238.836 1850.04,238.836 1851.08,289.123 1852.11,138.263 1853.15,188.55 1854.19,87.9763 1855.22,188.55 1856.26,238.836 1857.29,289.123 1858.33,188.55 1859.37,188.55 1860.4,138.263 1861.44,238.836 1862.48,238.836 1863.51,289.123 1864.55,238.836 1865.59,188.55 1866.62,188.55 1867.66,188.55 1868.7,188.55 1869.73,238.836 1870.77,138.263 1871.81,289.123 1872.84,188.55 1873.88,188.55 1874.92,87.9763 1875.95,289.123 1876.99,238.836 1878.03,289.123 1879.06,289.123 1880.1,339.41 1881.14,238.836 1882.17,87.9763 1883.21,188.55 1884.25,188.55 1885.28,238.836 1886.32,339.41 1887.36,138.263 1888.39,138.263 1889.43,188.55 1890.47,238.836 1891.5,289.123 1892.54,138.263 1893.58,138.263 1894.61,289.123 1895.65,238.836 1896.69,87.9763 1897.72,238.836 1898.76,238.836 1899.8,238.836 1900.83,87.9763 1901.87,188.55 1902.9,138.263 1903.94,138.263 1904.98,188.55 1906.01,238.836 1907.05,138.263 1908.09,238.836 1909.12,138.263 1910.16,188.55 1911.2,188.55 1912.23,188.55 1913.27,87.9763 1914.31,138.263 1915.34,339.41 1916.38,188.55 1917.42,238.836 1918.45,339.41 1919.49,238.836 1920.53,188.55 1921.56,138.263 1922.6,87.9763 1923.64,138.263 1924.67,87.9763 1925.71,238.836 1926.75,238.836 1927.78,339.41 1928.82,289.123 1929.86,289.123 1930.89,289.123 1931.93,138.263 1932.97,138.263 1934,138.263 1935.04,138.263 1936.08,87.9763 1937.11,138.263 1938.15,188.55 1939.19,188.55 1940.22,238.836 1941.26,188.55 1942.3,138.263 1943.33,188.55 1944.37,188.55 1945.41,289.123 1946.44,138.263 1947.48,138.263 1948.52,188.55 1949.55,188.55 1950.59,188.55 1951.62,138.263 1952.66,188.55 1953.7,238.836 1954.73,138.263 1955.77,188.55 1956.81,87.9763 1957.84,238.836 1958.88,138.263 1959.92,87.9763 1960.95,138.263 1961.99,188.55 1963.03,289.123 1964.06,138.263 1965.1,138.263 1966.14,238.836 1967.17,188.55 1968.21,138.263 1969.25,138.263 1970.28,188.55 1971.32,339.41 1972.36,138.263 1973.39,138.263 1974.43,289.123 1975.47,188.55 1976.5,138.263 1977.54,188.55 1978.58,138.263 1979.61,138.263 1980.65,238.836 1981.69,188.55 1982.72,339.41 1983.76,138.263 1984.8,138.263 1985.83,188.55 1986.87,138.263 1987.91,138.263 1988.94,238.836 1989.98,138.263 1991.02,339.41 1992.05,138.263 1993.09,138.263 1994.13,188.55 1995.16,188.55 1996.2,87.9763 1997.24,188.55 1998.27,238.836 1999.31,188.55 2000.34,238.836 2001.38,289.123 2002.42,289.123 2003.45,138.263 2004.49,339.41 2005.53,138.263 2006.56,389.696 2007.6,138.263 2008.64,188.55 2009.67,138.263 2010.71,289.123 2011.75,87.9763 2012.78,138.263 2013.82,289.123 2014.86,138.263 2015.89,238.836 2016.93,289.123 2017.97,238.836 2019,138.263 2020.04,188.55 2021.08,138.263 2022.11,138.263 2023.15,138.263 2024.19,238.836 2025.22,138.263 2026.26,238.836 2027.3,188.55 2028.33,188.55 2029.37,87.9763 2030.41,87.9763 2031.44,138.263 2032.48,188.55 2033.52,339.41 2034.55,138.263 2035.59,188.55 2036.63,87.9763 2037.66,188.55 2038.7,138.263 2039.74,339.41 2040.77,188.55 2041.81,188.55 2042.85,138.263 2043.88,289.123 2044.92,188.55 2045.96,289.123 2046.99,138.263 2048.03,188.55 2049.06,87.9763 2050.1,188.55 2051.14,238.836 2052.17,87.9763 2053.21,289.123 2054.25,138.263 2055.28,87.9763 2056.32,339.41 2057.36,188.55 2058.39,188.55 2059.43,138.263 2060.47,238.836 2061.5,138.263 2062.54,238.836 2063.58,138.263 2064.61,87.9763 2065.65,188.55 2066.69,188.55 2067.72,138.263 2068.76,138.263 2069.8,138.263 2070.83,188.55 2071.87,188.55 2072.91,87.9763 2073.94,238.836 2074.98,87.9763 2076.02,188.55 2077.05,289.123 2078.09,188.55 2079.13,188.55 2080.16,238.836 2081.2,138.263 2082.24,238.836 2083.27,138.263 2084.31,188.55 2085.35,188.55 2086.38,138.263 2087.42,188.55 2088.46,238.836 2089.49,188.55 2090.53,238.836 2091.57,188.55 2092.6,238.836 2093.64,138.263 2094.67,87.9763 2095.71,188.55 2096.75,188.55 2097.78,87.9763 2098.82,188.55 2099.86,238.836 2100.89,389.696 2101.93,289.123 2102.97,188.55 2104,238.836 2105.04,188.55 2106.08,188.55 2107.11,138.263 2108.15,238.836 2109.19,87.9763 2110.22,289.123 2111.26,87.9763 2112.3,238.836 2113.33,238.836 2114.37,188.55 2115.41,238.836 2116.44,138.263 2117.48,188.55 2118.52,188.55 2119.55,138.263 2120.59,289.123 2121.63,138.263 2122.66,289.123 2123.7,188.55 2124.74,138.263 2125.77,138.263 2126.81,87.9763 2127.85,289.123 2128.88,87.9763 2129.92,87.9763 2130.96,188.55 2131.99,138.263 2133.03,389.696 2134.07,339.41 2135.1,188.55 2136.14,87.9763 2137.18,188.55 2138.21,138.263 2139.25,238.836 2140.29,188.55 2141.32,87.9763 2142.36,138.263 2143.39,188.55 2144.43,87.9763 2145.47,188.55 2146.5,238.836 2147.54,188.55 2148.58,138.263 2149.61,188.55 2150.65,188.55 2151.69,188.55 2152.72,289.123 2153.76,289.123 2154.8,138.263 2155.83,138.263 2156.87,389.696 2157.91,238.836 2158.94,188.55 2159.98,238.836 2161.02,138.263 2162.05,138.263 2163.09,188.55 2164.13,87.9763 2165.16,188.55 2166.2,138.263 2167.24,289.123 2168.27,138.263 2169.31,87.9763 2170.35,339.41 2171.38,238.836 2172.42,138.263 2173.46,87.9763 2174.49,188.55 2175.53,138.263 2176.57,188.55 2177.6,238.836 2178.64,188.55 2179.68,289.123 2180.71,87.9763 2181.75,289.123 2182.79,188.55 2183.82,289.123 2184.86,138.263 2185.9,138.263 2186.93,289.123 2187.97,188.55 2189.01,138.263 2190.04,138.263 2191.08,138.263 2192.11,138.263 2193.15,138.263 2194.19,238.836 2195.22,138.263 2196.26,188.55 2197.3,138.263 2198.33,238.836 2199.37,188.55 2200.41,138.263 2201.44,138.263 2202.48,289.123 2203.52,238.836 2204.55,238.836 2205.59,138.263 2206.63,87.9763 2207.66,238.836 2208.7,87.9763 2209.74,138.263 2210.77,138.263 2211.81,188.55 2212.85,238.836 2213.88,188.55 2214.92,188.55 2215.96,87.9763 2216.99,188.55 2218.03,339.41 2219.07,238.836 2220.1,138.263 2221.14,87.9763 2222.18,138.263 2223.21,238.836 2224.25,238.836 2225.29,138.263 2226.32,289.123 2227.36,138.263 2228.4,188.55 2229.43,289.123 2230.47,87.9763 2231.51,238.836 2232.54,87.9763 2233.58,188.55 2234.62,188.55 2235.65,238.836 2236.69,138.263 2237.73,138.263 2238.76,138.263 2239.8,138.263 2240.83,188.55 2241.87,188.55 2242.91,138.263 2243.94,339.41 2244.98,138.263 2246.02,289.123 2247.05,138.263 2248.09,138.263 2249.13,238.836 2250.16,138.263 2251.2,238.836 2252.24,188.55 2253.27,138.263 2254.31,138.263 2255.35,138.263 2256.38,188.55 2257.42,138.263 2258.46,138.263 2259.49,188.55 2260.53,138.263 2261.57,138.263 2262.6,188.55 2263.64,138.263 2264.68,87.9763 2265.71,138.263 2266.75,238.836 2267.79,188.55 2268.82,87.9763 2269.86,87.9763 2270.9,87.9763 2271.93,188.55 2272.97,87.9763 2274.01,138.263 2275.04,289.123 2276.08,188.55 2277.12,188.55 2278.15,138.263 2279.19,188.55 2280.23,188.55 2281.26,138.263 2282.3,138.263 2283.34,289.123 2284.37,87.9763 2285.41,188.55 2286.44,87.9763 2287.48,138.263 2288.52,289.123 2289.55,238.836 2290.59,188.55 "/>
<path clip-path="url(#clip790)" d="M2007.46 1438.47 L2279.54 1438.47 L2279.54 1334.79 L2007.46 1334.79  Z" fill="#ffffff" fill-rule="evenodd" fill-opacity="1"/>
<polyline clip-path="url(#clip790)" style="stroke:#000000; stroke-linecap:round; stroke-linejoin:round; stroke-width:4; stroke-opacity:1; fill:none" points="2007.46,1438.47 2279.54,1438.47 2279.54,1334.79 2007.46,1334.79 2007.46,1438.47 "/>
<polyline clip-path="url(#clip790)" style="stroke:#009af9; stroke-linecap:round; stroke-linejoin:round; stroke-width:4; stroke-opacity:1; fill:none" points="2031.87,1386.63 2178.3,1386.63 "/>
<path clip-path="url(#clip790)" d="M2216.55 1406.32 Q2214.74 1410.95 2213.03 1412.36 Q2211.32 1413.78 2208.44 1413.78 L2205.04 1413.78 L2205.04 1410.21 L2207.54 1410.21 Q2209.3 1410.21 2210.27 1409.38 Q2211.25 1408.54 2212.43 1405.44 L2213.19 1403.5 L2202.7 1377.99 L2207.22 1377.99 L2215.32 1398.27 L2223.42 1377.99 L2227.94 1377.99 L2216.55 1406.32 Z" fill="#000000" fill-rule="nonzero" fill-opacity="1" /><path clip-path="url(#clip790)" d="M2235.23 1399.98 L2242.87 1399.98 L2242.87 1373.61 L2234.56 1375.28 L2234.56 1371.02 L2242.82 1369.35 L2247.5 1369.35 L2247.5 1399.98 L2255.13 1399.98 L2255.13 1403.91 L2235.23 1403.91 L2235.23 1399.98 Z" fill="#000000" fill-rule="nonzero" fill-opacity="1" /></svg>
