<?xml version="1.0" encoding="utf-8"?>
<svg xmlns="http://www.w3.org/2000/svg" xmlns:xlink="http://www.w3.org/1999/xlink" width="600" height="400" viewBox="0 0 2400 1600">
<defs>
  <clipPath id="clip860">
    <rect x="0" y="0" width="2400" height="1600"/>
  </clipPath>
</defs>
<path clip-path="url(#clip860)" d="M0 1600 L2400 1600 L2400 0 L0 0  Z" fill="#ffffff" fill-rule="evenodd" fill-opacity="1"/>
<defs>
  <clipPath id="clip861">
    <rect x="480" y="0" width="1681" height="1600"/>
  </clipPath>
</defs>
<path clip-path="url(#clip860)" d="M170.857 1486.45 L2352.76 1486.45 L2352.76 47.2441 L170.857 47.2441  Z" fill="#ffffff" fill-rule="evenodd" fill-opacity="1"/>
<defs>
  <clipPath id="clip862">
    <rect x="170" y="47" width="2183" height="1440"/>
  </clipPath>
</defs>
<polyline clip-path="url(#clip862)" style="stroke:#000000; stroke-linecap:round; stroke-linejoin:round; stroke-width:2; stroke-opacity:0.1; fill:none" points="232.609,1486.45 232.609,47.2441 "/>
<polyline clip-path="url(#clip862)" style="stroke:#000000; stroke-linecap:round; stroke-linejoin:round; stroke-width:2; stroke-opacity:0.1; fill:none" points="747.208,1486.45 747.208,47.2441 "/>
<polyline clip-path="url(#clip862)" style="stroke:#000000; stroke-linecap:round; stroke-linejoin:round; stroke-width:2; stroke-opacity:0.1; fill:none" points="1261.81,1486.45 1261.81,47.2441 "/>
<polyline clip-path="url(#clip862)" style="stroke:#000000; stroke-linecap:round; stroke-linejoin:round; stroke-width:2; stroke-opacity:0.1; fill:none" points="1776.41,1486.45 1776.41,47.2441 "/>
<polyline clip-path="url(#clip862)" style="stroke:#000000; stroke-linecap:round; stroke-linejoin:round; stroke-width:2; stroke-opacity:0.1; fill:none" points="2291,1486.45 2291,47.2441 "/>
<polyline clip-path="url(#clip860)" style="stroke:#000000; stroke-linecap:round; stroke-linejoin:round; stroke-width:4; stroke-opacity:1; fill:none" points="170.857,1486.45 2352.76,1486.45 "/>
<polyline clip-path="url(#clip860)" style="stroke:#000000; stroke-linecap:round; stroke-linejoin:round; stroke-width:4; stroke-opacity:1; fill:none" points="232.609,1486.45 232.609,1467.55 "/>
<polyline clip-path="url(#clip860)" style="stroke:#000000; stroke-linecap:round; stroke-linejoin:round; stroke-width:4; stroke-opacity:1; fill:none" points="747.208,1486.45 747.208,1467.55 "/>
<polyline clip-path="url(#clip860)" style="stroke:#000000; stroke-linecap:round; stroke-linejoin:round; stroke-width:4; stroke-opacity:1; fill:none" points="1261.81,1486.45 1261.81,1467.55 "/>
<polyline clip-path="url(#clip860)" style="stroke:#000000; stroke-linecap:round; stroke-linejoin:round; stroke-width:4; stroke-opacity:1; fill:none" points="1776.41,1486.45 1776.41,1467.55 "/>
<polyline clip-path="url(#clip860)" style="stroke:#000000; stroke-linecap:round; stroke-linejoin:round; stroke-width:4; stroke-opacity:1; fill:none" points="2291,1486.45 2291,1467.55 "/>
<path clip-path="url(#clip860)" d="M232.609 1517.37 Q228.998 1517.37 227.169 1520.93 Q225.364 1524.47 225.364 1531.6 Q225.364 1538.71 227.169 1542.27 Q228.998 1545.82 232.609 1545.82 Q236.244 1545.82 238.049 1542.27 Q239.878 1538.71 239.878 1531.6 Q239.878 1524.47 238.049 1520.93 Q236.244 1517.37 232.609 1517.37 M232.609 1513.66 Q238.419 1513.66 241.475 1518.27 Q244.554 1522.85 244.554 1531.6 Q244.554 1540.33 241.475 1544.94 Q238.419 1549.52 232.609 1549.52 Q226.799 1549.52 223.72 1544.94 Q220.665 1540.33 220.665 1531.6 Q220.665 1522.85 223.72 1518.27 Q226.799 1513.66 232.609 1513.66 Z" fill="#000000" fill-rule="nonzero" fill-opacity="1" /><path clip-path="url(#clip860)" d="M706.826 1514.29 L725.183 1514.29 L725.183 1518.22 L711.109 1518.22 L711.109 1526.7 Q712.127 1526.35 713.146 1526.19 Q714.164 1526 715.183 1526 Q720.97 1526 724.349 1529.17 Q727.729 1532.34 727.729 1537.76 Q727.729 1543.34 724.257 1546.44 Q720.784 1549.52 714.465 1549.52 Q712.289 1549.52 710.021 1549.15 Q707.775 1548.78 705.368 1548.04 L705.368 1543.34 Q707.451 1544.47 709.673 1545.03 Q711.896 1545.58 714.372 1545.58 Q718.377 1545.58 720.715 1543.48 Q723.053 1541.37 723.053 1537.76 Q723.053 1534.15 720.715 1532.04 Q718.377 1529.94 714.372 1529.94 Q712.497 1529.94 710.623 1530.35 Q708.771 1530.77 706.826 1531.65 L706.826 1514.29 Z" fill="#000000" fill-rule="nonzero" fill-opacity="1" /><path clip-path="url(#clip860)" d="M746.942 1517.37 Q743.331 1517.37 741.502 1520.93 Q739.696 1524.47 739.696 1531.6 Q739.696 1538.71 741.502 1542.27 Q743.331 1545.82 746.942 1545.82 Q750.576 1545.82 752.382 1542.27 Q754.21 1538.71 754.21 1531.6 Q754.21 1524.47 752.382 1520.93 Q750.576 1517.37 746.942 1517.37 M746.942 1513.66 Q752.752 1513.66 755.807 1518.27 Q758.886 1522.85 758.886 1531.6 Q758.886 1540.33 755.807 1544.94 Q752.752 1549.52 746.942 1549.52 Q741.132 1549.52 738.053 1544.94 Q734.997 1540.33 734.997 1531.6 Q734.997 1522.85 738.053 1518.27 Q741.132 1513.66 746.942 1513.66 Z" fill="#000000" fill-rule="nonzero" fill-opacity="1" /><path clip-path="url(#clip860)" d="M777.104 1517.37 Q773.493 1517.37 771.664 1520.93 Q769.858 1524.47 769.858 1531.6 Q769.858 1538.71 771.664 1542.27 Q773.493 1545.82 777.104 1545.82 Q780.738 1545.82 782.543 1542.27 Q784.372 1538.71 784.372 1531.6 Q784.372 1524.47 782.543 1520.93 Q780.738 1517.37 777.104 1517.37 M777.104 1513.66 Q782.914 1513.66 785.969 1518.27 Q789.048 1522.85 789.048 1531.6 Q789.048 1540.33 785.969 1544.94 Q782.914 1549.52 777.104 1549.52 Q771.293 1549.52 768.215 1544.94 Q765.159 1540.33 765.159 1531.6 Q765.159 1522.85 768.215 1518.27 Q771.293 1513.66 777.104 1513.66 Z" fill="#000000" fill-rule="nonzero" fill-opacity="1" /><path clip-path="url(#clip860)" d="M1206.33 1544.91 L1213.97 1544.91 L1213.97 1518.55 L1205.66 1520.21 L1205.66 1515.95 L1213.92 1514.29 L1218.6 1514.29 L1218.6 1544.91 L1226.24 1544.91 L1226.24 1548.85 L1206.33 1548.85 L1206.33 1544.91 Z" fill="#000000" fill-rule="nonzero" fill-opacity="1" /><path clip-path="url(#clip860)" d="M1245.68 1517.37 Q1242.07 1517.37 1240.24 1520.93 Q1238.44 1524.47 1238.44 1531.6 Q1238.44 1538.71 1240.24 1542.27 Q1242.07 1545.82 1245.68 1545.82 Q1249.32 1545.82 1251.12 1542.27 Q1252.95 1538.71 1252.95 1531.6 Q1252.95 1524.47 1251.12 1520.93 Q1249.32 1517.37 1245.68 1517.37 M1245.68 1513.66 Q1251.49 1513.66 1254.55 1518.27 Q1257.63 1522.85 1257.63 1531.6 Q1257.63 1540.33 1254.55 1544.94 Q1251.49 1549.52 1245.68 1549.52 Q1239.87 1549.52 1236.8 1544.94 Q1233.74 1540.33 1233.74 1531.6 Q1233.74 1522.85 1236.8 1518.27 Q1239.87 1513.66 1245.68 1513.66 Z" fill="#000000" fill-rule="nonzero" fill-opacity="1" /><path clip-path="url(#clip860)" d="M1275.85 1517.37 Q1272.23 1517.37 1270.41 1520.93 Q1268.6 1524.47 1268.6 1531.6 Q1268.6 1538.71 1270.41 1542.27 Q1272.23 1545.82 1275.85 1545.82 Q1279.48 1545.82 1281.29 1542.27 Q1283.11 1538.71 1283.11 1531.6 Q1283.11 1524.47 1281.29 1520.93 Q1279.48 1517.37 1275.85 1517.37 M1275.85 1513.66 Q1281.66 1513.66 1284.71 1518.27 Q1287.79 1522.85 1287.79 1531.6 Q1287.79 1540.33 1284.71 1544.94 Q1281.66 1549.52 1275.85 1549.52 Q1270.04 1549.52 1266.96 1544.94 Q1263.9 1540.33 1263.9 1531.6 Q1263.9 1522.85 1266.96 1518.27 Q1270.04 1513.66 1275.85 1513.66 Z" fill="#000000" fill-rule="nonzero" fill-opacity="1" /><path clip-path="url(#clip860)" d="M1306.01 1517.37 Q1302.4 1517.37 1300.57 1520.93 Q1298.76 1524.47 1298.76 1531.6 Q1298.76 1538.71 1300.57 1542.27 Q1302.4 1545.82 1306.01 1545.82 Q1309.64 1545.82 1311.45 1542.27 Q1313.28 1538.71 1313.28 1531.6 Q1313.28 1524.47 1311.45 1520.93 Q1309.64 1517.37 1306.01 1517.37 M1306.01 1513.66 Q1311.82 1513.66 1314.87 1518.27 Q1317.95 1522.85 1317.95 1531.6 Q1317.95 1540.33 1314.87 1544.94 Q1311.82 1549.52 1306.01 1549.52 Q1300.2 1549.52 1297.12 1544.94 Q1294.06 1540.33 1294.06 1531.6 Q1294.06 1522.85 1297.12 1518.27 Q1300.2 1513.66 1306.01 1513.66 Z" fill="#000000" fill-rule="nonzero" fill-opacity="1" /><path clip-path="url(#clip860)" d="M1720.93 1544.91 L1728.57 1544.91 L1728.57 1518.55 L1720.26 1520.21 L1720.26 1515.95 L1728.52 1514.29 L1733.2 1514.29 L1733.2 1544.91 L1740.84 1544.91 L1740.84 1548.85 L1720.93 1548.85 L1720.93 1544.91 Z" fill="#000000" fill-rule="nonzero" fill-opacity="1" /><path clip-path="url(#clip860)" d="M1750.33 1514.29 L1768.69 1514.29 L1768.69 1518.22 L1754.61 1518.22 L1754.61 1526.7 Q1755.63 1526.35 1756.65 1526.19 Q1757.67 1526 1758.69 1526 Q1764.47 1526 1767.85 1529.17 Q1771.23 1532.34 1771.23 1537.76 Q1771.23 1543.34 1767.76 1546.44 Q1764.29 1549.52 1757.97 1549.52 Q1755.79 1549.52 1753.52 1549.15 Q1751.28 1548.78 1748.87 1548.04 L1748.87 1543.34 Q1750.95 1544.47 1753.18 1545.03 Q1755.4 1545.58 1757.88 1545.58 Q1761.88 1545.58 1764.22 1543.48 Q1766.56 1541.37 1766.56 1537.76 Q1766.56 1534.15 1764.22 1532.04 Q1761.88 1529.94 1757.88 1529.94 Q1756 1529.94 1754.13 1530.35 Q1752.27 1530.77 1750.33 1531.65 L1750.33 1514.29 Z" fill="#000000" fill-rule="nonzero" fill-opacity="1" /><path clip-path="url(#clip860)" d="M1790.44 1517.37 Q1786.83 1517.37 1785 1520.93 Q1783.2 1524.47 1783.2 1531.6 Q1783.2 1538.71 1785 1542.27 Q1786.83 1545.82 1790.44 1545.82 Q1794.08 1545.82 1795.88 1542.27 Q1797.71 1538.71 1797.71 1531.6 Q1797.71 1524.47 1795.88 1520.93 Q1794.08 1517.37 1790.44 1517.37 M1790.44 1513.66 Q1796.25 1513.66 1799.31 1518.27 Q1802.39 1522.85 1802.39 1531.6 Q1802.39 1540.33 1799.31 1544.94 Q1796.25 1549.52 1790.44 1549.52 Q1784.63 1549.52 1781.56 1544.94 Q1778.5 1540.33 1778.5 1531.6 Q1778.5 1522.85 1781.56 1518.27 Q1784.63 1513.66 1790.44 1513.66 Z" fill="#000000" fill-rule="nonzero" fill-opacity="1" /><path clip-path="url(#clip860)" d="M1820.61 1517.37 Q1817 1517.37 1815.17 1520.93 Q1813.36 1524.47 1813.36 1531.6 Q1813.36 1538.71 1815.17 1542.27 Q1817 1545.82 1820.61 1545.82 Q1824.24 1545.82 1826.05 1542.27 Q1827.87 1538.71 1827.87 1531.6 Q1827.87 1524.47 1826.05 1520.93 Q1824.24 1517.37 1820.61 1517.37 M1820.61 1513.66 Q1826.42 1513.66 1829.47 1518.27 Q1832.55 1522.85 1832.55 1531.6 Q1832.55 1540.33 1829.47 1544.94 Q1826.42 1549.52 1820.61 1549.52 Q1814.8 1549.52 1811.72 1544.94 Q1808.66 1540.33 1808.66 1531.6 Q1808.66 1522.85 1811.72 1518.27 Q1814.8 1513.66 1820.61 1513.66 Z" fill="#000000" fill-rule="nonzero" fill-opacity="1" /><path clip-path="url(#clip860)" d="M2239.62 1544.91 L2255.93 1544.91 L2255.93 1548.85 L2233.99 1548.85 L2233.99 1544.91 Q2236.65 1542.16 2241.24 1537.53 Q2245.84 1532.88 2247.02 1531.53 Q2249.27 1529.01 2250.15 1527.27 Q2251.05 1525.51 2251.05 1523.82 Q2251.05 1521.07 2249.11 1519.33 Q2247.18 1517.6 2244.08 1517.6 Q2241.88 1517.6 2239.43 1518.36 Q2237 1519.13 2234.22 1520.68 L2234.22 1515.95 Q2237.05 1514.82 2239.5 1514.24 Q2241.95 1513.66 2243.99 1513.66 Q2249.36 1513.66 2252.56 1516.35 Q2255.75 1519.03 2255.75 1523.52 Q2255.75 1525.65 2254.94 1527.57 Q2254.15 1529.47 2252.05 1532.07 Q2251.47 1532.74 2248.37 1535.95 Q2245.26 1539.15 2239.62 1544.91 Z" fill="#000000" fill-rule="nonzero" fill-opacity="1" /><path clip-path="url(#clip860)" d="M2275.75 1517.37 Q2272.14 1517.37 2270.31 1520.93 Q2268.5 1524.47 2268.5 1531.6 Q2268.5 1538.71 2270.31 1542.27 Q2272.14 1545.82 2275.75 1545.82 Q2279.38 1545.82 2281.19 1542.27 Q2283.02 1538.71 2283.02 1531.6 Q2283.02 1524.47 2281.19 1520.93 Q2279.38 1517.37 2275.75 1517.37 M2275.75 1513.66 Q2281.56 1513.66 2284.62 1518.27 Q2287.69 1522.85 2287.69 1531.6 Q2287.69 1540.33 2284.62 1544.94 Q2281.56 1549.52 2275.75 1549.52 Q2269.94 1549.52 2266.86 1544.94 Q2263.81 1540.33 2263.81 1531.6 Q2263.81 1522.85 2266.86 1518.27 Q2269.94 1513.66 2275.75 1513.66 Z" fill="#000000" fill-rule="nonzero" fill-opacity="1" /><path clip-path="url(#clip860)" d="M2305.91 1517.37 Q2302.3 1517.37 2300.47 1520.93 Q2298.67 1524.47 2298.67 1531.6 Q2298.67 1538.71 2300.47 1542.27 Q2302.3 1545.82 2305.91 1545.82 Q2309.55 1545.82 2311.35 1542.27 Q2313.18 1538.71 2313.18 1531.6 Q2313.18 1524.47 2311.35 1520.93 Q2309.55 1517.37 2305.91 1517.37 M2305.91 1513.66 Q2311.72 1513.66 2314.78 1518.27 Q2317.86 1522.85 2317.86 1531.6 Q2317.86 1540.33 2314.78 1544.94 Q2311.72 1549.52 2305.91 1549.52 Q2300.1 1549.52 2297.02 1544.94 Q2293.97 1540.33 2293.97 1531.6 Q2293.97 1522.85 2297.02 1518.27 Q2300.1 1513.66 2305.91 1513.66 Z" fill="#000000" fill-rule="nonzero" fill-opacity="1" /><path clip-path="url(#clip860)" d="M2336.07 1517.37 Q2332.46 1517.37 2330.63 1520.93 Q2328.83 1524.47 2328.83 1531.6 Q2328.83 1538.71 2330.63 1542.27 Q2332.46 1545.82 2336.07 1545.82 Q2339.71 1545.82 2341.51 1542.27 Q2343.34 1538.71 2343.34 1531.6 Q2343.34 1524.47 2341.51 1520.93 Q2339.71 1517.37 2336.07 1517.37 M2336.07 1513.66 Q2341.88 1513.66 2344.94 1518.27 Q2348.02 1522.85 2348.02 1531.6 Q2348.02 1540.33 2344.94 1544.94 Q2341.88 1549.52 2336.07 1549.52 Q2330.26 1549.52 2327.18 1544.94 Q2324.13 1540.33 2324.13 1531.6 Q2324.13 1522.85 2327.18 1518.27 Q2330.26 1513.66 2336.07 1513.66 Z" fill="#000000" fill-rule="nonzero" fill-opacity="1" /><polyline clip-path="url(#clip862)" style="stroke:#000000; stroke-linecap:round; stroke-linejoin:round; stroke-width:2; stroke-opacity:0.1; fill:none" points="170.857,1241.59 2352.76,1241.59 "/>
<polyline clip-path="url(#clip862)" style="stroke:#000000; stroke-linecap:round; stroke-linejoin:round; stroke-width:2; stroke-opacity:0.1; fill:none" points="170.857,973.882 2352.76,973.882 "/>
<polyline clip-path="url(#clip862)" style="stroke:#000000; stroke-linecap:round; stroke-linejoin:round; stroke-width:2; stroke-opacity:0.1; fill:none" points="170.857,706.171 2352.76,706.171 "/>
<polyline clip-path="url(#clip862)" style="stroke:#000000; stroke-linecap:round; stroke-linejoin:round; stroke-width:2; stroke-opacity:0.1; fill:none" points="170.857,438.46 2352.76,438.46 "/>
<polyline clip-path="url(#clip862)" style="stroke:#000000; stroke-linecap:round; stroke-linejoin:round; stroke-width:2; stroke-opacity:0.1; fill:none" points="170.857,170.749 2352.76,170.749 "/>
<polyline clip-path="url(#clip860)" style="stroke:#000000; stroke-linecap:round; stroke-linejoin:round; stroke-width:4; stroke-opacity:1; fill:none" points="170.857,1486.45 170.857,47.2441 "/>
<polyline clip-path="url(#clip860)" style="stroke:#000000; stroke-linecap:round; stroke-linejoin:round; stroke-width:4; stroke-opacity:1; fill:none" points="170.857,1241.59 189.755,1241.59 "/>
<polyline clip-path="url(#clip860)" style="stroke:#000000; stroke-linecap:round; stroke-linejoin:round; stroke-width:4; stroke-opacity:1; fill:none" points="170.857,973.882 189.755,973.882 "/>
<polyline clip-path="url(#clip860)" style="stroke:#000000; stroke-linecap:round; stroke-linejoin:round; stroke-width:4; stroke-opacity:1; fill:none" points="170.857,706.171 189.755,706.171 "/>
<polyline clip-path="url(#clip860)" style="stroke:#000000; stroke-linecap:round; stroke-linejoin:round; stroke-width:4; stroke-opacity:1; fill:none" points="170.857,438.46 189.755,438.46 "/>
<polyline clip-path="url(#clip860)" style="stroke:#000000; stroke-linecap:round; stroke-linejoin:round; stroke-width:4; stroke-opacity:1; fill:none" points="170.857,170.749 189.755,170.749 "/>
<path clip-path="url(#clip860)" d="M56.6171 1254.94 L72.9365 1254.94 L72.9365 1258.87 L50.9921 1258.87 L50.9921 1254.94 Q53.6541 1252.18 58.2375 1247.55 Q62.8439 1242.9 64.0245 1241.56 Q66.2698 1239.04 67.1494 1237.3 Q68.0522 1235.54 68.0522 1233.85 Q68.0522 1231.1 66.1078 1229.36 Q64.1865 1227.62 61.0847 1227.62 Q58.8856 1227.62 56.4319 1228.39 Q54.0014 1229.15 51.2236 1230.7 L51.2236 1225.98 Q54.0477 1224.85 56.5014 1224.27 Q58.955 1223.69 60.9921 1223.69 Q66.3624 1223.69 69.5568 1226.37 Q72.7513 1229.06 72.7513 1233.55 Q72.7513 1235.68 71.9411 1237.6 Q71.1541 1239.5 69.0476 1242.09 Q68.4689 1242.76 65.367 1245.98 Q62.2652 1249.17 56.6171 1254.94 Z" fill="#000000" fill-rule="nonzero" fill-opacity="1" /><path clip-path="url(#clip860)" d="M83.5614 1254.94 L91.2002 1254.94 L91.2002 1228.57 L82.8901 1230.24 L82.8901 1225.98 L91.1539 1224.31 L95.8298 1224.31 L95.8298 1254.94 L103.469 1254.94 L103.469 1258.87 L83.5614 1258.87 L83.5614 1254.94 Z" fill="#000000" fill-rule="nonzero" fill-opacity="1" /><path clip-path="url(#clip860)" d="M122.913 1227.39 Q119.302 1227.39 117.473 1230.96 Q115.668 1234.5 115.668 1241.63 Q115.668 1248.73 117.473 1252.3 Q119.302 1255.84 122.913 1255.84 Q126.547 1255.84 128.353 1252.3 Q130.182 1248.73 130.182 1241.63 Q130.182 1234.5 128.353 1230.96 Q126.547 1227.39 122.913 1227.39 M122.913 1223.69 Q128.723 1223.69 131.779 1228.3 Q134.857 1232.88 134.857 1241.63 Q134.857 1250.36 131.779 1254.96 Q128.723 1259.54 122.913 1259.54 Q117.103 1259.54 114.024 1254.96 Q110.969 1250.36 110.969 1241.63 Q110.969 1232.88 114.024 1228.3 Q117.103 1223.69 122.913 1223.69 Z" fill="#000000" fill-rule="nonzero" fill-opacity="1" /><path clip-path="url(#clip860)" d="M56.6171 987.227 L72.9365 987.227 L72.9365 991.162 L50.9921 991.162 L50.9921 987.227 Q53.6541 984.473 58.2375 979.843 Q62.8439 975.19 64.0245 973.848 Q66.2698 971.325 67.1494 969.589 Q68.0522 967.829 68.0522 966.139 Q68.0522 963.385 66.1078 961.649 Q64.1865 959.913 61.0847 959.913 Q58.8856 959.913 56.4319 960.677 Q54.0014 961.44 51.2236 962.991 L51.2236 958.269 Q54.0477 957.135 56.5014 956.556 Q58.955 955.978 60.9921 955.978 Q66.3624 955.978 69.5568 958.663 Q72.7513 961.348 72.7513 965.839 Q72.7513 967.968 71.9411 969.889 Q71.1541 971.788 69.0476 974.38 Q68.4689 975.051 65.367 978.269 Q62.2652 981.463 56.6171 987.227 Z" fill="#000000" fill-rule="nonzero" fill-opacity="1" /><path clip-path="url(#clip860)" d="M86.779 987.227 L103.098 987.227 L103.098 991.162 L81.154 991.162 L81.154 987.227 Q83.816 984.473 88.3993 979.843 Q93.0058 975.19 94.1863 973.848 Q96.4317 971.325 97.3113 969.589 Q98.2141 967.829 98.2141 966.139 Q98.2141 963.385 96.2697 961.649 Q94.3484 959.913 91.2465 959.913 Q89.0475 959.913 86.5938 960.677 Q84.1632 961.44 81.3855 962.991 L81.3855 958.269 Q84.2095 957.135 86.6632 956.556 Q89.1169 955.978 91.1539 955.978 Q96.5243 955.978 99.7187 958.663 Q102.913 961.348 102.913 965.839 Q102.913 967.968 102.103 969.889 Q101.316 971.788 99.2095 974.38 Q98.6308 975.051 95.5289 978.269 Q92.4271 981.463 86.779 987.227 Z" fill="#000000" fill-rule="nonzero" fill-opacity="1" /><path clip-path="url(#clip860)" d="M122.913 959.681 Q119.302 959.681 117.473 963.246 Q115.668 966.788 115.668 973.917 Q115.668 981.024 117.473 984.588 Q119.302 988.13 122.913 988.13 Q126.547 988.13 128.353 984.588 Q130.182 981.024 130.182 973.917 Q130.182 966.788 128.353 963.246 Q126.547 959.681 122.913 959.681 M122.913 955.978 Q128.723 955.978 131.779 960.584 Q134.857 965.167 134.857 973.917 Q134.857 982.644 131.779 987.25 Q128.723 991.834 122.913 991.834 Q117.103 991.834 114.024 987.25 Q110.969 982.644 110.969 973.917 Q110.969 965.167 114.024 960.584 Q117.103 955.978 122.913 955.978 Z" fill="#000000" fill-rule="nonzero" fill-opacity="1" /><path clip-path="url(#clip860)" d="M56.6171 719.516 L72.9365 719.516 L72.9365 723.451 L50.9921 723.451 L50.9921 719.516 Q53.6541 716.762 58.2375 712.132 Q62.8439 707.479 64.0245 706.137 Q66.2698 703.614 67.1494 701.877 Q68.0522 700.118 68.0522 698.428 Q68.0522 695.674 66.1078 693.938 Q64.1865 692.202 61.0847 692.202 Q58.8856 692.202 56.4319 692.965 Q54.0014 693.729 51.2236 695.28 L51.2236 690.558 Q54.0477 689.424 56.5014 688.845 Q58.955 688.266 60.9921 688.266 Q66.3624 688.266 69.5568 690.952 Q72.7513 693.637 72.7513 698.127 Q72.7513 700.257 71.9411 702.178 Q71.1541 704.076 69.0476 706.669 Q68.4689 707.34 65.367 710.558 Q62.2652 713.752 56.6171 719.516 Z" fill="#000000" fill-rule="nonzero" fill-opacity="1" /><path clip-path="url(#clip860)" d="M96.9178 704.817 Q100.274 705.535 102.149 707.803 Q104.047 710.072 104.047 713.405 Q104.047 718.521 100.529 721.322 Q97.0104 724.123 90.529 724.123 Q88.353 724.123 86.0382 723.683 Q83.7466 723.266 81.2929 722.41 L81.2929 717.896 Q83.2373 719.03 85.5521 719.609 Q87.8669 720.187 90.3901 720.187 Q94.7882 720.187 97.0798 718.451 Q99.3946 716.715 99.3946 713.405 Q99.3946 710.35 97.2419 708.637 Q95.1123 706.901 91.2928 706.901 L87.2651 706.901 L87.2651 703.058 L91.478 703.058 Q94.9271 703.058 96.7558 701.692 Q98.5845 700.303 98.5845 697.711 Q98.5845 695.049 96.6863 693.637 Q94.8113 692.202 91.2928 692.202 Q89.3715 692.202 87.1725 692.618 Q84.9734 693.035 82.3346 693.914 L82.3346 689.748 Q84.9966 689.007 87.3114 688.637 Q89.6493 688.266 91.7095 688.266 Q97.0335 688.266 100.135 690.697 Q103.237 693.104 103.237 697.225 Q103.237 700.095 101.594 702.086 Q99.9502 704.053 96.9178 704.817 Z" fill="#000000" fill-rule="nonzero" fill-opacity="1" /><path clip-path="url(#clip860)" d="M122.913 691.97 Q119.302 691.97 117.473 695.535 Q115.668 699.076 115.668 706.206 Q115.668 713.313 117.473 716.877 Q119.302 720.419 122.913 720.419 Q126.547 720.419 128.353 716.877 Q130.182 713.313 130.182 706.206 Q130.182 699.076 128.353 695.535 Q126.547 691.97 122.913 691.97 M122.913 688.266 Q128.723 688.266 131.779 692.873 Q134.857 697.456 134.857 706.206 Q134.857 714.933 131.779 719.539 Q128.723 724.123 122.913 724.123 Q117.103 724.123 114.024 719.539 Q110.969 714.933 110.969 706.206 Q110.969 697.456 114.024 692.873 Q117.103 688.266 122.913 688.266 Z" fill="#000000" fill-rule="nonzero" fill-opacity="1" /><path clip-path="url(#clip860)" d="M56.6171 451.805 L72.9365 451.805 L72.9365 455.74 L50.9921 455.74 L50.9921 451.805 Q53.6541 449.05 58.2375 444.421 Q62.8439 439.768 64.0245 438.426 Q66.2698 435.902 67.1494 434.166 Q68.0522 432.407 68.0522 430.717 Q68.0522 427.963 66.1078 426.226 Q64.1865 424.49 61.0847 424.49 Q58.8856 424.49 56.4319 425.254 Q54.0014 426.018 51.2236 427.569 L51.2236 422.847 Q54.0477 421.713 56.5014 421.134 Q58.955 420.555 60.9921 420.555 Q66.3624 420.555 69.5568 423.24 Q72.7513 425.926 72.7513 430.416 Q72.7513 432.546 71.9411 434.467 Q71.1541 436.365 69.0476 438.958 Q68.4689 439.629 65.367 442.847 Q62.2652 446.041 56.6171 451.805 Z" fill="#000000" fill-rule="nonzero" fill-opacity="1" /><path clip-path="url(#clip860)" d="M95.5984 425.254 L83.7929 443.703 L95.5984 443.703 L95.5984 425.254 M94.3715 421.18 L100.251 421.18 L100.251 443.703 L105.182 443.703 L105.182 447.592 L100.251 447.592 L100.251 455.74 L95.5984 455.74 L95.5984 447.592 L79.9966 447.592 L79.9966 443.078 L94.3715 421.18 Z" fill="#000000" fill-rule="nonzero" fill-opacity="1" /><path clip-path="url(#clip860)" d="M122.913 424.259 Q119.302 424.259 117.473 427.824 Q115.668 431.365 115.668 438.495 Q115.668 445.601 117.473 449.166 Q119.302 452.708 122.913 452.708 Q126.547 452.708 128.353 449.166 Q130.182 445.601 130.182 438.495 Q130.182 431.365 128.353 427.824 Q126.547 424.259 122.913 424.259 M122.913 420.555 Q128.723 420.555 131.779 425.162 Q134.857 429.745 134.857 438.495 Q134.857 447.222 131.779 451.828 Q128.723 456.412 122.913 456.412 Q117.103 456.412 114.024 451.828 Q110.969 447.222 110.969 438.495 Q110.969 429.745 114.024 425.162 Q117.103 420.555 122.913 420.555 Z" fill="#000000" fill-rule="nonzero" fill-opacity="1" /><path clip-path="url(#clip860)" d="M56.6171 184.094 L72.9365 184.094 L72.9365 188.029 L50.9921 188.029 L50.9921 184.094 Q53.6541 181.339 58.2375 176.71 Q62.8439 172.057 64.0245 170.714 Q66.2698 168.191 67.1494 166.455 Q68.0522 164.696 68.0522 163.006 Q68.0522 160.251 66.1078 158.515 Q64.1865 156.779 61.0847 156.779 Q58.8856 156.779 56.4319 157.543 Q54.0014 158.307 51.2236 159.858 L51.2236 155.136 Q54.0477 154.001 56.5014 153.423 Q58.955 152.844 60.9921 152.844 Q66.3624 152.844 69.5568 155.529 Q72.7513 158.214 72.7513 162.705 Q72.7513 164.835 71.9411 166.756 Q71.1541 168.654 69.0476 171.247 Q68.4689 171.918 65.367 175.136 Q62.2652 178.33 56.6171 184.094 Z" fill="#000000" fill-rule="nonzero" fill-opacity="1" /><path clip-path="url(#clip860)" d="M82.7975 153.469 L101.154 153.469 L101.154 157.404 L87.0799 157.404 L87.0799 165.876 Q88.0984 165.529 89.1169 165.367 Q90.1354 165.182 91.1539 165.182 Q96.941 165.182 100.321 168.353 Q103.7 171.525 103.7 176.941 Q103.7 182.52 100.228 185.622 Q96.7558 188.7 90.4364 188.7 Q88.2604 188.7 85.9919 188.33 Q83.7466 187.96 81.3392 187.219 L81.3392 182.52 Q83.4225 183.654 85.6447 184.21 Q87.8669 184.765 90.3438 184.765 Q94.3484 184.765 96.6863 182.659 Q99.0243 180.552 99.0243 176.941 Q99.0243 173.33 96.6863 171.224 Q94.3484 169.117 90.3438 169.117 Q88.4688 169.117 86.5938 169.534 Q84.7419 169.95 82.7975 170.83 L82.7975 153.469 Z" fill="#000000" fill-rule="nonzero" fill-opacity="1" /><path clip-path="url(#clip860)" d="M122.913 156.548 Q119.302 156.548 117.473 160.113 Q115.668 163.654 115.668 170.784 Q115.668 177.89 117.473 181.455 Q119.302 184.997 122.913 184.997 Q126.547 184.997 128.353 181.455 Q130.182 177.89 130.182 170.784 Q130.182 163.654 128.353 160.113 Q126.547 156.548 122.913 156.548 M122.913 152.844 Q128.723 152.844 131.779 157.451 Q134.857 162.034 134.857 170.784 Q134.857 179.511 131.779 184.117 Q128.723 188.7 122.913 188.7 Q117.103 188.7 114.024 184.117 Q110.969 179.511 110.969 170.784 Q110.969 162.034 114.024 157.451 Q117.103 152.844 122.913 152.844 Z" fill="#000000" fill-rule="nonzero" fill-opacity="1" /><polyline clip-path="url(#clip862)" style="stroke:#009af9; stroke-linecap:round; stroke-linejoin:round; stroke-width:4; stroke-opacity:1; fill:none" points="232.609,87.9763 233.638,538.145 234.668,756.01 235.697,877.947 236.726,954.738 237.755,1008.4 238.784,1048.96 239.814,1081.2 240.843,1107.66 241.872,1129.85 242.901,1148.8 243.93,1165.25 244.96,1179.73 245.989,1192.67 247.018,1204.39 248.047,1215.14 249.076,1225.1 250.106,1234.42 251.135,1243.23 252.164,1251.6 253.193,1259.61 254.222,1267.31 255.252,1274.74 256.281,1281.91 257.31,1288.85 258.339,1295.57 259.368,1302.07 260.398,1308.35 261.427,1314.41 262.456,1320.25 263.485,1325.85 264.514,1331.23 265.544,1336.37 266.573,1341.28 267.602,1345.95 268.631,1350.4 269.66,1354.61 270.69,1358.61 271.719,1362.39 272.748,1365.96 273.777,1369.33 274.806,1372.51 275.836,1375.51 276.865,1378.34 277.894,1381 278.923,1383.51 279.952,1385.87 280.982,1388.09 282.011,1390.19 283.04,1392.16 284.069,1394.02 285.098,1395.77 286.128,1397.42 287.157,1398.97 288.186,1400.44 289.215,1401.82 290.244,1403.13 291.274,1404.36 292.303,1405.53 293.332,1406.63 294.361,1407.67 295.39,1408.65 296.42,1409.59 297.449,1410.47 298.478,1411.31 299.507,1412.1 300.536,1412.85 301.565,1413.56 302.595,1414.24 303.624,1414.88 304.653,1415.49 305.682,1416.07 306.711,1416.62 307.741,1417.15 308.77,1417.65 309.799,1418.12 310.828,1418.58 311.857,1419.01 312.887,1419.42 313.916,1419.81 314.945,1420.19 315.974,1420.55 317.003,1420.89 318.033,1421.22 319.062,1421.53 320.091,1421.83 321.12,1422.12 322.149,1422.39 323.179,1422.66 324.208,1422.91 325.237,1423.15 326.266,1423.38 327.295,1423.61 328.325,1423.82 329.354,1424.03 330.383,1424.22 331.412,1424.41 332.441,1424.6 333.471,1424.77 334.5,1424.94 335.529,1425.1 336.558,1425.26 337.587,1425.41 338.617,1425.56 339.646,1425.7 340.675,1425.84 341.704,1425.97 342.733,1426.09 343.763,1426.22 344.792,1426.34 345.821,1426.45 346.85,1426.56 347.879,1426.67 348.909,1426.77 349.938,1426.87 350.967,1426.97 351.996,1427.07 353.025,1427.16 354.055,1427.25 355.084,1427.34 356.113,1427.42 357.142,1427.5 358.171,1427.58 359.201,1427.66 360.23,1427.73 361.259,1427.81 362.288,1427.88 363.317,1427.95 364.347,1428.01 365.376,1428.08 366.405,1428.14 367.434,1428.21 368.463,1428.27 369.493,1428.33 370.522,1428.38 371.551,1428.44 372.58,1428.5 373.609,1428.55 374.639,1428.6 375.668,1428.65 376.697,1428.7 377.726,1428.75 378.755,1428.8 379.784,1428.85 380.814,1428.89 381.843,1428.94 382.872,1428.98 383.901,1429.03 384.93,1429.07 385.96,1429.11 386.989,1429.15 388.018,1429.19 389.047,1429.23 390.076,1429.27 391.106,1429.31 392.135,1429.34 393.164,1429.38 394.193,1429.42 395.222,1429.45 396.252,1429.49 397.281,1429.52 398.31,1429.55 399.339,1429.59 400.368,1429.62 401.398,1429.65 402.427,1429.68 403.456,1429.71 404.485,1429.74 405.514,1429.77 406.544,1429.8 407.573,1429.83 408.602,1429.86 409.631,1429.89 410.66,1429.91 411.69,1429.94 412.719,1429.97 413.748,1429.99 414.777,1430.02 415.806,1430.05 416.836,1430.07 417.865,1430.1 418.894,1430.12 419.923,1430.15 420.952,1430.17 421.982,1430.19 423.011,1430.22 424.04,1430.24 425.069,1430.26 426.098,1430.29 427.128,1430.31 428.157,1430.33 429.186,1430.35 430.215,1430.37 431.244,1430.4 432.274,1430.42 433.303,1430.44 434.332,1430.46 435.361,1430.48 436.39,1430.5 437.42,1430.52 438.449,1430.54 439.478,1430.56 440.507,1430.58 441.536,1430.6 442.566,1430.62 443.595,1430.63 444.624,1430.65 445.653,1430.67 446.682,1430.69 447.712,1430.71 448.741,1430.73 449.77,1430.74 450.799,1430.76 451.828,1430.78 452.858,1430.8 453.887,1430.81 454.916,1430.83 455.945,1430.85 456.974,1430.86 458.003,1430.88 459.033,1430.9 460.062,1430.91 461.091,1430.93 462.12,1430.94 463.149,1430.96 464.179,1430.98 465.208,1430.99 466.237,1431.01 467.266,1431.02 468.295,1431.04 469.325,1431.05 470.354,1431.07 471.383,1431.08 472.412,1431.1 473.441,1431.11 474.471,1431.13 475.5,1431.14 476.529,1431.16 477.558,1431.17 478.587,1431.18 479.617,1431.2 480.646,1431.21 481.675,1431.23 482.704,1431.24 483.733,1431.25 484.763,1431.27 485.792,1431.28 486.821,1431.29 487.85,1431.31 488.879,1431.32 489.909,1431.33 490.938,1431.35 491.967,1431.36 492.996,1431.37 494.025,1431.39 495.055,1431.4 496.084,1431.41 497.113,1431.42 498.142,1431.44 499.171,1431.45 500.201,1431.46 501.23,1431.47 502.259,1431.49 503.288,1431.5 504.317,1431.51 505.347,1431.52 506.376,1431.53 507.405,1431.55 508.434,1431.56 509.463,1431.57 510.493,1431.58 511.522,1431.59 512.551,1431.6 513.58,1431.61 514.609,1431.63 515.639,1431.64 516.668,1431.65 517.697,1431.66 518.726,1431.67 519.755,1431.68 520.785,1431.69 521.814,1431.7 522.843,1431.72 523.872,1431.73 524.901,1431.74 525.931,1431.75 526.96,1431.76 527.989,1431.77 529.018,1431.78 530.047,1431.79 531.077,1431.8 532.106,1431.81 533.135,1431.82 534.164,1431.83 535.193,1431.84 536.222,1431.85 537.252,1431.86 538.281,1431.87 539.31,1431.88 540.339,1431.89 541.368,1431.9 542.398,1431.91 543.427,1431.92 544.456,1431.93 545.485,1431.94 546.514,1431.95 547.544,1431.96 548.573,1431.97 549.602,1431.98 550.631,1431.99 551.66,1432 552.69,1432.01 553.719,1432.02 554.748,1432.03 555.777,1432.04 556.806,1432.05 557.836,1432.06 558.865,1432.06 559.894,1432.07 560.923,1432.08 561.952,1432.09 562.982,1432.1 564.011,1432.11 565.04,1432.12 566.069,1432.13 567.098,1432.14 568.128,1432.15 569.157,1432.15 570.186,1432.16 571.215,1432.17 572.244,1432.18 573.274,1432.19 574.303,1432.2 575.332,1432.21 576.361,1432.22 577.39,1432.22 578.42,1432.23 579.449,1432.24 580.478,1432.25 581.507,1432.26 582.536,1432.27 583.566,1432.27 584.595,1432.28 585.624,1432.29 586.653,1432.3 587.682,1432.31 588.712,1432.32 589.741,1432.32 590.77,1432.33 591.799,1432.34 592.828,1432.35 593.858,1432.36 594.887,1432.36 595.916,1432.37 596.945,1432.38 597.974,1432.39 599.004,1432.4 600.033,1432.4 601.062,1432.41 602.091,1432.42 603.12,1432.43 604.15,1432.43 605.179,1432.44 606.208,1432.45 607.237,1432.46 608.266,1432.47 609.296,1432.47 610.325,1432.48 611.354,1432.49 612.383,1432.5 613.412,1432.5 614.441,1432.51 615.471,1432.52 616.5,1432.52 617.529,1432.53 618.558,1432.54 619.587,1432.55 620.617,1432.55 621.646,1432.56 622.675,1432.57 623.704,1432.58 624.733,1432.58 625.763,1432.59 626.792,1432.6 627.821,1432.6 628.85,1432.61 629.879,1432.62 630.909,1432.63 631.938,1432.63 632.967,1432.64 633.996,1432.65 635.025,1432.65 636.055,1432.66 637.084,1432.67 638.113,1432.67 639.142,1432.68 640.171,1432.69 641.201,1432.7 642.23,1432.7 643.259,1432.71 644.288,1432.72 645.317,1432.72 646.347,1432.73 647.376,1432.74 648.405,1432.74 649.434,1432.75 650.463,1432.76 651.493,1432.76 652.522,1432.77 653.551,1432.78 654.58,1432.78 655.609,1432.79 656.639,1432.8 657.668,1432.8 658.697,1432.81 659.726,1432.81 660.755,1432.82 661.785,1432.83 662.814,1432.83 663.843,1432.84 664.872,1432.85 665.901,1432.85 666.931,1432.86 667.96,1432.87 668.989,1432.87 670.018,1432.88 671.047,1432.88 672.077,1432.89 673.106,1432.9 674.135,1432.9 675.164,1432.91 676.193,1432.92 677.223,1432.92 678.252,1432.93 679.281,1432.93 680.31,1432.94 681.339,1432.95 682.369,1432.95 683.398,1432.96 684.427,1432.96 685.456,1432.97 686.485,1432.98 687.515,1432.98 688.544,1432.99 689.573,1432.99 690.602,1433 691.631,1433.01 692.66,1433.01 693.69,1433.02 694.719,1433.02 695.748,1433.03 696.777,1433.04 697.806,1433.04 698.836,1433.05 699.865,1433.05 700.894,1433.06 701.923,1433.07 702.952,1433.07 703.982,1433.08 705.011,1433.08 706.04,1433.09 707.069,1433.09 708.098,1433.1 709.128,1433.11 710.157,1433.11 711.186,1433.12 712.215,1433.12 713.244,1433.13 714.274,1433.13 715.303,1433.14 716.332,1433.14 717.361,1433.15 718.39,1433.16 719.42,1433.16 720.449,1433.17 721.478,1433.17 722.507,1433.18 723.536,1433.18 724.566,1433.19 725.595,1433.19 726.624,1433.2 727.653,1433.21 728.682,1433.21 729.712,1433.22 730.741,1433.22 731.77,1433.23 732.799,1433.23 733.828,1433.24 734.858,1433.24 735.887,1433.25 736.916,1433.25 737.945,1433.26 738.974,1433.26 740.004,1433.27 741.033,1433.28 742.062,1433.28 743.091,1433.29 744.12,1433.29 745.15,1433.3 746.179,1433.3 747.208,1433.31 748.237,1433.31 749.266,1433.32 750.296,1433.32 751.325,1433.33 752.354,1433.33 753.383,1433.34 754.412,1433.34 755.442,1433.35 756.471,1433.35 757.5,1433.36 758.529,1433.36 759.558,1433.37 760.588,1433.37 761.617,1433.38 762.646,1433.38 763.675,1433.39 764.704,1433.39 765.734,1433.4 766.763,1433.4 767.792,1433.41 768.821,1433.41 769.85,1433.42 770.88,1433.42 771.909,1433.43 772.938,1433.43 773.967,1433.44 774.996,1433.44 776.025,1433.45 777.055,1433.45 778.084,1433.46 779.113,1433.46 780.142,1433.47 781.171,1433.47 782.201,1433.48 783.23,1433.48 784.259,1433.49 785.288,1433.49 786.317,1433.5 787.347,1433.5 788.376,1433.51 789.405,1433.51 790.434,1433.52 791.463,1433.52 792.493,1433.53 793.522,1433.53 794.551,1433.54 795.58,1433.54 796.609,1433.55 797.639,1433.55 798.668,1433.56 799.697,1433.56 800.726,1433.57 801.755,1433.57 802.785,1433.57 803.814,1433.58 804.843,1433.58 805.872,1433.59 806.901,1433.59 807.931,1433.6 808.96,1433.6 809.989,1433.61 811.018,1433.61 812.047,1433.62 813.077,1433.62 814.106,1433.63 815.135,1433.63 816.164,1433.64 817.193,1433.64 818.223,1433.64 819.252,1433.65 820.281,1433.65 821.31,1433.66 822.339,1433.66 823.369,1433.67 824.398,1433.67 825.427,1433.68 826.456,1433.68 827.485,1433.69 828.515,1433.69 829.544,1433.69 830.573,1433.7 831.602,1433.7 832.631,1433.71 833.661,1433.71 834.69,1433.72 835.719,1433.72 836.748,1433.73 837.777,1433.73 838.807,1433.74 839.836,1433.74 840.865,1433.74 841.894,1433.75 842.923,1433.75 843.953,1433.76 844.982,1433.76 846.011,1433.77 847.04,1433.77 848.069,1433.78 849.099,1433.78 850.128,1433.78 851.157,1433.79 852.186,1433.79 853.215,1433.8 854.244,1433.8 855.274,1433.81 856.303,1433.81 857.332,1433.81 858.361,1433.82 859.39,1433.82 860.42,1433.83 861.449,1433.83 862.478,1433.84 863.507,1433.84 864.536,1433.84 865.566,1433.85 866.595,1433.85 867.624,1433.86 868.653,1433.86 869.682,1433.87 870.712,1433.87 871.741,1433.87 872.77,1433.88 873.799,1433.88 874.828,1433.89 875.858,1433.89 876.887,1433.9 877.916,1433.9 878.945,1433.9 879.974,1433.91 881.004,1433.91 882.033,1433.92 883.062,1433.92 884.091,1433.93 885.12,1433.93 886.15,1433.93 887.179,1433.94 888.208,1433.94 889.237,1433.95 890.266,1433.95 891.296,1433.96 892.325,1433.96 893.354,1433.96 894.383,1433.97 895.412,1433.97 896.442,1433.98 897.471,1433.98 898.5,1433.98 899.529,1433.99 900.558,1433.99 901.588,1434 902.617,1434 903.646,1434.01 904.675,1434.01 905.704,1434.01 906.734,1434.02 907.763,1434.02 908.792,1434.03 909.821,1434.03 910.85,1434.03 911.88,1434.04 912.909,1434.04 913.938,1434.05 914.967,1434.05 915.996,1434.05 917.026,1434.06 918.055,1434.06 919.084,1434.07 920.113,1434.07 921.142,1434.07 922.172,1434.08 923.201,1434.08 924.23,1434.09 925.259,1434.09 926.288,1434.09 927.318,1434.1 928.347,1434.1 929.376,1434.11 930.405,1434.11 931.434,1434.11 932.463,1434.12 933.493,1434.12 934.522,1434.13 935.551,1434.13 936.58,1434.13 937.609,1434.14 938.639,1434.14 939.668,1434.15 940.697,1434.15 941.726,1434.15 942.755,1434.16 943.785,1434.16 944.814,1434.17 945.843,1434.17 946.872,1434.17 947.901,1434.18 948.931,1434.18 949.96,1434.19 950.989,1434.19 952.018,1434.19 953.047,1434.2 954.077,1434.2 955.106,1434.21 956.135,1434.21 957.164,1434.21 958.193,1434.22 959.223,1434.22 960.252,1434.23 961.281,1434.23 962.31,1434.23 963.339,1434.24 964.369,1434.24 965.398,1434.25 966.427,1434.25 967.456,1434.25 968.485,1434.26 969.515,1434.26 970.544,1434.26 971.573,1434.27 972.602,1434.27 973.631,1434.28 974.661,1434.28 975.69,1434.28 976.719,1434.29 977.748,1434.29 978.777,1434.3 979.807,1434.3 980.836,1434.3 981.865,1434.31 982.894,1434.31 983.923,1434.31 984.953,1434.32 985.982,1434.32 987.011,1434.33 988.04,1434.33 989.069,1434.33 990.099,1434.34 991.128,1434.34 992.157,1434.35 993.186,1434.35 994.215,1434.35 995.245,1434.36 996.274,1434.36 997.303,1434.36 998.332,1434.37 999.361,1434.37 1000.39,1434.38 1001.42,1434.38 1002.45,1434.38 1003.48,1434.39 1004.51,1434.39 1005.54,1434.39 1006.57,1434.4 1007.59,1434.4 1008.62,1434.41 1009.65,1434.41 1010.68,1434.41 1011.71,1434.42 1012.74,1434.42 1013.77,1434.42 1014.8,1434.43 1015.83,1434.43 1016.86,1434.44 1017.89,1434.44 1018.92,1434.44 1019.95,1434.45 1020.97,1434.45 1022,1434.45 1023.03,1434.46 1024.06,1434.46 1025.09,1434.47 1026.12,1434.47 1027.15,1434.47 1028.18,1434.48 1029.21,1434.48 1030.24,1434.48 1031.27,1434.49 1032.3,1434.49 1033.32,1434.5 1034.35,1434.5 1035.38,1434.5 1036.41,1434.51 1037.44,1434.51 1038.47,1434.51 1039.5,1434.52 1040.53,1434.52 1041.56,1434.53 1042.59,1434.53 1043.62,1434.53 1044.65,1434.54 1045.68,1434.54 1046.7,1434.54 1047.73,1434.55 1048.76,1434.55 1049.79,1434.56 1050.82,1434.56 1051.85,1434.56 1052.88,1434.57 1053.91,1434.57 1054.94,1434.57 1055.97,1434.58 1057,1434.58 1058.03,1434.59 1059.05,1434.59 1060.08,1434.59 1061.11,1434.6 1062.14,1434.6 1063.17,1434.6 1064.2,1434.61 1065.23,1434.61 1066.26,1434.61 1067.29,1434.62 1068.32,1434.62 1069.35,1434.63 1070.38,1434.63 1071.41,1434.63 1072.43,1434.64 1073.46,1434.64 1074.49,1434.64 1075.52,1434.65 1076.55,1434.65 1077.58,1434.65 1078.61,1434.66 1079.64,1434.66 1080.67,1434.67 1081.7,1434.67 1082.73,1434.67 1083.76,1434.68 1084.78,1434.68 1085.81,1434.68 1086.84,1434.69 1087.87,1434.69 1088.9,1434.7 1089.93,1434.7 1090.96,1434.7 1091.99,1434.71 1093.02,1434.71 1094.05,1434.71 1095.08,1434.72 1096.11,1434.72 1097.14,1434.72 1098.16,1434.73 1099.19,1434.73 1100.22,1434.74 1101.25,1434.74 1102.28,1434.74 1103.31,1434.75 1104.34,1434.75 1105.37,1434.75 1106.4,1434.76 1107.43,1434.76 1108.46,1434.76 1109.49,1434.77 1110.51,1434.77 1111.54,1434.78 1112.57,1434.78 1113.6,1434.78 1114.63,1434.79 1115.66,1434.79 1116.69,1434.79 1117.72,1434.8 1118.75,1434.8 1119.78,1434.8 1120.81,1434.81 1121.84,1434.81 1122.87,1434.82 1123.89,1434.82 1124.92,1434.82 1125.95,1434.83 1126.98,1434.83 1128.01,1434.83 1129.04,1434.84 1130.07,1434.84 1131.1,1434.84 1132.13,1434.85 1133.16,1434.85 1134.19,1434.86 1135.22,1434.86 1136.24,1434.86 1137.27,1434.87 1138.3,1434.87 1139.33,1434.87 1140.36,1434.88 1141.39,1434.88 1142.42,1434.88 1143.45,1434.89 1144.48,1434.89 1145.51,1434.9 1146.54,1434.9 1147.57,1434.9 1148.59,1434.91 1149.62,1434.91 1150.65,1434.91 1151.68,1434.92 1152.71,1434.92 1153.74,1434.92 1154.77,1434.93 1155.8,1434.93 1156.83,1434.94 1157.86,1434.94 1158.89,1434.94 1159.92,1434.95 1160.95,1434.95 1161.97,1434.95 1163,1434.96 1164.03,1434.96 1165.06,1434.96 1166.09,1434.97 1167.12,1434.97 1168.15,1434.98 1169.18,1434.98 1170.21,1434.98 1171.24,1434.99 1172.27,1434.99 1173.3,1434.99 1174.32,1435 1175.35,1435 1176.38,1435 1177.41,1435.01 1178.44,1435.01 1179.47,1435.02 1180.5,1435.02 1181.53,1435.02 1182.56,1435.03 1183.59,1435.03 1184.62,1435.03 1185.65,1435.04 1186.68,1435.04 1187.7,1435.04 1188.73,1435.05 1189.76,1435.05 1190.79,1435.06 1191.82,1435.06 1192.85,1435.06 1193.88,1435.07 1194.91,1435.07 1195.94,1435.07 1196.97,1435.08 1198,1435.08 1199.03,1435.09 1200.05,1435.09 1201.08,1435.09 1202.11,1435.1 1203.14,1435.1 1204.17,1435.1 1205.2,1435.11 1206.23,1435.11 1207.26,1435.11 1208.29,1435.12 1209.32,1435.12 1210.35,1435.13 1211.38,1435.13 1212.41,1435.13 1213.43,1435.14 1214.46,1435.14 1215.49,1435.14 1216.52,1435.15 1217.55,1435.15 1218.58,1435.16 1219.61,1435.16 1220.64,1435.16 1221.67,1435.17 1222.7,1435.17 1223.73,1435.17 1224.76,1435.18 1225.78,1435.18 1226.81,1435.19 1227.84,1435.19 1228.87,1435.19 1229.9,1435.2 1230.93,1435.2 1231.96,1435.2 1232.99,1435.21 1234.02,1435.21 1235.05,1435.21 1236.08,1435.22 1237.11,1435.22 1238.14,1435.23 1239.16,1435.23 1240.19,1435.23 1241.22,1435.24 1242.25,1435.24 1243.28,1435.24 1244.31,1435.25 1245.34,1435.25 1246.37,1435.26 1247.4,1435.26 1248.43,1435.26 1249.46,1435.27 1250.49,1435.27 1251.51,1435.27 1252.54,1435.28 1253.57,1435.28 1254.6,1435.29 1255.63,1435.29 1256.66,1435.29 1257.69,1435.3 1258.72,1435.3 1259.75,1435.31 1260.78,1435.31 1261.81,1435.31 1262.84,1435.32 1263.87,1435.32 1264.89,1435.32 1265.92,1435.33 1266.95,1435.33 1267.98,1435.34 1269.01,1435.34 1270.04,1435.34 1271.07,1435.35 1272.1,1435.35 1273.13,1435.35 1274.16,1435.36 1275.19,1435.36 1276.22,1435.37 1277.24,1435.37 1278.27,1435.37 1279.3,1435.38 1280.33,1435.38 1281.36,1435.39 1282.39,1435.39 1283.42,1435.39 1284.45,1435.4 1285.48,1435.4 1286.51,1435.4 1287.54,1435.41 1288.57,1435.41 1289.59,1435.42 1290.62,1435.42 1291.65,1435.42 1292.68,1435.43 1293.71,1435.43 1294.74,1435.44 1295.77,1435.44 1296.8,1435.44 1297.83,1435.45 1298.86,1435.45 1299.89,1435.46 1300.92,1435.46 1301.95,1435.46 1302.97,1435.47 1304,1435.47 1305.03,1435.48 1306.06,1435.48 1307.09,1435.48 1308.12,1435.49 1309.15,1435.49 1310.18,1435.5 1311.21,1435.5 1312.24,1435.5 1313.27,1435.51 1314.3,1435.51 1315.32,1435.52 1316.35,1435.52 1317.38,1435.52 1318.41,1435.53 1319.44,1435.53 1320.47,1435.54 1321.5,1435.54 1322.53,1435.54 1323.56,1435.55 1324.59,1435.55 1325.62,1435.56 1326.65,1435.56 1327.68,1435.56 1328.7,1435.57 1329.73,1435.57 1330.76,1435.58 1331.79,1435.58 1332.82,1435.58 1333.85,1435.59 1334.88,1435.59 1335.91,1435.6 1336.94,1435.6 1337.97,1435.6 1339,1435.61 1340.03,1435.61 1341.05,1435.62 1342.08,1435.62 1343.11,1435.62 1344.14,1435.63 1345.17,1435.63 1346.2,1435.64 1347.23,1435.64 1348.26,1435.65 1349.29,1435.65 1350.32,1435.65 1351.35,1435.66 1352.38,1435.66 1353.41,1435.67 1354.43,1435.67 1355.46,1435.67 1356.49,1435.68 1357.52,1435.68 1358.55,1435.69 1359.58,1435.69 1360.61,1435.7 1361.64,1435.7 1362.67,1435.7 1363.7,1435.71 1364.73,1435.71 1365.76,1435.72 1366.78,1435.72 1367.81,1435.73 1368.84,1435.73 1369.87,1435.73 1370.9,1435.74 1371.93,1435.74 1372.96,1435.75 1373.99,1435.75 1375.02,1435.76 1376.05,1435.76 1377.08,1435.76 1378.11,1435.77 1379.14,1435.77 1380.16,1435.78 1381.19,1435.78 1382.22,1435.79 1383.25,1435.79 1384.28,1435.79 1385.31,1435.8 1386.34,1435.8 1387.37,1435.81 1388.4,1435.81 1389.43,1435.82 1390.46,1435.82 1391.49,1435.83 1392.51,1435.83 1393.54,1435.83 1394.57,1435.84 1395.6,1435.84 1396.63,1435.85 1397.66,1435.85 1398.69,1435.86 1399.72,1435.86 1400.75,1435.87 1401.78,1435.87 1402.81,1435.87 1403.84,1435.88 1404.87,1435.88 1405.89,1435.89 1406.92,1435.89 1407.95,1435.9 1408.98,1435.9 1410.01,1435.91 1411.04,1435.91 1412.07,1435.92 1413.1,1435.92 1414.13,1435.92 1415.16,1435.93 1416.19,1435.93 1417.22,1435.94 1418.24,1435.94 1419.27,1435.95 1420.3,1435.95 1421.33,1435.96 1422.36,1435.96 1423.39,1435.97 1424.42,1435.97 1425.45,1435.98 1426.48,1435.98 1427.51,1435.99 1428.54,1435.99 1429.57,1436 1430.6,1436 1431.62,1436 1432.65,1436.01 1433.68,1436.01 1434.71,1436.02 1435.74,1436.02 1436.77,1436.03 1437.8,1436.03 1438.83,1436.04 1439.86,1436.04 1440.89,1436.05 1441.92,1436.05 1442.95,1436.06 1443.97,1436.06 1445,1436.07 1446.03,1436.07 1447.06,1436.08 1448.09,1436.08 1449.12,1436.09 1450.15,1436.09 1451.18,1436.1 1452.21,1436.1 1453.24,1436.11 1454.27,1436.11 1455.3,1436.12 1456.32,1436.12 1457.35,1436.13 1458.38,1436.13 1459.41,1436.14 1460.44,1436.14 1461.47,1436.15 1462.5,1436.15 1463.53,1436.16 1464.56,1436.16 1465.59,1436.17 1466.62,1436.17 1467.65,1436.18 1468.68,1436.18 1469.7,1436.19 1470.73,1436.19 1471.76,1436.2 1472.79,1436.2 1473.82,1436.21 1474.85,1436.21 1475.88,1436.22 1476.91,1436.22 1477.94,1436.23 1478.97,1436.23 1480,1436.24 1481.03,1436.25 1482.05,1436.25 1483.08,1436.26 1484.11,1436.26 1485.14,1436.27 1486.17,1436.27 1487.2,1436.28 1488.23,1436.28 1489.26,1436.29 1490.29,1436.29 1491.32,1436.3 1492.35,1436.3 1493.38,1436.31 1494.41,1436.32 1495.43,1436.32 1496.46,1436.33 1497.49,1436.33 1498.52,1436.34 1499.55,1436.34 1500.58,1436.35 1501.61,1436.35 1502.64,1436.36 1503.67,1436.36 1504.7,1436.37 1505.73,1436.38 1506.76,1436.38 1507.78,1436.39 1508.81,1436.39 1509.84,1436.4 1510.87,1436.4 1511.9,1436.41 1512.93,1436.42 1513.96,1436.42 1514.99,1436.43 1516.02,1436.43 1517.05,1436.44 1518.08,1436.44 1519.11,1436.45 1520.14,1436.46 1521.16,1436.46 1522.19,1436.47 1523.22,1436.47 1524.25,1436.48 1525.28,1436.49 1526.31,1436.49 1527.34,1436.5 1528.37,1436.5 1529.4,1436.51 1530.43,1436.51 1531.46,1436.52 1532.49,1436.53 1533.51,1436.53 1534.54,1436.54 1535.57,1436.54 1536.6,1436.55 1537.63,1436.56 1538.66,1436.56 1539.69,1436.57 1540.72,1436.58 1541.75,1436.58 1542.78,1436.59 1543.81,1436.59 1544.84,1436.6 1545.87,1436.61 1546.89,1436.61 1547.92,1436.62 1548.95,1436.62 1549.98,1436.63 1551.01,1436.64 1552.04,1436.64 1553.07,1436.65 1554.1,1436.66 1555.13,1436.66 1556.16,1436.67 1557.19,1436.68 1558.22,1436.68 1559.24,1436.69 1560.27,1436.69 1561.3,1436.7 1562.33,1436.71 1563.36,1436.71 1564.39,1436.72 1565.42,1436.73 1566.45,1436.73 1567.48,1436.74 1568.51,1436.75 1569.54,1436.75 1570.57,1436.76 1571.6,1436.77 1572.62,1436.77 1573.65,1436.78 1574.68,1436.79 1575.71,1436.79 1576.74,1436.8 1577.77,1436.81 1578.8,1436.81 1579.83,1436.82 1580.86,1436.83 1581.89,1436.83 1582.92,1436.84 1583.95,1436.85 1584.97,1436.86 1586,1436.86 1587.03,1436.87 1588.06,1436.88 1589.09,1436.88 1590.12,1436.89 1591.15,1436.9 1592.18,1436.9 1593.21,1436.91 1594.24,1436.92 1595.27,1436.93 1596.3,1436.93 1597.33,1436.94 1598.35,1436.95 1599.38,1436.95 1600.41,1436.96 1601.44,1436.97 1602.47,1436.98 1603.5,1436.98 1604.53,1436.99 1605.56,1437 1606.59,1437.01 1607.62,1437.01 1608.65,1437.02 1609.68,1437.03 1610.7,1437.03 1611.73,1437.04 1612.76,1437.05 1613.79,1437.06 1614.82,1437.06 1615.85,1437.07 1616.88,1437.08 1617.91,1437.09 1618.94,1437.09 1619.97,1437.1 1621,1437.11 1622.03,1437.12 1623.05,1437.13 1624.08,1437.13 1625.11,1437.14 1626.14,1437.15 1627.17,1437.16 1628.2,1437.16 1629.23,1437.17 1630.26,1437.18 1631.29,1437.19 1632.32,1437.2 1633.35,1437.2 1634.38,1437.21 1635.41,1437.22 1636.43,1437.23 1637.46,1437.24 1638.49,1437.24 1639.52,1437.25 1640.55,1437.26 1641.58,1437.27 1642.61,1437.28 1643.64,1437.28 1644.67,1437.29 1645.7,1437.3 1646.73,1437.31 1647.76,1437.32 1648.78,1437.33 1649.81,1437.33 1650.84,1437.34 1651.87,1437.35 1652.9,1437.36 1653.93,1437.37 1654.96,1437.38 1655.99,1437.38 1657.02,1437.39 1658.05,1437.4 1659.08,1437.41 1660.11,1437.42 1661.14,1437.43 1662.16,1437.44 1663.19,1437.44 1664.22,1437.45 1665.25,1437.46 1666.28,1437.47 1667.31,1437.48 1668.34,1437.49 1669.37,1437.5 1670.4,1437.51 1671.43,1437.51 1672.46,1437.52 1673.49,1437.53 1674.51,1437.54 1675.54,1437.55 1676.57,1437.56 1677.6,1437.57 1678.63,1437.58 1679.66,1437.59 1680.69,1437.6 1681.72,1437.6 1682.75,1437.61 1683.78,1437.62 1684.81,1437.63 1685.84,1437.64 1686.87,1437.65 1687.89,1437.66 1688.92,1437.67 1689.95,1437.68 1690.98,1437.69 1692.01,1437.7 1693.04,1437.71 1694.07,1437.72 1695.1,1437.73 1696.13,1437.73 1697.16,1437.74 1698.19,1437.75 1699.22,1437.76 1700.24,1437.77 1701.27,1437.78 1702.3,1437.79 1703.33,1437.8 1704.36,1437.81 1705.39,1437.82 1706.42,1437.83 1707.45,1437.84 1708.48,1437.85 1709.51,1437.86 1710.54,1437.87 1711.57,1437.88 1712.6,1437.89 1713.62,1437.9 1714.65,1437.91 1715.68,1437.92 1716.71,1437.93 1717.74,1437.94 1718.77,1437.95 1719.8,1437.96 1720.83,1437.97 1721.86,1437.98 1722.89,1437.99 1723.92,1438 1724.95,1438.01 1725.97,1438.02 1727,1438.03 1728.03,1438.04 1729.06,1438.05 1730.09,1438.06 1731.12,1438.07 1732.15,1438.08 1733.18,1438.1 1734.21,1438.11 1735.24,1438.12 1736.27,1438.13 1737.3,1438.14 1738.33,1438.15 1739.35,1438.16 1740.38,1438.17 1741.41,1438.18 1742.44,1438.19 1743.47,1438.2 1744.5,1438.21 1745.53,1438.22 1746.56,1438.23 1747.59,1438.25 1748.62,1438.26 1749.65,1438.27 1750.68,1438.28 1751.7,1438.29 1752.73,1438.3 1753.76,1438.31 1754.79,1438.32 1755.82,1438.33 1756.85,1438.35 1757.88,1438.36 1758.91,1438.37 1759.94,1438.38 1760.97,1438.39 1762,1438.4 1763.03,1438.41 1764.05,1438.42 1765.08,1438.44 1766.11,1438.45 1767.14,1438.46 1768.17,1438.47 1769.2,1438.48 1770.23,1438.49 1771.26,1438.5 1772.29,1438.52 1773.32,1438.53 1774.35,1438.54 1775.38,1438.55 1776.41,1438.56 1777.43,1438.57 1778.46,1438.59 1779.49,1438.6 1780.52,1438.61 1781.55,1438.62 1782.58,1438.63 1783.61,1438.65 1784.64,1438.66 1785.67,1438.67 1786.7,1438.68 1787.73,1438.69 1788.76,1438.71 1789.78,1438.72 1790.81,1438.73 1791.84,1438.74 1792.87,1438.75 1793.9,1438.77 1794.93,1438.78 1795.96,1438.79 1796.99,1438.8 1798.02,1438.82 1799.05,1438.83 1800.08,1438.84 1801.11,1438.85 1802.14,1438.87 1803.16,1438.88 1804.19,1438.89 1805.22,1438.9 1806.25,1438.92 1807.28,1438.93 1808.31,1438.94 1809.34,1438.95 1810.37,1438.97 1811.4,1438.98 1812.43,1438.99 1813.46,1439 1814.49,1439.02 1815.51,1439.03 1816.54,1439.04 1817.57,1439.06 1818.6,1439.07 1819.63,1439.08 1820.66,1439.09 1821.69,1439.11 1822.72,1439.12 1823.75,1439.13 1824.78,1439.15 1825.81,1439.16 1826.84,1439.17 1827.87,1439.19 1828.89,1439.2 1829.92,1439.21 1830.95,1439.22 1831.98,1439.24 1833.01,1439.25 1834.04,1439.26 1835.07,1439.28 1836.1,1439.29 1837.13,1439.3 1838.16,1439.32 1839.19,1439.33 1840.22,1439.34 1841.24,1439.36 1842.27,1439.37 1843.3,1439.39 1844.33,1439.4 1845.36,1439.41 1846.39,1439.43 1847.42,1439.44 1848.45,1439.45 1849.48,1439.47 1850.51,1439.48 1851.54,1439.49 1852.57,1439.51 1853.6,1439.52 1854.62,1439.54 1855.65,1439.55 1856.68,1439.56 1857.71,1439.58 1858.74,1439.59 1859.77,1439.6 1860.8,1439.62 1861.83,1439.63 1862.86,1439.65 1863.89,1439.66 1864.92,1439.67 1865.95,1439.69 1866.97,1439.7 1868,1439.72 1869.03,1439.73 1870.06,1439.74 1871.09,1439.76 1872.12,1439.77 1873.15,1439.79 1874.18,1439.8 1875.21,1439.82 1876.24,1439.83 1877.27,1439.84 1878.3,1439.86 1879.33,1439.87 1880.35,1439.89 1881.38,1439.9 1882.41,1439.92 1883.44,1439.93 1884.47,1439.94 1885.5,1439.96 1886.53,1439.97 1887.56,1439.99 1888.59,1440 1889.62,1440.02 1890.65,1440.03 1891.68,1440.05 1892.7,1440.06 1893.73,1440.08 1894.76,1440.09 1895.79,1440.1 1896.82,1440.12 1897.85,1440.13 1898.88,1440.15 1899.91,1440.16 1900.94,1440.18 1901.97,1440.19 1903,1440.21 1904.03,1440.22 1905.06,1440.24 1906.08,1440.25 1907.11,1440.27 1908.14,1440.28 1909.17,1440.3 1910.2,1440.31 1911.23,1440.33 1912.26,1440.34 1913.29,1440.36 1914.32,1440.37 1915.35,1440.39 1916.38,1440.4 1917.41,1440.42 1918.43,1440.43 1919.46,1440.45 1920.49,1440.46 1921.52,1440.48 1922.55,1440.49 1923.58,1440.51 1924.61,1440.52 1925.64,1440.54 1926.67,1440.55 1927.7,1440.57 1928.73,1440.58 1929.76,1440.6 1930.78,1440.61 1931.81,1440.63 1932.84,1440.64 1933.87,1440.66 1934.9,1440.67 1935.93,1440.69 1936.96,1440.7 1937.99,1440.72 1939.02,1440.73 1940.05,1440.75 1941.08,1440.76 1942.11,1440.78 1943.14,1440.8 1944.16,1440.81 1945.19,1440.83 1946.22,1440.84 1947.25,1440.86 1948.28,1440.87 1949.31,1440.89 1950.34,1440.9 1951.37,1440.92 1952.4,1440.93 1953.43,1440.95 1954.46,1440.96 1955.49,1440.98 1956.51,1441 1957.54,1441.01 1958.57,1441.03 1959.6,1441.04 1960.63,1441.06 1961.66,1441.07 1962.69,1441.09 1963.72,1441.1 1964.75,1441.12 1965.78,1441.14 1966.81,1441.15 1967.84,1441.17 1968.87,1441.18 1969.89,1441.2 1970.92,1441.21 1971.95,1441.23 1972.98,1441.24 1974.01,1441.26 1975.04,1441.28 1976.07,1441.29 1977.1,1441.31 1978.13,1441.32 1979.16,1441.34 1980.19,1441.35 1981.22,1441.37 1982.24,1441.38 1983.27,1441.4 1984.3,1441.42 1985.33,1441.43 1986.36,1441.45 1987.39,1441.46 1988.42,1441.48 1989.45,1441.49 1990.48,1441.51 1991.51,1441.53 1992.54,1441.54 1993.57,1441.56 1994.6,1441.57 1995.62,1441.59 1996.65,1441.6 1997.68,1441.62 1998.71,1441.64 1999.74,1441.65 2000.77,1441.67 2001.8,1441.68 2002.83,1441.7 2003.86,1441.71 2004.89,1441.73 2005.92,1441.75 2006.95,1441.76 2007.97,1441.78 2009,1441.79 2010.03,1441.81 2011.06,1441.82 2012.09,1441.84 2013.12,1441.86 2014.15,1441.87 2015.18,1441.89 2016.21,1441.9 2017.24,1441.92 2018.27,1441.93 2019.3,1441.95 2020.33,1441.97 2021.35,1441.98 2022.38,1442 2023.41,1442.01 2024.44,1442.03 2025.47,1442.04 2026.5,1442.06 2027.53,1442.08 2028.56,1442.09 2029.59,1442.11 2030.62,1442.12 2031.65,1442.14 2032.68,1442.15 2033.7,1442.17 2034.73,1442.19 2035.76,1442.2 2036.79,1442.22 2037.82,1442.23 2038.85,1442.25 2039.88,1442.26 2040.91,1442.28 2041.94,1442.3 2042.97,1442.31 2044,1442.33 2045.03,1442.34 2046.06,1442.36 2047.08,1442.37 2048.11,1442.39 2049.14,1442.41 2050.17,1442.42 2051.2,1442.44 2052.23,1442.45 2053.26,1442.47 2054.29,1442.48 2055.32,1442.5 2056.35,1442.51 2057.38,1442.53 2058.41,1442.55 2059.43,1442.56 2060.46,1442.58 2061.49,1442.59 2062.52,1442.61 2063.55,1442.62 2064.58,1442.64 2065.61,1442.66 2066.64,1442.67 2067.67,1442.69 2068.7,1442.7 2069.73,1442.72 2070.76,1442.73 2071.79,1442.75 2072.81,1442.76 2073.84,1442.78 2074.87,1442.79 2075.9,1442.81 2076.93,1442.83 2077.96,1442.84 2078.99,1442.86 2080.02,1442.87 2081.05,1442.89 2082.08,1442.9 2083.11,1442.92 2084.14,1442.93 2085.16,1442.95 2086.19,1442.96 2087.22,1442.98 2088.25,1443 2089.28,1443.01 2090.31,1443.03 2091.34,1443.04 2092.37,1443.06 2093.4,1443.07 2094.43,1443.09 2095.46,1443.1 2096.49,1443.12 2097.51,1443.13 2098.54,1443.15 2099.57,1443.16 2100.6,1443.18 2101.63,1443.19 2102.66,1443.21 2103.69,1443.22 2104.72,1443.24 2105.75,1443.25 2106.78,1443.27 2107.81,1443.28 2108.84,1443.3 2109.87,1443.31 2110.89,1443.33 2111.92,1443.35 2112.95,1443.36 2113.98,1443.38 2115.01,1443.39 2116.04,1443.41 2117.07,1443.42 2118.1,1443.44 2119.13,1443.45 2120.16,1443.47 2121.19,1443.48 2122.22,1443.5 2123.24,1443.51 2124.27,1443.53 2125.3,1443.54 2126.33,1443.56 2127.36,1443.57 2128.39,1443.58 2129.42,1443.6 2130.45,1443.61 2131.48,1443.63 2132.51,1443.64 2133.54,1443.66 2134.57,1443.67 2135.6,1443.69 2136.62,1443.7 2137.65,1443.72 2138.68,1443.73 2139.71,1443.75 2140.74,1443.76 2141.77,1443.78 2142.8,1443.79 2143.83,1443.81 2144.86,1443.82 2145.89,1443.84 2146.92,1443.85 2147.95,1443.86 2148.97,1443.88 2150,1443.89 2151.03,1443.91 2152.06,1443.92 2153.09,1443.94 2154.12,1443.95 2155.15,1443.97 2156.18,1443.98 2157.21,1444 2158.24,1444.01 2159.27,1444.02 2160.3,1444.04 2161.33,1444.05 2162.35,1444.07 2163.38,1444.08 2164.41,1444.1 2165.44,1444.11 2166.47,1444.12 2167.5,1444.14 2168.53,1444.15 2169.56,1444.17 2170.59,1444.18 2171.62,1444.2 2172.65,1444.21 2173.68,1444.22 2174.7,1444.24 2175.73,1444.25 2176.76,1444.27 2177.79,1444.28 2178.82,1444.29 2179.85,1444.31 2180.88,1444.32 2181.91,1444.34 2182.94,1444.35 2183.97,1444.36 2185,1444.38 2186.03,1444.39 2187.06,1444.41 2188.08,1444.42 2189.11,1444.43 2190.14,1444.45 2191.17,1444.46 2192.2,1444.48 2193.23,1444.49 2194.26,1444.5 2195.29,1444.52 2196.32,1444.53 2197.35,1444.55 2198.38,1444.56 2199.41,1444.57 2200.43,1444.59 2201.46,1444.6 2202.49,1444.61 2203.52,1444.63 2204.55,1444.64 2205.58,1444.65 2206.61,1444.67 2207.64,1444.68 2208.67,1444.7 2209.7,1444.71 2210.73,1444.72 2211.76,1444.74 2212.79,1444.75 2213.81,1444.76 2214.84,1444.78 2215.87,1444.79 2216.9,1444.8 2217.93,1444.82 2218.96,1444.83 2219.99,1444.84 2221.02,1444.86 2222.05,1444.87 2223.08,1444.88 2224.11,1444.9 2225.14,1444.91 2226.16,1444.92 2227.19,1444.94 2228.22,1444.95 2229.25,1444.96 2230.28,1444.98 2231.31,1444.99 2232.34,1445 2233.37,1445.01 2234.4,1445.03 2235.43,1445.04 2236.46,1445.05 2237.49,1445.07 2238.51,1445.08 2239.54,1445.09 2240.57,1445.11 2241.6,1445.12 2242.63,1445.13 2243.66,1445.14 2244.69,1445.16 2245.72,1445.17 2246.75,1445.18 2247.78,1445.2 2248.81,1445.21 2249.84,1445.22 2250.87,1445.23 2251.89,1445.25 2252.92,1445.26 2253.95,1445.27 2254.98,1445.29 2256.01,1445.3 2257.04,1445.31 2258.07,1445.32 2259.1,1445.34 2260.13,1445.35 2261.16,1445.36 2262.19,1445.37 2263.22,1445.39 2264.24,1445.4 2265.27,1445.41 2266.3,1445.42 2267.33,1445.44 2268.36,1445.45 2269.39,1445.46 2270.42,1445.47 2271.45,1445.49 2272.48,1445.5 2273.51,1445.51 2274.54,1445.52 2275.57,1445.53 2276.6,1445.55 2277.62,1445.56 2278.65,1445.57 2279.68,1445.58 2280.71,1445.6 2281.74,1445.61 2282.77,1445.62 2283.8,1445.63 2284.83,1445.64 2285.86,1445.66 2286.89,1445.67 2287.92,1445.68 2288.95,1445.69 2289.97,1445.7 2291,1445.72 "/>
<path clip-path="url(#clip860)" d="M2009.41 198.898 L2280.03 198.898 L2280.03 95.2176 L2009.41 95.2176  Z" fill="#ffffff" fill-rule="evenodd" fill-opacity="1"/>
<polyline clip-path="url(#clip860)" style="stroke:#000000; stroke-linecap:round; stroke-linejoin:round; stroke-width:4; stroke-opacity:1; fill:none" points="2009.41,198.898 2280.03,198.898 2280.03,95.2176 2009.41,95.2176 2009.41,198.898 "/>
<polyline clip-path="url(#clip860)" style="stroke:#009af9; stroke-linecap:round; stroke-linejoin:round; stroke-width:4; stroke-opacity:1; fill:none" points="2033.65,147.058 2179.11,147.058 "/>
<path clip-path="url(#clip860)" d="M2217.19 166.745 Q2215.39 171.375 2213.68 172.787 Q2211.96 174.199 2209.09 174.199 L2205.69 174.199 L2205.69 170.634 L2208.19 170.634 Q2209.95 170.634 2210.92 169.8 Q2211.89 168.967 2213.07 165.865 L2213.84 163.921 L2203.35 138.412 L2207.87 138.412 L2215.97 158.689 L2224.07 138.412 L2228.58 138.412 L2217.19 166.745 Z" fill="#000000" fill-rule="nonzero" fill-opacity="1" /><path clip-path="url(#clip860)" d="M2235.88 160.402 L2243.51 160.402 L2243.51 134.037 L2235.2 135.703 L2235.2 131.444 L2243.47 129.778 L2248.14 129.778 L2248.14 160.402 L2255.78 160.402 L2255.78 164.338 L2235.88 164.338 L2235.88 160.402 Z" fill="#000000" fill-rule="nonzero" fill-opacity="1" /></svg>
