<?xml version="1.0" encoding="utf-8"?>
<svg xmlns="http://www.w3.org/2000/svg" xmlns:xlink="http://www.w3.org/1999/xlink" width="600" height="400" viewBox="0 0 2400 1600">
<defs>
  <clipPath id="clip560">
    <rect x="0" y="0" width="2400" height="1600"/>
  </clipPath>
</defs>
<path clip-path="url(#clip560)" d="M0 1600 L2400 1600 L2400 0 L0 0  Z" fill="#ffffff" fill-rule="evenodd" fill-opacity="1"/>
<defs>
  <clipPath id="clip561">
    <rect x="480" y="0" width="1681" height="1600"/>
  </clipPath>
</defs>
<path clip-path="url(#clip560)" d="M209.029 1486.45 L2352.76 1486.45 L2352.76 47.2441 L209.029 47.2441  Z" fill="#ffffff" fill-rule="evenodd" fill-opacity="1"/>
<defs>
  <clipPath id="clip562">
    <rect x="209" y="47" width="2145" height="1440"/>
  </clipPath>
</defs>
<polyline clip-path="url(#clip562)" style="stroke:#000000; stroke-linecap:round; stroke-linejoin:round; stroke-width:2; stroke-opacity:0.1; fill:none" points="269.7,1486.45 269.7,47.2441 "/>
<polyline clip-path="url(#clip562)" style="stroke:#000000; stroke-linecap:round; stroke-linejoin:round; stroke-width:2; stroke-opacity:0.1; fill:none" points="775.549,1486.45 775.549,47.2441 "/>
<polyline clip-path="url(#clip562)" style="stroke:#000000; stroke-linecap:round; stroke-linejoin:round; stroke-width:2; stroke-opacity:0.1; fill:none" points="1281.4,1486.45 1281.4,47.2441 "/>
<polyline clip-path="url(#clip562)" style="stroke:#000000; stroke-linecap:round; stroke-linejoin:round; stroke-width:2; stroke-opacity:0.1; fill:none" points="1787.25,1486.45 1787.25,47.2441 "/>
<polyline clip-path="url(#clip562)" style="stroke:#000000; stroke-linecap:round; stroke-linejoin:round; stroke-width:2; stroke-opacity:0.1; fill:none" points="2293.1,1486.45 2293.1,47.2441 "/>
<polyline clip-path="url(#clip560)" style="stroke:#000000; stroke-linecap:round; stroke-linejoin:round; stroke-width:4; stroke-opacity:1; fill:none" points="209.029,1486.45 2352.76,1486.45 "/>
<polyline clip-path="url(#clip560)" style="stroke:#000000; stroke-linecap:round; stroke-linejoin:round; stroke-width:4; stroke-opacity:1; fill:none" points="269.7,1486.45 269.7,1467.55 "/>
<polyline clip-path="url(#clip560)" style="stroke:#000000; stroke-linecap:round; stroke-linejoin:round; stroke-width:4; stroke-opacity:1; fill:none" points="775.549,1486.45 775.549,1467.55 "/>
<polyline clip-path="url(#clip560)" style="stroke:#000000; stroke-linecap:round; stroke-linejoin:round; stroke-width:4; stroke-opacity:1; fill:none" points="1281.4,1486.45 1281.4,1467.55 "/>
<polyline clip-path="url(#clip560)" style="stroke:#000000; stroke-linecap:round; stroke-linejoin:round; stroke-width:4; stroke-opacity:1; fill:none" points="1787.25,1486.45 1787.25,1467.55 "/>
<polyline clip-path="url(#clip560)" style="stroke:#000000; stroke-linecap:round; stroke-linejoin:round; stroke-width:4; stroke-opacity:1; fill:none" points="2293.1,1486.45 2293.1,1467.55 "/>
<path clip-path="url(#clip560)" d="M269.7 1517.37 Q266.089 1517.37 264.26 1520.93 Q262.455 1524.47 262.455 1531.6 Q262.455 1538.71 264.26 1542.27 Q266.089 1545.82 269.7 1545.82 Q273.334 1545.82 275.14 1542.27 Q276.969 1538.71 276.969 1531.6 Q276.969 1524.47 275.14 1520.93 Q273.334 1517.37 269.7 1517.37 M269.7 1513.66 Q275.51 1513.66 278.566 1518.27 Q281.644 1522.85 281.644 1531.6 Q281.644 1540.33 278.566 1544.94 Q275.51 1549.52 269.7 1549.52 Q263.89 1549.52 260.811 1544.94 Q257.756 1540.33 257.756 1531.6 Q257.756 1522.85 260.811 1518.27 Q263.89 1513.66 269.7 1513.66 Z" fill="#000000" fill-rule="nonzero" fill-opacity="1" /><path clip-path="url(#clip560)" d="M735.167 1514.29 L753.524 1514.29 L753.524 1518.22 L739.45 1518.22 L739.45 1526.7 Q740.468 1526.35 741.487 1526.19 Q742.505 1526 743.524 1526 Q749.311 1526 752.69 1529.17 Q756.07 1532.34 756.07 1537.76 Q756.07 1543.34 752.598 1546.44 Q749.126 1549.52 742.806 1549.52 Q740.63 1549.52 738.362 1549.15 Q736.116 1548.78 733.709 1548.04 L733.709 1543.34 Q735.792 1544.47 738.015 1545.03 Q740.237 1545.58 742.714 1545.58 Q746.718 1545.58 749.056 1543.48 Q751.394 1541.37 751.394 1537.76 Q751.394 1534.15 749.056 1532.04 Q746.718 1529.94 742.714 1529.94 Q740.839 1529.94 738.964 1530.35 Q737.112 1530.77 735.167 1531.65 L735.167 1514.29 Z" fill="#000000" fill-rule="nonzero" fill-opacity="1" /><path clip-path="url(#clip560)" d="M775.283 1517.37 Q771.672 1517.37 769.843 1520.93 Q768.038 1524.47 768.038 1531.6 Q768.038 1538.71 769.843 1542.27 Q771.672 1545.82 775.283 1545.82 Q778.917 1545.82 780.723 1542.27 Q782.551 1538.71 782.551 1531.6 Q782.551 1524.47 780.723 1520.93 Q778.917 1517.37 775.283 1517.37 M775.283 1513.66 Q781.093 1513.66 784.149 1518.27 Q787.227 1522.85 787.227 1531.6 Q787.227 1540.33 784.149 1544.94 Q781.093 1549.52 775.283 1549.52 Q769.473 1549.52 766.394 1544.94 Q763.338 1540.33 763.338 1531.6 Q763.338 1522.85 766.394 1518.27 Q769.473 1513.66 775.283 1513.66 Z" fill="#000000" fill-rule="nonzero" fill-opacity="1" /><path clip-path="url(#clip560)" d="M805.445 1517.37 Q801.834 1517.37 800.005 1520.93 Q798.199 1524.47 798.199 1531.6 Q798.199 1538.71 800.005 1542.27 Q801.834 1545.82 805.445 1545.82 Q809.079 1545.82 810.885 1542.27 Q812.713 1538.71 812.713 1531.6 Q812.713 1524.47 810.885 1520.93 Q809.079 1517.37 805.445 1517.37 M805.445 1513.66 Q811.255 1513.66 814.31 1518.27 Q817.389 1522.85 817.389 1531.6 Q817.389 1540.33 814.31 1544.94 Q811.255 1549.52 805.445 1549.52 Q799.635 1549.52 796.556 1544.94 Q793.5 1540.33 793.5 1531.6 Q793.5 1522.85 796.556 1518.27 Q799.635 1513.66 805.445 1513.66 Z" fill="#000000" fill-rule="nonzero" fill-opacity="1" /><path clip-path="url(#clip560)" d="M1225.92 1544.91 L1233.56 1544.91 L1233.56 1518.55 L1225.25 1520.21 L1225.25 1515.95 L1233.52 1514.29 L1238.19 1514.29 L1238.19 1544.91 L1245.83 1544.91 L1245.83 1548.85 L1225.92 1548.85 L1225.92 1544.91 Z" fill="#000000" fill-rule="nonzero" fill-opacity="1" /><path clip-path="url(#clip560)" d="M1265.28 1517.37 Q1261.66 1517.37 1259.84 1520.93 Q1258.03 1524.47 1258.03 1531.6 Q1258.03 1538.71 1259.84 1542.27 Q1261.66 1545.82 1265.28 1545.82 Q1268.91 1545.82 1270.72 1542.27 Q1272.54 1538.71 1272.54 1531.6 Q1272.54 1524.47 1270.72 1520.93 Q1268.91 1517.37 1265.28 1517.37 M1265.28 1513.66 Q1271.09 1513.66 1274.14 1518.27 Q1277.22 1522.85 1277.22 1531.6 Q1277.22 1540.33 1274.14 1544.94 Q1271.09 1549.52 1265.28 1549.52 Q1259.47 1549.52 1256.39 1544.94 Q1253.33 1540.33 1253.33 1531.6 Q1253.33 1522.85 1256.39 1518.27 Q1259.47 1513.66 1265.28 1513.66 Z" fill="#000000" fill-rule="nonzero" fill-opacity="1" /><path clip-path="url(#clip560)" d="M1295.44 1517.37 Q1291.83 1517.37 1290 1520.93 Q1288.19 1524.47 1288.19 1531.6 Q1288.19 1538.71 1290 1542.27 Q1291.83 1545.82 1295.44 1545.82 Q1299.07 1545.82 1300.88 1542.27 Q1302.71 1538.71 1302.71 1531.6 Q1302.71 1524.47 1300.88 1520.93 Q1299.07 1517.37 1295.44 1517.37 M1295.44 1513.66 Q1301.25 1513.66 1304.3 1518.27 Q1307.38 1522.85 1307.38 1531.6 Q1307.38 1540.33 1304.3 1544.94 Q1301.25 1549.52 1295.44 1549.52 Q1289.63 1549.52 1286.55 1544.94 Q1283.49 1540.33 1283.49 1531.6 Q1283.49 1522.85 1286.55 1518.27 Q1289.63 1513.66 1295.44 1513.66 Z" fill="#000000" fill-rule="nonzero" fill-opacity="1" /><path clip-path="url(#clip560)" d="M1325.6 1517.37 Q1321.99 1517.37 1320.16 1520.93 Q1318.35 1524.47 1318.35 1531.6 Q1318.35 1538.71 1320.16 1542.27 Q1321.99 1545.82 1325.6 1545.82 Q1329.23 1545.82 1331.04 1542.27 Q1332.87 1538.71 1332.87 1531.6 Q1332.87 1524.47 1331.04 1520.93 Q1329.23 1517.37 1325.6 1517.37 M1325.6 1513.66 Q1331.41 1513.66 1334.46 1518.27 Q1337.54 1522.85 1337.54 1531.6 Q1337.54 1540.33 1334.46 1544.94 Q1331.41 1549.52 1325.6 1549.52 Q1319.79 1549.52 1316.71 1544.94 Q1313.65 1540.33 1313.65 1531.6 Q1313.65 1522.85 1316.71 1518.27 Q1319.79 1513.66 1325.6 1513.66 Z" fill="#000000" fill-rule="nonzero" fill-opacity="1" /><path clip-path="url(#clip560)" d="M1731.77 1544.91 L1739.41 1544.91 L1739.41 1518.55 L1731.1 1520.21 L1731.1 1515.95 L1739.37 1514.29 L1744.04 1514.29 L1744.04 1544.91 L1751.68 1544.91 L1751.68 1548.85 L1731.77 1548.85 L1731.77 1544.91 Z" fill="#000000" fill-rule="nonzero" fill-opacity="1" /><path clip-path="url(#clip560)" d="M1761.17 1514.29 L1779.53 1514.29 L1779.53 1518.22 L1765.45 1518.22 L1765.45 1526.7 Q1766.47 1526.35 1767.49 1526.19 Q1768.51 1526 1769.53 1526 Q1775.31 1526 1778.69 1529.17 Q1782.07 1532.34 1782.07 1537.76 Q1782.07 1543.34 1778.6 1546.44 Q1775.13 1549.52 1768.81 1549.52 Q1766.63 1549.52 1764.37 1549.15 Q1762.12 1548.78 1759.71 1548.04 L1759.71 1543.34 Q1761.8 1544.47 1764.02 1545.03 Q1766.24 1545.58 1768.72 1545.58 Q1772.72 1545.58 1775.06 1543.48 Q1777.4 1541.37 1777.4 1537.76 Q1777.4 1534.15 1775.06 1532.04 Q1772.72 1529.94 1768.72 1529.94 Q1766.84 1529.94 1764.97 1530.35 Q1763.12 1530.77 1761.17 1531.65 L1761.17 1514.29 Z" fill="#000000" fill-rule="nonzero" fill-opacity="1" /><path clip-path="url(#clip560)" d="M1801.29 1517.37 Q1797.68 1517.37 1795.85 1520.93 Q1794.04 1524.47 1794.04 1531.6 Q1794.04 1538.71 1795.85 1542.27 Q1797.68 1545.82 1801.29 1545.82 Q1804.92 1545.82 1806.73 1542.27 Q1808.55 1538.71 1808.55 1531.6 Q1808.55 1524.47 1806.73 1520.93 Q1804.92 1517.37 1801.29 1517.37 M1801.29 1513.66 Q1807.1 1513.66 1810.15 1518.27 Q1813.23 1522.85 1813.23 1531.6 Q1813.23 1540.33 1810.15 1544.94 Q1807.1 1549.52 1801.29 1549.52 Q1795.48 1549.52 1792.4 1544.94 Q1789.34 1540.33 1789.34 1531.6 Q1789.34 1522.85 1792.4 1518.27 Q1795.48 1513.66 1801.29 1513.66 Z" fill="#000000" fill-rule="nonzero" fill-opacity="1" /><path clip-path="url(#clip560)" d="M1831.45 1517.37 Q1827.84 1517.37 1826.01 1520.93 Q1824.2 1524.47 1824.2 1531.6 Q1824.2 1538.71 1826.01 1542.27 Q1827.84 1545.82 1831.45 1545.82 Q1835.08 1545.82 1836.89 1542.27 Q1838.72 1538.71 1838.72 1531.6 Q1838.72 1524.47 1836.89 1520.93 Q1835.08 1517.37 1831.45 1517.37 M1831.45 1513.66 Q1837.26 1513.66 1840.31 1518.27 Q1843.39 1522.85 1843.39 1531.6 Q1843.39 1540.33 1840.31 1544.94 Q1837.26 1549.52 1831.45 1549.52 Q1825.64 1549.52 1822.56 1544.94 Q1819.5 1540.33 1819.5 1531.6 Q1819.5 1522.85 1822.56 1518.27 Q1825.64 1513.66 1831.45 1513.66 Z" fill="#000000" fill-rule="nonzero" fill-opacity="1" /><path clip-path="url(#clip560)" d="M2241.71 1544.91 L2258.03 1544.91 L2258.03 1548.85 L2236.08 1548.85 L2236.08 1544.91 Q2238.74 1542.16 2243.33 1537.53 Q2247.93 1532.88 2249.11 1531.53 Q2251.36 1529.01 2252.24 1527.27 Q2253.14 1525.51 2253.14 1523.82 Q2253.14 1521.07 2251.2 1519.33 Q2249.28 1517.6 2246.18 1517.6 Q2243.98 1517.6 2241.52 1518.36 Q2239.09 1519.13 2236.31 1520.68 L2236.31 1515.95 Q2239.14 1514.82 2241.59 1514.24 Q2244.05 1513.66 2246.08 1513.66 Q2251.45 1513.66 2254.65 1516.35 Q2257.84 1519.03 2257.84 1523.52 Q2257.84 1525.65 2257.03 1527.57 Q2256.24 1529.47 2254.14 1532.07 Q2253.56 1532.74 2250.46 1535.95 Q2247.36 1539.15 2241.71 1544.91 Z" fill="#000000" fill-rule="nonzero" fill-opacity="1" /><path clip-path="url(#clip560)" d="M2277.84 1517.37 Q2274.23 1517.37 2272.4 1520.93 Q2270.6 1524.47 2270.6 1531.6 Q2270.6 1538.71 2272.4 1542.27 Q2274.23 1545.82 2277.84 1545.82 Q2281.48 1545.82 2283.28 1542.27 Q2285.11 1538.71 2285.11 1531.6 Q2285.11 1524.47 2283.28 1520.93 Q2281.48 1517.37 2277.84 1517.37 M2277.84 1513.66 Q2283.65 1513.66 2286.71 1518.27 Q2289.79 1522.85 2289.79 1531.6 Q2289.79 1540.33 2286.71 1544.94 Q2283.65 1549.52 2277.84 1549.52 Q2272.03 1549.52 2268.95 1544.94 Q2265.9 1540.33 2265.9 1531.6 Q2265.9 1522.85 2268.95 1518.27 Q2272.03 1513.66 2277.84 1513.66 Z" fill="#000000" fill-rule="nonzero" fill-opacity="1" /><path clip-path="url(#clip560)" d="M2308 1517.37 Q2304.39 1517.37 2302.56 1520.93 Q2300.76 1524.47 2300.76 1531.6 Q2300.76 1538.71 2302.56 1542.27 Q2304.39 1545.82 2308 1545.82 Q2311.64 1545.82 2313.44 1542.27 Q2315.27 1538.71 2315.27 1531.6 Q2315.27 1524.47 2313.44 1520.93 Q2311.64 1517.37 2308 1517.37 M2308 1513.66 Q2313.81 1513.66 2316.87 1518.27 Q2319.95 1522.85 2319.95 1531.6 Q2319.95 1540.33 2316.87 1544.94 Q2313.81 1549.52 2308 1549.52 Q2302.19 1549.52 2299.11 1544.94 Q2296.06 1540.33 2296.06 1531.6 Q2296.06 1522.85 2299.11 1518.27 Q2302.19 1513.66 2308 1513.66 Z" fill="#000000" fill-rule="nonzero" fill-opacity="1" /><path clip-path="url(#clip560)" d="M2338.17 1517.37 Q2334.55 1517.37 2332.73 1520.93 Q2330.92 1524.47 2330.92 1531.6 Q2330.92 1538.71 2332.73 1542.27 Q2334.55 1545.82 2338.17 1545.82 Q2341.8 1545.82 2343.61 1542.27 Q2345.43 1538.71 2345.43 1531.6 Q2345.43 1524.47 2343.61 1520.93 Q2341.8 1517.37 2338.17 1517.37 M2338.17 1513.66 Q2343.98 1513.66 2347.03 1518.27 Q2350.11 1522.85 2350.11 1531.6 Q2350.11 1540.33 2347.03 1544.94 Q2343.98 1549.52 2338.17 1549.52 Q2332.36 1549.52 2329.28 1544.94 Q2326.22 1540.33 2326.22 1531.6 Q2326.22 1522.85 2329.28 1518.27 Q2332.36 1513.66 2338.17 1513.66 Z" fill="#000000" fill-rule="nonzero" fill-opacity="1" /><polyline clip-path="url(#clip562)" style="stroke:#000000; stroke-linecap:round; stroke-linejoin:round; stroke-width:2; stroke-opacity:0.1; fill:none" points="209.029,1346.68 2352.76,1346.68 "/>
<polyline clip-path="url(#clip562)" style="stroke:#000000; stroke-linecap:round; stroke-linejoin:round; stroke-width:2; stroke-opacity:0.1; fill:none" points="209.029,933.386 2352.76,933.386 "/>
<polyline clip-path="url(#clip562)" style="stroke:#000000; stroke-linecap:round; stroke-linejoin:round; stroke-width:2; stroke-opacity:0.1; fill:none" points="209.029,520.091 2352.76,520.091 "/>
<polyline clip-path="url(#clip562)" style="stroke:#000000; stroke-linecap:round; stroke-linejoin:round; stroke-width:2; stroke-opacity:0.1; fill:none" points="209.029,106.797 2352.76,106.797 "/>
<polyline clip-path="url(#clip560)" style="stroke:#000000; stroke-linecap:round; stroke-linejoin:round; stroke-width:4; stroke-opacity:1; fill:none" points="209.029,1486.45 209.029,47.2441 "/>
<polyline clip-path="url(#clip560)" style="stroke:#000000; stroke-linecap:round; stroke-linejoin:round; stroke-width:4; stroke-opacity:1; fill:none" points="209.029,1346.68 227.926,1346.68 "/>
<polyline clip-path="url(#clip560)" style="stroke:#000000; stroke-linecap:round; stroke-linejoin:round; stroke-width:4; stroke-opacity:1; fill:none" points="209.029,933.386 227.926,933.386 "/>
<polyline clip-path="url(#clip560)" style="stroke:#000000; stroke-linecap:round; stroke-linejoin:round; stroke-width:4; stroke-opacity:1; fill:none" points="209.029,520.091 227.926,520.091 "/>
<polyline clip-path="url(#clip560)" style="stroke:#000000; stroke-linecap:round; stroke-linejoin:round; stroke-width:4; stroke-opacity:1; fill:none" points="209.029,106.797 227.926,106.797 "/>
<path clip-path="url(#clip560)" d="M50.9921 1347.13 L80.6679 1347.13 L80.6679 1351.07 L50.9921 1351.07 L50.9921 1347.13 Z" fill="#000000" fill-rule="nonzero" fill-opacity="1" /><path clip-path="url(#clip560)" d="M90.8067 1329.4 L109.163 1329.4 L109.163 1333.34 L95.0891 1333.34 L95.0891 1341.81 Q96.1076 1341.46 97.1261 1341.3 Q98.1447 1341.11 99.1632 1341.11 Q104.95 1341.11 108.33 1344.28 Q111.709 1347.46 111.709 1352.87 Q111.709 1358.45 108.237 1361.55 Q104.765 1364.63 98.4456 1364.63 Q96.2697 1364.63 94.0012 1364.26 Q91.7558 1363.89 89.3484 1363.15 L89.3484 1358.45 Q91.4317 1359.59 93.6539 1360.14 Q95.8761 1360.7 98.353 1360.7 Q102.358 1360.7 104.696 1358.59 Q107.033 1356.48 107.033 1352.87 Q107.033 1349.26 104.696 1347.15 Q102.358 1345.05 98.353 1345.05 Q96.478 1345.05 94.603 1345.47 Q92.7512 1345.88 90.8067 1346.76 L90.8067 1329.4 Z" fill="#000000" fill-rule="nonzero" fill-opacity="1" /><path clip-path="url(#clip560)" d="M130.922 1332.48 Q127.311 1332.48 125.482 1336.04 Q123.677 1339.59 123.677 1346.72 Q123.677 1353.82 125.482 1357.39 Q127.311 1360.93 130.922 1360.93 Q134.556 1360.93 136.362 1357.39 Q138.191 1353.82 138.191 1346.72 Q138.191 1339.59 136.362 1336.04 Q134.556 1332.48 130.922 1332.48 M130.922 1328.78 Q136.732 1328.78 139.788 1333.38 Q142.867 1337.97 142.867 1346.72 Q142.867 1355.44 139.788 1360.05 Q136.732 1364.63 130.922 1364.63 Q125.112 1364.63 122.033 1360.05 Q118.978 1355.44 118.978 1346.72 Q118.978 1337.97 122.033 1333.38 Q125.112 1328.78 130.922 1328.78 Z" fill="#000000" fill-rule="nonzero" fill-opacity="1" /><path clip-path="url(#clip560)" d="M161.084 1332.48 Q157.473 1332.48 155.644 1336.04 Q153.839 1339.59 153.839 1346.72 Q153.839 1353.82 155.644 1357.39 Q157.473 1360.93 161.084 1360.93 Q164.718 1360.93 166.524 1357.39 Q168.353 1353.82 168.353 1346.72 Q168.353 1339.59 166.524 1336.04 Q164.718 1332.48 161.084 1332.48 M161.084 1328.78 Q166.894 1328.78 169.95 1333.38 Q173.029 1337.97 173.029 1346.72 Q173.029 1355.44 169.95 1360.05 Q166.894 1364.63 161.084 1364.63 Q155.274 1364.63 152.195 1360.05 Q149.14 1355.44 149.14 1346.72 Q149.14 1337.97 152.195 1333.38 Q155.274 1328.78 161.084 1328.78 Z" fill="#000000" fill-rule="nonzero" fill-opacity="1" /><path clip-path="url(#clip560)" d="M50.9921 933.837 L80.6679 933.837 L80.6679 937.772 L50.9921 937.772 L50.9921 933.837 Z" fill="#000000" fill-rule="nonzero" fill-opacity="1" /><path clip-path="url(#clip560)" d="M103.608 920.18 L91.8021 938.629 L103.608 938.629 L103.608 920.18 M102.381 916.106 L108.26 916.106 L108.26 938.629 L113.191 938.629 L113.191 942.518 L108.26 942.518 L108.26 950.666 L103.608 950.666 L103.608 942.518 L88.0058 942.518 L88.0058 938.004 L102.381 916.106 Z" fill="#000000" fill-rule="nonzero" fill-opacity="1" /><path clip-path="url(#clip560)" d="M130.922 919.185 Q127.311 919.185 125.482 922.749 Q123.677 926.291 123.677 933.421 Q123.677 940.527 125.482 944.092 Q127.311 947.633 130.922 947.633 Q134.556 947.633 136.362 944.092 Q138.191 940.527 138.191 933.421 Q138.191 926.291 136.362 922.749 Q134.556 919.185 130.922 919.185 M130.922 915.481 Q136.732 915.481 139.788 920.087 Q142.867 924.671 142.867 933.421 Q142.867 942.147 139.788 946.754 Q136.732 951.337 130.922 951.337 Q125.112 951.337 122.033 946.754 Q118.978 942.147 118.978 933.421 Q118.978 924.671 122.033 920.087 Q125.112 915.481 130.922 915.481 Z" fill="#000000" fill-rule="nonzero" fill-opacity="1" /><path clip-path="url(#clip560)" d="M161.084 919.185 Q157.473 919.185 155.644 922.749 Q153.839 926.291 153.839 933.421 Q153.839 940.527 155.644 944.092 Q157.473 947.633 161.084 947.633 Q164.718 947.633 166.524 944.092 Q168.353 940.527 168.353 933.421 Q168.353 926.291 166.524 922.749 Q164.718 919.185 161.084 919.185 M161.084 915.481 Q166.894 915.481 169.95 920.087 Q173.029 924.671 173.029 933.421 Q173.029 942.147 169.95 946.754 Q166.894 951.337 161.084 951.337 Q155.274 951.337 152.195 946.754 Q149.14 942.147 149.14 933.421 Q149.14 924.671 152.195 920.087 Q155.274 915.481 161.084 915.481 Z" fill="#000000" fill-rule="nonzero" fill-opacity="1" /><path clip-path="url(#clip560)" d="M50.9921 520.543 L80.6679 520.543 L80.6679 524.478 L50.9921 524.478 L50.9921 520.543 Z" fill="#000000" fill-rule="nonzero" fill-opacity="1" /><path clip-path="url(#clip560)" d="M104.927 518.737 Q108.283 519.455 110.158 521.723 Q112.057 523.992 112.057 527.325 Q112.057 532.441 108.538 535.242 Q105.02 538.043 98.5382 538.043 Q96.3623 538.043 94.0475 537.603 Q91.7558 537.186 89.3021 536.33 L89.3021 531.816 Q91.2465 532.95 93.5613 533.529 Q95.8761 534.107 98.3993 534.107 Q102.797 534.107 105.089 532.371 Q107.404 530.635 107.404 527.325 Q107.404 524.27 105.251 522.557 Q103.121 520.82 99.3021 520.82 L95.2743 520.82 L95.2743 516.978 L99.4872 516.978 Q102.936 516.978 104.765 515.612 Q106.594 514.223 106.594 511.631 Q106.594 508.969 104.696 507.557 Q102.821 506.121 99.3021 506.121 Q97.3808 506.121 95.1817 506.538 Q92.9826 506.955 90.3438 507.834 L90.3438 503.668 Q93.0058 502.927 95.3206 502.557 Q97.6585 502.186 99.7187 502.186 Q105.043 502.186 108.145 504.617 Q111.246 507.024 111.246 511.145 Q111.246 514.015 109.603 516.006 Q107.959 517.973 104.927 518.737 Z" fill="#000000" fill-rule="nonzero" fill-opacity="1" /><path clip-path="url(#clip560)" d="M130.922 505.89 Q127.311 505.89 125.482 509.455 Q123.677 512.996 123.677 520.126 Q123.677 527.232 125.482 530.797 Q127.311 534.339 130.922 534.339 Q134.556 534.339 136.362 530.797 Q138.191 527.232 138.191 520.126 Q138.191 512.996 136.362 509.455 Q134.556 505.89 130.922 505.89 M130.922 502.186 Q136.732 502.186 139.788 506.793 Q142.867 511.376 142.867 520.126 Q142.867 528.853 139.788 533.459 Q136.732 538.043 130.922 538.043 Q125.112 538.043 122.033 533.459 Q118.978 528.853 118.978 520.126 Q118.978 511.376 122.033 506.793 Q125.112 502.186 130.922 502.186 Z" fill="#000000" fill-rule="nonzero" fill-opacity="1" /><path clip-path="url(#clip560)" d="M161.084 505.89 Q157.473 505.89 155.644 509.455 Q153.839 512.996 153.839 520.126 Q153.839 527.232 155.644 530.797 Q157.473 534.339 161.084 534.339 Q164.718 534.339 166.524 530.797 Q168.353 527.232 168.353 520.126 Q168.353 512.996 166.524 509.455 Q164.718 505.89 161.084 505.89 M161.084 502.186 Q166.894 502.186 169.95 506.793 Q173.029 511.376 173.029 520.126 Q173.029 528.853 169.95 533.459 Q166.894 538.043 161.084 538.043 Q155.274 538.043 152.195 533.459 Q149.14 528.853 149.14 520.126 Q149.14 511.376 152.195 506.793 Q155.274 502.186 161.084 502.186 Z" fill="#000000" fill-rule="nonzero" fill-opacity="1" /><path clip-path="url(#clip560)" d="M50.9921 107.248 L80.6679 107.248 L80.6679 111.183 L50.9921 111.183 L50.9921 107.248 Z" fill="#000000" fill-rule="nonzero" fill-opacity="1" /><path clip-path="url(#clip560)" d="M94.7882 120.142 L111.108 120.142 L111.108 124.077 L89.1632 124.077 L89.1632 120.142 Q91.8252 117.387 96.4085 112.757 Q101.015 108.105 102.196 106.762 Q104.441 104.239 105.321 102.503 Q106.223 100.744 106.223 99.0538 Q106.223 96.2991 104.279 94.563 Q102.358 92.8269 99.2558 92.8269 Q97.0567 92.8269 94.603 93.5908 Q92.1725 94.3547 89.3947 95.9056 L89.3947 91.1834 Q92.2188 90.0492 94.6724 89.4705 Q97.1261 88.8918 99.1632 88.8918 Q104.534 88.8918 107.728 91.577 Q110.922 94.2621 110.922 98.7528 Q110.922 100.882 110.112 102.804 Q109.325 104.702 107.219 107.294 Q106.64 107.966 103.538 111.183 Q100.436 114.378 94.7882 120.142 Z" fill="#000000" fill-rule="nonzero" fill-opacity="1" /><path clip-path="url(#clip560)" d="M130.922 92.5955 Q127.311 92.5955 125.482 96.1603 Q123.677 99.7019 123.677 106.831 Q123.677 113.938 125.482 117.503 Q127.311 121.044 130.922 121.044 Q134.556 121.044 136.362 117.503 Q138.191 113.938 138.191 106.831 Q138.191 99.7019 136.362 96.1603 Q134.556 92.5955 130.922 92.5955 M130.922 88.8918 Q136.732 88.8918 139.788 93.4982 Q142.867 98.0815 142.867 106.831 Q142.867 115.558 139.788 120.165 Q136.732 124.748 130.922 124.748 Q125.112 124.748 122.033 120.165 Q118.978 115.558 118.978 106.831 Q118.978 98.0815 122.033 93.4982 Q125.112 88.8918 130.922 88.8918 Z" fill="#000000" fill-rule="nonzero" fill-opacity="1" /><path clip-path="url(#clip560)" d="M161.084 92.5955 Q157.473 92.5955 155.644 96.1603 Q153.839 99.7019 153.839 106.831 Q153.839 113.938 155.644 117.503 Q157.473 121.044 161.084 121.044 Q164.718 121.044 166.524 117.503 Q168.353 113.938 168.353 106.831 Q168.353 99.7019 166.524 96.1603 Q164.718 92.5955 161.084 92.5955 M161.084 88.8918 Q166.894 88.8918 169.95 93.4982 Q173.029 98.0815 173.029 106.831 Q173.029 115.558 169.95 120.165 Q166.894 124.748 161.084 124.748 Q155.274 124.748 152.195 120.165 Q149.14 115.558 149.14 106.831 Q149.14 98.0815 152.195 93.4982 Q155.274 88.8918 161.084 88.8918 Z" fill="#000000" fill-rule="nonzero" fill-opacity="1" /><polyline clip-path="url(#clip562)" style="stroke:#009af9; stroke-linecap:round; stroke-linejoin:round; stroke-width:4; stroke-opacity:1; fill:none" points="269.7,460.48 270.712,460.497 271.723,449.1 272.735,449.13 273.747,477.772 274.759,477.786 275.77,174.366 276.782,174.377 277.794,214.352 278.805,214.362 279.817,555.066 280.829,555.074 281.84,472.113 282.852,472.127 283.864,346.067 284.876,346.073 285.887,392.274 286.899,392.293 287.911,466.579 288.922,466.593 289.934,386.599 290.946,386.61 291.957,457.933 292.969,457.948 293.981,366.578 294.992,366.595 296.004,329.508 297.016,329.52 298.028,489.648 299.039,489.659 300.051,647.547 301.063,647.576 302.074,166.281 303.086,166.287 304.098,467.318 305.109,467.335 306.121,726.998 307.133,727.006 308.145,524.75 309.156,524.776 310.168,358.538 311.18,358.553 312.191,498.32 313.203,498.326 314.215,164.499 315.226,164.508 316.238,307.522 317.25,307.541 318.262,512.539 319.273,512.541 320.285,567.21 321.297,567.227 322.308,481.174 323.32,481.17 324.332,276.41 325.343,276.422 326.355,513.246 327.367,513.258 328.379,361.527 329.39,361.537 330.402,110.425 331.414,110.436 332.425,196.306 333.437,196.32 334.449,238.497 335.46,238.511 336.472,273.309 337.484,273.328 338.496,122.335 339.507,122.342 340.519,627.37 341.531,627.386 342.542,199.357 343.554,199.361 344.566,211.143 345.577,211.154 346.589,460.075 347.601,460.097 348.612,788.518 349.624,788.55 350.636,159.313 351.648,159.321 352.659,376.759 353.671,376.758 354.683,315.058 355.694,315.084 356.706,302.245 357.718,302.244 358.729,770.305 359.741,770.315 360.753,460.005 361.765,460.015 362.776,410.504 363.788,410.522 364.8,393.464 365.811,393.478 366.823,332.523 367.835,332.547 368.846,558.314 369.858,558.316 370.87,403.597 371.882,403.621 372.893,319.856 373.905,319.872 374.917,396.86 375.928,396.878 376.94,625.901 377.952,625.92 378.963,587.559 379.975,587.576 380.987,270.293 381.999,270.296 383.01,413.179 384.022,413.19 385.034,471.437 386.045,471.456 387.057,586.331 388.069,586.35 389.08,539.136 390.092,539.14 391.104,317.875 392.115,317.884 393.127,331.953 394.139,331.967 395.151,343.802 396.162,343.817 397.174,827.535 398.186,827.538 399.197,375.366 400.209,375.379 401.221,336.589 402.232,336.595 403.244,320.401 404.256,320.417 405.268,422.267 406.279,422.267 407.291,656.103 408.303,656.113 409.314,527.375 410.326,527.372 411.338,500.379 412.349,500.39 413.361,439.956 414.373,439.968 415.385,213.894 416.396,213.907 417.408,602.735 418.42,602.754 419.431,406.963 420.443,406.975 421.455,426.464 422.466,426.47 423.478,295.918 424.49,295.93 425.502,485.032 426.513,485.041 427.525,427.46 428.537,427.479 429.548,517.819 430.56,517.83 431.572,277.081 432.583,277.083 433.595,327.567 434.607,327.583 435.619,533.893 436.63,533.914 437.642,518.028 438.654,518.04 439.665,363.512 440.677,363.53 441.689,211.79 442.7,211.8 443.712,550.893 444.724,550.896 445.735,539.005 446.747,539.004 447.759,688.701 448.771,688.713 449.782,535.641 450.794,535.656 451.806,741.511 452.817,741.51 453.829,403.426 454.841,403.417 455.852,392.035 456.864,392.055 457.876,219.303 458.888,219.319 459.899,451.222 460.911,451.242 461.923,154.219 462.934,154.228 463.946,806.091 464.958,806.091 465.969,169.983 466.981,169.991 467.993,653.297 469.005,653.32 470.016,406.516 471.028,406.522 472.04,640.503 473.051,640.515 474.063,313.743 475.075,313.756 476.086,461.45 477.098,461.451 478.11,379.459 479.122,379.469 480.133,224.079 481.145,224.092 482.157,336.791 483.168,336.799 484.18,435.207 485.192,435.229 486.203,422.469 487.215,422.495 488.227,401.426 489.239,401.437 490.25,590.022 491.262,590.038 492.274,464.799 493.285,464.818 494.297,453.314 495.309,453.331 496.32,236.061 497.332,236.069 498.344,157.287 499.355,157.289 500.367,275.17 501.379,275.184 502.391,650.286 503.402,650.299 504.414,559.47 505.426,559.483 506.437,395.883 507.449,395.899 508.461,621.139 509.472,621.136 510.484,409.856 511.496,409.873 512.508,234.599 513.519,234.608 514.531,770.171 515.543,770.153 516.554,471.609 517.566,471.627 518.578,374.378 519.589,374.391 520.601,396.586 521.613,396.601 522.625,367.681 523.636,367.69 524.648,422.327 525.66,422.338 526.671,649.241 527.683,649.252 528.695,782.995 529.706,782.991 530.718,283.159 531.73,283.174 532.742,205.465 533.753,205.475 534.765,307.562 535.777,307.57 536.788,244.467 537.8,244.479 538.812,648.767 539.823,648.774 540.835,436.791 541.847,436.802 542.859,763.33 543.87,763.339 544.882,491.806 545.894,491.811 546.905,630.55 547.917,630.563 548.929,496.883 549.94,496.883 550.952,722.109 551.964,722.119 552.975,557.991 553.987,557.992 554.999,87.9763 556.011,87.978 557.022,569.745 558.034,569.758 559.046,204.795 560.057,204.805 561.069,455.176 562.081,455.186 563.092,317.63 564.104,317.633 565.116,261.03 566.128,261.035 567.139,281.956 568.151,281.964 569.163,536.833 570.174,536.833 571.186,723.831 572.198,723.839 573.209,458.951 574.221,458.965 575.233,495.549 576.245,495.558 577.256,561.982 578.268,561.98 579.28,497.63 580.291,497.645 581.303,606.332 582.315,606.338 583.326,386.615 584.338,386.623 585.35,161.406 586.362,161.412 587.373,437.893 588.385,437.901 589.397,459.661 590.408,459.678 591.42,358.23 592.432,358.237 593.443,516.474 594.455,516.494 595.467,400.862 596.478,400.873 597.49,308.493 598.502,308.494 599.514,591.045 600.525,591.05 601.537,430.635 602.549,430.654 603.56,403.466 604.572,403.469 605.584,498.118 606.595,498.133 607.607,670.255 608.619,670.265 609.631,596.089 610.642,596.099 611.654,342.194 612.666,342.212 613.677,508.991 614.689,509.001 615.701,514.953 616.712,514.961 617.724,325.793 618.736,325.798 619.748,463.174 620.759,463.178 621.771,468.306 622.783,468.321 623.794,521.698 624.806,521.705 625.818,390.158 626.829,390.166 627.841,687.287 628.853,687.297 629.865,363.526 630.876,363.533 631.888,339.836 632.9,339.848 633.911,285.656 634.923,285.666 635.935,282.423 636.946,282.428 637.958,411.545 638.97,411.559 639.982,304.206 640.993,304.203 642.005,695.473 643.017,695.498 644.028,444.926 645.04,444.938 646.052,472.18 647.063,472.185 648.075,459.559 649.087,459.576 650.098,460.439 651.11,460.441 652.122,421.013 653.134,421.009 654.145,406.877 655.157,406.898 656.169,366.434 657.18,366.425 658.192,520.566 659.204,520.566 660.215,493.041 661.227,493.056 662.239,605.011 663.251,605.016 664.262,699.119 665.274,699.135 666.286,621.042 667.297,621.051 668.309,320.903 669.321,320.906 670.332,355.402 671.344,355.415 672.356,588.837 673.368,588.845 674.379,584.235 675.391,584.235 676.403,493.639 677.414,493.654 678.426,520.106 679.438,520.113 680.449,159.786 681.461,159.789 682.473,576.384 683.485,576.392 684.496,322.937 685.508,322.944 686.52,702.065 687.531,702.072 688.543,526.12 689.555,526.115 690.566,245.84 691.578,245.843 692.59,357.264 693.602,357.274 694.613,190.076 695.625,190.081 696.637,732.928 697.648,732.923 698.66,380.089 699.672,380.098 700.683,1079.34 701.695,1079.33 702.707,472.672 703.718,472.664 704.73,531.552 705.742,531.552 706.754,471.95 707.765,471.959 708.777,240.612 709.789,240.621 710.8,383.115 711.812,383.12 712.824,805.743 713.835,805.742 714.847,416.345 715.859,416.343 716.871,477.105 717.882,477.126 718.894,286.745 719.906,286.758 720.917,598.371 721.929,598.385 722.941,590.098 723.952,590.1 724.964,617.038 725.976,617.06 726.988,337.856 727.999,337.859 729.011,417.06 730.023,417.071 731.034,511.823 732.046,511.833 733.058,451.481 734.069,451.485 735.081,570.088 736.093,570.098 737.105,354.819 738.116,354.826 739.128,479.358 740.14,479.362 741.151,372.905 742.163,372.914 743.175,570.409 744.186,570.414 745.198,371.334 746.21,371.341 747.222,657.494 748.233,657.495 749.245,510.942 750.257,510.947 751.268,370.582 752.28,370.593 753.292,379.676 754.303,379.681 755.315,650.825 756.327,650.828 757.338,212.154 758.35,212.158 759.362,516.613 760.374,516.628 761.385,706.782 762.397,706.787 763.409,721.829 764.42,721.838 765.432,477.917 766.444,477.938 767.455,557.857 768.467,557.864 769.479,261.622 770.491,261.631 771.502,519.21 772.514,519.231 773.526,472.87 774.537,472.874 775.549,389.615 776.561,389.622 777.572,376.91 778.584,376.916 779.596,459.674 780.608,459.685 781.619,539.856 782.631,539.869 783.643,277.528 784.654,277.538 785.666,414.099 786.678,414.107 787.689,391.098 788.701,391.1 789.713,636.486 790.725,636.484 791.736,660.473 792.748,660.454 793.76,262.802 794.771,262.799 795.783,280.919 796.795,280.932 797.806,804.2 798.818,804.224 799.83,628.645 800.841,628.647 801.853,838.952 802.865,838.934 803.877,737.848 804.888,737.857 805.9,447.31 806.912,447.321 807.923,612.713 808.935,612.718 809.947,507.336 810.958,507.346 811.97,574.452 812.982,574.447 813.994,659.812 815.005,659.828 816.017,437.097 817.029,437.092 818.04,664.867 819.052,664.874 820.064,396.943 821.075,396.946 822.087,476.721 823.099,476.738 824.111,522.645 825.122,522.644 826.134,642.081 827.146,642.085 828.157,365.663 829.169,365.675 830.181,492.862 831.192,492.877 832.204,631.9 833.216,631.892 834.228,385.816 835.239,385.82 836.251,305.433 837.263,305.443 838.274,516.049 839.286,516.044 840.298,713.955 841.309,713.97 842.321,666.434 843.333,666.441 844.345,599.873 845.356,599.891 846.368,428.193 847.38,428.206 848.391,323.972 849.403,323.982 850.415,575.285 851.426,575.294 852.438,384.132 853.45,384.142 854.461,896.021 855.473,895.997 856.485,551.113 857.497,551.124 858.508,848.409 859.52,848.404 860.532,406.003 861.543,406.019 862.555,364.037 863.567,364.048 864.578,474.05 865.59,474.054 866.602,784.53 867.614,784.531 868.625,543.13 869.637,543.131 870.649,621.323 871.66,621.333 872.672,348.895 873.684,348.906 874.695,528.109 875.707,528.112 876.719,399.66 877.731,399.672 878.742,639.65 879.754,639.666 880.766,684.909 881.777,684.909 882.789,638.416 883.801,638.414 884.812,395.232 885.824,395.242 886.836,337.627 887.848,337.628 888.859,934.429 889.871,934.425 890.883,592.334 891.894,592.35 892.906,782.361 893.918,782.348 894.929,455.446 895.941,455.453 896.953,533.132 897.965,533.13 898.976,359.281 899.988,359.288 901,702.384 902.011,702.389 903.023,581.292 904.035,581.306 905.046,574.664 906.058,574.673 907.07,786.319 908.081,786.318 909.093,432.178 910.105,432.191 911.117,546.921 912.128,546.944 913.14,738.491 914.152,738.493 915.163,809.941 916.175,809.945 917.187,457.018 918.198,457.025 919.21,386.227 920.222,386.237 921.234,466.368 922.245,466.38 923.257,320.906 924.269,320.911 925.28,485.512 926.292,485.522 927.304,570.232 928.315,570.217 929.327,375.184 930.339,375.191 931.351,670.465 932.362,670.464 933.374,467.159 934.386,467.174 935.397,722.103 936.409,722.096 937.421,439.209 938.432,439.205 939.444,660.467 940.456,660.466 941.468,600.739 942.479,600.738 943.491,332.343 944.503,332.34 945.514,388.036 946.526,388.043 947.538,657.461 948.549,657.443 949.561,531.128 950.573,531.138 951.585,453.102 952.596,453.104 953.608,493.517 954.62,493.531 955.631,615.044 956.643,615.049 957.655,532.178 958.666,532.182 959.678,508.98 960.69,508.978 961.701,727.8 962.713,727.805 963.725,906.544 964.737,906.539 965.748,487.839 966.76,487.847 967.772,586.233 968.783,586.221 969.795,622.422 970.807,622.428 971.818,486.165 972.83,486.174 973.842,518.141 974.854,518.137 975.865,461.383 976.877,461.381 977.889,641.364 978.9,641.363 979.912,496.269 980.924,496.271 981.935,865.773 982.947,865.767 983.959,574.925 984.971,574.902 985.982,528.507 986.994,528.508 988.006,658.276 989.017,658.283 990.029,634.665 991.041,634.67 992.052,479.432 993.064,479.433 994.076,660.958 995.088,660.96 996.099,669.252 997.111,669.265 998.123,614.754 999.134,614.766 1000.15,760.347 1001.16,760.341 1002.17,701.688 1003.18,701.698 1004.19,606.391 1005.2,606.389 1006.22,487.061 1007.23,487.059 1008.24,459.412 1009.25,459.408 1010.26,413.436 1011.27,413.442 1012.29,567.931 1013.3,567.94 1014.31,564.173 1015.32,564.185 1016.33,1080.51 1017.34,1080.49 1018.36,574.383 1019.37,574.386 1020.38,784.392 1021.39,784.401 1022.4,563.947 1023.42,563.94 1024.43,1010.19 1025.44,1010.18 1026.45,405.972 1027.46,405.978 1028.47,471.993 1029.49,472.01 1030.5,558.096 1031.51,558.101 1032.52,809.306 1033.53,809.282 1034.54,863.307 1035.56,863.279 1036.57,635.609 1037.58,635.602 1038.59,359.67 1039.6,359.667 1040.61,660.828 1041.63,660.836 1042.64,559.555 1043.65,559.556 1044.66,628.689 1045.67,628.676 1046.68,648.59 1047.7,648.602 1048.71,693.898 1049.72,693.904 1050.73,827.87 1051.74,827.888 1052.75,802.622 1053.77,802.608 1054.78,127.324 1055.79,127.325 1056.8,643.909 1057.81,643.905 1058.82,495.238 1059.84,495.248 1060.85,452.351 1061.86,452.359 1062.87,354.426 1063.88,354.432 1064.89,440.496 1065.91,440.504 1066.92,487.684 1067.93,487.68 1068.94,586.283 1069.95,586.289 1070.96,720.136 1071.98,720.11 1072.99,299.153 1074,299.158 1075.01,851.172 1076.02,851.17 1077.04,539.364 1078.05,539.378 1079.06,791.333 1080.07,791.338 1081.08,756.698 1082.09,756.701 1083.11,279.129 1084.12,279.126 1085.13,724.03 1086.14,724.03 1087.15,514.044 1088.16,514.047 1089.18,858.728 1090.19,858.707 1091.2,592.49 1092.21,592.5 1093.22,720.377 1094.23,720.38 1095.25,538.721 1096.26,538.717 1097.27,628.008 1098.28,628.005 1099.29,806.976 1100.3,806.944 1101.32,775.144 1102.33,775.16 1103.34,639.557 1104.35,639.562 1105.36,758.987 1106.37,758.973 1107.39,656.475 1108.4,656.477 1109.41,427.106 1110.42,427.11 1111.43,530.245 1112.44,530.241 1113.46,672.696 1114.47,672.694 1115.48,448.882 1116.49,448.881 1117.5,500.823 1118.51,500.828 1119.53,433.061 1120.54,433.071 1121.55,716.005 1122.56,715.995 1123.57,504.537 1124.58,504.527 1125.6,528.887 1126.61,528.889 1127.62,687.672 1128.63,687.664 1129.64,872.272 1130.66,872.271 1131.67,700.127 1132.68,700.111 1133.69,675.499 1134.7,675.488 1135.71,447.534 1136.73,447.532 1137.74,513.854 1138.75,513.859 1139.76,405.975 1140.77,405.975 1141.78,843.416 1142.8,843.417 1143.81,653.171 1144.82,653.176 1145.83,262.657 1146.84,262.643 1147.85,439.794 1148.87,439.796 1149.88,521.323 1150.89,521.334 1151.9,821.422 1152.91,821.427 1153.92,845.887 1154.94,845.878 1155.95,576.941 1156.96,576.952 1157.97,644.392 1158.98,644.397 1159.99,373.419 1161.01,373.427 1162.02,418.319 1163.03,418.324 1164.04,702.396 1165.05,702.394 1166.06,720.387 1167.08,720.392 1168.09,361.805 1169.1,361.801 1170.11,542.136 1171.12,542.143 1172.13,609.955 1173.15,609.954 1174.16,910.271 1175.17,910.235 1176.18,1048.6 1177.19,1048.58 1178.2,603.214 1179.22,603.214 1180.23,602.683 1181.24,602.687 1182.25,342.652 1183.26,342.651 1184.28,465.308 1185.29,465.316 1186.3,711.267 1187.31,711.274 1188.32,940.842 1189.33,940.827 1190.35,430.235 1191.36,430.234 1192.37,622.545 1193.38,622.55 1194.39,447.624 1195.4,447.63 1196.42,770.367 1197.43,770.371 1198.44,569.287 1199.45,569.289 1200.46,589.725 1201.47,589.723 1202.49,810.057 1203.5,810.045 1204.51,776.928 1205.52,776.935 1206.53,614.775 1207.54,614.774 1208.56,708.516 1209.57,708.517 1210.58,857.151 1211.59,857.162 1212.6,612.175 1213.61,612.183 1214.63,955.606 1215.64,955.58 1216.65,775.704 1217.66,775.712 1218.67,474.617 1219.68,474.624 1220.7,712.224 1221.71,712.223 1222.72,828.646 1223.73,828.638 1224.74,412.447 1225.75,412.451 1226.77,812.041 1227.78,812.045 1228.79,601.526 1229.8,601.537 1230.81,517.864 1231.82,517.848 1232.84,757.223 1233.85,757.236 1234.86,654.088 1235.87,654.1 1236.88,672.174 1237.9,672.181 1238.91,442.032 1239.92,442.043 1240.93,787.272 1241.94,787.276 1242.95,404.164 1243.97,404.165 1244.98,884.74 1245.99,884.721 1247,885.988 1248.01,885.968 1249.02,616.904 1250.04,616.903 1251.05,474.009 1252.06,474.011 1253.07,794.34 1254.08,794.332 1255.09,811.459 1256.11,811.467 1257.12,397.723 1258.13,397.723 1259.14,604.063 1260.15,604.063 1261.16,438.865 1262.18,438.86 1263.19,626.843 1264.2,626.848 1265.21,848.816 1266.22,848.805 1267.23,1012.19 1268.25,1012.19 1269.26,523.104 1270.27,523.11 1271.28,576.197 1272.29,576.201 1273.3,733.583 1274.32,733.585 1275.33,941.777 1276.34,941.777 1277.35,409.176 1278.36,409.178 1279.37,806.298 1280.39,806.287 1281.4,1016.81 1282.41,1016.78 1283.42,633.236 1284.43,633.247 1285.44,725.875 1286.46,725.872 1287.47,778.139 1288.48,778.136 1289.49,566.65 1290.5,566.624 1291.52,742.141 1292.53,742.139 1293.54,842.107 1294.55,842.096 1295.56,617.624 1296.57,617.628 1297.59,668.286 1298.6,668.299 1299.61,682.156 1300.62,682.152 1301.63,771.9 1302.64,771.906 1303.66,931.831 1304.67,931.834 1305.68,930.992 1306.69,930.99 1307.7,598.822 1308.71,598.812 1309.73,660.031 1310.74,660.036 1311.75,828.03 1312.76,828.037 1313.77,817.67 1314.78,817.675 1315.8,839.435 1316.81,839.437 1317.82,758.815 1318.83,758.817 1319.84,578.705 1320.85,578.7 1321.87,659.745 1322.88,659.749 1323.89,643.637 1324.9,643.642 1325.91,615.314 1326.92,615.317 1327.94,500.092 1328.95,500.088 1329.96,809.368 1330.97,809.366 1331.98,605.492 1332.99,605.491 1334.01,760.296 1335.02,760.297 1336.03,650.522 1337.04,650.51 1338.05,568.14 1339.06,568.148 1340.08,757.87 1341.09,757.875 1342.1,871.349 1343.11,871.339 1344.12,1044.83 1345.14,1044.79 1346.15,668.117 1347.16,668.122 1348.17,601.512 1349.18,601.509 1350.19,598.378 1351.21,598.378 1352.22,827.693 1353.23,827.697 1354.24,841.091 1355.25,841.076 1356.26,585.981 1357.28,585.987 1358.29,811.469 1359.3,811.486 1360.31,656.092 1361.32,656.084 1362.33,636.935 1363.35,636.943 1364.36,931.034 1365.37,931.016 1366.38,772.83 1367.39,772.817 1368.4,979.921 1369.42,979.895 1370.43,654.734 1371.44,654.742 1372.45,454.761 1373.46,454.758 1374.47,721.797 1375.49,721.786 1376.5,726.182 1377.51,726.165 1378.52,462.921 1379.53,462.904 1380.54,610.019 1381.56,609.999 1382.57,966.194 1383.58,966.202 1384.59,613.68 1385.6,613.691 1386.61,633.1 1387.63,633.103 1388.64,456.303 1389.65,456.306 1390.66,495.299 1391.67,495.297 1392.68,998.148 1393.7,998.115 1394.71,757.417 1395.72,757.404 1396.73,886.446 1397.74,886.436 1398.76,713.38 1399.77,713.37 1400.78,628.675 1401.79,628.679 1402.8,689.691 1403.81,689.683 1404.83,804.44 1405.84,804.426 1406.85,817.214 1407.86,817.2 1408.87,714.312 1409.88,714.313 1410.9,750.156 1411.91,750.153 1412.92,726.385 1413.93,726.377 1414.94,720.699 1415.95,720.686 1416.97,606.226 1417.98,606.224 1418.99,565.284 1420,565.281 1421.01,741.602 1422.02,741.598 1423.04,828.808 1424.05,828.803 1425.06,760.702 1426.07,760.704 1427.08,753.447 1428.09,753.443 1429.11,931.989 1430.12,931.975 1431.13,829.141 1432.14,829.14 1433.15,775.437 1434.16,775.427 1435.18,862.303 1436.19,862.287 1437.2,710.343 1438.21,710.345 1439.22,637.269 1440.23,637.272 1441.25,809.639 1442.26,809.629 1443.27,533.609 1444.28,533.615 1445.29,744.559 1446.3,744.567 1447.32,553.381 1448.33,553.38 1449.34,657.533 1450.35,657.522 1451.36,566.117 1452.38,566.114 1453.39,601.299 1454.4,601.299 1455.41,835.531 1456.42,835.535 1457.43,766.014 1458.45,766.029 1459.46,541.225 1460.47,541.231 1461.48,887.5 1462.49,887.491 1463.5,882.29 1464.52,882.272 1465.53,501.329 1466.54,501.322 1467.55,763.585 1468.56,763.593 1469.57,617.907 1470.59,617.912 1471.6,487.278 1472.61,487.275 1473.62,729.6 1474.63,729.593 1475.64,740.32 1476.66,740.327 1477.67,901.962 1478.68,901.922 1479.69,520.13 1480.7,520.128 1481.71,1093.55 1482.73,1093.52 1483.74,704.653 1484.75,704.636 1485.76,572.842 1486.77,572.832 1487.78,813.145 1488.8,813.149 1489.81,852.806 1490.82,852.815 1491.83,574.739 1492.84,574.726 1493.85,561.704 1494.87,561.704 1495.88,943.116 1496.89,943.098 1497.9,589.169 1498.91,589.168 1499.92,738.01 1500.94,737.992 1501.95,723.516 1502.96,723.503 1503.97,737.264 1504.98,737.257 1506,646.685 1507.01,646.668 1508.02,730.786 1509.03,730.78 1510.04,868.982 1511.05,868.969 1512.07,550.783 1513.08,550.782 1514.09,713.461 1515.1,713.438 1516.11,668.123 1517.12,668.133 1518.14,770.28 1519.15,770.253 1520.16,831.019 1521.17,831.012 1522.18,924.446 1523.19,924.441 1524.21,661.089 1525.22,661.1 1526.23,790.96 1527.24,790.961 1528.25,803.121 1529.26,803.105 1530.28,706.294 1531.29,706.297 1532.3,642.332 1533.31,642.34 1534.32,665.514 1535.33,665.511 1536.35,803.085 1537.36,803.058 1538.37,688.475 1539.38,688.472 1540.39,844.054 1541.4,844.046 1542.42,838.755 1543.43,838.742 1544.44,951.325 1545.45,951.32 1546.46,802.393 1547.47,802.386 1548.49,794.668 1549.5,794.675 1550.51,798.593 1551.52,798.569 1552.53,940.466 1553.54,940.468 1554.56,784.106 1555.57,784.103 1556.58,779.331 1557.59,779.323 1558.6,663.203 1559.62,663.18 1560.63,749.876 1561.64,749.876 1562.65,825.362 1563.66,825.341 1564.67,887.515 1565.69,887.505 1566.7,874.397 1567.71,874.383 1568.72,488.099 1569.73,488.088 1570.74,738.474 1571.76,738.471 1572.77,530.249 1573.78,530.247 1574.79,535.995 1575.8,535.999 1576.81,840.719 1577.83,840.713 1578.84,738.219 1579.85,738.22 1580.86,988.481 1581.87,988.441 1582.88,787.097 1583.9,787.075 1584.91,1039.5 1585.92,1039.49 1586.93,870.598 1587.94,870.584 1588.95,910.519 1589.97,910.506 1590.98,956.84 1591.99,956.816 1593,544.744 1594.01,544.742 1595.02,881.49 1596.04,881.488 1597.05,1225.95 1598.06,1225.95 1599.07,1019.04 1600.08,1019.01 1601.09,798.987 1602.11,798.975 1603.12,514.835 1604.13,514.837 1605.14,867.81 1606.15,867.804 1607.16,806.145 1608.18,806.131 1609.19,524.973 1610.2,524.975 1611.21,418.939 1612.22,418.934 1613.24,915.796 1614.25,915.78 1615.26,786.08 1616.27,786.069 1617.28,878.542 1618.29,878.535 1619.31,834.183 1620.32,834.183 1621.33,552.088 1622.34,552.082 1623.35,807.749 1624.36,807.748 1625.38,697.661 1626.39,697.657 1627.4,629.577 1628.41,629.583 1629.42,598.26 1630.43,598.245 1631.45,796.044 1632.46,796.018 1633.47,631.258 1634.48,631.243 1635.49,656.938 1636.5,656.927 1637.52,420.466 1638.53,420.465 1639.54,690.661 1640.55,690.644 1641.56,716.24 1642.57,716.227 1643.59,1249.49 1644.6,1249.46 1645.61,726.231 1646.62,726.208 1647.63,937.972 1648.64,937.957 1649.66,606.066 1650.67,606.067 1651.68,779.296 1652.69,779.291 1653.7,836.876 1654.71,836.856 1655.73,939.947 1656.74,939.935 1657.75,845.21 1658.76,845.202 1659.77,875.421 1660.78,875.425 1661.8,629.283 1662.81,629.278 1663.82,824.846 1664.83,824.823 1665.84,752.303 1666.86,752.287 1667.87,875.338 1668.88,875.338 1669.89,1000.28 1670.9,1000.27 1671.91,915.213 1672.93,915.197 1673.94,733.4 1674.95,733.385 1675.96,970.955 1676.97,970.941 1677.98,949.172 1679,949.145 1680.01,944.777 1681.02,944.765 1682.03,729.705 1683.04,729.691 1684.05,761.166 1685.07,761.165 1686.08,753.478 1687.09,753.474 1688.1,656.282 1689.11,656.28 1690.12,939.052 1691.14,939.031 1692.15,982.393 1693.16,982.355 1694.17,1079.97 1695.18,1079.96 1696.19,1213.2 1697.21,1213.13 1698.22,855.642 1699.23,855.631 1700.24,876.107 1701.25,876.105 1702.26,773.243 1703.28,773.234 1704.29,542.191 1705.3,542.194 1706.31,792.305 1707.32,792.303 1708.33,599.559 1709.35,599.555 1710.36,921.379 1711.37,921.371 1712.38,549.921 1713.39,549.91 1714.4,772.405 1715.42,772.398 1716.43,552.014 1717.44,552.005 1718.45,719.16 1719.46,719.152 1720.47,642.871 1721.49,642.863 1722.5,781.221 1723.51,781.22 1724.52,1160.85 1725.53,1160.85 1726.55,1048.78 1727.56,1048.76 1728.57,1176.35 1729.58,1176.34 1730.59,640.339 1731.6,640.333 1732.62,1065.92 1733.63,1065.89 1734.64,456.134 1735.65,456.128 1736.66,1081.22 1737.67,1081.19 1738.69,700.467 1739.7,700.476 1740.71,962.289 1741.72,962.288 1742.73,765.41 1743.74,765.395 1744.76,871.733 1745.77,871.725 1746.78,779.76 1747.79,779.765 1748.8,666.076 1749.81,666.063 1750.83,589.418 1751.84,589.427 1752.85,729.002 1753.86,728.997 1754.87,948.211 1755.88,948.194 1756.9,495.538 1757.91,495.535 1758.92,437.259 1759.93,437.253 1760.94,856.311 1761.95,856.307 1762.97,959.209 1763.98,959.187 1764.99,673.631 1766,673.626 1767.01,820.562 1768.02,820.539 1769.04,846.964 1770.05,846.952 1771.06,706.203 1772.07,706.199 1773.08,769.664 1774.09,769.66 1775.11,842.018 1776.12,842.002 1777.13,822.545 1778.14,822.524 1779.15,876.24 1780.17,876.233 1781.18,1060.82 1782.19,1060.79 1783.2,677.946 1784.21,677.946 1785.22,781.333 1786.24,781.329 1787.25,1149.47 1788.26,1149.41 1789.27,664.12 1790.28,664.104 1791.29,974.804 1792.31,974.783 1793.32,930.833 1794.33,930.817 1795.34,623.25 1796.35,623.247 1797.36,862.996 1798.38,862.993 1799.39,802.449 1800.4,802.435 1801.41,749.289 1802.42,749.273 1803.43,839.99 1804.45,839.966 1805.46,702.672 1806.47,702.671 1807.48,851.832 1808.49,851.808 1809.5,731.505 1810.52,731.488 1811.53,915.755 1812.54,915.727 1813.55,700.968 1814.56,700.962 1815.57,882.202 1816.59,882.201 1817.6,658.826 1818.61,658.818 1819.62,965.721 1820.63,965.714 1821.64,888.586 1822.66,888.582 1823.67,984.894 1824.68,984.886 1825.69,880.046 1826.7,880.008 1827.71,814.158 1828.73,814.134 1829.74,880.935 1830.75,880.935 1831.76,969.742 1832.77,969.725 1833.79,878.578 1834.8,878.563 1835.81,874.458 1836.82,874.431 1837.83,828.474 1838.84,828.464 1839.86,932.166 1840.87,932.152 1841.88,478.95 1842.89,478.951 1843.9,1037.12 1844.91,1037.08 1845.93,948.456 1846.94,948.421 1847.95,965.554 1848.96,965.543 1849.97,590.553 1850.98,590.547 1852,786.488 1853.01,786.486 1854.02,708.897 1855.03,708.887 1856.04,576.601 1857.05,576.589 1858.07,912.729 1859.08,912.716 1860.09,812.202 1861.1,812.176 1862.11,1055.02 1863.12,1054.96 1864.14,732.438 1865.15,732.428 1866.16,932.182 1867.17,932.167 1868.18,936.317 1869.19,936.308 1870.21,882.568 1871.22,882.549 1872.23,782.706 1873.24,782.698 1874.25,1092.13 1875.26,1092.11 1876.28,921.179 1877.29,921.164 1878.3,791.827 1879.31,791.823 1880.32,817.843 1881.33,817.823 1882.35,767.303 1883.36,767.294 1884.37,968.129 1885.38,968.094 1886.39,1015.39 1887.41,1015.37 1888.42,1046.72 1889.43,1046.69 1890.44,929.05 1891.45,929.036 1892.46,737.246 1893.48,737.242 1894.49,924.381 1895.5,924.381 1896.51,1038.68 1897.52,1038.66 1898.53,891.264 1899.55,891.264 1900.56,794.689 1901.57,794.675 1902.58,1216.45 1903.59,1216.4 1904.6,756.304 1905.62,756.281 1906.63,816.151 1907.64,816.129 1908.65,689.396 1909.66,689.382 1910.67,711.386 1911.69,711.385 1912.7,990.981 1913.71,990.955 1914.72,889.212 1915.73,889.194 1916.74,756.255 1917.76,756.246 1918.77,712.547 1919.78,712.539 1920.79,886.02 1921.8,886.005 1922.81,1012.63 1923.83,1012.62 1924.84,1253.4 1925.85,1253.33 1926.86,838.487 1927.87,838.484 1928.88,953.7 1929.9,953.681 1930.91,885.553 1931.92,885.548 1932.93,1112.14 1933.94,1112.11 1934.95,505.871 1935.97,505.869 1936.98,742.123 1937.99,742.103 1939,912.51 1940.01,912.494 1941.03,1045.75 1942.04,1045.71 1943.05,864.862 1944.06,864.857 1945.07,986.948 1946.08,986.908 1947.1,642.006 1948.11,641.99 1949.12,926.21 1950.13,926.202 1951.14,937.65 1952.15,937.638 1953.17,724.462 1954.18,724.452 1955.19,866.782 1956.2,866.747 1957.21,1044.01 1958.22,1043.99 1959.24,801.977 1960.25,801.973 1961.26,1247.94 1962.27,1247.91 1963.28,638.8 1964.29,638.788 1965.31,950.107 1966.32,950.09 1967.33,959.483 1968.34,959.486 1969.35,1068.25 1970.36,1068.22 1971.38,1076.76 1972.39,1076.75 1973.4,530.474 1974.41,530.466 1975.42,1049.91 1976.43,1049.89 1977.45,973.363 1978.46,973.346 1979.47,993.445 1980.48,993.434 1981.49,966.439 1982.5,966.419 1983.52,857.73 1984.53,857.709 1985.54,643.508 1986.55,643.497 1987.56,1002.79 1988.57,1002.74 1989.59,981.422 1990.6,981.409 1991.61,800.797 1992.62,800.788 1993.63,784.515 1994.65,784.499 1995.66,1062.35 1996.67,1062.33 1997.68,1079.46 1998.69,1079.43 1999.7,1219.1 2000.72,1219.07 2001.73,1068.56 2002.74,1068.56 2003.75,720.351 2004.76,720.353 2005.77,1073.37 2006.79,1073.33 2007.8,824.141 2008.81,824.137 2009.82,1125.07 2010.83,1125.04 2011.84,743.82 2012.86,743.812 2013.87,592.212 2014.88,592.203 2015.89,856.392 2016.9,856.38 2017.91,756.837 2018.93,756.82 2019.94,1002.79 2020.95,1002.78 2021.96,1445.72 2022.97,1445.63 2023.98,736.132 2025,736.118 2026.01,952.897 2027.02,952.881 2028.03,1137.93 2029.04,1137.9 2030.05,984.095 2031.07,984.09 2032.08,986.454 2033.09,986.429 2034.1,857.387 2035.11,857.376 2036.12,817.345 2037.14,817.327 2038.15,1253.85 2039.16,1253.78 2040.17,844.273 2041.18,844.261 2042.19,1263.69 2043.21,1263.64 2044.22,822.599 2045.23,822.587 2046.24,853.466 2047.25,853.457 2048.27,816.844 2049.28,816.831 2050.29,782.556 2051.3,782.543 2052.31,837.309 2053.32,837.295 2054.34,809.659 2055.35,809.64 2056.36,926.832 2057.37,926.819 2058.38,823.481 2059.39,823.473 2060.41,870.763 2061.42,870.735 2062.43,909.833 2063.44,909.821 2064.45,888.282 2065.46,888.255 2066.48,821.129 2067.49,821.107 2068.5,748.686 2069.51,748.674 2070.52,566.659 2071.53,566.655 2072.55,1268.45 2073.56,1268.41 2074.57,821.775 2075.58,821.766 2076.59,859.692 2077.6,859.658 2078.62,880.866 2079.63,880.853 2080.64,1268.81 2081.65,1268.77 2082.66,1126.15 2083.67,1126.14 2084.69,753.844 2085.7,753.818 2086.71,647.182 2087.72,647.173 2088.73,1034.4 2089.74,1034.38 2090.76,1213.83 2091.77,1213.81 2092.78,1142.44 2093.79,1142.42 2094.8,809.56 2095.81,809.557 2096.83,828.503 2097.84,828.506 2098.85,1145.55 2099.86,1145.54 2100.87,1143.21 2101.89,1143.18 2102.9,858.591 2103.91,858.574 2104.92,1000.47 2105.93,1000.44 2106.94,689.415 2107.96,689.391 2108.97,1073.79 2109.98,1073.78 2110.99,865.835 2112,865.824 2113.01,929.032 2114.03,929.016 2115.04,947.758 2116.05,947.736 2117.06,1364.78 2118.07,1364.72 2119.08,803.309 2120.1,803.278 2121.11,599.905 2122.12,599.888 2123.13,1021.81 2124.14,1021.78 2125.15,1256.75 2126.17,1256.71 2127.18,989.261 2128.19,989.249 2129.2,1074.46 2130.21,1074.44 2131.22,848.619 2132.24,848.605 2133.25,885.85 2134.26,885.844 2135.27,1161.52 2136.28,1161.5 2137.29,982.175 2138.31,982.14 2139.32,1348.93 2140.33,1348.88 2141.34,765.467 2142.35,765.448 2143.36,983.15 2144.38,983.134 2145.39,978.505 2146.4,978.501 2147.41,982.441 2148.42,982.425 2149.43,1000.38 2150.45,1000.37 2151.46,1103.45 2152.47,1103.43 2153.48,1090.55 2154.49,1090.52 2155.51,1038.16 2156.52,1038.13 2157.53,965.969 2158.54,965.96 2159.55,1005.47 2160.56,1005.45 2161.58,855.333 2162.59,855.32 2163.6,1010.57 2164.61,1010.56 2165.62,876.932 2166.63,876.916 2167.65,692.797 2168.66,692.787 2169.67,918.223 2170.68,918.195 2171.69,867.106 2172.7,867.083 2173.72,1014.14 2174.73,1014.11 2175.74,811.981 2176.75,811.967 2177.76,968.528 2178.77,968.509 2179.79,996.935 2180.8,996.924 2181.81,1142.49 2182.82,1142.46 2183.83,1019.84 2184.84,1019.83 2185.86,1190.82 2186.87,1190.79 2187.88,866.585 2188.89,866.563 2189.9,857.842 2190.91,857.846 2191.93,1026.27 2192.94,1026.26 2193.95,827.539 2194.96,827.525 2195.97,1111.76 2196.98,1111.72 2198,1103 2199.01,1102.97 2200.02,1131.75 2201.03,1131.73 2202.04,910.361 2203.05,910.33 2204.07,950.825 2205.08,950.813 2206.09,903.644 2207.1,903.641 2208.11,1048.16 2209.13,1048.14 2210.14,958.808 2211.15,958.778 2212.16,1249.91 2213.17,1249.86 2214.18,798.447 2215.2,798.428 2216.21,851.38 2217.22,851.376 2218.23,1034.49 2219.24,1034.47 2220.25,988.128 2221.27,988.108 2222.28,804.346 2223.29,804.336 2224.3,908.238 2225.31,908.22 2226.32,1054.39 2227.34,1054.37 2228.35,1183.76 2229.36,1183.73 2230.37,962.513 2231.38,962.501 2232.39,925.641 2233.41,925.631 2234.42,771.603 2235.43,771.582 2236.44,1012.88 2237.45,1012.84 2238.46,878.605 2239.48,878.593 2240.49,1099.88 2241.5,1099.85 2242.51,764.057 2243.52,764.047 2244.53,1051.71 2245.55,1051.67 2246.56,1146.05 2247.57,1146.03 2248.58,1179.28 2249.59,1179.24 2250.6,955.589 2251.62,955.553 2252.63,958.62 2253.64,958.597 2254.65,922.427 2255.66,922.409 2256.67,872.769 2257.69,872.746 2258.7,1223.9 2259.71,1223.86 2260.72,845.409 2261.73,845.399 2262.75,1016.6 2263.76,1016.58 2264.77,1063.28 2265.78,1063.25 2266.79,1115.77 2267.8,1115.76 2268.82,859.046 2269.83,859.034 2270.84,1053.92 2271.85,1053.89 2272.86,1069.42 2273.87,1069.39 2274.89,1078.99 2275.9,1078.95 2276.91,1031.94 2277.92,1031.93 2278.93,1326.54 2279.94,1326.48 2280.96,1062.52 2281.97,1062.49 2282.98,1340.26 2283.99,1340.21 2285,1036.16 2286.01,1036.15 2287.03,633.396 2288.04,633.382 2289.05,828.385 2290.06,828.372 2291.07,1165.92 2292.08,1165.9 "/>
<path clip-path="url(#clip560)" d="M2014.5 198.898 L2281.3 198.898 L2281.3 95.2176 L2014.5 95.2176  Z" fill="#ffffff" fill-rule="evenodd" fill-opacity="1"/>
<polyline clip-path="url(#clip560)" style="stroke:#000000; stroke-linecap:round; stroke-linejoin:round; stroke-width:4; stroke-opacity:1; fill:none" points="2014.5,198.898 2281.3,198.898 2281.3,95.2176 2014.5,95.2176 2014.5,198.898 "/>
<polyline clip-path="url(#clip560)" style="stroke:#009af9; stroke-linecap:round; stroke-linejoin:round; stroke-width:4; stroke-opacity:1; fill:none" points="2038.31,147.058 2181.23,147.058 "/>
<path clip-path="url(#clip560)" d="M2218.89 166.745 Q2217.09 171.375 2215.37 172.787 Q2213.66 174.199 2210.79 174.199 L2207.39 174.199 L2207.39 170.634 L2209.89 170.634 Q2211.65 170.634 2212.62 169.8 Q2213.59 168.967 2214.77 165.865 L2215.53 163.921 L2205.05 138.412 L2209.56 138.412 L2217.66 158.689 L2225.77 138.412 L2230.28 138.412 L2218.89 166.745 Z" fill="#000000" fill-rule="nonzero" fill-opacity="1" /><path clip-path="url(#clip560)" d="M2237.57 160.402 L2245.21 160.402 L2245.21 134.037 L2236.9 135.703 L2236.9 131.444 L2245.16 129.778 L2249.84 129.778 L2249.84 160.402 L2257.48 160.402 L2257.48 164.338 L2237.57 164.338 L2237.57 160.402 Z" fill="#000000" fill-rule="nonzero" fill-opacity="1" /></svg>
