<?xml version="1.0" encoding="utf-8"?>
<svg xmlns="http://www.w3.org/2000/svg" xmlns:xlink="http://www.w3.org/1999/xlink" width="600" height="400" viewBox="0 0 2400 1600">
<defs>
  <clipPath id="clip180">
    <rect x="0" y="0" width="2400" height="1600"/>
  </clipPath>
</defs>
<path clip-path="url(#clip180)" d="M0 1600 L2400 1600 L2400 0 L0 0  Z" fill="#ffffff" fill-rule="evenodd" fill-opacity="1"/>
<defs>
  <clipPath id="clip181">
    <rect x="480" y="0" width="1681" height="1600"/>
  </clipPath>
</defs>
<path clip-path="url(#clip180)" d="M156.274 1486.45 L2352.76 1486.45 L2352.76 47.2441 L156.274 47.2441  Z" fill="#ffffff" fill-rule="evenodd" fill-opacity="1"/>
<defs>
  <clipPath id="clip182">
    <rect x="156" y="47" width="2197" height="1440"/>
  </clipPath>
</defs>
<polyline clip-path="url(#clip182)" style="stroke:#000000; stroke-linecap:round; stroke-linejoin:round; stroke-width:2; stroke-opacity:0.1; fill:none" points="218.439,1486.45 218.439,47.2441 "/>
<polyline clip-path="url(#clip182)" style="stroke:#000000; stroke-linecap:round; stroke-linejoin:round; stroke-width:2; stroke-opacity:0.1; fill:none" points="736.995,1486.45 736.995,47.2441 "/>
<polyline clip-path="url(#clip182)" style="stroke:#000000; stroke-linecap:round; stroke-linejoin:round; stroke-width:2; stroke-opacity:0.1; fill:none" points="1255.55,1486.45 1255.55,47.2441 "/>
<polyline clip-path="url(#clip182)" style="stroke:#000000; stroke-linecap:round; stroke-linejoin:round; stroke-width:2; stroke-opacity:0.1; fill:none" points="1774.11,1486.45 1774.11,47.2441 "/>
<polyline clip-path="url(#clip182)" style="stroke:#000000; stroke-linecap:round; stroke-linejoin:round; stroke-width:2; stroke-opacity:0.1; fill:none" points="2292.67,1486.45 2292.67,47.2441 "/>
<polyline clip-path="url(#clip180)" style="stroke:#000000; stroke-linecap:round; stroke-linejoin:round; stroke-width:4; stroke-opacity:1; fill:none" points="156.274,1486.45 2352.76,1486.45 "/>
<polyline clip-path="url(#clip180)" style="stroke:#000000; stroke-linecap:round; stroke-linejoin:round; stroke-width:4; stroke-opacity:1; fill:none" points="218.439,1486.45 218.439,1467.55 "/>
<polyline clip-path="url(#clip180)" style="stroke:#000000; stroke-linecap:round; stroke-linejoin:round; stroke-width:4; stroke-opacity:1; fill:none" points="736.995,1486.45 736.995,1467.55 "/>
<polyline clip-path="url(#clip180)" style="stroke:#000000; stroke-linecap:round; stroke-linejoin:round; stroke-width:4; stroke-opacity:1; fill:none" points="1255.55,1486.45 1255.55,1467.55 "/>
<polyline clip-path="url(#clip180)" style="stroke:#000000; stroke-linecap:round; stroke-linejoin:round; stroke-width:4; stroke-opacity:1; fill:none" points="1774.11,1486.45 1774.11,1467.55 "/>
<polyline clip-path="url(#clip180)" style="stroke:#000000; stroke-linecap:round; stroke-linejoin:round; stroke-width:4; stroke-opacity:1; fill:none" points="2292.67,1486.45 2292.67,1467.55 "/>
<path clip-path="url(#clip180)" d="M218.439 1517.37 Q214.828 1517.37 212.999 1520.93 Q211.193 1524.47 211.193 1531.6 Q211.193 1538.71 212.999 1542.27 Q214.828 1545.82 218.439 1545.82 Q222.073 1545.82 223.879 1542.27 Q225.707 1538.71 225.707 1531.6 Q225.707 1524.47 223.879 1520.93 Q222.073 1517.37 218.439 1517.37 M218.439 1513.66 Q224.249 1513.66 227.304 1518.27 Q230.383 1522.85 230.383 1531.6 Q230.383 1540.33 227.304 1544.94 Q224.249 1549.52 218.439 1549.52 Q212.629 1549.52 209.55 1544.94 Q206.494 1540.33 206.494 1531.6 Q206.494 1522.85 209.55 1518.27 Q212.629 1513.66 218.439 1513.66 Z" fill="#000000" fill-rule="nonzero" fill-opacity="1" /><path clip-path="url(#clip180)" d="M700.688 1544.91 L717.007 1544.91 L717.007 1548.85 L695.063 1548.85 L695.063 1544.91 Q697.725 1542.16 702.308 1537.53 Q706.915 1532.88 708.095 1531.53 Q710.34 1529.01 711.22 1527.27 Q712.123 1525.51 712.123 1523.82 Q712.123 1521.07 710.178 1519.33 Q708.257 1517.6 705.155 1517.6 Q702.956 1517.6 700.503 1518.36 Q698.072 1519.13 695.294 1520.68 L695.294 1515.95 Q698.118 1514.82 700.572 1514.24 Q703.026 1513.66 705.063 1513.66 Q710.433 1513.66 713.628 1516.35 Q716.822 1519.03 716.822 1523.52 Q716.822 1525.65 716.012 1527.57 Q715.225 1529.47 713.118 1532.07 Q712.54 1532.74 709.438 1535.95 Q706.336 1539.15 700.688 1544.91 Z" fill="#000000" fill-rule="nonzero" fill-opacity="1" /><path clip-path="url(#clip180)" d="M726.868 1514.29 L745.225 1514.29 L745.225 1518.22 L731.151 1518.22 L731.151 1526.7 Q732.169 1526.35 733.188 1526.19 Q734.206 1526 735.225 1526 Q741.012 1526 744.391 1529.17 Q747.771 1532.34 747.771 1537.76 Q747.771 1543.34 744.299 1546.44 Q740.826 1549.52 734.507 1549.52 Q732.331 1549.52 730.063 1549.15 Q727.817 1548.78 725.41 1548.04 L725.41 1543.34 Q727.493 1544.47 729.715 1545.03 Q731.938 1545.58 734.414 1545.58 Q738.419 1545.58 740.757 1543.48 Q743.095 1541.37 743.095 1537.76 Q743.095 1534.15 740.757 1532.04 Q738.419 1529.94 734.414 1529.94 Q732.539 1529.94 730.664 1530.35 Q728.813 1530.77 726.868 1531.65 L726.868 1514.29 Z" fill="#000000" fill-rule="nonzero" fill-opacity="1" /><path clip-path="url(#clip180)" d="M766.984 1517.37 Q763.373 1517.37 761.544 1520.93 Q759.738 1524.47 759.738 1531.6 Q759.738 1538.71 761.544 1542.27 Q763.373 1545.82 766.984 1545.82 Q770.618 1545.82 772.423 1542.27 Q774.252 1538.71 774.252 1531.6 Q774.252 1524.47 772.423 1520.93 Q770.618 1517.37 766.984 1517.37 M766.984 1513.66 Q772.794 1513.66 775.849 1518.27 Q778.928 1522.85 778.928 1531.6 Q778.928 1540.33 775.849 1544.94 Q772.794 1549.52 766.984 1549.52 Q761.174 1549.52 758.095 1544.94 Q755.039 1540.33 755.039 1531.6 Q755.039 1522.85 758.095 1518.27 Q761.174 1513.66 766.984 1513.66 Z" fill="#000000" fill-rule="nonzero" fill-opacity="1" /><path clip-path="url(#clip180)" d="M1215.17 1514.29 L1233.53 1514.29 L1233.53 1518.22 L1219.45 1518.22 L1219.45 1526.7 Q1220.47 1526.35 1221.49 1526.19 Q1222.51 1526 1223.53 1526 Q1229.31 1526 1232.69 1529.17 Q1236.07 1532.34 1236.07 1537.76 Q1236.07 1543.34 1232.6 1546.44 Q1229.13 1549.52 1222.81 1549.52 Q1220.63 1549.52 1218.36 1549.15 Q1216.12 1548.78 1213.71 1548.04 L1213.71 1543.34 Q1215.8 1544.47 1218.02 1545.03 Q1220.24 1545.58 1222.72 1545.58 Q1226.72 1545.58 1229.06 1543.48 Q1231.4 1541.37 1231.4 1537.76 Q1231.4 1534.15 1229.06 1532.04 Q1226.72 1529.94 1222.72 1529.94 Q1220.84 1529.94 1218.97 1530.35 Q1217.11 1530.77 1215.17 1531.65 L1215.17 1514.29 Z" fill="#000000" fill-rule="nonzero" fill-opacity="1" /><path clip-path="url(#clip180)" d="M1255.29 1517.37 Q1251.67 1517.37 1249.85 1520.93 Q1248.04 1524.47 1248.04 1531.6 Q1248.04 1538.71 1249.85 1542.27 Q1251.67 1545.82 1255.29 1545.82 Q1258.92 1545.82 1260.73 1542.27 Q1262.55 1538.71 1262.55 1531.6 Q1262.55 1524.47 1260.73 1520.93 Q1258.92 1517.37 1255.29 1517.37 M1255.29 1513.66 Q1261.1 1513.66 1264.15 1518.27 Q1267.23 1522.85 1267.23 1531.6 Q1267.23 1540.33 1264.15 1544.94 Q1261.1 1549.52 1255.29 1549.52 Q1249.48 1549.52 1246.4 1544.94 Q1243.34 1540.33 1243.34 1531.6 Q1243.34 1522.85 1246.4 1518.27 Q1249.48 1513.66 1255.29 1513.66 Z" fill="#000000" fill-rule="nonzero" fill-opacity="1" /><path clip-path="url(#clip180)" d="M1285.45 1517.37 Q1281.84 1517.37 1280.01 1520.93 Q1278.2 1524.47 1278.2 1531.6 Q1278.2 1538.71 1280.01 1542.27 Q1281.84 1545.82 1285.45 1545.82 Q1289.08 1545.82 1290.89 1542.27 Q1292.72 1538.71 1292.72 1531.6 Q1292.72 1524.47 1290.89 1520.93 Q1289.08 1517.37 1285.45 1517.37 M1285.45 1513.66 Q1291.26 1513.66 1294.31 1518.27 Q1297.39 1522.85 1297.39 1531.6 Q1297.39 1540.33 1294.31 1544.94 Q1291.26 1549.52 1285.45 1549.52 Q1279.64 1549.52 1276.56 1544.94 Q1273.5 1540.33 1273.5 1531.6 Q1273.5 1522.85 1276.56 1518.27 Q1279.64 1513.66 1285.45 1513.66 Z" fill="#000000" fill-rule="nonzero" fill-opacity="1" /><path clip-path="url(#clip180)" d="M1732.38 1514.29 L1754.61 1514.29 L1754.61 1516.28 L1742.06 1548.85 L1737.18 1548.85 L1748.98 1518.22 L1732.38 1518.22 L1732.38 1514.29 Z" fill="#000000" fill-rule="nonzero" fill-opacity="1" /><path clip-path="url(#clip180)" d="M1763.77 1514.29 L1782.13 1514.29 L1782.13 1518.22 L1768.06 1518.22 L1768.06 1526.7 Q1769.07 1526.35 1770.09 1526.19 Q1771.11 1526 1772.13 1526 Q1777.92 1526 1781.3 1529.17 Q1784.68 1532.34 1784.68 1537.76 Q1784.68 1543.34 1781.2 1546.44 Q1777.73 1549.52 1771.41 1549.52 Q1769.24 1549.52 1766.97 1549.15 Q1764.72 1548.78 1762.31 1548.04 L1762.31 1543.34 Q1764.4 1544.47 1766.62 1545.03 Q1768.84 1545.58 1771.32 1545.58 Q1775.32 1545.58 1777.66 1543.48 Q1780 1541.37 1780 1537.76 Q1780 1534.15 1777.66 1532.04 Q1775.32 1529.94 1771.32 1529.94 Q1769.44 1529.94 1767.57 1530.35 Q1765.72 1530.77 1763.77 1531.65 L1763.77 1514.29 Z" fill="#000000" fill-rule="nonzero" fill-opacity="1" /><path clip-path="url(#clip180)" d="M1803.89 1517.37 Q1800.28 1517.37 1798.45 1520.93 Q1796.64 1524.47 1796.64 1531.6 Q1796.64 1538.71 1798.45 1542.27 Q1800.28 1545.82 1803.89 1545.82 Q1807.52 1545.82 1809.33 1542.27 Q1811.16 1538.71 1811.16 1531.6 Q1811.16 1524.47 1809.33 1520.93 Q1807.52 1517.37 1803.89 1517.37 M1803.89 1513.66 Q1809.7 1513.66 1812.75 1518.27 Q1815.83 1522.85 1815.83 1531.6 Q1815.83 1540.33 1812.75 1544.94 Q1809.7 1549.52 1803.89 1549.52 Q1798.08 1549.52 1795 1544.94 Q1791.94 1540.33 1791.94 1531.6 Q1791.94 1522.85 1795 1518.27 Q1798.08 1513.66 1803.89 1513.66 Z" fill="#000000" fill-rule="nonzero" fill-opacity="1" /><path clip-path="url(#clip180)" d="M2237.19 1544.91 L2244.83 1544.91 L2244.83 1518.55 L2236.52 1520.21 L2236.52 1515.95 L2244.78 1514.29 L2249.46 1514.29 L2249.46 1544.91 L2257.1 1544.91 L2257.1 1548.85 L2237.19 1548.85 L2237.19 1544.91 Z" fill="#000000" fill-rule="nonzero" fill-opacity="1" /><path clip-path="url(#clip180)" d="M2276.54 1517.37 Q2272.93 1517.37 2271.1 1520.93 Q2269.3 1524.47 2269.3 1531.6 Q2269.3 1538.71 2271.1 1542.27 Q2272.93 1545.82 2276.54 1545.82 Q2280.18 1545.82 2281.98 1542.27 Q2283.81 1538.71 2283.81 1531.6 Q2283.81 1524.47 2281.98 1520.93 Q2280.18 1517.37 2276.54 1517.37 M2276.54 1513.66 Q2282.35 1513.66 2285.41 1518.27 Q2288.49 1522.85 2288.49 1531.6 Q2288.49 1540.33 2285.41 1544.94 Q2282.35 1549.52 2276.54 1549.52 Q2270.73 1549.52 2267.65 1544.94 Q2264.6 1540.33 2264.6 1531.6 Q2264.6 1522.85 2267.65 1518.27 Q2270.73 1513.66 2276.54 1513.66 Z" fill="#000000" fill-rule="nonzero" fill-opacity="1" /><path clip-path="url(#clip180)" d="M2306.7 1517.37 Q2303.09 1517.37 2301.27 1520.93 Q2299.46 1524.47 2299.46 1531.6 Q2299.46 1538.71 2301.27 1542.27 Q2303.09 1545.82 2306.7 1545.82 Q2310.34 1545.82 2312.14 1542.27 Q2313.97 1538.71 2313.97 1531.6 Q2313.97 1524.47 2312.14 1520.93 Q2310.34 1517.37 2306.7 1517.37 M2306.7 1513.66 Q2312.51 1513.66 2315.57 1518.27 Q2318.65 1522.85 2318.65 1531.6 Q2318.65 1540.33 2315.57 1544.94 Q2312.51 1549.52 2306.7 1549.52 Q2300.89 1549.52 2297.82 1544.94 Q2294.76 1540.33 2294.76 1531.6 Q2294.76 1522.85 2297.82 1518.27 Q2300.89 1513.66 2306.7 1513.66 Z" fill="#000000" fill-rule="nonzero" fill-opacity="1" /><path clip-path="url(#clip180)" d="M2336.87 1517.37 Q2333.26 1517.37 2331.43 1520.93 Q2329.62 1524.47 2329.62 1531.6 Q2329.62 1538.71 2331.43 1542.27 Q2333.26 1545.82 2336.87 1545.82 Q2340.5 1545.82 2342.31 1542.27 Q2344.14 1538.71 2344.14 1531.6 Q2344.14 1524.47 2342.31 1520.93 Q2340.5 1517.37 2336.87 1517.37 M2336.87 1513.66 Q2342.68 1513.66 2345.73 1518.27 Q2348.81 1522.85 2348.81 1531.6 Q2348.81 1540.33 2345.73 1544.94 Q2342.68 1549.52 2336.87 1549.52 Q2331.06 1549.52 2327.98 1544.94 Q2324.92 1540.33 2324.92 1531.6 Q2324.92 1522.85 2327.98 1518.27 Q2331.06 1513.66 2336.87 1513.66 Z" fill="#000000" fill-rule="nonzero" fill-opacity="1" /><polyline clip-path="url(#clip182)" style="stroke:#000000; stroke-linecap:round; stroke-linejoin:round; stroke-width:2; stroke-opacity:0.1; fill:none" points="156.274,1268.62 2352.76,1268.62 "/>
<polyline clip-path="url(#clip182)" style="stroke:#000000; stroke-linecap:round; stroke-linejoin:round; stroke-width:2; stroke-opacity:0.1; fill:none" points="156.274,973.459 2352.76,973.459 "/>
<polyline clip-path="url(#clip182)" style="stroke:#000000; stroke-linecap:round; stroke-linejoin:round; stroke-width:2; stroke-opacity:0.1; fill:none" points="156.274,678.298 2352.76,678.298 "/>
<polyline clip-path="url(#clip182)" style="stroke:#000000; stroke-linecap:round; stroke-linejoin:round; stroke-width:2; stroke-opacity:0.1; fill:none" points="156.274,383.137 2352.76,383.137 "/>
<polyline clip-path="url(#clip182)" style="stroke:#000000; stroke-linecap:round; stroke-linejoin:round; stroke-width:2; stroke-opacity:0.1; fill:none" points="156.274,87.9763 2352.76,87.9763 "/>
<polyline clip-path="url(#clip180)" style="stroke:#000000; stroke-linecap:round; stroke-linejoin:round; stroke-width:4; stroke-opacity:1; fill:none" points="156.274,1486.45 156.274,47.2441 "/>
<polyline clip-path="url(#clip180)" style="stroke:#000000; stroke-linecap:round; stroke-linejoin:round; stroke-width:4; stroke-opacity:1; fill:none" points="156.274,1268.62 175.172,1268.62 "/>
<polyline clip-path="url(#clip180)" style="stroke:#000000; stroke-linecap:round; stroke-linejoin:round; stroke-width:4; stroke-opacity:1; fill:none" points="156.274,973.459 175.172,973.459 "/>
<polyline clip-path="url(#clip180)" style="stroke:#000000; stroke-linecap:round; stroke-linejoin:round; stroke-width:4; stroke-opacity:1; fill:none" points="156.274,678.298 175.172,678.298 "/>
<polyline clip-path="url(#clip180)" style="stroke:#000000; stroke-linecap:round; stroke-linejoin:round; stroke-width:4; stroke-opacity:1; fill:none" points="156.274,383.137 175.172,383.137 "/>
<polyline clip-path="url(#clip180)" style="stroke:#000000; stroke-linecap:round; stroke-linejoin:round; stroke-width:4; stroke-opacity:1; fill:none" points="156.274,87.9763 175.172,87.9763 "/>
<path clip-path="url(#clip180)" d="M64.0939 1254.42 Q60.4828 1254.42 58.6541 1257.98 Q56.8486 1261.52 56.8486 1268.65 Q56.8486 1275.76 58.6541 1279.33 Q60.4828 1282.87 64.0939 1282.87 Q67.7281 1282.87 69.5337 1279.33 Q71.3624 1275.76 71.3624 1268.65 Q71.3624 1261.52 69.5337 1257.98 Q67.7281 1254.42 64.0939 1254.42 M64.0939 1250.71 Q69.9041 1250.71 72.9596 1255.32 Q76.0383 1259.9 76.0383 1268.65 Q76.0383 1277.38 72.9596 1281.99 Q69.9041 1286.57 64.0939 1286.57 Q58.2838 1286.57 55.2051 1281.99 Q52.1495 1277.38 52.1495 1268.65 Q52.1495 1259.9 55.2051 1255.32 Q58.2838 1250.71 64.0939 1250.71 Z" fill="#000000" fill-rule="nonzero" fill-opacity="1" /><path clip-path="url(#clip180)" d="M84.2558 1280.02 L89.1401 1280.02 L89.1401 1285.9 L84.2558 1285.9 L84.2558 1280.02 Z" fill="#000000" fill-rule="nonzero" fill-opacity="1" /><path clip-path="url(#clip180)" d="M99.3715 1251.34 L117.728 1251.34 L117.728 1255.27 L103.654 1255.27 L103.654 1263.75 Q104.672 1263.4 105.691 1263.24 Q106.709 1263.05 107.728 1263.05 Q113.515 1263.05 116.895 1266.22 Q120.274 1269.39 120.274 1274.81 Q120.274 1280.39 116.802 1283.49 Q113.33 1286.57 107.01 1286.57 Q104.834 1286.57 102.566 1286.2 Q100.321 1285.83 97.9132 1285.09 L97.9132 1280.39 Q99.9965 1281.52 102.219 1282.08 Q104.441 1282.64 106.918 1282.64 Q110.922 1282.64 113.26 1280.53 Q115.598 1278.42 115.598 1274.81 Q115.598 1271.2 113.26 1269.09 Q110.922 1266.99 106.918 1266.99 Q105.043 1266.99 103.168 1267.4 Q101.316 1267.82 99.3715 1268.7 L99.3715 1251.34 Z" fill="#000000" fill-rule="nonzero" fill-opacity="1" /><path clip-path="url(#clip180)" d="M62.9365 959.257 Q59.3254 959.257 57.4967 962.822 Q55.6912 966.364 55.6912 973.493 Q55.6912 980.6 57.4967 984.164 Q59.3254 987.706 62.9365 987.706 Q66.5707 987.706 68.3763 984.164 Q70.205 980.6 70.205 973.493 Q70.205 966.364 68.3763 962.822 Q66.5707 959.257 62.9365 959.257 M62.9365 955.554 Q68.7467 955.554 71.8022 960.16 Q74.8809 964.743 74.8809 973.493 Q74.8809 982.22 71.8022 986.826 Q68.7467 991.41 62.9365 991.41 Q57.1264 991.41 54.0477 986.826 Q50.9921 982.22 50.9921 973.493 Q50.9921 964.743 54.0477 960.16 Q57.1264 955.554 62.9365 955.554 Z" fill="#000000" fill-rule="nonzero" fill-opacity="1" /><path clip-path="url(#clip180)" d="M83.0984 984.859 L87.9827 984.859 L87.9827 990.739 L83.0984 990.739 L83.0984 984.859 Z" fill="#000000" fill-rule="nonzero" fill-opacity="1" /><path clip-path="url(#clip180)" d="M108.746 971.595 Q105.598 971.595 103.746 973.748 Q101.918 975.901 101.918 979.651 Q101.918 983.377 103.746 985.553 Q105.598 987.706 108.746 987.706 Q111.895 987.706 113.723 985.553 Q115.575 983.377 115.575 979.651 Q115.575 975.901 113.723 973.748 Q111.895 971.595 108.746 971.595 M118.029 956.942 L118.029 961.202 Q116.27 960.368 114.464 959.928 Q112.682 959.489 110.922 959.489 Q106.293 959.489 103.839 962.614 Q101.409 965.739 101.061 972.058 Q102.427 970.044 104.487 968.979 Q106.547 967.891 109.024 967.891 Q114.233 967.891 117.242 971.063 Q120.274 974.211 120.274 979.651 Q120.274 984.975 117.126 988.192 Q113.978 991.41 108.746 991.41 Q102.751 991.41 99.5798 986.826 Q96.4085 982.22 96.4085 973.493 Q96.4085 965.299 100.297 960.438 Q104.186 955.554 110.737 955.554 Q112.496 955.554 114.279 955.901 Q116.084 956.248 118.029 956.942 Z" fill="#000000" fill-rule="nonzero" fill-opacity="1" /><path clip-path="url(#clip180)" d="M64.0013 664.096 Q60.3902 664.096 58.5615 667.661 Q56.756 671.203 56.756 678.332 Q56.756 685.439 58.5615 689.004 Q60.3902 692.545 64.0013 692.545 Q67.6356 692.545 69.4411 689.004 Q71.2698 685.439 71.2698 678.332 Q71.2698 671.203 69.4411 667.661 Q67.6356 664.096 64.0013 664.096 M64.0013 660.393 Q69.8115 660.393 72.867 664.999 Q75.9457 669.583 75.9457 678.332 Q75.9457 687.059 72.867 691.666 Q69.8115 696.249 64.0013 696.249 Q58.1912 696.249 55.1125 691.666 Q52.0569 687.059 52.0569 678.332 Q52.0569 669.583 55.1125 664.999 Q58.1912 660.393 64.0013 660.393 Z" fill="#000000" fill-rule="nonzero" fill-opacity="1" /><path clip-path="url(#clip180)" d="M84.1632 689.698 L89.0475 689.698 L89.0475 695.578 L84.1632 695.578 L84.1632 689.698 Z" fill="#000000" fill-rule="nonzero" fill-opacity="1" /><path clip-path="url(#clip180)" d="M98.0521 661.018 L120.274 661.018 L120.274 663.008 L107.728 695.578 L102.844 695.578 L114.649 664.953 L98.0521 664.953 L98.0521 661.018 Z" fill="#000000" fill-rule="nonzero" fill-opacity="1" /><path clip-path="url(#clip180)" d="M63.1911 368.936 Q59.58 368.936 57.7513 372.501 Q55.9458 376.042 55.9458 383.172 Q55.9458 390.278 57.7513 393.843 Q59.58 397.385 63.1911 397.385 Q66.8254 397.385 68.6309 393.843 Q70.4596 390.278 70.4596 383.172 Q70.4596 376.042 68.6309 372.501 Q66.8254 368.936 63.1911 368.936 M63.1911 365.232 Q69.0013 365.232 72.0568 369.838 Q75.1355 374.422 75.1355 383.172 Q75.1355 391.899 72.0568 396.505 Q69.0013 401.088 63.1911 401.088 Q57.381 401.088 54.3023 396.505 Q51.2468 391.899 51.2468 383.172 Q51.2468 374.422 54.3023 369.838 Q57.381 365.232 63.1911 365.232 Z" fill="#000000" fill-rule="nonzero" fill-opacity="1" /><path clip-path="url(#clip180)" d="M83.3531 394.537 L88.2373 394.537 L88.2373 400.417 L83.3531 400.417 L83.3531 394.537 Z" fill="#000000" fill-rule="nonzero" fill-opacity="1" /><path clip-path="url(#clip180)" d="M108.422 384.005 Q105.089 384.005 103.168 385.787 Q101.27 387.57 101.27 390.695 Q101.27 393.82 103.168 395.602 Q105.089 397.385 108.422 397.385 Q111.756 397.385 113.677 395.602 Q115.598 393.797 115.598 390.695 Q115.598 387.57 113.677 385.787 Q111.779 384.005 108.422 384.005 M103.746 382.014 Q100.737 381.274 99.0474 379.213 Q97.3808 377.153 97.3808 374.19 Q97.3808 370.047 100.321 367.639 Q103.284 365.232 108.422 365.232 Q113.584 365.232 116.524 367.639 Q119.464 370.047 119.464 374.19 Q119.464 377.153 117.774 379.213 Q116.108 381.274 113.121 382.014 Q116.501 382.801 118.376 385.093 Q120.274 387.385 120.274 390.695 Q120.274 395.718 117.195 398.403 Q114.14 401.088 108.422 401.088 Q102.705 401.088 99.6261 398.403 Q96.5706 395.718 96.5706 390.695 Q96.5706 387.385 98.4687 385.093 Q100.367 382.801 103.746 382.014 M102.034 374.63 Q102.034 377.315 103.7 378.82 Q105.39 380.325 108.422 380.325 Q111.432 380.325 113.121 378.82 Q114.834 377.315 114.834 374.63 Q114.834 371.945 113.121 370.44 Q111.432 368.936 108.422 368.936 Q105.39 368.936 103.7 370.44 Q102.034 371.945 102.034 374.63 Z" fill="#000000" fill-rule="nonzero" fill-opacity="1" /><path clip-path="url(#clip180)" d="M63.2837 73.775 Q59.6726 73.775 57.8439 77.3398 Q56.0384 80.8814 56.0384 88.011 Q56.0384 95.1174 57.8439 98.6822 Q59.6726 102.224 63.2837 102.224 Q66.918 102.224 68.7235 98.6822 Q70.5522 95.1174 70.5522 88.011 Q70.5522 80.8814 68.7235 77.3398 Q66.918 73.775 63.2837 73.775 M63.2837 70.0713 Q69.0939 70.0713 72.1494 74.6777 Q75.2281 79.261 75.2281 88.011 Q75.2281 96.7378 72.1494 101.344 Q69.0939 105.928 63.2837 105.928 Q57.4736 105.928 54.3949 101.344 Q51.3393 96.7378 51.3393 88.011 Q51.3393 79.261 54.3949 74.6777 Q57.4736 70.0713 63.2837 70.0713 Z" fill="#000000" fill-rule="nonzero" fill-opacity="1" /><path clip-path="url(#clip180)" d="M83.4457 99.3767 L88.3299 99.3767 L88.3299 105.256 L83.4457 105.256 L83.4457 99.3767 Z" fill="#000000" fill-rule="nonzero" fill-opacity="1" /><path clip-path="url(#clip180)" d="M98.6539 104.539 L98.6539 100.279 Q100.413 101.113 102.219 101.553 Q104.024 101.992 105.76 101.992 Q110.39 101.992 112.82 98.8906 Q115.274 95.7656 115.621 89.423 Q114.279 91.4138 112.219 92.4786 Q110.158 93.5434 107.658 93.5434 Q102.473 93.5434 99.4409 90.4184 Q96.4317 87.2703 96.4317 81.8305 Q96.4317 76.5064 99.5798 73.2889 Q102.728 70.0713 107.959 70.0713 Q113.955 70.0713 117.103 74.6777 Q120.274 79.261 120.274 88.011 Q120.274 96.1823 116.385 101.066 Q112.52 105.928 105.969 105.928 Q104.209 105.928 102.404 105.58 Q100.598 105.233 98.6539 104.539 M107.959 89.886 Q111.108 89.886 112.936 87.7332 Q114.788 85.5805 114.788 81.8305 Q114.788 78.1036 112.936 75.9509 Q111.108 73.775 107.959 73.775 Q104.811 73.775 102.959 75.9509 Q101.131 78.1036 101.131 81.8305 Q101.131 85.5805 102.959 87.7332 Q104.811 89.886 107.959 89.886 Z" fill="#000000" fill-rule="nonzero" fill-opacity="1" /><polyline clip-path="url(#clip182)" style="stroke:#009af9; stroke-linecap:round; stroke-linejoin:round; stroke-width:4; stroke-opacity:1; fill:none" points="218.439,737.33 220.513,973.459 222.587,619.266 224.661,973.459 226.736,796.362 228.81,1032.49 230.884,737.33 232.958,1209.59 235.033,737.33 237.107,914.426 239.181,737.33 241.255,855.394 243.329,973.459 245.404,619.266 247.478,796.362 249.552,796.362 251.626,973.459 253.701,914.426 255.775,855.394 257.849,560.233 259.923,737.33 261.998,1445.72 264.072,855.394 266.146,796.362 268.22,678.298 270.294,914.426 272.369,796.362 274.443,619.266 276.517,678.298 278.591,796.362 280.666,973.459 282.74,442.169 284.814,796.362 286.888,973.459 288.962,1032.49 291.037,619.266 293.111,619.266 295.185,973.459 297.259,973.459 299.334,678.298 301.408,973.459 303.482,1091.52 305.556,914.426 307.63,796.362 309.705,1032.49 311.779,619.266 313.853,1032.49 315.927,560.233 318.002,678.298 320.076,1209.59 322.15,324.105 324.224,914.426 326.299,678.298 328.373,973.459 330.447,914.426 332.521,1032.49 334.595,796.362 336.67,1386.68 338.744,737.33 340.818,619.266 342.892,796.362 344.967,1327.65 347.041,560.233 349.115,973.459 351.189,855.394 353.263,737.33 355.338,973.459 357.412,914.426 359.486,1091.52 361.56,678.298 363.635,973.459 365.709,973.459 367.783,914.426 369.857,914.426 371.932,1091.52 374.006,973.459 376.08,1091.52 378.154,914.426 380.228,796.362 382.303,737.33 384.377,855.394 386.451,855.394 388.525,619.266 390.6,678.298 392.674,1209.59 394.748,324.105 396.822,737.33 398.896,914.426 400.971,678.298 403.045,1150.55 405.119,914.426 407.193,796.362 409.268,914.426 411.342,855.394 413.416,737.33 415.49,1091.52 417.565,796.362 419.639,619.266 421.713,1209.59 423.787,1268.62 425.861,1150.55 427.936,678.298 430.01,442.169 432.084,914.426 434.158,560.233 436.233,914.426 438.307,737.33 440.381,914.426 442.455,1032.49 444.529,914.426 446.604,973.459 448.678,973.459 450.752,914.426 452.826,914.426 454.901,678.298 456.975,678.298 459.049,973.459 461.123,973.459 463.198,678.298 465.272,796.362 467.346,560.233 469.42,678.298 471.494,855.394 473.569,737.33 475.643,855.394 477.717,914.426 479.791,855.394 481.866,678.298 483.94,973.459 486.014,796.362 488.088,1032.49 490.162,796.362 492.237,796.362 494.311,737.33 496.385,737.33 498.459,973.459 500.534,796.362 502.608,737.33 504.682,1091.52 506.756,678.298 508.83,855.394 510.905,914.426 512.979,914.426 515.053,973.459 517.127,737.33 519.202,619.266 521.276,796.362 523.35,973.459 525.424,1150.55 527.499,973.459 529.573,1091.52 531.647,619.266 533.721,1209.59 535.795,855.394 537.87,914.426 539.944,855.394 542.018,973.459 544.092,737.33 546.167,1091.52 548.241,1032.49 550.315,737.33 552.389,383.137 554.463,1209.59 556.538,737.33 558.612,1150.55 560.686,560.233 562.76,973.459 564.835,1032.49 566.909,737.33 568.983,1150.55 571.057,796.362 573.132,855.394 575.206,501.201 577.28,855.394 579.354,560.233 581.428,973.459 583.503,855.394 585.577,1209.59 587.651,973.459 589.725,796.362 591.8,973.459 593.874,914.426 595.948,973.459 598.022,1032.49 600.096,1209.59 602.171,914.426 604.245,796.362 606.319,855.394 608.393,855.394 610.468,678.298 612.542,796.362 614.616,1091.52 616.69,1091.52 618.765,442.169 620.839,1091.52 622.913,678.298 624.987,796.362 627.061,678.298 629.136,737.33 631.21,796.362 633.284,619.266 635.358,914.426 637.433,678.298 639.507,1091.52 641.581,973.459 643.655,678.298 645.729,855.394 647.804,1091.52 649.878,796.362 651.952,619.266 654.026,1091.52 656.101,796.362 658.175,973.459 660.249,1032.49 662.323,1150.55 664.398,914.426 666.472,796.362 668.546,914.426 670.62,619.266 672.694,1209.59 674.769,442.169 676.843,737.33 678.917,914.426 680.991,1150.55 683.066,1150.55 685.14,855.394 687.214,796.362 689.288,796.362 691.362,678.298 693.437,678.298 695.511,973.459 697.585,796.362 699.659,973.459 701.734,619.266 703.808,914.426 705.882,501.201 707.956,560.233 710.03,737.33 712.105,1209.59 714.179,973.459 716.253,1268.62 718.327,973.459 720.402,1032.49 722.476,1091.52 724.55,796.362 726.624,1032.49 728.699,855.394 730.773,383.137 732.847,560.233 734.921,914.426 736.995,737.33 739.07,973.459 741.144,973.459 743.218,1091.52 745.292,796.362 747.367,737.33 749.441,619.266 751.515,560.233 753.589,914.426 755.663,796.362 757.738,560.233 759.812,737.33 761.886,796.362 763.96,678.298 766.035,619.266 768.109,1268.62 770.183,1091.52 772.257,796.362 774.332,914.426 776.406,1091.52 778.48,796.362 780.554,619.266 782.628,383.137 784.703,1209.59 786.777,914.426 788.851,737.33 790.925,973.459 793,1209.59 795.074,619.266 797.148,1032.49 799.222,973.459 801.296,619.266 803.371,1150.55 805.445,1091.52 807.519,1032.49 809.593,973.459 811.668,914.426 813.742,1091.52 815.816,914.426 817.89,855.394 819.965,1091.52 822.039,737.33 824.113,1091.52 826.187,678.298 828.261,737.33 830.336,914.426 832.41,737.33 834.484,973.459 836.558,560.233 838.633,737.33 840.707,1150.55 842.781,1091.52 844.855,560.233 846.929,678.298 849.004,678.298 851.078,1032.49 853.152,1032.49 855.226,914.426 857.301,973.459 859.375,1032.49 861.449,973.459 863.523,1209.59 865.598,796.362 867.672,1091.52 869.746,678.298 871.82,1091.52 873.894,796.362 875.969,1032.49 878.043,973.459 880.117,560.233 882.191,973.459 884.266,619.266 886.34,973.459 888.414,914.426 890.488,796.362 892.562,855.394 894.637,914.426 896.711,796.362 898.785,560.233 900.859,1209.59 902.934,1150.55 905.008,973.459 907.082,855.394 909.156,1032.49 911.23,796.362 913.305,973.459 915.379,1150.55 917.453,619.266 919.527,678.298 921.602,855.394 923.676,737.33 925.75,973.459 927.824,1032.49 929.899,855.394 931.973,973.459 934.047,855.394 936.121,855.394 938.195,1091.52 940.27,855.394 942.344,914.426 944.418,1209.59 946.492,1091.52 948.567,1032.49 950.641,1032.49 952.715,855.394 954.789,1209.59 956.863,796.362 958.938,796.362 961.012,383.137 963.086,855.394 965.16,914.426 967.235,855.394 969.309,855.394 971.383,855.394 973.457,1032.49 975.532,796.362 977.606,796.362 979.68,855.394 981.754,1032.49 983.828,914.426 985.903,1032.49 987.977,619.266 990.051,796.362 992.125,560.233 994.2,855.394 996.274,1032.49 998.348,560.233 1000.42,442.169 1002.5,1327.65 1004.57,1091.52 1006.64,796.362 1008.72,973.459 1010.79,1150.55 1012.87,796.362 1014.94,796.362 1017.02,1091.52 1019.09,737.33 1021.16,973.459 1023.24,1091.52 1025.31,678.298 1027.39,1032.49 1029.46,914.426 1031.54,1268.62 1033.61,678.298 1035.68,914.426 1037.76,914.426 1039.83,1032.49 1041.91,855.394 1043.98,737.33 1046.06,1150.55 1048.13,914.426 1050.2,737.33 1052.28,442.169 1054.35,737.33 1056.43,501.201 1058.5,1150.55 1060.57,1150.55 1062.65,737.33 1064.72,1032.49 1066.8,796.362 1068.87,1091.52 1070.95,796.362 1073.02,855.394 1075.09,1091.52 1077.17,501.201 1079.24,973.459 1081.32,914.426 1083.39,1091.52 1085.47,1032.49 1087.54,796.362 1089.61,678.298 1091.69,855.394 1093.76,796.362 1095.84,619.266 1097.91,855.394 1099.99,383.137 1102.06,737.33 1104.13,796.362 1106.21,1032.49 1108.28,737.33 1110.36,1209.59 1112.43,1091.52 1114.5,737.33 1116.58,914.426 1118.65,1032.49 1120.73,855.394 1122.8,678.298 1124.88,678.298 1126.95,678.298 1129.02,619.266 1131.1,973.459 1133.17,973.459 1135.25,560.233 1137.32,501.201 1139.4,737.33 1141.47,501.201 1143.54,973.459 1145.62,619.266 1147.69,973.459 1149.77,1091.52 1151.84,501.201 1153.92,678.298 1155.99,914.426 1158.06,678.298 1160.14,1268.62 1162.21,1091.52 1164.29,1032.49 1166.36,678.298 1168.43,560.233 1170.51,737.33 1172.58,855.394 1174.66,1091.52 1176.73,737.33 1178.81,855.394 1180.88,796.362 1182.95,914.426 1185.03,973.459 1187.1,1209.59 1189.18,914.426 1191.25,737.33 1193.33,914.426 1195.4,737.33 1197.47,1150.55 1199.55,796.362 1201.62,1150.55 1203.7,1268.62 1205.77,619.266 1207.84,973.459 1209.92,1032.49 1211.99,796.362 1214.07,1268.62 1216.14,973.459 1218.22,678.298 1220.29,619.266 1222.36,678.298 1224.44,560.233 1226.51,501.201 1228.59,855.394 1230.66,737.33 1232.74,619.266 1234.81,914.426 1236.88,855.394 1238.96,914.426 1241.03,737.33 1243.11,973.459 1245.18,737.33 1247.26,914.426 1249.33,796.362 1251.4,737.33 1253.48,1209.59 1255.55,737.33 1257.63,737.33 1259.7,501.201 1261.77,619.266 1263.85,1091.52 1265.92,1386.68 1268,737.33 1270.07,1091.52 1272.15,796.362 1274.22,737.33 1276.29,914.426 1278.37,619.266 1280.44,796.362 1282.52,619.266 1284.59,1209.59 1286.67,914.426 1288.74,914.426 1290.81,796.362 1292.89,914.426 1294.96,914.426 1297.04,737.33 1299.11,973.459 1301.19,796.362 1303.26,560.233 1305.33,501.201 1307.41,796.362 1309.48,1032.49 1311.56,973.459 1313.63,796.362 1315.7,914.426 1317.78,796.362 1319.85,678.298 1321.93,973.459 1324,737.33 1326.08,619.266 1328.15,1091.52 1330.22,737.33 1332.3,855.394 1334.37,560.233 1336.45,560.233 1338.52,1150.55 1340.6,1150.55 1342.67,383.137 1344.74,737.33 1346.82,678.298 1348.89,1209.59 1350.97,619.266 1353.04,1032.49 1355.12,678.298 1357.19,678.298 1359.26,737.33 1361.34,796.362 1363.41,796.362 1365.49,914.426 1367.56,1032.49 1369.63,914.426 1371.71,855.394 1373.78,1032.49 1375.86,855.394 1377.93,796.362 1380.01,560.233 1382.08,1091.52 1384.15,737.33 1386.23,1032.49 1388.3,560.233 1390.38,619.266 1392.45,560.233 1394.53,442.169 1396.6,914.426 1398.67,914.426 1400.75,678.298 1402.82,737.33 1404.9,855.394 1406.97,973.459 1409.04,796.362 1411.12,678.298 1413.19,737.33 1415.27,1209.59 1417.34,796.362 1419.42,1032.49 1421.49,737.33 1423.56,1150.55 1425.64,737.33 1427.71,678.298 1429.79,973.459 1431.86,737.33 1433.94,619.266 1436.01,1209.59 1438.08,1032.49 1440.16,1150.55 1442.23,619.266 1444.31,855.394 1446.38,855.394 1448.46,973.459 1450.53,973.459 1452.6,855.394 1454.68,737.33 1456.75,796.362 1458.83,1150.55 1460.9,678.298 1462.97,737.33 1465.05,1032.49 1467.12,1327.65 1469.2,973.459 1471.27,1091.52 1473.35,1032.49 1475.42,678.298 1477.49,855.394 1479.57,619.266 1481.64,737.33 1483.72,973.459 1485.79,1032.49 1487.87,973.459 1489.94,855.394 1492.01,796.362 1494.09,855.394 1496.16,796.362 1498.24,855.394 1500.31,855.394 1502.39,619.266 1504.46,678.298 1506.53,855.394 1508.61,737.33 1510.68,678.298 1512.76,796.362 1514.83,678.298 1516.9,678.298 1518.98,678.298 1521.05,1032.49 1523.13,560.233 1525.2,265.073 1527.28,619.266 1529.35,796.362 1531.42,1091.52 1533.5,796.362 1535.57,914.426 1537.65,973.459 1539.72,1150.55 1541.8,678.298 1543.87,619.266 1545.94,501.201 1548.02,796.362 1550.09,1268.62 1552.17,973.459 1554.24,914.426 1556.32,678.298 1558.39,855.394 1560.46,796.362 1562.54,914.426 1564.61,914.426 1566.69,914.426 1568.76,560.233 1570.83,1209.59 1572.91,324.105 1574.98,796.362 1577.06,737.33 1579.13,855.394 1581.21,1091.52 1583.28,678.298 1585.35,1386.68 1587.43,973.459 1589.5,855.394 1591.58,1032.49 1593.65,1032.49 1595.73,1150.55 1597.8,1150.55 1599.87,324.105 1601.95,1032.49 1604.02,796.362 1606.1,737.33 1608.17,1150.55 1610.24,914.426 1612.32,442.169 1614.39,737.33 1616.47,1209.59 1618.54,796.362 1620.62,1091.52 1622.69,855.394 1624.76,1150.55 1626.84,442.169 1628.91,1091.52 1630.99,619.266 1633.06,678.298 1635.14,737.33 1637.21,324.105 1639.28,737.33 1641.36,1209.59 1643.43,678.298 1645.51,973.459 1647.58,560.233 1649.66,560.233 1651.73,383.137 1653.8,619.266 1655.88,442.169 1657.95,560.233 1660.03,619.266 1662.1,1091.52 1664.17,1032.49 1666.25,87.9763 1668.32,678.298 1670.4,1091.52 1672.47,855.394 1674.55,855.394 1676.62,1386.68 1678.69,796.362 1680.77,678.298 1682.84,560.233 1684.92,619.266 1686.99,442.169 1689.07,855.394 1691.14,1150.55 1693.21,973.459 1695.29,973.459 1697.36,678.298 1699.44,501.201 1701.51,501.201 1703.59,560.233 1705.66,678.298 1707.73,678.298 1709.81,737.33 1711.88,737.33 1713.96,796.362 1716.03,678.298 1718.1,914.426 1720.18,619.266 1722.25,560.233 1724.33,619.266 1726.4,678.298 1728.48,1209.59 1730.55,737.33 1732.62,855.394 1734.7,501.201 1736.77,914.426 1738.85,737.33 1740.92,678.298 1743,914.426 1745.07,914.426 1747.14,737.33 1749.22,796.362 1751.29,1032.49 1753.37,1386.68 1755.44,914.426 1757.52,737.33 1759.59,796.362 1761.66,501.201 1763.74,855.394 1765.81,914.426 1767.89,1032.49 1769.96,1032.49 1772.03,1032.49 1774.11,973.459 1776.18,737.33 1778.26,737.33 1780.33,796.362 1782.41,796.362 1784.48,796.362 1786.55,855.394 1788.63,678.298 1790.7,678.298 1792.78,678.298 1794.85,619.266 1796.93,383.137 1799,737.33 1801.07,619.266 1803.15,796.362 1805.22,973.459 1807.3,324.105 1809.37,560.233 1811.44,737.33 1813.52,737.33 1815.59,855.394 1817.67,737.33 1819.74,914.426 1821.82,560.233 1823.89,560.233 1825.96,737.33 1828.04,855.394 1830.11,973.459 1832.19,796.362 1834.26,1032.49 1836.34,1091.52 1838.41,914.426 1840.48,619.266 1842.56,1386.68 1844.63,973.459 1846.71,855.394 1848.78,1032.49 1850.86,973.459 1852.93,619.266 1855,855.394 1857.08,1032.49 1859.15,855.394 1861.23,1032.49 1863.3,737.33 1865.37,796.362 1867.45,678.298 1869.52,855.394 1871.6,796.362 1873.67,855.394 1875.75,737.33 1877.82,1268.62 1879.89,619.266 1881.97,324.105 1884.04,442.169 1886.12,1032.49 1888.19,796.362 1890.27,855.394 1892.34,737.33 1894.41,1209.59 1896.49,501.201 1898.56,678.298 1900.64,619.266 1902.71,1150.55 1904.79,796.362 1906.86,796.362 1908.93,265.073 1911.01,265.073 1913.08,914.426 1915.16,855.394 1917.23,914.426 1919.3,560.233 1921.38,737.33 1923.45,1032.49 1925.53,914.426 1927.6,796.362 1929.68,796.362 1931.75,619.266 1933.82,737.33 1935.9,560.233 1937.97,973.459 1940.05,737.33 1942.12,973.459 1944.2,619.266 1946.27,501.201 1948.34,855.394 1950.42,796.362 1952.49,560.233 1954.57,560.233 1956.64,796.362 1958.72,619.266 1960.79,737.33 1962.86,678.298 1964.94,619.266 1967.01,914.426 1969.09,501.201 1971.16,914.426 1973.23,796.362 1975.31,914.426 1977.38,560.233 1979.46,737.33 1981.53,796.362 1983.61,442.169 1985.68,560.233 1987.75,324.105 1989.83,796.362 1991.9,324.105 1993.98,619.266 1996.05,619.266 1998.13,1032.49 2000.2,1032.49 2002.27,678.298 2004.35,855.394 2006.42,914.426 2008.5,796.362 2010.57,678.298 2012.64,796.362 2014.72,501.201 2016.79,678.298 2018.87,855.394 2020.94,324.105 2023.02,324.105 2025.09,560.233 2027.16,560.233 2029.24,678.298 2031.31,973.459 2033.39,855.394 2035.46,1091.52 2037.54,619.266 2039.61,501.201 2041.68,442.169 2043.76,265.073 2045.83,560.233 2047.91,324.105 2049.98,678.298 2052.06,501.201 2054.13,383.137 2056.2,855.394 2058.28,678.298 2060.35,442.169 2062.43,737.33 2064.5,678.298 2066.57,383.137 2068.65,383.137 2070.72,973.459 2072.8,678.298 2074.87,560.233 2076.95,796.362 2079.02,560.233 2081.09,973.459 2083.17,973.459 2085.24,737.33 2087.32,796.362 2089.39,914.426 2091.47,855.394 2093.54,796.362 2095.61,324.105 2097.69,973.459 2099.76,560.233 2101.84,619.266 2103.91,855.394 2105.99,914.426 2108.06,973.459 2110.13,973.459 2112.21,619.266 2114.28,560.233 2116.36,737.33 2118.43,678.298 2120.5,973.459 2122.58,855.394 2124.65,973.459 2126.73,501.201 2128.8,914.426 2130.88,560.233 2132.95,796.362 2135.02,1150.55 2137.1,678.298 2139.17,501.201 2141.25,796.362 2143.32,501.201 2145.4,914.426 2147.47,560.233 2149.54,855.394 2151.62,855.394 2153.69,619.266 2155.77,914.426 2157.84,560.233 2159.92,678.298 2161.99,560.233 2164.06,737.33 2166.14,265.073 2168.21,442.169 2170.29,1091.52 2172.36,560.233 2174.43,796.362 2176.51,619.266 2178.58,383.137 2180.66,914.426 2182.73,796.362 2184.81,796.362 2186.88,560.233 2188.95,619.266 2191.03,1091.52 2193.1,265.073 2195.18,501.201 2197.25,973.459 2199.33,678.298 2201.4,560.233 2203.47,383.137 2205.55,501.201 2207.62,560.233 2209.7,973.459 2211.77,855.394 2213.84,737.33 2215.92,619.266 2217.99,855.394 2220.07,678.298 2222.14,619.266 2224.22,796.362 2226.29,796.362 2228.36,619.266 2230.44,914.426 2232.51,737.33 2234.59,442.169 2236.66,855.394 2238.74,1268.62 2240.81,678.298 2242.88,560.233 2244.96,501.201 2247.03,914.426 2249.11,678.298 2251.18,737.33 2253.26,442.169 2255.33,678.298 2257.4,1032.49 2259.48,619.266 2261.55,973.459 2263.63,678.298 2265.7,619.266 2267.77,501.201 2269.85,501.201 2271.92,973.459 2274,678.298 2276.07,914.426 2278.15,501.201 2280.22,914.426 2282.29,914.426 2284.37,501.201 2286.44,383.137 2288.52,855.394 2290.59,324.105 "/>
<path clip-path="url(#clip180)" d="M229.49 198.898 L501.569 198.898 L501.569 95.2176 L229.49 95.2176  Z" fill="#ffffff" fill-rule="evenodd" fill-opacity="1"/>
<polyline clip-path="url(#clip180)" style="stroke:#000000; stroke-linecap:round; stroke-linejoin:round; stroke-width:4; stroke-opacity:1; fill:none" points="229.49,198.898 501.569,198.898 501.569,95.2176 229.49,95.2176 229.49,198.898 "/>
<polyline clip-path="url(#clip180)" style="stroke:#009af9; stroke-linecap:round; stroke-linejoin:round; stroke-width:4; stroke-opacity:1; fill:none" points="253.896,147.058 400.328,147.058 "/>
<path clip-path="url(#clip180)" d="M438.576 166.745 Q436.77 171.375 435.057 172.787 Q433.344 174.199 430.474 174.199 L427.071 174.199 L427.071 170.634 L429.571 170.634 Q431.33 170.634 432.302 169.8 Q433.275 168.967 434.455 165.865 L435.219 163.921 L424.733 138.412 L429.247 138.412 L437.349 158.689 L445.451 138.412 L449.964 138.412 L438.576 166.745 Z" fill="#000000" fill-rule="nonzero" fill-opacity="1" /><path clip-path="url(#clip180)" d="M457.256 160.402 L464.895 160.402 L464.895 134.037 L456.585 135.703 L456.585 131.444 L464.849 129.778 L469.524 129.778 L469.524 160.402 L477.163 160.402 L477.163 164.338 L457.256 164.338 L457.256 160.402 Z" fill="#000000" fill-rule="nonzero" fill-opacity="1" /></svg>
