<?xml version="1.0" encoding="utf-8"?>
<svg xmlns="http://www.w3.org/2000/svg" xmlns:xlink="http://www.w3.org/1999/xlink" width="600" height="400" viewBox="0 0 2400 1600">
<defs>
  <clipPath id="clip120">
    <rect x="0" y="0" width="2400" height="1600"/>
  </clipPath>
</defs>
<path clip-path="url(#clip120)" d="M0 1600 L2400 1600 L2400 0 L0 0  Z" fill="#ffffff" fill-rule="evenodd" fill-opacity="1"/>
<defs>
  <clipPath id="clip121">
    <rect x="480" y="0" width="1681" height="1600"/>
  </clipPath>
</defs>
<path clip-path="url(#clip120)" d="M140.696 1486.45 L2352.76 1486.45 L2352.76 47.2441 L140.696 47.2441  Z" fill="#ffffff" fill-rule="evenodd" fill-opacity="1"/>
<defs>
  <clipPath id="clip122">
    <rect x="140" y="47" width="2213" height="1440"/>
  </clipPath>
</defs>
<polyline clip-path="url(#clip122)" style="stroke:#000000; stroke-linecap:round; stroke-linejoin:round; stroke-width:2; stroke-opacity:0.1; fill:none" points="203.301,1486.45 203.301,47.2441 "/>
<polyline clip-path="url(#clip122)" style="stroke:#000000; stroke-linecap:round; stroke-linejoin:round; stroke-width:2; stroke-opacity:0.1; fill:none" points="725.013,1486.45 725.013,47.2441 "/>
<polyline clip-path="url(#clip122)" style="stroke:#000000; stroke-linecap:round; stroke-linejoin:round; stroke-width:2; stroke-opacity:0.1; fill:none" points="1246.73,1486.45 1246.73,47.2441 "/>
<polyline clip-path="url(#clip122)" style="stroke:#000000; stroke-linecap:round; stroke-linejoin:round; stroke-width:2; stroke-opacity:0.1; fill:none" points="1768.44,1486.45 1768.44,47.2441 "/>
<polyline clip-path="url(#clip122)" style="stroke:#000000; stroke-linecap:round; stroke-linejoin:round; stroke-width:2; stroke-opacity:0.1; fill:none" points="2290.15,1486.45 2290.15,47.2441 "/>
<polyline clip-path="url(#clip120)" style="stroke:#000000; stroke-linecap:round; stroke-linejoin:round; stroke-width:4; stroke-opacity:1; fill:none" points="140.696,1486.45 2352.76,1486.45 "/>
<polyline clip-path="url(#clip120)" style="stroke:#000000; stroke-linecap:round; stroke-linejoin:round; stroke-width:4; stroke-opacity:1; fill:none" points="203.301,1486.45 203.301,1467.55 "/>
<polyline clip-path="url(#clip120)" style="stroke:#000000; stroke-linecap:round; stroke-linejoin:round; stroke-width:4; stroke-opacity:1; fill:none" points="725.013,1486.45 725.013,1467.55 "/>
<polyline clip-path="url(#clip120)" style="stroke:#000000; stroke-linecap:round; stroke-linejoin:round; stroke-width:4; stroke-opacity:1; fill:none" points="1246.73,1486.45 1246.73,1467.55 "/>
<polyline clip-path="url(#clip120)" style="stroke:#000000; stroke-linecap:round; stroke-linejoin:round; stroke-width:4; stroke-opacity:1; fill:none" points="1768.44,1486.45 1768.44,1467.55 "/>
<polyline clip-path="url(#clip120)" style="stroke:#000000; stroke-linecap:round; stroke-linejoin:round; stroke-width:4; stroke-opacity:1; fill:none" points="2290.15,1486.45 2290.15,1467.55 "/>
<path clip-path="url(#clip120)" d="M203.301 1517.37 Q199.69 1517.37 197.861 1520.93 Q196.056 1524.47 196.056 1531.6 Q196.056 1538.71 197.861 1542.27 Q199.69 1545.82 203.301 1545.82 Q206.935 1545.82 208.741 1542.27 Q210.57 1538.71 210.57 1531.6 Q210.57 1524.47 208.741 1520.93 Q206.935 1517.37 203.301 1517.37 M203.301 1513.66 Q209.111 1513.66 212.167 1518.27 Q215.245 1522.85 215.245 1531.6 Q215.245 1540.33 212.167 1544.94 Q209.111 1549.52 203.301 1549.52 Q197.491 1549.52 194.412 1544.94 Q191.357 1540.33 191.357 1531.6 Q191.357 1522.85 194.412 1518.27 Q197.491 1513.66 203.301 1513.66 Z" fill="#000000" fill-rule="nonzero" fill-opacity="1" /><path clip-path="url(#clip120)" d="M684.632 1514.29 L702.988 1514.29 L702.988 1518.22 L688.914 1518.22 L688.914 1526.7 Q689.933 1526.35 690.951 1526.19 Q691.97 1526 692.988 1526 Q698.775 1526 702.155 1529.17 Q705.534 1532.34 705.534 1537.76 Q705.534 1543.34 702.062 1546.44 Q698.59 1549.52 692.27 1549.52 Q690.095 1549.52 687.826 1549.15 Q685.581 1548.78 683.173 1548.04 L683.173 1543.34 Q685.257 1544.47 687.479 1545.03 Q689.701 1545.58 692.178 1545.58 Q696.183 1545.58 698.52 1543.48 Q700.858 1541.37 700.858 1537.76 Q700.858 1534.15 698.52 1532.04 Q696.183 1529.94 692.178 1529.94 Q690.303 1529.94 688.428 1530.35 Q686.576 1530.77 684.632 1531.65 L684.632 1514.29 Z" fill="#000000" fill-rule="nonzero" fill-opacity="1" /><path clip-path="url(#clip120)" d="M724.747 1517.37 Q721.136 1517.37 719.307 1520.93 Q717.502 1524.47 717.502 1531.6 Q717.502 1538.71 719.307 1542.27 Q721.136 1545.82 724.747 1545.82 Q728.381 1545.82 730.187 1542.27 Q732.016 1538.71 732.016 1531.6 Q732.016 1524.47 730.187 1520.93 Q728.381 1517.37 724.747 1517.37 M724.747 1513.66 Q730.557 1513.66 733.613 1518.27 Q736.692 1522.85 736.692 1531.6 Q736.692 1540.33 733.613 1544.94 Q730.557 1549.52 724.747 1549.52 Q718.937 1549.52 715.858 1544.94 Q712.803 1540.33 712.803 1531.6 Q712.803 1522.85 715.858 1518.27 Q718.937 1513.66 724.747 1513.66 Z" fill="#000000" fill-rule="nonzero" fill-opacity="1" /><path clip-path="url(#clip120)" d="M754.909 1517.37 Q751.298 1517.37 749.469 1520.93 Q747.664 1524.47 747.664 1531.6 Q747.664 1538.71 749.469 1542.27 Q751.298 1545.82 754.909 1545.82 Q758.543 1545.82 760.349 1542.27 Q762.178 1538.71 762.178 1531.6 Q762.178 1524.47 760.349 1520.93 Q758.543 1517.37 754.909 1517.37 M754.909 1513.66 Q760.719 1513.66 763.775 1518.27 Q766.853 1522.85 766.853 1531.6 Q766.853 1540.33 763.775 1544.94 Q760.719 1549.52 754.909 1549.52 Q749.099 1549.52 746.02 1544.94 Q742.965 1540.33 742.965 1531.6 Q742.965 1522.85 746.02 1518.27 Q749.099 1513.66 754.909 1513.66 Z" fill="#000000" fill-rule="nonzero" fill-opacity="1" /><path clip-path="url(#clip120)" d="M1191.25 1544.91 L1198.89 1544.91 L1198.89 1518.55 L1190.58 1520.21 L1190.58 1515.95 L1198.84 1514.29 L1203.52 1514.29 L1203.52 1544.91 L1211.16 1544.91 L1211.16 1548.85 L1191.25 1548.85 L1191.25 1544.91 Z" fill="#000000" fill-rule="nonzero" fill-opacity="1" /><path clip-path="url(#clip120)" d="M1230.6 1517.37 Q1226.99 1517.37 1225.16 1520.93 Q1223.36 1524.47 1223.36 1531.6 Q1223.36 1538.71 1225.16 1542.27 Q1226.99 1545.82 1230.6 1545.82 Q1234.24 1545.82 1236.04 1542.27 Q1237.87 1538.71 1237.87 1531.6 Q1237.87 1524.47 1236.04 1520.93 Q1234.24 1517.37 1230.6 1517.37 M1230.6 1513.66 Q1236.41 1513.66 1239.47 1518.27 Q1242.55 1522.85 1242.55 1531.6 Q1242.55 1540.33 1239.47 1544.94 Q1236.41 1549.52 1230.6 1549.52 Q1224.79 1549.52 1221.71 1544.94 Q1218.66 1540.33 1218.66 1531.6 Q1218.66 1522.85 1221.71 1518.27 Q1224.79 1513.66 1230.6 1513.66 Z" fill="#000000" fill-rule="nonzero" fill-opacity="1" /><path clip-path="url(#clip120)" d="M1260.77 1517.37 Q1257.15 1517.37 1255.33 1520.93 Q1253.52 1524.47 1253.52 1531.6 Q1253.52 1538.71 1255.33 1542.27 Q1257.15 1545.82 1260.77 1545.82 Q1264.4 1545.82 1266.2 1542.27 Q1268.03 1538.71 1268.03 1531.6 Q1268.03 1524.47 1266.2 1520.93 Q1264.4 1517.37 1260.77 1517.37 M1260.77 1513.66 Q1266.58 1513.66 1269.63 1518.27 Q1272.71 1522.85 1272.71 1531.6 Q1272.71 1540.33 1269.63 1544.94 Q1266.58 1549.52 1260.77 1549.52 Q1254.95 1549.52 1251.88 1544.94 Q1248.82 1540.33 1248.82 1531.6 Q1248.82 1522.85 1251.88 1518.27 Q1254.95 1513.66 1260.77 1513.66 Z" fill="#000000" fill-rule="nonzero" fill-opacity="1" /><path clip-path="url(#clip120)" d="M1290.93 1517.37 Q1287.32 1517.37 1285.49 1520.93 Q1283.68 1524.47 1283.68 1531.6 Q1283.68 1538.71 1285.49 1542.27 Q1287.32 1545.82 1290.93 1545.82 Q1294.56 1545.82 1296.37 1542.27 Q1298.2 1538.71 1298.2 1531.6 Q1298.2 1524.47 1296.37 1520.93 Q1294.56 1517.37 1290.93 1517.37 M1290.93 1513.66 Q1296.74 1513.66 1299.79 1518.27 Q1302.87 1522.85 1302.87 1531.6 Q1302.87 1540.33 1299.79 1544.94 Q1296.74 1549.52 1290.93 1549.52 Q1285.12 1549.52 1282.04 1544.94 Q1278.98 1540.33 1278.98 1531.6 Q1278.98 1522.85 1282.04 1518.27 Q1285.12 1513.66 1290.93 1513.66 Z" fill="#000000" fill-rule="nonzero" fill-opacity="1" /><path clip-path="url(#clip120)" d="M1712.96 1544.91 L1720.6 1544.91 L1720.6 1518.55 L1712.29 1520.21 L1712.29 1515.95 L1720.56 1514.29 L1725.23 1514.29 L1725.23 1544.91 L1732.87 1544.91 L1732.87 1548.85 L1712.96 1548.85 L1712.96 1544.91 Z" fill="#000000" fill-rule="nonzero" fill-opacity="1" /><path clip-path="url(#clip120)" d="M1742.36 1514.29 L1760.72 1514.29 L1760.72 1518.22 L1746.64 1518.22 L1746.64 1526.7 Q1747.66 1526.35 1748.68 1526.19 Q1749.7 1526 1750.72 1526 Q1756.51 1526 1759.88 1529.17 Q1763.26 1532.34 1763.26 1537.76 Q1763.26 1543.34 1759.79 1546.44 Q1756.32 1549.52 1750 1549.52 Q1747.82 1549.52 1745.56 1549.15 Q1743.31 1548.78 1740.9 1548.04 L1740.9 1543.34 Q1742.99 1544.47 1745.21 1545.03 Q1747.43 1545.58 1749.91 1545.58 Q1753.91 1545.58 1756.25 1543.48 Q1758.59 1541.37 1758.59 1537.76 Q1758.59 1534.15 1756.25 1532.04 Q1753.91 1529.94 1749.91 1529.94 Q1748.03 1529.94 1746.16 1530.35 Q1744.31 1530.77 1742.36 1531.65 L1742.36 1514.29 Z" fill="#000000" fill-rule="nonzero" fill-opacity="1" /><path clip-path="url(#clip120)" d="M1782.48 1517.37 Q1778.87 1517.37 1777.04 1520.93 Q1775.23 1524.47 1775.23 1531.6 Q1775.23 1538.71 1777.04 1542.27 Q1778.87 1545.82 1782.48 1545.82 Q1786.11 1545.82 1787.92 1542.27 Q1789.75 1538.71 1789.75 1531.6 Q1789.75 1524.47 1787.92 1520.93 Q1786.11 1517.37 1782.48 1517.37 M1782.48 1513.66 Q1788.29 1513.66 1791.34 1518.27 Q1794.42 1522.85 1794.42 1531.6 Q1794.42 1540.33 1791.34 1544.94 Q1788.29 1549.52 1782.48 1549.52 Q1776.67 1549.52 1773.59 1544.94 Q1770.53 1540.33 1770.53 1531.6 Q1770.53 1522.85 1773.59 1518.27 Q1776.67 1513.66 1782.48 1513.66 Z" fill="#000000" fill-rule="nonzero" fill-opacity="1" /><path clip-path="url(#clip120)" d="M1812.64 1517.37 Q1809.03 1517.37 1807.2 1520.93 Q1805.39 1524.47 1805.39 1531.6 Q1805.39 1538.71 1807.2 1542.27 Q1809.03 1545.82 1812.64 1545.82 Q1816.27 1545.82 1818.08 1542.27 Q1819.91 1538.71 1819.91 1531.6 Q1819.91 1524.47 1818.08 1520.93 Q1816.27 1517.37 1812.64 1517.37 M1812.64 1513.66 Q1818.45 1513.66 1821.5 1518.27 Q1824.58 1522.85 1824.58 1531.6 Q1824.58 1540.33 1821.5 1544.94 Q1818.45 1549.52 1812.64 1549.52 Q1806.83 1549.52 1803.75 1544.94 Q1800.69 1540.33 1800.69 1531.6 Q1800.69 1522.85 1803.75 1518.27 Q1806.83 1513.66 1812.64 1513.66 Z" fill="#000000" fill-rule="nonzero" fill-opacity="1" /><path clip-path="url(#clip120)" d="M2238.76 1544.91 L2255.08 1544.91 L2255.08 1548.85 L2233.14 1548.85 L2233.14 1544.91 Q2235.8 1542.16 2240.38 1537.53 Q2244.99 1532.88 2246.17 1531.53 Q2248.41 1529.01 2249.29 1527.27 Q2250.2 1525.51 2250.2 1523.82 Q2250.2 1521.07 2248.25 1519.33 Q2246.33 1517.6 2243.23 1517.6 Q2241.03 1517.6 2238.58 1518.36 Q2236.15 1519.13 2233.37 1520.68 L2233.37 1515.95 Q2236.19 1514.82 2238.65 1514.24 Q2241.1 1513.66 2243.14 1513.66 Q2248.51 1513.66 2251.7 1516.35 Q2254.9 1519.03 2254.9 1523.52 Q2254.9 1525.65 2254.09 1527.57 Q2253.3 1529.47 2251.19 1532.07 Q2250.61 1532.74 2247.51 1535.95 Q2244.41 1539.15 2238.76 1544.91 Z" fill="#000000" fill-rule="nonzero" fill-opacity="1" /><path clip-path="url(#clip120)" d="M2274.9 1517.37 Q2271.28 1517.37 2269.46 1520.93 Q2267.65 1524.47 2267.65 1531.6 Q2267.65 1538.71 2269.46 1542.27 Q2271.28 1545.82 2274.9 1545.82 Q2278.53 1545.82 2280.34 1542.27 Q2282.16 1538.71 2282.16 1531.6 Q2282.16 1524.47 2280.34 1520.93 Q2278.53 1517.37 2274.9 1517.37 M2274.9 1513.66 Q2280.71 1513.66 2283.76 1518.27 Q2286.84 1522.85 2286.84 1531.6 Q2286.84 1540.33 2283.76 1544.94 Q2280.71 1549.52 2274.9 1549.52 Q2269.09 1549.52 2266.01 1544.94 Q2262.95 1540.33 2262.95 1531.6 Q2262.95 1522.85 2266.01 1518.27 Q2269.09 1513.66 2274.9 1513.66 Z" fill="#000000" fill-rule="nonzero" fill-opacity="1" /><path clip-path="url(#clip120)" d="M2305.06 1517.37 Q2301.45 1517.37 2299.62 1520.93 Q2297.81 1524.47 2297.81 1531.6 Q2297.81 1538.71 2299.62 1542.27 Q2301.45 1545.82 2305.06 1545.82 Q2308.69 1545.82 2310.5 1542.27 Q2312.33 1538.71 2312.33 1531.6 Q2312.33 1524.47 2310.5 1520.93 Q2308.69 1517.37 2305.06 1517.37 M2305.06 1513.66 Q2310.87 1513.66 2313.92 1518.27 Q2317 1522.85 2317 1531.6 Q2317 1540.33 2313.92 1544.94 Q2310.87 1549.52 2305.06 1549.52 Q2299.25 1549.52 2296.17 1544.94 Q2293.11 1540.33 2293.11 1531.6 Q2293.11 1522.85 2296.17 1518.27 Q2299.25 1513.66 2305.06 1513.66 Z" fill="#000000" fill-rule="nonzero" fill-opacity="1" /><path clip-path="url(#clip120)" d="M2335.22 1517.37 Q2331.61 1517.37 2329.78 1520.93 Q2327.97 1524.47 2327.97 1531.6 Q2327.97 1538.71 2329.78 1542.27 Q2331.61 1545.82 2335.22 1545.82 Q2338.85 1545.82 2340.66 1542.27 Q2342.49 1538.71 2342.49 1531.6 Q2342.49 1524.47 2340.66 1520.93 Q2338.85 1517.37 2335.22 1517.37 M2335.22 1513.66 Q2341.03 1513.66 2344.09 1518.27 Q2347.16 1522.85 2347.16 1531.6 Q2347.16 1540.33 2344.09 1544.94 Q2341.03 1549.52 2335.22 1549.52 Q2329.41 1549.52 2326.33 1544.94 Q2323.28 1540.33 2323.28 1531.6 Q2323.28 1522.85 2326.33 1518.27 Q2329.41 1513.66 2335.22 1513.66 Z" fill="#000000" fill-rule="nonzero" fill-opacity="1" /><polyline clip-path="url(#clip122)" style="stroke:#000000; stroke-linecap:round; stroke-linejoin:round; stroke-width:2; stroke-opacity:0.1; fill:none" points="140.696,1261.66 2352.76,1261.66 "/>
<polyline clip-path="url(#clip122)" style="stroke:#000000; stroke-linecap:round; stroke-linejoin:round; stroke-width:2; stroke-opacity:0.1; fill:none" points="140.696,1017.73 2352.76,1017.73 "/>
<polyline clip-path="url(#clip122)" style="stroke:#000000; stroke-linecap:round; stroke-linejoin:round; stroke-width:2; stroke-opacity:0.1; fill:none" points="140.696,773.801 2352.76,773.801 "/>
<polyline clip-path="url(#clip122)" style="stroke:#000000; stroke-linecap:round; stroke-linejoin:round; stroke-width:2; stroke-opacity:0.1; fill:none" points="140.696,529.873 2352.76,529.873 "/>
<polyline clip-path="url(#clip122)" style="stroke:#000000; stroke-linecap:round; stroke-linejoin:round; stroke-width:2; stroke-opacity:0.1; fill:none" points="140.696,285.944 2352.76,285.944 "/>
<polyline clip-path="url(#clip120)" style="stroke:#000000; stroke-linecap:round; stroke-linejoin:round; stroke-width:4; stroke-opacity:1; fill:none" points="140.696,1486.45 140.696,47.2441 "/>
<polyline clip-path="url(#clip120)" style="stroke:#000000; stroke-linecap:round; stroke-linejoin:round; stroke-width:4; stroke-opacity:1; fill:none" points="140.696,1261.66 159.593,1261.66 "/>
<polyline clip-path="url(#clip120)" style="stroke:#000000; stroke-linecap:round; stroke-linejoin:round; stroke-width:4; stroke-opacity:1; fill:none" points="140.696,1017.73 159.593,1017.73 "/>
<polyline clip-path="url(#clip120)" style="stroke:#000000; stroke-linecap:round; stroke-linejoin:round; stroke-width:4; stroke-opacity:1; fill:none" points="140.696,773.801 159.593,773.801 "/>
<polyline clip-path="url(#clip120)" style="stroke:#000000; stroke-linecap:round; stroke-linejoin:round; stroke-width:4; stroke-opacity:1; fill:none" points="140.696,529.873 159.593,529.873 "/>
<polyline clip-path="url(#clip120)" style="stroke:#000000; stroke-linecap:round; stroke-linejoin:round; stroke-width:4; stroke-opacity:1; fill:none" points="140.696,285.944 159.593,285.944 "/>
<path clip-path="url(#clip120)" d="M83.7929 1244.38 L102.149 1244.38 L102.149 1248.31 L88.0753 1248.31 L88.0753 1256.79 Q89.0938 1256.44 90.1123 1256.28 Q91.1308 1256.09 92.1493 1256.09 Q97.9363 1256.09 101.316 1259.26 Q104.696 1262.43 104.696 1267.85 Q104.696 1273.43 101.223 1276.53 Q97.7511 1279.61 91.4317 1279.61 Q89.2558 1279.61 86.9873 1279.24 Q84.7419 1278.87 82.3346 1278.13 L82.3346 1273.43 Q84.4179 1274.56 86.6401 1275.12 Q88.8623 1275.67 91.3391 1275.67 Q95.3437 1275.67 97.6817 1273.57 Q100.02 1271.46 100.02 1267.85 Q100.02 1264.24 97.6817 1262.13 Q95.3437 1260.03 91.3391 1260.03 Q89.4641 1260.03 87.5892 1260.44 Q85.7373 1260.86 83.7929 1261.74 L83.7929 1244.38 Z" fill="#000000" fill-rule="nonzero" fill-opacity="1" /><path clip-path="url(#clip120)" d="M53.3995 1031.07 L61.0384 1031.07 L61.0384 1004.71 L52.7282 1006.38 L52.7282 1002.12 L60.9921 1000.45 L65.668 1000.45 L65.668 1031.07 L73.3068 1031.07 L73.3068 1035.01 L53.3995 1035.01 L53.3995 1031.07 Z" fill="#000000" fill-rule="nonzero" fill-opacity="1" /><path clip-path="url(#clip120)" d="M92.7512 1003.53 Q89.1401 1003.53 87.3114 1007.09 Q85.5058 1010.63 85.5058 1017.76 Q85.5058 1024.87 87.3114 1028.44 Q89.1401 1031.98 92.7512 1031.98 Q96.3854 1031.98 98.1909 1028.44 Q100.02 1024.87 100.02 1017.76 Q100.02 1010.63 98.1909 1007.09 Q96.3854 1003.53 92.7512 1003.53 M92.7512 999.825 Q98.5613 999.825 101.617 1004.43 Q104.696 1009.01 104.696 1017.76 Q104.696 1026.49 101.617 1031.1 Q98.5613 1035.68 92.7512 1035.68 Q86.941 1035.68 83.8623 1031.1 Q80.8068 1026.49 80.8068 1017.76 Q80.8068 1009.01 83.8623 1004.43 Q86.941 999.825 92.7512 999.825 Z" fill="#000000" fill-rule="nonzero" fill-opacity="1" /><path clip-path="url(#clip120)" d="M54.3949 787.146 L62.0337 787.146 L62.0337 760.78 L53.7236 762.447 L53.7236 758.188 L61.9874 756.521 L66.6633 756.521 L66.6633 787.146 L74.3022 787.146 L74.3022 791.081 L54.3949 791.081 L54.3949 787.146 Z" fill="#000000" fill-rule="nonzero" fill-opacity="1" /><path clip-path="url(#clip120)" d="M83.7929 756.521 L102.149 756.521 L102.149 760.456 L88.0753 760.456 L88.0753 768.929 Q89.0938 768.581 90.1123 768.419 Q91.1308 768.234 92.1493 768.234 Q97.9363 768.234 101.316 771.405 Q104.696 774.577 104.696 779.993 Q104.696 785.572 101.223 788.674 Q97.7511 791.752 91.4317 791.752 Q89.2558 791.752 86.9873 791.382 Q84.7419 791.012 82.3346 790.271 L82.3346 785.572 Q84.4179 786.706 86.6401 787.262 Q88.8623 787.817 91.3391 787.817 Q95.3437 787.817 97.6817 785.711 Q100.02 783.604 100.02 779.993 Q100.02 776.382 97.6817 774.276 Q95.3437 772.169 91.3391 772.169 Q89.4641 772.169 87.5892 772.586 Q85.7373 773.003 83.7929 773.882 L83.7929 756.521 Z" fill="#000000" fill-rule="nonzero" fill-opacity="1" /><path clip-path="url(#clip120)" d="M56.6171 543.217 L72.9365 543.217 L72.9365 547.153 L50.9921 547.153 L50.9921 543.217 Q53.6541 540.463 58.2375 535.833 Q62.8439 531.181 64.0245 529.838 Q66.2698 527.315 67.1494 525.579 Q68.0522 523.819 68.0522 522.13 Q68.0522 519.375 66.1078 517.639 Q64.1865 515.903 61.0847 515.903 Q58.8856 515.903 56.4319 516.667 Q54.0014 517.431 51.2236 518.982 L51.2236 514.259 Q54.0477 513.125 56.5014 512.546 Q58.955 511.968 60.9921 511.968 Q66.3624 511.968 69.5568 514.653 Q72.7513 517.338 72.7513 521.829 Q72.7513 523.958 71.9411 525.88 Q71.1541 527.778 69.0476 530.37 Q68.4689 531.042 65.367 534.259 Q62.2652 537.454 56.6171 543.217 Z" fill="#000000" fill-rule="nonzero" fill-opacity="1" /><path clip-path="url(#clip120)" d="M92.7512 515.671 Q89.1401 515.671 87.3114 519.236 Q85.5058 522.778 85.5058 529.907 Q85.5058 537.014 87.3114 540.579 Q89.1401 544.12 92.7512 544.12 Q96.3854 544.12 98.1909 540.579 Q100.02 537.014 100.02 529.907 Q100.02 522.778 98.1909 519.236 Q96.3854 515.671 92.7512 515.671 M92.7512 511.968 Q98.5613 511.968 101.617 516.574 Q104.696 521.157 104.696 529.907 Q104.696 538.634 101.617 543.241 Q98.5613 547.824 92.7512 547.824 Q86.941 547.824 83.8623 543.241 Q80.8068 538.634 80.8068 529.907 Q80.8068 521.157 83.8623 516.574 Q86.941 511.968 92.7512 511.968 Z" fill="#000000" fill-rule="nonzero" fill-opacity="1" /><path clip-path="url(#clip120)" d="M57.6125 299.289 L73.9318 299.289 L73.9318 303.224 L51.9875 303.224 L51.9875 299.289 Q54.6495 296.534 59.2328 291.905 Q63.8393 287.252 65.0198 285.909 Q67.2652 283.386 68.1448 281.65 Q69.0476 279.891 69.0476 278.201 Q69.0476 275.446 67.1032 273.71 Q65.1819 271.974 62.08 271.974 Q59.881 271.974 57.4273 272.738 Q54.9967 273.502 52.219 275.053 L52.219 270.331 Q55.043 269.197 57.4967 268.618 Q59.9504 268.039 61.9874 268.039 Q67.3578 268.039 70.5522 270.724 Q73.7466 273.409 73.7466 277.9 Q73.7466 280.03 72.9365 281.951 Q72.1494 283.849 70.0429 286.442 Q69.4642 287.113 66.3624 290.331 Q63.2606 293.525 57.6125 299.289 Z" fill="#000000" fill-rule="nonzero" fill-opacity="1" /><path clip-path="url(#clip120)" d="M83.7929 268.664 L102.149 268.664 L102.149 272.599 L88.0753 272.599 L88.0753 281.071 Q89.0938 280.724 90.1123 280.562 Q91.1308 280.377 92.1493 280.377 Q97.9363 280.377 101.316 283.548 Q104.696 286.72 104.696 292.136 Q104.696 297.715 101.223 300.817 Q97.7511 303.895 91.4317 303.895 Q89.2558 303.895 86.9873 303.525 Q84.7419 303.155 82.3346 302.414 L82.3346 297.715 Q84.4179 298.849 86.6401 299.405 Q88.8623 299.96 91.3391 299.96 Q95.3437 299.96 97.6817 297.854 Q100.02 295.747 100.02 292.136 Q100.02 288.525 97.6817 286.419 Q95.3437 284.312 91.3391 284.312 Q89.4641 284.312 87.5892 284.729 Q85.7373 285.145 83.7929 286.025 L83.7929 268.664 Z" fill="#000000" fill-rule="nonzero" fill-opacity="1" /><polyline clip-path="url(#clip122)" style="stroke:#009af9; stroke-linecap:round; stroke-linejoin:round; stroke-width:4; stroke-opacity:1; fill:none" points="203.301,1118.37 204.344,1118.42 205.388,998.038 206.431,998.088 207.475,1180.81 208.518,1180.84 209.562,1061.38 210.605,1061.43 211.648,1211.92 212.692,1211.95 213.735,1091.6 214.779,1091.66 215.822,1026.34 216.866,1026.41 217.909,1215.59 218.952,1215.62 219.996,1073.03 221.039,1073.1 222.083,1259.6 223.126,1259.62 224.17,1165.81 225.213,1165.85 226.256,1351.73 227.3,1351.75 228.343,1045.41 229.387,1045.45 230.43,1257.42 231.473,1257.45 232.517,1090.43 233.56,1090.48 234.604,1028.08 235.647,1028.16 236.691,1306.72 237.734,1306.73 238.777,1121.7 239.821,1121.74 240.864,1305.92 241.908,1305.93 242.951,1119.19 243.995,1119.24 245.038,1090.33 246.081,1090.36 247.125,1280.45 248.168,1280.47 249.212,1398.04 250.255,1398.04 251.299,1213.36 252.342,1213.39 253.385,1212.27 254.429,1212.3 255.472,1076.36 256.516,1076.44 257.559,1259.59 258.603,1259.61 259.646,645.323 260.689,645.475 261.733,937.037 262.776,937.155 263.82,800.46 264.863,800.585 265.907,1139.1 266.95,1139.13 267.993,1211.23 269.037,1211.26 270.08,1352.01 271.124,1352.02 272.167,1215.58 273.21,1215.6 274.254,1170.61 275.297,1170.66 276.341,1258.83 277.384,1258.84 278.428,1304.8 279.471,1304.82 280.514,1216.25 281.558,1216.29 282.601,1261.93 283.645,1261.95 284.688,1213.66 285.732,1213.68 286.775,620.223 287.818,620.367 288.862,926.531 289.905,926.604 290.949,939.105 291.992,939.203 293.036,1046.72 294.079,1046.76 295.122,1445.71 296.166,1445.72 297.209,1213.7 298.253,1213.72 299.296,1262.85 300.34,1262.86 301.383,938.531 302.426,938.64 303.47,1168.98 304.513,1169.02 305.557,1096.37 306.6,1096.4 307.643,1120.26 308.687,1120.31 309.73,942.945 310.774,943.048 311.817,986.868 312.861,986.957 313.904,1308.45 314.947,1308.47 315.991,912.811 317.034,912.927 318.078,1172.14 319.121,1172.18 320.165,528.108 321.208,528.275 322.251,1221.11 323.295,1221.14 324.338,1261.47 325.382,1261.48 326.425,1078.16 327.469,1078.21 328.512,956.8 329.555,956.895 330.599,1234.85 331.642,1234.88 332.686,1032.44 333.729,1032.56 334.773,1127.43 335.816,1127.49 336.859,1004.31 337.903,1004.37 338.946,1125.54 339.99,1125.58 341.033,1218.75 342.077,1218.78 343.12,1263.76 344.163,1263.78 345.207,1219.14 346.25,1219.17 347.294,821.75 348.337,821.853 349.38,1005.15 350.424,1005.22 351.467,652.364 352.511,652.558 353.554,1173.05 354.598,1173.08 355.641,1264 356.684,1264.03 357.728,1007.1 358.771,1007.14 359.815,1037.43 360.858,1037.51 361.902,1220.19 362.945,1220.21 363.988,1218.82 365.032,1218.84 366.075,1217.89 367.119,1217.92 368.162,1037.09 369.206,1037.16 370.249,947.708 371.292,947.807 372.336,1038.19 373.379,1038.27 374.423,1126.6 375.466,1126.64 376.51,1217.15 377.553,1217.18 378.596,1311.67 379.64,1311.69 380.683,866.932 381.727,867.014 382.77,1082.7 383.813,1082.75 384.857,1174.72 385.9,1174.75 386.944,1005.57 387.987,1005.62 389.031,1086.73 390.074,1086.78 391.117,994.832 392.161,994.916 393.204,1096.64 394.248,1096.66 395.291,1097.77 396.335,1097.8 397.378,840.195 398.421,840.285 399.465,1007.33 400.508,1007.41 401.552,1087.21 402.595,1087.27 403.639,1129.89 404.682,1129.94 405.725,961.615 406.769,961.687 407.812,1358.1 408.856,1358.11 409.899,1313.15 410.943,1313.17 411.986,1312.28 413.029,1312.3 414.073,1039.97 415.116,1040.06 416.16,870.74 417.203,870.824 418.247,964.589 419.29,964.663 420.333,1051.37 421.377,1051.41 422.42,1355.29 423.464,1355.3 424.507,996.83 425.55,996.912 426.594,1099.23 427.637,1099.26 428.681,1144.95 429.724,1144.98 430.768,1042.95 431.811,1043.02 432.854,1010.83 433.898,1010.89 434.941,1010.96 435.985,1011.01 437.028,932.712 438.072,932.78 439.115,1222.07 440.158,1222.09 441.202,753.083 442.245,753.184 443.289,752.811 444.332,752.897 445.376,1223.08 446.419,1223.11 447.462,1267.8 448.506,1267.81 449.549,997.871 450.593,997.939 451.636,1176.83 452.68,1176.87 453.723,797.369 454.766,797.471 455.81,1220.9 456.853,1220.93 457.897,922.368 458.94,922.437 459.984,1144.61 461.027,1144.65 462.07,911.174 463.114,911.279 464.157,1134.94 465.201,1134.99 466.244,1055.83 467.287,1055.88 468.331,1010.31 469.374,1010.36 470.418,1179.59 471.461,1179.63 472.505,1144.69 473.548,1144.72 474.591,1191.51 475.635,1191.53 476.678,746.211 477.722,746.341 478.765,1222.71 479.809,1222.73 480.852,1266.69 481.895,1266.72 482.939,1222.37 483.982,1222.39 485.026,1058.11 486.069,1058.15 487.113,1056.32 488.156,1056.36 489.199,1188.36 490.243,1188.38 491.286,1180.88 492.33,1180.92 493.373,957.635 494.417,957.766 495.46,1013.44 496.503,1013.49 497.547,1356.15 498.59,1356.16 499.634,1058.05 500.677,1058.1 501.72,1092.79 502.764,1092.84 503.807,1178 504.851,1178.03 505.894,747.129 506.938,747.273 507.981,1223.15 509.024,1223.17 510.068,1313.31 511.111,1313.32 512.155,1270.79 513.198,1270.81 514.242,1094.14 515.285,1094.21 516.328,1103.98 517.372,1104.02 518.415,1133.64 519.459,1133.68 520.502,1271.33 521.546,1271.35 522.589,804.247 523.632,804.33 524.676,1224.88 525.719,1224.91 526.763,1181.1 527.806,1181.13 528.85,1226.18 529.893,1226.2 530.936,1179.49 531.98,1179.52 533.023,293.823 534.067,293.989 535.11,1183.25 536.154,1183.29 537.197,1092.39 538.24,1092.43 539.284,704.222 540.327,704.344 541.371,1139.07 542.414,1139.14 543.457,639.285 544.501,639.428 545.544,1141.53 546.588,1141.58 547.631,759.582 548.675,759.704 549.718,1226.25 550.761,1226.28 551.805,1017.1 552.848,1017.15 553.892,1137.27 554.935,1137.3 555.979,1184.59 557.022,1184.62 558.065,920.282 559.109,920.384 560.152,1181.67 561.196,1181.7 562.239,1004.06 563.283,1004.13 564.326,1095.1 565.369,1095.14 566.413,882.999 567.456,883.092 568.5,1149.49 569.543,1149.52 570.587,842.737 571.63,842.853 572.673,933.864 573.717,933.941 574.76,758.561 575.804,758.702 576.847,895.737 577.89,895.81 578.934,1185.63 579.977,1185.69 581.021,1140.39 582.064,1140.42 583.108,925.685 584.151,925.802 585.194,1402.71 586.238,1402.72 587.281,1020.22 588.325,1020.27 589.368,931.458 590.412,931.522 591.455,1017.86 592.498,1017.9 593.542,974.888 594.585,974.936 595.629,1314.26 596.672,1314.27 597.716,931.392 598.759,931.47 599.802,1053.65 600.846,1053.71 601.889,770.511 602.933,770.628 603.976,1020.73 605.02,1020.77 606.063,1224.45 607.106,1224.47 608.15,1065.05 609.193,1065.08 610.237,1183.28 611.28,1183.31 612.324,1186.82 613.367,1186.88 614.41,1141.72 615.454,1141.77 616.497,1184.37 617.541,1184.4 618.584,1099.08 619.627,1099.13 620.671,975.761 621.714,975.826 622.758,1057.05 623.801,1057.11 624.845,966.291 625.888,966.383 626.931,1273.93 627.975,1273.94 629.018,891.718 630.062,891.805 631.105,968.014 632.149,968.097 633.192,900.445 634.235,900.532 635.279,1230.89 636.322,1230.91 637.366,1142.88 638.409,1142.92 639.453,1140.85 640.496,1140.88 641.539,1187.61 642.583,1187.64 643.626,1056.48 644.67,1056.55 645.713,936.477 646.757,936.546 647.8,1275.07 648.843,1275.09 649.887,1275.8 650.93,1275.83 651.974,978.6 653.017,978.665 654.06,1271.66 655.104,1271.68 656.147,575.275 657.191,575.484 658.234,970.551 659.278,970.634 660.321,1320.21 661.364,1320.22 662.408,925.652 663.451,925.75 664.495,1056.59 665.538,1056.64 666.582,1065.65 667.625,1065.69 668.668,1404.33 669.712,1404.33 670.755,1146.54 671.799,1146.59 672.842,1188.38 673.886,1188.42 674.929,1358.7 675.972,1358.71 677.016,974.264 678.059,974.357 679.103,1230.09 680.146,1230.11 681.19,1100.69 682.233,1100.73 683.276,774.526 684.32,774.61 685.363,936.158 686.407,936.249 687.45,935.634 688.494,935.748 689.537,1014.53 690.58,1014.59 691.624,1231.63 692.667,1231.66 693.711,893.882 694.754,893.948 695.797,900.635 696.841,900.714 697.884,478.076 698.928,478.28 699.971,1156.16 701.015,1156.19 702.058,768.248 703.101,768.37 704.145,1029.09 705.188,1029.13 706.232,985.548 707.275,985.617 708.319,1068.77 709.362,1068.8 710.405,1107.83 711.449,1107.88 712.492,1231.1 713.536,1231.12 714.579,1148.51 715.623,1148.55 716.666,1109.59 717.709,1109.62 718.753,758.51 719.796,758.683 720.84,1103.04 721.883,1103.08 722.927,1027.66 723.97,1027.72 725.013,1103.49 726.057,1103.53 727.1,984.044 728.144,984.098 729.187,1192.69 730.23,1192.72 731.274,1064.71 732.317,1064.76 733.361,899.662 734.404,899.761 735.448,1106.88 736.491,1106.94 737.534,603.881 738.578,604.003 739.621,1145.8 740.665,1145.83 741.708,982.273 742.752,982.364 743.795,984.682 744.838,984.734 745.882,898.266 746.925,898.336 747.969,1067.15 749.012,1067.19 750.056,1105.17 751.099,1105.22 752.142,1108.88 753.186,1108.92 754.229,1189.2 755.273,1189.22 756.316,1151.75 757.36,1151.79 758.403,1114.37 759.446,1114.41 760.49,777.623 761.533,777.701 762.577,1065.66 763.62,1065.72 764.664,1114.94 765.707,1114.97 766.75,857.44 767.794,857.522 768.837,1064.35 769.881,1064.41 770.924,812.61 771.967,812.697 773.011,865.386 774.054,865.458 775.098,697.095 776.141,697.204 777.185,1063.79 778.228,1063.85 779.271,1194.51 780.315,1194.53 781.358,786.23 782.402,786.349 783.445,980.931 784.489,980.997 785.532,983.174 786.575,983.258 787.619,1067.44 788.662,1067.5 789.706,648.619 790.749,648.769 791.793,904.606 792.836,904.692 793.879,1158.95 794.923,1158.98 795.966,1111.28 797.01,1111.32 798.053,656.912 799.097,657.053 800.14,946.531 801.183,946.612 802.227,1032.01 803.27,1032.04 804.314,1027.31 805.357,1027.36 806.401,988.79 807.444,988.835 808.487,1321.78 809.531,1321.79 810.574,985.287 811.618,985.367 812.661,1115.43 813.704,1115.45 814.748,1067.94 815.791,1067.99 816.835,945.104 817.878,945.157 818.922,1152.2 819.965,1152.24 821.008,1151.24 822.052,1151.27 823.095,1277.41 824.139,1277.43 825.182,820.427 826.226,820.543 827.269,1068.61 828.312,1068.67 829.356,786.06 830.399,786.17 831.443,1113.64 832.486,1113.71 833.53,735.27 834.573,735.387 835.616,779.718 836.66,779.804 837.703,1109.07 838.747,1109.12 839.79,1073.57 840.834,1073.63 841.877,1155.51 842.92,1155.54 843.964,949.718 845.007,949.79 846.051,1279.08 847.094,1279.09 848.137,1321.76 849.181,1321.77 850.224,949.512 851.268,949.566 852.311,1115.66 853.355,1115.7 854.398,1113.14 855.441,1113.18 856.485,1116.43 857.528,1116.48 858.572,988.508 859.615,988.588 860.659,1035.25 861.702,1035.33 862.745,990.204 863.789,990.256 864.832,1157.77 865.876,1157.81 866.919,907.847 867.963,907.925 869.006,1149.98 870.049,1150.02 871.093,1035.6 872.136,1035.66 873.18,988.051 874.223,988.122 875.267,1114.09 876.31,1114.14 877.353,992.501 878.397,992.553 879.44,1032.02 880.484,1032.06 881.527,907.052 882.571,907.164 883.614,868.92 884.657,869.008 885.701,1196.34 886.744,1196.36 887.788,908.084 888.831,908.193 889.874,1118.86 890.918,1118.89 891.961,997.381 893.005,997.423 894.048,1117.47 895.092,1117.52 896.135,993.325 897.178,993.367 898.222,791.575 899.265,791.65 900.309,707.648 901.352,707.786 902.396,1036.7 903.439,1036.78 904.482,1159.98 905.526,1160.01 906.569,909.039 907.613,909.099 908.656,747.339 909.7,747.458 910.743,1115.67 911.786,1115.71 912.83,1114.98 913.873,1115.02 914.917,914.842 915.96,914.898 917.004,872.687 918.047,872.779 919.09,627.7 920.134,627.801 921.177,916.642 922.221,916.723 923.264,1076.62 924.307,1076.67 925.351,1036.4 926.394,1036.46 927.438,1121.06 928.481,1121.11 929.525,1362.58 930.568,1362.6 931.611,996.26 932.655,996.326 933.698,1080.88 934.742,1080.91 935.785,1162.36 936.829,1162.39 937.872,754.22 938.915,754.3 939.959,1121.56 941.002,1121.6 942.046,1038.35 943.089,1038.42 944.133,1080.54 945.176,1080.59 946.219,1034.7 947.263,1034.78 948.306,953.126 949.35,953.21 950.393,949.75 951.437,949.795 952.48,1118.23 953.523,1118.28 954.567,1120.87 955.61,1120.92 956.654,996.712 957.697,996.755 958.741,997.872 959.784,997.933 960.827,954.035 961.871,954.157 962.914,998.265 963.958,998.315 965.001,792.871 966.044,792.959 967.088,996.216 968.131,996.263 969.175,837.466 970.218,837.613 971.262,1039.01 972.305,1039.07 973.348,957.074 974.392,957.139 975.435,1163.14 976.479,1163.18 977.522,913.581 978.566,913.643 979.609,1163.51 980.652,1163.57 981.696,875.434 982.739,875.528 983.783,1122.79 984.826,1122.84 985.87,1040.57 986.913,1040.62 987.956,872.049 989,872.153 990.043,873.827 991.087,873.903 992.13,1167 993.174,1167.03 994.217,998.867 995.26,998.924 996.304,876.84 997.347,876.916 998.391,1001.13 999.434,1001.19 1000.48,1205.28 1001.52,1205.31 1002.56,878.869 1003.61,878.975 1004.65,1081.59 1005.69,1081.64 1006.74,1125.89 1007.78,1125.93 1008.82,918.254 1009.87,918.307 1010.91,1001.95 1011.96,1001.99 1013,1204.76 1014.04,1204.78 1015.09,998.232 1016.13,998.313 1017.17,1124.95 1018.22,1124.99 1019.26,1204.2 1020.3,1204.23 1021.35,1086.15 1022.39,1086.18 1023.43,677.227 1024.48,677.347 1025.52,1164.42 1026.56,1164.46 1027.61,1124.3 1028.65,1124.33 1029.69,1003.11 1030.74,1003.18 1031.78,1043.74 1032.82,1043.79 1033.87,961.925 1034.91,961.998 1035.95,1041.2 1037,1041.23 1038.04,961.707 1039.08,961.794 1040.13,1041.06 1041.17,1041.12 1042.21,758.532 1043.26,758.645 1044.3,960.797 1045.34,960.839 1046.39,839.837 1047.43,839.932 1048.48,1050.05 1049.52,1050.11 1050.56,1007.53 1051.61,1007.6 1052.65,714.439 1053.69,714.555 1054.74,1285.27 1055.78,1285.29 1056.82,964.82 1057.87,964.881 1058.91,1167.83 1059.95,1167.86 1061,923.349 1062.04,923.419 1063.08,1044.83 1064.13,1044.89 1065.17,1008.36 1066.21,1008.42 1067.26,1120.38 1068.3,1120.42 1069.34,963.771 1070.39,963.817 1071.43,1005.44 1072.47,1005.51 1073.52,806.766 1074.56,806.875 1075.6,927.395 1076.65,927.458 1077.69,1085.91 1078.73,1085.96 1079.78,1005.58 1080.82,1005.64 1081.86,1004.53 1082.91,1004.61 1083.95,1125.24 1084.99,1125.28 1086.04,1002.87 1087.08,1002.93 1088.13,1206.56 1089.17,1206.6 1090.21,803.962 1091.26,804.082 1092.3,764.329 1093.34,764.435 1094.39,726.633 1095.43,726.73 1096.47,1167.38 1097.52,1167.41 1098.56,845.2 1099.6,845.269 1100.65,1250.29 1101.69,1250.31 1102.73,1052.55 1103.78,1052.63 1104.82,1006.69 1105.86,1006.75 1106.91,888.304 1107.95,888.383 1108.99,1090.82 1110.04,1090.86 1111.08,1006.99 1112.12,1007.03 1113.17,1048.79 1114.21,1048.84 1115.25,925.019 1116.3,925.131 1117.34,888.802 1118.38,888.893 1119.43,891.873 1120.47,891.966 1121.51,1324.7 1122.56,1324.72 1123.6,808.272 1124.65,808.381 1125.69,890.353 1126.73,890.452 1127.78,924.626 1128.82,924.679 1129.86,1129.76 1130.91,1129.81 1131.95,807.725 1132.99,807.812 1134.04,1090.88 1135.08,1090.94 1136.12,969.985 1137.17,970.07 1138.21,891.861 1139.25,891.945 1140.3,848.249 1141.34,848.318 1142.38,882.643 1143.43,882.738 1144.47,847.451 1145.51,847.522 1146.56,1127.77 1147.6,1127.82 1148.64,688.93 1149.69,689.041 1150.73,975.176 1151.77,975.233 1152.82,848.734 1153.86,848.817 1154.9,770.489 1155.95,770.556 1156.99,928.454 1158.03,928.507 1159.08,648.975 1160.12,649.092 1161.16,1051.49 1162.21,1051.55 1163.25,773.778 1164.3,773.883 1165.34,493.805 1166.38,493.955 1167.43,850.741 1168.47,850.813 1169.51,1170.73 1170.56,1170.76 1171.6,686.335 1172.64,686.454 1173.69,1010.04 1174.73,1010.09 1175.77,933.732 1176.82,933.79 1177.86,1096.26 1178.9,1096.31 1179.95,1009.38 1180.99,1009.42 1182.03,1013.46 1183.08,1013.51 1184.12,978.957 1185.16,979.028 1186.21,861.299 1187.25,861.424 1188.29,1292.53 1189.34,1292.55 1190.38,1130.81 1191.42,1130.86 1192.47,1137.43 1193.51,1137.48 1194.55,1099.71 1195.6,1099.76 1196.64,536.647 1197.68,536.785 1198.73,1056.45 1199.77,1056.5 1200.82,1055.24 1201.86,1055.31 1202.9,895.665 1203.95,895.775 1204.99,1132.62 1206.03,1132.65 1207.08,1056.26 1208.12,1056.31 1209.16,852.296 1210.21,852.392 1211.25,1056.02 1212.29,1056.08 1213.34,781.991 1214.38,782.124 1215.42,808.618 1216.47,808.695 1217.51,977.899 1218.55,977.978 1219.6,702.895 1220.64,703.01 1221.68,895.115 1222.73,895.176 1223.77,698.629 1224.81,698.746 1225.86,1059.8 1226.9,1059.85 1227.94,1011.48 1228.99,1011.51 1230.03,1135.4 1231.07,1135.43 1232.12,901.601 1233.16,901.683 1234.2,1020.89 1235.25,1020.95 1236.29,1131.37 1237.33,1131.4 1238.38,1135.12 1239.42,1135.16 1240.47,978.89 1241.51,978.958 1242.55,1097.18 1243.6,1097.22 1244.64,1218.86 1245.68,1218.89 1246.73,658.599 1247.77,658.703 1248.81,972.456 1249.86,972.495 1250.9,732.328 1251.94,732.412 1252.99,779.514 1254.03,779.607 1255.07,1139.62 1256.12,1139.66 1257.16,1219.41 1258.2,1219.43 1259.25,1130.79 1260.29,1130.84 1261.33,989.513 1262.38,989.601 1263.42,1055.88 1264.46,1055.93 1265.51,934.748 1266.55,934.797 1267.59,936.17 1268.64,936.22 1269.68,789.914 1270.72,790.043 1271.77,780.606 1272.81,780.705 1273.85,672.197 1274.9,672.341 1275.94,1178.37 1276.99,1178.39 1278.03,939.703 1279.07,939.767 1280.12,1102.34 1281.16,1102.39 1282.2,1013.26 1283.25,1013.3 1284.29,1021.04 1285.33,1021.11 1286.38,902.405 1287.42,902.458 1288.46,782.05 1289.51,782.13 1290.55,986.097 1291.59,986.16 1292.64,900.621 1293.68,900.682 1294.72,1096.13 1295.77,1096.16 1296.81,524.198 1297.85,524.336 1298.9,1025.91 1299.94,1025.99 1300.98,1167.35 1302.03,1167.37 1303.07,741.685 1304.11,741.77 1305.16,1100.49 1306.2,1100.53 1307.24,1099.74 1308.29,1099.78 1309.33,528.927 1310.37,529.059 1311.42,586.803 1312.46,586.906 1313.5,911.023 1314.55,911.097 1315.59,1021.33 1316.64,1021.39 1317.68,352.536 1318.72,352.702 1319.77,994.249 1320.81,994.318 1321.85,903.322 1322.9,903.375 1323.94,1025.36 1324.98,1025.41 1326.03,625.769 1327.07,625.87 1328.11,752.29 1329.16,752.489 1330.2,1259.75 1331.24,1259.78 1332.29,983.419 1333.33,983.469 1334.37,670.989 1335.42,671.089 1336.46,836.306 1337.5,836.396 1338.55,872.311 1339.59,872.389 1340.63,1061.13 1341.68,1061.17 1342.72,1057.81 1343.76,1057.85 1344.81,1064.98 1345.85,1065.04 1346.89,942.346 1347.94,942.397 1348.98,988.159 1350.02,988.254 1351.07,792.211 1352.11,792.299 1353.16,1064.13 1354.2,1064.17 1355.24,793.378 1356.29,793.458 1357.33,1029.94 1358.37,1029.99 1359.42,1067.17 1360.46,1067.21 1361.5,908.677 1362.55,908.754 1363.59,1067.4 1364.63,1067.44 1365.68,1057.32 1366.72,1057.35 1367.76,1063.5 1368.81,1063.55 1369.85,880.406 1370.89,880.519 1371.94,676.183 1372.98,676.284 1374.02,984.839 1375.07,984.884 1376.11,916.421 1377.15,916.484 1378.2,784.703 1379.24,784.797 1380.28,1067.57 1381.33,1067.64 1382.37,831.487 1383.41,831.586 1384.46,828.048 1385.5,828.121 1386.54,1016.23 1387.59,1016.27 1388.63,1067.96 1389.67,1068 1390.72,952.367 1391.76,952.466 1392.81,917.161 1393.85,917.249 1394.89,945.581 1395.94,945.628 1396.98,908.263 1398.02,908.334 1399.07,807.804 1400.11,807.915 1401.15,910.541 1402.2,910.606 1403.24,879.997 1404.28,880.087 1405.33,1066.05 1406.37,1066.08 1407.41,1259.24 1408.46,1259.25 1409.5,883.219 1410.54,883.294 1411.59,1032.87 1412.63,1032.91 1413.67,956.247 1414.72,956.318 1415.76,1036.51 1416.8,1036.56 1417.85,909.582 1418.89,909.626 1419.93,880.144 1420.98,880.219 1422.02,997.36 1423.06,997.408 1424.11,945.085 1425.15,945.151 1426.19,848.324 1427.24,848.427 1428.28,1220.46 1429.33,1220.49 1430.37,910.142 1431.41,910.222 1432.46,1074.54 1433.5,1074.59 1434.54,881.329 1435.59,881.421 1436.63,992.51 1437.67,992.576 1438.72,1032.61 1439.76,1032.65 1440.8,950.506 1441.85,950.549 1442.89,801.785 1443.93,801.855 1444.98,960.867 1446.02,960.931 1447.06,870.73 1448.11,870.817 1449.15,1070.67 1450.19,1070.71 1451.24,632.952 1452.28,633.068 1453.32,555.492 1454.37,555.625 1455.41,834.757 1456.45,834.833 1457.5,917.115 1458.54,917.189 1459.58,921.148 1460.63,921.215 1461.67,998.565 1462.71,998.622 1463.76,1186.57 1464.8,1186.59 1465.84,1295.65 1466.89,1295.65 1467.93,676.854 1468.98,676.933 1470.02,644.794 1471.06,644.912 1472.11,457.342 1473.15,457.49 1474.19,1253.82 1475.24,1253.84 1476.28,932.152 1477.32,932.24 1478.37,969.433 1479.41,969.509 1480.45,949.554 1481.5,949.594 1482.54,691.77 1483.58,691.908 1484.63,967.454 1485.67,967.558 1486.71,1036.65 1487.76,1036.7 1488.8,765.185 1489.84,765.293 1490.89,1186.77 1491.93,1186.8 1492.97,889.829 1494.02,889.914 1495.06,850.925 1496.1,851.014 1497.15,1033.32 1498.19,1033.38 1499.23,723.293 1500.28,723.398 1501.32,767.963 1502.36,768.052 1503.41,1218.82 1504.45,1218.84 1505.5,1112.67 1506.54,1112.7 1507.58,500.975 1508.63,501.116 1509.67,965.832 1510.71,965.911 1511.76,1073.65 1512.8,1073.69 1513.84,1006.33 1514.89,1006.41 1515.93,800.05 1516.97,800.124 1518.02,661.209 1519.06,661.353 1520.1,999.33 1521.15,999.376 1522.19,1000.93 1523.23,1000.98 1524.28,1188.88 1525.32,1188.9 1526.36,881.318 1527.41,881.407 1528.45,1111.34 1529.49,1111.38 1530.54,965.766 1531.58,965.834 1532.62,853.012 1533.67,853.114 1534.71,626.76 1535.75,626.892 1536.8,1037.6 1537.84,1037.64 1538.88,338.901 1539.93,339.069 1540.97,1038.94 1542.01,1038.98 1543.06,1086.12 1544.1,1086.16 1545.15,969.796 1546.19,969.851 1547.23,1038.02 1548.28,1038.08 1549.32,953.456 1550.36,953.521 1551.41,1074.93 1552.45,1074.98 1553.49,846.086 1554.54,846.153 1555.58,1079.59 1556.62,1079.62 1557.67,1295.94 1558.71,1295.95 1559.75,1152.64 1560.8,1152.68 1561.84,1072.91 1562.88,1072.94 1563.93,1299.27 1564.97,1299.28 1566.01,888.885 1567.06,888.953 1568.1,993.61 1569.14,993.647 1570.19,311.819 1571.23,311.99 1572.27,1041.94 1573.32,1041.97 1574.36,1010.98 1575.4,1011.02 1576.45,1006.91 1577.49,1006.98 1578.53,1124.42 1579.58,1124.45 1580.62,972.038 1581.67,972.112 1582.71,1080.03 1583.75,1080.07 1584.8,1007.53 1585.84,1007.58 1586.88,1158.82 1587.93,1158.87 1588.97,854.221 1590.01,854.316 1591.06,1084.22 1592.1,1084.26 1593.14,644.942 1594.19,645.022 1595.23,744.14 1596.27,744.232 1597.32,550.642 1598.36,550.768 1599.4,864.122 1600.45,864.207 1601.49,1070.03 1602.53,1070.06 1603.58,722.982 1604.62,723.1 1605.66,631.513 1606.71,631.643 1607.75,1114.57 1608.79,1114.61 1609.84,926.417 1610.88,926.462 1611.92,726.445 1612.97,726.524 1614.01,893.633 1615.05,893.707 1616.1,812.586 1617.14,812.653 1618.18,1230.71 1619.23,1230.73 1620.27,863.299 1621.32,863.383 1622.36,804.081 1623.4,804.138 1624.45,895.662 1625.49,895.723 1626.53,969.958 1627.58,970.007 1628.62,1043.49 1629.66,1043.52 1630.71,801.335 1631.75,801.403 1632.79,1041.1 1633.84,1041.14 1634.88,1049.81 1635.92,1049.85 1636.97,900.901 1638.01,900.97 1639.05,996.519 1640.1,996.552 1641.14,790.709 1642.18,790.818 1643.23,1043.31 1644.27,1043.34 1645.31,681.129 1646.36,681.259 1647.4,814.582 1648.44,814.673 1649.49,1006.02 1650.53,1006.06 1651.57,530.744 1652.62,530.878 1653.66,1041.32 1654.7,1041.38 1655.75,1047.55 1656.79,1047.61 1657.84,836.484 1658.88,836.572 1659.92,709.356 1660.97,709.519 1662.01,1043.09 1663.05,1043.13 1664.1,1192.23 1665.14,1192.25 1666.18,676.469 1667.23,676.576 1668.27,902.722 1669.31,902.801 1670.36,1269.65 1671.4,1269.66 1672.44,942.998 1673.49,943.068 1674.53,746.465 1675.57,746.545 1676.62,934.981 1677.66,935.045 1678.7,1009.72 1679.75,1009.76 1680.79,861.353 1681.83,861.436 1682.88,853.556 1683.92,853.627 1684.96,968.265 1686.01,968.303 1687.05,981.84 1688.09,981.89 1689.14,816.591 1690.18,816.683 1691.22,1045.88 1692.27,1045.91 1693.31,972.162 1694.35,972.216 1695.4,940.327 1696.44,940.391 1697.49,764.493 1698.53,764.626 1699.57,836.728 1700.62,836.816 1701.66,819.269 1702.7,819.341 1703.75,1115.22 1704.79,1115.26 1705.83,819.189 1706.88,819.258 1707.92,1053.12 1708.96,1053.18 1710.01,857.616 1711.05,857.68 1712.09,748.515 1713.14,748.599 1714.18,799.936 1715.22,800.048 1716.27,945.449 1717.31,945.525 1718.35,1010.98 1719.4,1011.03 1720.44,1006.53 1721.48,1006.6 1722.53,1232.95 1723.57,1232.97 1724.61,731.799 1725.66,731.944 1726.7,823.478 1727.74,823.533 1728.79,641.293 1729.83,641.414 1730.87,807.67 1731.92,807.765 1732.96,704.274 1734.01,704.411 1735.05,925.992 1736.09,926.059 1737.14,930.46 1738.18,930.509 1739.22,930.969 1740.27,931.014 1741.31,503.414 1742.35,503.533 1743.4,771.901 1744.44,771.962 1745.48,1161.44 1746.53,1161.46 1747.57,907.441 1748.61,907.504 1749.66,862.822 1750.7,862.893 1751.74,906.291 1752.79,906.373 1753.83,749.768 1754.87,749.847 1755.92,768.594 1756.96,768.681 1758,705.629 1759.05,705.715 1760.09,704.8 1761.13,704.872 1762.18,404.287 1763.22,404.45 1764.26,1055.97 1765.31,1056.01 1766.35,916.692 1767.39,916.769 1768.44,918.058 1769.48,918.131 1770.52,911.371 1771.57,911.437 1772.61,874.035 1773.66,874.109 1774.7,885.779 1775.74,885.895 1776.79,726.291 1777.83,726.394 1778.87,827.544 1779.92,827.601 1780.96,985.01 1782,985.057 1783.05,978.845 1784.09,978.892 1785.13,683.814 1786.18,683.898 1787.22,1053.18 1788.26,1053.2 1789.31,813.592 1790.35,813.694 1791.39,907.971 1792.44,908.02 1793.48,634.693 1794.52,634.781 1795.57,634.268 1796.61,634.359 1797.65,704.958 1798.7,705.046 1799.74,879.459 1800.78,879.505 1801.83,645.708 1802.87,645.824 1803.91,809.762 1804.96,809.882 1806,880.382 1807.04,880.456 1808.09,727.64 1809.13,727.76 1810.18,951.933 1811.22,951.98 1812.26,918.745 1813.31,918.803 1814.35,956.31 1815.39,956.374 1816.44,686.232 1817.48,686.312 1818.52,844.788 1819.57,844.889 1820.61,914.727 1821.65,914.8 1822.7,854.396 1823.74,854.496 1824.78,919.74 1825.83,919.806 1826.87,896.848 1827.91,896.893 1828.96,806.58 1830,806.674 1831.04,924.688 1832.09,924.757 1833.13,884.326 1834.17,884.394 1835.22,751.965 1836.26,752.055 1837.3,1169.7 1838.35,1169.72 1839.39,987.545 1840.43,987.597 1841.48,694.834 1842.52,694.936 1843.56,927.58 1844.61,927.645 1845.65,903.056 1846.69,903.106 1847.74,883.565 1848.78,883.638 1849.83,996.146 1850.87,996.206 1851.91,964.535 1852.96,964.62 1854,957.52 1855.04,957.568 1856.09,937.622 1857.13,937.649 1858.17,896.069 1859.22,896.14 1860.26,783.412 1861.3,783.513 1862.35,782.348 1863.39,782.424 1864.43,830.759 1865.48,830.832 1866.52,87.9763 1867.56,88.1481 1868.61,595.432 1869.65,595.546 1870.69,636.568 1871.74,636.642 1872.78,1133.96 1873.82,1133.98 1874.87,437 1875.91,437.135 1876.95,626 1878,626.167 1879.04,569.988 1880.08,570.204 1881.13,959.251 1882.17,959.307 1883.21,889.559 1884.26,889.639 1885.3,938.277 1886.35,938.307 1887.39,856.957 1888.43,857.04 1889.48,1047.62 1890.52,1047.64 1891.56,955.161 1892.61,955.214 1893.65,789.547 1894.69,789.653 1895.74,558.407 1896.78,558.531 1897.82,982.595 1898.87,982.638 1899.91,802.708 1900.95,802.808 1902,698.134 1903.04,698.214 1904.08,581.219 1905.13,581.329 1906.17,650.441 1907.21,650.551 1908.26,757.97 1909.3,758.076 1910.34,1028.58 1911.39,1028.62 1912.43,744.658 1913.47,744.766 1914.52,867.868 1915.56,867.912 1916.6,862.622 1917.65,862.705 1918.69,772.27 1919.73,772.33 1920.78,969.289 1921.82,969.358 1922.86,821.972 1923.91,822.044 1924.95,660.66 1926,660.815 1927.04,1007.29 1928.08,1007.32 1929.13,771.561 1930.17,771.641 1931.21,853.108 1932.26,853.187 1933.3,942.161 1934.34,942.198 1935.39,892.018 1936.43,892.08 1937.47,874.473 1938.52,874.519 1939.56,545.831 1940.6,545.924 1941.65,988.573 1942.69,988.621 1943.73,637.324 1944.78,637.412 1945.82,965.87 1946.86,965.917 1947.91,557.705 1948.95,557.838 1949.99,821.756 1951.04,821.824 1952.08,895.355 1953.12,895.425 1954.17,517.163 1955.21,517.287 1956.25,961.465 1957.3,961.514 1958.34,990.676 1959.38,990.722 1960.43,890.861 1961.47,890.931 1962.52,976.659 1963.56,976.705 1964.6,827.212 1965.65,827.283 1966.69,761.71 1967.73,761.8 1968.78,965.309 1969.82,965.361 1970.86,843.075 1971.91,843.12 1972.95,558.195 1973.99,558.348 1975.04,901.602 1976.08,901.659 1977.12,936.94 1978.17,937.017 1979.21,420.831 1980.25,420.953 1981.3,613.128 1982.34,613.238 1983.38,632.468 1984.43,632.568 1985.47,713.029 1986.51,713.114 1987.56,287.499 1988.6,287.67 1989.64,870.313 1990.69,870.353 1991.73,649.598 1992.77,649.673 1993.82,783.381 1994.86,783.459 1995.9,1038.52 1996.95,1038.55 1997.99,967.198 1999.03,967.248 2000.08,993.896 2001.12,993.953 2002.17,1000.23 2003.21,1000.28 2004.25,899.292 2005.3,899.369 2006.34,653.917 2007.38,654.002 2008.43,929.726 2009.47,929.777 2010.51,832.617 2011.56,832.692 2012.6,945.18 2013.64,945.235 2014.69,1030.21 2015.73,1030.25 2016.77,604.514 2017.82,604.631 2018.86,892.787 2019.9,892.839 2020.95,574.389 2021.99,574.5 2023.03,698.051 2024.08,698.163 2025.12,967.917 2026.16,967.957 2027.21,968.379 2028.25,968.423 2029.29,1065.9 2030.34,1065.93 2031.38,982.343 2032.42,982.372 2033.47,501.416 2034.51,501.56 2035.55,832.058 2036.6,832.137 2037.64,739.698 2038.69,739.781 2039.73,700.924 2040.77,700.991 2041.82,677.334 2042.86,677.518 2043.9,664.176 2044.95,664.292 2045.99,568.414 2047.03,568.513 2048.08,894.887 2049.12,894.948 2050.16,448.565 2051.21,448.667 2052.25,809.056 2053.29,809.116 2054.34,669.233 2055.38,669.342 2056.42,673.36 2057.47,673.436 2058.51,839.253 2059.55,839.312 2060.6,479.339 2061.64,479.469 2062.68,809.651 2063.73,809.726 2064.77,436.299 2065.81,436.446 2066.86,818.119 2067.9,818.171 2068.94,809.414 2069.99,809.465 2071.03,108.385 2072.07,108.612 2073.12,847.149 2074.16,847.243 2075.2,796.113 2076.25,796.191 2077.29,969.028 2078.34,969.09 2079.38,979.838 2080.42,979.867 2081.47,1033.12 2082.51,1033.15 2083.55,842.549 2084.6,842.613 2085.64,559.364 2086.68,559.476 2087.73,1071.91 2088.77,1071.93 2089.81,818.218 2090.86,818.287 2091.9,414.897 2092.94,415.068 2093.99,665.724 2095.03,665.809 2096.07,867.935 2097.12,867.986 2098.16,494.978 2099.2,495.083 2100.25,790.11 2101.29,790.202 2102.33,943.411 2103.38,943.462 2104.42,751.47 2105.46,751.543 2106.51,507.998 2107.55,508.128 2108.59,528.733 2109.64,528.837 2110.68,632.285 2111.72,632.414 2112.77,781.392 2113.81,781.451 2114.86,654.485 2115.9,654.598 2116.94,602.224 2117.99,602.323 2119.03,808.877 2120.07,808.945 2121.12,846.626 2122.16,846.7 2123.2,868.001 2124.25,868.061 2125.29,1106.31 2126.33,1106.33 2127.38,897.905 2128.42,897.956 2129.46,689.505 2130.51,689.58 2131.55,926.124 2132.59,926.164 2133.64,841.133 2134.68,841.202 2135.72,868.383 2136.77,868.429 2137.81,956.464 2138.85,956.523 2139.9,616.441 2140.94,616.536 2141.98,949.229 2143.03,949.275 2144.07,773.302 2145.11,773.382 2146.16,568.945 2147.2,569.044 2148.24,906.449 2149.29,906.505 2150.33,776.684 2151.37,776.75 2152.42,1011.09 2153.46,1011.12 2154.51,873.68 2155.55,873.74 2156.59,907.8 2157.64,907.848 2158.68,801.391 2159.72,801.476 2160.77,756.203 2161.81,756.278 2162.85,567.833 2163.9,567.979 2164.94,430.464 2165.98,430.572 2167.03,889.923 2168.07,889.962 2169.11,1037.79 2170.16,1037.81 2171.2,504.713 2172.24,504.844 2173.29,550.831 2174.33,550.957 2175.37,730.207 2176.42,730.352 2177.46,860.313 2178.5,860.421 2179.55,507.832 2180.59,507.967 2181.63,938.379 2182.68,938.441 2183.72,810.873 2184.76,810.949 2185.81,814.66 2186.85,814.729 2187.89,1012.86 2188.94,1012.91 2189.98,679.406 2191.03,679.487 2192.07,881.15 2193.11,881.229 2194.16,951.952 2195.2,952.001 2196.24,815.788 2197.29,815.827 2198.33,687.783 2199.37,687.904 2200.42,908.652 2201.46,908.696 2202.5,779.166 2203.55,779.238 2204.59,1008.3 2205.63,1008.33 2206.68,894.189 2207.72,894.248 2208.76,948.704 2209.81,948.768 2210.85,378.956 2211.89,379.058 2212.94,505.447 2213.98,505.557 2215.02,573.018 2216.07,573.145 2217.11,845.381 2218.15,845.436 2219.2,974.201 2220.24,974.243 2221.28,696.133 2222.33,696.205 2223.37,669.276 2224.41,669.359 2225.46,982.282 2226.5,982.316 2227.54,949.606 2228.59,949.647 2229.63,921.122 2230.68,921.152 2231.72,346.487 2232.76,346.624 2233.81,889.082 2234.85,889.117 2235.89,1027.51 2236.94,1027.53 2237.98,504.382 2239.02,504.486 2240.07,790.06 2241.11,790.132 2242.15,852.275 2243.2,852.358 2244.24,1016.09 2245.28,1016.12 2246.33,693.007 2247.37,693.075 2248.41,829.045 2249.46,829.107 2250.5,568.253 2251.54,568.332 2252.59,795.4 2253.63,795.457 2254.67,678.09 2255.72,678.189 2256.76,572.898 2257.8,573.015 2258.85,827.316 2259.89,827.376 2260.93,886.877 2261.98,886.936 2263.02,653.259 2264.06,653.341 2265.11,1015.4 2266.15,1015.44 2267.2,758.041 2268.24,758.123 2269.28,705.281 2270.33,705.35 2271.37,819.046 2272.41,819.124 2273.46,607.72 2274.5,607.794 2275.54,566.578 2276.59,566.67 2277.63,916.005 2278.67,916.058 2279.72,821.242 2280.76,821.328 2281.8,557.382 2282.85,557.499 2283.89,689.633 2284.93,689.724 2285.98,895.789 2287.02,895.832 2288.06,559.035 2289.11,559.156 2290.15,559.276 "/>
<path clip-path="url(#clip120)" d="M214.431 198.898 L488.067 198.898 L488.067 95.2176 L214.431 95.2176  Z" fill="#ffffff" fill-rule="evenodd" fill-opacity="1"/>
<polyline clip-path="url(#clip120)" style="stroke:#000000; stroke-linecap:round; stroke-linejoin:round; stroke-width:4; stroke-opacity:1; fill:none" points="214.431,198.898 488.067,198.898 488.067,95.2176 214.431,95.2176 214.431,198.898 "/>
<polyline clip-path="url(#clip120)" style="stroke:#009af9; stroke-linecap:round; stroke-linejoin:round; stroke-width:4; stroke-opacity:1; fill:none" points="239.009,147.058 386.48,147.058 "/>
<path clip-path="url(#clip120)" d="M424.901 166.745 Q423.095 171.375 421.382 172.787 Q419.67 174.199 416.799 174.199 L413.396 174.199 L413.396 170.634 L415.896 170.634 Q417.656 170.634 418.628 169.8 Q419.6 168.967 420.781 165.865 L421.545 163.921 L411.058 138.412 L415.572 138.412 L423.674 158.689 L431.776 138.412 L436.29 138.412 L424.901 166.745 Z" fill="#000000" fill-rule="nonzero" fill-opacity="1" /><path clip-path="url(#clip120)" d="M443.581 160.402 L451.22 160.402 L451.22 134.037 L442.91 135.703 L442.91 131.444 L451.174 129.778 L455.85 129.778 L455.85 160.402 L463.489 160.402 L463.489 164.338 L443.581 164.338 L443.581 160.402 Z" fill="#000000" fill-rule="nonzero" fill-opacity="1" /></svg>
