<?xml version="1.0" encoding="utf-8"?>
<svg xmlns="http://www.w3.org/2000/svg" xmlns:xlink="http://www.w3.org/1999/xlink" width="600" height="400" viewBox="0 0 2400 1600">
<defs>
  <clipPath id="clip270">
    <rect x="0" y="0" width="2400" height="1600"/>
  </clipPath>
</defs>
<path clip-path="url(#clip270)" d="M0 1600 L2400 1600 L2400 0 L0 0  Z" fill="#ffffff" fill-rule="evenodd" fill-opacity="1"/>
<defs>
  <clipPath id="clip271">
    <rect x="480" y="0" width="1681" height="1600"/>
  </clipPath>
</defs>
<path clip-path="url(#clip270)" d="M156.274 1486.45 L2352.76 1486.45 L2352.76 47.2441 L156.274 47.2441  Z" fill="#ffffff" fill-rule="evenodd" fill-opacity="1"/>
<defs>
  <clipPath id="clip272">
    <rect x="156" y="47" width="2197" height="1440"/>
  </clipPath>
</defs>
<polyline clip-path="url(#clip272)" style="stroke:#000000; stroke-linecap:round; stroke-linejoin:round; stroke-width:2; stroke-opacity:0.1; fill:none" points="218.439,1486.45 218.439,47.2441 "/>
<polyline clip-path="url(#clip272)" style="stroke:#000000; stroke-linecap:round; stroke-linejoin:round; stroke-width:2; stroke-opacity:0.1; fill:none" points="736.736,1486.45 736.736,47.2441 "/>
<polyline clip-path="url(#clip272)" style="stroke:#000000; stroke-linecap:round; stroke-linejoin:round; stroke-width:2; stroke-opacity:0.1; fill:none" points="1255.03,1486.45 1255.03,47.2441 "/>
<polyline clip-path="url(#clip272)" style="stroke:#000000; stroke-linecap:round; stroke-linejoin:round; stroke-width:2; stroke-opacity:0.1; fill:none" points="1773.33,1486.45 1773.33,47.2441 "/>
<polyline clip-path="url(#clip272)" style="stroke:#000000; stroke-linecap:round; stroke-linejoin:round; stroke-width:2; stroke-opacity:0.1; fill:none" points="2291.63,1486.45 2291.63,47.2441 "/>
<polyline clip-path="url(#clip270)" style="stroke:#000000; stroke-linecap:round; stroke-linejoin:round; stroke-width:4; stroke-opacity:1; fill:none" points="156.274,1486.45 2352.76,1486.45 "/>
<polyline clip-path="url(#clip270)" style="stroke:#000000; stroke-linecap:round; stroke-linejoin:round; stroke-width:4; stroke-opacity:1; fill:none" points="218.439,1486.45 218.439,1467.55 "/>
<polyline clip-path="url(#clip270)" style="stroke:#000000; stroke-linecap:round; stroke-linejoin:round; stroke-width:4; stroke-opacity:1; fill:none" points="736.736,1486.45 736.736,1467.55 "/>
<polyline clip-path="url(#clip270)" style="stroke:#000000; stroke-linecap:round; stroke-linejoin:round; stroke-width:4; stroke-opacity:1; fill:none" points="1255.03,1486.45 1255.03,1467.55 "/>
<polyline clip-path="url(#clip270)" style="stroke:#000000; stroke-linecap:round; stroke-linejoin:round; stroke-width:4; stroke-opacity:1; fill:none" points="1773.33,1486.45 1773.33,1467.55 "/>
<polyline clip-path="url(#clip270)" style="stroke:#000000; stroke-linecap:round; stroke-linejoin:round; stroke-width:4; stroke-opacity:1; fill:none" points="2291.63,1486.45 2291.63,1467.55 "/>
<path clip-path="url(#clip270)" d="M218.439 1517.37 Q214.828 1517.37 212.999 1520.93 Q211.193 1524.47 211.193 1531.6 Q211.193 1538.71 212.999 1542.27 Q214.828 1545.82 218.439 1545.82 Q222.073 1545.82 223.879 1542.27 Q225.707 1538.71 225.707 1531.6 Q225.707 1524.47 223.879 1520.93 Q222.073 1517.37 218.439 1517.37 M218.439 1513.66 Q224.249 1513.66 227.304 1518.27 Q230.383 1522.85 230.383 1531.6 Q230.383 1540.33 227.304 1544.94 Q224.249 1549.52 218.439 1549.52 Q212.629 1549.52 209.55 1544.94 Q206.494 1540.33 206.494 1531.6 Q206.494 1522.85 209.55 1518.27 Q212.629 1513.66 218.439 1513.66 Z" fill="#000000" fill-rule="nonzero" fill-opacity="1" /><path clip-path="url(#clip270)" d="M696.354 1514.29 L714.711 1514.29 L714.711 1518.22 L700.637 1518.22 L700.637 1526.7 Q701.655 1526.35 702.674 1526.19 Q703.692 1526 704.711 1526 Q710.498 1526 713.877 1529.17 Q717.257 1532.34 717.257 1537.76 Q717.257 1543.34 713.785 1546.44 Q710.313 1549.52 703.993 1549.52 Q701.817 1549.52 699.549 1549.15 Q697.303 1548.78 694.896 1548.04 L694.896 1543.34 Q696.979 1544.47 699.202 1545.03 Q701.424 1545.58 703.901 1545.58 Q707.905 1545.58 710.243 1543.48 Q712.581 1541.37 712.581 1537.76 Q712.581 1534.15 710.243 1532.04 Q707.905 1529.94 703.901 1529.94 Q702.026 1529.94 700.151 1530.35 Q698.299 1530.77 696.354 1531.65 L696.354 1514.29 Z" fill="#000000" fill-rule="nonzero" fill-opacity="1" /><path clip-path="url(#clip270)" d="M736.47 1517.37 Q732.859 1517.37 731.03 1520.93 Q729.225 1524.47 729.225 1531.6 Q729.225 1538.71 731.03 1542.27 Q732.859 1545.82 736.47 1545.82 Q740.104 1545.82 741.91 1542.27 Q743.738 1538.71 743.738 1531.6 Q743.738 1524.47 741.91 1520.93 Q740.104 1517.37 736.47 1517.37 M736.47 1513.66 Q742.28 1513.66 745.336 1518.27 Q748.414 1522.85 748.414 1531.6 Q748.414 1540.33 745.336 1544.94 Q742.28 1549.52 736.47 1549.52 Q730.66 1549.52 727.581 1544.94 Q724.525 1540.33 724.525 1531.6 Q724.525 1522.85 727.581 1518.27 Q730.66 1513.66 736.47 1513.66 Z" fill="#000000" fill-rule="nonzero" fill-opacity="1" /><path clip-path="url(#clip270)" d="M766.632 1517.37 Q763.021 1517.37 761.192 1520.93 Q759.386 1524.47 759.386 1531.6 Q759.386 1538.71 761.192 1542.27 Q763.021 1545.82 766.632 1545.82 Q770.266 1545.82 772.071 1542.27 Q773.9 1538.71 773.9 1531.6 Q773.9 1524.47 772.071 1520.93 Q770.266 1517.37 766.632 1517.37 M766.632 1513.66 Q772.442 1513.66 775.497 1518.27 Q778.576 1522.85 778.576 1531.6 Q778.576 1540.33 775.497 1544.94 Q772.442 1549.52 766.632 1549.52 Q760.822 1549.52 757.743 1544.94 Q754.687 1540.33 754.687 1531.6 Q754.687 1522.85 757.743 1518.27 Q760.822 1513.66 766.632 1513.66 Z" fill="#000000" fill-rule="nonzero" fill-opacity="1" /><path clip-path="url(#clip270)" d="M1199.56 1544.91 L1207.2 1544.91 L1207.2 1518.55 L1198.89 1520.21 L1198.89 1515.95 L1207.15 1514.29 L1211.83 1514.29 L1211.83 1544.91 L1219.47 1544.91 L1219.47 1548.85 L1199.56 1548.85 L1199.56 1544.91 Z" fill="#000000" fill-rule="nonzero" fill-opacity="1" /><path clip-path="url(#clip270)" d="M1238.91 1517.37 Q1235.3 1517.37 1233.47 1520.93 Q1231.67 1524.47 1231.67 1531.6 Q1231.67 1538.71 1233.47 1542.27 Q1235.3 1545.82 1238.91 1545.82 Q1242.54 1545.82 1244.35 1542.27 Q1246.18 1538.71 1246.18 1531.6 Q1246.18 1524.47 1244.35 1520.93 Q1242.54 1517.37 1238.91 1517.37 M1238.91 1513.66 Q1244.72 1513.66 1247.78 1518.27 Q1250.86 1522.85 1250.86 1531.6 Q1250.86 1540.33 1247.78 1544.94 Q1244.72 1549.52 1238.91 1549.52 Q1233.1 1549.52 1230.02 1544.94 Q1226.97 1540.33 1226.97 1531.6 Q1226.97 1522.85 1230.02 1518.27 Q1233.1 1513.66 1238.91 1513.66 Z" fill="#000000" fill-rule="nonzero" fill-opacity="1" /><path clip-path="url(#clip270)" d="M1269.07 1517.37 Q1265.46 1517.37 1263.63 1520.93 Q1261.83 1524.47 1261.83 1531.6 Q1261.83 1538.71 1263.63 1542.27 Q1265.46 1545.82 1269.07 1545.82 Q1272.71 1545.82 1274.51 1542.27 Q1276.34 1538.71 1276.34 1531.6 Q1276.34 1524.47 1274.51 1520.93 Q1272.71 1517.37 1269.07 1517.37 M1269.07 1513.66 Q1274.88 1513.66 1277.94 1518.27 Q1281.02 1522.85 1281.02 1531.6 Q1281.02 1540.33 1277.94 1544.94 Q1274.88 1549.52 1269.07 1549.52 Q1263.26 1549.52 1260.18 1544.94 Q1257.13 1540.33 1257.13 1531.6 Q1257.13 1522.85 1260.18 1518.27 Q1263.26 1513.66 1269.07 1513.66 Z" fill="#000000" fill-rule="nonzero" fill-opacity="1" /><path clip-path="url(#clip270)" d="M1299.23 1517.37 Q1295.62 1517.37 1293.79 1520.93 Q1291.99 1524.47 1291.99 1531.6 Q1291.99 1538.71 1293.79 1542.27 Q1295.62 1545.82 1299.23 1545.82 Q1302.87 1545.82 1304.67 1542.27 Q1306.5 1538.71 1306.5 1531.6 Q1306.5 1524.47 1304.67 1520.93 Q1302.87 1517.37 1299.23 1517.37 M1299.23 1513.66 Q1305.04 1513.66 1308.1 1518.27 Q1311.18 1522.85 1311.18 1531.6 Q1311.18 1540.33 1308.1 1544.94 Q1305.04 1549.52 1299.23 1549.52 Q1293.42 1549.52 1290.35 1544.94 Q1287.29 1540.33 1287.29 1531.6 Q1287.29 1522.85 1290.35 1518.27 Q1293.42 1513.66 1299.23 1513.66 Z" fill="#000000" fill-rule="nonzero" fill-opacity="1" /><path clip-path="url(#clip270)" d="M1717.86 1544.91 L1725.5 1544.91 L1725.5 1518.55 L1717.19 1520.21 L1717.19 1515.95 L1725.45 1514.29 L1730.12 1514.29 L1730.12 1544.91 L1737.76 1544.91 L1737.76 1548.85 L1717.86 1548.85 L1717.86 1544.91 Z" fill="#000000" fill-rule="nonzero" fill-opacity="1" /><path clip-path="url(#clip270)" d="M1747.25 1514.29 L1765.61 1514.29 L1765.61 1518.22 L1751.54 1518.22 L1751.54 1526.7 Q1752.56 1526.35 1753.57 1526.19 Q1754.59 1526 1755.61 1526 Q1761.4 1526 1764.78 1529.17 Q1768.16 1532.34 1768.16 1537.76 Q1768.16 1543.34 1764.68 1546.44 Q1761.21 1549.52 1754.89 1549.52 Q1752.72 1549.52 1750.45 1549.15 Q1748.2 1548.78 1745.8 1548.04 L1745.8 1543.34 Q1747.88 1544.47 1750.1 1545.03 Q1752.32 1545.58 1754.8 1545.58 Q1758.81 1545.58 1761.14 1543.48 Q1763.48 1541.37 1763.48 1537.76 Q1763.48 1534.15 1761.14 1532.04 Q1758.81 1529.94 1754.8 1529.94 Q1752.93 1529.94 1751.05 1530.35 Q1749.2 1530.77 1747.25 1531.65 L1747.25 1514.29 Z" fill="#000000" fill-rule="nonzero" fill-opacity="1" /><path clip-path="url(#clip270)" d="M1787.37 1517.37 Q1783.76 1517.37 1781.93 1520.93 Q1780.12 1524.47 1780.12 1531.6 Q1780.12 1538.71 1781.93 1542.27 Q1783.76 1545.82 1787.37 1545.82 Q1791 1545.82 1792.81 1542.27 Q1794.64 1538.71 1794.64 1531.6 Q1794.64 1524.47 1792.81 1520.93 Q1791 1517.37 1787.37 1517.37 M1787.37 1513.66 Q1793.18 1513.66 1796.24 1518.27 Q1799.31 1522.85 1799.31 1531.6 Q1799.31 1540.33 1796.24 1544.94 Q1793.18 1549.52 1787.37 1549.52 Q1781.56 1549.52 1778.48 1544.94 Q1775.43 1540.33 1775.43 1531.6 Q1775.43 1522.85 1778.48 1518.27 Q1781.56 1513.66 1787.37 1513.66 Z" fill="#000000" fill-rule="nonzero" fill-opacity="1" /><path clip-path="url(#clip270)" d="M1817.53 1517.37 Q1813.92 1517.37 1812.09 1520.93 Q1810.29 1524.47 1810.29 1531.6 Q1810.29 1538.71 1812.09 1542.27 Q1813.92 1545.82 1817.53 1545.82 Q1821.17 1545.82 1822.97 1542.27 Q1824.8 1538.71 1824.8 1531.6 Q1824.8 1524.47 1822.97 1520.93 Q1821.17 1517.37 1817.53 1517.37 M1817.53 1513.66 Q1823.34 1513.66 1826.4 1518.27 Q1829.48 1522.85 1829.48 1531.6 Q1829.48 1540.33 1826.4 1544.94 Q1823.34 1549.52 1817.53 1549.52 Q1811.72 1549.52 1808.64 1544.94 Q1805.59 1540.33 1805.59 1531.6 Q1805.59 1522.85 1808.64 1518.27 Q1811.72 1513.66 1817.53 1513.66 Z" fill="#000000" fill-rule="nonzero" fill-opacity="1" /><path clip-path="url(#clip270)" d="M2240.24 1544.91 L2256.56 1544.91 L2256.56 1548.85 L2234.61 1548.85 L2234.61 1544.91 Q2237.28 1542.16 2241.86 1537.53 Q2246.47 1532.88 2247.65 1531.53 Q2249.89 1529.01 2250.77 1527.27 Q2251.67 1525.51 2251.67 1523.82 Q2251.67 1521.07 2249.73 1519.33 Q2247.81 1517.6 2244.71 1517.6 Q2242.51 1517.6 2240.05 1518.36 Q2237.62 1519.13 2234.85 1520.68 L2234.85 1515.95 Q2237.67 1514.82 2240.12 1514.24 Q2242.58 1513.66 2244.61 1513.66 Q2249.98 1513.66 2253.18 1516.35 Q2256.37 1519.03 2256.37 1523.52 Q2256.37 1525.65 2255.56 1527.57 Q2254.78 1529.47 2252.67 1532.07 Q2252.09 1532.74 2248.99 1535.95 Q2245.89 1539.15 2240.24 1544.91 Z" fill="#000000" fill-rule="nonzero" fill-opacity="1" /><path clip-path="url(#clip270)" d="M2276.37 1517.37 Q2272.76 1517.37 2270.93 1520.93 Q2269.13 1524.47 2269.13 1531.6 Q2269.13 1538.71 2270.93 1542.27 Q2272.76 1545.82 2276.37 1545.82 Q2280.01 1545.82 2281.81 1542.27 Q2283.64 1538.71 2283.64 1531.6 Q2283.64 1524.47 2281.81 1520.93 Q2280.01 1517.37 2276.37 1517.37 M2276.37 1513.66 Q2282.18 1513.66 2285.24 1518.27 Q2288.32 1522.85 2288.32 1531.6 Q2288.32 1540.33 2285.24 1544.94 Q2282.18 1549.52 2276.37 1549.52 Q2270.56 1549.52 2267.48 1544.94 Q2264.43 1540.33 2264.43 1531.6 Q2264.43 1522.85 2267.48 1518.27 Q2270.56 1513.66 2276.37 1513.66 Z" fill="#000000" fill-rule="nonzero" fill-opacity="1" /><path clip-path="url(#clip270)" d="M2306.54 1517.37 Q2302.92 1517.37 2301.1 1520.93 Q2299.29 1524.47 2299.29 1531.6 Q2299.29 1538.71 2301.1 1542.27 Q2302.92 1545.82 2306.54 1545.82 Q2310.17 1545.82 2311.98 1542.27 Q2313.8 1538.71 2313.8 1531.6 Q2313.8 1524.47 2311.98 1520.93 Q2310.17 1517.37 2306.54 1517.37 M2306.54 1513.66 Q2312.35 1513.66 2315.4 1518.27 Q2318.48 1522.85 2318.48 1531.6 Q2318.48 1540.33 2315.4 1544.94 Q2312.35 1549.52 2306.54 1549.52 Q2300.73 1549.52 2297.65 1544.94 Q2294.59 1540.33 2294.59 1531.6 Q2294.59 1522.85 2297.65 1518.27 Q2300.73 1513.66 2306.54 1513.66 Z" fill="#000000" fill-rule="nonzero" fill-opacity="1" /><path clip-path="url(#clip270)" d="M2336.7 1517.37 Q2333.09 1517.37 2331.26 1520.93 Q2329.45 1524.47 2329.45 1531.6 Q2329.45 1538.71 2331.26 1542.27 Q2333.09 1545.82 2336.7 1545.82 Q2340.33 1545.82 2342.14 1542.27 Q2343.97 1538.71 2343.97 1531.6 Q2343.97 1524.47 2342.14 1520.93 Q2340.33 1517.37 2336.7 1517.37 M2336.7 1513.66 Q2342.51 1513.66 2345.56 1518.27 Q2348.64 1522.85 2348.64 1531.6 Q2348.64 1540.33 2345.56 1544.94 Q2342.51 1549.52 2336.7 1549.52 Q2330.89 1549.52 2327.81 1544.94 Q2324.75 1540.33 2324.75 1531.6 Q2324.75 1522.85 2327.81 1518.27 Q2330.89 1513.66 2336.7 1513.66 Z" fill="#000000" fill-rule="nonzero" fill-opacity="1" /><polyline clip-path="url(#clip272)" style="stroke:#000000; stroke-linecap:round; stroke-linejoin:round; stroke-width:2; stroke-opacity:0.1; fill:none" points="156.274,1445.72 2352.76,1445.72 "/>
<polyline clip-path="url(#clip272)" style="stroke:#000000; stroke-linecap:round; stroke-linejoin:round; stroke-width:2; stroke-opacity:0.1; fill:none" points="156.274,1168.63 2352.76,1168.63 "/>
<polyline clip-path="url(#clip272)" style="stroke:#000000; stroke-linecap:round; stroke-linejoin:round; stroke-width:2; stroke-opacity:0.1; fill:none" points="156.274,891.536 2352.76,891.536 "/>
<polyline clip-path="url(#clip272)" style="stroke:#000000; stroke-linecap:round; stroke-linejoin:round; stroke-width:2; stroke-opacity:0.1; fill:none" points="156.274,614.447 2352.76,614.447 "/>
<polyline clip-path="url(#clip272)" style="stroke:#000000; stroke-linecap:round; stroke-linejoin:round; stroke-width:2; stroke-opacity:0.1; fill:none" points="156.274,337.357 2352.76,337.357 "/>
<polyline clip-path="url(#clip272)" style="stroke:#000000; stroke-linecap:round; stroke-linejoin:round; stroke-width:2; stroke-opacity:0.1; fill:none" points="156.274,60.2673 2352.76,60.2673 "/>
<polyline clip-path="url(#clip270)" style="stroke:#000000; stroke-linecap:round; stroke-linejoin:round; stroke-width:4; stroke-opacity:1; fill:none" points="156.274,1486.45 156.274,47.2441 "/>
<polyline clip-path="url(#clip270)" style="stroke:#000000; stroke-linecap:round; stroke-linejoin:round; stroke-width:4; stroke-opacity:1; fill:none" points="156.274,1445.72 175.172,1445.72 "/>
<polyline clip-path="url(#clip270)" style="stroke:#000000; stroke-linecap:round; stroke-linejoin:round; stroke-width:4; stroke-opacity:1; fill:none" points="156.274,1168.63 175.172,1168.63 "/>
<polyline clip-path="url(#clip270)" style="stroke:#000000; stroke-linecap:round; stroke-linejoin:round; stroke-width:4; stroke-opacity:1; fill:none" points="156.274,891.536 175.172,891.536 "/>
<polyline clip-path="url(#clip270)" style="stroke:#000000; stroke-linecap:round; stroke-linejoin:round; stroke-width:4; stroke-opacity:1; fill:none" points="156.274,614.447 175.172,614.447 "/>
<polyline clip-path="url(#clip270)" style="stroke:#000000; stroke-linecap:round; stroke-linejoin:round; stroke-width:4; stroke-opacity:1; fill:none" points="156.274,337.357 175.172,337.357 "/>
<polyline clip-path="url(#clip270)" style="stroke:#000000; stroke-linecap:round; stroke-linejoin:round; stroke-width:4; stroke-opacity:1; fill:none" points="156.274,60.2673 175.172,60.2673 "/>
<path clip-path="url(#clip270)" d="M64.0939 1431.51 Q60.4828 1431.51 58.6541 1435.08 Q56.8486 1438.62 56.8486 1445.75 Q56.8486 1452.86 58.6541 1456.42 Q60.4828 1459.96 64.0939 1459.96 Q67.7281 1459.96 69.5337 1456.42 Q71.3624 1452.86 71.3624 1445.75 Q71.3624 1438.62 69.5337 1435.08 Q67.7281 1431.51 64.0939 1431.51 M64.0939 1427.81 Q69.9041 1427.81 72.9596 1432.42 Q76.0383 1437 76.0383 1445.75 Q76.0383 1454.48 72.9596 1459.08 Q69.9041 1463.67 64.0939 1463.67 Q58.2838 1463.67 55.2051 1459.08 Q52.1495 1454.48 52.1495 1445.75 Q52.1495 1437 55.2051 1432.42 Q58.2838 1427.81 64.0939 1427.81 Z" fill="#000000" fill-rule="nonzero" fill-opacity="1" /><path clip-path="url(#clip270)" d="M84.2558 1457.12 L89.1401 1457.12 L89.1401 1463 L84.2558 1463 L84.2558 1457.12 Z" fill="#000000" fill-rule="nonzero" fill-opacity="1" /><path clip-path="url(#clip270)" d="M99.3715 1428.44 L117.728 1428.44 L117.728 1432.37 L103.654 1432.37 L103.654 1440.84 Q104.672 1440.5 105.691 1440.33 Q106.709 1440.15 107.728 1440.15 Q113.515 1440.15 116.895 1443.32 Q120.274 1446.49 120.274 1451.91 Q120.274 1457.49 116.802 1460.59 Q113.33 1463.67 107.01 1463.67 Q104.834 1463.67 102.566 1463.3 Q100.321 1462.93 97.9132 1462.19 L97.9132 1457.49 Q99.9965 1458.62 102.219 1459.18 Q104.441 1459.73 106.918 1459.73 Q110.922 1459.73 113.26 1457.63 Q115.598 1455.52 115.598 1451.91 Q115.598 1448.3 113.26 1446.19 Q110.922 1444.08 106.918 1444.08 Q105.043 1444.08 103.168 1444.5 Q101.316 1444.92 99.3715 1445.8 L99.3715 1428.44 Z" fill="#000000" fill-rule="nonzero" fill-opacity="1" /><path clip-path="url(#clip270)" d="M62.9365 1154.42 Q59.3254 1154.42 57.4967 1157.99 Q55.6912 1161.53 55.6912 1168.66 Q55.6912 1175.77 57.4967 1179.33 Q59.3254 1182.87 62.9365 1182.87 Q66.5707 1182.87 68.3763 1179.33 Q70.205 1175.77 70.205 1168.66 Q70.205 1161.53 68.3763 1157.99 Q66.5707 1154.42 62.9365 1154.42 M62.9365 1150.72 Q68.7467 1150.72 71.8022 1155.33 Q74.8809 1159.91 74.8809 1168.66 Q74.8809 1177.39 71.8022 1181.99 Q68.7467 1186.58 62.9365 1186.58 Q57.1264 1186.58 54.0477 1181.99 Q50.9921 1177.39 50.9921 1168.66 Q50.9921 1159.91 54.0477 1155.33 Q57.1264 1150.72 62.9365 1150.72 Z" fill="#000000" fill-rule="nonzero" fill-opacity="1" /><path clip-path="url(#clip270)" d="M83.0984 1180.03 L87.9827 1180.03 L87.9827 1185.91 L83.0984 1185.91 L83.0984 1180.03 Z" fill="#000000" fill-rule="nonzero" fill-opacity="1" /><path clip-path="url(#clip270)" d="M108.746 1166.76 Q105.598 1166.76 103.746 1168.92 Q101.918 1171.07 101.918 1174.82 Q101.918 1178.54 103.746 1180.72 Q105.598 1182.87 108.746 1182.87 Q111.895 1182.87 113.723 1180.72 Q115.575 1178.54 115.575 1174.82 Q115.575 1171.07 113.723 1168.92 Q111.895 1166.76 108.746 1166.76 M118.029 1152.11 L118.029 1156.37 Q116.27 1155.54 114.464 1155.1 Q112.682 1154.66 110.922 1154.66 Q106.293 1154.66 103.839 1157.78 Q101.409 1160.91 101.061 1167.23 Q102.427 1165.21 104.487 1164.15 Q106.547 1163.06 109.024 1163.06 Q114.233 1163.06 117.242 1166.23 Q120.274 1169.38 120.274 1174.82 Q120.274 1180.14 117.126 1183.36 Q113.978 1186.58 108.746 1186.58 Q102.751 1186.58 99.5798 1181.99 Q96.4085 1177.39 96.4085 1168.66 Q96.4085 1160.47 100.297 1155.61 Q104.186 1150.72 110.737 1150.72 Q112.496 1150.72 114.279 1151.07 Q116.084 1151.42 118.029 1152.11 Z" fill="#000000" fill-rule="nonzero" fill-opacity="1" /><path clip-path="url(#clip270)" d="M64.0013 877.335 Q60.3902 877.335 58.5615 880.9 Q56.756 884.441 56.756 891.571 Q56.756 898.678 58.5615 902.242 Q60.3902 905.784 64.0013 905.784 Q67.6356 905.784 69.4411 902.242 Q71.2698 898.678 71.2698 891.571 Q71.2698 884.441 69.4411 880.9 Q67.6356 877.335 64.0013 877.335 M64.0013 873.631 Q69.8115 873.631 72.867 878.238 Q75.9457 882.821 75.9457 891.571 Q75.9457 900.298 72.867 904.904 Q69.8115 909.488 64.0013 909.488 Q58.1912 909.488 55.1125 904.904 Q52.0569 900.298 52.0569 891.571 Q52.0569 882.821 55.1125 878.238 Q58.1912 873.631 64.0013 873.631 Z" fill="#000000" fill-rule="nonzero" fill-opacity="1" /><path clip-path="url(#clip270)" d="M84.1632 902.937 L89.0475 902.937 L89.0475 908.816 L84.1632 908.816 L84.1632 902.937 Z" fill="#000000" fill-rule="nonzero" fill-opacity="1" /><path clip-path="url(#clip270)" d="M98.0521 874.256 L120.274 874.256 L120.274 876.247 L107.728 908.816 L102.844 908.816 L114.649 878.192 L98.0521 878.192 L98.0521 874.256 Z" fill="#000000" fill-rule="nonzero" fill-opacity="1" /><path clip-path="url(#clip270)" d="M63.1911 600.245 Q59.58 600.245 57.7513 603.81 Q55.9458 607.352 55.9458 614.481 Q55.9458 621.588 57.7513 625.153 Q59.58 628.694 63.1911 628.694 Q66.8254 628.694 68.6309 625.153 Q70.4596 621.588 70.4596 614.481 Q70.4596 607.352 68.6309 603.81 Q66.8254 600.245 63.1911 600.245 M63.1911 596.542 Q69.0013 596.542 72.0568 601.148 Q75.1355 605.731 75.1355 614.481 Q75.1355 623.208 72.0568 627.815 Q69.0013 632.398 63.1911 632.398 Q57.381 632.398 54.3023 627.815 Q51.2468 623.208 51.2468 614.481 Q51.2468 605.731 54.3023 601.148 Q57.381 596.542 63.1911 596.542 Z" fill="#000000" fill-rule="nonzero" fill-opacity="1" /><path clip-path="url(#clip270)" d="M83.3531 625.847 L88.2373 625.847 L88.2373 631.727 L83.3531 631.727 L83.3531 625.847 Z" fill="#000000" fill-rule="nonzero" fill-opacity="1" /><path clip-path="url(#clip270)" d="M108.422 615.315 Q105.089 615.315 103.168 617.097 Q101.27 618.88 101.27 622.004 Q101.27 625.129 103.168 626.912 Q105.089 628.694 108.422 628.694 Q111.756 628.694 113.677 626.912 Q115.598 625.106 115.598 622.004 Q115.598 618.88 113.677 617.097 Q111.779 615.315 108.422 615.315 M103.746 613.324 Q100.737 612.583 99.0474 610.523 Q97.3808 608.463 97.3808 605.5 Q97.3808 601.356 100.321 598.949 Q103.284 596.542 108.422 596.542 Q113.584 596.542 116.524 598.949 Q119.464 601.356 119.464 605.5 Q119.464 608.463 117.774 610.523 Q116.108 612.583 113.121 613.324 Q116.501 614.111 118.376 616.403 Q120.274 618.694 120.274 622.004 Q120.274 627.028 117.195 629.713 Q114.14 632.398 108.422 632.398 Q102.705 632.398 99.6261 629.713 Q96.5706 627.028 96.5706 622.004 Q96.5706 618.694 98.4687 616.403 Q100.367 614.111 103.746 613.324 M102.034 605.94 Q102.034 608.625 103.7 610.13 Q105.39 611.634 108.422 611.634 Q111.432 611.634 113.121 610.13 Q114.834 608.625 114.834 605.94 Q114.834 603.255 113.121 601.75 Q111.432 600.245 108.422 600.245 Q105.39 600.245 103.7 601.75 Q102.034 603.255 102.034 605.94 Z" fill="#000000" fill-rule="nonzero" fill-opacity="1" /><path clip-path="url(#clip270)" d="M63.2837 323.156 Q59.6726 323.156 57.8439 326.72 Q56.0384 330.262 56.0384 337.392 Q56.0384 344.498 57.8439 348.063 Q59.6726 351.605 63.2837 351.605 Q66.918 351.605 68.7235 348.063 Q70.5522 344.498 70.5522 337.392 Q70.5522 330.262 68.7235 326.72 Q66.918 323.156 63.2837 323.156 M63.2837 319.452 Q69.0939 319.452 72.1494 324.058 Q75.2281 328.642 75.2281 337.392 Q75.2281 346.119 72.1494 350.725 Q69.0939 355.308 63.2837 355.308 Q57.4736 355.308 54.3949 350.725 Q51.3393 346.119 51.3393 337.392 Q51.3393 328.642 54.3949 324.058 Q57.4736 319.452 63.2837 319.452 Z" fill="#000000" fill-rule="nonzero" fill-opacity="1" /><path clip-path="url(#clip270)" d="M83.4457 348.757 L88.3299 348.757 L88.3299 354.637 L83.4457 354.637 L83.4457 348.757 Z" fill="#000000" fill-rule="nonzero" fill-opacity="1" /><path clip-path="url(#clip270)" d="M98.6539 353.919 L98.6539 349.66 Q100.413 350.493 102.219 350.933 Q104.024 351.373 105.76 351.373 Q110.39 351.373 112.82 348.271 Q115.274 345.146 115.621 338.804 Q114.279 340.794 112.219 341.859 Q110.158 342.924 107.658 342.924 Q102.473 342.924 99.4409 339.799 Q96.4317 336.651 96.4317 331.211 Q96.4317 325.887 99.5798 322.67 Q102.728 319.452 107.959 319.452 Q113.955 319.452 117.103 324.058 Q120.274 328.642 120.274 337.392 Q120.274 345.563 116.385 350.447 Q112.52 355.308 105.969 355.308 Q104.209 355.308 102.404 354.961 Q100.598 354.614 98.6539 353.919 M107.959 339.267 Q111.108 339.267 112.936 337.114 Q114.788 334.961 114.788 331.211 Q114.788 327.484 112.936 325.332 Q111.108 323.156 107.959 323.156 Q104.811 323.156 102.959 325.332 Q101.131 327.484 101.131 331.211 Q101.131 334.961 102.959 337.114 Q104.811 339.267 107.959 339.267 Z" fill="#000000" fill-rule="nonzero" fill-opacity="1" /><path clip-path="url(#clip270)" d="M53.9088 73.6121 L61.5476 73.6121 L61.5476 47.2465 L53.2375 48.9132 L53.2375 44.654 L61.5013 42.9873 L66.1772 42.9873 L66.1772 73.6121 L73.8161 73.6121 L73.8161 77.5473 L53.9088 77.5473 L53.9088 73.6121 Z" fill="#000000" fill-rule="nonzero" fill-opacity="1" /><path clip-path="url(#clip270)" d="M83.2605 71.6677 L88.1447 71.6677 L88.1447 77.5473 L83.2605 77.5473 L83.2605 71.6677 Z" fill="#000000" fill-rule="nonzero" fill-opacity="1" /><path clip-path="url(#clip270)" d="M108.33 46.066 Q104.719 46.066 102.89 49.6308 Q101.084 53.1724 101.084 60.302 Q101.084 67.4085 102.89 70.9733 Q104.719 74.5149 108.33 74.5149 Q111.964 74.5149 113.77 70.9733 Q115.598 67.4085 115.598 60.302 Q115.598 53.1724 113.77 49.6308 Q111.964 46.066 108.33 46.066 M108.33 42.3623 Q114.14 42.3623 117.195 46.9688 Q120.274 51.5521 120.274 60.302 Q120.274 69.0288 117.195 73.6353 Q114.14 78.2186 108.33 78.2186 Q102.52 78.2186 99.4409 73.6353 Q96.3854 69.0288 96.3854 60.302 Q96.3854 51.5521 99.4409 46.9688 Q102.52 42.3623 108.33 42.3623 Z" fill="#000000" fill-rule="nonzero" fill-opacity="1" /><polyline clip-path="url(#clip272)" style="stroke:#009af9; stroke-linecap:round; stroke-linejoin:round; stroke-width:4; stroke-opacity:1; fill:none" points="218.439,1237.9 219.475,1140.92 220.512,1154.77 221.549,1099.35 222.585,1057.79 223.622,1057.79 224.658,974.663 225.695,988.518 226.731,1030.08 227.768,1127.06 228.805,1196.33 229.841,1168.63 230.878,1099.35 231.914,1002.37 232.951,1154.77 233.988,1182.48 235.024,1113.21 236.061,1057.79 237.097,1140.92 238.134,1321.03 239.171,1224.04 240.207,1030.08 241.244,1057.79 242.28,974.663 243.317,1099.35 244.354,1113.21 245.39,1016.23 246.427,1168.63 247.463,1085.5 248.5,1071.64 249.537,1085.5 250.573,1210.19 251.61,1182.48 252.646,1224.04 253.683,1057.79 254.72,1113.21 255.756,1071.64 256.793,1224.04 257.829,1210.19 258.866,960.809 259.903,946.954 260.939,1016.23 261.976,1307.17 263.012,1127.06 264.049,1237.9 265.085,1279.46 266.122,1140.92 267.159,1071.64 268.195,1043.94 269.232,1057.79 270.268,1113.21 271.305,1085.5 272.342,1140.92 273.378,1071.64 274.415,1445.72 275.451,1251.75 276.488,1043.94 277.525,1279.46 278.561,1210.19 279.598,1154.77 280.634,1016.23 281.671,1307.17 282.708,1182.48 283.744,1293.32 284.781,1224.04 285.817,1113.21 286.854,1168.63 287.891,1210.19 288.927,1168.63 289.964,1154.77 291,1071.64 292.037,1251.75 293.074,1127.06 294.11,1099.35 295.147,1237.9 296.183,1251.75 297.22,1140.92 298.257,1099.35 299.293,1182.48 300.33,1182.48 301.366,988.518 302.403,1113.21 303.439,1113.21 304.476,1057.79 305.513,1099.35 306.549,1113.21 307.586,1376.44 308.622,1265.61 309.659,1182.48 310.696,1043.94 311.732,1293.32 312.769,1043.94 313.805,1237.9 314.842,1321.03 315.879,1210.19 316.915,1154.77 317.952,1182.48 318.988,1085.5 320.025,1237.9 321.062,1293.32 322.098,1251.75 323.135,1196.33 324.171,1057.79 325.208,1168.63 326.245,1196.33 327.281,1279.46 328.318,1251.75 329.354,1043.94 330.391,1237.9 331.428,1210.19 332.464,1057.79 333.501,1182.48 334.537,1168.63 335.574,1113.21 336.611,974.663 337.647,1182.48 338.684,1140.92 339.72,1085.5 340.757,1127.06 341.793,1113.21 342.83,1140.92 343.867,1307.17 344.903,1085.5 345.94,1043.94 346.976,1099.35 348.013,946.954 349.05,1237.9 350.086,1057.79 351.123,1071.64 352.159,1030.08 353.196,1030.08 354.233,1043.94 355.269,1113.21 356.306,919.245 357.342,1002.37 358.379,1196.33 359.416,1057.79 360.452,905.391 361.489,1057.79 362.525,1168.63 363.562,919.245 364.599,1251.75 365.635,1085.5 366.672,1043.94 367.708,1057.79 368.745,1140.92 369.782,1307.17 370.818,1002.37 371.855,974.663 372.891,946.954 373.928,1057.79 374.965,1043.94 376.001,1071.64 377.038,1071.64 378.074,1002.37 379.111,1140.92 380.147,974.663 381.184,974.663 382.221,1043.94 383.257,1016.23 384.294,1057.79 385.33,1043.94 386.367,1127.06 387.404,863.827 388.44,1085.5 389.477,1071.64 390.513,946.954 391.55,1057.79 392.587,1016.23 393.623,1057.79 394.66,1071.64 395.696,1016.23 396.733,974.663 397.77,1099.35 398.806,988.518 399.843,974.663 400.879,1057.79 401.916,1154.77 402.953,1085.5 403.989,1154.77 405.026,1043.94 406.062,1043.94 407.099,1016.23 408.136,1030.08 409.172,919.245 410.209,1237.9 411.245,933.1 412.282,1030.08 413.319,1113.21 414.355,946.954 415.392,1154.77 416.428,946.954 417.465,1002.37 418.501,877.682 419.538,1154.77 420.575,919.245 421.611,1002.37 422.648,1043.94 423.684,905.391 424.721,1293.32 425.758,974.663 426.794,1140.92 427.831,933.1 428.867,1071.64 429.904,919.245 430.941,863.827 431.977,1030.08 433.014,863.827 434.05,988.518 435.087,891.536 436.124,822.264 437.16,905.391 438.197,905.391 439.233,1057.79 440.27,933.1 441.307,905.391 442.343,974.663 443.38,1002.37 444.416,877.682 445.453,1057.79 446.49,974.663 447.526,1057.79 448.563,905.391 449.599,988.518 450.636,1002.37 451.673,988.518 452.709,877.682 453.746,891.536 454.782,780.7 455.819,822.264 456.855,794.555 457.892,656.01 458.929,808.409 459.965,905.391 461.002,960.809 462.038,849.973 463.075,849.973 464.112,960.809 465.148,877.682 466.185,697.574 467.221,808.409 468.258,725.283 469.295,822.264 470.331,822.264 471.368,891.536 472.404,822.264 473.441,1016.23 474.478,752.992 475.514,780.7 476.551,905.391 477.587,891.536 478.624,752.992 479.661,905.391 480.697,863.827 481.734,808.409 482.77,946.954 483.807,1030.08 484.844,960.809 485.88,919.245 486.917,725.283 487.953,863.827 488.99,822.264 490.027,891.536 491.063,725.283 492.1,808.409 493.136,739.137 494.173,863.827 495.209,725.283 496.246,891.536 497.283,822.264 498.319,766.846 499.356,877.682 500.392,946.954 501.429,891.536 502.466,849.973 503.502,849.973 504.539,808.409 505.575,863.827 506.612,863.827 507.649,711.428 508.685,849.973 509.722,849.973 510.758,836.118 511.795,946.954 512.832,780.7 513.868,974.663 514.905,849.973 515.941,808.409 516.978,669.865 518.015,863.827 519.051,808.409 520.088,725.283 521.124,614.447 522.161,614.447 523.198,683.719 524.234,752.992 525.271,822.264 526.307,725.283 527.344,697.574 528.381,780.7 529.417,766.846 530.454,863.827 531.49,946.954 532.527,877.682 533.563,766.846 534.6,572.883 535.637,697.574 536.673,863.827 537.71,656.01 538.746,822.264 539.783,669.865 540.82,725.283 541.856,933.1 542.893,628.301 543.929,614.447 544.966,656.01 546.003,683.719 547.039,586.738 548.076,669.865 549.112,656.01 550.149,752.992 551.186,739.137 552.222,725.283 553.259,752.992 554.295,642.156 555.332,656.01 556.369,614.447 557.405,572.883 558.442,697.574 559.478,711.428 560.515,739.137 561.552,628.301 562.588,697.574 563.625,752.992 564.661,572.883 565.698,794.555 566.735,628.301 567.771,642.156 568.808,600.592 569.844,559.029 570.881,559.029 571.917,628.301 572.954,780.7 573.991,766.846 575.027,766.846 576.064,752.992 577.1,628.301 578.137,725.283 579.174,614.447 580.21,669.865 581.247,725.283 582.283,794.555 583.32,586.738 584.357,614.447 585.393,669.865 586.43,628.301 587.466,808.409 588.503,739.137 589.54,725.283 590.576,462.047 591.613,448.193 592.649,628.301 593.686,683.719 594.723,739.137 595.759,669.865 596.796,559.029 597.832,739.137 598.869,628.301 599.906,683.719 600.942,683.719 601.979,434.338 603.015,531.32 604.052,462.047 605.089,628.301 606.125,600.592 607.162,531.32 608.198,642.156 609.235,517.465 610.271,628.301 611.308,614.447 612.345,669.865 613.381,489.756 614.418,642.156 615.454,642.156 616.491,572.883 617.528,517.465 618.564,683.719 619.601,628.301 620.637,697.574 621.674,739.137 622.711,669.865 623.747,656.01 624.784,766.846 625.82,559.029 626.857,766.846 627.894,642.156 628.93,628.301 629.967,545.174 631.003,559.029 632.04,656.01 633.077,586.738 634.113,559.029 635.15,669.865 636.186,572.883 637.223,614.447 638.26,489.756 639.296,711.428 640.333,614.447 641.369,600.592 642.406,628.301 643.443,586.738 644.479,462.047 645.516,503.611 646.552,503.611 647.589,642.156 648.625,475.902 649.662,656.01 650.699,489.756 651.735,586.738 652.772,683.719 653.808,503.611 654.845,475.902 655.882,475.902 656.918,489.756 657.955,545.174 658.991,420.484 660.028,572.883 661.065,406.629 662.101,628.301 663.138,434.338 664.174,586.738 665.211,503.611 666.248,614.447 667.284,642.156 668.321,545.174 669.357,489.756 670.394,600.592 671.431,545.174 672.467,545.174 673.504,503.611 674.54,434.338 675.577,475.902 676.614,614.447 677.65,642.156 678.687,475.902 679.723,489.756 680.76,642.156 681.797,545.174 682.833,420.484 683.87,517.465 684.906,572.883 685.943,531.32 686.979,420.484 688.016,448.193 689.053,517.465 690.089,475.902 691.126,517.465 692.162,392.775 693.199,531.32 694.236,531.32 695.272,420.484 696.309,531.32 697.345,531.32 698.382,462.047 699.419,475.902 700.455,420.484 701.492,559.029 702.528,475.902 703.565,586.738 704.602,489.756 705.638,475.902 706.675,614.447 707.711,420.484 708.748,503.611 709.785,614.447 710.821,517.465 711.858,420.484 712.894,517.465 713.931,559.029 714.968,392.775 716.004,475.902 717.041,489.756 718.077,378.92 719.114,295.794 720.151,406.629 721.187,531.32 722.224,337.357 723.26,545.174 724.297,462.047 725.333,462.047 726.37,475.902 727.407,448.193 728.443,517.465 729.48,489.756 730.516,434.338 731.553,628.301 732.59,462.047 733.626,434.338 734.663,406.629 735.699,489.756 736.736,420.484 737.773,448.193 738.809,489.756 739.846,420.484 740.882,434.338 741.919,434.338 742.956,323.503 743.992,392.775 745.029,517.465 746.065,475.902 747.102,586.738 748.139,489.756 749.175,475.902 750.212,448.193 751.248,420.484 752.285,545.174 753.322,365.066 754.358,392.775 755.395,462.047 756.431,503.611 757.468,392.775 758.505,462.047 759.541,434.338 760.578,462.047 761.614,462.047 762.651,517.465 763.687,531.32 764.724,434.338 765.761,448.193 766.797,448.193 767.834,378.92 768.87,434.338 769.907,309.648 770.944,489.756 771.98,392.775 773.017,378.92 774.053,572.883 775.09,489.756 776.127,337.357 777.163,392.775 778.2,503.611 779.236,434.338 780.273,489.756 781.31,323.503 782.346,448.193 783.383,406.629 784.419,434.338 785.456,434.338 786.493,586.738 787.529,531.32 788.566,475.902 789.602,420.484 790.639,406.629 791.676,448.193 792.712,434.338 793.749,503.611 794.785,281.939 795.822,406.629 796.859,378.92 797.895,448.193 798.932,281.939 799.968,365.066 801.005,351.211 802.041,406.629 803.078,406.629 804.115,489.756 805.151,462.047 806.188,462.047 807.224,420.484 808.261,365.066 809.298,365.066 810.334,323.503 811.371,351.211 812.407,572.883 813.444,406.629 814.481,365.066 815.517,434.338 816.554,434.338 817.59,365.066 818.627,531.32 819.664,489.756 820.7,365.066 821.737,475.902 822.773,420.484 823.81,545.174 824.847,281.939 825.883,378.92 826.92,489.756 827.956,378.92 828.993,323.503 830.03,392.775 831.066,295.794 832.103,351.211 833.139,351.211 834.176,462.047 835.213,365.066 836.249,337.357 837.286,392.775 838.322,351.211 839.359,351.211 840.395,406.629 841.432,572.883 842.469,378.92 843.505,295.794 844.542,309.648 845.578,351.211 846.615,323.503 847.652,392.775 848.688,337.357 849.725,351.211 850.761,323.503 851.798,365.066 852.835,392.775 853.871,392.775 854.908,420.484 855.944,406.629 856.981,420.484 858.018,392.775 859.054,295.794 860.091,475.902 861.127,337.357 862.164,420.484 863.201,517.465 864.237,323.503 865.274,392.775 866.31,392.775 867.347,406.629 868.384,365.066 869.42,337.357 870.457,365.066 871.493,337.357 872.53,475.902 873.567,337.357 874.603,365.066 875.64,406.629 876.676,365.066 877.713,365.066 878.749,365.066 879.786,337.357 880.823,309.648 881.859,309.648 882.896,448.193 883.932,420.484 884.969,378.92 886.006,392.775 887.042,365.066 888.079,462.047 889.115,323.503 890.152,448.193 891.189,365.066 892.225,309.648 893.262,406.629 894.298,337.357 895.335,475.902 896.372,351.211 897.408,337.357 898.445,365.066 899.481,295.794 900.518,378.92 901.555,392.775 902.591,406.629 903.628,351.211 904.664,378.92 905.701,351.211 906.738,378.92 907.774,323.503 908.811,378.92 909.847,323.503 910.884,392.775 911.921,337.357 912.957,295.794 913.994,323.503 915.03,337.357 916.067,351.211 917.103,323.503 918.14,323.503 919.177,378.92 920.213,295.794 921.25,212.667 922.286,351.211 923.323,351.211 924.36,268.085 925.396,365.066 926.433,323.503 927.469,378.92 928.506,281.939 929.543,406.629 930.579,365.066 931.616,365.066 932.652,281.939 933.689,281.939 934.726,309.648 935.762,351.211 936.799,268.085 937.835,337.357 938.872,268.085 939.909,462.047 940.945,281.939 941.982,392.775 943.018,406.629 944.055,434.338 945.092,295.794 946.128,281.939 947.165,309.648 948.201,337.357 949.238,392.775 950.275,448.193 951.311,337.357 952.348,406.629 953.384,323.503 954.421,337.357 955.457,337.357 956.494,309.648 957.531,462.047 958.567,337.357 959.604,351.211 960.64,392.775 961.677,309.648 962.714,462.047 963.75,309.648 964.787,281.939 965.823,226.521 966.86,226.521 967.897,434.338 968.933,281.939 969.97,309.648 971.006,365.066 972.043,462.047 973.08,365.066 974.116,212.667 975.153,309.648 976.189,392.775 977.226,365.066 978.263,309.648 979.299,351.211 980.336,406.629 981.372,309.648 982.409,281.939 983.446,365.066 984.482,268.085 985.519,309.648 986.555,281.939 987.592,365.066 988.629,240.376 989.665,281.939 990.702,281.939 991.738,309.648 992.775,295.794 993.811,365.066 994.848,295.794 995.885,337.357 996.921,337.357 997.958,295.794 998.994,365.066 1000.03,448.193 1001.07,365.066 1002.1,378.92 1003.14,309.648 1004.18,378.92 1005.21,281.939 1006.25,323.503 1007.29,268.085 1008.32,268.085 1009.36,281.939 1010.4,268.085 1011.43,378.92 1012.47,323.503 1013.51,392.775 1014.54,254.23 1015.58,281.939 1016.62,323.503 1017.65,198.812 1018.69,281.939 1019.73,309.648 1020.76,309.648 1021.8,392.775 1022.84,337.357 1023.87,323.503 1024.91,323.503 1025.95,475.902 1026.98,323.503 1028.02,337.357 1029.06,309.648 1030.09,295.794 1031.13,351.211 1032.17,268.085 1033.2,295.794 1034.24,254.23 1035.28,323.503 1036.31,365.066 1037.35,268.085 1038.39,240.376 1039.42,323.503 1040.46,281.939 1041.49,212.667 1042.53,268.085 1043.57,240.376 1044.6,365.066 1045.64,337.357 1046.68,226.521 1047.71,309.648 1048.75,212.667 1049.79,240.376 1050.82,198.812 1051.86,323.503 1052.9,462.047 1053.93,281.939 1054.97,295.794 1056.01,365.066 1057.04,392.775 1058.08,268.085 1059.12,184.958 1060.15,226.521 1061.19,337.357 1062.23,240.376 1063.26,226.521 1064.3,254.23 1065.34,323.503 1066.37,309.648 1067.41,281.939 1068.45,226.521 1069.48,365.066 1070.52,351.211 1071.56,434.338 1072.59,351.211 1073.63,309.648 1074.67,281.939 1075.7,281.939 1076.74,323.503 1077.78,295.794 1078.81,309.648 1079.85,351.211 1080.89,392.775 1081.92,281.939 1082.96,337.357 1084,254.23 1085.03,254.23 1086.07,351.211 1087.11,254.23 1088.14,351.211 1089.18,268.085 1090.21,351.211 1091.25,281.939 1092.29,295.794 1093.32,281.939 1094.36,323.503 1095.4,268.085 1096.43,212.667 1097.47,240.376 1098.51,212.667 1099.54,212.667 1100.58,323.503 1101.62,295.794 1102.65,281.939 1103.69,392.775 1104.73,143.394 1105.76,212.667 1106.8,309.648 1107.84,254.23 1108.87,337.357 1109.91,268.085 1110.95,309.648 1111.98,268.085 1113.02,365.066 1114.06,254.23 1115.09,212.667 1116.13,365.066 1117.17,226.521 1118.2,309.648 1119.24,143.394 1120.28,226.521 1121.31,157.249 1122.35,212.667 1123.39,254.23 1124.42,365.066 1125.46,212.667 1126.5,281.939 1127.53,226.521 1128.57,309.648 1129.61,281.939 1130.64,337.357 1131.68,309.648 1132.72,337.357 1133.75,212.667 1134.79,212.667 1135.82,268.085 1136.86,268.085 1137.9,295.794 1138.93,295.794 1139.97,212.667 1141.01,212.667 1142.04,309.648 1143.08,295.794 1144.12,212.667 1145.15,226.521 1146.19,309.648 1147.23,226.521 1148.26,281.939 1149.3,448.193 1150.34,254.23 1151.37,281.939 1152.41,309.648 1153.45,323.503 1154.48,184.958 1155.52,198.812 1156.56,254.23 1157.59,254.23 1158.63,309.648 1159.67,392.775 1160.7,254.23 1161.74,254.23 1162.78,254.23 1163.81,254.23 1164.85,212.667 1165.89,295.794 1166.92,365.066 1167.96,212.667 1169,295.794 1170.03,268.085 1171.07,254.23 1172.11,184.958 1173.14,281.939 1174.18,323.503 1175.22,198.812 1176.25,351.211 1177.29,226.521 1178.33,295.794 1179.36,351.211 1180.4,254.23 1181.44,337.357 1182.47,198.812 1183.51,198.812 1184.54,184.958 1185.58,143.394 1186.62,295.794 1187.65,240.376 1188.69,281.939 1189.73,378.92 1190.76,212.667 1191.8,295.794 1192.84,295.794 1193.87,268.085 1194.91,309.648 1195.95,240.376 1196.98,254.23 1198.02,268.085 1199.06,212.667 1200.09,268.085 1201.13,157.249 1202.17,295.794 1203.2,268.085 1204.24,309.648 1205.28,254.23 1206.31,226.521 1207.35,268.085 1208.39,254.23 1209.42,198.812 1210.46,254.23 1211.5,281.939 1212.53,309.648 1213.57,295.794 1214.61,198.812 1215.64,226.521 1216.68,198.812 1217.72,198.812 1218.75,309.648 1219.79,295.794 1220.83,212.667 1221.86,226.521 1222.9,212.667 1223.94,184.958 1224.97,281.939 1226.01,226.521 1227.05,198.812 1228.08,212.667 1229.12,268.085 1230.16,226.521 1231.19,240.376 1232.23,309.648 1233.26,198.812 1234.3,268.085 1235.34,254.23 1236.37,226.521 1237.41,281.939 1238.45,226.521 1239.48,226.521 1240.52,268.085 1241.56,157.249 1242.59,309.648 1243.63,309.648 1244.67,240.376 1245.7,171.103 1246.74,268.085 1247.78,281.939 1248.81,323.503 1249.85,323.503 1250.89,378.92 1251.92,157.249 1252.96,254.23 1254,254.23 1255.03,226.521 1256.07,143.394 1257.11,281.939 1258.14,309.648 1259.18,254.23 1260.22,212.667 1261.25,171.103 1262.29,226.521 1263.33,240.376 1264.36,212.667 1265.4,226.521 1266.44,184.958 1267.47,171.103 1268.51,323.503 1269.55,309.648 1270.58,143.394 1271.62,198.812 1272.66,240.376 1273.69,184.958 1274.73,198.812 1275.77,295.794 1276.8,281.939 1277.84,184.958 1278.88,268.085 1279.91,171.103 1280.95,157.249 1281.98,198.812 1283.02,184.958 1284.06,254.23 1285.09,184.958 1286.13,129.54 1287.17,281.939 1288.2,268.085 1289.24,268.085 1290.28,281.939 1291.31,295.794 1292.35,281.939 1293.39,212.667 1294.42,240.376 1295.46,268.085 1296.5,268.085 1297.53,392.775 1298.57,157.249 1299.61,198.812 1300.64,171.103 1301.68,184.958 1302.72,281.939 1303.75,226.521 1304.79,226.521 1305.83,254.23 1306.86,226.521 1307.9,226.521 1308.94,184.958 1309.97,309.648 1311.01,281.939 1312.05,143.394 1313.08,226.521 1314.12,212.667 1315.16,184.958 1316.19,378.92 1317.23,254.23 1318.27,295.794 1319.3,171.103 1320.34,226.521 1321.38,198.812 1322.41,323.503 1323.45,226.521 1324.49,254.23 1325.52,198.812 1326.56,171.103 1327.59,337.357 1328.63,143.394 1329.67,157.249 1330.7,295.794 1331.74,212.667 1332.78,157.249 1333.81,281.939 1334.85,212.667 1335.89,226.521 1336.92,254.23 1337.96,171.103 1339,171.103 1340.03,254.23 1341.07,268.085 1342.11,212.667 1343.14,171.103 1344.18,240.376 1345.22,184.958 1346.25,157.249 1347.29,212.667 1348.33,268.085 1349.36,184.958 1350.4,254.23 1351.44,198.812 1352.47,240.376 1353.51,198.812 1354.55,157.249 1355.58,157.249 1356.62,198.812 1357.66,198.812 1358.69,184.958 1359.73,212.667 1360.77,143.394 1361.8,240.376 1362.84,198.812 1363.88,143.394 1364.91,226.521 1365.95,212.667 1366.99,254.23 1368.02,212.667 1369.06,268.085 1370.1,226.521 1371.13,212.667 1372.17,226.521 1373.21,184.958 1374.24,254.23 1375.28,157.249 1376.31,212.667 1377.35,240.376 1378.39,198.812 1379.42,240.376 1380.46,226.521 1381.5,254.23 1382.53,240.376 1383.57,157.249 1384.61,254.23 1385.64,226.521 1386.68,268.085 1387.72,254.23 1388.75,254.23 1389.79,171.103 1390.83,226.521 1391.86,254.23 1392.9,212.667 1393.94,281.939 1394.97,198.812 1396.01,254.23 1397.05,240.376 1398.08,240.376 1399.12,240.376 1400.16,157.249 1401.19,281.939 1402.23,295.794 1403.27,365.066 1404.3,226.521 1405.34,281.939 1406.38,226.521 1407.41,254.23 1408.45,212.667 1409.49,212.667 1410.52,143.394 1411.56,281.939 1412.6,323.503 1413.63,281.939 1414.67,171.103 1415.71,184.958 1416.74,226.521 1417.78,226.521 1418.82,240.376 1419.85,240.376 1420.89,281.939 1421.93,323.503 1422.96,337.357 1424,240.376 1425.03,198.812 1426.07,184.958 1427.11,268.085 1428.14,226.521 1429.18,226.521 1430.22,240.376 1431.25,254.23 1432.29,212.667 1433.33,254.23 1434.36,254.23 1435.4,171.103 1436.44,254.23 1437.47,240.376 1438.51,240.376 1439.55,143.394 1440.58,171.103 1441.62,184.958 1442.66,268.085 1443.69,171.103 1444.73,184.958 1445.77,171.103 1446.8,143.394 1447.84,184.958 1448.88,171.103 1449.91,212.667 1450.95,295.794 1451.99,198.812 1453.02,254.23 1454.06,184.958 1455.1,254.23 1456.13,157.249 1457.17,171.103 1458.21,143.394 1459.24,309.648 1460.28,240.376 1461.32,240.376 1462.35,198.812 1463.39,281.939 1464.43,240.376 1465.46,157.249 1466.5,281.939 1467.54,157.249 1468.57,157.249 1469.61,184.958 1470.65,240.376 1471.68,226.521 1472.72,184.958 1473.75,254.23 1474.79,143.394 1475.83,157.249 1476.86,212.667 1477.9,184.958 1478.94,198.812 1479.97,240.376 1481.01,184.958 1482.05,198.812 1483.08,240.376 1484.12,157.249 1485.16,198.812 1486.19,143.394 1487.23,309.648 1488.27,198.812 1489.3,212.667 1490.34,254.23 1491.38,281.939 1492.41,212.667 1493.45,254.23 1494.49,198.812 1495.52,184.958 1496.56,268.085 1497.6,226.521 1498.63,212.667 1499.67,240.376 1500.71,184.958 1501.74,101.831 1502.78,171.103 1503.82,171.103 1504.85,184.958 1505.89,240.376 1506.93,157.249 1507.96,143.394 1509,143.394 1510.04,240.376 1511.07,226.521 1512.11,157.249 1513.15,171.103 1514.18,198.812 1515.22,212.667 1516.26,295.794 1517.29,254.23 1518.33,254.23 1519.36,198.812 1520.4,226.521 1521.44,226.521 1522.47,198.812 1523.51,254.23 1524.55,198.812 1525.58,212.667 1526.62,281.939 1527.66,212.667 1528.69,240.376 1529.73,268.085 1530.77,157.249 1531.8,157.249 1532.84,226.521 1533.88,212.667 1534.91,171.103 1535.95,254.23 1536.99,226.521 1538.02,212.667 1539.06,226.521 1540.1,268.085 1541.13,240.376 1542.17,268.085 1543.21,268.085 1544.24,157.249 1545.28,171.103 1546.32,240.376 1547.35,240.376 1548.39,157.249 1549.43,226.521 1550.46,226.521 1551.5,254.23 1552.54,226.521 1553.57,184.958 1554.61,254.23 1555.65,212.667 1556.68,171.103 1557.72,226.521 1558.76,198.812 1559.79,171.103 1560.83,157.249 1561.87,240.376 1562.9,171.103 1563.94,171.103 1564.98,212.667 1566.01,226.521 1567.05,212.667 1568.08,171.103 1569.12,268.085 1570.16,143.394 1571.19,226.521 1572.23,212.667 1573.27,184.958 1574.3,254.23 1575.34,171.103 1576.38,171.103 1577.41,212.667 1578.45,198.812 1579.49,157.249 1580.52,198.812 1581.56,157.249 1582.6,240.376 1583.63,240.376 1584.67,171.103 1585.71,254.23 1586.74,198.812 1587.78,226.521 1588.82,240.376 1589.85,212.667 1590.89,129.54 1591.93,198.812 1592.96,143.394 1594,184.958 1595.04,226.521 1596.07,157.249 1597.11,184.958 1598.15,129.54 1599.18,143.394 1600.22,171.103 1601.26,226.521 1602.29,198.812 1603.33,184.958 1604.37,281.939 1605.4,171.103 1606.44,268.085 1607.48,198.812 1608.51,281.939 1609.55,184.958 1610.59,157.249 1611.62,254.23 1612.66,157.249 1613.7,157.249 1614.73,323.503 1615.77,184.958 1616.8,240.376 1617.84,198.812 1618.88,184.958 1619.91,281.939 1620.95,254.23 1621.99,226.521 1623.02,198.812 1624.06,212.667 1625.1,323.503 1626.13,226.521 1627.17,143.394 1628.21,240.376 1629.24,226.521 1630.28,157.249 1631.32,184.958 1632.35,281.939 1633.39,171.103 1634.43,212.667 1635.46,198.812 1636.5,171.103 1637.54,268.085 1638.57,226.521 1639.61,281.939 1640.65,171.103 1641.68,157.249 1642.72,198.812 1643.76,184.958 1644.79,157.249 1645.83,240.376 1646.87,143.394 1647.9,184.958 1648.94,184.958 1649.98,129.54 1651.01,184.958 1652.05,254.23 1653.09,198.812 1654.12,212.667 1655.16,198.812 1656.2,198.812 1657.23,226.521 1658.27,184.958 1659.31,184.958 1660.34,157.249 1661.38,171.103 1662.42,143.394 1663.45,171.103 1664.49,226.521 1665.52,226.521 1666.56,240.376 1667.6,226.521 1668.63,143.394 1669.67,171.103 1670.71,212.667 1671.74,212.667 1672.78,157.249 1673.82,171.103 1674.85,198.812 1675.89,226.521 1676.93,212.667 1677.96,212.667 1679,171.103 1680.04,184.958 1681.07,184.958 1682.11,129.54 1683.15,212.667 1684.18,171.103 1685.22,143.394 1686.26,240.376 1687.29,198.812 1688.33,226.521 1689.37,212.667 1690.4,184.958 1691.44,198.812 1692.48,143.394 1693.51,171.103 1694.55,226.521 1695.59,157.249 1696.62,254.23 1697.66,240.376 1698.7,254.23 1699.73,157.249 1700.77,171.103 1701.81,240.376 1702.84,198.812 1703.88,212.667 1704.92,198.812 1705.95,184.958 1706.99,184.958 1708.03,254.23 1709.06,281.939 1710.1,212.667 1711.13,171.103 1712.17,171.103 1713.21,171.103 1714.24,184.958 1715.28,198.812 1716.32,157.249 1717.35,226.521 1718.39,115.685 1719.43,198.812 1720.46,226.521 1721.5,171.103 1722.54,226.521 1723.57,254.23 1724.61,212.667 1725.65,143.394 1726.68,184.958 1727.72,254.23 1728.76,240.376 1729.79,212.667 1730.83,184.958 1731.87,157.249 1732.9,171.103 1733.94,309.648 1734.98,184.958 1736.01,254.23 1737.05,171.103 1738.09,212.667 1739.12,157.249 1740.16,226.521 1741.2,184.958 1742.23,198.812 1743.27,254.23 1744.31,212.667 1745.34,226.521 1746.38,157.249 1747.42,240.376 1748.45,157.249 1749.49,115.685 1750.53,226.521 1751.56,171.103 1752.6,115.685 1753.64,143.394 1754.67,143.394 1755.71,184.958 1756.75,171.103 1757.78,143.394 1758.82,184.958 1759.85,254.23 1760.89,254.23 1761.93,240.376 1762.96,171.103 1764,184.958 1765.04,184.958 1766.07,129.54 1767.11,157.249 1768.15,184.958 1769.18,240.376 1770.22,226.521 1771.26,198.812 1772.29,184.958 1773.33,143.394 1774.37,212.667 1775.4,212.667 1776.44,212.667 1777.48,198.812 1778.51,240.376 1779.55,212.667 1780.59,198.812 1781.62,240.376 1782.66,184.958 1783.7,157.249 1784.73,226.521 1785.77,226.521 1786.81,281.939 1787.84,240.376 1788.88,268.085 1789.92,240.376 1790.95,129.54 1791.99,198.812 1793.03,240.376 1794.06,226.521 1795.1,281.939 1796.14,268.085 1797.17,226.521 1798.21,157.249 1799.25,198.812 1800.28,115.685 1801.32,184.958 1802.36,254.23 1803.39,226.521 1804.43,157.249 1805.47,184.958 1806.5,157.249 1807.54,254.23 1808.57,184.958 1809.61,268.085 1810.65,198.812 1811.68,212.667 1812.72,184.958 1813.76,143.394 1814.79,184.958 1815.83,171.103 1816.87,198.812 1817.9,184.958 1818.94,226.521 1819.98,171.103 1821.01,171.103 1822.05,171.103 1823.09,143.394 1824.12,157.249 1825.16,212.667 1826.2,157.249 1827.23,198.812 1828.27,115.685 1829.31,226.521 1830.34,143.394 1831.38,268.085 1832.42,212.667 1833.45,115.685 1834.49,212.667 1835.53,212.667 1836.56,268.085 1837.6,212.667 1838.64,198.812 1839.67,226.521 1840.71,198.812 1841.75,226.521 1842.78,184.958 1843.82,171.103 1844.86,157.249 1845.89,129.54 1846.93,198.812 1847.97,254.23 1849,226.521 1850.04,198.812 1851.08,184.958 1852.11,157.249 1853.15,198.812 1854.19,171.103 1855.22,184.958 1856.26,157.249 1857.29,129.54 1858.33,129.54 1859.37,226.521 1860.4,198.812 1861.44,143.394 1862.48,184.958 1863.51,129.54 1864.55,171.103 1865.59,184.958 1866.62,171.103 1867.66,212.667 1868.7,157.249 1869.73,281.939 1870.77,143.394 1871.81,157.249 1872.84,157.249 1873.88,157.249 1874.92,240.376 1875.95,171.103 1876.99,143.394 1878.03,143.394 1879.06,212.667 1880.1,157.249 1881.14,143.394 1882.17,171.103 1883.21,184.958 1884.25,171.103 1885.28,254.23 1886.32,101.831 1887.36,129.54 1888.39,184.958 1889.43,171.103 1890.47,184.958 1891.5,171.103 1892.54,157.249 1893.58,212.667 1894.61,101.831 1895.65,198.812 1896.69,101.831 1897.72,171.103 1898.76,198.812 1899.8,240.376 1900.83,198.812 1901.87,143.394 1902.9,226.521 1903.94,171.103 1904.98,101.831 1906.01,171.103 1907.05,198.812 1908.09,184.958 1909.12,143.394 1910.16,157.249 1911.2,212.667 1912.23,184.958 1913.27,157.249 1914.31,171.103 1915.34,184.958 1916.38,129.54 1917.42,143.394 1918.45,157.249 1919.49,157.249 1920.53,171.103 1921.56,171.103 1922.6,240.376 1923.64,281.939 1924.67,143.394 1925.71,157.249 1926.75,171.103 1927.78,254.23 1928.82,101.831 1929.86,157.249 1930.89,157.249 1931.93,309.648 1932.97,101.831 1934,143.394 1935.04,184.958 1936.08,184.958 1937.11,184.958 1938.15,184.958 1939.19,101.831 1940.22,129.54 1941.26,212.667 1942.3,198.812 1943.33,198.812 1944.37,157.249 1945.41,143.394 1946.44,226.521 1947.48,157.249 1948.52,157.249 1949.55,157.249 1950.59,268.085 1951.62,212.667 1952.66,240.376 1953.7,212.667 1954.73,184.958 1955.77,240.376 1956.81,212.667 1957.84,198.812 1958.88,184.958 1959.92,143.394 1960.95,184.958 1961.99,157.249 1963.03,171.103 1964.06,281.939 1965.1,129.54 1966.14,212.667 1967.17,129.54 1968.21,184.958 1969.25,171.103 1970.28,143.394 1971.32,198.812 1972.36,226.521 1973.39,143.394 1974.43,184.958 1975.47,198.812 1976.5,240.376 1977.54,184.958 1978.58,212.667 1979.61,226.521 1980.65,240.376 1981.69,171.103 1982.72,226.521 1983.76,184.958 1984.8,198.812 1985.83,212.667 1986.87,157.249 1987.91,171.103 1988.94,157.249 1989.98,87.9763 1991.02,129.54 1992.05,226.521 1993.09,171.103 1994.13,143.394 1995.16,171.103 1996.2,198.812 1997.24,212.667 1998.27,198.812 1999.31,171.103 2000.34,115.685 2001.38,143.394 2002.42,115.685 2003.45,129.54 2004.49,129.54 2005.53,268.085 2006.56,198.812 2007.6,184.958 2008.64,198.812 2009.67,212.667 2010.71,143.394 2011.75,157.249 2012.78,226.521 2013.82,171.103 2014.86,184.958 2015.89,198.812 2016.93,157.249 2017.97,171.103 2019,143.394 2020.04,184.958 2021.08,143.394 2022.11,129.54 2023.15,226.521 2024.19,323.503 2025.22,184.958 2026.26,198.812 2027.3,184.958 2028.33,184.958 2029.37,143.394 2030.41,157.249 2031.44,212.667 2032.48,129.54 2033.52,212.667 2034.55,184.958 2035.59,171.103 2036.63,171.103 2037.66,212.667 2038.7,240.376 2039.74,157.249 2040.77,157.249 2041.81,157.249 2042.85,184.958 2043.88,171.103 2044.92,198.812 2045.96,212.667 2046.99,115.685 2048.03,184.958 2049.06,129.54 2050.1,157.249 2051.14,184.958 2052.17,143.394 2053.21,115.685 2054.25,198.812 2055.28,171.103 2056.32,171.103 2057.36,212.667 2058.39,157.249 2059.43,184.958 2060.47,171.103 2061.5,157.249 2062.54,157.249 2063.58,171.103 2064.61,129.54 2065.65,184.958 2066.69,184.958 2067.72,157.249 2068.76,212.667 2069.8,129.54 2070.83,157.249 2071.87,143.394 2072.91,157.249 2073.94,143.394 2074.98,129.54 2076.02,171.103 2077.05,129.54 2078.09,184.958 2079.13,184.958 2080.16,171.103 2081.2,198.812 2082.24,198.812 2083.27,157.249 2084.31,198.812 2085.35,129.54 2086.38,184.958 2087.42,143.394 2088.46,157.249 2089.49,129.54 2090.53,212.667 2091.57,115.685 2092.6,157.249 2093.64,184.958 2094.67,157.249 2095.71,157.249 2096.75,157.249 2097.78,198.812 2098.82,171.103 2099.86,115.685 2100.89,129.54 2101.93,143.394 2102.97,157.249 2104,184.958 2105.04,157.249 2106.08,212.667 2107.11,129.54 2108.15,184.958 2109.19,171.103 2110.22,143.394 2111.26,198.812 2112.3,157.249 2113.33,115.685 2114.37,115.685 2115.41,115.685 2116.44,226.521 2117.48,157.249 2118.52,226.521 2119.55,115.685 2120.59,240.376 2121.63,184.958 2122.66,171.103 2123.7,184.958 2124.74,171.103 2125.77,198.812 2126.81,198.812 2127.85,171.103 2128.88,101.831 2129.92,157.249 2130.96,240.376 2131.99,198.812 2133.03,226.521 2134.07,212.667 2135.1,184.958 2136.14,184.958 2137.18,157.249 2138.21,157.249 2139.25,157.249 2140.29,143.394 2141.32,171.103 2142.36,157.249 2143.39,184.958 2144.43,212.667 2145.47,171.103 2146.5,129.54 2147.54,171.103 2148.58,129.54 2149.61,101.831 2150.65,212.667 2151.69,143.394 2152.72,143.394 2153.76,226.521 2154.8,115.685 2155.83,171.103 2156.87,143.394 2157.91,365.066 2158.94,143.394 2159.98,171.103 2161.02,184.958 2162.05,143.394 2163.09,143.394 2164.13,143.394 2165.16,198.812 2166.2,198.812 2167.24,171.103 2168.27,143.394 2169.31,157.249 2170.35,198.812 2171.38,212.667 2172.42,129.54 2173.46,171.103 2174.49,212.667 2175.53,129.54 2176.57,157.249 2177.6,129.54 2178.64,157.249 2179.68,171.103 2180.71,129.54 2181.75,171.103 2182.79,171.103 2183.82,101.831 2184.86,129.54 2185.9,129.54 2186.93,240.376 2187.97,129.54 2189.01,226.521 2190.04,115.685 2191.08,198.812 2192.11,198.812 2193.15,143.394 2194.19,184.958 2195.22,171.103 2196.26,157.249 2197.3,143.394 2198.33,198.812 2199.37,115.685 2200.41,157.249 2201.44,198.812 2202.48,143.394 2203.52,171.103 2204.55,240.376 2205.59,157.249 2206.63,198.812 2207.66,115.685 2208.7,157.249 2209.74,212.667 2210.77,129.54 2211.81,157.249 2212.85,184.958 2213.88,115.685 2214.92,198.812 2215.96,129.54 2216.99,184.958 2218.03,226.521 2219.07,157.249 2220.1,115.685 2221.14,184.958 2222.18,226.521 2223.21,212.667 2224.25,115.685 2225.29,157.249 2226.32,157.249 2227.36,157.249 2228.4,143.394 2229.43,184.958 2230.47,143.394 2231.51,184.958 2232.54,115.685 2233.58,226.521 2234.62,143.394 2235.65,226.521 2236.69,143.394 2237.73,184.958 2238.76,143.394 2239.8,143.394 2240.83,115.685 2241.87,115.685 2242.91,143.394 2243.94,115.685 2244.98,143.394 2246.02,184.958 2247.05,129.54 2248.09,129.54 2249.13,240.376 2250.16,129.54 2251.2,171.103 2252.24,143.394 2253.27,171.103 2254.31,157.249 2255.35,171.103 2256.38,115.685 2257.42,226.521 2258.46,129.54 2259.49,143.394 2260.53,198.812 2261.57,171.103 2262.6,184.958 2263.64,171.103 2264.68,171.103 2265.71,143.394 2266.75,184.958 2267.79,184.958 2268.82,143.394 2269.86,101.831 2270.9,198.812 2271.93,143.394 2272.97,143.394 2274.01,171.103 2275.04,171.103 2276.08,115.685 2277.12,171.103 2278.15,198.812 2279.19,129.54 2280.23,101.831 2281.26,87.9763 2282.3,129.54 2283.34,143.394 2284.37,171.103 2285.41,143.394 2286.44,143.394 2287.48,157.249 2288.52,101.831 2289.55,198.812 2290.59,226.521 "/>
<path clip-path="url(#clip270)" d="M2007.46 1438.47 L2279.54 1438.47 L2279.54 1334.79 L2007.46 1334.79  Z" fill="#ffffff" fill-rule="evenodd" fill-opacity="1"/>
<polyline clip-path="url(#clip270)" style="stroke:#000000; stroke-linecap:round; stroke-linejoin:round; stroke-width:4; stroke-opacity:1; fill:none" points="2007.46,1438.47 2279.54,1438.47 2279.54,1334.79 2007.46,1334.79 2007.46,1438.47 "/>
<polyline clip-path="url(#clip270)" style="stroke:#009af9; stroke-linecap:round; stroke-linejoin:round; stroke-width:4; stroke-opacity:1; fill:none" points="2031.87,1386.63 2178.3,1386.63 "/>
<path clip-path="url(#clip270)" d="M2216.55 1406.32 Q2214.74 1410.95 2213.03 1412.36 Q2211.32 1413.78 2208.44 1413.78 L2205.04 1413.78 L2205.04 1410.21 L2207.54 1410.21 Q2209.3 1410.21 2210.27 1409.38 Q2211.25 1408.54 2212.43 1405.44 L2213.19 1403.5 L2202.7 1377.99 L2207.22 1377.99 L2215.32 1398.27 L2223.42 1377.99 L2227.94 1377.99 L2216.55 1406.32 Z" fill="#000000" fill-rule="nonzero" fill-opacity="1" /><path clip-path="url(#clip270)" d="M2235.23 1399.98 L2242.87 1399.98 L2242.87 1373.61 L2234.56 1375.28 L2234.56 1371.02 L2242.82 1369.35 L2247.5 1369.35 L2247.5 1399.98 L2255.13 1399.98 L2255.13 1403.91 L2235.23 1403.91 L2235.23 1399.98 Z" fill="#000000" fill-rule="nonzero" fill-opacity="1" /></svg>
