<?xml version="1.0" encoding="utf-8"?>
<svg xmlns="http://www.w3.org/2000/svg" xmlns:xlink="http://www.w3.org/1999/xlink" width="600" height="400" viewBox="0 0 2400 1600">
<defs>
  <clipPath id="clip210">
    <rect x="0" y="0" width="2400" height="1600"/>
  </clipPath>
</defs>
<path clip-path="url(#clip210)" d="M0 1600 L2400 1600 L2400 0 L0 0  Z" fill="#ffffff" fill-rule="evenodd" fill-opacity="1"/>
<defs>
  <clipPath id="clip211">
    <rect x="480" y="0" width="1681" height="1600"/>
  </clipPath>
</defs>
<path clip-path="url(#clip210)" d="M140.696 1486.45 L2352.76 1486.45 L2352.76 47.2441 L140.696 47.2441  Z" fill="#ffffff" fill-rule="evenodd" fill-opacity="1"/>
<defs>
  <clipPath id="clip212">
    <rect x="140" y="47" width="2213" height="1440"/>
  </clipPath>
</defs>
<polyline clip-path="url(#clip212)" style="stroke:#000000; stroke-linecap:round; stroke-linejoin:round; stroke-width:2; stroke-opacity:0.1; fill:none" points="203.301,1486.45 203.301,47.2441 "/>
<polyline clip-path="url(#clip212)" style="stroke:#000000; stroke-linecap:round; stroke-linejoin:round; stroke-width:2; stroke-opacity:0.1; fill:none" points="725.013,1486.45 725.013,47.2441 "/>
<polyline clip-path="url(#clip212)" style="stroke:#000000; stroke-linecap:round; stroke-linejoin:round; stroke-width:2; stroke-opacity:0.1; fill:none" points="1246.73,1486.45 1246.73,47.2441 "/>
<polyline clip-path="url(#clip212)" style="stroke:#000000; stroke-linecap:round; stroke-linejoin:round; stroke-width:2; stroke-opacity:0.1; fill:none" points="1768.44,1486.45 1768.44,47.2441 "/>
<polyline clip-path="url(#clip212)" style="stroke:#000000; stroke-linecap:round; stroke-linejoin:round; stroke-width:2; stroke-opacity:0.1; fill:none" points="2290.15,1486.45 2290.15,47.2441 "/>
<polyline clip-path="url(#clip210)" style="stroke:#000000; stroke-linecap:round; stroke-linejoin:round; stroke-width:4; stroke-opacity:1; fill:none" points="140.696,1486.45 2352.76,1486.45 "/>
<polyline clip-path="url(#clip210)" style="stroke:#000000; stroke-linecap:round; stroke-linejoin:round; stroke-width:4; stroke-opacity:1; fill:none" points="203.301,1486.45 203.301,1467.55 "/>
<polyline clip-path="url(#clip210)" style="stroke:#000000; stroke-linecap:round; stroke-linejoin:round; stroke-width:4; stroke-opacity:1; fill:none" points="725.013,1486.45 725.013,1467.55 "/>
<polyline clip-path="url(#clip210)" style="stroke:#000000; stroke-linecap:round; stroke-linejoin:round; stroke-width:4; stroke-opacity:1; fill:none" points="1246.73,1486.45 1246.73,1467.55 "/>
<polyline clip-path="url(#clip210)" style="stroke:#000000; stroke-linecap:round; stroke-linejoin:round; stroke-width:4; stroke-opacity:1; fill:none" points="1768.44,1486.45 1768.44,1467.55 "/>
<polyline clip-path="url(#clip210)" style="stroke:#000000; stroke-linecap:round; stroke-linejoin:round; stroke-width:4; stroke-opacity:1; fill:none" points="2290.15,1486.45 2290.15,1467.55 "/>
<path clip-path="url(#clip210)" d="M203.301 1517.37 Q199.69 1517.37 197.861 1520.93 Q196.056 1524.47 196.056 1531.6 Q196.056 1538.71 197.861 1542.27 Q199.69 1545.82 203.301 1545.82 Q206.935 1545.82 208.741 1542.27 Q210.57 1538.71 210.57 1531.6 Q210.57 1524.47 208.741 1520.93 Q206.935 1517.37 203.301 1517.37 M203.301 1513.66 Q209.111 1513.66 212.167 1518.27 Q215.245 1522.85 215.245 1531.6 Q215.245 1540.33 212.167 1544.94 Q209.111 1549.52 203.301 1549.52 Q197.491 1549.52 194.412 1544.94 Q191.357 1540.33 191.357 1531.6 Q191.357 1522.85 194.412 1518.27 Q197.491 1513.66 203.301 1513.66 Z" fill="#000000" fill-rule="nonzero" fill-opacity="1" /><path clip-path="url(#clip210)" d="M669.539 1544.91 L677.178 1544.91 L677.178 1518.55 L668.868 1520.21 L668.868 1515.95 L677.132 1514.29 L681.808 1514.29 L681.808 1544.91 L689.446 1544.91 L689.446 1548.85 L669.539 1548.85 L669.539 1544.91 Z" fill="#000000" fill-rule="nonzero" fill-opacity="1" /><path clip-path="url(#clip210)" d="M708.891 1517.37 Q705.28 1517.37 703.451 1520.93 Q701.645 1524.47 701.645 1531.6 Q701.645 1538.71 703.451 1542.27 Q705.28 1545.82 708.891 1545.82 Q712.525 1545.82 714.331 1542.27 Q716.159 1538.71 716.159 1531.6 Q716.159 1524.47 714.331 1520.93 Q712.525 1517.37 708.891 1517.37 M708.891 1513.66 Q714.701 1513.66 717.756 1518.27 Q720.835 1522.85 720.835 1531.6 Q720.835 1540.33 717.756 1544.94 Q714.701 1549.52 708.891 1549.52 Q703.081 1549.52 700.002 1544.94 Q696.946 1540.33 696.946 1531.6 Q696.946 1522.85 700.002 1518.27 Q703.081 1513.66 708.891 1513.66 Z" fill="#000000" fill-rule="nonzero" fill-opacity="1" /><path clip-path="url(#clip210)" d="M739.053 1517.37 Q735.442 1517.37 733.613 1520.93 Q731.807 1524.47 731.807 1531.6 Q731.807 1538.71 733.613 1542.27 Q735.442 1545.82 739.053 1545.82 Q742.687 1545.82 744.492 1542.27 Q746.321 1538.71 746.321 1531.6 Q746.321 1524.47 744.492 1520.93 Q742.687 1517.37 739.053 1517.37 M739.053 1513.66 Q744.863 1513.66 747.918 1518.27 Q750.997 1522.85 750.997 1531.6 Q750.997 1540.33 747.918 1544.94 Q744.863 1549.52 739.053 1549.52 Q733.242 1549.52 730.164 1544.94 Q727.108 1540.33 727.108 1531.6 Q727.108 1522.85 730.164 1518.27 Q733.242 1513.66 739.053 1513.66 Z" fill="#000000" fill-rule="nonzero" fill-opacity="1" /><path clip-path="url(#clip210)" d="M769.215 1517.37 Q765.603 1517.37 763.775 1520.93 Q761.969 1524.47 761.969 1531.6 Q761.969 1538.71 763.775 1542.27 Q765.603 1545.82 769.215 1545.82 Q772.849 1545.82 774.654 1542.27 Q776.483 1538.71 776.483 1531.6 Q776.483 1524.47 774.654 1520.93 Q772.849 1517.37 769.215 1517.37 M769.215 1513.66 Q775.025 1513.66 778.08 1518.27 Q781.159 1522.85 781.159 1531.6 Q781.159 1540.33 778.08 1544.94 Q775.025 1549.52 769.215 1549.52 Q763.404 1549.52 760.326 1544.94 Q757.27 1540.33 757.27 1531.6 Q757.27 1522.85 760.326 1518.27 Q763.404 1513.66 769.215 1513.66 Z" fill="#000000" fill-rule="nonzero" fill-opacity="1" /><path clip-path="url(#clip210)" d="M1195.34 1544.91 L1211.66 1544.91 L1211.66 1548.85 L1189.71 1548.85 L1189.71 1544.91 Q1192.37 1542.16 1196.96 1537.53 Q1201.56 1532.88 1202.74 1531.53 Q1204.99 1529.01 1205.87 1527.27 Q1206.77 1525.51 1206.77 1523.82 Q1206.77 1521.07 1204.83 1519.33 Q1202.91 1517.6 1199.8 1517.6 Q1197.61 1517.6 1195.15 1518.36 Q1192.72 1519.13 1189.94 1520.68 L1189.94 1515.95 Q1192.77 1514.82 1195.22 1514.24 Q1197.68 1513.66 1199.71 1513.66 Q1205.08 1513.66 1208.28 1516.35 Q1211.47 1519.03 1211.47 1523.52 Q1211.47 1525.65 1210.66 1527.57 Q1209.87 1529.47 1207.77 1532.07 Q1207.19 1532.74 1204.09 1535.95 Q1200.99 1539.15 1195.34 1544.91 Z" fill="#000000" fill-rule="nonzero" fill-opacity="1" /><path clip-path="url(#clip210)" d="M1231.47 1517.37 Q1227.86 1517.37 1226.03 1520.93 Q1224.23 1524.47 1224.23 1531.6 Q1224.23 1538.71 1226.03 1542.27 Q1227.86 1545.82 1231.47 1545.82 Q1235.11 1545.82 1236.91 1542.27 Q1238.74 1538.71 1238.74 1531.6 Q1238.74 1524.47 1236.91 1520.93 Q1235.11 1517.37 1231.47 1517.37 M1231.47 1513.66 Q1237.28 1513.66 1240.34 1518.27 Q1243.42 1522.85 1243.42 1531.6 Q1243.42 1540.33 1240.34 1544.94 Q1237.28 1549.52 1231.47 1549.52 Q1225.66 1549.52 1222.58 1544.94 Q1219.53 1540.33 1219.53 1531.6 Q1219.53 1522.85 1222.58 1518.27 Q1225.66 1513.66 1231.47 1513.66 Z" fill="#000000" fill-rule="nonzero" fill-opacity="1" /><path clip-path="url(#clip210)" d="M1261.63 1517.37 Q1258.02 1517.37 1256.19 1520.93 Q1254.39 1524.47 1254.39 1531.6 Q1254.39 1538.71 1256.19 1542.27 Q1258.02 1545.82 1261.63 1545.82 Q1265.27 1545.82 1267.07 1542.27 Q1268.9 1538.71 1268.9 1531.6 Q1268.9 1524.47 1267.07 1520.93 Q1265.27 1517.37 1261.63 1517.37 M1261.63 1513.66 Q1267.44 1513.66 1270.5 1518.27 Q1273.58 1522.85 1273.58 1531.6 Q1273.58 1540.33 1270.5 1544.94 Q1267.44 1549.52 1261.63 1549.52 Q1255.82 1549.52 1252.74 1544.94 Q1249.69 1540.33 1249.69 1531.6 Q1249.69 1522.85 1252.74 1518.27 Q1255.82 1513.66 1261.63 1513.66 Z" fill="#000000" fill-rule="nonzero" fill-opacity="1" /><path clip-path="url(#clip210)" d="M1291.79 1517.37 Q1288.18 1517.37 1286.36 1520.93 Q1284.55 1524.47 1284.55 1531.6 Q1284.55 1538.71 1286.36 1542.27 Q1288.18 1545.82 1291.79 1545.82 Q1295.43 1545.82 1297.23 1542.27 Q1299.06 1538.71 1299.06 1531.6 Q1299.06 1524.47 1297.23 1520.93 Q1295.43 1517.37 1291.79 1517.37 M1291.79 1513.66 Q1297.61 1513.66 1300.66 1518.27 Q1303.74 1522.85 1303.74 1531.6 Q1303.74 1540.33 1300.66 1544.94 Q1297.61 1549.52 1291.79 1549.52 Q1285.98 1549.52 1282.91 1544.94 Q1279.85 1540.33 1279.85 1531.6 Q1279.85 1522.85 1282.91 1518.27 Q1285.98 1513.66 1291.79 1513.66 Z" fill="#000000" fill-rule="nonzero" fill-opacity="1" /><path clip-path="url(#clip210)" d="M1727.12 1530.21 Q1730.48 1530.93 1732.35 1533.2 Q1734.25 1535.47 1734.25 1538.8 Q1734.25 1543.92 1730.73 1546.72 Q1727.21 1549.52 1720.73 1549.52 Q1718.55 1549.52 1716.24 1549.08 Q1713.95 1548.66 1711.49 1547.81 L1711.49 1543.29 Q1713.44 1544.43 1715.75 1545.01 Q1718.07 1545.58 1720.59 1545.58 Q1724.99 1545.58 1727.28 1543.85 Q1729.6 1542.11 1729.6 1538.8 Q1729.6 1535.75 1727.44 1534.03 Q1725.31 1532.3 1721.49 1532.3 L1717.47 1532.3 L1717.47 1528.45 L1721.68 1528.45 Q1725.13 1528.45 1726.96 1527.09 Q1728.79 1525.7 1728.79 1523.11 Q1728.79 1520.45 1726.89 1519.03 Q1725.01 1517.6 1721.49 1517.6 Q1719.57 1517.6 1717.37 1518.01 Q1715.17 1518.43 1712.54 1519.31 L1712.54 1515.14 Q1715.2 1514.4 1717.51 1514.03 Q1719.85 1513.66 1721.91 1513.66 Q1727.23 1513.66 1730.34 1516.09 Q1733.44 1518.5 1733.44 1522.62 Q1733.44 1525.49 1731.79 1527.48 Q1730.15 1529.45 1727.12 1530.21 Z" fill="#000000" fill-rule="nonzero" fill-opacity="1" /><path clip-path="url(#clip210)" d="M1753.11 1517.37 Q1749.5 1517.37 1747.67 1520.93 Q1745.87 1524.47 1745.87 1531.6 Q1745.87 1538.71 1747.67 1542.27 Q1749.5 1545.82 1753.11 1545.82 Q1756.75 1545.82 1758.55 1542.27 Q1760.38 1538.71 1760.38 1531.6 Q1760.38 1524.47 1758.55 1520.93 Q1756.75 1517.37 1753.11 1517.37 M1753.11 1513.66 Q1758.92 1513.66 1761.98 1518.27 Q1765.06 1522.85 1765.06 1531.6 Q1765.06 1540.33 1761.98 1544.94 Q1758.92 1549.52 1753.11 1549.52 Q1747.3 1549.52 1744.23 1544.94 Q1741.17 1540.33 1741.17 1531.6 Q1741.17 1522.85 1744.23 1518.27 Q1747.3 1513.66 1753.11 1513.66 Z" fill="#000000" fill-rule="nonzero" fill-opacity="1" /><path clip-path="url(#clip210)" d="M1783.28 1517.37 Q1779.66 1517.37 1777.84 1520.93 Q1776.03 1524.47 1776.03 1531.6 Q1776.03 1538.71 1777.84 1542.27 Q1779.66 1545.82 1783.28 1545.82 Q1786.91 1545.82 1788.72 1542.27 Q1790.54 1538.71 1790.54 1531.6 Q1790.54 1524.47 1788.72 1520.93 Q1786.91 1517.37 1783.28 1517.37 M1783.28 1513.66 Q1789.09 1513.66 1792.14 1518.27 Q1795.22 1522.85 1795.22 1531.6 Q1795.22 1540.33 1792.14 1544.94 Q1789.09 1549.52 1783.28 1549.52 Q1777.47 1549.52 1774.39 1544.94 Q1771.33 1540.33 1771.33 1531.6 Q1771.33 1522.85 1774.39 1518.27 Q1777.47 1513.66 1783.28 1513.66 Z" fill="#000000" fill-rule="nonzero" fill-opacity="1" /><path clip-path="url(#clip210)" d="M1813.44 1517.37 Q1809.83 1517.37 1808 1520.93 Q1806.19 1524.47 1806.19 1531.6 Q1806.19 1538.71 1808 1542.27 Q1809.83 1545.82 1813.44 1545.82 Q1817.07 1545.82 1818.88 1542.27 Q1820.71 1538.71 1820.71 1531.6 Q1820.71 1524.47 1818.88 1520.93 Q1817.07 1517.37 1813.44 1517.37 M1813.44 1513.66 Q1819.25 1513.66 1822.3 1518.27 Q1825.38 1522.85 1825.38 1531.6 Q1825.38 1540.33 1822.3 1544.94 Q1819.25 1549.52 1813.44 1549.52 Q1807.63 1549.52 1804.55 1544.94 Q1801.49 1540.33 1801.49 1531.6 Q1801.49 1522.85 1804.55 1518.27 Q1807.63 1513.66 1813.44 1513.66 Z" fill="#000000" fill-rule="nonzero" fill-opacity="1" /><path clip-path="url(#clip210)" d="M2248.16 1518.36 L2236.35 1536.81 L2248.16 1536.81 L2248.16 1518.36 M2246.93 1514.29 L2252.81 1514.29 L2252.81 1536.81 L2257.74 1536.81 L2257.74 1540.7 L2252.81 1540.7 L2252.81 1548.85 L2248.16 1548.85 L2248.16 1540.7 L2232.56 1540.7 L2232.56 1536.19 L2246.93 1514.29 Z" fill="#000000" fill-rule="nonzero" fill-opacity="1" /><path clip-path="url(#clip210)" d="M2275.47 1517.37 Q2271.86 1517.37 2270.03 1520.93 Q2268.23 1524.47 2268.23 1531.6 Q2268.23 1538.71 2270.03 1542.27 Q2271.86 1545.82 2275.47 1545.82 Q2279.11 1545.82 2280.91 1542.27 Q2282.74 1538.71 2282.74 1531.6 Q2282.74 1524.47 2280.91 1520.93 Q2279.11 1517.37 2275.47 1517.37 M2275.47 1513.66 Q2281.28 1513.66 2284.34 1518.27 Q2287.42 1522.85 2287.42 1531.6 Q2287.42 1540.33 2284.34 1544.94 Q2281.28 1549.52 2275.47 1549.52 Q2269.66 1549.52 2266.59 1544.94 Q2263.53 1540.33 2263.53 1531.6 Q2263.53 1522.85 2266.59 1518.27 Q2269.66 1513.66 2275.47 1513.66 Z" fill="#000000" fill-rule="nonzero" fill-opacity="1" /><path clip-path="url(#clip210)" d="M2305.64 1517.37 Q2302.03 1517.37 2300.2 1520.93 Q2298.39 1524.47 2298.39 1531.6 Q2298.39 1538.71 2300.2 1542.27 Q2302.03 1545.82 2305.64 1545.82 Q2309.27 1545.82 2311.08 1542.27 Q2312.9 1538.71 2312.9 1531.6 Q2312.9 1524.47 2311.08 1520.93 Q2309.27 1517.37 2305.64 1517.37 M2305.64 1513.66 Q2311.45 1513.66 2314.5 1518.27 Q2317.58 1522.85 2317.58 1531.6 Q2317.58 1540.33 2314.5 1544.94 Q2311.45 1549.52 2305.64 1549.52 Q2299.83 1549.52 2296.75 1544.94 Q2293.69 1540.33 2293.69 1531.6 Q2293.69 1522.85 2296.75 1518.27 Q2299.83 1513.66 2305.64 1513.66 Z" fill="#000000" fill-rule="nonzero" fill-opacity="1" /><path clip-path="url(#clip210)" d="M2335.8 1517.37 Q2332.19 1517.37 2330.36 1520.93 Q2328.55 1524.47 2328.55 1531.6 Q2328.55 1538.71 2330.36 1542.27 Q2332.19 1545.82 2335.8 1545.82 Q2339.43 1545.82 2341.24 1542.27 Q2343.07 1538.71 2343.07 1531.6 Q2343.07 1524.47 2341.24 1520.93 Q2339.43 1517.37 2335.8 1517.37 M2335.8 1513.66 Q2341.61 1513.66 2344.66 1518.27 Q2347.74 1522.85 2347.74 1531.6 Q2347.74 1540.33 2344.66 1544.94 Q2341.61 1549.52 2335.8 1549.52 Q2329.99 1549.52 2326.91 1544.94 Q2323.85 1540.33 2323.85 1531.6 Q2323.85 1522.85 2326.91 1518.27 Q2329.99 1513.66 2335.8 1513.66 Z" fill="#000000" fill-rule="nonzero" fill-opacity="1" /><polyline clip-path="url(#clip212)" style="stroke:#000000; stroke-linecap:round; stroke-linejoin:round; stroke-width:2; stroke-opacity:0.1; fill:none" points="140.696,1258.35 2352.76,1258.35 "/>
<polyline clip-path="url(#clip212)" style="stroke:#000000; stroke-linecap:round; stroke-linejoin:round; stroke-width:2; stroke-opacity:0.1; fill:none" points="140.696,995.673 2352.76,995.673 "/>
<polyline clip-path="url(#clip212)" style="stroke:#000000; stroke-linecap:round; stroke-linejoin:round; stroke-width:2; stroke-opacity:0.1; fill:none" points="140.696,732.991 2352.76,732.991 "/>
<polyline clip-path="url(#clip212)" style="stroke:#000000; stroke-linecap:round; stroke-linejoin:round; stroke-width:2; stroke-opacity:0.1; fill:none" points="140.696,470.309 2352.76,470.309 "/>
<polyline clip-path="url(#clip212)" style="stroke:#000000; stroke-linecap:round; stroke-linejoin:round; stroke-width:2; stroke-opacity:0.1; fill:none" points="140.696,207.627 2352.76,207.627 "/>
<polyline clip-path="url(#clip210)" style="stroke:#000000; stroke-linecap:round; stroke-linejoin:round; stroke-width:4; stroke-opacity:1; fill:none" points="140.696,1486.45 140.696,47.2441 "/>
<polyline clip-path="url(#clip210)" style="stroke:#000000; stroke-linecap:round; stroke-linejoin:round; stroke-width:4; stroke-opacity:1; fill:none" points="140.696,1258.35 159.593,1258.35 "/>
<polyline clip-path="url(#clip210)" style="stroke:#000000; stroke-linecap:round; stroke-linejoin:round; stroke-width:4; stroke-opacity:1; fill:none" points="140.696,995.673 159.593,995.673 "/>
<polyline clip-path="url(#clip210)" style="stroke:#000000; stroke-linecap:round; stroke-linejoin:round; stroke-width:4; stroke-opacity:1; fill:none" points="140.696,732.991 159.593,732.991 "/>
<polyline clip-path="url(#clip210)" style="stroke:#000000; stroke-linecap:round; stroke-linejoin:round; stroke-width:4; stroke-opacity:1; fill:none" points="140.696,470.309 159.593,470.309 "/>
<polyline clip-path="url(#clip210)" style="stroke:#000000; stroke-linecap:round; stroke-linejoin:round; stroke-width:4; stroke-opacity:1; fill:none" points="140.696,207.627 159.593,207.627 "/>
<path clip-path="url(#clip210)" d="M52.9134 1271.7 L60.5523 1271.7 L60.5523 1245.33 L52.2421 1247 L52.2421 1242.74 L60.506 1241.07 L65.1819 1241.07 L65.1819 1271.7 L72.8207 1271.7 L72.8207 1275.63 L52.9134 1275.63 L52.9134 1271.7 Z" fill="#000000" fill-rule="nonzero" fill-opacity="1" /><path clip-path="url(#clip210)" d="M95.1123 1245.15 L83.3068 1263.6 L95.1123 1263.6 L95.1123 1245.15 M93.8854 1241.07 L99.765 1241.07 L99.765 1263.6 L104.696 1263.6 L104.696 1267.49 L99.765 1267.49 L99.765 1275.63 L95.1123 1275.63 L95.1123 1267.49 L79.5105 1267.49 L79.5105 1262.97 L93.8854 1241.07 Z" fill="#000000" fill-rule="nonzero" fill-opacity="1" /><path clip-path="url(#clip210)" d="M53.2375 1009.02 L60.8763 1009.02 L60.8763 982.652 L52.5662 984.319 L52.5662 980.059 L60.83 978.393 L65.5059 978.393 L65.5059 1009.02 L73.1448 1009.02 L73.1448 1012.95 L53.2375 1012.95 L53.2375 1009.02 Z" fill="#000000" fill-rule="nonzero" fill-opacity="1" /><path clip-path="url(#clip210)" d="M93.1678 993.809 Q90.0197 993.809 88.1679 995.962 Q86.3392 998.115 86.3392 1001.86 Q86.3392 1005.59 88.1679 1007.77 Q90.0197 1009.92 93.1678 1009.92 Q96.316 1009.92 98.1447 1007.77 Q99.9965 1005.59 99.9965 1001.86 Q99.9965 998.115 98.1447 995.962 Q96.316 993.809 93.1678 993.809 M102.45 979.157 L102.45 983.416 Q100.691 982.583 98.8854 982.143 Q97.103 981.703 95.3437 981.703 Q90.7141 981.703 88.2604 984.828 Q85.8299 987.953 85.4827 994.272 Q86.8484 992.259 88.9086 991.194 Q90.9688 990.106 93.4456 990.106 Q98.6539 990.106 101.663 993.277 Q104.696 996.425 104.696 1001.86 Q104.696 1007.19 101.547 1010.41 Q98.3993 1013.62 93.1678 1013.62 Q87.1725 1013.62 84.0012 1009.04 Q80.8299 1004.43 80.8299 995.708 Q80.8299 987.513 84.7188 982.652 Q88.6077 977.768 95.1586 977.768 Q96.9178 977.768 98.7002 978.115 Q100.506 978.462 102.45 979.157 Z" fill="#000000" fill-rule="nonzero" fill-opacity="1" /><path clip-path="url(#clip210)" d="M53.4921 746.336 L61.131 746.336 L61.131 719.97 L52.8208 721.637 L52.8208 717.378 L61.0847 715.711 L65.7606 715.711 L65.7606 746.336 L73.3994 746.336 L73.3994 750.271 L53.4921 750.271 L53.4921 746.336 Z" fill="#000000" fill-rule="nonzero" fill-opacity="1" /><path clip-path="url(#clip210)" d="M92.8438 733.859 Q89.5104 733.859 87.5892 735.641 Q85.691 737.424 85.691 740.549 Q85.691 743.674 87.5892 745.456 Q89.5104 747.238 92.8438 747.238 Q96.1771 747.238 98.0984 745.456 Q100.02 743.651 100.02 740.549 Q100.02 737.424 98.0984 735.641 Q96.2002 733.859 92.8438 733.859 M88.1679 731.868 Q85.1586 731.127 83.4688 729.067 Q81.8021 727.007 81.8021 724.044 Q81.8021 719.901 84.7419 717.493 Q87.7049 715.086 92.8438 715.086 Q98.0058 715.086 100.946 717.493 Q103.885 719.901 103.885 724.044 Q103.885 727.007 102.196 729.067 Q100.529 731.127 97.5428 731.868 Q100.922 732.655 102.797 734.947 Q104.696 737.239 104.696 740.549 Q104.696 745.572 101.617 748.257 Q98.5613 750.942 92.8438 750.942 Q87.1262 750.942 84.0475 748.257 Q80.992 745.572 80.992 740.549 Q80.992 737.239 82.8901 734.947 Q84.7882 732.655 88.1679 731.868 M86.4549 724.484 Q86.4549 727.169 88.1216 728.674 Q89.8114 730.178 92.8438 730.178 Q95.853 730.178 97.5428 728.674 Q99.2558 727.169 99.2558 724.484 Q99.2558 721.799 97.5428 720.294 Q95.853 718.79 92.8438 718.79 Q89.8114 718.79 88.1216 720.294 Q86.4549 721.799 86.4549 724.484 Z" fill="#000000" fill-rule="nonzero" fill-opacity="1" /><path clip-path="url(#clip210)" d="M56.6171 483.654 L72.9365 483.654 L72.9365 487.589 L50.9921 487.589 L50.9921 483.654 Q53.6541 480.899 58.2375 476.27 Q62.8439 471.617 64.0245 470.274 Q66.2698 467.751 67.1494 466.015 Q68.0522 464.256 68.0522 462.566 Q68.0522 459.811 66.1078 458.075 Q64.1865 456.339 61.0847 456.339 Q58.8856 456.339 56.4319 457.103 Q54.0014 457.867 51.2236 459.418 L51.2236 454.696 Q54.0477 453.561 56.5014 452.983 Q58.955 452.404 60.9921 452.404 Q66.3624 452.404 69.5568 455.089 Q72.7513 457.774 72.7513 462.265 Q72.7513 464.395 71.9411 466.316 Q71.1541 468.214 69.0476 470.807 Q68.4689 471.478 65.367 474.695 Q62.2652 477.89 56.6171 483.654 Z" fill="#000000" fill-rule="nonzero" fill-opacity="1" /><path clip-path="url(#clip210)" d="M92.7512 456.108 Q89.1401 456.108 87.3114 459.672 Q85.5058 463.214 85.5058 470.344 Q85.5058 477.45 87.3114 481.015 Q89.1401 484.557 92.7512 484.557 Q96.3854 484.557 98.1909 481.015 Q100.02 477.45 100.02 470.344 Q100.02 463.214 98.1909 459.672 Q96.3854 456.108 92.7512 456.108 M92.7512 452.404 Q98.5613 452.404 101.617 457.01 Q104.696 461.594 104.696 470.344 Q104.696 479.07 101.617 483.677 Q98.5613 488.26 92.7512 488.26 Q86.941 488.26 83.8623 483.677 Q80.8068 479.07 80.8068 470.344 Q80.8068 461.594 83.8623 457.01 Q86.941 452.404 92.7512 452.404 Z" fill="#000000" fill-rule="nonzero" fill-opacity="1" /><path clip-path="url(#clip210)" d="M58.2143 220.972 L74.5337 220.972 L74.5337 224.907 L52.5893 224.907 L52.5893 220.972 Q55.2514 218.217 59.8347 213.588 Q64.4411 208.935 65.6217 207.592 Q67.867 205.069 68.7467 203.333 Q69.6494 201.574 69.6494 199.884 Q69.6494 197.129 67.705 195.393 Q65.7837 193.657 62.6819 193.657 Q60.4828 193.657 58.0291 194.421 Q55.5986 195.185 52.8208 196.736 L52.8208 192.014 Q55.6449 190.879 58.0986 190.301 Q60.5523 189.722 62.5893 189.722 Q67.9596 189.722 71.1541 192.407 Q74.3485 195.092 74.3485 199.583 Q74.3485 201.713 73.5383 203.634 Q72.7513 205.532 70.6448 208.125 Q70.0661 208.796 66.9643 212.013 Q63.8624 215.208 58.2143 220.972 Z" fill="#000000" fill-rule="nonzero" fill-opacity="1" /><path clip-path="url(#clip210)" d="M88.3762 220.972 L104.696 220.972 L104.696 224.907 L82.7512 224.907 L82.7512 220.972 Q85.4132 218.217 89.9965 213.588 Q94.603 208.935 95.7836 207.592 Q98.0289 205.069 98.9085 203.333 Q99.8113 201.574 99.8113 199.884 Q99.8113 197.129 97.8669 195.393 Q95.9456 193.657 92.8438 193.657 Q90.6447 193.657 88.191 194.421 Q85.7605 195.185 82.9827 196.736 L82.9827 192.014 Q85.8068 190.879 88.2604 190.301 Q90.7141 189.722 92.7512 189.722 Q98.1215 189.722 101.316 192.407 Q104.51 195.092 104.51 199.583 Q104.51 201.713 103.7 203.634 Q102.913 205.532 100.807 208.125 Q100.228 208.796 97.1261 212.013 Q94.0243 215.208 88.3762 220.972 Z" fill="#000000" fill-rule="nonzero" fill-opacity="1" /><polyline clip-path="url(#clip212)" style="stroke:#009af9; stroke-linecap:round; stroke-linejoin:round; stroke-width:4; stroke-opacity:1; fill:none" points="203.301,1338.45 203.823,1339.13 204.344,1339.8 204.866,1340.47 205.388,1341.14 205.91,1342.12 206.431,1343.08 206.953,1344.07 207.475,1345.04 207.996,1346.22 208.518,1347.39 209.04,1348.67 209.562,1349.94 210.083,1350.81 210.605,1351.66 211.127,1352.18 211.648,1352.69 212.17,1353.61 212.692,1354.53 213.214,1355.05 213.735,1355.58 214.257,1356.19 214.779,1356.79 215.3,1357.74 215.822,1358.68 216.344,1359.74 216.866,1360.78 217.387,1361.67 217.909,1362.54 218.431,1363.24 218.952,1363.93 219.474,1365.02 219.996,1366.1 220.518,1366.67 221.039,1367.24 221.561,1367.87 222.083,1368.5 222.604,1369.07 223.126,1369.64 223.648,1370.48 224.17,1371.31 224.691,1371.94 225.213,1372.56 225.735,1373.45 226.256,1374.33 226.778,1374.95 227.3,1375.57 227.822,1376.31 228.343,1377.05 228.865,1377.63 229.387,1378.21 229.908,1378.97 230.43,1379.73 230.952,1380.1 231.473,1380.48 231.995,1381.24 232.517,1382 233.039,1382.91 233.56,1383.81 234.082,1384.52 234.604,1385.22 235.125,1386.07 235.647,1386.91 236.169,1387.37 236.691,1387.83 237.212,1388.39 237.734,1388.94 238.256,1389.53 238.777,1390.1 239.299,1391.13 239.821,1392.15 240.343,1392.68 240.864,1393.2 241.386,1393.99 241.908,1394.77 242.429,1395.43 242.951,1396.09 243.473,1396.83 243.995,1397.56 244.516,1398.26 245.038,1398.96 245.56,1399.71 246.081,1400.45 246.603,1401.37 247.125,1402.28 247.647,1403.07 248.168,1403.85 248.69,1404.36 249.212,1404.86 249.733,1405.32 250.255,1405.78 250.777,1406.21 251.299,1406.65 251.82,1407.46 252.342,1408.26 252.864,1408.77 253.385,1409.28 253.907,1409.77 254.429,1410.25 254.951,1410.64 255.472,1411.02 255.994,1411.62 256.516,1412.22 257.037,1413.26 257.559,1414.28 258.081,1414.74 258.603,1415.2 259.124,1415.83 259.646,1416.44 260.168,1417.17 260.689,1417.89 261.211,1418.39 261.733,1418.89 262.255,1419.22 262.776,1419.54 263.298,1420.09 263.82,1420.63 264.341,1420.95 264.863,1421.26 265.385,1421.71 265.907,1422.15 266.428,1422.65 266.95,1423.14 267.472,1423.46 267.993,1423.77 268.515,1424.12 269.037,1424.46 269.558,1424.73 270.08,1424.99 270.602,1425.38 271.124,1425.76 271.645,1426.26 272.167,1426.76 272.689,1427.03 273.21,1427.3 273.732,1427.62 274.254,1427.93 274.776,1428.47 275.297,1429.01 275.819,1429.14 276.341,1429.26 276.862,1429.7 277.384,1430.12 277.906,1430.43 278.428,1430.73 278.949,1431.17 279.471,1431.6 279.993,1431.94 280.514,1432.27 281.036,1432.6 281.558,1432.92 282.08,1433.17 282.601,1433.41 283.123,1433.78 283.645,1434.14 284.166,1434.48 284.688,1434.8 285.21,1435.31 285.732,1435.8 286.253,1435.95 286.775,1436.1 287.297,1436.33 287.818,1436.55 288.34,1436.77 288.862,1436.98 289.384,1437.24 289.905,1437.5 290.427,1437.71 290.949,1437.92 291.47,1438.11 291.992,1438.29 292.514,1438.35 293.036,1438.4 293.557,1438.46 294.079,1438.52 294.601,1438.66 295.122,1438.79 295.644,1438.92 296.166,1439.04 296.688,1439.46 297.209,1439.87 297.731,1439.95 298.253,1440.03 298.774,1440.59 299.296,1441.14 299.818,1441.4 300.34,1441.65 300.861,1441.63 301.383,1441.62 301.905,1441.75 302.426,1441.87 302.948,1441.96 303.47,1442.05 303.992,1442.15 304.513,1442.24 305.035,1442.35 305.557,1442.46 306.078,1442.64 306.6,1442.81 307.122,1442.84 307.643,1442.86 308.165,1443.12 308.687,1443.36 309.209,1443.54 309.73,1443.71 310.252,1443.92 310.774,1444.13 311.295,1444.33 311.817,1444.52 312.339,1444.68 312.861,1444.84 313.382,1444.93 313.904,1445.02 314.426,1445.15 314.947,1445.28 315.469,1445.19 315.991,1445.09 316.513,1445.23 317.034,1445.37 317.556,1445.37 318.078,1445.38 318.599,1445.46 319.121,1445.53 319.643,1445.47 320.165,1445.41 320.686,1445.47 321.208,1445.52 321.73,1445.62 322.251,1445.72 322.773,1445.71 323.295,1445.7 323.817,1445.59 324.338,1445.47 324.86,1445.5 325.382,1445.53 325.903,1445.5 326.425,1445.47 326.947,1445.56 327.469,1445.64 327.99,1445.54 328.512,1445.42 329.034,1445.36 329.555,1445.3 330.077,1445.18 330.599,1445.06 331.121,1445.03 331.642,1444.99 332.164,1444.83 332.686,1444.66 333.207,1444.63 333.729,1444.6 334.251,1444.42 334.773,1444.25 335.294,1444.21 335.816,1444.18 336.338,1444.11 336.859,1444.03 337.381,1443.84 337.903,1443.65 338.425,1443.46 338.946,1443.26 339.468,1443.26 339.99,1443.26 340.511,1443.06 341.033,1442.85 341.555,1442.7 342.077,1442.54 342.598,1442.51 343.12,1442.48 343.642,1442.17 344.163,1441.87 344.685,1441.62 345.207,1441.38 345.728,1441.14 346.25,1440.9 346.772,1440.62 347.294,1440.33 347.815,1440.17 348.337,1440.01 348.859,1439.86 349.38,1439.72 349.902,1439.4 350.424,1439.09 350.946,1438.91 351.467,1438.73 351.989,1438.51 352.511,1438.29 353.032,1437.9 353.554,1437.52 354.076,1437.19 354.598,1436.87 355.119,1436.56 355.641,1436.25 356.163,1435.99 356.684,1435.72 357.206,1435.49 357.728,1435.24 358.25,1434.88 358.771,1434.52 359.293,1434.22 359.815,1433.91 360.336,1433.58 360.858,1433.25 361.38,1432.91 361.902,1432.57 362.423,1432.23 362.945,1431.89 363.467,1431.47 363.988,1431.04 364.51,1430.63 365.032,1430.21 365.554,1429.84 366.075,1429.45 366.597,1428.99 367.119,1428.52 367.64,1428.04 368.162,1427.56 368.684,1427.24 369.206,1426.91 369.727,1426.48 370.249,1426.05 370.771,1425.63 371.292,1425.22 371.814,1424.74 372.336,1424.26 372.858,1423.9 373.379,1423.54 373.901,1423.12 374.423,1422.71 374.944,1422.29 375.466,1421.86 375.988,1421.33 376.51,1420.8 377.031,1420.57 377.553,1420.34 378.075,1419.91 378.596,1419.49 379.118,1418.99 379.64,1418.49 380.162,1418.14 380.683,1417.78 381.205,1417.28 381.727,1416.78 382.248,1416.43 382.77,1416.08 383.292,1415.62 383.813,1415.16 384.335,1414.64 384.857,1414.12 385.379,1413.59 385.9,1413.06 386.422,1412.64 386.944,1412.21 387.465,1411.77 387.987,1411.33 388.509,1410.83 389.031,1410.33 389.552,1409.8 390.074,1409.26 390.596,1408.74 391.117,1408.22 391.639,1407.67 392.161,1407.12 392.683,1406.56 393.204,1406 393.726,1405.77 394.248,1405.54 394.769,1404.99 395.291,1404.44 395.813,1403.71 396.335,1402.99 396.856,1402.45 397.378,1401.9 397.9,1401.36 398.421,1400.8 398.943,1400.22 399.465,1399.64 399.987,1399.07 400.508,1398.49 401.03,1397.88 401.552,1397.26 402.073,1396.68 402.595,1396.09 403.117,1395.52 403.639,1394.95 404.16,1394.3 404.682,1393.65 405.204,1392.93 405.725,1392.22 406.247,1391.68 406.769,1391.14 407.291,1390.47 407.812,1389.79 408.334,1389.1 408.856,1388.4 409.377,1387.78 409.899,1387.16 410.421,1386.43 410.943,1385.69 411.464,1385.05 411.986,1384.41 412.508,1383.79 413.029,1383.16 413.551,1382.54 414.073,1381.91 414.595,1381.26 415.116,1380.6 415.638,1379.96 416.16,1379.31 416.681,1378.6 417.203,1377.89 417.725,1377.13 418.247,1376.37 418.768,1375.75 419.29,1375.13 419.812,1374.45 420.333,1373.76 420.855,1373.03 421.377,1372.3 421.898,1371.55 422.42,1370.81 422.942,1370.08 423.464,1369.35 423.985,1368.64 424.507,1367.93 425.029,1367.19 425.55,1366.45 426.072,1365.68 426.594,1364.9 427.116,1364.08 427.637,1363.25 428.159,1362.54 428.681,1361.82 429.202,1361.34 429.724,1360.86 430.246,1360.09 430.768,1359.32 431.289,1358.69 431.811,1358.06 432.333,1357.39 432.854,1356.71 433.376,1356.05 433.898,1355.39 434.42,1354.68 434.941,1353.98 435.463,1353.36 435.985,1352.75 436.506,1352.01 437.028,1351.27 437.55,1350.48 438.072,1349.68 438.593,1349.04 439.115,1348.41 439.637,1347.6 440.158,1346.78 440.68,1346.18 441.202,1345.58 441.724,1344.8 442.245,1344.03 442.767,1343.22 443.289,1342.41 443.81,1341.49 444.332,1340.56 444.854,1339.73 445.376,1338.89 445.897,1338.09 446.419,1337.29 446.941,1336.51 447.462,1335.74 447.984,1335.04 448.506,1334.35 449.028,1333.47 449.549,1332.59 450.071,1331.92 450.593,1331.24 451.114,1330.38 451.636,1329.52 452.158,1328.79 452.68,1328.06 453.201,1327.21 453.723,1326.35 454.245,1325.55 454.766,1324.74 455.288,1324.04 455.81,1323.34 456.332,1322.65 456.853,1321.95 457.375,1321.2 457.897,1320.45 458.418,1319.73 458.94,1319 459.462,1318.19 459.984,1317.39 460.505,1316.51 461.027,1315.63 461.549,1314.85 462.07,1314.06 462.592,1313.42 463.114,1312.79 463.635,1311.95 464.157,1311.11 464.679,1310.3 465.201,1309.48 465.722,1308.62 466.244,1307.76 466.766,1306.99 467.287,1306.23 467.809,1305.43 468.331,1304.64 468.853,1303.75 469.374,1302.86 469.896,1302.29 470.418,1301.72 470.939,1301.12 471.461,1300.51 471.983,1299.57 472.505,1298.63 473.026,1297.78 473.548,1296.93 474.07,1295.97 474.591,1295.02 475.113,1294.2 475.635,1293.38 476.157,1292.51 476.678,1291.64 477.2,1290.8 477.722,1289.96 478.243,1289.01 478.765,1288.05 479.287,1287.24 479.809,1286.44 480.33,1285.63 480.852,1284.82 481.374,1284.04 481.895,1283.25 482.417,1282.56 482.939,1281.87 483.461,1281.12 483.982,1280.38 484.504,1279.53 485.026,1278.69 485.547,1277.74 486.069,1276.8 486.591,1275.9 487.113,1274.99 487.634,1274.28 488.156,1273.57 488.678,1272.84 489.199,1272.1 489.721,1271.29 490.243,1270.47 490.765,1269.63 491.286,1268.79 491.808,1268.05 492.33,1267.31 492.851,1266.48 493.373,1265.64 493.895,1264.86 494.417,1264.09 494.938,1263.3 495.46,1262.5 495.982,1261.66 496.503,1260.82 497.025,1260.12 497.547,1259.42 498.069,1258.58 498.59,1257.75 499.112,1256.98 499.634,1256.21 500.155,1255.29 500.677,1254.37 501.199,1253.71 501.72,1253.06 502.242,1252.07 502.764,1251.09 503.286,1250.25 503.807,1249.42 504.329,1248.51 504.851,1247.61 505.372,1246.73 505.894,1245.85 506.416,1244.83 506.938,1243.82 507.459,1242.99 507.981,1242.15 508.503,1241.26 509.024,1240.36 509.546,1239.41 510.068,1238.47 510.59,1237.63 511.111,1236.8 511.633,1236.06 512.155,1235.33 512.676,1234.51 513.198,1233.68 513.72,1232.79 514.242,1231.9 514.763,1231 515.285,1230.1 515.807,1229.39 516.328,1228.68 516.85,1227.8 517.372,1226.91 517.894,1226.15 518.415,1225.38 518.937,1224.61 519.459,1223.84 519.98,1223.12 520.502,1222.41 521.024,1221.47 521.546,1220.54 522.067,1219.51 522.589,1218.49 523.111,1217.59 523.632,1216.69 524.154,1215.84 524.676,1214.98 525.198,1214 525.719,1213.02 526.241,1212.05 526.763,1211.08 527.284,1210.22 527.806,1209.35 528.328,1208.54 528.85,1207.73 529.371,1207.04 529.893,1206.36 530.415,1205.48 530.936,1204.59 531.458,1203.73 531.98,1202.87 532.502,1201.91 533.023,1200.94 533.545,1200.08 534.067,1199.21 534.588,1198.62 535.11,1198.03 535.632,1197.14 536.154,1196.26 536.675,1195.55 537.197,1194.84 537.719,1194 538.24,1193.17 538.762,1192.36 539.284,1191.55 539.805,1190.46 540.327,1189.38 540.849,1188.71 541.371,1188.05 541.892,1187.13 542.414,1186.22 542.936,1185.57 543.457,1184.92 543.979,1183.95 544.501,1182.97 545.023,1181.91 545.544,1180.86 546.066,1179.88 546.588,1178.9 547.109,1178.31 547.631,1177.72 548.153,1176.83 548.675,1175.95 549.196,1174.96 549.718,1173.98 550.24,1173.14 550.761,1172.31 551.283,1171.41 551.805,1170.52 552.327,1169.78 552.848,1169.05 553.37,1168.27 553.892,1167.5 554.413,1166.55 554.935,1165.61 555.457,1164.65 555.979,1163.68 556.5,1162.69 557.022,1161.7 557.544,1160.69 558.065,1159.68 558.587,1158.83 559.109,1157.98 559.631,1157.07 560.152,1156.17 560.674,1155.27 561.196,1154.39 561.717,1153.39 562.239,1152.39 562.761,1151.62 563.283,1150.85 563.804,1150.02 564.326,1149.19 564.848,1148.31 565.369,1147.43 565.891,1146.61 566.413,1145.8 566.935,1144.83 567.456,1143.86 567.978,1142.99 568.5,1142.11 569.021,1141.16 569.543,1140.2 570.065,1139.32 570.587,1138.43 571.108,1137.65 571.63,1136.88 572.152,1135.92 572.673,1134.97 573.195,1134.04 573.717,1133.1 574.239,1132.24 574.76,1131.38 575.282,1130.72 575.804,1130.06 576.325,1129.35 576.847,1128.63 577.369,1127.91 577.89,1127.2 578.412,1126.21 578.934,1125.23 579.456,1124.65 579.977,1124.07 580.499,1123.27 581.021,1122.46 581.542,1121.62 582.064,1120.78 582.586,1120.03 583.108,1119.28 583.629,1118.5 584.151,1117.72 584.673,1116.84 585.194,1115.97 585.716,1115 586.238,1114.02 586.76,1113.09 587.281,1112.15 587.803,1111.44 588.325,1110.72 588.846,1109.81 589.368,1108.89 589.89,1108.01 590.412,1107.13 590.933,1106.23 591.455,1105.33 591.977,1104.36 592.498,1103.39 593.02,1102.63 593.542,1101.86 594.064,1101 594.585,1100.14 595.107,1099.37 595.629,1098.6 596.15,1097.71 596.672,1096.81 597.194,1095.86 597.716,1094.9 598.237,1094.03 598.759,1093.17 599.281,1092.3 599.802,1091.44 600.324,1090.92 600.846,1090.4 601.368,1089.62 601.889,1088.83 602.411,1088.02 602.933,1087.21 603.454,1086.42 603.976,1085.62 604.498,1084.81 605.02,1084 605.541,1083.1 606.063,1082.2 606.585,1081.69 607.106,1081.19 607.628,1080.53 608.15,1079.87 608.672,1079.15 609.193,1078.44 609.715,1077.89 610.237,1077.35 610.758,1076.48 611.28,1075.62 611.802,1074.76 612.324,1073.9 612.845,1073.23 613.367,1072.56 613.889,1071.78 614.41,1071.01 614.932,1070.21 615.454,1069.41 615.975,1068.47 616.497,1067.53 617.019,1066.57 617.541,1065.61 618.062,1064.8 618.584,1063.98 619.106,1063.54 619.627,1063.1 620.149,1062.45 620.671,1061.79 621.193,1061.07 621.714,1060.35 622.236,1059.48 622.758,1058.62 623.279,1057.91 623.801,1057.2 624.323,1056.31 624.845,1055.41 625.366,1054.69 625.888,1053.97 626.41,1053.04 626.931,1052.12 627.453,1051.42 627.975,1050.73 628.497,1049.96 629.018,1049.2 629.54,1048.44 630.062,1047.68 630.583,1047.09 631.105,1046.49 631.627,1045.8 632.149,1045.12 632.67,1044.03 633.192,1042.94 633.714,1042.34 634.235,1041.74 634.757,1040.94 635.279,1040.14 635.801,1039.52 636.322,1038.89 636.844,1038.17 637.366,1037.46 637.887,1036.99 638.409,1036.52 638.931,1035.75 639.453,1034.98 639.974,1034.16 640.496,1033.34 641.018,1032.63 641.539,1031.92 642.061,1031.07 642.583,1030.22 643.105,1029.34 643.626,1028.46 644.148,1027.63 644.67,1026.81 645.191,1025.98 645.713,1025.15 646.235,1024.32 646.757,1023.5 647.278,1022.73 647.8,1021.97 648.322,1021.31 648.843,1020.65 649.365,1020.03 649.887,1019.41 650.409,1018.91 650.93,1018.42 651.452,1017.55 651.974,1016.67 652.495,1016.02 653.017,1015.36 653.539,1014.52 654.06,1013.67 654.582,1013.15 655.104,1012.62 655.626,1012.05 656.147,1011.48 656.669,1010.83 657.191,1010.18 657.712,1009.61 658.234,1009.04 658.756,1008.31 659.278,1007.59 659.799,1006.69 660.321,1005.8 660.843,1005.02 661.364,1004.25 661.886,1003.35 662.408,1002.46 662.93,1001.58 663.451,1000.7 663.973,1000.03 664.495,999.366 665.016,998.516 665.538,997.667 666.06,996.824 666.582,995.981 667.103,995.147 667.625,994.315 668.147,993.478 668.668,992.643 669.19,992.092 669.712,991.542 670.234,990.886 670.755,990.231 671.277,989.405 671.799,988.58 672.32,987.814 672.842,987.049 673.364,986.409 673.886,985.771 674.407,985.062 674.929,984.353 675.451,983.486 675.972,982.62 676.494,981.862 677.016,981.104 677.538,980.353 678.059,979.604 678.581,978.663 679.103,977.723 679.624,976.987 680.146,976.251 680.668,975.624 681.19,974.998 681.711,974.501 682.233,974.006 682.755,973.411 683.276,972.818 683.798,971.969 684.32,971.121 684.842,970.394 685.363,969.668 685.885,968.872 686.407,968.076 686.928,967.259 687.45,966.442 687.972,965.582 688.494,964.722 689.015,963.914 689.537,963.106 690.059,962.299 690.58,961.492 691.102,960.93 691.624,960.369 692.145,959.795 692.667,959.222 693.189,958.464 693.711,957.708 694.232,957.036 694.754,956.364 695.276,955.812 695.797,955.26 696.319,954.414 696.841,953.569 697.363,952.863 697.884,952.157 698.406,951.413 698.928,950.669 699.449,949.87 699.971,949.071 700.493,948.389 701.015,947.708 701.536,947.154 702.058,946.6 702.58,946.025 703.101,945.45 703.623,944.943 704.145,944.435 704.667,943.73 705.188,943.025 705.71,942.506 706.232,941.987 706.753,941.33 707.275,940.673 707.797,940.336 708.319,940.001 708.84,939.54 709.362,939.079 709.884,938.443 710.405,937.809 710.927,937.146 711.449,936.483 711.971,935.812 712.492,935.142 713.014,934.588 713.536,934.035 714.057,933.245 714.579,932.457 715.101,931.71 715.623,930.964 716.144,930.194 716.666,929.426 717.188,928.781 717.709,928.138 718.231,927.433 718.753,926.73 719.275,926.13 719.796,925.531 720.318,925.017 720.84,924.504 721.361,923.738 721.883,922.973 722.405,922.099 722.927,921.225 723.448,920.829 723.97,920.433 724.492,919.831 725.013,919.231 725.535,918.398 726.057,917.566 726.579,916.862 727.1,916.159 727.622,915.412 728.144,914.667 728.665,913.953 729.187,913.24 729.709,912.514 730.23,911.789 730.752,911.018 731.274,910.248 731.796,909.515 732.317,908.783 732.839,908 733.361,907.219 733.882,906.567 734.404,905.916 734.926,905.214 735.448,904.514 735.969,903.928 736.491,903.344 737.013,902.798 737.534,902.253 738.056,901.508 738.578,900.765 739.1,899.993 739.621,899.224 740.143,898.443 740.665,897.663 741.186,897.148 741.708,896.635 742.23,895.988 742.752,895.342 743.273,894.489 743.795,893.638 744.317,893.157 744.838,892.677 745.36,891.908 745.882,891.141 746.404,890.646 746.925,890.152 747.447,889.57 747.969,888.988 748.49,888.489 749.012,887.991 749.534,887.227 750.056,886.465 750.577,885.998 751.099,885.531 751.621,884.834 752.142,884.138 752.664,883.541 753.186,882.945 753.708,882.179 754.229,881.415 754.751,880.641 755.273,879.867 755.794,879.154 756.316,878.442 756.838,877.687 757.36,876.934 757.881,876.249 758.403,875.565 758.925,874.913 759.446,874.263 759.968,873.55 760.49,872.839 761.012,872.137 761.533,871.437 762.055,870.68 762.577,869.925 763.098,869.357 763.62,868.789 764.142,868.167 764.664,867.546 765.185,866.944 765.707,866.343 766.229,865.547 766.75,864.752 767.272,864.025 767.794,863.299 768.315,862.634 768.837,861.969 769.359,861.454 769.881,860.94 770.402,860.278 770.924,859.617 771.446,859.005 771.967,858.394 772.489,857.639 773.011,856.885 773.533,856.179 774.054,855.474 774.576,854.698 775.098,853.923 775.619,853.238 776.141,852.553 776.663,851.916 777.185,851.28 777.706,850.552 778.228,849.824 778.75,849.074 779.271,848.325 779.793,847.771 780.315,847.217 780.837,846.566 781.358,845.915 781.88,845.229 782.402,844.545 782.923,843.87 783.445,843.196 783.967,842.625 784.489,842.055 785.01,841.277 785.532,840.5 786.054,839.848 786.575,839.197 787.097,838.624 787.619,838.052 788.141,837.24 788.662,836.428 789.184,835.708 789.706,834.989 790.227,834.497 790.749,834.006 791.271,833.255 791.793,832.507 792.314,831.892 792.836,831.278 793.358,830.527 793.879,829.778 794.401,829.494 794.923,829.211 795.445,828.825 795.966,828.44 796.488,827.804 797.01,827.169 797.531,826.56 798.053,825.952 798.575,825.197 799.097,824.442 799.618,823.773 800.14,823.105 800.662,822.35 801.183,821.596 801.705,820.916 802.227,820.236 802.749,819.649 803.27,819.063 803.792,818.468 804.314,817.874 804.835,817.294 805.357,816.715 805.879,816.057 806.401,815.4 806.922,814.661 807.444,813.923 807.966,813.339 808.487,812.754 809.009,812.273 809.531,811.792 810.052,811.158 810.574,810.525 811.096,809.842 811.618,809.159 812.139,808.572 812.661,807.986 813.183,807.524 813.704,807.062 814.226,806.557 814.748,806.053 815.27,805.364 815.791,804.675 816.313,804.021 816.835,803.367 817.356,802.735 817.878,802.104 818.4,801.489 818.922,800.875 819.443,800.235 819.965,799.595 820.487,799.129 821.008,798.663 821.53,798.172 822.052,797.683 822.574,797.138 823.095,796.594 823.617,796.105 824.139,795.617 824.66,794.993 825.182,794.369 825.704,793.612 826.226,792.856 826.747,792.285 827.269,791.714 827.791,791.086 828.312,790.46 828.834,789.803 829.356,789.147 829.878,788.667 830.399,788.188 830.921,787.659 831.443,787.13 831.964,786.764 832.486,786.399 833.008,785.949 833.53,785.5 834.051,784.835 834.573,784.171 835.095,783.634 835.616,783.097 836.138,782.575 836.66,782.053 837.182,781.489 837.703,780.927 838.225,780.419 838.747,779.911 839.268,779.266 839.79,778.622 840.312,778.024 840.834,777.428 841.355,776.861 841.877,776.295 842.399,775.864 842.92,775.433 843.442,775.122 843.964,774.811 844.486,774.323 845.007,773.835 845.529,773.193 846.051,772.553 846.572,772.144 847.094,771.736 847.616,771.185 848.137,770.635 848.659,770.215 849.181,769.795 849.703,769.129 850.224,768.464 850.746,767.841 851.268,767.219 851.789,766.805 852.311,766.392 852.833,765.981 853.355,765.572 853.876,765.019 854.398,764.468 854.92,763.636 855.441,762.806 855.963,762.348 856.485,761.891 857.007,761.301 857.528,760.712 858.05,760.089 858.572,759.467 859.093,758.917 859.615,758.368 860.137,757.766 860.659,757.165 861.18,756.458 861.702,755.752 862.224,755.329 862.745,754.906 863.267,754.378 863.789,753.851 864.311,753.232 864.832,752.613 865.354,752.019 865.876,751.425 866.397,750.771 866.919,750.118 867.441,749.391 867.963,748.665 868.484,748.147 869.006,747.631 869.528,747.192 870.049,746.753 870.571,746.04 871.093,745.327 871.615,744.82 872.136,744.313 872.658,743.855 873.18,743.398 873.701,742.819 874.223,742.242 874.745,741.741 875.267,741.241 875.788,740.53 876.31,739.819 876.832,739.304 877.353,738.79 877.875,738.322 878.397,737.854 878.919,737.343 879.44,736.832 879.962,736.256 880.484,735.68 881.005,735.132 881.527,734.585 882.049,734.078 882.571,733.571 883.092,733.002 883.614,732.434 884.136,731.803 884.657,731.172 885.179,730.592 885.701,730.013 886.222,729.4 886.744,728.788 887.266,728.471 887.788,728.154 888.309,727.504 888.831,726.854 889.353,726.409 889.874,725.964 890.396,725.528 890.918,725.092 891.44,724.724 891.961,724.356 892.483,723.896 893.005,723.436 893.526,722.844 894.048,722.253 894.57,721.521 895.092,720.791 895.613,720.142 896.135,719.495 896.657,718.984 897.178,718.474 897.7,718.005 898.222,717.537 898.744,716.87 899.265,716.204 899.787,715.733 900.309,715.264 900.83,714.892 901.352,714.52 901.874,713.81 902.396,713.101 902.917,712.546 903.439,711.992 903.961,711.414 904.482,710.836 905.004,710.379 905.526,709.923 906.048,709.376 906.569,708.83 907.091,708.266 907.613,707.703 908.134,707.086 908.656,706.471 909.178,706.113 909.7,705.756 910.221,705.245 910.743,704.734 911.265,704.239 911.786,703.744 912.308,703.239 912.83,702.734 913.352,702.354 913.873,701.973 914.395,701.481 914.917,700.989 915.438,700.6 915.96,700.211 916.482,699.57 917.004,698.929 917.525,698.482 918.047,698.034 918.569,697.572 919.09,697.11 919.612,696.658 920.134,696.207 920.656,695.594 921.177,694.981 921.699,694.544 922.221,694.107 922.742,693.572 923.264,693.038 923.786,692.746 924.307,692.454 924.829,691.946 925.351,691.44 925.873,691.053 926.394,690.667 926.916,690.131 927.438,689.597 927.959,688.92 928.481,688.243 929.003,687.574 929.525,686.906 930.046,686.33 930.568,685.755 931.09,685.123 931.611,684.492 932.133,684.12 932.655,683.748 933.177,683.253 933.698,682.758 934.22,682.291 934.742,681.824 935.263,681.392 935.785,680.961 936.307,680.442 936.829,679.923 937.35,679.386 937.872,678.85 938.394,678.247 938.915,677.644 939.437,677.141 939.959,676.639 940.481,676.227 941.002,675.816 941.524,675.228 942.046,674.641 942.567,674.133 943.089,673.624 943.611,672.974 944.133,672.325 944.654,671.981 945.176,671.638 945.698,671.093 946.219,670.549 946.741,669.918 947.263,669.287 947.785,668.916 948.306,668.544 948.828,668.199 949.35,667.855 949.871,667.417 950.393,666.98 950.915,666.425 951.437,665.871 951.958,665.363 952.48,664.856 953.002,664.261 953.523,663.666 954.045,663.274 954.567,662.883 955.089,662.415 955.61,661.948 956.132,661.39 956.654,660.833 957.175,660.469 957.697,660.105 958.219,659.983 958.741,659.862 959.262,659.382 959.784,658.901 960.306,658.673 960.827,658.446 961.349,658.159 961.871,657.872 962.392,657.514 962.914,657.156 963.436,656.478 963.958,655.802 964.479,655.278 965.001,654.754 965.523,654.535 966.044,654.315 966.566,653.743 967.088,653.173 967.61,652.639 968.131,652.106 968.653,651.623 969.175,651.14 969.696,650.641 970.218,650.143 970.74,649.641 971.262,649.139 971.783,648.852 972.305,648.565 972.827,648.071 973.348,647.578 973.87,647.175 974.392,646.773 974.914,646.288 975.435,645.803 975.957,645.362 976.479,644.923 977,644.38 977.522,643.838 978.044,643.481 978.566,643.124 979.087,642.66 979.609,642.197 980.131,641.579 980.652,640.961 981.174,640.415 981.696,639.87 982.218,639.6 982.739,639.331 983.261,639.161 983.783,638.991 984.304,638.601 984.826,638.211 985.348,637.891 985.87,637.571 986.391,637.198 986.913,636.825 987.435,636.321 987.956,635.818 988.478,635.297 989,634.776 989.522,634.204 990.043,633.632 990.565,633.166 991.087,632.7 991.608,632.163 992.13,631.627 992.652,631.167 993.174,630.707 993.695,630.504 994.217,630.302 994.739,629.819 995.26,629.336 995.782,629.043 996.304,628.751 996.826,628.155 997.347,627.559 997.869,627.143 998.391,626.727 998.912,626.218 999.434,625.709 999.956,625.073 1000.48,624.439 1001,623.941 1001.52,623.444 1002.04,623.053 1002.56,622.662 1003.09,622.178 1003.61,621.695 1004.13,621.318 1004.65,620.942 1005.17,620.607 1005.69,620.272 1006.22,620.016 1006.74,619.761 1007.26,619.486 1007.78,619.211 1008.3,618.627 1008.82,618.043 1009.35,617.572 1009.87,617.102 1010.39,616.651 1010.91,616.2 1011.43,615.815 1011.96,615.43 1012.48,614.873 1013,614.316 1013.52,613.942 1014.04,613.569 1014.56,613.465 1015.09,613.362 1015.61,612.893 1016.13,612.424 1016.65,612.027 1017.17,611.63 1017.69,611.256 1018.22,610.882 1018.74,610.47 1019.26,610.059 1019.78,609.596 1020.3,609.134 1020.82,608.732 1021.35,608.331 1021.87,607.826 1022.39,607.322 1022.91,607.069 1023.43,606.817 1023.95,606.433 1024.48,606.049 1025,605.541 1025.52,605.034 1026.04,604.439 1026.56,603.846 1027.08,603.336 1027.61,602.827 1028.13,602.586 1028.65,602.344 1029.17,601.803 1029.69,601.263 1030.22,600.811 1030.74,600.36 1031.26,599.882 1031.78,599.404 1032.3,599.089 1032.82,598.775 1033.35,598.612 1033.87,598.45 1034.39,597.846 1034.91,597.243 1035.43,596.758 1035.95,596.273 1036.48,595.994 1037,595.715 1037.52,595.34 1038.04,594.964 1038.56,594.875 1039.08,594.786 1039.61,594.511 1040.13,594.237 1040.65,593.784 1041.17,593.331 1041.69,592.913 1042.21,592.495 1042.74,591.99 1043.26,591.485 1043.78,590.92 1044.3,590.356 1044.82,589.928 1045.34,589.5 1045.87,589.324 1046.39,589.149 1046.91,588.851 1047.43,588.553 1047.95,588.281 1048.48,588.009 1049,587.714 1049.52,587.418 1050.04,587.006 1050.56,586.595 1051.08,586.292 1051.61,585.99 1052.13,585.661 1052.65,585.333 1053.17,584.694 1053.69,584.056 1054.21,583.585 1054.74,583.116 1055.26,582.69 1055.78,582.264 1056.3,582.002 1056.82,581.739 1057.34,581.21 1057.87,580.682 1058.39,580.201 1058.91,579.721 1059.43,579.574 1059.95,579.428 1060.47,579.042 1061,578.657 1061.52,578.277 1062.04,577.897 1062.56,577.556 1063.08,577.215 1063.6,576.858 1064.13,576.502 1064.65,575.983 1065.17,575.464 1065.69,574.81 1066.21,574.158 1066.73,573.71 1067.26,573.262 1067.78,572.905 1068.3,572.548 1068.82,572.056 1069.34,571.564 1069.87,571.106 1070.39,570.649 1070.91,570.255 1071.43,569.863 1071.95,569.514 1072.47,569.165 1073,568.734 1073.52,568.303 1074.04,567.887 1074.56,567.472 1075.08,567.214 1075.6,566.955 1076.13,566.63 1076.65,566.304 1077.17,565.834 1077.69,565.364 1078.21,564.928 1078.73,564.493 1079.26,564.054 1079.78,563.615 1080.3,563.294 1080.82,562.973 1081.34,562.623 1081.86,562.274 1082.39,562.141 1082.91,562.009 1083.43,561.766 1083.95,561.523 1084.47,561.115 1084.99,560.707 1085.52,560.53 1086.04,560.353 1086.56,559.899 1087.08,559.445 1087.6,558.847 1088.13,558.25 1088.65,557.869 1089.17,557.488 1089.69,557.337 1090.21,557.187 1090.73,556.733 1091.26,556.279 1091.78,555.853 1092.3,555.426 1092.82,555.143 1093.34,554.86 1093.86,554.584 1094.39,554.307 1094.91,554.131 1095.43,553.955 1095.95,553.634 1096.47,553.314 1096.99,552.927 1097.52,552.541 1098.04,552.032 1098.56,551.524 1099.08,550.923 1099.6,550.322 1100.12,549.905 1100.65,549.488 1101.17,549.116 1101.69,548.743 1102.21,548.354 1102.73,547.966 1103.25,547.553 1103.78,547.141 1104.3,546.54 1104.82,545.939 1105.34,545.304 1105.86,544.671 1106.39,544.153 1106.91,543.637 1107.43,543.475 1107.95,543.313 1108.47,542.884 1108.99,542.455 1109.52,542.016 1110.04,541.576 1110.56,541.288 1111.08,541 1111.6,540.484 1112.12,539.969 1112.65,539.703 1113.17,539.438 1113.69,539.034 1114.21,538.63 1114.73,538.279 1115.25,537.928 1115.78,537.564 1116.3,537.201 1116.82,536.677 1117.34,536.155 1117.86,535.768 1118.38,535.382 1118.91,535.018 1119.43,534.655 1119.95,534.619 1120.47,534.583 1120.99,534.333 1121.51,534.083 1122.04,533.679 1122.56,533.276 1123.08,533.043 1123.6,532.811 1124.12,532.294 1124.65,531.778 1125.17,531.33 1125.69,530.882 1126.21,530.576 1126.73,530.269 1127.25,530.125 1127.78,529.98 1128.3,529.578 1128.82,529.176 1129.34,528.875 1129.86,528.575 1130.38,528.249 1130.91,527.923 1131.43,527.511 1131.95,527.098 1132.47,526.614 1132.99,526.132 1133.51,525.774 1134.04,525.416 1134.56,525.068 1135.08,524.72 1135.6,524.104 1136.12,523.489 1136.64,523.023 1137.17,522.557 1137.69,522.157 1138.21,521.757 1138.73,521.49 1139.25,521.223 1139.77,520.808 1140.3,520.394 1140.82,520.146 1141.34,519.898 1141.86,519.634 1142.38,519.369 1142.9,518.981 1143.43,518.594 1143.95,518.364 1144.47,518.135 1144.99,517.694 1145.51,517.253 1146.04,516.734 1146.56,516.215 1147.08,515.821 1147.6,515.426 1148.12,515.114 1148.64,514.802 1149.17,514.347 1149.69,513.892 1150.21,513.495 1150.73,513.097 1151.25,512.68 1151.77,512.263 1152.3,512.047 1152.82,511.832 1153.34,511.592 1153.86,511.352 1154.38,510.826 1154.9,510.3 1155.43,509.975 1155.95,509.65 1156.47,509.266 1156.99,508.883 1157.51,508.541 1158.03,508.2 1158.56,507.889 1159.08,507.578 1159.6,507.201 1160.12,506.823 1160.64,506.424 1161.16,506.026 1161.69,505.766 1162.21,505.506 1162.73,505.095 1163.25,504.684 1163.77,504.306 1164.3,503.929 1164.82,503.728 1165.34,503.527 1165.86,503.253 1166.38,502.979 1166.9,502.486 1167.43,501.992 1167.95,501.726 1168.47,501.46 1168.99,501.271 1169.51,501.083 1170.03,500.632 1170.56,500.183 1171.08,499.961 1171.6,499.738 1172.12,499.271 1172.64,498.804 1173.16,498.354 1173.69,497.905 1174.21,497.494 1174.73,497.081 1175.25,496.705 1175.77,496.329 1176.29,495.883 1176.82,495.437 1177.34,495.094 1177.86,494.752 1178.38,494.281 1178.9,493.811 1179.42,493.412 1179.95,493.013 1180.47,492.489 1180.99,491.964 1181.51,491.537 1182.03,491.11 1182.56,490.792 1183.08,490.473 1183.6,490.029 1184.12,489.587 1184.64,489.292 1185.16,488.997 1185.69,488.567 1186.21,488.137 1186.73,487.705 1187.25,487.273 1187.77,487.027 1188.29,486.782 1188.82,486.412 1189.34,486.042 1189.86,485.658 1190.38,485.273 1190.9,485.015 1191.42,484.757 1191.95,484.667 1192.47,484.578 1192.99,484.133 1193.51,483.69 1194.03,483.59 1194.55,483.49 1195.08,483.047 1195.6,482.604 1196.12,482.538 1196.64,482.472 1197.16,482.234 1197.68,481.996 1198.21,481.696 1198.73,481.397 1199.25,481.141 1199.77,480.885 1200.29,480.491 1200.82,480.096 1201.34,480.009 1201.86,479.921 1202.38,479.485 1202.9,479.05 1203.42,478.794 1203.95,478.539 1204.47,477.992 1204.99,477.446 1205.51,477.222 1206.03,476.999 1206.55,476.731 1207.08,476.463 1207.6,476.094 1208.12,475.726 1208.64,475.505 1209.16,475.284 1209.68,474.98 1210.21,474.677 1210.73,474.533 1211.25,474.389 1211.77,473.99 1212.29,473.591 1212.81,473.35 1213.34,473.11 1213.86,472.784 1214.38,472.458 1214.9,471.857 1215.42,471.257 1215.94,471.069 1216.47,470.881 1216.99,470.564 1217.51,470.249 1218.03,469.927 1218.55,469.606 1219.07,469.135 1219.6,468.664 1220.12,468.326 1220.64,467.989 1221.16,467.665 1221.68,467.341 1222.21,467.205 1222.73,467.07 1223.25,466.757 1223.77,466.444 1224.29,466.284 1224.81,466.123 1225.34,465.814 1225.86,465.504 1226.38,465.127 1226.9,464.75 1227.42,464.536 1227.94,464.323 1228.47,464.066 1228.99,463.808 1229.51,463.388 1230.03,462.968 1230.55,462.695 1231.07,462.422 1231.6,462.243 1232.12,462.065 1232.64,461.906 1233.16,461.747 1233.68,461.218 1234.2,460.689 1234.73,460.383 1235.25,460.077 1235.77,459.675 1236.29,459.273 1236.81,459.071 1237.33,458.869 1237.86,458.492 1238.38,458.115 1238.9,457.921 1239.42,457.727 1239.94,457.338 1240.47,456.95 1240.99,456.483 1241.51,456.016 1242.03,455.662 1242.55,455.308 1243.07,455.051 1243.6,454.794 1244.12,454.484 1244.64,454.174 1245.16,453.803 1245.68,453.432 1246.2,453.13 1246.73,452.829 1247.25,452.517 1247.77,452.205 1248.29,451.754 1248.81,451.304 1249.33,451.124 1249.86,450.945 1250.38,450.996 1250.9,451.048 1251.42,450.586 1251.94,450.126 1252.46,449.765 1252.99,449.406 1253.51,448.987 1254.03,448.569 1254.55,448.503 1255.07,448.437 1255.59,448.111 1256.12,447.787 1256.64,447.362 1257.16,446.937 1257.68,446.668 1258.2,446.398 1258.73,445.931 1259.25,445.465 1259.77,445.209 1260.29,444.955 1260.81,444.768 1261.33,444.581 1261.86,444.313 1262.38,444.046 1262.9,443.801 1263.42,443.556 1263.94,443.253 1264.46,442.95 1264.99,442.627 1265.51,442.303 1266.03,442.001 1266.55,441.699 1267.07,441.207 1267.59,440.715 1268.12,440.471 1268.64,440.227 1269.16,440.027 1269.68,439.827 1270.2,439.319 1270.72,438.813 1271.25,438.495 1271.77,438.177 1272.29,437.86 1272.81,437.544 1273.33,437.119 1273.85,436.694 1274.38,436.418 1274.9,436.143 1275.42,435.665 1275.94,435.189 1276.46,435.176 1276.99,435.163 1277.51,434.715 1278.03,434.269 1278.55,433.978 1279.07,433.687 1279.59,433.418 1280.12,433.148 1280.64,433.088 1281.16,433.028 1281.68,432.541 1282.2,432.056 1282.72,431.67 1283.25,431.285 1283.77,431.022 1284.29,430.759 1284.81,430.626 1285.33,430.493 1285.85,430.187 1286.38,429.881 1286.9,429.36 1287.42,428.839 1287.94,428.51 1288.46,428.181 1288.98,427.908 1289.51,427.635 1290.03,427.262 1290.55,426.89 1291.07,426.433 1291.59,425.978 1292.11,425.529 1292.64,425.08 1293.16,424.767 1293.68,424.455 1294.2,423.993 1294.72,423.533 1295.24,423.157 1295.77,422.78 1296.29,422.266 1296.81,421.753 1297.33,421.728 1297.85,421.703 1298.38,421.398 1298.9,421.093 1299.42,420.789 1299.94,420.486 1300.46,420.268 1300.98,420.049 1301.51,419.689 1302.03,419.329 1302.55,419.095 1303.07,418.862 1303.59,418.498 1304.11,418.136 1304.64,418.126 1305.16,418.117 1305.68,417.864 1306.2,417.613 1306.72,417.326 1307.24,417.039 1307.77,416.639 1308.29,416.241 1308.81,415.809 1309.33,415.378 1309.85,415.196 1310.37,415.013 1310.9,414.755 1311.42,414.496 1311.94,414.269 1312.46,414.041 1312.98,413.702 1313.5,413.363 1314.03,412.918 1314.55,412.473 1315.07,412.21 1315.59,411.948 1316.11,411.642 1316.64,411.337 1317.16,411.228 1317.68,411.118 1318.2,410.596 1318.72,410.075 1319.24,409.684 1319.77,409.292 1320.29,409.097 1320.81,408.903 1321.33,408.719 1321.85,408.535 1322.37,408.156 1322.9,407.777 1323.42,407.256 1323.94,406.736 1324.46,406.46 1324.98,406.185 1325.5,406.019 1326.03,405.853 1326.55,405.668 1327.07,405.484 1327.59,405.251 1328.11,405.018 1328.63,404.528 1329.16,404.038 1329.68,403.942 1330.2,403.845 1330.72,403.533 1331.24,403.222 1331.76,402.927 1332.29,402.632 1332.81,402.355 1333.33,402.078 1333.85,402.131 1334.37,402.185 1334.9,402.006 1335.42,401.825 1335.94,401.513 1336.46,401.201 1336.98,400.796 1337.5,400.392 1338.03,400.278 1338.55,400.162 1339.07,400.003 1339.59,399.845 1340.11,399.593 1340.63,399.341 1341.16,399.006 1341.68,398.673 1342.2,398.275 1342.72,397.878 1343.24,397.811 1343.76,397.742 1344.29,397.395 1344.81,397.047 1345.33,396.867 1345.85,396.688 1346.37,396.36 1346.89,396.032 1347.42,395.703 1347.94,395.374 1348.46,395.209 1348.98,395.045 1349.5,394.659 1350.02,394.274 1350.55,393.92 1351.07,393.567 1351.59,393.26 1352.11,392.953 1352.63,392.737 1353.16,392.521 1353.68,392.2 1354.2,391.878 1354.72,391.862 1355.24,391.845 1355.76,391.401 1356.29,390.957 1356.81,390.628 1357.33,390.299 1357.85,390.039 1358.37,389.78 1358.89,389.434 1359.42,389.088 1359.94,389.011 1360.46,388.934 1360.98,388.725 1361.5,388.517 1362.02,388.418 1362.55,388.319 1363.07,388.116 1363.59,387.914 1364.11,387.646 1364.63,387.378 1365.15,387.027 1365.68,386.676 1366.2,386.327 1366.72,385.979 1367.24,385.562 1367.76,385.145 1368.28,384.933 1368.81,384.721 1369.33,384.472 1369.85,384.225 1370.37,383.847 1370.89,383.47 1371.41,383.378 1371.94,383.286 1372.46,382.945 1372.98,382.605 1373.5,382.392 1374.02,382.18 1374.55,381.796 1375.07,381.414 1375.59,380.936 1376.11,380.46 1376.63,380.313 1377.15,380.166 1377.68,379.826 1378.2,379.486 1378.72,379.2 1379.24,378.915 1379.76,378.561 1380.28,378.207 1380.81,377.841 1381.33,377.475 1381.85,377.602 1382.37,377.729 1382.89,377.29 1383.41,376.852 1383.94,376.561 1384.46,376.269 1384.98,376.057 1385.5,375.846 1386.02,375.578 1386.54,375.311 1387.07,374.99 1387.59,374.67 1388.11,374.372 1388.63,374.074 1389.15,373.693 1389.67,373.314 1390.2,373.123 1390.72,372.932 1391.24,372.801 1391.76,372.669 1392.28,372.449 1392.81,372.228 1393.33,371.817 1393.85,371.407 1394.37,371.324 1394.89,371.241 1395.41,371.188 1395.94,371.135 1396.46,370.811 1396.98,370.489 1397.5,370.297 1398.02,370.107 1398.54,369.854 1399.07,369.602 1399.59,369.263 1400.11,368.926 1400.63,368.616 1401.15,368.306 1401.67,368.157 1402.2,368.007 1402.72,367.733 1403.24,367.457 1403.76,367.039 1404.28,366.622 1404.8,366.465 1405.33,366.308 1405.85,366.235 1406.37,366.164 1406.89,365.973 1407.41,365.782 1407.93,365.716 1408.46,365.651 1408.98,365.574 1409.5,365.496 1410.02,365.246 1410.54,364.997 1411.07,364.666 1411.59,364.335 1412.11,364.037 1412.63,363.74 1413.15,363.596 1413.67,363.452 1414.2,363.51 1414.72,363.568 1415.24,363.389 1415.76,363.209 1416.28,362.864 1416.8,362.519 1417.33,362.356 1417.85,362.193 1418.37,361.89 1418.89,361.588 1419.41,361.274 1419.93,360.961 1420.46,360.459 1420.98,359.958 1421.5,359.768 1422.02,359.579 1422.54,359.237 1423.06,358.895 1423.59,358.813 1424.11,358.732 1424.63,358.394 1425.15,358.056 1425.67,357.633 1426.19,357.211 1426.72,356.833 1427.24,356.454 1427.76,356.281 1428.28,356.107 1428.8,355.811 1429.33,355.516 1429.85,355.335 1430.37,355.154 1430.89,354.785 1431.41,354.416 1431.93,353.975 1432.46,353.536 1432.98,353.226 1433.5,352.917 1434.02,352.447 1434.54,351.979 1435.06,351.712 1435.59,351.446 1436.11,351.417 1436.63,351.387 1437.15,351.189 1437.67,350.99 1438.19,350.784 1438.72,350.579 1439.24,350.262 1439.76,349.945 1440.28,349.535 1440.8,349.124 1441.32,349.07 1441.85,349.015 1442.37,348.899 1442.89,348.783 1443.41,348.473 1443.93,348.162 1444.45,347.962 1444.98,347.763 1445.5,347.645 1446.02,347.526 1446.54,347.24 1447.06,346.954 1447.58,346.745 1448.11,346.536 1448.63,346.601 1449.15,346.664 1449.67,346.302 1450.19,345.941 1450.72,345.671 1451.24,345.402 1451.76,345.067 1452.28,344.732 1452.8,344.43 1453.32,344.129 1453.85,343.851 1454.37,343.571 1454.89,343.392 1455.41,343.212 1455.93,343.127 1456.45,343.041 1456.98,342.798 1457.5,342.556 1458.02,342.296 1458.54,342.037 1459.06,341.837 1459.58,341.639 1460.11,341.352 1460.63,341.066 1461.15,341.031 1461.67,340.995 1462.19,340.864 1462.71,340.734 1463.24,340.414 1463.76,340.096 1464.28,339.724 1464.8,339.352 1465.32,339.257 1465.84,339.162 1466.37,339.106 1466.89,339.05 1467.41,338.646 1467.93,338.241 1468.45,338.035 1468.98,337.83 1469.5,337.671 1470.02,337.513 1470.54,337.56 1471.06,337.606 1471.58,337.298 1472.11,336.989 1472.63,337.022 1473.15,337.055 1473.67,336.768 1474.19,336.483 1474.71,336.475 1475.24,336.467 1475.76,336.287 1476.28,336.108 1476.8,336.042 1477.32,335.975 1477.84,335.684 1478.37,335.394 1478.89,335.171 1479.41,334.948 1479.93,334.738 1480.45,334.529 1480.97,334.405 1481.5,334.281 1482.02,334.247 1482.54,334.212 1483.06,333.857 1483.58,333.504 1484.1,333.284 1484.63,333.066 1485.15,332.748 1485.67,332.431 1486.19,332.08 1486.71,331.729 1487.24,331.666 1487.76,331.603 1488.28,331.25 1488.8,330.898 1489.32,330.623 1489.84,330.349 1490.37,329.873 1490.89,329.399 1491.41,329.067 1491.93,328.736 1492.45,328.421 1492.97,328.106 1493.5,327.765 1494.02,327.424 1494.54,327.052 1495.06,326.68 1495.58,326.404 1496.1,326.128 1496.63,325.982 1497.15,325.837 1497.67,325.575 1498.19,325.313 1498.71,325.122 1499.23,324.931 1499.76,324.844 1500.28,324.756 1500.8,324.642 1501.32,324.529 1501.84,324.338 1502.36,324.146 1502.89,323.868 1503.41,323.589 1503.93,323.693 1504.45,323.796 1504.97,323.654 1505.5,323.512 1506.02,323.016 1506.54,322.521 1507.06,322.201 1507.58,321.881 1508.1,321.594 1508.63,321.308 1509.15,321.142 1509.67,320.977 1510.19,320.691 1510.71,320.404 1511.23,320.177 1511.76,319.949 1512.28,319.684 1512.8,319.418 1513.32,319.011 1513.84,318.605 1514.36,318.24 1514.89,317.876 1515.41,317.703 1515.93,317.531 1516.45,317.148 1516.97,316.766 1517.49,316.481 1518.02,316.197 1518.54,316.109 1519.06,316.021 1519.58,315.763 1520.1,315.506 1520.62,315.312 1521.15,315.118 1521.67,314.7 1522.19,314.282 1522.71,314.111 1523.23,313.94 1523.75,313.759 1524.28,313.577 1524.8,313.342 1525.32,313.106 1525.84,313.016 1526.36,312.926 1526.89,312.72 1527.41,312.514 1527.93,312.25 1528.45,311.986 1528.97,311.878 1529.49,311.771 1530.02,311.702 1530.54,311.632 1531.06,311.394 1531.58,311.155 1532.1,310.994 1532.62,310.833 1533.15,310.604 1533.67,310.376 1534.19,310.052 1534.71,309.73 1535.23,309.352 1535.75,308.974 1536.28,309.008 1536.8,309.042 1537.32,308.566 1537.84,308.091 1538.36,308.157 1538.88,308.223 1539.41,308.325 1539.93,308.426 1540.45,308.196 1540.97,307.966 1541.49,307.924 1542.01,307.882 1542.54,307.7 1543.06,307.518 1543.58,307.139 1544.1,306.76 1544.62,306.626 1545.15,306.492 1545.67,306.334 1546.19,306.178 1546.71,306.284 1547.23,306.389 1547.75,306.259 1548.28,306.128 1548.8,305.782 1549.32,305.437 1549.84,305.384 1550.36,305.33 1550.88,305.203 1551.41,305.076 1551.93,304.769 1552.45,304.461 1552.97,304.302 1553.49,304.143 1554.01,303.939 1554.54,303.735 1555.06,303.483 1555.58,303.231 1556.1,302.959 1556.62,302.688 1557.14,302.444 1557.67,302.198 1558.19,302.079 1558.71,301.957 1559.23,301.949 1559.75,301.942 1560.27,301.737 1560.8,301.531 1561.32,301.534 1561.84,301.538 1562.36,301.307 1562.88,301.076 1563.41,300.819 1563.93,300.56 1564.45,300.47 1564.97,300.38 1565.49,300.22 1566.01,300.06 1566.54,299.622 1567.06,299.185 1567.58,298.944 1568.1,298.705 1568.62,298.536 1569.14,298.367 1569.67,298.052 1570.19,297.737 1570.71,297.422 1571.23,297.107 1571.75,297.055 1572.27,297.003 1572.8,296.648 1573.32,296.294 1573.84,295.822 1574.36,295.352 1574.88,295.448 1575.4,295.543 1575.93,295.144 1576.45,294.746 1576.97,294.423 1577.49,294.101 1578.01,293.751 1578.53,293.4 1579.06,293.107 1579.58,292.814 1580.1,292.547 1580.62,292.281 1581.14,292.335 1581.67,292.389 1582.19,292.218 1582.71,292.045 1583.23,292.06 1583.75,292.073 1584.27,291.835 1584.8,291.598 1585.32,291.348 1585.84,291.098 1586.36,290.998 1586.88,290.897 1587.4,290.687 1587.93,290.477 1588.45,290.114 1588.97,289.754 1589.49,289.41 1590.01,289.067 1590.53,288.666 1591.06,288.267 1591.58,287.907 1592.1,287.547 1592.62,287.609 1593.14,287.67 1593.66,287.567 1594.19,287.464 1594.71,287.156 1595.23,286.849 1595.75,286.722 1596.27,286.593 1596.79,286.036 1597.32,285.481 1597.84,285.414 1598.36,285.347 1598.88,285.24 1599.4,285.134 1599.92,284.88 1600.45,284.626 1600.97,284.95 1601.49,285.275 1602.01,285.146 1602.53,285.016 1603.06,284.698 1603.58,284.38 1604.1,284.202 1604.62,284.024 1605.14,284.127 1605.66,284.229 1606.19,284.286 1606.71,284.343 1607.23,283.94 1607.75,283.538 1608.27,283.522 1608.79,283.505 1609.32,283.285 1609.84,283.065 1610.36,282.727 1610.88,282.389 1611.4,282.203 1611.92,282.017 1612.45,281.655 1612.97,281.294 1613.49,281.552 1614.01,281.81 1614.53,281.584 1615.05,281.357 1615.58,281.052 1616.1,280.747 1616.62,280.771 1617.14,280.796 1617.66,280.581 1618.18,280.366 1618.71,280.387 1619.23,280.407 1619.75,280.292 1620.27,280.178 1620.79,280.044 1621.32,279.909 1621.84,279.524 1622.36,279.139 1622.88,278.945 1623.4,278.751 1623.92,278.534 1624.45,278.315 1624.97,278.025 1625.49,277.736 1626.01,277.569 1626.53,277.402 1627.05,277.125 1627.58,276.848 1628.1,276.563 1628.62,276.279 1629.14,275.966 1629.66,275.652 1630.18,275.49 1630.71,275.328 1631.23,275.132 1631.75,274.936 1632.27,274.684 1632.79,274.433 1633.31,274.231 1633.84,274.028 1634.36,273.775 1634.88,273.521 1635.4,273.375 1635.92,273.229 1636.44,273.163 1636.97,273.097 1637.49,272.868 1638.01,272.64 1638.53,272.332 1639.05,272.022 1639.58,271.613 1640.1,271.206 1640.62,270.732 1641.14,270.259 1641.66,270.121 1642.18,269.983 1642.71,269.786 1643.23,269.588 1643.75,269.551 1644.27,269.514 1644.79,269.615 1645.31,269.715 1645.84,269.534 1646.36,269.353 1646.88,269.136 1647.4,268.919 1647.92,268.843 1648.44,268.766 1648.97,268.471 1649.49,268.176 1650.01,268.044 1650.53,267.913 1651.05,267.669 1651.57,267.426 1652.1,267.06 1652.62,266.695 1653.14,266.566 1653.66,266.437 1654.18,266.144 1654.7,265.851 1655.23,265.852 1655.75,265.852 1656.27,265.628 1656.79,265.404 1657.31,265.485 1657.84,265.564 1658.36,265.793 1658.88,266.021 1659.4,266.006 1659.92,265.99 1660.44,265.663 1660.97,265.338 1661.49,265.236 1662.01,265.135 1662.53,264.989 1663.05,264.843 1663.57,264.784 1664.1,264.723 1664.62,264.776 1665.14,264.828 1665.66,264.722 1666.18,264.616 1666.7,264.51 1667.23,264.403 1667.75,264.24 1668.27,264.078 1668.79,263.919 1669.31,263.759 1669.83,263.655 1670.36,263.551 1670.88,263.344 1671.4,263.137 1671.92,262.724 1672.44,262.312 1672.96,262.09 1673.49,261.868 1674.01,261.708 1674.53,261.548 1675.05,261.102 1675.57,260.658 1676.09,260.467 1676.62,260.278 1677.14,260.032 1677.66,259.786 1678.18,259.504 1678.7,259.223 1679.23,258.985 1679.75,258.748 1680.27,258.74 1680.79,258.733 1681.31,258.753 1681.83,258.772 1682.36,258.581 1682.88,258.39 1683.4,258.052 1683.92,257.714 1684.44,257.297 1684.96,256.882 1685.49,256.447 1686.01,256.014 1686.53,255.886 1687.05,255.758 1687.57,255.676 1688.09,255.593 1688.62,255.459 1689.14,255.325 1689.66,254.924 1690.18,254.524 1690.7,254.544 1691.22,254.564 1691.75,254.397 1692.27,254.231 1692.79,254.241 1693.31,254.25 1693.83,254.145 1694.35,254.04 1694.88,253.858 1695.4,253.677 1695.92,253.375 1696.44,253.072 1696.96,252.994 1697.49,252.915 1698.01,252.502 1698.53,252.091 1699.05,251.798 1699.57,251.504 1700.09,251.472 1700.62,251.44 1701.14,251.297 1701.66,251.155 1702.18,251.112 1702.7,251.068 1703.22,250.917 1703.75,250.765 1704.27,250.567 1704.79,250.37 1705.31,249.975 1705.83,249.58 1706.35,249.337 1706.88,249.095 1707.4,248.644 1707.92,248.195 1708.44,247.807 1708.96,247.422 1709.48,247.293 1710.01,247.163 1710.53,246.933 1711.05,246.704 1711.57,246.606 1712.09,246.509 1712.61,246.546 1713.14,246.583 1713.66,246.15 1714.18,245.719 1714.7,245.487 1715.22,245.256 1715.75,245.245 1716.27,245.234 1716.79,245.077 1717.31,244.921 1717.83,244.994 1718.35,245.066 1718.88,245.019 1719.4,244.971 1719.92,244.721 1720.44,244.472 1720.96,244.406 1721.48,244.338 1722.01,244.061 1722.53,243.784 1723.05,243.613 1723.57,243.442 1724.09,243.076 1724.61,242.71 1725.14,242.657 1725.66,242.605 1726.18,242.279 1726.7,241.953 1727.22,242.022 1727.74,242.091 1728.27,241.804 1728.79,241.517 1729.31,241.846 1729.83,242.174 1730.35,242.163 1730.87,242.152 1731.4,241.903 1731.92,241.655 1732.44,241.416 1732.96,241.178 1733.48,241.025 1734.01,240.872 1734.53,240.621 1735.05,240.369 1735.57,240.293 1736.09,240.216 1736.61,240.173 1737.14,240.13 1737.66,239.892 1738.18,239.654 1738.7,239.378 1739.22,239.103 1739.74,238.744 1740.27,238.386 1740.79,238.082 1741.31,237.779 1741.83,237.494 1742.35,237.21 1742.87,237.068 1743.4,236.927 1743.92,237.031 1744.44,237.136 1744.96,237.01 1745.48,236.883 1746,236.749 1746.53,236.616 1747.05,236.488 1747.57,236.361 1748.09,236.063 1748.61,235.764 1749.13,235.617 1749.66,235.47 1750.18,234.915 1750.7,234.362 1751.22,233.972 1751.74,233.582 1752.26,233.386 1752.79,233.189 1753.31,233.002 1753.83,232.816 1754.35,232.828 1754.87,232.84 1755.4,232.674 1755.92,232.506 1756.44,232.614 1756.96,232.721 1757.48,232.366 1758,232.012 1758.53,232.096 1759.05,232.181 1759.57,232.279 1760.09,232.377 1760.61,232.236 1761.13,232.094 1761.66,231.939 1762.18,231.785 1762.7,231.57 1763.22,231.357 1763.74,231.199 1764.26,231.041 1764.79,231.125 1765.31,231.207 1765.83,230.803 1766.35,230.4 1766.87,230.286 1767.39,230.172 1767.92,229.741 1768.44,229.31 1768.96,229.145 1769.48,228.98 1770,228.747 1770.52,228.514 1771.05,228.376 1771.57,228.238 1772.09,228.066 1772.61,227.895 1773.13,227.77 1773.66,227.645 1774.18,227.601 1774.7,227.557 1775.22,227.32 1775.74,227.082 1776.26,226.75 1776.79,226.419 1777.31,226.472 1777.83,226.524 1778.35,226.298 1778.87,226.073 1779.39,225.845 1779.92,225.617 1780.44,225.647 1780.96,225.676 1781.48,225.913 1782,226.148 1782.52,225.787 1783.05,225.428 1783.57,225.615 1784.09,225.801 1784.61,225.681 1785.13,225.562 1785.65,225.312 1786.18,225.063 1786.7,224.998 1787.22,224.932 1787.74,224.908 1788.26,224.884 1788.78,224.537 1789.31,224.192 1789.83,224.034 1790.35,223.877 1790.87,223.664 1791.39,223.451 1791.92,223.445 1792.44,223.439 1792.96,223.373 1793.48,223.307 1794,223.093 1794.52,222.88 1795.05,222.551 1795.57,222.224 1796.09,222.09 1796.61,221.955 1797.13,221.722 1797.65,221.489 1798.18,221.47 1798.7,221.452 1799.22,221.452 1799.74,221.452 1800.26,221.225 1800.78,221 1801.31,220.817 1801.83,220.633 1802.35,220.373 1802.87,220.112 1803.39,219.76 1803.91,219.41 1804.44,219.162 1804.96,218.914 1805.48,218.818 1806,218.722 1806.52,218.485 1807.04,218.249 1807.57,217.906 1808.09,217.564 1808.61,217.616 1809.13,217.667 1809.65,217.46 1810.18,217.255 1810.7,217.261 1811.22,217.266 1811.74,217.024 1812.26,216.781 1812.78,216.633 1813.31,216.484 1813.83,216.118 1814.35,215.753 1814.87,215.355 1815.39,214.957 1815.91,214.753 1816.44,214.549 1816.96,214.416 1817.48,214.281 1818,214.251 1818.52,214.221 1819.04,214.018 1819.57,213.817 1820.09,213.745 1820.61,213.673 1821.13,213.475 1821.65,213.278 1822.17,213.23 1822.7,213.183 1823.22,213.145 1823.74,213.107 1824.26,212.911 1824.78,212.714 1825.3,212.524 1825.83,212.334 1826.35,212.291 1826.87,212.248 1827.39,212.023 1827.91,211.797 1828.43,211.788 1828.96,211.779 1829.48,211.569 1830,211.359 1830.52,211.103 1831.04,210.849 1831.57,210.616 1832.09,210.383 1832.61,210.376 1833.13,210.368 1833.65,210.11 1834.17,209.853 1834.7,209.515 1835.22,209.179 1835.74,209.037 1836.26,208.894 1836.78,208.648 1837.3,208.401 1837.83,208.504 1838.35,208.607 1838.87,208.335 1839.39,208.066 1839.91,207.837 1840.43,207.609 1840.96,207.462 1841.48,207.316 1842,207.171 1842.52,207.026 1843.04,206.918 1843.56,206.81 1844.09,206.733 1844.61,206.657 1845.13,206.376 1845.65,206.097 1846.17,205.76 1846.69,205.424 1847.22,205.231 1847.74,205.037 1848.26,204.583 1848.78,204.132 1849.3,203.871 1849.83,203.611 1850.35,203.287 1850.87,202.965 1851.39,202.711 1851.91,202.457 1852.43,202.171 1852.96,201.886 1853.48,201.898 1854,201.91 1854.52,201.635 1855.04,201.363 1855.56,201.233 1856.09,201.104 1856.61,200.858 1857.13,200.611 1857.65,200.198 1858.17,199.785 1858.69,199.429 1859.22,199.075 1859.74,198.914 1860.26,198.752 1860.78,198.414 1861.3,198.078 1861.82,197.882 1862.35,197.686 1862.87,197.746 1863.39,197.804 1863.91,197.937 1864.43,198.069 1864.95,197.94 1865.48,197.811 1866,197.591 1866.52,197.37 1867.04,197.207 1867.56,197.043 1868.09,197.009 1868.61,196.973 1869.13,196.743 1869.65,196.514 1870.17,196.586 1870.69,196.657 1871.22,196.345 1871.74,196.035 1872.26,196.029 1872.78,196.023 1873.3,195.674 1873.82,195.327 1874.35,195.117 1874.87,194.907 1875.39,194.574 1875.91,194.241 1876.43,193.902 1876.95,193.565 1877.48,193.212 1878,192.861 1878.52,192.749 1879.04,192.637 1879.56,192.23 1880.08,191.826 1880.61,191.528 1881.13,191.23 1881.65,191.455 1882.17,191.681 1882.69,191.204 1883.21,190.728 1883.74,190.575 1884.26,190.423 1884.78,189.957 1885.3,189.493 1885.82,189.416 1886.35,189.339 1886.87,189.171 1887.39,189.004 1887.91,188.923 1888.43,188.84 1888.95,188.799 1889.48,188.757 1890,188.49 1890.52,188.224 1891.04,188.061 1891.56,187.898 1892.08,187.804 1892.61,187.71 1893.13,187.41 1893.65,187.109 1894.17,187.024 1894.69,186.939 1895.21,186.954 1895.74,186.968 1896.26,187.141 1896.78,187.314 1897.3,186.926 1897.82,186.54 1898.34,186.326 1898.87,186.111 1899.39,185.884 1899.91,185.657 1900.43,185.321 1900.95,184.987 1901.47,184.628 1902,184.271 1902.52,184.281 1903.04,184.29 1903.56,184.204 1904.08,184.117 1904.6,183.845 1905.13,183.575 1905.65,183.42 1906.17,183.264 1906.69,183.244 1907.21,183.224 1907.74,183.043 1908.26,182.862 1908.78,183.036 1909.3,183.209 1909.82,182.808 1910.34,182.409 1910.87,181.959 1911.39,181.511 1911.91,181.311 1912.43,181.112 1912.95,180.875 1913.47,180.639 1914,180.409 1914.52,180.181 1915.04,180.239 1915.56,180.296 1916.08,180.579 1916.6,180.861 1917.13,180.794 1917.65,180.727 1918.17,180.883 1918.69,181.039 1919.21,180.753 1919.73,180.468 1920.26,180.32 1920.78,180.173 1921.3,179.969 1921.82,179.766 1922.34,180.034 1922.86,180.301 1923.39,180.025 1923.91,179.749 1924.43,179.657 1924.95,179.566 1925.47,179.329 1926,179.093 1926.52,178.713 1927.04,178.334 1927.56,178.28 1928.08,178.226 1928.6,178.232 1929.13,178.238 1929.65,178.008 1930.17,177.78 1930.69,177.368 1931.21,176.957 1931.73,176.831 1932.26,176.704 1932.78,176.576 1933.3,176.447 1933.82,176.144 1934.34,175.842 1934.86,175.491 1935.39,175.142 1935.91,175.139 1936.43,175.136 1936.95,174.801 1937.47,174.466 1937.99,174.347 1938.52,174.227 1939.04,173.912 1939.56,173.598 1940.08,173.212 1940.6,172.828 1941.12,172.706 1941.65,172.584 1942.17,172.377 1942.69,172.17 1943.21,172.059 1943.73,171.947 1944.26,171.87 1944.78,171.793 1945.3,171.726 1945.82,171.657 1946.34,171.263 1946.86,170.871 1947.39,170.696 1947.91,170.521 1948.43,170.525 1948.95,170.529 1949.47,170.215 1949.99,169.9 1950.52,170.006 1951.04,170.111 1951.56,170.205 1952.08,170.298 1952.6,170.108 1953.12,169.919 1953.65,169.529 1954.17,169.14 1954.69,168.782 1955.21,168.425 1955.73,168.041 1956.25,167.658 1956.78,167.448 1957.3,167.238 1957.82,166.649 1958.34,166.063 1958.86,165.714 1959.38,165.368 1959.91,165.226 1960.43,165.084 1960.95,164.976 1961.47,164.868 1961.99,164.939 1962.52,165.01 1963.04,164.905 1963.56,164.8 1964.08,164.706 1964.6,164.611 1965.12,164.692 1965.65,164.772 1966.17,164.427 1966.69,164.082 1967.21,163.725 1967.73,163.369 1968.25,163.53 1968.78,163.691 1969.3,163.829 1969.82,163.966 1970.34,163.926 1970.86,163.885 1971.38,163.792 1971.91,163.699 1972.43,163.389 1972.95,163.081 1973.47,162.648 1973.99,162.216 1974.51,162.069 1975.04,161.923 1975.56,161.53 1976.08,161.139 1976.6,161.197 1977.12,161.254 1977.64,161.039 1978.17,160.824 1978.69,160.669 1979.21,160.516 1979.73,160.372 1980.25,160.227 1980.78,160.132 1981.3,160.036 1981.82,159.678 1982.34,159.321 1982.86,159.275 1983.38,159.228 1983.91,158.914 1984.43,158.6 1984.95,158.309 1985.47,158.02 1985.99,157.9 1986.51,157.781 1987.04,157.477 1987.56,157.175 1988.08,157.04 1988.6,156.906 1989.12,157.072 1989.64,157.236 1990.17,156.892 1990.69,156.549 1991.21,156.435 1991.73,156.32 1992.25,156.263 1992.77,156.206 1993.3,156.004 1993.82,155.803 1994.34,155.644 1994.86,155.487 1995.38,155.547 1995.9,155.606 1996.43,155.58 1996.95,155.553 1997.47,155.207 1997.99,154.863 1998.51,154.797 1999.03,154.731 1999.56,154.598 2000.08,154.466 2000.6,154.675 2001.12,154.885 2001.64,154.644 2002.17,154.403 2002.69,154.447 2003.21,154.488 2003.73,154.237 2004.25,153.986 2004.77,153.84 2005.3,153.695 2005.82,153.421 2006.34,153.149 2006.86,153.112 2007.38,153.076 2007.9,152.724 2008.43,152.372 2008.95,152.353 2009.47,152.335 2009.99,152.078 2010.51,151.823 2011.03,151.6 2011.56,151.378 2012.08,151.087 2012.6,150.796 2013.12,150.972 2013.64,151.148 2014.16,151.181 2014.69,151.214 2015.21,151.044 2015.73,150.875 2016.25,151.09 2016.77,151.303 2017.29,151.44 2017.82,151.574 2018.34,151.499 2018.86,151.423 2019.38,151.166 2019.9,150.911 2020.43,150.892 2020.95,150.873 2021.47,150.75 2021.99,150.628 2022.51,150.778 2023.03,150.929 2023.56,150.793 2024.08,150.655 2024.6,150.45 2025.12,150.245 2025.64,149.963 2026.16,149.683 2026.69,149.43 2027.21,149.177 2027.73,149.085 2028.25,148.993 2028.77,149.077 2029.29,149.159 2029.82,148.787 2030.34,148.416 2030.86,148.195 2031.38,147.976 2031.9,147.993 2032.42,148.009 2032.95,147.866 2033.47,147.723 2033.99,147.437 2034.51,147.151 2035.03,146.931 2035.55,146.713 2036.08,146.735 2036.6,146.759 2037.12,146.408 2037.64,146.058 2038.16,145.911 2038.69,145.762 2039.21,145.435 2039.73,145.109 2040.25,145.087 2040.77,145.066 2041.29,144.845 2041.82,144.625 2042.34,144.521 2042.86,144.416 2043.38,144.347 2043.9,144.278 2044.42,144.197 2044.95,144.115 2045.47,143.991 2045.99,143.866 2046.51,143.613 2047.03,143.359 2047.55,143.14 2048.08,142.922 2048.6,142.807 2049.12,142.693 2049.64,142.335 2050.16,141.98 2050.68,141.804 2051.21,141.628 2051.73,141.61 2052.25,141.592 2052.77,141.39 2053.29,141.189 2053.81,140.995 2054.34,140.801 2054.86,140.427 2055.38,140.053 2055.9,139.766 2056.42,139.48 2056.95,139.353 2057.47,139.225 2057.99,138.968 2058.51,138.711 2059.03,138.46 2059.55,138.208 2060.08,137.992 2060.6,137.775 2061.12,138.087 2061.64,138.399 2062.16,138.231 2062.68,138.062 2063.21,138.269 2063.73,138.473 2064.25,138.456 2064.77,138.439 2065.29,138.255 2065.81,138.073 2066.34,137.803 2066.86,137.534 2067.38,137.18 2067.9,136.826 2068.42,137.001 2068.94,137.175 2069.47,136.953 2069.99,136.731 2070.51,136.7 2071.03,136.669 2071.55,136.331 2072.07,135.995 2072.6,135.597 2073.12,135.202 2073.64,135.056 2074.16,134.91 2074.68,134.613 2075.2,134.319 2075.73,133.994 2076.25,133.67 2076.77,133.404 2077.29,133.138 2077.81,133.051 2078.34,132.964 2078.86,132.952 2079.38,132.94 2079.9,132.526 2080.42,132.114 2080.94,131.75 2081.47,131.388 2081.99,131.532 2082.51,131.674 2083.03,131.556 2083.55,131.439 2084.07,131.243 2084.6,131.048 2085.12,131.081 2085.64,131.114 2086.16,131.004 2086.68,130.893 2087.2,130.719 2087.73,130.544 2088.25,130.355 2088.77,130.166 2089.29,130.079 2089.81,129.991 2090.33,129.472 2090.86,128.954 2091.38,128.911 2091.9,128.867 2092.42,128.446 2092.94,128.029 2093.46,127.879 2093.99,127.732 2094.51,127.77 2095.03,127.808 2095.55,127.534 2096.07,127.261 2096.6,127.321 2097.12,127.38 2097.64,127.494 2098.16,127.606 2098.68,127.613 2099.2,127.617 2099.73,127.45 2100.25,127.283 2100.77,126.773 2101.29,126.266 2101.81,126.031 2102.33,125.796 2102.86,125.413 2103.38,125.031 2103.9,124.964 2104.42,124.897 2104.94,124.611 2105.46,124.326 2105.99,124.062 2106.51,123.799 2107.03,123.395 2107.55,122.992 2108.07,122.973 2108.59,122.953 2109.12,123.006 2109.64,123.058 2110.16,122.938 2110.68,122.817 2111.2,122.487 2111.72,122.158 2112.25,121.802 2112.77,121.448 2113.29,121.282 2113.81,121.115 2114.33,121.052 2114.86,120.987 2115.38,120.973 2115.9,120.958 2116.42,121.247 2116.94,121.534 2117.46,121.559 2117.99,121.582 2118.51,121.329 2119.03,121.074 2119.55,120.983 2120.07,120.894 2120.59,120.61 2121.12,120.327 2121.64,120.214 2122.16,120.101 2122.68,119.915 2123.2,119.727 2123.72,119.677 2124.25,119.627 2124.77,119.555 2125.29,119.483 2125.81,119.475 2126.33,119.465 2126.85,119.185 2127.38,118.906 2127.9,118.989 2128.42,119.069 2128.94,118.727 2129.46,118.386 2129.98,117.947 2130.51,117.512 2131.03,117.298 2131.55,117.085 2132.07,117.028 2132.59,116.972 2133.12,116.991 2133.64,117.008 2134.16,117.038 2134.68,117.067 2135.2,116.958 2135.72,116.849 2136.25,116.682 2136.77,116.517 2137.29,116.201 2137.81,115.887 2138.33,115.871 2138.85,115.856 2139.38,115.77 2139.9,115.683 2140.42,115.673 2140.94,115.663 2141.46,115.718 2141.98,115.772 2142.51,115.524 2143.03,115.276 2143.55,115.006 2144.07,114.737 2144.59,114.346 2145.11,113.957 2145.64,114.151 2146.16,114.343 2146.68,114.21 2147.2,114.077 2147.72,113.666 2148.24,113.257 2148.77,113.103 2149.29,112.95 2149.81,112.941 2150.33,112.93 2150.85,112.835 2151.37,112.738 2151.9,112.64 2152.42,112.542 2152.94,112.44 2153.46,112.339 2153.98,112.314 2154.51,112.288 2155.03,112.157 2155.55,112.027 2156.07,111.898 2156.59,111.768 2157.11,111.564 2157.64,111.362 2158.16,111.215 2158.68,111.069 2159.2,110.946 2159.72,110.822 2160.24,110.79 2160.77,110.757 2161.29,110.797 2161.81,110.836 2162.33,110.542 2162.85,110.247 2163.37,110.304 2163.9,110.36 2164.42,110.317 2164.94,110.274 2165.46,110.185 2165.98,110.094 2166.5,109.883 2167.03,109.673 2167.55,109.6 2168.07,109.528 2168.59,109.564 2169.11,109.598 2169.63,109.421 2170.16,109.244 2170.68,108.855 2171.2,108.467 2171.72,108.385 2172.24,108.301 2172.77,108.47 2173.29,108.638 2173.81,109.158 2174.33,109.676 2174.85,109.502 2175.37,109.328 2175.9,109.245 2176.42,109.162 2176.94,109.184 2177.46,109.207 2177.98,109.037 2178.5,108.865 2179.03,108.972 2179.55,109.078 2180.07,108.817 2180.59,108.558 2181.11,108.222 2181.63,107.887 2182.16,107.628 2182.68,107.37 2183.2,107.387 2183.72,107.406 2184.24,107.24 2184.76,107.074 2185.29,106.828 2185.81,106.582 2186.33,106.717 2186.85,106.85 2187.37,106.996 2187.89,107.142 2188.42,106.841 2188.94,106.542 2189.46,106.345 2189.98,106.149 2190.5,106.047 2191.03,105.945 2191.55,105.854 2192.07,105.761 2192.59,105.581 2193.11,105.401 2193.63,105.044 2194.16,104.69 2194.68,104.551 2195.2,104.411 2195.72,104.056 2196.24,103.703 2196.76,103.871 2197.29,104.039 2197.81,103.76 2198.33,103.482 2198.85,103.216 2199.37,102.951 2199.89,103.038 2200.42,103.124 2200.94,102.912 2201.46,102.701 2201.98,102.382 2202.5,102.064 2203.02,101.9 2203.55,101.738 2204.07,101.694 2204.59,101.649 2205.11,101.181 2205.63,100.717 2206.15,100.614 2206.68,100.511 2207.2,100.353 2207.72,100.194 2208.24,100.081 2208.76,99.9685 2209.29,99.7467 2209.81,99.5258 2210.33,100.315 2210.85,101.102 2211.37,100.871 2211.89,100.641 2212.42,100.728 2212.94,100.815 2213.46,100.575 2213.98,100.336 2214.5,100.246 2215.02,100.155 2215.55,99.9274 2216.07,99.6997 2216.59,99.6123 2217.11,99.5259 2217.63,99.4998 2218.15,99.4743 2218.68,99.3336 2219.2,99.1919 2219.72,99.2684 2220.24,99.3436 2220.76,99.1993 2221.28,99.0555 2221.81,98.8295 2222.33,98.6035 2222.85,98.3567 2223.37,98.1096 2223.89,97.9424 2224.41,97.7741 2224.94,97.4634 2225.46,97.1533 2225.98,97.2175 2226.5,97.2807 2227.02,97.2106 2227.54,97.142 2228.07,96.999 2228.59,96.8551 2229.11,97.0111 2229.63,97.1651 2230.15,96.9056 2230.68,96.6477 2231.2,96.7062 2231.72,96.7636 2232.24,96.791 2232.76,96.8176 2233.28,96.5326 2233.81,96.2473 2234.33,95.9613 2234.85,95.6769 2235.37,95.591 2235.89,95.5058 2236.41,95.4634 2236.94,95.42 2237.46,95.3684 2237.98,95.3171 2238.5,95.3028 2239.02,95.2886 2239.54,95.3169 2240.07,95.3449 2240.59,95.1465 2241.11,94.9501 2241.63,94.5472 2242.15,94.1471 2242.67,94.0827 2243.2,94.0172 2243.72,94.2359 2244.24,94.4543 2244.76,94.4403 2245.28,94.4268 2245.8,94.1452 2246.33,93.8641 2246.85,93.8409 2247.37,93.8164 2247.89,93.6163 2248.41,93.4181 2248.94,93.279 2249.46,93.1403 2249.98,92.9423 2250.5,92.7451 2251.02,92.7593 2251.54,92.773 2252.07,92.6092 2252.59,92.4458 2253.11,92.5341 2253.63,92.6209 2254.15,92.4572 2254.67,92.2946 2255.2,92.5726 2255.72,92.8498 2256.24,92.7495 2256.76,92.6488 2257.28,92.2954 2257.8,91.944 2258.33,91.5824 2258.85,91.2224 2259.37,91.0708 2259.89,90.9193 2260.41,90.7506 2260.93,90.5824 2261.46,90.5604 2261.98,90.5378 2262.5,90.4535 2263.02,90.3686 2263.54,90.2901 2264.06,90.2098 2264.59,89.8932 2265.11,89.5764 2265.63,89.4737 2266.15,89.3725 2266.67,89.4835 2267.2,89.5933 2267.72,89.4768 2268.24,89.3593 2268.76,89.3962 2269.28,89.4323 2269.8,89.2275 2270.33,89.0243 2270.85,88.8727 2271.37,88.7201 2271.89,88.7613 2272.41,88.8011 2272.93,88.6585 2273.46,88.5174 2273.98,88.4676 2274.5,88.418 2275.02,88.4425 2275.54,88.4675 2276.06,88.2429 2276.59,88.0188 2277.11,87.9979 2277.63,87.9763 2278.15,88.4747 2278.67,88.9698 2279.19,88.8859 2279.72,88.8027 2280.24,89.0234 2280.76,89.243 2281.28,89.2322 2281.8,89.2222 2282.32,88.9624 2282.85,88.7033 2283.37,88.5767 2283.89,88.4474 2284.41,88.4295 2284.93,88.4111 2285.46,88.3306 2285.98,88.2509 2286.5,88.3325 2287.02,88.4141 2287.54,88.4211 2288.06,88.4274 2288.59,88.407 2289.11,88.3855 2289.63,88.5065 2290.15,88.6254 "/>
<path clip-path="url(#clip210)" d="M214.431 198.898 L488.067 198.898 L488.067 95.2176 L214.431 95.2176  Z" fill="#ffffff" fill-rule="evenodd" fill-opacity="1"/>
<polyline clip-path="url(#clip210)" style="stroke:#000000; stroke-linecap:round; stroke-linejoin:round; stroke-width:4; stroke-opacity:1; fill:none" points="214.431,198.898 488.067,198.898 488.067,95.2176 214.431,95.2176 214.431,198.898 "/>
<polyline clip-path="url(#clip210)" style="stroke:#009af9; stroke-linecap:round; stroke-linejoin:round; stroke-width:4; stroke-opacity:1; fill:none" points="239.009,147.058 386.48,147.058 "/>
<path clip-path="url(#clip210)" d="M424.901 166.745 Q423.095 171.375 421.382 172.787 Q419.67 174.199 416.799 174.199 L413.396 174.199 L413.396 170.634 L415.896 170.634 Q417.656 170.634 418.628 169.8 Q419.6 168.967 420.781 165.865 L421.545 163.921 L411.058 138.412 L415.572 138.412 L423.674 158.689 L431.776 138.412 L436.29 138.412 L424.901 166.745 Z" fill="#000000" fill-rule="nonzero" fill-opacity="1" /><path clip-path="url(#clip210)" d="M443.581 160.402 L451.22 160.402 L451.22 134.037 L442.91 135.703 L442.91 131.444 L451.174 129.778 L455.85 129.778 L455.85 160.402 L463.489 160.402 L463.489 164.338 L443.581 164.338 L443.581 160.402 Z" fill="#000000" fill-rule="nonzero" fill-opacity="1" /></svg>
