<?xml version="1.0" encoding="utf-8"?>
<svg xmlns="http://www.w3.org/2000/svg" xmlns:xlink="http://www.w3.org/1999/xlink" width="600" height="400" viewBox="0 0 2400 1600">
<defs>
  <clipPath id="clip310">
    <rect x="0" y="0" width="2400" height="1600"/>
  </clipPath>
</defs>
<path clip-path="url(#clip310)" d="M0 1600 L2400 1600 L2400 0 L0 0  Z" fill="#ffffff" fill-rule="evenodd" fill-opacity="1"/>
<defs>
  <clipPath id="clip311">
    <rect x="480" y="0" width="1681" height="1600"/>
  </clipPath>
</defs>
<path clip-path="url(#clip310)" d="M156.251 1486.45 L2352.76 1486.45 L2352.76 47.2441 L156.251 47.2441  Z" fill="#ffffff" fill-rule="evenodd" fill-opacity="1"/>
<defs>
  <clipPath id="clip312">
    <rect x="156" y="47" width="2198" height="1440"/>
  </clipPath>
</defs>
<polyline clip-path="url(#clip312)" style="stroke:#000000; stroke-linecap:round; stroke-linejoin:round; stroke-width:2; stroke-opacity:0.1; fill:none" points="218.416,1486.45 218.416,47.2441 "/>
<polyline clip-path="url(#clip312)" style="stroke:#000000; stroke-linecap:round; stroke-linejoin:round; stroke-width:2; stroke-opacity:0.1; fill:none" points="736.46,1486.45 736.46,47.2441 "/>
<polyline clip-path="url(#clip312)" style="stroke:#000000; stroke-linecap:round; stroke-linejoin:round; stroke-width:2; stroke-opacity:0.1; fill:none" points="1254.5,1486.45 1254.5,47.2441 "/>
<polyline clip-path="url(#clip312)" style="stroke:#000000; stroke-linecap:round; stroke-linejoin:round; stroke-width:2; stroke-opacity:0.1; fill:none" points="1772.55,1486.45 1772.55,47.2441 "/>
<polyline clip-path="url(#clip312)" style="stroke:#000000; stroke-linecap:round; stroke-linejoin:round; stroke-width:2; stroke-opacity:0.1; fill:none" points="2290.59,1486.45 2290.59,47.2441 "/>
<polyline clip-path="url(#clip310)" style="stroke:#000000; stroke-linecap:round; stroke-linejoin:round; stroke-width:4; stroke-opacity:1; fill:none" points="156.251,1486.45 2352.76,1486.45 "/>
<polyline clip-path="url(#clip310)" style="stroke:#000000; stroke-linecap:round; stroke-linejoin:round; stroke-width:4; stroke-opacity:1; fill:none" points="218.416,1486.45 218.416,1467.55 "/>
<polyline clip-path="url(#clip310)" style="stroke:#000000; stroke-linecap:round; stroke-linejoin:round; stroke-width:4; stroke-opacity:1; fill:none" points="736.46,1486.45 736.46,1467.55 "/>
<polyline clip-path="url(#clip310)" style="stroke:#000000; stroke-linecap:round; stroke-linejoin:round; stroke-width:4; stroke-opacity:1; fill:none" points="1254.5,1486.45 1254.5,1467.55 "/>
<polyline clip-path="url(#clip310)" style="stroke:#000000; stroke-linecap:round; stroke-linejoin:round; stroke-width:4; stroke-opacity:1; fill:none" points="1772.55,1486.45 1772.55,1467.55 "/>
<polyline clip-path="url(#clip310)" style="stroke:#000000; stroke-linecap:round; stroke-linejoin:round; stroke-width:4; stroke-opacity:1; fill:none" points="2290.59,1486.45 2290.59,1467.55 "/>
<path clip-path="url(#clip310)" d="M218.416 1517.37 Q214.805 1517.37 212.976 1520.93 Q211.171 1524.47 211.171 1531.6 Q211.171 1538.71 212.976 1542.27 Q214.805 1545.82 218.416 1545.82 Q222.05 1545.82 223.856 1542.27 Q225.685 1538.71 225.685 1531.6 Q225.685 1524.47 223.856 1520.93 Q222.05 1517.37 218.416 1517.37 M218.416 1513.66 Q224.226 1513.66 227.282 1518.27 Q230.361 1522.85 230.361 1531.6 Q230.361 1540.33 227.282 1544.94 Q224.226 1549.52 218.416 1549.52 Q212.606 1549.52 209.527 1544.94 Q206.472 1540.33 206.472 1531.6 Q206.472 1522.85 209.527 1518.27 Q212.606 1513.66 218.416 1513.66 Z" fill="#000000" fill-rule="nonzero" fill-opacity="1" /><path clip-path="url(#clip310)" d="M696.078 1514.29 L714.435 1514.29 L714.435 1518.22 L700.361 1518.22 L700.361 1526.7 Q701.379 1526.35 702.398 1526.19 Q703.416 1526 704.435 1526 Q710.222 1526 713.601 1529.17 Q716.981 1532.34 716.981 1537.76 Q716.981 1543.34 713.509 1546.44 Q710.036 1549.52 703.717 1549.52 Q701.541 1549.52 699.273 1549.15 Q697.027 1548.78 694.62 1548.04 L694.62 1543.34 Q696.703 1544.47 698.925 1545.03 Q701.148 1545.58 703.624 1545.58 Q707.629 1545.58 709.967 1543.48 Q712.305 1541.37 712.305 1537.76 Q712.305 1534.15 709.967 1532.04 Q707.629 1529.94 703.624 1529.94 Q701.749 1529.94 699.874 1530.35 Q698.023 1530.77 696.078 1531.65 L696.078 1514.29 Z" fill="#000000" fill-rule="nonzero" fill-opacity="1" /><path clip-path="url(#clip310)" d="M736.194 1517.37 Q732.583 1517.37 730.754 1520.93 Q728.948 1524.47 728.948 1531.6 Q728.948 1538.71 730.754 1542.27 Q732.583 1545.82 736.194 1545.82 Q739.828 1545.82 741.633 1542.27 Q743.462 1538.71 743.462 1531.6 Q743.462 1524.47 741.633 1520.93 Q739.828 1517.37 736.194 1517.37 M736.194 1513.66 Q742.004 1513.66 745.059 1518.27 Q748.138 1522.85 748.138 1531.6 Q748.138 1540.33 745.059 1544.94 Q742.004 1549.52 736.194 1549.52 Q730.383 1549.52 727.305 1544.94 Q724.249 1540.33 724.249 1531.6 Q724.249 1522.85 727.305 1518.27 Q730.383 1513.66 736.194 1513.66 Z" fill="#000000" fill-rule="nonzero" fill-opacity="1" /><path clip-path="url(#clip310)" d="M766.356 1517.37 Q762.744 1517.37 760.916 1520.93 Q759.11 1524.47 759.11 1531.6 Q759.11 1538.71 760.916 1542.27 Q762.744 1545.82 766.356 1545.82 Q769.99 1545.82 771.795 1542.27 Q773.624 1538.71 773.624 1531.6 Q773.624 1524.47 771.795 1520.93 Q769.99 1517.37 766.356 1517.37 M766.356 1513.66 Q772.166 1513.66 775.221 1518.27 Q778.3 1522.85 778.3 1531.6 Q778.3 1540.33 775.221 1544.94 Q772.166 1549.52 766.356 1549.52 Q760.545 1549.52 757.467 1544.94 Q754.411 1540.33 754.411 1531.6 Q754.411 1522.85 757.467 1518.27 Q760.545 1513.66 766.356 1513.66 Z" fill="#000000" fill-rule="nonzero" fill-opacity="1" /><path clip-path="url(#clip310)" d="M1199.03 1544.91 L1206.67 1544.91 L1206.67 1518.55 L1198.36 1520.21 L1198.36 1515.95 L1206.62 1514.29 L1211.3 1514.29 L1211.3 1544.91 L1218.94 1544.91 L1218.94 1548.85 L1199.03 1548.85 L1199.03 1544.91 Z" fill="#000000" fill-rule="nonzero" fill-opacity="1" /><path clip-path="url(#clip310)" d="M1238.38 1517.37 Q1234.77 1517.37 1232.94 1520.93 Q1231.14 1524.47 1231.14 1531.6 Q1231.14 1538.71 1232.94 1542.27 Q1234.77 1545.82 1238.38 1545.82 Q1242.02 1545.82 1243.82 1542.27 Q1245.65 1538.71 1245.65 1531.6 Q1245.65 1524.47 1243.82 1520.93 Q1242.02 1517.37 1238.38 1517.37 M1238.38 1513.66 Q1244.19 1513.66 1247.25 1518.27 Q1250.33 1522.85 1250.33 1531.6 Q1250.33 1540.33 1247.25 1544.94 Q1244.19 1549.52 1238.38 1549.52 Q1232.57 1549.52 1229.49 1544.94 Q1226.44 1540.33 1226.44 1531.6 Q1226.44 1522.85 1229.49 1518.27 Q1232.57 1513.66 1238.38 1513.66 Z" fill="#000000" fill-rule="nonzero" fill-opacity="1" /><path clip-path="url(#clip310)" d="M1268.54 1517.37 Q1264.93 1517.37 1263.1 1520.93 Q1261.3 1524.47 1261.3 1531.6 Q1261.3 1538.71 1263.1 1542.27 Q1264.93 1545.82 1268.54 1545.82 Q1272.18 1545.82 1273.98 1542.27 Q1275.81 1538.71 1275.81 1531.6 Q1275.81 1524.47 1273.98 1520.93 Q1272.18 1517.37 1268.54 1517.37 M1268.54 1513.66 Q1274.35 1513.66 1277.41 1518.27 Q1280.49 1522.85 1280.49 1531.6 Q1280.49 1540.33 1277.41 1544.94 Q1274.35 1549.52 1268.54 1549.52 Q1262.73 1549.52 1259.65 1544.94 Q1256.6 1540.33 1256.6 1531.6 Q1256.6 1522.85 1259.65 1518.27 Q1262.73 1513.66 1268.54 1513.66 Z" fill="#000000" fill-rule="nonzero" fill-opacity="1" /><path clip-path="url(#clip310)" d="M1298.7 1517.37 Q1295.09 1517.37 1293.26 1520.93 Q1291.46 1524.47 1291.46 1531.6 Q1291.46 1538.71 1293.26 1542.27 Q1295.09 1545.82 1298.7 1545.82 Q1302.34 1545.82 1304.14 1542.27 Q1305.97 1538.71 1305.97 1531.6 Q1305.97 1524.47 1304.14 1520.93 Q1302.34 1517.37 1298.7 1517.37 M1298.7 1513.66 Q1304.51 1513.66 1307.57 1518.27 Q1310.65 1522.85 1310.65 1531.6 Q1310.65 1540.33 1307.57 1544.94 Q1304.51 1549.52 1298.7 1549.52 Q1292.89 1549.52 1289.82 1544.94 Q1286.76 1540.33 1286.76 1531.6 Q1286.76 1522.85 1289.82 1518.27 Q1292.89 1513.66 1298.7 1513.66 Z" fill="#000000" fill-rule="nonzero" fill-opacity="1" /><path clip-path="url(#clip310)" d="M1717.07 1544.91 L1724.71 1544.91 L1724.71 1518.55 L1716.4 1520.21 L1716.4 1515.95 L1724.67 1514.29 L1729.34 1514.29 L1729.34 1544.91 L1736.98 1544.91 L1736.98 1548.85 L1717.07 1548.85 L1717.07 1544.91 Z" fill="#000000" fill-rule="nonzero" fill-opacity="1" /><path clip-path="url(#clip310)" d="M1746.47 1514.29 L1764.83 1514.29 L1764.83 1518.22 L1750.75 1518.22 L1750.75 1526.7 Q1751.77 1526.35 1752.79 1526.19 Q1753.81 1526 1754.83 1526 Q1760.61 1526 1763.99 1529.17 Q1767.37 1532.34 1767.37 1537.76 Q1767.37 1543.34 1763.9 1546.44 Q1760.43 1549.52 1754.11 1549.52 Q1751.93 1549.52 1749.67 1549.15 Q1747.42 1548.78 1745.01 1548.04 L1745.01 1543.34 Q1747.1 1544.47 1749.32 1545.03 Q1751.54 1545.58 1754.02 1545.58 Q1758.02 1545.58 1760.36 1543.48 Q1762.7 1541.37 1762.7 1537.76 Q1762.7 1534.15 1760.36 1532.04 Q1758.02 1529.94 1754.02 1529.94 Q1752.14 1529.94 1750.27 1530.35 Q1748.42 1530.77 1746.47 1531.65 L1746.47 1514.29 Z" fill="#000000" fill-rule="nonzero" fill-opacity="1" /><path clip-path="url(#clip310)" d="M1786.59 1517.37 Q1782.98 1517.37 1781.15 1520.93 Q1779.34 1524.47 1779.34 1531.6 Q1779.34 1538.71 1781.15 1542.27 Q1782.98 1545.82 1786.59 1545.82 Q1790.22 1545.82 1792.03 1542.27 Q1793.85 1538.71 1793.85 1531.6 Q1793.85 1524.47 1792.03 1520.93 Q1790.22 1517.37 1786.59 1517.37 M1786.59 1513.66 Q1792.4 1513.66 1795.45 1518.27 Q1798.53 1522.85 1798.53 1531.6 Q1798.53 1540.33 1795.45 1544.94 Q1792.4 1549.52 1786.59 1549.52 Q1780.78 1549.52 1777.7 1544.94 Q1774.64 1540.33 1774.64 1531.6 Q1774.64 1522.85 1777.7 1518.27 Q1780.78 1513.66 1786.59 1513.66 Z" fill="#000000" fill-rule="nonzero" fill-opacity="1" /><path clip-path="url(#clip310)" d="M1816.75 1517.37 Q1813.14 1517.37 1811.31 1520.93 Q1809.5 1524.47 1809.5 1531.6 Q1809.5 1538.71 1811.31 1542.27 Q1813.14 1545.82 1816.75 1545.82 Q1820.38 1545.82 1822.19 1542.27 Q1824.02 1538.71 1824.02 1531.6 Q1824.02 1524.47 1822.19 1520.93 Q1820.38 1517.37 1816.75 1517.37 M1816.75 1513.66 Q1822.56 1513.66 1825.61 1518.27 Q1828.69 1522.85 1828.69 1531.6 Q1828.69 1540.33 1825.61 1544.94 Q1822.56 1549.52 1816.75 1549.52 Q1810.94 1549.52 1807.86 1544.94 Q1804.8 1540.33 1804.8 1531.6 Q1804.8 1522.85 1807.86 1518.27 Q1810.94 1513.66 1816.75 1513.66 Z" fill="#000000" fill-rule="nonzero" fill-opacity="1" /><path clip-path="url(#clip310)" d="M2239.2 1544.91 L2255.52 1544.91 L2255.52 1548.85 L2233.58 1548.85 L2233.58 1544.91 Q2236.24 1542.16 2240.82 1537.53 Q2245.43 1532.88 2246.61 1531.53 Q2248.85 1529.01 2249.73 1527.27 Q2250.64 1525.51 2250.64 1523.82 Q2250.64 1521.07 2248.69 1519.33 Q2246.77 1517.6 2243.67 1517.6 Q2241.47 1517.6 2239.02 1518.36 Q2236.59 1519.13 2233.81 1520.68 L2233.81 1515.95 Q2236.63 1514.82 2239.09 1514.24 Q2241.54 1513.66 2243.58 1513.66 Q2248.95 1513.66 2252.14 1516.35 Q2255.34 1519.03 2255.34 1523.52 Q2255.34 1525.65 2254.53 1527.57 Q2253.74 1529.47 2251.63 1532.07 Q2251.05 1532.74 2247.95 1535.95 Q2244.85 1539.15 2239.2 1544.91 Z" fill="#000000" fill-rule="nonzero" fill-opacity="1" /><path clip-path="url(#clip310)" d="M2275.34 1517.37 Q2271.73 1517.37 2269.9 1520.93 Q2268.09 1524.47 2268.09 1531.6 Q2268.09 1538.71 2269.9 1542.27 Q2271.73 1545.82 2275.34 1545.82 Q2278.97 1545.82 2280.78 1542.27 Q2282.6 1538.71 2282.6 1531.6 Q2282.6 1524.47 2280.78 1520.93 Q2278.97 1517.37 2275.34 1517.37 M2275.34 1513.66 Q2281.15 1513.66 2284.2 1518.27 Q2287.28 1522.85 2287.28 1531.6 Q2287.28 1540.33 2284.2 1544.94 Q2281.15 1549.52 2275.34 1549.52 Q2269.53 1549.52 2266.45 1544.94 Q2263.39 1540.33 2263.39 1531.6 Q2263.39 1522.85 2266.45 1518.27 Q2269.53 1513.66 2275.34 1513.66 Z" fill="#000000" fill-rule="nonzero" fill-opacity="1" /><path clip-path="url(#clip310)" d="M2305.5 1517.37 Q2301.89 1517.37 2300.06 1520.93 Q2298.25 1524.47 2298.25 1531.6 Q2298.25 1538.71 2300.06 1542.27 Q2301.89 1545.82 2305.5 1545.82 Q2309.13 1545.82 2310.94 1542.27 Q2312.77 1538.71 2312.77 1531.6 Q2312.77 1524.47 2310.94 1520.93 Q2309.13 1517.37 2305.5 1517.37 M2305.5 1513.66 Q2311.31 1513.66 2314.36 1518.27 Q2317.44 1522.85 2317.44 1531.6 Q2317.44 1540.33 2314.36 1544.94 Q2311.31 1549.52 2305.5 1549.52 Q2299.69 1549.52 2296.61 1544.94 Q2293.55 1540.33 2293.55 1531.6 Q2293.55 1522.85 2296.61 1518.27 Q2299.69 1513.66 2305.5 1513.66 Z" fill="#000000" fill-rule="nonzero" fill-opacity="1" /><path clip-path="url(#clip310)" d="M2335.66 1517.37 Q2332.05 1517.37 2330.22 1520.93 Q2328.41 1524.47 2328.41 1531.6 Q2328.41 1538.71 2330.22 1542.27 Q2332.05 1545.82 2335.66 1545.82 Q2339.29 1545.82 2341.1 1542.27 Q2342.93 1538.71 2342.93 1531.6 Q2342.93 1524.47 2341.1 1520.93 Q2339.29 1517.37 2335.66 1517.37 M2335.66 1513.66 Q2341.47 1513.66 2344.53 1518.27 Q2347.6 1522.85 2347.6 1531.6 Q2347.6 1540.33 2344.53 1544.94 Q2341.47 1549.52 2335.66 1549.52 Q2329.85 1549.52 2326.77 1544.94 Q2323.72 1540.33 2323.72 1531.6 Q2323.72 1522.85 2326.77 1518.27 Q2329.85 1513.66 2335.66 1513.66 Z" fill="#000000" fill-rule="nonzero" fill-opacity="1" /><polyline clip-path="url(#clip312)" style="stroke:#000000; stroke-linecap:round; stroke-linejoin:round; stroke-width:2; stroke-opacity:0.1; fill:none" points="156.251,1482.06 2352.76,1482.06 "/>
<polyline clip-path="url(#clip312)" style="stroke:#000000; stroke-linecap:round; stroke-linejoin:round; stroke-width:2; stroke-opacity:0.1; fill:none" points="156.251,1105.53 2352.76,1105.53 "/>
<polyline clip-path="url(#clip312)" style="stroke:#000000; stroke-linecap:round; stroke-linejoin:round; stroke-width:2; stroke-opacity:0.1; fill:none" points="156.251,729 2352.76,729 "/>
<polyline clip-path="url(#clip312)" style="stroke:#000000; stroke-linecap:round; stroke-linejoin:round; stroke-width:2; stroke-opacity:0.1; fill:none" points="156.251,352.471 2352.76,352.471 "/>
<polyline clip-path="url(#clip310)" style="stroke:#000000; stroke-linecap:round; stroke-linejoin:round; stroke-width:4; stroke-opacity:1; fill:none" points="156.251,1486.45 156.251,47.2441 "/>
<polyline clip-path="url(#clip310)" style="stroke:#000000; stroke-linecap:round; stroke-linejoin:round; stroke-width:4; stroke-opacity:1; fill:none" points="156.251,1482.06 175.149,1482.06 "/>
<polyline clip-path="url(#clip310)" style="stroke:#000000; stroke-linecap:round; stroke-linejoin:round; stroke-width:4; stroke-opacity:1; fill:none" points="156.251,1105.53 175.149,1105.53 "/>
<polyline clip-path="url(#clip310)" style="stroke:#000000; stroke-linecap:round; stroke-linejoin:round; stroke-width:4; stroke-opacity:1; fill:none" points="156.251,729 175.149,729 "/>
<polyline clip-path="url(#clip310)" style="stroke:#000000; stroke-linecap:round; stroke-linejoin:round; stroke-width:4; stroke-opacity:1; fill:none" points="156.251,352.471 175.149,352.471 "/>
<path clip-path="url(#clip310)" d="M63.0754 1482.93 Q59.7421 1482.93 57.8208 1484.71 Q55.9227 1486.49 55.9227 1489.62 Q55.9227 1492.74 57.8208 1494.52 Q59.7421 1496.31 63.0754 1496.31 Q66.4087 1496.31 68.33 1494.52 Q70.2513 1492.72 70.2513 1489.62 Q70.2513 1486.49 68.33 1484.71 Q66.4319 1482.93 63.0754 1482.93 M58.3995 1480.94 Q55.3903 1480.2 53.7004 1478.14 Q52.0338 1476.07 52.0338 1473.11 Q52.0338 1468.97 54.9736 1466.56 Q57.9365 1464.15 63.0754 1464.15 Q68.2374 1464.15 71.1772 1466.56 Q74.117 1468.97 74.117 1473.11 Q74.117 1476.07 72.4272 1478.14 Q70.7605 1480.2 67.7744 1480.94 Q71.1541 1481.72 73.029 1484.01 Q74.9272 1486.31 74.9272 1489.62 Q74.9272 1494.64 71.8485 1497.32 Q68.793 1500.01 63.0754 1500.01 Q57.3578 1500.01 54.2791 1497.32 Q51.2236 1494.64 51.2236 1489.62 Q51.2236 1486.31 53.1217 1484.01 Q55.0199 1481.72 58.3995 1480.94 M56.6865 1473.55 Q56.6865 1476.24 58.3532 1477.74 Q60.043 1479.25 63.0754 1479.25 Q66.0846 1479.25 67.7744 1477.74 Q69.4874 1476.24 69.4874 1473.55 Q69.4874 1470.87 67.7744 1469.36 Q66.0846 1467.86 63.0754 1467.86 Q60.043 1467.86 58.3532 1469.36 Q56.6865 1470.87 56.6865 1473.55 Z" fill="#000000" fill-rule="nonzero" fill-opacity="1" /><path clip-path="url(#clip310)" d="M83.2373 1493.46 L88.1216 1493.46 L88.1216 1499.34 L83.2373 1499.34 L83.2373 1493.46 Z" fill="#000000" fill-rule="nonzero" fill-opacity="1" /><path clip-path="url(#clip310)" d="M108.307 1467.86 Q104.696 1467.86 102.867 1471.42 Q101.061 1474.96 101.061 1482.09 Q101.061 1489.2 102.867 1492.76 Q104.696 1496.31 108.307 1496.31 Q111.941 1496.31 113.746 1492.76 Q115.575 1489.2 115.575 1482.09 Q115.575 1474.96 113.746 1471.42 Q111.941 1467.86 108.307 1467.86 M108.307 1464.15 Q114.117 1464.15 117.172 1468.76 Q120.251 1473.34 120.251 1482.09 Q120.251 1490.82 117.172 1495.43 Q114.117 1500.01 108.307 1500.01 Q102.496 1500.01 99.4178 1495.43 Q96.3623 1490.82 96.3623 1482.09 Q96.3623 1473.34 99.4178 1468.76 Q102.496 1464.15 108.307 1464.15 Z" fill="#000000" fill-rule="nonzero" fill-opacity="1" /><path clip-path="url(#clip310)" d="M64.0708 1106.4 Q60.7374 1106.4 58.8162 1108.18 Q56.918 1109.96 56.918 1113.09 Q56.918 1116.21 58.8162 1117.99 Q60.7374 1119.78 64.0708 1119.78 Q67.4041 1119.78 69.3254 1117.99 Q71.2466 1116.19 71.2466 1113.09 Q71.2466 1109.96 69.3254 1108.18 Q67.4272 1106.4 64.0708 1106.4 M59.3949 1104.41 Q56.3856 1103.67 54.6958 1101.61 Q53.0292 1099.55 53.0292 1096.58 Q53.0292 1092.44 55.969 1090.03 Q58.9319 1087.62 64.0708 1087.62 Q69.2328 1087.62 72.1726 1090.03 Q75.1124 1092.44 75.1124 1096.58 Q75.1124 1099.55 73.4226 1101.61 Q71.7559 1103.67 68.7698 1104.41 Q72.1494 1105.19 74.0244 1107.49 Q75.9225 1109.78 75.9225 1113.09 Q75.9225 1118.11 72.8439 1120.8 Q69.7883 1123.48 64.0708 1123.48 Q58.3532 1123.48 55.2745 1120.8 Q52.219 1118.11 52.219 1113.09 Q52.219 1109.78 54.1171 1107.49 Q56.0152 1105.19 59.3949 1104.41 M57.6819 1097.02 Q57.6819 1099.71 59.3486 1101.21 Q61.0384 1102.72 64.0708 1102.72 Q67.08 1102.72 68.7698 1101.21 Q70.4828 1099.71 70.4828 1097.02 Q70.4828 1094.34 68.7698 1092.83 Q67.08 1091.33 64.0708 1091.33 Q61.0384 1091.33 59.3486 1092.83 Q57.6819 1094.34 57.6819 1097.02 Z" fill="#000000" fill-rule="nonzero" fill-opacity="1" /><path clip-path="url(#clip310)" d="M84.2327 1116.93 L89.1169 1116.93 L89.1169 1122.81 L84.2327 1122.81 L84.2327 1116.93 Z" fill="#000000" fill-rule="nonzero" fill-opacity="1" /><path clip-path="url(#clip310)" d="M99.3483 1088.25 L117.705 1088.25 L117.705 1092.18 L103.631 1092.18 L103.631 1100.66 Q104.649 1100.31 105.668 1100.15 Q106.686 1099.96 107.705 1099.96 Q113.492 1099.96 116.871 1103.13 Q120.251 1106.3 120.251 1111.72 Q120.251 1117.3 116.779 1120.4 Q113.307 1123.48 106.987 1123.48 Q104.811 1123.48 102.543 1123.11 Q100.297 1122.74 97.89 1122 L97.89 1117.3 Q99.9733 1118.43 102.196 1118.99 Q104.418 1119.55 106.895 1119.55 Q110.899 1119.55 113.237 1117.44 Q115.575 1115.33 115.575 1111.72 Q115.575 1108.11 113.237 1106 Q110.899 1103.9 106.895 1103.9 Q105.02 1103.9 103.145 1104.31 Q101.293 1104.73 99.3483 1105.61 L99.3483 1088.25 Z" fill="#000000" fill-rule="nonzero" fill-opacity="1" /><path clip-path="url(#clip310)" d="M53.2143 745.563 L53.2143 741.303 Q54.9736 742.137 56.7791 742.577 Q58.5847 743.016 60.3208 743.016 Q64.9504 743.016 67.3809 739.915 Q69.8346 736.79 70.1818 730.447 Q68.8393 732.438 66.7791 733.503 Q64.7189 734.567 62.2189 734.567 Q57.0338 734.567 54.0014 731.442 Q50.9921 728.294 50.9921 722.854 Q50.9921 717.53 54.1403 714.313 Q57.2884 711.095 62.5198 711.095 Q68.5152 711.095 71.6633 715.702 Q74.8346 720.285 74.8346 729.035 Q74.8346 737.206 70.9457 742.091 Q67.08 746.952 60.5291 746.952 Q58.7699 746.952 56.9643 746.604 Q55.1588 746.257 53.2143 745.563 M62.5198 730.91 Q65.668 730.91 67.4967 728.757 Q69.3485 726.604 69.3485 722.854 Q69.3485 719.128 67.4967 716.975 Q65.668 714.799 62.5198 714.799 Q59.3717 714.799 57.5199 716.975 Q55.6912 719.128 55.6912 722.854 Q55.6912 726.604 57.5199 728.757 Q59.3717 730.91 62.5198 730.91 Z" fill="#000000" fill-rule="nonzero" fill-opacity="1" /><path clip-path="url(#clip310)" d="M83.2373 740.401 L88.1216 740.401 L88.1216 746.28 L83.2373 746.28 L83.2373 740.401 Z" fill="#000000" fill-rule="nonzero" fill-opacity="1" /><path clip-path="url(#clip310)" d="M108.307 714.799 Q104.696 714.799 102.867 718.364 Q101.061 721.905 101.061 729.035 Q101.061 736.141 102.867 739.706 Q104.696 743.248 108.307 743.248 Q111.941 743.248 113.746 739.706 Q115.575 736.141 115.575 729.035 Q115.575 721.905 113.746 718.364 Q111.941 714.799 108.307 714.799 M108.307 711.095 Q114.117 711.095 117.172 715.702 Q120.251 720.285 120.251 729.035 Q120.251 737.762 117.172 742.368 Q114.117 746.952 108.307 746.952 Q102.496 746.952 99.4178 742.368 Q96.3623 737.762 96.3623 729.035 Q96.3623 720.285 99.4178 715.702 Q102.496 711.095 108.307 711.095 Z" fill="#000000" fill-rule="nonzero" fill-opacity="1" /><path clip-path="url(#clip310)" d="M54.2097 369.034 L54.2097 364.774 Q55.969 365.608 57.7745 366.047 Q59.58 366.487 61.3161 366.487 Q65.9457 366.487 68.3763 363.385 Q70.83 360.26 71.1772 353.918 Q69.8346 355.909 67.7744 356.973 Q65.7143 358.038 63.2143 358.038 Q58.0291 358.038 54.9967 354.913 Q51.9875 351.765 51.9875 346.325 Q51.9875 341.001 55.1356 337.784 Q58.2838 334.566 63.5152 334.566 Q69.5105 334.566 72.6587 339.173 Q75.83 343.756 75.83 352.506 Q75.83 360.677 71.9411 365.561 Q68.0754 370.422 61.5245 370.422 Q59.7652 370.422 57.9597 370.075 Q56.1541 369.728 54.2097 369.034 M63.5152 354.381 Q66.6633 354.381 68.492 352.228 Q70.3439 350.075 70.3439 346.325 Q70.3439 342.598 68.492 340.446 Q66.6633 338.27 63.5152 338.27 Q60.3671 338.27 58.5152 340.446 Q56.6865 342.598 56.6865 346.325 Q56.6865 350.075 58.5152 352.228 Q60.3671 354.381 63.5152 354.381 Z" fill="#000000" fill-rule="nonzero" fill-opacity="1" /><path clip-path="url(#clip310)" d="M84.2327 363.872 L89.1169 363.872 L89.1169 369.751 L84.2327 369.751 L84.2327 363.872 Z" fill="#000000" fill-rule="nonzero" fill-opacity="1" /><path clip-path="url(#clip310)" d="M99.3483 335.191 L117.705 335.191 L117.705 339.126 L103.631 339.126 L103.631 347.598 Q104.649 347.251 105.668 347.089 Q106.686 346.904 107.705 346.904 Q113.492 346.904 116.871 350.075 Q120.251 353.247 120.251 358.663 Q120.251 364.242 116.779 367.344 Q113.307 370.422 106.987 370.422 Q104.811 370.422 102.543 370.052 Q100.297 369.682 97.89 368.941 L97.89 364.242 Q99.9733 365.376 102.196 365.932 Q104.418 366.487 106.895 366.487 Q110.899 366.487 113.237 364.381 Q115.575 362.274 115.575 358.663 Q115.575 355.052 113.237 352.946 Q110.899 350.839 106.895 350.839 Q105.02 350.839 103.145 351.256 Q101.293 351.673 99.3483 352.552 L99.3483 335.191 Z" fill="#000000" fill-rule="nonzero" fill-opacity="1" /><polyline clip-path="url(#clip312)" style="stroke:#009af9; stroke-linecap:round; stroke-linejoin:round; stroke-width:4; stroke-opacity:1; fill:none" points="218.416,87.9763 219.452,174.324 220.488,250.888 221.525,319.125 222.561,380.171 223.597,434.933 224.633,484.149 225.669,528.434 226.705,568.312 227.741,604.239 228.777,636.615 229.813,665.801 230.849,692.121 231.885,715.866 232.921,737.303 233.958,756.675 234.994,774.2 236.03,790.077 237.066,804.485 238.102,817.585 239.138,829.523 240.174,840.428 241.21,850.417 242.246,859.593 243.282,868.047 244.318,875.862 245.355,883.111 246.391,889.856 247.427,896.156 248.463,902.059 249.499,907.611 250.535,912.851 251.571,917.812 252.607,922.525 253.643,927.018 254.679,931.313 255.715,935.431 256.751,939.39 257.788,943.208 258.824,946.897 259.86,950.471 260.896,953.94 261.932,957.314 262.968,960.602 264.004,963.811 265.04,966.949 266.076,970.02 267.112,973.031 268.148,975.986 269.185,978.888 270.221,981.743 271.257,984.552 272.293,987.319 273.329,990.047 274.365,992.737 275.401,995.392 276.437,998.014 277.473,1000.6 278.509,1003.16 279.545,1005.69 280.581,1008.2 281.618,1010.67 282.654,1013.12 283.69,1015.55 284.726,1017.95 285.762,1020.32 286.798,1022.68 287.834,1025.01 288.87,1027.32 289.906,1029.61 290.942,1031.88 291.978,1034.13 293.015,1036.36 294.051,1038.57 295.087,1040.76 296.123,1042.94 297.159,1045.09 298.195,1047.23 299.231,1049.34 300.267,1051.45 301.303,1053.53 302.339,1055.6 303.375,1057.65 304.411,1059.68 305.448,1061.7 306.484,1063.7 307.52,1065.69 308.556,1067.66 309.592,1069.61 310.628,1071.55 311.664,1073.47 312.7,1075.38 313.736,1077.28 314.772,1079.16 315.808,1081.02 316.845,1082.88 317.881,1084.71 318.917,1086.54 319.953,1088.35 320.989,1090.14 322.025,1091.92 323.061,1093.69 324.097,1095.45 325.133,1097.19 326.169,1098.92 327.205,1100.64 328.241,1102.35 329.278,1104.04 330.314,1105.72 331.35,1107.38 332.386,1109.04 333.422,1110.68 334.458,1112.32 335.494,1113.93 336.53,1115.54 337.566,1117.14 338.602,1118.72 339.638,1120.3 340.675,1121.86 341.711,1123.41 342.747,1124.95 343.783,1126.48 344.819,1128 345.855,1129.51 346.891,1131.01 347.927,1132.5 348.963,1133.97 349.999,1135.44 351.035,1136.9 352.071,1138.34 353.108,1139.78 354.144,1141.21 355.18,1142.62 356.216,1144.03 357.252,1145.43 358.288,1146.82 359.324,1148.19 360.36,1149.56 361.396,1150.92 362.432,1152.28 363.468,1153.62 364.505,1154.95 365.541,1156.27 366.577,1157.59 367.613,1158.9 368.649,1160.2 369.685,1161.48 370.721,1162.77 371.757,1164.04 372.793,1165.3 373.829,1166.56 374.865,1167.81 375.902,1169.05 376.938,1170.28 377.974,1171.5 379.01,1172.72 380.046,1173.93 381.082,1175.13 382.118,1176.32 383.154,1177.5 384.19,1178.68 385.226,1179.85 386.262,1181.01 387.298,1182.17 388.335,1183.32 389.371,1184.46 390.407,1185.59 391.443,1186.72 392.479,1187.84 393.515,1188.95 394.551,1190.06 395.587,1191.16 396.623,1192.25 397.659,1193.33 398.695,1194.41 399.732,1195.48 400.768,1196.55 401.804,1197.61 402.84,1198.66 403.876,1199.71 404.912,1200.75 405.948,1201.78 406.984,1202.81 408.02,1203.83 409.056,1204.85 410.092,1205.86 411.128,1206.86 412.165,1207.86 413.201,1208.85 414.237,1209.83 415.273,1210.81 416.309,1211.79 417.345,1212.75 418.381,1213.72 419.417,1214.67 420.453,1215.62 421.489,1216.57 422.525,1217.51 423.562,1218.45 424.598,1219.37 425.634,1220.3 426.67,1221.22 427.706,1222.13 428.742,1223.04 429.778,1223.94 430.814,1224.84 431.85,1225.73 432.886,1226.62 433.922,1227.5 434.958,1228.38 435.995,1229.25 437.031,1230.12 438.067,1230.99 439.103,1231.84 440.139,1232.7 441.175,1233.55 442.211,1234.39 443.247,1235.23 444.283,1236.06 445.319,1236.89 446.355,1237.72 447.392,1238.54 448.428,1239.36 449.464,1240.17 450.5,1240.98 451.536,1241.78 452.572,1242.58 453.608,1243.37 454.644,1244.17 455.68,1244.95 456.716,1245.73 457.752,1246.51 458.788,1247.28 459.825,1248.05 460.861,1248.82 461.897,1249.58 462.933,1250.34 463.969,1251.09 465.005,1251.84 466.041,1252.59 467.077,1253.33 468.113,1254.07 469.149,1254.8 470.185,1255.53 471.222,1256.26 472.258,1256.98 473.294,1257.7 474.33,1258.41 475.366,1259.12 476.402,1259.83 477.438,1260.53 478.474,1261.23 479.51,1261.93 480.546,1262.62 481.582,1263.31 482.618,1264 483.655,1264.68 484.691,1265.36 485.727,1266.04 486.763,1266.71 487.799,1267.38 488.835,1268.05 489.871,1268.71 490.907,1269.37 491.943,1270.02 492.979,1270.68 494.015,1271.32 495.052,1271.97 496.088,1272.61 497.124,1273.25 498.16,1273.89 499.196,1274.52 500.232,1275.15 501.268,1275.78 502.304,1276.41 503.34,1277.03 504.376,1277.64 505.412,1278.26 506.448,1278.87 507.485,1279.48 508.521,1280.09 509.557,1280.69 510.593,1281.29 511.629,1281.89 512.665,1282.48 513.701,1283.08 514.737,1283.67 515.773,1284.25 516.809,1284.84 517.845,1285.42 518.882,1286 519.918,1286.57 520.954,1287.14 521.99,1287.71 523.026,1288.28 524.062,1288.85 525.098,1289.41 526.134,1289.97 527.17,1290.52 528.206,1291.08 529.242,1291.63 530.278,1292.18 531.315,1292.73 532.351,1293.27 533.387,1293.81 534.423,1294.35 535.459,1294.89 536.495,1295.42 537.531,1295.95 538.567,1296.48 539.603,1297.01 540.639,1297.54 541.675,1298.06 542.712,1298.58 543.748,1299.1 544.784,1299.61 545.82,1300.12 546.856,1300.63 547.892,1301.14 548.928,1301.65 549.964,1302.15 551,1302.65 552.036,1303.15 553.072,1303.65 554.109,1304.15 555.145,1304.64 556.181,1305.13 557.217,1305.62 558.253,1306.11 559.289,1306.59 560.325,1307.07 561.361,1307.55 562.397,1308.03 563.433,1308.51 564.469,1308.98 565.505,1309.45 566.542,1309.92 567.578,1310.39 568.614,1310.85 569.65,1311.32 570.686,1311.78 571.722,1312.24 572.758,1312.7 573.794,1313.15 574.83,1313.61 575.866,1314.06 576.902,1314.51 577.939,1314.96 578.975,1315.4 580.011,1315.85 581.047,1316.29 582.083,1316.73 583.119,1317.17 584.155,1317.61 585.191,1318.04 586.227,1318.48 587.263,1318.91 588.299,1319.34 589.335,1319.77 590.372,1320.19 591.408,1320.62 592.444,1321.04 593.48,1321.46 594.516,1321.88 595.552,1322.3 596.588,1322.71 597.624,1323.13 598.66,1323.54 599.696,1323.95 600.732,1324.36 601.769,1324.77 602.805,1325.17 603.841,1325.58 604.877,1325.98 605.913,1326.38 606.949,1326.78 607.985,1327.18 609.021,1327.57 610.057,1327.97 611.093,1328.36 612.129,1328.75 613.165,1329.14 614.202,1329.53 615.238,1329.92 616.274,1330.3 617.31,1330.68 618.346,1331.07 619.382,1331.45 620.418,1331.82 621.454,1332.2 622.49,1332.58 623.526,1332.95 624.562,1333.33 625.599,1333.7 626.635,1334.07 627.671,1334.44 628.707,1334.8 629.743,1335.17 630.779,1335.53 631.815,1335.9 632.851,1336.26 633.887,1336.62 634.923,1336.98 635.959,1337.33 636.995,1337.69 638.032,1338.04 639.068,1338.4 640.104,1338.75 641.14,1339.1 642.176,1339.45 643.212,1339.8 644.248,1340.14 645.284,1340.49 646.32,1340.83 647.356,1341.17 648.392,1341.52 649.429,1341.86 650.465,1342.19 651.501,1342.53 652.537,1342.87 653.573,1343.2 654.609,1343.54 655.645,1343.87 656.681,1344.2 657.717,1344.53 658.753,1344.86 659.789,1345.19 660.825,1345.51 661.862,1345.84 662.898,1346.16 663.934,1346.48 664.97,1346.8 666.006,1347.12 667.042,1347.44 668.078,1347.76 669.114,1348.08 670.15,1348.39 671.186,1348.71 672.222,1349.02 673.259,1349.33 674.295,1349.64 675.331,1349.95 676.367,1350.26 677.403,1350.57 678.439,1350.87 679.475,1351.18 680.511,1351.48 681.547,1351.79 682.583,1352.09 683.619,1352.39 684.655,1352.69 685.692,1352.99 686.728,1353.28 687.764,1353.58 688.8,1353.87 689.836,1354.17 690.872,1354.46 691.908,1354.75 692.944,1355.04 693.98,1355.33 695.016,1355.62 696.052,1355.91 697.089,1356.2 698.125,1356.48 699.161,1356.77 700.197,1357.05 701.233,1357.33 702.269,1357.62 703.305,1357.9 704.341,1358.18 705.377,1358.46 706.413,1358.73 707.449,1359.01 708.485,1359.29 709.522,1359.56 710.558,1359.83 711.594,1360.11 712.63,1360.38 713.666,1360.65 714.702,1360.92 715.738,1361.19 716.774,1361.46 717.81,1361.72 718.846,1361.99 719.882,1362.26 720.919,1362.52 721.955,1362.78 722.991,1363.05 724.027,1363.31 725.063,1363.57 726.099,1363.83 727.135,1364.09 728.171,1364.34 729.207,1364.6 730.243,1364.86 731.279,1365.11 732.316,1365.37 733.352,1365.62 734.388,1365.87 735.424,1366.12 736.46,1366.38 737.496,1366.63 738.532,1366.87 739.568,1367.12 740.604,1367.37 741.64,1367.62 742.676,1367.86 743.712,1368.11 744.749,1368.35 745.785,1368.6 746.821,1368.84 747.857,1369.08 748.893,1369.32 749.929,1369.56 750.965,1369.8 752.001,1370.04 753.037,1370.27 754.073,1370.51 755.109,1370.75 756.146,1370.98 757.182,1371.22 758.218,1371.45 759.254,1371.68 760.29,1371.91 761.326,1372.15 762.362,1372.38 763.398,1372.61 764.434,1372.83 765.47,1373.06 766.506,1373.29 767.542,1373.52 768.579,1373.74 769.615,1373.97 770.651,1374.19 771.687,1374.41 772.723,1374.64 773.759,1374.86 774.795,1375.08 775.831,1375.3 776.867,1375.52 777.903,1375.74 778.939,1375.96 779.976,1376.18 781.012,1376.39 782.048,1376.61 783.084,1376.82 784.12,1377.04 785.156,1377.25 786.192,1377.47 787.228,1377.68 788.264,1377.89 789.3,1378.1 790.336,1378.31 791.372,1378.52 792.409,1378.73 793.445,1378.94 794.481,1379.15 795.517,1379.35 796.553,1379.56 797.589,1379.77 798.625,1379.97 799.661,1380.18 800.697,1380.38 801.733,1380.58 802.769,1380.78 803.806,1380.99 804.842,1381.19 805.878,1381.39 806.914,1381.59 807.95,1381.79 808.986,1381.98 810.022,1382.18 811.058,1382.38 812.094,1382.58 813.13,1382.77 814.166,1382.97 815.202,1383.16 816.239,1383.36 817.275,1383.55 818.311,1383.74 819.347,1383.93 820.383,1384.12 821.419,1384.32 822.455,1384.51 823.491,1384.69 824.527,1384.88 825.563,1385.07 826.599,1385.26 827.636,1385.45 828.672,1385.63 829.708,1385.82 830.744,1386 831.78,1386.19 832.816,1386.37 833.852,1386.56 834.888,1386.74 835.924,1386.92 836.96,1387.1 837.996,1387.29 839.032,1387.47 840.069,1387.65 841.105,1387.83 842.141,1388 843.177,1388.18 844.213,1388.36 845.249,1388.54 846.285,1388.71 847.321,1388.89 848.357,1389.07 849.393,1389.24 850.429,1389.41 851.466,1389.59 852.502,1389.76 853.538,1389.93 854.574,1390.11 855.61,1390.28 856.646,1390.45 857.682,1390.62 858.718,1390.79 859.754,1390.96 860.79,1391.13 861.826,1391.3 862.862,1391.46 863.899,1391.63 864.935,1391.8 865.971,1391.96 867.007,1392.13 868.043,1392.3 869.079,1392.46 870.115,1392.62 871.151,1392.79 872.187,1392.95 873.223,1393.11 874.259,1393.28 875.296,1393.44 876.332,1393.6 877.368,1393.76 878.404,1393.92 879.44,1394.08 880.476,1394.24 881.512,1394.4 882.548,1394.55 883.584,1394.71 884.62,1394.87 885.656,1395.03 886.692,1395.18 887.729,1395.34 888.765,1395.49 889.801,1395.65 890.837,1395.8 891.873,1395.95 892.909,1396.11 893.945,1396.26 894.981,1396.41 896.017,1396.56 897.053,1396.72 898.089,1396.87 899.126,1397.02 900.162,1397.17 901.198,1397.32 902.234,1397.46 903.27,1397.61 904.306,1397.76 905.342,1397.91 906.378,1398.06 907.414,1398.2 908.45,1398.35 909.486,1398.49 910.523,1398.64 911.559,1398.78 912.595,1398.93 913.631,1399.07 914.667,1399.22 915.703,1399.36 916.739,1399.5 917.775,1399.64 918.811,1399.78 919.847,1399.93 920.883,1400.07 921.919,1400.21 922.956,1400.35 923.992,1400.49 925.028,1400.63 926.064,1400.76 927.1,1400.9 928.136,1401.04 929.172,1401.18 930.208,1401.31 931.244,1401.45 932.28,1401.59 933.316,1401.72 934.353,1401.86 935.389,1401.99 936.425,1402.13 937.461,1402.26 938.497,1402.4 939.533,1402.53 940.569,1402.66 941.605,1402.79 942.641,1402.93 943.677,1403.06 944.713,1403.19 945.749,1403.32 946.786,1403.45 947.822,1403.58 948.858,1403.71 949.894,1403.84 950.93,1403.97 951.966,1404.1 953.002,1404.22 954.038,1404.35 955.074,1404.48 956.11,1404.6 957.146,1404.73 958.183,1404.86 959.219,1404.98 960.255,1405.11 961.291,1405.23 962.327,1405.36 963.363,1405.48 964.399,1405.6 965.435,1405.73 966.471,1405.85 967.507,1405.97 968.543,1406.1 969.579,1406.22 970.616,1406.34 971.652,1406.46 972.688,1406.58 973.724,1406.7 974.76,1406.82 975.796,1406.94 976.832,1407.06 977.868,1407.18 978.904,1407.3 979.94,1407.42 980.976,1407.53 982.013,1407.65 983.049,1407.77 984.085,1407.89 985.121,1408 986.157,1408.12 987.193,1408.23 988.229,1408.35 989.265,1408.46 990.301,1408.58 991.337,1408.69 992.373,1408.81 993.409,1408.92 994.446,1409.03 995.482,1409.15 996.518,1409.26 997.554,1409.37 998.59,1409.48 999.626,1409.59 1000.66,1409.71 1001.7,1409.82 1002.73,1409.93 1003.77,1410.04 1004.81,1410.15 1005.84,1410.26 1006.88,1410.37 1007.91,1410.47 1008.95,1410.58 1009.99,1410.69 1011.02,1410.8 1012.06,1410.91 1013.1,1411.01 1014.13,1411.12 1015.17,1411.23 1016.2,1411.33 1017.24,1411.44 1018.28,1411.54 1019.31,1411.65 1020.35,1411.76 1021.38,1411.86 1022.42,1411.96 1023.46,1412.07 1024.49,1412.17 1025.53,1412.28 1026.56,1412.38 1027.6,1412.48 1028.64,1412.58 1029.67,1412.69 1030.71,1412.79 1031.74,1412.89 1032.78,1412.99 1033.82,1413.09 1034.85,1413.19 1035.89,1413.29 1036.93,1413.39 1037.96,1413.49 1039,1413.59 1040.03,1413.69 1041.07,1413.79 1042.11,1413.89 1043.14,1413.99 1044.18,1414.08 1045.21,1414.18 1046.25,1414.28 1047.29,1414.38 1048.32,1414.47 1049.36,1414.57 1050.39,1414.66 1051.43,1414.76 1052.47,1414.86 1053.5,1414.95 1054.54,1415.05 1055.57,1415.14 1056.61,1415.24 1057.65,1415.33 1058.68,1415.42 1059.72,1415.52 1060.76,1415.61 1061.79,1415.7 1062.83,1415.8 1063.86,1415.89 1064.9,1415.98 1065.94,1416.07 1066.97,1416.16 1068.01,1416.26 1069.04,1416.35 1070.08,1416.44 1071.12,1416.53 1072.15,1416.62 1073.19,1416.71 1074.22,1416.8 1075.26,1416.89 1076.3,1416.98 1077.33,1417.07 1078.37,1417.15 1079.4,1417.24 1080.44,1417.33 1081.48,1417.42 1082.51,1417.51 1083.55,1417.59 1084.59,1417.68 1085.62,1417.77 1086.66,1417.85 1087.69,1417.94 1088.73,1418.03 1089.77,1418.11 1090.8,1418.2 1091.84,1418.28 1092.87,1418.37 1093.91,1418.45 1094.95,1418.54 1095.98,1418.62 1097.02,1418.71 1098.05,1418.79 1099.09,1418.87 1100.13,1418.96 1101.16,1419.04 1102.2,1419.12 1103.23,1419.2 1104.27,1419.29 1105.31,1419.37 1106.34,1419.45 1107.38,1419.53 1108.42,1419.61 1109.45,1419.69 1110.49,1419.77 1111.52,1419.86 1112.56,1419.94 1113.6,1420.02 1114.63,1420.1 1115.67,1420.17 1116.7,1420.25 1117.74,1420.33 1118.78,1420.41 1119.81,1420.49 1120.85,1420.57 1121.88,1420.65 1122.92,1420.73 1123.96,1420.8 1124.99,1420.88 1126.03,1420.96 1127.06,1421.03 1128.1,1421.11 1129.14,1421.19 1130.17,1421.26 1131.21,1421.34 1132.25,1421.42 1133.28,1421.49 1134.32,1421.57 1135.35,1421.64 1136.39,1421.72 1137.43,1421.79 1138.46,1421.87 1139.5,1421.94 1140.53,1422.01 1141.57,1422.09 1142.61,1422.16 1143.64,1422.24 1144.68,1422.31 1145.71,1422.38 1146.75,1422.45 1147.79,1422.53 1148.82,1422.6 1149.86,1422.67 1150.89,1422.74 1151.93,1422.81 1152.97,1422.89 1154,1422.96 1155.04,1423.03 1156.08,1423.1 1157.11,1423.17 1158.15,1423.24 1159.18,1423.31 1160.22,1423.38 1161.26,1423.45 1162.29,1423.52 1163.33,1423.59 1164.36,1423.66 1165.4,1423.73 1166.44,1423.8 1167.47,1423.86 1168.51,1423.93 1169.54,1424 1170.58,1424.07 1171.62,1424.14 1172.65,1424.2 1173.69,1424.27 1174.72,1424.34 1175.76,1424.4 1176.8,1424.47 1177.83,1424.54 1178.87,1424.6 1179.91,1424.67 1180.94,1424.74 1181.98,1424.8 1183.01,1424.87 1184.05,1424.93 1185.09,1425 1186.12,1425.06 1187.16,1425.13 1188.19,1425.19 1189.23,1425.26 1190.27,1425.32 1191.3,1425.38 1192.34,1425.45 1193.37,1425.51 1194.41,1425.58 1195.45,1425.64 1196.48,1425.7 1197.52,1425.76 1198.55,1425.83 1199.59,1425.89 1200.63,1425.95 1201.66,1426.01 1202.7,1426.08 1203.74,1426.14 1204.77,1426.2 1205.81,1426.26 1206.84,1426.32 1207.88,1426.38 1208.92,1426.44 1209.95,1426.5 1210.99,1426.56 1212.02,1426.62 1213.06,1426.68 1214.1,1426.74 1215.13,1426.8 1216.17,1426.86 1217.2,1426.92 1218.24,1426.98 1219.28,1427.04 1220.31,1427.1 1221.35,1427.16 1222.38,1427.22 1223.42,1427.27 1224.46,1427.33 1225.49,1427.39 1226.53,1427.45 1227.57,1427.51 1228.6,1427.56 1229.64,1427.62 1230.67,1427.68 1231.71,1427.73 1232.75,1427.79 1233.78,1427.85 1234.82,1427.9 1235.85,1427.96 1236.89,1428.02 1237.93,1428.07 1238.96,1428.13 1240,1428.18 1241.03,1428.24 1242.07,1428.29 1243.11,1428.35 1244.14,1428.4 1245.18,1428.46 1246.21,1428.51 1247.25,1428.57 1248.29,1428.62 1249.32,1428.68 1250.36,1428.73 1251.4,1428.78 1252.43,1428.84 1253.47,1428.89 1254.5,1428.94 1255.54,1429 1256.58,1429.05 1257.61,1429.1 1258.65,1429.16 1259.68,1429.21 1260.72,1429.26 1261.76,1429.31 1262.79,1429.37 1263.83,1429.42 1264.86,1429.47 1265.9,1429.52 1266.94,1429.57 1267.97,1429.62 1269.01,1429.67 1270.04,1429.73 1271.08,1429.78 1272.12,1429.83 1273.15,1429.88 1274.19,1429.93 1275.23,1429.98 1276.26,1430.03 1277.3,1430.08 1278.33,1430.13 1279.37,1430.18 1280.41,1430.23 1281.44,1430.28 1282.48,1430.33 1283.51,1430.37 1284.55,1430.42 1285.59,1430.47 1286.62,1430.52 1287.66,1430.57 1288.69,1430.62 1289.73,1430.67 1290.77,1430.71 1291.8,1430.76 1292.84,1430.81 1293.87,1430.86 1294.91,1430.9 1295.95,1430.95 1296.98,1431 1298.02,1431.04 1299.06,1431.09 1300.09,1431.14 1301.13,1431.19 1302.16,1431.23 1303.2,1431.28 1304.24,1431.32 1305.27,1431.37 1306.31,1431.42 1307.34,1431.46 1308.38,1431.51 1309.42,1431.55 1310.45,1431.6 1311.49,1431.64 1312.52,1431.69 1313.56,1431.73 1314.6,1431.78 1315.63,1431.82 1316.67,1431.87 1317.7,1431.91 1318.74,1431.96 1319.78,1432 1320.81,1432.04 1321.85,1432.09 1322.89,1432.13 1323.92,1432.18 1324.96,1432.22 1325.99,1432.26 1327.03,1432.31 1328.07,1432.35 1329.1,1432.39 1330.14,1432.43 1331.17,1432.48 1332.21,1432.52 1333.25,1432.56 1334.28,1432.6 1335.32,1432.65 1336.35,1432.69 1337.39,1432.73 1338.43,1432.77 1339.46,1432.81 1340.5,1432.86 1341.53,1432.9 1342.57,1432.94 1343.61,1432.98 1344.64,1433.02 1345.68,1433.06 1346.72,1433.1 1347.75,1433.14 1348.79,1433.18 1349.82,1433.22 1350.86,1433.26 1351.9,1433.3 1352.93,1433.34 1353.97,1433.38 1355,1433.42 1356.04,1433.46 1357.08,1433.5 1358.11,1433.54 1359.15,1433.58 1360.18,1433.62 1361.22,1433.66 1362.26,1433.7 1363.29,1433.74 1364.33,1433.78 1365.36,1433.82 1366.4,1433.86 1367.44,1433.89 1368.47,1433.93 1369.51,1433.97 1370.55,1434.01 1371.58,1434.05 1372.62,1434.08 1373.65,1434.12 1374.69,1434.16 1375.73,1434.2 1376.76,1434.23 1377.8,1434.27 1378.83,1434.31 1379.87,1434.35 1380.91,1434.38 1381.94,1434.42 1382.98,1434.46 1384.01,1434.49 1385.05,1434.53 1386.09,1434.57 1387.12,1434.6 1388.16,1434.64 1389.19,1434.68 1390.23,1434.71 1391.27,1434.75 1392.3,1434.78 1393.34,1434.82 1394.38,1434.85 1395.41,1434.89 1396.45,1434.92 1397.48,1434.96 1398.52,1435 1399.56,1435.03 1400.59,1435.07 1401.63,1435.1 1402.66,1435.13 1403.7,1435.17 1404.74,1435.2 1405.77,1435.24 1406.81,1435.27 1407.84,1435.31 1408.88,1435.34 1409.92,1435.37 1410.95,1435.41 1411.99,1435.44 1413.02,1435.48 1414.06,1435.51 1415.1,1435.54 1416.13,1435.58 1417.17,1435.61 1418.21,1435.64 1419.24,1435.68 1420.28,1435.71 1421.31,1435.74 1422.35,1435.78 1423.39,1435.81 1424.42,1435.84 1425.46,1435.87 1426.49,1435.91 1427.53,1435.94 1428.57,1435.97 1429.6,1436 1430.64,1436.03 1431.67,1436.07 1432.71,1436.1 1433.75,1436.13 1434.78,1436.16 1435.82,1436.19 1436.85,1436.22 1437.89,1436.26 1438.93,1436.29 1439.96,1436.32 1441,1436.35 1442.04,1436.38 1443.07,1436.41 1444.11,1436.44 1445.14,1436.47 1446.18,1436.5 1447.22,1436.53 1448.25,1436.56 1449.29,1436.59 1450.32,1436.62 1451.36,1436.65 1452.4,1436.68 1453.43,1436.71 1454.47,1436.74 1455.5,1436.77 1456.54,1436.8 1457.58,1436.83 1458.61,1436.86 1459.65,1436.89 1460.68,1436.92 1461.72,1436.95 1462.76,1436.98 1463.79,1437.01 1464.83,1437.04 1465.87,1437.07 1466.9,1437.1 1467.94,1437.12 1468.97,1437.15 1470.01,1437.18 1471.05,1437.21 1472.08,1437.24 1473.12,1437.27 1474.15,1437.3 1475.19,1437.32 1476.23,1437.35 1477.26,1437.38 1478.3,1437.41 1479.33,1437.44 1480.37,1437.46 1481.41,1437.49 1482.44,1437.52 1483.48,1437.55 1484.51,1437.57 1485.55,1437.6 1486.59,1437.63 1487.62,1437.65 1488.66,1437.68 1489.7,1437.71 1490.73,1437.74 1491.77,1437.76 1492.8,1437.79 1493.84,1437.82 1494.88,1437.84 1495.91,1437.87 1496.95,1437.89 1497.98,1437.92 1499.02,1437.95 1500.06,1437.97 1501.09,1438 1502.13,1438.03 1503.16,1438.05 1504.2,1438.08 1505.24,1438.1 1506.27,1438.13 1507.31,1438.15 1508.34,1438.18 1509.38,1438.21 1510.42,1438.23 1511.45,1438.26 1512.49,1438.28 1513.53,1438.31 1514.56,1438.33 1515.6,1438.36 1516.63,1438.38 1517.67,1438.41 1518.71,1438.43 1519.74,1438.46 1520.78,1438.48 1521.81,1438.51 1522.85,1438.53 1523.89,1438.55 1524.92,1438.58 1525.96,1438.6 1526.99,1438.63 1528.03,1438.65 1529.07,1438.68 1530.1,1438.7 1531.14,1438.72 1532.17,1438.75 1533.21,1438.77 1534.25,1438.79 1535.28,1438.82 1536.32,1438.84 1537.36,1438.87 1538.39,1438.89 1539.43,1438.91 1540.46,1438.94 1541.5,1438.96 1542.54,1438.98 1543.57,1439 1544.61,1439.03 1545.64,1439.05 1546.68,1439.07 1547.72,1439.1 1548.75,1439.12 1549.79,1439.14 1550.82,1439.16 1551.86,1439.19 1552.9,1439.21 1553.93,1439.23 1554.97,1439.25 1556,1439.28 1557.04,1439.3 1558.08,1439.32 1559.11,1439.34 1560.15,1439.36 1561.19,1439.39 1562.22,1439.41 1563.26,1439.43 1564.29,1439.45 1565.33,1439.47 1566.37,1439.49 1567.4,1439.52 1568.44,1439.54 1569.47,1439.56 1570.51,1439.58 1571.55,1439.6 1572.58,1439.62 1573.62,1439.64 1574.65,1439.66 1575.69,1439.69 1576.73,1439.71 1577.76,1439.73 1578.8,1439.75 1579.83,1439.77 1580.87,1439.79 1581.91,1439.81 1582.94,1439.83 1583.98,1439.85 1585.02,1439.87 1586.05,1439.89 1587.09,1439.91 1588.12,1439.93 1589.16,1439.95 1590.2,1439.97 1591.23,1439.99 1592.27,1440.01 1593.3,1440.03 1594.34,1440.05 1595.38,1440.07 1596.41,1440.09 1597.45,1440.11 1598.48,1440.13 1599.52,1440.15 1600.56,1440.17 1601.59,1440.19 1602.63,1440.21 1603.66,1440.23 1604.7,1440.25 1605.74,1440.27 1606.77,1440.29 1607.81,1440.31 1608.85,1440.32 1609.88,1440.34 1610.92,1440.36 1611.95,1440.38 1612.99,1440.4 1614.03,1440.42 1615.06,1440.44 1616.1,1440.46 1617.13,1440.48 1618.17,1440.49 1619.21,1440.51 1620.24,1440.53 1621.28,1440.55 1622.31,1440.57 1623.35,1440.59 1624.39,1440.6 1625.42,1440.62 1626.46,1440.64 1627.49,1440.66 1628.53,1440.68 1629.57,1440.69 1630.6,1440.71 1631.64,1440.73 1632.68,1440.75 1633.71,1440.76 1634.75,1440.78 1635.78,1440.8 1636.82,1440.82 1637.86,1440.84 1638.89,1440.85 1639.93,1440.87 1640.96,1440.89 1642,1440.9 1643.04,1440.92 1644.07,1440.94 1645.11,1440.96 1646.14,1440.97 1647.18,1440.99 1648.22,1441.01 1649.25,1441.02 1650.29,1441.04 1651.32,1441.06 1652.36,1441.07 1653.4,1441.09 1654.43,1441.11 1655.47,1441.12 1656.51,1441.14 1657.54,1441.16 1658.58,1441.17 1659.61,1441.19 1660.65,1441.21 1661.69,1441.22 1662.72,1441.24 1663.76,1441.26 1664.79,1441.27 1665.83,1441.29 1666.87,1441.3 1667.9,1441.32 1668.94,1441.34 1669.97,1441.35 1671.01,1441.37 1672.05,1441.38 1673.08,1441.4 1674.12,1441.42 1675.15,1441.43 1676.19,1441.45 1677.23,1441.46 1678.26,1441.48 1679.3,1441.49 1680.34,1441.51 1681.37,1441.52 1682.41,1441.54 1683.44,1441.55 1684.48,1441.57 1685.52,1441.59 1686.55,1441.6 1687.59,1441.62 1688.62,1441.63 1689.66,1441.65 1690.7,1441.66 1691.73,1441.68 1692.77,1441.69 1693.8,1441.71 1694.84,1441.72 1695.88,1441.73 1696.91,1441.75 1697.95,1441.76 1698.98,1441.78 1700.02,1441.79 1701.06,1441.81 1702.09,1441.82 1703.13,1441.84 1704.17,1441.85 1705.2,1441.87 1706.24,1441.88 1707.27,1441.89 1708.31,1441.91 1709.35,1441.92 1710.38,1441.94 1711.42,1441.95 1712.45,1441.97 1713.49,1441.98 1714.53,1441.99 1715.56,1442.01 1716.6,1442.02 1717.63,1442.03 1718.67,1442.05 1719.71,1442.06 1720.74,1442.08 1721.78,1442.09 1722.81,1442.1 1723.85,1442.12 1724.89,1442.13 1725.92,1442.14 1726.96,1442.16 1728,1442.17 1729.03,1442.18 1730.07,1442.2 1731.1,1442.21 1732.14,1442.22 1733.18,1442.24 1734.21,1442.25 1735.25,1442.26 1736.28,1442.28 1737.32,1442.29 1738.36,1442.3 1739.39,1442.32 1740.43,1442.33 1741.46,1442.34 1742.5,1442.35 1743.54,1442.37 1744.57,1442.38 1745.61,1442.39 1746.64,1442.41 1747.68,1442.42 1748.72,1442.43 1749.75,1442.44 1750.79,1442.46 1751.83,1442.47 1752.86,1442.48 1753.9,1442.49 1754.93,1442.51 1755.97,1442.52 1757.01,1442.53 1758.04,1442.54 1759.08,1442.56 1760.11,1442.57 1761.15,1442.58 1762.19,1442.59 1763.22,1442.6 1764.26,1442.62 1765.29,1442.63 1766.33,1442.64 1767.37,1442.65 1768.4,1442.66 1769.44,1442.68 1770.47,1442.69 1771.51,1442.7 1772.55,1442.71 1773.58,1442.72 1774.62,1442.73 1775.66,1442.75 1776.69,1442.76 1777.73,1442.77 1778.76,1442.78 1779.8,1442.79 1780.84,1442.8 1781.87,1442.82 1782.91,1442.83 1783.94,1442.84 1784.98,1442.85 1786.02,1442.86 1787.05,1442.87 1788.09,1442.88 1789.12,1442.89 1790.16,1442.91 1791.2,1442.92 1792.23,1442.93 1793.27,1442.94 1794.3,1442.95 1795.34,1442.96 1796.38,1442.97 1797.41,1442.98 1798.45,1442.99 1799.49,1443.01 1800.52,1443.02 1801.56,1443.03 1802.59,1443.04 1803.63,1443.05 1804.67,1443.06 1805.7,1443.07 1806.74,1443.08 1807.77,1443.09 1808.81,1443.1 1809.85,1443.11 1810.88,1443.12 1811.92,1443.13 1812.95,1443.14 1813.99,1443.15 1815.03,1443.16 1816.06,1443.17 1817.1,1443.19 1818.13,1443.2 1819.17,1443.21 1820.21,1443.22 1821.24,1443.23 1822.28,1443.24 1823.32,1443.25 1824.35,1443.26 1825.39,1443.27 1826.42,1443.28 1827.46,1443.29 1828.5,1443.3 1829.53,1443.31 1830.57,1443.32 1831.6,1443.33 1832.64,1443.34 1833.68,1443.35 1834.71,1443.36 1835.75,1443.37 1836.78,1443.38 1837.82,1443.39 1838.86,1443.39 1839.89,1443.4 1840.93,1443.41 1841.96,1443.42 1843,1443.43 1844.04,1443.44 1845.07,1443.45 1846.11,1443.46 1847.15,1443.47 1848.18,1443.48 1849.22,1443.49 1850.25,1443.5 1851.29,1443.51 1852.33,1443.52 1853.36,1443.53 1854.4,1443.54 1855.43,1443.55 1856.47,1443.56 1857.51,1443.56 1858.54,1443.57 1859.58,1443.58 1860.61,1443.59 1861.65,1443.6 1862.69,1443.61 1863.72,1443.62 1864.76,1443.63 1865.79,1443.64 1866.83,1443.65 1867.87,1443.65 1868.9,1443.66 1869.94,1443.67 1870.98,1443.68 1872.01,1443.69 1873.05,1443.7 1874.08,1443.71 1875.12,1443.72 1876.16,1443.72 1877.19,1443.73 1878.23,1443.74 1879.26,1443.75 1880.3,1443.76 1881.34,1443.77 1882.37,1443.78 1883.41,1443.78 1884.44,1443.79 1885.48,1443.8 1886.52,1443.81 1887.55,1443.82 1888.59,1443.83 1889.62,1443.83 1890.66,1443.84 1891.7,1443.85 1892.73,1443.86 1893.77,1443.87 1894.81,1443.88 1895.84,1443.88 1896.88,1443.89 1897.91,1443.9 1898.95,1443.91 1899.99,1443.92 1901.02,1443.92 1902.06,1443.93 1903.09,1443.94 1904.13,1443.95 1905.17,1443.96 1906.2,1443.96 1907.24,1443.97 1908.27,1443.98 1909.31,1443.99 1910.35,1444 1911.38,1444 1912.42,1444.01 1913.45,1444.02 1914.49,1444.03 1915.53,1444.04 1916.56,1444.04 1917.6,1444.05 1918.64,1444.06 1919.67,1444.07 1920.71,1444.07 1921.74,1444.08 1922.78,1444.09 1923.82,1444.1 1924.85,1444.1 1925.89,1444.11 1926.92,1444.12 1927.96,1444.13 1929,1444.13 1930.03,1444.14 1931.07,1444.15 1932.1,1444.16 1933.14,1444.16 1934.18,1444.17 1935.21,1444.18 1936.25,1444.18 1937.28,1444.19 1938.32,1444.2 1939.36,1444.21 1940.39,1444.21 1941.43,1444.22 1942.47,1444.23 1943.5,1444.23 1944.54,1444.24 1945.57,1444.25 1946.61,1444.26 1947.65,1444.26 1948.68,1444.27 1949.72,1444.28 1950.75,1444.28 1951.79,1444.29 1952.83,1444.3 1953.86,1444.3 1954.9,1444.31 1955.93,1444.32 1956.97,1444.33 1958.01,1444.33 1959.04,1444.34 1960.08,1444.35 1961.11,1444.35 1962.15,1444.36 1963.19,1444.37 1964.22,1444.37 1965.26,1444.38 1966.3,1444.39 1967.33,1444.39 1968.37,1444.4 1969.4,1444.41 1970.44,1444.41 1971.48,1444.42 1972.51,1444.43 1973.55,1444.43 1974.58,1444.44 1975.62,1444.44 1976.66,1444.45 1977.69,1444.46 1978.73,1444.46 1979.76,1444.47 1980.8,1444.48 1981.84,1444.48 1982.87,1444.49 1983.91,1444.5 1984.94,1444.5 1985.98,1444.51 1987.02,1444.51 1988.05,1444.52 1989.09,1444.53 1990.13,1444.53 1991.16,1444.54 1992.2,1444.55 1993.23,1444.55 1994.27,1444.56 1995.31,1444.56 1996.34,1444.57 1997.38,1444.58 1998.41,1444.58 1999.45,1444.59 2000.49,1444.59 2001.52,1444.6 2002.56,1444.61 2003.59,1444.61 2004.63,1444.62 2005.67,1444.62 2006.7,1444.63 2007.74,1444.64 2008.77,1444.64 2009.81,1444.65 2010.85,1444.65 2011.88,1444.66 2012.92,1444.66 2013.96,1444.67 2014.99,1444.68 2016.03,1444.68 2017.06,1444.69 2018.1,1444.69 2019.14,1444.7 2020.17,1444.7 2021.21,1444.71 2022.24,1444.72 2023.28,1444.72 2024.32,1444.73 2025.35,1444.73 2026.39,1444.74 2027.42,1444.74 2028.46,1444.75 2029.5,1444.75 2030.53,1444.76 2031.57,1444.77 2032.6,1444.77 2033.64,1444.78 2034.68,1444.78 2035.71,1444.79 2036.75,1444.79 2037.79,1444.8 2038.82,1444.8 2039.86,1444.81 2040.89,1444.81 2041.93,1444.82 2042.97,1444.82 2044,1444.83 2045.04,1444.83 2046.07,1444.84 2047.11,1444.85 2048.15,1444.85 2049.18,1444.86 2050.22,1444.86 2051.25,1444.87 2052.29,1444.87 2053.33,1444.88 2054.36,1444.88 2055.4,1444.89 2056.43,1444.89 2057.47,1444.9 2058.51,1444.9 2059.54,1444.91 2060.58,1444.91 2061.62,1444.92 2062.65,1444.92 2063.69,1444.93 2064.72,1444.93 2065.76,1444.94 2066.8,1444.94 2067.83,1444.95 2068.87,1444.95 2069.9,1444.96 2070.94,1444.96 2071.98,1444.97 2073.01,1444.97 2074.05,1444.98 2075.08,1444.98 2076.12,1444.98 2077.16,1444.99 2078.19,1444.99 2079.23,1445 2080.26,1445 2081.3,1445.01 2082.34,1445.01 2083.37,1445.02 2084.41,1445.02 2085.45,1445.03 2086.48,1445.03 2087.52,1445.04 2088.55,1445.04 2089.59,1445.05 2090.63,1445.05 2091.66,1445.06 2092.7,1445.06 2093.73,1445.06 2094.77,1445.07 2095.81,1445.07 2096.84,1445.08 2097.88,1445.08 2098.91,1445.09 2099.95,1445.09 2100.99,1445.1 2102.02,1445.1 2103.06,1445.1 2104.09,1445.11 2105.13,1445.11 2106.17,1445.12 2107.2,1445.12 2108.24,1445.13 2109.28,1445.13 2110.31,1445.13 2111.35,1445.14 2112.38,1445.14 2113.42,1445.15 2114.46,1445.15 2115.49,1445.16 2116.53,1445.16 2117.56,1445.16 2118.6,1445.17 2119.64,1445.17 2120.67,1445.18 2121.71,1445.18 2122.74,1445.19 2123.78,1445.19 2124.82,1445.19 2125.85,1445.2 2126.89,1445.2 2127.92,1445.21 2128.96,1445.21 2130,1445.21 2131.03,1445.22 2132.07,1445.22 2133.11,1445.23 2134.14,1445.23 2135.18,1445.23 2136.21,1445.24 2137.25,1445.24 2138.29,1445.25 2139.32,1445.25 2140.36,1445.25 2141.39,1445.26 2142.43,1445.26 2143.47,1445.27 2144.5,1445.27 2145.54,1445.27 2146.57,1445.28 2147.61,1445.28 2148.65,1445.29 2149.68,1445.29 2150.72,1445.29 2151.75,1445.3 2152.79,1445.3 2153.83,1445.31 2154.86,1445.31 2155.9,1445.31 2156.94,1445.32 2157.97,1445.32 2159.01,1445.32 2160.04,1445.33 2161.08,1445.33 2162.12,1445.33 2163.15,1445.34 2164.19,1445.34 2165.22,1445.35 2166.26,1445.35 2167.3,1445.35 2168.33,1445.36 2169.37,1445.36 2170.4,1445.36 2171.44,1445.37 2172.48,1445.37 2173.51,1445.37 2174.55,1445.38 2175.58,1445.38 2176.62,1445.39 2177.66,1445.39 2178.69,1445.39 2179.73,1445.4 2180.77,1445.4 2181.8,1445.4 2182.84,1445.41 2183.87,1445.41 2184.91,1445.41 2185.95,1445.42 2186.98,1445.42 2188.02,1445.42 2189.05,1445.43 2190.09,1445.43 2191.13,1445.43 2192.16,1445.44 2193.2,1445.44 2194.23,1445.44 2195.27,1445.45 2196.31,1445.45 2197.34,1445.45 2198.38,1445.46 2199.41,1445.46 2200.45,1445.46 2201.49,1445.47 2202.52,1445.47 2203.56,1445.47 2204.6,1445.48 2205.63,1445.48 2206.67,1445.48 2207.7,1445.49 2208.74,1445.49 2209.78,1445.49 2210.81,1445.5 2211.85,1445.5 2212.88,1445.5 2213.92,1445.51 2214.96,1445.51 2215.99,1445.51 2217.03,1445.52 2218.06,1445.52 2219.1,1445.52 2220.14,1445.53 2221.17,1445.53 2222.21,1445.53 2223.25,1445.53 2224.28,1445.54 2225.32,1445.54 2226.35,1445.54 2227.39,1445.55 2228.43,1445.55 2229.46,1445.55 2230.5,1445.56 2231.53,1445.56 2232.57,1445.56 2233.61,1445.56 2234.64,1445.57 2235.68,1445.57 2236.71,1445.57 2237.75,1445.58 2238.79,1445.58 2239.82,1445.58 2240.86,1445.59 2241.89,1445.59 2242.93,1445.59 2243.97,1445.59 2245,1445.6 2246.04,1445.6 2247.08,1445.6 2248.11,1445.61 2249.15,1445.61 2250.18,1445.61 2251.22,1445.61 2252.26,1445.62 2253.29,1445.62 2254.33,1445.62 2255.36,1445.63 2256.4,1445.63 2257.44,1445.63 2258.47,1445.63 2259.51,1445.64 2260.54,1445.64 2261.58,1445.64 2262.62,1445.64 2263.65,1445.65 2264.69,1445.65 2265.72,1445.65 2266.76,1445.66 2267.8,1445.66 2268.83,1445.66 2269.87,1445.66 2270.91,1445.67 2271.94,1445.67 2272.98,1445.67 2274.01,1445.67 2275.05,1445.68 2276.09,1445.68 2277.12,1445.68 2278.16,1445.68 2279.19,1445.69 2280.23,1445.69 2281.27,1445.69 2282.3,1445.7 2283.34,1445.7 2284.37,1445.7 2285.41,1445.7 2286.45,1445.71 2287.48,1445.71 2288.52,1445.71 2289.55,1445.71 2290.59,1445.72 "/>
<path clip-path="url(#clip310)" d="M2007.46 198.898 L2279.54 198.898 L2279.54 95.2176 L2007.46 95.2176  Z" fill="#ffffff" fill-rule="evenodd" fill-opacity="1"/>
<polyline clip-path="url(#clip310)" style="stroke:#000000; stroke-linecap:round; stroke-linejoin:round; stroke-width:4; stroke-opacity:1; fill:none" points="2007.46,198.898 2279.54,198.898 2279.54,95.2176 2007.46,95.2176 2007.46,198.898 "/>
<polyline clip-path="url(#clip310)" style="stroke:#009af9; stroke-linecap:round; stroke-linejoin:round; stroke-width:4; stroke-opacity:1; fill:none" points="2031.86,147.058 2178.3,147.058 "/>
<path clip-path="url(#clip310)" d="M2216.55 166.745 Q2214.74 171.375 2213.03 172.787 Q2211.31 174.199 2208.44 174.199 L2205.04 174.199 L2205.04 170.634 L2207.54 170.634 Q2209.3 170.634 2210.27 169.8 Q2211.24 168.967 2212.43 165.865 L2213.19 163.921 L2202.7 138.412 L2207.22 138.412 L2215.32 158.689 L2223.42 138.412 L2227.93 138.412 L2216.55 166.745 Z" fill="#000000" fill-rule="nonzero" fill-opacity="1" /><path clip-path="url(#clip310)" d="M2235.23 160.402 L2242.87 160.402 L2242.87 134.037 L2234.55 135.703 L2234.55 131.444 L2242.82 129.778 L2247.49 129.778 L2247.49 160.402 L2255.13 160.402 L2255.13 164.338 L2235.23 164.338 L2235.23 160.402 Z" fill="#000000" fill-rule="nonzero" fill-opacity="1" /></svg>
