<?xml version="1.0" encoding="utf-8"?>
<svg xmlns="http://www.w3.org/2000/svg" xmlns:xlink="http://www.w3.org/1999/xlink" width="600" height="400" viewBox="0 0 2400 1600">
<defs>
  <clipPath id="clip290">
    <rect x="0" y="0" width="2400" height="1600"/>
  </clipPath>
</defs>
<path clip-path="url(#clip290)" d="M0 1600 L2400 1600 L2400 0 L0 0  Z" fill="#ffffff" fill-rule="evenodd" fill-opacity="1"/>
<defs>
  <clipPath id="clip291">
    <rect x="480" y="0" width="1681" height="1600"/>
  </clipPath>
</defs>
<path clip-path="url(#clip290)" d="M140.696 1486.45 L2352.76 1486.45 L2352.76 47.2441 L140.696 47.2441  Z" fill="#ffffff" fill-rule="evenodd" fill-opacity="1"/>
<defs>
  <clipPath id="clip292">
    <rect x="140" y="47" width="2213" height="1440"/>
  </clipPath>
</defs>
<polyline clip-path="url(#clip292)" style="stroke:#000000; stroke-linecap:round; stroke-linejoin:round; stroke-width:2; stroke-opacity:0.1; fill:none" points="203.301,1486.45 203.301,47.2441 "/>
<polyline clip-path="url(#clip292)" style="stroke:#000000; stroke-linecap:round; stroke-linejoin:round; stroke-width:2; stroke-opacity:0.1; fill:none" points="725.013,1486.45 725.013,47.2441 "/>
<polyline clip-path="url(#clip292)" style="stroke:#000000; stroke-linecap:round; stroke-linejoin:round; stroke-width:2; stroke-opacity:0.1; fill:none" points="1246.73,1486.45 1246.73,47.2441 "/>
<polyline clip-path="url(#clip292)" style="stroke:#000000; stroke-linecap:round; stroke-linejoin:round; stroke-width:2; stroke-opacity:0.1; fill:none" points="1768.44,1486.45 1768.44,47.2441 "/>
<polyline clip-path="url(#clip292)" style="stroke:#000000; stroke-linecap:round; stroke-linejoin:round; stroke-width:2; stroke-opacity:0.1; fill:none" points="2290.15,1486.45 2290.15,47.2441 "/>
<polyline clip-path="url(#clip290)" style="stroke:#000000; stroke-linecap:round; stroke-linejoin:round; stroke-width:4; stroke-opacity:1; fill:none" points="140.696,1486.45 2352.76,1486.45 "/>
<polyline clip-path="url(#clip290)" style="stroke:#000000; stroke-linecap:round; stroke-linejoin:round; stroke-width:4; stroke-opacity:1; fill:none" points="203.301,1486.45 203.301,1467.55 "/>
<polyline clip-path="url(#clip290)" style="stroke:#000000; stroke-linecap:round; stroke-linejoin:round; stroke-width:4; stroke-opacity:1; fill:none" points="725.013,1486.45 725.013,1467.55 "/>
<polyline clip-path="url(#clip290)" style="stroke:#000000; stroke-linecap:round; stroke-linejoin:round; stroke-width:4; stroke-opacity:1; fill:none" points="1246.73,1486.45 1246.73,1467.55 "/>
<polyline clip-path="url(#clip290)" style="stroke:#000000; stroke-linecap:round; stroke-linejoin:round; stroke-width:4; stroke-opacity:1; fill:none" points="1768.44,1486.45 1768.44,1467.55 "/>
<polyline clip-path="url(#clip290)" style="stroke:#000000; stroke-linecap:round; stroke-linejoin:round; stroke-width:4; stroke-opacity:1; fill:none" points="2290.15,1486.45 2290.15,1467.55 "/>
<path clip-path="url(#clip290)" d="M203.301 1517.37 Q199.69 1517.37 197.861 1520.93 Q196.056 1524.47 196.056 1531.6 Q196.056 1538.71 197.861 1542.27 Q199.69 1545.82 203.301 1545.82 Q206.935 1545.82 208.741 1542.27 Q210.57 1538.71 210.57 1531.6 Q210.57 1524.47 208.741 1520.93 Q206.935 1517.37 203.301 1517.37 M203.301 1513.66 Q209.111 1513.66 212.167 1518.27 Q215.245 1522.85 215.245 1531.6 Q215.245 1540.33 212.167 1544.94 Q209.111 1549.52 203.301 1549.52 Q197.491 1549.52 194.412 1544.94 Q191.357 1540.33 191.357 1531.6 Q191.357 1522.85 194.412 1518.27 Q197.491 1513.66 203.301 1513.66 Z" fill="#000000" fill-rule="nonzero" fill-opacity="1" /><path clip-path="url(#clip290)" d="M684.632 1514.29 L702.988 1514.29 L702.988 1518.22 L688.914 1518.22 L688.914 1526.7 Q689.933 1526.35 690.951 1526.19 Q691.97 1526 692.988 1526 Q698.775 1526 702.155 1529.17 Q705.534 1532.34 705.534 1537.76 Q705.534 1543.34 702.062 1546.44 Q698.59 1549.52 692.27 1549.52 Q690.095 1549.52 687.826 1549.15 Q685.581 1548.78 683.173 1548.04 L683.173 1543.34 Q685.257 1544.47 687.479 1545.03 Q689.701 1545.58 692.178 1545.58 Q696.183 1545.58 698.52 1543.48 Q700.858 1541.37 700.858 1537.76 Q700.858 1534.15 698.52 1532.04 Q696.183 1529.94 692.178 1529.94 Q690.303 1529.94 688.428 1530.35 Q686.576 1530.77 684.632 1531.65 L684.632 1514.29 Z" fill="#000000" fill-rule="nonzero" fill-opacity="1" /><path clip-path="url(#clip290)" d="M724.747 1517.37 Q721.136 1517.37 719.307 1520.93 Q717.502 1524.47 717.502 1531.6 Q717.502 1538.71 719.307 1542.27 Q721.136 1545.82 724.747 1545.82 Q728.381 1545.82 730.187 1542.27 Q732.016 1538.71 732.016 1531.6 Q732.016 1524.47 730.187 1520.93 Q728.381 1517.37 724.747 1517.37 M724.747 1513.66 Q730.557 1513.66 733.613 1518.27 Q736.692 1522.85 736.692 1531.6 Q736.692 1540.33 733.613 1544.94 Q730.557 1549.52 724.747 1549.52 Q718.937 1549.52 715.858 1544.94 Q712.803 1540.33 712.803 1531.6 Q712.803 1522.85 715.858 1518.27 Q718.937 1513.66 724.747 1513.66 Z" fill="#000000" fill-rule="nonzero" fill-opacity="1" /><path clip-path="url(#clip290)" d="M754.909 1517.37 Q751.298 1517.37 749.469 1520.93 Q747.664 1524.47 747.664 1531.6 Q747.664 1538.71 749.469 1542.27 Q751.298 1545.82 754.909 1545.82 Q758.543 1545.82 760.349 1542.27 Q762.178 1538.71 762.178 1531.6 Q762.178 1524.47 760.349 1520.93 Q758.543 1517.37 754.909 1517.37 M754.909 1513.66 Q760.719 1513.66 763.775 1518.27 Q766.853 1522.85 766.853 1531.6 Q766.853 1540.33 763.775 1544.94 Q760.719 1549.52 754.909 1549.52 Q749.099 1549.52 746.02 1544.94 Q742.965 1540.33 742.965 1531.6 Q742.965 1522.85 746.02 1518.27 Q749.099 1513.66 754.909 1513.66 Z" fill="#000000" fill-rule="nonzero" fill-opacity="1" /><path clip-path="url(#clip290)" d="M1191.25 1544.91 L1198.89 1544.91 L1198.89 1518.55 L1190.58 1520.21 L1190.58 1515.95 L1198.84 1514.29 L1203.52 1514.29 L1203.52 1544.91 L1211.16 1544.91 L1211.16 1548.85 L1191.25 1548.85 L1191.25 1544.91 Z" fill="#000000" fill-rule="nonzero" fill-opacity="1" /><path clip-path="url(#clip290)" d="M1230.6 1517.37 Q1226.99 1517.37 1225.16 1520.93 Q1223.36 1524.47 1223.36 1531.6 Q1223.36 1538.71 1225.16 1542.27 Q1226.99 1545.82 1230.6 1545.82 Q1234.24 1545.82 1236.04 1542.27 Q1237.87 1538.71 1237.87 1531.6 Q1237.87 1524.47 1236.04 1520.93 Q1234.24 1517.37 1230.6 1517.37 M1230.6 1513.66 Q1236.41 1513.66 1239.47 1518.27 Q1242.55 1522.85 1242.55 1531.6 Q1242.55 1540.33 1239.47 1544.94 Q1236.41 1549.52 1230.6 1549.52 Q1224.79 1549.52 1221.71 1544.94 Q1218.66 1540.33 1218.66 1531.6 Q1218.66 1522.85 1221.71 1518.27 Q1224.79 1513.66 1230.6 1513.66 Z" fill="#000000" fill-rule="nonzero" fill-opacity="1" /><path clip-path="url(#clip290)" d="M1260.77 1517.37 Q1257.15 1517.37 1255.33 1520.93 Q1253.52 1524.47 1253.52 1531.6 Q1253.52 1538.71 1255.33 1542.27 Q1257.15 1545.82 1260.77 1545.82 Q1264.4 1545.82 1266.2 1542.27 Q1268.03 1538.71 1268.03 1531.6 Q1268.03 1524.47 1266.2 1520.93 Q1264.4 1517.37 1260.77 1517.37 M1260.77 1513.66 Q1266.58 1513.66 1269.63 1518.27 Q1272.71 1522.85 1272.71 1531.6 Q1272.71 1540.33 1269.63 1544.94 Q1266.58 1549.52 1260.77 1549.52 Q1254.95 1549.52 1251.88 1544.94 Q1248.82 1540.33 1248.82 1531.6 Q1248.82 1522.85 1251.88 1518.27 Q1254.95 1513.66 1260.77 1513.66 Z" fill="#000000" fill-rule="nonzero" fill-opacity="1" /><path clip-path="url(#clip290)" d="M1290.93 1517.37 Q1287.32 1517.37 1285.49 1520.93 Q1283.68 1524.47 1283.68 1531.6 Q1283.68 1538.71 1285.49 1542.27 Q1287.32 1545.82 1290.93 1545.82 Q1294.56 1545.82 1296.37 1542.27 Q1298.2 1538.71 1298.2 1531.6 Q1298.2 1524.47 1296.37 1520.93 Q1294.56 1517.37 1290.93 1517.37 M1290.93 1513.66 Q1296.74 1513.66 1299.79 1518.27 Q1302.87 1522.85 1302.87 1531.6 Q1302.87 1540.33 1299.79 1544.94 Q1296.74 1549.52 1290.93 1549.52 Q1285.12 1549.52 1282.04 1544.94 Q1278.98 1540.33 1278.98 1531.6 Q1278.98 1522.85 1282.04 1518.27 Q1285.12 1513.66 1290.93 1513.66 Z" fill="#000000" fill-rule="nonzero" fill-opacity="1" /><path clip-path="url(#clip290)" d="M1712.96 1544.91 L1720.6 1544.91 L1720.6 1518.55 L1712.29 1520.21 L1712.29 1515.95 L1720.56 1514.29 L1725.23 1514.29 L1725.23 1544.91 L1732.87 1544.91 L1732.87 1548.85 L1712.96 1548.85 L1712.96 1544.91 Z" fill="#000000" fill-rule="nonzero" fill-opacity="1" /><path clip-path="url(#clip290)" d="M1742.36 1514.29 L1760.72 1514.29 L1760.72 1518.22 L1746.64 1518.22 L1746.64 1526.7 Q1747.66 1526.35 1748.68 1526.19 Q1749.7 1526 1750.72 1526 Q1756.51 1526 1759.88 1529.17 Q1763.26 1532.34 1763.26 1537.76 Q1763.26 1543.34 1759.79 1546.44 Q1756.32 1549.52 1750 1549.52 Q1747.82 1549.52 1745.56 1549.15 Q1743.31 1548.78 1740.9 1548.04 L1740.9 1543.34 Q1742.99 1544.47 1745.21 1545.03 Q1747.43 1545.58 1749.91 1545.58 Q1753.91 1545.58 1756.25 1543.48 Q1758.59 1541.37 1758.59 1537.76 Q1758.59 1534.15 1756.25 1532.04 Q1753.91 1529.94 1749.91 1529.94 Q1748.03 1529.94 1746.16 1530.35 Q1744.31 1530.77 1742.36 1531.65 L1742.36 1514.29 Z" fill="#000000" fill-rule="nonzero" fill-opacity="1" /><path clip-path="url(#clip290)" d="M1782.48 1517.37 Q1778.87 1517.37 1777.04 1520.93 Q1775.23 1524.47 1775.23 1531.6 Q1775.23 1538.71 1777.04 1542.27 Q1778.87 1545.82 1782.48 1545.82 Q1786.11 1545.82 1787.92 1542.27 Q1789.75 1538.71 1789.75 1531.6 Q1789.75 1524.47 1787.92 1520.93 Q1786.11 1517.37 1782.48 1517.37 M1782.48 1513.66 Q1788.29 1513.66 1791.34 1518.27 Q1794.42 1522.85 1794.42 1531.6 Q1794.42 1540.33 1791.34 1544.94 Q1788.29 1549.52 1782.48 1549.52 Q1776.67 1549.52 1773.59 1544.94 Q1770.53 1540.33 1770.53 1531.6 Q1770.53 1522.85 1773.59 1518.27 Q1776.67 1513.66 1782.48 1513.66 Z" fill="#000000" fill-rule="nonzero" fill-opacity="1" /><path clip-path="url(#clip290)" d="M1812.64 1517.37 Q1809.03 1517.37 1807.2 1520.93 Q1805.39 1524.47 1805.39 1531.6 Q1805.39 1538.71 1807.2 1542.27 Q1809.03 1545.82 1812.64 1545.82 Q1816.27 1545.82 1818.08 1542.27 Q1819.91 1538.71 1819.91 1531.6 Q1819.91 1524.47 1818.08 1520.93 Q1816.27 1517.37 1812.64 1517.37 M1812.64 1513.66 Q1818.45 1513.66 1821.5 1518.27 Q1824.58 1522.85 1824.58 1531.6 Q1824.58 1540.33 1821.5 1544.94 Q1818.45 1549.52 1812.64 1549.52 Q1806.83 1549.52 1803.75 1544.94 Q1800.69 1540.33 1800.69 1531.6 Q1800.69 1522.85 1803.75 1518.27 Q1806.83 1513.66 1812.64 1513.66 Z" fill="#000000" fill-rule="nonzero" fill-opacity="1" /><path clip-path="url(#clip290)" d="M2238.76 1544.91 L2255.08 1544.91 L2255.08 1548.85 L2233.14 1548.85 L2233.14 1544.91 Q2235.8 1542.16 2240.38 1537.53 Q2244.99 1532.88 2246.17 1531.53 Q2248.41 1529.01 2249.29 1527.27 Q2250.2 1525.51 2250.2 1523.82 Q2250.2 1521.07 2248.25 1519.33 Q2246.33 1517.6 2243.23 1517.6 Q2241.03 1517.6 2238.58 1518.36 Q2236.15 1519.13 2233.37 1520.68 L2233.37 1515.95 Q2236.19 1514.82 2238.65 1514.24 Q2241.1 1513.66 2243.14 1513.66 Q2248.51 1513.66 2251.7 1516.35 Q2254.9 1519.03 2254.9 1523.52 Q2254.9 1525.65 2254.09 1527.57 Q2253.3 1529.47 2251.19 1532.07 Q2250.61 1532.74 2247.51 1535.95 Q2244.41 1539.15 2238.76 1544.91 Z" fill="#000000" fill-rule="nonzero" fill-opacity="1" /><path clip-path="url(#clip290)" d="M2274.9 1517.37 Q2271.28 1517.37 2269.46 1520.93 Q2267.65 1524.47 2267.65 1531.6 Q2267.65 1538.71 2269.46 1542.27 Q2271.28 1545.82 2274.9 1545.82 Q2278.53 1545.82 2280.34 1542.27 Q2282.16 1538.71 2282.16 1531.6 Q2282.16 1524.47 2280.34 1520.93 Q2278.53 1517.37 2274.9 1517.37 M2274.9 1513.66 Q2280.71 1513.66 2283.76 1518.27 Q2286.84 1522.85 2286.84 1531.6 Q2286.84 1540.33 2283.76 1544.94 Q2280.71 1549.52 2274.9 1549.52 Q2269.09 1549.52 2266.01 1544.94 Q2262.95 1540.33 2262.95 1531.6 Q2262.95 1522.85 2266.01 1518.27 Q2269.09 1513.66 2274.9 1513.66 Z" fill="#000000" fill-rule="nonzero" fill-opacity="1" /><path clip-path="url(#clip290)" d="M2305.06 1517.37 Q2301.45 1517.37 2299.62 1520.93 Q2297.81 1524.47 2297.81 1531.6 Q2297.81 1538.71 2299.62 1542.27 Q2301.45 1545.82 2305.06 1545.82 Q2308.69 1545.82 2310.5 1542.27 Q2312.33 1538.71 2312.33 1531.6 Q2312.33 1524.47 2310.5 1520.93 Q2308.69 1517.37 2305.06 1517.37 M2305.06 1513.66 Q2310.87 1513.66 2313.92 1518.27 Q2317 1522.85 2317 1531.6 Q2317 1540.33 2313.92 1544.94 Q2310.87 1549.52 2305.06 1549.52 Q2299.25 1549.52 2296.17 1544.94 Q2293.11 1540.33 2293.11 1531.6 Q2293.11 1522.85 2296.17 1518.27 Q2299.25 1513.66 2305.06 1513.66 Z" fill="#000000" fill-rule="nonzero" fill-opacity="1" /><path clip-path="url(#clip290)" d="M2335.22 1517.37 Q2331.61 1517.37 2329.78 1520.93 Q2327.97 1524.47 2327.97 1531.6 Q2327.97 1538.71 2329.78 1542.27 Q2331.61 1545.82 2335.22 1545.82 Q2338.85 1545.82 2340.66 1542.27 Q2342.49 1538.71 2342.49 1531.6 Q2342.49 1524.47 2340.66 1520.93 Q2338.85 1517.37 2335.22 1517.37 M2335.22 1513.66 Q2341.03 1513.66 2344.09 1518.27 Q2347.16 1522.85 2347.16 1531.6 Q2347.16 1540.33 2344.09 1544.94 Q2341.03 1549.52 2335.22 1549.52 Q2329.41 1549.52 2326.33 1544.94 Q2323.28 1540.33 2323.28 1531.6 Q2323.28 1522.85 2326.33 1518.27 Q2329.41 1513.66 2335.22 1513.66 Z" fill="#000000" fill-rule="nonzero" fill-opacity="1" /><polyline clip-path="url(#clip292)" style="stroke:#000000; stroke-linecap:round; stroke-linejoin:round; stroke-width:2; stroke-opacity:0.1; fill:none" points="140.696,1430.29 2352.76,1430.29 "/>
<polyline clip-path="url(#clip292)" style="stroke:#000000; stroke-linecap:round; stroke-linejoin:round; stroke-width:2; stroke-opacity:0.1; fill:none" points="140.696,1186.21 2352.76,1186.21 "/>
<polyline clip-path="url(#clip292)" style="stroke:#000000; stroke-linecap:round; stroke-linejoin:round; stroke-width:2; stroke-opacity:0.1; fill:none" points="140.696,942.138 2352.76,942.138 "/>
<polyline clip-path="url(#clip292)" style="stroke:#000000; stroke-linecap:round; stroke-linejoin:round; stroke-width:2; stroke-opacity:0.1; fill:none" points="140.696,698.062 2352.76,698.062 "/>
<polyline clip-path="url(#clip292)" style="stroke:#000000; stroke-linecap:round; stroke-linejoin:round; stroke-width:2; stroke-opacity:0.1; fill:none" points="140.696,453.986 2352.76,453.986 "/>
<polyline clip-path="url(#clip292)" style="stroke:#000000; stroke-linecap:round; stroke-linejoin:round; stroke-width:2; stroke-opacity:0.1; fill:none" points="140.696,209.911 2352.76,209.911 "/>
<polyline clip-path="url(#clip290)" style="stroke:#000000; stroke-linecap:round; stroke-linejoin:round; stroke-width:4; stroke-opacity:1; fill:none" points="140.696,1486.45 140.696,47.2441 "/>
<polyline clip-path="url(#clip290)" style="stroke:#000000; stroke-linecap:round; stroke-linejoin:round; stroke-width:4; stroke-opacity:1; fill:none" points="140.696,1430.29 159.593,1430.29 "/>
<polyline clip-path="url(#clip290)" style="stroke:#000000; stroke-linecap:round; stroke-linejoin:round; stroke-width:4; stroke-opacity:1; fill:none" points="140.696,1186.21 159.593,1186.21 "/>
<polyline clip-path="url(#clip290)" style="stroke:#000000; stroke-linecap:round; stroke-linejoin:round; stroke-width:4; stroke-opacity:1; fill:none" points="140.696,942.138 159.593,942.138 "/>
<polyline clip-path="url(#clip290)" style="stroke:#000000; stroke-linecap:round; stroke-linejoin:round; stroke-width:4; stroke-opacity:1; fill:none" points="140.696,698.062 159.593,698.062 "/>
<polyline clip-path="url(#clip290)" style="stroke:#000000; stroke-linecap:round; stroke-linejoin:round; stroke-width:4; stroke-opacity:1; fill:none" points="140.696,453.986 159.593,453.986 "/>
<polyline clip-path="url(#clip290)" style="stroke:#000000; stroke-linecap:round; stroke-linejoin:round; stroke-width:4; stroke-opacity:1; fill:none" points="140.696,209.911 159.593,209.911 "/>
<path clip-path="url(#clip290)" d="M83.7929 1413.01 L102.149 1413.01 L102.149 1416.94 L88.0753 1416.94 L88.0753 1425.42 Q89.0938 1425.07 90.1123 1424.91 Q91.1308 1424.72 92.1493 1424.72 Q97.9363 1424.72 101.316 1427.89 Q104.696 1431.06 104.696 1436.48 Q104.696 1442.06 101.223 1445.16 Q97.7511 1448.24 91.4317 1448.24 Q89.2558 1448.24 86.9873 1447.87 Q84.7419 1447.5 82.3346 1446.76 L82.3346 1442.06 Q84.4179 1443.19 86.6401 1443.75 Q88.8623 1444.3 91.3391 1444.3 Q95.3437 1444.3 97.6817 1442.2 Q100.02 1440.09 100.02 1436.48 Q100.02 1432.87 97.6817 1430.76 Q95.3437 1428.66 91.3391 1428.66 Q89.4641 1428.66 87.5892 1429.07 Q85.7373 1429.49 83.7929 1430.37 L83.7929 1413.01 Z" fill="#000000" fill-rule="nonzero" fill-opacity="1" /><path clip-path="url(#clip290)" d="M53.3995 1199.56 L61.0384 1199.56 L61.0384 1173.19 L52.7282 1174.86 L52.7282 1170.6 L60.9921 1168.93 L65.668 1168.93 L65.668 1199.56 L73.3068 1199.56 L73.3068 1203.49 L53.3995 1203.49 L53.3995 1199.56 Z" fill="#000000" fill-rule="nonzero" fill-opacity="1" /><path clip-path="url(#clip290)" d="M92.7512 1172.01 Q89.1401 1172.01 87.3114 1175.58 Q85.5058 1179.12 85.5058 1186.25 Q85.5058 1193.35 87.3114 1196.92 Q89.1401 1200.46 92.7512 1200.46 Q96.3854 1200.46 98.1909 1196.92 Q100.02 1193.35 100.02 1186.25 Q100.02 1179.12 98.1909 1175.58 Q96.3854 1172.01 92.7512 1172.01 M92.7512 1168.31 Q98.5613 1168.31 101.617 1172.91 Q104.696 1177.5 104.696 1186.25 Q104.696 1194.97 101.617 1199.58 Q98.5613 1204.16 92.7512 1204.16 Q86.941 1204.16 83.8623 1199.58 Q80.8068 1194.97 80.8068 1186.25 Q80.8068 1177.5 83.8623 1172.91 Q86.941 1168.31 92.7512 1168.31 Z" fill="#000000" fill-rule="nonzero" fill-opacity="1" /><path clip-path="url(#clip290)" d="M54.3949 955.482 L62.0337 955.482 L62.0337 929.117 L53.7236 930.784 L53.7236 926.524 L61.9874 924.858 L66.6633 924.858 L66.6633 955.482 L74.3022 955.482 L74.3022 959.418 L54.3949 959.418 L54.3949 955.482 Z" fill="#000000" fill-rule="nonzero" fill-opacity="1" /><path clip-path="url(#clip290)" d="M83.7929 924.858 L102.149 924.858 L102.149 928.793 L88.0753 928.793 L88.0753 937.265 Q89.0938 936.918 90.1123 936.756 Q91.1308 936.571 92.1493 936.571 Q97.9363 936.571 101.316 939.742 Q104.696 942.913 104.696 948.33 Q104.696 953.908 101.223 957.01 Q97.7511 960.089 91.4317 960.089 Q89.2558 960.089 86.9873 959.719 Q84.7419 959.348 82.3346 958.607 L82.3346 953.908 Q84.4179 955.043 86.6401 955.598 Q88.8623 956.154 91.3391 956.154 Q95.3437 956.154 97.6817 954.047 Q100.02 951.941 100.02 948.33 Q100.02 944.719 97.6817 942.612 Q95.3437 940.506 91.3391 940.506 Q89.4641 940.506 87.5892 940.922 Q85.7373 941.339 83.7929 942.219 L83.7929 924.858 Z" fill="#000000" fill-rule="nonzero" fill-opacity="1" /><path clip-path="url(#clip290)" d="M56.6171 711.407 L72.9365 711.407 L72.9365 715.342 L50.9921 715.342 L50.9921 711.407 Q53.6541 708.652 58.2375 704.023 Q62.8439 699.37 64.0245 698.027 Q66.2698 695.504 67.1494 693.768 Q68.0522 692.009 68.0522 690.319 Q68.0522 687.564 66.1078 685.828 Q64.1865 684.092 61.0847 684.092 Q58.8856 684.092 56.4319 684.856 Q54.0014 685.62 51.2236 687.171 L51.2236 682.449 Q54.0477 681.314 56.5014 680.736 Q58.955 680.157 60.9921 680.157 Q66.3624 680.157 69.5568 682.842 Q72.7513 685.527 72.7513 690.018 Q72.7513 692.148 71.9411 694.069 Q71.1541 695.967 69.0476 698.56 Q68.4689 699.231 65.367 702.449 Q62.2652 705.643 56.6171 711.407 Z" fill="#000000" fill-rule="nonzero" fill-opacity="1" /><path clip-path="url(#clip290)" d="M92.7512 683.861 Q89.1401 683.861 87.3114 687.426 Q85.5058 690.967 85.5058 698.097 Q85.5058 705.203 87.3114 708.768 Q89.1401 712.31 92.7512 712.31 Q96.3854 712.31 98.1909 708.768 Q100.02 705.203 100.02 698.097 Q100.02 690.967 98.1909 687.426 Q96.3854 683.861 92.7512 683.861 M92.7512 680.157 Q98.5613 680.157 101.617 684.763 Q104.696 689.347 104.696 698.097 Q104.696 706.824 101.617 711.43 Q98.5613 716.013 92.7512 716.013 Q86.941 716.013 83.8623 711.43 Q80.8068 706.824 80.8068 698.097 Q80.8068 689.347 83.8623 684.763 Q86.941 680.157 92.7512 680.157 Z" fill="#000000" fill-rule="nonzero" fill-opacity="1" /><path clip-path="url(#clip290)" d="M57.6125 467.331 L73.9318 467.331 L73.9318 471.266 L51.9875 471.266 L51.9875 467.331 Q54.6495 464.577 59.2328 459.947 Q63.8393 455.294 65.0198 453.952 Q67.2652 451.429 68.1448 449.692 Q69.0476 447.933 69.0476 446.243 Q69.0476 443.489 67.1032 441.753 Q65.1819 440.017 62.08 440.017 Q59.881 440.017 57.4273 440.78 Q54.9967 441.544 52.219 443.095 L52.219 438.373 Q55.043 437.239 57.4967 436.66 Q59.9504 436.081 61.9874 436.081 Q67.3578 436.081 70.5522 438.767 Q73.7466 441.452 73.7466 445.942 Q73.7466 448.072 72.9365 449.993 Q72.1494 451.892 70.0429 454.484 Q69.4642 455.155 66.3624 458.373 Q63.2606 461.567 57.6125 467.331 Z" fill="#000000" fill-rule="nonzero" fill-opacity="1" /><path clip-path="url(#clip290)" d="M83.7929 436.706 L102.149 436.706 L102.149 440.642 L88.0753 440.642 L88.0753 449.114 Q89.0938 448.767 90.1123 448.605 Q91.1308 448.419 92.1493 448.419 Q97.9363 448.419 101.316 451.591 Q104.696 454.762 104.696 460.179 Q104.696 465.757 101.223 468.859 Q97.7511 471.938 91.4317 471.938 Q89.2558 471.938 86.9873 471.567 Q84.7419 471.197 82.3346 470.456 L82.3346 465.757 Q84.4179 466.891 86.6401 467.447 Q88.8623 468.003 91.3391 468.003 Q95.3437 468.003 97.6817 465.896 Q100.02 463.79 100.02 460.179 Q100.02 456.567 97.6817 454.461 Q95.3437 452.354 91.3391 452.354 Q89.4641 452.354 87.5892 452.771 Q85.7373 453.188 83.7929 454.067 L83.7929 436.706 Z" fill="#000000" fill-rule="nonzero" fill-opacity="1" /><path clip-path="url(#clip290)" d="M66.7559 208.557 Q70.1124 209.274 71.9874 211.543 Q73.8855 213.811 73.8855 217.145 Q73.8855 222.26 70.367 225.061 Q66.8485 227.862 60.3671 227.862 Q58.1912 227.862 55.8764 227.422 Q53.5847 227.006 51.131 226.149 L51.131 221.635 Q53.0754 222.77 55.3903 223.348 Q57.7051 223.927 60.2282 223.927 Q64.6263 223.927 66.918 222.191 Q69.2328 220.455 69.2328 217.145 Q69.2328 214.089 67.08 212.376 Q64.9504 210.64 61.131 210.64 L57.1032 210.64 L57.1032 206.797 L61.3161 206.797 Q64.7652 206.797 66.5939 205.432 Q68.4226 204.043 68.4226 201.45 Q68.4226 198.788 66.5245 197.376 Q64.6495 195.941 61.131 195.941 Q59.2097 195.941 57.0106 196.358 Q54.8115 196.774 52.1727 197.654 L52.1727 193.487 Q54.8347 192.747 57.1495 192.376 Q59.4875 192.006 61.5476 192.006 Q66.8717 192.006 69.9735 194.436 Q73.0753 196.844 73.0753 200.964 Q73.0753 203.834 71.4318 205.825 Q69.7883 207.793 66.7559 208.557 Z" fill="#000000" fill-rule="nonzero" fill-opacity="1" /><path clip-path="url(#clip290)" d="M92.7512 195.71 Q89.1401 195.71 87.3114 199.274 Q85.5058 202.816 85.5058 209.946 Q85.5058 217.052 87.3114 220.617 Q89.1401 224.158 92.7512 224.158 Q96.3854 224.158 98.1909 220.617 Q100.02 217.052 100.02 209.946 Q100.02 202.816 98.1909 199.274 Q96.3854 195.71 92.7512 195.71 M92.7512 192.006 Q98.5613 192.006 101.617 196.612 Q104.696 201.196 104.696 209.946 Q104.696 218.672 101.617 223.279 Q98.5613 227.862 92.7512 227.862 Q86.941 227.862 83.8623 223.279 Q80.8068 218.672 80.8068 209.946 Q80.8068 201.196 83.8623 196.612 Q86.941 192.006 92.7512 192.006 Z" fill="#000000" fill-rule="nonzero" fill-opacity="1" /><polyline clip-path="url(#clip292)" style="stroke:#009af9; stroke-linecap:round; stroke-linejoin:round; stroke-width:4; stroke-opacity:1; fill:none" points="203.301,1209.05 204.344,1210.39 205.388,1382.46 206.431,1383.18 207.475,1218.12 208.518,1219.85 209.562,946.671 210.605,951.101 211.648,1386.47 212.692,1387.42 213.735,1346.39 214.779,1347.69 215.822,1186.23 216.866,1187.68 217.909,1304.18 218.952,1306.27 219.996,1307.49 221.039,1308.64 222.083,1445.1 223.126,1445.72 224.17,984.773 225.213,988.084 226.256,1196.9 227.3,1198.54 228.343,1245.93 229.387,1247.34 230.43,1415.47 231.473,1416.31 232.517,1124.41 233.56,1126.74 234.604,1332.56 235.647,1333.51 236.691,902.124 237.734,905.793 238.777,975.049 239.821,977.048 240.864,1198.3 241.908,1199.74 242.951,1196.23 243.995,1198 245.038,853.988 246.081,857.574 247.125,1053.72 248.168,1056.12 249.212,941.286 250.255,945.873 251.299,862.307 252.342,866.912 253.385,1255.68 254.429,1256.41 255.472,924.471 256.516,926.911 257.559,720.439 258.603,724.516 259.646,974.353 260.689,976.704 261.733,1062.43 262.776,1064.12 263.82,776.454 264.863,780.463 265.907,916.046 266.95,917.95 267.993,1211.51 269.037,1212.71 270.08,1063.45 271.124,1065.67 272.167,1158.96 273.21,1159.98 274.254,1148.65 275.297,1149.68 276.341,1101.67 277.384,1103.19 278.428,854.506 279.471,856.879 280.514,924.185 281.558,925.602 282.601,899.332 283.645,901.832 284.688,1139.4 285.732,1140.23 286.775,728.132 287.818,731.236 288.862,1023.88 289.905,1026.02 290.949,693.926 291.992,697.204 293.036,987.452 294.079,989.598 295.122,837.193 296.166,838.46 297.209,941.897 298.253,943.292 299.296,915.757 300.34,918.66 301.383,885.221 302.426,887.396 303.47,865.687 304.513,867.464 305.557,920.931 306.6,923.265 307.643,897.059 308.687,899.168 309.73,751.306 310.774,752.826 311.817,762.646 312.861,764.724 313.904,895.802 314.947,897.616 315.991,528.756 317.034,530.923 318.078,756.365 319.121,759.225 320.165,730.76 321.208,734.334 322.251,610.128 323.295,612.9 324.338,923.259 325.382,924.494 326.425,764.411 327.469,766.149 328.512,841.722 329.555,842.984 330.599,366.788 331.642,371.284 332.686,649.44 333.729,651.049 334.773,627.92 335.816,629.685 336.859,751.181 337.903,752.993 338.946,335.914 339.99,338.168 341.033,628.985 342.077,632.067 343.12,774.067 344.163,775.567 345.207,459.788 346.25,461.822 347.294,517.531 348.337,519.842 349.38,617.22 350.424,618.709 351.467,672.755 352.511,674.803 353.554,601.328 354.598,602.759 355.641,690.746 356.684,691.866 357.728,712.748 358.771,715.224 359.815,821.768 360.858,822.904 361.902,781.803 362.945,783.515 363.988,659.961 365.032,662.001 366.075,728.44 367.119,730.059 368.162,567.634 369.206,569.263 370.249,699.637 371.292,700.974 372.336,880.901 373.379,881.339 374.423,400.898 375.466,403.573 376.51,648.537 377.553,649.6 378.596,848.861 379.64,849.924 380.683,598.151 381.727,600.24 382.77,389.447 383.813,391.05 384.857,656.471 385.9,658.09 386.944,554.182 387.987,555.701 389.031,559.727 390.074,560.647 391.117,534.385 392.161,535.625 393.204,635.788 394.248,636.954 395.291,629.767 396.335,631.127 397.378,685.166 398.421,686.416 399.465,620.182 400.508,622.206 401.552,813.618 402.595,815.689 403.639,514.07 404.682,515.068 405.725,312.099 406.769,313.46 407.812,87.9763 408.856,91.765 409.899,329.119 410.943,331.133 411.986,779.558 413.029,780.644 414.073,554.275 415.116,555.989 416.16,630.615 417.203,632.117 418.247,648.689 419.29,650.33 420.333,711.898 421.377,712.858 422.42,348.992 423.464,350.14 424.507,537.95 425.55,540.078 426.594,669.146 427.637,670.12 428.681,670.91 429.724,671.573 430.768,642.398 431.811,643.001 432.854,428.538 433.898,429.94 434.941,554.032 435.985,555.201 437.028,559.179 438.072,560.355 439.115,381.133 440.158,382.787 441.202,738.115 442.245,741.748 443.289,539.987 444.332,541.693 445.376,714.519 446.419,714.981 447.462,666.131 448.506,667.593 449.549,313.096 450.593,314.702 451.636,640.661 452.68,642.966 453.723,271.435 454.766,272.409 455.81,552.603 456.853,554.462 457.897,462.51 458.94,464.146 459.984,632.825 461.027,633.887 462.07,631.432 463.114,633.138 464.157,397.518 465.201,398.716 466.244,693.725 467.287,694.074 468.331,749.752 469.374,750.72 470.418,471.734 471.461,473.376 472.505,637.088 473.548,637.599 474.591,588.158 475.635,590.129 476.678,491.724 477.722,492.164 478.765,537.064 479.809,539.277 480.852,581.124 481.895,584.166 482.939,649.075 483.982,649.9 485.026,549.396 486.069,550.38 487.113,574.162 488.156,575.147 489.199,516.017 490.243,517.449 491.286,458.634 492.33,459.65 493.373,337.777 494.417,339.613 495.46,296.067 496.503,298.17 497.547,610.592 498.59,611.763 499.634,585.5 500.677,588.795 501.72,486.63 502.764,488.431 503.807,483.94 504.851,485.641 505.894,417.023 506.938,419.546 507.981,525.704 509.024,526.865 510.068,590.815 511.111,592.184 512.155,659.712 513.198,660.707 514.242,530.334 515.285,532.518 516.328,628.838 517.372,629.532 518.415,390.389 519.459,391.339 520.502,586.767 521.546,587.79 522.589,531.074 523.632,532.601 524.676,584.516 525.719,586.21 526.763,602.34 527.806,603.421 528.85,416.31 529.893,417.627 530.936,617.01 531.98,618.013 533.023,578.007 534.067,579.504 535.11,632.007 536.154,633.111 537.197,470.039 538.24,472.798 539.284,326.914 540.327,329.597 541.371,460.208 542.414,461.6 543.457,550.265 544.501,551.529 545.544,518.072 546.588,519.455 547.631,501.809 548.675,502.879 549.718,640.121 550.761,642.509 551.805,538.843 552.848,539.4 553.892,435.78 554.935,438.579 555.979,441.098 557.022,442.231 558.065,519.585 559.109,522.44 560.152,159.947 561.196,163.036 562.239,673.659 563.283,675.438 564.326,558.367 565.369,559.778 566.413,591.714 567.456,593.833 568.5,630.322 569.543,631.141 570.587,612.875 571.63,614.979 572.673,600.691 573.717,601.652 574.76,632.1 575.804,632.768 576.847,617.22 577.89,618.464 578.934,582.801 579.977,584.835 581.021,649.533 582.064,650.017 583.108,535.047 584.151,535.921 585.194,507.415 586.238,509.082 587.281,619.221 588.325,622.039 589.368,253.625 590.412,255.38 591.455,616.39 592.498,618.022 593.542,541.899 594.585,543.427 595.629,497.239 596.672,499.767 597.716,580.046 598.759,581.079 599.802,492.815 600.846,494.789 601.889,575.689 602.933,576.73 603.976,576.266 605.02,577.714 606.063,546.854 607.106,548.216 608.15,587.397 609.193,588.639 610.237,572.951 611.28,573.218 612.324,548.542 613.367,549.882 614.41,571.557 615.454,573.303 616.497,214.828 617.541,216.741 618.584,608.431 619.627,608.797 620.671,399.061 621.714,400.885 622.758,600.988 623.801,601.546 624.845,562.122 625.888,564.116 626.931,511.249 627.975,512.814 629.018,584.245 630.062,585.154 631.105,634.308 632.149,635.921 633.192,618.375 634.235,619.07 635.279,600.707 636.322,601.114 637.366,258.779 638.409,260.485 639.453,520.836 640.496,521.522 641.539,147.38 642.583,150.236 643.626,580.092 644.67,581.775 645.713,547.806 646.757,548.934 647.8,650.666 648.843,651.605 649.887,578.848 650.93,579.116 651.974,567.795 653.017,568.283 654.06,550.339 655.104,551.926 656.147,284.35 657.191,285.881 658.234,611.217 659.278,612.078 660.321,557.438 661.364,558.109 662.408,457.663 663.451,459.657 664.495,433.819 665.538,434.73 666.582,412.967 667.625,414.736 668.668,537.98 669.712,539.098 670.755,284.924 671.799,287.237 672.842,283.5 673.886,285.02 674.929,546.926 675.972,547.436 677.016,273.936 678.059,275.627 679.103,580.037 680.146,580.731 681.19,375.842 682.233,378.413 683.276,550.87 684.32,552.192 685.363,587.968 686.407,588.637 687.45,624.897 688.494,625.331 689.537,242.343 690.58,245.687 691.624,577.459 692.667,578.412 693.711,641.437 694.754,641.923 695.797,580.577 696.841,581.614 697.884,405.933 698.928,408.613 699.971,599.174 701.015,600.12 702.058,602.001 703.101,603.104 704.145,533.359 705.188,533.999 706.232,543.107 707.275,544.16 708.319,323.678 709.362,326.876 710.405,522.869 711.449,525.42 712.492,586.868 713.536,588.469 714.579,555.028 715.623,557.201 716.666,468.843 717.709,470.82 718.753,416.287 719.796,417.484 720.84,552.887 721.883,553.673 722.927,620.07 723.97,620.691 725.013,392.197 726.057,393.752 727.1,617.212 728.144,617.729 729.187,494.047 730.23,495.485 731.274,596.611 732.317,597.607 733.361,569.743 734.404,570.052 735.448,542.367 736.491,545.816 737.534,495.596 738.578,496.227 739.621,578.276 740.665,579.259 741.708,385.726 742.752,387.845 743.795,518.963 744.838,519.78 745.882,538.824 746.925,539.175 747.969,615.455 749.012,617.139 750.056,600.492 751.099,603.92 752.142,387.095 753.186,387.671 754.229,564.219 755.273,564.704 756.316,564.796 757.36,565.569 758.403,572.205 759.446,574.879 760.49,447.011 761.533,448.491 762.577,554.148 763.62,555.891 764.664,456.849 765.707,457.834 766.75,564.766 767.794,565.892 768.837,618.275 769.881,619.388 770.924,447.911 771.967,448.613 773.011,539.605 774.054,539.855 775.098,591.504 776.141,592.861 777.185,498.711 778.228,500.5 779.271,560.404 780.315,560.981 781.358,576.699 782.402,577.947 783.445,615.583 784.489,616.413 785.532,517.665 786.575,519.307 787.619,577.61 788.662,578.387 789.706,546.231 790.749,547.155 791.793,509.255 792.836,510.616 793.879,605.627 794.923,607.501 795.966,416.958 797.01,418.104 798.053,447.914 799.097,448.972 800.14,505.567 801.183,506.684 802.227,508.35 803.27,509.861 804.314,517.178 805.357,518.815 806.401,514.157 807.444,515.437 808.487,537.852 809.531,540.27 810.574,536.596 811.618,537.097 812.661,535.403 813.704,535.868 814.748,378.002 815.791,379.603 816.835,394.517 817.878,395.461 818.922,625.037 819.965,626.492 821.008,411.831 822.052,412.32 823.095,527.994 824.139,530.344 825.182,221.139 826.226,223.876 827.269,575.944 828.312,576.372 829.356,621.946 830.399,622.829 831.443,402.673 832.486,403.497 833.53,547.89 834.573,548.997 835.616,595.078 836.66,596.479 837.703,336.87 838.747,337.621 839.79,566.222 840.834,566.479 841.877,572.267 842.92,573.077 843.964,443.138 845.007,445.184 846.051,547.684 847.094,548.199 848.137,542.506 849.181,543.085 850.224,549.777 851.268,551.497 852.311,583.73 853.355,584.561 854.398,592.176 855.441,593.148 856.485,352.39 857.528,353.777 858.572,528.116 859.615,529.276 860.659,429.03 861.702,430.293 862.745,394.537 863.789,397.592 864.832,363.462 865.876,365.068 866.919,526.58 867.963,528.527 869.006,571.954 870.049,573.438 871.093,391.229 872.136,392.657 873.18,544.031 874.223,544.569 875.267,398.87 876.31,400.547 877.353,555.363 878.397,556.121 879.44,551.962 880.484,553.39 881.527,469.443 882.571,470.08 883.614,395.802 884.657,396.888 885.701,511.771 886.744,513.651 887.788,569.425 888.831,570.953 889.874,367.318 890.918,368.084 891.961,291.482 893.005,293.984 894.048,541.597 895.092,542.252 896.135,563.178 897.178,563.692 898.222,542.323 899.265,543.399 900.309,537.624 901.352,538.721 902.396,545.918 903.439,547.516 904.482,410.147 905.526,411.701 906.569,586.261 907.613,586.649 908.656,209.813 909.7,211.675 910.743,581.4 911.786,581.926 912.83,587.069 913.873,588.38 914.917,247.834 915.96,249.996 917.004,385.907 918.047,388.637 919.09,376.408 920.134,377.569 921.177,531.241 922.221,531.821 923.264,517.332 924.307,520.036 925.351,568.456 926.394,570.523 927.438,509.496 928.481,511.717 929.525,537.411 930.568,539.815 931.611,528.218 932.655,528.945 933.698,536.462 934.742,537.525 935.785,562.441 936.829,563.488 937.872,564.708 938.915,566.371 939.959,428.078 941.002,429.116 942.046,601.729 943.089,602.894 944.133,330.326 945.176,332.746 946.219,569.315 947.263,570.321 948.306,608.016 949.35,608.954 950.393,546.324 951.437,547.814 952.48,599.487 953.523,599.702 954.567,570.784 955.61,572.135 956.654,527.282 957.697,528.332 958.741,373.251 959.784,374.289 960.827,566.437 961.871,566.996 962.914,571.093 963.958,572.774 965.001,501.793 966.044,503.275 967.088,527.773 968.131,528.222 969.175,536.031 970.218,537.8 971.262,369.142 972.305,371.437 973.348,205.704 974.392,206.612 975.435,527.682 976.479,529.653 977.522,642.99 978.566,643.648 979.609,572.699 980.652,574.1 981.696,539.408 982.739,542.038 983.783,522.362 984.826,523.401 985.87,436.044 986.913,436.618 987.956,273.311 989,275.299 990.043,390.766 991.087,392.125 992.13,595.407 993.174,596.229 994.217,522.907 995.26,524.469 996.304,404.63 997.347,407.621 998.391,519.625 999.434,520.434 1000.48,569.807 1001.52,570.588 1002.56,387.523 1003.61,389.665 1004.65,396.549 1005.69,397.781 1006.74,528.79 1007.78,529.426 1008.82,517.966 1009.87,519.975 1010.91,546.659 1011.96,547.105 1013,586.924 1014.04,588.107 1015.09,511.078 1016.13,511.754 1017.17,542.787 1018.22,543.735 1019.26,545.474 1020.3,546.458 1021.35,595.06 1022.39,596.261 1023.43,529.065 1024.48,529.799 1025.52,521.634 1026.56,522.696 1027.61,571.658 1028.65,572.604 1029.69,516.38 1030.74,517.701 1031.78,554.734 1032.82,555.432 1033.87,538.035 1034.91,538.405 1035.95,533.325 1037,533.941 1038.04,417.561 1039.08,420.092 1040.13,580.4 1041.17,581.183 1042.21,415.628 1043.26,418.564 1044.3,544.24 1045.34,545.436 1046.39,522.758 1047.43,523.766 1048.48,581.529 1049.52,582.811 1050.56,560.892 1051.61,562.514 1052.65,543.161 1053.69,544.036 1054.74,568.287 1055.78,570.859 1056.82,518.207 1057.87,518.926 1058.91,515.625 1059.95,516.561 1061,411.292 1062.04,412.906 1063.08,506.443 1064.13,506.991 1065.17,523.555 1066.21,525.118 1067.26,529.57 1068.3,531.092 1069.34,545.04 1070.39,546.931 1071.43,522.2 1072.47,523.414 1073.52,586.332 1074.56,587.105 1075.6,571.103 1076.65,572.623 1077.69,208.542 1078.73,209.407 1079.78,545.544 1080.82,546.735 1081.86,524.214 1082.91,524.838 1083.95,512.559 1084.99,512.838 1086.04,509.595 1087.08,510.949 1088.13,577.792 1089.17,578.727 1090.21,577.866 1091.26,578.432 1092.3,420.381 1093.34,421.313 1094.39,429.265 1095.43,430.379 1096.47,559.616 1097.52,560.715 1098.56,549.735 1099.6,550.623 1100.65,370.845 1101.69,371.841 1102.73,542.203 1103.78,543.59 1104.82,531.108 1105.86,532.979 1106.91,570.273 1107.95,571.214 1108.99,382.533 1110.04,383.014 1111.08,495.404 1112.12,496.652 1113.17,540.826 1114.21,541.635 1115.25,501.009 1116.3,502.763 1117.34,405.686 1118.38,407.166 1119.43,514.568 1120.47,514.973 1121.51,549.025 1122.56,549.996 1123.6,528.642 1124.65,530.147 1125.69,517.967 1126.73,519.951 1127.78,203.429 1128.82,205.022 1129.86,540.033 1130.91,541.145 1131.95,529.561 1132.99,530.896 1134.04,194.29 1135.08,195.99 1136.12,534.31 1137.17,534.669 1138.21,530.393 1139.25,530.915 1140.3,531.825 1141.34,532.879 1142.38,513.734 1143.43,514.038 1144.47,512.591 1145.51,513.544 1146.56,411.148 1147.6,413.22 1148.64,528.023 1149.69,528.775 1150.73,597.391 1151.77,598.36 1152.82,545.743 1153.86,547.892 1154.9,367.13 1155.95,368.06 1156.99,535.902 1158.03,537.48 1159.08,521.532 1160.12,522.572 1161.16,415.554 1162.21,418.849 1163.25,560.952 1164.3,561.488 1165.34,415.294 1166.38,416.252 1167.43,530.851 1168.47,531.963 1169.51,336.949 1170.56,338.07 1171.6,361.932 1172.64,363.129 1173.69,539.992 1174.73,541.109 1175.77,558.073 1176.82,558.817 1177.86,509.023 1178.9,509.53 1179.95,537.027 1180.99,538.409 1182.03,548.944 1183.08,550.534 1184.12,563.832 1185.16,564.163 1186.21,579.935 1187.25,581.128 1188.29,535.234 1189.34,535.697 1190.38,450.742 1191.42,453.072 1192.47,516.771 1193.51,517.322 1194.55,360.233 1195.6,361.603 1196.64,558.936 1197.68,559.661 1198.73,536.181 1199.77,537.477 1200.82,525.24 1201.86,525.754 1202.9,505.898 1203.95,506.825 1204.99,611.264 1206.03,612.496 1207.08,497.881 1208.12,499.823 1209.16,529.962 1210.21,531.05 1211.25,509.622 1212.29,510.811 1213.34,581.467 1214.38,582.837 1215.42,364.599 1216.47,365.239 1217.51,509.028 1218.55,509.69 1219.6,492.886 1220.64,493.557 1221.68,563.924 1222.73,564.903 1223.77,566.922 1224.81,567.694 1225.86,395.176 1226.9,397.174 1227.94,583.275 1228.99,585.301 1230.03,536.876 1231.07,537.525 1232.12,525.229 1233.16,525.809 1234.2,544.986 1235.25,545.397 1236.29,549.142 1237.33,549.942 1238.38,563.348 1239.42,563.952 1240.47,530.764 1241.51,531.594 1242.55,545.249 1243.6,546.638 1244.64,529.323 1245.68,530.376 1246.73,506.059 1247.77,506.901 1248.81,517.68 1249.86,518.571 1250.9,539.243 1251.94,539.562 1252.99,582.962 1254.03,584.644 1255.07,368.028 1256.12,368.864 1257.16,593.849 1258.2,596.28 1259.25,564.167 1260.29,565.953 1261.33,530.021 1262.38,530.292 1263.42,509.984 1264.46,510.843 1265.51,524.989 1266.55,526.564 1267.59,417.518 1268.64,418.823 1269.68,539.668 1270.72,541.158 1271.77,344.525 1272.81,345.958 1273.85,529.921 1274.9,531.969 1275.94,540.475 1276.99,541.847 1278.03,579.895 1279.07,580.897 1280.12,511.995 1281.16,513.972 1282.2,582.781 1283.25,583.346 1284.29,537.405 1285.33,538.639 1286.38,579.243 1287.42,580.532 1288.46,282.622 1289.51,284.202 1290.55,545.715 1291.59,547.191 1292.64,514.423 1293.68,515.559 1294.72,527.015 1295.77,528.537 1296.81,376.671 1297.85,377.501 1298.9,536.742 1299.94,537.981 1300.98,537.11 1302.03,538.056 1303.07,580.501 1304.11,582.125 1305.16,529.361 1306.2,530.358 1307.24,504.899 1308.29,506.199 1309.33,505.789 1310.37,507.296 1311.42,565.708 1312.46,566.856 1313.5,576.977 1314.55,578.187 1315.59,522.21 1316.64,523.343 1317.68,580.403 1318.72,581.508 1319.77,560.422 1320.81,561.982 1321.85,517.021 1322.9,517.982 1323.94,543.711 1324.98,545.749 1326.03,414.894 1327.07,416.392 1328.11,504.08 1329.16,505.242 1330.2,515.692 1331.24,516.181 1332.29,496.344 1333.33,498.313 1334.37,381.332 1335.42,382.117 1336.46,340.7 1337.5,341.553 1338.55,393.945 1339.59,395.612 1340.63,365.553 1341.68,367.88 1342.72,378.209 1343.76,379.951 1344.81,523.532 1345.85,524.111 1346.89,531.703 1347.94,533.377 1348.98,537.177 1350.02,537.958 1351.07,532.363 1352.11,534.986 1353.16,376.619 1354.2,378.443 1355.24,532.642 1356.29,535.054 1357.33,542.884 1358.37,543.436 1359.42,515.154 1360.46,515.857 1361.5,525.208 1362.55,527.252 1363.59,543.508 1364.63,545.097 1365.68,521.83 1366.72,522.523 1367.76,549.991 1368.81,551.158 1369.85,507.405 1370.89,508.347 1371.94,193.475 1372.98,194.801 1374.02,373.779 1375.07,375.136 1376.11,533.292 1377.15,534.757 1378.2,362.164 1379.24,363.532 1380.28,558.768 1381.33,559.242 1382.37,520.986 1383.41,521.497 1384.46,500.233 1385.5,500.973 1386.54,551.661 1387.59,552.887 1388.63,518.835 1389.67,520.334 1390.72,505.644 1391.76,507.596 1392.81,530.696 1393.85,531.529 1394.89,522.763 1395.94,527.202 1396.98,529.143 1398.02,530.292 1399.07,397.432 1400.11,399.066 1401.15,527.406 1402.2,528.088 1403.24,519.507 1404.28,520.765 1405.33,535.907 1406.37,536.829 1407.41,530.248 1408.46,531.338 1409.5,547.01 1410.54,548.334 1411.59,574.023 1412.63,574.365 1413.67,510.695 1414.72,511.714 1415.76,185.109 1416.8,187.064 1417.85,370.579 1418.89,372.21 1419.93,546.966 1420.98,547.305 1422.02,557.929 1423.06,558.262 1424.11,542.474 1425.15,543.77 1426.19,368.157 1427.24,370.052 1428.28,213.342 1429.33,215.752 1430.37,521.644 1431.41,522.874 1432.46,546.564 1433.5,548.661 1434.54,540.283 1435.59,541.433 1436.63,538.624 1437.67,539.683 1438.72,543.077 1439.76,545.215 1440.8,541.846 1441.85,542.658 1442.89,508.27 1443.93,508.71 1444.98,527.309 1446.02,528.813 1447.06,503.629 1448.11,504.689 1449.15,544.648 1450.19,546.667 1451.24,516.489 1452.28,516.648 1453.32,523.763 1454.37,524.267 1455.41,536.834 1456.45,537.087 1457.5,509.98 1458.54,511.252 1459.58,509.173 1460.63,509.827 1461.67,517.555 1462.71,520.705 1463.76,556.844 1464.8,558.219 1465.84,556.1 1466.89,557.63 1467.93,351.151 1468.98,352.425 1470.02,569.101 1471.06,571.276 1472.11,548.665 1473.15,548.872 1474.19,342.242 1475.24,343.67 1476.28,521.316 1477.32,522.28 1478.37,514.494 1479.41,515.922 1480.45,532.03 1481.5,532.648 1482.54,528.105 1483.58,528.756 1484.63,557.671 1485.67,558.52 1486.71,502.918 1487.76,504.792 1488.8,511.223 1489.84,512.631 1490.89,561.413 1491.93,562.101 1492.97,515.052 1494.02,516.327 1495.06,516.661 1496.1,517.125 1497.15,516.208 1498.19,518.304 1499.23,514.028 1500.28,515.478 1501.32,510.981 1502.36,511.622 1503.41,570.933 1504.45,572.333 1505.5,512.253 1506.54,513.199 1507.58,377.596 1508.63,379.252 1509.67,564.337 1510.71,565.079 1511.76,526.755 1512.8,527.637 1513.84,531.381 1514.89,532.014 1515.93,246.225 1516.97,247.668 1518.02,539.359 1519.06,540.118 1520.1,540.713 1521.15,541.484 1522.19,354.294 1523.23,355.985 1524.28,544.982 1525.32,546.551 1526.36,570.249 1527.41,571.396 1528.45,537.553 1529.49,538.156 1530.54,518.846 1531.58,520.748 1532.62,515.814 1533.67,517.679 1534.71,525.418 1535.75,526.929 1536.8,527.464 1537.84,528.109 1538.88,546.173 1539.93,547.229 1540.97,593.393 1542.01,594.275 1543.06,396.263 1544.1,397.673 1545.15,530.126 1546.19,530.819 1547.23,572.738 1548.28,573.638 1549.32,561.17 1550.36,562.709 1551.41,525.683 1552.45,526.542 1553.49,493.945 1554.54,496.432 1555.58,512.771 1556.62,514.083 1557.67,524.825 1558.71,527.085 1559.75,580.565 1560.8,581.691 1561.84,505.713 1562.88,506.884 1563.93,368.03 1564.97,370.315 1566.01,542.593 1567.06,543.83 1568.1,510.497 1569.14,512.494 1570.19,527.486 1571.23,529.933 1572.27,562.173 1573.32,563.906 1574.36,544.339 1575.4,545.771 1576.45,553.925 1577.49,554.426 1578.53,535.542 1579.58,537.105 1580.62,367.628 1581.67,369.427 1582.71,529.192 1583.75,530.933 1584.8,383.165 1585.84,384.778 1586.88,489.933 1587.93,491.276 1588.97,381.348 1590.01,384.26 1591.06,534.848 1592.1,535.327 1593.14,370.067 1594.19,370.485 1595.23,522.378 1596.27,525.955 1597.32,579.96 1598.36,581.241 1599.4,380.02 1600.45,381.607 1601.49,515.364 1602.53,516.208 1603.58,529.47 1604.62,530.709 1605.66,541.252 1606.71,543.128 1607.75,513.254 1608.79,513.823 1609.84,530.134 1610.88,531.865 1611.92,550.586 1612.97,551.967 1614.01,550.763 1615.05,551.46 1616.1,552.264 1617.14,554.441 1618.18,608.143 1619.23,610.49 1620.27,509.719 1621.32,510.837 1622.36,529.793 1623.4,532.257 1624.45,517.284 1625.49,518.333 1626.53,510.557 1627.58,511.671 1628.62,546.432 1629.66,547.961 1630.71,350.509 1631.75,351.301 1632.79,545.017 1633.84,546.965 1634.88,504.154 1635.92,505.548 1636.97,545.944 1638.01,548.015 1639.05,540.133 1640.1,541.012 1641.14,376.745 1642.18,379.166 1643.23,565.273 1644.27,566.398 1645.31,346.763 1646.36,347.503 1647.4,557.364 1648.44,558.493 1649.49,661.29 1650.53,661.802 1651.57,525.037 1652.62,525.935 1653.66,496.839 1654.7,498.266 1655.75,533.088 1656.79,534.243 1657.84,542.058 1658.88,542.815 1659.92,538.189 1660.97,538.703 1662.01,387.711 1663.05,389.906 1664.1,505.367 1665.14,506.239 1666.18,517.632 1667.23,518.949 1668.27,520.036 1669.31,520.255 1670.36,523.291 1671.4,523.702 1672.44,518.476 1673.49,519.544 1674.53,538.326 1675.57,538.851 1676.62,395.007 1677.66,396.343 1678.7,556.19 1679.75,557.256 1680.79,554.476 1681.83,557.077 1682.88,514.711 1683.92,515.962 1684.96,523.134 1686.01,523.323 1687.05,561.561 1688.09,562.717 1689.14,537.189 1690.18,538.004 1691.22,521.339 1692.27,522.519 1693.31,610.355 1694.35,611.794 1695.4,540.879 1696.44,542.059 1697.49,355.209 1698.53,356.203 1699.57,516.246 1700.62,517.193 1701.66,377.323 1702.7,378.59 1703.75,534.431 1704.79,534.696 1705.83,508.224 1706.88,509.164 1707.92,534.482 1708.96,535.192 1710.01,516.054 1711.05,517.665 1712.09,523.78 1713.14,524.709 1714.18,528.061 1715.22,528.777 1716.27,545.554 1717.31,546.119 1718.35,391.135 1719.4,392.311 1720.44,530.882 1721.48,532.2 1722.53,510.681 1723.57,511.578 1724.61,502.032 1725.66,502.481 1726.7,567.93 1727.74,569.35 1728.79,550.28 1729.83,553.894 1730.87,531.43 1731.92,532.292 1732.96,511.806 1734.01,513.739 1735.05,524.09 1736.09,525.309 1737.14,511.346 1738.18,512.008 1739.22,552.625 1740.27,553.784 1741.31,530.656 1742.35,532.045 1743.4,366.434 1744.44,368.698 1745.48,516.407 1746.53,518.48 1747.57,405.225 1748.61,406.716 1749.66,515.336 1750.7,516.361 1751.74,527.482 1752.79,528.311 1753.83,507.167 1754.87,508.354 1755.92,545.004 1756.96,546.348 1758,342.088 1759.05,344.142 1760.09,518.009 1761.13,518.83 1762.18,543.757 1763.22,544.761 1764.26,538.726 1765.31,539.455 1766.35,402.884 1767.39,404.347 1768.44,527.298 1769.48,528.904 1770.52,524.116 1771.57,525.201 1772.61,599.791 1773.66,600.592 1774.7,502.527 1775.74,503.367 1776.79,542.262 1777.83,544.031 1778.87,347.169 1779.92,348.606 1780.96,350.245 1782,350.863 1783.05,551.569 1784.09,552.895 1785.13,569.163 1786.18,569.423 1787.22,367.016 1788.26,368.139 1789.31,351.386 1790.35,353.449 1791.39,346.267 1792.44,347.768 1793.48,362.402 1794.52,364.266 1795.57,525.107 1796.61,526.827 1797.65,524.588 1798.7,526.046 1799.74,444.311 1800.78,445.381 1801.83,519.956 1802.87,520.819 1803.91,555.317 1804.96,556.256 1806,518.658 1807.04,520.492 1808.09,527.796 1809.13,529.159 1810.18,575.157 1811.22,577.974 1812.26,508.394 1813.31,509.893 1814.35,515.822 1815.39,516.955 1816.44,509.617 1817.48,511.138 1818.52,511.099 1819.57,511.847 1820.61,507.712 1821.65,509.214 1822.7,558.288 1823.74,559.076 1824.78,502.678 1825.83,503.434 1826.87,507.127 1827.91,507.871 1828.96,537.125 1830,537.52 1831.04,367.05 1832.09,369.099 1833.13,535.567 1834.17,537.409 1835.22,532.622 1836.26,533.851 1837.3,564.735 1838.35,565.231 1839.39,520.35 1840.43,522.118 1841.48,513.127 1842.52,514.082 1843.56,514.768 1844.61,515.497 1845.65,534.932 1846.69,536.744 1847.74,571.395 1848.78,572.212 1849.83,507.236 1850.87,508.665 1851.91,519.81 1852.96,520.949 1854,505.087 1855.04,506.33 1856.09,517.225 1857.13,519.147 1858.17,542.741 1859.22,543.769 1860.26,529.09 1861.3,530.238 1862.35,567.089 1863.39,567.509 1864.43,532.64 1865.48,533.939 1866.52,508.073 1867.56,509.821 1868.61,364.547 1869.65,365.333 1870.69,541.792 1871.74,542.339 1872.78,502.841 1873.82,504.505 1874.87,188.867 1875.91,191.184 1876.95,533.864 1878,534.676 1879.04,514.829 1880.08,515.252 1881.13,574.743 1882.17,575.197 1883.21,511.915 1884.26,513.573 1885.3,511.417 1886.35,512.565 1887.39,528.515 1888.43,529.011 1889.48,542.02 1890.52,543.593 1891.56,522.657 1892.61,524.759 1893.65,525.218 1894.69,526.003 1895.74,510.383 1896.78,510.976 1897.82,542.14 1898.87,542.921 1899.91,508.351 1900.95,510.729 1902,555.889 1903.04,556.039 1904.08,552.033 1905.13,553.5 1906.17,525.398 1907.21,525.626 1908.26,506.802 1909.3,507.359 1910.34,512.886 1911.39,513.944 1912.43,518.283 1913.47,519.278 1914.52,521.397 1915.56,522.677 1916.6,319.682 1917.65,321.408 1918.69,345.577 1919.73,347.447 1920.78,378.858 1921.82,379.643 1922.86,536.38 1923.91,537.459 1924.95,540.889 1926,542.096 1927.04,502.399 1928.08,503.97 1929.13,559.997 1930.17,561.099 1931.21,531.992 1932.26,532.379 1933.3,344.892 1934.34,346.401 1935.39,528.843 1936.43,531.031 1937.47,520.29 1938.52,521.093 1939.56,564.534 1940.6,565.307 1941.65,356.236 1942.69,357.146 1943.73,510.558 1944.78,511.951 1945.82,538.38 1946.86,540.448 1947.91,355.019 1948.95,356.404 1949.99,518.554 1951.04,519.7 1952.08,516.634 1953.12,517.131 1954.17,552.278 1955.21,555.183 1956.25,365.002 1957.3,366.553 1958.34,520.501 1959.38,521.531 1960.43,513.812 1961.47,515.012 1962.52,345.266 1963.56,346.284 1964.6,507.16 1965.65,507.891 1966.69,506.898 1967.73,507.478 1968.78,520.593 1969.82,521.504 1970.86,516.289 1971.91,516.822 1972.95,527.835 1973.99,528.338 1975.04,519.48 1976.08,520.371 1977.12,529.364 1978.17,531.867 1979.21,553.474 1980.25,553.866 1981.3,534.925 1982.34,535.404 1983.38,551.958 1984.43,552.875 1985.47,508.383 1986.51,509.291 1987.56,515.704 1988.6,516.43 1989.64,371.325 1990.69,373.634 1991.73,391.841 1992.77,393.047 1993.82,529.371 1994.86,531.038 1995.9,552.112 1996.95,554.172 1997.99,538.134 1999.03,540.286 2000.08,591.96 2001.12,592.744 2002.17,508.462 2003.21,509.907 2004.25,525.937 2005.3,526.17 2006.34,506.331 2007.38,507.786 2008.43,520.803 2009.47,521.653 2010.51,550.874 2011.56,551.638 2012.6,510.522 2013.64,511.075 2014.69,519.034 2015.73,520.472 2016.77,517.107 2017.82,517.413 2018.86,537.344 2019.9,538.2 2020.95,537.331 2021.99,538.665 2023.03,502.567 2024.08,504.154 2025.12,543.353 2026.16,545.472 2027.21,527.765 2028.25,528.955 2029.29,532.962 2030.34,534.342 2031.38,520.246 2032.42,520.969 2033.47,519.75 2034.51,520.637 2035.55,512.535 2036.6,513.846 2037.64,538.763 2038.69,539.084 2039.73,509.196 2040.77,511.362 2041.82,374.073 2042.86,374.944 2043.9,451.643 2044.95,453.916 2045.99,542.852 2047.03,543.608 2048.08,541.624 2049.12,543.234 2050.16,582.965 2051.21,584.114 2052.25,551.629 2053.29,552.258 2054.34,527.681 2055.38,529.647 2056.42,546.597 2057.47,546.726 2058.51,534.144 2059.55,536.777 2060.6,537.227 2061.64,537.972 2062.68,569.849 2063.73,572.902 2064.77,519.279 2065.81,520.562 2066.86,530.897 2067.9,533.216 2068.94,573.612 2069.99,573.991 2071.03,524.22 2072.07,525.326 2073.12,550.636 2074.16,551.692 2075.2,554.002 2076.25,554.831 2077.29,558.707 2078.34,560.046 2079.38,508.856 2080.42,511.021 2081.47,543.675 2082.51,545.567 2083.55,548.632 2084.6,548.893 2085.64,515.144 2086.68,517.105 2087.73,536.515 2088.77,539.098 2089.81,529.031 2090.86,530.075 2091.9,533.343 2092.94,535.23 2093.99,548.842 2095.03,550.84 2096.07,541.393 2097.12,542.456 2098.16,527.255 2099.2,528.789 2100.25,498.749 2101.29,499.799 2102.33,533.494 2103.38,534.341 2104.42,590.363 2105.46,591.625 2106.51,544.637 2107.55,544.888 2108.59,515.627 2109.64,518.823 2110.68,552.141 2111.72,554.404 2112.77,538.064 2113.81,538.556 2114.86,575.801 2115.9,577.211 2116.94,526.248 2117.99,526.898 2119.03,516.753 2120.07,517.33 2121.12,544.097 2122.16,544.842 2123.2,537.012 2124.25,537.572 2125.29,523.694 2126.33,524.682 2127.38,533.906 2128.42,534.606 2129.46,532.144 2130.51,533.559 2131.55,365.244 2132.59,366.772 2133.64,531.907 2134.68,532.297 2135.72,527.976 2136.77,528.306 2137.81,545.091 2138.85,546.486 2139.9,497.771 2140.94,500.154 2141.98,521.101 2143.03,522.825 2144.07,533.39 2145.11,534.486 2146.16,535.672 2147.2,536.701 2148.24,526.976 2149.29,528.014 2150.33,527.448 2151.37,529.291 2152.42,528.176 2153.46,529.669 2154.51,504.234 2155.55,505.851 2156.59,496.755 2157.64,499.046 2158.68,355.007 2159.72,357.635 2160.77,369.096 2161.81,369.622 2162.85,192.164 2163.9,194.265 2164.94,391.89 2165.98,393.407 2167.03,523.4 2168.07,524.675 2169.11,512.142 2170.16,513.183 2171.2,541.728 2172.24,543.119 2173.29,520.098 2174.33,521.047 2175.37,526.559 2176.42,527.823 2177.46,581.169 2178.5,582.566 2179.55,514.926 2180.59,517.428 2181.63,568.047 2182.68,569.974 2183.72,523.32 2184.76,524.737 2185.81,519.013 2186.85,521.59 2187.89,501.557 2188.94,503.661 2189.98,517.104 2191.03,518.167 2192.07,539.079 2193.11,541.286 2194.16,525.942 2195.2,526.63 2196.24,523.829 2197.29,524.536 2198.33,598.186 2199.37,599.143 2200.42,541.728 2201.46,542.813 2202.5,516.318 2203.55,517.176 2204.59,550.108 2205.63,550.987 2206.68,548.537 2207.72,549.335 2208.76,356.451 2209.81,359.584 2210.85,534.121 2211.89,535.127 2212.94,359.242 2213.98,360.031 2215.02,528.575 2216.07,530.585 2217.11,506.924 2218.15,507.556 2219.2,527.534 2220.24,528.242 2221.28,508.602 2222.33,511.159 2223.37,526.498 2224.41,527.111 2225.46,352.024 2226.5,354.048 2227.54,514.772 2228.59,516.018 2229.63,523.219 2230.68,523.594 2231.72,511.454 2232.76,512.506 2233.81,377.932 2234.85,378.307 2235.89,538.825 2236.94,539.892 2237.98,353.458 2239.02,355.053 2240.07,544.001 2241.11,545.936 2242.15,534.889 2243.2,536.9 2244.24,533.154 2245.28,534.722 2246.33,337.735 2247.37,339.106 2248.41,536.162 2249.46,537.378 2250.5,541.419 2251.54,542.299 2252.59,549.203 2253.63,549.957 2254.67,496.281 2255.72,497.527 2256.76,370.626 2257.8,372.914 2258.85,513.944 2259.89,515.237 2260.93,372.382 2261.98,373.561 2263.02,526.03 2264.06,526.624 2265.11,395.65 2266.15,397.538 2267.2,389.096 2268.24,390.235 2269.28,531.036 2270.33,532.658 2271.37,533.786 2272.41,534.709 2273.46,545.747 2274.5,546.294 2275.54,521.806 2276.59,522.236 2277.63,338.462 2278.67,340.462 2279.72,557.144 2280.76,558.478 2281.8,371.972 2282.85,373.854 2283.89,522.411 2284.93,523.216 2285.98,561.112 2287.02,562.202 2288.06,519.459 2289.11,520.507 2290.15,521.482 "/>
<path clip-path="url(#clip290)" d="M2005.38 1438.47 L2279.02 1438.47 L2279.02 1334.79 L2005.38 1334.79  Z" fill="#ffffff" fill-rule="evenodd" fill-opacity="1"/>
<polyline clip-path="url(#clip290)" style="stroke:#000000; stroke-linecap:round; stroke-linejoin:round; stroke-width:4; stroke-opacity:1; fill:none" points="2005.38,1438.47 2279.02,1438.47 2279.02,1334.79 2005.38,1334.79 2005.38,1438.47 "/>
<polyline clip-path="url(#clip290)" style="stroke:#009af9; stroke-linecap:round; stroke-linejoin:round; stroke-width:4; stroke-opacity:1; fill:none" points="2029.96,1386.63 2177.43,1386.63 "/>
<path clip-path="url(#clip290)" d="M2215.85 1406.32 Q2214.05 1410.95 2212.34 1412.36 Q2210.62 1413.78 2207.75 1413.78 L2204.35 1413.78 L2204.35 1410.21 L2206.85 1410.21 Q2208.61 1410.21 2209.58 1409.38 Q2210.55 1408.54 2211.73 1405.44 L2212.5 1403.5 L2202.01 1377.99 L2206.53 1377.99 L2214.63 1398.27 L2222.73 1377.99 L2227.24 1377.99 L2215.85 1406.32 Z" fill="#000000" fill-rule="nonzero" fill-opacity="1" /><path clip-path="url(#clip290)" d="M2234.53 1399.98 L2242.17 1399.98 L2242.17 1373.61 L2233.86 1375.28 L2233.86 1371.02 L2242.13 1369.35 L2246.8 1369.35 L2246.8 1399.98 L2254.44 1399.98 L2254.44 1403.91 L2234.53 1403.91 L2234.53 1399.98 Z" fill="#000000" fill-rule="nonzero" fill-opacity="1" /></svg>
