<?xml version="1.0" encoding="utf-8"?>
<svg xmlns="http://www.w3.org/2000/svg" xmlns:xlink="http://www.w3.org/1999/xlink" width="600" height="400" viewBox="0 0 2400 1600">
<defs>
  <clipPath id="clip580">
    <rect x="0" y="0" width="2400" height="1600"/>
  </clipPath>
</defs>
<path clip-path="url(#clip580)" d="M0 1600 L2400 1600 L2400 0 L0 0  Z" fill="#ffffff" fill-rule="evenodd" fill-opacity="1"/>
<defs>
  <clipPath id="clip581">
    <rect x="480" y="0" width="1681" height="1600"/>
  </clipPath>
</defs>
<path clip-path="url(#clip580)" d="M156.274 1486.45 L2352.76 1486.45 L2352.76 47.2441 L156.274 47.2441  Z" fill="#ffffff" fill-rule="evenodd" fill-opacity="1"/>
<defs>
  <clipPath id="clip582">
    <rect x="156" y="47" width="2197" height="1440"/>
  </clipPath>
</defs>
<polyline clip-path="url(#clip582)" style="stroke:#000000; stroke-linecap:round; stroke-linejoin:round; stroke-width:2; stroke-opacity:0.1; fill:none" points="218.439,1486.45 218.439,47.2441 "/>
<polyline clip-path="url(#clip582)" style="stroke:#000000; stroke-linecap:round; stroke-linejoin:round; stroke-width:2; stroke-opacity:0.1; fill:none" points="736.995,1486.45 736.995,47.2441 "/>
<polyline clip-path="url(#clip582)" style="stroke:#000000; stroke-linecap:round; stroke-linejoin:round; stroke-width:2; stroke-opacity:0.1; fill:none" points="1255.55,1486.45 1255.55,47.2441 "/>
<polyline clip-path="url(#clip582)" style="stroke:#000000; stroke-linecap:round; stroke-linejoin:round; stroke-width:2; stroke-opacity:0.1; fill:none" points="1774.11,1486.45 1774.11,47.2441 "/>
<polyline clip-path="url(#clip582)" style="stroke:#000000; stroke-linecap:round; stroke-linejoin:round; stroke-width:2; stroke-opacity:0.1; fill:none" points="2292.67,1486.45 2292.67,47.2441 "/>
<polyline clip-path="url(#clip580)" style="stroke:#000000; stroke-linecap:round; stroke-linejoin:round; stroke-width:4; stroke-opacity:1; fill:none" points="156.274,1486.45 2352.76,1486.45 "/>
<polyline clip-path="url(#clip580)" style="stroke:#000000; stroke-linecap:round; stroke-linejoin:round; stroke-width:4; stroke-opacity:1; fill:none" points="218.439,1486.45 218.439,1467.55 "/>
<polyline clip-path="url(#clip580)" style="stroke:#000000; stroke-linecap:round; stroke-linejoin:round; stroke-width:4; stroke-opacity:1; fill:none" points="736.995,1486.45 736.995,1467.55 "/>
<polyline clip-path="url(#clip580)" style="stroke:#000000; stroke-linecap:round; stroke-linejoin:round; stroke-width:4; stroke-opacity:1; fill:none" points="1255.55,1486.45 1255.55,1467.55 "/>
<polyline clip-path="url(#clip580)" style="stroke:#000000; stroke-linecap:round; stroke-linejoin:round; stroke-width:4; stroke-opacity:1; fill:none" points="1774.11,1486.45 1774.11,1467.55 "/>
<polyline clip-path="url(#clip580)" style="stroke:#000000; stroke-linecap:round; stroke-linejoin:round; stroke-width:4; stroke-opacity:1; fill:none" points="2292.67,1486.45 2292.67,1467.55 "/>
<path clip-path="url(#clip580)" d="M218.439 1517.37 Q214.828 1517.37 212.999 1520.93 Q211.193 1524.47 211.193 1531.6 Q211.193 1538.71 212.999 1542.27 Q214.828 1545.82 218.439 1545.82 Q222.073 1545.82 223.879 1542.27 Q225.707 1538.71 225.707 1531.6 Q225.707 1524.47 223.879 1520.93 Q222.073 1517.37 218.439 1517.37 M218.439 1513.66 Q224.249 1513.66 227.304 1518.27 Q230.383 1522.85 230.383 1531.6 Q230.383 1540.33 227.304 1544.94 Q224.249 1549.52 218.439 1549.52 Q212.629 1549.52 209.55 1544.94 Q206.494 1540.33 206.494 1531.6 Q206.494 1522.85 209.55 1518.27 Q212.629 1513.66 218.439 1513.66 Z" fill="#000000" fill-rule="nonzero" fill-opacity="1" /><path clip-path="url(#clip580)" d="M700.688 1544.91 L717.007 1544.91 L717.007 1548.85 L695.063 1548.85 L695.063 1544.91 Q697.725 1542.16 702.308 1537.53 Q706.915 1532.88 708.095 1531.53 Q710.34 1529.01 711.22 1527.27 Q712.123 1525.51 712.123 1523.82 Q712.123 1521.07 710.178 1519.33 Q708.257 1517.6 705.155 1517.6 Q702.956 1517.6 700.503 1518.36 Q698.072 1519.13 695.294 1520.68 L695.294 1515.95 Q698.118 1514.82 700.572 1514.24 Q703.026 1513.66 705.063 1513.66 Q710.433 1513.66 713.628 1516.35 Q716.822 1519.03 716.822 1523.52 Q716.822 1525.65 716.012 1527.57 Q715.225 1529.47 713.118 1532.07 Q712.54 1532.74 709.438 1535.95 Q706.336 1539.15 700.688 1544.91 Z" fill="#000000" fill-rule="nonzero" fill-opacity="1" /><path clip-path="url(#clip580)" d="M726.868 1514.29 L745.225 1514.29 L745.225 1518.22 L731.151 1518.22 L731.151 1526.7 Q732.169 1526.35 733.188 1526.19 Q734.206 1526 735.225 1526 Q741.012 1526 744.391 1529.17 Q747.771 1532.34 747.771 1537.76 Q747.771 1543.34 744.299 1546.44 Q740.826 1549.52 734.507 1549.52 Q732.331 1549.52 730.063 1549.15 Q727.817 1548.78 725.41 1548.04 L725.41 1543.34 Q727.493 1544.47 729.715 1545.03 Q731.938 1545.58 734.414 1545.58 Q738.419 1545.58 740.757 1543.48 Q743.095 1541.37 743.095 1537.76 Q743.095 1534.15 740.757 1532.04 Q738.419 1529.94 734.414 1529.94 Q732.539 1529.94 730.664 1530.35 Q728.813 1530.77 726.868 1531.65 L726.868 1514.29 Z" fill="#000000" fill-rule="nonzero" fill-opacity="1" /><path clip-path="url(#clip580)" d="M766.984 1517.37 Q763.373 1517.37 761.544 1520.93 Q759.738 1524.47 759.738 1531.6 Q759.738 1538.71 761.544 1542.27 Q763.373 1545.82 766.984 1545.82 Q770.618 1545.82 772.423 1542.27 Q774.252 1538.71 774.252 1531.6 Q774.252 1524.47 772.423 1520.93 Q770.618 1517.37 766.984 1517.37 M766.984 1513.66 Q772.794 1513.66 775.849 1518.27 Q778.928 1522.85 778.928 1531.6 Q778.928 1540.33 775.849 1544.94 Q772.794 1549.52 766.984 1549.52 Q761.174 1549.52 758.095 1544.94 Q755.039 1540.33 755.039 1531.6 Q755.039 1522.85 758.095 1518.27 Q761.174 1513.66 766.984 1513.66 Z" fill="#000000" fill-rule="nonzero" fill-opacity="1" /><path clip-path="url(#clip580)" d="M1215.17 1514.29 L1233.53 1514.29 L1233.53 1518.22 L1219.45 1518.22 L1219.45 1526.7 Q1220.47 1526.35 1221.49 1526.19 Q1222.51 1526 1223.53 1526 Q1229.31 1526 1232.69 1529.17 Q1236.07 1532.34 1236.07 1537.76 Q1236.07 1543.34 1232.6 1546.44 Q1229.13 1549.52 1222.81 1549.52 Q1220.63 1549.52 1218.36 1549.15 Q1216.12 1548.78 1213.71 1548.04 L1213.71 1543.34 Q1215.8 1544.47 1218.02 1545.03 Q1220.24 1545.58 1222.72 1545.58 Q1226.72 1545.58 1229.06 1543.48 Q1231.4 1541.37 1231.4 1537.76 Q1231.4 1534.15 1229.06 1532.04 Q1226.72 1529.94 1222.72 1529.94 Q1220.84 1529.94 1218.97 1530.35 Q1217.11 1530.77 1215.17 1531.65 L1215.17 1514.29 Z" fill="#000000" fill-rule="nonzero" fill-opacity="1" /><path clip-path="url(#clip580)" d="M1255.29 1517.37 Q1251.67 1517.37 1249.85 1520.93 Q1248.04 1524.47 1248.04 1531.6 Q1248.04 1538.71 1249.85 1542.27 Q1251.67 1545.82 1255.29 1545.82 Q1258.92 1545.82 1260.73 1542.27 Q1262.55 1538.71 1262.55 1531.6 Q1262.55 1524.47 1260.73 1520.93 Q1258.92 1517.37 1255.29 1517.37 M1255.29 1513.66 Q1261.1 1513.66 1264.15 1518.27 Q1267.23 1522.85 1267.23 1531.6 Q1267.23 1540.33 1264.15 1544.94 Q1261.1 1549.52 1255.29 1549.52 Q1249.48 1549.52 1246.4 1544.94 Q1243.34 1540.33 1243.34 1531.6 Q1243.34 1522.85 1246.4 1518.27 Q1249.48 1513.66 1255.29 1513.66 Z" fill="#000000" fill-rule="nonzero" fill-opacity="1" /><path clip-path="url(#clip580)" d="M1285.45 1517.37 Q1281.84 1517.37 1280.01 1520.93 Q1278.2 1524.47 1278.2 1531.6 Q1278.2 1538.71 1280.01 1542.27 Q1281.84 1545.82 1285.45 1545.82 Q1289.08 1545.82 1290.89 1542.27 Q1292.72 1538.71 1292.72 1531.6 Q1292.72 1524.47 1290.89 1520.93 Q1289.08 1517.37 1285.45 1517.37 M1285.45 1513.66 Q1291.26 1513.66 1294.31 1518.27 Q1297.39 1522.85 1297.39 1531.6 Q1297.39 1540.33 1294.31 1544.94 Q1291.26 1549.52 1285.45 1549.52 Q1279.64 1549.52 1276.56 1544.94 Q1273.5 1540.33 1273.5 1531.6 Q1273.5 1522.85 1276.56 1518.27 Q1279.64 1513.66 1285.45 1513.66 Z" fill="#000000" fill-rule="nonzero" fill-opacity="1" /><path clip-path="url(#clip580)" d="M1732.38 1514.29 L1754.61 1514.29 L1754.61 1516.28 L1742.06 1548.85 L1737.18 1548.85 L1748.98 1518.22 L1732.38 1518.22 L1732.38 1514.29 Z" fill="#000000" fill-rule="nonzero" fill-opacity="1" /><path clip-path="url(#clip580)" d="M1763.77 1514.29 L1782.13 1514.29 L1782.13 1518.22 L1768.06 1518.22 L1768.06 1526.7 Q1769.07 1526.35 1770.09 1526.19 Q1771.11 1526 1772.13 1526 Q1777.92 1526 1781.3 1529.17 Q1784.68 1532.34 1784.68 1537.76 Q1784.68 1543.34 1781.2 1546.44 Q1777.73 1549.52 1771.41 1549.52 Q1769.24 1549.52 1766.97 1549.15 Q1764.72 1548.78 1762.31 1548.04 L1762.31 1543.34 Q1764.4 1544.47 1766.62 1545.03 Q1768.84 1545.58 1771.32 1545.58 Q1775.32 1545.58 1777.66 1543.48 Q1780 1541.37 1780 1537.76 Q1780 1534.15 1777.66 1532.04 Q1775.32 1529.94 1771.32 1529.94 Q1769.44 1529.94 1767.57 1530.35 Q1765.72 1530.77 1763.77 1531.65 L1763.77 1514.29 Z" fill="#000000" fill-rule="nonzero" fill-opacity="1" /><path clip-path="url(#clip580)" d="M1803.89 1517.37 Q1800.28 1517.37 1798.45 1520.93 Q1796.64 1524.47 1796.64 1531.6 Q1796.64 1538.71 1798.45 1542.27 Q1800.28 1545.82 1803.89 1545.82 Q1807.52 1545.82 1809.33 1542.27 Q1811.16 1538.71 1811.16 1531.6 Q1811.16 1524.47 1809.33 1520.93 Q1807.52 1517.37 1803.89 1517.37 M1803.89 1513.66 Q1809.7 1513.66 1812.75 1518.27 Q1815.83 1522.85 1815.83 1531.6 Q1815.83 1540.33 1812.75 1544.94 Q1809.7 1549.52 1803.89 1549.52 Q1798.08 1549.52 1795 1544.94 Q1791.94 1540.33 1791.94 1531.6 Q1791.94 1522.85 1795 1518.27 Q1798.08 1513.66 1803.89 1513.66 Z" fill="#000000" fill-rule="nonzero" fill-opacity="1" /><path clip-path="url(#clip580)" d="M2237.19 1544.91 L2244.83 1544.91 L2244.83 1518.55 L2236.52 1520.21 L2236.52 1515.95 L2244.78 1514.29 L2249.46 1514.29 L2249.46 1544.91 L2257.1 1544.91 L2257.1 1548.85 L2237.19 1548.85 L2237.19 1544.91 Z" fill="#000000" fill-rule="nonzero" fill-opacity="1" /><path clip-path="url(#clip580)" d="M2276.54 1517.37 Q2272.93 1517.37 2271.1 1520.93 Q2269.3 1524.47 2269.3 1531.6 Q2269.3 1538.71 2271.1 1542.27 Q2272.93 1545.82 2276.54 1545.82 Q2280.18 1545.82 2281.98 1542.27 Q2283.81 1538.71 2283.81 1531.6 Q2283.81 1524.47 2281.98 1520.93 Q2280.18 1517.37 2276.54 1517.37 M2276.54 1513.66 Q2282.35 1513.66 2285.41 1518.27 Q2288.49 1522.85 2288.49 1531.6 Q2288.49 1540.33 2285.41 1544.94 Q2282.35 1549.52 2276.54 1549.52 Q2270.73 1549.52 2267.65 1544.94 Q2264.6 1540.33 2264.6 1531.6 Q2264.6 1522.85 2267.65 1518.27 Q2270.73 1513.66 2276.54 1513.66 Z" fill="#000000" fill-rule="nonzero" fill-opacity="1" /><path clip-path="url(#clip580)" d="M2306.7 1517.37 Q2303.09 1517.37 2301.27 1520.93 Q2299.46 1524.47 2299.46 1531.6 Q2299.46 1538.71 2301.27 1542.27 Q2303.09 1545.82 2306.7 1545.82 Q2310.34 1545.82 2312.14 1542.27 Q2313.97 1538.71 2313.97 1531.6 Q2313.97 1524.47 2312.14 1520.93 Q2310.34 1517.37 2306.7 1517.37 M2306.7 1513.66 Q2312.51 1513.66 2315.57 1518.27 Q2318.65 1522.85 2318.65 1531.6 Q2318.65 1540.33 2315.57 1544.94 Q2312.51 1549.52 2306.7 1549.52 Q2300.89 1549.52 2297.82 1544.94 Q2294.76 1540.33 2294.76 1531.6 Q2294.76 1522.85 2297.82 1518.27 Q2300.89 1513.66 2306.7 1513.66 Z" fill="#000000" fill-rule="nonzero" fill-opacity="1" /><path clip-path="url(#clip580)" d="M2336.87 1517.37 Q2333.26 1517.37 2331.43 1520.93 Q2329.62 1524.47 2329.62 1531.6 Q2329.62 1538.71 2331.43 1542.27 Q2333.26 1545.82 2336.87 1545.82 Q2340.5 1545.82 2342.31 1542.27 Q2344.14 1538.71 2344.14 1531.6 Q2344.14 1524.47 2342.31 1520.93 Q2340.5 1517.37 2336.87 1517.37 M2336.87 1513.66 Q2342.68 1513.66 2345.73 1518.27 Q2348.81 1522.85 2348.81 1531.6 Q2348.81 1540.33 2345.73 1544.94 Q2342.68 1549.52 2336.87 1549.52 Q2331.06 1549.52 2327.98 1544.94 Q2324.92 1540.33 2324.92 1531.6 Q2324.92 1522.85 2327.98 1518.27 Q2331.06 1513.66 2336.87 1513.66 Z" fill="#000000" fill-rule="nonzero" fill-opacity="1" /><polyline clip-path="url(#clip582)" style="stroke:#000000; stroke-linecap:round; stroke-linejoin:round; stroke-width:2; stroke-opacity:0.1; fill:none" points="156.274,1467.27 2352.76,1467.27 "/>
<polyline clip-path="url(#clip582)" style="stroke:#000000; stroke-linecap:round; stroke-linejoin:round; stroke-width:2; stroke-opacity:0.1; fill:none" points="156.274,1036.24 2352.76,1036.24 "/>
<polyline clip-path="url(#clip582)" style="stroke:#000000; stroke-linecap:round; stroke-linejoin:round; stroke-width:2; stroke-opacity:0.1; fill:none" points="156.274,605.21 2352.76,605.21 "/>
<polyline clip-path="url(#clip582)" style="stroke:#000000; stroke-linecap:round; stroke-linejoin:round; stroke-width:2; stroke-opacity:0.1; fill:none" points="156.274,174.182 2352.76,174.182 "/>
<polyline clip-path="url(#clip580)" style="stroke:#000000; stroke-linecap:round; stroke-linejoin:round; stroke-width:4; stroke-opacity:1; fill:none" points="156.274,1486.45 156.274,47.2441 "/>
<polyline clip-path="url(#clip580)" style="stroke:#000000; stroke-linecap:round; stroke-linejoin:round; stroke-width:4; stroke-opacity:1; fill:none" points="156.274,1467.27 175.172,1467.27 "/>
<polyline clip-path="url(#clip580)" style="stroke:#000000; stroke-linecap:round; stroke-linejoin:round; stroke-width:4; stroke-opacity:1; fill:none" points="156.274,1036.24 175.172,1036.24 "/>
<polyline clip-path="url(#clip580)" style="stroke:#000000; stroke-linecap:round; stroke-linejoin:round; stroke-width:4; stroke-opacity:1; fill:none" points="156.274,605.21 175.172,605.21 "/>
<polyline clip-path="url(#clip580)" style="stroke:#000000; stroke-linecap:round; stroke-linejoin:round; stroke-width:4; stroke-opacity:1; fill:none" points="156.274,174.182 175.172,174.182 "/>
<path clip-path="url(#clip580)" d="M62.9365 1453.07 Q59.3254 1453.07 57.4967 1456.63 Q55.6912 1460.17 55.6912 1467.3 Q55.6912 1474.41 57.4967 1477.97 Q59.3254 1481.51 62.9365 1481.51 Q66.5707 1481.51 68.3763 1477.97 Q70.205 1474.41 70.205 1467.3 Q70.205 1460.17 68.3763 1456.63 Q66.5707 1453.07 62.9365 1453.07 M62.9365 1449.36 Q68.7467 1449.36 71.8022 1453.97 Q74.8809 1458.55 74.8809 1467.3 Q74.8809 1476.03 71.8022 1480.64 Q68.7467 1485.22 62.9365 1485.22 Q57.1264 1485.22 54.0477 1480.64 Q50.9921 1476.03 50.9921 1467.3 Q50.9921 1458.55 54.0477 1453.97 Q57.1264 1449.36 62.9365 1449.36 Z" fill="#000000" fill-rule="nonzero" fill-opacity="1" /><path clip-path="url(#clip580)" d="M83.0984 1478.67 L87.9827 1478.67 L87.9827 1484.55 L83.0984 1484.55 L83.0984 1478.67 Z" fill="#000000" fill-rule="nonzero" fill-opacity="1" /><path clip-path="url(#clip580)" d="M108.746 1465.4 Q105.598 1465.4 103.746 1467.56 Q101.918 1469.71 101.918 1473.46 Q101.918 1477.19 103.746 1479.36 Q105.598 1481.51 108.746 1481.51 Q111.895 1481.51 113.723 1479.36 Q115.575 1477.19 115.575 1473.46 Q115.575 1469.71 113.723 1467.56 Q111.895 1465.4 108.746 1465.4 M118.029 1450.75 L118.029 1455.01 Q116.27 1454.18 114.464 1453.74 Q112.682 1453.3 110.922 1453.3 Q106.293 1453.3 103.839 1456.42 Q101.409 1459.55 101.061 1465.87 Q102.427 1463.85 104.487 1462.79 Q106.547 1461.7 109.024 1461.7 Q114.233 1461.7 117.242 1464.87 Q120.274 1468.02 120.274 1473.46 Q120.274 1478.78 117.126 1482 Q113.978 1485.22 108.746 1485.22 Q102.751 1485.22 99.5798 1480.64 Q96.4085 1476.03 96.4085 1467.3 Q96.4085 1459.11 100.297 1454.25 Q104.186 1449.36 110.737 1449.36 Q112.496 1449.36 114.279 1449.71 Q116.084 1450.06 118.029 1450.75 Z" fill="#000000" fill-rule="nonzero" fill-opacity="1" /><path clip-path="url(#clip580)" d="M64.0013 1022.04 Q60.3902 1022.04 58.5615 1025.6 Q56.756 1029.14 56.756 1036.27 Q56.756 1043.38 58.5615 1046.94 Q60.3902 1050.49 64.0013 1050.49 Q67.6356 1050.49 69.4411 1046.94 Q71.2698 1043.38 71.2698 1036.27 Q71.2698 1029.14 69.4411 1025.6 Q67.6356 1022.04 64.0013 1022.04 M64.0013 1018.33 Q69.8115 1018.33 72.867 1022.94 Q75.9457 1027.52 75.9457 1036.27 Q75.9457 1045 72.867 1049.61 Q69.8115 1054.19 64.0013 1054.19 Q58.1912 1054.19 55.1125 1049.61 Q52.0569 1045 52.0569 1036.27 Q52.0569 1027.52 55.1125 1022.94 Q58.1912 1018.33 64.0013 1018.33 Z" fill="#000000" fill-rule="nonzero" fill-opacity="1" /><path clip-path="url(#clip580)" d="M84.1632 1047.64 L89.0475 1047.64 L89.0475 1053.52 L84.1632 1053.52 L84.1632 1047.64 Z" fill="#000000" fill-rule="nonzero" fill-opacity="1" /><path clip-path="url(#clip580)" d="M98.0521 1018.96 L120.274 1018.96 L120.274 1020.95 L107.728 1053.52 L102.844 1053.52 L114.649 1022.89 L98.0521 1022.89 L98.0521 1018.96 Z" fill="#000000" fill-rule="nonzero" fill-opacity="1" /><path clip-path="url(#clip580)" d="M63.1911 591.009 Q59.58 591.009 57.7513 594.574 Q55.9458 598.115 55.9458 605.245 Q55.9458 612.352 57.7513 615.916 Q59.58 619.458 63.1911 619.458 Q66.8254 619.458 68.6309 615.916 Q70.4596 612.352 70.4596 605.245 Q70.4596 598.115 68.6309 594.574 Q66.8254 591.009 63.1911 591.009 M63.1911 587.305 Q69.0013 587.305 72.0568 591.912 Q75.1355 596.495 75.1355 605.245 Q75.1355 613.972 72.0568 618.578 Q69.0013 623.162 63.1911 623.162 Q57.381 623.162 54.3023 618.578 Q51.2468 613.972 51.2468 605.245 Q51.2468 596.495 54.3023 591.912 Q57.381 587.305 63.1911 587.305 Z" fill="#000000" fill-rule="nonzero" fill-opacity="1" /><path clip-path="url(#clip580)" d="M83.3531 616.611 L88.2373 616.611 L88.2373 622.49 L83.3531 622.49 L83.3531 616.611 Z" fill="#000000" fill-rule="nonzero" fill-opacity="1" /><path clip-path="url(#clip580)" d="M108.422 606.078 Q105.089 606.078 103.168 607.861 Q101.27 609.643 101.27 612.768 Q101.27 615.893 103.168 617.676 Q105.089 619.458 108.422 619.458 Q111.756 619.458 113.677 617.676 Q115.598 615.87 115.598 612.768 Q115.598 609.643 113.677 607.861 Q111.779 606.078 108.422 606.078 M103.746 604.088 Q100.737 603.347 99.0474 601.287 Q97.3808 599.227 97.3808 596.264 Q97.3808 592.12 100.321 589.713 Q103.284 587.305 108.422 587.305 Q113.584 587.305 116.524 589.713 Q119.464 592.12 119.464 596.264 Q119.464 599.227 117.774 601.287 Q116.108 603.347 113.121 604.088 Q116.501 604.875 118.376 607.166 Q120.274 609.458 120.274 612.768 Q120.274 617.791 117.195 620.476 Q114.14 623.162 108.422 623.162 Q102.705 623.162 99.6261 620.476 Q96.5706 617.791 96.5706 612.768 Q96.5706 609.458 98.4687 607.166 Q100.367 604.875 103.746 604.088 M102.034 596.703 Q102.034 599.389 103.7 600.893 Q105.39 602.398 108.422 602.398 Q111.432 602.398 113.121 600.893 Q114.834 599.389 114.834 596.703 Q114.834 594.018 113.121 592.514 Q111.432 591.009 108.422 591.009 Q105.39 591.009 103.7 592.514 Q102.034 594.018 102.034 596.703 Z" fill="#000000" fill-rule="nonzero" fill-opacity="1" /><path clip-path="url(#clip580)" d="M63.2837 159.981 Q59.6726 159.981 57.8439 163.545 Q56.0384 167.087 56.0384 174.217 Q56.0384 181.323 57.8439 184.888 Q59.6726 188.43 63.2837 188.43 Q66.918 188.43 68.7235 184.888 Q70.5522 181.323 70.5522 174.217 Q70.5522 167.087 68.7235 163.545 Q66.918 159.981 63.2837 159.981 M63.2837 156.277 Q69.0939 156.277 72.1494 160.883 Q75.2281 165.467 75.2281 174.217 Q75.2281 182.943 72.1494 187.55 Q69.0939 192.133 63.2837 192.133 Q57.4736 192.133 54.3949 187.55 Q51.3393 182.943 51.3393 174.217 Q51.3393 165.467 54.3949 160.883 Q57.4736 156.277 63.2837 156.277 Z" fill="#000000" fill-rule="nonzero" fill-opacity="1" /><path clip-path="url(#clip580)" d="M83.4457 185.582 L88.3299 185.582 L88.3299 191.462 L83.4457 191.462 L83.4457 185.582 Z" fill="#000000" fill-rule="nonzero" fill-opacity="1" /><path clip-path="url(#clip580)" d="M98.6539 190.744 L98.6539 186.485 Q100.413 187.318 102.219 187.758 Q104.024 188.198 105.76 188.198 Q110.39 188.198 112.82 185.096 Q115.274 181.971 115.621 175.629 Q114.279 177.619 112.219 178.684 Q110.158 179.749 107.658 179.749 Q102.473 179.749 99.4409 176.624 Q96.4317 173.476 96.4317 168.036 Q96.4317 162.712 99.5798 159.495 Q102.728 156.277 107.959 156.277 Q113.955 156.277 117.103 160.883 Q120.274 165.467 120.274 174.217 Q120.274 182.388 116.385 187.272 Q112.52 192.133 105.969 192.133 Q104.209 192.133 102.404 191.786 Q100.598 191.439 98.6539 190.744 M107.959 176.092 Q111.108 176.092 112.936 173.939 Q114.788 171.786 114.788 168.036 Q114.788 164.309 112.936 162.157 Q111.108 159.981 107.959 159.981 Q104.811 159.981 102.959 162.157 Q101.131 164.309 101.131 168.036 Q101.131 171.786 102.959 173.939 Q104.811 176.092 107.959 176.092 Z" fill="#000000" fill-rule="nonzero" fill-opacity="1" /><polyline clip-path="url(#clip582)" style="stroke:#009af9; stroke-linecap:round; stroke-linejoin:round; stroke-width:4; stroke-opacity:1; fill:none" points="218.439,1014.69 220.513,1230.2 222.587,1014.69 224.661,1036.24 226.736,1251.75 228.81,1187.1 230.884,1230.2 232.958,1445.72 235.033,1402.61 237.107,1036.24 239.181,1036.24 241.255,1294.86 243.329,1294.86 245.404,1273.3 247.478,1273.3 249.552,1165.55 251.626,1316.41 253.701,1057.79 255.775,1230.2 257.849,1100.89 259.923,1294.86 261.998,1144 264.072,1100.89 266.146,1251.75 268.22,1187.1 270.294,1273.3 272.369,1122.44 274.443,1251.75 276.517,1122.44 278.591,1251.75 280.666,1230.2 282.74,1445.72 284.814,1208.65 286.888,1208.65 288.962,1337.96 291.037,1230.2 293.111,1036.24 295.185,1208.65 297.259,1165.55 299.334,1337.96 301.408,1273.3 303.482,1273.3 305.556,1445.72 307.63,1187.1 309.705,1144 311.779,1273.3 313.853,1424.16 315.927,863.827 318.002,1316.41 320.076,1165.55 322.15,1381.06 324.224,950.033 326.299,1079.34 328.373,1122.44 330.447,1251.75 332.521,1187.1 334.595,1294.86 336.67,1165.55 338.744,1230.2 340.818,1187.1 342.892,1165.55 344.967,1359.51 347.041,1187.1 349.115,1187.1 351.189,1251.75 353.263,1424.16 355.338,1057.79 357.412,1230.2 359.486,993.136 361.56,1273.3 363.635,1187.1 365.709,1057.79 367.783,1208.65 369.857,1122.44 371.932,1208.65 374.006,928.482 376.08,1144 378.154,1014.69 380.228,777.622 382.303,1144 384.377,1359.51 386.451,1424.16 388.525,1036.24 390.6,1337.96 392.674,1424.16 394.748,1230.2 396.822,1294.86 398.896,842.276 400.971,1079.34 403.045,950.033 405.119,1359.51 407.193,1057.79 409.268,1014.69 411.342,1036.24 413.416,1144 415.49,1144 417.565,1251.75 419.639,1187.1 421.713,1187.1 423.787,1100.89 425.861,906.93 427.936,971.584 430.01,1122.44 432.084,906.93 434.158,885.379 436.233,799.173 438.307,928.482 440.381,1273.3 442.455,993.136 444.529,928.482 446.604,1122.44 448.678,1122.44 450.752,906.93 452.826,1036.24 454.901,777.622 456.975,1208.65 459.049,1187.1 461.123,1187.1 463.198,1079.34 465.272,1079.34 467.346,971.584 469.42,993.136 471.494,1165.55 473.569,906.93 475.643,971.584 477.717,885.379 479.791,820.725 481.866,1100.89 483.94,906.93 486.014,863.827 488.088,1036.24 490.162,928.482 492.237,906.93 494.311,993.136 496.385,669.865 498.459,1014.69 500.534,1036.24 502.608,906.93 504.682,1057.79 506.756,1057.79 508.83,971.584 510.905,1122.44 512.979,799.173 515.053,863.827 517.127,734.519 519.202,756.07 521.276,863.827 523.35,885.379 525.424,971.584 527.499,906.93 529.573,842.276 531.647,799.173 533.721,669.865 535.795,777.622 537.87,756.07 539.944,734.519 542.018,993.136 544.092,626.762 546.167,971.584 548.241,950.033 550.315,777.622 552.389,734.519 554.463,842.276 556.538,863.827 558.612,863.827 560.686,885.379 562.76,799.173 564.835,712.967 566.909,626.762 568.983,756.07 571.057,756.07 573.132,842.276 575.206,906.93 577.28,842.276 579.354,626.762 581.428,993.136 583.503,669.865 585.577,734.519 587.651,820.725 589.725,928.482 591.8,863.827 593.874,777.622 595.948,777.622 598.022,820.725 600.096,562.108 602.171,691.416 604.245,885.379 606.319,820.725 608.393,950.033 610.468,669.865 612.542,669.865 614.616,820.725 616.69,799.173 618.765,820.725 620.839,712.967 622.913,712.967 624.987,519.005 627.061,820.725 629.136,799.173 631.21,799.173 633.284,540.556 635.358,605.21 637.433,475.902 639.507,712.967 641.581,475.902 643.655,605.21 645.729,712.967 647.804,734.519 649.878,734.519 651.952,712.967 654.026,648.313 656.101,756.07 658.175,712.967 660.249,540.556 662.323,820.725 664.398,863.827 666.472,540.556 668.546,626.762 670.62,712.967 672.694,669.865 674.769,454.35 676.843,454.35 678.917,605.21 680.991,540.556 683.066,626.762 685.14,669.865 687.214,411.248 689.288,799.173 691.362,540.556 693.437,734.519 695.511,497.453 697.585,497.453 699.659,734.519 701.734,583.659 703.808,626.762 705.882,669.865 707.956,519.005 710.03,432.799 712.105,605.21 714.179,648.313 716.253,691.416 718.327,432.799 720.402,519.005 722.476,583.659 724.55,691.416 726.624,562.108 728.699,799.173 730.773,540.556 732.847,756.07 734.921,626.762 736.995,475.902 739.07,562.108 741.144,691.416 743.218,605.21 745.292,583.659 747.367,669.865 749.441,605.21 751.515,712.967 753.589,540.556 755.663,303.49 757.738,562.108 759.812,756.07 761.886,734.519 763.96,562.108 766.035,605.21 768.109,734.519 770.183,605.21 772.257,583.659 774.332,648.313 776.406,540.556 778.48,669.865 780.554,432.799 782.628,519.005 784.703,583.659 786.777,519.005 788.851,519.005 790.925,411.248 793,583.659 795.074,303.49 797.148,497.453 799.222,475.902 801.296,626.762 803.371,260.388 805.445,411.248 807.519,368.145 809.593,432.799 811.668,605.21 813.742,691.416 815.816,411.248 817.89,583.659 819.965,648.313 822.039,605.21 824.113,475.902 826.187,540.556 828.261,411.248 830.336,325.042 832.41,432.799 834.484,497.453 836.558,519.005 838.633,540.556 840.707,605.21 842.781,497.453 844.855,281.939 846.929,389.696 849.004,519.005 851.078,756.07 853.152,411.248 855.226,432.799 857.301,368.145 859.375,497.453 861.449,346.593 863.523,346.593 865.598,432.799 867.672,411.248 869.746,540.556 871.82,519.005 873.894,648.313 875.969,303.49 878.043,475.902 880.117,475.902 882.191,411.248 884.266,454.35 886.34,583.659 888.414,454.35 890.488,540.556 892.562,540.556 894.637,454.35 896.711,389.696 898.785,583.659 900.859,454.35 902.934,648.313 905.008,303.49 907.082,260.388 909.156,454.35 911.23,626.762 913.305,368.145 915.379,346.593 917.453,368.145 919.527,281.939 921.602,475.902 923.676,238.836 925.75,519.005 927.824,432.799 929.899,454.35 931.973,454.35 934.047,497.453 936.121,217.285 938.195,605.21 940.27,325.042 942.344,583.659 944.418,260.388 946.492,540.556 948.567,519.005 950.641,411.248 952.715,217.285 954.789,281.939 956.863,411.248 958.938,432.799 961.012,346.593 963.086,238.836 965.16,562.108 967.235,325.042 969.309,346.593 971.383,325.042 973.457,540.556 975.532,303.49 977.606,454.35 979.68,368.145 981.754,389.696 983.828,346.593 985.903,540.556 987.977,174.182 990.051,411.248 992.125,411.248 994.2,389.696 996.274,152.631 998.348,303.49 1000.42,475.902 1002.5,454.35 1004.57,368.145 1006.64,648.313 1008.72,432.799 1010.79,411.248 1012.87,281.939 1014.94,432.799 1017.02,411.248 1019.09,519.005 1021.16,519.005 1023.24,195.733 1025.31,303.49 1027.39,411.248 1029.46,519.005 1031.54,454.35 1033.61,368.145 1035.68,454.35 1037.76,454.35 1039.83,475.902 1041.91,540.556 1043.98,411.248 1046.06,432.799 1048.13,411.248 1050.2,411.248 1052.28,540.556 1054.35,475.902 1056.43,411.248 1058.5,260.388 1060.57,411.248 1062.65,389.696 1064.72,432.799 1066.8,174.182 1068.87,281.939 1070.95,368.145 1073.02,497.453 1075.09,174.182 1077.17,325.042 1079.24,325.042 1081.32,454.35 1083.39,346.593 1085.47,368.145 1087.54,389.696 1089.61,475.902 1091.69,281.939 1093.76,454.35 1095.84,260.388 1097.91,368.145 1099.99,475.902 1102.06,519.005 1104.13,368.145 1106.21,368.145 1108.28,605.21 1110.36,260.388 1112.43,605.21 1114.5,152.631 1116.58,519.005 1118.65,389.696 1120.73,454.35 1122.8,411.248 1124.88,432.799 1126.95,346.593 1129.02,281.939 1131.1,432.799 1133.17,389.696 1135.25,303.49 1137.32,195.733 1139.4,346.593 1141.47,368.145 1143.54,475.902 1145.62,281.939 1147.69,325.042 1149.77,497.453 1151.84,303.49 1153.92,432.799 1155.99,346.593 1158.06,325.042 1160.14,540.556 1162.21,389.696 1164.29,432.799 1166.36,325.042 1168.43,540.556 1170.51,454.35 1172.58,217.285 1174.66,217.285 1176.73,562.108 1178.81,368.145 1180.88,389.696 1182.95,411.248 1185.03,540.556 1187.1,368.145 1189.18,497.453 1191.25,432.799 1193.33,411.248 1195.4,368.145 1197.47,174.182 1199.55,325.042 1201.62,626.762 1203.7,475.902 1205.77,281.939 1207.84,260.388 1209.92,497.453 1211.99,325.042 1214.07,346.593 1216.14,583.659 1218.22,281.939 1220.29,303.49 1222.36,389.696 1224.44,389.696 1226.51,281.939 1228.59,303.49 1230.66,368.145 1232.74,519.005 1234.81,260.388 1236.88,217.285 1238.96,281.939 1241.03,260.388 1243.11,325.042 1245.18,368.145 1247.26,174.182 1249.33,389.696 1251.4,238.836 1253.48,325.042 1255.55,432.799 1257.63,497.453 1259.7,454.35 1261.77,346.593 1263.85,648.313 1265.92,368.145 1268,389.696 1270.07,497.453 1272.15,475.902 1274.22,411.248 1276.29,260.388 1278.37,346.593 1280.44,260.388 1282.52,497.453 1284.59,260.388 1286.67,346.593 1288.74,454.35 1290.81,475.902 1292.89,540.556 1294.96,346.593 1297.04,562.108 1299.11,497.453 1301.19,281.939 1303.26,454.35 1305.33,217.285 1307.41,368.145 1309.48,346.593 1311.56,260.388 1313.63,174.182 1315.7,260.388 1317.78,519.005 1319.85,325.042 1321.93,325.042 1324,497.453 1326.08,217.285 1328.15,519.005 1330.22,281.939 1332.3,325.042 1334.37,109.528 1336.45,411.248 1338.52,389.696 1340.6,519.005 1342.67,411.248 1344.74,389.696 1346.82,411.248 1348.89,497.453 1350.97,217.285 1353.04,562.108 1355.12,519.005 1357.19,281.939 1359.26,389.696 1361.34,368.145 1363.41,389.696 1365.49,475.902 1367.56,346.593 1369.63,454.35 1371.71,562.108 1373.78,368.145 1375.86,195.733 1377.93,411.248 1380.01,519.005 1382.08,411.248 1384.15,217.285 1386.23,368.145 1388.3,411.248 1390.38,389.696 1392.45,260.388 1394.53,368.145 1396.6,368.145 1398.67,281.939 1400.75,217.285 1402.82,497.453 1404.9,562.108 1406.97,368.145 1409.04,540.556 1411.12,475.902 1413.19,454.35 1415.27,432.799 1417.34,669.865 1419.42,303.49 1421.49,303.49 1423.56,454.35 1425.64,540.556 1427.71,519.005 1429.79,648.313 1431.86,346.593 1433.94,475.902 1436.01,325.042 1438.08,260.388 1440.16,368.145 1442.23,540.556 1444.31,540.556 1446.38,475.902 1448.46,454.35 1450.53,432.799 1452.6,368.145 1454.68,475.902 1456.75,389.696 1458.83,540.556 1460.9,217.285 1462.97,281.939 1465.05,411.248 1467.12,281.939 1469.2,540.556 1471.27,497.453 1473.35,217.285 1475.42,368.145 1477.49,626.762 1479.57,475.902 1481.64,281.939 1483.72,411.248 1485.79,325.042 1487.87,540.556 1489.94,432.799 1492.01,303.49 1494.09,346.593 1496.16,454.35 1498.24,497.453 1500.31,389.696 1502.39,626.762 1504.46,497.453 1506.53,454.35 1508.61,281.939 1510.68,389.696 1512.76,475.902 1514.83,454.35 1516.9,389.696 1518.98,454.35 1521.05,475.902 1523.13,281.939 1525.2,432.799 1527.28,626.762 1529.35,497.453 1531.42,303.49 1533.5,519.005 1535.57,712.967 1537.65,626.762 1539.72,475.902 1541.8,260.388 1543.87,195.733 1545.94,519.005 1548.02,605.21 1550.09,325.042 1552.17,238.836 1554.24,303.49 1556.32,303.49 1558.39,281.939 1560.46,346.593 1562.54,454.35 1564.61,519.005 1566.69,325.042 1568.76,346.593 1570.83,346.593 1572.91,454.35 1574.98,497.453 1577.06,87.9763 1579.13,432.799 1581.21,583.659 1583.28,454.35 1585.35,432.799 1587.43,497.453 1589.5,562.108 1591.58,346.593 1593.65,303.49 1595.73,260.388 1597.8,217.285 1599.87,432.799 1601.95,605.21 1604.02,540.556 1606.1,454.35 1608.17,432.799 1610.24,411.248 1612.32,454.35 1614.39,626.762 1616.47,346.593 1618.54,540.556 1620.62,540.556 1622.69,475.902 1624.76,497.453 1626.84,626.762 1628.91,389.696 1630.99,281.939 1633.06,238.836 1635.14,346.593 1637.21,389.696 1639.28,411.248 1641.36,325.042 1643.43,346.593 1645.51,432.799 1647.58,583.659 1649.66,281.939 1651.73,303.49 1653.8,497.453 1655.88,325.042 1657.95,475.902 1660.03,432.799 1662.1,475.902 1664.17,454.35 1666.25,475.902 1668.32,260.388 1670.4,626.762 1672.47,562.108 1674.55,497.453 1676.62,605.21 1678.69,497.453 1680.77,605.21 1682.84,389.696 1684.92,454.35 1686.99,475.902 1689.07,475.902 1691.14,605.21 1693.21,346.593 1695.29,475.902 1697.36,195.733 1699.44,519.005 1701.51,475.902 1703.59,346.593 1705.66,475.902 1707.73,605.21 1709.81,562.108 1711.88,368.145 1713.96,691.416 1716.03,497.453 1718.1,777.622 1720.18,691.416 1722.25,238.836 1724.33,540.556 1726.4,454.35 1728.48,303.49 1730.55,325.042 1732.62,475.902 1734.7,152.631 1736.77,562.108 1738.85,497.453 1740.92,519.005 1743,562.108 1745.07,519.005 1747.14,454.35 1749.22,389.696 1751.29,432.799 1753.37,346.593 1755.44,626.762 1757.52,389.696 1759.59,325.042 1761.66,519.005 1763.74,497.453 1765.81,519.005 1767.89,368.145 1769.96,519.005 1772.03,411.248 1774.11,454.35 1776.18,540.556 1778.26,648.313 1780.33,454.35 1782.41,475.902 1784.48,519.005 1786.55,303.49 1788.63,432.799 1790.7,712.967 1792.78,475.902 1794.85,583.659 1796.93,497.453 1799,411.248 1801.07,475.902 1803.15,497.453 1805.22,626.762 1807.3,626.762 1809.37,368.145 1811.44,432.799 1813.52,562.108 1815.59,691.416 1817.67,583.659 1819.74,454.35 1821.82,540.556 1823.89,497.453 1825.96,411.248 1828.04,497.453 1830.11,691.416 1832.19,562.108 1834.26,519.005 1836.34,648.313 1838.41,669.865 1840.48,432.799 1842.56,497.453 1844.63,712.967 1846.71,497.453 1848.78,475.902 1850.86,519.005 1852.93,583.659 1855,583.659 1857.08,540.556 1859.15,475.902 1861.23,519.005 1863.3,454.35 1865.37,454.35 1867.45,475.902 1869.52,346.593 1871.6,562.108 1873.67,562.108 1875.75,325.042 1877.82,389.696 1879.89,519.005 1881.97,820.725 1884.04,497.453 1886.12,562.108 1888.19,411.248 1890.27,475.902 1892.34,432.799 1894.41,432.799 1896.49,734.519 1898.56,411.248 1900.64,519.005 1902.71,519.005 1904.79,562.108 1906.86,669.865 1908.93,562.108 1911.01,475.902 1913.08,519.005 1915.16,411.248 1917.23,626.762 1919.3,842.276 1921.38,454.35 1923.45,669.865 1925.53,648.313 1927.6,669.865 1929.68,411.248 1931.75,562.108 1933.82,519.005 1935.9,669.865 1937.97,669.865 1940.05,734.519 1942.12,475.902 1944.2,475.902 1946.27,605.21 1948.34,411.248 1950.42,497.453 1952.49,691.416 1954.57,691.416 1956.64,562.108 1958.72,519.005 1960.79,648.313 1962.86,605.21 1964.94,540.556 1967.01,669.865 1969.09,583.659 1971.16,648.313 1973.23,626.762 1975.31,432.799 1977.38,540.556 1979.46,583.659 1981.53,454.35 1983.61,454.35 1985.68,454.35 1987.75,454.35 1989.83,691.416 1991.9,626.762 1993.98,540.556 1996.05,475.902 1998.13,475.902 2000.2,497.453 2002.27,669.865 2004.35,475.902 2006.42,346.593 2008.5,734.519 2010.57,734.519 2012.64,863.827 2014.72,519.005 2016.79,648.313 2018.87,540.556 2020.94,712.967 2023.02,583.659 2025.09,691.416 2027.16,626.762 2029.24,454.35 2031.31,648.313 2033.39,497.453 2035.46,605.21 2037.54,842.276 2039.61,540.556 2041.68,863.827 2043.76,583.659 2045.83,626.762 2047.91,777.622 2049.98,562.108 2052.06,540.556 2054.13,475.902 2056.2,519.005 2058.28,454.35 2060.35,669.865 2062.43,648.313 2064.5,583.659 2066.57,842.276 2068.65,712.967 2070.72,605.21 2072.8,454.35 2074.87,540.556 2076.95,885.379 2079.02,756.07 2081.09,519.005 2083.17,454.35 2085.24,605.21 2087.32,626.762 2089.39,777.622 2091.47,756.07 2093.54,648.313 2095.61,756.07 2097.69,540.556 2099.76,583.659 2101.84,734.519 2103.91,540.556 2105.99,648.313 2108.06,583.659 2110.13,863.827 2112.21,475.902 2114.28,842.276 2116.36,712.967 2118.43,583.659 2120.5,519.005 2122.58,583.659 2124.65,583.659 2126.73,756.07 2128.8,519.005 2130.88,497.453 2132.95,519.005 2135.02,712.967 2137.1,756.07 2139.17,389.696 2141.25,669.865 2143.32,648.313 2145.4,691.416 2147.47,605.21 2149.54,454.35 2151.62,734.519 2153.69,605.21 2155.77,411.248 2157.84,756.07 2159.92,712.967 2161.99,648.313 2164.06,777.622 2166.14,648.313 2168.21,583.659 2170.29,475.902 2172.36,691.416 2174.43,669.865 2176.51,540.556 2178.58,583.659 2180.66,799.173 2182.73,669.865 2184.81,756.07 2186.88,583.659 2188.95,626.762 2191.03,454.35 2193.1,497.453 2195.18,454.35 2197.25,648.313 2199.33,497.453 2201.4,519.005 2203.47,863.827 2205.55,303.49 2207.62,712.967 2209.7,562.108 2211.77,648.313 2213.84,885.379 2215.92,583.659 2217.99,691.416 2220.07,605.21 2222.14,648.313 2224.22,346.593 2226.29,691.416 2228.36,519.005 2230.44,454.35 2232.51,519.005 2234.59,411.248 2236.66,540.556 2238.74,605.21 2240.81,842.276 2242.88,605.21 2244.96,389.696 2247.03,540.556 2249.11,756.07 2251.18,648.313 2253.26,605.21 2255.33,540.556 2257.4,562.108 2259.48,691.416 2261.55,712.967 2263.63,519.005 2265.7,799.173 2267.77,626.762 2269.85,691.416 2271.92,540.556 2274,777.622 2276.07,497.453 2278.15,583.659 2280.22,820.725 2282.29,648.313 2284.37,583.659 2286.44,820.725 2288.52,432.799 2290.59,519.005 "/>
<path clip-path="url(#clip580)" d="M229.49 198.898 L501.569 198.898 L501.569 95.2176 L229.49 95.2176  Z" fill="#ffffff" fill-rule="evenodd" fill-opacity="1"/>
<polyline clip-path="url(#clip580)" style="stroke:#000000; stroke-linecap:round; stroke-linejoin:round; stroke-width:4; stroke-opacity:1; fill:none" points="229.49,198.898 501.569,198.898 501.569,95.2176 229.49,95.2176 229.49,198.898 "/>
<polyline clip-path="url(#clip580)" style="stroke:#009af9; stroke-linecap:round; stroke-linejoin:round; stroke-width:4; stroke-opacity:1; fill:none" points="253.896,147.058 400.328,147.058 "/>
<path clip-path="url(#clip580)" d="M438.576 166.745 Q436.77 171.375 435.057 172.787 Q433.344 174.199 430.474 174.199 L427.071 174.199 L427.071 170.634 L429.571 170.634 Q431.33 170.634 432.302 169.8 Q433.275 168.967 434.455 165.865 L435.219 163.921 L424.733 138.412 L429.247 138.412 L437.349 158.689 L445.451 138.412 L449.964 138.412 L438.576 166.745 Z" fill="#000000" fill-rule="nonzero" fill-opacity="1" /><path clip-path="url(#clip580)" d="M457.256 160.402 L464.895 160.402 L464.895 134.037 L456.585 135.703 L456.585 131.444 L464.849 129.778 L469.524 129.778 L469.524 160.402 L477.163 160.402 L477.163 164.338 L457.256 164.338 L457.256 160.402 Z" fill="#000000" fill-rule="nonzero" fill-opacity="1" /></svg>
