<?xml version="1.0" encoding="utf-8"?>
<svg xmlns="http://www.w3.org/2000/svg" xmlns:xlink="http://www.w3.org/1999/xlink" width="600" height="400" viewBox="0 0 2400 1600">
<defs>
  <clipPath id="clip280">
    <rect x="0" y="0" width="2400" height="1600"/>
  </clipPath>
</defs>
<path clip-path="url(#clip280)" d="M0 1600 L2400 1600 L2400 0 L0 0  Z" fill="#ffffff" fill-rule="evenodd" fill-opacity="1"/>
<defs>
  <clipPath id="clip281">
    <rect x="480" y="0" width="1681" height="1600"/>
  </clipPath>
</defs>
<path clip-path="url(#clip280)" d="M156.274 1486.45 L2352.76 1486.45 L2352.76 47.2441 L156.274 47.2441  Z" fill="#ffffff" fill-rule="evenodd" fill-opacity="1"/>
<defs>
  <clipPath id="clip282">
    <rect x="156" y="47" width="2197" height="1440"/>
  </clipPath>
</defs>
<polyline clip-path="url(#clip282)" style="stroke:#000000; stroke-linecap:round; stroke-linejoin:round; stroke-width:2; stroke-opacity:0.1; fill:none" points="218.439,1486.45 218.439,47.2441 "/>
<polyline clip-path="url(#clip282)" style="stroke:#000000; stroke-linecap:round; stroke-linejoin:round; stroke-width:2; stroke-opacity:0.1; fill:none" points="736.995,1486.45 736.995,47.2441 "/>
<polyline clip-path="url(#clip282)" style="stroke:#000000; stroke-linecap:round; stroke-linejoin:round; stroke-width:2; stroke-opacity:0.1; fill:none" points="1255.55,1486.45 1255.55,47.2441 "/>
<polyline clip-path="url(#clip282)" style="stroke:#000000; stroke-linecap:round; stroke-linejoin:round; stroke-width:2; stroke-opacity:0.1; fill:none" points="1774.11,1486.45 1774.11,47.2441 "/>
<polyline clip-path="url(#clip282)" style="stroke:#000000; stroke-linecap:round; stroke-linejoin:round; stroke-width:2; stroke-opacity:0.1; fill:none" points="2292.67,1486.45 2292.67,47.2441 "/>
<polyline clip-path="url(#clip280)" style="stroke:#000000; stroke-linecap:round; stroke-linejoin:round; stroke-width:4; stroke-opacity:1; fill:none" points="156.274,1486.45 2352.76,1486.45 "/>
<polyline clip-path="url(#clip280)" style="stroke:#000000; stroke-linecap:round; stroke-linejoin:round; stroke-width:4; stroke-opacity:1; fill:none" points="218.439,1486.45 218.439,1467.55 "/>
<polyline clip-path="url(#clip280)" style="stroke:#000000; stroke-linecap:round; stroke-linejoin:round; stroke-width:4; stroke-opacity:1; fill:none" points="736.995,1486.45 736.995,1467.55 "/>
<polyline clip-path="url(#clip280)" style="stroke:#000000; stroke-linecap:round; stroke-linejoin:round; stroke-width:4; stroke-opacity:1; fill:none" points="1255.55,1486.45 1255.55,1467.55 "/>
<polyline clip-path="url(#clip280)" style="stroke:#000000; stroke-linecap:round; stroke-linejoin:round; stroke-width:4; stroke-opacity:1; fill:none" points="1774.11,1486.45 1774.11,1467.55 "/>
<polyline clip-path="url(#clip280)" style="stroke:#000000; stroke-linecap:round; stroke-linejoin:round; stroke-width:4; stroke-opacity:1; fill:none" points="2292.67,1486.45 2292.67,1467.55 "/>
<path clip-path="url(#clip280)" d="M218.439 1517.37 Q214.828 1517.37 212.999 1520.93 Q211.193 1524.47 211.193 1531.6 Q211.193 1538.71 212.999 1542.27 Q214.828 1545.82 218.439 1545.82 Q222.073 1545.82 223.879 1542.27 Q225.707 1538.71 225.707 1531.6 Q225.707 1524.47 223.879 1520.93 Q222.073 1517.37 218.439 1517.37 M218.439 1513.66 Q224.249 1513.66 227.304 1518.27 Q230.383 1522.85 230.383 1531.6 Q230.383 1540.33 227.304 1544.94 Q224.249 1549.52 218.439 1549.52 Q212.629 1549.52 209.55 1544.94 Q206.494 1540.33 206.494 1531.6 Q206.494 1522.85 209.55 1518.27 Q212.629 1513.66 218.439 1513.66 Z" fill="#000000" fill-rule="nonzero" fill-opacity="1" /><path clip-path="url(#clip280)" d="M700.688 1544.91 L717.007 1544.91 L717.007 1548.85 L695.063 1548.85 L695.063 1544.91 Q697.725 1542.16 702.308 1537.53 Q706.915 1532.88 708.095 1531.53 Q710.34 1529.01 711.22 1527.27 Q712.123 1525.51 712.123 1523.82 Q712.123 1521.07 710.178 1519.33 Q708.257 1517.6 705.155 1517.6 Q702.956 1517.6 700.503 1518.36 Q698.072 1519.13 695.294 1520.68 L695.294 1515.95 Q698.118 1514.82 700.572 1514.24 Q703.026 1513.66 705.063 1513.66 Q710.433 1513.66 713.628 1516.35 Q716.822 1519.03 716.822 1523.52 Q716.822 1525.65 716.012 1527.57 Q715.225 1529.47 713.118 1532.07 Q712.54 1532.74 709.438 1535.95 Q706.336 1539.15 700.688 1544.91 Z" fill="#000000" fill-rule="nonzero" fill-opacity="1" /><path clip-path="url(#clip280)" d="M726.868 1514.29 L745.225 1514.29 L745.225 1518.22 L731.151 1518.22 L731.151 1526.7 Q732.169 1526.35 733.188 1526.19 Q734.206 1526 735.225 1526 Q741.012 1526 744.391 1529.17 Q747.771 1532.34 747.771 1537.76 Q747.771 1543.34 744.299 1546.44 Q740.826 1549.52 734.507 1549.52 Q732.331 1549.52 730.063 1549.15 Q727.817 1548.78 725.41 1548.04 L725.41 1543.34 Q727.493 1544.47 729.715 1545.03 Q731.938 1545.58 734.414 1545.58 Q738.419 1545.58 740.757 1543.48 Q743.095 1541.37 743.095 1537.76 Q743.095 1534.15 740.757 1532.04 Q738.419 1529.94 734.414 1529.94 Q732.539 1529.94 730.664 1530.35 Q728.813 1530.77 726.868 1531.65 L726.868 1514.29 Z" fill="#000000" fill-rule="nonzero" fill-opacity="1" /><path clip-path="url(#clip280)" d="M766.984 1517.37 Q763.373 1517.37 761.544 1520.93 Q759.738 1524.47 759.738 1531.6 Q759.738 1538.71 761.544 1542.27 Q763.373 1545.82 766.984 1545.82 Q770.618 1545.82 772.423 1542.27 Q774.252 1538.71 774.252 1531.6 Q774.252 1524.47 772.423 1520.93 Q770.618 1517.37 766.984 1517.37 M766.984 1513.66 Q772.794 1513.66 775.849 1518.27 Q778.928 1522.85 778.928 1531.6 Q778.928 1540.33 775.849 1544.94 Q772.794 1549.52 766.984 1549.52 Q761.174 1549.52 758.095 1544.94 Q755.039 1540.33 755.039 1531.6 Q755.039 1522.85 758.095 1518.27 Q761.174 1513.66 766.984 1513.66 Z" fill="#000000" fill-rule="nonzero" fill-opacity="1" /><path clip-path="url(#clip280)" d="M1215.17 1514.29 L1233.53 1514.29 L1233.53 1518.22 L1219.45 1518.22 L1219.45 1526.7 Q1220.47 1526.35 1221.49 1526.19 Q1222.51 1526 1223.53 1526 Q1229.31 1526 1232.69 1529.17 Q1236.07 1532.34 1236.07 1537.76 Q1236.07 1543.34 1232.6 1546.44 Q1229.13 1549.52 1222.81 1549.52 Q1220.63 1549.52 1218.36 1549.15 Q1216.12 1548.78 1213.71 1548.04 L1213.71 1543.34 Q1215.8 1544.47 1218.02 1545.03 Q1220.24 1545.58 1222.72 1545.58 Q1226.72 1545.58 1229.06 1543.48 Q1231.4 1541.37 1231.4 1537.76 Q1231.4 1534.15 1229.06 1532.04 Q1226.72 1529.94 1222.72 1529.94 Q1220.84 1529.94 1218.97 1530.35 Q1217.11 1530.77 1215.17 1531.65 L1215.17 1514.29 Z" fill="#000000" fill-rule="nonzero" fill-opacity="1" /><path clip-path="url(#clip280)" d="M1255.29 1517.37 Q1251.67 1517.37 1249.85 1520.93 Q1248.04 1524.47 1248.04 1531.6 Q1248.04 1538.71 1249.85 1542.27 Q1251.67 1545.82 1255.29 1545.82 Q1258.92 1545.82 1260.73 1542.27 Q1262.55 1538.71 1262.55 1531.6 Q1262.55 1524.47 1260.73 1520.93 Q1258.92 1517.37 1255.29 1517.37 M1255.29 1513.66 Q1261.1 1513.66 1264.15 1518.27 Q1267.23 1522.85 1267.23 1531.6 Q1267.23 1540.33 1264.15 1544.94 Q1261.1 1549.52 1255.29 1549.52 Q1249.48 1549.52 1246.4 1544.94 Q1243.34 1540.33 1243.34 1531.6 Q1243.34 1522.85 1246.4 1518.27 Q1249.48 1513.66 1255.29 1513.66 Z" fill="#000000" fill-rule="nonzero" fill-opacity="1" /><path clip-path="url(#clip280)" d="M1285.45 1517.37 Q1281.84 1517.37 1280.01 1520.93 Q1278.2 1524.47 1278.2 1531.6 Q1278.2 1538.71 1280.01 1542.27 Q1281.84 1545.82 1285.45 1545.82 Q1289.08 1545.82 1290.89 1542.27 Q1292.72 1538.71 1292.72 1531.6 Q1292.72 1524.47 1290.89 1520.93 Q1289.08 1517.37 1285.45 1517.37 M1285.45 1513.66 Q1291.26 1513.66 1294.31 1518.27 Q1297.39 1522.85 1297.39 1531.6 Q1297.39 1540.33 1294.31 1544.94 Q1291.26 1549.52 1285.45 1549.52 Q1279.64 1549.52 1276.56 1544.94 Q1273.5 1540.33 1273.5 1531.6 Q1273.5 1522.85 1276.56 1518.27 Q1279.64 1513.66 1285.45 1513.66 Z" fill="#000000" fill-rule="nonzero" fill-opacity="1" /><path clip-path="url(#clip280)" d="M1732.38 1514.29 L1754.61 1514.29 L1754.61 1516.28 L1742.06 1548.85 L1737.18 1548.85 L1748.98 1518.22 L1732.38 1518.22 L1732.38 1514.29 Z" fill="#000000" fill-rule="nonzero" fill-opacity="1" /><path clip-path="url(#clip280)" d="M1763.77 1514.29 L1782.13 1514.29 L1782.13 1518.22 L1768.06 1518.22 L1768.06 1526.7 Q1769.07 1526.35 1770.09 1526.19 Q1771.11 1526 1772.13 1526 Q1777.92 1526 1781.3 1529.17 Q1784.68 1532.34 1784.68 1537.76 Q1784.68 1543.34 1781.2 1546.44 Q1777.73 1549.52 1771.41 1549.52 Q1769.24 1549.52 1766.97 1549.15 Q1764.72 1548.78 1762.31 1548.04 L1762.31 1543.34 Q1764.4 1544.47 1766.62 1545.03 Q1768.84 1545.58 1771.32 1545.58 Q1775.32 1545.58 1777.66 1543.48 Q1780 1541.37 1780 1537.76 Q1780 1534.15 1777.66 1532.04 Q1775.32 1529.94 1771.32 1529.94 Q1769.44 1529.94 1767.57 1530.35 Q1765.72 1530.77 1763.77 1531.65 L1763.77 1514.29 Z" fill="#000000" fill-rule="nonzero" fill-opacity="1" /><path clip-path="url(#clip280)" d="M1803.89 1517.37 Q1800.28 1517.37 1798.45 1520.93 Q1796.64 1524.47 1796.64 1531.6 Q1796.64 1538.71 1798.45 1542.27 Q1800.28 1545.82 1803.89 1545.82 Q1807.52 1545.82 1809.33 1542.27 Q1811.16 1538.71 1811.16 1531.6 Q1811.16 1524.47 1809.33 1520.93 Q1807.52 1517.37 1803.89 1517.37 M1803.89 1513.66 Q1809.7 1513.66 1812.75 1518.27 Q1815.83 1522.85 1815.83 1531.6 Q1815.83 1540.33 1812.75 1544.94 Q1809.7 1549.52 1803.89 1549.52 Q1798.08 1549.52 1795 1544.94 Q1791.94 1540.33 1791.94 1531.6 Q1791.94 1522.85 1795 1518.27 Q1798.08 1513.66 1803.89 1513.66 Z" fill="#000000" fill-rule="nonzero" fill-opacity="1" /><path clip-path="url(#clip280)" d="M2237.19 1544.91 L2244.83 1544.91 L2244.83 1518.55 L2236.52 1520.21 L2236.52 1515.95 L2244.78 1514.29 L2249.46 1514.29 L2249.46 1544.91 L2257.1 1544.91 L2257.1 1548.85 L2237.19 1548.85 L2237.19 1544.91 Z" fill="#000000" fill-rule="nonzero" fill-opacity="1" /><path clip-path="url(#clip280)" d="M2276.54 1517.37 Q2272.93 1517.37 2271.1 1520.93 Q2269.3 1524.47 2269.3 1531.6 Q2269.3 1538.71 2271.1 1542.27 Q2272.93 1545.82 2276.54 1545.82 Q2280.18 1545.82 2281.98 1542.27 Q2283.81 1538.71 2283.81 1531.6 Q2283.81 1524.47 2281.98 1520.93 Q2280.18 1517.37 2276.54 1517.37 M2276.54 1513.66 Q2282.35 1513.66 2285.41 1518.27 Q2288.49 1522.85 2288.49 1531.6 Q2288.49 1540.33 2285.41 1544.94 Q2282.35 1549.52 2276.54 1549.52 Q2270.73 1549.52 2267.65 1544.94 Q2264.6 1540.33 2264.6 1531.6 Q2264.6 1522.85 2267.65 1518.27 Q2270.73 1513.66 2276.54 1513.66 Z" fill="#000000" fill-rule="nonzero" fill-opacity="1" /><path clip-path="url(#clip280)" d="M2306.7 1517.37 Q2303.09 1517.37 2301.27 1520.93 Q2299.46 1524.47 2299.46 1531.6 Q2299.46 1538.71 2301.27 1542.27 Q2303.09 1545.82 2306.7 1545.82 Q2310.34 1545.82 2312.14 1542.27 Q2313.97 1538.71 2313.97 1531.6 Q2313.97 1524.47 2312.14 1520.93 Q2310.34 1517.37 2306.7 1517.37 M2306.7 1513.66 Q2312.51 1513.66 2315.57 1518.27 Q2318.65 1522.85 2318.65 1531.6 Q2318.65 1540.33 2315.57 1544.94 Q2312.51 1549.52 2306.7 1549.52 Q2300.89 1549.52 2297.82 1544.94 Q2294.76 1540.33 2294.76 1531.6 Q2294.76 1522.85 2297.82 1518.27 Q2300.89 1513.66 2306.7 1513.66 Z" fill="#000000" fill-rule="nonzero" fill-opacity="1" /><path clip-path="url(#clip280)" d="M2336.87 1517.37 Q2333.26 1517.37 2331.43 1520.93 Q2329.62 1524.47 2329.62 1531.6 Q2329.62 1538.71 2331.43 1542.27 Q2333.26 1545.82 2336.87 1545.82 Q2340.5 1545.82 2342.31 1542.27 Q2344.14 1538.71 2344.14 1531.6 Q2344.14 1524.47 2342.31 1520.93 Q2340.5 1517.37 2336.87 1517.37 M2336.87 1513.66 Q2342.68 1513.66 2345.73 1518.27 Q2348.81 1522.85 2348.81 1531.6 Q2348.81 1540.33 2345.73 1544.94 Q2342.68 1549.52 2336.87 1549.52 Q2331.06 1549.52 2327.98 1544.94 Q2324.92 1540.33 2324.92 1531.6 Q2324.92 1522.85 2327.98 1518.27 Q2331.06 1513.66 2336.87 1513.66 Z" fill="#000000" fill-rule="nonzero" fill-opacity="1" /><polyline clip-path="url(#clip282)" style="stroke:#000000; stroke-linecap:round; stroke-linejoin:round; stroke-width:2; stroke-opacity:0.1; fill:none" points="156.274,1419.09 2352.76,1419.09 "/>
<polyline clip-path="url(#clip282)" style="stroke:#000000; stroke-linecap:round; stroke-linejoin:round; stroke-width:2; stroke-opacity:0.1; fill:none" points="156.274,1152.87 2352.76,1152.87 "/>
<polyline clip-path="url(#clip282)" style="stroke:#000000; stroke-linecap:round; stroke-linejoin:round; stroke-width:2; stroke-opacity:0.1; fill:none" points="156.274,886.647 2352.76,886.647 "/>
<polyline clip-path="url(#clip282)" style="stroke:#000000; stroke-linecap:round; stroke-linejoin:round; stroke-width:2; stroke-opacity:0.1; fill:none" points="156.274,620.423 2352.76,620.423 "/>
<polyline clip-path="url(#clip282)" style="stroke:#000000; stroke-linecap:round; stroke-linejoin:round; stroke-width:2; stroke-opacity:0.1; fill:none" points="156.274,354.2 2352.76,354.2 "/>
<polyline clip-path="url(#clip282)" style="stroke:#000000; stroke-linecap:round; stroke-linejoin:round; stroke-width:2; stroke-opacity:0.1; fill:none" points="156.274,87.9763 2352.76,87.9763 "/>
<polyline clip-path="url(#clip280)" style="stroke:#000000; stroke-linecap:round; stroke-linejoin:round; stroke-width:4; stroke-opacity:1; fill:none" points="156.274,1486.45 156.274,47.2441 "/>
<polyline clip-path="url(#clip280)" style="stroke:#000000; stroke-linecap:round; stroke-linejoin:round; stroke-width:4; stroke-opacity:1; fill:none" points="156.274,1419.09 175.172,1419.09 "/>
<polyline clip-path="url(#clip280)" style="stroke:#000000; stroke-linecap:round; stroke-linejoin:round; stroke-width:4; stroke-opacity:1; fill:none" points="156.274,1152.87 175.172,1152.87 "/>
<polyline clip-path="url(#clip280)" style="stroke:#000000; stroke-linecap:round; stroke-linejoin:round; stroke-width:4; stroke-opacity:1; fill:none" points="156.274,886.647 175.172,886.647 "/>
<polyline clip-path="url(#clip280)" style="stroke:#000000; stroke-linecap:round; stroke-linejoin:round; stroke-width:4; stroke-opacity:1; fill:none" points="156.274,620.423 175.172,620.423 "/>
<polyline clip-path="url(#clip280)" style="stroke:#000000; stroke-linecap:round; stroke-linejoin:round; stroke-width:4; stroke-opacity:1; fill:none" points="156.274,354.2 175.172,354.2 "/>
<polyline clip-path="url(#clip280)" style="stroke:#000000; stroke-linecap:round; stroke-linejoin:round; stroke-width:4; stroke-opacity:1; fill:none" points="156.274,87.9763 175.172,87.9763 "/>
<path clip-path="url(#clip280)" d="M64.0939 1404.89 Q60.4828 1404.89 58.6541 1408.46 Q56.8486 1412 56.8486 1419.13 Q56.8486 1426.23 58.6541 1429.8 Q60.4828 1433.34 64.0939 1433.34 Q67.7281 1433.34 69.5337 1429.8 Q71.3624 1426.23 71.3624 1419.13 Q71.3624 1412 69.5337 1408.46 Q67.7281 1404.89 64.0939 1404.89 M64.0939 1401.19 Q69.9041 1401.19 72.9596 1405.79 Q76.0383 1410.38 76.0383 1419.13 Q76.0383 1427.85 72.9596 1432.46 Q69.9041 1437.04 64.0939 1437.04 Q58.2838 1437.04 55.2051 1432.46 Q52.1495 1427.85 52.1495 1419.13 Q52.1495 1410.38 55.2051 1405.79 Q58.2838 1401.19 64.0939 1401.19 Z" fill="#000000" fill-rule="nonzero" fill-opacity="1" /><path clip-path="url(#clip280)" d="M84.2558 1430.49 L89.1401 1430.49 L89.1401 1436.37 L84.2558 1436.37 L84.2558 1430.49 Z" fill="#000000" fill-rule="nonzero" fill-opacity="1" /><path clip-path="url(#clip280)" d="M99.3715 1401.81 L117.728 1401.81 L117.728 1405.75 L103.654 1405.75 L103.654 1414.22 Q104.672 1413.87 105.691 1413.71 Q106.709 1413.53 107.728 1413.53 Q113.515 1413.53 116.895 1416.7 Q120.274 1419.87 120.274 1425.29 Q120.274 1430.86 116.802 1433.97 Q113.33 1437.04 107.01 1437.04 Q104.834 1437.04 102.566 1436.67 Q100.321 1436.3 97.9132 1435.56 L97.9132 1430.86 Q99.9965 1432 102.219 1432.55 Q104.441 1433.11 106.918 1433.11 Q110.922 1433.11 113.26 1431 Q115.598 1428.9 115.598 1425.29 Q115.598 1421.67 113.26 1419.57 Q110.922 1417.46 106.918 1417.46 Q105.043 1417.46 103.168 1417.88 Q101.316 1418.29 99.3715 1419.17 L99.3715 1401.81 Z" fill="#000000" fill-rule="nonzero" fill-opacity="1" /><path clip-path="url(#clip280)" d="M62.9365 1138.67 Q59.3254 1138.67 57.4967 1142.23 Q55.6912 1145.78 55.6912 1152.9 Q55.6912 1160.01 57.4967 1163.58 Q59.3254 1167.12 62.9365 1167.12 Q66.5707 1167.12 68.3763 1163.58 Q70.205 1160.01 70.205 1152.9 Q70.205 1145.78 68.3763 1142.23 Q66.5707 1138.67 62.9365 1138.67 M62.9365 1134.96 Q68.7467 1134.96 71.8022 1139.57 Q74.8809 1144.15 74.8809 1152.9 Q74.8809 1161.63 71.8022 1166.24 Q68.7467 1170.82 62.9365 1170.82 Q57.1264 1170.82 54.0477 1166.24 Q50.9921 1161.63 50.9921 1152.9 Q50.9921 1144.15 54.0477 1139.57 Q57.1264 1134.96 62.9365 1134.96 Z" fill="#000000" fill-rule="nonzero" fill-opacity="1" /><path clip-path="url(#clip280)" d="M83.0984 1164.27 L87.9827 1164.27 L87.9827 1170.15 L83.0984 1170.15 L83.0984 1164.27 Z" fill="#000000" fill-rule="nonzero" fill-opacity="1" /><path clip-path="url(#clip280)" d="M108.746 1151.01 Q105.598 1151.01 103.746 1153.16 Q101.918 1155.31 101.918 1159.06 Q101.918 1162.79 103.746 1164.96 Q105.598 1167.12 108.746 1167.12 Q111.895 1167.12 113.723 1164.96 Q115.575 1162.79 115.575 1159.06 Q115.575 1155.31 113.723 1153.16 Q111.895 1151.01 108.746 1151.01 M118.029 1136.35 L118.029 1140.61 Q116.27 1139.78 114.464 1139.34 Q112.682 1138.9 110.922 1138.9 Q106.293 1138.9 103.839 1142.03 Q101.409 1145.15 101.061 1151.47 Q102.427 1149.46 104.487 1148.39 Q106.547 1147.3 109.024 1147.3 Q114.233 1147.3 117.242 1150.47 Q120.274 1153.62 120.274 1159.06 Q120.274 1164.39 117.126 1167.6 Q113.978 1170.82 108.746 1170.82 Q102.751 1170.82 99.5798 1166.24 Q96.4085 1161.63 96.4085 1152.9 Q96.4085 1144.71 100.297 1139.85 Q104.186 1134.96 110.737 1134.96 Q112.496 1134.96 114.279 1135.31 Q116.084 1135.66 118.029 1136.35 Z" fill="#000000" fill-rule="nonzero" fill-opacity="1" /><path clip-path="url(#clip280)" d="M64.0013 872.445 Q60.3902 872.445 58.5615 876.01 Q56.756 879.552 56.756 886.681 Q56.756 893.788 58.5615 897.352 Q60.3902 900.894 64.0013 900.894 Q67.6356 900.894 69.4411 897.352 Q71.2698 893.788 71.2698 886.681 Q71.2698 879.552 69.4411 876.01 Q67.6356 872.445 64.0013 872.445 M64.0013 868.742 Q69.8115 868.742 72.867 873.348 Q75.9457 877.931 75.9457 886.681 Q75.9457 895.408 72.867 900.015 Q69.8115 904.598 64.0013 904.598 Q58.1912 904.598 55.1125 900.015 Q52.0569 895.408 52.0569 886.681 Q52.0569 877.931 55.1125 873.348 Q58.1912 868.742 64.0013 868.742 Z" fill="#000000" fill-rule="nonzero" fill-opacity="1" /><path clip-path="url(#clip280)" d="M84.1632 898.047 L89.0475 898.047 L89.0475 903.927 L84.1632 903.927 L84.1632 898.047 Z" fill="#000000" fill-rule="nonzero" fill-opacity="1" /><path clip-path="url(#clip280)" d="M98.0521 869.367 L120.274 869.367 L120.274 871.357 L107.728 903.927 L102.844 903.927 L114.649 873.302 L98.0521 873.302 L98.0521 869.367 Z" fill="#000000" fill-rule="nonzero" fill-opacity="1" /><path clip-path="url(#clip280)" d="M63.1911 606.222 Q59.58 606.222 57.7513 609.787 Q55.9458 613.328 55.9458 620.458 Q55.9458 627.564 57.7513 631.129 Q59.58 634.671 63.1911 634.671 Q66.8254 634.671 68.6309 631.129 Q70.4596 627.564 70.4596 620.458 Q70.4596 613.328 68.6309 609.787 Q66.8254 606.222 63.1911 606.222 M63.1911 602.518 Q69.0013 602.518 72.0568 607.125 Q75.1355 611.708 75.1355 620.458 Q75.1355 629.185 72.0568 633.791 Q69.0013 638.374 63.1911 638.374 Q57.381 638.374 54.3023 633.791 Q51.2468 629.185 51.2468 620.458 Q51.2468 611.708 54.3023 607.125 Q57.381 602.518 63.1911 602.518 Z" fill="#000000" fill-rule="nonzero" fill-opacity="1" /><path clip-path="url(#clip280)" d="M83.3531 631.824 L88.2373 631.824 L88.2373 637.703 L83.3531 637.703 L83.3531 631.824 Z" fill="#000000" fill-rule="nonzero" fill-opacity="1" /><path clip-path="url(#clip280)" d="M108.422 621.291 Q105.089 621.291 103.168 623.074 Q101.27 624.856 101.27 627.981 Q101.27 631.106 103.168 632.888 Q105.089 634.671 108.422 634.671 Q111.756 634.671 113.677 632.888 Q115.598 631.083 115.598 627.981 Q115.598 624.856 113.677 623.074 Q111.779 621.291 108.422 621.291 M103.746 619.3 Q100.737 618.56 99.0474 616.5 Q97.3808 614.439 97.3808 611.476 Q97.3808 607.333 100.321 604.926 Q103.284 602.518 108.422 602.518 Q113.584 602.518 116.524 604.926 Q119.464 607.333 119.464 611.476 Q119.464 614.439 117.774 616.5 Q116.108 618.56 113.121 619.3 Q116.501 620.087 118.376 622.379 Q120.274 624.671 120.274 627.981 Q120.274 633.004 117.195 635.689 Q114.14 638.374 108.422 638.374 Q102.705 638.374 99.6261 635.689 Q96.5706 633.004 96.5706 627.981 Q96.5706 624.671 98.4687 622.379 Q100.367 620.087 103.746 619.3 M102.034 611.916 Q102.034 614.601 103.7 616.106 Q105.39 617.611 108.422 617.611 Q111.432 617.611 113.121 616.106 Q114.834 614.601 114.834 611.916 Q114.834 609.231 113.121 607.726 Q111.432 606.222 108.422 606.222 Q105.39 606.222 103.7 607.726 Q102.034 609.231 102.034 611.916 Z" fill="#000000" fill-rule="nonzero" fill-opacity="1" /><path clip-path="url(#clip280)" d="M63.2837 339.998 Q59.6726 339.998 57.8439 343.563 Q56.0384 347.105 56.0384 354.234 Q56.0384 361.341 57.8439 364.906 Q59.6726 368.447 63.2837 368.447 Q66.918 368.447 68.7235 364.906 Q70.5522 361.341 70.5522 354.234 Q70.5522 347.105 68.7235 343.563 Q66.918 339.998 63.2837 339.998 M63.2837 336.295 Q69.0939 336.295 72.1494 340.901 Q75.2281 345.484 75.2281 354.234 Q75.2281 362.961 72.1494 367.568 Q69.0939 372.151 63.2837 372.151 Q57.4736 372.151 54.3949 367.568 Q51.3393 362.961 51.3393 354.234 Q51.3393 345.484 54.3949 340.901 Q57.4736 336.295 63.2837 336.295 Z" fill="#000000" fill-rule="nonzero" fill-opacity="1" /><path clip-path="url(#clip280)" d="M83.4457 365.6 L88.3299 365.6 L88.3299 371.48 L83.4457 371.48 L83.4457 365.6 Z" fill="#000000" fill-rule="nonzero" fill-opacity="1" /><path clip-path="url(#clip280)" d="M98.6539 370.762 L98.6539 366.503 Q100.413 367.336 102.219 367.776 Q104.024 368.216 105.76 368.216 Q110.39 368.216 112.82 365.114 Q115.274 361.989 115.621 355.646 Q114.279 357.637 112.219 358.702 Q110.158 359.767 107.658 359.767 Q102.473 359.767 99.4409 356.642 Q96.4317 353.494 96.4317 348.054 Q96.4317 342.73 99.5798 339.512 Q102.728 336.295 107.959 336.295 Q113.955 336.295 117.103 340.901 Q120.274 345.484 120.274 354.234 Q120.274 362.406 116.385 367.29 Q112.52 372.151 105.969 372.151 Q104.209 372.151 102.404 371.804 Q100.598 371.457 98.6539 370.762 M107.959 356.109 Q111.108 356.109 112.936 353.957 Q114.788 351.804 114.788 348.054 Q114.788 344.327 112.936 342.174 Q111.108 339.998 107.959 339.998 Q104.811 339.998 102.959 342.174 Q101.131 344.327 101.131 348.054 Q101.131 351.804 102.959 353.957 Q104.811 356.109 107.959 356.109 Z" fill="#000000" fill-rule="nonzero" fill-opacity="1" /><path clip-path="url(#clip280)" d="M53.9088 101.321 L61.5476 101.321 L61.5476 74.9555 L53.2375 76.6222 L53.2375 72.3629 L61.5013 70.6963 L66.1772 70.6963 L66.1772 101.321 L73.8161 101.321 L73.8161 105.256 L53.9088 105.256 L53.9088 101.321 Z" fill="#000000" fill-rule="nonzero" fill-opacity="1" /><path clip-path="url(#clip280)" d="M83.2605 99.3767 L88.1447 99.3767 L88.1447 105.256 L83.2605 105.256 L83.2605 99.3767 Z" fill="#000000" fill-rule="nonzero" fill-opacity="1" /><path clip-path="url(#clip280)" d="M108.33 73.775 Q104.719 73.775 102.89 77.3398 Q101.084 80.8814 101.084 88.011 Q101.084 95.1174 102.89 98.6822 Q104.719 102.224 108.33 102.224 Q111.964 102.224 113.77 98.6822 Q115.598 95.1174 115.598 88.011 Q115.598 80.8814 113.77 77.3398 Q111.964 73.775 108.33 73.775 M108.33 70.0713 Q114.14 70.0713 117.195 74.6777 Q120.274 79.261 120.274 88.011 Q120.274 96.7378 117.195 101.344 Q114.14 105.928 108.33 105.928 Q102.52 105.928 99.4409 101.344 Q96.3854 96.7378 96.3854 88.011 Q96.3854 79.261 99.4409 74.6777 Q102.52 70.0713 108.33 70.0713 Z" fill="#000000" fill-rule="nonzero" fill-opacity="1" /><polyline clip-path="url(#clip282)" style="stroke:#009af9; stroke-linecap:round; stroke-linejoin:round; stroke-width:4; stroke-opacity:1; fill:none" points="218.439,1033.07 220.513,1166.18 222.587,926.58 224.661,1246.05 226.736,1166.18 228.81,1445.72 230.884,1246.05 232.958,1352.54 235.033,1246.05 237.107,1299.29 239.181,1179.49 241.255,1206.11 243.329,1086.31 245.404,1073 247.478,1099.63 249.552,899.958 251.626,833.402 253.701,899.958 255.775,740.224 257.849,766.846 259.923,793.468 261.998,527.245 264.072,593.801 266.146,367.511 268.22,460.689 270.294,460.689 272.369,407.444 274.443,380.822 276.517,487.311 278.591,327.577 280.666,287.644 282.74,354.2 284.814,261.021 286.888,314.266 288.962,274.333 291.037,354.2 293.111,274.333 295.185,221.088 297.259,234.399 299.334,221.088 301.408,194.466 303.482,247.71 305.556,167.843 307.63,167.843 309.705,221.088 311.779,247.71 313.853,234.399 315.927,247.71 318.002,194.466 320.076,141.221 322.15,194.466 324.224,181.154 326.299,141.221 328.373,141.221 330.447,127.91 332.521,221.088 334.595,181.154 336.67,194.466 338.744,167.843 340.818,154.532 342.892,181.154 344.967,127.91 347.041,127.91 349.115,167.843 351.189,221.088 353.263,207.777 355.338,167.843 357.412,127.91 359.486,181.154 361.56,181.154 363.635,141.221 365.709,141.221 367.783,127.91 369.857,141.221 371.932,127.91 374.006,127.91 376.08,127.91 378.154,154.532 380.228,154.532 382.303,141.221 384.377,141.221 386.451,127.91 388.525,127.91 390.6,154.532 392.674,154.532 394.748,127.91 396.822,141.221 398.896,141.221 400.971,154.532 403.045,114.599 405.119,114.599 407.193,101.287 409.268,167.843 411.342,114.599 413.416,114.599 415.49,141.221 417.565,114.599 419.639,114.599 421.713,114.599 423.787,114.599 425.861,141.221 427.936,167.843 430.01,141.221 432.084,127.91 434.158,114.599 436.233,114.599 438.307,114.599 440.381,141.221 442.455,127.91 444.529,114.599 446.604,101.287 448.678,101.287 450.752,87.9763 452.826,141.221 454.901,114.599 456.975,127.91 459.049,87.9763 461.123,141.221 463.198,141.221 465.272,114.599 467.346,194.466 469.42,127.91 471.494,127.91 473.569,141.221 475.643,141.221 477.717,114.599 479.791,127.91 481.866,114.599 483.94,154.532 486.014,141.221 488.088,101.287 490.162,114.599 492.237,87.9763 494.311,101.287 496.385,127.91 498.459,101.287 500.534,87.9763 502.608,101.287 504.682,101.287 506.756,114.599 508.83,141.221 510.905,127.91 512.979,141.221 515.053,114.599 517.127,114.599 519.202,127.91 521.276,87.9763 523.35,114.599 525.424,101.287 527.499,114.599 529.573,127.91 531.647,87.9763 533.721,127.91 535.795,87.9763 537.87,87.9763 539.944,101.287 542.018,141.221 544.092,141.221 546.167,101.287 548.241,101.287 550.315,87.9763 552.389,101.287 554.463,101.287 556.538,101.287 558.612,127.91 560.686,101.287 562.76,101.287 564.835,101.287 566.909,114.599 568.983,114.599 571.057,101.287 573.132,127.91 575.206,114.599 577.28,141.221 579.354,114.599 581.428,101.287 583.503,114.599 585.577,127.91 587.651,154.532 589.725,101.287 591.8,127.91 593.874,101.287 595.948,114.599 598.022,101.287 600.096,87.9763 602.171,87.9763 604.245,114.599 606.319,127.91 608.393,141.221 610.468,101.287 612.542,101.287 614.616,87.9763 616.69,101.287 618.765,101.287 620.839,101.287 622.913,101.287 624.987,87.9763 627.061,114.599 629.136,101.287 631.21,114.599 633.284,114.599 635.358,87.9763 637.433,87.9763 639.507,101.287 641.581,101.287 643.655,101.287 645.729,87.9763 647.804,101.287 649.878,114.599 651.952,101.287 654.026,87.9763 656.101,114.599 658.175,114.599 660.249,101.287 662.323,87.9763 664.398,101.287 666.472,114.599 668.546,101.287 670.62,101.287 672.694,87.9763 674.769,87.9763 676.843,127.91 678.917,114.599 680.991,101.287 683.066,114.599 685.14,114.599 687.214,101.287 689.288,87.9763 691.362,87.9763 693.437,101.287 695.511,101.287 697.585,87.9763 699.659,101.287 701.734,101.287 703.808,127.91 705.882,87.9763 707.956,87.9763 710.03,101.287 712.105,127.91 714.179,101.287 716.253,87.9763 718.327,101.287 720.402,87.9763 722.476,101.287 724.55,87.9763 726.624,114.599 728.699,87.9763 730.773,101.287 732.847,101.287 734.921,87.9763 736.995,87.9763 739.07,101.287 741.144,114.599 743.218,87.9763 745.292,114.599 747.367,114.599 749.441,101.287 751.515,87.9763 753.589,127.91 755.663,114.599 757.738,101.287 759.812,114.599 761.886,101.287 763.96,114.599 766.035,114.599 768.109,101.287 770.183,87.9763 772.257,87.9763 774.332,114.599 776.406,101.287 778.48,101.287 780.554,87.9763 782.628,101.287 784.703,101.287 786.777,101.287 788.851,127.91 790.925,87.9763 793,127.91 795.074,114.599 797.148,101.287 799.222,87.9763 801.296,87.9763 803.371,114.599 805.445,101.287 807.519,87.9763 809.593,87.9763 811.668,101.287 813.742,87.9763 815.816,101.287 817.89,87.9763 819.965,87.9763 822.039,127.91 824.113,87.9763 826.187,101.287 828.261,87.9763 830.336,114.599 832.41,101.287 834.484,127.91 836.558,101.287 838.633,87.9763 840.707,101.287 842.781,87.9763 844.855,101.287 846.929,87.9763 849.004,101.287 851.078,87.9763 853.152,101.287 855.226,87.9763 857.301,101.287 859.375,101.287 861.449,101.287 863.523,127.91 865.598,114.599 867.672,87.9763 869.746,87.9763 871.82,87.9763 873.894,101.287 875.969,87.9763 878.043,87.9763 880.117,101.287 882.191,101.287 884.266,101.287 886.34,114.599 888.414,101.287 890.488,101.287 892.562,101.287 894.637,114.599 896.711,101.287 898.785,87.9763 900.859,87.9763 902.934,87.9763 905.008,101.287 907.082,87.9763 909.156,101.287 911.23,87.9763 913.305,101.287 915.379,101.287 917.453,87.9763 919.527,87.9763 921.602,87.9763 923.676,101.287 925.75,154.532 927.824,87.9763 929.899,101.287 931.973,87.9763 934.047,114.599 936.121,87.9763 938.195,87.9763 940.27,101.287 942.344,87.9763 944.418,87.9763 946.492,101.287 948.567,87.9763 950.641,101.287 952.715,87.9763 954.789,87.9763 956.863,101.287 958.938,87.9763 961.012,101.287 963.086,114.599 965.16,101.287 967.235,87.9763 969.309,87.9763 971.383,101.287 973.457,101.287 975.532,87.9763 977.606,114.599 979.68,87.9763 981.754,87.9763 983.828,87.9763 985.903,101.287 987.977,101.287 990.051,101.287 992.125,87.9763 994.2,87.9763 996.274,101.287 998.348,101.287 1000.42,101.287 1002.5,87.9763 1004.57,101.287 1006.64,101.287 1008.72,101.287 1010.79,87.9763 1012.87,101.287 1014.94,87.9763 1017.02,101.287 1019.09,114.599 1021.16,87.9763 1023.24,101.287 1025.31,101.287 1027.39,101.287 1029.46,87.9763 1031.54,114.599 1033.61,87.9763 1035.68,114.599 1037.76,87.9763 1039.83,87.9763 1041.91,87.9763 1043.98,101.287 1046.06,101.287 1048.13,101.287 1050.2,101.287 1052.28,87.9763 1054.35,87.9763 1056.43,87.9763 1058.5,87.9763 1060.57,87.9763 1062.65,87.9763 1064.72,87.9763 1066.8,87.9763 1068.87,127.91 1070.95,87.9763 1073.02,101.287 1075.09,87.9763 1077.17,101.287 1079.24,101.287 1081.32,101.287 1083.39,87.9763 1085.47,101.287 1087.54,101.287 1089.61,114.599 1091.69,87.9763 1093.76,87.9763 1095.84,87.9763 1097.91,101.287 1099.99,87.9763 1102.06,101.287 1104.13,101.287 1106.21,87.9763 1108.28,101.287 1110.36,101.287 1112.43,87.9763 1114.5,101.287 1116.58,114.599 1118.65,101.287 1120.73,87.9763 1122.8,87.9763 1124.88,101.287 1126.95,114.599 1129.02,87.9763 1131.1,114.599 1133.17,87.9763 1135.25,114.599 1137.32,87.9763 1139.4,127.91 1141.47,87.9763 1143.54,101.287 1145.62,114.599 1147.69,101.287 1149.77,114.599 1151.84,87.9763 1153.92,101.287 1155.99,114.599 1158.06,87.9763 1160.14,87.9763 1162.21,87.9763 1164.29,101.287 1166.36,101.287 1168.43,114.599 1170.51,101.287 1172.58,87.9763 1174.66,101.287 1176.73,87.9763 1178.81,87.9763 1180.88,101.287 1182.95,114.599 1185.03,87.9763 1187.1,101.287 1189.18,101.287 1191.25,87.9763 1193.33,87.9763 1195.4,87.9763 1197.47,87.9763 1199.55,87.9763 1201.62,87.9763 1203.7,87.9763 1205.77,87.9763 1207.84,114.599 1209.92,101.287 1211.99,87.9763 1214.07,87.9763 1216.14,101.287 1218.22,87.9763 1220.29,101.287 1222.36,87.9763 1224.44,87.9763 1226.51,101.287 1228.59,87.9763 1230.66,87.9763 1232.74,87.9763 1234.81,114.599 1236.88,101.287 1238.96,101.287 1241.03,87.9763 1243.11,87.9763 1245.18,87.9763 1247.26,87.9763 1249.33,101.287 1251.4,87.9763 1253.48,87.9763 1255.55,87.9763 1257.63,101.287 1259.7,101.287 1261.77,87.9763 1263.85,101.287 1265.92,101.287 1268,87.9763 1270.07,87.9763 1272.15,87.9763 1274.22,101.287 1276.29,87.9763 1278.37,87.9763 1280.44,87.9763 1282.52,87.9763 1284.59,87.9763 1286.67,87.9763 1288.74,87.9763 1290.81,114.599 1292.89,87.9763 1294.96,101.287 1297.04,87.9763 1299.11,87.9763 1301.19,87.9763 1303.26,101.287 1305.33,87.9763 1307.41,101.287 1309.48,87.9763 1311.56,87.9763 1313.63,87.9763 1315.7,101.287 1317.78,101.287 1319.85,87.9763 1321.93,87.9763 1324,87.9763 1326.08,114.599 1328.15,87.9763 1330.22,127.91 1332.3,87.9763 1334.37,101.287 1336.45,87.9763 1338.52,87.9763 1340.6,87.9763 1342.67,101.287 1344.74,101.287 1346.82,87.9763 1348.89,101.287 1350.97,114.599 1353.04,87.9763 1355.12,87.9763 1357.19,101.287 1359.26,87.9763 1361.34,87.9763 1363.41,87.9763 1365.49,87.9763 1367.56,87.9763 1369.63,101.287 1371.71,87.9763 1373.78,87.9763 1375.86,101.287 1377.93,87.9763 1380.01,101.287 1382.08,101.287 1384.15,87.9763 1386.23,87.9763 1388.3,87.9763 1390.38,87.9763 1392.45,87.9763 1394.53,114.599 1396.6,87.9763 1398.67,87.9763 1400.75,87.9763 1402.82,101.287 1404.9,87.9763 1406.97,87.9763 1409.04,114.599 1411.12,101.287 1413.19,87.9763 1415.27,87.9763 1417.34,87.9763 1419.42,87.9763 1421.49,87.9763 1423.56,87.9763 1425.64,87.9763 1427.71,87.9763 1429.79,87.9763 1431.86,87.9763 1433.94,87.9763 1436.01,87.9763 1438.08,101.287 1440.16,101.287 1442.23,101.287 1444.31,101.287 1446.38,87.9763 1448.46,87.9763 1450.53,87.9763 1452.6,101.287 1454.68,87.9763 1456.75,87.9763 1458.83,87.9763 1460.9,87.9763 1462.97,87.9763 1465.05,127.91 1467.12,87.9763 1469.2,114.599 1471.27,87.9763 1473.35,87.9763 1475.42,101.287 1477.49,87.9763 1479.57,87.9763 1481.64,101.287 1483.72,87.9763 1485.79,87.9763 1487.87,87.9763 1489.94,87.9763 1492.01,87.9763 1494.09,87.9763 1496.16,101.287 1498.24,87.9763 1500.31,87.9763 1502.39,101.287 1504.46,87.9763 1506.53,87.9763 1508.61,87.9763 1510.68,87.9763 1512.76,101.287 1514.83,87.9763 1516.9,87.9763 1518.98,87.9763 1521.05,101.287 1523.13,87.9763 1525.2,127.91 1527.28,87.9763 1529.35,87.9763 1531.42,101.287 1533.5,87.9763 1535.57,87.9763 1537.65,101.287 1539.72,114.599 1541.8,87.9763 1543.87,101.287 1545.94,87.9763 1548.02,87.9763 1550.09,87.9763 1552.17,87.9763 1554.24,101.287 1556.32,101.287 1558.39,87.9763 1560.46,87.9763 1562.54,101.287 1564.61,87.9763 1566.69,87.9763 1568.76,101.287 1570.83,87.9763 1572.91,87.9763 1574.98,101.287 1577.06,87.9763 1579.13,87.9763 1581.21,87.9763 1583.28,87.9763 1585.35,101.287 1587.43,114.599 1589.5,101.287 1591.58,87.9763 1593.65,87.9763 1595.73,87.9763 1597.8,87.9763 1599.87,101.287 1601.95,87.9763 1604.02,114.599 1606.1,101.287 1608.17,87.9763 1610.24,87.9763 1612.32,87.9763 1614.39,87.9763 1616.47,87.9763 1618.54,127.91 1620.62,87.9763 1622.69,87.9763 1624.76,87.9763 1626.84,127.91 1628.91,87.9763 1630.99,87.9763 1633.06,87.9763 1635.14,87.9763 1637.21,87.9763 1639.28,87.9763 1641.36,87.9763 1643.43,101.287 1645.51,87.9763 1647.58,101.287 1649.66,101.287 1651.73,87.9763 1653.8,87.9763 1655.88,87.9763 1657.95,87.9763 1660.03,87.9763 1662.1,114.599 1664.17,87.9763 1666.25,87.9763 1668.32,101.287 1670.4,101.287 1672.47,114.599 1674.55,101.287 1676.62,87.9763 1678.69,87.9763 1680.77,87.9763 1682.84,101.287 1684.92,101.287 1686.99,101.287 1689.07,101.287 1691.14,87.9763 1693.21,87.9763 1695.29,101.287 1697.36,101.287 1699.44,101.287 1701.51,87.9763 1703.59,87.9763 1705.66,87.9763 1707.73,101.287 1709.81,87.9763 1711.88,101.287 1713.96,87.9763 1716.03,127.91 1718.1,87.9763 1720.18,87.9763 1722.25,114.599 1724.33,101.287 1726.4,101.287 1728.48,114.599 1730.55,101.287 1732.62,101.287 1734.7,87.9763 1736.77,87.9763 1738.85,87.9763 1740.92,87.9763 1743,87.9763 1745.07,101.287 1747.14,101.287 1749.22,87.9763 1751.29,87.9763 1753.37,87.9763 1755.44,87.9763 1757.52,101.287 1759.59,87.9763 1761.66,87.9763 1763.74,101.287 1765.81,101.287 1767.89,87.9763 1769.96,87.9763 1772.03,101.287 1774.11,87.9763 1776.18,101.287 1778.26,87.9763 1780.33,87.9763 1782.41,101.287 1784.48,87.9763 1786.55,87.9763 1788.63,101.287 1790.7,101.287 1792.78,87.9763 1794.85,87.9763 1796.93,101.287 1799,101.287 1801.07,87.9763 1803.15,101.287 1805.22,87.9763 1807.3,87.9763 1809.37,87.9763 1811.44,87.9763 1813.52,87.9763 1815.59,87.9763 1817.67,101.287 1819.74,87.9763 1821.82,87.9763 1823.89,87.9763 1825.96,87.9763 1828.04,87.9763 1830.11,101.287 1832.19,87.9763 1834.26,87.9763 1836.34,87.9763 1838.41,101.287 1840.48,87.9763 1842.56,87.9763 1844.63,101.287 1846.71,101.287 1848.78,87.9763 1850.86,114.599 1852.93,101.287 1855,87.9763 1857.08,87.9763 1859.15,101.287 1861.23,87.9763 1863.3,87.9763 1865.37,87.9763 1867.45,87.9763 1869.52,101.287 1871.6,87.9763 1873.67,87.9763 1875.75,87.9763 1877.82,101.287 1879.89,101.287 1881.97,87.9763 1884.04,87.9763 1886.12,87.9763 1888.19,101.287 1890.27,87.9763 1892.34,114.599 1894.41,87.9763 1896.49,87.9763 1898.56,101.287 1900.64,87.9763 1902.71,87.9763 1904.79,87.9763 1906.86,87.9763 1908.93,87.9763 1911.01,87.9763 1913.08,87.9763 1915.16,101.287 1917.23,87.9763 1919.3,87.9763 1921.38,87.9763 1923.45,87.9763 1925.53,101.287 1927.6,87.9763 1929.68,87.9763 1931.75,87.9763 1933.82,87.9763 1935.9,87.9763 1937.97,87.9763 1940.05,101.287 1942.12,87.9763 1944.2,101.287 1946.27,87.9763 1948.34,87.9763 1950.42,87.9763 1952.49,87.9763 1954.57,87.9763 1956.64,87.9763 1958.72,101.287 1960.79,114.599 1962.86,87.9763 1964.94,101.287 1967.01,87.9763 1969.09,87.9763 1971.16,87.9763 1973.23,87.9763 1975.31,87.9763 1977.38,87.9763 1979.46,87.9763 1981.53,87.9763 1983.61,101.287 1985.68,87.9763 1987.75,87.9763 1989.83,87.9763 1991.9,87.9763 1993.98,87.9763 1996.05,87.9763 1998.13,87.9763 2000.2,87.9763 2002.27,87.9763 2004.35,101.287 2006.42,87.9763 2008.5,87.9763 2010.57,87.9763 2012.64,87.9763 2014.72,87.9763 2016.79,87.9763 2018.87,87.9763 2020.94,87.9763 2023.02,87.9763 2025.09,87.9763 2027.16,101.287 2029.24,87.9763 2031.31,87.9763 2033.39,87.9763 2035.46,87.9763 2037.54,87.9763 2039.61,87.9763 2041.68,87.9763 2043.76,87.9763 2045.83,101.287 2047.91,87.9763 2049.98,87.9763 2052.06,87.9763 2054.13,87.9763 2056.2,87.9763 2058.28,87.9763 2060.35,101.287 2062.43,114.599 2064.5,87.9763 2066.57,87.9763 2068.65,87.9763 2070.72,87.9763 2072.8,87.9763 2074.87,87.9763 2076.95,101.287 2079.02,87.9763 2081.09,87.9763 2083.17,114.599 2085.24,87.9763 2087.32,87.9763 2089.39,87.9763 2091.47,87.9763 2093.54,87.9763 2095.61,101.287 2097.69,101.287 2099.76,87.9763 2101.84,101.287 2103.91,87.9763 2105.99,87.9763 2108.06,101.287 2110.13,87.9763 2112.21,87.9763 2114.28,87.9763 2116.36,114.599 2118.43,87.9763 2120.5,87.9763 2122.58,87.9763 2124.65,87.9763 2126.73,101.287 2128.8,87.9763 2130.88,87.9763 2132.95,87.9763 2135.02,87.9763 2137.1,101.287 2139.17,101.287 2141.25,87.9763 2143.32,87.9763 2145.4,87.9763 2147.47,87.9763 2149.54,87.9763 2151.62,87.9763 2153.69,87.9763 2155.77,114.599 2157.84,114.599 2159.92,101.287 2161.99,87.9763 2164.06,101.287 2166.14,87.9763 2168.21,87.9763 2170.29,87.9763 2172.36,87.9763 2174.43,101.287 2176.51,87.9763 2178.58,87.9763 2180.66,87.9763 2182.73,87.9763 2184.81,87.9763 2186.88,101.287 2188.95,101.287 2191.03,87.9763 2193.1,87.9763 2195.18,87.9763 2197.25,101.287 2199.33,101.287 2201.4,101.287 2203.47,87.9763 2205.55,87.9763 2207.62,101.287 2209.7,87.9763 2211.77,101.287 2213.84,87.9763 2215.92,87.9763 2217.99,87.9763 2220.07,87.9763 2222.14,87.9763 2224.22,114.599 2226.29,87.9763 2228.36,101.287 2230.44,101.287 2232.51,87.9763 2234.59,87.9763 2236.66,87.9763 2238.74,87.9763 2240.81,101.287 2242.88,87.9763 2244.96,87.9763 2247.03,87.9763 2249.11,87.9763 2251.18,87.9763 2253.26,87.9763 2255.33,87.9763 2257.4,87.9763 2259.48,87.9763 2261.55,101.287 2263.63,87.9763 2265.7,87.9763 2267.77,101.287 2269.85,87.9763 2271.92,101.287 2274,87.9763 2276.07,87.9763 2278.15,87.9763 2280.22,87.9763 2282.29,87.9763 2284.37,87.9763 2286.44,87.9763 2288.52,87.9763 2290.59,101.287 "/>
<path clip-path="url(#clip280)" d="M2007.46 1438.47 L2279.54 1438.47 L2279.54 1334.79 L2007.46 1334.79  Z" fill="#ffffff" fill-rule="evenodd" fill-opacity="1"/>
<polyline clip-path="url(#clip280)" style="stroke:#000000; stroke-linecap:round; stroke-linejoin:round; stroke-width:4; stroke-opacity:1; fill:none" points="2007.46,1438.47 2279.54,1438.47 2279.54,1334.79 2007.46,1334.79 2007.46,1438.47 "/>
<polyline clip-path="url(#clip280)" style="stroke:#009af9; stroke-linecap:round; stroke-linejoin:round; stroke-width:4; stroke-opacity:1; fill:none" points="2031.87,1386.63 2178.3,1386.63 "/>
<path clip-path="url(#clip280)" d="M2216.55 1406.32 Q2214.74 1410.95 2213.03 1412.36 Q2211.32 1413.78 2208.44 1413.78 L2205.04 1413.78 L2205.04 1410.21 L2207.54 1410.21 Q2209.3 1410.21 2210.27 1409.38 Q2211.25 1408.54 2212.43 1405.44 L2213.19 1403.5 L2202.7 1377.99 L2207.22 1377.99 L2215.32 1398.27 L2223.42 1377.99 L2227.94 1377.99 L2216.55 1406.32 Z" fill="#000000" fill-rule="nonzero" fill-opacity="1" /><path clip-path="url(#clip280)" d="M2235.23 1399.98 L2242.87 1399.98 L2242.87 1373.61 L2234.56 1375.28 L2234.56 1371.02 L2242.82 1369.35 L2247.5 1369.35 L2247.5 1399.98 L2255.13 1399.98 L2255.13 1403.91 L2235.23 1403.91 L2235.23 1399.98 Z" fill="#000000" fill-rule="nonzero" fill-opacity="1" /></svg>
