<?xml version="1.0" encoding="utf-8"?>
<svg xmlns="http://www.w3.org/2000/svg" xmlns:xlink="http://www.w3.org/1999/xlink" width="600" height="400" viewBox="0 0 2400 1600">
<defs>
  <clipPath id="clip170">
    <rect x="0" y="0" width="2400" height="1600"/>
  </clipPath>
</defs>
<path clip-path="url(#clip170)" d="M0 1600 L2400 1600 L2400 0 L0 0  Z" fill="#ffffff" fill-rule="evenodd" fill-opacity="1"/>
<defs>
  <clipPath id="clip171">
    <rect x="480" y="0" width="1681" height="1600"/>
  </clipPath>
</defs>
<path clip-path="url(#clip170)" d="M239.19 1486.45 L2352.76 1486.45 L2352.76 47.2441 L239.19 47.2441  Z" fill="#ffffff" fill-rule="evenodd" fill-opacity="1"/>
<defs>
  <clipPath id="clip172">
    <rect x="239" y="47" width="2115" height="1440"/>
  </clipPath>
</defs>
<polyline clip-path="url(#clip172)" style="stroke:#000000; stroke-linecap:round; stroke-linejoin:round; stroke-width:2; stroke-opacity:0.1; fill:none" points="299.008,1486.45 299.008,47.2441 "/>
<polyline clip-path="url(#clip172)" style="stroke:#000000; stroke-linecap:round; stroke-linejoin:round; stroke-width:2; stroke-opacity:0.1; fill:none" points="797.74,1486.45 797.74,47.2441 "/>
<polyline clip-path="url(#clip172)" style="stroke:#000000; stroke-linecap:round; stroke-linejoin:round; stroke-width:2; stroke-opacity:0.1; fill:none" points="1296.47,1486.45 1296.47,47.2441 "/>
<polyline clip-path="url(#clip172)" style="stroke:#000000; stroke-linecap:round; stroke-linejoin:round; stroke-width:2; stroke-opacity:0.1; fill:none" points="1795.2,1486.45 1795.2,47.2441 "/>
<polyline clip-path="url(#clip172)" style="stroke:#000000; stroke-linecap:round; stroke-linejoin:round; stroke-width:2; stroke-opacity:0.1; fill:none" points="2293.94,1486.45 2293.94,47.2441 "/>
<polyline clip-path="url(#clip170)" style="stroke:#000000; stroke-linecap:round; stroke-linejoin:round; stroke-width:4; stroke-opacity:1; fill:none" points="239.19,1486.45 2352.76,1486.45 "/>
<polyline clip-path="url(#clip170)" style="stroke:#000000; stroke-linecap:round; stroke-linejoin:round; stroke-width:4; stroke-opacity:1; fill:none" points="299.008,1486.45 299.008,1467.55 "/>
<polyline clip-path="url(#clip170)" style="stroke:#000000; stroke-linecap:round; stroke-linejoin:round; stroke-width:4; stroke-opacity:1; fill:none" points="797.74,1486.45 797.74,1467.55 "/>
<polyline clip-path="url(#clip170)" style="stroke:#000000; stroke-linecap:round; stroke-linejoin:round; stroke-width:4; stroke-opacity:1; fill:none" points="1296.47,1486.45 1296.47,1467.55 "/>
<polyline clip-path="url(#clip170)" style="stroke:#000000; stroke-linecap:round; stroke-linejoin:round; stroke-width:4; stroke-opacity:1; fill:none" points="1795.2,1486.45 1795.2,1467.55 "/>
<polyline clip-path="url(#clip170)" style="stroke:#000000; stroke-linecap:round; stroke-linejoin:round; stroke-width:4; stroke-opacity:1; fill:none" points="2293.94,1486.45 2293.94,1467.55 "/>
<path clip-path="url(#clip170)" d="M299.008 1517.37 Q295.397 1517.37 293.568 1520.93 Q291.763 1524.47 291.763 1531.6 Q291.763 1538.71 293.568 1542.27 Q295.397 1545.82 299.008 1545.82 Q302.643 1545.82 304.448 1542.27 Q306.277 1538.71 306.277 1531.6 Q306.277 1524.47 304.448 1520.93 Q302.643 1517.37 299.008 1517.37 M299.008 1513.66 Q304.818 1513.66 307.874 1518.27 Q310.953 1522.85 310.953 1531.6 Q310.953 1540.33 307.874 1544.94 Q304.818 1549.52 299.008 1549.52 Q293.198 1549.52 290.119 1544.94 Q287.064 1540.33 287.064 1531.6 Q287.064 1522.85 290.119 1518.27 Q293.198 1513.66 299.008 1513.66 Z" fill="#000000" fill-rule="nonzero" fill-opacity="1" /><path clip-path="url(#clip170)" d="M757.358 1514.29 L775.715 1514.29 L775.715 1518.22 L761.641 1518.22 L761.641 1526.7 Q762.659 1526.35 763.678 1526.19 Q764.696 1526 765.715 1526 Q771.502 1526 774.881 1529.17 Q778.261 1532.34 778.261 1537.76 Q778.261 1543.34 774.789 1546.44 Q771.317 1549.52 764.997 1549.52 Q762.821 1549.52 760.553 1549.15 Q758.307 1548.78 755.9 1548.04 L755.9 1543.34 Q757.983 1544.47 760.206 1545.03 Q762.428 1545.58 764.905 1545.58 Q768.909 1545.58 771.247 1543.48 Q773.585 1541.37 773.585 1537.76 Q773.585 1534.15 771.247 1532.04 Q768.909 1529.94 764.905 1529.94 Q763.03 1529.94 761.155 1530.35 Q759.303 1530.77 757.358 1531.65 L757.358 1514.29 Z" fill="#000000" fill-rule="nonzero" fill-opacity="1" /><path clip-path="url(#clip170)" d="M797.474 1517.37 Q793.863 1517.37 792.034 1520.93 Q790.229 1524.47 790.229 1531.6 Q790.229 1538.71 792.034 1542.27 Q793.863 1545.82 797.474 1545.82 Q801.108 1545.82 802.914 1542.27 Q804.742 1538.71 804.742 1531.6 Q804.742 1524.47 802.914 1520.93 Q801.108 1517.37 797.474 1517.37 M797.474 1513.66 Q803.284 1513.66 806.34 1518.27 Q809.418 1522.85 809.418 1531.6 Q809.418 1540.33 806.34 1544.94 Q803.284 1549.52 797.474 1549.52 Q791.664 1549.52 788.585 1544.94 Q785.529 1540.33 785.529 1531.6 Q785.529 1522.85 788.585 1518.27 Q791.664 1513.66 797.474 1513.66 Z" fill="#000000" fill-rule="nonzero" fill-opacity="1" /><path clip-path="url(#clip170)" d="M827.636 1517.37 Q824.025 1517.37 822.196 1520.93 Q820.39 1524.47 820.39 1531.6 Q820.39 1538.71 822.196 1542.27 Q824.025 1545.82 827.636 1545.82 Q831.27 1545.82 833.076 1542.27 Q834.904 1538.71 834.904 1531.6 Q834.904 1524.47 833.076 1520.93 Q831.27 1517.37 827.636 1517.37 M827.636 1513.66 Q833.446 1513.66 836.501 1518.27 Q839.58 1522.85 839.58 1531.6 Q839.58 1540.33 836.501 1544.94 Q833.446 1549.52 827.636 1549.52 Q821.826 1549.52 818.747 1544.94 Q815.691 1540.33 815.691 1531.6 Q815.691 1522.85 818.747 1518.27 Q821.826 1513.66 827.636 1513.66 Z" fill="#000000" fill-rule="nonzero" fill-opacity="1" /><path clip-path="url(#clip170)" d="M1241 1544.91 L1248.64 1544.91 L1248.64 1518.55 L1240.33 1520.21 L1240.33 1515.95 L1248.59 1514.29 L1253.27 1514.29 L1253.27 1544.91 L1260.9 1544.91 L1260.9 1548.85 L1241 1548.85 L1241 1544.91 Z" fill="#000000" fill-rule="nonzero" fill-opacity="1" /><path clip-path="url(#clip170)" d="M1280.35 1517.37 Q1276.74 1517.37 1274.91 1520.93 Q1273.1 1524.47 1273.1 1531.6 Q1273.1 1538.71 1274.91 1542.27 Q1276.74 1545.82 1280.35 1545.82 Q1283.98 1545.82 1285.79 1542.27 Q1287.62 1538.71 1287.62 1531.6 Q1287.62 1524.47 1285.79 1520.93 Q1283.98 1517.37 1280.35 1517.37 M1280.35 1513.66 Q1286.16 1513.66 1289.21 1518.27 Q1292.29 1522.85 1292.29 1531.6 Q1292.29 1540.33 1289.21 1544.94 Q1286.16 1549.52 1280.35 1549.52 Q1274.54 1549.52 1271.46 1544.94 Q1268.4 1540.33 1268.4 1531.6 Q1268.4 1522.85 1271.46 1518.27 Q1274.54 1513.66 1280.35 1513.66 Z" fill="#000000" fill-rule="nonzero" fill-opacity="1" /><path clip-path="url(#clip170)" d="M1310.51 1517.37 Q1306.9 1517.37 1305.07 1520.93 Q1303.27 1524.47 1303.27 1531.6 Q1303.27 1538.71 1305.07 1542.27 Q1306.9 1545.82 1310.51 1545.82 Q1314.15 1545.82 1315.95 1542.27 Q1317.78 1538.71 1317.78 1531.6 Q1317.78 1524.47 1315.95 1520.93 Q1314.15 1517.37 1310.51 1517.37 M1310.51 1513.66 Q1316.32 1513.66 1319.38 1518.27 Q1322.46 1522.85 1322.46 1531.6 Q1322.46 1540.33 1319.38 1544.94 Q1316.32 1549.52 1310.51 1549.52 Q1304.7 1549.52 1301.62 1544.94 Q1298.57 1540.33 1298.57 1531.6 Q1298.57 1522.85 1301.62 1518.27 Q1304.7 1513.66 1310.51 1513.66 Z" fill="#000000" fill-rule="nonzero" fill-opacity="1" /><path clip-path="url(#clip170)" d="M1340.67 1517.37 Q1337.06 1517.37 1335.23 1520.93 Q1333.43 1524.47 1333.43 1531.6 Q1333.43 1538.71 1335.23 1542.27 Q1337.06 1545.82 1340.67 1545.82 Q1344.31 1545.82 1346.11 1542.27 Q1347.94 1538.71 1347.94 1531.6 Q1347.94 1524.47 1346.11 1520.93 Q1344.31 1517.37 1340.67 1517.37 M1340.67 1513.66 Q1346.48 1513.66 1349.54 1518.27 Q1352.62 1522.85 1352.62 1531.6 Q1352.62 1540.33 1349.54 1544.94 Q1346.48 1549.52 1340.67 1549.52 Q1334.86 1549.52 1331.78 1544.94 Q1328.73 1540.33 1328.73 1531.6 Q1328.73 1522.85 1331.78 1518.27 Q1334.86 1513.66 1340.67 1513.66 Z" fill="#000000" fill-rule="nonzero" fill-opacity="1" /><path clip-path="url(#clip170)" d="M1739.73 1544.91 L1747.37 1544.91 L1747.37 1518.55 L1739.06 1520.21 L1739.06 1515.95 L1747.32 1514.29 L1752 1514.29 L1752 1544.91 L1759.64 1544.91 L1759.64 1548.85 L1739.73 1548.85 L1739.73 1544.91 Z" fill="#000000" fill-rule="nonzero" fill-opacity="1" /><path clip-path="url(#clip170)" d="M1769.13 1514.29 L1787.48 1514.29 L1787.48 1518.22 L1773.41 1518.22 L1773.41 1526.7 Q1774.43 1526.35 1775.45 1526.19 Q1776.47 1526 1777.48 1526 Q1783.27 1526 1786.65 1529.17 Q1790.03 1532.34 1790.03 1537.76 Q1790.03 1543.34 1786.56 1546.44 Q1783.09 1549.52 1776.77 1549.52 Q1774.59 1549.52 1772.32 1549.15 Q1770.08 1548.78 1767.67 1548.04 L1767.67 1543.34 Q1769.75 1544.47 1771.97 1545.03 Q1774.2 1545.58 1776.67 1545.58 Q1780.68 1545.58 1783.02 1543.48 Q1785.35 1541.37 1785.35 1537.76 Q1785.35 1534.15 1783.02 1532.04 Q1780.68 1529.94 1776.67 1529.94 Q1774.8 1529.94 1772.92 1530.35 Q1771.07 1530.77 1769.13 1531.65 L1769.13 1514.29 Z" fill="#000000" fill-rule="nonzero" fill-opacity="1" /><path clip-path="url(#clip170)" d="M1809.24 1517.37 Q1805.63 1517.37 1803.8 1520.93 Q1802 1524.47 1802 1531.6 Q1802 1538.71 1803.8 1542.27 Q1805.63 1545.82 1809.24 1545.82 Q1812.88 1545.82 1814.68 1542.27 Q1816.51 1538.71 1816.51 1531.6 Q1816.51 1524.47 1814.68 1520.93 Q1812.88 1517.37 1809.24 1517.37 M1809.24 1513.66 Q1815.05 1513.66 1818.11 1518.27 Q1821.19 1522.85 1821.19 1531.6 Q1821.19 1540.33 1818.11 1544.94 Q1815.05 1549.52 1809.24 1549.52 Q1803.43 1549.52 1800.35 1544.94 Q1797.3 1540.33 1797.3 1531.6 Q1797.3 1522.85 1800.35 1518.27 Q1803.43 1513.66 1809.24 1513.66 Z" fill="#000000" fill-rule="nonzero" fill-opacity="1" /><path clip-path="url(#clip170)" d="M1839.4 1517.37 Q1835.79 1517.37 1833.97 1520.93 Q1832.16 1524.47 1832.16 1531.6 Q1832.16 1538.71 1833.97 1542.27 Q1835.79 1545.82 1839.4 1545.82 Q1843.04 1545.82 1844.84 1542.27 Q1846.67 1538.71 1846.67 1531.6 Q1846.67 1524.47 1844.84 1520.93 Q1843.04 1517.37 1839.4 1517.37 M1839.4 1513.66 Q1845.21 1513.66 1848.27 1518.27 Q1851.35 1522.85 1851.35 1531.6 Q1851.35 1540.33 1848.27 1544.94 Q1845.21 1549.52 1839.4 1549.52 Q1833.59 1549.52 1830.52 1544.94 Q1827.46 1540.33 1827.46 1531.6 Q1827.46 1522.85 1830.52 1518.27 Q1833.59 1513.66 1839.4 1513.66 Z" fill="#000000" fill-rule="nonzero" fill-opacity="1" /><path clip-path="url(#clip170)" d="M2242.55 1544.91 L2258.87 1544.91 L2258.87 1548.85 L2236.92 1548.85 L2236.92 1544.91 Q2239.58 1542.16 2244.17 1537.53 Q2248.77 1532.88 2249.95 1531.53 Q2252.2 1529.01 2253.08 1527.27 Q2253.98 1525.51 2253.98 1523.82 Q2253.98 1521.07 2252.04 1519.33 Q2250.12 1517.6 2247.01 1517.6 Q2244.82 1517.6 2242.36 1518.36 Q2239.93 1519.13 2237.15 1520.68 L2237.15 1515.95 Q2239.98 1514.82 2242.43 1514.24 Q2244.88 1513.66 2246.92 1513.66 Q2252.29 1513.66 2255.49 1516.35 Q2258.68 1519.03 2258.68 1523.52 Q2258.68 1525.65 2257.87 1527.57 Q2257.08 1529.47 2254.98 1532.07 Q2254.4 1532.74 2251.3 1535.95 Q2248.19 1539.15 2242.55 1544.91 Z" fill="#000000" fill-rule="nonzero" fill-opacity="1" /><path clip-path="url(#clip170)" d="M2278.68 1517.37 Q2275.07 1517.37 2273.24 1520.93 Q2271.44 1524.47 2271.44 1531.6 Q2271.44 1538.71 2273.24 1542.27 Q2275.07 1545.82 2278.68 1545.82 Q2282.32 1545.82 2284.12 1542.27 Q2285.95 1538.71 2285.95 1531.6 Q2285.95 1524.47 2284.12 1520.93 Q2282.32 1517.37 2278.68 1517.37 M2278.68 1513.66 Q2284.49 1513.66 2287.55 1518.27 Q2290.63 1522.85 2290.63 1531.6 Q2290.63 1540.33 2287.55 1544.94 Q2284.49 1549.52 2278.68 1549.52 Q2272.87 1549.52 2269.79 1544.94 Q2266.74 1540.33 2266.74 1531.6 Q2266.74 1522.85 2269.79 1518.27 Q2272.87 1513.66 2278.68 1513.66 Z" fill="#000000" fill-rule="nonzero" fill-opacity="1" /><path clip-path="url(#clip170)" d="M2308.84 1517.37 Q2305.23 1517.37 2303.4 1520.93 Q2301.6 1524.47 2301.6 1531.6 Q2301.6 1538.71 2303.4 1542.27 Q2305.23 1545.82 2308.84 1545.82 Q2312.48 1545.82 2314.28 1542.27 Q2316.11 1538.71 2316.11 1531.6 Q2316.11 1524.47 2314.28 1520.93 Q2312.48 1517.37 2308.84 1517.37 M2308.84 1513.66 Q2314.65 1513.66 2317.71 1518.27 Q2320.79 1522.85 2320.79 1531.6 Q2320.79 1540.33 2317.71 1544.94 Q2314.65 1549.52 2308.84 1549.52 Q2303.03 1549.52 2299.95 1544.94 Q2296.9 1540.33 2296.9 1531.6 Q2296.9 1522.85 2299.95 1518.27 Q2303.03 1513.66 2308.84 1513.66 Z" fill="#000000" fill-rule="nonzero" fill-opacity="1" /><path clip-path="url(#clip170)" d="M2339 1517.37 Q2335.39 1517.37 2333.56 1520.93 Q2331.76 1524.47 2331.76 1531.6 Q2331.76 1538.71 2333.56 1542.27 Q2335.39 1545.82 2339 1545.82 Q2342.64 1545.82 2344.44 1542.27 Q2346.27 1538.71 2346.27 1531.6 Q2346.27 1524.47 2344.44 1520.93 Q2342.64 1517.37 2339 1517.37 M2339 1513.66 Q2344.81 1513.66 2347.87 1518.27 Q2350.95 1522.85 2350.95 1531.6 Q2350.95 1540.33 2347.87 1544.94 Q2344.81 1549.52 2339 1549.52 Q2333.19 1549.52 2330.12 1544.94 Q2327.06 1540.33 2327.06 1531.6 Q2327.06 1522.85 2330.12 1518.27 Q2333.19 1513.66 2339 1513.66 Z" fill="#000000" fill-rule="nonzero" fill-opacity="1" /><polyline clip-path="url(#clip172)" style="stroke:#000000; stroke-linecap:round; stroke-linejoin:round; stroke-width:2; stroke-opacity:0.1; fill:none" points="239.19,1384.28 2352.76,1384.28 "/>
<polyline clip-path="url(#clip172)" style="stroke:#000000; stroke-linecap:round; stroke-linejoin:round; stroke-width:2; stroke-opacity:0.1; fill:none" points="239.19,1170.89 2352.76,1170.89 "/>
<polyline clip-path="url(#clip172)" style="stroke:#000000; stroke-linecap:round; stroke-linejoin:round; stroke-width:2; stroke-opacity:0.1; fill:none" points="239.19,957.488 2352.76,957.488 "/>
<polyline clip-path="url(#clip172)" style="stroke:#000000; stroke-linecap:round; stroke-linejoin:round; stroke-width:2; stroke-opacity:0.1; fill:none" points="239.19,744.09 2352.76,744.09 "/>
<polyline clip-path="url(#clip172)" style="stroke:#000000; stroke-linecap:round; stroke-linejoin:round; stroke-width:2; stroke-opacity:0.1; fill:none" points="239.19,530.692 2352.76,530.692 "/>
<polyline clip-path="url(#clip172)" style="stroke:#000000; stroke-linecap:round; stroke-linejoin:round; stroke-width:2; stroke-opacity:0.1; fill:none" points="239.19,317.294 2352.76,317.294 "/>
<polyline clip-path="url(#clip172)" style="stroke:#000000; stroke-linecap:round; stroke-linejoin:round; stroke-width:2; stroke-opacity:0.1; fill:none" points="239.19,103.896 2352.76,103.896 "/>
<polyline clip-path="url(#clip170)" style="stroke:#000000; stroke-linecap:round; stroke-linejoin:round; stroke-width:4; stroke-opacity:1; fill:none" points="239.19,1486.45 239.19,47.2441 "/>
<polyline clip-path="url(#clip170)" style="stroke:#000000; stroke-linecap:round; stroke-linejoin:round; stroke-width:4; stroke-opacity:1; fill:none" points="239.19,1384.28 258.088,1384.28 "/>
<polyline clip-path="url(#clip170)" style="stroke:#000000; stroke-linecap:round; stroke-linejoin:round; stroke-width:4; stroke-opacity:1; fill:none" points="239.19,1170.89 258.088,1170.89 "/>
<polyline clip-path="url(#clip170)" style="stroke:#000000; stroke-linecap:round; stroke-linejoin:round; stroke-width:4; stroke-opacity:1; fill:none" points="239.19,957.488 258.088,957.488 "/>
<polyline clip-path="url(#clip170)" style="stroke:#000000; stroke-linecap:round; stroke-linejoin:round; stroke-width:4; stroke-opacity:1; fill:none" points="239.19,744.09 258.088,744.09 "/>
<polyline clip-path="url(#clip170)" style="stroke:#000000; stroke-linecap:round; stroke-linejoin:round; stroke-width:4; stroke-opacity:1; fill:none" points="239.19,530.692 258.088,530.692 "/>
<polyline clip-path="url(#clip170)" style="stroke:#000000; stroke-linecap:round; stroke-linejoin:round; stroke-width:4; stroke-opacity:1; fill:none" points="239.19,317.294 258.088,317.294 "/>
<polyline clip-path="url(#clip170)" style="stroke:#000000; stroke-linecap:round; stroke-linejoin:round; stroke-width:4; stroke-opacity:1; fill:none" points="239.19,103.896 258.088,103.896 "/>
<path clip-path="url(#clip170)" d="M50.9921 1384.74 L80.6679 1384.74 L80.6679 1388.67 L50.9921 1388.67 L50.9921 1384.74 Z" fill="#000000" fill-rule="nonzero" fill-opacity="1" /><path clip-path="url(#clip170)" d="M91.5706 1397.63 L99.2095 1397.63 L99.2095 1371.26 L90.8993 1372.93 L90.8993 1368.67 L99.1632 1367 L103.839 1367 L103.839 1397.63 L111.478 1397.63 L111.478 1401.56 L91.5706 1401.56 L91.5706 1397.63 Z" fill="#000000" fill-rule="nonzero" fill-opacity="1" /><path clip-path="url(#clip170)" d="M119.742 1367 L141.964 1367 L141.964 1369 L129.418 1401.56 L124.533 1401.56 L136.339 1370.94 L119.742 1370.94 L119.742 1367 Z" fill="#000000" fill-rule="nonzero" fill-opacity="1" /><path clip-path="url(#clip170)" d="M151.13 1367 L169.487 1367 L169.487 1370.94 L155.413 1370.94 L155.413 1379.41 Q156.431 1379.06 157.45 1378.9 Q158.468 1378.72 159.487 1378.72 Q165.274 1378.72 168.654 1381.89 Q172.033 1385.06 172.033 1390.48 Q172.033 1396.06 168.561 1399.16 Q165.089 1402.24 158.769 1402.24 Q156.593 1402.24 154.325 1401.87 Q152.08 1401.5 149.672 1400.75 L149.672 1396.06 Q151.755 1397.19 153.978 1397.75 Q156.2 1398.3 158.677 1398.3 Q162.681 1398.3 165.019 1396.19 Q167.357 1394.09 167.357 1390.48 Q167.357 1386.87 165.019 1384.76 Q162.681 1382.65 158.677 1382.65 Q156.802 1382.65 154.927 1383.07 Q153.075 1383.49 151.13 1384.37 L151.13 1367 Z" fill="#000000" fill-rule="nonzero" fill-opacity="1" /><path clip-path="url(#clip170)" d="M191.246 1370.08 Q187.635 1370.08 185.806 1373.65 Q184.001 1377.19 184.001 1384.32 Q184.001 1391.43 185.806 1394.99 Q187.635 1398.53 191.246 1398.53 Q194.88 1398.53 196.686 1394.99 Q198.514 1391.43 198.514 1384.32 Q198.514 1377.19 196.686 1373.65 Q194.88 1370.08 191.246 1370.08 M191.246 1366.38 Q197.056 1366.38 200.112 1370.99 Q203.19 1375.57 203.19 1384.32 Q203.19 1393.05 200.112 1397.65 Q197.056 1402.24 191.246 1402.24 Q185.436 1402.24 182.357 1397.65 Q179.302 1393.05 179.302 1384.32 Q179.302 1375.57 182.357 1370.99 Q185.436 1366.38 191.246 1366.38 Z" fill="#000000" fill-rule="nonzero" fill-opacity="1" /><path clip-path="url(#clip170)" d="M50.9921 1171.34 L80.6679 1171.34 L80.6679 1175.27 L50.9921 1175.27 L50.9921 1171.34 Z" fill="#000000" fill-rule="nonzero" fill-opacity="1" /><path clip-path="url(#clip170)" d="M91.5706 1184.23 L99.2095 1184.23 L99.2095 1157.87 L90.8993 1159.53 L90.8993 1155.27 L99.1632 1153.61 L103.839 1153.61 L103.839 1184.23 L111.478 1184.23 L111.478 1188.17 L91.5706 1188.17 L91.5706 1184.23 Z" fill="#000000" fill-rule="nonzero" fill-opacity="1" /><path clip-path="url(#clip170)" d="M120.969 1153.61 L139.325 1153.61 L139.325 1157.54 L125.251 1157.54 L125.251 1166.01 Q126.27 1165.67 127.288 1165.5 Q128.307 1165.32 129.325 1165.32 Q135.112 1165.32 138.492 1168.49 Q141.871 1171.66 141.871 1177.08 Q141.871 1182.66 138.399 1185.76 Q134.927 1188.84 128.607 1188.84 Q126.432 1188.84 124.163 1188.47 Q121.918 1188.1 119.51 1187.36 L119.51 1182.66 Q121.594 1183.79 123.816 1184.35 Q126.038 1184.9 128.515 1184.9 Q132.519 1184.9 134.857 1182.8 Q137.195 1180.69 137.195 1177.08 Q137.195 1173.47 134.857 1171.36 Q132.519 1169.25 128.515 1169.25 Q126.64 1169.25 124.765 1169.67 Q122.913 1170.09 120.969 1170.97 L120.969 1153.61 Z" fill="#000000" fill-rule="nonzero" fill-opacity="1" /><path clip-path="url(#clip170)" d="M161.084 1156.69 Q157.473 1156.69 155.644 1160.25 Q153.839 1163.79 153.839 1170.92 Q153.839 1178.03 155.644 1181.59 Q157.473 1185.13 161.084 1185.13 Q164.718 1185.13 166.524 1181.59 Q168.353 1178.03 168.353 1170.92 Q168.353 1163.79 166.524 1160.25 Q164.718 1156.69 161.084 1156.69 M161.084 1152.98 Q166.894 1152.98 169.95 1157.59 Q173.029 1162.17 173.029 1170.92 Q173.029 1179.65 169.95 1184.25 Q166.894 1188.84 161.084 1188.84 Q155.274 1188.84 152.195 1184.25 Q149.14 1179.65 149.14 1170.92 Q149.14 1162.17 152.195 1157.59 Q155.274 1152.98 161.084 1152.98 Z" fill="#000000" fill-rule="nonzero" fill-opacity="1" /><path clip-path="url(#clip170)" d="M191.246 1156.69 Q187.635 1156.69 185.806 1160.25 Q184.001 1163.79 184.001 1170.92 Q184.001 1178.03 185.806 1181.59 Q187.635 1185.13 191.246 1185.13 Q194.88 1185.13 196.686 1181.59 Q198.514 1178.03 198.514 1170.92 Q198.514 1163.79 196.686 1160.25 Q194.88 1156.69 191.246 1156.69 M191.246 1152.98 Q197.056 1152.98 200.112 1157.59 Q203.19 1162.17 203.19 1170.92 Q203.19 1179.65 200.112 1184.25 Q197.056 1188.84 191.246 1188.84 Q185.436 1188.84 182.357 1184.25 Q179.302 1179.65 179.302 1170.92 Q179.302 1162.17 182.357 1157.59 Q185.436 1152.98 191.246 1152.98 Z" fill="#000000" fill-rule="nonzero" fill-opacity="1" /><path clip-path="url(#clip170)" d="M50.9921 957.94 L80.6679 957.94 L80.6679 961.875 L50.9921 961.875 L50.9921 957.94 Z" fill="#000000" fill-rule="nonzero" fill-opacity="1" /><path clip-path="url(#clip170)" d="M91.5706 970.833 L99.2095 970.833 L99.2095 944.468 L90.8993 946.134 L90.8993 941.875 L99.1632 940.208 L103.839 940.208 L103.839 970.833 L111.478 970.833 L111.478 974.768 L91.5706 974.768 L91.5706 970.833 Z" fill="#000000" fill-rule="nonzero" fill-opacity="1" /><path clip-path="url(#clip170)" d="M124.95 970.833 L141.269 970.833 L141.269 974.768 L119.325 974.768 L119.325 970.833 Q121.987 968.079 126.57 963.449 Q131.177 958.796 132.357 957.454 Q134.603 954.931 135.482 953.194 Q136.385 951.435 136.385 949.745 Q136.385 946.991 134.441 945.255 Q132.519 943.519 129.418 943.519 Q127.219 943.519 124.765 944.282 Q122.334 945.046 119.557 946.597 L119.557 941.875 Q122.381 940.741 124.834 940.162 Q127.288 939.583 129.325 939.583 Q134.695 939.583 137.89 942.269 Q141.084 944.954 141.084 949.444 Q141.084 951.574 140.274 953.495 Q139.487 955.394 137.381 957.986 Q136.802 958.657 133.7 961.875 Q130.598 965.069 124.95 970.833 Z" fill="#000000" fill-rule="nonzero" fill-opacity="1" /><path clip-path="url(#clip170)" d="M151.13 940.208 L169.487 940.208 L169.487 944.144 L155.413 944.144 L155.413 952.616 Q156.431 952.269 157.45 952.106 Q158.468 951.921 159.487 951.921 Q165.274 951.921 168.654 955.093 Q172.033 958.264 172.033 963.68 Q172.033 969.259 168.561 972.361 Q165.089 975.44 158.769 975.44 Q156.593 975.44 154.325 975.069 Q152.08 974.699 149.672 973.958 L149.672 969.259 Q151.755 970.393 153.978 970.949 Q156.2 971.505 158.677 971.505 Q162.681 971.505 165.019 969.398 Q167.357 967.292 167.357 963.68 Q167.357 960.069 165.019 957.963 Q162.681 955.856 158.677 955.856 Q156.802 955.856 154.927 956.273 Q153.075 956.69 151.13 957.569 L151.13 940.208 Z" fill="#000000" fill-rule="nonzero" fill-opacity="1" /><path clip-path="url(#clip170)" d="M191.246 943.287 Q187.635 943.287 185.806 946.852 Q184.001 950.394 184.001 957.523 Q184.001 964.63 185.806 968.194 Q187.635 971.736 191.246 971.736 Q194.88 971.736 196.686 968.194 Q198.514 964.63 198.514 957.523 Q198.514 950.394 196.686 946.852 Q194.88 943.287 191.246 943.287 M191.246 939.583 Q197.056 939.583 200.112 944.19 Q203.19 948.773 203.19 957.523 Q203.19 966.25 200.112 970.856 Q197.056 975.44 191.246 975.44 Q185.436 975.44 182.357 970.856 Q179.302 966.25 179.302 957.523 Q179.302 948.773 182.357 944.19 Q185.436 939.583 191.246 939.583 Z" fill="#000000" fill-rule="nonzero" fill-opacity="1" /><path clip-path="url(#clip170)" d="M50.9921 744.542 L80.6679 744.542 L80.6679 748.477 L50.9921 748.477 L50.9921 744.542 Z" fill="#000000" fill-rule="nonzero" fill-opacity="1" /><path clip-path="url(#clip170)" d="M91.5706 757.435 L99.2095 757.435 L99.2095 731.07 L90.8993 732.736 L90.8993 728.477 L99.1632 726.81 L103.839 726.81 L103.839 757.435 L111.478 757.435 L111.478 761.37 L91.5706 761.37 L91.5706 757.435 Z" fill="#000000" fill-rule="nonzero" fill-opacity="1" /><path clip-path="url(#clip170)" d="M130.922 729.889 Q127.311 729.889 125.482 733.454 Q123.677 736.995 123.677 744.125 Q123.677 751.231 125.482 754.796 Q127.311 758.338 130.922 758.338 Q134.556 758.338 136.362 754.796 Q138.191 751.231 138.191 744.125 Q138.191 736.995 136.362 733.454 Q134.556 729.889 130.922 729.889 M130.922 726.185 Q136.732 726.185 139.788 730.792 Q142.867 735.375 142.867 744.125 Q142.867 752.852 139.788 757.458 Q136.732 762.042 130.922 762.042 Q125.112 762.042 122.033 757.458 Q118.978 752.852 118.978 744.125 Q118.978 735.375 122.033 730.792 Q125.112 726.185 130.922 726.185 Z" fill="#000000" fill-rule="nonzero" fill-opacity="1" /><path clip-path="url(#clip170)" d="M161.084 729.889 Q157.473 729.889 155.644 733.454 Q153.839 736.995 153.839 744.125 Q153.839 751.231 155.644 754.796 Q157.473 758.338 161.084 758.338 Q164.718 758.338 166.524 754.796 Q168.353 751.231 168.353 744.125 Q168.353 736.995 166.524 733.454 Q164.718 729.889 161.084 729.889 M161.084 726.185 Q166.894 726.185 169.95 730.792 Q173.029 735.375 173.029 744.125 Q173.029 752.852 169.95 757.458 Q166.894 762.042 161.084 762.042 Q155.274 762.042 152.195 757.458 Q149.14 752.852 149.14 744.125 Q149.14 735.375 152.195 730.792 Q155.274 726.185 161.084 726.185 Z" fill="#000000" fill-rule="nonzero" fill-opacity="1" /><path clip-path="url(#clip170)" d="M191.246 729.889 Q187.635 729.889 185.806 733.454 Q184.001 736.995 184.001 744.125 Q184.001 751.231 185.806 754.796 Q187.635 758.338 191.246 758.338 Q194.88 758.338 196.686 754.796 Q198.514 751.231 198.514 744.125 Q198.514 736.995 196.686 733.454 Q194.88 729.889 191.246 729.889 M191.246 726.185 Q197.056 726.185 200.112 730.792 Q203.19 735.375 203.19 744.125 Q203.19 752.852 200.112 757.458 Q197.056 762.042 191.246 762.042 Q185.436 762.042 182.357 757.458 Q179.302 752.852 179.302 744.125 Q179.302 735.375 182.357 730.792 Q185.436 726.185 191.246 726.185 Z" fill="#000000" fill-rule="nonzero" fill-opacity="1" /><path clip-path="url(#clip170)" d="M81.154 531.144 L110.83 531.144 L110.83 535.079 L81.154 535.079 L81.154 531.144 Z" fill="#000000" fill-rule="nonzero" fill-opacity="1" /><path clip-path="url(#clip170)" d="M119.742 513.412 L141.964 513.412 L141.964 515.403 L129.418 547.972 L124.533 547.972 L136.339 517.347 L119.742 517.347 L119.742 513.412 Z" fill="#000000" fill-rule="nonzero" fill-opacity="1" /><path clip-path="url(#clip170)" d="M151.13 513.412 L169.487 513.412 L169.487 517.347 L155.413 517.347 L155.413 525.82 Q156.431 525.472 157.45 525.31 Q158.468 525.125 159.487 525.125 Q165.274 525.125 168.654 528.296 Q172.033 531.468 172.033 536.884 Q172.033 542.463 168.561 545.565 Q165.089 548.643 158.769 548.643 Q156.593 548.643 154.325 548.273 Q152.08 547.903 149.672 547.162 L149.672 542.463 Q151.755 543.597 153.978 544.153 Q156.2 544.708 158.677 544.708 Q162.681 544.708 165.019 542.602 Q167.357 540.495 167.357 536.884 Q167.357 533.273 165.019 531.167 Q162.681 529.06 158.677 529.06 Q156.802 529.06 154.927 529.477 Q153.075 529.894 151.13 530.773 L151.13 513.412 Z" fill="#000000" fill-rule="nonzero" fill-opacity="1" /><path clip-path="url(#clip170)" d="M191.246 516.491 Q187.635 516.491 185.806 520.056 Q184.001 523.597 184.001 530.727 Q184.001 537.833 185.806 541.398 Q187.635 544.94 191.246 544.94 Q194.88 544.94 196.686 541.398 Q198.514 537.833 198.514 530.727 Q198.514 523.597 196.686 520.056 Q194.88 516.491 191.246 516.491 M191.246 512.787 Q197.056 512.787 200.112 517.394 Q203.19 521.977 203.19 530.727 Q203.19 539.454 200.112 544.06 Q197.056 548.643 191.246 548.643 Q185.436 548.643 182.357 544.06 Q179.302 539.454 179.302 530.727 Q179.302 521.977 182.357 517.394 Q185.436 512.787 191.246 512.787 Z" fill="#000000" fill-rule="nonzero" fill-opacity="1" /><path clip-path="url(#clip170)" d="M81.154 317.745 L110.83 317.745 L110.83 321.681 L81.154 321.681 L81.154 317.745 Z" fill="#000000" fill-rule="nonzero" fill-opacity="1" /><path clip-path="url(#clip170)" d="M120.969 300.014 L139.325 300.014 L139.325 303.949 L125.251 303.949 L125.251 312.421 Q126.27 312.074 127.288 311.912 Q128.307 311.727 129.325 311.727 Q135.112 311.727 138.492 314.898 Q141.871 318.07 141.871 323.486 Q141.871 329.065 138.399 332.167 Q134.927 335.245 128.607 335.245 Q126.432 335.245 124.163 334.875 Q121.918 334.505 119.51 333.764 L119.51 329.065 Q121.594 330.199 123.816 330.755 Q126.038 331.31 128.515 331.31 Q132.519 331.31 134.857 329.204 Q137.195 327.097 137.195 323.486 Q137.195 319.875 134.857 317.769 Q132.519 315.662 128.515 315.662 Q126.64 315.662 124.765 316.079 Q122.913 316.495 120.969 317.375 L120.969 300.014 Z" fill="#000000" fill-rule="nonzero" fill-opacity="1" /><path clip-path="url(#clip170)" d="M161.084 303.093 Q157.473 303.093 155.644 306.658 Q153.839 310.199 153.839 317.329 Q153.839 324.435 155.644 328 Q157.473 331.542 161.084 331.542 Q164.718 331.542 166.524 328 Q168.353 324.435 168.353 317.329 Q168.353 310.199 166.524 306.658 Q164.718 303.093 161.084 303.093 M161.084 299.389 Q166.894 299.389 169.95 303.996 Q173.029 308.579 173.029 317.329 Q173.029 326.056 169.95 330.662 Q166.894 335.245 161.084 335.245 Q155.274 335.245 152.195 330.662 Q149.14 326.056 149.14 317.329 Q149.14 308.579 152.195 303.996 Q155.274 299.389 161.084 299.389 Z" fill="#000000" fill-rule="nonzero" fill-opacity="1" /><path clip-path="url(#clip170)" d="M191.246 303.093 Q187.635 303.093 185.806 306.658 Q184.001 310.199 184.001 317.329 Q184.001 324.435 185.806 328 Q187.635 331.542 191.246 331.542 Q194.88 331.542 196.686 328 Q198.514 324.435 198.514 317.329 Q198.514 310.199 196.686 306.658 Q194.88 303.093 191.246 303.093 M191.246 299.389 Q197.056 299.389 200.112 303.996 Q203.19 308.579 203.19 317.329 Q203.19 326.056 200.112 330.662 Q197.056 335.245 191.246 335.245 Q185.436 335.245 182.357 330.662 Q179.302 326.056 179.302 317.329 Q179.302 308.579 182.357 303.996 Q185.436 299.389 191.246 299.389 Z" fill="#000000" fill-rule="nonzero" fill-opacity="1" /><path clip-path="url(#clip170)" d="M81.154 104.347 L110.83 104.347 L110.83 108.283 L81.154 108.283 L81.154 104.347 Z" fill="#000000" fill-rule="nonzero" fill-opacity="1" /><path clip-path="url(#clip170)" d="M124.95 117.241 L141.269 117.241 L141.269 121.176 L119.325 121.176 L119.325 117.241 Q121.987 114.486 126.57 109.857 Q131.177 105.204 132.357 103.861 Q134.603 101.338 135.482 99.602 Q136.385 97.8428 136.385 96.153 Q136.385 93.3984 134.441 91.6623 Q132.519 89.9262 129.418 89.9262 Q127.219 89.9262 124.765 90.69 Q122.334 91.4539 119.557 93.0048 L119.557 88.2827 Q122.381 87.1484 124.834 86.5697 Q127.288 85.991 129.325 85.991 Q134.695 85.991 137.89 88.6762 Q141.084 91.3613 141.084 95.8521 Q141.084 97.9817 140.274 99.903 Q139.487 101.801 137.381 104.394 Q136.802 105.065 133.7 108.283 Q130.598 111.477 124.95 117.241 Z" fill="#000000" fill-rule="nonzero" fill-opacity="1" /><path clip-path="url(#clip170)" d="M151.13 86.616 L169.487 86.616 L169.487 90.5512 L155.413 90.5512 L155.413 99.0233 Q156.431 98.6761 157.45 98.5141 Q158.468 98.3289 159.487 98.3289 Q165.274 98.3289 168.654 101.5 Q172.033 104.671 172.033 110.088 Q172.033 115.667 168.561 118.769 Q165.089 121.847 158.769 121.847 Q156.593 121.847 154.325 121.477 Q152.08 121.107 149.672 120.366 L149.672 115.667 Q151.755 116.801 153.978 117.357 Q156.2 117.912 158.677 117.912 Q162.681 117.912 165.019 115.806 Q167.357 113.699 167.357 110.088 Q167.357 106.477 165.019 104.371 Q162.681 102.264 158.677 102.264 Q156.802 102.264 154.927 102.681 Q153.075 103.097 151.13 103.977 L151.13 86.616 Z" fill="#000000" fill-rule="nonzero" fill-opacity="1" /><path clip-path="url(#clip170)" d="M191.246 89.6947 Q187.635 89.6947 185.806 93.2595 Q184.001 96.8011 184.001 103.931 Q184.001 111.037 185.806 114.602 Q187.635 118.144 191.246 118.144 Q194.88 118.144 196.686 114.602 Q198.514 111.037 198.514 103.931 Q198.514 96.8011 196.686 93.2595 Q194.88 89.6947 191.246 89.6947 M191.246 85.991 Q197.056 85.991 200.112 90.5975 Q203.19 95.1808 203.19 103.931 Q203.19 112.658 200.112 117.264 Q197.056 121.847 191.246 121.847 Q185.436 121.847 182.357 117.264 Q179.302 112.658 179.302 103.931 Q179.302 95.1808 182.357 90.5975 Q185.436 85.991 191.246 85.991 Z" fill="#000000" fill-rule="nonzero" fill-opacity="1" /><polyline clip-path="url(#clip172)" style="stroke:#009af9; stroke-linecap:round; stroke-linejoin:round; stroke-width:4; stroke-opacity:1; fill:none" points="299.008,88.1141 300.006,87.9763 301.003,113.471 302.001,113.003 302.998,123.185 303.996,122.979 304.993,173.644 305.991,172.891 306.988,153.661 307.985,153.367 308.983,195.501 309.98,195.089 310.978,259.102 311.975,258.239 312.973,275.556 313.97,274.589 314.968,252.719 315.965,252.023 316.963,336.254 317.96,334.847 318.958,357.682 319.955,356.286 320.952,373.927 321.95,372.822 322.947,378.565 323.945,377.147 324.942,423.201 325.94,421.225 326.937,490.567 327.935,488.689 328.932,488.59 329.93,486.967 330.927,483.738 331.925,482.698 332.922,483.433 333.92,481.834 334.917,464.257 335.914,462.921 336.912,512.602 337.909,510.276 338.907,488.591 339.904,487.455 340.902,542.885 341.899,541.411 342.897,568.697 343.894,567.338 344.892,563.894 345.889,562.686 346.887,583.932 347.884,582.711 348.881,605.652 349.879,604.566 350.876,590.173 351.874,589.401 352.871,632.599 353.869,631.624 354.866,589.238 355.864,588.38 356.861,548.26 357.859,546.778 358.856,611.734 359.854,611.013 360.851,637.551 361.848,636.603 362.846,628.838 363.843,627.59 364.841,595.242 365.838,594.844 366.836,623.876 367.833,623.326 368.831,643.353 369.828,642.645 370.826,629.244 371.823,627.968 372.821,668.157 373.818,667.399 374.816,670.889 375.813,669.976 376.81,654.527 377.808,653.745 378.805,663.599 379.803,663.132 380.8,661.653 381.798,660.702 382.795,661.354 383.793,660.619 384.79,710.596 385.788,710.177 386.785,647.235 387.783,645.768 388.78,655.965 389.777,655.435 390.775,674.826 391.772,673.916 392.77,663.693 393.767,662.746 394.765,653.21 395.762,652.368 396.76,690.499 397.757,690.001 398.755,684.631 399.752,683.193 400.75,712.286 401.747,711.233 402.744,666.777 403.742,666.054 404.739,668.47 405.737,667.745 406.734,655.886 407.732,655.412 408.729,673.468 409.727,672.949 410.724,662.829 411.722,661.41 412.719,650.675 413.717,650.293 414.714,707.167 415.712,706.771 416.709,717.338 417.706,716.397 418.704,699.435 419.701,699.119 420.699,705.078 421.696,704.412 422.694,694.313 423.691,694.026 424.689,700.357 425.686,699.709 426.684,691.969 427.681,691.731 428.679,669.646 429.676,668.786 430.673,672.555 431.671,672.037 432.668,681.833 433.666,681.194 434.663,705.456 435.661,704.828 436.658,667.485 437.656,666.363 438.653,694.48 439.651,694.056 440.648,697.125 441.646,696.723 442.643,700.186 443.64,699.224 444.638,703.829 445.635,702.992 446.633,700.633 447.63,699.93 448.628,682.873 449.625,682.413 450.623,678.577 451.62,678.126 452.618,702.004 453.615,701.27 454.613,690.806 455.61,689.854 456.608,692.012 457.605,691.521 458.602,684.389 459.6,684.032 460.597,706.446 461.595,705.461 462.592,713.953 463.59,712.891 464.587,690.613 465.585,689.525 466.582,694.794 467.58,694.284 468.577,681.038 469.575,680.287 470.572,721.017 471.569,720.044 472.567,699.479 473.564,698.555 474.562,709.496 475.559,708.974 476.557,686.224 477.554,685.836 478.552,698.876 479.549,698.478 480.547,681.947 481.544,681.167 482.542,726.434 483.539,725.014 484.537,709.294 485.534,708.513 486.531,716.512 487.529,715.653 488.526,683.222 489.524,682.453 490.521,659.347 491.519,658.665 492.516,712.893 493.514,711.489 494.511,707.231 495.509,706.554 496.506,700.16 497.504,699.483 498.501,690.31 499.498,689.582 500.496,705.129 501.493,704.722 502.491,714.373 503.488,712.995 504.486,714.768 505.483,714.347 506.481,701.002 507.478,700.42 508.476,700.83 509.473,700.027 510.471,710.239 511.468,709.86 512.465,700.529 513.463,699.049 514.46,707.161 515.458,706.164 516.455,714.758 517.453,713.59 518.45,727.317 519.448,726.648 520.445,704.991 521.443,704.415 522.44,686.836 523.438,686.704 524.435,695.892 525.433,695.113 526.43,693.932 527.427,693.191 528.425,713.205 529.422,712.078 530.42,721.681 531.417,721.184 532.415,701.671 533.412,701.186 534.41,724.198 535.407,723.596 536.405,703.41 537.402,702.833 538.4,705.569 539.397,704.646 540.394,702.551 541.392,701.868 542.389,692.405 543.387,691.012 544.384,718.369 545.382,717.912 546.379,722.708 547.377,721.994 548.374,699.393 549.372,698.709 550.369,708.571 551.367,708.233 552.364,699.937 553.361,699.488 554.359,724.529 555.356,723.599 556.354,709.123 557.351,708.802 558.349,713.263 559.346,712.466 560.344,711.481 561.341,710.801 562.339,722.712 563.336,721.405 564.334,711.836 565.331,710.531 566.329,704.768 567.326,704.084 568.323,703.49 569.321,702.791 570.318,730.656 571.316,730.242 572.313,714.433 573.311,713.07 574.308,716.839 575.306,716.578 576.303,712.308 577.301,710.527 578.298,699.712 579.296,699.119 580.293,741.328 581.29,740.469 582.288,719.046 583.285,716.459 584.283,715.597 585.28,715.405 586.278,716.477 587.275,716.226 588.273,712.215 589.27,711.44 590.268,713.754 591.265,713.146 592.263,722.513 593.26,721.451 594.258,691.057 595.255,689.989 596.252,702.11 597.25,701.272 598.247,718.051 599.245,716.819 600.242,700.737 601.24,700.45 602.237,708.274 603.235,707.71 604.232,716.37 605.23,715.713 606.227,699.923 607.225,699.011 608.222,695.927 609.219,695.651 610.217,688.132 611.214,687.739 612.212,705.987 613.209,705.141 614.207,700.077 615.204,699.626 616.202,701.606 617.199,701.349 618.197,706.47 619.194,705.715 620.192,712.141 621.189,711.624 622.186,709.951 623.184,708.573 624.181,724.044 625.179,723.663 626.176,730.342 627.174,730.111 628.171,699.237 629.169,698.824 630.166,724.07 631.164,722.925 632.161,699.933 633.159,699.418 634.156,713.335 635.154,713.085 636.151,721.699 637.148,719.981 638.146,718.485 639.143,717.23 640.141,701.014 641.138,700.453 642.136,720.563 643.133,720.077 644.131,705.018 645.128,704.466 646.126,695.295 647.123,694.98 648.121,704.031 649.118,703.805 650.115,711.243 651.113,710.519 652.11,690.513 653.108,690.165 654.105,710.16 655.103,709.236 656.1,729.386 657.098,729.035 658.095,715.888 659.093,714.874 660.09,720.327 661.088,719.611 662.085,723.692 663.082,723.299 664.08,717.931 665.077,717.581 666.075,722.082 667.072,721.335 668.07,705.312 669.067,703.591 670.065,707.618 671.062,707.078 672.06,710.395 673.057,710.01 674.055,703.83 675.052,703.181 676.05,729.981 677.047,729.309 678.044,724.007 679.042,723.154 680.039,709.331 681.037,708.88 682.034,709.851 683.032,709.213 684.029,714.704 685.027,714.293 686.024,725.806 687.022,725.438 688.019,704.949 689.017,704.408 690.014,736.097 691.011,735.621 692.009,711.219 693.006,710.717 694.004,705.235 695.001,704.535 695.999,720.66 696.996,720.205 697.994,693.512 698.991,692.813 699.989,695.091 700.986,693.973 701.984,714.143 702.981,713.315 703.978,713.655 704.976,712.408 705.973,711.371 706.971,710.55 707.968,707.457 708.966,706.783 709.963,729.861 710.961,729.372 711.958,702.558 712.956,701.46 713.953,724.993 714.951,724.832 715.948,715.583 716.946,714.774 717.943,712.541 718.94,711.444 719.938,706.887 720.935,706.158 721.933,716.411 722.93,716.034 723.928,723.981 724.925,723.569 725.923,709.51 726.92,708.578 727.918,721.603 728.915,721.148 729.913,719.947 730.91,719.11 731.907,701.652 732.905,700.513 733.902,726.291 734.9,725.752 735.897,706.411 736.895,705.657 737.892,724.54 738.89,724.096 739.887,737.911 740.885,737.24 741.882,690.509 742.88,690.337 743.877,700.03 744.875,699.432 745.872,710.991 746.869,709.887 747.867,727.27 748.864,726.95 749.862,697.115 750.859,696.878 751.857,704.66 752.854,703.401 753.852,713.329 754.849,712.755 755.847,718.772 756.844,718.454 757.842,722.613 758.839,721.187 759.836,712.657 760.834,711.743 761.831,709.087 762.829,708.159 763.826,715.398 764.824,714.847 765.821,706.683 766.819,705.911 767.816,737.266 768.814,736.948 769.811,722.14 770.809,721.588 771.806,728.394 772.803,727.712 773.801,718.295 774.798,718.086 775.796,720.21 776.793,719.425 777.791,700.698 778.788,700.056 779.786,725.544 780.783,724.741 781.781,716.416 782.778,715.696 783.776,701.404 784.773,700.133 785.771,710.038 786.768,709.542 787.765,721.346 788.763,721.218 789.76,718.583 790.758,718.152 791.755,711.381 792.753,710.41 793.75,710.102 794.748,709.677 795.745,711.428 796.743,710.856 797.74,730.333 798.738,729.244 799.735,715.752 800.732,715.161 801.73,713.948 802.727,713.521 803.725,711.714 804.722,711.099 805.72,716.419 806.717,715.699 807.715,722.282 808.712,721.954 809.71,723.883 810.707,723.569 811.705,713.116 812.702,712.463 813.699,708.389 814.697,707.874 815.694,707.125 816.692,705.885 817.689,724.189 818.687,723.621 819.684,717.685 820.682,716.963 821.679,714.443 822.677,713.808 823.674,735.099 824.672,734.288 825.669,718.365 826.667,717.898 827.664,716.696 828.661,715.478 829.659,730.177 830.656,729.902 831.654,727.126 832.651,725.942 833.649,712.751 834.646,711.505 835.644,719.338 836.641,718.587 837.639,712.64 838.636,711.616 839.634,712.792 840.631,712.318 841.628,708.763 842.626,708.429 843.623,730.439 844.621,729.607 845.618,719.971 846.616,719.282 847.613,710.913 848.611,710.304 849.608,709.104 850.606,708.474 851.603,712.382 852.601,712.115 853.598,711.162 854.596,710.804 855.593,737.716 856.59,736.925 857.588,716.421 858.585,715.862 859.583,710.914 860.58,710.241 861.578,726.142 862.575,725.836 863.573,710.012 864.57,709.399 865.568,715.821 866.565,715.466 867.563,704.877 868.56,704.312 869.557,717.993 870.555,717.646 871.552,719.265 872.55,718.879 873.547,714.029 874.545,713.204 875.542,718.588 876.54,717.608 877.537,716.702 878.535,716.343 879.532,727.503 880.53,726.811 881.527,714.677 882.524,714.434 883.522,723.288 884.519,722.891 885.517,712.341 886.514,711.018 887.512,716.724 888.509,716.286 889.507,730.648 890.504,729.484 891.502,733.14 892.499,732.499 893.497,720.94 894.494,720.394 895.492,736.692 896.489,735.843 897.486,709.689 898.484,708.442 899.481,712.602 900.479,712.346 901.476,712.895 902.474,712.248 903.471,732.558 904.469,731.122 905.466,712.313 906.464,711.895 907.461,720.35 908.459,720.015 909.456,712.691 910.453,712.119 911.451,704.882 912.448,704.313 913.446,718.616 914.443,717.748 915.441,713.02 916.438,712.231 917.436,723.506 918.433,722.943 919.431,718.394 920.428,717.901 921.426,724.191 922.423,723.853 923.42,721.897 924.418,721.25 925.415,720.662 926.413,719.328 927.41,712.776 928.408,712.538 929.405,709.587 930.403,709.404 931.4,717.374 932.398,716.158 933.395,726.049 934.393,724.858 935.39,745.125 936.388,744.806 937.385,710.268 938.382,709.795 939.38,736.388 940.377,735.96 941.375,730.586 942.372,730.27 943.37,733.58 944.367,733.081 945.365,702.91 946.362,702.466 947.36,721.41 948.357,720.56 949.355,727.162 950.352,726.487 951.349,750.483 952.347,749.94 953.344,725.817 954.342,725.034 955.339,727.925 956.337,727.073 957.334,718.933 958.332,718.563 959.329,732.806 960.327,732.038 961.324,728.923 962.322,728.244 963.319,712.311 964.316,712.046 965.314,721.809 966.311,721.323 967.309,705.581 968.306,704.882 969.304,723.763 970.301,723.532 971.299,708.272 972.296,707.787 973.294,716.763 974.291,716.149 975.289,728.884 976.286,728.617 977.284,715.7 978.281,715.576 979.278,732.288 980.276,731.054 981.273,713.899 982.271,713.178 983.268,723.996 984.266,722.69 985.263,715.508 986.261,714.777 987.258,720.219 988.256,719.207 989.253,710.863 990.251,709.892 991.248,733.855 992.245,733.21 993.243,718.269 994.24,717.365 995.238,709.062 996.235,708.346 997.233,720.784 998.23,720.414 999.228,736.933 1000.23,736.252 1001.22,728.45 1002.22,727.427 1003.22,706.349 1004.22,705.52 1005.21,725.435 1006.21,725.054 1007.21,731.534 1008.2,730.94 1009.2,713.341 1010.2,712.853 1011.2,730.494 1012.19,729.931 1013.19,715.539 1014.19,714.46 1015.19,707.563 1016.18,707.051 1017.18,708.729 1018.18,707.751 1019.18,714.733 1020.17,714.389 1021.17,728.393 1022.17,727.232 1023.17,718.405 1024.16,718.08 1025.16,709.76 1026.16,709.194 1027.16,713.963 1028.15,712.502 1029.15,725.62 1030.15,725.354 1031.15,708.724 1032.14,708.254 1033.14,722.761 1034.14,721.96 1035.14,717.251 1036.13,716.22 1037.13,710.476 1038.13,709.58 1039.13,722.896 1040.12,721.224 1041.12,713.191 1042.12,712.712 1043.12,709.794 1044.11,709.447 1045.11,706.87 1046.11,706.588 1047.11,714.019 1048.1,712.56 1049.1,718.129 1050.1,717.552 1051.1,704.943 1052.09,704.68 1053.09,708.159 1054.09,707.984 1055.09,715.137 1056.08,715.049 1057.08,728.866 1058.08,727.911 1059.08,706.69 1060.07,706.107 1061.07,732.047 1062.07,731.159 1063.07,714.76 1064.06,714.081 1065.06,718.714 1066.06,717.775 1067.06,734.811 1068.05,734.043 1069.05,712.17 1070.05,711.559 1071.05,720.172 1072.04,719.65 1073.04,717.021 1074.04,716.405 1075.03,712.497 1076.03,712.169 1077.03,716.842 1078.03,716.319 1079.02,712.987 1080.02,712.626 1081.02,725.932 1082.02,725.168 1083.01,711.535 1084.01,710.518 1085.01,705.101 1086.01,704.046 1087,716.325 1088,715.302 1089,702.773 1090,701.445 1090.99,722.47 1091.99,721.41 1092.99,729.107 1093.99,728.749 1094.98,701.441 1095.98,700.018 1096.98,734.644 1097.98,734.182 1098.97,723.145 1099.97,722.611 1100.97,740.139 1101.97,739.621 1102.96,713.16 1103.96,711.744 1104.96,712.052 1105.96,711.335 1106.95,717.842 1107.95,716.587 1108.95,697.329 1109.95,696.737 1110.94,716.409 1111.94,716.015 1112.94,732.757 1113.94,732.398 1114.93,714.185 1115.93,713.702 1116.93,728.499 1117.93,728.032 1118.92,729.419 1119.92,729.113 1120.92,722.139 1121.92,721.381 1122.91,714.429 1123.91,714.102 1124.91,716.252 1125.91,716.042 1126.9,726.329 1127.9,724.613 1128.9,718.407 1129.9,717.972 1130.89,732.797 1131.89,732.13 1132.89,736.22 1133.89,735.663 1134.88,723.548 1135.88,723.023 1136.88,713.802 1137.88,713.465 1138.87,700.207 1139.87,699.867 1140.87,698.887 1141.87,698.091 1142.86,731.246 1143.86,730.464 1144.86,745.641 1145.85,743.869 1146.85,735.95 1147.85,735.391 1148.85,728.333 1149.84,727.308 1150.84,740.995 1151.84,740.646 1152.84,708.277 1153.83,707.764 1154.83,741.895 1155.83,741.111 1156.83,724.619 1157.82,724.211 1158.82,727.825 1159.82,727.568 1160.82,729.126 1161.81,728.559 1162.81,720.782 1163.81,719.999 1164.81,745.461 1165.8,744.592 1166.8,726.638 1167.8,726.088 1168.8,742.66 1169.79,741.672 1170.79,713.353 1171.79,712.151 1172.79,714.397 1173.78,713.84 1174.78,726.317 1175.78,725.58 1176.78,715.061 1177.77,714.363 1178.77,718.171 1179.77,717.03 1180.77,727.202 1181.76,726.69 1182.76,717.333 1183.76,716.697 1184.76,725.11 1185.75,724.88 1186.75,743.758 1187.75,743.306 1188.75,727.007 1189.74,725.401 1190.74,729.358 1191.74,728.781 1192.74,752.157 1193.73,750.542 1194.73,735.224 1195.73,734.66 1196.73,710.233 1197.72,709.638 1198.72,710.954 1199.72,710.195 1200.72,715.079 1201.71,714.434 1202.71,731.387 1203.71,731.017 1204.71,718.959 1205.7,718.079 1206.7,728.366 1207.7,727.982 1208.7,732.973 1209.69,731.542 1210.69,714.751 1211.69,714.023 1212.68,716.466 1213.68,715.867 1214.68,721.412 1215.68,720.68 1216.67,731.485 1217.67,730.692 1218.67,747.153 1219.67,746.625 1220.66,735.777 1221.66,735.303 1222.66,739.797 1223.66,739.173 1224.65,727.606 1225.65,727.417 1226.65,722.619 1227.65,722.172 1228.64,730.587 1229.64,729.67 1230.64,713.206 1231.64,712.481 1232.63,725.466 1233.63,724.895 1234.63,731.301 1235.63,730.619 1236.62,736.952 1237.62,736.079 1238.62,728.355 1239.62,727.539 1240.61,720.192 1241.61,719.52 1242.61,723.426 1243.61,722.584 1244.6,752.57 1245.6,751.792 1246.6,727.263 1247.6,726.874 1248.59,698.291 1249.59,697.772 1250.59,727.237 1251.59,727.069 1252.58,739.351 1253.58,738.876 1254.58,722.926 1255.58,722.689 1256.57,727.986 1257.57,727.481 1258.57,733.665 1259.57,733.298 1260.56,722.482 1261.56,722.07 1262.56,726.046 1263.56,725.237 1264.55,717.676 1265.55,717.311 1266.55,716.836 1267.55,716.404 1268.54,711.169 1269.54,709.815 1270.54,710.851 1271.54,710.013 1272.53,741.548 1273.53,741.214 1274.53,711.722 1275.53,711.351 1276.52,721.618 1277.52,720.801 1278.52,723.088 1279.51,722.338 1280.51,737.344 1281.51,736.556 1282.51,714.447 1283.5,714.039 1284.5,718.472 1285.5,717.769 1286.5,727.25 1287.49,726.847 1288.49,721.776 1289.49,721.362 1290.49,722.419 1291.48,721.608 1292.48,723.647 1293.48,722.766 1294.48,738.148 1295.47,737.575 1296.47,711.868 1297.47,710.977 1298.47,723.502 1299.46,722.5 1300.46,716.675 1301.46,716.385 1302.46,711.977 1303.45,711.655 1304.45,723.314 1305.45,722.888 1306.45,720.009 1307.44,719.511 1308.44,738.063 1309.44,737.67 1310.44,723.949 1311.43,722.773 1312.43,737.532 1313.43,736.672 1314.43,711.449 1315.42,710.883 1316.42,723.085 1317.42,722.607 1318.42,721.52 1319.41,721.111 1320.41,735.179 1321.41,734.73 1322.41,708.311 1323.4,707.722 1324.4,740.882 1325.4,740.071 1326.4,720.046 1327.39,719.646 1328.39,741.222 1329.39,740.839 1330.39,715.501 1331.38,714.918 1332.38,715.269 1333.38,714.829 1334.38,725.064 1335.37,724.413 1336.37,744.961 1337.37,744.427 1338.37,742.132 1339.36,740.777 1340.36,721.893 1341.36,720.674 1342.36,715.436 1343.35,714.555 1344.35,700.583 1345.35,699.816 1346.35,736.336 1347.34,735.293 1348.34,738.866 1349.34,738.01 1350.33,711.473 1351.33,710.99 1352.33,737.747 1353.33,737.147 1354.32,727.319 1355.32,727.031 1356.32,710.601 1357.32,709.594 1358.31,717.991 1359.31,717.289 1360.31,740.165 1361.31,738.859 1362.3,731.148 1363.3,730.626 1364.3,744.561 1365.3,744.022 1366.29,742.848 1367.29,742.13 1368.29,734.147 1369.29,733.659 1370.28,735.067 1371.28,734.287 1372.28,734.258 1373.28,733.83 1374.27,729.099 1375.27,727.312 1376.27,739.384 1377.27,738.353 1378.26,719.877 1379.26,719.304 1380.26,738.46 1381.26,738.074 1382.25,741.613 1383.25,740.889 1384.25,714.509 1385.25,713.47 1386.24,714.745 1387.24,714.586 1388.24,732.722 1389.24,732.49 1390.23,716.014 1391.23,714.887 1392.23,722.501 1393.23,721.865 1394.22,725.563 1395.22,724.877 1396.22,739.458 1397.22,738.88 1398.21,728.223 1399.21,727.375 1400.21,716.179 1401.21,715.588 1402.2,754.154 1403.2,753.608 1404.2,749.069 1405.2,748.614 1406.19,720.177 1407.19,719.199 1408.19,734.168 1409.19,733.59 1410.18,740.809 1411.18,739.94 1412.18,757.024 1413.18,756.308 1414.17,744.246 1415.17,742.89 1416.17,723.744 1417.16,722.8 1418.16,755.759 1419.16,755.127 1420.16,718.181 1421.15,717.228 1422.15,750.844 1423.15,749.2 1424.15,701.234 1425.14,699.673 1426.14,741.779 1427.14,741.087 1428.14,745.873 1429.13,744.9 1430.13,725.236 1431.13,725.059 1432.13,746.175 1433.12,745.227 1434.12,723.268 1435.12,721.627 1436.12,748.892 1437.11,747.527 1438.11,719.245 1439.11,718.447 1440.11,728.927 1441.1,727.818 1442.1,729.036 1443.1,727.933 1444.1,722.283 1445.09,721.239 1446.09,730.707 1447.09,730.009 1448.09,764.034 1449.08,762.464 1450.08,774.224 1451.08,773.431 1452.08,724.728 1453.07,723.71 1454.07,772.66 1455.07,771.861 1456.07,737.879 1457.06,737.496 1458.06,755.695 1459.06,755.162 1460.06,748.563 1461.05,748.222 1462.05,737.774 1463.05,737.329 1464.05,719.723 1465.04,719.324 1466.04,733.921 1467.04,733.417 1468.04,742.461 1469.03,741.122 1470.03,735.801 1471.03,735.091 1472.03,756.946 1473.02,756.327 1474.02,791.126 1475.02,790.093 1476.02,729.066 1477.01,728.053 1478.01,723.109 1479.01,722.292 1480.01,717.67 1481,716.812 1482,746.8 1483,746.337 1484,713.872 1484.99,713.266 1485.99,752.125 1486.99,751.783 1487.98,727.21 1488.98,725.142 1489.98,769.424 1490.98,768.918 1491.97,747.905 1492.97,747.614 1493.97,778.776 1494.97,777.593 1495.96,745.64 1496.96,744.667 1497.96,747.311 1498.96,746.391 1499.95,756.297 1500.95,755.279 1501.95,739.752 1502.95,738.784 1503.94,763.203 1504.94,762.365 1505.94,763.841 1506.94,763.449 1507.93,777.541 1508.93,777.203 1509.93,802.181 1510.93,800.555 1511.92,768.418 1512.92,767.967 1513.92,748.171 1514.92,747.956 1515.91,759.308 1516.91,758.36 1517.91,737.463 1518.91,736.67 1519.9,731.185 1520.9,730.526 1521.9,725.465 1522.9,724.48 1523.89,771.611 1524.89,770.887 1525.89,766.852 1526.89,766.184 1527.88,779.314 1528.88,778.336 1529.88,726.971 1530.88,726.423 1531.87,784.563 1532.87,783.771 1533.87,796.718 1534.87,795.952 1535.86,784.663 1536.86,784.62 1537.86,778.145 1538.86,777.92 1539.85,762.831 1540.85,761.543 1541.85,809.879 1542.85,808.636 1543.84,796.798 1544.84,796.246 1545.84,796.769 1546.84,795.355 1547.83,791.687 1548.83,790.618 1549.83,762.193 1550.83,760.463 1551.82,793.128 1552.82,792.72 1553.82,744.927 1554.81,744.339 1555.81,789.213 1556.81,788.877 1557.81,823.453 1558.8,822.76 1559.8,815.149 1560.8,813.72 1561.8,835.691 1562.79,834.777 1563.79,796.298 1564.79,796.079 1565.79,721.974 1566.78,720.974 1567.78,767.33 1568.78,765.438 1569.78,796.539 1570.77,796.355 1571.77,784.707 1572.77,784.098 1573.77,772.943 1574.76,772.516 1575.76,834.523 1576.76,834.205 1577.76,768.757 1578.75,767.067 1579.75,793.853 1580.75,793.374 1581.75,844.161 1582.74,843.823 1583.74,827.94 1584.74,827.357 1585.74,872.284 1586.73,872.127 1587.73,866.027 1588.73,865.332 1589.73,852.163 1590.72,850.705 1591.72,874.372 1592.72,872.958 1593.72,852.384 1594.71,852.135 1595.71,873.678 1596.71,872.242 1597.71,827.828 1598.7,825.902 1599.7,871.895 1600.7,870.175 1601.7,879.526 1602.69,878.867 1603.69,864.053 1604.69,862.91 1605.69,888.737 1606.68,888.632 1607.68,884.142 1608.68,883.181 1609.68,949.902 1610.67,949.377 1611.67,874.616 1612.67,873.573 1613.67,956.442 1614.66,955.839 1615.66,924.686 1616.66,924.554 1617.66,910.546 1618.65,909.001 1619.65,925.466 1620.65,924.724 1621.65,977.442 1622.64,976.609 1623.64,956.595 1624.64,955.968 1625.63,1019.54 1626.63,1017.95 1627.63,1009.93 1628.63,1008.11 1629.62,1019.42 1630.62,1018.72 1631.62,979.115 1632.62,977.351 1633.61,983.636 1634.61,981.483 1635.61,972.634 1636.61,971.219 1637.6,1014.42 1638.6,1012.07 1639.6,984.558 1640.6,982.359 1641.59,1006.76 1642.59,1006.42 1643.59,1014.86 1644.59,1013.54 1645.58,968.248 1646.58,966.201 1647.58,1053.93 1648.58,1053.43 1649.57,1019.66 1650.57,1017.92 1651.57,982.712 1652.57,980.837 1653.56,1103.93 1654.56,1101.79 1655.56,1063.81 1656.56,1062.29 1657.55,1084.83 1658.55,1083.94 1659.55,1080.25 1660.55,1078.09 1661.54,1075.95 1662.54,1075.25 1663.54,1119.88 1664.54,1117.52 1665.53,1098.38 1666.53,1096.75 1667.53,1117.6 1668.53,1115.42 1669.52,1123.49 1670.52,1122.66 1671.52,1043.32 1672.52,1041.78 1673.51,1091.42 1674.51,1090.05 1675.51,1084.21 1676.51,1082.79 1677.5,1116.77 1678.5,1115.51 1679.5,1057.19 1680.5,1054.64 1681.49,1116.26 1682.49,1113.89 1683.49,1107.78 1684.49,1105.67 1685.48,1079.87 1686.48,1078.4 1687.48,1174.21 1688.48,1173.58 1689.47,1062.82 1690.47,1060.48 1691.47,1121.64 1692.46,1118.86 1693.46,1100.58 1694.46,1097.1 1695.46,1135.92 1696.45,1134.22 1697.45,1243.76 1698.45,1240.97 1699.45,1061.67 1700.44,1059.38 1701.44,1053.61 1702.44,1050.16 1703.44,1140.32 1704.43,1139.05 1705.43,1064.71 1706.43,1063.37 1707.43,1118.56 1708.42,1115.91 1709.42,1079.17 1710.42,1077.61 1711.42,1139.56 1712.41,1137.5 1713.41,1166.62 1714.41,1164.47 1715.41,1176.38 1716.4,1175.49 1717.4,1249.25 1718.4,1246.34 1719.4,1088.53 1720.39,1087.12 1721.39,1094.95 1722.39,1092.47 1723.39,1178.09 1724.38,1177.02 1725.38,1080.15 1726.38,1078.7 1727.38,1125.81 1728.37,1123.77 1729.37,1115.84 1730.37,1113.6 1731.37,1121.18 1732.36,1119.82 1733.36,1157.04 1734.36,1154.25 1735.36,1083 1736.35,1079.34 1737.35,1142.87 1738.35,1141.84 1739.35,1166.15 1740.34,1164.14 1741.34,1091.62 1742.34,1090.02 1743.34,1097.67 1744.33,1095.58 1745.33,1180.44 1746.33,1179.75 1747.33,1135.9 1748.32,1133.28 1749.32,1148.77 1750.32,1147.38 1751.32,1115.64 1752.31,1113.65 1753.31,1174.35 1754.31,1172.33 1755.31,1199.21 1756.3,1197.12 1757.3,1130.54 1758.3,1128.09 1759.29,1147.66 1760.29,1145.99 1761.29,1172.05 1762.29,1168.17 1763.28,1148.64 1764.28,1147.6 1765.28,1202.4 1766.28,1200.65 1767.27,1162.49 1768.27,1161.14 1769.27,1146.07 1770.27,1143.87 1771.26,1154.91 1772.26,1153.54 1773.26,1220.05 1774.26,1219.26 1775.25,1263.23 1776.25,1262.25 1777.25,1147.74 1778.25,1146.34 1779.24,1179.41 1780.24,1178.58 1781.24,1175.47 1782.24,1173.27 1783.23,1199.9 1784.23,1198.13 1785.23,1197.43 1786.23,1196.22 1787.22,1197.64 1788.22,1196.21 1789.22,1221.48 1790.22,1219.89 1791.21,1163.82 1792.21,1162.44 1793.21,1156.37 1794.21,1155.2 1795.2,1221.22 1796.2,1219.49 1797.2,1147.19 1798.2,1145.2 1799.19,1176.12 1800.19,1174.89 1801.19,1206.85 1802.19,1205.37 1803.18,1142.03 1804.18,1140.24 1805.18,1169.95 1806.18,1168.57 1807.17,1190.1 1808.17,1189.12 1809.17,1244.01 1810.17,1242.79 1811.16,1207.21 1812.16,1205.77 1813.16,1255.46 1814.16,1252.34 1815.15,1197.23 1816.15,1194.45 1817.15,1224.34 1818.15,1223.33 1819.14,1195.09 1820.14,1193.1 1821.14,1313.39 1822.14,1312.44 1823.13,1228.54 1824.13,1225.67 1825.13,1203.19 1826.13,1200.91 1827.12,1211.68 1828.12,1210.21 1829.12,1174.63 1830.11,1172.38 1831.11,1230.73 1832.11,1229.14 1833.11,1237.6 1834.1,1235.66 1835.1,1247.06 1836.1,1246.05 1837.1,1188.68 1838.09,1187.24 1839.09,1196.06 1840.09,1194.7 1841.09,1174.08 1842.08,1172.53 1843.08,1220.44 1844.08,1219.09 1845.08,1208.21 1846.07,1206.15 1847.07,1250.52 1848.07,1248.61 1849.07,1213.42 1850.06,1211.31 1851.06,1100.17 1852.06,1098.97 1853.06,1229.78 1854.05,1227.68 1855.05,1210.2 1856.05,1208.67 1857.05,1178.69 1858.04,1175.77 1859.04,1240.75 1860.04,1237.85 1861.04,1169.48 1862.03,1167.34 1863.03,1249.33 1864.03,1248.01 1865.03,1226.37 1866.02,1224.16 1867.02,1211.42 1868.02,1210.36 1869.02,1206.46 1870.01,1204.64 1871.01,1282.98 1872.01,1281.11 1873.01,1320.32 1874,1318.52 1875,1223.25 1876,1221.8 1877,1176.35 1877.99,1174.51 1878.99,1131.29 1879.99,1128.49 1880.99,1210.72 1881.98,1208.77 1882.98,1237.52 1883.98,1235.6 1884.98,1167.21 1885.97,1164.46 1886.97,1213.8 1887.97,1211.99 1888.97,1214.51 1889.96,1212.51 1890.96,1198.45 1891.96,1197.54 1892.96,1229.56 1893.95,1227.4 1894.95,1291.4 1895.95,1289.28 1896.94,1175.44 1897.94,1173.69 1898.94,1212.4 1899.94,1209.71 1900.93,1298.5 1901.93,1297.09 1902.93,1233.23 1903.93,1231.13 1904.92,1266.63 1905.92,1264.36 1906.92,1235.1 1907.92,1233.57 1908.91,1258.22 1909.91,1256.11 1910.91,1319.54 1911.91,1317.68 1912.9,1293.71 1913.9,1292.49 1914.9,1241.5 1915.9,1239.64 1916.89,1280.65 1917.89,1278.96 1918.89,1246.65 1919.89,1244.91 1920.88,1249.46 1921.88,1247.62 1922.88,1286.97 1923.88,1286.21 1924.87,1266.76 1925.87,1264.4 1926.87,1216.93 1927.87,1215 1928.86,1223.67 1929.86,1221.58 1930.86,1225.62 1931.86,1222.22 1932.85,1184.4 1933.85,1182.49 1934.85,1251.92 1935.85,1250.15 1936.84,1219.17 1937.84,1217.25 1938.84,1263.04 1939.84,1261.13 1940.83,1216.55 1941.83,1214.34 1942.83,1275.65 1943.83,1273.85 1944.82,1279.3 1945.82,1276.43 1946.82,1235.05 1947.82,1233.25 1948.81,1303.29 1949.81,1300.54 1950.81,1278.77 1951.81,1275.73 1952.8,1269.27 1953.8,1266.91 1954.8,1292.72 1955.8,1291.19 1956.79,1263.11 1957.79,1261.2 1958.79,1217.02 1959.79,1215.36 1960.78,1281.37 1961.78,1277.62 1962.78,1220.87 1963.78,1219.32 1964.77,1318.78 1965.77,1316.67 1966.77,1286.13 1967.76,1284.3 1968.76,1373.35 1969.76,1370.82 1970.76,1358.07 1971.75,1356.12 1972.75,1271.92 1973.75,1267.16 1974.75,1361.86 1975.74,1358.76 1976.74,1213.64 1977.74,1211.52 1978.74,1229.96 1979.73,1227.68 1980.73,1315.04 1981.73,1313.06 1982.73,1317.8 1983.72,1314.99 1984.72,1226.62 1985.72,1223.38 1986.72,1295.84 1987.71,1293.21 1988.71,1309.51 1989.71,1307.44 1990.71,1328.4 1991.7,1326.51 1992.7,1317.73 1993.7,1315.71 1994.7,1311.19 1995.69,1309.5 1996.69,1273.18 1997.69,1270.9 1998.69,1322.53 1999.68,1318.2 2000.68,1312.51 2001.68,1310.27 2002.68,1294.55 2003.67,1292.11 2004.67,1294.03 2005.67,1293.18 2006.67,1305.67 2007.66,1302.06 2008.66,1292.99 2009.66,1291.34 2010.66,1252.37 2011.65,1249.63 2012.65,1361.4 2013.65,1358.4 2014.65,1368.64 2015.64,1366.9 2016.64,1370.43 2017.64,1368.94 2018.64,1354.67 2019.63,1353.47 2020.63,1313.04 2021.63,1311.35 2022.63,1345.21 2023.62,1342.79 2024.62,1349.91 2025.62,1347.85 2026.62,1371.8 2027.61,1369.98 2028.61,1349.62 2029.61,1347.61 2030.61,1357.38 2031.6,1354.13 2032.6,1323.09 2033.6,1319.64 2034.59,1307.34 2035.59,1305.35 2036.59,1356.43 2037.59,1354 2038.58,1349.73 2039.58,1347.7 2040.58,1342.29 2041.58,1340.59 2042.57,1375.57 2043.57,1373.61 2044.57,1385.73 2045.57,1382.98 2046.56,1365.4 2047.56,1364.02 2048.56,1327.03 2049.56,1325.51 2050.55,1352.24 2051.55,1349.31 2052.55,1375.16 2053.55,1373.5 2054.54,1310.71 2055.54,1307.58 2056.54,1370.33 2057.54,1368.89 2058.53,1323.02 2059.53,1321.65 2060.53,1397.21 2061.53,1394.4 2062.52,1378.2 2063.52,1375.92 2064.52,1410.38 2065.52,1408.4 2066.51,1349.71 2067.51,1348.18 2068.51,1342.6 2069.51,1340.49 2070.5,1387.42 2071.5,1385.48 2072.5,1382.21 2073.5,1381.45 2074.49,1351.02 2075.49,1348.54 2076.49,1375.68 2077.49,1373.47 2078.48,1346.29 2079.48,1343.3 2080.48,1422.47 2081.48,1421.29 2082.47,1443.21 2083.47,1442.07 2084.47,1358.74 2085.47,1356.27 2086.46,1348.46 2087.46,1345.88 2088.46,1350.31 2089.46,1348.3 2090.45,1410.59 2091.45,1407.67 2092.45,1326.38 2093.45,1324.38 2094.44,1380.91 2095.44,1375.23 2096.44,1372.74 2097.44,1369.91 2098.43,1418.59 2099.43,1416.89 2100.43,1372.01 2101.43,1370.89 2102.42,1375.02 2103.42,1372.51 2104.42,1372.88 2105.41,1370.66 2106.41,1332.93 2107.41,1331.99 2108.41,1384.97 2109.4,1381.47 2110.4,1390.29 2111.4,1387.95 2112.4,1408.01 2113.39,1405.14 2114.39,1356.62 2115.39,1354 2116.39,1427.26 2117.38,1426.01 2118.38,1358.23 2119.38,1356.01 2120.38,1374.78 2121.37,1373.97 2122.37,1436.72 2123.37,1433.29 2124.37,1417.32 2125.36,1416.27 2126.36,1402.83 2127.36,1400.38 2128.36,1419.52 2129.35,1416.77 2130.35,1418.87 2131.35,1417.29 2132.35,1372.79 2133.34,1370.7 2134.34,1398.76 2135.34,1396.64 2136.34,1389.26 2137.33,1387.1 2138.33,1348.19 2139.33,1345.98 2140.33,1370.05 2141.32,1368.53 2142.32,1401.2 2143.32,1399.71 2144.32,1407.83 2145.31,1406.74 2146.31,1377.72 2147.31,1373.43 2148.31,1390.51 2149.3,1388.52 2150.3,1386.56 2151.3,1384.49 2152.3,1416.63 2153.29,1414.63 2154.29,1377.98 2155.29,1375.06 2156.29,1356.96 2157.28,1354.76 2158.28,1410.28 2159.28,1408.14 2160.28,1445.72 2161.27,1443.33 2162.27,1403.8 2163.27,1402.19 2164.27,1367.78 2165.26,1364.35 2166.26,1404.6 2167.26,1403.08 2168.26,1379.01 2169.25,1375.21 2170.25,1393.61 2171.25,1390.75 2172.24,1342.99 2173.24,1340.98 2174.24,1409.7 2175.24,1407.73 2176.23,1436.14 2177.23,1433.93 2178.23,1393.08 2179.23,1389.76 2180.22,1401.56 2181.22,1400.8 2182.22,1390.23 2183.22,1388.61 2184.21,1392.52 2185.21,1391.14 2186.21,1396.83 2187.21,1394.77 2188.2,1378.88 2189.2,1377.41 2190.2,1390.83 2191.2,1389.47 2192.19,1405.12 2193.19,1401.59 2194.19,1407.57 2195.19,1405.12 2196.18,1394.59 2197.18,1392.27 2198.18,1392.05 2199.18,1390.02 2200.17,1399.26 2201.17,1396.6 2202.17,1368.26 2203.17,1367.52 2204.16,1398.61 2205.16,1396.84 2206.16,1434.27 2207.16,1432.22 2208.15,1398.4 2209.15,1396.05 2210.15,1406.71 2211.15,1404.04 2212.14,1383.06 2213.14,1382 2214.14,1382.29 2215.14,1381.56 2216.13,1377.59 2217.13,1375.22 2218.13,1394.25 2219.13,1392.84 2220.12,1406.13 2221.12,1402.96 2222.12,1390.89 2223.12,1388.14 2224.11,1392.65 2225.11,1388.82 2226.11,1385.85 2227.11,1384.29 2228.1,1388.47 2229.1,1385.75 2230.1,1429.32 2231.1,1426.55 2232.09,1405.14 2233.09,1403.32 2234.09,1389.3 2235.09,1387.15 2236.08,1378.09 2237.08,1375.04 2238.08,1437.46 2239.07,1432.56 2240.07,1434.48 2241.07,1432.47 2242.07,1406.5 2243.06,1405.3 2244.06,1386.18 2245.06,1383.6 2246.06,1404.38 2247.05,1402.18 2248.05,1381.08 2249.05,1379.81 2250.05,1366.2 2251.04,1364.13 2252.04,1424.26 2253.04,1421.23 2254.04,1384.55 2255.03,1382.03 2256.03,1392.23 2257.03,1390.06 2258.03,1415.91 2259.02,1413.65 2260.02,1403.52 2261.02,1402.02 2262.02,1398.1 2263.01,1397.46 2264.01,1409.54 2265.01,1406.3 2266.01,1329.1 2267,1326.63 2268,1421.43 2269,1420.33 2270,1408.41 2270.99,1407.16 2271.99,1368.21 2272.99,1365.74 2273.99,1425.82 2274.98,1423.89 2275.98,1411.93 2276.98,1410.57 2277.98,1414.99 2278.97,1412.15 2279.97,1380.71 2280.97,1378.49 2281.97,1394.22 2282.96,1391.86 2283.96,1377.13 2284.96,1374.53 2285.96,1414.69 2286.95,1411.97 2287.95,1407.52 2288.95,1405.78 2289.95,1405.59 2290.94,1401.17 2291.94,1414.67 2292.94,1412.83 "/>
<path clip-path="url(#clip170)" d="M2018.52 198.898 L2282.3 198.898 L2282.3 95.2176 L2018.52 95.2176  Z" fill="#ffffff" fill-rule="evenodd" fill-opacity="1"/>
<polyline clip-path="url(#clip170)" style="stroke:#000000; stroke-linecap:round; stroke-linejoin:round; stroke-width:4; stroke-opacity:1; fill:none" points="2018.52,198.898 2282.3,198.898 2282.3,95.2176 2018.52,95.2176 2018.52,198.898 "/>
<polyline clip-path="url(#clip170)" style="stroke:#009af9; stroke-linecap:round; stroke-linejoin:round; stroke-width:4; stroke-opacity:1; fill:none" points="2042,147.058 2182.91,147.058 "/>
<path clip-path="url(#clip170)" d="M2220.23 166.745 Q2218.43 171.375 2216.71 172.787 Q2215 174.199 2212.13 174.199 L2208.73 174.199 L2208.73 170.634 L2211.23 170.634 Q2212.99 170.634 2213.96 169.8 Q2214.93 168.967 2216.11 165.865 L2216.88 163.921 L2206.39 138.412 L2210.9 138.412 L2219.01 158.689 L2227.11 138.412 L2231.62 138.412 L2220.23 166.745 Z" fill="#000000" fill-rule="nonzero" fill-opacity="1" /><path clip-path="url(#clip170)" d="M2238.91 160.402 L2246.55 160.402 L2246.55 134.037 L2238.24 135.703 L2238.24 131.444 L2246.5 129.778 L2251.18 129.778 L2251.18 160.402 L2258.82 160.402 L2258.82 164.338 L2238.91 164.338 L2238.91 160.402 Z" fill="#000000" fill-rule="nonzero" fill-opacity="1" /></svg>
