<?xml version="1.0" encoding="utf-8"?>
<svg xmlns="http://www.w3.org/2000/svg" xmlns:xlink="http://www.w3.org/1999/xlink" width="600" height="400" viewBox="0 0 2400 1600">
<defs>
  <clipPath id="clip200">
    <rect x="0" y="0" width="2400" height="1600"/>
  </clipPath>
</defs>
<path clip-path="url(#clip200)" d="M0 1600 L2400 1600 L2400 0 L0 0  Z" fill="#ffffff" fill-rule="evenodd" fill-opacity="1"/>
<defs>
  <clipPath id="clip201">
    <rect x="480" y="0" width="1681" height="1600"/>
  </clipPath>
</defs>
<path clip-path="url(#clip200)" d="M156.274 1486.45 L2352.76 1486.45 L2352.76 47.2441 L156.274 47.2441  Z" fill="#ffffff" fill-rule="evenodd" fill-opacity="1"/>
<defs>
  <clipPath id="clip202">
    <rect x="156" y="47" width="2197" height="1440"/>
  </clipPath>
</defs>
<polyline clip-path="url(#clip202)" style="stroke:#000000; stroke-linecap:round; stroke-linejoin:round; stroke-width:2; stroke-opacity:0.1; fill:none" points="218.439,1486.45 218.439,47.2441 "/>
<polyline clip-path="url(#clip202)" style="stroke:#000000; stroke-linecap:round; stroke-linejoin:round; stroke-width:2; stroke-opacity:0.1; fill:none" points="736.995,1486.45 736.995,47.2441 "/>
<polyline clip-path="url(#clip202)" style="stroke:#000000; stroke-linecap:round; stroke-linejoin:round; stroke-width:2; stroke-opacity:0.1; fill:none" points="1255.55,1486.45 1255.55,47.2441 "/>
<polyline clip-path="url(#clip202)" style="stroke:#000000; stroke-linecap:round; stroke-linejoin:round; stroke-width:2; stroke-opacity:0.1; fill:none" points="1774.11,1486.45 1774.11,47.2441 "/>
<polyline clip-path="url(#clip202)" style="stroke:#000000; stroke-linecap:round; stroke-linejoin:round; stroke-width:2; stroke-opacity:0.1; fill:none" points="2292.67,1486.45 2292.67,47.2441 "/>
<polyline clip-path="url(#clip200)" style="stroke:#000000; stroke-linecap:round; stroke-linejoin:round; stroke-width:4; stroke-opacity:1; fill:none" points="156.274,1486.45 2352.76,1486.45 "/>
<polyline clip-path="url(#clip200)" style="stroke:#000000; stroke-linecap:round; stroke-linejoin:round; stroke-width:4; stroke-opacity:1; fill:none" points="218.439,1486.45 218.439,1467.55 "/>
<polyline clip-path="url(#clip200)" style="stroke:#000000; stroke-linecap:round; stroke-linejoin:round; stroke-width:4; stroke-opacity:1; fill:none" points="736.995,1486.45 736.995,1467.55 "/>
<polyline clip-path="url(#clip200)" style="stroke:#000000; stroke-linecap:round; stroke-linejoin:round; stroke-width:4; stroke-opacity:1; fill:none" points="1255.55,1486.45 1255.55,1467.55 "/>
<polyline clip-path="url(#clip200)" style="stroke:#000000; stroke-linecap:round; stroke-linejoin:round; stroke-width:4; stroke-opacity:1; fill:none" points="1774.11,1486.45 1774.11,1467.55 "/>
<polyline clip-path="url(#clip200)" style="stroke:#000000; stroke-linecap:round; stroke-linejoin:round; stroke-width:4; stroke-opacity:1; fill:none" points="2292.67,1486.45 2292.67,1467.55 "/>
<path clip-path="url(#clip200)" d="M218.439 1517.37 Q214.828 1517.37 212.999 1520.93 Q211.193 1524.47 211.193 1531.6 Q211.193 1538.71 212.999 1542.27 Q214.828 1545.82 218.439 1545.82 Q222.073 1545.82 223.879 1542.27 Q225.707 1538.71 225.707 1531.6 Q225.707 1524.47 223.879 1520.93 Q222.073 1517.37 218.439 1517.37 M218.439 1513.66 Q224.249 1513.66 227.304 1518.27 Q230.383 1522.85 230.383 1531.6 Q230.383 1540.33 227.304 1544.94 Q224.249 1549.52 218.439 1549.52 Q212.629 1549.52 209.55 1544.94 Q206.494 1540.33 206.494 1531.6 Q206.494 1522.85 209.55 1518.27 Q212.629 1513.66 218.439 1513.66 Z" fill="#000000" fill-rule="nonzero" fill-opacity="1" /><path clip-path="url(#clip200)" d="M700.688 1544.91 L717.007 1544.91 L717.007 1548.85 L695.063 1548.85 L695.063 1544.91 Q697.725 1542.16 702.308 1537.53 Q706.915 1532.88 708.095 1531.53 Q710.34 1529.01 711.22 1527.27 Q712.123 1525.51 712.123 1523.82 Q712.123 1521.07 710.178 1519.33 Q708.257 1517.6 705.155 1517.6 Q702.956 1517.6 700.503 1518.36 Q698.072 1519.13 695.294 1520.68 L695.294 1515.95 Q698.118 1514.82 700.572 1514.24 Q703.026 1513.66 705.063 1513.66 Q710.433 1513.66 713.628 1516.35 Q716.822 1519.03 716.822 1523.52 Q716.822 1525.65 716.012 1527.57 Q715.225 1529.47 713.118 1532.07 Q712.54 1532.74 709.438 1535.95 Q706.336 1539.15 700.688 1544.91 Z" fill="#000000" fill-rule="nonzero" fill-opacity="1" /><path clip-path="url(#clip200)" d="M726.868 1514.29 L745.225 1514.29 L745.225 1518.22 L731.151 1518.22 L731.151 1526.7 Q732.169 1526.35 733.188 1526.19 Q734.206 1526 735.225 1526 Q741.012 1526 744.391 1529.17 Q747.771 1532.34 747.771 1537.76 Q747.771 1543.34 744.299 1546.44 Q740.826 1549.52 734.507 1549.52 Q732.331 1549.52 730.063 1549.15 Q727.817 1548.78 725.41 1548.04 L725.41 1543.34 Q727.493 1544.47 729.715 1545.03 Q731.938 1545.58 734.414 1545.58 Q738.419 1545.58 740.757 1543.48 Q743.095 1541.37 743.095 1537.76 Q743.095 1534.15 740.757 1532.04 Q738.419 1529.94 734.414 1529.94 Q732.539 1529.94 730.664 1530.35 Q728.813 1530.77 726.868 1531.65 L726.868 1514.29 Z" fill="#000000" fill-rule="nonzero" fill-opacity="1" /><path clip-path="url(#clip200)" d="M766.984 1517.37 Q763.373 1517.37 761.544 1520.93 Q759.738 1524.47 759.738 1531.6 Q759.738 1538.71 761.544 1542.27 Q763.373 1545.82 766.984 1545.82 Q770.618 1545.82 772.423 1542.27 Q774.252 1538.71 774.252 1531.6 Q774.252 1524.47 772.423 1520.93 Q770.618 1517.37 766.984 1517.37 M766.984 1513.66 Q772.794 1513.66 775.849 1518.27 Q778.928 1522.85 778.928 1531.6 Q778.928 1540.33 775.849 1544.94 Q772.794 1549.52 766.984 1549.52 Q761.174 1549.52 758.095 1544.94 Q755.039 1540.33 755.039 1531.6 Q755.039 1522.85 758.095 1518.27 Q761.174 1513.66 766.984 1513.66 Z" fill="#000000" fill-rule="nonzero" fill-opacity="1" /><path clip-path="url(#clip200)" d="M1215.17 1514.29 L1233.53 1514.29 L1233.53 1518.22 L1219.45 1518.22 L1219.45 1526.7 Q1220.47 1526.35 1221.49 1526.19 Q1222.51 1526 1223.53 1526 Q1229.31 1526 1232.69 1529.17 Q1236.07 1532.34 1236.07 1537.76 Q1236.07 1543.34 1232.6 1546.44 Q1229.13 1549.52 1222.81 1549.52 Q1220.63 1549.52 1218.36 1549.15 Q1216.12 1548.78 1213.71 1548.04 L1213.71 1543.34 Q1215.8 1544.47 1218.02 1545.03 Q1220.24 1545.58 1222.72 1545.58 Q1226.72 1545.58 1229.06 1543.48 Q1231.4 1541.37 1231.4 1537.76 Q1231.4 1534.15 1229.06 1532.04 Q1226.72 1529.94 1222.72 1529.94 Q1220.84 1529.94 1218.97 1530.35 Q1217.11 1530.77 1215.17 1531.65 L1215.17 1514.29 Z" fill="#000000" fill-rule="nonzero" fill-opacity="1" /><path clip-path="url(#clip200)" d="M1255.29 1517.37 Q1251.67 1517.37 1249.85 1520.93 Q1248.04 1524.47 1248.04 1531.6 Q1248.04 1538.71 1249.85 1542.27 Q1251.67 1545.82 1255.29 1545.82 Q1258.92 1545.82 1260.73 1542.27 Q1262.55 1538.71 1262.55 1531.6 Q1262.55 1524.47 1260.73 1520.93 Q1258.92 1517.37 1255.29 1517.37 M1255.29 1513.66 Q1261.1 1513.66 1264.15 1518.27 Q1267.23 1522.85 1267.23 1531.6 Q1267.23 1540.33 1264.15 1544.94 Q1261.1 1549.52 1255.29 1549.52 Q1249.48 1549.52 1246.4 1544.94 Q1243.34 1540.33 1243.34 1531.6 Q1243.34 1522.85 1246.4 1518.27 Q1249.48 1513.66 1255.29 1513.66 Z" fill="#000000" fill-rule="nonzero" fill-opacity="1" /><path clip-path="url(#clip200)" d="M1285.45 1517.37 Q1281.84 1517.37 1280.01 1520.93 Q1278.2 1524.47 1278.2 1531.6 Q1278.2 1538.71 1280.01 1542.27 Q1281.84 1545.82 1285.45 1545.82 Q1289.08 1545.82 1290.89 1542.27 Q1292.72 1538.71 1292.72 1531.6 Q1292.72 1524.47 1290.89 1520.93 Q1289.08 1517.37 1285.45 1517.37 M1285.45 1513.66 Q1291.26 1513.66 1294.31 1518.27 Q1297.39 1522.85 1297.39 1531.6 Q1297.39 1540.33 1294.31 1544.94 Q1291.26 1549.52 1285.45 1549.52 Q1279.64 1549.52 1276.56 1544.94 Q1273.5 1540.33 1273.5 1531.6 Q1273.5 1522.85 1276.56 1518.27 Q1279.64 1513.66 1285.45 1513.66 Z" fill="#000000" fill-rule="nonzero" fill-opacity="1" /><path clip-path="url(#clip200)" d="M1732.38 1514.29 L1754.61 1514.29 L1754.61 1516.28 L1742.06 1548.85 L1737.18 1548.85 L1748.98 1518.22 L1732.38 1518.22 L1732.38 1514.29 Z" fill="#000000" fill-rule="nonzero" fill-opacity="1" /><path clip-path="url(#clip200)" d="M1763.77 1514.29 L1782.13 1514.29 L1782.13 1518.22 L1768.06 1518.22 L1768.06 1526.7 Q1769.07 1526.35 1770.09 1526.19 Q1771.11 1526 1772.13 1526 Q1777.92 1526 1781.3 1529.17 Q1784.68 1532.34 1784.68 1537.76 Q1784.68 1543.34 1781.2 1546.44 Q1777.73 1549.52 1771.41 1549.52 Q1769.24 1549.52 1766.97 1549.15 Q1764.72 1548.78 1762.31 1548.04 L1762.31 1543.34 Q1764.4 1544.47 1766.62 1545.03 Q1768.84 1545.58 1771.32 1545.58 Q1775.32 1545.58 1777.66 1543.48 Q1780 1541.37 1780 1537.76 Q1780 1534.15 1777.66 1532.04 Q1775.32 1529.94 1771.32 1529.94 Q1769.44 1529.94 1767.57 1530.35 Q1765.72 1530.77 1763.77 1531.65 L1763.77 1514.29 Z" fill="#000000" fill-rule="nonzero" fill-opacity="1" /><path clip-path="url(#clip200)" d="M1803.89 1517.37 Q1800.28 1517.37 1798.45 1520.93 Q1796.64 1524.47 1796.64 1531.6 Q1796.64 1538.71 1798.45 1542.27 Q1800.28 1545.82 1803.89 1545.82 Q1807.52 1545.82 1809.33 1542.27 Q1811.16 1538.71 1811.16 1531.6 Q1811.16 1524.47 1809.33 1520.93 Q1807.52 1517.37 1803.89 1517.37 M1803.89 1513.66 Q1809.7 1513.66 1812.75 1518.27 Q1815.83 1522.85 1815.83 1531.6 Q1815.83 1540.33 1812.75 1544.94 Q1809.7 1549.52 1803.89 1549.52 Q1798.08 1549.52 1795 1544.94 Q1791.94 1540.33 1791.94 1531.6 Q1791.94 1522.85 1795 1518.27 Q1798.08 1513.66 1803.89 1513.66 Z" fill="#000000" fill-rule="nonzero" fill-opacity="1" /><path clip-path="url(#clip200)" d="M2237.19 1544.91 L2244.83 1544.91 L2244.83 1518.55 L2236.52 1520.21 L2236.52 1515.95 L2244.78 1514.29 L2249.46 1514.29 L2249.46 1544.91 L2257.1 1544.91 L2257.1 1548.85 L2237.19 1548.85 L2237.19 1544.91 Z" fill="#000000" fill-rule="nonzero" fill-opacity="1" /><path clip-path="url(#clip200)" d="M2276.54 1517.37 Q2272.93 1517.37 2271.1 1520.93 Q2269.3 1524.47 2269.3 1531.6 Q2269.3 1538.71 2271.1 1542.27 Q2272.93 1545.82 2276.54 1545.82 Q2280.18 1545.82 2281.98 1542.27 Q2283.81 1538.71 2283.81 1531.6 Q2283.81 1524.47 2281.98 1520.93 Q2280.18 1517.37 2276.54 1517.37 M2276.54 1513.66 Q2282.35 1513.66 2285.41 1518.27 Q2288.49 1522.85 2288.49 1531.6 Q2288.49 1540.33 2285.41 1544.94 Q2282.35 1549.52 2276.54 1549.52 Q2270.73 1549.52 2267.65 1544.94 Q2264.6 1540.33 2264.6 1531.6 Q2264.6 1522.85 2267.65 1518.27 Q2270.73 1513.66 2276.54 1513.66 Z" fill="#000000" fill-rule="nonzero" fill-opacity="1" /><path clip-path="url(#clip200)" d="M2306.7 1517.37 Q2303.09 1517.37 2301.27 1520.93 Q2299.46 1524.47 2299.46 1531.6 Q2299.46 1538.71 2301.27 1542.27 Q2303.09 1545.82 2306.7 1545.82 Q2310.34 1545.82 2312.14 1542.27 Q2313.97 1538.71 2313.97 1531.6 Q2313.97 1524.47 2312.14 1520.93 Q2310.34 1517.37 2306.7 1517.37 M2306.7 1513.66 Q2312.51 1513.66 2315.57 1518.27 Q2318.65 1522.85 2318.65 1531.6 Q2318.65 1540.33 2315.57 1544.94 Q2312.51 1549.52 2306.7 1549.52 Q2300.89 1549.52 2297.82 1544.94 Q2294.76 1540.33 2294.76 1531.6 Q2294.76 1522.85 2297.82 1518.27 Q2300.89 1513.66 2306.7 1513.66 Z" fill="#000000" fill-rule="nonzero" fill-opacity="1" /><path clip-path="url(#clip200)" d="M2336.87 1517.37 Q2333.26 1517.37 2331.43 1520.93 Q2329.62 1524.47 2329.62 1531.6 Q2329.62 1538.71 2331.43 1542.27 Q2333.26 1545.82 2336.87 1545.82 Q2340.5 1545.82 2342.31 1542.27 Q2344.14 1538.71 2344.14 1531.6 Q2344.14 1524.47 2342.31 1520.93 Q2340.5 1517.37 2336.87 1517.37 M2336.87 1513.66 Q2342.68 1513.66 2345.73 1518.27 Q2348.81 1522.85 2348.81 1531.6 Q2348.81 1540.33 2345.73 1544.94 Q2342.68 1549.52 2336.87 1549.52 Q2331.06 1549.52 2327.98 1544.94 Q2324.92 1540.33 2324.92 1531.6 Q2324.92 1522.85 2327.98 1518.27 Q2331.06 1513.66 2336.87 1513.66 Z" fill="#000000" fill-rule="nonzero" fill-opacity="1" /><polyline clip-path="url(#clip202)" style="stroke:#000000; stroke-linecap:round; stroke-linejoin:round; stroke-width:2; stroke-opacity:0.1; fill:none" points="156.274,1396.64 2352.76,1396.64 "/>
<polyline clip-path="url(#clip202)" style="stroke:#000000; stroke-linecap:round; stroke-linejoin:round; stroke-width:2; stroke-opacity:0.1; fill:none" points="156.274,1069.47 2352.76,1069.47 "/>
<polyline clip-path="url(#clip202)" style="stroke:#000000; stroke-linecap:round; stroke-linejoin:round; stroke-width:2; stroke-opacity:0.1; fill:none" points="156.274,742.309 2352.76,742.309 "/>
<polyline clip-path="url(#clip202)" style="stroke:#000000; stroke-linecap:round; stroke-linejoin:round; stroke-width:2; stroke-opacity:0.1; fill:none" points="156.274,415.142 2352.76,415.142 "/>
<polyline clip-path="url(#clip202)" style="stroke:#000000; stroke-linecap:round; stroke-linejoin:round; stroke-width:2; stroke-opacity:0.1; fill:none" points="156.274,87.9763 2352.76,87.9763 "/>
<polyline clip-path="url(#clip200)" style="stroke:#000000; stroke-linecap:round; stroke-linejoin:round; stroke-width:4; stroke-opacity:1; fill:none" points="156.274,1486.45 156.274,47.2441 "/>
<polyline clip-path="url(#clip200)" style="stroke:#000000; stroke-linecap:round; stroke-linejoin:round; stroke-width:4; stroke-opacity:1; fill:none" points="156.274,1396.64 175.172,1396.64 "/>
<polyline clip-path="url(#clip200)" style="stroke:#000000; stroke-linecap:round; stroke-linejoin:round; stroke-width:4; stroke-opacity:1; fill:none" points="156.274,1069.47 175.172,1069.47 "/>
<polyline clip-path="url(#clip200)" style="stroke:#000000; stroke-linecap:round; stroke-linejoin:round; stroke-width:4; stroke-opacity:1; fill:none" points="156.274,742.309 175.172,742.309 "/>
<polyline clip-path="url(#clip200)" style="stroke:#000000; stroke-linecap:round; stroke-linejoin:round; stroke-width:4; stroke-opacity:1; fill:none" points="156.274,415.142 175.172,415.142 "/>
<polyline clip-path="url(#clip200)" style="stroke:#000000; stroke-linecap:round; stroke-linejoin:round; stroke-width:4; stroke-opacity:1; fill:none" points="156.274,87.9763 175.172,87.9763 "/>
<path clip-path="url(#clip200)" d="M62.9365 1382.44 Q59.3254 1382.44 57.4967 1386 Q55.6912 1389.55 55.6912 1396.68 Q55.6912 1403.78 57.4967 1407.35 Q59.3254 1410.89 62.9365 1410.89 Q66.5707 1410.89 68.3763 1407.35 Q70.205 1403.78 70.205 1396.68 Q70.205 1389.55 68.3763 1386 Q66.5707 1382.44 62.9365 1382.44 M62.9365 1378.74 Q68.7467 1378.74 71.8022 1383.34 Q74.8809 1387.93 74.8809 1396.68 Q74.8809 1405.4 71.8022 1410.01 Q68.7467 1414.59 62.9365 1414.59 Q57.1264 1414.59 54.0477 1410.01 Q50.9921 1405.4 50.9921 1396.68 Q50.9921 1387.93 54.0477 1383.34 Q57.1264 1378.74 62.9365 1378.74 Z" fill="#000000" fill-rule="nonzero" fill-opacity="1" /><path clip-path="url(#clip200)" d="M83.0984 1408.04 L87.9827 1408.04 L87.9827 1413.92 L83.0984 1413.92 L83.0984 1408.04 Z" fill="#000000" fill-rule="nonzero" fill-opacity="1" /><path clip-path="url(#clip200)" d="M108.746 1394.78 Q105.598 1394.78 103.746 1396.93 Q101.918 1399.08 101.918 1402.83 Q101.918 1406.56 103.746 1408.74 Q105.598 1410.89 108.746 1410.89 Q111.895 1410.89 113.723 1408.74 Q115.575 1406.56 115.575 1402.83 Q115.575 1399.08 113.723 1396.93 Q111.895 1394.78 108.746 1394.78 M118.029 1380.12 L118.029 1384.38 Q116.27 1383.55 114.464 1383.11 Q112.682 1382.67 110.922 1382.67 Q106.293 1382.67 103.839 1385.8 Q101.409 1388.92 101.061 1395.24 Q102.427 1393.23 104.487 1392.16 Q106.547 1391.07 109.024 1391.07 Q114.233 1391.07 117.242 1394.24 Q120.274 1397.39 120.274 1402.83 Q120.274 1408.16 117.126 1411.37 Q113.978 1414.59 108.746 1414.59 Q102.751 1414.59 99.5798 1410.01 Q96.4085 1405.4 96.4085 1396.68 Q96.4085 1388.48 100.297 1383.62 Q104.186 1378.74 110.737 1378.74 Q112.496 1378.74 114.279 1379.08 Q116.084 1379.43 118.029 1380.12 Z" fill="#000000" fill-rule="nonzero" fill-opacity="1" /><path clip-path="url(#clip200)" d="M64.0013 1055.27 Q60.3902 1055.27 58.5615 1058.84 Q56.756 1062.38 56.756 1069.51 Q56.756 1076.62 58.5615 1080.18 Q60.3902 1083.72 64.0013 1083.72 Q67.6356 1083.72 69.4411 1080.18 Q71.2698 1076.62 71.2698 1069.51 Q71.2698 1062.38 69.4411 1058.84 Q67.6356 1055.27 64.0013 1055.27 M64.0013 1051.57 Q69.8115 1051.57 72.867 1056.18 Q75.9457 1060.76 75.9457 1069.51 Q75.9457 1078.24 72.867 1082.84 Q69.8115 1087.43 64.0013 1087.43 Q58.1912 1087.43 55.1125 1082.84 Q52.0569 1078.24 52.0569 1069.51 Q52.0569 1060.76 55.1125 1056.18 Q58.1912 1051.57 64.0013 1051.57 Z" fill="#000000" fill-rule="nonzero" fill-opacity="1" /><path clip-path="url(#clip200)" d="M84.1632 1080.88 L89.0475 1080.88 L89.0475 1086.75 L84.1632 1086.75 L84.1632 1080.88 Z" fill="#000000" fill-rule="nonzero" fill-opacity="1" /><path clip-path="url(#clip200)" d="M98.0521 1052.19 L120.274 1052.19 L120.274 1054.19 L107.728 1086.75 L102.844 1086.75 L114.649 1056.13 L98.0521 1056.13 L98.0521 1052.19 Z" fill="#000000" fill-rule="nonzero" fill-opacity="1" /><path clip-path="url(#clip200)" d="M63.1911 728.107 Q59.58 728.107 57.7513 731.672 Q55.9458 735.214 55.9458 742.343 Q55.9458 749.45 57.7513 753.014 Q59.58 756.556 63.1911 756.556 Q66.8254 756.556 68.6309 753.014 Q70.4596 749.45 70.4596 742.343 Q70.4596 735.214 68.6309 731.672 Q66.8254 728.107 63.1911 728.107 M63.1911 724.404 Q69.0013 724.404 72.0568 729.01 Q75.1355 733.593 75.1355 742.343 Q75.1355 751.07 72.0568 755.677 Q69.0013 760.26 63.1911 760.26 Q57.381 760.26 54.3023 755.677 Q51.2468 751.07 51.2468 742.343 Q51.2468 733.593 54.3023 729.01 Q57.381 724.404 63.1911 724.404 Z" fill="#000000" fill-rule="nonzero" fill-opacity="1" /><path clip-path="url(#clip200)" d="M83.3531 753.709 L88.2373 753.709 L88.2373 759.589 L83.3531 759.589 L83.3531 753.709 Z" fill="#000000" fill-rule="nonzero" fill-opacity="1" /><path clip-path="url(#clip200)" d="M108.422 743.177 Q105.089 743.177 103.168 744.959 Q101.27 746.741 101.27 749.866 Q101.27 752.991 103.168 754.774 Q105.089 756.556 108.422 756.556 Q111.756 756.556 113.677 754.774 Q115.598 752.968 115.598 749.866 Q115.598 746.741 113.677 744.959 Q111.779 743.177 108.422 743.177 M103.746 741.186 Q100.737 740.445 99.0474 738.385 Q97.3808 736.325 97.3808 733.362 Q97.3808 729.218 100.321 726.811 Q103.284 724.404 108.422 724.404 Q113.584 724.404 116.524 726.811 Q119.464 729.218 119.464 733.362 Q119.464 736.325 117.774 738.385 Q116.108 740.445 113.121 741.186 Q116.501 741.973 118.376 744.265 Q120.274 746.556 120.274 749.866 Q120.274 754.889 117.195 757.575 Q114.14 760.26 108.422 760.26 Q102.705 760.26 99.6261 757.575 Q96.5706 754.889 96.5706 749.866 Q96.5706 746.556 98.4687 744.265 Q100.367 741.973 103.746 741.186 M102.034 733.802 Q102.034 736.487 103.7 737.991 Q105.39 739.496 108.422 739.496 Q111.432 739.496 113.121 737.991 Q114.834 736.487 114.834 733.802 Q114.834 731.116 113.121 729.612 Q111.432 728.107 108.422 728.107 Q105.39 728.107 103.7 729.612 Q102.034 731.116 102.034 733.802 Z" fill="#000000" fill-rule="nonzero" fill-opacity="1" /><path clip-path="url(#clip200)" d="M63.2837 400.941 Q59.6726 400.941 57.8439 404.506 Q56.0384 408.048 56.0384 415.177 Q56.0384 422.284 57.8439 425.848 Q59.6726 429.39 63.2837 429.39 Q66.918 429.39 68.7235 425.848 Q70.5522 422.284 70.5522 415.177 Q70.5522 408.048 68.7235 404.506 Q66.918 400.941 63.2837 400.941 M63.2837 397.237 Q69.0939 397.237 72.1494 401.844 Q75.2281 406.427 75.2281 415.177 Q75.2281 423.904 72.1494 428.51 Q69.0939 433.094 63.2837 433.094 Q57.4736 433.094 54.3949 428.51 Q51.3393 423.904 51.3393 415.177 Q51.3393 406.427 54.3949 401.844 Q57.4736 397.237 63.2837 397.237 Z" fill="#000000" fill-rule="nonzero" fill-opacity="1" /><path clip-path="url(#clip200)" d="M83.4457 426.543 L88.3299 426.543 L88.3299 432.422 L83.4457 432.422 L83.4457 426.543 Z" fill="#000000" fill-rule="nonzero" fill-opacity="1" /><path clip-path="url(#clip200)" d="M98.6539 431.705 L98.6539 427.446 Q100.413 428.279 102.219 428.719 Q104.024 429.159 105.76 429.159 Q110.39 429.159 112.82 426.057 Q115.274 422.932 115.621 416.589 Q114.279 418.58 112.219 419.645 Q110.158 420.71 107.658 420.71 Q102.473 420.71 99.4409 417.585 Q96.4317 414.436 96.4317 408.997 Q96.4317 403.673 99.5798 400.455 Q102.728 397.237 107.959 397.237 Q113.955 397.237 117.103 401.844 Q120.274 406.427 120.274 415.177 Q120.274 423.348 116.385 428.233 Q112.52 433.094 105.969 433.094 Q104.209 433.094 102.404 432.746 Q100.598 432.399 98.6539 431.705 M107.959 417.052 Q111.108 417.052 112.936 414.899 Q114.788 412.747 114.788 408.997 Q114.788 405.27 112.936 403.117 Q111.108 400.941 107.959 400.941 Q104.811 400.941 102.959 403.117 Q101.131 405.27 101.131 408.997 Q101.131 412.747 102.959 414.899 Q104.811 417.052 107.959 417.052 Z" fill="#000000" fill-rule="nonzero" fill-opacity="1" /><path clip-path="url(#clip200)" d="M53.9088 101.321 L61.5476 101.321 L61.5476 74.9555 L53.2375 76.6222 L53.2375 72.3629 L61.5013 70.6963 L66.1772 70.6963 L66.1772 101.321 L73.8161 101.321 L73.8161 105.256 L53.9088 105.256 L53.9088 101.321 Z" fill="#000000" fill-rule="nonzero" fill-opacity="1" /><path clip-path="url(#clip200)" d="M83.2605 99.3767 L88.1447 99.3767 L88.1447 105.256 L83.2605 105.256 L83.2605 99.3767 Z" fill="#000000" fill-rule="nonzero" fill-opacity="1" /><path clip-path="url(#clip200)" d="M108.33 73.775 Q104.719 73.775 102.89 77.3398 Q101.084 80.8814 101.084 88.011 Q101.084 95.1174 102.89 98.6822 Q104.719 102.224 108.33 102.224 Q111.964 102.224 113.77 98.6822 Q115.598 95.1174 115.598 88.011 Q115.598 80.8814 113.77 77.3398 Q111.964 73.775 108.33 73.775 M108.33 70.0713 Q114.14 70.0713 117.195 74.6777 Q120.274 79.261 120.274 88.011 Q120.274 96.7378 117.195 101.344 Q114.14 105.928 108.33 105.928 Q102.52 105.928 99.4409 101.344 Q96.3854 96.7378 96.3854 88.011 Q96.3854 79.261 99.4409 74.6777 Q102.52 70.0713 108.33 70.0713 Z" fill="#000000" fill-rule="nonzero" fill-opacity="1" /><polyline clip-path="url(#clip202)" style="stroke:#009af9; stroke-linecap:round; stroke-linejoin:round; stroke-width:4; stroke-opacity:1; fill:none" points="218.439,1429.36 220.513,1445.72 222.587,1331.21 224.661,1183.98 226.736,1314.85 228.81,1331.21 230.884,1134.91 232.958,1249.42 235.033,1216.7 237.107,1020.4 239.181,1036.76 241.255,1004.04 243.329,1053.12 245.404,954.967 247.478,775.025 249.552,856.817 251.626,807.742 253.701,791.383 255.775,873.175 257.849,742.309 259.923,889.533 261.998,693.234 264.072,693.234 266.146,644.159 268.22,546.009 270.294,546.009 272.369,513.292 274.443,431.501 276.517,546.009 278.591,709.592 280.666,546.009 282.74,415.142 284.814,447.859 286.888,578.725 288.962,447.859 291.037,267.918 293.111,431.501 295.185,382.426 297.259,316.993 299.334,366.067 301.408,333.351 303.482,251.559 305.556,349.709 307.63,251.559 309.705,333.351 311.779,300.634 313.853,349.709 315.927,300.634 318.002,382.426 320.076,267.918 322.15,251.559 324.224,267.918 326.299,349.709 328.373,316.993 330.447,316.993 332.521,300.634 334.595,382.426 336.67,382.426 338.744,202.484 340.818,235.201 342.892,218.843 344.967,218.843 347.041,235.201 349.115,251.559 351.189,251.559 353.263,284.276 355.338,316.993 357.412,300.634 359.486,186.126 361.56,300.634 363.635,235.201 365.709,186.126 367.783,202.484 369.857,218.843 371.932,186.126 374.006,235.201 376.08,235.201 378.154,169.768 380.228,186.126 382.303,202.484 384.377,218.843 386.451,153.41 388.525,137.051 390.6,251.559 392.674,235.201 394.748,267.918 396.822,120.693 398.896,235.201 400.971,169.768 403.045,251.559 405.119,169.768 407.193,202.484 409.268,104.335 411.342,169.768 413.416,218.843 415.49,235.201 417.565,333.351 419.639,218.843 421.713,186.126 423.787,186.126 425.861,218.843 427.936,202.484 430.01,169.768 432.084,186.126 434.158,169.768 436.233,186.126 438.307,186.126 440.381,202.484 442.455,169.768 444.529,104.335 446.604,169.768 448.678,153.41 450.752,218.843 452.826,202.484 454.901,218.843 456.975,202.484 459.049,153.41 461.123,153.41 463.198,120.693 465.272,169.768 467.346,186.126 469.42,169.768 471.494,218.843 473.569,153.41 475.643,120.693 477.717,218.843 479.791,153.41 481.866,186.126 483.94,153.41 486.014,235.201 488.088,186.126 490.162,186.126 492.237,87.9763 494.311,137.051 496.385,186.126 498.459,169.768 500.534,137.051 502.608,169.768 504.682,137.051 506.756,137.051 508.83,186.126 510.905,137.051 512.979,120.693 515.053,153.41 517.127,104.335 519.202,202.484 521.276,137.051 523.35,120.693 525.424,218.843 527.499,169.768 529.573,186.126 531.647,169.768 533.721,137.051 535.795,186.126 537.87,169.768 539.944,202.484 542.018,202.484 544.092,169.768 546.167,169.768 548.241,137.051 550.315,202.484 552.389,120.693 554.463,137.051 556.538,137.051 558.612,137.051 560.686,153.41 562.76,120.693 564.835,186.126 566.909,104.335 568.983,120.693 571.057,137.051 573.132,169.768 575.206,153.41 577.28,153.41 579.354,186.126 581.428,153.41 583.503,120.693 585.577,218.843 587.651,153.41 589.725,120.693 591.8,137.051 593.874,120.693 595.948,104.335 598.022,104.335 600.096,137.051 602.171,169.768 604.245,153.41 606.319,120.693 608.393,169.768 610.468,120.693 612.542,120.693 614.616,137.051 616.69,120.693 618.765,120.693 620.839,87.9763 622.913,153.41 624.987,87.9763 627.061,153.41 629.136,169.768 631.21,120.693 633.284,186.126 635.358,186.126 637.433,137.051 639.507,120.693 641.581,120.693 643.655,202.484 645.729,104.335 647.804,186.126 649.878,120.693 651.952,137.051 654.026,137.051 656.101,120.693 658.175,153.41 660.249,104.335 662.323,120.693 664.398,120.693 666.472,120.693 668.546,137.051 670.62,120.693 672.694,153.41 674.769,104.335 676.843,120.693 678.917,186.126 680.991,153.41 683.066,137.051 685.14,87.9763 687.214,169.768 689.288,153.41 691.362,169.768 693.437,87.9763 695.511,104.335 697.585,104.335 699.659,153.41 701.734,104.335 703.808,120.693 705.882,104.335 707.956,104.335 710.03,104.335 712.105,87.9763 714.179,104.335 716.253,153.41 718.327,104.335 720.402,120.693 722.476,169.768 724.55,137.051 726.624,87.9763 728.699,137.051 730.773,153.41 732.847,153.41 734.921,137.051 736.995,104.335 739.07,153.41 741.144,120.693 743.218,137.051 745.292,120.693 747.367,120.693 749.441,137.051 751.515,120.693 753.589,137.051 755.663,137.051 757.738,104.335 759.812,137.051 761.886,120.693 763.96,104.335 766.035,104.335 768.109,120.693 770.183,120.693 772.257,104.335 774.332,120.693 776.406,186.126 778.48,120.693 780.554,120.693 782.628,137.051 784.703,87.9763 786.777,120.693 788.851,153.41 790.925,137.051 793,137.051 795.074,120.693 797.148,104.335 799.222,137.051 801.296,169.768 803.371,87.9763 805.445,153.41 807.519,137.051 809.593,169.768 811.668,104.335 813.742,120.693 815.816,153.41 817.89,104.335 819.965,137.051 822.039,104.335 824.113,137.051 826.187,104.335 828.261,153.41 830.336,137.051 832.41,104.335 834.484,104.335 836.558,137.051 838.633,120.693 840.707,137.051 842.781,120.693 844.855,120.693 846.929,104.335 849.004,153.41 851.078,120.693 853.152,153.41 855.226,137.051 857.301,153.41 859.375,153.41 861.449,137.051 863.523,120.693 865.598,153.41 867.672,104.335 869.746,137.051 871.82,120.693 873.894,137.051 875.969,137.051 878.043,137.051 880.117,87.9763 882.191,169.768 884.266,87.9763 886.34,137.051 888.414,87.9763 890.488,153.41 892.562,120.693 894.637,137.051 896.711,137.051 898.785,120.693 900.859,104.335 902.934,120.693 905.008,87.9763 907.082,169.768 909.156,169.768 911.23,104.335 913.305,153.41 915.379,104.335 917.453,137.051 919.527,137.051 921.602,120.693 923.676,137.051 925.75,137.051 927.824,153.41 929.899,120.693 931.973,153.41 934.047,120.693 936.121,153.41 938.195,104.335 940.27,104.335 942.344,137.051 944.418,120.693 946.492,120.693 948.567,120.693 950.641,169.768 952.715,104.335 954.789,104.335 956.863,153.41 958.938,120.693 961.012,137.051 963.086,137.051 965.16,202.484 967.235,137.051 969.309,120.693 971.383,153.41 973.457,153.41 975.532,104.335 977.606,120.693 979.68,120.693 981.754,87.9763 983.828,87.9763 985.903,137.051 987.977,120.693 990.051,120.693 992.125,169.768 994.2,169.768 996.274,120.693 998.348,120.693 1000.42,137.051 1002.5,137.051 1004.57,137.051 1006.64,87.9763 1008.72,137.051 1010.79,104.335 1012.87,104.335 1014.94,120.693 1017.02,87.9763 1019.09,153.41 1021.16,120.693 1023.24,120.693 1025.31,120.693 1027.39,104.335 1029.46,120.693 1031.54,104.335 1033.61,120.693 1035.68,169.768 1037.76,87.9763 1039.83,169.768 1041.91,153.41 1043.98,137.051 1046.06,186.126 1048.13,104.335 1050.2,120.693 1052.28,120.693 1054.35,120.693 1056.43,137.051 1058.5,137.051 1060.57,186.126 1062.65,137.051 1064.72,120.693 1066.8,137.051 1068.87,87.9763 1070.95,87.9763 1073.02,169.768 1075.09,104.335 1077.17,104.335 1079.24,104.335 1081.32,104.335 1083.39,87.9763 1085.47,120.693 1087.54,104.335 1089.61,137.051 1091.69,169.768 1093.76,169.768 1095.84,87.9763 1097.91,104.335 1099.99,87.9763 1102.06,120.693 1104.13,87.9763 1106.21,137.051 1108.28,87.9763 1110.36,104.335 1112.43,87.9763 1114.5,120.693 1116.58,153.41 1118.65,104.335 1120.73,120.693 1122.8,120.693 1124.88,120.693 1126.95,186.126 1129.02,120.693 1131.1,120.693 1133.17,120.693 1135.25,87.9763 1137.32,169.768 1139.4,104.335 1141.47,137.051 1143.54,104.335 1145.62,120.693 1147.69,87.9763 1149.77,104.335 1151.84,137.051 1153.92,169.768 1155.99,120.693 1158.06,169.768 1160.14,186.126 1162.21,137.051 1164.29,104.335 1166.36,169.768 1168.43,137.051 1170.51,169.768 1172.58,104.335 1174.66,104.335 1176.73,120.693 1178.81,153.41 1180.88,120.693 1182.95,87.9763 1185.03,137.051 1187.1,137.051 1189.18,137.051 1191.25,120.693 1193.33,120.693 1195.4,120.693 1197.47,120.693 1199.55,153.41 1201.62,104.335 1203.7,153.41 1205.77,186.126 1207.84,153.41 1209.92,120.693 1211.99,137.051 1214.07,137.051 1216.14,120.693 1218.22,137.051 1220.29,120.693 1222.36,137.051 1224.44,137.051 1226.51,137.051 1228.59,137.051 1230.66,120.693 1232.74,153.41 1234.81,137.051 1236.88,137.051 1238.96,137.051 1241.03,137.051 1243.11,169.768 1245.18,153.41 1247.26,87.9763 1249.33,137.051 1251.4,186.126 1253.48,104.335 1255.55,169.768 1257.63,169.768 1259.7,137.051 1261.77,153.41 1263.85,120.693 1265.92,104.335 1268,153.41 1270.07,169.768 1272.15,137.051 1274.22,137.051 1276.29,169.768 1278.37,120.693 1280.44,120.693 1282.52,137.051 1284.59,120.693 1286.67,153.41 1288.74,137.051 1290.81,186.126 1292.89,169.768 1294.96,153.41 1297.04,137.051 1299.11,137.051 1301.19,120.693 1303.26,169.768 1305.33,186.126 1307.41,87.9763 1309.48,137.051 1311.56,186.126 1313.63,120.693 1315.7,153.41 1317.78,169.768 1319.85,137.051 1321.93,120.693 1324,137.051 1326.08,87.9763 1328.15,120.693 1330.22,153.41 1332.3,120.693 1334.37,120.693 1336.45,137.051 1338.52,137.051 1340.6,218.843 1342.67,120.693 1344.74,87.9763 1346.82,169.768 1348.89,218.843 1350.97,169.768 1353.04,137.051 1355.12,104.335 1357.19,120.693 1359.26,120.693 1361.34,120.693 1363.41,186.126 1365.49,137.051 1367.56,120.693 1369.63,153.41 1371.71,137.051 1373.78,169.768 1375.86,153.41 1377.93,120.693 1380.01,202.484 1382.08,137.051 1384.15,153.41 1386.23,137.051 1388.3,218.843 1390.38,137.051 1392.45,137.051 1394.53,186.126 1396.6,120.693 1398.67,251.559 1400.75,169.768 1402.82,169.768 1404.9,186.126 1406.97,153.41 1409.04,153.41 1411.12,120.693 1413.19,153.41 1415.27,186.126 1417.34,169.768 1419.42,137.051 1421.49,186.126 1423.56,120.693 1425.64,153.41 1427.71,202.484 1429.79,251.559 1431.86,202.484 1433.94,267.918 1436.01,186.126 1438.08,169.768 1440.16,120.693 1442.23,202.484 1444.31,218.843 1446.38,316.993 1448.46,186.126 1450.53,267.918 1452.6,153.41 1454.68,169.768 1456.75,186.126 1458.83,202.484 1460.9,202.484 1462.97,169.768 1465.05,218.843 1467.12,186.126 1469.2,218.843 1471.27,202.484 1473.35,186.126 1475.42,169.768 1477.49,137.051 1479.57,186.126 1481.64,235.201 1483.72,251.559 1485.79,251.559 1487.87,251.559 1489.94,300.634 1492.01,251.559 1494.09,284.276 1496.16,218.843 1498.24,366.067 1500.31,218.843 1502.39,235.201 1504.46,316.993 1506.53,284.276 1508.61,267.918 1510.68,267.918 1512.76,267.918 1514.83,202.484 1516.9,251.559 1518.98,267.918 1521.05,300.634 1523.13,398.784 1525.2,349.709 1527.28,284.276 1529.35,235.201 1531.42,235.201 1533.5,366.067 1535.57,546.009 1537.65,431.501 1539.72,398.784 1541.8,398.784 1543.87,447.859 1545.94,447.859 1548.02,366.067 1550.09,480.576 1552.17,366.067 1554.24,398.784 1556.32,366.067 1558.39,415.142 1560.46,513.292 1562.54,480.576 1564.61,562.367 1566.69,447.859 1568.76,562.367 1570.83,546.009 1572.91,529.651 1574.98,496.934 1577.06,595.084 1579.13,578.725 1581.21,447.859 1583.28,627.8 1585.35,480.576 1587.43,644.159 1589.5,676.875 1591.58,627.8 1593.65,627.8 1595.73,562.367 1597.8,480.576 1599.87,415.142 1601.95,595.084 1604.02,611.442 1606.1,725.95 1608.17,627.8 1610.24,627.8 1612.32,644.159 1614.39,676.875 1616.47,742.309 1618.54,824.1 1620.62,725.95 1622.69,775.025 1624.76,905.892 1626.84,709.592 1628.91,709.592 1630.99,693.234 1633.06,693.234 1635.14,742.309 1637.21,644.159 1639.28,709.592 1641.36,709.592 1643.43,693.234 1645.51,807.742 1647.58,791.383 1649.66,824.1 1651.73,709.592 1653.8,807.742 1655.88,693.234 1657.95,758.667 1660.03,791.383 1662.1,627.8 1664.17,807.742 1666.25,758.667 1668.32,742.309 1670.4,758.667 1672.47,546.009 1674.55,775.025 1676.62,791.383 1678.69,693.234 1680.77,758.667 1682.84,660.517 1684.92,775.025 1686.99,627.8 1689.07,595.084 1691.14,595.084 1693.21,595.084 1695.29,824.1 1697.36,824.1 1699.44,676.875 1701.51,856.817 1703.59,791.383 1705.66,824.1 1707.73,775.025 1709.81,676.875 1711.88,807.742 1713.96,709.592 1716.03,644.159 1718.1,807.742 1720.18,758.667 1722.25,693.234 1724.33,693.234 1726.4,660.517 1728.48,742.309 1730.55,644.159 1732.62,546.009 1734.7,676.875 1736.77,676.875 1738.85,578.725 1740.92,627.8 1743,546.009 1745.07,709.592 1747.14,627.8 1749.22,627.8 1751.29,513.292 1753.37,447.859 1755.44,611.442 1757.52,562.367 1759.59,611.442 1761.66,529.651 1763.74,562.367 1765.81,562.367 1767.89,529.651 1769.96,578.725 1772.03,627.8 1774.11,562.367 1776.18,660.517 1778.26,562.367 1780.33,546.009 1782.41,611.442 1784.48,611.442 1786.55,611.442 1788.63,513.292 1790.7,595.084 1792.78,415.142 1794.85,546.009 1796.93,529.651 1799,644.159 1801.07,333.351 1803.15,562.367 1805.22,595.084 1807.3,578.725 1809.37,627.8 1811.44,496.934 1813.52,546.009 1815.59,480.576 1817.67,529.651 1819.74,546.009 1821.82,627.8 1823.89,529.651 1825.96,562.367 1828.04,496.934 1830.11,578.725 1832.19,709.592 1834.26,513.292 1836.34,529.651 1838.41,676.875 1840.48,480.576 1842.56,627.8 1844.63,480.576 1846.71,546.009 1848.78,595.084 1850.86,546.009 1852.93,431.501 1855,333.351 1857.08,546.009 1859.15,627.8 1861.23,725.95 1863.3,546.009 1865.37,496.934 1867.45,644.159 1869.52,595.084 1871.6,562.367 1873.67,578.725 1875.75,529.651 1877.82,366.067 1879.89,644.159 1881.97,496.934 1884.04,349.709 1886.12,513.292 1888.19,398.784 1890.27,464.217 1892.34,366.067 1894.41,251.559 1896.49,349.709 1898.56,513.292 1900.64,333.351 1902.71,447.859 1904.79,447.859 1906.86,382.426 1908.93,447.859 1911.01,513.292 1913.08,513.292 1915.16,447.859 1917.23,480.576 1919.3,480.576 1921.38,546.009 1923.45,382.426 1925.53,546.009 1927.6,464.217 1929.68,464.217 1931.75,529.651 1933.82,333.351 1935.9,431.501 1937.97,382.426 1940.05,382.426 1942.12,431.501 1944.2,529.651 1946.27,415.142 1948.34,529.651 1950.42,349.709 1952.49,382.426 1954.57,218.843 1956.64,316.993 1958.72,464.217 1960.79,267.918 1962.86,496.934 1964.94,562.367 1967.01,366.067 1969.09,349.709 1971.16,562.367 1973.23,366.067 1975.31,382.426 1977.38,366.067 1979.46,349.709 1981.53,398.784 1983.61,431.501 1985.68,382.426 1987.75,366.067 1989.83,398.784 1991.9,398.784 1993.98,398.784 1996.05,366.067 1998.13,415.142 2000.2,284.276 2002.27,300.634 2004.35,284.276 2006.42,300.634 2008.5,316.993 2010.57,267.918 2012.64,284.276 2014.72,284.276 2016.79,284.276 2018.87,349.709 2020.94,382.426 2023.02,415.142 2025.09,316.993 2027.16,300.634 2029.24,300.634 2031.31,235.201 2033.39,251.559 2035.46,284.276 2037.54,349.709 2039.61,267.918 2041.68,169.768 2043.76,333.351 2045.83,251.559 2047.91,333.351 2049.98,218.843 2052.06,284.276 2054.13,202.484 2056.2,316.993 2058.28,267.918 2060.35,251.559 2062.43,235.201 2064.5,300.634 2066.57,235.201 2068.65,333.351 2070.72,186.126 2072.8,153.41 2074.87,316.993 2076.95,284.276 2079.02,284.276 2081.09,235.201 2083.17,333.351 2085.24,218.843 2087.32,251.559 2089.39,186.126 2091.47,251.559 2093.54,235.201 2095.61,235.201 2097.69,349.709 2099.76,251.559 2101.84,267.918 2103.91,202.484 2105.99,316.993 2108.06,153.41 2110.13,284.276 2112.21,251.559 2114.28,169.768 2116.36,186.126 2118.43,218.843 2120.5,218.843 2122.58,202.484 2124.65,251.559 2126.73,218.843 2128.8,202.484 2130.88,300.634 2132.95,267.918 2135.02,202.484 2137.1,186.126 2139.17,235.201 2141.25,218.843 2143.32,218.843 2145.4,169.768 2147.47,251.559 2149.54,267.918 2151.62,186.126 2153.69,120.693 2155.77,186.126 2157.84,251.559 2159.92,202.484 2161.99,218.843 2164.06,218.843 2166.14,300.634 2168.21,169.768 2170.29,104.335 2172.36,218.843 2174.43,186.126 2176.51,202.484 2178.58,202.484 2180.66,186.126 2182.73,202.484 2184.81,186.126 2186.88,169.768 2188.95,218.843 2191.03,202.484 2193.1,186.126 2195.18,186.126 2197.25,251.559 2199.33,202.484 2201.4,169.768 2203.47,186.126 2205.55,202.484 2207.62,202.484 2209.7,218.843 2211.77,235.201 2213.84,218.843 2215.92,202.484 2217.99,235.201 2220.07,186.126 2222.14,186.126 2224.22,186.126 2226.29,153.41 2228.36,186.126 2230.44,218.843 2232.51,218.843 2234.59,153.41 2236.66,137.051 2238.74,186.126 2240.81,235.201 2242.88,169.768 2244.96,235.201 2247.03,235.201 2249.11,120.693 2251.18,202.484 2253.26,169.768 2255.33,186.126 2257.4,153.41 2259.48,153.41 2261.55,137.051 2263.63,300.634 2265.7,137.051 2267.77,153.41 2269.85,284.276 2271.92,169.768 2274,169.768 2276.07,153.41 2278.15,235.201 2280.22,218.843 2282.29,251.559 2284.37,186.126 2286.44,186.126 2288.52,186.126 2290.59,153.41 "/>
<path clip-path="url(#clip200)" d="M2007.46 1438.47 L2279.54 1438.47 L2279.54 1334.79 L2007.46 1334.79  Z" fill="#ffffff" fill-rule="evenodd" fill-opacity="1"/>
<polyline clip-path="url(#clip200)" style="stroke:#000000; stroke-linecap:round; stroke-linejoin:round; stroke-width:4; stroke-opacity:1; fill:none" points="2007.46,1438.47 2279.54,1438.47 2279.54,1334.79 2007.46,1334.79 2007.46,1438.47 "/>
<polyline clip-path="url(#clip200)" style="stroke:#009af9; stroke-linecap:round; stroke-linejoin:round; stroke-width:4; stroke-opacity:1; fill:none" points="2031.87,1386.63 2178.3,1386.63 "/>
<path clip-path="url(#clip200)" d="M2216.55 1406.32 Q2214.74 1410.95 2213.03 1412.36 Q2211.32 1413.78 2208.44 1413.78 L2205.04 1413.78 L2205.04 1410.21 L2207.54 1410.21 Q2209.3 1410.21 2210.27 1409.38 Q2211.25 1408.54 2212.43 1405.44 L2213.19 1403.5 L2202.7 1377.99 L2207.22 1377.99 L2215.32 1398.27 L2223.42 1377.99 L2227.94 1377.99 L2216.55 1406.32 Z" fill="#000000" fill-rule="nonzero" fill-opacity="1" /><path clip-path="url(#clip200)" d="M2235.23 1399.98 L2242.87 1399.98 L2242.87 1373.61 L2234.56 1375.28 L2234.56 1371.02 L2242.82 1369.35 L2247.5 1369.35 L2247.5 1399.98 L2255.13 1399.98 L2255.13 1403.91 L2235.23 1403.91 L2235.23 1399.98 Z" fill="#000000" fill-rule="nonzero" fill-opacity="1" /></svg>
