<?xml version="1.0" encoding="utf-8"?>
<svg xmlns="http://www.w3.org/2000/svg" xmlns:xlink="http://www.w3.org/1999/xlink" width="600" height="400" viewBox="0 0 2400 1600">
<defs>
  <clipPath id="clip010">
    <rect x="0" y="0" width="2400" height="1600"/>
  </clipPath>
</defs>
<path clip-path="url(#clip010)" d="M0 1600 L2400 1600 L2400 0 L0 0  Z" fill="#ffffff" fill-rule="evenodd" fill-opacity="1"/>
<defs>
  <clipPath id="clip011">
    <rect x="480" y="0" width="1681" height="1600"/>
  </clipPath>
</defs>
<path clip-path="url(#clip010)" d="M140.696 1486.45 L2352.76 1486.45 L2352.76 47.2441 L140.696 47.2441  Z" fill="#ffffff" fill-rule="evenodd" fill-opacity="1"/>
<defs>
  <clipPath id="clip012">
    <rect x="140" y="47" width="2213" height="1440"/>
  </clipPath>
</defs>
<polyline clip-path="url(#clip012)" style="stroke:#000000; stroke-linecap:round; stroke-linejoin:round; stroke-width:2; stroke-opacity:0.1; fill:none" points="203.301,1486.45 203.301,47.2441 "/>
<polyline clip-path="url(#clip012)" style="stroke:#000000; stroke-linecap:round; stroke-linejoin:round; stroke-width:2; stroke-opacity:0.1; fill:none" points="725.013,1486.45 725.013,47.2441 "/>
<polyline clip-path="url(#clip012)" style="stroke:#000000; stroke-linecap:round; stroke-linejoin:round; stroke-width:2; stroke-opacity:0.1; fill:none" points="1246.73,1486.45 1246.73,47.2441 "/>
<polyline clip-path="url(#clip012)" style="stroke:#000000; stroke-linecap:round; stroke-linejoin:round; stroke-width:2; stroke-opacity:0.1; fill:none" points="1768.44,1486.45 1768.44,47.2441 "/>
<polyline clip-path="url(#clip012)" style="stroke:#000000; stroke-linecap:round; stroke-linejoin:round; stroke-width:2; stroke-opacity:0.1; fill:none" points="2290.15,1486.45 2290.15,47.2441 "/>
<polyline clip-path="url(#clip010)" style="stroke:#000000; stroke-linecap:round; stroke-linejoin:round; stroke-width:4; stroke-opacity:1; fill:none" points="140.696,1486.45 2352.76,1486.45 "/>
<polyline clip-path="url(#clip010)" style="stroke:#000000; stroke-linecap:round; stroke-linejoin:round; stroke-width:4; stroke-opacity:1; fill:none" points="203.301,1486.45 203.301,1467.55 "/>
<polyline clip-path="url(#clip010)" style="stroke:#000000; stroke-linecap:round; stroke-linejoin:round; stroke-width:4; stroke-opacity:1; fill:none" points="725.013,1486.45 725.013,1467.55 "/>
<polyline clip-path="url(#clip010)" style="stroke:#000000; stroke-linecap:round; stroke-linejoin:round; stroke-width:4; stroke-opacity:1; fill:none" points="1246.73,1486.45 1246.73,1467.55 "/>
<polyline clip-path="url(#clip010)" style="stroke:#000000; stroke-linecap:round; stroke-linejoin:round; stroke-width:4; stroke-opacity:1; fill:none" points="1768.44,1486.45 1768.44,1467.55 "/>
<polyline clip-path="url(#clip010)" style="stroke:#000000; stroke-linecap:round; stroke-linejoin:round; stroke-width:4; stroke-opacity:1; fill:none" points="2290.15,1486.45 2290.15,1467.55 "/>
<path clip-path="url(#clip010)" d="M203.301 1517.37 Q199.69 1517.37 197.861 1520.93 Q196.056 1524.47 196.056 1531.6 Q196.056 1538.71 197.861 1542.27 Q199.69 1545.82 203.301 1545.82 Q206.935 1545.82 208.741 1542.27 Q210.57 1538.71 210.57 1531.6 Q210.57 1524.47 208.741 1520.93 Q206.935 1517.37 203.301 1517.37 M203.301 1513.66 Q209.111 1513.66 212.167 1518.27 Q215.245 1522.85 215.245 1531.6 Q215.245 1540.33 212.167 1544.94 Q209.111 1549.52 203.301 1549.52 Q197.491 1549.52 194.412 1544.94 Q191.357 1540.33 191.357 1531.6 Q191.357 1522.85 194.412 1518.27 Q197.491 1513.66 203.301 1513.66 Z" fill="#000000" fill-rule="nonzero" fill-opacity="1" /><path clip-path="url(#clip010)" d="M684.632 1514.29 L702.988 1514.29 L702.988 1518.22 L688.914 1518.22 L688.914 1526.7 Q689.933 1526.35 690.951 1526.19 Q691.97 1526 692.988 1526 Q698.775 1526 702.155 1529.17 Q705.534 1532.34 705.534 1537.76 Q705.534 1543.34 702.062 1546.44 Q698.59 1549.52 692.27 1549.52 Q690.095 1549.52 687.826 1549.15 Q685.581 1548.78 683.173 1548.04 L683.173 1543.34 Q685.257 1544.47 687.479 1545.03 Q689.701 1545.58 692.178 1545.58 Q696.183 1545.58 698.52 1543.48 Q700.858 1541.37 700.858 1537.76 Q700.858 1534.15 698.52 1532.04 Q696.183 1529.94 692.178 1529.94 Q690.303 1529.94 688.428 1530.35 Q686.576 1530.77 684.632 1531.65 L684.632 1514.29 Z" fill="#000000" fill-rule="nonzero" fill-opacity="1" /><path clip-path="url(#clip010)" d="M724.747 1517.37 Q721.136 1517.37 719.307 1520.93 Q717.502 1524.47 717.502 1531.6 Q717.502 1538.71 719.307 1542.27 Q721.136 1545.82 724.747 1545.82 Q728.381 1545.82 730.187 1542.27 Q732.016 1538.71 732.016 1531.6 Q732.016 1524.47 730.187 1520.93 Q728.381 1517.37 724.747 1517.37 M724.747 1513.66 Q730.557 1513.66 733.613 1518.27 Q736.692 1522.85 736.692 1531.6 Q736.692 1540.33 733.613 1544.94 Q730.557 1549.52 724.747 1549.52 Q718.937 1549.52 715.858 1544.94 Q712.803 1540.33 712.803 1531.6 Q712.803 1522.85 715.858 1518.27 Q718.937 1513.66 724.747 1513.66 Z" fill="#000000" fill-rule="nonzero" fill-opacity="1" /><path clip-path="url(#clip010)" d="M754.909 1517.37 Q751.298 1517.37 749.469 1520.93 Q747.664 1524.47 747.664 1531.6 Q747.664 1538.71 749.469 1542.27 Q751.298 1545.82 754.909 1545.82 Q758.543 1545.82 760.349 1542.27 Q762.178 1538.71 762.178 1531.6 Q762.178 1524.47 760.349 1520.93 Q758.543 1517.37 754.909 1517.37 M754.909 1513.66 Q760.719 1513.66 763.775 1518.27 Q766.853 1522.85 766.853 1531.6 Q766.853 1540.33 763.775 1544.94 Q760.719 1549.52 754.909 1549.52 Q749.099 1549.52 746.02 1544.94 Q742.965 1540.33 742.965 1531.6 Q742.965 1522.85 746.02 1518.27 Q749.099 1513.66 754.909 1513.66 Z" fill="#000000" fill-rule="nonzero" fill-opacity="1" /><path clip-path="url(#clip010)" d="M1191.25 1544.91 L1198.89 1544.91 L1198.89 1518.55 L1190.58 1520.21 L1190.58 1515.95 L1198.84 1514.29 L1203.52 1514.29 L1203.52 1544.91 L1211.16 1544.91 L1211.16 1548.85 L1191.25 1548.85 L1191.25 1544.91 Z" fill="#000000" fill-rule="nonzero" fill-opacity="1" /><path clip-path="url(#clip010)" d="M1230.6 1517.37 Q1226.99 1517.37 1225.16 1520.93 Q1223.36 1524.47 1223.36 1531.6 Q1223.36 1538.71 1225.16 1542.27 Q1226.99 1545.82 1230.6 1545.82 Q1234.24 1545.82 1236.04 1542.27 Q1237.87 1538.71 1237.87 1531.6 Q1237.87 1524.47 1236.04 1520.93 Q1234.24 1517.37 1230.6 1517.37 M1230.6 1513.66 Q1236.41 1513.66 1239.47 1518.27 Q1242.55 1522.85 1242.55 1531.6 Q1242.55 1540.33 1239.47 1544.94 Q1236.41 1549.52 1230.6 1549.52 Q1224.79 1549.52 1221.71 1544.94 Q1218.66 1540.33 1218.66 1531.6 Q1218.66 1522.85 1221.71 1518.27 Q1224.79 1513.66 1230.6 1513.66 Z" fill="#000000" fill-rule="nonzero" fill-opacity="1" /><path clip-path="url(#clip010)" d="M1260.77 1517.37 Q1257.15 1517.37 1255.33 1520.93 Q1253.52 1524.47 1253.52 1531.6 Q1253.52 1538.71 1255.33 1542.27 Q1257.15 1545.82 1260.77 1545.82 Q1264.4 1545.82 1266.2 1542.27 Q1268.03 1538.71 1268.03 1531.6 Q1268.03 1524.47 1266.2 1520.93 Q1264.4 1517.37 1260.77 1517.37 M1260.77 1513.66 Q1266.58 1513.66 1269.63 1518.27 Q1272.71 1522.85 1272.71 1531.6 Q1272.71 1540.33 1269.63 1544.94 Q1266.58 1549.52 1260.77 1549.52 Q1254.95 1549.52 1251.88 1544.94 Q1248.82 1540.33 1248.82 1531.6 Q1248.82 1522.85 1251.88 1518.27 Q1254.95 1513.66 1260.77 1513.66 Z" fill="#000000" fill-rule="nonzero" fill-opacity="1" /><path clip-path="url(#clip010)" d="M1290.93 1517.37 Q1287.32 1517.37 1285.49 1520.93 Q1283.68 1524.47 1283.68 1531.6 Q1283.68 1538.71 1285.49 1542.27 Q1287.32 1545.82 1290.93 1545.82 Q1294.56 1545.82 1296.37 1542.27 Q1298.2 1538.71 1298.2 1531.6 Q1298.2 1524.47 1296.37 1520.93 Q1294.56 1517.37 1290.93 1517.37 M1290.93 1513.66 Q1296.74 1513.66 1299.79 1518.27 Q1302.87 1522.85 1302.87 1531.6 Q1302.87 1540.33 1299.79 1544.94 Q1296.74 1549.52 1290.93 1549.52 Q1285.12 1549.52 1282.04 1544.94 Q1278.98 1540.33 1278.98 1531.6 Q1278.98 1522.85 1282.04 1518.27 Q1285.12 1513.66 1290.93 1513.66 Z" fill="#000000" fill-rule="nonzero" fill-opacity="1" /><path clip-path="url(#clip010)" d="M1712.96 1544.91 L1720.6 1544.91 L1720.6 1518.55 L1712.29 1520.21 L1712.29 1515.95 L1720.56 1514.29 L1725.23 1514.29 L1725.23 1544.91 L1732.87 1544.91 L1732.87 1548.85 L1712.96 1548.85 L1712.96 1544.91 Z" fill="#000000" fill-rule="nonzero" fill-opacity="1" /><path clip-path="url(#clip010)" d="M1742.36 1514.29 L1760.72 1514.29 L1760.72 1518.22 L1746.64 1518.22 L1746.64 1526.7 Q1747.66 1526.35 1748.68 1526.19 Q1749.7 1526 1750.72 1526 Q1756.51 1526 1759.88 1529.17 Q1763.26 1532.34 1763.26 1537.76 Q1763.26 1543.34 1759.79 1546.44 Q1756.32 1549.52 1750 1549.52 Q1747.82 1549.52 1745.56 1549.15 Q1743.31 1548.78 1740.9 1548.04 L1740.9 1543.34 Q1742.99 1544.47 1745.21 1545.03 Q1747.43 1545.58 1749.91 1545.58 Q1753.91 1545.58 1756.25 1543.48 Q1758.59 1541.37 1758.59 1537.76 Q1758.59 1534.15 1756.25 1532.04 Q1753.91 1529.94 1749.91 1529.94 Q1748.03 1529.94 1746.16 1530.35 Q1744.31 1530.77 1742.36 1531.65 L1742.36 1514.29 Z" fill="#000000" fill-rule="nonzero" fill-opacity="1" /><path clip-path="url(#clip010)" d="M1782.48 1517.37 Q1778.87 1517.37 1777.04 1520.93 Q1775.23 1524.47 1775.23 1531.6 Q1775.23 1538.71 1777.04 1542.27 Q1778.87 1545.82 1782.48 1545.82 Q1786.11 1545.82 1787.92 1542.27 Q1789.75 1538.71 1789.75 1531.6 Q1789.75 1524.47 1787.92 1520.93 Q1786.11 1517.37 1782.48 1517.37 M1782.48 1513.66 Q1788.29 1513.66 1791.34 1518.27 Q1794.42 1522.85 1794.42 1531.6 Q1794.42 1540.33 1791.34 1544.94 Q1788.29 1549.52 1782.48 1549.52 Q1776.67 1549.52 1773.59 1544.94 Q1770.53 1540.33 1770.53 1531.6 Q1770.53 1522.85 1773.59 1518.27 Q1776.67 1513.66 1782.48 1513.66 Z" fill="#000000" fill-rule="nonzero" fill-opacity="1" /><path clip-path="url(#clip010)" d="M1812.64 1517.37 Q1809.03 1517.37 1807.2 1520.93 Q1805.39 1524.47 1805.39 1531.6 Q1805.39 1538.71 1807.2 1542.27 Q1809.03 1545.82 1812.64 1545.82 Q1816.27 1545.82 1818.08 1542.27 Q1819.91 1538.71 1819.91 1531.6 Q1819.91 1524.47 1818.08 1520.93 Q1816.27 1517.37 1812.64 1517.37 M1812.64 1513.66 Q1818.45 1513.66 1821.5 1518.27 Q1824.58 1522.85 1824.58 1531.6 Q1824.58 1540.33 1821.5 1544.94 Q1818.45 1549.52 1812.64 1549.52 Q1806.83 1549.52 1803.75 1544.94 Q1800.69 1540.33 1800.69 1531.6 Q1800.69 1522.85 1803.75 1518.27 Q1806.83 1513.66 1812.64 1513.66 Z" fill="#000000" fill-rule="nonzero" fill-opacity="1" /><path clip-path="url(#clip010)" d="M2238.76 1544.91 L2255.08 1544.91 L2255.08 1548.85 L2233.14 1548.85 L2233.14 1544.91 Q2235.8 1542.16 2240.38 1537.53 Q2244.99 1532.88 2246.17 1531.53 Q2248.41 1529.01 2249.29 1527.27 Q2250.2 1525.51 2250.2 1523.82 Q2250.2 1521.07 2248.25 1519.33 Q2246.33 1517.6 2243.23 1517.6 Q2241.03 1517.6 2238.58 1518.36 Q2236.15 1519.13 2233.37 1520.68 L2233.37 1515.95 Q2236.19 1514.82 2238.65 1514.24 Q2241.1 1513.66 2243.14 1513.66 Q2248.51 1513.66 2251.7 1516.35 Q2254.9 1519.03 2254.9 1523.52 Q2254.9 1525.65 2254.09 1527.57 Q2253.3 1529.47 2251.19 1532.07 Q2250.61 1532.74 2247.51 1535.95 Q2244.41 1539.15 2238.76 1544.91 Z" fill="#000000" fill-rule="nonzero" fill-opacity="1" /><path clip-path="url(#clip010)" d="M2274.9 1517.37 Q2271.28 1517.37 2269.46 1520.93 Q2267.65 1524.47 2267.65 1531.6 Q2267.65 1538.71 2269.46 1542.27 Q2271.28 1545.82 2274.9 1545.82 Q2278.53 1545.82 2280.34 1542.27 Q2282.16 1538.71 2282.16 1531.6 Q2282.16 1524.47 2280.34 1520.93 Q2278.53 1517.37 2274.9 1517.37 M2274.9 1513.66 Q2280.71 1513.66 2283.76 1518.27 Q2286.84 1522.85 2286.84 1531.6 Q2286.84 1540.33 2283.76 1544.94 Q2280.71 1549.52 2274.9 1549.52 Q2269.09 1549.52 2266.01 1544.94 Q2262.95 1540.33 2262.95 1531.6 Q2262.95 1522.85 2266.01 1518.27 Q2269.09 1513.66 2274.9 1513.66 Z" fill="#000000" fill-rule="nonzero" fill-opacity="1" /><path clip-path="url(#clip010)" d="M2305.06 1517.37 Q2301.45 1517.37 2299.62 1520.93 Q2297.81 1524.47 2297.81 1531.6 Q2297.81 1538.71 2299.62 1542.27 Q2301.45 1545.82 2305.06 1545.82 Q2308.69 1545.82 2310.5 1542.27 Q2312.33 1538.71 2312.33 1531.6 Q2312.33 1524.47 2310.5 1520.93 Q2308.69 1517.37 2305.06 1517.37 M2305.06 1513.66 Q2310.87 1513.66 2313.92 1518.27 Q2317 1522.85 2317 1531.6 Q2317 1540.33 2313.92 1544.94 Q2310.87 1549.52 2305.06 1549.52 Q2299.25 1549.52 2296.17 1544.94 Q2293.11 1540.33 2293.11 1531.6 Q2293.11 1522.85 2296.17 1518.27 Q2299.25 1513.66 2305.06 1513.66 Z" fill="#000000" fill-rule="nonzero" fill-opacity="1" /><path clip-path="url(#clip010)" d="M2335.22 1517.37 Q2331.61 1517.37 2329.78 1520.93 Q2327.97 1524.47 2327.97 1531.6 Q2327.97 1538.71 2329.78 1542.27 Q2331.61 1545.82 2335.22 1545.82 Q2338.85 1545.82 2340.66 1542.27 Q2342.49 1538.71 2342.49 1531.6 Q2342.49 1524.47 2340.66 1520.93 Q2338.85 1517.37 2335.22 1517.37 M2335.22 1513.66 Q2341.03 1513.66 2344.09 1518.27 Q2347.16 1522.85 2347.16 1531.6 Q2347.16 1540.33 2344.09 1544.94 Q2341.03 1549.52 2335.22 1549.52 Q2329.41 1549.52 2326.33 1544.94 Q2323.28 1540.33 2323.28 1531.6 Q2323.28 1522.85 2326.33 1518.27 Q2329.41 1513.66 2335.22 1513.66 Z" fill="#000000" fill-rule="nonzero" fill-opacity="1" /><polyline clip-path="url(#clip012)" style="stroke:#000000; stroke-linecap:round; stroke-linejoin:round; stroke-width:2; stroke-opacity:0.1; fill:none" points="140.696,1235.7 2352.76,1235.7 "/>
<polyline clip-path="url(#clip012)" style="stroke:#000000; stroke-linecap:round; stroke-linejoin:round; stroke-width:2; stroke-opacity:0.1; fill:none" points="140.696,917.345 2352.76,917.345 "/>
<polyline clip-path="url(#clip012)" style="stroke:#000000; stroke-linecap:round; stroke-linejoin:round; stroke-width:2; stroke-opacity:0.1; fill:none" points="140.696,598.994 2352.76,598.994 "/>
<polyline clip-path="url(#clip012)" style="stroke:#000000; stroke-linecap:round; stroke-linejoin:round; stroke-width:2; stroke-opacity:0.1; fill:none" points="140.696,280.642 2352.76,280.642 "/>
<polyline clip-path="url(#clip010)" style="stroke:#000000; stroke-linecap:round; stroke-linejoin:round; stroke-width:4; stroke-opacity:1; fill:none" points="140.696,1486.45 140.696,47.2441 "/>
<polyline clip-path="url(#clip010)" style="stroke:#000000; stroke-linecap:round; stroke-linejoin:round; stroke-width:4; stroke-opacity:1; fill:none" points="140.696,1235.7 159.593,1235.7 "/>
<polyline clip-path="url(#clip010)" style="stroke:#000000; stroke-linecap:round; stroke-linejoin:round; stroke-width:4; stroke-opacity:1; fill:none" points="140.696,917.345 159.593,917.345 "/>
<polyline clip-path="url(#clip010)" style="stroke:#000000; stroke-linecap:round; stroke-linejoin:round; stroke-width:4; stroke-opacity:1; fill:none" points="140.696,598.994 159.593,598.994 "/>
<polyline clip-path="url(#clip010)" style="stroke:#000000; stroke-linecap:round; stroke-linejoin:round; stroke-width:4; stroke-opacity:1; fill:none" points="140.696,280.642 159.593,280.642 "/>
<path clip-path="url(#clip010)" d="M53.3995 1249.04 L61.0384 1249.04 L61.0384 1222.68 L52.7282 1224.34 L52.7282 1220.08 L60.9921 1218.42 L65.668 1218.42 L65.668 1249.04 L73.3068 1249.04 L73.3068 1252.98 L53.3995 1252.98 L53.3995 1249.04 Z" fill="#000000" fill-rule="nonzero" fill-opacity="1" /><path clip-path="url(#clip010)" d="M92.7512 1221.49 Q89.1401 1221.49 87.3114 1225.06 Q85.5058 1228.6 85.5058 1235.73 Q85.5058 1242.84 87.3114 1246.4 Q89.1401 1249.94 92.7512 1249.94 Q96.3854 1249.94 98.1909 1246.4 Q100.02 1242.84 100.02 1235.73 Q100.02 1228.6 98.1909 1225.06 Q96.3854 1221.49 92.7512 1221.49 M92.7512 1217.79 Q98.5613 1217.79 101.617 1222.4 Q104.696 1226.98 104.696 1235.73 Q104.696 1244.46 101.617 1249.06 Q98.5613 1253.65 92.7512 1253.65 Q86.941 1253.65 83.8623 1249.06 Q80.8068 1244.46 80.8068 1235.73 Q80.8068 1226.98 83.8623 1222.4 Q86.941 1217.79 92.7512 1217.79 Z" fill="#000000" fill-rule="nonzero" fill-opacity="1" /><path clip-path="url(#clip010)" d="M54.3949 930.69 L62.0337 930.69 L62.0337 904.324 L53.7236 905.991 L53.7236 901.732 L61.9874 900.065 L66.6633 900.065 L66.6633 930.69 L74.3022 930.69 L74.3022 934.625 L54.3949 934.625 L54.3949 930.69 Z" fill="#000000" fill-rule="nonzero" fill-opacity="1" /><path clip-path="url(#clip010)" d="M83.7929 900.065 L102.149 900.065 L102.149 904 L88.0753 904 L88.0753 912.472 Q89.0938 912.125 90.1123 911.963 Q91.1308 911.778 92.1493 911.778 Q97.9363 911.778 101.316 914.949 Q104.696 918.12 104.696 923.537 Q104.696 929.116 101.223 932.217 Q97.7511 935.296 91.4317 935.296 Q89.2558 935.296 86.9873 934.926 Q84.7419 934.555 82.3346 933.815 L82.3346 929.116 Q84.4179 930.25 86.6401 930.805 Q88.8623 931.361 91.3391 931.361 Q95.3437 931.361 97.6817 929.255 Q100.02 927.148 100.02 923.537 Q100.02 919.926 97.6817 917.819 Q95.3437 915.713 91.3391 915.713 Q89.4641 915.713 87.5892 916.13 Q85.7373 916.546 83.7929 917.426 L83.7929 900.065 Z" fill="#000000" fill-rule="nonzero" fill-opacity="1" /><path clip-path="url(#clip010)" d="M56.6171 612.338 L72.9365 612.338 L72.9365 616.274 L50.9921 616.274 L50.9921 612.338 Q53.6541 609.584 58.2375 604.954 Q62.8439 600.301 64.0245 598.959 Q66.2698 596.436 67.1494 594.7 Q68.0522 592.94 68.0522 591.251 Q68.0522 588.496 66.1078 586.76 Q64.1865 585.024 61.0847 585.024 Q58.8856 585.024 56.4319 585.788 Q54.0014 586.552 51.2236 588.102 L51.2236 583.38 Q54.0477 582.246 56.5014 581.667 Q58.955 581.089 60.9921 581.089 Q66.3624 581.089 69.5568 583.774 Q72.7513 586.459 72.7513 590.95 Q72.7513 593.079 71.9411 595.001 Q71.1541 596.899 69.0476 599.491 Q68.4689 600.163 65.367 603.38 Q62.2652 606.575 56.6171 612.338 Z" fill="#000000" fill-rule="nonzero" fill-opacity="1" /><path clip-path="url(#clip010)" d="M92.7512 584.792 Q89.1401 584.792 87.3114 588.357 Q85.5058 591.899 85.5058 599.028 Q85.5058 606.135 87.3114 609.7 Q89.1401 613.241 92.7512 613.241 Q96.3854 613.241 98.1909 609.7 Q100.02 606.135 100.02 599.028 Q100.02 591.899 98.1909 588.357 Q96.3854 584.792 92.7512 584.792 M92.7512 581.089 Q98.5613 581.089 101.617 585.695 Q104.696 590.278 104.696 599.028 Q104.696 607.755 101.617 612.362 Q98.5613 616.945 92.7512 616.945 Q86.941 616.945 83.8623 612.362 Q80.8068 607.755 80.8068 599.028 Q80.8068 590.278 83.8623 585.695 Q86.941 581.089 92.7512 581.089 Z" fill="#000000" fill-rule="nonzero" fill-opacity="1" /><path clip-path="url(#clip010)" d="M57.6125 293.987 L73.9318 293.987 L73.9318 297.922 L51.9875 297.922 L51.9875 293.987 Q54.6495 291.232 59.2328 286.603 Q63.8393 281.95 65.0198 280.608 Q67.2652 278.084 68.1448 276.348 Q69.0476 274.589 69.0476 272.899 Q69.0476 270.145 67.1032 268.409 Q65.1819 266.672 62.08 266.672 Q59.881 266.672 57.4273 267.436 Q54.9967 268.2 52.219 269.751 L52.219 265.029 Q55.043 263.895 57.4967 263.316 Q59.9504 262.737 61.9874 262.737 Q67.3578 262.737 70.5522 265.422 Q73.7466 268.108 73.7466 272.598 Q73.7466 274.728 72.9365 276.649 Q72.1494 278.547 70.0429 281.14 Q69.4642 281.811 66.3624 285.029 Q63.2606 288.223 57.6125 293.987 Z" fill="#000000" fill-rule="nonzero" fill-opacity="1" /><path clip-path="url(#clip010)" d="M83.7929 263.362 L102.149 263.362 L102.149 267.297 L88.0753 267.297 L88.0753 275.77 Q89.0938 275.422 90.1123 275.26 Q91.1308 275.075 92.1493 275.075 Q97.9363 275.075 101.316 278.246 Q104.696 281.418 104.696 286.834 Q104.696 292.413 101.223 295.515 Q97.7511 298.594 91.4317 298.594 Q89.2558 298.594 86.9873 298.223 Q84.7419 297.853 82.3346 297.112 L82.3346 292.413 Q84.4179 293.547 86.6401 294.103 Q88.8623 294.658 91.3391 294.658 Q95.3437 294.658 97.6817 292.552 Q100.02 290.445 100.02 286.834 Q100.02 283.223 97.6817 281.117 Q95.3437 279.01 91.3391 279.01 Q89.4641 279.01 87.5892 279.427 Q85.7373 279.844 83.7929 280.723 L83.7929 263.362 Z" fill="#000000" fill-rule="nonzero" fill-opacity="1" /><polyline clip-path="url(#clip012)" style="stroke:#009af9; stroke-linecap:round; stroke-linejoin:round; stroke-width:4; stroke-opacity:1; fill:none" points="203.301,1336.6 204.344,1338.4 205.388,1407.02 206.431,1408.13 207.475,1352.33 208.518,1353.72 209.562,1217.3 210.605,1219.45 211.648,1299.91 212.692,1301.25 213.735,1434.41 214.779,1435.33 215.822,1355.13 216.866,1356.32 217.909,1398.81 218.952,1400.35 219.996,1187.01 221.039,1188.52 222.083,1340.17 223.126,1341.13 224.17,1444.97 225.213,1445.72 226.256,1302.05 227.3,1303.36 228.343,1318.31 229.387,1319.62 230.43,1238.74 231.473,1240.09 232.517,1341.61 233.56,1342.46 234.604,1128.13 235.647,1129.58 236.691,1356.03 237.734,1357.09 238.777,1327.03 239.821,1327.8 240.864,1386.66 241.908,1387.4 242.951,1108.29 243.995,1110.79 245.038,1216.4 246.081,1217.54 247.125,1298.57 248.168,1299.25 249.212,1062.6 250.255,1064.72 251.299,1245.1 252.342,1246.64 253.385,1134.16 254.429,1135.38 255.472,1040.42 256.516,1041.98 257.559,1189.64 258.603,1191.15 259.646,1161.2 260.689,1162.69 261.733,1168.13 262.776,1169.18 263.82,1212.16 264.863,1213.12 265.907,1116.16 266.95,1117.34 267.993,920.078 269.037,922.319 270.08,1055.07 271.124,1056.44 272.167,1012.41 273.21,1013.89 274.254,956.591 275.297,957.973 276.341,962.391 277.384,963.935 278.428,963.083 279.471,964.963 280.514,1007.01 281.558,1008.64 282.601,1108.5 283.645,1109.79 284.688,1036.29 285.732,1037.62 286.775,980.108 287.818,981.614 288.862,924.398 289.905,926.38 290.949,909.878 291.992,911.935 293.036,891.347 294.079,892.869 295.122,842.404 296.166,844.808 297.209,799.704 298.253,802.191 299.296,912.122 300.34,913.531 301.383,756.741 302.426,758.985 303.47,826.401 304.513,828.206 305.557,892.564 306.6,894.042 307.643,636.751 308.687,639.045 309.73,768.481 310.774,770.414 311.817,785.407 312.861,787.641 313.904,1001.14 314.947,1002.23 315.991,869.76 317.034,871.548 318.078,786.454 319.121,789.172 320.165,715.144 321.208,717.457 322.251,615.519 323.295,617.877 324.338,574.418 325.382,576.764 326.425,785.513 327.469,786.868 328.512,962.174 329.555,963.268 330.599,649.062 331.642,650.943 332.686,716.679 333.729,719.041 334.773,696.215 335.816,699.038 336.859,679.759 337.903,681.249 338.946,691.929 339.99,694.159 341.033,715.292 342.077,717.55 343.12,663.075 344.163,665.925 345.207,811.148 346.25,812.614 347.294,611.829 348.337,614.269 349.38,624.12 350.424,626.133 351.467,776.821 352.511,778.555 353.554,631.643 354.598,633.258 355.641,509.03 356.684,510.315 357.728,868.706 358.771,870.063 359.815,698.98 360.858,700.497 361.902,637.249 362.945,639.439 363.988,646.265 365.032,647.574 366.075,677.607 367.119,678.901 368.162,654.602 369.206,656.157 370.249,617.127 371.292,619.705 372.336,726.36 373.379,727.55 374.423,753.776 375.466,755.586 376.51,560.509 377.553,562.037 378.596,572.327 379.64,573.801 380.683,691.8 381.727,693.403 382.77,355.2 383.813,356.49 384.857,722.751 385.9,725.141 386.944,652.746 387.987,654.754 389.031,686.481 390.074,687.985 391.117,657.556 392.161,658.595 393.204,639.153 394.248,641.17 395.291,592.647 396.335,593.545 397.378,568.661 398.421,570.327 399.465,626.228 400.508,627.099 401.552,713.458 402.595,715.208 403.639,664.476 404.682,665.478 405.725,655.839 406.769,656.696 407.812,642.024 408.856,642.557 409.899,499.531 410.943,500.664 411.986,472.154 413.029,473.137 414.073,558.551 415.116,561.344 416.16,575.37 417.203,577.602 418.247,673.711 419.29,674.557 420.333,664.243 421.377,665.415 422.42,442.581 423.464,444.348 424.507,594.075 425.55,595.131 426.594,578.54 427.637,581.01 428.681,684.94 429.724,685.936 430.768,497.759 431.811,499.158 432.854,466.309 433.898,467.024 434.941,666.655 435.985,667.601 437.028,574.753 438.072,575.887 439.115,592.552 440.158,593.698 441.202,561.584 442.245,562.523 443.289,552.401 444.332,553.379 445.376,641.426 446.419,641.631 447.462,501.351 448.506,502.094 449.549,670.901 450.593,672.554 451.636,649.146 452.68,649.639 453.723,658.233 454.766,659.138 455.81,581.193 456.853,581.734 457.897,240.963 458.94,243.861 459.984,714.73 461.027,715.611 462.07,611.417 463.114,612.196 464.157,576.026 465.201,576.76 466.244,493.483 467.287,494.782 468.331,425.607 469.374,426.941 470.418,495.391 471.461,496.399 472.505,622.074 473.548,622.549 474.591,675.497 475.635,675.671 476.678,537.648 477.722,539.645 478.765,652.365 479.809,654.292 480.852,567.957 481.895,568.444 482.939,649.784 483.982,650.347 485.026,559.424 486.069,561.209 487.113,488.532 488.156,489.928 489.199,498.966 490.243,500.269 491.286,630.93 492.33,631.94 493.373,540.183 494.417,541.403 495.46,671.096 496.503,671.625 497.547,571.418 498.59,572.498 499.634,647.611 500.677,647.982 501.72,471.854 502.764,472.155 503.807,652.019 504.851,652.658 505.894,311.703 506.938,313.058 507.981,674.795 509.024,675.321 510.068,592.631 511.111,593.443 512.155,588.653 513.198,589.686 514.242,530.046 515.285,530.733 516.328,651.746 517.372,652.265 518.415,516.914 519.459,517.224 520.502,457.948 521.546,458.759 522.589,682.968 523.632,684.101 524.676,591.481 525.719,593.915 526.763,596.399 527.806,598.418 528.85,572.439 529.893,572.909 530.936,614.757 531.98,615.867 533.023,566.103 534.067,566.848 535.11,417.771 536.154,418.827 537.197,727.736 538.24,729.07 539.284,605.155 540.327,606.313 541.371,666.747 542.414,667.291 543.457,576.313 544.501,576.898 545.544,544.62 546.588,545.35 547.631,538.305 548.675,539.825 549.718,550.339 550.761,551.036 551.805,435.392 552.848,436.46 553.892,471.853 554.935,472.438 555.979,597.251 557.022,598.226 558.065,711.924 559.109,712.401 560.152,724.917 561.196,727.582 562.239,588.31 563.283,590.013 564.326,622.343 565.369,623.016 566.413,569.714 567.456,570.342 568.5,588.81 569.543,589.415 570.587,680.611 571.63,682.435 572.673,624.023 573.717,625.046 574.76,494.075 575.804,496.28 576.847,543.768 577.89,544.856 578.934,619.643 579.977,620.521 581.021,577.259 582.064,578.786 583.108,539.838 584.151,541.879 585.194,679.506 586.238,680.108 587.281,511.592 588.325,513.986 589.368,666.769 590.412,667.139 591.455,656.292 592.498,657.232 593.542,587.253 594.585,589.188 595.629,593.341 596.672,593.513 597.716,659.382 598.759,659.777 599.802,593.388 600.846,594.263 601.889,622.329 602.933,623.623 603.976,750.19 605.02,750.786 606.063,424.091 607.106,425.048 608.15,561.042 609.193,561.555 610.237,397.863 611.28,399.761 612.324,548.62 613.367,549.35 614.41,537.32 615.454,538.269 616.497,454.879 617.541,456.023 618.584,507.166 619.627,508.048 620.671,447.745 621.714,449.178 622.758,633.97 623.801,634.775 624.845,542.997 625.888,543.54 626.931,516.184 627.975,517.082 629.018,383.66 630.062,384.543 631.105,559.667 632.149,560.49 633.192,682.961 634.235,684.162 635.279,577.499 636.322,578.49 637.366,597.937 638.409,599.152 639.453,627.896 640.496,628.5 641.539,689.467 642.583,690.174 643.626,620.877 644.67,621.443 645.713,657.799 646.757,659.436 647.8,684.471 648.843,685.69 649.887,645.149 650.93,645.517 651.974,464.85 653.017,465.946 654.06,404.322 655.104,406.47 656.147,563.526 657.191,565.257 658.234,415.398 659.278,416.221 660.321,464.345 661.364,464.593 662.408,521.02 663.451,522.921 664.495,533.916 665.538,534.608 666.582,508.591 667.625,509.547 668.668,534.074 669.712,535.326 670.755,590.331 671.799,591.067 672.842,585.474 673.886,586.675 674.929,565.292 675.972,565.97 677.016,571.325 678.059,572.971 679.103,660.898 680.146,661.734 681.19,645.959 682.233,646.156 683.276,482.03 684.32,482.824 685.363,378.391 686.407,379.396 687.45,602.512 688.494,603.613 689.537,630.574 690.58,632.215 691.624,544.65 692.667,545.648 693.711,687.696 694.754,688.497 695.797,487.093 696.841,487.851 697.884,381.082 698.928,382.78 699.971,531.164 701.015,532.404 702.058,658.507 703.101,658.9 704.145,526.619 705.188,527.141 706.232,531.978 707.275,532.296 708.319,617.113 709.362,617.981 710.405,527.084 711.449,528.487 712.492,596.329 713.536,596.941 714.579,512.228 715.623,513.56 716.666,640.575 717.709,641.38 718.753,572.338 719.796,572.967 720.84,462.062 721.883,463.562 722.927,423.445 723.97,423.868 725.013,636.438 726.057,637.039 727.1,595.795 728.144,596.416 729.187,524.731 730.23,525.778 731.274,518.433 732.317,519.091 733.361,652.062 734.404,652.64 735.448,647.155 736.491,647.9 737.534,562.839 738.578,564.728 739.621,711.216 740.665,712.244 741.708,456.866 742.752,457.881 743.795,485.102 744.838,486.13 745.882,533.941 746.925,534.41 747.969,622.156 749.012,622.546 750.056,650.075 751.099,650.355 752.142,569.366 753.186,570.298 754.229,549.589 755.273,550.171 756.316,534.545 757.36,536.468 758.403,544.997 759.446,545.376 760.49,715.723 761.533,716.764 762.577,364.722 763.62,365.574 764.664,647.016 765.707,648.228 766.75,605.993 767.794,606.41 768.837,684.711 769.881,685.759 770.924,444.14 771.967,446.041 773.011,677.425 774.054,678.657 775.098,705.504 776.141,706.548 777.185,532.122 778.228,532.661 779.271,523.22 780.315,524.215 781.358,540.057 782.402,541.318 783.445,713.097 784.489,713.966 785.532,732.944 786.575,733.675 787.619,547.05 788.662,548.292 789.706,505.128 790.749,506.775 791.793,679.466 792.836,679.657 793.879,475.256 794.923,476.496 795.966,527.423 797.01,528.039 798.053,703.751 799.097,704.815 800.14,521.527 801.183,521.742 802.227,539.454 803.27,540.806 804.314,581.817 805.357,583.26 806.401,462.432 807.444,463.22 808.487,696.67 809.531,697.485 810.574,583.092 811.618,584.087 812.661,451.944 813.704,452.788 814.748,647.903 815.791,648.527 816.835,496.656 817.878,498.148 818.922,574.358 819.965,575.059 821.008,576.633 822.052,577.371 823.095,455.17 824.139,456.544 825.182,574.654 826.226,575.713 827.269,498.396 828.312,499.419 829.356,401.147 830.399,401.459 831.443,576.265 832.486,576.655 833.53,644.642 834.573,645.345 835.616,540.025 836.66,541.049 837.703,449.279 838.747,450.672 839.79,475.323 840.834,476.221 841.877,471.975 842.92,472.547 843.964,417.504 845.007,418.859 846.051,590.883 847.094,591.554 848.137,627.46 849.181,628.574 850.224,790.678 851.268,792.766 852.311,609.531 853.355,610.153 854.398,584.119 855.441,585.315 856.485,605.449 857.528,606.086 858.572,515.95 859.615,516.406 860.659,565.215 861.702,566.334 862.745,542.515 863.789,544.407 864.832,487.167 865.876,488.873 866.919,458.105 867.963,458.554 869.006,449.659 870.049,450.356 871.093,754.191 872.136,754.356 873.18,704.832 874.223,705.58 875.267,414.382 876.31,416.047 877.353,481.593 878.397,483.734 879.44,316.049 880.484,317.427 881.527,604.198 882.571,605.806 883.614,624.123 884.657,624.701 885.701,684.11 886.744,684.46 887.788,480.764 888.831,481.814 889.874,642.823 890.918,643.26 891.961,401.25 893.005,403.402 894.048,635.307 895.092,635.829 896.135,643.938 897.178,644.879 898.222,567.046 899.265,567.422 900.309,699.385 901.352,700.205 902.396,568.95 903.439,570.135 904.482,590.541 905.526,591.037 906.569,464.079 907.613,464.757 908.656,479.381 909.7,479.848 910.743,542.889 911.786,545 912.83,317.317 913.873,319.328 914.917,466.224 915.96,467.534 917.004,591.143 918.047,591.766 919.09,578.945 920.134,579.564 921.177,575.584 922.221,576.398 923.264,596.479 924.307,598.122 925.351,601.723 926.394,603.09 927.438,548.209 928.481,548.935 929.525,450.328 930.568,450.969 931.611,415.06 932.655,416.393 933.698,493.437 934.742,493.854 935.785,610.028 936.829,610.642 937.872,530.131 938.915,531.606 939.959,656.361 941.002,657.679 942.046,270.038 943.089,271.348 944.133,585.558 945.176,586.448 946.219,629.515 947.263,631.114 948.306,458.635 949.35,459.476 950.393,593.122 951.437,593.626 952.48,670.502 953.523,671.658 954.567,469.601 955.61,470.885 956.654,420.622 957.697,421.885 958.741,502.877 959.784,504.298 960.827,686.958 961.871,687.248 962.914,614.962 963.958,616.529 965.001,617.736 966.044,617.985 967.088,651.196 968.131,651.679 969.175,475.388 970.218,476.81 971.262,567.161 972.305,567.945 973.348,571.036 974.392,572.563 975.435,562.328 976.479,563.969 977.522,513.538 978.566,515.222 979.609,627.811 980.652,630.712 981.696,562.725 982.739,563.474 983.783,555.797 984.826,556.113 985.87,552.826 986.913,553.423 987.956,684.948 989,685.322 990.043,683.668 991.087,684.392 992.13,583.496 993.174,584.378 994.217,457.822 995.26,458.872 996.304,717.364 997.347,717.705 998.391,333.023 999.434,334.666 1000.48,404.71 1001.52,405.482 1002.56,532.369 1003.61,533.581 1004.65,622.297 1005.69,622.702 1006.74,634.435 1007.78,634.993 1008.82,606.719 1009.87,608.221 1010.91,467.887 1011.96,469.036 1013,525.63 1014.04,526.274 1015.09,432.764 1016.13,434.699 1017.17,633.901 1018.22,634.357 1019.26,591.141 1020.3,592.689 1021.35,503.063 1022.39,503.638 1023.43,642.166 1024.48,643.524 1025.52,533.831 1026.56,534.52 1027.61,693.043 1028.65,693.496 1029.69,555.811 1030.74,556.542 1031.78,516.632 1032.82,517.476 1033.87,511.213 1034.91,512.104 1035.95,437.168 1037,437.707 1038.04,657.253 1039.08,658.156 1040.13,525.652 1041.17,526.245 1042.21,526.35 1043.26,526.631 1044.3,592.211 1045.34,592.632 1046.39,522.133 1047.43,522.929 1048.48,493.907 1049.52,495.277 1050.56,529.296 1051.61,530.454 1052.65,633.87 1053.69,634.69 1054.74,488.236 1055.78,489.271 1056.82,380.426 1057.87,382.081 1058.91,548.433 1059.95,549.383 1061,625.175 1062.04,626.266 1063.08,678.274 1064.13,678.635 1065.17,680.509 1066.21,680.695 1067.26,331.658 1068.3,333.559 1069.34,648.087 1070.39,648.661 1071.43,589.037 1072.47,589.488 1073.52,563.288 1074.56,565.225 1075.6,492.846 1076.65,494.202 1077.69,502.305 1078.73,502.727 1079.78,524.842 1080.82,525.241 1081.86,493 1082.91,493.875 1083.95,409.263 1084.99,410.386 1086.04,627.558 1087.08,628.45 1088.13,641.289 1089.17,642.248 1090.21,613.539 1091.26,614.392 1092.3,390.799 1093.34,391.844 1094.39,421.424 1095.43,422.902 1096.47,407.622 1097.52,408.396 1098.56,489.814 1099.6,490.695 1100.65,515.558 1101.69,516.394 1102.73,558.643 1103.78,560.137 1104.82,631.443 1105.86,632.716 1106.91,525.723 1107.95,526.834 1108.99,576.392 1110.04,577.447 1111.08,465.74 1112.12,466.24 1113.17,590.734 1114.21,591.439 1115.25,403.165 1116.3,404.175 1117.34,610.25 1118.38,610.87 1119.43,452.176 1120.47,453.05 1121.51,662.453 1122.56,662.93 1123.6,631.332 1124.65,632.942 1125.69,706.267 1126.73,707.381 1127.78,483.363 1128.82,484.256 1129.86,505.171 1130.91,506.772 1131.95,460.165 1132.99,461.524 1134.04,571.804 1135.08,572.35 1136.12,616.054 1137.17,616.671 1138.21,592.689 1139.25,593.3 1140.3,507.388 1141.34,508.526 1142.38,535.177 1143.43,536.605 1144.47,541.282 1145.51,542.307 1146.56,541.041 1147.6,541.619 1148.64,502.069 1149.69,502.884 1150.73,507.582 1151.77,508.916 1152.82,326.118 1153.86,328.14 1154.9,514.733 1155.95,515.813 1156.99,391.764 1158.03,393.387 1159.08,593.974 1160.12,594.869 1161.16,533.571 1162.21,533.726 1163.25,518.571 1164.3,519.343 1165.34,537.763 1166.38,539.009 1167.43,559.768 1168.47,561.798 1169.51,481.073 1170.56,482.118 1171.6,522.048 1172.64,524.078 1173.69,557.459 1174.73,559.329 1175.77,521.352 1176.82,522.905 1177.86,526.656 1178.9,528.376 1179.95,415.868 1180.99,416.706 1182.03,747.772 1183.08,748.059 1184.12,502.462 1185.16,502.887 1186.21,549.313 1187.25,550.331 1188.29,494.154 1189.34,495.364 1190.38,669.505 1191.42,670.731 1192.47,491.369 1193.51,492.099 1194.55,485.038 1195.6,486.157 1196.64,462.405 1197.68,463.815 1198.73,347.694 1199.77,348.908 1200.82,611.013 1201.86,611.654 1202.9,631.206 1203.95,632.573 1204.99,604.03 1206.03,605.301 1207.08,578.961 1208.12,579.968 1209.16,604.847 1210.21,607.019 1211.25,459.6 1212.29,460.815 1213.34,597.015 1214.38,598.286 1215.42,481.196 1216.47,483.061 1217.51,512.493 1218.55,512.934 1219.6,442.593 1220.64,443.201 1221.68,602.582 1222.73,603.024 1223.77,621.136 1224.81,621.897 1225.86,621.568 1226.9,621.977 1227.94,456.057 1228.99,456.467 1230.03,617.585 1231.07,618.102 1232.12,543.399 1233.16,544.211 1234.2,486.947 1235.25,487.751 1236.29,446.3 1237.33,447.506 1238.38,564.141 1239.42,564.793 1240.47,455.606 1241.51,457.096 1242.55,552.398 1243.6,552.882 1244.64,511.662 1245.68,512.635 1246.73,384.911 1247.77,385.796 1248.81,666.823 1249.86,668.238 1250.9,497.271 1251.94,497.845 1252.99,598.655 1254.03,599.52 1255.07,595.663 1256.12,596.771 1257.16,676.097 1258.2,676.734 1259.25,623.315 1260.29,623.511 1261.33,598.427 1262.38,599.278 1263.42,670.239 1264.46,670.82 1265.51,525.22 1266.55,525.815 1267.59,653.105 1268.64,653.658 1269.68,541.127 1270.72,541.847 1271.77,490.961 1272.81,491.236 1273.85,494.279 1274.9,494.914 1275.94,489.301 1276.99,490.245 1278.03,555.902 1279.07,556.586 1280.12,613.015 1281.16,613.606 1282.2,613.054 1283.25,613.65 1284.29,451.448 1285.33,453.211 1286.38,534.555 1287.42,535.65 1288.46,570.723 1289.51,571.594 1290.55,447.596 1291.59,448.926 1292.64,516.566 1293.68,517.772 1294.72,471.139 1295.77,472.103 1296.81,560.663 1297.85,561.467 1298.9,481.867 1299.94,482.725 1300.98,556.81 1302.03,558 1303.07,620.99 1304.11,621.923 1305.16,509.557 1306.2,511.09 1307.24,633.214 1308.29,634.29 1309.33,468.588 1310.37,469.49 1311.42,259.568 1312.46,260.56 1313.5,345.841 1314.55,348.403 1315.59,519.493 1316.64,520.13 1317.68,536.142 1318.72,537.319 1319.77,503.969 1320.81,504.149 1321.85,556.614 1322.9,558.372 1323.94,573.4 1324.98,573.973 1326.03,537.596 1327.07,538.462 1328.11,497.369 1329.16,498.386 1330.2,642.926 1331.24,644.398 1332.29,343.301 1333.33,344.617 1334.37,564.787 1335.42,565.764 1336.46,465.446 1337.5,466.247 1338.55,532.241 1339.59,533.275 1340.63,414.161 1341.68,414.997 1342.72,589.9 1343.76,590.853 1344.81,513.146 1345.85,514.356 1346.89,593.035 1347.94,593.774 1348.98,475.269 1350.02,475.876 1351.07,648.812 1352.11,649.115 1353.16,657.26 1354.2,657.53 1355.24,547.511 1356.29,548.285 1357.33,494.932 1358.37,496.08 1359.42,413.534 1360.46,415.149 1361.5,415.211 1362.55,417.522 1363.59,570.232 1364.63,571.207 1365.68,506.644 1366.72,507.7 1367.76,462.966 1368.81,464.149 1369.85,331.762 1370.89,332.081 1371.94,605.626 1372.98,606.065 1374.02,425.584 1375.07,426.343 1376.11,459.569 1377.15,460.225 1378.2,472.663 1379.24,473.827 1380.28,330.557 1381.33,332.252 1382.37,557.537 1383.41,558.221 1384.46,314.985 1385.5,316.504 1386.54,484.604 1387.59,486.975 1388.63,481.11 1389.67,481.958 1390.72,389.85 1391.76,391.181 1392.81,614.464 1393.85,615.419 1394.89,494.274 1395.94,495.598 1396.98,630.322 1398.02,631.204 1399.07,500.601 1400.11,502.152 1401.15,547.707 1402.2,549.481 1403.24,495.899 1404.28,496.995 1405.33,410.371 1406.37,411.28 1407.41,441.976 1408.46,442.572 1409.5,382.578 1410.54,383.274 1411.59,382.136 1412.63,382.618 1413.67,576.516 1414.72,577.546 1415.76,532.701 1416.8,534.657 1417.85,620.003 1418.89,620.647 1419.93,605.99 1420.98,607.971 1422.02,460.969 1423.06,462.393 1424.11,479.509 1425.15,480.724 1426.19,605.943 1427.24,606.54 1428.28,640.538 1429.33,641.008 1430.37,544.018 1431.41,545.975 1432.46,590.231 1433.5,591.075 1434.54,638.082 1435.59,639.18 1436.63,707.596 1437.67,707.722 1438.72,423.44 1439.76,424.149 1440.8,483.705 1441.85,484.135 1442.89,481.856 1443.93,482.463 1444.98,417.573 1446.02,419.315 1447.06,429.031 1448.11,431.441 1449.15,410.118 1450.19,411.181 1451.24,576.805 1452.28,577.207 1453.32,537.318 1454.37,537.569 1455.41,636.015 1456.45,636.14 1457.5,383.297 1458.54,384.348 1459.58,507.365 1460.63,508.837 1461.67,509.768 1462.71,511.33 1463.76,584.183 1464.8,584.957 1465.84,596.113 1466.89,596.799 1467.93,383.258 1468.98,384.071 1470.02,351.814 1471.06,352.561 1472.11,641.362 1473.15,642.139 1474.19,453.618 1475.24,453.961 1476.28,496.343 1477.32,496.745 1478.37,582.054 1479.41,583.131 1480.45,367.223 1481.5,369.568 1482.54,377.436 1483.58,378.01 1484.63,552.868 1485.67,553.709 1486.71,504.344 1487.76,506.036 1488.8,531.461 1489.84,531.747 1490.89,503.053 1491.93,504.409 1492.97,358.692 1494.02,359.968 1495.06,310.777 1496.1,312.222 1497.15,478.743 1498.19,479.732 1499.23,600.606 1500.28,602.179 1501.32,467.005 1502.36,468.214 1503.41,555.398 1504.45,555.66 1505.5,568.886 1506.54,571.083 1507.58,529.63 1508.63,531.436 1509.67,502.29 1510.71,503.499 1511.76,590.866 1512.8,591.451 1513.84,450.987 1514.89,451.888 1515.93,526.133 1516.97,527.08 1518.02,400.939 1519.06,402.074 1520.1,443.577 1521.15,444.428 1522.19,497.322 1523.23,499.473 1524.28,526.322 1525.32,526.947 1526.36,565.173 1527.41,566.326 1528.45,518.466 1529.49,518.977 1530.54,498.534 1531.58,499.079 1532.62,551.673 1533.67,553.517 1534.71,537.408 1535.75,537.862 1536.8,483.439 1537.84,484.339 1538.88,510.579 1539.93,511.372 1540.97,630.02 1542.01,630.555 1543.06,528.219 1544.1,528.902 1545.15,471.881 1546.19,474.191 1547.23,534.729 1548.28,535.615 1549.32,492.967 1550.36,495.053 1551.41,498.663 1552.45,498.995 1553.49,530.519 1554.54,531.253 1555.58,431.508 1556.62,432.303 1557.67,568.944 1558.71,569.587 1559.75,521.443 1560.8,522.685 1561.84,569.903 1562.88,570.468 1563.93,617.503 1564.97,618.503 1566.01,584.311 1567.06,584.71 1568.1,435.287 1569.14,436.271 1570.19,495.836 1571.23,497.361 1572.27,449.733 1573.32,451.336 1574.36,396.421 1575.4,397.003 1576.45,572.099 1577.49,573.105 1578.53,355.987 1579.58,357.583 1580.62,611.183 1581.67,611.679 1582.71,691.122 1583.75,691.861 1584.8,510.058 1585.84,511.531 1586.88,634.911 1587.93,635.608 1588.97,544.171 1590.01,546.048 1591.06,499.78 1592.1,502.01 1593.14,526.773 1594.19,527.329 1595.23,539.429 1596.27,540.43 1597.32,465.799 1598.36,466.672 1599.4,568.664 1600.45,569.519 1601.49,592.931 1602.53,593.886 1603.58,419.581 1604.62,421.102 1605.66,415.393 1606.71,416.147 1607.75,733.966 1608.79,734.332 1609.84,417.18 1610.88,418.007 1611.92,546.427 1612.97,547.872 1614.01,460.194 1615.05,462.256 1616.1,586.324 1617.14,586.925 1618.18,412.217 1619.23,412.738 1620.27,687.302 1621.32,687.98 1622.36,362.847 1623.4,365.571 1624.45,523.276 1625.49,524.134 1626.53,428.462 1627.58,431.818 1628.62,506.339 1629.66,507.48 1630.71,641.81 1631.75,642.895 1632.79,459.197 1633.84,460.768 1634.88,359.403 1635.92,360.422 1636.97,481.443 1638.01,482.745 1639.05,639.129 1640.1,641 1641.14,675.353 1642.18,675.816 1643.23,626.067 1644.27,626.702 1645.31,496.287 1646.36,497.576 1647.4,464.036 1648.44,466.32 1649.49,476.71 1650.53,478.339 1651.57,441.144 1652.62,441.932 1653.66,686.687 1654.7,687.433 1655.75,529.34 1656.79,530.403 1657.84,510.013 1658.88,511.044 1659.92,396.839 1660.97,397.696 1662.01,483.679 1663.05,484.424 1664.1,601.491 1665.14,603.294 1666.18,468.851 1667.23,470.076 1668.27,571.004 1669.31,571.325 1670.36,564.197 1671.4,565.216 1672.44,464.28 1673.49,465.55 1674.53,477.788 1675.57,480.471 1676.62,448.554 1677.66,449.119 1678.7,358.815 1679.75,361.149 1680.79,445.762 1681.83,446.186 1682.88,287.435 1683.92,288.387 1684.96,360.964 1686.01,362.062 1687.05,510.619 1688.09,511.796 1689.14,528.143 1690.18,528.635 1691.22,531.484 1692.27,532.266 1693.31,268.14 1694.35,269.364 1695.4,499.164 1696.44,500.135 1697.49,389.665 1698.53,390.4 1699.57,412.602 1700.62,413.89 1701.66,219.184 1702.7,219.803 1703.75,482.594 1704.79,483.906 1705.83,507.774 1706.88,508.303 1707.92,334.106 1708.96,335.556 1710.01,460.005 1711.05,461.883 1712.09,527.784 1713.14,528.642 1714.18,464.72 1715.22,465.5 1716.27,315.623 1717.31,316.746 1718.35,374.745 1719.4,376.419 1720.44,570.12 1721.48,571.726 1722.53,641.908 1723.57,642.653 1724.61,570.582 1725.66,572.016 1726.7,591.414 1727.74,593.304 1728.79,456.771 1729.83,457.78 1730.87,519.601 1731.92,520.421 1732.96,422.821 1734.01,423.769 1735.05,389.094 1736.09,390.74 1737.14,493.349 1738.18,494.531 1739.22,534.207 1740.27,535.728 1741.31,552.062 1742.35,553.88 1743.4,391.922 1744.44,393.013 1745.48,554.039 1746.53,555.14 1747.57,307.843 1748.61,309.542 1749.66,534.997 1750.7,536.073 1751.74,485.21 1752.79,486.407 1753.83,571.102 1754.87,571.974 1755.92,368.226 1756.96,368.98 1758,499.732 1759.05,500.413 1760.09,413.823 1761.13,414.724 1762.18,479.5 1763.22,480.671 1764.26,501.909 1765.31,502.868 1766.35,457.19 1767.39,458.187 1768.44,469.788 1769.48,470.678 1770.52,597.457 1771.57,599.559 1772.61,595.603 1773.66,595.841 1774.7,604.804 1775.74,605.115 1776.79,362.298 1777.83,363.967 1778.87,544.099 1779.92,545.04 1780.96,336.393 1782,338.761 1783.05,535.117 1784.09,535.486 1785.13,371.658 1786.18,373.328 1787.22,533.808 1788.26,535.112 1789.31,463.951 1790.35,465.474 1791.39,632.17 1792.44,633.435 1793.48,578.691 1794.52,580.765 1795.57,320.846 1796.61,321.809 1797.65,453.54 1798.7,454.792 1799.74,398.255 1800.78,399.318 1801.83,427.658 1802.87,430.321 1803.91,603.922 1804.96,604.363 1806,667.217 1807.04,667.447 1808.09,371.238 1809.13,372.019 1810.18,497.32 1811.22,498.502 1812.26,329.83 1813.31,331.101 1814.35,689.554 1815.39,690.173 1816.44,539.291 1817.48,540.301 1818.52,509.124 1819.57,509.612 1820.61,447.294 1821.65,447.899 1822.7,611.249 1823.74,612.675 1824.78,407.339 1825.83,408.782 1826.87,504.997 1827.91,505.649 1828.96,407.405 1830,410.651 1831.04,458.151 1832.09,458.829 1833.13,528.747 1834.17,529.498 1835.22,502.605 1836.26,504.514 1837.3,581.755 1838.35,582.115 1839.39,382.302 1840.43,383.611 1841.48,409.382 1842.52,410.528 1843.56,445.746 1844.61,447.144 1845.65,306.763 1846.69,308.832 1847.74,524.911 1848.78,525.449 1849.83,403.117 1850.87,404.138 1851.91,524.005 1852.96,524.724 1854,420.281 1855.04,421.064 1856.09,326.172 1857.13,327.335 1858.17,379.901 1859.22,380.89 1860.26,564.782 1861.3,565.964 1862.35,448.554 1863.39,449.06 1864.43,517.537 1865.48,518.2 1866.52,437.474 1867.56,437.947 1868.61,561.255 1869.65,562.347 1870.69,522.399 1871.74,523.274 1872.78,736.644 1873.82,737.92 1874.87,274.933 1875.91,277.034 1876.95,509.929 1878,512.427 1879.04,414.338 1880.08,415.795 1881.13,344.213 1882.17,345.263 1883.21,627.056 1884.26,627.552 1885.3,490.856 1886.35,492.023 1887.39,331.574 1888.43,333.289 1889.48,420.345 1890.52,421.22 1891.56,584.933 1892.61,586.189 1893.65,561.021 1894.69,561.363 1895.74,499.693 1896.78,500.373 1897.82,208.23 1898.87,209.816 1899.91,237.189 1900.95,239.623 1902,395.737 1903.04,397.022 1904.08,558.407 1905.13,558.745 1906.17,581.333 1907.21,582.066 1908.26,363.484 1909.3,364.895 1910.34,459.474 1911.39,461.432 1912.43,520.814 1913.47,521.212 1914.52,357.811 1915.56,359.108 1916.6,355.535 1917.65,356.169 1918.69,491.013 1919.73,491.784 1920.78,581.586 1921.82,583.398 1922.86,496.502 1923.91,497.388 1924.95,441.041 1926,442.268 1927.04,567.839 1928.08,569.125 1929.13,409.408 1930.17,411.129 1931.21,574.728 1932.26,576.295 1933.3,308.993 1934.34,310.264 1935.39,502.933 1936.43,504.639 1937.47,289.741 1938.52,290.723 1939.56,431.126 1940.6,433.646 1941.65,576.151 1942.69,577.68 1943.73,378.718 1944.78,380.249 1945.82,497.522 1946.86,497.842 1947.91,508.778 1948.95,510.042 1949.99,364.299 1951.04,367.413 1952.08,547.008 1953.12,547.914 1954.17,437.032 1955.21,438.487 1956.25,244.241 1957.3,245.962 1958.34,495.41 1959.38,497.041 1960.43,464.218 1961.47,466.387 1962.52,386.198 1963.56,386.913 1964.6,513.771 1965.65,514.791 1966.69,500.396 1967.73,500.84 1968.78,343.308 1969.82,344.279 1970.86,508.449 1971.91,510.218 1972.95,410.339 1973.99,412.039 1975.04,590.583 1976.08,593.683 1977.12,526.518 1978.17,527.515 1979.21,467.683 1980.25,468.809 1981.3,438.606 1982.34,439.562 1983.38,384.753 1984.43,386.373 1985.47,391.622 1986.51,394.145 1987.56,439.393 1988.6,440.219 1989.64,528.252 1990.69,529.293 1991.73,413.766 1992.77,415.316 1993.82,436.02 1994.86,436.924 1995.9,469.661 1996.95,470.719 1997.99,528.932 1999.03,530.275 2000.08,533.964 2001.12,535.691 2002.17,535.307 2003.21,536.037 2004.25,348.817 2005.3,349.797 2006.34,612.762 2007.38,613.38 2008.43,411.206 2009.47,413.282 2010.51,492.77 2011.56,493.986 2012.6,339.535 2013.64,341.166 2014.69,526.648 2015.73,527.535 2016.77,456.645 2017.82,457.687 2018.86,549.68 2019.9,551.838 2020.95,387.806 2021.99,390.356 2023.03,466.918 2024.08,468.201 2025.12,410.216 2026.16,410.973 2027.21,458.903 2028.25,459.406 2029.29,388.188 2030.34,389.214 2031.38,501.655 2032.42,502.995 2033.47,452.758 2034.51,453.849 2035.55,483.19 2036.6,485.852 2037.64,367.199 2038.69,368.185 2039.73,525.834 2040.77,527.643 2041.82,449.731 2042.86,450.63 2043.9,519.144 2044.95,520.028 2045.99,308.34 2047.03,309.384 2048.08,532.829 2049.12,534.855 2050.16,424.517 2051.21,425.33 2052.25,495.879 2053.29,496.777 2054.34,569.951 2055.38,571.162 2056.42,432.574 2057.47,433.681 2058.51,457.305 2059.55,457.669 2060.6,509.339 2061.64,509.958 2062.68,293.454 2063.73,294.37 2064.77,218.047 2065.81,219.457 2066.86,368.068 2067.9,369.688 2068.94,478.374 2069.99,479.119 2071.03,468.561 2072.07,469.298 2073.12,524.135 2074.16,524.854 2075.2,489.302 2076.25,489.931 2077.29,464.844 2078.34,465.593 2079.38,229.449 2080.42,230.502 2081.47,489.745 2082.51,491.184 2083.55,445.533 2084.6,446.389 2085.64,437.847 2086.68,439.541 2087.73,617.618 2088.77,618.265 2089.81,512.567 2090.86,513.761 2091.9,427.173 2092.94,427.982 2093.99,463.509 2095.03,463.735 2096.07,123.982 2097.12,125.783 2098.16,471.84 2099.2,472.301 2100.25,87.9763 2101.29,89.766 2102.33,521.13 2103.38,522.832 2104.42,592.729 2105.46,593.444 2106.51,444.655 2107.55,446.045 2108.59,400.094 2109.64,401.489 2110.68,575.973 2111.72,577.297 2112.77,503.167 2113.81,503.635 2114.86,462.409 2115.9,462.96 2116.94,382.373 2117.99,383.037 2119.03,432.647 2120.07,433.498 2121.12,517.423 2122.16,518.337 2123.2,497.974 2124.25,498.726 2125.29,395.947 2126.33,396.978 2127.38,563.687 2128.42,564.199 2129.46,509.183 2130.51,510.531 2131.55,535.796 2132.59,536.43 2133.64,525.927 2134.68,526.817 2135.72,368.022 2136.77,370.175 2137.81,621.819 2138.85,623.22 2139.9,441.687 2140.94,442.197 2141.98,602.01 2143.03,603.117 2144.07,623.503 2145.11,624.392 2146.16,476.192 2147.2,477.302 2148.24,431.057 2149.29,432.85 2150.33,496.827 2151.37,497.916 2152.42,673.901 2153.46,675.051 2154.51,566.348 2155.55,567.565 2156.59,489.19 2157.64,489.949 2158.68,535.837 2159.72,537.988 2160.77,433.775 2161.81,434.396 2162.85,474.431 2163.9,475.972 2164.94,462.817 2165.98,463.644 2167.03,517.679 2168.07,518.088 2169.11,472.656 2170.16,473.422 2171.2,556.589 2172.24,557.654 2173.29,674.587 2174.33,674.853 2175.37,510.427 2176.42,511.25 2177.46,439.138 2178.5,440.877 2179.55,417.102 2180.59,417.84 2181.63,636.608 2182.68,637.014 2183.72,507.718 2184.76,508.435 2185.81,374.903 2186.85,377.181 2187.89,486.902 2188.94,487.701 2189.98,601.216 2191.03,602.852 2192.07,560.744 2193.11,561.332 2194.16,424.142 2195.2,425.235 2196.24,411.239 2197.29,411.854 2198.33,446.459 2199.37,447.849 2200.42,437.73 2201.46,438.542 2202.5,548.562 2203.55,549.895 2204.59,806.888 2205.63,807.513 2206.68,646.177 2207.72,646.579 2208.76,434.883 2209.81,435.746 2210.85,403.221 2211.89,404.727 2212.94,603.144 2213.98,603.679 2215.02,536.075 2216.07,536.648 2217.11,437.6 2218.15,438.049 2219.2,420.535 2220.24,421 2221.28,631.312 2222.33,632.371 2223.37,504.01 2224.41,505.361 2225.46,606.276 2226.5,607.075 2227.54,411.094 2228.59,412.999 2229.63,409.849 2230.68,410.805 2231.72,449.145 2232.76,449.816 2233.81,456.053 2234.85,456.952 2235.89,364.069 2236.94,365.403 2237.98,454.095 2239.02,455.017 2240.07,391.925 2241.11,394.396 2242.15,496.977 2243.2,498.393 2244.24,320.238 2245.28,321.311 2246.33,665.242 2247.37,667.261 2248.41,527.195 2249.46,528.995 2250.5,252.48 2251.54,254.674 2252.59,396.17 2253.63,397.55 2254.67,521.751 2255.72,522.015 2256.76,353.293 2257.8,354.892 2258.85,657.616 2259.89,658.391 2260.93,453.663 2261.98,454.208 2263.02,272.396 2264.06,273.758 2265.11,493.966 2266.15,495.343 2267.2,465.922 2268.24,467.533 2269.28,599.062 2270.33,600.71 2271.37,368.545 2272.41,369.596 2273.46,506.932 2274.5,509.148 2275.54,409.752 2276.59,410.639 2277.63,463.514 2278.67,464.698 2279.72,440.153 2280.76,441.179 2281.8,521.492 2282.85,523.537 2283.89,561.897 2284.93,563.352 2285.98,464.922 2287.02,466.964 2288.06,528.145 2289.11,528.638 2290.15,529.058 "/>
<path clip-path="url(#clip010)" d="M2005.38 1438.47 L2279.02 1438.47 L2279.02 1334.79 L2005.38 1334.79  Z" fill="#ffffff" fill-rule="evenodd" fill-opacity="1"/>
<polyline clip-path="url(#clip010)" style="stroke:#000000; stroke-linecap:round; stroke-linejoin:round; stroke-width:4; stroke-opacity:1; fill:none" points="2005.38,1438.47 2279.02,1438.47 2279.02,1334.79 2005.38,1334.79 2005.38,1438.47 "/>
<polyline clip-path="url(#clip010)" style="stroke:#009af9; stroke-linecap:round; stroke-linejoin:round; stroke-width:4; stroke-opacity:1; fill:none" points="2029.96,1386.63 2177.43,1386.63 "/>
<path clip-path="url(#clip010)" d="M2215.85 1406.32 Q2214.05 1410.95 2212.34 1412.36 Q2210.62 1413.78 2207.75 1413.78 L2204.35 1413.78 L2204.35 1410.21 L2206.85 1410.21 Q2208.61 1410.21 2209.58 1409.38 Q2210.55 1408.54 2211.73 1405.44 L2212.5 1403.5 L2202.01 1377.99 L2206.53 1377.99 L2214.63 1398.27 L2222.73 1377.99 L2227.24 1377.99 L2215.85 1406.32 Z" fill="#000000" fill-rule="nonzero" fill-opacity="1" /><path clip-path="url(#clip010)" d="M2234.53 1399.98 L2242.17 1399.98 L2242.17 1373.61 L2233.86 1375.28 L2233.86 1371.02 L2242.13 1369.35 L2246.8 1369.35 L2246.8 1399.98 L2254.44 1399.98 L2254.44 1403.91 L2234.53 1403.91 L2234.53 1399.98 Z" fill="#000000" fill-rule="nonzero" fill-opacity="1" /></svg>
