<?xml version="1.0" encoding="utf-8"?>
<svg xmlns="http://www.w3.org/2000/svg" xmlns:xlink="http://www.w3.org/1999/xlink" width="600" height="400" viewBox="0 0 2400 1600">
<defs>
  <clipPath id="clip180">
    <rect x="0" y="0" width="2400" height="1600"/>
  </clipPath>
</defs>
<path clip-path="url(#clip180)" d="M0 1600 L2400 1600 L2400 0 L0 0  Z" fill="#ffffff" fill-rule="evenodd" fill-opacity="1"/>
<defs>
  <clipPath id="clip181">
    <rect x="480" y="0" width="1681" height="1600"/>
  </clipPath>
</defs>
<path clip-path="url(#clip180)" d="M209.029 1486.45 L2352.76 1486.45 L2352.76 47.2441 L209.029 47.2441  Z" fill="#ffffff" fill-rule="evenodd" fill-opacity="1"/>
<defs>
  <clipPath id="clip182">
    <rect x="209" y="47" width="2145" height="1440"/>
  </clipPath>
</defs>
<polyline clip-path="url(#clip182)" style="stroke:#000000; stroke-linecap:round; stroke-linejoin:round; stroke-width:2; stroke-opacity:0.1; fill:none" points="269.7,1486.45 269.7,47.2441 "/>
<polyline clip-path="url(#clip182)" style="stroke:#000000; stroke-linecap:round; stroke-linejoin:round; stroke-width:2; stroke-opacity:0.1; fill:none" points="775.549,1486.45 775.549,47.2441 "/>
<polyline clip-path="url(#clip182)" style="stroke:#000000; stroke-linecap:round; stroke-linejoin:round; stroke-width:2; stroke-opacity:0.1; fill:none" points="1281.4,1486.45 1281.4,47.2441 "/>
<polyline clip-path="url(#clip182)" style="stroke:#000000; stroke-linecap:round; stroke-linejoin:round; stroke-width:2; stroke-opacity:0.1; fill:none" points="1787.25,1486.45 1787.25,47.2441 "/>
<polyline clip-path="url(#clip182)" style="stroke:#000000; stroke-linecap:round; stroke-linejoin:round; stroke-width:2; stroke-opacity:0.1; fill:none" points="2293.1,1486.45 2293.1,47.2441 "/>
<polyline clip-path="url(#clip180)" style="stroke:#000000; stroke-linecap:round; stroke-linejoin:round; stroke-width:4; stroke-opacity:1; fill:none" points="209.029,1486.45 2352.76,1486.45 "/>
<polyline clip-path="url(#clip180)" style="stroke:#000000; stroke-linecap:round; stroke-linejoin:round; stroke-width:4; stroke-opacity:1; fill:none" points="269.7,1486.45 269.7,1467.55 "/>
<polyline clip-path="url(#clip180)" style="stroke:#000000; stroke-linecap:round; stroke-linejoin:round; stroke-width:4; stroke-opacity:1; fill:none" points="775.549,1486.45 775.549,1467.55 "/>
<polyline clip-path="url(#clip180)" style="stroke:#000000; stroke-linecap:round; stroke-linejoin:round; stroke-width:4; stroke-opacity:1; fill:none" points="1281.4,1486.45 1281.4,1467.55 "/>
<polyline clip-path="url(#clip180)" style="stroke:#000000; stroke-linecap:round; stroke-linejoin:round; stroke-width:4; stroke-opacity:1; fill:none" points="1787.25,1486.45 1787.25,1467.55 "/>
<polyline clip-path="url(#clip180)" style="stroke:#000000; stroke-linecap:round; stroke-linejoin:round; stroke-width:4; stroke-opacity:1; fill:none" points="2293.1,1486.45 2293.1,1467.55 "/>
<path clip-path="url(#clip180)" d="M269.7 1517.37 Q266.089 1517.37 264.26 1520.93 Q262.455 1524.47 262.455 1531.6 Q262.455 1538.71 264.26 1542.27 Q266.089 1545.82 269.7 1545.82 Q273.334 1545.82 275.14 1542.27 Q276.969 1538.71 276.969 1531.6 Q276.969 1524.47 275.14 1520.93 Q273.334 1517.37 269.7 1517.37 M269.7 1513.66 Q275.51 1513.66 278.566 1518.27 Q281.644 1522.85 281.644 1531.6 Q281.644 1540.33 278.566 1544.94 Q275.51 1549.52 269.7 1549.52 Q263.89 1549.52 260.811 1544.94 Q257.756 1540.33 257.756 1531.6 Q257.756 1522.85 260.811 1518.27 Q263.89 1513.66 269.7 1513.66 Z" fill="#000000" fill-rule="nonzero" fill-opacity="1" /><path clip-path="url(#clip180)" d="M735.167 1514.29 L753.524 1514.29 L753.524 1518.22 L739.45 1518.22 L739.45 1526.7 Q740.468 1526.35 741.487 1526.19 Q742.505 1526 743.524 1526 Q749.311 1526 752.69 1529.17 Q756.07 1532.34 756.07 1537.76 Q756.07 1543.34 752.598 1546.44 Q749.126 1549.52 742.806 1549.52 Q740.63 1549.52 738.362 1549.15 Q736.116 1548.78 733.709 1548.04 L733.709 1543.34 Q735.792 1544.47 738.015 1545.03 Q740.237 1545.58 742.714 1545.58 Q746.718 1545.58 749.056 1543.48 Q751.394 1541.37 751.394 1537.76 Q751.394 1534.15 749.056 1532.04 Q746.718 1529.94 742.714 1529.94 Q740.839 1529.94 738.964 1530.35 Q737.112 1530.77 735.167 1531.65 L735.167 1514.29 Z" fill="#000000" fill-rule="nonzero" fill-opacity="1" /><path clip-path="url(#clip180)" d="M775.283 1517.37 Q771.672 1517.37 769.843 1520.93 Q768.038 1524.47 768.038 1531.6 Q768.038 1538.71 769.843 1542.27 Q771.672 1545.82 775.283 1545.82 Q778.917 1545.82 780.723 1542.27 Q782.551 1538.71 782.551 1531.6 Q782.551 1524.47 780.723 1520.93 Q778.917 1517.37 775.283 1517.37 M775.283 1513.66 Q781.093 1513.66 784.149 1518.27 Q787.227 1522.85 787.227 1531.6 Q787.227 1540.33 784.149 1544.94 Q781.093 1549.52 775.283 1549.52 Q769.473 1549.52 766.394 1544.94 Q763.338 1540.33 763.338 1531.6 Q763.338 1522.85 766.394 1518.27 Q769.473 1513.66 775.283 1513.66 Z" fill="#000000" fill-rule="nonzero" fill-opacity="1" /><path clip-path="url(#clip180)" d="M805.445 1517.37 Q801.834 1517.37 800.005 1520.93 Q798.199 1524.47 798.199 1531.6 Q798.199 1538.71 800.005 1542.27 Q801.834 1545.82 805.445 1545.82 Q809.079 1545.82 810.885 1542.27 Q812.713 1538.71 812.713 1531.6 Q812.713 1524.47 810.885 1520.93 Q809.079 1517.37 805.445 1517.37 M805.445 1513.66 Q811.255 1513.66 814.31 1518.27 Q817.389 1522.85 817.389 1531.6 Q817.389 1540.33 814.31 1544.94 Q811.255 1549.52 805.445 1549.52 Q799.635 1549.52 796.556 1544.94 Q793.5 1540.33 793.5 1531.6 Q793.5 1522.85 796.556 1518.27 Q799.635 1513.66 805.445 1513.66 Z" fill="#000000" fill-rule="nonzero" fill-opacity="1" /><path clip-path="url(#clip180)" d="M1225.92 1544.91 L1233.56 1544.91 L1233.56 1518.55 L1225.25 1520.21 L1225.25 1515.95 L1233.52 1514.29 L1238.19 1514.29 L1238.19 1544.91 L1245.83 1544.91 L1245.83 1548.85 L1225.92 1548.85 L1225.92 1544.91 Z" fill="#000000" fill-rule="nonzero" fill-opacity="1" /><path clip-path="url(#clip180)" d="M1265.28 1517.37 Q1261.66 1517.37 1259.84 1520.93 Q1258.03 1524.47 1258.03 1531.6 Q1258.03 1538.71 1259.84 1542.27 Q1261.66 1545.82 1265.28 1545.82 Q1268.91 1545.82 1270.72 1542.27 Q1272.54 1538.71 1272.54 1531.6 Q1272.54 1524.47 1270.72 1520.93 Q1268.91 1517.37 1265.28 1517.37 M1265.28 1513.66 Q1271.09 1513.66 1274.14 1518.27 Q1277.22 1522.85 1277.22 1531.6 Q1277.22 1540.33 1274.14 1544.94 Q1271.09 1549.52 1265.28 1549.52 Q1259.47 1549.52 1256.39 1544.94 Q1253.33 1540.33 1253.33 1531.6 Q1253.33 1522.85 1256.39 1518.27 Q1259.47 1513.66 1265.28 1513.66 Z" fill="#000000" fill-rule="nonzero" fill-opacity="1" /><path clip-path="url(#clip180)" d="M1295.44 1517.37 Q1291.83 1517.37 1290 1520.93 Q1288.19 1524.47 1288.19 1531.6 Q1288.19 1538.71 1290 1542.27 Q1291.83 1545.82 1295.44 1545.82 Q1299.07 1545.82 1300.88 1542.27 Q1302.71 1538.71 1302.71 1531.6 Q1302.71 1524.47 1300.88 1520.93 Q1299.07 1517.37 1295.44 1517.37 M1295.44 1513.66 Q1301.25 1513.66 1304.3 1518.27 Q1307.38 1522.85 1307.38 1531.6 Q1307.38 1540.33 1304.3 1544.94 Q1301.25 1549.52 1295.44 1549.52 Q1289.63 1549.52 1286.55 1544.94 Q1283.49 1540.33 1283.49 1531.6 Q1283.49 1522.85 1286.55 1518.27 Q1289.63 1513.66 1295.44 1513.66 Z" fill="#000000" fill-rule="nonzero" fill-opacity="1" /><path clip-path="url(#clip180)" d="M1325.6 1517.37 Q1321.99 1517.37 1320.16 1520.93 Q1318.35 1524.47 1318.35 1531.6 Q1318.35 1538.71 1320.16 1542.27 Q1321.99 1545.82 1325.6 1545.82 Q1329.23 1545.82 1331.04 1542.27 Q1332.87 1538.71 1332.87 1531.6 Q1332.87 1524.47 1331.04 1520.93 Q1329.23 1517.37 1325.6 1517.37 M1325.6 1513.66 Q1331.41 1513.66 1334.46 1518.27 Q1337.54 1522.85 1337.54 1531.6 Q1337.54 1540.33 1334.46 1544.94 Q1331.41 1549.52 1325.6 1549.52 Q1319.79 1549.52 1316.71 1544.94 Q1313.65 1540.33 1313.65 1531.6 Q1313.65 1522.85 1316.71 1518.27 Q1319.79 1513.66 1325.6 1513.66 Z" fill="#000000" fill-rule="nonzero" fill-opacity="1" /><path clip-path="url(#clip180)" d="M1731.77 1544.91 L1739.41 1544.91 L1739.41 1518.55 L1731.1 1520.21 L1731.1 1515.95 L1739.37 1514.29 L1744.04 1514.29 L1744.04 1544.91 L1751.68 1544.91 L1751.68 1548.85 L1731.77 1548.85 L1731.77 1544.91 Z" fill="#000000" fill-rule="nonzero" fill-opacity="1" /><path clip-path="url(#clip180)" d="M1761.17 1514.29 L1779.53 1514.29 L1779.53 1518.22 L1765.45 1518.22 L1765.45 1526.7 Q1766.47 1526.35 1767.49 1526.19 Q1768.51 1526 1769.53 1526 Q1775.31 1526 1778.69 1529.17 Q1782.07 1532.34 1782.07 1537.76 Q1782.07 1543.34 1778.6 1546.44 Q1775.13 1549.52 1768.81 1549.52 Q1766.63 1549.52 1764.37 1549.15 Q1762.12 1548.78 1759.71 1548.04 L1759.71 1543.34 Q1761.8 1544.47 1764.02 1545.03 Q1766.24 1545.58 1768.72 1545.58 Q1772.72 1545.58 1775.06 1543.48 Q1777.4 1541.37 1777.4 1537.76 Q1777.4 1534.15 1775.06 1532.04 Q1772.72 1529.94 1768.72 1529.94 Q1766.84 1529.94 1764.97 1530.35 Q1763.12 1530.77 1761.17 1531.65 L1761.17 1514.29 Z" fill="#000000" fill-rule="nonzero" fill-opacity="1" /><path clip-path="url(#clip180)" d="M1801.29 1517.37 Q1797.68 1517.37 1795.85 1520.93 Q1794.04 1524.47 1794.04 1531.6 Q1794.04 1538.71 1795.85 1542.27 Q1797.68 1545.82 1801.29 1545.82 Q1804.92 1545.82 1806.73 1542.27 Q1808.55 1538.71 1808.55 1531.6 Q1808.55 1524.47 1806.73 1520.93 Q1804.92 1517.37 1801.29 1517.37 M1801.29 1513.66 Q1807.1 1513.66 1810.15 1518.27 Q1813.23 1522.85 1813.23 1531.6 Q1813.23 1540.33 1810.15 1544.94 Q1807.1 1549.52 1801.29 1549.52 Q1795.48 1549.52 1792.4 1544.94 Q1789.34 1540.33 1789.34 1531.6 Q1789.34 1522.85 1792.4 1518.27 Q1795.48 1513.66 1801.29 1513.66 Z" fill="#000000" fill-rule="nonzero" fill-opacity="1" /><path clip-path="url(#clip180)" d="M1831.45 1517.37 Q1827.84 1517.37 1826.01 1520.93 Q1824.2 1524.47 1824.2 1531.6 Q1824.2 1538.71 1826.01 1542.27 Q1827.84 1545.82 1831.45 1545.82 Q1835.08 1545.82 1836.89 1542.27 Q1838.72 1538.71 1838.72 1531.6 Q1838.72 1524.47 1836.89 1520.93 Q1835.08 1517.37 1831.45 1517.37 M1831.45 1513.66 Q1837.26 1513.66 1840.31 1518.27 Q1843.39 1522.85 1843.39 1531.6 Q1843.39 1540.33 1840.31 1544.94 Q1837.26 1549.52 1831.45 1549.52 Q1825.64 1549.52 1822.56 1544.94 Q1819.5 1540.33 1819.5 1531.6 Q1819.5 1522.85 1822.56 1518.27 Q1825.64 1513.66 1831.45 1513.66 Z" fill="#000000" fill-rule="nonzero" fill-opacity="1" /><path clip-path="url(#clip180)" d="M2241.71 1544.91 L2258.03 1544.91 L2258.03 1548.85 L2236.08 1548.85 L2236.08 1544.91 Q2238.74 1542.16 2243.33 1537.53 Q2247.93 1532.88 2249.11 1531.53 Q2251.36 1529.01 2252.24 1527.27 Q2253.14 1525.51 2253.14 1523.82 Q2253.14 1521.07 2251.2 1519.33 Q2249.28 1517.6 2246.18 1517.6 Q2243.98 1517.6 2241.52 1518.36 Q2239.09 1519.13 2236.31 1520.68 L2236.31 1515.95 Q2239.14 1514.82 2241.59 1514.24 Q2244.05 1513.66 2246.08 1513.66 Q2251.45 1513.66 2254.65 1516.35 Q2257.84 1519.03 2257.84 1523.52 Q2257.84 1525.65 2257.03 1527.57 Q2256.24 1529.47 2254.14 1532.07 Q2253.56 1532.74 2250.46 1535.95 Q2247.36 1539.15 2241.71 1544.91 Z" fill="#000000" fill-rule="nonzero" fill-opacity="1" /><path clip-path="url(#clip180)" d="M2277.84 1517.37 Q2274.23 1517.37 2272.4 1520.93 Q2270.6 1524.47 2270.6 1531.6 Q2270.6 1538.71 2272.4 1542.27 Q2274.23 1545.82 2277.84 1545.82 Q2281.48 1545.82 2283.28 1542.27 Q2285.11 1538.71 2285.11 1531.6 Q2285.11 1524.47 2283.28 1520.93 Q2281.48 1517.37 2277.84 1517.37 M2277.84 1513.66 Q2283.65 1513.66 2286.71 1518.27 Q2289.79 1522.85 2289.79 1531.6 Q2289.79 1540.33 2286.71 1544.94 Q2283.65 1549.52 2277.84 1549.52 Q2272.03 1549.52 2268.95 1544.94 Q2265.9 1540.33 2265.9 1531.6 Q2265.9 1522.85 2268.95 1518.27 Q2272.03 1513.66 2277.84 1513.66 Z" fill="#000000" fill-rule="nonzero" fill-opacity="1" /><path clip-path="url(#clip180)" d="M2308 1517.37 Q2304.39 1517.37 2302.56 1520.93 Q2300.76 1524.47 2300.76 1531.6 Q2300.76 1538.71 2302.56 1542.27 Q2304.39 1545.82 2308 1545.82 Q2311.64 1545.82 2313.44 1542.27 Q2315.27 1538.71 2315.27 1531.6 Q2315.27 1524.47 2313.44 1520.93 Q2311.64 1517.37 2308 1517.37 M2308 1513.66 Q2313.81 1513.66 2316.87 1518.27 Q2319.95 1522.85 2319.95 1531.6 Q2319.95 1540.33 2316.87 1544.94 Q2313.81 1549.52 2308 1549.52 Q2302.19 1549.52 2299.11 1544.94 Q2296.06 1540.33 2296.06 1531.6 Q2296.06 1522.85 2299.11 1518.27 Q2302.19 1513.66 2308 1513.66 Z" fill="#000000" fill-rule="nonzero" fill-opacity="1" /><path clip-path="url(#clip180)" d="M2338.17 1517.37 Q2334.55 1517.37 2332.73 1520.93 Q2330.92 1524.47 2330.92 1531.6 Q2330.92 1538.71 2332.73 1542.27 Q2334.55 1545.82 2338.17 1545.82 Q2341.8 1545.82 2343.61 1542.27 Q2345.43 1538.71 2345.43 1531.6 Q2345.43 1524.47 2343.61 1520.93 Q2341.8 1517.37 2338.17 1517.37 M2338.17 1513.66 Q2343.98 1513.66 2347.03 1518.27 Q2350.11 1522.85 2350.11 1531.6 Q2350.11 1540.33 2347.03 1544.94 Q2343.98 1549.52 2338.17 1549.52 Q2332.36 1549.52 2329.28 1544.94 Q2326.22 1540.33 2326.22 1531.6 Q2326.22 1522.85 2329.28 1518.27 Q2332.36 1513.66 2338.17 1513.66 Z" fill="#000000" fill-rule="nonzero" fill-opacity="1" /><polyline clip-path="url(#clip182)" style="stroke:#000000; stroke-linecap:round; stroke-linejoin:round; stroke-width:2; stroke-opacity:0.1; fill:none" points="209.029,1417.9 2352.76,1417.9 "/>
<polyline clip-path="url(#clip182)" style="stroke:#000000; stroke-linecap:round; stroke-linejoin:round; stroke-width:2; stroke-opacity:0.1; fill:none" points="209.029,1220.91 2352.76,1220.91 "/>
<polyline clip-path="url(#clip182)" style="stroke:#000000; stroke-linecap:round; stroke-linejoin:round; stroke-width:2; stroke-opacity:0.1; fill:none" points="209.029,1023.91 2352.76,1023.91 "/>
<polyline clip-path="url(#clip182)" style="stroke:#000000; stroke-linecap:round; stroke-linejoin:round; stroke-width:2; stroke-opacity:0.1; fill:none" points="209.029,826.92 2352.76,826.92 "/>
<polyline clip-path="url(#clip182)" style="stroke:#000000; stroke-linecap:round; stroke-linejoin:round; stroke-width:2; stroke-opacity:0.1; fill:none" points="209.029,629.926 2352.76,629.926 "/>
<polyline clip-path="url(#clip182)" style="stroke:#000000; stroke-linecap:round; stroke-linejoin:round; stroke-width:2; stroke-opacity:0.1; fill:none" points="209.029,432.933 2352.76,432.933 "/>
<polyline clip-path="url(#clip182)" style="stroke:#000000; stroke-linecap:round; stroke-linejoin:round; stroke-width:2; stroke-opacity:0.1; fill:none" points="209.029,235.939 2352.76,235.939 "/>
<polyline clip-path="url(#clip180)" style="stroke:#000000; stroke-linecap:round; stroke-linejoin:round; stroke-width:4; stroke-opacity:1; fill:none" points="209.029,1486.45 209.029,47.2441 "/>
<polyline clip-path="url(#clip180)" style="stroke:#000000; stroke-linecap:round; stroke-linejoin:round; stroke-width:4; stroke-opacity:1; fill:none" points="209.029,1417.9 227.926,1417.9 "/>
<polyline clip-path="url(#clip180)" style="stroke:#000000; stroke-linecap:round; stroke-linejoin:round; stroke-width:4; stroke-opacity:1; fill:none" points="209.029,1220.91 227.926,1220.91 "/>
<polyline clip-path="url(#clip180)" style="stroke:#000000; stroke-linecap:round; stroke-linejoin:round; stroke-width:4; stroke-opacity:1; fill:none" points="209.029,1023.91 227.926,1023.91 "/>
<polyline clip-path="url(#clip180)" style="stroke:#000000; stroke-linecap:round; stroke-linejoin:round; stroke-width:4; stroke-opacity:1; fill:none" points="209.029,826.92 227.926,826.92 "/>
<polyline clip-path="url(#clip180)" style="stroke:#000000; stroke-linecap:round; stroke-linejoin:round; stroke-width:4; stroke-opacity:1; fill:none" points="209.029,629.926 227.926,629.926 "/>
<polyline clip-path="url(#clip180)" style="stroke:#000000; stroke-linecap:round; stroke-linejoin:round; stroke-width:4; stroke-opacity:1; fill:none" points="209.029,432.933 227.926,432.933 "/>
<polyline clip-path="url(#clip180)" style="stroke:#000000; stroke-linecap:round; stroke-linejoin:round; stroke-width:4; stroke-opacity:1; fill:none" points="209.029,235.939 227.926,235.939 "/>
<path clip-path="url(#clip180)" d="M50.9921 1418.35 L80.6679 1418.35 L80.6679 1422.29 L50.9921 1422.29 L50.9921 1418.35 Z" fill="#000000" fill-rule="nonzero" fill-opacity="1" /><path clip-path="url(#clip180)" d="M91.5706 1431.25 L99.2095 1431.25 L99.2095 1404.88 L90.8993 1406.55 L90.8993 1402.29 L99.1632 1400.62 L103.839 1400.62 L103.839 1431.25 L111.478 1431.25 L111.478 1435.18 L91.5706 1435.18 L91.5706 1431.25 Z" fill="#000000" fill-rule="nonzero" fill-opacity="1" /><path clip-path="url(#clip180)" d="M131.501 1416.04 Q128.353 1416.04 126.501 1418.19 Q124.672 1420.34 124.672 1424.09 Q124.672 1427.82 126.501 1430 Q128.353 1432.15 131.501 1432.15 Q134.649 1432.15 136.478 1430 Q138.33 1427.82 138.33 1424.09 Q138.33 1420.34 136.478 1418.19 Q134.649 1416.04 131.501 1416.04 M140.783 1401.38 L140.783 1405.64 Q139.024 1404.81 137.219 1404.37 Q135.436 1403.93 133.677 1403.93 Q129.047 1403.93 126.594 1407.06 Q124.163 1410.18 123.816 1416.5 Q125.182 1414.49 127.242 1413.42 Q129.302 1412.33 131.779 1412.33 Q136.987 1412.33 139.996 1415.5 Q143.029 1418.65 143.029 1424.09 Q143.029 1429.42 139.881 1432.63 Q136.732 1435.85 131.501 1435.85 Q125.506 1435.85 122.334 1431.27 Q119.163 1426.66 119.163 1417.94 Q119.163 1409.74 123.052 1404.88 Q126.941 1400 133.492 1400 Q135.251 1400 137.033 1400.34 Q138.839 1400.69 140.783 1401.38 Z" fill="#000000" fill-rule="nonzero" fill-opacity="1" /><path clip-path="url(#clip180)" d="M161.084 1403.7 Q157.473 1403.7 155.644 1407.26 Q153.839 1410.81 153.839 1417.94 Q153.839 1425.04 155.644 1428.61 Q157.473 1432.15 161.084 1432.15 Q164.718 1432.15 166.524 1428.61 Q168.353 1425.04 168.353 1417.94 Q168.353 1410.81 166.524 1407.26 Q164.718 1403.7 161.084 1403.7 M161.084 1400 Q166.894 1400 169.95 1404.6 Q173.029 1409.19 173.029 1417.94 Q173.029 1426.66 169.95 1431.27 Q166.894 1435.85 161.084 1435.85 Q155.274 1435.85 152.195 1431.27 Q149.14 1426.66 149.14 1417.94 Q149.14 1409.19 152.195 1404.6 Q155.274 1400 161.084 1400 Z" fill="#000000" fill-rule="nonzero" fill-opacity="1" /><path clip-path="url(#clip180)" d="M50.9921 1221.36 L80.6679 1221.36 L80.6679 1225.29 L50.9921 1225.29 L50.9921 1221.36 Z" fill="#000000" fill-rule="nonzero" fill-opacity="1" /><path clip-path="url(#clip180)" d="M91.5706 1234.25 L99.2095 1234.25 L99.2095 1207.89 L90.8993 1209.55 L90.8993 1205.29 L99.1632 1203.63 L103.839 1203.63 L103.839 1234.25 L111.478 1234.25 L111.478 1238.19 L91.5706 1238.19 L91.5706 1234.25 Z" fill="#000000" fill-rule="nonzero" fill-opacity="1" /><path clip-path="url(#clip180)" d="M133.769 1207.7 L121.964 1226.15 L133.769 1226.15 L133.769 1207.7 M132.543 1203.63 L138.422 1203.63 L138.422 1226.15 L143.353 1226.15 L143.353 1230.04 L138.422 1230.04 L138.422 1238.19 L133.769 1238.19 L133.769 1230.04 L118.168 1230.04 L118.168 1225.52 L132.543 1203.63 Z" fill="#000000" fill-rule="nonzero" fill-opacity="1" /><path clip-path="url(#clip180)" d="M161.084 1206.71 Q157.473 1206.71 155.644 1210.27 Q153.839 1213.81 153.839 1220.94 Q153.839 1228.05 155.644 1231.61 Q157.473 1235.15 161.084 1235.15 Q164.718 1235.15 166.524 1231.61 Q168.353 1228.05 168.353 1220.94 Q168.353 1213.81 166.524 1210.27 Q164.718 1206.71 161.084 1206.71 M161.084 1203 Q166.894 1203 169.95 1207.61 Q173.029 1212.19 173.029 1220.94 Q173.029 1229.67 169.95 1234.27 Q166.894 1238.86 161.084 1238.86 Q155.274 1238.86 152.195 1234.27 Q149.14 1229.67 149.14 1220.94 Q149.14 1212.19 152.195 1207.61 Q155.274 1203 161.084 1203 Z" fill="#000000" fill-rule="nonzero" fill-opacity="1" /><path clip-path="url(#clip180)" d="M50.9921 1024.36 L80.6679 1024.36 L80.6679 1028.3 L50.9921 1028.3 L50.9921 1024.36 Z" fill="#000000" fill-rule="nonzero" fill-opacity="1" /><path clip-path="url(#clip180)" d="M91.5706 1037.26 L99.2095 1037.26 L99.2095 1010.89 L90.8993 1012.56 L90.8993 1008.3 L99.1632 1006.63 L103.839 1006.63 L103.839 1037.26 L111.478 1037.26 L111.478 1041.19 L91.5706 1041.19 L91.5706 1037.26 Z" fill="#000000" fill-rule="nonzero" fill-opacity="1" /><path clip-path="url(#clip180)" d="M124.95 1037.26 L141.269 1037.26 L141.269 1041.19 L119.325 1041.19 L119.325 1037.26 Q121.987 1034.5 126.57 1029.87 Q131.177 1025.22 132.357 1023.88 Q134.603 1021.36 135.482 1019.62 Q136.385 1017.86 136.385 1016.17 Q136.385 1013.42 134.441 1011.68 Q132.519 1009.94 129.418 1009.94 Q127.219 1009.94 124.765 1010.71 Q122.334 1011.47 119.557 1013.02 L119.557 1008.3 Q122.381 1007.17 124.834 1006.59 Q127.288 1006.01 129.325 1006.01 Q134.695 1006.01 137.89 1008.69 Q141.084 1011.38 141.084 1015.87 Q141.084 1018 140.274 1019.92 Q139.487 1021.82 137.381 1024.41 Q136.802 1025.08 133.7 1028.3 Q130.598 1031.49 124.95 1037.26 Z" fill="#000000" fill-rule="nonzero" fill-opacity="1" /><path clip-path="url(#clip180)" d="M161.084 1009.71 Q157.473 1009.71 155.644 1013.28 Q153.839 1016.82 153.839 1023.95 Q153.839 1031.05 155.644 1034.62 Q157.473 1038.16 161.084 1038.16 Q164.718 1038.16 166.524 1034.62 Q168.353 1031.05 168.353 1023.95 Q168.353 1016.82 166.524 1013.28 Q164.718 1009.71 161.084 1009.71 M161.084 1006.01 Q166.894 1006.01 169.95 1010.61 Q173.029 1015.2 173.029 1023.95 Q173.029 1032.67 169.95 1037.28 Q166.894 1041.86 161.084 1041.86 Q155.274 1041.86 152.195 1037.28 Q149.14 1032.67 149.14 1023.95 Q149.14 1015.2 152.195 1010.61 Q155.274 1006.01 161.084 1006.01 Z" fill="#000000" fill-rule="nonzero" fill-opacity="1" /><path clip-path="url(#clip180)" d="M50.9921 827.371 L80.6679 827.371 L80.6679 831.306 L50.9921 831.306 L50.9921 827.371 Z" fill="#000000" fill-rule="nonzero" fill-opacity="1" /><path clip-path="url(#clip180)" d="M91.5706 840.265 L99.2095 840.265 L99.2095 813.899 L90.8993 815.566 L90.8993 811.307 L99.1632 809.64 L103.839 809.64 L103.839 840.265 L111.478 840.265 L111.478 844.2 L91.5706 844.2 L91.5706 840.265 Z" fill="#000000" fill-rule="nonzero" fill-opacity="1" /><path clip-path="url(#clip180)" d="M130.922 812.719 Q127.311 812.719 125.482 816.283 Q123.677 819.825 123.677 826.955 Q123.677 834.061 125.482 837.626 Q127.311 841.167 130.922 841.167 Q134.556 841.167 136.362 837.626 Q138.191 834.061 138.191 826.955 Q138.191 819.825 136.362 816.283 Q134.556 812.719 130.922 812.719 M130.922 809.015 Q136.732 809.015 139.788 813.621 Q142.867 818.205 142.867 826.955 Q142.867 835.681 139.788 840.288 Q136.732 844.871 130.922 844.871 Q125.112 844.871 122.033 840.288 Q118.978 835.681 118.978 826.955 Q118.978 818.205 122.033 813.621 Q125.112 809.015 130.922 809.015 Z" fill="#000000" fill-rule="nonzero" fill-opacity="1" /><path clip-path="url(#clip180)" d="M161.084 812.719 Q157.473 812.719 155.644 816.283 Q153.839 819.825 153.839 826.955 Q153.839 834.061 155.644 837.626 Q157.473 841.167 161.084 841.167 Q164.718 841.167 166.524 837.626 Q168.353 834.061 168.353 826.955 Q168.353 819.825 166.524 816.283 Q164.718 812.719 161.084 812.719 M161.084 809.015 Q166.894 809.015 169.95 813.621 Q173.029 818.205 173.029 826.955 Q173.029 835.681 169.95 840.288 Q166.894 844.871 161.084 844.871 Q155.274 844.871 152.195 840.288 Q149.14 835.681 149.14 826.955 Q149.14 818.205 152.195 813.621 Q155.274 809.015 161.084 809.015 Z" fill="#000000" fill-rule="nonzero" fill-opacity="1" /><path clip-path="url(#clip180)" d="M81.154 630.378 L110.83 630.378 L110.83 634.313 L81.154 634.313 L81.154 630.378 Z" fill="#000000" fill-rule="nonzero" fill-opacity="1" /><path clip-path="url(#clip180)" d="M130.922 630.794 Q127.589 630.794 125.668 632.577 Q123.77 634.359 123.77 637.484 Q123.77 640.609 125.668 642.392 Q127.589 644.174 130.922 644.174 Q134.256 644.174 136.177 642.392 Q138.098 640.586 138.098 637.484 Q138.098 634.359 136.177 632.577 Q134.279 630.794 130.922 630.794 M126.246 628.804 Q123.237 628.063 121.547 626.003 Q119.881 623.943 119.881 620.98 Q119.881 616.836 122.82 614.429 Q125.783 612.021 130.922 612.021 Q136.084 612.021 139.024 614.429 Q141.964 616.836 141.964 620.98 Q141.964 623.943 140.274 626.003 Q138.607 628.063 135.621 628.804 Q139.001 629.591 140.876 631.882 Q142.774 634.174 142.774 637.484 Q142.774 642.507 139.695 645.193 Q136.64 647.878 130.922 647.878 Q125.205 647.878 122.126 645.193 Q119.07 642.507 119.07 637.484 Q119.07 634.174 120.969 631.882 Q122.867 629.591 126.246 628.804 M124.533 621.419 Q124.533 624.105 126.2 625.609 Q127.89 627.114 130.922 627.114 Q133.931 627.114 135.621 625.609 Q137.334 624.105 137.334 621.419 Q137.334 618.734 135.621 617.23 Q133.931 615.725 130.922 615.725 Q127.89 615.725 126.2 617.23 Q124.533 618.734 124.533 621.419 Z" fill="#000000" fill-rule="nonzero" fill-opacity="1" /><path clip-path="url(#clip180)" d="M161.084 615.725 Q157.473 615.725 155.644 619.29 Q153.839 622.832 153.839 629.961 Q153.839 637.068 155.644 640.632 Q157.473 644.174 161.084 644.174 Q164.718 644.174 166.524 640.632 Q168.353 637.068 168.353 629.961 Q168.353 622.832 166.524 619.29 Q164.718 615.725 161.084 615.725 M161.084 612.021 Q166.894 612.021 169.95 616.628 Q173.029 621.211 173.029 629.961 Q173.029 638.688 169.95 643.294 Q166.894 647.878 161.084 647.878 Q155.274 647.878 152.195 643.294 Q149.14 638.688 149.14 629.961 Q149.14 621.211 152.195 616.628 Q155.274 612.021 161.084 612.021 Z" fill="#000000" fill-rule="nonzero" fill-opacity="1" /><path clip-path="url(#clip180)" d="M81.154 433.384 L110.83 433.384 L110.83 437.319 L81.154 437.319 L81.154 433.384 Z" fill="#000000" fill-rule="nonzero" fill-opacity="1" /><path clip-path="url(#clip180)" d="M131.501 431.069 Q128.353 431.069 126.501 433.222 Q124.672 435.375 124.672 439.125 Q124.672 442.852 126.501 445.028 Q128.353 447.181 131.501 447.181 Q134.649 447.181 136.478 445.028 Q138.33 442.852 138.33 439.125 Q138.33 435.375 136.478 433.222 Q134.649 431.069 131.501 431.069 M140.783 416.417 L140.783 420.676 Q139.024 419.843 137.219 419.403 Q135.436 418.963 133.677 418.963 Q129.047 418.963 126.594 422.088 Q124.163 425.213 123.816 431.532 Q125.182 429.519 127.242 428.454 Q129.302 427.366 131.779 427.366 Q136.987 427.366 139.996 430.537 Q143.029 433.685 143.029 439.125 Q143.029 444.449 139.881 447.667 Q136.732 450.884 131.501 450.884 Q125.506 450.884 122.334 446.301 Q119.163 441.694 119.163 432.968 Q119.163 424.773 123.052 419.912 Q126.941 415.028 133.492 415.028 Q135.251 415.028 137.033 415.375 Q138.839 415.722 140.783 416.417 Z" fill="#000000" fill-rule="nonzero" fill-opacity="1" /><path clip-path="url(#clip180)" d="M161.084 418.732 Q157.473 418.732 155.644 422.296 Q153.839 425.838 153.839 432.968 Q153.839 440.074 155.644 443.639 Q157.473 447.181 161.084 447.181 Q164.718 447.181 166.524 443.639 Q168.353 440.074 168.353 432.968 Q168.353 425.838 166.524 422.296 Q164.718 418.732 161.084 418.732 M161.084 415.028 Q166.894 415.028 169.95 419.634 Q173.029 424.218 173.029 432.968 Q173.029 441.694 169.95 446.301 Q166.894 450.884 161.084 450.884 Q155.274 450.884 152.195 446.301 Q149.14 441.694 149.14 432.968 Q149.14 424.218 152.195 419.634 Q155.274 415.028 161.084 415.028 Z" fill="#000000" fill-rule="nonzero" fill-opacity="1" /><path clip-path="url(#clip180)" d="M81.154 236.391 L110.83 236.391 L110.83 240.326 L81.154 240.326 L81.154 236.391 Z" fill="#000000" fill-rule="nonzero" fill-opacity="1" /><path clip-path="url(#clip180)" d="M133.769 222.733 L121.964 241.182 L133.769 241.182 L133.769 222.733 M132.543 218.659 L138.422 218.659 L138.422 241.182 L143.353 241.182 L143.353 245.071 L138.422 245.071 L138.422 253.219 L133.769 253.219 L133.769 245.071 L118.168 245.071 L118.168 240.557 L132.543 218.659 Z" fill="#000000" fill-rule="nonzero" fill-opacity="1" /><path clip-path="url(#clip180)" d="M161.084 221.738 Q157.473 221.738 155.644 225.303 Q153.839 228.845 153.839 235.974 Q153.839 243.081 155.644 246.645 Q157.473 250.187 161.084 250.187 Q164.718 250.187 166.524 246.645 Q168.353 243.081 168.353 235.974 Q168.353 228.845 166.524 225.303 Q164.718 221.738 161.084 221.738 M161.084 218.034 Q166.894 218.034 169.95 222.641 Q173.029 227.224 173.029 235.974 Q173.029 244.701 169.95 249.307 Q166.894 253.891 161.084 253.891 Q155.274 253.891 152.195 249.307 Q149.14 244.701 149.14 235.974 Q149.14 227.224 152.195 222.641 Q155.274 218.034 161.084 218.034 Z" fill="#000000" fill-rule="nonzero" fill-opacity="1" /><polyline clip-path="url(#clip182)" style="stroke:#009af9; stroke-linecap:round; stroke-linejoin:round; stroke-width:4; stroke-opacity:1; fill:none" points="269.7,504.198 270.712,504.197 271.723,429.131 272.735,429.131 273.747,381.39 274.759,381.388 275.77,429.133 276.782,429.12 277.794,572.516 278.805,572.5 279.817,108.553 280.829,108.532 281.84,87.9931 282.852,87.9763 283.864,101.664 284.876,101.645 285.887,367.761 286.899,367.739 287.911,442.81 288.922,442.804 289.934,872.637 290.946,872.586 291.957,422.499 292.969,422.499 293.981,422.477 294.992,422.474 296.004,408.927 297.016,408.931 298.028,443.169 299.039,443.173 300.051,272.362 301.063,272.357 302.074,361.199 303.086,361.197 304.098,483.78 305.109,483.76 306.121,347.536 307.133,347.531 308.145,818.325 309.156,818.314 310.168,708.555 311.18,708.495 312.191,695.657 313.203,695.641 314.215,470.231 315.226,470.222 316.238,552.766 317.25,552.768 318.262,225.317 319.273,225.308 320.285,538.507 321.297,538.496 322.308,389.16 323.32,389.146 324.332,940.467 325.343,940.435 326.355,396.057 327.367,396.043 328.379,198.14 329.39,198.133 330.402,648.384 331.414,648.384 332.425,313.575 333.437,313.568 334.449,403.489 335.46,403.488 336.472,559.204 337.484,559.187 338.496,552.497 339.507,552.476 340.519,661.99 341.531,661.997 342.542,825.002 343.554,824.986 344.566,797.962 345.577,797.925 346.589,573.206 347.601,573.193 348.612,688.314 349.624,688.263 350.636,647.307 351.648,647.293 352.659,477.562 353.671,477.549 354.683,389.418 355.694,389.409 356.706,363.009 357.718,363.001 358.729,695.582 359.741,695.576 360.753,675.147 361.765,675.147 362.776,620.444 363.788,620.424 364.8,456.805 365.811,456.792 366.823,641.821 367.835,641.824 368.846,674.679 369.858,674.648 370.87,674.75 371.882,674.733 372.893,677.153 373.905,677.142 374.917,525.124 375.928,525.108 376.94,735.665 377.952,735.607 378.963,356.351 379.975,356.342 380.987,478.926 381.999,478.901 383.01,553.027 384.022,553.026 385.034,743.425 386.045,743.406 387.057,588.105 388.069,588.111 389.08,1068.93 390.092,1068.88 391.104,356.853 392.115,356.849 393.127,621.091 394.139,621.084 395.151,295.985 396.162,295.978 397.174,385.653 398.186,385.634 399.197,546.284 400.209,546.277 401.221,621.752 402.232,621.747 403.244,431.673 404.256,431.679 405.268,754.649 406.279,754.592 407.291,499.548 408.303,499.545 409.314,576.54 410.326,576.537 411.338,796.872 412.349,796.815 413.361,417.723 414.373,417.713 415.385,132.903 416.396,132.899 417.408,554.552 418.42,554.539 419.431,715.103 420.443,715.057 421.455,321.923 422.466,321.915 423.478,378.771 424.49,378.759 425.502,410.886 426.513,410.886 427.525,457.646 428.537,457.635 429.548,533.001 430.56,532.985 431.572,439.28 432.583,439.263 433.595,749.477 434.607,749.43 435.619,429.051 436.63,429.04 437.642,318.238 438.654,318.225 439.665,614.078 440.677,614.075 441.689,638.971 442.7,638.951 443.712,454.19 444.724,454.172 445.735,371.863 446.747,371.851 447.759,485.922 448.771,485.907 449.782,475.469 450.794,475.457 451.806,197.649 452.817,197.624 453.829,464.727 454.841,464.715 455.852,531.944 456.864,531.926 457.876,690.083 458.888,690.075 459.899,304.981 460.911,304.968 461.923,735.007 462.934,734.98 463.946,439.608 464.958,439.593 465.969,359.557 466.981,359.552 467.993,712.539 469.005,712.543 470.016,539.443 471.028,539.429 472.04,472.154 473.051,472.148 474.063,447.558 475.075,447.553 476.086,344.204 477.098,344.197 478.11,751.811 479.122,751.795 480.133,434.617 481.145,434.615 482.157,237.798 483.168,237.789 484.18,600.985 485.192,600.955 486.203,856.673 487.215,856.623 488.227,394.505 489.239,394.503 490.25,660.948 491.262,660.91 492.274,334.359 493.285,334.348 494.297,704.539 495.309,704.52 496.32,320.285 497.332,320.275 498.344,694.18 499.355,694.13 500.367,885.034 501.379,884.978 502.391,465.063 503.402,465.065 504.414,649.119 505.426,649.111 506.437,426.091 507.449,426.08 508.461,635.485 509.472,635.458 510.484,636.436 511.496,636.415 512.508,590.556 513.519,590.543 514.531,568.369 515.543,568.373 516.554,636.432 517.566,636.422 518.578,519.405 519.589,519.391 520.601,537.201 521.613,537.2 522.625,376.386 523.636,376.378 524.648,467.048 525.66,467.046 526.671,412.714 527.683,412.707 528.695,568.786 529.706,568.778 530.718,516.092 531.73,516.082 532.742,241.111 533.753,241.087 534.765,654.234 535.777,654.205 536.788,421.132 537.8,421.129 538.812,489.517 539.823,489.475 540.835,443.418 541.847,443.413 542.859,636.503 543.87,636.507 544.882,519.588 545.894,519.571 546.905,472.846 547.917,472.832 548.929,733.85 549.94,733.787 550.952,322.4 551.964,322.391 552.975,923.965 553.987,923.898 554.999,930.063 556.011,930.011 557.022,550.552 558.034,550.525 559.046,810.741 560.057,810.735 561.069,551.162 562.081,551.131 563.092,338.683 564.104,338.678 565.116,449.455 566.128,449.433 567.139,262.762 568.151,262.746 569.163,458.519 570.174,458.5 571.186,449.82 572.198,449.819 573.209,407.88 574.221,407.855 575.233,362.083 576.245,362.061 577.256,585.805 578.268,585.799 579.28,504.005 580.291,504.013 581.303,764.936 582.315,764.876 583.326,428.408 584.338,428.384 585.35,339.014 586.362,339.012 587.373,711.618 588.385,711.602 589.397,301.109 590.408,301.081 591.42,689.381 592.432,689.358 593.443,731.121 594.455,731.106 595.467,308.94 596.478,308.936 597.49,390.504 598.502,390.495 599.514,520.476 600.525,520.458 601.537,378.516 602.549,378.505 603.56,563.444 604.572,563.43 605.584,421.077 606.595,421.063 607.607,480.591 608.619,480.594 609.631,227.429 610.642,227.413 611.654,309.046 612.666,309.045 613.677,436.119 614.689,436.12 615.701,390.93 616.712,390.929 617.724,420.903 618.736,420.877 619.748,548.149 620.759,548.133 621.771,272.174 622.783,272.168 623.794,265.069 624.806,265.063 625.818,167.774 626.829,167.762 627.841,616.262 628.853,616.243 629.865,354.104 630.876,354.072 631.888,563.172 632.9,563.156 633.911,666.729 634.923,666.698 635.935,742.551 636.946,742.527 637.958,638.658 638.97,638.64 639.982,413.559 640.993,413.553 642.005,552.812 643.017,552.801 644.028,839.063 645.04,838.947 646.052,622.553 647.063,622.531 648.075,413.738 649.087,413.735 650.098,683.981 651.11,683.98 652.122,771.683 653.134,771.65 654.145,312.13 655.157,312.112 656.169,310.722 657.18,310.706 658.192,577.777 659.204,577.755 660.215,607.802 661.227,607.78 662.239,704.522 663.251,704.469 664.262,602.393 665.274,602.38 666.286,555.286 667.297,555.265 668.309,280.548 669.321,280.542 670.332,875.179 671.344,875.115 672.356,632.426 673.368,632.415 674.379,759.355 675.391,759.328 676.403,274.005 677.414,273.985 678.426,468.859 679.438,468.841 680.449,625.395 681.461,625.396 682.473,735.947 683.485,735.9 684.496,580.923 685.508,580.93 686.52,518.824 687.531,518.796 688.543,281.47 689.555,281.465 690.566,609.567 691.578,609.541 692.59,311.232 693.602,311.226 694.613,550.393 695.625,550.382 696.637,553.925 697.648,553.912 698.66,630.006 699.672,629.993 700.683,498.545 701.695,498.528 702.707,674.596 703.718,674.585 704.73,369.962 705.742,369.947 706.754,683.318 707.765,683.317 708.777,540.7 709.789,540.686 710.8,584.64 711.812,584.614 712.824,593.526 713.835,593.501 714.847,592.666 715.859,592.66 716.871,385.739 717.882,385.716 718.894,789.073 719.906,789.062 720.917,348.477 721.929,348.474 722.941,602.578 723.952,602.572 724.964,496.72 725.976,496.715 726.988,728.691 727.999,728.668 729.011,867.722 730.023,867.677 731.034,400.053 732.046,400.054 733.058,578.956 734.069,578.962 735.081,519.369 736.093,519.353 737.105,692.455 738.116,692.434 739.128,739.69 740.14,739.685 741.151,303.624 742.163,303.623 743.175,880.122 744.186,880.094 745.198,499.99 746.21,499.98 747.222,504.508 748.233,504.48 749.245,697.426 750.257,697.416 751.268,425.593 752.28,425.571 753.292,566.711 754.303,566.71 755.315,529.556 756.327,529.553 757.338,321.533 758.35,321.508 759.362,595.909 760.374,595.909 761.385,582.161 762.397,582.142 763.409,513.004 764.42,513.002 765.432,482.205 766.444,482.181 767.455,837.187 768.467,837.157 769.479,415.982 770.491,415.979 771.502,426.163 772.514,426.152 773.526,540.859 774.537,540.85 775.549,787.97 776.561,787.948 777.572,607.969 778.584,607.968 779.596,525.708 780.608,525.692 781.619,519.145 782.631,519.134 783.643,528.888 784.654,528.886 785.666,334.831 786.678,334.817 787.689,613.868 788.701,613.832 789.713,859.141 790.725,859.089 791.736,548.689 792.748,548.675 793.76,846.329 794.771,846.286 795.783,432.202 796.795,432.195 797.806,662.311 798.818,662.307 799.83,549.965 800.841,549.966 801.853,445.049 802.865,445.045 803.877,526.9 804.888,526.881 805.9,408.61 806.912,408.593 807.923,549.866 808.935,549.847 809.947,690.583 810.958,690.565 811.97,858.561 812.982,858.518 813.994,549.164 815.005,549.147 816.017,554.622 817.029,554.604 818.04,593.027 819.052,593.016 820.064,553.619 821.075,553.603 822.087,787.961 823.099,787.941 824.111,400.599 825.122,400.575 826.134,268.461 827.146,268.438 828.157,587.792 829.169,587.754 830.181,432.642 831.192,432.639 832.204,787.93 833.216,787.896 834.228,791.571 835.239,791.549 836.251,725.472 837.263,725.44 838.274,717.28 839.286,717.243 840.298,572.867 841.309,572.856 842.321,534.733 843.333,534.701 844.345,607.401 845.356,607.383 846.368,518.085 847.38,518.049 848.391,639.607 849.403,639.594 850.415,390.409 851.426,390.402 852.438,447.345 853.45,447.318 854.461,598.359 855.473,598.338 856.485,779.962 857.497,779.94 858.508,335.86 859.52,335.854 860.532,425.475 861.543,425.469 862.555,666.724 863.567,666.7 864.578,631.034 865.59,631.01 866.602,491.599 867.614,491.591 868.625,570.194 869.637,570.185 870.649,770.691 871.66,770.634 872.672,729.55 873.684,729.528 874.695,1016.58 875.707,1016.5 876.719,679.433 877.731,679.414 878.742,675.006 879.754,674.984 880.766,550.148 881.777,550.144 882.789,461.354 883.801,461.346 884.812,391.422 885.824,391.404 886.836,604.934 887.848,604.93 888.859,745.547 889.871,745.536 890.883,663.49 891.894,663.482 892.906,633.865 893.918,633.825 894.929,568.015 895.941,567.97 896.953,741.398 897.965,741.367 898.976,617.073 899.988,617.049 901,980.134 902.011,980.072 903.023,678.604 904.035,678.572 905.046,705.994 906.058,705.985 907.07,675.257 908.081,675.247 909.093,666.409 910.105,666.387 911.117,395.518 912.128,395.515 913.14,775.821 914.152,775.772 915.163,1007.5 916.175,1007.4 917.187,508.757 918.198,508.737 919.21,721.775 920.222,721.77 921.234,763.338 922.245,763.281 923.257,386.959 924.269,386.935 925.28,636.71 926.292,636.703 927.304,690.831 928.315,690.827 929.327,376.438 930.339,376.426 931.351,938.473 932.362,938.444 933.374,640.388 934.386,640.381 935.397,187.591 936.409,187.571 937.421,476.803 938.432,476.776 939.444,468.934 940.456,468.909 941.468,411.176 942.479,411.167 943.491,642.285 944.503,642.233 945.514,495.69 946.526,495.675 947.538,551.597 948.549,551.582 949.561,288.718 950.573,288.703 951.585,944.722 952.596,944.662 953.608,749.356 954.62,749.341 955.631,666.307 956.643,666.286 957.655,764.088 958.666,764.066 959.678,449.774 960.69,449.768 961.701,541.193 962.713,541.181 963.725,736.956 964.737,736.936 965.748,547.294 966.76,547.284 967.772,744.465 968.783,744.427 969.795,510.451 970.807,510.428 971.818,739.63 972.83,739.626 973.842,614.579 974.854,614.559 975.865,710.202 976.877,710.172 977.889,538.886 978.9,538.875 979.912,645.206 980.924,645.153 981.935,559.802 982.947,559.753 983.959,709.193 984.971,709.185 985.982,720.122 986.994,720.072 988.006,631.028 989.017,631.005 990.029,867.913 991.041,867.894 992.052,405.696 993.064,405.685 994.076,479.378 995.088,479.36 996.099,643.751 997.111,643.72 998.123,388.379 999.134,388.358 1000.15,346.156 1001.16,346.149 1002.17,485.151 1003.18,485.135 1004.19,511.022 1005.2,510.984 1006.22,485.705 1007.23,485.684 1008.24,832.955 1009.25,832.906 1010.26,513.194 1011.27,513.162 1012.29,278.269 1013.3,278.26 1014.31,363.226 1015.32,363.222 1016.33,611.454 1017.34,611.447 1018.36,721.737 1019.37,721.725 1020.38,552.156 1021.39,552.143 1022.4,1010.64 1023.42,1010.54 1024.43,307.381 1025.44,307.379 1026.45,420.477 1027.46,420.474 1028.47,884.947 1029.49,884.94 1030.5,428.785 1031.51,428.779 1032.52,766.06 1033.53,766.032 1034.54,330.448 1035.56,330.432 1036.57,600.504 1037.58,600.483 1038.59,685.887 1039.6,685.865 1040.61,607.966 1041.63,607.952 1042.64,544.308 1043.65,544.29 1044.66,790.875 1045.67,790.838 1046.68,828.858 1047.7,828.823 1048.71,717.689 1049.72,717.656 1050.73,241.686 1051.74,241.68 1052.75,675.056 1053.77,675.016 1054.78,730.13 1055.79,730.086 1056.8,793.998 1057.81,793.951 1058.82,402.664 1059.84,402.655 1060.85,340.204 1061.86,340.201 1062.87,380.36 1063.88,380.352 1064.89,688.948 1065.91,688.924 1066.92,746.674 1067.93,746.674 1068.94,852.738 1069.95,852.703 1070.96,476.285 1071.98,476.281 1072.99,728.431 1074,728.36 1075.01,1200.17 1076.02,1200.1 1077.04,673.331 1078.05,673.314 1079.06,640.472 1080.07,640.469 1081.08,670.119 1082.09,670.115 1083.11,528.819 1084.12,528.801 1085.13,783.957 1086.14,783.879 1087.15,827.094 1088.16,827.024 1089.18,723.196 1090.19,723.18 1091.2,785.897 1092.21,785.86 1093.22,495.848 1094.23,495.829 1095.25,666.423 1096.26,666.395 1097.27,479.176 1098.28,479.163 1099.29,633.64 1100.3,633.631 1101.32,672.23 1102.33,672.213 1103.34,647.404 1104.35,647.398 1105.36,504.166 1106.37,504.156 1107.39,558.884 1108.4,558.861 1109.41,913.483 1110.42,913.426 1111.43,443.757 1112.44,443.752 1113.46,930.139 1114.47,930.085 1115.48,806.372 1116.49,806.302 1117.5,644.298 1118.51,644.282 1119.53,687.062 1120.54,687.015 1121.55,510.942 1122.56,510.942 1123.57,463.44 1124.58,463.434 1125.6,366.392 1126.61,366.386 1127.62,545.476 1128.63,545.464 1129.64,510.964 1130.66,510.948 1131.67,512.8 1132.68,512.763 1133.69,781.617 1134.7,781.572 1135.71,617.265 1136.73,617.237 1137.74,633.397 1138.75,633.382 1139.76,686.187 1140.77,686.168 1141.78,579.805 1142.8,579.793 1143.81,610.479 1144.82,610.47 1145.83,591.491 1146.84,591.469 1147.85,862.398 1148.87,862.378 1149.88,1063.97 1150.89,1063.87 1151.9,515.35 1152.91,515.33 1153.92,633.802 1154.94,633.801 1155.95,688.542 1156.96,688.508 1157.97,479.718 1158.98,479.703 1159.99,649.404 1161.01,649.384 1162.02,954.286 1163.03,954.253 1164.04,1001.01 1165.05,1000.94 1166.06,871.267 1167.08,871.234 1168.09,758.741 1169.1,758.717 1170.11,782.332 1171.12,782.321 1172.13,430.249 1173.15,430.238 1174.16,659.134 1175.17,659.117 1176.18,538.66 1177.19,538.641 1178.2,854.481 1179.22,854.409 1180.23,546.158 1181.24,546.153 1182.25,718.12 1183.26,718.103 1184.28,624.213 1185.29,624.194 1186.3,810.261 1187.31,810.256 1188.32,977.387 1189.33,977.343 1190.35,869.473 1191.36,869.452 1192.37,740.229 1193.38,740.187 1194.39,769.502 1195.4,769.477 1196.42,824.388 1197.43,824.353 1198.44,753.875 1199.45,753.838 1200.46,1116.17 1201.47,1116.06 1202.49,749.209 1203.5,749.16 1204.51,717.495 1205.52,717.468 1206.53,680.111 1207.54,680.089 1208.56,447.4 1209.57,447.376 1210.58,478.772 1211.59,478.764 1212.6,391.032 1213.61,391.024 1214.63,690.291 1215.64,690.26 1216.65,385.683 1217.66,385.662 1218.67,575.994 1219.68,575.978 1220.7,344.181 1221.71,344.179 1222.72,711.76 1223.73,711.74 1224.74,622.486 1225.75,622.448 1226.77,499.255 1227.78,499.243 1228.79,408.08 1229.8,408.055 1230.81,794.858 1231.82,794.832 1232.84,336.804 1233.85,336.778 1234.86,818.651 1235.87,818.606 1236.88,643.99 1237.9,643.942 1238.91,376.198 1239.92,376.176 1240.93,664.437 1241.94,664.391 1242.95,643.521 1243.97,643.516 1244.98,327.528 1245.99,327.519 1247,231.805 1248.01,231.79 1249.02,797.052 1250.04,797.013 1251.05,637.125 1252.06,637.106 1253.07,505.772 1254.08,505.764 1255.09,603.551 1256.11,603.536 1257.12,667.087 1258.13,667.071 1259.14,705.203 1260.15,705.143 1261.16,677.119 1262.18,677.113 1263.19,657.054 1264.2,657.043 1265.21,999.74 1266.22,999.67 1267.23,640.156 1268.25,640.099 1269.26,499.208 1270.27,499.193 1271.28,659.037 1272.29,659.019 1273.3,362.375 1274.32,362.363 1275.33,498.046 1276.34,498.002 1277.35,1013.99 1278.36,1013.89 1279.37,694.894 1280.39,694.857 1281.4,579.879 1282.41,579.872 1283.42,882.599 1284.43,882.546 1285.44,456.138 1286.46,456.129 1287.47,662.279 1288.48,662.257 1289.49,608.714 1290.5,608.697 1291.52,765.573 1292.53,765.542 1293.54,1084.41 1294.55,1084.34 1295.56,797.174 1296.57,797.136 1297.59,739.487 1298.6,739.437 1299.61,1072.82 1300.62,1072.78 1301.63,363.945 1302.64,363.925 1303.66,887.348 1304.67,887.32 1305.68,831.512 1306.69,831.505 1307.7,541.04 1308.71,541.008 1309.73,1050.9 1310.74,1050.81 1311.75,605.185 1312.76,605.149 1313.77,742.314 1314.78,742.291 1315.8,448.492 1316.81,448.474 1317.82,304.088 1318.83,304.07 1319.84,469.922 1320.85,469.905 1321.87,628.973 1322.88,628.968 1323.89,903.586 1324.9,903.53 1325.91,531.657 1326.92,531.639 1327.94,465.52 1328.95,465.5 1329.96,782.265 1330.97,782.215 1331.98,932.473 1332.99,932.421 1334.01,799.643 1335.02,799.598 1336.03,629.561 1337.04,629.54 1338.05,714.381 1339.06,714.375 1340.08,586.87 1341.09,586.851 1342.1,660.828 1343.11,660.788 1344.12,723.038 1345.14,723.028 1346.15,924.458 1347.16,924.379 1348.17,635.038 1349.18,635.008 1350.19,1207.5 1351.21,1207.41 1352.22,718.871 1353.23,718.823 1354.24,793.34 1355.25,793.32 1356.26,421.067 1357.28,421.044 1358.29,510.498 1359.3,510.49 1360.31,743.579 1361.32,743.535 1362.33,923.78 1363.35,923.762 1364.36,500.619 1365.37,500.604 1366.38,729.718 1367.39,729.709 1368.4,612.739 1369.42,612.729 1370.43,1156.45 1371.44,1156.32 1372.45,735.73 1373.46,735.695 1374.47,825.893 1375.49,825.87 1376.5,825.88 1377.51,825.849 1378.52,678.473 1379.53,678.439 1380.54,1247.7 1381.56,1247.57 1382.57,595.147 1383.58,595.132 1384.59,612.344 1385.6,612.338 1386.61,752.072 1387.63,752.022 1388.64,805.307 1389.65,805.284 1390.66,530.299 1391.67,530.271 1392.68,558.91 1393.7,558.888 1394.71,1009.02 1395.72,1008.99 1396.73,476.165 1397.74,476.153 1398.76,665.355 1399.77,665.322 1400.78,523.796 1401.79,523.77 1402.8,420.544 1403.81,420.538 1404.83,815.857 1405.84,815.831 1406.85,938.024 1407.86,937.933 1408.87,657.624 1409.88,657.589 1410.9,894.606 1411.91,894.56 1412.92,786.91 1413.93,786.904 1414.94,751.112 1415.95,751.054 1416.97,1119.64 1417.98,1119.54 1418.99,833.753 1420,833.707 1421.01,853.11 1422.02,853.079 1423.04,409.856 1424.05,409.836 1425.06,823.75 1426.07,823.7 1427.08,504.612 1428.09,504.593 1429.11,733.497 1430.12,733.483 1431.13,724.069 1432.14,724.065 1433.15,804.333 1434.16,804.318 1435.18,634.999 1436.19,634.964 1437.2,1034.43 1438.21,1034.38 1439.22,605.265 1440.23,605.245 1441.25,475.408 1442.26,475.375 1443.27,542.687 1444.28,542.67 1445.29,815.064 1446.3,815.056 1447.32,468.81 1448.33,468.794 1449.34,623.75 1450.35,623.721 1451.36,797.497 1452.38,797.453 1453.39,422.093 1454.4,422.072 1455.41,746.663 1456.42,746.616 1457.43,915.455 1458.45,915.43 1459.46,759.372 1460.47,759.329 1461.48,449.64 1462.49,449.628 1463.5,669.634 1464.52,669.616 1465.53,899.512 1466.54,899.439 1467.55,605.942 1468.56,605.917 1469.57,504.995 1470.59,504.97 1471.6,643.284 1472.61,643.255 1473.62,615.137 1474.63,615.102 1475.64,550.454 1476.66,550.427 1477.67,742.625 1478.68,742.617 1479.69,817.299 1480.7,817.259 1481.71,705.777 1482.73,705.756 1483.74,357.902 1484.75,357.887 1485.76,660.583 1486.77,660.575 1487.78,833.933 1488.8,833.909 1489.81,808.408 1490.82,808.34 1491.83,703.828 1492.84,703.806 1493.85,731.031 1494.87,730.994 1495.88,695.333 1496.89,695.309 1497.9,431.947 1498.91,431.937 1499.92,477.622 1500.94,477.604 1501.95,660.755 1502.96,660.733 1503.97,713.339 1504.98,713.329 1506,521.123 1507.01,521.091 1508.02,550.903 1509.03,550.882 1510.04,895.636 1511.05,895.604 1512.07,944.099 1513.08,944.053 1514.09,841.669 1515.1,841.66 1516.11,1060.12 1517.12,1060.03 1518.14,488.538 1519.15,488.526 1520.16,913.39 1521.17,913.34 1522.18,967.619 1523.19,967.535 1524.21,954.075 1525.22,954.025 1526.23,989.87 1527.24,989.823 1528.25,769.979 1529.26,769.945 1530.28,669.479 1531.29,669.469 1532.3,741.813 1533.31,741.781 1534.32,561.606 1535.33,561.575 1536.35,632.097 1537.36,632.067 1538.37,851.806 1539.38,851.765 1540.39,505.16 1541.4,505.144 1542.42,668.632 1543.43,668.623 1544.44,805.252 1545.45,805.227 1546.46,867.91 1547.47,867.865 1548.49,860.917 1549.5,860.84 1550.51,760.282 1551.52,760.246 1552.53,615.3 1553.54,615.271 1554.56,799.26 1555.57,799.216 1556.58,695.991 1557.59,695.965 1558.6,589.18 1559.62,589.149 1560.63,442.805 1561.64,442.793 1562.65,523.181 1563.66,523.16 1564.67,523.462 1565.69,523.429 1566.7,551.271 1567.71,551.243 1568.72,659.131 1569.73,659.116 1570.74,397.454 1571.76,397.423 1572.77,488.138 1573.78,488.106 1574.79,544.128 1575.8,544.109 1576.81,532.194 1577.83,532.169 1578.84,751.409 1579.85,751.379 1580.86,586.564 1581.87,586.542 1582.88,577.732 1583.9,577.706 1584.91,742.986 1585.92,742.976 1586.93,850.578 1587.94,850.528 1588.95,815.363 1589.97,815.331 1590.98,514.716 1591.99,514.697 1593,705.083 1594.01,705.064 1595.02,753.079 1596.04,753.032 1597.05,651.166 1598.06,651.15 1599.07,334.358 1600.08,334.349 1601.09,613.224 1602.11,613.194 1603.12,615.164 1604.13,615.161 1605.14,1047.79 1606.15,1047.68 1607.16,787.958 1608.18,787.912 1609.19,533.716 1610.2,533.703 1611.21,649.45 1612.22,649.414 1613.24,885.944 1614.25,885.891 1615.26,390.162 1616.27,390.146 1617.28,832.78 1618.29,832.756 1619.31,534.622 1620.32,534.612 1621.33,675.078 1622.34,675.028 1623.35,414.451 1624.36,414.414 1625.38,489.499 1626.39,489.471 1627.4,709.112 1628.41,709.054 1629.42,562.411 1630.43,562.396 1631.45,660.154 1632.46,660.149 1633.47,536.478 1634.48,536.46 1635.49,770.419 1636.5,770.39 1637.52,550.778 1638.53,550.757 1639.54,993.585 1640.55,993.514 1641.56,588.063 1642.57,588.042 1643.59,877.288 1644.6,877.25 1645.61,813.743 1646.62,813.687 1647.63,1004.96 1648.64,1004.94 1649.66,815.036 1650.67,815.017 1651.68,600.892 1652.69,600.858 1653.7,571.683 1654.71,571.668 1655.73,1111.75 1656.74,1111.68 1657.75,751.83 1658.76,751.809 1659.77,663.371 1660.78,663.347 1661.8,605.495 1662.81,605.483 1663.82,867.312 1664.83,867.236 1665.84,732.708 1666.86,732.679 1667.87,822.539 1668.88,822.514 1669.89,624.804 1670.9,624.772 1671.91,813.718 1672.93,813.657 1673.94,669.895 1674.95,669.88 1675.96,759.038 1676.97,758.981 1677.98,984.307 1679,984.208 1680.01,501.129 1681.02,501.1 1682.03,607.102 1683.04,607.08 1684.05,796.662 1685.07,796.614 1686.08,689.437 1687.09,689.415 1688.1,1013.29 1689.11,1013.22 1690.12,858.498 1691.14,858.443 1692.15,705.285 1693.16,705.271 1694.17,689.794 1695.18,689.773 1696.19,747.979 1697.21,747.91 1698.22,875.25 1699.23,875.214 1700.24,532.927 1701.25,532.906 1702.26,781.927 1703.28,781.918 1704.29,595.18 1705.3,595.147 1706.31,839.85 1707.32,839.808 1708.33,760.662 1709.35,760.657 1710.36,823.23 1711.37,823.195 1712.38,1025.37 1713.39,1025.3 1714.4,1128.57 1715.42,1128.51 1716.43,678.75 1717.44,678.732 1718.45,1113.36 1719.46,1113.32 1720.47,701.644 1721.49,701.583 1722.5,446.229 1723.51,446.201 1724.52,696.382 1725.53,696.337 1726.55,583.533 1727.56,583.513 1728.57,760.036 1729.58,760.014 1730.59,1000.82 1731.6,1000.68 1732.62,534.714 1733.63,534.693 1734.64,1008 1735.65,1007.94 1736.66,742.985 1737.67,742.958 1738.69,1090.66 1739.7,1090.55 1740.71,509.286 1741.72,509.256 1742.73,454.788 1743.74,454.778 1744.76,932.352 1745.77,932.331 1746.78,537.079 1747.79,537.058 1748.8,914.949 1749.81,914.927 1750.83,588.246 1751.84,588.226 1752.85,922.444 1753.86,922.415 1754.87,987.244 1755.88,987.217 1756.9,854.092 1757.91,854.041 1758.92,511.693 1759.93,511.679 1760.94,597.615 1761.95,597.602 1762.97,779.869 1763.98,779.808 1764.99,915.052 1766,915.009 1767.01,950.274 1768.02,950.235 1769.04,879.533 1770.05,879.488 1771.06,1009.87 1772.07,1009.79 1773.08,1016.53 1774.09,1016.51 1775.11,877.041 1776.12,876.986 1777.13,671.51 1778.14,671.482 1779.15,1208.81 1780.17,1208.73 1781.18,560.481 1782.19,560.478 1783.2,1012.99 1784.21,1012.89 1785.22,640.286 1786.24,640.246 1787.25,816.207 1788.26,816.11 1789.27,528.51 1790.28,528.466 1791.29,1008.78 1792.31,1008.69 1793.32,851.88 1794.33,851.841 1795.34,264.424 1796.35,264.403 1797.36,873.441 1798.38,873.385 1799.39,936.832 1800.4,936.758 1801.41,679.888 1802.42,679.853 1803.43,976.113 1804.45,976.05 1805.46,1196.29 1806.47,1196.25 1807.48,633.444 1808.49,633.419 1809.5,1029.92 1810.52,1029.87 1811.53,608.773 1812.54,608.746 1813.55,545.102 1814.56,545.091 1815.57,461.751 1816.59,461.714 1817.6,790.742 1818.61,790.709 1819.62,805.689 1820.63,805.647 1821.64,916.776 1822.66,916.695 1823.67,802.536 1824.68,802.515 1825.69,1062.39 1826.7,1062.29 1827.71,632.067 1828.73,632.044 1829.74,536.466 1830.75,536.457 1831.76,1046.28 1832.77,1046.18 1833.79,1149.71 1834.8,1149.59 1835.81,703.976 1836.82,703.952 1837.83,701.846 1838.84,701.782 1839.86,659.547 1840.87,659.521 1841.88,768.309 1842.89,768.289 1843.9,1136.34 1844.91,1136.29 1845.93,971.816 1846.94,971.736 1847.95,824.079 1848.96,824.05 1849.97,1030.52 1850.98,1030.47 1852,672.346 1853.01,672.333 1854.02,743.783 1855.03,743.767 1856.04,518.168 1857.05,518.165 1858.07,779.648 1859.08,779.625 1860.09,942.73 1861.1,942.696 1862.11,986.22 1863.12,986.179 1864.14,690.843 1865.15,690.827 1866.16,813.022 1867.17,812.973 1868.18,934.178 1869.19,934.142 1870.21,778.021 1871.22,777.996 1872.23,875.608 1873.24,875.572 1874.25,1293.02 1875.26,1292.92 1876.28,652.013 1877.29,651.99 1878.3,768.028 1879.31,767.989 1880.32,1043.86 1881.33,1043.77 1882.35,924.179 1883.36,924.172 1884.37,1128.43 1885.38,1128.38 1886.39,853.834 1887.41,853.81 1888.42,742.107 1889.43,742.078 1890.44,589.932 1891.45,589.918 1892.46,927.128 1893.48,927.09 1894.49,814.504 1895.5,814.475 1896.51,744.367 1897.52,744.333 1898.53,556.679 1899.55,556.652 1900.56,856.833 1901.57,856.789 1902.58,497.337 1903.59,497.297 1904.6,1071.43 1905.62,1071.35 1906.63,697.611 1907.64,697.574 1908.65,800.691 1909.66,800.654 1910.67,673.757 1911.69,673.744 1912.7,829.296 1913.71,829.262 1914.72,601.758 1915.73,601.753 1916.74,622.144 1917.76,622.138 1918.77,676.261 1919.78,676.217 1920.79,820.467 1921.8,820.449 1922.81,936.887 1923.83,936.813 1924.84,714.512 1925.85,714.496 1926.86,1005.31 1927.87,1005.28 1928.88,649.059 1929.9,649.03 1930.91,747.017 1931.92,746.968 1932.93,885.94 1933.94,885.894 1934.95,1008.7 1935.97,1008.63 1936.98,1072.01 1937.99,1071.95 1939,573.545 1940.01,573.519 1941.03,482.802 1942.04,482.769 1943.05,581.685 1944.06,581.649 1945.07,496.709 1946.08,496.687 1947.1,819.556 1948.11,819.519 1949.12,767.051 1950.13,767.038 1951.14,735.917 1952.15,735.885 1953.17,910.923 1954.18,910.871 1955.19,754.934 1956.2,754.889 1957.21,673.952 1958.22,673.91 1959.24,730.464 1960.25,730.418 1961.26,902.389 1962.27,902.366 1963.28,455.952 1964.29,455.924 1965.31,1008.66 1966.32,1008.56 1967.33,747.527 1968.34,747.497 1969.35,917.304 1970.36,917.23 1971.38,629.456 1972.39,629.433 1973.4,807.621 1974.41,807.606 1975.42,694.266 1976.43,694.228 1977.45,579.378 1978.46,579.364 1979.47,839.949 1980.48,839.922 1981.49,966.269 1982.5,966.237 1983.52,1062.93 1984.53,1062.88 1985.54,1045.76 1986.55,1045.72 1987.56,498.591 1988.57,498.574 1989.59,1025.17 1990.6,1025.12 1991.61,913.856 1992.62,913.812 1993.63,674.199 1994.65,674.188 1995.66,653.553 1996.67,653.511 1997.68,987.217 1998.69,987.165 1999.7,1050.87 2000.72,1050.82 2001.73,723.32 2002.74,723.285 2003.75,936.584 2004.76,936.524 2005.77,696.56 2006.79,696.533 2007.8,871.613 2008.81,871.585 2009.82,1445.72 2010.83,1445.59 2011.84,821.298 2012.86,821.243 2013.87,707.374 2014.88,707.328 2015.89,684.202 2016.9,684.179 2017.91,945.473 2018.93,945.444 2019.94,1051.84 2020.95,1051.79 2021.96,1011.5 2022.97,1011.45 2023.98,676.806 2025,676.775 2026.01,848.824 2027.02,848.786 2028.03,941.242 2029.04,941.224 2030.05,832.079 2031.07,832.047 2032.08,571.37 2033.09,571.353 2034.1,978.953 2035.11,978.925 2036.12,1288.36 2037.14,1288.28 2038.15,1040.7 2039.16,1040.64 2040.17,820.802 2041.18,820.773 2042.19,708.064 2043.21,708 2044.22,716.535 2045.23,716.489 2046.24,1025.4 2047.25,1025.35 2048.27,921.663 2049.28,921.642 2050.29,1075.26 2051.3,1075.21 2052.31,383.241 2053.32,383.215 2054.34,1027.31 2055.35,1027.27 2056.36,820.933 2057.37,820.87 2058.38,919.077 2059.39,919.012 2060.41,499.019 2061.42,499 2062.43,697.657 2063.44,697.623 2064.45,1121.3 2065.46,1121.24 2066.48,952.762 2067.49,952.724 2068.5,705.683 2069.51,705.659 2070.52,1007.45 2071.53,1007.38 2072.55,562.588 2073.56,562.556 2074.57,1168.88 2075.58,1168.81 2076.59,860.824 2077.6,860.766 2078.62,901.948 2079.63,901.919 2080.64,683.774 2081.65,683.756 2082.66,677.117 2083.67,677.096 2084.69,932.95 2085.7,932.883 2086.71,807.035 2087.72,806.992 2088.73,850.492 2089.74,850.447 2090.76,593.029 2091.77,593.012 2092.78,622.296 2093.79,622.28 2094.8,1026.28 2095.81,1026.25 2096.83,859.949 2097.84,859.922 2098.85,869.799 2099.86,869.753 2100.87,656.512 2101.89,656.48 2102.9,1277.3 2103.91,1277.21 2104.92,902.538 2105.93,902.489 2106.94,603.321 2107.96,603.311 2108.97,971.947 2109.98,971.907 2110.99,886.558 2112,886.439 2113.01,641.825 2114.03,641.776 2115.04,655.643 2116.05,655.615 2117.06,1090.18 2118.07,1090.14 2119.08,632.779 2120.1,632.749 2121.11,727.935 2122.12,727.901 2123.13,621.968 2124.14,621.93 2125.15,685.63 2126.17,685.62 2127.18,1171.47 2128.19,1171.4 2129.2,573.216 2130.21,573.183 2131.22,676.39 2132.24,676.352 2133.25,1023.95 2134.26,1023.91 2135.27,839.211 2136.28,839.168 2137.29,799.104 2138.31,799.054 2139.32,542.503 2140.33,542.485 2141.34,1068.16 2142.35,1068.12 2143.36,566.517 2144.38,566.497 2145.39,747.65 2146.4,747.619 2147.41,849.658 2148.42,849.612 2149.43,572.816 2150.45,572.809 2151.46,344.839 2152.47,344.819 2153.48,654.05 2154.49,654.034 2155.51,813.408 2156.52,813.402 2157.53,614.986 2158.54,614.97 2159.55,800.111 2160.56,800.094 2161.58,735.281 2162.59,735.239 2163.6,844.402 2164.61,844.386 2165.62,740.666 2166.63,740.635 2167.65,1067.66 2168.66,1067.63 2169.67,899.755 2170.68,899.685 2171.69,746.485 2172.7,746.471 2173.72,808.861 2174.73,808.846 2175.74,736.907 2176.75,736.869 2177.76,985.217 2178.77,985.167 2179.79,1085.98 2180.8,1085.93 2181.81,990.757 2182.82,990.672 2183.83,838.362 2184.84,838.287 2185.86,695.985 2186.87,695.973 2187.88,1243.95 2188.89,1243.89 2189.9,921.19 2190.91,921.151 2191.93,972.313 2192.94,972.275 2193.95,1070.82 2194.96,1070.75 2195.97,549.094 2196.98,549.05 2198,621.981 2199.01,621.964 2200.02,911.937 2201.03,911.884 2202.04,502.302 2203.05,502.286 2204.07,799.604 2205.08,799.583 2206.09,1156.17 2207.1,1156.1 2208.11,1158.46 2209.13,1158.39 2210.14,928.029 2211.15,927.988 2212.16,1110.27 2213.17,1110.18 2214.18,717.383 2215.2,717.351 2216.21,876.813 2217.22,876.767 2218.23,765.662 2219.24,765.612 2220.25,937.517 2221.27,937.508 2222.28,1119.49 2223.29,1119.43 2224.3,686.604 2225.31,686.574 2226.32,840.795 2227.34,840.78 2228.35,816.803 2229.36,816.775 2230.37,736.438 2231.38,736.396 2232.39,821.606 2233.41,821.575 2234.42,631.351 2235.43,631.327 2236.44,920.275 2237.45,920.189 2238.46,756.072 2239.48,756.056 2240.49,747.096 2241.5,747.069 2242.51,1017.53 2243.52,1017.45 2244.53,741.417 2245.55,741.391 2246.56,1001.48 2247.57,1001.39 2248.58,817.169 2249.59,817.122 2250.6,1048.86 2251.62,1048.83 2252.63,1056.59 2253.64,1056.54 2254.65,1219.32 2255.66,1219.26 2256.67,852.17 2257.69,852.112 2258.7,1053.54 2259.71,1053.49 2260.72,978.132 2261.73,978.058 2262.75,772.348 2263.76,772.311 2264.77,897.601 2265.78,897.561 2266.79,719.178 2267.8,719.156 2268.82,970.076 2269.83,970.036 2270.84,911.209 2271.85,911.136 2272.86,1123.01 2273.87,1122.96 2274.89,705.891 2275.9,705.869 2276.91,1073.57 2277.92,1073.52 2278.93,575.537 2279.94,575.507 2280.96,799.732 2281.97,799.716 2282.98,871.203 2283.99,871.127 2285,882.808 2286.01,882.779 2287.03,1135.5 2288.04,1135.42 2289.05,1108.31 2290.06,1108.25 2291.07,851.164 2292.08,851.126 "/>
<path clip-path="url(#clip180)" d="M280.486 1438.47 L547.289 1438.47 L547.289 1334.79 L280.486 1334.79  Z" fill="#ffffff" fill-rule="evenodd" fill-opacity="1"/>
<polyline clip-path="url(#clip180)" style="stroke:#000000; stroke-linecap:round; stroke-linejoin:round; stroke-width:4; stroke-opacity:1; fill:none" points="280.486,1438.47 547.289,1438.47 547.289,1334.79 280.486,1334.79 280.486,1438.47 "/>
<polyline clip-path="url(#clip180)" style="stroke:#009af9; stroke-linecap:round; stroke-linejoin:round; stroke-width:4; stroke-opacity:1; fill:none" points="304.305,1386.63 447.22,1386.63 "/>
<path clip-path="url(#clip180)" d="M484.882 1406.32 Q483.077 1410.95 481.364 1412.36 Q479.651 1413.78 476.78 1413.78 L473.378 1413.78 L473.378 1410.21 L475.878 1410.21 Q477.637 1410.21 478.609 1409.38 Q479.581 1408.54 480.762 1405.44 L481.526 1403.5 L471.04 1377.99 L475.554 1377.99 L483.655 1398.27 L491.757 1377.99 L496.271 1377.99 L484.882 1406.32 Z" fill="#000000" fill-rule="nonzero" fill-opacity="1" /><path clip-path="url(#clip180)" d="M503.563 1399.98 L511.201 1399.98 L511.201 1373.61 L502.891 1375.28 L502.891 1371.02 L511.155 1369.35 L515.831 1369.35 L515.831 1399.98 L523.47 1399.98 L523.47 1403.91 L503.563 1403.91 L503.563 1399.98 Z" fill="#000000" fill-rule="nonzero" fill-opacity="1" /></svg>
