<?xml version="1.0" encoding="utf-8"?>
<svg xmlns="http://www.w3.org/2000/svg" xmlns:xlink="http://www.w3.org/1999/xlink" width="600" height="400" viewBox="0 0 2400 1600">
<defs>
  <clipPath id="clip530">
    <rect x="0" y="0" width="2400" height="1600"/>
  </clipPath>
</defs>
<path clip-path="url(#clip530)" d="M0 1600 L2400 1600 L2400 0 L0 0  Z" fill="#ffffff" fill-rule="evenodd" fill-opacity="1"/>
<defs>
  <clipPath id="clip531">
    <rect x="480" y="0" width="1681" height="1600"/>
  </clipPath>
</defs>
<path clip-path="url(#clip530)" d="M209.029 1486.45 L2352.76 1486.45 L2352.76 47.2441 L209.029 47.2441  Z" fill="#ffffff" fill-rule="evenodd" fill-opacity="1"/>
<defs>
  <clipPath id="clip532">
    <rect x="209" y="47" width="2145" height="1440"/>
  </clipPath>
</defs>
<polyline clip-path="url(#clip532)" style="stroke:#000000; stroke-linecap:round; stroke-linejoin:round; stroke-width:2; stroke-opacity:0.1; fill:none" points="269.7,1486.45 269.7,47.2441 "/>
<polyline clip-path="url(#clip532)" style="stroke:#000000; stroke-linecap:round; stroke-linejoin:round; stroke-width:2; stroke-opacity:0.1; fill:none" points="775.549,1486.45 775.549,47.2441 "/>
<polyline clip-path="url(#clip532)" style="stroke:#000000; stroke-linecap:round; stroke-linejoin:round; stroke-width:2; stroke-opacity:0.1; fill:none" points="1281.4,1486.45 1281.4,47.2441 "/>
<polyline clip-path="url(#clip532)" style="stroke:#000000; stroke-linecap:round; stroke-linejoin:round; stroke-width:2; stroke-opacity:0.1; fill:none" points="1787.25,1486.45 1787.25,47.2441 "/>
<polyline clip-path="url(#clip532)" style="stroke:#000000; stroke-linecap:round; stroke-linejoin:round; stroke-width:2; stroke-opacity:0.1; fill:none" points="2293.1,1486.45 2293.1,47.2441 "/>
<polyline clip-path="url(#clip530)" style="stroke:#000000; stroke-linecap:round; stroke-linejoin:round; stroke-width:4; stroke-opacity:1; fill:none" points="209.029,1486.45 2352.76,1486.45 "/>
<polyline clip-path="url(#clip530)" style="stroke:#000000; stroke-linecap:round; stroke-linejoin:round; stroke-width:4; stroke-opacity:1; fill:none" points="269.7,1486.45 269.7,1467.55 "/>
<polyline clip-path="url(#clip530)" style="stroke:#000000; stroke-linecap:round; stroke-linejoin:round; stroke-width:4; stroke-opacity:1; fill:none" points="775.549,1486.45 775.549,1467.55 "/>
<polyline clip-path="url(#clip530)" style="stroke:#000000; stroke-linecap:round; stroke-linejoin:round; stroke-width:4; stroke-opacity:1; fill:none" points="1281.4,1486.45 1281.4,1467.55 "/>
<polyline clip-path="url(#clip530)" style="stroke:#000000; stroke-linecap:round; stroke-linejoin:round; stroke-width:4; stroke-opacity:1; fill:none" points="1787.25,1486.45 1787.25,1467.55 "/>
<polyline clip-path="url(#clip530)" style="stroke:#000000; stroke-linecap:round; stroke-linejoin:round; stroke-width:4; stroke-opacity:1; fill:none" points="2293.1,1486.45 2293.1,1467.55 "/>
<path clip-path="url(#clip530)" d="M269.7 1517.37 Q266.089 1517.37 264.26 1520.93 Q262.455 1524.47 262.455 1531.6 Q262.455 1538.71 264.26 1542.27 Q266.089 1545.82 269.7 1545.82 Q273.334 1545.82 275.14 1542.27 Q276.969 1538.71 276.969 1531.6 Q276.969 1524.47 275.14 1520.93 Q273.334 1517.37 269.7 1517.37 M269.7 1513.66 Q275.51 1513.66 278.566 1518.27 Q281.644 1522.85 281.644 1531.6 Q281.644 1540.33 278.566 1544.94 Q275.51 1549.52 269.7 1549.52 Q263.89 1549.52 260.811 1544.94 Q257.756 1540.33 257.756 1531.6 Q257.756 1522.85 260.811 1518.27 Q263.89 1513.66 269.7 1513.66 Z" fill="#000000" fill-rule="nonzero" fill-opacity="1" /><path clip-path="url(#clip530)" d="M735.167 1514.29 L753.524 1514.29 L753.524 1518.22 L739.45 1518.22 L739.45 1526.7 Q740.468 1526.35 741.487 1526.19 Q742.505 1526 743.524 1526 Q749.311 1526 752.69 1529.17 Q756.07 1532.34 756.07 1537.76 Q756.07 1543.34 752.598 1546.44 Q749.126 1549.52 742.806 1549.52 Q740.63 1549.52 738.362 1549.15 Q736.116 1548.78 733.709 1548.04 L733.709 1543.34 Q735.792 1544.47 738.015 1545.03 Q740.237 1545.58 742.714 1545.58 Q746.718 1545.58 749.056 1543.48 Q751.394 1541.37 751.394 1537.76 Q751.394 1534.15 749.056 1532.04 Q746.718 1529.94 742.714 1529.94 Q740.839 1529.94 738.964 1530.35 Q737.112 1530.77 735.167 1531.65 L735.167 1514.29 Z" fill="#000000" fill-rule="nonzero" fill-opacity="1" /><path clip-path="url(#clip530)" d="M775.283 1517.37 Q771.672 1517.37 769.843 1520.93 Q768.038 1524.47 768.038 1531.6 Q768.038 1538.71 769.843 1542.27 Q771.672 1545.82 775.283 1545.82 Q778.917 1545.82 780.723 1542.27 Q782.551 1538.71 782.551 1531.6 Q782.551 1524.47 780.723 1520.93 Q778.917 1517.37 775.283 1517.37 M775.283 1513.66 Q781.093 1513.66 784.149 1518.27 Q787.227 1522.85 787.227 1531.6 Q787.227 1540.33 784.149 1544.94 Q781.093 1549.52 775.283 1549.52 Q769.473 1549.52 766.394 1544.94 Q763.338 1540.33 763.338 1531.6 Q763.338 1522.85 766.394 1518.27 Q769.473 1513.66 775.283 1513.66 Z" fill="#000000" fill-rule="nonzero" fill-opacity="1" /><path clip-path="url(#clip530)" d="M805.445 1517.37 Q801.834 1517.37 800.005 1520.93 Q798.199 1524.47 798.199 1531.6 Q798.199 1538.71 800.005 1542.27 Q801.834 1545.82 805.445 1545.82 Q809.079 1545.82 810.885 1542.27 Q812.713 1538.71 812.713 1531.6 Q812.713 1524.47 810.885 1520.93 Q809.079 1517.37 805.445 1517.37 M805.445 1513.66 Q811.255 1513.66 814.31 1518.27 Q817.389 1522.85 817.389 1531.6 Q817.389 1540.33 814.31 1544.94 Q811.255 1549.52 805.445 1549.52 Q799.635 1549.52 796.556 1544.94 Q793.5 1540.33 793.5 1531.6 Q793.5 1522.85 796.556 1518.27 Q799.635 1513.66 805.445 1513.66 Z" fill="#000000" fill-rule="nonzero" fill-opacity="1" /><path clip-path="url(#clip530)" d="M1225.92 1544.91 L1233.56 1544.91 L1233.56 1518.55 L1225.25 1520.21 L1225.25 1515.95 L1233.52 1514.29 L1238.19 1514.29 L1238.19 1544.91 L1245.83 1544.91 L1245.83 1548.85 L1225.92 1548.85 L1225.92 1544.91 Z" fill="#000000" fill-rule="nonzero" fill-opacity="1" /><path clip-path="url(#clip530)" d="M1265.28 1517.37 Q1261.66 1517.37 1259.84 1520.93 Q1258.03 1524.47 1258.03 1531.6 Q1258.03 1538.71 1259.84 1542.27 Q1261.66 1545.82 1265.28 1545.82 Q1268.91 1545.82 1270.72 1542.27 Q1272.54 1538.71 1272.54 1531.6 Q1272.54 1524.47 1270.72 1520.93 Q1268.91 1517.37 1265.28 1517.37 M1265.28 1513.66 Q1271.09 1513.66 1274.14 1518.27 Q1277.22 1522.85 1277.22 1531.6 Q1277.22 1540.33 1274.14 1544.94 Q1271.09 1549.52 1265.28 1549.52 Q1259.47 1549.52 1256.39 1544.94 Q1253.33 1540.33 1253.33 1531.6 Q1253.33 1522.85 1256.39 1518.27 Q1259.47 1513.66 1265.28 1513.66 Z" fill="#000000" fill-rule="nonzero" fill-opacity="1" /><path clip-path="url(#clip530)" d="M1295.44 1517.37 Q1291.83 1517.37 1290 1520.93 Q1288.19 1524.47 1288.19 1531.6 Q1288.19 1538.71 1290 1542.27 Q1291.83 1545.82 1295.44 1545.82 Q1299.07 1545.82 1300.88 1542.27 Q1302.71 1538.71 1302.71 1531.6 Q1302.71 1524.47 1300.88 1520.93 Q1299.07 1517.37 1295.44 1517.37 M1295.44 1513.66 Q1301.25 1513.66 1304.3 1518.27 Q1307.38 1522.85 1307.38 1531.6 Q1307.38 1540.33 1304.3 1544.94 Q1301.25 1549.52 1295.44 1549.52 Q1289.63 1549.52 1286.55 1544.94 Q1283.49 1540.33 1283.49 1531.6 Q1283.49 1522.85 1286.55 1518.27 Q1289.63 1513.66 1295.44 1513.66 Z" fill="#000000" fill-rule="nonzero" fill-opacity="1" /><path clip-path="url(#clip530)" d="M1325.6 1517.37 Q1321.99 1517.37 1320.16 1520.93 Q1318.35 1524.47 1318.35 1531.6 Q1318.35 1538.71 1320.16 1542.27 Q1321.99 1545.82 1325.6 1545.82 Q1329.23 1545.82 1331.04 1542.27 Q1332.87 1538.71 1332.87 1531.6 Q1332.87 1524.47 1331.04 1520.93 Q1329.23 1517.37 1325.6 1517.37 M1325.6 1513.66 Q1331.41 1513.66 1334.46 1518.27 Q1337.54 1522.85 1337.54 1531.6 Q1337.54 1540.33 1334.46 1544.94 Q1331.41 1549.52 1325.6 1549.52 Q1319.79 1549.52 1316.71 1544.94 Q1313.65 1540.33 1313.65 1531.6 Q1313.65 1522.85 1316.71 1518.27 Q1319.79 1513.66 1325.6 1513.66 Z" fill="#000000" fill-rule="nonzero" fill-opacity="1" /><path clip-path="url(#clip530)" d="M1731.77 1544.91 L1739.41 1544.91 L1739.41 1518.55 L1731.1 1520.21 L1731.1 1515.95 L1739.37 1514.29 L1744.04 1514.29 L1744.04 1544.91 L1751.68 1544.91 L1751.68 1548.85 L1731.77 1548.85 L1731.77 1544.91 Z" fill="#000000" fill-rule="nonzero" fill-opacity="1" /><path clip-path="url(#clip530)" d="M1761.17 1514.29 L1779.53 1514.29 L1779.53 1518.22 L1765.45 1518.22 L1765.45 1526.7 Q1766.47 1526.35 1767.49 1526.19 Q1768.51 1526 1769.53 1526 Q1775.31 1526 1778.69 1529.17 Q1782.07 1532.34 1782.07 1537.76 Q1782.07 1543.34 1778.6 1546.44 Q1775.13 1549.52 1768.81 1549.52 Q1766.63 1549.52 1764.37 1549.15 Q1762.12 1548.78 1759.71 1548.04 L1759.71 1543.34 Q1761.8 1544.47 1764.02 1545.03 Q1766.24 1545.58 1768.72 1545.58 Q1772.72 1545.58 1775.06 1543.48 Q1777.4 1541.37 1777.4 1537.76 Q1777.4 1534.15 1775.06 1532.04 Q1772.72 1529.94 1768.72 1529.94 Q1766.84 1529.94 1764.97 1530.35 Q1763.12 1530.77 1761.17 1531.65 L1761.17 1514.29 Z" fill="#000000" fill-rule="nonzero" fill-opacity="1" /><path clip-path="url(#clip530)" d="M1801.29 1517.37 Q1797.68 1517.37 1795.85 1520.93 Q1794.04 1524.47 1794.04 1531.6 Q1794.04 1538.71 1795.85 1542.27 Q1797.68 1545.82 1801.29 1545.82 Q1804.92 1545.82 1806.73 1542.27 Q1808.55 1538.71 1808.55 1531.6 Q1808.55 1524.47 1806.73 1520.93 Q1804.92 1517.37 1801.29 1517.37 M1801.29 1513.66 Q1807.1 1513.66 1810.15 1518.27 Q1813.23 1522.85 1813.23 1531.6 Q1813.23 1540.33 1810.15 1544.94 Q1807.1 1549.52 1801.29 1549.52 Q1795.48 1549.52 1792.4 1544.94 Q1789.34 1540.33 1789.34 1531.6 Q1789.34 1522.85 1792.4 1518.27 Q1795.48 1513.66 1801.29 1513.66 Z" fill="#000000" fill-rule="nonzero" fill-opacity="1" /><path clip-path="url(#clip530)" d="M1831.45 1517.37 Q1827.84 1517.37 1826.01 1520.93 Q1824.2 1524.47 1824.2 1531.6 Q1824.2 1538.71 1826.01 1542.27 Q1827.84 1545.82 1831.45 1545.82 Q1835.08 1545.82 1836.89 1542.27 Q1838.72 1538.71 1838.72 1531.6 Q1838.72 1524.47 1836.89 1520.93 Q1835.08 1517.37 1831.45 1517.37 M1831.45 1513.66 Q1837.26 1513.66 1840.31 1518.27 Q1843.39 1522.85 1843.39 1531.6 Q1843.39 1540.33 1840.31 1544.94 Q1837.26 1549.52 1831.45 1549.52 Q1825.64 1549.52 1822.56 1544.94 Q1819.5 1540.33 1819.5 1531.6 Q1819.5 1522.85 1822.56 1518.27 Q1825.64 1513.66 1831.45 1513.66 Z" fill="#000000" fill-rule="nonzero" fill-opacity="1" /><path clip-path="url(#clip530)" d="M2241.71 1544.91 L2258.03 1544.91 L2258.03 1548.85 L2236.08 1548.85 L2236.08 1544.91 Q2238.74 1542.16 2243.33 1537.53 Q2247.93 1532.88 2249.11 1531.53 Q2251.36 1529.01 2252.24 1527.27 Q2253.14 1525.51 2253.14 1523.82 Q2253.14 1521.07 2251.2 1519.33 Q2249.28 1517.6 2246.18 1517.6 Q2243.98 1517.6 2241.52 1518.36 Q2239.09 1519.13 2236.31 1520.68 L2236.31 1515.95 Q2239.14 1514.82 2241.59 1514.24 Q2244.05 1513.66 2246.08 1513.66 Q2251.45 1513.66 2254.65 1516.35 Q2257.84 1519.03 2257.84 1523.52 Q2257.84 1525.65 2257.03 1527.57 Q2256.24 1529.47 2254.14 1532.07 Q2253.56 1532.74 2250.46 1535.95 Q2247.36 1539.15 2241.71 1544.91 Z" fill="#000000" fill-rule="nonzero" fill-opacity="1" /><path clip-path="url(#clip530)" d="M2277.84 1517.37 Q2274.23 1517.37 2272.4 1520.93 Q2270.6 1524.47 2270.6 1531.6 Q2270.6 1538.71 2272.4 1542.27 Q2274.23 1545.82 2277.84 1545.82 Q2281.48 1545.82 2283.28 1542.27 Q2285.11 1538.71 2285.11 1531.6 Q2285.11 1524.47 2283.28 1520.93 Q2281.48 1517.37 2277.84 1517.37 M2277.84 1513.66 Q2283.65 1513.66 2286.71 1518.27 Q2289.79 1522.85 2289.79 1531.6 Q2289.79 1540.33 2286.71 1544.94 Q2283.65 1549.52 2277.84 1549.52 Q2272.03 1549.52 2268.95 1544.94 Q2265.9 1540.33 2265.9 1531.6 Q2265.9 1522.85 2268.95 1518.27 Q2272.03 1513.66 2277.84 1513.66 Z" fill="#000000" fill-rule="nonzero" fill-opacity="1" /><path clip-path="url(#clip530)" d="M2308 1517.37 Q2304.39 1517.37 2302.56 1520.93 Q2300.76 1524.47 2300.76 1531.6 Q2300.76 1538.71 2302.56 1542.27 Q2304.39 1545.82 2308 1545.82 Q2311.64 1545.82 2313.44 1542.27 Q2315.27 1538.71 2315.27 1531.6 Q2315.27 1524.47 2313.44 1520.93 Q2311.64 1517.37 2308 1517.37 M2308 1513.66 Q2313.81 1513.66 2316.87 1518.27 Q2319.95 1522.85 2319.95 1531.6 Q2319.95 1540.33 2316.87 1544.94 Q2313.81 1549.52 2308 1549.52 Q2302.19 1549.52 2299.11 1544.94 Q2296.06 1540.33 2296.06 1531.6 Q2296.06 1522.85 2299.11 1518.27 Q2302.19 1513.66 2308 1513.66 Z" fill="#000000" fill-rule="nonzero" fill-opacity="1" /><path clip-path="url(#clip530)" d="M2338.17 1517.37 Q2334.55 1517.37 2332.73 1520.93 Q2330.92 1524.47 2330.92 1531.6 Q2330.92 1538.71 2332.73 1542.27 Q2334.55 1545.82 2338.17 1545.82 Q2341.8 1545.82 2343.61 1542.27 Q2345.43 1538.71 2345.43 1531.6 Q2345.43 1524.47 2343.61 1520.93 Q2341.8 1517.37 2338.17 1517.37 M2338.17 1513.66 Q2343.98 1513.66 2347.03 1518.27 Q2350.11 1522.85 2350.11 1531.6 Q2350.11 1540.33 2347.03 1544.94 Q2343.98 1549.52 2338.17 1549.52 Q2332.36 1549.52 2329.28 1544.94 Q2326.22 1540.33 2326.22 1531.6 Q2326.22 1522.85 2329.28 1518.27 Q2332.36 1513.66 2338.17 1513.66 Z" fill="#000000" fill-rule="nonzero" fill-opacity="1" /><polyline clip-path="url(#clip532)" style="stroke:#000000; stroke-linecap:round; stroke-linejoin:round; stroke-width:2; stroke-opacity:0.1; fill:none" points="209.029,1410.59 2352.76,1410.59 "/>
<polyline clip-path="url(#clip532)" style="stroke:#000000; stroke-linecap:round; stroke-linejoin:round; stroke-width:2; stroke-opacity:0.1; fill:none" points="209.029,1214.37 2352.76,1214.37 "/>
<polyline clip-path="url(#clip532)" style="stroke:#000000; stroke-linecap:round; stroke-linejoin:round; stroke-width:2; stroke-opacity:0.1; fill:none" points="209.029,1018.16 2352.76,1018.16 "/>
<polyline clip-path="url(#clip532)" style="stroke:#000000; stroke-linecap:round; stroke-linejoin:round; stroke-width:2; stroke-opacity:0.1; fill:none" points="209.029,821.941 2352.76,821.941 "/>
<polyline clip-path="url(#clip532)" style="stroke:#000000; stroke-linecap:round; stroke-linejoin:round; stroke-width:2; stroke-opacity:0.1; fill:none" points="209.029,625.725 2352.76,625.725 "/>
<polyline clip-path="url(#clip532)" style="stroke:#000000; stroke-linecap:round; stroke-linejoin:round; stroke-width:2; stroke-opacity:0.1; fill:none" points="209.029,429.508 2352.76,429.508 "/>
<polyline clip-path="url(#clip532)" style="stroke:#000000; stroke-linecap:round; stroke-linejoin:round; stroke-width:2; stroke-opacity:0.1; fill:none" points="209.029,233.292 2352.76,233.292 "/>
<polyline clip-path="url(#clip530)" style="stroke:#000000; stroke-linecap:round; stroke-linejoin:round; stroke-width:4; stroke-opacity:1; fill:none" points="209.029,1486.45 209.029,47.2441 "/>
<polyline clip-path="url(#clip530)" style="stroke:#000000; stroke-linecap:round; stroke-linejoin:round; stroke-width:4; stroke-opacity:1; fill:none" points="209.029,1410.59 227.926,1410.59 "/>
<polyline clip-path="url(#clip530)" style="stroke:#000000; stroke-linecap:round; stroke-linejoin:round; stroke-width:4; stroke-opacity:1; fill:none" points="209.029,1214.37 227.926,1214.37 "/>
<polyline clip-path="url(#clip530)" style="stroke:#000000; stroke-linecap:round; stroke-linejoin:round; stroke-width:4; stroke-opacity:1; fill:none" points="209.029,1018.16 227.926,1018.16 "/>
<polyline clip-path="url(#clip530)" style="stroke:#000000; stroke-linecap:round; stroke-linejoin:round; stroke-width:4; stroke-opacity:1; fill:none" points="209.029,821.941 227.926,821.941 "/>
<polyline clip-path="url(#clip530)" style="stroke:#000000; stroke-linecap:round; stroke-linejoin:round; stroke-width:4; stroke-opacity:1; fill:none" points="209.029,625.725 227.926,625.725 "/>
<polyline clip-path="url(#clip530)" style="stroke:#000000; stroke-linecap:round; stroke-linejoin:round; stroke-width:4; stroke-opacity:1; fill:none" points="209.029,429.508 227.926,429.508 "/>
<polyline clip-path="url(#clip530)" style="stroke:#000000; stroke-linecap:round; stroke-linejoin:round; stroke-width:4; stroke-opacity:1; fill:none" points="209.029,233.292 227.926,233.292 "/>
<path clip-path="url(#clip530)" d="M50.9921 1411.04 L80.6679 1411.04 L80.6679 1414.98 L50.9921 1414.98 L50.9921 1411.04 Z" fill="#000000" fill-rule="nonzero" fill-opacity="1" /><path clip-path="url(#clip530)" d="M89.5799 1393.31 L111.802 1393.31 L111.802 1395.3 L99.2558 1427.87 L94.3715 1427.87 L106.177 1397.25 L89.5799 1397.25 L89.5799 1393.31 Z" fill="#000000" fill-rule="nonzero" fill-opacity="1" /><path clip-path="url(#clip530)" d="M130.922 1396.39 Q127.311 1396.39 125.482 1399.95 Q123.677 1403.5 123.677 1410.63 Q123.677 1417.73 125.482 1421.3 Q127.311 1424.84 130.922 1424.84 Q134.556 1424.84 136.362 1421.3 Q138.191 1417.73 138.191 1410.63 Q138.191 1403.5 136.362 1399.95 Q134.556 1396.39 130.922 1396.39 M130.922 1392.69 Q136.732 1392.69 139.788 1397.29 Q142.867 1401.88 142.867 1410.63 Q142.867 1419.35 139.788 1423.96 Q136.732 1428.54 130.922 1428.54 Q125.112 1428.54 122.033 1423.96 Q118.978 1419.35 118.978 1410.63 Q118.978 1401.88 122.033 1397.29 Q125.112 1392.69 130.922 1392.69 Z" fill="#000000" fill-rule="nonzero" fill-opacity="1" /><path clip-path="url(#clip530)" d="M161.084 1396.39 Q157.473 1396.39 155.644 1399.95 Q153.839 1403.5 153.839 1410.63 Q153.839 1417.73 155.644 1421.3 Q157.473 1424.84 161.084 1424.84 Q164.718 1424.84 166.524 1421.3 Q168.353 1417.73 168.353 1410.63 Q168.353 1403.5 166.524 1399.95 Q164.718 1396.39 161.084 1396.39 M161.084 1392.69 Q166.894 1392.69 169.95 1397.29 Q173.029 1401.88 173.029 1410.63 Q173.029 1419.35 169.95 1423.96 Q166.894 1428.54 161.084 1428.54 Q155.274 1428.54 152.195 1423.96 Q149.14 1419.35 149.14 1410.63 Q149.14 1401.88 152.195 1397.29 Q155.274 1392.69 161.084 1392.69 Z" fill="#000000" fill-rule="nonzero" fill-opacity="1" /><path clip-path="url(#clip530)" d="M50.9921 1214.83 L80.6679 1214.83 L80.6679 1218.76 L50.9921 1218.76 L50.9921 1214.83 Z" fill="#000000" fill-rule="nonzero" fill-opacity="1" /><path clip-path="url(#clip530)" d="M101.339 1212.51 Q98.1909 1212.51 96.3391 1214.66 Q94.5104 1216.82 94.5104 1220.57 Q94.5104 1224.29 96.3391 1226.47 Q98.1909 1228.62 101.339 1228.62 Q104.487 1228.62 106.316 1226.47 Q108.168 1224.29 108.168 1220.57 Q108.168 1216.82 106.316 1214.66 Q104.487 1212.51 101.339 1212.51 M110.621 1197.86 L110.621 1202.12 Q108.862 1201.28 107.057 1200.84 Q105.274 1200.4 103.515 1200.4 Q98.8854 1200.4 96.4317 1203.53 Q94.0012 1206.65 93.6539 1212.97 Q95.0197 1210.96 97.0798 1209.9 Q99.14 1208.81 101.617 1208.81 Q106.825 1208.81 109.834 1211.98 Q112.867 1215.13 112.867 1220.57 Q112.867 1225.89 109.719 1229.11 Q106.571 1232.33 101.339 1232.33 Q95.3437 1232.33 92.1725 1227.74 Q89.0012 1223.14 89.0012 1214.41 Q89.0012 1206.21 92.89 1201.35 Q96.7789 1196.47 103.33 1196.47 Q105.089 1196.47 106.871 1196.82 Q108.677 1197.16 110.621 1197.86 Z" fill="#000000" fill-rule="nonzero" fill-opacity="1" /><path clip-path="url(#clip530)" d="M130.922 1200.17 Q127.311 1200.17 125.482 1203.74 Q123.677 1207.28 123.677 1214.41 Q123.677 1221.52 125.482 1225.08 Q127.311 1228.62 130.922 1228.62 Q134.556 1228.62 136.362 1225.08 Q138.191 1221.52 138.191 1214.41 Q138.191 1207.28 136.362 1203.74 Q134.556 1200.17 130.922 1200.17 M130.922 1196.47 Q136.732 1196.47 139.788 1201.08 Q142.867 1205.66 142.867 1214.41 Q142.867 1223.14 139.788 1227.74 Q136.732 1232.33 130.922 1232.33 Q125.112 1232.33 122.033 1227.74 Q118.978 1223.14 118.978 1214.41 Q118.978 1205.66 122.033 1201.08 Q125.112 1196.47 130.922 1196.47 Z" fill="#000000" fill-rule="nonzero" fill-opacity="1" /><path clip-path="url(#clip530)" d="M161.084 1200.17 Q157.473 1200.17 155.644 1203.74 Q153.839 1207.28 153.839 1214.41 Q153.839 1221.52 155.644 1225.08 Q157.473 1228.62 161.084 1228.62 Q164.718 1228.62 166.524 1225.08 Q168.353 1221.52 168.353 1214.41 Q168.353 1207.28 166.524 1203.74 Q164.718 1200.17 161.084 1200.17 M161.084 1196.47 Q166.894 1196.47 169.95 1201.08 Q173.029 1205.66 173.029 1214.41 Q173.029 1223.14 169.95 1227.74 Q166.894 1232.33 161.084 1232.33 Q155.274 1232.33 152.195 1227.74 Q149.14 1223.14 149.14 1214.41 Q149.14 1205.66 152.195 1201.08 Q155.274 1196.47 161.084 1196.47 Z" fill="#000000" fill-rule="nonzero" fill-opacity="1" /><path clip-path="url(#clip530)" d="M50.9921 1018.61 L80.6679 1018.61 L80.6679 1022.54 L50.9921 1022.54 L50.9921 1018.61 Z" fill="#000000" fill-rule="nonzero" fill-opacity="1" /><path clip-path="url(#clip530)" d="M90.8067 1000.88 L109.163 1000.88 L109.163 1004.81 L95.0891 1004.81 L95.0891 1013.29 Q96.1076 1012.94 97.1261 1012.78 Q98.1447 1012.59 99.1632 1012.59 Q104.95 1012.59 108.33 1015.76 Q111.709 1018.93 111.709 1024.35 Q111.709 1029.93 108.237 1033.03 Q104.765 1036.11 98.4456 1036.11 Q96.2697 1036.11 94.0012 1035.74 Q91.7558 1035.37 89.3484 1034.63 L89.3484 1029.93 Q91.4317 1031.06 93.6539 1031.62 Q95.8761 1032.17 98.353 1032.17 Q102.358 1032.17 104.696 1030.07 Q107.033 1027.96 107.033 1024.35 Q107.033 1020.74 104.696 1018.63 Q102.358 1016.53 98.353 1016.53 Q96.478 1016.53 94.603 1016.94 Q92.7512 1017.36 90.8067 1018.24 L90.8067 1000.88 Z" fill="#000000" fill-rule="nonzero" fill-opacity="1" /><path clip-path="url(#clip530)" d="M130.922 1003.96 Q127.311 1003.96 125.482 1007.52 Q123.677 1011.06 123.677 1018.19 Q123.677 1025.3 125.482 1028.86 Q127.311 1032.41 130.922 1032.41 Q134.556 1032.41 136.362 1028.86 Q138.191 1025.3 138.191 1018.19 Q138.191 1011.06 136.362 1007.52 Q134.556 1003.96 130.922 1003.96 M130.922 1000.25 Q136.732 1000.25 139.788 1004.86 Q142.867 1009.44 142.867 1018.19 Q142.867 1026.92 139.788 1031.53 Q136.732 1036.11 130.922 1036.11 Q125.112 1036.11 122.033 1031.53 Q118.978 1026.92 118.978 1018.19 Q118.978 1009.44 122.033 1004.86 Q125.112 1000.25 130.922 1000.25 Z" fill="#000000" fill-rule="nonzero" fill-opacity="1" /><path clip-path="url(#clip530)" d="M161.084 1003.96 Q157.473 1003.96 155.644 1007.52 Q153.839 1011.06 153.839 1018.19 Q153.839 1025.3 155.644 1028.86 Q157.473 1032.41 161.084 1032.41 Q164.718 1032.41 166.524 1028.86 Q168.353 1025.3 168.353 1018.19 Q168.353 1011.06 166.524 1007.52 Q164.718 1003.96 161.084 1003.96 M161.084 1000.25 Q166.894 1000.25 169.95 1004.86 Q173.029 1009.44 173.029 1018.19 Q173.029 1026.92 169.95 1031.53 Q166.894 1036.11 161.084 1036.11 Q155.274 1036.11 152.195 1031.53 Q149.14 1026.92 149.14 1018.19 Q149.14 1009.44 152.195 1004.86 Q155.274 1000.25 161.084 1000.25 Z" fill="#000000" fill-rule="nonzero" fill-opacity="1" /><path clip-path="url(#clip530)" d="M50.9921 822.393 L80.6679 822.393 L80.6679 826.328 L50.9921 826.328 L50.9921 822.393 Z" fill="#000000" fill-rule="nonzero" fill-opacity="1" /><path clip-path="url(#clip530)" d="M103.608 808.735 L91.8021 827.184 L103.608 827.184 L103.608 808.735 M102.381 804.661 L108.26 804.661 L108.26 827.184 L113.191 827.184 L113.191 831.073 L108.26 831.073 L108.26 839.221 L103.608 839.221 L103.608 831.073 L88.0058 831.073 L88.0058 826.559 L102.381 804.661 Z" fill="#000000" fill-rule="nonzero" fill-opacity="1" /><path clip-path="url(#clip530)" d="M130.922 807.74 Q127.311 807.74 125.482 811.305 Q123.677 814.846 123.677 821.976 Q123.677 829.082 125.482 832.647 Q127.311 836.189 130.922 836.189 Q134.556 836.189 136.362 832.647 Q138.191 829.082 138.191 821.976 Q138.191 814.846 136.362 811.305 Q134.556 807.74 130.922 807.74 M130.922 804.036 Q136.732 804.036 139.788 808.643 Q142.867 813.226 142.867 821.976 Q142.867 830.703 139.788 835.309 Q136.732 839.893 130.922 839.893 Q125.112 839.893 122.033 835.309 Q118.978 830.703 118.978 821.976 Q118.978 813.226 122.033 808.643 Q125.112 804.036 130.922 804.036 Z" fill="#000000" fill-rule="nonzero" fill-opacity="1" /><path clip-path="url(#clip530)" d="M161.084 807.74 Q157.473 807.74 155.644 811.305 Q153.839 814.846 153.839 821.976 Q153.839 829.082 155.644 832.647 Q157.473 836.189 161.084 836.189 Q164.718 836.189 166.524 832.647 Q168.353 829.082 168.353 821.976 Q168.353 814.846 166.524 811.305 Q164.718 807.74 161.084 807.74 M161.084 804.036 Q166.894 804.036 169.95 808.643 Q173.029 813.226 173.029 821.976 Q173.029 830.703 169.95 835.309 Q166.894 839.893 161.084 839.893 Q155.274 839.893 152.195 835.309 Q149.14 830.703 149.14 821.976 Q149.14 813.226 152.195 808.643 Q155.274 804.036 161.084 804.036 Z" fill="#000000" fill-rule="nonzero" fill-opacity="1" /><path clip-path="url(#clip530)" d="M50.9921 626.176 L80.6679 626.176 L80.6679 630.111 L50.9921 630.111 L50.9921 626.176 Z" fill="#000000" fill-rule="nonzero" fill-opacity="1" /><path clip-path="url(#clip530)" d="M104.927 624.371 Q108.283 625.088 110.158 627.357 Q112.057 629.625 112.057 632.959 Q112.057 638.074 108.538 640.875 Q105.02 643.676 98.5382 643.676 Q96.3623 643.676 94.0475 643.236 Q91.7558 642.82 89.3021 641.963 L89.3021 637.449 Q91.2465 638.584 93.5613 639.162 Q95.8761 639.741 98.3993 639.741 Q102.797 639.741 105.089 638.005 Q107.404 636.269 107.404 632.959 Q107.404 629.903 105.251 628.19 Q103.121 626.454 99.3021 626.454 L95.2743 626.454 L95.2743 622.611 L99.4872 622.611 Q102.936 622.611 104.765 621.246 Q106.594 619.857 106.594 617.264 Q106.594 614.602 104.696 613.19 Q102.821 611.755 99.3021 611.755 Q97.3808 611.755 95.1817 612.172 Q92.9826 612.588 90.3438 613.468 L90.3438 609.301 Q93.0058 608.561 95.3206 608.19 Q97.6585 607.82 99.7187 607.82 Q105.043 607.82 108.145 610.25 Q111.246 612.658 111.246 616.778 Q111.246 619.648 109.603 621.639 Q107.959 623.607 104.927 624.371 Z" fill="#000000" fill-rule="nonzero" fill-opacity="1" /><path clip-path="url(#clip530)" d="M130.922 611.523 Q127.311 611.523 125.482 615.088 Q123.677 618.63 123.677 625.76 Q123.677 632.866 125.482 636.431 Q127.311 639.972 130.922 639.972 Q134.556 639.972 136.362 636.431 Q138.191 632.866 138.191 625.76 Q138.191 618.63 136.362 615.088 Q134.556 611.523 130.922 611.523 M130.922 607.82 Q136.732 607.82 139.788 612.426 Q142.867 617.01 142.867 625.76 Q142.867 634.486 139.788 639.093 Q136.732 643.676 130.922 643.676 Q125.112 643.676 122.033 639.093 Q118.978 634.486 118.978 625.76 Q118.978 617.01 122.033 612.426 Q125.112 607.82 130.922 607.82 Z" fill="#000000" fill-rule="nonzero" fill-opacity="1" /><path clip-path="url(#clip530)" d="M161.084 611.523 Q157.473 611.523 155.644 615.088 Q153.839 618.63 153.839 625.76 Q153.839 632.866 155.644 636.431 Q157.473 639.972 161.084 639.972 Q164.718 639.972 166.524 636.431 Q168.353 632.866 168.353 625.76 Q168.353 618.63 166.524 615.088 Q164.718 611.523 161.084 611.523 M161.084 607.82 Q166.894 607.82 169.95 612.426 Q173.029 617.01 173.029 625.76 Q173.029 634.486 169.95 639.093 Q166.894 643.676 161.084 643.676 Q155.274 643.676 152.195 639.093 Q149.14 634.486 149.14 625.76 Q149.14 617.01 152.195 612.426 Q155.274 607.82 161.084 607.82 Z" fill="#000000" fill-rule="nonzero" fill-opacity="1" /><path clip-path="url(#clip530)" d="M50.9921 429.96 L80.6679 429.96 L80.6679 433.895 L50.9921 433.895 L50.9921 429.96 Z" fill="#000000" fill-rule="nonzero" fill-opacity="1" /><path clip-path="url(#clip530)" d="M94.7882 442.853 L111.108 442.853 L111.108 446.788 L89.1632 446.788 L89.1632 442.853 Q91.8252 440.099 96.4085 435.469 Q101.015 430.816 102.196 429.474 Q104.441 426.95 105.321 425.214 Q106.223 423.455 106.223 421.765 Q106.223 419.011 104.279 417.275 Q102.358 415.538 99.2558 415.538 Q97.0567 415.538 94.603 416.302 Q92.1725 417.066 89.3947 418.617 L89.3947 413.895 Q92.2188 412.761 94.6724 412.182 Q97.1261 411.603 99.1632 411.603 Q104.534 411.603 107.728 414.288 Q110.922 416.974 110.922 421.464 Q110.922 423.594 110.112 425.515 Q109.325 427.413 107.219 430.006 Q106.64 430.677 103.538 433.895 Q100.436 437.089 94.7882 442.853 Z" fill="#000000" fill-rule="nonzero" fill-opacity="1" /><path clip-path="url(#clip530)" d="M130.922 415.307 Q127.311 415.307 125.482 418.872 Q123.677 422.413 123.677 429.543 Q123.677 436.649 125.482 440.214 Q127.311 443.756 130.922 443.756 Q134.556 443.756 136.362 440.214 Q138.191 436.649 138.191 429.543 Q138.191 422.413 136.362 418.872 Q134.556 415.307 130.922 415.307 M130.922 411.603 Q136.732 411.603 139.788 416.21 Q142.867 420.793 142.867 429.543 Q142.867 438.27 139.788 442.876 Q136.732 447.46 130.922 447.46 Q125.112 447.46 122.033 442.876 Q118.978 438.27 118.978 429.543 Q118.978 420.793 122.033 416.21 Q125.112 411.603 130.922 411.603 Z" fill="#000000" fill-rule="nonzero" fill-opacity="1" /><path clip-path="url(#clip530)" d="M161.084 415.307 Q157.473 415.307 155.644 418.872 Q153.839 422.413 153.839 429.543 Q153.839 436.649 155.644 440.214 Q157.473 443.756 161.084 443.756 Q164.718 443.756 166.524 440.214 Q168.353 436.649 168.353 429.543 Q168.353 422.413 166.524 418.872 Q164.718 415.307 161.084 415.307 M161.084 411.603 Q166.894 411.603 169.95 416.21 Q173.029 420.793 173.029 429.543 Q173.029 438.27 169.95 442.876 Q166.894 447.46 161.084 447.46 Q155.274 447.46 152.195 442.876 Q149.14 438.27 149.14 429.543 Q149.14 420.793 152.195 416.21 Q155.274 411.603 161.084 411.603 Z" fill="#000000" fill-rule="nonzero" fill-opacity="1" /><path clip-path="url(#clip530)" d="M50.9921 233.743 L80.6679 233.743 L80.6679 237.678 L50.9921 237.678 L50.9921 233.743 Z" fill="#000000" fill-rule="nonzero" fill-opacity="1" /><path clip-path="url(#clip530)" d="M91.5706 246.637 L99.2095 246.637 L99.2095 220.271 L90.8993 221.938 L90.8993 217.678 L99.1632 216.012 L103.839 216.012 L103.839 246.637 L111.478 246.637 L111.478 250.572 L91.5706 250.572 L91.5706 246.637 Z" fill="#000000" fill-rule="nonzero" fill-opacity="1" /><path clip-path="url(#clip530)" d="M130.922 219.09 Q127.311 219.09 125.482 222.655 Q123.677 226.197 123.677 233.327 Q123.677 240.433 125.482 243.998 Q127.311 247.539 130.922 247.539 Q134.556 247.539 136.362 243.998 Q138.191 240.433 138.191 233.327 Q138.191 226.197 136.362 222.655 Q134.556 219.09 130.922 219.09 M130.922 215.387 Q136.732 215.387 139.788 219.993 Q142.867 224.577 142.867 233.327 Q142.867 242.053 139.788 246.66 Q136.732 251.243 130.922 251.243 Q125.112 251.243 122.033 246.66 Q118.978 242.053 118.978 233.327 Q118.978 224.577 122.033 219.993 Q125.112 215.387 130.922 215.387 Z" fill="#000000" fill-rule="nonzero" fill-opacity="1" /><path clip-path="url(#clip530)" d="M161.084 219.09 Q157.473 219.09 155.644 222.655 Q153.839 226.197 153.839 233.327 Q153.839 240.433 155.644 243.998 Q157.473 247.539 161.084 247.539 Q164.718 247.539 166.524 243.998 Q168.353 240.433 168.353 233.327 Q168.353 226.197 166.524 222.655 Q164.718 219.09 161.084 219.09 M161.084 215.387 Q166.894 215.387 169.95 219.993 Q173.029 224.577 173.029 233.327 Q173.029 242.053 169.95 246.66 Q166.894 251.243 161.084 251.243 Q155.274 251.243 152.195 246.66 Q149.14 242.053 149.14 233.327 Q149.14 224.577 152.195 219.993 Q155.274 215.387 161.084 215.387 Z" fill="#000000" fill-rule="nonzero" fill-opacity="1" /><polyline clip-path="url(#clip532)" style="stroke:#009af9; stroke-linecap:round; stroke-linejoin:round; stroke-width:4; stroke-opacity:1; fill:none" points="269.7,88.7579 270.712,87.9763 271.723,166.108 272.735,164.778 273.747,162.736 274.759,161.109 275.77,164.634 276.782,163.106 277.794,242.853 278.805,240.287 279.817,260.06 280.829,257.218 281.84,194.721 282.852,192.912 283.864,261.696 284.876,258.858 285.887,248.112 286.899,246.831 287.911,315.818 288.922,312.231 289.934,298.216 290.946,295.681 291.957,305.045 292.969,302.552 293.981,240.372 294.992,237.802 296.004,283.832 297.016,282.345 298.028,310.358 299.039,308.776 300.051,281.594 301.063,279.201 302.074,318.026 303.086,314.45 304.098,375.848 305.109,370.339 306.121,269.217 307.133,265.754 308.145,292.984 309.156,291.546 310.168,379.766 311.18,376.136 312.191,376.69 313.203,374.395 314.215,356.526 315.226,353.293 316.238,369.273 317.25,366.366 318.262,382.961 319.273,380.495 320.285,371.021 321.297,367.704 322.308,446.716 323.32,443.488 324.332,377.451 325.343,373.529 326.355,506.378 327.367,501.656 328.379,402.933 329.39,400.629 330.402,497.835 331.414,493.615 332.425,447.254 333.437,442.795 334.449,498.582 335.46,492.586 336.472,468.113 337.484,463.394 338.496,505.306 339.507,498.907 340.519,502.924 341.531,498.376 342.542,507.737 343.554,503.461 344.566,436.265 345.577,432.803 346.589,541.439 347.601,535.697 348.612,562.367 349.624,556.897 350.636,588.196 351.648,581.469 352.659,615.294 353.671,610.887 354.683,635.563 355.694,628.659 356.706,648.434 357.718,642.156 358.729,731.274 359.741,722.361 360.753,786.84 361.765,774.671 362.776,704.103 363.788,695.71 364.8,790.857 365.811,781.883 366.823,757.068 367.835,751.411 368.846,803.796 369.858,794.262 370.87,763.126 371.882,752.677 372.893,875.986 373.905,865.463 374.917,848.751 375.928,841.088 376.94,731.7 377.952,725.17 378.963,828.755 379.975,819.966 380.987,860.425 381.999,850.411 383.01,921.458 384.022,908.289 385.034,855.631 386.045,848.883 387.057,895.68 388.069,886.608 389.08,874.234 390.092,860.406 391.104,975.669 392.115,967.644 393.127,987.556 394.139,977.223 395.151,969.194 396.162,960.726 397.174,915.085 398.186,906.181 399.197,908.365 400.209,900.414 401.221,1010.25 402.232,996.547 403.244,1090.75 404.256,1078.61 405.268,1065.46 406.279,1053.8 407.291,1039.08 408.303,1021.65 409.314,1066.89 410.326,1054.25 411.338,1034.3 412.349,1020.32 413.361,1032.81 414.373,1017.79 415.385,1006.95 416.396,997.585 417.408,1035.46 418.42,1020.02 419.431,998.425 420.443,985.031 421.455,1010.6 422.466,998.069 423.478,1057.6 424.49,1046.51 425.502,1102.46 426.513,1091.76 427.525,1097.84 428.537,1081.95 429.548,1063.78 430.56,1049.78 431.572,1129.67 432.583,1115.45 433.595,1173.18 434.607,1159.61 435.619,1234.97 436.63,1213.81 437.642,1170.34 438.654,1154.16 439.665,1171.11 440.677,1149.3 441.689,1188.8 442.7,1170.94 443.712,1119.5 444.724,1109.2 445.735,1128.57 446.747,1112.48 447.759,1091.14 448.771,1077.38 449.782,1091.52 450.794,1080.65 451.806,1142.28 452.817,1123.53 453.829,1159.16 454.841,1144.93 455.852,1224.79 456.864,1204.65 457.876,1180.84 458.888,1157.6 459.899,1146.4 460.911,1129.52 461.923,1201.38 462.934,1189.34 463.946,1176.86 464.958,1161.31 465.969,1112.7 466.981,1105.88 467.993,1191.12 469.005,1171.88 470.016,1171.51 471.028,1156.68 472.04,1159.18 473.051,1140.24 474.063,1258.31 475.075,1246.42 476.086,1258.93 477.098,1243.42 478.11,1207.91 479.122,1196.59 480.133,1171.26 481.145,1153.17 482.157,1262.05 483.168,1242.84 484.18,1223.1 485.192,1210.78 486.203,1266.87 487.215,1252.66 488.227,1194.22 489.239,1175.45 490.25,1215.07 491.262,1203.65 492.274,1204.88 493.285,1187.01 494.297,1254.64 495.309,1235.94 496.32,1260.21 497.332,1245.29 498.344,1295.89 499.355,1279.94 500.367,1259.8 501.379,1247.55 502.391,1238.36 503.402,1223.78 504.414,1250.04 505.426,1227.59 506.437,1268.01 507.449,1250.06 508.461,1279.38 509.472,1262.2 510.484,1284.42 511.496,1272.98 512.508,1277.1 513.519,1262.16 514.531,1267.6 515.543,1257.94 516.554,1279.43 517.566,1266.14 518.578,1275.86 519.589,1261.06 520.601,1271.16 521.613,1261.32 522.625,1212.26 523.636,1197.69 524.648,1236.17 525.66,1224.18 526.671,1248.9 527.683,1229.27 528.695,1270 529.706,1250.3 530.718,1284.5 531.73,1264.38 532.742,1213.96 533.753,1201.31 534.765,1267.15 535.777,1257.02 536.788,1254.29 537.8,1236.45 538.812,1263.36 539.823,1247.36 540.835,1278.91 541.847,1268.49 542.859,1261.01 543.87,1248.44 544.882,1264.2 545.894,1247.03 546.905,1209.19 547.917,1193.21 548.929,1279.69 549.94,1266.2 550.952,1238.53 551.964,1226.99 552.975,1212.91 553.987,1200.68 554.999,1236.84 556.011,1217.5 557.022,1273.33 558.034,1259.47 559.046,1263.12 560.057,1247.28 561.069,1285.3 562.081,1266.6 563.092,1283.46 564.104,1274.02 565.116,1232.85 566.128,1224.69 567.139,1254.5 568.151,1244.66 569.163,1247.32 570.174,1219.24 571.186,1264.68 572.198,1245.08 573.209,1150.16 574.221,1129.3 575.233,1146.38 576.245,1129.8 577.256,1186.01 578.268,1172.05 579.28,1215.25 580.291,1199.81 581.303,1236.42 582.315,1223.83 583.326,1180.81 584.338,1164.19 585.35,1210.31 586.362,1191.59 587.373,1203.29 588.385,1182.69 589.397,1221.23 590.408,1200.79 591.42,1220.65 592.432,1202.89 593.443,1231.16 594.455,1218.81 595.467,1182.11 596.478,1174.24 597.49,1205.37 598.502,1191.45 599.514,1286.56 600.525,1272.15 601.537,1300.36 602.549,1280.89 603.56,1285.17 604.572,1267.8 605.584,1276.74 606.595,1267.12 607.607,1255.98 608.619,1237.95 609.631,1295.34 610.642,1275.49 611.654,1266.07 612.666,1252.15 613.677,1294.83 614.689,1280.39 615.701,1335.13 616.712,1316.29 617.724,1291.27 618.736,1276.2 619.748,1287.48 620.759,1273.92 621.771,1267.67 622.783,1244.86 623.794,1311.27 624.806,1296.94 625.818,1259.06 626.829,1249.01 627.841,1251.45 628.853,1238.66 629.865,1255.44 630.876,1245.63 631.888,1247.6 632.9,1240.16 633.911,1286.23 634.923,1275.88 635.935,1314.93 636.946,1299.61 637.958,1346.24 638.97,1330.19 639.982,1307.14 640.993,1295.73 642.005,1288.54 643.017,1274.28 644.028,1344.83 645.04,1331.56 646.052,1341.48 647.063,1329.96 648.075,1312.77 649.087,1301.1 650.098,1342.92 651.11,1331.45 652.122,1339.12 653.134,1319.11 654.145,1294.77 655.157,1275.01 656.169,1313.81 657.18,1297.84 658.192,1323.74 659.204,1309.8 660.215,1300.46 661.227,1283 662.239,1329.14 663.251,1317.53 664.262,1263.49 665.274,1252.36 666.286,1315.07 667.297,1303.86 668.309,1304.42 669.321,1292.07 670.332,1276.53 671.344,1269.86 672.356,1309.23 673.368,1294.96 674.379,1317.87 675.391,1308.37 676.403,1329.29 677.414,1315.77 678.426,1322.02 679.438,1311.62 680.449,1377.03 681.461,1364.05 682.473,1346.91 683.485,1334.55 684.496,1347.54 685.508,1336.15 686.52,1305.86 687.531,1292.72 688.543,1331.42 689.555,1319.01 690.566,1378.18 691.578,1366.88 692.59,1364.73 693.602,1344.71 694.613,1297.08 695.625,1286.62 696.637,1360.01 697.648,1337.52 698.66,1287.42 699.672,1272.72 700.683,1297.35 701.695,1284.98 702.707,1285.55 703.718,1280.1 704.73,1305.32 705.742,1293.06 706.754,1290.23 707.765,1279.08 708.777,1260.47 709.789,1248.07 710.8,1214.58 711.812,1206.2 712.824,1269.01 713.835,1256.95 714.847,1262.76 715.859,1244.76 716.871,1271.17 717.882,1255.31 718.894,1280.34 719.906,1268.78 720.917,1286.88 721.929,1272.1 722.941,1242.86 723.952,1231.87 724.964,1324.32 725.976,1314.47 726.988,1309.92 727.999,1296.01 729.011,1309.24 730.023,1300.79 731.034,1340.15 732.046,1328.19 733.058,1319.19 734.069,1310.09 735.081,1321.07 736.093,1310.34 737.105,1294.44 738.116,1282.78 739.128,1333.64 740.14,1323.16 741.151,1301.48 742.163,1293.6 743.175,1334.25 744.186,1327.07 745.198,1324.62 746.21,1313.88 747.222,1296.28 748.233,1290.73 749.245,1228.09 750.257,1218.13 751.268,1276.24 752.28,1267.06 753.292,1268.47 754.303,1254.03 755.315,1284.64 756.327,1271.37 757.338,1307.11 758.35,1298.82 759.362,1294.64 760.374,1288.26 761.385,1312.62 762.397,1302.14 763.409,1340.77 764.42,1334.59 765.432,1336.4 766.444,1324.02 767.455,1349.14 768.467,1334.07 769.479,1341.65 770.491,1333.35 771.502,1341.98 772.514,1323.97 773.526,1292.77 774.537,1283.76 775.549,1348.62 776.561,1332.46 777.572,1345.7 778.584,1330.12 779.596,1314.7 780.608,1301.32 781.619,1339.19 782.631,1329.38 783.643,1283.41 784.654,1268.6 785.666,1302.18 786.678,1296.9 787.689,1329.84 788.701,1317 789.713,1328.23 790.725,1315.07 791.736,1342.52 792.748,1331.55 793.76,1315.76 794.771,1302.29 795.783,1325.88 796.795,1312.42 797.806,1324.59 798.818,1305.03 799.83,1304.1 800.841,1289.98 801.853,1294.43 802.865,1281.01 803.877,1281.16 804.888,1270.3 805.9,1309.45 806.912,1299 807.923,1365.12 808.935,1354.76 809.947,1301.39 810.958,1291.15 811.97,1304.19 812.982,1295.24 813.994,1377.54 815.005,1367.58 816.017,1330.72 817.029,1322.64 818.04,1314.85 819.052,1306.81 820.064,1332.7 821.075,1325.07 822.087,1361.27 823.099,1347.34 824.111,1337.44 825.122,1331.11 826.134,1326.68 827.146,1314.24 828.157,1347.42 829.169,1335.13 830.181,1292.22 831.192,1283.19 832.204,1338.67 833.216,1331.6 834.228,1308.71 835.239,1299.34 836.251,1281.25 837.263,1275.29 838.274,1356.05 839.286,1337.58 840.298,1324 841.309,1314.23 842.321,1353.3 843.333,1340.26 844.345,1297.56 845.356,1289.83 846.368,1281.87 847.38,1267.7 848.391,1287.14 849.403,1281.61 850.415,1299.28 851.426,1284.52 852.438,1300.16 853.45,1290.07 854.461,1312.89 855.473,1303.85 856.485,1312.13 857.497,1303.51 858.508,1320.67 859.52,1310.13 860.532,1294.05 861.543,1283.44 862.555,1322 863.567,1310.79 864.578,1303.24 865.59,1290.29 866.602,1296.78 867.614,1289.77 868.625,1329.06 869.637,1321.35 870.649,1350.55 871.66,1339.35 872.672,1348.19 873.684,1339.86 874.695,1316.05 875.707,1304.54 876.719,1335.43 877.731,1324.11 878.742,1319.56 879.754,1308.1 880.766,1311.36 881.777,1301.4 882.789,1316.79 883.801,1309.78 884.812,1297.88 885.824,1288.68 886.836,1324.38 887.848,1316.45 888.859,1321.5 889.871,1315.13 890.883,1311.32 891.894,1298.78 892.906,1310.15 893.918,1296.51 894.929,1324.99 895.941,1317.9 896.953,1326.32 897.965,1315.55 898.976,1302.69 899.988,1294.51 901,1262.81 902.011,1253.89 903.023,1299.55 904.035,1277.33 905.046,1281.67 906.058,1277.47 907.07,1301.67 908.081,1292.61 909.093,1314.22 910.105,1299.89 911.117,1314.13 912.128,1302.64 913.14,1319.14 914.152,1307.56 915.163,1336.23 916.175,1320.6 917.187,1325.31 918.198,1318.86 919.21,1352.95 920.222,1337 921.234,1354.23 922.245,1342.78 923.257,1336.05 924.269,1327.12 925.28,1334.14 926.292,1322.77 927.304,1343.65 928.315,1328.19 929.327,1342.34 930.339,1325.44 931.351,1333.21 932.362,1319.97 933.374,1380.34 934.386,1366.64 935.397,1360.66 936.409,1349.69 937.421,1374.67 938.432,1365.78 939.444,1365.67 940.456,1351.05 941.468,1356.14 942.479,1338.67 943.491,1344.12 944.503,1334.33 945.514,1366.18 946.526,1359.51 947.538,1364.01 948.549,1352.37 949.561,1369.61 950.573,1357.35 951.585,1369.84 952.596,1361.35 953.608,1397.31 954.62,1383.4 955.631,1361.51 956.643,1352.36 957.655,1359.23 958.666,1351.59 959.678,1353.69 960.69,1346.38 961.701,1380.7 962.713,1366.03 963.725,1381.83 964.737,1369.68 965.748,1392.83 966.76,1378.21 967.772,1347.56 968.783,1335.97 969.795,1375.05 970.807,1368.05 971.818,1376.24 972.83,1368.72 973.842,1401.53 974.854,1387.5 975.865,1354.04 976.877,1344.06 977.889,1408.19 978.9,1398.53 979.912,1407.92 980.924,1397.68 981.935,1391.02 982.947,1376.09 983.959,1344.62 984.971,1336.05 985.982,1410.41 986.994,1395.64 988.006,1392.66 989.017,1378.32 990.029,1382.67 991.041,1370.04 992.052,1386.43 993.064,1377.98 994.076,1346.94 995.088,1338.51 996.099,1375.25 997.111,1367.3 998.123,1384.34 999.134,1375.37 1000.15,1335.63 1001.16,1324.16 1002.17,1372.33 1003.18,1360.84 1004.19,1345.73 1005.2,1338.53 1006.22,1346.5 1007.23,1339.55 1008.24,1368.02 1009.25,1360.86 1010.26,1372.27 1011.27,1362.41 1012.29,1322.36 1013.3,1314.16 1014.31,1361.27 1015.32,1354.54 1016.33,1334.62 1017.34,1327.2 1018.36,1335.64 1019.37,1328.14 1020.38,1358.58 1021.39,1347.67 1022.4,1332.99 1023.42,1324.44 1024.43,1356.57 1025.44,1347 1026.45,1338.03 1027.46,1334.12 1028.47,1357.95 1029.49,1353.51 1030.5,1377.83 1031.51,1370.06 1032.52,1342 1033.53,1332.99 1034.54,1362.24 1035.56,1357.61 1036.57,1352.3 1037.58,1342.13 1038.59,1348 1039.6,1336.92 1040.61,1361.22 1041.63,1354.59 1042.64,1363.18 1043.65,1349.72 1044.66,1369.81 1045.67,1360.74 1046.68,1357.55 1047.7,1350.62 1048.71,1360.95 1049.72,1356.29 1050.73,1357.97 1051.74,1352.3 1052.75,1370.55 1053.77,1361.54 1054.78,1386.24 1055.79,1366.4 1056.8,1363.68 1057.81,1358.19 1058.82,1363.85 1059.84,1357.94 1060.85,1384.39 1061.86,1364.97 1062.87,1365.68 1063.88,1356.99 1064.89,1374.31 1065.91,1365.75 1066.92,1349.33 1067.93,1338.55 1068.94,1324.62 1069.95,1318.4 1070.96,1373.07 1071.98,1365.93 1072.99,1364.01 1074,1356.3 1075.01,1365.61 1076.02,1360.99 1077.04,1355.34 1078.05,1348.47 1079.06,1352.89 1080.07,1343.23 1081.08,1343.71 1082.09,1330.28 1083.11,1365 1084.12,1352.89 1085.13,1357.41 1086.14,1350.71 1087.15,1330.16 1088.16,1324.73 1089.18,1348.41 1090.19,1340.55 1091.2,1385.93 1092.21,1368.82 1093.22,1355.92 1094.23,1348.03 1095.25,1392.14 1096.26,1379.92 1097.27,1376.87 1098.28,1361.24 1099.29,1369.97 1100.3,1363.12 1101.32,1384.81 1102.33,1374.76 1103.34,1367.07 1104.35,1359.82 1105.36,1382.13 1106.37,1369.05 1107.39,1386.1 1108.4,1381.38 1109.41,1388.25 1110.42,1370.88 1111.43,1374.13 1112.44,1364.64 1113.46,1381.14 1114.47,1371.73 1115.48,1380.02 1116.49,1363.5 1117.5,1363.82 1118.51,1358.47 1119.53,1345.31 1120.54,1335.46 1121.55,1336.88 1122.56,1329.51 1123.57,1379.3 1124.58,1371.1 1125.6,1376.76 1126.61,1368.12 1127.62,1326.97 1128.63,1316.71 1129.64,1335.73 1130.66,1327.68 1131.67,1318.77 1132.68,1309.5 1133.69,1350.79 1134.7,1341.84 1135.71,1328.88 1136.73,1322.25 1137.74,1388.68 1138.75,1379.78 1139.76,1367.01 1140.77,1352.63 1141.78,1354.92 1142.8,1348.16 1143.81,1345.76 1144.82,1337.63 1145.83,1357.68 1146.84,1348.05 1147.85,1338.66 1148.87,1331.55 1149.88,1349.87 1150.89,1341.63 1151.9,1355.85 1152.91,1341.86 1153.92,1345.34 1154.94,1339.89 1155.95,1379.59 1156.96,1371.26 1157.97,1342.66 1158.98,1334.61 1159.99,1343.01 1161.01,1334.89 1162.02,1333.49 1163.03,1328.57 1164.04,1360.87 1165.05,1352.45 1166.06,1361.13 1167.08,1357.75 1168.09,1363.26 1169.1,1355.69 1170.11,1395.09 1171.12,1385.55 1172.13,1361.53 1173.15,1352.52 1174.16,1364.5 1175.17,1355.33 1176.18,1358.99 1177.19,1352.47 1178.2,1365.96 1179.22,1359.08 1180.23,1372.76 1181.24,1360.46 1182.25,1387.81 1183.26,1379.31 1184.28,1382.07 1185.29,1373.59 1186.3,1386.55 1187.31,1378.38 1188.32,1381.56 1189.33,1374.84 1190.35,1366.63 1191.36,1361.28 1192.37,1386.86 1193.38,1377.95 1194.39,1371.83 1195.4,1365.94 1196.42,1349.99 1197.43,1342.11 1198.44,1393.39 1199.45,1386.45 1200.46,1375.05 1201.47,1367.91 1202.49,1378.24 1203.5,1370.22 1204.51,1395.28 1205.52,1386.22 1206.53,1401.13 1207.54,1395.24 1208.56,1397.09 1209.57,1387.56 1210.58,1396.05 1211.59,1388.58 1212.6,1388.86 1213.61,1381.13 1214.63,1394.06 1215.64,1383.49 1216.65,1383.43 1217.66,1373.92 1218.67,1364.02 1219.68,1359.62 1220.7,1360.41 1221.71,1351.88 1222.72,1385.01 1223.73,1373.28 1224.74,1332.71 1225.75,1328.58 1226.77,1378.28 1227.78,1366.07 1228.79,1352.29 1229.8,1343.41 1230.81,1354.61 1231.82,1345.91 1232.84,1336.23 1233.85,1330.57 1234.86,1337.73 1235.87,1334.42 1236.88,1348.99 1237.9,1343.98 1238.91,1342.41 1239.92,1334.07 1240.93,1355.43 1241.94,1346.94 1242.95,1349.97 1243.97,1341.18 1244.98,1318.36 1245.99,1309.34 1247,1318.78 1248.01,1312.17 1249.02,1326.99 1250.04,1321.93 1251.05,1293.58 1252.06,1283.74 1253.07,1291.59 1254.08,1287.54 1255.09,1331.11 1256.11,1322.87 1257.12,1267.21 1258.13,1259.36 1259.14,1282.84 1260.15,1276.75 1261.16,1281.16 1262.18,1278.08 1263.19,1330.24 1264.2,1325.91 1265.21,1248.03 1266.22,1240.79 1267.23,1273.09 1268.25,1271.25 1269.26,1290.19 1270.27,1286.2 1271.28,1294.67 1272.29,1290.62 1273.3,1308.25 1274.32,1293.73 1275.33,1304.24 1276.34,1293.35 1277.35,1293.96 1278.36,1287.42 1279.37,1313.43 1280.39,1307.27 1281.4,1300.93 1282.41,1292.84 1283.42,1302.8 1284.43,1293.48 1285.44,1317.29 1286.46,1311.26 1287.47,1291.38 1288.48,1286.02 1289.49,1289.78 1290.5,1286.37 1291.52,1305.12 1292.53,1301.27 1293.54,1268.17 1294.55,1261.29 1295.56,1302.22 1296.57,1298.89 1297.59,1288.9 1298.6,1283.45 1299.61,1266.95 1300.62,1261.33 1301.63,1247.11 1302.64,1238.86 1303.66,1273.83 1304.67,1270.59 1305.68,1268.97 1306.69,1265.95 1307.7,1284.73 1308.71,1282.3 1309.73,1310.52 1310.74,1302.97 1311.75,1310.14 1312.76,1305.15 1313.77,1338.51 1314.78,1332.78 1315.8,1324.98 1316.81,1317.13 1317.82,1327.78 1318.83,1323 1319.84,1280.38 1320.85,1277.28 1321.87,1336.57 1322.88,1326.26 1323.89,1345.54 1324.9,1336.81 1325.91,1363.05 1326.92,1356.34 1327.94,1351.41 1328.95,1343.9 1329.96,1355.92 1330.97,1347.99 1331.98,1312.51 1332.99,1304.84 1334.01,1335.88 1335.02,1330.89 1336.03,1341.72 1337.04,1336.74 1338.05,1316.82 1339.06,1312.4 1340.08,1334.82 1341.09,1328.65 1342.1,1324.22 1343.11,1319.33 1344.12,1339.35 1345.14,1332.27 1346.15,1309.34 1347.16,1304.34 1348.17,1316.7 1349.18,1307.64 1350.19,1324.83 1351.21,1320.37 1352.22,1287.38 1353.23,1279.87 1354.24,1326.65 1355.25,1319.83 1356.26,1373.93 1357.28,1354.76 1358.29,1367.37 1359.3,1362.72 1360.31,1360.74 1361.32,1355.87 1362.33,1350.53 1363.35,1338.34 1364.36,1394.68 1365.37,1386.88 1366.38,1350.73 1367.39,1342.59 1368.4,1355.57 1369.42,1348.25 1370.43,1380.75 1371.44,1373.18 1372.45,1322.47 1373.46,1315.28 1374.47,1354.95 1375.49,1345.92 1376.5,1351.24 1377.51,1338.69 1378.52,1341.58 1379.53,1336.06 1380.54,1355.32 1381.56,1351.96 1382.57,1360.18 1383.58,1352.61 1384.59,1328.72 1385.6,1319.07 1386.61,1354.08 1387.63,1347.92 1388.64,1319.05 1389.65,1309.59 1390.66,1328.76 1391.67,1325.64 1392.68,1350.33 1393.7,1345.55 1394.71,1320.06 1395.72,1312.96 1396.73,1325.22 1397.74,1320.7 1398.76,1336.02 1399.77,1328.94 1400.78,1338.15 1401.79,1330.02 1402.8,1325.99 1403.81,1320.04 1404.83,1344.37 1405.84,1335.77 1406.85,1306.55 1407.86,1303.63 1408.87,1320.57 1409.88,1316.92 1410.9,1337.9 1411.91,1326.7 1412.92,1341.63 1413.93,1335.61 1414.94,1330.05 1415.95,1326.32 1416.97,1320.57 1417.98,1317.17 1418.99,1324.19 1420,1312.33 1421.01,1318.06 1422.02,1309.96 1423.04,1305.97 1424.05,1301.07 1425.06,1375.76 1426.07,1366.49 1427.08,1351.81 1428.09,1347.91 1429.11,1345.96 1430.12,1338.13 1431.13,1303.29 1432.14,1295.91 1433.15,1319.99 1434.16,1314.27 1435.18,1343.37 1436.19,1338.58 1437.2,1328.23 1438.21,1324.51 1439.22,1330.24 1440.23,1326.89 1441.25,1329.18 1442.26,1322.61 1443.27,1319.45 1444.28,1311 1445.29,1324.25 1446.3,1315.58 1447.32,1356.51 1448.33,1350.21 1449.34,1360.46 1450.35,1351.44 1451.36,1369.31 1452.38,1359.07 1453.39,1353.97 1454.4,1349.78 1455.41,1337.56 1456.42,1331.31 1457.43,1328.11 1458.45,1323.12 1459.46,1358.47 1460.47,1351.39 1461.48,1348.47 1462.49,1340.71 1463.5,1326.46 1464.52,1322.01 1465.53,1355.21 1466.54,1346.59 1467.55,1350.49 1468.56,1344.45 1469.57,1344.9 1470.59,1340.29 1471.6,1331.44 1472.61,1323.88 1473.62,1333.4 1474.63,1329.11 1475.64,1339.66 1476.66,1333.93 1477.67,1336.44 1478.68,1332.56 1479.69,1316.13 1480.7,1312.38 1481.71,1327.53 1482.73,1319.83 1483.74,1355.07 1484.75,1346.72 1485.76,1343.47 1486.77,1333.72 1487.78,1321.48 1488.8,1315.21 1489.81,1303.66 1490.82,1294.02 1491.83,1321.15 1492.84,1315.08 1493.85,1296.05 1494.87,1290.03 1495.88,1343.34 1496.89,1340 1497.9,1344.43 1498.91,1339.15 1499.92,1363.21 1500.94,1358.09 1501.95,1348.5 1502.96,1342.05 1503.97,1357.87 1504.98,1349.73 1506,1367.16 1507.01,1359.34 1508.02,1353.85 1509.03,1347.96 1510.04,1377.93 1511.05,1366.75 1512.07,1355.25 1513.08,1350.37 1514.09,1347.98 1515.1,1341.54 1516.11,1366.7 1517.12,1352.59 1518.14,1341.71 1519.15,1329.33 1520.16,1330.26 1521.17,1324.64 1522.18,1334.83 1523.19,1326.6 1524.21,1339.31 1525.22,1331.11 1526.23,1312.54 1527.24,1301.28 1528.25,1360.95 1529.26,1355.09 1530.28,1357.75 1531.29,1349.89 1532.3,1346.34 1533.31,1337.93 1534.32,1334.31 1535.33,1329.75 1536.35,1349.46 1537.36,1339.74 1538.37,1359.55 1539.38,1352.73 1540.39,1322.67 1541.4,1319.5 1542.42,1383.02 1543.43,1371.12 1544.44,1359.39 1545.45,1348.72 1546.46,1343.73 1547.47,1334.15 1548.49,1353.31 1549.5,1347.62 1550.51,1394.16 1551.52,1386.37 1552.53,1368.31 1553.54,1361.88 1554.56,1360.78 1555.57,1357.94 1556.58,1398.84 1557.59,1393.39 1558.6,1404.54 1559.62,1393.83 1560.63,1384.82 1561.64,1379.11 1562.65,1380.49 1563.66,1373.67 1564.67,1374.23 1565.69,1361.03 1566.7,1381.21 1567.71,1372.56 1568.72,1372.77 1569.73,1364.23 1570.74,1391.97 1571.76,1381.17 1572.77,1391.73 1573.78,1377.13 1574.79,1413.91 1575.8,1401.75 1576.81,1394.26 1577.83,1384.05 1578.84,1422.38 1579.85,1398.04 1580.86,1401.21 1581.87,1391.71 1582.88,1378.16 1583.9,1374.24 1584.91,1378.58 1585.92,1369.19 1586.93,1378.79 1587.94,1369.71 1588.95,1411.97 1589.97,1401.34 1590.98,1384.26 1591.99,1378.13 1593,1404.83 1594.01,1394.77 1595.02,1406.12 1596.04,1400.61 1597.05,1420.51 1598.06,1412.72 1599.07,1413.5 1600.08,1405.95 1601.09,1412.4 1602.11,1405.29 1603.12,1420.13 1604.13,1411.61 1605.14,1436.9 1606.15,1427.17 1607.16,1425.32 1608.18,1419.92 1609.19,1421.83 1610.2,1413.71 1611.21,1424.9 1612.22,1411.74 1613.24,1384.08 1614.25,1377.36 1615.26,1403.09 1616.27,1389.05 1617.28,1385.25 1618.29,1377.79 1619.31,1401.29 1620.32,1389.78 1621.33,1372.63 1622.34,1360.67 1623.35,1362.42 1624.36,1354.85 1625.38,1399.02 1626.39,1389.85 1627.4,1378.44 1628.41,1366.74 1629.42,1409.64 1630.43,1396.52 1631.45,1375.93 1632.46,1369.45 1633.47,1389.92 1634.48,1380.56 1635.49,1399.21 1636.5,1394.91 1637.52,1381.86 1638.53,1375.21 1639.54,1392.98 1640.55,1387.55 1641.56,1387 1642.57,1381.53 1643.59,1377.8 1644.6,1369.87 1645.61,1340.78 1646.62,1336.06 1647.63,1389.22 1648.64,1384.13 1649.66,1380.29 1650.67,1371.4 1651.68,1405.27 1652.69,1395.81 1653.7,1348.88 1654.71,1339.66 1655.73,1368.89 1656.74,1359.86 1657.75,1390.91 1658.76,1380.65 1659.77,1396.14 1660.78,1390.62 1661.8,1375.96 1662.81,1369.37 1663.82,1399.13 1664.83,1395.49 1665.84,1367.61 1666.86,1360.91 1667.87,1377.41 1668.88,1368.21 1669.89,1397.09 1670.9,1388.3 1671.91,1390.78 1672.93,1379.64 1673.94,1391 1674.95,1373.68 1675.96,1405.6 1676.97,1393.24 1677.98,1366.42 1679,1355.79 1680.01,1384.55 1681.02,1375.34 1682.03,1390.26 1683.04,1384.78 1684.05,1361.78 1685.07,1356.93 1686.08,1402.69 1687.09,1393.62 1688.1,1393.88 1689.11,1384.95 1690.12,1387.49 1691.14,1379.79 1692.15,1390.56 1693.16,1384.35 1694.17,1387.18 1695.18,1380.07 1696.19,1386.58 1697.21,1378.25 1698.22,1372.62 1699.23,1364.29 1700.24,1360.37 1701.25,1350.25 1702.26,1363.77 1703.28,1358.03 1704.29,1391.95 1705.3,1382.61 1706.31,1407.84 1707.32,1400.06 1708.33,1380.09 1709.35,1375.59 1710.36,1395.58 1711.37,1379.36 1712.38,1428.94 1713.39,1415.58 1714.4,1390.26 1715.42,1383.46 1716.43,1395.36 1717.44,1390.41 1718.45,1357.77 1719.46,1354.35 1720.47,1406.78 1721.49,1393.71 1722.5,1362.28 1723.51,1354.53 1724.52,1406.47 1725.53,1399.34 1726.55,1394.23 1727.56,1381.97 1728.57,1354.13 1729.58,1344.13 1730.59,1398.8 1731.6,1388.26 1732.62,1380.88 1733.63,1369.96 1734.64,1363.52 1735.65,1352.6 1736.66,1358.6 1737.67,1351.91 1738.69,1337.09 1739.7,1333.22 1740.71,1365.1 1741.72,1358.14 1742.73,1351.6 1743.74,1347.65 1744.76,1358.48 1745.77,1349.48 1746.78,1365.52 1747.79,1351.76 1748.8,1347.7 1749.81,1342.87 1750.83,1342.56 1751.84,1332.5 1752.85,1353.43 1753.86,1347.86 1754.87,1337.75 1755.88,1331.88 1756.9,1346.67 1757.91,1340.76 1758.92,1365.68 1759.93,1360.03 1760.94,1366.61 1761.95,1357.91 1762.97,1370.56 1763.98,1366.07 1764.99,1377.78 1766,1371.9 1767.01,1375.95 1768.02,1363.25 1769.04,1376.72 1770.05,1371.3 1771.06,1388.23 1772.07,1379.82 1773.08,1402.91 1774.09,1393.99 1775.11,1340.46 1776.12,1326.25 1777.13,1346.97 1778.14,1341.65 1779.15,1359.29 1780.17,1353.87 1781.18,1366.18 1782.19,1359.58 1783.2,1378.14 1784.21,1373.12 1785.22,1374.07 1786.24,1366.77 1787.25,1408.89 1788.26,1394.16 1789.27,1374.83 1790.28,1364.64 1791.29,1353.87 1792.31,1345.18 1793.32,1372.75 1794.33,1367.46 1795.34,1365.48 1796.35,1360.82 1797.36,1399.3 1798.38,1383.59 1799.39,1394.98 1800.4,1388.42 1801.41,1381.53 1802.42,1370.18 1803.43,1391.1 1804.45,1384.05 1805.46,1373.12 1806.47,1360.82 1807.48,1382.24 1808.49,1374.41 1809.5,1358.78 1810.52,1352.74 1811.53,1379.97 1812.54,1372.82 1813.55,1387.73 1814.56,1381.47 1815.57,1370.96 1816.59,1364 1817.6,1385.59 1818.61,1374.05 1819.62,1370.35 1820.63,1359.73 1821.64,1382.22 1822.66,1372.83 1823.67,1393.2 1824.68,1387.46 1825.69,1403.77 1826.7,1391.88 1827.71,1393.75 1828.73,1382.1 1829.74,1381.47 1830.75,1377.12 1831.76,1394.85 1832.77,1384.42 1833.79,1390.48 1834.8,1385.36 1835.81,1389.41 1836.82,1378.95 1837.83,1388.88 1838.84,1382.57 1839.86,1391.01 1840.87,1378.41 1841.88,1391.77 1842.89,1381.03 1843.9,1358.94 1844.91,1351.17 1845.93,1371.4 1846.94,1362.9 1847.95,1376.93 1848.96,1370.52 1849.97,1375.83 1850.98,1370.44 1852,1374.82 1853.01,1370.63 1854.02,1358.89 1855.03,1355.11 1856.04,1375.25 1857.05,1363.13 1858.07,1381.32 1859.08,1373.49 1860.09,1391.19 1861.1,1384.46 1862.11,1375.17 1863.12,1368.2 1864.14,1373.3 1865.15,1367.37 1866.16,1378.71 1867.17,1371.33 1868.18,1350.29 1869.19,1346.44 1870.21,1377.98 1871.22,1368.1 1872.23,1401.77 1873.24,1396.78 1874.25,1382.72 1875.26,1375.65 1876.28,1384.7 1877.29,1380.62 1878.3,1388.26 1879.31,1381.1 1880.32,1407.68 1881.33,1395.13 1882.35,1403.13 1883.36,1397.38 1884.37,1391.3 1885.38,1375.82 1886.39,1409.26 1887.41,1405.16 1888.42,1385.97 1889.43,1380.02 1890.44,1387.93 1891.45,1377.99 1892.46,1380.01 1893.48,1370.77 1894.49,1395.98 1895.5,1389.97 1896.51,1411.57 1897.52,1405.56 1898.53,1406.97 1899.55,1398.85 1900.56,1419.54 1901.57,1407.11 1902.58,1373.72 1903.59,1369.24 1904.6,1415.36 1905.62,1401.88 1906.63,1420.65 1907.64,1415.84 1908.65,1418.94 1909.66,1412.31 1910.67,1427.08 1911.69,1421.88 1912.7,1419.36 1913.71,1404.05 1914.72,1412.02 1915.73,1404.76 1916.74,1400.77 1917.76,1389.53 1918.77,1407.03 1919.78,1400.81 1920.79,1423.9 1921.8,1410.5 1922.81,1415.6 1923.83,1409.66 1924.84,1435.87 1925.85,1428.56 1926.86,1428.5 1927.87,1414.04 1928.88,1403.47 1929.9,1395.15 1930.91,1432.48 1931.92,1418.34 1932.93,1395.02 1933.94,1386.11 1934.95,1445.72 1935.97,1429 1936.98,1424.09 1937.99,1415.9 1939,1397.43 1940.01,1392.34 1941.03,1418.42 1942.04,1406.24 1943.05,1373.54 1944.06,1367.43 1945.07,1415.84 1946.08,1409.43 1947.1,1410.86 1948.11,1406.26 1949.12,1433.73 1950.13,1422.92 1951.14,1402.17 1952.15,1392.41 1953.17,1405.77 1954.18,1399 1955.19,1387.25 1956.2,1377.35 1957.21,1400.85 1958.22,1394.55 1959.24,1410.22 1960.25,1402.85 1961.26,1391.26 1962.27,1384.54 1963.28,1364.9 1964.29,1360.36 1965.31,1371.52 1966.32,1362.83 1967.33,1388.02 1968.34,1382.13 1969.35,1379.39 1970.36,1372.82 1971.38,1347.09 1972.39,1338.33 1973.4,1379.62 1974.41,1375.16 1975.42,1386.78 1976.43,1383.07 1977.45,1375.62 1978.46,1369.39 1979.47,1388.94 1980.48,1382.2 1981.49,1364.9 1982.5,1357.2 1983.52,1394.92 1984.53,1387.08 1985.54,1407.98 1986.55,1400.98 1987.56,1421.47 1988.57,1413.31 1989.59,1412.97 1990.6,1406.87 1991.61,1420.94 1992.62,1409.23 1993.63,1396.73 1994.65,1391.49 1995.66,1393.4 1996.67,1384.75 1997.68,1372.78 1998.69,1363.24 1999.7,1373.04 2000.72,1368.17 2001.73,1400.52 2002.74,1387.14 2003.75,1378.72 2004.76,1374.04 2005.77,1384.41 2006.79,1374.06 2007.8,1390.75 2008.81,1377.85 2009.82,1364.69 2010.83,1355.26 2011.84,1340.55 2012.86,1329.93 2013.87,1362.1 2014.88,1352.38 2015.89,1349.08 2016.9,1339.54 2017.91,1349.6 2018.93,1346.91 2019.94,1383.15 2020.95,1371.47 2021.96,1374.94 2022.97,1369.11 2023.98,1343.93 2025,1330.04 2026.01,1364.8 2027.02,1353.26 2028.03,1376.62 2029.04,1370.45 2030.05,1375.62 2031.07,1369.4 2032.08,1357.12 2033.09,1346.83 2034.1,1356.69 2035.11,1343.18 2036.12,1338.56 2037.14,1332.62 2038.15,1366.42 2039.16,1358.77 2040.17,1361.06 2041.18,1355.46 2042.19,1374.62 2043.21,1364.08 2044.22,1401.8 2045.23,1388.69 2046.24,1360.65 2047.25,1354.76 2048.27,1358 2049.28,1350.81 2050.29,1366.46 2051.3,1361.31 2052.31,1357.32 2053.32,1350.11 2054.34,1351.05 2055.35,1346.42 2056.36,1351.54 2057.37,1346.92 2058.38,1379.61 2059.39,1366.8 2060.41,1359.17 2061.42,1353.71 2062.43,1342.62 2063.44,1335.9 2064.45,1341.16 2065.46,1331.02 2066.48,1334.96 2067.49,1324.86 2068.5,1344.26 2069.51,1339.07 2070.52,1328.75 2071.53,1319.34 2072.55,1352.72 2073.56,1343.79 2074.57,1384.25 2075.58,1379.42 2076.59,1384.22 2077.6,1371.52 2078.62,1414.42 2079.63,1403.76 2080.64,1392.69 2081.65,1385.03 2082.66,1423.53 2083.67,1412.12 2084.69,1394.25 2085.7,1385.02 2086.71,1385.82 2087.72,1376.41 2088.73,1391.83 2089.74,1376.05 2090.76,1393.04 2091.77,1377.51 2092.78,1401.99 2093.79,1392.26 2094.8,1391.12 2095.81,1381.69 2096.83,1392.48 2097.84,1380.5 2098.85,1388.09 2099.86,1378.59 2100.87,1385.01 2101.89,1379.13 2102.9,1362.69 2103.91,1354.26 2104.92,1386.1 2105.93,1379.23 2106.94,1368.52 2107.96,1355.85 2108.97,1380.12 2109.98,1372.34 2110.99,1371.39 2112,1366.65 2113.01,1365.16 2114.03,1358.44 2115.04,1399.86 2116.05,1389.62 2117.06,1346.78 2118.07,1334.45 2119.08,1373.86 2120.1,1359.9 2121.11,1377.72 2122.12,1374.64 2123.13,1365.88 2124.14,1360.64 2125.15,1382.74 2126.17,1375.97 2127.18,1399.81 2128.19,1387.06 2129.2,1397.05 2130.21,1389.38 2131.22,1405.23 2132.24,1400.64 2133.25,1395.85 2134.26,1390.9 2135.27,1395.96 2136.28,1388.31 2137.29,1382.2 2138.31,1370.18 2139.32,1399.12 2140.33,1394.58 2141.34,1395.58 2142.35,1381.66 2143.36,1408.17 2144.38,1402.36 2145.39,1426.12 2146.4,1418.07 2147.41,1406.41 2148.42,1398.35 2149.43,1397 2150.45,1385.96 2151.46,1401.03 2152.47,1396.49 2153.48,1401.8 2154.49,1391.53 2155.51,1428.28 2156.52,1418.51 2157.53,1416.44 2158.54,1403.9 2159.55,1438.32 2160.56,1431.58 2161.58,1424.05 2162.59,1411.51 2163.6,1419.26 2164.61,1408.94 2165.62,1431.66 2166.63,1414.92 2167.65,1378.04 2168.66,1371.46 2169.67,1388.14 2170.68,1376.27 2171.69,1420.47 2172.7,1407.55 2173.72,1365.59 2174.73,1357.47 2175.74,1398.78 2176.75,1392.91 2177.76,1372.16 2178.77,1366.32 2179.79,1381.76 2180.8,1377.11 2181.81,1378.74 2182.82,1371.94 2183.83,1384.25 2184.84,1375.89 2185.86,1420.66 2186.87,1411.79 2187.88,1399.59 2188.89,1388.85 2189.9,1402.69 2190.91,1392.39 2191.93,1418.88 2192.94,1413.01 2193.95,1409.69 2194.96,1393.94 2195.97,1397 2196.98,1389.38 2198,1397.92 2199.01,1385.89 2200.02,1373.45 2201.03,1361.13 2202.04,1349.61 2203.05,1346.08 2204.07,1369.66 2205.08,1360.64 2206.09,1373.34 2207.1,1357.87 2208.11,1366.3 2209.13,1358.21 2210.14,1346.06 2211.15,1338.72 2212.16,1323.53 2213.17,1318.48 2214.18,1388.79 2215.2,1379.59 2216.21,1361.23 2217.22,1352.02 2218.23,1375.89 2219.24,1368.24 2220.25,1358.62 2221.27,1348.81 2222.28,1327.6 2223.29,1315.93 2224.3,1339.63 2225.31,1334.45 2226.32,1320.41 2227.34,1314.66 2228.35,1341.64 2229.36,1334.61 2230.37,1363.57 2231.38,1354.16 2232.39,1384.59 2233.41,1370.95 2234.42,1389.24 2235.43,1378.2 2236.44,1389.42 2237.45,1376.14 2238.46,1349.45 2239.48,1339.94 2240.49,1368.91 2241.5,1363.49 2242.51,1390.62 2243.52,1385.36 2244.53,1385.1 2245.55,1376.47 2246.56,1369.04 2247.57,1363.82 2248.58,1373.03 2249.59,1360.53 2250.6,1330.44 2251.62,1323.54 2252.63,1357.09 2253.64,1351.61 2254.65,1356.22 2255.66,1351.81 2256.67,1351.23 2257.69,1346.07 2258.7,1383.93 2259.71,1374.47 2260.72,1373.93 2261.73,1364.76 2262.75,1385.27 2263.76,1375.76 2264.77,1366.07 2265.78,1359.99 2266.79,1382.75 2267.8,1379.84 2268.82,1378.7 2269.83,1371.91 2270.84,1371.19 2271.85,1364.52 2272.86,1373.25 2273.87,1360.88 2274.89,1380.12 2275.9,1370.7 2276.91,1378.03 2277.92,1373.71 2278.93,1383.54 2279.94,1373.74 2280.96,1374.86 2281.97,1371.27 2282.98,1376.51 2283.99,1365.39 2285,1380.43 2286.01,1370.21 2287.03,1366.66 2288.04,1362.82 2289.05,1377.09 2290.06,1365.32 2291.07,1367 2292.08,1359.04 "/>
<path clip-path="url(#clip530)" d="M2014.5 198.898 L2281.3 198.898 L2281.3 95.2176 L2014.5 95.2176  Z" fill="#ffffff" fill-rule="evenodd" fill-opacity="1"/>
<polyline clip-path="url(#clip530)" style="stroke:#000000; stroke-linecap:round; stroke-linejoin:round; stroke-width:4; stroke-opacity:1; fill:none" points="2014.5,198.898 2281.3,198.898 2281.3,95.2176 2014.5,95.2176 2014.5,198.898 "/>
<polyline clip-path="url(#clip530)" style="stroke:#009af9; stroke-linecap:round; stroke-linejoin:round; stroke-width:4; stroke-opacity:1; fill:none" points="2038.31,147.058 2181.23,147.058 "/>
<path clip-path="url(#clip530)" d="M2218.89 166.745 Q2217.09 171.375 2215.37 172.787 Q2213.66 174.199 2210.79 174.199 L2207.39 174.199 L2207.39 170.634 L2209.89 170.634 Q2211.65 170.634 2212.62 169.8 Q2213.59 168.967 2214.77 165.865 L2215.53 163.921 L2205.05 138.412 L2209.56 138.412 L2217.66 158.689 L2225.77 138.412 L2230.28 138.412 L2218.89 166.745 Z" fill="#000000" fill-rule="nonzero" fill-opacity="1" /><path clip-path="url(#clip530)" d="M2237.57 160.402 L2245.21 160.402 L2245.21 134.037 L2236.9 135.703 L2236.9 131.444 L2245.16 129.778 L2249.84 129.778 L2249.84 160.402 L2257.48 160.402 L2257.48 164.338 L2237.57 164.338 L2237.57 160.402 Z" fill="#000000" fill-rule="nonzero" fill-opacity="1" /></svg>
