<?xml version="1.0" encoding="utf-8"?>
<svg xmlns="http://www.w3.org/2000/svg" xmlns:xlink="http://www.w3.org/1999/xlink" width="600" height="400" viewBox="0 0 2400 1600">
<defs>
  <clipPath id="clip780">
    <rect x="0" y="0" width="2400" height="1600"/>
  </clipPath>
</defs>
<path clip-path="url(#clip780)" d="M0 1600 L2400 1600 L2400 0 L0 0  Z" fill="#ffffff" fill-rule="evenodd" fill-opacity="1"/>
<defs>
  <clipPath id="clip781">
    <rect x="480" y="0" width="1681" height="1600"/>
  </clipPath>
</defs>
<path clip-path="url(#clip780)" d="M239.19 1486.45 L2352.76 1486.45 L2352.76 47.2441 L239.19 47.2441  Z" fill="#ffffff" fill-rule="evenodd" fill-opacity="1"/>
<defs>
  <clipPath id="clip782">
    <rect x="239" y="47" width="2115" height="1440"/>
  </clipPath>
</defs>
<polyline clip-path="url(#clip782)" style="stroke:#000000; stroke-linecap:round; stroke-linejoin:round; stroke-width:2; stroke-opacity:0.1; fill:none" points="299.008,1486.45 299.008,47.2441 "/>
<polyline clip-path="url(#clip782)" style="stroke:#000000; stroke-linecap:round; stroke-linejoin:round; stroke-width:2; stroke-opacity:0.1; fill:none" points="797.74,1486.45 797.74,47.2441 "/>
<polyline clip-path="url(#clip782)" style="stroke:#000000; stroke-linecap:round; stroke-linejoin:round; stroke-width:2; stroke-opacity:0.1; fill:none" points="1296.47,1486.45 1296.47,47.2441 "/>
<polyline clip-path="url(#clip782)" style="stroke:#000000; stroke-linecap:round; stroke-linejoin:round; stroke-width:2; stroke-opacity:0.1; fill:none" points="1795.2,1486.45 1795.2,47.2441 "/>
<polyline clip-path="url(#clip782)" style="stroke:#000000; stroke-linecap:round; stroke-linejoin:round; stroke-width:2; stroke-opacity:0.1; fill:none" points="2293.94,1486.45 2293.94,47.2441 "/>
<polyline clip-path="url(#clip780)" style="stroke:#000000; stroke-linecap:round; stroke-linejoin:round; stroke-width:4; stroke-opacity:1; fill:none" points="239.19,1486.45 2352.76,1486.45 "/>
<polyline clip-path="url(#clip780)" style="stroke:#000000; stroke-linecap:round; stroke-linejoin:round; stroke-width:4; stroke-opacity:1; fill:none" points="299.008,1486.45 299.008,1467.55 "/>
<polyline clip-path="url(#clip780)" style="stroke:#000000; stroke-linecap:round; stroke-linejoin:round; stroke-width:4; stroke-opacity:1; fill:none" points="797.74,1486.45 797.74,1467.55 "/>
<polyline clip-path="url(#clip780)" style="stroke:#000000; stroke-linecap:round; stroke-linejoin:round; stroke-width:4; stroke-opacity:1; fill:none" points="1296.47,1486.45 1296.47,1467.55 "/>
<polyline clip-path="url(#clip780)" style="stroke:#000000; stroke-linecap:round; stroke-linejoin:round; stroke-width:4; stroke-opacity:1; fill:none" points="1795.2,1486.45 1795.2,1467.55 "/>
<polyline clip-path="url(#clip780)" style="stroke:#000000; stroke-linecap:round; stroke-linejoin:round; stroke-width:4; stroke-opacity:1; fill:none" points="2293.94,1486.45 2293.94,1467.55 "/>
<path clip-path="url(#clip780)" d="M299.008 1517.37 Q295.397 1517.37 293.568 1520.93 Q291.763 1524.47 291.763 1531.6 Q291.763 1538.71 293.568 1542.27 Q295.397 1545.82 299.008 1545.82 Q302.643 1545.82 304.448 1542.27 Q306.277 1538.71 306.277 1531.6 Q306.277 1524.47 304.448 1520.93 Q302.643 1517.37 299.008 1517.37 M299.008 1513.66 Q304.818 1513.66 307.874 1518.27 Q310.953 1522.85 310.953 1531.6 Q310.953 1540.33 307.874 1544.94 Q304.818 1549.52 299.008 1549.52 Q293.198 1549.52 290.119 1544.94 Q287.064 1540.33 287.064 1531.6 Q287.064 1522.85 290.119 1518.27 Q293.198 1513.66 299.008 1513.66 Z" fill="#000000" fill-rule="nonzero" fill-opacity="1" /><path clip-path="url(#clip780)" d="M757.358 1514.29 L775.715 1514.29 L775.715 1518.22 L761.641 1518.22 L761.641 1526.7 Q762.659 1526.35 763.678 1526.19 Q764.696 1526 765.715 1526 Q771.502 1526 774.881 1529.17 Q778.261 1532.34 778.261 1537.76 Q778.261 1543.34 774.789 1546.44 Q771.317 1549.52 764.997 1549.52 Q762.821 1549.52 760.553 1549.15 Q758.307 1548.78 755.9 1548.04 L755.9 1543.34 Q757.983 1544.47 760.206 1545.03 Q762.428 1545.58 764.905 1545.58 Q768.909 1545.58 771.247 1543.48 Q773.585 1541.37 773.585 1537.76 Q773.585 1534.15 771.247 1532.04 Q768.909 1529.94 764.905 1529.94 Q763.03 1529.94 761.155 1530.35 Q759.303 1530.77 757.358 1531.65 L757.358 1514.29 Z" fill="#000000" fill-rule="nonzero" fill-opacity="1" /><path clip-path="url(#clip780)" d="M797.474 1517.37 Q793.863 1517.37 792.034 1520.93 Q790.229 1524.47 790.229 1531.6 Q790.229 1538.71 792.034 1542.27 Q793.863 1545.82 797.474 1545.82 Q801.108 1545.82 802.914 1542.27 Q804.742 1538.71 804.742 1531.6 Q804.742 1524.47 802.914 1520.93 Q801.108 1517.37 797.474 1517.37 M797.474 1513.66 Q803.284 1513.66 806.34 1518.27 Q809.418 1522.85 809.418 1531.6 Q809.418 1540.33 806.34 1544.94 Q803.284 1549.52 797.474 1549.52 Q791.664 1549.52 788.585 1544.94 Q785.529 1540.33 785.529 1531.6 Q785.529 1522.85 788.585 1518.27 Q791.664 1513.66 797.474 1513.66 Z" fill="#000000" fill-rule="nonzero" fill-opacity="1" /><path clip-path="url(#clip780)" d="M827.636 1517.37 Q824.025 1517.37 822.196 1520.93 Q820.39 1524.47 820.39 1531.6 Q820.39 1538.71 822.196 1542.27 Q824.025 1545.82 827.636 1545.82 Q831.27 1545.82 833.076 1542.27 Q834.904 1538.71 834.904 1531.6 Q834.904 1524.47 833.076 1520.93 Q831.27 1517.37 827.636 1517.37 M827.636 1513.66 Q833.446 1513.66 836.501 1518.27 Q839.58 1522.85 839.58 1531.6 Q839.58 1540.33 836.501 1544.94 Q833.446 1549.52 827.636 1549.52 Q821.826 1549.52 818.747 1544.94 Q815.691 1540.33 815.691 1531.6 Q815.691 1522.85 818.747 1518.27 Q821.826 1513.66 827.636 1513.66 Z" fill="#000000" fill-rule="nonzero" fill-opacity="1" /><path clip-path="url(#clip780)" d="M1241 1544.91 L1248.64 1544.91 L1248.64 1518.55 L1240.33 1520.21 L1240.33 1515.95 L1248.59 1514.29 L1253.27 1514.29 L1253.27 1544.91 L1260.9 1544.91 L1260.9 1548.85 L1241 1548.85 L1241 1544.91 Z" fill="#000000" fill-rule="nonzero" fill-opacity="1" /><path clip-path="url(#clip780)" d="M1280.35 1517.37 Q1276.74 1517.37 1274.91 1520.93 Q1273.1 1524.47 1273.1 1531.6 Q1273.1 1538.71 1274.91 1542.27 Q1276.74 1545.82 1280.35 1545.82 Q1283.98 1545.82 1285.79 1542.27 Q1287.62 1538.71 1287.62 1531.6 Q1287.62 1524.47 1285.79 1520.93 Q1283.98 1517.37 1280.35 1517.37 M1280.35 1513.66 Q1286.16 1513.66 1289.21 1518.27 Q1292.29 1522.85 1292.29 1531.6 Q1292.29 1540.33 1289.21 1544.94 Q1286.16 1549.52 1280.35 1549.52 Q1274.54 1549.52 1271.46 1544.94 Q1268.4 1540.33 1268.4 1531.6 Q1268.4 1522.85 1271.46 1518.27 Q1274.54 1513.66 1280.35 1513.66 Z" fill="#000000" fill-rule="nonzero" fill-opacity="1" /><path clip-path="url(#clip780)" d="M1310.51 1517.37 Q1306.9 1517.37 1305.07 1520.93 Q1303.27 1524.47 1303.27 1531.6 Q1303.27 1538.71 1305.07 1542.27 Q1306.9 1545.82 1310.51 1545.82 Q1314.15 1545.82 1315.95 1542.27 Q1317.78 1538.71 1317.78 1531.6 Q1317.78 1524.47 1315.95 1520.93 Q1314.15 1517.37 1310.51 1517.37 M1310.51 1513.66 Q1316.32 1513.66 1319.38 1518.27 Q1322.46 1522.85 1322.46 1531.6 Q1322.46 1540.33 1319.38 1544.94 Q1316.32 1549.52 1310.51 1549.52 Q1304.7 1549.52 1301.62 1544.94 Q1298.57 1540.33 1298.57 1531.6 Q1298.57 1522.85 1301.62 1518.27 Q1304.7 1513.66 1310.51 1513.66 Z" fill="#000000" fill-rule="nonzero" fill-opacity="1" /><path clip-path="url(#clip780)" d="M1340.67 1517.37 Q1337.06 1517.37 1335.23 1520.93 Q1333.43 1524.47 1333.43 1531.6 Q1333.43 1538.71 1335.23 1542.27 Q1337.06 1545.82 1340.67 1545.82 Q1344.31 1545.82 1346.11 1542.27 Q1347.94 1538.71 1347.94 1531.6 Q1347.94 1524.47 1346.11 1520.93 Q1344.31 1517.37 1340.67 1517.37 M1340.67 1513.66 Q1346.48 1513.66 1349.54 1518.27 Q1352.62 1522.85 1352.62 1531.6 Q1352.62 1540.33 1349.54 1544.94 Q1346.48 1549.52 1340.67 1549.52 Q1334.86 1549.52 1331.78 1544.94 Q1328.73 1540.33 1328.73 1531.6 Q1328.73 1522.85 1331.78 1518.27 Q1334.86 1513.66 1340.67 1513.66 Z" fill="#000000" fill-rule="nonzero" fill-opacity="1" /><path clip-path="url(#clip780)" d="M1739.73 1544.91 L1747.37 1544.91 L1747.37 1518.55 L1739.06 1520.21 L1739.06 1515.95 L1747.32 1514.29 L1752 1514.29 L1752 1544.91 L1759.64 1544.91 L1759.64 1548.85 L1739.73 1548.85 L1739.73 1544.91 Z" fill="#000000" fill-rule="nonzero" fill-opacity="1" /><path clip-path="url(#clip780)" d="M1769.13 1514.29 L1787.48 1514.29 L1787.48 1518.22 L1773.41 1518.22 L1773.41 1526.7 Q1774.43 1526.35 1775.45 1526.19 Q1776.47 1526 1777.48 1526 Q1783.27 1526 1786.65 1529.17 Q1790.03 1532.34 1790.03 1537.76 Q1790.03 1543.34 1786.56 1546.44 Q1783.09 1549.52 1776.77 1549.52 Q1774.59 1549.52 1772.32 1549.15 Q1770.08 1548.78 1767.67 1548.04 L1767.67 1543.34 Q1769.75 1544.47 1771.97 1545.03 Q1774.2 1545.58 1776.67 1545.58 Q1780.68 1545.58 1783.02 1543.48 Q1785.35 1541.37 1785.35 1537.76 Q1785.35 1534.15 1783.02 1532.04 Q1780.68 1529.94 1776.67 1529.94 Q1774.8 1529.94 1772.92 1530.35 Q1771.07 1530.77 1769.13 1531.65 L1769.13 1514.29 Z" fill="#000000" fill-rule="nonzero" fill-opacity="1" /><path clip-path="url(#clip780)" d="M1809.24 1517.37 Q1805.63 1517.37 1803.8 1520.93 Q1802 1524.47 1802 1531.6 Q1802 1538.71 1803.8 1542.27 Q1805.63 1545.82 1809.24 1545.82 Q1812.88 1545.82 1814.68 1542.27 Q1816.51 1538.71 1816.51 1531.6 Q1816.51 1524.47 1814.68 1520.93 Q1812.88 1517.37 1809.24 1517.37 M1809.24 1513.66 Q1815.05 1513.66 1818.11 1518.27 Q1821.19 1522.85 1821.19 1531.6 Q1821.19 1540.33 1818.11 1544.94 Q1815.05 1549.52 1809.24 1549.52 Q1803.43 1549.52 1800.35 1544.94 Q1797.3 1540.33 1797.3 1531.6 Q1797.3 1522.85 1800.35 1518.27 Q1803.43 1513.66 1809.24 1513.66 Z" fill="#000000" fill-rule="nonzero" fill-opacity="1" /><path clip-path="url(#clip780)" d="M1839.4 1517.37 Q1835.79 1517.37 1833.97 1520.93 Q1832.16 1524.47 1832.16 1531.6 Q1832.16 1538.71 1833.97 1542.27 Q1835.79 1545.82 1839.4 1545.82 Q1843.04 1545.82 1844.84 1542.27 Q1846.67 1538.71 1846.67 1531.6 Q1846.67 1524.47 1844.84 1520.93 Q1843.04 1517.37 1839.4 1517.37 M1839.4 1513.66 Q1845.21 1513.66 1848.27 1518.27 Q1851.35 1522.85 1851.35 1531.6 Q1851.35 1540.33 1848.27 1544.94 Q1845.21 1549.52 1839.4 1549.52 Q1833.59 1549.52 1830.52 1544.94 Q1827.46 1540.33 1827.46 1531.6 Q1827.46 1522.85 1830.52 1518.27 Q1833.59 1513.66 1839.4 1513.66 Z" fill="#000000" fill-rule="nonzero" fill-opacity="1" /><path clip-path="url(#clip780)" d="M2242.55 1544.91 L2258.87 1544.91 L2258.87 1548.85 L2236.92 1548.85 L2236.92 1544.91 Q2239.58 1542.16 2244.17 1537.53 Q2248.77 1532.88 2249.95 1531.53 Q2252.2 1529.01 2253.08 1527.27 Q2253.98 1525.51 2253.98 1523.82 Q2253.98 1521.07 2252.04 1519.33 Q2250.12 1517.6 2247.01 1517.6 Q2244.82 1517.6 2242.36 1518.36 Q2239.93 1519.13 2237.15 1520.68 L2237.15 1515.95 Q2239.98 1514.82 2242.43 1514.24 Q2244.88 1513.66 2246.92 1513.66 Q2252.29 1513.66 2255.49 1516.35 Q2258.68 1519.03 2258.68 1523.52 Q2258.68 1525.65 2257.87 1527.57 Q2257.08 1529.47 2254.98 1532.07 Q2254.4 1532.74 2251.3 1535.95 Q2248.19 1539.15 2242.55 1544.91 Z" fill="#000000" fill-rule="nonzero" fill-opacity="1" /><path clip-path="url(#clip780)" d="M2278.68 1517.37 Q2275.07 1517.37 2273.24 1520.93 Q2271.44 1524.47 2271.44 1531.6 Q2271.44 1538.71 2273.24 1542.27 Q2275.07 1545.82 2278.68 1545.82 Q2282.32 1545.82 2284.12 1542.27 Q2285.95 1538.71 2285.95 1531.6 Q2285.95 1524.47 2284.12 1520.93 Q2282.32 1517.37 2278.68 1517.37 M2278.68 1513.66 Q2284.49 1513.66 2287.55 1518.27 Q2290.63 1522.85 2290.63 1531.6 Q2290.63 1540.33 2287.55 1544.94 Q2284.49 1549.52 2278.68 1549.52 Q2272.87 1549.52 2269.79 1544.94 Q2266.74 1540.33 2266.74 1531.6 Q2266.74 1522.85 2269.79 1518.27 Q2272.87 1513.66 2278.68 1513.66 Z" fill="#000000" fill-rule="nonzero" fill-opacity="1" /><path clip-path="url(#clip780)" d="M2308.84 1517.37 Q2305.23 1517.37 2303.4 1520.93 Q2301.6 1524.47 2301.6 1531.6 Q2301.6 1538.71 2303.4 1542.27 Q2305.23 1545.82 2308.84 1545.82 Q2312.48 1545.82 2314.28 1542.27 Q2316.11 1538.71 2316.11 1531.6 Q2316.11 1524.47 2314.28 1520.93 Q2312.48 1517.37 2308.84 1517.37 M2308.84 1513.66 Q2314.65 1513.66 2317.71 1518.27 Q2320.79 1522.85 2320.79 1531.6 Q2320.79 1540.33 2317.71 1544.94 Q2314.65 1549.52 2308.84 1549.52 Q2303.03 1549.52 2299.95 1544.94 Q2296.9 1540.33 2296.9 1531.6 Q2296.9 1522.85 2299.95 1518.27 Q2303.03 1513.66 2308.84 1513.66 Z" fill="#000000" fill-rule="nonzero" fill-opacity="1" /><path clip-path="url(#clip780)" d="M2339 1517.37 Q2335.39 1517.37 2333.56 1520.93 Q2331.76 1524.47 2331.76 1531.6 Q2331.76 1538.71 2333.56 1542.27 Q2335.39 1545.82 2339 1545.82 Q2342.64 1545.82 2344.44 1542.27 Q2346.27 1538.71 2346.27 1531.6 Q2346.27 1524.47 2344.44 1520.93 Q2342.64 1517.37 2339 1517.37 M2339 1513.66 Q2344.81 1513.66 2347.87 1518.27 Q2350.95 1522.85 2350.95 1531.6 Q2350.95 1540.33 2347.87 1544.94 Q2344.81 1549.52 2339 1549.52 Q2333.19 1549.52 2330.12 1544.94 Q2327.06 1540.33 2327.06 1531.6 Q2327.06 1522.85 2330.12 1518.27 Q2333.19 1513.66 2339 1513.66 Z" fill="#000000" fill-rule="nonzero" fill-opacity="1" /><polyline clip-path="url(#clip782)" style="stroke:#000000; stroke-linecap:round; stroke-linejoin:round; stroke-width:2; stroke-opacity:0.1; fill:none" points="239.19,1387.34 2352.76,1387.34 "/>
<polyline clip-path="url(#clip782)" style="stroke:#000000; stroke-linecap:round; stroke-linejoin:round; stroke-width:2; stroke-opacity:0.1; fill:none" points="239.19,1160.48 2352.76,1160.48 "/>
<polyline clip-path="url(#clip782)" style="stroke:#000000; stroke-linecap:round; stroke-linejoin:round; stroke-width:2; stroke-opacity:0.1; fill:none" points="239.19,933.606 2352.76,933.606 "/>
<polyline clip-path="url(#clip782)" style="stroke:#000000; stroke-linecap:round; stroke-linejoin:round; stroke-width:2; stroke-opacity:0.1; fill:none" points="239.19,706.736 2352.76,706.736 "/>
<polyline clip-path="url(#clip782)" style="stroke:#000000; stroke-linecap:round; stroke-linejoin:round; stroke-width:2; stroke-opacity:0.1; fill:none" points="239.19,479.867 2352.76,479.867 "/>
<polyline clip-path="url(#clip782)" style="stroke:#000000; stroke-linecap:round; stroke-linejoin:round; stroke-width:2; stroke-opacity:0.1; fill:none" points="239.19,252.997 2352.76,252.997 "/>
<polyline clip-path="url(#clip780)" style="stroke:#000000; stroke-linecap:round; stroke-linejoin:round; stroke-width:4; stroke-opacity:1; fill:none" points="239.19,1486.45 239.19,47.2441 "/>
<polyline clip-path="url(#clip780)" style="stroke:#000000; stroke-linecap:round; stroke-linejoin:round; stroke-width:4; stroke-opacity:1; fill:none" points="239.19,1387.34 258.088,1387.34 "/>
<polyline clip-path="url(#clip780)" style="stroke:#000000; stroke-linecap:round; stroke-linejoin:round; stroke-width:4; stroke-opacity:1; fill:none" points="239.19,1160.48 258.088,1160.48 "/>
<polyline clip-path="url(#clip780)" style="stroke:#000000; stroke-linecap:round; stroke-linejoin:round; stroke-width:4; stroke-opacity:1; fill:none" points="239.19,933.606 258.088,933.606 "/>
<polyline clip-path="url(#clip780)" style="stroke:#000000; stroke-linecap:round; stroke-linejoin:round; stroke-width:4; stroke-opacity:1; fill:none" points="239.19,706.736 258.088,706.736 "/>
<polyline clip-path="url(#clip780)" style="stroke:#000000; stroke-linecap:round; stroke-linejoin:round; stroke-width:4; stroke-opacity:1; fill:none" points="239.19,479.867 258.088,479.867 "/>
<polyline clip-path="url(#clip780)" style="stroke:#000000; stroke-linecap:round; stroke-linejoin:round; stroke-width:4; stroke-opacity:1; fill:none" points="239.19,252.997 258.088,252.997 "/>
<path clip-path="url(#clip780)" d="M50.9921 1387.8 L80.6679 1387.8 L80.6679 1391.73 L50.9921 1391.73 L50.9921 1387.8 Z" fill="#000000" fill-rule="nonzero" fill-opacity="1" /><path clip-path="url(#clip780)" d="M91.5706 1400.69 L99.2095 1400.69 L99.2095 1374.32 L90.8993 1375.99 L90.8993 1371.73 L99.1632 1370.06 L103.839 1370.06 L103.839 1400.69 L111.478 1400.69 L111.478 1404.62 L91.5706 1404.62 L91.5706 1400.69 Z" fill="#000000" fill-rule="nonzero" fill-opacity="1" /><path clip-path="url(#clip780)" d="M119.742 1370.06 L141.964 1370.06 L141.964 1372.06 L129.418 1404.62 L124.533 1404.62 L136.339 1374 L119.742 1374 L119.742 1370.06 Z" fill="#000000" fill-rule="nonzero" fill-opacity="1" /><path clip-path="url(#clip780)" d="M151.13 1370.06 L169.487 1370.06 L169.487 1374 L155.413 1374 L155.413 1382.47 Q156.431 1382.13 157.45 1381.96 Q158.468 1381.78 159.487 1381.78 Q165.274 1381.78 168.654 1384.95 Q172.033 1388.12 172.033 1393.54 Q172.033 1399.12 168.561 1402.22 Q165.089 1405.3 158.769 1405.3 Q156.593 1405.3 154.325 1404.93 Q152.08 1404.56 149.672 1403.81 L149.672 1399.12 Q151.755 1400.25 153.978 1400.81 Q156.2 1401.36 158.677 1401.36 Q162.681 1401.36 165.019 1399.25 Q167.357 1397.15 167.357 1393.54 Q167.357 1389.93 165.019 1387.82 Q162.681 1385.71 158.677 1385.71 Q156.802 1385.71 154.927 1386.13 Q153.075 1386.55 151.13 1387.43 L151.13 1370.06 Z" fill="#000000" fill-rule="nonzero" fill-opacity="1" /><path clip-path="url(#clip780)" d="M191.246 1373.14 Q187.635 1373.14 185.806 1376.71 Q184.001 1380.25 184.001 1387.38 Q184.001 1394.49 185.806 1398.05 Q187.635 1401.59 191.246 1401.59 Q194.88 1401.59 196.686 1398.05 Q198.514 1394.49 198.514 1387.38 Q198.514 1380.25 196.686 1376.71 Q194.88 1373.14 191.246 1373.14 M191.246 1369.44 Q197.056 1369.44 200.112 1374.05 Q203.19 1378.63 203.19 1387.38 Q203.19 1396.11 200.112 1400.71 Q197.056 1405.3 191.246 1405.3 Q185.436 1405.3 182.357 1400.71 Q179.302 1396.11 179.302 1387.38 Q179.302 1378.63 182.357 1374.05 Q185.436 1369.44 191.246 1369.44 Z" fill="#000000" fill-rule="nonzero" fill-opacity="1" /><path clip-path="url(#clip780)" d="M50.9921 1160.93 L80.6679 1160.93 L80.6679 1164.86 L50.9921 1164.86 L50.9921 1160.93 Z" fill="#000000" fill-rule="nonzero" fill-opacity="1" /><path clip-path="url(#clip780)" d="M91.5706 1173.82 L99.2095 1173.82 L99.2095 1147.45 L90.8993 1149.12 L90.8993 1144.86 L99.1632 1143.2 L103.839 1143.2 L103.839 1173.82 L111.478 1173.82 L111.478 1177.76 L91.5706 1177.76 L91.5706 1173.82 Z" fill="#000000" fill-rule="nonzero" fill-opacity="1" /><path clip-path="url(#clip780)" d="M120.969 1143.2 L139.325 1143.2 L139.325 1147.13 L125.251 1147.13 L125.251 1155.6 Q126.27 1155.26 127.288 1155.09 Q128.307 1154.91 129.325 1154.91 Q135.112 1154.91 138.492 1158.08 Q141.871 1161.25 141.871 1166.67 Q141.871 1172.25 138.399 1175.35 Q134.927 1178.43 128.607 1178.43 Q126.432 1178.43 124.163 1178.06 Q121.918 1177.69 119.51 1176.95 L119.51 1172.25 Q121.594 1173.38 123.816 1173.94 Q126.038 1174.49 128.515 1174.49 Q132.519 1174.49 134.857 1172.39 Q137.195 1170.28 137.195 1166.67 Q137.195 1163.06 134.857 1160.95 Q132.519 1158.84 128.515 1158.84 Q126.64 1158.84 124.765 1159.26 Q122.913 1159.68 120.969 1160.56 L120.969 1143.2 Z" fill="#000000" fill-rule="nonzero" fill-opacity="1" /><path clip-path="url(#clip780)" d="M161.084 1146.27 Q157.473 1146.27 155.644 1149.84 Q153.839 1153.38 153.839 1160.51 Q153.839 1167.62 155.644 1171.18 Q157.473 1174.72 161.084 1174.72 Q164.718 1174.72 166.524 1171.18 Q168.353 1167.62 168.353 1160.51 Q168.353 1153.38 166.524 1149.84 Q164.718 1146.27 161.084 1146.27 M161.084 1142.57 Q166.894 1142.57 169.95 1147.18 Q173.029 1151.76 173.029 1160.51 Q173.029 1169.24 169.95 1173.84 Q166.894 1178.43 161.084 1178.43 Q155.274 1178.43 152.195 1173.84 Q149.14 1169.24 149.14 1160.51 Q149.14 1151.76 152.195 1147.18 Q155.274 1142.57 161.084 1142.57 Z" fill="#000000" fill-rule="nonzero" fill-opacity="1" /><path clip-path="url(#clip780)" d="M191.246 1146.27 Q187.635 1146.27 185.806 1149.84 Q184.001 1153.38 184.001 1160.51 Q184.001 1167.62 185.806 1171.18 Q187.635 1174.72 191.246 1174.72 Q194.88 1174.72 196.686 1171.18 Q198.514 1167.62 198.514 1160.51 Q198.514 1153.38 196.686 1149.84 Q194.88 1146.27 191.246 1146.27 M191.246 1142.57 Q197.056 1142.57 200.112 1147.18 Q203.19 1151.76 203.19 1160.51 Q203.19 1169.24 200.112 1173.84 Q197.056 1178.43 191.246 1178.43 Q185.436 1178.43 182.357 1173.84 Q179.302 1169.24 179.302 1160.51 Q179.302 1151.76 182.357 1147.18 Q185.436 1142.57 191.246 1142.57 Z" fill="#000000" fill-rule="nonzero" fill-opacity="1" /><path clip-path="url(#clip780)" d="M50.9921 934.057 L80.6679 934.057 L80.6679 937.992 L50.9921 937.992 L50.9921 934.057 Z" fill="#000000" fill-rule="nonzero" fill-opacity="1" /><path clip-path="url(#clip780)" d="M91.5706 946.951 L99.2095 946.951 L99.2095 920.585 L90.8993 922.252 L90.8993 917.992 L99.1632 916.326 L103.839 916.326 L103.839 946.951 L111.478 946.951 L111.478 950.886 L91.5706 950.886 L91.5706 946.951 Z" fill="#000000" fill-rule="nonzero" fill-opacity="1" /><path clip-path="url(#clip780)" d="M124.95 946.951 L141.269 946.951 L141.269 950.886 L119.325 950.886 L119.325 946.951 Q121.987 944.196 126.57 939.566 Q131.177 934.914 132.357 933.571 Q134.603 931.048 135.482 929.312 Q136.385 927.553 136.385 925.863 Q136.385 923.108 134.441 921.372 Q132.519 919.636 129.418 919.636 Q127.219 919.636 124.765 920.4 Q122.334 921.164 119.557 922.715 L119.557 917.992 Q122.381 916.858 124.834 916.28 Q127.288 915.701 129.325 915.701 Q134.695 915.701 137.89 918.386 Q141.084 921.071 141.084 925.562 Q141.084 927.691 140.274 929.613 Q139.487 931.511 137.381 934.103 Q136.802 934.775 133.7 937.992 Q130.598 941.187 124.95 946.951 Z" fill="#000000" fill-rule="nonzero" fill-opacity="1" /><path clip-path="url(#clip780)" d="M151.13 916.326 L169.487 916.326 L169.487 920.261 L155.413 920.261 L155.413 928.733 Q156.431 928.386 157.45 928.224 Q158.468 928.039 159.487 928.039 Q165.274 928.039 168.654 931.21 Q172.033 934.381 172.033 939.798 Q172.033 945.377 168.561 948.478 Q165.089 951.557 158.769 951.557 Q156.593 951.557 154.325 951.187 Q152.08 950.816 149.672 950.076 L149.672 945.377 Q151.755 946.511 153.978 947.066 Q156.2 947.622 158.677 947.622 Q162.681 947.622 165.019 945.515 Q167.357 943.409 167.357 939.798 Q167.357 936.187 165.019 934.08 Q162.681 931.974 158.677 931.974 Q156.802 931.974 154.927 932.391 Q153.075 932.807 151.13 933.687 L151.13 916.326 Z" fill="#000000" fill-rule="nonzero" fill-opacity="1" /><path clip-path="url(#clip780)" d="M191.246 919.404 Q187.635 919.404 185.806 922.969 Q184.001 926.511 184.001 933.641 Q184.001 940.747 185.806 944.312 Q187.635 947.853 191.246 947.853 Q194.88 947.853 196.686 944.312 Q198.514 940.747 198.514 933.641 Q198.514 926.511 196.686 922.969 Q194.88 919.404 191.246 919.404 M191.246 915.701 Q197.056 915.701 200.112 920.307 Q203.19 924.891 203.19 933.641 Q203.19 942.367 200.112 946.974 Q197.056 951.557 191.246 951.557 Q185.436 951.557 182.357 946.974 Q179.302 942.367 179.302 933.641 Q179.302 924.891 182.357 920.307 Q185.436 915.701 191.246 915.701 Z" fill="#000000" fill-rule="nonzero" fill-opacity="1" /><path clip-path="url(#clip780)" d="M50.9921 707.188 L80.6679 707.188 L80.6679 711.123 L50.9921 711.123 L50.9921 707.188 Z" fill="#000000" fill-rule="nonzero" fill-opacity="1" /><path clip-path="url(#clip780)" d="M91.5706 720.081 L99.2095 720.081 L99.2095 693.715 L90.8993 695.382 L90.8993 691.123 L99.1632 689.456 L103.839 689.456 L103.839 720.081 L111.478 720.081 L111.478 724.016 L91.5706 724.016 L91.5706 720.081 Z" fill="#000000" fill-rule="nonzero" fill-opacity="1" /><path clip-path="url(#clip780)" d="M130.922 692.535 Q127.311 692.535 125.482 696.1 Q123.677 699.641 123.677 706.771 Q123.677 713.877 125.482 717.442 Q127.311 720.984 130.922 720.984 Q134.556 720.984 136.362 717.442 Q138.191 713.877 138.191 706.771 Q138.191 699.641 136.362 696.1 Q134.556 692.535 130.922 692.535 M130.922 688.831 Q136.732 688.831 139.788 693.438 Q142.867 698.021 142.867 706.771 Q142.867 715.498 139.788 720.104 Q136.732 724.688 130.922 724.688 Q125.112 724.688 122.033 720.104 Q118.978 715.498 118.978 706.771 Q118.978 698.021 122.033 693.438 Q125.112 688.831 130.922 688.831 Z" fill="#000000" fill-rule="nonzero" fill-opacity="1" /><path clip-path="url(#clip780)" d="M161.084 692.535 Q157.473 692.535 155.644 696.1 Q153.839 699.641 153.839 706.771 Q153.839 713.877 155.644 717.442 Q157.473 720.984 161.084 720.984 Q164.718 720.984 166.524 717.442 Q168.353 713.877 168.353 706.771 Q168.353 699.641 166.524 696.1 Q164.718 692.535 161.084 692.535 M161.084 688.831 Q166.894 688.831 169.95 693.438 Q173.029 698.021 173.029 706.771 Q173.029 715.498 169.95 720.104 Q166.894 724.688 161.084 724.688 Q155.274 724.688 152.195 720.104 Q149.14 715.498 149.14 706.771 Q149.14 698.021 152.195 693.438 Q155.274 688.831 161.084 688.831 Z" fill="#000000" fill-rule="nonzero" fill-opacity="1" /><path clip-path="url(#clip780)" d="M191.246 692.535 Q187.635 692.535 185.806 696.1 Q184.001 699.641 184.001 706.771 Q184.001 713.877 185.806 717.442 Q187.635 720.984 191.246 720.984 Q194.88 720.984 196.686 717.442 Q198.514 713.877 198.514 706.771 Q198.514 699.641 196.686 696.1 Q194.88 692.535 191.246 692.535 M191.246 688.831 Q197.056 688.831 200.112 693.438 Q203.19 698.021 203.19 706.771 Q203.19 715.498 200.112 720.104 Q197.056 724.688 191.246 724.688 Q185.436 724.688 182.357 720.104 Q179.302 715.498 179.302 706.771 Q179.302 698.021 182.357 693.438 Q185.436 688.831 191.246 688.831 Z" fill="#000000" fill-rule="nonzero" fill-opacity="1" /><path clip-path="url(#clip780)" d="M81.154 480.318 L110.83 480.318 L110.83 484.253 L81.154 484.253 L81.154 480.318 Z" fill="#000000" fill-rule="nonzero" fill-opacity="1" /><path clip-path="url(#clip780)" d="M119.742 462.587 L141.964 462.587 L141.964 464.577 L129.418 497.147 L124.533 497.147 L136.339 466.522 L119.742 466.522 L119.742 462.587 Z" fill="#000000" fill-rule="nonzero" fill-opacity="1" /><path clip-path="url(#clip780)" d="M151.13 462.587 L169.487 462.587 L169.487 466.522 L155.413 466.522 L155.413 474.994 Q156.431 474.647 157.45 474.485 Q158.468 474.3 159.487 474.3 Q165.274 474.3 168.654 477.471 Q172.033 480.642 172.033 486.059 Q172.033 491.637 168.561 494.739 Q165.089 497.818 158.769 497.818 Q156.593 497.818 154.325 497.448 Q152.08 497.077 149.672 496.336 L149.672 491.637 Q151.755 492.772 153.978 493.327 Q156.2 493.883 158.677 493.883 Q162.681 493.883 165.019 491.776 Q167.357 489.67 167.357 486.059 Q167.357 482.448 165.019 480.341 Q162.681 478.235 158.677 478.235 Q156.802 478.235 154.927 478.651 Q153.075 479.068 151.13 479.948 L151.13 462.587 Z" fill="#000000" fill-rule="nonzero" fill-opacity="1" /><path clip-path="url(#clip780)" d="M191.246 465.665 Q187.635 465.665 185.806 469.23 Q184.001 472.772 184.001 479.901 Q184.001 487.008 185.806 490.573 Q187.635 494.114 191.246 494.114 Q194.88 494.114 196.686 490.573 Q198.514 487.008 198.514 479.901 Q198.514 472.772 196.686 469.23 Q194.88 465.665 191.246 465.665 M191.246 461.962 Q197.056 461.962 200.112 466.568 Q203.19 471.151 203.19 479.901 Q203.19 488.628 200.112 493.235 Q197.056 497.818 191.246 497.818 Q185.436 497.818 182.357 493.235 Q179.302 488.628 179.302 479.901 Q179.302 471.151 182.357 466.568 Q185.436 461.962 191.246 461.962 Z" fill="#000000" fill-rule="nonzero" fill-opacity="1" /><path clip-path="url(#clip780)" d="M81.154 253.448 L110.83 253.448 L110.83 257.384 L81.154 257.384 L81.154 253.448 Z" fill="#000000" fill-rule="nonzero" fill-opacity="1" /><path clip-path="url(#clip780)" d="M120.969 235.717 L139.325 235.717 L139.325 239.652 L125.251 239.652 L125.251 248.124 Q126.27 247.777 127.288 247.615 Q128.307 247.43 129.325 247.43 Q135.112 247.43 138.492 250.601 Q141.871 253.773 141.871 259.189 Q141.871 264.768 138.399 267.87 Q134.927 270.948 128.607 270.948 Q126.432 270.948 124.163 270.578 Q121.918 270.208 119.51 269.467 L119.51 264.768 Q121.594 265.902 123.816 266.458 Q126.038 267.013 128.515 267.013 Q132.519 267.013 134.857 264.907 Q137.195 262.8 137.195 259.189 Q137.195 255.578 134.857 253.472 Q132.519 251.365 128.515 251.365 Q126.64 251.365 124.765 251.782 Q122.913 252.198 120.969 253.078 L120.969 235.717 Z" fill="#000000" fill-rule="nonzero" fill-opacity="1" /><path clip-path="url(#clip780)" d="M161.084 238.796 Q157.473 238.796 155.644 242.361 Q153.839 245.902 153.839 253.032 Q153.839 260.138 155.644 263.703 Q157.473 267.245 161.084 267.245 Q164.718 267.245 166.524 263.703 Q168.353 260.138 168.353 253.032 Q168.353 245.902 166.524 242.361 Q164.718 238.796 161.084 238.796 M161.084 235.092 Q166.894 235.092 169.95 239.699 Q173.029 244.282 173.029 253.032 Q173.029 261.759 169.95 266.365 Q166.894 270.948 161.084 270.948 Q155.274 270.948 152.195 266.365 Q149.14 261.759 149.14 253.032 Q149.14 244.282 152.195 239.699 Q155.274 235.092 161.084 235.092 Z" fill="#000000" fill-rule="nonzero" fill-opacity="1" /><path clip-path="url(#clip780)" d="M191.246 238.796 Q187.635 238.796 185.806 242.361 Q184.001 245.902 184.001 253.032 Q184.001 260.138 185.806 263.703 Q187.635 267.245 191.246 267.245 Q194.88 267.245 196.686 263.703 Q198.514 260.138 198.514 253.032 Q198.514 245.902 196.686 242.361 Q194.88 238.796 191.246 238.796 M191.246 235.092 Q197.056 235.092 200.112 239.699 Q203.19 244.282 203.19 253.032 Q203.19 261.759 200.112 266.365 Q197.056 270.948 191.246 270.948 Q185.436 270.948 182.357 266.365 Q179.302 261.759 179.302 253.032 Q179.302 244.282 182.357 239.699 Q185.436 235.092 191.246 235.092 Z" fill="#000000" fill-rule="nonzero" fill-opacity="1" /><polyline clip-path="url(#clip782)" style="stroke:#009af9; stroke-linecap:round; stroke-linejoin:round; stroke-width:4; stroke-opacity:1; fill:none" points="299.008,87.9763 300.006,89.2998 301.003,186.767 302.001,187.622 302.998,241.764 303.996,243.43 304.993,295.739 305.991,294.998 306.988,488.745 307.985,486.207 308.983,311.602 309.98,309.97 310.978,545.41 311.975,542.31 312.973,490.828 313.97,488.507 314.968,597.367 315.965,593.298 316.963,657.432 317.96,650.68 318.958,710.5 319.955,705.187 320.952,707.59 321.95,703.793 322.947,807.177 323.945,802.485 324.942,812.524 325.94,806.622 326.937,820.966 327.935,816.309 328.932,967.146 329.93,958.746 330.927,944.498 331.925,937.282 332.922,978.562 333.92,973.016 334.917,1066.26 335.914,1060.64 336.912,1039.53 337.909,1034.83 338.907,982.495 339.904,976.197 340.902,1186.6 341.899,1178.32 342.897,1114.11 343.894,1108.68 344.892,1261.28 345.889,1253.32 346.887,1197.54 347.884,1192.41 348.881,1209.6 349.879,1205.92 350.876,1246.62 351.874,1238.65 352.871,1251.8 353.869,1248.69 354.866,1176.82 355.864,1169.59 356.861,1287.66 357.859,1283.09 358.856,1297.83 359.854,1294.82 360.851,1253.97 361.848,1249.46 362.846,1345.24 363.843,1338.58 364.841,1283.11 365.838,1278.97 366.836,1307.95 367.833,1303.09 368.831,1236.77 369.828,1234.23 370.826,1325.42 371.823,1322.87 372.821,1341.22 373.818,1335.24 374.816,1339.11 375.813,1335.55 376.81,1357.41 377.808,1352.43 378.805,1372.53 379.803,1369.45 380.8,1336.09 381.798,1328.46 382.795,1383.31 383.793,1379.2 384.79,1366.96 385.788,1359.45 386.785,1344.81 387.783,1341.66 388.78,1324.51 389.777,1318.06 390.775,1323.18 391.772,1320.08 392.77,1305.46 393.767,1298.8 394.765,1328.56 395.762,1323.96 396.76,1367.74 397.757,1364.37 398.755,1334.22 399.752,1330.7 400.75,1331.57 401.747,1321.63 402.744,1361.09 403.742,1356.68 404.739,1383.39 405.737,1380.2 406.734,1372.17 407.732,1370.79 408.729,1330.92 409.727,1328.37 410.724,1347.06 411.722,1340.98 412.719,1359.32 413.717,1351.86 414.714,1347.79 415.712,1344.3 416.709,1363.63 417.706,1360.55 418.704,1374.06 419.701,1368.64 420.699,1416.16 421.696,1410.26 422.694,1400.99 423.691,1397.47 424.689,1373.34 425.686,1369 426.684,1337.67 427.681,1333.69 428.679,1346.47 429.676,1342.4 430.673,1376.26 431.671,1372.48 432.668,1403.25 433.666,1398.35 434.663,1366.05 435.661,1360.94 436.658,1371.34 437.656,1366.56 438.653,1392.22 439.651,1390.01 440.648,1401.24 441.646,1397.81 442.643,1415.42 443.64,1408.6 444.638,1394.99 445.635,1391.14 446.633,1397.37 447.63,1391.59 448.628,1386.8 449.625,1383.19 450.623,1398.76 451.62,1395.47 452.618,1362.58 453.615,1358.88 454.613,1366.29 455.61,1359.03 456.608,1361.72 457.605,1359.06 458.602,1357.82 459.6,1354.75 460.597,1370.93 461.595,1368.49 462.592,1388.08 463.59,1381.77 464.587,1370.35 465.585,1366.09 466.582,1374.94 467.58,1373.89 468.577,1376.74 469.575,1372.9 470.572,1367.81 471.569,1362.57 472.567,1382.88 473.564,1374.66 474.562,1392.79 475.559,1387.23 476.557,1392.43 477.554,1387.58 478.552,1399.81 479.549,1394.52 480.547,1402.22 481.544,1398.85 482.542,1355.89 483.539,1353.33 484.537,1395.79 485.534,1391.27 486.531,1391.56 487.529,1384.1 488.526,1379.01 489.524,1374.29 490.521,1397.45 491.519,1396.28 492.516,1390.38 493.514,1384.03 494.511,1401.54 495.509,1392.97 496.506,1393.36 497.504,1388.58 498.501,1386.18 499.498,1379.18 500.496,1365.73 501.493,1362.14 502.491,1388.37 503.488,1385.07 504.486,1384.34 505.483,1380.07 506.481,1401.48 507.478,1393.26 508.476,1389.51 509.473,1386.37 510.471,1402.03 511.468,1399.6 512.465,1412.7 513.463,1408.16 514.46,1399.07 515.458,1390.4 516.455,1405.01 517.453,1399.87 518.45,1398.76 519.448,1393.07 520.445,1396.8 521.443,1391.73 522.44,1405.98 523.438,1402.68 524.435,1379.59 525.433,1369.59 526.43,1394.25 527.427,1391.57 528.425,1400.98 529.422,1399.69 530.42,1412.8 531.417,1409.75 532.415,1379.3 533.412,1375.37 534.41,1363.85 535.407,1359.03 536.405,1382.72 537.402,1379.21 538.4,1336.59 539.397,1333.52 540.394,1376.22 541.392,1373.62 542.389,1372 543.387,1367.96 544.384,1356.16 545.382,1351.26 546.379,1357.77 547.377,1355.78 548.374,1382.7 549.372,1378.58 550.369,1378.04 551.367,1374.61 552.364,1397.21 553.361,1394.35 554.359,1395.09 555.356,1392.47 556.354,1381.66 557.351,1377.49 558.349,1407.07 559.346,1404.4 560.344,1411.59 561.341,1403.73 562.339,1423.31 563.336,1417.49 564.334,1424.1 565.331,1418.45 566.329,1406.29 567.326,1401.07 568.323,1410.19 569.321,1404.28 570.318,1416.28 571.316,1412.05 572.313,1413.78 573.311,1409.48 574.308,1434.96 575.306,1430.47 576.303,1409.46 577.301,1403.6 578.298,1367.87 579.296,1362.83 580.293,1386.83 581.29,1385.21 582.288,1391.23 583.285,1389.89 584.283,1398.89 585.28,1393.07 586.278,1402.69 587.275,1398.96 588.273,1392.43 589.27,1390.09 590.268,1412.71 591.265,1408.49 592.263,1388.66 593.26,1382.28 594.258,1393 595.255,1390.53 596.252,1382.26 597.25,1371 598.247,1367.85 599.245,1361.08 600.242,1371.43 601.24,1365.6 602.237,1362.04 603.235,1357.88 604.232,1383.79 605.23,1377.97 606.227,1379.08 607.225,1377.88 608.222,1384.55 609.219,1380.32 610.217,1361.13 611.214,1356.12 612.212,1360.93 613.209,1357.17 614.207,1390.72 615.204,1385.88 616.202,1392.57 617.199,1389.57 618.197,1426.09 619.194,1417.67 620.192,1396.15 621.189,1389.96 622.186,1412.93 623.184,1406.52 624.181,1407.08 625.179,1402.25 626.176,1393.27 627.174,1388.35 628.171,1405.74 629.169,1401.24 630.166,1419.37 631.164,1410.15 632.161,1413.71 633.159,1410.2 634.156,1406.87 635.154,1402.31 636.151,1405.89 637.148,1403.47 638.146,1411.52 639.143,1407.45 640.141,1400.34 641.138,1396.32 642.136,1392.54 643.133,1384.11 644.131,1363.79 645.128,1358.8 646.126,1385.17 647.123,1383.21 648.121,1395.25 649.118,1392.45 650.115,1393.31 651.113,1391.56 652.11,1408.64 653.108,1405.57 654.105,1383.8 655.103,1378.91 656.1,1423.17 657.098,1418.02 658.095,1390.82 659.093,1388.25 660.09,1406.98 661.088,1401.82 662.085,1393.03 663.082,1390.1 664.08,1407.12 665.077,1402.3 666.075,1430.53 667.072,1424.13 668.07,1402.78 669.067,1398.2 670.065,1382.2 671.062,1379.45 672.06,1373.07 673.057,1369.59 674.055,1372.1 675.052,1367.66 676.05,1402.16 677.047,1400.29 678.044,1403.81 679.042,1402.13 680.039,1409.91 681.037,1405.13 682.034,1404.88 683.032,1402.35 684.029,1404.15 685.027,1400.14 686.024,1412.53 687.022,1408.56 688.019,1411.6 689.017,1407.75 690.014,1417.25 691.011,1412.48 692.009,1390.26 693.006,1382.04 694.004,1396.04 695.001,1392.1 695.999,1405.89 696.996,1397.76 697.994,1410.22 698.991,1405.87 699.989,1421.64 700.986,1418.93 701.984,1423.15 702.981,1417.67 703.978,1410.27 704.976,1409.07 705.973,1410.72 706.971,1406.25 707.968,1406.74 708.966,1402.07 709.963,1425.17 710.961,1417.58 711.958,1410.55 712.956,1405.62 713.953,1396.22 714.951,1390 715.948,1409.06 716.946,1406.32 717.943,1402.11 718.94,1396.98 719.938,1380.58 720.935,1376.35 721.933,1383.31 722.93,1380.09 723.928,1394.61 724.925,1391.62 725.923,1416.63 726.92,1413.75 727.918,1413.52 728.915,1410.21 729.913,1398.19 730.91,1391.32 731.907,1409.24 732.905,1406.18 733.902,1403.95 734.9,1401.58 735.897,1408.62 736.895,1405.68 737.892,1411.88 738.89,1405.8 739.887,1396.5 740.885,1390.46 741.882,1385.44 742.88,1378.82 743.877,1400.68 744.875,1391.71 745.872,1379.63 746.869,1376.26 747.867,1363.3 748.864,1360.9 749.862,1390.21 750.859,1387.44 751.857,1417.16 752.854,1415.49 753.852,1413.03 754.849,1407.93 755.847,1414.36 756.844,1410.62 757.842,1412.82 758.839,1410.06 759.836,1414.61 760.834,1408.25 761.831,1430.98 762.829,1426.01 763.826,1423.43 764.824,1416.27 765.821,1404.14 766.819,1398.87 767.816,1424.02 768.814,1416.86 769.811,1419.45 770.809,1417.1 771.806,1408.92 772.803,1404.36 773.801,1387.71 774.798,1378.53 775.796,1400.5 776.793,1396.69 777.791,1414.19 778.788,1410.47 779.786,1419.38 780.783,1414.11 781.781,1422 782.778,1419.18 783.776,1419.48 784.773,1414.35 785.771,1433.55 786.768,1430.28 787.765,1413.47 788.763,1406.18 789.76,1420.01 790.758,1416.11 791.755,1413.75 792.753,1405.41 793.75,1425.07 794.748,1418.73 795.745,1438.35 796.743,1434.44 797.74,1426.48 798.738,1419.26 799.735,1407.46 800.732,1406.31 801.73,1394.98 802.727,1392.55 803.725,1411.27 804.722,1402.26 805.72,1384.02 806.717,1382.32 807.715,1405.38 808.712,1402.51 809.71,1399.85 810.707,1393.19 811.705,1409.07 812.702,1403.06 813.699,1382.87 814.697,1380.74 815.694,1396.26 816.692,1393.18 817.689,1398.38 818.687,1396.64 819.684,1400.93 820.682,1397.22 821.679,1401.99 822.677,1396.18 823.674,1392.74 824.672,1385.39 825.669,1381.59 826.667,1374.64 827.664,1393.52 828.661,1388.55 829.659,1394.97 830.656,1389.63 831.654,1416.53 832.651,1412.25 833.649,1394.74 834.646,1392.56 835.644,1408.11 836.641,1402.64 837.639,1404.22 838.636,1398.45 839.634,1412.33 840.631,1406.17 841.628,1398.3 842.626,1390.48 843.623,1398.28 844.621,1391.49 845.618,1396.47 846.616,1391.56 847.613,1374.49 848.611,1371.47 849.608,1393.26 850.606,1389.6 851.603,1381.97 852.601,1375.96 853.598,1383.99 854.596,1378.55 855.593,1396.26 856.59,1393.9 857.588,1406.32 858.585,1402.81 859.583,1398.25 860.58,1393.96 861.578,1372.26 862.575,1366.45 863.573,1371.59 864.57,1362.86 865.568,1407.37 866.565,1403.72 867.563,1405.57 868.56,1399.82 869.557,1397.26 870.555,1391.07 871.552,1417.17 872.55,1410.78 873.547,1415.17 874.545,1410.37 875.542,1422.27 876.54,1420.47 877.537,1424.99 878.535,1419.68 879.532,1398.79 880.53,1395.5 881.527,1426.74 882.524,1421.86 883.522,1420.08 884.519,1415.73 885.517,1426.27 886.514,1422.32 887.512,1410.75 888.509,1404.86 889.507,1408.44 890.504,1402.76 891.502,1388.08 892.499,1386 893.497,1426.71 894.494,1419.25 895.492,1427.33 896.489,1422.1 897.486,1424.54 898.484,1415.1 899.481,1434.46 900.479,1425.98 901.476,1417.15 902.474,1410.6 903.471,1419.7 904.469,1416.13 905.466,1423.56 906.464,1418.49 907.461,1425.31 908.459,1420.1 909.456,1418.15 910.453,1413.61 911.451,1411.81 912.448,1405.76 913.446,1400.78 914.443,1396.72 915.441,1391.52 916.438,1389.13 917.436,1386.27 918.433,1380.2 919.431,1365.78 920.428,1364.51 921.426,1394.39 922.423,1390.45 923.42,1401.31 924.418,1398.29 925.415,1415.57 926.413,1411.91 927.41,1415.5 928.408,1411 929.405,1401.9 930.403,1395.37 931.4,1428.4 932.398,1422.5 933.395,1431.76 934.393,1425.25 935.39,1412.51 936.388,1409.11 937.385,1414.4 938.382,1407.71 939.38,1415.21 940.377,1409.71 941.375,1404.11 942.372,1401.17 943.37,1410.99 944.367,1407.09 945.365,1406.42 946.362,1401.01 947.36,1398.97 948.357,1393.65 949.355,1384.84 950.352,1378.57 951.349,1385.7 952.347,1381.02 953.344,1400.71 954.342,1395.65 955.339,1393.98 956.337,1388.94 957.334,1410.61 958.332,1405.71 959.329,1385.22 960.327,1379.69 961.324,1394.17 962.322,1388.04 963.319,1388.86 964.316,1384.63 965.314,1390.83 966.311,1388.37 967.309,1388.16 968.306,1381.53 969.304,1394.04 970.301,1392.25 971.299,1408.26 972.296,1400.73 973.294,1392.82 974.291,1389.26 975.289,1407.09 976.286,1401.23 977.284,1404.98 978.281,1402.59 979.278,1370.22 980.276,1365.33 981.273,1407.01 982.271,1403.16 983.268,1397.26 984.266,1395.27 985.263,1398.52 986.261,1395.69 987.258,1391.98 988.256,1385.57 989.253,1406.07 990.251,1397.76 991.248,1398.16 992.245,1392.02 993.243,1375.53 994.24,1369.4 995.238,1382.81 996.235,1381.37 997.233,1385.41 998.23,1379.91 999.228,1375.97 1000.23,1369.73 1001.22,1396.26 1002.22,1392.65 1003.22,1385.81 1004.22,1381.95 1005.21,1390.02 1006.21,1386.63 1007.21,1393.35 1008.2,1388.53 1009.2,1379.76 1010.2,1374.95 1011.2,1404.49 1012.19,1399.09 1013.19,1401.4 1014.19,1397.88 1015.19,1395.12 1016.18,1392.39 1017.18,1407.43 1018.18,1400.16 1019.18,1410.51 1020.17,1405.04 1021.17,1416.78 1022.17,1409.44 1023.17,1404.43 1024.16,1401.73 1025.16,1401.54 1026.16,1399.05 1027.16,1406.52 1028.15,1401.92 1029.15,1380.18 1030.15,1376.22 1031.15,1408.94 1032.14,1404.12 1033.14,1408.53 1034.14,1403.04 1035.14,1410.52 1036.13,1403.53 1037.13,1402.46 1038.13,1397.37 1039.13,1398.19 1040.12,1395.99 1041.12,1404.57 1042.12,1400.7 1043.12,1410.75 1044.11,1408.86 1045.11,1413.17 1046.11,1409.78 1047.11,1434.39 1048.1,1429.92 1049.1,1409.54 1050.1,1405.93 1051.1,1418.1 1052.09,1414.55 1053.09,1417.13 1054.09,1411.18 1055.09,1390.81 1056.08,1384.55 1057.08,1381.6 1058.08,1375.09 1059.08,1391.91 1060.07,1384.82 1061.07,1403.58 1062.07,1398.33 1063.07,1403.66 1064.06,1395.88 1065.06,1405.98 1066.06,1401.75 1067.06,1391.61 1068.05,1386.16 1069.05,1396.2 1070.05,1390.08 1071.05,1420.28 1072.04,1415.08 1073.04,1408.03 1074.04,1407.07 1075.03,1410.72 1076.03,1410.2 1077.03,1417.38 1078.03,1410.09 1079.02,1423.13 1080.02,1418.2 1081.02,1398.2 1082.02,1394.95 1083.01,1415.59 1084.01,1414.29 1085.01,1398.2 1086.01,1396 1087,1419.35 1088,1412.89 1089,1428.25 1090,1423.42 1090.99,1421.89 1091.99,1417.83 1092.99,1418.16 1093.99,1416.04 1094.98,1412.05 1095.98,1409.46 1096.98,1411.47 1097.98,1405.68 1098.97,1424.61 1099.97,1418.57 1100.97,1426.57 1101.97,1423.44 1102.96,1427.08 1103.96,1420.55 1104.96,1414.96 1105.96,1412.83 1106.95,1421.75 1107.95,1415.46 1108.95,1408.11 1109.95,1404.11 1110.94,1419.25 1111.94,1414.69 1112.94,1419.23 1113.94,1417.49 1114.93,1428.89 1115.93,1421.24 1116.93,1396.15 1117.93,1392.71 1118.92,1420.16 1119.92,1416.43 1120.92,1403.43 1121.92,1400.27 1122.91,1425.85 1123.91,1417.88 1124.91,1410.09 1125.91,1406.01 1126.9,1406.21 1127.9,1401.24 1128.9,1407.89 1129.9,1403.55 1130.89,1402.36 1131.89,1397.02 1132.89,1394.29 1133.89,1390.43 1134.88,1394.98 1135.88,1392.88 1136.88,1395.88 1137.88,1391.96 1138.87,1403.54 1139.87,1399.38 1140.87,1397.72 1141.87,1390.38 1142.86,1397.44 1143.86,1394.67 1144.86,1389.5 1145.85,1388.46 1146.85,1389.95 1147.85,1385.5 1148.85,1384.06 1149.84,1378.45 1150.84,1399.48 1151.84,1395.6 1152.84,1409.99 1153.83,1407.98 1154.83,1407.34 1155.83,1402.31 1156.83,1409.98 1157.82,1401.35 1158.82,1424.89 1159.82,1419.9 1160.82,1411.94 1161.81,1405.94 1162.81,1392.74 1163.81,1388.56 1164.81,1402.79 1165.8,1397.96 1166.8,1414.01 1167.8,1409.34 1168.8,1405.68 1169.79,1401.51 1170.79,1403.8 1171.79,1399.64 1172.79,1396.53 1173.78,1392.08 1174.78,1418.96 1175.78,1415.66 1176.78,1407.16 1177.77,1399.93 1178.77,1421.72 1179.77,1414.79 1180.77,1405.97 1181.76,1402.86 1182.76,1419.73 1183.76,1416.98 1184.76,1391.54 1185.75,1383.17 1186.75,1412.45 1187.75,1405.04 1188.75,1410.54 1189.74,1406.63 1190.74,1402.84 1191.74,1401.06 1192.74,1426.92 1193.73,1424.27 1194.73,1409.61 1195.73,1402.63 1196.73,1425.72 1197.72,1422.68 1198.72,1415.73 1199.72,1409.63 1200.72,1402.83 1201.71,1401.14 1202.71,1425.86 1203.71,1421.33 1204.71,1428.02 1205.7,1422.19 1206.7,1445.72 1207.7,1441.66 1208.7,1417.24 1209.69,1410.72 1210.69,1408.08 1211.69,1406.52 1212.68,1403.4 1213.68,1399.12 1214.68,1413.27 1215.68,1411.88 1216.67,1421.86 1217.67,1417.69 1218.67,1419.45 1219.67,1413.73 1220.66,1424.86 1221.66,1421.72 1222.66,1421.69 1223.66,1415.58 1224.65,1420.54 1225.65,1418.1 1226.65,1410.05 1227.65,1407.14 1228.64,1423.65 1229.64,1414.31 1230.64,1408.44 1231.64,1404.43 1232.63,1404.33 1233.63,1401.66 1234.63,1410.53 1235.63,1407.43 1236.62,1407.79 1237.62,1405.78 1238.62,1415.27 1239.62,1408.44 1240.61,1420.83 1241.61,1416.11 1242.61,1412.35 1243.61,1409.77 1244.6,1414.51 1245.6,1410.88 1246.6,1422.54 1247.6,1412.06 1248.59,1419.71 1249.59,1415.82 1250.59,1405.82 1251.59,1404.11 1252.58,1409.76 1253.58,1403.84 1254.58,1429.27 1255.58,1421.76 1256.57,1423.85 1257.57,1417.65 1258.57,1410.91 1259.57,1407.33 1260.56,1416.31 1261.56,1410.37 1262.56,1406.81 1263.56,1400.5 1264.55,1402.3 1265.55,1399.75 1266.55,1423.95 1267.55,1419.34 1268.54,1408.79 1269.54,1403.86 1270.54,1418.63 1271.54,1414.5 1272.53,1407.79 1273.53,1404.22 1274.53,1407.59 1275.53,1400.62 1276.52,1392.48 1277.52,1389.48 1278.52,1397.27 1279.51,1393.81 1280.51,1394.08 1281.51,1387.88 1282.51,1391.49 1283.5,1389 1284.5,1399.54 1285.5,1395.23 1286.5,1397.11 1287.49,1392.59 1288.49,1390.71 1289.49,1389.62 1290.49,1395.31 1291.48,1392.98 1292.48,1412.85 1293.48,1405.94 1294.48,1416.6 1295.47,1413.28 1296.47,1426.67 1297.47,1417.86 1298.47,1405.83 1299.46,1399.86 1300.46,1406.85 1301.46,1402.94 1302.46,1410.32 1303.45,1408.71 1304.45,1402.4 1305.45,1398.38 1306.45,1403.79 1307.44,1397.86 1308.44,1406.59 1309.44,1399.61 1310.44,1389.74 1311.43,1383.46 1312.43,1399.85 1313.43,1397.91 1314.43,1392.33 1315.42,1384.95 1316.42,1408.63 1317.42,1404.9 1318.42,1409.82 1319.41,1408.1 1320.41,1413.99 1321.41,1410.56 1322.41,1399.68 1323.4,1394.84 1324.4,1399.48 1325.4,1387.79 1326.4,1398.5 1327.39,1395.53 1328.39,1409.83 1329.39,1405.72 1330.39,1391.72 1331.38,1386.58 1332.38,1408.52 1333.38,1402.95 1334.38,1427.14 1335.37,1422.03 1336.37,1416.07 1337.37,1413.48 1338.37,1425.04 1339.36,1421.58 1340.36,1423.66 1341.36,1418.57 1342.36,1409.89 1343.35,1404.14 1344.35,1413.13 1345.35,1410.23 1346.35,1410.09 1347.34,1406.44 1348.34,1405.13 1349.34,1400.4 1350.33,1405.99 1351.33,1403.03 1352.33,1404.14 1353.33,1402.21 1354.32,1389.72 1355.32,1386.38 1356.32,1383.23 1357.32,1379.7 1358.31,1385.48 1359.31,1382.86 1360.31,1387.02 1361.31,1379.78 1362.3,1387.2 1363.3,1382.35 1364.3,1377.79 1365.3,1372.64 1366.29,1392.01 1367.29,1388.33 1368.29,1383.32 1369.29,1378.95 1370.28,1408.32 1371.28,1404.24 1372.28,1396.72 1373.28,1392.83 1374.27,1408.63 1375.27,1406.54 1376.27,1398.44 1377.27,1390.25 1378.26,1398.72 1379.26,1395.87 1380.26,1386.23 1381.26,1381.71 1382.25,1401.79 1383.25,1397.6 1384.25,1390.47 1385.25,1388.44 1386.24,1395.52 1387.24,1386.64 1388.24,1397.36 1389.24,1389.12 1390.23,1406.36 1391.23,1403.71 1392.23,1412.59 1393.23,1407.11 1394.22,1390.44 1395.22,1387.24 1396.22,1396.67 1397.22,1390.85 1398.21,1406.23 1399.21,1400.94 1400.21,1405.89 1401.21,1400.8 1402.2,1420.67 1403.2,1414.67 1404.2,1419.35 1405.2,1415.02 1406.19,1414.53 1407.19,1409.79 1408.19,1417.41 1409.19,1415.5 1410.18,1429.77 1411.18,1420.5 1412.18,1416.85 1413.18,1411.2 1414.17,1420.65 1415.17,1414.08 1416.17,1404.39 1417.16,1400.7 1418.16,1410.86 1419.16,1402.98 1420.16,1407.35 1421.15,1403.4 1422.15,1410.19 1423.15,1406.57 1424.15,1409.69 1425.14,1406.11 1426.14,1416.57 1427.14,1406.41 1428.14,1405.04 1429.13,1402.18 1430.13,1384.68 1431.13,1380.23 1432.13,1392.86 1433.12,1389.32 1434.12,1409.19 1435.12,1401.75 1436.12,1406.47 1437.11,1402.53 1438.11,1403.29 1439.11,1400.17 1440.11,1410.77 1441.1,1404.97 1442.1,1391.85 1443.1,1387.29 1444.1,1377.02 1445.09,1374.6 1446.09,1397.79 1447.09,1390.59 1448.09,1415.36 1449.08,1409.79 1450.08,1398.29 1451.08,1396.61 1452.08,1398.12 1453.07,1393.21 1454.07,1394.75 1455.07,1391.16 1456.07,1397.62 1457.06,1391.92 1458.06,1397.03 1459.06,1391.1 1460.06,1406.2 1461.05,1399.99 1462.05,1402.54 1463.05,1396.32 1464.05,1399.37 1465.04,1396.02 1466.04,1407.47 1467.04,1402.23 1468.04,1406.25 1469.03,1403.74 1470.03,1410.27 1471.03,1407.9 1472.03,1399.39 1473.02,1396.98 1474.02,1398.83 1475.02,1394.47 1476.02,1393.95 1477.01,1388.29 1478.01,1393.83 1479.01,1391.61 1480.01,1420.82 1481,1416.6 1482,1422.11 1483,1418.05 1484,1426.7 1484.99,1423.92 1485.99,1415.67 1486.99,1409.05 1487.98,1416.65 1488.98,1413.38 1489.98,1412.17 1490.98,1407.99 1491.97,1442.77 1492.97,1438.16 1493.97,1431.72 1494.97,1426.56 1495.96,1432.29 1496.96,1429.12 1497.96,1402.41 1498.96,1398.94 1499.95,1424.84 1500.95,1419.78 1501.95,1410.65 1502.95,1405.37 1503.94,1423.25 1504.94,1419.09 1505.94,1429.79 1506.94,1421.44 1507.93,1421.42 1508.93,1416.49 1509.93,1431.17 1510.93,1425.21 1511.92,1441.79 1512.92,1436.67 1513.92,1418.58 1514.92,1413.02 1515.91,1432.8 1516.91,1428.46 1517.91,1427.45 1518.91,1424.02 1519.9,1424.24 1520.9,1422.31 1521.9,1422.61 1522.9,1418.23 1523.89,1423.94 1524.89,1419.05 1525.89,1421.61 1526.89,1418.99 1527.88,1409.46 1528.88,1405.46 1529.88,1419.46 1530.88,1414.28 1531.87,1418.31 1532.87,1413.64 1533.87,1398.16 1534.87,1386.39 1535.86,1398.39 1536.86,1392.02 1537.86,1399.98 1538.86,1396.79 1539.85,1405.25 1540.85,1398.08 1541.85,1408.51 1542.85,1402.57 1543.84,1389.32 1544.84,1383.59 1545.84,1400.87 1546.84,1395.96 1547.83,1422.07 1548.83,1414.32 1549.83,1414.87 1550.83,1411.04 1551.82,1402.5 1552.82,1397.81 1553.82,1405.09 1554.81,1401.58 1555.81,1376.8 1556.81,1369.09 1557.81,1402.7 1558.8,1393.99 1559.8,1412.39 1560.8,1409.43 1561.8,1394.77 1562.79,1391.19 1563.79,1396.94 1564.79,1391.76 1565.79,1413.96 1566.78,1410.86 1567.78,1405.11 1568.78,1402.73 1569.78,1392.81 1570.77,1387.72 1571.77,1406.43 1572.77,1402.17 1573.77,1406.42 1574.76,1402.29 1575.76,1411.01 1576.76,1410.35 1577.76,1415.75 1578.75,1411.8 1579.75,1417.18 1580.75,1410.21 1581.75,1413.99 1582.74,1406.99 1583.74,1394.55 1584.74,1389.47 1585.74,1418.18 1586.73,1408.97 1587.73,1426.77 1588.73,1420.93 1589.73,1419.82 1590.72,1413.87 1591.72,1421.96 1592.72,1419.66 1593.72,1421.19 1594.71,1414.84 1595.71,1432.61 1596.71,1427.11 1597.71,1414.01 1598.7,1408.87 1599.7,1419.41 1600.7,1411.06 1601.7,1412.24 1602.69,1407.56 1603.69,1403.54 1604.69,1400.42 1605.69,1416.02 1606.68,1413.54 1607.68,1416.96 1608.68,1413.58 1609.68,1422.89 1610.67,1414.26 1611.67,1420.73 1612.67,1414.6 1613.67,1415.21 1614.66,1409.22 1615.66,1398.24 1616.66,1394.36 1617.66,1400.58 1618.65,1395.8 1619.65,1430.62 1620.65,1429.33 1621.65,1415.32 1622.64,1408.49 1623.64,1400.71 1624.64,1397.07 1625.63,1413.71 1626.63,1407.76 1627.63,1410.95 1628.63,1406.01 1629.62,1419.9 1630.62,1414.08 1631.62,1404.84 1632.62,1401.9 1633.61,1414.38 1634.61,1407.71 1635.61,1423.76 1636.61,1419.23 1637.6,1420.77 1638.6,1415.39 1639.6,1415.42 1640.6,1405.19 1641.59,1409.77 1642.59,1405.27 1643.59,1412.48 1644.59,1410.21 1645.58,1384.46 1646.58,1379.21 1647.58,1406.1 1648.58,1402.06 1649.57,1419.73 1650.57,1416.95 1651.57,1418.5 1652.57,1417.59 1653.56,1389.16 1654.56,1384.98 1655.56,1405.84 1656.56,1401.2 1657.55,1399.69 1658.55,1394.79 1659.55,1404.75 1660.55,1403.68 1661.54,1408.41 1662.54,1406.16 1663.54,1409.1 1664.54,1401.09 1665.53,1404.76 1666.53,1402.8 1667.53,1401.68 1668.53,1395.47 1669.52,1384.19 1670.52,1381.43 1671.52,1403.96 1672.52,1398.55 1673.51,1395.99 1674.51,1393.54 1675.51,1410.95 1676.51,1404.63 1677.5,1427.47 1678.5,1421.07 1679.5,1419.79 1680.5,1411.03 1681.49,1410.26 1682.49,1405.24 1683.49,1422.11 1684.49,1419.05 1685.48,1422.05 1686.48,1418.49 1687.48,1400.46 1688.48,1397.12 1689.47,1420.9 1690.47,1415.71 1691.47,1410.2 1692.46,1405.28 1693.46,1403.91 1694.46,1398.13 1695.46,1395.56 1696.45,1393.34 1697.45,1400.61 1698.45,1396.06 1699.45,1396.54 1700.44,1388.94 1701.44,1416.13 1702.44,1410.27 1703.44,1414.61 1704.43,1409.42 1705.43,1405.16 1706.43,1398.27 1707.43,1391.28 1708.42,1387.43 1709.42,1396.38 1710.42,1392.33 1711.42,1401.02 1712.41,1395.73 1713.41,1402.48 1714.41,1400.1 1715.41,1407.23 1716.4,1400.33 1717.4,1399.43 1718.4,1394.48 1719.4,1393.29 1720.39,1391.44 1721.39,1394.7 1722.39,1391.94 1723.39,1394.04 1724.38,1390.84 1725.38,1413.25 1726.38,1409.19 1727.38,1430.49 1728.37,1421.23 1729.37,1414.6 1730.37,1408.84 1731.37,1406.83 1732.36,1402.59 1733.36,1413.97 1734.36,1409.8 1735.36,1414.29 1736.35,1410.49 1737.35,1409.94 1738.35,1403.71 1739.35,1385.83 1740.34,1383 1741.34,1406.43 1742.34,1403.32 1743.34,1406.95 1744.33,1404.26 1745.33,1395.6 1746.33,1391.79 1747.33,1408.93 1748.32,1403.52 1749.32,1407.98 1750.32,1404.73 1751.32,1405.39 1752.31,1402.48 1753.31,1414.61 1754.31,1409.45 1755.31,1417.41 1756.3,1413.03 1757.3,1437.29 1758.3,1435.33 1759.29,1422.83 1760.29,1416.91 1761.29,1417.29 1762.29,1414.28 1763.28,1421.85 1764.28,1417.48 1765.28,1426.92 1766.28,1421.16 1767.27,1416.03 1768.27,1412.95 1769.27,1415.6 1770.27,1410.01 1771.26,1420.77 1772.26,1416.36 1773.26,1427.82 1774.26,1422.55 1775.25,1424.82 1776.25,1422.39 1777.25,1430.63 1778.25,1428.46 1779.24,1422.21 1780.24,1418.99 1781.24,1428.04 1782.24,1425.18 1783.23,1422.15 1784.23,1417.79 1785.23,1413.62 1786.23,1409.68 1787.22,1419.41 1788.22,1416 1789.22,1418.22 1790.22,1413.2 1791.21,1438.7 1792.21,1428.1 1793.21,1419.22 1794.21,1414.65 1795.2,1426.53 1796.2,1421.09 1797.2,1420.3 1798.2,1415.37 1799.19,1441.49 1800.19,1434.9 1801.19,1412.44 1802.19,1405.72 1803.18,1405.48 1804.18,1403.15 1805.18,1403.16 1806.18,1400.68 1807.17,1414.9 1808.17,1412.34 1809.17,1396.44 1810.17,1391.21 1811.16,1401.49 1812.16,1397.92 1813.16,1414.2 1814.16,1409.71 1815.15,1406.67 1816.15,1403.67 1817.15,1425.77 1818.15,1416.85 1819.14,1404.09 1820.14,1400.05 1821.14,1408.42 1822.14,1402.28 1823.13,1398.09 1824.13,1393.8 1825.13,1405.54 1826.13,1402.48 1827.12,1413.22 1828.12,1409.1 1829.12,1413.49 1830.11,1409.49 1831.11,1429.56 1832.11,1426.79 1833.11,1431.16 1834.1,1426.31 1835.1,1432.69 1836.1,1429.02 1837.1,1420.04 1838.09,1417.51 1839.09,1432.64 1840.09,1425.1 1841.09,1435 1842.08,1427.78 1843.08,1430.99 1844.08,1424.33 1845.08,1420.73 1846.07,1415.87 1847.07,1410.13 1848.07,1405.8 1849.07,1394.59 1850.06,1391.48 1851.06,1410.35 1852.06,1408.5 1853.06,1416.83 1854.05,1410.52 1855.05,1422.62 1856.05,1417.38 1857.05,1407.21 1858.04,1402.2 1859.04,1411.42 1860.04,1406.01 1861.04,1406.12 1862.03,1402.78 1863.03,1392.72 1864.03,1390.93 1865.03,1398.3 1866.02,1392.41 1867.02,1408.35 1868.02,1403.53 1869.02,1379.61 1870.01,1375.63 1871.01,1396.15 1872.01,1391.38 1873.01,1392.38 1874,1386.77 1875,1388.31 1876,1382.12 1877,1383.36 1877.99,1379 1878.99,1394.7 1879.99,1389.6 1880.99,1398.42 1881.98,1396.5 1882.98,1409.74 1883.98,1407.35 1884.98,1406.97 1885.97,1397.27 1886.97,1385.55 1887.97,1382.33 1888.97,1403.59 1889.96,1400.25 1890.96,1402.31 1891.96,1395.84 1892.96,1402.89 1893.95,1400.01 1894.95,1400.7 1895.95,1397.29 1896.94,1429.24 1897.94,1424.65 1898.94,1421.28 1899.94,1419.54 1900.93,1412.66 1901.93,1407.68 1902.93,1431.66 1903.93,1429.61 1904.92,1414.19 1905.92,1411.06 1906.92,1418.02 1907.92,1413.95 1908.91,1398.58 1909.91,1397.21 1910.91,1417.07 1911.91,1409.1 1912.9,1412.34 1913.9,1409.34 1914.9,1411.07 1915.9,1406.56 1916.89,1419.23 1917.89,1416.4 1918.89,1423.05 1919.89,1419.91 1920.88,1427.42 1921.88,1412.18 1922.88,1418.43 1923.88,1413.31 1924.87,1414.74 1925.87,1411.52 1926.87,1423.94 1927.87,1420.62 1928.86,1433.17 1929.86,1425.46 1930.86,1419.24 1931.86,1413.93 1932.85,1434.36 1933.85,1430.39 1934.85,1421.89 1935.85,1419.39 1936.84,1422.05 1937.84,1415.56 1938.84,1415.85 1939.84,1409.6 1940.83,1413.15 1941.83,1409.7 1942.83,1416.86 1943.83,1413.77 1944.82,1408.44 1945.82,1403.09 1946.82,1404.44 1947.82,1401.19 1948.81,1405.35 1949.81,1402.74 1950.81,1414.41 1951.81,1405 1952.8,1414.58 1953.8,1409.4 1954.8,1411.01 1955.8,1406.46 1956.79,1415.68 1957.79,1410.94 1958.79,1421.27 1959.79,1417.47 1960.78,1422.23 1961.78,1416.71 1962.78,1426.08 1963.78,1421.09 1964.77,1417.22 1965.77,1413.37 1966.77,1424.08 1967.76,1420.16 1968.76,1425.3 1969.76,1420.19 1970.76,1428.4 1971.75,1422.78 1972.75,1424.67 1973.75,1419.94 1974.75,1412.22 1975.74,1408.34 1976.74,1425.89 1977.74,1422.2 1978.74,1408.54 1979.73,1402.83 1980.73,1416.28 1981.73,1413.46 1982.73,1418.56 1983.72,1415.94 1984.72,1421.71 1985.72,1416.71 1986.72,1425.98 1987.71,1421.66 1988.71,1427.98 1989.71,1423.94 1990.71,1423.28 1991.7,1418.2 1992.7,1427.88 1993.7,1422.52 1994.7,1430.87 1995.69,1425.12 1996.69,1419.98 1997.69,1418.18 1998.69,1428.23 1999.68,1418.24 2000.68,1424.2 2001.68,1416.89 2002.68,1422.95 2003.67,1416.37 2004.67,1436.8 2005.67,1433.99 2006.67,1415.8 2007.66,1410.49 2008.66,1424.23 2009.66,1417.34 2010.66,1421.58 2011.65,1416.87 2012.65,1421.11 2013.65,1416.2 2014.65,1422.46 2015.64,1419.51 2016.64,1413.19 2017.64,1408.09 2018.64,1412.79 2019.63,1408.89 2020.63,1411.53 2021.63,1405.81 2022.63,1410.77 2023.62,1409.3 2024.62,1413.81 2025.62,1408.34 2026.62,1408.14 2027.61,1405.13 2028.61,1403.83 2029.61,1398.49 2030.61,1404.32 2031.6,1402.59 2032.6,1410.47 2033.6,1405.15 2034.59,1417.76 2035.59,1412.81 2036.59,1410.12 2037.59,1405.18 2038.58,1400.72 2039.58,1396.97 2040.58,1416.95 2041.58,1406.35 2042.57,1410.69 2043.57,1405.76 2044.57,1418.36 2045.57,1414.71 2046.56,1423.32 2047.56,1419.38 2048.56,1427.29 2049.56,1423.42 2050.55,1427.86 2051.55,1425.6 2052.55,1425.69 2053.55,1423.35 2054.54,1438.91 2055.54,1435.45 2056.54,1411.87 2057.54,1408.67 2058.53,1416.76 2059.53,1413.48 2060.53,1423.35 2061.53,1418.48 2062.52,1422.47 2063.52,1418.97 2064.52,1427.43 2065.52,1424.06 2066.51,1428.31 2067.51,1422.36 2068.51,1416.14 2069.51,1410.71 2070.5,1408.38 2071.5,1404.5 2072.5,1404.04 2073.5,1401.15 2074.49,1433.84 2075.49,1427.6 2076.49,1421.37 2077.49,1416.93 2078.48,1426.57 2079.48,1420.27 2080.48,1421.64 2081.48,1416.32 2082.47,1415.65 2083.47,1411.05 2084.47,1419.41 2085.47,1415.07 2086.46,1408.08 2087.46,1402.6 2088.46,1415.25 2089.46,1411.19 2090.45,1414.72 2091.45,1410.7 2092.45,1396.63 2093.45,1393.56 2094.44,1419.39 2095.44,1412.19 2096.44,1410.28 2097.44,1405.63 2098.43,1413.58 2099.43,1411.24 2100.43,1410.45 2101.43,1407.21 2102.42,1414.68 2103.42,1412.19 2104.42,1404.32 2105.41,1400.61 2106.41,1401.12 2107.41,1398.71 2108.41,1416.18 2109.4,1409.97 2110.4,1410.05 2111.4,1404.42 2112.4,1420.15 2113.39,1415.91 2114.39,1422.67 2115.39,1418.12 2116.39,1421.73 2117.38,1414.68 2118.38,1419.83 2119.38,1415.91 2120.38,1420.92 2121.37,1411.57 2122.37,1423.87 2123.37,1414.61 2124.37,1398.33 2125.36,1394.99 2126.36,1413.77 2127.36,1411.64 2128.36,1412.46 2129.35,1406.5 2130.35,1410.05 2131.35,1404.53 2132.35,1410.57 2133.34,1402.3 2134.34,1382.78 2135.34,1379 2136.34,1398.09 2137.33,1397.16 2138.33,1400.77 2139.33,1397.64 2140.33,1406.92 2141.32,1401.18 2142.32,1407.35 2143.32,1404.84 2144.32,1394.76 2145.31,1387.65 2146.31,1394.08 2147.31,1392.04 2148.31,1404.42 2149.3,1398.97 2150.3,1404.38 2151.3,1400.69 2152.3,1414.49 2153.29,1410.76 2154.29,1416.84 2155.29,1411.31 2156.29,1409.77 2157.28,1405.63 2158.28,1409.97 2159.28,1402.57 2160.28,1394.93 2161.27,1391.42 2162.27,1383.3 2163.27,1381.88 2164.27,1396.41 2165.26,1394.32 2166.26,1396.9 2167.26,1392.74 2168.26,1409.44 2169.25,1405.98 2170.25,1397.6 2171.25,1394.05 2172.24,1409.28 2173.24,1407.18 2174.24,1405.61 2175.24,1402.47 2176.23,1403.71 2177.23,1400.15 2178.23,1416.37 2179.23,1412.41 2180.22,1397.84 2181.22,1393.69 2182.22,1404.17 2183.22,1399.15 2184.21,1400.97 2185.21,1395.9 2186.21,1391.87 2187.21,1389.3 2188.2,1409.65 2189.2,1399.2 2190.2,1424.83 2191.2,1417.88 2192.19,1400.52 2193.19,1397.63 2194.19,1400.63 2195.19,1396.83 2196.18,1417.89 2197.18,1413.03 2198.18,1411.92 2199.18,1407.39 2200.17,1427.16 2201.17,1419.85 2202.17,1403.28 2203.17,1399.36 2204.16,1411.46 2205.16,1403.74 2206.16,1411.46 2207.16,1407.7 2208.15,1424.65 2209.15,1414.86 2210.15,1419.04 2211.15,1415.79 2212.14,1411.22 2213.14,1408.58 2214.14,1418.01 2215.14,1413.62 2216.13,1413.44 2217.13,1407.77 2218.13,1418.43 2219.13,1414.47 2220.12,1409.05 2221.12,1405.65 2222.12,1412.72 2223.12,1409.93 2224.11,1421.6 2225.11,1415.14 2226.11,1417.91 2227.11,1413.13 2228.1,1405.59 2229.1,1400.47 2230.1,1416.78 2231.1,1412.24 2232.09,1410.44 2233.09,1408.44 2234.09,1417.6 2235.09,1415.45 2236.08,1424.21 2237.08,1417.37 2238.08,1404.95 2239.07,1399.57 2240.07,1422.07 2241.07,1413.99 2242.07,1413.6 2243.06,1410.04 2244.06,1415.61 2245.06,1409.68 2246.06,1420.38 2247.05,1414.18 2248.05,1420.81 2249.05,1416.05 2250.05,1412.45 2251.04,1406.79 2252.04,1395.92 2253.04,1393.31 2254.04,1390.07 2255.03,1386.27 2256.03,1390.14 2257.03,1386.42 2258.03,1400.58 2259.02,1393.32 2260.02,1403.62 2261.02,1398.4 2262.02,1415.67 2263.01,1413.13 2264.01,1394.03 2265.01,1390.69 2266.01,1413.62 2267,1408.6 2268,1409.05 2269,1404.89 2270,1391.82 2270.99,1385.3 2271.99,1412.29 2272.99,1405.27 2273.99,1408.31 2274.98,1404.87 2275.98,1417.58 2276.98,1413.41 2277.98,1422.69 2278.97,1417.36 2279.97,1416.84 2280.97,1410.87 2281.97,1411.44 2282.96,1404.84 2283.96,1399.38 2284.96,1396.92 2285.96,1407.92 2286.95,1402.29 2287.95,1417.95 2288.95,1411.98 2289.95,1416.33 2290.94,1411.09 2291.94,1407.1 2292.94,1401.72 "/>
<path clip-path="url(#clip780)" d="M2018.52 198.898 L2282.3 198.898 L2282.3 95.2176 L2018.52 95.2176  Z" fill="#ffffff" fill-rule="evenodd" fill-opacity="1"/>
<polyline clip-path="url(#clip780)" style="stroke:#000000; stroke-linecap:round; stroke-linejoin:round; stroke-width:4; stroke-opacity:1; fill:none" points="2018.52,198.898 2282.3,198.898 2282.3,95.2176 2018.52,95.2176 2018.52,198.898 "/>
<polyline clip-path="url(#clip780)" style="stroke:#009af9; stroke-linecap:round; stroke-linejoin:round; stroke-width:4; stroke-opacity:1; fill:none" points="2042,147.058 2182.91,147.058 "/>
<path clip-path="url(#clip780)" d="M2220.23 166.745 Q2218.43 171.375 2216.71 172.787 Q2215 174.199 2212.13 174.199 L2208.73 174.199 L2208.73 170.634 L2211.23 170.634 Q2212.99 170.634 2213.96 169.8 Q2214.93 168.967 2216.11 165.865 L2216.88 163.921 L2206.39 138.412 L2210.9 138.412 L2219.01 158.689 L2227.11 138.412 L2231.62 138.412 L2220.23 166.745 Z" fill="#000000" fill-rule="nonzero" fill-opacity="1" /><path clip-path="url(#clip780)" d="M2238.91 160.402 L2246.55 160.402 L2246.55 134.037 L2238.24 135.703 L2238.24 131.444 L2246.5 129.778 L2251.18 129.778 L2251.18 160.402 L2258.82 160.402 L2258.82 164.338 L2238.91 164.338 L2238.91 160.402 Z" fill="#000000" fill-rule="nonzero" fill-opacity="1" /></svg>
