<?xml version="1.0" encoding="utf-8"?>
<svg xmlns="http://www.w3.org/2000/svg" xmlns:xlink="http://www.w3.org/1999/xlink" width="600" height="400" viewBox="0 0 2400 1600">
<defs>
  <clipPath id="clip030">
    <rect x="0" y="0" width="2400" height="1600"/>
  </clipPath>
</defs>
<path clip-path="url(#clip030)" d="M0 1600 L2400 1600 L2400 0 L0 0  Z" fill="#ffffff" fill-rule="evenodd" fill-opacity="1"/>
<defs>
  <clipPath id="clip031">
    <rect x="480" y="0" width="1681" height="1600"/>
  </clipPath>
</defs>
<path clip-path="url(#clip030)" d="M172.015 1486.45 L2352.76 1486.45 L2352.76 47.2441 L172.015 47.2441  Z" fill="#ffffff" fill-rule="evenodd" fill-opacity="1"/>
<defs>
  <clipPath id="clip032">
    <rect x="172" y="47" width="2182" height="1440"/>
  </clipPath>
</defs>
<polyline clip-path="url(#clip032)" style="stroke:#000000; stroke-linecap:round; stroke-linejoin:round; stroke-width:2; stroke-opacity:0.1; fill:none" points="233.734,1486.45 233.734,47.2441 "/>
<polyline clip-path="url(#clip032)" style="stroke:#000000; stroke-linecap:round; stroke-linejoin:round; stroke-width:2; stroke-opacity:0.1; fill:none" points="748.06,1486.45 748.06,47.2441 "/>
<polyline clip-path="url(#clip032)" style="stroke:#000000; stroke-linecap:round; stroke-linejoin:round; stroke-width:2; stroke-opacity:0.1; fill:none" points="1262.39,1486.45 1262.39,47.2441 "/>
<polyline clip-path="url(#clip032)" style="stroke:#000000; stroke-linecap:round; stroke-linejoin:round; stroke-width:2; stroke-opacity:0.1; fill:none" points="1776.71,1486.45 1776.71,47.2441 "/>
<polyline clip-path="url(#clip032)" style="stroke:#000000; stroke-linecap:round; stroke-linejoin:round; stroke-width:2; stroke-opacity:0.1; fill:none" points="2291.04,1486.45 2291.04,47.2441 "/>
<polyline clip-path="url(#clip030)" style="stroke:#000000; stroke-linecap:round; stroke-linejoin:round; stroke-width:4; stroke-opacity:1; fill:none" points="172.015,1486.45 2352.76,1486.45 "/>
<polyline clip-path="url(#clip030)" style="stroke:#000000; stroke-linecap:round; stroke-linejoin:round; stroke-width:4; stroke-opacity:1; fill:none" points="233.734,1486.45 233.734,1467.55 "/>
<polyline clip-path="url(#clip030)" style="stroke:#000000; stroke-linecap:round; stroke-linejoin:round; stroke-width:4; stroke-opacity:1; fill:none" points="748.06,1486.45 748.06,1467.55 "/>
<polyline clip-path="url(#clip030)" style="stroke:#000000; stroke-linecap:round; stroke-linejoin:round; stroke-width:4; stroke-opacity:1; fill:none" points="1262.39,1486.45 1262.39,1467.55 "/>
<polyline clip-path="url(#clip030)" style="stroke:#000000; stroke-linecap:round; stroke-linejoin:round; stroke-width:4; stroke-opacity:1; fill:none" points="1776.71,1486.45 1776.71,1467.55 "/>
<polyline clip-path="url(#clip030)" style="stroke:#000000; stroke-linecap:round; stroke-linejoin:round; stroke-width:4; stroke-opacity:1; fill:none" points="2291.04,1486.45 2291.04,1467.55 "/>
<path clip-path="url(#clip030)" d="M233.734 1517.37 Q230.123 1517.37 228.294 1520.93 Q226.489 1524.47 226.489 1531.6 Q226.489 1538.71 228.294 1542.27 Q230.123 1545.82 233.734 1545.82 Q237.368 1545.82 239.174 1542.27 Q241.002 1538.71 241.002 1531.6 Q241.002 1524.47 239.174 1520.93 Q237.368 1517.37 233.734 1517.37 M233.734 1513.66 Q239.544 1513.66 242.6 1518.27 Q245.678 1522.85 245.678 1531.6 Q245.678 1540.33 242.6 1544.94 Q239.544 1549.52 233.734 1549.52 Q227.924 1549.52 224.845 1544.94 Q221.79 1540.33 221.79 1531.6 Q221.79 1522.85 224.845 1518.27 Q227.924 1513.66 233.734 1513.66 Z" fill="#000000" fill-rule="nonzero" fill-opacity="1" /><path clip-path="url(#clip030)" d="M707.678 1514.29 L726.034 1514.29 L726.034 1518.22 L711.96 1518.22 L711.96 1526.7 Q712.979 1526.35 713.997 1526.19 Q715.016 1526 716.034 1526 Q721.821 1526 725.201 1529.17 Q728.581 1532.34 728.581 1537.76 Q728.581 1543.34 725.108 1546.44 Q721.636 1549.52 715.317 1549.52 Q713.141 1549.52 710.872 1549.15 Q708.627 1548.78 706.22 1548.04 L706.22 1543.34 Q708.303 1544.47 710.525 1545.03 Q712.747 1545.58 715.224 1545.58 Q719.229 1545.58 721.567 1543.48 Q723.905 1541.37 723.905 1537.76 Q723.905 1534.15 721.567 1532.04 Q719.229 1529.94 715.224 1529.94 Q713.349 1529.94 711.474 1530.35 Q709.622 1530.77 707.678 1531.65 L707.678 1514.29 Z" fill="#000000" fill-rule="nonzero" fill-opacity="1" /><path clip-path="url(#clip030)" d="M747.793 1517.37 Q744.182 1517.37 742.354 1520.93 Q740.548 1524.47 740.548 1531.6 Q740.548 1538.71 742.354 1542.27 Q744.182 1545.82 747.793 1545.82 Q751.428 1545.82 753.233 1542.27 Q755.062 1538.71 755.062 1531.6 Q755.062 1524.47 753.233 1520.93 Q751.428 1517.37 747.793 1517.37 M747.793 1513.66 Q753.604 1513.66 756.659 1518.27 Q759.738 1522.85 759.738 1531.6 Q759.738 1540.33 756.659 1544.94 Q753.604 1549.52 747.793 1549.52 Q741.983 1549.52 738.905 1544.94 Q735.849 1540.33 735.849 1531.6 Q735.849 1522.85 738.905 1518.27 Q741.983 1513.66 747.793 1513.66 Z" fill="#000000" fill-rule="nonzero" fill-opacity="1" /><path clip-path="url(#clip030)" d="M777.955 1517.37 Q774.344 1517.37 772.516 1520.93 Q770.71 1524.47 770.71 1531.6 Q770.71 1538.71 772.516 1542.27 Q774.344 1545.82 777.955 1545.82 Q781.59 1545.82 783.395 1542.27 Q785.224 1538.71 785.224 1531.6 Q785.224 1524.47 783.395 1520.93 Q781.59 1517.37 777.955 1517.37 M777.955 1513.66 Q783.765 1513.66 786.821 1518.27 Q789.9 1522.85 789.9 1531.6 Q789.9 1540.33 786.821 1544.94 Q783.765 1549.52 777.955 1549.52 Q772.145 1549.52 769.066 1544.94 Q766.011 1540.33 766.011 1531.6 Q766.011 1522.85 769.066 1518.27 Q772.145 1513.66 777.955 1513.66 Z" fill="#000000" fill-rule="nonzero" fill-opacity="1" /><path clip-path="url(#clip030)" d="M1206.91 1544.91 L1214.55 1544.91 L1214.55 1518.55 L1206.24 1520.21 L1206.24 1515.95 L1214.5 1514.29 L1219.18 1514.29 L1219.18 1544.91 L1226.82 1544.91 L1226.82 1548.85 L1206.91 1548.85 L1206.91 1544.91 Z" fill="#000000" fill-rule="nonzero" fill-opacity="1" /><path clip-path="url(#clip030)" d="M1246.26 1517.37 Q1242.65 1517.37 1240.82 1520.93 Q1239.02 1524.47 1239.02 1531.6 Q1239.02 1538.71 1240.82 1542.27 Q1242.65 1545.82 1246.26 1545.82 Q1249.9 1545.82 1251.7 1542.27 Q1253.53 1538.71 1253.53 1531.6 Q1253.53 1524.47 1251.7 1520.93 Q1249.9 1517.37 1246.26 1517.37 M1246.26 1513.66 Q1252.07 1513.66 1255.13 1518.27 Q1258.21 1522.85 1258.21 1531.6 Q1258.21 1540.33 1255.13 1544.94 Q1252.07 1549.52 1246.26 1549.52 Q1240.45 1549.52 1237.37 1544.94 Q1234.32 1540.33 1234.32 1531.6 Q1234.32 1522.85 1237.37 1518.27 Q1240.45 1513.66 1246.26 1513.66 Z" fill="#000000" fill-rule="nonzero" fill-opacity="1" /><path clip-path="url(#clip030)" d="M1276.42 1517.37 Q1272.81 1517.37 1270.98 1520.93 Q1269.18 1524.47 1269.18 1531.6 Q1269.18 1538.71 1270.98 1542.27 Q1272.81 1545.82 1276.42 1545.82 Q1280.06 1545.82 1281.86 1542.27 Q1283.69 1538.71 1283.69 1531.6 Q1283.69 1524.47 1281.86 1520.93 Q1280.06 1517.37 1276.42 1517.37 M1276.42 1513.66 Q1282.23 1513.66 1285.29 1518.27 Q1288.37 1522.85 1288.37 1531.6 Q1288.37 1540.33 1285.29 1544.94 Q1282.23 1549.52 1276.42 1549.52 Q1270.61 1549.52 1267.54 1544.94 Q1264.48 1540.33 1264.48 1531.6 Q1264.48 1522.85 1267.54 1518.27 Q1270.61 1513.66 1276.42 1513.66 Z" fill="#000000" fill-rule="nonzero" fill-opacity="1" /><path clip-path="url(#clip030)" d="M1306.59 1517.37 Q1302.98 1517.37 1301.15 1520.93 Q1299.34 1524.47 1299.34 1531.6 Q1299.34 1538.71 1301.15 1542.27 Q1302.98 1545.82 1306.59 1545.82 Q1310.22 1545.82 1312.03 1542.27 Q1313.85 1538.71 1313.85 1531.6 Q1313.85 1524.47 1312.03 1520.93 Q1310.22 1517.37 1306.59 1517.37 M1306.59 1513.66 Q1312.4 1513.66 1315.45 1518.27 Q1318.53 1522.85 1318.53 1531.6 Q1318.53 1540.33 1315.45 1544.94 Q1312.4 1549.52 1306.59 1549.52 Q1300.78 1549.52 1297.7 1544.94 Q1294.64 1540.33 1294.64 1531.6 Q1294.64 1522.85 1297.7 1518.27 Q1300.78 1513.66 1306.59 1513.66 Z" fill="#000000" fill-rule="nonzero" fill-opacity="1" /><path clip-path="url(#clip030)" d="M1721.24 1544.91 L1728.88 1544.91 L1728.88 1518.55 L1720.57 1520.21 L1720.57 1515.95 L1728.83 1514.29 L1733.51 1514.29 L1733.51 1544.91 L1741.14 1544.91 L1741.14 1548.85 L1721.24 1548.85 L1721.24 1544.91 Z" fill="#000000" fill-rule="nonzero" fill-opacity="1" /><path clip-path="url(#clip030)" d="M1750.63 1514.29 L1768.99 1514.29 L1768.99 1518.22 L1754.92 1518.22 L1754.92 1526.7 Q1755.94 1526.35 1756.95 1526.19 Q1757.97 1526 1758.99 1526 Q1764.78 1526 1768.16 1529.17 Q1771.54 1532.34 1771.54 1537.76 Q1771.54 1543.34 1768.07 1546.44 Q1764.59 1549.52 1758.27 1549.52 Q1756.1 1549.52 1753.83 1549.15 Q1751.58 1548.78 1749.18 1548.04 L1749.18 1543.34 Q1751.26 1544.47 1753.48 1545.03 Q1755.7 1545.58 1758.18 1545.58 Q1762.19 1545.58 1764.52 1543.48 Q1766.86 1541.37 1766.86 1537.76 Q1766.86 1534.15 1764.52 1532.04 Q1762.19 1529.94 1758.18 1529.94 Q1756.31 1529.94 1754.43 1530.35 Q1752.58 1530.77 1750.63 1531.65 L1750.63 1514.29 Z" fill="#000000" fill-rule="nonzero" fill-opacity="1" /><path clip-path="url(#clip030)" d="M1790.75 1517.37 Q1787.14 1517.37 1785.31 1520.93 Q1783.51 1524.47 1783.51 1531.6 Q1783.51 1538.71 1785.31 1542.27 Q1787.14 1545.82 1790.75 1545.82 Q1794.38 1545.82 1796.19 1542.27 Q1798.02 1538.71 1798.02 1531.6 Q1798.02 1524.47 1796.19 1520.93 Q1794.38 1517.37 1790.75 1517.37 M1790.75 1513.66 Q1796.56 1513.66 1799.62 1518.27 Q1802.69 1522.85 1802.69 1531.6 Q1802.69 1540.33 1799.62 1544.94 Q1796.56 1549.52 1790.75 1549.52 Q1784.94 1549.52 1781.86 1544.94 Q1778.81 1540.33 1778.81 1531.6 Q1778.81 1522.85 1781.86 1518.27 Q1784.94 1513.66 1790.75 1513.66 Z" fill="#000000" fill-rule="nonzero" fill-opacity="1" /><path clip-path="url(#clip030)" d="M1820.91 1517.37 Q1817.3 1517.37 1815.47 1520.93 Q1813.67 1524.47 1813.67 1531.6 Q1813.67 1538.71 1815.47 1542.27 Q1817.3 1545.82 1820.91 1545.82 Q1824.55 1545.82 1826.35 1542.27 Q1828.18 1538.71 1828.18 1531.6 Q1828.18 1524.47 1826.35 1520.93 Q1824.55 1517.37 1820.91 1517.37 M1820.91 1513.66 Q1826.72 1513.66 1829.78 1518.27 Q1832.86 1522.85 1832.86 1531.6 Q1832.86 1540.33 1829.78 1544.94 Q1826.72 1549.52 1820.91 1549.52 Q1815.1 1549.52 1812.02 1544.94 Q1808.97 1540.33 1808.97 1531.6 Q1808.97 1522.85 1812.02 1518.27 Q1815.1 1513.66 1820.91 1513.66 Z" fill="#000000" fill-rule="nonzero" fill-opacity="1" /><path clip-path="url(#clip030)" d="M2239.65 1544.91 L2255.97 1544.91 L2255.97 1548.85 L2234.02 1548.85 L2234.02 1544.91 Q2236.69 1542.16 2241.27 1537.53 Q2245.88 1532.88 2247.06 1531.53 Q2249.3 1529.01 2250.18 1527.27 Q2251.08 1525.51 2251.08 1523.82 Q2251.08 1521.07 2249.14 1519.33 Q2247.22 1517.6 2244.12 1517.6 Q2241.92 1517.6 2239.46 1518.36 Q2237.03 1519.13 2234.25 1520.68 L2234.25 1515.95 Q2237.08 1514.82 2239.53 1514.24 Q2241.99 1513.66 2244.02 1513.66 Q2249.39 1513.66 2252.59 1516.35 Q2255.78 1519.03 2255.78 1523.52 Q2255.78 1525.65 2254.97 1527.57 Q2254.19 1529.47 2252.08 1532.07 Q2251.5 1532.74 2248.4 1535.95 Q2245.3 1539.15 2239.65 1544.91 Z" fill="#000000" fill-rule="nonzero" fill-opacity="1" /><path clip-path="url(#clip030)" d="M2275.78 1517.37 Q2272.17 1517.37 2270.34 1520.93 Q2268.54 1524.47 2268.54 1531.6 Q2268.54 1538.71 2270.34 1542.27 Q2272.17 1545.82 2275.78 1545.82 Q2279.42 1545.82 2281.22 1542.27 Q2283.05 1538.71 2283.05 1531.6 Q2283.05 1524.47 2281.22 1520.93 Q2279.42 1517.37 2275.78 1517.37 M2275.78 1513.66 Q2281.59 1513.66 2284.65 1518.27 Q2287.73 1522.85 2287.73 1531.6 Q2287.73 1540.33 2284.65 1544.94 Q2281.59 1549.52 2275.78 1549.52 Q2269.97 1549.52 2266.89 1544.94 Q2263.84 1540.33 2263.84 1531.6 Q2263.84 1522.85 2266.89 1518.27 Q2269.97 1513.66 2275.78 1513.66 Z" fill="#000000" fill-rule="nonzero" fill-opacity="1" /><path clip-path="url(#clip030)" d="M2305.94 1517.37 Q2302.33 1517.37 2300.5 1520.93 Q2298.7 1524.47 2298.7 1531.6 Q2298.7 1538.71 2300.5 1542.27 Q2302.33 1545.82 2305.94 1545.82 Q2309.58 1545.82 2311.38 1542.27 Q2313.21 1538.71 2313.21 1531.6 Q2313.21 1524.47 2311.38 1520.93 Q2309.58 1517.37 2305.94 1517.37 M2305.94 1513.66 Q2311.75 1513.66 2314.81 1518.27 Q2317.89 1522.85 2317.89 1531.6 Q2317.89 1540.33 2314.81 1544.94 Q2311.75 1549.52 2305.94 1549.52 Q2300.13 1549.52 2297.06 1544.94 Q2294 1540.33 2294 1531.6 Q2294 1522.85 2297.06 1518.27 Q2300.13 1513.66 2305.94 1513.66 Z" fill="#000000" fill-rule="nonzero" fill-opacity="1" /><path clip-path="url(#clip030)" d="M2336.11 1517.37 Q2332.49 1517.37 2330.67 1520.93 Q2328.86 1524.47 2328.86 1531.6 Q2328.86 1538.71 2330.67 1542.27 Q2332.49 1545.82 2336.11 1545.82 Q2339.74 1545.82 2341.55 1542.27 Q2343.37 1538.71 2343.37 1531.6 Q2343.37 1524.47 2341.55 1520.93 Q2339.74 1517.37 2336.11 1517.37 M2336.11 1513.66 Q2341.92 1513.66 2344.97 1518.27 Q2348.05 1522.85 2348.05 1531.6 Q2348.05 1540.33 2344.97 1544.94 Q2341.92 1549.52 2336.11 1549.52 Q2330.3 1549.52 2327.22 1544.94 Q2324.16 1540.33 2324.16 1531.6 Q2324.16 1522.85 2327.22 1518.27 Q2330.3 1513.66 2336.11 1513.66 Z" fill="#000000" fill-rule="nonzero" fill-opacity="1" /><polyline clip-path="url(#clip032)" style="stroke:#000000; stroke-linecap:round; stroke-linejoin:round; stroke-width:2; stroke-opacity:0.1; fill:none" points="172.015,1473.13 2352.76,1473.13 "/>
<polyline clip-path="url(#clip032)" style="stroke:#000000; stroke-linecap:round; stroke-linejoin:round; stroke-width:2; stroke-opacity:0.1; fill:none" points="172.015,1122.61 2352.76,1122.61 "/>
<polyline clip-path="url(#clip032)" style="stroke:#000000; stroke-linecap:round; stroke-linejoin:round; stroke-width:2; stroke-opacity:0.1; fill:none" points="172.015,772.09 2352.76,772.09 "/>
<polyline clip-path="url(#clip032)" style="stroke:#000000; stroke-linecap:round; stroke-linejoin:round; stroke-width:2; stroke-opacity:0.1; fill:none" points="172.015,421.57 2352.76,421.57 "/>
<polyline clip-path="url(#clip032)" style="stroke:#000000; stroke-linecap:round; stroke-linejoin:round; stroke-width:2; stroke-opacity:0.1; fill:none" points="172.015,71.0495 2352.76,71.0495 "/>
<polyline clip-path="url(#clip030)" style="stroke:#000000; stroke-linecap:round; stroke-linejoin:round; stroke-width:4; stroke-opacity:1; fill:none" points="172.015,1486.45 172.015,47.2441 "/>
<polyline clip-path="url(#clip030)" style="stroke:#000000; stroke-linecap:round; stroke-linejoin:round; stroke-width:4; stroke-opacity:1; fill:none" points="172.015,1473.13 190.912,1473.13 "/>
<polyline clip-path="url(#clip030)" style="stroke:#000000; stroke-linecap:round; stroke-linejoin:round; stroke-width:4; stroke-opacity:1; fill:none" points="172.015,1122.61 190.912,1122.61 "/>
<polyline clip-path="url(#clip030)" style="stroke:#000000; stroke-linecap:round; stroke-linejoin:round; stroke-width:4; stroke-opacity:1; fill:none" points="172.015,772.09 190.912,772.09 "/>
<polyline clip-path="url(#clip030)" style="stroke:#000000; stroke-linecap:round; stroke-linejoin:round; stroke-width:4; stroke-opacity:1; fill:none" points="172.015,421.57 190.912,421.57 "/>
<polyline clip-path="url(#clip030)" style="stroke:#000000; stroke-linecap:round; stroke-linejoin:round; stroke-width:4; stroke-opacity:1; fill:none" points="172.015,71.0495 190.912,71.0495 "/>
<path clip-path="url(#clip030)" d="M67.9133 1471.78 Q71.2698 1472.49 73.1448 1474.76 Q75.0429 1477.03 75.0429 1480.36 Q75.0429 1485.48 71.5244 1488.28 Q68.0059 1491.08 61.5245 1491.08 Q59.3486 1491.08 57.0338 1490.64 Q54.7421 1490.23 52.2884 1489.37 L52.2884 1484.86 Q54.2328 1485.99 56.5477 1486.57 Q58.8625 1487.15 61.3856 1487.15 Q65.7837 1487.15 68.0754 1485.41 Q70.3902 1483.67 70.3902 1480.36 Q70.3902 1477.31 68.2374 1475.6 Q66.1078 1473.86 62.2884 1473.86 L58.2606 1473.86 L58.2606 1470.02 L62.4735 1470.02 Q65.9226 1470.02 67.7513 1468.65 Q69.58 1467.26 69.58 1464.67 Q69.58 1462.01 67.6819 1460.6 Q65.8069 1459.16 62.2884 1459.16 Q60.3671 1459.16 58.168 1459.58 Q55.969 1459.99 53.3301 1460.87 L53.3301 1456.71 Q55.9921 1455.97 58.3069 1455.6 Q60.6449 1455.23 62.705 1455.23 Q68.0291 1455.23 71.1309 1457.66 Q74.2327 1460.06 74.2327 1464.18 Q74.2327 1467.05 72.5892 1469.05 Q70.9457 1471.01 67.9133 1471.78 Z" fill="#000000" fill-rule="nonzero" fill-opacity="1" /><path clip-path="url(#clip030)" d="M93.9086 1458.93 Q90.2975 1458.93 88.4688 1462.49 Q86.6632 1466.04 86.6632 1473.17 Q86.6632 1480.27 88.4688 1483.84 Q90.2975 1487.38 93.9086 1487.38 Q97.5428 1487.38 99.3483 1483.84 Q101.177 1480.27 101.177 1473.17 Q101.177 1466.04 99.3483 1462.49 Q97.5428 1458.93 93.9086 1458.93 M93.9086 1455.23 Q99.7187 1455.23 102.774 1459.83 Q105.853 1464.42 105.853 1473.17 Q105.853 1481.89 102.774 1486.5 Q99.7187 1491.08 93.9086 1491.08 Q88.0984 1491.08 85.0197 1486.5 Q81.9642 1481.89 81.9642 1473.17 Q81.9642 1464.42 85.0197 1459.83 Q88.0984 1455.23 93.9086 1455.23 Z" fill="#000000" fill-rule="nonzero" fill-opacity="1" /><path clip-path="url(#clip030)" d="M124.07 1458.93 Q120.459 1458.93 118.631 1462.49 Q116.825 1466.04 116.825 1473.17 Q116.825 1480.27 118.631 1483.84 Q120.459 1487.38 124.07 1487.38 Q127.705 1487.38 129.51 1483.84 Q131.339 1480.27 131.339 1473.17 Q131.339 1466.04 129.51 1462.49 Q127.705 1458.93 124.07 1458.93 M124.07 1455.23 Q129.881 1455.23 132.936 1459.83 Q136.015 1464.42 136.015 1473.17 Q136.015 1481.89 132.936 1486.5 Q129.881 1491.08 124.07 1491.08 Q118.26 1491.08 115.182 1486.5 Q112.126 1481.89 112.126 1473.17 Q112.126 1464.42 115.182 1459.83 Q118.26 1455.23 124.07 1455.23 Z" fill="#000000" fill-rule="nonzero" fill-opacity="1" /><path clip-path="url(#clip030)" d="M66.5939 1109.4 L54.7884 1127.85 L66.5939 1127.85 L66.5939 1109.4 M65.367 1105.33 L71.2466 1105.33 L71.2466 1127.85 L76.1772 1127.85 L76.1772 1131.74 L71.2466 1131.74 L71.2466 1139.89 L66.5939 1139.89 L66.5939 1131.74 L50.9921 1131.74 L50.9921 1127.23 L65.367 1105.33 Z" fill="#000000" fill-rule="nonzero" fill-opacity="1" /><path clip-path="url(#clip030)" d="M93.9086 1108.41 Q90.2975 1108.41 88.4688 1111.97 Q86.6632 1115.52 86.6632 1122.65 Q86.6632 1129.75 88.4688 1133.32 Q90.2975 1136.86 93.9086 1136.86 Q97.5428 1136.86 99.3483 1133.32 Q101.177 1129.75 101.177 1122.65 Q101.177 1115.52 99.3483 1111.97 Q97.5428 1108.41 93.9086 1108.41 M93.9086 1104.71 Q99.7187 1104.71 102.774 1109.31 Q105.853 1113.9 105.853 1122.65 Q105.853 1131.37 102.774 1135.98 Q99.7187 1140.56 93.9086 1140.56 Q88.0984 1140.56 85.0197 1135.98 Q81.9642 1131.37 81.9642 1122.65 Q81.9642 1113.9 85.0197 1109.31 Q88.0984 1104.71 93.9086 1104.71 Z" fill="#000000" fill-rule="nonzero" fill-opacity="1" /><path clip-path="url(#clip030)" d="M124.07 1108.41 Q120.459 1108.41 118.631 1111.97 Q116.825 1115.52 116.825 1122.65 Q116.825 1129.75 118.631 1133.32 Q120.459 1136.86 124.07 1136.86 Q127.705 1136.86 129.51 1133.32 Q131.339 1129.75 131.339 1122.65 Q131.339 1115.52 129.51 1111.97 Q127.705 1108.41 124.07 1108.41 M124.07 1104.71 Q129.881 1104.71 132.936 1109.31 Q136.015 1113.9 136.015 1122.65 Q136.015 1131.37 132.936 1135.98 Q129.881 1140.56 124.07 1140.56 Q118.26 1140.56 115.182 1135.98 Q112.126 1131.37 112.126 1122.65 Q112.126 1113.9 115.182 1109.31 Q118.26 1104.71 124.07 1104.71 Z" fill="#000000" fill-rule="nonzero" fill-opacity="1" /><path clip-path="url(#clip030)" d="M53.793 754.81 L72.1494 754.81 L72.1494 758.745 L58.0754 758.745 L58.0754 767.218 Q59.0939 766.87 60.1124 766.708 Q61.131 766.523 62.1495 766.523 Q67.9365 766.523 71.3161 769.694 Q74.6957 772.866 74.6957 778.282 Q74.6957 783.861 71.2235 786.963 Q67.7513 790.042 61.4319 790.042 Q59.256 790.042 56.9875 789.671 Q54.7421 789.301 52.3347 788.56 L52.3347 783.861 Q54.418 784.995 56.6402 785.551 Q58.8625 786.106 61.3393 786.106 Q65.3439 786.106 67.6819 784 Q70.0198 781.893 70.0198 778.282 Q70.0198 774.671 67.6819 772.565 Q65.3439 770.458 61.3393 770.458 Q59.4643 770.458 57.5893 770.875 Q55.7375 771.292 53.793 772.171 L53.793 754.81 Z" fill="#000000" fill-rule="nonzero" fill-opacity="1" /><path clip-path="url(#clip030)" d="M93.9086 757.889 Q90.2975 757.889 88.4688 761.454 Q86.6632 764.995 86.6632 772.125 Q86.6632 779.231 88.4688 782.796 Q90.2975 786.338 93.9086 786.338 Q97.5428 786.338 99.3483 782.796 Q101.177 779.231 101.177 772.125 Q101.177 764.995 99.3483 761.454 Q97.5428 757.889 93.9086 757.889 M93.9086 754.185 Q99.7187 754.185 102.774 758.792 Q105.853 763.375 105.853 772.125 Q105.853 780.852 102.774 785.458 Q99.7187 790.042 93.9086 790.042 Q88.0984 790.042 85.0197 785.458 Q81.9642 780.852 81.9642 772.125 Q81.9642 763.375 85.0197 758.792 Q88.0984 754.185 93.9086 754.185 Z" fill="#000000" fill-rule="nonzero" fill-opacity="1" /><path clip-path="url(#clip030)" d="M124.07 757.889 Q120.459 757.889 118.631 761.454 Q116.825 764.995 116.825 772.125 Q116.825 779.231 118.631 782.796 Q120.459 786.338 124.07 786.338 Q127.705 786.338 129.51 782.796 Q131.339 779.231 131.339 772.125 Q131.339 764.995 129.51 761.454 Q127.705 757.889 124.07 757.889 M124.07 754.185 Q129.881 754.185 132.936 758.792 Q136.015 763.375 136.015 772.125 Q136.015 780.852 132.936 785.458 Q129.881 790.042 124.07 790.042 Q118.26 790.042 115.182 785.458 Q112.126 780.852 112.126 772.125 Q112.126 763.375 115.182 758.792 Q118.26 754.185 124.07 754.185 Z" fill="#000000" fill-rule="nonzero" fill-opacity="1" /><path clip-path="url(#clip030)" d="M64.3254 419.706 Q61.1773 419.706 59.3254 421.859 Q57.4967 424.012 57.4967 427.762 Q57.4967 431.489 59.3254 433.665 Q61.1773 435.817 64.3254 435.817 Q67.4735 435.817 69.3022 433.665 Q71.1541 431.489 71.1541 427.762 Q71.1541 424.012 69.3022 421.859 Q67.4735 419.706 64.3254 419.706 M73.6077 405.054 L73.6077 409.313 Q71.8485 408.48 70.0429 408.04 Q68.2606 407.6 66.5013 407.6 Q61.8717 407.6 59.418 410.725 Q56.9875 413.85 56.6402 420.169 Q58.006 418.156 60.0662 417.091 Q62.1263 416.003 64.6032 416.003 Q69.8115 416.003 72.8207 419.174 Q75.8531 422.322 75.8531 427.762 Q75.8531 433.086 72.705 436.304 Q69.5568 439.521 64.3254 439.521 Q58.33 439.521 55.1588 434.938 Q51.9875 430.331 51.9875 421.605 Q51.9875 413.41 55.8764 408.549 Q59.7652 403.665 66.3161 403.665 Q68.0754 403.665 69.8578 404.012 Q71.6633 404.359 73.6077 405.054 Z" fill="#000000" fill-rule="nonzero" fill-opacity="1" /><path clip-path="url(#clip030)" d="M93.9086 407.369 Q90.2975 407.369 88.4688 410.933 Q86.6632 414.475 86.6632 421.605 Q86.6632 428.711 88.4688 432.276 Q90.2975 435.817 93.9086 435.817 Q97.5428 435.817 99.3483 432.276 Q101.177 428.711 101.177 421.605 Q101.177 414.475 99.3483 410.933 Q97.5428 407.369 93.9086 407.369 M93.9086 403.665 Q99.7187 403.665 102.774 408.271 Q105.853 412.855 105.853 421.605 Q105.853 430.331 102.774 434.938 Q99.7187 439.521 93.9086 439.521 Q88.0984 439.521 85.0197 434.938 Q81.9642 430.331 81.9642 421.605 Q81.9642 412.855 85.0197 408.271 Q88.0984 403.665 93.9086 403.665 Z" fill="#000000" fill-rule="nonzero" fill-opacity="1" /><path clip-path="url(#clip030)" d="M124.07 407.369 Q120.459 407.369 118.631 410.933 Q116.825 414.475 116.825 421.605 Q116.825 428.711 118.631 432.276 Q120.459 435.817 124.07 435.817 Q127.705 435.817 129.51 432.276 Q131.339 428.711 131.339 421.605 Q131.339 414.475 129.51 410.933 Q127.705 407.369 124.07 407.369 M124.07 403.665 Q129.881 403.665 132.936 408.271 Q136.015 412.855 136.015 421.605 Q136.015 430.331 132.936 434.938 Q129.881 439.521 124.07 439.521 Q118.26 439.521 115.182 434.938 Q112.126 430.331 112.126 421.605 Q112.126 412.855 115.182 408.271 Q118.26 403.665 124.07 403.665 Z" fill="#000000" fill-rule="nonzero" fill-opacity="1" /><path clip-path="url(#clip030)" d="M52.5662 53.7695 L74.7883 53.7695 L74.7883 55.7602 L62.2421 88.3295 L57.3578 88.3295 L69.1633 57.7047 L52.5662 57.7047 L52.5662 53.7695 Z" fill="#000000" fill-rule="nonzero" fill-opacity="1" /><path clip-path="url(#clip030)" d="M93.9086 56.8482 Q90.2975 56.8482 88.4688 60.413 Q86.6632 63.9546 86.6632 71.0842 Q86.6632 78.1907 88.4688 81.7555 Q90.2975 85.2971 93.9086 85.2971 Q97.5428 85.2971 99.3483 81.7555 Q101.177 78.1907 101.177 71.0842 Q101.177 63.9546 99.3483 60.413 Q97.5428 56.8482 93.9086 56.8482 M93.9086 53.1445 Q99.7187 53.1445 102.774 57.751 Q105.853 62.3343 105.853 71.0842 Q105.853 79.811 102.774 84.4175 Q99.7187 89.0008 93.9086 89.0008 Q88.0984 89.0008 85.0197 84.4175 Q81.9642 79.811 81.9642 71.0842 Q81.9642 62.3343 85.0197 57.751 Q88.0984 53.1445 93.9086 53.1445 Z" fill="#000000" fill-rule="nonzero" fill-opacity="1" /><path clip-path="url(#clip030)" d="M124.07 56.8482 Q120.459 56.8482 118.631 60.413 Q116.825 63.9546 116.825 71.0842 Q116.825 78.1907 118.631 81.7555 Q120.459 85.2971 124.07 85.2971 Q127.705 85.2971 129.51 81.7555 Q131.339 78.1907 131.339 71.0842 Q131.339 63.9546 129.51 60.413 Q127.705 56.8482 124.07 56.8482 M124.07 53.1445 Q129.881 53.1445 132.936 57.751 Q136.015 62.3343 136.015 71.0842 Q136.015 79.811 132.936 84.4175 Q129.881 89.0008 124.07 89.0008 Q118.26 89.0008 115.182 84.4175 Q112.126 79.811 112.126 71.0842 Q112.126 62.3343 115.182 57.751 Q118.26 53.1445 124.07 53.1445 Z" fill="#000000" fill-rule="nonzero" fill-opacity="1" /><polyline clip-path="url(#clip032)" style="stroke:#009af9; stroke-linecap:round; stroke-linejoin:round; stroke-width:4; stroke-opacity:1; fill:none" points="233.734,87.9763 234.763,610.202 235.791,852.676 236.82,1006.39 237.849,1113.5 238.877,1190.95 239.906,1247.46 240.934,1288.83 241.963,1319.3 242.992,1341.94 244.02,1358.97 245.049,1371.96 246.078,1382.02 247.106,1389.92 248.135,1396.21 249.164,1401.3 250.192,1405.47 251.221,1408.92 252.25,1411.81 253.278,1414.26 254.307,1416.35 255.336,1418.14 256.364,1419.7 257.393,1421.05 258.422,1422.24 259.45,1423.29 260.479,1424.22 261.507,1425.05 262.536,1425.79 263.565,1426.46 264.593,1427.06 265.622,1427.6 266.651,1428.1 267.679,1428.55 268.708,1428.96 269.737,1429.34 270.765,1429.69 271.794,1430.01 272.823,1430.31 273.851,1430.58 274.88,1430.84 275.909,1431.08 276.937,1431.3 277.966,1431.51 278.995,1431.7 280.023,1431.89 281.052,1432.06 282.081,1432.22 283.109,1432.37 284.138,1432.52 285.166,1432.65 286.195,1432.78 287.224,1432.9 288.252,1433.02 289.281,1433.13 290.31,1433.23 291.338,1433.33 292.367,1433.43 293.396,1433.52 294.424,1433.61 295.453,1433.69 296.482,1433.77 297.51,1433.85 298.539,1433.92 299.568,1433.99 300.596,1434.06 301.625,1434.13 302.654,1434.19 303.682,1434.25 304.711,1434.31 305.74,1434.37 306.768,1434.42 307.797,1434.48 308.825,1434.53 309.854,1434.58 310.883,1434.63 311.911,1434.67 312.94,1434.72 313.969,1434.76 314.997,1434.81 316.026,1434.85 317.055,1434.89 318.083,1434.93 319.112,1434.97 320.141,1435 321.169,1435.04 322.198,1435.07 323.227,1435.11 324.255,1435.14 325.284,1435.17 326.313,1435.21 327.341,1435.24 328.37,1435.27 329.398,1435.3 330.427,1435.32 331.456,1435.35 332.484,1435.38 333.513,1435.4 334.542,1435.43 335.57,1435.45 336.599,1435.48 337.628,1435.5 338.656,1435.53 339.685,1435.55 340.714,1435.57 341.742,1435.59 342.771,1435.61 343.8,1435.63 344.828,1435.65 345.857,1435.67 346.886,1435.69 347.914,1435.71 348.943,1435.73 349.972,1435.75 351,1435.76 352.029,1435.78 353.057,1435.8 354.086,1435.81 355.115,1435.83 356.143,1435.84 357.172,1435.86 358.201,1435.87 359.229,1435.89 360.258,1435.9 361.287,1435.92 362.315,1435.93 363.344,1435.94 364.373,1435.96 365.401,1435.97 366.43,1435.98 367.459,1435.99 368.487,1436 369.516,1436.02 370.545,1436.03 371.573,1436.04 372.602,1436.05 373.631,1436.06 374.659,1436.07 375.688,1436.08 376.716,1436.09 377.745,1436.1 378.774,1436.11 379.802,1436.12 380.831,1436.13 381.86,1436.14 382.888,1436.14 383.917,1436.15 384.946,1436.16 385.974,1436.17 387.003,1436.18 388.032,1436.19 389.06,1436.19 390.089,1436.2 391.118,1436.21 392.146,1436.22 393.175,1436.22 394.204,1436.23 395.232,1436.24 396.261,1436.24 397.289,1436.25 398.318,1436.26 399.347,1436.26 400.375,1436.27 401.404,1436.27 402.433,1436.28 403.461,1436.29 404.49,1436.29 405.519,1436.3 406.547,1436.3 407.576,1436.31 408.605,1436.31 409.633,1436.32 410.662,1436.32 411.691,1436.33 412.719,1436.33 413.748,1436.34 414.777,1436.34 415.805,1436.35 416.834,1436.35 417.863,1436.36 418.891,1436.36 419.92,1436.37 420.948,1436.37 421.977,1436.38 423.006,1436.38 424.034,1436.39 425.063,1436.39 426.092,1436.39 427.12,1436.4 428.149,1436.4 429.178,1436.41 430.206,1436.41 431.235,1436.41 432.264,1436.42 433.292,1436.42 434.321,1436.42 435.35,1436.43 436.378,1436.43 437.407,1436.43 438.436,1436.44 439.464,1436.44 440.493,1436.44 441.522,1436.45 442.55,1436.45 443.579,1436.45 444.607,1436.46 445.636,1436.46 446.665,1436.46 447.693,1436.47 448.722,1436.47 449.751,1436.47 450.779,1436.48 451.808,1436.48 452.837,1436.48 453.865,1436.48 454.894,1436.49 455.923,1436.49 456.951,1436.49 457.98,1436.5 459.009,1436.5 460.037,1436.5 461.066,1436.5 462.095,1436.51 463.123,1436.51 464.152,1436.51 465.18,1436.51 466.209,1436.52 467.238,1436.52 468.266,1436.52 469.295,1436.52 470.324,1436.53 471.352,1436.53 472.381,1436.53 473.41,1436.53 474.438,1436.53 475.467,1436.54 476.496,1436.54 477.524,1436.54 478.553,1436.54 479.582,1436.55 480.61,1436.55 481.639,1436.55 482.668,1436.55 483.696,1436.55 484.725,1436.56 485.754,1436.56 486.782,1436.56 487.811,1436.56 488.839,1436.56 489.868,1436.57 490.897,1436.57 491.925,1436.57 492.954,1436.57 493.983,1436.57 495.011,1436.58 496.04,1436.58 497.069,1436.58 498.097,1436.58 499.126,1436.58 500.155,1436.58 501.183,1436.59 502.212,1436.59 503.241,1436.59 504.269,1436.59 505.298,1436.59 506.327,1436.6 507.355,1436.6 508.384,1436.6 509.412,1436.6 510.441,1436.6 511.47,1436.6 512.498,1436.61 513.527,1436.61 514.556,1436.61 515.584,1436.61 516.613,1436.61 517.642,1436.61 518.67,1436.61 519.699,1436.62 520.728,1436.62 521.756,1436.62 522.785,1436.62 523.814,1436.62 524.842,1436.62 525.871,1436.63 526.9,1436.63 527.928,1436.63 528.957,1436.63 529.986,1436.63 531.014,1436.63 532.043,1436.63 533.071,1436.64 534.1,1436.64 535.129,1436.64 536.157,1436.64 537.186,1436.64 538.215,1436.64 539.243,1436.64 540.272,1436.64 541.301,1436.65 542.329,1436.65 543.358,1436.65 544.387,1436.65 545.415,1436.65 546.444,1436.65 547.473,1436.65 548.501,1436.66 549.53,1436.66 550.559,1436.66 551.587,1436.66 552.616,1436.66 553.645,1436.66 554.673,1436.66 555.702,1436.66 556.73,1436.66 557.759,1436.67 558.788,1436.67 559.816,1436.67 560.845,1436.67 561.874,1436.67 562.902,1436.67 563.931,1436.67 564.96,1436.67 565.988,1436.68 567.017,1436.68 568.046,1436.68 569.074,1436.68 570.103,1436.68 571.132,1436.68 572.16,1436.68 573.189,1436.68 574.218,1436.68 575.246,1436.69 576.275,1436.69 577.303,1436.69 578.332,1436.69 579.361,1436.69 580.389,1436.69 581.418,1436.69 582.447,1436.69 583.475,1436.69 584.504,1436.69 585.533,1436.7 586.561,1436.7 587.59,1436.7 588.619,1436.7 589.647,1436.7 590.676,1436.7 591.705,1436.7 592.733,1436.7 593.762,1436.7 594.791,1436.7 595.819,1436.7 596.848,1436.71 597.877,1436.71 598.905,1436.71 599.934,1436.71 600.962,1436.71 601.991,1436.71 603.02,1436.71 604.048,1436.71 605.077,1436.71 606.106,1436.71 607.134,1436.71 608.163,1436.72 609.192,1436.72 610.22,1436.72 611.249,1436.72 612.278,1436.72 613.306,1436.72 614.335,1436.72 615.364,1436.72 616.392,1436.72 617.421,1436.72 618.45,1436.72 619.478,1436.73 620.507,1436.73 621.536,1436.73 622.564,1436.73 623.593,1436.73 624.621,1436.73 625.65,1436.73 626.679,1436.73 627.707,1436.73 628.736,1436.73 629.765,1436.73 630.793,1436.73 631.822,1436.73 632.851,1436.74 633.879,1436.74 634.908,1436.74 635.937,1436.74 636.965,1436.74 637.994,1436.74 639.023,1436.74 640.051,1436.74 641.08,1436.74 642.109,1436.74 643.137,1436.74 644.166,1436.74 645.194,1436.74 646.223,1436.75 647.252,1436.75 648.28,1436.75 649.309,1436.75 650.338,1436.75 651.366,1436.75 652.395,1436.75 653.424,1436.75 654.452,1436.75 655.481,1436.75 656.51,1436.75 657.538,1436.75 658.567,1436.75 659.596,1436.75 660.624,1436.76 661.653,1436.76 662.682,1436.76 663.71,1436.76 664.739,1436.76 665.768,1436.76 666.796,1436.76 667.825,1436.76 668.853,1436.76 669.882,1436.76 670.911,1436.76 671.939,1436.76 672.968,1436.76 673.997,1436.76 675.025,1436.76 676.054,1436.76 677.083,1436.77 678.111,1436.77 679.14,1436.77 680.169,1436.77 681.197,1436.77 682.226,1436.77 683.255,1436.77 684.283,1436.77 685.312,1436.77 686.341,1436.77 687.369,1436.77 688.398,1436.77 689.427,1436.77 690.455,1436.77 691.484,1436.77 692.512,1436.77 693.541,1436.78 694.57,1436.78 695.598,1436.78 696.627,1436.78 697.656,1436.78 698.684,1436.78 699.713,1436.78 700.742,1436.78 701.77,1436.78 702.799,1436.78 703.828,1436.78 704.856,1436.78 705.885,1436.78 706.914,1436.78 707.942,1436.78 708.971,1436.78 710,1436.78 711.028,1436.78 712.057,1436.79 713.085,1436.79 714.114,1436.79 715.143,1436.79 716.171,1436.79 717.2,1436.79 718.229,1436.79 719.257,1436.79 720.286,1436.79 721.315,1436.79 722.343,1436.79 723.372,1436.79 724.401,1436.79 725.429,1436.79 726.458,1436.79 727.487,1436.79 728.515,1436.79 729.544,1436.79 730.573,1436.79 731.601,1436.79 732.63,1436.8 733.659,1436.8 734.687,1436.8 735.716,1436.8 736.744,1436.8 737.773,1436.8 738.802,1436.8 739.83,1436.8 740.859,1436.8 741.888,1436.8 742.916,1436.8 743.945,1436.8 744.974,1436.8 746.002,1436.8 747.031,1436.8 748.06,1436.8 749.088,1436.8 750.117,1436.8 751.146,1436.8 752.174,1436.8 753.203,1436.8 754.232,1436.81 755.26,1436.81 756.289,1436.81 757.317,1436.81 758.346,1436.81 759.375,1436.81 760.403,1436.81 761.432,1436.81 762.461,1436.81 763.489,1436.81 764.518,1436.81 765.547,1436.81 766.575,1436.81 767.604,1436.81 768.633,1436.81 769.661,1436.81 770.69,1436.81 771.719,1436.81 772.747,1436.81 773.776,1436.81 774.805,1436.81 775.833,1436.81 776.862,1436.81 777.891,1436.82 778.919,1436.82 779.948,1436.82 780.976,1436.82 782.005,1436.82 783.034,1436.82 784.062,1436.82 785.091,1436.82 786.12,1436.82 787.148,1436.82 788.177,1436.82 789.206,1436.82 790.234,1436.82 791.263,1436.82 792.292,1436.82 793.32,1436.82 794.349,1436.82 795.378,1436.82 796.406,1436.82 797.435,1436.82 798.464,1436.82 799.492,1436.82 800.521,1436.82 801.55,1436.82 802.578,1436.82 803.607,1436.83 804.635,1436.83 805.664,1436.83 806.693,1436.83 807.721,1436.83 808.75,1436.83 809.779,1436.83 810.807,1436.83 811.836,1436.83 812.865,1436.83 813.893,1436.83 814.922,1436.83 815.951,1436.83 816.979,1436.83 818.008,1436.83 819.037,1436.83 820.065,1436.83 821.094,1436.83 822.123,1436.83 823.151,1436.83 824.18,1436.83 825.208,1436.83 826.237,1436.83 827.266,1436.83 828.294,1436.83 829.323,1436.83 830.352,1436.83 831.38,1436.83 832.409,1436.84 833.438,1436.84 834.466,1436.84 835.495,1436.84 836.524,1436.84 837.552,1436.84 838.581,1436.84 839.61,1436.84 840.638,1436.84 841.667,1436.84 842.696,1436.84 843.724,1436.84 844.753,1436.84 845.782,1436.84 846.81,1436.84 847.839,1436.84 848.867,1436.84 849.896,1436.84 850.925,1436.84 851.953,1436.84 852.982,1436.84 854.011,1436.84 855.039,1436.84 856.068,1436.84 857.097,1436.84 858.125,1436.84 859.154,1436.84 860.183,1436.84 861.211,1436.84 862.24,1436.84 863.269,1436.85 864.297,1436.85 865.326,1436.85 866.355,1436.85 867.383,1436.85 868.412,1436.85 869.441,1436.85 870.469,1436.85 871.498,1436.85 872.526,1436.85 873.555,1436.85 874.584,1436.85 875.612,1436.85 876.641,1436.85 877.67,1436.85 878.698,1436.85 879.727,1436.85 880.756,1436.85 881.784,1436.85 882.813,1436.85 883.842,1436.85 884.87,1436.85 885.899,1436.85 886.928,1436.85 887.956,1436.85 888.985,1436.85 890.014,1436.85 891.042,1436.85 892.071,1436.85 893.099,1436.85 894.128,1436.85 895.157,1436.85 896.185,1436.85 897.214,1436.85 898.243,1436.85 899.271,1436.86 900.3,1436.86 901.329,1436.86 902.357,1436.86 903.386,1436.86 904.415,1436.86 905.443,1436.86 906.472,1436.86 907.501,1436.86 908.529,1436.86 909.558,1436.86 910.587,1436.86 911.615,1436.86 912.644,1436.86 913.673,1436.86 914.701,1436.86 915.73,1436.86 916.758,1436.86 917.787,1436.86 918.816,1436.86 919.844,1436.86 920.873,1436.86 921.902,1436.86 922.93,1436.86 923.959,1436.86 924.988,1436.86 926.016,1436.86 927.045,1436.86 928.074,1436.86 929.102,1436.86 930.131,1436.86 931.16,1436.86 932.188,1436.86 933.217,1436.86 934.246,1436.86 935.274,1436.86 936.303,1436.86 937.332,1436.86 938.36,1436.87 939.389,1436.87 940.417,1436.87 941.446,1436.87 942.475,1436.87 943.503,1436.87 944.532,1436.87 945.561,1436.87 946.589,1436.87 947.618,1436.87 948.647,1436.87 949.675,1436.87 950.704,1436.87 951.733,1436.87 952.761,1436.87 953.79,1436.87 954.819,1436.87 955.847,1436.87 956.876,1436.87 957.905,1436.87 958.933,1436.87 959.962,1436.87 960.99,1436.87 962.019,1436.87 963.048,1436.87 964.076,1436.87 965.105,1436.87 966.134,1436.87 967.162,1436.87 968.191,1436.87 969.22,1436.87 970.248,1436.87 971.277,1436.87 972.306,1436.87 973.334,1436.87 974.363,1436.87 975.392,1436.87 976.42,1436.87 977.449,1436.87 978.478,1436.87 979.506,1436.87 980.535,1436.87 981.564,1436.87 982.592,1436.88 983.621,1436.88 984.649,1436.88 985.678,1436.88 986.707,1436.88 987.735,1436.88 988.764,1436.88 989.793,1436.88 990.821,1436.88 991.85,1436.88 992.879,1436.88 993.907,1436.88 994.936,1436.88 995.965,1436.88 996.993,1436.88 998.022,1436.88 999.051,1436.88 1000.08,1436.88 1001.11,1436.88 1002.14,1436.88 1003.17,1436.88 1004.19,1436.88 1005.22,1436.88 1006.25,1436.88 1007.28,1436.88 1008.31,1436.88 1009.34,1436.88 1010.37,1436.88 1011.39,1436.88 1012.42,1436.88 1013.45,1436.88 1014.48,1436.88 1015.51,1436.88 1016.54,1436.88 1017.57,1436.88 1018.59,1436.88 1019.62,1436.88 1020.65,1436.88 1021.68,1436.88 1022.71,1436.88 1023.74,1436.88 1024.77,1436.88 1025.8,1436.88 1026.82,1436.88 1027.85,1436.88 1028.88,1436.88 1029.91,1436.88 1030.94,1436.88 1031.97,1436.89 1033,1436.89 1034.02,1436.89 1035.05,1436.89 1036.08,1436.89 1037.11,1436.89 1038.14,1436.89 1039.17,1436.89 1040.2,1436.89 1041.23,1436.89 1042.25,1436.89 1043.28,1436.89 1044.31,1436.89 1045.34,1436.89 1046.37,1436.89 1047.4,1436.89 1048.43,1436.89 1049.45,1436.89 1050.48,1436.89 1051.51,1436.89 1052.54,1436.89 1053.57,1436.89 1054.6,1436.89 1055.63,1436.89 1056.66,1436.89 1057.68,1436.89 1058.71,1436.89 1059.74,1436.89 1060.77,1436.89 1061.8,1436.89 1062.83,1436.89 1063.86,1436.89 1064.88,1436.89 1065.91,1436.89 1066.94,1436.89 1067.97,1436.89 1069,1436.89 1070.03,1436.89 1071.06,1436.89 1072.08,1436.89 1073.11,1436.89 1074.14,1436.89 1075.17,1436.89 1076.2,1436.89 1077.23,1436.89 1078.26,1436.89 1079.29,1436.89 1080.31,1436.89 1081.34,1436.89 1082.37,1436.89 1083.4,1436.89 1084.43,1436.89 1085.46,1436.89 1086.49,1436.89 1087.51,1436.89 1088.54,1436.89 1089.57,1436.9 1090.6,1436.9 1091.63,1436.9 1092.66,1436.9 1093.69,1436.9 1094.72,1436.9 1095.74,1436.9 1096.77,1436.9 1097.8,1436.9 1098.83,1436.9 1099.86,1436.9 1100.89,1436.9 1101.92,1436.9 1102.94,1436.9 1103.97,1436.9 1105,1436.9 1106.03,1436.9 1107.06,1436.9 1108.09,1436.9 1109.12,1436.9 1110.14,1436.9 1111.17,1436.9 1112.2,1436.9 1113.23,1436.9 1114.26,1436.9 1115.29,1436.9 1116.32,1436.9 1117.35,1436.9 1118.37,1436.9 1119.4,1436.9 1120.43,1436.9 1121.46,1436.9 1122.49,1436.9 1123.52,1436.9 1124.55,1436.9 1125.57,1436.9 1126.6,1436.9 1127.63,1436.9 1128.66,1436.9 1129.69,1436.9 1130.72,1436.9 1131.75,1436.9 1132.78,1436.9 1133.8,1436.9 1134.83,1436.9 1135.86,1436.9 1136.89,1436.9 1137.92,1436.9 1138.95,1436.9 1139.98,1436.9 1141,1436.9 1142.03,1436.9 1143.06,1436.9 1144.09,1436.9 1145.12,1436.9 1146.15,1436.9 1147.18,1436.9 1148.21,1436.9 1149.23,1436.9 1150.26,1436.9 1151.29,1436.9 1152.32,1436.9 1153.35,1436.9 1154.38,1436.9 1155.41,1436.9 1156.43,1436.91 1157.46,1436.91 1158.49,1436.91 1159.52,1436.91 1160.55,1436.91 1161.58,1436.91 1162.61,1436.91 1163.63,1436.91 1164.66,1436.91 1165.69,1436.91 1166.72,1436.91 1167.75,1436.91 1168.78,1436.91 1169.81,1436.91 1170.84,1436.91 1171.86,1436.91 1172.89,1436.91 1173.92,1436.91 1174.95,1436.91 1175.98,1436.91 1177.01,1436.91 1178.04,1436.91 1179.06,1436.91 1180.09,1436.91 1181.12,1436.91 1182.15,1436.91 1183.18,1436.91 1184.21,1436.91 1185.24,1436.91 1186.27,1436.91 1187.29,1436.91 1188.32,1436.91 1189.35,1436.91 1190.38,1436.91 1191.41,1436.91 1192.44,1436.91 1193.47,1436.91 1194.49,1436.91 1195.52,1436.91 1196.55,1436.91 1197.58,1436.91 1198.61,1436.91 1199.64,1436.91 1200.67,1436.91 1201.69,1436.91 1202.72,1436.91 1203.75,1436.91 1204.78,1436.91 1205.81,1436.91 1206.84,1436.91 1207.87,1436.91 1208.9,1436.91 1209.92,1436.91 1210.95,1436.91 1211.98,1436.91 1213.01,1436.91 1214.04,1436.91 1215.07,1436.91 1216.1,1436.91 1217.12,1436.91 1218.15,1436.91 1219.18,1436.91 1220.21,1436.91 1221.24,1436.91 1222.27,1436.91 1223.3,1436.91 1224.33,1436.91 1225.35,1436.91 1226.38,1436.91 1227.41,1436.91 1228.44,1436.91 1229.47,1436.91 1230.5,1436.91 1231.53,1436.91 1232.55,1436.91 1233.58,1436.92 1234.61,1436.92 1235.64,1436.92 1236.67,1436.92 1237.7,1436.92 1238.73,1436.92 1239.76,1436.92 1240.78,1436.92 1241.81,1436.92 1242.84,1436.92 1243.87,1436.92 1244.9,1436.92 1245.93,1436.92 1246.96,1436.92 1247.98,1436.92 1249.01,1436.92 1250.04,1436.92 1251.07,1436.92 1252.1,1436.92 1253.13,1436.92 1254.16,1436.92 1255.18,1436.92 1256.21,1436.92 1257.24,1436.92 1258.27,1436.92 1259.3,1436.92 1260.33,1436.92 1261.36,1436.92 1262.39,1436.92 1263.41,1436.92 1264.44,1436.92 1265.47,1436.92 1266.5,1436.92 1267.53,1436.92 1268.56,1436.92 1269.59,1436.92 1270.61,1436.92 1271.64,1436.92 1272.67,1436.92 1273.7,1436.92 1274.73,1436.92 1275.76,1436.92 1276.79,1436.92 1277.82,1436.92 1278.84,1436.92 1279.87,1436.92 1280.9,1436.92 1281.93,1436.92 1282.96,1436.92 1283.99,1436.92 1285.02,1436.92 1286.04,1436.92 1287.07,1436.92 1288.1,1436.92 1289.13,1436.92 1290.16,1436.92 1291.19,1436.92 1292.22,1436.92 1293.24,1436.92 1294.27,1436.92 1295.3,1436.92 1296.33,1436.92 1297.36,1436.92 1298.39,1436.92 1299.42,1436.92 1300.45,1436.92 1301.47,1436.92 1302.5,1436.92 1303.53,1436.92 1304.56,1436.92 1305.59,1436.93 1306.62,1436.93 1307.65,1436.93 1308.67,1436.93 1309.7,1436.93 1310.73,1436.93 1311.76,1436.93 1312.79,1436.93 1313.82,1436.93 1314.85,1436.93 1315.88,1436.93 1316.9,1436.93 1317.93,1436.93 1318.96,1436.93 1319.99,1436.93 1321.02,1436.93 1322.05,1436.93 1323.08,1436.93 1324.1,1436.93 1325.13,1436.93 1326.16,1436.93 1327.19,1436.93 1328.22,1436.93 1329.25,1436.93 1330.28,1436.93 1331.31,1436.94 1332.33,1436.94 1333.36,1436.94 1334.39,1436.94 1335.42,1436.94 1336.45,1436.94 1337.48,1436.94 1338.51,1436.94 1339.53,1436.94 1340.56,1436.94 1341.59,1436.94 1342.62,1436.94 1343.65,1436.95 1344.68,1436.95 1345.71,1436.95 1346.73,1436.95 1347.76,1436.95 1348.79,1436.95 1349.82,1436.95 1350.85,1436.96 1351.88,1436.96 1352.91,1436.96 1353.94,1436.96 1354.96,1436.96 1355.99,1436.97 1357.02,1436.97 1358.05,1436.97 1359.08,1436.98 1360.11,1436.98 1361.14,1436.98 1362.16,1436.98 1363.19,1436.99 1364.22,1436.99 1365.25,1437 1366.28,1437 1367.31,1437 1368.34,1437.01 1369.37,1437.01 1370.39,1437.02 1371.42,1437.02 1372.45,1437.03 1373.48,1437.04 1374.51,1437.04 1375.54,1437.05 1376.57,1437.06 1377.59,1437.07 1378.62,1437.07 1379.65,1437.08 1380.68,1437.09 1381.71,1437.1 1382.74,1437.11 1383.77,1437.12 1384.79,1437.13 1385.82,1437.14 1386.85,1437.16 1387.88,1437.17 1388.91,1437.18 1389.94,1437.2 1390.97,1437.22 1392,1437.23 1393.02,1437.25 1394.05,1437.27 1395.08,1437.29 1396.11,1437.31 1397.14,1437.33 1398.17,1437.35 1399.2,1437.37 1400.22,1437.4 1401.25,1437.42 1402.28,1437.45 1403.31,1437.48 1404.34,1437.51 1405.37,1437.54 1406.4,1437.57 1407.43,1437.6 1408.45,1437.64 1409.48,1437.68 1410.51,1437.71 1411.54,1437.75 1412.57,1437.79 1413.6,1437.84 1414.63,1437.88 1415.65,1437.93 1416.68,1437.97 1417.71,1438.02 1418.74,1438.07 1419.77,1438.13 1420.8,1438.18 1421.83,1438.24 1422.85,1438.29 1423.88,1438.35 1424.91,1438.41 1425.94,1438.47 1426.97,1438.54 1428,1438.6 1429.03,1438.67 1430.06,1438.73 1431.08,1438.8 1432.11,1438.87 1433.14,1438.94 1434.17,1439.01 1435.2,1439.08 1436.23,1439.16 1437.26,1439.23 1438.28,1439.31 1439.31,1439.38 1440.34,1439.46 1441.37,1439.53 1442.4,1439.61 1443.43,1439.69 1444.46,1439.76 1445.49,1439.84 1446.51,1439.92 1447.54,1439.99 1448.57,1440.07 1449.6,1440.15 1450.63,1440.22 1451.66,1440.3 1452.69,1440.37 1453.71,1440.45 1454.74,1440.52 1455.77,1440.6 1456.8,1440.67 1457.83,1440.74 1458.86,1440.82 1459.89,1440.89 1460.92,1440.96 1461.94,1441.03 1462.97,1441.09 1464,1441.16 1465.03,1441.23 1466.06,1441.3 1467.09,1441.36 1468.12,1441.42 1469.14,1441.49 1470.17,1441.55 1471.2,1441.61 1472.23,1441.67 1473.26,1441.73 1474.29,1441.79 1475.32,1441.85 1476.34,1441.9 1477.37,1441.96 1478.4,1442.01 1479.43,1442.07 1480.46,1442.12 1481.49,1442.17 1482.52,1442.22 1483.55,1442.27 1484.57,1442.32 1485.6,1442.37 1486.63,1442.42 1487.66,1442.47 1488.69,1442.51 1489.72,1442.56 1490.75,1442.6 1491.77,1442.64 1492.8,1442.69 1493.83,1442.73 1494.86,1442.77 1495.89,1442.81 1496.92,1442.85 1497.95,1442.89 1498.98,1442.93 1500,1442.96 1501.03,1443 1502.06,1443.04 1503.09,1443.07 1504.12,1443.11 1505.15,1443.14 1506.18,1443.17 1507.2,1443.21 1508.23,1443.24 1509.26,1443.27 1510.29,1443.3 1511.32,1443.33 1512.35,1443.36 1513.38,1443.39 1514.4,1443.42 1515.43,1443.45 1516.46,1443.48 1517.49,1443.51 1518.52,1443.54 1519.55,1443.56 1520.58,1443.59 1521.61,1443.61 1522.63,1443.64 1523.66,1443.67 1524.69,1443.69 1525.72,1443.71 1526.75,1443.74 1527.78,1443.76 1528.81,1443.78 1529.83,1443.81 1530.86,1443.83 1531.89,1443.85 1532.92,1443.87 1533.95,1443.89 1534.98,1443.91 1536.01,1443.93 1537.04,1443.95 1538.06,1443.97 1539.09,1443.99 1540.12,1444.01 1541.15,1444.03 1542.18,1444.05 1543.21,1444.07 1544.24,1444.09 1545.26,1444.1 1546.29,1444.12 1547.32,1444.14 1548.35,1444.16 1549.38,1444.17 1550.41,1444.19 1551.44,1444.21 1552.47,1444.22 1553.49,1444.24 1554.52,1444.25 1555.55,1444.27 1556.58,1444.28 1557.61,1444.3 1558.64,1444.31 1559.67,1444.33 1560.69,1444.34 1561.72,1444.35 1562.75,1444.37 1563.78,1444.38 1564.81,1444.39 1565.84,1444.41 1566.87,1444.42 1567.89,1444.43 1568.92,1444.45 1569.95,1444.46 1570.98,1444.47 1572.01,1444.48 1573.04,1444.49 1574.07,1444.51 1575.1,1444.52 1576.12,1444.53 1577.15,1444.54 1578.18,1444.55 1579.21,1444.56 1580.24,1444.57 1581.27,1444.58 1582.3,1444.59 1583.32,1444.6 1584.35,1444.61 1585.38,1444.62 1586.41,1444.63 1587.44,1444.64 1588.47,1444.65 1589.5,1444.66 1590.53,1444.67 1591.55,1444.68 1592.58,1444.69 1593.61,1444.7 1594.64,1444.71 1595.67,1444.72 1596.7,1444.72 1597.73,1444.73 1598.75,1444.74 1599.78,1444.75 1600.81,1444.76 1601.84,1444.77 1602.87,1444.77 1603.9,1444.78 1604.93,1444.79 1605.95,1444.8 1606.98,1444.8 1608.01,1444.81 1609.04,1444.82 1610.07,1444.83 1611.1,1444.83 1612.13,1444.84 1613.16,1444.85 1614.18,1444.85 1615.21,1444.86 1616.24,1444.87 1617.27,1444.87 1618.3,1444.88 1619.33,1444.89 1620.36,1444.89 1621.38,1444.9 1622.41,1444.91 1623.44,1444.91 1624.47,1444.92 1625.5,1444.92 1626.53,1444.93 1627.56,1444.94 1628.59,1444.94 1629.61,1444.95 1630.64,1444.95 1631.67,1444.96 1632.7,1444.96 1633.73,1444.97 1634.76,1444.97 1635.79,1444.98 1636.81,1444.98 1637.84,1444.99 1638.87,1445 1639.9,1445 1640.93,1445.01 1641.96,1445.01 1642.99,1445.02 1644.02,1445.02 1645.04,1445.02 1646.07,1445.03 1647.1,1445.03 1648.13,1445.04 1649.16,1445.04 1650.19,1445.05 1651.22,1445.05 1652.24,1445.06 1653.27,1445.06 1654.3,1445.07 1655.33,1445.07 1656.36,1445.07 1657.39,1445.08 1658.42,1445.08 1659.44,1445.09 1660.47,1445.09 1661.5,1445.09 1662.53,1445.1 1663.56,1445.1 1664.59,1445.11 1665.62,1445.11 1666.65,1445.11 1667.67,1445.12 1668.7,1445.12 1669.73,1445.12 1670.76,1445.13 1671.79,1445.13 1672.82,1445.14 1673.85,1445.14 1674.87,1445.14 1675.9,1445.15 1676.93,1445.15 1677.96,1445.15 1678.99,1445.16 1680.02,1445.16 1681.05,1445.16 1682.08,1445.17 1683.1,1445.17 1684.13,1445.17 1685.16,1445.18 1686.19,1445.18 1687.22,1445.18 1688.25,1445.19 1689.28,1445.19 1690.3,1445.19 1691.33,1445.19 1692.36,1445.2 1693.39,1445.2 1694.42,1445.2 1695.45,1445.21 1696.48,1445.21 1697.5,1445.21 1698.53,1445.21 1699.56,1445.22 1700.59,1445.22 1701.62,1445.22 1702.65,1445.23 1703.68,1445.23 1704.71,1445.23 1705.73,1445.23 1706.76,1445.24 1707.79,1445.24 1708.82,1445.24 1709.85,1445.24 1710.88,1445.25 1711.91,1445.25 1712.93,1445.25 1713.96,1445.25 1714.99,1445.26 1716.02,1445.26 1717.05,1445.26 1718.08,1445.26 1719.11,1445.27 1720.14,1445.27 1721.16,1445.27 1722.19,1445.27 1723.22,1445.27 1724.25,1445.28 1725.28,1445.28 1726.31,1445.28 1727.34,1445.28 1728.36,1445.29 1729.39,1445.29 1730.42,1445.29 1731.45,1445.29 1732.48,1445.29 1733.51,1445.3 1734.54,1445.3 1735.57,1445.3 1736.59,1445.3 1737.62,1445.3 1738.65,1445.31 1739.68,1445.31 1740.71,1445.31 1741.74,1445.31 1742.77,1445.31 1743.79,1445.32 1744.82,1445.32 1745.85,1445.32 1746.88,1445.32 1747.91,1445.32 1748.94,1445.33 1749.97,1445.33 1750.99,1445.33 1752.02,1445.33 1753.05,1445.33 1754.08,1445.33 1755.11,1445.34 1756.14,1445.34 1757.17,1445.34 1758.2,1445.34 1759.22,1445.34 1760.25,1445.35 1761.28,1445.35 1762.31,1445.35 1763.34,1445.35 1764.37,1445.35 1765.4,1445.35 1766.42,1445.36 1767.45,1445.36 1768.48,1445.36 1769.51,1445.36 1770.54,1445.36 1771.57,1445.36 1772.6,1445.36 1773.63,1445.37 1774.65,1445.37 1775.68,1445.37 1776.71,1445.37 1777.74,1445.37 1778.77,1445.37 1779.8,1445.38 1780.83,1445.38 1781.85,1445.38 1782.88,1445.38 1783.91,1445.38 1784.94,1445.38 1785.97,1445.38 1787,1445.39 1788.03,1445.39 1789.05,1445.39 1790.08,1445.39 1791.11,1445.39 1792.14,1445.39 1793.17,1445.39 1794.2,1445.4 1795.23,1445.4 1796.26,1445.4 1797.28,1445.4 1798.31,1445.4 1799.34,1445.4 1800.37,1445.4 1801.4,1445.41 1802.43,1445.41 1803.46,1445.41 1804.48,1445.41 1805.51,1445.41 1806.54,1445.41 1807.57,1445.41 1808.6,1445.42 1809.63,1445.42 1810.66,1445.42 1811.69,1445.42 1812.71,1445.42 1813.74,1445.42 1814.77,1445.42 1815.8,1445.42 1816.83,1445.43 1817.86,1445.43 1818.89,1445.43 1819.91,1445.43 1820.94,1445.43 1821.97,1445.43 1823,1445.43 1824.03,1445.43 1825.06,1445.43 1826.09,1445.44 1827.12,1445.44 1828.14,1445.44 1829.17,1445.44 1830.2,1445.44 1831.23,1445.44 1832.26,1445.44 1833.29,1445.44 1834.32,1445.45 1835.34,1445.45 1836.37,1445.45 1837.4,1445.45 1838.43,1445.45 1839.46,1445.45 1840.49,1445.45 1841.52,1445.45 1842.54,1445.45 1843.57,1445.46 1844.6,1445.46 1845.63,1445.46 1846.66,1445.46 1847.69,1445.46 1848.72,1445.46 1849.75,1445.46 1850.77,1445.46 1851.8,1445.46 1852.83,1445.47 1853.86,1445.47 1854.89,1445.47 1855.92,1445.47 1856.95,1445.47 1857.97,1445.47 1859,1445.47 1860.03,1445.47 1861.06,1445.47 1862.09,1445.47 1863.12,1445.48 1864.15,1445.48 1865.18,1445.48 1866.2,1445.48 1867.23,1445.48 1868.26,1445.48 1869.29,1445.48 1870.32,1445.48 1871.35,1445.48 1872.38,1445.48 1873.4,1445.49 1874.43,1445.49 1875.46,1445.49 1876.49,1445.49 1877.52,1445.49 1878.55,1445.49 1879.58,1445.49 1880.6,1445.49 1881.63,1445.49 1882.66,1445.49 1883.69,1445.5 1884.72,1445.5 1885.75,1445.5 1886.78,1445.5 1887.81,1445.5 1888.83,1445.5 1889.86,1445.5 1890.89,1445.5 1891.92,1445.5 1892.95,1445.5 1893.98,1445.5 1895.01,1445.51 1896.03,1445.51 1897.06,1445.51 1898.09,1445.51 1899.12,1445.51 1900.15,1445.51 1901.18,1445.51 1902.21,1445.51 1903.24,1445.51 1904.26,1445.51 1905.29,1445.51 1906.32,1445.51 1907.35,1445.52 1908.38,1445.52 1909.41,1445.52 1910.44,1445.52 1911.46,1445.52 1912.49,1445.52 1913.52,1445.52 1914.55,1445.52 1915.58,1445.52 1916.61,1445.52 1917.64,1445.52 1918.66,1445.53 1919.69,1445.53 1920.72,1445.53 1921.75,1445.53 1922.78,1445.53 1923.81,1445.53 1924.84,1445.53 1925.87,1445.53 1926.89,1445.53 1927.92,1445.53 1928.95,1445.53 1929.98,1445.53 1931.01,1445.53 1932.04,1445.54 1933.07,1445.54 1934.09,1445.54 1935.12,1445.54 1936.15,1445.54 1937.18,1445.54 1938.21,1445.54 1939.24,1445.54 1940.27,1445.54 1941.3,1445.54 1942.32,1445.54 1943.35,1445.54 1944.38,1445.55 1945.41,1445.55 1946.44,1445.55 1947.47,1445.55 1948.5,1445.55 1949.52,1445.55 1950.55,1445.55 1951.58,1445.55 1952.61,1445.55 1953.64,1445.55 1954.67,1445.55 1955.7,1445.55 1956.73,1445.55 1957.75,1445.56 1958.78,1445.56 1959.81,1445.56 1960.84,1445.56 1961.87,1445.56 1962.9,1445.56 1963.93,1445.56 1964.95,1445.56 1965.98,1445.56 1967.01,1445.56 1968.04,1445.56 1969.07,1445.56 1970.1,1445.56 1971.13,1445.56 1972.15,1445.57 1973.18,1445.57 1974.21,1445.57 1975.24,1445.57 1976.27,1445.57 1977.3,1445.57 1978.33,1445.57 1979.36,1445.57 1980.38,1445.57 1981.41,1445.57 1982.44,1445.57 1983.47,1445.57 1984.5,1445.57 1985.53,1445.57 1986.56,1445.57 1987.58,1445.58 1988.61,1445.58 1989.64,1445.58 1990.67,1445.58 1991.7,1445.58 1992.73,1445.58 1993.76,1445.58 1994.79,1445.58 1995.81,1445.58 1996.84,1445.58 1997.87,1445.58 1998.9,1445.58 1999.93,1445.58 2000.96,1445.58 2001.99,1445.58 2003.01,1445.59 2004.04,1445.59 2005.07,1445.59 2006.1,1445.59 2007.13,1445.59 2008.16,1445.59 2009.19,1445.59 2010.21,1445.59 2011.24,1445.59 2012.27,1445.59 2013.3,1445.59 2014.33,1445.59 2015.36,1445.59 2016.39,1445.59 2017.42,1445.59 2018.44,1445.6 2019.47,1445.6 2020.5,1445.6 2021.53,1445.6 2022.56,1445.6 2023.59,1445.6 2024.62,1445.6 2025.64,1445.6 2026.67,1445.6 2027.7,1445.6 2028.73,1445.6 2029.76,1445.6 2030.79,1445.6 2031.82,1445.6 2032.85,1445.6 2033.87,1445.6 2034.9,1445.61 2035.93,1445.61 2036.96,1445.61 2037.99,1445.61 2039.02,1445.61 2040.05,1445.61 2041.07,1445.61 2042.1,1445.61 2043.13,1445.61 2044.16,1445.61 2045.19,1445.61 2046.22,1445.61 2047.25,1445.61 2048.28,1445.61 2049.3,1445.61 2050.33,1445.61 2051.36,1445.61 2052.39,1445.62 2053.42,1445.62 2054.45,1445.62 2055.48,1445.62 2056.5,1445.62 2057.53,1445.62 2058.56,1445.62 2059.59,1445.62 2060.62,1445.62 2061.65,1445.62 2062.68,1445.62 2063.7,1445.62 2064.73,1445.62 2065.76,1445.62 2066.79,1445.62 2067.82,1445.62 2068.85,1445.62 2069.88,1445.62 2070.91,1445.63 2071.93,1445.63 2072.96,1445.63 2073.99,1445.63 2075.02,1445.63 2076.05,1445.63 2077.08,1445.63 2078.11,1445.63 2079.13,1445.63 2080.16,1445.63 2081.19,1445.63 2082.22,1445.63 2083.25,1445.63 2084.28,1445.63 2085.31,1445.63 2086.34,1445.63 2087.36,1445.63 2088.39,1445.63 2089.42,1445.63 2090.45,1445.64 2091.48,1445.64 2092.51,1445.64 2093.54,1445.64 2094.56,1445.64 2095.59,1445.64 2096.62,1445.64 2097.65,1445.64 2098.68,1445.64 2099.71,1445.64 2100.74,1445.64 2101.76,1445.64 2102.79,1445.64 2103.82,1445.64 2104.85,1445.64 2105.88,1445.64 2106.91,1445.64 2107.94,1445.64 2108.97,1445.64 2109.99,1445.64 2111.02,1445.65 2112.05,1445.65 2113.08,1445.65 2114.11,1445.65 2115.14,1445.65 2116.17,1445.65 2117.19,1445.65 2118.22,1445.65 2119.25,1445.65 2120.28,1445.65 2121.31,1445.65 2122.34,1445.65 2123.37,1445.65 2124.4,1445.65 2125.42,1445.65 2126.45,1445.65 2127.48,1445.65 2128.51,1445.65 2129.54,1445.65 2130.57,1445.65 2131.6,1445.66 2132.62,1445.66 2133.65,1445.66 2134.68,1445.66 2135.71,1445.66 2136.74,1445.66 2137.77,1445.66 2138.8,1445.66 2139.83,1445.66 2140.85,1445.66 2141.88,1445.66 2142.91,1445.66 2143.94,1445.66 2144.97,1445.66 2146,1445.66 2147.03,1445.66 2148.05,1445.66 2149.08,1445.66 2150.11,1445.66 2151.14,1445.66 2152.17,1445.66 2153.2,1445.66 2154.23,1445.67 2155.25,1445.67 2156.28,1445.67 2157.31,1445.67 2158.34,1445.67 2159.37,1445.67 2160.4,1445.67 2161.43,1445.67 2162.46,1445.67 2163.48,1445.67 2164.51,1445.67 2165.54,1445.67 2166.57,1445.67 2167.6,1445.67 2168.63,1445.67 2169.66,1445.67 2170.68,1445.67 2171.71,1445.67 2172.74,1445.67 2173.77,1445.67 2174.8,1445.67 2175.83,1445.67 2176.86,1445.67 2177.89,1445.68 2178.91,1445.68 2179.94,1445.68 2180.97,1445.68 2182,1445.68 2183.03,1445.68 2184.06,1445.68 2185.09,1445.68 2186.11,1445.68 2187.14,1445.68 2188.17,1445.68 2189.2,1445.68 2190.23,1445.68 2191.26,1445.68 2192.29,1445.68 2193.31,1445.68 2194.34,1445.68 2195.37,1445.68 2196.4,1445.68 2197.43,1445.68 2198.46,1445.68 2199.49,1445.68 2200.52,1445.68 2201.54,1445.68 2202.57,1445.68 2203.6,1445.69 2204.63,1445.69 2205.66,1445.69 2206.69,1445.69 2207.72,1445.69 2208.74,1445.69 2209.77,1445.69 2210.8,1445.69 2211.83,1445.69 2212.86,1445.69 2213.89,1445.69 2214.92,1445.69 2215.95,1445.69 2216.97,1445.69 2218,1445.69 2219.03,1445.69 2220.06,1445.69 2221.09,1445.69 2222.12,1445.69 2223.15,1445.69 2224.17,1445.69 2225.2,1445.69 2226.23,1445.69 2227.26,1445.69 2228.29,1445.69 2229.32,1445.69 2230.35,1445.7 2231.38,1445.7 2232.4,1445.7 2233.43,1445.7 2234.46,1445.7 2235.49,1445.7 2236.52,1445.7 2237.55,1445.7 2238.58,1445.7 2239.6,1445.7 2240.63,1445.7 2241.66,1445.7 2242.69,1445.7 2243.72,1445.7 2244.75,1445.7 2245.78,1445.7 2246.8,1445.7 2247.83,1445.7 2248.86,1445.7 2249.89,1445.7 2250.92,1445.7 2251.95,1445.7 2252.98,1445.7 2254.01,1445.7 2255.03,1445.7 2256.06,1445.7 2257.09,1445.7 2258.12,1445.7 2259.15,1445.71 2260.18,1445.71 2261.21,1445.71 2262.23,1445.71 2263.26,1445.71 2264.29,1445.71 2265.32,1445.71 2266.35,1445.71 2267.38,1445.71 2268.41,1445.71 2269.44,1445.71 2270.46,1445.71 2271.49,1445.71 2272.52,1445.71 2273.55,1445.71 2274.58,1445.71 2275.61,1445.71 2276.64,1445.71 2277.66,1445.71 2278.69,1445.71 2279.72,1445.71 2280.75,1445.71 2281.78,1445.71 2282.81,1445.71 2283.84,1445.71 2284.86,1445.71 2285.89,1445.71 2286.92,1445.71 2287.95,1445.71 2288.98,1445.72 2290.01,1445.72 2291.04,1445.72 "/>
<path clip-path="url(#clip030)" d="M2009.56 198.898 L2280.06 198.898 L2280.06 95.2176 L2009.56 95.2176  Z" fill="#ffffff" fill-rule="evenodd" fill-opacity="1"/>
<polyline clip-path="url(#clip030)" style="stroke:#000000; stroke-linecap:round; stroke-linejoin:round; stroke-width:4; stroke-opacity:1; fill:none" points="2009.56,198.898 2280.06,198.898 2280.06,95.2176 2009.56,95.2176 2009.56,198.898 "/>
<polyline clip-path="url(#clip030)" style="stroke:#009af9; stroke-linecap:round; stroke-linejoin:round; stroke-width:4; stroke-opacity:1; fill:none" points="2033.79,147.058 2179.17,147.058 "/>
<path clip-path="url(#clip030)" d="M2217.25 166.745 Q2215.44 171.375 2213.73 172.787 Q2212.01 174.199 2209.14 174.199 L2205.74 174.199 L2205.74 170.634 L2208.24 170.634 Q2210 170.634 2210.97 169.8 Q2211.95 168.967 2213.13 165.865 L2213.89 163.921 L2203.4 138.412 L2207.92 138.412 L2216.02 158.689 L2224.12 138.412 L2228.64 138.412 L2217.25 166.745 Z" fill="#000000" fill-rule="nonzero" fill-opacity="1" /><path clip-path="url(#clip030)" d="M2235.93 160.402 L2243.57 160.402 L2243.57 134.037 L2235.26 135.703 L2235.26 131.444 L2243.52 129.778 L2248.2 129.778 L2248.2 160.402 L2255.83 160.402 L2255.83 164.338 L2235.93 164.338 L2235.93 160.402 Z" fill="#000000" fill-rule="nonzero" fill-opacity="1" /></svg>
