<?xml version="1.0" encoding="utf-8"?>
<svg xmlns="http://www.w3.org/2000/svg" xmlns:xlink="http://www.w3.org/1999/xlink" width="600" height="400" viewBox="0 0 2400 1600">
<defs>
  <clipPath id="clip080">
    <rect x="0" y="0" width="2400" height="1600"/>
  </clipPath>
</defs>
<path clip-path="url(#clip080)" d="M0 1600 L2400 1600 L2400 0 L0 0  Z" fill="#ffffff" fill-rule="evenodd" fill-opacity="1"/>
<defs>
  <clipPath id="clip081">
    <rect x="480" y="0" width="1681" height="1600"/>
  </clipPath>
</defs>
<path clip-path="url(#clip080)" d="M239.19 1486.45 L2352.76 1486.45 L2352.76 47.2441 L239.19 47.2441  Z" fill="#ffffff" fill-rule="evenodd" fill-opacity="1"/>
<defs>
  <clipPath id="clip082">
    <rect x="239" y="47" width="2115" height="1440"/>
  </clipPath>
</defs>
<polyline clip-path="url(#clip082)" style="stroke:#000000; stroke-linecap:round; stroke-linejoin:round; stroke-width:2; stroke-opacity:0.1; fill:none" points="299.008,1486.45 299.008,47.2441 "/>
<polyline clip-path="url(#clip082)" style="stroke:#000000; stroke-linecap:round; stroke-linejoin:round; stroke-width:2; stroke-opacity:0.1; fill:none" points="797.74,1486.45 797.74,47.2441 "/>
<polyline clip-path="url(#clip082)" style="stroke:#000000; stroke-linecap:round; stroke-linejoin:round; stroke-width:2; stroke-opacity:0.1; fill:none" points="1296.47,1486.45 1296.47,47.2441 "/>
<polyline clip-path="url(#clip082)" style="stroke:#000000; stroke-linecap:round; stroke-linejoin:round; stroke-width:2; stroke-opacity:0.1; fill:none" points="1795.2,1486.45 1795.2,47.2441 "/>
<polyline clip-path="url(#clip082)" style="stroke:#000000; stroke-linecap:round; stroke-linejoin:round; stroke-width:2; stroke-opacity:0.1; fill:none" points="2293.94,1486.45 2293.94,47.2441 "/>
<polyline clip-path="url(#clip080)" style="stroke:#000000; stroke-linecap:round; stroke-linejoin:round; stroke-width:4; stroke-opacity:1; fill:none" points="239.19,1486.45 2352.76,1486.45 "/>
<polyline clip-path="url(#clip080)" style="stroke:#000000; stroke-linecap:round; stroke-linejoin:round; stroke-width:4; stroke-opacity:1; fill:none" points="299.008,1486.45 299.008,1467.55 "/>
<polyline clip-path="url(#clip080)" style="stroke:#000000; stroke-linecap:round; stroke-linejoin:round; stroke-width:4; stroke-opacity:1; fill:none" points="797.74,1486.45 797.74,1467.55 "/>
<polyline clip-path="url(#clip080)" style="stroke:#000000; stroke-linecap:round; stroke-linejoin:round; stroke-width:4; stroke-opacity:1; fill:none" points="1296.47,1486.45 1296.47,1467.55 "/>
<polyline clip-path="url(#clip080)" style="stroke:#000000; stroke-linecap:round; stroke-linejoin:round; stroke-width:4; stroke-opacity:1; fill:none" points="1795.2,1486.45 1795.2,1467.55 "/>
<polyline clip-path="url(#clip080)" style="stroke:#000000; stroke-linecap:round; stroke-linejoin:round; stroke-width:4; stroke-opacity:1; fill:none" points="2293.94,1486.45 2293.94,1467.55 "/>
<path clip-path="url(#clip080)" d="M299.008 1517.37 Q295.397 1517.37 293.568 1520.93 Q291.763 1524.47 291.763 1531.6 Q291.763 1538.71 293.568 1542.27 Q295.397 1545.82 299.008 1545.82 Q302.643 1545.82 304.448 1542.27 Q306.277 1538.71 306.277 1531.6 Q306.277 1524.47 304.448 1520.93 Q302.643 1517.37 299.008 1517.37 M299.008 1513.66 Q304.818 1513.66 307.874 1518.27 Q310.953 1522.85 310.953 1531.6 Q310.953 1540.33 307.874 1544.94 Q304.818 1549.52 299.008 1549.52 Q293.198 1549.52 290.119 1544.94 Q287.064 1540.33 287.064 1531.6 Q287.064 1522.85 290.119 1518.27 Q293.198 1513.66 299.008 1513.66 Z" fill="#000000" fill-rule="nonzero" fill-opacity="1" /><path clip-path="url(#clip080)" d="M757.358 1514.29 L775.715 1514.29 L775.715 1518.22 L761.641 1518.22 L761.641 1526.7 Q762.659 1526.35 763.678 1526.19 Q764.696 1526 765.715 1526 Q771.502 1526 774.881 1529.17 Q778.261 1532.34 778.261 1537.76 Q778.261 1543.34 774.789 1546.44 Q771.317 1549.52 764.997 1549.52 Q762.821 1549.52 760.553 1549.15 Q758.307 1548.78 755.9 1548.04 L755.9 1543.34 Q757.983 1544.47 760.206 1545.03 Q762.428 1545.58 764.905 1545.58 Q768.909 1545.58 771.247 1543.48 Q773.585 1541.37 773.585 1537.76 Q773.585 1534.15 771.247 1532.04 Q768.909 1529.94 764.905 1529.94 Q763.03 1529.94 761.155 1530.35 Q759.303 1530.77 757.358 1531.65 L757.358 1514.29 Z" fill="#000000" fill-rule="nonzero" fill-opacity="1" /><path clip-path="url(#clip080)" d="M797.474 1517.37 Q793.863 1517.37 792.034 1520.93 Q790.229 1524.47 790.229 1531.6 Q790.229 1538.71 792.034 1542.27 Q793.863 1545.82 797.474 1545.82 Q801.108 1545.82 802.914 1542.27 Q804.742 1538.71 804.742 1531.6 Q804.742 1524.47 802.914 1520.93 Q801.108 1517.37 797.474 1517.37 M797.474 1513.66 Q803.284 1513.66 806.34 1518.27 Q809.418 1522.85 809.418 1531.6 Q809.418 1540.33 806.34 1544.94 Q803.284 1549.52 797.474 1549.52 Q791.664 1549.52 788.585 1544.94 Q785.529 1540.33 785.529 1531.6 Q785.529 1522.85 788.585 1518.27 Q791.664 1513.66 797.474 1513.66 Z" fill="#000000" fill-rule="nonzero" fill-opacity="1" /><path clip-path="url(#clip080)" d="M827.636 1517.37 Q824.025 1517.37 822.196 1520.93 Q820.39 1524.47 820.39 1531.6 Q820.39 1538.71 822.196 1542.27 Q824.025 1545.82 827.636 1545.82 Q831.27 1545.82 833.076 1542.27 Q834.904 1538.71 834.904 1531.6 Q834.904 1524.47 833.076 1520.93 Q831.27 1517.37 827.636 1517.37 M827.636 1513.66 Q833.446 1513.66 836.501 1518.27 Q839.58 1522.85 839.58 1531.6 Q839.58 1540.33 836.501 1544.94 Q833.446 1549.52 827.636 1549.52 Q821.826 1549.52 818.747 1544.94 Q815.691 1540.33 815.691 1531.6 Q815.691 1522.85 818.747 1518.27 Q821.826 1513.66 827.636 1513.66 Z" fill="#000000" fill-rule="nonzero" fill-opacity="1" /><path clip-path="url(#clip080)" d="M1241 1544.91 L1248.64 1544.91 L1248.64 1518.55 L1240.33 1520.21 L1240.33 1515.95 L1248.59 1514.29 L1253.27 1514.29 L1253.27 1544.91 L1260.9 1544.91 L1260.9 1548.85 L1241 1548.85 L1241 1544.91 Z" fill="#000000" fill-rule="nonzero" fill-opacity="1" /><path clip-path="url(#clip080)" d="M1280.35 1517.37 Q1276.74 1517.37 1274.91 1520.93 Q1273.1 1524.47 1273.1 1531.6 Q1273.1 1538.71 1274.91 1542.27 Q1276.74 1545.82 1280.35 1545.82 Q1283.98 1545.82 1285.79 1542.27 Q1287.62 1538.71 1287.62 1531.6 Q1287.62 1524.47 1285.79 1520.93 Q1283.98 1517.37 1280.35 1517.37 M1280.35 1513.66 Q1286.16 1513.66 1289.21 1518.27 Q1292.29 1522.85 1292.29 1531.6 Q1292.29 1540.33 1289.21 1544.94 Q1286.16 1549.52 1280.35 1549.52 Q1274.54 1549.52 1271.46 1544.94 Q1268.4 1540.33 1268.4 1531.6 Q1268.4 1522.85 1271.46 1518.27 Q1274.54 1513.66 1280.35 1513.66 Z" fill="#000000" fill-rule="nonzero" fill-opacity="1" /><path clip-path="url(#clip080)" d="M1310.51 1517.37 Q1306.9 1517.37 1305.07 1520.93 Q1303.27 1524.47 1303.27 1531.6 Q1303.27 1538.71 1305.07 1542.27 Q1306.9 1545.82 1310.51 1545.82 Q1314.15 1545.82 1315.95 1542.27 Q1317.78 1538.71 1317.78 1531.6 Q1317.78 1524.47 1315.95 1520.93 Q1314.15 1517.37 1310.51 1517.37 M1310.51 1513.66 Q1316.32 1513.66 1319.38 1518.27 Q1322.46 1522.85 1322.46 1531.6 Q1322.46 1540.33 1319.38 1544.94 Q1316.32 1549.52 1310.51 1549.52 Q1304.7 1549.52 1301.62 1544.94 Q1298.57 1540.33 1298.57 1531.6 Q1298.57 1522.85 1301.62 1518.27 Q1304.7 1513.66 1310.51 1513.66 Z" fill="#000000" fill-rule="nonzero" fill-opacity="1" /><path clip-path="url(#clip080)" d="M1340.67 1517.37 Q1337.06 1517.37 1335.23 1520.93 Q1333.43 1524.47 1333.43 1531.6 Q1333.43 1538.71 1335.23 1542.27 Q1337.06 1545.82 1340.67 1545.82 Q1344.31 1545.82 1346.11 1542.27 Q1347.94 1538.71 1347.94 1531.6 Q1347.94 1524.47 1346.11 1520.93 Q1344.31 1517.37 1340.67 1517.37 M1340.67 1513.66 Q1346.48 1513.66 1349.54 1518.27 Q1352.62 1522.85 1352.62 1531.6 Q1352.62 1540.33 1349.54 1544.94 Q1346.48 1549.52 1340.67 1549.52 Q1334.86 1549.52 1331.78 1544.94 Q1328.73 1540.33 1328.73 1531.6 Q1328.73 1522.85 1331.78 1518.27 Q1334.86 1513.66 1340.67 1513.66 Z" fill="#000000" fill-rule="nonzero" fill-opacity="1" /><path clip-path="url(#clip080)" d="M1739.73 1544.91 L1747.37 1544.91 L1747.37 1518.55 L1739.06 1520.21 L1739.06 1515.95 L1747.32 1514.29 L1752 1514.29 L1752 1544.91 L1759.64 1544.91 L1759.64 1548.85 L1739.73 1548.85 L1739.73 1544.91 Z" fill="#000000" fill-rule="nonzero" fill-opacity="1" /><path clip-path="url(#clip080)" d="M1769.13 1514.29 L1787.48 1514.29 L1787.48 1518.22 L1773.41 1518.22 L1773.41 1526.7 Q1774.43 1526.35 1775.45 1526.19 Q1776.47 1526 1777.48 1526 Q1783.27 1526 1786.65 1529.17 Q1790.03 1532.34 1790.03 1537.76 Q1790.03 1543.34 1786.56 1546.44 Q1783.09 1549.52 1776.77 1549.52 Q1774.59 1549.52 1772.32 1549.15 Q1770.08 1548.78 1767.67 1548.04 L1767.67 1543.34 Q1769.75 1544.47 1771.97 1545.03 Q1774.2 1545.58 1776.67 1545.58 Q1780.68 1545.58 1783.02 1543.48 Q1785.35 1541.37 1785.35 1537.76 Q1785.35 1534.15 1783.02 1532.04 Q1780.68 1529.94 1776.67 1529.94 Q1774.8 1529.94 1772.92 1530.35 Q1771.07 1530.77 1769.13 1531.65 L1769.13 1514.29 Z" fill="#000000" fill-rule="nonzero" fill-opacity="1" /><path clip-path="url(#clip080)" d="M1809.24 1517.37 Q1805.63 1517.37 1803.8 1520.93 Q1802 1524.47 1802 1531.6 Q1802 1538.71 1803.8 1542.27 Q1805.63 1545.82 1809.24 1545.82 Q1812.88 1545.82 1814.68 1542.27 Q1816.51 1538.71 1816.51 1531.6 Q1816.51 1524.47 1814.68 1520.93 Q1812.88 1517.37 1809.24 1517.37 M1809.24 1513.66 Q1815.05 1513.66 1818.11 1518.27 Q1821.19 1522.85 1821.19 1531.6 Q1821.19 1540.33 1818.11 1544.94 Q1815.05 1549.52 1809.24 1549.52 Q1803.43 1549.52 1800.35 1544.94 Q1797.3 1540.33 1797.3 1531.6 Q1797.3 1522.85 1800.35 1518.27 Q1803.43 1513.66 1809.24 1513.66 Z" fill="#000000" fill-rule="nonzero" fill-opacity="1" /><path clip-path="url(#clip080)" d="M1839.4 1517.37 Q1835.79 1517.37 1833.97 1520.93 Q1832.16 1524.47 1832.16 1531.6 Q1832.16 1538.71 1833.97 1542.27 Q1835.79 1545.82 1839.4 1545.82 Q1843.04 1545.82 1844.84 1542.27 Q1846.67 1538.71 1846.67 1531.6 Q1846.67 1524.47 1844.84 1520.93 Q1843.04 1517.37 1839.4 1517.37 M1839.4 1513.66 Q1845.21 1513.66 1848.27 1518.27 Q1851.35 1522.85 1851.35 1531.6 Q1851.35 1540.33 1848.27 1544.94 Q1845.21 1549.52 1839.4 1549.52 Q1833.59 1549.52 1830.52 1544.94 Q1827.46 1540.33 1827.46 1531.6 Q1827.46 1522.85 1830.52 1518.27 Q1833.59 1513.66 1839.4 1513.66 Z" fill="#000000" fill-rule="nonzero" fill-opacity="1" /><path clip-path="url(#clip080)" d="M2242.55 1544.91 L2258.87 1544.91 L2258.87 1548.85 L2236.92 1548.85 L2236.92 1544.91 Q2239.58 1542.16 2244.17 1537.53 Q2248.77 1532.88 2249.95 1531.53 Q2252.2 1529.01 2253.08 1527.27 Q2253.98 1525.51 2253.98 1523.82 Q2253.98 1521.07 2252.04 1519.33 Q2250.12 1517.6 2247.01 1517.6 Q2244.82 1517.6 2242.36 1518.36 Q2239.93 1519.13 2237.15 1520.68 L2237.15 1515.95 Q2239.98 1514.82 2242.43 1514.24 Q2244.88 1513.66 2246.92 1513.66 Q2252.29 1513.66 2255.49 1516.35 Q2258.68 1519.03 2258.68 1523.52 Q2258.68 1525.65 2257.87 1527.57 Q2257.08 1529.47 2254.98 1532.07 Q2254.4 1532.74 2251.3 1535.95 Q2248.19 1539.15 2242.55 1544.91 Z" fill="#000000" fill-rule="nonzero" fill-opacity="1" /><path clip-path="url(#clip080)" d="M2278.68 1517.37 Q2275.07 1517.37 2273.24 1520.93 Q2271.44 1524.47 2271.44 1531.6 Q2271.44 1538.71 2273.24 1542.27 Q2275.07 1545.82 2278.68 1545.82 Q2282.32 1545.82 2284.12 1542.27 Q2285.95 1538.71 2285.95 1531.6 Q2285.95 1524.47 2284.12 1520.93 Q2282.32 1517.37 2278.68 1517.37 M2278.68 1513.66 Q2284.49 1513.66 2287.55 1518.27 Q2290.63 1522.85 2290.63 1531.6 Q2290.63 1540.33 2287.55 1544.94 Q2284.49 1549.52 2278.68 1549.52 Q2272.87 1549.52 2269.79 1544.94 Q2266.74 1540.33 2266.74 1531.6 Q2266.74 1522.85 2269.79 1518.27 Q2272.87 1513.66 2278.68 1513.66 Z" fill="#000000" fill-rule="nonzero" fill-opacity="1" /><path clip-path="url(#clip080)" d="M2308.84 1517.37 Q2305.23 1517.37 2303.4 1520.93 Q2301.6 1524.47 2301.6 1531.6 Q2301.6 1538.71 2303.4 1542.27 Q2305.23 1545.82 2308.84 1545.82 Q2312.48 1545.82 2314.28 1542.27 Q2316.11 1538.71 2316.11 1531.6 Q2316.11 1524.47 2314.28 1520.93 Q2312.48 1517.37 2308.84 1517.37 M2308.84 1513.66 Q2314.65 1513.66 2317.71 1518.27 Q2320.79 1522.85 2320.79 1531.6 Q2320.79 1540.33 2317.71 1544.94 Q2314.65 1549.52 2308.84 1549.52 Q2303.03 1549.52 2299.95 1544.94 Q2296.9 1540.33 2296.9 1531.6 Q2296.9 1522.85 2299.95 1518.27 Q2303.03 1513.66 2308.84 1513.66 Z" fill="#000000" fill-rule="nonzero" fill-opacity="1" /><path clip-path="url(#clip080)" d="M2339 1517.37 Q2335.39 1517.37 2333.56 1520.93 Q2331.76 1524.47 2331.76 1531.6 Q2331.76 1538.71 2333.56 1542.27 Q2335.39 1545.82 2339 1545.82 Q2342.64 1545.82 2344.44 1542.27 Q2346.27 1538.71 2346.27 1531.6 Q2346.27 1524.47 2344.44 1520.93 Q2342.64 1517.37 2339 1517.37 M2339 1513.66 Q2344.81 1513.66 2347.87 1518.27 Q2350.95 1522.85 2350.95 1531.6 Q2350.95 1540.33 2347.87 1544.94 Q2344.81 1549.52 2339 1549.52 Q2333.19 1549.52 2330.12 1544.94 Q2327.06 1540.33 2327.06 1531.6 Q2327.06 1522.85 2330.12 1518.27 Q2333.19 1513.66 2339 1513.66 Z" fill="#000000" fill-rule="nonzero" fill-opacity="1" /><polyline clip-path="url(#clip082)" style="stroke:#000000; stroke-linecap:round; stroke-linejoin:round; stroke-width:2; stroke-opacity:0.1; fill:none" points="239.19,1324.5 2352.76,1324.5 "/>
<polyline clip-path="url(#clip082)" style="stroke:#000000; stroke-linecap:round; stroke-linejoin:round; stroke-width:2; stroke-opacity:0.1; fill:none" points="239.19,1034.3 2352.76,1034.3 "/>
<polyline clip-path="url(#clip082)" style="stroke:#000000; stroke-linecap:round; stroke-linejoin:round; stroke-width:2; stroke-opacity:0.1; fill:none" points="239.19,744.111 2352.76,744.111 "/>
<polyline clip-path="url(#clip082)" style="stroke:#000000; stroke-linecap:round; stroke-linejoin:round; stroke-width:2; stroke-opacity:0.1; fill:none" points="239.19,453.919 2352.76,453.919 "/>
<polyline clip-path="url(#clip082)" style="stroke:#000000; stroke-linecap:round; stroke-linejoin:round; stroke-width:2; stroke-opacity:0.1; fill:none" points="239.19,163.727 2352.76,163.727 "/>
<polyline clip-path="url(#clip080)" style="stroke:#000000; stroke-linecap:round; stroke-linejoin:round; stroke-width:4; stroke-opacity:1; fill:none" points="239.19,1486.45 239.19,47.2441 "/>
<polyline clip-path="url(#clip080)" style="stroke:#000000; stroke-linecap:round; stroke-linejoin:round; stroke-width:4; stroke-opacity:1; fill:none" points="239.19,1324.5 258.088,1324.5 "/>
<polyline clip-path="url(#clip080)" style="stroke:#000000; stroke-linecap:round; stroke-linejoin:round; stroke-width:4; stroke-opacity:1; fill:none" points="239.19,1034.3 258.088,1034.3 "/>
<polyline clip-path="url(#clip080)" style="stroke:#000000; stroke-linecap:round; stroke-linejoin:round; stroke-width:4; stroke-opacity:1; fill:none" points="239.19,744.111 258.088,744.111 "/>
<polyline clip-path="url(#clip080)" style="stroke:#000000; stroke-linecap:round; stroke-linejoin:round; stroke-width:4; stroke-opacity:1; fill:none" points="239.19,453.919 258.088,453.919 "/>
<polyline clip-path="url(#clip080)" style="stroke:#000000; stroke-linecap:round; stroke-linejoin:round; stroke-width:4; stroke-opacity:1; fill:none" points="239.19,163.727 258.088,163.727 "/>
<path clip-path="url(#clip080)" d="M50.9921 1324.95 L80.6679 1324.95 L80.6679 1328.88 L50.9921 1328.88 L50.9921 1324.95 Z" fill="#000000" fill-rule="nonzero" fill-opacity="1" /><path clip-path="url(#clip080)" d="M91.5706 1337.84 L99.2095 1337.84 L99.2095 1311.47 L90.8993 1313.14 L90.8993 1308.88 L99.1632 1307.22 L103.839 1307.22 L103.839 1337.84 L111.478 1337.84 L111.478 1341.78 L91.5706 1341.78 L91.5706 1337.84 Z" fill="#000000" fill-rule="nonzero" fill-opacity="1" /><path clip-path="url(#clip080)" d="M121.732 1337.84 L129.371 1337.84 L129.371 1311.47 L121.061 1313.14 L121.061 1308.88 L129.325 1307.22 L134.001 1307.22 L134.001 1337.84 L141.64 1337.84 L141.64 1341.78 L121.732 1341.78 L121.732 1337.84 Z" fill="#000000" fill-rule="nonzero" fill-opacity="1" /><path clip-path="url(#clip080)" d="M161.084 1310.29 Q157.473 1310.29 155.644 1313.86 Q153.839 1317.4 153.839 1324.53 Q153.839 1331.64 155.644 1335.2 Q157.473 1338.74 161.084 1338.74 Q164.718 1338.74 166.524 1335.2 Q168.353 1331.64 168.353 1324.53 Q168.353 1317.4 166.524 1313.86 Q164.718 1310.29 161.084 1310.29 M161.084 1306.59 Q166.894 1306.59 169.95 1311.2 Q173.029 1315.78 173.029 1324.53 Q173.029 1333.26 169.95 1337.86 Q166.894 1342.45 161.084 1342.45 Q155.274 1342.45 152.195 1337.86 Q149.14 1333.26 149.14 1324.53 Q149.14 1315.78 152.195 1311.2 Q155.274 1306.59 161.084 1306.59 Z" fill="#000000" fill-rule="nonzero" fill-opacity="1" /><path clip-path="url(#clip080)" d="M191.246 1310.29 Q187.635 1310.29 185.806 1313.86 Q184.001 1317.4 184.001 1324.53 Q184.001 1331.64 185.806 1335.2 Q187.635 1338.74 191.246 1338.74 Q194.88 1338.74 196.686 1335.2 Q198.514 1331.64 198.514 1324.53 Q198.514 1317.4 196.686 1313.86 Q194.88 1310.29 191.246 1310.29 M191.246 1306.59 Q197.056 1306.59 200.112 1311.2 Q203.19 1315.78 203.19 1324.53 Q203.19 1333.26 200.112 1337.86 Q197.056 1342.45 191.246 1342.45 Q185.436 1342.45 182.357 1337.86 Q179.302 1333.26 179.302 1324.53 Q179.302 1315.78 182.357 1311.2 Q185.436 1306.59 191.246 1306.59 Z" fill="#000000" fill-rule="nonzero" fill-opacity="1" /><path clip-path="url(#clip080)" d="M50.9921 1034.75 L80.6679 1034.75 L80.6679 1038.69 L50.9921 1038.69 L50.9921 1034.75 Z" fill="#000000" fill-rule="nonzero" fill-opacity="1" /><path clip-path="url(#clip080)" d="M91.5706 1047.65 L99.2095 1047.65 L99.2095 1021.28 L90.8993 1022.95 L90.8993 1018.69 L99.1632 1017.02 L103.839 1017.02 L103.839 1047.65 L111.478 1047.65 L111.478 1051.58 L91.5706 1051.58 L91.5706 1047.65 Z" fill="#000000" fill-rule="nonzero" fill-opacity="1" /><path clip-path="url(#clip080)" d="M130.922 1020.1 Q127.311 1020.1 125.482 1023.67 Q123.677 1027.21 123.677 1034.34 Q123.677 1041.44 125.482 1045.01 Q127.311 1048.55 130.922 1048.55 Q134.556 1048.55 136.362 1045.01 Q138.191 1041.44 138.191 1034.34 Q138.191 1027.21 136.362 1023.67 Q134.556 1020.1 130.922 1020.1 M130.922 1016.4 Q136.732 1016.4 139.788 1021 Q142.867 1025.59 142.867 1034.34 Q142.867 1043.06 139.788 1047.67 Q136.732 1052.25 130.922 1052.25 Q125.112 1052.25 122.033 1047.67 Q118.978 1043.06 118.978 1034.34 Q118.978 1025.59 122.033 1021 Q125.112 1016.4 130.922 1016.4 Z" fill="#000000" fill-rule="nonzero" fill-opacity="1" /><path clip-path="url(#clip080)" d="M161.084 1020.1 Q157.473 1020.1 155.644 1023.67 Q153.839 1027.21 153.839 1034.34 Q153.839 1041.44 155.644 1045.01 Q157.473 1048.55 161.084 1048.55 Q164.718 1048.55 166.524 1045.01 Q168.353 1041.44 168.353 1034.34 Q168.353 1027.21 166.524 1023.67 Q164.718 1020.1 161.084 1020.1 M161.084 1016.4 Q166.894 1016.4 169.95 1021 Q173.029 1025.59 173.029 1034.34 Q173.029 1043.06 169.95 1047.67 Q166.894 1052.25 161.084 1052.25 Q155.274 1052.25 152.195 1047.67 Q149.14 1043.06 149.14 1034.34 Q149.14 1025.59 152.195 1021 Q155.274 1016.4 161.084 1016.4 Z" fill="#000000" fill-rule="nonzero" fill-opacity="1" /><path clip-path="url(#clip080)" d="M191.246 1020.1 Q187.635 1020.1 185.806 1023.67 Q184.001 1027.21 184.001 1034.34 Q184.001 1041.44 185.806 1045.01 Q187.635 1048.55 191.246 1048.55 Q194.88 1048.55 196.686 1045.01 Q198.514 1041.44 198.514 1034.34 Q198.514 1027.21 196.686 1023.67 Q194.88 1020.1 191.246 1020.1 M191.246 1016.4 Q197.056 1016.4 200.112 1021 Q203.19 1025.59 203.19 1034.34 Q203.19 1043.06 200.112 1047.67 Q197.056 1052.25 191.246 1052.25 Q185.436 1052.25 182.357 1047.67 Q179.302 1043.06 179.302 1034.34 Q179.302 1025.59 182.357 1021 Q185.436 1016.4 191.246 1016.4 Z" fill="#000000" fill-rule="nonzero" fill-opacity="1" /><path clip-path="url(#clip080)" d="M81.154 744.562 L110.83 744.562 L110.83 748.497 L81.154 748.497 L81.154 744.562 Z" fill="#000000" fill-rule="nonzero" fill-opacity="1" /><path clip-path="url(#clip080)" d="M121.061 760.673 L121.061 756.414 Q122.82 757.247 124.626 757.687 Q126.432 758.127 128.168 758.127 Q132.797 758.127 135.228 755.025 Q137.681 751.9 138.029 745.558 Q136.686 747.548 134.626 748.613 Q132.566 749.678 130.066 749.678 Q124.881 749.678 121.848 746.553 Q118.839 743.405 118.839 737.965 Q118.839 732.641 121.987 729.424 Q125.135 726.206 130.367 726.206 Q136.362 726.206 139.51 730.812 Q142.681 735.396 142.681 744.146 Q142.681 752.317 138.793 757.201 Q134.927 762.062 128.376 762.062 Q126.617 762.062 124.811 761.715 Q123.006 761.368 121.061 760.673 M130.367 746.021 Q133.515 746.021 135.344 743.868 Q137.195 741.715 137.195 737.965 Q137.195 734.238 135.344 732.086 Q133.515 729.91 130.367 729.91 Q127.219 729.91 125.367 732.086 Q123.538 734.238 123.538 737.965 Q123.538 741.715 125.367 743.868 Q127.219 746.021 130.367 746.021 Z" fill="#000000" fill-rule="nonzero" fill-opacity="1" /><path clip-path="url(#clip080)" d="M161.084 729.91 Q157.473 729.91 155.644 733.474 Q153.839 737.016 153.839 744.146 Q153.839 751.252 155.644 754.817 Q157.473 758.359 161.084 758.359 Q164.718 758.359 166.524 754.817 Q168.353 751.252 168.353 744.146 Q168.353 737.016 166.524 733.474 Q164.718 729.91 161.084 729.91 M161.084 726.206 Q166.894 726.206 169.95 730.812 Q173.029 735.396 173.029 744.146 Q173.029 752.872 169.95 757.479 Q166.894 762.062 161.084 762.062 Q155.274 762.062 152.195 757.479 Q149.14 752.872 149.14 744.146 Q149.14 735.396 152.195 730.812 Q155.274 726.206 161.084 726.206 Z" fill="#000000" fill-rule="nonzero" fill-opacity="1" /><path clip-path="url(#clip080)" d="M191.246 729.91 Q187.635 729.91 185.806 733.474 Q184.001 737.016 184.001 744.146 Q184.001 751.252 185.806 754.817 Q187.635 758.359 191.246 758.359 Q194.88 758.359 196.686 754.817 Q198.514 751.252 198.514 744.146 Q198.514 737.016 196.686 733.474 Q194.88 729.91 191.246 729.91 M191.246 726.206 Q197.056 726.206 200.112 730.812 Q203.19 735.396 203.19 744.146 Q203.19 752.872 200.112 757.479 Q197.056 762.062 191.246 762.062 Q185.436 762.062 182.357 757.479 Q179.302 752.872 179.302 744.146 Q179.302 735.396 182.357 730.812 Q185.436 726.206 191.246 726.206 Z" fill="#000000" fill-rule="nonzero" fill-opacity="1" /><path clip-path="url(#clip080)" d="M81.154 454.37 L110.83 454.37 L110.83 458.305 L81.154 458.305 L81.154 454.37 Z" fill="#000000" fill-rule="nonzero" fill-opacity="1" /><path clip-path="url(#clip080)" d="M130.922 454.787 Q127.589 454.787 125.668 456.569 Q123.77 458.352 123.77 461.477 Q123.77 464.602 125.668 466.384 Q127.589 468.166 130.922 468.166 Q134.256 468.166 136.177 466.384 Q138.098 464.579 138.098 461.477 Q138.098 458.352 136.177 456.569 Q134.279 454.787 130.922 454.787 M126.246 452.796 Q123.237 452.055 121.547 449.995 Q119.881 447.935 119.881 444.972 Q119.881 440.829 122.82 438.421 Q125.783 436.014 130.922 436.014 Q136.084 436.014 139.024 438.421 Q141.964 440.829 141.964 444.972 Q141.964 447.935 140.274 449.995 Q138.607 452.055 135.621 452.796 Q139.001 453.583 140.876 455.875 Q142.774 458.167 142.774 461.477 Q142.774 466.5 139.695 469.185 Q136.64 471.87 130.922 471.87 Q125.205 471.87 122.126 469.185 Q119.07 466.5 119.07 461.477 Q119.07 458.167 120.969 455.875 Q122.867 453.583 126.246 452.796 M124.533 445.412 Q124.533 448.097 126.2 449.602 Q127.89 451.106 130.922 451.106 Q133.931 451.106 135.621 449.602 Q137.334 448.097 137.334 445.412 Q137.334 442.727 135.621 441.222 Q133.931 439.718 130.922 439.718 Q127.89 439.718 126.2 441.222 Q124.533 442.727 124.533 445.412 Z" fill="#000000" fill-rule="nonzero" fill-opacity="1" /><path clip-path="url(#clip080)" d="M161.084 439.718 Q157.473 439.718 155.644 443.282 Q153.839 446.824 153.839 453.954 Q153.839 461.06 155.644 464.625 Q157.473 468.166 161.084 468.166 Q164.718 468.166 166.524 464.625 Q168.353 461.06 168.353 453.954 Q168.353 446.824 166.524 443.282 Q164.718 439.718 161.084 439.718 M161.084 436.014 Q166.894 436.014 169.95 440.62 Q173.029 445.204 173.029 453.954 Q173.029 462.68 169.95 467.287 Q166.894 471.87 161.084 471.87 Q155.274 471.87 152.195 467.287 Q149.14 462.68 149.14 453.954 Q149.14 445.204 152.195 440.62 Q155.274 436.014 161.084 436.014 Z" fill="#000000" fill-rule="nonzero" fill-opacity="1" /><path clip-path="url(#clip080)" d="M191.246 439.718 Q187.635 439.718 185.806 443.282 Q184.001 446.824 184.001 453.954 Q184.001 461.06 185.806 464.625 Q187.635 468.166 191.246 468.166 Q194.88 468.166 196.686 464.625 Q198.514 461.06 198.514 453.954 Q198.514 446.824 196.686 443.282 Q194.88 439.718 191.246 439.718 M191.246 436.014 Q197.056 436.014 200.112 440.62 Q203.19 445.204 203.19 453.954 Q203.19 462.68 200.112 467.287 Q197.056 471.87 191.246 471.87 Q185.436 471.87 182.357 467.287 Q179.302 462.68 179.302 453.954 Q179.302 445.204 182.357 440.62 Q185.436 436.014 191.246 436.014 Z" fill="#000000" fill-rule="nonzero" fill-opacity="1" /><path clip-path="url(#clip080)" d="M81.154 164.178 L110.83 164.178 L110.83 168.113 L81.154 168.113 L81.154 164.178 Z" fill="#000000" fill-rule="nonzero" fill-opacity="1" /><path clip-path="url(#clip080)" d="M119.742 146.447 L141.964 146.447 L141.964 148.438 L129.418 181.007 L124.533 181.007 L136.339 150.382 L119.742 150.382 L119.742 146.447 Z" fill="#000000" fill-rule="nonzero" fill-opacity="1" /><path clip-path="url(#clip080)" d="M161.084 149.526 Q157.473 149.526 155.644 153.09 Q153.839 156.632 153.839 163.762 Q153.839 170.868 155.644 174.433 Q157.473 177.974 161.084 177.974 Q164.718 177.974 166.524 174.433 Q168.353 170.868 168.353 163.762 Q168.353 156.632 166.524 153.09 Q164.718 149.526 161.084 149.526 M161.084 145.822 Q166.894 145.822 169.95 150.428 Q173.029 155.012 173.029 163.762 Q173.029 172.488 169.95 177.095 Q166.894 181.678 161.084 181.678 Q155.274 181.678 152.195 177.095 Q149.14 172.488 149.14 163.762 Q149.14 155.012 152.195 150.428 Q155.274 145.822 161.084 145.822 Z" fill="#000000" fill-rule="nonzero" fill-opacity="1" /><path clip-path="url(#clip080)" d="M191.246 149.526 Q187.635 149.526 185.806 153.09 Q184.001 156.632 184.001 163.762 Q184.001 170.868 185.806 174.433 Q187.635 177.974 191.246 177.974 Q194.88 177.974 196.686 174.433 Q198.514 170.868 198.514 163.762 Q198.514 156.632 196.686 153.09 Q194.88 149.526 191.246 149.526 M191.246 145.822 Q197.056 145.822 200.112 150.428 Q203.19 155.012 203.19 163.762 Q203.19 172.488 200.112 177.095 Q197.056 181.678 191.246 181.678 Q185.436 181.678 182.357 177.095 Q179.302 172.488 179.302 163.762 Q179.302 155.012 182.357 150.428 Q185.436 145.822 191.246 145.822 Z" fill="#000000" fill-rule="nonzero" fill-opacity="1" /><polyline clip-path="url(#clip082)" style="stroke:#009af9; stroke-linecap:round; stroke-linejoin:round; stroke-width:4; stroke-opacity:1; fill:none" points="299.008,93.554 300.006,87.9763 301.003,213.749 302.001,211.231 302.998,258.046 303.996,256.341 304.993,277.816 305.991,277.098 306.988,294.069 307.985,293.452 308.983,278.506 309.98,277.414 310.978,388.178 311.975,387.085 312.973,286.329 313.97,285.304 314.968,244.508 315.965,240.572 316.963,382.065 317.96,380.537 318.958,499.081 319.955,499.053 320.952,356.908 321.95,354.933 322.947,486.888 323.945,485.44 324.942,267.601 325.94,264.665 326.937,358.922 327.935,356.311 328.932,540.556 329.93,541.023 330.927,721.539 331.925,722.13 332.922,553.204 333.92,552.311 334.917,387.737 335.914,383.896 336.912,633.923 337.909,633.128 338.907,495.759 339.904,494.505 340.902,538.718 341.899,536.537 342.897,542.145 343.894,541.212 344.892,682.872 345.889,682.034 346.887,624.179 347.884,623.581 348.881,634.926 349.879,633.693 350.876,758.282 351.874,756.568 352.871,575.037 353.869,574.037 354.866,628.507 355.864,625.127 356.861,782.506 357.859,782.341 358.856,840.079 359.854,839.243 360.851,579.126 361.848,577.314 362.846,861.318 363.843,861.092 364.841,720.572 365.838,719.178 366.836,685.347 367.833,684.397 368.831,740.857 369.828,739.128 370.826,772.001 371.823,770.562 372.821,793.374 373.818,790.24 374.816,692.755 375.813,690.784 376.81,872.512 377.808,870.488 378.805,839.832 379.803,837.842 380.8,687.439 381.798,683.25 382.795,660.645 383.793,657.972 384.79,779.103 385.788,777.152 386.785,805.897 387.783,803.616 388.78,780.036 389.777,777.712 390.775,917.768 391.772,916.239 392.77,874.944 393.767,873 394.765,973.203 395.762,971.603 396.76,725.251 397.757,721.952 398.755,942.854 399.752,941.457 400.75,986.82 401.747,985.106 402.744,927.034 403.742,924.821 404.739,800.667 405.737,797.99 406.734,1017.45 407.732,1015.86 408.729,791.917 409.727,788.499 410.724,1002.92 411.722,1000.8 412.719,838.953 413.717,836.056 414.714,1043.76 415.712,1041.81 416.709,969.453 417.706,966.107 418.704,1099.46 419.701,1097.03 420.699,1029.86 421.696,1026.96 422.694,950.388 423.691,946.616 424.689,1048.58 425.686,1044.36 426.684,1043.67 427.681,1040.58 428.679,1077.67 429.676,1074.77 430.673,965.022 431.671,961.555 432.668,1060.26 433.666,1057.95 434.663,1039.95 435.661,1037.3 436.658,1020.63 437.656,1017.93 438.653,1088.58 439.651,1085.28 440.648,1115.38 441.646,1112.07 442.643,1043.16 443.64,1040.35 444.638,1041.49 445.635,1037.6 446.633,1052.63 447.63,1049.16 448.628,1128.9 449.625,1125.54 450.623,1157.49 451.62,1154.71 452.618,1094.76 453.615,1091.61 454.613,1089.13 455.61,1084.67 456.608,1164.29 457.605,1160.22 458.602,1109.74 459.6,1106.48 460.597,1081.11 461.595,1078.02 462.592,992.277 463.59,989.226 464.587,1226.88 465.585,1224.37 466.582,1156.48 467.58,1153.1 468.577,1267.63 469.575,1264.79 470.572,1122.68 471.569,1120.01 472.567,1081.78 473.564,1078.5 474.562,1295.89 475.559,1293.01 476.557,1258.88 477.554,1256.94 478.552,1138.88 479.549,1135.95 480.547,1169.27 481.544,1166.35 482.542,1284.3 483.539,1281.6 484.537,1141.71 485.534,1138.17 486.531,1170.82 487.529,1168.3 488.526,1147.93 489.524,1145.61 490.521,1241.77 491.519,1238.77 492.516,1285.63 493.514,1282.14 494.511,1173.48 495.509,1170.74 496.506,1200.6 497.504,1197.71 498.501,1264.69 499.498,1261.85 500.496,1224.64 501.493,1222.02 502.491,1198.52 503.488,1195.45 504.486,1153.11 505.483,1149.13 506.481,1274.11 507.478,1270.89 508.476,1227.72 509.473,1224.6 510.471,1195.72 511.468,1191.86 512.465,1231.01 513.463,1228.42 514.46,1162.66 515.458,1159.79 516.455,1186.24 517.453,1183.33 518.45,1074.1 519.448,1070.76 520.445,1318.87 521.443,1316.74 522.44,1098.64 523.438,1096 524.435,1228.93 525.433,1226.21 526.43,1262.25 527.427,1259.75 528.425,1247.56 529.422,1245.13 530.42,1283.94 531.417,1281.29 532.415,1341.15 533.412,1338.56 534.41,1286.8 535.407,1283.28 536.405,1324.39 537.402,1321.41 538.4,1225.16 539.397,1222.52 540.394,1269.61 541.392,1267.21 542.389,1265.03 543.387,1262.76 544.384,1249.8 545.382,1247.82 546.379,1340.72 547.377,1338.4 548.374,1328.13 549.372,1326.34 550.369,1274.21 551.367,1271.79 552.364,1259.12 553.361,1256.81 554.359,1358.92 555.356,1357.03 556.354,1323.99 557.351,1321.22 558.349,1309.11 559.346,1305.89 560.344,1335.86 561.341,1333.89 562.339,1269.05 563.336,1266.61 564.334,1322.87 565.331,1321.28 566.329,1235.86 567.326,1233.67 568.323,1309.73 569.321,1307.5 570.318,1330.15 571.316,1326.9 572.313,1304.13 573.311,1302.61 574.308,1407.42 575.306,1405.54 576.303,1255.33 577.301,1252.11 578.298,1273.32 579.296,1271.68 580.293,1412.63 581.29,1410.66 582.288,1280.55 583.285,1278.62 584.283,1295.83 585.28,1293.98 586.278,1309.13 587.275,1307.56 588.273,1288.47 589.27,1286.93 590.268,1189.65 591.265,1186.78 592.263,1374.85 593.26,1372.95 594.258,1280.22 595.255,1278.5 596.252,1323.22 597.25,1322.2 598.247,1332.96 599.245,1331.34 600.242,1348.02 601.24,1346.42 602.237,1372.81 603.235,1371.52 604.232,1294.39 605.23,1292.33 606.227,1283.95 607.225,1282.4 608.222,1300.15 609.219,1298.62 610.217,1295.29 611.214,1293.59 612.212,1278.5 613.209,1276.99 614.207,1275.36 615.204,1273.94 616.202,1328.74 617.199,1326.37 618.197,1338.44 619.194,1337.05 620.192,1312.14 621.189,1310.15 622.186,1442.71 623.184,1440.88 624.181,1329.98 625.179,1328.66 626.176,1313.63 627.174,1311.52 628.171,1409.65 629.169,1408.51 630.166,1421.29 631.164,1420.4 632.161,1331.16 633.159,1329.43 634.156,1320.56 635.154,1319.31 636.151,1283.16 637.148,1281.39 638.146,1331.68 639.143,1330.26 640.141,1348.66 641.138,1347.25 642.136,1237.57 643.133,1236.15 644.131,1324.5 645.128,1322.92 646.126,1246.4 647.123,1245.12 648.121,1221.95 649.118,1220.69 650.115,1363.6 651.113,1362.38 652.11,1261.29 653.108,1259.77 654.105,1327.62 655.103,1326.32 656.1,1434.74 657.098,1433.78 658.095,1369.1 659.093,1367.3 660.09,1266.31 661.088,1263.88 662.085,1296.61 663.082,1295.18 664.08,1318.09 665.077,1316.6 666.075,1380.22 667.072,1379.41 668.07,1287.17 669.067,1286.37 670.065,1363.85 671.062,1362.29 672.06,1384.66 673.057,1383.79 674.055,1245.66 675.052,1244.31 676.05,1292.16 677.047,1290.71 678.044,1361.43 679.042,1360.59 680.039,1386.87 681.037,1386.15 682.034,1333.74 683.032,1332.61 684.029,1394.24 685.027,1393.46 686.024,1291.94 687.022,1290.36 688.019,1332.49 689.017,1331.29 690.014,1280.18 691.011,1279.01 692.009,1306.31 693.006,1305.36 694.004,1311.2 695.001,1308.86 695.999,1379.54 696.996,1378.47 697.994,1273.64 698.991,1272.84 699.989,1333.82 700.986,1333.1 701.984,1359.38 702.981,1358.4 703.978,1339.14 704.976,1338.19 705.973,1386.92 706.971,1385.14 707.968,1384.27 708.966,1383.19 709.963,1324.91 710.961,1324.02 711.958,1398.3 712.956,1397.69 713.953,1329.33 714.951,1328.13 715.948,1390.04 716.946,1389.18 717.943,1361.25 718.94,1360.66 719.938,1252.08 720.935,1251 721.933,1262.86 722.93,1261.13 723.928,1343.99 724.925,1343.03 725.923,1334.36 726.92,1333.34 727.918,1231.76 728.915,1230.62 729.913,1259.93 730.91,1259.14 731.907,1288.83 732.905,1287.7 733.902,1356.54 734.9,1355.52 735.897,1318.1 736.895,1317.56 737.892,1303.8 738.89,1302.91 739.887,1325.54 740.885,1325.08 741.882,1267.64 742.88,1266.67 743.877,1307.91 744.875,1307.18 745.872,1381.19 746.869,1380.74 747.867,1360.4 748.864,1359.77 749.862,1328.76 750.859,1328.21 751.857,1290.69 752.854,1289.98 753.852,1326.32 754.849,1325.69 755.847,1278.24 756.844,1277.06 757.842,1243.58 758.839,1242.56 759.836,1285.77 760.834,1284.87 761.831,1288.81 762.829,1287.93 763.826,1332.42 764.824,1331.75 765.821,1290.04 766.819,1289.23 767.816,1353.03 768.814,1352.65 769.811,1315.34 770.809,1314.17 771.806,1313.14 772.803,1312.32 773.801,1382.42 774.798,1381.54 775.796,1252.37 776.793,1251.35 777.791,1326.37 778.788,1324.92 779.786,1333.33 780.783,1332.75 781.781,1378.68 782.778,1378.13 783.776,1311.74 784.773,1311.08 785.771,1318.14 786.768,1317.49 787.765,1310.59 788.763,1309.82 789.76,1329.74 790.758,1328.96 791.755,1392.14 792.753,1391.91 793.75,1339.78 794.748,1338.93 795.745,1399.23 796.743,1398.82 797.74,1304.39 798.738,1303.86 799.735,1358.95 800.732,1358.34 801.73,1336.77 802.727,1334.71 803.725,1331.15 804.722,1330.47 805.72,1309.71 806.717,1308.74 807.715,1370.49 808.712,1370.08 809.71,1347.56 810.707,1346.99 811.705,1359.01 812.702,1358.12 813.699,1327.35 814.697,1326.68 815.694,1323.02 816.692,1322.56 817.689,1301.48 818.687,1300.34 819.684,1318.35 820.682,1317.86 821.679,1357.8 822.677,1357.39 823.674,1356.7 824.672,1356.43 825.669,1378.52 826.667,1378.34 827.664,1355.56 828.661,1355.14 829.659,1326.81 830.656,1324.68 831.654,1361.95 832.651,1361.38 833.649,1284.78 834.646,1284.19 835.644,1397.59 836.641,1397.39 837.639,1267.45 838.636,1265.54 839.634,1376.17 840.631,1375.69 841.628,1318.46 842.626,1318.12 843.623,1311.41 844.621,1310.65 845.618,1377.44 846.616,1377.12 847.613,1335.13 848.611,1334.44 849.608,1320.4 850.606,1319.43 851.603,1330.28 852.601,1329.75 853.598,1275.5 854.596,1275.02 855.593,1313.48 856.59,1312.99 857.588,1360.22 858.585,1359.85 859.583,1358.6 860.58,1358.23 861.578,1337.47 862.575,1336.88 863.573,1305.99 864.57,1305.6 865.568,1341.35 866.565,1341.05 867.563,1342.98 868.56,1342.56 869.557,1274.72 870.555,1274.39 871.552,1359.55 872.55,1359.01 873.547,1327.48 874.545,1327.04 875.542,1380.87 876.54,1380.57 877.537,1303.2 878.535,1302.79 879.532,1345.1 880.53,1344.62 881.527,1346.02 882.524,1345.66 883.522,1384.21 884.519,1383.88 885.517,1337.92 886.514,1337.09 887.512,1369.69 888.509,1369.25 889.507,1341.66 890.504,1340.61 891.502,1408.51 892.499,1408.25 893.497,1301.02 894.494,1300.37 895.492,1310.23 896.489,1309.85 897.486,1380.73 898.484,1380.44 899.481,1372.4 900.479,1370.43 901.476,1284.66 902.474,1284.22 903.471,1352.23 904.469,1351.89 905.466,1388.69 906.464,1388.47 907.461,1366.83 908.459,1366.36 909.456,1299.16 910.453,1298.75 911.451,1378.03 912.448,1377.83 913.446,1297.99 914.443,1297.71 915.441,1345.42 916.438,1344.68 917.436,1307.03 918.433,1306.65 919.431,1329.4 920.428,1329.05 921.426,1316.91 922.423,1316.45 923.42,1370.35 924.418,1370.09 925.415,1345.05 926.413,1344.81 927.41,1326.94 928.408,1326.01 929.405,1307.93 930.403,1307.56 931.4,1357.81 932.398,1357.46 933.395,1282.2 934.393,1281.4 935.39,1389.5 936.388,1389.23 937.385,1304.89 938.382,1304.5 939.38,1330.69 940.377,1329.87 941.375,1343.64 942.372,1343.32 943.37,1361.66 944.367,1361.32 945.365,1345.72 946.362,1345.26 947.36,1350.02 948.357,1349.81 949.355,1353.35 950.352,1352.46 951.349,1285.12 952.347,1284.63 953.344,1354.1 954.342,1353.75 955.339,1441.23 956.337,1441.21 957.334,1351.71 958.332,1351.4 959.329,1326.26 960.327,1325.79 961.324,1322.08 962.322,1321.73 963.319,1337.17 964.316,1336.86 965.314,1316.83 966.311,1315.34 967.309,1333.27 968.306,1333.02 969.304,1271.26 970.301,1270.97 971.299,1357.03 972.296,1356.81 973.294,1348.14 974.291,1347.9 975.289,1327.6 976.286,1327.25 977.284,1316.55 978.281,1316.24 979.278,1363.67 980.276,1363.29 981.273,1361.92 982.271,1361.69 983.268,1344.75 984.266,1344.46 985.263,1356.12 986.261,1355.74 987.258,1348.17 988.256,1347.81 989.253,1326.44 990.251,1326.1 991.248,1380.81 992.245,1380.59 993.243,1311.38 994.24,1310.44 995.238,1355.85 996.235,1355.51 997.233,1313.15 998.23,1312.89 999.228,1433.92 1000.23,1433.9 1001.22,1294.91 1002.22,1294.13 1003.22,1420.16 1004.22,1420.11 1005.21,1296.11 1006.21,1295.58 1007.21,1316.89 1008.2,1316.7 1009.2,1257.59 1010.2,1257.12 1011.2,1390.77 1012.19,1390.67 1013.19,1372.83 1014.19,1372.64 1015.19,1349.03 1016.18,1348.58 1017.18,1286.7 1018.18,1286.32 1019.18,1291.64 1020.17,1291.34 1021.17,1383.11 1022.17,1382.92 1023.17,1345.75 1024.16,1345.58 1025.16,1329.88 1026.16,1329.53 1027.16,1313.81 1028.15,1313.34 1029.15,1312.97 1030.15,1312.4 1031.15,1339.12 1032.14,1338.7 1033.14,1324.97 1034.14,1324.45 1035.14,1333.35 1036.13,1333.26 1037.13,1384.26 1038.13,1384.18 1039.13,1340.28 1040.12,1339.95 1041.12,1391.85 1042.12,1391.7 1043.12,1338.45 1044.11,1338.08 1045.11,1364.93 1046.11,1364.73 1047.11,1361 1048.1,1360.9 1049.1,1388.35 1050.1,1388.15 1051.1,1378.88 1052.09,1378.85 1053.09,1330.45 1054.09,1330.19 1055.09,1414.07 1056.08,1414.08 1057.08,1331.94 1058.08,1331.67 1059.08,1353.24 1060.07,1352.95 1061.07,1331.36 1062.07,1331.03 1063.07,1288.99 1064.06,1288.74 1065.06,1376.23 1066.06,1375.93 1067.06,1351.76 1068.05,1351.6 1069.05,1345.89 1070.05,1345.67 1071.05,1283.87 1072.04,1283.51 1073.04,1342.76 1074.04,1342.17 1075.03,1356.4 1076.03,1356.07 1077.03,1323.26 1078.03,1322.94 1079.02,1331.03 1080.02,1330.83 1081.02,1277.88 1082.02,1277.56 1083.01,1316.66 1084.01,1316.38 1085.01,1331.43 1086.01,1331.29 1087,1360.93 1088,1360.77 1089,1377.11 1090,1376.84 1090.99,1392.16 1091.99,1391.66 1092.99,1284.83 1093.99,1284.55 1094.98,1364.25 1095.98,1364.05 1096.98,1308.95 1097.98,1308.7 1098.97,1364.41 1099.97,1364.28 1100.97,1340.47 1101.97,1339.57 1102.96,1295.1 1103.96,1294.75 1104.96,1360.54 1105.96,1360.4 1106.95,1334.02 1107.95,1333.47 1108.95,1317.27 1109.95,1316.33 1110.94,1390.69 1111.94,1390.58 1112.94,1283.62 1113.94,1283.19 1114.93,1347.06 1115.93,1346.97 1116.93,1445.65 1117.93,1445.72 1118.92,1330.8 1119.92,1330.44 1120.92,1342.6 1121.92,1342.43 1122.91,1335.86 1123.91,1335.7 1124.91,1381.51 1125.91,1381.08 1126.9,1351.19 1127.9,1350.79 1128.9,1321.66 1129.9,1320.5 1130.89,1325.73 1131.89,1325.01 1132.89,1335.08 1133.89,1334.61 1134.88,1366.7 1135.88,1366.55 1136.88,1340.4 1137.88,1340.34 1138.87,1336.25 1139.87,1336.08 1140.87,1346.99 1141.87,1346.93 1142.86,1317.53 1143.86,1316.55 1144.86,1320.98 1145.85,1320.78 1146.85,1313.34 1147.85,1313.15 1148.85,1340.59 1149.84,1340.29 1150.84,1379.17 1151.84,1379.04 1152.84,1299.26 1153.83,1298.43 1154.83,1362.7 1155.83,1362.37 1156.83,1321.65 1157.82,1321.49 1158.82,1294.56 1159.82,1294.05 1160.82,1347.59 1161.81,1347.51 1162.81,1340.65 1163.81,1340.56 1164.81,1319.03 1165.8,1318.78 1166.8,1314.86 1167.8,1314.58 1168.8,1359.55 1169.79,1359.21 1170.79,1335.55 1171.79,1335.41 1172.79,1283.57 1173.78,1283.34 1174.78,1323.29 1175.78,1323.12 1176.78,1304.57 1177.77,1304.1 1178.77,1321.11 1179.77,1321.01 1180.77,1307.05 1181.76,1306.84 1182.76,1329.05 1183.76,1328.85 1184.76,1335.88 1185.75,1334 1186.75,1302.3 1187.75,1302.04 1188.75,1318.15 1189.74,1317.91 1190.74,1326.56 1191.74,1326.39 1192.74,1334.71 1193.73,1334.42 1194.73,1305.35 1195.73,1305.04 1196.73,1366.97 1197.72,1366.89 1198.72,1395.65 1199.72,1395.63 1200.72,1339.52 1201.71,1338.84 1202.71,1301.72 1203.71,1301.49 1204.71,1377 1205.7,1376.82 1206.7,1317.13 1207.7,1316.87 1208.7,1353.69 1209.69,1353.57 1210.69,1361.96 1211.69,1361.9 1212.68,1348.29 1213.68,1347.91 1214.68,1343.66 1215.68,1343.52 1216.67,1316.03 1217.67,1315.81 1218.67,1296.21 1219.67,1296.05 1220.66,1355.12 1221.66,1355.02 1222.66,1359.54 1223.66,1359.39 1224.65,1323.76 1225.65,1323.49 1226.65,1332.5 1227.65,1332.3 1228.64,1332.7 1229.64,1332.64 1230.64,1335.69 1231.64,1335.52 1232.63,1334.11 1233.63,1333.83 1234.63,1359.26 1235.63,1359.09 1236.62,1281.38 1237.62,1280.59 1238.62,1322.78 1239.62,1322.37 1240.61,1322.57 1241.61,1322.46 1242.61,1372.6 1243.61,1372.51 1244.6,1368.32 1245.6,1368.23 1246.6,1324.99 1247.6,1324.67 1248.59,1350.56 1249.59,1350.38 1250.59,1312.94 1251.59,1312.78 1252.58,1315.98 1253.58,1315.67 1254.58,1343.58 1255.58,1343.46 1256.57,1343.12 1257.57,1342.89 1258.57,1340.55 1259.57,1340.42 1260.56,1392.1 1261.56,1391.79 1262.56,1362.19 1263.56,1362.16 1264.55,1300.71 1265.55,1300.52 1266.55,1310.52 1267.55,1310.41 1268.54,1370.13 1269.54,1369.93 1270.54,1349.04 1271.54,1348.98 1272.53,1303.6 1273.53,1303.5 1274.53,1293.72 1275.53,1293.62 1276.52,1317.04 1277.52,1316.91 1278.52,1374.76 1279.51,1374.7 1280.51,1288.27 1281.51,1288.07 1282.51,1316.95 1283.5,1316.35 1284.5,1333.08 1285.5,1332.86 1286.5,1381.4 1287.49,1381.23 1288.49,1352.59 1289.49,1352.41 1290.49,1323.75 1291.48,1323.49 1292.48,1344.55 1293.48,1344.4 1294.48,1361.24 1295.47,1361.13 1296.47,1332.99 1297.47,1332.63 1298.47,1331.04 1299.46,1330.95 1300.46,1317.75 1301.46,1317.52 1302.46,1315.48 1303.45,1315.33 1304.45,1348.94 1305.45,1348.54 1306.45,1359.83 1307.44,1359.1 1308.44,1311.55 1309.44,1311.04 1310.44,1351.85 1311.43,1351.5 1312.43,1358.64 1313.43,1358.57 1314.43,1329.43 1315.42,1329.36 1316.42,1338.12 1317.42,1338.01 1318.42,1311 1319.41,1310.4 1320.41,1352.98 1321.41,1352.94 1322.41,1299.74 1323.4,1299.36 1324.4,1364.04 1325.4,1363.89 1326.4,1356.14 1327.39,1356.08 1328.39,1398.69 1329.39,1398.63 1330.39,1320.9 1331.38,1320.85 1332.38,1380.7 1333.38,1380.59 1334.38,1338.83 1335.37,1338.69 1336.37,1382.65 1337.37,1382.64 1338.37,1326.75 1339.36,1326.45 1340.36,1344.68 1341.36,1344.51 1342.36,1347.27 1343.35,1347.15 1344.35,1380.93 1345.35,1380.85 1346.35,1347.46 1347.34,1347.36 1348.34,1334.93 1349.34,1334.64 1350.33,1332.78 1351.33,1332.5 1352.33,1338.32 1353.33,1337.99 1354.32,1340.43 1355.32,1339.56 1356.32,1329.39 1357.32,1329.26 1358.31,1364.28 1359.31,1364.25 1360.31,1335.86 1361.31,1335.68 1362.3,1329.68 1363.3,1329.22 1364.3,1326.74 1365.3,1326.43 1366.29,1274.86 1367.29,1274.66 1368.29,1344.61 1369.29,1344.52 1370.28,1308.17 1371.28,1307.51 1372.28,1361.27 1373.28,1361.26 1374.27,1349.43 1375.27,1349.4 1376.27,1403.04 1377.27,1403.1 1378.26,1310.15 1379.26,1309.97 1380.26,1372.64 1381.26,1372.48 1382.25,1332.35 1383.25,1332.31 1384.25,1325.05 1385.25,1324.9 1386.24,1325.57 1387.24,1325.34 1388.24,1310.1 1389.24,1309.58 1390.23,1326.93 1391.23,1326.83 1392.23,1333.55 1393.23,1333.45 1394.22,1320.31 1395.22,1319.92 1396.22,1344.38 1397.22,1344.31 1398.21,1382.03 1399.21,1381.91 1400.21,1332.4 1401.21,1332.32 1402.2,1299.23 1403.2,1299.11 1404.2,1341.11 1405.2,1341.05 1406.19,1291.11 1407.19,1290.83 1408.19,1329.99 1409.19,1329.78 1410.18,1328.3 1411.18,1327.65 1412.18,1348.72 1413.18,1348.54 1414.17,1370.32 1415.17,1370.22 1416.17,1337.19 1417.16,1337.09 1418.16,1312.07 1419.16,1311.59 1420.16,1317.13 1421.15,1317.01 1422.15,1348.35 1423.15,1348.19 1424.15,1293.38 1425.14,1293.25 1426.14,1327.66 1427.14,1327.4 1428.14,1355.52 1429.13,1355.47 1430.13,1320.56 1431.13,1320.43 1432.13,1335.33 1433.12,1334.78 1434.12,1350.75 1435.12,1350.71 1436.12,1357.02 1437.11,1356.8 1438.11,1330.04 1439.11,1329.93 1440.11,1325.71 1441.1,1325.08 1442.1,1339.41 1443.1,1339.33 1444.1,1335.31 1445.09,1335.26 1446.09,1370.01 1447.09,1369.6 1448.09,1334.98 1449.08,1334.95 1450.08,1294.24 1451.08,1293.99 1452.08,1350.12 1453.07,1349.45 1454.07,1367.42 1455.07,1367.21 1456.07,1374.84 1457.06,1374.73 1458.06,1351.66 1459.06,1351.57 1460.06,1357.56 1461.05,1357.42 1462.05,1331.67 1463.05,1331.62 1464.05,1367.93 1465.04,1367.81 1466.04,1393.51 1467.04,1393.48 1468.04,1344.64 1469.03,1344.42 1470.03,1341.19 1471.03,1341.14 1472.03,1360.44 1473.02,1360.26 1474.02,1346.78 1475.02,1346.47 1476.02,1339.49 1477.01,1339.23 1478.01,1331.79 1479.01,1331.16 1480.01,1324.51 1481,1324.37 1482,1320.45 1483,1320.34 1484,1317.85 1484.99,1317.67 1485.99,1360.41 1486.99,1360.04 1487.98,1308.74 1488.98,1308.38 1489.98,1329.55 1490.98,1329.48 1491.97,1306.92 1492.97,1306.81 1493.97,1350.58 1494.97,1350.07 1495.96,1305.81 1496.96,1305.7 1497.96,1331.61 1498.96,1331.57 1499.95,1344.47 1500.95,1344.41 1501.95,1371.13 1502.95,1371.07 1503.94,1327.79 1504.94,1327.69 1505.94,1345.99 1506.94,1345.62 1507.93,1370.24 1508.93,1370.22 1509.93,1300.92 1510.93,1300.59 1511.92,1319.56 1512.92,1319.31 1513.92,1330.63 1514.92,1330.38 1515.91,1315.07 1516.91,1314.95 1517.91,1334.2 1518.91,1334.13 1519.9,1327.44 1520.9,1327.4 1521.9,1298.65 1522.9,1298.5 1523.89,1297.73 1524.89,1297.61 1525.89,1333.16 1526.89,1333.03 1527.88,1320.58 1528.88,1320.47 1529.88,1301.17 1530.88,1301.04 1531.87,1319.54 1532.87,1319.29 1533.87,1323.32 1534.87,1323.25 1535.86,1355.54 1536.86,1355.52 1537.86,1343.33 1538.86,1343.2 1539.85,1319.08 1540.85,1318.6 1541.85,1308.36 1542.85,1308.04 1543.84,1332.73 1544.84,1332.05 1545.84,1359.67 1546.84,1359.59 1547.83,1344.25 1548.83,1343.82 1549.83,1349.88 1550.83,1349.6 1551.82,1393.48 1552.82,1393.43 1553.82,1347.51 1554.81,1347.4 1555.81,1302.87 1556.81,1302.04 1557.81,1335.81 1558.8,1335.6 1559.8,1306.95 1560.8,1306.84 1561.8,1325.03 1562.79,1324.93 1563.79,1355.95 1564.79,1355.87 1565.79,1332.29 1566.78,1332.16 1567.78,1351.64 1568.78,1351.5 1569.78,1322.05 1570.77,1321.77 1571.77,1318.95 1572.77,1318.83 1573.77,1345.21 1574.76,1345.13 1575.76,1346.78 1576.76,1346.73 1577.76,1294.87 1578.75,1294.54 1579.75,1353.97 1580.75,1353.89 1581.75,1335.94 1582.74,1335.43 1583.74,1314.35 1584.74,1314.24 1585.74,1277.47 1586.73,1277.39 1587.73,1351.14 1588.73,1350.97 1589.73,1325.31 1590.72,1325.21 1591.72,1337.32 1592.72,1337.12 1593.72,1351.43 1594.71,1351.4 1595.71,1392.82 1596.71,1392.7 1597.71,1321.37 1598.7,1321.13 1599.7,1322.02 1600.7,1321.96 1601.7,1353.41 1602.69,1353.14 1603.69,1311.41 1604.69,1311.3 1605.69,1336.49 1606.68,1336.34 1607.68,1329.92 1608.68,1329.79 1609.68,1365.79 1610.67,1365.69 1611.67,1331.88 1612.67,1331.68 1613.67,1350.15 1614.66,1350.07 1615.66,1407.6 1616.66,1407.49 1617.66,1340.16 1618.65,1340.09 1619.65,1324.72 1620.65,1324.67 1621.65,1346.03 1622.64,1345.93 1623.64,1336.58 1624.64,1336.49 1625.63,1353.65 1626.63,1353.64 1627.63,1346.7 1628.63,1346.67 1629.62,1343.96 1630.62,1343.93 1631.62,1347.07 1632.62,1347.05 1633.61,1332.19 1634.61,1331.92 1635.61,1335 1636.61,1334.93 1637.6,1383.21 1638.6,1383.17 1639.6,1357.31 1640.6,1357.28 1641.59,1363.36 1642.59,1363.14 1643.59,1404.47 1644.59,1403.97 1645.58,1326.07 1646.58,1325.67 1647.58,1337.68 1648.58,1337.6 1649.57,1340.58 1650.57,1340.53 1651.57,1363.13 1652.57,1363.07 1653.56,1314.46 1654.56,1314.35 1655.56,1345.47 1656.56,1345 1657.55,1356.63 1658.55,1355.66 1659.55,1355.21 1660.55,1354.6 1661.54,1339.81 1662.54,1339.69 1663.54,1321.97 1664.54,1321.9 1665.53,1347.34 1666.53,1347.16 1667.53,1314.8 1668.53,1314.7 1669.52,1346.13 1670.52,1345.88 1671.52,1354.25 1672.52,1353.88 1673.51,1321.65 1674.51,1321.62 1675.51,1364.49 1676.51,1364.18 1677.5,1351.49 1678.5,1351.04 1679.5,1338.79 1680.5,1338.75 1681.49,1375.9 1682.49,1375.32 1683.49,1311.9 1684.49,1311.83 1685.48,1314.71 1686.48,1314.62 1687.48,1334.91 1688.48,1334.83 1689.47,1337.26 1690.47,1337.17 1691.47,1312.5 1692.46,1312.15 1693.46,1315.67 1694.46,1315.54 1695.46,1331.19 1696.45,1331.17 1697.45,1326.34 1698.45,1326.21 1699.45,1336.76 1700.44,1336.4 1701.44,1329.47 1702.44,1329.31 1703.44,1351.65 1704.43,1351.5 1705.43,1361.9 1706.43,1361.82 1707.43,1317.67 1708.42,1317.32 1709.42,1281.17 1710.42,1280.84 1711.42,1324.17 1712.41,1324.11 1713.41,1355.78 1714.41,1355.63 1715.41,1321.58 1716.4,1321.41 1717.4,1321.26 1718.4,1321.19 1719.4,1337.76 1720.39,1337.72 1721.39,1349.92 1722.39,1349.7 1723.39,1343.01 1724.38,1342.93 1725.38,1376.29 1726.38,1376.3 1727.38,1339.95 1728.37,1339.87 1729.37,1330.12 1730.37,1330.07 1731.37,1336.88 1732.36,1336.78 1733.36,1323.15 1734.36,1323.07 1735.36,1340.75 1736.35,1340.68 1737.35,1332.73 1738.35,1332.53 1739.35,1300.53 1740.34,1300.49 1741.34,1342.18 1742.34,1342.07 1743.34,1375.2 1744.33,1375.17 1745.33,1395.08 1746.33,1394.95 1747.33,1308.69 1748.32,1308.49 1749.32,1365.88 1750.32,1365.8 1751.32,1308.25 1752.31,1308.04 1753.31,1326.22 1754.31,1325.8 1755.31,1321.03 1756.3,1320.96 1757.3,1345.57 1758.3,1345.55 1759.29,1307.27 1760.29,1307.12 1761.29,1338.11 1762.29,1338.08 1763.28,1362.86 1764.28,1362.73 1765.28,1332.27 1766.28,1332.15 1767.27,1330.37 1768.27,1330.27 1769.27,1313.59 1770.27,1313.47 1771.26,1326.6 1772.26,1326.31 1773.26,1362.2 1774.26,1362.03 1775.25,1356.39 1776.25,1355.94 1777.25,1350.89 1778.25,1350.88 1779.24,1353.97 1780.24,1353.93 1781.24,1307.74 1782.24,1307.67 1783.23,1320.45 1784.23,1320.38 1785.23,1314.34 1786.23,1314.27 1787.22,1370.81 1788.22,1370.26 1789.22,1335.5 1790.22,1335.38 1791.21,1329.01 1792.21,1328.93 1793.21,1343.9 1794.21,1343.49 1795.2,1367.14 1796.2,1367.12 1797.2,1322.98 1798.2,1322.86 1799.19,1303.64 1800.19,1303.07 1801.19,1350.24 1802.19,1350.17 1803.18,1326.76 1804.18,1326.62 1805.18,1282.17 1806.18,1282.03 1807.17,1327.62 1808.17,1327.57 1809.17,1363.23 1810.17,1363.19 1811.16,1308.21 1812.16,1307.24 1813.16,1356.66 1814.16,1356.58 1815.15,1322 1816.15,1321.73 1817.15,1346.9 1818.15,1346.18 1819.14,1322.15 1820.14,1321.89 1821.14,1338.61 1822.14,1338.04 1823.13,1311.45 1824.13,1311.26 1825.13,1349.03 1826.13,1348.4 1827.12,1332.97 1828.12,1332.9 1829.12,1321.99 1830.11,1321.82 1831.11,1297.36 1832.11,1297.21 1833.11,1371.49 1834.1,1371.29 1835.1,1298.91 1836.1,1298.79 1837.1,1318.98 1838.09,1318.92 1839.09,1356.72 1840.09,1356.37 1841.09,1319.54 1842.08,1319.21 1843.08,1280.87 1844.08,1280.67 1845.08,1340.62 1846.07,1340.52 1847.07,1323.26 1848.07,1323.12 1849.07,1305.37 1850.06,1305.3 1851.06,1377.96 1852.06,1376.83 1853.06,1340.67 1854.05,1340.45 1855.05,1330.69 1856.05,1330.47 1857.05,1304.61 1858.04,1304.55 1859.04,1341.13 1860.04,1341.1 1861.04,1338.12 1862.03,1337.99 1863.03,1338.28 1864.03,1338.28 1865.03,1316.02 1866.02,1315.76 1867.02,1333.67 1868.02,1333.51 1869.02,1348.65 1870.01,1348.09 1871.01,1350.87 1872.01,1350.53 1873.01,1328.48 1874,1327.72 1875,1298.22 1876,1298.13 1877,1337.42 1877.99,1337.35 1878.99,1338.75 1879.99,1338.5 1880.99,1305.91 1881.98,1305.87 1882.98,1340.88 1883.98,1340.76 1884.98,1348.82 1885.97,1348.47 1886.97,1335.33 1887.97,1335.13 1888.97,1315.79 1889.96,1315.76 1890.96,1351.25 1891.96,1351.21 1892.96,1339.4 1893.95,1339.32 1894.95,1313.71 1895.95,1313.17 1896.94,1350.96 1897.94,1350.93 1898.94,1309.28 1899.94,1309.17 1900.93,1378.04 1901.93,1377.91 1902.93,1377.39 1903.93,1377.38 1904.92,1350.98 1905.92,1350.93 1906.92,1327.29 1907.92,1327.23 1908.91,1356.05 1909.91,1356.01 1910.91,1340.36 1911.91,1340.32 1912.9,1320.46 1913.9,1320.43 1914.9,1309.69 1915.9,1309.52 1916.89,1322.07 1917.89,1321.81 1918.89,1322.35 1919.89,1322.29 1920.88,1324.16 1921.88,1323.61 1922.88,1312.77 1923.88,1312.71 1924.87,1372.77 1925.87,1372.57 1926.87,1369.07 1927.87,1369.03 1928.86,1321.79 1929.86,1321.67 1930.86,1327.53 1931.86,1327.27 1932.85,1347.71 1933.85,1347.34 1934.85,1347.93 1935.85,1347.56 1936.84,1329.63 1937.84,1329.54 1938.84,1354.45 1939.84,1354.3 1940.83,1322 1941.83,1321.94 1942.83,1348.48 1943.83,1348.44 1944.82,1305.72 1945.82,1305.65 1946.82,1315.8 1947.82,1315.63 1948.81,1345.29 1949.81,1345.25 1950.81,1316.77 1951.81,1316.32 1952.8,1319.09 1953.8,1318.13 1954.8,1357.99 1955.8,1357.94 1956.79,1333.42 1957.79,1333.17 1958.79,1323.95 1959.79,1323.89 1960.78,1334.75 1961.78,1334.72 1962.78,1296.94 1963.78,1296.63 1964.77,1325.8 1965.77,1325.4 1966.77,1328.74 1967.76,1328.19 1968.76,1307.69 1969.76,1307.6 1970.76,1324.06 1971.75,1323.66 1972.75,1364.65 1973.75,1364.55 1974.75,1307.56 1975.74,1307.5 1976.74,1360.9 1977.74,1360.74 1978.74,1333.81 1979.73,1333.59 1980.73,1316.78 1981.73,1316.7 1982.73,1329.99 1983.72,1329.93 1984.72,1333.16 1985.72,1333.11 1986.72,1353.59 1987.71,1353.52 1988.71,1323.99 1989.71,1323.83 1990.71,1317.57 1991.7,1317.52 1992.7,1370.74 1993.7,1370.59 1994.7,1366.52 1995.69,1366.19 1996.69,1376.24 1997.69,1376.03 1998.69,1319.36 1999.68,1319.29 2000.68,1363.24 2001.68,1363.24 2002.68,1326.1 2003.67,1326.05 2004.67,1342.46 2005.67,1342.35 2006.67,1305 2007.66,1304.79 2008.66,1344.29 2009.66,1344.06 2010.66,1311.31 2011.65,1311.23 2012.65,1367.13 2013.65,1366.91 2014.65,1319.69 2015.64,1319.61 2016.64,1353.78 2017.64,1353.76 2018.64,1279.3 2019.63,1277.17 2020.63,1322.45 2021.63,1322.44 2022.63,1312.92 2023.62,1312.83 2024.62,1344.36 2025.62,1344.25 2026.62,1345.33 2027.61,1345.34 2028.61,1344.44 2029.61,1344.42 2030.61,1328.34 2031.6,1327.93 2032.6,1347.38 2033.6,1347.03 2034.59,1328.61 2035.59,1328.59 2036.59,1351.02 2037.59,1350.84 2038.58,1322.56 2039.58,1322.52 2040.58,1337.96 2041.58,1337.71 2042.57,1310.76 2043.57,1310.4 2044.57,1330.36 2045.57,1330.1 2046.56,1310.76 2047.56,1309.88 2048.56,1339.84 2049.56,1339.61 2050.55,1321.72 2051.55,1321.46 2052.55,1351.92 2053.55,1351.52 2054.54,1331.79 2055.54,1331.65 2056.54,1292.47 2057.54,1292.42 2058.53,1289.62 2059.53,1289.52 2060.53,1362.91 2061.53,1362.89 2062.52,1340 2063.52,1339.94 2064.52,1315.19 2065.52,1315.11 2066.51,1343.99 2067.51,1343.66 2068.51,1327.95 2069.51,1327.89 2070.5,1338.05 2071.5,1338.01 2072.5,1318.82 2073.5,1318.78 2074.49,1334.64 2075.49,1334.3 2076.49,1368.21 2077.49,1368.17 2078.48,1334.85 2079.48,1334.8 2080.48,1311.23 2081.48,1311.07 2082.47,1341.34 2083.47,1341.27 2084.47,1311.29 2085.47,1311.2 2086.46,1314.21 2087.46,1313.95 2088.46,1338.08 2089.46,1338 2090.45,1344.16 2091.45,1343.6 2092.45,1352.28 2093.45,1352.11 2094.44,1307.73 2095.44,1307.65 2096.44,1317.3 2097.44,1317.24 2098.43,1321.4 2099.43,1321.2 2100.43,1324.57 2101.43,1324.46 2102.42,1340.87 2103.42,1340.73 2104.42,1326.98 2105.41,1326.83 2106.41,1348.93 2107.41,1348.2 2108.41,1328.35 2109.4,1328.05 2110.4,1329.86 2111.4,1329.72 2112.4,1349.91 2113.39,1349.89 2114.39,1330.6 2115.39,1330.57 2116.39,1339.06 2117.38,1338.81 2118.38,1332.37 2119.38,1332.24 2120.38,1335.74 2121.37,1335.32 2122.37,1308.27 2123.37,1308.06 2124.37,1329.15 2125.36,1329.12 2126.36,1316.89 2127.36,1316.74 2128.36,1322.62 2129.35,1322.56 2130.35,1358.26 2131.35,1357.92 2132.35,1326.56 2133.34,1326.48 2134.34,1357.99 2135.34,1357.77 2136.34,1326.65 2137.33,1326.62 2138.33,1322.89 2139.33,1322.63 2140.33,1333.15 2141.32,1333.12 2142.32,1353.8 2143.32,1353.49 2144.32,1343.66 2145.31,1343.54 2146.31,1320.03 2147.31,1320 2148.31,1335.99 2149.3,1335.91 2150.3,1305.46 2151.3,1305.13 2152.3,1369.81 2153.29,1369.74 2154.29,1363.37 2155.29,1363.37 2156.29,1341.6 2157.28,1341.55 2158.28,1364.29 2159.28,1363.26 2160.28,1319.56 2161.27,1319.46 2162.27,1343.78 2163.27,1343.78 2164.27,1342.71 2165.26,1342.66 2166.26,1372.07 2167.26,1371.96 2168.26,1378.87 2169.25,1378.85 2170.25,1312.07 2171.25,1312.01 2172.24,1345.43 2173.24,1345.41 2174.24,1324.88 2175.24,1324.8 2176.23,1292.86 2177.23,1292.79 2178.23,1338.97 2179.23,1338.89 2180.22,1360.85 2181.22,1360.53 2182.22,1304.16 2183.22,1304 2184.21,1346.98 2185.21,1346.65 2186.21,1319.81 2187.21,1319.17 2188.2,1314.3 2189.2,1314.25 2190.2,1341.99 2191.2,1341.96 2192.19,1327.56 2193.19,1327.48 2194.19,1369.72 2195.19,1369.56 2196.18,1329.11 2197.18,1329.08 2198.18,1328.21 2199.18,1328.06 2200.17,1294.76 2201.17,1294.71 2202.17,1319.14 2203.17,1319.11 2204.16,1327.7 2205.16,1327.64 2206.16,1312.48 2207.16,1311.72 2208.15,1318.38 2209.15,1318.08 2210.15,1303.84 2211.15,1303.31 2212.14,1301.34 2213.14,1300.95 2214.14,1360.52 2215.14,1360.18 2216.13,1344.22 2217.13,1344.2 2218.13,1323.82 2219.13,1323.25 2220.12,1368.67 2221.12,1368.65 2222.12,1316.78 2223.12,1316.76 2224.11,1320.53 2225.11,1320.42 2226.11,1331.5 2227.11,1331.48 2228.1,1333.48 2229.1,1332.99 2230.1,1344.14 2231.1,1344.12 2232.09,1332.6 2233.09,1331.95 2234.09,1333.17 2235.09,1333.14 2236.08,1349.16 2237.08,1348.8 2238.08,1346.42 2239.07,1346.35 2240.07,1347.36 2241.07,1347.34 2242.07,1318.01 2243.06,1317.98 2244.06,1358.39 2245.06,1358.39 2246.06,1323.96 2247.05,1323.8 2248.05,1330.61 2249.05,1330.57 2250.05,1301.09 2251.04,1300.4 2252.04,1322.39 2253.04,1322.36 2254.04,1303.92 2255.03,1303.85 2256.03,1313.83 2257.03,1313.72 2258.03,1342.08 2259.02,1341.98 2260.02,1347.22 2261.02,1347.11 2262.02,1354.31 2263.01,1354.14 2264.01,1348.48 2265.01,1348.43 2266.01,1325.34 2267,1325.22 2268,1322.34 2269,1322.29 2270,1323.22 2270.99,1323.09 2271.99,1312.53 2272.99,1312.47 2273.99,1356.21 2274.98,1356.16 2275.98,1323.39 2276.98,1323.31 2277.98,1331.74 2278.97,1331.68 2279.97,1326.42 2280.97,1326.4 2281.97,1320.38 2282.96,1320.36 2283.96,1361.08 2284.96,1360.8 2285.96,1340.77 2286.95,1340.28 2287.95,1338.33 2288.95,1338.27 2289.95,1325.87 2290.94,1325.86 2291.94,1335.44 2292.94,1335.35 "/>
<path clip-path="url(#clip080)" d="M2018.52 198.898 L2282.3 198.898 L2282.3 95.2176 L2018.52 95.2176  Z" fill="#ffffff" fill-rule="evenodd" fill-opacity="1"/>
<polyline clip-path="url(#clip080)" style="stroke:#000000; stroke-linecap:round; stroke-linejoin:round; stroke-width:4; stroke-opacity:1; fill:none" points="2018.52,198.898 2282.3,198.898 2282.3,95.2176 2018.52,95.2176 2018.52,198.898 "/>
<polyline clip-path="url(#clip080)" style="stroke:#009af9; stroke-linecap:round; stroke-linejoin:round; stroke-width:4; stroke-opacity:1; fill:none" points="2042,147.058 2182.91,147.058 "/>
<path clip-path="url(#clip080)" d="M2220.23 166.745 Q2218.43 171.375 2216.71 172.787 Q2215 174.199 2212.13 174.199 L2208.73 174.199 L2208.73 170.634 L2211.23 170.634 Q2212.99 170.634 2213.96 169.8 Q2214.93 168.967 2216.11 165.865 L2216.88 163.921 L2206.39 138.412 L2210.9 138.412 L2219.01 158.689 L2227.11 138.412 L2231.62 138.412 L2220.23 166.745 Z" fill="#000000" fill-rule="nonzero" fill-opacity="1" /><path clip-path="url(#clip080)" d="M2238.91 160.402 L2246.55 160.402 L2246.55 134.037 L2238.24 135.703 L2238.24 131.444 L2246.5 129.778 L2251.18 129.778 L2251.18 160.402 L2258.82 160.402 L2258.82 164.338 L2238.91 164.338 L2238.91 160.402 Z" fill="#000000" fill-rule="nonzero" fill-opacity="1" /></svg>
