<?xml version="1.0" encoding="utf-8"?>
<svg xmlns="http://www.w3.org/2000/svg" xmlns:xlink="http://www.w3.org/1999/xlink" width="600" height="400" viewBox="0 0 2400 1600">
<defs>
  <clipPath id="clip110">
    <rect x="0" y="0" width="2400" height="1600"/>
  </clipPath>
</defs>
<path clip-path="url(#clip110)" d="M0 1600 L2400 1600 L2400 0 L0 0  Z" fill="#ffffff" fill-rule="evenodd" fill-opacity="1"/>
<defs>
  <clipPath id="clip111">
    <rect x="480" y="0" width="1681" height="1600"/>
  </clipPath>
</defs>
<path clip-path="url(#clip110)" d="M156.02 1486.45 L2352.76 1486.45 L2352.76 47.2441 L156.02 47.2441  Z" fill="#ffffff" fill-rule="evenodd" fill-opacity="1"/>
<defs>
  <clipPath id="clip112">
    <rect x="156" y="47" width="2198" height="1440"/>
  </clipPath>
</defs>
<polyline clip-path="url(#clip112)" style="stroke:#000000; stroke-linecap:round; stroke-linejoin:round; stroke-width:2; stroke-opacity:0.1; fill:none" points="218.191,1486.45 218.191,47.2441 "/>
<polyline clip-path="url(#clip112)" style="stroke:#000000; stroke-linecap:round; stroke-linejoin:round; stroke-width:2; stroke-opacity:0.1; fill:none" points="736.808,1486.45 736.808,47.2441 "/>
<polyline clip-path="url(#clip112)" style="stroke:#000000; stroke-linecap:round; stroke-linejoin:round; stroke-width:2; stroke-opacity:0.1; fill:none" points="1255.42,1486.45 1255.42,47.2441 "/>
<polyline clip-path="url(#clip112)" style="stroke:#000000; stroke-linecap:round; stroke-linejoin:round; stroke-width:2; stroke-opacity:0.1; fill:none" points="1774.04,1486.45 1774.04,47.2441 "/>
<polyline clip-path="url(#clip112)" style="stroke:#000000; stroke-linecap:round; stroke-linejoin:round; stroke-width:2; stroke-opacity:0.1; fill:none" points="2292.66,1486.45 2292.66,47.2441 "/>
<polyline clip-path="url(#clip110)" style="stroke:#000000; stroke-linecap:round; stroke-linejoin:round; stroke-width:4; stroke-opacity:1; fill:none" points="156.02,1486.45 2352.76,1486.45 "/>
<polyline clip-path="url(#clip110)" style="stroke:#000000; stroke-linecap:round; stroke-linejoin:round; stroke-width:4; stroke-opacity:1; fill:none" points="218.191,1486.45 218.191,1467.55 "/>
<polyline clip-path="url(#clip110)" style="stroke:#000000; stroke-linecap:round; stroke-linejoin:round; stroke-width:4; stroke-opacity:1; fill:none" points="736.808,1486.45 736.808,1467.55 "/>
<polyline clip-path="url(#clip110)" style="stroke:#000000; stroke-linecap:round; stroke-linejoin:round; stroke-width:4; stroke-opacity:1; fill:none" points="1255.42,1486.45 1255.42,1467.55 "/>
<polyline clip-path="url(#clip110)" style="stroke:#000000; stroke-linecap:round; stroke-linejoin:round; stroke-width:4; stroke-opacity:1; fill:none" points="1774.04,1486.45 1774.04,1467.55 "/>
<polyline clip-path="url(#clip110)" style="stroke:#000000; stroke-linecap:round; stroke-linejoin:round; stroke-width:4; stroke-opacity:1; fill:none" points="2292.66,1486.45 2292.66,1467.55 "/>
<path clip-path="url(#clip110)" d="M218.191 1517.37 Q214.58 1517.37 212.752 1520.93 Q210.946 1524.47 210.946 1531.6 Q210.946 1538.71 212.752 1542.27 Q214.58 1545.82 218.191 1545.82 Q221.826 1545.82 223.631 1542.27 Q225.46 1538.71 225.46 1531.6 Q225.46 1524.47 223.631 1520.93 Q221.826 1517.37 218.191 1517.37 M218.191 1513.66 Q224.001 1513.66 227.057 1518.27 Q230.136 1522.85 230.136 1531.6 Q230.136 1540.33 227.057 1544.94 Q224.001 1549.52 218.191 1549.52 Q212.381 1549.52 209.302 1544.94 Q206.247 1540.33 206.247 1531.6 Q206.247 1522.85 209.302 1518.27 Q212.381 1513.66 218.191 1513.66 Z" fill="#000000" fill-rule="nonzero" fill-opacity="1" /><path clip-path="url(#clip110)" d="M700.5 1544.91 L716.82 1544.91 L716.82 1548.85 L694.875 1548.85 L694.875 1544.91 Q697.538 1542.16 702.121 1537.53 Q706.727 1532.88 707.908 1531.53 Q710.153 1529.01 711.033 1527.27 Q711.936 1525.51 711.936 1523.82 Q711.936 1521.07 709.991 1519.33 Q708.07 1517.6 704.968 1517.6 Q702.769 1517.6 700.315 1518.36 Q697.885 1519.13 695.107 1520.68 L695.107 1515.95 Q697.931 1514.82 700.385 1514.24 Q702.838 1513.66 704.875 1513.66 Q710.246 1513.66 713.44 1516.35 Q716.635 1519.03 716.635 1523.52 Q716.635 1525.65 715.824 1527.57 Q715.037 1529.47 712.931 1532.07 Q712.352 1532.74 709.25 1535.95 Q706.149 1539.15 700.5 1544.91 Z" fill="#000000" fill-rule="nonzero" fill-opacity="1" /><path clip-path="url(#clip110)" d="M726.681 1514.29 L745.037 1514.29 L745.037 1518.22 L730.963 1518.22 L730.963 1526.7 Q731.982 1526.35 733 1526.19 Q734.019 1526 735.037 1526 Q740.824 1526 744.204 1529.17 Q747.584 1532.34 747.584 1537.76 Q747.584 1543.34 744.111 1546.44 Q740.639 1549.52 734.32 1549.52 Q732.144 1549.52 729.875 1549.15 Q727.63 1548.78 725.223 1548.04 L725.223 1543.34 Q727.306 1544.47 729.528 1545.03 Q731.75 1545.58 734.227 1545.58 Q738.232 1545.58 740.57 1543.48 Q742.908 1541.37 742.908 1537.76 Q742.908 1534.15 740.57 1532.04 Q738.232 1529.94 734.227 1529.94 Q732.352 1529.94 730.477 1530.35 Q728.625 1530.77 726.681 1531.65 L726.681 1514.29 Z" fill="#000000" fill-rule="nonzero" fill-opacity="1" /><path clip-path="url(#clip110)" d="M766.796 1517.37 Q763.185 1517.37 761.357 1520.93 Q759.551 1524.47 759.551 1531.6 Q759.551 1538.71 761.357 1542.27 Q763.185 1545.82 766.796 1545.82 Q770.431 1545.82 772.236 1542.27 Q774.065 1538.71 774.065 1531.6 Q774.065 1524.47 772.236 1520.93 Q770.431 1517.37 766.796 1517.37 M766.796 1513.66 Q772.607 1513.66 775.662 1518.27 Q778.741 1522.85 778.741 1531.6 Q778.741 1540.33 775.662 1544.94 Q772.607 1549.52 766.796 1549.52 Q760.986 1549.52 757.908 1544.94 Q754.852 1540.33 754.852 1531.6 Q754.852 1522.85 757.908 1518.27 Q760.986 1513.66 766.796 1513.66 Z" fill="#000000" fill-rule="nonzero" fill-opacity="1" /><path clip-path="url(#clip110)" d="M1215.04 1514.29 L1233.4 1514.29 L1233.4 1518.22 L1219.33 1518.22 L1219.33 1526.7 Q1220.34 1526.35 1221.36 1526.19 Q1222.38 1526 1223.4 1526 Q1229.19 1526 1232.57 1529.17 Q1235.95 1532.34 1235.95 1537.76 Q1235.95 1543.34 1232.47 1546.44 Q1229 1549.52 1222.68 1549.52 Q1220.51 1549.52 1218.24 1549.15 Q1215.99 1548.78 1213.58 1548.04 L1213.58 1543.34 Q1215.67 1544.47 1217.89 1545.03 Q1220.11 1545.58 1222.59 1545.58 Q1226.59 1545.58 1228.93 1543.48 Q1231.27 1541.37 1231.27 1537.76 Q1231.27 1534.15 1228.93 1532.04 Q1226.59 1529.94 1222.59 1529.94 Q1220.71 1529.94 1218.84 1530.35 Q1216.99 1530.77 1215.04 1531.65 L1215.04 1514.29 Z" fill="#000000" fill-rule="nonzero" fill-opacity="1" /><path clip-path="url(#clip110)" d="M1255.16 1517.37 Q1251.55 1517.37 1249.72 1520.93 Q1247.91 1524.47 1247.91 1531.6 Q1247.91 1538.71 1249.72 1542.27 Q1251.55 1545.82 1255.16 1545.82 Q1258.79 1545.82 1260.6 1542.27 Q1262.43 1538.71 1262.43 1531.6 Q1262.43 1524.47 1260.6 1520.93 Q1258.79 1517.37 1255.16 1517.37 M1255.16 1513.66 Q1260.97 1513.66 1264.02 1518.27 Q1267.1 1522.85 1267.1 1531.6 Q1267.1 1540.33 1264.02 1544.94 Q1260.97 1549.52 1255.16 1549.52 Q1249.35 1549.52 1246.27 1544.94 Q1243.21 1540.33 1243.21 1531.6 Q1243.21 1522.85 1246.27 1518.27 Q1249.35 1513.66 1255.16 1513.66 Z" fill="#000000" fill-rule="nonzero" fill-opacity="1" /><path clip-path="url(#clip110)" d="M1285.32 1517.37 Q1281.71 1517.37 1279.88 1520.93 Q1278.08 1524.47 1278.08 1531.6 Q1278.08 1538.71 1279.88 1542.27 Q1281.71 1545.82 1285.32 1545.82 Q1288.95 1545.82 1290.76 1542.27 Q1292.59 1538.71 1292.59 1531.6 Q1292.59 1524.47 1290.76 1520.93 Q1288.95 1517.37 1285.32 1517.37 M1285.32 1513.66 Q1291.13 1513.66 1294.19 1518.27 Q1297.27 1522.85 1297.27 1531.6 Q1297.27 1540.33 1294.19 1544.94 Q1291.13 1549.52 1285.32 1549.52 Q1279.51 1549.52 1276.43 1544.94 Q1273.38 1540.33 1273.38 1531.6 Q1273.38 1522.85 1276.43 1518.27 Q1279.51 1513.66 1285.32 1513.66 Z" fill="#000000" fill-rule="nonzero" fill-opacity="1" /><path clip-path="url(#clip110)" d="M1732.32 1514.29 L1754.54 1514.29 L1754.54 1516.28 L1741.99 1548.85 L1737.11 1548.85 L1748.91 1518.22 L1732.32 1518.22 L1732.32 1514.29 Z" fill="#000000" fill-rule="nonzero" fill-opacity="1" /><path clip-path="url(#clip110)" d="M1763.71 1514.29 L1782.06 1514.29 L1782.06 1518.22 L1767.99 1518.22 L1767.99 1526.7 Q1769.01 1526.35 1770.03 1526.19 Q1771.04 1526 1772.06 1526 Q1777.85 1526 1781.23 1529.17 Q1784.61 1532.34 1784.61 1537.76 Q1784.61 1543.34 1781.14 1546.44 Q1777.66 1549.52 1771.35 1549.52 Q1769.17 1549.52 1766.9 1549.15 Q1764.66 1548.78 1762.25 1548.04 L1762.25 1543.34 Q1764.33 1544.47 1766.55 1545.03 Q1768.78 1545.58 1771.25 1545.58 Q1775.26 1545.58 1777.59 1543.48 Q1779.93 1541.37 1779.93 1537.76 Q1779.93 1534.15 1777.59 1532.04 Q1775.26 1529.94 1771.25 1529.94 Q1769.38 1529.94 1767.5 1530.35 Q1765.65 1530.77 1763.71 1531.65 L1763.71 1514.29 Z" fill="#000000" fill-rule="nonzero" fill-opacity="1" /><path clip-path="url(#clip110)" d="M1803.82 1517.37 Q1800.21 1517.37 1798.38 1520.93 Q1796.58 1524.47 1796.58 1531.6 Q1796.58 1538.71 1798.38 1542.27 Q1800.21 1545.82 1803.82 1545.82 Q1807.46 1545.82 1809.26 1542.27 Q1811.09 1538.71 1811.09 1531.6 Q1811.09 1524.47 1809.26 1520.93 Q1807.46 1517.37 1803.82 1517.37 M1803.82 1513.66 Q1809.63 1513.66 1812.69 1518.27 Q1815.77 1522.85 1815.77 1531.6 Q1815.77 1540.33 1812.69 1544.94 Q1809.63 1549.52 1803.82 1549.52 Q1798.01 1549.52 1794.93 1544.94 Q1791.88 1540.33 1791.88 1531.6 Q1791.88 1522.85 1794.93 1518.27 Q1798.01 1513.66 1803.82 1513.66 Z" fill="#000000" fill-rule="nonzero" fill-opacity="1" /><path clip-path="url(#clip110)" d="M2237.18 1544.91 L2244.82 1544.91 L2244.82 1518.55 L2236.51 1520.21 L2236.51 1515.95 L2244.78 1514.29 L2249.45 1514.29 L2249.45 1544.91 L2257.09 1544.91 L2257.09 1548.85 L2237.18 1548.85 L2237.18 1544.91 Z" fill="#000000" fill-rule="nonzero" fill-opacity="1" /><path clip-path="url(#clip110)" d="M2276.54 1517.37 Q2272.92 1517.37 2271.1 1520.93 Q2269.29 1524.47 2269.29 1531.6 Q2269.29 1538.71 2271.1 1542.27 Q2272.92 1545.82 2276.54 1545.82 Q2280.17 1545.82 2281.98 1542.27 Q2283.8 1538.71 2283.8 1531.6 Q2283.8 1524.47 2281.98 1520.93 Q2280.17 1517.37 2276.54 1517.37 M2276.54 1513.66 Q2282.35 1513.66 2285.4 1518.27 Q2288.48 1522.85 2288.48 1531.6 Q2288.48 1540.33 2285.4 1544.94 Q2282.35 1549.52 2276.54 1549.52 Q2270.73 1549.52 2267.65 1544.94 Q2264.59 1540.33 2264.59 1531.6 Q2264.59 1522.85 2267.65 1518.27 Q2270.73 1513.66 2276.54 1513.66 Z" fill="#000000" fill-rule="nonzero" fill-opacity="1" /><path clip-path="url(#clip110)" d="M2306.7 1517.37 Q2303.09 1517.37 2301.26 1520.93 Q2299.45 1524.47 2299.45 1531.6 Q2299.45 1538.71 2301.26 1542.27 Q2303.09 1545.82 2306.7 1545.82 Q2310.33 1545.82 2312.14 1542.27 Q2313.97 1538.71 2313.97 1531.6 Q2313.97 1524.47 2312.14 1520.93 Q2310.33 1517.37 2306.7 1517.37 M2306.7 1513.66 Q2312.51 1513.66 2315.56 1518.27 Q2318.64 1522.85 2318.64 1531.6 Q2318.64 1540.33 2315.56 1544.94 Q2312.51 1549.52 2306.7 1549.52 Q2300.89 1549.52 2297.81 1544.94 Q2294.75 1540.33 2294.75 1531.6 Q2294.75 1522.85 2297.81 1518.27 Q2300.89 1513.66 2306.7 1513.66 Z" fill="#000000" fill-rule="nonzero" fill-opacity="1" /><path clip-path="url(#clip110)" d="M2336.86 1517.37 Q2333.25 1517.37 2331.42 1520.93 Q2329.61 1524.47 2329.61 1531.6 Q2329.61 1538.71 2331.42 1542.27 Q2333.25 1545.82 2336.86 1545.82 Q2340.49 1545.82 2342.3 1542.27 Q2344.13 1538.71 2344.13 1531.6 Q2344.13 1524.47 2342.3 1520.93 Q2340.49 1517.37 2336.86 1517.37 M2336.86 1513.66 Q2342.67 1513.66 2345.73 1518.27 Q2348.8 1522.85 2348.8 1531.6 Q2348.8 1540.33 2345.73 1544.94 Q2342.67 1549.52 2336.86 1549.52 Q2331.05 1549.52 2327.97 1544.94 Q2324.92 1540.33 2324.92 1531.6 Q2324.92 1522.85 2327.97 1518.27 Q2331.05 1513.66 2336.86 1513.66 Z" fill="#000000" fill-rule="nonzero" fill-opacity="1" /><polyline clip-path="url(#clip112)" style="stroke:#000000; stroke-linecap:round; stroke-linejoin:round; stroke-width:2; stroke-opacity:0.1; fill:none" points="156.02,1150.4 2352.76,1150.4 "/>
<polyline clip-path="url(#clip112)" style="stroke:#000000; stroke-linecap:round; stroke-linejoin:round; stroke-width:2; stroke-opacity:0.1; fill:none" points="156.02,790.255 2352.76,790.255 "/>
<polyline clip-path="url(#clip112)" style="stroke:#000000; stroke-linecap:round; stroke-linejoin:round; stroke-width:2; stroke-opacity:0.1; fill:none" points="156.02,430.112 2352.76,430.112 "/>
<polyline clip-path="url(#clip112)" style="stroke:#000000; stroke-linecap:round; stroke-linejoin:round; stroke-width:2; stroke-opacity:0.1; fill:none" points="156.02,69.9691 2352.76,69.9691 "/>
<polyline clip-path="url(#clip110)" style="stroke:#000000; stroke-linecap:round; stroke-linejoin:round; stroke-width:4; stroke-opacity:1; fill:none" points="156.02,1486.45 156.02,47.2441 "/>
<polyline clip-path="url(#clip110)" style="stroke:#000000; stroke-linecap:round; stroke-linejoin:round; stroke-width:4; stroke-opacity:1; fill:none" points="156.02,1150.4 174.917,1150.4 "/>
<polyline clip-path="url(#clip110)" style="stroke:#000000; stroke-linecap:round; stroke-linejoin:round; stroke-width:4; stroke-opacity:1; fill:none" points="156.02,790.255 174.917,790.255 "/>
<polyline clip-path="url(#clip110)" style="stroke:#000000; stroke-linecap:round; stroke-linejoin:round; stroke-width:4; stroke-opacity:1; fill:none" points="156.02,430.112 174.917,430.112 "/>
<polyline clip-path="url(#clip110)" style="stroke:#000000; stroke-linecap:round; stroke-linejoin:round; stroke-width:4; stroke-opacity:1; fill:none" points="156.02,69.9691 174.917,69.9691 "/>
<path clip-path="url(#clip110)" d="M63.7467 1136.2 Q60.1356 1136.2 58.3069 1139.76 Q56.5014 1143.3 56.5014 1150.43 Q56.5014 1157.54 58.3069 1161.1 Q60.1356 1164.65 63.7467 1164.65 Q67.3809 1164.65 69.1865 1161.1 Q71.0152 1157.54 71.0152 1150.43 Q71.0152 1143.3 69.1865 1139.76 Q67.3809 1136.2 63.7467 1136.2 M63.7467 1132.49 Q69.5568 1132.49 72.6124 1137.1 Q75.6911 1141.68 75.6911 1150.43 Q75.6911 1159.16 72.6124 1163.77 Q69.5568 1168.35 63.7467 1168.35 Q57.9365 1168.35 54.8578 1163.77 Q51.8023 1159.16 51.8023 1150.43 Q51.8023 1141.68 54.8578 1137.1 Q57.9365 1132.49 63.7467 1132.49 Z" fill="#000000" fill-rule="nonzero" fill-opacity="1" /><path clip-path="url(#clip110)" d="M83.9086 1161.8 L88.7928 1161.8 L88.7928 1167.68 L83.9086 1167.68 L83.9086 1161.8 Z" fill="#000000" fill-rule="nonzero" fill-opacity="1" /><path clip-path="url(#clip110)" d="M97.7974 1133.12 L120.02 1133.12 L120.02 1135.11 L107.473 1167.68 L102.589 1167.68 L114.395 1137.05 L97.7974 1137.05 L97.7974 1133.12 Z" fill="#000000" fill-rule="nonzero" fill-opacity="1" /><path clip-path="url(#clip110)" d="M62.9365 776.054 Q59.3254 776.054 57.4967 779.619 Q55.6912 783.16 55.6912 790.29 Q55.6912 797.396 57.4967 800.961 Q59.3254 804.503 62.9365 804.503 Q66.5707 804.503 68.3763 800.961 Q70.205 797.396 70.205 790.29 Q70.205 783.16 68.3763 779.619 Q66.5707 776.054 62.9365 776.054 M62.9365 772.35 Q68.7467 772.35 71.8022 776.957 Q74.8809 781.54 74.8809 790.29 Q74.8809 799.017 71.8022 803.623 Q68.7467 808.207 62.9365 808.207 Q57.1264 808.207 54.0477 803.623 Q50.9921 799.017 50.9921 790.29 Q50.9921 781.54 54.0477 776.957 Q57.1264 772.35 62.9365 772.35 Z" fill="#000000" fill-rule="nonzero" fill-opacity="1" /><path clip-path="url(#clip110)" d="M83.0984 801.656 L87.9827 801.656 L87.9827 807.535 L83.0984 807.535 L83.0984 801.656 Z" fill="#000000" fill-rule="nonzero" fill-opacity="1" /><path clip-path="url(#clip110)" d="M108.168 791.123 Q104.834 791.123 102.913 792.906 Q101.015 794.688 101.015 797.813 Q101.015 800.938 102.913 802.72 Q104.834 804.503 108.168 804.503 Q111.501 804.503 113.422 802.72 Q115.344 800.915 115.344 797.813 Q115.344 794.688 113.422 792.906 Q111.524 791.123 108.168 791.123 M103.492 789.133 Q100.483 788.392 98.7928 786.332 Q97.1261 784.272 97.1261 781.309 Q97.1261 777.165 100.066 774.758 Q103.029 772.35 108.168 772.35 Q113.33 772.35 116.27 774.758 Q119.209 777.165 119.209 781.309 Q119.209 784.272 117.52 786.332 Q115.853 788.392 112.867 789.133 Q116.246 789.92 118.121 792.211 Q120.02 794.503 120.02 797.813 Q120.02 802.836 116.941 805.521 Q113.885 808.207 108.168 808.207 Q102.45 808.207 99.3715 805.521 Q96.316 802.836 96.316 797.813 Q96.316 794.503 98.2141 792.211 Q100.112 789.92 103.492 789.133 M101.779 781.748 Q101.779 784.434 103.446 785.938 Q105.135 787.443 108.168 787.443 Q111.177 787.443 112.867 785.938 Q114.58 784.434 114.58 781.748 Q114.58 779.063 112.867 777.559 Q111.177 776.054 108.168 776.054 Q105.135 776.054 103.446 777.559 Q101.779 779.063 101.779 781.748 Z" fill="#000000" fill-rule="nonzero" fill-opacity="1" /><path clip-path="url(#clip110)" d="M63.0291 415.911 Q59.418 415.911 57.5893 419.476 Q55.7838 423.017 55.7838 430.147 Q55.7838 437.253 57.5893 440.818 Q59.418 444.36 63.0291 444.36 Q66.6633 444.36 68.4689 440.818 Q70.2976 437.253 70.2976 430.147 Q70.2976 423.017 68.4689 419.476 Q66.6633 415.911 63.0291 415.911 M63.0291 412.207 Q68.8393 412.207 71.8948 416.814 Q74.9735 421.397 74.9735 430.147 Q74.9735 438.874 71.8948 443.48 Q68.8393 448.063 63.0291 448.063 Q57.2189 448.063 54.1403 443.48 Q51.0847 438.874 51.0847 430.147 Q51.0847 421.397 54.1403 416.814 Q57.2189 412.207 63.0291 412.207 Z" fill="#000000" fill-rule="nonzero" fill-opacity="1" /><path clip-path="url(#clip110)" d="M83.191 441.513 L88.0753 441.513 L88.0753 447.392 L83.191 447.392 L83.191 441.513 Z" fill="#000000" fill-rule="nonzero" fill-opacity="1" /><path clip-path="url(#clip110)" d="M98.3993 446.675 L98.3993 442.415 Q100.159 443.249 101.964 443.689 Q103.77 444.128 105.506 444.128 Q110.135 444.128 112.566 441.026 Q115.02 437.902 115.367 431.559 Q114.024 433.55 111.964 434.614 Q109.904 435.679 107.404 435.679 Q102.219 435.679 99.1863 432.554 Q96.1771 429.406 96.1771 423.966 Q96.1771 418.642 99.3252 415.425 Q102.473 412.207 107.705 412.207 Q113.7 412.207 116.848 416.814 Q120.02 421.397 120.02 430.147 Q120.02 438.318 116.131 443.202 Q112.265 448.063 105.714 448.063 Q103.955 448.063 102.149 447.716 Q100.344 447.369 98.3993 446.675 M107.705 432.022 Q110.853 432.022 112.682 429.869 Q114.533 427.716 114.533 423.966 Q114.533 420.24 112.682 418.087 Q110.853 415.911 107.705 415.911 Q104.557 415.911 102.705 418.087 Q100.876 420.24 100.876 423.966 Q100.876 427.716 102.705 429.869 Q104.557 432.022 107.705 432.022 Z" fill="#000000" fill-rule="nonzero" fill-opacity="1" /><path clip-path="url(#clip110)" d="M53.6541 83.314 L61.293 83.314 L61.293 56.9484 L52.9829 58.615 L52.9829 54.3558 L61.2467 52.6891 L65.9226 52.6891 L65.9226 83.314 L73.5614 83.314 L73.5614 87.2491 L53.6541 87.2491 L53.6541 83.314 Z" fill="#000000" fill-rule="nonzero" fill-opacity="1" /><path clip-path="url(#clip110)" d="M83.0058 81.3695 L87.8901 81.3695 L87.8901 87.2491 L83.0058 87.2491 L83.0058 81.3695 Z" fill="#000000" fill-rule="nonzero" fill-opacity="1" /><path clip-path="url(#clip110)" d="M108.075 55.7678 Q104.464 55.7678 102.635 59.3326 Q100.83 62.8743 100.83 70.0038 Q100.83 77.1103 102.635 80.6751 Q104.464 84.2167 108.075 84.2167 Q111.709 84.2167 113.515 80.6751 Q115.344 77.1103 115.344 70.0038 Q115.344 62.8743 113.515 59.3326 Q111.709 55.7678 108.075 55.7678 M108.075 52.0641 Q113.885 52.0641 116.941 56.6706 Q120.02 61.2539 120.02 70.0038 Q120.02 78.7307 116.941 83.3371 Q113.885 87.9204 108.075 87.9204 Q102.265 87.9204 99.1863 83.3371 Q96.1308 78.7307 96.1308 70.0038 Q96.1308 61.2539 99.1863 56.6706 Q102.265 52.0641 108.075 52.0641 Z" fill="#000000" fill-rule="nonzero" fill-opacity="1" /><polyline clip-path="url(#clip112)" style="stroke:#009af9; stroke-linecap:round; stroke-linejoin:round; stroke-width:4; stroke-opacity:1; fill:none" points="218.191,1359.28 220.266,1352.08 222.34,1380.89 224.415,1406.1 226.489,1406.1 228.564,1416.9 230.638,1337.67 232.713,1445.72 234.787,1326.87 236.862,1316.06 238.936,1348.48 241.01,1344.88 243.085,1276.45 245.159,1391.69 247.234,1312.46 249.308,1377.29 251.383,1319.67 253.457,1312.46 255.532,1323.27 257.606,1262.04 259.681,1362.88 261.755,1276.45 263.83,1359.28 265.904,1240.43 267.979,1323.27 270.053,1298.06 272.127,1172.01 274.202,1377.29 276.276,1222.43 278.351,1280.05 280.425,1186.41 282.5,1370.09 284.574,1247.64 286.649,1301.66 288.723,1377.29 290.798,1290.85 292.872,1301.66 294.947,1197.22 297.021,1337.67 299.096,1190.01 301.17,1222.43 303.244,1276.45 305.319,1330.47 307.393,1258.44 309.468,1222.43 311.542,1244.04 313.617,1182.81 315.691,1204.42 317.766,1168.41 319.84,1287.25 321.915,1200.82 323.989,1168.41 326.064,1193.62 328.138,1280.05 330.213,1172.01 332.287,1269.25 334.361,1157.6 336.436,1247.64 338.51,1193.62 340.585,1143.2 342.659,1092.78 344.734,1125.19 346.808,1143.2 348.883,1060.36 350.957,1089.17 353.032,1071.17 355.106,1132.39 357.181,1114.38 359.255,1114.38 361.33,1139.59 363.404,1045.96 365.478,1024.35 367.553,1103.58 369.627,1049.56 371.702,1053.16 373.776,999.138 375.851,1006.34 377.925,1027.95 380,977.53 382.074,912.704 384.149,995.537 386.223,1009.94 388.298,1085.57 390.372,919.907 392.447,927.11 394.521,862.284 396.596,988.334 398.67,991.935 400.744,833.472 402.819,930.711 404.893,959.523 406.968,937.914 409.042,858.682 411.117,941.515 413.191,948.718 415.266,977.53 417.34,862.284 419.415,786.654 421.489,919.907 423.564,883.892 425.638,833.472 427.713,869.487 429.787,869.487 431.861,869.487 433.936,779.451 436.01,804.661 438.085,790.255 440.159,808.262 442.234,840.675 444.308,808.262 446.383,901.9 448.457,747.038 450.532,883.892 452.606,786.654 454.681,743.437 456.755,761.444 458.83,714.625 460.904,664.205 462.978,671.408 465.053,671.408 467.127,729.031 469.202,696.618 471.276,711.024 473.351,750.64 475.425,635.394 477.5,682.212 479.574,682.212 481.649,689.415 483.723,657.002 485.798,628.191 487.872,595.778 489.947,624.589 492.021,660.604 494.095,664.205 496.17,682.212 498.244,613.785 500.319,552.561 502.393,642.597 504.468,534.554 506.542,620.988 508.617,638.995 510.691,498.539 512.766,599.379 514.84,599.379 516.915,599.379 518.989,620.988 521.064,653.401 523.138,509.344 525.212,617.387 527.287,617.387 529.361,545.358 531.436,530.952 533.51,541.757 535.585,545.358 537.659,581.372 539.734,570.568 541.808,545.358 543.883,574.169 545.957,588.575 548.032,498.539 550.106,523.749 552.181,494.938 554.255,401.301 556.329,512.945 558.404,494.938 560.478,455.322 562.553,469.728 564.627,491.337 566.702,516.547 568.776,523.749 570.851,473.329 572.925,466.127 575,563.365 577.074,473.329 579.149,545.358 581.223,566.967 583.298,444.518 585.372,498.539 587.446,462.525 589.521,397.699 591.595,430.112 593.67,455.322 595.744,444.518 597.819,437.315 599.893,426.511 601.968,509.344 604.042,383.294 606.117,404.902 608.191,473.329 610.266,440.916 612.34,415.706 614.415,408.504 616.489,437.315 618.564,397.699 620.638,433.714 622.712,404.902 624.787,444.518 626.861,440.916 628.936,394.098 631.01,379.692 633.085,476.931 635.159,426.511 637.234,404.902 639.308,386.895 641.383,336.475 643.457,311.265 645.532,394.098 647.606,361.685 649.681,394.098 651.755,332.874 653.829,397.699 655.904,458.924 657.978,401.301 660.053,358.084 662.127,332.874 664.202,455.322 666.276,430.112 668.351,379.692 670.425,343.678 672.5,412.105 674.574,386.895 676.649,404.902 678.723,408.504 680.798,376.091 682.872,347.279 684.946,340.076 687.021,376.091 689.095,386.895 691.17,365.286 693.244,365.286 695.319,412.105 697.393,408.504 699.468,365.286 701.542,358.084 703.617,368.888 705.691,365.286 707.766,329.272 709.84,332.874 711.915,282.454 713.989,376.091 716.063,304.062 718.138,322.069 720.212,282.454 722.287,325.671 724.361,354.482 726.436,332.874 728.51,325.671 730.585,350.881 732.659,289.656 734.734,296.859 736.808,343.678 738.883,282.454 740.957,278.852 743.032,304.062 745.106,307.664 747.18,286.055 749.255,296.859 751.329,278.852 753.404,325.671 755.478,318.468 757.553,304.062 759.627,296.859 761.702,268.048 763.776,296.859 765.851,300.461 767.925,271.649 770,268.048 772.074,250.041 774.149,322.069 776.223,289.656 778.297,314.866 780.372,228.432 782.446,336.475 784.521,311.265 786.595,253.642 788.67,289.656 790.744,300.461 792.819,275.251 794.893,325.671 796.968,296.859 799.042,250.041 801.117,253.642 803.191,282.454 805.266,304.062 807.34,300.461 809.414,250.041 811.489,340.076 813.563,228.432 815.638,268.048 817.712,250.041 819.787,289.656 821.861,264.446 823.936,260.845 826.01,232.034 828.085,260.845 830.159,257.244 832.234,275.251 834.308,203.222 836.383,293.258 838.457,311.265 840.531,250.041 842.606,232.034 844.68,300.461 846.755,242.838 848.829,235.635 850.904,224.831 852.978,282.454 855.053,257.244 857.127,300.461 859.202,239.236 861.276,282.454 863.351,264.446 865.425,246.439 867.5,235.635 869.574,271.649 871.649,260.845 873.723,268.048 875.797,228.432 877.872,275.251 879.946,228.432 882.021,253.642 884.095,264.446 886.17,224.831 888.244,217.628 890.319,203.222 892.393,246.439 894.468,250.041 896.542,264.446 898.617,228.432 900.691,214.026 902.766,210.425 904.84,242.838 906.914,271.649 908.989,260.845 911.063,224.831 913.138,242.838 915.212,296.859 917.287,232.034 919.361,228.432 921.436,217.628 923.51,246.439 925.585,196.019 927.659,228.432 929.734,214.026 931.808,199.621 933.883,210.425 935.957,246.439 938.031,203.222 940.106,242.838 942.18,196.019 944.255,260.845 946.329,206.823 948.404,242.838 950.478,206.823 952.553,257.244 954.627,253.642 956.702,282.454 958.776,203.222 960.851,224.831 962.925,214.026 965,250.041 967.074,246.439 969.148,178.012 971.223,235.635 973.297,217.628 975.372,217.628 977.446,232.034 979.521,203.222 981.595,232.034 983.67,242.838 985.744,203.222 987.819,185.215 989.893,192.418 991.968,232.034 994.042,188.816 996.117,224.831 998.191,167.208 1000.27,224.831 1002.34,214.026 1004.41,217.628 1006.49,224.831 1008.56,185.215 1010.64,192.418 1012.71,257.244 1014.79,174.411 1016.86,203.222 1018.94,192.418 1021.01,257.244 1023.08,199.621 1025.16,210.425 1027.23,221.229 1029.31,206.823 1031.38,246.439 1033.46,235.635 1035.53,221.229 1037.61,206.823 1039.68,138.396 1041.75,167.208 1043.83,239.236 1045.9,167.208 1047.98,210.425 1050.05,214.026 1052.13,170.809 1054.2,221.229 1056.28,192.418 1058.35,192.418 1060.43,239.236 1062.5,170.809 1064.57,228.432 1066.65,210.425 1068.72,188.816 1070.8,178.012 1072.87,203.222 1074.95,192.418 1077.02,163.606 1079.1,188.816 1081.17,199.621 1083.24,178.012 1085.32,196.019 1087.39,174.411 1089.47,217.628 1091.54,188.816 1093.62,210.425 1095.69,203.222 1097.77,188.816 1099.84,196.019 1101.91,196.019 1103.99,170.809 1106.06,203.222 1108.14,178.012 1110.21,203.222 1112.29,242.838 1114.36,188.816 1116.44,196.019 1118.51,185.215 1120.58,228.432 1122.66,145.599 1124.73,203.222 1126.81,224.831 1128.88,199.621 1130.96,199.621 1133.03,217.628 1135.11,214.026 1137.18,192.418 1139.25,160.005 1141.33,199.621 1143.4,181.613 1145.48,221.229 1147.55,178.012 1149.63,199.621 1151.7,178.012 1153.78,163.606 1155.85,181.613 1157.92,199.621 1160,163.606 1162.07,185.215 1164.15,185.215 1166.22,185.215 1168.3,181.613 1170.37,170.809 1172.45,199.621 1174.52,221.229 1176.6,174.411 1178.67,152.802 1180.74,206.823 1182.82,163.606 1184.89,214.026 1186.97,160.005 1189.04,160.005 1191.12,149.201 1193.19,214.026 1195.27,185.215 1197.34,188.816 1199.41,149.201 1201.49,163.606 1203.56,188.816 1205.64,156.403 1207.71,181.613 1209.79,192.418 1211.86,163.606 1213.94,149.201 1216.01,174.411 1218.08,141.998 1220.16,196.019 1222.23,192.418 1224.31,199.621 1226.38,149.201 1228.46,192.418 1230.53,206.823 1232.61,217.628 1234.68,192.418 1236.75,163.606 1238.83,206.823 1240.9,206.823 1242.98,188.816 1245.05,156.403 1247.13,185.215 1249.2,185.215 1251.28,160.005 1253.35,160.005 1255.42,174.411 1257.5,199.621 1259.57,188.816 1261.65,174.411 1263.72,170.809 1265.8,174.411 1267.87,174.411 1269.95,152.802 1272.02,160.005 1274.1,192.418 1276.17,181.613 1278.24,174.411 1280.32,188.816 1282.39,203.222 1284.47,167.208 1286.54,160.005 1288.62,149.201 1290.69,199.621 1292.77,152.802 1294.84,145.599 1296.91,167.208 1298.99,160.005 1301.06,138.396 1303.14,152.802 1305.21,167.208 1307.29,152.802 1309.36,199.621 1311.44,149.201 1313.51,141.998 1315.58,163.606 1317.66,170.809 1319.73,167.208 1321.81,145.599 1323.88,185.215 1325.96,170.809 1328.03,210.425 1330.11,152.802 1332.18,170.809 1334.25,167.208 1336.33,163.606 1338.4,167.208 1340.48,170.809 1342.55,152.802 1344.63,181.613 1346.7,174.411 1348.78,152.802 1350.85,167.208 1352.92,170.809 1355,181.613 1357.07,156.403 1359.15,149.201 1361.22,109.585 1363.3,163.606 1365.37,181.613 1367.45,181.613 1369.52,188.816 1371.6,167.208 1373.67,163.606 1375.74,127.592 1377.82,167.208 1379.89,156.403 1381.97,181.613 1384.04,160.005 1386.12,141.998 1388.19,185.215 1390.27,145.599 1392.34,152.802 1394.41,156.403 1396.49,170.809 1398.56,156.403 1400.64,134.795 1402.71,163.606 1404.79,170.809 1406.86,152.802 1408.94,174.411 1411.01,152.802 1413.08,174.411 1415.16,185.215 1417.23,160.005 1419.31,156.403 1421.38,131.193 1423.46,138.396 1425.53,167.208 1427.61,178.012 1429.68,138.396 1431.75,127.592 1433.83,145.599 1435.9,167.208 1437.98,127.592 1440.05,141.998 1442.13,167.208 1444.2,138.396 1446.28,149.201 1448.35,152.802 1450.42,156.403 1452.5,160.005 1454.57,167.208 1456.65,160.005 1458.72,167.208 1460.8,152.802 1462.87,167.208 1464.95,174.411 1467.02,160.005 1469.1,113.186 1471.17,160.005 1473.24,120.389 1475.32,149.201 1477.39,192.418 1479.47,152.802 1481.54,138.396 1483.62,156.403 1485.69,152.802 1487.77,178.012 1489.84,174.411 1491.91,174.411 1493.99,152.802 1496.06,149.201 1498.14,170.809 1500.21,149.201 1502.29,163.606 1504.36,163.606 1506.44,167.208 1508.51,167.208 1510.58,160.005 1512.66,149.201 1514.73,138.396 1516.81,141.998 1518.88,134.795 1520.96,120.389 1523.03,134.795 1525.11,163.606 1527.18,127.592 1529.25,160.005 1531.33,160.005 1533.4,123.991 1535.48,149.201 1537.55,149.201 1539.63,141.998 1541.7,163.606 1543.78,134.795 1545.85,152.802 1547.92,170.809 1550,141.998 1552.07,131.193 1554.15,170.809 1556.22,192.418 1558.3,127.592 1560.37,138.396 1562.45,141.998 1564.52,156.403 1566.6,138.396 1568.67,178.012 1570.74,160.005 1572.82,141.998 1574.89,152.802 1576.97,141.998 1579.04,131.193 1581.12,145.599 1583.19,145.599 1585.27,109.585 1587.34,109.585 1589.41,138.396 1591.49,156.403 1593.56,131.193 1595.64,123.991 1597.71,160.005 1599.79,149.201 1601.86,152.802 1603.94,149.201 1606.01,131.193 1608.08,163.606 1610.16,127.592 1612.23,138.396 1614.31,167.208 1616.38,120.389 1618.46,138.396 1620.53,141.998 1622.61,138.396 1624.68,149.201 1626.75,149.201 1628.83,131.193 1630.9,116.788 1632.98,116.788 1635.05,152.802 1637.13,138.396 1639.2,131.193 1641.28,145.599 1643.35,145.599 1645.42,152.802 1647.5,156.403 1649.57,131.193 1651.65,127.592 1653.72,138.396 1655.8,131.193 1657.87,149.201 1659.95,145.599 1662.02,123.991 1664.1,138.396 1666.17,145.599 1668.24,145.599 1670.32,163.606 1672.39,131.193 1674.47,141.998 1676.54,167.208 1678.62,123.991 1680.69,149.201 1682.77,141.998 1684.84,181.613 1686.91,152.802 1688.99,145.599 1691.06,138.396 1693.14,156.403 1695.21,156.403 1697.29,160.005 1699.36,113.186 1701.44,141.998 1703.51,152.802 1705.58,145.599 1707.66,120.389 1709.73,134.795 1711.81,152.802 1713.88,141.998 1715.96,178.012 1718.03,131.193 1720.11,113.186 1722.18,127.592 1724.25,167.208 1726.33,113.186 1728.4,149.201 1730.48,127.592 1732.55,152.802 1734.63,145.599 1736.7,149.201 1738.78,134.795 1740.85,141.998 1742.92,123.991 1745,123.991 1747.07,160.005 1749.15,131.193 1751.22,109.585 1753.3,131.193 1755.37,156.403 1757.45,116.788 1759.52,149.201 1761.59,152.802 1763.67,141.998 1765.74,131.193 1767.82,134.795 1769.89,123.991 1771.97,149.201 1774.04,127.592 1776.12,131.193 1778.19,156.403 1780.27,138.396 1782.34,145.599 1784.41,178.012 1786.49,145.599 1788.56,123.991 1790.64,145.599 1792.71,113.186 1794.79,167.208 1796.86,145.599 1798.94,131.193 1801.01,134.795 1803.08,163.606 1805.16,120.389 1807.23,138.396 1809.31,131.193 1811.38,160.005 1813.46,120.389 1815.53,156.403 1817.61,134.795 1819.68,109.585 1821.75,131.193 1823.83,178.012 1825.9,145.599 1827.98,127.592 1830.05,149.201 1832.13,91.5777 1834.2,127.592 1836.28,138.396 1838.35,149.201 1840.42,127.592 1842.5,167.208 1844.57,149.201 1846.65,138.396 1848.72,134.795 1850.8,116.788 1852.87,113.186 1854.95,116.788 1857.02,152.802 1859.09,127.592 1861.17,123.991 1863.24,145.599 1865.32,127.592 1867.39,131.193 1869.47,134.795 1871.54,152.802 1873.62,131.193 1875.69,109.585 1877.77,160.005 1879.84,134.795 1881.91,141.998 1883.99,123.991 1886.06,123.991 1888.14,134.795 1890.21,141.998 1892.29,109.585 1894.36,127.592 1896.44,149.201 1898.51,141.998 1900.58,127.592 1902.66,127.592 1904.73,127.592 1906.81,138.396 1908.88,127.592 1910.96,113.186 1913.03,127.592 1915.11,120.389 1917.18,138.396 1919.25,116.788 1921.33,138.396 1923.4,109.585 1925.48,127.592 1927.55,116.788 1929.63,145.599 1931.7,134.795 1933.78,120.389 1935.85,152.802 1937.92,149.201 1940,123.991 1942.07,113.186 1944.15,123.991 1946.22,131.193 1948.3,152.802 1950.37,123.991 1952.45,120.389 1954.52,141.998 1956.59,141.998 1958.67,116.788 1960.74,141.998 1962.82,109.585 1964.89,131.193 1966.97,131.193 1969.04,116.788 1971.12,170.809 1973.19,109.585 1975.27,141.998 1977.34,149.201 1979.41,109.585 1981.49,113.186 1983.56,120.389 1985.64,127.592 1987.71,116.788 1989.79,120.389 1991.86,120.389 1993.94,141.998 1996.01,116.788 1998.08,134.795 2000.16,95.1791 2002.23,127.592 2004.31,127.592 2006.38,167.208 2008.46,141.998 2010.53,134.795 2012.61,134.795 2014.68,134.795 2016.75,116.788 2018.83,138.396 2020.9,131.193 2022.98,134.795 2025.05,131.193 2027.13,141.998 2029.2,141.998 2031.28,138.396 2033.35,134.795 2035.42,134.795 2037.5,123.991 2039.57,141.998 2041.65,160.005 2043.72,131.193 2045.8,156.403 2047.87,160.005 2049.95,116.788 2052.02,141.998 2054.09,131.193 2056.17,98.7806 2058.24,116.788 2060.32,123.991 2062.39,145.599 2064.47,109.585 2066.54,109.585 2068.62,127.592 2070.69,134.795 2072.77,120.389 2074.84,134.795 2076.91,131.193 2078.99,123.991 2081.06,98.7806 2083.14,127.592 2085.21,138.396 2087.29,127.592 2089.36,141.998 2091.44,138.396 2093.51,120.389 2095.58,116.788 2097.66,131.193 2099.73,134.795 2101.81,113.186 2103.88,109.585 2105.96,131.193 2108.03,102.382 2110.11,109.585 2112.18,123.991 2114.25,134.795 2116.33,131.193 2118.4,127.592 2120.48,138.396 2122.55,120.389 2124.63,134.795 2126.7,120.389 2128.78,134.795 2130.85,120.389 2132.92,127.592 2135,123.991 2137.07,116.788 2139.15,141.998 2141.22,123.991 2143.3,138.396 2145.37,105.983 2147.45,113.186 2149.52,98.7806 2151.59,113.186 2153.67,141.998 2155.74,134.795 2157.82,116.788 2159.89,102.382 2161.97,95.1791 2164.04,131.193 2166.12,113.186 2168.19,116.788 2170.27,152.802 2172.34,120.389 2174.41,95.1791 2176.49,138.396 2178.56,113.186 2180.64,120.389 2182.71,127.592 2184.79,116.788 2186.86,131.193 2188.94,105.983 2191.01,131.193 2193.08,131.193 2195.16,149.201 2197.23,141.998 2199.31,113.186 2201.38,127.592 2203.46,120.389 2205.53,134.795 2207.61,163.606 2209.68,116.788 2211.75,113.186 2213.83,138.396 2215.9,105.983 2217.98,163.606 2220.05,120.389 2222.13,127.592 2224.2,123.991 2226.28,113.186 2228.35,123.991 2230.42,123.991 2232.5,109.585 2234.57,109.585 2236.65,127.592 2238.72,141.998 2240.8,116.788 2242.87,141.998 2244.95,127.592 2247.02,138.396 2249.09,116.788 2251.17,138.396 2253.24,127.592 2255.32,113.186 2257.39,109.585 2259.47,102.382 2261.54,87.9763 2263.62,113.186 2265.69,116.788 2267.76,116.788 2269.84,127.592 2271.91,109.585 2273.99,134.795 2276.06,105.983 2278.14,131.193 2280.21,138.396 2282.29,91.5777 2284.36,113.186 2286.44,138.396 2288.51,131.193 2290.58,102.382 "/>
<path clip-path="url(#clip110)" d="M2007.43 1438.47 L2279.53 1438.47 L2279.53 1334.79 L2007.43 1334.79  Z" fill="#ffffff" fill-rule="evenodd" fill-opacity="1"/>
<polyline clip-path="url(#clip110)" style="stroke:#000000; stroke-linecap:round; stroke-linejoin:round; stroke-width:4; stroke-opacity:1; fill:none" points="2007.43,1438.47 2279.53,1438.47 2279.53,1334.79 2007.43,1334.79 2007.43,1438.47 "/>
<polyline clip-path="url(#clip110)" style="stroke:#009af9; stroke-linecap:round; stroke-linejoin:round; stroke-width:4; stroke-opacity:1; fill:none" points="2031.84,1386.63 2178.28,1386.63 "/>
<path clip-path="url(#clip110)" d="M2216.54 1406.32 Q2214.73 1410.95 2213.02 1412.36 Q2211.3 1413.78 2208.43 1413.78 L2205.03 1413.78 L2205.03 1410.21 L2207.53 1410.21 Q2209.29 1410.21 2210.26 1409.38 Q2211.23 1408.54 2212.42 1405.44 L2213.18 1403.5 L2202.69 1377.99 L2207.21 1377.99 L2215.31 1398.27 L2223.41 1377.99 L2227.92 1377.99 L2216.54 1406.32 Z" fill="#000000" fill-rule="nonzero" fill-opacity="1" /><path clip-path="url(#clip110)" d="M2235.22 1399.98 L2242.85 1399.98 L2242.85 1373.61 L2234.54 1375.28 L2234.54 1371.02 L2242.81 1369.35 L2247.48 1369.35 L2247.48 1399.98 L2255.12 1399.98 L2255.12 1403.91 L2235.22 1403.91 L2235.22 1399.98 Z" fill="#000000" fill-rule="nonzero" fill-opacity="1" /></svg>
