<?xml version="1.0" encoding="utf-8"?>
<svg xmlns="http://www.w3.org/2000/svg" xmlns:xlink="http://www.w3.org/1999/xlink" width="600" height="400" viewBox="0 0 2400 1600">
<defs>
  <clipPath id="clip710">
    <rect x="0" y="0" width="2400" height="1600"/>
  </clipPath>
</defs>
<path clip-path="url(#clip710)" d="M0 1600 L2400 1600 L2400 0 L0 0  Z" fill="#ffffff" fill-rule="evenodd" fill-opacity="1"/>
<defs>
  <clipPath id="clip711">
    <rect x="480" y="0" width="1681" height="1600"/>
  </clipPath>
</defs>
<path clip-path="url(#clip710)" d="M397.839 1305.8 L1990.69 1305.8 L1990.69 110.236 L397.839 110.236  Z" fill="#ffffff" fill-rule="evenodd" fill-opacity="1"/>
<defs>
  <clipPath id="clip712">
    <rect x="397" y="110" width="1594" height="1197"/>
  </clipPath>
</defs>
<polyline clip-path="url(#clip712)" style="stroke:#000000; stroke-linecap:round; stroke-linejoin:round; stroke-width:2; stroke-opacity:0.1; fill:none" points="427.741,1305.8 427.741,110.236 "/>
<polyline clip-path="url(#clip712)" style="stroke:#000000; stroke-linecap:round; stroke-linejoin:round; stroke-width:2; stroke-opacity:0.1; fill:none" points="807.207,1305.8 807.207,110.236 "/>
<polyline clip-path="url(#clip712)" style="stroke:#000000; stroke-linecap:round; stroke-linejoin:round; stroke-width:2; stroke-opacity:0.1; fill:none" points="1186.67,1305.8 1186.67,110.236 "/>
<polyline clip-path="url(#clip712)" style="stroke:#000000; stroke-linecap:round; stroke-linejoin:round; stroke-width:2; stroke-opacity:0.1; fill:none" points="1566.14,1305.8 1566.14,110.236 "/>
<polyline clip-path="url(#clip712)" style="stroke:#000000; stroke-linecap:round; stroke-linejoin:round; stroke-width:2; stroke-opacity:0.1; fill:none" points="1945.61,1305.8 1945.61,110.236 "/>
<polyline clip-path="url(#clip710)" style="stroke:#000000; stroke-linecap:round; stroke-linejoin:round; stroke-width:4; stroke-opacity:1; fill:none" points="397.839,1305.8 1990.69,1305.8 "/>
<polyline clip-path="url(#clip710)" style="stroke:#000000; stroke-linecap:round; stroke-linejoin:round; stroke-width:4; stroke-opacity:1; fill:none" points="427.741,1305.8 427.741,1286.9 "/>
<polyline clip-path="url(#clip710)" style="stroke:#000000; stroke-linecap:round; stroke-linejoin:round; stroke-width:4; stroke-opacity:1; fill:none" points="807.207,1305.8 807.207,1286.9 "/>
<polyline clip-path="url(#clip710)" style="stroke:#000000; stroke-linecap:round; stroke-linejoin:round; stroke-width:4; stroke-opacity:1; fill:none" points="1186.67,1305.8 1186.67,1286.9 "/>
<polyline clip-path="url(#clip710)" style="stroke:#000000; stroke-linecap:round; stroke-linejoin:round; stroke-width:4; stroke-opacity:1; fill:none" points="1566.14,1305.8 1566.14,1286.9 "/>
<polyline clip-path="url(#clip710)" style="stroke:#000000; stroke-linecap:round; stroke-linejoin:round; stroke-width:4; stroke-opacity:1; fill:none" points="1945.61,1305.8 1945.61,1286.9 "/>
<g clip-path="url(#clip710)">
<text style="fill:#000000; fill-opacity:1; font-family:Book Antiqua,Palatino,Palatino Linotype,Palatino LT STD,Georgia,serif; font-size:94px; text-anchor:middle;" transform="rotate(0, 427.741, 1408.68)" x="427.741" y="1408.68">0</text>
</g>
<g clip-path="url(#clip710)">
<text style="fill:#000000; fill-opacity:1; font-family:Book Antiqua,Palatino,Palatino Linotype,Palatino LT STD,Georgia,serif; font-size:94px; text-anchor:middle;" transform="rotate(0, 807.207, 1408.68)" x="807.207" y="1408.68">25</text>
</g>
<g clip-path="url(#clip710)">
<text style="fill:#000000; fill-opacity:1; font-family:Book Antiqua,Palatino,Palatino Linotype,Palatino LT STD,Georgia,serif; font-size:94px; text-anchor:middle;" transform="rotate(0, 1186.67, 1408.68)" x="1186.67" y="1408.68">50</text>
</g>
<g clip-path="url(#clip710)">
<text style="fill:#000000; fill-opacity:1; font-family:Book Antiqua,Palatino,Palatino Linotype,Palatino LT STD,Georgia,serif; font-size:94px; text-anchor:middle;" transform="rotate(0, 1566.14, 1408.68)" x="1566.14" y="1408.68">75</text>
</g>
<g clip-path="url(#clip710)">
<text style="fill:#000000; fill-opacity:1; font-family:Book Antiqua,Palatino,Palatino Linotype,Palatino LT STD,Georgia,serif; font-size:94px; text-anchor:middle;" transform="rotate(0, 1945.61, 1408.68)" x="1945.61" y="1408.68">100</text>
</g>
<g clip-path="url(#clip710)">
<text style="fill:#000000; fill-opacity:1; font-family:Book Antiqua,Palatino,Palatino Linotype,Palatino LT STD,Georgia,serif; font-size:94px; text-anchor:middle;" transform="rotate(0, 1194.26, 1533.5)" x="1194.26" y="1533.5">Epochs</text>
</g>
<polyline clip-path="url(#clip712)" style="stroke:#000000; stroke-linecap:round; stroke-linejoin:round; stroke-width:2; stroke-opacity:0.1; fill:none" points="397.839,1271.96 1990.69,1271.96 "/>
<polyline clip-path="url(#clip712)" style="stroke:#000000; stroke-linecap:round; stroke-linejoin:round; stroke-width:2; stroke-opacity:0.1; fill:none" points="397.839,989.991 1990.69,989.991 "/>
<polyline clip-path="url(#clip712)" style="stroke:#000000; stroke-linecap:round; stroke-linejoin:round; stroke-width:2; stroke-opacity:0.1; fill:none" points="397.839,708.018 1990.69,708.018 "/>
<polyline clip-path="url(#clip712)" style="stroke:#000000; stroke-linecap:round; stroke-linejoin:round; stroke-width:2; stroke-opacity:0.1; fill:none" points="397.839,426.046 1990.69,426.046 "/>
<polyline clip-path="url(#clip712)" style="stroke:#000000; stroke-linecap:round; stroke-linejoin:round; stroke-width:2; stroke-opacity:0.1; fill:none" points="397.839,144.073 1990.69,144.073 "/>
<polyline clip-path="url(#clip710)" style="stroke:#000000; stroke-linecap:round; stroke-linejoin:round; stroke-width:4; stroke-opacity:1; fill:none" points="397.839,1305.8 397.839,110.236 "/>
<polyline clip-path="url(#clip710)" style="stroke:#000000; stroke-linecap:round; stroke-linejoin:round; stroke-width:4; stroke-opacity:1; fill:none" points="397.839,1271.96 413.749,1271.96 "/>
<polyline clip-path="url(#clip710)" style="stroke:#000000; stroke-linecap:round; stroke-linejoin:round; stroke-width:4; stroke-opacity:1; fill:none" points="397.839,989.991 413.749,989.991 "/>
<polyline clip-path="url(#clip710)" style="stroke:#000000; stroke-linecap:round; stroke-linejoin:round; stroke-width:4; stroke-opacity:1; fill:none" points="397.839,708.018 413.749,708.018 "/>
<polyline clip-path="url(#clip710)" style="stroke:#000000; stroke-linecap:round; stroke-linejoin:round; stroke-width:4; stroke-opacity:1; fill:none" points="397.839,426.046 413.749,426.046 "/>
<polyline clip-path="url(#clip710)" style="stroke:#000000; stroke-linecap:round; stroke-linejoin:round; stroke-width:4; stroke-opacity:1; fill:none" points="397.839,144.073 413.749,144.073 "/>
<g clip-path="url(#clip710)">
<text style="fill:#000000; fill-opacity:1; font-family:Book Antiqua,Palatino,Palatino Linotype,Palatino LT STD,Georgia,serif; font-size:94px; text-anchor:middle;" transform="rotate(0, 279.902, 1304.46)" x="279.902" y="1304.46">0.00</text>
</g>
<g clip-path="url(#clip710)">
<text style="fill:#000000; fill-opacity:1; font-family:Book Antiqua,Palatino,Palatino Linotype,Palatino LT STD,Georgia,serif; font-size:94px; text-anchor:middle;" transform="rotate(0, 279.902, 1022.49)" x="279.902" y="1022.49">0.25</text>
</g>
<g clip-path="url(#clip710)">
<text style="fill:#000000; fill-opacity:1; font-family:Book Antiqua,Palatino,Palatino Linotype,Palatino LT STD,Georgia,serif; font-size:94px; text-anchor:middle;" transform="rotate(0, 279.902, 740.518)" x="279.902" y="740.518">0.50</text>
</g>
<g clip-path="url(#clip710)">
<text style="fill:#000000; fill-opacity:1; font-family:Book Antiqua,Palatino,Palatino Linotype,Palatino LT STD,Georgia,serif; font-size:94px; text-anchor:middle;" transform="rotate(0, 279.902, 458.546)" x="279.902" y="458.546">0.75</text>
</g>
<g clip-path="url(#clip710)">
<text style="fill:#000000; fill-opacity:1; font-family:Book Antiqua,Palatino,Palatino Linotype,Palatino LT STD,Georgia,serif; font-size:94px; text-anchor:middle;" transform="rotate(0, 279.902, 176.573)" x="279.902" y="176.573">1.00</text>
</g>
<g clip-path="url(#clip710)">
<text style="fill:#000000; fill-opacity:1; font-family:Book Antiqua,Palatino,Palatino Linotype,Palatino LT STD,Georgia,serif; font-size:94px; text-anchor:middle;" transform="rotate(-90, 137.616, 708.018)" x="137.616" y="708.018">Probability</text>
</g>
<path clip-path="url(#clip712)" d="M442.919 1257.07 L458.098 1254.81 L473.277 1253.65 L488.455 1252.47 L503.634 1251.48 L518.812 1250.02 L533.991 1248.36 L549.17 1247.03 L564.348 1245.68 L579.527 1244.01 L594.706 1242.19 L609.884 1240.46 L625.063 1237.95 L640.242 1235.88 L655.42 1233.2 L670.599 1231.39 L685.778 1229.4 L700.956 1227.57 L716.135 1224.22 L731.314 1221.89 L746.492 1219.09 L761.671 1215.94 L776.85 1213.29 L792.028 1210.92 L807.207 1208.46 L822.386 1205.65 L837.564 1204.73 L852.743 1202.51 L867.921 1200.14 L883.1 1198.03 L898.279 1195.06 L913.457 1193.88 L928.636 1192.23 L943.815 1189.41 L958.993 1187.01 L974.172 1185.47 L989.351 1184.79 L1004.53 1182.53 L1019.71 1179.51 L1034.89 1177.66 L1050.07 1175.86 L1065.24 1174.77 L1080.42 1171.41 L1095.6 1169.67 L1110.78 1168.5 L1125.96 1166.47 L1141.14 1166.4 L1156.32 1163.92 L1171.49 1164.03 L1186.67 1161.36 L1201.85 1159.73 L1217.03 1160.03 L1232.21 1158.23 L1247.39 1157.82 L1262.57 1157.4 L1277.75 1154.81 L1292.92 1153.52 L1308.1 1149.7 L1323.28 1148.73 L1338.46 1147.29 L1353.64 1148.61 L1368.82 1147.98 L1384 1146.29 L1399.17 1145.07 L1414.35 1146.15 L1429.53 1147.41 L1444.71 1147.07 L1459.89 1146.94 L1475.07 1146.69 L1490.25 1144.94 L1505.42 1145.14 L1520.6 1142.02 L1535.78 1142.27 L1550.96 1141.06 L1566.14 1139.02 L1581.32 1139.38 L1596.5 1138.85 L1611.68 1137.69 L1626.85 1137.37 L1642.03 1137.4 L1657.21 1137.16 L1672.39 1137.09 L1687.57 1136.13 L1702.75 1135.35 L1717.93 1134.91 L1733.1 1134.5 L1748.28 1135.19 L1763.46 1134.03 L1778.64 1131.81 L1793.82 1133.07 L1809 1130.61 L1824.18 1132.25 L1839.36 1131.62 L1854.53 1130.77 L1869.71 1130.8 L1884.89 1133.1 L1900.07 1133.83 L1915.25 1132.92 L1930.43 1133.11 L1945.61 1132.48 L1945.61 1271.96 L1930.43 1271.96 L1915.25 1271.96 L1900.07 1271.96 L1884.89 1271.96 L1869.71 1271.96 L1854.53 1271.96 L1839.36 1271.96 L1824.18 1271.96 L1809 1271.96 L1793.82 1271.96 L1778.64 1271.96 L1763.46 1271.96 L1748.28 1271.96 L1733.1 1271.96 L1717.93 1271.96 L1702.75 1271.96 L1687.57 1271.96 L1672.39 1271.96 L1657.21 1271.96 L1642.03 1271.96 L1626.85 1271.96 L1611.68 1271.96 L1596.5 1271.96 L1581.32 1271.96 L1566.14 1271.96 L1550.96 1271.96 L1535.78 1271.96 L1520.6 1271.96 L1505.42 1271.96 L1490.25 1271.96 L1475.07 1271.96 L1459.89 1271.96 L1444.71 1271.96 L1429.53 1271.96 L1414.35 1271.96 L1399.17 1271.96 L1384 1271.96 L1368.82 1271.96 L1353.64 1271.96 L1338.46 1271.96 L1323.28 1271.96 L1308.1 1271.96 L1292.92 1271.96 L1277.75 1271.96 L1262.57 1271.96 L1247.39 1271.96 L1232.21 1271.96 L1217.03 1271.96 L1201.85 1271.96 L1186.67 1271.96 L1171.49 1271.96 L1156.32 1271.96 L1141.14 1271.96 L1125.96 1271.96 L1110.78 1271.96 L1095.6 1271.96 L1080.42 1271.96 L1065.24 1271.96 L1050.07 1271.96 L1034.89 1271.96 L1019.71 1271.96 L1004.53 1271.96 L989.351 1271.96 L974.172 1271.96 L958.993 1271.96 L943.815 1271.96 L928.636 1271.96 L913.457 1271.96 L898.279 1271.96 L883.1 1271.96 L867.921 1271.96 L852.743 1271.96 L837.564 1271.96 L822.386 1271.96 L807.207 1271.96 L792.028 1271.96 L776.85 1271.96 L761.671 1271.96 L746.492 1271.96 L731.314 1271.96 L716.135 1271.96 L700.956 1271.96 L685.778 1271.96 L670.599 1271.96 L655.42 1271.96 L640.242 1271.96 L625.063 1271.96 L609.884 1271.96 L594.706 1271.96 L579.527 1271.96 L564.348 1271.96 L549.17 1271.96 L533.991 1271.96 L518.812 1271.96 L503.634 1271.96 L488.455 1271.96 L473.277 1271.96 L458.098 1271.96 L442.919 1271.96  Z" fill="#032333" fill-rule="evenodd" fill-opacity="1"/>
<polyline clip-path="url(#clip712)" style="stroke:#032333; stroke-linecap:round; stroke-linejoin:round; stroke-width:4; stroke-opacity:1; fill:none" points="442.919,1257.07 458.098,1254.81 473.277,1253.65 488.455,1252.47 503.634,1251.48 518.812,1250.02 533.991,1248.36 549.17,1247.03 564.348,1245.68 579.527,1244.01 594.706,1242.19 609.884,1240.46 625.063,1237.95 640.242,1235.88 655.42,1233.2 670.599,1231.39 685.778,1229.4 700.956,1227.57 716.135,1224.22 731.314,1221.89 746.492,1219.09 761.671,1215.94 776.85,1213.29 792.028,1210.92 807.207,1208.46 822.386,1205.65 837.564,1204.73 852.743,1202.51 867.921,1200.14 883.1,1198.03 898.279,1195.06 913.457,1193.88 928.636,1192.23 943.815,1189.41 958.993,1187.01 974.172,1185.47 989.351,1184.79 1004.53,1182.53 1019.71,1179.51 1034.89,1177.66 1050.07,1175.86 1065.24,1174.77 1080.42,1171.41 1095.6,1169.67 1110.78,1168.5 1125.96,1166.47 1141.14,1166.4 1156.32,1163.92 1171.49,1164.03 1186.67,1161.36 1201.85,1159.73 1217.03,1160.03 1232.21,1158.23 1247.39,1157.82 1262.57,1157.4 1277.75,1154.81 1292.92,1153.52 1308.1,1149.7 1323.28,1148.73 1338.46,1147.29 1353.64,1148.61 1368.82,1147.98 1384,1146.29 1399.17,1145.07 1414.35,1146.15 1429.53,1147.41 1444.71,1147.07 1459.89,1146.94 1475.07,1146.69 1490.25,1144.94 1505.42,1145.14 1520.6,1142.02 1535.78,1142.27 1550.96,1141.06 1566.14,1139.02 1581.32,1139.38 1596.5,1138.85 1611.68,1137.69 1626.85,1137.37 1642.03,1137.4 1657.21,1137.16 1672.39,1137.09 1687.57,1136.13 1702.75,1135.35 1717.93,1134.91 1733.1,1134.5 1748.28,1135.19 1763.46,1134.03 1778.64,1131.81 1793.82,1133.07 1809,1130.61 1824.18,1132.25 1839.36,1131.62 1854.53,1130.77 1869.71,1130.8 1884.89,1133.1 1900.07,1133.83 1915.25,1132.92 1930.43,1133.11 1945.61,1132.48 "/>
<path clip-path="url(#clip712)" d="M442.919 1254.13 L458.098 1251.32 L473.277 1249.74 L488.455 1248.08 L503.634 1246.62 L518.812 1244.66 L533.991 1242.4 L549.17 1240.52 L564.348 1238.61 L579.527 1236.22 L594.706 1233.47 L609.884 1230.76 L625.063 1227.1 L640.242 1223.72 L655.42 1219.59 L670.599 1216.4 L685.778 1213.11 L700.956 1210.07 L716.135 1204.89 L731.314 1200.8 L746.492 1196.29 L761.671 1190.74 L776.85 1186.11 L792.028 1181.46 L807.207 1176.77 L822.386 1171.81 L837.564 1169.05 L852.743 1165.06 L867.921 1160.19 L883.1 1155.81 L898.279 1149.81 L913.457 1146.24 L928.636 1141.28 L943.815 1134.04 L958.993 1129.49 L974.172 1125.74 L989.351 1122.6 L1004.53 1116.49 L1019.71 1110.16 L1034.89 1106 L1050.07 1102.1 L1065.24 1099.49 L1080.42 1092.72 L1095.6 1090.48 L1110.78 1086.49 L1125.96 1081.46 L1141.14 1079.35 L1156.32 1072.44 L1171.49 1070.78 L1186.67 1065.43 L1201.85 1062.05 L1217.03 1060.18 L1232.21 1056.51 L1247.39 1056.68 L1262.57 1054.98 L1277.75 1051.71 L1292.92 1048.8 L1308.1 1042.1 L1323.28 1039.04 L1338.46 1036 L1353.64 1035.87 L1368.82 1034.29 L1384 1030.89 L1399.17 1029.61 L1414.35 1029.69 L1429.53 1029.15 L1444.71 1028.22 L1459.89 1026.84 L1475.07 1026.24 L1490.25 1023.59 L1505.42 1024.64 L1520.6 1020.71 L1535.78 1020.57 L1550.96 1018.11 L1566.14 1014.37 L1581.32 1012.44 L1596.5 1013.36 L1611.68 1012.02 L1626.85 1010.5 L1642.03 1010.63 L1657.21 1011.82 L1672.39 1010.46 L1687.57 1009.64 L1702.75 1007.84 L1717.93 1007.22 L1733.1 1005.74 L1748.28 1005.76 L1763.46 1001.48 L1778.64 997.98 L1793.82 999.291 L1809 995.743 L1824.18 997.976 L1839.36 995.399 L1854.53 993.082 L1869.71 993.735 L1884.89 997.447 L1900.07 997.843 L1915.25 997.398 L1930.43 997.238 L1945.61 994.775 L1945.61 1132.48 L1930.43 1133.11 L1915.25 1132.92 L1900.07 1133.83 L1884.89 1133.1 L1869.71 1130.8 L1854.53 1130.77 L1839.36 1131.62 L1824.18 1132.25 L1809 1130.61 L1793.82 1133.07 L1778.64 1131.81 L1763.46 1134.03 L1748.28 1135.19 L1733.1 1134.5 L1717.93 1134.91 L1702.75 1135.35 L1687.57 1136.13 L1672.39 1137.09 L1657.21 1137.16 L1642.03 1137.4 L1626.85 1137.37 L1611.68 1137.69 L1596.5 1138.85 L1581.32 1139.38 L1566.14 1139.02 L1550.96 1141.06 L1535.78 1142.27 L1520.6 1142.02 L1505.42 1145.14 L1490.25 1144.94 L1475.07 1146.69 L1459.89 1146.94 L1444.71 1147.07 L1429.53 1147.41 L1414.35 1146.15 L1399.17 1145.07 L1384 1146.29 L1368.82 1147.98 L1353.64 1148.61 L1338.46 1147.29 L1323.28 1148.73 L1308.1 1149.7 L1292.92 1153.52 L1277.75 1154.81 L1262.57 1157.4 L1247.39 1157.82 L1232.21 1158.23 L1217.03 1160.03 L1201.85 1159.73 L1186.67 1161.36 L1171.49 1164.03 L1156.32 1163.92 L1141.14 1166.4 L1125.96 1166.47 L1110.78 1168.5 L1095.6 1169.67 L1080.42 1171.41 L1065.24 1174.77 L1050.07 1175.86 L1034.89 1177.66 L1019.71 1179.51 L1004.53 1182.53 L989.351 1184.79 L974.172 1185.47 L958.993 1187.01 L943.815 1189.41 L928.636 1192.23 L913.457 1193.88 L898.279 1195.06 L883.1 1198.03 L867.921 1200.14 L852.743 1202.51 L837.564 1204.73 L822.386 1205.65 L807.207 1208.46 L792.028 1210.92 L776.85 1213.29 L761.671 1215.94 L746.492 1219.09 L731.314 1221.89 L716.135 1224.22 L700.956 1227.57 L685.778 1229.4 L670.599 1231.39 L655.42 1233.2 L640.242 1235.88 L625.063 1237.95 L609.884 1240.46 L594.706 1242.19 L579.527 1244.01 L564.348 1245.68 L549.17 1247.03 L533.991 1248.36 L518.812 1250.02 L503.634 1251.48 L488.455 1252.47 L473.277 1253.65 L458.098 1254.81 L442.919 1257.07  Z" fill="#e7fa5a" fill-rule="evenodd" fill-opacity="1"/>
<polyline clip-path="url(#clip712)" style="stroke:#e7fa5a; stroke-linecap:round; stroke-linejoin:round; stroke-width:4; stroke-opacity:1; fill:none" points="442.919,1254.13 458.098,1251.32 473.277,1249.74 488.455,1248.08 503.634,1246.62 518.812,1244.66 533.991,1242.4 549.17,1240.52 564.348,1238.61 579.527,1236.22 594.706,1233.47 609.884,1230.76 625.063,1227.1 640.242,1223.72 655.42,1219.59 670.599,1216.4 685.778,1213.11 700.956,1210.07 716.135,1204.89 731.314,1200.8 746.492,1196.29 761.671,1190.74 776.85,1186.11 792.028,1181.46 807.207,1176.77 822.386,1171.81 837.564,1169.05 852.743,1165.06 867.921,1160.19 883.1,1155.81 898.279,1149.81 913.457,1146.24 928.636,1141.28 943.815,1134.04 958.993,1129.49 974.172,1125.74 989.351,1122.6 1004.53,1116.49 1019.71,1110.16 1034.89,1106 1050.07,1102.1 1065.24,1099.49 1080.42,1092.72 1095.6,1090.48 1110.78,1086.49 1125.96,1081.46 1141.14,1079.35 1156.32,1072.44 1171.49,1070.78 1186.67,1065.43 1201.85,1062.05 1217.03,1060.18 1232.21,1056.51 1247.39,1056.68 1262.57,1054.98 1277.75,1051.71 1292.92,1048.8 1308.1,1042.1 1323.28,1039.04 1338.46,1036 1353.64,1035.87 1368.82,1034.29 1384,1030.89 1399.17,1029.61 1414.35,1029.69 1429.53,1029.15 1444.71,1028.22 1459.89,1026.84 1475.07,1026.24 1490.25,1023.59 1505.42,1024.64 1520.6,1020.71 1535.78,1020.57 1550.96,1018.11 1566.14,1014.37 1581.32,1012.44 1596.5,1013.36 1611.68,1012.02 1626.85,1010.5 1642.03,1010.63 1657.21,1011.82 1672.39,1010.46 1687.57,1009.64 1702.75,1007.84 1717.93,1007.22 1733.1,1005.74 1748.28,1005.76 1763.46,1001.48 1778.64,997.98 1793.82,999.291 1809,995.743 1824.18,997.976 1839.36,995.399 1854.53,993.082 1869.71,993.735 1884.89,997.447 1900.07,997.843 1915.25,997.398 1930.43,997.238 1945.61,994.775 "/>
<path clip-path="url(#clip712)" d="M442.919 1102.86 L458.098 1096.89 L473.277 1091.34 L488.455 1087.32 L503.634 1083.15 L518.812 1076.08 L533.991 1068.76 L549.17 1063.94 L564.348 1058.88 L579.527 1053.18 L594.706 1048.82 L609.884 1044.47 L625.063 1037.71 L640.242 1033.01 L655.42 1025.71 L670.599 1020.87 L685.778 1014.85 L700.956 1011.23 L716.135 1003.91 L731.314 999.61 L746.492 991.246 L761.671 985.117 L776.85 981.675 L792.028 974.879 L807.207 970.637 L822.386 962.515 L837.564 961.904 L852.743 959.994 L867.921 955.173 L883.1 950.901 L898.279 944.857 L913.457 943.423 L928.636 941.348 L943.815 935.037 L958.993 932.064 L974.172 930.259 L989.351 930.638 L1004.53 928.435 L1019.71 922.387 L1034.89 920.478 L1050.07 919.143 L1065.24 916.57 L1080.42 910.635 L1095.6 908.033 L1110.78 908.127 L1125.96 904.328 L1141.14 905.489 L1156.32 901.197 L1171.49 902.02 L1186.67 898.432 L1201.85 898.525 L1217.03 897.095 L1232.21 893.673 L1247.39 894.77 L1262.57 895.665 L1277.75 889.905 L1292.92 887.405 L1308.1 884.09 L1323.28 882.426 L1338.46 879.152 L1353.64 881.802 L1368.82 880.618 L1384 877.863 L1399.17 874.764 L1414.35 875.062 L1429.53 876.619 L1444.71 874.309 L1459.89 874.47 L1475.07 876.493 L1490.25 874.62 L1505.42 875.207 L1520.6 870.835 L1535.78 873.021 L1550.96 871.631 L1566.14 866.389 L1581.32 866.876 L1596.5 865.042 L1611.68 864.707 L1626.85 864.117 L1642.03 863.286 L1657.21 864.24 L1672.39 866.58 L1687.57 862.959 L1702.75 862.029 L1717.93 859.605 L1733.1 859.159 L1748.28 859.36 L1763.46 855.572 L1778.64 851.634 L1793.82 851.586 L1809 849.096 L1824.18 850.819 L1839.36 850.343 L1854.53 846.467 L1869.71 848.829 L1884.89 851.891 L1900.07 851.889 L1915.25 852.132 L1930.43 852.145 L1945.61 851.39 L1945.61 994.775 L1930.43 997.238 L1915.25 997.398 L1900.07 997.843 L1884.89 997.447 L1869.71 993.735 L1854.53 993.082 L1839.36 995.399 L1824.18 997.976 L1809 995.743 L1793.82 999.291 L1778.64 997.98 L1763.46 1001.48 L1748.28 1005.76 L1733.1 1005.74 L1717.93 1007.22 L1702.75 1007.84 L1687.57 1009.64 L1672.39 1010.46 L1657.21 1011.82 L1642.03 1010.63 L1626.85 1010.5 L1611.68 1012.02 L1596.5 1013.36 L1581.32 1012.44 L1566.14 1014.37 L1550.96 1018.11 L1535.78 1020.57 L1520.6 1020.71 L1505.42 1024.64 L1490.25 1023.59 L1475.07 1026.24 L1459.89 1026.84 L1444.71 1028.22 L1429.53 1029.15 L1414.35 1029.69 L1399.17 1029.61 L1384 1030.89 L1368.82 1034.29 L1353.64 1035.87 L1338.46 1036 L1323.28 1039.04 L1308.1 1042.1 L1292.92 1048.8 L1277.75 1051.71 L1262.57 1054.98 L1247.39 1056.68 L1232.21 1056.51 L1217.03 1060.18 L1201.85 1062.05 L1186.67 1065.43 L1171.49 1070.78 L1156.32 1072.44 L1141.14 1079.35 L1125.96 1081.46 L1110.78 1086.49 L1095.6 1090.48 L1080.42 1092.72 L1065.24 1099.49 L1050.07 1102.1 L1034.89 1106 L1019.71 1110.16 L1004.53 1116.49 L989.351 1122.6 L974.172 1125.74 L958.993 1129.49 L943.815 1134.04 L928.636 1141.28 L913.457 1146.24 L898.279 1149.81 L883.1 1155.81 L867.921 1160.19 L852.743 1165.06 L837.564 1169.05 L822.386 1171.81 L807.207 1176.77 L792.028 1181.46 L776.85 1186.11 L761.671 1190.74 L746.492 1196.29 L731.314 1200.8 L716.135 1204.89 L700.956 1210.07 L685.778 1213.11 L670.599 1216.4 L655.42 1219.59 L640.242 1223.72 L625.063 1227.1 L609.884 1230.76 L594.706 1233.47 L579.527 1236.22 L564.348 1238.61 L549.17 1240.52 L533.991 1242.4 L518.812 1244.66 L503.634 1246.62 L488.455 1248.08 L473.277 1249.74 L458.098 1251.32 L442.919 1254.13  Z" fill="#af5f81" fill-rule="evenodd" fill-opacity="1"/>
<polyline clip-path="url(#clip712)" style="stroke:#af5f81; stroke-linecap:round; stroke-linejoin:round; stroke-width:4; stroke-opacity:1; fill:none" points="442.919,1102.86 458.098,1096.89 473.277,1091.34 488.455,1087.32 503.634,1083.15 518.812,1076.08 533.991,1068.76 549.17,1063.94 564.348,1058.88 579.527,1053.18 594.706,1048.82 609.884,1044.47 625.063,1037.71 640.242,1033.01 655.42,1025.71 670.599,1020.87 685.778,1014.85 700.956,1011.23 716.135,1003.91 731.314,999.61 746.492,991.246 761.671,985.117 776.85,981.675 792.028,974.879 807.207,970.637 822.386,962.515 837.564,961.904 852.743,959.994 867.921,955.173 883.1,950.901 898.279,944.857 913.457,943.423 928.636,941.348 943.815,935.037 958.993,932.064 974.172,930.259 989.351,930.638 1004.53,928.435 1019.71,922.387 1034.89,920.478 1050.07,919.143 1065.24,916.57 1080.42,910.635 1095.6,908.033 1110.78,908.127 1125.96,904.328 1141.14,905.489 1156.32,901.197 1171.49,902.02 1186.67,898.432 1201.85,898.525 1217.03,897.095 1232.21,893.673 1247.39,894.77 1262.57,895.665 1277.75,889.905 1292.92,887.405 1308.1,884.09 1323.28,882.426 1338.46,879.152 1353.64,881.802 1368.82,880.618 1384,877.863 1399.17,874.764 1414.35,875.062 1429.53,876.619 1444.71,874.309 1459.89,874.47 1475.07,876.493 1490.25,874.62 1505.42,875.207 1520.6,870.835 1535.78,873.021 1550.96,871.631 1566.14,866.389 1581.32,866.876 1596.5,865.042 1611.68,864.707 1626.85,864.117 1642.03,863.286 1657.21,864.24 1672.39,866.58 1687.57,862.959 1702.75,862.029 1717.93,859.605 1733.1,859.159 1748.28,859.36 1763.46,855.572 1778.64,851.634 1793.82,851.586 1809,849.096 1824.18,850.819 1839.36,850.343 1854.53,846.467 1869.71,848.829 1884.89,851.891 1900.07,851.889 1915.25,852.132 1930.43,852.145 1945.61,851.39 "/>
<path clip-path="url(#clip712)" d="M442.919 1073.06 L458.098 1065.53 L473.277 1057.55 L488.455 1051.13 L503.634 1044.39 L518.812 1034.9 L533.991 1024.9 L549.17 1017.8 L564.348 1010.5 L579.527 1002.21 L594.706 994.772 L609.884 987.099 L625.063 977.271 L640.242 968.737 L655.42 957.637 L670.599 948.632 L685.778 938.994 L700.956 932.861 L716.135 922.555 L731.314 914.83 L746.492 902.862 L761.671 892.639 L776.85 886.949 L792.028 875.175 L807.207 867.78 L822.386 855.739 L837.564 851.98 L852.743 849.402 L867.921 841.165 L883.1 833.862 L898.279 824.244 L913.457 819.666 L928.636 813.573 L943.815 801.586 L958.993 798.378 L974.172 795.279 L989.351 793.689 L1004.53 789.587 L1019.71 781.53 L1034.89 779.508 L1050.07 778.734 L1065.24 774.886 L1080.42 768.14 L1095.6 766.798 L1110.78 766.744 L1125.96 761.595 L1141.14 762.112 L1156.32 756.196 L1171.49 756.212 L1186.67 753.596 L1201.85 756.198 L1217.03 751.629 L1232.21 748.05 L1247.39 751.314 L1262.57 753.231 L1277.75 747.508 L1292.92 744.713 L1308.1 745.043 L1323.28 743.034 L1338.46 739.141 L1353.64 741.002 L1368.82 739.697 L1384 737.345 L1399.17 733.86 L1414.35 731.924 L1429.53 731.793 L1444.71 727.837 L1459.89 728.097 L1475.07 732.503 L1490.25 732.294 L1505.42 733.219 L1520.6 730.929 L1535.78 734.567 L1550.96 734.06 L1566.14 727.645 L1581.32 727.497 L1596.5 725.229 L1611.68 726.836 L1626.85 726.141 L1642.03 724.486 L1657.21 727.025 L1672.39 731.499 L1687.57 726.359 L1702.75 725.936 L1717.93 722.081 L1733.1 721.865 L1748.28 720.823 L1763.46 715.356 L1778.64 711.884 L1793.82 709.32 L1809 709.181 L1824.18 709.397 L1839.36 709.544 L1854.53 703.494 L1869.71 708.121 L1884.89 709.705 L1900.07 708.211 L1915.25 710.548 L1930.43 710.166 L1945.61 709.843 L1945.61 851.39 L1930.43 852.145 L1915.25 852.132 L1900.07 851.889 L1884.89 851.891 L1869.71 848.829 L1854.53 846.467 L1839.36 850.343 L1824.18 850.819 L1809 849.096 L1793.82 851.586 L1778.64 851.634 L1763.46 855.572 L1748.28 859.36 L1733.1 859.159 L1717.93 859.605 L1702.75 862.029 L1687.57 862.959 L1672.39 866.58 L1657.21 864.24 L1642.03 863.286 L1626.85 864.117 L1611.68 864.707 L1596.5 865.042 L1581.32 866.876 L1566.14 866.389 L1550.96 871.631 L1535.78 873.021 L1520.6 870.835 L1505.42 875.207 L1490.25 874.62 L1475.07 876.493 L1459.89 874.47 L1444.71 874.309 L1429.53 876.619 L1414.35 875.062 L1399.17 874.764 L1384 877.863 L1368.82 880.618 L1353.64 881.802 L1338.46 879.152 L1323.28 882.426 L1308.1 884.09 L1292.92 887.405 L1277.75 889.905 L1262.57 895.665 L1247.39 894.77 L1232.21 893.673 L1217.03 897.095 L1201.85 898.525 L1186.67 898.432 L1171.49 902.02 L1156.32 901.197 L1141.14 905.489 L1125.96 904.328 L1110.78 908.127 L1095.6 908.033 L1080.42 910.635 L1065.24 916.57 L1050.07 919.143 L1034.89 920.478 L1019.71 922.387 L1004.53 928.435 L989.351 930.638 L974.172 930.259 L958.993 932.064 L943.815 935.037 L928.636 941.348 L913.457 943.423 L898.279 944.857 L883.1 950.901 L867.921 955.173 L852.743 959.994 L837.564 961.904 L822.386 962.515 L807.207 970.637 L792.028 974.879 L776.85 981.675 L761.671 985.117 L746.492 991.246 L731.314 999.61 L716.135 1003.91 L700.956 1011.23 L685.778 1014.85 L670.599 1020.87 L655.42 1025.71 L640.242 1033.01 L625.063 1037.71 L609.884 1044.47 L594.706 1048.82 L579.527 1053.18 L564.348 1058.88 L549.17 1063.94 L533.991 1068.76 L518.812 1076.08 L503.634 1083.15 L488.455 1087.32 L473.277 1091.34 L458.098 1096.89 L442.919 1102.86  Z" fill="#553b9c" fill-rule="evenodd" fill-opacity="1"/>
<polyline clip-path="url(#clip712)" style="stroke:#553b9c; stroke-linecap:round; stroke-linejoin:round; stroke-width:4; stroke-opacity:1; fill:none" points="442.919,1073.06 458.098,1065.53 473.277,1057.55 488.455,1051.13 503.634,1044.39 518.812,1034.9 533.991,1024.9 549.17,1017.8 564.348,1010.5 579.527,1002.21 594.706,994.772 609.884,987.099 625.063,977.271 640.242,968.737 655.42,957.637 670.599,948.632 685.778,938.994 700.956,932.861 716.135,922.555 731.314,914.83 746.492,902.862 761.671,892.639 776.85,886.949 792.028,875.175 807.207,867.78 822.386,855.739 837.564,851.98 852.743,849.402 867.921,841.165 883.1,833.862 898.279,824.244 913.457,819.666 928.636,813.573 943.815,801.586 958.993,798.378 974.172,795.279 989.351,793.689 1004.53,789.587 1019.71,781.53 1034.89,779.508 1050.07,778.734 1065.24,774.886 1080.42,768.14 1095.6,766.798 1110.78,766.744 1125.96,761.595 1141.14,762.112 1156.32,756.196 1171.49,756.212 1186.67,753.596 1201.85,756.198 1217.03,751.629 1232.21,748.05 1247.39,751.314 1262.57,753.231 1277.75,747.508 1292.92,744.713 1308.1,745.043 1323.28,743.034 1338.46,739.141 1353.64,741.002 1368.82,739.697 1384,737.345 1399.17,733.86 1414.35,731.924 1429.53,731.793 1444.71,727.837 1459.89,728.097 1475.07,732.503 1490.25,732.294 1505.42,733.219 1520.6,730.929 1535.78,734.567 1550.96,734.06 1566.14,727.645 1581.32,727.497 1596.5,725.229 1611.68,726.836 1626.85,726.141 1642.03,724.486 1657.21,727.025 1672.39,731.499 1687.57,726.359 1702.75,725.936 1717.93,722.081 1733.1,721.865 1748.28,720.823 1763.46,715.356 1778.64,711.884 1793.82,709.32 1809,709.181 1824.18,709.397 1839.36,709.544 1854.53,703.494 1869.71,708.121 1884.89,709.705 1900.07,708.211 1915.25,710.548 1930.43,710.166 1945.61,709.843 "/>
<path clip-path="url(#clip712)" d="M442.919 1003.48 L458.098 988.937 L473.277 979.518 L488.455 971.067 L503.634 963.354 L518.812 952.456 L533.991 940.765 L549.17 932.093 L564.348 923.41 L579.527 913.265 L594.706 903.392 L609.884 893.862 L625.063 881.103 L640.242 870.608 L655.42 857.298 L670.599 847.664 L685.778 837.368 L700.956 829.598 L716.135 816.184 L731.314 806.772 L746.492 794.155 L761.671 782.074 L776.85 773.742 L792.028 762.704 L807.207 754.067 L822.386 742.348 L837.564 738.654 L852.743 733.475 L867.921 724.936 L883.1 717.46 L898.279 707.418 L913.457 703.036 L928.636 697.125 L943.815 686.183 L958.993 681.009 L974.172 677.112 L989.351 675.285 L1004.53 669.902 L1019.71 661.361 L1034.89 657.82 L1050.07 655.071 L1065.24 651.544 L1080.42 643.588 L1095.6 640.698 L1110.78 639.228 L1125.96 633.951 L1141.14 634.152 L1156.32 627.971 L1171.49 628.108 L1186.67 623.538 L1201.85 622.999 L1217.03 620.927 L1232.21 616.93 L1247.39 618.183 L1262.57 618.7 L1277.75 612.712 L1292.92 609.781 L1308.1 605.592 L1323.28 603.479 L1338.46 599.902 L1353.64 602.318 L1368.82 600.959 L1384 597.884 L1399.17 594.783 L1414.35 594.975 L1429.53 596.276 L1444.71 593.849 L1459.89 593.843 L1475.07 595.862 L1490.25 593.847 L1505.42 594.534 L1520.6 589.975 L1535.78 592.059 L1550.96 590.477 L1566.14 585.111 L1581.32 585.432 L1596.5 583.729 L1611.68 583.291 L1626.85 582.606 L1642.03 581.822 L1657.21 582.815 L1672.39 584.903 L1687.57 581.397 L1702.75 580.356 L1717.93 578.015 L1733.1 577.478 L1748.28 577.693 L1763.46 573.787 L1778.64 569.8 L1793.82 569.783 L1809 567.242 L1824.18 568.996 L1839.36 568.441 L1854.53 564.546 L1869.71 566.911 L1884.89 570.006 L1900.07 569.979 L1915.25 570.25 L1930.43 570.251 L1945.61 569.449 L1945.61 709.843 L1930.43 710.166 L1915.25 710.548 L1900.07 708.211 L1884.89 709.705 L1869.71 708.121 L1854.53 703.494 L1839.36 709.544 L1824.18 709.397 L1809 709.181 L1793.82 709.32 L1778.64 711.884 L1763.46 715.356 L1748.28 720.823 L1733.1 721.865 L1717.93 722.081 L1702.75 725.936 L1687.57 726.359 L1672.39 731.499 L1657.21 727.025 L1642.03 724.486 L1626.85 726.141 L1611.68 726.836 L1596.5 725.229 L1581.32 727.497 L1566.14 727.645 L1550.96 734.06 L1535.78 734.567 L1520.6 730.929 L1505.42 733.219 L1490.25 732.294 L1475.07 732.503 L1459.89 728.097 L1444.71 727.837 L1429.53 731.793 L1414.35 731.924 L1399.17 733.86 L1384 737.345 L1368.82 739.697 L1353.64 741.002 L1338.46 739.141 L1323.28 743.034 L1308.1 745.043 L1292.92 744.713 L1277.75 747.508 L1262.57 753.231 L1247.39 751.314 L1232.21 748.05 L1217.03 751.629 L1201.85 756.198 L1186.67 753.596 L1171.49 756.212 L1156.32 756.196 L1141.14 762.112 L1125.96 761.595 L1110.78 766.744 L1095.6 766.798 L1080.42 768.14 L1065.24 774.886 L1050.07 778.734 L1034.89 779.508 L1019.71 781.53 L1004.53 789.587 L989.351 793.689 L974.172 795.279 L958.993 798.378 L943.815 801.586 L928.636 813.573 L913.457 819.666 L898.279 824.244 L883.1 833.862 L867.921 841.165 L852.743 849.402 L837.564 851.98 L822.386 855.739 L807.207 867.78 L792.028 875.175 L776.85 886.949 L761.671 892.639 L746.492 902.862 L731.314 914.83 L716.135 922.555 L700.956 932.861 L685.778 938.994 L670.599 948.632 L655.42 957.637 L640.242 968.737 L625.063 977.271 L609.884 987.099 L594.706 994.772 L579.527 1002.21 L564.348 1010.5 L549.17 1017.8 L533.991 1024.9 L518.812 1034.9 L503.634 1044.39 L488.455 1051.13 L473.277 1057.55 L458.098 1065.53 L442.919 1073.06  Z" fill="#f99241" fill-rule="evenodd" fill-opacity="1"/>
<polyline clip-path="url(#clip712)" style="stroke:#f99241; stroke-linecap:round; stroke-linejoin:round; stroke-width:4; stroke-opacity:1; fill:none" points="442.919,1003.48 458.098,988.937 473.277,979.518 488.455,971.067 503.634,963.354 518.812,952.456 533.991,940.765 549.17,932.093 564.348,923.41 579.527,913.265 594.706,903.392 609.884,893.862 625.063,881.103 640.242,870.608 655.42,857.298 670.599,847.664 685.778,837.368 700.956,829.598 716.135,816.184 731.314,806.772 746.492,794.155 761.671,782.074 776.85,773.742 792.028,762.704 807.207,754.067 822.386,742.348 837.564,738.654 852.743,733.475 867.921,724.936 883.1,717.46 898.279,707.418 913.457,703.036 928.636,697.125 943.815,686.183 958.993,681.009 974.172,677.112 989.351,675.285 1004.53,669.902 1019.71,661.361 1034.89,657.82 1050.07,655.071 1065.24,651.544 1080.42,643.588 1095.6,640.698 1110.78,639.228 1125.96,633.951 1141.14,634.152 1156.32,627.971 1171.49,628.108 1186.67,623.538 1201.85,622.999 1217.03,620.927 1232.21,616.93 1247.39,618.183 1262.57,618.7 1277.75,612.712 1292.92,609.781 1308.1,605.592 1323.28,603.479 1338.46,599.902 1353.64,602.318 1368.82,600.959 1384,597.884 1399.17,594.783 1414.35,594.975 1429.53,596.276 1444.71,593.849 1459.89,593.843 1475.07,595.862 1490.25,593.847 1505.42,594.534 1520.6,589.975 1535.78,592.059 1550.96,590.477 1566.14,585.111 1581.32,585.432 1596.5,583.729 1611.68,583.291 1626.85,582.606 1642.03,581.822 1657.21,582.815 1672.39,584.903 1687.57,581.397 1702.75,580.356 1717.93,578.015 1733.1,577.478 1748.28,577.693 1763.46,573.787 1778.64,569.8 1793.82,569.783 1809,567.242 1824.18,568.996 1839.36,568.441 1854.53,564.546 1869.71,566.911 1884.89,570.006 1900.07,569.979 1915.25,570.25 1930.43,570.251 1945.61,569.449 "/>
<path clip-path="url(#clip712)" d="M442.919 989.78 L458.098 973.381 L473.277 962.874 L488.455 953.043 L503.634 944.139 L518.812 932.316 L533.991 919.518 L549.17 909.7 L564.348 899.968 L579.527 888.5 L594.706 876.646 L609.884 865.146 L625.063 850.415 L640.242 837.538 L655.42 822.07 L670.599 810.358 L685.778 798.482 L700.956 788.896 L716.135 773.124 L731.314 761.236 L746.492 747.298 L761.671 732.348 L776.85 721.287 L792.028 708.421 L807.207 697.325 L822.386 684.499 L837.564 678.518 L852.743 670.955 L867.921 660.303 L883.1 650.973 L898.279 638.667 L913.457 631.868 L928.636 622.704 L943.815 608.795 L958.993 601.53 L974.172 595.517 L989.351 590.812 L1004.53 581.536 L1019.71 571.214 L1034.89 565.353 L1050.07 560.168 L1065.24 556.007 L1080.42 546.118 L1095.6 543.084 L1110.78 538.148 L1125.96 531.096 L1141.14 528.629 L1156.32 519.396 L1171.49 517.424 L1186.67 510.738 L1201.85 507.068 L1217.03 504.346 L1232.21 499.67 L1247.39 500.227 L1262.57 498.425 L1277.75 494.086 L1292.92 490.488 L1308.1 482.875 L1323.28 479.266 L1338.46 475.608 L1353.64 475.579 L1368.82 473.733 L1384 469.821 L1399.17 468.224 L1414.35 468.205 L1429.53 467.607 L1444.71 466.338 L1459.89 464.872 L1475.07 464.477 L1490.25 461.576 L1505.42 462.759 L1520.6 458.401 L1535.78 458.337 L1550.96 455.627 L1566.14 451.474 L1581.32 449.399 L1596.5 450.339 L1611.68 448.947 L1626.85 447.318 L1642.03 447.43 L1657.21 448.729 L1672.39 447.269 L1687.57 446.397 L1702.75 444.481 L1717.93 443.801 L1733.1 442.237 L1748.28 442.246 L1763.46 437.746 L1778.64 434.119 L1793.82 435.386 L1809 431.819 L1824.18 434.066 L1839.36 431.479 L1854.53 429.051 L1869.71 429.79 L1884.89 433.541 L1900.07 433.902 L1915.25 433.508 L1930.43 433.34 L1945.61 430.855 L1945.61 569.449 L1930.43 570.251 L1915.25 570.25 L1900.07 569.979 L1884.89 570.006 L1869.71 566.911 L1854.53 564.546 L1839.36 568.441 L1824.18 568.996 L1809 567.242 L1793.82 569.783 L1778.64 569.8 L1763.46 573.787 L1748.28 577.693 L1733.1 577.478 L1717.93 578.015 L1702.75 580.356 L1687.57 581.397 L1672.39 584.903 L1657.21 582.815 L1642.03 581.822 L1626.85 582.606 L1611.68 583.291 L1596.5 583.729 L1581.32 585.432 L1566.14 585.111 L1550.96 590.477 L1535.78 592.059 L1520.6 589.975 L1505.42 594.534 L1490.25 593.847 L1475.07 595.862 L1459.89 593.843 L1444.71 593.849 L1429.53 596.276 L1414.35 594.975 L1399.17 594.783 L1384 597.884 L1368.82 600.959 L1353.64 602.318 L1338.46 599.902 L1323.28 603.479 L1308.1 605.592 L1292.92 609.781 L1277.75 612.712 L1262.57 618.7 L1247.39 618.183 L1232.21 616.93 L1217.03 620.927 L1201.85 622.999 L1186.67 623.538 L1171.49 628.108 L1156.32 627.971 L1141.14 634.152 L1125.96 633.951 L1110.78 639.228 L1095.6 640.698 L1080.42 643.588 L1065.24 651.544 L1050.07 655.071 L1034.89 657.82 L1019.71 661.361 L1004.53 669.902 L989.351 675.285 L974.172 677.112 L958.993 681.009 L943.815 686.183 L928.636 697.125 L913.457 703.036 L898.279 707.418 L883.1 717.46 L867.921 724.936 L852.743 733.475 L837.564 738.654 L822.386 742.348 L807.207 754.067 L792.028 762.704 L776.85 773.742 L761.671 782.074 L746.492 794.155 L731.314 806.772 L716.135 816.184 L700.956 829.598 L685.778 837.368 L670.599 847.664 L655.42 857.298 L640.242 870.608 L625.063 881.103 L609.884 893.862 L594.706 903.392 L579.527 913.265 L564.348 923.41 L549.17 932.093 L533.991 940.765 L518.812 952.456 L503.634 963.354 L488.455 971.067 L473.277 979.518 L458.098 988.937 L442.919 1003.48  Z" fill="#18337b" fill-rule="evenodd" fill-opacity="1"/>
<polyline clip-path="url(#clip712)" style="stroke:#18337b; stroke-linecap:round; stroke-linejoin:round; stroke-width:4; stroke-opacity:1; fill:none" points="442.919,989.78 458.098,973.381 473.277,962.874 488.455,953.043 503.634,944.139 518.812,932.316 533.991,919.518 549.17,909.7 564.348,899.968 579.527,888.5 594.706,876.646 609.884,865.146 625.063,850.415 640.242,837.538 655.42,822.07 670.599,810.358 685.778,798.482 700.956,788.896 716.135,773.124 731.314,761.236 746.492,747.298 761.671,732.348 776.85,721.287 792.028,708.421 807.207,697.325 822.386,684.499 837.564,678.518 852.743,670.955 867.921,660.303 883.1,650.973 898.279,638.667 913.457,631.868 928.636,622.704 943.815,608.795 958.993,601.53 974.172,595.517 989.351,590.812 1004.53,581.536 1019.71,571.214 1034.89,565.353 1050.07,560.168 1065.24,556.007 1080.42,546.118 1095.6,543.084 1110.78,538.148 1125.96,531.096 1141.14,528.629 1156.32,519.396 1171.49,517.424 1186.67,510.738 1201.85,507.068 1217.03,504.346 1232.21,499.67 1247.39,500.227 1262.57,498.425 1277.75,494.086 1292.92,490.488 1308.1,482.875 1323.28,479.266 1338.46,475.608 1353.64,475.579 1368.82,473.733 1384,469.821 1399.17,468.224 1414.35,468.205 1429.53,467.607 1444.71,466.338 1459.89,464.872 1475.07,464.477 1490.25,461.576 1505.42,462.759 1520.6,458.401 1535.78,458.337 1550.96,455.627 1566.14,451.474 1581.32,449.399 1596.5,450.339 1611.68,448.947 1626.85,447.318 1642.03,447.43 1657.21,448.729 1672.39,447.269 1687.57,446.397 1702.75,444.481 1717.93,443.801 1733.1,442.237 1748.28,442.246 1763.46,437.746 1778.64,434.119 1793.82,435.386 1809,431.819 1824.18,434.066 1839.36,431.479 1854.53,429.051 1869.71,429.79 1884.89,433.541 1900.07,433.902 1915.25,433.508 1930.43,433.34 1945.61,430.855 "/>
<path clip-path="url(#clip712)" d="M442.919 283.247 L458.098 284.081 L473.277 288.015 L488.455 292.72 L503.634 297.426 L518.812 298.82 L533.991 300.414 L549.17 302.664 L564.348 304.392 L579.527 306.213 L594.706 309.939 L609.884 313.863 L625.063 314.944 L640.242 318.864 L655.42 320.253 L670.599 323.834 L685.778 325.179 L700.956 326.375 L716.135 325.341 L731.314 327.043 L746.492 325.77 L761.671 326.569 L776.85 326.843 L792.028 327.783 L807.207 328.242 L822.386 326.64 L837.564 329.356 L852.743 328.671 L867.921 328.553 L883.1 328.35 L898.279 327.307 L913.457 328.928 L928.636 330.693 L943.815 330.616 L958.993 328.774 L974.172 328.472 L989.351 330.083 L1004.53 329.879 L1019.71 327.156 L1034.89 325.972 L1050.07 324.744 L1065.24 323.876 L1080.42 320.575 L1095.6 318.175 L1110.78 318.324 L1125.96 316.773 L1141.14 317.874 L1156.32 316.163 L1171.49 317.131 L1186.67 314.378 L1201.85 312.99 L1217.03 313.922 L1232.21 311.95 L1247.39 311.388 L1262.57 311.336 L1277.75 307.913 L1292.92 306.626 L1308.1 302.661 L1323.28 301.921 L1338.46 300.44 L1353.64 302.366 L1368.82 301.768 L1384 300.008 L1399.17 298.51 L1414.35 299.883 L1429.53 301.647 L1444.71 301.215 L1459.89 301.253 L1475.07 301.133 L1490.25 299.203 L1505.42 299.345 L1520.6 295.828 L1535.78 296.207 L1550.96 294.964 L1566.14 292.822 L1581.32 293.425 L1596.5 292.688 L1611.68 291.463 L1626.85 291.211 L1642.03 291.223 L1657.21 290.86 L1672.39 290.892 L1687.57 289.856 L1702.75 289.098 L1717.93 288.631 L1733.1 288.279 L1748.28 289.048 L1763.46 287.986 L1778.64 285.752 L1793.82 286.997 L1809 284.566 L1824.18 286.188 L1839.36 285.636 L1854.53 284.77 L1869.71 284.832 L1884.89 287.112 L1900.07 287.85 L1915.25 286.933 L1930.43 287.137 L1945.61 286.539 L1945.61 430.855 L1930.43 433.34 L1915.25 433.508 L1900.07 433.902 L1884.89 433.541 L1869.71 429.79 L1854.53 429.051 L1839.36 431.479 L1824.18 434.066 L1809 431.819 L1793.82 435.386 L1778.64 434.119 L1763.46 437.746 L1748.28 442.246 L1733.1 442.237 L1717.93 443.801 L1702.75 444.481 L1687.57 446.397 L1672.39 447.269 L1657.21 448.729 L1642.03 447.43 L1626.85 447.318 L1611.68 448.947 L1596.5 450.339 L1581.32 449.399 L1566.14 451.474 L1550.96 455.627 L1535.78 458.337 L1520.6 458.401 L1505.42 462.759 L1490.25 461.576 L1475.07 464.477 L1459.89 464.872 L1444.71 466.338 L1429.53 467.607 L1414.35 468.205 L1399.17 468.224 L1384 469.821 L1368.82 473.733 L1353.64 475.579 L1338.46 475.608 L1323.28 479.266 L1308.1 482.875 L1292.92 490.488 L1277.75 494.086 L1262.57 498.425 L1247.39 500.227 L1232.21 499.67 L1217.03 504.346 L1201.85 507.068 L1186.67 510.738 L1171.49 517.424 L1156.32 519.396 L1141.14 528.629 L1125.96 531.096 L1110.78 538.148 L1095.6 543.084 L1080.42 546.118 L1065.24 556.007 L1050.07 560.168 L1034.89 565.353 L1019.71 571.214 L1004.53 581.536 L989.351 590.812 L974.172 595.517 L958.993 601.53 L943.815 608.795 L928.636 622.704 L913.457 631.868 L898.279 638.667 L883.1 650.973 L867.921 660.303 L852.743 670.955 L837.564 678.518 L822.386 684.499 L807.207 697.325 L792.028 708.421 L776.85 721.287 L761.671 732.348 L746.492 747.298 L731.314 761.236 L716.135 773.124 L700.956 788.896 L685.778 798.482 L670.599 810.358 L655.42 822.07 L640.242 837.538 L625.063 850.415 L609.884 865.146 L594.706 876.646 L579.527 888.5 L564.348 899.968 L549.17 909.7 L533.991 919.518 L518.812 932.316 L503.634 944.139 L488.455 953.043 L473.277 962.874 L458.098 973.381 L442.919 989.78  Z" fill="#de6f64" fill-rule="evenodd" fill-opacity="1"/>
<polyline clip-path="url(#clip712)" style="stroke:#de6f64; stroke-linecap:round; stroke-linejoin:round; stroke-width:4; stroke-opacity:1; fill:none" points="442.919,283.247 458.098,284.081 473.277,288.015 488.455,292.72 503.634,297.426 518.812,298.82 533.991,300.414 549.17,302.664 564.348,304.392 579.527,306.213 594.706,309.939 609.884,313.863 625.063,314.944 640.242,318.864 655.42,320.253 670.599,323.834 685.778,325.179 700.956,326.375 716.135,325.341 731.314,327.043 746.492,325.77 761.671,326.569 776.85,326.843 792.028,327.783 807.207,328.242 822.386,326.64 837.564,329.356 852.743,328.671 867.921,328.553 883.1,328.35 898.279,327.307 913.457,328.928 928.636,330.693 943.815,330.616 958.993,328.774 974.172,328.472 989.351,330.083 1004.53,329.879 1019.71,327.156 1034.89,325.972 1050.07,324.744 1065.24,323.876 1080.42,320.575 1095.6,318.175 1110.78,318.324 1125.96,316.773 1141.14,317.874 1156.32,316.163 1171.49,317.131 1186.67,314.378 1201.85,312.99 1217.03,313.922 1232.21,311.95 1247.39,311.388 1262.57,311.336 1277.75,307.913 1292.92,306.626 1308.1,302.661 1323.28,301.921 1338.46,300.44 1353.64,302.366 1368.82,301.768 1384,300.008 1399.17,298.51 1414.35,299.883 1429.53,301.647 1444.71,301.215 1459.89,301.253 1475.07,301.133 1490.25,299.203 1505.42,299.345 1520.6,295.828 1535.78,296.207 1550.96,294.964 1566.14,292.822 1581.32,293.425 1596.5,292.688 1611.68,291.463 1626.85,291.211 1642.03,291.223 1657.21,290.86 1672.39,290.892 1687.57,289.856 1702.75,289.098 1717.93,288.631 1733.1,288.279 1748.28,289.048 1763.46,287.986 1778.64,285.752 1793.82,286.997 1809,284.566 1824.18,286.188 1839.36,285.636 1854.53,284.77 1869.71,284.832 1884.89,287.112 1900.07,287.85 1915.25,286.933 1930.43,287.137 1945.61,286.539 "/>
<path clip-path="url(#clip712)" d="M442.919 144.073 L458.098 144.073 L473.277 144.073 L488.455 144.073 L503.634 144.073 L518.812 144.073 L533.991 144.073 L549.17 144.073 L564.348 144.073 L579.527 144.073 L594.706 144.073 L609.884 144.073 L625.063 144.073 L640.242 144.073 L655.42 144.073 L670.599 144.073 L685.778 144.073 L700.956 144.073 L716.135 144.073 L731.314 144.073 L746.492 144.073 L761.671 144.073 L776.85 144.073 L792.028 144.073 L807.207 144.073 L822.386 144.073 L837.564 144.073 L852.743 144.073 L867.921 144.073 L883.1 144.073 L898.279 144.073 L913.457 144.073 L928.636 144.073 L943.815 144.073 L958.993 144.073 L974.172 144.073 L989.351 144.073 L1004.53 144.073 L1019.71 144.073 L1034.89 144.073 L1050.07 144.073 L1065.24 144.073 L1080.42 144.073 L1095.6 144.073 L1110.78 144.073 L1125.96 144.073 L1141.14 144.073 L1156.32 144.073 L1171.49 144.073 L1186.67 144.073 L1201.85 144.073 L1217.03 144.073 L1232.21 144.073 L1247.39 144.073 L1262.57 144.073 L1277.75 144.073 L1292.92 144.073 L1308.1 144.073 L1323.28 144.073 L1338.46 144.073 L1353.64 144.073 L1368.82 144.073 L1384 144.073 L1399.17 144.073 L1414.35 144.073 L1429.53 144.073 L1444.71 144.073 L1459.89 144.073 L1475.07 144.073 L1490.25 144.073 L1505.42 144.073 L1520.6 144.073 L1535.78 144.073 L1550.96 144.073 L1566.14 144.073 L1581.32 144.073 L1596.5 144.073 L1611.68 144.073 L1626.85 144.073 L1642.03 144.073 L1657.21 144.073 L1672.39 144.073 L1687.57 144.073 L1702.75 144.073 L1717.93 144.073 L1733.1 144.073 L1748.28 144.073 L1763.46 144.073 L1778.64 144.073 L1793.82 144.073 L1809 144.073 L1824.18 144.073 L1839.36 144.073 L1854.53 144.073 L1869.71 144.073 L1884.89 144.073 L1900.07 144.073 L1915.25 144.073 L1930.43 144.073 L1945.61 144.073 L1945.61 286.539 L1930.43 287.137 L1915.25 286.933 L1900.07 287.85 L1884.89 287.112 L1869.71 284.832 L1854.53 284.77 L1839.36 285.636 L1824.18 286.188 L1809 284.566 L1793.82 286.997 L1778.64 285.752 L1763.46 287.986 L1748.28 289.048 L1733.1 288.279 L1717.93 288.631 L1702.75 289.098 L1687.57 289.856 L1672.39 290.892 L1657.21 290.86 L1642.03 291.223 L1626.85 291.211 L1611.68 291.463 L1596.5 292.688 L1581.32 293.425 L1566.14 292.822 L1550.96 294.964 L1535.78 296.207 L1520.6 295.828 L1505.42 299.345 L1490.25 299.203 L1475.07 301.133 L1459.89 301.253 L1444.71 301.215 L1429.53 301.647 L1414.35 299.883 L1399.17 298.51 L1384 300.008 L1368.82 301.768 L1353.64 302.366 L1338.46 300.44 L1323.28 301.921 L1308.1 302.661 L1292.92 306.626 L1277.75 307.913 L1262.57 311.336 L1247.39 311.388 L1232.21 311.95 L1217.03 313.922 L1201.85 312.99 L1186.67 314.378 L1171.49 317.131 L1156.32 316.163 L1141.14 317.874 L1125.96 316.773 L1110.78 318.324 L1095.6 318.175 L1080.42 320.575 L1065.24 323.876 L1050.07 324.744 L1034.89 325.972 L1019.71 327.156 L1004.53 329.879 L989.351 330.083 L974.172 328.472 L958.993 328.774 L943.815 330.616 L928.636 330.693 L913.457 328.928 L898.279 327.307 L883.1 328.35 L867.921 328.553 L852.743 328.671 L837.564 329.356 L822.386 326.64 L807.207 328.242 L792.028 327.783 L776.85 326.843 L761.671 326.569 L746.492 325.77 L731.314 327.043 L716.135 325.341 L700.956 326.375 L685.778 325.179 L670.599 323.834 L655.42 320.253 L640.242 318.864 L625.063 314.944 L609.884 313.863 L594.706 309.939 L579.527 306.213 L564.348 304.392 L549.17 302.664 L533.991 300.414 L518.812 298.82 L503.634 297.426 L488.455 292.72 L473.277 288.015 L458.098 284.081 L442.919 283.247  Z" fill="#824f8e" fill-rule="evenodd" fill-opacity="1"/>
<polyline clip-path="url(#clip712)" style="stroke:#824f8e; stroke-linecap:round; stroke-linejoin:round; stroke-width:4; stroke-opacity:1; fill:none" points="442.919,144.073 458.098,144.073 473.277,144.073 488.455,144.073 503.634,144.073 518.812,144.073 533.991,144.073 549.17,144.073 564.348,144.073 579.527,144.073 594.706,144.073 609.884,144.073 625.063,144.073 640.242,144.073 655.42,144.073 670.599,144.073 685.778,144.073 700.956,144.073 716.135,144.073 731.314,144.073 746.492,144.073 761.671,144.073 776.85,144.073 792.028,144.073 807.207,144.073 822.386,144.073 837.564,144.073 852.743,144.073 867.921,144.073 883.1,144.073 898.279,144.073 913.457,144.073 928.636,144.073 943.815,144.073 958.993,144.073 974.172,144.073 989.351,144.073 1004.53,144.073 1019.71,144.073 1034.89,144.073 1050.07,144.073 1065.24,144.073 1080.42,144.073 1095.6,144.073 1110.78,144.073 1125.96,144.073 1141.14,144.073 1156.32,144.073 1171.49,144.073 1186.67,144.073 1201.85,144.073 1217.03,144.073 1232.21,144.073 1247.39,144.073 1262.57,144.073 1277.75,144.073 1292.92,144.073 1308.1,144.073 1323.28,144.073 1338.46,144.073 1353.64,144.073 1368.82,144.073 1384,144.073 1399.17,144.073 1414.35,144.073 1429.53,144.073 1444.71,144.073 1459.89,144.073 1475.07,144.073 1490.25,144.073 1505.42,144.073 1520.6,144.073 1535.78,144.073 1550.96,144.073 1566.14,144.073 1581.32,144.073 1596.5,144.073 1611.68,144.073 1626.85,144.073 1642.03,144.073 1657.21,144.073 1672.39,144.073 1687.57,144.073 1702.75,144.073 1717.93,144.073 1733.1,144.073 1748.28,144.073 1763.46,144.073 1778.64,144.073 1793.82,144.073 1809,144.073 1824.18,144.073 1839.36,144.073 1854.53,144.073 1869.71,144.073 1884.89,144.073 1900.07,144.073 1915.25,144.073 1930.43,144.073 1945.61,144.073 "/>
<path clip-path="url(#clip710)" d="M2053.75 1071.24 L2289.76 1071.24 L2289.76 150.088 L2053.75 150.088  Z" fill="#ffffff" fill-rule="evenodd" fill-opacity="1"/>
<polyline clip-path="url(#clip710)" style="stroke:#000000; stroke-linecap:round; stroke-linejoin:round; stroke-width:4; stroke-opacity:1; fill:none" points="2053.75,1071.24 2289.76,1071.24 2289.76,150.088 2053.75,150.088 2053.75,1071.24 "/>
<path clip-path="url(#clip710)" d="M2074.77 293.379 L2200.9 293.379 L2200.9 211.499 L2074.77 211.499 L2074.77 293.379  Z" fill="#032333" fill-rule="evenodd" fill-opacity="1"/>
<polyline clip-path="url(#clip710)" style="stroke:#032333; stroke-linecap:round; stroke-linejoin:round; stroke-width:7.5; stroke-opacity:1; fill:none" points="2074.77,211.499 2200.9,211.499 "/>
<g clip-path="url(#clip710)">
<text style="fill:#000000; fill-opacity:1; font-family:Book Antiqua,Palatino,Palatino Linotype,Palatino LT STD,Georgia,serif; font-size:94px; text-anchor:start;" transform="rotate(0, 2221.92, 284.939)" x="2221.92" y="284.939">0</text>
</g>
<path clip-path="url(#clip710)" d="M2074.77 395.729 L2200.9 395.729 L2200.9 313.849 L2074.77 313.849 L2074.77 395.729  Z" fill="#e7fa5a" fill-rule="evenodd" fill-opacity="1"/>
<polyline clip-path="url(#clip710)" style="stroke:#e7fa5a; stroke-linecap:round; stroke-linejoin:round; stroke-width:7.5; stroke-opacity:1; fill:none" points="2074.77,313.849 2200.9,313.849 "/>
<g clip-path="url(#clip710)">
<text style="fill:#000000; fill-opacity:1; font-family:Book Antiqua,Palatino,Palatino Linotype,Palatino LT STD,Georgia,serif; font-size:94px; text-anchor:start;" transform="rotate(0, 2221.92, 387.289)" x="2221.92" y="387.289">1</text>
</g>
<path clip-path="url(#clip710)" d="M2074.77 498.079 L2200.9 498.079 L2200.9 416.199 L2074.77 416.199 L2074.77 498.079  Z" fill="#af5f81" fill-rule="evenodd" fill-opacity="1"/>
<polyline clip-path="url(#clip710)" style="stroke:#af5f81; stroke-linecap:round; stroke-linejoin:round; stroke-width:7.5; stroke-opacity:1; fill:none" points="2074.77,416.199 2200.9,416.199 "/>
<g clip-path="url(#clip710)">
<text style="fill:#000000; fill-opacity:1; font-family:Book Antiqua,Palatino,Palatino Linotype,Palatino LT STD,Georgia,serif; font-size:94px; text-anchor:start;" transform="rotate(0, 2221.92, 489.639)" x="2221.92" y="489.639">2</text>
</g>
<path clip-path="url(#clip710)" d="M2074.77 600.43 L2200.9 600.43 L2200.9 518.549 L2074.77 518.549 L2074.77 600.43  Z" fill="#553b9c" fill-rule="evenodd" fill-opacity="1"/>
<polyline clip-path="url(#clip710)" style="stroke:#553b9c; stroke-linecap:round; stroke-linejoin:round; stroke-width:7.5; stroke-opacity:1; fill:none" points="2074.77,518.549 2200.9,518.549 "/>
<g clip-path="url(#clip710)">
<text style="fill:#000000; fill-opacity:1; font-family:Book Antiqua,Palatino,Palatino Linotype,Palatino LT STD,Georgia,serif; font-size:94px; text-anchor:start;" transform="rotate(0, 2221.92, 591.99)" x="2221.92" y="591.99">3</text>
</g>
<path clip-path="url(#clip710)" d="M2074.77 702.78 L2200.9 702.78 L2200.9 620.9 L2074.77 620.9 L2074.77 702.78  Z" fill="#f99241" fill-rule="evenodd" fill-opacity="1"/>
<polyline clip-path="url(#clip710)" style="stroke:#f99241; stroke-linecap:round; stroke-linejoin:round; stroke-width:7.5; stroke-opacity:1; fill:none" points="2074.77,620.9 2200.9,620.9 "/>
<g clip-path="url(#clip710)">
<text style="fill:#000000; fill-opacity:1; font-family:Book Antiqua,Palatino,Palatino Linotype,Palatino LT STD,Georgia,serif; font-size:94px; text-anchor:start;" transform="rotate(0, 2221.92, 694.34)" x="2221.92" y="694.34">4</text>
</g>
<path clip-path="url(#clip710)" d="M2074.77 805.13 L2200.9 805.13 L2200.9 723.25 L2074.77 723.25 L2074.77 805.13  Z" fill="#18337b" fill-rule="evenodd" fill-opacity="1"/>
<polyline clip-path="url(#clip710)" style="stroke:#18337b; stroke-linecap:round; stroke-linejoin:round; stroke-width:7.5; stroke-opacity:1; fill:none" points="2074.77,723.25 2200.9,723.25 "/>
<g clip-path="url(#clip710)">
<text style="fill:#000000; fill-opacity:1; font-family:Book Antiqua,Palatino,Palatino Linotype,Palatino LT STD,Georgia,serif; font-size:94px; text-anchor:start;" transform="rotate(0, 2221.92, 796.69)" x="2221.92" y="796.69">5</text>
</g>
<path clip-path="url(#clip710)" d="M2074.77 907.481 L2200.9 907.481 L2200.9 825.6 L2074.77 825.6 L2074.77 907.481  Z" fill="#de6f64" fill-rule="evenodd" fill-opacity="1"/>
<polyline clip-path="url(#clip710)" style="stroke:#de6f64; stroke-linecap:round; stroke-linejoin:round; stroke-width:7.5; stroke-opacity:1; fill:none" points="2074.77,825.6 2200.9,825.6 "/>
<g clip-path="url(#clip710)">
<text style="fill:#000000; fill-opacity:1; font-family:Book Antiqua,Palatino,Palatino Linotype,Palatino LT STD,Georgia,serif; font-size:94px; text-anchor:start;" transform="rotate(0, 2221.92, 899.04)" x="2221.92" y="899.04">6</text>
</g>
<path clip-path="url(#clip710)" d="M2074.77 1009.83 L2200.9 1009.83 L2200.9 927.951 L2074.77 927.951 L2074.77 1009.83  Z" fill="#824f8e" fill-rule="evenodd" fill-opacity="1"/>
<polyline clip-path="url(#clip710)" style="stroke:#824f8e; stroke-linecap:round; stroke-linejoin:round; stroke-width:7.5; stroke-opacity:1; fill:none" points="2074.77,927.951 2200.9,927.951 "/>
<g clip-path="url(#clip710)">
<text style="fill:#000000; fill-opacity:1; font-family:Book Antiqua,Palatino,Palatino Linotype,Palatino LT STD,Georgia,serif; font-size:94px; text-anchor:start;" transform="rotate(0, 2221.92, 1001.39)" x="2221.92" y="1001.39">7</text>
</g>
</svg>
