<?xml version="1.0" encoding="utf-8"?>
<svg xmlns="http://www.w3.org/2000/svg" xmlns:xlink="http://www.w3.org/1999/xlink" width="600" height="400" viewBox="0 0 2400 1600">
<defs>
  <clipPath id="clip680">
    <rect x="0" y="0" width="2400" height="1600"/>
  </clipPath>
</defs>
<path clip-path="url(#clip680)" d="M0 1600 L2400 1600 L2400 0 L0 0  Z" fill="#ffffff" fill-rule="evenodd" fill-opacity="1"/>
<defs>
  <clipPath id="clip681">
    <rect x="480" y="0" width="1681" height="1600"/>
  </clipPath>
</defs>
<path clip-path="url(#clip680)" d="M374.428 1305.8 L1987.56 1305.8 L1987.56 110.236 L374.428 110.236  Z" fill="#ffffff" fill-rule="evenodd" fill-opacity="1"/>
<defs>
  <clipPath id="clip682">
    <rect x="374" y="110" width="1614" height="1197"/>
  </clipPath>
</defs>
<polyline clip-path="url(#clip682)" style="stroke:#000000; stroke-linecap:round; stroke-linejoin:round; stroke-width:2; stroke-opacity:0.1; fill:none" points="404.711,1305.8 404.711,110.236 "/>
<polyline clip-path="url(#clip682)" style="stroke:#000000; stroke-linecap:round; stroke-linejoin:round; stroke-width:2; stroke-opacity:0.1; fill:none" points="789.011,1305.8 789.011,110.236 "/>
<polyline clip-path="url(#clip682)" style="stroke:#000000; stroke-linecap:round; stroke-linejoin:round; stroke-width:2; stroke-opacity:0.1; fill:none" points="1173.31,1305.8 1173.31,110.236 "/>
<polyline clip-path="url(#clip682)" style="stroke:#000000; stroke-linecap:round; stroke-linejoin:round; stroke-width:2; stroke-opacity:0.1; fill:none" points="1557.61,1305.8 1557.61,110.236 "/>
<polyline clip-path="url(#clip682)" style="stroke:#000000; stroke-linecap:round; stroke-linejoin:round; stroke-width:2; stroke-opacity:0.1; fill:none" points="1941.91,1305.8 1941.91,110.236 "/>
<polyline clip-path="url(#clip680)" style="stroke:#000000; stroke-linecap:round; stroke-linejoin:round; stroke-width:4; stroke-opacity:1; fill:none" points="374.428,1305.8 1987.56,1305.8 "/>
<polyline clip-path="url(#clip680)" style="stroke:#000000; stroke-linecap:round; stroke-linejoin:round; stroke-width:4; stroke-opacity:1; fill:none" points="404.711,1305.8 404.711,1286.9 "/>
<polyline clip-path="url(#clip680)" style="stroke:#000000; stroke-linecap:round; stroke-linejoin:round; stroke-width:4; stroke-opacity:1; fill:none" points="789.011,1305.8 789.011,1286.9 "/>
<polyline clip-path="url(#clip680)" style="stroke:#000000; stroke-linecap:round; stroke-linejoin:round; stroke-width:4; stroke-opacity:1; fill:none" points="1173.31,1305.8 1173.31,1286.9 "/>
<polyline clip-path="url(#clip680)" style="stroke:#000000; stroke-linecap:round; stroke-linejoin:round; stroke-width:4; stroke-opacity:1; fill:none" points="1557.61,1305.8 1557.61,1286.9 "/>
<polyline clip-path="url(#clip680)" style="stroke:#000000; stroke-linecap:round; stroke-linejoin:round; stroke-width:4; stroke-opacity:1; fill:none" points="1941.91,1305.8 1941.91,1286.9 "/>
<g clip-path="url(#clip680)">
<text style="fill:#000000; fill-opacity:1; font-family:Book Antiqua,Palatino,Palatino Linotype,Palatino LT STD,Georgia,serif; font-size:94px; text-anchor:middle;" transform="rotate(0, 404.711, 1408.68)" x="404.711" y="1408.68">0</text>
</g>
<g clip-path="url(#clip680)">
<text style="fill:#000000; fill-opacity:1; font-family:Book Antiqua,Palatino,Palatino Linotype,Palatino LT STD,Georgia,serif; font-size:94px; text-anchor:middle;" transform="rotate(0, 789.011, 1408.68)" x="789.011" y="1408.68">25</text>
</g>
<g clip-path="url(#clip680)">
<text style="fill:#000000; fill-opacity:1; font-family:Book Antiqua,Palatino,Palatino Linotype,Palatino LT STD,Georgia,serif; font-size:94px; text-anchor:middle;" transform="rotate(0, 1173.31, 1408.68)" x="1173.31" y="1408.68">50</text>
</g>
<g clip-path="url(#clip680)">
<text style="fill:#000000; fill-opacity:1; font-family:Book Antiqua,Palatino,Palatino Linotype,Palatino LT STD,Georgia,serif; font-size:94px; text-anchor:middle;" transform="rotate(0, 1557.61, 1408.68)" x="1557.61" y="1408.68">75</text>
</g>
<g clip-path="url(#clip680)">
<text style="fill:#000000; fill-opacity:1; font-family:Book Antiqua,Palatino,Palatino Linotype,Palatino LT STD,Georgia,serif; font-size:94px; text-anchor:middle;" transform="rotate(0, 1941.91, 1408.68)" x="1941.91" y="1408.68">100</text>
</g>
<g clip-path="url(#clip680)">
<text style="fill:#000000; fill-opacity:1; font-family:Book Antiqua,Palatino,Palatino Linotype,Palatino LT STD,Georgia,serif; font-size:94px; text-anchor:middle;" transform="rotate(0, 1181, 1533.5)" x="1181" y="1533.5">Epochs</text>
</g>
<polyline clip-path="url(#clip682)" style="stroke:#000000; stroke-linecap:round; stroke-linejoin:round; stroke-width:2; stroke-opacity:0.1; fill:none" points="374.428,1271.96 1987.56,1271.96 "/>
<polyline clip-path="url(#clip682)" style="stroke:#000000; stroke-linecap:round; stroke-linejoin:round; stroke-width:2; stroke-opacity:0.1; fill:none" points="374.428,896 1987.56,896 "/>
<polyline clip-path="url(#clip682)" style="stroke:#000000; stroke-linecap:round; stroke-linejoin:round; stroke-width:2; stroke-opacity:0.1; fill:none" points="374.428,520.037 1987.56,520.037 "/>
<polyline clip-path="url(#clip682)" style="stroke:#000000; stroke-linecap:round; stroke-linejoin:round; stroke-width:2; stroke-opacity:0.1; fill:none" points="374.428,144.073 1987.56,144.073 "/>
<polyline clip-path="url(#clip680)" style="stroke:#000000; stroke-linecap:round; stroke-linejoin:round; stroke-width:4; stroke-opacity:1; fill:none" points="374.428,1305.8 374.428,110.236 "/>
<polyline clip-path="url(#clip680)" style="stroke:#000000; stroke-linecap:round; stroke-linejoin:round; stroke-width:4; stroke-opacity:1; fill:none" points="374.428,1271.96 390.344,1271.96 "/>
<polyline clip-path="url(#clip680)" style="stroke:#000000; stroke-linecap:round; stroke-linejoin:round; stroke-width:4; stroke-opacity:1; fill:none" points="374.428,896 390.344,896 "/>
<polyline clip-path="url(#clip680)" style="stroke:#000000; stroke-linecap:round; stroke-linejoin:round; stroke-width:4; stroke-opacity:1; fill:none" points="374.428,520.037 390.344,520.037 "/>
<polyline clip-path="url(#clip680)" style="stroke:#000000; stroke-linecap:round; stroke-linejoin:round; stroke-width:4; stroke-opacity:1; fill:none" points="374.428,144.073 390.344,144.073 "/>
<g clip-path="url(#clip680)">
<text style="fill:#000000; fill-opacity:1; font-family:Book Antiqua,Palatino,Palatino Linotype,Palatino LT STD,Georgia,serif; font-size:94px; text-anchor:middle;" transform="rotate(0, 315.018, 1304.46)" x="315.018" y="1304.46">0</text>
</g>
<g clip-path="url(#clip680)">
<text style="fill:#000000; fill-opacity:1; font-family:Book Antiqua,Palatino,Palatino Linotype,Palatino LT STD,Georgia,serif; font-size:94px; text-anchor:middle;" transform="rotate(0, 268.197, 928.5)" x="268.197" y="928.5">100</text>
</g>
<g clip-path="url(#clip680)">
<text style="fill:#000000; fill-opacity:1; font-family:Book Antiqua,Palatino,Palatino Linotype,Palatino LT STD,Georgia,serif; font-size:94px; text-anchor:middle;" transform="rotate(0, 268.197, 552.537)" x="268.197" y="552.537">200</text>
</g>
<g clip-path="url(#clip680)">
<text style="fill:#000000; fill-opacity:1; font-family:Book Antiqua,Palatino,Palatino Linotype,Palatino LT STD,Georgia,serif; font-size:94px; text-anchor:middle;" transform="rotate(0, 268.197, 176.573)" x="268.197" y="176.573">300</text>
</g>
<g clip-path="url(#clip680)">
<text style="fill:#000000; fill-opacity:1; font-family:Book Antiqua,Palatino,Palatino Linotype,Palatino LT STD,Georgia,serif; font-size:94px; text-anchor:middle;" transform="rotate(-90, 137.616, 708.018)" x="137.616" y="708.018">Probability</text>
</g>
<path clip-path="url(#clip682)" d="M420.083 1249.41 L435.455 1245.65 L450.827 1253.17 L466.199 1264.44 L481.571 1245.65 L496.943 1249.41 L512.315 1253.17 L527.687 1260.69 L543.059 1238.13 L558.431 1241.89 L573.803 1241.89 L589.175 1238.13 L604.547 1230.61 L619.919 1226.85 L635.291 1245.65 L650.663 1234.37 L666.035 1230.61 L681.407 1204.29 L696.779 1223.09 L712.151 1208.05 L727.523 1208.05 L742.895 1196.77 L758.267 1223.09 L773.639 1211.81 L789.011 1226.85 L804.383 1219.33 L819.755 1181.73 L835.127 1200.53 L850.499 1211.81 L865.871 1185.49 L881.243 1193.01 L896.615 1200.53 L911.987 1193.01 L927.359 1185.49 L942.731 1196.77 L958.103 1196.77 L973.475 1211.81 L988.847 1162.93 L1004.22 1155.42 L1019.59 1177.97 L1034.96 1193.01 L1050.33 1125.34 L1065.71 1147.9 L1081.08 1185.49 L1096.45 1144.14 L1111.82 1200.53 L1127.19 1147.9 L1142.57 1174.21 L1157.94 1151.66 L1173.31 1159.17 L1188.68 1181.73 L1204.05 1155.42 L1219.43 1174.21 L1234.8 1177.97 L1250.17 1132.86 L1265.54 1159.17 L1280.91 1132.86 L1296.29 1155.42 L1311.66 1155.42 L1327.03 1185.49 L1342.4 1162.93 L1357.77 1166.69 L1373.15 1162.93 L1388.52 1174.21 L1403.89 1162.93 L1419.26 1140.38 L1434.63 1155.42 L1450.01 1147.9 L1465.38 1151.66 L1480.75 1147.9 L1496.12 1129.1 L1511.49 1147.9 L1526.87 1125.34 L1542.24 1091.5 L1557.61 1162.93 L1572.98 1125.34 L1588.35 1121.58 L1603.73 1121.58 L1619.1 1144.14 L1634.47 1125.34 L1649.84 1147.9 L1665.21 1147.9 L1680.59 1121.58 L1695.96 1121.58 L1711.33 1125.34 L1726.7 1132.86 L1742.07 1144.14 L1757.45 1091.5 L1772.82 1155.42 L1788.19 1099.02 L1803.56 1140.38 L1818.93 1091.5 L1834.31 1166.69 L1849.68 1136.62 L1865.05 1147.9 L1880.42 1117.82 L1895.79 1144.14 L1911.17 1147.9 L1926.54 1140.38 L1941.91 1117.82 L1941.91 1271.96 L1926.54 1271.96 L1911.17 1271.96 L1895.79 1271.96 L1880.42 1271.96 L1865.05 1271.96 L1849.68 1271.96 L1834.31 1271.96 L1818.93 1271.96 L1803.56 1271.96 L1788.19 1271.96 L1772.82 1271.96 L1757.45 1271.96 L1742.07 1271.96 L1726.7 1271.96 L1711.33 1271.96 L1695.96 1271.96 L1680.59 1271.96 L1665.21 1271.96 L1649.84 1271.96 L1634.47 1271.96 L1619.1 1271.96 L1603.73 1271.96 L1588.35 1271.96 L1572.98 1271.96 L1557.61 1271.96 L1542.24 1271.96 L1526.87 1271.96 L1511.49 1271.96 L1496.12 1271.96 L1480.75 1271.96 L1465.38 1271.96 L1450.01 1271.96 L1434.63 1271.96 L1419.26 1271.96 L1403.89 1271.96 L1388.52 1271.96 L1373.15 1271.96 L1357.77 1271.96 L1342.4 1271.96 L1327.03 1271.96 L1311.66 1271.96 L1296.29 1271.96 L1280.91 1271.96 L1265.54 1271.96 L1250.17 1271.96 L1234.8 1271.96 L1219.43 1271.96 L1204.05 1271.96 L1188.68 1271.96 L1173.31 1271.96 L1157.94 1271.96 L1142.57 1271.96 L1127.19 1271.96 L1111.82 1271.96 L1096.45 1271.96 L1081.08 1271.96 L1065.71 1271.96 L1050.33 1271.96 L1034.96 1271.96 L1019.59 1271.96 L1004.22 1271.96 L988.847 1271.96 L973.475 1271.96 L958.103 1271.96 L942.731 1271.96 L927.359 1271.96 L911.987 1271.96 L896.615 1271.96 L881.243 1271.96 L865.871 1271.96 L850.499 1271.96 L835.127 1271.96 L819.755 1271.96 L804.383 1271.96 L789.011 1271.96 L773.639 1271.96 L758.267 1271.96 L742.895 1271.96 L727.523 1271.96 L712.151 1271.96 L696.779 1271.96 L681.407 1271.96 L666.035 1271.96 L650.663 1271.96 L635.291 1271.96 L619.919 1271.96 L604.547 1271.96 L589.175 1271.96 L573.803 1271.96 L558.431 1271.96 L543.059 1271.96 L527.687 1271.96 L512.315 1271.96 L496.943 1271.96 L481.571 1271.96 L466.199 1271.96 L450.827 1271.96 L435.455 1271.96 L420.083 1271.96  Z" fill="#032333" fill-rule="evenodd" fill-opacity="1"/>
<polyline clip-path="url(#clip682)" style="stroke:#032333; stroke-linecap:round; stroke-linejoin:round; stroke-width:4; stroke-opacity:1; fill:none" points="420.083,1249.41 435.455,1245.65 450.827,1253.17 466.199,1264.44 481.571,1245.65 496.943,1249.41 512.315,1253.17 527.687,1260.69 543.059,1238.13 558.431,1241.89 573.803,1241.89 589.175,1238.13 604.547,1230.61 619.919,1226.85 635.291,1245.65 650.663,1234.37 666.035,1230.61 681.407,1204.29 696.779,1223.09 712.151,1208.05 727.523,1208.05 742.895,1196.77 758.267,1223.09 773.639,1211.81 789.011,1226.85 804.383,1219.33 819.755,1181.73 835.127,1200.53 850.499,1211.81 865.871,1185.49 881.243,1193.01 896.615,1200.53 911.987,1193.01 927.359,1185.49 942.731,1196.77 958.103,1196.77 973.475,1211.81 988.847,1162.93 1004.22,1155.42 1019.59,1177.97 1034.96,1193.01 1050.33,1125.34 1065.71,1147.9 1081.08,1185.49 1096.45,1144.14 1111.82,1200.53 1127.19,1147.9 1142.57,1174.21 1157.94,1151.66 1173.31,1159.17 1188.68,1181.73 1204.05,1155.42 1219.43,1174.21 1234.8,1177.97 1250.17,1132.86 1265.54,1159.17 1280.91,1132.86 1296.29,1155.42 1311.66,1155.42 1327.03,1185.49 1342.4,1162.93 1357.77,1166.69 1373.15,1162.93 1388.52,1174.21 1403.89,1162.93 1419.26,1140.38 1434.63,1155.42 1450.01,1147.9 1465.38,1151.66 1480.75,1147.9 1496.12,1129.1 1511.49,1147.9 1526.87,1125.34 1542.24,1091.5 1557.61,1162.93 1572.98,1125.34 1588.35,1121.58 1603.73,1121.58 1619.1,1144.14 1634.47,1125.34 1649.84,1147.9 1665.21,1147.9 1680.59,1121.58 1695.96,1121.58 1711.33,1125.34 1726.7,1132.86 1742.07,1144.14 1757.45,1091.5 1772.82,1155.42 1788.19,1099.02 1803.56,1140.38 1818.93,1091.5 1834.31,1166.69 1849.68,1136.62 1865.05,1147.9 1880.42,1117.82 1895.79,1144.14 1911.17,1147.9 1926.54,1140.38 1941.91,1117.82 "/>
<path clip-path="url(#clip682)" d="M420.083 1245.65 L435.455 1241.89 L450.827 1241.89 L466.199 1256.93 L481.571 1241.89 L496.943 1241.89 L512.315 1249.41 L527.687 1260.69 L543.059 1234.37 L558.431 1238.13 L573.803 1226.85 L589.175 1219.33 L604.547 1219.33 L619.919 1204.29 L635.291 1230.61 L650.663 1215.57 L666.035 1219.33 L681.407 1189.25 L696.779 1200.53 L712.151 1189.25 L727.523 1181.73 L742.895 1174.21 L758.267 1193.01 L773.639 1177.97 L789.011 1181.73 L804.383 1193.01 L819.755 1162.93 L835.127 1159.17 L850.499 1177.97 L865.871 1117.82 L881.243 1166.69 L896.615 1140.38 L911.987 1106.54 L927.359 1136.62 L942.731 1151.66 L958.103 1132.86 L973.475 1125.34 L988.847 1083.98 L1004.22 1102.78 L1019.59 1117.82 L1034.96 1129.1 L1050.33 1050.15 L1065.71 1099.02 L1081.08 1114.06 L1096.45 1087.74 L1111.82 1114.06 L1127.19 1046.39 L1142.57 1099.02 L1157.94 1031.35 L1173.31 1046.39 L1188.68 1050.15 L1204.05 1057.66 L1219.43 1106.54 L1234.8 1087.74 L1250.17 1053.91 L1265.54 1035.11 L1280.91 1016.31 L1296.29 1046.39 L1311.66 1050.15 L1327.03 1065.18 L1342.4 1042.63 L1357.77 1050.15 L1373.15 1057.66 L1388.52 1053.91 L1403.89 1046.39 L1419.26 1016.31 L1434.63 1046.39 L1450.01 1042.63 L1465.38 1020.07 L1480.75 1046.39 L1496.12 1001.27 L1511.49 1042.63 L1526.87 1020.07 L1542.24 971.193 L1557.61 1020.07 L1572.98 1020.07 L1588.35 1008.79 L1603.73 982.472 L1619.1 1027.59 L1634.47 1023.83 L1649.84 1023.83 L1665.21 1023.83 L1680.59 997.51 L1695.96 1008.79 L1711.33 1001.27 L1726.7 1001.27 L1742.07 978.712 L1757.45 959.914 L1772.82 1023.83 L1788.19 967.433 L1803.56 1020.07 L1818.93 967.433 L1834.31 1016.31 L1849.68 1005.03 L1865.05 1031.35 L1880.42 971.193 L1895.79 1008.79 L1911.17 1005.03 L1926.54 986.232 L1941.91 974.953 L1941.91 1117.82 L1926.54 1140.38 L1911.17 1147.9 L1895.79 1144.14 L1880.42 1117.82 L1865.05 1147.9 L1849.68 1136.62 L1834.31 1166.69 L1818.93 1091.5 L1803.56 1140.38 L1788.19 1099.02 L1772.82 1155.42 L1757.45 1091.5 L1742.07 1144.14 L1726.7 1132.86 L1711.33 1125.34 L1695.96 1121.58 L1680.59 1121.58 L1665.21 1147.9 L1649.84 1147.9 L1634.47 1125.34 L1619.1 1144.14 L1603.73 1121.58 L1588.35 1121.58 L1572.98 1125.34 L1557.61 1162.93 L1542.24 1091.5 L1526.87 1125.34 L1511.49 1147.9 L1496.12 1129.1 L1480.75 1147.9 L1465.38 1151.66 L1450.01 1147.9 L1434.63 1155.42 L1419.26 1140.38 L1403.89 1162.93 L1388.52 1174.21 L1373.15 1162.93 L1357.77 1166.69 L1342.4 1162.93 L1327.03 1185.49 L1311.66 1155.42 L1296.29 1155.42 L1280.91 1132.86 L1265.54 1159.17 L1250.17 1132.86 L1234.8 1177.97 L1219.43 1174.21 L1204.05 1155.42 L1188.68 1181.73 L1173.31 1159.17 L1157.94 1151.66 L1142.57 1174.21 L1127.19 1147.9 L1111.82 1200.53 L1096.45 1144.14 L1081.08 1185.49 L1065.71 1147.9 L1050.33 1125.34 L1034.96 1193.01 L1019.59 1177.97 L1004.22 1155.42 L988.847 1162.93 L973.475 1211.81 L958.103 1196.77 L942.731 1196.77 L927.359 1185.49 L911.987 1193.01 L896.615 1200.53 L881.243 1193.01 L865.871 1185.49 L850.499 1211.81 L835.127 1200.53 L819.755 1181.73 L804.383 1219.33 L789.011 1226.85 L773.639 1211.81 L758.267 1223.09 L742.895 1196.77 L727.523 1208.05 L712.151 1208.05 L696.779 1223.09 L681.407 1204.29 L666.035 1230.61 L650.663 1234.37 L635.291 1245.65 L619.919 1226.85 L604.547 1230.61 L589.175 1238.13 L573.803 1241.89 L558.431 1241.89 L543.059 1238.13 L527.687 1260.69 L512.315 1253.17 L496.943 1249.41 L481.571 1245.65 L466.199 1264.44 L450.827 1253.17 L435.455 1245.65 L420.083 1249.41  Z" fill="#e7fa5a" fill-rule="evenodd" fill-opacity="1"/>
<polyline clip-path="url(#clip682)" style="stroke:#e7fa5a; stroke-linecap:round; stroke-linejoin:round; stroke-width:4; stroke-opacity:1; fill:none" points="420.083,1245.65 435.455,1241.89 450.827,1241.89 466.199,1256.93 481.571,1241.89 496.943,1241.89 512.315,1249.41 527.687,1260.69 543.059,1234.37 558.431,1238.13 573.803,1226.85 589.175,1219.33 604.547,1219.33 619.919,1204.29 635.291,1230.61 650.663,1215.57 666.035,1219.33 681.407,1189.25 696.779,1200.53 712.151,1189.25 727.523,1181.73 742.895,1174.21 758.267,1193.01 773.639,1177.97 789.011,1181.73 804.383,1193.01 819.755,1162.93 835.127,1159.17 850.499,1177.97 865.871,1117.82 881.243,1166.69 896.615,1140.38 911.987,1106.54 927.359,1136.62 942.731,1151.66 958.103,1132.86 973.475,1125.34 988.847,1083.98 1004.22,1102.78 1019.59,1117.82 1034.96,1129.1 1050.33,1050.15 1065.71,1099.02 1081.08,1114.06 1096.45,1087.74 1111.82,1114.06 1127.19,1046.39 1142.57,1099.02 1157.94,1031.35 1173.31,1046.39 1188.68,1050.15 1204.05,1057.66 1219.43,1106.54 1234.8,1087.74 1250.17,1053.91 1265.54,1035.11 1280.91,1016.31 1296.29,1046.39 1311.66,1050.15 1327.03,1065.18 1342.4,1042.63 1357.77,1050.15 1373.15,1057.66 1388.52,1053.91 1403.89,1046.39 1419.26,1016.31 1434.63,1046.39 1450.01,1042.63 1465.38,1020.07 1480.75,1046.39 1496.12,1001.27 1511.49,1042.63 1526.87,1020.07 1542.24,971.193 1557.61,1020.07 1572.98,1020.07 1588.35,1008.79 1603.73,982.472 1619.1,1027.59 1634.47,1023.83 1649.84,1023.83 1665.21,1023.83 1680.59,997.51 1695.96,1008.79 1711.33,1001.27 1726.7,1001.27 1742.07,978.712 1757.45,959.914 1772.82,1023.83 1788.19,967.433 1803.56,1020.07 1818.93,967.433 1834.31,1016.31 1849.68,1005.03 1865.05,1031.35 1880.42,971.193 1895.79,1008.79 1911.17,1005.03 1926.54,986.232 1941.91,974.953 "/>
<path clip-path="url(#clip682)" d="M420.083 1095.26 L435.455 1091.5 L450.827 1102.78 L466.199 1132.86 L481.571 1053.91 L496.943 1042.63 L512.315 1083.98 L527.687 1068.94 L543.059 1057.66 L558.431 1087.74 L573.803 1061.42 L589.175 1038.87 L604.547 1053.91 L619.919 978.712 L635.291 1042.63 L650.663 1023.83 L666.035 1057.66 L681.407 978.712 L696.779 1008.79 L712.151 978.712 L727.523 974.953 L742.895 1001.27 L758.267 978.712 L773.639 967.433 L789.011 903.52 L804.383 997.51 L819.755 978.712 L835.127 948.635 L850.499 959.914 L865.871 918.558 L881.243 989.991 L896.615 986.232 L911.987 929.837 L927.359 937.356 L942.731 952.395 L958.103 952.395 L973.475 922.318 L988.847 884.721 L1004.22 933.597 L1019.59 959.914 L1034.96 944.876 L1050.33 903.52 L1065.71 911.039 L1081.08 933.597 L1096.45 937.356 L1111.82 914.798 L1127.19 892.241 L1142.57 926.077 L1157.94 888.481 L1173.31 911.039 L1188.68 896 L1204.05 903.52 L1219.43 918.558 L1234.8 918.558 L1250.17 877.202 L1265.54 858.404 L1280.91 869.683 L1296.29 884.721 L1311.66 858.404 L1327.03 926.077 L1342.4 907.279 L1357.77 907.279 L1373.15 854.644 L1388.52 877.202 L1403.89 911.039 L1419.26 884.721 L1434.63 884.721 L1450.01 896 L1465.38 850.885 L1480.75 896 L1496.12 820.808 L1511.49 892.241 L1526.87 892.241 L1542.24 820.808 L1557.61 854.644 L1572.98 858.404 L1588.35 884.721 L1603.73 865.923 L1619.1 888.481 L1634.47 873.442 L1649.84 926.077 L1665.21 835.846 L1680.59 847.125 L1695.96 832.086 L1711.33 869.683 L1726.7 877.202 L1742.07 817.048 L1757.45 809.529 L1772.82 865.923 L1788.19 802.009 L1803.56 869.683 L1818.93 877.202 L1834.31 824.567 L1849.68 854.644 L1865.05 858.404 L1880.42 828.327 L1895.79 862.164 L1911.17 850.885 L1926.54 854.644 L1941.91 817.048 L1941.91 974.953 L1926.54 986.232 L1911.17 1005.03 L1895.79 1008.79 L1880.42 971.193 L1865.05 1031.35 L1849.68 1005.03 L1834.31 1016.31 L1818.93 967.433 L1803.56 1020.07 L1788.19 967.433 L1772.82 1023.83 L1757.45 959.914 L1742.07 978.712 L1726.7 1001.27 L1711.33 1001.27 L1695.96 1008.79 L1680.59 997.51 L1665.21 1023.83 L1649.84 1023.83 L1634.47 1023.83 L1619.1 1027.59 L1603.73 982.472 L1588.35 1008.79 L1572.98 1020.07 L1557.61 1020.07 L1542.24 971.193 L1526.87 1020.07 L1511.49 1042.63 L1496.12 1001.27 L1480.75 1046.39 L1465.38 1020.07 L1450.01 1042.63 L1434.63 1046.39 L1419.26 1016.31 L1403.89 1046.39 L1388.52 1053.91 L1373.15 1057.66 L1357.77 1050.15 L1342.4 1042.63 L1327.03 1065.18 L1311.66 1050.15 L1296.29 1046.39 L1280.91 1016.31 L1265.54 1035.11 L1250.17 1053.91 L1234.8 1087.74 L1219.43 1106.54 L1204.05 1057.66 L1188.68 1050.15 L1173.31 1046.39 L1157.94 1031.35 L1142.57 1099.02 L1127.19 1046.39 L1111.82 1114.06 L1096.45 1087.74 L1081.08 1114.06 L1065.71 1099.02 L1050.33 1050.15 L1034.96 1129.1 L1019.59 1117.82 L1004.22 1102.78 L988.847 1083.98 L973.475 1125.34 L958.103 1132.86 L942.731 1151.66 L927.359 1136.62 L911.987 1106.54 L896.615 1140.38 L881.243 1166.69 L865.871 1117.82 L850.499 1177.97 L835.127 1159.17 L819.755 1162.93 L804.383 1193.01 L789.011 1181.73 L773.639 1177.97 L758.267 1193.01 L742.895 1174.21 L727.523 1181.73 L712.151 1189.25 L696.779 1200.53 L681.407 1189.25 L666.035 1219.33 L650.663 1215.57 L635.291 1230.61 L619.919 1204.29 L604.547 1219.33 L589.175 1219.33 L573.803 1226.85 L558.431 1238.13 L543.059 1234.37 L527.687 1260.69 L512.315 1249.41 L496.943 1241.89 L481.571 1241.89 L466.199 1256.93 L450.827 1241.89 L435.455 1241.89 L420.083 1245.65  Z" fill="#af5f81" fill-rule="evenodd" fill-opacity="1"/>
<polyline clip-path="url(#clip682)" style="stroke:#af5f81; stroke-linecap:round; stroke-linejoin:round; stroke-width:4; stroke-opacity:1; fill:none" points="420.083,1095.26 435.455,1091.5 450.827,1102.78 466.199,1132.86 481.571,1053.91 496.943,1042.63 512.315,1083.98 527.687,1068.94 543.059,1057.66 558.431,1087.74 573.803,1061.42 589.175,1038.87 604.547,1053.91 619.919,978.712 635.291,1042.63 650.663,1023.83 666.035,1057.66 681.407,978.712 696.779,1008.79 712.151,978.712 727.523,974.953 742.895,1001.27 758.267,978.712 773.639,967.433 789.011,903.52 804.383,997.51 819.755,978.712 835.127,948.635 850.499,959.914 865.871,918.558 881.243,989.991 896.615,986.232 911.987,929.837 927.359,937.356 942.731,952.395 958.103,952.395 973.475,922.318 988.847,884.721 1004.22,933.597 1019.59,959.914 1034.96,944.876 1050.33,903.52 1065.71,911.039 1081.08,933.597 1096.45,937.356 1111.82,914.798 1127.19,892.241 1142.57,926.077 1157.94,888.481 1173.31,911.039 1188.68,896 1204.05,903.52 1219.43,918.558 1234.8,918.558 1250.17,877.202 1265.54,858.404 1280.91,869.683 1296.29,884.721 1311.66,858.404 1327.03,926.077 1342.4,907.279 1357.77,907.279 1373.15,854.644 1388.52,877.202 1403.89,911.039 1419.26,884.721 1434.63,884.721 1450.01,896 1465.38,850.885 1480.75,896 1496.12,820.808 1511.49,892.241 1526.87,892.241 1542.24,820.808 1557.61,854.644 1572.98,858.404 1588.35,884.721 1603.73,865.923 1619.1,888.481 1634.47,873.442 1649.84,926.077 1665.21,835.846 1680.59,847.125 1695.96,832.086 1711.33,869.683 1726.7,877.202 1742.07,817.048 1757.45,809.529 1772.82,865.923 1788.19,802.009 1803.56,869.683 1818.93,877.202 1834.31,824.567 1849.68,854.644 1865.05,858.404 1880.42,828.327 1895.79,862.164 1911.17,850.885 1926.54,854.644 1941.91,817.048 "/>
<path clip-path="url(#clip682)" d="M420.083 1076.46 L435.455 1065.18 L450.827 1083.98 L466.199 1083.98 L481.571 1023.83 L496.943 1008.79 L512.315 1042.63 L527.687 1020.07 L543.059 1016.31 L558.431 1023.83 L573.803 1016.31 L589.175 986.232 L604.547 982.472 L619.919 937.356 L635.291 956.154 L650.663 948.635 L666.035 978.712 L681.407 911.039 L696.779 929.837 L712.151 884.721 L727.523 877.202 L742.895 926.077 L758.267 847.125 L773.639 873.442 L789.011 805.769 L804.383 884.721 L819.755 896 L835.127 835.846 L850.499 820.808 L865.871 813.288 L881.243 832.086 L896.615 824.567 L911.987 756.894 L927.359 813.288 L942.731 805.769 L958.103 824.567 L973.475 786.971 L988.847 753.134 L1004.22 798.25 L1019.59 805.769 L1034.96 775.692 L1050.33 749.374 L1065.71 786.971 L1081.08 786.971 L1096.45 741.855 L1111.82 786.971 L1127.19 730.576 L1142.57 775.692 L1157.94 760.653 L1173.31 805.769 L1188.68 741.855 L1204.05 738.096 L1219.43 794.49 L1234.8 786.971 L1250.17 719.297 L1265.54 741.855 L1280.91 764.413 L1296.29 741.855 L1311.66 719.297 L1327.03 771.932 L1342.4 745.615 L1357.77 730.576 L1373.15 715.538 L1388.52 726.817 L1403.89 741.855 L1419.26 708.018 L1434.63 738.096 L1450.01 779.452 L1465.38 741.855 L1480.75 753.134 L1496.12 723.057 L1511.49 775.692 L1526.87 741.855 L1542.24 685.461 L1557.61 734.336 L1572.98 715.538 L1588.35 749.374 L1603.73 730.576 L1619.1 719.297 L1634.47 756.894 L1649.84 779.452 L1665.21 692.98 L1680.59 730.576 L1695.96 696.74 L1711.33 726.817 L1726.7 719.297 L1742.07 674.182 L1757.45 685.461 L1772.82 689.22 L1788.19 708.018 L1803.56 711.778 L1818.93 711.778 L1834.31 651.624 L1849.68 745.615 L1865.05 723.057 L1880.42 696.74 L1895.79 730.576 L1911.17 708.018 L1926.54 708.018 L1941.91 677.941 L1941.91 817.048 L1926.54 854.644 L1911.17 850.885 L1895.79 862.164 L1880.42 828.327 L1865.05 858.404 L1849.68 854.644 L1834.31 824.567 L1818.93 877.202 L1803.56 869.683 L1788.19 802.009 L1772.82 865.923 L1757.45 809.529 L1742.07 817.048 L1726.7 877.202 L1711.33 869.683 L1695.96 832.086 L1680.59 847.125 L1665.21 835.846 L1649.84 926.077 L1634.47 873.442 L1619.1 888.481 L1603.73 865.923 L1588.35 884.721 L1572.98 858.404 L1557.61 854.644 L1542.24 820.808 L1526.87 892.241 L1511.49 892.241 L1496.12 820.808 L1480.75 896 L1465.38 850.885 L1450.01 896 L1434.63 884.721 L1419.26 884.721 L1403.89 911.039 L1388.52 877.202 L1373.15 854.644 L1357.77 907.279 L1342.4 907.279 L1327.03 926.077 L1311.66 858.404 L1296.29 884.721 L1280.91 869.683 L1265.54 858.404 L1250.17 877.202 L1234.8 918.558 L1219.43 918.558 L1204.05 903.52 L1188.68 896 L1173.31 911.039 L1157.94 888.481 L1142.57 926.077 L1127.19 892.241 L1111.82 914.798 L1096.45 937.356 L1081.08 933.597 L1065.71 911.039 L1050.33 903.52 L1034.96 944.876 L1019.59 959.914 L1004.22 933.597 L988.847 884.721 L973.475 922.318 L958.103 952.395 L942.731 952.395 L927.359 937.356 L911.987 929.837 L896.615 986.232 L881.243 989.991 L865.871 918.558 L850.499 959.914 L835.127 948.635 L819.755 978.712 L804.383 997.51 L789.011 903.52 L773.639 967.433 L758.267 978.712 L742.895 1001.27 L727.523 974.953 L712.151 978.712 L696.779 1008.79 L681.407 978.712 L666.035 1057.66 L650.663 1023.83 L635.291 1042.63 L619.919 978.712 L604.547 1053.91 L589.175 1038.87 L573.803 1061.42 L558.431 1087.74 L543.059 1057.66 L527.687 1068.94 L512.315 1083.98 L496.943 1042.63 L481.571 1053.91 L466.199 1132.86 L450.827 1102.78 L435.455 1091.5 L420.083 1095.26  Z" fill="#553b9c" fill-rule="evenodd" fill-opacity="1"/>
<polyline clip-path="url(#clip682)" style="stroke:#553b9c; stroke-linecap:round; stroke-linejoin:round; stroke-width:4; stroke-opacity:1; fill:none" points="420.083,1076.46 435.455,1065.18 450.827,1083.98 466.199,1083.98 481.571,1023.83 496.943,1008.79 512.315,1042.63 527.687,1020.07 543.059,1016.31 558.431,1023.83 573.803,1016.31 589.175,986.232 604.547,982.472 619.919,937.356 635.291,956.154 650.663,948.635 666.035,978.712 681.407,911.039 696.779,929.837 712.151,884.721 727.523,877.202 742.895,926.077 758.267,847.125 773.639,873.442 789.011,805.769 804.383,884.721 819.755,896 835.127,835.846 850.499,820.808 865.871,813.288 881.243,832.086 896.615,824.567 911.987,756.894 927.359,813.288 942.731,805.769 958.103,824.567 973.475,786.971 988.847,753.134 1004.22,798.25 1019.59,805.769 1034.96,775.692 1050.33,749.374 1065.71,786.971 1081.08,786.971 1096.45,741.855 1111.82,786.971 1127.19,730.576 1142.57,775.692 1157.94,760.653 1173.31,805.769 1188.68,741.855 1204.05,738.096 1219.43,794.49 1234.8,786.971 1250.17,719.297 1265.54,741.855 1280.91,764.413 1296.29,741.855 1311.66,719.297 1327.03,771.932 1342.4,745.615 1357.77,730.576 1373.15,715.538 1388.52,726.817 1403.89,741.855 1419.26,708.018 1434.63,738.096 1450.01,779.452 1465.38,741.855 1480.75,753.134 1496.12,723.057 1511.49,775.692 1526.87,741.855 1542.24,685.461 1557.61,734.336 1572.98,715.538 1588.35,749.374 1603.73,730.576 1619.1,719.297 1634.47,756.894 1649.84,779.452 1665.21,692.98 1680.59,730.576 1695.96,696.74 1711.33,726.817 1726.7,719.297 1742.07,674.182 1757.45,685.461 1772.82,689.22 1788.19,708.018 1803.56,711.778 1818.93,711.778 1834.31,651.624 1849.68,745.615 1865.05,723.057 1880.42,696.74 1895.79,730.576 1911.17,708.018 1926.54,708.018 1941.91,677.941 "/>
<path clip-path="url(#clip682)" d="M420.083 1005.03 L435.455 1001.27 L450.827 1016.31 L466.199 1020.07 L481.571 944.876 L496.943 926.077 L512.315 948.635 L527.687 914.798 L543.059 926.077 L558.431 929.837 L573.803 933.597 L589.175 884.721 L604.547 862.164 L619.919 843.365 L635.291 862.164 L650.663 858.404 L666.035 873.442 L681.407 802.009 L696.779 805.769 L712.151 794.49 L727.523 764.413 L742.895 832.086 L758.267 756.894 L773.639 756.894 L789.011 681.701 L804.383 779.452 L819.755 786.971 L835.127 749.374 L850.499 674.182 L865.871 723.057 L881.243 723.057 L896.615 738.096 L911.987 659.143 L927.359 674.182 L942.731 685.461 L958.103 719.297 L973.475 647.864 L988.847 640.345 L1004.22 674.182 L1019.59 647.864 L1034.96 674.182 L1050.33 629.066 L1065.71 685.461 L1081.08 659.143 L1096.45 614.028 L1111.82 677.941 L1127.19 602.749 L1142.57 640.345 L1157.94 625.306 L1173.31 662.903 L1188.68 670.422 L1204.05 587.71 L1219.43 644.105 L1234.8 659.143 L1250.17 598.989 L1265.54 610.268 L1280.91 583.95 L1296.29 598.989 L1311.66 583.95 L1327.03 625.306 L1342.4 595.229 L1357.77 516.277 L1373.15 561.393 L1388.52 595.229 L1403.89 614.028 L1419.26 587.71 L1434.63 617.787 L1450.01 644.105 L1465.38 580.191 L1480.75 617.787 L1496.12 587.71 L1511.49 640.345 L1526.87 572.672 L1542.24 591.47 L1557.61 595.229 L1572.98 583.95 L1588.35 610.268 L1603.73 576.431 L1619.1 565.152 L1634.47 614.028 L1649.84 576.431 L1665.21 557.633 L1680.59 572.672 L1695.96 598.989 L1711.33 587.71 L1726.7 602.749 L1742.07 520.037 L1757.45 576.431 L1772.82 568.912 L1788.19 561.393 L1803.56 591.47 L1818.93 565.152 L1834.31 493.719 L1849.68 606.508 L1865.05 614.028 L1880.42 591.47 L1895.79 565.152 L1911.17 561.393 L1926.54 538.835 L1941.91 553.873 L1941.91 677.941 L1926.54 708.018 L1911.17 708.018 L1895.79 730.576 L1880.42 696.74 L1865.05 723.057 L1849.68 745.615 L1834.31 651.624 L1818.93 711.778 L1803.56 711.778 L1788.19 708.018 L1772.82 689.22 L1757.45 685.461 L1742.07 674.182 L1726.7 719.297 L1711.33 726.817 L1695.96 696.74 L1680.59 730.576 L1665.21 692.98 L1649.84 779.452 L1634.47 756.894 L1619.1 719.297 L1603.73 730.576 L1588.35 749.374 L1572.98 715.538 L1557.61 734.336 L1542.24 685.461 L1526.87 741.855 L1511.49 775.692 L1496.12 723.057 L1480.75 753.134 L1465.38 741.855 L1450.01 779.452 L1434.63 738.096 L1419.26 708.018 L1403.89 741.855 L1388.52 726.817 L1373.15 715.538 L1357.77 730.576 L1342.4 745.615 L1327.03 771.932 L1311.66 719.297 L1296.29 741.855 L1280.91 764.413 L1265.54 741.855 L1250.17 719.297 L1234.8 786.971 L1219.43 794.49 L1204.05 738.096 L1188.68 741.855 L1173.31 805.769 L1157.94 760.653 L1142.57 775.692 L1127.19 730.576 L1111.82 786.971 L1096.45 741.855 L1081.08 786.971 L1065.71 786.971 L1050.33 749.374 L1034.96 775.692 L1019.59 805.769 L1004.22 798.25 L988.847 753.134 L973.475 786.971 L958.103 824.567 L942.731 805.769 L927.359 813.288 L911.987 756.894 L896.615 824.567 L881.243 832.086 L865.871 813.288 L850.499 820.808 L835.127 835.846 L819.755 896 L804.383 884.721 L789.011 805.769 L773.639 873.442 L758.267 847.125 L742.895 926.077 L727.523 877.202 L712.151 884.721 L696.779 929.837 L681.407 911.039 L666.035 978.712 L650.663 948.635 L635.291 956.154 L619.919 937.356 L604.547 982.472 L589.175 986.232 L573.803 1016.31 L558.431 1023.83 L543.059 1016.31 L527.687 1020.07 L512.315 1042.63 L496.943 1008.79 L481.571 1023.83 L466.199 1083.98 L450.827 1083.98 L435.455 1065.18 L420.083 1076.46  Z" fill="#f99241" fill-rule="evenodd" fill-opacity="1"/>
<polyline clip-path="url(#clip682)" style="stroke:#f99241; stroke-linecap:round; stroke-linejoin:round; stroke-width:4; stroke-opacity:1; fill:none" points="420.083,1005.03 435.455,1001.27 450.827,1016.31 466.199,1020.07 481.571,944.876 496.943,926.077 512.315,948.635 527.687,914.798 543.059,926.077 558.431,929.837 573.803,933.597 589.175,884.721 604.547,862.164 619.919,843.365 635.291,862.164 650.663,858.404 666.035,873.442 681.407,802.009 696.779,805.769 712.151,794.49 727.523,764.413 742.895,832.086 758.267,756.894 773.639,756.894 789.011,681.701 804.383,779.452 819.755,786.971 835.127,749.374 850.499,674.182 865.871,723.057 881.243,723.057 896.615,738.096 911.987,659.143 927.359,674.182 942.731,685.461 958.103,719.297 973.475,647.864 988.847,640.345 1004.22,674.182 1019.59,647.864 1034.96,674.182 1050.33,629.066 1065.71,685.461 1081.08,659.143 1096.45,614.028 1111.82,677.941 1127.19,602.749 1142.57,640.345 1157.94,625.306 1173.31,662.903 1188.68,670.422 1204.05,587.71 1219.43,644.105 1234.8,659.143 1250.17,598.989 1265.54,610.268 1280.91,583.95 1296.29,598.989 1311.66,583.95 1327.03,625.306 1342.4,595.229 1357.77,516.277 1373.15,561.393 1388.52,595.229 1403.89,614.028 1419.26,587.71 1434.63,617.787 1450.01,644.105 1465.38,580.191 1480.75,617.787 1496.12,587.71 1511.49,640.345 1526.87,572.672 1542.24,591.47 1557.61,595.229 1572.98,583.95 1588.35,610.268 1603.73,576.431 1619.1,565.152 1634.47,614.028 1649.84,576.431 1665.21,557.633 1680.59,572.672 1695.96,598.989 1711.33,587.71 1726.7,602.749 1742.07,520.037 1757.45,576.431 1772.82,568.912 1788.19,561.393 1803.56,591.47 1818.93,565.152 1834.31,493.719 1849.68,606.508 1865.05,614.028 1880.42,591.47 1895.79,565.152 1911.17,561.393 1926.54,538.835 1941.91,553.873 "/>
<path clip-path="url(#clip682)" d="M420.083 993.751 L435.455 986.232 L450.827 993.751 L466.199 997.51 L481.571 933.597 L496.943 907.279 L512.315 933.597 L527.687 896 L543.059 907.279 L558.431 888.481 L573.803 903.52 L589.175 850.885 L604.547 839.606 L619.919 809.529 L635.291 824.567 L650.663 835.846 L666.035 843.365 L681.407 753.134 L696.779 775.692 L712.151 764.413 L727.523 711.778 L742.895 771.932 L758.267 708.018 L773.639 711.778 L789.011 659.143 L804.383 730.576 L819.755 726.817 L835.127 685.461 L850.499 636.585 L865.871 677.941 L881.243 655.384 L896.615 655.384 L911.987 598.989 L927.359 614.028 L942.731 602.749 L958.103 640.345 L973.475 550.114 L988.847 572.672 L1004.22 591.47 L1019.59 568.912 L1034.96 576.431 L1050.33 553.873 L1065.71 591.47 L1081.08 520.037 L1096.45 504.998 L1111.82 538.835 L1127.19 489.96 L1142.57 531.316 L1157.94 527.556 L1173.31 542.594 L1188.68 557.633 L1204.05 493.719 L1219.43 516.277 L1234.8 497.479 L1250.17 489.96 L1265.54 512.517 L1280.91 441.084 L1296.29 463.642 L1311.66 448.604 L1327.03 489.96 L1342.4 482.44 L1357.77 426.046 L1373.15 452.363 L1388.52 482.44 L1403.89 478.681 L1419.26 501.238 L1434.63 456.123 L1450.01 474.921 L1465.38 452.363 L1480.75 493.719 L1496.12 441.084 L1511.49 463.642 L1526.87 437.325 L1542.24 456.123 L1557.61 429.805 L1572.98 482.44 L1588.35 452.363 L1603.73 471.161 L1619.1 452.363 L1634.47 478.681 L1649.84 429.805 L1665.21 437.325 L1680.59 441.084 L1695.96 448.604 L1711.33 437.325 L1726.7 463.642 L1742.07 399.728 L1757.45 422.286 L1772.82 441.084 L1788.19 407.248 L1803.56 456.123 L1818.93 422.286 L1834.31 369.651 L1849.68 433.565 L1865.05 467.402 L1880.42 474.921 L1895.79 422.286 L1911.17 429.805 L1926.54 403.488 L1941.91 452.363 L1941.91 553.873 L1926.54 538.835 L1911.17 561.393 L1895.79 565.152 L1880.42 591.47 L1865.05 614.028 L1849.68 606.508 L1834.31 493.719 L1818.93 565.152 L1803.56 591.47 L1788.19 561.393 L1772.82 568.912 L1757.45 576.431 L1742.07 520.037 L1726.7 602.749 L1711.33 587.71 L1695.96 598.989 L1680.59 572.672 L1665.21 557.633 L1649.84 576.431 L1634.47 614.028 L1619.1 565.152 L1603.73 576.431 L1588.35 610.268 L1572.98 583.95 L1557.61 595.229 L1542.24 591.47 L1526.87 572.672 L1511.49 640.345 L1496.12 587.71 L1480.75 617.787 L1465.38 580.191 L1450.01 644.105 L1434.63 617.787 L1419.26 587.71 L1403.89 614.028 L1388.52 595.229 L1373.15 561.393 L1357.77 516.277 L1342.4 595.229 L1327.03 625.306 L1311.66 583.95 L1296.29 598.989 L1280.91 583.95 L1265.54 610.268 L1250.17 598.989 L1234.8 659.143 L1219.43 644.105 L1204.05 587.71 L1188.68 670.422 L1173.31 662.903 L1157.94 625.306 L1142.57 640.345 L1127.19 602.749 L1111.82 677.941 L1096.45 614.028 L1081.08 659.143 L1065.71 685.461 L1050.33 629.066 L1034.96 674.182 L1019.59 647.864 L1004.22 674.182 L988.847 640.345 L973.475 647.864 L958.103 719.297 L942.731 685.461 L927.359 674.182 L911.987 659.143 L896.615 738.096 L881.243 723.057 L865.871 723.057 L850.499 674.182 L835.127 749.374 L819.755 786.971 L804.383 779.452 L789.011 681.701 L773.639 756.894 L758.267 756.894 L742.895 832.086 L727.523 764.413 L712.151 794.49 L696.779 805.769 L681.407 802.009 L666.035 873.442 L650.663 858.404 L635.291 862.164 L619.919 843.365 L604.547 862.164 L589.175 884.721 L573.803 933.597 L558.431 929.837 L543.059 926.077 L527.687 914.798 L512.315 948.635 L496.943 926.077 L481.571 944.876 L466.199 1020.07 L450.827 1016.31 L435.455 1001.27 L420.083 1005.03  Z" fill="#18337b" fill-rule="evenodd" fill-opacity="1"/>
<polyline clip-path="url(#clip682)" style="stroke:#18337b; stroke-linecap:round; stroke-linejoin:round; stroke-width:4; stroke-opacity:1; fill:none" points="420.083,993.751 435.455,986.232 450.827,993.751 466.199,997.51 481.571,933.597 496.943,907.279 512.315,933.597 527.687,896 543.059,907.279 558.431,888.481 573.803,903.52 589.175,850.885 604.547,839.606 619.919,809.529 635.291,824.567 650.663,835.846 666.035,843.365 681.407,753.134 696.779,775.692 712.151,764.413 727.523,711.778 742.895,771.932 758.267,708.018 773.639,711.778 789.011,659.143 804.383,730.576 819.755,726.817 835.127,685.461 850.499,636.585 865.871,677.941 881.243,655.384 896.615,655.384 911.987,598.989 927.359,614.028 942.731,602.749 958.103,640.345 973.475,550.114 988.847,572.672 1004.22,591.47 1019.59,568.912 1034.96,576.431 1050.33,553.873 1065.71,591.47 1081.08,520.037 1096.45,504.998 1111.82,538.835 1127.19,489.96 1142.57,531.316 1157.94,527.556 1173.31,542.594 1188.68,557.633 1204.05,493.719 1219.43,516.277 1234.8,497.479 1250.17,489.96 1265.54,512.517 1280.91,441.084 1296.29,463.642 1311.66,448.604 1327.03,489.96 1342.4,482.44 1357.77,426.046 1373.15,452.363 1388.52,482.44 1403.89,478.681 1419.26,501.238 1434.63,456.123 1450.01,474.921 1465.38,452.363 1480.75,493.719 1496.12,441.084 1511.49,463.642 1526.87,437.325 1542.24,456.123 1557.61,429.805 1572.98,482.44 1588.35,452.363 1603.73,471.161 1619.1,452.363 1634.47,478.681 1649.84,429.805 1665.21,437.325 1680.59,441.084 1695.96,448.604 1711.33,437.325 1726.7,463.642 1742.07,399.728 1757.45,422.286 1772.82,441.084 1788.19,407.248 1803.56,456.123 1818.93,422.286 1834.31,369.651 1849.68,433.565 1865.05,467.402 1880.42,474.921 1895.79,422.286 1911.17,429.805 1926.54,403.488 1941.91,452.363 "/>
<path clip-path="url(#clip682)" d="M420.083 264.381 L435.455 305.737 L450.827 305.737 L466.199 264.381 L481.571 286.939 L496.943 275.66 L512.315 286.939 L527.687 275.66 L543.059 301.978 L558.431 283.18 L573.803 324.536 L589.175 268.141 L604.547 362.132 L619.919 335.814 L635.291 317.016 L650.663 317.016 L666.035 309.497 L681.407 305.737 L696.779 358.372 L712.151 298.218 L727.523 328.295 L742.895 320.776 L758.267 298.218 L773.639 347.093 L789.011 335.814 L804.383 369.651 L819.755 350.853 L835.127 320.776 L850.499 350.853 L865.871 343.334 L881.243 350.853 L896.615 317.016 L911.987 332.055 L927.359 347.093 L942.731 328.295 L958.103 377.17 L973.475 339.574 L988.847 354.613 L1004.22 365.892 L1019.59 335.814 L1034.96 283.18 L1050.33 335.814 L1065.71 309.497 L1081.08 305.737 L1096.45 301.978 L1111.82 320.776 L1127.19 328.295 L1142.57 365.892 L1157.94 309.497 L1173.31 317.016 L1188.68 309.497 L1204.05 313.257 L1219.43 317.016 L1234.8 294.458 L1250.17 271.901 L1265.54 328.295 L1280.91 279.42 L1296.29 298.218 L1311.66 286.939 L1327.03 313.257 L1342.4 283.18 L1357.77 294.458 L1373.15 294.458 L1388.52 332.055 L1403.89 324.536 L1419.26 305.737 L1434.63 294.458 L1450.01 301.978 L1465.38 305.737 L1480.75 305.737 L1496.12 264.381 L1511.49 294.458 L1526.87 294.458 L1542.24 286.939 L1557.61 309.497 L1572.98 298.218 L1588.35 256.862 L1603.73 320.776 L1619.1 283.18 L1634.47 294.458 L1649.84 286.939 L1665.21 271.901 L1680.59 313.257 L1695.96 275.66 L1711.33 275.66 L1726.7 279.42 L1742.07 298.218 L1757.45 264.381 L1772.82 275.66 L1788.19 286.939 L1803.56 294.458 L1818.93 286.939 L1834.31 260.622 L1849.68 271.901 L1865.05 313.257 L1880.42 324.536 L1895.79 264.381 L1911.17 290.699 L1926.54 286.939 L1941.91 294.458 L1941.91 452.363 L1926.54 403.488 L1911.17 429.805 L1895.79 422.286 L1880.42 474.921 L1865.05 467.402 L1849.68 433.565 L1834.31 369.651 L1818.93 422.286 L1803.56 456.123 L1788.19 407.248 L1772.82 441.084 L1757.45 422.286 L1742.07 399.728 L1726.7 463.642 L1711.33 437.325 L1695.96 448.604 L1680.59 441.084 L1665.21 437.325 L1649.84 429.805 L1634.47 478.681 L1619.1 452.363 L1603.73 471.161 L1588.35 452.363 L1572.98 482.44 L1557.61 429.805 L1542.24 456.123 L1526.87 437.325 L1511.49 463.642 L1496.12 441.084 L1480.75 493.719 L1465.38 452.363 L1450.01 474.921 L1434.63 456.123 L1419.26 501.238 L1403.89 478.681 L1388.52 482.44 L1373.15 452.363 L1357.77 426.046 L1342.4 482.44 L1327.03 489.96 L1311.66 448.604 L1296.29 463.642 L1280.91 441.084 L1265.54 512.517 L1250.17 489.96 L1234.8 497.479 L1219.43 516.277 L1204.05 493.719 L1188.68 557.633 L1173.31 542.594 L1157.94 527.556 L1142.57 531.316 L1127.19 489.96 L1111.82 538.835 L1096.45 504.998 L1081.08 520.037 L1065.71 591.47 L1050.33 553.873 L1034.96 576.431 L1019.59 568.912 L1004.22 591.47 L988.847 572.672 L973.475 550.114 L958.103 640.345 L942.731 602.749 L927.359 614.028 L911.987 598.989 L896.615 655.384 L881.243 655.384 L865.871 677.941 L850.499 636.585 L835.127 685.461 L819.755 726.817 L804.383 730.576 L789.011 659.143 L773.639 711.778 L758.267 708.018 L742.895 771.932 L727.523 711.778 L712.151 764.413 L696.779 775.692 L681.407 753.134 L666.035 843.365 L650.663 835.846 L635.291 824.567 L619.919 809.529 L604.547 839.606 L589.175 850.885 L573.803 903.52 L558.431 888.481 L543.059 907.279 L527.687 896 L512.315 933.597 L496.943 907.279 L481.571 933.597 L466.199 997.51 L450.827 993.751 L435.455 986.232 L420.083 993.751  Z" fill="#de6f64" fill-rule="evenodd" fill-opacity="1"/>
<polyline clip-path="url(#clip682)" style="stroke:#de6f64; stroke-linecap:round; stroke-linejoin:round; stroke-width:4; stroke-opacity:1; fill:none" points="420.083,264.381 435.455,305.737 450.827,305.737 466.199,264.381 481.571,286.939 496.943,275.66 512.315,286.939 527.687,275.66 543.059,301.978 558.431,283.18 573.803,324.536 589.175,268.141 604.547,362.132 619.919,335.814 635.291,317.016 650.663,317.016 666.035,309.497 681.407,305.737 696.779,358.372 712.151,298.218 727.523,328.295 742.895,320.776 758.267,298.218 773.639,347.093 789.011,335.814 804.383,369.651 819.755,350.853 835.127,320.776 850.499,350.853 865.871,343.334 881.243,350.853 896.615,317.016 911.987,332.055 927.359,347.093 942.731,328.295 958.103,377.17 973.475,339.574 988.847,354.613 1004.22,365.892 1019.59,335.814 1034.96,283.18 1050.33,335.814 1065.71,309.497 1081.08,305.737 1096.45,301.978 1111.82,320.776 1127.19,328.295 1142.57,365.892 1157.94,309.497 1173.31,317.016 1188.68,309.497 1204.05,313.257 1219.43,317.016 1234.8,294.458 1250.17,271.901 1265.54,328.295 1280.91,279.42 1296.29,298.218 1311.66,286.939 1327.03,313.257 1342.4,283.18 1357.77,294.458 1373.15,294.458 1388.52,332.055 1403.89,324.536 1419.26,305.737 1434.63,294.458 1450.01,301.978 1465.38,305.737 1480.75,305.737 1496.12,264.381 1511.49,294.458 1526.87,294.458 1542.24,286.939 1557.61,309.497 1572.98,298.218 1588.35,256.862 1603.73,320.776 1619.1,283.18 1634.47,294.458 1649.84,286.939 1665.21,271.901 1680.59,313.257 1695.96,275.66 1711.33,275.66 1726.7,279.42 1742.07,298.218 1757.45,264.381 1772.82,275.66 1788.19,286.939 1803.56,294.458 1818.93,286.939 1834.31,260.622 1849.68,271.901 1865.05,313.257 1880.42,324.536 1895.79,264.381 1911.17,290.699 1926.54,286.939 1941.91,294.458 "/>
<path clip-path="url(#clip682)" d="M420.083 144.073 L435.455 144.073 L450.827 144.073 L466.199 144.073 L481.571 144.073 L496.943 144.073 L512.315 144.073 L527.687 144.073 L543.059 144.073 L558.431 144.073 L573.803 144.073 L589.175 144.073 L604.547 144.073 L619.919 144.073 L635.291 144.073 L650.663 144.073 L666.035 144.073 L681.407 144.073 L696.779 144.073 L712.151 144.073 L727.523 144.073 L742.895 144.073 L758.267 144.073 L773.639 144.073 L789.011 144.073 L804.383 144.073 L819.755 144.073 L835.127 144.073 L850.499 144.073 L865.871 144.073 L881.243 144.073 L896.615 144.073 L911.987 144.073 L927.359 144.073 L942.731 144.073 L958.103 144.073 L973.475 144.073 L988.847 144.073 L1004.22 144.073 L1019.59 144.073 L1034.96 144.073 L1050.33 144.073 L1065.71 144.073 L1081.08 144.073 L1096.45 144.073 L1111.82 144.073 L1127.19 144.073 L1142.57 144.073 L1157.94 144.073 L1173.31 144.073 L1188.68 144.073 L1204.05 144.073 L1219.43 144.073 L1234.8 144.073 L1250.17 144.073 L1265.54 144.073 L1280.91 144.073 L1296.29 144.073 L1311.66 144.073 L1327.03 144.073 L1342.4 144.073 L1357.77 144.073 L1373.15 144.073 L1388.52 144.073 L1403.89 144.073 L1419.26 144.073 L1434.63 144.073 L1450.01 144.073 L1465.38 144.073 L1480.75 144.073 L1496.12 144.073 L1511.49 144.073 L1526.87 144.073 L1542.24 144.073 L1557.61 144.073 L1572.98 144.073 L1588.35 144.073 L1603.73 144.073 L1619.1 144.073 L1634.47 144.073 L1649.84 144.073 L1665.21 144.073 L1680.59 144.073 L1695.96 144.073 L1711.33 144.073 L1726.7 144.073 L1742.07 144.073 L1757.45 144.073 L1772.82 144.073 L1788.19 144.073 L1803.56 144.073 L1818.93 144.073 L1834.31 144.073 L1849.68 144.073 L1865.05 144.073 L1880.42 144.073 L1895.79 144.073 L1911.17 144.073 L1926.54 144.073 L1941.91 144.073 L1941.91 294.458 L1926.54 286.939 L1911.17 290.699 L1895.79 264.381 L1880.42 324.536 L1865.05 313.257 L1849.68 271.901 L1834.31 260.622 L1818.93 286.939 L1803.56 294.458 L1788.19 286.939 L1772.82 275.66 L1757.45 264.381 L1742.07 298.218 L1726.7 279.42 L1711.33 275.66 L1695.96 275.66 L1680.59 313.257 L1665.21 271.901 L1649.84 286.939 L1634.47 294.458 L1619.1 283.18 L1603.73 320.776 L1588.35 256.862 L1572.98 298.218 L1557.61 309.497 L1542.24 286.939 L1526.87 294.458 L1511.49 294.458 L1496.12 264.381 L1480.75 305.737 L1465.38 305.737 L1450.01 301.978 L1434.63 294.458 L1419.26 305.737 L1403.89 324.536 L1388.52 332.055 L1373.15 294.458 L1357.77 294.458 L1342.4 283.18 L1327.03 313.257 L1311.66 286.939 L1296.29 298.218 L1280.91 279.42 L1265.54 328.295 L1250.17 271.901 L1234.8 294.458 L1219.43 317.016 L1204.05 313.257 L1188.68 309.497 L1173.31 317.016 L1157.94 309.497 L1142.57 365.892 L1127.19 328.295 L1111.82 320.776 L1096.45 301.978 L1081.08 305.737 L1065.71 309.497 L1050.33 335.814 L1034.96 283.18 L1019.59 335.814 L1004.22 365.892 L988.847 354.613 L973.475 339.574 L958.103 377.17 L942.731 328.295 L927.359 347.093 L911.987 332.055 L896.615 317.016 L881.243 350.853 L865.871 343.334 L850.499 350.853 L835.127 320.776 L819.755 350.853 L804.383 369.651 L789.011 335.814 L773.639 347.093 L758.267 298.218 L742.895 320.776 L727.523 328.295 L712.151 298.218 L696.779 358.372 L681.407 305.737 L666.035 309.497 L650.663 317.016 L635.291 317.016 L619.919 335.814 L604.547 362.132 L589.175 268.141 L573.803 324.536 L558.431 283.18 L543.059 301.978 L527.687 275.66 L512.315 286.939 L496.943 275.66 L481.571 286.939 L466.199 264.381 L450.827 305.737 L435.455 305.737 L420.083 264.381  Z" fill="#824f8e" fill-rule="evenodd" fill-opacity="1"/>
<polyline clip-path="url(#clip682)" style="stroke:#824f8e; stroke-linecap:round; stroke-linejoin:round; stroke-width:4; stroke-opacity:1; fill:none" points="420.083,144.073 435.455,144.073 450.827,144.073 466.199,144.073 481.571,144.073 496.943,144.073 512.315,144.073 527.687,144.073 543.059,144.073 558.431,144.073 573.803,144.073 589.175,144.073 604.547,144.073 619.919,144.073 635.291,144.073 650.663,144.073 666.035,144.073 681.407,144.073 696.779,144.073 712.151,144.073 727.523,144.073 742.895,144.073 758.267,144.073 773.639,144.073 789.011,144.073 804.383,144.073 819.755,144.073 835.127,144.073 850.499,144.073 865.871,144.073 881.243,144.073 896.615,144.073 911.987,144.073 927.359,144.073 942.731,144.073 958.103,144.073 973.475,144.073 988.847,144.073 1004.22,144.073 1019.59,144.073 1034.96,144.073 1050.33,144.073 1065.71,144.073 1081.08,144.073 1096.45,144.073 1111.82,144.073 1127.19,144.073 1142.57,144.073 1157.94,144.073 1173.31,144.073 1188.68,144.073 1204.05,144.073 1219.43,144.073 1234.8,144.073 1250.17,144.073 1265.54,144.073 1280.91,144.073 1296.29,144.073 1311.66,144.073 1327.03,144.073 1342.4,144.073 1357.77,144.073 1373.15,144.073 1388.52,144.073 1403.89,144.073 1419.26,144.073 1434.63,144.073 1450.01,144.073 1465.38,144.073 1480.75,144.073 1496.12,144.073 1511.49,144.073 1526.87,144.073 1542.24,144.073 1557.61,144.073 1572.98,144.073 1588.35,144.073 1603.73,144.073 1619.1,144.073 1634.47,144.073 1649.84,144.073 1665.21,144.073 1680.59,144.073 1695.96,144.073 1711.33,144.073 1726.7,144.073 1742.07,144.073 1757.45,144.073 1772.82,144.073 1788.19,144.073 1803.56,144.073 1818.93,144.073 1834.31,144.073 1849.68,144.073 1865.05,144.073 1880.42,144.073 1895.79,144.073 1911.17,144.073 1926.54,144.073 1941.91,144.073 "/>
<path clip-path="url(#clip680)" d="M2051.41 1071.24 L2289.76 1071.24 L2289.76 150.088 L2051.41 150.088  Z" fill="#ffffff" fill-rule="evenodd" fill-opacity="1"/>
<polyline clip-path="url(#clip680)" style="stroke:#000000; stroke-linecap:round; stroke-linejoin:round; stroke-width:4; stroke-opacity:1; fill:none" points="2051.41,1071.24 2289.76,1071.24 2289.76,150.088 2051.41,150.088 2051.41,1071.24 "/>
<path clip-path="url(#clip680)" d="M2072.69 293.379 L2200.38 293.379 L2200.38 211.499 L2072.69 211.499 L2072.69 293.379  Z" fill="#032333" fill-rule="evenodd" fill-opacity="1"/>
<polyline clip-path="url(#clip680)" style="stroke:#032333; stroke-linecap:round; stroke-linejoin:round; stroke-width:7.5; stroke-opacity:1; fill:none" points="2072.69,211.499 2200.38,211.499 "/>
<g clip-path="url(#clip680)">
<text style="fill:#000000; fill-opacity:1; font-family:Book Antiqua,Palatino,Palatino Linotype,Palatino LT STD,Georgia,serif; font-size:94px; text-anchor:start;" transform="rotate(0, 2221.66, 284.939)" x="2221.66" y="284.939">0</text>
</g>
<path clip-path="url(#clip680)" d="M2072.69 395.729 L2200.38 395.729 L2200.38 313.849 L2072.69 313.849 L2072.69 395.729  Z" fill="#e7fa5a" fill-rule="evenodd" fill-opacity="1"/>
<polyline clip-path="url(#clip680)" style="stroke:#e7fa5a; stroke-linecap:round; stroke-linejoin:round; stroke-width:7.5; stroke-opacity:1; fill:none" points="2072.69,313.849 2200.38,313.849 "/>
<g clip-path="url(#clip680)">
<text style="fill:#000000; fill-opacity:1; font-family:Book Antiqua,Palatino,Palatino Linotype,Palatino LT STD,Georgia,serif; font-size:94px; text-anchor:start;" transform="rotate(0, 2221.66, 387.289)" x="2221.66" y="387.289">1</text>
</g>
<path clip-path="url(#clip680)" d="M2072.69 498.079 L2200.38 498.079 L2200.38 416.199 L2072.69 416.199 L2072.69 498.079  Z" fill="#af5f81" fill-rule="evenodd" fill-opacity="1"/>
<polyline clip-path="url(#clip680)" style="stroke:#af5f81; stroke-linecap:round; stroke-linejoin:round; stroke-width:7.5; stroke-opacity:1; fill:none" points="2072.69,416.199 2200.38,416.199 "/>
<g clip-path="url(#clip680)">
<text style="fill:#000000; fill-opacity:1; font-family:Book Antiqua,Palatino,Palatino Linotype,Palatino LT STD,Georgia,serif; font-size:94px; text-anchor:start;" transform="rotate(0, 2221.66, 489.639)" x="2221.66" y="489.639">2</text>
</g>
<path clip-path="url(#clip680)" d="M2072.69 600.43 L2200.38 600.43 L2200.38 518.549 L2072.69 518.549 L2072.69 600.43  Z" fill="#553b9c" fill-rule="evenodd" fill-opacity="1"/>
<polyline clip-path="url(#clip680)" style="stroke:#553b9c; stroke-linecap:round; stroke-linejoin:round; stroke-width:7.5; stroke-opacity:1; fill:none" points="2072.69,518.549 2200.38,518.549 "/>
<g clip-path="url(#clip680)">
<text style="fill:#000000; fill-opacity:1; font-family:Book Antiqua,Palatino,Palatino Linotype,Palatino LT STD,Georgia,serif; font-size:94px; text-anchor:start;" transform="rotate(0, 2221.66, 591.99)" x="2221.66" y="591.99">3</text>
</g>
<path clip-path="url(#clip680)" d="M2072.69 702.78 L2200.38 702.78 L2200.38 620.9 L2072.69 620.9 L2072.69 702.78  Z" fill="#f99241" fill-rule="evenodd" fill-opacity="1"/>
<polyline clip-path="url(#clip680)" style="stroke:#f99241; stroke-linecap:round; stroke-linejoin:round; stroke-width:7.5; stroke-opacity:1; fill:none" points="2072.69,620.9 2200.38,620.9 "/>
<g clip-path="url(#clip680)">
<text style="fill:#000000; fill-opacity:1; font-family:Book Antiqua,Palatino,Palatino Linotype,Palatino LT STD,Georgia,serif; font-size:94px; text-anchor:start;" transform="rotate(0, 2221.66, 694.34)" x="2221.66" y="694.34">4</text>
</g>
<path clip-path="url(#clip680)" d="M2072.69 805.13 L2200.38 805.13 L2200.38 723.25 L2072.69 723.25 L2072.69 805.13  Z" fill="#18337b" fill-rule="evenodd" fill-opacity="1"/>
<polyline clip-path="url(#clip680)" style="stroke:#18337b; stroke-linecap:round; stroke-linejoin:round; stroke-width:7.5; stroke-opacity:1; fill:none" points="2072.69,723.25 2200.38,723.25 "/>
<g clip-path="url(#clip680)">
<text style="fill:#000000; fill-opacity:1; font-family:Book Antiqua,Palatino,Palatino Linotype,Palatino LT STD,Georgia,serif; font-size:94px; text-anchor:start;" transform="rotate(0, 2221.66, 796.69)" x="2221.66" y="796.69">5</text>
</g>
<path clip-path="url(#clip680)" d="M2072.69 907.481 L2200.38 907.481 L2200.38 825.6 L2072.69 825.6 L2072.69 907.481  Z" fill="#de6f64" fill-rule="evenodd" fill-opacity="1"/>
<polyline clip-path="url(#clip680)" style="stroke:#de6f64; stroke-linecap:round; stroke-linejoin:round; stroke-width:7.5; stroke-opacity:1; fill:none" points="2072.69,825.6 2200.38,825.6 "/>
<g clip-path="url(#clip680)">
<text style="fill:#000000; fill-opacity:1; font-family:Book Antiqua,Palatino,Palatino Linotype,Palatino LT STD,Georgia,serif; font-size:94px; text-anchor:start;" transform="rotate(0, 2221.66, 899.04)" x="2221.66" y="899.04">6</text>
</g>
<path clip-path="url(#clip680)" d="M2072.69 1009.83 L2200.38 1009.83 L2200.38 927.951 L2072.69 927.951 L2072.69 1009.83  Z" fill="#824f8e" fill-rule="evenodd" fill-opacity="1"/>
<polyline clip-path="url(#clip680)" style="stroke:#824f8e; stroke-linecap:round; stroke-linejoin:round; stroke-width:7.5; stroke-opacity:1; fill:none" points="2072.69,927.951 2200.38,927.951 "/>
<g clip-path="url(#clip680)">
<text style="fill:#000000; fill-opacity:1; font-family:Book Antiqua,Palatino,Palatino Linotype,Palatino LT STD,Georgia,serif; font-size:94px; text-anchor:start;" transform="rotate(0, 2221.66, 1001.39)" x="2221.66" y="1001.39">7</text>
</g>
</svg>
