<?xml version="1.0" encoding="utf-8"?>
<svg xmlns="http://www.w3.org/2000/svg" xmlns:xlink="http://www.w3.org/1999/xlink" width="600" height="400" viewBox="0 0 2400 1600">
<defs>
  <clipPath id="clip460">
    <rect x="0" y="0" width="2400" height="1600"/>
  </clipPath>
</defs>
<path clip-path="url(#clip460)" d="M0 1600 L2400 1600 L2400 0 L0 0  Z" fill="#ffffff" fill-rule="evenodd" fill-opacity="1"/>
<defs>
  <clipPath id="clip461">
    <rect x="480" y="0" width="1681" height="1600"/>
  </clipPath>
</defs>
<path clip-path="url(#clip460)" d="M170.857 1486.45 L2352.76 1486.45 L2352.76 47.2441 L170.857 47.2441  Z" fill="#ffffff" fill-rule="evenodd" fill-opacity="1"/>
<defs>
  <clipPath id="clip462">
    <rect x="170" y="47" width="2183" height="1440"/>
  </clipPath>
</defs>
<polyline clip-path="url(#clip462)" style="stroke:#000000; stroke-linecap:round; stroke-linejoin:round; stroke-width:2; stroke-opacity:0.1; fill:none" points="232.609,1486.45 232.609,47.2441 "/>
<polyline clip-path="url(#clip462)" style="stroke:#000000; stroke-linecap:round; stroke-linejoin:round; stroke-width:2; stroke-opacity:0.1; fill:none" points="747.208,1486.45 747.208,47.2441 "/>
<polyline clip-path="url(#clip462)" style="stroke:#000000; stroke-linecap:round; stroke-linejoin:round; stroke-width:2; stroke-opacity:0.1; fill:none" points="1261.81,1486.45 1261.81,47.2441 "/>
<polyline clip-path="url(#clip462)" style="stroke:#000000; stroke-linecap:round; stroke-linejoin:round; stroke-width:2; stroke-opacity:0.1; fill:none" points="1776.41,1486.45 1776.41,47.2441 "/>
<polyline clip-path="url(#clip462)" style="stroke:#000000; stroke-linecap:round; stroke-linejoin:round; stroke-width:2; stroke-opacity:0.1; fill:none" points="2291,1486.45 2291,47.2441 "/>
<polyline clip-path="url(#clip460)" style="stroke:#000000; stroke-linecap:round; stroke-linejoin:round; stroke-width:4; stroke-opacity:1; fill:none" points="170.857,1486.45 2352.76,1486.45 "/>
<polyline clip-path="url(#clip460)" style="stroke:#000000; stroke-linecap:round; stroke-linejoin:round; stroke-width:4; stroke-opacity:1; fill:none" points="232.609,1486.45 232.609,1467.55 "/>
<polyline clip-path="url(#clip460)" style="stroke:#000000; stroke-linecap:round; stroke-linejoin:round; stroke-width:4; stroke-opacity:1; fill:none" points="747.208,1486.45 747.208,1467.55 "/>
<polyline clip-path="url(#clip460)" style="stroke:#000000; stroke-linecap:round; stroke-linejoin:round; stroke-width:4; stroke-opacity:1; fill:none" points="1261.81,1486.45 1261.81,1467.55 "/>
<polyline clip-path="url(#clip460)" style="stroke:#000000; stroke-linecap:round; stroke-linejoin:round; stroke-width:4; stroke-opacity:1; fill:none" points="1776.41,1486.45 1776.41,1467.55 "/>
<polyline clip-path="url(#clip460)" style="stroke:#000000; stroke-linecap:round; stroke-linejoin:round; stroke-width:4; stroke-opacity:1; fill:none" points="2291,1486.45 2291,1467.55 "/>
<path clip-path="url(#clip460)" d="M232.609 1517.37 Q228.998 1517.37 227.169 1520.93 Q225.364 1524.47 225.364 1531.6 Q225.364 1538.71 227.169 1542.27 Q228.998 1545.82 232.609 1545.82 Q236.244 1545.82 238.049 1542.27 Q239.878 1538.71 239.878 1531.6 Q239.878 1524.47 238.049 1520.93 Q236.244 1517.37 232.609 1517.37 M232.609 1513.66 Q238.419 1513.66 241.475 1518.27 Q244.554 1522.85 244.554 1531.6 Q244.554 1540.33 241.475 1544.94 Q238.419 1549.52 232.609 1549.52 Q226.799 1549.52 223.72 1544.94 Q220.665 1540.33 220.665 1531.6 Q220.665 1522.85 223.72 1518.27 Q226.799 1513.66 232.609 1513.66 Z" fill="#000000" fill-rule="nonzero" fill-opacity="1" /><path clip-path="url(#clip460)" d="M706.826 1514.29 L725.183 1514.29 L725.183 1518.22 L711.109 1518.22 L711.109 1526.7 Q712.127 1526.35 713.146 1526.19 Q714.164 1526 715.183 1526 Q720.97 1526 724.349 1529.17 Q727.729 1532.34 727.729 1537.76 Q727.729 1543.34 724.257 1546.44 Q720.784 1549.52 714.465 1549.52 Q712.289 1549.52 710.021 1549.15 Q707.775 1548.78 705.368 1548.04 L705.368 1543.34 Q707.451 1544.47 709.673 1545.03 Q711.896 1545.58 714.372 1545.58 Q718.377 1545.58 720.715 1543.48 Q723.053 1541.37 723.053 1537.76 Q723.053 1534.15 720.715 1532.04 Q718.377 1529.94 714.372 1529.94 Q712.497 1529.94 710.623 1530.35 Q708.771 1530.77 706.826 1531.65 L706.826 1514.29 Z" fill="#000000" fill-rule="nonzero" fill-opacity="1" /><path clip-path="url(#clip460)" d="M746.942 1517.37 Q743.331 1517.37 741.502 1520.93 Q739.696 1524.47 739.696 1531.6 Q739.696 1538.71 741.502 1542.27 Q743.331 1545.82 746.942 1545.82 Q750.576 1545.82 752.382 1542.27 Q754.21 1538.71 754.21 1531.6 Q754.21 1524.47 752.382 1520.93 Q750.576 1517.37 746.942 1517.37 M746.942 1513.66 Q752.752 1513.66 755.807 1518.27 Q758.886 1522.85 758.886 1531.6 Q758.886 1540.33 755.807 1544.94 Q752.752 1549.52 746.942 1549.52 Q741.132 1549.52 738.053 1544.94 Q734.997 1540.33 734.997 1531.6 Q734.997 1522.85 738.053 1518.27 Q741.132 1513.66 746.942 1513.66 Z" fill="#000000" fill-rule="nonzero" fill-opacity="1" /><path clip-path="url(#clip460)" d="M777.104 1517.37 Q773.493 1517.37 771.664 1520.93 Q769.858 1524.47 769.858 1531.6 Q769.858 1538.71 771.664 1542.27 Q773.493 1545.82 777.104 1545.82 Q780.738 1545.82 782.543 1542.27 Q784.372 1538.71 784.372 1531.6 Q784.372 1524.47 782.543 1520.93 Q780.738 1517.37 777.104 1517.37 M777.104 1513.66 Q782.914 1513.66 785.969 1518.27 Q789.048 1522.85 789.048 1531.6 Q789.048 1540.33 785.969 1544.94 Q782.914 1549.52 777.104 1549.52 Q771.293 1549.52 768.215 1544.94 Q765.159 1540.33 765.159 1531.6 Q765.159 1522.85 768.215 1518.27 Q771.293 1513.66 777.104 1513.66 Z" fill="#000000" fill-rule="nonzero" fill-opacity="1" /><path clip-path="url(#clip460)" d="M1206.33 1544.91 L1213.97 1544.91 L1213.97 1518.55 L1205.66 1520.21 L1205.66 1515.95 L1213.92 1514.29 L1218.6 1514.29 L1218.6 1544.91 L1226.24 1544.91 L1226.24 1548.85 L1206.33 1548.85 L1206.33 1544.91 Z" fill="#000000" fill-rule="nonzero" fill-opacity="1" /><path clip-path="url(#clip460)" d="M1245.68 1517.37 Q1242.07 1517.37 1240.24 1520.93 Q1238.44 1524.47 1238.44 1531.6 Q1238.44 1538.71 1240.24 1542.27 Q1242.07 1545.82 1245.68 1545.82 Q1249.32 1545.82 1251.12 1542.27 Q1252.95 1538.71 1252.95 1531.6 Q1252.95 1524.47 1251.12 1520.93 Q1249.32 1517.37 1245.68 1517.37 M1245.68 1513.66 Q1251.49 1513.66 1254.55 1518.27 Q1257.63 1522.85 1257.63 1531.6 Q1257.63 1540.33 1254.55 1544.94 Q1251.49 1549.52 1245.68 1549.52 Q1239.87 1549.52 1236.8 1544.94 Q1233.74 1540.33 1233.74 1531.6 Q1233.74 1522.85 1236.8 1518.27 Q1239.87 1513.66 1245.68 1513.66 Z" fill="#000000" fill-rule="nonzero" fill-opacity="1" /><path clip-path="url(#clip460)" d="M1275.85 1517.37 Q1272.23 1517.37 1270.41 1520.93 Q1268.6 1524.47 1268.6 1531.6 Q1268.6 1538.71 1270.41 1542.27 Q1272.23 1545.82 1275.85 1545.82 Q1279.48 1545.82 1281.29 1542.27 Q1283.11 1538.71 1283.11 1531.6 Q1283.11 1524.47 1281.29 1520.93 Q1279.48 1517.37 1275.85 1517.37 M1275.85 1513.66 Q1281.66 1513.66 1284.71 1518.27 Q1287.79 1522.85 1287.79 1531.6 Q1287.79 1540.33 1284.71 1544.94 Q1281.66 1549.52 1275.85 1549.52 Q1270.04 1549.52 1266.96 1544.94 Q1263.9 1540.33 1263.9 1531.6 Q1263.9 1522.85 1266.96 1518.27 Q1270.04 1513.66 1275.85 1513.66 Z" fill="#000000" fill-rule="nonzero" fill-opacity="1" /><path clip-path="url(#clip460)" d="M1306.01 1517.37 Q1302.4 1517.37 1300.57 1520.93 Q1298.76 1524.47 1298.76 1531.6 Q1298.76 1538.71 1300.57 1542.27 Q1302.4 1545.82 1306.01 1545.82 Q1309.64 1545.82 1311.45 1542.27 Q1313.28 1538.71 1313.28 1531.6 Q1313.28 1524.47 1311.45 1520.93 Q1309.64 1517.37 1306.01 1517.37 M1306.01 1513.66 Q1311.82 1513.66 1314.87 1518.27 Q1317.95 1522.85 1317.95 1531.6 Q1317.95 1540.33 1314.87 1544.94 Q1311.82 1549.52 1306.01 1549.52 Q1300.2 1549.52 1297.12 1544.94 Q1294.06 1540.33 1294.06 1531.6 Q1294.06 1522.85 1297.12 1518.27 Q1300.2 1513.66 1306.01 1513.66 Z" fill="#000000" fill-rule="nonzero" fill-opacity="1" /><path clip-path="url(#clip460)" d="M1720.93 1544.91 L1728.57 1544.91 L1728.57 1518.55 L1720.26 1520.21 L1720.26 1515.95 L1728.52 1514.29 L1733.2 1514.29 L1733.2 1544.91 L1740.84 1544.91 L1740.84 1548.85 L1720.93 1548.85 L1720.93 1544.91 Z" fill="#000000" fill-rule="nonzero" fill-opacity="1" /><path clip-path="url(#clip460)" d="M1750.33 1514.29 L1768.69 1514.29 L1768.69 1518.22 L1754.61 1518.22 L1754.61 1526.7 Q1755.63 1526.35 1756.65 1526.19 Q1757.67 1526 1758.69 1526 Q1764.47 1526 1767.85 1529.17 Q1771.23 1532.34 1771.23 1537.76 Q1771.23 1543.34 1767.76 1546.44 Q1764.29 1549.52 1757.97 1549.52 Q1755.79 1549.52 1753.52 1549.15 Q1751.28 1548.78 1748.87 1548.04 L1748.87 1543.34 Q1750.95 1544.47 1753.18 1545.03 Q1755.4 1545.58 1757.88 1545.58 Q1761.88 1545.58 1764.22 1543.48 Q1766.56 1541.37 1766.56 1537.76 Q1766.56 1534.15 1764.22 1532.04 Q1761.88 1529.94 1757.88 1529.94 Q1756 1529.94 1754.13 1530.35 Q1752.27 1530.77 1750.33 1531.65 L1750.33 1514.29 Z" fill="#000000" fill-rule="nonzero" fill-opacity="1" /><path clip-path="url(#clip460)" d="M1790.44 1517.37 Q1786.83 1517.37 1785 1520.93 Q1783.2 1524.47 1783.2 1531.6 Q1783.2 1538.71 1785 1542.27 Q1786.83 1545.82 1790.44 1545.82 Q1794.08 1545.82 1795.88 1542.27 Q1797.71 1538.71 1797.71 1531.6 Q1797.71 1524.47 1795.88 1520.93 Q1794.08 1517.37 1790.44 1517.37 M1790.44 1513.66 Q1796.25 1513.66 1799.31 1518.27 Q1802.39 1522.85 1802.39 1531.6 Q1802.39 1540.33 1799.31 1544.94 Q1796.25 1549.52 1790.44 1549.52 Q1784.63 1549.52 1781.56 1544.94 Q1778.5 1540.33 1778.5 1531.6 Q1778.5 1522.85 1781.56 1518.27 Q1784.63 1513.66 1790.44 1513.66 Z" fill="#000000" fill-rule="nonzero" fill-opacity="1" /><path clip-path="url(#clip460)" d="M1820.61 1517.37 Q1817 1517.37 1815.17 1520.93 Q1813.36 1524.47 1813.36 1531.6 Q1813.36 1538.71 1815.17 1542.27 Q1817 1545.82 1820.61 1545.82 Q1824.24 1545.82 1826.05 1542.27 Q1827.87 1538.71 1827.87 1531.6 Q1827.87 1524.47 1826.05 1520.93 Q1824.24 1517.37 1820.61 1517.37 M1820.61 1513.66 Q1826.42 1513.66 1829.47 1518.27 Q1832.55 1522.85 1832.55 1531.6 Q1832.55 1540.33 1829.47 1544.94 Q1826.42 1549.52 1820.61 1549.52 Q1814.8 1549.52 1811.72 1544.94 Q1808.66 1540.33 1808.66 1531.6 Q1808.66 1522.85 1811.72 1518.27 Q1814.8 1513.66 1820.61 1513.66 Z" fill="#000000" fill-rule="nonzero" fill-opacity="1" /><path clip-path="url(#clip460)" d="M2239.62 1544.91 L2255.93 1544.91 L2255.93 1548.85 L2233.99 1548.85 L2233.99 1544.91 Q2236.65 1542.16 2241.24 1537.53 Q2245.84 1532.88 2247.02 1531.53 Q2249.27 1529.01 2250.15 1527.27 Q2251.05 1525.51 2251.05 1523.82 Q2251.05 1521.07 2249.11 1519.33 Q2247.18 1517.6 2244.08 1517.6 Q2241.88 1517.6 2239.43 1518.36 Q2237 1519.13 2234.22 1520.68 L2234.22 1515.95 Q2237.05 1514.82 2239.5 1514.24 Q2241.95 1513.66 2243.99 1513.66 Q2249.36 1513.66 2252.56 1516.35 Q2255.75 1519.03 2255.75 1523.52 Q2255.75 1525.65 2254.94 1527.57 Q2254.15 1529.47 2252.05 1532.07 Q2251.47 1532.74 2248.37 1535.95 Q2245.26 1539.15 2239.62 1544.91 Z" fill="#000000" fill-rule="nonzero" fill-opacity="1" /><path clip-path="url(#clip460)" d="M2275.75 1517.37 Q2272.14 1517.37 2270.31 1520.93 Q2268.5 1524.47 2268.5 1531.6 Q2268.5 1538.71 2270.31 1542.27 Q2272.14 1545.82 2275.75 1545.82 Q2279.38 1545.82 2281.19 1542.27 Q2283.02 1538.71 2283.02 1531.6 Q2283.02 1524.47 2281.19 1520.93 Q2279.38 1517.37 2275.75 1517.37 M2275.75 1513.66 Q2281.56 1513.66 2284.62 1518.27 Q2287.69 1522.85 2287.69 1531.6 Q2287.69 1540.33 2284.62 1544.94 Q2281.56 1549.52 2275.75 1549.52 Q2269.94 1549.52 2266.86 1544.94 Q2263.81 1540.33 2263.81 1531.6 Q2263.81 1522.85 2266.86 1518.27 Q2269.94 1513.66 2275.75 1513.66 Z" fill="#000000" fill-rule="nonzero" fill-opacity="1" /><path clip-path="url(#clip460)" d="M2305.91 1517.37 Q2302.3 1517.37 2300.47 1520.93 Q2298.67 1524.47 2298.67 1531.6 Q2298.67 1538.71 2300.47 1542.27 Q2302.3 1545.82 2305.91 1545.82 Q2309.55 1545.82 2311.35 1542.27 Q2313.18 1538.71 2313.18 1531.6 Q2313.18 1524.47 2311.35 1520.93 Q2309.55 1517.37 2305.91 1517.37 M2305.91 1513.66 Q2311.72 1513.66 2314.78 1518.27 Q2317.86 1522.85 2317.86 1531.6 Q2317.86 1540.33 2314.78 1544.94 Q2311.72 1549.52 2305.91 1549.52 Q2300.1 1549.52 2297.02 1544.94 Q2293.97 1540.33 2293.97 1531.6 Q2293.97 1522.85 2297.02 1518.27 Q2300.1 1513.66 2305.91 1513.66 Z" fill="#000000" fill-rule="nonzero" fill-opacity="1" /><path clip-path="url(#clip460)" d="M2336.07 1517.37 Q2332.46 1517.37 2330.63 1520.93 Q2328.83 1524.47 2328.83 1531.6 Q2328.83 1538.71 2330.63 1542.27 Q2332.46 1545.82 2336.07 1545.82 Q2339.71 1545.82 2341.51 1542.27 Q2343.34 1538.71 2343.34 1531.6 Q2343.34 1524.47 2341.51 1520.93 Q2339.71 1517.37 2336.07 1517.37 M2336.07 1513.66 Q2341.88 1513.66 2344.94 1518.27 Q2348.02 1522.85 2348.02 1531.6 Q2348.02 1540.33 2344.94 1544.94 Q2341.88 1549.52 2336.07 1549.52 Q2330.26 1549.52 2327.18 1544.94 Q2324.13 1540.33 2324.13 1531.6 Q2324.13 1522.85 2327.18 1518.27 Q2330.26 1513.66 2336.07 1513.66 Z" fill="#000000" fill-rule="nonzero" fill-opacity="1" /><polyline clip-path="url(#clip462)" style="stroke:#000000; stroke-linecap:round; stroke-linejoin:round; stroke-width:2; stroke-opacity:0.1; fill:none" points="170.857,1277.12 2352.76,1277.12 "/>
<polyline clip-path="url(#clip462)" style="stroke:#000000; stroke-linecap:round; stroke-linejoin:round; stroke-width:2; stroke-opacity:0.1; fill:none" points="170.857,1001.17 2352.76,1001.17 "/>
<polyline clip-path="url(#clip462)" style="stroke:#000000; stroke-linecap:round; stroke-linejoin:round; stroke-width:2; stroke-opacity:0.1; fill:none" points="170.857,725.21 2352.76,725.21 "/>
<polyline clip-path="url(#clip462)" style="stroke:#000000; stroke-linecap:round; stroke-linejoin:round; stroke-width:2; stroke-opacity:0.1; fill:none" points="170.857,449.254 2352.76,449.254 "/>
<polyline clip-path="url(#clip462)" style="stroke:#000000; stroke-linecap:round; stroke-linejoin:round; stroke-width:2; stroke-opacity:0.1; fill:none" points="170.857,173.298 2352.76,173.298 "/>
<polyline clip-path="url(#clip460)" style="stroke:#000000; stroke-linecap:round; stroke-linejoin:round; stroke-width:4; stroke-opacity:1; fill:none" points="170.857,1486.45 170.857,47.2441 "/>
<polyline clip-path="url(#clip460)" style="stroke:#000000; stroke-linecap:round; stroke-linejoin:round; stroke-width:4; stroke-opacity:1; fill:none" points="170.857,1277.12 189.755,1277.12 "/>
<polyline clip-path="url(#clip460)" style="stroke:#000000; stroke-linecap:round; stroke-linejoin:round; stroke-width:4; stroke-opacity:1; fill:none" points="170.857,1001.17 189.755,1001.17 "/>
<polyline clip-path="url(#clip460)" style="stroke:#000000; stroke-linecap:round; stroke-linejoin:round; stroke-width:4; stroke-opacity:1; fill:none" points="170.857,725.21 189.755,725.21 "/>
<polyline clip-path="url(#clip460)" style="stroke:#000000; stroke-linecap:round; stroke-linejoin:round; stroke-width:4; stroke-opacity:1; fill:none" points="170.857,449.254 189.755,449.254 "/>
<polyline clip-path="url(#clip460)" style="stroke:#000000; stroke-linecap:round; stroke-linejoin:round; stroke-width:4; stroke-opacity:1; fill:none" points="170.857,173.298 189.755,173.298 "/>
<path clip-path="url(#clip460)" d="M56.6171 1290.47 L72.9365 1290.47 L72.9365 1294.4 L50.9921 1294.4 L50.9921 1290.47 Q53.6541 1287.71 58.2375 1283.08 Q62.8439 1278.43 64.0245 1277.09 Q66.2698 1274.56 67.1494 1272.83 Q68.0522 1271.07 68.0522 1269.38 Q68.0522 1266.62 66.1078 1264.89 Q64.1865 1263.15 61.0847 1263.15 Q58.8856 1263.15 56.4319 1263.92 Q54.0014 1264.68 51.2236 1266.23 L51.2236 1261.51 Q54.0477 1260.37 56.5014 1259.8 Q58.955 1259.22 60.9921 1259.22 Q66.3624 1259.22 69.5568 1261.9 Q72.7513 1264.59 72.7513 1269.08 Q72.7513 1271.21 71.9411 1273.13 Q71.1541 1275.03 69.0476 1277.62 Q68.4689 1278.29 65.367 1281.51 Q62.2652 1284.7 56.6171 1290.47 Z" fill="#000000" fill-rule="nonzero" fill-opacity="1" /><path clip-path="url(#clip460)" d="M83.5614 1290.47 L91.2002 1290.47 L91.2002 1264.1 L82.8901 1265.77 L82.8901 1261.51 L91.1539 1259.84 L95.8298 1259.84 L95.8298 1290.47 L103.469 1290.47 L103.469 1294.4 L83.5614 1294.4 L83.5614 1290.47 Z" fill="#000000" fill-rule="nonzero" fill-opacity="1" /><path clip-path="url(#clip460)" d="M122.913 1262.92 Q119.302 1262.92 117.473 1266.49 Q115.668 1270.03 115.668 1277.16 Q115.668 1284.26 117.473 1287.83 Q119.302 1291.37 122.913 1291.37 Q126.547 1291.37 128.353 1287.83 Q130.182 1284.26 130.182 1277.16 Q130.182 1270.03 128.353 1266.49 Q126.547 1262.92 122.913 1262.92 M122.913 1259.22 Q128.723 1259.22 131.779 1263.82 Q134.857 1268.41 134.857 1277.16 Q134.857 1285.88 131.779 1290.49 Q128.723 1295.07 122.913 1295.07 Q117.103 1295.07 114.024 1290.49 Q110.969 1285.88 110.969 1277.16 Q110.969 1268.41 114.024 1263.82 Q117.103 1259.22 122.913 1259.22 Z" fill="#000000" fill-rule="nonzero" fill-opacity="1" /><path clip-path="url(#clip460)" d="M56.6171 1014.51 L72.9365 1014.51 L72.9365 1018.45 L50.9921 1018.45 L50.9921 1014.51 Q53.6541 1011.76 58.2375 1007.13 Q62.8439 1002.47 64.0245 1001.13 Q66.2698 998.608 67.1494 996.872 Q68.0522 995.113 68.0522 993.423 Q68.0522 990.669 66.1078 988.933 Q64.1865 987.196 61.0847 987.196 Q58.8856 987.196 56.4319 987.96 Q54.0014 988.724 51.2236 990.275 L51.2236 985.553 Q54.0477 984.419 56.5014 983.84 Q58.955 983.261 60.9921 983.261 Q66.3624 983.261 69.5568 985.946 Q72.7513 988.632 72.7513 993.122 Q72.7513 995.252 71.9411 997.173 Q71.1541 999.071 69.0476 1001.66 Q68.4689 1002.34 65.367 1005.55 Q62.2652 1008.75 56.6171 1014.51 Z" fill="#000000" fill-rule="nonzero" fill-opacity="1" /><path clip-path="url(#clip460)" d="M86.779 1014.51 L103.098 1014.51 L103.098 1018.45 L81.154 1018.45 L81.154 1014.51 Q83.816 1011.76 88.3993 1007.13 Q93.0058 1002.47 94.1863 1001.13 Q96.4317 998.608 97.3113 996.872 Q98.2141 995.113 98.2141 993.423 Q98.2141 990.669 96.2697 988.933 Q94.3484 987.196 91.2465 987.196 Q89.0475 987.196 86.5938 987.96 Q84.1632 988.724 81.3855 990.275 L81.3855 985.553 Q84.2095 984.419 86.6632 983.84 Q89.1169 983.261 91.1539 983.261 Q96.5243 983.261 99.7187 985.946 Q102.913 988.632 102.913 993.122 Q102.913 995.252 102.103 997.173 Q101.316 999.071 99.2095 1001.66 Q98.6308 1002.34 95.5289 1005.55 Q92.4271 1008.75 86.779 1014.51 Z" fill="#000000" fill-rule="nonzero" fill-opacity="1" /><path clip-path="url(#clip460)" d="M122.913 986.965 Q119.302 986.965 117.473 990.53 Q115.668 994.071 115.668 1001.2 Q115.668 1008.31 117.473 1011.87 Q119.302 1015.41 122.913 1015.41 Q126.547 1015.41 128.353 1011.87 Q130.182 1008.31 130.182 1001.2 Q130.182 994.071 128.353 990.53 Q126.547 986.965 122.913 986.965 M122.913 983.261 Q128.723 983.261 131.779 987.868 Q134.857 992.451 134.857 1001.2 Q134.857 1009.93 131.779 1014.53 Q128.723 1019.12 122.913 1019.12 Q117.103 1019.12 114.024 1014.53 Q110.969 1009.93 110.969 1001.2 Q110.969 992.451 114.024 987.868 Q117.103 983.261 122.913 983.261 Z" fill="#000000" fill-rule="nonzero" fill-opacity="1" /><path clip-path="url(#clip460)" d="M56.6171 738.555 L72.9365 738.555 L72.9365 742.49 L50.9921 742.49 L50.9921 738.555 Q53.6541 735.801 58.2375 731.171 Q62.8439 726.518 64.0245 725.176 Q66.2698 722.652 67.1494 720.916 Q68.0522 719.157 68.0522 717.467 Q68.0522 714.713 66.1078 712.977 Q64.1865 711.24 61.0847 711.24 Q58.8856 711.24 56.4319 712.004 Q54.0014 712.768 51.2236 714.319 L51.2236 709.597 Q54.0477 708.463 56.5014 707.884 Q58.955 707.305 60.9921 707.305 Q66.3624 707.305 69.5568 709.99 Q72.7513 712.676 72.7513 717.166 Q72.7513 719.296 71.9411 721.217 Q71.1541 723.115 69.0476 725.708 Q68.4689 726.379 65.367 729.597 Q62.2652 732.791 56.6171 738.555 Z" fill="#000000" fill-rule="nonzero" fill-opacity="1" /><path clip-path="url(#clip460)" d="M96.9178 723.856 Q100.274 724.574 102.149 726.842 Q104.047 729.111 104.047 732.444 Q104.047 737.56 100.529 740.361 Q97.0104 743.162 90.529 743.162 Q88.353 743.162 86.0382 742.722 Q83.7466 742.305 81.2929 741.449 L81.2929 736.935 Q83.2373 738.069 85.5521 738.648 Q87.8669 739.226 90.3901 739.226 Q94.7882 739.226 97.0798 737.49 Q99.3946 735.754 99.3946 732.444 Q99.3946 729.389 97.2419 727.676 Q95.1123 725.939 91.2928 725.939 L87.2651 725.939 L87.2651 722.097 L91.478 722.097 Q94.9271 722.097 96.7558 720.731 Q98.5845 719.342 98.5845 716.75 Q98.5845 714.088 96.6863 712.676 Q94.8113 711.24 91.2928 711.24 Q89.3715 711.24 87.1725 711.657 Q84.9734 712.074 82.3346 712.953 L82.3346 708.787 Q84.9966 708.046 87.3114 707.676 Q89.6493 707.305 91.7095 707.305 Q97.0335 707.305 100.135 709.736 Q103.237 712.143 103.237 716.264 Q103.237 719.134 101.594 721.125 Q99.9502 723.092 96.9178 723.856 Z" fill="#000000" fill-rule="nonzero" fill-opacity="1" /><path clip-path="url(#clip460)" d="M122.913 711.009 Q119.302 711.009 117.473 714.574 Q115.668 718.115 115.668 725.245 Q115.668 732.351 117.473 735.916 Q119.302 739.458 122.913 739.458 Q126.547 739.458 128.353 735.916 Q130.182 732.351 130.182 725.245 Q130.182 718.115 128.353 714.574 Q126.547 711.009 122.913 711.009 M122.913 707.305 Q128.723 707.305 131.779 711.912 Q134.857 716.495 134.857 725.245 Q134.857 733.972 131.779 738.578 Q128.723 743.162 122.913 743.162 Q117.103 743.162 114.024 738.578 Q110.969 733.972 110.969 725.245 Q110.969 716.495 114.024 711.912 Q117.103 707.305 122.913 707.305 Z" fill="#000000" fill-rule="nonzero" fill-opacity="1" /><path clip-path="url(#clip460)" d="M56.6171 462.599 L72.9365 462.599 L72.9365 466.534 L50.9921 466.534 L50.9921 462.599 Q53.6541 459.845 58.2375 455.215 Q62.8439 450.562 64.0245 449.22 Q66.2698 446.696 67.1494 444.96 Q68.0522 443.201 68.0522 441.511 Q68.0522 438.757 66.1078 437.021 Q64.1865 435.284 61.0847 435.284 Q58.8856 435.284 56.4319 436.048 Q54.0014 436.812 51.2236 438.363 L51.2236 433.641 Q54.0477 432.507 56.5014 431.928 Q58.955 431.349 60.9921 431.349 Q66.3624 431.349 69.5568 434.034 Q72.7513 436.72 72.7513 441.21 Q72.7513 443.34 71.9411 445.261 Q71.1541 447.159 69.0476 449.752 Q68.4689 450.423 65.367 453.641 Q62.2652 456.835 56.6171 462.599 Z" fill="#000000" fill-rule="nonzero" fill-opacity="1" /><path clip-path="url(#clip460)" d="M95.5984 436.048 L83.7929 454.497 L95.5984 454.497 L95.5984 436.048 M94.3715 431.974 L100.251 431.974 L100.251 454.497 L105.182 454.497 L105.182 458.386 L100.251 458.386 L100.251 466.534 L95.5984 466.534 L95.5984 458.386 L79.9966 458.386 L79.9966 453.872 L94.3715 431.974 Z" fill="#000000" fill-rule="nonzero" fill-opacity="1" /><path clip-path="url(#clip460)" d="M122.913 435.053 Q119.302 435.053 117.473 438.618 Q115.668 442.159 115.668 449.289 Q115.668 456.395 117.473 459.96 Q119.302 463.502 122.913 463.502 Q126.547 463.502 128.353 459.96 Q130.182 456.395 130.182 449.289 Q130.182 442.159 128.353 438.618 Q126.547 435.053 122.913 435.053 M122.913 431.349 Q128.723 431.349 131.779 435.956 Q134.857 440.539 134.857 449.289 Q134.857 458.016 131.779 462.622 Q128.723 467.206 122.913 467.206 Q117.103 467.206 114.024 462.622 Q110.969 458.016 110.969 449.289 Q110.969 440.539 114.024 435.956 Q117.103 431.349 122.913 431.349 Z" fill="#000000" fill-rule="nonzero" fill-opacity="1" /><path clip-path="url(#clip460)" d="M56.6171 186.643 L72.9365 186.643 L72.9365 190.578 L50.9921 190.578 L50.9921 186.643 Q53.6541 183.889 58.2375 179.259 Q62.8439 174.606 64.0245 173.264 Q66.2698 170.74 67.1494 169.004 Q68.0522 167.245 68.0522 165.555 Q68.0522 162.801 66.1078 161.065 Q64.1865 159.328 61.0847 159.328 Q58.8856 159.328 56.4319 160.092 Q54.0014 160.856 51.2236 162.407 L51.2236 157.685 Q54.0477 156.551 56.5014 155.972 Q58.955 155.393 60.9921 155.393 Q66.3624 155.393 69.5568 158.078 Q72.7513 160.764 72.7513 165.254 Q72.7513 167.384 71.9411 169.305 Q71.1541 171.203 69.0476 173.796 Q68.4689 174.467 65.367 177.685 Q62.2652 180.879 56.6171 186.643 Z" fill="#000000" fill-rule="nonzero" fill-opacity="1" /><path clip-path="url(#clip460)" d="M82.7975 156.018 L101.154 156.018 L101.154 159.953 L87.0799 159.953 L87.0799 168.426 Q88.0984 168.078 89.1169 167.916 Q90.1354 167.731 91.1539 167.731 Q96.941 167.731 100.321 170.902 Q103.7 174.074 103.7 179.49 Q103.7 185.069 100.228 188.171 Q96.7558 191.25 90.4364 191.25 Q88.2604 191.25 85.9919 190.879 Q83.7466 190.509 81.3392 189.768 L81.3392 185.069 Q83.4225 186.203 85.6447 186.759 Q87.8669 187.314 90.3438 187.314 Q94.3484 187.314 96.6863 185.208 Q99.0243 183.101 99.0243 179.49 Q99.0243 175.879 96.6863 173.773 Q94.3484 171.666 90.3438 171.666 Q88.4688 171.666 86.5938 172.083 Q84.7419 172.5 82.7975 173.379 L82.7975 156.018 Z" fill="#000000" fill-rule="nonzero" fill-opacity="1" /><path clip-path="url(#clip460)" d="M122.913 159.097 Q119.302 159.097 117.473 162.662 Q115.668 166.203 115.668 173.333 Q115.668 180.439 117.473 184.004 Q119.302 187.546 122.913 187.546 Q126.547 187.546 128.353 184.004 Q130.182 180.439 130.182 173.333 Q130.182 166.203 128.353 162.662 Q126.547 159.097 122.913 159.097 M122.913 155.393 Q128.723 155.393 131.779 160 Q134.857 164.583 134.857 173.333 Q134.857 182.06 131.779 186.666 Q128.723 191.25 122.913 191.25 Q117.103 191.25 114.024 186.666 Q110.969 182.06 110.969 173.333 Q110.969 164.583 114.024 160 Q117.103 155.393 122.913 155.393 Z" fill="#000000" fill-rule="nonzero" fill-opacity="1" /><polyline clip-path="url(#clip462)" style="stroke:#009af9; stroke-linecap:round; stroke-linejoin:round; stroke-width:4; stroke-opacity:1; fill:none" points="232.609,87.9763 233.638,552.01 234.668,776.584 235.697,902.277 236.726,981.432 237.755,1036.75 238.784,1078.56 239.814,1111.79 240.843,1139.06 241.872,1161.94 242.901,1181.47 243.93,1198.42 244.96,1209.63 245.989,1217.83 247.018,1225.72 248.047,1233.38 249.076,1240.86 250.106,1248.19 251.135,1255.39 252.164,1262.47 253.193,1269.44 254.222,1276.31 255.252,1283.06 256.281,1289.7 257.31,1296.22 258.339,1302.61 259.368,1308.85 260.398,1314.95 261.427,1320.87 262.456,1326.62 263.485,1332.18 264.514,1337.55 265.544,1342.72 266.573,1347.68 267.602,1352.4 268.631,1356 269.66,1359.43 270.69,1362.7 271.719,1365.82 272.748,1368.79 273.777,1371.62 274.806,1374.32 275.836,1375.69 276.865,1376.88 277.894,1378.05 278.923,1379.19 279.952,1380.3 280.982,1381.39 282.011,1382.46 283.04,1383.51 284.069,1384.54 285.098,1385.55 286.128,1386.54 287.157,1387.51 288.186,1388.46 289.215,1389.4 290.244,1390.31 291.274,1391.21 292.303,1392.1 293.332,1392.96 294.361,1393.81 295.39,1394.65 296.42,1395.47 297.449,1396.28 298.478,1397.07 299.507,1397.85 300.536,1398.61 301.565,1399.36 302.595,1400.1 303.624,1400.82 304.653,1401.53 305.682,1402.23 306.711,1402.92 307.741,1403.59 308.77,1404.26 309.799,1404.91 310.828,1405.55 311.857,1406.18 312.887,1406.79 313.916,1407.4 314.945,1408 315.974,1408.58 317.003,1409.16 318.033,1409.73 319.062,1410.28 320.091,1410.83 321.12,1411.37 322.149,1411.9 323.179,1412.42 324.208,1412.93 325.237,1413.43 326.266,1413.92 327.295,1414.41 328.325,1414.88 329.354,1415.35 330.383,1415.81 331.412,1416.26 332.441,1416.71 333.471,1417.15 334.5,1417.58 335.529,1418 336.558,1418.41 337.587,1418.82 338.617,1419.23 339.646,1419.62 340.675,1420.01 341.704,1420.39 342.733,1420.77 343.763,1421.12 344.792,1421.45 345.821,1421.78 346.85,1422.1 347.879,1422.41 348.909,1422.73 349.938,1423.03 350.967,1423.33 351.996,1423.63 353.025,1423.92 354.055,1424.21 355.084,1424.49 356.113,1424.77 357.142,1425.05 358.171,1425.32 359.201,1425.58 360.23,1425.84 361.259,1426.1 362.288,1426.35 363.317,1426.6 364.347,1426.85 365.376,1427.09 366.405,1427.33 367.434,1427.56 368.463,1427.79 369.493,1428.02 370.522,1428.24 371.551,1428.46 372.58,1428.68 373.609,1428.9 374.639,1429.11 375.668,1429.31 376.697,1429.52 377.726,1429.72 378.755,1429.92 379.784,1430.11 380.814,1430.31 381.843,1430.5 382.872,1430.68 383.901,1430.87 384.93,1431.05 385.96,1431.23 386.989,1431.4 388.018,1431.58 389.047,1431.75 390.076,1431.92 391.106,1432.09 392.135,1432.25 393.164,1432.41 394.193,1432.57 395.222,1432.73 396.252,1432.88 397.281,1433.04 398.31,1433.19 399.339,1433.34 400.368,1433.48 401.398,1433.63 402.427,1433.77 403.456,1433.91 404.485,1434.05 405.514,1434.19 406.544,1434.32 407.573,1434.46 408.602,1434.59 409.631,1434.72 410.66,1434.85 411.69,1434.97 412.719,1435.1 413.748,1435.22 414.777,1435.34 415.806,1435.46 416.836,1435.58 417.865,1435.7 418.894,1435.81 419.923,1435.93 420.952,1436.04 421.982,1436.15 423.011,1436.26 424.04,1436.37 425.069,1436.48 426.098,1436.58 427.128,1436.69 428.157,1436.79 429.186,1436.89 430.215,1436.99 431.244,1437.09 432.274,1437.19 433.303,1437.29 434.332,1437.38 435.361,1437.48 436.39,1437.57 437.42,1437.66 438.449,1437.75 439.478,1437.85 440.507,1437.93 441.536,1438.02 442.566,1438.11 443.595,1438.2 444.624,1438.28 445.653,1438.36 446.682,1438.45 447.712,1438.53 448.741,1438.61 449.77,1438.69 450.799,1438.77 451.828,1438.85 452.858,1438.93 453.887,1439 454.916,1439.08 455.945,1439.15 456.974,1439.23 458.003,1439.3 459.033,1439.37 460.062,1439.45 461.091,1439.52 462.12,1439.59 463.149,1439.66 464.179,1439.72 465.208,1439.79 466.237,1439.86 467.266,1439.93 468.295,1439.99 469.325,1440.06 470.354,1440.12 471.383,1440.19 472.412,1440.25 473.441,1440.31 474.471,1440.37 475.5,1440.43 476.529,1440.49 477.558,1440.55 478.587,1440.61 479.617,1440.67 480.646,1440.73 481.675,1440.79 482.704,1440.84 483.733,1440.9 484.763,1440.96 485.792,1441.01 486.821,1441.07 487.85,1441.12 488.879,1441.17 489.909,1441.23 490.938,1441.28 491.967,1441.33 492.996,1441.38 494.025,1441.43 495.055,1441.48 496.084,1441.53 497.113,1441.58 498.142,1441.63 499.171,1441.68 500.201,1441.73 501.23,1441.78 502.259,1441.82 503.288,1441.87 504.317,1441.92 505.347,1441.96 506.376,1442.01 507.405,1442.05 508.434,1442.1 509.463,1442.14 510.493,1442.19 511.522,1442.23 512.551,1442.27 513.58,1442.31 514.609,1442.36 515.639,1442.4 516.668,1442.44 517.697,1442.48 518.726,1442.52 519.755,1442.56 520.785,1442.6 521.814,1442.64 522.843,1442.68 523.872,1442.71 524.901,1442.75 525.931,1442.78 526.96,1442.81 527.989,1442.85 529.018,1442.88 530.047,1442.91 531.077,1442.95 532.106,1442.98 533.135,1443.01 534.164,1443.04 535.193,1443.07 536.222,1443.11 537.252,1443.14 538.281,1443.17 539.31,1443.2 540.339,1443.23 541.368,1443.26 542.398,1443.29 543.427,1443.32 544.456,1443.35 545.485,1443.38 546.514,1443.4 547.544,1443.43 548.573,1443.46 549.602,1443.49 550.631,1443.52 551.66,1443.55 552.69,1443.57 553.719,1443.6 554.748,1443.63 555.777,1443.65 556.806,1443.68 557.836,1443.71 558.865,1443.73 559.894,1443.76 560.923,1443.78 561.952,1443.81 562.982,1443.84 564.011,1443.86 565.04,1443.89 566.069,1443.91 567.098,1443.94 568.128,1443.96 569.157,1443.98 570.186,1444.01 571.215,1444.03 572.244,1444.06 573.274,1444.08 574.303,1444.1 575.332,1444.13 576.361,1444.15 577.39,1444.17 578.42,1444.2 579.449,1444.22 580.478,1444.24 581.507,1444.26 582.536,1444.28 583.566,1444.31 584.595,1444.33 585.624,1444.35 586.653,1444.37 587.682,1444.39 588.712,1444.41 589.741,1444.43 590.77,1444.46 591.799,1444.48 592.828,1444.5 593.858,1444.52 594.887,1444.54 595.916,1444.56 596.945,1444.58 597.974,1444.6 599.004,1444.62 600.033,1444.64 601.062,1444.66 602.091,1444.68 603.12,1444.7 604.15,1444.71 605.179,1444.73 606.208,1444.75 607.237,1444.77 608.266,1444.79 609.296,1444.81 610.325,1444.83 611.354,1444.85 612.383,1444.86 613.412,1444.88 614.441,1444.9 615.471,1444.92 616.5,1444.93 617.529,1444.95 618.558,1444.97 619.587,1444.99 620.617,1445 621.646,1445.02 622.675,1445.04 623.704,1445.05 624.733,1445.05 625.763,1445.06 626.792,1445.06 627.821,1445.07 628.85,1445.07 629.879,1445.08 630.909,1445.08 631.938,1445.09 632.967,1445.09 633.996,1445.1 635.025,1445.1 636.055,1445.1 637.084,1445.11 638.113,1445.11 639.142,1445.11 640.171,1445.12 641.201,1445.12 642.23,1445.13 643.259,1445.13 644.288,1445.13 645.317,1445.14 646.347,1445.14 647.376,1445.14 648.405,1445.15 649.434,1445.15 650.463,1445.15 651.493,1445.15 652.522,1445.16 653.551,1445.16 654.58,1445.16 655.609,1445.17 656.639,1445.17 657.668,1445.17 658.697,1445.18 659.726,1445.18 660.755,1445.18 661.785,1445.18 662.814,1445.19 663.843,1445.19 664.872,1445.19 665.901,1445.2 666.931,1445.2 667.96,1445.2 668.989,1445.2 670.018,1445.21 671.047,1445.21 672.077,1445.21 673.106,1445.21 674.135,1445.22 675.164,1445.22 676.193,1445.22 677.223,1445.22 678.252,1445.23 679.281,1445.23 680.31,1445.23 681.339,1445.23 682.369,1445.24 683.398,1445.24 684.427,1445.24 685.456,1445.24 686.485,1445.25 687.515,1445.25 688.544,1445.25 689.573,1445.25 690.602,1445.25 691.631,1445.26 692.66,1445.26 693.69,1445.26 694.719,1445.26 695.748,1445.26 696.777,1445.27 697.806,1445.27 698.836,1445.27 699.865,1445.27 700.894,1445.27 701.923,1445.27 702.952,1445.28 703.982,1445.28 705.011,1445.28 706.04,1445.28 707.069,1445.28 708.098,1445.29 709.128,1445.29 710.157,1445.29 711.186,1445.29 712.215,1445.29 713.244,1445.29 714.274,1445.3 715.303,1445.3 716.332,1445.3 717.361,1445.3 718.39,1445.3 719.42,1445.3 720.449,1445.31 721.478,1445.31 722.507,1445.31 723.536,1445.31 724.566,1445.31 725.595,1445.31 726.624,1445.32 727.653,1445.32 728.682,1445.32 729.712,1445.32 730.741,1445.32 731.77,1445.32 732.799,1445.32 733.828,1445.33 734.858,1445.33 735.887,1445.33 736.916,1445.33 737.945,1445.33 738.974,1445.33 740.004,1445.33 741.033,1445.34 742.062,1445.34 743.091,1445.34 744.12,1445.34 745.15,1445.34 746.179,1445.34 747.208,1445.34 748.237,1445.35 749.266,1445.35 750.296,1445.35 751.325,1445.35 752.354,1445.35 753.383,1445.35 754.412,1445.35 755.442,1445.36 756.471,1445.36 757.5,1445.36 758.529,1445.36 759.558,1445.36 760.588,1445.36 761.617,1445.36 762.646,1445.36 763.675,1445.37 764.704,1445.37 765.734,1445.37 766.763,1445.37 767.792,1445.37 768.821,1445.37 769.85,1445.37 770.88,1445.37 771.909,1445.38 772.938,1445.38 773.967,1445.38 774.996,1445.38 776.025,1445.38 777.055,1445.38 778.084,1445.38 779.113,1445.38 780.142,1445.39 781.171,1445.39 782.201,1445.39 783.23,1445.39 784.259,1445.39 785.288,1445.39 786.317,1445.39 787.347,1445.39 788.376,1445.39 789.405,1445.4 790.434,1445.4 791.463,1445.4 792.493,1445.4 793.522,1445.4 794.551,1445.4 795.58,1445.4 796.609,1445.4 797.639,1445.4 798.668,1445.41 799.697,1445.41 800.726,1445.41 801.755,1445.41 802.785,1445.41 803.814,1445.41 804.843,1445.41 805.872,1445.41 806.901,1445.41 807.931,1445.41 808.96,1445.42 809.989,1445.42 811.018,1445.42 812.047,1445.42 813.077,1445.42 814.106,1445.42 815.135,1445.42 816.164,1445.42 817.193,1445.42 818.223,1445.42 819.252,1445.43 820.281,1445.43 821.31,1445.43 822.339,1445.43 823.369,1445.43 824.398,1445.43 825.427,1445.43 826.456,1445.43 827.485,1445.43 828.515,1445.43 829.544,1445.44 830.573,1445.44 831.602,1445.44 832.631,1445.44 833.661,1445.44 834.69,1445.44 835.719,1445.44 836.748,1445.44 837.777,1445.44 838.807,1445.44 839.836,1445.44 840.865,1445.45 841.894,1445.45 842.923,1445.45 843.953,1445.45 844.982,1445.45 846.011,1445.45 847.04,1445.45 848.069,1445.45 849.099,1445.45 850.128,1445.45 851.157,1445.45 852.186,1445.45 853.215,1445.46 854.244,1445.46 855.274,1445.46 856.303,1445.46 857.332,1445.46 858.361,1445.46 859.39,1445.46 860.42,1445.46 861.449,1445.46 862.478,1445.46 863.507,1445.46 864.536,1445.46 865.566,1445.47 866.595,1445.47 867.624,1445.47 868.653,1445.47 869.682,1445.47 870.712,1445.47 871.741,1445.47 872.77,1445.47 873.799,1445.47 874.828,1445.47 875.858,1445.47 876.887,1445.47 877.916,1445.48 878.945,1445.48 879.974,1445.48 881.004,1445.48 882.033,1445.48 883.062,1445.48 884.091,1445.48 885.12,1445.48 886.15,1445.48 887.179,1445.48 888.208,1445.48 889.237,1445.48 890.266,1445.48 891.296,1445.49 892.325,1445.49 893.354,1445.49 894.383,1445.49 895.412,1445.49 896.442,1445.49 897.471,1445.49 898.5,1445.49 899.529,1445.49 900.558,1445.49 901.588,1445.49 902.617,1445.49 903.646,1445.49 904.675,1445.49 905.704,1445.5 906.734,1445.5 907.763,1445.5 908.792,1445.5 909.821,1445.5 910.85,1445.5 911.88,1445.5 912.909,1445.5 913.938,1445.5 914.967,1445.5 915.996,1445.5 917.026,1445.5 918.055,1445.5 919.084,1445.5 920.113,1445.51 921.142,1445.51 922.172,1445.51 923.201,1445.51 924.23,1445.51 925.259,1445.51 926.288,1445.51 927.318,1445.51 928.347,1445.51 929.376,1445.51 930.405,1445.51 931.434,1445.51 932.463,1445.51 933.493,1445.51 934.522,1445.51 935.551,1445.52 936.58,1445.52 937.609,1445.52 938.639,1445.52 939.668,1445.52 940.697,1445.52 941.726,1445.52 942.755,1445.52 943.785,1445.52 944.814,1445.52 945.843,1445.52 946.872,1445.52 947.901,1445.52 948.931,1445.52 949.96,1445.52 950.989,1445.52 952.018,1445.53 953.047,1445.53 954.077,1445.53 955.106,1445.53 956.135,1445.53 957.164,1445.53 958.193,1445.53 959.223,1445.53 960.252,1445.53 961.281,1445.53 962.31,1445.53 963.339,1445.53 964.369,1445.53 965.398,1445.53 966.427,1445.53 967.456,1445.53 968.485,1445.54 969.515,1445.54 970.544,1445.54 971.573,1445.54 972.602,1445.54 973.631,1445.54 974.661,1445.54 975.69,1445.54 976.719,1445.54 977.748,1445.54 978.777,1445.54 979.807,1445.54 980.836,1445.54 981.865,1445.54 982.894,1445.54 983.923,1445.54 984.953,1445.54 985.982,1445.55 987.011,1445.55 988.04,1445.55 989.069,1445.55 990.099,1445.55 991.128,1445.55 992.157,1445.55 993.186,1445.55 994.215,1445.55 995.245,1445.55 996.274,1445.55 997.303,1445.55 998.332,1445.55 999.361,1445.55 1000.39,1445.55 1001.42,1445.55 1002.45,1445.55 1003.48,1445.56 1004.51,1445.56 1005.54,1445.56 1006.57,1445.56 1007.59,1445.56 1008.62,1445.56 1009.65,1445.56 1010.68,1445.56 1011.71,1445.56 1012.74,1445.56 1013.77,1445.56 1014.8,1445.56 1015.83,1445.56 1016.86,1445.56 1017.89,1445.56 1018.92,1445.56 1019.95,1445.56 1020.97,1445.56 1022,1445.56 1023.03,1445.57 1024.06,1445.57 1025.09,1445.57 1026.12,1445.57 1027.15,1445.57 1028.18,1445.57 1029.21,1445.57 1030.24,1445.57 1031.27,1445.57 1032.3,1445.57 1033.32,1445.57 1034.35,1445.57 1035.38,1445.57 1036.41,1445.57 1037.44,1445.57 1038.47,1445.57 1039.5,1445.57 1040.53,1445.57 1041.56,1445.57 1042.59,1445.58 1043.62,1445.58 1044.65,1445.58 1045.68,1445.58 1046.7,1445.58 1047.73,1445.58 1048.76,1445.58 1049.79,1445.58 1050.82,1445.58 1051.85,1445.58 1052.88,1445.58 1053.91,1445.58 1054.94,1445.58 1055.97,1445.58 1057,1445.58 1058.03,1445.58 1059.05,1445.58 1060.08,1445.58 1061.11,1445.58 1062.14,1445.59 1063.17,1445.59 1064.2,1445.59 1065.23,1445.59 1066.26,1445.59 1067.29,1445.59 1068.32,1445.59 1069.35,1445.59 1070.38,1445.59 1071.41,1445.59 1072.43,1445.59 1073.46,1445.59 1074.49,1445.59 1075.52,1445.59 1076.55,1445.59 1077.58,1445.59 1078.61,1445.59 1079.64,1445.59 1080.67,1445.59 1081.7,1445.59 1082.73,1445.59 1083.76,1445.6 1084.78,1445.6 1085.81,1445.6 1086.84,1445.6 1087.87,1445.6 1088.9,1445.6 1089.93,1445.6 1090.96,1445.6 1091.99,1445.6 1093.02,1445.6 1094.05,1445.6 1095.08,1445.6 1096.11,1445.6 1097.14,1445.6 1098.16,1445.6 1099.19,1445.6 1100.22,1445.6 1101.25,1445.6 1102.28,1445.6 1103.31,1445.6 1104.34,1445.6 1105.37,1445.61 1106.4,1445.61 1107.43,1445.61 1108.46,1445.61 1109.49,1445.61 1110.51,1445.61 1111.54,1445.61 1112.57,1445.61 1113.6,1445.61 1114.63,1445.61 1115.66,1445.61 1116.69,1445.61 1117.72,1445.61 1118.75,1445.61 1119.78,1445.61 1120.81,1445.61 1121.84,1445.61 1122.87,1445.61 1123.89,1445.61 1124.92,1445.61 1125.95,1445.61 1126.98,1445.61 1128.01,1445.61 1129.04,1445.62 1130.07,1445.62 1131.1,1445.62 1132.13,1445.62 1133.16,1445.62 1134.19,1445.62 1135.22,1445.62 1136.24,1445.62 1137.27,1445.62 1138.3,1445.62 1139.33,1445.62 1140.36,1445.62 1141.39,1445.62 1142.42,1445.62 1143.45,1445.62 1144.48,1445.62 1145.51,1445.62 1146.54,1445.62 1147.57,1445.62 1148.59,1445.62 1149.62,1445.62 1150.65,1445.62 1151.68,1445.62 1152.71,1445.63 1153.74,1445.63 1154.77,1445.63 1155.8,1445.63 1156.83,1445.63 1157.86,1445.63 1158.89,1445.63 1159.92,1445.63 1160.95,1445.63 1161.97,1445.63 1163,1445.63 1164.03,1445.63 1165.06,1445.63 1166.09,1445.63 1167.12,1445.63 1168.15,1445.63 1169.18,1445.63 1170.21,1445.63 1171.24,1445.63 1172.27,1445.63 1173.3,1445.63 1174.32,1445.63 1175.35,1445.63 1176.38,1445.63 1177.41,1445.64 1178.44,1445.64 1179.47,1445.64 1180.5,1445.64 1181.53,1445.64 1182.56,1445.64 1183.59,1445.64 1184.62,1445.64 1185.65,1445.64 1186.68,1445.64 1187.7,1445.64 1188.73,1445.64 1189.76,1445.64 1190.79,1445.64 1191.82,1445.64 1192.85,1445.64 1193.88,1445.64 1194.91,1445.64 1195.94,1445.64 1196.97,1445.64 1198,1445.64 1199.03,1445.64 1200.05,1445.64 1201.08,1445.64 1202.11,1445.64 1203.14,1445.65 1204.17,1445.65 1205.2,1445.65 1206.23,1445.65 1207.26,1445.65 1208.29,1445.65 1209.32,1445.65 1210.35,1445.65 1211.38,1445.65 1212.41,1445.65 1213.43,1445.65 1214.46,1445.65 1215.49,1445.65 1216.52,1445.65 1217.55,1445.65 1218.58,1445.65 1219.61,1445.65 1220.64,1445.65 1221.67,1445.65 1222.7,1445.65 1223.73,1445.65 1224.76,1445.65 1225.78,1445.65 1226.81,1445.65 1227.84,1445.65 1228.87,1445.65 1229.9,1445.66 1230.93,1445.66 1231.96,1445.66 1232.99,1445.66 1234.02,1445.66 1235.05,1445.66 1236.08,1445.66 1237.11,1445.66 1238.14,1445.66 1239.16,1445.66 1240.19,1445.66 1241.22,1445.66 1242.25,1445.66 1243.28,1445.66 1244.31,1445.66 1245.34,1445.66 1246.37,1445.66 1247.4,1445.66 1248.43,1445.66 1249.46,1445.66 1250.49,1445.66 1251.51,1445.66 1252.54,1445.66 1253.57,1445.66 1254.6,1445.66 1255.63,1445.66 1256.66,1445.67 1257.69,1445.67 1258.72,1445.67 1259.75,1445.67 1260.78,1445.67 1261.81,1445.67 1262.84,1445.67 1263.87,1445.67 1264.89,1445.67 1265.92,1445.67 1266.95,1445.67 1267.98,1445.67 1269.01,1445.67 1270.04,1445.67 1271.07,1445.67 1272.1,1445.67 1273.13,1445.67 1274.16,1445.67 1275.19,1445.67 1276.22,1445.67 1277.24,1445.67 1278.27,1445.67 1279.3,1445.67 1280.33,1445.67 1281.36,1445.67 1282.39,1445.67 1283.42,1445.67 1284.45,1445.67 1285.48,1445.68 1286.51,1445.68 1287.54,1445.68 1288.57,1445.68 1289.59,1445.68 1290.62,1445.68 1291.65,1445.68 1292.68,1445.68 1293.71,1445.68 1294.74,1445.68 1295.77,1445.68 1296.8,1445.68 1297.83,1445.68 1298.86,1445.68 1299.89,1445.68 1300.92,1445.68 1301.95,1445.68 1302.97,1445.68 1304,1445.68 1305.03,1445.68 1306.06,1445.68 1307.09,1445.68 1308.12,1445.68 1309.15,1445.68 1310.18,1445.68 1311.21,1445.68 1312.24,1445.68 1313.27,1445.68 1314.3,1445.68 1315.32,1445.69 1316.35,1445.69 1317.38,1445.69 1318.41,1445.69 1319.44,1445.69 1320.47,1445.69 1321.5,1445.69 1322.53,1445.69 1323.56,1445.69 1324.59,1445.69 1325.62,1445.69 1326.65,1445.69 1327.68,1445.69 1328.7,1445.69 1329.73,1445.69 1330.76,1445.69 1331.79,1445.69 1332.82,1445.69 1333.85,1445.69 1334.88,1445.69 1335.91,1445.69 1336.94,1445.69 1337.97,1445.69 1339,1445.69 1340.03,1445.69 1341.05,1445.69 1342.08,1445.69 1343.11,1445.69 1344.14,1445.69 1345.17,1445.69 1346.2,1445.7 1347.23,1445.7 1348.26,1445.7 1349.29,1445.7 1350.32,1445.7 1351.35,1445.7 1352.38,1445.7 1353.41,1445.7 1354.43,1445.7 1355.46,1445.7 1356.49,1445.7 1357.52,1445.7 1358.55,1445.7 1359.58,1445.7 1360.61,1445.7 1361.64,1445.7 1362.67,1445.7 1363.7,1445.7 1364.73,1445.7 1365.76,1445.7 1366.78,1445.7 1367.81,1445.7 1368.84,1445.7 1369.87,1445.7 1370.9,1445.7 1371.93,1445.7 1372.96,1445.7 1373.99,1445.7 1375.02,1445.7 1376.05,1445.7 1377.08,1445.7 1378.11,1445.7 1379.14,1445.71 1380.16,1445.71 1381.19,1445.71 1382.22,1445.71 1383.25,1445.71 1384.28,1445.71 1385.31,1445.71 1386.34,1445.71 1387.37,1445.71 1388.4,1445.71 1389.43,1445.71 1390.46,1445.71 1391.49,1445.71 1392.51,1445.71 1393.54,1445.71 1394.57,1445.71 1395.6,1445.71 1396.63,1445.71 1397.66,1445.71 1398.69,1445.71 1399.72,1445.71 1400.75,1445.71 1401.78,1445.71 1402.81,1445.71 1403.84,1445.71 1404.87,1445.71 1405.89,1445.71 1406.92,1445.71 1407.95,1445.71 1408.98,1445.71 1410.01,1445.71 1411.04,1445.71 1412.07,1445.72 1413.1,1445.72 1414.13,1445.72 1415.16,1445.72 1416.19,1445.72 1417.22,1445.72 1418.24,1445.72 1419.27,1445.72 1420.3,1445.72 1421.33,1445.72 1422.36,1445.72 1423.39,1445.72 1424.42,1445.72 1425.45,1445.72 1426.48,1445.72 1427.51,1445.72 1428.54,1445.72 1429.57,1445.72 1430.6,1445.72 1431.62,1445.72 1432.65,1445.72 1433.68,1445.72 1434.71,1445.72 1435.74,1445.72 1436.77,1445.72 1437.8,1445.72 1438.83,1445.72 1439.86,1445.72 1440.89,1445.72 1441.92,1445.72 1442.95,1445.72 1443.97,1445.72 1445,1445.72 1446.03,1445.72 1447.06,1445.72 1448.09,1445.72 1449.12,1445.72 1450.15,1445.72 1451.18,1445.72 1452.21,1445.72 1453.24,1445.72 1454.27,1445.72 1455.3,1445.72 1456.32,1445.72 1457.35,1445.72 1458.38,1445.72 1459.41,1445.72 1460.44,1445.72 1461.47,1445.72 1462.5,1445.72 1463.53,1445.72 1464.56,1445.72 1465.59,1445.72 1466.62,1445.72 1467.65,1445.72 1468.68,1445.72 1469.7,1445.72 1470.73,1445.72 1471.76,1445.72 1472.79,1445.72 1473.82,1445.72 1474.85,1445.72 1475.88,1445.72 1476.91,1445.72 1477.94,1445.72 1478.97,1445.72 1480,1445.72 1481.03,1445.72 1482.05,1445.72 1483.08,1445.72 1484.11,1445.72 1485.14,1445.72 1486.17,1445.72 1487.2,1445.72 1488.23,1445.72 1489.26,1445.72 1490.29,1445.72 1491.32,1445.72 1492.35,1445.72 1493.38,1445.72 1494.41,1445.72 1495.43,1445.72 1496.46,1445.72 1497.49,1445.72 1498.52,1445.72 1499.55,1445.72 1500.58,1445.72 1501.61,1445.72 1502.64,1445.72 1503.67,1445.72 1504.7,1445.72 1505.73,1445.72 1506.76,1445.72 1507.78,1445.72 1508.81,1445.72 1509.84,1445.72 1510.87,1445.72 1511.9,1445.72 1512.93,1445.72 1513.96,1445.72 1514.99,1445.72 1516.02,1445.72 1517.05,1445.72 1518.08,1445.72 1519.11,1445.72 1520.14,1445.72 1521.16,1445.72 1522.19,1445.72 1523.22,1445.72 1524.25,1445.72 1525.28,1445.72 1526.31,1445.72 1527.34,1445.72 1528.37,1445.72 1529.4,1445.72 1530.43,1445.72 1531.46,1445.72 1532.49,1445.72 1533.51,1445.72 1534.54,1445.72 1535.57,1445.72 1536.6,1445.72 1537.63,1445.72 1538.66,1445.72 1539.69,1445.72 1540.72,1445.72 1541.75,1445.72 1542.78,1445.72 1543.81,1445.72 1544.84,1445.72 1545.87,1445.72 1546.89,1445.72 1547.92,1445.72 1548.95,1445.72 1549.98,1445.72 1551.01,1445.72 1552.04,1445.72 1553.07,1445.72 1554.1,1445.72 1555.13,1445.72 1556.16,1445.72 1557.19,1445.72 1558.22,1445.72 1559.24,1445.72 1560.27,1445.72 1561.3,1445.72 1562.33,1445.72 1563.36,1445.72 1564.39,1445.72 1565.42,1445.72 1566.45,1445.72 1567.48,1445.72 1568.51,1445.72 1569.54,1445.72 1570.57,1445.72 1571.6,1445.72 1572.62,1445.72 1573.65,1445.72 1574.68,1445.72 1575.71,1445.72 1576.74,1445.72 1577.77,1445.72 1578.8,1445.72 1579.83,1445.72 1580.86,1445.72 1581.89,1445.72 1582.92,1445.72 1583.95,1445.72 1584.97,1445.72 1586,1445.72 1587.03,1445.72 1588.06,1445.72 1589.09,1445.72 1590.12,1445.72 1591.15,1445.72 1592.18,1445.72 1593.21,1445.72 1594.24,1445.72 1595.27,1445.72 1596.3,1445.72 1597.33,1445.72 1598.35,1445.72 1599.38,1445.72 1600.41,1445.72 1601.44,1445.72 1602.47,1445.72 1603.5,1445.72 1604.53,1445.72 1605.56,1445.72 1606.59,1445.72 1607.62,1445.72 1608.65,1445.72 1609.68,1445.72 1610.7,1445.72 1611.73,1445.72 1612.76,1445.72 1613.79,1445.72 1614.82,1445.72 1615.85,1445.72 1616.88,1445.72 1617.91,1445.72 1618.94,1445.72 1619.97,1445.72 1621,1445.72 1622.03,1445.72 1623.05,1445.72 1624.08,1445.72 1625.11,1445.72 1626.14,1445.72 1627.17,1445.72 1628.2,1445.72 1629.23,1445.72 1630.26,1445.72 1631.29,1445.72 1632.32,1445.72 1633.35,1445.72 1634.38,1445.72 1635.41,1445.72 1636.43,1445.72 1637.46,1445.72 1638.49,1445.72 1639.52,1445.72 1640.55,1445.72 1641.58,1445.72 1642.61,1445.72 1643.64,1445.72 1644.67,1445.72 1645.7,1445.72 1646.73,1445.72 1647.76,1445.72 1648.78,1445.72 1649.81,1445.72 1650.84,1445.72 1651.87,1445.72 1652.9,1445.72 1653.93,1445.72 1654.96,1445.72 1655.99,1445.72 1657.02,1445.72 1658.05,1445.72 1659.08,1445.72 1660.11,1445.72 1661.14,1445.72 1662.16,1445.72 1663.19,1445.72 1664.22,1445.72 1665.25,1445.72 1666.28,1445.72 1667.31,1445.72 1668.34,1445.72 1669.37,1445.72 1670.4,1445.72 1671.43,1445.72 1672.46,1445.72 1673.49,1445.72 1674.51,1445.72 1675.54,1445.72 1676.57,1445.72 1677.6,1445.72 1678.63,1445.72 1679.66,1445.72 1680.69,1445.72 1681.72,1445.72 1682.75,1445.72 1683.78,1445.72 1684.81,1445.72 1685.84,1445.72 1686.87,1445.72 1687.89,1445.72 1688.92,1445.72 1689.95,1445.72 1690.98,1445.72 1692.01,1445.72 1693.04,1445.72 1694.07,1445.72 1695.1,1445.72 1696.13,1445.72 1697.16,1445.72 1698.19,1445.72 1699.22,1445.72 1700.24,1445.72 1701.27,1445.72 1702.3,1445.72 1703.33,1445.72 1704.36,1445.72 1705.39,1445.72 1706.42,1445.72 1707.45,1445.72 1708.48,1445.72 1709.51,1445.72 1710.54,1445.72 1711.57,1445.72 1712.6,1445.72 1713.62,1445.72 1714.65,1445.72 1715.68,1445.72 1716.71,1445.72 1717.74,1445.72 1718.77,1445.72 1719.8,1445.72 1720.83,1445.72 1721.86,1445.72 1722.89,1445.72 1723.92,1445.72 1724.95,1445.72 1725.97,1445.72 1727,1445.72 1728.03,1445.72 1729.06,1445.72 1730.09,1445.72 1731.12,1445.72 1732.15,1445.72 1733.18,1445.72 1734.21,1445.72 1735.24,1445.72 1736.27,1445.72 1737.3,1445.72 1738.33,1445.72 1739.35,1445.72 1740.38,1445.72 1741.41,1445.72 1742.44,1445.72 1743.47,1445.72 1744.5,1445.72 1745.53,1445.72 1746.56,1445.72 1747.59,1445.72 1748.62,1445.72 1749.65,1445.72 1750.68,1445.72 1751.7,1445.72 1752.73,1445.72 1753.76,1445.72 1754.79,1445.72 1755.82,1445.72 1756.85,1445.72 1757.88,1445.72 1758.91,1445.72 1759.94,1445.72 1760.97,1445.72 1762,1445.72 1763.03,1445.72 1764.05,1445.72 1765.08,1445.72 1766.11,1445.72 1767.14,1445.72 1768.17,1445.72 1769.2,1445.72 1770.23,1445.72 1771.26,1445.72 1772.29,1445.72 1773.32,1445.72 1774.35,1445.72 1775.38,1445.72 1776.41,1445.72 1777.43,1445.72 1778.46,1445.72 1779.49,1445.72 1780.52,1445.72 1781.55,1445.72 1782.58,1445.72 1783.61,1445.72 1784.64,1445.72 1785.67,1445.72 1786.7,1445.72 1787.73,1445.72 1788.76,1445.72 1789.78,1445.72 1790.81,1445.72 1791.84,1445.72 1792.87,1445.72 1793.9,1445.72 1794.93,1445.72 1795.96,1445.72 1796.99,1445.72 1798.02,1445.72 1799.05,1445.72 1800.08,1445.72 1801.11,1445.72 1802.14,1445.72 1803.16,1445.72 1804.19,1445.72 1805.22,1445.72 1806.25,1445.72 1807.28,1445.72 1808.31,1445.72 1809.34,1445.72 1810.37,1445.72 1811.4,1445.72 1812.43,1445.72 1813.46,1445.72 1814.49,1445.72 1815.51,1445.72 1816.54,1445.72 1817.57,1445.72 1818.6,1445.72 1819.63,1445.72 1820.66,1445.72 1821.69,1445.72 1822.72,1445.72 1823.75,1445.72 1824.78,1445.72 1825.81,1445.72 1826.84,1445.72 1827.87,1445.72 1828.89,1445.72 1829.92,1445.72 1830.95,1445.72 1831.98,1445.72 1833.01,1445.72 1834.04,1445.72 1835.07,1445.72 1836.1,1445.72 1837.13,1445.72 1838.16,1445.72 1839.19,1445.72 1840.22,1445.72 1841.24,1445.72 1842.27,1445.72 1843.3,1445.72 1844.33,1445.72 1845.36,1445.72 1846.39,1445.72 1847.42,1445.72 1848.45,1445.72 1849.48,1445.72 1850.51,1445.72 1851.54,1445.72 1852.57,1445.72 1853.6,1445.72 1854.62,1445.72 1855.65,1445.72 1856.68,1445.72 1857.71,1445.72 1858.74,1445.72 1859.77,1445.72 1860.8,1445.72 1861.83,1445.72 1862.86,1445.72 1863.89,1445.72 1864.92,1445.72 1865.95,1445.72 1866.97,1445.72 1868,1445.72 1869.03,1445.72 1870.06,1445.72 1871.09,1445.72 1872.12,1445.72 1873.15,1445.72 1874.18,1445.72 1875.21,1445.72 1876.24,1445.72 1877.27,1445.72 1878.3,1445.72 1879.33,1445.72 1880.35,1445.72 1881.38,1445.72 1882.41,1445.72 1883.44,1445.72 1884.47,1445.72 1885.5,1445.72 1886.53,1445.72 1887.56,1445.72 1888.59,1445.72 1889.62,1445.72 1890.65,1445.72 1891.68,1445.72 1892.7,1445.72 1893.73,1445.72 1894.76,1445.72 1895.79,1445.72 1896.82,1445.72 1897.85,1445.72 1898.88,1445.72 1899.91,1445.72 1900.94,1445.72 1901.97,1445.72 1903,1445.72 1904.03,1445.72 1905.06,1445.72 1906.08,1445.72 1907.11,1445.72 1908.14,1445.72 1909.17,1445.72 1910.2,1445.72 1911.23,1445.72 1912.26,1445.72 1913.29,1445.72 1914.32,1445.72 1915.35,1445.72 1916.38,1445.72 1917.41,1445.72 1918.43,1445.72 1919.46,1445.72 1920.49,1445.72 1921.52,1445.72 1922.55,1445.72 1923.58,1445.72 1924.61,1445.72 1925.64,1445.72 1926.67,1445.72 1927.7,1445.72 1928.73,1445.72 1929.76,1445.72 1930.78,1445.72 1931.81,1445.72 1932.84,1445.72 1933.87,1445.72 1934.9,1445.72 1935.93,1445.72 1936.96,1445.72 1937.99,1445.72 1939.02,1445.72 1940.05,1445.72 1941.08,1445.72 1942.11,1445.72 1943.14,1445.72 1944.16,1445.72 1945.19,1445.72 1946.22,1445.72 1947.25,1445.72 1948.28,1445.72 1949.31,1445.72 1950.34,1445.72 1951.37,1445.72 1952.4,1445.72 1953.43,1445.72 1954.46,1445.72 1955.49,1445.72 1956.51,1445.72 1957.54,1445.72 1958.57,1445.72 1959.6,1445.72 1960.63,1445.72 1961.66,1445.72 1962.69,1445.72 1963.72,1445.72 1964.75,1445.72 1965.78,1445.72 1966.81,1445.72 1967.84,1445.72 1968.87,1445.72 1969.89,1445.72 1970.92,1445.72 1971.95,1445.72 1972.98,1445.72 1974.01,1445.72 1975.04,1445.72 1976.07,1445.72 1977.1,1445.72 1978.13,1445.72 1979.16,1445.72 1980.19,1445.72 1981.22,1445.72 1982.24,1445.72 1983.27,1445.72 1984.3,1445.72 1985.33,1445.72 1986.36,1445.72 1987.39,1445.72 1988.42,1445.72 1989.45,1445.72 1990.48,1445.72 1991.51,1445.72 1992.54,1445.72 1993.57,1445.72 1994.6,1445.72 1995.62,1445.72 1996.65,1445.72 1997.68,1445.72 1998.71,1445.72 1999.74,1445.72 2000.77,1445.72 2001.8,1445.72 2002.83,1445.72 2003.86,1445.72 2004.89,1445.72 2005.92,1445.72 2006.95,1445.72 2007.97,1445.72 2009,1445.72 2010.03,1445.72 2011.06,1445.72 2012.09,1445.72 2013.12,1445.72 2014.15,1445.72 2015.18,1445.72 2016.21,1445.72 2017.24,1445.72 2018.27,1445.72 2019.3,1445.72 2020.33,1445.72 2021.35,1445.72 2022.38,1445.72 2023.41,1445.72 2024.44,1445.72 2025.47,1445.72 2026.5,1445.72 2027.53,1445.72 2028.56,1445.72 2029.59,1445.72 2030.62,1445.72 2031.65,1445.72 2032.68,1445.72 2033.7,1445.72 2034.73,1445.72 2035.76,1445.72 2036.79,1445.72 2037.82,1445.72 2038.85,1445.72 2039.88,1445.72 2040.91,1445.72 2041.94,1445.72 2042.97,1445.72 2044,1445.72 2045.03,1445.72 2046.06,1445.72 2047.08,1445.72 2048.11,1445.72 2049.14,1445.72 2050.17,1445.72 2051.2,1445.72 2052.23,1445.72 2053.26,1445.72 2054.29,1445.72 2055.32,1445.72 2056.35,1445.72 2057.38,1445.72 2058.41,1445.72 2059.43,1445.72 2060.46,1445.72 2061.49,1445.72 2062.52,1445.72 2063.55,1445.72 2064.58,1445.72 2065.61,1445.72 2066.64,1445.72 2067.67,1445.72 2068.7,1445.72 2069.73,1445.72 2070.76,1445.72 2071.79,1445.72 2072.81,1445.72 2073.84,1445.72 2074.87,1445.72 2075.9,1445.72 2076.93,1445.72 2077.96,1445.72 2078.99,1445.72 2080.02,1445.72 2081.05,1445.72 2082.08,1445.72 2083.11,1445.72 2084.14,1445.72 2085.16,1445.72 2086.19,1445.72 2087.22,1445.72 2088.25,1445.72 2089.28,1445.72 2090.31,1445.72 2091.34,1445.72 2092.37,1445.72 2093.4,1445.72 2094.43,1445.72 2095.46,1445.72 2096.49,1445.72 2097.51,1445.72 2098.54,1445.72 2099.57,1445.72 2100.6,1445.72 2101.63,1445.72 2102.66,1445.72 2103.69,1445.72 2104.72,1445.72 2105.75,1445.72 2106.78,1445.72 2107.81,1445.72 2108.84,1445.72 2109.87,1445.72 2110.89,1445.72 2111.92,1445.72 2112.95,1445.72 2113.98,1445.72 2115.01,1445.72 2116.04,1445.72 2117.07,1445.72 2118.1,1445.72 2119.13,1445.72 2120.16,1445.72 2121.19,1445.72 2122.22,1445.72 2123.24,1445.72 2124.27,1445.72 2125.3,1445.72 2126.33,1445.72 2127.36,1445.72 2128.39,1445.72 2129.42,1445.72 2130.45,1445.72 2131.48,1445.72 2132.51,1445.72 2133.54,1445.72 2134.57,1445.72 2135.6,1445.72 2136.62,1445.72 2137.65,1445.72 2138.68,1445.72 2139.71,1445.72 2140.74,1445.72 2141.77,1445.72 2142.8,1445.72 2143.83,1445.72 2144.86,1445.72 2145.89,1445.72 2146.92,1445.72 2147.95,1445.72 2148.97,1445.72 2150,1445.72 2151.03,1445.72 2152.06,1445.72 2153.09,1445.72 2154.12,1445.72 2155.15,1445.72 2156.18,1445.72 2157.21,1445.72 2158.24,1445.72 2159.27,1445.72 2160.3,1445.72 2161.33,1445.72 2162.35,1445.72 2163.38,1445.72 2164.41,1445.72 2165.44,1445.72 2166.47,1445.72 2167.5,1445.72 2168.53,1445.72 2169.56,1445.72 2170.59,1445.72 2171.62,1445.72 2172.65,1445.72 2173.68,1445.72 2174.7,1445.72 2175.73,1445.72 2176.76,1445.72 2177.79,1445.72 2178.82,1445.72 2179.85,1445.72 2180.88,1445.72 2181.91,1445.72 2182.94,1445.72 2183.97,1445.72 2185,1445.72 2186.03,1445.72 2187.06,1445.72 2188.08,1445.72 2189.11,1445.72 2190.14,1445.72 2191.17,1445.72 2192.2,1445.72 2193.23,1445.72 2194.26,1445.72 2195.29,1445.72 2196.32,1445.72 2197.35,1445.72 2198.38,1445.72 2199.41,1445.72 2200.43,1445.72 2201.46,1445.72 2202.49,1445.72 2203.52,1445.72 2204.55,1445.72 2205.58,1445.72 2206.61,1445.72 2207.64,1445.72 2208.67,1445.72 2209.7,1445.72 2210.73,1445.72 2211.76,1445.72 2212.79,1445.72 2213.81,1445.72 2214.84,1445.72 2215.87,1445.72 2216.9,1445.72 2217.93,1445.72 2218.96,1445.72 2219.99,1445.72 2221.02,1445.72 2222.05,1445.72 2223.08,1445.72 2224.11,1445.72 2225.14,1445.72 2226.16,1445.72 2227.19,1445.72 2228.22,1445.72 2229.25,1445.72 2230.28,1445.72 2231.31,1445.72 2232.34,1445.72 2233.37,1445.72 2234.4,1445.72 2235.43,1445.72 2236.46,1445.72 2237.49,1445.72 2238.51,1445.72 2239.54,1445.72 2240.57,1445.72 2241.6,1445.72 2242.63,1445.72 2243.66,1445.72 2244.69,1445.72 2245.72,1445.72 2246.75,1445.72 2247.78,1445.72 2248.81,1445.72 2249.84,1445.72 2250.87,1445.72 2251.89,1445.72 2252.92,1445.72 2253.95,1445.72 2254.98,1445.72 2256.01,1445.72 2257.04,1445.72 2258.07,1445.72 2259.1,1445.72 2260.13,1445.72 2261.16,1445.72 2262.19,1445.72 2263.22,1445.72 2264.24,1445.72 2265.27,1445.72 2266.3,1445.72 2267.33,1445.72 2268.36,1445.72 2269.39,1445.72 2270.42,1445.72 2271.45,1445.72 2272.48,1445.72 2273.51,1445.72 2274.54,1445.72 2275.57,1445.72 2276.6,1445.72 2277.62,1445.72 2278.65,1445.72 2279.68,1445.72 2280.71,1445.72 2281.74,1445.72 2282.77,1445.72 2283.8,1445.72 2284.83,1445.72 2285.86,1445.72 2286.89,1445.72 2287.92,1445.72 2288.95,1445.72 2289.97,1445.72 2291,1445.72 "/>
<path clip-path="url(#clip460)" d="M2009.41 198.898 L2280.03 198.898 L2280.03 95.2176 L2009.41 95.2176  Z" fill="#ffffff" fill-rule="evenodd" fill-opacity="1"/>
<polyline clip-path="url(#clip460)" style="stroke:#000000; stroke-linecap:round; stroke-linejoin:round; stroke-width:4; stroke-opacity:1; fill:none" points="2009.41,198.898 2280.03,198.898 2280.03,95.2176 2009.41,95.2176 2009.41,198.898 "/>
<polyline clip-path="url(#clip460)" style="stroke:#009af9; stroke-linecap:round; stroke-linejoin:round; stroke-width:4; stroke-opacity:1; fill:none" points="2033.65,147.058 2179.11,147.058 "/>
<path clip-path="url(#clip460)" d="M2217.19 166.745 Q2215.39 171.375 2213.68 172.787 Q2211.96 174.199 2209.09 174.199 L2205.69 174.199 L2205.69 170.634 L2208.19 170.634 Q2209.95 170.634 2210.92 169.8 Q2211.89 168.967 2213.07 165.865 L2213.84 163.921 L2203.35 138.412 L2207.87 138.412 L2215.97 158.689 L2224.07 138.412 L2228.58 138.412 L2217.19 166.745 Z" fill="#000000" fill-rule="nonzero" fill-opacity="1" /><path clip-path="url(#clip460)" d="M2235.88 160.402 L2243.51 160.402 L2243.51 134.037 L2235.2 135.703 L2235.2 131.444 L2243.47 129.778 L2248.14 129.778 L2248.14 160.402 L2255.78 160.402 L2255.78 164.338 L2235.88 164.338 L2235.88 160.402 Z" fill="#000000" fill-rule="nonzero" fill-opacity="1" /></svg>
