<?xml version="1.0" encoding="utf-8"?>
<svg xmlns="http://www.w3.org/2000/svg" xmlns:xlink="http://www.w3.org/1999/xlink" width="600" height="400" viewBox="0 0 2400 1600">
<defs>
  <clipPath id="clip630">
    <rect x="0" y="0" width="2400" height="1600"/>
  </clipPath>
</defs>
<path clip-path="url(#clip630)" d="M0 1600 L2400 1600 L2400 0 L0 0  Z" fill="#ffffff" fill-rule="evenodd" fill-opacity="1"/>
<defs>
  <clipPath id="clip631">
    <rect x="480" y="0" width="1681" height="1600"/>
  </clipPath>
</defs>
<path clip-path="url(#clip630)" d="M156.02 1486.45 L2352.76 1486.45 L2352.76 47.2441 L156.02 47.2441  Z" fill="#ffffff" fill-rule="evenodd" fill-opacity="1"/>
<defs>
  <clipPath id="clip632">
    <rect x="156" y="47" width="2198" height="1440"/>
  </clipPath>
</defs>
<polyline clip-path="url(#clip632)" style="stroke:#000000; stroke-linecap:round; stroke-linejoin:round; stroke-width:2; stroke-opacity:0.1; fill:none" points="218.191,1486.45 218.191,47.2441 "/>
<polyline clip-path="url(#clip632)" style="stroke:#000000; stroke-linecap:round; stroke-linejoin:round; stroke-width:2; stroke-opacity:0.1; fill:none" points="736.808,1486.45 736.808,47.2441 "/>
<polyline clip-path="url(#clip632)" style="stroke:#000000; stroke-linecap:round; stroke-linejoin:round; stroke-width:2; stroke-opacity:0.1; fill:none" points="1255.42,1486.45 1255.42,47.2441 "/>
<polyline clip-path="url(#clip632)" style="stroke:#000000; stroke-linecap:round; stroke-linejoin:round; stroke-width:2; stroke-opacity:0.1; fill:none" points="1774.04,1486.45 1774.04,47.2441 "/>
<polyline clip-path="url(#clip632)" style="stroke:#000000; stroke-linecap:round; stroke-linejoin:round; stroke-width:2; stroke-opacity:0.1; fill:none" points="2292.66,1486.45 2292.66,47.2441 "/>
<polyline clip-path="url(#clip630)" style="stroke:#000000; stroke-linecap:round; stroke-linejoin:round; stroke-width:4; stroke-opacity:1; fill:none" points="156.02,1486.45 2352.76,1486.45 "/>
<polyline clip-path="url(#clip630)" style="stroke:#000000; stroke-linecap:round; stroke-linejoin:round; stroke-width:4; stroke-opacity:1; fill:none" points="218.191,1486.45 218.191,1467.55 "/>
<polyline clip-path="url(#clip630)" style="stroke:#000000; stroke-linecap:round; stroke-linejoin:round; stroke-width:4; stroke-opacity:1; fill:none" points="736.808,1486.45 736.808,1467.55 "/>
<polyline clip-path="url(#clip630)" style="stroke:#000000; stroke-linecap:round; stroke-linejoin:round; stroke-width:4; stroke-opacity:1; fill:none" points="1255.42,1486.45 1255.42,1467.55 "/>
<polyline clip-path="url(#clip630)" style="stroke:#000000; stroke-linecap:round; stroke-linejoin:round; stroke-width:4; stroke-opacity:1; fill:none" points="1774.04,1486.45 1774.04,1467.55 "/>
<polyline clip-path="url(#clip630)" style="stroke:#000000; stroke-linecap:round; stroke-linejoin:round; stroke-width:4; stroke-opacity:1; fill:none" points="2292.66,1486.45 2292.66,1467.55 "/>
<path clip-path="url(#clip630)" d="M218.191 1517.37 Q214.58 1517.37 212.752 1520.93 Q210.946 1524.47 210.946 1531.6 Q210.946 1538.71 212.752 1542.27 Q214.58 1545.82 218.191 1545.82 Q221.826 1545.82 223.631 1542.27 Q225.46 1538.71 225.46 1531.6 Q225.46 1524.47 223.631 1520.93 Q221.826 1517.37 218.191 1517.37 M218.191 1513.66 Q224.001 1513.66 227.057 1518.27 Q230.136 1522.85 230.136 1531.6 Q230.136 1540.33 227.057 1544.94 Q224.001 1549.52 218.191 1549.52 Q212.381 1549.52 209.302 1544.94 Q206.247 1540.33 206.247 1531.6 Q206.247 1522.85 209.302 1518.27 Q212.381 1513.66 218.191 1513.66 Z" fill="#000000" fill-rule="nonzero" fill-opacity="1" /><path clip-path="url(#clip630)" d="M700.5 1544.91 L716.82 1544.91 L716.82 1548.85 L694.875 1548.85 L694.875 1544.91 Q697.538 1542.16 702.121 1537.53 Q706.727 1532.88 707.908 1531.53 Q710.153 1529.01 711.033 1527.27 Q711.936 1525.51 711.936 1523.82 Q711.936 1521.07 709.991 1519.33 Q708.07 1517.6 704.968 1517.6 Q702.769 1517.6 700.315 1518.36 Q697.885 1519.13 695.107 1520.68 L695.107 1515.95 Q697.931 1514.82 700.385 1514.24 Q702.838 1513.66 704.875 1513.66 Q710.246 1513.66 713.44 1516.35 Q716.635 1519.03 716.635 1523.52 Q716.635 1525.65 715.824 1527.57 Q715.037 1529.47 712.931 1532.07 Q712.352 1532.74 709.25 1535.95 Q706.149 1539.15 700.5 1544.91 Z" fill="#000000" fill-rule="nonzero" fill-opacity="1" /><path clip-path="url(#clip630)" d="M726.681 1514.29 L745.037 1514.29 L745.037 1518.22 L730.963 1518.22 L730.963 1526.7 Q731.982 1526.35 733 1526.19 Q734.019 1526 735.037 1526 Q740.824 1526 744.204 1529.17 Q747.584 1532.34 747.584 1537.76 Q747.584 1543.34 744.111 1546.44 Q740.639 1549.52 734.32 1549.52 Q732.144 1549.52 729.875 1549.15 Q727.63 1548.78 725.223 1548.04 L725.223 1543.34 Q727.306 1544.47 729.528 1545.03 Q731.75 1545.58 734.227 1545.58 Q738.232 1545.58 740.57 1543.48 Q742.908 1541.37 742.908 1537.76 Q742.908 1534.15 740.57 1532.04 Q738.232 1529.94 734.227 1529.94 Q732.352 1529.94 730.477 1530.35 Q728.625 1530.77 726.681 1531.65 L726.681 1514.29 Z" fill="#000000" fill-rule="nonzero" fill-opacity="1" /><path clip-path="url(#clip630)" d="M766.796 1517.37 Q763.185 1517.37 761.357 1520.93 Q759.551 1524.47 759.551 1531.6 Q759.551 1538.71 761.357 1542.27 Q763.185 1545.82 766.796 1545.82 Q770.431 1545.82 772.236 1542.27 Q774.065 1538.71 774.065 1531.6 Q774.065 1524.47 772.236 1520.93 Q770.431 1517.37 766.796 1517.37 M766.796 1513.66 Q772.607 1513.66 775.662 1518.27 Q778.741 1522.85 778.741 1531.6 Q778.741 1540.33 775.662 1544.94 Q772.607 1549.52 766.796 1549.52 Q760.986 1549.52 757.908 1544.94 Q754.852 1540.33 754.852 1531.6 Q754.852 1522.85 757.908 1518.27 Q760.986 1513.66 766.796 1513.66 Z" fill="#000000" fill-rule="nonzero" fill-opacity="1" /><path clip-path="url(#clip630)" d="M1215.04 1514.29 L1233.4 1514.29 L1233.4 1518.22 L1219.33 1518.22 L1219.33 1526.7 Q1220.34 1526.35 1221.36 1526.19 Q1222.38 1526 1223.4 1526 Q1229.19 1526 1232.57 1529.17 Q1235.95 1532.34 1235.95 1537.76 Q1235.95 1543.34 1232.47 1546.44 Q1229 1549.52 1222.68 1549.52 Q1220.51 1549.52 1218.24 1549.15 Q1215.99 1548.78 1213.58 1548.04 L1213.58 1543.34 Q1215.67 1544.47 1217.89 1545.03 Q1220.11 1545.58 1222.59 1545.58 Q1226.59 1545.58 1228.93 1543.48 Q1231.27 1541.37 1231.27 1537.76 Q1231.27 1534.15 1228.93 1532.04 Q1226.59 1529.94 1222.59 1529.94 Q1220.71 1529.94 1218.84 1530.35 Q1216.99 1530.77 1215.04 1531.65 L1215.04 1514.29 Z" fill="#000000" fill-rule="nonzero" fill-opacity="1" /><path clip-path="url(#clip630)" d="M1255.16 1517.37 Q1251.55 1517.37 1249.72 1520.93 Q1247.91 1524.47 1247.91 1531.6 Q1247.91 1538.71 1249.72 1542.27 Q1251.55 1545.82 1255.16 1545.82 Q1258.79 1545.82 1260.6 1542.27 Q1262.43 1538.71 1262.43 1531.6 Q1262.43 1524.47 1260.6 1520.93 Q1258.79 1517.37 1255.16 1517.37 M1255.16 1513.66 Q1260.97 1513.66 1264.02 1518.27 Q1267.1 1522.85 1267.1 1531.6 Q1267.1 1540.33 1264.02 1544.94 Q1260.97 1549.52 1255.16 1549.52 Q1249.35 1549.52 1246.27 1544.94 Q1243.21 1540.33 1243.21 1531.6 Q1243.21 1522.85 1246.27 1518.27 Q1249.35 1513.66 1255.16 1513.66 Z" fill="#000000" fill-rule="nonzero" fill-opacity="1" /><path clip-path="url(#clip630)" d="M1285.32 1517.37 Q1281.71 1517.37 1279.88 1520.93 Q1278.08 1524.47 1278.08 1531.6 Q1278.08 1538.71 1279.88 1542.27 Q1281.71 1545.82 1285.32 1545.82 Q1288.95 1545.82 1290.76 1542.27 Q1292.59 1538.71 1292.59 1531.6 Q1292.59 1524.47 1290.76 1520.93 Q1288.95 1517.37 1285.32 1517.37 M1285.32 1513.66 Q1291.13 1513.66 1294.19 1518.27 Q1297.27 1522.85 1297.27 1531.6 Q1297.27 1540.33 1294.19 1544.94 Q1291.13 1549.52 1285.32 1549.52 Q1279.51 1549.52 1276.43 1544.94 Q1273.38 1540.33 1273.38 1531.6 Q1273.38 1522.85 1276.43 1518.27 Q1279.51 1513.66 1285.32 1513.66 Z" fill="#000000" fill-rule="nonzero" fill-opacity="1" /><path clip-path="url(#clip630)" d="M1732.32 1514.29 L1754.54 1514.29 L1754.54 1516.28 L1741.99 1548.85 L1737.11 1548.85 L1748.91 1518.22 L1732.32 1518.22 L1732.32 1514.29 Z" fill="#000000" fill-rule="nonzero" fill-opacity="1" /><path clip-path="url(#clip630)" d="M1763.71 1514.29 L1782.06 1514.29 L1782.06 1518.22 L1767.99 1518.22 L1767.99 1526.7 Q1769.01 1526.35 1770.03 1526.19 Q1771.04 1526 1772.06 1526 Q1777.85 1526 1781.23 1529.17 Q1784.61 1532.34 1784.61 1537.76 Q1784.61 1543.34 1781.14 1546.44 Q1777.66 1549.52 1771.35 1549.52 Q1769.17 1549.52 1766.9 1549.15 Q1764.66 1548.78 1762.25 1548.04 L1762.25 1543.34 Q1764.33 1544.47 1766.55 1545.03 Q1768.78 1545.58 1771.25 1545.58 Q1775.26 1545.58 1777.59 1543.48 Q1779.93 1541.37 1779.93 1537.76 Q1779.93 1534.15 1777.59 1532.04 Q1775.26 1529.94 1771.25 1529.94 Q1769.38 1529.94 1767.5 1530.35 Q1765.65 1530.77 1763.71 1531.65 L1763.71 1514.29 Z" fill="#000000" fill-rule="nonzero" fill-opacity="1" /><path clip-path="url(#clip630)" d="M1803.82 1517.37 Q1800.21 1517.37 1798.38 1520.93 Q1796.58 1524.47 1796.58 1531.6 Q1796.58 1538.71 1798.38 1542.27 Q1800.21 1545.82 1803.82 1545.82 Q1807.46 1545.82 1809.26 1542.27 Q1811.09 1538.71 1811.09 1531.6 Q1811.09 1524.47 1809.26 1520.93 Q1807.46 1517.37 1803.82 1517.37 M1803.82 1513.66 Q1809.63 1513.66 1812.69 1518.27 Q1815.77 1522.85 1815.77 1531.6 Q1815.77 1540.33 1812.69 1544.94 Q1809.63 1549.52 1803.82 1549.52 Q1798.01 1549.52 1794.93 1544.94 Q1791.88 1540.33 1791.88 1531.6 Q1791.88 1522.85 1794.93 1518.27 Q1798.01 1513.66 1803.82 1513.66 Z" fill="#000000" fill-rule="nonzero" fill-opacity="1" /><path clip-path="url(#clip630)" d="M2237.18 1544.91 L2244.82 1544.91 L2244.82 1518.55 L2236.51 1520.21 L2236.51 1515.95 L2244.78 1514.29 L2249.45 1514.29 L2249.45 1544.91 L2257.09 1544.91 L2257.09 1548.85 L2237.18 1548.85 L2237.18 1544.91 Z" fill="#000000" fill-rule="nonzero" fill-opacity="1" /><path clip-path="url(#clip630)" d="M2276.54 1517.37 Q2272.92 1517.37 2271.1 1520.93 Q2269.29 1524.47 2269.29 1531.6 Q2269.29 1538.71 2271.1 1542.27 Q2272.92 1545.82 2276.54 1545.82 Q2280.17 1545.82 2281.98 1542.27 Q2283.8 1538.71 2283.8 1531.6 Q2283.8 1524.47 2281.98 1520.93 Q2280.17 1517.37 2276.54 1517.37 M2276.54 1513.66 Q2282.35 1513.66 2285.4 1518.27 Q2288.48 1522.85 2288.48 1531.6 Q2288.48 1540.33 2285.4 1544.94 Q2282.35 1549.52 2276.54 1549.52 Q2270.73 1549.52 2267.65 1544.94 Q2264.59 1540.33 2264.59 1531.6 Q2264.59 1522.85 2267.65 1518.27 Q2270.73 1513.66 2276.54 1513.66 Z" fill="#000000" fill-rule="nonzero" fill-opacity="1" /><path clip-path="url(#clip630)" d="M2306.7 1517.37 Q2303.09 1517.37 2301.26 1520.93 Q2299.45 1524.47 2299.45 1531.6 Q2299.45 1538.71 2301.26 1542.27 Q2303.09 1545.82 2306.7 1545.82 Q2310.33 1545.82 2312.14 1542.27 Q2313.97 1538.71 2313.97 1531.6 Q2313.97 1524.47 2312.14 1520.93 Q2310.33 1517.37 2306.7 1517.37 M2306.7 1513.66 Q2312.51 1513.66 2315.56 1518.27 Q2318.64 1522.85 2318.64 1531.6 Q2318.64 1540.33 2315.56 1544.94 Q2312.51 1549.52 2306.7 1549.52 Q2300.89 1549.52 2297.81 1544.94 Q2294.75 1540.33 2294.75 1531.6 Q2294.75 1522.85 2297.81 1518.27 Q2300.89 1513.66 2306.7 1513.66 Z" fill="#000000" fill-rule="nonzero" fill-opacity="1" /><path clip-path="url(#clip630)" d="M2336.86 1517.37 Q2333.25 1517.37 2331.42 1520.93 Q2329.61 1524.47 2329.61 1531.6 Q2329.61 1538.71 2331.42 1542.27 Q2333.25 1545.82 2336.86 1545.82 Q2340.49 1545.82 2342.3 1542.27 Q2344.13 1538.71 2344.13 1531.6 Q2344.13 1524.47 2342.3 1520.93 Q2340.49 1517.37 2336.86 1517.37 M2336.86 1513.66 Q2342.67 1513.66 2345.73 1518.27 Q2348.8 1522.85 2348.8 1531.6 Q2348.8 1540.33 2345.73 1544.94 Q2342.67 1549.52 2336.86 1549.52 Q2331.05 1549.52 2327.97 1544.94 Q2324.92 1540.33 2324.92 1531.6 Q2324.92 1522.85 2327.97 1518.27 Q2331.05 1513.66 2336.86 1513.66 Z" fill="#000000" fill-rule="nonzero" fill-opacity="1" /><polyline clip-path="url(#clip632)" style="stroke:#000000; stroke-linecap:round; stroke-linejoin:round; stroke-width:2; stroke-opacity:0.1; fill:none" points="156.02,1341.27 2352.76,1341.27 "/>
<polyline clip-path="url(#clip632)" style="stroke:#000000; stroke-linecap:round; stroke-linejoin:round; stroke-width:2; stroke-opacity:0.1; fill:none" points="156.02,923.508 2352.76,923.508 "/>
<polyline clip-path="url(#clip632)" style="stroke:#000000; stroke-linecap:round; stroke-linejoin:round; stroke-width:2; stroke-opacity:0.1; fill:none" points="156.02,505.742 2352.76,505.742 "/>
<polyline clip-path="url(#clip632)" style="stroke:#000000; stroke-linecap:round; stroke-linejoin:round; stroke-width:2; stroke-opacity:0.1; fill:none" points="156.02,87.9763 2352.76,87.9763 "/>
<polyline clip-path="url(#clip630)" style="stroke:#000000; stroke-linecap:round; stroke-linejoin:round; stroke-width:4; stroke-opacity:1; fill:none" points="156.02,1486.45 156.02,47.2441 "/>
<polyline clip-path="url(#clip630)" style="stroke:#000000; stroke-linecap:round; stroke-linejoin:round; stroke-width:4; stroke-opacity:1; fill:none" points="156.02,1341.27 174.917,1341.27 "/>
<polyline clip-path="url(#clip630)" style="stroke:#000000; stroke-linecap:round; stroke-linejoin:round; stroke-width:4; stroke-opacity:1; fill:none" points="156.02,923.508 174.917,923.508 "/>
<polyline clip-path="url(#clip630)" style="stroke:#000000; stroke-linecap:round; stroke-linejoin:round; stroke-width:4; stroke-opacity:1; fill:none" points="156.02,505.742 174.917,505.742 "/>
<polyline clip-path="url(#clip630)" style="stroke:#000000; stroke-linecap:round; stroke-linejoin:round; stroke-width:4; stroke-opacity:1; fill:none" points="156.02,87.9763 174.917,87.9763 "/>
<path clip-path="url(#clip630)" d="M63.7467 1327.07 Q60.1356 1327.07 58.3069 1330.64 Q56.5014 1334.18 56.5014 1341.31 Q56.5014 1348.42 58.3069 1351.98 Q60.1356 1355.52 63.7467 1355.52 Q67.3809 1355.52 69.1865 1351.98 Q71.0152 1348.42 71.0152 1341.31 Q71.0152 1334.18 69.1865 1330.64 Q67.3809 1327.07 63.7467 1327.07 M63.7467 1323.37 Q69.5568 1323.37 72.6124 1327.98 Q75.6911 1332.56 75.6911 1341.31 Q75.6911 1350.04 72.6124 1354.64 Q69.5568 1359.23 63.7467 1359.23 Q57.9365 1359.23 54.8578 1354.64 Q51.8023 1350.04 51.8023 1341.31 Q51.8023 1332.56 54.8578 1327.98 Q57.9365 1323.37 63.7467 1323.37 Z" fill="#000000" fill-rule="nonzero" fill-opacity="1" /><path clip-path="url(#clip630)" d="M83.9086 1352.67 L88.7928 1352.67 L88.7928 1358.55 L83.9086 1358.55 L83.9086 1352.67 Z" fill="#000000" fill-rule="nonzero" fill-opacity="1" /><path clip-path="url(#clip630)" d="M97.7974 1323.99 L120.02 1323.99 L120.02 1325.98 L107.473 1358.55 L102.589 1358.55 L114.395 1327.93 L97.7974 1327.93 L97.7974 1323.99 Z" fill="#000000" fill-rule="nonzero" fill-opacity="1" /><path clip-path="url(#clip630)" d="M62.9365 909.307 Q59.3254 909.307 57.4967 912.872 Q55.6912 916.413 55.6912 923.543 Q55.6912 930.649 57.4967 934.214 Q59.3254 937.756 62.9365 937.756 Q66.5707 937.756 68.3763 934.214 Q70.205 930.649 70.205 923.543 Q70.205 916.413 68.3763 912.872 Q66.5707 909.307 62.9365 909.307 M62.9365 905.603 Q68.7467 905.603 71.8022 910.21 Q74.8809 914.793 74.8809 923.543 Q74.8809 932.27 71.8022 936.876 Q68.7467 941.46 62.9365 941.46 Q57.1264 941.46 54.0477 936.876 Q50.9921 932.27 50.9921 923.543 Q50.9921 914.793 54.0477 910.21 Q57.1264 905.603 62.9365 905.603 Z" fill="#000000" fill-rule="nonzero" fill-opacity="1" /><path clip-path="url(#clip630)" d="M83.0984 934.909 L87.9827 934.909 L87.9827 940.788 L83.0984 940.788 L83.0984 934.909 Z" fill="#000000" fill-rule="nonzero" fill-opacity="1" /><path clip-path="url(#clip630)" d="M108.168 924.376 Q104.834 924.376 102.913 926.159 Q101.015 927.941 101.015 931.066 Q101.015 934.191 102.913 935.973 Q104.834 937.756 108.168 937.756 Q111.501 937.756 113.422 935.973 Q115.344 934.168 115.344 931.066 Q115.344 927.941 113.422 926.159 Q111.524 924.376 108.168 924.376 M103.492 922.386 Q100.483 921.645 98.7928 919.585 Q97.1261 917.524 97.1261 914.562 Q97.1261 910.418 100.066 908.011 Q103.029 905.603 108.168 905.603 Q113.33 905.603 116.27 908.011 Q119.209 910.418 119.209 914.562 Q119.209 917.524 117.52 919.585 Q115.853 921.645 112.867 922.386 Q116.246 923.173 118.121 925.464 Q120.02 927.756 120.02 931.066 Q120.02 936.089 116.941 938.774 Q113.885 941.46 108.168 941.46 Q102.45 941.46 99.3715 938.774 Q96.316 936.089 96.316 931.066 Q96.316 927.756 98.2141 925.464 Q100.112 923.173 103.492 922.386 M101.779 915.001 Q101.779 917.686 103.446 919.191 Q105.135 920.696 108.168 920.696 Q111.177 920.696 112.867 919.191 Q114.58 917.686 114.58 915.001 Q114.58 912.316 112.867 910.812 Q111.177 909.307 108.168 909.307 Q105.135 909.307 103.446 910.812 Q101.779 912.316 101.779 915.001 Z" fill="#000000" fill-rule="nonzero" fill-opacity="1" /><path clip-path="url(#clip630)" d="M63.0291 491.541 Q59.418 491.541 57.5893 495.106 Q55.7838 498.647 55.7838 505.777 Q55.7838 512.883 57.5893 516.448 Q59.418 519.99 63.0291 519.99 Q66.6633 519.99 68.4689 516.448 Q70.2976 512.883 70.2976 505.777 Q70.2976 498.647 68.4689 495.106 Q66.6633 491.541 63.0291 491.541 M63.0291 487.837 Q68.8393 487.837 71.8948 492.444 Q74.9735 497.027 74.9735 505.777 Q74.9735 514.504 71.8948 519.11 Q68.8393 523.694 63.0291 523.694 Q57.2189 523.694 54.1403 519.11 Q51.0847 514.504 51.0847 505.777 Q51.0847 497.027 54.1403 492.444 Q57.2189 487.837 63.0291 487.837 Z" fill="#000000" fill-rule="nonzero" fill-opacity="1" /><path clip-path="url(#clip630)" d="M83.191 517.143 L88.0753 517.143 L88.0753 523.022 L83.191 523.022 L83.191 517.143 Z" fill="#000000" fill-rule="nonzero" fill-opacity="1" /><path clip-path="url(#clip630)" d="M98.3993 522.305 L98.3993 518.045 Q100.159 518.879 101.964 519.319 Q103.77 519.758 105.506 519.758 Q110.135 519.758 112.566 516.657 Q115.02 513.532 115.367 507.189 Q114.024 509.18 111.964 510.245 Q109.904 511.309 107.404 511.309 Q102.219 511.309 99.1863 508.184 Q96.1771 505.036 96.1771 499.596 Q96.1771 494.272 99.3252 491.055 Q102.473 487.837 107.705 487.837 Q113.7 487.837 116.848 492.444 Q120.02 497.027 120.02 505.777 Q120.02 513.948 116.131 518.832 Q112.265 523.694 105.714 523.694 Q103.955 523.694 102.149 523.346 Q100.344 522.999 98.3993 522.305 M107.705 507.652 Q110.853 507.652 112.682 505.499 Q114.533 503.346 114.533 499.596 Q114.533 495.87 112.682 493.717 Q110.853 491.541 107.705 491.541 Q104.557 491.541 102.705 493.717 Q100.876 495.87 100.876 499.596 Q100.876 503.346 102.705 505.499 Q104.557 507.652 107.705 507.652 Z" fill="#000000" fill-rule="nonzero" fill-opacity="1" /><path clip-path="url(#clip630)" d="M53.6541 101.321 L61.293 101.321 L61.293 74.9555 L52.9829 76.6222 L52.9829 72.3629 L61.2467 70.6963 L65.9226 70.6963 L65.9226 101.321 L73.5614 101.321 L73.5614 105.256 L53.6541 105.256 L53.6541 101.321 Z" fill="#000000" fill-rule="nonzero" fill-opacity="1" /><path clip-path="url(#clip630)" d="M83.0058 99.3767 L87.8901 99.3767 L87.8901 105.256 L83.0058 105.256 L83.0058 99.3767 Z" fill="#000000" fill-rule="nonzero" fill-opacity="1" /><path clip-path="url(#clip630)" d="M108.075 73.775 Q104.464 73.775 102.635 77.3398 Q100.83 80.8814 100.83 88.011 Q100.83 95.1174 102.635 98.6822 Q104.464 102.224 108.075 102.224 Q111.709 102.224 113.515 98.6822 Q115.344 95.1174 115.344 88.011 Q115.344 80.8814 113.515 77.3398 Q111.709 73.775 108.075 73.775 M108.075 70.0713 Q113.885 70.0713 116.941 74.6777 Q120.02 79.261 120.02 88.011 Q120.02 96.7378 116.941 101.344 Q113.885 105.928 108.075 105.928 Q102.265 105.928 99.1863 101.344 Q96.1308 96.7378 96.1308 88.011 Q96.1308 79.261 99.1863 74.6777 Q102.265 70.0713 108.075 70.0713 Z" fill="#000000" fill-rule="nonzero" fill-opacity="1" /><polyline clip-path="url(#clip632)" style="stroke:#009af9; stroke-linecap:round; stroke-linejoin:round; stroke-width:4; stroke-opacity:1; fill:none" points="218.191,1320.39 220.266,1445.72 222.34,923.508 224.415,777.29 226.489,505.742 228.564,380.412 230.638,443.077 232.713,422.189 234.787,422.189 236.862,359.524 238.936,443.077 241.01,443.077 243.085,380.412 245.159,568.407 247.234,631.072 249.308,631.072 251.383,777.29 253.457,547.519 255.532,923.508 257.606,839.955 259.681,714.625 261.755,944.397 263.83,756.402 265.904,651.96 267.979,610.184 270.053,610.184 272.127,589.295 274.202,589.295 276.276,568.407 278.351,463.966 280.425,422.189 282.5,484.854 284.574,505.742 286.649,735.514 288.723,651.96 290.798,693.737 292.872,651.96 294.947,568.407 297.021,610.184 299.096,547.519 301.17,443.077 303.244,568.407 305.319,568.407 307.393,380.412 309.468,296.859 311.542,338.636 313.617,380.412 315.691,275.971 317.766,317.748 319.84,484.854 321.915,401.301 323.989,505.742 326.064,422.189 328.138,338.636 330.213,443.077 332.287,317.748 334.361,255.083 336.436,422.189 338.51,380.412 340.585,338.636 342.659,359.524 344.734,275.971 346.808,317.748 348.883,422.189 350.957,296.859 353.032,317.748 355.106,317.748 357.181,338.636 359.255,317.748 361.33,317.748 363.404,401.301 365.478,463.966 367.553,401.301 369.627,484.854 371.702,255.083 373.776,463.966 375.851,213.306 377.925,359.524 380,359.524 382.074,275.971 384.149,505.742 386.223,192.418 388.298,317.748 390.372,484.854 392.447,359.524 394.521,317.748 396.596,380.412 398.67,317.748 400.744,275.971 402.819,317.748 404.893,505.742 406.968,255.083 409.042,275.971 411.117,338.636 413.191,338.636 415.266,296.859 417.34,338.636 419.415,317.748 421.489,296.859 423.564,234.194 425.638,192.418 427.713,255.083 429.787,275.971 431.861,171.529 433.936,171.529 436.01,234.194 438.085,213.306 440.159,255.083 442.234,275.971 444.308,317.748 446.383,359.524 448.457,443.077 450.532,275.971 452.606,296.859 454.681,213.306 456.755,275.971 458.83,380.412 460.904,213.306 462.978,275.971 465.053,192.418 467.127,359.524 469.202,359.524 471.276,463.966 473.351,255.083 475.425,275.971 477.5,171.529 479.574,380.412 481.649,150.641 483.723,275.971 485.798,275.971 487.872,255.083 489.947,213.306 492.021,275.971 494.095,234.194 496.17,192.418 498.244,255.083 500.319,255.083 502.393,234.194 504.468,255.083 506.542,255.083 508.617,234.194 510.691,150.641 512.766,192.418 514.84,255.083 516.915,317.748 518.989,317.748 521.064,213.306 523.138,171.529 525.212,213.306 527.287,255.083 529.361,150.641 531.436,234.194 533.51,296.859 535.585,234.194 537.659,401.301 539.734,317.748 541.808,234.194 543.883,255.083 545.957,255.083 548.032,192.418 550.106,213.306 552.181,213.306 554.255,234.194 556.329,234.194 558.404,359.524 560.478,275.971 562.553,359.524 564.627,234.194 566.702,234.194 568.776,129.753 570.851,234.194 572.925,275.971 575,255.083 577.074,255.083 579.149,171.529 581.223,338.636 583.298,255.083 585.372,192.418 587.446,213.306 589.521,192.418 591.595,129.753 593.67,171.529 595.744,108.865 597.819,192.418 599.893,213.306 601.968,171.529 604.042,213.306 606.117,150.641 608.191,150.641 610.266,108.865 612.34,171.529 614.415,129.753 616.489,192.418 618.564,171.529 620.638,108.865 622.712,87.9763 624.787,192.418 626.861,171.529 628.936,296.859 631.01,171.529 633.085,255.083 635.159,192.418 637.234,338.636 639.308,234.194 641.383,192.418 643.457,234.194 645.532,150.641 647.606,129.753 649.681,192.418 651.755,108.865 653.829,255.083 655.904,129.753 657.978,129.753 660.053,192.418 662.127,129.753 664.202,108.865 666.276,87.9763 668.351,213.306 670.425,150.641 672.5,150.641 674.574,150.641 676.649,108.865 678.723,108.865 680.798,150.641 682.872,108.865 684.946,129.753 687.021,108.865 689.095,150.641 691.17,108.865 693.244,108.865 695.319,108.865 697.393,108.865 699.468,150.641 701.542,87.9763 703.617,129.753 705.691,108.865 707.766,129.753 709.84,129.753 711.915,87.9763 713.989,150.641 716.063,87.9763 718.138,108.865 720.212,108.865 722.287,108.865 724.361,108.865 726.436,108.865 728.51,87.9763 730.585,108.865 732.659,129.753 734.734,171.529 736.808,87.9763 738.883,150.641 740.957,150.641 743.032,108.865 745.106,171.529 747.18,108.865 749.255,108.865 751.329,108.865 753.404,87.9763 755.478,129.753 757.553,129.753 759.627,129.753 761.702,129.753 763.776,150.641 765.851,108.865 767.925,108.865 770,171.529 772.074,150.641 774.149,87.9763 776.223,150.641 778.297,108.865 780.372,129.753 782.446,150.641 784.521,108.865 786.595,129.753 788.67,108.865 790.744,129.753 792.819,108.865 794.893,129.753 796.968,171.529 799.042,87.9763 801.117,87.9763 803.191,108.865 805.266,129.753 807.34,87.9763 809.414,129.753 811.489,108.865 813.563,129.753 815.638,108.865 817.712,108.865 819.787,150.641 821.861,129.753 823.936,129.753 826.01,129.753 828.085,129.753 830.159,150.641 832.234,129.753 834.308,129.753 836.383,108.865 838.457,150.641 840.531,129.753 842.606,108.865 844.68,129.753 846.755,150.641 848.829,129.753 850.904,108.865 852.978,108.865 855.053,129.753 857.127,108.865 859.202,192.418 861.276,87.9763 863.351,108.865 865.425,108.865 867.5,87.9763 869.574,129.753 871.649,108.865 873.723,129.753 875.797,129.753 877.872,150.641 879.946,150.641 882.021,108.865 884.095,129.753 886.17,150.641 888.244,87.9763 890.319,129.753 892.393,108.865 894.468,108.865 896.542,129.753 898.617,108.865 900.691,150.641 902.766,108.865 904.84,171.529 906.914,108.865 908.989,108.865 911.063,129.753 913.138,87.9763 915.212,108.865 917.287,108.865 919.361,108.865 921.436,87.9763 923.51,108.865 925.585,150.641 927.659,150.641 929.734,171.529 931.808,129.753 933.883,108.865 935.957,150.641 938.031,87.9763 940.106,108.865 942.18,108.865 944.255,87.9763 946.329,87.9763 948.404,87.9763 950.478,87.9763 952.553,129.753 954.627,129.753 956.702,108.865 958.776,87.9763 960.851,87.9763 962.925,108.865 965,87.9763 967.074,87.9763 969.148,87.9763 971.223,87.9763 973.297,129.753 975.372,129.753 977.446,108.865 979.521,87.9763 981.595,192.418 983.67,150.641 985.744,129.753 987.819,108.865 989.893,129.753 991.968,108.865 994.042,129.753 996.117,87.9763 998.191,108.865 1000.27,87.9763 1002.34,129.753 1004.41,129.753 1006.49,108.865 1008.56,108.865 1010.64,150.641 1012.71,129.753 1014.79,108.865 1016.86,108.865 1018.94,87.9763 1021.01,87.9763 1023.08,150.641 1025.16,108.865 1027.23,129.753 1029.31,150.641 1031.38,150.641 1033.46,108.865 1035.53,150.641 1037.61,87.9763 1039.68,87.9763 1041.75,129.753 1043.83,129.753 1045.9,129.753 1047.98,129.753 1050.05,129.753 1052.13,129.753 1054.2,129.753 1056.28,108.865 1058.35,108.865 1060.43,108.865 1062.5,108.865 1064.57,87.9763 1066.65,87.9763 1068.72,87.9763 1070.8,129.753 1072.87,108.865 1074.95,129.753 1077.02,87.9763 1079.1,87.9763 1081.17,87.9763 1083.24,87.9763 1085.32,87.9763 1087.39,108.865 1089.47,87.9763 1091.54,108.865 1093.62,129.753 1095.69,87.9763 1097.77,87.9763 1099.84,87.9763 1101.91,87.9763 1103.99,108.865 1106.06,129.753 1108.14,87.9763 1110.21,129.753 1112.29,129.753 1114.36,87.9763 1116.44,108.865 1118.51,87.9763 1120.58,87.9763 1122.66,87.9763 1124.73,108.865 1126.81,108.865 1128.88,108.865 1130.96,87.9763 1133.03,87.9763 1135.11,129.753 1137.18,87.9763 1139.25,87.9763 1141.33,108.865 1143.4,87.9763 1145.48,108.865 1147.55,108.865 1149.63,87.9763 1151.7,87.9763 1153.78,108.865 1155.85,108.865 1157.92,108.865 1160,87.9763 1162.07,108.865 1164.15,87.9763 1166.22,108.865 1168.3,108.865 1170.37,108.865 1172.45,87.9763 1174.52,108.865 1176.6,108.865 1178.67,87.9763 1180.74,87.9763 1182.82,108.865 1184.89,87.9763 1186.97,129.753 1189.04,87.9763 1191.12,87.9763 1193.19,87.9763 1195.27,108.865 1197.34,108.865 1199.41,87.9763 1201.49,171.529 1203.56,108.865 1205.64,108.865 1207.71,108.865 1209.79,129.753 1211.86,87.9763 1213.94,171.529 1216.01,108.865 1218.08,150.641 1220.16,129.753 1222.23,108.865 1224.31,108.865 1226.38,108.865 1228.46,108.865 1230.53,87.9763 1232.61,87.9763 1234.68,150.641 1236.75,108.865 1238.83,108.865 1240.9,108.865 1242.98,171.529 1245.05,87.9763 1247.13,87.9763 1249.2,108.865 1251.28,87.9763 1253.35,108.865 1255.42,129.753 1257.5,87.9763 1259.57,129.753 1261.65,129.753 1263.72,108.865 1265.8,108.865 1267.87,87.9763 1269.95,87.9763 1272.02,108.865 1274.1,87.9763 1276.17,87.9763 1278.24,108.865 1280.32,108.865 1282.39,129.753 1284.47,150.641 1286.54,87.9763 1288.62,108.865 1290.69,87.9763 1292.77,87.9763 1294.84,129.753 1296.91,129.753 1298.99,129.753 1301.06,129.753 1303.14,87.9763 1305.21,108.865 1307.29,129.753 1309.36,87.9763 1311.44,108.865 1313.51,87.9763 1315.58,129.753 1317.66,87.9763 1319.73,87.9763 1321.81,108.865 1323.88,87.9763 1325.96,108.865 1328.03,108.865 1330.11,129.753 1332.18,87.9763 1334.25,108.865 1336.33,108.865 1338.4,108.865 1340.48,87.9763 1342.55,108.865 1344.63,87.9763 1346.7,87.9763 1348.78,87.9763 1350.85,87.9763 1352.92,87.9763 1355,87.9763 1357.07,108.865 1359.15,129.753 1361.22,87.9763 1363.3,129.753 1365.37,129.753 1367.45,87.9763 1369.52,129.753 1371.6,87.9763 1373.67,87.9763 1375.74,108.865 1377.82,108.865 1379.89,87.9763 1381.97,87.9763 1384.04,87.9763 1386.12,87.9763 1388.19,87.9763 1390.27,87.9763 1392.34,87.9763 1394.41,87.9763 1396.49,129.753 1398.56,108.865 1400.64,129.753 1402.71,87.9763 1404.79,87.9763 1406.86,87.9763 1408.94,87.9763 1411.01,87.9763 1413.08,129.753 1415.16,87.9763 1417.23,129.753 1419.31,87.9763 1421.38,87.9763 1423.46,108.865 1425.53,87.9763 1427.61,87.9763 1429.68,87.9763 1431.75,108.865 1433.83,129.753 1435.9,108.865 1437.98,87.9763 1440.05,108.865 1442.13,87.9763 1444.2,87.9763 1446.28,129.753 1448.35,87.9763 1450.42,87.9763 1452.5,87.9763 1454.57,108.865 1456.65,87.9763 1458.72,87.9763 1460.8,87.9763 1462.87,87.9763 1464.95,87.9763 1467.02,108.865 1469.1,87.9763 1471.17,87.9763 1473.24,87.9763 1475.32,108.865 1477.39,87.9763 1479.47,108.865 1481.54,108.865 1483.62,87.9763 1485.69,87.9763 1487.77,108.865 1489.84,108.865 1491.91,108.865 1493.99,87.9763 1496.06,87.9763 1498.14,129.753 1500.21,87.9763 1502.29,87.9763 1504.36,108.865 1506.44,87.9763 1508.51,129.753 1510.58,87.9763 1512.66,108.865 1514.73,87.9763 1516.81,87.9763 1518.88,108.865 1520.96,87.9763 1523.03,108.865 1525.11,108.865 1527.18,87.9763 1529.25,87.9763 1531.33,108.865 1533.4,87.9763 1535.48,129.753 1537.55,87.9763 1539.63,87.9763 1541.7,87.9763 1543.78,108.865 1545.85,87.9763 1547.92,108.865 1550,87.9763 1552.07,108.865 1554.15,108.865 1556.22,87.9763 1558.3,108.865 1560.37,87.9763 1562.45,87.9763 1564.52,108.865 1566.6,87.9763 1568.67,87.9763 1570.74,108.865 1572.82,129.753 1574.89,108.865 1576.97,87.9763 1579.04,108.865 1581.12,87.9763 1583.19,87.9763 1585.27,108.865 1587.34,87.9763 1589.41,87.9763 1591.49,129.753 1593.56,87.9763 1595.64,87.9763 1597.71,108.865 1599.79,87.9763 1601.86,87.9763 1603.94,87.9763 1606.01,87.9763 1608.08,87.9763 1610.16,87.9763 1612.23,87.9763 1614.31,108.865 1616.38,87.9763 1618.46,108.865 1620.53,87.9763 1622.61,87.9763 1624.68,87.9763 1626.75,108.865 1628.83,87.9763 1630.9,87.9763 1632.98,87.9763 1635.05,87.9763 1637.13,87.9763 1639.2,108.865 1641.28,87.9763 1643.35,108.865 1645.42,87.9763 1647.5,108.865 1649.57,87.9763 1651.65,108.865 1653.72,129.753 1655.8,108.865 1657.87,108.865 1659.95,108.865 1662.02,87.9763 1664.1,87.9763 1666.17,108.865 1668.24,87.9763 1670.32,129.753 1672.39,87.9763 1674.47,87.9763 1676.54,108.865 1678.62,129.753 1680.69,108.865 1682.77,87.9763 1684.84,87.9763 1686.91,108.865 1688.99,108.865 1691.06,87.9763 1693.14,87.9763 1695.21,108.865 1697.29,108.865 1699.36,108.865 1701.44,87.9763 1703.51,108.865 1705.58,108.865 1707.66,87.9763 1709.73,87.9763 1711.81,108.865 1713.88,87.9763 1715.96,129.753 1718.03,150.641 1720.11,108.865 1722.18,87.9763 1724.25,150.641 1726.33,108.865 1728.4,108.865 1730.48,87.9763 1732.55,129.753 1734.63,108.865 1736.7,87.9763 1738.78,108.865 1740.85,87.9763 1742.92,87.9763 1745,129.753 1747.07,87.9763 1749.15,108.865 1751.22,87.9763 1753.3,108.865 1755.37,87.9763 1757.45,108.865 1759.52,108.865 1761.59,87.9763 1763.67,108.865 1765.74,87.9763 1767.82,87.9763 1769.89,87.9763 1771.97,108.865 1774.04,129.753 1776.12,87.9763 1778.19,108.865 1780.27,150.641 1782.34,150.641 1784.41,150.641 1786.49,129.753 1788.56,150.641 1790.64,87.9763 1792.71,87.9763 1794.79,87.9763 1796.86,87.9763 1798.94,87.9763 1801.01,129.753 1803.08,129.753 1805.16,87.9763 1807.23,171.529 1809.31,129.753 1811.38,129.753 1813.46,87.9763 1815.53,150.641 1817.61,129.753 1819.68,108.865 1821.75,108.865 1823.83,108.865 1825.9,87.9763 1827.98,129.753 1830.05,108.865 1832.13,87.9763 1834.2,108.865 1836.28,87.9763 1838.35,87.9763 1840.42,87.9763 1842.5,87.9763 1844.57,108.865 1846.65,108.865 1848.72,87.9763 1850.8,171.529 1852.87,108.865 1854.95,87.9763 1857.02,87.9763 1859.09,87.9763 1861.17,87.9763 1863.24,87.9763 1865.32,87.9763 1867.39,87.9763 1869.47,87.9763 1871.54,108.865 1873.62,87.9763 1875.69,87.9763 1877.77,87.9763 1879.84,108.865 1881.91,108.865 1883.99,87.9763 1886.06,87.9763 1888.14,108.865 1890.21,108.865 1892.29,87.9763 1894.36,87.9763 1896.44,108.865 1898.51,129.753 1900.58,108.865 1902.66,87.9763 1904.73,87.9763 1906.81,108.865 1908.88,87.9763 1910.96,108.865 1913.03,87.9763 1915.11,87.9763 1917.18,87.9763 1919.25,87.9763 1921.33,108.865 1923.4,87.9763 1925.48,108.865 1927.55,87.9763 1929.63,87.9763 1931.7,87.9763 1933.78,87.9763 1935.85,87.9763 1937.92,108.865 1940,87.9763 1942.07,87.9763 1944.15,108.865 1946.22,87.9763 1948.3,108.865 1950.37,87.9763 1952.45,87.9763 1954.52,87.9763 1956.59,108.865 1958.67,108.865 1960.74,87.9763 1962.82,87.9763 1964.89,87.9763 1966.97,87.9763 1969.04,87.9763 1971.12,108.865 1973.19,129.753 1975.27,87.9763 1977.34,87.9763 1979.41,108.865 1981.49,87.9763 1983.56,129.753 1985.64,87.9763 1987.71,87.9763 1989.79,108.865 1991.86,87.9763 1993.94,129.753 1996.01,129.753 1998.08,87.9763 2000.16,129.753 2002.23,108.865 2004.31,87.9763 2006.38,87.9763 2008.46,87.9763 2010.53,87.9763 2012.61,87.9763 2014.68,87.9763 2016.75,108.865 2018.83,87.9763 2020.9,108.865 2022.98,108.865 2025.05,129.753 2027.13,108.865 2029.2,87.9763 2031.28,108.865 2033.35,87.9763 2035.42,87.9763 2037.5,87.9763 2039.57,87.9763 2041.65,87.9763 2043.72,87.9763 2045.8,87.9763 2047.87,87.9763 2049.95,129.753 2052.02,87.9763 2054.09,108.865 2056.17,87.9763 2058.24,108.865 2060.32,87.9763 2062.39,87.9763 2064.47,87.9763 2066.54,87.9763 2068.62,87.9763 2070.69,87.9763 2072.77,108.865 2074.84,87.9763 2076.91,87.9763 2078.99,87.9763 2081.06,108.865 2083.14,108.865 2085.21,87.9763 2087.29,87.9763 2089.36,108.865 2091.44,87.9763 2093.51,108.865 2095.58,87.9763 2097.66,87.9763 2099.73,87.9763 2101.81,108.865 2103.88,87.9763 2105.96,108.865 2108.03,87.9763 2110.11,87.9763 2112.18,108.865 2114.25,87.9763 2116.33,87.9763 2118.4,108.865 2120.48,87.9763 2122.55,87.9763 2124.63,87.9763 2126.7,87.9763 2128.78,108.865 2130.85,87.9763 2132.92,87.9763 2135,108.865 2137.07,87.9763 2139.15,87.9763 2141.22,87.9763 2143.3,108.865 2145.37,87.9763 2147.45,129.753 2149.52,108.865 2151.59,87.9763 2153.67,87.9763 2155.74,87.9763 2157.82,87.9763 2159.89,87.9763 2161.97,87.9763 2164.04,108.865 2166.12,108.865 2168.19,87.9763 2170.27,87.9763 2172.34,87.9763 2174.41,87.9763 2176.49,129.753 2178.56,87.9763 2180.64,87.9763 2182.71,87.9763 2184.79,108.865 2186.86,108.865 2188.94,129.753 2191.01,87.9763 2193.08,87.9763 2195.16,108.865 2197.23,87.9763 2199.31,87.9763 2201.38,87.9763 2203.46,87.9763 2205.53,87.9763 2207.61,87.9763 2209.68,87.9763 2211.75,87.9763 2213.83,129.753 2215.9,87.9763 2217.98,87.9763 2220.05,108.865 2222.13,87.9763 2224.2,87.9763 2226.28,87.9763 2228.35,108.865 2230.42,108.865 2232.5,129.753 2234.57,87.9763 2236.65,87.9763 2238.72,87.9763 2240.8,87.9763 2242.87,108.865 2244.95,87.9763 2247.02,87.9763 2249.09,87.9763 2251.17,87.9763 2253.24,87.9763 2255.32,108.865 2257.39,87.9763 2259.47,87.9763 2261.54,87.9763 2263.62,87.9763 2265.69,87.9763 2267.76,108.865 2269.84,108.865 2271.91,87.9763 2273.99,150.641 2276.06,87.9763 2278.14,87.9763 2280.21,87.9763 2282.29,87.9763 2284.36,108.865 2286.44,87.9763 2288.51,87.9763 2290.58,108.865 "/>
<path clip-path="url(#clip630)" d="M2007.43 1438.47 L2279.53 1438.47 L2279.53 1334.79 L2007.43 1334.79  Z" fill="#ffffff" fill-rule="evenodd" fill-opacity="1"/>
<polyline clip-path="url(#clip630)" style="stroke:#000000; stroke-linecap:round; stroke-linejoin:round; stroke-width:4; stroke-opacity:1; fill:none" points="2007.43,1438.47 2279.53,1438.47 2279.53,1334.79 2007.43,1334.79 2007.43,1438.47 "/>
<polyline clip-path="url(#clip630)" style="stroke:#009af9; stroke-linecap:round; stroke-linejoin:round; stroke-width:4; stroke-opacity:1; fill:none" points="2031.84,1386.63 2178.28,1386.63 "/>
<path clip-path="url(#clip630)" d="M2216.54 1406.32 Q2214.73 1410.95 2213.02 1412.36 Q2211.3 1413.78 2208.43 1413.78 L2205.03 1413.78 L2205.03 1410.21 L2207.53 1410.21 Q2209.29 1410.21 2210.26 1409.38 Q2211.23 1408.54 2212.42 1405.44 L2213.18 1403.5 L2202.69 1377.99 L2207.21 1377.99 L2215.31 1398.27 L2223.41 1377.99 L2227.92 1377.99 L2216.54 1406.32 Z" fill="#000000" fill-rule="nonzero" fill-opacity="1" /><path clip-path="url(#clip630)" d="M2235.22 1399.98 L2242.85 1399.98 L2242.85 1373.61 L2234.54 1375.28 L2234.54 1371.02 L2242.81 1369.35 L2247.48 1369.35 L2247.48 1399.98 L2255.12 1399.98 L2255.12 1403.91 L2235.22 1403.91 L2235.22 1399.98 Z" fill="#000000" fill-rule="nonzero" fill-opacity="1" /></svg>
