<?xml version="1.0" encoding="utf-8"?>
<svg xmlns="http://www.w3.org/2000/svg" xmlns:xlink="http://www.w3.org/1999/xlink" width="600" height="400" viewBox="0 0 2400 1600">
<defs>
  <clipPath id="clip570">
    <rect x="0" y="0" width="2400" height="1600"/>
  </clipPath>
</defs>
<path clip-path="url(#clip570)" d="M0 1600 L2400 1600 L2400 0 L0 0  Z" fill="#ffffff" fill-rule="evenodd" fill-opacity="1"/>
<defs>
  <clipPath id="clip571">
    <rect x="480" y="0" width="1681" height="1600"/>
  </clipPath>
</defs>
<path clip-path="url(#clip570)" d="M141.853 1486.45 L2352.76 1486.45 L2352.76 47.2441 L141.853 47.2441  Z" fill="#ffffff" fill-rule="evenodd" fill-opacity="1"/>
<defs>
  <clipPath id="clip572">
    <rect x="141" y="47" width="2212" height="1440"/>
  </clipPath>
</defs>
<polyline clip-path="url(#clip572)" style="stroke:#000000; stroke-linecap:round; stroke-linejoin:round; stroke-width:2; stroke-opacity:0.1; fill:none" points="204.426,1486.45 204.426,47.2441 "/>
<polyline clip-path="url(#clip572)" style="stroke:#000000; stroke-linecap:round; stroke-linejoin:round; stroke-width:2; stroke-opacity:0.1; fill:none" points="725.865,1486.45 725.865,47.2441 "/>
<polyline clip-path="url(#clip572)" style="stroke:#000000; stroke-linecap:round; stroke-linejoin:round; stroke-width:2; stroke-opacity:0.1; fill:none" points="1247.3,1486.45 1247.3,47.2441 "/>
<polyline clip-path="url(#clip572)" style="stroke:#000000; stroke-linecap:round; stroke-linejoin:round; stroke-width:2; stroke-opacity:0.1; fill:none" points="1768.74,1486.45 1768.74,47.2441 "/>
<polyline clip-path="url(#clip572)" style="stroke:#000000; stroke-linecap:round; stroke-linejoin:round; stroke-width:2; stroke-opacity:0.1; fill:none" points="2290.18,1486.45 2290.18,47.2441 "/>
<polyline clip-path="url(#clip570)" style="stroke:#000000; stroke-linecap:round; stroke-linejoin:round; stroke-width:4; stroke-opacity:1; fill:none" points="141.853,1486.45 2352.76,1486.45 "/>
<polyline clip-path="url(#clip570)" style="stroke:#000000; stroke-linecap:round; stroke-linejoin:round; stroke-width:4; stroke-opacity:1; fill:none" points="204.426,1486.45 204.426,1467.55 "/>
<polyline clip-path="url(#clip570)" style="stroke:#000000; stroke-linecap:round; stroke-linejoin:round; stroke-width:4; stroke-opacity:1; fill:none" points="725.865,1486.45 725.865,1467.55 "/>
<polyline clip-path="url(#clip570)" style="stroke:#000000; stroke-linecap:round; stroke-linejoin:round; stroke-width:4; stroke-opacity:1; fill:none" points="1247.3,1486.45 1247.3,1467.55 "/>
<polyline clip-path="url(#clip570)" style="stroke:#000000; stroke-linecap:round; stroke-linejoin:round; stroke-width:4; stroke-opacity:1; fill:none" points="1768.74,1486.45 1768.74,1467.55 "/>
<polyline clip-path="url(#clip570)" style="stroke:#000000; stroke-linecap:round; stroke-linejoin:round; stroke-width:4; stroke-opacity:1; fill:none" points="2290.18,1486.45 2290.18,1467.55 "/>
<path clip-path="url(#clip570)" d="M204.426 1517.37 Q200.815 1517.37 198.986 1520.93 Q197.18 1524.47 197.18 1531.6 Q197.18 1538.71 198.986 1542.27 Q200.815 1545.82 204.426 1545.82 Q208.06 1545.82 209.865 1542.27 Q211.694 1538.71 211.694 1531.6 Q211.694 1524.47 209.865 1520.93 Q208.06 1517.37 204.426 1517.37 M204.426 1513.66 Q210.236 1513.66 213.291 1518.27 Q216.37 1522.85 216.37 1531.6 Q216.37 1540.33 213.291 1544.94 Q210.236 1549.52 204.426 1549.52 Q198.616 1549.52 195.537 1544.94 Q192.481 1540.33 192.481 1531.6 Q192.481 1522.85 195.537 1518.27 Q198.616 1513.66 204.426 1513.66 Z" fill="#000000" fill-rule="nonzero" fill-opacity="1" /><path clip-path="url(#clip570)" d="M685.483 1514.29 L703.84 1514.29 L703.84 1518.22 L689.766 1518.22 L689.766 1526.7 Q690.784 1526.35 691.803 1526.19 Q692.821 1526 693.84 1526 Q699.627 1526 703.006 1529.17 Q706.386 1532.34 706.386 1537.76 Q706.386 1543.34 702.914 1546.44 Q699.442 1549.52 693.122 1549.52 Q690.946 1549.52 688.678 1549.15 Q686.432 1548.78 684.025 1548.04 L684.025 1543.34 Q686.108 1544.47 688.331 1545.03 Q690.553 1545.58 693.03 1545.58 Q697.034 1545.58 699.372 1543.48 Q701.71 1541.37 701.71 1537.76 Q701.71 1534.15 699.372 1532.04 Q697.034 1529.94 693.03 1529.94 Q691.155 1529.94 689.28 1530.35 Q687.428 1530.77 685.483 1531.65 L685.483 1514.29 Z" fill="#000000" fill-rule="nonzero" fill-opacity="1" /><path clip-path="url(#clip570)" d="M725.599 1517.37 Q721.988 1517.37 720.159 1520.93 Q718.354 1524.47 718.354 1531.6 Q718.354 1538.71 720.159 1542.27 Q721.988 1545.82 725.599 1545.82 Q729.233 1545.82 731.039 1542.27 Q732.867 1538.71 732.867 1531.6 Q732.867 1524.47 731.039 1520.93 Q729.233 1517.37 725.599 1517.37 M725.599 1513.66 Q731.409 1513.66 734.465 1518.27 Q737.543 1522.85 737.543 1531.6 Q737.543 1540.33 734.465 1544.94 Q731.409 1549.52 725.599 1549.52 Q719.789 1549.52 716.71 1544.94 Q713.654 1540.33 713.654 1531.6 Q713.654 1522.85 716.71 1518.27 Q719.789 1513.66 725.599 1513.66 Z" fill="#000000" fill-rule="nonzero" fill-opacity="1" /><path clip-path="url(#clip570)" d="M755.761 1517.37 Q752.15 1517.37 750.321 1520.93 Q748.515 1524.47 748.515 1531.6 Q748.515 1538.71 750.321 1542.27 Q752.15 1545.82 755.761 1545.82 Q759.395 1545.82 761.201 1542.27 Q763.029 1538.71 763.029 1531.6 Q763.029 1524.47 761.201 1520.93 Q759.395 1517.37 755.761 1517.37 M755.761 1513.66 Q761.571 1513.66 764.626 1518.27 Q767.705 1522.85 767.705 1531.6 Q767.705 1540.33 764.626 1544.94 Q761.571 1549.52 755.761 1549.52 Q749.951 1549.52 746.872 1544.94 Q743.816 1540.33 743.816 1531.6 Q743.816 1522.85 746.872 1518.27 Q749.951 1513.66 755.761 1513.66 Z" fill="#000000" fill-rule="nonzero" fill-opacity="1" /><path clip-path="url(#clip570)" d="M1191.83 1544.91 L1199.47 1544.91 L1199.47 1518.55 L1191.16 1520.21 L1191.16 1515.95 L1199.42 1514.29 L1204.1 1514.29 L1204.1 1544.91 L1211.74 1544.91 L1211.74 1548.85 L1191.83 1548.85 L1191.83 1544.91 Z" fill="#000000" fill-rule="nonzero" fill-opacity="1" /><path clip-path="url(#clip570)" d="M1231.18 1517.37 Q1227.57 1517.37 1225.74 1520.93 Q1223.94 1524.47 1223.94 1531.6 Q1223.94 1538.71 1225.74 1542.27 Q1227.57 1545.82 1231.18 1545.82 Q1234.82 1545.82 1236.62 1542.27 Q1238.45 1538.71 1238.45 1531.6 Q1238.45 1524.47 1236.62 1520.93 Q1234.82 1517.37 1231.18 1517.37 M1231.18 1513.66 Q1236.99 1513.66 1240.05 1518.27 Q1243.13 1522.85 1243.13 1531.6 Q1243.13 1540.33 1240.05 1544.94 Q1236.99 1549.52 1231.18 1549.52 Q1225.37 1549.52 1222.29 1544.94 Q1219.24 1540.33 1219.24 1531.6 Q1219.24 1522.85 1222.29 1518.27 Q1225.37 1513.66 1231.18 1513.66 Z" fill="#000000" fill-rule="nonzero" fill-opacity="1" /><path clip-path="url(#clip570)" d="M1261.34 1517.37 Q1257.73 1517.37 1255.9 1520.93 Q1254.1 1524.47 1254.1 1531.6 Q1254.1 1538.71 1255.9 1542.27 Q1257.73 1545.82 1261.34 1545.82 Q1264.98 1545.82 1266.78 1542.27 Q1268.61 1538.71 1268.61 1531.6 Q1268.61 1524.47 1266.78 1520.93 Q1264.98 1517.37 1261.34 1517.37 M1261.34 1513.66 Q1267.15 1513.66 1270.21 1518.27 Q1273.29 1522.85 1273.29 1531.6 Q1273.29 1540.33 1270.21 1544.94 Q1267.15 1549.52 1261.34 1549.52 Q1255.53 1549.52 1252.45 1544.94 Q1249.4 1540.33 1249.4 1531.6 Q1249.4 1522.85 1252.45 1518.27 Q1255.53 1513.66 1261.34 1513.66 Z" fill="#000000" fill-rule="nonzero" fill-opacity="1" /><path clip-path="url(#clip570)" d="M1291.51 1517.37 Q1287.89 1517.37 1286.07 1520.93 Q1284.26 1524.47 1284.26 1531.6 Q1284.26 1538.71 1286.07 1542.27 Q1287.89 1545.82 1291.51 1545.82 Q1295.14 1545.82 1296.95 1542.27 Q1298.77 1538.71 1298.77 1531.6 Q1298.77 1524.47 1296.95 1520.93 Q1295.14 1517.37 1291.51 1517.37 M1291.51 1513.66 Q1297.32 1513.66 1300.37 1518.27 Q1303.45 1522.85 1303.45 1531.6 Q1303.45 1540.33 1300.37 1544.94 Q1297.32 1549.52 1291.51 1549.52 Q1285.7 1549.52 1282.62 1544.94 Q1279.56 1540.33 1279.56 1531.6 Q1279.56 1522.85 1282.62 1518.27 Q1285.7 1513.66 1291.51 1513.66 Z" fill="#000000" fill-rule="nonzero" fill-opacity="1" /><path clip-path="url(#clip570)" d="M1713.27 1544.91 L1720.91 1544.91 L1720.91 1518.55 L1712.6 1520.21 L1712.6 1515.95 L1720.86 1514.29 L1725.54 1514.29 L1725.54 1544.91 L1733.18 1544.91 L1733.18 1548.85 L1713.27 1548.85 L1713.27 1544.91 Z" fill="#000000" fill-rule="nonzero" fill-opacity="1" /><path clip-path="url(#clip570)" d="M1742.67 1514.29 L1761.02 1514.29 L1761.02 1518.22 L1746.95 1518.22 L1746.95 1526.7 Q1747.97 1526.35 1748.99 1526.19 Q1750.01 1526 1751.02 1526 Q1756.81 1526 1760.19 1529.17 Q1763.57 1532.34 1763.57 1537.76 Q1763.57 1543.34 1760.1 1546.44 Q1756.63 1549.52 1750.31 1549.52 Q1748.13 1549.52 1745.86 1549.15 Q1743.62 1548.78 1741.21 1548.04 L1741.21 1543.34 Q1743.29 1544.47 1745.51 1545.03 Q1747.74 1545.58 1750.21 1545.58 Q1754.22 1545.58 1756.56 1543.48 Q1758.89 1541.37 1758.89 1537.76 Q1758.89 1534.15 1756.56 1532.04 Q1754.22 1529.94 1750.21 1529.94 Q1748.34 1529.94 1746.46 1530.35 Q1744.61 1530.77 1742.67 1531.65 L1742.67 1514.29 Z" fill="#000000" fill-rule="nonzero" fill-opacity="1" /><path clip-path="url(#clip570)" d="M1782.78 1517.37 Q1779.17 1517.37 1777.34 1520.93 Q1775.54 1524.47 1775.54 1531.6 Q1775.54 1538.71 1777.34 1542.27 Q1779.17 1545.82 1782.78 1545.82 Q1786.42 1545.82 1788.22 1542.27 Q1790.05 1538.71 1790.05 1531.6 Q1790.05 1524.47 1788.22 1520.93 Q1786.42 1517.37 1782.78 1517.37 M1782.78 1513.66 Q1788.59 1513.66 1791.65 1518.27 Q1794.73 1522.85 1794.73 1531.6 Q1794.73 1540.33 1791.65 1544.94 Q1788.59 1549.52 1782.78 1549.52 Q1776.97 1549.52 1773.89 1544.94 Q1770.84 1540.33 1770.84 1531.6 Q1770.84 1522.85 1773.89 1518.27 Q1776.97 1513.66 1782.78 1513.66 Z" fill="#000000" fill-rule="nonzero" fill-opacity="1" /><path clip-path="url(#clip570)" d="M1812.94 1517.37 Q1809.33 1517.37 1807.51 1520.93 Q1805.7 1524.47 1805.7 1531.6 Q1805.7 1538.71 1807.51 1542.27 Q1809.33 1545.82 1812.94 1545.82 Q1816.58 1545.82 1818.38 1542.27 Q1820.21 1538.71 1820.21 1531.6 Q1820.21 1524.47 1818.38 1520.93 Q1816.58 1517.37 1812.94 1517.37 M1812.94 1513.66 Q1818.76 1513.66 1821.81 1518.27 Q1824.89 1522.85 1824.89 1531.6 Q1824.89 1540.33 1821.81 1544.94 Q1818.76 1549.52 1812.94 1549.52 Q1807.13 1549.52 1804.06 1544.94 Q1801 1540.33 1801 1531.6 Q1801 1522.85 1804.06 1518.27 Q1807.13 1513.66 1812.94 1513.66 Z" fill="#000000" fill-rule="nonzero" fill-opacity="1" /><path clip-path="url(#clip570)" d="M2238.79 1544.91 L2255.11 1544.91 L2255.11 1548.85 L2233.17 1548.85 L2233.17 1544.91 Q2235.83 1542.16 2240.41 1537.53 Q2245.02 1532.88 2246.2 1531.53 Q2248.45 1529.01 2249.33 1527.27 Q2250.23 1525.51 2250.23 1523.82 Q2250.23 1521.07 2248.29 1519.33 Q2246.36 1517.6 2243.26 1517.6 Q2241.06 1517.6 2238.61 1518.36 Q2236.18 1519.13 2233.4 1520.68 L2233.4 1515.95 Q2236.23 1514.82 2238.68 1514.24 Q2241.13 1513.66 2243.17 1513.66 Q2248.54 1513.66 2251.73 1516.35 Q2254.93 1519.03 2254.93 1523.52 Q2254.93 1525.65 2254.12 1527.57 Q2253.33 1529.47 2251.23 1532.07 Q2250.65 1532.74 2247.54 1535.95 Q2244.44 1539.15 2238.79 1544.91 Z" fill="#000000" fill-rule="nonzero" fill-opacity="1" /><path clip-path="url(#clip570)" d="M2274.93 1517.37 Q2271.32 1517.37 2269.49 1520.93 Q2267.68 1524.47 2267.68 1531.6 Q2267.68 1538.71 2269.49 1542.27 Q2271.32 1545.82 2274.93 1545.82 Q2278.56 1545.82 2280.37 1542.27 Q2282.2 1538.71 2282.2 1531.6 Q2282.2 1524.47 2280.37 1520.93 Q2278.56 1517.37 2274.93 1517.37 M2274.93 1513.66 Q2280.74 1513.66 2283.79 1518.27 Q2286.87 1522.85 2286.87 1531.6 Q2286.87 1540.33 2283.79 1544.94 Q2280.74 1549.52 2274.93 1549.52 Q2269.12 1549.52 2266.04 1544.94 Q2262.98 1540.33 2262.98 1531.6 Q2262.98 1522.85 2266.04 1518.27 Q2269.12 1513.66 2274.93 1513.66 Z" fill="#000000" fill-rule="nonzero" fill-opacity="1" /><path clip-path="url(#clip570)" d="M2305.09 1517.37 Q2301.48 1517.37 2299.65 1520.93 Q2297.85 1524.47 2297.85 1531.6 Q2297.85 1538.71 2299.65 1542.27 Q2301.48 1545.82 2305.09 1545.82 Q2308.72 1545.82 2310.53 1542.27 Q2312.36 1538.71 2312.36 1531.6 Q2312.36 1524.47 2310.53 1520.93 Q2308.72 1517.37 2305.09 1517.37 M2305.09 1513.66 Q2310.9 1513.66 2313.96 1518.27 Q2317.03 1522.85 2317.03 1531.6 Q2317.03 1540.33 2313.96 1544.94 Q2310.9 1549.52 2305.09 1549.52 Q2299.28 1549.52 2296.2 1544.94 Q2293.15 1540.33 2293.15 1531.6 Q2293.15 1522.85 2296.2 1518.27 Q2299.28 1513.66 2305.09 1513.66 Z" fill="#000000" fill-rule="nonzero" fill-opacity="1" /><path clip-path="url(#clip570)" d="M2335.25 1517.37 Q2331.64 1517.37 2329.81 1520.93 Q2328.01 1524.47 2328.01 1531.6 Q2328.01 1538.71 2329.81 1542.27 Q2331.64 1545.82 2335.25 1545.82 Q2338.89 1545.82 2340.69 1542.27 Q2342.52 1538.71 2342.52 1531.6 Q2342.52 1524.47 2340.69 1520.93 Q2338.89 1517.37 2335.25 1517.37 M2335.25 1513.66 Q2341.06 1513.66 2344.12 1518.27 Q2347.2 1522.85 2347.2 1531.6 Q2347.2 1540.33 2344.12 1544.94 Q2341.06 1549.52 2335.25 1549.52 Q2329.44 1549.52 2326.36 1544.94 Q2323.31 1540.33 2323.31 1531.6 Q2323.31 1522.85 2326.36 1518.27 Q2329.44 1513.66 2335.25 1513.66 Z" fill="#000000" fill-rule="nonzero" fill-opacity="1" /><polyline clip-path="url(#clip572)" style="stroke:#000000; stroke-linecap:round; stroke-linejoin:round; stroke-width:2; stroke-opacity:0.1; fill:none" points="141.853,1315.98 2352.76,1315.98 "/>
<polyline clip-path="url(#clip572)" style="stroke:#000000; stroke-linecap:round; stroke-linejoin:round; stroke-width:2; stroke-opacity:0.1; fill:none" points="141.853,1111.94 2352.76,1111.94 "/>
<polyline clip-path="url(#clip572)" style="stroke:#000000; stroke-linecap:round; stroke-linejoin:round; stroke-width:2; stroke-opacity:0.1; fill:none" points="141.853,907.896 2352.76,907.896 "/>
<polyline clip-path="url(#clip572)" style="stroke:#000000; stroke-linecap:round; stroke-linejoin:round; stroke-width:2; stroke-opacity:0.1; fill:none" points="141.853,703.854 2352.76,703.854 "/>
<polyline clip-path="url(#clip572)" style="stroke:#000000; stroke-linecap:round; stroke-linejoin:round; stroke-width:2; stroke-opacity:0.1; fill:none" points="141.853,499.813 2352.76,499.813 "/>
<polyline clip-path="url(#clip572)" style="stroke:#000000; stroke-linecap:round; stroke-linejoin:round; stroke-width:2; stroke-opacity:0.1; fill:none" points="141.853,295.771 2352.76,295.771 "/>
<polyline clip-path="url(#clip572)" style="stroke:#000000; stroke-linecap:round; stroke-linejoin:round; stroke-width:2; stroke-opacity:0.1; fill:none" points="141.853,91.7293 2352.76,91.7293 "/>
<polyline clip-path="url(#clip570)" style="stroke:#000000; stroke-linecap:round; stroke-linejoin:round; stroke-width:4; stroke-opacity:1; fill:none" points="141.853,1486.45 141.853,47.2441 "/>
<polyline clip-path="url(#clip570)" style="stroke:#000000; stroke-linecap:round; stroke-linejoin:round; stroke-width:4; stroke-opacity:1; fill:none" points="141.853,1315.98 160.751,1315.98 "/>
<polyline clip-path="url(#clip570)" style="stroke:#000000; stroke-linecap:round; stroke-linejoin:round; stroke-width:4; stroke-opacity:1; fill:none" points="141.853,1111.94 160.751,1111.94 "/>
<polyline clip-path="url(#clip570)" style="stroke:#000000; stroke-linecap:round; stroke-linejoin:round; stroke-width:4; stroke-opacity:1; fill:none" points="141.853,907.896 160.751,907.896 "/>
<polyline clip-path="url(#clip570)" style="stroke:#000000; stroke-linecap:round; stroke-linejoin:round; stroke-width:4; stroke-opacity:1; fill:none" points="141.853,703.854 160.751,703.854 "/>
<polyline clip-path="url(#clip570)" style="stroke:#000000; stroke-linecap:round; stroke-linejoin:round; stroke-width:4; stroke-opacity:1; fill:none" points="141.853,499.813 160.751,499.813 "/>
<polyline clip-path="url(#clip570)" style="stroke:#000000; stroke-linecap:round; stroke-linejoin:round; stroke-width:4; stroke-opacity:1; fill:none" points="141.853,295.771 160.751,295.771 "/>
<polyline clip-path="url(#clip570)" style="stroke:#000000; stroke-linecap:round; stroke-linejoin:round; stroke-width:4; stroke-opacity:1; fill:none" points="141.853,91.7293 160.751,91.7293 "/>
<path clip-path="url(#clip570)" d="M57.7745 1329.32 L74.0939 1329.32 L74.0939 1333.26 L52.1495 1333.26 L52.1495 1329.32 Q54.8115 1326.57 59.3949 1321.94 Q64.0013 1317.29 65.1819 1315.94 Q67.4272 1313.42 68.3068 1311.68 Q69.2096 1309.93 69.2096 1308.24 Q69.2096 1305.48 67.2652 1303.75 Q65.3439 1302.01 62.2421 1302.01 Q60.043 1302.01 57.5893 1302.77 Q55.1588 1303.54 52.381 1305.09 L52.381 1300.37 Q55.2051 1299.23 57.6588 1298.65 Q60.1124 1298.07 62.1495 1298.07 Q67.5198 1298.07 70.7142 1300.76 Q73.9087 1303.44 73.9087 1307.93 Q73.9087 1310.06 73.0985 1311.99 Q72.3115 1313.88 70.205 1316.48 Q69.6263 1317.15 66.5245 1320.37 Q63.4226 1323.56 57.7745 1329.32 Z" fill="#000000" fill-rule="nonzero" fill-opacity="1" /><path clip-path="url(#clip570)" d="M93.9086 1301.78 Q90.2975 1301.78 88.4688 1305.34 Q86.6632 1308.88 86.6632 1316.01 Q86.6632 1323.12 88.4688 1326.68 Q90.2975 1330.23 93.9086 1330.23 Q97.5428 1330.23 99.3483 1326.68 Q101.177 1323.12 101.177 1316.01 Q101.177 1308.88 99.3483 1305.34 Q97.5428 1301.78 93.9086 1301.78 M93.9086 1298.07 Q99.7187 1298.07 102.774 1302.68 Q105.853 1307.26 105.853 1316.01 Q105.853 1324.74 102.774 1329.35 Q99.7187 1333.93 93.9086 1333.93 Q88.0984 1333.93 85.0197 1329.35 Q81.9642 1324.74 81.9642 1316.01 Q81.9642 1307.26 85.0197 1302.68 Q88.0984 1298.07 93.9086 1298.07 Z" fill="#000000" fill-rule="nonzero" fill-opacity="1" /><path clip-path="url(#clip570)" d="M67.9133 1110.58 Q71.2698 1111.3 73.1448 1113.57 Q75.0429 1115.84 75.0429 1119.17 Q75.0429 1124.29 71.5244 1127.09 Q68.0059 1129.89 61.5245 1129.89 Q59.3486 1129.89 57.0338 1129.45 Q54.7421 1129.03 52.2884 1128.18 L52.2884 1123.66 Q54.2328 1124.8 56.5477 1125.37 Q58.8625 1125.95 61.3856 1125.95 Q65.7837 1125.95 68.0754 1124.22 Q70.3902 1122.48 70.3902 1119.17 Q70.3902 1116.12 68.2374 1114.4 Q66.1078 1112.67 62.2884 1112.67 L58.2606 1112.67 L58.2606 1108.82 L62.4735 1108.82 Q65.9226 1108.82 67.7513 1107.46 Q69.58 1106.07 69.58 1103.48 Q69.58 1100.81 67.6819 1099.4 Q65.8069 1097.97 62.2884 1097.97 Q60.3671 1097.97 58.168 1098.38 Q55.969 1098.8 53.3301 1099.68 L53.3301 1095.51 Q55.9921 1094.77 58.3069 1094.4 Q60.6449 1094.03 62.705 1094.03 Q68.0291 1094.03 71.1309 1096.46 Q74.2327 1098.87 74.2327 1102.99 Q74.2327 1105.86 72.5892 1107.85 Q70.9457 1109.82 67.9133 1110.58 Z" fill="#000000" fill-rule="nonzero" fill-opacity="1" /><path clip-path="url(#clip570)" d="M93.9086 1097.74 Q90.2975 1097.74 88.4688 1101.3 Q86.6632 1104.84 86.6632 1111.97 Q86.6632 1119.08 88.4688 1122.64 Q90.2975 1126.18 93.9086 1126.18 Q97.5428 1126.18 99.3483 1122.64 Q101.177 1119.08 101.177 1111.97 Q101.177 1104.84 99.3483 1101.3 Q97.5428 1097.74 93.9086 1097.74 M93.9086 1094.03 Q99.7187 1094.03 102.774 1098.64 Q105.853 1103.22 105.853 1111.97 Q105.853 1120.7 102.774 1125.31 Q99.7187 1129.89 93.9086 1129.89 Q88.0984 1129.89 85.0197 1125.31 Q81.9642 1120.7 81.9642 1111.97 Q81.9642 1103.22 85.0197 1098.64 Q88.0984 1094.03 93.9086 1094.03 Z" fill="#000000" fill-rule="nonzero" fill-opacity="1" /><path clip-path="url(#clip570)" d="M66.5939 894.69 L54.7884 913.139 L66.5939 913.139 L66.5939 894.69 M65.367 890.616 L71.2466 890.616 L71.2466 913.139 L76.1772 913.139 L76.1772 917.028 L71.2466 917.028 L71.2466 925.176 L66.5939 925.176 L66.5939 917.028 L50.9921 917.028 L50.9921 912.514 L65.367 890.616 Z" fill="#000000" fill-rule="nonzero" fill-opacity="1" /><path clip-path="url(#clip570)" d="M93.9086 893.694 Q90.2975 893.694 88.4688 897.259 Q86.6632 900.801 86.6632 907.93 Q86.6632 915.037 88.4688 918.602 Q90.2975 922.143 93.9086 922.143 Q97.5428 922.143 99.3483 918.602 Q101.177 915.037 101.177 907.93 Q101.177 900.801 99.3483 897.259 Q97.5428 893.694 93.9086 893.694 M93.9086 889.991 Q99.7187 889.991 102.774 894.597 Q105.853 899.18 105.853 907.93 Q105.853 916.657 102.774 921.264 Q99.7187 925.847 93.9086 925.847 Q88.0984 925.847 85.0197 921.264 Q81.9642 916.657 81.9642 907.93 Q81.9642 899.18 85.0197 894.597 Q88.0984 889.991 93.9086 889.991 Z" fill="#000000" fill-rule="nonzero" fill-opacity="1" /><path clip-path="url(#clip570)" d="M53.793 686.574 L72.1494 686.574 L72.1494 690.509 L58.0754 690.509 L58.0754 698.981 Q59.0939 698.634 60.1124 698.472 Q61.131 698.287 62.1495 698.287 Q67.9365 698.287 71.3161 701.458 Q74.6957 704.63 74.6957 710.046 Q74.6957 715.625 71.2235 718.727 Q67.7513 721.805 61.4319 721.805 Q59.256 721.805 56.9875 721.435 Q54.7421 721.065 52.3347 720.324 L52.3347 715.625 Q54.418 716.759 56.6402 717.315 Q58.8625 717.87 61.3393 717.87 Q65.3439 717.87 67.6819 715.764 Q70.0198 713.657 70.0198 710.046 Q70.0198 706.435 67.6819 704.329 Q65.3439 702.222 61.3393 702.222 Q59.4643 702.222 57.5893 702.639 Q55.7375 703.056 53.793 703.935 L53.793 686.574 Z" fill="#000000" fill-rule="nonzero" fill-opacity="1" /><path clip-path="url(#clip570)" d="M93.9086 689.653 Q90.2975 689.653 88.4688 693.218 Q86.6632 696.759 86.6632 703.889 Q86.6632 710.995 88.4688 714.56 Q90.2975 718.102 93.9086 718.102 Q97.5428 718.102 99.3483 714.56 Q101.177 710.995 101.177 703.889 Q101.177 696.759 99.3483 693.218 Q97.5428 689.653 93.9086 689.653 M93.9086 685.949 Q99.7187 685.949 102.774 690.556 Q105.853 695.139 105.853 703.889 Q105.853 712.616 102.774 717.222 Q99.7187 721.805 93.9086 721.805 Q88.0984 721.805 85.0197 717.222 Q81.9642 712.616 81.9642 703.889 Q81.9642 695.139 85.0197 690.556 Q88.0984 685.949 93.9086 685.949 Z" fill="#000000" fill-rule="nonzero" fill-opacity="1" /><path clip-path="url(#clip570)" d="M64.3254 497.949 Q61.1773 497.949 59.3254 500.102 Q57.4967 502.255 57.4967 506.005 Q57.4967 509.731 59.3254 511.907 Q61.1773 514.06 64.3254 514.06 Q67.4735 514.06 69.3022 511.907 Q71.1541 509.731 71.1541 506.005 Q71.1541 502.255 69.3022 500.102 Q67.4735 497.949 64.3254 497.949 M73.6077 483.296 L73.6077 487.556 Q71.8485 486.722 70.0429 486.282 Q68.2606 485.843 66.5013 485.843 Q61.8717 485.843 59.418 488.968 Q56.9875 492.093 56.6402 498.412 Q58.006 496.398 60.0662 495.333 Q62.1263 494.245 64.6032 494.245 Q69.8115 494.245 72.8207 497.417 Q75.8531 500.565 75.8531 506.005 Q75.8531 511.329 72.705 514.546 Q69.5568 517.764 64.3254 517.764 Q58.33 517.764 55.1588 513.18 Q51.9875 508.574 51.9875 499.847 Q51.9875 491.653 55.8764 486.792 Q59.7652 481.908 66.3161 481.908 Q68.0754 481.908 69.8578 482.255 Q71.6633 482.602 73.6077 483.296 Z" fill="#000000" fill-rule="nonzero" fill-opacity="1" /><path clip-path="url(#clip570)" d="M93.9086 485.611 Q90.2975 485.611 88.4688 489.176 Q86.6632 492.718 86.6632 499.847 Q86.6632 506.954 88.4688 510.518 Q90.2975 514.06 93.9086 514.06 Q97.5428 514.06 99.3483 510.518 Q101.177 506.954 101.177 499.847 Q101.177 492.718 99.3483 489.176 Q97.5428 485.611 93.9086 485.611 M93.9086 481.908 Q99.7187 481.908 102.774 486.514 Q105.853 491.097 105.853 499.847 Q105.853 508.574 102.774 513.18 Q99.7187 517.764 93.9086 517.764 Q88.0984 517.764 85.0197 513.18 Q81.9642 508.574 81.9642 499.847 Q81.9642 491.097 85.0197 486.514 Q88.0984 481.908 93.9086 481.908 Z" fill="#000000" fill-rule="nonzero" fill-opacity="1" /><path clip-path="url(#clip570)" d="M52.5662 278.491 L74.7883 278.491 L74.7883 280.482 L62.2421 313.051 L57.3578 313.051 L69.1633 282.426 L52.5662 282.426 L52.5662 278.491 Z" fill="#000000" fill-rule="nonzero" fill-opacity="1" /><path clip-path="url(#clip570)" d="M93.9086 281.57 Q90.2975 281.57 88.4688 285.134 Q86.6632 288.676 86.6632 295.806 Q86.6632 302.912 88.4688 306.477 Q90.2975 310.019 93.9086 310.019 Q97.5428 310.019 99.3483 306.477 Q101.177 302.912 101.177 295.806 Q101.177 288.676 99.3483 285.134 Q97.5428 281.57 93.9086 281.57 M93.9086 277.866 Q99.7187 277.866 102.774 282.472 Q105.853 287.056 105.853 295.806 Q105.853 304.532 102.774 309.139 Q99.7187 313.722 93.9086 313.722 Q88.0984 313.722 85.0197 309.139 Q81.9642 304.532 81.9642 295.806 Q81.9642 287.056 85.0197 282.472 Q88.0984 277.866 93.9086 277.866 Z" fill="#000000" fill-rule="nonzero" fill-opacity="1" /><path clip-path="url(#clip570)" d="M63.7467 92.5974 Q60.4134 92.5974 58.4921 94.3797 Q56.5939 96.1621 56.5939 99.2871 Q56.5939 102.412 58.4921 104.195 Q60.4134 105.977 63.7467 105.977 Q67.08 105.977 69.0013 104.195 Q70.9226 102.389 70.9226 99.2871 Q70.9226 96.1621 69.0013 94.3797 Q67.1032 92.5974 63.7467 92.5974 M59.0708 90.6066 Q56.0615 89.8659 54.3717 87.8057 Q52.7051 85.7455 52.7051 82.7826 Q52.7051 78.6391 55.6449 76.2317 Q58.6078 73.8243 63.7467 73.8243 Q68.9087 73.8243 71.8485 76.2317 Q74.7883 78.6391 74.7883 82.7826 Q74.7883 85.7455 73.0985 87.8057 Q71.4318 89.8659 68.4457 90.6066 Q71.8253 91.3937 73.7003 93.6853 Q75.5985 95.977 75.5985 99.2871 Q75.5985 104.31 72.5198 106.995 Q69.4642 109.681 63.7467 109.681 Q58.0291 109.681 54.9504 106.995 Q51.8949 104.31 51.8949 99.2871 Q51.8949 95.977 53.793 93.6853 Q55.6912 91.3937 59.0708 90.6066 M57.3578 83.2224 Q57.3578 85.9076 59.0245 87.4122 Q60.7143 88.9168 63.7467 88.9168 Q66.7559 88.9168 68.4457 87.4122 Q70.1587 85.9076 70.1587 83.2224 Q70.1587 80.5372 68.4457 79.0326 Q66.7559 77.528 63.7467 77.528 Q60.7143 77.528 59.0245 79.0326 Q57.3578 80.5372 57.3578 83.2224 Z" fill="#000000" fill-rule="nonzero" fill-opacity="1" /><path clip-path="url(#clip570)" d="M93.9086 77.528 Q90.2975 77.528 88.4688 81.0928 Q86.6632 84.6344 86.6632 91.764 Q86.6632 98.8705 88.4688 102.435 Q90.2975 105.977 93.9086 105.977 Q97.5428 105.977 99.3483 102.435 Q101.177 98.8705 101.177 91.764 Q101.177 84.6344 99.3483 81.0928 Q97.5428 77.528 93.9086 77.528 M93.9086 73.8243 Q99.7187 73.8243 102.774 78.4308 Q105.853 83.0141 105.853 91.764 Q105.853 100.491 102.774 105.097 Q99.7187 109.681 93.9086 109.681 Q88.0984 109.681 85.0197 105.097 Q81.9642 100.491 81.9642 91.764 Q81.9642 83.0141 85.0197 78.4308 Q88.0984 73.8243 93.9086 73.8243 Z" fill="#000000" fill-rule="nonzero" fill-opacity="1" /><polyline clip-path="url(#clip572)" style="stroke:#009af9; stroke-linecap:round; stroke-linejoin:round; stroke-width:4; stroke-opacity:1; fill:none" points="204.426,1430.11 205.469,1445.72 206.511,1366.6 207.554,1385.32 208.597,1279.88 209.64,1290.57 210.683,1303.89 211.726,1310.28 212.769,1275.49 213.812,1278.49 214.854,1305.38 215.897,1308.73 216.94,1294.04 217.983,1297.72 219.026,1252.45 220.069,1254.8 221.112,1233.69 222.155,1239.14 223.197,1206.46 224.24,1213.03 225.283,1198.13 226.326,1202.51 227.369,1173.85 228.412,1176.24 229.455,1051.02 230.498,1067.57 231.541,911.38 232.583,924.61 233.626,849.41 234.669,858.44 235.712,733.548 236.755,740.557 237.798,853.952 238.841,864.694 239.884,640.859 240.926,652.665 241.969,658.571 243.012,666.61 244.055,701.392 245.098,710.022 246.141,438.686 247.184,452.367 248.227,666.456 249.269,670.641 250.312,571.712 251.355,577.51 252.398,538.998 253.441,546.676 254.484,598.092 255.527,607.576 256.57,539.485 257.612,547.194 258.655,635.429 259.698,639.361 260.741,564.143 261.784,569.889 262.827,578.261 263.87,585.162 264.913,550.973 265.956,557.199 266.998,515.342 268.041,521.299 269.084,427.879 270.127,438.448 271.17,459.216 272.213,462.149 273.256,601.842 274.299,608.401 275.341,515.6 276.384,520.702 277.427,514.402 278.47,524.545 279.513,469.03 280.556,474.139 281.599,396.164 282.642,400.926 283.684,444.681 284.727,450.543 285.77,358.455 286.813,365.137 287.856,416.084 288.899,420.667 289.942,454.634 290.985,465.085 292.027,479.587 293.07,484.483 294.113,417.009 295.156,420.164 296.199,379.44 297.242,387 298.285,368.359 299.328,377.047 300.371,406.173 301.413,409.734 302.456,375.781 303.499,377.864 304.542,339.134 305.585,345.738 306.628,411.269 307.671,415.847 308.714,375.989 309.756,380.816 310.799,434.272 311.842,438.151 312.885,359.682 313.928,365.157 314.971,351.353 316.014,354.635 317.057,367.863 318.099,371.157 319.142,327.788 320.185,332.283 321.228,289.387 322.271,291.004 323.314,332.233 324.357,337.815 325.4,391.842 326.442,396.841 327.485,333.218 328.528,335.948 329.571,373.004 330.614,375.88 331.657,263.453 332.7,267.787 333.743,282.843 334.786,288.351 335.828,311.357 336.871,314.629 337.914,316.516 338.957,319.668 340,237.191 341.043,239.793 342.086,269.25 343.129,273.124 344.171,390.626 345.214,392.969 346.257,197.376 347.3,200.223 348.343,228.535 349.386,231.429 350.429,269.982 351.472,273.588 352.514,324.239 353.557,327.183 354.6,261.291 355.643,266.874 356.686,362.972 357.729,368.619 358.772,273.676 359.815,276.067 360.857,381.9 361.9,383.984 362.943,212.003 363.986,217.545 365.029,329.575 366.072,332.89 367.115,318.258 368.158,321.549 369.201,252.521 370.243,258.797 371.286,300.553 372.329,303.276 373.372,185.381 374.415,185.995 375.458,216.32 376.501,221.362 377.544,359.95 378.586,361.982 379.629,276.881 380.672,279.594 381.715,259.274 382.758,262.466 383.801,310.177 384.844,313.918 385.887,329.416 386.929,333.384 387.972,235.617 389.015,238.094 390.058,298.089 391.101,302.64 392.144,348.471 393.187,351.785 394.23,171.553 395.272,177.639 396.315,208.576 397.358,210.501 398.401,276.771 399.444,278.729 400.487,259.068 401.53,261.422 402.573,236.627 403.616,241.188 404.658,232.953 405.701,236.096 406.744,257.732 407.787,262.202 408.83,222.253 409.873,224.137 410.916,257.432 411.959,261.289 413.001,278.432 414.044,281.329 415.087,304.222 416.13,307.111 417.173,310.938 418.216,314.115 419.259,251.618 420.302,257.363 421.344,223.933 422.387,225.967 423.43,228.837 424.473,232.414 425.516,204.798 426.559,208.823 427.602,118.897 428.645,120.888 429.687,152.356 430.73,153.372 431.773,211.039 432.816,213.501 433.859,99.8563 434.902,106.753 435.945,245.066 436.988,247.594 438.031,132.082 439.073,134.241 440.116,144.661 441.159,145.334 442.202,108.487 443.245,109.692 444.288,169.745 445.331,176.811 446.374,205.564 447.416,207.746 448.459,137.292 449.502,140.474 450.545,87.9763 451.588,92.2595 452.631,164.213 453.674,167.705 454.717,168.948 455.759,171.697 456.802,155.083 457.845,160.365 458.888,254.775 459.931,257.071 460.974,190.967 462.017,194.056 463.06,168.607 464.102,173.133 465.145,165.58 466.188,167.22 467.231,262.552 468.274,264.358 469.317,164.686 470.36,166.789 471.403,263.883 472.446,267.285 473.488,252.274 474.531,257.205 475.574,186.881 476.617,190.471 477.66,203.832 478.703,208.722 479.746,213.862 480.789,219.284 481.831,158.692 482.874,160.989 483.917,161.679 484.96,167.36 486.003,184.572 487.046,186.358 488.089,287.663 489.132,292.774 490.174,234.956 491.217,239.065 492.26,198.282 493.303,201.419 494.346,222.777 495.389,227.218 496.432,210.032 497.475,212.495 498.517,234.722 499.56,237.489 500.603,193.007 501.646,199.117 502.689,169.926 503.732,172.986 504.775,282.327 505.818,284.605 506.861,206.38 507.903,209.611 508.946,139.443 509.989,142.047 511.032,120.71 512.075,122.97 513.118,201.617 514.161,205.46 515.204,172.252 516.246,175.986 517.289,151.874 518.332,156.204 519.375,223.482 520.418,229.019 521.461,283.276 522.504,288.825 523.547,250.563 524.589,252.834 525.632,249.792 526.675,254.64 527.718,245.958 528.761,249.747 529.804,147.845 530.847,150.696 531.89,210.95 532.932,215.06 533.975,206.103 535.018,210.558 536.061,220.085 537.104,222.398 538.147,191.453 539.19,192.749 540.233,211.435 541.276,217.123 542.318,203.081 543.361,207.167 544.404,238.242 545.447,242.097 546.49,241.004 547.533,244.788 548.576,206.345 549.619,210.931 550.661,284.759 551.704,288.995 552.747,237.289 553.79,240.427 554.833,199.659 555.876,205.325 556.919,183.666 557.962,188.547 559.004,227.807 560.047,232.664 561.09,231.013 562.133,236.234 563.176,246.265 564.219,250.912 565.262,235.913 566.305,240.94 567.347,206.1 568.39,212.168 569.433,228.517 570.476,231.647 571.519,213.607 572.562,217.562 573.605,191.593 574.648,194.576 575.691,193.439 576.733,196.926 577.776,236.104 578.819,239.954 579.862,158.638 580.905,165.726 581.948,218.044 582.991,220.893 584.034,205.773 585.076,209.598 586.119,246.88 587.162,248.806 588.205,269.215 589.248,274.225 590.291,170.788 591.334,175.382 592.377,256.547 593.419,261.935 594.462,201.514 595.505,207.052 596.548,226.069 597.591,231.17 598.634,225.736 599.677,230.095 600.72,230.919 601.762,233.942 602.805,280.692 603.848,284.575 604.891,240.387 605.934,242.465 606.977,166.634 608.02,171.539 609.063,241.615 610.106,243.109 611.148,190.709 612.191,193.128 613.234,224.571 614.277,231.209 615.32,175.162 616.363,179.124 617.406,249.444 618.449,252.683 619.491,247.362 620.534,252.292 621.577,255.07 622.62,258.969 623.663,159.276 624.706,161.29 625.749,242.391 626.792,244.339 627.834,162.421 628.877,164.188 629.92,180.711 630.963,185.021 632.006,164.379 633.049,168.8 634.092,147.945 635.135,150.163 636.177,190.135 637.22,190.928 638.263,193.414 639.306,195.085 640.349,170.867 641.392,172.113 642.435,224.513 643.478,226.077 644.521,135.677 645.563,135.809 646.606,235.32 647.649,237.775 648.692,174.949 649.735,175.549 650.778,243.084 651.821,245.002 652.864,212.077 653.906,213.795 654.949,192.303 655.992,193.26 657.035,186.962 658.078,189.147 659.121,251.98 660.164,255.147 661.207,206.523 662.249,208.573 663.292,245.084 664.335,246.858 665.378,232.328 666.421,236.277 667.464,221.711 668.507,222.437 669.55,242.926 670.592,244.466 671.635,264.796 672.678,266.104 673.721,190.601 674.764,191.368 675.807,267.17 676.85,269.919 677.893,255.38 678.936,259.543 679.978,250.403 681.021,254.337 682.064,175.062 683.107,176.475 684.15,218.534 685.193,221.67 686.236,280.245 687.279,282.643 688.321,281.586 689.364,284.808 690.407,269.44 691.45,272.408 692.493,247.851 693.536,250.696 694.579,250.891 695.622,254.72 696.664,267.621 697.707,269.141 698.75,209.131 699.793,211.426 700.836,263.131 701.879,265.356 702.922,230.749 703.965,232.997 705.007,198.807 706.05,201.551 707.093,245.318 708.136,246.734 709.179,297.653 710.222,300.539 711.265,296.342 712.308,298.993 713.351,239.685 714.393,241.725 715.436,260.064 716.479,262.525 717.522,270.694 718.565,273.846 719.608,283.761 720.651,288.974 721.694,283.544 722.736,286.611 723.779,290.523 724.822,294.361 725.865,192.523 726.908,195.438 727.951,189.678 728.994,193.393 730.037,318.114 731.079,322.069 732.122,178.136 733.165,179.867 734.208,296.848 735.251,298.806 736.294,306.482 737.337,309.439 738.38,205.567 739.422,207.626 740.465,241.812 741.508,242.918 742.551,282.518 743.594,285.141 744.637,354.352 745.68,355.596 746.723,280.39 747.766,282.357 748.808,244.929 749.851,246.943 750.894,252.399 751.937,253.966 752.98,290.194 754.023,292.851 755.066,214.835 756.109,216.82 757.151,250.242 758.194,251.155 759.237,225.038 760.28,228.459 761.323,197.179 762.366,200.09 763.409,265.315 764.452,266.664 765.494,264.803 766.537,267.112 767.58,243.383 768.623,244.787 769.666,258.396 770.709,259.785 771.752,263.228 772.795,267.354 773.837,186.656 774.88,187.995 775.923,171.961 776.966,174.708 778.009,111.873 779.052,115.883 780.095,188.336 781.138,191.909 782.18,248.302 783.223,249.808 784.266,235.611 785.309,237.983 786.352,320.44 787.395,323.204 788.438,219.759 789.481,221.556 790.524,271.591 791.566,276.058 792.609,293.974 793.652,297.499 794.695,267.165 795.738,270.196 796.781,258.139 797.824,261.196 798.867,250.458 799.909,252.984 800.952,222.199 801.995,224.06 803.038,203.01 804.081,204.53 805.124,274.446 806.167,279.027 807.21,292.579 808.252,294.505 809.295,231.862 810.338,234.135 811.381,259.584 812.424,262.04 813.467,230.825 814.51,232.36 815.553,224.282 816.595,225.574 817.638,194.916 818.681,199.708 819.724,278.468 820.767,281.925 821.81,216.723 822.853,220.047 823.896,276.242 824.939,278.469 825.981,274.272 827.024,276.292 828.067,191.239 829.11,193.193 830.153,245.044 831.196,247.411 832.239,252.325 833.282,253.964 834.324,211.43 835.367,213.598 836.41,261.309 837.453,264.401 838.496,208.223 839.539,212.499 840.582,262.148 841.625,264.041 842.667,221.805 843.71,224.525 844.753,232.788 845.796,236.103 846.839,219.633 847.882,221.603 848.925,234.233 849.968,236.444 851.01,168.937 852.053,171.082 853.096,160.892 854.139,162.819 855.182,147.122 856.225,148.273 857.268,161.313 858.311,167.084 859.354,244.575 860.396,248.284 861.439,158.97 862.482,162.436 863.525,202.046 864.568,202.686 865.611,177.845 866.654,180.332 867.697,172.145 868.739,173.709 869.782,188.351 870.825,190.362 871.868,196.597 872.911,199.651 873.954,223.11 874.997,225.538 876.04,206.84 877.082,209.485 878.125,279.305 879.168,282.993 880.211,217.14 881.254,219.72 882.297,187.887 883.34,188.895 884.383,191.542 885.425,193.306 886.468,189.043 887.511,191.537 888.554,224.336 889.597,225.679 890.64,273.758 891.683,276.395 892.726,184.338 893.769,186.228 894.811,219.588 895.854,222.045 896.897,209.466 897.94,210.6 898.983,173.648 900.026,175.073 901.069,220.563 902.112,222.031 903.154,211.843 904.197,213.585 905.24,214.509 906.283,216.688 907.326,239.818 908.369,241.633 909.412,217.778 910.455,219.553 911.497,216.487 912.54,221.605 913.583,213.64 914.626,214.946 915.669,245.693 916.712,247.04 917.755,167.766 918.798,169.091 919.84,249.674 920.883,251.032 921.926,249.034 922.969,251.025 924.012,224.278 925.055,228.325 926.098,238.852 927.141,242.512 928.184,251.358 929.226,253.71 930.269,245.545 931.312,247.161 932.355,213.899 933.398,218.75 934.441,213.184 935.484,214.509 936.527,250.14 937.569,251.602 938.612,273.694 939.655,276.871 940.698,285.239 941.741,287.45 942.784,257.131 943.827,260.468 944.87,235.106 945.912,239.357 946.955,268.483 947.998,270.059 949.041,248.663 950.084,250.003 951.127,270.707 952.17,273.669 953.213,263.702 954.255,266.747 955.298,280.255 956.341,282.599 957.384,234.47 958.427,236.217 959.47,218.621 960.513,220.868 961.556,229.503 962.599,233.077 963.641,275.689 964.684,278.458 965.727,337.555 966.77,340.44 967.813,233.535 968.856,237.416 969.899,255.417 970.942,258.688 971.984,245.21 973.027,249.665 974.07,276.378 975.113,279.438 976.156,195.955 977.199,197.832 978.242,220.709 979.285,222.386 980.327,244.462 981.37,247.212 982.413,265.871 983.456,267.099 984.499,216.696 985.542,219.936 986.585,228.673 987.628,230.699 988.67,168.088 989.713,170 990.756,175.977 991.799,178.352 992.842,186.195 993.885,190.125 994.928,258.948 995.971,261.853 997.014,220.334 998.056,222.117 999.099,265.429 1000.14,268.454 1001.19,234.046 1002.23,236.143 1003.27,230.739 1004.31,232.712 1005.36,196.308 1006.4,197.895 1007.44,184.393 1008.49,185.169 1009.53,190.507 1010.57,191.226 1011.61,138.896 1012.66,140.17 1013.7,252.55 1014.74,253.812 1015.79,207.653 1016.83,210.256 1017.87,224.805 1018.91,226.165 1019.96,282.691 1021,286.29 1022.04,266.082 1023.09,268.595 1024.13,234.935 1025.17,236.132 1026.21,285.262 1027.26,286.567 1028.3,231.94 1029.34,232.953 1030.39,259.08 1031.43,260.216 1032.47,223.218 1033.51,224.68 1034.56,219.022 1035.6,220.835 1036.64,203.292 1037.69,204.042 1038.73,173.211 1039.77,174.16 1040.81,245.026 1041.86,246.858 1042.9,204.593 1043.94,205.861 1044.99,208.678 1046.03,209.566 1047.07,162.963 1048.11,165.602 1049.16,229.642 1050.2,231.047 1051.24,218.324 1052.29,219.664 1053.33,244.43 1054.37,247.856 1055.41,213.605 1056.46,215.879 1057.5,225.557 1058.54,226.977 1059.59,210.729 1060.63,212.082 1061.67,186.952 1062.71,189.984 1063.76,230.623 1064.8,232.678 1065.84,184.493 1066.89,185.454 1067.93,262.111 1068.97,262.883 1070.02,193.577 1071.06,194.858 1072.1,173.781 1073.14,174.654 1074.19,278.709 1075.23,280.832 1076.27,186.746 1077.32,187.881 1078.36,136.785 1079.4,137.614 1080.44,198.744 1081.49,200.166 1082.53,277.133 1083.57,279.495 1084.62,266.568 1085.66,269.163 1086.7,229.331 1087.74,233.937 1088.79,234.554 1089.83,237.1 1090.87,223.582 1091.92,227 1092.96,170.045 1094,174.837 1095.04,232.305 1096.09,236.003 1097.13,245.585 1098.17,250.657 1099.22,208.325 1100.26,212.142 1101.3,228.316 1102.34,234.197 1103.39,234.434 1104.43,236.418 1105.47,227.458 1106.52,228.757 1107.56,265.361 1108.6,266.176 1109.64,224.76 1110.69,227.357 1111.73,211.997 1112.77,214.659 1113.82,107.454 1114.86,109.93 1115.9,170.401 1116.94,172.577 1117.99,163.347 1119.03,165.283 1120.07,229.67 1121.12,232.274 1122.16,170.849 1123.2,171.716 1124.24,201.881 1125.29,202.864 1126.33,199.024 1127.37,200.193 1128.42,247.608 1129.46,250.532 1130.5,211.82 1131.54,212.508 1132.59,179.523 1133.63,179.581 1134.67,199.293 1135.72,200.875 1136.76,201.888 1137.8,203.165 1138.85,227.859 1139.89,229.496 1140.93,139.464 1141.97,140.976 1143.02,140.793 1144.06,142.787 1145.1,172.864 1146.15,173.707 1147.19,218.515 1148.23,220.566 1149.27,182.304 1150.32,184.668 1151.36,155.961 1152.4,157.778 1153.45,197.273 1154.49,198.868 1155.53,215.447 1156.57,216.706 1157.62,232.896 1158.66,235.06 1159.7,226.456 1160.75,228.089 1161.79,197.37 1162.83,199.145 1163.87,254.642 1164.92,257.256 1165.96,245.15 1167,246.557 1168.05,263.43 1169.09,265.849 1170.13,193.664 1171.17,198.016 1172.22,206.671 1173.26,208.559 1174.3,210.303 1175.35,213.407 1176.39,226.374 1177.43,227.576 1178.47,211.318 1179.52,212.971 1180.56,198.016 1181.6,199.11 1182.65,259.341 1183.69,260.734 1184.73,145.558 1185.77,148.476 1186.82,236.849 1187.86,238.203 1188.9,185.537 1189.95,188.551 1190.99,236.407 1192.03,238.667 1193.07,218.177 1194.12,220.488 1195.16,181.109 1196.2,183.041 1197.25,176.741 1198.29,179.428 1199.33,157.124 1200.37,158.402 1201.42,247.869 1202.46,249.668 1203.5,175.802 1204.55,177.095 1205.59,195.651 1206.63,198.824 1207.68,187.049 1208.72,189.293 1209.76,198.923 1210.8,201.483 1211.85,201.481 1212.89,203.155 1213.93,245.102 1214.98,247.866 1216.02,190.807 1217.06,192.815 1218.1,267.492 1219.15,269.413 1220.19,216.693 1221.23,218.148 1222.28,234.315 1223.32,235.831 1224.36,192.653 1225.4,193.894 1226.45,259.719 1227.49,261.925 1228.53,270.849 1229.58,272.351 1230.62,244.758 1231.66,246.287 1232.7,175.581 1233.75,176.472 1234.79,264.795 1235.83,265.873 1236.88,218.345 1237.92,219.923 1238.96,237.452 1240,238.735 1241.05,254.16 1242.09,255.27 1243.13,217.384 1244.18,218.711 1245.22,190.653 1246.26,191.471 1247.3,212.933 1248.35,215.524 1249.39,205.265 1250.43,206.821 1251.48,174.858 1252.52,176.381 1253.56,248.762 1254.6,249.814 1255.65,243.129 1256.69,245.202 1257.73,180.903 1258.78,183.948 1259.82,216.58 1260.86,218.428 1261.9,202.053 1262.95,204.467 1263.99,270.079 1265.03,271.581 1266.08,254.62 1267.12,257.669 1268.16,285.032 1269.2,287.728 1270.25,323.22 1271.29,325.151 1272.33,246.31 1273.38,248.437 1274.42,312.692 1275.46,314.41 1276.51,252.066 1277.55,254.978 1278.59,214.787 1279.63,217.037 1280.68,254.4 1281.72,257.369 1282.76,229.65 1283.81,232.755 1284.85,283.402 1285.89,285.675 1286.93,239.924 1287.98,242.854 1289.02,234.818 1290.06,238.332 1291.11,251.967 1292.15,253.472 1293.19,261.294 1294.23,261.905 1295.28,247.184 1296.32,249.295 1297.36,264.29 1298.41,265.194 1299.45,237.472 1300.49,239.024 1301.53,268.237 1302.58,271.13 1303.62,228.555 1304.66,230.747 1305.71,205.041 1306.75,207.18 1307.79,238.314 1308.83,239.521 1309.88,144.14 1310.92,144.836 1311.96,240.481 1313.01,242.508 1314.05,254.223 1315.09,256.983 1316.13,178.057 1317.18,181.583 1318.22,253.018 1319.26,253.97 1320.31,240.765 1321.35,243.071 1322.39,212.573 1323.43,215.231 1324.48,229.515 1325.52,230.579 1326.56,237.184 1327.61,239.74 1328.65,244.845 1329.69,247.756 1330.73,212.603 1331.78,214.909 1332.82,197.839 1333.86,202.106 1334.91,197.066 1335.95,198.387 1336.99,276.115 1338.03,278.156 1339.08,176.965 1340.12,178.657 1341.16,237.463 1342.21,238.872 1343.25,221.091 1344.29,222.938 1345.34,209.862 1346.38,210.75 1347.42,202.332 1348.46,203.473 1349.51,195.674 1350.55,199.6 1351.59,292.987 1352.64,295.659 1353.68,298.281 1354.72,300.295 1355.76,305.452 1356.81,309.735 1357.85,263.334 1358.89,265.651 1359.94,196.899 1360.98,199.082 1362.02,233.605 1363.06,237.125 1364.11,246.206 1365.15,248.076 1366.19,280.193 1367.24,281.574 1368.28,281.79 1369.32,282.951 1370.36,282.047 1371.41,283.886 1372.45,233.347 1373.49,235.423 1374.54,229.443 1375.58,230.068 1376.62,213.095 1377.66,213.918 1378.71,226.642 1379.75,228.455 1380.79,218.736 1381.84,220.212 1382.88,256.487 1383.92,257.469 1384.96,251.739 1386.01,253.102 1387.05,292.978 1388.09,298.842 1389.14,321.047 1390.18,322.734 1391.22,276.763 1392.26,278.887 1393.31,267.777 1394.35,270.766 1395.39,248.924 1396.44,252.002 1397.48,201.276 1398.52,202.854 1399.56,284.341 1400.61,285.776 1401.65,212.087 1402.69,215.665 1403.74,269.013 1404.78,271.11 1405.82,264.587 1406.86,266.068 1407.91,234.129 1408.95,235.853 1409.99,244.442 1411.04,247.509 1412.08,235.936 1413.12,238.06 1414.17,208.636 1415.21,210.589 1416.25,220.813 1417.29,222.535 1418.34,293.137 1419.38,295.493 1420.42,223.718 1421.47,224.89 1422.51,222.564 1423.55,224.185 1424.59,223.371 1425.64,225.605 1426.68,291.665 1427.72,294.207 1428.77,220.996 1429.81,222.95 1430.85,247.727 1431.89,250.774 1432.94,195.911 1433.98,197.151 1435.02,205.536 1436.07,206.713 1437.11,218.033 1438.15,220.271 1439.19,220.379 1440.24,221.297 1441.28,245.092 1442.32,246.095 1443.37,193.37 1444.41,195.855 1445.45,250.823 1446.49,253.755 1447.54,288.863 1448.58,290.593 1449.62,298.212 1450.67,301.751 1451.71,238.565 1452.75,242.237 1453.79,268.028 1454.84,270.289 1455.88,236.808 1456.92,239.259 1457.97,289.192 1459.01,292.265 1460.05,258.813 1461.09,264.133 1462.14,262.078 1463.18,263.466 1464.22,263.677 1465.27,265.6 1466.31,266.473 1467.35,267.746 1468.39,209.521 1469.44,211.29 1470.48,288.91 1471.52,290.023 1472.57,243.927 1473.61,246.737 1474.65,238.626 1475.69,240.215 1476.74,219.147 1477.78,220.838 1478.82,240.455 1479.87,243.222 1480.91,263.975 1481.95,266.698 1483,241.086 1484.04,242.836 1485.08,278.927 1486.12,280.393 1487.17,227.968 1488.21,229.087 1489.25,235.447 1490.3,236.75 1491.34,244.481 1492.38,246.29 1493.42,243.481 1494.47,246.45 1495.51,304.123 1496.55,306.653 1497.6,271.927 1498.64,274.639 1499.68,255.834 1500.72,258.144 1501.77,258.51 1502.81,261.105 1503.85,202.244 1504.9,203.792 1505.94,263.354 1506.98,264.935 1508.02,240.154 1509.07,243.05 1510.11,239.364 1511.15,241.484 1512.2,245.852 1513.24,248.785 1514.28,293.947 1515.32,295.832 1516.37,325.364 1517.41,326.057 1518.45,306.091 1519.5,306.967 1520.54,226.087 1521.58,228.018 1522.62,258.561 1523.67,260.112 1524.71,270.83 1525.75,273.296 1526.8,234.547 1527.84,236.19 1528.88,285.224 1529.92,288.161 1530.97,313.046 1532.01,315.772 1533.05,273.047 1534.1,274.94 1535.14,266.522 1536.18,267.808 1537.22,297.159 1538.27,301.455 1539.31,231.454 1540.35,234.74 1541.4,240.109 1542.44,241.219 1543.48,276.396 1544.52,277.44 1545.57,279.836 1546.61,281.225 1547.65,235.906 1548.7,240.423 1549.74,288.01 1550.78,290.621 1551.83,268.453 1552.87,270.921 1553.91,234.735 1554.95,235.992 1556,224.217 1557.04,227.646 1558.08,249.765 1559.13,252.489 1560.17,256.473 1561.21,259.238 1562.25,250.521 1563.3,251.612 1564.34,213.518 1565.38,216.695 1566.43,239.22 1567.47,240.763 1568.51,211.552 1569.55,213.255 1570.6,210.728 1571.64,211.935 1572.68,228.141 1573.73,229.921 1574.77,236.787 1575.81,238.072 1576.85,265.024 1577.9,268.397 1578.94,262.525 1579.98,264.31 1581.03,189.382 1582.07,190.516 1583.11,298.763 1584.15,300.412 1585.2,293.052 1586.24,295.931 1587.28,213.618 1588.33,215.409 1589.37,250.011 1590.41,251.773 1591.45,236.588 1592.5,238.75 1593.54,199.835 1594.58,205.171 1595.63,205.919 1596.67,208.094 1597.71,256.544 1598.75,257.691 1599.8,199.884 1600.84,203.748 1601.88,235.188 1602.93,237.75 1603.97,301.703 1605.01,305.502 1606.05,254.409 1607.1,256.069 1608.14,308.328 1609.18,311.98 1610.23,256.106 1611.27,261.729 1612.31,296.215 1613.35,299.781 1614.4,234.849 1615.44,238.304 1616.48,198.719 1617.53,201.433 1618.57,229.365 1619.61,230.627 1620.66,197.35 1621.7,199.834 1622.74,231.82 1623.78,235.936 1624.83,244.259 1625.87,247.256 1626.91,226.023 1627.96,230.552 1629,222.637 1630.04,225.19 1631.08,173.076 1632.13,174.14 1633.17,202.356 1634.21,204.605 1635.26,192.286 1636.3,194.629 1637.34,218.263 1638.38,221.719 1639.43,216.557 1640.47,219.125 1641.51,199.467 1642.56,202.126 1643.6,209.248 1644.64,210.743 1645.68,167.601 1646.73,169.127 1647.77,210.934 1648.81,212.173 1649.86,209.263 1650.9,210.069 1651.94,163.179 1652.98,163.741 1654.03,194.203 1655.07,195.857 1656.11,140.789 1657.16,143.973 1658.2,206.136 1659.24,209.094 1660.28,167.44 1661.33,169.785 1662.37,214.962 1663.41,217.941 1664.46,201.277 1665.5,204.761 1666.54,243.758 1667.58,246.408 1668.63,205.511 1669.67,206.82 1670.71,206.638 1671.76,208.319 1672.8,259.42 1673.84,261.211 1674.88,239.563 1675.93,242.005 1676.97,243.425 1678.01,245.069 1679.06,252.371 1680.1,255.646 1681.14,237.698 1682.18,238.553 1683.23,176.002 1684.27,177.551 1685.31,149.806 1686.36,150.668 1687.4,186.111 1688.44,187.079 1689.49,216.537 1690.53,218.731 1691.57,230.383 1692.61,231.905 1693.66,214.113 1694.7,217.758 1695.74,175.535 1696.79,176.342 1697.83,217.047 1698.87,217.786 1699.91,232.709 1700.96,234.091 1702,168.721 1703.04,169.67 1704.09,203.587 1705.13,205.075 1706.17,164.789 1707.21,166.85 1708.26,176.539 1709.3,179.166 1710.34,250.853 1711.39,254.239 1712.43,246.426 1713.47,249.969 1714.51,192.41 1715.56,193.4 1716.6,231.227 1717.64,232.661 1718.69,258.269 1719.73,259.288 1720.77,213.495 1721.81,216.831 1722.86,246.824 1723.9,248.516 1724.94,263.375 1725.99,264.88 1727.03,248.429 1728.07,250.222 1729.11,209.43 1730.16,210.901 1731.2,195.901 1732.24,197.066 1733.29,197.164 1734.33,198.615 1735.37,204.382 1736.41,205.815 1737.46,264.222 1738.5,265.21 1739.54,266.011 1740.59,269.887 1741.63,222.646 1742.67,224.932 1743.71,195.328 1744.76,196.494 1745.8,236.782 1746.84,238.206 1747.89,216.154 1748.93,217.914 1749.97,229.002 1751.01,230.192 1752.06,186.039 1753.1,187.036 1754.14,206.399 1755.19,208.471 1756.23,252.25 1757.27,253.78 1758.32,253.327 1759.36,254.534 1760.4,221.206 1761.44,222.491 1762.49,243.838 1763.53,244.944 1764.57,184.272 1765.62,185.791 1766.66,225.766 1767.7,228.843 1768.74,261.381 1769.79,263.777 1770.83,233.712 1771.87,235.364 1772.92,237.51 1773.96,238.421 1775,282.12 1776.04,285.804 1777.09,291.698 1778.13,293.553 1779.17,222.137 1780.22,225.289 1781.26,288.636 1782.3,290.064 1783.34,209.058 1784.39,210.869 1785.43,217.907 1786.47,218.892 1787.52,241.442 1788.56,243.61 1789.6,250.423 1790.64,252.181 1791.69,191.52 1792.73,194.894 1793.77,214.352 1794.82,218.139 1795.86,267.516 1796.9,269.874 1797.94,276.014 1798.99,276.69 1800.03,260.456 1801.07,264.051 1802.12,255.603 1803.16,257.698 1804.2,249.335 1805.24,252.27 1806.29,226.434 1807.33,228.98 1808.37,224.902 1809.42,226.536 1810.46,284.294 1811.5,286.156 1812.54,246.278 1813.59,249.756 1814.63,193.493 1815.67,196.528 1816.72,281.436 1817.76,284.064 1818.8,251.66 1819.84,254.253 1820.89,194.66 1821.93,196.105 1822.97,240.996 1824.02,242.924 1825.06,232.902 1826.1,235.404 1827.15,194.253 1828.19,195.759 1829.23,194.271 1830.27,198.337 1831.32,276.827 1832.36,278.717 1833.4,299.883 1834.45,301.133 1835.49,201.852 1836.53,203.423 1837.57,253 1838.62,254.421 1839.66,192.181 1840.7,195.128 1841.75,304.325 1842.79,306.099 1843.83,224.699 1844.87,227.772 1845.92,287.556 1846.96,291.715 1848,249.735 1849.05,252.397 1850.09,306.921 1851.13,308.078 1852.17,221.27 1853.22,223.481 1854.26,226.989 1855.3,229.118 1856.35,256.267 1857.39,258.246 1858.43,210.415 1859.47,211.826 1860.52,228.279 1861.56,230.021 1862.6,199.476 1863.65,200.969 1864.69,253.777 1865.73,254.944 1866.77,255.648 1867.82,257.268 1868.86,258.805 1869.9,260.721 1870.95,252.898 1871.99,254.169 1873.03,202.548 1874.07,203.481 1875.12,170.487 1876.16,171.636 1877.2,243.442 1878.25,245.688 1879.29,226.066 1880.33,227.206 1881.37,236.184 1882.42,238.084 1883.46,251.24 1884.5,252.487 1885.55,247.464 1886.59,249.064 1887.63,208.618 1888.67,209.557 1889.72,228.489 1890.76,231.108 1891.8,264.362 1892.85,265.95 1893.89,268.789 1894.93,270.997 1895.98,201.561 1897.02,202.306 1898.06,219.32 1899.1,220.654 1900.15,246.257 1901.19,247.47 1902.23,253.313 1903.28,254.723 1904.32,268.443 1905.36,269.637 1906.4,226.005 1907.45,226.784 1908.49,231.348 1909.53,232.488 1910.58,219.099 1911.62,220.8 1912.66,248.378 1913.7,249.488 1914.75,243.299 1915.79,244.826 1916.83,265.05 1917.88,266.681 1918.92,270.812 1919.96,272.367 1921,263.74 1922.05,266.135 1923.09,169.535 1924.13,172.697 1925.18,279.969 1926.22,282.182 1927.26,277.432 1928.3,279.346 1929.35,221.792 1930.39,223.483 1931.43,270.279 1932.48,270.936 1933.52,276.225 1934.56,277.569 1935.6,316.109 1936.65,317.768 1937.69,238.819 1938.73,239.71 1939.78,258.828 1940.82,261.177 1941.86,265.274 1942.9,266.32 1943.95,331.081 1944.99,332.868 1946.03,283.249 1947.08,285.147 1948.12,261.401 1949.16,263.985 1950.2,280.676 1951.25,282.162 1952.29,341.192 1953.33,343.637 1954.38,311.794 1955.42,313.491 1956.46,287.554 1957.5,291.351 1958.55,294.878 1959.59,296.368 1960.63,286.273 1961.68,288.732 1962.72,288.214 1963.76,290.214 1964.81,280.76 1965.85,282.652 1966.89,279.473 1967.93,280.79 1968.98,317.713 1970.02,319.507 1971.06,246.77 1972.11,248.412 1973.15,327.326 1974.19,330.471 1975.23,295.451 1976.28,298.368 1977.32,282.934 1978.36,284.805 1979.41,359.213 1980.45,361.696 1981.49,284.377 1982.53,287.462 1983.58,299.937 1984.62,303.272 1985.66,311.064 1986.71,313.778 1987.75,289.067 1988.79,290.242 1989.83,245.522 1990.88,248.943 1991.92,288.08 1992.96,290.187 1994.01,260.507 1995.05,261.926 1996.09,336.675 1997.13,340.25 1998.18,281.747 1999.22,284.276 2000.26,249.938 2001.31,252.796 2002.35,255.771 2003.39,257.731 2004.43,248.481 2005.48,251.27 2006.52,302.027 2007.56,302.771 2008.61,258.212 2009.65,259.3 2010.69,256.634 2011.73,258.507 2012.78,321.114 2013.82,321.887 2014.86,251.32 2015.91,252.492 2016.95,308.71 2017.99,313.805 2019.03,293.889 2020.08,295.594 2021.12,286.257 2022.16,288.204 2023.21,235.496 2024.25,237.163 2025.29,245.987 2026.33,247.868 2027.38,242.03 2028.42,247.201 2029.46,278.329 2030.51,280.166 2031.55,290.964 2032.59,292.976 2033.64,300.188 2034.68,303.04 2035.72,300.665 2036.76,303.602 2037.81,260.072 2038.85,261.608 2039.89,232.233 2040.94,234.885 2041.98,266.311 2043.02,268.63 2044.06,285.213 2045.11,288.176 2046.15,263.031 2047.19,266.817 2048.24,269.936 2049.28,271.941 2050.32,269.255 2051.36,272.219 2052.41,322.052 2053.45,323.4 2054.49,273.956 2055.54,275.957 2056.58,288.262 2057.62,290.987 2058.66,303.224 2059.71,306.132 2060.75,319.35 2061.79,322.564 2062.84,314.474 2063.88,316.128 2064.92,291.598 2065.96,292.981 2067.01,266.971 2068.05,270.212 2069.09,241.636 2070.14,244.924 2071.18,282.93 2072.22,286.463 2073.26,223.199 2074.31,225.274 2075.35,245.499 2076.39,247.015 2077.44,276.237 2078.48,277.893 2079.52,268.028 2080.56,268.91 2081.61,275.422 2082.65,277.259 2083.69,261.367 2084.74,263.727 2085.78,316.869 2086.82,317.788 2087.86,223.887 2088.91,224.864 2089.95,298.133 2090.99,301.408 2092.04,287.429 2093.08,288.988 2094.12,207.103 2095.16,209.184 2096.21,252.287 2097.25,254.433 2098.29,225.79 2099.34,227.604 2100.38,248.441 2101.42,250.013 2102.47,322.783 2103.51,324.685 2104.55,276.745 2105.59,278.504 2106.64,255.625 2107.68,257.695 2108.72,273.552 2109.77,275.682 2110.81,278.618 2111.85,281.189 2112.89,213.336 2113.94,214.377 2114.98,258.27 2116.02,259.78 2117.07,189.061 2118.11,190.967 2119.15,306.098 2120.19,308.651 2121.24,238.815 2122.28,240.512 2123.32,239.589 2124.37,241.367 2125.41,260.974 2126.45,263.305 2127.49,238.057 2128.54,239.121 2129.58,262.784 2130.62,268.276 2131.67,228.747 2132.71,230.497 2133.75,271.566 2134.79,273.09 2135.84,206.118 2136.88,207.337 2137.92,278.999 2138.97,280.197 2140.01,230.711 2141.05,232.042 2142.09,262.39 2143.14,262.677 2144.18,221.893 2145.22,222.763 2146.27,266.777 2147.31,268.171 2148.35,240.281 2149.39,241.069 2150.44,236.824 2151.48,239.038 2152.52,248.43 2153.57,249.502 2154.61,205.723 2155.65,206.478 2156.69,256.169 2157.74,257.112 2158.78,266.84 2159.82,267.753 2160.87,215.303 2161.91,216.041 2162.95,260.556 2163.99,264.129 2165.04,248.555 2166.08,250.05 2167.12,260.956 2168.17,262.598 2169.21,236.514 2170.25,237.576 2171.3,179.476 2172.34,179.612 2173.38,270.034 2174.42,271.24 2175.47,272.139 2176.51,273.862 2177.55,256.44 2178.6,258.031 2179.64,321.817 2180.68,325.373 2181.72,334.27 2182.77,335.483 2183.81,308.845 2184.85,311.408 2185.9,320.431 2186.94,322.828 2187.98,270.265 2189.02,272.214 2190.07,282.711 2191.11,283.551 2192.15,221.455 2193.2,224.75 2194.24,234.262 2195.28,235.894 2196.32,232.312 2197.37,233.871 2198.41,252.971 2199.45,254.636 2200.5,182.925 2201.54,184.748 2202.58,229.771 2203.62,230.939 2204.67,258.465 2205.71,261.561 2206.75,248.49 2207.8,250.368 2208.84,275.462 2209.88,276.553 2210.92,282.553 2211.97,285.462 2213.01,252.636 2214.05,256.636 2215.1,287.991 2216.14,289.708 2217.18,282.018 2218.22,284.693 2219.27,214.09 2220.31,215.723 2221.35,272.366 2222.4,274.926 2223.44,235.683 2224.48,239.516 2225.52,264.444 2226.57,267.89 2227.61,308.394 2228.65,313.536 2229.7,256.563 2230.74,258.988 2231.78,256.76 2232.82,259.769 2233.87,253.919 2234.91,255.311 2235.95,191.823 2237,192.663 2238.04,144.634 2239.08,149.078 2240.12,285.756 2241.17,287.686 2242.21,204.24 2243.25,205.973 2244.3,271.56 2245.34,273.468 2246.38,228.581 2247.43,230.306 2248.47,239.701 2249.51,241.502 2250.55,240.251 2251.6,241.785 2252.64,234.859 2253.68,238.309 2254.73,220.748 2255.77,222.663 2256.81,231.31 2257.85,234.254 2258.9,190.403 2259.94,192.692 2260.98,231.846 2262.03,232.94 2263.07,261.558 2264.11,263.735 2265.15,265.587 2266.2,267.396 2267.24,272.584 2268.28,275.119 2269.33,200.8 2270.37,203.588 2271.41,246.568 2272.45,249.642 2273.5,230.234 2274.54,231.998 2275.58,258.63 2276.63,265.62 2277.67,261.798 2278.71,263.526 2279.75,240.194 2280.8,243.613 2281.84,253.039 2282.88,255.739 2283.93,281.548 2284.97,283.673 2286.01,229.132 2287.05,231.354 2288.1,268.922 2289.14,275.156 2290.18,277.937 "/>
<path clip-path="url(#clip570)" d="M2005.54 1438.47 L2279.06 1438.47 L2279.06 1334.79 L2005.54 1334.79  Z" fill="#ffffff" fill-rule="evenodd" fill-opacity="1"/>
<polyline clip-path="url(#clip570)" style="stroke:#000000; stroke-linecap:round; stroke-linejoin:round; stroke-width:4; stroke-opacity:1; fill:none" points="2005.54,1438.47 2279.06,1438.47 2279.06,1334.79 2005.54,1334.79 2005.54,1438.47 "/>
<polyline clip-path="url(#clip570)" style="stroke:#009af9; stroke-linecap:round; stroke-linejoin:round; stroke-width:4; stroke-opacity:1; fill:none" points="2030.1,1386.63 2177.5,1386.63 "/>
<path clip-path="url(#clip570)" d="M2215.91 1406.32 Q2214.1 1410.95 2212.39 1412.36 Q2210.67 1413.78 2207.8 1413.78 L2204.4 1413.78 L2204.4 1410.21 L2206.9 1410.21 Q2208.66 1410.21 2209.63 1409.38 Q2210.6 1408.54 2211.79 1405.44 L2212.55 1403.5 L2202.06 1377.99 L2206.58 1377.99 L2214.68 1398.27 L2222.78 1377.99 L2227.29 1377.99 L2215.91 1406.32 Z" fill="#000000" fill-rule="nonzero" fill-opacity="1" /><path clip-path="url(#clip570)" d="M2234.59 1399.98 L2242.23 1399.98 L2242.23 1373.61 L2233.91 1375.28 L2233.91 1371.02 L2242.18 1369.35 L2246.85 1369.35 L2246.85 1399.98 L2254.49 1399.98 L2254.49 1403.91 L2234.59 1403.91 L2234.59 1399.98 Z" fill="#000000" fill-rule="nonzero" fill-opacity="1" /></svg>
