<?xml version="1.0" encoding="utf-8"?>
<svg xmlns="http://www.w3.org/2000/svg" xmlns:xlink="http://www.w3.org/1999/xlink" width="600" height="400" viewBox="0 0 2400 1600">
<defs>
  <clipPath id="clip060">
    <rect x="0" y="0" width="2400" height="1600"/>
  </clipPath>
</defs>
<path clip-path="url(#clip060)" d="M0 1600 L2400 1600 L2400 0 L0 0  Z" fill="#ffffff" fill-rule="evenodd" fill-opacity="1"/>
<defs>
  <clipPath id="clip061">
    <rect x="480" y="0" width="1681" height="1600"/>
  </clipPath>
</defs>
<path clip-path="url(#clip060)" d="M184.191 1486.45 L2352.76 1486.45 L2352.76 47.2441 L184.191 47.2441  Z" fill="#ffffff" fill-rule="evenodd" fill-opacity="1"/>
<defs>
  <clipPath id="clip062">
    <rect x="184" y="47" width="2170" height="1440"/>
  </clipPath>
</defs>
<polyline clip-path="url(#clip062)" style="stroke:#000000; stroke-linecap:round; stroke-linejoin:round; stroke-width:2; stroke-opacity:0.1; fill:none" points="245.565,1486.45 245.565,47.2441 "/>
<polyline clip-path="url(#clip062)" style="stroke:#000000; stroke-linecap:round; stroke-linejoin:round; stroke-width:2; stroke-opacity:0.1; fill:none" points="757.019,1486.45 757.019,47.2441 "/>
<polyline clip-path="url(#clip062)" style="stroke:#000000; stroke-linecap:round; stroke-linejoin:round; stroke-width:2; stroke-opacity:0.1; fill:none" points="1268.47,1486.45 1268.47,47.2441 "/>
<polyline clip-path="url(#clip062)" style="stroke:#000000; stroke-linecap:round; stroke-linejoin:round; stroke-width:2; stroke-opacity:0.1; fill:none" points="1779.93,1486.45 1779.93,47.2441 "/>
<polyline clip-path="url(#clip062)" style="stroke:#000000; stroke-linecap:round; stroke-linejoin:round; stroke-width:2; stroke-opacity:0.1; fill:none" points="2291.38,1486.45 2291.38,47.2441 "/>
<polyline clip-path="url(#clip060)" style="stroke:#000000; stroke-linecap:round; stroke-linejoin:round; stroke-width:4; stroke-opacity:1; fill:none" points="184.191,1486.45 2352.76,1486.45 "/>
<polyline clip-path="url(#clip060)" style="stroke:#000000; stroke-linecap:round; stroke-linejoin:round; stroke-width:4; stroke-opacity:1; fill:none" points="245.565,1486.45 245.565,1467.55 "/>
<polyline clip-path="url(#clip060)" style="stroke:#000000; stroke-linecap:round; stroke-linejoin:round; stroke-width:4; stroke-opacity:1; fill:none" points="757.019,1486.45 757.019,1467.55 "/>
<polyline clip-path="url(#clip060)" style="stroke:#000000; stroke-linecap:round; stroke-linejoin:round; stroke-width:4; stroke-opacity:1; fill:none" points="1268.47,1486.45 1268.47,1467.55 "/>
<polyline clip-path="url(#clip060)" style="stroke:#000000; stroke-linecap:round; stroke-linejoin:round; stroke-width:4; stroke-opacity:1; fill:none" points="1779.93,1486.45 1779.93,1467.55 "/>
<polyline clip-path="url(#clip060)" style="stroke:#000000; stroke-linecap:round; stroke-linejoin:round; stroke-width:4; stroke-opacity:1; fill:none" points="2291.38,1486.45 2291.38,1467.55 "/>
<path clip-path="url(#clip060)" d="M245.565 1517.37 Q241.954 1517.37 240.125 1520.93 Q238.32 1524.47 238.32 1531.6 Q238.32 1538.71 240.125 1542.27 Q241.954 1545.82 245.565 1545.82 Q249.199 1545.82 251.005 1542.27 Q252.834 1538.71 252.834 1531.6 Q252.834 1524.47 251.005 1520.93 Q249.199 1517.37 245.565 1517.37 M245.565 1513.66 Q251.375 1513.66 254.431 1518.27 Q257.51 1522.85 257.51 1531.6 Q257.51 1540.33 254.431 1544.94 Q251.375 1549.52 245.565 1549.52 Q239.755 1549.52 236.676 1544.94 Q233.621 1540.33 233.621 1531.6 Q233.621 1522.85 236.676 1518.27 Q239.755 1513.66 245.565 1513.66 Z" fill="#000000" fill-rule="nonzero" fill-opacity="1" /><path clip-path="url(#clip060)" d="M701.545 1544.91 L709.184 1544.91 L709.184 1518.55 L700.874 1520.21 L700.874 1515.95 L709.138 1514.29 L713.813 1514.29 L713.813 1544.91 L721.452 1544.91 L721.452 1548.85 L701.545 1548.85 L701.545 1544.91 Z" fill="#000000" fill-rule="nonzero" fill-opacity="1" /><path clip-path="url(#clip060)" d="M740.897 1517.37 Q737.286 1517.37 735.457 1520.93 Q733.651 1524.47 733.651 1531.6 Q733.651 1538.71 735.457 1542.27 Q737.286 1545.82 740.897 1545.82 Q744.531 1545.82 746.336 1542.27 Q748.165 1538.71 748.165 1531.6 Q748.165 1524.47 746.336 1520.93 Q744.531 1517.37 740.897 1517.37 M740.897 1513.66 Q746.707 1513.66 749.762 1518.27 Q752.841 1522.85 752.841 1531.6 Q752.841 1540.33 749.762 1544.94 Q746.707 1549.52 740.897 1549.52 Q735.086 1549.52 732.008 1544.94 Q728.952 1540.33 728.952 1531.6 Q728.952 1522.85 732.008 1518.27 Q735.086 1513.66 740.897 1513.66 Z" fill="#000000" fill-rule="nonzero" fill-opacity="1" /><path clip-path="url(#clip060)" d="M771.059 1517.37 Q767.447 1517.37 765.619 1520.93 Q763.813 1524.47 763.813 1531.6 Q763.813 1538.71 765.619 1542.27 Q767.447 1545.82 771.059 1545.82 Q774.693 1545.82 776.498 1542.27 Q778.327 1538.71 778.327 1531.6 Q778.327 1524.47 776.498 1520.93 Q774.693 1517.37 771.059 1517.37 M771.059 1513.66 Q776.869 1513.66 779.924 1518.27 Q783.003 1522.85 783.003 1531.6 Q783.003 1540.33 779.924 1544.94 Q776.869 1549.52 771.059 1549.52 Q765.248 1549.52 762.17 1544.94 Q759.114 1540.33 759.114 1531.6 Q759.114 1522.85 762.17 1518.27 Q765.248 1513.66 771.059 1513.66 Z" fill="#000000" fill-rule="nonzero" fill-opacity="1" /><path clip-path="url(#clip060)" d="M801.22 1517.37 Q797.609 1517.37 795.781 1520.93 Q793.975 1524.47 793.975 1531.6 Q793.975 1538.71 795.781 1542.27 Q797.609 1545.82 801.22 1545.82 Q804.855 1545.82 806.66 1542.27 Q808.489 1538.71 808.489 1531.6 Q808.489 1524.47 806.66 1520.93 Q804.855 1517.37 801.22 1517.37 M801.22 1513.66 Q807.031 1513.66 810.086 1518.27 Q813.165 1522.85 813.165 1531.6 Q813.165 1540.33 810.086 1544.94 Q807.031 1549.52 801.22 1549.52 Q795.41 1549.52 792.332 1544.94 Q789.276 1540.33 789.276 1531.6 Q789.276 1522.85 792.332 1518.27 Q795.41 1513.66 801.22 1513.66 Z" fill="#000000" fill-rule="nonzero" fill-opacity="1" /><path clip-path="url(#clip060)" d="M1217.08 1544.91 L1233.4 1544.91 L1233.4 1548.85 L1211.46 1548.85 L1211.46 1544.91 Q1214.12 1542.16 1218.71 1537.53 Q1223.31 1532.88 1224.49 1531.53 Q1226.74 1529.01 1227.62 1527.27 Q1228.52 1525.51 1228.52 1523.82 Q1228.52 1521.07 1226.58 1519.33 Q1224.65 1517.6 1221.55 1517.6 Q1219.35 1517.6 1216.9 1518.36 Q1214.47 1519.13 1211.69 1520.68 L1211.69 1515.95 Q1214.52 1514.82 1216.97 1514.24 Q1219.42 1513.66 1221.46 1513.66 Q1226.83 1513.66 1230.02 1516.35 Q1233.22 1519.03 1233.22 1523.52 Q1233.22 1525.65 1232.41 1527.57 Q1231.62 1529.47 1229.52 1532.07 Q1228.94 1532.74 1225.83 1535.95 Q1222.73 1539.15 1217.08 1544.91 Z" fill="#000000" fill-rule="nonzero" fill-opacity="1" /><path clip-path="url(#clip060)" d="M1253.22 1517.37 Q1249.61 1517.37 1247.78 1520.93 Q1245.97 1524.47 1245.97 1531.6 Q1245.97 1538.71 1247.78 1542.27 Q1249.61 1545.82 1253.22 1545.82 Q1256.85 1545.82 1258.66 1542.27 Q1260.49 1538.71 1260.49 1531.6 Q1260.49 1524.47 1258.66 1520.93 Q1256.85 1517.37 1253.22 1517.37 M1253.22 1513.66 Q1259.03 1513.66 1262.08 1518.27 Q1265.16 1522.85 1265.16 1531.6 Q1265.16 1540.33 1262.08 1544.94 Q1259.03 1549.52 1253.22 1549.52 Q1247.41 1549.52 1244.33 1544.94 Q1241.27 1540.33 1241.27 1531.6 Q1241.27 1522.85 1244.33 1518.27 Q1247.41 1513.66 1253.22 1513.66 Z" fill="#000000" fill-rule="nonzero" fill-opacity="1" /><path clip-path="url(#clip060)" d="M1283.38 1517.37 Q1279.77 1517.37 1277.94 1520.93 Q1276.14 1524.47 1276.14 1531.6 Q1276.14 1538.71 1277.94 1542.27 Q1279.77 1545.82 1283.38 1545.82 Q1287.01 1545.82 1288.82 1542.27 Q1290.65 1538.71 1290.65 1531.6 Q1290.65 1524.47 1288.82 1520.93 Q1287.01 1517.37 1283.38 1517.37 M1283.38 1513.66 Q1289.19 1513.66 1292.25 1518.27 Q1295.33 1522.85 1295.33 1531.6 Q1295.33 1540.33 1292.25 1544.94 Q1289.19 1549.52 1283.38 1549.52 Q1277.57 1549.52 1274.49 1544.94 Q1271.44 1540.33 1271.44 1531.6 Q1271.44 1522.85 1274.49 1518.27 Q1277.57 1513.66 1283.38 1513.66 Z" fill="#000000" fill-rule="nonzero" fill-opacity="1" /><path clip-path="url(#clip060)" d="M1313.54 1517.37 Q1309.93 1517.37 1308.1 1520.93 Q1306.3 1524.47 1306.3 1531.6 Q1306.3 1538.71 1308.1 1542.27 Q1309.93 1545.82 1313.54 1545.82 Q1317.18 1545.82 1318.98 1542.27 Q1320.81 1538.71 1320.81 1531.6 Q1320.81 1524.47 1318.98 1520.93 Q1317.18 1517.37 1313.54 1517.37 M1313.54 1513.66 Q1319.35 1513.66 1322.41 1518.27 Q1325.49 1522.85 1325.49 1531.6 Q1325.49 1540.33 1322.41 1544.94 Q1319.35 1549.52 1313.54 1549.52 Q1307.73 1549.52 1304.65 1544.94 Q1301.6 1540.33 1301.6 1531.6 Q1301.6 1522.85 1304.65 1518.27 Q1307.73 1513.66 1313.54 1513.66 Z" fill="#000000" fill-rule="nonzero" fill-opacity="1" /><path clip-path="url(#clip060)" d="M1738.61 1530.21 Q1741.96 1530.93 1743.84 1533.2 Q1745.74 1535.47 1745.74 1538.8 Q1745.74 1543.92 1742.22 1546.72 Q1738.7 1549.52 1732.22 1549.52 Q1730.04 1549.52 1727.73 1549.08 Q1725.44 1548.66 1722.98 1547.81 L1722.98 1543.29 Q1724.93 1544.43 1727.24 1545.01 Q1729.56 1545.58 1732.08 1545.58 Q1736.48 1545.58 1738.77 1543.85 Q1741.08 1542.11 1741.08 1538.8 Q1741.08 1535.75 1738.93 1534.03 Q1736.8 1532.3 1732.98 1532.3 L1728.96 1532.3 L1728.96 1528.45 L1733.17 1528.45 Q1736.62 1528.45 1738.45 1527.09 Q1740.27 1525.7 1740.27 1523.11 Q1740.27 1520.45 1738.38 1519.03 Q1736.5 1517.6 1732.98 1517.6 Q1731.06 1517.6 1728.86 1518.01 Q1726.66 1518.43 1724.02 1519.31 L1724.02 1515.14 Q1726.69 1514.4 1729 1514.03 Q1731.34 1513.66 1733.4 1513.66 Q1738.72 1513.66 1741.83 1516.09 Q1744.93 1518.5 1744.93 1522.62 Q1744.93 1525.49 1743.28 1527.48 Q1741.64 1529.45 1738.61 1530.21 Z" fill="#000000" fill-rule="nonzero" fill-opacity="1" /><path clip-path="url(#clip060)" d="M1764.6 1517.37 Q1760.99 1517.37 1759.16 1520.93 Q1757.36 1524.47 1757.36 1531.6 Q1757.36 1538.71 1759.16 1542.27 Q1760.99 1545.82 1764.6 1545.82 Q1768.24 1545.82 1770.04 1542.27 Q1771.87 1538.71 1771.87 1531.6 Q1771.87 1524.47 1770.04 1520.93 Q1768.24 1517.37 1764.6 1517.37 M1764.6 1513.66 Q1770.41 1513.66 1773.47 1518.27 Q1776.55 1522.85 1776.55 1531.6 Q1776.55 1540.33 1773.47 1544.94 Q1770.41 1549.52 1764.6 1549.52 Q1758.79 1549.52 1755.71 1544.94 Q1752.66 1540.33 1752.66 1531.6 Q1752.66 1522.85 1755.71 1518.27 Q1758.79 1513.66 1764.6 1513.66 Z" fill="#000000" fill-rule="nonzero" fill-opacity="1" /><path clip-path="url(#clip060)" d="M1794.77 1517.37 Q1791.15 1517.37 1789.33 1520.93 Q1787.52 1524.47 1787.52 1531.6 Q1787.52 1538.71 1789.33 1542.27 Q1791.15 1545.82 1794.77 1545.82 Q1798.4 1545.82 1800.21 1542.27 Q1802.03 1538.71 1802.03 1531.6 Q1802.03 1524.47 1800.21 1520.93 Q1798.4 1517.37 1794.77 1517.37 M1794.77 1513.66 Q1800.58 1513.66 1803.63 1518.27 Q1806.71 1522.85 1806.71 1531.6 Q1806.71 1540.33 1803.63 1544.94 Q1800.58 1549.52 1794.77 1549.52 Q1788.96 1549.52 1785.88 1544.94 Q1782.82 1540.33 1782.82 1531.6 Q1782.82 1522.85 1785.88 1518.27 Q1788.96 1513.66 1794.77 1513.66 Z" fill="#000000" fill-rule="nonzero" fill-opacity="1" /><path clip-path="url(#clip060)" d="M1824.93 1517.37 Q1821.32 1517.37 1819.49 1520.93 Q1817.68 1524.47 1817.68 1531.6 Q1817.68 1538.71 1819.49 1542.27 Q1821.32 1545.82 1824.93 1545.82 Q1828.56 1545.82 1830.37 1542.27 Q1832.2 1538.71 1832.2 1531.6 Q1832.2 1524.47 1830.37 1520.93 Q1828.56 1517.37 1824.93 1517.37 M1824.93 1513.66 Q1830.74 1513.66 1833.79 1518.27 Q1836.87 1522.85 1836.87 1531.6 Q1836.87 1540.33 1833.79 1544.94 Q1830.74 1549.52 1824.93 1549.52 Q1819.12 1549.52 1816.04 1544.94 Q1812.98 1540.33 1812.98 1531.6 Q1812.98 1522.85 1816.04 1518.27 Q1819.12 1513.66 1824.93 1513.66 Z" fill="#000000" fill-rule="nonzero" fill-opacity="1" /><path clip-path="url(#clip060)" d="M2249.39 1518.36 L2237.59 1536.81 L2249.39 1536.81 L2249.39 1518.36 M2248.16 1514.29 L2254.04 1514.29 L2254.04 1536.81 L2258.97 1536.81 L2258.97 1540.7 L2254.04 1540.7 L2254.04 1548.85 L2249.39 1548.85 L2249.39 1540.7 L2233.79 1540.7 L2233.79 1536.19 L2248.16 1514.29 Z" fill="#000000" fill-rule="nonzero" fill-opacity="1" /><path clip-path="url(#clip060)" d="M2276.71 1517.37 Q2273.09 1517.37 2271.27 1520.93 Q2269.46 1524.47 2269.46 1531.6 Q2269.46 1538.71 2271.27 1542.27 Q2273.09 1545.82 2276.71 1545.82 Q2280.34 1545.82 2282.15 1542.27 Q2283.97 1538.71 2283.97 1531.6 Q2283.97 1524.47 2282.15 1520.93 Q2280.34 1517.37 2276.71 1517.37 M2276.71 1513.66 Q2282.52 1513.66 2285.57 1518.27 Q2288.65 1522.85 2288.65 1531.6 Q2288.65 1540.33 2285.57 1544.94 Q2282.52 1549.52 2276.71 1549.52 Q2270.9 1549.52 2267.82 1544.94 Q2264.76 1540.33 2264.76 1531.6 Q2264.76 1522.85 2267.82 1518.27 Q2270.9 1513.66 2276.71 1513.66 Z" fill="#000000" fill-rule="nonzero" fill-opacity="1" /><path clip-path="url(#clip060)" d="M2306.87 1517.37 Q2303.26 1517.37 2301.43 1520.93 Q2299.62 1524.47 2299.62 1531.6 Q2299.62 1538.71 2301.43 1542.27 Q2303.26 1545.82 2306.87 1545.82 Q2310.5 1545.82 2312.31 1542.27 Q2314.14 1538.71 2314.14 1531.6 Q2314.14 1524.47 2312.31 1520.93 Q2310.5 1517.37 2306.87 1517.37 M2306.87 1513.66 Q2312.68 1513.66 2315.73 1518.27 Q2318.81 1522.85 2318.81 1531.6 Q2318.81 1540.33 2315.73 1544.94 Q2312.68 1549.52 2306.87 1549.52 Q2301.06 1549.52 2297.98 1544.94 Q2294.92 1540.33 2294.92 1531.6 Q2294.92 1522.85 2297.98 1518.27 Q2301.06 1513.66 2306.87 1513.66 Z" fill="#000000" fill-rule="nonzero" fill-opacity="1" /><path clip-path="url(#clip060)" d="M2337.03 1517.37 Q2333.42 1517.37 2331.59 1520.93 Q2329.78 1524.47 2329.78 1531.6 Q2329.78 1538.71 2331.59 1542.27 Q2333.42 1545.82 2337.03 1545.82 Q2340.66 1545.82 2342.47 1542.27 Q2344.3 1538.71 2344.3 1531.6 Q2344.3 1524.47 2342.47 1520.93 Q2340.66 1517.37 2337.03 1517.37 M2337.03 1513.66 Q2342.84 1513.66 2345.9 1518.27 Q2348.97 1522.85 2348.97 1531.6 Q2348.97 1540.33 2345.9 1544.94 Q2342.84 1549.52 2337.03 1549.52 Q2331.22 1549.52 2328.14 1544.94 Q2325.08 1540.33 2325.08 1531.6 Q2325.08 1522.85 2328.14 1518.27 Q2331.22 1513.66 2337.03 1513.66 Z" fill="#000000" fill-rule="nonzero" fill-opacity="1" /><polyline clip-path="url(#clip062)" style="stroke:#000000; stroke-linecap:round; stroke-linejoin:round; stroke-width:2; stroke-opacity:0.1; fill:none" points="184.191,1340.71 2352.76,1340.71 "/>
<polyline clip-path="url(#clip062)" style="stroke:#000000; stroke-linecap:round; stroke-linejoin:round; stroke-width:2; stroke-opacity:0.1; fill:none" points="184.191,1078.65 2352.76,1078.65 "/>
<polyline clip-path="url(#clip062)" style="stroke:#000000; stroke-linecap:round; stroke-linejoin:round; stroke-width:2; stroke-opacity:0.1; fill:none" points="184.191,816.586 2352.76,816.586 "/>
<polyline clip-path="url(#clip062)" style="stroke:#000000; stroke-linecap:round; stroke-linejoin:round; stroke-width:2; stroke-opacity:0.1; fill:none" points="184.191,554.523 2352.76,554.523 "/>
<polyline clip-path="url(#clip062)" style="stroke:#000000; stroke-linecap:round; stroke-linejoin:round; stroke-width:2; stroke-opacity:0.1; fill:none" points="184.191,292.459 2352.76,292.459 "/>
<polyline clip-path="url(#clip060)" style="stroke:#000000; stroke-linecap:round; stroke-linejoin:round; stroke-width:4; stroke-opacity:1; fill:none" points="184.191,1486.45 184.191,47.2441 "/>
<polyline clip-path="url(#clip060)" style="stroke:#000000; stroke-linecap:round; stroke-linejoin:round; stroke-width:4; stroke-opacity:1; fill:none" points="184.191,1340.71 203.088,1340.71 "/>
<polyline clip-path="url(#clip060)" style="stroke:#000000; stroke-linecap:round; stroke-linejoin:round; stroke-width:4; stroke-opacity:1; fill:none" points="184.191,1078.65 203.088,1078.65 "/>
<polyline clip-path="url(#clip060)" style="stroke:#000000; stroke-linecap:round; stroke-linejoin:round; stroke-width:4; stroke-opacity:1; fill:none" points="184.191,816.586 203.088,816.586 "/>
<polyline clip-path="url(#clip060)" style="stroke:#000000; stroke-linecap:round; stroke-linejoin:round; stroke-width:4; stroke-opacity:1; fill:none" points="184.191,554.523 203.088,554.523 "/>
<polyline clip-path="url(#clip060)" style="stroke:#000000; stroke-linecap:round; stroke-linejoin:round; stroke-width:4; stroke-opacity:1; fill:none" points="184.191,292.459 203.088,292.459 "/>
<path clip-path="url(#clip060)" d="M51.6634 1354.06 L59.3023 1354.06 L59.3023 1327.69 L50.9921 1329.36 L50.9921 1325.1 L59.256 1323.43 L63.9319 1323.43 L63.9319 1354.06 L71.5707 1354.06 L71.5707 1357.99 L51.6634 1357.99 L51.6634 1354.06 Z" fill="#000000" fill-rule="nonzero" fill-opacity="1" /><path clip-path="url(#clip060)" d="M81.8253 1354.06 L89.4641 1354.06 L89.4641 1327.69 L81.154 1329.36 L81.154 1325.1 L89.4178 1323.43 L94.0937 1323.43 L94.0937 1354.06 L101.733 1354.06 L101.733 1357.99 L81.8253 1357.99 L81.8253 1354.06 Z" fill="#000000" fill-rule="nonzero" fill-opacity="1" /><path clip-path="url(#clip060)" d="M111.177 1352.11 L116.061 1352.11 L116.061 1357.99 L111.177 1357.99 L111.177 1352.11 Z" fill="#000000" fill-rule="nonzero" fill-opacity="1" /><path clip-path="url(#clip060)" d="M136.246 1326.51 Q132.635 1326.51 130.807 1330.08 Q129.001 1333.62 129.001 1340.75 Q129.001 1347.85 130.807 1351.42 Q132.635 1354.96 136.246 1354.96 Q139.881 1354.96 141.686 1351.42 Q143.515 1347.85 143.515 1340.75 Q143.515 1333.62 141.686 1330.08 Q139.881 1326.51 136.246 1326.51 M136.246 1322.81 Q142.056 1322.81 145.112 1327.41 Q148.191 1332 148.191 1340.75 Q148.191 1349.47 145.112 1354.08 Q142.056 1358.66 136.246 1358.66 Q130.436 1358.66 127.357 1354.08 Q124.302 1349.47 124.302 1340.75 Q124.302 1332 127.357 1327.41 Q130.436 1322.81 136.246 1322.81 Z" fill="#000000" fill-rule="nonzero" fill-opacity="1" /><path clip-path="url(#clip060)" d="M52.6588 1091.99 L60.2976 1091.99 L60.2976 1065.63 L51.9875 1067.29 L51.9875 1063.04 L60.2513 1061.37 L64.9272 1061.37 L64.9272 1091.99 L72.5661 1091.99 L72.5661 1095.93 L52.6588 1095.93 L52.6588 1091.99 Z" fill="#000000" fill-rule="nonzero" fill-opacity="1" /><path clip-path="url(#clip060)" d="M82.8207 1091.99 L90.4595 1091.99 L90.4595 1065.63 L82.1494 1067.29 L82.1494 1063.04 L90.4132 1061.37 L95.0891 1061.37 L95.0891 1091.99 L102.728 1091.99 L102.728 1095.93 L82.8207 1095.93 L82.8207 1091.99 Z" fill="#000000" fill-rule="nonzero" fill-opacity="1" /><path clip-path="url(#clip060)" d="M112.172 1090.05 L117.057 1090.05 L117.057 1095.93 L112.172 1095.93 L112.172 1090.05 Z" fill="#000000" fill-rule="nonzero" fill-opacity="1" /><path clip-path="url(#clip060)" d="M127.288 1061.37 L145.644 1061.37 L145.644 1065.3 L131.57 1065.3 L131.57 1073.78 Q132.589 1073.43 133.607 1073.27 Q134.626 1073.08 135.644 1073.08 Q141.431 1073.08 144.811 1076.25 Q148.191 1079.42 148.191 1084.84 Q148.191 1090.42 144.718 1093.52 Q141.246 1096.6 134.927 1096.6 Q132.751 1096.6 130.482 1096.23 Q128.237 1095.86 125.83 1095.12 L125.83 1090.42 Q127.913 1091.55 130.135 1092.11 Q132.357 1092.67 134.834 1092.67 Q138.839 1092.67 141.177 1090.56 Q143.515 1088.45 143.515 1084.84 Q143.515 1081.23 141.177 1079.12 Q138.839 1077.02 134.834 1077.02 Q132.959 1077.02 131.084 1077.43 Q129.232 1077.85 127.288 1078.73 L127.288 1061.37 Z" fill="#000000" fill-rule="nonzero" fill-opacity="1" /><path clip-path="url(#clip060)" d="M51.6634 829.931 L59.3023 829.931 L59.3023 803.565 L50.9921 805.232 L50.9921 800.972 L59.256 799.306 L63.9319 799.306 L63.9319 829.931 L71.5707 829.931 L71.5707 833.866 L51.6634 833.866 L51.6634 829.931 Z" fill="#000000" fill-rule="nonzero" fill-opacity="1" /><path clip-path="url(#clip060)" d="M85.0429 829.931 L101.362 829.931 L101.362 833.866 L79.4179 833.866 L79.4179 829.931 Q82.0799 827.176 86.6632 822.546 Q91.2697 817.894 92.4502 816.551 Q94.6956 814.028 95.5752 812.292 Q96.478 810.533 96.478 808.843 Q96.478 806.088 94.5336 804.352 Q92.6123 802.616 89.5104 802.616 Q87.3114 802.616 84.8577 803.38 Q82.4271 804.144 79.6494 805.695 L79.6494 800.972 Q82.4734 799.838 84.9271 799.26 Q87.3808 798.681 89.4178 798.681 Q94.7882 798.681 97.9826 801.366 Q101.177 804.051 101.177 808.542 Q101.177 810.671 100.367 812.593 Q99.5798 814.491 97.4734 817.083 Q96.8947 817.755 93.7928 820.972 Q90.691 824.167 85.0429 829.931 Z" fill="#000000" fill-rule="nonzero" fill-opacity="1" /><path clip-path="url(#clip060)" d="M111.177 827.986 L116.061 827.986 L116.061 833.866 L111.177 833.866 L111.177 827.986 Z" fill="#000000" fill-rule="nonzero" fill-opacity="1" /><path clip-path="url(#clip060)" d="M136.246 802.384 Q132.635 802.384 130.807 805.949 Q129.001 809.491 129.001 816.621 Q129.001 823.727 130.807 827.292 Q132.635 830.833 136.246 830.833 Q139.881 830.833 141.686 827.292 Q143.515 823.727 143.515 816.621 Q143.515 809.491 141.686 805.949 Q139.881 802.384 136.246 802.384 M136.246 798.681 Q142.056 798.681 145.112 803.287 Q148.191 807.871 148.191 816.621 Q148.191 825.347 145.112 829.954 Q142.056 834.537 136.246 834.537 Q130.436 834.537 127.357 829.954 Q124.302 825.347 124.302 816.621 Q124.302 807.871 127.357 803.287 Q130.436 798.681 136.246 798.681 Z" fill="#000000" fill-rule="nonzero" fill-opacity="1" /><path clip-path="url(#clip060)" d="M52.6588 567.867 L60.2976 567.867 L60.2976 541.502 L51.9875 543.168 L51.9875 538.909 L60.2513 537.243 L64.9272 537.243 L64.9272 567.867 L72.5661 567.867 L72.5661 571.803 L52.6588 571.803 L52.6588 567.867 Z" fill="#000000" fill-rule="nonzero" fill-opacity="1" /><path clip-path="url(#clip060)" d="M86.0382 567.867 L102.358 567.867 L102.358 571.803 L80.4133 571.803 L80.4133 567.867 Q83.0753 565.113 87.6586 560.483 Q92.2651 555.83 93.4456 554.488 Q95.691 551.965 96.5706 550.229 Q97.4734 548.469 97.4734 546.78 Q97.4734 544.025 95.5289 542.289 Q93.6076 540.553 90.5058 540.553 Q88.3067 540.553 85.8531 541.317 Q83.4225 542.08 80.6447 543.631 L80.6447 538.909 Q83.4688 537.775 85.9225 537.196 Q88.3762 536.618 90.4132 536.618 Q95.7836 536.618 98.978 539.303 Q102.172 541.988 102.172 546.479 Q102.172 548.608 101.362 550.53 Q100.575 552.428 98.4687 555.02 Q97.89 555.692 94.7882 558.909 Q91.6864 562.104 86.0382 567.867 Z" fill="#000000" fill-rule="nonzero" fill-opacity="1" /><path clip-path="url(#clip060)" d="M112.172 565.923 L117.057 565.923 L117.057 571.803 L112.172 571.803 L112.172 565.923 Z" fill="#000000" fill-rule="nonzero" fill-opacity="1" /><path clip-path="url(#clip060)" d="M127.288 537.243 L145.644 537.243 L145.644 541.178 L131.57 541.178 L131.57 549.65 Q132.589 549.303 133.607 549.141 Q134.626 548.955 135.644 548.955 Q141.431 548.955 144.811 552.127 Q148.191 555.298 148.191 560.715 Q148.191 566.293 144.718 569.395 Q141.246 572.474 134.927 572.474 Q132.751 572.474 130.482 572.103 Q128.237 571.733 125.83 570.992 L125.83 566.293 Q127.913 567.428 130.135 567.983 Q132.357 568.539 134.834 568.539 Q138.839 568.539 141.177 566.432 Q143.515 564.326 143.515 560.715 Q143.515 557.104 141.177 554.997 Q138.839 552.891 134.834 552.891 Q132.959 552.891 131.084 553.307 Q129.232 553.724 127.288 554.604 L127.288 537.243 Z" fill="#000000" fill-rule="nonzero" fill-opacity="1" /><path clip-path="url(#clip060)" d="M51.6634 305.804 L59.3023 305.804 L59.3023 279.439 L50.9921 281.105 L50.9921 276.846 L59.256 275.179 L63.9319 275.179 L63.9319 305.804 L71.5707 305.804 L71.5707 309.739 L51.6634 309.739 L51.6634 305.804 Z" fill="#000000" fill-rule="nonzero" fill-opacity="1" /><path clip-path="url(#clip060)" d="M95.1817 291.105 Q98.5382 291.823 100.413 294.091 Q102.311 296.36 102.311 299.693 Q102.311 304.809 98.7928 307.61 Q95.2743 310.411 88.7928 310.411 Q86.6169 310.411 84.3021 309.971 Q82.0105 309.554 79.5568 308.698 L79.5568 304.184 Q81.5012 305.318 83.816 305.897 Q86.1308 306.475 88.654 306.475 Q93.0521 306.475 95.3437 304.739 Q97.6585 303.003 97.6585 299.693 Q97.6585 296.638 95.5058 294.925 Q93.3762 293.188 89.5567 293.188 L85.529 293.188 L85.529 289.346 L89.7419 289.346 Q93.191 289.346 95.0197 287.98 Q96.8484 286.591 96.8484 283.999 Q96.8484 281.337 94.9502 279.925 Q93.0752 278.489 89.5567 278.489 Q87.6354 278.489 85.4364 278.906 Q83.2373 279.323 80.5984 280.202 L80.5984 276.036 Q83.2605 275.295 85.5753 274.925 Q87.9132 274.554 89.9734 274.554 Q95.2974 274.554 98.3993 276.985 Q101.501 279.392 101.501 283.513 Q101.501 286.383 99.8576 288.374 Q98.2141 290.341 95.1817 291.105 Z" fill="#000000" fill-rule="nonzero" fill-opacity="1" /><path clip-path="url(#clip060)" d="M111.177 303.86 L116.061 303.86 L116.061 309.739 L111.177 309.739 L111.177 303.86 Z" fill="#000000" fill-rule="nonzero" fill-opacity="1" /><path clip-path="url(#clip060)" d="M136.246 278.258 Q132.635 278.258 130.807 281.823 Q129.001 285.364 129.001 292.494 Q129.001 299.6 130.807 303.165 Q132.635 306.707 136.246 306.707 Q139.881 306.707 141.686 303.165 Q143.515 299.6 143.515 292.494 Q143.515 285.364 141.686 281.823 Q139.881 278.258 136.246 278.258 M136.246 274.554 Q142.056 274.554 145.112 279.161 Q148.191 283.744 148.191 292.494 Q148.191 301.221 145.112 305.827 Q142.056 310.411 136.246 310.411 Q130.436 310.411 127.357 305.827 Q124.302 301.221 124.302 292.494 Q124.302 283.744 127.357 279.161 Q130.436 274.554 136.246 274.554 Z" fill="#000000" fill-rule="nonzero" fill-opacity="1" /><polyline clip-path="url(#clip062)" style="stroke:#009af9; stroke-linecap:round; stroke-linejoin:round; stroke-width:4; stroke-opacity:1; fill:none" points="245.565,87.9763 246.077,160.85 246.588,227.934 247.1,295.102 247.611,356.563 248.122,412.077 248.634,463.054 249.145,510.119 249.657,553.472 250.168,592.229 250.68,628.17 251.191,663.025 251.703,695.326 252.214,722.957 252.726,748.868 253.237,773.536 253.748,796.691 254.26,819.348 254.771,840.637 255.283,860.637 255.794,879.469 256.306,896.476 256.817,912.613 257.329,929.799 257.84,945.908 258.352,960.137 258.863,973.617 259.374,986.168 259.886,998.167 260.397,1010.51 260.909,1022.24 261.42,1033.13 261.932,1043.52 262.443,1053.08 262.955,1062.27 263.466,1071.21 263.978,1079.82 264.489,1088.29 265,1096.43 265.512,1104.35 266.023,1111.97 266.535,1118.86 267.046,1125.54 267.558,1132.02 268.069,1138.29 268.581,1144.67 269.092,1150.82 269.604,1156.34 270.115,1161.73 270.626,1167.38 271.138,1172.82 271.649,1177.77 272.161,1182.58 272.672,1187.28 273.184,1191.85 273.695,1196.26 274.207,1200.54 274.718,1204.78 275.23,1208.91 275.741,1212.98 276.252,1216.96 276.764,1220.96 277.275,1224.84 277.787,1228.73 278.298,1232.53 278.81,1236.06 279.321,1239.5 279.833,1243.01 280.344,1246.4 280.855,1249.38 281.367,1252.28 281.878,1255.84 282.39,1259.32 282.901,1262.23 283.413,1265.07 283.924,1267.93 284.436,1270.71 284.947,1273.26 285.459,1275.75 285.97,1278.4 286.481,1281 286.993,1283.25 287.504,1285.45 288.016,1288.15 288.527,1290.79 289.039,1292.96 289.55,1295.1 290.062,1297.54 290.573,1299.94 291.085,1301.83 291.596,1303.68 292.107,1305.67 292.619,1307.63 293.13,1309.8 293.642,1311.94 294.153,1313.62 294.665,1315.25 295.176,1316.96 295.688,1318.63 296.199,1320.64 296.711,1322.6 297.222,1324.03 297.733,1325.42 298.245,1327.18 298.756,1328.91 299.268,1330.33 299.779,1331.72 300.291,1332.92 300.802,1334.09 301.314,1335.54 301.825,1336.96 302.337,1338.26 302.848,1339.53 303.359,1340.81 303.871,1342.05 304.382,1343.26 304.894,1344.44 305.405,1345.24 305.917,1346.02 306.428,1347.27 306.94,1348.49 307.451,1349.49 307.963,1350.47 308.474,1351.52 308.985,1352.56 309.497,1354.08 310.008,1355.57 310.52,1356.46 311.031,1357.34 311.543,1357.84 312.054,1358.33 312.566,1359.85 313.077,1361.34 313.589,1361.66 314.1,1361.96 314.611,1362.91 315.123,1363.85 315.634,1364.63 316.146,1365.4 316.657,1366.55 317.169,1367.68 317.68,1368.82 318.192,1369.94 318.703,1371.19 319.215,1372.43 319.726,1373.54 320.237,1374.63 320.749,1375.62 321.26,1376.6 321.772,1377.13 322.283,1377.66 322.795,1378.11 323.306,1378.56 323.818,1379.32 324.329,1380.07 324.841,1381.13 325.352,1382.17 325.863,1382.47 326.375,1382.76 326.886,1383.44 327.398,1384.12 327.909,1384.27 328.421,1384.42 328.932,1385.05 329.444,1385.66 329.955,1386.59 330.467,1387.5 330.978,1388.11 331.489,1388.71 332.001,1389.52 332.512,1390.32 333.024,1390.58 333.535,1390.83 334.047,1391.13 334.558,1391.43 335.07,1391.93 335.581,1392.42 336.093,1393.02 336.604,1393.62 337.115,1393.97 337.627,1394.32 338.138,1394.67 338.65,1395.01 339.161,1395.41 339.673,1395.8 340.184,1396.19 340.696,1396.58 341.207,1396.93 341.719,1397.27 342.23,1397.36 342.741,1397.45 343.253,1398.04 343.764,1398.61 344.276,1399.14 344.787,1399.66 345.299,1400.34 345.81,1401.02 346.322,1401.78 346.833,1402.53 347.345,1403.13 347.856,1403.72 348.367,1404.36 348.879,1404.98 349.39,1405.59 349.902,1406.18 350.413,1406.61 350.925,1407.04 351.436,1407.38 351.948,1407.71 352.459,1408.39 352.971,1409.06 353.482,1409.44 353.993,1409.81 354.505,1409.9 355.016,1409.99 355.528,1410.58 356.039,1411.15 356.551,1411.5 357.062,1411.84 357.574,1412.44 358.085,1413.03 358.597,1413.44 359.108,1413.85 359.619,1414.11 360.131,1414.36 360.642,1414.6 361.154,1414.84 361.665,1415.23 362.177,1415.61 362.688,1416.33 363.2,1417.03 363.711,1417.14 364.223,1417.24 364.734,1417.66 365.245,1418.07 365.757,1418.48 366.268,1418.88 366.78,1418.78 367.291,1418.68 367.803,1418.81 368.314,1418.94 368.826,1419.36 369.337,1419.78 369.849,1420.11 370.36,1420.44 370.871,1420.97 371.383,1421.48 371.894,1421.61 372.406,1421.73 372.917,1421.71 373.429,1421.69 373.94,1421.78 374.452,1421.87 374.963,1422.2 375.474,1422.52 375.986,1422.72 376.497,1422.92 377.009,1423.16 377.52,1423.41 378.032,1424.06 378.543,1424.69 379.055,1425 379.566,1425.3 380.078,1425.5 380.589,1425.69 381.1,1425.97 381.612,1426.25 382.123,1426.54 382.635,1426.83 383.146,1426.93 383.658,1427.02 384.169,1427.12 384.681,1427.21 385.192,1427.5 385.704,1427.78 386.215,1428.03 386.726,1428.28 387.238,1428.44 387.749,1428.59 388.261,1428.65 388.772,1428.72 389.284,1429.38 389.795,1430.03 390.307,1430.25 390.818,1430.47 391.33,1430.22 391.841,1429.97 392.352,1429.89 392.864,1429.8 393.375,1429.48 393.887,1429.16 394.398,1429.41 394.91,1429.65 395.421,1429.37 395.933,1429.09 396.444,1429.05 396.956,1429.01 397.467,1429.06 397.978,1429.11 398.49,1428.98 399.001,1428.84 399.513,1429.2 400.024,1429.54 400.536,1429.77 401.047,1429.99 401.559,1430.03 402.07,1430.07 402.582,1430.41 403.093,1430.75 403.604,1431.32 404.116,1431.88 404.627,1432.19 405.139,1432.49 405.65,1432.6 406.162,1432.7 406.673,1432.87 407.185,1433.03 407.696,1432.99 408.208,1432.95 408.719,1432.88 409.23,1432.8 409.742,1432.96 410.253,1433.12 410.765,1433.17 411.276,1433.23 411.788,1432.8 412.299,1432.37 412.811,1432.22 413.322,1432.07 413.834,1432.05 414.345,1432.03 414.856,1432.16 415.368,1432.29 415.879,1432.2 416.391,1432.11 416.902,1432.36 417.414,1432.6 417.925,1432.52 418.437,1432.45 418.948,1432.93 419.46,1433.39 419.971,1433.38 420.482,1433.37 420.994,1433.41 421.505,1433.44 422.017,1433.87 422.528,1434.29 423.04,1434.46 423.551,1434.62 424.063,1434.66 424.574,1434.7 425.086,1434.96 425.597,1435.21 426.108,1434.89 426.62,1434.58 427.131,1434.85 427.643,1435.1 428.154,1434.71 428.666,1434.32 429.177,1434.8 429.689,1435.27 430.2,1435.08 430.712,1434.89 431.223,1435.28 431.734,1435.66 432.246,1436.22 432.757,1436.76 433.269,1436.55 433.78,1436.34 434.292,1436.42 434.803,1436.5 435.315,1436.51 435.826,1436.51 436.338,1436.62 436.849,1436.72 437.36,1436.51 437.872,1436.3 438.383,1436.28 438.895,1436.27 439.406,1436.38 439.918,1436.49 440.429,1436.14 440.941,1435.79 441.452,1436.36 441.964,1436.92 442.475,1437.28 442.986,1437.63 443.498,1437.67 444.009,1437.71 444.521,1437.89 445.032,1438.06 445.544,1438.02 446.055,1437.98 446.567,1437.67 447.078,1437.35 447.59,1437.24 448.101,1437.13 448.612,1437.65 449.124,1438.16 449.635,1438.02 450.147,1437.88 450.658,1437.57 451.17,1437.27 451.681,1437.4 452.193,1437.53 452.704,1437.75 453.216,1437.97 453.727,1437.74 454.238,1437.5 454.75,1437.68 455.261,1437.86 455.773,1437.92 456.284,1437.99 456.796,1437.9 457.307,1437.81 457.819,1437.91 458.33,1438 458.842,1437.6 459.353,1437.19 459.864,1437.45 460.376,1437.71 460.887,1438.11 461.399,1438.5 461.91,1438.37 462.422,1438.25 462.933,1438.19 463.445,1438.12 463.956,1437.94 464.468,1437.77 464.979,1437.56 465.49,1437.35 466.002,1437.55 466.513,1437.75 467.025,1437.27 467.536,1436.79 468.048,1436.84 468.559,1436.89 469.071,1436.74 469.582,1436.6 470.094,1437.01 470.605,1437.41 471.116,1437.73 471.628,1438.05 472.139,1437.84 472.651,1437.63 473.162,1437.91 473.674,1438.18 474.185,1438.48 474.697,1438.77 475.208,1439.21 475.719,1439.65 476.231,1439.62 476.742,1439.58 477.254,1439.24 477.765,1438.9 478.277,1438.69 478.788,1438.48 479.3,1438.03 479.811,1437.59 480.323,1437.42 480.834,1437.25 481.345,1437.45 481.857,1437.65 482.368,1437.64 482.88,1437.64 483.391,1437.6 483.903,1437.56 484.414,1437.49 484.926,1437.42 485.437,1437.53 485.949,1437.65 486.46,1438 486.971,1438.34 487.483,1438.46 487.994,1438.57 488.506,1438.89 489.017,1439.2 489.529,1439.01 490.04,1438.82 490.552,1438.64 491.063,1438.46 491.575,1438.48 492.086,1438.49 492.597,1438.86 493.109,1439.21 493.62,1439.07 494.132,1438.92 494.643,1438.61 495.155,1438.3 495.666,1438.43 496.178,1438.57 496.689,1438.34 497.201,1438.11 497.712,1438.14 498.223,1438.17 498.735,1438.27 499.246,1438.37 499.758,1438.64 500.269,1438.9 500.781,1438.73 501.292,1438.56 501.804,1438.7 502.315,1438.83 502.827,1439.21 503.338,1439.57 503.849,1439.5 504.361,1439.42 504.872,1439.56 505.384,1439.69 505.895,1440.15 506.407,1440.61 506.918,1440.86 507.43,1441.1 507.941,1441.37 508.453,1441.62 508.964,1441.66 509.475,1441.71 509.987,1441.72 510.498,1441.73 511.01,1441.62 511.521,1441.52 512.033,1441.7 512.544,1441.89 513.056,1442.05 513.567,1442.21 514.079,1442.46 514.59,1442.7 515.101,1442.77 515.613,1442.84 516.124,1442.52 516.636,1442.2 517.147,1442.52 517.659,1442.83 518.17,1443.03 518.682,1443.23 519.193,1443.23 519.705,1443.23 520.216,1443.62 520.727,1444.01 521.239,1444.19 521.75,1444.36 522.262,1444.42 522.773,1444.47 523.285,1444.55 523.796,1444.6 524.308,1444.58 524.819,1444.56 525.331,1444.71 525.842,1444.87 526.353,1445.06 526.865,1445.25 527.376,1445.43 527.888,1445.6 528.399,1445.66 528.911,1445.72 529.422,1445.45 529.934,1445.19 530.445,1445.24 530.957,1445.28 531.468,1445.24 531.979,1445.21 532.491,1444.97 533.002,1444.73 533.514,1444.72 534.025,1444.7 534.537,1444.49 535.048,1444.28 535.56,1444.18 536.071,1444.09 536.583,1443.93 537.094,1443.77 537.605,1444.09 538.117,1444.39 538.628,1444.27 539.14,1444.14 539.651,1443.78 540.163,1443.41 540.674,1443.14 541.186,1442.88 541.697,1442.89 542.209,1442.9 542.72,1443.05 543.231,1443.19 543.743,1442.67 544.254,1442.15 544.766,1442.34 545.277,1442.53 545.789,1442.3 546.3,1442.08 546.812,1442.22 547.323,1442.35 547.835,1442.08 548.346,1441.81 548.857,1441.89 549.369,1441.96 549.88,1442.13 550.392,1442.3 550.903,1442.43 551.415,1442.55 551.926,1442.55 552.438,1442.54 552.949,1442.62 553.461,1442.69 553.972,1442.39 554.483,1442.1 554.995,1442.32 555.506,1442.53 556.018,1442.73 556.529,1442.93 557.041,1443.28 557.552,1443.63 558.064,1443.65 558.575,1443.66 559.087,1443.46 559.598,1443.26 560.109,1442.93 560.621,1442.61 561.132,1442.63 561.644,1442.64 562.155,1442.26 562.667,1441.88 563.178,1441.39 563.69,1440.9 564.201,1441.08 564.713,1441.26 565.224,1441.09 565.735,1440.93 566.247,1441.01 566.758,1441.09 567.27,1440.97 567.781,1440.85 568.293,1440.91 568.804,1440.97 569.316,1440.84 569.827,1440.71 570.338,1440.39 570.85,1440.06 571.361,1440.23 571.873,1440.4 572.384,1440.71 572.896,1441 573.407,1440.83 573.919,1440.66 574.43,1440.9 574.942,1441.14 575.453,1441.02 575.964,1440.9 576.476,1440.79 576.987,1440.68 577.499,1440.31 578.01,1439.94 578.522,1439.96 579.033,1439.99 579.545,1439.88 580.056,1439.77 580.568,1439.37 581.079,1438.97 581.59,1438.97 582.102,1438.97 582.613,1438.66 583.125,1438.34 583.636,1438.23 584.148,1438.12 584.659,1438.1 585.171,1438.08 585.682,1438.04 586.194,1437.99 586.705,1438 587.216,1438.01 587.728,1438.2 588.239,1438.38 588.751,1438.69 589.262,1438.99 589.774,1438.83 590.285,1438.67 590.797,1439.22 591.308,1439.75 591.82,1439.69 592.331,1439.62 592.842,1439.82 593.354,1440.02 593.865,1440.31 594.377,1440.59 594.888,1440.88 595.4,1441.16 595.911,1440.84 596.423,1440.52 596.934,1440.72 597.446,1440.92 597.957,1441 598.468,1441.07 598.98,1441.27 599.491,1441.47 600.003,1441.39 600.514,1441.3 601.026,1441.52 601.537,1441.74 602.049,1441.73 602.56,1441.72 603.072,1441.71 603.583,1441.69 604.094,1441.33 604.606,1440.98 605.117,1440.87 605.629,1440.76 606.14,1440.54 606.652,1440.32 607.163,1440.43 607.675,1440.55 608.186,1440.1 608.698,1439.65 609.209,1439.95 609.72,1440.25 610.232,1440.25 610.743,1440.25 611.255,1440.23 611.766,1440.21 612.278,1440.43 612.789,1440.64 613.301,1440.58 613.812,1440.52 614.324,1440.95 614.835,1441.37 615.346,1441.5 615.858,1441.63 616.369,1441.84 616.881,1442.05 617.392,1441.69 617.904,1441.32 618.415,1441.36 618.927,1441.39 619.438,1441.56 619.95,1441.72 620.461,1441.59 620.972,1441.46 621.484,1441.54 621.995,1441.62 622.507,1441.63 623.018,1441.64 623.53,1441.7 624.041,1441.74 624.553,1441.62 625.064,1441.5 625.576,1441.74 626.087,1441.98 626.598,1442.11 627.11,1442.24 627.621,1442.22 628.133,1442.2 628.644,1441.97 629.156,1441.74 629.667,1441.52 630.179,1441.3 630.69,1441.13 631.202,1440.97 631.713,1440.66 632.224,1440.35 632.736,1440.3 633.247,1440.25 633.759,1440.31 634.27,1440.36 634.782,1440.28 635.293,1440.21 635.805,1439.75 636.316,1439.31 636.828,1439.38 637.339,1439.46 637.85,1439.48 638.362,1439.51 638.873,1439.55 639.385,1439.59 639.896,1439.61 640.408,1439.64 640.919,1439.96 641.431,1440.26 641.942,1440.74 642.454,1441.2 642.965,1441.2 643.476,1441.21 643.988,1440.87 644.499,1440.52 645.011,1440.38 645.522,1440.24 646.034,1439.98 646.545,1439.72 647.057,1439.83 647.568,1439.94 648.08,1439.96 648.591,1439.97 649.102,1440.16 649.614,1440.35 650.125,1440.44 650.637,1440.54 651.148,1440.28 651.66,1440.03 652.171,1440.03 652.683,1440.04 653.194,1439.9 653.706,1439.76 654.217,1439.75 654.728,1439.74 655.24,1439.98 655.751,1440.21 656.263,1440.33 656.774,1440.45 657.286,1440.85 657.797,1441.25 658.309,1441.34 658.82,1441.44 659.332,1441.23 659.843,1441.03 660.354,1440.94 660.866,1440.84 661.377,1440.9 661.889,1440.96 662.4,1441.11 662.912,1441.25 663.423,1441.49 663.935,1441.73 664.446,1441.75 664.957,1441.77 665.469,1441.4 665.98,1441.04 666.492,1441.1 667.003,1441.16 667.515,1441.31 668.026,1441.46 668.538,1441.6 669.049,1441.73 669.561,1441.05 670.072,1440.36 670.583,1440.38 671.095,1440.4 671.606,1440.6 672.118,1440.79 672.629,1441.16 673.141,1441.52 673.652,1441.4 674.164,1441.29 674.675,1441.3 675.187,1441.3 675.698,1441.07 676.209,1440.84 676.721,1440.71 677.232,1440.59 677.744,1440.64 678.255,1440.7 678.767,1440.56 679.278,1440.43 679.79,1440.27 680.301,1440.11 680.813,1440.37 681.324,1440.63 681.835,1440.99 682.347,1441.33 682.858,1441.6 683.37,1441.85 683.881,1441.6 684.393,1441.34 684.904,1441.38 685.416,1441.41 685.927,1441.53 686.439,1441.65 686.95,1441.83 687.461,1442.01 687.973,1441.63 688.484,1441.24 688.996,1441.2 689.507,1441.16 690.019,1440.9 690.53,1440.64 691.042,1440.74 691.553,1440.84 692.065,1440.3 692.576,1439.76 693.087,1439.36 693.599,1438.97 694.11,1438.8 694.622,1438.63 695.133,1438.57 695.645,1438.51 696.156,1438.69 696.668,1438.86 697.179,1438.98 697.691,1439.11 698.202,1438.92 698.713,1438.74 699.225,1438.77 699.736,1438.79 700.248,1438.63 700.759,1438.48 701.271,1438.13 701.782,1437.77 702.294,1437.91 702.805,1438.05 703.317,1437.68 703.828,1437.31 704.339,1437.44 704.851,1437.56 705.362,1437.39 705.874,1437.21 706.385,1436.85 706.897,1436.5 707.408,1436.46 707.92,1436.42 708.431,1436.42 708.943,1436.42 709.454,1435.97 709.965,1435.52 710.477,1435.7 710.988,1435.88 711.5,1435.85 712.011,1435.82 712.523,1435.62 713.034,1435.43 713.546,1435.42 714.057,1435.4 714.569,1435.7 715.08,1435.99 715.591,1435.96 716.103,1435.92 716.614,1435.75 717.126,1435.58 717.637,1435.04 718.149,1434.5 718.66,1435.33 719.172,1436.14 719.683,1435.98 720.195,1435.83 720.706,1436.31 721.217,1436.79 721.729,1436.98 722.24,1437.17 722.752,1437.56 723.263,1437.95 723.775,1437.97 724.286,1437.99 724.798,1438.09 725.309,1438.19 725.821,1438.3 726.332,1438.4 726.843,1438.21 727.355,1438.01 727.866,1437.94 728.378,1437.88 728.889,1438.25 729.401,1438.62 729.912,1438.41 730.424,1438.21 730.935,1438.18 731.447,1438.16 731.958,1437.71 732.469,1437.26 732.981,1437.05 733.492,1436.84 734.004,1437 734.515,1437.15 735.027,1436.95 735.538,1436.76 736.05,1437.16 736.561,1437.54 737.073,1437.42 737.584,1437.3 738.095,1437.19 738.607,1437.07 739.118,1437.36 739.63,1437.63 740.141,1438.06 740.653,1438.47 741.164,1438.46 741.676,1438.45 742.187,1438.81 742.699,1439.17 743.21,1439.23 743.721,1439.3 744.233,1439.15 744.744,1439 745.256,1439.05 745.767,1439.09 746.279,1439 746.79,1438.91 747.302,1439.45 747.813,1439.96 748.325,1439.69 748.836,1439.41 749.347,1439.56 749.859,1439.7 750.37,1439.69 750.882,1439.68 751.393,1439.8 751.905,1439.93 752.416,1440.21 752.928,1440.48 753.439,1440.34 753.951,1440.2 754.462,1440.11 754.973,1440.01 755.485,1439.6 755.996,1439.2 756.508,1439.06 757.019,1438.93 757.531,1438.66 758.042,1438.4 758.554,1437.9 759.065,1437.4 759.576,1437.65 760.088,1437.89 760.599,1437.57 761.111,1437.26 761.622,1437.5 762.134,1437.74 762.645,1437.61 763.157,1437.49 763.668,1437.3 764.18,1437.11 764.691,1437.29 765.202,1437.46 765.714,1437.94 766.225,1438.4 766.737,1438.49 767.248,1438.58 767.76,1438.41 768.271,1438.25 768.783,1438.17 769.294,1438.09 769.806,1437.98 770.317,1437.88 770.828,1437.58 771.34,1437.28 771.851,1437.4 772.363,1437.52 772.874,1437.21 773.386,1436.91 773.897,1436.54 774.409,1436.17 774.92,1435.83 775.432,1435.49 775.943,1435.12 776.454,1434.76 776.966,1434.81 777.477,1434.86 777.989,1434.92 778.5,1434.99 779.012,1435.07 779.523,1435.15 780.035,1435.12 780.546,1435.09 781.058,1435.13 781.569,1435.17 782.08,1435.22 782.592,1435.26 783.103,1435.22 783.615,1435.17 784.126,1435.22 784.638,1435.27 785.149,1435.49 785.661,1435.71 786.172,1435.35 786.684,1435 787.195,1435.36 787.706,1435.7 788.218,1435.73 788.729,1435.75 789.241,1435.58 789.752,1435.41 790.264,1435.27 790.775,1435.14 791.287,1435.36 791.798,1435.58 792.31,1435.39 792.821,1435.21 793.332,1434.33 793.844,1433.46 794.355,1433.82 794.867,1434.16 795.378,1434.57 795.89,1434.96 796.401,1435.11 796.913,1435.26 797.424,1435.27 797.936,1435.27 798.447,1435.85 798.958,1436.42 799.47,1436.37 799.981,1436.32 800.493,1436.53 801.004,1436.73 801.516,1436.65 802.027,1436.56 802.539,1436.22 803.05,1435.89 803.562,1436 804.073,1436.1 804.584,1436.29 805.096,1436.47 805.607,1436.85 806.119,1437.21 806.63,1437.18 807.142,1437.14 807.653,1437.18 808.165,1437.23 808.676,1437.4 809.188,1437.57 809.699,1437.64 810.21,1437.7 810.722,1437.61 811.233,1437.52 811.745,1438.3 812.256,1439.05 812.768,1439.46 813.279,1439.83 813.791,1439.86 814.302,1439.9 814.814,1440.08 815.325,1440.26 815.836,1439.93 816.348,1439.6 816.859,1439.32 817.371,1439.04 817.882,1438.79 818.394,1438.55 818.905,1438.4 819.417,1438.25 819.928,1437.46 820.44,1436.68 820.951,1436.34 821.462,1436.01 821.974,1435.53 822.485,1435.05 822.997,1434.85 823.508,1434.65 824.02,1434.37 824.531,1434.08 825.043,1433.59 825.554,1433.1 826.066,1433.16 826.577,1433.22 827.088,1433.89 827.6,1434.54 828.111,1434.46 828.623,1434.39 829.134,1434.58 829.646,1434.77 830.157,1434.54 830.669,1434.31 831.18,1434.32 831.692,1434.32 832.203,1433.86 832.714,1433.41 833.226,1433.14 833.737,1432.86 834.249,1432.87 834.76,1432.87 835.272,1433.44 835.783,1433.99 836.295,1433.59 836.806,1433.2 837.318,1433.74 837.829,1434.26 838.34,1434.49 838.852,1434.7 839.363,1435.24 839.875,1435.76 840.386,1436.05 840.898,1436.32 841.409,1436.22 841.921,1436.12 842.432,1435.98 842.944,1435.84 843.455,1435.99 843.966,1436.13 844.478,1436.49 844.989,1436.83 845.501,1436.57 846.012,1436.3 846.524,1435.96 847.035,1435.62 847.547,1435.88 848.058,1436.13 848.57,1436.26 849.081,1436.38 849.592,1436.01 850.104,1435.65 850.615,1435.36 851.127,1435.07 851.638,1435.62 852.15,1436.14 852.661,1436.48 853.173,1436.8 853.684,1436.42 854.196,1436.04 854.707,1436.25 855.218,1436.44 855.73,1436.67 856.241,1436.89 856.753,1436.67 857.264,1436.46 857.776,1436.71 858.287,1436.95 858.799,1436.71 859.31,1436.47 859.821,1436.69 860.333,1436.89 860.844,1437.08 861.356,1437.26 861.867,1437.45 862.379,1437.62 862.89,1437.83 863.402,1438.03 863.913,1437.78 864.425,1437.54 864.936,1437.43 865.447,1437.33 865.959,1437.69 866.47,1438.03 866.982,1438.5 867.493,1438.95 868.005,1439.22 868.516,1439.48 869.028,1439.64 869.539,1439.79 870.051,1439.73 870.562,1439.67 871.073,1439.94 871.585,1440.21 872.096,1439.77 872.608,1439.35 873.119,1439.6 873.631,1439.84 874.142,1439.87 874.654,1439.9 875.165,1439.68 875.677,1439.46 876.188,1439.28 876.699,1439.1 877.211,1439.09 877.722,1439.08 878.234,1439.05 878.745,1439.03 879.257,1438.97 879.768,1438.92 880.28,1438.39 880.791,1437.87 881.303,1437.84 881.814,1437.81 882.325,1437.76 882.837,1437.72 883.348,1437.85 883.86,1437.98 884.371,1438.22 884.883,1438.46 885.394,1438.28 885.906,1438.11 886.417,1438.34 886.929,1438.56 887.44,1438.58 887.951,1438.59 888.463,1438.84 888.974,1439.08 889.486,1439.31 889.997,1439.52 890.509,1439.1 891.02,1438.67 891.532,1438.79 892.043,1438.9 892.555,1438.92 893.066,1438.94 893.577,1439 894.089,1439.06 894.6,1438.59 895.112,1438.12 895.623,1437.64 896.135,1437.17 896.646,1437.48 897.158,1437.77 897.669,1438 898.181,1438.22 898.692,1438.5 899.203,1438.77 899.715,1438.65 900.226,1438.54 900.738,1438.08 901.249,1437.62 901.761,1437.58 902.272,1437.55 902.784,1437.25 903.295,1436.95 903.807,1437.48 904.318,1438 904.829,1437.75 905.341,1437.5 905.852,1437.94 906.364,1438.37 906.875,1438.18 907.387,1437.99 907.898,1437.91 908.41,1437.83 908.921,1437.89 909.433,1437.95 909.944,1438.18 910.455,1438.41 910.967,1437.95 911.478,1437.48 911.99,1437.18 912.501,1436.88 913.013,1436.36 913.524,1435.84 914.036,1435.6 914.547,1435.36 915.059,1435.44 915.57,1435.51 916.081,1435.77 916.593,1436.03 917.104,1436.28 917.616,1436.52 918.127,1436.82 918.639,1437.11 919.15,1436.53 919.662,1435.96 920.173,1435.71 920.685,1435.45 921.196,1435.07 921.707,1434.69 922.219,1434.65 922.73,1434.6 923.242,1434.47 923.753,1434.33 924.265,1433.88 924.776,1433.43 925.288,1433.64 925.799,1433.85 926.311,1434.04 926.822,1434.21 927.333,1434.61 927.845,1435 928.356,1434.97 928.868,1434.94 929.379,1434.64 929.891,1434.35 930.402,1434.29 930.914,1434.23 931.425,1433.93 931.937,1433.64 932.448,1433.82 932.959,1434.01 933.471,1434.36 933.982,1434.7 934.494,1434.46 935.005,1434.22 935.517,1434.05 936.028,1433.87 936.54,1434.3 937.051,1434.72 937.563,1434.47 938.074,1434.22 938.585,1434.31 939.097,1434.4 939.608,1434.6 940.12,1434.8 940.631,1434.47 941.143,1434.15 941.654,1434.9 942.166,1435.61 942.677,1435.78 943.189,1435.93 943.7,1436.08 944.211,1436.22 944.723,1436.35 945.234,1436.48 945.746,1436.35 946.257,1436.22 946.769,1436.24 947.28,1436.25 947.792,1436.58 948.303,1436.89 948.815,1436.77 949.326,1436.64 949.837,1436.6 950.349,1436.56 950.86,1436.56 951.372,1436.56 951.883,1436.52 952.395,1436.48 952.906,1436.42 953.418,1436.36 953.929,1436.41 954.44,1436.46 954.952,1436.56 955.463,1436.65 955.975,1436.84 956.486,1437.02 956.998,1436.51 957.509,1436.01 958.021,1435.53 958.532,1435.06 959.044,1435.25 959.555,1435.44 960.066,1435.95 960.578,1436.44 961.089,1436.4 961.601,1436.36 962.112,1435.85 962.624,1435.35 963.135,1434.77 963.647,1434.2 964.158,1434.15 964.67,1434.09 965.181,1434 965.692,1433.92 966.204,1434.22 966.715,1434.51 967.227,1434.62 967.738,1434.7 968.25,1434.48 968.761,1434.25 969.273,1434.38 969.784,1434.5 970.296,1434.75 970.807,1434.99 971.318,1434.7 971.83,1434.42 972.341,1434.09 972.853,1433.76 973.364,1433.61 973.876,1433.46 974.387,1432.85 974.899,1432.26 975.41,1432.79 975.922,1433.29 976.433,1433.16 976.944,1433.03 977.456,1433.24 977.967,1433.46 978.479,1433.66 978.99,1433.87 979.502,1433.61 980.013,1433.37 980.525,1433.33 981.036,1433.3 981.548,1433.73 982.059,1434.14 982.57,1434.5 983.082,1434.85 983.593,1434.81 984.105,1434.77 984.616,1434.61 985.128,1434.44 985.639,1434.28 986.151,1434.12 986.662,1434.34 987.174,1434.55 987.685,1434.56 988.196,1434.58 988.708,1434.52 989.219,1434.47 989.731,1434.71 990.242,1434.95 990.754,1435.07 991.265,1435.18 991.777,1435.64 992.288,1436.09 992.8,1436.12 993.311,1436.15 993.822,1436.13 994.334,1436.11 994.845,1435.85 995.357,1435.6 995.868,1435.11 996.38,1434.64 996.891,1434.65 997.403,1434.65 997.914,1434.64 998.426,1434.64 998.937,1435 999.448,1435.35 999.96,1435.39 1000.47,1435.42 1000.98,1435.82 1001.49,1436.19 1002.01,1435.99 1002.52,1435.79 1003.03,1435.65 1003.54,1435.51 1004.05,1435.46 1004.56,1435.41 1005.07,1435.7 1005.59,1435.97 1006.1,1436.21 1006.61,1436.43 1007.12,1436.04 1007.63,1435.65 1008.14,1435.57 1008.65,1435.5 1009.17,1435.38 1009.68,1435.25 1010.19,1434.55 1010.7,1433.86 1011.21,1433.6 1011.72,1433.34 1012.23,1433.67 1012.75,1434 1013.26,1433.72 1013.77,1433.45 1014.28,1433.12 1014.79,1432.8 1015.3,1433.06 1015.81,1433.32 1016.33,1433.31 1016.84,1433.3 1017.35,1433.22 1017.86,1433.14 1018.37,1433.57 1018.88,1433.98 1019.4,1434.26 1019.91,1434.53 1020.42,1435.1 1020.93,1435.65 1021.44,1435.24 1021.95,1434.84 1022.46,1434.92 1022.98,1434.97 1023.49,1434.81 1024,1434.62 1024.51,1434.99 1025.02,1435.34 1025.53,1435.34 1026.04,1435.33 1026.56,1434.59 1027.07,1433.85 1027.58,1434.2 1028.09,1434.53 1028.6,1434.27 1029.11,1434 1029.62,1434.13 1030.14,1434.26 1030.65,1433.68 1031.16,1433.09 1031.67,1433.08 1032.18,1433.06 1032.69,1432.87 1033.2,1432.69 1033.72,1432.22 1034.23,1431.76 1034.74,1431.63 1035.25,1431.5 1035.76,1431.99 1036.27,1432.48 1036.78,1432.8 1037.3,1433.11 1037.81,1432.58 1038.32,1432.06 1038.83,1432.44 1039.34,1432.81 1039.85,1432.84 1040.36,1432.86 1040.88,1433.05 1041.39,1433.24 1041.9,1433.16 1042.41,1433.09 1042.92,1433.43 1043.43,1433.76 1043.94,1434.08 1044.46,1434.39 1044.97,1434.17 1045.48,1433.95 1045.99,1434.03 1046.5,1434.1 1047.01,1433.5 1047.53,1432.9 1048.04,1432.93 1048.55,1432.95 1049.06,1432.75 1049.57,1432.56 1050.08,1432.4 1050.59,1432.24 1051.11,1432.01 1051.62,1431.79 1052.13,1431.92 1052.64,1432.05 1053.15,1432.12 1053.66,1432.18 1054.17,1431.79 1054.69,1431.39 1055.2,1430.74 1055.71,1430.09 1056.22,1429.88 1056.73,1429.68 1057.24,1429.88 1057.75,1430.07 1058.27,1429.88 1058.78,1429.69 1059.29,1429.58 1059.8,1429.48 1060.31,1429.1 1060.82,1428.72 1061.33,1428.2 1061.85,1427.65 1062.36,1428.38 1062.87,1429.08 1063.38,1429.27 1063.89,1429.45 1064.4,1428.86 1064.91,1428.28 1065.43,1427.93 1065.94,1427.59 1066.45,1427.7 1066.96,1427.8 1067.47,1427.6 1067.98,1427.4 1068.49,1427.67 1069.01,1427.94 1069.52,1428.72 1070.03,1429.47 1070.54,1429.29 1071.05,1429.09 1071.56,1428.98 1072.07,1428.86 1072.59,1429.09 1073.1,1429.31 1073.61,1429.17 1074.12,1429.04 1074.63,1429.54 1075.14,1430.02 1075.66,1430.27 1076.17,1430.51 1076.68,1430.68 1077.19,1430.85 1077.7,1430.89 1078.21,1430.93 1078.72,1430.55 1079.24,1430.17 1079.75,1430.1 1080.26,1430.04 1080.77,1430.07 1081.28,1430.11 1081.79,1430.31 1082.3,1430.51 1082.82,1430.61 1083.33,1430.71 1083.84,1430.07 1084.35,1429.45 1084.86,1429.61 1085.37,1429.77 1085.88,1429.97 1086.4,1430.16 1086.91,1430.12 1087.42,1430.08 1087.93,1429.45 1088.44,1428.82 1088.95,1428.94 1089.46,1429.06 1089.98,1428.91 1090.49,1428.75 1091,1428.92 1091.51,1429.09 1092.02,1428.9 1092.53,1428.71 1093.04,1428.51 1093.56,1428.32 1094.07,1428.71 1094.58,1429.06 1095.09,1429.14 1095.6,1429.21 1096.11,1429.21 1096.62,1429.21 1097.14,1429.5 1097.65,1429.78 1098.16,1429.62 1098.67,1429.47 1099.18,1430.16 1099.69,1430.83 1100.2,1430.74 1100.72,1430.65 1101.23,1430.67 1101.74,1430.69 1102.25,1430.5 1102.76,1430.31 1103.27,1431.09 1103.79,1431.85 1104.3,1431.37 1104.81,1430.88 1105.32,1430.49 1105.83,1430.11 1106.34,1430.25 1106.85,1430.38 1107.37,1430.05 1107.88,1429.73 1108.39,1429.92 1108.9,1430.11 1109.41,1430.35 1109.92,1430.59 1110.43,1430.51 1110.95,1430.42 1111.46,1430.98 1111.97,1431.53 1112.48,1431.63 1112.99,1431.72 1113.5,1431.58 1114.01,1431.43 1114.53,1431.23 1115.04,1431.03 1115.55,1431.11 1116.06,1431.18 1116.57,1431.32 1117.08,1431.46 1117.59,1430.99 1118.11,1430.53 1118.62,1430.41 1119.13,1430.29 1119.64,1430.52 1120.15,1430.74 1120.66,1430.33 1121.17,1429.92 1121.69,1429.87 1122.2,1429.82 1122.71,1429.94 1123.22,1430.06 1123.73,1430.02 1124.24,1429.99 1124.75,1430.3 1125.27,1430.61 1125.78,1430.73 1126.29,1430.85 1126.8,1430.88 1127.31,1430.9 1127.82,1431.48 1128.33,1432.04 1128.85,1431.75 1129.36,1431.45 1129.87,1431.68 1130.38,1431.88 1130.89,1431.98 1131.4,1432.07 1131.92,1431.63 1132.43,1431.19 1132.94,1431.31 1133.45,1431.43 1133.96,1431.27 1134.47,1431.1 1134.98,1431.03 1135.5,1430.96 1136.01,1430.41 1136.52,1429.87 1137.03,1430.18 1137.54,1430.48 1138.05,1430 1138.56,1429.53 1139.08,1429.9 1139.59,1430.25 1140.1,1430.01 1140.61,1429.77 1141.12,1429.4 1141.63,1429.03 1142.14,1429.24 1142.66,1429.45 1143.17,1429.13 1143.68,1428.82 1144.19,1429.4 1144.7,1429.96 1145.21,1429.33 1145.72,1428.7 1146.24,1428.79 1146.75,1428.88 1147.26,1428.57 1147.77,1428.26 1148.28,1428.07 1148.79,1427.88 1149.3,1427.91 1149.82,1427.94 1150.33,1428.27 1150.84,1428.58 1151.35,1428.24 1151.86,1427.91 1152.37,1427.75 1152.88,1427.6 1153.4,1427.04 1153.91,1426.48 1154.42,1426.7 1154.93,1426.91 1155.44,1426.35 1155.95,1425.79 1156.46,1425.54 1156.98,1425.3 1157.49,1425.65 1158,1426 1158.51,1425.92 1159.02,1425.84 1159.53,1425.08 1160.05,1424.33 1160.56,1423.9 1161.07,1423.48 1161.58,1423.33 1162.09,1423.19 1162.6,1422.42 1163.11,1421.65 1163.63,1421.32 1164.14,1421 1164.65,1420.76 1165.16,1420.53 1165.67,1420.78 1166.18,1421.03 1166.69,1421.02 1167.21,1421.01 1167.72,1420.79 1168.23,1420.57 1168.74,1420.82 1169.25,1421.06 1169.76,1421.35 1170.27,1421.64 1170.79,1421.9 1171.3,1422.16 1171.81,1422.7 1172.32,1423.22 1172.83,1423.2 1173.34,1423.19 1173.85,1423.79 1174.37,1424.36 1174.88,1423.66 1175.39,1422.98 1175.9,1422.81 1176.41,1422.64 1176.92,1423.52 1177.43,1424.39 1177.95,1424.48 1178.46,1424.56 1178.97,1424.68 1179.48,1424.8 1179.99,1424.8 1180.5,1424.79 1181.01,1425.39 1181.53,1425.95 1182.04,1426.36 1182.55,1426.75 1183.06,1426.68 1183.57,1426.62 1184.08,1426.34 1184.59,1426.07 1185.11,1426.09 1185.62,1426.11 1186.13,1425.97 1186.64,1425.82 1187.15,1426.12 1187.66,1426.41 1188.18,1426.12 1188.69,1425.83 1189.2,1425.75 1189.71,1425.68 1190.22,1425.23 1190.73,1424.8 1191.24,1424.86 1191.76,1424.93 1192.27,1424.91 1192.78,1424.88 1193.29,1423.98 1193.8,1423.1 1194.31,1422.91 1194.82,1422.72 1195.34,1423.08 1195.85,1423.42 1196.36,1423.48 1196.87,1423.54 1197.38,1423.49 1197.89,1423.44 1198.4,1423.86 1198.92,1424.27 1199.43,1424.13 1199.94,1423.99 1200.45,1423.71 1200.96,1423.43 1201.47,1423.66 1201.98,1423.89 1202.5,1423.76 1203.01,1423.63 1203.52,1423.84 1204.03,1424.05 1204.54,1423.77 1205.05,1423.5 1205.56,1423.79 1206.08,1424.07 1206.59,1423.91 1207.1,1423.75 1207.61,1423.85 1208.12,1423.95 1208.63,1423.97 1209.14,1423.98 1209.66,1423.83 1210.17,1423.68 1210.68,1423.5 1211.19,1423.33 1211.7,1422.67 1212.21,1422.01 1212.72,1422.33 1213.24,1422.63 1213.75,1422.87 1214.26,1423.1 1214.77,1423.02 1215.28,1422.94 1215.79,1423.43 1216.3,1423.9 1216.82,1423.45 1217.33,1423 1217.84,1422.81 1218.35,1422.63 1218.86,1423.26 1219.37,1423.87 1219.89,1423.75 1220.4,1423.63 1220.91,1424.08 1221.42,1424.52 1221.93,1424.56 1222.44,1424.6 1222.95,1424.83 1223.47,1425.05 1223.98,1425.46 1224.49,1425.85 1225,1425.88 1225.51,1425.9 1226.02,1426.35 1226.53,1426.79 1227.05,1426.79 1227.56,1426.78 1228.07,1427.17 1228.58,1427.53 1229.09,1427.52 1229.6,1427.51 1230.11,1427.49 1230.63,1427.48 1231.14,1427.58 1231.65,1427.69 1232.16,1427.42 1232.67,1427.15 1233.18,1427.07 1233.69,1426.99 1234.21,1426.97 1234.72,1426.96 1235.23,1426.99 1235.74,1427.02 1236.25,1427.33 1236.76,1427.62 1237.27,1428.01 1237.79,1428.39 1238.3,1428.48 1238.81,1428.56 1239.32,1428.81 1239.83,1429.05 1240.34,1429.05 1240.85,1429.06 1241.37,1429.1 1241.88,1429.14 1242.39,1429.08 1242.9,1429.02 1243.41,1428.96 1243.92,1428.89 1244.43,1428.33 1244.95,1427.76 1245.46,1427.66 1245.97,1427.56 1246.48,1427.99 1246.99,1428.41 1247.5,1428.58 1248.02,1428.74 1248.53,1429 1249.04,1429.26 1249.55,1429.55 1250.06,1429.83 1250.57,1430.04 1251.08,1430.26 1251.6,1430.68 1252.11,1431.09 1252.62,1430.74 1253.13,1430.37 1253.64,1430.56 1254.15,1430.76 1254.66,1430.43 1255.18,1430.11 1255.69,1429.7 1256.2,1429.29 1256.71,1429.69 1257.22,1430.07 1257.73,1429.99 1258.24,1429.92 1258.76,1429.76 1259.27,1429.61 1259.78,1428.8 1260.29,1428 1260.8,1427.85 1261.31,1427.68 1261.82,1427.48 1262.34,1427.29 1262.85,1427.33 1263.36,1427.37 1263.87,1427.74 1264.38,1428.11 1264.89,1428 1265.4,1427.9 1265.92,1427.98 1266.43,1428.06 1266.94,1427.88 1267.45,1427.71 1267.96,1427.11 1268.47,1426.51 1268.98,1426.67 1269.5,1426.83 1270.01,1427.02 1270.52,1427.2 1271.03,1427.34 1271.54,1427.48 1272.05,1427.61 1272.56,1427.74 1273.08,1427.92 1273.59,1428.09 1274.1,1427.89 1274.61,1427.67 1275.12,1427.38 1275.63,1427.09 1276.15,1427.44 1276.66,1427.78 1277.17,1428.12 1277.68,1428.45 1278.19,1428.41 1278.7,1428.35 1279.21,1427.91 1279.73,1427.46 1280.24,1427.46 1280.75,1427.45 1281.26,1427.12 1281.77,1426.8 1282.28,1427 1282.79,1427.19 1283.31,1427.26 1283.82,1427.32 1284.33,1427.4 1284.84,1427.48 1285.35,1427.39 1285.86,1427.31 1286.37,1426.82 1286.89,1426.35 1287.4,1426.54 1287.91,1426.73 1288.42,1426.55 1288.93,1426.35 1289.44,1426.67 1289.95,1426.97 1290.47,1426.68 1290.98,1426.39 1291.49,1425.57 1292,1424.75 1292.51,1425.12 1293.02,1425.48 1293.53,1425.42 1294.05,1425.37 1294.56,1425.94 1295.07,1426.49 1295.58,1426.3 1296.09,1426.11 1296.6,1426.25 1297.11,1426.37 1297.63,1426.35 1298.14,1426.32 1298.65,1426.19 1299.16,1426.06 1299.67,1425.64 1300.18,1425.22 1300.69,1425.3 1301.21,1425.37 1301.72,1425.44 1302.23,1425.51 1302.74,1425.84 1303.25,1426.17 1303.76,1426.31 1304.28,1426.46 1304.79,1426.55 1305.3,1426.64 1305.81,1426.36 1306.32,1426.09 1306.83,1426.19 1307.34,1426.29 1307.86,1426.7 1308.37,1427.08 1308.88,1426.98 1309.39,1426.87 1309.9,1426.39 1310.41,1425.93 1310.92,1426.24 1311.44,1426.54 1311.95,1426.82 1312.46,1427.1 1312.97,1427.12 1313.48,1427.14 1313.99,1426.62 1314.5,1426.11 1315.02,1425.75 1315.53,1425.39 1316.04,1425.16 1316.55,1424.93 1317.06,1424.96 1317.57,1424.98 1318.08,1424.44 1318.6,1423.91 1319.11,1424.52 1319.62,1425.12 1320.13,1425.32 1320.64,1425.51 1321.15,1426 1321.66,1426.48 1322.18,1426.87 1322.69,1427.24 1323.2,1427.19 1323.71,1427.14 1324.22,1427.58 1324.73,1428 1325.24,1428.43 1325.76,1428.85 1326.27,1429.09 1326.78,1429.33 1327.29,1429.33 1327.8,1429.33 1328.31,1429.29 1328.82,1429.26 1329.34,1429.56 1329.85,1429.86 1330.36,1430.16 1330.87,1430.45 1331.38,1430.58 1331.89,1430.71 1332.41,1430.02 1332.92,1429.34 1333.43,1428.53 1333.94,1427.73 1334.45,1427.44 1334.96,1427.15 1335.47,1427.7 1335.99,1428.24 1336.5,1428.14 1337.01,1428.05 1337.52,1427.45 1338.03,1426.85 1338.54,1426.83 1339.05,1426.81 1339.57,1426.58 1340.08,1426.34 1340.59,1425.98 1341.1,1425.61 1341.61,1425.65 1342.12,1425.67 1342.63,1425.75 1343.15,1425.82 1343.66,1426.02 1344.17,1426.2 1344.68,1425.85 1345.19,1425.5 1345.7,1425.01 1346.21,1424.53 1346.73,1424.95 1347.24,1425.36 1347.75,1425.18 1348.26,1424.99 1348.77,1425.05 1349.28,1425.11 1349.79,1425.01 1350.31,1424.91 1350.82,1425.17 1351.33,1425.4 1351.84,1425.62 1352.35,1425.84 1352.86,1425.17 1353.37,1424.49 1353.89,1424.8 1354.4,1425.11 1354.91,1425.36 1355.42,1425.6 1355.93,1425.47 1356.44,1425.34 1356.95,1425.6 1357.47,1425.85 1357.98,1426.39 1358.49,1426.92 1359,1426.36 1359.51,1425.81 1360.02,1425.43 1360.54,1425.06 1361.05,1424.51 1361.56,1423.97 1362.07,1423.92 1362.58,1423.87 1363.09,1423.75 1363.6,1423.62 1364.12,1423.22 1364.63,1422.83 1365.14,1423.24 1365.65,1423.65 1366.16,1423.38 1366.67,1423.12 1367.18,1423.74 1367.7,1424.34 1368.21,1424.32 1368.72,1424.29 1369.23,1425.14 1369.74,1425.97 1370.25,1425.36 1370.76,1424.77 1371.28,1424.16 1371.79,1423.56 1372.3,1423.84 1372.81,1424.11 1373.32,1424.49 1373.83,1424.86 1374.34,1425.25 1374.86,1425.63 1375.37,1426.02 1375.88,1426.4 1376.39,1426.8 1376.9,1427.2 1377.41,1426.42 1377.92,1425.65 1378.44,1426.32 1378.95,1426.97 1379.46,1427.09 1379.97,1427.19 1380.48,1427.75 1380.99,1428.3 1381.5,1428.14 1382.02,1427.99 1382.53,1427.55 1383.04,1427.12 1383.55,1427.5 1384.06,1427.87 1384.57,1427.63 1385.08,1427.39 1385.6,1427.34 1386.11,1427.29 1386.62,1427.62 1387.13,1427.94 1387.64,1428.41 1388.15,1428.87 1388.66,1428.8 1389.18,1428.72 1389.69,1428.67 1390.2,1428.62 1390.71,1428.3 1391.22,1427.98 1391.73,1427.75 1392.25,1427.53 1392.76,1427.12 1393.27,1426.72 1393.78,1426.6 1394.29,1426.48 1394.8,1426.83 1395.31,1427.16 1395.83,1427.54 1396.34,1427.92 1396.85,1427.95 1397.36,1427.98 1397.87,1428.48 1398.38,1428.98 1398.89,1429.37 1399.41,1429.76 1399.92,1430.25 1400.43,1430.72 1400.94,1430.47 1401.45,1430.21 1401.96,1430.73 1402.47,1431.24 1402.99,1431.38 1403.5,1431.52 1404.01,1431.43 1404.52,1431.33 1405.03,1431.45 1405.54,1431.57 1406.05,1431.35 1406.57,1431.13 1407.08,1431.56 1407.59,1431.98 1408.1,1431 1408.61,1430.01 1409.12,1429.71 1409.63,1429.41 1410.15,1429.4 1410.66,1429.39 1411.17,1429.12 1411.68,1428.86 1412.19,1428.4 1412.7,1427.95 1413.21,1427.31 1413.73,1426.69 1414.24,1426.64 1414.75,1426.59 1415.26,1426.83 1415.77,1427.06 1416.28,1427.06 1416.79,1427.05 1417.31,1427 1417.82,1426.93 1418.33,1426.01 1418.84,1425.1 1419.35,1424.4 1419.86,1423.68 1420.38,1423.91 1420.89,1424.13 1421.4,1424.05 1421.91,1423.97 1422.42,1423.87 1422.93,1423.75 1423.44,1424.02 1423.96,1424.28 1424.47,1424.79 1424.98,1425.28 1425.49,1425 1426,1424.72 1426.51,1424.39 1427.02,1424.07 1427.54,1424.1 1428.05,1424.12 1428.56,1423.17 1429.07,1422.22 1429.58,1422.49 1430.09,1422.75 1430.6,1422.77 1431.12,1422.79 1431.63,1423.51 1432.14,1424.22 1432.65,1424.11 1433.16,1423.99 1433.67,1423.81 1434.18,1423.62 1434.7,1423.52 1435.21,1423.43 1435.72,1422.73 1436.23,1422.03 1436.74,1422.21 1437.25,1422.39 1437.76,1421.92 1438.28,1421.46 1438.79,1421.27 1439.3,1421.07 1439.81,1421.21 1440.32,1421.34 1440.83,1421.34 1441.34,1421.33 1441.86,1421.02 1442.37,1420.72 1442.88,1421.02 1443.39,1421.3 1443.9,1421.02 1444.41,1420.75 1444.92,1421.22 1445.44,1421.68 1445.95,1420.55 1446.46,1419.39 1446.97,1419.87 1447.48,1420.34 1447.99,1420.45 1448.51,1420.57 1449.02,1420.7 1449.53,1420.83 1450.04,1421.42 1450.55,1422 1451.06,1421.82 1451.57,1421.64 1452.09,1421.96 1452.6,1422.28 1453.11,1422.45 1453.62,1422.62 1454.13,1422.62 1454.64,1422.62 1455.15,1422.79 1455.67,1422.96 1456.18,1423.15 1456.69,1423.32 1457.2,1423.11 1457.71,1422.91 1458.22,1423.22 1458.73,1423.52 1459.25,1423.31 1459.76,1423.1 1460.27,1423.1 1460.78,1423.09 1461.29,1422.77 1461.8,1422.44 1462.31,1422.41 1462.83,1422.38 1463.34,1422.41 1463.85,1422.44 1464.36,1421.82 1464.87,1421.21 1465.38,1421.61 1465.89,1422 1466.41,1421.97 1466.92,1421.95 1467.43,1421.71 1467.94,1421.48 1468.45,1422.18 1468.96,1422.85 1469.47,1422.49 1469.99,1422.13 1470.5,1422.37 1471.01,1422.6 1471.52,1422.48 1472.03,1422.36 1472.54,1422.29 1473.05,1422.21 1473.57,1422.48 1474.08,1422.74 1474.59,1422.79 1475.1,1422.84 1475.61,1422.62 1476.12,1422.42 1476.64,1422.29 1477.15,1422.16 1477.66,1422.06 1478.17,1421.97 1478.68,1422.34 1479.19,1422.71 1479.7,1423.3 1480.22,1423.87 1480.73,1424.44 1481.24,1424.99 1481.75,1424.58 1482.26,1424.18 1482.77,1423.93 1483.28,1423.67 1483.8,1423.58 1484.31,1423.48 1484.82,1423.77 1485.33,1424.06 1485.84,1423.57 1486.35,1423.08 1486.86,1422.65 1487.38,1422.21 1487.89,1422.05 1488.4,1421.9 1488.91,1421.69 1489.42,1421.48 1489.93,1421.38 1490.44,1421.27 1490.96,1420.76 1491.47,1420.25 1491.98,1419.7 1492.49,1419.15 1493,1418.17 1493.51,1417.18 1494.02,1417.12 1494.54,1417.04 1495.05,1416.87 1495.56,1416.7 1496.07,1416.85 1496.58,1416.99 1497.09,1416.91 1497.6,1416.84 1498.12,1416.28 1498.63,1415.73 1499.14,1415.4 1499.65,1415.08 1500.16,1415.88 1500.67,1416.65 1501.18,1416.34 1501.7,1416.01 1502.21,1415.92 1502.72,1415.82 1503.23,1415.82 1503.74,1415.83 1504.25,1416 1504.77,1416.16 1505.28,1416.31 1505.79,1416.47 1506.3,1416.22 1506.81,1415.99 1507.32,1416.21 1507.83,1416.43 1508.35,1415.92 1508.86,1415.42 1509.37,1415.3 1509.88,1415.19 1510.39,1415.51 1510.9,1415.83 1511.41,1416.06 1511.93,1416.28 1512.44,1416.28 1512.95,1416.27 1513.46,1416.15 1513.97,1416.03 1514.48,1416.4 1514.99,1416.76 1515.51,1416.97 1516.02,1417.17 1516.53,1417.49 1517.04,1417.82 1517.55,1417.82 1518.06,1417.82 1518.57,1417.93 1519.09,1418.04 1519.6,1418.13 1520.11,1418.21 1520.62,1418.01 1521.13,1417.81 1521.64,1417.72 1522.15,1417.63 1522.67,1417.37 1523.18,1417.1 1523.69,1417.6 1524.2,1418.08 1524.71,1418.34 1525.22,1418.6 1525.73,1418.25 1526.25,1417.92 1526.76,1418.15 1527.27,1418.38 1527.78,1418.95 1528.29,1419.51 1528.8,1419.5 1529.31,1419.49 1529.83,1419.78 1530.34,1420.07 1530.85,1420.24 1531.36,1420.38 1531.87,1420.48 1532.38,1420.55 1532.9,1421.1 1533.41,1421.63 1533.92,1421.17 1534.43,1420.71 1534.94,1421.31 1535.45,1421.9 1535.96,1421.55 1536.48,1421.2 1536.99,1420.83 1537.5,1420.48 1538.01,1420.36 1538.52,1420.24 1539.03,1420.38 1539.54,1420.5 1540.06,1420.47 1540.57,1420.43 1541.08,1420.73 1541.59,1421.02 1542.1,1420.45 1542.61,1419.89 1543.12,1419.68 1543.64,1419.46 1544.15,1419.38 1544.66,1419.31 1545.17,1418.77 1545.68,1418.25 1546.19,1418.51 1546.7,1418.76 1547.22,1419.01 1547.73,1419.26 1548.24,1419.98 1548.75,1420.67 1549.26,1421.07 1549.77,1421.45 1550.28,1421.84 1550.8,1422.22 1551.31,1422.78 1551.82,1423.32 1552.33,1423.38 1552.84,1423.44 1553.35,1422.57 1553.86,1421.71 1554.38,1421.75 1554.89,1421.78 1555.4,1422.1 1555.91,1422.42 1556.42,1422.47 1556.93,1422.52 1557.44,1422.33 1557.96,1422.14 1558.47,1421.53 1558.98,1420.93 1559.49,1421.18 1560,1421.43 1560.51,1421.65 1561.03,1421.86 1561.54,1421.96 1562.05,1422.05 1562.56,1422.15 1563.07,1422.26 1563.58,1422.63 1564.09,1422.98 1564.61,1423.17 1565.12,1423.36 1565.63,1423.24 1566.14,1423.12 1566.65,1423.18 1567.16,1423.23 1567.67,1422.91 1568.19,1422.57 1568.7,1422.63 1569.21,1422.7 1569.72,1422.81 1570.23,1422.93 1570.74,1422.82 1571.25,1422.71 1571.77,1422.64 1572.28,1422.57 1572.79,1422.1 1573.3,1421.65 1573.81,1422.3 1574.32,1422.94 1574.83,1423.63 1575.35,1424.3 1575.86,1423.88 1576.37,1423.46 1576.88,1423.56 1577.39,1423.65 1577.9,1423.5 1578.41,1423.35 1578.93,1423.59 1579.44,1423.83 1579.95,1423.59 1580.46,1423.35 1580.97,1423.66 1581.48,1423.97 1581.99,1423.74 1582.51,1423.52 1583.02,1423.79 1583.53,1424.05 1584.04,1424.43 1584.55,1424.81 1585.06,1424.28 1585.57,1423.77 1586.09,1424.11 1586.6,1424.44 1587.11,1424.39 1587.62,1424.33 1588.13,1424.18 1588.64,1424.04 1589.15,1423.82 1589.67,1423.61 1590.18,1423.72 1590.69,1423.83 1591.2,1424 1591.71,1424.16 1592.22,1424.55 1592.74,1424.93 1593.25,1424.32 1593.76,1423.71 1594.27,1423.28 1594.78,1422.86 1595.29,1422.76 1595.8,1422.67 1596.32,1422.58 1596.83,1422.5 1597.34,1422.96 1597.85,1423.4 1598.36,1423.12 1598.87,1422.85 1599.38,1422.88 1599.9,1422.9 1600.41,1423.1 1600.92,1423.29 1601.43,1423.05 1601.94,1422.8 1602.45,1422.29 1602.96,1421.79 1603.48,1422.15 1603.99,1422.51 1604.5,1422.33 1605.01,1422.14 1605.52,1422.32 1606.03,1422.49 1606.54,1423.14 1607.06,1423.77 1607.57,1423.73 1608.08,1423.7 1608.59,1423.03 1609.1,1422.35 1609.61,1422.36 1610.12,1422.38 1610.64,1422.36 1611.15,1422.34 1611.66,1422.3 1612.17,1422.26 1612.68,1422.31 1613.19,1422.37 1613.7,1422.83 1614.22,1423.29 1614.73,1423.28 1615.24,1423.27 1615.75,1423.75 1616.26,1424.2 1616.77,1424.29 1617.28,1424.38 1617.8,1424.34 1618.31,1424.28 1618.82,1424.75 1619.33,1425.21 1619.84,1425.28 1620.35,1425.34 1620.87,1424.95 1621.38,1424.57 1621.89,1424.41 1622.4,1424.26 1622.91,1423.86 1623.42,1423.46 1623.93,1423.9 1624.45,1424.32 1624.96,1424.51 1625.47,1424.68 1625.98,1424.96 1626.49,1425.24 1627,1424.77 1627.51,1424.3 1628.03,1424.58 1628.54,1424.84 1629.05,1424.31 1629.56,1423.77 1630.07,1423.76 1630.58,1423.74 1631.09,1423.87 1631.61,1424.01 1632.12,1423.39 1632.63,1422.79 1633.14,1422.49 1633.65,1422.21 1634.16,1422.44 1634.67,1422.66 1635.19,1423.07 1635.7,1423.48 1636.21,1423.4 1636.72,1423.33 1637.23,1423.84 1637.74,1424.33 1638.25,1424.2 1638.77,1424.07 1639.28,1424.45 1639.79,1424.8 1640.3,1424.65 1640.81,1424.49 1641.32,1424.23 1641.83,1423.98 1642.35,1424.1 1642.86,1424.21 1643.37,1424.05 1643.88,1423.88 1644.39,1424.57 1644.9,1425.25 1645.41,1424.75 1645.93,1424.25 1646.44,1424.09 1646.95,1423.92 1647.46,1423.83 1647.97,1423.73 1648.48,1424.13 1649,1424.52 1649.51,1424.57 1650.02,1424.63 1650.53,1424.07 1651.04,1423.53 1651.55,1423.74 1652.06,1423.95 1652.58,1423.66 1653.09,1423.37 1653.6,1422.96 1654.11,1422.55 1654.62,1422.83 1655.13,1423.09 1655.64,1423.16 1656.16,1423.23 1656.67,1423.05 1657.18,1422.86 1657.69,1423.19 1658.2,1423.51 1658.71,1423.27 1659.22,1423.04 1659.74,1423.07 1660.25,1423.1 1660.76,1423.17 1661.27,1423.24 1661.78,1423.01 1662.29,1422.76 1662.8,1422.38 1663.32,1422 1663.83,1422.26 1664.34,1422.52 1664.85,1422.78 1665.36,1423.04 1665.87,1422.69 1666.38,1422.34 1666.9,1422.22 1667.41,1422.09 1667.92,1422.76 1668.43,1423.41 1668.94,1423.49 1669.45,1423.57 1669.96,1422.98 1670.48,1422.39 1670.99,1422.46 1671.5,1422.54 1672.01,1423.11 1672.52,1423.66 1673.03,1423.6 1673.54,1423.52 1674.06,1423.76 1674.57,1423.99 1675.08,1424.24 1675.59,1424.49 1676.1,1424.28 1676.61,1424.07 1677.13,1424.06 1677.64,1424.04 1678.15,1424.27 1678.66,1424.49 1679.17,1424.4 1679.68,1424.32 1680.19,1424.31 1680.71,1424.3 1681.22,1424.71 1681.73,1425.1 1682.24,1425.29 1682.75,1425.47 1683.26,1425.93 1683.77,1426.37 1684.29,1426.06 1684.8,1425.75 1685.31,1425.58 1685.82,1425.4 1686.33,1425.19 1686.84,1424.97 1687.35,1425.05 1687.87,1425.12 1688.38,1424.8 1688.89,1424.48 1689.4,1424.54 1689.91,1424.59 1690.42,1424.44 1690.93,1424.3 1691.45,1424.45 1691.96,1424.6 1692.47,1424.89 1692.98,1425.16 1693.49,1425.11 1694,1425.05 1694.51,1425.05 1695.03,1425.05 1695.54,1425.02 1696.05,1424.99 1696.56,1424.7 1697.07,1424.41 1697.58,1424.44 1698.09,1424.47 1698.61,1424.56 1699.12,1424.65 1699.63,1424.35 1700.14,1424.04 1700.65,1424.27 1701.16,1424.48 1701.67,1424.44 1702.19,1424.4 1702.7,1424.36 1703.21,1424.32 1703.72,1424.09 1704.23,1423.86 1704.74,1423.8 1705.26,1423.74 1705.77,1424.1 1706.28,1424.45 1706.79,1424.14 1707.3,1423.84 1707.81,1424.32 1708.32,1424.79 1708.84,1424.97 1709.35,1425.14 1709.86,1424.88 1710.37,1424.63 1710.88,1424.72 1711.39,1424.78 1711.9,1424.94 1712.42,1425.08 1712.93,1425.14 1713.44,1425.18 1713.95,1425.5 1714.46,1425.81 1714.97,1425.62 1715.48,1425.45 1716,1425.15 1716.51,1424.85 1717.02,1424.49 1717.53,1424.14 1718.04,1424.17 1718.55,1424.2 1719.06,1423.97 1719.58,1423.72 1720.09,1423.26 1720.6,1422.81 1721.11,1422.19 1721.62,1421.57 1722.13,1421.38 1722.64,1421.19 1723.16,1420.41 1723.67,1419.65 1724.18,1419.96 1724.69,1420.26 1725.2,1420.55 1725.71,1420.83 1726.22,1421.43 1726.74,1422.01 1727.25,1421.31 1727.76,1420.6 1728.27,1420.56 1728.78,1420.52 1729.29,1420.17 1729.8,1419.82 1730.32,1419.78 1730.83,1419.73 1731.34,1418.99 1731.85,1418.26 1732.36,1418.09 1732.87,1417.92 1733.39,1417.82 1733.9,1417.72 1734.41,1417.53 1734.92,1417.34 1735.43,1417.72 1735.94,1418.09 1736.45,1417.5 1736.97,1416.93 1737.48,1417.45 1737.99,1417.95 1738.5,1417.82 1739.01,1417.68 1739.52,1417.58 1740.03,1417.47 1740.55,1417.79 1741.06,1418.1 1741.57,1418.39 1742.08,1418.67 1742.59,1418.9 1743.1,1419.11 1743.61,1419.4 1744.13,1419.69 1744.64,1419.83 1745.15,1419.97 1745.66,1419.9 1746.17,1419.84 1746.68,1419.63 1747.19,1419.41 1747.71,1420.13 1748.22,1420.82 1748.73,1421.17 1749.24,1421.5 1749.75,1421.35 1750.26,1421.2 1750.77,1421.8 1751.29,1422.37 1751.8,1422.14 1752.31,1421.92 1752.82,1421.19 1753.33,1420.48 1753.84,1419.11 1754.35,1417.75 1754.87,1417.98 1755.38,1418.2 1755.89,1417.56 1756.4,1416.93 1756.91,1417.04 1757.42,1417.13 1757.93,1417.09 1758.45,1417.04 1758.96,1417.07 1759.47,1417.09 1759.98,1416.94 1760.49,1416.78 1761,1416.57 1761.52,1416.36 1762.03,1416.45 1762.54,1416.55 1763.05,1416.03 1763.56,1415.51 1764.07,1414.77 1764.58,1414.03 1765.1,1414.51 1765.61,1414.97 1766.12,1415.44 1766.63,1415.9 1767.14,1415.62 1767.65,1415.34 1768.16,1416.09 1768.68,1416.81 1769.19,1416.96 1769.7,1417.1 1770.21,1417.92 1770.72,1418.71 1771.23,1418.94 1771.74,1419.16 1772.26,1419.02 1772.77,1418.86 1773.28,1418.77 1773.79,1418.66 1774.3,1418.6 1774.81,1418.53 1775.32,1417.15 1775.84,1415.77 1776.35,1416.54 1776.86,1417.29 1777.37,1417.71 1777.88,1418.1 1778.39,1418.09 1778.9,1418.07 1779.42,1418.5 1779.93,1418.92 1780.44,1418.63 1780.95,1418.35 1781.46,1418.8 1781.97,1419.25 1782.48,1419.63 1783,1420 1783.51,1419.51 1784.02,1419.02 1784.53,1419.17 1785.04,1419.33 1785.55,1419.77 1786.06,1420.2 1786.58,1420.46 1787.09,1420.7 1787.6,1419.9 1788.11,1419.1 1788.62,1419.1 1789.13,1419.09 1789.64,1418.92 1790.16,1418.75 1790.67,1419.05 1791.18,1419.35 1791.69,1419.78 1792.2,1420.19 1792.71,1419.35 1793.23,1418.53 1793.74,1418.83 1794.25,1419.12 1794.76,1418.66 1795.27,1418.17 1795.78,1418.77 1796.29,1419.36 1796.81,1418.94 1797.32,1418.53 1797.83,1418.48 1798.34,1418.43 1798.85,1418.5 1799.36,1418.56 1799.87,1419.18 1800.39,1419.79 1800.9,1420.03 1801.41,1420.27 1801.92,1420.17 1802.43,1420.08 1802.94,1420.35 1803.45,1420.6 1803.97,1420.62 1804.48,1420.63 1804.99,1420.68 1805.5,1420.72 1806.01,1421.04 1806.52,1421.35 1807.03,1421.63 1807.55,1421.9 1808.06,1421.91 1808.57,1421.92 1809.08,1421.62 1809.59,1421.3 1810.1,1421.55 1810.61,1421.79 1811.13,1422.24 1811.64,1422.67 1812.15,1422.72 1812.66,1422.76 1813.17,1422.83 1813.68,1422.89 1814.19,1422.84 1814.71,1422.8 1815.22,1423.14 1815.73,1423.47 1816.24,1423.52 1816.75,1423.57 1817.26,1423.27 1817.77,1422.96 1818.29,1422.85 1818.8,1422.76 1819.31,1422.68 1819.82,1422.6 1820.33,1422.49 1820.84,1422.37 1821.36,1422.7 1821.87,1423.03 1822.38,1422.92 1822.89,1422.82 1823.4,1422.22 1823.91,1421.64 1824.42,1421.61 1824.94,1421.57 1825.45,1421.81 1825.96,1422.05 1826.47,1422.09 1826.98,1422.14 1827.49,1422.19 1828,1422.24 1828.52,1422.53 1829.03,1422.82 1829.54,1422.65 1830.05,1422.49 1830.56,1422.12 1831.07,1421.76 1831.58,1421.64 1832.1,1421.53 1832.61,1421.87 1833.12,1422.2 1833.63,1422.4 1834.14,1422.59 1834.65,1422.74 1835.16,1422.87 1835.68,1423.08 1836.19,1423.28 1836.7,1423.11 1837.21,1422.95 1837.72,1422.12 1838.23,1421.3 1838.74,1421.12 1839.26,1420.93 1839.77,1421.39 1840.28,1421.84 1840.79,1421.36 1841.3,1420.89 1841.81,1421.03 1842.32,1421.17 1842.84,1421.13 1843.35,1421.09 1843.86,1420.98 1844.37,1420.88 1844.88,1420.84 1845.39,1420.81 1845.9,1421.02 1846.42,1421.23 1846.93,1421.54 1847.44,1421.84 1847.95,1421.51 1848.46,1421.18 1848.97,1420.76 1849.49,1420.34 1850,1420.48 1850.51,1420.62 1851.02,1421.13 1851.53,1421.62 1852.04,1421.45 1852.55,1421.28 1853.07,1420.6 1853.58,1419.92 1854.09,1420.16 1854.6,1420.4 1855.11,1420.14 1855.62,1419.88 1856.13,1419.87 1856.65,1419.86 1857.16,1420.22 1857.67,1420.56 1858.18,1420.68 1858.69,1420.79 1859.2,1420.88 1859.71,1420.97 1860.23,1420.97 1860.74,1420.98 1861.25,1421.11 1861.76,1421.23 1862.27,1421.05 1862.78,1420.87 1863.29,1420.39 1863.81,1419.92 1864.32,1419.65 1864.83,1419.39 1865.34,1419.34 1865.85,1419.29 1866.36,1419.62 1866.87,1419.94 1867.39,1419.76 1867.9,1419.6 1868.41,1419.24 1868.92,1418.89 1869.43,1418.76 1869.94,1418.63 1870.45,1418.91 1870.97,1419.18 1871.48,1419.49 1871.99,1419.79 1872.5,1419.97 1873.01,1420.13 1873.52,1420.88 1874.03,1421.61 1874.55,1421.79 1875.06,1421.95 1875.57,1422.71 1876.08,1423.43 1876.59,1423.06 1877.1,1422.7 1877.62,1422.55 1878.13,1422.4 1878.64,1422.35 1879.15,1422.3 1879.66,1422.47 1880.17,1422.63 1880.68,1421.98 1881.2,1421.34 1881.71,1421.12 1882.22,1420.9 1882.73,1421.39 1883.24,1421.87 1883.75,1421.43 1884.26,1420.99 1884.78,1421.82 1885.29,1422.63 1885.8,1422.52 1886.31,1422.41 1886.82,1423.04 1887.33,1423.66 1887.84,1422.97 1888.36,1422.29 1888.87,1421.78 1889.38,1421.28 1889.89,1421.25 1890.4,1421.2 1890.91,1421.08 1891.42,1420.97 1891.94,1420.5 1892.45,1420.04 1892.96,1419.69 1893.47,1419.34 1893.98,1418.82 1894.49,1418.3 1895,1418.23 1895.52,1418.16 1896.03,1418.07 1896.54,1417.97 1897.05,1418.15 1897.56,1418.33 1898.07,1418 1898.58,1417.67 1899.1,1417.88 1899.61,1418.08 1900.12,1418.88 1900.63,1419.65 1901.14,1419.65 1901.65,1419.65 1902.16,1419.7 1902.68,1419.75 1903.19,1419.78 1903.7,1419.81 1904.21,1420.01 1904.72,1420.21 1905.23,1420.62 1905.75,1421.03 1906.26,1421.15 1906.77,1421.26 1907.28,1420.83 1907.79,1420.41 1908.3,1420.25 1908.81,1420.08 1909.33,1419.7 1909.84,1419.33 1910.35,1419.83 1910.86,1420.32 1911.37,1420.22 1911.88,1420.12 1912.39,1420.24 1912.91,1420.36 1913.42,1420.18 1913.93,1420 1914.44,1420.07 1914.95,1420.13 1915.46,1420.12 1915.97,1420.1 1916.49,1420.1 1917,1420.1 1917.51,1420.35 1918.02,1420.6 1918.53,1419.99 1919.04,1419.4 1919.55,1419.64 1920.07,1419.89 1920.58,1420.61 1921.09,1421.31 1921.6,1421.39 1922.11,1421.47 1922.62,1421.86 1923.13,1422.24 1923.65,1422 1924.16,1421.76 1924.67,1421.67 1925.18,1421.55 1925.69,1420.66 1926.2,1419.76 1926.71,1420.04 1927.23,1420.31 1927.74,1420.43 1928.25,1420.55 1928.76,1420.38 1929.27,1420.21 1929.78,1419.95 1930.29,1419.7 1930.81,1419.47 1931.32,1419.24 1931.83,1419.13 1932.34,1419.02 1932.85,1418.91 1933.36,1418.8 1933.88,1418.91 1934.39,1419.02 1934.9,1418.92 1935.41,1418.82 1935.92,1419.03 1936.43,1419.22 1936.94,1419.56 1937.46,1419.88 1937.97,1419.32 1938.48,1418.76 1938.99,1418.52 1939.5,1418.28 1940.01,1418.12 1940.52,1417.95 1941.04,1418.54 1941.55,1419.1 1942.06,1419.79 1942.57,1420.46 1943.08,1420.13 1943.59,1419.81 1944.1,1419.7 1944.62,1419.58 1945.13,1419.49 1945.64,1419.39 1946.15,1419.06 1946.66,1418.74 1947.17,1418.84 1947.68,1418.93 1948.2,1419.07 1948.71,1419.21 1949.22,1419.28 1949.73,1419.34 1950.24,1419.6 1950.75,1419.85 1951.26,1420.31 1951.78,1420.76 1952.29,1420.29 1952.8,1419.82 1953.31,1419.34 1953.82,1418.86 1954.33,1419.16 1954.84,1419.46 1955.36,1419.24 1955.87,1419.03 1956.38,1419.81 1956.89,1420.58 1957.4,1420.5 1957.91,1420.42 1958.42,1420.61 1958.94,1420.79 1959.45,1420.92 1959.96,1421.05 1960.47,1421.35 1960.98,1421.64 1961.49,1421.23 1962.01,1420.83 1962.52,1420.79 1963.03,1420.74 1963.54,1420.47 1964.05,1420.2 1964.56,1419.96 1965.07,1419.72 1965.59,1419.63 1966.1,1419.54 1966.61,1418.27 1967.12,1417.02 1967.63,1417.71 1968.14,1418.39 1968.65,1418.41 1969.17,1418.43 1969.68,1417.44 1970.19,1416.47 1970.7,1416.42 1971.21,1416.37 1971.72,1416.93 1972.23,1417.48 1972.75,1417.32 1973.26,1417.17 1973.77,1417.47 1974.28,1417.76 1974.79,1417.95 1975.3,1418.13 1975.81,1418.34 1976.33,1418.54 1976.84,1418.53 1977.35,1418.52 1977.86,1418.41 1978.37,1418.3 1978.88,1418.21 1979.39,1418.12 1979.91,1417.83 1980.42,1417.54 1980.93,1417.8 1981.44,1418.06 1981.95,1417.28 1982.46,1416.52 1982.97,1416.8 1983.49,1417.05 1984,1417 1984.51,1416.96 1985.02,1416.73 1985.53,1416.51 1986.04,1416.49 1986.55,1416.47 1987.07,1416.01 1987.58,1415.56 1988.09,1414.75 1988.6,1413.95 1989.11,1414.23 1989.62,1414.5 1990.13,1414.55 1990.65,1414.61 1991.16,1414.94 1991.67,1415.26 1992.18,1415.16 1992.69,1415.06 1993.2,1414.69 1993.72,1414.32 1994.23,1414.07 1994.74,1413.81 1995.25,1413.04 1995.76,1412.28 1996.27,1412.57 1996.78,1412.86 1997.3,1412.72 1997.81,1412.58 1998.32,1412.73 1998.83,1412.88 1999.34,1413.16 1999.85,1413.42 2000.36,1413.76 2000.88,1414.08 2001.39,1413.63 2001.9,1413.19 2002.41,1413.79 2002.92,1414.36 2003.43,1414.54 2003.94,1414.7 2004.46,1415.06 2004.97,1415.41 2005.48,1416.12 2005.99,1416.8 2006.5,1416.46 2007.01,1416.14 2007.52,1416.84 2008.04,1417.53 2008.55,1417.88 2009.06,1418.22 2009.57,1418.32 2010.08,1418.42 2010.59,1418.08 2011.1,1417.73 2011.62,1418.14 2012.13,1418.52 2012.64,1417.69 2013.15,1416.85 2013.66,1416.6 2014.17,1416.35 2014.68,1415.85 2015.2,1415.34 2015.71,1415.39 2016.22,1415.44 2016.73,1415.73 2017.24,1416.01 2017.75,1416.35 2018.26,1416.67 2018.78,1416.71 2019.29,1416.74 2019.8,1416.59 2020.31,1416.43 2020.82,1416.62 2021.33,1416.81 2021.85,1417.34 2022.36,1417.86 2022.87,1417.94 2023.38,1418.01 2023.89,1417.55 2024.4,1417.07 2024.91,1416.36 2025.43,1415.65 2025.94,1415.62 2026.45,1415.59 2026.96,1415.88 2027.47,1416.16 2027.98,1416.47 2028.49,1416.77 2029.01,1417.11 2029.52,1417.44 2030.03,1417 2030.54,1416.57 2031.05,1417.35 2031.56,1418.11 2032.07,1418.54 2032.59,1418.96 2033.1,1418.33 2033.61,1417.7 2034.12,1417.19 2034.63,1416.68 2035.14,1417 2035.65,1417.31 2036.17,1416.98 2036.68,1416.66 2037.19,1416.79 2037.7,1416.91 2038.21,1416.12 2038.72,1415.33 2039.23,1415.97 2039.75,1416.6 2040.26,1416.95 2040.77,1417.29 2041.28,1417.82 2041.79,1418.32 2042.3,1418.28 2042.81,1418.24 2043.33,1418.05 2043.84,1417.87 2044.35,1417.7 2044.86,1417.54 2045.37,1417.48 2045.88,1417.43 2046.39,1417.66 2046.91,1417.88 2047.42,1417.76 2047.93,1417.63 2048.44,1416.59 2048.95,1415.55 2049.46,1415.92 2049.98,1416.29 2050.49,1416.06 2051,1415.82 2051.51,1415.17 2052.02,1414.53 2052.53,1414.82 2053.04,1415.1 2053.56,1414.31 2054.07,1413.53 2054.58,1413.61 2055.09,1413.68 2055.6,1414.26 2056.11,1414.81 2056.62,1415 2057.14,1415.19 2057.65,1415.28 2058.16,1415.37 2058.67,1415.3 2059.18,1415.22 2059.69,1414.86 2060.2,1414.51 2060.72,1415.38 2061.23,1416.23 2061.74,1416.56 2062.25,1416.89 2062.76,1417 2063.27,1417.11 2063.78,1416.96 2064.3,1416.81 2064.81,1417.07 2065.32,1417.32 2065.83,1417.4 2066.34,1417.48 2066.85,1417.42 2067.36,1417.35 2067.88,1416.37 2068.39,1415.4 2068.9,1415.39 2069.41,1415.38 2069.92,1415.27 2070.43,1415.14 2070.94,1414.41 2071.46,1413.7 2071.97,1413.49 2072.48,1413.28 2072.99,1413.6 2073.5,1413.91 2074.01,1413.97 2074.52,1414.02 2075.04,1413.33 2075.55,1412.65 2076.06,1412.14 2076.57,1411.63 2077.08,1411.64 2077.59,1411.64 2078.11,1411.98 2078.62,1412.31 2079.13,1412.12 2079.64,1411.93 2080.15,1411.57 2080.66,1411.2 2081.17,1411.21 2081.69,1411.23 2082.2,1411.86 2082.71,1412.47 2083.22,1413.22 2083.73,1413.96 2084.24,1413.99 2084.75,1414.02 2085.27,1414.08 2085.78,1414.14 2086.29,1413.91 2086.8,1413.68 2087.31,1413.73 2087.82,1413.78 2088.33,1413.94 2088.85,1414.09 2089.36,1414.2 2089.87,1414.3 2090.38,1414.6 2090.89,1414.9 2091.4,1414.62 2091.91,1414.35 2092.43,1414.69 2092.94,1415.02 2093.45,1414.97 2093.96,1414.92 2094.47,1415.37 2094.98,1415.8 2095.49,1416.04 2096.01,1416.26 2096.52,1416.19 2097.03,1416.12 2097.54,1416.58 2098.05,1417.02 2098.56,1416.7 2099.07,1416.37 2099.59,1416.06 2100.1,1415.76 2100.61,1415.77 2101.12,1415.78 2101.63,1415.29 2102.14,1414.8 2102.65,1414.94 2103.17,1415.07 2103.68,1415.61 2104.19,1416.13 2104.7,1415.72 2105.21,1415.31 2105.72,1415.28 2106.24,1415.25 2106.75,1415.92 2107.26,1416.58 2107.77,1416.75 2108.28,1416.92 2108.79,1416.73 2109.3,1416.55 2109.82,1416.73 2110.33,1416.91 2110.84,1417.25 2111.35,1417.57 2111.86,1417.44 2112.37,1417.31 2112.88,1417.84 2113.4,1418.35 2113.91,1418.64 2114.42,1418.93 2114.93,1418.21 2115.44,1417.49 2115.95,1417.53 2116.46,1417.56 2116.98,1417.63 2117.49,1417.7 2118,1417.49 2118.51,1417.28 2119.02,1417.19 2119.53,1417.1 2120.04,1416.33 2120.56,1415.58 2121.07,1415.83 2121.58,1416.08 2122.09,1416.57 2122.6,1417.04 2123.11,1417.19 2123.62,1417.33 2124.14,1417.13 2124.65,1416.92 2125.16,1417.79 2125.67,1418.62 2126.18,1418.08 2126.69,1417.53 2127.2,1417.14 2127.72,1416.76 2128.23,1416.83 2128.74,1416.89 2129.25,1417.65 2129.76,1418.39 2130.27,1418.17 2130.78,1417.94 2131.3,1417.89 2131.81,1417.84 2132.32,1417.88 2132.83,1417.92 2133.34,1418.13 2133.85,1418.34 2134.37,1418.37 2134.88,1418.4 2135.39,1418.37 2135.9,1418.34 2136.41,1418.25 2136.92,1418.15 2137.43,1417.53 2137.95,1416.92 2138.46,1416.38 2138.97,1415.83 2139.48,1416.15 2139.99,1416.46 2140.5,1416.23 2141.01,1416.01 2141.53,1415.97 2142.04,1415.92 2142.55,1416.04 2143.06,1416.15 2143.57,1415.86 2144.08,1415.56 2144.59,1415.57 2145.11,1415.58 2145.62,1416.01 2146.13,1416.43 2146.64,1416.65 2147.15,1416.85 2147.66,1416.53 2148.17,1416.21 2148.69,1415.69 2149.2,1415.17 2149.71,1415.62 2150.22,1416.05 2150.73,1415.62 2151.24,1415.18 2151.75,1415.16 2152.27,1415.15 2152.78,1414.72 2153.29,1414.28 2153.8,1413.67 2154.31,1413.06 2154.82,1412.94 2155.33,1412.83 2155.85,1412.75 2156.36,1412.66 2156.87,1412.7 2157.38,1412.73 2157.89,1413.28 2158.4,1413.82 2158.91,1413.96 2159.43,1414.09 2159.94,1413.97 2160.45,1413.85 2160.96,1413.57 2161.47,1413.3 2161.98,1413.21 2162.49,1413.13 2163.01,1412.24 2163.52,1411.35 2164.03,1410.94 2164.54,1410.53 2165.05,1409.61 2165.56,1408.67 2166.08,1408.32 2166.59,1407.98 2167.1,1408.02 2167.61,1408.06 2168.12,1408.54 2168.63,1408.99 2169.14,1409.36 2169.66,1409.72 2170.17,1409.37 2170.68,1409.02 2171.19,1409.22 2171.7,1409.42 2172.21,1409.44 2172.72,1409.47 2173.24,1408.91 2173.75,1408.36 2174.26,1408.64 2174.77,1408.91 2175.28,1408.71 2175.79,1408.51 2176.3,1408.41 2176.82,1408.31 2177.33,1408.31 2177.84,1408.31 2178.35,1408.28 2178.86,1408.25 2179.37,1408.63 2179.88,1409 2180.4,1409.47 2180.91,1409.93 2181.42,1409.94 2181.93,1409.94 2182.44,1410.49 2182.95,1411.01 2183.46,1410.22 2183.98,1409.44 2184.49,1409.54 2185,1409.64 2185.51,1409.36 2186.02,1409.09 2186.53,1408.79 2187.04,1408.5 2187.56,1408.63 2188.07,1408.76 2188.58,1408.68 2189.09,1408.6 2189.6,1408.61 2190.11,1408.62 2190.62,1408.88 2191.14,1409.13 2191.65,1409.73 2192.16,1410.31 2192.67,1409.88 2193.18,1409.44 2193.69,1409.55 2194.21,1409.67 2194.72,1409.4 2195.23,1409.15 2195.74,1409.05 2196.25,1408.94 2196.76,1408.93 2197.27,1408.92 2197.79,1409.07 2198.3,1409.22 2198.81,1409.49 2199.32,1409.75 2199.83,1409.99 2200.34,1410.23 2200.85,1410.37 2201.37,1410.51 2201.88,1410.64 2202.39,1410.76 2202.9,1411.06 2203.41,1411.36 2203.92,1411.38 2204.43,1411.4 2204.95,1411.44 2205.46,1411.48 2205.97,1411.58 2206.48,1411.67 2206.99,1411.7 2207.5,1411.72 2208.01,1411.93 2208.53,1412.14 2209.04,1412.17 2209.55,1412.19 2210.06,1412.3 2210.57,1412.4 2211.08,1412.35 2211.59,1412.3 2212.11,1411.96 2212.62,1411.62 2213.13,1411.05 2213.64,1410.49 2214.15,1409.86 2214.66,1409.24 2215.17,1409.68 2215.69,1410.11 2216.2,1410.48 2216.71,1410.83 2217.22,1411.05 2217.73,1411.26 2218.24,1411.51 2218.75,1411.76 2219.27,1411.76 2219.78,1411.77 2220.29,1412.48 2220.8,1413.18 2221.31,1412.82 2221.82,1412.47 2222.34,1412.63 2222.85,1412.79 2223.36,1413.02 2223.87,1413.24 2224.38,1413.11 2224.89,1412.97 2225.4,1413.98 2225.92,1414.97 2226.43,1415.49 2226.94,1416 2227.45,1416.36 2227.96,1416.72 2228.47,1416.8 2228.98,1416.87 2229.5,1416.94 2230.01,1417 2230.52,1416.65 2231.03,1416.31 2231.54,1416.39 2232.05,1416.46 2232.56,1416.64 2233.08,1416.82 2233.59,1415.82 2234.1,1414.82 2234.61,1415.19 2235.12,1415.54 2235.63,1415.08 2236.14,1414.63 2236.66,1414.2 2237.17,1413.78 2237.68,1412.99 2238.19,1412.2 2238.7,1411.83 2239.21,1411.47 2239.72,1411.2 2240.24,1410.93 2240.75,1411.6 2241.26,1412.26 2241.77,1412.76 2242.28,1413.24 2242.79,1412.65 2243.3,1412.07 2243.82,1412.6 2244.33,1413.13 2244.84,1413.17 2245.35,1413.2 2245.86,1412.9 2246.37,1412.6 2246.88,1413.05 2247.4,1413.5 2247.91,1413.95 2248.42,1414.4 2248.93,1414.32 2249.44,1414.24 2249.95,1414.73 2250.47,1415.22 2250.98,1415.15 2251.49,1415.08 2252,1415.52 2252.51,1415.95 2253.02,1415.71 2253.53,1415.48 2254.05,1415.55 2254.56,1415.61 2255.07,1415.63 2255.58,1415.65 2256.09,1414.48 2256.6,1413.3 2257.11,1413.22 2257.63,1413.14 2258.14,1413.24 2258.65,1413.34 2259.16,1412.69 2259.67,1412.05 2260.18,1412.16 2260.69,1412.27 2261.21,1411.95 2261.72,1411.64 2262.23,1411.77 2262.74,1411.9 2263.25,1411.5 2263.76,1411.1 2264.27,1410.78 2264.79,1410.48 2265.3,1410.79 2265.81,1411.09 2266.32,1411.09 2266.83,1411.08 2267.34,1411.27 2267.85,1411.45 2268.37,1411.99 2268.88,1412.51 2269.39,1411.55 2269.9,1410.6 2270.41,1410.44 2270.92,1410.27 2271.43,1410.71 2271.95,1411.14 2272.46,1411.38 2272.97,1411.61 2273.48,1411.24 2273.99,1410.87 2274.5,1410.76 2275.01,1410.65 2275.53,1410.1 2276.04,1409.55 2276.55,1410.03 2277.06,1410.51 2277.57,1409.82 2278.08,1409.13 2278.6,1409.38 2279.11,1409.62 2279.62,1409.1 2280.13,1408.59 2280.64,1408.51 2281.15,1408.43 2281.66,1408.26 2282.18,1408.08 2282.69,1408.05 2283.2,1408.02 2283.71,1407.32 2284.22,1406.64 2284.73,1406.41 2285.24,1406.19 2285.76,1405.78 2286.27,1405.39 2286.78,1405.52 2287.29,1405.64 2287.8,1405.94 2288.31,1406.24 2288.82,1406.04 2289.34,1405.84 2289.85,1406.72 2290.36,1407.58 2290.87,1406.67 2291.38,1405.75 "/>
<path clip-path="url(#clip060)" d="M2011.18 198.898 L2280.47 198.898 L2280.47 95.2176 L2011.18 95.2176  Z" fill="#ffffff" fill-rule="evenodd" fill-opacity="1"/>
<polyline clip-path="url(#clip060)" style="stroke:#000000; stroke-linecap:round; stroke-linejoin:round; stroke-width:4; stroke-opacity:1; fill:none" points="2011.18,198.898 2280.47,198.898 2280.47,95.2176 2011.18,95.2176 2011.18,198.898 "/>
<polyline clip-path="url(#clip060)" style="stroke:#009af9; stroke-linecap:round; stroke-linejoin:round; stroke-width:4; stroke-opacity:1; fill:none" points="2035.28,147.058 2179.85,147.058 "/>
<path clip-path="url(#clip060)" d="M2217.79 166.745 Q2215.98 171.375 2214.27 172.787 Q2212.56 174.199 2209.69 174.199 L2206.28 174.199 L2206.28 170.634 L2208.78 170.634 Q2210.54 170.634 2211.51 169.8 Q2212.49 168.967 2213.67 165.865 L2214.43 163.921 L2203.94 138.412 L2208.46 138.412 L2216.56 158.689 L2224.66 138.412 L2229.18 138.412 L2217.79 166.745 Z" fill="#000000" fill-rule="nonzero" fill-opacity="1" /><path clip-path="url(#clip060)" d="M2236.47 160.402 L2244.11 160.402 L2244.11 134.037 L2235.8 135.703 L2235.8 131.444 L2244.06 129.778 L2248.74 129.778 L2248.74 160.402 L2256.38 160.402 L2256.38 164.338 L2236.47 164.338 L2236.47 160.402 Z" fill="#000000" fill-rule="nonzero" fill-opacity="1" /></svg>
