<?xml version="1.0" encoding="utf-8"?>
<svg xmlns="http://www.w3.org/2000/svg" xmlns:xlink="http://www.w3.org/1999/xlink" width="600" height="400" viewBox="0 0 2400 1600">
<defs>
  <clipPath id="clip800">
    <rect x="0" y="0" width="2400" height="1600"/>
  </clipPath>
</defs>
<path clip-path="url(#clip800)" d="M0 1600 L2400 1600 L2400 0 L0 0  Z" fill="#ffffff" fill-rule="evenodd" fill-opacity="1"/>
<defs>
  <clipPath id="clip801">
    <rect x="480" y="0" width="1681" height="1600"/>
  </clipPath>
</defs>
<path clip-path="url(#clip800)" d="M184.191 1486.45 L2352.76 1486.45 L2352.76 47.2441 L184.191 47.2441  Z" fill="#ffffff" fill-rule="evenodd" fill-opacity="1"/>
<defs>
  <clipPath id="clip802">
    <rect x="184" y="47" width="2170" height="1440"/>
  </clipPath>
</defs>
<polyline clip-path="url(#clip802)" style="stroke:#000000; stroke-linecap:round; stroke-linejoin:round; stroke-width:2; stroke-opacity:0.1; fill:none" points="245.565,1486.45 245.565,47.2441 "/>
<polyline clip-path="url(#clip802)" style="stroke:#000000; stroke-linecap:round; stroke-linejoin:round; stroke-width:2; stroke-opacity:0.1; fill:none" points="757.019,1486.45 757.019,47.2441 "/>
<polyline clip-path="url(#clip802)" style="stroke:#000000; stroke-linecap:round; stroke-linejoin:round; stroke-width:2; stroke-opacity:0.1; fill:none" points="1268.47,1486.45 1268.47,47.2441 "/>
<polyline clip-path="url(#clip802)" style="stroke:#000000; stroke-linecap:round; stroke-linejoin:round; stroke-width:2; stroke-opacity:0.1; fill:none" points="1779.93,1486.45 1779.93,47.2441 "/>
<polyline clip-path="url(#clip802)" style="stroke:#000000; stroke-linecap:round; stroke-linejoin:round; stroke-width:2; stroke-opacity:0.1; fill:none" points="2291.38,1486.45 2291.38,47.2441 "/>
<polyline clip-path="url(#clip800)" style="stroke:#000000; stroke-linecap:round; stroke-linejoin:round; stroke-width:4; stroke-opacity:1; fill:none" points="184.191,1486.45 2352.76,1486.45 "/>
<polyline clip-path="url(#clip800)" style="stroke:#000000; stroke-linecap:round; stroke-linejoin:round; stroke-width:4; stroke-opacity:1; fill:none" points="245.565,1486.45 245.565,1467.55 "/>
<polyline clip-path="url(#clip800)" style="stroke:#000000; stroke-linecap:round; stroke-linejoin:round; stroke-width:4; stroke-opacity:1; fill:none" points="757.019,1486.45 757.019,1467.55 "/>
<polyline clip-path="url(#clip800)" style="stroke:#000000; stroke-linecap:round; stroke-linejoin:round; stroke-width:4; stroke-opacity:1; fill:none" points="1268.47,1486.45 1268.47,1467.55 "/>
<polyline clip-path="url(#clip800)" style="stroke:#000000; stroke-linecap:round; stroke-linejoin:round; stroke-width:4; stroke-opacity:1; fill:none" points="1779.93,1486.45 1779.93,1467.55 "/>
<polyline clip-path="url(#clip800)" style="stroke:#000000; stroke-linecap:round; stroke-linejoin:round; stroke-width:4; stroke-opacity:1; fill:none" points="2291.38,1486.45 2291.38,1467.55 "/>
<path clip-path="url(#clip800)" d="M245.565 1517.37 Q241.954 1517.37 240.125 1520.93 Q238.32 1524.47 238.32 1531.6 Q238.32 1538.71 240.125 1542.27 Q241.954 1545.82 245.565 1545.82 Q249.199 1545.82 251.005 1542.27 Q252.834 1538.71 252.834 1531.6 Q252.834 1524.47 251.005 1520.93 Q249.199 1517.37 245.565 1517.37 M245.565 1513.66 Q251.375 1513.66 254.431 1518.27 Q257.51 1522.85 257.51 1531.6 Q257.51 1540.33 254.431 1544.94 Q251.375 1549.52 245.565 1549.52 Q239.755 1549.52 236.676 1544.94 Q233.621 1540.33 233.621 1531.6 Q233.621 1522.85 236.676 1518.27 Q239.755 1513.66 245.565 1513.66 Z" fill="#000000" fill-rule="nonzero" fill-opacity="1" /><path clip-path="url(#clip800)" d="M701.545 1544.91 L709.184 1544.91 L709.184 1518.55 L700.874 1520.21 L700.874 1515.95 L709.138 1514.29 L713.813 1514.29 L713.813 1544.91 L721.452 1544.91 L721.452 1548.85 L701.545 1548.85 L701.545 1544.91 Z" fill="#000000" fill-rule="nonzero" fill-opacity="1" /><path clip-path="url(#clip800)" d="M740.897 1517.37 Q737.286 1517.37 735.457 1520.93 Q733.651 1524.47 733.651 1531.6 Q733.651 1538.71 735.457 1542.27 Q737.286 1545.82 740.897 1545.82 Q744.531 1545.82 746.336 1542.27 Q748.165 1538.71 748.165 1531.6 Q748.165 1524.47 746.336 1520.93 Q744.531 1517.37 740.897 1517.37 M740.897 1513.66 Q746.707 1513.66 749.762 1518.27 Q752.841 1522.85 752.841 1531.6 Q752.841 1540.33 749.762 1544.94 Q746.707 1549.52 740.897 1549.52 Q735.086 1549.52 732.008 1544.94 Q728.952 1540.33 728.952 1531.6 Q728.952 1522.85 732.008 1518.27 Q735.086 1513.66 740.897 1513.66 Z" fill="#000000" fill-rule="nonzero" fill-opacity="1" /><path clip-path="url(#clip800)" d="M771.059 1517.37 Q767.447 1517.37 765.619 1520.93 Q763.813 1524.47 763.813 1531.6 Q763.813 1538.71 765.619 1542.27 Q767.447 1545.82 771.059 1545.82 Q774.693 1545.82 776.498 1542.27 Q778.327 1538.71 778.327 1531.6 Q778.327 1524.47 776.498 1520.93 Q774.693 1517.37 771.059 1517.37 M771.059 1513.66 Q776.869 1513.66 779.924 1518.27 Q783.003 1522.85 783.003 1531.6 Q783.003 1540.33 779.924 1544.94 Q776.869 1549.52 771.059 1549.52 Q765.248 1549.52 762.17 1544.94 Q759.114 1540.33 759.114 1531.6 Q759.114 1522.85 762.17 1518.27 Q765.248 1513.66 771.059 1513.66 Z" fill="#000000" fill-rule="nonzero" fill-opacity="1" /><path clip-path="url(#clip800)" d="M801.22 1517.37 Q797.609 1517.37 795.781 1520.93 Q793.975 1524.47 793.975 1531.6 Q793.975 1538.71 795.781 1542.27 Q797.609 1545.82 801.22 1545.82 Q804.855 1545.82 806.66 1542.27 Q808.489 1538.71 808.489 1531.6 Q808.489 1524.47 806.66 1520.93 Q804.855 1517.37 801.22 1517.37 M801.22 1513.66 Q807.031 1513.66 810.086 1518.27 Q813.165 1522.85 813.165 1531.6 Q813.165 1540.33 810.086 1544.94 Q807.031 1549.52 801.22 1549.52 Q795.41 1549.52 792.332 1544.94 Q789.276 1540.33 789.276 1531.6 Q789.276 1522.85 792.332 1518.27 Q795.41 1513.66 801.22 1513.66 Z" fill="#000000" fill-rule="nonzero" fill-opacity="1" /><path clip-path="url(#clip800)" d="M1217.08 1544.91 L1233.4 1544.91 L1233.4 1548.85 L1211.46 1548.85 L1211.46 1544.91 Q1214.12 1542.16 1218.71 1537.53 Q1223.31 1532.88 1224.49 1531.53 Q1226.74 1529.01 1227.62 1527.27 Q1228.52 1525.51 1228.52 1523.82 Q1228.52 1521.07 1226.58 1519.33 Q1224.65 1517.6 1221.55 1517.6 Q1219.35 1517.6 1216.9 1518.36 Q1214.47 1519.13 1211.69 1520.68 L1211.69 1515.95 Q1214.52 1514.82 1216.97 1514.24 Q1219.42 1513.66 1221.46 1513.66 Q1226.83 1513.66 1230.02 1516.35 Q1233.22 1519.03 1233.22 1523.52 Q1233.22 1525.65 1232.41 1527.57 Q1231.62 1529.47 1229.52 1532.07 Q1228.94 1532.74 1225.83 1535.95 Q1222.73 1539.15 1217.08 1544.91 Z" fill="#000000" fill-rule="nonzero" fill-opacity="1" /><path clip-path="url(#clip800)" d="M1253.22 1517.37 Q1249.61 1517.37 1247.78 1520.93 Q1245.97 1524.47 1245.97 1531.6 Q1245.97 1538.71 1247.78 1542.27 Q1249.61 1545.82 1253.22 1545.82 Q1256.85 1545.82 1258.66 1542.27 Q1260.49 1538.71 1260.49 1531.6 Q1260.49 1524.47 1258.66 1520.93 Q1256.85 1517.37 1253.22 1517.37 M1253.22 1513.66 Q1259.03 1513.66 1262.08 1518.27 Q1265.16 1522.85 1265.16 1531.6 Q1265.16 1540.33 1262.08 1544.94 Q1259.03 1549.52 1253.22 1549.52 Q1247.41 1549.52 1244.33 1544.94 Q1241.27 1540.33 1241.27 1531.6 Q1241.27 1522.85 1244.33 1518.27 Q1247.41 1513.66 1253.22 1513.66 Z" fill="#000000" fill-rule="nonzero" fill-opacity="1" /><path clip-path="url(#clip800)" d="M1283.38 1517.37 Q1279.77 1517.37 1277.94 1520.93 Q1276.14 1524.47 1276.14 1531.6 Q1276.14 1538.71 1277.94 1542.27 Q1279.77 1545.82 1283.38 1545.82 Q1287.01 1545.82 1288.82 1542.27 Q1290.65 1538.71 1290.65 1531.6 Q1290.65 1524.47 1288.82 1520.93 Q1287.01 1517.37 1283.38 1517.37 M1283.38 1513.66 Q1289.19 1513.66 1292.25 1518.27 Q1295.33 1522.85 1295.33 1531.6 Q1295.33 1540.33 1292.25 1544.94 Q1289.19 1549.52 1283.38 1549.52 Q1277.57 1549.52 1274.49 1544.94 Q1271.44 1540.33 1271.44 1531.6 Q1271.44 1522.85 1274.49 1518.27 Q1277.57 1513.66 1283.38 1513.66 Z" fill="#000000" fill-rule="nonzero" fill-opacity="1" /><path clip-path="url(#clip800)" d="M1313.54 1517.37 Q1309.93 1517.37 1308.1 1520.93 Q1306.3 1524.47 1306.3 1531.6 Q1306.3 1538.71 1308.1 1542.27 Q1309.93 1545.82 1313.54 1545.82 Q1317.18 1545.82 1318.98 1542.27 Q1320.81 1538.71 1320.81 1531.6 Q1320.81 1524.47 1318.98 1520.93 Q1317.18 1517.37 1313.54 1517.37 M1313.54 1513.66 Q1319.35 1513.66 1322.41 1518.27 Q1325.49 1522.85 1325.49 1531.6 Q1325.49 1540.33 1322.41 1544.94 Q1319.35 1549.52 1313.54 1549.52 Q1307.73 1549.52 1304.65 1544.94 Q1301.6 1540.33 1301.6 1531.6 Q1301.6 1522.85 1304.65 1518.27 Q1307.73 1513.66 1313.54 1513.66 Z" fill="#000000" fill-rule="nonzero" fill-opacity="1" /><path clip-path="url(#clip800)" d="M1738.61 1530.21 Q1741.96 1530.93 1743.84 1533.2 Q1745.74 1535.47 1745.74 1538.8 Q1745.74 1543.92 1742.22 1546.72 Q1738.7 1549.52 1732.22 1549.52 Q1730.04 1549.52 1727.73 1549.08 Q1725.44 1548.66 1722.98 1547.81 L1722.98 1543.29 Q1724.93 1544.43 1727.24 1545.01 Q1729.56 1545.58 1732.08 1545.58 Q1736.48 1545.58 1738.77 1543.85 Q1741.08 1542.11 1741.08 1538.8 Q1741.08 1535.75 1738.93 1534.03 Q1736.8 1532.3 1732.98 1532.3 L1728.96 1532.3 L1728.96 1528.45 L1733.17 1528.45 Q1736.62 1528.45 1738.45 1527.09 Q1740.27 1525.7 1740.27 1523.11 Q1740.27 1520.45 1738.38 1519.03 Q1736.5 1517.6 1732.98 1517.6 Q1731.06 1517.6 1728.86 1518.01 Q1726.66 1518.43 1724.02 1519.31 L1724.02 1515.14 Q1726.69 1514.4 1729 1514.03 Q1731.34 1513.66 1733.4 1513.66 Q1738.72 1513.66 1741.83 1516.09 Q1744.93 1518.5 1744.93 1522.62 Q1744.93 1525.49 1743.28 1527.48 Q1741.64 1529.45 1738.61 1530.21 Z" fill="#000000" fill-rule="nonzero" fill-opacity="1" /><path clip-path="url(#clip800)" d="M1764.6 1517.37 Q1760.99 1517.37 1759.16 1520.93 Q1757.36 1524.47 1757.36 1531.6 Q1757.36 1538.71 1759.16 1542.27 Q1760.99 1545.82 1764.6 1545.82 Q1768.24 1545.82 1770.04 1542.27 Q1771.87 1538.71 1771.87 1531.6 Q1771.87 1524.47 1770.04 1520.93 Q1768.24 1517.37 1764.6 1517.37 M1764.6 1513.66 Q1770.41 1513.66 1773.47 1518.27 Q1776.55 1522.85 1776.55 1531.6 Q1776.55 1540.33 1773.47 1544.94 Q1770.41 1549.52 1764.6 1549.52 Q1758.79 1549.52 1755.71 1544.94 Q1752.66 1540.33 1752.66 1531.6 Q1752.66 1522.85 1755.71 1518.27 Q1758.79 1513.66 1764.6 1513.66 Z" fill="#000000" fill-rule="nonzero" fill-opacity="1" /><path clip-path="url(#clip800)" d="M1794.77 1517.37 Q1791.15 1517.37 1789.33 1520.93 Q1787.52 1524.47 1787.52 1531.6 Q1787.52 1538.71 1789.33 1542.27 Q1791.15 1545.82 1794.77 1545.82 Q1798.4 1545.82 1800.21 1542.27 Q1802.03 1538.71 1802.03 1531.6 Q1802.03 1524.47 1800.21 1520.93 Q1798.4 1517.37 1794.77 1517.37 M1794.77 1513.66 Q1800.58 1513.66 1803.63 1518.27 Q1806.71 1522.85 1806.71 1531.6 Q1806.71 1540.33 1803.63 1544.94 Q1800.58 1549.52 1794.77 1549.52 Q1788.96 1549.52 1785.88 1544.94 Q1782.82 1540.33 1782.82 1531.6 Q1782.82 1522.85 1785.88 1518.27 Q1788.96 1513.66 1794.77 1513.66 Z" fill="#000000" fill-rule="nonzero" fill-opacity="1" /><path clip-path="url(#clip800)" d="M1824.93 1517.37 Q1821.32 1517.37 1819.49 1520.93 Q1817.68 1524.47 1817.68 1531.6 Q1817.68 1538.71 1819.49 1542.27 Q1821.32 1545.82 1824.93 1545.82 Q1828.56 1545.82 1830.37 1542.27 Q1832.2 1538.71 1832.2 1531.6 Q1832.2 1524.47 1830.37 1520.93 Q1828.56 1517.37 1824.93 1517.37 M1824.93 1513.66 Q1830.74 1513.66 1833.79 1518.27 Q1836.87 1522.85 1836.87 1531.6 Q1836.87 1540.33 1833.79 1544.94 Q1830.74 1549.52 1824.93 1549.52 Q1819.12 1549.52 1816.04 1544.94 Q1812.98 1540.33 1812.98 1531.6 Q1812.98 1522.85 1816.04 1518.27 Q1819.12 1513.66 1824.93 1513.66 Z" fill="#000000" fill-rule="nonzero" fill-opacity="1" /><path clip-path="url(#clip800)" d="M2249.39 1518.36 L2237.59 1536.81 L2249.39 1536.81 L2249.39 1518.36 M2248.16 1514.29 L2254.04 1514.29 L2254.04 1536.81 L2258.97 1536.81 L2258.97 1540.7 L2254.04 1540.7 L2254.04 1548.85 L2249.39 1548.85 L2249.39 1540.7 L2233.79 1540.7 L2233.79 1536.19 L2248.16 1514.29 Z" fill="#000000" fill-rule="nonzero" fill-opacity="1" /><path clip-path="url(#clip800)" d="M2276.71 1517.37 Q2273.09 1517.37 2271.27 1520.93 Q2269.46 1524.47 2269.46 1531.6 Q2269.46 1538.71 2271.27 1542.27 Q2273.09 1545.82 2276.71 1545.82 Q2280.34 1545.82 2282.15 1542.27 Q2283.97 1538.71 2283.97 1531.6 Q2283.97 1524.47 2282.15 1520.93 Q2280.34 1517.37 2276.71 1517.37 M2276.71 1513.66 Q2282.52 1513.66 2285.57 1518.27 Q2288.65 1522.85 2288.65 1531.6 Q2288.65 1540.33 2285.57 1544.94 Q2282.52 1549.52 2276.71 1549.52 Q2270.9 1549.52 2267.82 1544.94 Q2264.76 1540.33 2264.76 1531.6 Q2264.76 1522.85 2267.82 1518.27 Q2270.9 1513.66 2276.71 1513.66 Z" fill="#000000" fill-rule="nonzero" fill-opacity="1" /><path clip-path="url(#clip800)" d="M2306.87 1517.37 Q2303.26 1517.37 2301.43 1520.93 Q2299.62 1524.47 2299.62 1531.6 Q2299.62 1538.71 2301.43 1542.27 Q2303.26 1545.82 2306.87 1545.82 Q2310.5 1545.82 2312.31 1542.27 Q2314.14 1538.71 2314.14 1531.6 Q2314.14 1524.47 2312.31 1520.93 Q2310.5 1517.37 2306.87 1517.37 M2306.87 1513.66 Q2312.68 1513.66 2315.73 1518.27 Q2318.81 1522.85 2318.81 1531.6 Q2318.81 1540.33 2315.73 1544.94 Q2312.68 1549.52 2306.87 1549.52 Q2301.06 1549.52 2297.98 1544.94 Q2294.92 1540.33 2294.92 1531.6 Q2294.92 1522.85 2297.98 1518.27 Q2301.06 1513.66 2306.87 1513.66 Z" fill="#000000" fill-rule="nonzero" fill-opacity="1" /><path clip-path="url(#clip800)" d="M2337.03 1517.37 Q2333.42 1517.37 2331.59 1520.93 Q2329.78 1524.47 2329.78 1531.6 Q2329.78 1538.71 2331.59 1542.27 Q2333.42 1545.82 2337.03 1545.82 Q2340.66 1545.82 2342.47 1542.27 Q2344.3 1538.71 2344.3 1531.6 Q2344.3 1524.47 2342.47 1520.93 Q2340.66 1517.37 2337.03 1517.37 M2337.03 1513.66 Q2342.84 1513.66 2345.9 1518.27 Q2348.97 1522.85 2348.97 1531.6 Q2348.97 1540.33 2345.9 1544.94 Q2342.84 1549.52 2337.03 1549.52 Q2331.22 1549.52 2328.14 1544.94 Q2325.08 1540.33 2325.08 1531.6 Q2325.08 1522.85 2328.14 1518.27 Q2331.22 1513.66 2337.03 1513.66 Z" fill="#000000" fill-rule="nonzero" fill-opacity="1" /><polyline clip-path="url(#clip802)" style="stroke:#000000; stroke-linecap:round; stroke-linejoin:round; stroke-width:2; stroke-opacity:0.1; fill:none" points="184.191,1317.53 2352.76,1317.53 "/>
<polyline clip-path="url(#clip802)" style="stroke:#000000; stroke-linecap:round; stroke-linejoin:round; stroke-width:2; stroke-opacity:0.1; fill:none" points="184.191,1060.31 2352.76,1060.31 "/>
<polyline clip-path="url(#clip802)" style="stroke:#000000; stroke-linecap:round; stroke-linejoin:round; stroke-width:2; stroke-opacity:0.1; fill:none" points="184.191,803.101 2352.76,803.101 "/>
<polyline clip-path="url(#clip802)" style="stroke:#000000; stroke-linecap:round; stroke-linejoin:round; stroke-width:2; stroke-opacity:0.1; fill:none" points="184.191,545.888 2352.76,545.888 "/>
<polyline clip-path="url(#clip802)" style="stroke:#000000; stroke-linecap:round; stroke-linejoin:round; stroke-width:2; stroke-opacity:0.1; fill:none" points="184.191,288.675 2352.76,288.675 "/>
<polyline clip-path="url(#clip800)" style="stroke:#000000; stroke-linecap:round; stroke-linejoin:round; stroke-width:4; stroke-opacity:1; fill:none" points="184.191,1486.45 184.191,47.2441 "/>
<polyline clip-path="url(#clip800)" style="stroke:#000000; stroke-linecap:round; stroke-linejoin:round; stroke-width:4; stroke-opacity:1; fill:none" points="184.191,1317.53 203.088,1317.53 "/>
<polyline clip-path="url(#clip800)" style="stroke:#000000; stroke-linecap:round; stroke-linejoin:round; stroke-width:4; stroke-opacity:1; fill:none" points="184.191,1060.31 203.088,1060.31 "/>
<polyline clip-path="url(#clip800)" style="stroke:#000000; stroke-linecap:round; stroke-linejoin:round; stroke-width:4; stroke-opacity:1; fill:none" points="184.191,803.101 203.088,803.101 "/>
<polyline clip-path="url(#clip800)" style="stroke:#000000; stroke-linecap:round; stroke-linejoin:round; stroke-width:4; stroke-opacity:1; fill:none" points="184.191,545.888 203.088,545.888 "/>
<polyline clip-path="url(#clip800)" style="stroke:#000000; stroke-linecap:round; stroke-linejoin:round; stroke-width:4; stroke-opacity:1; fill:none" points="184.191,288.675 203.088,288.675 "/>
<path clip-path="url(#clip800)" d="M51.6634 1330.87 L59.3023 1330.87 L59.3023 1304.51 L50.9921 1306.17 L50.9921 1301.91 L59.256 1300.25 L63.9319 1300.25 L63.9319 1330.87 L71.5707 1330.87 L71.5707 1334.81 L51.6634 1334.81 L51.6634 1330.87 Z" fill="#000000" fill-rule="nonzero" fill-opacity="1" /><path clip-path="url(#clip800)" d="M81.8253 1330.87 L89.4641 1330.87 L89.4641 1304.51 L81.154 1306.17 L81.154 1301.91 L89.4178 1300.25 L94.0937 1300.25 L94.0937 1330.87 L101.733 1330.87 L101.733 1334.81 L81.8253 1334.81 L81.8253 1330.87 Z" fill="#000000" fill-rule="nonzero" fill-opacity="1" /><path clip-path="url(#clip800)" d="M111.177 1328.93 L116.061 1328.93 L116.061 1334.81 L111.177 1334.81 L111.177 1328.93 Z" fill="#000000" fill-rule="nonzero" fill-opacity="1" /><path clip-path="url(#clip800)" d="M136.246 1303.33 Q132.635 1303.33 130.807 1306.89 Q129.001 1310.43 129.001 1317.56 Q129.001 1324.67 130.807 1328.23 Q132.635 1331.77 136.246 1331.77 Q139.881 1331.77 141.686 1328.23 Q143.515 1324.67 143.515 1317.56 Q143.515 1310.43 141.686 1306.89 Q139.881 1303.33 136.246 1303.33 M136.246 1299.62 Q142.056 1299.62 145.112 1304.23 Q148.191 1308.81 148.191 1317.56 Q148.191 1326.29 145.112 1330.89 Q142.056 1335.48 136.246 1335.48 Q130.436 1335.48 127.357 1330.89 Q124.302 1326.29 124.302 1317.56 Q124.302 1308.81 127.357 1304.23 Q130.436 1299.62 136.246 1299.62 Z" fill="#000000" fill-rule="nonzero" fill-opacity="1" /><path clip-path="url(#clip800)" d="M52.6588 1073.66 L60.2976 1073.66 L60.2976 1047.29 L51.9875 1048.96 L51.9875 1044.7 L60.2513 1043.03 L64.9272 1043.03 L64.9272 1073.66 L72.5661 1073.66 L72.5661 1077.59 L52.6588 1077.59 L52.6588 1073.66 Z" fill="#000000" fill-rule="nonzero" fill-opacity="1" /><path clip-path="url(#clip800)" d="M82.8207 1073.66 L90.4595 1073.66 L90.4595 1047.29 L82.1494 1048.96 L82.1494 1044.7 L90.4132 1043.03 L95.0891 1043.03 L95.0891 1073.66 L102.728 1073.66 L102.728 1077.59 L82.8207 1077.59 L82.8207 1073.66 Z" fill="#000000" fill-rule="nonzero" fill-opacity="1" /><path clip-path="url(#clip800)" d="M112.172 1071.71 L117.057 1071.71 L117.057 1077.59 L112.172 1077.59 L112.172 1071.71 Z" fill="#000000" fill-rule="nonzero" fill-opacity="1" /><path clip-path="url(#clip800)" d="M127.288 1043.03 L145.644 1043.03 L145.644 1046.97 L131.57 1046.97 L131.57 1055.44 Q132.589 1055.09 133.607 1054.93 Q134.626 1054.75 135.644 1054.75 Q141.431 1054.75 144.811 1057.92 Q148.191 1061.09 148.191 1066.51 Q148.191 1072.08 144.718 1075.19 Q141.246 1078.26 134.927 1078.26 Q132.751 1078.26 130.482 1077.89 Q128.237 1077.52 125.83 1076.78 L125.83 1072.08 Q127.913 1073.22 130.135 1073.77 Q132.357 1074.33 134.834 1074.33 Q138.839 1074.33 141.177 1072.22 Q143.515 1070.12 143.515 1066.51 Q143.515 1062.89 141.177 1060.79 Q138.839 1058.68 134.834 1058.68 Q132.959 1058.68 131.084 1059.1 Q129.232 1059.52 127.288 1060.39 L127.288 1043.03 Z" fill="#000000" fill-rule="nonzero" fill-opacity="1" /><path clip-path="url(#clip800)" d="M51.6634 816.446 L59.3023 816.446 L59.3023 790.08 L50.9921 791.747 L50.9921 787.487 L59.256 785.821 L63.9319 785.821 L63.9319 816.446 L71.5707 816.446 L71.5707 820.381 L51.6634 820.381 L51.6634 816.446 Z" fill="#000000" fill-rule="nonzero" fill-opacity="1" /><path clip-path="url(#clip800)" d="M85.0429 816.446 L101.362 816.446 L101.362 820.381 L79.4179 820.381 L79.4179 816.446 Q82.0799 813.691 86.6632 809.061 Q91.2697 804.409 92.4502 803.066 Q94.6956 800.543 95.5752 798.807 Q96.478 797.047 96.478 795.358 Q96.478 792.603 94.5336 790.867 Q92.6123 789.131 89.5104 789.131 Q87.3114 789.131 84.8577 789.895 Q82.4271 790.659 79.6494 792.21 L79.6494 787.487 Q82.4734 786.353 84.9271 785.774 Q87.3808 785.196 89.4178 785.196 Q94.7882 785.196 97.9826 787.881 Q101.177 790.566 101.177 795.057 Q101.177 797.186 100.367 799.108 Q99.5798 801.006 97.4734 803.598 Q96.8947 804.27 93.7928 807.487 Q90.691 810.682 85.0429 816.446 Z" fill="#000000" fill-rule="nonzero" fill-opacity="1" /><path clip-path="url(#clip800)" d="M111.177 814.501 L116.061 814.501 L116.061 820.381 L111.177 820.381 L111.177 814.501 Z" fill="#000000" fill-rule="nonzero" fill-opacity="1" /><path clip-path="url(#clip800)" d="M136.246 788.899 Q132.635 788.899 130.807 792.464 Q129.001 796.006 129.001 803.135 Q129.001 810.242 130.807 813.807 Q132.635 817.348 136.246 817.348 Q139.881 817.348 141.686 813.807 Q143.515 810.242 143.515 803.135 Q143.515 796.006 141.686 792.464 Q139.881 788.899 136.246 788.899 M136.246 785.196 Q142.056 785.196 145.112 789.802 Q148.191 794.385 148.191 803.135 Q148.191 811.862 145.112 816.469 Q142.056 821.052 136.246 821.052 Q130.436 821.052 127.357 816.469 Q124.302 811.862 124.302 803.135 Q124.302 794.385 127.357 789.802 Q130.436 785.196 136.246 785.196 Z" fill="#000000" fill-rule="nonzero" fill-opacity="1" /><path clip-path="url(#clip800)" d="M52.6588 559.233 L60.2976 559.233 L60.2976 532.867 L51.9875 534.534 L51.9875 530.274 L60.2513 528.608 L64.9272 528.608 L64.9272 559.233 L72.5661 559.233 L72.5661 563.168 L52.6588 563.168 L52.6588 559.233 Z" fill="#000000" fill-rule="nonzero" fill-opacity="1" /><path clip-path="url(#clip800)" d="M86.0382 559.233 L102.358 559.233 L102.358 563.168 L80.4133 563.168 L80.4133 559.233 Q83.0753 556.478 87.6586 551.848 Q92.2651 547.196 93.4456 545.853 Q95.691 543.33 96.5706 541.594 Q97.4734 539.834 97.4734 538.145 Q97.4734 535.39 95.5289 533.654 Q93.6076 531.918 90.5058 531.918 Q88.3067 531.918 85.8531 532.682 Q83.4225 533.446 80.6447 534.997 L80.6447 530.274 Q83.4688 529.14 85.9225 528.561 Q88.3762 527.983 90.4132 527.983 Q95.7836 527.983 98.978 530.668 Q102.172 533.353 102.172 537.844 Q102.172 539.973 101.362 541.895 Q100.575 543.793 98.4687 546.385 Q97.89 547.057 94.7882 550.274 Q91.6864 553.469 86.0382 559.233 Z" fill="#000000" fill-rule="nonzero" fill-opacity="1" /><path clip-path="url(#clip800)" d="M112.172 557.288 L117.057 557.288 L117.057 563.168 L112.172 563.168 L112.172 557.288 Z" fill="#000000" fill-rule="nonzero" fill-opacity="1" /><path clip-path="url(#clip800)" d="M127.288 528.608 L145.644 528.608 L145.644 532.543 L131.57 532.543 L131.57 541.015 Q132.589 540.668 133.607 540.506 Q134.626 540.321 135.644 540.321 Q141.431 540.321 144.811 543.492 Q148.191 546.663 148.191 552.08 Q148.191 557.658 144.718 560.76 Q141.246 563.839 134.927 563.839 Q132.751 563.839 130.482 563.469 Q128.237 563.098 125.83 562.358 L125.83 557.658 Q127.913 558.793 130.135 559.348 Q132.357 559.904 134.834 559.904 Q138.839 559.904 141.177 557.797 Q143.515 555.691 143.515 552.08 Q143.515 548.469 141.177 546.362 Q138.839 544.256 134.834 544.256 Q132.959 544.256 131.084 544.672 Q129.232 545.089 127.288 545.969 L127.288 528.608 Z" fill="#000000" fill-rule="nonzero" fill-opacity="1" /><path clip-path="url(#clip800)" d="M51.6634 302.02 L59.3023 302.02 L59.3023 275.654 L50.9921 277.321 L50.9921 273.061 L59.256 271.395 L63.9319 271.395 L63.9319 302.02 L71.5707 302.02 L71.5707 305.955 L51.6634 305.955 L51.6634 302.02 Z" fill="#000000" fill-rule="nonzero" fill-opacity="1" /><path clip-path="url(#clip800)" d="M95.1817 287.321 Q98.5382 288.038 100.413 290.307 Q102.311 292.575 102.311 295.908 Q102.311 301.024 98.7928 303.825 Q95.2743 306.626 88.7928 306.626 Q86.6169 306.626 84.3021 306.186 Q82.0105 305.77 79.5568 304.913 L79.5568 300.399 Q81.5012 301.533 83.816 302.112 Q86.1308 302.691 88.654 302.691 Q93.0521 302.691 95.3437 300.955 Q97.6585 299.219 97.6585 295.908 Q97.6585 292.853 95.5058 291.14 Q93.3762 289.404 89.5567 289.404 L85.529 289.404 L85.529 285.561 L89.7419 285.561 Q93.191 285.561 95.0197 284.196 Q96.8484 282.807 96.8484 280.214 Q96.8484 277.552 94.9502 276.14 Q93.0752 274.705 89.5567 274.705 Q87.6354 274.705 85.4364 275.122 Q83.2373 275.538 80.5984 276.418 L80.5984 272.251 Q83.2605 271.51 85.5753 271.14 Q87.9132 270.77 89.9734 270.77 Q95.2974 270.77 98.3993 273.2 Q101.501 275.608 101.501 279.728 Q101.501 282.598 99.8576 284.589 Q98.2141 286.557 95.1817 287.321 Z" fill="#000000" fill-rule="nonzero" fill-opacity="1" /><path clip-path="url(#clip800)" d="M111.177 300.075 L116.061 300.075 L116.061 305.955 L111.177 305.955 L111.177 300.075 Z" fill="#000000" fill-rule="nonzero" fill-opacity="1" /><path clip-path="url(#clip800)" d="M136.246 274.473 Q132.635 274.473 130.807 278.038 Q129.001 281.58 129.001 288.709 Q129.001 295.816 130.807 299.381 Q132.635 302.922 136.246 302.922 Q139.881 302.922 141.686 299.381 Q143.515 295.816 143.515 288.709 Q143.515 281.58 141.686 278.038 Q139.881 274.473 136.246 274.473 M136.246 270.77 Q142.056 270.77 145.112 275.376 Q148.191 279.959 148.191 288.709 Q148.191 297.436 145.112 302.043 Q142.056 306.626 136.246 306.626 Q130.436 306.626 127.357 302.043 Q124.302 297.436 124.302 288.709 Q124.302 279.959 127.357 275.376 Q130.436 270.77 136.246 270.77 Z" fill="#000000" fill-rule="nonzero" fill-opacity="1" /><polyline clip-path="url(#clip802)" style="stroke:#009af9; stroke-linecap:round; stroke-linejoin:round; stroke-width:4; stroke-opacity:1; fill:none" points="245.565,87.9763 246.077,674.174 246.588,913.846 247.1,1041.5 247.611,1123.2 248.122,1181.4 248.634,1225.38 249.145,1260.03 249.657,1288 250.168,1310.9 250.68,1329.88 251.191,1345.78 251.703,1359.17 252.214,1370.44 252.726,1380.02 253.237,1388.26 253.748,1395.32 254.26,1401.47 254.771,1406.79 255.283,1411.3 255.794,1415.22 256.306,1418.7 256.817,1421.74 257.329,1424.51 257.84,1426.92 258.352,1428.9 258.863,1430.65 259.374,1432.16 259.886,1433.51 260.397,1434.76 260.909,1435.87 261.42,1436.86 261.932,1437.74 262.443,1438.49 262.955,1439.16 263.466,1439.78 263.978,1440.34 264.489,1440.86 265,1441.33 265.512,1441.74 266.023,1442.1 266.535,1442.41 267.046,1442.69 267.558,1442.99 268.069,1443.27 268.581,1443.47 269.092,1443.66 269.604,1443.83 270.115,1443.99 270.626,1444.15 271.138,1444.3 271.649,1444.44 272.161,1444.56 272.672,1444.65 273.184,1444.74 273.695,1444.84 274.207,1444.93 274.718,1444.93 275.23,1444.91 275.741,1444.99 276.252,1445.05 276.764,1445.07 277.275,1445.09 277.787,1445.19 278.298,1445.27 278.81,1445.31 279.321,1445.35 279.833,1445.34 280.344,1445.34 280.855,1445.34 281.367,1445.35 281.878,1445.33 282.39,1445.31 282.901,1445.34 283.413,1445.37 283.924,1445.42 284.436,1445.45 284.947,1445.44 285.459,1445.42 285.97,1445.43 286.481,1445.43 286.993,1445.49 287.504,1445.53 288.016,1445.54 288.527,1445.55 289.039,1445.55 289.55,1445.55 290.062,1445.52 290.573,1445.5 291.085,1445.52 291.596,1445.53 292.107,1445.53 292.619,1445.54 293.13,1445.57 293.642,1445.6 294.153,1445.61 294.665,1445.61 295.176,1445.62 295.688,1445.62 296.199,1445.63 296.711,1445.63 297.222,1445.58 297.733,1445.53 298.245,1445.54 298.756,1445.56 299.268,1445.58 299.779,1445.6 300.291,1445.59 300.802,1445.57 301.314,1445.57 301.825,1445.57 302.337,1445.59 302.848,1445.6 303.359,1445.62 303.871,1445.63 304.382,1445.6 304.894,1445.57 305.405,1445.57 305.917,1445.56 306.428,1445.56 306.94,1445.56 307.451,1445.55 307.963,1445.55 308.474,1445.57 308.985,1445.58 309.497,1445.59 310.008,1445.59 310.52,1445.6 311.031,1445.61 311.543,1445.6 312.054,1445.59 312.566,1445.58 313.077,1445.57 313.589,1445.55 314.1,1445.52 314.611,1445.51 315.123,1445.5 315.634,1445.55 316.146,1445.58 316.657,1445.57 317.169,1445.56 317.68,1445.59 318.192,1445.61 318.703,1445.62 319.215,1445.62 319.726,1445.63 320.237,1445.63 320.749,1445.65 321.26,1445.67 321.772,1445.65 322.283,1445.63 322.795,1445.64 323.306,1445.66 323.818,1445.66 324.329,1445.66 324.841,1445.65 325.352,1445.63 325.863,1445.59 326.375,1445.56 326.886,1445.55 327.398,1445.55 327.909,1445.53 328.421,1445.52 328.932,1445.55 329.444,1445.57 329.955,1445.55 330.467,1445.52 330.978,1445.55 331.489,1445.58 332.001,1445.58 332.512,1445.57 333.024,1445.57 333.535,1445.57 334.047,1445.58 334.558,1445.57 335.07,1445.59 335.581,1445.59 336.093,1445.6 336.604,1445.61 337.115,1445.64 337.627,1445.66 338.138,1445.66 338.65,1445.66 339.161,1445.66 339.673,1445.66 340.184,1445.66 340.696,1445.67 341.207,1445.65 341.719,1445.64 342.23,1445.62 342.741,1445.59 343.253,1445.6 343.764,1445.61 344.276,1445.57 344.787,1445.53 345.299,1445.51 345.81,1445.49 346.322,1445.52 346.833,1445.54 347.345,1445.52 347.856,1445.5 348.367,1445.52 348.879,1445.53 349.39,1445.53 349.902,1445.53 350.413,1445.51 350.925,1445.5 351.436,1445.48 351.948,1445.47 352.459,1445.45 352.971,1445.43 353.482,1445.47 353.993,1445.5 354.505,1445.52 355.016,1445.53 355.528,1445.52 356.039,1445.5 356.551,1445.54 357.062,1445.56 357.574,1445.57 358.085,1445.58 358.597,1445.57 359.108,1445.57 359.619,1445.58 360.131,1445.59 360.642,1445.57 361.154,1445.56 361.665,1445.57 362.177,1445.58 362.688,1445.6 363.2,1445.62 363.711,1445.6 364.223,1445.59 364.734,1445.6 365.245,1445.62 365.757,1445.61 366.268,1445.6 366.78,1445.57 367.291,1445.53 367.803,1445.57 368.314,1445.6 368.826,1445.59 369.337,1445.57 369.849,1445.55 370.36,1445.53 370.871,1445.53 371.383,1445.52 371.894,1445.53 372.406,1445.54 372.917,1445.54 373.429,1445.54 373.94,1445.56 374.452,1445.57 374.963,1445.57 375.474,1445.56 375.986,1445.55 376.497,1445.55 377.009,1445.58 377.52,1445.6 378.032,1445.63 378.543,1445.65 379.055,1445.64 379.566,1445.63 380.078,1445.6 380.589,1445.57 381.1,1445.59 381.612,1445.61 382.123,1445.59 382.635,1445.58 383.146,1445.56 383.658,1445.55 384.169,1445.58 384.681,1445.6 385.192,1445.62 385.704,1445.64 386.215,1445.65 386.726,1445.67 387.238,1445.68 387.749,1445.68 388.261,1445.66 388.772,1445.65 389.284,1445.62 389.795,1445.59 390.307,1445.58 390.818,1445.58 391.33,1445.55 391.841,1445.52 392.352,1445.51 392.864,1445.51 393.375,1445.51 393.887,1445.51 394.398,1445.48 394.91,1445.45 395.421,1445.51 395.933,1445.56 396.444,1445.57 396.956,1445.58 397.467,1445.6 397.978,1445.62 398.49,1445.63 399.001,1445.64 399.513,1445.62 400.024,1445.6 400.536,1445.58 401.047,1445.57 401.559,1445.57 402.07,1445.56 402.582,1445.59 403.093,1445.61 403.604,1445.61 404.116,1445.61 404.627,1445.63 405.139,1445.64 405.65,1445.62 406.162,1445.59 406.673,1445.63 407.185,1445.65 407.696,1445.64 408.208,1445.64 408.719,1445.65 409.23,1445.65 409.742,1445.65 410.253,1445.65 410.765,1445.6 411.276,1445.54 411.788,1445.54 412.299,1445.54 412.811,1445.55 413.322,1445.55 413.834,1445.59 414.345,1445.62 414.856,1445.63 415.368,1445.64 415.879,1445.62 416.391,1445.6 416.902,1445.6 417.414,1445.6 417.925,1445.62 418.437,1445.63 418.948,1445.63 419.46,1445.63 419.971,1445.67 420.482,1445.7 420.994,1445.67 421.505,1445.64 422.017,1445.66 422.528,1445.68 423.04,1445.64 423.551,1445.6 424.063,1445.61 424.574,1445.62 425.086,1445.62 425.597,1445.62 426.108,1445.58 426.62,1445.53 427.131,1445.53 427.643,1445.53 428.154,1445.52 428.666,1445.52 429.177,1445.51 429.689,1445.49 430.2,1445.54 430.712,1445.58 431.223,1445.57 431.734,1445.55 432.246,1445.55 432.757,1445.55 433.269,1445.53 433.78,1445.52 434.292,1445.58 434.803,1445.62 435.315,1445.58 435.826,1445.53 436.338,1445.56 436.849,1445.57 437.36,1445.56 437.872,1445.54 438.383,1445.52 438.895,1445.51 439.406,1445.57 439.918,1445.61 440.429,1445.59 440.941,1445.57 441.452,1445.58 441.964,1445.58 442.475,1445.54 442.986,1445.51 443.498,1445.49 444.009,1445.48 444.521,1445.48 445.032,1445.47 445.544,1445.49 446.055,1445.5 446.567,1445.55 447.078,1445.58 447.59,1445.54 448.101,1445.5 448.612,1445.52 449.124,1445.54 449.635,1445.52 450.147,1445.49 450.658,1445.52 451.17,1445.54 451.681,1445.58 452.193,1445.61 452.704,1445.54 453.216,1445.48 453.727,1445.52 454.238,1445.55 454.75,1445.53 455.261,1445.51 455.773,1445.55 456.284,1445.58 456.796,1445.59 457.307,1445.6 457.819,1445.62 458.33,1445.64 458.842,1445.62 459.353,1445.61 459.864,1445.59 460.376,1445.57 460.887,1445.6 461.399,1445.63 461.91,1445.61 462.422,1445.59 462.933,1445.58 463.445,1445.57 463.956,1445.57 464.468,1445.56 464.979,1445.54 465.49,1445.51 466.002,1445.52 466.513,1445.52 467.025,1445.55 467.536,1445.57 468.048,1445.61 468.559,1445.64 469.071,1445.65 469.582,1445.66 470.094,1445.66 470.605,1445.65 471.116,1445.68 471.628,1445.7 472.139,1445.65 472.651,1445.61 473.162,1445.58 473.674,1445.56 474.185,1445.57 474.697,1445.58 475.208,1445.6 475.719,1445.62 476.231,1445.63 476.742,1445.64 477.254,1445.65 477.765,1445.66 478.277,1445.66 478.788,1445.66 479.3,1445.65 479.811,1445.64 480.323,1445.61 480.834,1445.58 481.345,1445.59 481.857,1445.6 482.368,1445.56 482.88,1445.53 483.391,1445.56 483.903,1445.58 484.414,1445.58 484.926,1445.58 485.437,1445.58 485.949,1445.58 486.46,1445.54 486.971,1445.5 487.483,1445.51 487.994,1445.51 488.506,1445.53 489.017,1445.54 489.529,1445.56 490.04,1445.57 490.552,1445.56 491.063,1445.56 491.575,1445.54 492.086,1445.52 492.597,1445.53 493.109,1445.54 493.62,1445.47 494.132,1445.4 494.643,1445.46 495.155,1445.51 495.666,1445.53 496.178,1445.54 496.689,1445.53 497.201,1445.52 497.712,1445.57 498.223,1445.6 498.735,1445.58 499.246,1445.56 499.758,1445.55 500.269,1445.54 500.781,1445.53 501.292,1445.51 501.804,1445.51 502.315,1445.51 502.827,1445.56 503.338,1445.59 503.849,1445.6 504.361,1445.61 504.872,1445.61 505.384,1445.62 505.895,1445.62 506.407,1445.62 506.918,1445.61 507.43,1445.59 507.941,1445.61 508.453,1445.63 508.964,1445.63 509.475,1445.63 509.987,1445.61 510.498,1445.59 511.01,1445.6 511.521,1445.6 512.033,1445.58 512.544,1445.56 513.056,1445.61 513.567,1445.65 514.079,1445.61 514.59,1445.58 515.101,1445.58 515.613,1445.58 516.124,1445.57 516.636,1445.57 517.147,1445.55 517.659,1445.54 518.17,1445.55 518.682,1445.55 519.193,1445.56 519.705,1445.56 520.216,1445.54 520.727,1445.53 521.239,1445.54 521.75,1445.54 522.262,1445.56 522.773,1445.57 523.285,1445.55 523.796,1445.54 524.308,1445.53 524.819,1445.52 525.331,1445.52 525.842,1445.52 526.353,1445.5 526.865,1445.48 527.376,1445.51 527.888,1445.53 528.399,1445.55 528.911,1445.57 529.422,1445.53 529.934,1445.49 530.445,1445.5 530.957,1445.51 531.468,1445.56 531.979,1445.59 532.491,1445.62 533.002,1445.63 533.514,1445.61 534.025,1445.59 534.537,1445.6 535.048,1445.6 535.56,1445.63 536.071,1445.64 536.583,1445.63 537.094,1445.61 537.605,1445.63 538.117,1445.64 538.628,1445.65 539.14,1445.66 539.651,1445.63 540.163,1445.6 540.674,1445.56 541.186,1445.52 541.697,1445.53 542.209,1445.53 542.72,1445.55 543.231,1445.57 543.743,1445.57 544.254,1445.57 544.766,1445.56 545.277,1445.54 545.789,1445.52 546.3,1445.5 546.812,1445.54 547.323,1445.58 547.835,1445.58 548.346,1445.58 548.857,1445.62 549.369,1445.64 549.88,1445.67 550.392,1445.69 550.903,1445.68 551.415,1445.67 551.926,1445.65 552.438,1445.63 552.949,1445.63 553.461,1445.62 553.972,1445.61 554.483,1445.61 554.995,1445.64 555.506,1445.67 556.018,1445.68 556.529,1445.7 557.041,1445.67 557.552,1445.64 558.064,1445.59 558.575,1445.55 559.087,1445.56 559.598,1445.57 560.109,1445.57 560.621,1445.56 561.132,1445.56 561.644,1445.55 562.155,1445.57 562.667,1445.58 563.178,1445.58 563.69,1445.59 564.201,1445.58 564.713,1445.57 565.224,1445.56 565.735,1445.56 566.247,1445.56 566.758,1445.56 567.27,1445.51 567.781,1445.46 568.293,1445.49 568.804,1445.51 569.316,1445.55 569.827,1445.58 570.338,1445.62 570.85,1445.64 571.361,1445.65 571.873,1445.66 572.384,1445.62 572.896,1445.59 573.407,1445.59 573.919,1445.6 574.43,1445.6 574.942,1445.6 575.453,1445.61 575.964,1445.61 576.476,1445.62 576.987,1445.62 577.499,1445.6 578.01,1445.59 578.522,1445.62 579.033,1445.65 579.545,1445.63 580.056,1445.61 580.568,1445.58 581.079,1445.54 581.59,1445.57 582.102,1445.59 582.613,1445.54 583.125,1445.5 583.636,1445.52 584.148,1445.53 584.659,1445.52 585.171,1445.52 585.682,1445.57 586.194,1445.61 586.705,1445.57 587.216,1445.53 587.728,1445.49 588.239,1445.46 588.751,1445.45 589.262,1445.44 589.774,1445.43 590.285,1445.42 590.797,1445.42 591.308,1445.42 591.82,1445.44 592.331,1445.45 592.842,1445.45 593.354,1445.44 593.865,1445.4 594.377,1445.37 594.888,1445.45 595.4,1445.5 595.911,1445.53 596.423,1445.56 596.934,1445.54 597.446,1445.52 597.957,1445.52 598.468,1445.52 598.98,1445.56 599.491,1445.58 600.003,1445.6 600.514,1445.62 601.026,1445.62 601.537,1445.62 602.049,1445.62 602.56,1445.63 603.072,1445.59 603.583,1445.55 604.094,1445.55 604.606,1445.56 605.117,1445.55 605.629,1445.54 606.14,1445.55 606.652,1445.56 607.163,1445.6 607.675,1445.64 608.186,1445.6 608.698,1445.57 609.209,1445.54 609.72,1445.52 610.232,1445.48 610.743,1445.44 611.255,1445.49 611.766,1445.53 612.278,1445.53 612.789,1445.52 613.301,1445.57 613.812,1445.6 614.324,1445.59 614.835,1445.57 615.346,1445.57 615.858,1445.57 616.369,1445.59 616.881,1445.6 617.392,1445.58 617.904,1445.56 618.415,1445.54 618.927,1445.51 619.438,1445.5 619.95,1445.5 620.461,1445.48 620.972,1445.46 621.484,1445.51 621.995,1445.55 622.507,1445.55 623.018,1445.56 623.53,1445.6 624.041,1445.62 624.553,1445.65 625.064,1445.67 625.576,1445.64 626.087,1445.62 626.598,1445.6 627.11,1445.58 627.621,1445.56 628.133,1445.54 628.644,1445.52 629.156,1445.51 629.667,1445.48 630.179,1445.45 630.69,1445.45 631.202,1445.45 631.713,1445.48 632.224,1445.51 632.736,1445.45 633.247,1445.4 633.759,1445.39 634.27,1445.39 634.782,1445.44 635.293,1445.47 635.805,1445.46 636.316,1445.45 636.828,1445.4 637.339,1445.36 637.85,1445.41 638.362,1445.45 638.873,1445.45 639.385,1445.44 639.896,1445.49 640.408,1445.53 640.919,1445.53 641.431,1445.54 641.942,1445.52 642.454,1445.5 642.965,1445.47 643.476,1445.45 643.988,1445.49 644.499,1445.52 645.011,1445.56 645.522,1445.59 646.034,1445.58 646.545,1445.57 647.057,1445.55 647.568,1445.51 648.08,1445.53 648.591,1445.55 649.102,1445.55 649.614,1445.55 650.125,1445.48 650.637,1445.42 651.148,1445.42 651.66,1445.42 652.171,1445.4 652.683,1445.38 653.194,1445.44 653.706,1445.48 654.217,1445.51 654.728,1445.53 655.24,1445.57 655.751,1445.6 656.263,1445.57 656.774,1445.54 657.286,1445.52 657.797,1445.5 658.309,1445.52 658.82,1445.54 659.332,1445.53 659.843,1445.53 660.354,1445.57 660.866,1445.6 661.377,1445.6 661.889,1445.6 662.4,1445.55 662.912,1445.51 663.423,1445.5 663.935,1445.5 664.446,1445.49 664.957,1445.48 665.469,1445.48 665.98,1445.48 666.492,1445.51 667.003,1445.52 667.515,1445.54 668.026,1445.55 668.538,1445.58 669.049,1445.6 669.561,1445.62 670.072,1445.63 670.583,1445.61 671.095,1445.58 671.606,1445.61 672.118,1445.62 672.629,1445.6 673.141,1445.58 673.652,1445.52 674.164,1445.46 674.675,1445.48 675.187,1445.5 675.698,1445.52 676.209,1445.53 676.721,1445.54 677.232,1445.55 677.744,1445.57 678.255,1445.58 678.767,1445.55 679.278,1445.52 679.79,1445.51 680.301,1445.51 680.813,1445.53 681.324,1445.55 681.835,1445.55 682.347,1445.56 682.858,1445.54 683.37,1445.53 683.881,1445.53 684.393,1445.52 684.904,1445.54 685.416,1445.55 685.927,1445.57 686.439,1445.59 686.95,1445.62 687.461,1445.66 687.973,1445.66 688.484,1445.66 688.996,1445.66 689.507,1445.67 690.019,1445.69 690.53,1445.71 691.042,1445.71 691.553,1445.72 692.065,1445.69 692.576,1445.66 693.087,1445.66 693.599,1445.65 694.11,1445.65 694.622,1445.64 695.133,1445.67 695.645,1445.7 696.156,1445.67 696.668,1445.65 697.179,1445.61 697.691,1445.57 698.202,1445.52 698.713,1445.47 699.225,1445.47 699.736,1445.47 700.248,1445.48 700.759,1445.49 701.271,1445.48 701.782,1445.47 702.294,1445.5 702.805,1445.53 703.317,1445.52 703.828,1445.52 704.339,1445.5 704.851,1445.49 705.362,1445.52 705.874,1445.54 706.385,1445.54 706.897,1445.54 707.408,1445.57 707.92,1445.6 708.431,1445.63 708.943,1445.65 709.454,1445.61 709.965,1445.59 710.477,1445.57 710.988,1445.55 711.5,1445.51 712.011,1445.48 712.523,1445.52 713.034,1445.56 713.546,1445.48 714.057,1445.41 714.569,1445.46 715.08,1445.5 715.591,1445.49 716.103,1445.48 716.614,1445.49 717.126,1445.5 717.637,1445.53 718.149,1445.55 718.66,1445.51 719.172,1445.48 719.683,1445.49 720.195,1445.5 720.706,1445.53 721.217,1445.55 721.729,1445.49 722.24,1445.43 722.752,1445.49 723.263,1445.53 723.775,1445.55 724.286,1445.58 724.798,1445.61 725.309,1445.63 725.821,1445.62 726.332,1445.62 726.843,1445.61 727.355,1445.6 727.866,1445.62 728.378,1445.64 728.889,1445.64 729.401,1445.64 729.912,1445.6 730.424,1445.56 730.935,1445.59 731.447,1445.61 731.958,1445.6 732.469,1445.6 732.981,1445.62 733.492,1445.63 734.004,1445.65 734.515,1445.66 735.027,1445.63 735.538,1445.6 736.05,1445.58 736.561,1445.56 737.073,1445.55 737.584,1445.54 738.095,1445.55 738.607,1445.56 739.118,1445.55 739.63,1445.55 740.141,1445.56 740.653,1445.56 741.164,1445.57 741.676,1445.58 742.187,1445.58 742.699,1445.59 743.21,1445.59 743.721,1445.58 744.233,1445.59 744.744,1445.6 745.256,1445.57 745.767,1445.55 746.279,1445.57 746.79,1445.58 747.302,1445.58 747.813,1445.58 748.325,1445.55 748.836,1445.52 749.347,1445.46 749.859,1445.42 750.37,1445.47 750.882,1445.51 751.393,1445.48 751.905,1445.45 752.416,1445.46 752.928,1445.46 753.439,1445.51 753.951,1445.54 754.462,1445.56 754.973,1445.57 755.485,1445.58 755.996,1445.58 756.508,1445.57 757.019,1445.56 757.531,1445.57 758.042,1445.57 758.554,1445.52 759.065,1445.48 759.576,1445.48 760.088,1445.48 760.599,1445.49 761.111,1445.49 761.622,1445.5 762.134,1445.52 762.645,1445.51 763.157,1445.51 763.668,1445.52 764.18,1445.53 764.691,1445.54 765.202,1445.55 765.714,1445.55 766.225,1445.54 766.737,1445.58 767.248,1445.61 767.76,1445.61 768.271,1445.61 768.783,1445.62 769.294,1445.63 769.806,1445.61 770.317,1445.6 770.828,1445.59 771.34,1445.58 771.851,1445.55 772.363,1445.52 772.874,1445.52 773.386,1445.52 773.897,1445.57 774.409,1445.61 774.92,1445.58 775.432,1445.54 775.943,1445.53 776.454,1445.5 776.966,1445.44 777.477,1445.38 777.989,1445.39 778.5,1445.4 779.012,1445.44 779.523,1445.47 780.035,1445.48 780.546,1445.49 781.058,1445.48 781.569,1445.47 782.08,1445.51 782.592,1445.54 783.103,1445.54 783.615,1445.54 784.126,1445.53 784.638,1445.52 785.149,1445.52 785.661,1445.52 786.172,1445.51 786.684,1445.5 787.195,1445.53 787.706,1445.55 788.218,1445.53 788.729,1445.5 789.241,1445.5 789.752,1445.5 790.264,1445.53 790.775,1445.54 791.287,1445.55 791.798,1445.55 792.31,1445.58 792.821,1445.6 793.332,1445.62 793.844,1445.64 794.355,1445.62 794.867,1445.6 795.378,1445.56 795.89,1445.52 796.401,1445.55 796.913,1445.58 797.424,1445.53 797.936,1445.48 798.447,1445.46 798.958,1445.43 799.47,1445.42 799.981,1445.41 800.493,1445.45 801.004,1445.48 801.516,1445.51 802.027,1445.53 802.539,1445.54 803.05,1445.55 803.562,1445.58 804.073,1445.59 804.584,1445.63 805.096,1445.66 805.607,1445.62 806.119,1445.58 806.63,1445.58 807.142,1445.57 807.653,1445.56 808.165,1445.54 808.676,1445.58 809.188,1445.61 809.699,1445.56 810.21,1445.52 810.722,1445.51 811.233,1445.49 811.745,1445.48 812.256,1445.47 812.768,1445.45 813.279,1445.42 813.791,1445.44 814.302,1445.46 814.814,1445.48 815.325,1445.49 815.836,1445.49 816.348,1445.48 816.859,1445.51 817.371,1445.53 817.882,1445.57 818.394,1445.6 818.905,1445.56 819.417,1445.52 819.928,1445.51 820.44,1445.5 820.951,1445.47 821.462,1445.44 821.974,1445.48 822.485,1445.51 822.997,1445.52 823.508,1445.53 824.02,1445.55 824.531,1445.57 825.043,1445.59 825.554,1445.61 826.066,1445.6 826.577,1445.6 827.088,1445.6 827.6,1445.59 828.111,1445.6 828.623,1445.61 829.134,1445.56 829.646,1445.5 830.157,1445.52 830.669,1445.54 831.18,1445.57 831.692,1445.59 832.203,1445.59 832.714,1445.6 833.226,1445.56 833.737,1445.52 834.249,1445.55 834.76,1445.57 835.272,1445.56 835.783,1445.55 836.295,1445.59 836.806,1445.61 837.318,1445.6 837.829,1445.58 838.34,1445.57 838.852,1445.57 839.363,1445.58 839.875,1445.6 840.386,1445.58 840.898,1445.55 841.409,1445.55 841.921,1445.55 842.432,1445.56 842.944,1445.56 843.455,1445.59 843.966,1445.61 844.478,1445.62 844.989,1445.63 845.501,1445.64 846.012,1445.66 846.524,1445.57 847.035,1445.49 847.547,1445.5 848.058,1445.5 848.57,1445.51 849.081,1445.51 849.592,1445.54 850.104,1445.56 850.615,1445.54 851.127,1445.53 851.638,1445.55 852.15,1445.56 852.661,1445.57 853.173,1445.58 853.684,1445.54 854.196,1445.51 854.707,1445.51 855.218,1445.5 855.73,1445.52 856.241,1445.53 856.753,1445.58 857.264,1445.61 857.776,1445.61 858.287,1445.61 858.799,1445.59 859.31,1445.57 859.821,1445.54 860.333,1445.52 860.844,1445.55 861.356,1445.58 861.867,1445.6 862.379,1445.61 862.89,1445.61 863.402,1445.6 863.913,1445.62 864.425,1445.62 864.936,1445.55 865.447,1445.48 865.959,1445.43 866.47,1445.38 866.982,1445.38 867.493,1445.37 868.005,1445.42 868.516,1445.45 869.028,1445.42 869.539,1445.4 870.051,1445.46 870.562,1445.5 871.073,1445.51 871.585,1445.51 872.096,1445.5 872.608,1445.49 873.119,1445.55 873.631,1445.59 874.142,1445.55 874.654,1445.51 875.165,1445.51 875.677,1445.5 876.188,1445.51 876.699,1445.5 877.211,1445.47 877.722,1445.45 878.234,1445.51 878.745,1445.56 879.257,1445.57 879.768,1445.57 880.28,1445.57 880.791,1445.57 881.303,1445.58 881.814,1445.6 882.325,1445.6 882.837,1445.61 883.348,1445.63 883.86,1445.64 884.371,1445.66 884.883,1445.68 885.394,1445.64 885.906,1445.6 886.417,1445.58 886.929,1445.56 887.44,1445.57 887.951,1445.58 888.463,1445.58 888.974,1445.57 889.486,1445.59 889.997,1445.6 890.509,1445.59 891.02,1445.58 891.532,1445.57 892.043,1445.56 892.555,1445.56 893.066,1445.56 893.577,1445.51 894.089,1445.46 894.6,1445.45 895.112,1445.44 895.623,1445.44 896.135,1445.43 896.646,1445.42 897.158,1445.41 897.669,1445.39 898.181,1445.36 898.692,1445.39 899.203,1445.42 899.715,1445.39 900.226,1445.38 900.738,1445.41 901.249,1445.44 901.761,1445.43 902.272,1445.43 902.784,1445.46 903.295,1445.49 903.807,1445.48 904.318,1445.48 904.829,1445.46 905.341,1445.45 905.852,1445.42 906.364,1445.4 906.875,1445.43 907.387,1445.46 907.898,1445.49 908.41,1445.52 908.921,1445.54 909.433,1445.55 909.944,1445.55 910.455,1445.55 910.967,1445.56 911.478,1445.57 911.99,1445.54 912.501,1445.51 913.013,1445.55 913.524,1445.59 914.036,1445.6 914.547,1445.62 915.059,1445.61 915.57,1445.61 916.081,1445.63 916.593,1445.64 917.104,1445.64 917.616,1445.63 918.127,1445.61 918.639,1445.6 919.15,1445.61 919.662,1445.61 920.173,1445.58 920.685,1445.56 921.196,1445.55 921.707,1445.54 922.219,1445.56 922.73,1445.57 923.242,1445.5 923.753,1445.44 924.265,1445.48 924.776,1445.5 925.288,1445.44 925.799,1445.39 926.311,1445.41 926.822,1445.42 927.333,1445.43 927.845,1445.43 928.356,1445.35 928.868,1445.27 929.379,1445.31 929.891,1445.35 930.402,1445.39 930.914,1445.42 931.425,1445.42 931.937,1445.41 932.448,1445.42 932.959,1445.42 933.471,1445.36 933.982,1445.3 934.494,1445.3 935.005,1445.29 935.517,1445.33 936.028,1445.37 936.54,1445.37 937.051,1445.37 937.563,1445.37 938.074,1445.38 938.585,1445.43 939.097,1445.46 939.608,1445.45 940.12,1445.43 940.631,1445.46 941.143,1445.48 941.654,1445.48 942.166,1445.48 942.677,1445.49 943.189,1445.49 943.7,1445.45 944.211,1445.42 944.723,1445.44 945.234,1445.44 945.746,1445.44 946.257,1445.44 946.769,1445.42 947.28,1445.39 947.792,1445.4 948.303,1445.41 948.815,1445.4 949.326,1445.39 949.837,1445.36 950.349,1445.33 950.86,1445.26 951.372,1445.2 951.883,1445.28 952.395,1445.35 952.906,1445.4 953.418,1445.44 953.929,1445.44 954.44,1445.42 954.952,1445.47 955.463,1445.5 955.975,1445.5 956.486,1445.51 956.998,1445.52 957.509,1445.53 958.021,1445.55 958.532,1445.56 959.044,1445.59 959.555,1445.61 960.066,1445.59 960.578,1445.57 961.089,1445.54 961.601,1445.52 962.112,1445.49 962.624,1445.46 963.135,1445.51 963.647,1445.54 964.158,1445.54 964.67,1445.53 965.181,1445.55 965.692,1445.56 966.204,1445.6 966.715,1445.63 967.227,1445.65 967.738,1445.66 968.25,1445.62 968.761,1445.58 969.273,1445.57 969.784,1445.57 970.296,1445.54 970.807,1445.51 971.318,1445.47 971.83,1445.43 972.341,1445.42 972.853,1445.42 973.364,1445.39 973.876,1445.37 974.387,1445.44 974.899,1445.5 975.41,1445.51 975.922,1445.51 976.433,1445.53 976.944,1445.55 977.456,1445.53 977.967,1445.52 978.479,1445.54 978.99,1445.55 979.502,1445.52 980.013,1445.48 980.525,1445.43 981.036,1445.38 981.548,1445.41 982.059,1445.44 982.57,1445.47 983.082,1445.49 983.593,1445.44 984.105,1445.4 984.616,1445.46 985.128,1445.5 985.639,1445.5 986.151,1445.5 986.662,1445.48 987.174,1445.46 987.685,1445.47 988.196,1445.48 988.708,1445.48 989.219,1445.48 989.731,1445.51 990.242,1445.53 990.754,1445.49 991.265,1445.46 991.777,1445.44 992.288,1445.41 992.8,1445.45 993.311,1445.48 993.822,1445.49 994.334,1445.5 994.845,1445.47 995.357,1445.45 995.868,1445.45 996.38,1445.45 996.891,1445.46 997.403,1445.48 997.914,1445.48 998.426,1445.49 998.937,1445.47 999.448,1445.46 999.96,1445.48 1000.47,1445.5 1000.98,1445.45 1001.49,1445.41 1002.01,1445.43 1002.52,1445.46 1003.03,1445.44 1003.54,1445.42 1004.05,1445.42 1004.56,1445.42 1005.07,1445.4 1005.59,1445.39 1006.1,1445.47 1006.61,1445.53 1007.12,1445.53 1007.63,1445.53 1008.14,1445.53 1008.65,1445.52 1009.17,1445.52 1009.68,1445.51 1010.19,1445.43 1010.7,1445.36 1011.21,1445.38 1011.72,1445.39 1012.23,1445.39 1012.75,1445.39 1013.26,1445.4 1013.77,1445.41 1014.28,1445.37 1014.79,1445.34 1015.3,1445.38 1015.81,1445.4 1016.33,1445.42 1016.84,1445.43 1017.35,1445.36 1017.86,1445.29 1018.37,1445.3 1018.88,1445.31 1019.4,1445.36 1019.91,1445.39 1020.42,1445.43 1020.93,1445.46 1021.44,1445.52 1021.95,1445.56 1022.46,1445.54 1022.98,1445.52 1023.49,1445.47 1024,1445.43 1024.51,1445.45 1025.02,1445.46 1025.53,1445.5 1026.04,1445.54 1026.56,1445.54 1027.07,1445.54 1027.58,1445.55 1028.09,1445.56 1028.6,1445.55 1029.11,1445.54 1029.62,1445.5 1030.14,1445.46 1030.65,1445.5 1031.16,1445.52 1031.67,1445.53 1032.18,1445.54 1032.69,1445.53 1033.2,1445.5 1033.72,1445.51 1034.23,1445.51 1034.74,1445.5 1035.25,1445.48 1035.76,1445.49 1036.27,1445.49 1036.78,1445.47 1037.3,1445.44 1037.81,1445.45 1038.32,1445.46 1038.83,1445.45 1039.34,1445.44 1039.85,1445.46 1040.36,1445.47 1040.88,1445.5 1041.39,1445.52 1041.9,1445.49 1042.41,1445.46 1042.92,1445.51 1043.43,1445.54 1043.94,1445.51 1044.46,1445.48 1044.97,1445.49 1045.48,1445.5 1045.99,1445.49 1046.5,1445.48 1047.01,1445.47 1047.53,1445.47 1048.04,1445.51 1048.55,1445.54 1049.06,1445.51 1049.57,1445.48 1050.08,1445.48 1050.59,1445.48 1051.11,1445.44 1051.62,1445.41 1052.13,1445.4 1052.64,1445.39 1053.15,1445.4 1053.66,1445.41 1054.17,1445.46 1054.69,1445.49 1055.2,1445.5 1055.71,1445.51 1056.22,1445.52 1056.73,1445.53 1057.24,1445.52 1057.75,1445.52 1058.27,1445.47 1058.78,1445.43 1059.29,1445.34 1059.8,1445.26 1060.31,1445.29 1060.82,1445.3 1061.33,1445.36 1061.85,1445.4 1062.36,1445.38 1062.87,1445.37 1063.38,1445.39 1063.89,1445.41 1064.4,1445.44 1064.91,1445.45 1065.43,1445.47 1065.94,1445.47 1066.45,1445.47 1066.96,1445.46 1067.47,1445.51 1067.98,1445.54 1068.49,1445.53 1069.01,1445.51 1069.52,1445.56 1070.03,1445.6 1070.54,1445.57 1071.05,1445.55 1071.56,1445.52 1072.07,1445.51 1072.59,1445.46 1073.1,1445.42 1073.61,1445.43 1074.12,1445.43 1074.63,1445.37 1075.14,1445.31 1075.66,1445.31 1076.17,1445.3 1076.68,1445.3 1077.19,1445.3 1077.7,1445.35 1078.21,1445.39 1078.72,1445.39 1079.24,1445.4 1079.75,1445.39 1080.26,1445.38 1080.77,1445.41 1081.28,1445.43 1081.79,1445.39 1082.3,1445.36 1082.82,1445.43 1083.33,1445.48 1083.84,1445.46 1084.35,1445.43 1084.86,1445.45 1085.37,1445.46 1085.88,1445.47 1086.4,1445.48 1086.91,1445.52 1087.42,1445.54 1087.93,1445.51 1088.44,1445.48 1088.95,1445.44 1089.46,1445.39 1089.98,1445.42 1090.49,1445.45 1091,1445.52 1091.51,1445.57 1092.02,1445.53 1092.53,1445.49 1093.04,1445.47 1093.56,1445.45 1094.07,1445.47 1094.58,1445.49 1095.09,1445.52 1095.6,1445.54 1096.11,1445.55 1096.62,1445.55 1097.14,1445.57 1097.65,1445.59 1098.16,1445.55 1098.67,1445.5 1099.18,1445.5 1099.69,1445.49 1100.2,1445.5 1100.72,1445.5 1101.23,1445.51 1101.74,1445.52 1102.25,1445.53 1102.76,1445.54 1103.27,1445.51 1103.79,1445.48 1104.3,1445.44 1104.81,1445.39 1105.32,1445.44 1105.83,1445.48 1106.34,1445.54 1106.85,1445.59 1107.37,1445.56 1107.88,1445.53 1108.39,1445.52 1108.9,1445.5 1109.41,1445.44 1109.92,1445.39 1110.43,1445.44 1110.95,1445.47 1111.46,1445.51 1111.97,1445.53 1112.48,1445.51 1112.99,1445.48 1113.5,1445.49 1114.01,1445.48 1114.53,1445.5 1115.04,1445.5 1115.55,1445.51 1116.06,1445.51 1116.57,1445.52 1117.08,1445.52 1117.59,1445.51 1118.11,1445.5 1118.62,1445.48 1119.13,1445.46 1119.64,1445.51 1120.15,1445.54 1120.66,1445.53 1121.17,1445.51 1121.69,1445.49 1122.2,1445.48 1122.71,1445.51 1123.22,1445.54 1123.73,1445.46 1124.24,1445.4 1124.75,1445.45 1125.27,1445.49 1125.78,1445.46 1126.29,1445.43 1126.8,1445.46 1127.31,1445.48 1127.82,1445.43 1128.33,1445.37 1128.85,1445.41 1129.36,1445.44 1129.87,1445.4 1130.38,1445.37 1130.89,1445.41 1131.4,1445.44 1131.92,1445.41 1132.43,1445.39 1132.94,1445.45 1133.45,1445.5 1133.96,1445.47 1134.47,1445.45 1134.98,1445.46 1135.5,1445.47 1136.01,1445.5 1136.52,1445.53 1137.03,1445.43 1137.54,1445.32 1138.05,1445.35 1138.56,1445.37 1139.08,1445.39 1139.59,1445.4 1140.1,1445.39 1140.61,1445.38 1141.12,1445.33 1141.63,1445.29 1142.14,1445.4 1142.66,1445.48 1143.17,1445.46 1143.68,1445.45 1144.19,1445.47 1144.7,1445.48 1145.21,1445.54 1145.72,1445.59 1146.24,1445.62 1146.75,1445.64 1147.26,1445.63 1147.77,1445.63 1148.28,1445.59 1148.79,1445.56 1149.3,1445.51 1149.82,1445.46 1150.33,1445.47 1150.84,1445.47 1151.35,1445.5 1151.86,1445.51 1152.37,1445.51 1152.88,1445.51 1153.4,1445.49 1153.91,1445.47 1154.42,1445.47 1154.93,1445.46 1155.44,1445.45 1155.95,1445.44 1156.46,1445.4 1156.98,1445.36 1157.49,1445.35 1158,1445.33 1158.51,1445.38 1159.02,1445.42 1159.53,1445.41 1160.05,1445.41 1160.56,1445.48 1161.07,1445.53 1161.58,1445.55 1162.09,1445.57 1162.6,1445.57 1163.11,1445.57 1163.63,1445.59 1164.14,1445.6 1164.65,1445.54 1165.16,1445.49 1165.67,1445.4 1166.18,1445.31 1166.69,1445.33 1167.21,1445.35 1167.72,1445.34 1168.23,1445.33 1168.74,1445.42 1169.25,1445.48 1169.76,1445.41 1170.27,1445.34 1170.79,1445.35 1171.3,1445.35 1171.81,1445.35 1172.32,1445.34 1172.83,1445.4 1173.34,1445.44 1173.85,1445.45 1174.37,1445.46 1174.88,1445.45 1175.39,1445.44 1175.9,1445.46 1176.41,1445.47 1176.92,1445.49 1177.43,1445.5 1177.95,1445.52 1178.46,1445.53 1178.97,1445.46 1179.48,1445.39 1179.99,1445.44 1180.5,1445.47 1181.01,1445.44 1181.53,1445.4 1182.04,1445.44 1182.55,1445.47 1183.06,1445.45 1183.57,1445.43 1184.08,1445.4 1184.59,1445.37 1185.11,1445.38 1185.62,1445.38 1186.13,1445.33 1186.64,1445.28 1187.15,1445.33 1187.66,1445.37 1188.18,1445.39 1188.69,1445.4 1189.2,1445.43 1189.71,1445.45 1190.22,1445.45 1190.73,1445.44 1191.24,1445.43 1191.76,1445.41 1192.27,1445.43 1192.78,1445.45 1193.29,1445.51 1193.8,1445.56 1194.31,1445.48 1194.82,1445.4 1195.34,1445.36 1195.85,1445.33 1196.36,1445.38 1196.87,1445.41 1197.38,1445.47 1197.89,1445.51 1198.4,1445.46 1198.92,1445.4 1199.43,1445.38 1199.94,1445.34 1200.45,1445.38 1200.96,1445.41 1201.47,1445.39 1201.98,1445.38 1202.5,1445.38 1203.01,1445.37 1203.52,1445.34 1204.03,1445.31 1204.54,1445.34 1205.05,1445.37 1205.56,1445.48 1206.08,1445.56 1206.59,1445.53 1207.1,1445.5 1207.61,1445.49 1208.12,1445.48 1208.63,1445.51 1209.14,1445.54 1209.66,1445.51 1210.17,1445.49 1210.68,1445.46 1211.19,1445.44 1211.7,1445.45 1212.21,1445.46 1212.72,1445.47 1213.24,1445.47 1213.75,1445.45 1214.26,1445.43 1214.77,1445.5 1215.28,1445.55 1215.79,1445.54 1216.3,1445.52 1216.82,1445.47 1217.33,1445.42 1217.84,1445.43 1218.35,1445.44 1218.86,1445.47 1219.37,1445.5 1219.89,1445.46 1220.4,1445.44 1220.91,1445.39 1221.42,1445.35 1221.93,1445.33 1222.44,1445.31 1222.95,1445.35 1223.47,1445.37 1223.98,1445.39 1224.49,1445.41 1225,1445.41 1225.51,1445.42 1226.02,1445.44 1226.53,1445.46 1227.05,1445.46 1227.56,1445.46 1228.07,1445.45 1228.58,1445.44 1229.09,1445.44 1229.6,1445.43 1230.11,1445.44 1230.63,1445.44 1231.14,1445.47 1231.65,1445.5 1232.16,1445.53 1232.67,1445.55 1233.18,1445.53 1233.69,1445.51 1234.21,1445.52 1234.72,1445.52 1235.23,1445.49 1235.74,1445.46 1236.25,1445.52 1236.76,1445.55 1237.27,1445.52 1237.79,1445.49 1238.3,1445.46 1238.81,1445.43 1239.32,1445.45 1239.83,1445.46 1240.34,1445.39 1240.85,1445.34 1241.37,1445.37 1241.88,1445.4 1242.39,1445.42 1242.9,1445.43 1243.41,1445.49 1243.92,1445.53 1244.43,1445.53 1244.95,1445.52 1245.46,1445.54 1245.97,1445.55 1246.48,1445.56 1246.99,1445.56 1247.5,1445.54 1248.02,1445.52 1248.53,1445.51 1249.04,1445.51 1249.55,1445.44 1250.06,1445.38 1250.57,1445.4 1251.08,1445.41 1251.6,1445.49 1252.11,1445.55 1252.62,1445.5 1253.13,1445.46 1253.64,1445.55 1254.15,1445.6 1254.66,1445.59 1255.18,1445.58 1255.69,1445.56 1256.2,1445.54 1256.71,1445.54 1257.22,1445.53 1257.73,1445.48 1258.24,1445.43 1258.76,1445.39 1259.27,1445.35 1259.78,1445.37 1260.29,1445.38 1260.8,1445.47 1261.31,1445.54 1261.82,1445.53 1262.34,1445.52 1262.85,1445.54 1263.36,1445.55 1263.87,1445.53 1264.38,1445.51 1264.89,1445.52 1265.4,1445.53 1265.92,1445.53 1266.43,1445.53 1266.94,1445.49 1267.45,1445.45 1267.96,1445.45 1268.47,1445.44 1268.98,1445.43 1269.5,1445.41 1270.01,1445.44 1270.52,1445.47 1271.03,1445.42 1271.54,1445.37 1272.05,1445.39 1272.56,1445.4 1273.08,1445.38 1273.59,1445.38 1274.1,1445.38 1274.61,1445.39 1275.12,1445.38 1275.63,1445.36 1276.15,1445.33 1276.66,1445.28 1277.17,1445.31 1277.68,1445.34 1278.19,1445.27 1278.7,1445.22 1279.21,1445.29 1279.73,1445.34 1280.24,1445.36 1280.75,1445.37 1281.26,1445.39 1281.77,1445.41 1282.28,1445.41 1282.79,1445.4 1283.31,1445.48 1283.82,1445.54 1284.33,1445.49 1284.84,1445.43 1285.35,1445.43 1285.86,1445.42 1286.37,1445.44 1286.89,1445.45 1287.4,1445.51 1287.91,1445.56 1288.42,1445.53 1288.93,1445.5 1289.44,1445.44 1289.95,1445.38 1290.47,1445.37 1290.98,1445.37 1291.49,1445.41 1292,1445.44 1292.51,1445.42 1293.02,1445.41 1293.53,1445.38 1294.05,1445.36 1294.56,1445.4 1295.07,1445.42 1295.58,1445.42 1296.09,1445.42 1296.6,1445.37 1297.11,1445.33 1297.63,1445.26 1298.14,1445.2 1298.65,1445.24 1299.16,1445.26 1299.67,1445.32 1300.18,1445.38 1300.69,1445.35 1301.21,1445.32 1301.72,1445.32 1302.23,1445.31 1302.74,1445.33 1303.25,1445.34 1303.76,1445.38 1304.28,1445.4 1304.79,1445.44 1305.3,1445.48 1305.81,1445.41 1306.32,1445.35 1306.83,1445.42 1307.34,1445.48 1307.86,1445.51 1308.37,1445.54 1308.88,1445.51 1309.39,1445.47 1309.9,1445.39 1310.41,1445.31 1310.92,1445.42 1311.44,1445.5 1311.95,1445.49 1312.46,1445.48 1312.97,1445.52 1313.48,1445.54 1313.99,1445.55 1314.5,1445.55 1315.02,1445.57 1315.53,1445.59 1316.04,1445.53 1316.55,1445.47 1317.06,1445.47 1317.57,1445.46 1318.08,1445.46 1318.6,1445.45 1319.11,1445.42 1319.62,1445.38 1320.13,1445.43 1320.64,1445.47 1321.15,1445.45 1321.66,1445.43 1322.18,1445.42 1322.69,1445.42 1323.2,1445.49 1323.71,1445.55 1324.22,1445.52 1324.73,1445.49 1325.24,1445.45 1325.76,1445.42 1326.27,1445.41 1326.78,1445.41 1327.29,1445.42 1327.8,1445.44 1328.31,1445.44 1328.82,1445.43 1329.34,1445.48 1329.85,1445.52 1330.36,1445.52 1330.87,1445.53 1331.38,1445.5 1331.89,1445.48 1332.41,1445.48 1332.92,1445.48 1333.43,1445.46 1333.94,1445.44 1334.45,1445.44 1334.96,1445.44 1335.47,1445.47 1335.99,1445.49 1336.5,1445.56 1337.01,1445.6 1337.52,1445.6 1338.03,1445.59 1338.54,1445.53 1339.05,1445.47 1339.57,1445.43 1340.08,1445.38 1340.59,1445.42 1341.1,1445.45 1341.61,1445.36 1342.12,1445.28 1342.63,1445.25 1343.15,1445.22 1343.66,1445.28 1344.17,1445.32 1344.68,1445.33 1345.19,1445.34 1345.7,1445.36 1346.21,1445.38 1346.73,1445.37 1347.24,1445.35 1347.75,1445.38 1348.26,1445.4 1348.77,1445.44 1349.28,1445.47 1349.79,1445.42 1350.31,1445.38 1350.82,1445.45 1351.33,1445.51 1351.84,1445.51 1352.35,1445.5 1352.86,1445.47 1353.37,1445.44 1353.89,1445.44 1354.4,1445.44 1354.91,1445.36 1355.42,1445.29 1355.93,1445.33 1356.44,1445.35 1356.95,1445.34 1357.47,1445.33 1357.98,1445.38 1358.49,1445.42 1359,1445.48 1359.51,1445.52 1360.02,1445.52 1360.54,1445.52 1361.05,1445.5 1361.56,1445.49 1362.07,1445.52 1362.58,1445.54 1363.09,1445.56 1363.6,1445.58 1364.12,1445.55 1364.63,1445.52 1365.14,1445.39 1365.65,1445.26 1366.16,1445.28 1366.67,1445.3 1367.18,1445.38 1367.7,1445.43 1368.21,1445.46 1368.72,1445.49 1369.23,1445.45 1369.74,1445.42 1370.25,1445.43 1370.76,1445.43 1371.28,1445.47 1371.79,1445.49 1372.3,1445.45 1372.81,1445.41 1373.32,1445.37 1373.83,1445.33 1374.34,1445.38 1374.86,1445.42 1375.37,1445.37 1375.88,1445.33 1376.39,1445.37 1376.9,1445.4 1377.41,1445.43 1377.92,1445.45 1378.44,1445.37 1378.95,1445.3 1379.46,1445.28 1379.97,1445.26 1380.48,1445.21 1380.99,1445.17 1381.5,1445.26 1382.02,1445.32 1382.53,1445.28 1383.04,1445.25 1383.55,1445.27 1384.06,1445.29 1384.57,1445.27 1385.08,1445.25 1385.6,1445.18 1386.11,1445.12 1386.62,1445.21 1387.13,1445.27 1387.64,1445.28 1388.15,1445.29 1388.66,1445.3 1389.18,1445.28 1389.69,1445.28 1390.2,1445.27 1390.71,1445.3 1391.22,1445.32 1391.73,1445.32 1392.25,1445.32 1392.76,1445.36 1393.27,1445.39 1393.78,1445.42 1394.29,1445.43 1394.8,1445.45 1395.31,1445.46 1395.83,1445.41 1396.34,1445.36 1396.85,1445.28 1397.36,1445.21 1397.87,1445.22 1398.38,1445.22 1398.89,1445.3 1399.41,1445.36 1399.92,1445.41 1400.43,1445.45 1400.94,1445.42 1401.45,1445.4 1401.96,1445.33 1402.47,1445.26 1402.99,1445.3 1403.5,1445.32 1404.01,1445.37 1404.52,1445.41 1405.03,1445.44 1405.54,1445.46 1406.05,1445.43 1406.57,1445.4 1407.08,1445.34 1407.59,1445.29 1408.1,1445.24 1408.61,1445.19 1409.12,1445.22 1409.63,1445.24 1410.15,1445.31 1410.66,1445.36 1411.17,1445.41 1411.68,1445.44 1412.19,1445.42 1412.7,1445.41 1413.21,1445.38 1413.73,1445.35 1414.24,1445.33 1414.75,1445.3 1415.26,1445.26 1415.77,1445.21 1416.28,1445.27 1416.79,1445.32 1417.31,1445.35 1417.82,1445.37 1418.33,1445.34 1418.84,1445.31 1419.35,1445.37 1419.86,1445.42 1420.38,1445.41 1420.89,1445.4 1421.4,1445.46 1421.91,1445.51 1422.42,1445.49 1422.93,1445.48 1423.44,1445.46 1423.96,1445.45 1424.47,1445.45 1424.98,1445.45 1425.49,1445.44 1426,1445.43 1426.51,1445.34 1427.02,1445.26 1427.54,1445.29 1428.05,1445.32 1428.56,1445.41 1429.07,1445.48 1429.58,1445.43 1430.09,1445.39 1430.6,1445.32 1431.12,1445.25 1431.63,1445.23 1432.14,1445.21 1432.65,1445.17 1433.16,1445.13 1433.67,1445.16 1434.18,1445.17 1434.7,1445.21 1435.21,1445.25 1435.72,1445.25 1436.23,1445.24 1436.74,1445.38 1437.25,1445.48 1437.76,1445.43 1438.28,1445.39 1438.79,1445.37 1439.3,1445.36 1439.81,1445.4 1440.32,1445.43 1440.83,1445.36 1441.34,1445.3 1441.86,1445.3 1442.37,1445.29 1442.88,1445.3 1443.39,1445.3 1443.9,1445.25 1444.41,1445.21 1444.92,1445.3 1445.44,1445.37 1445.95,1445.38 1446.46,1445.4 1446.97,1445.39 1447.48,1445.38 1447.99,1445.44 1448.51,1445.47 1449.02,1445.51 1449.53,1445.53 1450.04,1445.49 1450.55,1445.44 1451.06,1445.4 1451.57,1445.36 1452.09,1445.39 1452.6,1445.41 1453.11,1445.36 1453.62,1445.32 1454.13,1445.3 1454.64,1445.28 1455.15,1445.33 1455.67,1445.37 1456.18,1445.39 1456.69,1445.4 1457.2,1445.47 1457.71,1445.52 1458.22,1445.51 1458.73,1445.5 1459.25,1445.51 1459.76,1445.52 1460.27,1445.5 1460.78,1445.49 1461.29,1445.48 1461.8,1445.46 1462.31,1445.44 1462.83,1445.42 1463.34,1445.44 1463.85,1445.45 1464.36,1445.46 1464.87,1445.47 1465.38,1445.49 1465.89,1445.5 1466.41,1445.47 1466.92,1445.44 1467.43,1445.4 1467.94,1445.36 1468.45,1445.43 1468.96,1445.47 1469.47,1445.47 1469.99,1445.46 1470.5,1445.44 1471.01,1445.41 1471.52,1445.43 1472.03,1445.45 1472.54,1445.5 1473.05,1445.53 1473.57,1445.5 1474.08,1445.47 1474.59,1445.43 1475.1,1445.39 1475.61,1445.37 1476.12,1445.35 1476.64,1445.37 1477.15,1445.38 1477.66,1445.31 1478.17,1445.25 1478.68,1445.24 1479.19,1445.23 1479.7,1445.32 1480.22,1445.39 1480.73,1445.4 1481.24,1445.41 1481.75,1445.37 1482.26,1445.35 1482.77,1445.29 1483.28,1445.24 1483.8,1445.28 1484.31,1445.31 1484.82,1445.26 1485.33,1445.21 1485.84,1445.31 1486.35,1445.39 1486.86,1445.47 1487.38,1445.53 1487.89,1445.49 1488.4,1445.44 1488.91,1445.44 1489.42,1445.43 1489.93,1445.4 1490.44,1445.37 1490.96,1445.27 1491.47,1445.18 1491.98,1445.3 1492.49,1445.37 1493,1445.47 1493.51,1445.54 1494.02,1445.54 1494.54,1445.55 1495.05,1445.47 1495.56,1445.4 1496.07,1445.44 1496.58,1445.47 1497.09,1445.52 1497.6,1445.56 1498.12,1445.52 1498.63,1445.49 1499.14,1445.46 1499.65,1445.44 1500.16,1445.44 1500.67,1445.44 1501.18,1445.38 1501.7,1445.34 1502.21,1445.33 1502.72,1445.33 1503.23,1445.38 1503.74,1445.42 1504.25,1445.41 1504.77,1445.4 1505.28,1445.44 1505.79,1445.48 1506.3,1445.47 1506.81,1445.46 1507.32,1445.43 1507.83,1445.4 1508.35,1445.4 1508.86,1445.39 1509.37,1445.37 1509.88,1445.36 1510.39,1445.45 1510.9,1445.51 1511.41,1445.46 1511.93,1445.43 1512.44,1445.33 1512.95,1445.24 1513.46,1445.22 1513.97,1445.21 1514.48,1445.34 1514.99,1445.43 1515.51,1445.43 1516.02,1445.42 1516.53,1445.47 1517.04,1445.51 1517.55,1445.46 1518.06,1445.4 1518.57,1445.35 1519.09,1445.31 1519.6,1445.34 1520.11,1445.37 1520.62,1445.36 1521.13,1445.36 1521.64,1445.46 1522.15,1445.53 1522.67,1445.49 1523.18,1445.46 1523.69,1445.46 1524.2,1445.45 1524.71,1445.39 1525.22,1445.33 1525.73,1445.34 1526.25,1445.34 1526.76,1445.42 1527.27,1445.47 1527.78,1445.44 1528.29,1445.41 1528.8,1445.38 1529.31,1445.36 1529.83,1445.41 1530.34,1445.45 1530.85,1445.55 1531.36,1445.62 1531.87,1445.62 1532.38,1445.62 1532.9,1445.54 1533.41,1445.46 1533.92,1445.48 1534.43,1445.5 1534.94,1445.47 1535.45,1445.45 1535.96,1445.47 1536.48,1445.5 1536.99,1445.5 1537.5,1445.5 1538.01,1445.53 1538.52,1445.55 1539.03,1445.55 1539.54,1445.55 1540.06,1445.57 1540.57,1445.58 1541.08,1445.59 1541.59,1445.59 1542.1,1445.55 1542.61,1445.5 1543.12,1445.5 1543.64,1445.51 1544.15,1445.45 1544.66,1445.4 1545.17,1445.43 1545.68,1445.44 1546.19,1445.42 1546.7,1445.41 1547.22,1445.43 1547.73,1445.45 1548.24,1445.42 1548.75,1445.39 1549.26,1445.43 1549.77,1445.46 1550.28,1445.5 1550.8,1445.52 1551.31,1445.42 1551.82,1445.28 1552.33,1445.3 1552.84,1445.31 1553.35,1445.18 1553.86,1445.05 1554.38,1445.03 1554.89,1445.02 1555.4,1445.08 1555.91,1445.12 1556.42,1445.14 1556.93,1445.15 1557.44,1445.2 1557.96,1445.23 1558.47,1445.22 1558.98,1445.21 1559.49,1445.16 1560,1445.1 1560.51,1445.15 1561.03,1445.19 1561.54,1445.31 1562.05,1445.4 1562.56,1445.45 1563.07,1445.49 1563.58,1445.45 1564.09,1445.41 1564.61,1445.43 1565.12,1445.45 1565.63,1445.4 1566.14,1445.36 1566.65,1445.37 1567.16,1445.37 1567.67,1445.37 1568.19,1445.36 1568.7,1445.33 1569.21,1445.31 1569.72,1445.21 1570.23,1445.11 1570.74,1445.16 1571.25,1445.18 1571.77,1445.24 1572.28,1445.28 1572.79,1445.32 1573.3,1445.34 1573.81,1445.35 1574.32,1445.36 1574.83,1445.41 1575.35,1445.45 1575.86,1445.41 1576.37,1445.36 1576.88,1445.3 1577.39,1445.26 1577.9,1445.28 1578.41,1445.29 1578.93,1445.33 1579.44,1445.36 1579.95,1445.33 1580.46,1445.3 1580.97,1445.24 1581.48,1445.19 1581.99,1445.23 1582.51,1445.25 1583.02,1445.27 1583.53,1445.28 1584.04,1445.28 1584.55,1445.28 1585.06,1445.27 1585.57,1445.24 1586.09,1445.23 1586.6,1445.22 1587.11,1445.26 1587.62,1445.28 1588.13,1445.29 1588.64,1445.29 1589.15,1445.31 1589.67,1445.33 1590.18,1445.34 1590.69,1445.36 1591.2,1445.37 1591.71,1445.37 1592.22,1445.38 1592.74,1445.38 1593.25,1445.35 1593.76,1445.33 1594.27,1445.33 1594.78,1445.32 1595.29,1445.27 1595.8,1445.21 1596.32,1445.27 1596.83,1445.3 1597.34,1445.28 1597.85,1445.27 1598.36,1445.27 1598.87,1445.26 1599.38,1445.3 1599.9,1445.33 1600.41,1445.28 1600.92,1445.25 1601.43,1445.31 1601.94,1445.35 1602.45,1445.29 1602.96,1445.23 1603.48,1445.33 1603.99,1445.4 1604.5,1445.46 1605.01,1445.51 1605.52,1445.5 1606.03,1445.49 1606.54,1445.5 1607.06,1445.51 1607.57,1445.48 1608.08,1445.45 1608.59,1445.43 1609.1,1445.41 1609.61,1445.36 1610.12,1445.32 1610.64,1445.34 1611.15,1445.35 1611.66,1445.3 1612.17,1445.26 1612.68,1445.31 1613.19,1445.34 1613.7,1445.28 1614.22,1445.22 1614.73,1445.32 1615.24,1445.38 1615.75,1445.32 1616.26,1445.27 1616.77,1445.31 1617.28,1445.35 1617.8,1445.35 1618.31,1445.35 1618.82,1445.32 1619.33,1445.29 1619.84,1445.34 1620.35,1445.38 1620.87,1445.39 1621.38,1445.39 1621.89,1445.42 1622.4,1445.44 1622.91,1445.4 1623.42,1445.36 1623.93,1445.37 1624.45,1445.38 1624.96,1445.39 1625.47,1445.4 1625.98,1445.31 1626.49,1445.24 1627,1445.21 1627.51,1445.19 1628.03,1445.3 1628.54,1445.38 1629.05,1445.42 1629.56,1445.45 1630.07,1445.41 1630.58,1445.37 1631.09,1445.43 1631.61,1445.48 1632.12,1445.45 1632.63,1445.41 1633.14,1445.39 1633.65,1445.38 1634.16,1445.42 1634.67,1445.45 1635.19,1445.44 1635.7,1445.42 1636.21,1445.4 1636.72,1445.37 1637.23,1445.41 1637.74,1445.45 1638.25,1445.4 1638.77,1445.35 1639.28,1445.39 1639.79,1445.4 1640.3,1445.41 1640.81,1445.41 1641.32,1445.34 1641.83,1445.27 1642.35,1445.27 1642.86,1445.27 1643.37,1445.37 1643.88,1445.44 1644.39,1445.45 1644.9,1445.45 1645.41,1445.42 1645.93,1445.4 1646.44,1445.4 1646.95,1445.41 1647.46,1445.4 1647.97,1445.39 1648.48,1445.38 1649,1445.36 1649.51,1445.35 1650.02,1445.34 1650.53,1445.31 1651.04,1445.27 1651.55,1445.28 1652.06,1445.29 1652.58,1445.36 1653.09,1445.42 1653.6,1445.42 1654.11,1445.43 1654.62,1445.49 1655.13,1445.53 1655.64,1445.5 1656.16,1445.47 1656.67,1445.38 1657.18,1445.3 1657.69,1445.29 1658.2,1445.28 1658.71,1445.23 1659.22,1445.19 1659.74,1445.29 1660.25,1445.35 1660.76,1445.4 1661.27,1445.43 1661.78,1445.44 1662.29,1445.45 1662.8,1445.47 1663.32,1445.47 1663.83,1445.46 1664.34,1445.45 1664.85,1445.46 1665.36,1445.47 1665.87,1445.45 1666.38,1445.43 1666.9,1445.4 1667.41,1445.37 1667.92,1445.44 1668.43,1445.48 1668.94,1445.44 1669.45,1445.41 1669.96,1445.41 1670.48,1445.41 1670.99,1445.41 1671.5,1445.4 1672.01,1445.43 1672.52,1445.45 1673.03,1445.45 1673.54,1445.43 1674.06,1445.46 1674.57,1445.48 1675.08,1445.43 1675.59,1445.4 1676.1,1445.31 1676.61,1445.24 1677.13,1445.29 1677.64,1445.32 1678.15,1445.37 1678.66,1445.38 1679.17,1445.3 1679.68,1445.23 1680.19,1445.2 1680.71,1445.18 1681.22,1445.1 1681.73,1445.02 1682.24,1444.95 1682.75,1444.9 1683.26,1445.06 1683.77,1445.18 1684.29,1445.26 1684.8,1445.31 1685.31,1445.35 1685.82,1445.39 1686.33,1445.36 1686.84,1445.33 1687.35,1445.36 1687.87,1445.38 1688.38,1445.4 1688.89,1445.41 1689.4,1445.38 1689.91,1445.35 1690.42,1445.36 1690.93,1445.37 1691.45,1445.36 1691.96,1445.35 1692.47,1445.37 1692.98,1445.38 1693.49,1445.42 1694,1445.45 1694.51,1445.42 1695.03,1445.38 1695.54,1445.41 1696.05,1445.43 1696.56,1445.42 1697.07,1445.42 1697.58,1445.42 1698.09,1445.42 1698.61,1445.41 1699.12,1445.4 1699.63,1445.37 1700.14,1445.34 1700.65,1445.41 1701.16,1445.45 1701.67,1445.45 1702.19,1445.45 1702.7,1445.37 1703.21,1445.29 1703.72,1445.29 1704.23,1445.29 1704.74,1445.3 1705.26,1445.31 1705.77,1445.34 1706.28,1445.37 1706.79,1445.34 1707.3,1445.31 1707.81,1445.36 1708.32,1445.4 1708.84,1445.38 1709.35,1445.36 1709.86,1445.33 1710.37,1445.29 1710.88,1445.27 1711.39,1445.25 1711.9,1445.31 1712.42,1445.34 1712.93,1445.37 1713.44,1445.39 1713.95,1445.31 1714.46,1445.24 1714.97,1445.29 1715.48,1445.33 1716,1445.35 1716.51,1445.37 1717.02,1445.37 1717.53,1445.37 1718.04,1445.31 1718.55,1445.25 1719.06,1445.28 1719.58,1445.3 1720.09,1445.35 1720.6,1445.38 1721.11,1445.44 1721.62,1445.49 1722.13,1445.48 1722.64,1445.47 1723.16,1445.46 1723.67,1445.46 1724.18,1445.38 1724.69,1445.28 1725.2,1445.3 1725.71,1445.31 1726.22,1445.33 1726.74,1445.33 1727.25,1445.28 1727.76,1445.24 1728.27,1445.3 1728.78,1445.34 1729.29,1445.31 1729.8,1445.29 1730.32,1445.3 1730.83,1445.3 1731.34,1445.37 1731.85,1445.41 1732.36,1445.36 1732.87,1445.32 1733.39,1445.29 1733.9,1445.25 1734.41,1445.26 1734.92,1445.26 1735.43,1445.3 1735.94,1445.32 1736.45,1445.37 1736.97,1445.4 1737.48,1445.4 1737.99,1445.4 1738.5,1445.27 1739.01,1445.15 1739.52,1445.2 1740.03,1445.23 1740.55,1445.33 1741.06,1445.4 1741.57,1445.39 1742.08,1445.38 1742.59,1445.39 1743.1,1445.4 1743.61,1445.38 1744.13,1445.37 1744.64,1445.39 1745.15,1445.4 1745.66,1445.35 1746.17,1445.3 1746.68,1445.33 1747.19,1445.34 1747.71,1445.38 1748.22,1445.41 1748.73,1445.36 1749.24,1445.32 1749.75,1445.39 1750.26,1445.44 1750.77,1445.43 1751.29,1445.43 1751.8,1445.45 1752.31,1445.46 1752.82,1445.43 1753.33,1445.4 1753.84,1445.4 1754.35,1445.4 1754.87,1445.44 1755.38,1445.47 1755.89,1445.4 1756.4,1445.33 1756.91,1445.37 1757.42,1445.41 1757.93,1445.4 1758.45,1445.38 1758.96,1445.41 1759.47,1445.42 1759.98,1445.39 1760.49,1445.36 1761,1445.34 1761.52,1445.33 1762.03,1445.36 1762.54,1445.39 1763.05,1445.38 1763.56,1445.38 1764.07,1445.34 1764.58,1445.3 1765.1,1445.3 1765.61,1445.29 1766.12,1445.32 1766.63,1445.33 1767.14,1445.37 1767.65,1445.4 1768.16,1445.41 1768.68,1445.4 1769.19,1445.45 1769.7,1445.49 1770.21,1445.5 1770.72,1445.5 1771.23,1445.42 1771.74,1445.33 1772.26,1445.38 1772.77,1445.42 1773.28,1445.43 1773.79,1445.44 1774.3,1445.39 1774.81,1445.35 1775.32,1445.38 1775.84,1445.4 1776.35,1445.42 1776.86,1445.43 1777.37,1445.38 1777.88,1445.33 1778.39,1445.37 1778.9,1445.4 1779.42,1445.41 1779.93,1445.42 1780.44,1445.4 1780.95,1445.38 1781.46,1445.39 1781.97,1445.39 1782.48,1445.36 1783,1445.32 1783.51,1445.32 1784.02,1445.31 1784.53,1445.31 1785.04,1445.31 1785.55,1445.36 1786.06,1445.39 1786.58,1445.37 1787.09,1445.35 1787.6,1445.38 1788.11,1445.41 1788.62,1445.43 1789.13,1445.45 1789.64,1445.43 1790.16,1445.41 1790.67,1445.35 1791.18,1445.3 1791.69,1445.37 1792.2,1445.43 1792.71,1445.47 1793.23,1445.5 1793.74,1445.42 1794.25,1445.34 1794.76,1445.32 1795.27,1445.31 1795.78,1445.32 1796.29,1445.33 1796.81,1445.33 1797.32,1445.31 1797.83,1445.3 1798.34,1445.29 1798.85,1445.17 1799.36,1445.06 1799.87,1445.11 1800.39,1445.14 1800.9,1445.09 1801.41,1445.03 1801.92,1445.04 1802.43,1445.05 1802.94,1445.2 1803.45,1445.31 1803.97,1445.25 1804.48,1445.19 1804.99,1445.21 1805.5,1445.22 1806.01,1445.2 1806.52,1445.19 1807.03,1445.14 1807.55,1445.11 1808.06,1445.14 1808.57,1445.16 1809.08,1445.2 1809.59,1445.23 1810.1,1445.15 1810.61,1445.07 1811.13,1445.09 1811.64,1445.11 1812.15,1445.12 1812.66,1445.13 1813.17,1445.18 1813.68,1445.23 1814.19,1445.24 1814.71,1445.25 1815.22,1445.26 1815.73,1445.26 1816.24,1445.27 1816.75,1445.28 1817.26,1445.26 1817.77,1445.23 1818.29,1445.3 1818.8,1445.34 1819.31,1445.41 1819.82,1445.45 1820.33,1445.44 1820.84,1445.44 1821.36,1445.4 1821.87,1445.36 1822.38,1445.36 1822.89,1445.36 1823.4,1445.3 1823.91,1445.25 1824.42,1445.27 1824.94,1445.27 1825.45,1445.27 1825.96,1445.26 1826.47,1445.33 1826.98,1445.38 1827.49,1445.3 1828,1445.23 1828.52,1445.34 1829.03,1445.42 1829.54,1445.39 1830.05,1445.36 1830.56,1445.33 1831.07,1445.31 1831.58,1445.25 1832.1,1445.19 1832.61,1445.21 1833.12,1445.23 1833.63,1445.34 1834.14,1445.41 1834.65,1445.42 1835.16,1445.42 1835.68,1445.46 1836.19,1445.49 1836.7,1445.47 1837.21,1445.46 1837.72,1445.41 1838.23,1445.36 1838.74,1445.4 1839.26,1445.43 1839.77,1445.4 1840.28,1445.37 1840.79,1445.38 1841.3,1445.39 1841.81,1445.36 1842.32,1445.33 1842.84,1445.28 1843.35,1445.23 1843.86,1445.27 1844.37,1445.3 1844.88,1445.39 1845.39,1445.46 1845.9,1445.49 1846.42,1445.51 1846.93,1445.41 1847.44,1445.33 1847.95,1445.3 1848.46,1445.28 1848.97,1445.21 1849.49,1445.14 1850,1445.12 1850.51,1445.09 1851.02,1445.13 1851.53,1445.15 1852.04,1445.22 1852.55,1445.27 1853.07,1445.28 1853.58,1445.28 1854.09,1445.36 1854.6,1445.41 1855.11,1445.41 1855.62,1445.4 1856.13,1445.36 1856.65,1445.32 1857.16,1445.25 1857.67,1445.19 1858.18,1445.26 1858.69,1445.32 1859.2,1445.34 1859.71,1445.34 1860.23,1445.37 1860.74,1445.4 1861.25,1445.3 1861.76,1445.21 1862.27,1445.19 1862.78,1445.18 1863.29,1445.21 1863.81,1445.24 1864.32,1445.27 1864.83,1445.29 1865.34,1445.33 1865.85,1445.37 1866.36,1445.35 1866.87,1445.33 1867.39,1445.29 1867.9,1445.25 1868.41,1445.33 1868.92,1445.38 1869.43,1445.35 1869.94,1445.32 1870.45,1445.33 1870.97,1445.33 1871.48,1445.27 1871.99,1445.2 1872.5,1445.16 1873.01,1445.13 1873.52,1445.21 1874.03,1445.27 1874.55,1445.23 1875.06,1445.19 1875.57,1445.25 1876.08,1445.3 1876.59,1445.2 1877.1,1445.1 1877.62,1445.08 1878.13,1445.07 1878.64,1445.17 1879.15,1445.25 1879.66,1445.23 1880.17,1445.22 1880.68,1445.26 1881.2,1445.28 1881.71,1445.28 1882.22,1445.28 1882.73,1445.36 1883.24,1445.42 1883.75,1445.41 1884.26,1445.4 1884.78,1445.48 1885.29,1445.54 1885.8,1445.51 1886.31,1445.48 1886.82,1445.47 1887.33,1445.45 1887.84,1445.44 1888.36,1445.42 1888.87,1445.41 1889.38,1445.39 1889.89,1445.39 1890.4,1445.39 1890.91,1445.42 1891.42,1445.44 1891.94,1445.44 1892.45,1445.43 1892.96,1445.4 1893.47,1445.37 1893.98,1445.4 1894.49,1445.42 1895,1445.48 1895.52,1445.53 1896.03,1445.5 1896.54,1445.48 1897.05,1445.5 1897.56,1445.51 1898.07,1445.49 1898.58,1445.47 1899.1,1445.46 1899.61,1445.44 1900.12,1445.48 1900.63,1445.5 1901.14,1445.47 1901.65,1445.45 1902.16,1445.45 1902.68,1445.45 1903.19,1445.4 1903.7,1445.36 1904.21,1445.34 1904.72,1445.33 1905.23,1445.31 1905.75,1445.29 1906.26,1445.35 1906.77,1445.4 1907.28,1445.36 1907.79,1445.33 1908.3,1445.35 1908.81,1445.37 1909.33,1445.38 1909.84,1445.39 1910.35,1445.41 1910.86,1445.42 1911.37,1445.41 1911.88,1445.39 1912.39,1445.4 1912.91,1445.4 1913.42,1445.41 1913.93,1445.42 1914.44,1445.44 1914.95,1445.46 1915.46,1445.37 1915.97,1445.25 1916.49,1445.22 1917,1445.18 1917.51,1445.22 1918.02,1445.26 1918.53,1445.23 1919.04,1445.2 1919.55,1445.28 1920.07,1445.34 1920.58,1445.32 1921.09,1445.31 1921.6,1445.31 1922.11,1445.31 1922.62,1445.31 1923.13,1445.3 1923.65,1445.31 1924.16,1445.31 1924.67,1445.3 1925.18,1445.28 1925.69,1445.24 1926.2,1445.19 1926.71,1445.3 1927.23,1445.38 1927.74,1445.37 1928.25,1445.37 1928.76,1445.41 1929.27,1445.45 1929.78,1445.38 1930.29,1445.32 1930.81,1445.33 1931.32,1445.33 1931.83,1445.23 1932.34,1445.14 1932.85,1445.21 1933.36,1445.27 1933.88,1445.32 1934.39,1445.36 1934.9,1445.41 1935.41,1445.45 1935.92,1445.46 1936.43,1445.46 1936.94,1445.49 1937.46,1445.52 1937.97,1445.51 1938.48,1445.49 1938.99,1445.43 1939.5,1445.38 1940.01,1445.36 1940.52,1445.35 1941.04,1445.45 1941.55,1445.52 1942.06,1445.46 1942.57,1445.41 1943.08,1445.37 1943.59,1445.33 1944.1,1445.36 1944.62,1445.38 1945.13,1445.47 1945.64,1445.53 1946.15,1445.53 1946.66,1445.53 1947.17,1445.5 1947.68,1445.47 1948.2,1445.42 1948.71,1445.37 1949.22,1445.41 1949.73,1445.44 1950.24,1445.41 1950.75,1445.38 1951.26,1445.42 1951.78,1445.45 1952.29,1445.4 1952.8,1445.34 1953.31,1445.39 1953.82,1445.42 1954.33,1445.45 1954.84,1445.47 1955.36,1445.47 1955.87,1445.46 1956.38,1445.39 1956.89,1445.33 1957.4,1445.26 1957.91,1445.21 1958.42,1445.29 1958.94,1445.35 1959.45,1445.41 1959.96,1445.45 1960.47,1445.39 1960.98,1445.35 1961.49,1445.35 1962.01,1445.34 1962.52,1445.32 1963.03,1445.3 1963.54,1445.27 1964.05,1445.25 1964.56,1445.29 1965.07,1445.31 1965.59,1445.34 1966.1,1445.36 1966.61,1445.34 1967.12,1445.31 1967.63,1445.37 1968.14,1445.41 1968.65,1445.39 1969.17,1445.38 1969.68,1445.42 1970.19,1445.45 1970.7,1445.49 1971.21,1445.52 1971.72,1445.51 1972.23,1445.5 1972.75,1445.47 1973.26,1445.44 1973.77,1445.42 1974.28,1445.39 1974.79,1445.4 1975.3,1445.4 1975.81,1445.41 1976.33,1445.41 1976.84,1445.39 1977.35,1445.36 1977.86,1445.43 1978.37,1445.47 1978.88,1445.44 1979.39,1445.42 1979.91,1445.39 1980.42,1445.36 1980.93,1445.38 1981.44,1445.39 1981.95,1445.41 1982.46,1445.42 1982.97,1445.41 1983.49,1445.4 1984,1445.37 1984.51,1445.33 1985.02,1445.29 1985.53,1445.25 1986.04,1445.26 1986.55,1445.26 1987.07,1445.24 1987.58,1445.23 1988.09,1445.14 1988.6,1445.05 1989.11,1445.05 1989.62,1445.05 1990.13,1445.14 1990.65,1445.21 1991.16,1445.25 1991.67,1445.28 1992.18,1445.28 1992.69,1445.26 1993.2,1445.25 1993.72,1445.24 1994.23,1445.21 1994.74,1445.19 1995.25,1445.26 1995.76,1445.32 1996.27,1445.27 1996.78,1445.21 1997.3,1445.18 1997.81,1445.15 1998.32,1445.23 1998.83,1445.29 1999.34,1445.33 1999.85,1445.35 2000.36,1445.36 2000.88,1445.37 2001.39,1445.37 2001.9,1445.37 2002.41,1445.32 2002.92,1445.27 2003.43,1445.13 2003.94,1444.98 2004.46,1445.1 2004.97,1445.18 2005.48,1445.27 2005.99,1445.34 2006.5,1445.35 2007.01,1445.36 2007.52,1445.4 2008.04,1445.43 2008.55,1445.44 2009.06,1445.45 2009.57,1445.38 2010.08,1445.33 2010.59,1445.35 2011.1,1445.36 2011.62,1445.38 2012.13,1445.4 2012.64,1445.42 2013.15,1445.44 2013.66,1445.39 2014.17,1445.34 2014.68,1445.32 2015.2,1445.31 2015.71,1445.37 2016.22,1445.42 2016.73,1445.4 2017.24,1445.39 2017.75,1445.44 2018.26,1445.49 2018.78,1445.46 2019.29,1445.44 2019.8,1445.45 2020.31,1445.46 2020.82,1445.47 2021.33,1445.46 2021.85,1445.41 2022.36,1445.36 2022.87,1445.39 2023.38,1445.42 2023.89,1445.5 2024.4,1445.55 2024.91,1445.54 2025.43,1445.54 2025.94,1445.5 2026.45,1445.46 2026.96,1445.41 2027.47,1445.37 2027.98,1445.34 2028.49,1445.31 2029.01,1445.37 2029.52,1445.41 2030.03,1445.41 2030.54,1445.41 2031.05,1445.44 2031.56,1445.46 2032.07,1445.43 2032.59,1445.39 2033.1,1445.35 2033.61,1445.32 2034.12,1445.29 2034.63,1445.26 2035.14,1445.33 2035.65,1445.38 2036.17,1445.43 2036.68,1445.47 2037.19,1445.39 2037.7,1445.32 2038.21,1445.41 2038.72,1445.47 2039.23,1445.47 2039.75,1445.46 2040.26,1445.43 2040.77,1445.41 2041.28,1445.39 2041.79,1445.38 2042.3,1445.4 2042.81,1445.43 2043.33,1445.41 2043.84,1445.4 2044.35,1445.42 2044.86,1445.44 2045.37,1445.42 2045.88,1445.41 2046.39,1445.34 2046.91,1445.28 2047.42,1445.3 2047.93,1445.31 2048.44,1445.38 2048.95,1445.43 2049.46,1445.31 2049.98,1445.18 2050.49,1445.2 2051,1445.21 2051.51,1445.26 2052.02,1445.3 2052.53,1445.35 2053.04,1445.39 2053.56,1445.35 2054.07,1445.31 2054.58,1445.31 2055.09,1445.32 2055.6,1445.27 2056.11,1445.22 2056.62,1445.28 2057.14,1445.33 2057.65,1445.38 2058.16,1445.42 2058.67,1445.44 2059.18,1445.46 2059.69,1445.52 2060.2,1445.56 2060.72,1445.53 2061.23,1445.51 2061.74,1445.44 2062.25,1445.38 2062.76,1445.4 2063.27,1445.41 2063.78,1445.47 2064.3,1445.51 2064.81,1445.48 2065.32,1445.44 2065.83,1445.36 2066.34,1445.28 2066.85,1445.32 2067.36,1445.34 2067.88,1445.32 2068.39,1445.3 2068.9,1445.32 2069.41,1445.32 2069.92,1445.3 2070.43,1445.27 2070.94,1445.27 2071.46,1445.27 2071.97,1445.24 2072.48,1445.21 2072.99,1445.29 2073.5,1445.35 2074.01,1445.38 2074.52,1445.39 2075.04,1445.34 2075.55,1445.28 2076.06,1445.32 2076.57,1445.34 2077.08,1445.33 2077.59,1445.32 2078.11,1445.28 2078.62,1445.24 2079.13,1445.28 2079.64,1445.31 2080.15,1445.34 2080.66,1445.36 2081.17,1445.39 2081.69,1445.42 2082.2,1445.42 2082.71,1445.42 2083.22,1445.42 2083.73,1445.41 2084.24,1445.42 2084.75,1445.42 2085.27,1445.39 2085.78,1445.37 2086.29,1445.34 2086.8,1445.31 2087.31,1445.39 2087.82,1445.45 2088.33,1445.4 2088.85,1445.36 2089.36,1445.37 2089.87,1445.39 2090.38,1445.39 2090.89,1445.39 2091.4,1445.4 2091.91,1445.4 2092.43,1445.3 2092.94,1445.2 2093.45,1445.25 2093.96,1445.29 2094.47,1445.18 2094.98,1445.08 2095.49,1445.14 2096.01,1445.19 2096.52,1445.21 2097.03,1445.23 2097.54,1445.06 2098.05,1444.9 2098.56,1444.9 2099.07,1444.9 2099.59,1445.03 2100.1,1445.12 2100.61,1445.23 2101.12,1445.31 2101.63,1445.22 2102.14,1445.15 2102.65,1445.23 2103.17,1445.29 2103.68,1445.3 2104.19,1445.31 2104.7,1445.31 2105.21,1445.31 2105.72,1445.33 2106.24,1445.35 2106.75,1445.39 2107.26,1445.42 2107.77,1445.35 2108.28,1445.27 2108.79,1445.17 2109.3,1445.05 2109.82,1445.19 2110.33,1445.29 2110.84,1445.33 2111.35,1445.36 2111.86,1445.39 2112.37,1445.41 2112.88,1445.36 2113.4,1445.32 2113.91,1445.37 2114.42,1445.41 2114.93,1445.44 2115.44,1445.47 2115.95,1445.39 2116.46,1445.31 2116.98,1445.27 2117.49,1445.23 2118,1445.22 2118.51,1445.22 2119.02,1445.24 2119.53,1445.25 2120.04,1445.28 2120.56,1445.3 2121.07,1445.35 2121.58,1445.38 2122.09,1445.39 2122.6,1445.39 2123.11,1445.41 2123.62,1445.42 2124.14,1445.35 2124.65,1445.28 2125.16,1445.26 2125.67,1445.23 2126.18,1445.22 2126.69,1445.21 2127.2,1445.2 2127.72,1445.19 2128.23,1445.18 2128.74,1445.18 2129.25,1445.25 2129.76,1445.31 2130.27,1445.34 2130.78,1445.37 2131.3,1445.3 2131.81,1445.24 2132.32,1445.27 2132.83,1445.29 2133.34,1445.3 2133.85,1445.29 2134.37,1445.29 2134.88,1445.29 2135.39,1445.34 2135.9,1445.37 2136.41,1445.34 2136.92,1445.3 2137.43,1445.22 2137.95,1445.14 2138.46,1445.14 2138.97,1445.14 2139.48,1445.2 2139.99,1445.25 2140.5,1445.16 2141.01,1445.08 2141.53,1445.13 2142.04,1445.18 2142.55,1445.12 2143.06,1445.07 2143.57,1445.1 2144.08,1445.13 2144.59,1445.2 2145.11,1445.25 2145.62,1445.27 2146.13,1445.29 2146.64,1445.3 2147.15,1445.31 2147.66,1445.29 2148.17,1445.26 2148.69,1445.23 2149.2,1445.21 2149.71,1445.29 2150.22,1445.34 2150.73,1445.3 2151.24,1445.26 2151.75,1445.32 2152.27,1445.36 2152.78,1445.36 2153.29,1445.35 2153.8,1445.33 2154.31,1445.31 2154.82,1445.44 2155.33,1445.53 2155.85,1445.48 2156.36,1445.44 2156.87,1445.37 2157.38,1445.3 2157.89,1445.32 2158.4,1445.33 2158.91,1445.35 2159.43,1445.36 2159.94,1445.33 2160.45,1445.28 2160.96,1445.32 2161.47,1445.36 2161.98,1445.37 2162.49,1445.38 2163.01,1445.4 2163.52,1445.41 2164.03,1445.36 2164.54,1445.31 2165.05,1445.27 2165.56,1445.24 2166.08,1445.32 2166.59,1445.39 2167.1,1445.41 2167.61,1445.41 2168.12,1445.46 2168.63,1445.5 2169.14,1445.51 2169.66,1445.52 2170.17,1445.51 2170.68,1445.51 2171.19,1445.47 2171.7,1445.41 2172.21,1445.31 2172.72,1445.22 2173.24,1445.15 2173.75,1445.1 2174.26,1445.17 2174.77,1445.23 2175.28,1445.25 2175.79,1445.26 2176.3,1445.25 2176.82,1445.23 2177.33,1445.24 2177.84,1445.24 2178.35,1445.19 2178.86,1445.14 2179.37,1445.14 2179.88,1445.14 2180.4,1445.23 2180.91,1445.3 2181.42,1445.33 2181.93,1445.34 2182.44,1445.35 2182.95,1445.36 2183.46,1445.28 2183.98,1445.22 2184.49,1445.27 2185,1445.31 2185.51,1445.29 2186.02,1445.27 2186.53,1445.24 2187.04,1445.22 2187.56,1445.24 2188.07,1445.26 2188.58,1445.37 2189.09,1445.44 2189.6,1445.44 2190.11,1445.44 2190.62,1445.48 2191.14,1445.51 2191.65,1445.52 2192.16,1445.53 2192.67,1445.52 2193.18,1445.51 2193.69,1445.48 2194.21,1445.46 2194.72,1445.44 2195.23,1445.42 2195.74,1445.46 2196.25,1445.48 2196.76,1445.42 2197.27,1445.37 2197.79,1445.33 2198.3,1445.3 2198.81,1445.27 2199.32,1445.24 2199.83,1445.17 2200.34,1445.11 2200.85,1445.2 2201.37,1445.26 2201.88,1445.26 2202.39,1445.25 2202.9,1445.27 2203.41,1445.28 2203.92,1445.25 2204.43,1445.23 2204.95,1445.21 2205.46,1445.2 2205.97,1445.22 2206.48,1445.23 2206.99,1445.28 2207.5,1445.32 2208.01,1445.34 2208.53,1445.35 2209.04,1445.41 2209.55,1445.46 2210.06,1445.41 2210.57,1445.36 2211.08,1445.36 2211.59,1445.36 2212.11,1445.31 2212.62,1445.26 2213.13,1445.32 2213.64,1445.36 2214.15,1445.37 2214.66,1445.37 2215.17,1445.32 2215.69,1445.27 2216.2,1445.32 2216.71,1445.36 2217.22,1445.4 2217.73,1445.43 2218.24,1445.38 2218.75,1445.33 2219.27,1445.36 2219.78,1445.38 2220.29,1445.4 2220.8,1445.41 2221.31,1445.43 2221.82,1445.45 2222.34,1445.44 2222.85,1445.43 2223.36,1445.46 2223.87,1445.48 2224.38,1445.38 2224.89,1445.29 2225.4,1445.28 2225.92,1445.26 2226.43,1445.29 2226.94,1445.3 2227.45,1445.29 2227.96,1445.27 2228.47,1445.24 2228.98,1445.21 2229.5,1445.21 2230.01,1445.22 2230.52,1445.18 2231.03,1445.14 2231.54,1445.28 2232.05,1445.38 2232.56,1445.38 2233.08,1445.37 2233.59,1445.37 2234.1,1445.37 2234.61,1445.34 2235.12,1445.32 2235.63,1445.36 2236.14,1445.38 2236.66,1445.42 2237.17,1445.44 2237.68,1445.43 2238.19,1445.42 2238.7,1445.35 2239.21,1445.28 2239.72,1445.24 2240.24,1445.21 2240.75,1445.3 2241.26,1445.36 2241.77,1445.3 2242.28,1445.24 2242.79,1445.27 2243.3,1445.28 2243.82,1445.33 2244.33,1445.36 2244.84,1445.24 2245.35,1445.11 2245.86,1445.17 2246.37,1445.21 2246.88,1445.28 2247.4,1445.32 2247.91,1445.31 2248.42,1445.3 2248.93,1445.32 2249.44,1445.34 2249.95,1445.35 2250.47,1445.36 2250.98,1445.31 2251.49,1445.28 2252,1445.36 2252.51,1445.42 2253.02,1445.39 2253.53,1445.35 2254.05,1445.47 2254.56,1445.55 2255.07,1445.55 2255.58,1445.54 2256.09,1445.49 2256.6,1445.45 2257.11,1445.47 2257.63,1445.48 2258.14,1445.44 2258.65,1445.41 2259.16,1445.41 2259.67,1445.41 2260.18,1445.37 2260.69,1445.34 2261.21,1445.28 2261.72,1445.23 2262.23,1445.29 2262.74,1445.33 2263.25,1445.28 2263.76,1445.24 2264.27,1445.3 2264.79,1445.34 2265.3,1445.39 2265.81,1445.43 2266.32,1445.44 2266.83,1445.46 2267.34,1445.43 2267.85,1445.41 2268.37,1445.41 2268.88,1445.41 2269.39,1445.34 2269.9,1445.27 2270.41,1445.36 2270.92,1445.43 2271.43,1445.4 2271.95,1445.38 2272.46,1445.39 2272.97,1445.4 2273.48,1445.33 2273.99,1445.26 2274.5,1445.28 2275.01,1445.3 2275.53,1445.31 2276.04,1445.32 2276.55,1445.35 2277.06,1445.37 2277.57,1445.33 2278.08,1445.29 2278.6,1445.27 2279.11,1445.25 2279.62,1445.25 2280.13,1445.26 2280.64,1445.24 2281.15,1445.21 2281.66,1445.31 2282.18,1445.38 2282.69,1445.35 2283.2,1445.33 2283.71,1445.37 2284.22,1445.39 2284.73,1445.31 2285.24,1445.24 2285.76,1445.28 2286.27,1445.3 2286.78,1445.32 2287.29,1445.34 2287.8,1445.27 2288.31,1445.22 2288.82,1445.26 2289.34,1445.3 2289.85,1445.3 2290.36,1445.31 2290.87,1445.33 2291.38,1445.34 "/>
<path clip-path="url(#clip800)" d="M2011.18 198.898 L2280.47 198.898 L2280.47 95.2176 L2011.18 95.2176  Z" fill="#ffffff" fill-rule="evenodd" fill-opacity="1"/>
<polyline clip-path="url(#clip800)" style="stroke:#000000; stroke-linecap:round; stroke-linejoin:round; stroke-width:4; stroke-opacity:1; fill:none" points="2011.18,198.898 2280.47,198.898 2280.47,95.2176 2011.18,95.2176 2011.18,198.898 "/>
<polyline clip-path="url(#clip800)" style="stroke:#009af9; stroke-linecap:round; stroke-linejoin:round; stroke-width:4; stroke-opacity:1; fill:none" points="2035.28,147.058 2179.85,147.058 "/>
<path clip-path="url(#clip800)" d="M2217.79 166.745 Q2215.98 171.375 2214.27 172.787 Q2212.56 174.199 2209.69 174.199 L2206.28 174.199 L2206.28 170.634 L2208.78 170.634 Q2210.54 170.634 2211.51 169.8 Q2212.49 168.967 2213.67 165.865 L2214.43 163.921 L2203.94 138.412 L2208.46 138.412 L2216.56 158.689 L2224.66 138.412 L2229.18 138.412 L2217.79 166.745 Z" fill="#000000" fill-rule="nonzero" fill-opacity="1" /><path clip-path="url(#clip800)" d="M2236.47 160.402 L2244.11 160.402 L2244.11 134.037 L2235.8 135.703 L2235.8 131.444 L2244.06 129.778 L2248.74 129.778 L2248.74 160.402 L2256.38 160.402 L2256.38 164.338 L2236.47 164.338 L2236.47 160.402 Z" fill="#000000" fill-rule="nonzero" fill-opacity="1" /></svg>
