<?xml version="1.0" encoding="utf-8"?>
<svg xmlns="http://www.w3.org/2000/svg" xmlns:xlink="http://www.w3.org/1999/xlink" width="600" height="400" viewBox="0 0 2400 1600">
<defs>
  <clipPath id="clip280">
    <rect x="0" y="0" width="2400" height="1600"/>
  </clipPath>
</defs>
<path clip-path="url(#clip280)" d="M0 1600 L2400 1600 L2400 0 L0 0  Z" fill="#ffffff" fill-rule="evenodd" fill-opacity="1"/>
<defs>
  <clipPath id="clip281">
    <rect x="480" y="0" width="1681" height="1600"/>
  </clipPath>
</defs>
<path clip-path="url(#clip280)" d="M307.593 1486.45 L2352.76 1486.45 L2352.76 47.2441 L307.593 47.2441  Z" fill="#ffffff" fill-rule="evenodd" fill-opacity="1"/>
<defs>
  <clipPath id="clip282">
    <rect x="307" y="47" width="2046" height="1440"/>
  </clipPath>
</defs>
<polyline clip-path="url(#clip282)" style="stroke:#000000; stroke-linecap:round; stroke-linejoin:round; stroke-width:2; stroke-opacity:0.1; fill:none" points="365.475,1486.45 365.475,47.2441 "/>
<polyline clip-path="url(#clip282)" style="stroke:#000000; stroke-linecap:round; stroke-linejoin:round; stroke-width:2; stroke-opacity:0.1; fill:none" points="847.825,1486.45 847.825,47.2441 "/>
<polyline clip-path="url(#clip282)" style="stroke:#000000; stroke-linecap:round; stroke-linejoin:round; stroke-width:2; stroke-opacity:0.1; fill:none" points="1330.17,1486.45 1330.17,47.2441 "/>
<polyline clip-path="url(#clip282)" style="stroke:#000000; stroke-linecap:round; stroke-linejoin:round; stroke-width:2; stroke-opacity:0.1; fill:none" points="1812.52,1486.45 1812.52,47.2441 "/>
<polyline clip-path="url(#clip282)" style="stroke:#000000; stroke-linecap:round; stroke-linejoin:round; stroke-width:2; stroke-opacity:0.1; fill:none" points="2294.87,1486.45 2294.87,47.2441 "/>
<polyline clip-path="url(#clip280)" style="stroke:#000000; stroke-linecap:round; stroke-linejoin:round; stroke-width:4; stroke-opacity:1; fill:none" points="307.593,1486.45 2352.76,1486.45 "/>
<polyline clip-path="url(#clip280)" style="stroke:#000000; stroke-linecap:round; stroke-linejoin:round; stroke-width:4; stroke-opacity:1; fill:none" points="365.475,1486.45 365.475,1467.55 "/>
<polyline clip-path="url(#clip280)" style="stroke:#000000; stroke-linecap:round; stroke-linejoin:round; stroke-width:4; stroke-opacity:1; fill:none" points="847.825,1486.45 847.825,1467.55 "/>
<polyline clip-path="url(#clip280)" style="stroke:#000000; stroke-linecap:round; stroke-linejoin:round; stroke-width:4; stroke-opacity:1; fill:none" points="1330.17,1486.45 1330.17,1467.55 "/>
<polyline clip-path="url(#clip280)" style="stroke:#000000; stroke-linecap:round; stroke-linejoin:round; stroke-width:4; stroke-opacity:1; fill:none" points="1812.52,1486.45 1812.52,1467.55 "/>
<polyline clip-path="url(#clip280)" style="stroke:#000000; stroke-linecap:round; stroke-linejoin:round; stroke-width:4; stroke-opacity:1; fill:none" points="2294.87,1486.45 2294.87,1467.55 "/>
<path clip-path="url(#clip280)" d="M365.475 1517.37 Q361.864 1517.37 360.035 1520.93 Q358.229 1524.47 358.229 1531.6 Q358.229 1538.71 360.035 1542.27 Q361.864 1545.82 365.475 1545.82 Q369.109 1545.82 370.915 1542.27 Q372.743 1538.71 372.743 1531.6 Q372.743 1524.47 370.915 1520.93 Q369.109 1517.37 365.475 1517.37 M365.475 1513.66 Q371.285 1513.66 374.34 1518.27 Q377.419 1522.85 377.419 1531.6 Q377.419 1540.33 374.34 1544.94 Q371.285 1549.52 365.475 1549.52 Q359.665 1549.52 356.586 1544.94 Q353.53 1540.33 353.53 1531.6 Q353.53 1522.85 356.586 1518.27 Q359.665 1513.66 365.475 1513.66 Z" fill="#000000" fill-rule="nonzero" fill-opacity="1" /><path clip-path="url(#clip280)" d="M807.443 1514.29 L825.799 1514.29 L825.799 1518.22 L811.725 1518.22 L811.725 1526.7 Q812.744 1526.35 813.762 1526.19 Q814.781 1526 815.799 1526 Q821.586 1526 824.966 1529.17 Q828.345 1532.34 828.345 1537.76 Q828.345 1543.34 824.873 1546.44 Q821.401 1549.52 815.082 1549.52 Q812.906 1549.52 810.637 1549.15 Q808.392 1548.78 805.985 1548.04 L805.985 1543.34 Q808.068 1544.47 810.29 1545.03 Q812.512 1545.58 814.989 1545.58 Q818.994 1545.58 821.332 1543.48 Q823.67 1541.37 823.67 1537.76 Q823.67 1534.15 821.332 1532.04 Q818.994 1529.94 814.989 1529.94 Q813.114 1529.94 811.239 1530.35 Q809.387 1530.77 807.443 1531.65 L807.443 1514.29 Z" fill="#000000" fill-rule="nonzero" fill-opacity="1" /><path clip-path="url(#clip280)" d="M847.558 1517.37 Q843.947 1517.37 842.119 1520.93 Q840.313 1524.47 840.313 1531.6 Q840.313 1538.71 842.119 1542.27 Q843.947 1545.82 847.558 1545.82 Q851.193 1545.82 852.998 1542.27 Q854.827 1538.71 854.827 1531.6 Q854.827 1524.47 852.998 1520.93 Q851.193 1517.37 847.558 1517.37 M847.558 1513.66 Q853.369 1513.66 856.424 1518.27 Q859.503 1522.85 859.503 1531.6 Q859.503 1540.33 856.424 1544.94 Q853.369 1549.52 847.558 1549.52 Q841.748 1549.52 838.67 1544.94 Q835.614 1540.33 835.614 1531.6 Q835.614 1522.85 838.67 1518.27 Q841.748 1513.66 847.558 1513.66 Z" fill="#000000" fill-rule="nonzero" fill-opacity="1" /><path clip-path="url(#clip280)" d="M877.72 1517.37 Q874.109 1517.37 872.28 1520.93 Q870.475 1524.47 870.475 1531.6 Q870.475 1538.71 872.28 1542.27 Q874.109 1545.82 877.72 1545.82 Q881.354 1545.82 883.16 1542.27 Q884.989 1538.71 884.989 1531.6 Q884.989 1524.47 883.16 1520.93 Q881.354 1517.37 877.72 1517.37 M877.72 1513.66 Q883.53 1513.66 886.586 1518.27 Q889.665 1522.85 889.665 1531.6 Q889.665 1540.33 886.586 1544.94 Q883.53 1549.52 877.72 1549.52 Q871.91 1549.52 868.831 1544.94 Q865.776 1540.33 865.776 1531.6 Q865.776 1522.85 868.831 1518.27 Q871.91 1513.66 877.72 1513.66 Z" fill="#000000" fill-rule="nonzero" fill-opacity="1" /><path clip-path="url(#clip280)" d="M1274.7 1544.91 L1282.34 1544.91 L1282.34 1518.55 L1274.03 1520.21 L1274.03 1515.95 L1282.29 1514.29 L1286.97 1514.29 L1286.97 1544.91 L1294.61 1544.91 L1294.61 1548.85 L1274.7 1548.85 L1274.7 1544.91 Z" fill="#000000" fill-rule="nonzero" fill-opacity="1" /><path clip-path="url(#clip280)" d="M1314.05 1517.37 Q1310.44 1517.37 1308.61 1520.93 Q1306.81 1524.47 1306.81 1531.6 Q1306.81 1538.71 1308.61 1542.27 Q1310.44 1545.82 1314.05 1545.82 Q1317.69 1545.82 1319.49 1542.27 Q1321.32 1538.71 1321.32 1531.6 Q1321.32 1524.47 1319.49 1520.93 Q1317.69 1517.37 1314.05 1517.37 M1314.05 1513.66 Q1319.86 1513.66 1322.92 1518.27 Q1326 1522.85 1326 1531.6 Q1326 1540.33 1322.92 1544.94 Q1319.86 1549.52 1314.05 1549.52 Q1308.24 1549.52 1305.16 1544.94 Q1302.11 1540.33 1302.11 1531.6 Q1302.11 1522.85 1305.16 1518.27 Q1308.24 1513.66 1314.05 1513.66 Z" fill="#000000" fill-rule="nonzero" fill-opacity="1" /><path clip-path="url(#clip280)" d="M1344.21 1517.37 Q1340.6 1517.37 1338.77 1520.93 Q1336.97 1524.47 1336.97 1531.6 Q1336.97 1538.71 1338.77 1542.27 Q1340.6 1545.82 1344.21 1545.82 Q1347.85 1545.82 1349.65 1542.27 Q1351.48 1538.71 1351.48 1531.6 Q1351.48 1524.47 1349.65 1520.93 Q1347.85 1517.37 1344.21 1517.37 M1344.21 1513.66 Q1350.02 1513.66 1353.08 1518.27 Q1356.16 1522.85 1356.16 1531.6 Q1356.16 1540.33 1353.08 1544.94 Q1350.02 1549.52 1344.21 1549.52 Q1338.4 1549.52 1335.32 1544.94 Q1332.27 1540.33 1332.27 1531.6 Q1332.27 1522.85 1335.32 1518.27 Q1338.4 1513.66 1344.21 1513.66 Z" fill="#000000" fill-rule="nonzero" fill-opacity="1" /><path clip-path="url(#clip280)" d="M1374.38 1517.37 Q1370.76 1517.37 1368.94 1520.93 Q1367.13 1524.47 1367.13 1531.6 Q1367.13 1538.71 1368.94 1542.27 Q1370.76 1545.82 1374.38 1545.82 Q1378.01 1545.82 1379.82 1542.27 Q1381.64 1538.71 1381.64 1531.6 Q1381.64 1524.47 1379.82 1520.93 Q1378.01 1517.37 1374.38 1517.37 M1374.38 1513.66 Q1380.19 1513.66 1383.24 1518.27 Q1386.32 1522.85 1386.32 1531.6 Q1386.32 1540.33 1383.24 1544.94 Q1380.19 1549.52 1374.38 1549.52 Q1368.57 1549.52 1365.49 1544.94 Q1362.43 1540.33 1362.43 1531.6 Q1362.43 1522.85 1365.49 1518.27 Q1368.57 1513.66 1374.38 1513.66 Z" fill="#000000" fill-rule="nonzero" fill-opacity="1" /><path clip-path="url(#clip280)" d="M1757.05 1544.91 L1764.69 1544.91 L1764.69 1518.55 L1756.38 1520.21 L1756.38 1515.95 L1764.64 1514.29 L1769.32 1514.29 L1769.32 1544.91 L1776.96 1544.91 L1776.96 1548.85 L1757.05 1548.85 L1757.05 1544.91 Z" fill="#000000" fill-rule="nonzero" fill-opacity="1" /><path clip-path="url(#clip280)" d="M1786.45 1514.29 L1804.8 1514.29 L1804.8 1518.22 L1790.73 1518.22 L1790.73 1526.7 Q1791.75 1526.35 1792.77 1526.19 Q1793.79 1526 1794.8 1526 Q1800.59 1526 1803.97 1529.17 Q1807.35 1532.34 1807.35 1537.76 Q1807.35 1543.34 1803.88 1546.44 Q1800.41 1549.52 1794.09 1549.52 Q1791.91 1549.52 1789.64 1549.15 Q1787.4 1548.78 1784.99 1548.04 L1784.99 1543.34 Q1787.07 1544.47 1789.3 1545.03 Q1791.52 1545.58 1793.99 1545.58 Q1798 1545.58 1800.34 1543.48 Q1802.67 1541.37 1802.67 1537.76 Q1802.67 1534.15 1800.34 1532.04 Q1798 1529.94 1793.99 1529.94 Q1792.12 1529.94 1790.24 1530.35 Q1788.39 1530.77 1786.45 1531.65 L1786.45 1514.29 Z" fill="#000000" fill-rule="nonzero" fill-opacity="1" /><path clip-path="url(#clip280)" d="M1826.56 1517.37 Q1822.95 1517.37 1821.12 1520.93 Q1819.32 1524.47 1819.32 1531.6 Q1819.32 1538.71 1821.12 1542.27 Q1822.95 1545.82 1826.56 1545.82 Q1830.2 1545.82 1832 1542.27 Q1833.83 1538.71 1833.83 1531.6 Q1833.83 1524.47 1832 1520.93 Q1830.2 1517.37 1826.56 1517.37 M1826.56 1513.66 Q1832.37 1513.66 1835.43 1518.27 Q1838.51 1522.85 1838.51 1531.6 Q1838.51 1540.33 1835.43 1544.94 Q1832.37 1549.52 1826.56 1549.52 Q1820.75 1549.52 1817.67 1544.94 Q1814.62 1540.33 1814.62 1531.6 Q1814.62 1522.85 1817.67 1518.27 Q1820.75 1513.66 1826.56 1513.66 Z" fill="#000000" fill-rule="nonzero" fill-opacity="1" /><path clip-path="url(#clip280)" d="M1856.73 1517.37 Q1853.11 1517.37 1851.29 1520.93 Q1849.48 1524.47 1849.48 1531.6 Q1849.48 1538.71 1851.29 1542.27 Q1853.11 1545.82 1856.73 1545.82 Q1860.36 1545.82 1862.17 1542.27 Q1863.99 1538.71 1863.99 1531.6 Q1863.99 1524.47 1862.17 1520.93 Q1860.36 1517.37 1856.73 1517.37 M1856.73 1513.66 Q1862.54 1513.66 1865.59 1518.27 Q1868.67 1522.85 1868.67 1531.6 Q1868.67 1540.33 1865.59 1544.94 Q1862.54 1549.52 1856.73 1549.52 Q1850.92 1549.52 1847.84 1544.94 Q1844.78 1540.33 1844.78 1531.6 Q1844.78 1522.85 1847.84 1518.27 Q1850.92 1513.66 1856.73 1513.66 Z" fill="#000000" fill-rule="nonzero" fill-opacity="1" /><path clip-path="url(#clip280)" d="M2243.49 1544.91 L2259.8 1544.91 L2259.8 1548.85 L2237.86 1548.85 L2237.86 1544.91 Q2240.52 1542.16 2245.11 1537.53 Q2249.71 1532.88 2250.89 1531.53 Q2253.14 1529.01 2254.02 1527.27 Q2254.92 1525.51 2254.92 1523.82 Q2254.92 1521.07 2252.98 1519.33 Q2251.05 1517.6 2247.95 1517.6 Q2245.75 1517.6 2243.3 1518.36 Q2240.87 1519.13 2238.09 1520.68 L2238.09 1515.95 Q2240.92 1514.82 2243.37 1514.24 Q2245.82 1513.66 2247.86 1513.66 Q2253.23 1513.66 2256.43 1516.35 Q2259.62 1519.03 2259.62 1523.52 Q2259.62 1525.65 2258.81 1527.57 Q2258.02 1529.47 2255.92 1532.07 Q2255.34 1532.74 2252.24 1535.95 Q2249.13 1539.15 2243.49 1544.91 Z" fill="#000000" fill-rule="nonzero" fill-opacity="1" /><path clip-path="url(#clip280)" d="M2279.62 1517.37 Q2276.01 1517.37 2274.18 1520.93 Q2272.37 1524.47 2272.37 1531.6 Q2272.37 1538.71 2274.18 1542.27 Q2276.01 1545.82 2279.62 1545.82 Q2283.25 1545.82 2285.06 1542.27 Q2286.89 1538.71 2286.89 1531.6 Q2286.89 1524.47 2285.06 1520.93 Q2283.25 1517.37 2279.62 1517.37 M2279.62 1513.66 Q2285.43 1513.66 2288.49 1518.27 Q2291.56 1522.85 2291.56 1531.6 Q2291.56 1540.33 2288.49 1544.94 Q2285.43 1549.52 2279.62 1549.52 Q2273.81 1549.52 2270.73 1544.94 Q2267.68 1540.33 2267.68 1531.6 Q2267.68 1522.85 2270.73 1518.27 Q2273.81 1513.66 2279.62 1513.66 Z" fill="#000000" fill-rule="nonzero" fill-opacity="1" /><path clip-path="url(#clip280)" d="M2309.78 1517.37 Q2306.17 1517.37 2304.34 1520.93 Q2302.54 1524.47 2302.54 1531.6 Q2302.54 1538.71 2304.34 1542.27 Q2306.17 1545.82 2309.78 1545.82 Q2313.42 1545.82 2315.22 1542.27 Q2317.05 1538.71 2317.05 1531.6 Q2317.05 1524.47 2315.22 1520.93 Q2313.42 1517.37 2309.78 1517.37 M2309.78 1513.66 Q2315.59 1513.66 2318.65 1518.27 Q2321.73 1522.85 2321.73 1531.6 Q2321.73 1540.33 2318.65 1544.94 Q2315.59 1549.52 2309.78 1549.52 Q2303.97 1549.52 2300.89 1544.94 Q2297.84 1540.33 2297.84 1531.6 Q2297.84 1522.85 2300.89 1518.27 Q2303.97 1513.66 2309.78 1513.66 Z" fill="#000000" fill-rule="nonzero" fill-opacity="1" /><path clip-path="url(#clip280)" d="M2339.94 1517.37 Q2336.33 1517.37 2334.5 1520.93 Q2332.7 1524.47 2332.7 1531.6 Q2332.7 1538.71 2334.5 1542.27 Q2336.33 1545.82 2339.94 1545.82 Q2343.58 1545.82 2345.38 1542.27 Q2347.21 1538.71 2347.21 1531.6 Q2347.21 1524.47 2345.38 1520.93 Q2343.58 1517.37 2339.94 1517.37 M2339.94 1513.66 Q2345.75 1513.66 2348.81 1518.27 Q2351.89 1522.85 2351.89 1531.6 Q2351.89 1540.33 2348.81 1544.94 Q2345.75 1549.52 2339.94 1549.52 Q2334.13 1549.52 2331.05 1544.94 Q2328 1540.33 2328 1531.6 Q2328 1522.85 2331.05 1518.27 Q2334.13 1513.66 2339.94 1513.66 Z" fill="#000000" fill-rule="nonzero" fill-opacity="1" /><polyline clip-path="url(#clip282)" style="stroke:#000000; stroke-linecap:round; stroke-linejoin:round; stroke-width:2; stroke-opacity:0.1; fill:none" points="307.593,1443.76 2352.76,1443.76 "/>
<polyline clip-path="url(#clip282)" style="stroke:#000000; stroke-linecap:round; stroke-linejoin:round; stroke-width:2; stroke-opacity:0.1; fill:none" points="307.593,1184.7 2352.76,1184.7 "/>
<polyline clip-path="url(#clip282)" style="stroke:#000000; stroke-linecap:round; stroke-linejoin:round; stroke-width:2; stroke-opacity:0.1; fill:none" points="307.593,925.635 2352.76,925.635 "/>
<polyline clip-path="url(#clip282)" style="stroke:#000000; stroke-linecap:round; stroke-linejoin:round; stroke-width:2; stroke-opacity:0.1; fill:none" points="307.593,666.571 2352.76,666.571 "/>
<polyline clip-path="url(#clip282)" style="stroke:#000000; stroke-linecap:round; stroke-linejoin:round; stroke-width:2; stroke-opacity:0.1; fill:none" points="307.593,407.508 2352.76,407.508 "/>
<polyline clip-path="url(#clip282)" style="stroke:#000000; stroke-linecap:round; stroke-linejoin:round; stroke-width:2; stroke-opacity:0.1; fill:none" points="307.593,148.444 2352.76,148.444 "/>
<polyline clip-path="url(#clip280)" style="stroke:#000000; stroke-linecap:round; stroke-linejoin:round; stroke-width:4; stroke-opacity:1; fill:none" points="307.593,1486.45 307.593,47.2441 "/>
<polyline clip-path="url(#clip280)" style="stroke:#000000; stroke-linecap:round; stroke-linejoin:round; stroke-width:4; stroke-opacity:1; fill:none" points="307.593,1443.76 326.49,1443.76 "/>
<polyline clip-path="url(#clip280)" style="stroke:#000000; stroke-linecap:round; stroke-linejoin:round; stroke-width:4; stroke-opacity:1; fill:none" points="307.593,1184.7 326.49,1184.7 "/>
<polyline clip-path="url(#clip280)" style="stroke:#000000; stroke-linecap:round; stroke-linejoin:round; stroke-width:4; stroke-opacity:1; fill:none" points="307.593,925.635 326.49,925.635 "/>
<polyline clip-path="url(#clip280)" style="stroke:#000000; stroke-linecap:round; stroke-linejoin:round; stroke-width:4; stroke-opacity:1; fill:none" points="307.593,666.571 326.49,666.571 "/>
<polyline clip-path="url(#clip280)" style="stroke:#000000; stroke-linecap:round; stroke-linejoin:round; stroke-width:4; stroke-opacity:1; fill:none" points="307.593,407.508 326.49,407.508 "/>
<polyline clip-path="url(#clip280)" style="stroke:#000000; stroke-linecap:round; stroke-linejoin:round; stroke-width:4; stroke-opacity:1; fill:none" points="307.593,148.444 326.49,148.444 "/>
<path clip-path="url(#clip280)" d="M54.5569 1463.55 L62.1958 1463.55 L62.1958 1437.19 L53.8856 1438.86 L53.8856 1434.6 L62.1495 1432.93 L66.8254 1432.93 L66.8254 1463.55 L74.4642 1463.55 L74.4642 1467.49 L54.5569 1467.49 L54.5569 1463.55 Z" fill="#000000" fill-rule="nonzero" fill-opacity="1" /><path clip-path="url(#clip280)" d="M83.9086 1461.61 L88.7928 1461.61 L88.7928 1467.49 L83.9086 1467.49 L83.9086 1461.61 Z" fill="#000000" fill-rule="nonzero" fill-opacity="1" /><path clip-path="url(#clip280)" d="M99.0243 1432.93 L117.381 1432.93 L117.381 1436.87 L103.307 1436.87 L103.307 1445.34 Q104.325 1444.99 105.344 1444.83 Q106.362 1444.64 107.381 1444.64 Q113.168 1444.64 116.547 1447.81 Q119.927 1450.99 119.927 1456.4 Q119.927 1461.98 116.455 1465.08 Q112.983 1468.16 106.663 1468.16 Q104.487 1468.16 102.219 1467.79 Q99.9733 1467.42 97.566 1466.68 L97.566 1461.98 Q99.6493 1463.11 101.871 1463.67 Q104.094 1464.23 106.571 1464.23 Q110.575 1464.23 112.913 1462.12 Q115.251 1460.01 115.251 1456.4 Q115.251 1452.79 112.913 1450.68 Q110.575 1448.58 106.571 1448.58 Q104.696 1448.58 102.821 1448.99 Q100.969 1449.41 99.0243 1450.29 L99.0243 1432.93 Z" fill="#000000" fill-rule="nonzero" fill-opacity="1" /><path clip-path="url(#clip280)" d="M139.14 1436.01 Q135.529 1436.01 133.7 1439.57 Q131.894 1443.12 131.894 1450.24 Q131.894 1457.35 133.7 1460.92 Q135.529 1464.46 139.14 1464.46 Q142.774 1464.46 144.58 1460.92 Q146.408 1457.35 146.408 1450.24 Q146.408 1443.12 144.58 1439.57 Q142.774 1436.01 139.14 1436.01 M139.14 1432.3 Q144.95 1432.3 148.005 1436.91 Q151.084 1441.49 151.084 1450.24 Q151.084 1458.97 148.005 1463.58 Q144.95 1468.16 139.14 1468.16 Q133.33 1468.16 130.251 1463.58 Q127.195 1458.97 127.195 1450.24 Q127.195 1441.49 130.251 1436.91 Q133.33 1432.3 139.14 1432.3 Z" fill="#000000" fill-rule="nonzero" fill-opacity="1" /><path clip-path="url(#clip280)" d="M187.473 1442.03 L176.894 1452.65 L187.473 1463.23 L184.718 1466.03 L174.093 1455.41 L163.468 1466.03 L160.737 1463.23 L171.292 1452.65 L160.737 1442.03 L163.468 1439.23 L174.093 1449.85 L184.718 1439.23 L187.473 1442.03 Z" fill="#000000" fill-rule="nonzero" fill-opacity="1" /><path clip-path="url(#clip280)" d="M199.834 1463.55 L207.473 1463.55 L207.473 1437.19 L199.163 1438.86 L199.163 1434.6 L207.426 1432.93 L212.102 1432.93 L212.102 1463.55 L219.741 1463.55 L219.741 1467.49 L199.834 1467.49 L199.834 1463.55 Z" fill="#000000" fill-rule="nonzero" fill-opacity="1" /><path clip-path="url(#clip280)" d="M239.186 1436.01 Q235.574 1436.01 233.746 1439.57 Q231.94 1443.12 231.94 1450.24 Q231.94 1457.35 233.746 1460.92 Q235.574 1464.46 239.186 1464.46 Q242.82 1464.46 244.625 1460.92 Q246.454 1457.35 246.454 1450.24 Q246.454 1443.12 244.625 1439.57 Q242.82 1436.01 239.186 1436.01 M239.186 1432.3 Q244.996 1432.3 248.051 1436.91 Q251.13 1441.49 251.13 1450.24 Q251.13 1458.97 248.051 1463.58 Q244.996 1468.16 239.186 1468.16 Q233.375 1468.16 230.297 1463.58 Q227.241 1458.97 227.241 1450.24 Q227.241 1441.49 230.297 1436.91 Q233.375 1432.3 239.186 1432.3 Z" fill="#000000" fill-rule="nonzero" fill-opacity="1" /><path clip-path="url(#clip280)" d="M263.806 1415.31 L254.214 1430.3 L263.806 1430.3 L263.806 1415.31 M262.81 1412 L267.587 1412 L267.587 1430.3 L271.593 1430.3 L271.593 1433.46 L267.587 1433.46 L267.587 1440.08 L263.806 1440.08 L263.806 1433.46 L251.13 1433.46 L251.13 1429.79 L262.81 1412 Z" fill="#000000" fill-rule="nonzero" fill-opacity="1" /><path clip-path="url(#clip280)" d="M57.7745 1204.49 L74.0939 1204.49 L74.0939 1208.43 L52.1495 1208.43 L52.1495 1204.49 Q54.8115 1201.74 59.3949 1197.11 Q64.0013 1192.45 65.1819 1191.11 Q67.4272 1188.59 68.3068 1186.85 Q69.2096 1185.09 69.2096 1183.4 Q69.2096 1180.65 67.2652 1178.91 Q65.3439 1177.18 62.2421 1177.18 Q60.043 1177.18 57.5893 1177.94 Q55.1588 1178.7 52.381 1180.26 L52.381 1175.53 Q55.2051 1174.4 57.6588 1173.82 Q60.1124 1173.24 62.1495 1173.24 Q67.5198 1173.24 70.7142 1175.93 Q73.9087 1178.61 73.9087 1183.1 Q73.9087 1185.23 73.0985 1187.15 Q72.3115 1189.05 70.205 1191.64 Q69.6263 1192.32 66.5245 1195.53 Q63.4226 1198.73 57.7745 1204.49 Z" fill="#000000" fill-rule="nonzero" fill-opacity="1" /><path clip-path="url(#clip280)" d="M83.9086 1202.55 L88.7928 1202.55 L88.7928 1208.43 L83.9086 1208.43 L83.9086 1202.55 Z" fill="#000000" fill-rule="nonzero" fill-opacity="1" /><path clip-path="url(#clip280)" d="M108.978 1176.94 Q105.367 1176.94 103.538 1180.51 Q101.733 1184.05 101.733 1191.18 Q101.733 1198.29 103.538 1201.85 Q105.367 1205.39 108.978 1205.39 Q112.612 1205.39 114.418 1201.85 Q116.246 1198.29 116.246 1191.18 Q116.246 1184.05 114.418 1180.51 Q112.612 1176.94 108.978 1176.94 M108.978 1173.24 Q114.788 1173.24 117.844 1177.85 Q120.922 1182.43 120.922 1191.18 Q120.922 1199.91 117.844 1204.51 Q114.788 1209.1 108.978 1209.1 Q103.168 1209.1 100.089 1204.51 Q97.0335 1199.91 97.0335 1191.18 Q97.0335 1182.43 100.089 1177.85 Q103.168 1173.24 108.978 1173.24 Z" fill="#000000" fill-rule="nonzero" fill-opacity="1" /><path clip-path="url(#clip280)" d="M139.14 1176.94 Q135.529 1176.94 133.7 1180.51 Q131.894 1184.05 131.894 1191.18 Q131.894 1198.29 133.7 1201.85 Q135.529 1205.39 139.14 1205.39 Q142.774 1205.39 144.58 1201.85 Q146.408 1198.29 146.408 1191.18 Q146.408 1184.05 144.58 1180.51 Q142.774 1176.94 139.14 1176.94 M139.14 1173.24 Q144.95 1173.24 148.005 1177.85 Q151.084 1182.43 151.084 1191.18 Q151.084 1199.91 148.005 1204.51 Q144.95 1209.1 139.14 1209.1 Q133.33 1209.1 130.251 1204.51 Q127.195 1199.91 127.195 1191.18 Q127.195 1182.43 130.251 1177.85 Q133.33 1173.24 139.14 1173.24 Z" fill="#000000" fill-rule="nonzero" fill-opacity="1" /><path clip-path="url(#clip280)" d="M187.473 1182.96 L176.894 1193.59 L187.473 1204.17 L184.718 1206.97 L174.093 1196.34 L163.468 1206.97 L160.737 1204.17 L171.292 1193.59 L160.737 1182.96 L163.468 1180.16 L174.093 1190.79 L184.718 1180.16 L187.473 1182.96 Z" fill="#000000" fill-rule="nonzero" fill-opacity="1" /><path clip-path="url(#clip280)" d="M199.834 1204.49 L207.473 1204.49 L207.473 1178.13 L199.163 1179.79 L199.163 1175.53 L207.426 1173.87 L212.102 1173.87 L212.102 1204.49 L219.741 1204.49 L219.741 1208.43 L199.834 1208.43 L199.834 1204.49 Z" fill="#000000" fill-rule="nonzero" fill-opacity="1" /><path clip-path="url(#clip280)" d="M239.186 1176.94 Q235.574 1176.94 233.746 1180.51 Q231.94 1184.05 231.94 1191.18 Q231.94 1198.29 233.746 1201.85 Q235.574 1205.39 239.186 1205.39 Q242.82 1205.39 244.625 1201.85 Q246.454 1198.29 246.454 1191.18 Q246.454 1184.05 244.625 1180.51 Q242.82 1176.94 239.186 1176.94 M239.186 1173.24 Q244.996 1173.24 248.051 1177.85 Q251.13 1182.43 251.13 1191.18 Q251.13 1199.91 248.051 1204.51 Q244.996 1209.1 239.186 1209.1 Q233.375 1209.1 230.297 1204.51 Q227.241 1199.91 227.241 1191.18 Q227.241 1182.43 230.297 1177.85 Q233.375 1173.24 239.186 1173.24 Z" fill="#000000" fill-rule="nonzero" fill-opacity="1" /><path clip-path="url(#clip280)" d="M263.806 1156.25 L254.214 1171.24 L263.806 1171.24 L263.806 1156.25 M262.81 1152.94 L267.587 1152.94 L267.587 1171.24 L271.593 1171.24 L271.593 1174.4 L267.587 1174.4 L267.587 1181.02 L263.806 1181.02 L263.806 1174.4 L251.13 1174.4 L251.13 1170.73 L262.81 1152.94 Z" fill="#000000" fill-rule="nonzero" fill-opacity="1" /><path clip-path="url(#clip280)" d="M57.7745 945.427 L74.0939 945.427 L74.0939 949.362 L52.1495 949.362 L52.1495 945.427 Q54.8115 942.673 59.3949 938.043 Q64.0013 933.39 65.1819 932.048 Q67.4272 929.525 68.3068 927.789 Q69.2096 926.029 69.2096 924.339 Q69.2096 921.585 67.2652 919.849 Q65.3439 918.113 62.2421 918.113 Q60.043 918.113 57.5893 918.877 Q55.1588 919.64 52.381 921.191 L52.381 916.469 Q55.2051 915.335 57.6588 914.756 Q60.1124 914.177 62.1495 914.177 Q67.5198 914.177 70.7142 916.863 Q73.9087 919.548 73.9087 924.039 Q73.9087 926.168 73.0985 928.089 Q72.3115 929.988 70.205 932.58 Q69.6263 933.251 66.5245 936.469 Q63.4226 939.663 57.7745 945.427 Z" fill="#000000" fill-rule="nonzero" fill-opacity="1" /><path clip-path="url(#clip280)" d="M83.9086 943.483 L88.7928 943.483 L88.7928 949.362 L83.9086 949.362 L83.9086 943.483 Z" fill="#000000" fill-rule="nonzero" fill-opacity="1" /><path clip-path="url(#clip280)" d="M99.0243 914.802 L117.381 914.802 L117.381 918.738 L103.307 918.738 L103.307 927.21 Q104.325 926.863 105.344 926.701 Q106.362 926.515 107.381 926.515 Q113.168 926.515 116.547 929.687 Q119.927 932.858 119.927 938.275 Q119.927 943.853 116.455 946.955 Q112.983 950.034 106.663 950.034 Q104.487 950.034 102.219 949.663 Q99.9733 949.293 97.566 948.552 L97.566 943.853 Q99.6493 944.988 101.871 945.543 Q104.094 946.099 106.571 946.099 Q110.575 946.099 112.913 943.992 Q115.251 941.886 115.251 938.275 Q115.251 934.663 112.913 932.557 Q110.575 930.451 106.571 930.451 Q104.696 930.451 102.821 930.867 Q100.969 931.284 99.0243 932.164 L99.0243 914.802 Z" fill="#000000" fill-rule="nonzero" fill-opacity="1" /><path clip-path="url(#clip280)" d="M139.14 917.881 Q135.529 917.881 133.7 921.446 Q131.894 924.988 131.894 932.117 Q131.894 939.224 133.7 942.788 Q135.529 946.33 139.14 946.33 Q142.774 946.33 144.58 942.788 Q146.408 939.224 146.408 932.117 Q146.408 924.988 144.58 921.446 Q142.774 917.881 139.14 917.881 M139.14 914.177 Q144.95 914.177 148.005 918.784 Q151.084 923.367 151.084 932.117 Q151.084 940.844 148.005 945.45 Q144.95 950.034 139.14 950.034 Q133.33 950.034 130.251 945.45 Q127.195 940.844 127.195 932.117 Q127.195 923.367 130.251 918.784 Q133.33 914.177 139.14 914.177 Z" fill="#000000" fill-rule="nonzero" fill-opacity="1" /><path clip-path="url(#clip280)" d="M187.473 923.9 L176.894 934.525 L187.473 945.103 L184.718 947.904 L174.093 937.279 L163.468 947.904 L160.737 945.103 L171.292 934.525 L160.737 923.9 L163.468 921.099 L174.093 931.724 L184.718 921.099 L187.473 923.9 Z" fill="#000000" fill-rule="nonzero" fill-opacity="1" /><path clip-path="url(#clip280)" d="M199.834 945.427 L207.473 945.427 L207.473 919.062 L199.163 920.728 L199.163 916.469 L207.426 914.802 L212.102 914.802 L212.102 945.427 L219.741 945.427 L219.741 949.362 L199.834 949.362 L199.834 945.427 Z" fill="#000000" fill-rule="nonzero" fill-opacity="1" /><path clip-path="url(#clip280)" d="M239.186 917.881 Q235.574 917.881 233.746 921.446 Q231.94 924.988 231.94 932.117 Q231.94 939.224 233.746 942.788 Q235.574 946.33 239.186 946.33 Q242.82 946.33 244.625 942.788 Q246.454 939.224 246.454 932.117 Q246.454 924.988 244.625 921.446 Q242.82 917.881 239.186 917.881 M239.186 914.177 Q244.996 914.177 248.051 918.784 Q251.13 923.367 251.13 932.117 Q251.13 940.844 248.051 945.45 Q244.996 950.034 239.186 950.034 Q233.375 950.034 230.297 945.45 Q227.241 940.844 227.241 932.117 Q227.241 923.367 230.297 918.784 Q233.375 914.177 239.186 914.177 Z" fill="#000000" fill-rule="nonzero" fill-opacity="1" /><path clip-path="url(#clip280)" d="M263.806 897.182 L254.214 912.172 L263.806 912.172 L263.806 897.182 M262.81 893.872 L267.587 893.872 L267.587 912.172 L271.593 912.172 L271.593 915.332 L267.587 915.332 L267.587 921.952 L263.806 921.952 L263.806 915.332 L251.13 915.332 L251.13 911.664 L262.81 893.872 Z" fill="#000000" fill-rule="nonzero" fill-opacity="1" /><path clip-path="url(#clip280)" d="M67.9133 671.665 Q71.2698 672.382 73.1448 674.651 Q75.0429 676.919 75.0429 680.253 Q75.0429 685.368 71.5244 688.169 Q68.0059 690.97 61.5245 690.97 Q59.3486 690.97 57.0338 690.53 Q54.7421 690.114 52.2884 689.257 L52.2884 684.743 Q54.2328 685.878 56.5477 686.456 Q58.8625 687.035 61.3856 687.035 Q65.7837 687.035 68.0754 685.299 Q70.3902 683.563 70.3902 680.253 Q70.3902 677.197 68.2374 675.484 Q66.1078 673.748 62.2884 673.748 L58.2606 673.748 L58.2606 669.905 L62.4735 669.905 Q65.9226 669.905 67.7513 668.54 Q69.58 667.151 69.58 664.558 Q69.58 661.896 67.6819 660.484 Q65.8069 659.049 62.2884 659.049 Q60.3671 659.049 58.168 659.466 Q55.969 659.882 53.3301 660.762 L53.3301 656.595 Q55.9921 655.855 58.3069 655.484 Q60.6449 655.114 62.705 655.114 Q68.0291 655.114 71.1309 657.544 Q74.2327 659.952 74.2327 664.072 Q74.2327 666.942 72.5892 668.933 Q70.9457 670.901 67.9133 671.665 Z" fill="#000000" fill-rule="nonzero" fill-opacity="1" /><path clip-path="url(#clip280)" d="M83.9086 684.419 L88.7928 684.419 L88.7928 690.299 L83.9086 690.299 L83.9086 684.419 Z" fill="#000000" fill-rule="nonzero" fill-opacity="1" /><path clip-path="url(#clip280)" d="M108.978 658.817 Q105.367 658.817 103.538 662.382 Q101.733 665.924 101.733 673.054 Q101.733 680.16 103.538 683.725 Q105.367 687.266 108.978 687.266 Q112.612 687.266 114.418 683.725 Q116.246 680.16 116.246 673.054 Q116.246 665.924 114.418 662.382 Q112.612 658.817 108.978 658.817 M108.978 655.114 Q114.788 655.114 117.844 659.72 Q120.922 664.304 120.922 673.054 Q120.922 681.78 117.844 686.387 Q114.788 690.97 108.978 690.97 Q103.168 690.97 100.089 686.387 Q97.0335 681.78 97.0335 673.054 Q97.0335 664.304 100.089 659.72 Q103.168 655.114 108.978 655.114 Z" fill="#000000" fill-rule="nonzero" fill-opacity="1" /><path clip-path="url(#clip280)" d="M139.14 658.817 Q135.529 658.817 133.7 662.382 Q131.894 665.924 131.894 673.054 Q131.894 680.16 133.7 683.725 Q135.529 687.266 139.14 687.266 Q142.774 687.266 144.58 683.725 Q146.408 680.16 146.408 673.054 Q146.408 665.924 144.58 662.382 Q142.774 658.817 139.14 658.817 M139.14 655.114 Q144.95 655.114 148.005 659.72 Q151.084 664.304 151.084 673.054 Q151.084 681.78 148.005 686.387 Q144.95 690.97 139.14 690.97 Q133.33 690.97 130.251 686.387 Q127.195 681.78 127.195 673.054 Q127.195 664.304 130.251 659.72 Q133.33 655.114 139.14 655.114 Z" fill="#000000" fill-rule="nonzero" fill-opacity="1" /><path clip-path="url(#clip280)" d="M187.473 664.836 L176.894 675.461 L187.473 686.04 L184.718 688.84 L174.093 678.216 L163.468 688.84 L160.737 686.04 L171.292 675.461 L160.737 664.836 L163.468 662.035 L174.093 672.66 L184.718 662.035 L187.473 664.836 Z" fill="#000000" fill-rule="nonzero" fill-opacity="1" /><path clip-path="url(#clip280)" d="M199.834 686.364 L207.473 686.364 L207.473 659.998 L199.163 661.665 L199.163 657.405 L207.426 655.739 L212.102 655.739 L212.102 686.364 L219.741 686.364 L219.741 690.299 L199.834 690.299 L199.834 686.364 Z" fill="#000000" fill-rule="nonzero" fill-opacity="1" /><path clip-path="url(#clip280)" d="M239.186 658.817 Q235.574 658.817 233.746 662.382 Q231.94 665.924 231.94 673.054 Q231.94 680.16 233.746 683.725 Q235.574 687.266 239.186 687.266 Q242.82 687.266 244.625 683.725 Q246.454 680.16 246.454 673.054 Q246.454 665.924 244.625 662.382 Q242.82 658.817 239.186 658.817 M239.186 655.114 Q244.996 655.114 248.051 659.72 Q251.13 664.304 251.13 673.054 Q251.13 681.78 248.051 686.387 Q244.996 690.97 239.186 690.97 Q233.375 690.97 230.297 686.387 Q227.241 681.78 227.241 673.054 Q227.241 664.304 230.297 659.72 Q233.375 655.114 239.186 655.114 Z" fill="#000000" fill-rule="nonzero" fill-opacity="1" /><path clip-path="url(#clip280)" d="M263.806 638.119 L254.214 653.108 L263.806 653.108 L263.806 638.119 M262.81 634.808 L267.587 634.808 L267.587 653.108 L271.593 653.108 L271.593 656.268 L267.587 656.268 L267.587 662.888 L263.806 662.888 L263.806 656.268 L251.13 656.268 L251.13 652.601 L262.81 634.808 Z" fill="#000000" fill-rule="nonzero" fill-opacity="1" /><path clip-path="url(#clip280)" d="M67.9133 412.601 Q71.2698 413.319 73.1448 415.587 Q75.0429 417.856 75.0429 421.189 Q75.0429 426.305 71.5244 429.105 Q68.0059 431.906 61.5245 431.906 Q59.3486 431.906 57.0338 431.467 Q54.7421 431.05 52.2884 430.193 L52.2884 425.68 Q54.2328 426.814 56.5477 427.393 Q58.8625 427.971 61.3856 427.971 Q65.7837 427.971 68.0754 426.235 Q70.3902 424.499 70.3902 421.189 Q70.3902 418.133 68.2374 416.42 Q66.1078 414.684 62.2884 414.684 L58.2606 414.684 L58.2606 410.842 L62.4735 410.842 Q65.9226 410.842 67.7513 409.476 Q69.58 408.087 69.58 405.494 Q69.58 402.832 67.6819 401.42 Q65.8069 399.985 62.2884 399.985 Q60.3671 399.985 58.168 400.402 Q55.969 400.819 53.3301 401.698 L53.3301 397.532 Q55.9921 396.791 58.3069 396.42 Q60.6449 396.05 62.705 396.05 Q68.0291 396.05 71.1309 398.481 Q74.2327 400.888 74.2327 405.008 Q74.2327 407.879 72.5892 409.869 Q70.9457 411.837 67.9133 412.601 Z" fill="#000000" fill-rule="nonzero" fill-opacity="1" /><path clip-path="url(#clip280)" d="M83.9086 425.356 L88.7928 425.356 L88.7928 431.235 L83.9086 431.235 L83.9086 425.356 Z" fill="#000000" fill-rule="nonzero" fill-opacity="1" /><path clip-path="url(#clip280)" d="M99.0243 396.675 L117.381 396.675 L117.381 400.61 L103.307 400.61 L103.307 409.082 Q104.325 408.735 105.344 408.573 Q106.362 408.388 107.381 408.388 Q113.168 408.388 116.547 411.559 Q119.927 414.731 119.927 420.147 Q119.927 425.726 116.455 428.828 Q112.983 431.906 106.663 431.906 Q104.487 431.906 102.219 431.536 Q99.9733 431.166 97.566 430.425 L97.566 425.726 Q99.6493 426.86 101.871 427.416 Q104.094 427.971 106.571 427.971 Q110.575 427.971 112.913 425.865 Q115.251 423.758 115.251 420.147 Q115.251 416.536 112.913 414.43 Q110.575 412.323 106.571 412.323 Q104.696 412.323 102.821 412.74 Q100.969 413.156 99.0243 414.036 L99.0243 396.675 Z" fill="#000000" fill-rule="nonzero" fill-opacity="1" /><path clip-path="url(#clip280)" d="M139.14 399.754 Q135.529 399.754 133.7 403.319 Q131.894 406.86 131.894 413.99 Q131.894 421.096 133.7 424.661 Q135.529 428.203 139.14 428.203 Q142.774 428.203 144.58 424.661 Q146.408 421.096 146.408 413.99 Q146.408 406.86 144.58 403.319 Q142.774 399.754 139.14 399.754 M139.14 396.05 Q144.95 396.05 148.005 400.657 Q151.084 405.24 151.084 413.99 Q151.084 422.717 148.005 427.323 Q144.95 431.906 139.14 431.906 Q133.33 431.906 130.251 427.323 Q127.195 422.717 127.195 413.99 Q127.195 405.24 130.251 400.657 Q133.33 396.05 139.14 396.05 Z" fill="#000000" fill-rule="nonzero" fill-opacity="1" /><path clip-path="url(#clip280)" d="M187.473 405.772 L176.894 416.397 L187.473 426.976 L184.718 429.777 L174.093 419.152 L163.468 429.777 L160.737 426.976 L171.292 416.397 L160.737 405.772 L163.468 402.971 L174.093 413.596 L184.718 402.971 L187.473 405.772 Z" fill="#000000" fill-rule="nonzero" fill-opacity="1" /><path clip-path="url(#clip280)" d="M199.834 427.3 L207.473 427.3 L207.473 400.934 L199.163 402.601 L199.163 398.342 L207.426 396.675 L212.102 396.675 L212.102 427.3 L219.741 427.3 L219.741 431.235 L199.834 431.235 L199.834 427.3 Z" fill="#000000" fill-rule="nonzero" fill-opacity="1" /><path clip-path="url(#clip280)" d="M239.186 399.754 Q235.574 399.754 233.746 403.319 Q231.94 406.86 231.94 413.99 Q231.94 421.096 233.746 424.661 Q235.574 428.203 239.186 428.203 Q242.82 428.203 244.625 424.661 Q246.454 421.096 246.454 413.99 Q246.454 406.86 244.625 403.319 Q242.82 399.754 239.186 399.754 M239.186 396.05 Q244.996 396.05 248.051 400.657 Q251.13 405.24 251.13 413.99 Q251.13 422.717 248.051 427.323 Q244.996 431.906 239.186 431.906 Q233.375 431.906 230.297 427.323 Q227.241 422.717 227.241 413.99 Q227.241 405.24 230.297 400.657 Q233.375 396.05 239.186 396.05 Z" fill="#000000" fill-rule="nonzero" fill-opacity="1" /><path clip-path="url(#clip280)" d="M263.806 379.055 L254.214 394.045 L263.806 394.045 L263.806 379.055 M262.81 375.745 L267.587 375.745 L267.587 394.045 L271.593 394.045 L271.593 397.204 L267.587 397.204 L267.587 403.825 L263.806 403.825 L263.806 397.204 L251.13 397.204 L251.13 393.537 L262.81 375.745 Z" fill="#000000" fill-rule="nonzero" fill-opacity="1" /><path clip-path="url(#clip280)" d="M66.5939 141.685 L54.7884 160.134 L66.5939 160.134 L66.5939 141.685 M65.367 137.611 L71.2466 137.611 L71.2466 160.134 L76.1772 160.134 L76.1772 164.023 L71.2466 164.023 L71.2466 172.171 L66.5939 172.171 L66.5939 164.023 L50.9921 164.023 L50.9921 159.509 L65.367 137.611 Z" fill="#000000" fill-rule="nonzero" fill-opacity="1" /><path clip-path="url(#clip280)" d="M83.9086 166.292 L88.7928 166.292 L88.7928 172.171 L83.9086 172.171 L83.9086 166.292 Z" fill="#000000" fill-rule="nonzero" fill-opacity="1" /><path clip-path="url(#clip280)" d="M108.978 140.69 Q105.367 140.69 103.538 144.255 Q101.733 147.797 101.733 154.926 Q101.733 162.033 103.538 165.597 Q105.367 169.139 108.978 169.139 Q112.612 169.139 114.418 165.597 Q116.246 162.033 116.246 154.926 Q116.246 147.797 114.418 144.255 Q112.612 140.69 108.978 140.69 M108.978 136.986 Q114.788 136.986 117.844 141.593 Q120.922 146.176 120.922 154.926 Q120.922 163.653 117.844 168.259 Q114.788 172.843 108.978 172.843 Q103.168 172.843 100.089 168.259 Q97.0335 163.653 97.0335 154.926 Q97.0335 146.176 100.089 141.593 Q103.168 136.986 108.978 136.986 Z" fill="#000000" fill-rule="nonzero" fill-opacity="1" /><path clip-path="url(#clip280)" d="M139.14 140.69 Q135.529 140.69 133.7 144.255 Q131.894 147.797 131.894 154.926 Q131.894 162.033 133.7 165.597 Q135.529 169.139 139.14 169.139 Q142.774 169.139 144.58 165.597 Q146.408 162.033 146.408 154.926 Q146.408 147.797 144.58 144.255 Q142.774 140.69 139.14 140.69 M139.14 136.986 Q144.95 136.986 148.005 141.593 Q151.084 146.176 151.084 154.926 Q151.084 163.653 148.005 168.259 Q144.95 172.843 139.14 172.843 Q133.33 172.843 130.251 168.259 Q127.195 163.653 127.195 154.926 Q127.195 146.176 130.251 141.593 Q133.33 136.986 139.14 136.986 Z" fill="#000000" fill-rule="nonzero" fill-opacity="1" /><path clip-path="url(#clip280)" d="M187.473 146.709 L176.894 157.334 L187.473 167.912 L184.718 170.713 L174.093 160.088 L163.468 170.713 L160.737 167.912 L171.292 157.334 L160.737 146.709 L163.468 143.908 L174.093 154.533 L184.718 143.908 L187.473 146.709 Z" fill="#000000" fill-rule="nonzero" fill-opacity="1" /><path clip-path="url(#clip280)" d="M199.834 168.236 L207.473 168.236 L207.473 141.871 L199.163 143.537 L199.163 139.278 L207.426 137.611 L212.102 137.611 L212.102 168.236 L219.741 168.236 L219.741 172.171 L199.834 172.171 L199.834 168.236 Z" fill="#000000" fill-rule="nonzero" fill-opacity="1" /><path clip-path="url(#clip280)" d="M239.186 140.69 Q235.574 140.69 233.746 144.255 Q231.94 147.797 231.94 154.926 Q231.94 162.033 233.746 165.597 Q235.574 169.139 239.186 169.139 Q242.82 169.139 244.625 165.597 Q246.454 162.033 246.454 154.926 Q246.454 147.797 244.625 144.255 Q242.82 140.69 239.186 140.69 M239.186 136.986 Q244.996 136.986 248.051 141.593 Q251.13 146.176 251.13 154.926 Q251.13 163.653 248.051 168.259 Q244.996 172.843 239.186 172.843 Q233.375 172.843 230.297 168.259 Q227.241 163.653 227.241 154.926 Q227.241 146.176 230.297 141.593 Q233.375 136.986 239.186 136.986 Z" fill="#000000" fill-rule="nonzero" fill-opacity="1" /><path clip-path="url(#clip280)" d="M263.806 119.991 L254.214 134.981 L263.806 134.981 L263.806 119.991 M262.81 116.681 L267.587 116.681 L267.587 134.981 L271.593 134.981 L271.593 138.141 L267.587 138.141 L267.587 144.761 L263.806 144.761 L263.806 138.141 L251.13 138.141 L251.13 134.473 L262.81 116.681 Z" fill="#000000" fill-rule="nonzero" fill-opacity="1" /><polyline clip-path="url(#clip282)" style="stroke:#009af9; stroke-linecap:round; stroke-linejoin:round; stroke-width:4; stroke-opacity:1; fill:none" points="365.475,87.9763 366.439,1257.67 367.404,1396.42 368.369,1422.4 369.334,1425.92 370.298,1428.29 371.263,1431.02 372.228,1433.25 373.192,1434.39 374.157,1435.02 375.122,1435.49 376.086,1435.91 377.051,1436.3 378.016,1436.68 378.981,1437.05 379.945,1437.41 380.91,1437.76 381.875,1438.1 382.839,1438.44 383.804,1438.76 384.769,1439.03 385.733,1439.27 386.698,1439.45 387.663,1439.64 388.628,1439.83 389.592,1440.01 390.557,1440.19 391.522,1440.36 392.486,1440.53 393.451,1440.7 394.416,1440.86 395.38,1441.03 396.345,1441.19 397.31,1441.35 398.275,1441.5 399.239,1441.66 400.204,1441.8 401.169,1441.93 402.133,1442.06 403.098,1442.17 404.063,1442.28 405.027,1442.38 405.992,1442.49 406.957,1442.59 407.922,1442.7 408.886,1442.79 409.851,1442.87 410.816,1442.95 411.78,1443.02 412.745,1443.08 413.71,1443.15 414.674,1443.21 415.639,1443.27 416.604,1443.33 417.569,1443.39 418.533,1443.46 419.498,1443.52 420.463,1443.58 421.427,1443.64 422.392,1443.69 423.357,1443.75 424.321,1443.81 425.286,1443.86 426.251,1443.92 427.216,1443.97 428.18,1444.02 429.145,1444.08 430.11,1444.13 431.074,1444.18 432.039,1444.22 433.004,1444.26 433.968,1444.31 434.933,1444.35 435.898,1444.39 436.863,1444.43 437.827,1444.47 438.792,1444.51 439.757,1444.55 440.721,1444.59 441.686,1444.62 442.651,1444.66 443.615,1444.69 444.58,1444.73 445.545,1444.75 446.51,1444.78 447.474,1444.8 448.439,1444.82 449.404,1444.84 450.368,1444.85 451.333,1444.87 452.298,1444.89 453.262,1444.9 454.227,1444.92 455.192,1444.93 456.157,1444.94 457.121,1444.96 458.086,1444.97 459.051,1444.98 460.015,1444.99 460.98,1445.01 461.945,1445.02 462.909,1445.03 463.874,1445.04 464.839,1445.05 465.804,1445.06 466.768,1445.08 467.733,1445.09 468.698,1445.1 469.662,1445.11 470.627,1445.12 471.592,1445.13 472.556,1445.14 473.521,1445.15 474.486,1445.16 475.451,1445.17 476.415,1445.18 477.38,1445.18 478.345,1445.19 479.309,1445.2 480.274,1445.21 481.239,1445.22 482.203,1445.23 483.168,1445.23 484.133,1445.24 485.098,1445.25 486.062,1445.25 487.027,1445.26 487.992,1445.26 488.956,1445.27 489.921,1445.27 490.886,1445.28 491.85,1445.28 492.815,1445.29 493.78,1445.29 494.745,1445.29 495.709,1445.3 496.674,1445.3 497.639,1445.31 498.603,1445.31 499.568,1445.31 500.533,1445.32 501.497,1445.32 502.462,1445.32 503.427,1445.33 504.392,1445.33 505.356,1445.33 506.321,1445.34 507.286,1445.34 508.25,1445.34 509.215,1445.35 510.18,1445.35 511.144,1445.35 512.109,1445.35 513.074,1445.36 514.039,1445.36 515.003,1445.36 515.968,1445.37 516.933,1445.37 517.897,1445.37 518.862,1445.37 519.827,1445.38 520.791,1445.38 521.756,1445.38 522.721,1445.38 523.686,1445.39 524.65,1445.39 525.615,1445.39 526.58,1445.39 527.544,1445.4 528.509,1445.4 529.474,1445.4 530.438,1445.41 531.403,1445.41 532.368,1445.41 533.332,1445.41 534.297,1445.42 535.262,1445.42 536.227,1445.42 537.191,1445.42 538.156,1445.43 539.121,1445.43 540.085,1445.43 541.05,1445.43 542.015,1445.43 542.979,1445.44 543.944,1445.44 544.909,1445.44 545.874,1445.44 546.838,1445.44 547.803,1445.45 548.768,1445.45 549.732,1445.45 550.697,1445.45 551.662,1445.45 552.626,1445.46 553.591,1445.46 554.556,1445.46 555.521,1445.46 556.485,1445.46 557.45,1445.46 558.415,1445.47 559.379,1445.47 560.344,1445.47 561.309,1445.47 562.273,1445.47 563.238,1445.48 564.203,1445.48 565.168,1445.48 566.132,1445.48 567.097,1445.48 568.062,1445.48 569.026,1445.49 569.991,1445.49 570.956,1445.49 571.92,1445.49 572.885,1445.49 573.85,1445.49 574.815,1445.5 575.779,1445.5 576.744,1445.5 577.709,1445.5 578.673,1445.5 579.638,1445.5 580.603,1445.5 581.567,1445.51 582.532,1445.51 583.497,1445.51 584.462,1445.51 585.426,1445.51 586.391,1445.51 587.356,1445.52 588.32,1445.52 589.285,1445.52 590.25,1445.52 591.214,1445.52 592.179,1445.52 593.144,1445.52 594.109,1445.53 595.073,1445.53 596.038,1445.53 597.003,1445.53 597.967,1445.53 598.932,1445.53 599.897,1445.53 600.861,1445.54 601.826,1445.54 602.791,1445.54 603.756,1445.54 604.72,1445.54 605.685,1445.54 606.65,1445.55 607.614,1445.55 608.579,1445.55 609.544,1445.55 610.508,1445.55 611.473,1445.55 612.438,1445.55 613.403,1445.56 614.367,1445.56 615.332,1445.56 616.297,1445.56 617.261,1445.56 618.226,1445.56 619.191,1445.56 620.155,1445.57 621.12,1445.57 622.085,1445.57 623.05,1445.57 624.014,1445.57 624.979,1445.57 625.944,1445.57 626.908,1445.58 627.873,1445.58 628.838,1445.58 629.802,1445.58 630.767,1445.58 631.732,1445.58 632.697,1445.58 633.661,1445.59 634.626,1445.59 635.591,1445.59 636.555,1445.59 637.52,1445.59 638.485,1445.59 639.449,1445.59 640.414,1445.6 641.379,1445.6 642.344,1445.6 643.308,1445.6 644.273,1445.6 645.238,1445.6 646.202,1445.6 647.167,1445.6 648.132,1445.61 649.096,1445.61 650.061,1445.61 651.026,1445.61 651.991,1445.61 652.955,1445.61 653.92,1445.61 654.885,1445.61 655.849,1445.61 656.814,1445.62 657.779,1445.62 658.743,1445.62 659.708,1445.62 660.673,1445.62 661.638,1445.62 662.602,1445.62 663.567,1445.62 664.532,1445.63 665.496,1445.63 666.461,1445.63 667.426,1445.63 668.39,1445.63 669.355,1445.63 670.32,1445.63 671.285,1445.63 672.249,1445.63 673.214,1445.64 674.179,1445.64 675.143,1445.64 676.108,1445.64 677.073,1445.64 678.037,1445.64 679.002,1445.64 679.967,1445.64 680.932,1445.64 681.896,1445.64 682.861,1445.64 683.826,1445.64 684.79,1445.64 685.755,1445.65 686.72,1445.65 687.684,1445.65 688.649,1445.65 689.614,1445.65 690.579,1445.65 691.543,1445.65 692.508,1445.65 693.473,1445.65 694.437,1445.65 695.402,1445.65 696.367,1445.65 697.331,1445.65 698.296,1445.65 699.261,1445.66 700.226,1445.66 701.19,1445.66 702.155,1445.66 703.12,1445.66 704.084,1445.66 705.049,1445.66 706.014,1445.66 706.978,1445.66 707.943,1445.66 708.908,1445.66 709.873,1445.66 710.837,1445.66 711.802,1445.66 712.767,1445.66 713.731,1445.66 714.696,1445.67 715.661,1445.67 716.625,1445.67 717.59,1445.67 718.555,1445.67 719.52,1445.67 720.484,1445.67 721.449,1445.67 722.414,1445.67 723.378,1445.67 724.343,1445.67 725.308,1445.67 726.272,1445.67 727.237,1445.67 728.202,1445.67 729.167,1445.67 730.131,1445.67 731.096,1445.68 732.061,1445.68 733.025,1445.68 733.99,1445.68 734.955,1445.68 735.919,1445.68 736.884,1445.68 737.849,1445.68 738.814,1445.68 739.778,1445.68 740.743,1445.68 741.708,1445.68 742.672,1445.68 743.637,1445.68 744.602,1445.68 745.566,1445.68 746.531,1445.68 747.496,1445.68 748.461,1445.68 749.425,1445.68 750.39,1445.68 751.355,1445.68 752.319,1445.68 753.284,1445.69 754.249,1445.69 755.213,1445.69 756.178,1445.69 757.143,1445.69 758.107,1445.69 759.072,1445.69 760.037,1445.69 761.002,1445.69 761.966,1445.69 762.931,1445.69 763.896,1445.69 764.86,1445.69 765.825,1445.69 766.79,1445.69 767.754,1445.69 768.719,1445.69 769.684,1445.69 770.649,1445.69 771.613,1445.69 772.578,1445.69 773.543,1445.69 774.507,1445.69 775.472,1445.69 776.437,1445.69 777.401,1445.69 778.366,1445.69 779.331,1445.69 780.296,1445.69 781.26,1445.69 782.225,1445.69 783.19,1445.69 784.154,1445.69 785.119,1445.69 786.084,1445.69 787.048,1445.69 788.013,1445.69 788.978,1445.69 789.943,1445.69 790.907,1445.69 791.872,1445.69 792.837,1445.69 793.801,1445.69 794.766,1445.69 795.731,1445.69 796.695,1445.69 797.66,1445.69 798.625,1445.69 799.59,1445.69 800.554,1445.7 801.519,1445.7 802.484,1445.7 803.448,1445.7 804.413,1445.7 805.378,1445.7 806.342,1445.7 807.307,1445.7 808.272,1445.7 809.237,1445.7 810.201,1445.7 811.166,1445.7 812.131,1445.7 813.095,1445.7 814.06,1445.7 815.025,1445.7 815.989,1445.7 816.954,1445.7 817.919,1445.7 818.884,1445.7 819.848,1445.7 820.813,1445.7 821.778,1445.7 822.742,1445.7 823.707,1445.7 824.672,1445.7 825.636,1445.7 826.601,1445.7 827.566,1445.7 828.531,1445.7 829.495,1445.7 830.46,1445.7 831.425,1445.7 832.389,1445.7 833.354,1445.7 834.319,1445.7 835.283,1445.7 836.248,1445.7 837.213,1445.7 838.178,1445.7 839.142,1445.7 840.107,1445.7 841.072,1445.7 842.036,1445.7 843.001,1445.7 843.966,1445.7 844.93,1445.7 845.895,1445.7 846.86,1445.7 847.825,1445.7 848.789,1445.7 849.754,1445.7 850.719,1445.7 851.683,1445.7 852.648,1445.7 853.613,1445.7 854.577,1445.7 855.542,1445.7 856.507,1445.7 857.472,1445.7 858.436,1445.7 859.401,1445.7 860.366,1445.7 861.33,1445.7 862.295,1445.7 863.26,1445.7 864.224,1445.7 865.189,1445.7 866.154,1445.7 867.119,1445.7 868.083,1445.7 869.048,1445.7 870.013,1445.7 870.977,1445.7 871.942,1445.7 872.907,1445.7 873.871,1445.7 874.836,1445.7 875.801,1445.71 876.766,1445.71 877.73,1445.71 878.695,1445.71 879.66,1445.71 880.624,1445.71 881.589,1445.71 882.554,1445.71 883.518,1445.71 884.483,1445.71 885.448,1445.71 886.413,1445.71 887.377,1445.71 888.342,1445.71 889.307,1445.71 890.271,1445.71 891.236,1445.71 892.201,1445.71 893.165,1445.71 894.13,1445.71 895.095,1445.71 896.06,1445.71 897.024,1445.71 897.989,1445.71 898.954,1445.71 899.918,1445.71 900.883,1445.71 901.848,1445.71 902.812,1445.71 903.777,1445.71 904.742,1445.71 905.707,1445.71 906.671,1445.71 907.636,1445.71 908.601,1445.71 909.565,1445.71 910.53,1445.71 911.495,1445.71 912.459,1445.71 913.424,1445.71 914.389,1445.71 915.354,1445.71 916.318,1445.71 917.283,1445.71 918.248,1445.71 919.212,1445.71 920.177,1445.71 921.142,1445.71 922.106,1445.71 923.071,1445.71 924.036,1445.71 925.001,1445.71 925.965,1445.71 926.93,1445.71 927.895,1445.71 928.859,1445.71 929.824,1445.71 930.789,1445.71 931.753,1445.71 932.718,1445.71 933.683,1445.71 934.648,1445.71 935.612,1445.71 936.577,1445.71 937.542,1445.71 938.506,1445.71 939.471,1445.71 940.436,1445.71 941.4,1445.71 942.365,1445.71 943.33,1445.71 944.295,1445.71 945.259,1445.71 946.224,1445.71 947.189,1445.71 948.153,1445.71 949.118,1445.71 950.083,1445.71 951.047,1445.71 952.012,1445.71 952.977,1445.71 953.942,1445.71 954.906,1445.71 955.871,1445.71 956.836,1445.71 957.8,1445.71 958.765,1445.71 959.73,1445.71 960.694,1445.71 961.659,1445.71 962.624,1445.71 963.589,1445.71 964.553,1445.71 965.518,1445.71 966.483,1445.71 967.447,1445.71 968.412,1445.71 969.377,1445.71 970.341,1445.71 971.306,1445.71 972.271,1445.71 973.236,1445.71 974.2,1445.71 975.165,1445.71 976.13,1445.71 977.094,1445.71 978.059,1445.71 979.024,1445.71 979.988,1445.71 980.953,1445.71 981.918,1445.71 982.883,1445.71 983.847,1445.71 984.812,1445.71 985.777,1445.71 986.741,1445.71 987.706,1445.71 988.671,1445.71 989.635,1445.71 990.6,1445.71 991.565,1445.71 992.529,1445.71 993.494,1445.71 994.459,1445.71 995.424,1445.71 996.388,1445.71 997.353,1445.71 998.318,1445.71 999.282,1445.71 1000.25,1445.71 1001.21,1445.71 1002.18,1445.71 1003.14,1445.71 1004.11,1445.71 1005.07,1445.71 1006.04,1445.71 1007,1445.71 1007.96,1445.71 1008.93,1445.71 1009.89,1445.71 1010.86,1445.71 1011.82,1445.71 1012.79,1445.71 1013.75,1445.71 1014.72,1445.71 1015.68,1445.71 1016.65,1445.71 1017.61,1445.71 1018.58,1445.71 1019.54,1445.71 1020.51,1445.71 1021.47,1445.71 1022.44,1445.71 1023.4,1445.71 1024.36,1445.71 1025.33,1445.71 1026.29,1445.71 1027.26,1445.71 1028.22,1445.71 1029.19,1445.71 1030.15,1445.71 1031.12,1445.71 1032.08,1445.71 1033.05,1445.71 1034.01,1445.71 1034.98,1445.71 1035.94,1445.71 1036.91,1445.71 1037.87,1445.71 1038.84,1445.71 1039.8,1445.71 1040.76,1445.71 1041.73,1445.71 1042.69,1445.71 1043.66,1445.71 1044.62,1445.71 1045.59,1445.71 1046.55,1445.71 1047.52,1445.71 1048.48,1445.71 1049.45,1445.71 1050.41,1445.71 1051.38,1445.71 1052.34,1445.71 1053.31,1445.71 1054.27,1445.71 1055.23,1445.71 1056.2,1445.71 1057.16,1445.71 1058.13,1445.71 1059.09,1445.71 1060.06,1445.71 1061.02,1445.71 1061.99,1445.71 1062.95,1445.71 1063.92,1445.71 1064.88,1445.71 1065.85,1445.71 1066.81,1445.71 1067.78,1445.71 1068.74,1445.71 1069.71,1445.71 1070.67,1445.71 1071.63,1445.71 1072.6,1445.71 1073.56,1445.71 1074.53,1445.71 1075.49,1445.71 1076.46,1445.71 1077.42,1445.71 1078.39,1445.71 1079.35,1445.71 1080.32,1445.71 1081.28,1445.71 1082.25,1445.71 1083.21,1445.71 1084.18,1445.71 1085.14,1445.71 1086.11,1445.71 1087.07,1445.71 1088.03,1445.71 1089,1445.71 1089.96,1445.71 1090.93,1445.71 1091.89,1445.71 1092.86,1445.71 1093.82,1445.71 1094.79,1445.71 1095.75,1445.71 1096.72,1445.71 1097.68,1445.71 1098.65,1445.71 1099.61,1445.71 1100.58,1445.71 1101.54,1445.71 1102.51,1445.71 1103.47,1445.71 1104.43,1445.71 1105.4,1445.71 1106.36,1445.71 1107.33,1445.71 1108.29,1445.71 1109.26,1445.71 1110.22,1445.71 1111.19,1445.71 1112.15,1445.71 1113.12,1445.71 1114.08,1445.71 1115.05,1445.71 1116.01,1445.71 1116.98,1445.71 1117.94,1445.71 1118.91,1445.71 1119.87,1445.71 1120.83,1445.71 1121.8,1445.71 1122.76,1445.71 1123.73,1445.71 1124.69,1445.71 1125.66,1445.71 1126.62,1445.71 1127.59,1445.71 1128.55,1445.71 1129.52,1445.71 1130.48,1445.71 1131.45,1445.71 1132.41,1445.71 1133.38,1445.71 1134.34,1445.71 1135.31,1445.71 1136.27,1445.71 1137.23,1445.71 1138.2,1445.71 1139.16,1445.71 1140.13,1445.71 1141.09,1445.71 1142.06,1445.71 1143.02,1445.71 1143.99,1445.71 1144.95,1445.71 1145.92,1445.71 1146.88,1445.71 1147.85,1445.71 1148.81,1445.71 1149.78,1445.71 1150.74,1445.71 1151.7,1445.71 1152.67,1445.71 1153.63,1445.71 1154.6,1445.71 1155.56,1445.71 1156.53,1445.71 1157.49,1445.71 1158.46,1445.71 1159.42,1445.71 1160.39,1445.71 1161.35,1445.71 1162.32,1445.71 1163.28,1445.71 1164.25,1445.71 1165.21,1445.71 1166.18,1445.71 1167.14,1445.71 1168.1,1445.71 1169.07,1445.71 1170.03,1445.71 1171,1445.71 1171.96,1445.71 1172.93,1445.71 1173.89,1445.71 1174.86,1445.71 1175.82,1445.71 1176.79,1445.71 1177.75,1445.71 1178.72,1445.71 1179.68,1445.71 1180.65,1445.71 1181.61,1445.71 1182.58,1445.71 1183.54,1445.71 1184.5,1445.71 1185.47,1445.71 1186.43,1445.71 1187.4,1445.71 1188.36,1445.71 1189.33,1445.71 1190.29,1445.71 1191.26,1445.71 1192.22,1445.71 1193.19,1445.71 1194.15,1445.71 1195.12,1445.71 1196.08,1445.71 1197.05,1445.71 1198.01,1445.71 1198.98,1445.71 1199.94,1445.71 1200.9,1445.71 1201.87,1445.71 1202.83,1445.71 1203.8,1445.71 1204.76,1445.71 1205.73,1445.71 1206.69,1445.71 1207.66,1445.71 1208.62,1445.71 1209.59,1445.71 1210.55,1445.71 1211.52,1445.71 1212.48,1445.71 1213.45,1445.71 1214.41,1445.71 1215.38,1445.71 1216.34,1445.71 1217.3,1445.71 1218.27,1445.71 1219.23,1445.71 1220.2,1445.71 1221.16,1445.71 1222.13,1445.71 1223.09,1445.71 1224.06,1445.71 1225.02,1445.71 1225.99,1445.71 1226.95,1445.71 1227.92,1445.71 1228.88,1445.71 1229.85,1445.71 1230.81,1445.71 1231.77,1445.71 1232.74,1445.71 1233.7,1445.71 1234.67,1445.71 1235.63,1445.71 1236.6,1445.71 1237.56,1445.71 1238.53,1445.71 1239.49,1445.71 1240.46,1445.71 1241.42,1445.71 1242.39,1445.71 1243.35,1445.71 1244.32,1445.71 1245.28,1445.71 1246.25,1445.71 1247.21,1445.71 1248.17,1445.71 1249.14,1445.71 1250.1,1445.71 1251.07,1445.71 1252.03,1445.71 1253,1445.71 1253.96,1445.71 1254.93,1445.71 1255.89,1445.71 1256.86,1445.71 1257.82,1445.71 1258.79,1445.71 1259.75,1445.71 1260.72,1445.71 1261.68,1445.71 1262.65,1445.71 1263.61,1445.71 1264.57,1445.71 1265.54,1445.71 1266.5,1445.71 1267.47,1445.71 1268.43,1445.71 1269.4,1445.71 1270.36,1445.71 1271.33,1445.71 1272.29,1445.71 1273.26,1445.71 1274.22,1445.71 1275.19,1445.71 1276.15,1445.71 1277.12,1445.71 1278.08,1445.71 1279.05,1445.71 1280.01,1445.71 1280.97,1445.71 1281.94,1445.71 1282.9,1445.71 1283.87,1445.71 1284.83,1445.71 1285.8,1445.71 1286.76,1445.71 1287.73,1445.71 1288.69,1445.71 1289.66,1445.71 1290.62,1445.71 1291.59,1445.71 1292.55,1445.71 1293.52,1445.71 1294.48,1445.71 1295.45,1445.71 1296.41,1445.71 1297.37,1445.71 1298.34,1445.71 1299.3,1445.71 1300.27,1445.71 1301.23,1445.71 1302.2,1445.71 1303.16,1445.71 1304.13,1445.71 1305.09,1445.71 1306.06,1445.71 1307.02,1445.71 1307.99,1445.71 1308.95,1445.71 1309.92,1445.71 1310.88,1445.71 1311.85,1445.71 1312.81,1445.71 1313.77,1445.71 1314.74,1445.71 1315.7,1445.71 1316.67,1445.71 1317.63,1445.71 1318.6,1445.71 1319.56,1445.71 1320.53,1445.71 1321.49,1445.71 1322.46,1445.71 1323.42,1445.71 1324.39,1445.71 1325.35,1445.71 1326.32,1445.71 1327.28,1445.71 1328.24,1445.71 1329.21,1445.71 1330.17,1445.71 1331.14,1445.71 1332.1,1445.71 1333.07,1445.71 1334.03,1445.71 1335,1445.71 1335.96,1445.71 1336.93,1445.71 1337.89,1445.71 1338.86,1445.71 1339.82,1445.71 1340.79,1445.71 1341.75,1445.71 1342.72,1445.71 1343.68,1445.71 1344.64,1445.71 1345.61,1445.71 1346.57,1445.71 1347.54,1445.71 1348.5,1445.71 1349.47,1445.71 1350.43,1445.71 1351.4,1445.71 1352.36,1445.71 1353.33,1445.71 1354.29,1445.71 1355.26,1445.71 1356.22,1445.71 1357.19,1445.71 1358.15,1445.71 1359.12,1445.71 1360.08,1445.71 1361.04,1445.71 1362.01,1445.71 1362.97,1445.71 1363.94,1445.71 1364.9,1445.71 1365.87,1445.71 1366.83,1445.71 1367.8,1445.71 1368.76,1445.71 1369.73,1445.71 1370.69,1445.71 1371.66,1445.71 1372.62,1445.71 1373.59,1445.71 1374.55,1445.71 1375.52,1445.71 1376.48,1445.71 1377.44,1445.71 1378.41,1445.71 1379.37,1445.71 1380.34,1445.71 1381.3,1445.71 1382.27,1445.71 1383.23,1445.71 1384.2,1445.71 1385.16,1445.71 1386.13,1445.71 1387.09,1445.71 1388.06,1445.71 1389.02,1445.71 1389.99,1445.71 1390.95,1445.71 1391.92,1445.71 1392.88,1445.71 1393.84,1445.71 1394.81,1445.71 1395.77,1445.71 1396.74,1445.71 1397.7,1445.71 1398.67,1445.71 1399.63,1445.71 1400.6,1445.71 1401.56,1445.71 1402.53,1445.71 1403.49,1445.71 1404.46,1445.71 1405.42,1445.71 1406.39,1445.71 1407.35,1445.71 1408.32,1445.71 1409.28,1445.71 1410.24,1445.71 1411.21,1445.71 1412.17,1445.71 1413.14,1445.71 1414.1,1445.71 1415.07,1445.71 1416.03,1445.71 1417,1445.71 1417.96,1445.71 1418.93,1445.71 1419.89,1445.71 1420.86,1445.71 1421.82,1445.71 1422.79,1445.71 1423.75,1445.71 1424.71,1445.71 1425.68,1445.71 1426.64,1445.71 1427.61,1445.71 1428.57,1445.71 1429.54,1445.71 1430.5,1445.71 1431.47,1445.71 1432.43,1445.71 1433.4,1445.71 1434.36,1445.71 1435.33,1445.71 1436.29,1445.71 1437.26,1445.71 1438.22,1445.71 1439.19,1445.71 1440.15,1445.71 1441.11,1445.71 1442.08,1445.71 1443.04,1445.71 1444.01,1445.71 1444.97,1445.71 1445.94,1445.71 1446.9,1445.71 1447.87,1445.71 1448.83,1445.71 1449.8,1445.71 1450.76,1445.71 1451.73,1445.71 1452.69,1445.71 1453.66,1445.71 1454.62,1445.71 1455.59,1445.71 1456.55,1445.71 1457.51,1445.71 1458.48,1445.71 1459.44,1445.71 1460.41,1445.71 1461.37,1445.71 1462.34,1445.71 1463.3,1445.71 1464.27,1445.71 1465.23,1445.71 1466.2,1445.71 1467.16,1445.71 1468.13,1445.71 1469.09,1445.71 1470.06,1445.71 1471.02,1445.71 1471.99,1445.71 1472.95,1445.71 1473.91,1445.71 1474.88,1445.71 1475.84,1445.71 1476.81,1445.71 1477.77,1445.71 1478.74,1445.71 1479.7,1445.71 1480.67,1445.71 1481.63,1445.71 1482.6,1445.71 1483.56,1445.71 1484.53,1445.71 1485.49,1445.71 1486.46,1445.71 1487.42,1445.71 1488.39,1445.71 1489.35,1445.71 1490.31,1445.71 1491.28,1445.71 1492.24,1445.71 1493.21,1445.71 1494.17,1445.71 1495.14,1445.71 1496.1,1445.71 1497.07,1445.71 1498.03,1445.72 1499,1445.72 1499.96,1445.72 1500.93,1445.72 1501.89,1445.72 1502.86,1445.72 1503.82,1445.72 1504.78,1445.72 1505.75,1445.72 1506.71,1445.72 1507.68,1445.72 1508.64,1445.72 1509.61,1445.72 1510.57,1445.72 1511.54,1445.72 1512.5,1445.72 1513.47,1445.72 1514.43,1445.72 1515.4,1445.72 1516.36,1445.72 1517.33,1445.72 1518.29,1445.72 1519.26,1445.72 1520.22,1445.72 1521.18,1445.72 1522.15,1445.72 1523.11,1445.72 1524.08,1445.72 1525.04,1445.72 1526.01,1445.72 1526.97,1445.72 1527.94,1445.72 1528.9,1445.72 1529.87,1445.72 1530.83,1445.72 1531.8,1445.72 1532.76,1445.72 1533.73,1445.72 1534.69,1445.72 1535.66,1445.72 1536.62,1445.72 1537.58,1445.72 1538.55,1445.72 1539.51,1445.72 1540.48,1445.72 1541.44,1445.72 1542.41,1445.72 1543.37,1445.72 1544.34,1445.72 1545.3,1445.72 1546.27,1445.72 1547.23,1445.72 1548.2,1445.72 1549.16,1445.72 1550.13,1445.72 1551.09,1445.72 1552.06,1445.72 1553.02,1445.72 1553.98,1445.72 1554.95,1445.72 1555.91,1445.72 1556.88,1445.72 1557.84,1445.72 1558.81,1445.72 1559.77,1445.72 1560.74,1445.72 1561.7,1445.72 1562.67,1445.72 1563.63,1445.72 1564.6,1445.72 1565.56,1445.72 1566.53,1445.72 1567.49,1445.72 1568.46,1445.72 1569.42,1445.72 1570.38,1445.72 1571.35,1445.72 1572.31,1445.72 1573.28,1445.72 1574.24,1445.72 1575.21,1445.72 1576.17,1445.72 1577.14,1445.72 1578.1,1445.72 1579.07,1445.72 1580.03,1445.72 1581,1445.72 1581.96,1445.72 1582.93,1445.72 1583.89,1445.72 1584.86,1445.72 1585.82,1445.72 1586.78,1445.72 1587.75,1445.72 1588.71,1445.72 1589.68,1445.72 1590.64,1445.72 1591.61,1445.72 1592.57,1445.72 1593.54,1445.72 1594.5,1445.72 1595.47,1445.72 1596.43,1445.72 1597.4,1445.72 1598.36,1445.72 1599.33,1445.72 1600.29,1445.72 1601.25,1445.72 1602.22,1445.72 1603.18,1445.72 1604.15,1445.72 1605.11,1445.72 1606.08,1445.72 1607.04,1445.72 1608.01,1445.72 1608.97,1445.72 1609.94,1445.72 1610.9,1445.72 1611.87,1445.72 1612.83,1445.72 1613.8,1445.72 1614.76,1445.72 1615.73,1445.72 1616.69,1445.72 1617.65,1445.72 1618.62,1445.72 1619.58,1445.72 1620.55,1445.72 1621.51,1445.72 1622.48,1445.72 1623.44,1445.72 1624.41,1445.72 1625.37,1445.72 1626.34,1445.72 1627.3,1445.72 1628.27,1445.72 1629.23,1445.72 1630.2,1445.72 1631.16,1445.72 1632.13,1445.72 1633.09,1445.72 1634.05,1445.72 1635.02,1445.72 1635.98,1445.72 1636.95,1445.72 1637.91,1445.72 1638.88,1445.72 1639.84,1445.72 1640.81,1445.72 1641.77,1445.72 1642.74,1445.72 1643.7,1445.72 1644.67,1445.72 1645.63,1445.72 1646.6,1445.72 1647.56,1445.72 1648.53,1445.72 1649.49,1445.72 1650.45,1445.72 1651.42,1445.72 1652.38,1445.72 1653.35,1445.72 1654.31,1445.72 1655.28,1445.72 1656.24,1445.72 1657.21,1445.72 1658.17,1445.72 1659.14,1445.72 1660.1,1445.72 1661.07,1445.72 1662.03,1445.72 1663,1445.72 1663.96,1445.72 1664.93,1445.72 1665.89,1445.72 1666.85,1445.72 1667.82,1445.72 1668.78,1445.72 1669.75,1445.72 1670.71,1445.72 1671.68,1445.72 1672.64,1445.72 1673.61,1445.72 1674.57,1445.72 1675.54,1445.72 1676.5,1445.72 1677.47,1445.72 1678.43,1445.72 1679.4,1445.72 1680.36,1445.72 1681.32,1445.72 1682.29,1445.72 1683.25,1445.72 1684.22,1445.72 1685.18,1445.72 1686.15,1445.72 1687.11,1445.72 1688.08,1445.72 1689.04,1445.72 1690.01,1445.72 1690.97,1445.72 1691.94,1445.72 1692.9,1445.72 1693.87,1445.72 1694.83,1445.72 1695.8,1445.72 1696.76,1445.72 1697.72,1445.72 1698.69,1445.72 1699.65,1445.72 1700.62,1445.72 1701.58,1445.72 1702.55,1445.72 1703.51,1445.72 1704.48,1445.72 1705.44,1445.72 1706.41,1445.72 1707.37,1445.72 1708.34,1445.72 1709.3,1445.72 1710.27,1445.72 1711.23,1445.72 1712.2,1445.72 1713.16,1445.72 1714.12,1445.72 1715.09,1445.72 1716.05,1445.72 1717.02,1445.72 1717.98,1445.72 1718.95,1445.72 1719.91,1445.72 1720.88,1445.72 1721.84,1445.72 1722.81,1445.72 1723.77,1445.72 1724.74,1445.72 1725.7,1445.72 1726.67,1445.72 1727.63,1445.72 1728.6,1445.72 1729.56,1445.72 1730.52,1445.72 1731.49,1445.72 1732.45,1445.72 1733.42,1445.72 1734.38,1445.72 1735.35,1445.72 1736.31,1445.72 1737.28,1445.72 1738.24,1445.72 1739.21,1445.72 1740.17,1445.72 1741.14,1445.72 1742.1,1445.72 1743.07,1445.72 1744.03,1445.72 1745,1445.72 1745.96,1445.72 1746.92,1445.72 1747.89,1445.72 1748.85,1445.72 1749.82,1445.72 1750.78,1445.72 1751.75,1445.72 1752.71,1445.72 1753.68,1445.72 1754.64,1445.72 1755.61,1445.72 1756.57,1445.72 1757.54,1445.72 1758.5,1445.72 1759.47,1445.72 1760.43,1445.72 1761.4,1445.72 1762.36,1445.72 1763.32,1445.72 1764.29,1445.72 1765.25,1445.72 1766.22,1445.72 1767.18,1445.72 1768.15,1445.72 1769.11,1445.72 1770.08,1445.72 1771.04,1445.72 1772.01,1445.72 1772.97,1445.72 1773.94,1445.72 1774.9,1445.72 1775.87,1445.72 1776.83,1445.72 1777.79,1445.72 1778.76,1445.72 1779.72,1445.72 1780.69,1445.72 1781.65,1445.72 1782.62,1445.72 1783.58,1445.72 1784.55,1445.72 1785.51,1445.72 1786.48,1445.72 1787.44,1445.72 1788.41,1445.72 1789.37,1445.72 1790.34,1445.72 1791.3,1445.72 1792.27,1445.72 1793.23,1445.72 1794.19,1445.72 1795.16,1445.72 1796.12,1445.72 1797.09,1445.72 1798.05,1445.72 1799.02,1445.72 1799.98,1445.72 1800.95,1445.72 1801.91,1445.72 1802.88,1445.72 1803.84,1445.72 1804.81,1445.72 1805.77,1445.72 1806.74,1445.72 1807.7,1445.72 1808.67,1445.72 1809.63,1445.72 1810.59,1445.72 1811.56,1445.72 1812.52,1445.72 1813.49,1445.72 1814.45,1445.72 1815.42,1445.72 1816.38,1445.72 1817.35,1445.72 1818.31,1445.72 1819.28,1445.72 1820.24,1445.72 1821.21,1445.72 1822.17,1445.72 1823.14,1445.72 1824.1,1445.72 1825.07,1445.72 1826.03,1445.72 1826.99,1445.72 1827.96,1445.72 1828.92,1445.72 1829.89,1445.72 1830.85,1445.72 1831.82,1445.72 1832.78,1445.72 1833.75,1445.72 1834.71,1445.72 1835.68,1445.72 1836.64,1445.72 1837.61,1445.72 1838.57,1445.72 1839.54,1445.72 1840.5,1445.72 1841.47,1445.72 1842.43,1445.72 1843.39,1445.72 1844.36,1445.72 1845.32,1445.72 1846.29,1445.72 1847.25,1445.72 1848.22,1445.72 1849.18,1445.72 1850.15,1445.72 1851.11,1445.72 1852.08,1445.72 1853.04,1445.72 1854.01,1445.72 1854.97,1445.72 1855.94,1445.72 1856.9,1445.72 1857.87,1445.72 1858.83,1445.72 1859.79,1445.72 1860.76,1445.72 1861.72,1445.72 1862.69,1445.72 1863.65,1445.72 1864.62,1445.72 1865.58,1445.72 1866.55,1445.72 1867.51,1445.72 1868.48,1445.72 1869.44,1445.72 1870.41,1445.72 1871.37,1445.72 1872.34,1445.72 1873.3,1445.72 1874.26,1445.72 1875.23,1445.72 1876.19,1445.72 1877.16,1445.72 1878.12,1445.72 1879.09,1445.72 1880.05,1445.72 1881.02,1445.72 1881.98,1445.72 1882.95,1445.72 1883.91,1445.72 1884.88,1445.72 1885.84,1445.72 1886.81,1445.72 1887.77,1445.72 1888.74,1445.72 1889.7,1445.72 1890.66,1445.72 1891.63,1445.72 1892.59,1445.72 1893.56,1445.72 1894.52,1445.72 1895.49,1445.72 1896.45,1445.72 1897.42,1445.72 1898.38,1445.72 1899.35,1445.72 1900.31,1445.72 1901.28,1445.72 1902.24,1445.72 1903.21,1445.72 1904.17,1445.72 1905.14,1445.72 1906.1,1445.72 1907.06,1445.72 1908.03,1445.72 1908.99,1445.72 1909.96,1445.72 1910.92,1445.72 1911.89,1445.72 1912.85,1445.72 1913.82,1445.72 1914.78,1445.72 1915.75,1445.72 1916.71,1445.72 1917.68,1445.72 1918.64,1445.72 1919.61,1445.72 1920.57,1445.72 1921.54,1445.72 1922.5,1445.72 1923.46,1445.72 1924.43,1445.72 1925.39,1445.72 1926.36,1445.72 1927.32,1445.72 1928.29,1445.72 1929.25,1445.72 1930.22,1445.72 1931.18,1445.72 1932.15,1445.72 1933.11,1445.72 1934.08,1445.72 1935.04,1445.72 1936.01,1445.72 1936.97,1445.72 1937.94,1445.72 1938.9,1445.72 1939.86,1445.72 1940.83,1445.72 1941.79,1445.72 1942.76,1445.72 1943.72,1445.72 1944.69,1445.72 1945.65,1445.72 1946.62,1445.72 1947.58,1445.72 1948.55,1445.72 1949.51,1445.72 1950.48,1445.72 1951.44,1445.72 1952.41,1445.72 1953.37,1445.72 1954.33,1445.72 1955.3,1445.72 1956.26,1445.72 1957.23,1445.72 1958.19,1445.72 1959.16,1445.72 1960.12,1445.72 1961.09,1445.72 1962.05,1445.72 1963.02,1445.72 1963.98,1445.72 1964.95,1445.72 1965.91,1445.72 1966.88,1445.72 1967.84,1445.72 1968.81,1445.72 1969.77,1445.72 1970.73,1445.72 1971.7,1445.72 1972.66,1445.72 1973.63,1445.72 1974.59,1445.72 1975.56,1445.72 1976.52,1445.72 1977.49,1445.72 1978.45,1445.72 1979.42,1445.72 1980.38,1445.72 1981.35,1445.72 1982.31,1445.72 1983.28,1445.72 1984.24,1445.72 1985.21,1445.72 1986.17,1445.72 1987.13,1445.72 1988.1,1445.72 1989.06,1445.72 1990.03,1445.72 1990.99,1445.72 1991.96,1445.72 1992.92,1445.72 1993.89,1445.72 1994.85,1445.72 1995.82,1445.72 1996.78,1445.72 1997.75,1445.72 1998.71,1445.72 1999.68,1445.72 2000.64,1445.72 2001.61,1445.72 2002.57,1445.72 2003.53,1445.72 2004.5,1445.72 2005.46,1445.72 2006.43,1445.72 2007.39,1445.72 2008.36,1445.72 2009.32,1445.72 2010.29,1445.72 2011.25,1445.72 2012.22,1445.72 2013.18,1445.72 2014.15,1445.72 2015.11,1445.72 2016.08,1445.72 2017.04,1445.72 2018.01,1445.72 2018.97,1445.72 2019.93,1445.72 2020.9,1445.72 2021.86,1445.72 2022.83,1445.72 2023.79,1445.72 2024.76,1445.72 2025.72,1445.72 2026.69,1445.72 2027.65,1445.72 2028.62,1445.72 2029.58,1445.72 2030.55,1445.72 2031.51,1445.72 2032.48,1445.72 2033.44,1445.72 2034.41,1445.72 2035.37,1445.72 2036.33,1445.72 2037.3,1445.72 2038.26,1445.72 2039.23,1445.72 2040.19,1445.72 2041.16,1445.72 2042.12,1445.72 2043.09,1445.72 2044.05,1445.72 2045.02,1445.72 2045.98,1445.72 2046.95,1445.72 2047.91,1445.72 2048.88,1445.72 2049.84,1445.72 2050.8,1445.72 2051.77,1445.72 2052.73,1445.72 2053.7,1445.72 2054.66,1445.72 2055.63,1445.72 2056.59,1445.72 2057.56,1445.72 2058.52,1445.72 2059.49,1445.72 2060.45,1445.72 2061.42,1445.72 2062.38,1445.72 2063.35,1445.72 2064.31,1445.72 2065.28,1445.72 2066.24,1445.72 2067.2,1445.72 2068.17,1445.72 2069.13,1445.72 2070.1,1445.72 2071.06,1445.72 2072.03,1445.72 2072.99,1445.72 2073.96,1445.72 2074.92,1445.72 2075.89,1445.72 2076.85,1445.72 2077.82,1445.72 2078.78,1445.72 2079.75,1445.72 2080.71,1445.72 2081.68,1445.72 2082.64,1445.72 2083.6,1445.72 2084.57,1445.72 2085.53,1445.72 2086.5,1445.72 2087.46,1445.72 2088.43,1445.72 2089.39,1445.72 2090.36,1445.72 2091.32,1445.72 2092.29,1445.72 2093.25,1445.72 2094.22,1445.72 2095.18,1445.72 2096.15,1445.72 2097.11,1445.72 2098.08,1445.72 2099.04,1445.72 2100,1445.72 2100.97,1445.72 2101.93,1445.72 2102.9,1445.72 2103.86,1445.72 2104.83,1445.72 2105.79,1445.72 2106.76,1445.72 2107.72,1445.72 2108.69,1445.72 2109.65,1445.72 2110.62,1445.72 2111.58,1445.72 2112.55,1445.72 2113.51,1445.72 2114.48,1445.72 2115.44,1445.72 2116.4,1445.72 2117.37,1445.72 2118.33,1445.72 2119.3,1445.72 2120.26,1445.72 2121.23,1445.72 2122.19,1445.72 2123.16,1445.72 2124.12,1445.72 2125.09,1445.72 2126.05,1445.72 2127.02,1445.72 2127.98,1445.72 2128.95,1445.72 2129.91,1445.72 2130.88,1445.72 2131.84,1445.72 2132.8,1445.72 2133.77,1445.72 2134.73,1445.72 2135.7,1445.72 2136.66,1445.72 2137.63,1445.72 2138.59,1445.72 2139.56,1445.72 2140.52,1445.72 2141.49,1445.72 2142.45,1445.72 2143.42,1445.72 2144.38,1445.72 2145.35,1445.72 2146.31,1445.72 2147.27,1445.72 2148.24,1445.72 2149.2,1445.72 2150.17,1445.72 2151.13,1445.72 2152.1,1445.72 2153.06,1445.72 2154.03,1445.72 2154.99,1445.72 2155.96,1445.72 2156.92,1445.72 2157.89,1445.72 2158.85,1445.72 2159.82,1445.72 2160.78,1445.72 2161.75,1445.72 2162.71,1445.72 2163.67,1445.72 2164.64,1445.72 2165.6,1445.72 2166.57,1445.72 2167.53,1445.72 2168.5,1445.72 2169.46,1445.72 2170.43,1445.72 2171.39,1445.72 2172.36,1445.72 2173.32,1445.72 2174.29,1445.72 2175.25,1445.72 2176.22,1445.72 2177.18,1445.72 2178.15,1445.72 2179.11,1445.72 2180.07,1445.72 2181.04,1445.72 2182,1445.72 2182.97,1445.72 2183.93,1445.72 2184.9,1445.72 2185.86,1445.72 2186.83,1445.72 2187.79,1445.72 2188.76,1445.72 2189.72,1445.72 2190.69,1445.72 2191.65,1445.72 2192.62,1445.72 2193.58,1445.72 2194.55,1445.72 2195.51,1445.72 2196.47,1445.72 2197.44,1445.72 2198.4,1445.72 2199.37,1445.72 2200.33,1445.72 2201.3,1445.72 2202.26,1445.72 2203.23,1445.72 2204.19,1445.72 2205.16,1445.72 2206.12,1445.72 2207.09,1445.72 2208.05,1445.72 2209.02,1445.72 2209.98,1445.72 2210.95,1445.72 2211.91,1445.72 2212.87,1445.72 2213.84,1445.72 2214.8,1445.72 2215.77,1445.72 2216.73,1445.72 2217.7,1445.72 2218.66,1445.72 2219.63,1445.72 2220.59,1445.72 2221.56,1445.72 2222.52,1445.72 2223.49,1445.72 2224.45,1445.72 2225.42,1445.72 2226.38,1445.72 2227.34,1445.72 2228.31,1445.72 2229.27,1445.72 2230.24,1445.72 2231.2,1445.72 2232.17,1445.72 2233.13,1445.72 2234.1,1445.72 2235.06,1445.72 2236.03,1445.72 2236.99,1445.72 2237.96,1445.72 2238.92,1445.72 2239.89,1445.72 2240.85,1445.72 2241.82,1445.72 2242.78,1445.72 2243.74,1445.72 2244.71,1445.72 2245.67,1445.72 2246.64,1445.72 2247.6,1445.72 2248.57,1445.72 2249.53,1445.72 2250.5,1445.72 2251.46,1445.72 2252.43,1445.72 2253.39,1445.72 2254.36,1445.72 2255.32,1445.72 2256.29,1445.72 2257.25,1445.72 2258.22,1445.72 2259.18,1445.72 2260.14,1445.72 2261.11,1445.72 2262.07,1445.72 2263.04,1445.72 2264,1445.72 2264.97,1445.72 2265.93,1445.72 2266.9,1445.72 2267.86,1445.72 2268.83,1445.72 2269.79,1445.72 2270.76,1445.72 2271.72,1445.72 2272.69,1445.72 2273.65,1445.72 2274.62,1445.72 2275.58,1445.72 2276.54,1445.72 2277.51,1445.72 2278.47,1445.72 2279.44,1445.72 2280.4,1445.72 2281.37,1445.72 2282.33,1445.72 2283.3,1445.72 2284.26,1445.72 2285.23,1445.72 2286.19,1445.72 2287.16,1445.72 2288.12,1445.72 2289.09,1445.72 2290.05,1445.72 2291.02,1445.72 2291.98,1445.72 2292.94,1445.72 2293.91,1445.72 2294.87,1445.72 "/>
<path clip-path="url(#clip280)" d="M2027.64 198.898 L2284.58 198.898 L2284.58 95.2176 L2027.64 95.2176  Z" fill="#ffffff" fill-rule="evenodd" fill-opacity="1"/>
<polyline clip-path="url(#clip280)" style="stroke:#000000; stroke-linecap:round; stroke-linejoin:round; stroke-width:4; stroke-opacity:1; fill:none" points="2027.64,198.898 2284.58,198.898 2284.58,95.2176 2027.64,95.2176 2027.64,198.898 "/>
<polyline clip-path="url(#clip280)" style="stroke:#009af9; stroke-linecap:round; stroke-linejoin:round; stroke-width:4; stroke-opacity:1; fill:none" points="2050.36,147.058 2186.71,147.058 "/>
<path clip-path="url(#clip280)" d="M2223.27 166.745 Q2221.47 171.375 2219.75 172.787 Q2218.04 174.199 2215.17 174.199 L2211.77 174.199 L2211.77 170.634 L2214.27 170.634 Q2216.03 170.634 2217 169.8 Q2217.97 168.967 2219.15 165.865 L2219.92 163.921 L2209.43 138.412 L2213.94 138.412 L2222.05 158.689 L2230.15 138.412 L2234.66 138.412 L2223.27 166.745 Z" fill="#000000" fill-rule="nonzero" fill-opacity="1" /><path clip-path="url(#clip280)" d="M2241.95 160.402 L2249.59 160.402 L2249.59 134.037 L2241.28 135.703 L2241.28 131.444 L2249.55 129.778 L2254.22 129.778 L2254.22 160.402 L2261.86 160.402 L2261.86 164.338 L2241.95 164.338 L2241.95 160.402 Z" fill="#000000" fill-rule="nonzero" fill-opacity="1" /></svg>
