<?xml version="1.0" encoding="utf-8"?>
<svg xmlns="http://www.w3.org/2000/svg" xmlns:xlink="http://www.w3.org/1999/xlink" width="600" height="400" viewBox="0 0 2400 1600">
<defs>
  <clipPath id="clip370">
    <rect x="0" y="0" width="2400" height="1600"/>
  </clipPath>
</defs>
<path clip-path="url(#clip370)" d="M0 1600 L2400 1600 L2400 0 L0 0  Z" fill="#ffffff" fill-rule="evenodd" fill-opacity="1"/>
<defs>
  <clipPath id="clip371">
    <rect x="480" y="0" width="1681" height="1600"/>
  </clipPath>
</defs>
<path clip-path="url(#clip370)" d="M239.19 1486.45 L2352.76 1486.45 L2352.76 47.2441 L239.19 47.2441  Z" fill="#ffffff" fill-rule="evenodd" fill-opacity="1"/>
<defs>
  <clipPath id="clip372">
    <rect x="239" y="47" width="2115" height="1440"/>
  </clipPath>
</defs>
<polyline clip-path="url(#clip372)" style="stroke:#000000; stroke-linecap:round; stroke-linejoin:round; stroke-width:2; stroke-opacity:0.1; fill:none" points="299.008,1486.45 299.008,47.2441 "/>
<polyline clip-path="url(#clip372)" style="stroke:#000000; stroke-linecap:round; stroke-linejoin:round; stroke-width:2; stroke-opacity:0.1; fill:none" points="797.74,1486.45 797.74,47.2441 "/>
<polyline clip-path="url(#clip372)" style="stroke:#000000; stroke-linecap:round; stroke-linejoin:round; stroke-width:2; stroke-opacity:0.1; fill:none" points="1296.47,1486.45 1296.47,47.2441 "/>
<polyline clip-path="url(#clip372)" style="stroke:#000000; stroke-linecap:round; stroke-linejoin:round; stroke-width:2; stroke-opacity:0.1; fill:none" points="1795.2,1486.45 1795.2,47.2441 "/>
<polyline clip-path="url(#clip372)" style="stroke:#000000; stroke-linecap:round; stroke-linejoin:round; stroke-width:2; stroke-opacity:0.1; fill:none" points="2293.94,1486.45 2293.94,47.2441 "/>
<polyline clip-path="url(#clip370)" style="stroke:#000000; stroke-linecap:round; stroke-linejoin:round; stroke-width:4; stroke-opacity:1; fill:none" points="239.19,1486.45 2352.76,1486.45 "/>
<polyline clip-path="url(#clip370)" style="stroke:#000000; stroke-linecap:round; stroke-linejoin:round; stroke-width:4; stroke-opacity:1; fill:none" points="299.008,1486.45 299.008,1467.55 "/>
<polyline clip-path="url(#clip370)" style="stroke:#000000; stroke-linecap:round; stroke-linejoin:round; stroke-width:4; stroke-opacity:1; fill:none" points="797.74,1486.45 797.74,1467.55 "/>
<polyline clip-path="url(#clip370)" style="stroke:#000000; stroke-linecap:round; stroke-linejoin:round; stroke-width:4; stroke-opacity:1; fill:none" points="1296.47,1486.45 1296.47,1467.55 "/>
<polyline clip-path="url(#clip370)" style="stroke:#000000; stroke-linecap:round; stroke-linejoin:round; stroke-width:4; stroke-opacity:1; fill:none" points="1795.2,1486.45 1795.2,1467.55 "/>
<polyline clip-path="url(#clip370)" style="stroke:#000000; stroke-linecap:round; stroke-linejoin:round; stroke-width:4; stroke-opacity:1; fill:none" points="2293.94,1486.45 2293.94,1467.55 "/>
<path clip-path="url(#clip370)" d="M299.008 1517.37 Q295.397 1517.37 293.568 1520.93 Q291.763 1524.47 291.763 1531.6 Q291.763 1538.71 293.568 1542.27 Q295.397 1545.82 299.008 1545.82 Q302.643 1545.82 304.448 1542.27 Q306.277 1538.71 306.277 1531.6 Q306.277 1524.47 304.448 1520.93 Q302.643 1517.37 299.008 1517.37 M299.008 1513.66 Q304.818 1513.66 307.874 1518.27 Q310.953 1522.85 310.953 1531.6 Q310.953 1540.33 307.874 1544.94 Q304.818 1549.52 299.008 1549.52 Q293.198 1549.52 290.119 1544.94 Q287.064 1540.33 287.064 1531.6 Q287.064 1522.85 290.119 1518.27 Q293.198 1513.66 299.008 1513.66 Z" fill="#000000" fill-rule="nonzero" fill-opacity="1" /><path clip-path="url(#clip370)" d="M757.358 1514.29 L775.715 1514.29 L775.715 1518.22 L761.641 1518.22 L761.641 1526.7 Q762.659 1526.35 763.678 1526.19 Q764.696 1526 765.715 1526 Q771.502 1526 774.881 1529.17 Q778.261 1532.34 778.261 1537.76 Q778.261 1543.34 774.789 1546.44 Q771.317 1549.52 764.997 1549.52 Q762.821 1549.52 760.553 1549.15 Q758.307 1548.78 755.9 1548.04 L755.9 1543.34 Q757.983 1544.47 760.206 1545.03 Q762.428 1545.58 764.905 1545.58 Q768.909 1545.58 771.247 1543.48 Q773.585 1541.37 773.585 1537.76 Q773.585 1534.15 771.247 1532.04 Q768.909 1529.94 764.905 1529.94 Q763.03 1529.94 761.155 1530.35 Q759.303 1530.77 757.358 1531.65 L757.358 1514.29 Z" fill="#000000" fill-rule="nonzero" fill-opacity="1" /><path clip-path="url(#clip370)" d="M797.474 1517.37 Q793.863 1517.37 792.034 1520.93 Q790.229 1524.47 790.229 1531.6 Q790.229 1538.71 792.034 1542.27 Q793.863 1545.82 797.474 1545.82 Q801.108 1545.82 802.914 1542.27 Q804.742 1538.71 804.742 1531.6 Q804.742 1524.47 802.914 1520.93 Q801.108 1517.37 797.474 1517.37 M797.474 1513.66 Q803.284 1513.66 806.34 1518.27 Q809.418 1522.85 809.418 1531.6 Q809.418 1540.33 806.34 1544.94 Q803.284 1549.52 797.474 1549.52 Q791.664 1549.52 788.585 1544.94 Q785.529 1540.33 785.529 1531.6 Q785.529 1522.85 788.585 1518.27 Q791.664 1513.66 797.474 1513.66 Z" fill="#000000" fill-rule="nonzero" fill-opacity="1" /><path clip-path="url(#clip370)" d="M827.636 1517.37 Q824.025 1517.37 822.196 1520.93 Q820.39 1524.47 820.39 1531.6 Q820.39 1538.71 822.196 1542.27 Q824.025 1545.82 827.636 1545.82 Q831.27 1545.82 833.076 1542.27 Q834.904 1538.71 834.904 1531.6 Q834.904 1524.47 833.076 1520.93 Q831.27 1517.37 827.636 1517.37 M827.636 1513.66 Q833.446 1513.66 836.501 1518.27 Q839.58 1522.85 839.58 1531.6 Q839.58 1540.33 836.501 1544.94 Q833.446 1549.52 827.636 1549.52 Q821.826 1549.52 818.747 1544.94 Q815.691 1540.33 815.691 1531.6 Q815.691 1522.85 818.747 1518.27 Q821.826 1513.66 827.636 1513.66 Z" fill="#000000" fill-rule="nonzero" fill-opacity="1" /><path clip-path="url(#clip370)" d="M1241 1544.91 L1248.64 1544.91 L1248.64 1518.55 L1240.33 1520.21 L1240.33 1515.95 L1248.59 1514.29 L1253.27 1514.29 L1253.27 1544.91 L1260.9 1544.91 L1260.9 1548.85 L1241 1548.85 L1241 1544.91 Z" fill="#000000" fill-rule="nonzero" fill-opacity="1" /><path clip-path="url(#clip370)" d="M1280.35 1517.37 Q1276.74 1517.37 1274.91 1520.93 Q1273.1 1524.47 1273.1 1531.6 Q1273.1 1538.71 1274.91 1542.27 Q1276.74 1545.82 1280.35 1545.82 Q1283.98 1545.82 1285.79 1542.27 Q1287.62 1538.71 1287.62 1531.6 Q1287.62 1524.47 1285.79 1520.93 Q1283.98 1517.37 1280.35 1517.37 M1280.35 1513.66 Q1286.16 1513.66 1289.21 1518.27 Q1292.29 1522.85 1292.29 1531.6 Q1292.29 1540.33 1289.21 1544.94 Q1286.16 1549.52 1280.35 1549.52 Q1274.54 1549.52 1271.46 1544.94 Q1268.4 1540.33 1268.4 1531.6 Q1268.4 1522.85 1271.46 1518.27 Q1274.54 1513.66 1280.35 1513.66 Z" fill="#000000" fill-rule="nonzero" fill-opacity="1" /><path clip-path="url(#clip370)" d="M1310.51 1517.37 Q1306.9 1517.37 1305.07 1520.93 Q1303.27 1524.47 1303.27 1531.6 Q1303.27 1538.71 1305.07 1542.27 Q1306.9 1545.82 1310.51 1545.82 Q1314.15 1545.82 1315.95 1542.27 Q1317.78 1538.71 1317.78 1531.6 Q1317.78 1524.47 1315.95 1520.93 Q1314.15 1517.37 1310.51 1517.37 M1310.51 1513.66 Q1316.32 1513.66 1319.38 1518.27 Q1322.46 1522.85 1322.46 1531.6 Q1322.46 1540.33 1319.38 1544.94 Q1316.32 1549.52 1310.51 1549.52 Q1304.7 1549.52 1301.62 1544.94 Q1298.57 1540.33 1298.57 1531.6 Q1298.57 1522.85 1301.62 1518.27 Q1304.7 1513.66 1310.51 1513.66 Z" fill="#000000" fill-rule="nonzero" fill-opacity="1" /><path clip-path="url(#clip370)" d="M1340.67 1517.37 Q1337.06 1517.37 1335.23 1520.93 Q1333.43 1524.47 1333.43 1531.6 Q1333.43 1538.71 1335.23 1542.27 Q1337.06 1545.82 1340.67 1545.82 Q1344.31 1545.82 1346.11 1542.27 Q1347.94 1538.71 1347.94 1531.6 Q1347.94 1524.47 1346.11 1520.93 Q1344.31 1517.37 1340.67 1517.37 M1340.67 1513.66 Q1346.48 1513.66 1349.54 1518.27 Q1352.62 1522.85 1352.62 1531.6 Q1352.62 1540.33 1349.54 1544.94 Q1346.48 1549.52 1340.67 1549.52 Q1334.86 1549.52 1331.78 1544.94 Q1328.73 1540.33 1328.73 1531.6 Q1328.73 1522.85 1331.78 1518.27 Q1334.86 1513.66 1340.67 1513.66 Z" fill="#000000" fill-rule="nonzero" fill-opacity="1" /><path clip-path="url(#clip370)" d="M1739.73 1544.91 L1747.37 1544.91 L1747.37 1518.55 L1739.06 1520.21 L1739.06 1515.95 L1747.32 1514.29 L1752 1514.29 L1752 1544.91 L1759.64 1544.91 L1759.64 1548.85 L1739.73 1548.85 L1739.73 1544.91 Z" fill="#000000" fill-rule="nonzero" fill-opacity="1" /><path clip-path="url(#clip370)" d="M1769.13 1514.29 L1787.48 1514.29 L1787.48 1518.22 L1773.41 1518.22 L1773.41 1526.7 Q1774.43 1526.35 1775.45 1526.19 Q1776.47 1526 1777.48 1526 Q1783.27 1526 1786.65 1529.17 Q1790.03 1532.34 1790.03 1537.76 Q1790.03 1543.34 1786.56 1546.44 Q1783.09 1549.52 1776.77 1549.52 Q1774.59 1549.52 1772.32 1549.15 Q1770.08 1548.78 1767.67 1548.04 L1767.67 1543.34 Q1769.75 1544.47 1771.97 1545.03 Q1774.2 1545.58 1776.67 1545.58 Q1780.68 1545.58 1783.02 1543.48 Q1785.35 1541.37 1785.35 1537.76 Q1785.35 1534.15 1783.02 1532.04 Q1780.68 1529.94 1776.67 1529.94 Q1774.8 1529.94 1772.92 1530.35 Q1771.07 1530.77 1769.13 1531.65 L1769.13 1514.29 Z" fill="#000000" fill-rule="nonzero" fill-opacity="1" /><path clip-path="url(#clip370)" d="M1809.24 1517.37 Q1805.63 1517.37 1803.8 1520.93 Q1802 1524.47 1802 1531.6 Q1802 1538.71 1803.8 1542.27 Q1805.63 1545.82 1809.24 1545.82 Q1812.88 1545.82 1814.68 1542.27 Q1816.51 1538.71 1816.51 1531.6 Q1816.51 1524.47 1814.68 1520.93 Q1812.88 1517.37 1809.24 1517.37 M1809.24 1513.66 Q1815.05 1513.66 1818.11 1518.27 Q1821.19 1522.85 1821.19 1531.6 Q1821.19 1540.33 1818.11 1544.94 Q1815.05 1549.52 1809.24 1549.52 Q1803.43 1549.52 1800.35 1544.94 Q1797.3 1540.33 1797.3 1531.6 Q1797.3 1522.85 1800.35 1518.27 Q1803.43 1513.66 1809.24 1513.66 Z" fill="#000000" fill-rule="nonzero" fill-opacity="1" /><path clip-path="url(#clip370)" d="M1839.4 1517.37 Q1835.79 1517.37 1833.97 1520.93 Q1832.16 1524.47 1832.16 1531.6 Q1832.16 1538.71 1833.97 1542.27 Q1835.79 1545.82 1839.4 1545.82 Q1843.04 1545.82 1844.84 1542.27 Q1846.67 1538.71 1846.67 1531.6 Q1846.67 1524.47 1844.84 1520.93 Q1843.04 1517.37 1839.4 1517.37 M1839.4 1513.66 Q1845.21 1513.66 1848.27 1518.27 Q1851.35 1522.85 1851.35 1531.6 Q1851.35 1540.33 1848.27 1544.94 Q1845.21 1549.52 1839.4 1549.52 Q1833.59 1549.52 1830.52 1544.94 Q1827.46 1540.33 1827.46 1531.6 Q1827.46 1522.85 1830.52 1518.27 Q1833.59 1513.66 1839.4 1513.66 Z" fill="#000000" fill-rule="nonzero" fill-opacity="1" /><path clip-path="url(#clip370)" d="M2242.55 1544.91 L2258.87 1544.91 L2258.87 1548.85 L2236.92 1548.85 L2236.92 1544.91 Q2239.58 1542.16 2244.17 1537.53 Q2248.77 1532.88 2249.95 1531.53 Q2252.2 1529.01 2253.08 1527.27 Q2253.98 1525.51 2253.98 1523.82 Q2253.98 1521.07 2252.04 1519.33 Q2250.12 1517.6 2247.01 1517.6 Q2244.82 1517.6 2242.36 1518.36 Q2239.93 1519.13 2237.15 1520.68 L2237.15 1515.95 Q2239.98 1514.82 2242.43 1514.24 Q2244.88 1513.66 2246.92 1513.66 Q2252.29 1513.66 2255.49 1516.35 Q2258.68 1519.03 2258.68 1523.52 Q2258.68 1525.65 2257.87 1527.57 Q2257.08 1529.47 2254.98 1532.07 Q2254.4 1532.74 2251.3 1535.95 Q2248.19 1539.15 2242.55 1544.91 Z" fill="#000000" fill-rule="nonzero" fill-opacity="1" /><path clip-path="url(#clip370)" d="M2278.68 1517.37 Q2275.07 1517.37 2273.24 1520.93 Q2271.44 1524.47 2271.44 1531.6 Q2271.44 1538.71 2273.24 1542.27 Q2275.07 1545.82 2278.68 1545.82 Q2282.32 1545.82 2284.12 1542.27 Q2285.95 1538.71 2285.95 1531.6 Q2285.95 1524.47 2284.12 1520.93 Q2282.32 1517.37 2278.68 1517.37 M2278.68 1513.66 Q2284.49 1513.66 2287.55 1518.27 Q2290.63 1522.85 2290.63 1531.6 Q2290.63 1540.33 2287.55 1544.94 Q2284.49 1549.52 2278.68 1549.52 Q2272.87 1549.52 2269.79 1544.94 Q2266.74 1540.33 2266.74 1531.6 Q2266.74 1522.85 2269.79 1518.27 Q2272.87 1513.66 2278.68 1513.66 Z" fill="#000000" fill-rule="nonzero" fill-opacity="1" /><path clip-path="url(#clip370)" d="M2308.84 1517.37 Q2305.23 1517.37 2303.4 1520.93 Q2301.6 1524.47 2301.6 1531.6 Q2301.6 1538.71 2303.4 1542.27 Q2305.23 1545.82 2308.84 1545.82 Q2312.48 1545.82 2314.28 1542.27 Q2316.11 1538.71 2316.11 1531.6 Q2316.11 1524.47 2314.28 1520.93 Q2312.48 1517.37 2308.84 1517.37 M2308.84 1513.66 Q2314.65 1513.66 2317.71 1518.27 Q2320.79 1522.85 2320.79 1531.6 Q2320.79 1540.33 2317.71 1544.94 Q2314.65 1549.52 2308.84 1549.52 Q2303.03 1549.52 2299.95 1544.94 Q2296.9 1540.33 2296.9 1531.6 Q2296.9 1522.85 2299.95 1518.27 Q2303.03 1513.66 2308.84 1513.66 Z" fill="#000000" fill-rule="nonzero" fill-opacity="1" /><path clip-path="url(#clip370)" d="M2339 1517.37 Q2335.39 1517.37 2333.56 1520.93 Q2331.76 1524.47 2331.76 1531.6 Q2331.76 1538.71 2333.56 1542.27 Q2335.39 1545.82 2339 1545.82 Q2342.64 1545.82 2344.44 1542.27 Q2346.27 1538.71 2346.27 1531.6 Q2346.27 1524.47 2344.44 1520.93 Q2342.64 1517.37 2339 1517.37 M2339 1513.66 Q2344.81 1513.66 2347.87 1518.27 Q2350.95 1522.85 2350.95 1531.6 Q2350.95 1540.33 2347.87 1544.94 Q2344.81 1549.52 2339 1549.52 Q2333.19 1549.52 2330.12 1544.94 Q2327.06 1540.33 2327.06 1531.6 Q2327.06 1522.85 2330.12 1518.27 Q2333.19 1513.66 2339 1513.66 Z" fill="#000000" fill-rule="nonzero" fill-opacity="1" /><polyline clip-path="url(#clip372)" style="stroke:#000000; stroke-linecap:round; stroke-linejoin:round; stroke-width:2; stroke-opacity:0.1; fill:none" points="239.19,1428.3 2352.76,1428.3 "/>
<polyline clip-path="url(#clip372)" style="stroke:#000000; stroke-linecap:round; stroke-linejoin:round; stroke-width:2; stroke-opacity:0.1; fill:none" points="239.19,1074.12 2352.76,1074.12 "/>
<polyline clip-path="url(#clip372)" style="stroke:#000000; stroke-linecap:round; stroke-linejoin:round; stroke-width:2; stroke-opacity:0.1; fill:none" points="239.19,719.945 2352.76,719.945 "/>
<polyline clip-path="url(#clip372)" style="stroke:#000000; stroke-linecap:round; stroke-linejoin:round; stroke-width:2; stroke-opacity:0.1; fill:none" points="239.19,365.766 2352.76,365.766 "/>
<polyline clip-path="url(#clip370)" style="stroke:#000000; stroke-linecap:round; stroke-linejoin:round; stroke-width:4; stroke-opacity:1; fill:none" points="239.19,1486.45 239.19,47.2441 "/>
<polyline clip-path="url(#clip370)" style="stroke:#000000; stroke-linecap:round; stroke-linejoin:round; stroke-width:4; stroke-opacity:1; fill:none" points="239.19,1428.3 258.088,1428.3 "/>
<polyline clip-path="url(#clip370)" style="stroke:#000000; stroke-linecap:round; stroke-linejoin:round; stroke-width:4; stroke-opacity:1; fill:none" points="239.19,1074.12 258.088,1074.12 "/>
<polyline clip-path="url(#clip370)" style="stroke:#000000; stroke-linecap:round; stroke-linejoin:round; stroke-width:4; stroke-opacity:1; fill:none" points="239.19,719.945 258.088,719.945 "/>
<polyline clip-path="url(#clip370)" style="stroke:#000000; stroke-linecap:round; stroke-linejoin:round; stroke-width:4; stroke-opacity:1; fill:none" points="239.19,365.766 258.088,365.766 "/>
<path clip-path="url(#clip370)" d="M50.9921 1428.75 L80.6679 1428.75 L80.6679 1432.69 L50.9921 1432.69 L50.9921 1428.75 Z" fill="#000000" fill-rule="nonzero" fill-opacity="1" /><path clip-path="url(#clip370)" d="M91.5706 1441.65 L99.2095 1441.65 L99.2095 1415.28 L90.8993 1416.95 L90.8993 1412.69 L99.1632 1411.02 L103.839 1411.02 L103.839 1441.65 L111.478 1441.65 L111.478 1445.58 L91.5706 1445.58 L91.5706 1441.65 Z" fill="#000000" fill-rule="nonzero" fill-opacity="1" /><path clip-path="url(#clip370)" d="M130.922 1414.1 Q127.311 1414.1 125.482 1417.67 Q123.677 1421.21 123.677 1428.34 Q123.677 1435.44 125.482 1439.01 Q127.311 1442.55 130.922 1442.55 Q134.556 1442.55 136.362 1439.01 Q138.191 1435.44 138.191 1428.34 Q138.191 1421.21 136.362 1417.67 Q134.556 1414.1 130.922 1414.1 M130.922 1410.4 Q136.732 1410.4 139.788 1415 Q142.867 1419.59 142.867 1428.34 Q142.867 1437.06 139.788 1441.67 Q136.732 1446.25 130.922 1446.25 Q125.112 1446.25 122.033 1441.67 Q118.978 1437.06 118.978 1428.34 Q118.978 1419.59 122.033 1415 Q125.112 1410.4 130.922 1410.4 Z" fill="#000000" fill-rule="nonzero" fill-opacity="1" /><path clip-path="url(#clip370)" d="M161.084 1414.1 Q157.473 1414.1 155.644 1417.67 Q153.839 1421.21 153.839 1428.34 Q153.839 1435.44 155.644 1439.01 Q157.473 1442.55 161.084 1442.55 Q164.718 1442.55 166.524 1439.01 Q168.353 1435.44 168.353 1428.34 Q168.353 1421.21 166.524 1417.67 Q164.718 1414.1 161.084 1414.1 M161.084 1410.4 Q166.894 1410.4 169.95 1415 Q173.029 1419.59 173.029 1428.34 Q173.029 1437.06 169.95 1441.67 Q166.894 1446.25 161.084 1446.25 Q155.274 1446.25 152.195 1441.67 Q149.14 1437.06 149.14 1428.34 Q149.14 1419.59 152.195 1415 Q155.274 1410.4 161.084 1410.4 Z" fill="#000000" fill-rule="nonzero" fill-opacity="1" /><path clip-path="url(#clip370)" d="M191.246 1414.1 Q187.635 1414.1 185.806 1417.67 Q184.001 1421.21 184.001 1428.34 Q184.001 1435.44 185.806 1439.01 Q187.635 1442.55 191.246 1442.55 Q194.88 1442.55 196.686 1439.01 Q198.514 1435.44 198.514 1428.34 Q198.514 1421.21 196.686 1417.67 Q194.88 1414.1 191.246 1414.1 M191.246 1410.4 Q197.056 1410.4 200.112 1415 Q203.19 1419.59 203.19 1428.34 Q203.19 1437.06 200.112 1441.67 Q197.056 1446.25 191.246 1446.25 Q185.436 1446.25 182.357 1441.67 Q179.302 1437.06 179.302 1428.34 Q179.302 1419.59 182.357 1415 Q185.436 1410.4 191.246 1410.4 Z" fill="#000000" fill-rule="nonzero" fill-opacity="1" /><path clip-path="url(#clip370)" d="M81.154 1074.58 L110.83 1074.58 L110.83 1078.51 L81.154 1078.51 L81.154 1074.58 Z" fill="#000000" fill-rule="nonzero" fill-opacity="1" /><path clip-path="url(#clip370)" d="M130.922 1074.99 Q127.589 1074.99 125.668 1076.77 Q123.77 1078.56 123.77 1081.68 Q123.77 1084.81 125.668 1086.59 Q127.589 1088.37 130.922 1088.37 Q134.256 1088.37 136.177 1086.59 Q138.098 1084.78 138.098 1081.68 Q138.098 1078.56 136.177 1076.77 Q134.279 1074.99 130.922 1074.99 M126.246 1073 Q123.237 1072.26 121.547 1070.2 Q119.881 1068.14 119.881 1065.18 Q119.881 1061.03 122.82 1058.63 Q125.783 1056.22 130.922 1056.22 Q136.084 1056.22 139.024 1058.63 Q141.964 1061.03 141.964 1065.18 Q141.964 1068.14 140.274 1070.2 Q138.607 1072.26 135.621 1073 Q139.001 1073.79 140.876 1076.08 Q142.774 1078.37 142.774 1081.68 Q142.774 1086.7 139.695 1089.39 Q136.64 1092.07 130.922 1092.07 Q125.205 1092.07 122.126 1089.39 Q119.07 1086.7 119.07 1081.68 Q119.07 1078.37 120.969 1076.08 Q122.867 1073.79 126.246 1073 M124.533 1065.62 Q124.533 1068.3 126.2 1069.81 Q127.89 1071.31 130.922 1071.31 Q133.931 1071.31 135.621 1069.81 Q137.334 1068.3 137.334 1065.62 Q137.334 1062.93 135.621 1061.43 Q133.931 1059.92 130.922 1059.92 Q127.89 1059.92 126.2 1061.43 Q124.533 1062.93 124.533 1065.62 Z" fill="#000000" fill-rule="nonzero" fill-opacity="1" /><path clip-path="url(#clip370)" d="M161.084 1059.92 Q157.473 1059.92 155.644 1063.49 Q153.839 1067.03 153.839 1074.16 Q153.839 1081.26 155.644 1084.83 Q157.473 1088.37 161.084 1088.37 Q164.718 1088.37 166.524 1084.83 Q168.353 1081.26 168.353 1074.16 Q168.353 1067.03 166.524 1063.49 Q164.718 1059.92 161.084 1059.92 M161.084 1056.22 Q166.894 1056.22 169.95 1060.83 Q173.029 1065.41 173.029 1074.16 Q173.029 1082.89 169.95 1087.49 Q166.894 1092.07 161.084 1092.07 Q155.274 1092.07 152.195 1087.49 Q149.14 1082.89 149.14 1074.16 Q149.14 1065.41 152.195 1060.83 Q155.274 1056.22 161.084 1056.22 Z" fill="#000000" fill-rule="nonzero" fill-opacity="1" /><path clip-path="url(#clip370)" d="M191.246 1059.92 Q187.635 1059.92 185.806 1063.49 Q184.001 1067.03 184.001 1074.16 Q184.001 1081.26 185.806 1084.83 Q187.635 1088.37 191.246 1088.37 Q194.88 1088.37 196.686 1084.83 Q198.514 1081.26 198.514 1074.16 Q198.514 1067.03 196.686 1063.49 Q194.88 1059.92 191.246 1059.92 M191.246 1056.22 Q197.056 1056.22 200.112 1060.83 Q203.19 1065.41 203.19 1074.16 Q203.19 1082.89 200.112 1087.49 Q197.056 1092.07 191.246 1092.07 Q185.436 1092.07 182.357 1087.49 Q179.302 1082.89 179.302 1074.16 Q179.302 1065.41 182.357 1060.83 Q185.436 1056.22 191.246 1056.22 Z" fill="#000000" fill-rule="nonzero" fill-opacity="1" /><path clip-path="url(#clip370)" d="M81.154 720.396 L110.83 720.396 L110.83 724.332 L81.154 724.332 L81.154 720.396 Z" fill="#000000" fill-rule="nonzero" fill-opacity="1" /><path clip-path="url(#clip370)" d="M131.501 718.082 Q128.353 718.082 126.501 720.234 Q124.672 722.387 124.672 726.137 Q124.672 729.864 126.501 732.04 Q128.353 734.193 131.501 734.193 Q134.649 734.193 136.478 732.04 Q138.33 729.864 138.33 726.137 Q138.33 722.387 136.478 720.234 Q134.649 718.082 131.501 718.082 M140.783 703.429 L140.783 707.688 Q139.024 706.855 137.219 706.415 Q135.436 705.975 133.677 705.975 Q129.047 705.975 126.594 709.1 Q124.163 712.225 123.816 718.545 Q125.182 716.531 127.242 715.466 Q129.302 714.378 131.779 714.378 Q136.987 714.378 139.996 717.549 Q143.029 720.697 143.029 726.137 Q143.029 731.461 139.881 734.679 Q136.732 737.896 131.501 737.896 Q125.506 737.896 122.334 733.313 Q119.163 728.706 119.163 719.98 Q119.163 711.785 123.052 706.924 Q126.941 702.04 133.492 702.04 Q135.251 702.04 137.033 702.387 Q138.839 702.734 140.783 703.429 Z" fill="#000000" fill-rule="nonzero" fill-opacity="1" /><path clip-path="url(#clip370)" d="M161.084 705.744 Q157.473 705.744 155.644 709.308 Q153.839 712.85 153.839 719.98 Q153.839 727.086 155.644 730.651 Q157.473 734.193 161.084 734.193 Q164.718 734.193 166.524 730.651 Q168.353 727.086 168.353 719.98 Q168.353 712.85 166.524 709.308 Q164.718 705.744 161.084 705.744 M161.084 702.04 Q166.894 702.04 169.95 706.646 Q173.029 711.23 173.029 719.98 Q173.029 728.706 169.95 733.313 Q166.894 737.896 161.084 737.896 Q155.274 737.896 152.195 733.313 Q149.14 728.706 149.14 719.98 Q149.14 711.23 152.195 706.646 Q155.274 702.04 161.084 702.04 Z" fill="#000000" fill-rule="nonzero" fill-opacity="1" /><path clip-path="url(#clip370)" d="M191.246 705.744 Q187.635 705.744 185.806 709.308 Q184.001 712.85 184.001 719.98 Q184.001 727.086 185.806 730.651 Q187.635 734.193 191.246 734.193 Q194.88 734.193 196.686 730.651 Q198.514 727.086 198.514 719.98 Q198.514 712.85 196.686 709.308 Q194.88 705.744 191.246 705.744 M191.246 702.04 Q197.056 702.04 200.112 706.646 Q203.19 711.23 203.19 719.98 Q203.19 728.706 200.112 733.313 Q197.056 737.896 191.246 737.896 Q185.436 737.896 182.357 733.313 Q179.302 728.706 179.302 719.98 Q179.302 711.23 182.357 706.646 Q185.436 702.04 191.246 702.04 Z" fill="#000000" fill-rule="nonzero" fill-opacity="1" /><path clip-path="url(#clip370)" d="M81.154 366.218 L110.83 366.218 L110.83 370.153 L81.154 370.153 L81.154 366.218 Z" fill="#000000" fill-rule="nonzero" fill-opacity="1" /><path clip-path="url(#clip370)" d="M133.769 352.56 L121.964 371.009 L133.769 371.009 L133.769 352.56 M132.543 348.486 L138.422 348.486 L138.422 371.009 L143.353 371.009 L143.353 374.898 L138.422 374.898 L138.422 383.046 L133.769 383.046 L133.769 374.898 L118.168 374.898 L118.168 370.384 L132.543 348.486 Z" fill="#000000" fill-rule="nonzero" fill-opacity="1" /><path clip-path="url(#clip370)" d="M161.084 351.565 Q157.473 351.565 155.644 355.13 Q153.839 358.671 153.839 365.801 Q153.839 372.907 155.644 376.472 Q157.473 380.014 161.084 380.014 Q164.718 380.014 166.524 376.472 Q168.353 372.907 168.353 365.801 Q168.353 358.671 166.524 355.13 Q164.718 351.565 161.084 351.565 M161.084 347.861 Q166.894 347.861 169.95 352.468 Q173.029 357.051 173.029 365.801 Q173.029 374.528 169.95 379.134 Q166.894 383.718 161.084 383.718 Q155.274 383.718 152.195 379.134 Q149.14 374.528 149.14 365.801 Q149.14 357.051 152.195 352.468 Q155.274 347.861 161.084 347.861 Z" fill="#000000" fill-rule="nonzero" fill-opacity="1" /><path clip-path="url(#clip370)" d="M191.246 351.565 Q187.635 351.565 185.806 355.13 Q184.001 358.671 184.001 365.801 Q184.001 372.907 185.806 376.472 Q187.635 380.014 191.246 380.014 Q194.88 380.014 196.686 376.472 Q198.514 372.907 198.514 365.801 Q198.514 358.671 196.686 355.13 Q194.88 351.565 191.246 351.565 M191.246 347.861 Q197.056 347.861 200.112 352.468 Q203.19 357.051 203.19 365.801 Q203.19 374.528 200.112 379.134 Q197.056 383.718 191.246 383.718 Q185.436 383.718 182.357 379.134 Q179.302 374.528 179.302 365.801 Q179.302 357.051 182.357 352.468 Q185.436 347.861 191.246 347.861 Z" fill="#000000" fill-rule="nonzero" fill-opacity="1" /><polyline clip-path="url(#clip372)" style="stroke:#009af9; stroke-linecap:round; stroke-linejoin:round; stroke-width:4; stroke-opacity:1; fill:none" points="299.008,156.997 300.006,157.126 301.003,87.9763 302.001,88.096 302.998,195.528 303.996,195.671 304.993,225.238 305.991,225.292 306.988,163.733 307.985,163.941 308.983,209.278 309.98,209.148 310.978,233.205 311.975,233.239 312.973,175.177 313.97,175.315 314.968,160.759 315.965,160.692 316.963,295.144 317.96,295.14 318.958,148.306 319.955,148.365 320.952,185.26 321.95,185.31 322.947,247.976 323.945,248.144 324.942,299.039 325.94,299.157 326.937,232.642 327.935,232.403 328.932,265.284 329.93,265.205 330.927,234.536 331.925,234.538 332.922,243.938 333.92,244.064 334.917,339.285 335.914,339.167 336.912,307.059 337.909,306.955 338.907,255.333 339.904,255.129 340.902,482.339 341.899,482.111 342.897,361.827 343.894,361.628 344.892,332.466 345.889,332.43 346.887,241.825 347.884,241.631 348.881,431.307 349.879,431.166 350.876,250.764 351.874,250.679 352.871,347.88 353.869,347.737 354.866,359.538 355.864,359.284 356.861,361.486 357.859,361.185 358.856,448.685 359.854,448.498 360.851,440.974 361.848,440.809 362.846,350.422 363.843,349.844 364.841,341.786 365.838,341.581 366.836,490.728 367.833,490.235 368.831,505.016 369.828,503.947 370.826,478.399 371.823,477.898 372.821,309.857 373.818,309.675 374.816,415.378 375.813,415.012 376.81,413.771 377.808,413.341 378.805,599.876 379.803,599.112 380.8,548.033 381.798,547.45 382.795,527.91 383.793,527.226 384.79,528.842 385.788,528.413 386.785,432.382 387.783,431.969 388.78,530.119 389.777,529.565 390.775,590.115 391.772,589.601 392.77,687.344 393.767,686.92 394.765,685.044 395.762,684.134 396.76,537.118 397.757,536.668 398.755,508.284 399.752,507.828 400.75,711.584 401.747,710.66 402.744,641.419 403.742,640.777 404.739,576.487 405.737,576.076 406.734,575.181 407.732,574.765 408.729,671.294 409.727,670.342 410.724,599.83 411.722,599.338 412.719,597.729 413.717,596.954 414.714,660.236 415.712,659.717 416.709,635.777 417.706,635.177 418.704,632.809 419.701,632.268 420.699,730.906 421.696,730.375 422.694,637.908 423.691,637.323 424.689,739.509 425.686,738.436 426.684,671.591 427.681,670.933 428.679,734.248 429.676,733.54 430.673,731.885 431.671,731.433 432.668,708.065 433.666,707.524 434.663,684.612 435.661,683.748 436.658,898.503 437.656,897.757 438.653,780.903 439.651,779.862 440.648,757.433 441.646,756.495 442.643,780.945 443.64,779.849 444.638,730.107 445.635,729.346 446.633,751.815 447.63,751.143 448.628,709.523 449.625,708.952 450.623,808.429 451.62,807.945 452.618,792.889 453.615,791.628 454.613,811.248 455.61,810.417 456.608,751.157 457.605,750.489 458.602,881.951 459.6,881.22 460.597,802.217 461.595,801.528 462.592,732.553 463.59,731.936 464.587,926.215 465.585,925.105 466.582,869.2 467.58,868.322 468.577,799.994 469.575,799.157 470.572,891.139 471.569,890.411 472.567,738.597 473.564,737.971 474.562,950.62 475.559,949.891 476.557,942.333 477.554,941.605 478.552,830.387 479.549,829.776 480.547,705.973 481.544,705.5 482.542,974.803 483.539,974.073 484.537,915.275 485.534,914.631 486.531,992.023 487.529,991.16 488.526,891.483 489.524,890.741 490.521,1045.1 491.519,1044.1 492.516,963.247 493.514,962.193 494.511,1028.4 495.509,1027.79 496.506,956.703 497.504,955.73 498.501,872.547 499.498,871.987 500.496,978.75 501.493,977.711 502.491,987.712 503.488,986.632 504.486,1052.64 505.483,1051.77 506.481,1050.79 507.478,1049.98 508.476,918.924 509.473,918.403 510.471,1057.73 511.468,1056.69 512.465,843.488 513.463,842.829 514.46,1126 515.458,1125.34 516.455,1005.74 517.453,1005.02 518.45,954.367 519.448,953.434 520.445,1049.67 521.443,1049.1 522.44,1148.43 523.438,1147.72 524.435,1078.21 525.433,1077.41 526.43,1031.76 527.427,1030.77 528.425,1048.73 529.422,1047.97 530.42,985.807 531.417,985.171 532.415,1109.25 533.412,1108.53 534.41,1032.48 535.407,1031.55 536.405,1017.86 537.402,1017.16 538.4,1005.94 539.397,1005.39 540.394,1048.67 541.392,1048.13 542.389,1070.79 543.387,1070.22 544.384,1074.17 545.382,1073.31 546.379,1078.27 547.377,1077.04 548.374,1119.9 549.372,1119.26 550.369,1211.31 551.367,1210.16 552.364,1200.27 553.361,1199.52 554.359,1017.43 555.356,1016.66 556.354,1121.47 557.351,1120.93 558.349,1139.85 559.346,1139.24 560.344,1196.78 561.341,1196.21 562.339,1121.53 563.336,1120.87 564.334,1143.7 565.331,1143.09 566.329,1116.44 567.326,1115.78 568.323,1167.39 569.321,1166.56 570.318,1107.01 571.316,1106.52 572.313,1142.27 573.311,1141.96 574.308,1173.53 575.306,1172.88 576.303,1112.35 577.301,1111.55 578.298,1071.29 579.296,1070.19 580.293,1189.97 581.29,1189.56 582.288,1100.46 583.285,1099.99 584.283,1074.64 585.28,1074.01 586.278,1097.79 587.275,1097.23 588.273,1109.36 589.27,1108.7 590.268,1215.89 591.265,1215.12 592.263,1104.03 593.26,1103.3 594.258,1193.45 595.255,1193.13 596.252,1062.96 597.25,1062.15 598.247,1105.91 599.245,1104.95 600.242,1134.09 601.24,1133.29 602.237,1051.73 603.235,1051.22 604.232,1138.23 605.23,1137.75 606.227,1149.34 607.225,1148.62 608.222,1142.33 609.219,1141.66 610.217,1207.64 611.214,1207.07 612.212,1134.99 613.209,1134.55 614.207,1182.41 615.204,1181.77 616.202,1096.96 617.199,1096.24 618.197,1204.34 619.194,1203.45 620.192,1204.7 621.189,1204.2 622.186,1198.37 623.184,1197.97 624.181,1123.15 625.179,1122.64 626.176,1185.08 627.174,1184.49 628.171,1128.45 629.169,1127.62 630.166,1098.63 631.164,1098.25 632.161,1237.12 633.159,1236.54 634.156,1143.4 635.154,1142.9 636.151,1232.07 637.148,1231.62 638.146,1125.41 639.143,1124.58 640.141,1227.54 641.138,1227.11 642.136,1224.06 643.133,1223.59 644.131,1172.12 645.128,1171.66 646.126,1219.1 647.123,1217.9 648.121,1084.24 649.118,1083.94 650.115,1140.27 651.113,1140 652.11,1170.64 653.108,1170.25 654.105,1231.34 655.103,1230.49 656.1,1200.18 657.098,1199.92 658.095,1191.55 659.093,1191.02 660.09,1229.75 661.088,1229.22 662.085,1266.01 663.082,1265.71 664.08,1147.93 665.077,1147.64 666.075,1164.68 667.072,1163.8 668.07,1238.48 669.067,1238.02 670.065,1279.28 671.062,1278.98 672.06,1123.15 673.057,1122.58 674.055,1228.39 675.052,1228.06 676.05,1233.98 677.047,1233.59 678.044,1251.3 679.042,1250.66 680.039,1229.25 681.037,1228.39 682.034,1090.35 683.032,1089.87 684.029,1184.77 685.027,1184.39 686.024,1247.84 687.022,1247.36 688.019,1297.11 689.017,1296.38 690.014,1207.92 691.011,1207.6 692.009,1153.28 693.006,1152.87 694.004,1202.06 695.001,1201.55 695.999,1121.13 696.996,1120.77 697.994,1204.45 698.991,1204.03 699.989,1308.23 700.986,1307.52 701.984,1264.94 702.981,1264.45 703.978,1216.46 704.976,1215.97 705.973,1146.16 706.971,1145.68 707.968,1228.72 708.966,1228.23 709.963,1222.43 710.961,1222 711.958,1213.04 712.956,1212.21 713.953,1217.69 714.951,1217.36 715.948,1152.02 716.946,1151.77 717.943,1237.16 718.94,1236.85 719.938,1172.66 720.935,1172.19 721.933,1228.4 722.93,1227.98 723.928,1235.81 724.925,1235.37 725.923,1254.92 726.92,1254.55 727.918,1230.19 728.915,1229.25 729.913,1238.41 730.91,1237.9 731.907,1220.83 732.905,1220.44 733.902,1247.48 734.9,1247.25 735.897,1185.1 736.895,1184.67 737.892,1240.11 738.89,1239.45 739.887,1250.37 740.885,1250.18 741.882,1231.19 742.88,1230.93 743.877,1204.71 744.875,1204.49 745.872,1193.46 746.869,1192.66 747.867,1267.14 748.864,1266.69 749.862,1231.25 750.859,1230.93 751.857,1256.89 752.854,1256.49 753.852,1195.82 754.849,1195.41 755.847,1200.07 756.844,1199.75 757.842,1327.47 758.839,1327.14 759.836,1210.25 760.834,1209.6 761.831,1348.03 762.829,1347.5 763.826,1270.01 764.824,1269.52 765.821,1282.1 766.819,1281.69 767.816,1266.16 768.814,1265.52 769.811,1282.79 770.809,1281.88 771.806,1260.31 772.803,1259.81 773.801,1237.67 774.798,1237.47 775.796,1206.4 776.793,1206.11 777.791,1188.99 778.788,1188.69 779.786,1316.07 780.783,1315.81 781.781,1177.56 782.778,1176.8 783.776,1182.45 784.773,1182.03 785.771,1286.59 786.768,1286.04 787.765,1292.98 788.763,1292.64 789.76,1256.67 790.758,1256.3 791.755,1285.11 792.753,1284.75 793.75,1266.83 794.748,1266.4 795.745,1293.15 796.743,1292.92 797.74,1239.23 798.738,1238.75 799.735,1262.98 800.732,1262.57 801.73,1233.11 802.727,1232.63 803.725,1302.4 804.722,1302.04 805.72,1212.73 806.717,1212.1 807.715,1262.3 808.712,1261.84 809.71,1237.91 810.707,1237.49 811.705,1305.71 812.702,1305.2 813.699,1200.77 814.697,1200.4 815.694,1244.2 816.692,1243.72 817.689,1326.43 818.687,1326.09 819.684,1304.34 820.682,1303.77 821.679,1198.96 822.677,1198.4 823.674,1297.09 824.672,1296.67 825.669,1267.85 826.667,1267.26 827.664,1221.47 828.661,1221.21 829.659,1358.41 830.656,1358.06 831.654,1303.27 832.651,1302.98 833.649,1269.84 834.646,1269.48 835.644,1286.4 836.641,1286 837.639,1302.56 838.636,1302.32 839.634,1211.14 840.631,1210.9 841.628,1309.55 842.626,1309.15 843.623,1258.05 844.621,1257.74 845.618,1336.34 846.616,1335.96 847.613,1299.21 848.611,1298.53 849.608,1288.42 850.606,1287.77 851.603,1278.95 852.601,1278.61 853.598,1300.03 854.596,1299.16 855.593,1304.19 856.59,1303.83 857.588,1243.92 858.585,1243.04 859.583,1298.74 860.58,1298.43 861.578,1292.69 862.575,1292.15 863.573,1269.9 864.57,1269.17 865.568,1260.04 866.565,1259.49 867.563,1315.42 868.56,1315.19 869.557,1348.96 870.555,1347.82 871.552,1268.36 872.55,1267.83 873.547,1280.69 874.545,1280.43 875.542,1322.02 876.54,1321.74 877.537,1291.51 878.535,1290.64 879.532,1322.69 880.53,1321.89 881.527,1310.51 882.524,1310.1 883.522,1277.96 884.519,1277.29 885.517,1336.21 886.514,1335.88 887.512,1328.56 888.509,1328.18 889.507,1297.51 890.504,1297.02 891.502,1358.54 892.499,1357.46 893.497,1255.81 894.494,1255.15 895.492,1330.67 896.489,1329.66 897.486,1263.25 898.484,1262.59 899.481,1267.38 900.479,1266.66 901.476,1288.37 902.474,1287.98 903.471,1323.3 904.469,1322.62 905.466,1247.52 906.464,1247.17 907.461,1216.56 908.459,1216.13 909.456,1262.82 910.453,1262.48 911.451,1280.96 912.448,1280.4 913.446,1288.54 914.443,1287.85 915.441,1259.96 916.438,1259.58 917.436,1269.25 918.433,1268.72 919.431,1306.34 920.428,1305.99 921.426,1247 922.423,1246.82 923.42,1242.28 924.418,1241.69 925.415,1326.11 926.413,1325.39 927.41,1330.02 928.408,1329.54 929.405,1238.41 930.403,1237.95 931.4,1329.37 932.398,1329.04 933.395,1307.3 934.393,1306.46 935.39,1254.7 936.388,1254.24 937.385,1339.19 938.382,1338.3 939.38,1285.11 940.377,1284.27 941.375,1263.04 942.372,1262.65 943.37,1251.78 944.367,1251.28 945.365,1314.84 946.362,1314.3 947.36,1293.85 948.357,1293.7 949.355,1294.51 950.352,1294.13 951.349,1315.1 952.347,1314.67 953.344,1242.99 954.342,1242.8 955.339,1283.63 956.337,1283.08 957.334,1227.64 958.332,1227.06 959.329,1252.81 960.327,1252.09 961.324,1317.62 962.322,1317.26 963.319,1244.73 964.316,1244.08 965.314,1290.22 966.311,1289.65 967.309,1338.71 968.306,1337.94 969.304,1342.58 970.301,1341.74 971.299,1235.26 972.296,1235.03 973.294,1298.21 974.291,1297.85 975.289,1402.9 976.286,1402.57 977.284,1294.26 978.281,1293.53 979.278,1349.07 980.276,1348.68 981.273,1328.24 982.271,1328.07 983.268,1316.87 984.266,1316.37 985.263,1283.02 986.261,1282.34 987.258,1342.58 988.256,1342.08 989.253,1276.37 990.251,1275.88 991.248,1316.27 992.245,1316.03 993.243,1373.61 994.24,1373.37 995.238,1330.2 996.235,1329.52 997.233,1357.55 998.23,1356.97 999.228,1272.49 1000.23,1272.13 1001.22,1300.67 1002.22,1300.22 1003.22,1272.52 1004.22,1271.87 1005.21,1295.4 1006.21,1294.46 1007.21,1367.7 1008.2,1367.33 1009.2,1341.66 1010.2,1341.32 1011.2,1283.91 1012.19,1283.62 1013.19,1294.44 1014.19,1293.96 1015.19,1288.94 1016.18,1288.72 1017.18,1305.38 1018.18,1304.78 1019.18,1342.35 1020.17,1340.9 1021.17,1306.34 1022.17,1305.67 1023.17,1275.15 1024.16,1274.26 1025.16,1323.81 1026.16,1323.42 1027.16,1320.52 1028.15,1320.03 1029.15,1368.47 1030.15,1366.86 1031.15,1352.76 1032.14,1351.9 1033.14,1268.45 1034.14,1267.9 1035.14,1293.79 1036.13,1293.21 1037.13,1248.88 1038.13,1248.39 1039.13,1343.51 1040.12,1343.03 1041.12,1345.02 1042.12,1344.44 1043.12,1313.79 1044.11,1313.2 1045.11,1331.52 1046.11,1331.33 1047.11,1337.9 1048.1,1337.41 1049.1,1300.33 1050.1,1299.78 1051.1,1316.21 1052.09,1316 1053.09,1344.86 1054.09,1344.44 1055.09,1313.93 1056.08,1313.44 1057.08,1326.17 1058.08,1325.24 1059.08,1230.79 1060.07,1230.23 1061.07,1311.33 1062.07,1311.15 1063.07,1311.67 1064.06,1311.17 1065.06,1321.11 1066.06,1320.57 1067.06,1410.76 1068.05,1410.33 1069.05,1346.98 1070.05,1346.51 1071.05,1338.54 1072.04,1338.28 1073.04,1346.61 1074.04,1345.79 1075.03,1362.71 1076.03,1362.24 1077.03,1355.56 1078.03,1355.07 1079.02,1274.51 1080.02,1273.85 1081.02,1292.86 1082.02,1292.55 1083.01,1320.5 1084.01,1319.94 1085.01,1342.7 1086.01,1342.55 1087,1325.94 1088,1325.5 1089,1270.22 1090,1270 1090.99,1250.52 1091.99,1250.08 1092.99,1311.87 1093.99,1311.12 1094.98,1321.48 1095.98,1320.41 1096.98,1293.37 1097.98,1293.06 1098.97,1327.19 1099.97,1326.79 1100.97,1373.46 1101.97,1373.25 1102.96,1347.38 1103.96,1346.95 1104.96,1266.41 1105.96,1266.13 1106.95,1295.97 1107.95,1295.69 1108.95,1341.43 1109.95,1340.86 1110.94,1373.69 1111.94,1373.03 1112.94,1323.48 1113.94,1323.13 1114.93,1324.95 1115.93,1324.6 1116.93,1328.23 1117.93,1327.83 1118.92,1260.81 1119.92,1260.71 1120.92,1356.57 1121.92,1355.95 1122.91,1296.24 1123.91,1295.75 1124.91,1335.72 1125.91,1335.46 1126.9,1330.88 1127.9,1330.38 1128.9,1349.94 1129.9,1349.73 1130.89,1291.04 1131.89,1289.9 1132.89,1318.84 1133.89,1318.34 1134.88,1398.35 1135.88,1397.97 1136.88,1334.4 1137.88,1334.1 1138.87,1342.47 1139.87,1341.9 1140.87,1334.65 1141.87,1334.02 1142.86,1334.07 1143.86,1333.45 1144.86,1332.69 1145.85,1332.39 1146.85,1372.91 1147.85,1372.46 1148.85,1351.23 1149.84,1350.49 1150.84,1304.25 1151.84,1303.41 1152.84,1333.51 1153.83,1333.21 1154.83,1301.99 1155.83,1301.65 1156.83,1320.22 1157.82,1320.01 1158.82,1335.34 1159.82,1334.49 1160.82,1376.06 1161.81,1375.71 1162.81,1302.94 1163.81,1302.56 1164.81,1363.58 1165.8,1362.9 1166.8,1322.5 1167.8,1321.91 1168.8,1338.27 1169.79,1337.55 1170.79,1352.08 1171.79,1351.82 1172.79,1323.82 1173.78,1322.99 1174.78,1324.72 1175.78,1324.42 1176.78,1369.18 1177.77,1368.68 1178.77,1333.82 1179.77,1333.42 1180.77,1363.28 1181.76,1362.93 1182.76,1370.63 1183.76,1370.46 1184.76,1357.34 1185.75,1357 1186.75,1346.79 1187.75,1346.33 1188.75,1373.31 1189.74,1372.26 1190.74,1360.07 1191.74,1359.66 1192.74,1317.69 1193.73,1317.54 1194.73,1279.47 1195.73,1279.32 1196.73,1354.07 1197.72,1353.85 1198.72,1356.57 1199.72,1356.15 1200.72,1262.58 1201.71,1262.37 1202.71,1375.54 1203.71,1374.98 1204.71,1353.06 1205.7,1352.42 1206.7,1378.79 1207.7,1378.54 1208.7,1346.1 1209.69,1345.57 1210.69,1313.32 1211.69,1312.81 1212.68,1278.96 1213.68,1278.81 1214.68,1324.8 1215.68,1324.57 1216.67,1358.26 1217.67,1357.55 1218.67,1333.45 1219.67,1332.77 1220.66,1232.08 1221.66,1231.81 1222.66,1283.99 1223.66,1283.77 1224.65,1317.53 1225.65,1317.21 1226.65,1319.97 1227.65,1319.76 1228.64,1292.94 1229.64,1292.06 1230.64,1282.89 1231.64,1282.56 1232.63,1291.67 1233.63,1291.11 1234.63,1331.48 1235.63,1331.01 1236.62,1317.19 1237.62,1316.76 1238.62,1313.7 1239.62,1313.22 1240.61,1229.49 1241.61,1228.61 1242.61,1350.09 1243.61,1349.01 1244.6,1339.5 1245.6,1338.7 1246.6,1318.07 1247.6,1317.81 1248.59,1379.4 1249.59,1379.26 1250.59,1350.75 1251.59,1350.52 1252.58,1276.27 1253.58,1275.49 1254.58,1302.22 1255.58,1301.75 1256.57,1285.11 1257.57,1284.66 1258.57,1360.2 1259.57,1359.96 1260.56,1367.15 1261.56,1366.86 1262.56,1365.19 1263.56,1364.74 1264.55,1293.14 1265.55,1292.96 1266.55,1360.27 1267.55,1360.06 1268.54,1335.52 1269.54,1334.88 1270.54,1356.83 1271.54,1356.4 1272.53,1359.49 1273.53,1359.36 1274.53,1328.44 1275.53,1328.04 1276.52,1366.17 1277.52,1365.71 1278.52,1334.79 1279.51,1334.67 1280.51,1314.73 1281.51,1314.27 1282.51,1328.04 1283.5,1327.75 1284.5,1328.35 1285.5,1327.62 1286.5,1334.18 1287.49,1333.8 1288.49,1335.95 1289.49,1335.8 1290.49,1341.36 1291.48,1341.07 1292.48,1381.57 1293.48,1380.56 1294.48,1334.35 1295.47,1333.56 1296.47,1330.25 1297.47,1329.67 1298.47,1324.09 1299.46,1323.8 1300.46,1337.24 1301.46,1337.06 1302.46,1312.5 1303.45,1311.95 1304.45,1362.18 1305.45,1361.58 1306.45,1373.63 1307.44,1372.27 1308.44,1394.88 1309.44,1394.36 1310.44,1343.66 1311.43,1343.17 1312.43,1318.13 1313.43,1317.53 1314.43,1328.68 1315.42,1328.32 1316.42,1381.33 1317.42,1381.01 1318.42,1380.44 1319.41,1379.99 1320.41,1318.31 1321.41,1317.96 1322.41,1356.67 1323.4,1356.01 1324.4,1347.13 1325.4,1346.92 1326.4,1386.67 1327.39,1386.05 1328.39,1347.2 1329.39,1346.52 1330.39,1372.25 1331.38,1371.44 1332.38,1355.87 1333.38,1355.6 1334.38,1383.89 1335.37,1383.28 1336.37,1368.08 1337.37,1367.45 1338.37,1325.91 1339.36,1325.52 1340.36,1377.56 1341.36,1377.31 1342.36,1331.01 1343.35,1330.69 1344.35,1305.58 1345.35,1305.17 1346.35,1344.89 1347.34,1344.13 1348.34,1356.27 1349.34,1355.66 1350.33,1346.01 1351.33,1345.4 1352.33,1329.75 1353.33,1329.46 1354.32,1374.13 1355.32,1373.58 1356.32,1344.96 1357.32,1344.36 1358.31,1294.25 1359.31,1293.68 1360.31,1377.64 1361.31,1377.39 1362.3,1355.5 1363.3,1354.91 1364.3,1300.88 1365.3,1300.23 1366.29,1318.31 1367.29,1317.66 1368.29,1324.28 1369.29,1323.77 1370.28,1354.87 1371.28,1353.89 1372.28,1391.11 1373.28,1390.29 1374.27,1337.32 1375.27,1336.94 1376.27,1317.37 1377.27,1316.93 1378.26,1341.23 1379.26,1340.88 1380.26,1293.31 1381.26,1292.7 1382.25,1359.3 1383.25,1358.93 1384.25,1368.87 1385.25,1368.79 1386.24,1294.94 1387.24,1294.05 1388.24,1339.2 1389.24,1338.9 1390.23,1353.84 1391.23,1353.4 1392.23,1331.05 1393.23,1330.94 1394.22,1341.8 1395.22,1341.42 1396.22,1324.1 1397.22,1323.73 1398.21,1335.77 1399.21,1335.43 1400.21,1318.94 1401.21,1318.19 1402.2,1368.26 1403.2,1367.81 1404.2,1342.77 1405.2,1342.27 1406.19,1356.98 1407.19,1356.06 1408.19,1381.94 1409.19,1381.44 1410.18,1376.52 1411.18,1376.11 1412.18,1345.84 1413.18,1344.79 1414.17,1420.9 1415.17,1420.3 1416.17,1328.13 1417.16,1327.65 1418.16,1324.17 1419.16,1323.7 1420.16,1397.16 1421.15,1396.97 1422.15,1358.71 1423.15,1358.22 1424.15,1361.98 1425.14,1361.32 1426.14,1361.86 1427.14,1361.12 1428.14,1308.14 1429.13,1307.67 1430.13,1337.71 1431.13,1337.08 1432.13,1376.89 1433.12,1376.41 1434.12,1382.74 1435.12,1382.22 1436.12,1349.59 1437.11,1349.37 1438.11,1381.82 1439.11,1381.07 1440.11,1347.13 1441.1,1346.84 1442.1,1301 1443.1,1300.41 1444.1,1368.92 1445.09,1368.64 1446.09,1318.49 1447.09,1316.93 1448.09,1275.41 1449.08,1274.5 1450.08,1320.57 1451.08,1320.01 1452.08,1327.32 1453.07,1326.93 1454.07,1350.4 1455.07,1349.95 1456.07,1323.37 1457.06,1322.98 1458.06,1361.54 1459.06,1361.07 1460.06,1365.72 1461.05,1365.18 1462.05,1373.82 1463.05,1373.21 1464.05,1307.66 1465.04,1307.33 1466.04,1370.36 1467.04,1370.07 1468.04,1343.94 1469.03,1343.46 1470.03,1383.94 1471.03,1383.23 1472.03,1300.64 1473.02,1300.13 1474.02,1323.75 1475.02,1323.48 1476.02,1316.55 1477.01,1316.36 1478.01,1342.29 1479.01,1342.12 1480.01,1348.39 1481,1347.81 1482,1379.36 1483,1378.98 1484,1344.65 1484.99,1344.29 1485.99,1404.75 1486.99,1404.01 1487.98,1320.3 1488.98,1319.93 1489.98,1354.53 1490.98,1354.09 1491.97,1338.15 1492.97,1337.79 1493.97,1335.19 1494.97,1334.8 1495.96,1374.44 1496.96,1374.09 1497.96,1340.74 1498.96,1340.44 1499.95,1333.76 1500.95,1333.25 1501.95,1360.59 1502.95,1360.16 1503.94,1328.16 1504.94,1327.84 1505.94,1334.3 1506.94,1333.78 1507.93,1317.18 1508.93,1316.74 1509.93,1356.65 1510.93,1356.07 1511.92,1369 1512.92,1368.6 1513.92,1422.2 1514.92,1421.87 1515.91,1350.68 1516.91,1350.32 1517.91,1377.4 1518.91,1377.1 1519.9,1361.16 1520.9,1360.67 1521.9,1317.76 1522.9,1317.39 1523.89,1340.78 1524.89,1340.15 1525.89,1368.01 1526.89,1367.8 1527.88,1353.01 1528.88,1352.5 1529.88,1300.48 1530.88,1300.24 1531.87,1281.83 1532.87,1281.66 1533.87,1374.06 1534.87,1373.3 1535.86,1375.16 1536.86,1374.98 1537.86,1412.47 1538.86,1411.92 1539.85,1322.3 1540.85,1321.53 1541.85,1315.65 1542.85,1315.45 1543.84,1390.05 1544.84,1389.84 1545.84,1336.61 1546.84,1335.33 1547.83,1367.66 1548.83,1367.24 1549.83,1324.81 1550.83,1324.46 1551.82,1276.76 1552.82,1276.07 1553.82,1373.75 1554.81,1373.28 1555.81,1384.32 1556.81,1383.87 1557.81,1373.71 1558.8,1373.48 1559.8,1366.28 1560.8,1365.86 1561.8,1341.94 1562.79,1341.56 1563.79,1315.17 1564.79,1314.77 1565.79,1382.27 1566.78,1382.07 1567.78,1339.85 1568.78,1339.68 1569.78,1318.09 1570.77,1317.84 1571.77,1381.2 1572.77,1380.86 1573.77,1346.18 1574.76,1345.67 1575.76,1361.6 1576.76,1361.33 1577.76,1390.4 1578.75,1389.93 1579.75,1354.66 1580.75,1354.5 1581.75,1407.78 1582.74,1407.36 1583.74,1333.51 1584.74,1332.95 1585.74,1378.91 1586.73,1378.67 1587.73,1314.22 1588.73,1313.71 1589.73,1295.12 1590.72,1293.78 1591.72,1361.66 1592.72,1361.24 1593.72,1282.29 1594.71,1281.83 1595.71,1334.57 1596.71,1334.46 1597.71,1366.97 1598.7,1366.18 1599.7,1327.13 1600.7,1326.77 1601.7,1345.94 1602.69,1345.38 1603.69,1380.69 1604.69,1380.16 1605.69,1416.66 1606.68,1416.16 1607.68,1350.83 1608.68,1350.39 1609.68,1400.11 1610.67,1399.44 1611.67,1321.45 1612.67,1321.06 1613.67,1320.38 1614.66,1319.99 1615.66,1338.66 1616.66,1338.45 1617.66,1342.3 1618.65,1341.95 1619.65,1388.55 1620.65,1387.83 1621.65,1328.39 1622.64,1327.88 1623.64,1350.98 1624.64,1350.8 1625.63,1347.97 1626.63,1347.52 1627.63,1361.39 1628.63,1361.06 1629.62,1340.68 1630.62,1340.05 1631.62,1337.31 1632.62,1336.61 1633.61,1354.46 1634.61,1353.85 1635.61,1341.84 1636.61,1341.62 1637.6,1369.89 1638.6,1369.44 1639.6,1331 1640.6,1330.41 1641.59,1327.93 1642.59,1327.68 1643.59,1378.38 1644.59,1377.84 1645.58,1365.01 1646.58,1364.58 1647.58,1366.94 1648.58,1366.82 1649.57,1326.92 1650.57,1326.56 1651.57,1362.8 1652.57,1362.31 1653.56,1333.59 1654.56,1333.08 1655.56,1346.13 1656.56,1345.79 1657.55,1298.44 1658.55,1298.19 1659.55,1436.5 1660.55,1435.93 1661.54,1317.51 1662.54,1317.28 1663.54,1349.19 1664.54,1348.88 1665.53,1322.37 1666.53,1322.05 1667.53,1313.37 1668.53,1313.23 1669.52,1357.6 1670.52,1356.98 1671.52,1331.19 1672.52,1330.79 1673.51,1426.57 1674.51,1426.09 1675.51,1365.84 1676.51,1365.66 1677.5,1357.64 1678.5,1357.17 1679.5,1371.43 1680.5,1371.39 1681.49,1372.34 1682.49,1371.6 1683.49,1362.25 1684.49,1361.95 1685.48,1363.45 1686.48,1362.59 1687.48,1331.29 1688.48,1330.73 1689.47,1364.37 1690.47,1363.88 1691.47,1313.7 1692.46,1313.19 1693.46,1361.8 1694.46,1361.7 1695.46,1357.89 1696.45,1357.54 1697.45,1330.64 1698.45,1330.34 1699.45,1304.83 1700.44,1304.56 1701.44,1369.03 1702.44,1368.14 1703.44,1358.99 1704.43,1358.49 1705.43,1322.34 1706.43,1321.91 1707.43,1379.28 1708.42,1379.1 1709.42,1364.08 1710.42,1363.32 1711.42,1391.17 1712.41,1390.7 1713.41,1300.52 1714.41,1300.24 1715.41,1363.81 1716.4,1363.06 1717.4,1376.68 1718.4,1376.33 1719.4,1416.15 1720.39,1415.63 1721.39,1302.35 1722.39,1301.19 1723.39,1329.9 1724.38,1329.23 1725.38,1381.65 1726.38,1381.31 1727.38,1377.54 1728.37,1377.21 1729.37,1328.12 1730.37,1327.65 1731.37,1359.65 1732.36,1359.44 1733.36,1424.03 1734.36,1423.7 1735.36,1358.16 1736.35,1357.42 1737.35,1401.51 1738.35,1401.31 1739.35,1376.06 1740.34,1375.36 1741.34,1340.99 1742.34,1340.6 1743.34,1375.45 1744.33,1374.95 1745.33,1382.78 1746.33,1382.2 1747.33,1387.62 1748.32,1387.47 1749.32,1349.62 1750.32,1349.18 1751.32,1404.87 1752.31,1404.41 1753.31,1402.71 1754.31,1402.47 1755.31,1357.16 1756.3,1356.94 1757.3,1408.27 1758.3,1407.68 1759.29,1308.11 1760.29,1307.11 1761.29,1362.25 1762.29,1361.63 1763.28,1326.3 1764.28,1326.16 1765.28,1316.44 1766.28,1316.13 1767.27,1342.4 1768.27,1342.27 1769.27,1370.84 1770.27,1370.14 1771.26,1361.97 1772.26,1361.61 1773.26,1363.05 1774.26,1362.96 1775.25,1343.67 1776.25,1343.14 1777.25,1332.4 1778.25,1332.17 1779.24,1380.55 1780.24,1380.31 1781.24,1371.44 1782.24,1371.27 1783.23,1346.8 1784.23,1346.56 1785.23,1339.36 1786.23,1339.15 1787.22,1361 1788.22,1360.47 1789.22,1400.68 1790.22,1399.53 1791.21,1359.04 1792.21,1358.59 1793.21,1355.24 1794.21,1354.84 1795.2,1337.07 1796.2,1336.3 1797.2,1345.6 1798.2,1345.14 1799.19,1334.28 1800.19,1333.61 1801.19,1364.84 1802.19,1363.98 1803.18,1348.77 1804.18,1348.67 1805.18,1313.44 1806.18,1312.94 1807.17,1382.33 1808.17,1382.08 1809.17,1323.71 1810.17,1323.42 1811.16,1336.75 1812.16,1336.37 1813.16,1355.51 1814.16,1354.94 1815.15,1348.66 1816.15,1348.37 1817.15,1363.06 1818.15,1362.64 1819.14,1320.77 1820.14,1320.4 1821.14,1407.32 1822.14,1407.03 1823.13,1364.6 1824.13,1364.36 1825.13,1364.73 1826.13,1364.4 1827.12,1385.78 1828.12,1385.31 1829.12,1374.86 1830.11,1374.68 1831.11,1394.64 1832.11,1394.14 1833.11,1311.8 1834.1,1310.75 1835.1,1354.62 1836.1,1354.42 1837.1,1359.48 1838.09,1359.1 1839.09,1352.38 1840.09,1352.06 1841.09,1422.13 1842.08,1421.57 1843.08,1376.16 1844.08,1375.86 1845.08,1383.84 1846.07,1383.19 1847.07,1399.69 1848.07,1399.36 1849.07,1325.11 1850.06,1324.74 1851.06,1394.81 1852.06,1394.24 1853.06,1361.37 1854.05,1360.87 1855.05,1383.58 1856.05,1383.27 1857.05,1358.29 1858.04,1357.6 1859.04,1412.37 1860.04,1412.15 1861.04,1432.67 1862.03,1432.26 1863.03,1328.13 1864.03,1327.68 1865.03,1364.28 1866.02,1363.87 1867.02,1346.47 1868.02,1345.91 1869.02,1365.38 1870.01,1365.06 1871.01,1381.47 1872.01,1381.21 1873.01,1402.07 1874,1401.5 1875,1328.82 1876,1328 1877,1387.25 1877.99,1387.03 1878.99,1352.41 1879.99,1352.21 1880.99,1389.02 1881.98,1388.42 1882.98,1353.07 1883.98,1352.79 1884.98,1407.36 1885.97,1406.84 1886.97,1361.2 1887.97,1360.8 1888.97,1282.87 1889.96,1282.38 1890.96,1344.42 1891.96,1343.62 1892.96,1385.08 1893.95,1384.02 1894.95,1372.04 1895.95,1371.48 1896.94,1405.49 1897.94,1405.11 1898.94,1300.06 1899.94,1299.57 1900.93,1388.03 1901.93,1387.88 1902.93,1380.69 1903.93,1380.56 1904.92,1334.38 1905.92,1333.94 1906.92,1351.92 1907.92,1351.41 1908.91,1375.44 1909.91,1375.14 1910.91,1339.87 1911.91,1339.37 1912.9,1381.54 1913.9,1380.33 1914.9,1291.07 1915.9,1290.5 1916.89,1362.7 1917.89,1361.88 1918.89,1346.65 1919.89,1346.16 1920.88,1353.99 1921.88,1353.33 1922.88,1342.49 1923.88,1342.14 1924.87,1367.63 1925.87,1367.05 1926.87,1380.27 1927.87,1379.84 1928.86,1365.59 1929.86,1365.48 1930.86,1383.4 1931.86,1382.52 1932.85,1303.32 1933.85,1303.02 1934.85,1386.22 1935.85,1385.85 1936.84,1377.53 1937.84,1377.22 1938.84,1352.32 1939.84,1351.98 1940.83,1362.99 1941.83,1362.64 1942.83,1335.33 1943.83,1334.89 1944.82,1388.42 1945.82,1387.52 1946.82,1388.68 1947.82,1388.25 1948.81,1445.72 1949.81,1445.14 1950.81,1335.33 1951.81,1335.21 1952.8,1330.06 1953.8,1329.75 1954.8,1358.4 1955.8,1357.77 1956.79,1359.52 1957.79,1358.71 1958.79,1365.44 1959.79,1365.26 1960.78,1381.48 1961.78,1380.96 1962.78,1399.61 1963.78,1399.29 1964.77,1353.05 1965.77,1352.78 1966.77,1369.84 1967.76,1369.38 1968.76,1379.77 1969.76,1379.4 1970.76,1386.79 1971.75,1386.5 1972.75,1345.46 1973.75,1344.69 1974.75,1405.91 1975.74,1405.13 1976.74,1367.05 1977.74,1366.24 1978.74,1370.32 1979.73,1369.47 1980.73,1361.37 1981.73,1361.22 1982.73,1351.75 1983.72,1351.47 1984.72,1332.57 1985.72,1332.23 1986.72,1330.76 1987.71,1329.89 1988.71,1334.05 1989.71,1333.89 1990.71,1332.15 1991.7,1331.5 1992.7,1394.49 1993.7,1394.36 1994.7,1337.45 1995.69,1337 1996.69,1359.26 1997.69,1359.17 1998.69,1359.61 1999.68,1359.33 2000.68,1339.85 2001.68,1339.59 2002.68,1347.68 2003.67,1347.09 2004.67,1359.93 2005.67,1359.52 2006.67,1369.7 2007.66,1369.56 2008.66,1362.3 2009.66,1361.88 2010.66,1327.36 2011.65,1326.96 2012.65,1361.02 2013.65,1360.7 2014.65,1308.43 2015.64,1307.96 2016.64,1339.82 2017.64,1339.67 2018.64,1408.77 2019.63,1408 2020.63,1340.33 2021.63,1339.78 2022.63,1381.04 2023.62,1380.66 2024.62,1369.42 2025.62,1368.5 2026.62,1331.12 2027.61,1330.32 2028.61,1418.4 2029.61,1417.67 2030.61,1386.36 2031.6,1385.9 2032.6,1363.49 2033.6,1363.2 2034.59,1339.66 2035.59,1339.42 2036.59,1317.3 2037.59,1316.97 2038.58,1371.63 2039.58,1371.08 2040.58,1330.03 2041.58,1329.4 2042.57,1411.51 2043.57,1411.28 2044.57,1358.17 2045.57,1357.64 2046.56,1313.5 2047.56,1313.08 2048.56,1352.48 2049.56,1351.79 2050.55,1361.32 2051.55,1360.51 2052.55,1363.56 2053.55,1362.8 2054.54,1352.75 2055.54,1352.5 2056.54,1403.24 2057.54,1403.04 2058.53,1333.41 2059.53,1333.16 2060.53,1379.1 2061.53,1378.82 2062.52,1429.66 2063.52,1429.34 2064.52,1385.43 2065.52,1385.01 2066.51,1390 2067.51,1389.19 2068.51,1336.08 2069.51,1335.66 2070.5,1370.44 2071.5,1369.68 2072.5,1388.19 2073.5,1387.91 2074.49,1377.96 2075.49,1377.34 2076.49,1399.89 2077.49,1399.63 2078.48,1367.33 2079.48,1366.85 2080.48,1344.82 2081.48,1344.06 2082.47,1355.07 2083.47,1354.61 2084.47,1369.93 2085.47,1369.83 2086.46,1349.25 2087.46,1348.59 2088.46,1352.41 2089.46,1351.68 2090.45,1344.42 2091.45,1343.92 2092.45,1326.9 2093.45,1326.52 2094.44,1375.26 2095.44,1374.78 2096.44,1351.36 2097.44,1351.03 2098.43,1308.45 2099.43,1307.55 2100.43,1319.7 2101.43,1319.06 2102.42,1335.72 2103.42,1335.1 2104.42,1380.15 2105.41,1379.38 2106.41,1370.87 2107.41,1370.79 2108.41,1288.76 2109.4,1287.49 2110.4,1367.93 2111.4,1367.24 2112.4,1335.41 2113.39,1334.92 2114.39,1324.14 2115.39,1323.16 2116.39,1325.65 2117.38,1325.4 2118.38,1380.62 2119.38,1380.44 2120.38,1335.87 2121.37,1335.32 2122.37,1332.76 2123.37,1331.62 2124.37,1367.34 2125.36,1366.82 2126.36,1388.71 2127.36,1387.91 2128.36,1355.58 2129.35,1355.24 2130.35,1336.13 2131.35,1335.98 2132.35,1355.84 2133.34,1354.95 2134.34,1366.42 2135.34,1365.89 2136.34,1347.82 2137.33,1347.01 2138.33,1425.03 2139.33,1424.74 2140.33,1361.77 2141.32,1361.55 2142.32,1419.04 2143.32,1418.65 2144.32,1375.4 2145.31,1374.99 2146.31,1374.51 2147.31,1373.63 2148.31,1342.34 2149.3,1342.16 2150.3,1363.6 2151.3,1363.48 2152.3,1394.62 2153.29,1394.43 2154.29,1368.19 2155.29,1368.03 2156.29,1347.9 2157.28,1347.29 2158.28,1360.31 2159.28,1360.11 2160.28,1382.42 2161.27,1381.55 2162.27,1328.82 2163.27,1328.65 2164.27,1344.39 2165.26,1343.8 2166.26,1337.52 2167.26,1337.23 2168.26,1418.49 2169.25,1417.97 2170.25,1348.3 2171.25,1347.46 2172.24,1391.18 2173.24,1390.58 2174.24,1307.59 2175.24,1307.27 2176.23,1379.9 2177.23,1379.27 2178.23,1404.32 2179.23,1403.79 2180.22,1352.27 2181.22,1352.02 2182.22,1403.05 2183.22,1402.61 2184.21,1335.51 2185.21,1335.07 2186.21,1379.44 2187.21,1379.01 2188.2,1347.19 2189.2,1346.95 2190.2,1367.42 2191.2,1366.92 2192.19,1345.32 2193.19,1344.39 2194.19,1377.14 2195.19,1376.77 2196.18,1347.41 2197.18,1346.87 2198.18,1372.42 2199.18,1372.27 2200.17,1353.86 2201.17,1353.23 2202.17,1392.77 2203.17,1392.45 2204.16,1397.51 2205.16,1396.97 2206.16,1351.18 2207.16,1350.49 2208.15,1344.03 2209.15,1343.81 2210.15,1349.51 2211.15,1348.97 2212.14,1367.4 2213.14,1366.87 2214.14,1362.61 2215.14,1362.09 2216.13,1382.26 2217.13,1381.65 2218.13,1385.19 2219.13,1384.56 2220.12,1388.33 2221.12,1388.1 2222.12,1379.08 2223.12,1378.69 2224.11,1360.37 2225.11,1359.33 2226.11,1328.37 2227.11,1328.09 2228.1,1352.38 2229.1,1351.59 2230.1,1393.05 2231.1,1392.71 2232.09,1397.49 2233.09,1397.26 2234.09,1323.24 2235.09,1322.91 2236.08,1358.35 2237.08,1357.65 2238.08,1369.56 2239.07,1368.62 2240.07,1358.14 2241.07,1357.7 2242.07,1350.52 2243.06,1349.68 2244.06,1428.66 2245.06,1427.79 2246.06,1400.07 2247.05,1399.77 2248.05,1381.51 2249.05,1381.14 2250.05,1351.84 2251.04,1351.44 2252.04,1369.46 2253.04,1368.44 2254.04,1398.65 2255.03,1398.36 2256.03,1391.59 2257.03,1391.24 2258.03,1381.68 2259.02,1380.75 2260.02,1361.46 2261.02,1361.1 2262.02,1343.88 2263.01,1343.69 2264.01,1372.74 2265.01,1372.16 2266.01,1354.73 2267,1354.51 2268,1361.95 2269,1361.37 2270,1368.7 2270.99,1367.93 2271.99,1375.12 2272.99,1374.19 2273.99,1356.69 2274.98,1356.48 2275.98,1357.83 2276.98,1357.41 2277.98,1382.82 2278.97,1382.48 2279.97,1419.12 2280.97,1418.73 2281.97,1367.81 2282.96,1367.52 2283.96,1368.67 2284.96,1367.79 2285.96,1385.42 2286.95,1385.03 2287.95,1359.18 2288.95,1358.57 2289.95,1345.45 2290.94,1345.08 2291.94,1376.92 2292.94,1375.61 "/>
<path clip-path="url(#clip370)" d="M2018.52 198.898 L2282.3 198.898 L2282.3 95.2176 L2018.52 95.2176  Z" fill="#ffffff" fill-rule="evenodd" fill-opacity="1"/>
<polyline clip-path="url(#clip370)" style="stroke:#000000; stroke-linecap:round; stroke-linejoin:round; stroke-width:4; stroke-opacity:1; fill:none" points="2018.52,198.898 2282.3,198.898 2282.3,95.2176 2018.52,95.2176 2018.52,198.898 "/>
<polyline clip-path="url(#clip370)" style="stroke:#009af9; stroke-linecap:round; stroke-linejoin:round; stroke-width:4; stroke-opacity:1; fill:none" points="2042,147.058 2182.91,147.058 "/>
<path clip-path="url(#clip370)" d="M2220.23 166.745 Q2218.43 171.375 2216.71 172.787 Q2215 174.199 2212.13 174.199 L2208.73 174.199 L2208.73 170.634 L2211.23 170.634 Q2212.99 170.634 2213.96 169.8 Q2214.93 168.967 2216.11 165.865 L2216.88 163.921 L2206.39 138.412 L2210.9 138.412 L2219.01 158.689 L2227.11 138.412 L2231.62 138.412 L2220.23 166.745 Z" fill="#000000" fill-rule="nonzero" fill-opacity="1" /><path clip-path="url(#clip370)" d="M2238.91 160.402 L2246.55 160.402 L2246.55 134.037 L2238.24 135.703 L2238.24 131.444 L2246.5 129.778 L2251.18 129.778 L2251.18 160.402 L2258.82 160.402 L2258.82 164.338 L2238.91 164.338 L2238.91 160.402 Z" fill="#000000" fill-rule="nonzero" fill-opacity="1" /></svg>
