<?xml version="1.0" encoding="utf-8"?>
<svg xmlns="http://www.w3.org/2000/svg" xmlns:xlink="http://www.w3.org/1999/xlink" width="600" height="400" viewBox="0 0 2400 1600">
<defs>
  <clipPath id="clip290">
    <rect x="0" y="0" width="2400" height="1600"/>
  </clipPath>
</defs>
<path clip-path="url(#clip290)" d="M0 1600 L2400 1600 L2400 0 L0 0  Z" fill="#ffffff" fill-rule="evenodd" fill-opacity="1"/>
<defs>
  <clipPath id="clip291">
    <rect x="480" y="0" width="1681" height="1600"/>
  </clipPath>
</defs>
<path clip-path="url(#clip290)" d="M185.927 1486.45 L2352.76 1486.45 L2352.76 47.2441 L185.927 47.2441  Z" fill="#ffffff" fill-rule="evenodd" fill-opacity="1"/>
<defs>
  <clipPath id="clip292">
    <rect x="185" y="47" width="2168" height="1440"/>
  </clipPath>
</defs>
<polyline clip-path="url(#clip292)" style="stroke:#000000; stroke-linecap:round; stroke-linejoin:round; stroke-width:2; stroke-opacity:0.1; fill:none" points="247.252,1486.45 247.252,47.2441 "/>
<polyline clip-path="url(#clip292)" style="stroke:#000000; stroke-linecap:round; stroke-linejoin:round; stroke-width:2; stroke-opacity:0.1; fill:none" points="758.297,1486.45 758.297,47.2441 "/>
<polyline clip-path="url(#clip292)" style="stroke:#000000; stroke-linecap:round; stroke-linejoin:round; stroke-width:2; stroke-opacity:0.1; fill:none" points="1269.34,1486.45 1269.34,47.2441 "/>
<polyline clip-path="url(#clip292)" style="stroke:#000000; stroke-linecap:round; stroke-linejoin:round; stroke-width:2; stroke-opacity:0.1; fill:none" points="1780.39,1486.45 1780.39,47.2441 "/>
<polyline clip-path="url(#clip292)" style="stroke:#000000; stroke-linecap:round; stroke-linejoin:round; stroke-width:2; stroke-opacity:0.1; fill:none" points="2291.43,1486.45 2291.43,47.2441 "/>
<polyline clip-path="url(#clip290)" style="stroke:#000000; stroke-linecap:round; stroke-linejoin:round; stroke-width:4; stroke-opacity:1; fill:none" points="185.927,1486.45 2352.76,1486.45 "/>
<polyline clip-path="url(#clip290)" style="stroke:#000000; stroke-linecap:round; stroke-linejoin:round; stroke-width:4; stroke-opacity:1; fill:none" points="247.252,1486.45 247.252,1467.55 "/>
<polyline clip-path="url(#clip290)" style="stroke:#000000; stroke-linecap:round; stroke-linejoin:round; stroke-width:4; stroke-opacity:1; fill:none" points="758.297,1486.45 758.297,1467.55 "/>
<polyline clip-path="url(#clip290)" style="stroke:#000000; stroke-linecap:round; stroke-linejoin:round; stroke-width:4; stroke-opacity:1; fill:none" points="1269.34,1486.45 1269.34,1467.55 "/>
<polyline clip-path="url(#clip290)" style="stroke:#000000; stroke-linecap:round; stroke-linejoin:round; stroke-width:4; stroke-opacity:1; fill:none" points="1780.39,1486.45 1780.39,1467.55 "/>
<polyline clip-path="url(#clip290)" style="stroke:#000000; stroke-linecap:round; stroke-linejoin:round; stroke-width:4; stroke-opacity:1; fill:none" points="2291.43,1486.45 2291.43,1467.55 "/>
<path clip-path="url(#clip290)" d="M247.252 1517.37 Q243.641 1517.37 241.812 1520.93 Q240.007 1524.47 240.007 1531.6 Q240.007 1538.71 241.812 1542.27 Q243.641 1545.82 247.252 1545.82 Q250.886 1545.82 252.692 1542.27 Q254.521 1538.71 254.521 1531.6 Q254.521 1524.47 252.692 1520.93 Q250.886 1517.37 247.252 1517.37 M247.252 1513.66 Q253.062 1513.66 256.118 1518.27 Q259.197 1522.85 259.197 1531.6 Q259.197 1540.33 256.118 1544.94 Q253.062 1549.52 247.252 1549.52 Q241.442 1549.52 238.363 1544.94 Q235.308 1540.33 235.308 1531.6 Q235.308 1522.85 238.363 1518.27 Q241.442 1513.66 247.252 1513.66 Z" fill="#000000" fill-rule="nonzero" fill-opacity="1" /><path clip-path="url(#clip290)" d="M717.915 1514.29 L736.271 1514.29 L736.271 1518.22 L722.197 1518.22 L722.197 1526.7 Q723.216 1526.35 724.234 1526.19 Q725.253 1526 726.271 1526 Q732.058 1526 735.438 1529.17 Q738.818 1532.34 738.818 1537.76 Q738.818 1543.34 735.345 1546.44 Q731.873 1549.52 725.554 1549.52 Q723.378 1549.52 721.109 1549.15 Q718.864 1548.78 716.457 1548.04 L716.457 1543.34 Q718.54 1544.47 720.762 1545.03 Q722.984 1545.58 725.461 1545.58 Q729.466 1545.58 731.804 1543.48 Q734.142 1541.37 734.142 1537.76 Q734.142 1534.15 731.804 1532.04 Q729.466 1529.94 725.461 1529.94 Q723.586 1529.94 721.711 1530.35 Q719.859 1530.77 717.915 1531.65 L717.915 1514.29 Z" fill="#000000" fill-rule="nonzero" fill-opacity="1" /><path clip-path="url(#clip290)" d="M758.031 1517.37 Q754.419 1517.37 752.591 1520.93 Q750.785 1524.47 750.785 1531.6 Q750.785 1538.71 752.591 1542.27 Q754.419 1545.82 758.031 1545.82 Q761.665 1545.82 763.47 1542.27 Q765.299 1538.71 765.299 1531.6 Q765.299 1524.47 763.47 1520.93 Q761.665 1517.37 758.031 1517.37 M758.031 1513.66 Q763.841 1513.66 766.896 1518.27 Q769.975 1522.85 769.975 1531.6 Q769.975 1540.33 766.896 1544.94 Q763.841 1549.52 758.031 1549.52 Q752.22 1549.52 749.142 1544.94 Q746.086 1540.33 746.086 1531.6 Q746.086 1522.85 749.142 1518.27 Q752.22 1513.66 758.031 1513.66 Z" fill="#000000" fill-rule="nonzero" fill-opacity="1" /><path clip-path="url(#clip290)" d="M788.192 1517.37 Q784.581 1517.37 782.753 1520.93 Q780.947 1524.47 780.947 1531.6 Q780.947 1538.71 782.753 1542.27 Q784.581 1545.82 788.192 1545.82 Q791.827 1545.82 793.632 1542.27 Q795.461 1538.71 795.461 1531.6 Q795.461 1524.47 793.632 1520.93 Q791.827 1517.37 788.192 1517.37 M788.192 1513.66 Q794.003 1513.66 797.058 1518.27 Q800.137 1522.85 800.137 1531.6 Q800.137 1540.33 797.058 1544.94 Q794.003 1549.52 788.192 1549.52 Q782.382 1549.52 779.304 1544.94 Q776.248 1540.33 776.248 1531.6 Q776.248 1522.85 779.304 1518.27 Q782.382 1513.66 788.192 1513.66 Z" fill="#000000" fill-rule="nonzero" fill-opacity="1" /><path clip-path="url(#clip290)" d="M1213.87 1544.91 L1221.51 1544.91 L1221.51 1518.55 L1213.2 1520.21 L1213.2 1515.95 L1221.46 1514.29 L1226.14 1514.29 L1226.14 1544.91 L1233.77 1544.91 L1233.77 1548.85 L1213.87 1548.85 L1213.87 1544.91 Z" fill="#000000" fill-rule="nonzero" fill-opacity="1" /><path clip-path="url(#clip290)" d="M1253.22 1517.37 Q1249.61 1517.37 1247.78 1520.93 Q1245.97 1524.47 1245.97 1531.6 Q1245.97 1538.71 1247.78 1542.27 Q1249.61 1545.82 1253.22 1545.82 Q1256.85 1545.82 1258.66 1542.27 Q1260.49 1538.71 1260.49 1531.6 Q1260.49 1524.47 1258.66 1520.93 Q1256.85 1517.37 1253.22 1517.37 M1253.22 1513.66 Q1259.03 1513.66 1262.08 1518.27 Q1265.16 1522.85 1265.16 1531.6 Q1265.16 1540.33 1262.08 1544.94 Q1259.03 1549.52 1253.22 1549.52 Q1247.41 1549.52 1244.33 1544.94 Q1241.27 1540.33 1241.27 1531.6 Q1241.27 1522.85 1244.33 1518.27 Q1247.41 1513.66 1253.22 1513.66 Z" fill="#000000" fill-rule="nonzero" fill-opacity="1" /><path clip-path="url(#clip290)" d="M1283.38 1517.37 Q1279.77 1517.37 1277.94 1520.93 Q1276.14 1524.47 1276.14 1531.6 Q1276.14 1538.71 1277.94 1542.27 Q1279.77 1545.82 1283.38 1545.82 Q1287.01 1545.82 1288.82 1542.27 Q1290.65 1538.71 1290.65 1531.6 Q1290.65 1524.47 1288.82 1520.93 Q1287.01 1517.37 1283.38 1517.37 M1283.38 1513.66 Q1289.19 1513.66 1292.25 1518.27 Q1295.33 1522.85 1295.33 1531.6 Q1295.33 1540.33 1292.25 1544.94 Q1289.19 1549.52 1283.38 1549.52 Q1277.57 1549.52 1274.49 1544.94 Q1271.44 1540.33 1271.44 1531.6 Q1271.44 1522.85 1274.49 1518.27 Q1277.57 1513.66 1283.38 1513.66 Z" fill="#000000" fill-rule="nonzero" fill-opacity="1" /><path clip-path="url(#clip290)" d="M1313.54 1517.37 Q1309.93 1517.37 1308.1 1520.93 Q1306.3 1524.47 1306.3 1531.6 Q1306.3 1538.71 1308.1 1542.27 Q1309.93 1545.82 1313.54 1545.82 Q1317.18 1545.82 1318.98 1542.27 Q1320.81 1538.71 1320.81 1531.6 Q1320.81 1524.47 1318.98 1520.93 Q1317.18 1517.37 1313.54 1517.37 M1313.54 1513.66 Q1319.35 1513.66 1322.41 1518.27 Q1325.49 1522.85 1325.49 1531.6 Q1325.49 1540.33 1322.41 1544.94 Q1319.35 1549.52 1313.54 1549.52 Q1307.73 1549.52 1304.65 1544.94 Q1301.6 1540.33 1301.6 1531.6 Q1301.6 1522.85 1304.65 1518.27 Q1307.73 1513.66 1313.54 1513.66 Z" fill="#000000" fill-rule="nonzero" fill-opacity="1" /><path clip-path="url(#clip290)" d="M1724.91 1544.91 L1732.55 1544.91 L1732.55 1518.55 L1724.24 1520.21 L1724.24 1515.95 L1732.5 1514.29 L1737.18 1514.29 L1737.18 1544.91 L1744.82 1544.91 L1744.82 1548.85 L1724.91 1548.85 L1724.91 1544.91 Z" fill="#000000" fill-rule="nonzero" fill-opacity="1" /><path clip-path="url(#clip290)" d="M1754.31 1514.29 L1772.67 1514.29 L1772.67 1518.22 L1758.59 1518.22 L1758.59 1526.7 Q1759.61 1526.35 1760.63 1526.19 Q1761.65 1526 1762.67 1526 Q1768.45 1526 1771.83 1529.17 Q1775.21 1532.34 1775.21 1537.76 Q1775.21 1543.34 1771.74 1546.44 Q1768.27 1549.52 1761.95 1549.52 Q1759.77 1549.52 1757.5 1549.15 Q1755.26 1548.78 1752.85 1548.04 L1752.85 1543.34 Q1754.93 1544.47 1757.16 1545.03 Q1759.38 1545.58 1761.86 1545.58 Q1765.86 1545.58 1768.2 1543.48 Q1770.54 1541.37 1770.54 1537.76 Q1770.54 1534.15 1768.2 1532.04 Q1765.86 1529.94 1761.86 1529.94 Q1759.98 1529.94 1758.11 1530.35 Q1756.25 1530.77 1754.31 1531.65 L1754.31 1514.29 Z" fill="#000000" fill-rule="nonzero" fill-opacity="1" /><path clip-path="url(#clip290)" d="M1794.43 1517.37 Q1790.81 1517.37 1788.99 1520.93 Q1787.18 1524.47 1787.18 1531.6 Q1787.18 1538.71 1788.99 1542.27 Q1790.81 1545.82 1794.43 1545.82 Q1798.06 1545.82 1799.87 1542.27 Q1801.69 1538.71 1801.69 1531.6 Q1801.69 1524.47 1799.87 1520.93 Q1798.06 1517.37 1794.43 1517.37 M1794.43 1513.66 Q1800.24 1513.66 1803.29 1518.27 Q1806.37 1522.85 1806.37 1531.6 Q1806.37 1540.33 1803.29 1544.94 Q1800.24 1549.52 1794.43 1549.52 Q1788.62 1549.52 1785.54 1544.94 Q1782.48 1540.33 1782.48 1531.6 Q1782.48 1522.85 1785.54 1518.27 Q1788.62 1513.66 1794.43 1513.66 Z" fill="#000000" fill-rule="nonzero" fill-opacity="1" /><path clip-path="url(#clip290)" d="M1824.59 1517.37 Q1820.98 1517.37 1819.15 1520.93 Q1817.34 1524.47 1817.34 1531.6 Q1817.34 1538.71 1819.15 1542.27 Q1820.98 1545.82 1824.59 1545.82 Q1828.22 1545.82 1830.03 1542.27 Q1831.86 1538.71 1831.86 1531.6 Q1831.86 1524.47 1830.03 1520.93 Q1828.22 1517.37 1824.59 1517.37 M1824.59 1513.66 Q1830.4 1513.66 1833.45 1518.27 Q1836.53 1522.85 1836.53 1531.6 Q1836.53 1540.33 1833.45 1544.94 Q1830.4 1549.52 1824.59 1549.52 Q1818.78 1549.52 1815.7 1544.94 Q1812.64 1540.33 1812.64 1531.6 Q1812.64 1522.85 1815.7 1518.27 Q1818.78 1513.66 1824.59 1513.66 Z" fill="#000000" fill-rule="nonzero" fill-opacity="1" /><path clip-path="url(#clip290)" d="M2240.04 1544.91 L2256.36 1544.91 L2256.36 1548.85 L2234.42 1548.85 L2234.42 1544.91 Q2237.08 1542.16 2241.66 1537.53 Q2246.27 1532.88 2247.45 1531.53 Q2249.69 1529.01 2250.57 1527.27 Q2251.48 1525.51 2251.48 1523.82 Q2251.48 1521.07 2249.53 1519.33 Q2247.61 1517.6 2244.51 1517.6 Q2242.31 1517.6 2239.86 1518.36 Q2237.43 1519.13 2234.65 1520.68 L2234.65 1515.95 Q2237.47 1514.82 2239.93 1514.24 Q2242.38 1513.66 2244.42 1513.66 Q2249.79 1513.66 2252.98 1516.35 Q2256.18 1519.03 2256.18 1523.52 Q2256.18 1525.65 2255.37 1527.57 Q2254.58 1529.47 2252.47 1532.07 Q2251.89 1532.74 2248.79 1535.95 Q2245.69 1539.15 2240.04 1544.91 Z" fill="#000000" fill-rule="nonzero" fill-opacity="1" /><path clip-path="url(#clip290)" d="M2276.18 1517.37 Q2272.56 1517.37 2270.74 1520.93 Q2268.93 1524.47 2268.93 1531.6 Q2268.93 1538.71 2270.74 1542.27 Q2272.56 1545.82 2276.18 1545.82 Q2279.81 1545.82 2281.62 1542.27 Q2283.44 1538.71 2283.44 1531.6 Q2283.44 1524.47 2281.62 1520.93 Q2279.81 1517.37 2276.18 1517.37 M2276.18 1513.66 Q2281.99 1513.66 2285.04 1518.27 Q2288.12 1522.85 2288.12 1531.6 Q2288.12 1540.33 2285.04 1544.94 Q2281.99 1549.52 2276.18 1549.52 Q2270.37 1549.52 2267.29 1544.94 Q2264.23 1540.33 2264.23 1531.6 Q2264.23 1522.85 2267.29 1518.27 Q2270.37 1513.66 2276.18 1513.66 Z" fill="#000000" fill-rule="nonzero" fill-opacity="1" /><path clip-path="url(#clip290)" d="M2306.34 1517.37 Q2302.73 1517.37 2300.9 1520.93 Q2299.09 1524.47 2299.09 1531.6 Q2299.09 1538.71 2300.9 1542.27 Q2302.73 1545.82 2306.34 1545.82 Q2309.97 1545.82 2311.78 1542.27 Q2313.61 1538.71 2313.61 1531.6 Q2313.61 1524.47 2311.78 1520.93 Q2309.97 1517.37 2306.34 1517.37 M2306.34 1513.66 Q2312.15 1513.66 2315.2 1518.27 Q2318.28 1522.85 2318.28 1531.6 Q2318.28 1540.33 2315.2 1544.94 Q2312.15 1549.52 2306.34 1549.52 Q2300.53 1549.52 2297.45 1544.94 Q2294.39 1540.33 2294.39 1531.6 Q2294.39 1522.85 2297.45 1518.27 Q2300.53 1513.66 2306.34 1513.66 Z" fill="#000000" fill-rule="nonzero" fill-opacity="1" /><path clip-path="url(#clip290)" d="M2336.5 1517.37 Q2332.89 1517.37 2331.06 1520.93 Q2329.25 1524.47 2329.25 1531.6 Q2329.25 1538.71 2331.06 1542.27 Q2332.89 1545.82 2336.5 1545.82 Q2340.13 1545.82 2341.94 1542.27 Q2343.77 1538.71 2343.77 1531.6 Q2343.77 1524.47 2341.94 1520.93 Q2340.13 1517.37 2336.5 1517.37 M2336.5 1513.66 Q2342.31 1513.66 2345.37 1518.27 Q2348.44 1522.85 2348.44 1531.6 Q2348.44 1540.33 2345.37 1544.94 Q2342.31 1549.52 2336.5 1549.52 Q2330.69 1549.52 2327.61 1544.94 Q2324.56 1540.33 2324.56 1531.6 Q2324.56 1522.85 2327.61 1518.27 Q2330.69 1513.66 2336.5 1513.66 Z" fill="#000000" fill-rule="nonzero" fill-opacity="1" /><polyline clip-path="url(#clip292)" style="stroke:#000000; stroke-linecap:round; stroke-linejoin:round; stroke-width:2; stroke-opacity:0.1; fill:none" points="185.927,1443.81 2352.76,1443.81 "/>
<polyline clip-path="url(#clip292)" style="stroke:#000000; stroke-linecap:round; stroke-linejoin:round; stroke-width:2; stroke-opacity:0.1; fill:none" points="185.927,1237.11 2352.76,1237.11 "/>
<polyline clip-path="url(#clip292)" style="stroke:#000000; stroke-linecap:round; stroke-linejoin:round; stroke-width:2; stroke-opacity:0.1; fill:none" points="185.927,1030.41 2352.76,1030.41 "/>
<polyline clip-path="url(#clip292)" style="stroke:#000000; stroke-linecap:round; stroke-linejoin:round; stroke-width:2; stroke-opacity:0.1; fill:none" points="185.927,823.702 2352.76,823.702 "/>
<polyline clip-path="url(#clip292)" style="stroke:#000000; stroke-linecap:round; stroke-linejoin:round; stroke-width:2; stroke-opacity:0.1; fill:none" points="185.927,616.998 2352.76,616.998 "/>
<polyline clip-path="url(#clip292)" style="stroke:#000000; stroke-linecap:round; stroke-linejoin:round; stroke-width:2; stroke-opacity:0.1; fill:none" points="185.927,410.295 2352.76,410.295 "/>
<polyline clip-path="url(#clip292)" style="stroke:#000000; stroke-linecap:round; stroke-linejoin:round; stroke-width:2; stroke-opacity:0.1; fill:none" points="185.927,203.591 2352.76,203.591 "/>
<polyline clip-path="url(#clip290)" style="stroke:#000000; stroke-linecap:round; stroke-linejoin:round; stroke-width:4; stroke-opacity:1; fill:none" points="185.927,1486.45 185.927,47.2441 "/>
<polyline clip-path="url(#clip290)" style="stroke:#000000; stroke-linecap:round; stroke-linejoin:round; stroke-width:4; stroke-opacity:1; fill:none" points="185.927,1443.81 204.824,1443.81 "/>
<polyline clip-path="url(#clip290)" style="stroke:#000000; stroke-linecap:round; stroke-linejoin:round; stroke-width:4; stroke-opacity:1; fill:none" points="185.927,1237.11 204.824,1237.11 "/>
<polyline clip-path="url(#clip290)" style="stroke:#000000; stroke-linecap:round; stroke-linejoin:round; stroke-width:4; stroke-opacity:1; fill:none" points="185.927,1030.41 204.824,1030.41 "/>
<polyline clip-path="url(#clip290)" style="stroke:#000000; stroke-linecap:round; stroke-linejoin:round; stroke-width:4; stroke-opacity:1; fill:none" points="185.927,823.702 204.824,823.702 "/>
<polyline clip-path="url(#clip290)" style="stroke:#000000; stroke-linecap:round; stroke-linejoin:round; stroke-width:4; stroke-opacity:1; fill:none" points="185.927,616.998 204.824,616.998 "/>
<polyline clip-path="url(#clip290)" style="stroke:#000000; stroke-linecap:round; stroke-linejoin:round; stroke-width:4; stroke-opacity:1; fill:none" points="185.927,410.295 204.824,410.295 "/>
<polyline clip-path="url(#clip290)" style="stroke:#000000; stroke-linecap:round; stroke-linejoin:round; stroke-width:4; stroke-opacity:1; fill:none" points="185.927,203.591 204.824,203.591 "/>
<path clip-path="url(#clip290)" d="M63.5847 1429.61 Q59.9736 1429.61 58.1449 1433.18 Q56.3393 1436.72 56.3393 1443.85 Q56.3393 1450.95 58.1449 1454.52 Q59.9736 1458.06 63.5847 1458.06 Q67.2189 1458.06 69.0244 1454.52 Q70.8531 1450.95 70.8531 1443.85 Q70.8531 1436.72 69.0244 1433.18 Q67.2189 1429.61 63.5847 1429.61 M63.5847 1425.91 Q69.3948 1425.91 72.4503 1430.51 Q75.529 1435.1 75.529 1443.85 Q75.529 1452.57 72.4503 1457.18 Q69.3948 1461.76 63.5847 1461.76 Q57.7745 1461.76 54.6958 1457.18 Q51.6403 1452.57 51.6403 1443.85 Q51.6403 1435.1 54.6958 1430.51 Q57.7745 1425.91 63.5847 1425.91 Z" fill="#000000" fill-rule="nonzero" fill-opacity="1" /><path clip-path="url(#clip290)" d="M83.7466 1455.21 L88.6308 1455.21 L88.6308 1461.09 L83.7466 1461.09 L83.7466 1455.21 Z" fill="#000000" fill-rule="nonzero" fill-opacity="1" /><path clip-path="url(#clip290)" d="M97.6354 1426.53 L119.857 1426.53 L119.857 1428.52 L107.311 1461.09 L102.427 1461.09 L114.233 1430.47 L97.6354 1430.47 L97.6354 1426.53 Z" fill="#000000" fill-rule="nonzero" fill-opacity="1" /><path clip-path="url(#clip290)" d="M129.024 1426.53 L147.38 1426.53 L147.38 1430.47 L133.306 1430.47 L133.306 1438.94 Q134.325 1438.59 135.344 1438.43 Q136.362 1438.24 137.381 1438.24 Q143.168 1438.24 146.547 1441.42 Q149.927 1444.59 149.927 1450 Q149.927 1455.58 146.455 1458.68 Q142.982 1461.76 136.663 1461.76 Q134.487 1461.76 132.219 1461.39 Q129.973 1461.02 127.566 1460.28 L127.566 1455.58 Q129.649 1456.72 131.871 1457.27 Q134.094 1457.83 136.57 1457.83 Q140.575 1457.83 142.913 1455.72 Q145.251 1453.62 145.251 1450 Q145.251 1446.39 142.913 1444.29 Q140.575 1442.18 136.57 1442.18 Q134.695 1442.18 132.82 1442.6 Q130.969 1443.01 129.024 1443.89 L129.024 1426.53 Z" fill="#000000" fill-rule="nonzero" fill-opacity="1" /><path clip-path="url(#clip290)" d="M53.3995 1250.45 L61.0384 1250.45 L61.0384 1224.09 L52.7282 1225.75 L52.7282 1221.5 L60.9921 1219.83 L65.668 1219.83 L65.668 1250.45 L73.3068 1250.45 L73.3068 1254.39 L53.3995 1254.39 L53.3995 1250.45 Z" fill="#000000" fill-rule="nonzero" fill-opacity="1" /><path clip-path="url(#clip290)" d="M82.7512 1248.51 L87.6354 1248.51 L87.6354 1254.39 L82.7512 1254.39 L82.7512 1248.51 Z" fill="#000000" fill-rule="nonzero" fill-opacity="1" /><path clip-path="url(#clip290)" d="M107.821 1222.91 Q104.209 1222.91 102.381 1226.47 Q100.575 1230.01 100.575 1237.14 Q100.575 1244.25 102.381 1247.81 Q104.209 1251.36 107.821 1251.36 Q111.455 1251.36 113.26 1247.81 Q115.089 1244.25 115.089 1237.14 Q115.089 1230.01 113.26 1226.47 Q111.455 1222.91 107.821 1222.91 M107.821 1219.2 Q113.631 1219.2 116.686 1223.81 Q119.765 1228.39 119.765 1237.14 Q119.765 1245.87 116.686 1250.48 Q113.631 1255.06 107.821 1255.06 Q102.01 1255.06 98.9317 1250.48 Q95.8761 1245.87 95.8761 1237.14 Q95.8761 1228.39 98.9317 1223.81 Q102.01 1219.2 107.821 1219.2 Z" fill="#000000" fill-rule="nonzero" fill-opacity="1" /><path clip-path="url(#clip290)" d="M137.982 1222.91 Q134.371 1222.91 132.543 1226.47 Q130.737 1230.01 130.737 1237.14 Q130.737 1244.25 132.543 1247.81 Q134.371 1251.36 137.982 1251.36 Q141.617 1251.36 143.422 1247.81 Q145.251 1244.25 145.251 1237.14 Q145.251 1230.01 143.422 1226.47 Q141.617 1222.91 137.982 1222.91 M137.982 1219.2 Q143.793 1219.2 146.848 1223.81 Q149.927 1228.39 149.927 1237.14 Q149.927 1245.87 146.848 1250.48 Q143.793 1255.06 137.982 1255.06 Q132.172 1255.06 129.094 1250.48 Q126.038 1245.87 126.038 1237.14 Q126.038 1228.39 129.094 1223.81 Q132.172 1219.2 137.982 1219.2 Z" fill="#000000" fill-rule="nonzero" fill-opacity="1" /><path clip-path="url(#clip290)" d="M54.3949 1043.75 L62.0337 1043.75 L62.0337 1017.38 L53.7236 1019.05 L53.7236 1014.79 L61.9874 1013.13 L66.6633 1013.13 L66.6633 1043.75 L74.3022 1043.75 L74.3022 1047.69 L54.3949 1047.69 L54.3949 1043.75 Z" fill="#000000" fill-rule="nonzero" fill-opacity="1" /><path clip-path="url(#clip290)" d="M83.7466 1041.81 L88.6308 1041.81 L88.6308 1047.69 L83.7466 1047.69 L83.7466 1041.81 Z" fill="#000000" fill-rule="nonzero" fill-opacity="1" /><path clip-path="url(#clip290)" d="M102.844 1043.75 L119.163 1043.75 L119.163 1047.69 L97.2187 1047.69 L97.2187 1043.75 Q99.8808 1041 104.464 1036.37 Q109.071 1031.71 110.251 1030.37 Q112.496 1027.85 113.376 1026.11 Q114.279 1024.35 114.279 1022.66 Q114.279 1019.91 112.334 1018.17 Q110.413 1016.44 107.311 1016.44 Q105.112 1016.44 102.659 1017.2 Q100.228 1017.96 97.4502 1019.51 L97.4502 1014.79 Q100.274 1013.66 102.728 1013.08 Q105.182 1012.5 107.219 1012.5 Q112.589 1012.5 115.783 1015.19 Q118.978 1017.87 118.978 1022.36 Q118.978 1024.49 118.168 1026.41 Q117.381 1028.31 115.274 1030.9 Q114.695 1031.57 111.594 1034.79 Q108.492 1037.99 102.844 1043.75 Z" fill="#000000" fill-rule="nonzero" fill-opacity="1" /><path clip-path="url(#clip290)" d="M129.024 1013.13 L147.38 1013.13 L147.38 1017.06 L133.306 1017.06 L133.306 1025.53 Q134.325 1025.19 135.344 1025.02 Q136.362 1024.84 137.381 1024.84 Q143.168 1024.84 146.547 1028.01 Q149.927 1031.18 149.927 1036.6 Q149.927 1042.18 146.455 1045.28 Q142.982 1048.36 136.663 1048.36 Q134.487 1048.36 132.219 1047.99 Q129.973 1047.62 127.566 1046.87 L127.566 1042.18 Q129.649 1043.31 131.871 1043.87 Q134.094 1044.42 136.57 1044.42 Q140.575 1044.42 142.913 1042.31 Q145.251 1040.21 145.251 1036.6 Q145.251 1032.99 142.913 1030.88 Q140.575 1028.77 136.57 1028.77 Q134.695 1028.77 132.82 1029.19 Q130.969 1029.61 129.024 1030.49 L129.024 1013.13 Z" fill="#000000" fill-rule="nonzero" fill-opacity="1" /><path clip-path="url(#clip290)" d="M53.3995 837.046 L61.0384 837.046 L61.0384 810.681 L52.7282 812.348 L52.7282 808.088 L60.9921 806.422 L65.668 806.422 L65.668 837.046 L73.3068 837.046 L73.3068 840.982 L53.3995 840.982 L53.3995 837.046 Z" fill="#000000" fill-rule="nonzero" fill-opacity="1" /><path clip-path="url(#clip290)" d="M82.7512 835.102 L87.6354 835.102 L87.6354 840.982 L82.7512 840.982 L82.7512 835.102 Z" fill="#000000" fill-rule="nonzero" fill-opacity="1" /><path clip-path="url(#clip290)" d="M97.8669 806.422 L116.223 806.422 L116.223 810.357 L102.149 810.357 L102.149 818.829 Q103.168 818.482 104.186 818.32 Q105.205 818.135 106.223 818.135 Q112.01 818.135 115.39 821.306 Q118.77 824.477 118.77 829.894 Q118.77 835.472 115.297 838.574 Q111.825 841.653 105.506 841.653 Q103.33 841.653 101.061 841.283 Q98.8159 840.912 96.4085 840.171 L96.4085 835.472 Q98.4919 836.607 100.714 837.162 Q102.936 837.718 105.413 837.718 Q109.418 837.718 111.756 835.611 Q114.094 833.505 114.094 829.894 Q114.094 826.283 111.756 824.176 Q109.418 822.07 105.413 822.07 Q103.538 822.07 101.663 822.486 Q99.8113 822.903 97.8669 823.783 L97.8669 806.422 Z" fill="#000000" fill-rule="nonzero" fill-opacity="1" /><path clip-path="url(#clip290)" d="M137.982 809.5 Q134.371 809.5 132.543 813.065 Q130.737 816.607 130.737 823.736 Q130.737 830.843 132.543 834.408 Q134.371 837.949 137.982 837.949 Q141.617 837.949 143.422 834.408 Q145.251 830.843 145.251 823.736 Q145.251 816.607 143.422 813.065 Q141.617 809.5 137.982 809.5 M137.982 805.797 Q143.793 805.797 146.848 810.403 Q149.927 814.986 149.927 823.736 Q149.927 832.463 146.848 837.07 Q143.793 841.653 137.982 841.653 Q132.172 841.653 129.094 837.07 Q126.038 832.463 126.038 823.736 Q126.038 814.986 129.094 810.403 Q132.172 805.797 137.982 805.797 Z" fill="#000000" fill-rule="nonzero" fill-opacity="1" /><path clip-path="url(#clip290)" d="M54.3949 630.343 L62.0337 630.343 L62.0337 603.977 L53.7236 605.644 L53.7236 601.385 L61.9874 599.718 L66.6633 599.718 L66.6633 630.343 L74.3022 630.343 L74.3022 634.278 L54.3949 634.278 L54.3949 630.343 Z" fill="#000000" fill-rule="nonzero" fill-opacity="1" /><path clip-path="url(#clip290)" d="M83.7466 628.399 L88.6308 628.399 L88.6308 634.278 L83.7466 634.278 L83.7466 628.399 Z" fill="#000000" fill-rule="nonzero" fill-opacity="1" /><path clip-path="url(#clip290)" d="M97.6354 599.718 L119.857 599.718 L119.857 601.709 L107.311 634.278 L102.427 634.278 L114.233 603.653 L97.6354 603.653 L97.6354 599.718 Z" fill="#000000" fill-rule="nonzero" fill-opacity="1" /><path clip-path="url(#clip290)" d="M129.024 599.718 L147.38 599.718 L147.38 603.653 L133.306 603.653 L133.306 612.126 Q134.325 611.778 135.344 611.616 Q136.362 611.431 137.381 611.431 Q143.168 611.431 146.547 614.602 Q149.927 617.774 149.927 623.19 Q149.927 628.769 146.455 631.871 Q142.982 634.95 136.663 634.95 Q134.487 634.95 132.219 634.579 Q129.973 634.209 127.566 633.468 L127.566 628.769 Q129.649 629.903 131.871 630.459 Q134.094 631.014 136.57 631.014 Q140.575 631.014 142.913 628.908 Q145.251 626.801 145.251 623.19 Q145.251 619.579 142.913 617.473 Q140.575 615.366 136.57 615.366 Q134.695 615.366 132.82 615.783 Q130.969 616.2 129.024 617.079 L129.024 599.718 Z" fill="#000000" fill-rule="nonzero" fill-opacity="1" /><path clip-path="url(#clip290)" d="M56.6171 423.64 L72.9365 423.64 L72.9365 427.575 L50.9921 427.575 L50.9921 423.64 Q53.6541 420.885 58.2375 416.255 Q62.8439 411.603 64.0245 410.26 Q66.2698 407.737 67.1494 406.001 Q68.0522 404.242 68.0522 402.552 Q68.0522 399.797 66.1078 398.061 Q64.1865 396.325 61.0847 396.325 Q58.8856 396.325 56.4319 397.089 Q54.0014 397.853 51.2236 399.404 L51.2236 394.681 Q54.0477 393.547 56.5014 392.969 Q58.955 392.39 60.9921 392.39 Q66.3624 392.39 69.5568 395.075 Q72.7513 397.76 72.7513 402.251 Q72.7513 404.381 71.9411 406.302 Q71.1541 408.2 69.0476 410.793 Q68.4689 411.464 65.367 414.681 Q62.2652 417.876 56.6171 423.64 Z" fill="#000000" fill-rule="nonzero" fill-opacity="1" /><path clip-path="url(#clip290)" d="M82.7512 421.695 L87.6354 421.695 L87.6354 427.575 L82.7512 427.575 L82.7512 421.695 Z" fill="#000000" fill-rule="nonzero" fill-opacity="1" /><path clip-path="url(#clip290)" d="M107.821 396.094 Q104.209 396.094 102.381 399.658 Q100.575 403.2 100.575 410.33 Q100.575 417.436 102.381 421.001 Q104.209 424.542 107.821 424.542 Q111.455 424.542 113.26 421.001 Q115.089 417.436 115.089 410.33 Q115.089 403.2 113.26 399.658 Q111.455 396.094 107.821 396.094 M107.821 392.39 Q113.631 392.39 116.686 396.996 Q119.765 401.58 119.765 410.33 Q119.765 419.056 116.686 423.663 Q113.631 428.246 107.821 428.246 Q102.01 428.246 98.9317 423.663 Q95.8761 419.056 95.8761 410.33 Q95.8761 401.58 98.9317 396.996 Q102.01 392.39 107.821 392.39 Z" fill="#000000" fill-rule="nonzero" fill-opacity="1" /><path clip-path="url(#clip290)" d="M137.982 396.094 Q134.371 396.094 132.543 399.658 Q130.737 403.2 130.737 410.33 Q130.737 417.436 132.543 421.001 Q134.371 424.542 137.982 424.542 Q141.617 424.542 143.422 421.001 Q145.251 417.436 145.251 410.33 Q145.251 403.2 143.422 399.658 Q141.617 396.094 137.982 396.094 M137.982 392.39 Q143.793 392.39 146.848 396.996 Q149.927 401.58 149.927 410.33 Q149.927 419.056 146.848 423.663 Q143.793 428.246 137.982 428.246 Q132.172 428.246 129.094 423.663 Q126.038 419.056 126.038 410.33 Q126.038 401.58 129.094 396.996 Q132.172 392.39 137.982 392.39 Z" fill="#000000" fill-rule="nonzero" fill-opacity="1" /><path clip-path="url(#clip290)" d="M57.6125 216.936 L73.9318 216.936 L73.9318 220.871 L51.9875 220.871 L51.9875 216.936 Q54.6495 214.182 59.2328 209.552 Q63.8393 204.899 65.0198 203.557 Q67.2652 201.034 68.1448 199.297 Q69.0476 197.538 69.0476 195.848 Q69.0476 193.094 67.1032 191.358 Q65.1819 189.622 62.08 189.622 Q59.881 189.622 57.4273 190.385 Q54.9967 191.149 52.219 192.7 L52.219 187.978 Q55.043 186.844 57.4967 186.265 Q59.9504 185.686 61.9874 185.686 Q67.3578 185.686 70.5522 188.372 Q73.7466 191.057 73.7466 195.548 Q73.7466 197.677 72.9365 199.598 Q72.1494 201.497 70.0429 204.089 Q69.4642 204.76 66.3624 207.978 Q63.2606 211.172 57.6125 216.936 Z" fill="#000000" fill-rule="nonzero" fill-opacity="1" /><path clip-path="url(#clip290)" d="M83.7466 214.992 L88.6308 214.992 L88.6308 220.871 L83.7466 220.871 L83.7466 214.992 Z" fill="#000000" fill-rule="nonzero" fill-opacity="1" /><path clip-path="url(#clip290)" d="M102.844 216.936 L119.163 216.936 L119.163 220.871 L97.2187 220.871 L97.2187 216.936 Q99.8808 214.182 104.464 209.552 Q109.071 204.899 110.251 203.557 Q112.496 201.034 113.376 199.297 Q114.279 197.538 114.279 195.848 Q114.279 193.094 112.334 191.358 Q110.413 189.622 107.311 189.622 Q105.112 189.622 102.659 190.385 Q100.228 191.149 97.4502 192.7 L97.4502 187.978 Q100.274 186.844 102.728 186.265 Q105.182 185.686 107.219 185.686 Q112.589 185.686 115.783 188.372 Q118.978 191.057 118.978 195.548 Q118.978 197.677 118.168 199.598 Q117.381 201.497 115.274 204.089 Q114.695 204.76 111.594 207.978 Q108.492 211.172 102.844 216.936 Z" fill="#000000" fill-rule="nonzero" fill-opacity="1" /><path clip-path="url(#clip290)" d="M129.024 186.311 L147.38 186.311 L147.38 190.247 L133.306 190.247 L133.306 198.719 Q134.325 198.372 135.344 198.21 Q136.362 198.024 137.381 198.024 Q143.168 198.024 146.547 201.196 Q149.927 204.367 149.927 209.784 Q149.927 215.362 146.455 218.464 Q142.982 221.543 136.663 221.543 Q134.487 221.543 132.219 221.172 Q129.973 220.802 127.566 220.061 L127.566 215.362 Q129.649 216.496 131.871 217.052 Q134.094 217.608 136.57 217.608 Q140.575 217.608 142.913 215.501 Q145.251 213.395 145.251 209.784 Q145.251 206.172 142.913 204.066 Q140.575 201.96 136.57 201.96 Q134.695 201.96 132.82 202.376 Q130.969 202.793 129.024 203.672 L129.024 186.311 Z" fill="#000000" fill-rule="nonzero" fill-opacity="1" /><polyline clip-path="url(#clip292)" style="stroke:#009af9; stroke-linecap:round; stroke-linejoin:round; stroke-width:4; stroke-opacity:1; fill:none" points="247.252,937.732 248.274,937.764 249.296,1164.27 250.318,1164.29 251.34,477.19 252.363,477.254 253.385,918.306 254.407,918.346 255.429,457.805 256.451,457.868 257.473,870.847 258.495,870.881 259.517,626.655 260.539,626.694 261.561,956.168 262.583,956.184 263.606,533.827 264.628,533.883 265.65,766.229 266.672,766.268 267.694,565.045 268.716,565.069 269.738,1107.47 270.76,1107.49 271.782,897.284 272.804,897.31 273.826,1085.83 274.849,1085.85 275.871,685.433 276.893,685.476 277.915,931.29 278.937,931.313 279.959,372.1 280.981,372.16 282.003,951.25 283.025,951.279 284.047,812.804 285.069,812.846 286.092,1126.18 287.114,1126.2 288.136,634.509 289.158,634.55 290.18,851.008 291.202,851.043 292.224,1001.57 293.246,1001.6 294.268,744.755 295.29,744.815 296.312,1051.52 297.335,1051.56 298.357,865.302 299.379,865.334 300.401,809.491 301.423,809.518 302.445,698.366 303.467,698.396 304.489,1156.7 305.511,1156.72 306.533,808.103 307.555,808.135 308.577,990.172 309.6,990.195 310.622,1042.51 311.644,1042.54 312.666,1032.1 313.688,1032.13 314.71,781.172 315.732,781.217 316.754,1048.07 317.776,1048.09 318.798,842.742 319.82,842.777 320.843,785.31 321.865,785.347 322.887,852.627 323.909,852.658 324.931,1020.81 325.953,1020.83 326.975,822.778 327.997,822.806 329.019,1066.58 330.041,1066.61 331.063,1032.78 332.086,1032.81 333.108,846.766 334.13,846.795 335.152,1092.4 336.174,1092.42 337.196,1022.87 338.218,1022.89 339.24,913.029 340.262,913.059 341.284,921.145 342.306,921.176 343.329,785.305 344.351,785.329 345.373,743.419 346.395,743.46 347.417,644.997 348.439,645.053 349.461,1072.86 350.483,1072.87 351.505,840.122 352.527,840.151 353.549,925.945 354.572,925.983 355.594,575.051 356.616,575.107 357.638,531.81 358.66,531.856 359.682,682.884 360.704,682.928 361.726,1151.47 362.748,1151.49 363.77,1147.66 364.792,1147.68 365.814,1127.04 366.837,1127.06 367.859,731.437 368.881,731.486 369.903,704.998 370.925,705.038 371.947,1024.03 372.969,1024.06 373.991,862.12 375.013,862.158 376.035,885.023 377.057,885.051 378.08,1226.4 379.102,1226.42 380.124,1186.51 381.146,1186.52 382.168,1065.38 383.19,1065.41 384.212,839.195 385.234,839.221 386.256,851.882 387.278,851.911 388.3,1000.28 389.323,1000.31 390.345,1122.76 391.367,1122.78 392.389,898.577 393.411,898.599 394.433,828.096 395.455,828.123 396.477,1296.2 397.499,1296.21 398.521,1097.42 399.543,1097.45 400.566,467.579 401.588,467.634 402.61,1131.9 403.632,1131.91 404.654,710.384 405.676,710.412 406.698,761.714 407.72,761.746 408.742,963.749 409.764,963.777 410.786,853.249 411.808,853.278 412.831,1008.08 413.853,1008.1 414.875,804.439 415.897,804.475 416.919,1227.28 417.941,1227.31 418.963,969.4 419.985,969.424 421.007,1012.46 422.029,1012.49 423.051,1123.81 424.074,1123.82 425.096,777.375 426.118,777.427 427.14,1025.89 428.162,1025.91 429.184,542.444 430.206,542.492 431.228,916.889 432.25,916.913 433.272,754.272 434.294,754.308 435.317,859.321 436.339,859.356 437.361,601.145 438.383,601.185 439.405,817.79 440.427,817.823 441.449,863.879 442.471,863.915 443.493,587.617 444.515,587.651 445.537,1014.64 446.56,1014.66 447.582,885.549 448.604,885.581 449.626,1052.33 450.648,1052.36 451.67,852.676 452.692,852.704 453.714,886.546 454.736,886.575 455.758,1103.22 456.78,1103.24 457.803,803.667 458.825,803.7 459.847,1073.7 460.869,1073.73 461.891,796.059 462.913,796.1 463.935,1119.93 464.957,1119.95 465.979,923.532 467.001,923.553 468.023,896.748 469.045,896.783 470.068,1069.82 471.09,1069.83 472.112,1235.4 473.134,1235.42 474.156,963.53 475.178,963.559 476.2,778.835 477.222,778.875 478.244,772.913 479.266,772.941 480.288,1093.45 481.311,1093.48 482.333,972.665 483.355,972.7 484.377,965.884 485.399,965.905 486.421,939.301 487.443,939.341 488.465,938.839 489.487,938.86 490.509,885.131 491.531,885.154 492.554,682.546 493.576,682.579 494.598,980.465 495.62,980.486 496.642,1061.37 497.664,1061.4 498.686,687.161 499.708,687.207 500.73,1010.41 501.752,1010.44 502.774,1283.62 503.797,1283.63 504.819,975.145 505.841,975.164 506.863,976.799 507.885,976.831 508.907,1114.45 509.929,1114.47 510.951,473.448 511.973,473.533 512.995,769.611 514.017,769.643 515.04,799.168 516.062,799.199 517.084,1126.69 518.106,1126.71 519.128,934.503 520.15,934.533 521.172,927.636 522.194,927.663 523.216,847.109 524.238,847.145 525.26,673.291 526.282,673.34 527.305,900.958 528.327,900.99 529.349,1061.31 530.371,1061.34 531.393,773.245 532.415,773.277 533.437,963.736 534.459,963.767 535.481,902.482 536.503,902.515 537.525,981.545 538.548,981.578 539.57,377.508 540.592,377.543 541.614,909.562 542.636,909.582 543.658,281.659 544.68,281.747 545.702,623.933 546.724,623.979 547.746,1277.75 548.768,1277.76 549.791,691.968 550.813,692.032 551.835,507.539 552.857,507.583 553.879,755.695 554.901,755.742 555.923,760.087 556.945,760.117 557.967,1074.59 558.989,1074.6 560.011,922.489 561.034,922.53 562.056,992.855 563.078,992.874 564.1,899.836 565.122,899.867 566.144,992.626 567.166,992.64 568.188,1098.31 569.21,1098.33 570.232,846.929 571.254,846.964 572.277,888.843 573.299,888.868 574.321,1069.54 575.343,1069.56 576.365,598.092 577.387,598.176 578.409,864.54 579.431,864.581 580.453,813.866 581.475,813.899 582.497,930.022 583.519,930.051 584.542,953.088 585.564,953.114 586.586,1106.21 587.608,1106.23 588.63,1020.23 589.652,1020.26 590.674,1009.05 591.696,1009.07 592.718,821.738 593.74,821.763 594.762,1137.58 595.785,1137.6 596.807,785.63 597.829,785.655 598.851,783.31 599.873,783.368 600.895,878.817 601.917,878.843 602.939,1097.07 603.961,1097.08 604.983,1114.35 606.005,1114.38 607.028,638.809 608.05,638.846 609.072,633.426 610.094,633.464 611.116,637.773 612.138,637.81 613.16,1080.17 614.182,1080.2 615.204,806.662 616.226,806.704 617.248,605.487 618.271,605.548 619.293,643.213 620.315,643.237 621.337,1238.25 622.359,1238.28 623.381,769.173 624.403,769.209 625.425,817.748 626.447,817.777 627.469,1273.08 628.491,1273.1 629.513,1020.05 630.536,1020.09 631.558,1105.87 632.58,1105.88 633.602,748.217 634.624,748.258 635.646,726.7 636.668,726.74 637.69,1023.4 638.712,1023.43 639.734,1056.47 640.756,1056.49 641.779,979.11 642.801,979.131 643.823,1176.65 644.845,1176.67 645.867,933.66 646.889,933.693 647.911,1092.14 648.933,1092.16 649.955,676.696 650.977,676.726 651.999,780.143 653.022,780.187 654.044,785.661 655.066,785.695 656.088,854.815 657.11,854.845 658.132,702.73 659.154,702.765 660.176,767.097 661.198,767.134 662.22,1102.33 663.242,1102.35 664.265,818.693 665.287,818.728 666.309,664.001 667.331,664.043 668.353,832.422 669.375,832.448 670.397,1109.81 671.419,1109.82 672.441,982.713 673.463,982.736 674.485,916.958 675.508,916.983 676.53,668.659 677.552,668.686 678.574,338.116 679.596,338.176 680.618,828.541 681.64,828.568 682.662,970.837 683.684,970.857 684.706,1196.75 685.728,1196.77 686.75,747.449 687.773,747.487 688.795,914.064 689.817,914.096 690.839,1122.2 691.861,1122.22 692.883,577.639 693.905,577.691 694.927,700.466 695.949,700.508 696.971,979.9 697.993,979.919 699.016,889.66 700.038,889.688 701.06,1029.97 702.082,1029.99 703.104,578.661 704.126,578.701 705.148,867.41 706.17,867.442 707.192,705.568 708.214,705.604 709.236,799.125 710.259,799.155 711.281,717.036 712.303,717.073 713.325,953.262 714.347,953.293 715.369,854.42 716.391,854.451 717.413,721.308 718.435,721.363 719.457,651.901 720.479,651.943 721.502,939.794 722.524,939.82 723.546,599.815 724.568,599.857 725.59,964.607 726.612,964.634 727.634,685.306 728.656,685.358 729.678,967.81 730.7,967.836 731.722,1247.5 732.745,1247.52 733.767,1112.46 734.789,1112.48 735.811,1202.29 736.833,1202.3 737.855,742.934 738.877,742.964 739.899,942.526 740.921,942.556 741.943,920.959 742.965,920.992 743.987,779.853 745.01,779.9 746.032,1010.45 747.054,1010.48 748.076,802.438 749.098,802.461 750.12,1019.1 751.142,1019.13 752.164,577.331 753.186,577.378 754.208,951.932 755.23,951.957 756.253,733.477 757.275,733.511 758.297,929.444 759.319,929.473 760.341,897.661 761.363,897.694 762.385,1100.36 763.407,1100.37 764.429,1027.61 765.451,1027.62 766.473,949.556 767.496,949.578 768.518,1064.64 769.54,1064.66 770.562,816.664 771.584,816.697 772.606,694.715 773.628,694.766 774.65,988.379 775.672,988.413 776.694,583.999 777.716,584.058 778.739,799.936 779.761,799.958 780.783,888.057 781.805,888.083 782.827,727.795 783.849,727.835 784.871,964.296 785.893,964.318 786.915,894.955 787.937,894.987 788.959,1109.2 789.982,1109.22 791.004,910.529 792.026,910.562 793.048,816.039 794.07,816.073 795.092,1102.97 796.114,1103 797.136,653.205 798.158,653.238 799.18,1057.38 800.202,1057.41 801.224,980.798 802.247,980.831 803.269,703.114 804.291,703.152 805.313,833.436 806.335,833.476 807.357,1126.46 808.379,1126.49 809.401,707.298 810.423,707.334 811.445,1078.58 812.467,1078.61 813.49,422.46 814.512,422.498 815.534,778.513 816.556,778.547 817.578,1146.22 818.6,1146.24 819.622,900.765 820.644,900.786 821.666,700.737 822.688,700.776 823.71,877.1 824.733,877.121 825.755,974.989 826.777,975.014 827.799,1069.9 828.821,1069.93 829.843,692.537 830.865,692.574 831.887,1145 832.909,1145.02 833.931,1205.51 834.953,1205.53 835.976,839.474 836.998,839.501 838.02,719.534 839.042,719.57 840.064,889.095 841.086,889.119 842.108,804.1 843.13,804.126 844.152,1111.67 845.174,1111.69 846.196,1165.3 847.218,1165.32 848.241,905.258 849.263,905.289 850.285,830.047 851.307,830.082 852.329,1124.83 853.351,1124.86 854.373,431.075 855.395,431.159 856.417,873.376 857.439,873.404 858.461,634.032 859.484,634.071 860.506,1154.07 861.528,1154.09 862.55,795.95 863.572,795.99 864.594,1103.64 865.616,1103.66 866.638,808.025 867.66,808.079 868.682,740.739 869.704,740.764 870.727,888.114 871.749,888.145 872.771,1237.33 873.793,1237.34 874.815,846.039 875.837,846.1 876.859,969.496 877.881,969.523 878.903,698.096 879.925,698.115 880.947,1244.59 881.97,1244.61 882.992,663.073 884.014,663.122 885.036,1059.08 886.058,1059.09 887.08,990.948 888.102,990.979 889.124,889.505 890.146,889.541 891.168,808.507 892.19,808.538 893.213,1145.24 894.235,1145.26 895.257,947.541 896.279,947.573 897.301,1149.3 898.323,1149.31 899.345,852.129 900.367,852.164 901.389,1116.79 902.411,1116.81 903.433,770.836 904.455,770.86 905.478,859.073 906.5,859.107 907.522,385.255 908.544,385.315 909.566,702.202 910.588,702.262 911.61,925.563 912.632,925.587 913.654,984.042 914.676,984.058 915.698,997.546 916.721,997.577 917.743,964.991 918.765,965.009 919.787,976.582 920.809,976.603 921.831,914.803 922.853,914.837 923.875,905.506 924.897,905.533 925.919,941.695 926.941,941.723 927.964,807.863 928.986,807.899 930.008,722.044 931.03,722.082 932.052,1308.26 933.074,1308.27 934.096,774.586 935.118,774.624 936.14,886.441 937.162,886.474 938.184,525.498 939.207,525.556 940.229,899.511 941.251,899.532 942.273,897.038 943.295,897.065 944.317,621.232 945.339,621.269 946.361,928.29 947.383,928.317 948.405,817.954 949.427,817.986 950.45,794.151 951.472,794.2 952.494,466.009 953.516,466.068 954.538,890.619 955.56,890.636 956.582,787.059 957.604,787.104 958.626,1445.7 959.648,1445.72 960.67,861.2 961.692,861.237 962.715,1172.14 963.737,1172.15 964.759,683.699 965.781,683.725 966.803,460.837 967.825,460.904 968.847,742.752 969.869,742.781 970.891,1082.35 971.913,1082.36 972.935,725.276 973.958,725.317 974.98,1081.47 976.002,1081.49 977.024,1104.28 978.046,1104.3 979.068,978.487 980.09,978.512 981.112,736.655 982.134,736.693 983.156,546.728 984.178,546.77 985.201,549.985 986.223,550.027 987.245,800.438 988.267,800.479 989.289,1167.54 990.311,1167.56 991.333,1083.24 992.355,1083.26 993.377,895.136 994.399,895.162 995.421,864.265 996.444,864.299 997.466,784.278 998.488,784.317 999.51,804.067 1000.53,804.109 1001.55,1062.43 1002.58,1062.44 1003.6,909.678 1004.62,909.732 1005.64,1053.25 1006.66,1053.27 1007.69,1163.79 1008.71,1163.81 1009.73,776.564 1010.75,776.597 1011.77,959.841 1012.8,959.864 1013.82,820.186 1014.84,820.218 1015.86,723.7 1016.89,723.734 1017.91,862.79 1018.93,862.829 1019.95,865.367 1020.97,865.394 1022,1062.89 1023.02,1062.91 1024.04,906.635 1025.06,906.669 1026.08,834.834 1027.11,834.867 1028.13,791.633 1029.15,791.666 1030.17,967.748 1031.19,967.771 1032.22,1095.77 1033.24,1095.79 1034.26,1085.5 1035.28,1085.52 1036.31,953.176 1037.33,953.207 1038.35,1104.84 1039.37,1104.86 1040.39,1162.45 1041.42,1162.48 1042.44,937.692 1043.46,937.715 1044.48,1008.69 1045.5,1008.71 1046.53,971.141 1047.55,971.166 1048.57,728.074 1049.59,728.116 1050.61,886.711 1051.64,886.752 1052.66,870.958 1053.68,870.992 1054.7,480.557 1055.72,480.588 1056.75,780.526 1057.77,780.559 1058.79,979.441 1059.81,979.47 1060.84,1111.13 1061.86,1111.15 1062.88,824.49 1063.9,824.524 1064.92,1022.83 1065.95,1022.86 1066.97,423.966 1067.99,424.027 1069.01,1032.51 1070.03,1032.54 1071.06,925.402 1072.08,925.429 1073.1,461.078 1074.12,461.135 1075.14,606.338 1076.17,606.377 1077.19,1019.94 1078.21,1019.96 1079.23,935.342 1080.25,935.365 1081.28,815.107 1082.3,815.129 1083.32,956.766 1084.34,956.806 1085.37,828.604 1086.39,828.657 1087.41,741.486 1088.43,741.519 1089.45,1041.56 1090.48,1041.59 1091.5,980.797 1092.52,980.822 1093.54,1173.21 1094.56,1173.22 1095.59,1030.37 1096.61,1030.39 1097.63,917.212 1098.65,917.241 1099.67,917.325 1100.7,917.354 1101.72,1190.1 1102.74,1190.12 1103.76,774.726 1104.78,774.76 1105.81,665.624 1106.83,665.663 1107.85,705.269 1108.87,705.31 1109.9,871.163 1110.92,871.195 1111.94,778.841 1112.96,778.883 1113.98,1139.13 1115.01,1139.15 1116.03,1124.06 1117.05,1124.08 1118.07,1116.5 1119.09,1116.52 1120.12,834.276 1121.14,834.309 1122.16,670.422 1123.18,670.459 1124.2,880.623 1125.23,880.659 1126.25,811.472 1127.27,811.51 1128.29,889.491 1129.32,889.517 1130.34,897.032 1131.36,897.063 1132.38,755.721 1133.4,755.756 1134.43,1053.34 1135.45,1053.36 1136.47,884.275 1137.49,884.315 1138.51,834.732 1139.54,834.759 1140.56,1054.38 1141.58,1054.4 1142.6,1035.29 1143.62,1035.31 1144.65,1140.92 1145.67,1140.94 1146.69,805.27 1147.71,805.299 1148.73,1053.4 1149.76,1053.41 1150.78,499.029 1151.8,499.086 1152.82,793.953 1153.85,793.991 1154.87,1171.48 1155.89,1171.5 1156.91,1043.26 1157.93,1043.28 1158.96,643.253 1159.98,643.28 1161,928.748 1162.02,928.779 1163.04,913.643 1164.07,913.673 1165.09,813.42 1166.11,813.459 1167.13,1100.97 1168.15,1100.99 1169.18,543.196 1170.2,543.26 1171.22,1122.13 1172.24,1122.16 1173.26,881.352 1174.29,881.381 1175.31,923.963 1176.33,923.996 1177.35,1048.26 1178.38,1048.28 1179.4,1066.93 1180.42,1066.95 1181.44,1000.15 1182.46,1000.18 1183.49,497.045 1184.51,497.095 1185.53,985.905 1186.55,985.928 1187.57,626.401 1188.6,626.459 1189.62,969.124 1190.64,969.156 1191.66,831.257 1192.68,831.296 1193.71,745.788 1194.73,745.831 1195.75,1069 1196.77,1069.03 1197.8,473.869 1198.82,473.91 1199.84,814.723 1200.86,814.779 1201.88,749.591 1202.91,749.641 1203.93,987.968 1204.95,988.007 1205.97,888.399 1206.99,888.424 1208.02,1006.67 1209.04,1006.69 1210.06,520.202 1211.08,520.274 1212.1,544.035 1213.13,544.096 1214.15,782.299 1215.17,782.331 1216.19,868.662 1217.21,868.689 1218.24,435.556 1219.26,435.597 1220.28,1249.77 1221.3,1249.79 1222.33,787.383 1223.35,787.405 1224.37,591.73 1225.39,591.779 1226.41,723.475 1227.44,723.515 1228.46,655.004 1229.48,655.053 1230.5,828.107 1231.52,828.147 1232.55,631.427 1233.57,631.473 1234.59,1017.36 1235.61,1017.39 1236.63,897.678 1237.66,897.697 1238.68,870.878 1239.7,870.925 1240.72,637.246 1241.74,637.294 1242.77,973.975 1243.79,974.001 1244.81,926.75 1245.83,926.779 1246.86,224.159 1247.88,224.243 1248.9,907.241 1249.92,907.265 1250.94,696.015 1251.97,696.035 1252.99,310.397 1254.01,310.456 1255.03,293.317 1256.05,293.389 1257.08,852.209 1258.1,852.241 1259.12,832.013 1260.14,832.036 1261.16,1164.41 1262.19,1164.43 1263.21,610.085 1264.23,610.132 1265.25,765.609 1266.28,765.656 1267.3,894.359 1268.32,894.392 1269.34,897.289 1270.36,897.312 1271.39,1255.91 1272.41,1255.92 1273.43,780.002 1274.45,780.038 1275.47,792.635 1276.5,792.654 1277.52,925.269 1278.54,925.301 1279.56,738.511 1280.58,738.556 1281.61,469.558 1282.63,469.591 1283.65,1056.47 1284.67,1056.49 1285.69,1151.41 1286.72,1151.43 1287.74,1155.26 1288.76,1155.28 1289.78,799.107 1290.81,799.134 1291.83,1015.39 1292.85,1015.41 1293.87,656.792 1294.89,656.832 1295.92,1006.65 1296.94,1006.68 1297.96,1027.96 1298.98,1027.98 1300,928.819 1301.03,928.85 1302.05,960.663 1303.07,960.687 1304.09,1112.24 1305.11,1112.26 1306.14,819.947 1307.16,819.965 1308.18,789.256 1309.2,789.285 1310.22,645.371 1311.25,645.417 1312.27,757.483 1313.29,757.511 1314.31,968.667 1315.34,968.692 1316.36,570.497 1317.38,570.54 1318.4,714.399 1319.42,714.444 1320.45,1183.85 1321.47,1183.87 1322.49,890.541 1323.51,890.582 1324.53,793.19 1325.56,793.222 1326.58,515.422 1327.6,515.478 1328.62,879.051 1329.64,879.083 1330.67,945.567 1331.69,945.595 1332.71,664.855 1333.73,664.892 1334.76,648.863 1335.78,648.921 1336.8,527.896 1337.82,527.959 1338.84,1101.68 1339.87,1101.7 1340.89,985.295 1341.91,985.325 1342.93,823.111 1343.95,823.155 1344.98,1060.49 1346,1060.51 1347.02,786.479 1348.04,786.512 1349.06,716.768 1350.09,716.798 1351.11,800.841 1352.13,800.859 1353.15,967.217 1354.17,967.248 1355.2,945.835 1356.22,945.862 1357.24,1010.85 1358.26,1010.86 1359.29,1194.18 1360.31,1194.19 1361.33,540.91 1362.35,540.976 1363.37,892.561 1364.4,892.588 1365.42,334.449 1366.44,334.52 1367.46,653.635 1368.48,653.674 1369.51,631.826 1370.53,631.868 1371.55,1067.98 1372.57,1068 1373.59,861.637 1374.62,861.673 1375.64,1161.95 1376.66,1161.97 1377.68,1002.91 1378.7,1002.93 1379.73,875.091 1380.75,875.114 1381.77,1038.46 1382.79,1038.48 1383.82,731.285 1384.84,731.349 1385.86,914.861 1386.88,914.89 1387.9,809.165 1388.93,809.192 1389.95,562.539 1390.97,562.589 1391.99,434.721 1393.01,434.767 1394.04,981.34 1395.06,981.363 1396.08,598.522 1397.1,598.56 1398.12,730.532 1399.15,730.564 1400.17,666.472 1401.19,666.533 1402.21,645.892 1403.24,645.941 1404.26,899.191 1405.28,899.229 1406.3,440.409 1407.32,440.455 1408.35,996.916 1409.37,996.946 1410.39,1180.91 1411.41,1180.93 1412.43,880.899 1413.46,880.94 1414.48,345.872 1415.5,345.947 1416.52,902.374 1417.54,902.406 1418.57,693.12 1419.59,693.155 1420.61,830.692 1421.63,830.724 1422.65,491.335 1423.68,491.378 1424.7,890.812 1425.72,890.856 1426.74,802.404 1427.77,802.44 1428.79,1097.86 1429.81,1097.88 1430.83,1044.32 1431.85,1044.34 1432.88,838.793 1433.9,838.817 1434.92,670.545 1435.94,670.582 1436.96,323.268 1437.99,323.347 1439.01,973.666 1440.03,973.695 1441.05,1013 1442.07,1013.03 1443.1,1155.47 1444.12,1155.49 1445.14,1017.07 1446.16,1017.09 1447.18,837.067 1448.21,837.089 1449.23,897.45 1450.25,897.482 1451.27,834.002 1452.3,834.038 1453.32,1023.57 1454.34,1023.59 1455.36,863.761 1456.38,863.813 1457.41,786.443 1458.43,786.473 1459.45,843.337 1460.47,843.366 1461.49,837.235 1462.52,837.265 1463.54,604.369 1464.56,604.41 1465.58,596.829 1466.6,596.885 1467.63,828.269 1468.65,828.305 1469.67,833.148 1470.69,833.184 1471.72,563.978 1472.74,564.02 1473.76,732.44 1474.78,732.479 1475.8,1113.3 1476.83,1113.33 1477.85,947.635 1478.87,947.653 1479.89,663.799 1480.91,663.848 1481.94,982.474 1482.96,982.499 1483.98,994.575 1485,994.606 1486.02,697.875 1487.05,697.927 1488.07,675.343 1489.09,675.39 1490.11,1074.31 1491.13,1074.32 1492.16,513.019 1493.18,513.062 1494.2,955.508 1495.22,955.542 1496.25,940.153 1497.27,940.188 1498.29,798.042 1499.31,798.081 1500.33,760.202 1501.36,760.263 1502.38,754.431 1503.4,754.462 1504.42,893.145 1505.44,893.181 1506.47,901.059 1507.49,901.084 1508.51,733.737 1509.53,733.769 1510.55,1231.91 1511.58,1231.93 1512.6,785.779 1513.62,785.811 1514.64,816.271 1515.66,816.303 1516.69,1150.89 1517.71,1150.91 1518.73,1269.68 1519.75,1269.69 1520.78,1101.53 1521.8,1101.55 1522.82,867.615 1523.84,867.652 1524.86,909.889 1525.89,909.932 1526.91,841.58 1527.93,841.604 1528.95,695.385 1529.97,695.428 1531,1075.34 1532.02,1075.36 1533.04,887.713 1534.06,887.733 1535.08,1144.65 1536.11,1144.66 1537.13,911.59 1538.15,911.618 1539.17,1025.9 1540.19,1025.92 1541.22,648.672 1542.24,648.712 1543.26,839.069 1544.28,839.089 1545.31,858.836 1546.33,858.865 1547.35,841.518 1548.37,841.546 1549.39,517.537 1550.42,517.599 1551.44,866.029 1552.46,866.055 1553.48,1096.44 1554.5,1096.46 1555.53,928.387 1556.55,928.422 1557.57,1073.44 1558.59,1073.46 1559.61,950.459 1560.64,950.48 1561.66,987.949 1562.68,987.969 1563.7,937.551 1564.73,937.577 1565.75,785.108 1566.77,785.139 1567.79,980.856 1568.81,980.892 1569.84,1097.22 1570.86,1097.24 1571.88,480.253 1572.9,480.304 1573.92,921.082 1574.95,921.117 1575.97,555.789 1576.99,555.834 1578.01,1043.75 1579.03,1043.77 1580.06,1007.43 1581.08,1007.45 1582.1,632.041 1583.12,632.115 1584.14,718.733 1585.17,718.774 1586.19,604.454 1587.21,604.5 1588.23,1242.43 1589.26,1242.44 1590.28,693.075 1591.3,693.119 1592.32,714.164 1593.34,714.204 1594.37,820.206 1595.39,820.238 1596.41,927.741 1597.43,927.781 1598.45,727.947 1599.48,727.979 1600.5,981.724 1601.52,981.75 1602.54,854.547 1603.56,854.576 1604.59,457.534 1605.61,457.595 1606.63,1076.33 1607.65,1076.35 1608.67,1102.95 1609.7,1102.97 1610.72,871.442 1611.74,871.463 1612.76,757.49 1613.79,757.524 1614.81,715.054 1615.83,715.094 1616.85,965.838 1617.87,965.862 1618.9,989.557 1619.92,989.577 1620.94,817.409 1621.96,817.434 1622.98,780.704 1624.01,780.74 1625.03,798.873 1626.05,798.9 1627.07,624.142 1628.09,624.174 1629.12,1070.45 1630.14,1070.47 1631.16,686.64 1632.18,686.69 1633.21,657.806 1634.23,657.847 1635.25,980.551 1636.27,980.571 1637.29,908.69 1638.32,908.714 1639.34,1128.99 1640.36,1129 1641.38,991.562 1642.4,991.581 1643.43,529.736 1644.45,529.818 1645.47,946.955 1646.49,946.981 1647.51,704.763 1648.54,704.815 1649.56,653.324 1650.58,653.359 1651.6,1004.03 1652.62,1004.06 1653.65,1040.61 1654.67,1040.64 1655.69,1009.06 1656.71,1009.08 1657.74,875.771 1658.76,875.803 1659.78,912.087 1660.8,912.124 1661.82,810.413 1662.85,810.445 1663.87,872.522 1664.89,872.565 1665.91,712.207 1666.93,712.249 1667.96,843.17 1668.98,843.206 1670,1154.58 1671.02,1154.6 1672.04,1279.9 1673.07,1279.91 1674.09,954.134 1675.11,954.16 1676.13,785.116 1677.15,785.153 1678.18,984.625 1679.2,984.654 1680.22,572.295 1681.24,572.344 1682.27,1034.54 1683.29,1034.56 1684.31,918.859 1685.33,918.896 1686.35,817.515 1687.38,817.542 1688.4,1109.19 1689.42,1109.21 1690.44,429.853 1691.46,429.901 1692.49,864.088 1693.51,864.118 1694.53,856.028 1695.55,856.053 1696.57,697.017 1697.6,697.054 1698.62,678.035 1699.64,678.081 1700.66,634.203 1701.69,634.237 1702.71,422.339 1703.73,422.404 1704.75,897.683 1705.77,897.706 1706.8,781.559 1707.82,781.601 1708.84,305.666 1709.86,305.711 1710.88,1241.73 1711.91,1241.74 1712.93,1019.89 1713.95,1019.92 1714.97,908.765 1715.99,908.802 1717.02,875.743 1718.04,875.788 1719.06,869.443 1720.08,869.461 1721.1,1059.48 1722.13,1059.51 1723.15,989.541 1724.17,989.56 1725.19,825.339 1726.22,825.364 1727.24,878.547 1728.26,878.571 1729.28,811.04 1730.3,811.061 1731.33,1197.34 1732.35,1197.38 1733.37,760.906 1734.39,760.949 1735.41,735.232 1736.44,735.261 1737.46,960.876 1738.48,960.901 1739.5,792.203 1740.52,792.238 1741.55,863.366 1742.57,863.393 1743.59,766.147 1744.61,766.189 1745.63,344.305 1746.66,344.386 1747.68,790.533 1748.7,790.569 1749.72,511.634 1750.75,511.701 1751.77,976.076 1752.79,976.107 1753.81,669.645 1754.83,669.688 1755.86,678.71 1756.88,678.757 1757.9,929.09 1758.92,929.122 1759.94,1375.47 1760.97,1375.48 1761.99,859.169 1763.01,859.207 1764.03,1078.31 1765.05,1078.33 1766.08,1113.23 1767.1,1113.25 1768.12,566.326 1769.14,566.359 1770.17,602.782 1771.19,602.832 1772.21,1324.48 1773.23,1324.49 1774.25,814.264 1775.28,814.295 1776.3,795.565 1777.32,795.6 1778.34,686.492 1779.36,686.524 1780.39,806.125 1781.41,806.166 1782.43,879.011 1783.45,879.036 1784.47,696.6 1785.5,696.642 1786.52,901.586 1787.54,901.622 1788.56,645.823 1789.58,645.867 1790.61,1136.98 1791.63,1136.99 1792.65,839.834 1793.67,839.88 1794.7,882.641 1795.72,882.667 1796.74,461.214 1797.76,461.273 1798.78,833.922 1799.81,833.953 1800.83,685.358 1801.85,685.407 1802.87,998.223 1803.89,998.248 1804.92,719.576 1805.94,719.6 1806.96,875.408 1807.98,875.433 1809,789.884 1810.03,789.911 1811.05,1102.7 1812.07,1102.72 1813.09,978.477 1814.11,978.503 1815.14,718.85 1816.16,718.888 1817.18,930.956 1818.2,930.98 1819.23,963.785 1820.25,963.812 1821.27,752.863 1822.29,752.901 1823.31,745.772 1824.34,745.808 1825.36,835.798 1826.38,835.845 1827.4,859.217 1828.42,859.247 1829.45,1162.93 1830.47,1162.95 1831.49,711.617 1832.51,711.652 1833.53,935.22 1834.56,935.255 1835.58,1116.73 1836.6,1116.74 1837.62,777.784 1838.65,777.818 1839.67,730.869 1840.69,730.908 1841.71,779.447 1842.73,779.48 1843.76,537.02 1844.78,537.075 1845.8,975.397 1846.82,975.414 1847.84,881.504 1848.87,881.535 1849.89,685.674 1850.91,685.714 1851.93,1114.24 1852.95,1114.26 1853.98,665.673 1855,665.728 1856.02,829.099 1857.04,829.122 1858.06,87.9763 1859.09,88.0631 1860.11,1081.4 1861.13,1081.41 1862.15,958.069 1863.18,958.099 1864.2,742.037 1865.22,742.065 1866.24,715.663 1867.26,715.705 1868.29,518.553 1869.31,518.619 1870.33,974.285 1871.35,974.302 1872.37,883.152 1873.4,883.178 1874.42,912.498 1875.44,912.519 1876.46,729.888 1877.48,729.948 1878.51,986.24 1879.53,986.261 1880.55,1121.14 1881.57,1121.16 1882.59,941.815 1883.62,941.838 1884.64,892.98 1885.66,893.009 1886.68,858.883 1887.71,858.917 1888.73,762.111 1889.75,762.146 1890.77,846.709 1891.79,846.733 1892.82,769.597 1893.84,769.63 1894.86,682.137 1895.88,682.176 1896.9,752.56 1897.93,752.595 1898.95,884.494 1899.97,884.539 1900.99,694.873 1902.01,694.924 1903.04,1147.49 1904.06,1147.5 1905.08,1070.86 1906.1,1070.87 1907.13,1001.12 1908.15,1001.16 1909.17,607.18 1910.19,607.22 1911.21,828.303 1912.24,828.339 1913.26,1033.26 1914.28,1033.28 1915.3,909.359 1916.32,909.38 1917.35,924.702 1918.37,924.729 1919.39,985.432 1920.41,985.463 1921.43,650.345 1922.46,650.396 1923.48,902.59 1924.5,902.624 1925.52,1015.45 1926.54,1015.47 1927.57,922.447 1928.59,922.472 1929.61,763.484 1930.63,763.521 1931.66,928.936 1932.68,928.954 1933.7,743.431 1934.72,743.468 1935.74,994.496 1936.77,994.519 1937.79,542.46 1938.81,542.517 1939.83,1021.43 1940.85,1021.46 1941.88,757.634 1942.9,757.668 1943.92,879.969 1944.94,879.991 1945.96,979.743 1946.99,979.767 1948.01,795.112 1949.03,795.138 1950.05,873.393 1951.07,873.421 1952.1,934.281 1953.12,934.308 1954.14,811.345 1955.16,811.38 1956.19,858.972 1957.21,858.993 1958.23,673.765 1959.25,673.808 1960.27,929.429 1961.3,929.458 1962.32,1181.24 1963.34,1181.25 1964.36,1050.91 1965.38,1050.93 1966.41,971.476 1967.43,971.499 1968.45,1073.88 1969.47,1073.92 1970.49,672.816 1971.52,672.86 1972.54,716.613 1973.56,716.643 1974.58,509.784 1975.6,509.835 1976.63,726.052 1977.65,726.089 1978.67,600.822 1979.69,600.866 1980.72,1036.09 1981.74,1036.11 1982.76,660.873 1983.78,660.917 1984.8,822.055 1985.83,822.098 1986.85,715.387 1987.87,715.429 1988.89,998.655 1989.91,998.683 1990.94,831.306 1991.96,831.337 1992.98,595.97 1994,596.021 1995.02,970.841 1996.05,970.866 1997.07,1014.83 1998.09,1014.85 1999.11,1109.71 2000.14,1109.74 2001.16,601.628 2002.18,601.674 2003.2,647.599 2004.22,647.638 2005.25,967.97 2006.27,967.997 2007.29,783.444 2008.31,783.476 2009.33,698.831 2010.36,698.869 2011.38,507.717 2012.4,507.761 2013.42,861.355 2014.44,861.387 2015.47,973.119 2016.49,973.135 2017.51,896.564 2018.53,896.595 2019.55,864.994 2020.58,865.021 2021.6,832.579 2022.62,832.61 2023.64,592.235 2024.67,592.293 2025.69,953.979 2026.71,953.997 2027.73,706.617 2028.75,706.651 2029.78,786.5 2030.8,786.538 2031.82,1145.8 2032.84,1145.82 2033.86,604.557 2034.89,604.603 2035.91,818.38 2036.93,818.424 2037.95,1002.03 2038.97,1002.05 2040,836.856 2041.02,836.887 2042.04,824.71 2043.06,824.732 2044.08,750.738 2045.11,750.785 2046.13,1058.72 2047.15,1058.75 2048.17,768.585 2049.2,768.625 2050.22,881.552 2051.24,881.589 2052.26,713.267 2053.28,713.317 2054.31,755.576 2055.33,755.621 2056.35,825.957 2057.37,825.988 2058.39,821.855 2059.42,821.884 2060.44,985.306 2061.46,985.329 2062.48,741.061 2063.5,741.107 2064.53,905.838 2065.55,905.868 2066.57,693.436 2067.59,693.469 2068.62,802.173 2069.64,802.221 2070.66,1016.25 2071.68,1016.27 2072.7,965.452 2073.73,965.481 2074.75,1238.16 2075.77,1238.18 2076.79,531.081 2077.81,531.131 2078.84,1191.49 2079.86,1191.51 2080.88,892.372 2081.9,892.397 2082.92,747.993 2083.95,748.022 2084.97,669.73 2085.99,669.783 2087.01,376.519 2088.03,376.572 2089.06,666.495 2090.08,666.527 2091.1,573.165 2092.12,573.199 2093.15,890.042 2094.17,890.077 2095.19,900.915 2096.21,900.951 2097.23,877.882 2098.26,877.926 2099.28,1018.42 2100.3,1018.44 2101.32,614.163 2102.34,614.237 2103.37,1154.2 2104.39,1154.22 2105.41,1080.28 2106.43,1080.3 2107.45,849.957 2108.48,849.992 2109.5,974.983 2110.52,975.002 2111.54,954.394 2112.56,954.414 2113.59,703.281 2114.61,703.332 2115.63,966.79 2116.65,966.81 2117.68,887.185 2118.7,887.209 2119.72,627.948 2120.74,627.992 2121.76,932.021 2122.79,932.058 2123.81,677.116 2124.83,677.162 2125.85,764.238 2126.87,764.275 2127.9,1067.79 2128.92,1067.82 2129.94,791.098 2130.96,791.129 2131.98,813.181 2133.01,813.214 2134.03,914.422 2135.05,914.449 2136.07,771.97 2137.1,771.997 2138.12,1206.15 2139.14,1206.17 2140.16,795.433 2141.18,795.48 2142.21,519.733 2143.23,519.786 2144.25,610.793 2145.27,610.845 2146.29,1025.16 2147.32,1025.19 2148.34,930.026 2149.36,930.063 2150.38,857.379 2151.4,857.411 2152.43,792.091 2153.45,792.118 2154.47,880.545 2155.49,880.587 2156.51,706.702 2157.54,706.738 2158.56,1068.16 2159.58,1068.18 2160.6,659.704 2161.63,659.742 2162.65,1139.32 2163.67,1139.34 2164.69,952.3 2165.71,952.316 2166.74,859.43 2167.76,859.452 2168.78,1232.59 2169.8,1232.6 2170.82,920.267 2171.85,920.295 2172.87,652.57 2173.89,652.612 2174.91,942.935 2175.93,942.97 2176.96,652.177 2177.98,652.246 2179,1061.37 2180.02,1061.39 2181.04,1055.59 2182.07,1055.62 2183.09,1189.93 2184.11,1189.95 2185.13,946.35 2186.16,946.375 2187.18,878.431 2188.2,878.473 2189.22,725.059 2190.24,725.097 2191.27,896.002 2192.29,896.025 2193.31,758.563 2194.33,758.623 2195.35,1061.45 2196.38,1061.48 2197.4,1087.15 2198.42,1087.17 2199.44,829.8 2200.46,829.837 2201.49,764.209 2202.51,764.246 2203.53,930.66 2204.55,930.687 2205.58,1061.42 2206.6,1061.44 2207.62,526.117 2208.64,526.159 2209.66,1254.77 2210.69,1254.79 2211.71,1393.83 2212.73,1393.84 2213.75,539.605 2214.77,539.661 2215.8,339.12 2216.82,339.195 2217.84,794.351 2218.86,794.374 2219.88,848.65 2220.91,848.685 2221.93,773.685 2222.95,773.717 2223.97,657.466 2224.99,657.488 2226.02,624.578 2227.04,624.62 2228.06,983.107 2229.08,983.129 2230.11,451.394 2231.13,451.446 2232.15,1247.95 2233.17,1247.97 2234.19,897.246 2235.22,897.284 2236.24,743.67 2237.26,743.704 2238.28,946.804 2239.3,946.829 2240.33,806.249 2241.35,806.278 2242.37,616.915 2243.39,616.959 2244.41,774.287 2245.44,774.325 2246.46,686.861 2247.48,686.893 2248.5,666.311 2249.52,666.358 2250.55,903.008 2251.57,903.031 2252.59,998.604 2253.61,998.627 2254.64,895.944 2255.66,895.968 2256.68,671.75 2257.7,671.793 2258.72,643.603 2259.75,643.663 2260.77,997.546 2261.79,997.564 2262.81,969.397 2263.83,969.427 2264.86,666.854 2265.88,666.897 2266.9,745.887 2267.92,745.94 2268.94,928.32 2269.97,928.336 2270.99,709.833 2272.01,709.868 2273.03,919.112 2274.06,919.141 2275.08,759.639 2276.1,759.666 2277.12,697.256 2278.14,697.282 2279.17,1091.32 2280.19,1091.35 2281.21,513.164 2282.23,513.219 2283.25,852.96 2284.28,852.986 2285.3,942.534 2286.32,942.568 2287.34,664.021 2288.36,664.075 2289.39,991.403 2290.41,991.432 2291.43,991.462 "/>
<path clip-path="url(#clip290)" d="M2011.42 198.898 L2280.53 198.898 L2280.53 95.2176 L2011.42 95.2176  Z" fill="#ffffff" fill-rule="evenodd" fill-opacity="1"/>
<polyline clip-path="url(#clip290)" style="stroke:#000000; stroke-linecap:round; stroke-linejoin:round; stroke-width:4; stroke-opacity:1; fill:none" points="2011.42,198.898 2280.53,198.898 2280.53,95.2176 2011.42,95.2176 2011.42,198.898 "/>
<polyline clip-path="url(#clip290)" style="stroke:#009af9; stroke-linecap:round; stroke-linejoin:round; stroke-width:4; stroke-opacity:1; fill:none" points="2035.49,147.058 2179.95,147.058 "/>
<path clip-path="url(#clip290)" d="M2217.86 166.745 Q2216.06 171.375 2214.35 172.787 Q2212.63 174.199 2209.76 174.199 L2206.36 174.199 L2206.36 170.634 L2208.86 170.634 Q2210.62 170.634 2211.59 169.8 Q2212.56 168.967 2213.74 165.865 L2214.51 163.921 L2204.02 138.412 L2208.54 138.412 L2216.64 158.689 L2224.74 138.412 L2229.25 138.412 L2217.86 166.745 Z" fill="#000000" fill-rule="nonzero" fill-opacity="1" /><path clip-path="url(#clip290)" d="M2236.55 160.402 L2244.18 160.402 L2244.18 134.037 L2235.87 135.703 L2235.87 131.444 L2244.14 129.778 L2248.81 129.778 L2248.81 160.402 L2256.45 160.402 L2256.45 164.338 L2236.55 164.338 L2236.55 160.402 Z" fill="#000000" fill-rule="nonzero" fill-opacity="1" /></svg>
