<?xml version="1.0" encoding="utf-8"?>
<svg xmlns="http://www.w3.org/2000/svg" xmlns:xlink="http://www.w3.org/1999/xlink" width="600" height="400" viewBox="0 0 2400 1600">
<defs>
  <clipPath id="clip500">
    <rect x="0" y="0" width="2400" height="1600"/>
  </clipPath>
</defs>
<path clip-path="url(#clip500)" d="M0 1600 L2400 1600 L2400 0 L0 0  Z" fill="#ffffff" fill-rule="evenodd" fill-opacity="1"/>
<defs>
  <clipPath id="clip501">
    <rect x="480" y="0" width="1681" height="1600"/>
  </clipPath>
</defs>
<path clip-path="url(#clip500)" d="M169.121 1486.45 L2352.76 1486.45 L2352.76 47.2441 L169.121 47.2441  Z" fill="#ffffff" fill-rule="evenodd" fill-opacity="1"/>
<defs>
  <clipPath id="clip502">
    <rect x="169" y="47" width="2185" height="1440"/>
  </clipPath>
</defs>
<polyline clip-path="url(#clip502)" style="stroke:#000000; stroke-linecap:round; stroke-linejoin:round; stroke-width:2; stroke-opacity:0.1; fill:none" points="230.922,1486.45 230.922,47.2441 "/>
<polyline clip-path="url(#clip502)" style="stroke:#000000; stroke-linecap:round; stroke-linejoin:round; stroke-width:2; stroke-opacity:0.1; fill:none" points="745.93,1486.45 745.93,47.2441 "/>
<polyline clip-path="url(#clip502)" style="stroke:#000000; stroke-linecap:round; stroke-linejoin:round; stroke-width:2; stroke-opacity:0.1; fill:none" points="1260.94,1486.45 1260.94,47.2441 "/>
<polyline clip-path="url(#clip502)" style="stroke:#000000; stroke-linecap:round; stroke-linejoin:round; stroke-width:2; stroke-opacity:0.1; fill:none" points="1775.95,1486.45 1775.95,47.2441 "/>
<polyline clip-path="url(#clip502)" style="stroke:#000000; stroke-linecap:round; stroke-linejoin:round; stroke-width:2; stroke-opacity:0.1; fill:none" points="2290.95,1486.45 2290.95,47.2441 "/>
<polyline clip-path="url(#clip500)" style="stroke:#000000; stroke-linecap:round; stroke-linejoin:round; stroke-width:4; stroke-opacity:1; fill:none" points="169.121,1486.45 2352.76,1486.45 "/>
<polyline clip-path="url(#clip500)" style="stroke:#000000; stroke-linecap:round; stroke-linejoin:round; stroke-width:4; stroke-opacity:1; fill:none" points="230.922,1486.45 230.922,1467.55 "/>
<polyline clip-path="url(#clip500)" style="stroke:#000000; stroke-linecap:round; stroke-linejoin:round; stroke-width:4; stroke-opacity:1; fill:none" points="745.93,1486.45 745.93,1467.55 "/>
<polyline clip-path="url(#clip500)" style="stroke:#000000; stroke-linecap:round; stroke-linejoin:round; stroke-width:4; stroke-opacity:1; fill:none" points="1260.94,1486.45 1260.94,1467.55 "/>
<polyline clip-path="url(#clip500)" style="stroke:#000000; stroke-linecap:round; stroke-linejoin:round; stroke-width:4; stroke-opacity:1; fill:none" points="1775.95,1486.45 1775.95,1467.55 "/>
<polyline clip-path="url(#clip500)" style="stroke:#000000; stroke-linecap:round; stroke-linejoin:round; stroke-width:4; stroke-opacity:1; fill:none" points="2290.95,1486.45 2290.95,1467.55 "/>
<path clip-path="url(#clip500)" d="M230.922 1517.37 Q227.311 1517.37 225.483 1520.93 Q223.677 1524.47 223.677 1531.6 Q223.677 1538.71 225.483 1542.27 Q227.311 1545.82 230.922 1545.82 Q234.557 1545.82 236.362 1542.27 Q238.191 1538.71 238.191 1531.6 Q238.191 1524.47 236.362 1520.93 Q234.557 1517.37 230.922 1517.37 M230.922 1513.66 Q236.732 1513.66 239.788 1518.27 Q242.867 1522.85 242.867 1531.6 Q242.867 1540.33 239.788 1544.94 Q236.732 1549.52 230.922 1549.52 Q225.112 1549.52 222.033 1544.94 Q218.978 1540.33 218.978 1531.6 Q218.978 1522.85 222.033 1518.27 Q225.112 1513.66 230.922 1513.66 Z" fill="#000000" fill-rule="nonzero" fill-opacity="1" /><path clip-path="url(#clip500)" d="M705.549 1514.29 L723.905 1514.29 L723.905 1518.22 L709.831 1518.22 L709.831 1526.7 Q710.85 1526.35 711.868 1526.19 Q712.887 1526 713.905 1526 Q719.692 1526 723.072 1529.17 Q726.451 1532.34 726.451 1537.76 Q726.451 1543.34 722.979 1546.44 Q719.507 1549.52 713.188 1549.52 Q711.012 1549.52 708.743 1549.15 Q706.498 1548.78 704.09 1548.04 L704.09 1543.34 Q706.174 1544.47 708.396 1545.03 Q710.618 1545.58 713.095 1545.58 Q717.1 1545.58 719.438 1543.48 Q721.775 1541.37 721.775 1537.76 Q721.775 1534.15 719.438 1532.04 Q717.1 1529.94 713.095 1529.94 Q711.22 1529.94 709.345 1530.35 Q707.493 1530.77 705.549 1531.65 L705.549 1514.29 Z" fill="#000000" fill-rule="nonzero" fill-opacity="1" /><path clip-path="url(#clip500)" d="M745.664 1517.37 Q742.053 1517.37 740.224 1520.93 Q738.419 1524.47 738.419 1531.6 Q738.419 1538.71 740.224 1542.27 Q742.053 1545.82 745.664 1545.82 Q749.298 1545.82 751.104 1542.27 Q752.933 1538.71 752.933 1531.6 Q752.933 1524.47 751.104 1520.93 Q749.298 1517.37 745.664 1517.37 M745.664 1513.66 Q751.474 1513.66 754.53 1518.27 Q757.609 1522.85 757.609 1531.6 Q757.609 1540.33 754.53 1544.94 Q751.474 1549.52 745.664 1549.52 Q739.854 1549.52 736.775 1544.94 Q733.72 1540.33 733.72 1531.6 Q733.72 1522.85 736.775 1518.27 Q739.854 1513.66 745.664 1513.66 Z" fill="#000000" fill-rule="nonzero" fill-opacity="1" /><path clip-path="url(#clip500)" d="M775.826 1517.37 Q772.215 1517.37 770.386 1520.93 Q768.581 1524.47 768.581 1531.6 Q768.581 1538.71 770.386 1542.27 Q772.215 1545.82 775.826 1545.82 Q779.46 1545.82 781.266 1542.27 Q783.095 1538.71 783.095 1531.6 Q783.095 1524.47 781.266 1520.93 Q779.46 1517.37 775.826 1517.37 M775.826 1513.66 Q781.636 1513.66 784.692 1518.27 Q787.771 1522.85 787.771 1531.6 Q787.771 1540.33 784.692 1544.94 Q781.636 1549.52 775.826 1549.52 Q770.016 1549.52 766.937 1544.94 Q763.882 1540.33 763.882 1531.6 Q763.882 1522.85 766.937 1518.27 Q770.016 1513.66 775.826 1513.66 Z" fill="#000000" fill-rule="nonzero" fill-opacity="1" /><path clip-path="url(#clip500)" d="M1205.46 1544.91 L1213.1 1544.91 L1213.1 1518.55 L1204.79 1520.21 L1204.79 1515.95 L1213.06 1514.29 L1217.73 1514.29 L1217.73 1544.91 L1225.37 1544.91 L1225.37 1548.85 L1205.46 1548.85 L1205.46 1544.91 Z" fill="#000000" fill-rule="nonzero" fill-opacity="1" /><path clip-path="url(#clip500)" d="M1244.82 1517.37 Q1241.2 1517.37 1239.38 1520.93 Q1237.57 1524.47 1237.57 1531.6 Q1237.57 1538.71 1239.38 1542.27 Q1241.2 1545.82 1244.82 1545.82 Q1248.45 1545.82 1250.26 1542.27 Q1252.08 1538.71 1252.08 1531.6 Q1252.08 1524.47 1250.26 1520.93 Q1248.45 1517.37 1244.82 1517.37 M1244.82 1513.66 Q1250.63 1513.66 1253.68 1518.27 Q1256.76 1522.85 1256.76 1531.6 Q1256.76 1540.33 1253.68 1544.94 Q1250.63 1549.52 1244.82 1549.52 Q1239.01 1549.52 1235.93 1544.94 Q1232.87 1540.33 1232.87 1531.6 Q1232.87 1522.85 1235.93 1518.27 Q1239.01 1513.66 1244.82 1513.66 Z" fill="#000000" fill-rule="nonzero" fill-opacity="1" /><path clip-path="url(#clip500)" d="M1274.98 1517.37 Q1271.37 1517.37 1269.54 1520.93 Q1267.73 1524.47 1267.73 1531.6 Q1267.73 1538.71 1269.54 1542.27 Q1271.37 1545.82 1274.98 1545.82 Q1278.61 1545.82 1280.42 1542.27 Q1282.25 1538.71 1282.25 1531.6 Q1282.25 1524.47 1280.42 1520.93 Q1278.61 1517.37 1274.98 1517.37 M1274.98 1513.66 Q1280.79 1513.66 1283.84 1518.27 Q1286.92 1522.85 1286.92 1531.6 Q1286.92 1540.33 1283.84 1544.94 Q1280.79 1549.52 1274.98 1549.52 Q1269.17 1549.52 1266.09 1544.94 Q1263.03 1540.33 1263.03 1531.6 Q1263.03 1522.85 1266.09 1518.27 Q1269.17 1513.66 1274.98 1513.66 Z" fill="#000000" fill-rule="nonzero" fill-opacity="1" /><path clip-path="url(#clip500)" d="M1305.14 1517.37 Q1301.53 1517.37 1299.7 1520.93 Q1297.89 1524.47 1297.89 1531.6 Q1297.89 1538.71 1299.7 1542.27 Q1301.53 1545.82 1305.14 1545.82 Q1308.77 1545.82 1310.58 1542.27 Q1312.41 1538.71 1312.41 1531.6 Q1312.41 1524.47 1310.58 1520.93 Q1308.77 1517.37 1305.14 1517.37 M1305.14 1513.66 Q1310.95 1513.66 1314.01 1518.27 Q1317.08 1522.85 1317.08 1531.6 Q1317.08 1540.33 1314.01 1544.94 Q1310.95 1549.52 1305.14 1549.52 Q1299.33 1549.52 1296.25 1544.94 Q1293.2 1540.33 1293.2 1531.6 Q1293.2 1522.85 1296.25 1518.27 Q1299.33 1513.66 1305.14 1513.66 Z" fill="#000000" fill-rule="nonzero" fill-opacity="1" /><path clip-path="url(#clip500)" d="M1720.47 1544.91 L1728.11 1544.91 L1728.11 1518.55 L1719.8 1520.21 L1719.8 1515.95 L1728.07 1514.29 L1732.74 1514.29 L1732.74 1544.91 L1740.38 1544.91 L1740.38 1548.85 L1720.47 1548.85 L1720.47 1544.91 Z" fill="#000000" fill-rule="nonzero" fill-opacity="1" /><path clip-path="url(#clip500)" d="M1749.87 1514.29 L1768.23 1514.29 L1768.23 1518.22 L1754.15 1518.22 L1754.15 1526.7 Q1755.17 1526.35 1756.19 1526.19 Q1757.21 1526 1758.23 1526 Q1764.01 1526 1767.39 1529.17 Q1770.77 1532.34 1770.77 1537.76 Q1770.77 1543.34 1767.3 1546.44 Q1763.83 1549.52 1757.51 1549.52 Q1755.33 1549.52 1753.06 1549.15 Q1750.82 1548.78 1748.41 1548.04 L1748.41 1543.34 Q1750.5 1544.47 1752.72 1545.03 Q1754.94 1545.58 1757.42 1545.58 Q1761.42 1545.58 1763.76 1543.48 Q1766.1 1541.37 1766.1 1537.76 Q1766.1 1534.15 1763.76 1532.04 Q1761.42 1529.94 1757.42 1529.94 Q1755.54 1529.94 1753.67 1530.35 Q1751.81 1530.77 1749.87 1531.65 L1749.87 1514.29 Z" fill="#000000" fill-rule="nonzero" fill-opacity="1" /><path clip-path="url(#clip500)" d="M1789.99 1517.37 Q1786.37 1517.37 1784.55 1520.93 Q1782.74 1524.47 1782.74 1531.6 Q1782.74 1538.71 1784.55 1542.27 Q1786.37 1545.82 1789.99 1545.82 Q1793.62 1545.82 1795.43 1542.27 Q1797.25 1538.71 1797.25 1531.6 Q1797.25 1524.47 1795.43 1520.93 Q1793.62 1517.37 1789.99 1517.37 M1789.99 1513.66 Q1795.8 1513.66 1798.85 1518.27 Q1801.93 1522.85 1801.93 1531.6 Q1801.93 1540.33 1798.85 1544.94 Q1795.8 1549.52 1789.99 1549.52 Q1784.18 1549.52 1781.1 1544.94 Q1778.04 1540.33 1778.04 1531.6 Q1778.04 1522.85 1781.1 1518.27 Q1784.18 1513.66 1789.99 1513.66 Z" fill="#000000" fill-rule="nonzero" fill-opacity="1" /><path clip-path="url(#clip500)" d="M1820.15 1517.37 Q1816.54 1517.37 1814.71 1520.93 Q1812.9 1524.47 1812.9 1531.6 Q1812.9 1538.71 1814.71 1542.27 Q1816.54 1545.82 1820.15 1545.82 Q1823.78 1545.82 1825.59 1542.27 Q1827.42 1538.71 1827.42 1531.6 Q1827.42 1524.47 1825.59 1520.93 Q1823.78 1517.37 1820.15 1517.37 M1820.15 1513.66 Q1825.96 1513.66 1829.01 1518.27 Q1832.09 1522.85 1832.09 1531.6 Q1832.09 1540.33 1829.01 1544.94 Q1825.96 1549.52 1820.15 1549.52 Q1814.34 1549.52 1811.26 1544.94 Q1808.2 1540.33 1808.2 1531.6 Q1808.2 1522.85 1811.26 1518.27 Q1814.34 1513.66 1820.15 1513.66 Z" fill="#000000" fill-rule="nonzero" fill-opacity="1" /><path clip-path="url(#clip500)" d="M2239.57 1544.91 L2255.89 1544.91 L2255.89 1548.85 L2233.94 1548.85 L2233.94 1544.91 Q2236.6 1542.16 2241.19 1537.53 Q2245.79 1532.88 2246.97 1531.53 Q2249.22 1529.01 2250.1 1527.27 Q2251 1525.51 2251 1523.82 Q2251 1521.07 2249.06 1519.33 Q2247.14 1517.6 2244.03 1517.6 Q2241.83 1517.6 2239.38 1518.36 Q2236.95 1519.13 2234.17 1520.68 L2234.17 1515.95 Q2237 1514.82 2239.45 1514.24 Q2241.9 1513.66 2243.94 1513.66 Q2249.31 1513.66 2252.51 1516.35 Q2255.7 1519.03 2255.7 1523.52 Q2255.7 1525.65 2254.89 1527.57 Q2254.1 1529.47 2252 1532.07 Q2251.42 1532.74 2248.32 1535.95 Q2245.21 1539.15 2239.57 1544.91 Z" fill="#000000" fill-rule="nonzero" fill-opacity="1" /><path clip-path="url(#clip500)" d="M2275.7 1517.37 Q2272.09 1517.37 2270.26 1520.93 Q2268.46 1524.47 2268.46 1531.6 Q2268.46 1538.71 2270.26 1542.27 Q2272.09 1545.82 2275.7 1545.82 Q2279.33 1545.82 2281.14 1542.27 Q2282.97 1538.71 2282.97 1531.6 Q2282.97 1524.47 2281.14 1520.93 Q2279.33 1517.37 2275.7 1517.37 M2275.7 1513.66 Q2281.51 1513.66 2284.57 1518.27 Q2287.64 1522.85 2287.64 1531.6 Q2287.64 1540.33 2284.57 1544.94 Q2281.51 1549.52 2275.7 1549.52 Q2269.89 1549.52 2266.81 1544.94 Q2263.76 1540.33 2263.76 1531.6 Q2263.76 1522.85 2266.81 1518.27 Q2269.89 1513.66 2275.7 1513.66 Z" fill="#000000" fill-rule="nonzero" fill-opacity="1" /><path clip-path="url(#clip500)" d="M2305.86 1517.37 Q2302.25 1517.37 2300.42 1520.93 Q2298.62 1524.47 2298.62 1531.6 Q2298.62 1538.71 2300.42 1542.27 Q2302.25 1545.82 2305.86 1545.82 Q2309.5 1545.82 2311.3 1542.27 Q2313.13 1538.71 2313.13 1531.6 Q2313.13 1524.47 2311.3 1520.93 Q2309.5 1517.37 2305.86 1517.37 M2305.86 1513.66 Q2311.67 1513.66 2314.73 1518.27 Q2317.81 1522.85 2317.81 1531.6 Q2317.81 1540.33 2314.73 1544.94 Q2311.67 1549.52 2305.86 1549.52 Q2300.05 1549.52 2296.97 1544.94 Q2293.92 1540.33 2293.92 1531.6 Q2293.92 1522.85 2296.97 1518.27 Q2300.05 1513.66 2305.86 1513.66 Z" fill="#000000" fill-rule="nonzero" fill-opacity="1" /><path clip-path="url(#clip500)" d="M2336.02 1517.37 Q2332.41 1517.37 2330.58 1520.93 Q2328.78 1524.47 2328.78 1531.6 Q2328.78 1538.71 2330.58 1542.27 Q2332.41 1545.82 2336.02 1545.82 Q2339.66 1545.82 2341.46 1542.27 Q2343.29 1538.71 2343.29 1531.6 Q2343.29 1524.47 2341.46 1520.93 Q2339.66 1517.37 2336.02 1517.37 M2336.02 1513.66 Q2341.83 1513.66 2344.89 1518.27 Q2347.97 1522.85 2347.97 1531.6 Q2347.97 1540.33 2344.89 1544.94 Q2341.83 1549.52 2336.02 1549.52 Q2330.21 1549.52 2327.14 1544.94 Q2324.08 1540.33 2324.08 1531.6 Q2324.08 1522.85 2327.14 1518.27 Q2330.21 1513.66 2336.02 1513.66 Z" fill="#000000" fill-rule="nonzero" fill-opacity="1" /><polyline clip-path="url(#clip502)" style="stroke:#000000; stroke-linecap:round; stroke-linejoin:round; stroke-width:2; stroke-opacity:0.1; fill:none" points="169.121,1293.42 2352.76,1293.42 "/>
<polyline clip-path="url(#clip502)" style="stroke:#000000; stroke-linecap:round; stroke-linejoin:round; stroke-width:2; stroke-opacity:0.1; fill:none" points="169.121,1013.33 2352.76,1013.33 "/>
<polyline clip-path="url(#clip502)" style="stroke:#000000; stroke-linecap:round; stroke-linejoin:round; stroke-width:2; stroke-opacity:0.1; fill:none" points="169.121,733.248 2352.76,733.248 "/>
<polyline clip-path="url(#clip502)" style="stroke:#000000; stroke-linecap:round; stroke-linejoin:round; stroke-width:2; stroke-opacity:0.1; fill:none" points="169.121,453.162 2352.76,453.162 "/>
<polyline clip-path="url(#clip502)" style="stroke:#000000; stroke-linecap:round; stroke-linejoin:round; stroke-width:2; stroke-opacity:0.1; fill:none" points="169.121,173.076 2352.76,173.076 "/>
<polyline clip-path="url(#clip500)" style="stroke:#000000; stroke-linecap:round; stroke-linejoin:round; stroke-width:4; stroke-opacity:1; fill:none" points="169.121,1486.45 169.121,47.2441 "/>
<polyline clip-path="url(#clip500)" style="stroke:#000000; stroke-linecap:round; stroke-linejoin:round; stroke-width:4; stroke-opacity:1; fill:none" points="169.121,1293.42 188.019,1293.42 "/>
<polyline clip-path="url(#clip500)" style="stroke:#000000; stroke-linecap:round; stroke-linejoin:round; stroke-width:4; stroke-opacity:1; fill:none" points="169.121,1013.33 188.019,1013.33 "/>
<polyline clip-path="url(#clip500)" style="stroke:#000000; stroke-linecap:round; stroke-linejoin:round; stroke-width:4; stroke-opacity:1; fill:none" points="169.121,733.248 188.019,733.248 "/>
<polyline clip-path="url(#clip500)" style="stroke:#000000; stroke-linecap:round; stroke-linejoin:round; stroke-width:4; stroke-opacity:1; fill:none" points="169.121,453.162 188.019,453.162 "/>
<polyline clip-path="url(#clip500)" style="stroke:#000000; stroke-linecap:round; stroke-linejoin:round; stroke-width:4; stroke-opacity:1; fill:none" points="169.121,173.076 188.019,173.076 "/>
<path clip-path="url(#clip500)" d="M95.1817 1292.07 Q98.5382 1292.78 100.413 1295.05 Q102.311 1297.32 102.311 1300.65 Q102.311 1305.77 98.7928 1308.57 Q95.2743 1311.37 88.7928 1311.37 Q86.6169 1311.37 84.3021 1310.93 Q82.0105 1310.51 79.5568 1309.66 L79.5568 1305.14 Q81.5012 1306.28 83.816 1306.86 Q86.1308 1307.44 88.654 1307.44 Q93.0521 1307.44 95.3437 1305.7 Q97.6585 1303.96 97.6585 1300.65 Q97.6585 1297.6 95.5058 1295.88 Q93.3762 1294.15 89.5567 1294.15 L85.529 1294.15 L85.529 1290.31 L89.7419 1290.31 Q93.191 1290.31 95.0197 1288.94 Q96.8484 1287.55 96.8484 1284.96 Q96.8484 1282.3 94.9502 1280.88 Q93.0752 1279.45 89.5567 1279.45 Q87.6354 1279.45 85.4364 1279.87 Q83.2373 1280.28 80.5984 1281.16 L80.5984 1277 Q83.2605 1276.26 85.5753 1275.88 Q87.9132 1275.51 89.9734 1275.51 Q95.2974 1275.51 98.3993 1277.94 Q101.501 1280.35 101.501 1284.47 Q101.501 1287.34 99.8576 1289.33 Q98.2141 1291.3 95.1817 1292.07 Z" fill="#000000" fill-rule="nonzero" fill-opacity="1" /><path clip-path="url(#clip500)" d="M121.177 1279.22 Q117.566 1279.22 115.737 1282.78 Q113.932 1286.32 113.932 1293.45 Q113.932 1300.56 115.737 1304.13 Q117.566 1307.67 121.177 1307.67 Q124.811 1307.67 126.617 1304.13 Q128.445 1300.56 128.445 1293.45 Q128.445 1286.32 126.617 1282.78 Q124.811 1279.22 121.177 1279.22 M121.177 1275.51 Q126.987 1275.51 130.043 1280.12 Q133.121 1284.7 133.121 1293.45 Q133.121 1302.18 130.043 1306.79 Q126.987 1311.37 121.177 1311.37 Q115.367 1311.37 112.288 1306.79 Q109.233 1302.18 109.233 1293.45 Q109.233 1284.7 112.288 1280.12 Q115.367 1275.51 121.177 1275.51 Z" fill="#000000" fill-rule="nonzero" fill-opacity="1" /><path clip-path="url(#clip500)" d="M91.5938 1011.47 Q88.4456 1011.47 86.5938 1013.62 Q84.7651 1015.78 84.7651 1019.53 Q84.7651 1023.25 86.5938 1025.43 Q88.4456 1027.58 91.5938 1027.58 Q94.7419 1027.58 96.5706 1025.43 Q98.4224 1023.25 98.4224 1019.53 Q98.4224 1015.78 96.5706 1013.62 Q94.7419 1011.47 91.5938 1011.47 M100.876 996.817 L100.876 1001.08 Q99.1169 1000.24 97.3113 999.803 Q95.5289 999.364 93.7697 999.364 Q89.1401 999.364 86.6864 1002.49 Q84.2558 1005.61 83.9086 1011.93 Q85.2743 1009.92 87.3345 1008.85 Q89.3947 1007.77 91.8715 1007.77 Q97.0798 1007.77 100.089 1010.94 Q103.121 1014.09 103.121 1019.53 Q103.121 1024.85 99.9733 1028.07 Q96.8252 1031.28 91.5938 1031.28 Q85.5984 1031.28 82.4271 1026.7 Q79.2559 1022.09 79.2559 1013.37 Q79.2559 1005.17 83.1447 1000.31 Q87.0336 995.428 93.5845 995.428 Q95.3437 995.428 97.1261 995.776 Q98.9317 996.123 100.876 996.817 Z" fill="#000000" fill-rule="nonzero" fill-opacity="1" /><path clip-path="url(#clip500)" d="M121.177 999.132 Q117.566 999.132 115.737 1002.7 Q113.932 1006.24 113.932 1013.37 Q113.932 1020.47 115.737 1024.04 Q117.566 1027.58 121.177 1027.58 Q124.811 1027.58 126.617 1024.04 Q128.445 1020.47 128.445 1013.37 Q128.445 1006.24 126.617 1002.7 Q124.811 999.132 121.177 999.132 M121.177 995.428 Q126.987 995.428 130.043 1000.03 Q133.121 1004.62 133.121 1013.37 Q133.121 1022.09 130.043 1026.7 Q126.987 1031.28 121.177 1031.28 Q115.367 1031.28 112.288 1026.7 Q109.233 1022.09 109.233 1013.37 Q109.233 1004.62 112.288 1000.03 Q115.367 995.428 121.177 995.428 Z" fill="#000000" fill-rule="nonzero" fill-opacity="1" /><path clip-path="url(#clip500)" d="M81.154 749.81 L81.154 745.551 Q82.9133 746.384 84.7188 746.824 Q86.5243 747.264 88.2604 747.264 Q92.89 747.264 95.3206 744.162 Q97.7743 741.037 98.1215 734.694 Q96.7789 736.685 94.7187 737.75 Q92.6586 738.815 90.1586 738.815 Q84.9734 738.815 81.941 735.69 Q78.9318 732.541 78.9318 727.102 Q78.9318 721.778 82.0799 718.56 Q85.2281 715.343 90.4595 715.343 Q96.4548 715.343 99.603 719.949 Q102.774 724.532 102.774 733.282 Q102.774 741.453 98.8854 746.338 Q95.0197 751.199 88.4688 751.199 Q86.7095 751.199 84.904 750.852 Q83.0984 750.504 81.154 749.81 M90.4595 735.157 Q93.6076 735.157 95.4363 733.004 Q97.2882 730.852 97.2882 727.102 Q97.2882 723.375 95.4363 721.222 Q93.6076 719.046 90.4595 719.046 Q87.3114 719.046 85.4595 721.222 Q83.6308 723.375 83.6308 727.102 Q83.6308 730.852 85.4595 733.004 Q87.3114 735.157 90.4595 735.157 Z" fill="#000000" fill-rule="nonzero" fill-opacity="1" /><path clip-path="url(#clip500)" d="M121.177 719.046 Q117.566 719.046 115.737 722.611 Q113.932 726.153 113.932 733.282 Q113.932 740.389 115.737 743.953 Q117.566 747.495 121.177 747.495 Q124.811 747.495 126.617 743.953 Q128.445 740.389 128.445 733.282 Q128.445 726.153 126.617 722.611 Q124.811 719.046 121.177 719.046 M121.177 715.343 Q126.987 715.343 130.043 719.949 Q133.121 724.532 133.121 733.282 Q133.121 742.009 130.043 746.615 Q126.987 751.199 121.177 751.199 Q115.367 751.199 112.288 746.615 Q109.233 742.009 109.233 733.282 Q109.233 724.532 112.288 719.949 Q115.367 715.343 121.177 715.343 Z" fill="#000000" fill-rule="nonzero" fill-opacity="1" /><path clip-path="url(#clip500)" d="M51.6634 466.506 L59.3023 466.506 L59.3023 440.141 L50.9921 441.807 L50.9921 437.548 L59.256 435.882 L63.9319 435.882 L63.9319 466.506 L71.5707 466.506 L71.5707 470.442 L51.6634 470.442 L51.6634 466.506 Z" fill="#000000" fill-rule="nonzero" fill-opacity="1" /><path clip-path="url(#clip500)" d="M85.0429 466.506 L101.362 466.506 L101.362 470.442 L79.4179 470.442 L79.4179 466.506 Q82.0799 463.752 86.6632 459.122 Q91.2697 454.469 92.4502 453.127 Q94.6956 450.604 95.5752 448.868 Q96.478 447.108 96.478 445.419 Q96.478 442.664 94.5336 440.928 Q92.6123 439.192 89.5104 439.192 Q87.3114 439.192 84.8577 439.956 Q82.4271 440.72 79.6494 442.27 L79.6494 437.548 Q82.4734 436.414 84.9271 435.835 Q87.3808 435.257 89.4178 435.257 Q94.7882 435.257 97.9826 437.942 Q101.177 440.627 101.177 445.118 Q101.177 447.247 100.367 449.169 Q99.5798 451.067 97.4734 453.659 Q96.8947 454.331 93.7928 457.548 Q90.691 460.743 85.0429 466.506 Z" fill="#000000" fill-rule="nonzero" fill-opacity="1" /><path clip-path="url(#clip500)" d="M121.177 438.96 Q117.566 438.96 115.737 442.525 Q113.932 446.067 113.932 453.196 Q113.932 460.303 115.737 463.868 Q117.566 467.409 121.177 467.409 Q124.811 467.409 126.617 463.868 Q128.445 460.303 128.445 453.196 Q128.445 446.067 126.617 442.525 Q124.811 438.96 121.177 438.96 M121.177 435.257 Q126.987 435.257 130.043 439.863 Q133.121 444.446 133.121 453.196 Q133.121 461.923 130.043 466.53 Q126.987 471.113 121.177 471.113 Q115.367 471.113 112.288 466.53 Q109.233 461.923 109.233 453.196 Q109.233 444.446 112.288 439.863 Q115.367 435.257 121.177 435.257 Z" fill="#000000" fill-rule="nonzero" fill-opacity="1" /><path clip-path="url(#clip500)" d="M51.6634 186.421 L59.3023 186.421 L59.3023 160.055 L50.9921 161.722 L50.9921 157.462 L59.256 155.796 L63.9319 155.796 L63.9319 186.421 L71.5707 186.421 L71.5707 190.356 L51.6634 190.356 L51.6634 186.421 Z" fill="#000000" fill-rule="nonzero" fill-opacity="1" /><path clip-path="url(#clip500)" d="M81.0614 155.796 L99.4178 155.796 L99.4178 159.731 L85.3438 159.731 L85.3438 168.203 Q86.3623 167.856 87.3808 167.694 Q88.3993 167.509 89.4178 167.509 Q95.2049 167.509 98.5845 170.68 Q101.964 173.851 101.964 179.268 Q101.964 184.846 98.4919 187.948 Q95.0197 191.027 88.7003 191.027 Q86.5243 191.027 84.2558 190.657 Q82.0105 190.286 79.6031 189.546 L79.6031 184.846 Q81.6864 185.981 83.9086 186.536 Q86.1308 187.092 88.6077 187.092 Q92.6123 187.092 94.9502 184.985 Q97.2882 182.879 97.2882 179.268 Q97.2882 175.657 94.9502 173.55 Q92.6123 171.444 88.6077 171.444 Q86.7327 171.444 84.8577 171.86 Q83.0058 172.277 81.0614 173.157 L81.0614 155.796 Z" fill="#000000" fill-rule="nonzero" fill-opacity="1" /><path clip-path="url(#clip500)" d="M121.177 158.874 Q117.566 158.874 115.737 162.439 Q113.932 165.981 113.932 173.11 Q113.932 180.217 115.737 183.782 Q117.566 187.323 121.177 187.323 Q124.811 187.323 126.617 183.782 Q128.445 180.217 128.445 173.11 Q128.445 165.981 126.617 162.439 Q124.811 158.874 121.177 158.874 M121.177 155.171 Q126.987 155.171 130.043 159.777 Q133.121 164.36 133.121 173.11 Q133.121 181.837 130.043 186.444 Q126.987 191.027 121.177 191.027 Q115.367 191.027 112.288 186.444 Q109.233 181.837 109.233 173.11 Q109.233 164.36 112.288 159.777 Q115.367 155.171 121.177 155.171 Z" fill="#000000" fill-rule="nonzero" fill-opacity="1" /><polyline clip-path="url(#clip502)" style="stroke:#009af9; stroke-linecap:round; stroke-linejoin:round; stroke-width:4; stroke-opacity:1; fill:none" points="230.922,1444.79 231.952,1445.72 232.982,1375.93 234.012,1377.9 235.042,1337.37 236.072,1339.41 237.102,1310.49 238.132,1313.48 239.162,1147.35 240.192,1152.91 241.222,1309.45 242.252,1311.83 243.282,1161.72 244.313,1165.95 245.343,1190.18 246.373,1192.9 247.403,1042.41 248.433,1047.95 249.463,1072 250.493,1078 251.523,1062.72 252.553,1066.92 253.583,1106.39 254.613,1109 255.643,1036.43 256.673,1039.82 257.703,1055.94 258.733,1059.52 259.763,1057.64 260.793,1060.5 261.823,956.916 262.853,961.712 263.883,1033.59 264.913,1037.42 265.943,977.826 266.973,980.754 268.003,932.576 269.033,935.829 270.063,970.81 271.093,973.372 272.123,1031.22 273.153,1034.21 274.183,855.537 275.213,860.891 276.243,954.539 277.273,957.211 278.303,880.746 279.333,885.595 280.363,929.025 281.393,930.886 282.423,925.214 283.453,927.524 284.483,924.186 285.513,926.359 286.543,906.456 287.573,908.866 288.603,997.699 289.633,999.223 290.663,860.038 291.693,864.518 292.723,925.294 293.753,929.166 294.783,886.466 295.813,890.812 296.843,921.081 297.873,922.655 298.903,891.287 299.933,893.983 300.963,834.628 301.993,839.125 303.023,925.204 304.053,926.702 305.083,834.656 306.113,840.223 307.144,959.596 308.174,961.896 309.204,908.443 310.234,912.184 311.264,924.973 312.294,926.699 313.324,896.383 314.354,897.88 315.384,887.568 316.414,891.54 317.444,872.797 318.474,875.564 319.504,924.007 320.534,926.47 321.564,915.951 322.594,917.563 323.624,881.417 324.654,882.865 325.684,925.361 326.714,926.617 327.744,921.788 328.774,924.03 329.804,886.236 330.834,887.955 331.864,930.374 332.894,931.672 333.924,926.579 334.954,929.004 335.984,872.974 337.014,876.216 338.044,895.52 339.074,896.761 340.104,894.382 341.134,895.636 342.164,942.592 343.194,944.838 344.224,956.458 345.254,957.297 346.284,924.04 347.314,926.054 348.344,946.106 349.374,947.938 350.404,886.312 351.434,888.827 352.464,890.398 353.494,891.286 354.524,839.781 355.554,842.85 356.584,953.178 357.614,956.414 358.644,936.3 359.674,938.6 360.704,908.199 361.734,911.409 362.764,947.353 363.794,948.972 364.824,884.585 365.854,887.554 366.884,929.726 367.914,932.089 368.944,986.327 369.974,988.032 371.005,934.825 372.035,940.341 373.065,922.65 374.095,924.184 375.125,937.09 376.155,940.602 377.185,894.108 378.215,895.476 379.245,898.176 380.275,899.976 381.305,903.484 382.335,906.175 383.365,958.186 384.395,959.994 385.425,894.472 386.455,898.197 387.485,947.168 388.515,949.669 389.545,890.717 390.575,892.465 391.605,927.009 392.635,929.025 393.665,944.915 394.695,947.284 395.725,943.027 396.755,945.016 397.785,851.337 398.815,857.847 399.845,838.309 400.875,841.073 401.905,927.39 402.935,929.459 403.965,866.428 404.995,867.87 406.025,937.411 407.055,939.41 408.085,878.028 409.115,879.841 410.145,906.029 411.175,907.989 412.205,893.926 413.235,895.741 414.265,949.542 415.295,952.646 416.325,886.158 417.355,890.847 418.385,890.31 419.415,891.295 420.445,881.615 421.475,884.335 422.505,887.359 423.535,889.709 424.565,920.274 425.595,922.618 426.625,879.561 427.655,881.563 428.685,923.683 429.715,926.055 430.745,898.974 431.775,900.816 432.805,919.503 433.836,922.165 434.866,910.144 435.896,911.088 436.926,916.598 437.956,920.014 438.986,860.512 440.016,863.252 441.046,914.664 442.076,918.074 443.106,877.281 444.136,879.369 445.166,921.454 446.196,922.458 447.226,946.251 448.256,947.782 449.286,959.715 450.316,961.447 451.346,981.788 452.376,983.947 453.406,955.361 454.436,958.384 455.466,855.069 456.496,858.742 457.526,946.524 458.556,948.539 459.586,901.968 460.616,904.164 461.646,992.271 462.676,993.688 463.706,879.566 464.736,884.605 465.766,826.576 466.796,828.936 467.826,928.187 468.856,930.623 469.886,926.859 470.916,928.539 471.946,964.263 472.976,965.722 474.006,985.904 475.036,987.765 476.066,986.266 477.096,987.556 478.126,891.151 479.156,894.303 480.186,905.322 481.216,906.277 482.246,960.132 483.276,963.45 484.306,944.261 485.336,947.16 486.366,890.837 487.396,892.173 488.426,982.319 489.456,983.406 490.486,945.326 491.516,947.646 492.546,920.486 493.576,923.529 494.606,951.397 495.636,953.521 496.667,861.667 497.697,864.595 498.727,942.994 499.757,944.492 500.787,961.145 501.817,964.041 502.847,887.134 503.877,891.474 504.907,853.516 505.937,855.501 506.967,856.394 507.997,859.721 509.027,964.418 510.057,967.805 511.087,932.776 512.117,935.285 513.147,947.552 514.177,949.183 515.207,908.491 516.237,910.494 517.267,870.202 518.297,871.939 519.327,917.187 520.357,919.92 521.387,865.218 522.417,868.352 523.447,927.697 524.477,929.2 525.507,899.056 526.537,902.142 527.567,944.695 528.597,947.062 529.627,985.441 530.657,987.997 531.687,892.668 532.717,894.136 533.747,892.479 534.777,896.789 535.807,892.937 536.837,896.747 537.867,895.458 538.897,900.093 539.927,892.16 540.957,894.372 541.987,844.982 543.017,848.658 544.047,875.02 545.077,878.118 546.107,898.625 547.137,899.509 548.167,833.543 549.197,836.741 550.227,899.328 551.257,903.054 552.287,889.336 553.317,892.711 554.347,869.566 555.377,872.292 556.407,925.083 557.437,928.488 558.467,880.515 559.497,884.756 560.528,899.529 561.558,902.295 562.588,877.085 563.618,879.014 564.648,899.228 565.678,903.895 566.708,820.585 567.738,823.241 568.768,858.122 569.798,861.431 570.828,888.487 571.858,892.659 572.888,923.348 573.918,925.572 574.948,875.405 575.978,876.398 577.008,905.542 578.038,907.989 579.068,903.61 580.098,904.881 581.128,881.94 582.158,885.523 583.188,904.827 584.218,907.29 585.248,884.579 586.278,886.178 587.308,898.636 588.338,899.895 589.368,926.563 590.398,928.318 591.428,884.793 592.458,885.893 593.488,914.432 594.518,917.292 595.548,877.044 596.578,879.924 597.608,879.397 598.638,883.091 599.668,844.779 600.698,847.279 601.728,923.951 602.758,926.652 603.788,907.356 604.818,909.68 605.848,909.979 606.878,912.035 607.908,951.99 608.938,953.607 609.968,930.904 610.998,932.786 612.028,849.384 613.058,852.446 614.088,877.172 615.118,878.459 616.148,869.405 617.178,872.053 618.208,903.104 619.238,907.915 620.268,916.816 621.298,920.648 622.328,906.864 623.359,908.75 624.389,861.399 625.419,867.027 626.449,898.789 627.479,901.667 628.509,894.675 629.539,895.774 630.569,901.122 631.599,904.293 632.629,878.485 633.659,883.133 634.689,872.964 635.719,874.985 636.749,804.195 637.779,808.743 638.809,945.484 639.839,948.024 640.869,902.442 641.899,904.754 642.929,901.354 643.959,903.549 644.989,918.015 646.019,921.698 647.049,968.758 648.079,970.184 649.109,866.107 650.139,868.645 651.169,824.584 652.199,827.024 653.229,924.806 654.259,928.147 655.289,845.4 656.319,847.668 657.349,903.68 658.379,905.307 659.409,901.137 660.439,903.284 661.469,915.933 662.499,918.735 663.529,946.292 664.559,948.884 665.589,909.259 666.619,910.733 667.649,867.434 668.679,871.112 669.709,926.425 670.739,927.757 671.769,839.629 672.799,843.595 673.829,881.241 674.859,884.543 675.889,910.992 676.919,913.208 677.949,815.405 678.979,819.509 680.009,914.173 681.039,916.532 682.069,915.201 683.099,919.819 684.129,937.1 685.159,938.63 686.19,889.377 687.22,891.365 688.25,894.463 689.28,895.523 690.31,891.265 691.34,893.317 692.37,970.986 693.4,973.609 694.43,904.628 695.46,906.822 696.49,897.758 697.52,902.087 698.55,766.066 699.58,770.725 700.61,824.728 701.64,827.997 702.67,880.056 703.7,881.8 704.73,871.673 705.76,874.678 706.79,873.804 707.82,876.578 708.85,852.755 709.88,855.364 710.91,818.291 711.94,822.303 712.97,880.978 714,883.487 715.03,884.57 716.06,886.448 717.09,926.237 718.12,927.647 719.15,903.22 720.18,905.572 721.21,863.932 722.24,866.268 723.27,782.115 724.3,787.938 725.33,906.336 726.36,908.999 727.39,859.831 728.42,861.54 729.45,897.059 730.48,899.637 731.51,919.537 732.54,921.646 733.57,906.707 734.6,910.558 735.63,930.979 736.66,933.124 737.69,818.283 738.72,820.277 739.75,873.014 740.78,876.325 741.81,891.508 742.84,893.788 743.87,884.343 744.9,886.427 745.93,886.583 746.96,887.618 747.99,841.963 749.021,843.636 750.051,905.283 751.081,907.074 752.111,887.7 753.141,892.024 754.171,840.223 755.201,842.09 756.231,759.114 757.261,763.46 758.291,880.271 759.321,881.782 760.351,823.918 761.381,829.063 762.411,862.812 763.441,863.948 764.471,915.519 765.501,916.557 766.531,872.767 767.561,875.526 768.591,820.537 769.621,823.521 770.651,822.301 771.681,826.962 772.711,902.468 773.741,904.883 774.771,892.177 775.801,895.466 776.831,832.984 777.861,835.927 778.891,924.915 779.921,927.05 780.951,896.38 781.981,898.038 783.011,883.824 784.041,886.066 785.071,873.752 786.101,875.348 787.131,837.924 788.161,840.407 789.191,807.676 790.221,810.068 791.251,817.469 792.281,821.094 793.311,861.569 794.341,863.567 795.371,886.47 796.401,888.306 797.431,856.773 798.461,862.508 799.491,820.707 800.521,824.822 801.551,778.348 802.581,782.479 803.611,874.747 804.641,876.45 805.671,860.779 806.701,863.391 807.731,897.301 808.761,899.61 809.791,820.188 810.821,822.529 811.851,879.311 812.882,880.898 813.912,911.37 814.942,913.701 815.972,851.818 817.002,856.066 818.032,894.695 819.062,897.172 820.092,839.847 821.122,841.955 822.152,907.792 823.182,914.237 824.212,928.102 825.242,929.725 826.272,924.1 827.302,926.154 828.332,892.146 829.362,895.699 830.392,934.846 831.422,937.653 832.452,795.585 833.482,798.865 834.512,856.465 835.542,858.157 836.572,928.178 837.602,930.126 838.632,828.64 839.662,831.328 840.692,860.192 841.722,861.59 842.752,923.425 843.782,925.399 844.812,877.463 845.842,878.956 846.872,930.357 847.902,931.476 848.932,887.085 849.962,888.81 850.992,743.345 852.022,749.518 853.052,807.273 854.082,810.178 855.112,839.759 856.142,841.631 857.172,897.708 858.202,900.007 859.232,815.41 860.262,817.277 861.292,840.711 862.322,842.447 863.352,876.956 864.382,878.776 865.412,876.596 866.442,879.49 867.472,859.156 868.502,861.501 869.532,796.326 870.562,800.849 871.592,830.352 872.622,832.216 873.652,838.912 874.682,841.183 875.713,861.496 876.743,864.191 877.773,801.478 878.803,804.048 879.833,889.241 880.863,890.285 881.893,883.914 882.923,887.397 883.953,855.406 884.983,856.623 886.013,919.443 887.043,921.98 888.073,888.587 889.103,891.316 890.133,926.203 891.163,928.071 892.193,887.088 893.223,888.905 894.253,874.806 895.283,876.087 896.313,891.024 897.343,893.466 898.373,897.627 899.403,900.179 900.433,848.026 901.463,849.404 902.493,774.444 903.523,779.327 904.553,908.971 905.583,910.836 906.613,671.813 907.643,678.639 908.673,759.915 909.703,764.149 910.733,838.846 911.763,841.287 912.793,888.983 913.823,891.149 914.853,843.259 915.883,846.186 916.913,824.732 917.943,828.665 918.973,856.773 920.003,858.845 921.033,864.173 922.063,865.925 923.093,916.699 924.123,918.575 925.153,858.661 926.183,859.997 927.213,850.888 928.243,853.077 929.273,852.944 930.303,857.073 931.333,863.203 932.363,864.628 933.393,906.73 934.423,909.605 935.453,872.194 936.483,874.242 937.513,836.725 938.544,841.587 939.574,809.628 940.604,811.115 941.634,871.99 942.664,874.59 943.694,914.94 944.724,918.386 945.754,905.81 946.784,908.01 947.814,891.547 948.844,892.802 949.874,884.269 950.904,887.215 951.934,889.918 952.964,892.457 953.994,877.689 955.024,879.163 956.054,787.846 957.084,791.646 958.114,919.095 959.144,921.148 960.174,798.535 961.204,802.609 962.234,791.738 963.264,795.335 964.294,835.738 965.324,839.518 966.354,816.627 967.384,822.069 968.414,828.697 969.444,832.599 970.474,844.151 971.504,845.022 972.534,880.384 973.564,883.322 974.594,786.153 975.624,788.46 976.654,912.694 977.684,916.223 978.714,854.221 979.744,857.272 980.774,877.072 981.804,881.607 982.834,831.424 983.864,835.004 984.894,856.577 985.924,859.472 986.954,779.142 987.984,782.206 989.014,816.876 990.044,820.767 991.074,755.302 992.104,760.541 993.134,863.828 994.164,867.478 995.194,896.174 996.224,897.561 997.254,902.518 998.284,903.74 999.314,913.556 1000.34,914.979 1001.37,894.819 1002.4,896.8 1003.43,845.872 1004.46,847.349 1005.49,818.537 1006.52,822.3 1007.55,775.607 1008.58,778.963 1009.61,827.479 1010.64,830.135 1011.67,836.291 1012.7,838.775 1013.73,827.161 1014.76,829.09 1015.79,850.229 1016.82,853.14 1017.85,756.011 1018.88,759.62 1019.91,862.386 1020.94,866.634 1021.97,843.746 1023,848.564 1024.03,809.391 1025.06,814.69 1026.09,853.617 1027.12,856.248 1028.15,829.045 1029.18,833.077 1030.21,863.94 1031.24,865.738 1032.27,770.778 1033.31,773.859 1034.34,769.713 1035.37,773.212 1036.4,816.532 1037.43,820.543 1038.46,833.439 1039.49,838.029 1040.52,853.857 1041.55,857.091 1042.58,776.194 1043.61,779.39 1044.64,833.342 1045.67,835.252 1046.7,771.064 1047.73,773.266 1048.76,865.577 1049.79,867.624 1050.82,883.614 1051.85,888.068 1052.88,774.34 1053.91,776.45 1054.94,817.653 1055.97,820.405 1057,803.799 1058.03,806.423 1059.06,826.218 1060.09,829.31 1061.12,793.794 1062.15,797.427 1063.18,861.324 1064.21,863.131 1065.24,845.527 1066.27,849.703 1067.3,852.22 1068.33,856.93 1069.36,815.521 1070.39,818.611 1071.42,816.105 1072.45,819.735 1073.48,772.704 1074.51,775.982 1075.54,872.303 1076.57,874.09 1077.6,896.592 1078.63,900.451 1079.66,897.381 1080.69,900.615 1081.72,820.539 1082.75,822.114 1083.78,837.204 1084.81,839.559 1085.84,797.972 1086.87,801.485 1087.9,863.85 1088.93,868.172 1089.96,814.692 1090.99,817.202 1092.02,724.693 1093.05,730.503 1094.08,766.371 1095.11,770.445 1096.14,813.765 1097.17,816.217 1098.2,816.357 1099.23,818.504 1100.26,873.796 1101.29,875.823 1102.32,808.145 1103.35,810.612 1104.38,712.924 1105.41,717.085 1106.44,810.772 1107.47,814.286 1108.5,809.221 1109.53,812.371 1110.56,765.644 1111.59,770.828 1112.62,732.756 1113.65,736.308 1114.68,819.35 1115.71,821.588 1116.74,791.355 1117.77,792.925 1118.8,743.471 1119.83,748.903 1120.86,821.395 1121.89,823.781 1122.92,843.533 1123.95,845.681 1124.98,760.414 1126.01,763.218 1127.04,733.446 1128.07,740.124 1129.1,787.561 1130.13,789.782 1131.16,709.838 1132.19,714.901 1133.22,621.499 1134.25,624.988 1135.28,713.521 1136.31,721.436 1137.34,738.344 1138.37,742.482 1139.4,764.244 1140.43,767.178 1141.46,756.413 1142.49,761.366 1143.52,659.168 1144.55,664.448 1145.58,671.23 1146.61,674.679 1147.64,694.365 1148.67,699.322 1149.7,761.387 1150.73,764.987 1151.76,603.279 1152.79,609.391 1153.82,685.038 1154.85,689.807 1155.88,693.956 1156.91,697.421 1157.94,642.611 1158.97,646.874 1160,696 1161.03,699.763 1162.06,710.4 1163.09,713.772 1164.12,550.997 1165.15,556.525 1166.18,539.08 1167.21,545.198 1168.24,668.19 1169.27,672.822 1170.3,558.471 1171.33,563.212 1172.36,609.884 1173.39,617.65 1174.42,580.903 1175.45,584.403 1176.48,763.708 1177.51,767.68 1178.54,620.292 1179.57,625.237 1180.6,588.536 1181.63,591.913 1182.66,605.278 1183.69,608.477 1184.72,591.968 1185.75,595.585 1186.78,577.382 1187.81,583.809 1188.84,486.582 1189.87,493.511 1190.9,583.439 1191.93,586.642 1192.96,499.001 1193.99,505.007 1195.02,532.538 1196.05,537.838 1197.08,588.083 1198.11,591.818 1199.14,510.551 1200.17,519.711 1201.2,509.229 1202.23,516.88 1203.26,563.748 1204.29,571.674 1205.32,553.139 1206.35,557.804 1207.38,537.381 1208.41,543.657 1209.44,505.786 1210.47,511.702 1211.5,592.718 1212.53,596.131 1213.56,446.738 1214.59,452.087 1215.62,556.669 1216.65,561.228 1217.68,497.492 1218.71,502.026 1219.74,477.854 1220.77,483.886 1221.8,424.756 1222.83,431.699 1223.86,500.608 1224.89,505.87 1225.92,440.841 1226.95,443.916 1227.98,534.159 1229.01,539.506 1230.04,575.204 1231.07,579.479 1232.1,471.401 1233.13,477.071 1234.16,544.784 1235.19,548.935 1236.22,558.029 1237.25,562.702 1238.28,523.707 1239.31,528.613 1240.34,378.963 1241.37,384.744 1242.4,513.297 1243.43,517.519 1244.46,483.417 1245.49,491.224 1246.52,433.388 1247.55,441.251 1248.58,403.748 1249.61,408.82 1250.64,439.811 1251.67,448.487 1252.7,503.037 1253.73,508.001 1254.76,327.6 1255.79,333.886 1256.82,449.333 1257.85,453.642 1258.88,611.929 1259.91,616.258 1260.94,530.458 1261.97,535.445 1263,395.593 1264.03,401.536 1265.06,482.556 1266.09,487.208 1267.12,504.94 1268.15,510.141 1269.18,466.866 1270.21,471.96 1271.24,594.544 1272.27,601.548 1273.3,453.275 1274.33,458.404 1275.36,420.987 1276.39,427.265 1277.42,381.023 1278.45,388.801 1279.48,469.549 1280.51,476.083 1281.54,331.919 1282.57,338.029 1283.6,470.507 1284.63,477.768 1285.66,496.28 1286.69,500.221 1287.72,573.773 1288.75,578.024 1289.78,357.072 1290.81,362.604 1291.84,433.305 1292.87,440.863 1293.9,353.879 1294.93,359.433 1295.96,534.799 1296.99,542.15 1298.02,339.847 1299.05,345.49 1300.08,460.939 1301.11,465.671 1302.14,393.627 1303.17,399.837 1304.2,555.308 1305.23,559.472 1306.26,331.858 1307.29,340.079 1308.32,400.641 1309.35,405.271 1310.38,373.318 1311.41,379.884 1312.44,382.936 1313.47,388.134 1314.5,504.688 1315.53,510.039 1316.56,516.983 1317.59,521.539 1318.62,458.25 1319.65,462.927 1320.68,374.988 1321.71,379.736 1322.74,507.404 1323.77,515.057 1324.8,377.28 1325.83,381.111 1326.86,371.3 1327.89,373.904 1328.92,535.371 1329.95,540.396 1330.98,394.544 1332.01,400.413 1333.04,378.141 1334.07,382.783 1335.1,481.181 1336.13,485.895 1337.16,385.702 1338.19,391.462 1339.22,568.302 1340.25,573.336 1341.28,442.299 1342.31,448.929 1343.34,352.63 1344.37,361.237 1345.4,436.565 1346.43,439.873 1347.46,355.115 1348.49,359.008 1349.52,496.751 1350.55,501.736 1351.58,458.52 1352.61,465.902 1353.64,538.34 1354.67,543.083 1355.7,484.313 1356.73,490.126 1357.76,465.902 1358.79,472.225 1359.82,567.925 1360.85,572.395 1361.88,474.659 1362.91,482.371 1363.94,476.638 1364.97,481.42 1366,561.182 1367.03,566.458 1368.06,581.003 1369.09,586.368 1370.12,396.279 1371.15,403.105 1372.18,428.332 1373.21,432.756 1374.24,463.204 1375.27,468.24 1376.3,295.355 1377.33,304.412 1378.36,488.987 1379.39,496.386 1380.42,340.49 1381.45,346.173 1382.48,449.951 1383.51,461.305 1384.54,332.99 1385.57,340.906 1386.6,338.103 1387.63,342.464 1388.66,537.894 1389.69,541.603 1390.72,515 1391.75,520.84 1392.78,324.396 1393.81,334.371 1394.84,420.087 1395.87,425.478 1396.9,406.361 1397.93,413.997 1398.96,432.806 1399.99,435.333 1401.02,332.365 1402.05,339.966 1403.08,339.726 1404.11,346.311 1405.14,368.672 1406.17,375.836 1407.2,280.032 1408.23,289.02 1409.26,391.146 1410.29,397.545 1411.32,480.502 1412.35,486.546 1413.38,430.173 1414.41,437.08 1415.44,414.378 1416.47,418.422 1417.5,460.618 1418.53,466.489 1419.56,300.099 1420.59,306.45 1421.62,461.059 1422.65,467.839 1423.68,270.294 1424.71,277.268 1425.74,351.665 1426.77,356.289 1427.8,406.445 1428.83,413.221 1429.86,239.879 1430.89,247.201 1431.92,474.616 1432.95,479.886 1433.98,472.729 1435.01,478.813 1436.04,637.505 1437.07,644.737 1438.1,478.781 1439.13,484.376 1440.16,417.636 1441.19,425.523 1442.22,499.297 1443.25,508.721 1444.28,390.281 1445.31,395.389 1446.34,463.348 1447.37,466.637 1448.4,356.159 1449.43,362.717 1450.46,364.456 1451.49,369.734 1452.52,487.13 1453.55,494.141 1454.58,590.762 1455.61,597.581 1456.64,474.161 1457.67,478.989 1458.7,493.164 1459.73,497.201 1460.76,443.939 1461.79,450.949 1462.82,402.268 1463.85,407.252 1464.88,298.219 1465.91,303.629 1466.94,440.352 1467.97,446.938 1469,478.503 1470.03,485.102 1471.06,229.272 1472.09,233.259 1473.12,410.29 1474.15,418.444 1475.18,358.814 1476.21,366.052 1477.24,402.495 1478.27,407.581 1479.3,363.788 1480.33,370.324 1481.36,356.466 1482.39,362.128 1483.42,353.11 1484.45,358.77 1485.48,489.258 1486.51,493.214 1487.54,383.509 1488.57,390.852 1489.6,335.141 1490.63,339.247 1491.66,283.031 1492.69,290.888 1493.72,369.932 1494.75,375.787 1495.78,379.545 1496.81,385.991 1497.84,489.344 1498.87,496.375 1499.9,367.07 1500.93,374.207 1501.96,261.097 1502.99,267.981 1504.02,343.634 1505.05,347.431 1506.08,455.936 1507.11,459.146 1508.14,316.432 1509.17,322.216 1510.2,193.906 1511.23,202.905 1512.26,367.78 1513.29,372.762 1514.32,286.395 1515.35,292.508 1516.38,393.249 1517.41,397.644 1518.44,429.672 1519.47,434.538 1520.5,254.546 1521.53,261.089 1522.56,247.019 1523.59,254.017 1524.62,207.999 1525.65,213.741 1526.68,458.223 1527.71,466.771 1528.74,214.183 1529.77,222.498 1530.8,428.758 1531.83,437.06 1532.86,321.087 1533.89,329.067 1534.92,166.584 1535.95,177.389 1536.98,276.673 1538.01,282.498 1539.04,378.309 1540.07,385.854 1541.1,401.075 1542.13,410.115 1543.16,495.246 1544.19,500.137 1545.22,591.595 1546.25,597.354 1547.28,334.178 1548.31,342.475 1549.34,92.9405 1550.37,101.508 1551.4,449.293 1552.43,455.274 1553.46,349.91 1554.49,355.55 1555.52,365.83 1556.55,370.736 1557.58,412.793 1558.61,417.445 1559.64,369.131 1560.67,376.967 1561.7,373.116 1562.73,380.293 1563.76,399.097 1564.79,405.708 1565.82,339.139 1566.85,344.272 1567.88,370.038 1568.91,374.659 1569.94,529.141 1570.97,534.641 1572,469.303 1573.03,476.293 1574.06,572.345 1575.09,578.055 1576.12,483.304 1577.15,492.125 1578.18,282.094 1579.21,291.891 1580.24,454.877 1581.27,459.741 1582.3,332.787 1583.33,340.994 1584.36,516.677 1585.39,523.731 1586.42,310.461 1587.45,316.792 1588.48,426.614 1589.51,432.726 1590.54,287.128 1591.57,292.325 1592.6,443.628 1593.63,450.332 1594.66,316.484 1595.69,323.097 1596.72,417.821 1597.75,427.778 1598.78,418.112 1599.81,422.93 1600.84,305.711 1601.87,315.754 1602.9,394.063 1603.93,401.162 1604.96,318.173 1605.99,322.873 1607.02,416.764 1608.05,423.961 1609.08,416.828 1610.11,423.322 1611.14,395.807 1612.17,401.553 1613.2,172.65 1614.23,178.679 1615.26,215.555 1616.29,223.395 1617.32,386.167 1618.35,392.687 1619.38,377.894 1620.41,386.888 1621.44,344.263 1622.47,354.219 1623.5,257.108 1624.53,268.435 1625.56,293.755 1626.59,303.833 1627.62,256.76 1628.65,267.929 1629.68,229.241 1630.71,239.182 1631.74,305.847 1632.77,313.586 1633.8,389.762 1634.83,394.559 1635.86,370.928 1636.89,379.303 1637.92,411.253 1638.95,423.791 1639.98,288.734 1641.01,292.929 1642.04,328.241 1643.07,334.59 1644.1,479.148 1645.13,484.359 1646.16,368.674 1647.19,380.129 1648.22,343.625 1649.25,349.838 1650.28,291.928 1651.31,295.424 1652.34,328.961 1653.37,334.549 1654.4,390.653 1655.43,399.312 1656.46,222.252 1657.49,230.392 1658.52,456.258 1659.55,463.438 1660.58,238.777 1661.61,246.245 1662.64,432.219 1663.67,437.139 1664.71,301.196 1665.74,308.948 1666.77,389.26 1667.8,397.452 1668.83,438.295 1669.86,443.124 1670.89,538.37 1671.92,543.364 1672.95,335.359 1673.98,344.537 1675.01,510.287 1676.04,516.403 1677.07,362.281 1678.1,369.181 1679.13,299.833 1680.16,305.232 1681.19,218.748 1682.22,226.24 1683.25,428.164 1684.28,434.718 1685.31,432.403 1686.34,437.915 1687.37,284.26 1688.4,292.45 1689.43,410.088 1690.46,415.645 1691.49,374.101 1692.52,379.3 1693.55,348.178 1694.58,354.927 1695.61,341.387 1696.64,346.72 1697.67,331.5 1698.7,339.546 1699.73,340.133 1700.76,346.933 1701.79,369.276 1702.82,376.438 1703.85,241.912 1704.88,249.43 1705.91,387.136 1706.94,397.248 1707.97,406.343 1709,413.771 1710.03,201.829 1711.06,208.046 1712.09,126.474 1713.12,132.231 1714.15,352.397 1715.18,358.964 1716.21,382.116 1717.24,390.655 1718.27,272.626 1719.3,278.79 1720.33,343.99 1721.36,351.92 1722.39,316.828 1723.42,321.11 1724.45,256.707 1725.48,265.94 1726.51,323.718 1727.54,334.639 1728.57,340.675 1729.6,345.471 1730.63,450.912 1731.66,456.137 1732.69,385.291 1733.72,392.642 1734.75,308.999 1735.78,317.451 1736.81,332.663 1737.84,342.275 1738.87,272.936 1739.9,281.07 1740.93,461.829 1741.96,466.736 1742.99,298.975 1744.02,308.026 1745.05,182.284 1746.08,186.981 1747.11,291.318 1748.14,298.885 1749.17,305.296 1750.2,312.555 1751.23,385.451 1752.26,390.134 1753.29,401.945 1754.32,407.786 1755.35,453.734 1756.38,460.406 1757.41,429.96 1758.44,437.311 1759.47,218.84 1760.5,227.03 1761.53,471.203 1762.56,476.445 1763.59,313.875 1764.62,321.842 1765.65,176.225 1766.68,181.689 1767.71,256.662 1768.74,263.775 1769.77,181.246 1770.8,187.006 1771.83,321.186 1772.86,326.948 1773.89,465.836 1774.92,471.317 1775.95,279.683 1776.98,285.044 1778.01,299.587 1779.04,309.297 1780.07,272.984 1781.1,279.285 1782.13,332.404 1783.16,337.971 1784.19,392.18 1785.22,399.609 1786.25,291.886 1787.28,300.395 1788.31,452.171 1789.34,456.686 1790.37,379.894 1791.4,388.797 1792.43,402.998 1793.46,408.803 1794.49,317.809 1795.52,324.58 1796.55,349.776 1797.58,355.442 1798.61,214.149 1799.64,221.848 1800.67,247.621 1801.7,255.529 1802.73,305.373 1803.76,309.096 1804.79,407.462 1805.82,412.735 1806.85,380.53 1807.88,386.587 1808.91,203.874 1809.94,209.832 1810.97,426.629 1812,436.594 1813.03,366.576 1814.06,374.703 1815.09,467.907 1816.12,470.968 1817.15,391.068 1818.18,401.802 1819.21,480.868 1820.24,488.169 1821.27,536.855 1822.3,543.698 1823.33,353.039 1824.36,359.605 1825.39,449.062 1826.42,457.05 1827.45,531.148 1828.48,535 1829.51,541.479 1830.54,545.491 1831.57,441.589 1832.6,448.1 1833.63,392.516 1834.66,401.143 1835.69,355.485 1836.72,361.588 1837.75,338.843 1838.78,345.835 1839.81,215.446 1840.84,223.824 1841.87,396.716 1842.9,401 1843.93,414.495 1844.96,418.992 1845.99,309.609 1847.02,315.585 1848.05,271.471 1849.08,279.289 1850.11,375.69 1851.14,382.758 1852.17,441.876 1853.2,447.947 1854.23,379.31 1855.26,386.927 1856.29,383.183 1857.32,390.654 1858.35,276.231 1859.38,285.646 1860.41,511.8 1861.44,517.105 1862.47,384.244 1863.5,392.97 1864.53,508.677 1865.56,511.734 1866.59,418.361 1867.62,423.97 1868.65,357.463 1869.68,364.06 1870.71,384.354 1871.74,390.86 1872.77,330.514 1873.8,335.924 1874.83,424.264 1875.86,431.615 1876.89,370.673 1877.92,377.439 1878.95,355.292 1879.98,362.434 1881.01,300.342 1882.04,310.188 1883.07,183.33 1884.1,189.225 1885.13,206.646 1886.16,213.602 1887.19,261.956 1888.22,268.514 1889.25,418.409 1890.28,423.066 1891.31,348.818 1892.34,355.86 1893.37,359.048 1894.4,364.182 1895.43,401.556 1896.46,406.669 1897.49,469.054 1898.52,474.907 1899.55,337.556 1900.58,343.666 1901.61,351.372 1902.64,356.595 1903.67,262.313 1904.7,268.783 1905.73,299.652 1906.76,304.933 1907.79,243.132 1908.82,250.777 1909.85,410.908 1910.88,419.874 1911.91,341.886 1912.94,346.505 1913.97,347.421 1915,354.566 1916.03,372.868 1917.06,383.494 1918.09,269.436 1919.12,275.459 1920.15,326.396 1921.18,336.65 1922.21,247.714 1923.24,256.216 1924.27,360.611 1925.3,367.513 1926.33,290.729 1927.36,297.756 1928.39,438.349 1929.42,442.555 1930.45,265.098 1931.48,271.606 1932.51,300.757 1933.54,307.476 1934.57,334.334 1935.6,342.499 1936.63,342.68 1937.66,351.735 1938.69,315.547 1939.72,323.944 1940.75,377.314 1941.78,383.696 1942.81,333.666 1943.84,341.536 1944.87,239.857 1945.9,248.769 1946.93,436.226 1947.96,442.733 1948.99,278.26 1950.02,283.643 1951.05,393.179 1952.08,400.603 1953.11,377.725 1954.14,388.043 1955.17,337.065 1956.2,342.741 1957.23,169.053 1958.26,179.317 1959.29,373.109 1960.32,381.094 1961.35,342.572 1962.38,346.317 1963.41,273.142 1964.44,279.602 1965.47,328.951 1966.5,335.797 1967.53,442.445 1968.56,451.929 1969.59,305.843 1970.62,312.595 1971.65,347.583 1972.68,352.132 1973.71,374.772 1974.74,380.333 1975.77,103.924 1976.8,113.958 1977.83,324.311 1978.86,334.383 1979.89,303.523 1980.92,310.242 1981.95,467.131 1982.98,474.324 1984.01,196.768 1985.04,209.746 1986.07,411.649 1987.1,419.908 1988.13,317.502 1989.16,327.75 1990.19,255.998 1991.22,261.784 1992.25,286.36 1993.28,297.801 1994.31,278.544 1995.34,287.81 1996.37,321.252 1997.4,325.464 1998.43,251.483 1999.46,258.502 2000.49,150.463 2001.52,160.236 2002.55,307.027 2003.58,312.449 2004.61,361.338 2005.64,370.674 2006.67,364.574 2007.7,373.095 2008.73,351.193 2009.76,359.458 2010.79,232.279 2011.82,237.274 2012.85,318.268 2013.88,326.452 2014.91,350.587 2015.94,355.282 2016.97,438.751 2018,443.514 2019.03,171.793 2020.06,176.018 2021.09,257.158 2022.12,263.465 2023.15,235.335 2024.18,240.631 2025.21,319.811 2026.24,326.028 2027.27,537.163 2028.3,542.248 2029.33,380.35 2030.36,387.603 2031.39,284.36 2032.42,289.436 2033.45,356.604 2034.48,365.322 2035.51,482.845 2036.54,487.63 2037.57,117.417 2038.6,124.476 2039.63,231.208 2040.66,237.458 2041.69,488.923 2042.72,495.879 2043.75,214.098 2044.78,229.534 2045.81,309.339 2046.84,321.075 2047.87,382.609 2048.9,391.55 2049.93,402.483 2050.96,411.822 2051.99,358.016 2053.02,364.884 2054.05,276.94 2055.08,283.715 2056.11,195.588 2057.14,200.664 2058.17,168.588 2059.2,178.582 2060.23,276.319 2061.26,283.557 2062.29,454.509 2063.32,459.933 2064.35,456.352 2065.38,463.68 2066.41,237.792 2067.44,244.496 2068.47,184.079 2069.5,195.935 2070.53,321.926 2071.56,328.782 2072.59,326.925 2073.62,335.581 2074.65,338.898 2075.68,343.692 2076.71,373.078 2077.74,380.234 2078.77,262.485 2079.8,270.677 2080.83,281.272 2081.86,289.952 2082.89,406.367 2083.92,412.827 2084.95,253.428 2085.98,266.492 2087.01,319.211 2088.04,324.429 2089.07,285.797 2090.1,292.697 2091.13,338.363 2092.16,342.953 2093.19,365.926 2094.22,371.646 2095.25,339.495 2096.28,346.177 2097.31,326.263 2098.34,334.98 2099.37,387.137 2100.4,396.695 2101.43,90.0938 2102.46,98.0177 2103.49,294.706 2104.52,300.511 2105.55,272.178 2106.58,279.142 2107.61,249.204 2108.64,257.441 2109.67,241.993 2110.7,250.246 2111.73,233.025 2112.76,240.213 2113.79,352.443 2114.82,357.884 2115.85,289.391 2116.88,299.732 2117.91,208.625 2118.94,216.527 2119.97,191.717 2121,200.472 2122.03,411.689 2123.06,417.112 2124.09,401.782 2125.12,408.197 2126.15,274.751 2127.18,285.177 2128.21,209.015 2129.24,219.77 2130.27,241.249 2131.3,245.966 2132.33,480.996 2133.36,486.763 2134.39,438.987 2135.42,443.516 2136.45,330.445 2137.48,336.533 2138.51,488.591 2139.54,495.51 2140.57,392.418 2141.6,397.691 2142.63,435.307 2143.66,444.036 2144.69,257.201 2145.72,265.781 2146.75,197.791 2147.78,204.545 2148.81,251.179 2149.84,260.399 2150.87,351.557 2151.9,357.272 2152.93,474.566 2153.96,479.824 2154.99,348.385 2156.02,353.95 2157.05,418.695 2158.08,424.787 2159.11,168.617 2160.14,179.669 2161.17,491.301 2162.2,498.907 2163.23,349.979 2164.26,357.169 2165.29,483.073 2166.32,486.801 2167.35,317.349 2168.38,323.61 2169.41,362.925 2170.44,370.194 2171.47,363.336 2172.5,369.118 2173.53,387.095 2174.56,394.065 2175.59,367.208 2176.62,372.658 2177.65,481.522 2178.68,486.159 2179.71,354.865 2180.74,359.142 2181.77,436.874 2182.8,447.406 2183.83,353.819 2184.86,360.691 2185.89,337.882 2186.92,342.589 2187.95,360.777 2188.98,368.886 2190.01,336.009 2191.04,344.446 2192.07,301.305 2193.1,310.153 2194.13,450.926 2195.16,456.965 2196.19,445.145 2197.22,449.123 2198.25,471.579 2199.28,478.992 2200.31,318.242 2201.34,325.186 2202.37,311.462 2203.4,321.4 2204.43,467.57 2205.46,473.033 2206.49,302.707 2207.52,306.104 2208.55,399.543 2209.58,407.356 2210.61,384.52 2211.64,390.359 2212.67,288.423 2213.7,295.664 2214.73,267.714 2215.76,276.799 2216.79,240.336 2217.82,247.547 2218.85,333.127 2219.88,343.076 2220.91,531.286 2221.94,535.842 2222.97,416.535 2224,420.395 2225.03,381.198 2226.06,392.571 2227.09,370.104 2228.12,375.188 2229.15,372.354 2230.18,377.346 2231.21,201.31 2232.24,206.826 2233.27,270.333 2234.3,276.997 2235.33,442.83 2236.36,454.957 2237.39,306.258 2238.42,314.493 2239.45,267.036 2240.48,275.263 2241.51,407.97 2242.54,415.823 2243.57,319.667 2244.6,326.434 2245.63,387.743 2246.66,394.501 2247.69,87.9763 2248.72,96.419 2249.75,246.123 2250.78,255.294 2251.81,313.735 2252.84,318.944 2253.87,289.192 2254.9,297.531 2255.93,463.242 2256.96,471.202 2257.99,410.687 2259.02,417.122 2260.05,413.063 2261.08,418.832 2262.11,520.147 2263.14,524.679 2264.17,328.305 2265.2,334.697 2266.23,332.629 2267.26,341.179 2268.29,313.782 2269.32,319.219 2270.35,422.513 2271.38,430.411 2272.41,406.748 2273.44,411.332 2274.47,275.987 2275.5,280.608 2276.53,242.848 2277.56,246.88 2278.59,157.389 2279.62,165.127 2280.65,128.983 2281.68,135.744 2282.71,299.595 2283.74,308.421 2284.77,310.345 2285.8,318.196 2286.83,423.947 2287.86,428.282 2288.89,260.758 2289.92,265.568 2290.95,267.608 "/>
<path clip-path="url(#clip500)" d="M241.909 198.898 L512.703 198.898 L512.703 95.2176 L241.909 95.2176  Z" fill="#ffffff" fill-rule="evenodd" fill-opacity="1"/>
<polyline clip-path="url(#clip500)" style="stroke:#000000; stroke-linecap:round; stroke-linejoin:round; stroke-width:4; stroke-opacity:1; fill:none" points="241.909,198.898 512.703,198.898 512.703,95.2176 241.909,95.2176 241.909,198.898 "/>
<polyline clip-path="url(#clip500)" style="stroke:#009af9; stroke-linecap:round; stroke-linejoin:round; stroke-width:4; stroke-opacity:1; fill:none" points="266.172,147.058 411.747,147.058 "/>
<path clip-path="url(#clip500)" d="M449.853 166.745 Q448.047 171.375 446.334 172.787 Q444.621 174.199 441.751 174.199 L438.348 174.199 L438.348 170.634 L440.848 170.634 Q442.607 170.634 443.579 169.8 Q444.552 168.967 445.732 165.865 L446.496 163.921 L436.01 138.412 L440.524 138.412 L448.626 158.689 L456.727 138.412 L461.241 138.412 L449.853 166.745 Z" fill="#000000" fill-rule="nonzero" fill-opacity="1" /><path clip-path="url(#clip500)" d="M468.533 160.402 L476.172 160.402 L476.172 134.037 L467.862 135.703 L467.862 131.444 L476.126 129.778 L480.801 129.778 L480.801 160.402 L488.44 160.402 L488.44 164.338 L468.533 164.338 L468.533 160.402 Z" fill="#000000" fill-rule="nonzero" fill-opacity="1" /></svg>
