<?xml version="1.0" encoding="utf-8"?>
<svg xmlns="http://www.w3.org/2000/svg" xmlns:xlink="http://www.w3.org/1999/xlink" width="600" height="400" viewBox="0 0 2400 1600">
<defs>
  <clipPath id="clip040">
    <rect x="0" y="0" width="2400" height="1600"/>
  </clipPath>
</defs>
<path clip-path="url(#clip040)" d="M0 1600 L2400 1600 L2400 0 L0 0  Z" fill="#ffffff" fill-rule="evenodd" fill-opacity="1"/>
<defs>
  <clipPath id="clip041">
    <rect x="480" y="0" width="1681" height="1600"/>
  </clipPath>
</defs>
<path clip-path="url(#clip040)" d="M156.598 1486.45 L2352.76 1486.45 L2352.76 47.2441 L156.598 47.2441  Z" fill="#ffffff" fill-rule="evenodd" fill-opacity="1"/>
<defs>
  <clipPath id="clip042">
    <rect x="156" y="47" width="2197" height="1440"/>
  </clipPath>
</defs>
<polyline clip-path="url(#clip042)" style="stroke:#000000; stroke-linecap:round; stroke-linejoin:round; stroke-width:2; stroke-opacity:0.1; fill:none" points="218.754,1486.45 218.754,47.2441 "/>
<polyline clip-path="url(#clip042)" style="stroke:#000000; stroke-linecap:round; stroke-linejoin:round; stroke-width:2; stroke-opacity:0.1; fill:none" points="736.974,1486.45 736.974,47.2441 "/>
<polyline clip-path="url(#clip042)" style="stroke:#000000; stroke-linecap:round; stroke-linejoin:round; stroke-width:2; stroke-opacity:0.1; fill:none" points="1255.2,1486.45 1255.2,47.2441 "/>
<polyline clip-path="url(#clip042)" style="stroke:#000000; stroke-linecap:round; stroke-linejoin:round; stroke-width:2; stroke-opacity:0.1; fill:none" points="1773.42,1486.45 1773.42,47.2441 "/>
<polyline clip-path="url(#clip042)" style="stroke:#000000; stroke-linecap:round; stroke-linejoin:round; stroke-width:2; stroke-opacity:0.1; fill:none" points="2291.64,1486.45 2291.64,47.2441 "/>
<polyline clip-path="url(#clip040)" style="stroke:#000000; stroke-linecap:round; stroke-linejoin:round; stroke-width:4; stroke-opacity:1; fill:none" points="156.598,1486.45 2352.76,1486.45 "/>
<polyline clip-path="url(#clip040)" style="stroke:#000000; stroke-linecap:round; stroke-linejoin:round; stroke-width:4; stroke-opacity:1; fill:none" points="218.754,1486.45 218.754,1467.55 "/>
<polyline clip-path="url(#clip040)" style="stroke:#000000; stroke-linecap:round; stroke-linejoin:round; stroke-width:4; stroke-opacity:1; fill:none" points="736.974,1486.45 736.974,1467.55 "/>
<polyline clip-path="url(#clip040)" style="stroke:#000000; stroke-linecap:round; stroke-linejoin:round; stroke-width:4; stroke-opacity:1; fill:none" points="1255.2,1486.45 1255.2,1467.55 "/>
<polyline clip-path="url(#clip040)" style="stroke:#000000; stroke-linecap:round; stroke-linejoin:round; stroke-width:4; stroke-opacity:1; fill:none" points="1773.42,1486.45 1773.42,1467.55 "/>
<polyline clip-path="url(#clip040)" style="stroke:#000000; stroke-linecap:round; stroke-linejoin:round; stroke-width:4; stroke-opacity:1; fill:none" points="2291.64,1486.45 2291.64,1467.55 "/>
<path clip-path="url(#clip040)" d="M218.754 1517.37 Q215.143 1517.37 213.314 1520.93 Q211.508 1524.47 211.508 1531.6 Q211.508 1538.71 213.314 1542.27 Q215.143 1545.82 218.754 1545.82 Q222.388 1545.82 224.193 1542.27 Q226.022 1538.71 226.022 1531.6 Q226.022 1524.47 224.193 1520.93 Q222.388 1517.37 218.754 1517.37 M218.754 1513.66 Q224.564 1513.66 227.619 1518.27 Q230.698 1522.85 230.698 1531.6 Q230.698 1540.33 227.619 1544.94 Q224.564 1549.52 218.754 1549.52 Q212.943 1549.52 209.865 1544.94 Q206.809 1540.33 206.809 1531.6 Q206.809 1522.85 209.865 1518.27 Q212.943 1513.66 218.754 1513.66 Z" fill="#000000" fill-rule="nonzero" fill-opacity="1" /><path clip-path="url(#clip040)" d="M696.593 1514.29 L714.949 1514.29 L714.949 1518.22 L700.875 1518.22 L700.875 1526.7 Q701.894 1526.35 702.912 1526.19 Q703.931 1526 704.949 1526 Q710.736 1526 714.116 1529.17 Q717.495 1532.34 717.495 1537.76 Q717.495 1543.34 714.023 1546.44 Q710.551 1549.52 704.232 1549.52 Q702.056 1549.52 699.787 1549.15 Q697.542 1548.78 695.134 1548.04 L695.134 1543.34 Q697.218 1544.47 699.44 1545.03 Q701.662 1545.58 704.139 1545.58 Q708.144 1545.58 710.482 1543.48 Q712.82 1541.37 712.82 1537.76 Q712.82 1534.15 710.482 1532.04 Q708.144 1529.94 704.139 1529.94 Q702.264 1529.94 700.389 1530.35 Q698.537 1530.77 696.593 1531.65 L696.593 1514.29 Z" fill="#000000" fill-rule="nonzero" fill-opacity="1" /><path clip-path="url(#clip040)" d="M736.708 1517.37 Q733.097 1517.37 731.268 1520.93 Q729.463 1524.47 729.463 1531.6 Q729.463 1538.71 731.268 1542.27 Q733.097 1545.82 736.708 1545.82 Q740.343 1545.82 742.148 1542.27 Q743.977 1538.71 743.977 1531.6 Q743.977 1524.47 742.148 1520.93 Q740.343 1517.37 736.708 1517.37 M736.708 1513.66 Q742.518 1513.66 745.574 1518.27 Q748.653 1522.85 748.653 1531.6 Q748.653 1540.33 745.574 1544.94 Q742.518 1549.52 736.708 1549.52 Q730.898 1549.52 727.819 1544.94 Q724.764 1540.33 724.764 1531.6 Q724.764 1522.85 727.819 1518.27 Q730.898 1513.66 736.708 1513.66 Z" fill="#000000" fill-rule="nonzero" fill-opacity="1" /><path clip-path="url(#clip040)" d="M766.87 1517.37 Q763.259 1517.37 761.43 1520.93 Q759.625 1524.47 759.625 1531.6 Q759.625 1538.71 761.43 1542.27 Q763.259 1545.82 766.87 1545.82 Q770.504 1545.82 772.31 1542.27 Q774.139 1538.71 774.139 1531.6 Q774.139 1524.47 772.31 1520.93 Q770.504 1517.37 766.87 1517.37 M766.87 1513.66 Q772.68 1513.66 775.736 1518.27 Q778.815 1522.85 778.815 1531.6 Q778.815 1540.33 775.736 1544.94 Q772.68 1549.52 766.87 1549.52 Q761.06 1549.52 757.981 1544.94 Q754.926 1540.33 754.926 1531.6 Q754.926 1522.85 757.981 1518.27 Q761.06 1513.66 766.87 1513.66 Z" fill="#000000" fill-rule="nonzero" fill-opacity="1" /><path clip-path="url(#clip040)" d="M1199.72 1544.91 L1207.36 1544.91 L1207.36 1518.55 L1199.05 1520.21 L1199.05 1515.95 L1207.31 1514.29 L1211.99 1514.29 L1211.99 1544.91 L1219.63 1544.91 L1219.63 1548.85 L1199.72 1548.85 L1199.72 1544.91 Z" fill="#000000" fill-rule="nonzero" fill-opacity="1" /><path clip-path="url(#clip040)" d="M1239.07 1517.37 Q1235.46 1517.37 1233.63 1520.93 Q1231.83 1524.47 1231.83 1531.6 Q1231.83 1538.71 1233.63 1542.27 Q1235.46 1545.82 1239.07 1545.82 Q1242.71 1545.82 1244.51 1542.27 Q1246.34 1538.71 1246.34 1531.6 Q1246.34 1524.47 1244.51 1520.93 Q1242.71 1517.37 1239.07 1517.37 M1239.07 1513.66 Q1244.88 1513.66 1247.94 1518.27 Q1251.02 1522.85 1251.02 1531.6 Q1251.02 1540.33 1247.94 1544.94 Q1244.88 1549.52 1239.07 1549.52 Q1233.26 1549.52 1230.18 1544.94 Q1227.13 1540.33 1227.13 1531.6 Q1227.13 1522.85 1230.18 1518.27 Q1233.26 1513.66 1239.07 1513.66 Z" fill="#000000" fill-rule="nonzero" fill-opacity="1" /><path clip-path="url(#clip040)" d="M1269.23 1517.37 Q1265.62 1517.37 1263.79 1520.93 Q1261.99 1524.47 1261.99 1531.6 Q1261.99 1538.71 1263.79 1542.27 Q1265.62 1545.82 1269.23 1545.82 Q1272.87 1545.82 1274.67 1542.27 Q1276.5 1538.71 1276.5 1531.6 Q1276.5 1524.47 1274.67 1520.93 Q1272.87 1517.37 1269.23 1517.37 M1269.23 1513.66 Q1275.04 1513.66 1278.1 1518.27 Q1281.18 1522.85 1281.18 1531.6 Q1281.18 1540.33 1278.1 1544.94 Q1275.04 1549.52 1269.23 1549.52 Q1263.42 1549.52 1260.35 1544.94 Q1257.29 1540.33 1257.29 1531.6 Q1257.29 1522.85 1260.35 1518.27 Q1263.42 1513.66 1269.23 1513.66 Z" fill="#000000" fill-rule="nonzero" fill-opacity="1" /><path clip-path="url(#clip040)" d="M1299.4 1517.37 Q1295.79 1517.37 1293.96 1520.93 Q1292.15 1524.47 1292.15 1531.6 Q1292.15 1538.71 1293.96 1542.27 Q1295.79 1545.82 1299.4 1545.82 Q1303.03 1545.82 1304.84 1542.27 Q1306.66 1538.71 1306.66 1531.6 Q1306.66 1524.47 1304.84 1520.93 Q1303.03 1517.37 1299.4 1517.37 M1299.4 1513.66 Q1305.21 1513.66 1308.26 1518.27 Q1311.34 1522.85 1311.34 1531.6 Q1311.34 1540.33 1308.26 1544.94 Q1305.21 1549.52 1299.4 1549.52 Q1293.59 1549.52 1290.51 1544.94 Q1287.45 1540.33 1287.45 1531.6 Q1287.45 1522.85 1290.51 1518.27 Q1293.59 1513.66 1299.4 1513.66 Z" fill="#000000" fill-rule="nonzero" fill-opacity="1" /><path clip-path="url(#clip040)" d="M1717.94 1544.91 L1725.58 1544.91 L1725.58 1518.55 L1717.27 1520.21 L1717.27 1515.95 L1725.53 1514.29 L1730.21 1514.29 L1730.21 1544.91 L1737.85 1544.91 L1737.85 1548.85 L1717.94 1548.85 L1717.94 1544.91 Z" fill="#000000" fill-rule="nonzero" fill-opacity="1" /><path clip-path="url(#clip040)" d="M1747.34 1514.29 L1765.7 1514.29 L1765.7 1518.22 L1751.62 1518.22 L1751.62 1526.7 Q1752.64 1526.35 1753.66 1526.19 Q1754.68 1526 1755.7 1526 Q1761.48 1526 1764.86 1529.17 Q1768.24 1532.34 1768.24 1537.76 Q1768.24 1543.34 1764.77 1546.44 Q1761.3 1549.52 1754.98 1549.52 Q1752.8 1549.52 1750.53 1549.15 Q1748.29 1548.78 1745.88 1548.04 L1745.88 1543.34 Q1747.96 1544.47 1750.19 1545.03 Q1752.41 1545.58 1754.89 1545.58 Q1758.89 1545.58 1761.23 1543.48 Q1763.57 1541.37 1763.57 1537.76 Q1763.57 1534.15 1761.23 1532.04 Q1758.89 1529.94 1754.89 1529.94 Q1753.01 1529.94 1751.14 1530.35 Q1749.28 1530.77 1747.34 1531.65 L1747.34 1514.29 Z" fill="#000000" fill-rule="nonzero" fill-opacity="1" /><path clip-path="url(#clip040)" d="M1787.46 1517.37 Q1783.84 1517.37 1782.02 1520.93 Q1780.21 1524.47 1780.21 1531.6 Q1780.21 1538.71 1782.02 1542.27 Q1783.84 1545.82 1787.46 1545.82 Q1791.09 1545.82 1792.9 1542.27 Q1794.72 1538.71 1794.72 1531.6 Q1794.72 1524.47 1792.9 1520.93 Q1791.09 1517.37 1787.46 1517.37 M1787.46 1513.66 Q1793.27 1513.66 1796.32 1518.27 Q1799.4 1522.85 1799.4 1531.6 Q1799.4 1540.33 1796.32 1544.94 Q1793.27 1549.52 1787.46 1549.52 Q1781.65 1549.52 1778.57 1544.94 Q1775.51 1540.33 1775.51 1531.6 Q1775.51 1522.85 1778.57 1518.27 Q1781.65 1513.66 1787.46 1513.66 Z" fill="#000000" fill-rule="nonzero" fill-opacity="1" /><path clip-path="url(#clip040)" d="M1817.62 1517.37 Q1814.01 1517.37 1812.18 1520.93 Q1810.37 1524.47 1810.37 1531.6 Q1810.37 1538.71 1812.18 1542.27 Q1814.01 1545.82 1817.62 1545.82 Q1821.25 1545.82 1823.06 1542.27 Q1824.89 1538.71 1824.89 1531.6 Q1824.89 1524.47 1823.06 1520.93 Q1821.25 1517.37 1817.62 1517.37 M1817.62 1513.66 Q1823.43 1513.66 1826.48 1518.27 Q1829.56 1522.85 1829.56 1531.6 Q1829.56 1540.33 1826.48 1544.94 Q1823.43 1549.52 1817.62 1549.52 Q1811.81 1549.52 1808.73 1544.94 Q1805.67 1540.33 1805.67 1531.6 Q1805.67 1522.85 1808.73 1518.27 Q1811.81 1513.66 1817.62 1513.66 Z" fill="#000000" fill-rule="nonzero" fill-opacity="1" /><path clip-path="url(#clip040)" d="M2240.25 1544.91 L2256.57 1544.91 L2256.57 1548.85 L2234.62 1548.85 L2234.62 1544.91 Q2237.29 1542.16 2241.87 1537.53 Q2246.48 1532.88 2247.66 1531.53 Q2249.9 1529.01 2250.78 1527.27 Q2251.68 1525.51 2251.68 1523.82 Q2251.68 1521.07 2249.74 1519.33 Q2247.82 1517.6 2244.72 1517.6 Q2242.52 1517.6 2240.06 1518.36 Q2237.63 1519.13 2234.85 1520.68 L2234.85 1515.95 Q2237.68 1514.82 2240.13 1514.24 Q2242.59 1513.66 2244.62 1513.66 Q2249.99 1513.66 2253.19 1516.35 Q2256.38 1519.03 2256.38 1523.52 Q2256.38 1525.65 2255.57 1527.57 Q2254.79 1529.47 2252.68 1532.07 Q2252.1 1532.74 2249 1535.95 Q2245.9 1539.15 2240.25 1544.91 Z" fill="#000000" fill-rule="nonzero" fill-opacity="1" /><path clip-path="url(#clip040)" d="M2276.38 1517.37 Q2272.77 1517.37 2270.94 1520.93 Q2269.14 1524.47 2269.14 1531.6 Q2269.14 1538.71 2270.94 1542.27 Q2272.77 1545.82 2276.38 1545.82 Q2280.02 1545.82 2281.82 1542.27 Q2283.65 1538.71 2283.65 1531.6 Q2283.65 1524.47 2281.82 1520.93 Q2280.02 1517.37 2276.38 1517.37 M2276.38 1513.66 Q2282.19 1513.66 2285.25 1518.27 Q2288.33 1522.85 2288.33 1531.6 Q2288.33 1540.33 2285.25 1544.94 Q2282.19 1549.52 2276.38 1549.52 Q2270.57 1549.52 2267.49 1544.94 Q2264.44 1540.33 2264.44 1531.6 Q2264.44 1522.85 2267.49 1518.27 Q2270.57 1513.66 2276.38 1513.66 Z" fill="#000000" fill-rule="nonzero" fill-opacity="1" /><path clip-path="url(#clip040)" d="M2306.54 1517.37 Q2302.93 1517.37 2301.1 1520.93 Q2299.3 1524.47 2299.3 1531.6 Q2299.3 1538.71 2301.1 1542.27 Q2302.93 1545.82 2306.54 1545.82 Q2310.18 1545.82 2311.98 1542.27 Q2313.81 1538.71 2313.81 1531.6 Q2313.81 1524.47 2311.98 1520.93 Q2310.18 1517.37 2306.54 1517.37 M2306.54 1513.66 Q2312.35 1513.66 2315.41 1518.27 Q2318.49 1522.85 2318.49 1531.6 Q2318.49 1540.33 2315.41 1544.94 Q2312.35 1549.52 2306.54 1549.52 Q2300.73 1549.52 2297.66 1544.94 Q2294.6 1540.33 2294.6 1531.6 Q2294.6 1522.85 2297.66 1518.27 Q2300.73 1513.66 2306.54 1513.66 Z" fill="#000000" fill-rule="nonzero" fill-opacity="1" /><path clip-path="url(#clip040)" d="M2336.71 1517.37 Q2333.1 1517.37 2331.27 1520.93 Q2329.46 1524.47 2329.46 1531.6 Q2329.46 1538.71 2331.27 1542.27 Q2333.1 1545.82 2336.71 1545.82 Q2340.34 1545.82 2342.15 1542.27 Q2343.97 1538.71 2343.97 1531.6 Q2343.97 1524.47 2342.15 1520.93 Q2340.34 1517.37 2336.71 1517.37 M2336.71 1513.66 Q2342.52 1513.66 2345.57 1518.27 Q2348.65 1522.85 2348.65 1531.6 Q2348.65 1540.33 2345.57 1544.94 Q2342.52 1549.52 2336.71 1549.52 Q2330.9 1549.52 2327.82 1544.94 Q2324.76 1540.33 2324.76 1531.6 Q2324.76 1522.85 2327.82 1518.27 Q2330.9 1513.66 2336.71 1513.66 Z" fill="#000000" fill-rule="nonzero" fill-opacity="1" /><polyline clip-path="url(#clip042)" style="stroke:#000000; stroke-linecap:round; stroke-linejoin:round; stroke-width:2; stroke-opacity:0.1; fill:none" points="156.598,1203.93 2352.76,1203.93 "/>
<polyline clip-path="url(#clip042)" style="stroke:#000000; stroke-linecap:round; stroke-linejoin:round; stroke-width:2; stroke-opacity:0.1; fill:none" points="156.598,831.943 2352.76,831.943 "/>
<polyline clip-path="url(#clip042)" style="stroke:#000000; stroke-linecap:round; stroke-linejoin:round; stroke-width:2; stroke-opacity:0.1; fill:none" points="156.598,459.96 2352.76,459.96 "/>
<polyline clip-path="url(#clip042)" style="stroke:#000000; stroke-linecap:round; stroke-linejoin:round; stroke-width:2; stroke-opacity:0.1; fill:none" points="156.598,87.9763 2352.76,87.9763 "/>
<polyline clip-path="url(#clip040)" style="stroke:#000000; stroke-linecap:round; stroke-linejoin:round; stroke-width:4; stroke-opacity:1; fill:none" points="156.598,1486.45 156.598,47.2441 "/>
<polyline clip-path="url(#clip040)" style="stroke:#000000; stroke-linecap:round; stroke-linejoin:round; stroke-width:4; stroke-opacity:1; fill:none" points="156.598,1203.93 175.496,1203.93 "/>
<polyline clip-path="url(#clip040)" style="stroke:#000000; stroke-linecap:round; stroke-linejoin:round; stroke-width:4; stroke-opacity:1; fill:none" points="156.598,831.943 175.496,831.943 "/>
<polyline clip-path="url(#clip040)" style="stroke:#000000; stroke-linecap:round; stroke-linejoin:round; stroke-width:4; stroke-opacity:1; fill:none" points="156.598,459.96 175.496,459.96 "/>
<polyline clip-path="url(#clip040)" style="stroke:#000000; stroke-linecap:round; stroke-linejoin:round; stroke-width:4; stroke-opacity:1; fill:none" points="156.598,87.9763 175.496,87.9763 "/>
<path clip-path="url(#clip040)" d="M64.0708 1189.73 Q60.4597 1189.73 58.631 1193.29 Q56.8254 1196.83 56.8254 1203.96 Q56.8254 1211.07 58.631 1214.63 Q60.4597 1218.17 64.0708 1218.17 Q67.705 1218.17 69.5105 1214.63 Q71.3392 1211.07 71.3392 1203.96 Q71.3392 1196.83 69.5105 1193.29 Q67.705 1189.73 64.0708 1189.73 M64.0708 1186.02 Q69.8809 1186.02 72.9365 1190.63 Q76.0151 1195.21 76.0151 1203.96 Q76.0151 1212.69 72.9365 1217.29 Q69.8809 1221.88 64.0708 1221.88 Q58.2606 1221.88 55.1819 1217.29 Q52.1264 1212.69 52.1264 1203.96 Q52.1264 1195.21 55.1819 1190.63 Q58.2606 1186.02 64.0708 1186.02 Z" fill="#000000" fill-rule="nonzero" fill-opacity="1" /><path clip-path="url(#clip040)" d="M84.2327 1215.33 L89.1169 1215.33 L89.1169 1221.21 L84.2327 1221.21 L84.2327 1215.33 Z" fill="#000000" fill-rule="nonzero" fill-opacity="1" /><path clip-path="url(#clip040)" d="M113.469 1202.57 Q116.825 1203.29 118.7 1205.56 Q120.598 1207.83 120.598 1211.16 Q120.598 1216.28 117.08 1219.08 Q113.561 1221.88 107.08 1221.88 Q104.904 1221.88 102.589 1221.44 Q100.297 1221.02 97.8437 1220.16 L97.8437 1215.65 Q99.7882 1216.79 102.103 1217.36 Q104.418 1217.94 106.941 1217.94 Q111.339 1217.94 113.631 1216.21 Q115.945 1214.47 115.945 1211.16 Q115.945 1208.1 113.793 1206.39 Q111.663 1204.66 107.844 1204.66 L103.816 1204.66 L103.816 1200.81 L108.029 1200.81 Q111.478 1200.81 113.307 1199.45 Q115.135 1198.06 115.135 1195.47 Q115.135 1192.8 113.237 1191.39 Q111.362 1189.96 107.844 1189.96 Q105.922 1189.96 103.723 1190.37 Q101.524 1190.79 98.8854 1191.67 L98.8854 1187.5 Q101.547 1186.76 103.862 1186.39 Q106.2 1186.02 108.26 1186.02 Q113.584 1186.02 116.686 1188.45 Q119.788 1190.86 119.788 1194.98 Q119.788 1197.85 118.145 1199.84 Q116.501 1201.81 113.469 1202.57 Z" fill="#000000" fill-rule="nonzero" fill-opacity="1" /><path clip-path="url(#clip040)" d="M62.9365 817.742 Q59.3254 817.742 57.4967 821.307 Q55.6912 824.848 55.6912 831.978 Q55.6912 839.084 57.4967 842.649 Q59.3254 846.191 62.9365 846.191 Q66.5707 846.191 68.3763 842.649 Q70.205 839.084 70.205 831.978 Q70.205 824.848 68.3763 821.307 Q66.5707 817.742 62.9365 817.742 M62.9365 814.038 Q68.7467 814.038 71.8022 818.645 Q74.8809 823.228 74.8809 831.978 Q74.8809 840.705 71.8022 845.311 Q68.7467 849.894 62.9365 849.894 Q57.1264 849.894 54.0477 845.311 Q50.9921 840.705 50.9921 831.978 Q50.9921 823.228 54.0477 818.645 Q57.1264 814.038 62.9365 814.038 Z" fill="#000000" fill-rule="nonzero" fill-opacity="1" /><path clip-path="url(#clip040)" d="M83.0984 843.343 L87.9827 843.343 L87.9827 849.223 L83.0984 849.223 L83.0984 843.343 Z" fill="#000000" fill-rule="nonzero" fill-opacity="1" /><path clip-path="url(#clip040)" d="M111.015 818.737 L99.2095 837.186 L111.015 837.186 L111.015 818.737 M109.788 814.663 L115.668 814.663 L115.668 837.186 L120.598 837.186 L120.598 841.075 L115.668 841.075 L115.668 849.223 L111.015 849.223 L111.015 841.075 L95.4132 841.075 L95.4132 836.561 L109.788 814.663 Z" fill="#000000" fill-rule="nonzero" fill-opacity="1" /><path clip-path="url(#clip040)" d="M64.418 445.758 Q60.8069 445.758 58.9782 449.323 Q57.1726 452.865 57.1726 459.994 Q57.1726 467.101 58.9782 470.666 Q60.8069 474.207 64.418 474.207 Q68.0522 474.207 69.8578 470.666 Q71.6865 467.101 71.6865 459.994 Q71.6865 452.865 69.8578 449.323 Q68.0522 445.758 64.418 445.758 M64.418 442.055 Q70.2281 442.055 73.2837 446.661 Q76.3624 451.244 76.3624 459.994 Q76.3624 468.721 73.2837 473.328 Q70.2281 477.911 64.418 477.911 Q58.6078 477.911 55.5291 473.328 Q52.4736 468.721 52.4736 459.994 Q52.4736 451.244 55.5291 446.661 Q58.6078 442.055 64.418 442.055 Z" fill="#000000" fill-rule="nonzero" fill-opacity="1" /><path clip-path="url(#clip040)" d="M84.5799 471.36 L89.4641 471.36 L89.4641 477.24 L84.5799 477.24 L84.5799 471.36 Z" fill="#000000" fill-rule="nonzero" fill-opacity="1" /><path clip-path="url(#clip040)" d="M99.6956 442.68 L118.052 442.68 L118.052 446.615 L103.978 446.615 L103.978 455.087 Q104.996 454.74 106.015 454.578 Q107.033 454.393 108.052 454.393 Q113.839 454.393 117.219 457.564 Q120.598 460.735 120.598 466.152 Q120.598 471.73 117.126 474.832 Q113.654 477.911 107.334 477.911 Q105.159 477.911 102.89 477.541 Q100.645 477.17 98.2372 476.429 L98.2372 471.73 Q100.321 472.865 102.543 473.42 Q104.765 473.976 107.242 473.976 Q111.246 473.976 113.584 471.869 Q115.922 469.763 115.922 466.152 Q115.922 462.541 113.584 460.434 Q111.246 458.328 107.242 458.328 Q105.367 458.328 103.492 458.744 Q101.64 459.161 99.6956 460.041 L99.6956 442.68 Z" fill="#000000" fill-rule="nonzero" fill-opacity="1" /><path clip-path="url(#clip040)" d="M63.2606 73.775 Q59.6495 73.775 57.8208 77.3398 Q56.0152 80.8814 56.0152 88.011 Q56.0152 95.1174 57.8208 98.6822 Q59.6495 102.224 63.2606 102.224 Q66.8948 102.224 68.7004 98.6822 Q70.5291 95.1174 70.5291 88.011 Q70.5291 80.8814 68.7004 77.3398 Q66.8948 73.775 63.2606 73.775 M63.2606 70.0713 Q69.0707 70.0713 72.1263 74.6777 Q75.205 79.261 75.205 88.011 Q75.205 96.7378 72.1263 101.344 Q69.0707 105.928 63.2606 105.928 Q57.4504 105.928 54.3717 101.344 Q51.3162 96.7378 51.3162 88.011 Q51.3162 79.261 54.3717 74.6777 Q57.4504 70.0713 63.2606 70.0713 Z" fill="#000000" fill-rule="nonzero" fill-opacity="1" /><path clip-path="url(#clip040)" d="M83.4225 99.3767 L88.3067 99.3767 L88.3067 105.256 L83.4225 105.256 L83.4225 99.3767 Z" fill="#000000" fill-rule="nonzero" fill-opacity="1" /><path clip-path="url(#clip040)" d="M109.071 86.1129 Q105.922 86.1129 104.071 88.2656 Q102.242 90.4184 102.242 94.1684 Q102.242 97.8952 104.071 100.071 Q105.922 102.224 109.071 102.224 Q112.219 102.224 114.047 100.071 Q115.899 97.8952 115.899 94.1684 Q115.899 90.4184 114.047 88.2656 Q112.219 86.1129 109.071 86.1129 M118.353 71.4602 L118.353 75.7194 Q116.594 74.8861 114.788 74.4463 Q113.006 74.0064 111.246 74.0064 Q106.617 74.0064 104.163 77.1314 Q101.733 80.2564 101.385 86.5758 Q102.751 84.5619 104.811 83.4971 Q106.871 82.4092 109.348 82.4092 Q114.557 82.4092 117.566 85.5805 Q120.598 88.7286 120.598 94.1684 Q120.598 99.4924 117.45 102.71 Q114.302 105.928 109.071 105.928 Q103.075 105.928 99.9039 101.344 Q96.7326 96.7378 96.7326 88.011 Q96.7326 79.8166 100.621 74.9555 Q104.51 70.0713 111.061 70.0713 Q112.82 70.0713 114.603 70.4185 Q116.408 70.7657 118.353 71.4602 Z" fill="#000000" fill-rule="nonzero" fill-opacity="1" /><polyline clip-path="url(#clip042)" style="stroke:#009af9; stroke-linecap:round; stroke-linejoin:round; stroke-width:4; stroke-opacity:1; fill:none" points="218.754,87.9763 219.79,924.939 220.827,813.344 221.863,943.538 222.899,1073.73 223.936,980.736 224.972,924.939 226.009,1315.52 227.045,1055.13 228.082,1148.13 229.118,1017.93 230.154,924.939 231.191,999.336 232.227,906.34 233.264,1017.93 234.3,1110.93 235.337,1092.33 236.373,980.736 237.41,813.344 238.446,980.736 239.482,1036.53 240.519,869.141 241.555,924.939 242.592,887.741 243.628,924.939 244.665,962.137 245.701,794.745 246.738,1222.53 247.774,1203.93 248.81,1110.93 249.847,999.336 250.883,1129.53 251.92,924.939 252.956,1092.33 253.993,1148.13 255.029,1185.33 256.066,1073.73 257.102,850.542 258.138,813.344 259.175,794.745 260.211,1129.53 261.248,776.146 262.284,776.146 263.321,1148.13 264.357,794.745 265.394,813.344 266.43,1073.73 267.466,962.137 268.503,1110.93 269.539,906.34 270.576,1259.72 271.612,980.736 272.649,962.137 273.685,1036.53 274.721,980.736 275.758,1148.13 276.794,980.736 277.831,999.336 278.867,999.336 279.904,1445.72 280.94,906.34 281.977,1055.13 283.013,1148.13 284.049,1203.93 285.086,1017.93 286.122,1055.13 287.159,999.336 288.195,1017.93 289.232,999.336 290.268,1092.33 291.305,1073.73 292.341,980.736 293.377,1055.13 294.414,1036.53 295.45,887.741 296.487,1055.13 297.523,1036.53 298.56,1278.32 299.596,1129.53 300.633,1073.73 301.669,980.736 302.705,924.939 303.742,1036.53 304.778,1241.12 305.815,738.947 306.851,850.542 307.888,1110.93 308.924,831.943 309.961,924.939 310.997,887.741 312.033,1017.93 313.07,962.137 314.106,943.538 315.143,776.146 316.179,943.538 317.216,1036.53 318.252,980.736 319.288,887.741 320.325,1036.53 321.361,887.741 322.398,831.943 323.434,980.736 324.471,831.943 325.507,906.34 326.544,1036.53 327.58,906.34 328.616,1017.93 329.653,813.344 330.689,1055.13 331.726,906.34 332.762,1129.53 333.799,962.137 334.835,906.34 335.872,1017.93 336.908,906.34 337.944,1148.13 338.981,1055.13 340.017,1110.93 341.054,850.542 342.09,980.736 343.127,943.538 344.163,869.141 345.2,1185.33 346.236,869.141 347.272,887.741 348.309,869.141 349.345,1129.53 350.382,999.336 351.418,943.538 352.455,924.939 353.491,980.736 354.527,1055.13 355.564,813.344 356.6,1036.53 357.637,831.943 358.673,1203.93 359.71,943.538 360.746,943.538 361.783,794.745 362.819,980.736 363.855,999.336 364.892,813.344 365.928,1017.93 366.965,962.137 368.001,701.749 369.038,1073.73 370.074,1036.53 371.111,980.736 372.147,943.538 373.183,980.736 374.22,999.336 375.256,1073.73 376.293,980.736 377.329,1073.73 378.366,1073.73 379.402,1017.93 380.439,1166.73 381.475,1055.13 382.511,887.741 383.548,962.137 384.584,924.939 385.621,831.943 386.657,1036.53 387.694,757.546 388.73,887.741 389.767,831.943 390.803,831.943 391.839,906.34 392.876,1017.93 393.912,1222.53 394.949,1148.13 395.985,1110.93 397.022,962.137 398.058,943.538 399.094,1110.93 400.131,924.939 401.167,1017.93 402.204,962.137 403.24,887.741 404.277,869.141 405.313,1036.53 406.35,757.546 407.386,980.736 408.422,999.336 409.459,980.736 410.495,738.947 411.532,1017.93 412.568,757.546 413.605,980.736 414.641,1055.13 415.678,850.542 416.714,794.745 417.75,924.939 418.787,887.741 419.823,1110.93 420.86,943.538 421.896,1185.33 422.933,1092.33 423.969,720.348 425.006,1129.53 426.042,813.344 427.078,980.736 428.115,980.736 429.151,887.741 430.188,850.542 431.224,813.344 432.261,813.344 433.297,683.15 434.334,1073.73 435.37,497.158 436.406,683.15 437.443,943.538 438.479,1110.93 439.516,1148.13 440.552,943.538 441.589,1092.33 442.625,850.542 443.661,1017.93 444.698,1092.33 445.734,794.745 446.771,1073.73 447.807,999.336 448.844,1036.53 449.88,962.137 450.917,924.939 451.953,962.137 452.989,906.34 454.026,1092.33 455.062,757.546 456.099,924.939 457.135,1017.93 458.172,869.141 459.208,1092.33 460.245,813.344 461.281,1073.73 462.317,999.336 463.354,776.146 464.39,794.745 465.427,962.137 466.463,999.336 467.5,813.344 468.536,924.939 469.573,906.34 470.609,943.538 471.645,962.137 472.682,906.34 473.718,999.336 474.755,906.34 475.791,869.141 476.828,943.538 477.864,887.741 478.9,1017.93 479.937,1055.13 480.973,1055.13 482.01,776.146 483.046,1055.13 484.083,1129.53 485.119,906.34 486.156,813.344 487.192,701.749 488.228,906.34 489.265,850.542 490.301,776.146 491.338,831.943 492.374,831.943 493.411,943.538 494.447,869.141 495.484,757.546 496.52,1073.73 497.556,943.538 498.593,943.538 499.629,999.336 500.666,850.542 501.702,943.538 502.739,1073.73 503.775,813.344 504.812,906.34 505.848,683.15 506.884,1073.73 507.921,1092.33 508.957,906.34 509.994,1055.13 511.03,999.336 512.067,869.141 513.103,962.137 514.14,757.546 515.176,813.344 516.212,720.348 517.249,831.943 518.285,924.939 519.322,757.546 520.358,1055.13 521.395,962.137 522.431,999.336 523.467,831.943 524.504,924.939 525.54,943.538 526.577,1036.53 527.613,869.141 528.65,813.344 529.686,831.943 530.723,813.344 531.759,943.538 532.795,924.939 533.832,1129.53 534.868,831.943 535.905,887.741 536.941,1073.73 537.978,850.542 539.014,869.141 540.051,1017.93 541.087,943.538 542.123,776.146 543.16,924.939 544.196,980.736 545.233,850.542 546.269,776.146 547.306,962.137 548.342,664.551 549.379,1036.53 550.415,757.546 551.451,813.344 552.488,850.542 553.524,1017.93 554.561,794.745 555.597,943.538 556.634,887.741 557.67,869.141 558.707,1017.93 559.743,813.344 560.779,1203.93 561.816,924.939 562.852,813.344 563.889,962.137 564.925,757.546 565.962,924.939 566.998,776.146 568.034,1055.13 569.071,980.736 570.107,924.939 571.144,1017.93 572.18,813.344 573.217,813.344 574.253,1055.13 575.29,962.137 576.326,943.538 577.362,850.542 578.399,831.943 579.435,887.741 580.472,1055.13 581.508,906.34 582.545,980.736 583.581,980.736 584.618,1110.93 585.654,962.137 586.69,906.34 587.727,683.15 588.763,757.546 589.8,738.947 590.836,962.137 591.873,924.939 592.909,906.34 593.946,924.939 594.982,1055.13 596.018,1148.13 597.055,813.344 598.091,906.34 599.128,1092.33 600.164,924.939 601.201,1166.73 602.237,813.344 603.273,1055.13 604.31,869.141 605.346,962.137 606.383,924.939 607.419,813.344 608.456,850.542 609.492,924.939 610.529,980.736 611.565,980.736 612.601,924.939 613.638,1203.93 614.674,869.141 615.711,887.741 616.747,794.745 617.784,943.538 618.82,943.538 619.857,887.741 620.893,906.34 621.929,906.34 622.966,813.344 624.002,1036.53 625.039,943.538 626.075,1110.93 627.112,924.939 628.148,1055.13 629.185,962.137 630.221,776.146 631.257,645.951 632.294,1036.53 633.33,1073.73 634.367,887.741 635.403,869.141 636.44,1073.73 637.476,738.947 638.513,1110.93 639.549,924.939 640.585,1110.93 641.622,794.745 642.658,869.141 643.695,999.336 644.731,683.15 645.768,850.542 646.804,980.736 647.84,1017.93 648.877,1036.53 649.913,1017.93 650.95,645.951 651.986,1055.13 653.023,1073.73 654.059,1055.13 655.096,999.336 656.132,1017.93 657.168,1110.93 658.205,757.546 659.241,720.348 660.278,794.745 661.314,906.34 662.351,794.745 663.387,813.344 664.424,701.749 665.46,850.542 666.496,831.943 667.533,887.741 668.569,887.741 669.606,757.546 670.642,794.745 671.679,720.348 672.715,776.146 673.752,999.336 674.788,831.943 675.824,869.141 676.861,980.736 677.897,757.546 678.934,869.141 679.97,943.538 681.007,813.344 682.043,906.34 683.079,999.336 684.116,943.538 685.152,869.141 686.189,943.538 687.225,924.939 688.262,962.137 689.298,720.348 690.335,962.137 691.371,701.749 692.407,738.947 693.444,869.141 694.48,980.736 695.517,869.141 696.553,831.943 697.59,1129.53 698.626,1129.53 699.663,869.141 700.699,757.546 701.735,999.336 702.772,590.154 703.808,943.538 704.845,831.943 705.881,1036.53 706.918,906.34 707.954,924.939 708.991,813.344 710.027,906.34 711.063,1073.73 712.1,962.137 713.136,906.34 714.173,701.749 715.209,980.736 716.246,794.745 717.282,1036.53 718.319,887.741 719.355,906.34 720.391,906.34 721.428,924.939 722.464,701.749 723.501,683.15 724.537,1129.53 725.574,701.749 726.61,1017.93 727.646,869.141 728.683,924.939 729.719,906.34 730.756,441.361 731.792,831.943 732.829,980.736 733.865,794.745 734.902,794.745 735.938,831.943 736.974,1148.13 738.011,924.939 739.047,813.344 740.084,701.749 741.12,962.137 742.157,869.141 743.193,943.538 744.23,776.146 745.266,757.546 746.302,869.141 747.339,850.542 748.375,962.137 749.412,869.141 750.448,1017.93 751.485,1110.93 752.521,701.749 753.558,850.542 754.594,1017.93 755.63,924.939 756.667,776.146 757.703,738.947 758.74,831.943 759.776,813.344 760.813,813.344 761.849,1017.93 762.886,850.542 763.922,1166.73 764.958,869.141 765.995,980.736 767.031,999.336 768.068,980.736 769.104,757.546 770.141,664.551 771.177,980.736 772.213,850.542 773.25,1017.93 774.286,720.348 775.323,906.34 776.359,831.943 777.396,1036.53 778.432,701.749 779.469,850.542 780.505,683.15 781.541,738.947 782.578,924.939 783.614,906.34 784.651,757.546 785.687,869.141 786.724,906.34 787.76,776.146 788.797,831.943 789.833,831.943 790.869,645.951 791.906,924.939 792.942,571.555 793.979,999.336 795.015,757.546 796.052,850.542 797.088,645.951 798.125,924.939 799.161,869.141 800.197,962.137 801.234,1055.13 802.27,720.348 803.307,701.749 804.343,999.336 805.38,1055.13 806.416,720.348 807.452,776.146 808.489,1203.93 809.525,776.146 810.562,962.137 811.598,869.141 812.635,906.34 813.671,869.141 814.708,906.34 815.744,738.947 816.78,831.943 817.817,906.34 818.853,720.348 819.89,794.745 820.926,776.146 821.963,869.141 822.999,887.741 824.036,850.542 825.072,627.352 826.108,1055.13 827.145,887.741 828.181,924.939 829.218,850.542 830.254,850.542 831.291,701.749 832.327,738.947 833.364,924.939 834.4,906.34 835.436,869.141 836.473,701.749 837.509,962.137 838.546,738.947 839.582,943.538 840.619,757.546 841.655,831.943 842.692,1073.73 843.728,627.352 844.764,813.344 845.801,887.741 846.837,924.939 847.874,720.348 848.91,906.34 849.947,924.939 850.983,590.154 852.019,887.741 853.056,552.956 854.092,831.943 855.129,831.943 856.165,850.542 857.202,869.141 858.238,980.736 859.275,1017.93 860.311,924.939 861.347,1055.13 862.384,794.745 863.42,683.15 864.457,590.154 865.493,924.939 866.53,683.15 867.566,794.745 868.603,831.943 869.639,906.34 870.675,627.352 871.712,869.141 872.748,534.356 873.785,590.154 874.821,980.736 875.858,794.745 876.894,627.352 877.931,850.542 878.967,1017.93 880.003,962.137 881.04,887.741 882.076,962.137 883.113,906.34 884.149,924.939 885.186,906.34 886.222,850.542 887.259,552.956 888.295,627.352 889.331,813.344 890.368,720.348 891.404,683.15 892.441,794.745 893.477,757.546 894.514,999.336 895.55,924.939 896.586,701.749 897.623,571.555 898.659,571.555 899.696,776.146 900.732,776.146 901.769,720.348 902.805,608.753 903.842,813.344 904.878,980.736 905.914,738.947 906.951,831.943 907.987,776.146 909.024,757.546 910.06,813.344 911.097,943.538 912.133,683.15 913.17,813.344 914.206,1036.53 915.242,794.745 916.279,776.146 917.315,794.745 918.352,571.555 919.388,943.538 920.425,757.546 921.461,962.137 922.498,757.546 923.534,924.939 924.57,1092.33 925.607,608.753 926.643,850.542 927.68,794.745 928.716,813.344 929.753,776.146 930.789,869.141 931.825,887.741 932.862,906.34 933.898,552.956 934.935,869.141 935.971,701.749 937.008,869.141 938.044,813.344 939.081,738.947 940.117,776.146 941.153,813.344 942.19,850.542 943.226,794.745 944.263,1092.33 945.299,776.146 946.336,590.154 947.372,850.542 948.409,664.551 949.445,831.943 950.481,906.34 951.518,701.749 952.554,664.551 953.591,943.538 954.627,924.939 955.664,515.757 956.7,664.551 957.737,701.749 958.773,701.749 959.809,664.551 960.846,794.745 961.882,794.745 962.919,924.939 963.955,869.141 964.992,757.546 966.028,831.943 967.065,906.34 968.101,1036.53 969.137,850.542 970.174,571.555 971.21,1036.53 972.247,813.344 973.283,869.141 974.32,683.15 975.356,590.154 976.392,887.741 977.429,720.348 978.465,701.749 979.502,794.745 980.538,1055.13 981.575,720.348 982.611,831.943 983.648,776.146 984.684,738.947 985.72,813.344 986.757,924.939 987.793,720.348 988.83,850.542 989.866,664.551 990.903,794.745 991.939,962.137 992.976,813.344 994.012,962.137 995.048,813.344 996.085,850.542 997.121,664.551 998.158,869.141 999.194,924.939 1000.23,738.947 1001.27,738.947 1002.3,701.749 1003.34,962.137 1004.38,645.951 1005.41,534.356 1006.45,869.141 1007.49,701.749 1008.52,645.951 1009.56,515.757 1010.6,813.344 1011.63,924.939 1012.67,813.344 1013.7,627.352 1014.74,776.146 1015.78,943.538 1016.81,924.939 1017.85,683.15 1018.89,813.344 1019.92,757.546 1020.96,887.741 1022,720.348 1023.03,720.348 1024.07,720.348 1025.11,683.15 1026.14,590.154 1027.18,831.943 1028.21,738.947 1029.25,627.352 1030.29,869.141 1031.32,590.154 1032.36,664.551 1033.4,627.352 1034.43,720.348 1035.47,980.736 1036.51,869.141 1037.54,831.943 1038.58,441.361 1039.62,776.146 1040.65,738.947 1041.69,962.137 1042.72,850.542 1043.76,943.538 1044.8,850.542 1045.83,1036.53 1046.87,887.741 1047.91,627.352 1048.94,534.356 1049.98,794.745 1051.02,683.15 1052.05,757.546 1053.09,590.154 1054.13,738.947 1055.16,794.745 1056.2,999.336 1057.23,831.943 1058.27,571.555 1059.31,552.956 1060.34,683.15 1061.38,571.555 1062.42,869.141 1063.45,645.951 1064.49,999.336 1065.53,738.947 1066.56,552.956 1067.6,571.555 1068.64,831.943 1069.67,776.146 1070.71,831.943 1071.75,999.336 1072.78,720.348 1073.82,1017.93 1074.85,850.542 1075.89,943.538 1076.93,534.356 1077.96,608.753 1079,980.736 1080.04,720.348 1081.07,850.542 1082.11,627.352 1083.15,738.947 1084.18,887.741 1085.22,571.555 1086.26,757.546 1087.29,664.551 1088.33,571.555 1089.36,813.344 1090.4,552.956 1091.44,720.348 1092.47,924.939 1093.51,608.753 1094.55,850.542 1095.58,794.745 1096.62,794.745 1097.66,887.741 1098.69,776.146 1099.73,720.348 1100.77,738.947 1101.8,683.15 1102.84,757.546 1103.87,813.344 1104.91,664.551 1105.95,776.146 1106.98,664.551 1108.02,943.538 1109.06,794.745 1110.09,683.15 1111.13,590.154 1112.17,962.137 1113.2,683.15 1114.24,1017.93 1115.28,757.546 1116.31,701.749 1117.35,552.956 1118.38,552.956 1119.42,645.951 1120.46,962.137 1121.49,497.158 1122.53,478.559 1123.57,869.141 1124.6,664.551 1125.64,664.551 1126.68,571.555 1127.71,645.951 1128.75,813.344 1129.79,943.538 1130.82,627.352 1131.86,627.352 1132.9,645.951 1133.93,757.546 1134.97,1036.53 1136,459.96 1137.04,404.162 1138.08,757.546 1139.11,552.956 1140.15,831.943 1141.19,627.352 1142.22,776.146 1143.26,794.745 1144.3,887.741 1145.33,831.943 1146.37,776.146 1147.41,757.546 1148.44,831.943 1149.48,831.943 1150.51,627.352 1151.55,627.352 1152.59,757.546 1153.62,720.348 1154.66,887.741 1155.7,441.361 1156.73,924.939 1157.77,683.15 1158.81,683.15 1159.84,534.356 1160.88,831.943 1161.92,478.559 1162.95,608.753 1163.99,627.352 1165.02,869.141 1166.06,776.146 1167.1,738.947 1168.13,720.348 1169.17,590.154 1170.21,608.753 1171.24,850.542 1172.28,571.555 1173.32,459.96 1174.35,794.745 1175.39,924.939 1176.43,831.943 1177.46,850.542 1178.5,887.741 1179.54,794.745 1180.57,571.555 1181.61,813.344 1182.64,813.344 1183.68,738.947 1184.72,571.555 1185.75,850.542 1186.79,571.555 1187.83,683.15 1188.86,776.146 1189.9,720.348 1190.94,664.551 1191.97,645.951 1193.01,515.757 1194.05,645.951 1195.08,850.542 1196.12,906.34 1197.15,831.943 1198.19,664.551 1199.23,887.741 1200.26,738.947 1201.3,552.956 1202.34,683.15 1203.37,738.947 1204.41,645.951 1205.45,720.348 1206.48,738.947 1207.52,645.951 1208.56,552.956 1209.59,608.753 1210.63,552.956 1211.66,738.947 1212.7,645.951 1213.74,757.546 1214.77,738.947 1215.81,943.538 1216.85,794.745 1217.88,664.551 1218.92,683.15 1219.96,776.146 1220.99,831.943 1222.03,776.146 1223.07,869.141 1224.1,776.146 1225.14,627.352 1226.17,608.753 1227.21,534.356 1228.25,813.344 1229.28,738.947 1230.32,776.146 1231.36,590.154 1232.39,738.947 1233.43,627.352 1234.47,869.141 1235.5,701.749 1236.54,683.15 1237.58,738.947 1238.61,776.146 1239.65,738.947 1240.69,497.158 1241.72,794.745 1242.76,999.336 1243.79,608.753 1244.83,478.559 1245.87,906.34 1246.9,701.749 1247.94,552.956 1248.98,534.356 1250.01,645.951 1251.05,813.344 1252.09,924.939 1253.12,776.146 1254.16,534.356 1255.2,497.158 1256.23,831.943 1257.27,608.753 1258.3,850.542 1259.34,720.348 1260.38,757.546 1261.41,571.555 1262.45,850.542 1263.49,645.951 1264.52,738.947 1265.56,794.745 1266.6,683.15 1267.63,757.546 1268.67,590.154 1269.71,924.939 1270.74,813.344 1271.78,869.141 1272.81,850.542 1273.85,776.146 1274.89,683.15 1275.92,497.158 1276.96,850.542 1278,422.761 1279.03,887.741 1280.07,571.555 1281.11,645.951 1282.14,571.555 1283.18,552.956 1284.22,664.551 1285.25,813.344 1286.29,738.947 1287.32,794.745 1288.36,813.344 1289.4,534.356 1290.43,441.361 1291.47,850.542 1292.51,571.555 1293.54,627.352 1294.58,701.749 1295.62,683.15 1296.65,701.749 1297.69,776.146 1298.73,720.348 1299.76,552.956 1300.8,627.352 1301.84,720.348 1302.87,794.745 1303.91,590.154 1304.94,627.352 1305.98,552.956 1307.02,1017.93 1308.05,906.34 1309.09,776.146 1310.13,608.753 1311.16,497.158 1312.2,608.753 1313.24,645.951 1314.27,552.956 1315.31,385.563 1316.35,701.749 1317.38,738.947 1318.42,515.757 1319.45,701.749 1320.49,776.146 1321.53,552.956 1322.56,794.745 1323.6,683.15 1324.64,552.956 1325.67,497.158 1326.71,683.15 1327.75,980.736 1328.78,590.154 1329.82,757.546 1330.86,738.947 1331.89,962.137 1332.93,683.15 1333.96,404.162 1335,720.348 1336.04,887.741 1337.07,794.745 1338.11,720.348 1339.15,441.361 1340.18,552.956 1341.22,645.951 1342.26,664.551 1343.29,794.745 1344.33,608.753 1345.37,813.344 1346.4,850.542 1347.44,701.749 1348.48,683.15 1349.51,608.753 1350.55,869.141 1351.58,441.361 1352.62,757.546 1353.66,757.546 1354.69,645.951 1355.73,608.753 1356.77,887.741 1357.8,627.352 1358.84,701.749 1359.88,459.96 1360.91,590.154 1361.95,794.745 1362.99,590.154 1364.02,348.365 1365.06,329.765 1366.09,831.943 1367.13,608.753 1368.17,608.753 1369.2,701.749 1370.24,887.741 1371.28,683.15 1372.31,794.745 1373.35,683.15 1374.39,534.356 1375.42,776.146 1376.46,794.745 1377.5,831.943 1378.53,831.943 1379.57,664.551 1380.6,757.546 1381.64,459.96 1382.68,608.753 1383.71,590.154 1384.75,738.947 1385.79,738.947 1386.82,590.154 1387.86,738.947 1388.9,869.141 1389.93,701.749 1390.97,701.749 1392.01,701.749 1393.04,683.15 1394.08,534.356 1395.11,608.753 1396.15,776.146 1397.19,645.951 1398.22,571.555 1399.26,701.749 1400.3,608.753 1401.33,794.745 1402.37,701.749 1403.41,478.559 1404.44,701.749 1405.48,683.15 1406.52,664.551 1407.55,720.348 1408.59,683.15 1409.63,757.546 1410.66,776.146 1411.7,627.352 1412.73,683.15 1413.77,999.336 1414.81,645.951 1415.84,794.745 1416.88,701.749 1417.92,571.555 1418.95,720.348 1419.99,422.761 1421.03,459.96 1422.06,645.951 1423.1,999.336 1424.14,608.753 1425.17,459.96 1426.21,608.753 1427.24,590.154 1428.28,813.344 1429.32,385.563 1430.35,608.753 1431.39,534.356 1432.43,906.34 1433.46,738.947 1434.5,720.348 1435.54,906.34 1436.57,683.15 1437.61,590.154 1438.65,720.348 1439.68,645.951 1440.72,962.137 1441.75,831.943 1442.79,627.352 1443.83,738.947 1444.86,776.146 1445.9,608.753 1446.94,683.15 1447.97,645.951 1449.01,664.551 1450.05,590.154 1451.08,645.951 1452.12,701.749 1453.16,813.344 1454.19,627.352 1455.23,720.348 1456.26,571.555 1457.3,515.757 1458.34,869.141 1459.37,850.542 1460.41,571.555 1461.45,701.749 1462.48,720.348 1463.52,850.542 1464.56,552.956 1465.59,850.542 1466.63,571.555 1467.67,552.956 1468.7,478.559 1469.74,813.344 1470.78,534.356 1471.81,794.745 1472.85,869.141 1473.88,887.741 1474.92,552.956 1475.96,404.162 1476.99,850.542 1478.03,831.943 1479.07,701.749 1480.1,645.951 1481.14,590.154 1482.18,757.546 1483.21,664.551 1484.25,794.745 1485.29,534.356 1486.32,720.348 1487.36,906.34 1488.39,720.348 1489.43,664.551 1490.47,683.15 1491.5,701.749 1492.54,701.749 1493.58,943.538 1494.61,683.15 1495.65,683.15 1496.69,664.551 1497.72,831.943 1498.76,738.947 1499.8,497.158 1500.83,348.365 1501.87,627.352 1502.9,869.141 1503.94,757.546 1504.98,608.753 1506.01,720.348 1507.05,776.146 1508.09,441.361 1509.12,366.964 1510.16,738.947 1511.2,701.749 1512.23,720.348 1513.27,552.956 1514.31,645.951 1515.34,980.736 1516.38,720.348 1517.42,776.146 1518.45,608.753 1519.49,552.956 1520.52,776.146 1521.56,664.551 1522.6,869.141 1523.63,738.947 1524.67,608.753 1525.71,590.154 1526.74,683.15 1527.78,813.344 1528.82,608.753 1529.85,441.361 1530.89,441.361 1531.93,645.951 1532.96,627.352 1534,497.158 1535.03,664.551 1536.07,757.546 1537.11,720.348 1538.14,627.352 1539.18,757.546 1540.22,813.344 1541.25,701.749 1542.29,571.555 1543.33,813.344 1544.36,664.551 1545.4,683.15 1546.44,776.146 1547.47,869.141 1548.51,552.956 1549.54,776.146 1550.58,720.348 1551.62,776.146 1552.65,701.749 1553.69,701.749 1554.73,645.951 1555.76,683.15 1556.8,850.542 1557.84,608.753 1558.87,608.753 1559.91,831.943 1560.95,478.559 1561.98,571.555 1563.02,869.141 1564.05,683.15 1565.09,590.154 1566.13,794.745 1567.16,757.546 1568.2,608.753 1569.24,645.951 1570.27,720.348 1571.31,552.956 1572.35,813.344 1573.38,776.146 1574.42,348.365 1575.46,683.15 1576.49,645.951 1577.53,720.348 1578.57,478.559 1579.6,366.964 1580.64,311.166 1581.67,869.141 1582.71,813.344 1583.75,683.15 1584.78,794.745 1585.82,776.146 1586.86,683.15 1587.89,776.146 1588.93,422.761 1589.97,590.154 1591,701.749 1592.04,590.154 1593.08,738.947 1594.11,720.348 1595.15,701.749 1596.18,869.141 1597.22,552.956 1598.26,552.956 1599.29,645.951 1600.33,683.15 1601.37,645.951 1602.4,813.344 1603.44,608.753 1604.48,831.943 1605.51,627.352 1606.55,850.542 1607.59,831.943 1608.62,850.542 1609.66,608.753 1610.69,776.146 1611.73,813.344 1612.77,757.546 1613.8,794.745 1614.84,738.947 1615.88,757.546 1616.91,776.146 1617.95,645.951 1618.99,534.356 1620.02,645.951 1621.06,776.146 1622.1,534.356 1623.13,664.551 1624.17,534.356 1625.2,627.352 1626.24,404.162 1627.28,794.745 1628.31,459.96 1629.35,1017.93 1630.39,720.348 1631.42,627.352 1632.46,813.344 1633.5,534.356 1634.53,813.344 1635.57,831.943 1636.61,683.15 1637.64,534.356 1638.68,627.352 1639.72,627.352 1640.75,757.546 1641.79,459.96 1642.82,645.951 1643.86,776.146 1644.9,552.956 1645.93,701.749 1646.97,757.546 1648.01,794.745 1649.04,776.146 1650.08,720.348 1651.12,627.352 1652.15,869.141 1653.19,590.154 1654.23,404.162 1655.26,794.745 1656.3,590.154 1657.33,683.15 1658.37,720.348 1659.41,571.555 1660.44,757.546 1661.48,571.555 1662.52,738.947 1663.55,608.753 1664.59,683.15 1665.63,683.15 1666.66,664.551 1667.7,515.757 1668.74,608.753 1669.77,738.947 1670.81,515.757 1671.84,590.154 1672.88,552.956 1673.92,683.15 1674.95,831.943 1675.99,720.348 1677.03,534.356 1678.06,608.753 1679.1,776.146 1680.14,497.158 1681.17,738.947 1682.21,757.546 1683.25,645.951 1684.28,683.15 1685.32,738.947 1686.36,590.154 1687.39,608.753 1688.43,552.956 1689.46,608.753 1690.5,776.146 1691.54,571.555 1692.57,794.745 1693.61,552.956 1694.65,720.348 1695.68,701.749 1696.72,738.947 1697.76,720.348 1698.79,404.162 1699.83,720.348 1700.87,608.753 1701.9,627.352 1702.94,776.146 1703.97,869.141 1705.01,738.947 1706.05,645.951 1707.08,590.154 1708.12,497.158 1709.16,515.757 1710.19,590.154 1711.23,906.34 1712.27,571.555 1713.3,645.951 1714.34,348.365 1715.38,571.555 1716.41,608.753 1717.45,459.96 1718.48,478.559 1719.52,627.352 1720.56,683.15 1721.59,664.551 1722.63,664.551 1723.67,701.749 1724.7,404.162 1725.74,757.546 1726.78,441.361 1727.81,552.956 1728.85,590.154 1729.89,534.356 1730.92,515.757 1731.96,794.745 1732.99,608.753 1734.03,534.356 1735.07,627.352 1736.1,590.154 1737.14,683.15 1738.18,627.352 1739.21,515.757 1740.25,534.356 1741.29,645.951 1742.32,924.939 1743.36,887.741 1744.4,924.939 1745.43,497.158 1746.47,497.158 1747.51,404.162 1748.54,645.951 1749.58,645.951 1750.61,645.951 1751.65,590.154 1752.69,664.551 1753.72,869.141 1754.76,385.563 1755.8,590.154 1756.83,571.555 1757.87,311.166 1758.91,515.757 1759.94,776.146 1760.98,757.546 1762.02,738.947 1763.05,571.555 1764.09,590.154 1765.12,590.154 1766.16,608.753 1767.2,738.947 1768.23,869.141 1769.27,664.551 1770.31,515.757 1771.34,534.356 1772.38,515.757 1773.42,720.348 1774.45,794.745 1775.49,515.757 1776.53,831.943 1777.56,552.956 1778.6,552.956 1779.63,590.154 1780.67,645.951 1781.71,664.551 1782.74,683.15 1783.78,627.352 1784.82,534.356 1785.85,590.154 1786.89,720.348 1787.93,645.951 1788.96,645.951 1790,590.154 1791.04,497.158 1792.07,627.352 1793.11,720.348 1794.14,627.352 1795.18,683.15 1796.22,720.348 1797.25,608.753 1798.29,478.559 1799.33,738.947 1800.36,348.365 1801.4,515.757 1802.44,404.162 1803.47,627.352 1804.51,794.745 1805.55,645.951 1806.58,348.365 1807.62,664.551 1808.66,459.96 1809.69,645.951 1810.73,738.947 1811.76,534.356 1812.8,738.947 1813.84,850.542 1814.87,571.555 1815.91,571.555 1816.95,478.559 1817.98,404.162 1819.02,608.753 1820.06,608.753 1821.09,534.356 1822.13,757.546 1823.17,515.757 1824.2,497.158 1825.24,720.348 1826.27,776.146 1827.31,478.559 1828.35,720.348 1829.38,422.761 1830.42,645.951 1831.46,720.348 1832.49,683.15 1833.53,720.348 1834.57,590.154 1835.6,515.757 1836.64,645.951 1837.68,608.753 1838.71,645.951 1839.75,590.154 1840.78,497.158 1841.82,515.757 1842.86,590.154 1843.89,515.757 1844.93,757.546 1845.97,608.753 1847,757.546 1848.04,720.348 1849.08,497.158 1850.11,645.951 1851.15,720.348 1852.19,571.555 1853.22,831.943 1854.26,738.947 1855.3,478.559 1856.33,366.964 1857.37,385.563 1858.4,255.369 1859.44,571.555 1860.48,701.749 1861.51,478.559 1862.55,497.158 1863.59,590.154 1864.62,645.951 1865.66,478.559 1866.7,664.551 1867.73,590.154 1868.77,627.352 1869.81,366.964 1870.84,404.162 1871.88,831.943 1872.91,571.555 1873.95,590.154 1874.99,757.546 1876.02,627.352 1877.06,720.348 1878.1,552.956 1879.13,701.749 1880.17,683.15 1881.21,515.757 1882.24,627.352 1883.28,552.956 1884.32,720.348 1885.35,478.559 1886.39,441.361 1887.42,683.15 1888.46,497.158 1889.5,422.761 1890.53,664.551 1891.57,683.15 1892.61,497.158 1893.64,701.749 1894.68,497.158 1895.72,534.356 1896.75,645.951 1897.79,608.753 1898.83,794.745 1899.86,422.761 1900.9,850.542 1901.93,608.753 1902.97,534.356 1904.01,422.761 1905.04,720.348 1906.08,590.154 1907.12,534.356 1908.15,497.158 1909.19,608.753 1910.23,720.348 1911.26,608.753 1912.3,571.555 1913.34,701.749 1914.37,366.964 1915.41,757.546 1916.45,608.753 1917.48,701.749 1918.52,552.956 1919.55,738.947 1920.59,478.559 1921.63,794.745 1922.66,627.352 1923.7,701.749 1924.74,645.951 1925.77,385.563 1926.81,757.546 1927.85,701.749 1928.88,552.956 1929.92,738.947 1930.96,869.141 1931.99,720.348 1933.03,645.951 1934.06,869.141 1935.1,720.348 1936.14,459.96 1937.17,720.348 1938.21,552.956 1939.25,645.951 1940.28,683.15 1941.32,683.15 1942.36,627.352 1943.39,720.348 1944.43,478.559 1945.47,701.749 1946.5,794.745 1947.54,478.559 1948.57,645.951 1949.61,720.348 1950.65,664.551 1951.68,441.361 1952.72,720.348 1953.76,701.749 1954.79,664.551 1955.83,776.146 1956.87,645.951 1957.9,627.352 1958.94,869.141 1959.98,590.154 1961.01,757.546 1962.05,738.947 1963.08,366.964 1964.12,478.559 1965.16,385.563 1966.19,645.951 1967.23,590.154 1968.27,645.951 1969.3,738.947 1970.34,645.951 1971.38,757.546 1972.41,645.951 1973.45,552.956 1974.49,590.154 1975.52,497.158 1976.56,441.361 1977.6,757.546 1978.63,534.356 1979.67,943.538 1980.7,645.951 1981.74,552.956 1982.78,497.158 1983.81,571.555 1984.85,441.361 1985.89,757.546 1986.92,701.749 1987.96,776.146 1989,552.956 1990.03,794.745 1991.07,850.542 1992.11,459.96 1993.14,590.154 1994.18,831.943 1995.21,608.753 1996.25,683.15 1997.29,366.964 1998.32,701.749 1999.36,701.749 2000.4,627.352 2001.43,515.757 2002.47,645.951 2003.51,738.947 2004.54,664.551 2005.58,701.749 2006.62,608.753 2007.65,627.352 2008.69,348.365 2009.72,534.356 2010.76,571.555 2011.8,701.749 2012.83,478.559 2013.87,887.741 2014.91,757.546 2015.94,943.538 2016.98,608.753 2018.02,497.158 2019.05,720.348 2020.09,813.344 2021.13,441.361 2022.16,590.154 2023.2,664.551 2024.23,571.555 2025.27,794.745 2026.31,701.749 2027.34,757.546 2028.38,627.352 2029.42,664.551 2030.45,608.753 2031.49,422.761 2032.53,515.757 2033.56,552.956 2034.6,720.348 2035.64,813.344 2036.67,608.753 2037.71,515.757 2038.75,627.352 2039.78,664.551 2040.82,645.951 2041.85,831.943 2042.89,627.352 2043.93,645.951 2044.96,943.538 2046,552.956 2047.04,590.154 2048.07,683.15 2049.11,906.34 2050.15,720.348 2051.18,738.947 2052.22,608.753 2053.26,590.154 2054.29,776.146 2055.33,590.154 2056.36,478.559 2057.4,534.356 2058.44,422.761 2059.47,608.753 2060.51,534.356 2061.55,385.563 2062.58,497.158 2063.62,459.96 2064.66,738.947 2065.69,571.555 2066.73,534.356 2067.77,515.757 2068.8,701.749 2069.84,459.96 2070.87,348.365 2071.91,627.352 2072.95,738.947 2073.98,776.146 2075.02,683.15 2076.06,738.947 2077.09,571.555 2078.13,738.947 2079.17,590.154 2080.2,720.348 2081.24,738.947 2082.28,738.947 2083.31,738.947 2084.35,608.753 2085.39,590.154 2086.42,608.753 2087.46,683.15 2088.49,608.753 2089.53,701.749 2090.57,720.348 2091.6,664.551 2092.64,552.956 2093.68,478.559 2094.71,534.356 2095.75,701.749 2096.79,794.745 2097.82,757.546 2098.86,590.154 2099.9,515.757 2100.93,757.546 2101.97,645.951 2103,664.551 2104.04,497.158 2105.08,720.348 2106.11,534.356 2107.15,478.559 2108.19,757.546 2109.22,645.951 2110.26,459.96 2111.3,497.158 2112.33,571.555 2113.37,478.559 2114.41,683.15 2115.44,590.154 2116.48,683.15 2117.51,497.158 2118.55,459.96 2119.59,645.951 2120.62,478.559 2121.66,608.753 2122.7,869.141 2123.73,552.956 2124.77,664.551 2125.81,515.757 2126.84,590.154 2127.88,571.555 2128.92,738.947 2129.95,608.753 2130.99,683.15 2132.02,534.356 2133.06,683.15 2134.1,720.348 2135.13,738.947 2136.17,422.761 2137.21,590.154 2138.24,590.154 2139.28,571.555 2140.32,664.551 2141.35,757.546 2142.39,813.344 2143.43,776.146 2144.46,571.555 2145.5,590.154 2146.54,515.757 2147.57,683.15 2148.61,590.154 2149.64,478.559 2150.68,627.352 2151.72,664.551 2152.75,366.964 2153.79,497.158 2154.83,571.555 2155.86,608.753 2156.9,497.158 2157.94,441.361 2158.97,757.546 2160.01,590.154 2161.05,701.749 2162.08,831.943 2163.12,459.96 2164.15,459.96 2165.19,701.749 2166.23,571.555 2167.26,515.757 2168.3,422.761 2169.34,534.356 2170.37,478.559 2171.41,683.15 2172.45,329.765 2173.48,478.559 2174.52,497.158 2175.56,218.17 2176.59,459.96 2177.63,664.551 2178.66,571.555 2179.7,683.15 2180.74,664.551 2181.77,701.749 2182.81,590.154 2183.85,645.951 2184.88,701.749 2185.92,552.956 2186.96,757.546 2187.99,701.749 2189.03,664.551 2190.07,478.559 2191.1,627.352 2192.14,348.365 2193.17,683.15 2194.21,720.348 2195.25,497.158 2196.28,459.96 2197.32,534.356 2198.36,366.964 2199.39,590.154 2200.43,515.757 2201.47,404.162 2202.5,813.344 2203.54,552.956 2204.58,608.753 2205.61,813.344 2206.65,701.749 2207.69,683.15 2208.72,608.753 2209.76,497.158 2210.79,497.158 2211.83,664.551 2212.87,794.745 2213.9,366.964 2214.94,645.951 2215.98,664.551 2217.01,738.947 2218.05,608.753 2219.09,869.141 2220.12,459.96 2221.16,701.749 2222.2,590.154 2223.23,776.146 2224.27,552.956 2225.3,608.753 2226.34,701.749 2227.38,683.15 2228.41,162.373 2229.45,422.761 2230.49,608.753 2231.52,664.551 2232.56,552.956 2233.6,571.555 2234.63,757.546 2235.67,534.356 2236.71,701.749 2237.74,571.555 2238.78,627.352 2239.81,701.749 2240.85,590.154 2241.89,906.34 2242.92,552.956 2243.96,627.352 2245,738.947 2246.03,645.951 2247.07,608.753 2248.11,515.757 2249.14,683.15 2250.18,422.761 2251.22,385.563 2252.25,701.749 2253.29,422.761 2254.33,590.154 2255.36,534.356 2256.4,478.559 2257.43,459.96 2258.47,348.365 2259.51,645.951 2260.54,552.956 2261.58,664.551 2262.62,608.753 2263.65,627.352 2264.69,627.352 2265.73,515.757 2266.76,683.15 2267.8,683.15 2268.84,422.761 2269.87,608.753 2270.91,478.559 2271.94,590.154 2272.98,590.154 2274.02,497.158 2275.05,683.15 2276.09,757.546 2277.13,478.559 2278.16,608.753 2279.2,329.765 2280.24,497.158 2281.27,590.154 2282.31,664.551 2283.35,813.344 2284.38,255.369 2285.42,590.154 2286.45,571.555 2287.49,608.753 2288.53,404.162 2289.56,478.559 2290.6,627.352 "/>
<path clip-path="url(#clip040)" d="M2007.5 1438.47 L2279.55 1438.47 L2279.55 1334.79 L2007.5 1334.79  Z" fill="#ffffff" fill-rule="evenodd" fill-opacity="1"/>
<polyline clip-path="url(#clip040)" style="stroke:#000000; stroke-linecap:round; stroke-linejoin:round; stroke-width:4; stroke-opacity:1; fill:none" points="2007.5,1438.47 2279.55,1438.47 2279.55,1334.79 2007.5,1334.79 2007.5,1438.47 "/>
<polyline clip-path="url(#clip040)" style="stroke:#009af9; stroke-linecap:round; stroke-linejoin:round; stroke-width:4; stroke-opacity:1; fill:none" points="2031.91,1386.63 2178.32,1386.63 "/>
<path clip-path="url(#clip040)" d="M2216.56 1406.32 Q2214.76 1410.95 2213.04 1412.36 Q2211.33 1413.78 2208.46 1413.78 L2205.06 1413.78 L2205.06 1410.21 L2207.56 1410.21 Q2209.32 1410.21 2210.29 1409.38 Q2211.26 1408.54 2212.44 1405.44 L2213.2 1403.5 L2202.72 1377.99 L2207.23 1377.99 L2215.33 1398.27 L2223.44 1377.99 L2227.95 1377.99 L2216.56 1406.32 Z" fill="#000000" fill-rule="nonzero" fill-opacity="1" /><path clip-path="url(#clip040)" d="M2235.24 1399.98 L2242.88 1399.98 L2242.88 1373.61 L2234.57 1375.28 L2234.57 1371.02 L2242.83 1369.35 L2247.51 1369.35 L2247.51 1399.98 L2255.15 1399.98 L2255.15 1403.91 L2235.24 1403.91 L2235.24 1399.98 Z" fill="#000000" fill-rule="nonzero" fill-opacity="1" /></svg>
