<?xml version="1.0" encoding="utf-8"?>
<svg xmlns="http://www.w3.org/2000/svg" xmlns:xlink="http://www.w3.org/1999/xlink" width="600" height="400" viewBox="0 0 2400 1600">
<defs>
  <clipPath id="clip660">
    <rect x="0" y="0" width="2400" height="1600"/>
  </clipPath>
</defs>
<path clip-path="url(#clip660)" d="M0 1600 L2400 1600 L2400 0 L0 0  Z" fill="#ffffff" fill-rule="evenodd" fill-opacity="1"/>
<defs>
  <clipPath id="clip661">
    <rect x="480" y="0" width="1681" height="1600"/>
  </clipPath>
</defs>
<path clip-path="url(#clip660)" d="M140.696 1486.45 L2352.76 1486.45 L2352.76 47.2441 L140.696 47.2441  Z" fill="#ffffff" fill-rule="evenodd" fill-opacity="1"/>
<defs>
  <clipPath id="clip662">
    <rect x="140" y="47" width="2213" height="1440"/>
  </clipPath>
</defs>
<polyline clip-path="url(#clip662)" style="stroke:#000000; stroke-linecap:round; stroke-linejoin:round; stroke-width:2; stroke-opacity:0.1; fill:none" points="203.301,1486.45 203.301,47.2441 "/>
<polyline clip-path="url(#clip662)" style="stroke:#000000; stroke-linecap:round; stroke-linejoin:round; stroke-width:2; stroke-opacity:0.1; fill:none" points="725.013,1486.45 725.013,47.2441 "/>
<polyline clip-path="url(#clip662)" style="stroke:#000000; stroke-linecap:round; stroke-linejoin:round; stroke-width:2; stroke-opacity:0.1; fill:none" points="1246.73,1486.45 1246.73,47.2441 "/>
<polyline clip-path="url(#clip662)" style="stroke:#000000; stroke-linecap:round; stroke-linejoin:round; stroke-width:2; stroke-opacity:0.1; fill:none" points="1768.44,1486.45 1768.44,47.2441 "/>
<polyline clip-path="url(#clip662)" style="stroke:#000000; stroke-linecap:round; stroke-linejoin:round; stroke-width:2; stroke-opacity:0.1; fill:none" points="2290.15,1486.45 2290.15,47.2441 "/>
<polyline clip-path="url(#clip660)" style="stroke:#000000; stroke-linecap:round; stroke-linejoin:round; stroke-width:4; stroke-opacity:1; fill:none" points="140.696,1486.45 2352.76,1486.45 "/>
<polyline clip-path="url(#clip660)" style="stroke:#000000; stroke-linecap:round; stroke-linejoin:round; stroke-width:4; stroke-opacity:1; fill:none" points="203.301,1486.45 203.301,1467.55 "/>
<polyline clip-path="url(#clip660)" style="stroke:#000000; stroke-linecap:round; stroke-linejoin:round; stroke-width:4; stroke-opacity:1; fill:none" points="725.013,1486.45 725.013,1467.55 "/>
<polyline clip-path="url(#clip660)" style="stroke:#000000; stroke-linecap:round; stroke-linejoin:round; stroke-width:4; stroke-opacity:1; fill:none" points="1246.73,1486.45 1246.73,1467.55 "/>
<polyline clip-path="url(#clip660)" style="stroke:#000000; stroke-linecap:round; stroke-linejoin:round; stroke-width:4; stroke-opacity:1; fill:none" points="1768.44,1486.45 1768.44,1467.55 "/>
<polyline clip-path="url(#clip660)" style="stroke:#000000; stroke-linecap:round; stroke-linejoin:round; stroke-width:4; stroke-opacity:1; fill:none" points="2290.15,1486.45 2290.15,1467.55 "/>
<path clip-path="url(#clip660)" d="M203.301 1517.37 Q199.69 1517.37 197.861 1520.93 Q196.056 1524.47 196.056 1531.6 Q196.056 1538.71 197.861 1542.27 Q199.69 1545.82 203.301 1545.82 Q206.935 1545.82 208.741 1542.27 Q210.57 1538.71 210.57 1531.6 Q210.57 1524.47 208.741 1520.93 Q206.935 1517.37 203.301 1517.37 M203.301 1513.66 Q209.111 1513.66 212.167 1518.27 Q215.245 1522.85 215.245 1531.6 Q215.245 1540.33 212.167 1544.94 Q209.111 1549.52 203.301 1549.52 Q197.491 1549.52 194.412 1544.94 Q191.357 1540.33 191.357 1531.6 Q191.357 1522.85 194.412 1518.27 Q197.491 1513.66 203.301 1513.66 Z" fill="#000000" fill-rule="nonzero" fill-opacity="1" /><path clip-path="url(#clip660)" d="M684.632 1514.29 L702.988 1514.29 L702.988 1518.22 L688.914 1518.22 L688.914 1526.7 Q689.933 1526.35 690.951 1526.19 Q691.97 1526 692.988 1526 Q698.775 1526 702.155 1529.17 Q705.534 1532.34 705.534 1537.76 Q705.534 1543.34 702.062 1546.44 Q698.59 1549.52 692.27 1549.52 Q690.095 1549.52 687.826 1549.15 Q685.581 1548.78 683.173 1548.04 L683.173 1543.34 Q685.257 1544.47 687.479 1545.03 Q689.701 1545.58 692.178 1545.58 Q696.183 1545.58 698.52 1543.48 Q700.858 1541.37 700.858 1537.76 Q700.858 1534.15 698.52 1532.04 Q696.183 1529.94 692.178 1529.94 Q690.303 1529.94 688.428 1530.35 Q686.576 1530.77 684.632 1531.65 L684.632 1514.29 Z" fill="#000000" fill-rule="nonzero" fill-opacity="1" /><path clip-path="url(#clip660)" d="M724.747 1517.37 Q721.136 1517.37 719.307 1520.93 Q717.502 1524.47 717.502 1531.6 Q717.502 1538.71 719.307 1542.27 Q721.136 1545.82 724.747 1545.82 Q728.381 1545.82 730.187 1542.27 Q732.016 1538.71 732.016 1531.6 Q732.016 1524.47 730.187 1520.93 Q728.381 1517.37 724.747 1517.37 M724.747 1513.66 Q730.557 1513.66 733.613 1518.27 Q736.692 1522.85 736.692 1531.6 Q736.692 1540.33 733.613 1544.94 Q730.557 1549.52 724.747 1549.52 Q718.937 1549.52 715.858 1544.94 Q712.803 1540.33 712.803 1531.6 Q712.803 1522.85 715.858 1518.27 Q718.937 1513.66 724.747 1513.66 Z" fill="#000000" fill-rule="nonzero" fill-opacity="1" /><path clip-path="url(#clip660)" d="M754.909 1517.37 Q751.298 1517.37 749.469 1520.93 Q747.664 1524.47 747.664 1531.6 Q747.664 1538.71 749.469 1542.27 Q751.298 1545.82 754.909 1545.82 Q758.543 1545.82 760.349 1542.27 Q762.178 1538.71 762.178 1531.6 Q762.178 1524.47 760.349 1520.93 Q758.543 1517.37 754.909 1517.37 M754.909 1513.66 Q760.719 1513.66 763.775 1518.27 Q766.853 1522.85 766.853 1531.6 Q766.853 1540.33 763.775 1544.94 Q760.719 1549.52 754.909 1549.52 Q749.099 1549.52 746.02 1544.94 Q742.965 1540.33 742.965 1531.6 Q742.965 1522.85 746.02 1518.27 Q749.099 1513.66 754.909 1513.66 Z" fill="#000000" fill-rule="nonzero" fill-opacity="1" /><path clip-path="url(#clip660)" d="M1191.25 1544.91 L1198.89 1544.91 L1198.89 1518.55 L1190.58 1520.21 L1190.58 1515.95 L1198.84 1514.29 L1203.52 1514.29 L1203.52 1544.91 L1211.16 1544.91 L1211.16 1548.85 L1191.25 1548.85 L1191.25 1544.91 Z" fill="#000000" fill-rule="nonzero" fill-opacity="1" /><path clip-path="url(#clip660)" d="M1230.6 1517.37 Q1226.99 1517.37 1225.16 1520.93 Q1223.36 1524.47 1223.36 1531.6 Q1223.36 1538.71 1225.16 1542.27 Q1226.99 1545.82 1230.6 1545.82 Q1234.24 1545.82 1236.04 1542.27 Q1237.87 1538.71 1237.87 1531.6 Q1237.87 1524.47 1236.04 1520.93 Q1234.24 1517.37 1230.6 1517.37 M1230.6 1513.66 Q1236.41 1513.66 1239.47 1518.27 Q1242.55 1522.85 1242.55 1531.6 Q1242.55 1540.33 1239.47 1544.94 Q1236.41 1549.52 1230.6 1549.52 Q1224.79 1549.52 1221.71 1544.94 Q1218.66 1540.33 1218.66 1531.6 Q1218.66 1522.85 1221.71 1518.27 Q1224.79 1513.66 1230.6 1513.66 Z" fill="#000000" fill-rule="nonzero" fill-opacity="1" /><path clip-path="url(#clip660)" d="M1260.77 1517.37 Q1257.15 1517.37 1255.33 1520.93 Q1253.52 1524.47 1253.52 1531.6 Q1253.52 1538.71 1255.33 1542.27 Q1257.15 1545.82 1260.77 1545.82 Q1264.4 1545.82 1266.2 1542.27 Q1268.03 1538.71 1268.03 1531.6 Q1268.03 1524.47 1266.2 1520.93 Q1264.4 1517.37 1260.77 1517.37 M1260.77 1513.66 Q1266.58 1513.66 1269.63 1518.27 Q1272.71 1522.85 1272.71 1531.6 Q1272.71 1540.33 1269.63 1544.94 Q1266.58 1549.52 1260.77 1549.52 Q1254.95 1549.52 1251.88 1544.94 Q1248.82 1540.33 1248.82 1531.6 Q1248.82 1522.85 1251.88 1518.27 Q1254.95 1513.66 1260.77 1513.66 Z" fill="#000000" fill-rule="nonzero" fill-opacity="1" /><path clip-path="url(#clip660)" d="M1290.93 1517.37 Q1287.32 1517.37 1285.49 1520.93 Q1283.68 1524.47 1283.68 1531.6 Q1283.68 1538.71 1285.49 1542.27 Q1287.32 1545.82 1290.93 1545.82 Q1294.56 1545.82 1296.37 1542.27 Q1298.2 1538.71 1298.2 1531.6 Q1298.2 1524.47 1296.37 1520.93 Q1294.56 1517.37 1290.93 1517.37 M1290.93 1513.66 Q1296.74 1513.66 1299.79 1518.27 Q1302.87 1522.85 1302.87 1531.6 Q1302.87 1540.33 1299.79 1544.94 Q1296.74 1549.52 1290.93 1549.52 Q1285.12 1549.52 1282.04 1544.94 Q1278.98 1540.33 1278.98 1531.6 Q1278.98 1522.85 1282.04 1518.27 Q1285.12 1513.66 1290.93 1513.66 Z" fill="#000000" fill-rule="nonzero" fill-opacity="1" /><path clip-path="url(#clip660)" d="M1712.96 1544.91 L1720.6 1544.91 L1720.6 1518.55 L1712.29 1520.21 L1712.29 1515.95 L1720.56 1514.29 L1725.23 1514.29 L1725.23 1544.91 L1732.87 1544.91 L1732.87 1548.85 L1712.96 1548.85 L1712.96 1544.91 Z" fill="#000000" fill-rule="nonzero" fill-opacity="1" /><path clip-path="url(#clip660)" d="M1742.36 1514.29 L1760.72 1514.29 L1760.72 1518.22 L1746.64 1518.22 L1746.64 1526.7 Q1747.66 1526.35 1748.68 1526.19 Q1749.7 1526 1750.72 1526 Q1756.51 1526 1759.88 1529.17 Q1763.26 1532.34 1763.26 1537.76 Q1763.26 1543.34 1759.79 1546.44 Q1756.32 1549.52 1750 1549.52 Q1747.82 1549.52 1745.56 1549.15 Q1743.31 1548.78 1740.9 1548.04 L1740.9 1543.34 Q1742.99 1544.47 1745.21 1545.03 Q1747.43 1545.58 1749.91 1545.58 Q1753.91 1545.58 1756.25 1543.48 Q1758.59 1541.37 1758.59 1537.76 Q1758.59 1534.15 1756.25 1532.04 Q1753.91 1529.94 1749.91 1529.94 Q1748.03 1529.94 1746.16 1530.35 Q1744.31 1530.77 1742.36 1531.65 L1742.36 1514.29 Z" fill="#000000" fill-rule="nonzero" fill-opacity="1" /><path clip-path="url(#clip660)" d="M1782.48 1517.37 Q1778.87 1517.37 1777.04 1520.93 Q1775.23 1524.47 1775.23 1531.6 Q1775.23 1538.71 1777.04 1542.27 Q1778.87 1545.82 1782.48 1545.82 Q1786.11 1545.82 1787.92 1542.27 Q1789.75 1538.71 1789.75 1531.6 Q1789.75 1524.47 1787.92 1520.93 Q1786.11 1517.37 1782.48 1517.37 M1782.48 1513.66 Q1788.29 1513.66 1791.34 1518.27 Q1794.42 1522.85 1794.42 1531.6 Q1794.42 1540.33 1791.34 1544.94 Q1788.29 1549.52 1782.48 1549.52 Q1776.67 1549.52 1773.59 1544.94 Q1770.53 1540.33 1770.53 1531.6 Q1770.53 1522.85 1773.59 1518.27 Q1776.67 1513.66 1782.48 1513.66 Z" fill="#000000" fill-rule="nonzero" fill-opacity="1" /><path clip-path="url(#clip660)" d="M1812.64 1517.37 Q1809.03 1517.37 1807.2 1520.93 Q1805.39 1524.47 1805.39 1531.6 Q1805.39 1538.71 1807.2 1542.27 Q1809.03 1545.82 1812.64 1545.82 Q1816.27 1545.82 1818.08 1542.27 Q1819.91 1538.71 1819.91 1531.6 Q1819.91 1524.47 1818.08 1520.93 Q1816.27 1517.37 1812.64 1517.37 M1812.64 1513.66 Q1818.45 1513.66 1821.5 1518.27 Q1824.58 1522.85 1824.58 1531.6 Q1824.58 1540.33 1821.5 1544.94 Q1818.45 1549.52 1812.64 1549.52 Q1806.83 1549.52 1803.75 1544.94 Q1800.69 1540.33 1800.69 1531.6 Q1800.69 1522.85 1803.75 1518.27 Q1806.83 1513.66 1812.64 1513.66 Z" fill="#000000" fill-rule="nonzero" fill-opacity="1" /><path clip-path="url(#clip660)" d="M2238.76 1544.91 L2255.08 1544.91 L2255.08 1548.85 L2233.14 1548.85 L2233.14 1544.91 Q2235.8 1542.16 2240.38 1537.53 Q2244.99 1532.88 2246.17 1531.53 Q2248.41 1529.01 2249.29 1527.27 Q2250.2 1525.51 2250.2 1523.82 Q2250.2 1521.07 2248.25 1519.33 Q2246.33 1517.6 2243.23 1517.6 Q2241.03 1517.6 2238.58 1518.36 Q2236.15 1519.13 2233.37 1520.68 L2233.37 1515.95 Q2236.19 1514.82 2238.65 1514.24 Q2241.1 1513.66 2243.14 1513.66 Q2248.51 1513.66 2251.7 1516.35 Q2254.9 1519.03 2254.9 1523.52 Q2254.9 1525.65 2254.09 1527.57 Q2253.3 1529.47 2251.19 1532.07 Q2250.61 1532.74 2247.51 1535.95 Q2244.41 1539.15 2238.76 1544.91 Z" fill="#000000" fill-rule="nonzero" fill-opacity="1" /><path clip-path="url(#clip660)" d="M2274.9 1517.37 Q2271.28 1517.37 2269.46 1520.93 Q2267.65 1524.47 2267.65 1531.6 Q2267.65 1538.71 2269.46 1542.27 Q2271.28 1545.82 2274.9 1545.82 Q2278.53 1545.82 2280.34 1542.27 Q2282.16 1538.71 2282.16 1531.6 Q2282.16 1524.47 2280.34 1520.93 Q2278.53 1517.37 2274.9 1517.37 M2274.9 1513.66 Q2280.71 1513.66 2283.76 1518.27 Q2286.84 1522.85 2286.84 1531.6 Q2286.84 1540.33 2283.76 1544.94 Q2280.71 1549.52 2274.9 1549.52 Q2269.09 1549.52 2266.01 1544.94 Q2262.95 1540.33 2262.95 1531.6 Q2262.95 1522.85 2266.01 1518.27 Q2269.09 1513.66 2274.9 1513.66 Z" fill="#000000" fill-rule="nonzero" fill-opacity="1" /><path clip-path="url(#clip660)" d="M2305.06 1517.37 Q2301.45 1517.37 2299.62 1520.93 Q2297.81 1524.47 2297.81 1531.6 Q2297.81 1538.71 2299.62 1542.27 Q2301.45 1545.82 2305.06 1545.82 Q2308.69 1545.82 2310.5 1542.27 Q2312.33 1538.71 2312.33 1531.6 Q2312.33 1524.47 2310.5 1520.93 Q2308.69 1517.37 2305.06 1517.37 M2305.06 1513.66 Q2310.87 1513.66 2313.92 1518.27 Q2317 1522.85 2317 1531.6 Q2317 1540.33 2313.92 1544.94 Q2310.87 1549.52 2305.06 1549.52 Q2299.25 1549.52 2296.17 1544.94 Q2293.11 1540.33 2293.11 1531.6 Q2293.11 1522.85 2296.17 1518.27 Q2299.25 1513.66 2305.06 1513.66 Z" fill="#000000" fill-rule="nonzero" fill-opacity="1" /><path clip-path="url(#clip660)" d="M2335.22 1517.37 Q2331.61 1517.37 2329.78 1520.93 Q2327.97 1524.47 2327.97 1531.6 Q2327.97 1538.71 2329.78 1542.27 Q2331.61 1545.82 2335.22 1545.82 Q2338.85 1545.82 2340.66 1542.27 Q2342.49 1538.71 2342.49 1531.6 Q2342.49 1524.47 2340.66 1520.93 Q2338.85 1517.37 2335.22 1517.37 M2335.22 1513.66 Q2341.03 1513.66 2344.09 1518.27 Q2347.16 1522.85 2347.16 1531.6 Q2347.16 1540.33 2344.09 1544.94 Q2341.03 1549.52 2335.22 1549.52 Q2329.41 1549.52 2326.33 1544.94 Q2323.28 1540.33 2323.28 1531.6 Q2323.28 1522.85 2326.33 1518.27 Q2329.41 1513.66 2335.22 1513.66 Z" fill="#000000" fill-rule="nonzero" fill-opacity="1" /><polyline clip-path="url(#clip662)" style="stroke:#000000; stroke-linecap:round; stroke-linejoin:round; stroke-width:2; stroke-opacity:0.1; fill:none" points="140.696,1254.57 2352.76,1254.57 "/>
<polyline clip-path="url(#clip662)" style="stroke:#000000; stroke-linecap:round; stroke-linejoin:round; stroke-width:2; stroke-opacity:0.1; fill:none" points="140.696,885.582 2352.76,885.582 "/>
<polyline clip-path="url(#clip662)" style="stroke:#000000; stroke-linecap:round; stroke-linejoin:round; stroke-width:2; stroke-opacity:0.1; fill:none" points="140.696,516.598 2352.76,516.598 "/>
<polyline clip-path="url(#clip662)" style="stroke:#000000; stroke-linecap:round; stroke-linejoin:round; stroke-width:2; stroke-opacity:0.1; fill:none" points="140.696,147.614 2352.76,147.614 "/>
<polyline clip-path="url(#clip660)" style="stroke:#000000; stroke-linecap:round; stroke-linejoin:round; stroke-width:4; stroke-opacity:1; fill:none" points="140.696,1486.45 140.696,47.2441 "/>
<polyline clip-path="url(#clip660)" style="stroke:#000000; stroke-linecap:round; stroke-linejoin:round; stroke-width:4; stroke-opacity:1; fill:none" points="140.696,1254.57 159.593,1254.57 "/>
<polyline clip-path="url(#clip660)" style="stroke:#000000; stroke-linecap:round; stroke-linejoin:round; stroke-width:4; stroke-opacity:1; fill:none" points="140.696,885.582 159.593,885.582 "/>
<polyline clip-path="url(#clip660)" style="stroke:#000000; stroke-linecap:round; stroke-linejoin:round; stroke-width:4; stroke-opacity:1; fill:none" points="140.696,516.598 159.593,516.598 "/>
<polyline clip-path="url(#clip660)" style="stroke:#000000; stroke-linecap:round; stroke-linejoin:round; stroke-width:4; stroke-opacity:1; fill:none" points="140.696,147.614 159.593,147.614 "/>
<path clip-path="url(#clip660)" d="M53.3995 1267.91 L61.0384 1267.91 L61.0384 1241.54 L52.7282 1243.21 L52.7282 1238.95 L60.9921 1237.29 L65.668 1237.29 L65.668 1267.91 L73.3068 1267.91 L73.3068 1271.85 L53.3995 1271.85 L53.3995 1267.91 Z" fill="#000000" fill-rule="nonzero" fill-opacity="1" /><path clip-path="url(#clip660)" d="M92.7512 1240.36 Q89.1401 1240.36 87.3114 1243.93 Q85.5058 1247.47 85.5058 1254.6 Q85.5058 1261.71 87.3114 1265.27 Q89.1401 1268.81 92.7512 1268.81 Q96.3854 1268.81 98.1909 1265.27 Q100.02 1261.71 100.02 1254.6 Q100.02 1247.47 98.1909 1243.93 Q96.3854 1240.36 92.7512 1240.36 M92.7512 1236.66 Q98.5613 1236.66 101.617 1241.27 Q104.696 1245.85 104.696 1254.6 Q104.696 1263.33 101.617 1267.93 Q98.5613 1272.52 92.7512 1272.52 Q86.941 1272.52 83.8623 1267.93 Q80.8068 1263.33 80.8068 1254.6 Q80.8068 1245.85 83.8623 1241.27 Q86.941 1236.66 92.7512 1236.66 Z" fill="#000000" fill-rule="nonzero" fill-opacity="1" /><path clip-path="url(#clip660)" d="M54.3949 898.927 L62.0337 898.927 L62.0337 872.561 L53.7236 874.228 L53.7236 869.968 L61.9874 868.302 L66.6633 868.302 L66.6633 898.927 L74.3022 898.927 L74.3022 902.862 L54.3949 902.862 L54.3949 898.927 Z" fill="#000000" fill-rule="nonzero" fill-opacity="1" /><path clip-path="url(#clip660)" d="M83.7929 868.302 L102.149 868.302 L102.149 872.237 L88.0753 872.237 L88.0753 880.709 Q89.0938 880.362 90.1123 880.2 Q91.1308 880.015 92.1493 880.015 Q97.9363 880.015 101.316 883.186 Q104.696 886.357 104.696 891.774 Q104.696 897.352 101.223 900.454 Q97.7511 903.533 91.4317 903.533 Q89.2558 903.533 86.9873 903.163 Q84.7419 902.792 82.3346 902.052 L82.3346 897.352 Q84.4179 898.487 86.6401 899.042 Q88.8623 899.598 91.3391 899.598 Q95.3437 899.598 97.6817 897.491 Q100.02 895.385 100.02 891.774 Q100.02 888.163 97.6817 886.056 Q95.3437 883.95 91.3391 883.95 Q89.4641 883.95 87.5892 884.366 Q85.7373 884.783 83.7929 885.663 L83.7929 868.302 Z" fill="#000000" fill-rule="nonzero" fill-opacity="1" /><path clip-path="url(#clip660)" d="M56.6171 529.943 L72.9365 529.943 L72.9365 533.878 L50.9921 533.878 L50.9921 529.943 Q53.6541 527.188 58.2375 522.559 Q62.8439 517.906 64.0245 516.563 Q66.2698 514.04 67.1494 512.304 Q68.0522 510.545 68.0522 508.855 Q68.0522 506.1 66.1078 504.364 Q64.1865 502.628 61.0847 502.628 Q58.8856 502.628 56.4319 503.392 Q54.0014 504.156 51.2236 505.707 L51.2236 500.985 Q54.0477 499.85 56.5014 499.272 Q58.955 498.693 60.9921 498.693 Q66.3624 498.693 69.5568 501.378 Q72.7513 504.063 72.7513 508.554 Q72.7513 510.684 71.9411 512.605 Q71.1541 514.503 69.0476 517.096 Q68.4689 517.767 65.367 520.985 Q62.2652 524.179 56.6171 529.943 Z" fill="#000000" fill-rule="nonzero" fill-opacity="1" /><path clip-path="url(#clip660)" d="M92.7512 502.397 Q89.1401 502.397 87.3114 505.961 Q85.5058 509.503 85.5058 516.633 Q85.5058 523.739 87.3114 527.304 Q89.1401 530.846 92.7512 530.846 Q96.3854 530.846 98.1909 527.304 Q100.02 523.739 100.02 516.633 Q100.02 509.503 98.1909 505.961 Q96.3854 502.397 92.7512 502.397 M92.7512 498.693 Q98.5613 498.693 101.617 503.299 Q104.696 507.883 104.696 516.633 Q104.696 525.36 101.617 529.966 Q98.5613 534.549 92.7512 534.549 Q86.941 534.549 83.8623 529.966 Q80.8068 525.36 80.8068 516.633 Q80.8068 507.883 83.8623 503.299 Q86.941 498.693 92.7512 498.693 Z" fill="#000000" fill-rule="nonzero" fill-opacity="1" /><path clip-path="url(#clip660)" d="M57.6125 160.959 L73.9318 160.959 L73.9318 164.894 L51.9875 164.894 L51.9875 160.959 Q54.6495 158.205 59.2328 153.575 Q63.8393 148.922 65.0198 147.58 Q67.2652 145.056 68.1448 143.32 Q69.0476 141.561 69.0476 139.871 Q69.0476 137.117 67.1032 135.381 Q65.1819 133.644 62.08 133.644 Q59.881 133.644 57.4273 134.408 Q54.9967 135.172 52.219 136.723 L52.219 132.001 Q55.043 130.867 57.4967 130.288 Q59.9504 129.709 61.9874 129.709 Q67.3578 129.709 70.5522 132.394 Q73.7466 135.08 73.7466 139.57 Q73.7466 141.7 72.9365 143.621 Q72.1494 145.519 70.0429 148.112 Q69.4642 148.783 66.3624 152.001 Q63.2606 155.195 57.6125 160.959 Z" fill="#000000" fill-rule="nonzero" fill-opacity="1" /><path clip-path="url(#clip660)" d="M83.7929 130.334 L102.149 130.334 L102.149 134.269 L88.0753 134.269 L88.0753 142.742 Q89.0938 142.394 90.1123 142.232 Q91.1308 142.047 92.1493 142.047 Q97.9363 142.047 101.316 145.218 Q104.696 148.39 104.696 153.806 Q104.696 159.385 101.223 162.487 Q97.7511 165.566 91.4317 165.566 Q89.2558 165.566 86.9873 165.195 Q84.7419 164.825 82.3346 164.084 L82.3346 159.385 Q84.4179 160.519 86.6401 161.075 Q88.8623 161.63 91.3391 161.63 Q95.3437 161.63 97.6817 159.524 Q100.02 157.417 100.02 153.806 Q100.02 150.195 97.6817 148.089 Q95.3437 145.982 91.3391 145.982 Q89.4641 145.982 87.5892 146.399 Q85.7373 146.816 83.7929 147.695 L83.7929 130.334 Z" fill="#000000" fill-rule="nonzero" fill-opacity="1" /><polyline clip-path="url(#clip662)" style="stroke:#009af9; stroke-linecap:round; stroke-linejoin:round; stroke-width:4; stroke-opacity:1; fill:none" points="203.301,1371.52 204.344,1377.66 205.388,1441.83 206.431,1445.72 207.475,1406.07 208.518,1410.55 209.562,1208.25 210.605,1214.33 211.648,1190.45 212.692,1197.61 213.735,1400.58 214.779,1405.04 215.822,1384.92 216.866,1388.33 217.909,907.81 218.952,915.994 219.996,1248.7 221.039,1252.18 222.083,989.671 223.126,994.865 224.17,1101.5 225.213,1107.32 226.256,988.086 227.3,994.443 228.343,988.721 229.387,997.243 230.43,969.059 231.473,974.445 232.517,616.995 233.56,624.201 234.604,857.029 235.647,863.808 236.691,502.619 237.734,512.813 238.777,912.715 239.821,919.452 240.864,834.024 241.908,839.407 242.951,917.455 243.995,921.38 245.038,771.91 246.081,777.241 247.125,632.52 248.168,639.41 249.212,719.269 250.255,723.846 251.299,633.757 252.342,643.708 253.385,691.518 254.429,696.411 255.472,717.848 256.516,724.534 257.559,514.662 258.603,520.384 259.646,546.285 260.689,552.735 261.733,648.775 262.776,654.405 263.82,569.242 264.863,574.678 265.907,356.071 266.95,360.094 267.993,358.27 269.037,364.705 270.08,522.428 271.124,526.616 272.167,382.728 273.21,386.397 274.254,278.592 275.297,282.158 276.341,267.091 277.384,272.474 278.428,580.616 279.471,584.84 280.514,502.709 281.558,507.509 282.601,477.881 283.645,480.497 284.688,304.695 285.732,308.844 286.775,210.653 287.818,215.734 288.862,310.664 289.905,313.945 290.949,434.862 291.992,438.643 293.036,366.975 294.079,371.517 295.122,268.879 296.166,273.441 297.209,345.277 298.253,350.141 299.296,155.649 300.34,160.848 301.383,461.77 302.426,464.617 303.47,329.58 304.513,333.276 305.557,337.095 306.6,340.113 307.643,468.457 308.687,471.237 309.73,306.756 310.774,310.072 311.817,374.234 312.861,383.708 313.904,278.524 314.947,280.923 315.991,266.773 317.034,273.636 318.078,345.134 319.121,350.185 320.165,436.528 321.208,439.576 322.251,311.608 323.295,316.569 324.338,361.672 325.382,366.112 326.425,293.797 327.469,296.172 328.512,392.704 329.555,394.101 330.599,353.078 331.642,354.979 332.686,424.081 333.729,425.45 334.773,159.847 335.816,162.732 336.859,318.088 337.903,319.925 338.946,369.127 339.99,376.866 341.033,269.035 342.077,274.954 343.12,361.34 344.163,364.337 345.207,306.897 346.25,311.291 347.294,338.978 348.337,342.429 349.38,355.147 350.424,357.883 351.467,348.718 352.511,353.576 353.554,303.43 354.598,305.473 355.641,389.974 356.684,392.738 357.728,339.749 358.771,342.688 359.815,367.725 360.858,372.077 361.902,317.41 362.945,323.482 363.988,373.986 365.032,378.762 366.075,248.75 367.119,251.14 368.162,306.551 369.206,314.35 370.249,300.161 371.292,304.911 372.336,376.697 373.379,380.678 374.423,384.603 375.466,386.909 376.51,339.609 377.553,342.675 378.596,265.13 379.64,269.577 380.683,344.615 381.727,347.477 382.77,353.525 383.813,356.215 384.857,275.194 385.9,278.165 386.944,290.17 387.987,295.224 389.031,285.806 390.074,289.47 391.117,316.694 392.161,319.127 393.204,297.638 394.248,301.525 395.291,273.458 396.335,278.967 397.378,334.796 398.421,337.271 399.465,184.312 400.508,187.605 401.552,283.338 402.595,287.696 403.639,306.366 404.682,313.245 405.725,279.923 406.769,285.574 407.812,301.4 408.856,303.168 409.899,312.524 410.943,315.454 411.986,287.314 413.029,289.315 414.073,282.047 415.116,284.897 416.16,325.297 417.203,326.704 418.247,299.682 419.29,301.081 420.333,270.407 421.377,274.276 422.42,164.3 423.464,165.503 424.507,286.532 425.55,288.41 426.594,187.154 427.637,189.191 428.681,291.284 429.724,295.136 430.768,326.868 431.811,333.977 432.854,291.034 433.898,295.111 434.941,352.399 435.985,355.675 437.028,252.717 438.072,261.997 439.115,212.7 440.158,219.564 441.202,259.576 442.245,262.277 443.289,226.084 444.332,228.892 445.376,315.755 446.419,320.608 447.462,275.962 448.506,277.718 449.549,277.56 450.593,279.132 451.636,280.475 452.68,282.644 453.723,267.78 454.766,269.9 455.81,211.1 456.853,217.273 457.897,287.226 458.94,288.733 459.984,285.909 461.027,287.94 462.07,283.311 463.114,285.426 464.157,318.098 465.201,320.63 466.244,295.761 467.287,296.951 468.331,160.021 469.374,163.003 470.418,303.029 471.461,307.405 472.505,278.103 473.548,282.256 474.591,314.369 475.635,317.75 476.678,248.886 477.722,251.079 478.765,270.486 479.809,272.091 480.852,272.107 481.895,276.614 482.939,288.488 483.982,290.317 485.026,303.421 486.069,305.994 487.113,270.942 488.156,275.383 489.199,271.827 490.243,274.728 491.286,213.238 492.33,216.866 493.373,302.711 494.417,304.489 495.46,274.079 496.503,280.832 497.547,276.363 498.59,281.033 499.634,276.549 500.677,277.793 501.72,240.628 502.764,245.235 503.807,286.357 504.851,288.556 505.894,294.947 506.938,300.417 507.981,299.912 509.024,303.126 510.068,262.974 511.111,265.393 512.155,326.702 513.198,327.86 514.242,279.011 515.285,288.056 516.328,300.081 517.372,303.024 518.415,284.57 519.459,287.468 520.502,270.141 521.546,273.781 522.589,335.833 523.632,340.927 524.676,286.75 525.719,289.887 526.763,286.863 527.806,291.954 528.85,330.783 529.893,334.182 530.936,245.884 531.98,250.016 533.023,326.785 534.067,329.633 535.11,298.487 536.154,303.325 537.197,310.662 538.24,312.193 539.284,224.27 540.327,228.541 541.371,217.219 542.414,220.824 543.457,280.723 544.501,285.085 545.544,311.912 546.588,313.675 547.631,301.221 548.675,304.842 549.718,308.745 550.761,311.58 551.805,281.959 552.848,284.576 553.892,261.695 554.935,264.642 555.979,269.605 557.022,271.393 558.065,259.096 559.109,260.586 560.152,291.284 561.196,294.282 562.239,279.308 563.283,286.455 564.326,255.04 565.369,257.535 566.413,295.803 567.456,298.994 568.5,264.029 569.543,265.437 570.587,273.5 571.63,282.116 572.673,192.512 573.717,197.092 574.76,276.227 575.804,279.156 576.847,277.801 577.89,282.73 578.934,275.204 579.977,278.677 581.021,303.672 582.064,307.436 583.108,258.979 584.151,261.389 585.194,306.321 586.238,306.828 587.281,192.131 588.325,195.309 589.368,307.295 590.412,309.039 591.455,279.075 592.498,284.362 593.542,260.341 594.585,263.509 595.629,259.218 596.672,262.497 597.716,259.781 598.759,263.699 599.802,291.655 600.846,295.817 601.889,225.464 602.933,227.291 603.976,280.262 605.02,281.862 606.063,247.949 607.106,252.067 608.15,278.832 609.193,284.655 610.237,279.947 611.28,281.732 612.324,297.807 613.367,299.434 614.41,197.685 615.454,204.602 616.497,264.663 617.541,266.074 618.584,260.71 619.627,263.238 620.671,276.719 621.714,281.949 622.758,266.495 623.801,268.47 624.845,179.952 625.888,188.193 626.931,269.032 627.975,271.679 629.018,237.213 630.062,242.582 631.105,264.794 632.149,269.335 633.192,186.845 634.235,193.519 635.279,284.936 636.322,287.159 637.366,277.026 638.409,280.763 639.453,210.795 640.496,215.793 641.539,278.424 642.583,280.581 643.626,294.923 644.67,296.081 645.713,281.762 646.757,284.593 647.8,261.995 648.843,265.81 649.887,265.121 650.93,266.293 651.974,204.312 653.017,205.889 654.06,255.882 655.104,260.469 656.147,272.725 657.191,273.872 658.234,280.495 659.278,281.935 660.321,275.903 661.364,277.922 662.408,278.148 663.451,280.901 664.495,267.444 665.538,269.038 666.582,297.293 667.625,299.212 668.668,263.034 669.712,264.04 670.755,260.529 671.799,266.335 672.842,298.247 673.886,301.025 674.929,240.87 675.972,245.855 677.016,255.203 678.059,262.061 679.103,263.617 680.146,265.266 681.19,263.637 682.233,269.225 683.276,301.972 684.32,303.439 685.363,277.42 686.407,280.619 687.45,280.115 688.494,282.74 689.537,288.074 690.58,290.664 691.624,265.78 692.667,267.327 693.711,293.135 694.754,294.429 695.797,282.727 696.841,286.658 697.884,204.158 698.928,207.322 699.971,269.552 701.015,271.721 702.058,265.654 703.101,267.458 704.145,264.727 705.188,266.784 706.232,271.283 707.275,272.88 708.319,297.232 709.362,298.328 710.405,283.067 711.449,284.301 712.492,281.462 713.536,284.107 714.579,276.978 715.623,279.797 716.666,275.337 717.709,280.763 718.753,287.701 719.796,290.849 720.84,265.238 721.883,271.519 722.927,241.87 723.97,243.601 725.013,276.392 726.057,281.658 727.1,285.358 728.144,288.729 729.187,279.954 730.23,288.016 731.274,287.994 732.317,290.801 733.361,277.08 734.404,281.943 735.448,258.31 736.491,260.244 737.534,261.915 738.578,263.385 739.621,268.494 740.665,272.134 741.708,251.821 742.752,255.468 743.795,283.497 744.838,286.801 745.882,244.386 746.925,246.424 747.969,281 749.012,284.289 750.056,265.651 751.099,266.76 752.142,284.253 753.186,285.496 754.229,269.252 755.273,274.526 756.316,275.479 757.36,276.284 758.403,292.044 759.446,293.472 760.49,249.496 761.533,255.113 762.577,277.276 763.62,280.828 764.664,258.478 765.707,260.093 766.75,287.073 767.794,290.277 768.837,264.996 769.881,269.716 770.924,258.35 771.967,265.202 773.011,263.423 774.054,265.862 775.098,257.685 776.141,262.473 777.185,258.654 778.228,259.839 779.271,240.734 780.315,245.893 781.358,255.182 782.402,257.522 783.445,262.708 784.489,263.502 785.532,248.7 786.575,254.179 787.619,287.134 788.662,289.254 789.706,288.298 790.749,295 791.793,258.972 792.836,261.464 793.879,259.298 794.923,261.478 795.966,279.997 797.01,281.555 798.053,297.595 799.097,299.47 800.14,250.762 801.183,253.609 802.227,174.282 803.27,186.312 804.314,251.544 805.357,259.182 806.401,280.93 807.444,287.466 808.487,240.89 809.531,247.106 810.574,248.351 811.618,250.457 812.661,283.637 813.704,287.473 814.748,239.406 815.791,244.546 816.835,277.686 817.878,285.451 818.922,257.82 819.965,259.68 821.008,191.153 822.052,195.822 823.095,252.435 824.139,262.429 825.182,288.035 826.226,292.806 827.269,261.63 828.312,262.262 829.356,245.792 830.399,247.077 831.443,269.143 832.486,271.355 833.53,255.76 834.573,257.224 835.616,259.184 836.66,261.884 837.703,281.145 838.747,286.298 839.79,272.58 840.834,275.316 841.877,292.028 842.92,296.444 843.964,270.056 845.007,271.991 846.051,261.423 847.094,267.789 848.137,250.995 849.181,253.288 850.224,269.013 851.268,271.06 852.311,274.967 853.355,280.3 854.398,256.863 855.441,263.377 856.485,267.524 857.528,271.799 858.572,271.6 859.615,273.437 860.659,268.317 861.702,268.867 862.745,265.222 863.789,268.51 864.832,268.553 865.876,274.109 866.919,269.911 867.963,271.3 869.006,274.235 870.049,275.593 871.093,288.386 872.136,291.075 873.18,291.172 874.223,293.776 875.267,297.433 876.31,300.692 877.353,297.601 878.397,298.684 879.44,255.811 880.484,258.983 881.527,272.655 882.571,273.379 883.614,266.021 884.657,269.556 885.701,273.058 886.744,276.516 887.788,285.933 888.831,288.259 889.874,270.96 890.918,273.768 891.961,241.157 893.005,243.901 894.048,256.67 895.092,260.641 896.135,268.109 897.178,268.85 898.222,263.406 899.265,266.498 900.309,253.825 901.352,255.824 902.396,289.486 903.439,293.088 904.482,263.078 905.526,265.682 906.569,155.33 907.613,158.44 908.656,263.794 909.7,264.973 910.743,269.653 911.786,272.208 912.83,257.734 913.873,257.96 914.917,250.615 915.96,253.643 917.004,272.231 918.047,278.907 919.09,308.033 920.134,310.311 921.177,200.24 922.221,204.52 923.264,290.25 924.307,291.352 925.351,291.09 926.394,292.544 927.438,284.081 928.481,287.367 929.525,257.059 930.568,261.546 931.611,250.03 932.655,255.542 933.698,236.453 934.742,243.621 935.785,285.656 936.829,288.213 937.872,292.886 938.915,295.209 939.959,265.282 941.002,266.375 942.046,263.365 943.089,267.633 944.133,291.499 945.176,297.423 946.219,261.8 947.263,263.71 948.306,258.643 949.35,261.099 950.393,275.543 951.437,281.313 952.48,260.311 953.523,261.867 954.567,264.537 955.61,270.323 956.654,248.994 957.697,259.061 958.741,278.85 959.784,280.023 960.827,202.514 961.871,206.034 962.914,295.381 963.958,298.675 965.001,284.98 966.044,286.674 967.088,254.887 968.131,258.496 969.175,273.472 970.218,277.914 971.262,268.422 972.305,274.814 973.348,257.606 974.392,261.725 975.435,286.038 976.479,287.505 977.522,281.225 978.566,288.577 979.609,293.611 980.652,294.424 981.696,278.755 982.739,282.148 983.783,285.732 984.826,288.941 985.87,288.537 986.913,291.387 987.956,294.701 989,297.492 990.043,185.222 991.087,192.068 992.13,270.864 993.174,275.085 994.217,260.417 995.26,263.725 996.304,256.222 997.347,260.365 998.391,275.784 999.434,277.706 1000.48,251.307 1001.52,255.176 1002.56,255.667 1003.61,260.819 1004.65,249.544 1005.69,257.318 1006.74,268.572 1007.78,272.382 1008.82,280.208 1009.87,285.07 1010.91,283.458 1011.96,287.135 1013,228.368 1014.04,238.741 1015.09,264.391 1016.13,266.951 1017.17,244.871 1018.22,247.616 1019.26,282.373 1020.3,286.366 1021.35,271.209 1022.39,273.522 1023.43,280.728 1024.48,281.835 1025.52,281.236 1026.56,286.761 1027.61,296.042 1028.65,297.893 1029.69,305.446 1030.74,309.339 1031.78,260.132 1032.82,264.699 1033.87,268.712 1034.91,271.276 1035.95,294.846 1037,300.878 1038.04,272.698 1039.08,278.844 1040.13,277.1 1041.17,279.048 1042.21,284.214 1043.26,287.297 1044.3,271.047 1045.34,273.101 1046.39,267.14 1047.43,270.444 1048.48,288.883 1049.52,291.808 1050.56,263.337 1051.61,265.325 1052.65,272.784 1053.69,273.948 1054.74,264.471 1055.78,270.013 1056.82,270.884 1057.87,272.558 1058.91,275.57 1059.95,278.465 1061,299.8 1062.04,302.879 1063.08,292.481 1064.13,295.054 1065.17,245.747 1066.21,251.816 1067.26,275.825 1068.3,280.683 1069.34,247.819 1070.39,251.012 1071.43,262.535 1072.47,264.826 1073.52,261.518 1074.56,263.883 1075.6,266.999 1076.65,268.472 1077.69,250.464 1078.73,253.065 1079.78,259.408 1080.82,263.298 1081.86,265.063 1082.91,267.02 1083.95,250.882 1084.99,255.13 1086.04,257.051 1087.08,260.938 1088.13,231.861 1089.17,237.247 1090.21,244.8 1091.26,248.867 1092.3,253.092 1093.34,256.68 1094.39,259.992 1095.43,263.641 1096.47,297.959 1097.52,301.732 1098.56,273.508 1099.6,278.701 1100.65,280.41 1101.69,281.414 1102.73,294.248 1103.78,295.469 1104.82,241.908 1105.86,252.269 1106.91,261.71 1107.95,264.203 1108.99,258.686 1110.04,261.786 1111.08,266.932 1112.12,272.531 1113.17,250.816 1114.21,256.414 1115.25,261.019 1116.3,263.674 1117.34,271.817 1118.38,273.246 1119.43,266.436 1120.47,268.656 1121.51,251.37 1122.56,252.798 1123.6,242.507 1124.65,244.805 1125.69,273.823 1126.73,275.381 1127.78,247.983 1128.82,250.584 1129.86,243.919 1130.91,248.372 1131.95,281.417 1132.99,288.636 1134.04,267.779 1135.08,270.173 1136.12,257.163 1137.17,258.769 1138.21,255.361 1139.25,257.448 1140.3,258.147 1141.34,259.422 1142.38,246.072 1143.43,251.909 1144.47,273.827 1145.51,278.338 1146.56,256.106 1147.6,260.307 1148.64,263.232 1149.69,267.701 1150.73,263.559 1151.77,266.352 1152.82,252.824 1153.86,255.869 1154.9,272.159 1155.95,276.577 1156.99,247.906 1158.03,251.816 1159.08,269.062 1160.12,271.831 1161.16,253.014 1162.21,255.75 1163.25,277.099 1164.3,280.143 1165.34,243.879 1166.38,248.906 1167.43,248.556 1168.47,255.271 1169.51,279.774 1170.56,287 1171.6,291.021 1172.64,292.616 1173.69,245.474 1174.73,252.896 1175.77,262.63 1176.82,268.776 1177.86,268.012 1178.9,271.538 1179.95,260.92 1180.99,265.519 1182.03,237.769 1183.08,244.951 1184.12,258.859 1185.16,260.406 1186.21,272.078 1187.25,275.92 1188.29,184.863 1189.34,187.868 1190.38,253.175 1191.42,257.593 1192.47,295.893 1193.51,299.259 1194.55,259.017 1195.6,261.723 1196.64,261.887 1197.68,265.874 1198.73,259.578 1199.77,260.876 1200.82,243.784 1201.86,247.656 1202.9,283.139 1203.95,286.155 1204.99,256.348 1206.03,260.256 1207.08,248.019 1208.12,249.912 1209.16,297.609 1210.21,300.119 1211.25,270.433 1212.29,272.292 1213.34,256.247 1214.38,260.285 1215.42,256.71 1216.47,261.182 1217.51,267.291 1218.55,269.745 1219.6,251.268 1220.64,256.115 1221.68,251.304 1222.73,257.14 1223.77,283.358 1224.81,289.186 1225.86,265.291 1226.9,266.734 1227.94,237.407 1228.99,243.784 1230.03,266.405 1231.07,270.109 1232.12,259.531 1233.16,262.466 1234.2,259.862 1235.25,263.399 1236.29,271.159 1237.33,274.606 1238.38,262.203 1239.42,271.666 1240.47,249.258 1241.51,253.71 1242.55,257.664 1243.6,259.946 1244.64,260.827 1245.68,265.188 1246.73,264.171 1247.77,266.697 1248.81,274.31 1249.86,275.836 1250.9,170.601 1251.94,171.137 1252.99,260.129 1254.03,267.998 1255.07,251.806 1256.12,252.114 1257.16,249.463 1258.2,252.606 1259.25,249.542 1260.29,250.24 1261.33,257.7 1262.38,260.727 1263.42,258.084 1264.46,260.532 1265.51,275.893 1266.55,277.679 1267.59,307.28 1268.64,308.401 1269.68,311.922 1270.72,312.853 1271.77,306.809 1272.81,309.804 1273.85,257.108 1274.9,260.938 1275.94,289.084 1276.99,292.183 1278.03,265.466 1279.07,270.571 1280.12,253.53 1281.16,254.869 1282.2,253.705 1283.25,254.959 1284.29,263.65 1285.33,264.544 1286.38,249.959 1287.42,256.048 1288.46,252.998 1289.51,255.88 1290.55,261.96 1291.59,269.609 1292.64,262.64 1293.68,266.236 1294.72,262.617 1295.77,262.942 1296.81,258.826 1297.85,265.7 1298.9,258.325 1299.94,262.846 1300.98,259.538 1302.03,261.081 1303.07,268.014 1304.11,271.079 1305.16,268.996 1306.2,271.532 1307.24,240.418 1308.29,244.348 1309.33,260.578 1310.37,262.449 1311.42,257.673 1312.46,259.421 1313.5,257.571 1314.55,258.22 1315.59,259.409 1316.64,262.326 1317.68,263.003 1318.72,263.749 1319.77,254.217 1320.81,256.541 1321.85,256.505 1322.9,257.251 1323.94,249.511 1324.98,253.578 1326.03,255.176 1327.07,256.859 1328.11,259.29 1329.16,262.418 1330.2,273.837 1331.24,276.815 1332.29,263.414 1333.33,264.969 1334.37,261.4 1335.42,264.368 1336.46,274.232 1337.5,276.122 1338.55,260.056 1339.59,265.909 1340.63,168.802 1341.68,171.248 1342.72,249.823 1343.76,252.937 1344.81,153.87 1345.85,156.339 1346.89,264.047 1347.94,267.724 1348.98,252.101 1350.02,255.377 1351.07,240.11 1352.11,247.889 1353.16,280.773 1354.2,281.678 1355.24,280.197 1356.29,282.498 1357.33,255.513 1358.37,256.323 1359.42,269.664 1360.46,271.099 1361.5,271.341 1362.55,272.599 1363.59,251.564 1364.63,254.249 1365.68,254.076 1366.72,256.373 1367.76,256.119 1368.81,259.229 1369.85,259.144 1370.89,263.299 1371.94,264.687 1372.98,265.889 1374.02,255.94 1375.07,257.902 1376.11,253.606 1377.15,257.771 1378.2,279.16 1379.24,283.146 1380.28,256.137 1381.33,259.783 1382.37,272.939 1383.41,275.756 1384.46,271.701 1385.5,274.829 1386.54,252.143 1387.59,256.693 1388.63,245.007 1389.67,247.518 1390.72,263.03 1391.76,266.211 1392.81,163.365 1393.85,164.836 1394.89,248.169 1395.94,255.375 1396.98,263.182 1398.02,264.179 1399.07,248.711 1400.11,253.574 1401.15,251.96 1402.2,253.263 1403.24,267.645 1404.28,268.682 1405.33,255.864 1406.37,258.115 1407.41,266.149 1408.46,269.894 1409.5,251.434 1410.54,254.219 1411.59,244.399 1412.63,249.079 1413.67,257.794 1414.72,260.265 1415.76,265.05 1416.8,266.285 1417.85,266.512 1418.89,269.028 1419.93,257.554 1420.98,260.502 1422.02,249.168 1423.06,255.728 1424.11,260.32 1425.15,263.186 1426.19,257.395 1427.24,259.617 1428.28,249.873 1429.33,253.415 1430.37,248.726 1431.41,250.627 1432.46,257.962 1433.5,264.147 1434.54,262.906 1435.59,266.886 1436.63,290.401 1437.67,292.406 1438.72,280.704 1439.76,285.996 1440.8,281.7 1441.85,284.693 1442.89,292.87 1443.93,294.461 1444.98,315.234 1446.02,316.306 1447.06,275.037 1448.11,277.392 1449.15,287.56 1450.19,292.679 1451.24,324.192 1452.28,327.272 1453.32,268.466 1454.37,271.329 1455.41,259.159 1456.45,265.558 1457.5,254.41 1458.54,261.266 1459.58,283.168 1460.63,284.87 1461.67,273.521 1462.71,278.071 1463.76,262.146 1464.8,265.121 1465.84,257.263 1466.89,261.474 1467.93,237.985 1468.98,246.097 1470.02,258.724 1471.06,260.74 1472.11,249.006 1473.15,250.622 1474.19,259.233 1475.24,263.088 1476.28,263.144 1477.32,264.518 1478.37,257.346 1479.41,258.66 1480.45,273.764 1481.5,275.13 1482.54,229.137 1483.58,236.089 1484.63,245.688 1485.67,248.076 1486.71,255.724 1487.76,258.411 1488.8,248.38 1489.84,251.876 1490.89,255.359 1491.93,258.787 1492.97,242.943 1494.02,245.745 1495.06,250.137 1496.1,250.582 1497.15,249.954 1498.19,252.792 1499.23,256.81 1500.28,257.61 1501.32,256.691 1502.36,257.849 1503.41,264.992 1504.45,267.213 1505.5,264.382 1506.54,267.699 1507.58,266.564 1508.63,268.674 1509.67,250.262 1510.71,253.941 1511.76,256.672 1512.8,259.874 1513.84,268.306 1514.89,272.957 1515.93,263.524 1516.97,264.331 1518.02,249.269 1519.06,252.02 1520.1,292.307 1521.15,293.184 1522.19,259.418 1523.23,260.955 1524.28,246.997 1525.32,250.573 1526.36,254.004 1527.41,255.748 1528.45,265.388 1529.49,265.911 1530.54,260.227 1531.58,261.302 1532.62,251.783 1533.67,253.354 1534.71,256.745 1535.75,259.436 1536.8,250.533 1537.84,253.99 1538.88,257.397 1539.93,259.659 1540.97,259.801 1542.01,262.284 1543.06,270.749 1544.1,274.999 1545.15,284.573 1546.19,287.802 1547.23,266.919 1548.28,271.282 1549.32,251.031 1550.36,258.228 1551.41,268.14 1552.45,270.545 1553.49,277.755 1554.54,280.147 1555.58,293.974 1556.62,297.005 1557.67,275.44 1558.71,280.157 1559.75,261.492 1560.8,266.767 1561.84,252.273 1562.88,260.687 1563.93,266.52 1564.97,267.468 1566.01,257.723 1567.06,260.176 1568.1,261.557 1569.14,264.973 1570.19,279.195 1571.23,282.966 1572.27,267.585 1573.32,269.507 1574.36,270.192 1575.4,272.471 1576.45,279.679 1577.49,282.901 1578.53,295.895 1579.58,301.091 1580.62,267.623 1581.67,274.854 1582.71,316.923 1583.75,322.027 1584.8,288.603 1585.84,292.437 1586.88,251.452 1587.93,257.035 1588.97,260.733 1590.01,266.921 1591.06,261.552 1592.1,264.565 1593.14,277.82 1594.19,280.819 1595.23,269.272 1596.27,273.492 1597.32,279.871 1598.36,284.816 1599.4,280.145 1600.45,282.137 1601.49,256.78 1602.53,259.853 1603.58,260.615 1604.62,263.649 1605.66,266.322 1606.71,271.652 1607.75,249.15 1608.79,251.695 1609.84,247.183 1610.88,254.901 1611.92,254.796 1612.97,257.561 1614.01,264.234 1615.05,266.542 1616.1,243.578 1617.14,246.109 1618.18,251.092 1619.23,252.186 1620.27,251.071 1621.32,253.354 1622.36,244.506 1623.4,248.924 1624.45,249.571 1625.49,250.352 1626.53,257.594 1627.58,264.086 1628.62,260.555 1629.66,262.469 1630.71,244.726 1631.75,248.7 1632.79,264.664 1633.84,268.282 1634.88,146.9 1635.92,151.391 1636.97,261.27 1638.01,264.62 1639.05,259.492 1640.1,263.9 1641.14,171.595 1642.18,178.865 1643.23,272.056 1644.27,276.454 1645.31,265.246 1646.36,269.274 1647.4,277.306 1648.44,280.851 1649.49,278.577 1650.53,283.149 1651.57,271.228 1652.62,275.161 1653.66,239.349 1654.7,247.493 1655.75,256.766 1656.79,258.531 1657.84,282.151 1658.88,285.456 1659.92,278.429 1660.97,280.188 1662.01,265.267 1663.05,267.413 1664.1,258.605 1665.14,267.058 1666.18,267.25 1667.23,268.483 1668.27,253.598 1669.31,259.681 1670.36,267.899 1671.4,268.832 1672.44,263.852 1673.49,265.678 1674.53,265.556 1675.57,270.064 1676.62,261.924 1677.66,264.195 1678.7,271.662 1679.75,273.284 1680.79,275.028 1681.83,277.167 1682.88,278.813 1683.92,285.136 1684.96,283.15 1686.01,291.245 1687.05,244.944 1688.09,252.702 1689.14,267.379 1690.18,269.352 1691.22,259.681 1692.27,261.219 1693.31,265.764 1694.35,268.203 1695.4,276.908 1696.44,280.086 1697.49,258.909 1698.53,263.271 1699.57,257.051 1700.62,260.282 1701.66,241.577 1702.7,247.827 1703.75,258.29 1704.79,262.025 1705.83,260.244 1706.88,264.148 1707.92,269.287 1708.96,270.554 1710.01,289.725 1711.05,292.254 1712.09,262.343 1713.14,265.34 1714.18,271.02 1715.22,277.905 1716.27,248.63 1717.31,260.812 1718.35,295.941 1719.4,298.287 1720.44,245.3 1721.48,251.455 1722.53,87.9763 1723.57,93.3973 1724.61,269.647 1725.66,270.362 1726.7,246.8 1727.74,251.021 1728.79,256.669 1729.83,260.393 1730.87,257.841 1731.92,260.414 1732.96,252.073 1734.01,255.135 1735.05,276.911 1736.09,278.637 1737.14,279.111 1738.18,280.539 1739.22,257.02 1740.27,258.524 1741.31,278.681 1742.35,282.464 1743.4,269.918 1744.44,274.852 1745.48,253.527 1746.53,255.627 1747.57,276.005 1748.61,279.309 1749.66,270.591 1750.7,274.6 1751.74,280.538 1752.79,281.983 1753.83,265.896 1754.87,267.734 1755.92,265.717 1756.96,271.652 1758,267.979 1759.05,271.013 1760.09,272.121 1761.13,277.98 1762.18,291.399 1763.22,292.628 1764.26,247.106 1765.31,252.835 1766.35,246.483 1767.39,249.292 1768.44,263.79 1769.48,267.138 1770.52,273.985 1771.57,277.854 1772.61,270.748 1773.66,272.404 1774.7,284.16 1775.74,287.752 1776.79,293.495 1777.83,295.809 1778.87,257.71 1779.92,263.756 1780.96,274.726 1782,276.859 1783.05,279.56 1784.09,282.331 1785.13,253.014 1786.18,258.803 1787.22,263.478 1788.26,264.273 1789.31,253.842 1790.35,258.076 1791.39,271.312 1792.44,274.222 1793.48,246.936 1794.52,250.216 1795.57,277.245 1796.61,281.482 1797.65,277.216 1798.7,281.429 1799.74,291.508 1800.78,293.863 1801.83,287.936 1802.87,288.933 1803.91,270.36 1804.96,273.07 1806,282.605 1807.04,285.544 1808.09,280.557 1809.13,282.735 1810.18,291.932 1811.22,293.981 1812.26,283.429 1813.31,285.847 1814.35,275.561 1815.39,279.163 1816.44,265.505 1817.48,270.357 1818.52,301.194 1819.57,303.557 1820.61,285.532 1821.65,292.441 1822.7,293.966 1823.74,295.382 1824.78,287.484 1825.83,290.985 1826.87,284.784 1827.91,285.6 1828.96,182.681 1830,188.364 1831.04,259.199 1832.09,263.441 1833.13,255.977 1834.17,261.552 1835.22,241.724 1836.26,245.575 1837.3,256.535 1838.35,257.479 1839.39,265.388 1840.43,270.992 1841.48,270.916 1842.52,271.395 1843.56,271.225 1844.61,273.983 1845.65,270.948 1846.69,273.363 1847.74,258.394 1848.78,265.793 1849.83,294.75 1850.87,299.139 1851.91,261.641 1852.96,262.956 1854,255.186 1855.04,259.307 1856.09,268.582 1857.13,271.995 1858.17,253.963 1859.22,260.585 1860.26,281.949 1861.3,282.349 1862.35,259.046 1863.39,263.807 1864.43,254.96 1865.48,257.903 1866.52,263.52 1867.56,264.952 1868.61,261.036 1869.65,263.263 1870.69,250.103 1871.74,253.183 1872.78,265.564 1873.82,267.896 1874.87,265.605 1875.91,267.953 1876.95,249.159 1878,258.852 1879.04,270.689 1880.08,274.439 1881.13,276.708 1882.17,279.555 1883.21,251.321 1884.26,257.288 1885.3,276.005 1886.35,281.199 1887.39,253.263 1888.43,261.701 1889.48,243.15 1890.52,249.151 1891.56,264.53 1892.61,267.338 1893.65,265.237 1894.69,271.403 1895.74,247.779 1896.78,252.704 1897.82,249.975 1898.87,251.852 1899.91,257.903 1900.95,264.115 1902,258.643 1903.04,263.155 1904.08,270.785 1905.13,272.603 1906.17,279.434 1907.21,280.74 1908.26,276.736 1909.3,280.418 1910.34,267.257 1911.39,273.449 1912.43,249.955 1913.47,256.264 1914.52,274.848 1915.56,278.232 1916.6,284.178 1917.65,285.795 1918.69,293.853 1919.73,299.586 1920.78,291.962 1921.82,292.792 1922.86,289.056 1923.91,291.266 1924.95,285.401 1926,290.221 1927.04,284.745 1928.08,285.959 1929.13,272.585 1930.17,273.356 1931.21,274.662 1932.26,281.158 1933.3,256.686 1934.34,263.553 1935.39,254.27 1936.43,259.934 1937.47,302.756 1938.52,307.09 1939.56,285.237 1940.6,286.771 1941.65,262.627 1942.69,265.114 1943.73,271.664 1944.78,274.838 1945.82,257.025 1946.86,260.175 1947.91,248.625 1948.95,251.589 1949.99,271.708 1951.04,276.567 1952.08,267.446 1953.12,271.805 1954.17,258.335 1955.21,259.547 1956.25,273.404 1957.3,274.658 1958.34,265.349 1959.38,266.161 1960.43,272.703 1961.47,275.844 1962.52,271.553 1963.56,278.594 1964.6,290.964 1965.65,292.778 1966.69,249.426 1967.73,253.788 1968.78,259.923 1969.82,261.553 1970.86,259.56 1971.91,264.241 1972.95,257.497 1973.99,261.698 1975.04,265.908 1976.08,267.237 1977.12,263.416 1978.17,264.506 1979.21,270.313 1980.25,272.863 1981.3,252.044 1982.34,254.844 1983.38,251.805 1984.43,253.453 1985.47,255.403 1986.51,256.177 1987.56,263.938 1988.6,267.828 1989.64,263.919 1990.69,266.503 1991.73,230.878 1992.77,240.931 1993.82,254.215 1994.86,258.803 1995.9,257.748 1996.95,260.599 1997.99,249.141 1999.03,251.201 2000.08,243.468 2001.12,246.377 2002.17,244.935 2003.21,246.978 2004.25,263.541 2005.3,266.39 2006.34,269.284 2007.38,273.986 2008.43,243.423 2009.47,247.168 2010.51,264.969 2011.56,270.905 2012.6,275.731 2013.64,276.143 2014.69,247.075 2015.73,249.716 2016.77,266.398 2017.82,270.585 2018.86,284.536 2019.9,285.836 2020.95,275.275 2021.99,280.349 2023.03,282.818 2024.08,287.431 2025.12,293.814 2026.16,295.965 2027.21,306.604 2028.25,309.675 2029.29,274.365 2030.34,276.809 2031.38,260.4 2032.42,267.733 2033.47,273.426 2034.51,276.136 2035.55,277.565 2036.6,281.362 2037.64,264.239 2038.69,268.692 2039.73,280.101 2040.77,281.589 2041.82,262.974 2042.86,266.221 2043.9,258.408 2044.95,262.908 2045.99,264.626 2047.03,266.552 2048.08,252.846 2049.12,255.325 2050.16,271.684 2051.21,275.332 2052.25,269.66 2053.29,274.657 2054.34,267.547 2055.38,272.861 2056.42,279.163 2057.47,282.385 2058.51,266.554 2059.55,269.749 2060.6,263.438 2061.64,267.037 2062.68,262.205 2063.73,269.204 2064.77,279.345 2065.81,281.638 2066.86,256.406 2067.9,262.251 2068.94,253.627 2069.99,255.228 2071.03,261.978 2072.07,266.473 2073.12,259.675 2074.16,263.835 2075.2,272.028 2076.25,274.963 2077.29,264.905 2078.34,267.788 2079.38,256.953 2080.42,257.832 2081.47,247.743 2082.51,252.498 2083.55,254.483 2084.6,255.688 2085.64,250.724 2086.68,252.557 2087.73,250.187 2088.77,252.76 2089.81,261.273 2090.86,262.753 2091.9,260.551 2092.94,263.167 2093.99,281.27 2095.03,291.297 2096.07,291.91 2097.12,294.05 2098.16,261.04 2099.2,263.569 2100.25,288.603 2101.29,290.593 2102.33,285.804 2103.38,289.19 2104.42,270.469 2105.46,271.694 2106.51,286.002 2107.55,286.622 2108.59,273.859 2109.64,275.191 2110.68,258.604 2111.72,260.56 2112.77,246.608 2113.81,252.047 2114.86,136.737 2115.9,139.884 2116.94,267.32 2117.99,268.191 2119.03,251.104 2120.07,253.453 2121.12,250.386 2122.16,252.369 2123.2,251.482 2124.25,254.715 2125.29,257.927 2126.33,259.266 2127.38,264.673 2128.42,268.102 2129.46,244.158 2130.51,251.344 2131.55,256.732 2132.59,263.154 2133.64,274.557 2134.68,276.025 2135.72,228.258 2136.77,235.301 2137.81,250.356 2138.85,253.046 2139.9,260.452 2140.94,266.347 2141.98,255.868 2143.03,259.123 2144.07,257.426 2145.11,260.863 2146.16,261.749 2147.2,263.275 2148.24,252.364 2149.29,254.888 2150.33,261.729 2151.37,263.313 2152.42,268.876 2153.46,271.38 2154.51,258.532 2155.55,265.114 2156.59,277.657 2157.64,279.199 2158.68,265.228 2159.72,268.115 2160.77,245.038 2161.81,248.798 2162.85,248.86 2163.9,260.515 2164.94,242.842 2165.98,247.734 2167.03,258.373 2168.07,259.754 2169.11,268.566 2170.16,274.82 2171.2,273.637 2172.24,279.427 2173.29,264.307 2174.33,265.649 2175.37,242.056 2176.42,248.049 2177.46,269.758 2178.5,273.846 2179.55,239.7 2180.59,246.921 2181.63,263.958 2182.68,266.51 2183.72,272.892 2184.76,276.134 2185.81,261.282 2186.85,266.106 2187.89,275.985 2188.94,279.284 2189.98,270.883 2191.03,272.151 2192.07,263.886 2193.11,266.94 2194.16,253.195 2195.2,260.769 2196.24,247.219 2197.29,250.951 2198.33,278.321 2199.37,281.75 2200.42,271.9 2201.46,273.11 2202.5,227.195 2203.55,236.844 2204.59,257.641 2205.63,261.119 2206.68,252.37 2207.72,255.434 2208.76,264.617 2209.81,266.693 2210.85,254.562 2211.89,256.444 2212.94,256.019 2213.98,257.351 2215.02,249.346 2216.07,256.115 2217.11,260.866 2218.15,264.104 2219.2,280.25 2220.24,282.17 2221.28,275.488 2222.33,278.056 2223.37,266.142 2224.41,267.853 2225.46,252.499 2226.5,254.866 2227.54,261.875 2228.59,264.089 2229.63,149.866 2230.68,151.991 2231.72,285.728 2232.76,294.318 2233.81,260.633 2234.85,265.95 2235.89,262.162 2236.94,264.827 2237.98,239.507 2239.02,245.987 2240.07,260.15 2241.11,262.832 2242.15,279.358 2243.2,282.128 2244.24,243.223 2245.28,247.847 2246.33,263.098 2247.37,266.727 2248.41,256.112 2249.46,259.392 2250.5,262.761 2251.54,263.165 2252.59,267.106 2253.63,267.945 2254.67,289.213 2255.72,290.937 2256.76,251.448 2257.8,257.931 2258.85,257.524 2259.89,259.082 2260.93,256.992 2261.98,259.937 2263.02,266.256 2264.06,269.984 2265.11,285.389 2266.15,290.601 2267.2,277.901 2268.24,278.959 2269.28,252.256 2270.33,257.612 2271.37,239.027 2272.41,243.298 2273.46,252.72 2274.5,254.082 2275.54,248.89 2276.59,252.813 2277.63,253.482 2278.67,256.131 2279.72,249.739 2280.76,253.453 2281.8,260.281 2282.85,262.968 2283.89,255.562 2284.93,259.729 2285.98,263.71 2287.02,266.542 2288.06,260.064 2289.11,263.51 2290.15,264.964 "/>
<path clip-path="url(#clip660)" d="M2005.38 1438.47 L2279.02 1438.47 L2279.02 1334.79 L2005.38 1334.79  Z" fill="#ffffff" fill-rule="evenodd" fill-opacity="1"/>
<polyline clip-path="url(#clip660)" style="stroke:#000000; stroke-linecap:round; stroke-linejoin:round; stroke-width:4; stroke-opacity:1; fill:none" points="2005.38,1438.47 2279.02,1438.47 2279.02,1334.79 2005.38,1334.79 2005.38,1438.47 "/>
<polyline clip-path="url(#clip660)" style="stroke:#009af9; stroke-linecap:round; stroke-linejoin:round; stroke-width:4; stroke-opacity:1; fill:none" points="2029.96,1386.63 2177.43,1386.63 "/>
<path clip-path="url(#clip660)" d="M2215.85 1406.32 Q2214.05 1410.95 2212.34 1412.36 Q2210.62 1413.78 2207.75 1413.78 L2204.35 1413.78 L2204.35 1410.21 L2206.85 1410.21 Q2208.61 1410.21 2209.58 1409.38 Q2210.55 1408.54 2211.73 1405.44 L2212.5 1403.5 L2202.01 1377.99 L2206.53 1377.99 L2214.63 1398.27 L2222.73 1377.99 L2227.24 1377.99 L2215.85 1406.32 Z" fill="#000000" fill-rule="nonzero" fill-opacity="1" /><path clip-path="url(#clip660)" d="M2234.53 1399.98 L2242.17 1399.98 L2242.17 1373.61 L2233.86 1375.28 L2233.86 1371.02 L2242.13 1369.35 L2246.8 1369.35 L2246.8 1399.98 L2254.44 1399.98 L2254.44 1403.91 L2234.53 1403.91 L2234.53 1399.98 Z" fill="#000000" fill-rule="nonzero" fill-opacity="1" /></svg>
