<?xml version="1.0" encoding="utf-8"?>
<svg xmlns="http://www.w3.org/2000/svg" xmlns:xlink="http://www.w3.org/1999/xlink" width="600" height="400" viewBox="0 0 2400 1600">
<defs>
  <clipPath id="clip960">
    <rect x="0" y="0" width="2400" height="1600"/>
  </clipPath>
</defs>
<path clip-path="url(#clip960)" d="M0 1600 L2400 1600 L2400 0 L0 0  Z" fill="#ffffff" fill-rule="evenodd" fill-opacity="1"/>
<defs>
  <clipPath id="clip961">
    <rect x="480" y="0" width="1681" height="1600"/>
  </clipPath>
</defs>
<path clip-path="url(#clip960)" d="M184.191 1486.45 L2352.76 1486.45 L2352.76 47.2441 L184.191 47.2441  Z" fill="#ffffff" fill-rule="evenodd" fill-opacity="1"/>
<defs>
  <clipPath id="clip962">
    <rect x="184" y="47" width="2170" height="1440"/>
  </clipPath>
</defs>
<polyline clip-path="url(#clip962)" style="stroke:#000000; stroke-linecap:round; stroke-linejoin:round; stroke-width:2; stroke-opacity:0.1; fill:none" points="245.565,1486.45 245.565,47.2441 "/>
<polyline clip-path="url(#clip962)" style="stroke:#000000; stroke-linecap:round; stroke-linejoin:round; stroke-width:2; stroke-opacity:0.1; fill:none" points="757.019,1486.45 757.019,47.2441 "/>
<polyline clip-path="url(#clip962)" style="stroke:#000000; stroke-linecap:round; stroke-linejoin:round; stroke-width:2; stroke-opacity:0.1; fill:none" points="1268.47,1486.45 1268.47,47.2441 "/>
<polyline clip-path="url(#clip962)" style="stroke:#000000; stroke-linecap:round; stroke-linejoin:round; stroke-width:2; stroke-opacity:0.1; fill:none" points="1779.93,1486.45 1779.93,47.2441 "/>
<polyline clip-path="url(#clip962)" style="stroke:#000000; stroke-linecap:round; stroke-linejoin:round; stroke-width:2; stroke-opacity:0.1; fill:none" points="2291.38,1486.45 2291.38,47.2441 "/>
<polyline clip-path="url(#clip960)" style="stroke:#000000; stroke-linecap:round; stroke-linejoin:round; stroke-width:4; stroke-opacity:1; fill:none" points="184.191,1486.45 2352.76,1486.45 "/>
<polyline clip-path="url(#clip960)" style="stroke:#000000; stroke-linecap:round; stroke-linejoin:round; stroke-width:4; stroke-opacity:1; fill:none" points="245.565,1486.45 245.565,1467.55 "/>
<polyline clip-path="url(#clip960)" style="stroke:#000000; stroke-linecap:round; stroke-linejoin:round; stroke-width:4; stroke-opacity:1; fill:none" points="757.019,1486.45 757.019,1467.55 "/>
<polyline clip-path="url(#clip960)" style="stroke:#000000; stroke-linecap:round; stroke-linejoin:round; stroke-width:4; stroke-opacity:1; fill:none" points="1268.47,1486.45 1268.47,1467.55 "/>
<polyline clip-path="url(#clip960)" style="stroke:#000000; stroke-linecap:round; stroke-linejoin:round; stroke-width:4; stroke-opacity:1; fill:none" points="1779.93,1486.45 1779.93,1467.55 "/>
<polyline clip-path="url(#clip960)" style="stroke:#000000; stroke-linecap:round; stroke-linejoin:round; stroke-width:4; stroke-opacity:1; fill:none" points="2291.38,1486.45 2291.38,1467.55 "/>
<path clip-path="url(#clip960)" d="M245.565 1517.37 Q241.954 1517.37 240.125 1520.93 Q238.32 1524.47 238.32 1531.6 Q238.32 1538.71 240.125 1542.27 Q241.954 1545.82 245.565 1545.82 Q249.199 1545.82 251.005 1542.27 Q252.834 1538.71 252.834 1531.6 Q252.834 1524.47 251.005 1520.93 Q249.199 1517.37 245.565 1517.37 M245.565 1513.66 Q251.375 1513.66 254.431 1518.27 Q257.51 1522.85 257.51 1531.6 Q257.51 1540.33 254.431 1544.94 Q251.375 1549.52 245.565 1549.52 Q239.755 1549.52 236.676 1544.94 Q233.621 1540.33 233.621 1531.6 Q233.621 1522.85 236.676 1518.27 Q239.755 1513.66 245.565 1513.66 Z" fill="#000000" fill-rule="nonzero" fill-opacity="1" /><path clip-path="url(#clip960)" d="M701.545 1544.91 L709.184 1544.91 L709.184 1518.55 L700.874 1520.21 L700.874 1515.95 L709.138 1514.29 L713.813 1514.29 L713.813 1544.91 L721.452 1544.91 L721.452 1548.85 L701.545 1548.85 L701.545 1544.91 Z" fill="#000000" fill-rule="nonzero" fill-opacity="1" /><path clip-path="url(#clip960)" d="M740.897 1517.37 Q737.286 1517.37 735.457 1520.93 Q733.651 1524.47 733.651 1531.6 Q733.651 1538.71 735.457 1542.27 Q737.286 1545.82 740.897 1545.82 Q744.531 1545.82 746.336 1542.27 Q748.165 1538.71 748.165 1531.6 Q748.165 1524.47 746.336 1520.93 Q744.531 1517.37 740.897 1517.37 M740.897 1513.66 Q746.707 1513.66 749.762 1518.27 Q752.841 1522.85 752.841 1531.6 Q752.841 1540.33 749.762 1544.94 Q746.707 1549.52 740.897 1549.52 Q735.086 1549.52 732.008 1544.94 Q728.952 1540.33 728.952 1531.6 Q728.952 1522.85 732.008 1518.27 Q735.086 1513.66 740.897 1513.66 Z" fill="#000000" fill-rule="nonzero" fill-opacity="1" /><path clip-path="url(#clip960)" d="M771.059 1517.37 Q767.447 1517.37 765.619 1520.93 Q763.813 1524.47 763.813 1531.6 Q763.813 1538.71 765.619 1542.27 Q767.447 1545.82 771.059 1545.82 Q774.693 1545.82 776.498 1542.27 Q778.327 1538.71 778.327 1531.6 Q778.327 1524.47 776.498 1520.93 Q774.693 1517.37 771.059 1517.37 M771.059 1513.66 Q776.869 1513.66 779.924 1518.27 Q783.003 1522.85 783.003 1531.6 Q783.003 1540.33 779.924 1544.94 Q776.869 1549.52 771.059 1549.52 Q765.248 1549.52 762.17 1544.94 Q759.114 1540.33 759.114 1531.6 Q759.114 1522.85 762.17 1518.27 Q765.248 1513.66 771.059 1513.66 Z" fill="#000000" fill-rule="nonzero" fill-opacity="1" /><path clip-path="url(#clip960)" d="M801.22 1517.37 Q797.609 1517.37 795.781 1520.93 Q793.975 1524.47 793.975 1531.6 Q793.975 1538.71 795.781 1542.27 Q797.609 1545.82 801.22 1545.82 Q804.855 1545.82 806.66 1542.27 Q808.489 1538.71 808.489 1531.6 Q808.489 1524.47 806.66 1520.93 Q804.855 1517.37 801.22 1517.37 M801.22 1513.66 Q807.031 1513.66 810.086 1518.27 Q813.165 1522.85 813.165 1531.6 Q813.165 1540.33 810.086 1544.94 Q807.031 1549.52 801.22 1549.52 Q795.41 1549.52 792.332 1544.94 Q789.276 1540.33 789.276 1531.6 Q789.276 1522.85 792.332 1518.27 Q795.41 1513.66 801.22 1513.66 Z" fill="#000000" fill-rule="nonzero" fill-opacity="1" /><path clip-path="url(#clip960)" d="M1217.08 1544.91 L1233.4 1544.91 L1233.4 1548.85 L1211.46 1548.85 L1211.46 1544.91 Q1214.12 1542.16 1218.71 1537.53 Q1223.31 1532.88 1224.49 1531.53 Q1226.74 1529.01 1227.62 1527.27 Q1228.52 1525.51 1228.52 1523.82 Q1228.52 1521.07 1226.58 1519.33 Q1224.65 1517.6 1221.55 1517.6 Q1219.35 1517.6 1216.9 1518.36 Q1214.47 1519.13 1211.69 1520.68 L1211.69 1515.95 Q1214.52 1514.82 1216.97 1514.24 Q1219.42 1513.66 1221.46 1513.66 Q1226.83 1513.66 1230.02 1516.35 Q1233.22 1519.03 1233.22 1523.52 Q1233.22 1525.65 1232.41 1527.57 Q1231.62 1529.47 1229.52 1532.07 Q1228.94 1532.74 1225.83 1535.95 Q1222.73 1539.15 1217.08 1544.91 Z" fill="#000000" fill-rule="nonzero" fill-opacity="1" /><path clip-path="url(#clip960)" d="M1253.22 1517.37 Q1249.61 1517.37 1247.78 1520.93 Q1245.97 1524.47 1245.97 1531.6 Q1245.97 1538.71 1247.78 1542.27 Q1249.61 1545.82 1253.22 1545.82 Q1256.85 1545.82 1258.66 1542.27 Q1260.49 1538.71 1260.49 1531.6 Q1260.49 1524.47 1258.66 1520.93 Q1256.85 1517.37 1253.22 1517.37 M1253.22 1513.66 Q1259.03 1513.66 1262.08 1518.27 Q1265.16 1522.85 1265.16 1531.6 Q1265.16 1540.33 1262.08 1544.94 Q1259.03 1549.52 1253.22 1549.52 Q1247.41 1549.52 1244.33 1544.94 Q1241.27 1540.33 1241.27 1531.6 Q1241.27 1522.85 1244.33 1518.27 Q1247.41 1513.66 1253.22 1513.66 Z" fill="#000000" fill-rule="nonzero" fill-opacity="1" /><path clip-path="url(#clip960)" d="M1283.38 1517.37 Q1279.77 1517.37 1277.94 1520.93 Q1276.14 1524.47 1276.14 1531.6 Q1276.14 1538.71 1277.94 1542.27 Q1279.77 1545.82 1283.38 1545.82 Q1287.01 1545.82 1288.82 1542.27 Q1290.65 1538.71 1290.65 1531.6 Q1290.65 1524.47 1288.82 1520.93 Q1287.01 1517.37 1283.38 1517.37 M1283.38 1513.66 Q1289.19 1513.66 1292.25 1518.27 Q1295.33 1522.85 1295.33 1531.6 Q1295.33 1540.33 1292.25 1544.94 Q1289.19 1549.52 1283.38 1549.52 Q1277.57 1549.52 1274.49 1544.94 Q1271.44 1540.33 1271.44 1531.6 Q1271.44 1522.85 1274.49 1518.27 Q1277.57 1513.66 1283.38 1513.66 Z" fill="#000000" fill-rule="nonzero" fill-opacity="1" /><path clip-path="url(#clip960)" d="M1313.54 1517.37 Q1309.93 1517.37 1308.1 1520.93 Q1306.3 1524.47 1306.3 1531.6 Q1306.3 1538.71 1308.1 1542.27 Q1309.93 1545.82 1313.54 1545.82 Q1317.18 1545.82 1318.98 1542.27 Q1320.81 1538.71 1320.81 1531.6 Q1320.81 1524.47 1318.98 1520.93 Q1317.18 1517.37 1313.54 1517.37 M1313.54 1513.66 Q1319.35 1513.66 1322.41 1518.27 Q1325.49 1522.85 1325.49 1531.6 Q1325.49 1540.33 1322.41 1544.94 Q1319.35 1549.52 1313.54 1549.52 Q1307.73 1549.52 1304.65 1544.94 Q1301.6 1540.33 1301.6 1531.6 Q1301.6 1522.85 1304.65 1518.27 Q1307.73 1513.66 1313.54 1513.66 Z" fill="#000000" fill-rule="nonzero" fill-opacity="1" /><path clip-path="url(#clip960)" d="M1738.61 1530.21 Q1741.96 1530.93 1743.84 1533.2 Q1745.74 1535.47 1745.74 1538.8 Q1745.74 1543.92 1742.22 1546.72 Q1738.7 1549.52 1732.22 1549.52 Q1730.04 1549.52 1727.73 1549.08 Q1725.44 1548.66 1722.98 1547.81 L1722.98 1543.29 Q1724.93 1544.43 1727.24 1545.01 Q1729.56 1545.58 1732.08 1545.58 Q1736.48 1545.58 1738.77 1543.85 Q1741.08 1542.11 1741.08 1538.8 Q1741.08 1535.75 1738.93 1534.03 Q1736.8 1532.3 1732.98 1532.3 L1728.96 1532.3 L1728.96 1528.45 L1733.17 1528.45 Q1736.62 1528.45 1738.45 1527.09 Q1740.27 1525.7 1740.27 1523.11 Q1740.27 1520.45 1738.38 1519.03 Q1736.5 1517.6 1732.98 1517.6 Q1731.06 1517.6 1728.86 1518.01 Q1726.66 1518.43 1724.02 1519.31 L1724.02 1515.14 Q1726.69 1514.4 1729 1514.03 Q1731.34 1513.66 1733.4 1513.66 Q1738.72 1513.66 1741.83 1516.09 Q1744.93 1518.5 1744.93 1522.62 Q1744.93 1525.49 1743.28 1527.48 Q1741.64 1529.45 1738.61 1530.21 Z" fill="#000000" fill-rule="nonzero" fill-opacity="1" /><path clip-path="url(#clip960)" d="M1764.6 1517.37 Q1760.99 1517.37 1759.16 1520.93 Q1757.36 1524.47 1757.36 1531.6 Q1757.36 1538.71 1759.16 1542.27 Q1760.99 1545.82 1764.6 1545.82 Q1768.24 1545.82 1770.04 1542.27 Q1771.87 1538.71 1771.87 1531.6 Q1771.87 1524.47 1770.04 1520.93 Q1768.24 1517.37 1764.6 1517.37 M1764.6 1513.66 Q1770.41 1513.66 1773.47 1518.27 Q1776.55 1522.85 1776.55 1531.6 Q1776.55 1540.33 1773.47 1544.94 Q1770.41 1549.52 1764.6 1549.52 Q1758.79 1549.52 1755.71 1544.94 Q1752.66 1540.33 1752.66 1531.6 Q1752.66 1522.85 1755.71 1518.27 Q1758.79 1513.66 1764.6 1513.66 Z" fill="#000000" fill-rule="nonzero" fill-opacity="1" /><path clip-path="url(#clip960)" d="M1794.77 1517.37 Q1791.15 1517.37 1789.33 1520.93 Q1787.52 1524.47 1787.52 1531.6 Q1787.52 1538.71 1789.33 1542.27 Q1791.15 1545.82 1794.77 1545.82 Q1798.4 1545.82 1800.21 1542.27 Q1802.03 1538.71 1802.03 1531.6 Q1802.03 1524.47 1800.21 1520.93 Q1798.4 1517.37 1794.77 1517.37 M1794.77 1513.66 Q1800.58 1513.66 1803.63 1518.27 Q1806.71 1522.85 1806.71 1531.6 Q1806.71 1540.33 1803.63 1544.94 Q1800.58 1549.52 1794.77 1549.52 Q1788.96 1549.52 1785.88 1544.94 Q1782.82 1540.33 1782.82 1531.6 Q1782.82 1522.85 1785.88 1518.27 Q1788.96 1513.66 1794.77 1513.66 Z" fill="#000000" fill-rule="nonzero" fill-opacity="1" /><path clip-path="url(#clip960)" d="M1824.93 1517.37 Q1821.32 1517.37 1819.49 1520.93 Q1817.68 1524.47 1817.68 1531.6 Q1817.68 1538.71 1819.49 1542.27 Q1821.32 1545.82 1824.93 1545.82 Q1828.56 1545.82 1830.37 1542.27 Q1832.2 1538.71 1832.2 1531.6 Q1832.2 1524.47 1830.37 1520.93 Q1828.56 1517.37 1824.93 1517.37 M1824.93 1513.66 Q1830.74 1513.66 1833.79 1518.27 Q1836.87 1522.85 1836.87 1531.6 Q1836.87 1540.33 1833.79 1544.94 Q1830.74 1549.52 1824.93 1549.52 Q1819.12 1549.52 1816.04 1544.94 Q1812.98 1540.33 1812.98 1531.6 Q1812.98 1522.85 1816.04 1518.27 Q1819.12 1513.66 1824.93 1513.66 Z" fill="#000000" fill-rule="nonzero" fill-opacity="1" /><path clip-path="url(#clip960)" d="M2249.39 1518.36 L2237.59 1536.81 L2249.39 1536.81 L2249.39 1518.36 M2248.16 1514.29 L2254.04 1514.29 L2254.04 1536.81 L2258.97 1536.81 L2258.97 1540.7 L2254.04 1540.7 L2254.04 1548.85 L2249.39 1548.85 L2249.39 1540.7 L2233.79 1540.7 L2233.79 1536.19 L2248.16 1514.29 Z" fill="#000000" fill-rule="nonzero" fill-opacity="1" /><path clip-path="url(#clip960)" d="M2276.71 1517.37 Q2273.09 1517.37 2271.27 1520.93 Q2269.46 1524.47 2269.46 1531.6 Q2269.46 1538.71 2271.27 1542.27 Q2273.09 1545.82 2276.71 1545.82 Q2280.34 1545.82 2282.15 1542.27 Q2283.97 1538.71 2283.97 1531.6 Q2283.97 1524.47 2282.15 1520.93 Q2280.34 1517.37 2276.71 1517.37 M2276.71 1513.66 Q2282.52 1513.66 2285.57 1518.27 Q2288.65 1522.85 2288.65 1531.6 Q2288.65 1540.33 2285.57 1544.94 Q2282.52 1549.52 2276.71 1549.52 Q2270.9 1549.52 2267.82 1544.94 Q2264.76 1540.33 2264.76 1531.6 Q2264.76 1522.85 2267.82 1518.27 Q2270.9 1513.66 2276.71 1513.66 Z" fill="#000000" fill-rule="nonzero" fill-opacity="1" /><path clip-path="url(#clip960)" d="M2306.87 1517.37 Q2303.26 1517.37 2301.43 1520.93 Q2299.62 1524.47 2299.62 1531.6 Q2299.62 1538.71 2301.43 1542.27 Q2303.26 1545.82 2306.87 1545.82 Q2310.5 1545.82 2312.31 1542.27 Q2314.14 1538.71 2314.14 1531.6 Q2314.14 1524.47 2312.31 1520.93 Q2310.5 1517.37 2306.87 1517.37 M2306.87 1513.66 Q2312.68 1513.66 2315.73 1518.27 Q2318.81 1522.85 2318.81 1531.6 Q2318.81 1540.33 2315.73 1544.94 Q2312.68 1549.52 2306.87 1549.52 Q2301.06 1549.52 2297.98 1544.94 Q2294.92 1540.33 2294.92 1531.6 Q2294.92 1522.85 2297.98 1518.27 Q2301.06 1513.66 2306.87 1513.66 Z" fill="#000000" fill-rule="nonzero" fill-opacity="1" /><path clip-path="url(#clip960)" d="M2337.03 1517.37 Q2333.42 1517.37 2331.59 1520.93 Q2329.78 1524.47 2329.78 1531.6 Q2329.78 1538.71 2331.59 1542.27 Q2333.42 1545.82 2337.03 1545.82 Q2340.66 1545.82 2342.47 1542.27 Q2344.3 1538.71 2344.3 1531.6 Q2344.3 1524.47 2342.47 1520.93 Q2340.66 1517.37 2337.03 1517.37 M2337.03 1513.66 Q2342.84 1513.66 2345.9 1518.27 Q2348.97 1522.85 2348.97 1531.6 Q2348.97 1540.33 2345.9 1544.94 Q2342.84 1549.52 2337.03 1549.52 Q2331.22 1549.52 2328.14 1544.94 Q2325.08 1540.33 2325.08 1531.6 Q2325.08 1522.85 2328.14 1518.27 Q2331.22 1513.66 2337.03 1513.66 Z" fill="#000000" fill-rule="nonzero" fill-opacity="1" /><polyline clip-path="url(#clip962)" style="stroke:#000000; stroke-linecap:round; stroke-linejoin:round; stroke-width:2; stroke-opacity:0.1; fill:none" points="184.191,1286.52 2352.76,1286.52 "/>
<polyline clip-path="url(#clip962)" style="stroke:#000000; stroke-linecap:round; stroke-linejoin:round; stroke-width:2; stroke-opacity:0.1; fill:none" points="184.191,969.471 2352.76,969.471 "/>
<polyline clip-path="url(#clip962)" style="stroke:#000000; stroke-linecap:round; stroke-linejoin:round; stroke-width:2; stroke-opacity:0.1; fill:none" points="184.191,652.419 2352.76,652.419 "/>
<polyline clip-path="url(#clip962)" style="stroke:#000000; stroke-linecap:round; stroke-linejoin:round; stroke-width:2; stroke-opacity:0.1; fill:none" points="184.191,335.366 2352.76,335.366 "/>
<polyline clip-path="url(#clip960)" style="stroke:#000000; stroke-linecap:round; stroke-linejoin:round; stroke-width:4; stroke-opacity:1; fill:none" points="184.191,1486.45 184.191,47.2441 "/>
<polyline clip-path="url(#clip960)" style="stroke:#000000; stroke-linecap:round; stroke-linejoin:round; stroke-width:4; stroke-opacity:1; fill:none" points="184.191,1286.52 203.088,1286.52 "/>
<polyline clip-path="url(#clip960)" style="stroke:#000000; stroke-linecap:round; stroke-linejoin:round; stroke-width:4; stroke-opacity:1; fill:none" points="184.191,969.471 203.088,969.471 "/>
<polyline clip-path="url(#clip960)" style="stroke:#000000; stroke-linecap:round; stroke-linejoin:round; stroke-width:4; stroke-opacity:1; fill:none" points="184.191,652.419 203.088,652.419 "/>
<polyline clip-path="url(#clip960)" style="stroke:#000000; stroke-linecap:round; stroke-linejoin:round; stroke-width:4; stroke-opacity:1; fill:none" points="184.191,335.366 203.088,335.366 "/>
<path clip-path="url(#clip960)" d="M52.6588 1299.87 L60.2976 1299.87 L60.2976 1273.5 L51.9875 1275.17 L51.9875 1270.91 L60.2513 1269.24 L64.9272 1269.24 L64.9272 1299.87 L72.5661 1299.87 L72.5661 1303.8 L52.6588 1303.8 L52.6588 1299.87 Z" fill="#000000" fill-rule="nonzero" fill-opacity="1" /><path clip-path="url(#clip960)" d="M82.8207 1299.87 L90.4595 1299.87 L90.4595 1273.5 L82.1494 1275.17 L82.1494 1270.91 L90.4132 1269.24 L95.0891 1269.24 L95.0891 1299.87 L102.728 1299.87 L102.728 1303.8 L82.8207 1303.8 L82.8207 1299.87 Z" fill="#000000" fill-rule="nonzero" fill-opacity="1" /><path clip-path="url(#clip960)" d="M112.172 1297.92 L117.057 1297.92 L117.057 1303.8 L112.172 1303.8 L112.172 1297.92 Z" fill="#000000" fill-rule="nonzero" fill-opacity="1" /><path clip-path="url(#clip960)" d="M127.288 1269.24 L145.644 1269.24 L145.644 1273.18 L131.57 1273.18 L131.57 1281.65 Q132.589 1281.3 133.607 1281.14 Q134.626 1280.96 135.644 1280.96 Q141.431 1280.96 144.811 1284.13 Q148.191 1287.3 148.191 1292.72 Q148.191 1298.29 144.718 1301.4 Q141.246 1304.47 134.927 1304.47 Q132.751 1304.47 130.482 1304.1 Q128.237 1303.73 125.83 1302.99 L125.83 1298.29 Q127.913 1299.43 130.135 1299.98 Q132.357 1300.54 134.834 1300.54 Q138.839 1300.54 141.177 1298.43 Q143.515 1296.33 143.515 1292.72 Q143.515 1289.1 141.177 1287 Q138.839 1284.89 134.834 1284.89 Q132.959 1284.89 131.084 1285.31 Q129.232 1285.72 127.288 1286.6 L127.288 1269.24 Z" fill="#000000" fill-rule="nonzero" fill-opacity="1" /><path clip-path="url(#clip960)" d="M51.6634 982.816 L59.3023 982.816 L59.3023 956.45 L50.9921 958.117 L50.9921 953.857 L59.256 952.191 L63.9319 952.191 L63.9319 982.816 L71.5707 982.816 L71.5707 986.751 L51.6634 986.751 L51.6634 982.816 Z" fill="#000000" fill-rule="nonzero" fill-opacity="1" /><path clip-path="url(#clip960)" d="M85.0429 982.816 L101.362 982.816 L101.362 986.751 L79.4179 986.751 L79.4179 982.816 Q82.0799 980.061 86.6632 975.431 Q91.2697 970.779 92.4502 969.436 Q94.6956 966.913 95.5752 965.177 Q96.478 963.418 96.478 961.728 Q96.478 958.973 94.5336 957.237 Q92.6123 955.501 89.5104 955.501 Q87.3114 955.501 84.8577 956.265 Q82.4271 957.029 79.6494 958.58 L79.6494 953.857 Q82.4734 952.723 84.9271 952.145 Q87.3808 951.566 89.4178 951.566 Q94.7882 951.566 97.9826 954.251 Q101.177 956.936 101.177 961.427 Q101.177 963.556 100.367 965.478 Q99.5798 967.376 97.4734 969.968 Q96.8947 970.64 93.7928 973.857 Q90.691 977.052 85.0429 982.816 Z" fill="#000000" fill-rule="nonzero" fill-opacity="1" /><path clip-path="url(#clip960)" d="M111.177 980.871 L116.061 980.871 L116.061 986.751 L111.177 986.751 L111.177 980.871 Z" fill="#000000" fill-rule="nonzero" fill-opacity="1" /><path clip-path="url(#clip960)" d="M136.246 955.269 Q132.635 955.269 130.807 958.834 Q129.001 962.376 129.001 969.506 Q129.001 976.612 130.807 980.177 Q132.635 983.718 136.246 983.718 Q139.881 983.718 141.686 980.177 Q143.515 976.612 143.515 969.506 Q143.515 962.376 141.686 958.834 Q139.881 955.269 136.246 955.269 M136.246 951.566 Q142.056 951.566 145.112 956.172 Q148.191 960.756 148.191 969.506 Q148.191 978.232 145.112 982.839 Q142.056 987.422 136.246 987.422 Q130.436 987.422 127.357 982.839 Q124.302 978.232 124.302 969.506 Q124.302 960.756 127.357 956.172 Q130.436 951.566 136.246 951.566 Z" fill="#000000" fill-rule="nonzero" fill-opacity="1" /><path clip-path="url(#clip960)" d="M52.6588 665.763 L60.2976 665.763 L60.2976 639.398 L51.9875 641.064 L51.9875 636.805 L60.2513 635.139 L64.9272 635.139 L64.9272 665.763 L72.5661 665.763 L72.5661 669.699 L52.6588 669.699 L52.6588 665.763 Z" fill="#000000" fill-rule="nonzero" fill-opacity="1" /><path clip-path="url(#clip960)" d="M86.0382 665.763 L102.358 665.763 L102.358 669.699 L80.4133 669.699 L80.4133 665.763 Q83.0753 663.009 87.6586 658.379 Q92.2651 653.726 93.4456 652.384 Q95.691 649.861 96.5706 648.125 Q97.4734 646.365 97.4734 644.675 Q97.4734 641.921 95.5289 640.185 Q93.6076 638.449 90.5058 638.449 Q88.3067 638.449 85.8531 639.213 Q83.4225 639.976 80.6447 641.527 L80.6447 636.805 Q83.4688 635.671 85.9225 635.092 Q88.3762 634.514 90.4132 634.514 Q95.7836 634.514 98.978 637.199 Q102.172 639.884 102.172 644.375 Q102.172 646.504 101.362 648.425 Q100.575 650.324 98.4687 652.916 Q97.89 653.587 94.7882 656.805 Q91.6864 659.999 86.0382 665.763 Z" fill="#000000" fill-rule="nonzero" fill-opacity="1" /><path clip-path="url(#clip960)" d="M112.172 663.819 L117.057 663.819 L117.057 669.699 L112.172 669.699 L112.172 663.819 Z" fill="#000000" fill-rule="nonzero" fill-opacity="1" /><path clip-path="url(#clip960)" d="M127.288 635.139 L145.644 635.139 L145.644 639.074 L131.57 639.074 L131.57 647.546 Q132.589 647.199 133.607 647.037 Q134.626 646.851 135.644 646.851 Q141.431 646.851 144.811 650.023 Q148.191 653.194 148.191 658.611 Q148.191 664.189 144.718 667.291 Q141.246 670.37 134.927 670.37 Q132.751 670.37 130.482 669.999 Q128.237 669.629 125.83 668.888 L125.83 664.189 Q127.913 665.324 130.135 665.879 Q132.357 666.435 134.834 666.435 Q138.839 666.435 141.177 664.328 Q143.515 662.222 143.515 658.611 Q143.515 655 141.177 652.893 Q138.839 650.787 134.834 650.787 Q132.959 650.787 131.084 651.203 Q129.232 651.62 127.288 652.5 L127.288 635.139 Z" fill="#000000" fill-rule="nonzero" fill-opacity="1" /><path clip-path="url(#clip960)" d="M51.6634 348.711 L59.3023 348.711 L59.3023 322.345 L50.9921 324.012 L50.9921 319.753 L59.256 318.086 L63.9319 318.086 L63.9319 348.711 L71.5707 348.711 L71.5707 352.646 L51.6634 352.646 L51.6634 348.711 Z" fill="#000000" fill-rule="nonzero" fill-opacity="1" /><path clip-path="url(#clip960)" d="M95.1817 334.012 Q98.5382 334.73 100.413 336.998 Q102.311 339.267 102.311 342.6 Q102.311 347.716 98.7928 350.517 Q95.2743 353.318 88.7928 353.318 Q86.6169 353.318 84.3021 352.878 Q82.0105 352.461 79.5568 351.605 L79.5568 347.091 Q81.5012 348.225 83.816 348.804 Q86.1308 349.382 88.654 349.382 Q93.0521 349.382 95.3437 347.646 Q97.6585 345.91 97.6585 342.6 Q97.6585 339.544 95.5058 337.831 Q93.3762 336.095 89.5567 336.095 L85.529 336.095 L85.529 332.253 L89.7419 332.253 Q93.191 332.253 95.0197 330.887 Q96.8484 329.498 96.8484 326.906 Q96.8484 324.244 94.9502 322.832 Q93.0752 321.396 89.5567 321.396 Q87.6354 321.396 85.4364 321.813 Q83.2373 322.23 80.5984 323.109 L80.5984 318.943 Q83.2605 318.202 85.5753 317.832 Q87.9132 317.461 89.9734 317.461 Q95.2974 317.461 98.3993 319.892 Q101.501 322.299 101.501 326.42 Q101.501 329.29 99.8576 331.281 Q98.2141 333.248 95.1817 334.012 Z" fill="#000000" fill-rule="nonzero" fill-opacity="1" /><path clip-path="url(#clip960)" d="M111.177 346.767 L116.061 346.767 L116.061 352.646 L111.177 352.646 L111.177 346.767 Z" fill="#000000" fill-rule="nonzero" fill-opacity="1" /><path clip-path="url(#clip960)" d="M136.246 321.165 Q132.635 321.165 130.807 324.73 Q129.001 328.271 129.001 335.401 Q129.001 342.507 130.807 346.072 Q132.635 349.614 136.246 349.614 Q139.881 349.614 141.686 346.072 Q143.515 342.507 143.515 335.401 Q143.515 328.271 141.686 324.73 Q139.881 321.165 136.246 321.165 M136.246 317.461 Q142.056 317.461 145.112 322.068 Q148.191 326.651 148.191 335.401 Q148.191 344.128 145.112 348.734 Q142.056 353.318 136.246 353.318 Q130.436 353.318 127.357 348.734 Q124.302 344.128 124.302 335.401 Q124.302 326.651 127.357 322.068 Q130.436 317.461 136.246 317.461 Z" fill="#000000" fill-rule="nonzero" fill-opacity="1" /><polyline clip-path="url(#clip962)" style="stroke:#009af9; stroke-linecap:round; stroke-linejoin:round; stroke-width:4; stroke-opacity:1; fill:none" points="245.565,87.9763 246.077,121.255 246.588,153.471 247.1,185.015 247.611,215.572 248.122,246.386 248.634,276.174 249.145,303.924 249.657,330.79 250.168,358.865 250.68,386.022 251.191,410.607 251.703,434.422 252.214,458.283 252.726,481.38 253.237,504.032 253.748,525.965 254.26,547.626 254.771,568.571 255.283,586.303 255.794,603.559 256.306,623.288 256.817,642.374 257.329,657.356 257.84,671.98 258.352,690.764 258.863,708.894 259.374,723.688 259.886,738.072 260.397,753.128 260.909,767.741 261.42,781.052 261.932,793.994 262.443,806.075 262.955,817.843 263.466,830.586 263.978,842.972 264.489,855.009 265,866.722 265.512,877.727 266.023,888.426 266.535,897.94 267.046,907.236 267.558,915.586 268.069,923.776 268.581,933.795 269.092,943.53 269.604,952.076 270.115,960.42 270.626,970.301 271.138,979.876 271.649,988.817 272.161,997.543 272.672,1005.03 273.184,1012.33 273.695,1019.37 274.207,1026.28 274.718,1034.22 275.23,1041.96 275.741,1048.95 276.252,1055.79 276.764,1062.68 277.275,1069.41 277.787,1075.65 278.298,1081.76 278.81,1087.54 279.321,1093.2 279.833,1099.86 280.344,1106.37 280.855,1112 281.367,1117.5 281.878,1122.14 282.39,1126.69 282.901,1131.45 283.413,1136.12 283.924,1140.74 284.436,1145.27 284.947,1150.24 285.459,1155.09 285.97,1159.69 286.481,1164.2 286.993,1167.66 287.504,1171.08 288.016,1176.07 288.527,1180.95 289.039,1185.47 289.55,1189.87 290.062,1193.71 290.573,1197.45 291.085,1201.39 291.596,1205.27 292.107,1209.43 292.619,1213.48 293.13,1216.4 293.642,1219.28 294.153,1222.5 294.665,1225.67 295.176,1229.02 295.688,1232.32 296.199,1235.29 296.711,1238.22 297.222,1241.39 297.733,1244.48 298.245,1248.05 298.756,1251.55 299.268,1255.17 299.779,1258.72 300.291,1261.81 300.802,1264.83 301.314,1267.38 301.825,1269.88 302.337,1272.17 302.848,1274.4 303.359,1276.95 303.871,1279.46 304.382,1282.26 304.894,1285.02 305.405,1287.46 305.917,1289.85 306.428,1291.62 306.94,1293.37 307.451,1295.85 307.963,1298.3 308.474,1300.67 308.985,1303 309.497,1304.98 310.008,1306.94 310.52,1309.13 311.031,1311.27 311.543,1312.86 312.054,1314.44 312.566,1316.31 313.077,1318.17 313.589,1320.03 314.1,1321.88 314.611,1323.78 315.123,1325.66 315.634,1327.41 316.146,1329.15 316.657,1331.37 317.169,1333.57 317.68,1335.09 318.192,1336.58 318.703,1338.37 319.215,1340.13 319.726,1342.14 320.237,1344.11 320.749,1345.16 321.26,1346.18 321.772,1347.66 322.283,1349.12 322.795,1350.56 323.306,1351.99 323.818,1353.25 324.329,1354.47 324.841,1355.57 325.352,1356.63 325.863,1358.74 326.375,1360.83 326.886,1361.74 327.398,1362.65 327.909,1363.78 328.421,1364.89 328.932,1366.04 329.444,1367.18 329.955,1368.31 330.467,1369.42 330.978,1370.89 331.489,1372.34 332.001,1372.88 332.512,1373.38 333.024,1374.39 333.535,1375.36 334.047,1376.44 334.558,1377.5 335.07,1377.89 335.581,1378.27 336.093,1378.91 336.604,1379.54 337.115,1380.71 337.627,1381.88 338.138,1383.32 338.65,1384.75 339.161,1385.32 339.673,1385.88 340.184,1386.18 340.696,1386.47 341.207,1387.38 341.719,1388.28 342.23,1388.52 342.741,1388.74 343.253,1388.69 343.764,1388.61 344.276,1388.97 344.787,1389.31 345.299,1389.18 345.81,1389.03 346.322,1389.41 346.833,1389.78 347.345,1390.39 347.856,1391 348.367,1391.33 348.879,1391.65 349.39,1391.75 349.902,1391.85 350.413,1391.8 350.925,1391.74 351.436,1392.08 351.948,1392.41 352.459,1392.97 352.971,1393.51 353.482,1393.74 353.993,1393.97 354.505,1393.89 355.016,1393.8 355.528,1394.14 356.039,1394.47 356.551,1394.41 357.062,1394.34 357.574,1395.02 358.085,1395.69 358.597,1394.88 359.108,1394.05 359.619,1394.48 360.131,1394.9 360.642,1395.3 361.154,1395.7 361.665,1396.32 362.177,1396.94 362.688,1397.07 363.2,1397.2 363.711,1397.6 364.223,1397.99 364.734,1398.25 365.245,1398.5 365.757,1398.51 366.268,1398.51 366.78,1398.45 367.291,1398.38 367.803,1398.23 368.314,1398.07 368.826,1397.92 369.337,1397.76 369.849,1398.5 370.36,1399.25 370.871,1400.04 371.383,1400.82 371.894,1401.14 372.406,1401.45 372.917,1401.68 373.429,1401.9 373.94,1401.68 374.452,1401.45 374.963,1402.54 375.474,1403.62 375.986,1404.23 376.497,1404.84 377.009,1404.51 377.52,1404.18 378.032,1404.65 378.543,1405.12 379.055,1405.29 379.566,1405.44 380.078,1405.72 380.589,1405.99 381.1,1406.45 381.612,1406.91 382.123,1407.26 382.635,1407.61 383.146,1408.45 383.658,1409.29 384.169,1410.33 384.681,1411.36 385.192,1412.15 385.704,1412.94 386.215,1413.1 386.726,1413.26 387.238,1413.16 387.749,1413.06 388.261,1412.72 388.772,1412.38 389.284,1412.28 389.795,1412.18 390.307,1410.29 390.818,1408.39 391.33,1407.98 391.841,1407.56 392.352,1407.45 392.864,1407.33 393.375,1407.48 393.887,1407.61 394.398,1407.71 394.91,1407.79 395.421,1407.79 395.933,1407.8 396.444,1408.23 396.956,1408.65 397.467,1407.98 397.978,1407.31 398.49,1407.07 399.001,1406.82 399.513,1407.77 400.024,1408.72 400.536,1408.82 401.047,1408.93 401.559,1407.87 402.07,1406.81 402.582,1406.62 403.093,1406.43 403.604,1406.73 404.116,1407.03 404.627,1406.72 405.139,1406.41 405.65,1405.96 406.162,1405.52 406.673,1405.23 407.185,1404.94 407.696,1404.48 408.208,1404.01 408.719,1404.23 409.23,1404.44 409.742,1405.02 410.253,1405.6 410.765,1406.55 411.276,1407.48 411.788,1407.3 412.299,1407.11 412.811,1406.83 413.322,1406.55 413.834,1407.21 414.345,1407.86 414.856,1409.01 415.368,1410.16 415.879,1409.32 416.391,1408.49 416.902,1407.19 417.414,1405.9 417.925,1405.29 418.437,1404.69 418.948,1405.22 419.46,1405.75 419.971,1405.2 420.482,1404.65 420.994,1403.57 421.505,1402.5 422.017,1402.64 422.528,1402.77 423.04,1402.29 423.551,1401.81 424.063,1402.23 424.574,1402.66 425.086,1402.34 425.597,1402.02 426.108,1401.72 426.62,1401.42 427.131,1401.02 427.643,1400.61 428.154,1400.65 428.666,1400.69 429.177,1400.31 429.689,1399.94 430.2,1399.64 430.712,1399.35 431.223,1400.23 431.734,1401.11 432.246,1400.54 432.757,1399.97 433.269,1399.34 433.78,1398.7 434.292,1399.08 434.803,1399.44 435.315,1398.95 435.826,1398.46 436.338,1398.47 436.849,1398.49 437.36,1399 437.872,1399.51 438.383,1399.61 438.895,1399.71 439.406,1400.04 439.918,1400.36 440.429,1399.39 440.941,1398.42 441.452,1398.91 441.964,1399.4 442.475,1398.46 442.986,1397.52 443.498,1397.23 444.009,1396.94 444.521,1397.16 445.032,1397.38 445.544,1397.65 446.055,1397.92 446.567,1398.34 447.078,1398.76 447.59,1399.23 448.101,1399.69 448.612,1400.45 449.124,1401.2 449.635,1401.68 450.147,1402.16 450.658,1402.39 451.17,1402.62 451.681,1401.78 452.193,1400.94 452.704,1400.11 453.216,1399.29 453.727,1398.69 454.238,1398.09 454.75,1398.31 455.261,1398.54 455.773,1399.19 456.284,1399.82 456.796,1399.21 457.307,1398.59 457.819,1398.23 458.33,1397.88 458.842,1397.86 459.353,1397.84 459.864,1397.76 460.376,1397.69 460.887,1398.03 461.399,1398.37 461.91,1398.14 462.422,1397.91 462.933,1397.15 463.445,1396.39 463.956,1396.46 464.468,1396.53 464.979,1397.05 465.49,1397.57 466.002,1398.6 466.513,1399.62 467.025,1399.64 467.536,1399.65 468.048,1399.32 468.559,1398.99 469.071,1399.97 469.582,1400.95 470.094,1400.4 470.605,1399.86 471.116,1399.9 471.628,1399.94 472.139,1399.84 472.651,1399.74 473.162,1399.96 473.674,1400.17 474.185,1400.43 474.697,1400.69 475.208,1400.35 475.719,1400.01 476.231,1400.27 476.742,1400.52 477.254,1399.78 477.765,1399.04 478.277,1398.72 478.788,1398.42 479.3,1399.58 479.811,1400.74 480.323,1400.53 480.834,1400.32 481.345,1400.08 481.857,1399.84 482.368,1400.44 482.88,1401.04 483.391,1400.79 483.903,1400.54 484.414,1399.64 484.926,1398.75 485.437,1399.68 485.949,1400.6 486.46,1400.19 486.971,1399.79 487.483,1399.72 487.994,1399.64 488.506,1399.27 489.017,1398.91 489.529,1399.09 490.04,1399.26 490.552,1399.51 491.063,1399.76 491.575,1400.04 492.086,1400.31 492.597,1400.14 493.109,1399.96 493.62,1400.06 494.132,1400.15 494.643,1400.07 495.155,1399.99 495.666,1399.97 496.178,1399.95 496.689,1398.4 497.201,1396.86 497.712,1396.39 498.223,1395.92 498.735,1395.75 499.246,1395.57 499.758,1394.78 500.269,1394 500.781,1394.3 501.292,1394.6 501.804,1395.31 502.315,1396.01 502.827,1395.11 503.338,1394.22 503.849,1394.34 504.361,1394.47 504.872,1394.32 505.384,1394.17 505.895,1394.11 506.407,1394.04 506.918,1395.25 507.43,1396.45 507.941,1396.34 508.453,1396.22 508.964,1396.93 509.475,1397.64 509.987,1398.53 510.498,1399.41 511.01,1399.97 511.521,1400.52 512.033,1399.63 512.544,1398.75 513.056,1397.6 513.567,1396.45 514.079,1396.8 514.59,1397.15 515.101,1396.58 515.613,1396.01 516.124,1395.77 516.636,1395.54 517.147,1395.44 517.659,1395.34 518.17,1395.03 518.682,1394.72 519.193,1393.37 519.705,1392.02 520.216,1390.21 520.727,1388.4 521.239,1388.54 521.75,1388.68 522.262,1388.71 522.773,1388.74 523.285,1387.98 523.796,1387.21 524.308,1387.12 524.819,1387.03 525.331,1387.76 525.842,1388.49 526.353,1388.07 526.865,1387.66 527.376,1387.44 527.888,1387.23 528.399,1387.93 528.911,1388.61 529.422,1388.29 529.934,1387.97 530.445,1386.5 530.957,1385.04 531.468,1384.73 531.979,1384.42 532.491,1385.08 533.002,1385.74 533.514,1385.8 534.025,1385.85 534.537,1386.11 535.048,1386.37 535.56,1387.48 536.071,1388.57 536.583,1387.97 537.094,1387.38 537.605,1387.56 538.117,1387.74 538.628,1387.72 539.14,1387.69 539.651,1388.3 540.163,1388.89 540.674,1388.71 541.186,1388.53 541.697,1388.77 542.209,1389 542.72,1387.51 543.231,1386.03 543.743,1385.17 544.254,1384.3 544.766,1385.04 545.277,1385.78 545.789,1385.64 546.3,1385.5 546.812,1385.19 547.323,1384.89 547.835,1385.89 548.346,1386.88 548.857,1387.14 549.369,1387.39 549.88,1387.2 550.392,1387.02 550.903,1387.78 551.415,1388.53 551.926,1387.99 552.438,1387.46 552.949,1387.72 553.461,1387.97 553.972,1389.24 554.483,1390.49 554.995,1388.93 555.506,1387.37 556.018,1388.48 556.529,1389.58 557.041,1389.48 557.552,1389.38 558.064,1389.04 558.575,1388.71 559.087,1389.65 559.598,1390.57 560.109,1389.57 560.621,1388.56 561.132,1388.74 561.644,1388.92 562.155,1388.78 562.667,1388.64 563.178,1388.23 563.69,1387.82 564.201,1387.27 564.713,1386.72 565.224,1386.42 565.735,1386.12 566.247,1386.25 566.758,1386.37 567.27,1386.82 567.781,1387.27 568.293,1387.13 568.804,1387 569.316,1387.82 569.827,1388.63 570.338,1388.65 570.85,1388.68 571.361,1388.37 571.873,1388.07 572.384,1388.31 572.896,1388.55 573.407,1387.74 573.919,1386.93 574.43,1386.29 574.942,1385.65 575.453,1386.15 575.964,1386.65 576.476,1387.31 576.987,1387.96 577.499,1387.69 578.01,1387.42 578.522,1386.79 579.033,1386.17 579.545,1385.6 580.056,1385.04 580.568,1384.21 581.079,1383.38 581.59,1383.9 582.102,1384.41 582.613,1384.32 583.125,1384.23 583.636,1384.55 584.148,1384.86 584.659,1384.31 585.171,1383.76 585.682,1384.42 586.194,1385.07 586.705,1385.02 587.216,1384.97 587.728,1383.83 588.239,1382.69 588.751,1382.29 589.262,1381.88 589.774,1381.08 590.285,1380.27 590.797,1382.02 591.308,1383.74 591.82,1385.28 592.331,1386.8 592.842,1385.53 593.354,1384.27 593.865,1383.82 594.377,1383.37 594.888,1383.39 595.4,1383.4 595.911,1382.94 596.423,1382.48 596.934,1382.66 597.446,1382.85 597.957,1383.53 598.468,1384.2 598.98,1384.47 599.491,1384.74 600.003,1383.99 600.514,1383.24 601.026,1383.79 601.537,1384.33 602.049,1385.24 602.56,1386.15 603.072,1385.6 603.583,1385.04 604.094,1385.52 604.606,1385.99 605.117,1386.59 605.629,1387.19 606.14,1388.53 606.652,1389.86 607.163,1390.53 607.675,1391.2 608.186,1391.23 608.698,1391.27 609.209,1390.65 609.72,1390.04 610.232,1390.64 610.743,1391.23 611.255,1390.98 611.766,1390.73 612.278,1389.7 612.789,1388.67 613.301,1389.12 613.812,1389.58 614.324,1389.23 614.835,1388.89 615.346,1388.42 615.858,1387.97 616.369,1388 616.881,1388.03 617.392,1388.74 617.904,1389.44 618.415,1389.95 618.927,1390.46 619.438,1390.43 619.95,1390.4 620.461,1390.9 620.972,1391.4 621.484,1391.36 621.995,1391.32 622.507,1392.32 623.018,1393.31 623.53,1393.67 624.041,1394.03 624.553,1394.49 625.064,1394.95 625.576,1395.58 626.087,1396.2 626.598,1397.19 627.11,1398.17 627.621,1397.63 628.133,1397.1 628.644,1396.31 629.156,1395.53 629.667,1396.46 630.179,1397.37 630.69,1396.96 631.202,1396.55 631.713,1396.87 632.224,1397.17 632.736,1397.65 633.247,1398.11 633.759,1398.35 634.27,1398.59 634.782,1398.37 635.293,1398.14 635.805,1398.3 636.316,1398.47 636.828,1397.42 637.339,1396.38 637.85,1398.15 638.362,1399.9 638.873,1399.65 639.385,1399.4 639.896,1399.62 640.408,1399.84 640.919,1401.24 641.431,1402.62 641.942,1404.28 642.454,1405.91 642.965,1406.94 643.476,1407.95 643.988,1408.81 644.499,1409.65 645.011,1409.42 645.522,1409.19 646.034,1409.98 646.545,1410.75 647.057,1410.51 647.568,1410.26 648.08,1411.39 648.591,1412.51 649.102,1413.26 649.614,1414 650.125,1413.44 650.637,1412.89 651.148,1413.28 651.66,1413.67 652.171,1413.3 652.683,1412.93 653.194,1414.17 653.706,1415.39 654.217,1414.24 654.728,1413.08 655.24,1411.87 655.751,1410.67 656.263,1411.65 656.774,1412.61 657.286,1411.99 657.797,1411.37 658.309,1411.63 658.82,1411.89 659.332,1413.72 659.843,1415.53 660.354,1415.04 660.866,1414.56 661.377,1413.39 661.889,1412.22 662.4,1411.06 662.912,1409.91 663.423,1409.57 663.935,1409.24 664.446,1408.48 664.957,1407.72 665.469,1408.51 665.98,1409.3 666.492,1408.67 667.003,1408.05 667.515,1407.76 668.026,1407.45 668.538,1408.56 669.049,1409.67 669.561,1409.27 670.072,1408.88 670.583,1410.58 671.095,1412.26 671.606,1413.74 672.118,1415.2 672.629,1415.09 673.141,1414.98 673.652,1414.27 674.164,1413.57 674.675,1413.62 675.187,1413.66 675.698,1412.82 676.209,1411.98 676.721,1411.76 677.232,1411.53 677.744,1411.76 678.255,1411.98 678.767,1411.22 679.278,1410.47 679.79,1411.36 680.301,1412.24 680.813,1412.76 681.324,1413.27 681.835,1413.39 682.347,1413.49 682.858,1413.85 683.37,1414.2 683.881,1413.37 684.393,1412.55 684.904,1412.05 685.416,1411.56 685.927,1411.12 686.439,1410.68 686.95,1410.33 687.461,1409.99 687.973,1409.4 688.484,1408.81 688.996,1408.68 689.507,1408.56 690.019,1408.01 690.53,1407.47 691.042,1407.19 691.553,1406.91 692.065,1406.74 692.576,1406.56 693.087,1405.97 693.599,1405.38 694.11,1406.32 694.622,1407.26 695.133,1407.6 695.645,1407.93 696.156,1408.3 696.668,1408.66 697.179,1407.68 697.691,1406.71 698.202,1406.09 698.713,1405.46 699.225,1405.31 699.736,1405.16 700.248,1403.76 700.759,1402.36 701.271,1403.26 701.782,1404.16 702.294,1403.32 702.805,1402.49 703.317,1403.1 703.828,1403.7 704.339,1404.36 704.851,1405.01 705.362,1404.72 705.874,1404.42 706.385,1403.8 706.897,1403.18 707.408,1402.97 707.92,1402.75 708.431,1402.94 708.943,1403.12 709.454,1402.25 709.965,1401.38 710.477,1398.72 710.988,1396.09 711.5,1396.25 712.011,1396.4 712.523,1398.28 713.034,1400.12 713.546,1401.34 714.057,1402.55 714.569,1402.61 715.08,1402.66 715.591,1402.81 716.103,1402.96 716.614,1402.85 717.126,1402.74 717.637,1403.98 718.149,1405.2 718.66,1405.25 719.172,1405.29 719.683,1404.95 720.195,1404.6 720.706,1404.02 721.217,1403.44 721.729,1403.11 722.24,1402.78 722.752,1402.18 723.263,1401.58 723.775,1401.57 724.286,1401.56 724.798,1401.36 725.309,1401.15 725.821,1400.42 726.332,1399.68 726.843,1400.31 727.355,1400.94 727.866,1401.5 728.378,1402.05 728.889,1401.84 729.401,1401.64 729.912,1403.52 730.424,1405.34 730.935,1405.2 731.447,1405.07 731.958,1406.18 732.469,1407.28 732.981,1407.57 733.492,1407.86 734.004,1408.37 734.515,1408.87 735.027,1408.76 735.538,1408.64 736.05,1408.81 736.561,1408.97 737.073,1408.58 737.584,1408.2 738.095,1408.48 738.607,1408.76 739.118,1408.6 739.63,1408.45 740.141,1408.88 740.653,1409.3 741.164,1410.5 741.676,1411.68 742.187,1412.79 742.699,1413.89 743.21,1413.45 743.721,1413.01 744.233,1412.37 744.744,1411.74 745.256,1411.01 745.767,1410.28 746.279,1409.42 746.79,1408.57 747.302,1407.17 747.813,1405.77 748.325,1404.83 748.836,1403.89 749.347,1404.3 749.859,1404.7 750.37,1406.89 750.882,1409.05 751.393,1408.62 751.905,1408.2 752.416,1407.3 752.928,1406.41 753.439,1406.91 753.951,1407.41 754.462,1407.9 754.973,1408.38 755.485,1407.9 755.996,1407.42 756.508,1408.25 757.019,1409.06 757.531,1409.54 758.042,1410.02 758.554,1409.31 759.065,1408.6 759.576,1408.81 760.088,1409.02 760.599,1408.62 761.111,1408.22 761.622,1408.95 762.134,1409.66 762.645,1409.28 763.157,1408.9 763.668,1408.51 764.18,1408.11 764.691,1408.4 765.202,1408.68 765.714,1410.58 766.225,1412.45 766.737,1412.18 767.248,1411.92 767.76,1412.55 768.271,1413.18 768.783,1412.25 769.294,1411.33 769.806,1410.38 770.317,1409.44 770.828,1409.76 771.34,1410.08 771.851,1410.22 772.363,1410.37 772.874,1410.63 773.386,1410.88 773.897,1409.45 774.409,1408.02 774.92,1408.28 775.432,1408.53 775.943,1408.57 776.454,1408.61 776.966,1410.24 777.477,1411.86 777.989,1411.06 778.5,1410.26 779.012,1409.65 779.523,1409.04 780.035,1409.3 780.546,1409.55 781.058,1409.55 781.569,1409.56 782.08,1409.01 782.592,1408.46 783.103,1408.87 783.615,1409.27 784.126,1409.16 784.638,1409.06 785.149,1409.73 785.661,1410.39 786.172,1410.16 786.684,1409.93 787.195,1410.51 787.706,1411.09 788.218,1411.15 788.729,1411.21 789.241,1410.32 789.752,1409.44 790.264,1409.81 790.775,1410.18 791.287,1410.73 791.798,1411.28 792.31,1411.67 792.821,1412.06 793.332,1412.46 793.844,1412.86 794.355,1412.94 794.867,1413.01 795.378,1413.8 795.89,1414.57 796.401,1414.77 796.913,1414.95 797.424,1415.03 797.936,1415.1 798.447,1415.38 798.958,1415.67 799.47,1414.33 799.981,1413 800.493,1412.01 801.004,1411.02 801.516,1409.38 802.027,1407.75 802.539,1408.39 803.05,1409.01 803.562,1409.77 804.073,1410.51 804.584,1410.09 805.096,1409.67 805.607,1410.57 806.119,1411.46 806.63,1411.6 807.142,1411.73 807.653,1412.06 808.165,1412.37 808.676,1412 809.188,1411.63 809.699,1412.17 810.21,1412.7 810.722,1413.47 811.233,1414.23 811.745,1414.53 812.256,1414.83 812.768,1414.56 813.279,1414.29 813.791,1415.58 814.302,1416.84 814.814,1416.11 815.325,1415.39 815.836,1415.56 816.348,1415.72 816.859,1416.26 817.371,1416.8 817.882,1415.78 818.394,1414.76 818.905,1413.83 819.417,1412.89 819.928,1413.7 820.44,1414.49 820.951,1414.97 821.462,1415.44 821.974,1415.9 822.485,1416.36 822.997,1417.31 823.508,1418.26 824.02,1417.23 824.531,1416.19 825.043,1414.77 825.554,1413.36 826.066,1414.98 826.577,1416.59 827.088,1417.94 827.6,1419.27 828.111,1419.75 828.623,1420.24 829.134,1420.65 829.646,1421.05 830.157,1420.15 830.669,1419.25 831.18,1418.5 831.692,1417.75 832.203,1418.25 832.714,1418.74 833.226,1418.76 833.737,1418.78 834.249,1418.67 834.76,1418.55 835.272,1418.63 835.783,1418.69 836.295,1418.75 836.806,1418.8 837.318,1419.65 837.829,1420.49 838.34,1420.56 838.852,1420.63 839.363,1420.86 839.875,1421.08 840.386,1421.99 840.898,1422.89 841.409,1422.73 841.921,1422.56 842.432,1422.97 842.944,1423.38 843.455,1422.94 843.966,1422.49 844.478,1421.65 844.989,1420.81 845.501,1421.5 846.012,1422.17 846.524,1422.17 847.035,1422.18 847.547,1423.29 848.058,1424.38 848.57,1424.12 849.081,1423.86 849.592,1422.53 850.104,1421.22 850.615,1421.9 851.127,1422.58 851.638,1420.52 852.15,1418.48 852.661,1419.49 853.173,1420.49 853.684,1418.94 854.196,1417.4 854.707,1418.32 855.218,1419.24 855.73,1418.81 856.241,1418.39 856.753,1418.03 857.264,1417.67 857.776,1418.7 858.287,1419.72 858.799,1420.14 859.31,1420.56 859.821,1422.06 860.333,1423.54 860.844,1423.78 861.356,1424 861.867,1425.35 862.379,1426.68 862.89,1426.82 863.402,1426.96 863.913,1427.48 864.425,1427.99 864.936,1427.11 865.447,1426.23 865.959,1427.17 866.47,1428.08 866.982,1427.73 867.493,1427.39 868.005,1428.37 868.516,1429.34 869.028,1429.35 869.539,1429.35 870.051,1428.24 870.562,1427.15 871.073,1427.08 871.585,1427 872.096,1427.12 872.608,1427.23 873.119,1425.65 873.631,1424.08 874.142,1423.5 874.654,1422.92 875.165,1422.54 875.677,1422.17 876.188,1422.89 876.699,1423.61 877.211,1422.3 877.722,1421.01 878.234,1421.04 878.745,1421.06 879.257,1422.14 879.768,1423.2 880.28,1423.16 880.791,1423.12 881.303,1422.99 881.814,1422.86 882.325,1424.05 882.837,1425.23 883.348,1426.18 883.86,1427.11 884.371,1428.16 884.883,1429.2 885.394,1428.03 885.906,1426.88 886.417,1425.18 886.929,1423.49 887.44,1424.23 887.951,1424.96 888.463,1425.61 888.974,1426.24 889.486,1428.15 889.997,1430.03 890.509,1431.01 891.02,1431.98 891.532,1433.86 892.043,1435.71 892.555,1436.72 893.066,1437.72 893.577,1438.38 894.089,1439.02 894.6,1437.98 895.112,1436.95 895.623,1437.51 896.135,1438.05 896.646,1439.05 897.158,1440.03 897.669,1442.91 898.181,1445.72 898.692,1444.31 899.203,1442.92 899.715,1441.68 900.226,1440.45 900.738,1440.4 901.249,1440.34 901.761,1439.18 902.272,1438.04 902.784,1437.87 903.295,1437.7 903.807,1437.82 904.318,1437.94 904.829,1437.48 905.341,1437.02 905.852,1438.12 906.364,1439.21 906.875,1439.76 907.387,1440.31 907.898,1441.24 908.41,1442.16 908.921,1442.34 909.433,1442.52 909.944,1442.03 910.455,1441.54 910.967,1442.81 911.478,1444.06 911.99,1443.16 912.501,1442.27 913.013,1441.35 913.524,1440.44 914.036,1441.42 914.547,1442.38 915.059,1443.11 915.57,1443.81 916.081,1443.75 916.593,1443.68 917.104,1444.27 917.616,1444.85 918.127,1445.25 918.639,1445.66 919.15,1445.18 919.662,1444.7 920.173,1444.77 920.685,1444.84 921.196,1443.88 921.707,1442.92 922.219,1442.42 922.73,1441.93 923.242,1441.21 923.753,1440.48 924.265,1440.95 924.776,1441.41 925.288,1441.33 925.799,1441.24 926.311,1440.15 926.822,1439.07 927.333,1439.82 927.845,1440.56 928.356,1441.45 928.868,1442.33 929.379,1441.72 929.891,1441.12 930.402,1442.5 930.914,1443.85 931.425,1442.74 931.937,1441.63 932.448,1441.04 932.959,1440.46 933.471,1440.53 933.982,1440.6 934.494,1440.36 935.005,1440.12 935.517,1439.25 936.028,1438.39 936.54,1437.94 937.051,1437.47 937.563,1436.98 938.074,1436.5 938.585,1436.87 939.097,1437.24 939.608,1436.45 940.12,1435.67 940.631,1435.76 941.143,1435.81 941.654,1434.27 942.166,1432.74 942.677,1432.71 943.189,1432.69 943.7,1432.91 944.211,1433.13 944.723,1434.16 945.234,1435.17 945.746,1435.2 946.257,1435.23 946.769,1436.21 947.28,1437.19 947.792,1438.14 948.303,1439.09 948.815,1438.4 949.326,1437.72 949.837,1438.84 950.349,1439.94 950.86,1438.67 951.372,1437.41 951.883,1438.35 952.395,1439.29 952.906,1439.11 953.418,1438.92 953.929,1438.12 954.44,1437.31 954.952,1436.74 955.463,1436.18 955.975,1434.64 956.486,1433.11 956.998,1433.44 957.509,1433.76 958.021,1434.94 958.532,1436.09 959.044,1435.67 959.555,1435.24 960.066,1435.6 960.578,1435.96 961.089,1434.84 961.601,1433.72 962.112,1434.64 962.624,1435.55 963.135,1436.64 963.647,1437.69 964.158,1437.98 964.67,1438.27 965.181,1439.16 965.692,1440.03 966.204,1440.9 966.715,1441.76 967.227,1442.52 967.738,1443.27 968.25,1442.71 968.761,1442.14 969.273,1441.94 969.784,1441.75 970.296,1441.99 970.807,1442.23 971.318,1443.01 971.83,1443.78 972.341,1443.82 972.853,1443.87 973.364,1442.56 973.876,1441.26 974.387,1440.96 974.899,1440.66 975.41,1440.77 975.922,1440.86 976.433,1441.36 976.944,1441.84 977.456,1441.92 977.967,1441.98 978.479,1442.9 978.99,1443.79 979.502,1443.48 980.013,1443.17 980.525,1442.09 981.036,1441.01 981.548,1440.67 982.059,1440.34 982.57,1439.01 983.082,1437.7 983.593,1437.73 984.105,1437.76 984.616,1437.26 985.128,1436.76 985.639,1436.42 986.151,1436.07 986.662,1436.14 987.174,1436.21 987.685,1437.08 988.196,1437.95 988.708,1437.26 989.219,1436.58 989.731,1436.8 990.242,1437.02 990.754,1437.1 991.265,1437.18 991.777,1436.42 992.288,1435.66 992.8,1434.39 993.311,1433.12 993.822,1432.13 994.334,1431.14 994.845,1431.39 995.357,1431.64 995.868,1433.22 996.38,1434.79 996.891,1436.52 997.403,1438.21 997.914,1438.15 998.426,1438.09 998.937,1437.69 999.448,1437.28 999.96,1436.8 1000.47,1436.32 1000.98,1437.17 1001.49,1438.01 1002.01,1437.83 1002.52,1437.64 1003.03,1437.86 1003.54,1438.07 1004.05,1436.15 1004.56,1434.25 1005.07,1433.25 1005.59,1432.25 1006.1,1432.78 1006.61,1433.3 1007.12,1434.98 1007.63,1436.64 1008.14,1436.26 1008.65,1435.89 1009.17,1433.58 1009.68,1431.28 1010.19,1430.07 1010.7,1428.89 1011.21,1427.59 1011.72,1426.3 1012.23,1426.7 1012.75,1427.08 1013.26,1426.28 1013.77,1425.49 1014.28,1425.97 1014.79,1426.45 1015.3,1425.02 1015.81,1423.6 1016.33,1422.69 1016.84,1421.79 1017.35,1421.62 1017.86,1421.46 1018.37,1421.11 1018.88,1420.76 1019.4,1421.23 1019.91,1421.7 1020.42,1421.64 1020.93,1421.57 1021.44,1421.43 1021.95,1421.3 1022.46,1422.04 1022.98,1422.78 1023.49,1422.84 1024,1422.89 1024.51,1422.09 1025.02,1421.3 1025.53,1421.57 1026.04,1421.83 1026.56,1422.02 1027.07,1422.2 1027.58,1421.24 1028.09,1420.3 1028.6,1419.58 1029.11,1418.87 1029.62,1418.43 1030.14,1418 1030.65,1418.79 1031.16,1419.58 1031.67,1419.24 1032.18,1418.91 1032.69,1419.55 1033.2,1420.16 1033.72,1420.54 1034.23,1420.92 1034.74,1421.72 1035.25,1422.52 1035.76,1422.47 1036.27,1422.42 1036.78,1422.58 1037.3,1422.73 1037.81,1422.61 1038.32,1422.5 1038.83,1422.59 1039.34,1422.66 1039.85,1422.59 1040.36,1422.52 1040.88,1421.52 1041.39,1420.54 1041.9,1418.55 1042.41,1416.58 1042.92,1416.8 1043.43,1417.01 1043.94,1418.52 1044.46,1420.02 1044.97,1419.35 1045.48,1418.68 1045.99,1417.74 1046.5,1416.81 1047.01,1417.63 1047.53,1418.42 1048.04,1418.3 1048.55,1418.17 1049.06,1418.35 1049.57,1418.52 1050.08,1418.04 1050.59,1417.57 1051.11,1417.38 1051.62,1417.19 1052.13,1417.35 1052.64,1417.51 1053.15,1417.4 1053.66,1417.3 1054.17,1418.04 1054.69,1418.77 1055.2,1418.56 1055.71,1418.36 1056.22,1418.22 1056.73,1418.08 1057.24,1418 1057.75,1417.93 1058.27,1419.38 1058.78,1420.82 1059.29,1422.58 1059.8,1424.32 1060.31,1424.59 1060.82,1424.87 1061.33,1423.78 1061.85,1422.7 1062.36,1421.75 1062.87,1420.81 1063.38,1420.13 1063.89,1419.47 1064.4,1419.22 1064.91,1418.97 1065.43,1417.95 1065.94,1416.93 1066.45,1417.67 1066.96,1418.39 1067.47,1418.27 1067.98,1418.15 1068.49,1418.65 1069.01,1419.13 1069.52,1421.06 1070.03,1422.87 1070.54,1423.96 1071.05,1425.04 1071.56,1424.9 1072.07,1424.76 1072.59,1424.66 1073.1,1424.56 1073.61,1424.75 1074.12,1424.94 1074.63,1424.07 1075.14,1423.21 1075.66,1422.55 1076.17,1421.89 1076.68,1420.86 1077.19,1419.85 1077.7,1419.42 1078.21,1418.99 1078.72,1418.2 1079.24,1417.41 1079.75,1418.54 1080.26,1419.65 1080.77,1420.3 1081.28,1420.92 1081.79,1419.2 1082.3,1417.5 1082.82,1417.1 1083.33,1416.7 1083.84,1416.65 1084.35,1416.6 1084.86,1416.64 1085.37,1416.68 1085.88,1416.43 1086.4,1416.17 1086.91,1416.58 1087.42,1416.99 1087.93,1417.37 1088.44,1417.75 1088.95,1417.45 1089.46,1417.15 1089.98,1416.35 1090.49,1415.56 1091,1414.99 1091.51,1414.42 1092.02,1413.14 1092.53,1411.86 1093.04,1410.56 1093.56,1409.26 1094.07,1408.93 1094.58,1408.6 1095.09,1410.02 1095.6,1411.41 1096.11,1410.32 1096.62,1409.24 1097.14,1410.69 1097.65,1412.12 1098.16,1413.26 1098.67,1414.37 1099.18,1412.31 1099.69,1410.26 1100.2,1410.12 1100.72,1409.99 1101.23,1410.58 1101.74,1411.15 1102.25,1411.17 1102.76,1411.18 1103.27,1410.72 1103.79,1410.26 1104.3,1409.02 1104.81,1407.8 1105.32,1408.93 1105.83,1410.05 1106.34,1410.71 1106.85,1411.37 1107.37,1413.83 1107.88,1416.24 1108.39,1414.92 1108.9,1413.61 1109.41,1413.26 1109.92,1412.9 1110.43,1411.67 1110.95,1410.45 1111.46,1411.15 1111.97,1411.82 1112.48,1412.11 1112.99,1412.39 1113.5,1411.46 1114.01,1410.52 1114.53,1408.25 1115.04,1405.98 1115.55,1407.22 1116.06,1408.45 1116.57,1408.84 1117.08,1409.23 1117.59,1409.23 1118.11,1409.23 1118.62,1410.2 1119.13,1411.14 1119.64,1410.1 1120.15,1409.06 1120.66,1408.52 1121.17,1407.99 1121.69,1408.83 1122.2,1409.65 1122.71,1409.39 1123.22,1409.13 1123.73,1408.41 1124.24,1407.7 1124.75,1407.63 1125.27,1407.51 1125.78,1406.15 1126.29,1404.8 1126.8,1405.04 1127.31,1405.27 1127.82,1405.82 1128.33,1406.37 1128.85,1405.55 1129.36,1404.73 1129.87,1404.13 1130.38,1403.54 1130.89,1404.1 1131.4,1404.66 1131.92,1404.29 1132.43,1403.89 1132.94,1403.92 1133.45,1403.95 1133.96,1405.19 1134.47,1406.42 1134.98,1407.09 1135.5,1407.74 1136.01,1408.66 1136.52,1409.55 1137.03,1408.38 1137.54,1407.22 1138.05,1406.96 1138.56,1406.7 1139.08,1406.9 1139.59,1407.11 1140.1,1408.6 1140.61,1410.06 1141.12,1410.71 1141.63,1411.35 1142.14,1410.54 1142.66,1409.74 1143.17,1408.18 1143.68,1406.65 1144.19,1405.26 1144.7,1403.88 1145.21,1404.4 1145.72,1404.92 1146.24,1404.74 1146.75,1404.55 1147.26,1405.23 1147.77,1405.89 1148.28,1403.91 1148.79,1401.96 1149.3,1400.88 1149.82,1399.81 1150.33,1400.54 1150.84,1401.27 1151.35,1401.77 1151.86,1402.25 1152.37,1402.52 1152.88,1402.77 1153.4,1402.21 1153.91,1401.64 1154.42,1402.39 1154.93,1403.12 1155.44,1403.52 1155.95,1403.91 1156.46,1403.62 1156.98,1403.32 1157.49,1404.23 1158,1405.13 1158.51,1404.73 1159.02,1404.32 1159.53,1403.16 1160.05,1402.01 1160.56,1400.97 1161.07,1399.94 1161.58,1398.79 1162.09,1397.66 1162.6,1396.94 1163.11,1396.23 1163.63,1396.41 1164.14,1396.59 1164.65,1395.84 1165.16,1395.09 1165.67,1395.17 1166.18,1395.24 1166.69,1395.09 1167.21,1394.95 1167.72,1393.6 1168.23,1392.27 1168.74,1389.78 1169.25,1387.31 1169.76,1387.91 1170.27,1388.48 1170.79,1387.85 1171.3,1387.23 1171.81,1388.52 1172.32,1389.77 1172.83,1389.42 1173.34,1389.08 1173.85,1388.82 1174.37,1388.54 1174.88,1387.3 1175.39,1386.06 1175.9,1384.65 1176.41,1383.25 1176.92,1382.18 1177.43,1381.11 1177.95,1380.96 1178.46,1380.82 1178.97,1380.66 1179.48,1380.48 1179.99,1381.82 1180.5,1383.12 1181.01,1384.52 1181.53,1385.88 1182.04,1387.18 1182.55,1388.46 1183.06,1388.05 1183.57,1387.65 1184.08,1388.5 1184.59,1389.35 1185.11,1388.57 1185.62,1387.8 1186.13,1387.29 1186.64,1386.76 1187.15,1386.23 1187.66,1385.71 1188.18,1385.88 1188.69,1386.04 1189.2,1385.9 1189.71,1385.77 1190.22,1384.72 1190.73,1383.69 1191.24,1383.97 1191.76,1384.24 1192.27,1383.27 1192.78,1382.3 1193.29,1381.16 1193.8,1380.03 1194.31,1381.41 1194.82,1382.77 1195.34,1380.01 1195.85,1377.27 1196.36,1378.68 1196.87,1380.05 1197.38,1378.61 1197.89,1377.17 1198.4,1376.29 1198.92,1375.41 1199.43,1375.77 1199.94,1376.13 1200.45,1377.23 1200.96,1378.32 1201.47,1376.89 1201.98,1375.47 1202.5,1376.01 1203.01,1376.55 1203.52,1377.36 1204.03,1378.16 1204.54,1377.8 1205.05,1377.45 1205.56,1377.32 1206.08,1377.19 1206.59,1377.8 1207.1,1378.4 1207.61,1378.5 1208.12,1378.61 1208.63,1377.02 1209.14,1375.46 1209.66,1375.54 1210.17,1375.6 1210.68,1375.74 1211.19,1375.88 1211.7,1376.92 1212.21,1377.94 1212.72,1377.63 1213.24,1377.31 1213.75,1376.39 1214.26,1375.47 1214.77,1375.88 1215.28,1376.28 1215.79,1376.85 1216.3,1377.43 1216.82,1376.38 1217.33,1375.33 1217.84,1374.31 1218.35,1373.3 1218.86,1373.46 1219.37,1373.63 1219.89,1372.86 1220.4,1372.1 1220.91,1373.17 1221.42,1374.22 1221.93,1371.73 1222.44,1369.26 1222.95,1368.81 1223.47,1368.37 1223.98,1368.1 1224.49,1367.84 1225,1369.4 1225.51,1370.91 1226.02,1370.25 1226.53,1369.59 1227.05,1369.72 1227.56,1369.84 1228.07,1368.25 1228.58,1366.65 1229.09,1365 1229.6,1363.36 1230.11,1364.02 1230.63,1364.66 1231.14,1364.15 1231.65,1363.65 1232.16,1364.32 1232.67,1364.98 1233.18,1364.7 1233.69,1364.43 1234.21,1363.68 1234.72,1362.94 1235.23,1363.94 1235.74,1364.92 1236.25,1364.57 1236.76,1364.22 1237.27,1364.56 1237.79,1364.89 1238.3,1365.74 1238.81,1366.58 1239.32,1367.34 1239.83,1368.1 1240.34,1367.29 1240.85,1366.47 1241.37,1365.36 1241.88,1364.26 1242.39,1365.77 1242.9,1367.26 1243.41,1366.32 1243.92,1365.39 1244.43,1365.47 1244.95,1365.53 1245.46,1366.58 1245.97,1367.59 1246.48,1368.58 1246.99,1369.53 1247.5,1369.77 1248.02,1369.99 1248.53,1370.09 1249.04,1370.16 1249.55,1371.77 1250.06,1373.33 1250.57,1373.55 1251.08,1373.77 1251.6,1373.8 1252.11,1373.83 1252.62,1371.3 1253.13,1368.8 1253.64,1369.2 1254.15,1369.59 1254.66,1371.43 1255.18,1373.24 1255.69,1374.16 1256.2,1375.08 1256.71,1376.85 1257.22,1378.53 1257.73,1379.05 1258.24,1379.55 1258.76,1377.06 1259.27,1374.58 1259.78,1375.92 1260.29,1377.23 1260.8,1375.33 1261.31,1373.44 1261.82,1372.43 1262.34,1371.44 1262.85,1371.74 1263.36,1372.02 1263.87,1373.08 1264.38,1374.12 1264.89,1374.69 1265.4,1375.24 1265.92,1375.01 1266.43,1374.78 1266.94,1374.26 1267.45,1373.74 1267.96,1373.02 1268.47,1372.31 1268.98,1373.15 1269.5,1373.96 1270.01,1373.74 1270.52,1373.52 1271.03,1373.85 1271.54,1374.15 1272.05,1373.33 1272.56,1372.51 1273.08,1373.09 1273.59,1373.67 1274.1,1374.01 1274.61,1374.35 1275.12,1373.39 1275.63,1372.43 1276.15,1372.5 1276.66,1372.58 1277.17,1371.74 1277.68,1370.9 1278.19,1370.68 1278.7,1370.45 1279.21,1369.8 1279.73,1369.14 1280.24,1368.49 1280.75,1367.81 1281.26,1369.17 1281.77,1370.52 1282.28,1371.06 1282.79,1371.6 1283.31,1372.08 1283.82,1372.54 1284.33,1372.37 1284.84,1372.2 1285.35,1370.73 1285.86,1369.23 1286.37,1368.46 1286.89,1367.69 1287.4,1368.15 1287.91,1368.6 1288.42,1368.53 1288.93,1368.46 1289.44,1368.01 1289.95,1367.56 1290.47,1366.35 1290.98,1365.14 1291.49,1365.93 1292,1366.71 1292.51,1368.26 1293.02,1369.79 1293.53,1368.43 1294.05,1367.08 1294.56,1366.28 1295.07,1365.49 1295.58,1364.85 1296.09,1364.22 1296.6,1365.16 1297.11,1366.09 1297.63,1365.25 1298.14,1364.41 1298.65,1365.23 1299.16,1366.03 1299.67,1366.01 1300.18,1365.98 1300.69,1364.72 1301.21,1363.46 1301.72,1363.39 1302.23,1363.31 1302.74,1363.16 1303.25,1362.98 1303.76,1362.66 1304.28,1362.34 1304.79,1361.64 1305.3,1360.94 1305.81,1360.08 1306.32,1359.22 1306.83,1357.8 1307.34,1356.39 1307.86,1356.38 1308.37,1356.36 1308.88,1356.36 1309.39,1356.35 1309.9,1355.3 1310.41,1354.26 1310.92,1354.39 1311.44,1354.49 1311.95,1354.68 1312.46,1354.84 1312.97,1353.03 1313.48,1351.23 1313.99,1350.9 1314.5,1350.55 1315.02,1350.12 1315.53,1349.68 1316.04,1348.35 1316.55,1347.04 1317.06,1347.86 1317.57,1348.65 1318.08,1348.69 1318.6,1348.74 1319.11,1347.83 1319.62,1346.92 1320.13,1347.12 1320.64,1347.32 1321.15,1347.24 1321.66,1347.17 1322.18,1348.34 1322.69,1349.48 1323.2,1349.65 1323.71,1349.79 1324.22,1348.94 1324.73,1348.1 1325.24,1348.13 1325.76,1348.15 1326.27,1346.88 1326.78,1345.62 1327.29,1345.83 1327.8,1346.03 1328.31,1346.1 1328.82,1346.17 1329.34,1346.59 1329.85,1347.01 1330.36,1346.69 1330.87,1346.34 1331.38,1345.8 1331.89,1345.26 1332.41,1346.01 1332.92,1346.74 1333.43,1346.38 1333.94,1346.03 1334.45,1344.24 1334.96,1342.47 1335.47,1341.94 1335.99,1341.42 1336.5,1341.34 1337.01,1341.26 1337.52,1340.45 1338.03,1339.65 1338.54,1337.97 1339.05,1336.28 1339.57,1337.26 1340.08,1338.21 1340.59,1337.18 1341.1,1336.15 1341.61,1333.62 1342.12,1331.1 1342.63,1331.16 1343.15,1331.22 1343.66,1330.79 1344.17,1330.35 1344.68,1331.2 1345.19,1332.04 1345.7,1331.11 1346.21,1330.18 1346.73,1330.83 1347.24,1331.47 1347.75,1330.96 1348.26,1330.44 1348.77,1330.77 1349.28,1331.09 1349.79,1328.69 1350.31,1326.31 1350.82,1324.95 1351.33,1323.6 1351.84,1324.11 1352.35,1324.61 1352.86,1324.96 1353.37,1325.32 1353.89,1327.1 1354.4,1328.86 1354.91,1329.58 1355.42,1330.28 1355.93,1329.49 1356.44,1328.71 1356.95,1328.51 1357.47,1328.31 1357.98,1328.3 1358.49,1328.28 1359,1326.37 1359.51,1324.47 1360.02,1324.44 1360.54,1324.4 1361.05,1325.96 1361.56,1327.5 1362.07,1328.59 1362.58,1329.67 1363.09,1329.78 1363.6,1329.9 1364.12,1328.39 1364.63,1326.9 1365.14,1328.49 1365.65,1330.05 1366.16,1329.38 1366.67,1328.71 1367.18,1327.37 1367.7,1326.05 1368.21,1325.66 1368.72,1325.29 1369.23,1326.6 1369.74,1327.9 1370.25,1326.6 1370.76,1325.3 1371.28,1325.34 1371.79,1325.38 1372.3,1326.68 1372.81,1327.94 1373.32,1327.6 1373.83,1327.25 1374.34,1328.33 1374.86,1329.38 1375.37,1329.78 1375.88,1330.16 1376.39,1330.42 1376.9,1330.68 1377.41,1329.03 1377.92,1327.39 1378.44,1329.15 1378.95,1330.87 1379.46,1330.91 1379.97,1330.96 1380.48,1330.88 1380.99,1330.8 1381.5,1331.05 1382.02,1331.27 1382.53,1331.28 1383.04,1331.29 1383.55,1331.77 1384.06,1332.23 1384.57,1331.95 1385.08,1331.67 1385.6,1332.83 1386.11,1333.97 1386.62,1334.98 1387.13,1335.97 1387.64,1336.78 1388.15,1337.55 1388.66,1337.42 1389.18,1337.28 1389.69,1336.95 1390.2,1336.63 1390.71,1337.02 1391.22,1337.4 1391.73,1335.62 1392.25,1333.85 1392.76,1334.88 1393.27,1335.89 1393.78,1335.34 1394.29,1334.8 1394.8,1333.68 1395.31,1332.58 1395.83,1333.96 1396.34,1335.33 1396.85,1335.6 1397.36,1335.87 1397.87,1336.19 1398.38,1336.48 1398.89,1336.49 1399.41,1336.5 1399.92,1334.91 1400.43,1333.34 1400.94,1332.75 1401.45,1332.17 1401.96,1333.86 1402.47,1335.52 1402.99,1335.34 1403.5,1335.16 1404.01,1332.98 1404.52,1330.82 1405.03,1329.45 1405.54,1328.1 1406.05,1327.25 1406.57,1326.4 1407.08,1326.36 1407.59,1326.31 1408.1,1325.31 1408.61,1324.31 1409.12,1323.87 1409.63,1323.42 1410.15,1323.83 1410.66,1324.24 1411.17,1324.41 1411.68,1324.57 1412.19,1323.83 1412.7,1323.09 1413.21,1323.72 1413.73,1324.33 1414.24,1325.23 1414.75,1326.14 1415.26,1325.38 1415.77,1324.63 1416.28,1326.04 1416.79,1327.44 1417.31,1328.01 1417.82,1328.58 1418.33,1327.43 1418.84,1326.29 1419.35,1326.78 1419.86,1327.27 1420.38,1327.24 1420.89,1327.21 1421.4,1329.45 1421.91,1331.66 1422.42,1331.61 1422.93,1331.56 1423.44,1330.1 1423.96,1328.64 1424.47,1330.11 1424.98,1331.56 1425.49,1330.46 1426,1329.37 1426.51,1329.02 1427.02,1328.66 1427.54,1328.43 1428.05,1328.19 1428.56,1328.49 1429.07,1328.76 1429.58,1327.41 1430.09,1326.06 1430.6,1325.65 1431.12,1325.23 1431.63,1326.11 1432.14,1326.98 1432.65,1327.21 1433.16,1327.44 1433.67,1327.31 1434.18,1327.19 1434.7,1328.3 1435.21,1329.4 1435.72,1329.51 1436.23,1329.62 1436.74,1330.26 1437.25,1330.88 1437.76,1329.17 1438.28,1327.48 1438.79,1326.86 1439.3,1326.24 1439.81,1326.53 1440.32,1326.81 1440.83,1326.47 1441.34,1326.13 1441.86,1326.34 1442.37,1326.54 1442.88,1326.5 1443.39,1326.46 1443.9,1325.46 1444.41,1324.46 1444.92,1325.06 1445.44,1325.66 1445.95,1324.32 1446.46,1322.99 1446.97,1323.23 1447.48,1323.46 1447.99,1321.69 1448.51,1319.94 1449.02,1319.24 1449.53,1318.54 1450.04,1318.31 1450.55,1318.08 1451.06,1318.02 1451.57,1317.96 1452.09,1317.96 1452.6,1317.94 1453.11,1318.55 1453.62,1319.13 1454.13,1317.7 1454.64,1316.27 1455.15,1315.49 1455.67,1314.71 1456.18,1312.15 1456.69,1309.61 1457.2,1308.62 1457.71,1307.63 1458.22,1309.28 1458.73,1310.91 1459.25,1310.88 1459.76,1310.83 1460.27,1310.32 1460.78,1309.81 1461.29,1309.93 1461.8,1310.03 1462.31,1308.85 1462.83,1307.69 1463.34,1308.88 1463.85,1310.04 1464.36,1309.13 1464.87,1308.23 1465.38,1309.25 1465.89,1310.24 1466.41,1309.58 1466.92,1308.92 1467.43,1309.53 1467.94,1310.12 1468.45,1310.99 1468.96,1311.86 1469.47,1312.3 1469.99,1312.73 1470.5,1311.52 1471.01,1310.33 1471.52,1309.75 1472.03,1309.18 1472.54,1309.95 1473.05,1310.69 1473.57,1309.08 1474.08,1307.49 1474.59,1306.01 1475.1,1304.54 1475.61,1303.49 1476.12,1302.46 1476.64,1302.94 1477.15,1303.4 1477.66,1303.66 1478.17,1303.91 1478.68,1303.74 1479.19,1303.56 1479.7,1303.71 1480.22,1303.85 1480.73,1304.34 1481.24,1304.83 1481.75,1305.35 1482.26,1305.87 1482.77,1306.17 1483.28,1306.47 1483.8,1306.47 1484.31,1306.46 1484.82,1305.41 1485.33,1304.36 1485.84,1303.97 1486.35,1303.59 1486.86,1303.11 1487.38,1302.64 1487.89,1300.74 1488.4,1298.85 1488.91,1297.77 1489.42,1296.71 1489.93,1297.08 1490.44,1297.44 1490.96,1296.61 1491.47,1295.77 1491.98,1296.7 1492.49,1297.6 1493,1297.57 1493.51,1297.54 1494.02,1297.52 1494.54,1297.49 1495.05,1298.13 1495.56,1298.77 1496.07,1298.89 1496.58,1299.01 1497.09,1299.53 1497.6,1300.04 1498.12,1300.15 1498.63,1300.27 1499.14,1300.71 1499.65,1301.15 1500.16,1301.72 1500.67,1302.29 1501.18,1302.95 1501.7,1303.58 1502.21,1304.95 1502.72,1306.28 1503.23,1305.5 1503.74,1304.72 1504.25,1306.15 1504.77,1307.57 1505.28,1308.6 1505.79,1309.63 1506.3,1308.8 1506.81,1307.97 1507.32,1306.12 1507.83,1304.27 1508.35,1304.46 1508.86,1304.64 1509.37,1304.41 1509.88,1304.18 1510.39,1303.66 1510.9,1303.14 1511.41,1303.72 1511.93,1304.29 1512.44,1304.19 1512.95,1304.08 1513.46,1304.16 1513.97,1304.24 1514.48,1304.28 1514.99,1304.31 1515.51,1304.91 1516.02,1305.5 1516.53,1307.08 1517.04,1308.65 1517.55,1307.49 1518.06,1306.33 1518.57,1305.21 1519.09,1304.09 1519.6,1301.68 1520.11,1299.29 1520.62,1299.46 1521.13,1299.62 1521.64,1299.1 1522.15,1298.58 1522.67,1298.37 1523.18,1298.17 1523.69,1299.25 1524.2,1300.3 1524.71,1299.74 1525.22,1299.09 1525.73,1299.07 1526.25,1299.03 1526.76,1299.35 1527.27,1299.66 1527.78,1299.45 1528.29,1299.24 1528.8,1299.6 1529.31,1299.95 1529.83,1299.1 1530.34,1298.26 1530.85,1297.86 1531.36,1297.47 1531.87,1297.76 1532.38,1298.03 1532.9,1298.53 1533.41,1299.03 1533.92,1298.85 1534.43,1298.67 1534.94,1298.08 1535.45,1297.5 1535.96,1299.23 1536.48,1300.94 1536.99,1299.84 1537.5,1298.74 1538.01,1298.49 1538.52,1298.24 1539.03,1299.45 1539.54,1300.64 1540.06,1300.89 1540.57,1301.13 1541.08,1299.68 1541.59,1298.24 1542.1,1298.8 1542.61,1299.35 1543.12,1298.72 1543.64,1298.1 1544.15,1297.64 1544.66,1297.17 1545.17,1296.02 1545.68,1294.87 1546.19,1294.4 1546.7,1293.93 1547.22,1294.89 1547.73,1295.85 1548.24,1296.8 1548.75,1297.74 1549.26,1298.82 1549.77,1299.89 1550.28,1298.62 1550.8,1297.34 1551.31,1298.5 1551.82,1299.62 1552.33,1298.93 1552.84,1298.23 1553.35,1298.26 1553.86,1298.28 1554.38,1297.88 1554.89,1297.49 1555.4,1297.53 1555.91,1297.57 1556.42,1297.55 1556.93,1297.52 1557.44,1296.24 1557.96,1294.97 1558.47,1295.77 1558.98,1296.55 1559.49,1295.68 1560,1294.82 1560.51,1295.34 1561.03,1295.87 1561.54,1295.39 1562.05,1294.92 1562.56,1293.92 1563.07,1292.93 1563.58,1292.33 1564.09,1291.75 1564.61,1291.73 1565.12,1291.7 1565.63,1291.98 1566.14,1292.25 1566.65,1291.38 1567.16,1290.49 1567.67,1289 1568.19,1287.53 1568.7,1288.27 1569.21,1288.96 1569.72,1288.6 1570.23,1288.24 1570.74,1286.95 1571.25,1285.66 1571.77,1285.94 1572.28,1286.18 1572.79,1286.99 1573.3,1287.8 1573.81,1286.7 1574.32,1285.61 1574.83,1286.62 1575.35,1287.62 1575.86,1287.93 1576.37,1288.2 1576.88,1287.35 1577.39,1286.5 1577.9,1285.72 1578.41,1284.96 1578.93,1285.78 1579.44,1286.59 1579.95,1286.2 1580.46,1285.81 1580.97,1287.09 1581.48,1288.36 1581.99,1287.9 1582.51,1287.43 1583.02,1287.35 1583.53,1287.26 1584.04,1286.09 1584.55,1284.93 1585.06,1284.7 1585.57,1284.48 1586.09,1285.63 1586.6,1286.77 1587.11,1285.87 1587.62,1284.98 1588.13,1285.26 1588.64,1285.53 1589.15,1285.78 1589.67,1286.03 1590.18,1285.81 1590.69,1285.6 1591.2,1284.63 1591.71,1283.68 1592.22,1282.57 1592.74,1281.47 1593.25,1279.53 1593.76,1277.61 1594.27,1276.2 1594.78,1274.81 1595.29,1274.13 1595.8,1273.45 1596.32,1272.85 1596.83,1272.25 1597.34,1271.91 1597.85,1271.53 1598.36,1271.77 1598.87,1272.01 1599.38,1272.45 1599.9,1272.89 1600.41,1273.09 1600.92,1273.27 1601.43,1273.4 1601.94,1273.52 1602.45,1274.03 1602.96,1274.53 1603.48,1275.45 1603.99,1276.37 1604.5,1275.12 1605.01,1273.88 1605.52,1273.31 1606.03,1272.74 1606.54,1271.64 1607.06,1270.54 1607.57,1271.3 1608.08,1272.06 1608.59,1270.45 1609.1,1268.85 1609.61,1269.55 1610.12,1270.24 1610.64,1271.81 1611.15,1273.34 1611.66,1274.85 1612.17,1276.34 1612.68,1275.59 1613.19,1274.84 1613.7,1274.83 1614.22,1274.81 1614.73,1273.24 1615.24,1271.68 1615.75,1272.02 1616.26,1272.34 1616.77,1273.63 1617.28,1274.89 1617.8,1273.78 1618.31,1272.69 1618.82,1271.75 1619.33,1270.83 1619.84,1272.14 1620.35,1273.42 1620.87,1274.32 1621.38,1275.2 1621.89,1276.43 1622.4,1277.64 1622.91,1277.96 1623.42,1278.28 1623.93,1278.58 1624.45,1278.84 1624.96,1278.03 1625.47,1277.2 1625.98,1276.77 1626.49,1276.35 1627,1276.26 1627.51,1276.18 1628.03,1274.92 1628.54,1273.66 1629.05,1271.37 1629.56,1269.11 1630.07,1268.57 1630.58,1268.04 1631.09,1269.01 1631.61,1269.98 1632.12,1269.56 1632.63,1269.16 1633.14,1268.95 1633.65,1268.74 1634.16,1269.15 1634.67,1269.55 1635.19,1269.2 1635.7,1268.85 1636.21,1269.68 1636.72,1270.5 1637.23,1270.13 1637.74,1269.74 1638.25,1270.82 1638.77,1271.88 1639.28,1273.11 1639.79,1274.33 1640.3,1273.79 1640.81,1273.25 1641.32,1272.74 1641.83,1272.24 1642.35,1271.79 1642.86,1271.35 1643.37,1272.36 1643.88,1273.37 1644.39,1274.27 1644.9,1275.17 1645.41,1275.35 1645.93,1275.52 1646.44,1275.61 1646.95,1275.7 1647.46,1275.37 1647.97,1275.05 1648.48,1274.71 1649,1274.37 1649.51,1275.62 1650.02,1276.83 1650.53,1276.71 1651.04,1276.58 1651.55,1277.19 1652.06,1277.78 1652.58,1277.43 1653.09,1277.1 1653.6,1275.24 1654.11,1273.38 1654.62,1274 1655.13,1274.62 1655.64,1273.57 1656.16,1272.53 1656.67,1271.6 1657.18,1270.67 1657.69,1270.86 1658.2,1271.03 1658.71,1270.42 1659.22,1269.8 1659.74,1270.47 1660.25,1271.14 1660.76,1271.04 1661.27,1270.94 1661.78,1269.58 1662.29,1268.23 1662.8,1267.87 1663.32,1267.51 1663.83,1266.78 1664.34,1266.05 1664.85,1267.28 1665.36,1268.47 1665.87,1267.93 1666.38,1267.4 1666.9,1266.39 1667.41,1265.38 1667.92,1265.14 1668.43,1264.9 1668.94,1264.36 1669.45,1263.82 1669.96,1262.82 1670.48,1261.83 1670.99,1261.76 1671.5,1261.7 1672.01,1262.88 1672.52,1264.05 1673.03,1264.03 1673.54,1264 1674.06,1263.26 1674.57,1262.53 1675.08,1262.64 1675.59,1262.75 1676.1,1262.55 1676.61,1262.35 1677.13,1262.23 1677.64,1262.09 1678.15,1261.31 1678.66,1260.53 1679.17,1259.07 1679.68,1257.62 1680.19,1257.13 1680.71,1256.62 1681.22,1255.03 1681.73,1253.44 1682.24,1254.42 1682.75,1255.39 1683.26,1253.95 1683.77,1252.51 1684.29,1252.87 1684.8,1253.23 1685.31,1253.65 1685.82,1254.08 1686.33,1252.99 1686.84,1251.92 1687.35,1250.76 1687.87,1249.6 1688.38,1251.15 1688.89,1252.66 1689.4,1253.25 1689.91,1253.83 1690.42,1254.03 1690.93,1254.23 1691.45,1254.17 1691.96,1254.1 1692.47,1256.18 1692.98,1258.25 1693.49,1259.59 1694,1260.87 1694.51,1260.63 1695.03,1260.39 1695.54,1259.95 1696.05,1259.5 1696.56,1258.12 1697.07,1256.76 1697.58,1257.18 1698.09,1257.6 1698.61,1257.7 1699.12,1257.81 1699.63,1258.37 1700.14,1258.92 1700.65,1259.38 1701.16,1259.82 1701.67,1260.72 1702.19,1261.61 1702.7,1261.58 1703.21,1261.5 1703.72,1259.16 1704.23,1256.81 1704.74,1256.86 1705.26,1256.84 1705.77,1256.24 1706.28,1255.63 1706.79,1255.16 1707.3,1254.7 1707.81,1256.54 1708.32,1258.35 1708.84,1257.81 1709.35,1257.27 1709.86,1258.16 1710.37,1259.04 1710.88,1257.64 1711.39,1256.25 1711.9,1257.12 1712.42,1257.96 1712.93,1257.48 1713.44,1257.01 1713.95,1256.04 1714.46,1255.08 1714.97,1252.92 1715.48,1250.78 1716,1249.58 1716.51,1248.38 1717.02,1249.01 1717.53,1249.64 1718.04,1248.97 1718.55,1248.3 1719.06,1248.28 1719.58,1248.25 1720.09,1248 1720.6,1247.74 1721.11,1247.79 1721.62,1247.83 1722.13,1247.38 1722.64,1246.94 1723.16,1248.76 1723.67,1250.55 1724.18,1250.23 1724.69,1249.89 1725.2,1249.62 1725.71,1249.33 1726.22,1249.1 1726.74,1248.86 1727.25,1249.39 1727.76,1249.89 1728.27,1247.58 1728.78,1245.3 1729.29,1246.61 1729.8,1247.91 1730.32,1248.5 1730.83,1249.06 1731.34,1248.28 1731.85,1247.51 1732.36,1245.54 1732.87,1243.58 1733.39,1242.63 1733.9,1241.67 1734.41,1241.94 1734.92,1242.19 1735.43,1242.07 1735.94,1241.92 1736.45,1242.07 1736.97,1242.22 1737.48,1241.6 1737.99,1240.98 1738.5,1241.02 1739.01,1241.07 1739.52,1241.96 1740.03,1242.84 1740.55,1242.04 1741.06,1241.26 1741.57,1241.92 1742.08,1242.57 1742.59,1242.42 1743.1,1242.28 1743.61,1242.31 1744.13,1242.35 1744.64,1241.58 1745.15,1240.82 1745.66,1241.34 1746.17,1241.86 1746.68,1242.05 1747.19,1242.24 1747.71,1241.52 1748.22,1240.73 1748.73,1241.25 1749.24,1241.77 1749.75,1243.08 1750.26,1244.35 1750.77,1243.41 1751.29,1242.48 1751.8,1242.51 1752.31,1242.54 1752.82,1242.08 1753.33,1241.63 1753.84,1242.75 1754.35,1243.85 1754.87,1245.38 1755.38,1246.88 1755.89,1246.16 1756.4,1245.45 1756.91,1245.47 1757.42,1245.49 1757.93,1245.01 1758.45,1244.54 1758.96,1245.56 1759.47,1246.57 1759.98,1247.05 1760.49,1247.52 1761,1247.13 1761.52,1246.75 1762.03,1248.66 1762.54,1250.52 1763.05,1250 1763.56,1249.47 1764.07,1250.14 1764.58,1250.81 1765.1,1250.06 1765.61,1249.32 1766.12,1249.77 1766.63,1250.21 1767.14,1248.99 1767.65,1247.77 1768.16,1248.97 1768.68,1250.17 1769.19,1248.75 1769.7,1247.33 1770.21,1247.05 1770.72,1246.78 1771.23,1247.87 1771.74,1248.96 1772.26,1246.82 1772.77,1244.69 1773.28,1244.2 1773.79,1243.71 1774.3,1242.62 1774.81,1241.5 1775.32,1241.71 1775.84,1241.87 1776.35,1241.34 1776.86,1240.8 1777.37,1239.91 1777.88,1239 1778.39,1238.42 1778.9,1237.84 1779.42,1237.15 1779.93,1236.46 1780.44,1233.48 1780.95,1230.52 1781.46,1228.78 1781.97,1227.06 1782.48,1225.04 1783,1223.04 1783.51,1223.05 1784.02,1223.06 1784.53,1221.84 1785.04,1220.63 1785.55,1220.86 1786.06,1221.09 1786.58,1219.98 1787.09,1218.89 1787.6,1219.16 1788.11,1219.43 1788.62,1219.41 1789.13,1219.38 1789.64,1220.24 1790.16,1221.1 1790.67,1220.71 1791.18,1220.31 1791.69,1221 1792.2,1221.68 1792.71,1223.07 1793.23,1224.44 1793.74,1223.5 1794.25,1222.55 1794.76,1223.04 1795.27,1223.53 1795.78,1223.27 1796.29,1223.01 1796.81,1222.48 1797.32,1221.95 1797.83,1220.13 1798.34,1218.32 1798.85,1218.02 1799.36,1217.72 1799.87,1218.17 1800.39,1218.62 1800.9,1217.31 1801.41,1216.01 1801.92,1216.15 1802.43,1216.28 1802.94,1217.13 1803.45,1217.96 1803.97,1216.48 1804.48,1215.01 1804.99,1215.78 1805.5,1216.53 1806.01,1217.26 1806.52,1217.99 1807.03,1217.54 1807.55,1217.08 1808.06,1215.08 1808.57,1213.09 1809.08,1213.91 1809.59,1214.7 1810.1,1214.23 1810.61,1213.76 1811.13,1213.65 1811.64,1213.54 1812.15,1213.47 1812.66,1213.4 1813.17,1214.92 1813.68,1216.41 1814.19,1216.39 1814.71,1216.36 1815.22,1215.62 1815.73,1214.89 1816.24,1216.31 1816.75,1217.71 1817.26,1217.97 1817.77,1218.23 1818.29,1217.01 1818.8,1215.78 1819.31,1215.36 1819.82,1214.92 1820.33,1215.11 1820.84,1215.31 1821.36,1214.47 1821.87,1213.63 1822.38,1213.08 1822.89,1212.49 1823.4,1213.11 1823.91,1213.72 1824.42,1214.19 1824.94,1214.66 1825.45,1213.56 1825.96,1212.48 1826.47,1212.36 1826.98,1212.22 1827.49,1213.58 1828,1214.92 1828.52,1214.15 1829.03,1213.36 1829.54,1213.21 1830.05,1213.06 1830.56,1212.73 1831.07,1212.4 1831.58,1212.11 1832.1,1211.81 1832.61,1211.72 1833.12,1211.6 1833.63,1210.84 1834.14,1210.09 1834.65,1209.23 1835.16,1208.38 1835.68,1210.15 1836.19,1211.91 1836.7,1210.68 1837.21,1209.45 1837.72,1209.85 1838.23,1210.24 1838.74,1208.41 1839.26,1206.6 1839.77,1207.18 1840.28,1207.76 1840.79,1208.2 1841.3,1208.63 1841.81,1206.54 1842.32,1204.46 1842.84,1203.41 1843.35,1202.38 1843.86,1201.98 1844.37,1201.57 1844.88,1202.15 1845.39,1202.72 1845.9,1203.09 1846.42,1203.44 1846.93,1202.37 1847.44,1201.31 1847.95,1200.35 1848.46,1199.4 1848.97,1201.66 1849.49,1203.91 1850,1203.09 1850.51,1202.26 1851.02,1202.19 1851.53,1202.12 1852.04,1200.48 1852.55,1198.84 1853.07,1197.63 1853.58,1196.42 1854.09,1195.62 1854.6,1194.83 1855.11,1193.69 1855.62,1192.57 1856.13,1194.43 1856.65,1196.26 1857.16,1195.89 1857.67,1195.53 1858.18,1195.14 1858.69,1194.74 1859.2,1194.4 1859.71,1194.06 1860.23,1194.37 1860.74,1194.67 1861.25,1195.22 1861.76,1195.75 1862.27,1193.67 1862.78,1191.6 1863.29,1193.6 1863.81,1195.59 1864.32,1193.88 1864.83,1192.19 1865.34,1191.55 1865.85,1190.93 1866.36,1191.86 1866.87,1192.78 1867.39,1192.78 1867.9,1192.78 1868.41,1192.91 1868.92,1192.99 1869.43,1194.73 1869.94,1196.42 1870.45,1197.52 1870.97,1198.61 1871.48,1198.77 1871.99,1198.92 1872.5,1197.94 1873.01,1196.95 1873.52,1197.3 1874.03,1197.65 1874.55,1195.82 1875.06,1193.99 1875.57,1194.07 1876.08,1194.13 1876.59,1195.43 1877.1,1196.72 1877.62,1196.26 1878.13,1195.81 1878.64,1196.75 1879.15,1197.69 1879.66,1196.33 1880.17,1194.97 1880.68,1194.68 1881.2,1194.38 1881.71,1193.4 1882.22,1192.42 1882.73,1191.53 1883.24,1190.65 1883.75,1191.43 1884.26,1192.19 1884.78,1191.92 1885.29,1191.63 1885.8,1191.72 1886.31,1191.82 1886.82,1190.86 1887.33,1189.88 1887.84,1188.32 1888.36,1186.77 1888.87,1186.16 1889.38,1185.54 1889.89,1186.71 1890.4,1187.87 1890.91,1188.35 1891.42,1188.83 1891.94,1188.56 1892.45,1188.29 1892.96,1188.56 1893.47,1188.81 1893.98,1187.97 1894.49,1187.14 1895,1186.8 1895.52,1186.44 1896.03,1185.47 1896.54,1184.51 1897.05,1184.86 1897.56,1185.21 1898.07,1185.36 1898.58,1185.51 1899.1,1184.5 1899.61,1183.5 1900.12,1183.33 1900.63,1183.15 1901.14,1182.95 1901.65,1182.75 1902.16,1181.65 1902.68,1180.56 1903.19,1181.57 1903.7,1182.55 1904.21,1182.14 1904.72,1181.72 1905.23,1182.26 1905.75,1182.81 1906.26,1181.33 1906.77,1179.86 1907.28,1179.42 1907.79,1178.98 1908.3,1180.32 1908.81,1181.66 1909.33,1180.93 1909.84,1180.2 1910.35,1179.3 1910.86,1178.4 1911.37,1178.18 1911.88,1177.97 1912.39,1177.05 1912.91,1176.13 1913.42,1175.06 1913.93,1174 1914.44,1173.93 1914.95,1173.86 1915.46,1173.13 1915.97,1172.4 1916.49,1169.93 1917,1167.48 1917.51,1165.92 1918.02,1164.35 1918.53,1164.3 1919.04,1164.24 1919.55,1164.79 1920.07,1165.32 1920.58,1165.31 1921.09,1165.29 1921.6,1165.09 1922.11,1164.86 1922.62,1165.73 1923.13,1166.58 1923.65,1168.89 1924.16,1171.18 1924.67,1171.96 1925.18,1172.73 1925.69,1172.57 1926.2,1172.42 1926.71,1173.53 1927.23,1174.64 1927.74,1173.59 1928.25,1172.54 1928.76,1172.25 1929.27,1171.95 1929.78,1171.32 1930.29,1170.68 1930.81,1170.01 1931.32,1169.34 1931.83,1169.27 1932.34,1169.2 1932.85,1167.52 1933.36,1165.85 1933.88,1165.64 1934.39,1165.43 1934.9,1164.34 1935.41,1163.25 1935.92,1162.77 1936.43,1162.29 1936.94,1161.39 1937.46,1160.5 1937.97,1160.41 1938.48,1160.31 1938.99,1160.37 1939.5,1160.43 1940.01,1159.67 1940.52,1158.89 1941.04,1159.37 1941.55,1159.85 1942.06,1159.65 1942.57,1159.45 1943.08,1159.68 1943.59,1159.9 1944.1,1160.14 1944.62,1160.37 1945.13,1161.92 1945.64,1163.45 1946.15,1163.84 1946.66,1164.22 1947.17,1163.74 1947.68,1163.27 1948.2,1162.89 1948.71,1162.52 1949.22,1160.83 1949.73,1159.16 1950.24,1159.38 1950.75,1159.6 1951.26,1159.2 1951.78,1158.8 1952.29,1160.47 1952.8,1162.13 1953.31,1162.77 1953.82,1163.39 1954.33,1163.32 1954.84,1163.22 1955.36,1164.22 1955.87,1165.21 1956.38,1166.27 1956.89,1167.32 1957.4,1167.73 1957.91,1168.13 1958.42,1169.23 1958.94,1170.31 1959.45,1169.18 1959.96,1168.05 1960.47,1167.92 1960.98,1167.78 1961.49,1167.14 1962.01,1166.5 1962.52,1168.11 1963.03,1169.71 1963.54,1169.57 1964.05,1169.43 1964.56,1169.43 1965.07,1169.41 1965.59,1168.52 1966.1,1167.63 1966.61,1166.42 1967.12,1165.23 1967.63,1164.18 1968.14,1163.14 1968.65,1163.25 1969.17,1163.35 1969.68,1163.31 1970.19,1163.26 1970.7,1164.85 1971.21,1166.44 1971.72,1166.11 1972.23,1165.79 1972.75,1164.23 1973.26,1162.69 1973.77,1163.96 1974.28,1165.2 1974.79,1165.79 1975.3,1166.38 1975.81,1166.73 1976.33,1167.08 1976.84,1164.69 1977.35,1162.32 1977.86,1163.33 1978.37,1164.33 1978.88,1164.22 1979.39,1164.12 1979.91,1163.94 1980.42,1163.77 1980.93,1164.44 1981.44,1165.11 1981.95,1166.05 1982.46,1166.98 1982.97,1167.09 1983.49,1167.18 1984,1164.74 1984.51,1162.31 1985.02,1161.67 1985.53,1161.03 1986.04,1160.8 1986.55,1160.57 1987.07,1161.26 1987.58,1161.94 1988.09,1163.01 1988.6,1164.07 1989.11,1163.87 1989.62,1163.66 1990.13,1163.94 1990.65,1164.21 1991.16,1164.85 1991.67,1165.49 1992.18,1166.35 1992.69,1167.21 1993.2,1167.35 1993.72,1167.48 1994.23,1167.98 1994.74,1168.48 1995.25,1170.07 1995.76,1171.65 1996.27,1171.65 1996.78,1171.65 1997.3,1172.3 1997.81,1172.94 1998.32,1173.74 1998.83,1174.52 1999.34,1175.78 1999.85,1177.01 2000.36,1176.01 2000.88,1175.03 2001.39,1176.4 2001.9,1177.74 2002.41,1176.34 2002.92,1174.95 2003.43,1174.78 2003.94,1174.6 2004.46,1176.03 2004.97,1177.46 2005.48,1178.37 2005.99,1179.26 2006.5,1179.82 2007.01,1180.38 2007.52,1178.53 2008.04,1176.7 2008.55,1176.99 2009.06,1177.26 2009.57,1177.47 2010.08,1177.66 2010.59,1177.84 2011.1,1178.01 2011.62,1178.16 2012.13,1178.29 2012.64,1177.64 2013.15,1176.99 2013.66,1176.04 2014.17,1175.1 2014.68,1175.3 2015.2,1175.47 2015.71,1175.85 2016.22,1176.24 2016.73,1175.38 2017.24,1174.52 2017.75,1175.43 2018.26,1176.32 2018.78,1177.36 2019.29,1178.39 2019.8,1177.53 2020.31,1176.68 2020.82,1177.22 2021.33,1177.75 2021.85,1176.22 2022.36,1174.7 2022.87,1176.11 2023.38,1177.48 2023.89,1177.01 2024.4,1176.54 2024.91,1175.38 2025.43,1174.19 2025.94,1172.11 2026.45,1170.04 2026.96,1169.45 2027.47,1168.87 2027.98,1170.22 2028.49,1171.55 2029.01,1172.38 2029.52,1173.2 2030.03,1174.7 2030.54,1176.19 2031.05,1176.01 2031.56,1175.8 2032.07,1177.59 2032.59,1179.33 2033.1,1179.57 2033.61,1179.75 2034.12,1179.7 2034.63,1179.66 2035.14,1179.31 2035.65,1178.95 2036.17,1178.27 2036.68,1177.6 2037.19,1178.38 2037.7,1179.16 2038.21,1179.18 2038.72,1179.21 2039.23,1181.55 2039.75,1183.85 2040.26,1185.46 2040.77,1187.06 2041.28,1187.48 2041.79,1187.91 2042.3,1189.14 2042.81,1190.37 2043.33,1191.26 2043.84,1192.14 2044.35,1191.82 2044.86,1191.5 2045.37,1190.6 2045.88,1189.7 2046.39,1190.5 2046.91,1191.3 2047.42,1191.14 2047.93,1190.98 2048.44,1190.01 2048.95,1189.04 2049.46,1189.75 2049.98,1190.43 2050.49,1190.79 2051,1191.14 2051.51,1192.29 2052.02,1193.44 2052.53,1193.51 2053.04,1193.58 2053.56,1192.99 2054.07,1192.37 2054.58,1192.12 2055.09,1191.87 2055.6,1191.56 2056.11,1191.26 2056.62,1190.13 2057.14,1189.01 2057.65,1188.44 2058.16,1187.88 2058.67,1186.71 2059.18,1185.55 2059.69,1186.37 2060.2,1187.17 2060.72,1187.85 2061.23,1188.47 2061.74,1188.95 2062.25,1189.41 2062.76,1189.49 2063.27,1189.57 2063.78,1190.12 2064.3,1190.65 2064.81,1189.12 2065.32,1187.6 2065.83,1185.88 2066.34,1184.17 2066.85,1184.82 2067.36,1185.44 2067.88,1184.1 2068.39,1182.77 2068.9,1183.25 2069.41,1183.72 2069.92,1184.15 2070.43,1184.56 2070.94,1185.25 2071.46,1185.92 2071.97,1186.31 2072.48,1186.7 2072.99,1186.66 2073.5,1186.62 2074.01,1186.76 2074.52,1186.89 2075.04,1187.82 2075.55,1188.74 2076.06,1188.18 2076.57,1187.62 2077.08,1188.25 2077.59,1188.88 2078.11,1189.77 2078.62,1190.65 2079.13,1191.48 2079.64,1192.31 2080.15,1192.97 2080.66,1193.63 2081.17,1193.85 2081.69,1193.99 2082.2,1192.51 2082.71,1191.02 2083.22,1192.35 2083.73,1193.67 2084.24,1192.47 2084.75,1191.26 2085.27,1191.49 2085.78,1191.7 2086.29,1189.4 2086.8,1187.13 2087.31,1188.04 2087.82,1188.94 2088.33,1189 2088.85,1189.06 2089.36,1188.85 2089.87,1188.65 2090.38,1188.13 2090.89,1187.6 2091.4,1188.81 2091.91,1190.02 2092.43,1188.71 2092.94,1187.39 2093.45,1186.74 2093.96,1186.09 2094.47,1184.02 2094.98,1181.89 2095.49,1180.31 2096.01,1178.74 2096.52,1178.19 2097.03,1177.65 2097.54,1176.74 2098.05,1175.82 2098.56,1175.22 2099.07,1174.62 2099.59,1174.63 2100.1,1174.64 2100.61,1175.09 2101.12,1175.53 2101.63,1176.38 2102.14,1177.23 2102.65,1176.33 2103.17,1175.44 2103.68,1172.85 2104.19,1170.27 2104.7,1168.95 2105.21,1167.63 2105.72,1167.69 2106.24,1167.72 2106.75,1168.76 2107.26,1169.78 2107.77,1171.5 2108.28,1173.2 2108.79,1172.17 2109.3,1171.14 2109.82,1171.95 2110.33,1172.73 2110.84,1172.55 2111.35,1172.37 2111.86,1171.81 2112.37,1171.23 2112.88,1170.84 2113.4,1170.46 2113.91,1169.48 2114.42,1168.49 2114.93,1167.7 2115.44,1166.89 2115.95,1168.35 2116.46,1169.78 2116.98,1168.9 2117.49,1168.04 2118,1167.84 2118.51,1167.59 2119.02,1167.29 2119.53,1166.99 2120.04,1166.56 2120.56,1166.14 2121.07,1165.96 2121.58,1165.78 2122.09,1164.04 2122.6,1162.29 2123.11,1162.04 2123.62,1161.79 2124.14,1159.77 2124.65,1157.77 2125.16,1158.09 2125.67,1158.41 2126.18,1158.06 2126.69,1157.71 2127.2,1159.47 2127.72,1161.2 2128.23,1160.36 2128.74,1159.53 2129.25,1158.68 2129.76,1157.83 2130.27,1156.1 2130.78,1154.38 2131.3,1153.53 2131.81,1152.69 2132.32,1153.2 2132.83,1153.69 2133.34,1153.74 2133.85,1153.8 2134.37,1153.91 2134.88,1154.01 2135.39,1154.42 2135.9,1154.81 2136.41,1154.27 2136.92,1153.73 2137.43,1153.87 2137.95,1154 2138.46,1153.95 2138.97,1153.9 2139.48,1153.45 2139.99,1153 2140.5,1153.92 2141.01,1154.84 2141.53,1154.61 2142.04,1154.39 2142.55,1154.89 2143.06,1155.38 2143.57,1154.35 2144.08,1153.32 2144.59,1152.51 2145.11,1151.69 2145.62,1152.04 2146.13,1152.37 2146.64,1153.68 2147.15,1154.98 2147.66,1154.69 2148.17,1154.4 2148.69,1153.46 2149.2,1152.54 2149.71,1151.02 2150.22,1149.51 2150.73,1150.03 2151.24,1150.55 2151.75,1151.57 2152.27,1152.57 2152.78,1153.39 2153.29,1154.16 2153.8,1153.44 2154.31,1152.72 2154.82,1153.79 2155.33,1154.85 2155.85,1155.73 2156.36,1156.59 2156.87,1155.97 2157.38,1155.35 2157.89,1154.34 2158.4,1153.31 2158.91,1153.14 2159.43,1152.97 2159.94,1152.34 2160.45,1151.72 2160.96,1151.69 2161.47,1151.66 2161.98,1153.33 2162.49,1154.97 2163.01,1155.26 2163.52,1155.55 2164.03,1156.85 2164.54,1158.14 2165.05,1160.11 2165.56,1162.06 2166.08,1162.79 2166.59,1163.52 2167.1,1162.85 2167.61,1162.18 2168.12,1164.03 2168.63,1165.87 2169.14,1165.36 2169.66,1164.83 2170.17,1167.85 2170.68,1170.84 2171.19,1169.38 2171.7,1167.94 2172.21,1168.8 2172.72,1169.65 2173.24,1170.98 2173.75,1172.3 2174.26,1173.32 2174.77,1174.32 2175.28,1174.21 2175.79,1174.07 2176.3,1175.36 2176.82,1176.65 2177.33,1176.07 2177.84,1175.48 2178.35,1174.67 2178.86,1173.86 2179.37,1174.27 2179.88,1174.68 2180.4,1174.84 2180.91,1174.99 2181.42,1175.02 2181.93,1175.04 2182.44,1175.62 2182.95,1176.18 2183.46,1177.22 2183.98,1178.26 2184.49,1178.3 2185,1178.34 2185.51,1176.41 2186.02,1174.5 2186.53,1175.26 2187.04,1175.99 2187.56,1175.49 2188.07,1174.97 2188.58,1174.03 2189.09,1173.08 2189.6,1172.98 2190.11,1172.88 2190.62,1171.57 2191.14,1170.27 2191.65,1170.02 2192.16,1169.76 2192.67,1170.67 2193.18,1171.57 2193.69,1170.33 2194.21,1169.1 2194.72,1170.17 2195.23,1171.2 2195.74,1172.78 2196.25,1174.34 2196.76,1172.92 2197.27,1171.51 2197.79,1171.81 2198.3,1172.11 2198.81,1171.1 2199.32,1170.09 2199.83,1170.46 2200.34,1170.8 2200.85,1171.08 2201.37,1171.35 2201.88,1171.74 2202.39,1172.09 2202.9,1170.42 2203.41,1168.77 2203.92,1167.85 2204.43,1166.93 2204.95,1167.92 2205.46,1168.9 2205.97,1169.89 2206.48,1170.86 2206.99,1171.28 2207.5,1171.7 2208.01,1171.06 2208.53,1170.41 2209.04,1170.16 2209.55,1169.92 2210.06,1168.46 2210.57,1166.98 2211.08,1165.63 2211.59,1164.27 2212.11,1164.59 2212.62,1164.9 2213.13,1165.34 2213.64,1165.78 2214.15,1165.36 2214.66,1164.94 2215.17,1164.54 2215.69,1164.14 2216.2,1163.17 2216.71,1162.21 2217.22,1161.59 2217.73,1160.97 2218.24,1161.69 2218.75,1162.39 2219.27,1161.95 2219.78,1161.51 2220.29,1161.59 2220.8,1161.66 2221.31,1162.3 2221.82,1162.93 2222.34,1162.73 2222.85,1162.53 2223.36,1161.57 2223.87,1160.61 2224.38,1161.17 2224.89,1161.71 2225.4,1162.55 2225.92,1163.38 2226.43,1164.88 2226.94,1166.35 2227.45,1167.43 2227.96,1168.5 2228.47,1167.22 2228.98,1165.94 2229.5,1168.1 2230.01,1170.25 2230.52,1170.37 2231.03,1170.48 2231.54,1168.83 2232.05,1167.2 2232.56,1166.31 2233.08,1165.43 2233.59,1166.97 2234.1,1168.5 2234.61,1169.14 2235.12,1169.78 2235.63,1170.04 2236.14,1170.29 2236.66,1168.66 2237.17,1167.03 2237.68,1167.54 2238.19,1168.02 2238.7,1169.08 2239.21,1170.12 2239.72,1169.06 2240.24,1168.01 2240.75,1168.32 2241.26,1168.62 2241.77,1168.42 2242.28,1168.19 2242.79,1167.28 2243.3,1166.38 2243.82,1164.56 2244.33,1162.75 2244.84,1161.34 2245.35,1159.94 2245.86,1159.53 2246.37,1159.11 2246.88,1159.95 2247.4,1160.78 2247.91,1162.22 2248.42,1163.65 2248.93,1163.08 2249.44,1162.5 2249.95,1161.48 2250.47,1160.45 2250.98,1159.53 2251.49,1158.62 2252,1159.34 2252.51,1160.04 2253.02,1159.85 2253.53,1159.65 2254.05,1160.53 2254.56,1161.41 2255.07,1161.59 2255.58,1161.76 2256.09,1161.34 2256.6,1160.92 2257.11,1161.42 2257.63,1161.91 2258.14,1162.09 2258.65,1162.27 2259.16,1163.95 2259.67,1165.62 2260.18,1164.45 2260.69,1163.28 2261.21,1163.58 2261.72,1163.88 2262.23,1164.67 2262.74,1165.46 2263.25,1165.81 2263.76,1166.16 2264.27,1165.42 2264.79,1164.69 2265.3,1165.71 2265.81,1166.72 2266.32,1166.25 2266.83,1165.75 2267.34,1166.37 2267.85,1166.99 2268.37,1167.57 2268.88,1168.13 2269.39,1168.78 2269.9,1169.38 2270.41,1169.92 2270.92,1170.45 2271.43,1171.96 2271.95,1173.46 2272.46,1173.37 2272.97,1173.28 2273.48,1172.61 2273.99,1171.94 2274.5,1172.91 2275.01,1173.87 2275.53,1173.73 2276.04,1173.58 2276.55,1174.13 2277.06,1174.66 2277.57,1174.5 2278.08,1174.32 2278.6,1175.08 2279.11,1175.82 2279.62,1175.44 2280.13,1175.03 2280.64,1176.08 2281.15,1177.12 2281.66,1176.07 2282.18,1175 2282.69,1173.18 2283.2,1171.36 2283.71,1169.67 2284.22,1168.01 2284.73,1167.37 2285.24,1166.75 2285.76,1165.29 2286.27,1163.81 2286.78,1164.82 2287.29,1165.8 2287.8,1164.34 2288.31,1162.87 2288.82,1163.33 2289.34,1163.77 2289.85,1163.66 2290.36,1163.54 2290.87,1164.78 2291.38,1166.01 "/>
<path clip-path="url(#clip960)" d="M2011.18 198.898 L2280.47 198.898 L2280.47 95.2176 L2011.18 95.2176  Z" fill="#ffffff" fill-rule="evenodd" fill-opacity="1"/>
<polyline clip-path="url(#clip960)" style="stroke:#000000; stroke-linecap:round; stroke-linejoin:round; stroke-width:4; stroke-opacity:1; fill:none" points="2011.18,198.898 2280.47,198.898 2280.47,95.2176 2011.18,95.2176 2011.18,198.898 "/>
<polyline clip-path="url(#clip960)" style="stroke:#009af9; stroke-linecap:round; stroke-linejoin:round; stroke-width:4; stroke-opacity:1; fill:none" points="2035.28,147.058 2179.85,147.058 "/>
<path clip-path="url(#clip960)" d="M2217.79 166.745 Q2215.98 171.375 2214.27 172.787 Q2212.56 174.199 2209.69 174.199 L2206.28 174.199 L2206.28 170.634 L2208.78 170.634 Q2210.54 170.634 2211.51 169.8 Q2212.49 168.967 2213.67 165.865 L2214.43 163.921 L2203.94 138.412 L2208.46 138.412 L2216.56 158.689 L2224.66 138.412 L2229.18 138.412 L2217.79 166.745 Z" fill="#000000" fill-rule="nonzero" fill-opacity="1" /><path clip-path="url(#clip960)" d="M2236.47 160.402 L2244.11 160.402 L2244.11 134.037 L2235.8 135.703 L2235.8 131.444 L2244.06 129.778 L2248.74 129.778 L2248.74 160.402 L2256.38 160.402 L2256.38 164.338 L2236.47 164.338 L2236.47 160.402 Z" fill="#000000" fill-rule="nonzero" fill-opacity="1" /></svg>
