<?xml version="1.0" encoding="utf-8"?>
<svg xmlns="http://www.w3.org/2000/svg" xmlns:xlink="http://www.w3.org/1999/xlink" width="600" height="400" viewBox="0 0 2400 1600">
<defs>
  <clipPath id="clip820">
    <rect x="0" y="0" width="2400" height="1600"/>
  </clipPath>
</defs>
<path clip-path="url(#clip820)" d="M0 1600 L2400 1600 L2400 0 L0 0  Z" fill="#ffffff" fill-rule="evenodd" fill-opacity="1"/>
<defs>
  <clipPath id="clip821">
    <rect x="480" y="0" width="1681" height="1600"/>
  </clipPath>
</defs>
<path clip-path="url(#clip820)" d="M239.19 1486.45 L2352.76 1486.45 L2352.76 47.2441 L239.19 47.2441  Z" fill="#ffffff" fill-rule="evenodd" fill-opacity="1"/>
<defs>
  <clipPath id="clip822">
    <rect x="239" y="47" width="2115" height="1440"/>
  </clipPath>
</defs>
<polyline clip-path="url(#clip822)" style="stroke:#000000; stroke-linecap:round; stroke-linejoin:round; stroke-width:2; stroke-opacity:0.1; fill:none" points="299.008,1486.45 299.008,47.2441 "/>
<polyline clip-path="url(#clip822)" style="stroke:#000000; stroke-linecap:round; stroke-linejoin:round; stroke-width:2; stroke-opacity:0.1; fill:none" points="797.74,1486.45 797.74,47.2441 "/>
<polyline clip-path="url(#clip822)" style="stroke:#000000; stroke-linecap:round; stroke-linejoin:round; stroke-width:2; stroke-opacity:0.1; fill:none" points="1296.47,1486.45 1296.47,47.2441 "/>
<polyline clip-path="url(#clip822)" style="stroke:#000000; stroke-linecap:round; stroke-linejoin:round; stroke-width:2; stroke-opacity:0.1; fill:none" points="1795.2,1486.45 1795.2,47.2441 "/>
<polyline clip-path="url(#clip822)" style="stroke:#000000; stroke-linecap:round; stroke-linejoin:round; stroke-width:2; stroke-opacity:0.1; fill:none" points="2293.94,1486.45 2293.94,47.2441 "/>
<polyline clip-path="url(#clip820)" style="stroke:#000000; stroke-linecap:round; stroke-linejoin:round; stroke-width:4; stroke-opacity:1; fill:none" points="239.19,1486.45 2352.76,1486.45 "/>
<polyline clip-path="url(#clip820)" style="stroke:#000000; stroke-linecap:round; stroke-linejoin:round; stroke-width:4; stroke-opacity:1; fill:none" points="299.008,1486.45 299.008,1467.55 "/>
<polyline clip-path="url(#clip820)" style="stroke:#000000; stroke-linecap:round; stroke-linejoin:round; stroke-width:4; stroke-opacity:1; fill:none" points="797.74,1486.45 797.74,1467.55 "/>
<polyline clip-path="url(#clip820)" style="stroke:#000000; stroke-linecap:round; stroke-linejoin:round; stroke-width:4; stroke-opacity:1; fill:none" points="1296.47,1486.45 1296.47,1467.55 "/>
<polyline clip-path="url(#clip820)" style="stroke:#000000; stroke-linecap:round; stroke-linejoin:round; stroke-width:4; stroke-opacity:1; fill:none" points="1795.2,1486.45 1795.2,1467.55 "/>
<polyline clip-path="url(#clip820)" style="stroke:#000000; stroke-linecap:round; stroke-linejoin:round; stroke-width:4; stroke-opacity:1; fill:none" points="2293.94,1486.45 2293.94,1467.55 "/>
<path clip-path="url(#clip820)" d="M299.008 1517.37 Q295.397 1517.37 293.568 1520.93 Q291.763 1524.47 291.763 1531.6 Q291.763 1538.71 293.568 1542.27 Q295.397 1545.82 299.008 1545.82 Q302.643 1545.82 304.448 1542.27 Q306.277 1538.71 306.277 1531.6 Q306.277 1524.47 304.448 1520.93 Q302.643 1517.37 299.008 1517.37 M299.008 1513.66 Q304.818 1513.66 307.874 1518.27 Q310.953 1522.85 310.953 1531.6 Q310.953 1540.33 307.874 1544.94 Q304.818 1549.52 299.008 1549.52 Q293.198 1549.52 290.119 1544.94 Q287.064 1540.33 287.064 1531.6 Q287.064 1522.85 290.119 1518.27 Q293.198 1513.66 299.008 1513.66 Z" fill="#000000" fill-rule="nonzero" fill-opacity="1" /><path clip-path="url(#clip820)" d="M757.358 1514.29 L775.715 1514.29 L775.715 1518.22 L761.641 1518.22 L761.641 1526.7 Q762.659 1526.35 763.678 1526.19 Q764.696 1526 765.715 1526 Q771.502 1526 774.881 1529.17 Q778.261 1532.34 778.261 1537.76 Q778.261 1543.34 774.789 1546.44 Q771.317 1549.52 764.997 1549.52 Q762.821 1549.52 760.553 1549.15 Q758.307 1548.78 755.9 1548.04 L755.9 1543.34 Q757.983 1544.47 760.206 1545.03 Q762.428 1545.58 764.905 1545.58 Q768.909 1545.58 771.247 1543.48 Q773.585 1541.37 773.585 1537.76 Q773.585 1534.15 771.247 1532.04 Q768.909 1529.94 764.905 1529.94 Q763.03 1529.94 761.155 1530.35 Q759.303 1530.77 757.358 1531.65 L757.358 1514.29 Z" fill="#000000" fill-rule="nonzero" fill-opacity="1" /><path clip-path="url(#clip820)" d="M797.474 1517.37 Q793.863 1517.37 792.034 1520.93 Q790.229 1524.47 790.229 1531.6 Q790.229 1538.71 792.034 1542.27 Q793.863 1545.82 797.474 1545.82 Q801.108 1545.82 802.914 1542.27 Q804.742 1538.71 804.742 1531.6 Q804.742 1524.47 802.914 1520.93 Q801.108 1517.37 797.474 1517.37 M797.474 1513.66 Q803.284 1513.66 806.34 1518.27 Q809.418 1522.85 809.418 1531.6 Q809.418 1540.33 806.34 1544.94 Q803.284 1549.52 797.474 1549.52 Q791.664 1549.52 788.585 1544.94 Q785.529 1540.33 785.529 1531.6 Q785.529 1522.85 788.585 1518.27 Q791.664 1513.66 797.474 1513.66 Z" fill="#000000" fill-rule="nonzero" fill-opacity="1" /><path clip-path="url(#clip820)" d="M827.636 1517.37 Q824.025 1517.37 822.196 1520.93 Q820.39 1524.47 820.39 1531.6 Q820.39 1538.71 822.196 1542.27 Q824.025 1545.82 827.636 1545.82 Q831.27 1545.82 833.076 1542.27 Q834.904 1538.71 834.904 1531.6 Q834.904 1524.47 833.076 1520.93 Q831.27 1517.37 827.636 1517.37 M827.636 1513.66 Q833.446 1513.66 836.501 1518.27 Q839.58 1522.85 839.58 1531.6 Q839.58 1540.33 836.501 1544.94 Q833.446 1549.52 827.636 1549.52 Q821.826 1549.52 818.747 1544.94 Q815.691 1540.33 815.691 1531.6 Q815.691 1522.85 818.747 1518.27 Q821.826 1513.66 827.636 1513.66 Z" fill="#000000" fill-rule="nonzero" fill-opacity="1" /><path clip-path="url(#clip820)" d="M1241 1544.91 L1248.64 1544.91 L1248.64 1518.55 L1240.33 1520.21 L1240.33 1515.95 L1248.59 1514.29 L1253.27 1514.29 L1253.27 1544.91 L1260.9 1544.91 L1260.9 1548.85 L1241 1548.85 L1241 1544.91 Z" fill="#000000" fill-rule="nonzero" fill-opacity="1" /><path clip-path="url(#clip820)" d="M1280.35 1517.37 Q1276.74 1517.37 1274.91 1520.93 Q1273.1 1524.47 1273.1 1531.6 Q1273.1 1538.71 1274.91 1542.27 Q1276.74 1545.82 1280.35 1545.82 Q1283.98 1545.82 1285.79 1542.27 Q1287.62 1538.71 1287.62 1531.6 Q1287.62 1524.47 1285.79 1520.93 Q1283.98 1517.37 1280.35 1517.37 M1280.35 1513.66 Q1286.16 1513.66 1289.21 1518.27 Q1292.29 1522.85 1292.29 1531.6 Q1292.29 1540.33 1289.21 1544.94 Q1286.16 1549.52 1280.35 1549.52 Q1274.54 1549.52 1271.46 1544.94 Q1268.4 1540.33 1268.4 1531.6 Q1268.4 1522.85 1271.46 1518.27 Q1274.54 1513.66 1280.35 1513.66 Z" fill="#000000" fill-rule="nonzero" fill-opacity="1" /><path clip-path="url(#clip820)" d="M1310.51 1517.37 Q1306.9 1517.37 1305.07 1520.93 Q1303.27 1524.47 1303.27 1531.6 Q1303.27 1538.71 1305.07 1542.27 Q1306.9 1545.82 1310.51 1545.82 Q1314.15 1545.82 1315.95 1542.27 Q1317.78 1538.71 1317.78 1531.6 Q1317.78 1524.47 1315.95 1520.93 Q1314.15 1517.37 1310.51 1517.37 M1310.51 1513.66 Q1316.32 1513.66 1319.38 1518.27 Q1322.46 1522.85 1322.46 1531.6 Q1322.46 1540.33 1319.38 1544.94 Q1316.32 1549.52 1310.51 1549.52 Q1304.7 1549.52 1301.62 1544.94 Q1298.57 1540.33 1298.57 1531.6 Q1298.57 1522.85 1301.62 1518.27 Q1304.7 1513.66 1310.51 1513.66 Z" fill="#000000" fill-rule="nonzero" fill-opacity="1" /><path clip-path="url(#clip820)" d="M1340.67 1517.37 Q1337.06 1517.37 1335.23 1520.93 Q1333.43 1524.47 1333.43 1531.6 Q1333.43 1538.71 1335.23 1542.27 Q1337.06 1545.82 1340.67 1545.82 Q1344.31 1545.82 1346.11 1542.27 Q1347.94 1538.71 1347.94 1531.6 Q1347.94 1524.47 1346.11 1520.93 Q1344.31 1517.37 1340.67 1517.37 M1340.67 1513.66 Q1346.48 1513.66 1349.54 1518.27 Q1352.62 1522.85 1352.62 1531.6 Q1352.62 1540.33 1349.54 1544.94 Q1346.48 1549.52 1340.67 1549.52 Q1334.86 1549.52 1331.78 1544.94 Q1328.73 1540.33 1328.73 1531.6 Q1328.73 1522.85 1331.78 1518.27 Q1334.86 1513.66 1340.67 1513.66 Z" fill="#000000" fill-rule="nonzero" fill-opacity="1" /><path clip-path="url(#clip820)" d="M1739.73 1544.91 L1747.37 1544.91 L1747.37 1518.55 L1739.06 1520.21 L1739.06 1515.95 L1747.32 1514.29 L1752 1514.29 L1752 1544.91 L1759.64 1544.91 L1759.64 1548.85 L1739.73 1548.85 L1739.73 1544.91 Z" fill="#000000" fill-rule="nonzero" fill-opacity="1" /><path clip-path="url(#clip820)" d="M1769.13 1514.29 L1787.48 1514.29 L1787.48 1518.22 L1773.41 1518.22 L1773.41 1526.7 Q1774.43 1526.35 1775.45 1526.19 Q1776.47 1526 1777.48 1526 Q1783.27 1526 1786.65 1529.17 Q1790.03 1532.34 1790.03 1537.76 Q1790.03 1543.34 1786.56 1546.44 Q1783.09 1549.52 1776.77 1549.52 Q1774.59 1549.52 1772.32 1549.15 Q1770.08 1548.78 1767.67 1548.04 L1767.67 1543.34 Q1769.75 1544.47 1771.97 1545.03 Q1774.2 1545.58 1776.67 1545.58 Q1780.68 1545.58 1783.02 1543.48 Q1785.35 1541.37 1785.35 1537.76 Q1785.35 1534.15 1783.02 1532.04 Q1780.68 1529.94 1776.67 1529.94 Q1774.8 1529.94 1772.92 1530.35 Q1771.07 1530.77 1769.13 1531.65 L1769.13 1514.29 Z" fill="#000000" fill-rule="nonzero" fill-opacity="1" /><path clip-path="url(#clip820)" d="M1809.24 1517.37 Q1805.63 1517.37 1803.8 1520.93 Q1802 1524.47 1802 1531.6 Q1802 1538.71 1803.8 1542.27 Q1805.63 1545.82 1809.24 1545.82 Q1812.88 1545.82 1814.68 1542.27 Q1816.51 1538.71 1816.51 1531.6 Q1816.51 1524.47 1814.68 1520.93 Q1812.88 1517.37 1809.24 1517.37 M1809.24 1513.66 Q1815.05 1513.66 1818.11 1518.27 Q1821.19 1522.85 1821.19 1531.6 Q1821.19 1540.33 1818.11 1544.94 Q1815.05 1549.52 1809.24 1549.52 Q1803.43 1549.52 1800.35 1544.94 Q1797.3 1540.33 1797.3 1531.6 Q1797.3 1522.85 1800.35 1518.27 Q1803.43 1513.66 1809.24 1513.66 Z" fill="#000000" fill-rule="nonzero" fill-opacity="1" /><path clip-path="url(#clip820)" d="M1839.4 1517.37 Q1835.79 1517.37 1833.97 1520.93 Q1832.16 1524.47 1832.16 1531.6 Q1832.16 1538.71 1833.97 1542.27 Q1835.79 1545.82 1839.4 1545.82 Q1843.04 1545.82 1844.84 1542.27 Q1846.67 1538.71 1846.67 1531.6 Q1846.67 1524.47 1844.84 1520.93 Q1843.04 1517.37 1839.4 1517.37 M1839.4 1513.66 Q1845.21 1513.66 1848.27 1518.27 Q1851.35 1522.85 1851.35 1531.6 Q1851.35 1540.33 1848.27 1544.94 Q1845.21 1549.52 1839.4 1549.52 Q1833.59 1549.52 1830.52 1544.94 Q1827.46 1540.33 1827.46 1531.6 Q1827.46 1522.85 1830.52 1518.27 Q1833.59 1513.66 1839.4 1513.66 Z" fill="#000000" fill-rule="nonzero" fill-opacity="1" /><path clip-path="url(#clip820)" d="M2242.55 1544.91 L2258.87 1544.91 L2258.87 1548.85 L2236.92 1548.85 L2236.92 1544.91 Q2239.58 1542.16 2244.17 1537.53 Q2248.77 1532.88 2249.95 1531.53 Q2252.2 1529.01 2253.08 1527.27 Q2253.98 1525.51 2253.98 1523.82 Q2253.98 1521.07 2252.04 1519.33 Q2250.12 1517.6 2247.01 1517.6 Q2244.82 1517.6 2242.36 1518.36 Q2239.93 1519.13 2237.15 1520.68 L2237.15 1515.95 Q2239.98 1514.82 2242.43 1514.24 Q2244.88 1513.66 2246.92 1513.66 Q2252.29 1513.66 2255.49 1516.35 Q2258.68 1519.03 2258.68 1523.52 Q2258.68 1525.65 2257.87 1527.57 Q2257.08 1529.47 2254.98 1532.07 Q2254.4 1532.74 2251.3 1535.95 Q2248.19 1539.15 2242.55 1544.91 Z" fill="#000000" fill-rule="nonzero" fill-opacity="1" /><path clip-path="url(#clip820)" d="M2278.68 1517.37 Q2275.07 1517.37 2273.24 1520.93 Q2271.44 1524.47 2271.44 1531.6 Q2271.44 1538.71 2273.24 1542.27 Q2275.07 1545.82 2278.68 1545.82 Q2282.32 1545.82 2284.12 1542.27 Q2285.95 1538.71 2285.95 1531.6 Q2285.95 1524.47 2284.12 1520.93 Q2282.32 1517.37 2278.68 1517.37 M2278.68 1513.66 Q2284.49 1513.66 2287.55 1518.27 Q2290.63 1522.85 2290.63 1531.6 Q2290.63 1540.33 2287.55 1544.94 Q2284.49 1549.52 2278.68 1549.52 Q2272.87 1549.52 2269.79 1544.94 Q2266.74 1540.33 2266.74 1531.6 Q2266.74 1522.85 2269.79 1518.27 Q2272.87 1513.66 2278.68 1513.66 Z" fill="#000000" fill-rule="nonzero" fill-opacity="1" /><path clip-path="url(#clip820)" d="M2308.84 1517.37 Q2305.23 1517.37 2303.4 1520.93 Q2301.6 1524.47 2301.6 1531.6 Q2301.6 1538.71 2303.4 1542.27 Q2305.23 1545.82 2308.84 1545.82 Q2312.48 1545.82 2314.28 1542.27 Q2316.11 1538.71 2316.11 1531.6 Q2316.11 1524.47 2314.28 1520.93 Q2312.48 1517.37 2308.84 1517.37 M2308.84 1513.66 Q2314.65 1513.66 2317.71 1518.27 Q2320.79 1522.85 2320.79 1531.6 Q2320.79 1540.33 2317.71 1544.94 Q2314.65 1549.52 2308.84 1549.52 Q2303.03 1549.52 2299.95 1544.94 Q2296.9 1540.33 2296.9 1531.6 Q2296.9 1522.85 2299.95 1518.27 Q2303.03 1513.66 2308.84 1513.66 Z" fill="#000000" fill-rule="nonzero" fill-opacity="1" /><path clip-path="url(#clip820)" d="M2339 1517.37 Q2335.39 1517.37 2333.56 1520.93 Q2331.76 1524.47 2331.76 1531.6 Q2331.76 1538.71 2333.56 1542.27 Q2335.39 1545.82 2339 1545.82 Q2342.64 1545.82 2344.44 1542.27 Q2346.27 1538.71 2346.27 1531.6 Q2346.27 1524.47 2344.44 1520.93 Q2342.64 1517.37 2339 1517.37 M2339 1513.66 Q2344.81 1513.66 2347.87 1518.27 Q2350.95 1522.85 2350.95 1531.6 Q2350.95 1540.33 2347.87 1544.94 Q2344.81 1549.52 2339 1549.52 Q2333.19 1549.52 2330.12 1544.94 Q2327.06 1540.33 2327.06 1531.6 Q2327.06 1522.85 2330.12 1518.27 Q2333.19 1513.66 2339 1513.66 Z" fill="#000000" fill-rule="nonzero" fill-opacity="1" /><polyline clip-path="url(#clip822)" style="stroke:#000000; stroke-linecap:round; stroke-linejoin:round; stroke-width:2; stroke-opacity:0.1; fill:none" points="239.19,1243.19 2352.76,1243.19 "/>
<polyline clip-path="url(#clip822)" style="stroke:#000000; stroke-linecap:round; stroke-linejoin:round; stroke-width:2; stroke-opacity:0.1; fill:none" points="239.19,992.049 2352.76,992.049 "/>
<polyline clip-path="url(#clip822)" style="stroke:#000000; stroke-linecap:round; stroke-linejoin:round; stroke-width:2; stroke-opacity:0.1; fill:none" points="239.19,740.906 2352.76,740.906 "/>
<polyline clip-path="url(#clip822)" style="stroke:#000000; stroke-linecap:round; stroke-linejoin:round; stroke-width:2; stroke-opacity:0.1; fill:none" points="239.19,489.764 2352.76,489.764 "/>
<polyline clip-path="url(#clip822)" style="stroke:#000000; stroke-linecap:round; stroke-linejoin:round; stroke-width:2; stroke-opacity:0.1; fill:none" points="239.19,238.622 2352.76,238.622 "/>
<polyline clip-path="url(#clip820)" style="stroke:#000000; stroke-linecap:round; stroke-linejoin:round; stroke-width:4; stroke-opacity:1; fill:none" points="239.19,1486.45 239.19,47.2441 "/>
<polyline clip-path="url(#clip820)" style="stroke:#000000; stroke-linecap:round; stroke-linejoin:round; stroke-width:4; stroke-opacity:1; fill:none" points="239.19,1243.19 258.088,1243.19 "/>
<polyline clip-path="url(#clip820)" style="stroke:#000000; stroke-linecap:round; stroke-linejoin:round; stroke-width:4; stroke-opacity:1; fill:none" points="239.19,992.049 258.088,992.049 "/>
<polyline clip-path="url(#clip820)" style="stroke:#000000; stroke-linecap:round; stroke-linejoin:round; stroke-width:4; stroke-opacity:1; fill:none" points="239.19,740.906 258.088,740.906 "/>
<polyline clip-path="url(#clip820)" style="stroke:#000000; stroke-linecap:round; stroke-linejoin:round; stroke-width:4; stroke-opacity:1; fill:none" points="239.19,489.764 258.088,489.764 "/>
<polyline clip-path="url(#clip820)" style="stroke:#000000; stroke-linecap:round; stroke-linejoin:round; stroke-width:4; stroke-opacity:1; fill:none" points="239.19,238.622 258.088,238.622 "/>
<path clip-path="url(#clip820)" d="M50.9921 1243.64 L80.6679 1243.64 L80.6679 1247.58 L50.9921 1247.58 L50.9921 1243.64 Z" fill="#000000" fill-rule="nonzero" fill-opacity="1" /><path clip-path="url(#clip820)" d="M91.5706 1256.54 L99.2095 1256.54 L99.2095 1230.17 L90.8993 1231.84 L90.8993 1227.58 L99.1632 1225.91 L103.839 1225.91 L103.839 1256.54 L111.478 1256.54 L111.478 1260.47 L91.5706 1260.47 L91.5706 1256.54 Z" fill="#000000" fill-rule="nonzero" fill-opacity="1" /><path clip-path="url(#clip820)" d="M124.95 1256.54 L141.269 1256.54 L141.269 1260.47 L119.325 1260.47 L119.325 1256.54 Q121.987 1253.78 126.57 1249.15 Q131.177 1244.5 132.357 1243.16 Q134.603 1240.63 135.482 1238.9 Q136.385 1237.14 136.385 1235.45 Q136.385 1232.69 134.441 1230.96 Q132.519 1229.22 129.418 1229.22 Q127.219 1229.22 124.765 1229.98 Q122.334 1230.75 119.557 1232.3 L119.557 1227.58 Q122.381 1226.44 124.834 1225.86 Q127.288 1225.29 129.325 1225.29 Q134.695 1225.29 137.89 1227.97 Q141.084 1230.66 141.084 1235.15 Q141.084 1237.28 140.274 1239.2 Q139.487 1241.1 137.381 1243.69 Q136.802 1244.36 133.7 1247.58 Q130.598 1250.77 124.95 1256.54 Z" fill="#000000" fill-rule="nonzero" fill-opacity="1" /><path clip-path="url(#clip820)" d="M161.084 1228.99 Q157.473 1228.99 155.644 1232.55 Q153.839 1236.1 153.839 1243.23 Q153.839 1250.33 155.644 1253.9 Q157.473 1257.44 161.084 1257.44 Q164.718 1257.44 166.524 1253.9 Q168.353 1250.33 168.353 1243.23 Q168.353 1236.1 166.524 1232.55 Q164.718 1228.99 161.084 1228.99 M161.084 1225.29 Q166.894 1225.29 169.95 1229.89 Q173.029 1234.48 173.029 1243.23 Q173.029 1251.95 169.95 1256.56 Q166.894 1261.14 161.084 1261.14 Q155.274 1261.14 152.195 1256.56 Q149.14 1251.95 149.14 1243.23 Q149.14 1234.48 152.195 1229.89 Q155.274 1225.29 161.084 1225.29 Z" fill="#000000" fill-rule="nonzero" fill-opacity="1" /><path clip-path="url(#clip820)" d="M191.246 1228.99 Q187.635 1228.99 185.806 1232.55 Q184.001 1236.1 184.001 1243.23 Q184.001 1250.33 185.806 1253.9 Q187.635 1257.44 191.246 1257.44 Q194.88 1257.44 196.686 1253.9 Q198.514 1250.33 198.514 1243.23 Q198.514 1236.1 196.686 1232.55 Q194.88 1228.99 191.246 1228.99 M191.246 1225.29 Q197.056 1225.29 200.112 1229.89 Q203.19 1234.48 203.19 1243.23 Q203.19 1251.95 200.112 1256.56 Q197.056 1261.14 191.246 1261.14 Q185.436 1261.14 182.357 1256.56 Q179.302 1251.95 179.302 1243.23 Q179.302 1234.48 182.357 1229.89 Q185.436 1225.29 191.246 1225.29 Z" fill="#000000" fill-rule="nonzero" fill-opacity="1" /><path clip-path="url(#clip820)" d="M50.9921 992.5 L80.6679 992.5 L80.6679 996.435 L50.9921 996.435 L50.9921 992.5 Z" fill="#000000" fill-rule="nonzero" fill-opacity="1" /><path clip-path="url(#clip820)" d="M91.5706 1005.39 L99.2095 1005.39 L99.2095 979.028 L90.8993 980.695 L90.8993 976.435 L99.1632 974.769 L103.839 974.769 L103.839 1005.39 L111.478 1005.39 L111.478 1009.33 L91.5706 1009.33 L91.5706 1005.39 Z" fill="#000000" fill-rule="nonzero" fill-opacity="1" /><path clip-path="url(#clip820)" d="M130.922 977.847 Q127.311 977.847 125.482 981.412 Q123.677 984.954 123.677 992.083 Q123.677 999.19 125.482 1002.75 Q127.311 1006.3 130.922 1006.3 Q134.556 1006.3 136.362 1002.75 Q138.191 999.19 138.191 992.083 Q138.191 984.954 136.362 981.412 Q134.556 977.847 130.922 977.847 M130.922 974.144 Q136.732 974.144 139.788 978.75 Q142.867 983.333 142.867 992.083 Q142.867 1000.81 139.788 1005.42 Q136.732 1010 130.922 1010 Q125.112 1010 122.033 1005.42 Q118.978 1000.81 118.978 992.083 Q118.978 983.333 122.033 978.75 Q125.112 974.144 130.922 974.144 Z" fill="#000000" fill-rule="nonzero" fill-opacity="1" /><path clip-path="url(#clip820)" d="M161.084 977.847 Q157.473 977.847 155.644 981.412 Q153.839 984.954 153.839 992.083 Q153.839 999.19 155.644 1002.75 Q157.473 1006.3 161.084 1006.3 Q164.718 1006.3 166.524 1002.75 Q168.353 999.19 168.353 992.083 Q168.353 984.954 166.524 981.412 Q164.718 977.847 161.084 977.847 M161.084 974.144 Q166.894 974.144 169.95 978.75 Q173.029 983.333 173.029 992.083 Q173.029 1000.81 169.95 1005.42 Q166.894 1010 161.084 1010 Q155.274 1010 152.195 1005.42 Q149.14 1000.81 149.14 992.083 Q149.14 983.333 152.195 978.75 Q155.274 974.144 161.084 974.144 Z" fill="#000000" fill-rule="nonzero" fill-opacity="1" /><path clip-path="url(#clip820)" d="M191.246 977.847 Q187.635 977.847 185.806 981.412 Q184.001 984.954 184.001 992.083 Q184.001 999.19 185.806 1002.75 Q187.635 1006.3 191.246 1006.3 Q194.88 1006.3 196.686 1002.75 Q198.514 999.19 198.514 992.083 Q198.514 984.954 196.686 981.412 Q194.88 977.847 191.246 977.847 M191.246 974.144 Q197.056 974.144 200.112 978.75 Q203.19 983.333 203.19 992.083 Q203.19 1000.81 200.112 1005.42 Q197.056 1010 191.246 1010 Q185.436 1010 182.357 1005.42 Q179.302 1000.81 179.302 992.083 Q179.302 983.333 182.357 978.75 Q185.436 974.144 191.246 974.144 Z" fill="#000000" fill-rule="nonzero" fill-opacity="1" /><path clip-path="url(#clip820)" d="M81.154 741.358 L110.83 741.358 L110.83 745.293 L81.154 745.293 L81.154 741.358 Z" fill="#000000" fill-rule="nonzero" fill-opacity="1" /><path clip-path="url(#clip820)" d="M130.922 741.775 Q127.589 741.775 125.668 743.557 Q123.77 745.339 123.77 748.464 Q123.77 751.589 125.668 753.372 Q127.589 755.154 130.922 755.154 Q134.256 755.154 136.177 753.372 Q138.098 751.566 138.098 748.464 Q138.098 745.339 136.177 743.557 Q134.279 741.775 130.922 741.775 M126.246 739.784 Q123.237 739.043 121.547 736.983 Q119.881 734.923 119.881 731.96 Q119.881 727.816 122.82 725.409 Q125.783 723.001 130.922 723.001 Q136.084 723.001 139.024 725.409 Q141.964 727.816 141.964 731.96 Q141.964 734.923 140.274 736.983 Q138.607 739.043 135.621 739.784 Q139.001 740.571 140.876 742.862 Q142.774 745.154 142.774 748.464 Q142.774 753.487 139.695 756.173 Q136.64 758.858 130.922 758.858 Q125.205 758.858 122.126 756.173 Q119.07 753.487 119.07 748.464 Q119.07 745.154 120.969 742.862 Q122.867 740.571 126.246 739.784 M124.533 732.4 Q124.533 735.085 126.2 736.589 Q127.89 738.094 130.922 738.094 Q133.931 738.094 135.621 736.589 Q137.334 735.085 137.334 732.4 Q137.334 729.714 135.621 728.21 Q133.931 726.705 130.922 726.705 Q127.89 726.705 126.2 728.21 Q124.533 729.714 124.533 732.4 Z" fill="#000000" fill-rule="nonzero" fill-opacity="1" /><path clip-path="url(#clip820)" d="M161.084 726.705 Q157.473 726.705 155.644 730.27 Q153.839 733.812 153.839 740.941 Q153.839 748.048 155.644 751.612 Q157.473 755.154 161.084 755.154 Q164.718 755.154 166.524 751.612 Q168.353 748.048 168.353 740.941 Q168.353 733.812 166.524 730.27 Q164.718 726.705 161.084 726.705 M161.084 723.001 Q166.894 723.001 169.95 727.608 Q173.029 732.191 173.029 740.941 Q173.029 749.668 169.95 754.274 Q166.894 758.858 161.084 758.858 Q155.274 758.858 152.195 754.274 Q149.14 749.668 149.14 740.941 Q149.14 732.191 152.195 727.608 Q155.274 723.001 161.084 723.001 Z" fill="#000000" fill-rule="nonzero" fill-opacity="1" /><path clip-path="url(#clip820)" d="M191.246 726.705 Q187.635 726.705 185.806 730.27 Q184.001 733.812 184.001 740.941 Q184.001 748.048 185.806 751.612 Q187.635 755.154 191.246 755.154 Q194.88 755.154 196.686 751.612 Q198.514 748.048 198.514 740.941 Q198.514 733.812 196.686 730.27 Q194.88 726.705 191.246 726.705 M191.246 723.001 Q197.056 723.001 200.112 727.608 Q203.19 732.191 203.19 740.941 Q203.19 749.668 200.112 754.274 Q197.056 758.858 191.246 758.858 Q185.436 758.858 182.357 754.274 Q179.302 749.668 179.302 740.941 Q179.302 732.191 182.357 727.608 Q185.436 723.001 191.246 723.001 Z" fill="#000000" fill-rule="nonzero" fill-opacity="1" /><path clip-path="url(#clip820)" d="M81.154 490.216 L110.83 490.216 L110.83 494.151 L81.154 494.151 L81.154 490.216 Z" fill="#000000" fill-rule="nonzero" fill-opacity="1" /><path clip-path="url(#clip820)" d="M131.501 487.901 Q128.353 487.901 126.501 490.054 Q124.672 492.206 124.672 495.956 Q124.672 499.683 126.501 501.859 Q128.353 504.012 131.501 504.012 Q134.649 504.012 136.478 501.859 Q138.33 499.683 138.33 495.956 Q138.33 492.206 136.478 490.054 Q134.649 487.901 131.501 487.901 M140.783 473.248 L140.783 477.507 Q139.024 476.674 137.219 476.234 Q135.436 475.794 133.677 475.794 Q129.047 475.794 126.594 478.919 Q124.163 482.044 123.816 488.364 Q125.182 486.35 127.242 485.285 Q129.302 484.197 131.779 484.197 Q136.987 484.197 139.996 487.368 Q143.029 490.517 143.029 495.956 Q143.029 501.28 139.881 504.498 Q136.732 507.716 131.501 507.716 Q125.506 507.716 122.334 503.132 Q119.163 498.526 119.163 489.799 Q119.163 481.605 123.052 476.744 Q126.941 471.859 133.492 471.859 Q135.251 471.859 137.033 472.206 Q138.839 472.554 140.783 473.248 Z" fill="#000000" fill-rule="nonzero" fill-opacity="1" /><path clip-path="url(#clip820)" d="M161.084 475.563 Q157.473 475.563 155.644 479.128 Q153.839 482.669 153.839 489.799 Q153.839 496.905 155.644 500.47 Q157.473 504.012 161.084 504.012 Q164.718 504.012 166.524 500.47 Q168.353 496.905 168.353 489.799 Q168.353 482.669 166.524 479.128 Q164.718 475.563 161.084 475.563 M161.084 471.859 Q166.894 471.859 169.95 476.466 Q173.029 481.049 173.029 489.799 Q173.029 498.526 169.95 503.132 Q166.894 507.716 161.084 507.716 Q155.274 507.716 152.195 503.132 Q149.14 498.526 149.14 489.799 Q149.14 481.049 152.195 476.466 Q155.274 471.859 161.084 471.859 Z" fill="#000000" fill-rule="nonzero" fill-opacity="1" /><path clip-path="url(#clip820)" d="M191.246 475.563 Q187.635 475.563 185.806 479.128 Q184.001 482.669 184.001 489.799 Q184.001 496.905 185.806 500.47 Q187.635 504.012 191.246 504.012 Q194.88 504.012 196.686 500.47 Q198.514 496.905 198.514 489.799 Q198.514 482.669 196.686 479.128 Q194.88 475.563 191.246 475.563 M191.246 471.859 Q197.056 471.859 200.112 476.466 Q203.19 481.049 203.19 489.799 Q203.19 498.526 200.112 503.132 Q197.056 507.716 191.246 507.716 Q185.436 507.716 182.357 503.132 Q179.302 498.526 179.302 489.799 Q179.302 481.049 182.357 476.466 Q185.436 471.859 191.246 471.859 Z" fill="#000000" fill-rule="nonzero" fill-opacity="1" /><path clip-path="url(#clip820)" d="M81.154 239.073 L110.83 239.073 L110.83 243.009 L81.154 243.009 L81.154 239.073 Z" fill="#000000" fill-rule="nonzero" fill-opacity="1" /><path clip-path="url(#clip820)" d="M133.769 225.416 L121.964 243.865 L133.769 243.865 L133.769 225.416 M132.543 221.342 L138.422 221.342 L138.422 243.865 L143.353 243.865 L143.353 247.754 L138.422 247.754 L138.422 255.902 L133.769 255.902 L133.769 247.754 L118.168 247.754 L118.168 243.24 L132.543 221.342 Z" fill="#000000" fill-rule="nonzero" fill-opacity="1" /><path clip-path="url(#clip820)" d="M161.084 224.421 Q157.473 224.421 155.644 227.986 Q153.839 231.527 153.839 238.657 Q153.839 245.763 155.644 249.328 Q157.473 252.87 161.084 252.87 Q164.718 252.87 166.524 249.328 Q168.353 245.763 168.353 238.657 Q168.353 231.527 166.524 227.986 Q164.718 224.421 161.084 224.421 M161.084 220.717 Q166.894 220.717 169.95 225.324 Q173.029 229.907 173.029 238.657 Q173.029 247.384 169.95 251.99 Q166.894 256.573 161.084 256.573 Q155.274 256.573 152.195 251.99 Q149.14 247.384 149.14 238.657 Q149.14 229.907 152.195 225.324 Q155.274 220.717 161.084 220.717 Z" fill="#000000" fill-rule="nonzero" fill-opacity="1" /><path clip-path="url(#clip820)" d="M191.246 224.421 Q187.635 224.421 185.806 227.986 Q184.001 231.527 184.001 238.657 Q184.001 245.763 185.806 249.328 Q187.635 252.87 191.246 252.87 Q194.88 252.87 196.686 249.328 Q198.514 245.763 198.514 238.657 Q198.514 231.527 196.686 227.986 Q194.88 224.421 191.246 224.421 M191.246 220.717 Q197.056 220.717 200.112 225.324 Q203.19 229.907 203.19 238.657 Q203.19 247.384 200.112 251.99 Q197.056 256.573 191.246 256.573 Q185.436 256.573 182.357 251.99 Q179.302 247.384 179.302 238.657 Q179.302 229.907 182.357 225.324 Q185.436 220.717 191.246 220.717 Z" fill="#000000" fill-rule="nonzero" fill-opacity="1" /><polyline clip-path="url(#clip822)" style="stroke:#009af9; stroke-linecap:round; stroke-linejoin:round; stroke-width:4; stroke-opacity:1; fill:none" points="299.008,87.9763 300.006,89.3396 301.003,139.38 302.001,140.51 302.998,294.398 303.996,295.425 304.993,128.98 305.991,129.078 306.988,192.002 307.985,190.348 308.983,276.109 309.98,274.926 310.978,233.646 311.975,231.669 312.973,331.629 313.97,330.179 314.968,489.817 315.965,487.895 316.963,366.819 317.96,364.77 318.958,430.799 319.955,429.583 320.952,410.316 321.95,407.478 322.947,405.323 323.945,402.546 324.942,530.107 325.94,527.971 326.937,467.516 327.935,463.943 328.932,584.139 329.93,582.556 330.927,602.076 331.925,597.639 332.922,693.586 333.92,689.136 334.917,704.498 335.914,700.968 336.912,597.95 337.909,593.919 338.907,697.563 339.904,694.529 340.902,596.428 341.899,591.71 342.897,725.862 343.894,721.892 344.892,745.5 345.889,742.1 346.887,648.945 347.884,646.908 348.881,721.997 349.879,718.163 350.876,604.322 351.874,602.064 352.871,602.739 353.869,600.292 354.866,718.922 355.864,716.66 356.861,658.905 357.859,655.339 358.856,756.23 359.854,754.262 360.851,700.29 361.848,698.08 362.846,649.904 363.843,647.966 364.841,682.294 365.838,680.592 366.836,802.893 367.833,800.237 368.831,675.115 369.828,672.852 370.826,695.563 371.823,692.098 372.821,749.487 373.818,747.361 374.816,681.72 375.813,680.694 376.81,724.566 377.808,722.853 378.805,749.344 379.803,746.506 380.8,719.579 381.798,718.122 382.795,804.975 383.793,799.374 384.79,757.577 385.788,754.02 386.785,798.67 387.783,797.559 388.78,775.146 389.777,772.739 390.775,764.772 391.772,762.315 392.77,817.629 393.767,816.075 394.765,820.948 395.762,818.091 396.76,865.728 397.757,863.305 398.755,837.125 399.752,833.722 400.75,730.553 401.747,727.476 402.744,878.024 403.742,875.752 404.739,726.682 405.737,723.031 406.734,876.389 407.732,874.311 408.729,832.243 409.727,829.301 410.724,938.179 411.722,931.483 412.719,789.228 413.717,785.29 414.714,926.427 415.712,924.303 416.709,896.94 417.706,895.706 418.704,881.522 419.701,880.127 420.699,900.915 421.696,898.179 422.694,744.484 423.691,742.058 424.689,860.922 425.686,858.747 426.684,824.707 427.681,821.845 428.679,1007.37 429.676,1002 430.673,925.391 431.671,922.897 432.668,897.897 433.666,896.007 434.663,1060.35 435.661,1055.9 436.658,849.777 437.656,847.138 438.653,869.605 439.651,865.483 440.648,1044.73 441.646,1040.02 442.643,869.089 443.64,862.551 444.638,892.162 445.635,888.724 446.633,975.858 447.63,974.419 448.628,941.938 449.625,938.668 450.623,920.786 451.62,917.693 452.618,875.466 453.615,873.927 454.613,893.355 455.61,891.441 456.608,975.104 457.605,971.727 458.602,887.681 459.6,884.134 460.597,989.79 461.595,984.708 462.592,944.497 463.59,941.848 464.587,943.851 465.585,940.421 466.582,967.579 467.58,964.013 468.577,961.377 469.575,959.232 470.572,975.245 471.569,971.267 472.567,999.037 473.564,996.041 474.562,1025.4 475.559,1020.67 476.557,957.956 477.554,956.704 478.552,945.492 479.549,941.949 480.547,1007.98 481.544,1004.39 482.542,999.813 483.539,994.965 484.537,978.718 485.534,974.637 486.531,965.543 487.529,962.613 488.526,925.672 489.524,922.805 490.521,1050.78 491.519,1043.76 492.516,893.058 493.514,889.965 494.511,1096.53 495.509,1094.81 496.506,1041.06 497.504,1038.4 498.501,1076.21 499.498,1070.51 500.496,960.343 501.493,955.608 502.491,981.361 503.488,977.233 504.486,915.395 505.483,912.721 506.481,964.378 507.478,962.115 508.476,902.645 509.473,900.296 510.471,961.974 511.468,958.307 512.465,1040.29 513.463,1036.87 514.46,1003.56 515.458,1000.05 516.455,844.094 517.453,840.959 518.45,976.88 519.448,974.792 520.445,1000.41 521.443,997.235 522.44,1061.79 523.438,1058.58 524.435,1097.2 525.433,1093.22 526.43,988.598 527.427,987.165 528.425,1017.4 529.422,1013.51 530.42,905.011 531.417,903.33 532.415,897.815 533.412,893.054 534.41,1057.08 535.407,1055.28 536.405,1005.6 537.402,1000.84 538.4,886.032 539.397,883.364 540.394,981.844 541.392,977.323 542.389,1006.3 543.387,1003.07 544.384,969.599 545.382,968.205 546.379,938.527 547.377,936.451 548.374,1059.13 549.372,1055.29 550.369,1052.5 551.367,1050.02 552.364,849.839 553.361,844.295 554.359,991.159 555.356,986.721 556.354,1119.53 557.351,1117.11 558.349,983.426 559.346,979.027 560.344,906.714 561.341,902.119 562.339,916.665 563.336,914.017 564.334,914.402 565.331,910.791 566.329,1076.62 567.326,1068.39 568.323,1074.98 569.321,1073.08 570.318,994.82 571.316,991.899 572.313,908.782 573.311,904.738 574.308,935.332 575.306,932.266 576.303,1094.6 577.301,1091.91 578.298,833.666 579.296,831.399 580.293,932.714 581.29,928.93 582.288,979.453 583.285,973.538 584.283,1053.43 585.28,1051.09 586.278,959.05 587.275,956.426 588.273,967.218 589.27,964.554 590.268,1080 591.265,1074.03 592.263,930.692 593.26,927.604 594.258,1013.88 595.255,1011.12 596.252,1044.38 597.25,1041.63 598.247,840.624 599.245,838.793 600.242,970.266 601.24,967.406 602.237,1043.02 603.235,1041.24 604.232,1018.82 605.23,1014.21 606.227,1004.26 607.225,1001.6 608.222,882.308 609.219,879.173 610.217,912.666 611.214,909.517 612.212,1088.5 613.209,1084.89 614.207,887.882 615.204,885.912 616.202,1027.82 617.199,1024.24 618.197,838.833 619.194,835.837 620.192,934.947 621.189,933.568 622.186,983.968 623.184,979.547 624.181,1010.02 625.179,1007.08 626.176,1050.49 627.174,1048.84 628.171,971.323 629.169,970.485 630.166,1069.1 631.164,1063.97 632.161,1072.17 633.159,1069.27 634.156,1118.76 635.154,1116.37 636.151,993.01 637.148,990.619 638.146,996.695 639.143,993.576 640.141,882.535 641.138,877.521 642.136,1005.32 643.133,1001.63 644.131,1076.11 645.128,1072.27 646.126,935.572 647.123,931.609 648.121,1069.37 649.118,1067.07 650.115,1065.65 651.113,1062.77 652.11,981.476 653.108,975.968 654.105,1145.96 655.103,1141.32 656.1,1015.95 657.098,1009.12 658.095,1034.32 659.093,1030.99 660.09,1017.83 661.088,1014.11 662.085,994.797 663.082,989.761 664.08,1035.07 665.077,1032.41 666.075,952.611 667.072,949.141 668.07,1060.71 669.067,1057.93 670.065,1024.31 671.062,1021.8 672.06,1227.35 673.057,1223.31 674.055,992.968 675.052,990.445 676.05,1051.41 677.047,1046.85 678.044,931.947 679.042,927.101 680.039,1063.73 681.037,1055.96 682.034,991.78 683.032,990.544 684.029,945.563 685.027,941.974 686.024,943.607 687.022,940.674 688.019,978.566 689.017,975.689 690.014,1055.98 691.011,1052.88 692.009,1009.31 693.006,1006.74 694.004,1197.94 695.001,1192.27 695.999,1098.78 696.996,1095.27 697.994,1103.12 698.991,1099.62 699.989,989.869 700.986,985.62 701.984,1012.73 702.981,1010.84 703.978,996.706 704.976,993.038 705.973,1072.35 706.971,1070.07 707.968,1023.49 708.966,1019.5 709.963,1067.1 710.961,1063.24 711.958,1003 712.956,1001.49 713.953,1083.63 714.951,1080.54 715.948,1108.75 716.946,1104.8 717.943,1125.79 718.94,1121.55 719.938,1123.21 720.935,1119.38 721.933,965.555 722.93,960.226 723.928,1128.51 724.925,1124.75 725.923,1103.41 726.92,1099.19 727.918,1103.2 728.915,1099.39 729.913,1142.06 730.91,1135.9 731.907,1102.09 732.905,1096.1 733.902,1084.29 734.9,1082.47 735.897,985.158 736.895,982.595 737.892,1065.21 738.89,1060.86 739.887,1124.9 740.885,1119.42 741.882,1082.25 742.88,1078.66 743.877,1243.42 744.875,1236.71 745.872,1198.96 746.869,1191.95 747.867,1059.64 748.864,1052.45 749.862,1064.77 750.859,1061.09 751.857,1124.72 752.854,1120.93 753.852,1051.93 754.849,1049.81 755.847,1085.41 756.844,1082.41 757.842,1171.58 758.839,1167.66 759.836,1035.09 760.834,1031.65 761.831,957.241 762.829,953.922 763.826,978.743 764.824,975.466 765.821,1062.88 766.819,1058.66 767.816,1049.15 768.814,1043.21 769.811,967.637 770.809,964.653 771.806,1030.6 772.803,1026.79 773.801,1158.57 774.798,1153.81 775.796,1193.24 776.793,1190.28 777.791,1053.99 778.788,1048.64 779.786,1133.1 780.783,1131.57 781.781,1109.49 782.778,1106.5 783.776,1079.63 784.773,1074.27 785.771,1107.9 786.768,1103.03 787.765,1201.04 788.763,1196.58 789.76,1034.32 790.758,1031.12 791.755,1192.95 792.753,1184.34 793.75,1147.96 794.748,1144.79 795.745,1134.82 796.743,1129.88 797.74,1186.18 798.738,1183.58 799.735,1181.71 800.732,1175.92 801.73,1087.68 802.727,1081.38 803.725,1185.27 804.722,1179.48 805.72,1212.32 806.717,1205.71 807.715,1209 808.712,1202.96 809.71,1134.77 810.707,1130.05 811.705,1117.31 812.702,1112.97 813.699,1285.68 814.697,1284.33 815.694,1154.86 816.692,1147.97 817.689,1099.46 818.687,1098.12 819.684,1130.5 820.682,1126.25 821.679,1049.17 822.677,1046.1 823.674,1196.95 824.672,1190.76 825.669,1119.95 826.667,1116.92 827.664,1124.23 828.661,1121.92 829.659,971.798 830.656,968.026 831.654,1150.92 832.651,1146.36 833.649,1119.13 834.646,1115.19 835.644,1127.96 836.641,1122.5 837.639,1156.24 838.636,1150.96 839.634,1063.07 840.631,1059.09 841.628,1141 842.626,1139.79 843.623,1220.24 844.621,1214.95 845.618,1235.73 846.616,1231.84 847.613,1166.71 848.611,1160.21 849.608,965.877 850.606,962.752 851.603,1125.82 852.601,1123.76 853.598,1098.1 854.596,1092.39 855.593,943.072 856.59,937.869 857.588,1050.74 858.585,1047.93 859.583,1094.92 860.58,1091.76 861.578,1084.13 862.575,1081.26 863.573,1081 864.57,1074.33 865.568,1159.24 866.565,1153.14 867.563,1148.16 868.56,1143.16 869.557,1100 870.555,1096.13 871.552,1112.29 872.55,1109.24 873.547,1118.97 874.545,1115.47 875.542,1074.88 876.54,1069.43 877.537,1105.81 878.535,1101.78 879.532,1084.46 880.53,1081.21 881.527,1035.3 882.524,1028.77 883.522,1151.12 884.519,1143.07 885.517,1108.8 886.514,1106.64 887.512,1059.11 888.509,1054.6 889.507,1072.18 890.504,1068.55 891.502,1124.78 892.499,1120.57 893.497,957.604 894.494,954.165 895.492,1185.65 896.489,1181.81 897.486,1136.85 898.484,1132.93 899.481,1159.32 900.479,1148.85 901.476,1056.15 902.474,1047.83 903.471,1043.13 904.469,1038.95 905.466,1200.34 906.464,1196.55 907.461,1125.73 908.459,1123.32 909.456,1168.01 910.453,1165.15 911.451,1305.24 912.448,1301.8 913.446,1155.84 914.443,1146.81 915.441,1187.74 916.438,1182.25 917.436,1137.83 918.433,1132.6 919.431,1316.53 920.428,1308.45 921.426,1072.32 922.423,1066.89 923.42,1153.35 924.418,1150.68 925.415,1025.23 926.413,1022.04 927.41,1379.15 928.408,1375.13 929.405,1154.32 930.403,1148.23 931.4,1282.39 932.398,1279.84 933.395,1040.36 934.393,1034.53 935.39,1110.68 936.388,1104.62 937.385,1187.68 938.382,1183.38 939.38,1108.55 940.377,1101.96 941.375,1129.37 942.372,1123.42 943.37,1239.05 944.367,1228.94 945.365,1281.27 946.362,1277.46 947.36,1051.07 948.357,1044.64 949.355,1198.78 950.352,1193.46 951.349,1129.3 952.347,1126.38 953.344,1118.27 954.342,1114.21 955.339,1022.35 956.337,1019.07 957.334,1128.75 958.332,1122.52 959.329,1262.12 960.327,1255.16 961.324,1176.65 962.322,1169.61 963.319,1215.78 964.316,1210.47 965.314,1146.95 966.311,1142.24 967.309,1061.01 968.306,1057.72 969.304,1261.67 970.301,1258.12 971.299,1148.84 972.296,1142.57 973.294,1107.74 974.291,1103.02 975.289,1112.41 976.286,1107.8 977.284,1191.78 978.281,1183.84 979.278,935.086 980.276,928.693 981.273,1055.47 982.271,1051.47 983.268,1115.69 984.266,1113.42 985.263,1058.37 986.261,1052.36 987.258,1223.39 988.256,1217.28 989.253,1124.65 990.251,1122.47 991.248,1057.93 992.245,1049.35 993.243,1015.48 994.24,1011.25 995.238,1131.8 996.235,1129.6 997.233,1091.59 998.23,1087.43 999.228,1170.69 1000.23,1167.36 1001.22,1188.91 1002.22,1186.18 1003.22,1172.27 1004.22,1169.99 1005.21,1245.76 1006.21,1241.22 1007.21,1145.45 1008.2,1139.76 1009.2,1078.35 1010.2,1072.38 1011.2,1093.32 1012.19,1086.71 1013.19,1002.09 1014.19,1000.34 1015.19,1117.57 1016.18,1114.19 1017.18,1272.27 1018.18,1268.86 1019.18,1113.65 1020.17,1109.66 1021.17,1178.52 1022.17,1176.34 1023.17,1180.29 1024.16,1177.11 1025.16,1116.38 1026.16,1111.91 1027.16,1010.93 1028.15,1008.83 1029.15,1090.94 1030.15,1085.85 1031.15,1149.56 1032.14,1147.51 1033.14,1029.53 1034.14,1026.01 1035.14,1134.41 1036.13,1130.02 1037.13,1099.14 1038.13,1094.83 1039.13,1222.89 1040.12,1213.43 1041.12,1156.2 1042.12,1154.06 1043.12,1066.38 1044.11,1057.42 1045.11,1100.53 1046.11,1098.2 1047.11,1205.92 1048.1,1201.32 1049.1,1095.06 1050.1,1092.45 1051.1,1125.01 1052.09,1120.46 1053.09,1187.31 1054.09,1184.14 1055.09,1185.64 1056.08,1180.51 1057.08,1260 1058.08,1254.57 1059.08,1173.43 1060.07,1169.83 1061.07,1238.19 1062.07,1232.36 1063.07,1199.55 1064.06,1195.53 1065.06,1064.96 1066.06,1061.32 1067.06,1263.25 1068.05,1258.12 1069.05,1230.62 1070.05,1226.22 1071.05,1115.52 1072.04,1111.64 1073.04,1193.83 1074.04,1188.13 1075.03,1299.69 1076.03,1295.2 1077.03,1118.84 1078.03,1114.7 1079.02,1065.03 1080.02,1062.37 1081.02,1187.96 1082.02,1181.96 1083.01,1136.24 1084.01,1133.38 1085.01,1234.62 1086.01,1226.37 1087,1205.19 1088,1199.88 1089,1113.13 1090,1109.18 1090.99,1207.93 1091.99,1204.25 1092.99,1150.21 1093.99,1146.01 1094.98,1135.72 1095.98,1132.56 1096.98,1222.98 1097.98,1218.77 1098.97,1122.09 1099.97,1118.23 1100.97,1310.92 1101.97,1303.5 1102.96,1287.55 1103.96,1274.43 1104.96,1095 1105.96,1088.52 1106.95,1092.65 1107.95,1089.06 1108.95,1153.24 1109.95,1149.02 1110.94,1118.3 1111.94,1115.84 1112.94,1072.67 1113.94,1069.26 1114.93,1173.09 1115.93,1167.3 1116.93,1254.46 1117.93,1251.34 1118.92,1135.89 1119.92,1130.85 1120.92,1290.74 1121.92,1284.1 1122.91,1186.68 1123.91,1181.05 1124.91,1230.23 1125.91,1225.97 1126.9,1095.31 1127.9,1092.81 1128.9,1236.61 1129.9,1235.07 1130.89,1167.94 1131.89,1158.91 1132.89,1282.73 1133.89,1276.86 1134.88,1201.57 1135.88,1198.5 1136.88,1112.93 1137.88,1109.13 1138.87,1131.5 1139.87,1128.67 1140.87,1363.72 1141.87,1359.53 1142.86,1084.5 1143.86,1080.42 1144.86,1325.26 1145.85,1323.15 1146.85,1111.36 1147.85,1105.48 1148.85,1102.24 1149.84,1099.03 1150.84,1144.07 1151.84,1133.98 1152.84,1156.21 1153.83,1149.96 1154.83,1214.52 1155.83,1210.25 1156.83,1241.51 1157.82,1234.99 1158.82,1163.91 1159.82,1158.34 1160.82,1048.91 1161.81,1045.62 1162.81,1090.27 1163.81,1086.08 1164.81,1181.37 1165.8,1175.84 1166.8,1108.94 1167.8,1105.59 1168.8,1170.56 1169.79,1163.89 1170.79,1157.33 1171.79,1151.73 1172.79,1163.51 1173.78,1160.05 1174.78,1212.36 1175.78,1210.37 1176.78,1253.06 1177.77,1249.47 1178.77,1102.34 1179.77,1098.75 1180.77,1196.16 1181.76,1188.37 1182.76,1165.45 1183.76,1162.17 1184.76,1114.07 1185.75,1110.77 1186.75,1171.2 1187.75,1166.34 1188.75,1075.54 1189.74,1069.26 1190.74,1192.14 1191.74,1189.55 1192.74,1153.87 1193.73,1147.68 1194.73,1225.81 1195.73,1223.44 1196.73,1215.95 1197.72,1213.82 1198.72,1267.91 1199.72,1262.95 1200.72,1149.86 1201.71,1143.13 1202.71,1328.24 1203.71,1320.26 1204.71,1083.6 1205.7,1075.77 1206.7,1191.72 1207.7,1188.76 1208.7,1063.27 1209.69,1058.65 1210.69,1258.64 1211.69,1255.14 1212.68,1089.91 1213.68,1086.33 1214.68,1170.98 1215.68,1168.24 1216.67,991.403 1217.67,985.774 1218.67,1059.76 1219.67,1055.47 1220.66,1250.06 1221.66,1244.28 1222.66,1015.88 1223.66,1013.39 1224.65,1032.65 1225.65,1026.16 1226.65,1129.55 1227.65,1122.91 1228.64,1063.86 1229.64,1060.26 1230.64,1216.87 1231.64,1212.43 1232.63,1172.47 1233.63,1165.32 1234.63,1132.79 1235.63,1130.18 1236.62,1204.87 1237.62,1202.09 1238.62,1048.02 1239.62,1042.99 1240.61,1202.39 1241.61,1196.45 1242.61,1033.86 1243.61,1029.91 1244.6,1206.87 1245.6,1202.35 1246.6,1167.92 1247.6,1166.16 1248.59,1097.52 1249.59,1094.23 1250.59,1226.38 1251.59,1221.32 1252.58,1143.58 1253.58,1139.77 1254.58,1176.07 1255.58,1169.38 1256.57,1166.17 1257.57,1163.27 1258.57,1125.95 1259.57,1122.39 1260.56,1207.02 1261.56,1203.38 1262.56,1223.23 1263.56,1217.29 1264.55,1138 1265.55,1134.38 1266.55,1024.13 1267.55,1022.25 1268.54,1110.12 1269.54,1106.11 1270.54,1149.53 1271.54,1147.64 1272.53,1185.13 1273.53,1180.58 1274.53,1034.27 1275.53,1031.54 1276.52,1048.28 1277.52,1043.28 1278.52,1180.98 1279.51,1174.22 1280.51,1278.58 1281.51,1275.28 1282.51,1137.46 1283.5,1132.2 1284.5,1170.02 1285.5,1165.52 1286.5,1184.28 1287.49,1179.11 1288.49,1162.9 1289.49,1159.46 1290.49,1036.87 1291.48,1032.23 1292.48,1135.76 1293.48,1128.7 1294.48,1214.51 1295.47,1207.91 1296.47,1091.64 1297.47,1086.69 1298.47,1189.24 1299.46,1186.83 1300.46,1062.36 1301.46,1058.76 1302.46,1128.94 1303.45,1123.09 1304.45,1095.34 1305.45,1090.22 1306.45,1184.35 1307.44,1182.87 1308.44,1137.97 1309.44,1135.57 1310.44,1167.06 1311.43,1162.52 1312.43,1132.82 1313.43,1131.74 1314.43,1209.56 1315.42,1205.91 1316.42,1114.86 1317.42,1111.89 1318.42,1138.09 1319.41,1134.89 1320.41,1111.9 1321.41,1105.76 1322.41,1160.25 1323.4,1155.36 1324.4,1200.32 1325.4,1198.04 1326.4,1158.57 1327.39,1153.83 1328.39,1243.56 1329.39,1236.39 1330.39,1130.2 1331.38,1126.59 1332.38,1094.41 1333.38,1091.28 1334.38,1119.51 1335.37,1115.41 1336.37,1217.35 1337.37,1213.59 1338.37,1110.33 1339.36,1106.69 1340.36,1091.95 1341.36,1087.43 1342.36,1248.35 1343.35,1242.35 1344.35,1162.58 1345.35,1157.28 1346.35,1236.09 1347.34,1230.92 1348.34,1139.19 1349.34,1135 1350.33,1127.09 1351.33,1121.59 1352.33,1152.98 1353.33,1148.39 1354.32,1128.13 1355.32,1121.67 1356.32,1121.01 1357.32,1117.82 1358.31,1228.89 1359.31,1224.33 1360.31,1225.14 1361.31,1221.91 1362.3,1182.07 1363.3,1179.59 1364.3,1167.91 1365.3,1161.58 1366.29,1169.63 1367.29,1167.06 1368.29,1191.1 1369.29,1188.21 1370.28,1177.94 1371.28,1172.3 1372.28,1353.11 1373.28,1348.63 1374.27,1082.18 1375.27,1077.23 1376.27,1208.34 1377.27,1203.74 1378.26,1163.45 1379.26,1159.2 1380.26,1196.8 1381.26,1191.97 1382.25,1288.98 1383.25,1283.62 1384.25,1087.37 1385.25,1081.18 1386.24,1167.97 1387.24,1164.64 1388.24,1134.2 1389.24,1133.04 1390.23,1131.31 1391.23,1128.24 1392.23,1149.12 1393.23,1144.95 1394.22,1215.07 1395.22,1203.62 1396.22,1152.11 1397.22,1147.32 1398.21,1257.22 1399.21,1251.35 1400.21,1126.52 1401.21,1120.94 1402.2,1142.66 1403.2,1138.86 1404.2,1204.75 1405.2,1199.55 1406.19,1314.02 1407.19,1310.27 1408.19,1133.82 1409.19,1130.32 1410.18,1137.79 1411.18,1134.58 1412.18,1168.47 1413.18,1162.1 1414.17,1194.11 1415.17,1193.05 1416.17,1166.3 1417.16,1163.24 1418.16,1307.45 1419.16,1303.08 1420.16,1095.07 1421.15,1090.63 1422.15,1227.9 1423.15,1223.12 1424.15,1059.08 1425.14,1055.31 1426.14,990.984 1427.14,988.056 1428.14,1296.06 1429.13,1290.23 1430.13,1178.57 1431.13,1173.08 1432.13,1098.83 1433.12,1090.02 1434.12,1206.26 1435.12,1202.18 1436.12,1164.75 1437.11,1160.43 1438.11,1236.48 1439.11,1232.36 1440.11,1161.59 1441.1,1157.17 1442.1,1144 1443.1,1140.39 1444.1,1054.88 1445.09,1047.85 1446.09,1145.73 1447.09,1141.04 1448.09,1114.15 1449.08,1108.71 1450.08,1166.18 1451.08,1158.09 1452.08,1198.11 1453.07,1194.69 1454.07,1385.05 1455.07,1373.64 1456.07,1295.34 1457.06,1280.77 1458.06,1082.68 1459.06,1078.34 1460.06,1239.01 1461.05,1230.71 1462.05,1094.79 1463.05,1088.72 1464.05,1117.47 1465.04,1111.87 1466.04,1104.52 1467.04,1101.2 1468.04,1129.33 1469.03,1122.84 1470.03,1072.98 1471.03,1068.5 1472.03,1189.31 1473.02,1181.5 1474.02,1132.73 1475.02,1130.24 1476.02,1090.72 1477.01,1087.02 1478.01,1166.81 1479.01,1163.88 1480.01,1134.68 1481,1130.98 1482,1074.1 1483,1072.4 1484,1119.42 1484.99,1113.35 1485.99,1158.19 1486.99,1155.34 1487.98,1240.93 1488.98,1238.59 1489.98,1185.84 1490.98,1181.37 1491.97,1166.1 1492.97,1162.22 1493.97,1177.37 1494.97,1170.16 1495.96,1135.4 1496.96,1131.77 1497.96,1025.07 1498.96,1018.78 1499.95,1153.43 1500.95,1148.13 1501.95,1198.37 1502.95,1194.52 1503.94,1294.66 1504.94,1290.84 1505.94,1111.74 1506.94,1108.47 1507.93,1203.57 1508.93,1196.87 1509.93,1236.3 1510.93,1232.28 1511.92,1216.19 1512.92,1211.63 1513.92,1162.43 1514.92,1157.67 1515.91,1202.32 1516.91,1199.15 1517.91,1159.28 1518.91,1154.53 1519.9,1168.99 1520.9,1164.8 1521.9,940.828 1522.9,932.724 1523.89,1062.55 1524.89,1056.84 1525.89,1218.19 1526.89,1216.82 1527.88,1148.9 1528.88,1147.03 1529.88,1147.02 1530.88,1144.54 1531.87,1209.46 1532.87,1203.47 1533.87,1165.08 1534.87,1161.11 1535.86,1083.25 1536.86,1079.78 1537.86,1152.98 1538.86,1148.32 1539.85,1269.56 1540.85,1265.05 1541.85,1057.53 1542.85,1053.21 1543.84,1196.77 1544.84,1194.04 1545.84,1194.34 1546.84,1188.35 1547.83,1243.94 1548.83,1239.48 1549.83,1171.28 1550.83,1167.2 1551.82,1168.97 1552.82,1163.53 1553.82,1150.97 1554.81,1145.59 1555.81,1126.28 1556.81,1122.57 1557.81,1125.6 1558.8,1122.8 1559.8,1198.51 1560.8,1196.06 1561.8,1189.98 1562.79,1187.94 1563.79,1182.28 1564.79,1180.18 1565.79,1028.05 1566.78,1022.25 1567.78,1178.97 1568.78,1167.3 1569.78,1195.39 1570.77,1190.18 1571.77,1126.6 1572.77,1122.77 1573.77,1260.87 1574.76,1257.45 1575.76,1241.98 1576.76,1231.71 1577.76,1204.02 1578.75,1199.38 1579.75,1220.67 1580.75,1216.44 1581.75,1316.32 1582.74,1309.14 1583.74,1183.78 1584.74,1176.98 1585.74,1021.96 1586.73,1017.77 1587.73,1233.44 1588.73,1230.94 1589.73,1142.79 1590.72,1137.17 1591.72,1272.88 1592.72,1269.41 1593.72,1132.9 1594.71,1130.32 1595.71,1272.36 1596.71,1268.34 1597.71,1238.61 1598.7,1235.51 1599.7,1091.57 1600.7,1087.65 1601.7,1217.46 1602.69,1209.85 1603.69,1168.52 1604.69,1164.92 1605.69,1052.68 1606.68,1049.34 1607.68,1239.44 1608.68,1235.57 1609.68,1252.39 1610.67,1248.35 1611.67,1216.6 1612.67,1204.21 1613.67,1263.76 1614.66,1261.02 1615.66,1079.07 1616.66,1073.8 1617.66,1151.35 1618.65,1148.36 1619.65,1196.49 1620.65,1192.43 1621.65,1159.08 1622.64,1154.93 1623.64,1216.28 1624.64,1211.48 1625.63,1258.97 1626.63,1255.9 1627.63,1125.73 1628.63,1117.33 1629.62,1032.67 1630.62,1030.66 1631.62,1238.67 1632.62,1233.84 1633.61,1172.61 1634.61,1170.65 1635.61,1172.78 1636.61,1167.05 1637.6,1228.9 1638.6,1220.07 1639.6,1123.96 1640.6,1118.78 1641.59,1329.98 1642.59,1327.21 1643.59,1188.18 1644.59,1186.17 1645.58,1120.47 1646.58,1114.75 1647.58,1128.47 1648.58,1125.75 1649.57,1268.97 1650.57,1264.91 1651.57,1087.46 1652.57,1083.74 1653.56,1155.04 1654.56,1151.74 1655.56,1180.79 1656.56,1176.84 1657.55,1250.24 1658.55,1245.59 1659.55,1294.88 1660.55,1290.42 1661.54,1247.35 1662.54,1244.43 1663.54,1185.12 1664.54,1181.32 1665.53,1211.8 1666.53,1208.36 1667.53,1175.68 1668.53,1170.91 1669.52,1157.5 1670.52,1149.92 1671.52,1345.22 1672.52,1341.09 1673.51,1131.84 1674.51,1124.7 1675.51,1096.2 1676.51,1092.52 1677.5,1153.68 1678.5,1148.76 1679.5,1203.76 1680.5,1197.19 1681.49,1255.34 1682.49,1251.2 1683.49,1132.89 1684.49,1129.84 1685.48,1179.9 1686.48,1175.94 1687.48,1138.82 1688.48,1132.94 1689.47,1214 1690.47,1209.75 1691.47,1199.89 1692.46,1196.34 1693.46,1129.2 1694.46,1122.71 1695.46,1238.88 1696.45,1234.12 1697.45,1152.98 1698.45,1151.14 1699.45,1285.89 1700.44,1284.04 1701.44,1166.34 1702.44,1159.77 1703.44,1264.04 1704.43,1261.84 1705.43,1080.26 1706.43,1076.62 1707.43,1061.56 1708.42,1055.16 1709.42,1242.96 1710.42,1238.32 1711.42,1196.54 1712.41,1193.3 1713.41,1199.2 1714.41,1193.89 1715.41,1066.88 1716.4,1061.87 1717.4,1322.93 1718.4,1317.94 1719.4,1221.08 1720.39,1218.37 1721.39,1212.86 1722.39,1206.28 1723.39,1248.29 1724.38,1244.73 1725.38,1098.55 1726.38,1094.17 1727.38,1137.85 1728.37,1133.18 1729.37,1125.49 1730.37,1122.09 1731.37,1193.21 1732.36,1188.6 1733.36,1342.23 1734.36,1339.47 1735.36,1181.34 1736.35,1175.44 1737.35,1302.85 1738.35,1291.96 1739.35,1191.03 1740.34,1187.84 1741.34,1233.23 1742.34,1226.24 1743.34,1226.14 1744.33,1223.66 1745.33,1113.55 1746.33,1108.94 1747.33,1148.8 1748.32,1146.37 1749.32,1194.85 1750.32,1188.8 1751.32,1124.87 1752.31,1120.45 1753.31,1300.72 1754.31,1299.07 1755.31,1124.9 1756.3,1122.88 1757.3,1168.15 1758.3,1164.3 1759.29,1196.08 1760.29,1193.73 1761.29,1194.26 1762.29,1188.26 1763.28,1101.06 1764.28,1097.87 1765.28,1185.64 1766.28,1181.04 1767.27,1146.17 1768.27,1143.14 1769.27,1035.81 1770.27,1030.25 1771.26,1160.24 1772.26,1156.01 1773.26,1172.36 1774.26,1165.83 1775.25,1292.99 1776.25,1289.4 1777.25,1271.58 1778.25,1265.99 1779.24,1306.91 1780.24,1299.09 1781.24,1291.43 1782.24,1287.37 1783.23,1308.17 1784.23,1304.77 1785.23,1148.56 1786.23,1144.22 1787.22,1281.5 1788.22,1277.03 1789.22,1047.89 1790.22,1045.17 1791.21,1220.73 1792.21,1214.39 1793.21,1347.7 1794.21,1341.31 1795.2,1110.49 1796.2,1108.33 1797.2,1193.34 1798.2,1190.83 1799.19,1274.71 1800.19,1270.8 1801.19,1114.38 1802.19,1111.85 1803.18,1209.95 1804.18,1204.41 1805.18,1191.16 1806.18,1186.37 1807.17,1100.8 1808.17,1094.95 1809.17,1225.55 1810.17,1219.34 1811.16,1080.65 1812.16,1077.21 1813.16,1178.4 1814.16,1175.25 1815.15,1164.19 1816.15,1161.72 1817.15,1117.91 1818.15,1113.39 1819.14,1186.5 1820.14,1182.37 1821.14,1206.62 1822.14,1203.07 1823.13,1321.57 1824.13,1312.56 1825.13,1182.65 1826.13,1172.17 1827.12,1383.87 1828.12,1380.38 1829.12,1232.26 1830.11,1227.73 1831.11,1132.81 1832.11,1129.66 1833.11,1111.45 1834.1,1108.08 1835.1,1163.54 1836.1,1158.77 1837.1,1127.3 1838.09,1122.15 1839.09,1104.34 1840.09,1100.24 1841.09,1177.87 1842.08,1172.29 1843.08,1190.4 1844.08,1187.8 1845.08,1191.54 1846.07,1188.78 1847.07,1370.73 1848.07,1367.8 1849.07,1170.61 1850.06,1165.72 1851.06,1166.25 1852.06,1162.65 1853.06,1152.45 1854.05,1151.34 1855.05,1123.94 1856.05,1119.22 1857.05,1196.23 1858.04,1185.76 1859.04,1324.88 1860.04,1316.86 1861.04,1145.66 1862.03,1142.17 1863.03,1236.08 1864.03,1230.06 1865.03,1199.9 1866.02,1196.77 1867.02,1167.55 1868.02,1162.26 1869.02,1173.35 1870.01,1169.1 1871.01,1084.74 1872.01,1080.48 1873.01,1250.41 1874,1242.71 1875,1250.31 1876,1244.03 1877,1008.09 1877.99,1004.87 1878.99,1165.56 1879.99,1159.64 1880.99,1117.46 1881.98,1111.87 1882.98,1257.87 1883.98,1254.09 1884.98,1187.89 1885.97,1182.49 1886.97,1264.59 1887.97,1260.17 1888.97,1096.63 1889.96,1092.3 1890.96,1228.74 1891.96,1224.25 1892.96,1294.73 1893.95,1292.77 1894.95,1214.61 1895.95,1210.24 1896.94,1211.83 1897.94,1207.53 1898.94,1226.31 1899.94,1224.56 1900.93,1326.44 1901.93,1322.26 1902.93,1227.9 1903.93,1222.91 1904.92,1115.65 1905.92,1112.98 1906.92,1150.62 1907.92,1146.38 1908.91,1255.14 1909.91,1252.46 1910.91,1157.08 1911.91,1147.85 1912.9,1222.27 1913.9,1214.62 1914.9,1185.95 1915.9,1181.95 1916.89,1101.34 1917.89,1097.52 1918.89,1241.38 1919.89,1236.78 1920.88,1154.48 1921.88,1147.19 1922.88,1259.54 1923.88,1256.37 1924.87,1218.27 1925.87,1216.23 1926.87,1113.93 1927.87,1109.91 1928.86,1287.1 1929.86,1281.08 1930.86,1152.68 1931.86,1147.69 1932.85,1150.37 1933.85,1147.52 1934.85,1178.66 1935.85,1174.22 1936.84,1111.19 1937.84,1106.05 1938.84,1337.08 1939.84,1330.62 1940.83,1229.38 1941.83,1222.6 1942.83,1193.15 1943.83,1187.91 1944.82,1169.76 1945.82,1167.11 1946.82,1233.98 1947.82,1227.16 1948.81,1073.52 1949.81,1069.14 1950.81,1205.51 1951.81,1201.97 1952.8,1139.95 1953.8,1137.62 1954.8,1063.84 1955.8,1060.04 1956.79,1300.69 1957.79,1295.89 1958.79,1262.59 1959.79,1256.6 1960.78,1145.01 1961.78,1141.87 1962.78,1137.07 1963.78,1134.2 1964.77,1282.91 1965.77,1277.04 1966.77,1153.15 1967.76,1149.54 1968.76,1164.25 1969.76,1159.51 1970.76,1309.5 1971.75,1303.43 1972.75,1062.55 1973.75,1060.4 1974.75,1094.59 1975.74,1088.22 1976.74,1266.29 1977.74,1261.25 1978.74,1282.28 1979.73,1275.86 1980.73,1225.25 1981.73,1221.93 1982.73,1239.75 1983.72,1235.82 1984.72,1325.91 1985.72,1322.21 1986.72,1157.61 1987.71,1155.21 1988.71,1214.35 1989.71,1206.44 1990.71,1104.4 1991.7,1102.36 1992.7,1167.16 1993.7,1164.76 1994.7,1168.55 1995.69,1163.54 1996.69,1370.02 1997.69,1365.39 1998.69,1330.9 1999.68,1329.44 2000.68,1225.3 2001.68,1219.67 2002.68,1323.52 2003.67,1319.03 2004.67,1193.81 2005.67,1189.1 2006.67,1150.6 2007.66,1144.53 2008.66,1225.3 2009.66,1218.1 2010.66,1115.43 2011.65,1113.26 2012.65,1070.54 2013.65,1068.51 2014.65,1175.88 2015.64,1172.24 2016.64,1186.35 2017.64,1182.27 2018.64,1366.53 2019.63,1358.9 2020.63,1145.72 2021.63,1141.98 2022.63,1141.66 2023.62,1138.45 2024.62,1026.37 2025.62,1024.67 2026.62,1220.97 2027.61,1216.14 2028.61,1205.67 2029.61,1199.04 2030.61,1082.57 2031.6,1080.67 2032.6,1194.19 2033.6,1188.91 2034.59,1294.15 2035.59,1291.5 2036.59,1229.58 2037.59,1224.38 2038.58,1232.89 2039.58,1230.02 2040.58,1220.6 2041.58,1215.57 2042.57,1374.71 2043.57,1371 2044.57,1134.35 2045.57,1131.32 2046.56,1291.26 2047.56,1285.41 2048.56,1229.71 2049.56,1224.12 2050.55,1201.42 2051.55,1198.04 2052.55,1335.75 2053.55,1327.96 2054.54,944.724 2055.54,939.116 2056.54,1258.53 2057.54,1254.88 2058.53,1188.83 2059.53,1183.94 2060.53,1152.35 2061.53,1146.52 2062.52,1157.99 2063.52,1151.74 2064.52,1044.03 2065.52,1039.8 2066.51,1220.71 2067.51,1216.56 2068.51,1156.93 2069.51,1154.27 2070.5,1063.49 2071.5,1058.4 2072.5,1311.02 2073.5,1304.64 2074.49,1260.93 2075.49,1258.52 2076.49,1132.13 2077.49,1129.49 2078.48,1236.66 2079.48,1226.03 2080.48,1231.2 2081.48,1228.14 2082.47,1251.46 2083.47,1249.02 2084.47,1336.07 2085.47,1332.07 2086.46,1270.61 2087.46,1265.21 2088.46,1174.87 2089.46,1167.05 2090.45,1383.92 2091.45,1378.74 2092.45,1333.18 2093.45,1330.44 2094.44,1378.28 2095.44,1371.26 2096.44,1130.03 2097.44,1126.38 2098.43,1199.36 2099.43,1191.43 2100.43,1153.06 2101.43,1149.4 2102.42,1170.17 2103.42,1164.54 2104.42,1161.2 2105.41,1155.19 2106.41,1166.92 2107.41,1162.01 2108.41,1266.29 2109.4,1260.7 2110.4,1135.24 2111.4,1132.41 2112.4,1206.23 2113.39,1203.98 2114.39,1317.28 2115.39,1307.91 2116.39,1117.83 2117.38,1113.55 2118.38,1066.5 2119.38,1060.98 2120.38,1164.04 2121.37,1159.81 2122.37,1125.69 2123.37,1123.4 2124.37,1330.81 2125.36,1321.73 2126.36,1382.08 2127.36,1373.65 2128.36,1191.2 2129.35,1187.12 2130.35,1257.65 2131.35,1252.71 2132.35,1083.97 2133.34,1081.67 2134.34,1262.4 2135.34,1255.2 2136.34,1223.74 2137.33,1218.68 2138.33,1280.8 2139.33,1274.66 2140.33,1318.35 2141.32,1313.52 2142.32,1171.01 2143.32,1166.72 2144.32,1240.48 2145.31,1228.49 2146.31,1219.44 2147.31,1214.35 2148.31,1292.25 2149.3,1286.74 2150.3,1119.65 2151.3,1114.18 2152.3,1245.3 2153.29,1242.54 2154.29,1244.51 2155.29,1240.14 2156.29,1342.16 2157.28,1336.53 2158.28,1014.73 2159.28,1009.87 2160.28,1171.46 2161.27,1165.6 2162.27,1319.81 2163.27,1311.99 2164.27,1211.45 2165.26,1205.25 2166.26,1197.58 2167.26,1191.83 2168.26,1190.73 2169.25,1186.45 2170.25,1226.75 2171.25,1220.16 2172.24,1291.5 2173.24,1285.12 2174.24,1249.89 2175.24,1247.53 2176.23,1030.21 2177.23,1027.69 2178.23,1232.29 2179.23,1227.27 2180.22,1047.04 2181.22,1044.05 2182.22,1106.98 2183.22,1104.08 2184.21,1172.44 2185.21,1166.57 2186.21,1146.6 2187.21,1143.12 2188.2,1179.2 2189.2,1175.64 2190.2,1151.61 2191.2,1146.01 2192.19,1224.62 2193.19,1220.31 2194.19,1277.74 2195.19,1268.76 2196.18,1355.91 2197.18,1350.79 2198.18,1258.26 2199.18,1253.31 2200.17,1136.18 2201.17,1131.62 2202.17,1445.72 2203.17,1440.26 2204.16,1129.25 2205.16,1123.71 2206.16,1246.06 2207.16,1243.41 2208.15,1187.05 2209.15,1182.92 2210.15,1151.91 2211.15,1146.67 2212.14,1327.68 2213.14,1324.77 2214.14,1274.26 2215.14,1268.28 2216.13,1241.3 2217.13,1232.93 2218.13,1142.62 2219.13,1138.96 2220.12,1120.12 2221.12,1116.34 2222.12,1277.59 2223.12,1273.65 2224.11,1171.32 2225.11,1166.71 2226.11,1354.48 2227.11,1346.86 2228.1,1224.01 2229.1,1220.22 2230.1,1059.01 2231.1,1055.5 2232.09,1124.76 2233.09,1120.73 2234.09,1091.17 2235.09,1087.66 2236.08,1287.23 2237.08,1281.42 2238.08,1273.37 2239.07,1269.77 2240.07,1251.58 2241.07,1246.36 2242.07,1336.52 2243.06,1331.02 2244.06,1332.2 2245.06,1326.4 2246.06,1232.41 2247.05,1227.25 2248.05,1362.55 2249.05,1360.87 2250.05,1207 2251.04,1203.16 2252.04,1172.36 2253.04,1170.75 2254.04,1241.92 2255.03,1237.42 2256.03,1177.65 2257.03,1170.31 2258.03,1155.26 2259.02,1151.79 2260.02,956.665 2261.02,954.137 2262.02,1173.87 2263.01,1172.56 2264.01,1244.34 2265.01,1235.91 2266.01,1292.6 2267,1287.13 2268,1248.98 2269,1246.2 2270,1388.03 2270.99,1384.83 2271.99,1073.94 2272.99,1071.03 2273.99,1282.31 2274.98,1278.55 2275.98,1190.31 2276.98,1184.55 2277.98,1314.88 2278.97,1308.14 2279.97,1237.38 2280.97,1232.8 2281.97,1170.97 2282.96,1167.97 2283.96,1115.45 2284.96,1109.03 2285.96,1309.35 2286.95,1302.07 2287.95,1156.18 2288.95,1152.27 2289.95,1318.08 2290.94,1312.44 2291.94,1293.5 2292.94,1288.29 "/>
<path clip-path="url(#clip820)" d="M2018.52 198.898 L2282.3 198.898 L2282.3 95.2176 L2018.52 95.2176  Z" fill="#ffffff" fill-rule="evenodd" fill-opacity="1"/>
<polyline clip-path="url(#clip820)" style="stroke:#000000; stroke-linecap:round; stroke-linejoin:round; stroke-width:4; stroke-opacity:1; fill:none" points="2018.52,198.898 2282.3,198.898 2282.3,95.2176 2018.52,95.2176 2018.52,198.898 "/>
<polyline clip-path="url(#clip820)" style="stroke:#009af9; stroke-linecap:round; stroke-linejoin:round; stroke-width:4; stroke-opacity:1; fill:none" points="2042,147.058 2182.91,147.058 "/>
<path clip-path="url(#clip820)" d="M2220.23 166.745 Q2218.43 171.375 2216.71 172.787 Q2215 174.199 2212.13 174.199 L2208.73 174.199 L2208.73 170.634 L2211.23 170.634 Q2212.99 170.634 2213.96 169.8 Q2214.93 168.967 2216.11 165.865 L2216.88 163.921 L2206.39 138.412 L2210.9 138.412 L2219.01 158.689 L2227.11 138.412 L2231.62 138.412 L2220.23 166.745 Z" fill="#000000" fill-rule="nonzero" fill-opacity="1" /><path clip-path="url(#clip820)" d="M2238.91 160.402 L2246.55 160.402 L2246.55 134.037 L2238.24 135.703 L2238.24 131.444 L2246.5 129.778 L2251.18 129.778 L2251.18 160.402 L2258.82 160.402 L2258.82 164.338 L2238.91 164.338 L2238.91 160.402 Z" fill="#000000" fill-rule="nonzero" fill-opacity="1" /></svg>
