<?xml version="1.0" encoding="utf-8"?>
<svg xmlns="http://www.w3.org/2000/svg" xmlns:xlink="http://www.w3.org/1999/xlink" width="600" height="400" viewBox="0 0 2400 1600">
<defs>
  <clipPath id="clip560">
    <rect x="0" y="0" width="2400" height="1600"/>
  </clipPath>
</defs>
<path clip-path="url(#clip560)" d="M0 1600 L2400 1600 L2400 0 L0 0  Z" fill="#ffffff" fill-rule="evenodd" fill-opacity="1"/>
<defs>
  <clipPath id="clip561">
    <rect x="480" y="0" width="1681" height="1600"/>
  </clipPath>
</defs>
<path clip-path="url(#clip560)" d="M156.274 1486.45 L2352.76 1486.45 L2352.76 47.2441 L156.274 47.2441  Z" fill="#ffffff" fill-rule="evenodd" fill-opacity="1"/>
<defs>
  <clipPath id="clip562">
    <rect x="156" y="47" width="2197" height="1440"/>
  </clipPath>
</defs>
<polyline clip-path="url(#clip562)" style="stroke:#000000; stroke-linecap:round; stroke-linejoin:round; stroke-width:2; stroke-opacity:0.1; fill:none" points="218.439,1486.45 218.439,47.2441 "/>
<polyline clip-path="url(#clip562)" style="stroke:#000000; stroke-linecap:round; stroke-linejoin:round; stroke-width:2; stroke-opacity:0.1; fill:none" points="736.995,1486.45 736.995,47.2441 "/>
<polyline clip-path="url(#clip562)" style="stroke:#000000; stroke-linecap:round; stroke-linejoin:round; stroke-width:2; stroke-opacity:0.1; fill:none" points="1255.55,1486.45 1255.55,47.2441 "/>
<polyline clip-path="url(#clip562)" style="stroke:#000000; stroke-linecap:round; stroke-linejoin:round; stroke-width:2; stroke-opacity:0.1; fill:none" points="1774.11,1486.45 1774.11,47.2441 "/>
<polyline clip-path="url(#clip562)" style="stroke:#000000; stroke-linecap:round; stroke-linejoin:round; stroke-width:2; stroke-opacity:0.1; fill:none" points="2292.67,1486.45 2292.67,47.2441 "/>
<polyline clip-path="url(#clip560)" style="stroke:#000000; stroke-linecap:round; stroke-linejoin:round; stroke-width:4; stroke-opacity:1; fill:none" points="156.274,1486.45 2352.76,1486.45 "/>
<polyline clip-path="url(#clip560)" style="stroke:#000000; stroke-linecap:round; stroke-linejoin:round; stroke-width:4; stroke-opacity:1; fill:none" points="218.439,1486.45 218.439,1467.55 "/>
<polyline clip-path="url(#clip560)" style="stroke:#000000; stroke-linecap:round; stroke-linejoin:round; stroke-width:4; stroke-opacity:1; fill:none" points="736.995,1486.45 736.995,1467.55 "/>
<polyline clip-path="url(#clip560)" style="stroke:#000000; stroke-linecap:round; stroke-linejoin:round; stroke-width:4; stroke-opacity:1; fill:none" points="1255.55,1486.45 1255.55,1467.55 "/>
<polyline clip-path="url(#clip560)" style="stroke:#000000; stroke-linecap:round; stroke-linejoin:round; stroke-width:4; stroke-opacity:1; fill:none" points="1774.11,1486.45 1774.11,1467.55 "/>
<polyline clip-path="url(#clip560)" style="stroke:#000000; stroke-linecap:round; stroke-linejoin:round; stroke-width:4; stroke-opacity:1; fill:none" points="2292.67,1486.45 2292.67,1467.55 "/>
<path clip-path="url(#clip560)" d="M218.439 1517.37 Q214.828 1517.37 212.999 1520.93 Q211.193 1524.47 211.193 1531.6 Q211.193 1538.71 212.999 1542.27 Q214.828 1545.82 218.439 1545.82 Q222.073 1545.82 223.879 1542.27 Q225.707 1538.71 225.707 1531.6 Q225.707 1524.47 223.879 1520.93 Q222.073 1517.37 218.439 1517.37 M218.439 1513.66 Q224.249 1513.66 227.304 1518.27 Q230.383 1522.85 230.383 1531.6 Q230.383 1540.33 227.304 1544.94 Q224.249 1549.52 218.439 1549.52 Q212.629 1549.52 209.55 1544.94 Q206.494 1540.33 206.494 1531.6 Q206.494 1522.85 209.55 1518.27 Q212.629 1513.66 218.439 1513.66 Z" fill="#000000" fill-rule="nonzero" fill-opacity="1" /><path clip-path="url(#clip560)" d="M700.688 1544.91 L717.007 1544.91 L717.007 1548.85 L695.063 1548.85 L695.063 1544.91 Q697.725 1542.16 702.308 1537.53 Q706.915 1532.88 708.095 1531.53 Q710.34 1529.01 711.22 1527.27 Q712.123 1525.51 712.123 1523.82 Q712.123 1521.07 710.178 1519.33 Q708.257 1517.6 705.155 1517.6 Q702.956 1517.6 700.503 1518.36 Q698.072 1519.13 695.294 1520.68 L695.294 1515.95 Q698.118 1514.82 700.572 1514.24 Q703.026 1513.66 705.063 1513.66 Q710.433 1513.66 713.628 1516.35 Q716.822 1519.03 716.822 1523.52 Q716.822 1525.65 716.012 1527.57 Q715.225 1529.47 713.118 1532.07 Q712.54 1532.74 709.438 1535.95 Q706.336 1539.15 700.688 1544.91 Z" fill="#000000" fill-rule="nonzero" fill-opacity="1" /><path clip-path="url(#clip560)" d="M726.868 1514.29 L745.225 1514.29 L745.225 1518.22 L731.151 1518.22 L731.151 1526.7 Q732.169 1526.35 733.188 1526.19 Q734.206 1526 735.225 1526 Q741.012 1526 744.391 1529.17 Q747.771 1532.34 747.771 1537.76 Q747.771 1543.34 744.299 1546.44 Q740.826 1549.52 734.507 1549.52 Q732.331 1549.52 730.063 1549.15 Q727.817 1548.78 725.41 1548.04 L725.41 1543.34 Q727.493 1544.47 729.715 1545.03 Q731.938 1545.58 734.414 1545.58 Q738.419 1545.58 740.757 1543.48 Q743.095 1541.37 743.095 1537.76 Q743.095 1534.15 740.757 1532.04 Q738.419 1529.94 734.414 1529.94 Q732.539 1529.94 730.664 1530.35 Q728.813 1530.77 726.868 1531.65 L726.868 1514.29 Z" fill="#000000" fill-rule="nonzero" fill-opacity="1" /><path clip-path="url(#clip560)" d="M766.984 1517.37 Q763.373 1517.37 761.544 1520.93 Q759.738 1524.47 759.738 1531.6 Q759.738 1538.71 761.544 1542.27 Q763.373 1545.82 766.984 1545.82 Q770.618 1545.82 772.423 1542.27 Q774.252 1538.71 774.252 1531.6 Q774.252 1524.47 772.423 1520.93 Q770.618 1517.37 766.984 1517.37 M766.984 1513.66 Q772.794 1513.66 775.849 1518.27 Q778.928 1522.85 778.928 1531.6 Q778.928 1540.33 775.849 1544.94 Q772.794 1549.52 766.984 1549.52 Q761.174 1549.52 758.095 1544.94 Q755.039 1540.33 755.039 1531.6 Q755.039 1522.85 758.095 1518.27 Q761.174 1513.66 766.984 1513.66 Z" fill="#000000" fill-rule="nonzero" fill-opacity="1" /><path clip-path="url(#clip560)" d="M1215.17 1514.29 L1233.53 1514.29 L1233.53 1518.22 L1219.45 1518.22 L1219.45 1526.7 Q1220.47 1526.35 1221.49 1526.19 Q1222.51 1526 1223.53 1526 Q1229.31 1526 1232.69 1529.17 Q1236.07 1532.34 1236.07 1537.76 Q1236.07 1543.34 1232.6 1546.44 Q1229.13 1549.52 1222.81 1549.52 Q1220.63 1549.52 1218.36 1549.15 Q1216.12 1548.78 1213.71 1548.04 L1213.71 1543.34 Q1215.8 1544.47 1218.02 1545.03 Q1220.24 1545.58 1222.72 1545.58 Q1226.72 1545.58 1229.06 1543.48 Q1231.4 1541.37 1231.4 1537.76 Q1231.4 1534.15 1229.06 1532.04 Q1226.72 1529.94 1222.72 1529.94 Q1220.84 1529.94 1218.97 1530.35 Q1217.11 1530.77 1215.17 1531.65 L1215.17 1514.29 Z" fill="#000000" fill-rule="nonzero" fill-opacity="1" /><path clip-path="url(#clip560)" d="M1255.29 1517.37 Q1251.67 1517.37 1249.85 1520.93 Q1248.04 1524.47 1248.04 1531.6 Q1248.04 1538.71 1249.85 1542.27 Q1251.67 1545.82 1255.29 1545.82 Q1258.92 1545.82 1260.73 1542.27 Q1262.55 1538.71 1262.55 1531.6 Q1262.55 1524.47 1260.73 1520.93 Q1258.92 1517.37 1255.29 1517.37 M1255.29 1513.66 Q1261.1 1513.66 1264.15 1518.27 Q1267.23 1522.85 1267.23 1531.6 Q1267.23 1540.33 1264.15 1544.94 Q1261.1 1549.52 1255.29 1549.52 Q1249.48 1549.52 1246.4 1544.94 Q1243.34 1540.33 1243.34 1531.6 Q1243.34 1522.85 1246.4 1518.27 Q1249.48 1513.66 1255.29 1513.66 Z" fill="#000000" fill-rule="nonzero" fill-opacity="1" /><path clip-path="url(#clip560)" d="M1285.45 1517.37 Q1281.84 1517.37 1280.01 1520.93 Q1278.2 1524.47 1278.2 1531.6 Q1278.2 1538.71 1280.01 1542.27 Q1281.84 1545.82 1285.45 1545.82 Q1289.08 1545.82 1290.89 1542.27 Q1292.72 1538.71 1292.72 1531.6 Q1292.72 1524.47 1290.89 1520.93 Q1289.08 1517.37 1285.45 1517.37 M1285.45 1513.66 Q1291.26 1513.66 1294.31 1518.27 Q1297.39 1522.85 1297.39 1531.6 Q1297.39 1540.33 1294.31 1544.94 Q1291.26 1549.52 1285.45 1549.52 Q1279.64 1549.52 1276.56 1544.94 Q1273.5 1540.33 1273.5 1531.6 Q1273.5 1522.85 1276.56 1518.27 Q1279.64 1513.66 1285.45 1513.66 Z" fill="#000000" fill-rule="nonzero" fill-opacity="1" /><path clip-path="url(#clip560)" d="M1732.38 1514.29 L1754.61 1514.29 L1754.61 1516.28 L1742.06 1548.85 L1737.18 1548.85 L1748.98 1518.22 L1732.38 1518.22 L1732.38 1514.29 Z" fill="#000000" fill-rule="nonzero" fill-opacity="1" /><path clip-path="url(#clip560)" d="M1763.77 1514.29 L1782.13 1514.29 L1782.13 1518.22 L1768.06 1518.22 L1768.06 1526.7 Q1769.07 1526.35 1770.09 1526.19 Q1771.11 1526 1772.13 1526 Q1777.92 1526 1781.3 1529.17 Q1784.68 1532.34 1784.68 1537.76 Q1784.68 1543.34 1781.2 1546.44 Q1777.73 1549.52 1771.41 1549.52 Q1769.24 1549.52 1766.97 1549.15 Q1764.72 1548.78 1762.31 1548.04 L1762.31 1543.34 Q1764.4 1544.47 1766.62 1545.03 Q1768.84 1545.58 1771.32 1545.58 Q1775.32 1545.58 1777.66 1543.48 Q1780 1541.37 1780 1537.76 Q1780 1534.15 1777.66 1532.04 Q1775.32 1529.94 1771.32 1529.94 Q1769.44 1529.94 1767.57 1530.35 Q1765.72 1530.77 1763.77 1531.65 L1763.77 1514.29 Z" fill="#000000" fill-rule="nonzero" fill-opacity="1" /><path clip-path="url(#clip560)" d="M1803.89 1517.37 Q1800.28 1517.37 1798.45 1520.93 Q1796.64 1524.47 1796.64 1531.6 Q1796.64 1538.71 1798.45 1542.27 Q1800.28 1545.82 1803.89 1545.82 Q1807.52 1545.82 1809.33 1542.27 Q1811.16 1538.71 1811.16 1531.6 Q1811.16 1524.47 1809.33 1520.93 Q1807.52 1517.37 1803.89 1517.37 M1803.89 1513.66 Q1809.7 1513.66 1812.75 1518.27 Q1815.83 1522.85 1815.83 1531.6 Q1815.83 1540.33 1812.75 1544.94 Q1809.7 1549.52 1803.89 1549.52 Q1798.08 1549.52 1795 1544.94 Q1791.94 1540.33 1791.94 1531.6 Q1791.94 1522.85 1795 1518.27 Q1798.08 1513.66 1803.89 1513.66 Z" fill="#000000" fill-rule="nonzero" fill-opacity="1" /><path clip-path="url(#clip560)" d="M2237.19 1544.91 L2244.83 1544.91 L2244.83 1518.55 L2236.52 1520.21 L2236.52 1515.95 L2244.78 1514.29 L2249.46 1514.29 L2249.46 1544.91 L2257.1 1544.91 L2257.1 1548.85 L2237.19 1548.85 L2237.19 1544.91 Z" fill="#000000" fill-rule="nonzero" fill-opacity="1" /><path clip-path="url(#clip560)" d="M2276.54 1517.37 Q2272.93 1517.37 2271.1 1520.93 Q2269.3 1524.47 2269.3 1531.6 Q2269.3 1538.71 2271.1 1542.27 Q2272.93 1545.82 2276.54 1545.82 Q2280.18 1545.82 2281.98 1542.27 Q2283.81 1538.71 2283.81 1531.6 Q2283.81 1524.47 2281.98 1520.93 Q2280.18 1517.37 2276.54 1517.37 M2276.54 1513.66 Q2282.35 1513.66 2285.41 1518.27 Q2288.49 1522.85 2288.49 1531.6 Q2288.49 1540.33 2285.41 1544.94 Q2282.35 1549.52 2276.54 1549.52 Q2270.73 1549.52 2267.65 1544.94 Q2264.6 1540.33 2264.6 1531.6 Q2264.6 1522.85 2267.65 1518.27 Q2270.73 1513.66 2276.54 1513.66 Z" fill="#000000" fill-rule="nonzero" fill-opacity="1" /><path clip-path="url(#clip560)" d="M2306.7 1517.37 Q2303.09 1517.37 2301.27 1520.93 Q2299.46 1524.47 2299.46 1531.6 Q2299.46 1538.71 2301.27 1542.27 Q2303.09 1545.82 2306.7 1545.82 Q2310.34 1545.82 2312.14 1542.27 Q2313.97 1538.71 2313.97 1531.6 Q2313.97 1524.47 2312.14 1520.93 Q2310.34 1517.37 2306.7 1517.37 M2306.7 1513.66 Q2312.51 1513.66 2315.57 1518.27 Q2318.65 1522.85 2318.65 1531.6 Q2318.65 1540.33 2315.57 1544.94 Q2312.51 1549.52 2306.7 1549.52 Q2300.89 1549.52 2297.82 1544.94 Q2294.76 1540.33 2294.76 1531.6 Q2294.76 1522.85 2297.82 1518.27 Q2300.89 1513.66 2306.7 1513.66 Z" fill="#000000" fill-rule="nonzero" fill-opacity="1" /><path clip-path="url(#clip560)" d="M2336.87 1517.37 Q2333.26 1517.37 2331.43 1520.93 Q2329.62 1524.47 2329.62 1531.6 Q2329.62 1538.71 2331.43 1542.27 Q2333.26 1545.82 2336.87 1545.82 Q2340.5 1545.82 2342.31 1542.27 Q2344.14 1538.71 2344.14 1531.6 Q2344.14 1524.47 2342.31 1520.93 Q2340.5 1517.37 2336.87 1517.37 M2336.87 1513.66 Q2342.68 1513.66 2345.73 1518.27 Q2348.81 1522.85 2348.81 1531.6 Q2348.81 1540.33 2345.73 1544.94 Q2342.68 1549.52 2336.87 1549.52 Q2331.06 1549.52 2327.98 1544.94 Q2324.92 1540.33 2324.92 1531.6 Q2324.92 1522.85 2327.98 1518.27 Q2331.06 1513.66 2336.87 1513.66 Z" fill="#000000" fill-rule="nonzero" fill-opacity="1" /><polyline clip-path="url(#clip562)" style="stroke:#000000; stroke-linecap:round; stroke-linejoin:round; stroke-width:2; stroke-opacity:0.1; fill:none" points="156.274,1349.88 2352.76,1349.88 "/>
<polyline clip-path="url(#clip562)" style="stroke:#000000; stroke-linecap:round; stroke-linejoin:round; stroke-width:2; stroke-opacity:0.1; fill:none" points="156.274,1030.41 2352.76,1030.41 "/>
<polyline clip-path="url(#clip562)" style="stroke:#000000; stroke-linecap:round; stroke-linejoin:round; stroke-width:2; stroke-opacity:0.1; fill:none" points="156.274,710.939 2352.76,710.939 "/>
<polyline clip-path="url(#clip562)" style="stroke:#000000; stroke-linecap:round; stroke-linejoin:round; stroke-width:2; stroke-opacity:0.1; fill:none" points="156.274,391.471 2352.76,391.471 "/>
<polyline clip-path="url(#clip562)" style="stroke:#000000; stroke-linecap:round; stroke-linejoin:round; stroke-width:2; stroke-opacity:0.1; fill:none" points="156.274,72.0029 2352.76,72.0029 "/>
<polyline clip-path="url(#clip560)" style="stroke:#000000; stroke-linecap:round; stroke-linejoin:round; stroke-width:4; stroke-opacity:1; fill:none" points="156.274,1486.45 156.274,47.2441 "/>
<polyline clip-path="url(#clip560)" style="stroke:#000000; stroke-linecap:round; stroke-linejoin:round; stroke-width:4; stroke-opacity:1; fill:none" points="156.274,1349.88 175.172,1349.88 "/>
<polyline clip-path="url(#clip560)" style="stroke:#000000; stroke-linecap:round; stroke-linejoin:round; stroke-width:4; stroke-opacity:1; fill:none" points="156.274,1030.41 175.172,1030.41 "/>
<polyline clip-path="url(#clip560)" style="stroke:#000000; stroke-linecap:round; stroke-linejoin:round; stroke-width:4; stroke-opacity:1; fill:none" points="156.274,710.939 175.172,710.939 "/>
<polyline clip-path="url(#clip560)" style="stroke:#000000; stroke-linecap:round; stroke-linejoin:round; stroke-width:4; stroke-opacity:1; fill:none" points="156.274,391.471 175.172,391.471 "/>
<polyline clip-path="url(#clip560)" style="stroke:#000000; stroke-linecap:round; stroke-linejoin:round; stroke-width:4; stroke-opacity:1; fill:none" points="156.274,72.0029 175.172,72.0029 "/>
<path clip-path="url(#clip560)" d="M62.9365 1335.67 Q59.3254 1335.67 57.4967 1339.24 Q55.6912 1342.78 55.6912 1349.91 Q55.6912 1357.02 57.4967 1360.58 Q59.3254 1364.12 62.9365 1364.12 Q66.5707 1364.12 68.3763 1360.58 Q70.205 1357.02 70.205 1349.91 Q70.205 1342.78 68.3763 1339.24 Q66.5707 1335.67 62.9365 1335.67 M62.9365 1331.97 Q68.7467 1331.97 71.8022 1336.58 Q74.8809 1341.16 74.8809 1349.91 Q74.8809 1358.64 71.8022 1363.24 Q68.7467 1367.83 62.9365 1367.83 Q57.1264 1367.83 54.0477 1363.24 Q50.9921 1358.64 50.9921 1349.91 Q50.9921 1341.16 54.0477 1336.58 Q57.1264 1331.97 62.9365 1331.97 Z" fill="#000000" fill-rule="nonzero" fill-opacity="1" /><path clip-path="url(#clip560)" d="M83.0984 1361.28 L87.9827 1361.28 L87.9827 1367.16 L83.0984 1367.16 L83.0984 1361.28 Z" fill="#000000" fill-rule="nonzero" fill-opacity="1" /><path clip-path="url(#clip560)" d="M108.746 1348.01 Q105.598 1348.01 103.746 1350.16 Q101.918 1352.32 101.918 1356.07 Q101.918 1359.79 103.746 1361.97 Q105.598 1364.12 108.746 1364.12 Q111.895 1364.12 113.723 1361.97 Q115.575 1359.79 115.575 1356.07 Q115.575 1352.32 113.723 1350.16 Q111.895 1348.01 108.746 1348.01 M118.029 1333.36 L118.029 1337.62 Q116.27 1336.79 114.464 1336.35 Q112.682 1335.91 110.922 1335.91 Q106.293 1335.91 103.839 1339.03 Q101.409 1342.16 101.061 1348.47 Q102.427 1346.46 104.487 1345.4 Q106.547 1344.31 109.024 1344.31 Q114.233 1344.31 117.242 1347.48 Q120.274 1350.63 120.274 1356.07 Q120.274 1361.39 117.126 1364.61 Q113.978 1367.83 108.746 1367.83 Q102.751 1367.83 99.5798 1363.24 Q96.4085 1358.64 96.4085 1349.91 Q96.4085 1341.72 100.297 1336.85 Q104.186 1331.97 110.737 1331.97 Q112.496 1331.97 114.279 1332.32 Q116.084 1332.66 118.029 1333.36 Z" fill="#000000" fill-rule="nonzero" fill-opacity="1" /><path clip-path="url(#clip560)" d="M64.0013 1016.21 Q60.3902 1016.21 58.5615 1019.77 Q56.756 1023.31 56.756 1030.44 Q56.756 1037.55 58.5615 1041.11 Q60.3902 1044.65 64.0013 1044.65 Q67.6356 1044.65 69.4411 1041.11 Q71.2698 1037.55 71.2698 1030.44 Q71.2698 1023.31 69.4411 1019.77 Q67.6356 1016.21 64.0013 1016.21 M64.0013 1012.5 Q69.8115 1012.5 72.867 1017.11 Q75.9457 1021.69 75.9457 1030.44 Q75.9457 1039.17 72.867 1043.78 Q69.8115 1048.36 64.0013 1048.36 Q58.1912 1048.36 55.1125 1043.78 Q52.0569 1039.17 52.0569 1030.44 Q52.0569 1021.69 55.1125 1017.11 Q58.1912 1012.5 64.0013 1012.5 Z" fill="#000000" fill-rule="nonzero" fill-opacity="1" /><path clip-path="url(#clip560)" d="M84.1632 1041.81 L89.0475 1041.81 L89.0475 1047.69 L84.1632 1047.69 L84.1632 1041.81 Z" fill="#000000" fill-rule="nonzero" fill-opacity="1" /><path clip-path="url(#clip560)" d="M98.0521 1013.13 L120.274 1013.13 L120.274 1015.12 L107.728 1047.69 L102.844 1047.69 L114.649 1017.06 L98.0521 1017.06 L98.0521 1013.13 Z" fill="#000000" fill-rule="nonzero" fill-opacity="1" /><path clip-path="url(#clip560)" d="M63.1911 696.738 Q59.58 696.738 57.7513 700.303 Q55.9458 703.844 55.9458 710.974 Q55.9458 718.08 57.7513 721.645 Q59.58 725.187 63.1911 725.187 Q66.8254 725.187 68.6309 721.645 Q70.4596 718.08 70.4596 710.974 Q70.4596 703.844 68.6309 700.303 Q66.8254 696.738 63.1911 696.738 M63.1911 693.034 Q69.0013 693.034 72.0568 697.641 Q75.1355 702.224 75.1355 710.974 Q75.1355 719.701 72.0568 724.307 Q69.0013 728.89 63.1911 728.89 Q57.381 728.89 54.3023 724.307 Q51.2468 719.701 51.2468 710.974 Q51.2468 702.224 54.3023 697.641 Q57.381 693.034 63.1911 693.034 Z" fill="#000000" fill-rule="nonzero" fill-opacity="1" /><path clip-path="url(#clip560)" d="M83.3531 722.339 L88.2373 722.339 L88.2373 728.219 L83.3531 728.219 L83.3531 722.339 Z" fill="#000000" fill-rule="nonzero" fill-opacity="1" /><path clip-path="url(#clip560)" d="M108.422 711.807 Q105.089 711.807 103.168 713.59 Q101.27 715.372 101.27 718.497 Q101.27 721.622 103.168 723.404 Q105.089 725.187 108.422 725.187 Q111.756 725.187 113.677 723.404 Q115.598 721.599 115.598 718.497 Q115.598 715.372 113.677 713.59 Q111.779 711.807 108.422 711.807 M103.746 709.816 Q100.737 709.076 99.0474 707.015 Q97.3808 704.955 97.3808 701.992 Q97.3808 697.849 100.321 695.441 Q103.284 693.034 108.422 693.034 Q113.584 693.034 116.524 695.441 Q119.464 697.849 119.464 701.992 Q119.464 704.955 117.774 707.015 Q116.108 709.076 113.121 709.816 Q116.501 710.603 118.376 712.895 Q120.274 715.187 120.274 718.497 Q120.274 723.52 117.195 726.205 Q114.14 728.89 108.422 728.89 Q102.705 728.89 99.6261 726.205 Q96.5706 723.52 96.5706 718.497 Q96.5706 715.187 98.4687 712.895 Q100.367 710.603 103.746 709.816 M102.034 702.432 Q102.034 705.117 103.7 706.622 Q105.39 708.127 108.422 708.127 Q111.432 708.127 113.121 706.622 Q114.834 705.117 114.834 702.432 Q114.834 699.747 113.121 698.242 Q111.432 696.738 108.422 696.738 Q105.39 696.738 103.7 698.242 Q102.034 699.747 102.034 702.432 Z" fill="#000000" fill-rule="nonzero" fill-opacity="1" /><path clip-path="url(#clip560)" d="M63.2837 377.27 Q59.6726 377.27 57.8439 380.834 Q56.0384 384.376 56.0384 391.506 Q56.0384 398.612 57.8439 402.177 Q59.6726 405.719 63.2837 405.719 Q66.918 405.719 68.7235 402.177 Q70.5522 398.612 70.5522 391.506 Q70.5522 384.376 68.7235 380.834 Q66.918 377.27 63.2837 377.27 M63.2837 373.566 Q69.0939 373.566 72.1494 378.172 Q75.2281 382.756 75.2281 391.506 Q75.2281 400.232 72.1494 404.839 Q69.0939 409.422 63.2837 409.422 Q57.4736 409.422 54.3949 404.839 Q51.3393 400.232 51.3393 391.506 Q51.3393 382.756 54.3949 378.172 Q57.4736 373.566 63.2837 373.566 Z" fill="#000000" fill-rule="nonzero" fill-opacity="1" /><path clip-path="url(#clip560)" d="M83.4457 402.871 L88.3299 402.871 L88.3299 408.751 L83.4457 408.751 L83.4457 402.871 Z" fill="#000000" fill-rule="nonzero" fill-opacity="1" /><path clip-path="url(#clip560)" d="M98.6539 408.033 L98.6539 403.774 Q100.413 404.607 102.219 405.047 Q104.024 405.487 105.76 405.487 Q110.39 405.487 112.82 402.385 Q115.274 399.26 115.621 392.918 Q114.279 394.908 112.219 395.973 Q110.158 397.038 107.658 397.038 Q102.473 397.038 99.4409 393.913 Q96.4317 390.765 96.4317 385.325 Q96.4317 380.001 99.5798 376.784 Q102.728 373.566 107.959 373.566 Q113.955 373.566 117.103 378.172 Q120.274 382.756 120.274 391.506 Q120.274 399.677 116.385 404.561 Q112.52 409.422 105.969 409.422 Q104.209 409.422 102.404 409.075 Q100.598 408.728 98.6539 408.033 M107.959 393.381 Q111.108 393.381 112.936 391.228 Q114.788 389.075 114.788 385.325 Q114.788 381.598 112.936 379.446 Q111.108 377.27 107.959 377.27 Q104.811 377.27 102.959 379.446 Q101.131 381.598 101.131 385.325 Q101.131 389.075 102.959 391.228 Q104.811 393.381 107.959 393.381 Z" fill="#000000" fill-rule="nonzero" fill-opacity="1" /><path clip-path="url(#clip560)" d="M53.9088 85.3477 L61.5476 85.3477 L61.5476 58.9821 L53.2375 60.6488 L53.2375 56.3895 L61.5013 54.7229 L66.1772 54.7229 L66.1772 85.3477 L73.8161 85.3477 L73.8161 89.2829 L53.9088 89.2829 L53.9088 85.3477 Z" fill="#000000" fill-rule="nonzero" fill-opacity="1" /><path clip-path="url(#clip560)" d="M83.2605 83.4033 L88.1447 83.4033 L88.1447 89.2829 L83.2605 89.2829 L83.2605 83.4033 Z" fill="#000000" fill-rule="nonzero" fill-opacity="1" /><path clip-path="url(#clip560)" d="M108.33 57.8016 Q104.719 57.8016 102.89 61.3664 Q101.084 64.908 101.084 72.0376 Q101.084 79.144 102.89 82.7088 Q104.719 86.2505 108.33 86.2505 Q111.964 86.2505 113.77 82.7088 Q115.598 79.144 115.598 72.0376 Q115.598 64.908 113.77 61.3664 Q111.964 57.8016 108.33 57.8016 M108.33 54.0979 Q114.14 54.0979 117.195 58.7043 Q120.274 63.2876 120.274 72.0376 Q120.274 80.7644 117.195 85.3709 Q114.14 89.9542 108.33 89.9542 Q102.52 89.9542 99.4409 85.3709 Q96.3854 80.7644 96.3854 72.0376 Q96.3854 63.2876 99.4409 58.7043 Q102.52 54.0979 108.33 54.0979 Z" fill="#000000" fill-rule="nonzero" fill-opacity="1" /><polyline clip-path="url(#clip562)" style="stroke:#009af9; stroke-linecap:round; stroke-linejoin:round; stroke-width:4; stroke-opacity:1; fill:none" points="218.439,1397.8 220.513,1349.88 222.587,1190.14 224.661,1301.96 226.736,1078.33 228.81,1142.22 230.884,1365.85 232.958,1270.01 235.033,1206.11 237.107,1222.09 239.181,1285.98 241.255,1206.11 243.329,1413.77 245.404,1222.09 247.478,1094.3 249.552,1397.8 251.626,1174.17 253.701,1317.93 255.775,1254.03 257.849,1254.03 259.923,1206.11 261.998,1349.88 264.072,1222.09 266.146,1349.88 268.22,1285.98 270.294,1206.11 272.369,1190.14 274.443,1110.27 276.517,1126.25 278.591,1445.72 280.666,1333.9 282.74,1270.01 284.814,1285.98 286.888,1301.96 288.962,1174.17 291.037,1222.09 293.111,1285.98 295.185,1222.09 297.259,1317.93 299.334,918.593 301.408,1333.9 303.482,1142.22 305.556,1158.19 307.63,1349.88 309.705,1285.98 311.779,1238.06 313.853,1078.33 315.927,1142.22 318.002,1030.41 320.076,1174.17 322.15,1206.11 324.224,1301.96 326.299,1238.06 328.373,1126.25 330.447,1062.35 332.521,1126.25 334.595,1110.27 336.67,1190.14 338.744,1206.11 340.818,1094.3 342.892,1094.3 344.967,1142.22 347.041,1046.38 349.115,950.54 351.189,1142.22 353.263,1142.22 355.338,1126.25 357.412,1317.93 359.486,1094.3 361.56,1174.17 363.635,1285.98 365.709,1094.3 367.783,1174.17 369.857,1046.38 371.932,1046.38 374.006,1206.11 376.08,1174.17 378.154,982.487 380.228,1014.43 382.303,1190.14 384.377,1158.19 386.451,1046.38 388.525,1046.38 390.6,1142.22 392.674,982.487 394.748,1254.03 396.822,1110.27 398.896,1046.38 400.971,1078.33 403.045,982.487 405.119,1046.38 407.193,1014.43 409.268,1094.3 411.342,1046.38 413.416,1158.19 415.49,1078.33 417.565,1206.11 419.639,1030.41 421.713,1158.19 423.787,1046.38 425.861,1062.35 427.936,1046.38 430.01,1110.27 432.084,1110.27 434.158,1078.33 436.233,998.46 438.307,1014.43 440.381,838.726 442.455,1062.35 444.529,870.673 446.604,998.46 448.678,1078.33 450.752,1094.3 452.826,886.647 454.901,1254.03 456.975,918.593 459.049,918.593 461.123,854.7 463.198,918.593 465.272,1014.43 467.346,966.514 469.42,918.593 471.494,982.487 473.569,998.46 475.643,1062.35 477.717,774.833 479.791,806.779 481.866,934.567 483.94,870.673 486.014,998.46 488.088,1030.41 490.162,1078.33 492.237,806.779 494.311,918.593 496.385,838.726 498.459,886.647 500.534,854.7 502.608,854.7 504.682,854.7 506.756,982.487 508.83,854.7 510.905,854.7 512.979,710.939 515.053,870.673 517.127,1030.41 519.202,519.258 521.276,774.833 523.35,934.567 525.424,966.514 527.499,790.806 529.573,1078.33 531.647,678.992 533.721,838.726 535.795,854.7 537.87,918.593 539.944,870.673 542.018,790.806 544.092,726.912 546.167,806.779 548.241,806.779 550.315,742.886 552.389,758.859 554.463,822.753 556.538,758.859 558.612,710.939 560.686,822.753 562.76,774.833 564.835,678.992 566.909,631.072 568.983,854.7 571.057,742.886 573.132,726.912 575.206,487.311 577.28,663.019 579.354,583.152 581.428,886.647 583.503,742.886 585.577,790.806 587.651,886.647 589.725,806.779 591.8,742.886 593.874,774.833 595.948,822.753 598.022,790.806 600.096,758.859 602.171,822.753 604.245,535.232 606.319,710.939 608.393,758.859 610.468,726.912 612.542,678.992 614.616,774.833 616.69,854.7 618.765,631.072 620.839,647.045 622.913,694.966 624.987,487.311 627.061,647.045 629.136,710.939 631.21,567.178 633.284,694.966 635.358,663.019 637.433,854.7 639.507,583.152 641.581,694.966 643.655,838.726 645.729,694.966 647.804,567.178 649.878,806.779 651.952,599.125 654.026,583.152 656.101,742.886 658.175,631.072 660.249,647.045 662.323,694.966 664.398,742.886 666.472,790.806 668.546,758.859 670.62,583.152 672.694,615.099 674.769,535.232 676.843,583.152 678.917,567.178 680.991,567.178 683.066,535.232 685.14,535.232 687.214,599.125 689.288,710.939 691.362,599.125 693.437,567.178 695.511,519.258 697.585,535.232 699.659,599.125 701.734,567.178 703.808,455.365 705.882,583.152 707.956,535.232 710.03,663.019 712.105,471.338 714.179,471.338 716.253,631.072 718.327,631.072 720.402,678.992 722.476,678.992 724.55,806.779 726.624,774.833 728.699,471.338 730.773,535.232 732.847,599.125 734.921,423.418 736.995,519.258 739.07,694.966 741.144,455.365 743.218,583.152 745.292,615.099 747.367,551.205 749.441,423.418 751.515,519.258 753.589,599.125 755.663,439.391 757.738,599.125 759.812,551.205 761.886,487.311 763.96,519.258 766.035,487.311 768.109,487.311 770.183,455.365 772.257,583.152 774.332,535.232 776.406,567.178 778.48,455.365 780.554,407.444 782.628,535.232 784.703,519.258 786.777,439.391 788.851,471.338 790.925,455.365 793,535.232 795.074,551.205 797.148,615.099 799.222,487.311 801.296,503.285 803.371,471.338 805.445,583.152 807.519,359.524 809.593,471.338 811.668,519.258 813.742,487.311 815.816,391.471 817.89,663.019 819.965,535.232 822.039,439.391 824.113,647.045 826.187,439.391 828.261,487.311 830.336,519.258 832.41,503.285 834.484,439.391 836.558,391.471 838.633,631.072 840.707,455.365 842.781,439.391 844.855,343.551 846.929,423.418 849.004,599.125 851.078,407.444 853.152,407.444 855.226,343.551 857.301,551.205 859.375,423.418 861.449,439.391 863.523,343.551 865.598,311.604 867.672,423.418 869.746,343.551 871.82,487.311 873.894,551.205 875.969,583.152 878.043,455.365 880.117,423.418 882.191,391.471 884.266,423.418 886.34,391.471 888.414,311.604 890.488,439.391 892.562,375.498 894.637,375.498 896.711,375.498 898.785,439.391 900.859,439.391 902.934,359.524 905.008,455.365 907.082,391.471 909.156,471.338 911.23,343.551 913.305,391.471 915.379,359.524 917.453,343.551 919.527,567.178 921.602,359.524 923.676,391.471 925.75,247.71 927.824,295.631 929.899,359.524 931.973,343.551 934.047,631.072 936.121,359.524 938.195,343.551 940.27,471.338 942.344,343.551 944.418,407.444 946.492,343.551 948.567,423.418 950.641,471.338 952.715,471.338 954.789,423.418 956.863,455.365 958.938,391.471 961.012,455.365 963.086,535.232 965.16,471.338 967.235,231.737 969.309,391.471 971.383,519.258 973.457,471.338 975.532,343.551 977.606,311.604 979.68,407.444 981.754,471.338 983.828,439.391 985.903,439.391 987.977,455.365 990.051,471.338 992.125,407.444 994.2,375.498 996.274,455.365 998.348,279.657 1000.42,375.498 1002.5,503.285 1004.57,407.444 1006.64,391.471 1008.72,295.631 1010.79,439.391 1012.87,343.551 1014.94,359.524 1017.02,375.498 1019.09,391.471 1021.16,343.551 1023.24,343.551 1025.31,343.551 1027.39,311.604 1029.46,279.657 1031.54,551.205 1033.61,295.631 1035.68,295.631 1037.76,327.577 1039.83,311.604 1041.91,519.258 1043.98,391.471 1046.06,327.577 1048.13,295.631 1050.2,263.684 1052.28,423.418 1054.35,359.524 1056.43,391.471 1058.5,471.338 1060.57,327.577 1062.65,375.498 1064.72,375.498 1066.8,375.498 1068.87,359.524 1070.95,359.524 1073.02,343.551 1075.09,279.657 1077.17,423.418 1079.24,343.551 1081.32,343.551 1083.39,247.71 1085.47,295.631 1087.54,343.551 1089.61,311.604 1091.69,375.498 1093.76,247.71 1095.84,391.471 1097.91,263.684 1099.99,375.498 1102.06,295.631 1104.13,247.71 1106.21,295.631 1108.28,311.604 1110.36,327.577 1112.43,215.764 1114.5,263.684 1116.58,295.631 1118.65,327.577 1120.73,455.365 1122.8,279.657 1124.88,327.577 1126.95,391.471 1129.02,279.657 1131.1,343.551 1133.17,295.631 1135.25,263.684 1137.32,279.657 1139.4,263.684 1141.47,439.391 1143.54,327.577 1145.62,327.577 1147.69,295.631 1149.77,311.604 1151.84,247.71 1153.92,295.631 1155.99,375.498 1158.06,311.604 1160.14,407.444 1162.21,247.71 1164.29,199.79 1166.36,295.631 1168.43,295.631 1170.51,375.498 1172.58,375.498 1174.66,215.764 1176.73,359.524 1178.81,295.631 1180.88,295.631 1182.95,279.657 1185.03,247.71 1187.1,295.631 1189.18,295.631 1191.25,295.631 1193.33,311.604 1195.4,247.71 1197.47,247.71 1199.55,327.577 1201.62,359.524 1203.7,327.577 1205.77,247.71 1207.84,279.657 1209.92,279.657 1211.99,247.71 1214.07,215.764 1216.14,327.577 1218.22,359.524 1220.29,327.577 1222.36,295.631 1224.44,295.631 1226.51,135.896 1228.59,279.657 1230.66,279.657 1232.74,327.577 1234.81,263.684 1236.88,263.684 1238.96,295.631 1241.03,247.71 1243.11,215.764 1245.18,327.577 1247.26,215.764 1249.33,247.71 1251.4,247.71 1253.48,199.79 1255.55,343.551 1257.63,247.71 1259.7,167.843 1261.77,263.684 1263.85,311.604 1265.92,167.843 1268,247.71 1270.07,279.657 1272.15,263.684 1274.22,295.631 1276.29,311.604 1278.37,311.604 1280.44,327.577 1282.52,391.471 1284.59,279.657 1286.67,295.631 1288.74,247.71 1290.81,215.764 1292.89,215.764 1294.96,279.657 1297.04,183.817 1299.11,199.79 1301.19,327.577 1303.26,279.657 1305.33,279.657 1307.41,327.577 1309.48,295.631 1311.56,279.657 1313.63,327.577 1315.7,295.631 1317.78,135.896 1319.85,247.71 1321.93,359.524 1324,279.657 1326.08,231.737 1328.15,183.817 1330.22,167.843 1332.3,327.577 1334.37,263.684 1336.45,279.657 1338.52,295.631 1340.6,263.684 1342.67,263.684 1344.74,263.684 1346.82,151.87 1348.89,231.737 1350.97,215.764 1353.04,279.657 1355.12,215.764 1357.19,183.817 1359.26,423.418 1361.34,263.684 1363.41,311.604 1365.49,247.71 1367.56,199.79 1369.63,295.631 1371.71,231.737 1373.78,183.817 1375.86,199.79 1377.93,311.604 1380.01,215.764 1382.08,343.551 1384.15,183.817 1386.23,343.551 1388.3,279.657 1390.38,231.737 1392.45,215.764 1394.53,231.737 1396.6,247.71 1398.67,215.764 1400.75,311.604 1402.82,311.604 1404.9,135.896 1406.97,135.896 1409.04,311.604 1411.12,199.79 1413.19,295.631 1415.27,295.631 1417.34,183.817 1419.42,231.737 1421.49,279.657 1423.56,215.764 1425.64,199.79 1427.71,263.684 1429.79,247.71 1431.86,231.737 1433.94,215.764 1436.01,199.79 1438.08,263.684 1440.16,263.684 1442.23,103.95 1444.31,263.684 1446.38,231.737 1448.46,263.684 1450.53,295.631 1452.6,263.684 1454.68,247.71 1456.75,231.737 1458.83,199.79 1460.9,327.577 1462.97,279.657 1465.05,231.737 1467.12,391.471 1469.2,263.684 1471.27,167.843 1473.35,263.684 1475.42,295.631 1477.49,231.737 1479.57,263.684 1481.64,263.684 1483.72,247.71 1485.79,279.657 1487.87,215.764 1489.94,231.737 1492.01,215.764 1494.09,231.737 1496.16,231.737 1498.24,215.764 1500.31,151.87 1502.39,183.817 1504.46,151.87 1506.53,183.817 1508.61,231.737 1510.68,247.71 1512.76,231.737 1514.83,151.87 1516.9,279.657 1518.98,343.551 1521.05,119.923 1523.13,215.764 1525.2,183.817 1527.28,247.71 1529.35,247.71 1531.42,199.79 1533.5,215.764 1535.57,311.604 1537.65,247.71 1539.72,231.737 1541.8,359.524 1543.87,247.71 1545.94,263.684 1548.02,247.71 1550.09,151.87 1552.17,199.79 1554.24,183.817 1556.32,215.764 1558.39,295.631 1560.46,279.657 1562.54,247.71 1564.61,247.71 1566.69,247.71 1568.76,263.684 1570.83,247.71 1572.91,183.817 1574.98,167.843 1577.06,231.737 1579.13,199.79 1581.21,231.737 1583.28,247.71 1585.35,215.764 1587.43,151.87 1589.5,263.684 1591.58,215.764 1593.65,215.764 1595.73,311.604 1597.8,215.764 1599.87,199.79 1601.95,231.737 1604.02,215.764 1606.1,215.764 1608.17,231.737 1610.24,215.764 1612.32,215.764 1614.39,183.817 1616.47,167.843 1618.54,215.764 1620.62,231.737 1622.69,215.764 1624.76,135.896 1626.84,247.71 1628.91,167.843 1630.99,215.764 1633.06,215.764 1635.14,183.817 1637.21,167.843 1639.28,167.843 1641.36,199.79 1643.43,247.71 1645.51,263.684 1647.58,215.764 1649.66,119.923 1651.73,231.737 1653.8,119.923 1655.88,311.604 1657.95,199.79 1660.03,247.71 1662.1,215.764 1664.17,215.764 1666.25,183.817 1668.32,199.79 1670.4,231.737 1672.47,279.657 1674.55,199.79 1676.62,167.843 1678.69,215.764 1680.77,215.764 1682.84,247.71 1684.92,167.843 1686.99,247.71 1689.07,311.604 1691.14,295.631 1693.21,231.737 1695.29,199.79 1697.36,295.631 1699.44,231.737 1701.51,199.79 1703.59,247.71 1705.66,279.657 1707.73,247.71 1709.81,167.843 1711.88,151.87 1713.96,183.817 1716.03,311.604 1718.1,135.896 1720.18,103.95 1722.25,183.817 1724.33,119.923 1726.4,135.896 1728.48,215.764 1730.55,215.764 1732.62,231.737 1734.7,103.95 1736.77,183.817 1738.85,231.737 1740.92,263.684 1743,135.896 1745.07,247.71 1747.14,215.764 1749.22,151.87 1751.29,279.657 1753.37,199.79 1755.44,215.764 1757.52,183.817 1759.59,231.737 1761.66,151.87 1763.74,247.71 1765.81,167.843 1767.89,247.71 1769.96,135.896 1772.03,183.817 1774.11,215.764 1776.18,183.817 1778.26,231.737 1780.33,167.843 1782.41,247.71 1784.48,311.604 1786.55,231.737 1788.63,135.896 1790.7,247.71 1792.78,183.817 1794.85,295.631 1796.93,199.79 1799,151.87 1801.07,231.737 1803.15,215.764 1805.22,199.79 1807.3,263.684 1809.37,167.843 1811.44,247.71 1813.52,215.764 1815.59,215.764 1817.67,151.87 1819.74,135.896 1821.82,167.843 1823.89,231.737 1825.96,263.684 1828.04,183.817 1830.11,215.764 1832.19,167.843 1834.26,199.79 1836.34,151.87 1838.41,199.79 1840.48,231.737 1842.56,263.684 1844.63,151.87 1846.71,231.737 1848.78,215.764 1850.86,183.817 1852.93,183.817 1855,167.843 1857.08,103.95 1859.15,119.923 1861.23,231.737 1863.3,215.764 1865.37,247.71 1867.45,183.817 1869.52,279.657 1871.6,199.79 1873.67,167.843 1875.75,247.71 1877.82,199.79 1879.89,135.896 1881.97,199.79 1884.04,231.737 1886.12,231.737 1888.19,231.737 1890.27,135.896 1892.34,135.896 1894.41,199.79 1896.49,183.817 1898.56,279.657 1900.64,199.79 1902.71,183.817 1904.79,151.87 1906.86,215.764 1908.93,295.631 1911.01,199.79 1913.08,247.71 1915.16,247.71 1917.23,199.79 1919.3,183.817 1921.38,151.87 1923.45,183.817 1925.53,119.923 1927.6,151.87 1929.68,215.764 1931.75,199.79 1933.82,215.764 1935.9,215.764 1937.97,247.71 1940.05,231.737 1942.12,279.657 1944.2,199.79 1946.27,167.843 1948.34,151.87 1950.42,215.764 1952.49,151.87 1954.57,247.71 1956.64,151.87 1958.72,183.817 1960.79,215.764 1962.86,295.631 1964.94,295.631 1967.01,263.684 1969.09,199.79 1971.16,231.737 1973.23,151.87 1975.31,135.896 1977.38,231.737 1979.46,183.817 1981.53,135.896 1983.61,135.896 1985.68,199.79 1987.75,199.79 1989.83,247.71 1991.9,247.71 1993.98,199.79 1996.05,167.843 1998.13,167.843 2000.2,135.896 2002.27,231.737 2004.35,279.657 2006.42,151.87 2008.5,247.71 2010.57,263.684 2012.64,183.817 2014.72,151.87 2016.79,247.71 2018.87,167.843 2020.94,247.71 2023.02,167.843 2025.09,279.657 2027.16,231.737 2029.24,135.896 2031.31,199.79 2033.39,231.737 2035.46,167.843 2037.54,199.79 2039.61,167.843 2041.68,215.764 2043.76,183.817 2045.83,215.764 2047.91,199.79 2049.98,247.71 2052.06,231.737 2054.13,199.79 2056.2,199.79 2058.28,183.817 2060.35,151.87 2062.43,119.923 2064.5,135.896 2066.57,135.896 2068.65,103.95 2070.72,295.631 2072.8,263.684 2074.87,183.817 2076.95,215.764 2079.02,167.843 2081.09,119.923 2083.17,119.923 2085.24,199.79 2087.32,135.896 2089.39,119.923 2091.47,199.79 2093.54,167.843 2095.61,295.631 2097.69,215.764 2099.76,135.896 2101.84,199.79 2103.91,183.817 2105.99,103.95 2108.06,103.95 2110.13,103.95 2112.21,231.737 2114.28,183.817 2116.36,183.817 2118.43,199.79 2120.5,167.843 2122.58,167.843 2124.65,135.896 2126.73,183.817 2128.8,167.843 2130.88,167.843 2132.95,167.843 2135.02,183.817 2137.1,183.817 2139.17,151.87 2141.25,199.79 2143.32,167.843 2145.4,151.87 2147.47,151.87 2149.54,119.923 2151.62,199.79 2153.69,167.843 2155.77,167.843 2157.84,119.923 2159.92,87.9763 2161.99,215.764 2164.06,167.843 2166.14,151.87 2168.21,167.843 2170.29,167.843 2172.36,87.9763 2174.43,151.87 2176.51,167.843 2178.58,215.764 2180.66,231.737 2182.73,199.79 2184.81,135.896 2186.88,183.817 2188.95,199.79 2191.03,215.764 2193.1,199.79 2195.18,167.843 2197.25,199.79 2199.33,183.817 2201.4,135.896 2203.47,199.79 2205.55,263.684 2207.62,247.71 2209.7,151.87 2211.77,87.9763 2213.84,135.896 2215.92,119.923 2217.99,167.843 2220.07,199.79 2222.14,215.764 2224.22,183.817 2226.29,151.87 2228.36,151.87 2230.44,87.9763 2232.51,231.737 2234.59,135.896 2236.66,199.79 2238.74,151.87 2240.81,87.9763 2242.88,151.87 2244.96,151.87 2247.03,151.87 2249.11,167.843 2251.18,167.843 2253.26,183.817 2255.33,295.631 2257.4,199.79 2259.48,215.764 2261.55,167.843 2263.63,119.923 2265.7,263.684 2267.77,151.87 2269.85,183.817 2271.92,151.87 2274,247.71 2276.07,151.87 2278.15,119.923 2280.22,151.87 2282.29,151.87 2284.37,183.817 2286.44,231.737 2288.52,183.817 2290.59,215.764 "/>
<path clip-path="url(#clip560)" d="M229.49 198.898 L501.569 198.898 L501.569 95.2176 L229.49 95.2176  Z" fill="#ffffff" fill-rule="evenodd" fill-opacity="1"/>
<polyline clip-path="url(#clip560)" style="stroke:#000000; stroke-linecap:round; stroke-linejoin:round; stroke-width:4; stroke-opacity:1; fill:none" points="229.49,198.898 501.569,198.898 501.569,95.2176 229.49,95.2176 229.49,198.898 "/>
<polyline clip-path="url(#clip560)" style="stroke:#009af9; stroke-linecap:round; stroke-linejoin:round; stroke-width:4; stroke-opacity:1; fill:none" points="253.896,147.058 400.328,147.058 "/>
<path clip-path="url(#clip560)" d="M438.576 166.745 Q436.77 171.375 435.057 172.787 Q433.344 174.199 430.474 174.199 L427.071 174.199 L427.071 170.634 L429.571 170.634 Q431.33 170.634 432.302 169.8 Q433.275 168.967 434.455 165.865 L435.219 163.921 L424.733 138.412 L429.247 138.412 L437.349 158.689 L445.451 138.412 L449.964 138.412 L438.576 166.745 Z" fill="#000000" fill-rule="nonzero" fill-opacity="1" /><path clip-path="url(#clip560)" d="M457.256 160.402 L464.895 160.402 L464.895 134.037 L456.585 135.703 L456.585 131.444 L464.849 129.778 L469.524 129.778 L469.524 160.402 L477.163 160.402 L477.163 164.338 L457.256 164.338 L457.256 160.402 Z" fill="#000000" fill-rule="nonzero" fill-opacity="1" /></svg>
