<?xml version="1.0" encoding="utf-8"?>
<svg xmlns="http://www.w3.org/2000/svg" xmlns:xlink="http://www.w3.org/1999/xlink" width="600" height="400" viewBox="0 0 2400 1600">
<defs>
  <clipPath id="clip090">
    <rect x="0" y="0" width="2400" height="1600"/>
  </clipPath>
</defs>
<path clip-path="url(#clip090)" d="M0 1600 L2400 1600 L2400 0 L0 0  Z" fill="#ffffff" fill-rule="evenodd" fill-opacity="1"/>
<defs>
  <clipPath id="clip091">
    <rect x="480" y="0" width="1681" height="1600"/>
  </clipPath>
</defs>
<path clip-path="url(#clip090)" d="M209.029 1486.45 L2352.76 1486.45 L2352.76 47.2441 L209.029 47.2441  Z" fill="#ffffff" fill-rule="evenodd" fill-opacity="1"/>
<defs>
  <clipPath id="clip092">
    <rect x="209" y="47" width="2145" height="1440"/>
  </clipPath>
</defs>
<polyline clip-path="url(#clip092)" style="stroke:#000000; stroke-linecap:round; stroke-linejoin:round; stroke-width:2; stroke-opacity:0.1; fill:none" points="269.7,1486.45 269.7,47.2441 "/>
<polyline clip-path="url(#clip092)" style="stroke:#000000; stroke-linecap:round; stroke-linejoin:round; stroke-width:2; stroke-opacity:0.1; fill:none" points="775.549,1486.45 775.549,47.2441 "/>
<polyline clip-path="url(#clip092)" style="stroke:#000000; stroke-linecap:round; stroke-linejoin:round; stroke-width:2; stroke-opacity:0.1; fill:none" points="1281.4,1486.45 1281.4,47.2441 "/>
<polyline clip-path="url(#clip092)" style="stroke:#000000; stroke-linecap:round; stroke-linejoin:round; stroke-width:2; stroke-opacity:0.1; fill:none" points="1787.25,1486.45 1787.25,47.2441 "/>
<polyline clip-path="url(#clip092)" style="stroke:#000000; stroke-linecap:round; stroke-linejoin:round; stroke-width:2; stroke-opacity:0.1; fill:none" points="2293.1,1486.45 2293.1,47.2441 "/>
<polyline clip-path="url(#clip090)" style="stroke:#000000; stroke-linecap:round; stroke-linejoin:round; stroke-width:4; stroke-opacity:1; fill:none" points="209.029,1486.45 2352.76,1486.45 "/>
<polyline clip-path="url(#clip090)" style="stroke:#000000; stroke-linecap:round; stroke-linejoin:round; stroke-width:4; stroke-opacity:1; fill:none" points="269.7,1486.45 269.7,1467.55 "/>
<polyline clip-path="url(#clip090)" style="stroke:#000000; stroke-linecap:round; stroke-linejoin:round; stroke-width:4; stroke-opacity:1; fill:none" points="775.549,1486.45 775.549,1467.55 "/>
<polyline clip-path="url(#clip090)" style="stroke:#000000; stroke-linecap:round; stroke-linejoin:round; stroke-width:4; stroke-opacity:1; fill:none" points="1281.4,1486.45 1281.4,1467.55 "/>
<polyline clip-path="url(#clip090)" style="stroke:#000000; stroke-linecap:round; stroke-linejoin:round; stroke-width:4; stroke-opacity:1; fill:none" points="1787.25,1486.45 1787.25,1467.55 "/>
<polyline clip-path="url(#clip090)" style="stroke:#000000; stroke-linecap:round; stroke-linejoin:round; stroke-width:4; stroke-opacity:1; fill:none" points="2293.1,1486.45 2293.1,1467.55 "/>
<path clip-path="url(#clip090)" d="M269.7 1517.37 Q266.089 1517.37 264.26 1520.93 Q262.455 1524.47 262.455 1531.6 Q262.455 1538.71 264.26 1542.27 Q266.089 1545.82 269.7 1545.82 Q273.334 1545.82 275.14 1542.27 Q276.969 1538.71 276.969 1531.6 Q276.969 1524.47 275.14 1520.93 Q273.334 1517.37 269.7 1517.37 M269.7 1513.66 Q275.51 1513.66 278.566 1518.27 Q281.644 1522.85 281.644 1531.6 Q281.644 1540.33 278.566 1544.94 Q275.51 1549.52 269.7 1549.52 Q263.89 1549.52 260.811 1544.94 Q257.756 1540.33 257.756 1531.6 Q257.756 1522.85 260.811 1518.27 Q263.89 1513.66 269.7 1513.66 Z" fill="#000000" fill-rule="nonzero" fill-opacity="1" /><path clip-path="url(#clip090)" d="M735.167 1514.29 L753.524 1514.29 L753.524 1518.22 L739.45 1518.22 L739.45 1526.7 Q740.468 1526.35 741.487 1526.19 Q742.505 1526 743.524 1526 Q749.311 1526 752.69 1529.17 Q756.07 1532.34 756.07 1537.76 Q756.07 1543.34 752.598 1546.44 Q749.126 1549.52 742.806 1549.52 Q740.63 1549.52 738.362 1549.15 Q736.116 1548.78 733.709 1548.04 L733.709 1543.34 Q735.792 1544.47 738.015 1545.03 Q740.237 1545.58 742.714 1545.58 Q746.718 1545.58 749.056 1543.48 Q751.394 1541.37 751.394 1537.76 Q751.394 1534.15 749.056 1532.04 Q746.718 1529.94 742.714 1529.94 Q740.839 1529.94 738.964 1530.35 Q737.112 1530.77 735.167 1531.65 L735.167 1514.29 Z" fill="#000000" fill-rule="nonzero" fill-opacity="1" /><path clip-path="url(#clip090)" d="M775.283 1517.37 Q771.672 1517.37 769.843 1520.93 Q768.038 1524.47 768.038 1531.6 Q768.038 1538.71 769.843 1542.27 Q771.672 1545.82 775.283 1545.82 Q778.917 1545.82 780.723 1542.27 Q782.551 1538.71 782.551 1531.6 Q782.551 1524.47 780.723 1520.93 Q778.917 1517.37 775.283 1517.37 M775.283 1513.66 Q781.093 1513.66 784.149 1518.27 Q787.227 1522.85 787.227 1531.6 Q787.227 1540.33 784.149 1544.94 Q781.093 1549.52 775.283 1549.52 Q769.473 1549.52 766.394 1544.94 Q763.338 1540.33 763.338 1531.6 Q763.338 1522.85 766.394 1518.27 Q769.473 1513.66 775.283 1513.66 Z" fill="#000000" fill-rule="nonzero" fill-opacity="1" /><path clip-path="url(#clip090)" d="M805.445 1517.37 Q801.834 1517.37 800.005 1520.93 Q798.199 1524.47 798.199 1531.6 Q798.199 1538.71 800.005 1542.27 Q801.834 1545.82 805.445 1545.82 Q809.079 1545.82 810.885 1542.27 Q812.713 1538.71 812.713 1531.6 Q812.713 1524.47 810.885 1520.93 Q809.079 1517.37 805.445 1517.37 M805.445 1513.66 Q811.255 1513.66 814.31 1518.27 Q817.389 1522.85 817.389 1531.6 Q817.389 1540.33 814.31 1544.94 Q811.255 1549.52 805.445 1549.52 Q799.635 1549.52 796.556 1544.94 Q793.5 1540.33 793.5 1531.6 Q793.5 1522.85 796.556 1518.27 Q799.635 1513.66 805.445 1513.66 Z" fill="#000000" fill-rule="nonzero" fill-opacity="1" /><path clip-path="url(#clip090)" d="M1225.92 1544.91 L1233.56 1544.91 L1233.56 1518.55 L1225.25 1520.21 L1225.25 1515.95 L1233.52 1514.29 L1238.19 1514.29 L1238.19 1544.91 L1245.83 1544.91 L1245.83 1548.85 L1225.92 1548.85 L1225.92 1544.91 Z" fill="#000000" fill-rule="nonzero" fill-opacity="1" /><path clip-path="url(#clip090)" d="M1265.28 1517.37 Q1261.66 1517.37 1259.84 1520.93 Q1258.03 1524.47 1258.03 1531.6 Q1258.03 1538.71 1259.84 1542.27 Q1261.66 1545.82 1265.28 1545.82 Q1268.91 1545.82 1270.72 1542.27 Q1272.54 1538.71 1272.54 1531.6 Q1272.54 1524.47 1270.72 1520.93 Q1268.91 1517.37 1265.28 1517.37 M1265.28 1513.66 Q1271.09 1513.66 1274.14 1518.27 Q1277.22 1522.85 1277.22 1531.6 Q1277.22 1540.33 1274.14 1544.94 Q1271.09 1549.52 1265.28 1549.52 Q1259.47 1549.52 1256.39 1544.94 Q1253.33 1540.33 1253.33 1531.6 Q1253.33 1522.85 1256.39 1518.27 Q1259.47 1513.66 1265.28 1513.66 Z" fill="#000000" fill-rule="nonzero" fill-opacity="1" /><path clip-path="url(#clip090)" d="M1295.44 1517.37 Q1291.83 1517.37 1290 1520.93 Q1288.19 1524.47 1288.19 1531.6 Q1288.19 1538.71 1290 1542.27 Q1291.83 1545.82 1295.44 1545.82 Q1299.07 1545.82 1300.88 1542.27 Q1302.71 1538.71 1302.71 1531.6 Q1302.71 1524.47 1300.88 1520.93 Q1299.07 1517.37 1295.44 1517.37 M1295.44 1513.66 Q1301.25 1513.66 1304.3 1518.27 Q1307.38 1522.85 1307.38 1531.6 Q1307.38 1540.33 1304.3 1544.94 Q1301.25 1549.52 1295.44 1549.52 Q1289.63 1549.52 1286.55 1544.94 Q1283.49 1540.33 1283.49 1531.6 Q1283.49 1522.85 1286.55 1518.27 Q1289.63 1513.66 1295.44 1513.66 Z" fill="#000000" fill-rule="nonzero" fill-opacity="1" /><path clip-path="url(#clip090)" d="M1325.6 1517.37 Q1321.99 1517.37 1320.16 1520.93 Q1318.35 1524.47 1318.35 1531.6 Q1318.35 1538.71 1320.16 1542.27 Q1321.99 1545.82 1325.6 1545.82 Q1329.23 1545.82 1331.04 1542.27 Q1332.87 1538.71 1332.87 1531.6 Q1332.87 1524.47 1331.04 1520.93 Q1329.23 1517.37 1325.6 1517.37 M1325.6 1513.66 Q1331.41 1513.66 1334.46 1518.27 Q1337.54 1522.85 1337.54 1531.6 Q1337.54 1540.33 1334.46 1544.94 Q1331.41 1549.52 1325.6 1549.52 Q1319.79 1549.52 1316.71 1544.94 Q1313.65 1540.33 1313.65 1531.6 Q1313.65 1522.85 1316.71 1518.27 Q1319.79 1513.66 1325.6 1513.66 Z" fill="#000000" fill-rule="nonzero" fill-opacity="1" /><path clip-path="url(#clip090)" d="M1731.77 1544.91 L1739.41 1544.91 L1739.41 1518.55 L1731.1 1520.21 L1731.1 1515.95 L1739.37 1514.29 L1744.04 1514.29 L1744.04 1544.91 L1751.68 1544.91 L1751.68 1548.85 L1731.77 1548.85 L1731.77 1544.91 Z" fill="#000000" fill-rule="nonzero" fill-opacity="1" /><path clip-path="url(#clip090)" d="M1761.17 1514.29 L1779.53 1514.29 L1779.53 1518.22 L1765.45 1518.22 L1765.45 1526.7 Q1766.47 1526.35 1767.49 1526.19 Q1768.51 1526 1769.53 1526 Q1775.31 1526 1778.69 1529.17 Q1782.07 1532.34 1782.07 1537.76 Q1782.07 1543.34 1778.6 1546.44 Q1775.13 1549.52 1768.81 1549.52 Q1766.63 1549.52 1764.37 1549.15 Q1762.12 1548.78 1759.71 1548.04 L1759.71 1543.34 Q1761.8 1544.47 1764.02 1545.03 Q1766.24 1545.58 1768.72 1545.58 Q1772.72 1545.58 1775.06 1543.48 Q1777.4 1541.37 1777.4 1537.76 Q1777.4 1534.15 1775.06 1532.04 Q1772.72 1529.94 1768.72 1529.94 Q1766.84 1529.94 1764.97 1530.35 Q1763.12 1530.77 1761.17 1531.65 L1761.17 1514.29 Z" fill="#000000" fill-rule="nonzero" fill-opacity="1" /><path clip-path="url(#clip090)" d="M1801.29 1517.37 Q1797.68 1517.37 1795.85 1520.93 Q1794.04 1524.47 1794.04 1531.6 Q1794.04 1538.71 1795.85 1542.27 Q1797.68 1545.82 1801.29 1545.82 Q1804.92 1545.82 1806.73 1542.27 Q1808.55 1538.71 1808.55 1531.6 Q1808.55 1524.47 1806.73 1520.93 Q1804.92 1517.37 1801.29 1517.37 M1801.29 1513.66 Q1807.1 1513.66 1810.15 1518.27 Q1813.23 1522.85 1813.23 1531.6 Q1813.23 1540.33 1810.15 1544.94 Q1807.1 1549.52 1801.29 1549.52 Q1795.48 1549.52 1792.4 1544.94 Q1789.34 1540.33 1789.34 1531.6 Q1789.34 1522.85 1792.4 1518.27 Q1795.48 1513.66 1801.29 1513.66 Z" fill="#000000" fill-rule="nonzero" fill-opacity="1" /><path clip-path="url(#clip090)" d="M1831.45 1517.37 Q1827.84 1517.37 1826.01 1520.93 Q1824.2 1524.47 1824.2 1531.6 Q1824.2 1538.71 1826.01 1542.27 Q1827.84 1545.82 1831.45 1545.82 Q1835.08 1545.82 1836.89 1542.27 Q1838.72 1538.71 1838.72 1531.6 Q1838.72 1524.47 1836.89 1520.93 Q1835.08 1517.37 1831.45 1517.37 M1831.45 1513.66 Q1837.26 1513.66 1840.31 1518.27 Q1843.39 1522.85 1843.39 1531.6 Q1843.39 1540.33 1840.31 1544.94 Q1837.26 1549.52 1831.45 1549.52 Q1825.64 1549.52 1822.56 1544.94 Q1819.5 1540.33 1819.5 1531.6 Q1819.5 1522.85 1822.56 1518.27 Q1825.64 1513.66 1831.45 1513.66 Z" fill="#000000" fill-rule="nonzero" fill-opacity="1" /><path clip-path="url(#clip090)" d="M2241.71 1544.91 L2258.03 1544.91 L2258.03 1548.85 L2236.08 1548.85 L2236.08 1544.91 Q2238.74 1542.16 2243.33 1537.53 Q2247.93 1532.88 2249.11 1531.53 Q2251.36 1529.01 2252.24 1527.27 Q2253.14 1525.51 2253.14 1523.82 Q2253.14 1521.07 2251.2 1519.33 Q2249.28 1517.6 2246.18 1517.6 Q2243.98 1517.6 2241.52 1518.36 Q2239.09 1519.13 2236.31 1520.68 L2236.31 1515.95 Q2239.14 1514.82 2241.59 1514.24 Q2244.05 1513.66 2246.08 1513.66 Q2251.45 1513.66 2254.65 1516.35 Q2257.84 1519.03 2257.84 1523.52 Q2257.84 1525.65 2257.03 1527.57 Q2256.24 1529.47 2254.14 1532.07 Q2253.56 1532.74 2250.46 1535.95 Q2247.36 1539.15 2241.71 1544.91 Z" fill="#000000" fill-rule="nonzero" fill-opacity="1" /><path clip-path="url(#clip090)" d="M2277.84 1517.37 Q2274.23 1517.37 2272.4 1520.93 Q2270.6 1524.47 2270.6 1531.6 Q2270.6 1538.71 2272.4 1542.27 Q2274.23 1545.82 2277.84 1545.82 Q2281.48 1545.82 2283.28 1542.27 Q2285.11 1538.71 2285.11 1531.6 Q2285.11 1524.47 2283.28 1520.93 Q2281.48 1517.37 2277.84 1517.37 M2277.84 1513.66 Q2283.65 1513.66 2286.71 1518.27 Q2289.79 1522.85 2289.79 1531.6 Q2289.79 1540.33 2286.71 1544.94 Q2283.65 1549.52 2277.84 1549.52 Q2272.03 1549.52 2268.95 1544.94 Q2265.9 1540.33 2265.9 1531.6 Q2265.9 1522.85 2268.95 1518.27 Q2272.03 1513.66 2277.84 1513.66 Z" fill="#000000" fill-rule="nonzero" fill-opacity="1" /><path clip-path="url(#clip090)" d="M2308 1517.37 Q2304.39 1517.37 2302.56 1520.93 Q2300.76 1524.47 2300.76 1531.6 Q2300.76 1538.71 2302.56 1542.27 Q2304.39 1545.82 2308 1545.82 Q2311.64 1545.82 2313.44 1542.27 Q2315.27 1538.71 2315.27 1531.6 Q2315.27 1524.47 2313.44 1520.93 Q2311.64 1517.37 2308 1517.37 M2308 1513.66 Q2313.81 1513.66 2316.87 1518.27 Q2319.95 1522.85 2319.95 1531.6 Q2319.95 1540.33 2316.87 1544.94 Q2313.81 1549.52 2308 1549.52 Q2302.19 1549.52 2299.11 1544.94 Q2296.06 1540.33 2296.06 1531.6 Q2296.06 1522.85 2299.11 1518.27 Q2302.19 1513.66 2308 1513.66 Z" fill="#000000" fill-rule="nonzero" fill-opacity="1" /><path clip-path="url(#clip090)" d="M2338.17 1517.37 Q2334.55 1517.37 2332.73 1520.93 Q2330.92 1524.47 2330.92 1531.6 Q2330.92 1538.71 2332.73 1542.27 Q2334.55 1545.82 2338.17 1545.82 Q2341.8 1545.82 2343.61 1542.27 Q2345.43 1538.71 2345.43 1531.6 Q2345.43 1524.47 2343.61 1520.93 Q2341.8 1517.37 2338.17 1517.37 M2338.17 1513.66 Q2343.98 1513.66 2347.03 1518.27 Q2350.11 1522.85 2350.11 1531.6 Q2350.11 1540.33 2347.03 1544.94 Q2343.98 1549.52 2338.17 1549.52 Q2332.36 1549.52 2329.28 1544.94 Q2326.22 1540.33 2326.22 1531.6 Q2326.22 1522.85 2329.28 1518.27 Q2332.36 1513.66 2338.17 1513.66 Z" fill="#000000" fill-rule="nonzero" fill-opacity="1" /><polyline clip-path="url(#clip092)" style="stroke:#000000; stroke-linecap:round; stroke-linejoin:round; stroke-width:2; stroke-opacity:0.1; fill:none" points="209.029,1326.71 2352.76,1326.71 "/>
<polyline clip-path="url(#clip092)" style="stroke:#000000; stroke-linecap:round; stroke-linejoin:round; stroke-width:2; stroke-opacity:0.1; fill:none" points="209.029,1048.03 2352.76,1048.03 "/>
<polyline clip-path="url(#clip092)" style="stroke:#000000; stroke-linecap:round; stroke-linejoin:round; stroke-width:2; stroke-opacity:0.1; fill:none" points="209.029,769.362 2352.76,769.362 "/>
<polyline clip-path="url(#clip092)" style="stroke:#000000; stroke-linecap:round; stroke-linejoin:round; stroke-width:2; stroke-opacity:0.1; fill:none" points="209.029,490.689 2352.76,490.689 "/>
<polyline clip-path="url(#clip092)" style="stroke:#000000; stroke-linecap:round; stroke-linejoin:round; stroke-width:2; stroke-opacity:0.1; fill:none" points="209.029,212.017 2352.76,212.017 "/>
<polyline clip-path="url(#clip090)" style="stroke:#000000; stroke-linecap:round; stroke-linejoin:round; stroke-width:4; stroke-opacity:1; fill:none" points="209.029,1486.45 209.029,47.2441 "/>
<polyline clip-path="url(#clip090)" style="stroke:#000000; stroke-linecap:round; stroke-linejoin:round; stroke-width:4; stroke-opacity:1; fill:none" points="209.029,1326.71 227.926,1326.71 "/>
<polyline clip-path="url(#clip090)" style="stroke:#000000; stroke-linecap:round; stroke-linejoin:round; stroke-width:4; stroke-opacity:1; fill:none" points="209.029,1048.03 227.926,1048.03 "/>
<polyline clip-path="url(#clip090)" style="stroke:#000000; stroke-linecap:round; stroke-linejoin:round; stroke-width:4; stroke-opacity:1; fill:none" points="209.029,769.362 227.926,769.362 "/>
<polyline clip-path="url(#clip090)" style="stroke:#000000; stroke-linecap:round; stroke-linejoin:round; stroke-width:4; stroke-opacity:1; fill:none" points="209.029,490.689 227.926,490.689 "/>
<polyline clip-path="url(#clip090)" style="stroke:#000000; stroke-linecap:round; stroke-linejoin:round; stroke-width:4; stroke-opacity:1; fill:none" points="209.029,212.017 227.926,212.017 "/>
<path clip-path="url(#clip090)" d="M51.9875 1327.16 L81.6633 1327.16 L81.6633 1331.09 L51.9875 1331.09 L51.9875 1327.16 Z" fill="#000000" fill-rule="nonzero" fill-opacity="1" /><path clip-path="url(#clip090)" d="M95.7836 1340.05 L112.103 1340.05 L112.103 1343.99 L90.1586 1343.99 L90.1586 1340.05 Q92.8206 1337.3 97.4039 1332.67 Q102.01 1328.01 103.191 1326.67 Q105.436 1324.15 106.316 1322.41 Q107.219 1320.65 107.219 1318.96 Q107.219 1316.21 105.274 1314.47 Q103.353 1312.74 100.251 1312.74 Q98.0521 1312.74 95.5984 1313.5 Q93.1678 1314.26 90.3901 1315.82 L90.3901 1311.09 Q93.2141 1309.96 95.6678 1309.38 Q98.1215 1308.8 100.159 1308.8 Q105.529 1308.8 108.723 1311.49 Q111.918 1314.17 111.918 1318.66 Q111.918 1320.79 111.108 1322.71 Q110.321 1324.61 108.214 1327.2 Q107.635 1327.88 104.534 1331.09 Q101.432 1334.29 95.7836 1340.05 Z" fill="#000000" fill-rule="nonzero" fill-opacity="1" /><path clip-path="url(#clip090)" d="M125.945 1340.05 L142.265 1340.05 L142.265 1343.99 L120.32 1343.99 L120.32 1340.05 Q122.982 1337.3 127.566 1332.67 Q132.172 1328.01 133.353 1326.67 Q135.598 1324.15 136.478 1322.41 Q137.381 1320.65 137.381 1318.96 Q137.381 1316.21 135.436 1314.47 Q133.515 1312.74 130.413 1312.74 Q128.214 1312.74 125.76 1313.5 Q123.33 1314.26 120.552 1315.82 L120.552 1311.09 Q123.376 1309.96 125.83 1309.38 Q128.283 1308.8 130.32 1308.8 Q135.691 1308.8 138.885 1311.49 Q142.08 1314.17 142.08 1318.66 Q142.08 1320.79 141.269 1322.71 Q140.482 1324.61 138.376 1327.2 Q137.797 1327.88 134.695 1331.09 Q131.594 1334.29 125.945 1340.05 Z" fill="#000000" fill-rule="nonzero" fill-opacity="1" /><path clip-path="url(#clip090)" d="M152.126 1309.43 L170.482 1309.43 L170.482 1313.36 L156.408 1313.36 L156.408 1321.83 Q157.427 1321.49 158.445 1321.32 Q159.464 1321.14 160.482 1321.14 Q166.269 1321.14 169.649 1324.31 Q173.029 1327.48 173.029 1332.9 Q173.029 1338.48 169.556 1341.58 Q166.084 1344.66 159.765 1344.66 Q157.589 1344.66 155.32 1344.29 Q153.075 1343.92 150.668 1343.18 L150.668 1338.48 Q152.751 1339.61 154.973 1340.17 Q157.195 1340.72 159.672 1340.72 Q163.677 1340.72 166.015 1338.62 Q168.353 1336.51 168.353 1332.9 Q168.353 1329.29 166.015 1327.18 Q163.677 1325.07 159.672 1325.07 Q157.797 1325.07 155.922 1325.49 Q154.07 1325.91 152.126 1326.79 L152.126 1309.43 Z" fill="#000000" fill-rule="nonzero" fill-opacity="1" /><path clip-path="url(#clip090)" d="M50.9921 1048.49 L80.6679 1048.49 L80.6679 1052.42 L50.9921 1052.42 L50.9921 1048.49 Z" fill="#000000" fill-rule="nonzero" fill-opacity="1" /><path clip-path="url(#clip090)" d="M94.7882 1061.38 L111.108 1061.38 L111.108 1065.31 L89.1632 1065.31 L89.1632 1061.38 Q91.8252 1058.62 96.4085 1053.99 Q101.015 1049.34 102.196 1048 Q104.441 1045.48 105.321 1043.74 Q106.223 1041.98 106.223 1040.29 Q106.223 1037.54 104.279 1035.8 Q102.358 1034.06 99.2558 1034.06 Q97.0567 1034.06 94.603 1034.83 Q92.1725 1035.59 89.3947 1037.14 L89.3947 1032.42 Q92.2188 1031.29 94.6724 1030.71 Q97.1261 1030.13 99.1632 1030.13 Q104.534 1030.13 107.728 1032.81 Q110.922 1035.5 110.922 1039.99 Q110.922 1042.12 110.112 1044.04 Q109.325 1045.94 107.219 1048.53 Q106.64 1049.2 103.538 1052.42 Q100.436 1055.62 94.7882 1061.38 Z" fill="#000000" fill-rule="nonzero" fill-opacity="1" /><path clip-path="url(#clip090)" d="M130.922 1033.83 Q127.311 1033.83 125.482 1037.4 Q123.677 1040.94 123.677 1048.07 Q123.677 1055.18 125.482 1058.74 Q127.311 1062.28 130.922 1062.28 Q134.556 1062.28 136.362 1058.74 Q138.191 1055.18 138.191 1048.07 Q138.191 1040.94 136.362 1037.4 Q134.556 1033.83 130.922 1033.83 M130.922 1030.13 Q136.732 1030.13 139.788 1034.74 Q142.867 1039.32 142.867 1048.07 Q142.867 1056.8 139.788 1061.4 Q136.732 1065.99 130.922 1065.99 Q125.112 1065.99 122.033 1061.4 Q118.978 1056.8 118.978 1048.07 Q118.978 1039.32 122.033 1034.74 Q125.112 1030.13 130.922 1030.13 Z" fill="#000000" fill-rule="nonzero" fill-opacity="1" /><path clip-path="url(#clip090)" d="M161.084 1033.83 Q157.473 1033.83 155.644 1037.4 Q153.839 1040.94 153.839 1048.07 Q153.839 1055.18 155.644 1058.74 Q157.473 1062.28 161.084 1062.28 Q164.718 1062.28 166.524 1058.74 Q168.353 1055.18 168.353 1048.07 Q168.353 1040.94 166.524 1037.4 Q164.718 1033.83 161.084 1033.83 M161.084 1030.13 Q166.894 1030.13 169.95 1034.74 Q173.029 1039.32 173.029 1048.07 Q173.029 1056.8 169.95 1061.4 Q166.894 1065.99 161.084 1065.99 Q155.274 1065.99 152.195 1061.4 Q149.14 1056.8 149.14 1048.07 Q149.14 1039.32 152.195 1034.74 Q155.274 1030.13 161.084 1030.13 Z" fill="#000000" fill-rule="nonzero" fill-opacity="1" /><path clip-path="url(#clip090)" d="M51.9875 769.813 L81.6633 769.813 L81.6633 773.748 L51.9875 773.748 L51.9875 769.813 Z" fill="#000000" fill-rule="nonzero" fill-opacity="1" /><path clip-path="url(#clip090)" d="M92.566 782.706 L100.205 782.706 L100.205 756.341 L91.8947 758.007 L91.8947 753.748 L100.159 752.082 L104.834 752.082 L104.834 782.706 L112.473 782.706 L112.473 786.642 L92.566 786.642 L92.566 782.706 Z" fill="#000000" fill-rule="nonzero" fill-opacity="1" /><path clip-path="url(#clip090)" d="M120.737 752.082 L142.959 752.082 L142.959 754.072 L130.413 786.642 L125.529 786.642 L137.334 756.017 L120.737 756.017 L120.737 752.082 Z" fill="#000000" fill-rule="nonzero" fill-opacity="1" /><path clip-path="url(#clip090)" d="M152.126 752.082 L170.482 752.082 L170.482 756.017 L156.408 756.017 L156.408 764.489 Q157.427 764.142 158.445 763.98 Q159.464 763.794 160.482 763.794 Q166.269 763.794 169.649 766.966 Q173.029 770.137 173.029 775.554 Q173.029 781.132 169.556 784.234 Q166.084 787.313 159.765 787.313 Q157.589 787.313 155.32 786.942 Q153.075 786.572 150.668 785.831 L150.668 781.132 Q152.751 782.267 154.973 782.822 Q157.195 783.378 159.672 783.378 Q163.677 783.378 166.015 781.271 Q168.353 779.165 168.353 775.554 Q168.353 771.943 166.015 769.836 Q163.677 767.73 159.672 767.73 Q157.797 767.73 155.922 768.146 Q154.07 768.563 152.126 769.443 L152.126 752.082 Z" fill="#000000" fill-rule="nonzero" fill-opacity="1" /><path clip-path="url(#clip090)" d="M50.9921 491.14 L80.6679 491.14 L80.6679 495.076 L50.9921 495.076 L50.9921 491.14 Z" fill="#000000" fill-rule="nonzero" fill-opacity="1" /><path clip-path="url(#clip090)" d="M91.5706 504.034 L99.2095 504.034 L99.2095 477.668 L90.8993 479.335 L90.8993 475.076 L99.1632 473.409 L103.839 473.409 L103.839 504.034 L111.478 504.034 L111.478 507.969 L91.5706 507.969 L91.5706 504.034 Z" fill="#000000" fill-rule="nonzero" fill-opacity="1" /><path clip-path="url(#clip090)" d="M120.969 473.409 L139.325 473.409 L139.325 477.344 L125.251 477.344 L125.251 485.816 Q126.27 485.469 127.288 485.307 Q128.307 485.122 129.325 485.122 Q135.112 485.122 138.492 488.293 Q141.871 491.465 141.871 496.881 Q141.871 502.46 138.399 505.562 Q134.927 508.64 128.607 508.64 Q126.432 508.64 124.163 508.27 Q121.918 507.9 119.51 507.159 L119.51 502.46 Q121.594 503.594 123.816 504.15 Q126.038 504.705 128.515 504.705 Q132.519 504.705 134.857 502.599 Q137.195 500.492 137.195 496.881 Q137.195 493.27 134.857 491.164 Q132.519 489.057 128.515 489.057 Q126.64 489.057 124.765 489.474 Q122.913 489.89 120.969 490.77 L120.969 473.409 Z" fill="#000000" fill-rule="nonzero" fill-opacity="1" /><path clip-path="url(#clip090)" d="M161.084 476.488 Q157.473 476.488 155.644 480.053 Q153.839 483.594 153.839 490.724 Q153.839 497.83 155.644 501.395 Q157.473 504.937 161.084 504.937 Q164.718 504.937 166.524 501.395 Q168.353 497.83 168.353 490.724 Q168.353 483.594 166.524 480.053 Q164.718 476.488 161.084 476.488 M161.084 472.784 Q166.894 472.784 169.95 477.391 Q173.029 481.974 173.029 490.724 Q173.029 499.451 169.95 504.057 Q166.894 508.64 161.084 508.64 Q155.274 508.64 152.195 504.057 Q149.14 499.451 149.14 490.724 Q149.14 481.974 152.195 477.391 Q155.274 472.784 161.084 472.784 Z" fill="#000000" fill-rule="nonzero" fill-opacity="1" /><path clip-path="url(#clip090)" d="M51.9875 212.468 L81.6633 212.468 L81.6633 216.403 L51.9875 216.403 L51.9875 212.468 Z" fill="#000000" fill-rule="nonzero" fill-opacity="1" /><path clip-path="url(#clip090)" d="M92.566 225.361 L100.205 225.361 L100.205 198.996 L91.8947 200.662 L91.8947 196.403 L100.159 194.737 L104.834 194.737 L104.834 225.361 L112.473 225.361 L112.473 229.297 L92.566 229.297 L92.566 225.361 Z" fill="#000000" fill-rule="nonzero" fill-opacity="1" /><path clip-path="url(#clip090)" d="M125.945 225.361 L142.265 225.361 L142.265 229.297 L120.32 229.297 L120.32 225.361 Q122.982 222.607 127.566 217.977 Q132.172 213.324 133.353 211.982 Q135.598 209.459 136.478 207.723 Q137.381 205.963 137.381 204.274 Q137.381 201.519 135.436 199.783 Q133.515 198.047 130.413 198.047 Q128.214 198.047 125.76 198.811 Q123.33 199.575 120.552 201.125 L120.552 196.403 Q123.376 195.269 125.83 194.69 Q128.283 194.112 130.32 194.112 Q135.691 194.112 138.885 196.797 Q142.08 199.482 142.08 203.973 Q142.08 206.102 141.269 208.024 Q140.482 209.922 138.376 212.514 Q137.797 213.186 134.695 216.403 Q131.594 219.598 125.945 225.361 Z" fill="#000000" fill-rule="nonzero" fill-opacity="1" /><path clip-path="url(#clip090)" d="M152.126 194.737 L170.482 194.737 L170.482 198.672 L156.408 198.672 L156.408 207.144 Q157.427 206.797 158.445 206.635 Q159.464 206.449 160.482 206.449 Q166.269 206.449 169.649 209.621 Q173.029 212.792 173.029 218.209 Q173.029 223.787 169.556 226.889 Q166.084 229.968 159.765 229.968 Q157.589 229.968 155.32 229.598 Q153.075 229.227 150.668 228.486 L150.668 223.787 Q152.751 224.922 154.973 225.477 Q157.195 226.033 159.672 226.033 Q163.677 226.033 166.015 223.926 Q168.353 221.82 168.353 218.209 Q168.353 214.598 166.015 212.491 Q163.677 210.385 159.672 210.385 Q157.797 210.385 155.922 210.801 Q154.07 211.218 152.126 212.098 L152.126 194.737 Z" fill="#000000" fill-rule="nonzero" fill-opacity="1" /><polyline clip-path="url(#clip092)" style="stroke:#009af9; stroke-linecap:round; stroke-linejoin:round; stroke-width:4; stroke-opacity:1; fill:none" points="269.7,325.31 270.712,320.881 271.723,463.319 272.735,462.179 273.747,601.242 274.759,599.552 275.77,445.404 276.782,442.852 277.794,94.1402 278.805,87.9763 279.817,598.418 280.829,597.608 281.84,467.66 282.852,466.987 283.864,475.647 284.876,474.168 285.887,748.406 286.899,748.657 287.911,626.472 288.922,626.932 289.934,498.859 290.946,497.435 291.957,454.852 292.969,453.28 293.981,542.01 294.992,537.342 296.004,682.131 297.016,680.92 298.028,299.644 299.039,298.551 300.051,701.091 301.063,700.77 302.074,552.159 303.086,548.564 304.098,840.057 305.109,839.26 306.121,850.176 307.133,850.439 308.145,581.284 309.156,579.327 310.168,535.723 311.18,533.814 312.191,852.641 313.203,851.114 314.215,738.401 315.226,737.444 316.238,764.551 317.25,763.125 318.262,673.292 319.273,671.129 320.285,622.958 321.297,622.655 322.308,685.054 323.32,683.895 324.332,716.262 325.343,714.99 326.355,640.96 327.367,637.822 328.379,820.686 329.39,819.436 330.402,687.115 331.414,684.045 332.425,731.409 333.437,730.817 334.449,889.82 335.46,887.856 336.472,691.229 337.484,690.852 338.496,977.743 339.507,977.706 340.519,893.375 341.531,892.441 342.542,750.62 343.554,748.654 344.566,601.451 345.577,598.724 346.589,652.602 347.601,650.932 348.612,922.388 349.624,921.319 350.636,1102.6 351.648,1100.76 352.659,695.779 353.671,692.64 354.683,696.032 355.694,691.238 356.706,769.916 357.718,768.698 358.729,904.067 359.741,902.462 360.753,827.109 361.765,824.782 362.776,972.55 363.788,969.426 364.8,1089.39 365.811,1087.37 366.823,991.773 367.835,991.277 368.846,869.971 369.858,868.377 370.87,702.256 371.882,700.653 372.893,1104.96 373.905,1102.39 374.917,900.52 375.928,898.826 376.94,1179.58 377.952,1178.57 378.963,828.922 379.975,826.934 380.987,1156.05 381.999,1153.43 383.01,1208.21 384.022,1205.84 385.034,913.671 386.045,910.785 387.057,753.075 388.069,748.69 389.08,805.985 390.092,803.215 391.104,810.293 392.115,807.041 393.127,993.75 394.139,990.545 395.151,775.789 396.162,773.356 397.174,1222.17 398.186,1217.62 399.197,1023.74 400.209,1022.09 401.221,1156.5 402.232,1154.52 403.244,1134.36 404.256,1131.63 405.268,977.351 406.279,974.099 407.291,1005.27 408.303,1000.72 409.314,1165.67 410.326,1164.28 411.338,1108.43 412.349,1106.32 413.361,1048.45 414.373,1045.89 415.385,1303.14 416.396,1301.76 417.408,985.283 418.42,982.466 419.431,1045.35 420.443,1041.89 421.455,1091.05 422.466,1088.79 423.478,1200.48 424.49,1197.67 425.502,1150.79 426.513,1148.48 427.525,1020.14 428.537,1016.01 429.548,1059.3 430.56,1056.53 431.572,1250.47 432.583,1246.55 433.595,1138.9 434.607,1133.5 435.619,967.769 436.63,964.102 437.642,1033.04 438.654,1030.56 439.665,1134.5 440.677,1131.79 441.689,1142.31 442.7,1139.22 443.712,1037.4 444.724,1032.25 445.735,946.352 446.747,942.957 447.759,1255.94 448.771,1253.3 449.782,1088.97 450.794,1086.04 451.806,1121.54 452.817,1119.12 453.829,1253.15 454.841,1251.44 455.852,1109.99 456.864,1107.86 457.876,1288.61 458.888,1284.89 459.899,1132.74 460.911,1130.81 461.923,1178.57 462.934,1175.6 463.946,985.973 464.958,980.457 465.969,1162.97 466.981,1159.27 467.993,1104 469.005,1101.03 470.016,1305.51 471.028,1303.52 472.04,1235.62 473.051,1232.99 474.063,1235.97 475.075,1233.82 476.086,1212.8 477.098,1211.35 478.11,1129.6 479.122,1127.61 480.133,1191.91 481.145,1188.37 482.157,1337.03 483.168,1334.34 484.18,1105.41 485.192,1100.77 486.203,1218.51 487.215,1216 488.227,997.933 489.239,990.652 490.25,1247.22 491.262,1244.75 492.274,1148.35 493.285,1146.11 494.297,1262.03 495.309,1258.28 496.32,1345.79 497.332,1344.26 498.344,1130.11 499.355,1127.5 500.367,1205.4 501.379,1203.08 502.391,1031.53 503.402,1027.1 504.414,1171.5 505.426,1169.01 506.437,1074.67 507.449,1073.14 508.461,1180.21 509.472,1177.79 510.484,1218.04 511.496,1216.2 512.508,1181.04 513.519,1178.89 514.531,1282.67 515.543,1281.01 516.554,1157.68 517.566,1155.73 518.578,1290.92 519.589,1288.68 520.601,1268.77 521.613,1265.7 522.625,1292.36 523.636,1290.61 524.648,1143.29 525.66,1141.09 526.671,1282.57 527.683,1280.53 528.695,1252.28 529.706,1249.92 530.718,1295.61 531.73,1292.23 532.742,1232.85 533.753,1230.04 534.765,1325.43 535.777,1320.14 536.788,1191.6 537.8,1189.57 538.812,1215.85 539.823,1213.84 540.835,1356.26 541.847,1354.23 542.859,1416.09 543.87,1414.47 544.882,1265.9 545.894,1264.83 546.905,1245.33 547.917,1244.04 548.929,1179.71 549.94,1178.02 550.952,1216.02 551.964,1214.2 552.975,1230.52 553.987,1226.17 554.999,1144.98 556.011,1138.52 557.022,1267.99 558.034,1266.29 559.046,1220.78 560.057,1218.17 561.069,1382.61 562.081,1379.62 563.092,1266.51 564.104,1264.4 565.116,1375.14 566.128,1373.95 567.139,1194.78 568.151,1192.51 569.163,1265.16 570.174,1263.93 571.186,1178.29 572.198,1175.95 573.209,1262.57 574.221,1261.29 575.233,1291.45 576.245,1288.62 577.256,1271.18 578.268,1270.08 579.28,1230.65 580.291,1229.02 581.303,1389.04 582.315,1387.87 583.326,1349.4 584.338,1347.54 585.35,1136.45 586.362,1135.38 587.373,1220.36 588.385,1219.2 589.397,1240.2 590.408,1238.6 591.42,1445.72 592.432,1444.06 593.443,1214.17 594.455,1212.48 595.467,1331.41 596.478,1329.41 597.49,1326.93 598.502,1325.87 599.514,1287.24 600.525,1286.35 601.537,1134.54 602.549,1133.6 603.56,1198.08 604.572,1196.15 605.584,1359.04 606.595,1356.69 607.607,1297.77 608.619,1296.36 609.631,1223.84 610.642,1220.43 611.654,1347.37 612.666,1346.18 613.677,1237.33 614.689,1234.02 615.701,1173.72 616.712,1170.56 617.724,1234.93 618.736,1233.36 619.748,1065.08 620.759,1064.01 621.771,1236.14 622.783,1234.93 623.794,1303.22 624.806,1302.02 625.818,1156.72 626.829,1155.88 627.841,1246.01 628.853,1243.52 629.865,1170.16 630.876,1167.65 631.888,1343.29 632.9,1340.84 633.911,1225.4 634.923,1224.17 635.935,1255.11 636.946,1254.08 637.958,1261.15 638.97,1259.93 639.982,1250.94 640.993,1250.03 642.005,1280.15 643.017,1279.16 644.028,1281.6 645.04,1278.48 646.052,1279.49 647.063,1277.48 648.075,1150.09 649.087,1149.3 650.098,1394.1 651.11,1393.15 652.122,1311.67 653.134,1308.97 654.145,1325.17 655.157,1323.69 656.169,1228.87 657.18,1227.87 658.192,1180.65 659.204,1178.83 660.215,1278.86 661.227,1278.73 662.239,1275.93 663.251,1275.35 664.262,1140.91 665.274,1140.06 666.286,1201.31 667.297,1200.43 668.309,1292.46 669.321,1291.57 670.332,1276.55 671.344,1273.57 672.356,1356.17 673.368,1355.62 674.379,1192.7 675.391,1191.93 676.403,1433.3 677.414,1430.95 678.426,1286.98 679.438,1285.36 680.449,1245.66 681.461,1244.38 682.473,1189.5 683.485,1188.25 684.496,1295.47 685.508,1294.98 686.52,1252.38 687.531,1249.12 688.543,1240.38 689.555,1238.5 690.566,1212.15 691.578,1210.29 692.59,1226.49 693.602,1222.42 694.613,1166.29 695.625,1165.61 696.637,1181.89 697.648,1179.13 698.66,1340.3 699.672,1339.82 700.683,1315.14 701.695,1314.05 702.707,1198.78 703.718,1198.15 704.73,1230.16 705.742,1229.38 706.754,1271.21 707.765,1270.87 708.777,1256.41 709.789,1255.26 710.8,1270.69 711.812,1269.4 712.824,1321.93 713.835,1320.82 714.847,1268.95 715.859,1267.73 716.871,1251.95 717.882,1251.31 718.894,1223.24 719.906,1222.58 720.917,1399.86 721.929,1398.41 722.941,1357.56 723.952,1357.18 724.964,1246.7 725.976,1245.7 726.988,1315.98 727.999,1315.89 729.011,1116.95 730.023,1116.27 731.034,1324.22 732.046,1323.36 733.058,1366.36 734.069,1366.02 735.081,1346.87 736.093,1346.06 737.105,1257.7 738.116,1256.92 739.128,1201.64 740.14,1200.78 741.151,1360.91 742.163,1360.69 743.175,1252.2 744.186,1251.68 745.198,1352.39 746.21,1351.21 747.222,1334.66 748.233,1333.12 749.245,1216.76 750.257,1215.77 751.268,1341.08 752.28,1340.05 753.292,1244.16 754.303,1241.41 755.315,1261.81 756.327,1260.65 757.338,1332.72 758.35,1330.63 759.362,1254.69 760.374,1254.28 761.385,1372.42 762.397,1372.01 763.409,1166.56 764.42,1165.99 765.432,1268.56 766.444,1267.87 767.455,1262.45 768.467,1261.43 769.479,1322.52 770.491,1321.33 771.502,1311.77 772.514,1311.02 773.526,1363.24 774.537,1362.93 775.549,1258.65 776.561,1258.66 777.572,1227.62 778.584,1226.61 779.596,1352.14 780.608,1351.31 781.619,1211.29 782.631,1210.68 783.643,1236.42 784.654,1235.58 785.666,1203.08 786.678,1201.42 787.689,1286.82 788.701,1285.92 789.713,1259.63 790.725,1258.89 791.736,1214.59 792.748,1210.42 793.76,1295.31 794.771,1294.5 795.783,1320.56 796.795,1319.76 797.806,1306.67 798.818,1306.24 799.83,1305.53 800.841,1304.32 801.853,1376.79 802.865,1376.58 803.877,1161.66 804.888,1160.81 805.9,1291 806.912,1290.54 807.923,1215.26 808.935,1214.81 809.947,1213.09 810.958,1212.59 811.97,1256.08 812.982,1255.2 813.994,1241.31 815.005,1241.01 816.017,1253.75 817.029,1252.74 818.04,1330.48 819.052,1329.89 820.064,1268.07 821.075,1267.44 822.087,1272.29 823.099,1271.73 824.111,1213.77 825.122,1213 826.134,1268.02 827.146,1267.8 828.157,1294.92 829.169,1294.73 830.181,1260.68 831.192,1259.4 832.204,1269.82 833.216,1269.12 834.228,1323.29 835.239,1321.68 836.251,1397.91 837.263,1397.48 838.274,1311.13 839.286,1309.39 840.298,1227.85 841.309,1227.41 842.321,1222.73 843.333,1221.2 844.345,1200.77 845.356,1200.39 846.368,1248.81 847.38,1248.37 848.391,1270.16 849.403,1269 850.415,1367.41 851.426,1367.21 852.438,1285.07 853.45,1284.61 854.461,1211.2 855.473,1210.47 856.485,1246.95 857.497,1246.56 858.508,1306.56 859.52,1305.3 860.532,1207.34 861.543,1203.33 862.555,1197.02 863.567,1196.26 864.578,1388.22 865.59,1388.03 866.602,1299.14 867.614,1297.66 868.625,1238.18 869.637,1237.81 870.649,1239.93 871.66,1237.67 872.672,1261.65 873.684,1261.32 874.695,1256.52 875.707,1256 876.719,1228.84 877.731,1228.13 878.742,1246.59 879.754,1246.29 880.766,1248.76 881.777,1248.44 882.789,1265.54 883.801,1264.88 884.812,1184.17 885.824,1183.87 886.836,1319.23 887.848,1318.54 888.859,1269.43 889.871,1268.08 890.883,1208.71 891.894,1208.32 892.906,1266.63 893.918,1266.36 894.929,1304.38 895.941,1304.1 896.953,1204.81 897.965,1204.56 898.976,1333.49 899.988,1333.2 901,1260.38 902.011,1259.72 903.023,1285.46 904.035,1285.36 905.046,1211.9 906.058,1211.64 907.07,1301.02 908.081,1300.1 909.093,1227.87 910.105,1227.48 911.117,1308.39 912.128,1308.22 913.14,1273.44 914.152,1272.53 915.163,1173.76 916.175,1173.44 917.187,1286.05 918.198,1285.48 919.21,1348.63 920.222,1347.86 921.234,1270.44 922.245,1269.98 923.257,1220.56 924.269,1219.79 925.28,1313.76 926.292,1310.68 927.304,1261.74 928.315,1261.52 929.327,1209.62 930.339,1208.45 931.351,1196.31 932.362,1196.08 933.374,1318.64 934.386,1318.31 935.397,1275.67 936.409,1275.06 937.421,1188.72 938.432,1187.06 939.444,1239.89 940.456,1239.21 941.468,1367.75 942.479,1367.28 943.491,1217.35 944.503,1217.12 945.514,1263.22 946.526,1262.8 947.538,1290.99 948.549,1290.46 949.561,1255.67 950.573,1255.45 951.585,1304.56 952.596,1304.26 953.608,1210.96 954.62,1210.2 955.631,1228.55 956.643,1228.36 957.655,1255.66 958.666,1255.44 959.678,1198.3 960.69,1197.78 961.701,1271.74 962.713,1271.3 963.725,1265.53 964.737,1265.32 965.748,1263.6 966.76,1263.29 967.772,1310.46 968.783,1309.96 969.795,1292.24 970.807,1292.03 971.818,1217.93 972.83,1217.65 973.842,1276.38 974.854,1276.09 975.865,1233.85 976.877,1233.14 977.889,1230.14 978.9,1229.85 979.912,1298.51 980.924,1297.39 981.935,1191.73 982.947,1189.22 983.959,1329.41 984.971,1328.57 985.982,1230 986.994,1228.44 988.006,1214.9 989.017,1213.78 990.029,1241.04 991.041,1240.61 992.052,1265.79 993.064,1265.36 994.076,1247.11 995.088,1245.26 996.099,1343.82 997.111,1343.44 998.123,1341.17 999.134,1340.37 1000.15,1235.55 1001.16,1235.06 1002.17,1275.45 1003.18,1275.24 1004.19,1261.53 1005.2,1261.28 1006.22,1268.94 1007.23,1267.52 1008.24,1298.48 1009.25,1298.19 1010.26,1211.4 1011.27,1211.16 1012.29,1264.43 1013.3,1263.66 1014.31,1312.07 1015.32,1311.78 1016.33,1332.39 1017.34,1331.86 1018.36,1283.62 1019.37,1283.03 1020.38,1196.94 1021.39,1196.74 1022.4,1270.92 1023.42,1270.64 1024.43,1281.06 1025.44,1280.44 1026.45,1248.98 1027.46,1246.26 1028.47,1231.27 1029.49,1231.1 1030.5,1228.57 1031.51,1228.38 1032.52,1281.13 1033.53,1280.96 1034.54,1263.38 1035.56,1262.31 1036.57,1267.11 1037.58,1266.84 1038.59,1283.97 1039.6,1281.36 1040.61,1308.67 1041.63,1307.91 1042.64,1239.25 1043.65,1238.92 1044.66,1350.07 1045.67,1350.01 1046.68,1265.33 1047.7,1265.13 1048.71,1383.38 1049.72,1382.88 1050.73,1251.52 1051.74,1249.55 1052.75,1273.76 1053.77,1272.32 1054.78,1349.15 1055.79,1349.08 1056.8,1221.86 1057.81,1221.62 1058.82,1257.31 1059.84,1256.12 1060.85,1295.54 1061.86,1295.01 1062.87,1236.74 1063.88,1236.51 1064.89,1248.57 1065.91,1248.27 1066.92,1298.13 1067.93,1296.8 1068.94,1254.12 1069.95,1253.66 1070.96,1294.77 1071.98,1291.65 1072.99,1258.32 1074,1257.94 1075.01,1231.14 1076.02,1230.51 1077.04,1234.2 1078.05,1234.06 1079.06,1309.75 1080.07,1309.71 1081.08,1288.93 1082.09,1288.75 1083.11,1260.6 1084.12,1260.44 1085.13,1302.71 1086.14,1302.34 1087.15,1368.69 1088.16,1366.63 1089.18,1322.96 1090.19,1322.76 1091.2,1335.57 1092.21,1335.49 1093.22,1284.31 1094.23,1282.14 1095.25,1228.93 1096.26,1228.17 1097.27,1317.34 1098.28,1317.03 1099.29,1272.08 1100.3,1271.05 1101.32,1279.42 1102.33,1276.63 1103.34,1315.71 1104.35,1314.79 1105.36,1263.69 1106.37,1263.34 1107.39,1261.33 1108.4,1261.15 1109.41,1155.2 1110.42,1153.88 1111.43,1274.23 1112.44,1274 1113.46,1302.14 1114.47,1301.43 1115.48,1311.69 1116.49,1311.15 1117.5,1349.71 1118.51,1347.08 1119.53,1279.37 1120.54,1278.69 1121.55,1265.74 1122.56,1264.48 1123.57,1343.25 1124.58,1343.2 1125.6,1253.92 1126.61,1252.47 1127.62,1235.64 1128.63,1235.18 1129.64,1244.34 1130.66,1243.91 1131.67,1175.47 1132.68,1173.11 1133.69,1383.29 1134.7,1383.16 1135.71,1248.77 1136.73,1248.32 1137.74,1303.7 1138.75,1302.54 1139.76,1293.83 1140.77,1293.69 1141.78,1259.96 1142.8,1259.56 1143.81,1307.65 1144.82,1307.51 1145.83,1231.92 1146.84,1231.78 1147.85,1304.77 1148.87,1304.53 1149.88,1240.58 1150.89,1240.16 1151.9,1318.86 1152.91,1318.61 1153.92,1282.2 1154.94,1282.03 1155.95,1298.47 1156.96,1296.85 1157.97,1354.83 1158.98,1354.01 1159.99,1275.71 1161.01,1274.24 1162.02,1268.82 1163.03,1268.67 1164.04,1302.3 1165.05,1301.67 1166.06,1220.83 1167.08,1220.09 1168.09,1304.9 1169.1,1304.71 1170.11,1305.67 1171.12,1305.32 1172.13,1265.9 1173.15,1265.63 1174.16,1257.06 1175.17,1256.47 1176.18,1227.94 1177.19,1227.53 1178.2,1279.44 1179.22,1279.27 1180.23,1289.2 1181.24,1288.35 1182.25,1277.22 1183.26,1277.06 1184.28,1237 1185.29,1236.4 1186.3,1348.15 1187.31,1347.54 1188.32,1312.52 1189.33,1311.69 1190.35,1263.36 1191.36,1263.18 1192.37,1201.92 1193.38,1201.8 1194.39,1260.37 1195.4,1259.65 1196.42,1287.66 1197.43,1287.54 1198.44,1238.36 1199.45,1234.76 1200.46,1276.23 1201.47,1275.1 1202.49,1318.82 1203.5,1317.82 1204.51,1318.06 1205.52,1317.42 1206.53,1316.55 1207.54,1315.97 1208.56,1268.92 1209.57,1267.12 1210.58,1314.18 1211.59,1313.68 1212.6,1288.96 1213.61,1288.05 1214.63,1278.52 1215.64,1277.63 1216.65,1275.72 1217.66,1274.31 1218.67,1310.9 1219.68,1310 1220.7,1259.6 1221.71,1258.99 1222.72,1237.13 1223.73,1237.01 1224.74,1232.71 1225.75,1232.08 1226.77,1308.01 1227.78,1307.72 1228.79,1286.48 1229.8,1286.36 1230.81,1223.57 1231.82,1223.46 1232.84,1287.83 1233.85,1287.57 1234.86,1346.18 1235.87,1345.97 1236.88,1322.67 1237.9,1322.54 1238.91,1209.11 1239.92,1209.01 1240.93,1205.06 1241.94,1204.19 1242.95,1269.61 1243.97,1269.44 1244.98,1190.35 1245.99,1189.62 1247,1175 1248.01,1174.5 1249.02,1252.21 1250.04,1251.35 1251.05,1272.08 1252.06,1271.97 1253.07,1307.76 1254.08,1307.62 1255.09,1291.08 1256.11,1289.31 1257.12,1307.31 1258.13,1307.22 1259.14,1290.51 1260.15,1290.05 1261.16,1292.4 1262.18,1292.26 1263.19,1252.33 1264.2,1252.05 1265.21,1297.07 1266.22,1296.03 1267.23,1226.79 1268.25,1226.69 1269.26,1260.97 1270.27,1260.53 1271.28,1358.98 1272.29,1358.82 1273.3,1260.91 1274.32,1259.88 1275.33,1318.16 1276.34,1318.08 1277.35,1298.85 1278.36,1298.27 1279.37,1228.77 1280.39,1228.6 1281.4,1316.2 1282.41,1316.06 1283.42,1237.86 1284.43,1237.38 1285.44,1345.5 1286.46,1345.28 1287.47,1279.46 1288.48,1279.36 1289.49,1380.53 1290.5,1380.58 1291.52,1247.42 1292.53,1246.92 1293.54,1260.54 1294.55,1259.63 1295.56,1344.37 1296.57,1344.31 1297.59,1281 1298.6,1280.86 1299.61,1294.23 1300.62,1294.13 1301.63,1254.41 1302.64,1254.01 1303.66,1307.31 1304.67,1307.07 1305.68,1290.59 1306.69,1289.56 1307.7,1252.87 1308.71,1252.47 1309.73,1256.92 1310.74,1256.71 1311.75,1279.1 1312.76,1278.99 1313.77,1281.94 1314.78,1281.63 1315.8,1253.66 1316.81,1253.49 1317.82,1265.63 1318.83,1265.43 1319.84,1251.86 1320.85,1251.58 1321.87,1326.98 1322.88,1326.71 1323.89,1246.56 1324.9,1245.31 1325.91,1356.45 1326.92,1356.24 1327.94,1242.32 1328.95,1239.78 1329.96,1233.53 1330.97,1232.83 1331.98,1279.58 1332.99,1279.31 1334.01,1235.56 1335.02,1235.02 1336.03,1351.51 1337.04,1349.15 1338.05,1253.67 1339.06,1253.58 1340.08,1317.35 1341.09,1317.3 1342.1,1213.31 1343.11,1212.68 1344.12,1325.32 1345.14,1324.56 1346.15,1284.58 1347.16,1283.17 1348.17,1264.29 1349.18,1263.96 1350.19,1293.18 1351.21,1292.64 1352.22,1253.49 1353.23,1253.38 1354.24,1343.55 1355.25,1343.23 1356.26,1278.92 1357.28,1278.52 1358.29,1277.8 1359.3,1277.68 1360.31,1304.6 1361.32,1303.73 1362.33,1265.77 1363.35,1265.6 1364.36,1226.89 1365.37,1226.55 1366.38,1225.89 1367.39,1225.22 1368.4,1247.62 1369.42,1246.15 1370.43,1338.28 1371.44,1338.02 1372.45,1299.37 1373.46,1299.26 1374.47,1261.59 1375.49,1261.49 1376.5,1260.95 1377.51,1260.8 1378.52,1252.56 1379.53,1252.3 1380.54,1283.75 1381.56,1281.5 1382.57,1339.74 1383.58,1339.59 1384.59,1306.94 1385.6,1303.71 1386.61,1226.27 1387.63,1226.12 1388.64,1251.04 1389.65,1250.07 1390.66,1276.56 1391.67,1276.35 1392.68,1262.51 1393.7,1262.4 1394.71,1279.39 1395.72,1277.9 1396.73,1263.16 1397.74,1263.08 1398.76,1262.99 1399.77,1262.72 1400.78,1248.5 1401.79,1246.45 1402.8,1271.93 1403.81,1271.4 1404.83,1233.73 1405.84,1233.41 1406.85,1281.37 1407.86,1280.65 1408.87,1220.93 1409.88,1220.81 1410.9,1279.75 1411.91,1278.8 1412.92,1254.53 1413.93,1253.28 1414.94,1283.1 1415.95,1281.84 1416.97,1313.92 1417.98,1313.8 1418.99,1230.6 1420,1229.36 1421.01,1278.98 1422.02,1277.95 1423.04,1234.48 1424.05,1234.35 1425.06,1277.18 1426.07,1276.37 1427.08,1255.21 1428.09,1250.68 1429.11,1291.75 1430.12,1291.22 1431.13,1233.98 1432.14,1233.92 1433.15,1258.35 1434.16,1258.3 1435.18,1257.56 1436.19,1257.48 1437.2,1267.14 1438.21,1266.84 1439.22,1232.53 1440.23,1232.48 1441.25,1245.41 1442.26,1242.51 1443.27,1275.82 1444.28,1274.9 1445.29,1297.4 1446.3,1297.32 1447.32,1338.39 1448.33,1337.71 1449.34,1272.38 1450.35,1272.22 1451.36,1350.64 1452.38,1350.33 1453.39,1234.74 1454.4,1234.55 1455.41,1348.88 1456.42,1348.75 1457.43,1295.48 1458.45,1292.94 1459.46,1355.19 1460.47,1352.93 1461.48,1271.81 1462.49,1271.73 1463.5,1271.39 1464.52,1271.27 1465.53,1348.69 1466.54,1348.62 1467.55,1247.01 1468.56,1246.87 1469.57,1337.36 1470.59,1336.51 1471.6,1221.7 1472.61,1221.59 1473.62,1296.58 1474.63,1296.48 1475.64,1310.84 1476.66,1310.43 1477.67,1309.8 1478.68,1309.53 1479.69,1246.26 1480.7,1246.19 1481.71,1258.79 1482.73,1258.54 1483.74,1295.61 1484.75,1294.91 1485.76,1259.27 1486.77,1258.87 1487.78,1336.44 1488.8,1336.34 1489.81,1270.64 1490.82,1270.49 1491.83,1246.83 1492.84,1246.23 1493.85,1335.78 1494.87,1335.51 1495.88,1308.51 1496.89,1308.33 1497.9,1220.61 1498.91,1220.52 1499.92,1283.48 1500.94,1283.03 1501.95,1259.27 1502.96,1258.03 1503.97,1373.08 1504.98,1373.01 1506,1232.92 1507.01,1232.85 1508.02,1271.67 1509.03,1269.19 1510.04,1241.92 1511.05,1239.86 1512.07,1360.65 1513.08,1360.56 1514.09,1282.01 1515.1,1281.94 1516.11,1278.11 1517.12,1277.06 1518.14,1217.28 1519.15,1217.18 1520.16,1277.23 1521.17,1276.74 1522.18,1297.84 1523.19,1296.74 1524.21,1202.11 1525.22,1202.04 1526.23,1268 1527.24,1267.92 1528.25,1350.54 1529.26,1350.17 1530.28,1274.91 1531.29,1274.64 1532.3,1266.08 1533.31,1266.05 1534.32,1229.29 1535.33,1229.25 1536.35,1220.77 1537.36,1219.83 1538.37,1262.52 1539.38,1262.45 1540.39,1284.96 1541.4,1284.72 1542.42,1264.2 1543.43,1264.19 1544.44,1328.67 1545.45,1327.12 1546.46,1277.43 1547.47,1277.34 1548.49,1236.78 1549.5,1231 1550.51,1304.84 1551.52,1304.69 1552.53,1338.77 1553.54,1337.78 1554.56,1255.82 1555.57,1255.68 1556.58,1316.03 1557.59,1312.93 1558.6,1186.16 1559.62,1182.05 1560.63,1262.16 1561.64,1261.86 1562.65,1342.25 1563.66,1342.25 1564.67,1336.73 1565.69,1336.21 1566.7,1291.07 1567.71,1291 1568.72,1284.73 1569.73,1282.79 1570.74,1228.97 1571.76,1226.83 1572.77,1295.56 1573.78,1295.3 1574.79,1317.94 1575.8,1317.93 1576.81,1263.06 1577.83,1261.68 1578.84,1342.85 1579.85,1342.84 1580.86,1318.61 1581.87,1315.48 1582.88,1256.5 1583.9,1256.23 1584.91,1267.16 1585.92,1267.06 1586.93,1291.65 1587.94,1291.55 1588.95,1292.64 1589.97,1292.53 1590.98,1228.24 1591.99,1227.81 1593,1254.76 1594.01,1254.68 1595.02,1306.64 1596.04,1306.6 1597.05,1330.89 1598.06,1330.33 1599.07,1242.1 1600.08,1242.02 1601.09,1342.24 1602.11,1341.8 1603.12,1340.44 1604.13,1339.81 1605.14,1282.95 1606.15,1282.86 1607.16,1269.08 1608.18,1268.55 1609.19,1303.06 1610.2,1302.68 1611.21,1303.13 1612.22,1302.98 1613.24,1267.68 1614.25,1267.5 1615.26,1241.78 1616.27,1241.72 1617.28,1225.13 1618.29,1223.72 1619.31,1207.72 1620.32,1205.8 1621.33,1279 1622.34,1278.87 1623.35,1241.1 1624.36,1241 1625.38,1343.21 1626.39,1343.19 1627.4,1371.42 1628.41,1371 1629.42,1258.47 1630.43,1256.61 1631.45,1254.19 1632.46,1254.12 1633.47,1278.73 1634.48,1278.65 1635.49,1216.46 1636.5,1216.38 1637.52,1290.93 1638.53,1290.86 1639.54,1278.62 1640.55,1278.29 1641.56,1290.58 1642.57,1290.51 1643.59,1265.79 1644.6,1265.68 1645.61,1290.65 1646.62,1290.5 1647.63,1265.45 1648.64,1265.36 1649.66,1356.04 1650.67,1355.89 1651.68,1291.22 1652.69,1290.85 1653.7,1290.23 1654.71,1289.95 1655.73,1240.09 1656.74,1240 1657.75,1290.42 1658.76,1290.27 1659.77,1252.3 1660.78,1251.44 1661.8,1227.52 1662.81,1227.46 1663.82,1252.56 1664.83,1252.38 1665.84,1227.69 1666.86,1227.04 1667.87,1265.77 1668.88,1264.47 1669.89,1329.35 1670.9,1329.26 1671.91,1251.11 1672.93,1250.7 1673.94,1355.4 1674.95,1355.14 1675.96,1287.78 1676.97,1286.24 1677.98,1265.36 1679,1265.02 1680.01,1275.68 1681.02,1275.57 1682.03,1254.04 1683.04,1253.24 1684.05,1252.78 1685.07,1251.34 1686.08,1262.1 1687.09,1260.66 1688.1,1240.53 1689.11,1240.22 1690.12,1265.17 1691.14,1264.78 1692.15,1289.12 1693.16,1289.04 1694.17,1340.88 1695.18,1340.02 1696.19,1276.48 1697.21,1276.37 1698.22,1287.51 1699.23,1287.34 1700.24,1300.31 1701.25,1300.23 1702.26,1315.84 1703.28,1314.77 1704.29,1251.29 1705.3,1250.36 1706.31,1275.61 1707.32,1275.44 1708.33,1287.35 1709.35,1287.17 1710.36,1250.54 1711.37,1250.48 1712.38,1238.01 1713.39,1237.89 1714.4,1286.2 1715.42,1285.66 1716.43,1314.22 1717.44,1313.65 1718.45,1288.21 1719.46,1287.57 1720.47,1262.71 1721.49,1262.23 1722.5,1262.39 1723.51,1262.34 1724.52,1287.69 1725.53,1286.9 1726.55,1262.08 1727.56,1261.89 1728.57,1328.15 1729.58,1328.09 1730.59,1287.15 1731.6,1286.95 1732.62,1249.21 1733.63,1248.96 1734.64,1275.41 1735.65,1274.88 1736.66,1274.53 1737.67,1273.65 1738.69,1288.08 1739.7,1287.21 1740.71,1248.73 1741.72,1246.92 1742.73,1329.76 1743.74,1329.19 1744.76,1249.25 1745.77,1249.2 1746.78,1237.1 1747.79,1236.84 1748.8,1249.19 1749.81,1248.68 1750.83,1222.84 1751.84,1221.39 1752.85,1293.79 1753.86,1291.94 1754.87,1248.83 1755.88,1248.74 1756.9,1281.56 1757.91,1280.96 1758.92,1219.31 1759.93,1219.1 1760.94,1265.32 1761.95,1264.55 1762.97,1297.76 1763.98,1297.63 1764.99,1249.57 1766,1248.17 1767.01,1271.61 1768.02,1271.55 1769.04,1267.72 1770.05,1267.65 1771.06,1349.92 1772.07,1349.92 1773.08,1312.13 1774.09,1311.82 1775.11,1296.75 1776.12,1296.71 1777.13,1250.59 1778.14,1250.12 1779.15,1263.09 1780.17,1262.39 1781.18,1197.08 1782.19,1197 1783.2,1311.91 1784.21,1311.29 1785.22,1284.74 1786.24,1284.7 1787.25,1248.23 1788.26,1247.94 1789.27,1271.73 1790.28,1269.14 1791.29,1256.13 1792.31,1255.45 1793.32,1396.7 1794.33,1396.32 1795.34,1410.2 1796.35,1408.98 1797.36,1260.38 1798.38,1260.25 1799.39,1247.48 1800.4,1247.34 1801.41,1247.19 1802.42,1247.14 1803.43,1285.06 1804.45,1284.95 1805.46,1271.73 1806.47,1271.12 1807.48,1282.57 1808.49,1281.66 1809.5,1219.67 1810.52,1219.29 1811.53,1284.22 1812.54,1284.15 1813.55,1272.81 1814.56,1272.6 1815.57,1339.88 1816.59,1339.73 1817.6,1308.71 1818.61,1308.61 1819.62,1247.61 1820.63,1247.45 1821.64,1363.86 1822.66,1363.82 1823.67,1283.49 1824.68,1283.33 1825.69,1270.62 1826.7,1270.39 1827.71,1283.71 1828.73,1283.66 1829.74,1280.69 1830.75,1279.7 1831.76,1287.69 1832.77,1286.66 1833.79,1272.08 1834.8,1271.86 1835.81,1282.8 1836.82,1282.57 1837.83,1258.97 1838.84,1258.9 1839.86,1394.03 1840.87,1393.91 1841.88,1259.74 1842.89,1259.19 1843.9,1246.43 1844.91,1246.36 1845.93,1272.03 1846.94,1270.66 1847.95,1231.26 1848.96,1228.59 1849.97,1266.48 1850.98,1265.81 1852,1294.29 1853.01,1294.26 1854.02,1265.33 1855.03,1264.78 1856.04,1266.97 1857.05,1264.78 1858.07,1221.05 1859.08,1220.99 1860.09,1327.56 1861.1,1326.99 1862.11,1270.92 1863.12,1270.85 1864.14,1311.99 1865.15,1311.33 1866.16,1257.08 1867.17,1256.91 1868.18,1305.71 1869.19,1305.33 1870.21,1336.33 1871.22,1336.29 1872.23,1286.44 1873.24,1285.49 1874.25,1281.85 1875.26,1281.54 1876.28,1242.11 1877.29,1240.91 1878.3,1232.46 1879.31,1232.43 1880.32,1276.82 1881.33,1275.65 1882.35,1282.21 1883.36,1282.16 1884.37,1300.61 1885.38,1299.76 1886.39,1255.24 1887.41,1255.22 1888.42,1266.4 1889.43,1266.34 1890.44,1215.45 1891.45,1215.31 1892.46,1261.59 1893.48,1260.92 1894.49,1276.25 1895.5,1275.61 1896.51,1266.87 1897.52,1266.84 1898.53,1202.45 1899.55,1202.26 1900.56,1279.25 1901.57,1279.24 1902.58,1270.41 1903.59,1270.22 1904.6,1277.44 1905.62,1277.23 1906.63,1289.84 1907.64,1289.29 1908.65,1286.53 1909.66,1284.79 1910.67,1261.71 1911.69,1261.18 1912.7,1343.74 1913.71,1343.65 1914.72,1274.29 1915.73,1274.02 1916.74,1282.57 1917.76,1282.36 1918.77,1261 1919.78,1260.52 1920.79,1233.73 1921.8,1233.11 1922.81,1234.61 1923.83,1234.16 1924.84,1358.72 1925.85,1356.41 1926.86,1244.14 1927.87,1244.06 1928.88,1252.91 1929.9,1252.47 1930.91,1239.55 1931.92,1239.16 1932.93,1258.45 1933.94,1258.15 1934.95,1229.39 1935.97,1229.3 1936.98,1268.63 1937.99,1268.57 1939,1278.8 1940.01,1278.66 1941.03,1266.26 1942.04,1266.18 1943.05,1279.12 1944.06,1279.06 1945.07,1244.28 1946.08,1244.15 1947.1,1255.18 1948.11,1255.16 1949.12,1293.83 1950.13,1293.71 1951.14,1252.71 1952.15,1252.05 1953.17,1326.81 1954.18,1326.24 1955.19,1281.02 1956.2,1280.95 1957.21,1266.04 1958.22,1265.51 1959.24,1293.6 1960.25,1293.49 1961.26,1252.66 1962.27,1251.98 1963.28,1256.81 1964.29,1256.6 1965.31,1280.22 1966.32,1280.17 1967.33,1281.5 1968.34,1281.29 1969.35,1253.57 1970.36,1253.11 1971.38,1311.4 1972.39,1311.32 1973.4,1227.94 1974.41,1227.28 1975.42,1269.41 1976.43,1269.1 1977.45,1218.01 1978.46,1217.96 1979.47,1302.99 1980.48,1302.6 1981.49,1336.82 1982.5,1336.64 1983.52,1291.48 1984.53,1291.34 1985.54,1192.18 1986.55,1192.13 1987.56,1251.52 1988.57,1250.68 1989.59,1268.12 1990.6,1267.54 1991.61,1276.25 1992.62,1276.11 1993.63,1270.53 1994.65,1270.06 1995.66,1278.92 1996.67,1278.89 1997.68,1286.29 1998.69,1286.17 1999.7,1215.95 2000.72,1215.79 2001.73,1261.44 2002.74,1259.94 2003.75,1238.79 2004.76,1238.66 2005.77,1287.6 2006.79,1287.46 2007.8,1350.84 2008.81,1350.28 2009.82,1265.54 2010.83,1265.51 2011.84,1239.9 2012.86,1239.76 2013.87,1227.44 2014.88,1227.38 2015.89,1247.64 2016.9,1246.74 2017.91,1273.65 2018.93,1273.43 2019.94,1258.72 2020.95,1258.28 2021.96,1287.94 2022.97,1286.33 2023.98,1261.67 2025,1261.32 2026.01,1249.76 2027.02,1249.62 2028.03,1266.97 2029.04,1266.85 2030.05,1333.74 2031.07,1333.71 2032.08,1406.45 2033.09,1405 2034.1,1262.5 2035.11,1262.38 2036.12,1263.24 2037.14,1263.2 2038.15,1277.43 2039.16,1277.41 2040.17,1225.12 2041.18,1225.02 2042.19,1242.39 2043.21,1242.25 2044.22,1358.57 2045.23,1358.52 2046.24,1251.08 2047.25,1250.94 2048.27,1270.21 2049.28,1268.84 2050.29,1268.48 2051.3,1267.62 2052.31,1290.63 2053.32,1290.5 2054.34,1317.47 2055.35,1317.45 2056.36,1234.17 2057.37,1233.38 2058.38,1297 2059.39,1295.88 2060.41,1262.32 2061.42,1261.44 2062.43,1295.34 2063.44,1294.5 2064.45,1267.22 2065.46,1267.02 2066.48,1238.73 2067.49,1237.95 2068.5,1253.62 2069.51,1253.59 2070.52,1231.55 2071.53,1230.99 2072.55,1228.28 2073.56,1228.21 2074.57,1264.58 2075.58,1264.31 2076.59,1351.4 2077.6,1349.56 2078.62,1297.19 2079.63,1296.58 2080.64,1280.87 2081.65,1279.72 2082.66,1347.49 2083.67,1345.78 2084.69,1267.3 2085.7,1267.01 2086.71,1216.47 2087.72,1216.42 2088.73,1303.11 2089.74,1303 2090.76,1302.48 2091.77,1302.14 2092.78,1264.3 2093.79,1263.91 2094.8,1332.41 2095.81,1332.31 2096.83,1288.33 2097.84,1287.99 2098.85,1248.25 2099.86,1245.55 2100.87,1303.51 2101.89,1303.45 2102.9,1346.34 2103.91,1346.16 2104.92,1277.85 2105.93,1277.71 2106.94,1279.09 2107.96,1278.86 2108.97,1215.97 2109.98,1215.9 2110.99,1277.9 2112,1277.85 2113.01,1264.84 2114.03,1264.5 2115.04,1277.75 2116.05,1277.71 2117.06,1305.21 2118.07,1304.26 2119.08,1278.61 2120.1,1277.81 2121.11,1291.28 2122.12,1290.49 2123.13,1278.13 2124.14,1278.04 2125.15,1265.76 2126.17,1263.65 2127.18,1253.89 2128.19,1253.67 2129.2,1265.51 2130.21,1265.45 2131.22,1263.84 2132.24,1262.73 2133.25,1275.18 2134.26,1274.85 2135.27,1264.26 2136.28,1264.24 2137.29,1265.93 2138.31,1265.75 2139.32,1264.88 2140.33,1264.83 2141.34,1216.21 2142.35,1215.98 2143.36,1240.16 2144.38,1240.12 2145.39,1253.1 2146.4,1252.84 2147.41,1321.07 2148.42,1320.96 2149.43,1289.94 2150.45,1289.89 2151.46,1277.52 2152.47,1276.13 2153.48,1262.93 2154.49,1262.2 2155.51,1222.05 2156.52,1220.17 2157.53,1289.12 2158.54,1289.05 2159.55,1282.21 2160.56,1281.07 2161.58,1281.94 2162.59,1281.01 2163.6,1266.39 2164.61,1266.01 2165.62,1277.22 2166.63,1277.13 2167.65,1273.33 2168.66,1272.43 2169.67,1253.5 2170.68,1253.19 2171.69,1364.76 2172.7,1362.86 2173.72,1279.22 2174.73,1278.72 2175.74,1238.76 2176.75,1238.72 2177.76,1272.84 2178.77,1272.22 2179.79,1272.2 2180.8,1271.84 2181.81,1258.2 2182.82,1257.74 2183.83,1231.84 2184.84,1231.39 2185.86,1358.95 2186.87,1358.64 2187.88,1252.94 2188.89,1252.73 2189.9,1283.77 2190.91,1283.35 2191.93,1238.07 2192.94,1238.05 2193.95,1248.61 2194.96,1248.56 2195.97,1263.24 2196.98,1263.21 2198,1248.7 2199.01,1248.63 2200.02,1254.38 2201.03,1253.84 2202.04,1252.91 2203.05,1252.61 2204.07,1287.12 2205.08,1287.02 2206.09,1287.27 2207.1,1287.22 2208.11,1270.69 2209.13,1269.22 2210.14,1353.92 2211.15,1353.86 2212.16,1305.2 2213.17,1305.16 2214.18,1251.03 2215.2,1250.98 2216.21,1277.26 2217.22,1277.06 2218.23,1249.48 2219.24,1249.41 2220.25,1269.88 2221.27,1268.51 2222.28,1267.7 2223.29,1266.9 2224.3,1285.53 2225.31,1285.35 2226.32,1281.89 2227.34,1280.93 2228.35,1286.87 2229.36,1283.4 2230.37,1234.52 2231.38,1233.15 2232.39,1258.18 2233.41,1257.62 2234.42,1343.55 2235.43,1343.5 2236.44,1248.72 2237.45,1248.68 2238.46,1257.27 2239.48,1256.6 2240.49,1289.99 2241.5,1289.65 2242.51,1246.33 2243.52,1246.02 2244.53,1301.14 2245.55,1300.72 2246.56,1260.28 2247.57,1260.27 2248.58,1258.66 2249.59,1258.55 2250.6,1218.97 2251.62,1218.61 2252.63,1280.39 2253.64,1279.54 2254.65,1240.18 2255.66,1239.82 2256.67,1272 2257.69,1271.7 2258.7,1331.07 2259.71,1331.04 2260.72,1283.27 2261.73,1282.8 2262.75,1278.84 2263.76,1278.19 2264.77,1327.86 2265.78,1327.34 2266.79,1293.83 2267.8,1292.95 2268.82,1273.3 2269.83,1273.28 2270.84,1357.15 2271.85,1356.95 2272.86,1250.26 2273.87,1250.22 2274.89,1276.18 2275.9,1275.99 2276.91,1283.86 2277.92,1283.1 2278.93,1289.12 2279.94,1288.87 2280.96,1276.31 2281.97,1276.07 2282.98,1250.03 2283.99,1250 2285,1239.88 2286.01,1239.2 2287.03,1300.38 2288.04,1300.03 2289.05,1274.84 2290.06,1274.64 2291.07,1187.47 2292.08,1187.09 "/>
<path clip-path="url(#clip090)" d="M2014.5 198.898 L2281.3 198.898 L2281.3 95.2176 L2014.5 95.2176  Z" fill="#ffffff" fill-rule="evenodd" fill-opacity="1"/>
<polyline clip-path="url(#clip090)" style="stroke:#000000; stroke-linecap:round; stroke-linejoin:round; stroke-width:4; stroke-opacity:1; fill:none" points="2014.5,198.898 2281.3,198.898 2281.3,95.2176 2014.5,95.2176 2014.5,198.898 "/>
<polyline clip-path="url(#clip090)" style="stroke:#009af9; stroke-linecap:round; stroke-linejoin:round; stroke-width:4; stroke-opacity:1; fill:none" points="2038.31,147.058 2181.23,147.058 "/>
<path clip-path="url(#clip090)" d="M2218.89 166.745 Q2217.09 171.375 2215.37 172.787 Q2213.66 174.199 2210.79 174.199 L2207.39 174.199 L2207.39 170.634 L2209.89 170.634 Q2211.65 170.634 2212.62 169.8 Q2213.59 168.967 2214.77 165.865 L2215.53 163.921 L2205.05 138.412 L2209.56 138.412 L2217.66 158.689 L2225.77 138.412 L2230.28 138.412 L2218.89 166.745 Z" fill="#000000" fill-rule="nonzero" fill-opacity="1" /><path clip-path="url(#clip090)" d="M2237.57 160.402 L2245.21 160.402 L2245.21 134.037 L2236.9 135.703 L2236.9 131.444 L2245.16 129.778 L2249.84 129.778 L2249.84 160.402 L2257.48 160.402 L2257.48 164.338 L2237.57 164.338 L2237.57 160.402 Z" fill="#000000" fill-rule="nonzero" fill-opacity="1" /></svg>
