<?xml version="1.0" encoding="utf-8"?>
<svg xmlns="http://www.w3.org/2000/svg" xmlns:xlink="http://www.w3.org/1999/xlink" width="600" height="400" viewBox="0 0 2400 1600">
<defs>
  <clipPath id="clip060">
    <rect x="0" y="0" width="2400" height="1600"/>
  </clipPath>
</defs>
<path clip-path="url(#clip060)" d="M0 1600 L2400 1600 L2400 0 L0 0  Z" fill="#ffffff" fill-rule="evenodd" fill-opacity="1"/>
<defs>
  <clipPath id="clip061">
    <rect x="480" y="0" width="1681" height="1600"/>
  </clipPath>
</defs>
<path clip-path="url(#clip060)" d="M185.927 1486.45 L2352.76 1486.45 L2352.76 47.2441 L185.927 47.2441  Z" fill="#ffffff" fill-rule="evenodd" fill-opacity="1"/>
<defs>
  <clipPath id="clip062">
    <rect x="185" y="47" width="2168" height="1440"/>
  </clipPath>
</defs>
<polyline clip-path="url(#clip062)" style="stroke:#000000; stroke-linecap:round; stroke-linejoin:round; stroke-width:2; stroke-opacity:0.1; fill:none" points="247.252,1486.45 247.252,47.2441 "/>
<polyline clip-path="url(#clip062)" style="stroke:#000000; stroke-linecap:round; stroke-linejoin:round; stroke-width:2; stroke-opacity:0.1; fill:none" points="758.297,1486.45 758.297,47.2441 "/>
<polyline clip-path="url(#clip062)" style="stroke:#000000; stroke-linecap:round; stroke-linejoin:round; stroke-width:2; stroke-opacity:0.1; fill:none" points="1269.34,1486.45 1269.34,47.2441 "/>
<polyline clip-path="url(#clip062)" style="stroke:#000000; stroke-linecap:round; stroke-linejoin:round; stroke-width:2; stroke-opacity:0.1; fill:none" points="1780.39,1486.45 1780.39,47.2441 "/>
<polyline clip-path="url(#clip062)" style="stroke:#000000; stroke-linecap:round; stroke-linejoin:round; stroke-width:2; stroke-opacity:0.1; fill:none" points="2291.43,1486.45 2291.43,47.2441 "/>
<polyline clip-path="url(#clip060)" style="stroke:#000000; stroke-linecap:round; stroke-linejoin:round; stroke-width:4; stroke-opacity:1; fill:none" points="185.927,1486.45 2352.76,1486.45 "/>
<polyline clip-path="url(#clip060)" style="stroke:#000000; stroke-linecap:round; stroke-linejoin:round; stroke-width:4; stroke-opacity:1; fill:none" points="247.252,1486.45 247.252,1467.55 "/>
<polyline clip-path="url(#clip060)" style="stroke:#000000; stroke-linecap:round; stroke-linejoin:round; stroke-width:4; stroke-opacity:1; fill:none" points="758.297,1486.45 758.297,1467.55 "/>
<polyline clip-path="url(#clip060)" style="stroke:#000000; stroke-linecap:round; stroke-linejoin:round; stroke-width:4; stroke-opacity:1; fill:none" points="1269.34,1486.45 1269.34,1467.55 "/>
<polyline clip-path="url(#clip060)" style="stroke:#000000; stroke-linecap:round; stroke-linejoin:round; stroke-width:4; stroke-opacity:1; fill:none" points="1780.39,1486.45 1780.39,1467.55 "/>
<polyline clip-path="url(#clip060)" style="stroke:#000000; stroke-linecap:round; stroke-linejoin:round; stroke-width:4; stroke-opacity:1; fill:none" points="2291.43,1486.45 2291.43,1467.55 "/>
<path clip-path="url(#clip060)" d="M247.252 1517.37 Q243.641 1517.37 241.812 1520.93 Q240.007 1524.47 240.007 1531.6 Q240.007 1538.71 241.812 1542.27 Q243.641 1545.82 247.252 1545.82 Q250.886 1545.82 252.692 1542.27 Q254.521 1538.71 254.521 1531.6 Q254.521 1524.47 252.692 1520.93 Q250.886 1517.37 247.252 1517.37 M247.252 1513.66 Q253.062 1513.66 256.118 1518.27 Q259.197 1522.85 259.197 1531.6 Q259.197 1540.33 256.118 1544.94 Q253.062 1549.52 247.252 1549.52 Q241.442 1549.52 238.363 1544.94 Q235.308 1540.33 235.308 1531.6 Q235.308 1522.85 238.363 1518.27 Q241.442 1513.66 247.252 1513.66 Z" fill="#000000" fill-rule="nonzero" fill-opacity="1" /><path clip-path="url(#clip060)" d="M717.915 1514.29 L736.271 1514.29 L736.271 1518.22 L722.197 1518.22 L722.197 1526.7 Q723.216 1526.35 724.234 1526.19 Q725.253 1526 726.271 1526 Q732.058 1526 735.438 1529.17 Q738.818 1532.34 738.818 1537.76 Q738.818 1543.34 735.345 1546.44 Q731.873 1549.52 725.554 1549.52 Q723.378 1549.52 721.109 1549.15 Q718.864 1548.78 716.457 1548.04 L716.457 1543.34 Q718.54 1544.47 720.762 1545.03 Q722.984 1545.58 725.461 1545.58 Q729.466 1545.58 731.804 1543.48 Q734.142 1541.37 734.142 1537.76 Q734.142 1534.15 731.804 1532.04 Q729.466 1529.94 725.461 1529.94 Q723.586 1529.94 721.711 1530.35 Q719.859 1530.77 717.915 1531.65 L717.915 1514.29 Z" fill="#000000" fill-rule="nonzero" fill-opacity="1" /><path clip-path="url(#clip060)" d="M758.031 1517.37 Q754.419 1517.37 752.591 1520.93 Q750.785 1524.47 750.785 1531.6 Q750.785 1538.71 752.591 1542.27 Q754.419 1545.82 758.031 1545.82 Q761.665 1545.82 763.47 1542.27 Q765.299 1538.71 765.299 1531.6 Q765.299 1524.47 763.47 1520.93 Q761.665 1517.37 758.031 1517.37 M758.031 1513.66 Q763.841 1513.66 766.896 1518.27 Q769.975 1522.85 769.975 1531.6 Q769.975 1540.33 766.896 1544.94 Q763.841 1549.52 758.031 1549.52 Q752.22 1549.52 749.142 1544.94 Q746.086 1540.33 746.086 1531.6 Q746.086 1522.85 749.142 1518.27 Q752.22 1513.66 758.031 1513.66 Z" fill="#000000" fill-rule="nonzero" fill-opacity="1" /><path clip-path="url(#clip060)" d="M788.192 1517.37 Q784.581 1517.37 782.753 1520.93 Q780.947 1524.47 780.947 1531.6 Q780.947 1538.71 782.753 1542.27 Q784.581 1545.82 788.192 1545.82 Q791.827 1545.82 793.632 1542.27 Q795.461 1538.71 795.461 1531.6 Q795.461 1524.47 793.632 1520.93 Q791.827 1517.37 788.192 1517.37 M788.192 1513.66 Q794.003 1513.66 797.058 1518.27 Q800.137 1522.85 800.137 1531.6 Q800.137 1540.33 797.058 1544.94 Q794.003 1549.52 788.192 1549.52 Q782.382 1549.52 779.304 1544.94 Q776.248 1540.33 776.248 1531.6 Q776.248 1522.85 779.304 1518.27 Q782.382 1513.66 788.192 1513.66 Z" fill="#000000" fill-rule="nonzero" fill-opacity="1" /><path clip-path="url(#clip060)" d="M1213.87 1544.91 L1221.51 1544.91 L1221.51 1518.55 L1213.2 1520.21 L1213.2 1515.95 L1221.46 1514.29 L1226.14 1514.29 L1226.14 1544.91 L1233.77 1544.91 L1233.77 1548.85 L1213.87 1548.85 L1213.87 1544.91 Z" fill="#000000" fill-rule="nonzero" fill-opacity="1" /><path clip-path="url(#clip060)" d="M1253.22 1517.37 Q1249.61 1517.37 1247.78 1520.93 Q1245.97 1524.47 1245.97 1531.6 Q1245.97 1538.71 1247.78 1542.27 Q1249.61 1545.82 1253.22 1545.82 Q1256.85 1545.82 1258.66 1542.27 Q1260.49 1538.71 1260.49 1531.6 Q1260.49 1524.47 1258.66 1520.93 Q1256.85 1517.37 1253.22 1517.37 M1253.22 1513.66 Q1259.03 1513.66 1262.08 1518.27 Q1265.16 1522.85 1265.16 1531.6 Q1265.16 1540.33 1262.08 1544.94 Q1259.03 1549.52 1253.22 1549.52 Q1247.41 1549.52 1244.33 1544.94 Q1241.27 1540.33 1241.27 1531.6 Q1241.27 1522.85 1244.33 1518.27 Q1247.41 1513.66 1253.22 1513.66 Z" fill="#000000" fill-rule="nonzero" fill-opacity="1" /><path clip-path="url(#clip060)" d="M1283.38 1517.37 Q1279.77 1517.37 1277.94 1520.93 Q1276.14 1524.47 1276.14 1531.6 Q1276.14 1538.71 1277.94 1542.27 Q1279.77 1545.82 1283.38 1545.82 Q1287.01 1545.82 1288.82 1542.27 Q1290.65 1538.71 1290.65 1531.6 Q1290.65 1524.47 1288.82 1520.93 Q1287.01 1517.37 1283.38 1517.37 M1283.38 1513.66 Q1289.19 1513.66 1292.25 1518.27 Q1295.33 1522.85 1295.33 1531.6 Q1295.33 1540.33 1292.25 1544.94 Q1289.19 1549.52 1283.38 1549.52 Q1277.57 1549.52 1274.49 1544.94 Q1271.44 1540.33 1271.44 1531.6 Q1271.44 1522.85 1274.49 1518.27 Q1277.57 1513.66 1283.38 1513.66 Z" fill="#000000" fill-rule="nonzero" fill-opacity="1" /><path clip-path="url(#clip060)" d="M1313.54 1517.37 Q1309.93 1517.37 1308.1 1520.93 Q1306.3 1524.47 1306.3 1531.6 Q1306.3 1538.71 1308.1 1542.27 Q1309.93 1545.82 1313.54 1545.82 Q1317.18 1545.82 1318.98 1542.27 Q1320.81 1538.71 1320.81 1531.6 Q1320.81 1524.47 1318.98 1520.93 Q1317.18 1517.37 1313.54 1517.37 M1313.54 1513.66 Q1319.35 1513.66 1322.41 1518.27 Q1325.49 1522.85 1325.49 1531.6 Q1325.49 1540.33 1322.41 1544.94 Q1319.35 1549.52 1313.54 1549.52 Q1307.73 1549.52 1304.65 1544.94 Q1301.6 1540.33 1301.6 1531.6 Q1301.6 1522.85 1304.65 1518.27 Q1307.73 1513.66 1313.54 1513.66 Z" fill="#000000" fill-rule="nonzero" fill-opacity="1" /><path clip-path="url(#clip060)" d="M1724.91 1544.91 L1732.55 1544.91 L1732.55 1518.55 L1724.24 1520.21 L1724.24 1515.95 L1732.5 1514.29 L1737.18 1514.29 L1737.18 1544.91 L1744.82 1544.91 L1744.82 1548.85 L1724.91 1548.85 L1724.91 1544.91 Z" fill="#000000" fill-rule="nonzero" fill-opacity="1" /><path clip-path="url(#clip060)" d="M1754.31 1514.29 L1772.67 1514.29 L1772.67 1518.22 L1758.59 1518.22 L1758.59 1526.7 Q1759.61 1526.35 1760.63 1526.19 Q1761.65 1526 1762.67 1526 Q1768.45 1526 1771.83 1529.17 Q1775.21 1532.34 1775.21 1537.76 Q1775.21 1543.34 1771.74 1546.44 Q1768.27 1549.52 1761.95 1549.52 Q1759.77 1549.52 1757.5 1549.15 Q1755.26 1548.78 1752.85 1548.04 L1752.85 1543.34 Q1754.93 1544.47 1757.16 1545.03 Q1759.38 1545.58 1761.86 1545.58 Q1765.86 1545.58 1768.2 1543.48 Q1770.54 1541.37 1770.54 1537.76 Q1770.54 1534.15 1768.2 1532.04 Q1765.86 1529.94 1761.86 1529.94 Q1759.98 1529.94 1758.11 1530.35 Q1756.25 1530.77 1754.31 1531.65 L1754.31 1514.29 Z" fill="#000000" fill-rule="nonzero" fill-opacity="1" /><path clip-path="url(#clip060)" d="M1794.43 1517.37 Q1790.81 1517.37 1788.99 1520.93 Q1787.18 1524.47 1787.18 1531.6 Q1787.18 1538.71 1788.99 1542.27 Q1790.81 1545.82 1794.43 1545.82 Q1798.06 1545.82 1799.87 1542.27 Q1801.69 1538.71 1801.69 1531.6 Q1801.69 1524.47 1799.87 1520.93 Q1798.06 1517.37 1794.43 1517.37 M1794.43 1513.66 Q1800.24 1513.66 1803.29 1518.27 Q1806.37 1522.85 1806.37 1531.6 Q1806.37 1540.33 1803.29 1544.94 Q1800.24 1549.52 1794.43 1549.52 Q1788.62 1549.52 1785.54 1544.94 Q1782.48 1540.33 1782.48 1531.6 Q1782.48 1522.85 1785.54 1518.27 Q1788.62 1513.66 1794.43 1513.66 Z" fill="#000000" fill-rule="nonzero" fill-opacity="1" /><path clip-path="url(#clip060)" d="M1824.59 1517.37 Q1820.98 1517.37 1819.15 1520.93 Q1817.34 1524.47 1817.34 1531.6 Q1817.34 1538.71 1819.15 1542.27 Q1820.98 1545.82 1824.59 1545.82 Q1828.22 1545.82 1830.03 1542.27 Q1831.86 1538.71 1831.86 1531.6 Q1831.86 1524.47 1830.03 1520.93 Q1828.22 1517.37 1824.59 1517.37 M1824.59 1513.66 Q1830.4 1513.66 1833.45 1518.27 Q1836.53 1522.85 1836.53 1531.6 Q1836.53 1540.33 1833.45 1544.94 Q1830.4 1549.52 1824.59 1549.52 Q1818.78 1549.52 1815.7 1544.94 Q1812.64 1540.33 1812.64 1531.6 Q1812.64 1522.85 1815.7 1518.27 Q1818.78 1513.66 1824.59 1513.66 Z" fill="#000000" fill-rule="nonzero" fill-opacity="1" /><path clip-path="url(#clip060)" d="M2240.04 1544.91 L2256.36 1544.91 L2256.36 1548.85 L2234.42 1548.85 L2234.42 1544.91 Q2237.08 1542.16 2241.66 1537.53 Q2246.27 1532.88 2247.45 1531.53 Q2249.69 1529.01 2250.57 1527.27 Q2251.48 1525.51 2251.48 1523.82 Q2251.48 1521.07 2249.53 1519.33 Q2247.61 1517.6 2244.51 1517.6 Q2242.31 1517.6 2239.86 1518.36 Q2237.43 1519.13 2234.65 1520.68 L2234.65 1515.95 Q2237.47 1514.82 2239.93 1514.24 Q2242.38 1513.66 2244.42 1513.66 Q2249.79 1513.66 2252.98 1516.35 Q2256.18 1519.03 2256.18 1523.52 Q2256.18 1525.65 2255.37 1527.57 Q2254.58 1529.47 2252.47 1532.07 Q2251.89 1532.74 2248.79 1535.95 Q2245.69 1539.15 2240.04 1544.91 Z" fill="#000000" fill-rule="nonzero" fill-opacity="1" /><path clip-path="url(#clip060)" d="M2276.18 1517.37 Q2272.56 1517.37 2270.74 1520.93 Q2268.93 1524.47 2268.93 1531.6 Q2268.93 1538.71 2270.74 1542.27 Q2272.56 1545.82 2276.18 1545.82 Q2279.81 1545.82 2281.62 1542.27 Q2283.44 1538.71 2283.44 1531.6 Q2283.44 1524.47 2281.62 1520.93 Q2279.81 1517.37 2276.18 1517.37 M2276.18 1513.66 Q2281.99 1513.66 2285.04 1518.27 Q2288.12 1522.85 2288.12 1531.6 Q2288.12 1540.33 2285.04 1544.94 Q2281.99 1549.52 2276.18 1549.52 Q2270.37 1549.52 2267.29 1544.94 Q2264.23 1540.33 2264.23 1531.6 Q2264.23 1522.85 2267.29 1518.27 Q2270.37 1513.66 2276.18 1513.66 Z" fill="#000000" fill-rule="nonzero" fill-opacity="1" /><path clip-path="url(#clip060)" d="M2306.34 1517.37 Q2302.73 1517.37 2300.9 1520.93 Q2299.09 1524.47 2299.09 1531.6 Q2299.09 1538.71 2300.9 1542.27 Q2302.73 1545.82 2306.34 1545.82 Q2309.97 1545.82 2311.78 1542.27 Q2313.61 1538.71 2313.61 1531.6 Q2313.61 1524.47 2311.78 1520.93 Q2309.97 1517.37 2306.34 1517.37 M2306.34 1513.66 Q2312.15 1513.66 2315.2 1518.27 Q2318.28 1522.85 2318.28 1531.6 Q2318.28 1540.33 2315.2 1544.94 Q2312.15 1549.52 2306.34 1549.52 Q2300.53 1549.52 2297.45 1544.94 Q2294.39 1540.33 2294.39 1531.6 Q2294.39 1522.85 2297.45 1518.27 Q2300.53 1513.66 2306.34 1513.66 Z" fill="#000000" fill-rule="nonzero" fill-opacity="1" /><path clip-path="url(#clip060)" d="M2336.5 1517.37 Q2332.89 1517.37 2331.06 1520.93 Q2329.25 1524.47 2329.25 1531.6 Q2329.25 1538.71 2331.06 1542.27 Q2332.89 1545.82 2336.5 1545.82 Q2340.13 1545.82 2341.94 1542.27 Q2343.77 1538.71 2343.77 1531.6 Q2343.77 1524.47 2341.94 1520.93 Q2340.13 1517.37 2336.5 1517.37 M2336.5 1513.66 Q2342.31 1513.66 2345.37 1518.27 Q2348.44 1522.85 2348.44 1531.6 Q2348.44 1540.33 2345.37 1544.94 Q2342.31 1549.52 2336.5 1549.52 Q2330.69 1549.52 2327.61 1544.94 Q2324.56 1540.33 2324.56 1531.6 Q2324.56 1522.85 2327.61 1518.27 Q2330.69 1513.66 2336.5 1513.66 Z" fill="#000000" fill-rule="nonzero" fill-opacity="1" /><polyline clip-path="url(#clip062)" style="stroke:#000000; stroke-linecap:round; stroke-linejoin:round; stroke-width:2; stroke-opacity:0.1; fill:none" points="185.927,1315.83 2352.76,1315.83 "/>
<polyline clip-path="url(#clip062)" style="stroke:#000000; stroke-linecap:round; stroke-linejoin:round; stroke-width:2; stroke-opacity:0.1; fill:none" points="185.927,1052.52 2352.76,1052.52 "/>
<polyline clip-path="url(#clip062)" style="stroke:#000000; stroke-linecap:round; stroke-linejoin:round; stroke-width:2; stroke-opacity:0.1; fill:none" points="185.927,789.214 2352.76,789.214 "/>
<polyline clip-path="url(#clip062)" style="stroke:#000000; stroke-linecap:round; stroke-linejoin:round; stroke-width:2; stroke-opacity:0.1; fill:none" points="185.927,525.908 2352.76,525.908 "/>
<polyline clip-path="url(#clip062)" style="stroke:#000000; stroke-linecap:round; stroke-linejoin:round; stroke-width:2; stroke-opacity:0.1; fill:none" points="185.927,262.602 2352.76,262.602 "/>
<polyline clip-path="url(#clip060)" style="stroke:#000000; stroke-linecap:round; stroke-linejoin:round; stroke-width:4; stroke-opacity:1; fill:none" points="185.927,1486.45 185.927,47.2441 "/>
<polyline clip-path="url(#clip060)" style="stroke:#000000; stroke-linecap:round; stroke-linejoin:round; stroke-width:4; stroke-opacity:1; fill:none" points="185.927,1315.83 204.824,1315.83 "/>
<polyline clip-path="url(#clip060)" style="stroke:#000000; stroke-linecap:round; stroke-linejoin:round; stroke-width:4; stroke-opacity:1; fill:none" points="185.927,1052.52 204.824,1052.52 "/>
<polyline clip-path="url(#clip060)" style="stroke:#000000; stroke-linecap:round; stroke-linejoin:round; stroke-width:4; stroke-opacity:1; fill:none" points="185.927,789.214 204.824,789.214 "/>
<polyline clip-path="url(#clip060)" style="stroke:#000000; stroke-linecap:round; stroke-linejoin:round; stroke-width:4; stroke-opacity:1; fill:none" points="185.927,525.908 204.824,525.908 "/>
<polyline clip-path="url(#clip060)" style="stroke:#000000; stroke-linecap:round; stroke-linejoin:round; stroke-width:4; stroke-opacity:1; fill:none" points="185.927,262.602 204.824,262.602 "/>
<path clip-path="url(#clip060)" d="M53.3995 1329.17 L61.0384 1329.17 L61.0384 1302.8 L52.7282 1304.47 L52.7282 1300.21 L60.9921 1298.55 L65.668 1298.55 L65.668 1329.17 L73.3068 1329.17 L73.3068 1333.11 L53.3995 1333.11 L53.3995 1329.17 Z" fill="#000000" fill-rule="nonzero" fill-opacity="1" /><path clip-path="url(#clip060)" d="M82.7512 1327.23 L87.6354 1327.23 L87.6354 1333.11 L82.7512 1333.11 L82.7512 1327.23 Z" fill="#000000" fill-rule="nonzero" fill-opacity="1" /><path clip-path="url(#clip060)" d="M107.821 1301.62 Q104.209 1301.62 102.381 1305.19 Q100.575 1308.73 100.575 1315.86 Q100.575 1322.97 102.381 1326.53 Q104.209 1330.07 107.821 1330.07 Q111.455 1330.07 113.26 1326.53 Q115.089 1322.97 115.089 1315.86 Q115.089 1308.73 113.26 1305.19 Q111.455 1301.62 107.821 1301.62 M107.821 1297.92 Q113.631 1297.92 116.686 1302.53 Q119.765 1307.11 119.765 1315.86 Q119.765 1324.59 116.686 1329.19 Q113.631 1333.78 107.821 1333.78 Q102.01 1333.78 98.9317 1329.19 Q95.8761 1324.59 95.8761 1315.86 Q95.8761 1307.11 98.9317 1302.53 Q102.01 1297.92 107.821 1297.92 Z" fill="#000000" fill-rule="nonzero" fill-opacity="1" /><path clip-path="url(#clip060)" d="M137.982 1301.62 Q134.371 1301.62 132.543 1305.19 Q130.737 1308.73 130.737 1315.86 Q130.737 1322.97 132.543 1326.53 Q134.371 1330.07 137.982 1330.07 Q141.617 1330.07 143.422 1326.53 Q145.251 1322.97 145.251 1315.86 Q145.251 1308.73 143.422 1305.19 Q141.617 1301.62 137.982 1301.62 M137.982 1297.92 Q143.793 1297.92 146.848 1302.53 Q149.927 1307.11 149.927 1315.86 Q149.927 1324.59 146.848 1329.19 Q143.793 1333.78 137.982 1333.78 Q132.172 1333.78 129.094 1329.19 Q126.038 1324.59 126.038 1315.86 Q126.038 1307.11 129.094 1302.53 Q132.172 1297.92 137.982 1297.92 Z" fill="#000000" fill-rule="nonzero" fill-opacity="1" /><path clip-path="url(#clip060)" d="M54.3949 1065.86 L62.0337 1065.86 L62.0337 1039.5 L53.7236 1041.17 L53.7236 1036.91 L61.9874 1035.24 L66.6633 1035.24 L66.6633 1065.86 L74.3022 1065.86 L74.3022 1069.8 L54.3949 1069.8 L54.3949 1065.86 Z" fill="#000000" fill-rule="nonzero" fill-opacity="1" /><path clip-path="url(#clip060)" d="M83.7466 1063.92 L88.6308 1063.92 L88.6308 1069.8 L83.7466 1069.8 L83.7466 1063.92 Z" fill="#000000" fill-rule="nonzero" fill-opacity="1" /><path clip-path="url(#clip060)" d="M102.844 1065.86 L119.163 1065.86 L119.163 1069.8 L97.2187 1069.8 L97.2187 1065.86 Q99.8808 1063.11 104.464 1058.48 Q109.071 1053.83 110.251 1052.48 Q112.496 1049.96 113.376 1048.23 Q114.279 1046.47 114.279 1044.78 Q114.279 1042.02 112.334 1040.29 Q110.413 1038.55 107.311 1038.55 Q105.112 1038.55 102.659 1039.31 Q100.228 1040.08 97.4502 1041.63 L97.4502 1036.91 Q100.274 1035.77 102.728 1035.19 Q105.182 1034.61 107.219 1034.61 Q112.589 1034.61 115.783 1037.3 Q118.978 1039.98 118.978 1044.48 Q118.978 1046.61 118.168 1048.53 Q117.381 1050.42 115.274 1053.02 Q114.695 1053.69 111.594 1056.91 Q108.492 1060.1 102.844 1065.86 Z" fill="#000000" fill-rule="nonzero" fill-opacity="1" /><path clip-path="url(#clip060)" d="M129.024 1035.24 L147.38 1035.24 L147.38 1039.17 L133.306 1039.17 L133.306 1047.65 Q134.325 1047.3 135.344 1047.14 Q136.362 1046.95 137.381 1046.95 Q143.168 1046.95 146.547 1050.12 Q149.927 1053.29 149.927 1058.71 Q149.927 1064.29 146.455 1067.39 Q142.982 1070.47 136.663 1070.47 Q134.487 1070.47 132.219 1070.1 Q129.973 1069.73 127.566 1068.99 L127.566 1064.29 Q129.649 1065.42 131.871 1065.98 Q134.094 1066.54 136.57 1066.54 Q140.575 1066.54 142.913 1064.43 Q145.251 1062.32 145.251 1058.71 Q145.251 1055.1 142.913 1052.99 Q140.575 1050.89 136.57 1050.89 Q134.695 1050.89 132.82 1051.3 Q130.969 1051.72 129.024 1052.6 L129.024 1035.24 Z" fill="#000000" fill-rule="nonzero" fill-opacity="1" /><path clip-path="url(#clip060)" d="M53.3995 802.559 L61.0384 802.559 L61.0384 776.193 L52.7282 777.86 L52.7282 773.6 L60.9921 771.934 L65.668 771.934 L65.668 802.559 L73.3068 802.559 L73.3068 806.494 L53.3995 806.494 L53.3995 802.559 Z" fill="#000000" fill-rule="nonzero" fill-opacity="1" /><path clip-path="url(#clip060)" d="M82.7512 800.614 L87.6354 800.614 L87.6354 806.494 L82.7512 806.494 L82.7512 800.614 Z" fill="#000000" fill-rule="nonzero" fill-opacity="1" /><path clip-path="url(#clip060)" d="M97.8669 771.934 L116.223 771.934 L116.223 775.869 L102.149 775.869 L102.149 784.341 Q103.168 783.994 104.186 783.832 Q105.205 783.647 106.223 783.647 Q112.01 783.647 115.39 786.818 Q118.77 789.989 118.77 795.406 Q118.77 800.984 115.297 804.086 Q111.825 807.165 105.506 807.165 Q103.33 807.165 101.061 806.795 Q98.8159 806.424 96.4085 805.684 L96.4085 800.984 Q98.4919 802.119 100.714 802.674 Q102.936 803.23 105.413 803.23 Q109.418 803.23 111.756 801.123 Q114.094 799.017 114.094 795.406 Q114.094 791.795 111.756 789.688 Q109.418 787.582 105.413 787.582 Q103.538 787.582 101.663 787.998 Q99.8113 788.415 97.8669 789.295 L97.8669 771.934 Z" fill="#000000" fill-rule="nonzero" fill-opacity="1" /><path clip-path="url(#clip060)" d="M137.982 775.012 Q134.371 775.012 132.543 778.577 Q130.737 782.119 130.737 789.248 Q130.737 796.355 132.543 799.92 Q134.371 803.461 137.982 803.461 Q141.617 803.461 143.422 799.92 Q145.251 796.355 145.251 789.248 Q145.251 782.119 143.422 778.577 Q141.617 775.012 137.982 775.012 M137.982 771.309 Q143.793 771.309 146.848 775.915 Q149.927 780.498 149.927 789.248 Q149.927 797.975 146.848 802.582 Q143.793 807.165 137.982 807.165 Q132.172 807.165 129.094 802.582 Q126.038 797.975 126.038 789.248 Q126.038 780.498 129.094 775.915 Q132.172 771.309 137.982 771.309 Z" fill="#000000" fill-rule="nonzero" fill-opacity="1" /><path clip-path="url(#clip060)" d="M54.3949 539.253 L62.0337 539.253 L62.0337 512.887 L53.7236 514.554 L53.7236 510.295 L61.9874 508.628 L66.6633 508.628 L66.6633 539.253 L74.3022 539.253 L74.3022 543.188 L54.3949 543.188 L54.3949 539.253 Z" fill="#000000" fill-rule="nonzero" fill-opacity="1" /><path clip-path="url(#clip060)" d="M83.7466 537.308 L88.6308 537.308 L88.6308 543.188 L83.7466 543.188 L83.7466 537.308 Z" fill="#000000" fill-rule="nonzero" fill-opacity="1" /><path clip-path="url(#clip060)" d="M97.6354 508.628 L119.857 508.628 L119.857 510.619 L107.311 543.188 L102.427 543.188 L114.233 512.563 L97.6354 512.563 L97.6354 508.628 Z" fill="#000000" fill-rule="nonzero" fill-opacity="1" /><path clip-path="url(#clip060)" d="M129.024 508.628 L147.38 508.628 L147.38 512.563 L133.306 512.563 L133.306 521.035 Q134.325 520.688 135.344 520.526 Q136.362 520.341 137.381 520.341 Q143.168 520.341 146.547 523.512 Q149.927 526.683 149.927 532.1 Q149.927 537.679 146.455 540.781 Q142.982 543.859 136.663 543.859 Q134.487 543.859 132.219 543.489 Q129.973 543.118 127.566 542.378 L127.566 537.679 Q129.649 538.813 131.871 539.368 Q134.094 539.924 136.57 539.924 Q140.575 539.924 142.913 537.818 Q145.251 535.711 145.251 532.1 Q145.251 528.489 142.913 526.382 Q140.575 524.276 136.57 524.276 Q134.695 524.276 132.82 524.693 Q130.969 525.109 129.024 525.989 L129.024 508.628 Z" fill="#000000" fill-rule="nonzero" fill-opacity="1" /><path clip-path="url(#clip060)" d="M56.6171 275.947 L72.9365 275.947 L72.9365 279.882 L50.9921 279.882 L50.9921 275.947 Q53.6541 273.192 58.2375 268.563 Q62.8439 263.91 64.0245 262.567 Q66.2698 260.044 67.1494 258.308 Q68.0522 256.549 68.0522 254.859 Q68.0522 252.104 66.1078 250.368 Q64.1865 248.632 61.0847 248.632 Q58.8856 248.632 56.4319 249.396 Q54.0014 250.16 51.2236 251.711 L51.2236 246.989 Q54.0477 245.855 56.5014 245.276 Q58.955 244.697 60.9921 244.697 Q66.3624 244.697 69.5568 247.382 Q72.7513 250.067 72.7513 254.558 Q72.7513 256.688 71.9411 258.609 Q71.1541 260.507 69.0476 263.1 Q68.4689 263.771 65.367 266.989 Q62.2652 270.183 56.6171 275.947 Z" fill="#000000" fill-rule="nonzero" fill-opacity="1" /><path clip-path="url(#clip060)" d="M82.7512 274.003 L87.6354 274.003 L87.6354 279.882 L82.7512 279.882 L82.7512 274.003 Z" fill="#000000" fill-rule="nonzero" fill-opacity="1" /><path clip-path="url(#clip060)" d="M107.821 248.401 Q104.209 248.401 102.381 251.966 Q100.575 255.507 100.575 262.637 Q100.575 269.743 102.381 273.308 Q104.209 276.85 107.821 276.85 Q111.455 276.85 113.26 273.308 Q115.089 269.743 115.089 262.637 Q115.089 255.507 113.26 251.966 Q111.455 248.401 107.821 248.401 M107.821 244.697 Q113.631 244.697 116.686 249.304 Q119.765 253.887 119.765 262.637 Q119.765 271.364 116.686 275.97 Q113.631 280.553 107.821 280.553 Q102.01 280.553 98.9317 275.97 Q95.8761 271.364 95.8761 262.637 Q95.8761 253.887 98.9317 249.304 Q102.01 244.697 107.821 244.697 Z" fill="#000000" fill-rule="nonzero" fill-opacity="1" /><path clip-path="url(#clip060)" d="M137.982 248.401 Q134.371 248.401 132.543 251.966 Q130.737 255.507 130.737 262.637 Q130.737 269.743 132.543 273.308 Q134.371 276.85 137.982 276.85 Q141.617 276.85 143.422 273.308 Q145.251 269.743 145.251 262.637 Q145.251 255.507 143.422 251.966 Q141.617 248.401 137.982 248.401 M137.982 244.697 Q143.793 244.697 146.848 249.304 Q149.927 253.887 149.927 262.637 Q149.927 271.364 146.848 275.97 Q143.793 280.553 137.982 280.553 Q132.172 280.553 129.094 275.97 Q126.038 271.364 126.038 262.637 Q126.038 253.887 129.094 249.304 Q132.172 244.697 137.982 244.697 Z" fill="#000000" fill-rule="nonzero" fill-opacity="1" /><polyline clip-path="url(#clip062)" style="stroke:#009af9; stroke-linecap:round; stroke-linejoin:round; stroke-width:4; stroke-opacity:1; fill:none" points="247.252,1207.72 248.274,1210.64 249.296,883.866 250.318,888.774 251.34,779.065 252.363,782.777 253.385,1005.79 254.407,1008.83 255.429,1443.92 256.451,1445.72 257.473,819.676 258.495,825.604 259.517,892.384 260.539,895.21 261.561,975.205 262.583,979.839 263.606,529.399 264.628,534.71 265.65,643.226 266.672,648.674 267.694,885.4 268.716,888.517 269.738,990.806 270.76,993.639 271.782,1018.95 272.804,1021.59 273.826,747.115 274.849,750.377 275.871,1172.69 276.893,1175.19 277.915,727.4 278.937,731.963 279.959,998.475 280.981,1000.82 282.003,634.5 283.025,641.519 284.047,510.379 285.069,516.019 286.092,876.1 287.114,878.199 288.136,959.587 289.158,962.283 290.18,483.944 291.202,486.846 292.224,766.056 293.246,769.488 294.268,662.447 295.29,665.238 296.312,825.393 297.335,827.535 298.357,822.305 299.379,826.112 300.401,829.499 301.423,832.539 302.445,854.744 303.467,858.427 304.489,943.728 305.511,946.033 306.533,756.038 307.555,760.824 308.577,907.93 309.6,910.319 310.622,779.291 311.644,782.768 312.666,541.184 313.688,543.464 314.71,604.961 315.732,606.951 316.754,391.528 317.776,396.14 318.798,611.292 319.82,616.564 320.843,876.085 321.865,879.309 322.887,984.069 323.909,985.981 324.931,944.401 325.953,947.649 326.975,625.062 327.997,629.712 329.019,487.916 330.041,491.539 331.063,858.647 332.086,860.483 333.108,1030.03 334.13,1032.48 335.152,760.777 336.174,762.984 337.196,720.706 338.218,723.761 339.24,748.341 340.262,750.519 341.284,722.65 342.306,725.425 343.329,629.749 344.351,634.629 345.373,464.112 346.395,468.389 347.417,752.4 348.439,755.547 349.461,932.371 350.483,935.714 351.505,621.73 352.527,626.996 353.549,707.851 354.572,711.659 355.594,87.9763 356.616,91.6722 357.638,809.101 358.66,811.78 359.682,441.43 360.704,444.154 361.726,340.634 362.748,343.871 363.77,780.26 364.792,782.758 365.814,943.341 366.837,945.527 367.859,875.963 368.881,878.084 369.903,893.597 370.925,895.649 371.947,747.5 372.969,750.111 373.991,912.866 375.013,914.829 376.035,546.445 377.057,548.959 378.08,635.792 379.102,638.618 380.124,545.89 381.146,548.688 382.168,589.765 383.19,592.124 384.212,724.223 385.234,726.134 386.256,876.723 387.278,879.339 388.3,477.893 389.323,480.483 390.345,650.428 391.367,654.322 392.389,781.452 393.411,785.245 394.433,262.014 395.455,266.295 396.477,863.093 397.499,865.853 398.521,772.217 399.543,774.474 400.566,691.508 401.588,694.694 402.61,643.574 403.632,646.547 404.654,603.42 405.676,606.044 406.698,891.294 407.72,893.754 408.742,822.771 409.764,825.948 410.786,655.367 411.808,657.885 412.831,756.023 413.853,758.528 414.875,705.115 415.897,706.737 416.919,857.066 417.941,860.131 418.963,796.852 419.985,799.989 421.007,775.286 422.029,779.256 423.051,847.599 424.074,849.796 425.096,799.994 426.118,801.846 427.14,663.947 428.162,666.439 429.184,874.128 430.206,876.425 431.228,761.719 432.25,763.743 433.272,565.874 434.294,568.339 435.317,771.064 436.339,773.172 437.361,709.069 438.383,713.529 439.405,549.071 440.427,550.928 441.449,828.645 442.471,831.05 443.493,813.874 444.515,816.224 445.537,505.015 446.56,507.051 447.582,817.491 448.604,819.146 449.626,579.421 450.648,581.105 451.67,806.664 452.692,809.106 453.714,716.421 454.736,718.412 455.758,631.899 456.78,633.741 457.803,785.632 458.825,787.635 459.847,814.447 460.869,818.355 461.891,669.272 462.913,671.188 463.935,943.375 464.957,945.502 465.979,837.867 467.001,840.159 468.023,1039.65 469.045,1042.59 470.068,833.631 471.09,835.747 472.112,889.517 473.134,891.79 474.156,758.39 475.178,760.094 476.2,567.509 477.222,569.742 478.244,933.1 479.266,934.723 480.288,867.722 481.311,869.901 482.333,1020.53 483.355,1022.42 484.377,916.412 485.399,917.981 486.421,867.959 487.443,869.175 488.465,884.012 489.487,886.643 490.509,784.285 491.531,785.604 492.554,912.405 493.576,913.993 494.598,741.868 495.62,743.368 496.642,927.239 497.664,928.847 498.686,650.756 499.708,652.159 500.73,727.269 501.752,730.562 502.774,739.237 503.797,740.894 504.819,952.871 505.841,954.226 506.863,659.579 507.885,660.914 508.907,873.04 509.929,875.166 510.951,768.024 511.973,769.511 512.995,810.979 514.017,812.234 515.04,701.813 516.062,706.609 517.084,804.246 518.106,806.177 519.128,916.248 520.15,917.685 521.172,730.526 522.194,731.696 523.216,311.017 524.238,312.377 525.26,562.458 526.282,563.391 527.305,673.494 528.327,674.85 529.349,837.816 530.371,838.796 531.393,819.359 532.415,820.371 533.437,941.326 534.459,943.302 535.481,895.198 536.503,897.886 537.525,780.103 538.548,781.867 539.57,831.593 540.592,832.735 541.614,580.629 542.636,584.022 543.658,580.53 544.68,581.619 545.702,513.65 546.724,515.365 547.746,965.377 548.768,966.51 549.791,692.722 550.813,693.351 551.835,871.62 552.857,872.604 553.879,805.122 554.901,805.97 555.923,684.547 556.945,685.997 557.967,802.22 558.989,803.068 560.011,936.682 561.034,938.121 562.056,557.131 563.078,558.589 564.1,623.865 565.122,625.951 566.144,706.663 567.166,708.082 568.188,837.245 569.21,838.025 570.232,941.26 571.254,942.451 572.277,275.126 573.299,277.73 574.321,966.585 575.343,967.522 576.365,901.552 577.387,902.607 578.409,659.555 579.431,660.564 580.453,683.48 581.475,684.478 582.497,893.454 583.519,894.181 584.542,985.352 585.564,986.322 586.586,656.116 587.608,657.452 588.63,923.49 589.652,924.436 590.674,955.029 591.696,957.548 592.718,774.039 593.74,774.969 594.762,972.994 595.785,974.584 596.807,1013.68 597.829,1015.14 598.851,972.997 599.873,973.815 600.895,1067.24 601.917,1067.98 602.939,972.006 603.961,972.763 604.983,660.886 606.005,662.274 607.028,896.085 608.05,896.604 609.072,977.306 610.094,978.452 611.116,1024.43 612.138,1025.55 613.16,801.506 614.182,802.51 615.204,865.861 616.226,866.431 617.248,970.359 618.271,971.041 619.293,971.301 620.315,971.958 621.337,845.037 622.359,845.574 623.381,957.158 624.403,957.903 625.425,840.386 626.447,841.631 627.469,844.615 628.491,845.394 629.513,1034.28 630.536,1034.96 631.558,482.373 632.58,484.478 633.602,695.671 634.624,696.689 635.646,632.567 636.668,633.631 637.69,998.348 638.712,998.909 639.734,716.473 640.756,717.629 641.779,695.657 642.801,696.28 643.823,697.353 644.845,698.789 645.867,1047.37 646.889,1047.93 647.911,1009.63 648.933,1010.38 649.955,959.982 650.977,960.683 651.999,985.613 653.022,986.842 654.044,790.673 655.066,791.198 656.088,1019.77 657.11,1020.4 658.132,630.985 659.154,632.296 660.176,979.327 661.198,980 662.22,1002.67 663.242,1003.23 664.265,1035.49 665.287,1036.03 666.309,836.906 667.331,837.3 668.353,973.224 669.375,975.889 670.397,989.541 671.419,991.093 672.441,1008.27 673.463,1009.7 674.485,1022.72 675.508,1024.54 676.53,1044.36 677.552,1044.85 678.574,1049.05 679.596,1050.21 680.618,805.155 681.64,805.641 682.662,826.55 683.684,827.065 684.706,1028.78 685.728,1029.28 686.75,1016.16 687.773,1016.58 688.795,849.945 689.817,850.375 690.839,867.156 691.861,867.656 692.883,999.737 693.905,1000.27 694.927,971.063 695.949,971.546 696.971,986.471 697.993,987.583 699.016,1006.76 700.038,1007.16 701.06,1024.32 702.082,1024.7 703.104,771.425 704.126,772.889 705.148,806.186 706.17,806.58 707.192,1014.86 708.214,1015.32 709.236,679.758 710.259,680.162 711.281,1086.46 712.303,1086.81 713.325,972.225 714.347,972.642 715.369,802.881 716.391,803.277 717.413,954.641 718.435,955.267 719.457,1010.66 720.479,1011.04 721.502,1043.66 722.524,1044.06 723.546,663.339 724.568,664.223 725.59,872.745 726.612,873.065 727.634,809.596 728.656,810.165 729.678,974.796 730.7,975.432 731.722,1039.63 732.745,1040.04 733.767,959.489 734.789,960.388 735.811,1031.48 736.833,1032.62 737.855,1003.82 738.877,1004.83 739.899,690.521 740.921,691.858 741.943,855.686 742.965,856.36 743.987,791.879 745.01,792.502 746.032,1067.61 747.054,1067.91 748.076,1012.26 749.098,1012.59 750.12,1018.76 751.142,1019.19 752.164,831.589 753.186,832.136 754.208,991.615 755.23,991.951 756.253,807.306 757.275,807.887 758.297,710.617 759.319,711.122 760.341,1028.85 761.363,1029.67 762.385,823.087 763.407,823.494 764.429,1047.2 765.451,1047.5 766.473,1026.67 767.496,1027.35 768.518,1056.82 769.54,1057.52 770.562,999.699 771.584,1000.43 772.606,1023.2 773.628,1023.54 774.65,1057.98 775.672,1059.81 776.694,996.22 777.716,996.948 778.739,983.752 779.761,984.421 780.783,841.635 781.805,842.224 782.827,1001.64 783.849,1002.15 784.871,807.314 785.893,807.621 786.915,1081.16 787.937,1081.52 788.959,858.585 789.982,858.878 791.004,1050.09 792.026,1050.33 793.048,1052.45 794.07,1052.7 795.092,857.192 796.114,858.196 797.136,884.889 798.158,885.15 799.18,871.81 800.202,872.804 801.224,820.388 802.247,821.06 803.269,1022.78 804.291,1023.08 805.313,1018.02 806.335,1018.4 807.357,1054.06 808.379,1054.42 809.401,870.587 810.423,870.844 811.445,855.804 812.467,856.079 813.49,1023.85 814.512,1024.69 815.534,1021.35 816.556,1021.79 817.578,634.033 818.6,635.378 819.622,635.491 820.644,635.898 821.666,997.057 822.688,998.155 823.71,1046.26 824.733,1046.51 825.755,1051.92 826.777,1052.69 827.799,897.115 828.821,897.463 829.843,1037.12 830.865,1037.36 831.887,1027.85 832.909,1028.39 833.931,815.921 834.953,816.234 835.976,1018.44 836.998,1018.7 838.02,1056.98 839.042,1057.46 840.064,1039.31 841.086,1039.54 842.108,1009.42 843.13,1010.03 844.152,1068.13 845.174,1070.08 846.196,1064.37 847.218,1064.95 848.241,804.85 849.263,805.186 850.285,1016.81 851.307,1017.47 852.329,1047.7 853.351,1047.9 854.373,1052.66 855.395,1053.64 856.417,1035.04 857.439,1035.23 858.461,1040.67 859.484,1040.89 860.506,897.815 861.528,898.186 862.55,1043.75 863.572,1043.96 864.594,1041.66 865.616,1041.94 866.638,1037.6 867.66,1037.86 868.682,1077.13 869.704,1077.4 870.727,835.284 871.749,835.696 872.771,1039.85 873.793,1040.37 874.815,1063.59 875.837,1063.98 876.859,1035.96 877.881,1036.14 878.903,1015.92 879.925,1016.1 880.947,1068.66 881.97,1068.87 882.992,998.628 884.014,998.867 885.036,1043.53 886.058,1043.79 887.08,860.187 888.102,860.559 889.124,899.693 890.146,900.201 891.168,1014.15 892.19,1014.83 893.213,1059.4 894.235,1059.58 895.257,851.852 896.279,852.089 897.301,1037.53 898.323,1037.92 899.345,1089.78 900.367,1089.93 901.389,1030.24 902.411,1030.47 903.433,834.163 904.455,834.568 905.478,1039.45 906.5,1039.64 907.522,1058.85 908.544,1059.49 909.566,858.027 910.588,859.404 911.61,1041.28 912.632,1041.5 913.654,1077.21 914.676,1077.65 915.698,1077.27 916.721,1077.52 917.743,1014.12 918.765,1014.27 919.787,1039.79 920.809,1040.02 921.831,1092 922.853,1092.61 923.875,1049.76 924.897,1050.44 925.919,614.885 926.941,616.59 927.964,1069.25 928.986,1069.39 930.008,1040.42 931.03,1040.8 932.052,1031.5 933.074,1031.71 934.096,1048.8 935.118,1048.94 936.14,1023.55 937.162,1023.69 938.184,1076.39 939.207,1076.68 940.229,1063.93 941.251,1064.08 942.273,1048.61 943.295,1048.81 944.317,1083.27 945.339,1083.47 946.361,1038.17 947.383,1038.56 948.405,1045.4 949.427,1045.53 950.45,1047.52 951.472,1047.65 952.494,1017.49 953.516,1017.91 954.538,1030.81 955.56,1030.95 956.582,1069.96 957.604,1070.19 958.626,1041.47 959.648,1041.62 960.67,1059.88 961.692,1060.39 962.715,1064.31 963.737,1064.52 964.759,1031.9 965.781,1032.41 966.803,1091.7 967.825,1092.85 968.847,832.337 969.869,833.292 970.891,1070.89 971.913,1071.57 972.935,1079.61 973.958,1080.05 974.98,1057.8 976.002,1058.18 977.024,1045.4 978.046,1045.76 979.068,1052.37 980.09,1053.58 981.112,831.524 982.134,831.847 983.156,814.784 984.178,815.652 985.201,1065.73 986.223,1065.95 987.245,1043.12 988.267,1043.25 989.289,1051.32 990.311,1051.44 991.333,1050.11 992.355,1050.77 993.377,839.643 994.399,840.183 995.421,1077.78 996.444,1077.95 997.466,1048.18 998.488,1048.67 999.51,1024.49 1000.53,1024.67 1001.55,825.23 1002.58,825.672 1003.6,1041.38 1004.62,1041.66 1005.64,1086.68 1006.66,1086.81 1007.69,1048.12 1008.71,1048.26 1009.73,1043.96 1010.75,1044.24 1011.77,1064.53 1012.8,1065.8 1013.82,1069.16 1014.84,1069.29 1015.86,1072.22 1016.89,1072.32 1017.91,1042.95 1018.93,1043.07 1019.95,1048.57 1020.97,1049.32 1022,1051.92 1023.02,1052.04 1024.04,1047.27 1025.06,1048.47 1026.08,832.43 1027.11,833.362 1028.13,1067.96 1029.15,1068.1 1030.17,824.174 1031.19,824.436 1032.22,1053.43 1033.24,1053.53 1034.26,809.312 1035.28,809.676 1036.31,1054.49 1037.33,1055.77 1038.35,1051.66 1039.37,1052.32 1040.39,825.944 1041.42,826.202 1042.44,884.655 1043.46,884.976 1044.48,1061.91 1045.5,1062.4 1046.53,1033.95 1047.55,1034.39 1048.57,1070.42 1049.59,1070.53 1050.61,1064.41 1051.64,1064.53 1052.66,1031.55 1053.68,1032.46 1054.7,1059.09 1055.72,1059.4 1056.75,1042.81 1057.77,1044.31 1058.79,1060.76 1059.81,1060.91 1060.84,1076.08 1061.86,1076.32 1062.88,1072.48 1063.9,1072.57 1064.92,834.984 1065.95,835.352 1066.97,1041.2 1067.99,1041.36 1069.01,1058.25 1070.03,1058.34 1071.06,1033.5 1072.08,1033.8 1073.1,808.485 1074.12,810.155 1075.14,830.071 1076.17,830.39 1077.19,832.021 1078.21,832.323 1079.23,1047.48 1080.25,1048.54 1081.28,1072.5 1082.3,1073.01 1083.32,617.786 1084.34,618.874 1085.37,1053.85 1086.39,1054.35 1087.41,1052.44 1088.43,1053.77 1089.45,828.696 1090.48,829.717 1091.5,1055.66 1092.52,1055.91 1093.54,1058.41 1094.56,1058.53 1095.59,1118.02 1096.61,1118.65 1097.63,1051.04 1098.65,1051.21 1099.67,1034.86 1100.7,1035.33 1101.72,834.372 1102.74,835.036 1103.76,600.082 1104.78,602.055 1105.81,855.723 1106.83,856.219 1107.85,1060.1 1108.87,1060.66 1109.9,820.52 1110.92,820.82 1111.94,1058.94 1112.96,1059.9 1113.98,1072.33 1115.01,1072.64 1116.03,1069.96 1117.05,1070.15 1118.07,1109.72 1119.09,1110.85 1120.12,798.035 1121.14,798.47 1122.16,1064.71 1123.18,1065.04 1124.2,1039.94 1125.23,1040.46 1126.25,1043.35 1127.27,1043.43 1128.29,1059.4 1129.32,1059.7 1130.34,1035.67 1131.36,1035.76 1132.38,1076.25 1133.4,1076.34 1134.43,1038.87 1135.45,1038.98 1136.47,1073.7 1137.49,1073.88 1138.51,834.991 1139.54,835.501 1140.56,1049.53 1141.58,1049.64 1142.6,1038.99 1143.62,1039.96 1144.65,815.071 1145.67,815.66 1146.69,859.784 1147.71,860.651 1148.73,1057 1149.76,1057.11 1150.78,1041.51 1151.8,1041.78 1152.82,1081.23 1153.85,1081.73 1154.87,1038.84 1155.89,1038.93 1156.91,1038.01 1157.93,1038.24 1158.96,1060.44 1159.98,1060.56 1161,1063.07 1162.02,1063.44 1163.04,1080.9 1164.07,1081.09 1165.09,1052.71 1166.11,1052.81 1167.13,1049.06 1168.15,1049.46 1169.18,1054.92 1170.2,1055.02 1171.22,1077.71 1172.24,1077.97 1173.26,594.474 1174.29,595.849 1175.31,1037.52 1176.33,1037.9 1177.35,1062.84 1178.38,1062.92 1179.4,1094.78 1180.42,1094.87 1181.44,1066.04 1182.46,1066.35 1183.49,1050.06 1184.51,1050.12 1185.53,1082.45 1186.55,1084.12 1187.57,1060.96 1188.6,1061.38 1189.62,827.016 1190.64,828.21 1191.66,1030.34 1192.68,1030.84 1193.71,832.519 1194.73,833.296 1195.75,854.783 1196.77,856.274 1197.8,837.513 1198.82,838.125 1199.84,1049.48 1200.86,1049.96 1201.88,1053.81 1202.91,1054.32 1203.93,1056.89 1204.95,1057.64 1205.97,1039.36 1206.99,1039.79 1208.02,1066.98 1209.04,1067.25 1210.06,1077.32 1211.08,1077.41 1212.1,1082.1 1213.13,1082.37 1214.15,1041.74 1215.17,1041.85 1216.19,1051.13 1217.21,1051.22 1218.24,1084.82 1219.26,1084.92 1220.28,1049.97 1221.3,1050.18 1222.33,817.411 1223.35,817.741 1224.37,1033.05 1225.39,1033.11 1226.41,1093.81 1227.44,1093.87 1228.46,1098.11 1229.48,1098.48 1230.5,1062.42 1231.52,1062.49 1232.55,1106.59 1233.57,1106.88 1234.59,1109.28 1235.61,1109.68 1236.63,1067.64 1237.66,1068.24 1238.68,1060.29 1239.7,1060.36 1240.72,837.533 1241.74,837.847 1242.77,1053.37 1243.79,1054.18 1244.81,1042.22 1245.83,1042.28 1246.86,1053.44 1247.88,1053.62 1248.9,1051.15 1249.92,1051.21 1250.94,1073.71 1251.97,1073.8 1252.99,1052.51 1254.01,1052.91 1255.03,1086.73 1256.05,1086.78 1257.08,1063.79 1258.1,1064.2 1259.12,807.84 1260.14,808.368 1261.16,1071.47 1262.19,1071.88 1263.21,1036.74 1264.23,1036.84 1265.25,1044.21 1266.28,1044.67 1267.3,1085.89 1268.32,1085.96 1269.34,1039.49 1270.36,1039.55 1271.39,1082.72 1272.41,1082.9 1273.43,813.417 1274.45,813.988 1275.47,1058.61 1276.5,1058.67 1277.52,591.528 1278.54,592.12 1279.56,1072.87 1280.58,1073.24 1281.61,1065.94 1282.63,1066.52 1283.65,818.961 1284.67,819.263 1285.69,1057.82 1286.72,1057.88 1287.74,1050.38 1288.76,1050.43 1289.78,1072.72 1290.81,1072.91 1291.83,1043.02 1292.85,1043.18 1293.87,1054.24 1294.89,1054.72 1295.92,1074.04 1296.94,1074.2 1297.96,1069.56 1298.98,1069.73 1300,1059.5 1301.03,1059.55 1302.05,1056.48 1303.07,1056.7 1304.09,1073.39 1305.11,1073.47 1306.14,1067.26 1307.16,1067.35 1308.18,1075.15 1309.2,1075.26 1310.22,826.166 1311.25,826.522 1312.27,1080.45 1313.29,1080.99 1314.31,808.558 1315.34,809.129 1316.36,1084.8 1317.38,1085.93 1318.4,1080.07 1319.42,1080.61 1320.45,1058.38 1321.47,1058.61 1322.49,1085.42 1323.51,1085.63 1324.53,807.685 1325.56,809.623 1326.58,1073.38 1327.6,1073.44 1328.62,829.721 1329.64,830.071 1330.67,1096.39 1331.69,1096.68 1332.71,828.478 1333.73,829.025 1334.76,1053.49 1335.78,1054.39 1336.8,1068.83 1337.82,1068.98 1338.84,1051.34 1339.87,1051.69 1340.89,1073.74 1341.91,1073.81 1342.93,817.286 1343.95,817.816 1344.98,1060.18 1346,1060.4 1347.02,1061.39 1348.04,1061.45 1349.06,837.935 1350.09,838.768 1351.11,1067.44 1352.13,1067.55 1353.15,1088.82 1354.17,1088.99 1355.2,1089.83 1356.22,1090.15 1357.24,1079.91 1358.26,1080.62 1359.29,822.748 1360.31,823.143 1361.33,1050.92 1362.35,1050.97 1363.37,1071.08 1364.4,1071.13 1365.42,1071.76 1366.44,1071.82 1367.46,1073.88 1368.48,1074.1 1369.51,1054.29 1370.53,1055.7 1371.55,821.088 1372.57,821.453 1373.59,1043.48 1374.62,1045.34 1375.64,1089.5 1376.66,1089.58 1377.68,1076.5 1378.7,1077.01 1379.73,855.295 1380.75,855.698 1381.77,1070.8 1382.79,1070.85 1383.82,1059.47 1384.84,1060.35 1385.86,1070.27 1386.88,1070.32 1387.9,1070.46 1388.93,1070.59 1389.95,1079.16 1390.97,1080.21 1391.99,1067.28 1393.01,1067.52 1394.04,1087.68 1395.06,1087.81 1396.08,1063.53 1397.1,1063.83 1398.12,1094.08 1399.15,1094.13 1400.17,1058.02 1401.19,1058.72 1402.21,1072.13 1403.24,1072.94 1404.26,1062.23 1405.28,1062.84 1406.3,834.048 1407.32,834.388 1408.35,1091.15 1409.37,1091.72 1410.39,1059.17 1411.41,1059.88 1412.43,1087.05 1413.46,1087.1 1414.48,1061.56 1415.5,1062.09 1416.52,1078.59 1417.54,1080.89 1418.57,1058.94 1419.59,1059.15 1420.61,1086.67 1421.63,1086.74 1422.65,1074.24 1423.68,1074.29 1424.7,1075.18 1425.72,1075.22 1426.74,1071.68 1427.77,1071.79 1428.79,1088.24 1429.81,1088.29 1430.83,1074.48 1431.85,1076.35 1432.88,1063.13 1433.9,1063.71 1434.92,1053.79 1435.94,1053.83 1436.96,819.26 1437.99,819.868 1439.01,1067.15 1440.03,1067.23 1441.05,808.002 1442.07,808.425 1443.1,1087.16 1444.12,1087.26 1445.14,814.867 1446.16,815.197 1447.18,1055.9 1448.21,1057.21 1449.23,802.519 1450.25,804.3 1451.27,1067.74 1452.3,1067.78 1453.32,1068.19 1454.34,1068.25 1455.36,815.224 1456.38,815.533 1457.41,1080.75 1458.43,1080.82 1459.45,644.552 1460.47,645.794 1461.49,1094.35 1462.52,1094.41 1463.54,1054.75 1464.56,1054.8 1465.58,836.134 1466.6,836.689 1467.63,1047.3 1468.65,1047.46 1469.67,1081.57 1470.69,1081.6 1471.72,1074.91 1472.74,1075.05 1473.76,1055.78 1474.78,1056.14 1475.8,1074.35 1476.83,1074.59 1477.85,815.439 1478.87,815.778 1479.89,1068.98 1480.91,1069.05 1481.94,1080.94 1482.96,1081.28 1483.98,822.317 1485,822.708 1486.02,1048.73 1487.05,1048.83 1488.07,1095.51 1489.09,1095.55 1490.11,1062 1491.13,1062.24 1492.16,1074.38 1493.18,1075.07 1494.2,803.025 1495.22,803.347 1496.25,1089.07 1497.27,1089.11 1498.29,1067.87 1499.31,1069.23 1500.33,1086.07 1501.36,1087.1 1502.38,800.742 1503.4,801.17 1504.42,1063.24 1505.44,1063.28 1506.47,1067.39 1507.49,1067.87 1508.51,1098.4 1509.53,1098.44 1510.55,1067.9 1511.58,1068.09 1512.6,1058.97 1513.62,1059.42 1514.64,1106.97 1515.66,1107.01 1516.69,1070.26 1517.71,1070.37 1518.73,816.125 1519.75,816.51 1520.78,1069.48 1521.8,1069.57 1522.82,1072.06 1523.84,1072.12 1524.86,1091.38 1525.89,1091.45 1526.91,1100.49 1527.93,1100.84 1528.95,1075.57 1529.97,1075.6 1531,1064.96 1532.02,1065.03 1533.04,1073.57 1534.06,1073.63 1535.08,818.251 1536.11,819.799 1537.13,1067.43 1538.15,1067.47 1539.17,1097.08 1540.19,1099.76 1541.22,1049.92 1542.24,1050.15 1543.26,814.481 1544.28,815.673 1545.31,1076.89 1546.33,1077.04 1547.35,1039.93 1548.37,1041.81 1549.39,1118.57 1550.42,1120.61 1551.44,1076.96 1552.46,1077.07 1553.48,819.052 1554.5,819.414 1555.53,808.437 1556.55,809.251 1557.57,1060.03 1558.59,1060.06 1559.61,1066.68 1560.64,1067.55 1561.66,1098.53 1562.68,1099.44 1563.7,1060.12 1564.73,1060.2 1565.75,820.02 1566.77,820.5 1567.79,1068.55 1568.81,1069.54 1569.84,809.997 1570.86,810.356 1571.88,817.351 1572.9,819.749 1573.92,1077.18 1574.95,1077.35 1575.97,1072.6 1576.99,1072.65 1578.01,1059.87 1579.03,1059.91 1580.06,1058.79 1581.08,1058.86 1582.1,1093.96 1583.12,1094.16 1584.14,1078.99 1585.17,1079.05 1586.19,836.898 1587.21,837.238 1588.23,819.026 1589.26,819.541 1590.28,1085.75 1591.3,1085.8 1592.32,819.66 1593.34,820.099 1594.37,822.381 1595.39,822.886 1596.41,842.971 1597.43,843.415 1598.45,1070.29 1599.48,1070.63 1600.5,1054.33 1601.52,1054.5 1602.54,1054.11 1603.56,1054.17 1604.59,1071.76 1605.61,1071.9 1606.63,1086.09 1607.65,1086.13 1608.67,1097.12 1609.7,1097.79 1610.72,1108.52 1611.74,1109.39 1612.76,1065.5 1613.79,1065.64 1614.81,1086.07 1615.83,1086.18 1616.85,811.298 1617.87,811.68 1618.9,796.149 1619.92,796.847 1620.94,1074.98 1621.96,1076.07 1622.98,1079.77 1624.01,1079.81 1625.03,1067.02 1626.05,1067.06 1627.07,1099.88 1628.09,1099.92 1629.12,1060.72 1630.14,1060.76 1631.16,1067.14 1632.18,1067.32 1633.21,1061.11 1634.23,1061.14 1635.25,1074.13 1636.27,1074.18 1637.29,1061.03 1638.32,1061.11 1639.34,1074.48 1640.36,1074.53 1641.38,806.878 1642.4,807.29 1643.43,1060.39 1644.45,1060.6 1645.47,1061.47 1646.49,1061.62 1647.51,1088.09 1648.54,1088.13 1649.56,1061.26 1650.58,1061.34 1651.6,1081.79 1652.62,1082.26 1653.65,1094.76 1654.67,1094.8 1655.69,1081.49 1656.71,1081.59 1657.74,1094.63 1658.76,1094.98 1659.78,1074.12 1660.8,1074.84 1661.82,822.998 1662.85,823.349 1663.87,1083.03 1664.89,1083.24 1665.91,627.491 1666.93,628.372 1667.96,1064.04 1668.98,1064.82 1670,1074.34 1671.02,1074.56 1672.04,1070.15 1673.07,1070.2 1674.09,1079.81 1675.11,1080.29 1676.13,1081.27 1677.15,1082.05 1678.18,1077.99 1679.2,1078.72 1680.22,1087.35 1681.24,1087.56 1682.27,1074.64 1683.29,1074.88 1684.31,1062.61 1685.33,1062.66 1686.35,817.024 1687.38,817.844 1688.4,1069.24 1689.42,1069.32 1690.44,1064.24 1691.46,1064.32 1692.49,1057.24 1693.51,1057.27 1694.53,1047.37 1695.55,1048.01 1696.57,1082.85 1697.6,1083.36 1698.62,1070.32 1699.64,1070.41 1700.66,1064.47 1701.69,1064.56 1702.71,1083.57 1703.73,1083.61 1704.75,1090.25 1705.77,1090.32 1706.8,1065.71 1707.82,1065.97 1708.84,1049.17 1709.86,1049.51 1710.88,1063.59 1711.91,1063.94 1712.93,1077.38 1713.95,1077.64 1714.97,1077.71 1715.99,1077.74 1717.02,1064.14 1718.04,1064.58 1719.06,1078.03 1720.08,1078.14 1721.1,821.858 1722.13,822.189 1723.15,1064.73 1724.17,1064.84 1725.19,1085.05 1726.22,1085.18 1727.24,1070.49 1728.26,1070.8 1729.28,1071.48 1730.3,1071.95 1731.33,1063.7 1732.35,1064.19 1733.37,1085.57 1734.39,1086.52 1735.41,820.559 1736.44,821.139 1737.46,1084.98 1738.48,1085.01 1739.5,1091.23 1740.52,1091.39 1741.55,1085.08 1742.57,1085.36 1743.59,1099.74 1744.61,1100.48 1745.63,1064.06 1746.66,1064.94 1747.68,1084.8 1748.7,1084.88 1749.72,1070.06 1750.75,1070.31 1751.77,1102.64 1752.79,1102.71 1753.81,1080.15 1754.83,1080.44 1755.86,1058.67 1756.88,1058.82 1757.9,1090.03 1758.92,1090.6 1759.94,1072.73 1760.97,1072.84 1761.99,1077.09 1763.01,1077.12 1764.03,800.59 1765.05,801.021 1766.08,1050.19 1767.1,1050.48 1768.12,1060.25 1769.14,1060.31 1770.17,1082.87 1771.19,1083.21 1772.21,1076.58 1773.23,1077.03 1774.25,1113.64 1775.28,1113.68 1776.3,1051.56 1777.32,1051.93 1778.34,1067.23 1779.36,1067.26 1780.39,1086.06 1781.41,1086.23 1782.43,1074.44 1783.45,1075.79 1784.47,1084.06 1785.5,1084.36 1786.52,285.649 1787.54,287.834 1788.56,536.278 1789.58,538.634 1790.61,1079.82 1791.63,1079.9 1792.65,1086.89 1793.67,1086.96 1794.7,1087.17 1795.72,1087.19 1796.74,1066.91 1797.76,1066.97 1798.78,1074.44 1799.81,1074.74 1800.83,1069.47 1801.85,1069.91 1802.87,1102.78 1803.89,1102.94 1804.92,1067.35 1805.94,1067.41 1806.96,1072.93 1807.98,1073.08 1809,807.703 1810.03,808.19 1811.05,1055.01 1812.07,1055.05 1813.09,1086.61 1814.11,1086.72 1815.14,796.908 1816.16,797.268 1817.18,1068.55 1818.2,1068.63 1819.23,1075.51 1820.25,1075.61 1821.27,1068.18 1822.29,1068.21 1823.31,1071.36 1824.34,1071.82 1825.36,1063.73 1826.38,1064.37 1827.4,1073.94 1828.42,1074.08 1829.45,1069.27 1830.47,1069.37 1831.49,1081.22 1832.51,1081.26 1833.53,551.153 1834.56,551.988 1835.58,1080.51 1836.6,1080.81 1837.62,1087.99 1838.65,1088.03 1839.67,1074.11 1840.69,1074.85 1841.71,1097.39 1842.73,1098.74 1843.76,1079.5 1844.78,1079.78 1845.8,1063 1846.82,1063.02 1847.84,1080.45 1848.87,1080.66 1849.89,1071.97 1850.91,1073.34 1851.93,1101.35 1852.95,1101.4 1853.98,814.687 1855,815.456 1856.02,1075.24 1857.04,1075.28 1858.06,826.271 1859.09,826.853 1860.11,1083.2 1861.13,1083.26 1862.15,1058.07 1863.18,1058.23 1864.2,813.745 1865.22,814.093 1866.24,1065.16 1867.26,1065.75 1868.29,1070.25 1869.31,1070.39 1870.33,1092.37 1871.35,1092.93 1872.37,1095.67 1873.4,1095.7 1874.42,1075.15 1875.44,1075.66 1876.46,1069.05 1877.48,1069.12 1878.51,1062.87 1879.53,1063.21 1880.55,1084.1 1881.57,1084.13 1882.59,1078.94 1883.62,1078.96 1884.64,1106.39 1885.66,1106.43 1886.68,1077.37 1887.71,1077.87 1888.73,1075.46 1889.75,1075.71 1890.77,1078.46 1891.79,1078.49 1892.82,1113.63 1893.84,1113.69 1894.86,1071.83 1895.88,1071.85 1896.9,1074.7 1897.93,1074.89 1898.95,1074.1 1899.97,1074.17 1900.99,833.769 1902.01,834.61 1903.04,1071.36 1904.06,1072.14 1905.08,1083.79 1906.1,1083.98 1907.13,803.56 1908.15,803.934 1909.17,1076.68 1910.19,1076.76 1911.21,1067.81 1912.24,1068.05 1913.26,1084.35 1914.28,1084.51 1915.3,1099.61 1916.32,1099.82 1917.35,1091.85 1918.37,1092.26 1919.39,793.143 1920.41,795.148 1921.43,1089.91 1922.46,1089.98 1923.48,1087.31 1924.5,1087.49 1925.52,1094.61 1926.54,1094.75 1927.57,1081.05 1928.59,1081.29 1929.61,1098.84 1930.63,1098.88 1931.66,1077.1 1932.68,1077.16 1933.7,1073.03 1934.72,1073.08 1935.74,1079.61 1936.77,1079.64 1937.79,1072.56 1938.81,1072.6 1939.83,1089.66 1940.85,1089.78 1941.88,1084.88 1942.9,1084.91 1943.92,1063.85 1944.94,1063.94 1945.96,1087.64 1946.99,1087.93 1948.01,808.42 1949.03,809.246 1950.05,1070.99 1951.07,1071.04 1952.1,1080.28 1953.12,1080.52 1954.14,1064.17 1955.16,1064.26 1956.19,1087.75 1957.21,1088.05 1958.23,1083.16 1959.25,1083.32 1960.27,1071.76 1961.3,1071.8 1962.32,1070.47 1963.34,1070.61 1964.36,1086.9 1965.38,1087.11 1966.41,818.731 1967.43,819.174 1968.45,1100.76 1969.47,1101.06 1970.49,1076.51 1971.52,1076.73 1972.54,1104.66 1973.56,1104.69 1974.58,1060.99 1975.6,1061.16 1976.63,805.68 1977.65,806.212 1978.67,1066.58 1979.69,1066.63 1980.72,1118.76 1981.74,1118.78 1982.76,1088.93 1983.78,1089.31 1984.8,846.988 1985.83,847.506 1986.85,1075.42 1987.87,1075.46 1988.89,1074.84 1989.91,1075.2 1990.94,1072.9 1991.96,1072.92 1992.98,832.594 1994,833.092 1995.02,1106.72 1996.05,1106.78 1997.07,1084.85 1998.09,1085.53 1999.11,1095.13 2000.14,1095.17 2001.16,1069.77 2002.18,1069.81 2003.2,796.889 2004.22,797.764 2005.25,1080.34 2006.27,1080.36 2007.29,1094.25 2008.31,1094.31 2009.33,1100.76 2010.36,1100.78 2011.38,1092.48 2012.4,1092.85 2013.42,1077.72 2014.44,1077.78 2015.47,1086.68 2016.49,1086.82 2017.51,1062.3 2018.53,1063.41 2019.55,1084.17 2020.58,1084.3 2021.6,1089.95 2022.62,1089.98 2023.64,1078.28 2024.67,1078.42 2025.69,808.436 2026.71,808.88 2027.73,541.722 2028.75,543.622 2029.78,1082.99 2030.8,1083.03 2031.82,1082.12 2032.84,1082.13 2033.86,1073.72 2034.89,1073.77 2035.91,1102.77 2036.93,1102.8 2037.95,1091.08 2038.97,1091.23 2040,798.681 2041.02,799.143 2042.04,1088.95 2043.06,1088.99 2044.08,1081.73 2045.11,1082.3 2046.13,1082.9 2047.15,1083.21 2048.17,1065.68 2049.2,1065.85 2050.22,815.848 2051.24,816.232 2052.26,1092.99 2053.28,1093.57 2054.31,1060.11 2055.33,1060.84 2056.35,1083.98 2057.37,1084.37 2058.39,1062.02 2059.42,1062.57 2060.44,1078.91 2061.46,1079.06 2062.48,1095.94 2063.5,1096.3 2064.53,1086.57 2065.55,1086.61 2066.57,1096.82 2067.59,1097.18 2068.62,1100.45 2069.64,1100.48 2070.66,1081.82 2071.68,1081.93 2072.7,795.403 2073.73,796.969 2074.75,828.502 2075.77,829.084 2076.79,1071.3 2077.81,1071.94 2078.84,803.048 2079.86,804.168 2080.88,1079.03 2081.9,1079.2 2082.92,1106.46 2083.95,1106.48 2084.97,1060.99 2085.99,1061.05 2087.01,1061.62 2088.03,1061.79 2089.06,1082.11 2090.08,1082.29 2091.1,811.818 2092.12,812.188 2093.15,1069.72 2094.17,1069.85 2095.19,1085.67 2096.21,1087.24 2097.23,1060.57 2098.26,1060.6 2099.28,803.782 2100.3,804.177 2101.32,1074.5 2102.34,1074.56 2103.37,1073.15 2104.39,1073.29 2105.41,1106.97 2106.43,1107 2107.45,1074.44 2108.48,1074.46 2109.5,1081.64 2110.52,1081.8 2111.54,1074.5 2112.56,1074.52 2113.59,1058.67 2114.61,1059.23 2115.63,1073.74 2116.65,1074.17 2117.68,1066.92 2118.7,1067.35 2119.72,1074.23 2120.74,1074.29 2121.76,1080.74 2122.79,1081.85 2123.81,1086.54 2124.83,1086.69 2125.85,1080.94 2126.87,1080.98 2127.9,1082.72 2128.92,1083.28 2129.94,1077.13 2130.96,1077.27 2131.98,1081.94 2133.01,1081.96 2134.03,1080.19 2135.05,1080.33 2136.07,1081.45 2137.1,1081.49 2138.12,1106.58 2139.14,1106.73 2140.16,1094.54 2141.18,1094.57 2142.21,1087.47 2143.23,1087.63 2144.25,815.741 2145.27,816.122 2146.29,1068.35 2147.32,1068.38 2148.34,1074.89 2149.36,1075.63 2150.38,1083.62 2151.4,1083.97 2152.43,1106.84 2153.45,1107.73 2154.47,1068.44 2155.49,1068.52 2156.51,1075.81 2157.54,1076.29 2158.56,1069.18 2159.58,1069.83 2160.6,1079.54 2161.63,1079.81 2162.65,1074.92 2163.67,1074.98 2164.69,1079.08 2165.71,1079.49 2166.74,1086.62 2167.76,1086.85 2168.78,792.866 2169.8,793.984 2170.82,1072.39 2171.85,1072.75 2172.87,1095.69 2173.89,1095.72 2174.91,1079.44 2175.93,1079.7 2176.96,1079.83 2177.98,1079.96 2179,1087.8 2180.02,1087.96 2181.04,1102.17 2182.07,1102.32 2183.09,790.782 2184.11,791.509 2185.13,1086.75 2186.16,1086.95 2187.18,1074.13 2188.2,1074.29 2189.22,1095.89 2190.24,1095.93 2191.27,1091.43 2192.29,1091.45 2193.31,1082.54 2194.33,1082.6 2195.35,1091.45 2196.38,1091.47 2197.4,1085.47 2198.42,1085.85 2199.44,1087.35 2200.46,1087.55 2201.49,1071.1 2202.51,1071.14 2203.53,1070.89 2204.55,1070.91 2205.58,1081.75 2206.6,1082.43 2207.62,796.98 2208.64,797.354 2209.66,820.548 2210.69,820.932 2211.71,1089 2212.73,1089.07 2213.75,1074.6 2214.77,1074.77 2215.8,1090.96 2216.82,1090.99 2217.84,1082.48 2218.86,1083.09 2219.88,1077.85 2220.91,1078.4 2221.93,1072.54 2222.95,1072.61 2223.97,1076.22 2224.99,1076.63 2226.02,1064.2 2227.04,1066.27 2228.06,1100.35 2229.08,1101 2230.11,1088.13 2231.13,1088.36 2232.15,800.937 2233.17,801.398 2234.19,1091.48 2235.22,1091.5 2236.24,1088.97 2237.26,1089.24 2238.28,1067.32 2239.3,1067.6 2240.33,1093.98 2241.35,1094.09 2242.37,823.788 2243.39,824.256 2244.41,1085.4 2245.44,1085.42 2246.46,1087.13 2247.48,1087.16 2248.5,1109.19 2249.52,1109.31 2250.55,1070.51 2251.57,1071.14 2252.59,1093.84 2253.61,1094.11 2254.64,1080.2 2255.66,1080.31 2256.68,806.278 2257.7,806.711 2258.72,1074.82 2259.75,1075 2260.77,1072.76 2261.79,1073.22 2262.81,811.048 2263.83,811.561 2264.86,1070.15 2265.88,1070.51 2266.9,1078.32 2267.92,1078.36 2268.94,793.411 2269.97,794.019 2270.99,1089.93 2272.01,1089.98 2273.03,1075.84 2274.06,1075.99 2275.08,1074.43 2276.1,1074.76 2277.12,1068.64 2278.14,1068.83 2279.17,1075.81 2280.19,1075.99 2281.21,1090.56 2282.23,1090.58 2283.25,1094.74 2284.28,1095.15 2285.3,1063.87 2286.32,1064.07 2287.34,1077.71 2288.36,1077.82 2289.39,1123.91 2290.41,1124.1 2291.43,1124.27 "/>
<path clip-path="url(#clip060)" d="M2011.42 198.898 L2280.53 198.898 L2280.53 95.2176 L2011.42 95.2176  Z" fill="#ffffff" fill-rule="evenodd" fill-opacity="1"/>
<polyline clip-path="url(#clip060)" style="stroke:#000000; stroke-linecap:round; stroke-linejoin:round; stroke-width:4; stroke-opacity:1; fill:none" points="2011.42,198.898 2280.53,198.898 2280.53,95.2176 2011.42,95.2176 2011.42,198.898 "/>
<polyline clip-path="url(#clip060)" style="stroke:#009af9; stroke-linecap:round; stroke-linejoin:round; stroke-width:4; stroke-opacity:1; fill:none" points="2035.49,147.058 2179.95,147.058 "/>
<path clip-path="url(#clip060)" d="M2217.86 166.745 Q2216.06 171.375 2214.35 172.787 Q2212.63 174.199 2209.76 174.199 L2206.36 174.199 L2206.36 170.634 L2208.86 170.634 Q2210.62 170.634 2211.59 169.8 Q2212.56 168.967 2213.74 165.865 L2214.51 163.921 L2204.02 138.412 L2208.54 138.412 L2216.64 158.689 L2224.74 138.412 L2229.25 138.412 L2217.86 166.745 Z" fill="#000000" fill-rule="nonzero" fill-opacity="1" /><path clip-path="url(#clip060)" d="M2236.55 160.402 L2244.18 160.402 L2244.18 134.037 L2235.87 135.703 L2235.87 131.444 L2244.14 129.778 L2248.81 129.778 L2248.81 160.402 L2256.45 160.402 L2256.45 164.338 L2236.55 164.338 L2236.55 160.402 Z" fill="#000000" fill-rule="nonzero" fill-opacity="1" /></svg>
