<?xml version="1.0" encoding="utf-8"?>
<svg xmlns="http://www.w3.org/2000/svg" xmlns:xlink="http://www.w3.org/1999/xlink" width="600" height="400" viewBox="0 0 2400 1600">
<defs>
  <clipPath id="clip850">
    <rect x="0" y="0" width="2400" height="1600"/>
  </clipPath>
</defs>
<path clip-path="url(#clip850)" d="M0 1600 L2400 1600 L2400 0 L0 0  Z" fill="#ffffff" fill-rule="evenodd" fill-opacity="1"/>
<defs>
  <clipPath id="clip851">
    <rect x="480" y="0" width="1681" height="1600"/>
  </clipPath>
</defs>
<path clip-path="url(#clip850)" d="M137.964 1486.45 L2352.76 1486.45 L2352.76 47.2441 L137.964 47.2441  Z" fill="#ffffff" fill-rule="evenodd" fill-opacity="1"/>
<defs>
  <clipPath id="clip852">
    <rect x="137" y="47" width="2216" height="1440"/>
  </clipPath>
</defs>
<polyline clip-path="url(#clip852)" style="stroke:#000000; stroke-linecap:round; stroke-linejoin:round; stroke-width:2; stroke-opacity:0.1; fill:none" points="200.647,1486.45 200.647,47.2441 "/>
<polyline clip-path="url(#clip852)" style="stroke:#000000; stroke-linecap:round; stroke-linejoin:round; stroke-width:2; stroke-opacity:0.1; fill:none" points="618.532,1486.45 618.532,47.2441 "/>
<polyline clip-path="url(#clip852)" style="stroke:#000000; stroke-linecap:round; stroke-linejoin:round; stroke-width:2; stroke-opacity:0.1; fill:none" points="1036.42,1486.45 1036.42,47.2441 "/>
<polyline clip-path="url(#clip852)" style="stroke:#000000; stroke-linecap:round; stroke-linejoin:round; stroke-width:2; stroke-opacity:0.1; fill:none" points="1454.3,1486.45 1454.3,47.2441 "/>
<polyline clip-path="url(#clip852)" style="stroke:#000000; stroke-linecap:round; stroke-linejoin:round; stroke-width:2; stroke-opacity:0.1; fill:none" points="1872.19,1486.45 1872.19,47.2441 "/>
<polyline clip-path="url(#clip852)" style="stroke:#000000; stroke-linecap:round; stroke-linejoin:round; stroke-width:2; stroke-opacity:0.1; fill:none" points="2290.07,1486.45 2290.07,47.2441 "/>
<polyline clip-path="url(#clip850)" style="stroke:#000000; stroke-linecap:round; stroke-linejoin:round; stroke-width:4; stroke-opacity:1; fill:none" points="137.964,1486.45 2352.76,1486.45 "/>
<polyline clip-path="url(#clip850)" style="stroke:#000000; stroke-linecap:round; stroke-linejoin:round; stroke-width:4; stroke-opacity:1; fill:none" points="200.647,1486.45 200.647,1467.55 "/>
<polyline clip-path="url(#clip850)" style="stroke:#000000; stroke-linecap:round; stroke-linejoin:round; stroke-width:4; stroke-opacity:1; fill:none" points="618.532,1486.45 618.532,1467.55 "/>
<polyline clip-path="url(#clip850)" style="stroke:#000000; stroke-linecap:round; stroke-linejoin:round; stroke-width:4; stroke-opacity:1; fill:none" points="1036.42,1486.45 1036.42,1467.55 "/>
<polyline clip-path="url(#clip850)" style="stroke:#000000; stroke-linecap:round; stroke-linejoin:round; stroke-width:4; stroke-opacity:1; fill:none" points="1454.3,1486.45 1454.3,1467.55 "/>
<polyline clip-path="url(#clip850)" style="stroke:#000000; stroke-linecap:round; stroke-linejoin:round; stroke-width:4; stroke-opacity:1; fill:none" points="1872.19,1486.45 1872.19,1467.55 "/>
<polyline clip-path="url(#clip850)" style="stroke:#000000; stroke-linecap:round; stroke-linejoin:round; stroke-width:4; stroke-opacity:1; fill:none" points="2290.07,1486.45 2290.07,1467.55 "/>
<path clip-path="url(#clip850)" d="M200.647 1517.37 Q197.036 1517.37 195.207 1520.93 Q193.402 1524.47 193.402 1531.6 Q193.402 1538.71 195.207 1542.27 Q197.036 1545.82 200.647 1545.82 Q204.281 1545.82 206.087 1542.27 Q207.915 1538.71 207.915 1531.6 Q207.915 1524.47 206.087 1520.93 Q204.281 1517.37 200.647 1517.37 M200.647 1513.66 Q206.457 1513.66 209.513 1518.27 Q212.591 1522.85 212.591 1531.6 Q212.591 1540.33 209.513 1544.94 Q206.457 1549.52 200.647 1549.52 Q194.837 1549.52 191.758 1544.94 Q188.702 1540.33 188.702 1531.6 Q188.702 1522.85 191.758 1518.27 Q194.837 1513.66 200.647 1513.66 Z" fill="#000000" fill-rule="nonzero" fill-opacity="1" /><path clip-path="url(#clip850)" d="M578.139 1544.91 L585.778 1544.91 L585.778 1518.55 L577.468 1520.21 L577.468 1515.95 L585.731 1514.29 L590.407 1514.29 L590.407 1544.91 L598.046 1544.91 L598.046 1548.85 L578.139 1548.85 L578.139 1544.91 Z" fill="#000000" fill-rule="nonzero" fill-opacity="1" /><path clip-path="url(#clip850)" d="M617.49 1517.37 Q613.879 1517.37 612.051 1520.93 Q610.245 1524.47 610.245 1531.6 Q610.245 1538.71 612.051 1542.27 Q613.879 1545.82 617.49 1545.82 Q621.125 1545.82 622.93 1542.27 Q624.759 1538.71 624.759 1531.6 Q624.759 1524.47 622.93 1520.93 Q621.125 1517.37 617.49 1517.37 M617.49 1513.66 Q623.301 1513.66 626.356 1518.27 Q629.435 1522.85 629.435 1531.6 Q629.435 1540.33 626.356 1544.94 Q623.301 1549.52 617.49 1549.52 Q611.68 1549.52 608.602 1544.94 Q605.546 1540.33 605.546 1531.6 Q605.546 1522.85 608.602 1518.27 Q611.68 1513.66 617.49 1513.66 Z" fill="#000000" fill-rule="nonzero" fill-opacity="1" /><path clip-path="url(#clip850)" d="M647.652 1517.37 Q644.041 1517.37 642.213 1520.93 Q640.407 1524.47 640.407 1531.6 Q640.407 1538.71 642.213 1542.27 Q644.041 1545.82 647.652 1545.82 Q651.287 1545.82 653.092 1542.27 Q654.921 1538.71 654.921 1531.6 Q654.921 1524.47 653.092 1520.93 Q651.287 1517.37 647.652 1517.37 M647.652 1513.66 Q653.462 1513.66 656.518 1518.27 Q659.597 1522.85 659.597 1531.6 Q659.597 1540.33 656.518 1544.94 Q653.462 1549.52 647.652 1549.52 Q641.842 1549.52 638.763 1544.94 Q635.708 1540.33 635.708 1531.6 Q635.708 1522.85 638.763 1518.27 Q641.842 1513.66 647.652 1513.66 Z" fill="#000000" fill-rule="nonzero" fill-opacity="1" /><path clip-path="url(#clip850)" d="M1000.11 1544.91 L1016.43 1544.91 L1016.43 1548.85 L994.485 1548.85 L994.485 1544.91 Q997.147 1542.16 1001.73 1537.53 Q1006.34 1532.88 1007.52 1531.53 Q1009.76 1529.01 1010.64 1527.27 Q1011.54 1525.51 1011.54 1523.82 Q1011.54 1521.07 1009.6 1519.33 Q1007.68 1517.6 1004.58 1517.6 Q1002.38 1517.6 999.925 1518.36 Q997.494 1519.13 994.716 1520.68 L994.716 1515.95 Q997.54 1514.82 999.994 1514.24 Q1002.45 1513.66 1004.48 1513.66 Q1009.86 1513.66 1013.05 1516.35 Q1016.24 1519.03 1016.24 1523.52 Q1016.24 1525.65 1015.43 1527.57 Q1014.65 1529.47 1012.54 1532.07 Q1011.96 1532.74 1008.86 1535.95 Q1005.76 1539.15 1000.11 1544.91 Z" fill="#000000" fill-rule="nonzero" fill-opacity="1" /><path clip-path="url(#clip850)" d="M1036.24 1517.37 Q1032.63 1517.37 1030.8 1520.93 Q1029 1524.47 1029 1531.6 Q1029 1538.71 1030.8 1542.27 Q1032.63 1545.82 1036.24 1545.82 Q1039.88 1545.82 1041.68 1542.27 Q1043.51 1538.71 1043.51 1531.6 Q1043.51 1524.47 1041.68 1520.93 Q1039.88 1517.37 1036.24 1517.37 M1036.24 1513.66 Q1042.05 1513.66 1045.11 1518.27 Q1048.19 1522.85 1048.19 1531.6 Q1048.19 1540.33 1045.11 1544.94 Q1042.05 1549.52 1036.24 1549.52 Q1030.43 1549.52 1027.35 1544.94 Q1024.3 1540.33 1024.3 1531.6 Q1024.3 1522.85 1027.35 1518.27 Q1030.43 1513.66 1036.24 1513.66 Z" fill="#000000" fill-rule="nonzero" fill-opacity="1" /><path clip-path="url(#clip850)" d="M1066.41 1517.37 Q1062.79 1517.37 1060.97 1520.93 Q1059.16 1524.47 1059.16 1531.6 Q1059.16 1538.71 1060.97 1542.27 Q1062.79 1545.82 1066.41 1545.82 Q1070.04 1545.82 1071.85 1542.27 Q1073.67 1538.71 1073.67 1531.6 Q1073.67 1524.47 1071.85 1520.93 Q1070.04 1517.37 1066.41 1517.37 M1066.41 1513.66 Q1072.22 1513.66 1075.27 1518.27 Q1078.35 1522.85 1078.35 1531.6 Q1078.35 1540.33 1075.27 1544.94 Q1072.22 1549.52 1066.41 1549.52 Q1060.6 1549.52 1057.52 1544.94 Q1054.46 1540.33 1054.46 1531.6 Q1054.46 1522.85 1057.52 1518.27 Q1060.6 1513.66 1066.41 1513.66 Z" fill="#000000" fill-rule="nonzero" fill-opacity="1" /><path clip-path="url(#clip850)" d="M1428.06 1530.21 Q1431.42 1530.93 1433.3 1533.2 Q1435.19 1535.47 1435.19 1538.8 Q1435.19 1543.92 1431.68 1546.72 Q1428.16 1549.52 1421.68 1549.52 Q1419.5 1549.52 1417.18 1549.08 Q1414.89 1548.66 1412.44 1547.81 L1412.44 1543.29 Q1414.38 1544.43 1416.7 1545.01 Q1419.01 1545.58 1421.54 1545.58 Q1425.93 1545.58 1428.23 1543.85 Q1430.54 1542.11 1430.54 1538.8 Q1430.54 1535.75 1428.39 1534.03 Q1426.26 1532.3 1422.44 1532.3 L1418.41 1532.3 L1418.41 1528.45 L1422.62 1528.45 Q1426.07 1528.45 1427.9 1527.09 Q1429.73 1525.7 1429.73 1523.11 Q1429.73 1520.45 1427.83 1519.03 Q1425.96 1517.6 1422.44 1517.6 Q1420.52 1517.6 1418.32 1518.01 Q1416.12 1518.43 1413.48 1519.31 L1413.48 1515.14 Q1416.14 1514.4 1418.46 1514.03 Q1420.8 1513.66 1422.86 1513.66 Q1428.18 1513.66 1431.28 1516.09 Q1434.38 1518.5 1434.38 1522.62 Q1434.38 1525.49 1432.74 1527.48 Q1431.1 1529.45 1428.06 1530.21 Z" fill="#000000" fill-rule="nonzero" fill-opacity="1" /><path clip-path="url(#clip850)" d="M1454.06 1517.37 Q1450.45 1517.37 1448.62 1520.93 Q1446.81 1524.47 1446.81 1531.6 Q1446.81 1538.71 1448.62 1542.27 Q1450.45 1545.82 1454.06 1545.82 Q1457.69 1545.82 1459.5 1542.27 Q1461.33 1538.71 1461.33 1531.6 Q1461.33 1524.47 1459.5 1520.93 Q1457.69 1517.37 1454.06 1517.37 M1454.06 1513.66 Q1459.87 1513.66 1462.93 1518.27 Q1466 1522.85 1466 1531.6 Q1466 1540.33 1462.93 1544.94 Q1459.87 1549.52 1454.06 1549.52 Q1448.25 1549.52 1445.17 1544.94 Q1442.12 1540.33 1442.12 1531.6 Q1442.12 1522.85 1445.17 1518.27 Q1448.25 1513.66 1454.06 1513.66 Z" fill="#000000" fill-rule="nonzero" fill-opacity="1" /><path clip-path="url(#clip850)" d="M1484.22 1517.37 Q1480.61 1517.37 1478.78 1520.93 Q1476.98 1524.47 1476.98 1531.6 Q1476.98 1538.71 1478.78 1542.27 Q1480.61 1545.82 1484.22 1545.82 Q1487.86 1545.82 1489.66 1542.27 Q1491.49 1538.71 1491.49 1531.6 Q1491.49 1524.47 1489.66 1520.93 Q1487.86 1517.37 1484.22 1517.37 M1484.22 1513.66 Q1490.03 1513.66 1493.09 1518.27 Q1496.17 1522.85 1496.17 1531.6 Q1496.17 1540.33 1493.09 1544.94 Q1490.03 1549.52 1484.22 1549.52 Q1478.41 1549.52 1475.33 1544.94 Q1472.28 1540.33 1472.28 1531.6 Q1472.28 1522.85 1475.33 1518.27 Q1478.41 1513.66 1484.22 1513.66 Z" fill="#000000" fill-rule="nonzero" fill-opacity="1" /><path clip-path="url(#clip850)" d="M1845.28 1518.36 L1833.47 1536.81 L1845.28 1536.81 L1845.28 1518.36 M1844.05 1514.29 L1849.93 1514.29 L1849.93 1536.81 L1854.86 1536.81 L1854.86 1540.7 L1849.93 1540.7 L1849.93 1548.85 L1845.28 1548.85 L1845.28 1540.7 L1829.68 1540.7 L1829.68 1536.19 L1844.05 1514.29 Z" fill="#000000" fill-rule="nonzero" fill-opacity="1" /><path clip-path="url(#clip850)" d="M1872.59 1517.37 Q1868.98 1517.37 1867.15 1520.93 Q1865.35 1524.47 1865.35 1531.6 Q1865.35 1538.71 1867.15 1542.27 Q1868.98 1545.82 1872.59 1545.82 Q1876.23 1545.82 1878.03 1542.27 Q1879.86 1538.71 1879.86 1531.6 Q1879.86 1524.47 1878.03 1520.93 Q1876.23 1517.37 1872.59 1517.37 M1872.59 1513.66 Q1878.4 1513.66 1881.46 1518.27 Q1884.54 1522.85 1884.54 1531.6 Q1884.54 1540.33 1881.46 1544.94 Q1878.4 1549.52 1872.59 1549.52 Q1866.78 1549.52 1863.7 1544.94 Q1860.65 1540.33 1860.65 1531.6 Q1860.65 1522.85 1863.7 1518.27 Q1866.78 1513.66 1872.59 1513.66 Z" fill="#000000" fill-rule="nonzero" fill-opacity="1" /><path clip-path="url(#clip850)" d="M1902.75 1517.37 Q1899.14 1517.37 1897.32 1520.93 Q1895.51 1524.47 1895.51 1531.6 Q1895.51 1538.71 1897.32 1542.27 Q1899.14 1545.82 1902.75 1545.82 Q1906.39 1545.82 1908.19 1542.27 Q1910.02 1538.71 1910.02 1531.6 Q1910.02 1524.47 1908.19 1520.93 Q1906.39 1517.37 1902.75 1517.37 M1902.75 1513.66 Q1908.56 1513.66 1911.62 1518.27 Q1914.7 1522.85 1914.7 1531.6 Q1914.7 1540.33 1911.62 1544.94 Q1908.56 1549.52 1902.75 1549.52 Q1896.94 1549.52 1893.87 1544.94 Q1890.81 1540.33 1890.81 1531.6 Q1890.81 1522.85 1893.87 1518.27 Q1896.94 1513.66 1902.75 1513.66 Z" fill="#000000" fill-rule="nonzero" fill-opacity="1" /><path clip-path="url(#clip850)" d="M2249.69 1514.29 L2268.05 1514.29 L2268.05 1518.22 L2253.97 1518.22 L2253.97 1526.7 Q2254.99 1526.35 2256.01 1526.19 Q2257.03 1526 2258.05 1526 Q2263.83 1526 2267.21 1529.17 Q2270.59 1532.34 2270.59 1537.76 Q2270.59 1543.34 2267.12 1546.44 Q2263.65 1549.52 2257.33 1549.52 Q2255.15 1549.52 2252.89 1549.15 Q2250.64 1548.78 2248.23 1548.04 L2248.23 1543.34 Q2250.32 1544.47 2252.54 1545.03 Q2254.76 1545.58 2257.24 1545.58 Q2261.24 1545.58 2263.58 1543.48 Q2265.92 1541.37 2265.92 1537.76 Q2265.92 1534.15 2263.58 1532.04 Q2261.24 1529.94 2257.24 1529.94 Q2255.36 1529.94 2253.49 1530.35 Q2251.64 1530.77 2249.69 1531.65 L2249.69 1514.29 Z" fill="#000000" fill-rule="nonzero" fill-opacity="1" /><path clip-path="url(#clip850)" d="M2289.81 1517.37 Q2286.2 1517.37 2284.37 1520.93 Q2282.56 1524.47 2282.56 1531.6 Q2282.56 1538.71 2284.37 1542.27 Q2286.2 1545.82 2289.81 1545.82 Q2293.44 1545.82 2295.25 1542.27 Q2297.08 1538.71 2297.08 1531.6 Q2297.08 1524.47 2295.25 1520.93 Q2293.44 1517.37 2289.81 1517.37 M2289.81 1513.66 Q2295.62 1513.66 2298.67 1518.27 Q2301.75 1522.85 2301.75 1531.6 Q2301.75 1540.33 2298.67 1544.94 Q2295.62 1549.52 2289.81 1549.52 Q2284 1549.52 2280.92 1544.94 Q2277.86 1540.33 2277.86 1531.6 Q2277.86 1522.85 2280.92 1518.27 Q2284 1513.66 2289.81 1513.66 Z" fill="#000000" fill-rule="nonzero" fill-opacity="1" /><path clip-path="url(#clip850)" d="M2319.97 1517.37 Q2316.36 1517.37 2314.53 1520.93 Q2312.72 1524.47 2312.72 1531.6 Q2312.72 1538.71 2314.53 1542.27 Q2316.36 1545.82 2319.97 1545.82 Q2323.6 1545.82 2325.41 1542.27 Q2327.24 1538.71 2327.24 1531.6 Q2327.24 1524.47 2325.41 1520.93 Q2323.6 1517.37 2319.97 1517.37 M2319.97 1513.66 Q2325.78 1513.66 2328.83 1518.27 Q2331.91 1522.85 2331.91 1531.6 Q2331.91 1540.33 2328.83 1544.94 Q2325.78 1549.52 2319.97 1549.52 Q2314.16 1549.52 2311.08 1544.94 Q2308.02 1540.33 2308.02 1531.6 Q2308.02 1522.85 2311.08 1518.27 Q2314.16 1513.66 2319.97 1513.66 Z" fill="#000000" fill-rule="nonzero" fill-opacity="1" /><polyline clip-path="url(#clip852)" style="stroke:#000000; stroke-linecap:round; stroke-linejoin:round; stroke-width:2; stroke-opacity:0.1; fill:none" points="137.964,1292.99 2352.76,1292.99 "/>
<polyline clip-path="url(#clip852)" style="stroke:#000000; stroke-linecap:round; stroke-linejoin:round; stroke-width:2; stroke-opacity:0.1; fill:none" points="137.964,1030.29 2352.76,1030.29 "/>
<polyline clip-path="url(#clip852)" style="stroke:#000000; stroke-linecap:round; stroke-linejoin:round; stroke-width:2; stroke-opacity:0.1; fill:none" points="137.964,767.592 2352.76,767.592 "/>
<polyline clip-path="url(#clip852)" style="stroke:#000000; stroke-linecap:round; stroke-linejoin:round; stroke-width:2; stroke-opacity:0.1; fill:none" points="137.964,504.892 2352.76,504.892 "/>
<polyline clip-path="url(#clip852)" style="stroke:#000000; stroke-linecap:round; stroke-linejoin:round; stroke-width:2; stroke-opacity:0.1; fill:none" points="137.964,242.192 2352.76,242.192 "/>
<polyline clip-path="url(#clip850)" style="stroke:#000000; stroke-linecap:round; stroke-linejoin:round; stroke-width:4; stroke-opacity:1; fill:none" points="137.964,1486.45 137.964,47.2441 "/>
<polyline clip-path="url(#clip850)" style="stroke:#000000; stroke-linecap:round; stroke-linejoin:round; stroke-width:4; stroke-opacity:1; fill:none" points="137.964,1292.99 156.862,1292.99 "/>
<polyline clip-path="url(#clip850)" style="stroke:#000000; stroke-linecap:round; stroke-linejoin:round; stroke-width:4; stroke-opacity:1; fill:none" points="137.964,1030.29 156.862,1030.29 "/>
<polyline clip-path="url(#clip850)" style="stroke:#000000; stroke-linecap:round; stroke-linejoin:round; stroke-width:4; stroke-opacity:1; fill:none" points="137.964,767.592 156.862,767.592 "/>
<polyline clip-path="url(#clip850)" style="stroke:#000000; stroke-linecap:round; stroke-linejoin:round; stroke-width:4; stroke-opacity:1; fill:none" points="137.964,504.892 156.862,504.892 "/>
<polyline clip-path="url(#clip850)" style="stroke:#000000; stroke-linecap:round; stroke-linejoin:round; stroke-width:4; stroke-opacity:1; fill:none" points="137.964,242.192 156.862,242.192 "/>
<path clip-path="url(#clip850)" d="M94.8345 1291.64 Q98.1909 1292.36 100.066 1294.62 Q101.964 1296.89 101.964 1300.23 Q101.964 1305.34 98.4456 1308.14 Q94.9271 1310.94 88.4456 1310.94 Q86.2697 1310.94 83.9549 1310.5 Q81.6633 1310.09 79.2096 1309.23 L79.2096 1304.72 Q81.154 1305.85 83.4688 1306.43 Q85.7836 1307.01 88.3067 1307.01 Q92.7049 1307.01 94.9965 1305.27 Q97.3113 1303.54 97.3113 1300.23 Q97.3113 1297.17 95.1586 1295.46 Q93.0289 1293.72 89.2095 1293.72 L85.1818 1293.72 L85.1818 1289.88 L89.3947 1289.88 Q92.8438 1289.88 94.6724 1288.51 Q96.5011 1287.12 96.5011 1284.53 Q96.5011 1281.87 94.603 1280.46 Q92.728 1279.02 89.2095 1279.02 Q87.2882 1279.02 85.0892 1279.44 Q82.8901 1279.86 80.2512 1280.73 L80.2512 1276.57 Q82.9133 1275.83 85.2281 1275.46 Q87.566 1275.09 89.6262 1275.09 Q94.9502 1275.09 98.0521 1277.52 Q101.154 1279.92 101.154 1284.04 Q101.154 1286.92 99.5104 1288.91 Q97.8669 1290.87 94.8345 1291.64 Z" fill="#000000" fill-rule="nonzero" fill-opacity="1" /><path clip-path="url(#clip850)" d="M90.4364 1028.43 Q87.2882 1028.43 85.4364 1030.58 Q83.6077 1032.73 83.6077 1036.48 Q83.6077 1040.21 85.4364 1042.39 Q87.2882 1044.54 90.4364 1044.54 Q93.5845 1044.54 95.4132 1042.39 Q97.265 1040.21 97.265 1036.48 Q97.265 1032.73 95.4132 1030.58 Q93.5845 1028.43 90.4364 1028.43 M99.7187 1013.78 L99.7187 1018.03 Q97.9595 1017.2 96.1539 1016.76 Q94.3715 1016.32 92.6123 1016.32 Q87.9827 1016.32 85.529 1019.45 Q83.0984 1022.57 82.7512 1028.89 Q84.1169 1026.88 86.1771 1025.81 Q88.2373 1024.72 90.7141 1024.72 Q95.9224 1024.72 98.9317 1027.9 Q101.964 1031.04 101.964 1036.48 Q101.964 1041.81 98.8159 1045.03 Q95.6678 1048.24 90.4364 1048.24 Q84.441 1048.24 81.2697 1043.66 Q78.0985 1039.05 78.0985 1030.33 Q78.0985 1022.13 81.9873 1017.27 Q85.8762 1012.39 92.4271 1012.39 Q94.1863 1012.39 95.9687 1012.73 Q97.7743 1013.08 99.7187 1013.78 Z" fill="#000000" fill-rule="nonzero" fill-opacity="1" /><path clip-path="url(#clip850)" d="M80.3438 784.154 L80.3438 779.895 Q82.1031 780.728 83.9086 781.168 Q85.7142 781.608 87.4503 781.608 Q92.0799 781.608 94.5104 778.506 Q96.9641 775.381 97.3113 769.039 Q95.9687 771.029 93.9086 772.094 Q91.8484 773.159 89.3484 773.159 Q84.1632 773.159 81.1309 770.034 Q78.1216 766.886 78.1216 761.446 Q78.1216 756.122 81.2697 752.904 Q84.4179 749.687 89.6493 749.687 Q95.6447 749.687 98.7928 754.293 Q101.964 758.877 101.964 767.627 Q101.964 775.798 98.0752 780.682 Q94.2095 785.543 87.6586 785.543 Q85.8993 785.543 84.0938 785.196 Q82.2883 784.849 80.3438 784.154 M89.6493 769.502 Q92.7975 769.502 94.6262 767.349 Q96.478 765.196 96.478 761.446 Q96.478 757.719 94.6262 755.567 Q92.7975 753.391 89.6493 753.391 Q86.5012 753.391 84.6494 755.567 Q82.8207 757.719 82.8207 761.446 Q82.8207 765.196 84.6494 767.349 Q86.5012 769.502 89.6493 769.502 Z" fill="#000000" fill-rule="nonzero" fill-opacity="1" /><path clip-path="url(#clip850)" d="M52.2653 518.237 L59.9041 518.237 L59.9041 491.871 L51.594 493.538 L51.594 489.279 L59.8578 487.612 L64.5337 487.612 L64.5337 518.237 L72.1726 518.237 L72.1726 522.172 L52.2653 522.172 L52.2653 518.237 Z" fill="#000000" fill-rule="nonzero" fill-opacity="1" /><path clip-path="url(#clip850)" d="M85.6447 518.237 L101.964 518.237 L101.964 522.172 L80.0197 522.172 L80.0197 518.237 Q82.6818 515.482 87.2651 510.853 Q91.8715 506.2 93.0521 504.857 Q95.2974 502.334 96.1771 500.598 Q97.0798 498.839 97.0798 497.149 Q97.0798 494.394 95.1354 492.658 Q93.2141 490.922 90.1123 490.922 Q87.9132 490.922 85.4595 491.686 Q83.029 492.45 80.2512 494.001 L80.2512 489.279 Q83.0753 488.144 85.529 487.566 Q87.9827 486.987 90.0197 486.987 Q95.39 486.987 98.5845 489.672 Q101.779 492.357 101.779 496.848 Q101.779 498.978 100.969 500.899 Q100.182 502.797 98.0752 505.39 Q97.4965 506.061 94.3947 509.279 Q91.2928 512.473 85.6447 518.237 Z" fill="#000000" fill-rule="nonzero" fill-opacity="1" /><path clip-path="url(#clip850)" d="M51.6634 255.537 L59.3023 255.537 L59.3023 229.171 L50.9921 230.838 L50.9921 226.579 L59.256 224.912 L63.9319 224.912 L63.9319 255.537 L71.5707 255.537 L71.5707 259.472 L51.6634 259.472 L51.6634 255.537 Z" fill="#000000" fill-rule="nonzero" fill-opacity="1" /><path clip-path="url(#clip850)" d="M81.0614 224.912 L99.4178 224.912 L99.4178 228.847 L85.3438 228.847 L85.3438 237.32 Q86.3623 236.972 87.3808 236.81 Q88.3993 236.625 89.4178 236.625 Q95.2049 236.625 98.5845 239.796 Q101.964 242.968 101.964 248.384 Q101.964 253.963 98.4919 257.065 Q95.0197 260.144 88.7003 260.144 Q86.5243 260.144 84.2558 259.773 Q82.0105 259.403 79.6031 258.662 L79.6031 253.963 Q81.6864 255.097 83.9086 255.653 Q86.1308 256.208 88.6077 256.208 Q92.6123 256.208 94.9502 254.102 Q97.2882 251.995 97.2882 248.384 Q97.2882 244.773 94.9502 242.667 Q92.6123 240.56 88.6077 240.56 Q86.7327 240.56 84.8577 240.977 Q83.0058 241.394 81.0614 242.273 L81.0614 224.912 Z" fill="#000000" fill-rule="nonzero" fill-opacity="1" /><polyline clip-path="url(#clip852)" style="stroke:#009af9; stroke-linecap:round; stroke-linejoin:round; stroke-width:4; stroke-opacity:1; fill:none" points="200.647,833.742 204.826,833.783 209.005,1067.74 213.183,1067.76 217.362,1087.16 221.541,1087.18 225.72,767.472 229.899,767.496 234.078,883.02 238.257,883.076 242.435,515.259 246.614,515.31 250.793,1196.78 254.972,1196.8 259.151,1196.73 263.33,1196.75 267.509,1174.07 271.687,1174.08 275.866,981.586 280.045,981.617 284.224,1150.59 288.403,1150.61 292.582,823.075 296.76,823.121 300.939,869.952 305.118,869.982 309.297,1301.29 313.476,1301.3 317.655,997.697 321.834,997.717 326.012,916.094 330.191,916.132 334.37,1230.74 338.549,1230.75 342.728,745.637 346.907,745.679 351.086,1087.04 355.264,1087.06 359.443,846.064 363.622,846.093 367.801,917.187 371.98,917.215 376.159,1022.92 380.338,1022.95 384.516,938.547 388.695,938.571 392.874,1143.72 397.053,1143.73 401.232,1303.02 405.411,1303.02 409.589,1314.14 413.768,1314.15 417.947,827.334 422.126,827.39 426.305,791.309 430.484,791.348 434.663,1036.26 438.841,1036.28 443.02,1072.85 447.199,1072.87 451.378,902.604 455.557,902.657 459.736,1445.71 463.915,1445.72 468.093,976.361 472.272,976.382 476.451,1103.09 480.63,1103.11 484.809,1062.11 488.988,1062.13 493.167,803.863 497.345,803.908 501.524,1063.98 505.703,1064 509.882,1127.77 514.061,1127.79 518.24,1111.15 522.419,1111.16 526.597,903.192 530.776,903.233 534.955,888.463 539.134,888.515 543.313,1388.21 547.492,1388.22 551.67,1266.87 555.849,1266.87 560.028,952.024 564.207,952.063 568.386,1080.12 572.565,1080.14 576.744,1048.02 580.922,1048.04 585.101,947.895 589.28,947.932 593.459,1047.41 597.638,1047.44 601.817,1064.32 605.996,1064.34 610.174,1124.21 614.353,1124.24 618.532,1105 622.711,1105.01 626.89,1119 631.069,1119.02 635.248,1127.7 639.426,1127.73 643.605,966.868 647.784,966.884 651.963,995.256 656.142,995.283 660.321,623.628 664.499,623.671 668.678,1083.13 672.857,1083.14 677.036,1278.1 681.215,1278.11 685.394,1181.32 689.573,1181.34 693.751,1150.44 697.93,1150.46 702.109,1054.1 706.288,1054.11 710.467,883.464 714.646,883.503 718.825,787.818 723.003,787.877 727.182,1206.75 731.361,1206.77 735.54,998.2 739.719,998.231 743.898,928.589 748.077,928.612 752.255,1291.78 756.434,1291.78 760.613,1039.16 764.792,1039.2 768.971,1109.41 773.15,1109.43 777.329,1327.5 781.507,1327.51 785.686,1144 789.865,1144.01 794.044,932.607 798.223,932.651 802.402,1102.87 806.58,1102.9 810.759,1210.48 814.938,1210.49 819.117,770.773 823.296,770.814 827.475,1033.77 831.654,1033.79 835.832,1324.84 840.011,1324.85 844.19,861.405 848.369,861.431 852.548,1186.96 856.727,1186.97 860.906,818.677 865.084,818.711 869.263,1165.74 873.442,1165.75 877.621,1189.24 881.8,1189.25 885.979,964.76 890.158,964.791 894.336,87.9763 898.515,88.1014 902.694,1436.16 906.873,1436.17 911.052,1161.42 915.231,1161.43 919.409,1107.9 923.588,1107.91 927.767,1094.48 931.946,1094.5 936.125,779.615 940.304,779.65 944.483,1026.62 948.661,1026.65 952.84,858.197 957.019,858.26 961.198,1354.23 965.377,1354.24 969.556,972.859 973.735,972.895 977.913,887.61 982.092,887.642 986.271,949.765 990.45,949.789 994.629,1196.25 998.808,1196.26 1002.99,829.505 1007.17,829.527 1011.34,1059.48 1015.52,1059.5 1019.7,667.743 1023.88,667.812 1028.06,1313.78 1032.24,1313.79 1036.42,1280.34 1040.6,1280.35 1044.78,935.561 1048.95,935.589 1053.13,1084.65 1057.31,1084.67 1061.49,949.618 1065.67,949.642 1069.85,1171.29 1074.03,1171.3 1078.21,1078.93 1082.38,1078.95 1086.56,1202.67 1090.74,1202.68 1094.92,1031.98 1099.1,1032 1103.28,750.015 1107.46,750.064 1111.64,871.012 1115.82,871.052 1119.99,944.366 1124.17,944.394 1128.35,1020.42 1132.53,1020.44 1136.71,300.488 1140.89,300.55 1145.07,1368.8 1149.25,1368.81 1153.43,1065 1157.6,1065.02 1161.78,1276.94 1165.96,1276.95 1170.14,797.538 1174.32,797.591 1178.5,725.301 1182.68,725.344 1186.86,359.375 1191.03,359.473 1195.21,1195.83 1199.39,1195.84 1203.57,1121.58 1207.75,1121.59 1211.93,1017.32 1216.11,1017.35 1220.29,717.267 1224.47,717.361 1228.64,887.878 1232.82,887.904 1237,906.222 1241.18,906.276 1245.36,1262.84 1249.54,1262.85 1253.72,980.434 1257.9,980.466 1262.08,846.483 1266.25,846.532 1270.43,1189.86 1274.61,1189.88 1278.79,1089.6 1282.97,1089.62 1287.15,1117.87 1291.33,1117.9 1295.51,1006.89 1299.69,1006.91 1303.86,1026.21 1308.04,1026.23 1312.22,1209.78 1316.4,1209.79 1320.58,982.638 1324.76,982.663 1328.94,1008.42 1333.12,1008.45 1337.29,776.068 1341.47,776.105 1345.65,519.878 1349.83,519.985 1354.01,881.444 1358.19,881.478 1362.37,1299.88 1366.55,1299.89 1370.73,1047.66 1374.9,1047.69 1379.08,740.927 1383.26,740.974 1387.44,957.502 1391.62,957.53 1395.8,1072.46 1399.98,1072.48 1404.16,980.174 1408.34,980.195 1412.51,559.475 1416.69,559.55 1420.87,715.368 1425.05,715.401 1429.23,1045.56 1433.41,1045.58 1437.59,909.666 1441.77,909.699 1445.94,917.537 1450.12,917.561 1454.3,1234.63 1458.48,1234.64 1462.66,1095.88 1466.84,1095.9 1471.02,939.453 1475.2,939.48 1479.38,813.553 1483.55,813.605 1487.73,1193.75 1491.91,1193.77 1496.09,918.895 1500.27,918.931 1504.45,725.789 1508.63,725.827 1512.81,1164.22 1516.99,1164.25 1521.16,1147.15 1525.34,1147.17 1529.52,974.899 1533.7,974.94 1537.88,1276.45 1542.06,1276.46 1546.24,730.948 1550.42,730.985 1554.6,847.637 1558.77,847.672 1562.95,918.133 1567.13,918.16 1571.31,943.905 1575.49,943.93 1579.67,1096.12 1583.85,1096.13 1588.03,972.541 1592.2,972.558 1596.38,987.85 1600.56,987.865 1604.74,773.567 1608.92,773.607 1613.1,1176.16 1617.28,1176.17 1621.46,1192.17 1625.64,1192.19 1629.81,1033.51 1633.99,1033.54 1638.17,1045.58 1642.35,1045.6 1646.53,949.681 1650.71,949.736 1654.89,1022.94 1659.07,1022.95 1663.25,840.086 1667.42,840.12 1671.6,744.648 1675.78,744.715 1679.96,1004.55 1684.14,1004.56 1688.32,1055.45 1692.5,1055.48 1696.68,935.902 1700.85,935.942 1705.03,1189.98 1709.21,1189.99 1713.39,576.461 1717.57,576.493 1721.75,1169.1 1725.93,1169.11 1730.11,1055.71 1734.29,1055.73 1738.46,683.731 1742.64,683.761 1746.82,852.646 1751,852.682 1755.18,514.849 1759.36,514.893 1763.54,939.257 1767.72,939.278 1771.9,1089.07 1776.07,1089.08 1780.25,831.738 1784.43,831.767 1788.61,821.4 1792.79,821.468 1796.97,866.396 1801.15,866.417 1805.33,1024.41 1809.51,1024.43 1813.68,687.763 1817.86,687.815 1822.04,873.234 1826.22,873.281 1830.4,855.655 1834.58,855.688 1838.76,1038.06 1842.94,1038.07 1847.11,971.123 1851.29,971.149 1855.47,774.517 1859.65,774.546 1863.83,741.508 1868.01,741.548 1872.19,419.814 1876.37,419.886 1880.55,1037.18 1884.72,1037.22 1888.9,1110 1893.08,1110.03 1897.26,837.668 1901.44,837.705 1905.62,1243.28 1909.8,1243.3 1913.98,1181.06 1918.16,1181.07 1922.33,1216.3 1926.51,1216.33 1930.69,902.644 1934.87,902.672 1939.05,819.884 1943.23,819.92 1947.41,530.527 1951.59,530.58 1955.76,1179.43 1959.94,1179.44 1964.12,931.737 1968.3,931.778 1972.48,850.022 1976.66,850.054 1980.84,979.947 1985.02,979.967 1989.2,260.62 1993.37,260.707 1997.55,1158.06 2001.73,1158.09 2005.91,1034.27 2010.09,1034.3 2014.27,1050.49 2018.45,1050.52 2022.63,820.254 2026.81,820.306 2030.98,514.8 2035.16,514.843 2039.34,1077.21 2043.52,1077.22 2047.7,862.301 2051.88,862.338 2056.06,1046.25 2060.24,1046.29 2064.42,1154.43 2068.59,1154.44 2072.77,947.127 2076.95,947.167 2081.13,1096.39 2085.31,1096.4 2089.49,999.06 2093.67,999.086 2097.85,1236.22 2102.02,1236.23 2106.2,1113.82 2110.38,1113.84 2114.56,936.997 2118.74,937.032 2122.92,895.446 2127.1,895.486 2131.28,1261.81 2135.46,1261.82 2139.63,663.505 2143.81,663.563 2147.99,803.98 2152.17,804.044 2156.35,1004.56 2160.53,1004.58 2164.71,948.01 2168.89,948.027 2173.07,1001.81 2177.24,1001.85 2181.42,1074.61 2185.6,1074.62 2189.78,1381.87 2193.96,1381.88 2198.14,675.785 2202.32,675.84 2206.5,790.83 2210.67,790.86 2214.85,1026.65 2219.03,1026.68 2223.21,1120.72 2227.39,1120.73 2231.57,1149.54 2235.75,1149.55 2239.93,1001.07 2244.11,1001.09 2248.28,1054.57 2252.46,1054.59 2256.64,811.684 2260.82,811.716 2265,1002.18 2269.18,1002.21 2273.36,800.704 2277.54,800.745 2281.72,1321.43 2285.89,1321.44 2290.07,1321.45 "/>
<path clip-path="url(#clip850)" d="M211.79 198.898 L485.7 198.898 L485.7 95.2176 L211.79 95.2176  Z" fill="#ffffff" fill-rule="evenodd" fill-opacity="1"/>
<polyline clip-path="url(#clip850)" style="stroke:#000000; stroke-linecap:round; stroke-linejoin:round; stroke-width:4; stroke-opacity:1; fill:none" points="211.79,198.898 485.7,198.898 485.7,95.2176 211.79,95.2176 211.79,198.898 "/>
<polyline clip-path="url(#clip850)" style="stroke:#009af9; stroke-linecap:round; stroke-linejoin:round; stroke-width:4; stroke-opacity:1; fill:none" points="236.399,147.058 384.052,147.058 "/>
<path clip-path="url(#clip850)" d="M422.503 166.745 Q420.698 171.375 418.985 172.787 Q417.272 174.199 414.402 174.199 L410.999 174.199 L410.999 170.634 L413.499 170.634 Q415.258 170.634 416.23 169.8 Q417.202 168.967 418.383 165.865 L419.147 163.921 L408.661 138.412 L413.175 138.412 L421.277 158.689 L429.378 138.412 L433.892 138.412 L422.503 166.745 Z" fill="#000000" fill-rule="nonzero" fill-opacity="1" /><path clip-path="url(#clip850)" d="M441.184 160.402 L448.823 160.402 L448.823 134.037 L440.513 135.703 L440.513 131.444 L448.776 129.778 L453.452 129.778 L453.452 160.402 L461.091 160.402 L461.091 164.338 L441.184 164.338 L441.184 160.402 Z" fill="#000000" fill-rule="nonzero" fill-opacity="1" /></svg>
