<?xml version="1.0" encoding="utf-8"?>
<svg xmlns="http://www.w3.org/2000/svg" xmlns:xlink="http://www.w3.org/1999/xlink" width="600" height="400" viewBox="0 0 2400 1600">
<defs>
  <clipPath id="clip250">
    <rect x="0" y="0" width="2400" height="1600"/>
  </clipPath>
</defs>
<path clip-path="url(#clip250)" d="M0 1600 L2400 1600 L2400 0 L0 0  Z" fill="#ffffff" fill-rule="evenodd" fill-opacity="1"/>
<defs>
  <clipPath id="clip251">
    <rect x="480" y="0" width="1681" height="1600"/>
  </clipPath>
</defs>
<path clip-path="url(#clip250)" d="M156.598 1486.45 L2352.76 1486.45 L2352.76 47.2441 L156.598 47.2441  Z" fill="#ffffff" fill-rule="evenodd" fill-opacity="1"/>
<defs>
  <clipPath id="clip252">
    <rect x="156" y="47" width="2197" height="1440"/>
  </clipPath>
</defs>
<polyline clip-path="url(#clip252)" style="stroke:#000000; stroke-linecap:round; stroke-linejoin:round; stroke-width:2; stroke-opacity:0.1; fill:none" points="218.754,1486.45 218.754,47.2441 "/>
<polyline clip-path="url(#clip252)" style="stroke:#000000; stroke-linecap:round; stroke-linejoin:round; stroke-width:2; stroke-opacity:0.1; fill:none" points="736.715,1486.45 736.715,47.2441 "/>
<polyline clip-path="url(#clip252)" style="stroke:#000000; stroke-linecap:round; stroke-linejoin:round; stroke-width:2; stroke-opacity:0.1; fill:none" points="1254.68,1486.45 1254.68,47.2441 "/>
<polyline clip-path="url(#clip252)" style="stroke:#000000; stroke-linecap:round; stroke-linejoin:round; stroke-width:2; stroke-opacity:0.1; fill:none" points="1772.64,1486.45 1772.64,47.2441 "/>
<polyline clip-path="url(#clip252)" style="stroke:#000000; stroke-linecap:round; stroke-linejoin:round; stroke-width:2; stroke-opacity:0.1; fill:none" points="2290.6,1486.45 2290.6,47.2441 "/>
<polyline clip-path="url(#clip250)" style="stroke:#000000; stroke-linecap:round; stroke-linejoin:round; stroke-width:4; stroke-opacity:1; fill:none" points="156.598,1486.45 2352.76,1486.45 "/>
<polyline clip-path="url(#clip250)" style="stroke:#000000; stroke-linecap:round; stroke-linejoin:round; stroke-width:4; stroke-opacity:1; fill:none" points="218.754,1486.45 218.754,1467.55 "/>
<polyline clip-path="url(#clip250)" style="stroke:#000000; stroke-linecap:round; stroke-linejoin:round; stroke-width:4; stroke-opacity:1; fill:none" points="736.715,1486.45 736.715,1467.55 "/>
<polyline clip-path="url(#clip250)" style="stroke:#000000; stroke-linecap:round; stroke-linejoin:round; stroke-width:4; stroke-opacity:1; fill:none" points="1254.68,1486.45 1254.68,1467.55 "/>
<polyline clip-path="url(#clip250)" style="stroke:#000000; stroke-linecap:round; stroke-linejoin:round; stroke-width:4; stroke-opacity:1; fill:none" points="1772.64,1486.45 1772.64,1467.55 "/>
<polyline clip-path="url(#clip250)" style="stroke:#000000; stroke-linecap:round; stroke-linejoin:round; stroke-width:4; stroke-opacity:1; fill:none" points="2290.6,1486.45 2290.6,1467.55 "/>
<path clip-path="url(#clip250)" d="M218.754 1517.37 Q215.143 1517.37 213.314 1520.93 Q211.508 1524.47 211.508 1531.6 Q211.508 1538.71 213.314 1542.27 Q215.143 1545.82 218.754 1545.82 Q222.388 1545.82 224.193 1542.27 Q226.022 1538.71 226.022 1531.6 Q226.022 1524.47 224.193 1520.93 Q222.388 1517.37 218.754 1517.37 M218.754 1513.66 Q224.564 1513.66 227.619 1518.27 Q230.698 1522.85 230.698 1531.6 Q230.698 1540.33 227.619 1544.94 Q224.564 1549.52 218.754 1549.52 Q212.943 1549.52 209.865 1544.94 Q206.809 1540.33 206.809 1531.6 Q206.809 1522.85 209.865 1518.27 Q212.943 1513.66 218.754 1513.66 Z" fill="#000000" fill-rule="nonzero" fill-opacity="1" /><path clip-path="url(#clip250)" d="M696.334 1514.29 L714.69 1514.29 L714.69 1518.22 L700.616 1518.22 L700.616 1526.7 Q701.635 1526.35 702.653 1526.19 Q703.672 1526 704.69 1526 Q710.477 1526 713.857 1529.17 Q717.236 1532.34 717.236 1537.76 Q717.236 1543.34 713.764 1546.44 Q710.292 1549.52 703.972 1549.52 Q701.797 1549.52 699.528 1549.15 Q697.283 1548.78 694.875 1548.04 L694.875 1543.34 Q696.959 1544.47 699.181 1545.03 Q701.403 1545.58 703.88 1545.58 Q707.884 1545.58 710.222 1543.48 Q712.56 1541.37 712.56 1537.76 Q712.56 1534.15 710.222 1532.04 Q707.884 1529.94 703.88 1529.94 Q702.005 1529.94 700.13 1530.35 Q698.278 1530.77 696.334 1531.65 L696.334 1514.29 Z" fill="#000000" fill-rule="nonzero" fill-opacity="1" /><path clip-path="url(#clip250)" d="M736.449 1517.37 Q732.838 1517.37 731.009 1520.93 Q729.204 1524.47 729.204 1531.6 Q729.204 1538.71 731.009 1542.27 Q732.838 1545.82 736.449 1545.82 Q740.083 1545.82 741.889 1542.27 Q743.718 1538.71 743.718 1531.6 Q743.718 1524.47 741.889 1520.93 Q740.083 1517.37 736.449 1517.37 M736.449 1513.66 Q742.259 1513.66 745.315 1518.27 Q748.394 1522.85 748.394 1531.6 Q748.394 1540.33 745.315 1544.94 Q742.259 1549.52 736.449 1549.52 Q730.639 1549.52 727.56 1544.94 Q724.505 1540.33 724.505 1531.6 Q724.505 1522.85 727.56 1518.27 Q730.639 1513.66 736.449 1513.66 Z" fill="#000000" fill-rule="nonzero" fill-opacity="1" /><path clip-path="url(#clip250)" d="M766.611 1517.37 Q763 1517.37 761.171 1520.93 Q759.366 1524.47 759.366 1531.6 Q759.366 1538.71 761.171 1542.27 Q763 1545.82 766.611 1545.82 Q770.245 1545.82 772.051 1542.27 Q773.88 1538.71 773.88 1531.6 Q773.88 1524.47 772.051 1520.93 Q770.245 1517.37 766.611 1517.37 M766.611 1513.66 Q772.421 1513.66 775.477 1518.27 Q778.555 1522.85 778.555 1531.6 Q778.555 1540.33 775.477 1544.94 Q772.421 1549.52 766.611 1549.52 Q760.801 1549.52 757.722 1544.94 Q754.667 1540.33 754.667 1531.6 Q754.667 1522.85 757.722 1518.27 Q760.801 1513.66 766.611 1513.66 Z" fill="#000000" fill-rule="nonzero" fill-opacity="1" /><path clip-path="url(#clip250)" d="M1199.2 1544.91 L1206.84 1544.91 L1206.84 1518.55 L1198.53 1520.21 L1198.53 1515.95 L1206.8 1514.29 L1211.47 1514.29 L1211.47 1544.91 L1219.11 1544.91 L1219.11 1548.85 L1199.2 1548.85 L1199.2 1544.91 Z" fill="#000000" fill-rule="nonzero" fill-opacity="1" /><path clip-path="url(#clip250)" d="M1238.55 1517.37 Q1234.94 1517.37 1233.11 1520.93 Q1231.31 1524.47 1231.31 1531.6 Q1231.31 1538.71 1233.11 1542.27 Q1234.94 1545.82 1238.55 1545.82 Q1242.19 1545.82 1243.99 1542.27 Q1245.82 1538.71 1245.82 1531.6 Q1245.82 1524.47 1243.99 1520.93 Q1242.19 1517.37 1238.55 1517.37 M1238.55 1513.66 Q1244.36 1513.66 1247.42 1518.27 Q1250.5 1522.85 1250.5 1531.6 Q1250.5 1540.33 1247.42 1544.94 Q1244.36 1549.52 1238.55 1549.52 Q1232.74 1549.52 1229.67 1544.94 Q1226.61 1540.33 1226.61 1531.6 Q1226.61 1522.85 1229.67 1518.27 Q1232.74 1513.66 1238.55 1513.66 Z" fill="#000000" fill-rule="nonzero" fill-opacity="1" /><path clip-path="url(#clip250)" d="M1268.72 1517.37 Q1265.11 1517.37 1263.28 1520.93 Q1261.47 1524.47 1261.47 1531.6 Q1261.47 1538.71 1263.28 1542.27 Q1265.11 1545.82 1268.72 1545.82 Q1272.35 1545.82 1274.16 1542.27 Q1275.98 1538.71 1275.98 1531.6 Q1275.98 1524.47 1274.16 1520.93 Q1272.35 1517.37 1268.72 1517.37 M1268.72 1513.66 Q1274.53 1513.66 1277.58 1518.27 Q1280.66 1522.85 1280.66 1531.6 Q1280.66 1540.33 1277.58 1544.94 Q1274.53 1549.52 1268.72 1549.52 Q1262.91 1549.52 1259.83 1544.94 Q1256.77 1540.33 1256.77 1531.6 Q1256.77 1522.85 1259.83 1518.27 Q1262.91 1513.66 1268.72 1513.66 Z" fill="#000000" fill-rule="nonzero" fill-opacity="1" /><path clip-path="url(#clip250)" d="M1298.88 1517.37 Q1295.27 1517.37 1293.44 1520.93 Q1291.63 1524.47 1291.63 1531.6 Q1291.63 1538.71 1293.44 1542.27 Q1295.27 1545.82 1298.88 1545.82 Q1302.51 1545.82 1304.32 1542.27 Q1306.15 1538.71 1306.15 1531.6 Q1306.15 1524.47 1304.32 1520.93 Q1302.51 1517.37 1298.88 1517.37 M1298.88 1513.66 Q1304.69 1513.66 1307.74 1518.27 Q1310.82 1522.85 1310.82 1531.6 Q1310.82 1540.33 1307.74 1544.94 Q1304.69 1549.52 1298.88 1549.52 Q1293.07 1549.52 1289.99 1544.94 Q1286.93 1540.33 1286.93 1531.6 Q1286.93 1522.85 1289.99 1518.27 Q1293.07 1513.66 1298.88 1513.66 Z" fill="#000000" fill-rule="nonzero" fill-opacity="1" /><path clip-path="url(#clip250)" d="M1717.16 1544.91 L1724.8 1544.91 L1724.8 1518.55 L1716.49 1520.21 L1716.49 1515.95 L1724.76 1514.29 L1729.43 1514.29 L1729.43 1544.91 L1737.07 1544.91 L1737.07 1548.85 L1717.16 1548.85 L1717.16 1544.91 Z" fill="#000000" fill-rule="nonzero" fill-opacity="1" /><path clip-path="url(#clip250)" d="M1746.56 1514.29 L1764.92 1514.29 L1764.92 1518.22 L1750.84 1518.22 L1750.84 1526.7 Q1751.86 1526.35 1752.88 1526.19 Q1753.9 1526 1754.92 1526 Q1760.71 1526 1764.09 1529.17 Q1767.47 1532.34 1767.47 1537.76 Q1767.47 1543.34 1763.99 1546.44 Q1760.52 1549.52 1754.2 1549.52 Q1752.03 1549.52 1749.76 1549.15 Q1747.51 1548.78 1745.1 1548.04 L1745.1 1543.34 Q1747.19 1544.47 1749.41 1545.03 Q1751.63 1545.58 1754.11 1545.58 Q1758.11 1545.58 1760.45 1543.48 Q1762.79 1541.37 1762.79 1537.76 Q1762.79 1534.15 1760.45 1532.04 Q1758.11 1529.94 1754.11 1529.94 Q1752.23 1529.94 1750.36 1530.35 Q1748.51 1530.77 1746.56 1531.65 L1746.56 1514.29 Z" fill="#000000" fill-rule="nonzero" fill-opacity="1" /><path clip-path="url(#clip250)" d="M1786.68 1517.37 Q1783.07 1517.37 1781.24 1520.93 Q1779.43 1524.47 1779.43 1531.6 Q1779.43 1538.71 1781.24 1542.27 Q1783.07 1545.82 1786.68 1545.82 Q1790.31 1545.82 1792.12 1542.27 Q1793.95 1538.71 1793.95 1531.6 Q1793.95 1524.47 1792.12 1520.93 Q1790.31 1517.37 1786.68 1517.37 M1786.68 1513.66 Q1792.49 1513.66 1795.54 1518.27 Q1798.62 1522.85 1798.62 1531.6 Q1798.62 1540.33 1795.54 1544.94 Q1792.49 1549.52 1786.68 1549.52 Q1780.87 1549.52 1777.79 1544.94 Q1774.73 1540.33 1774.73 1531.6 Q1774.73 1522.85 1777.79 1518.27 Q1780.87 1513.66 1786.68 1513.66 Z" fill="#000000" fill-rule="nonzero" fill-opacity="1" /><path clip-path="url(#clip250)" d="M1816.84 1517.37 Q1813.23 1517.37 1811.4 1520.93 Q1809.59 1524.47 1809.59 1531.6 Q1809.59 1538.71 1811.4 1542.27 Q1813.23 1545.82 1816.84 1545.82 Q1820.47 1545.82 1822.28 1542.27 Q1824.11 1538.71 1824.11 1531.6 Q1824.11 1524.47 1822.28 1520.93 Q1820.47 1517.37 1816.84 1517.37 M1816.84 1513.66 Q1822.65 1513.66 1825.71 1518.27 Q1828.78 1522.85 1828.78 1531.6 Q1828.78 1540.33 1825.71 1544.94 Q1822.65 1549.52 1816.84 1549.52 Q1811.03 1549.52 1807.95 1544.94 Q1804.9 1540.33 1804.9 1531.6 Q1804.9 1522.85 1807.95 1518.27 Q1811.03 1513.66 1816.84 1513.66 Z" fill="#000000" fill-rule="nonzero" fill-opacity="1" /><path clip-path="url(#clip250)" d="M2239.21 1544.91 L2255.53 1544.91 L2255.53 1548.85 L2233.59 1548.85 L2233.59 1544.91 Q2236.25 1542.16 2240.83 1537.53 Q2245.44 1532.88 2246.62 1531.53 Q2248.86 1529.01 2249.74 1527.27 Q2250.65 1525.51 2250.65 1523.82 Q2250.65 1521.07 2248.7 1519.33 Q2246.78 1517.6 2243.68 1517.6 Q2241.48 1517.6 2239.03 1518.36 Q2236.6 1519.13 2233.82 1520.68 L2233.82 1515.95 Q2236.64 1514.82 2239.1 1514.24 Q2241.55 1513.66 2243.59 1513.66 Q2248.96 1513.66 2252.15 1516.35 Q2255.35 1519.03 2255.35 1523.52 Q2255.35 1525.65 2254.54 1527.57 Q2253.75 1529.47 2251.64 1532.07 Q2251.06 1532.74 2247.96 1535.95 Q2244.86 1539.15 2239.21 1544.91 Z" fill="#000000" fill-rule="nonzero" fill-opacity="1" /><path clip-path="url(#clip250)" d="M2275.35 1517.37 Q2271.73 1517.37 2269.91 1520.93 Q2268.1 1524.47 2268.1 1531.6 Q2268.1 1538.71 2269.91 1542.27 Q2271.73 1545.82 2275.35 1545.82 Q2278.98 1545.82 2280.79 1542.27 Q2282.61 1538.71 2282.61 1531.6 Q2282.61 1524.47 2280.79 1520.93 Q2278.98 1517.37 2275.35 1517.37 M2275.35 1513.66 Q2281.16 1513.66 2284.21 1518.27 Q2287.29 1522.85 2287.29 1531.6 Q2287.29 1540.33 2284.21 1544.94 Q2281.16 1549.52 2275.35 1549.52 Q2269.54 1549.52 2266.46 1544.94 Q2263.4 1540.33 2263.4 1531.6 Q2263.4 1522.85 2266.46 1518.27 Q2269.54 1513.66 2275.35 1513.66 Z" fill="#000000" fill-rule="nonzero" fill-opacity="1" /><path clip-path="url(#clip250)" d="M2305.51 1517.37 Q2301.9 1517.37 2300.07 1520.93 Q2298.26 1524.47 2298.26 1531.6 Q2298.26 1538.71 2300.07 1542.27 Q2301.9 1545.82 2305.51 1545.82 Q2309.14 1545.82 2310.95 1542.27 Q2312.78 1538.71 2312.78 1531.6 Q2312.78 1524.47 2310.95 1520.93 Q2309.14 1517.37 2305.51 1517.37 M2305.51 1513.66 Q2311.32 1513.66 2314.37 1518.27 Q2317.45 1522.85 2317.45 1531.6 Q2317.45 1540.33 2314.37 1544.94 Q2311.32 1549.52 2305.51 1549.52 Q2299.7 1549.52 2296.62 1544.94 Q2293.56 1540.33 2293.56 1531.6 Q2293.56 1522.85 2296.62 1518.27 Q2299.7 1513.66 2305.51 1513.66 Z" fill="#000000" fill-rule="nonzero" fill-opacity="1" /><path clip-path="url(#clip250)" d="M2335.67 1517.37 Q2332.06 1517.37 2330.23 1520.93 Q2328.42 1524.47 2328.42 1531.6 Q2328.42 1538.71 2330.23 1542.27 Q2332.06 1545.82 2335.67 1545.82 Q2339.3 1545.82 2341.11 1542.27 Q2342.94 1538.71 2342.94 1531.6 Q2342.94 1524.47 2341.11 1520.93 Q2339.3 1517.37 2335.67 1517.37 M2335.67 1513.66 Q2341.48 1513.66 2344.54 1518.27 Q2347.61 1522.85 2347.61 1531.6 Q2347.61 1540.33 2344.54 1544.94 Q2341.48 1549.52 2335.67 1549.52 Q2329.86 1549.52 2326.78 1544.94 Q2323.73 1540.33 2323.73 1531.6 Q2323.73 1522.85 2326.78 1518.27 Q2329.86 1513.66 2335.67 1513.66 Z" fill="#000000" fill-rule="nonzero" fill-opacity="1" /><polyline clip-path="url(#clip252)" style="stroke:#000000; stroke-linecap:round; stroke-linejoin:round; stroke-width:2; stroke-opacity:0.1; fill:none" points="156.598,1311.73 2352.76,1311.73 "/>
<polyline clip-path="url(#clip252)" style="stroke:#000000; stroke-linecap:round; stroke-linejoin:round; stroke-width:2; stroke-opacity:0.1; fill:none" points="156.598,970.462 2352.76,970.462 "/>
<polyline clip-path="url(#clip252)" style="stroke:#000000; stroke-linecap:round; stroke-linejoin:round; stroke-width:2; stroke-opacity:0.1; fill:none" points="156.598,629.195 2352.76,629.195 "/>
<polyline clip-path="url(#clip252)" style="stroke:#000000; stroke-linecap:round; stroke-linejoin:round; stroke-width:2; stroke-opacity:0.1; fill:none" points="156.598,287.929 2352.76,287.929 "/>
<polyline clip-path="url(#clip250)" style="stroke:#000000; stroke-linecap:round; stroke-linejoin:round; stroke-width:4; stroke-opacity:1; fill:none" points="156.598,1486.45 156.598,47.2441 "/>
<polyline clip-path="url(#clip250)" style="stroke:#000000; stroke-linecap:round; stroke-linejoin:round; stroke-width:4; stroke-opacity:1; fill:none" points="156.598,1311.73 175.496,1311.73 "/>
<polyline clip-path="url(#clip250)" style="stroke:#000000; stroke-linecap:round; stroke-linejoin:round; stroke-width:4; stroke-opacity:1; fill:none" points="156.598,970.462 175.496,970.462 "/>
<polyline clip-path="url(#clip250)" style="stroke:#000000; stroke-linecap:round; stroke-linejoin:round; stroke-width:4; stroke-opacity:1; fill:none" points="156.598,629.195 175.496,629.195 "/>
<polyline clip-path="url(#clip250)" style="stroke:#000000; stroke-linecap:round; stroke-linejoin:round; stroke-width:4; stroke-opacity:1; fill:none" points="156.598,287.929 175.496,287.929 "/>
<path clip-path="url(#clip250)" d="M64.6495 1297.53 Q61.0384 1297.53 59.2097 1301.09 Q57.4041 1304.63 57.4041 1311.76 Q57.4041 1318.87 59.2097 1322.43 Q61.0384 1325.98 64.6495 1325.98 Q68.2837 1325.98 70.0892 1322.43 Q71.9179 1318.87 71.9179 1311.76 Q71.9179 1304.63 70.0892 1301.09 Q68.2837 1297.53 64.6495 1297.53 M64.6495 1293.82 Q70.4596 1293.82 73.5152 1298.43 Q76.5938 1303.01 76.5938 1311.76 Q76.5938 1320.49 73.5152 1325.1 Q70.4596 1329.68 64.6495 1329.68 Q58.8393 1329.68 55.7606 1325.1 Q52.7051 1320.49 52.7051 1311.76 Q52.7051 1303.01 55.7606 1298.43 Q58.8393 1293.82 64.6495 1293.82 Z" fill="#000000" fill-rule="nonzero" fill-opacity="1" /><path clip-path="url(#clip250)" d="M84.8114 1323.13 L89.6956 1323.13 L89.6956 1329.01 L84.8114 1329.01 L84.8114 1323.13 Z" fill="#000000" fill-rule="nonzero" fill-opacity="1" /><path clip-path="url(#clip250)" d="M100.691 1325.07 L108.33 1325.07 L108.33 1298.71 L100.02 1300.37 L100.02 1296.11 L108.283 1294.45 L112.959 1294.45 L112.959 1325.07 L120.598 1325.07 L120.598 1329.01 L100.691 1329.01 L100.691 1325.07 Z" fill="#000000" fill-rule="nonzero" fill-opacity="1" /><path clip-path="url(#clip250)" d="M65.0198 956.26 Q61.4087 956.26 59.58 959.825 Q57.7745 963.367 57.7745 970.496 Q57.7745 977.603 59.58 981.168 Q61.4087 984.709 65.0198 984.709 Q68.6541 984.709 70.4596 981.168 Q72.2883 977.603 72.2883 970.496 Q72.2883 963.367 70.4596 959.825 Q68.6541 956.26 65.0198 956.26 M65.0198 952.557 Q70.83 952.557 73.8855 957.163 Q76.9642 961.746 76.9642 970.496 Q76.9642 979.223 73.8855 983.83 Q70.83 988.413 65.0198 988.413 Q59.2097 988.413 56.131 983.83 Q53.0754 979.223 53.0754 970.496 Q53.0754 961.746 56.131 957.163 Q59.2097 952.557 65.0198 952.557 Z" fill="#000000" fill-rule="nonzero" fill-opacity="1" /><path clip-path="url(#clip250)" d="M85.1818 981.862 L90.066 981.862 L90.066 987.742 L85.1818 987.742 L85.1818 981.862 Z" fill="#000000" fill-rule="nonzero" fill-opacity="1" /><path clip-path="url(#clip250)" d="M104.279 983.806 L120.598 983.806 L120.598 987.742 L98.6539 987.742 L98.6539 983.806 Q101.316 981.052 105.899 976.422 Q110.506 971.769 111.686 970.427 Q113.932 967.904 114.811 966.168 Q115.714 964.408 115.714 962.719 Q115.714 959.964 113.77 958.228 Q111.848 956.492 108.746 956.492 Q106.547 956.492 104.094 957.256 Q101.663 958.02 98.8854 959.57 L98.8854 954.848 Q101.709 953.714 104.163 953.135 Q106.617 952.557 108.654 952.557 Q114.024 952.557 117.219 955.242 Q120.413 957.927 120.413 962.418 Q120.413 964.547 119.603 966.469 Q118.816 968.367 116.709 970.959 Q116.131 971.631 113.029 974.848 Q109.927 978.043 104.279 983.806 Z" fill="#000000" fill-rule="nonzero" fill-opacity="1" /><path clip-path="url(#clip250)" d="M64.0708 614.994 Q60.4597 614.994 58.631 618.559 Q56.8254 622.101 56.8254 629.23 Q56.8254 636.337 58.631 639.901 Q60.4597 643.443 64.0708 643.443 Q67.705 643.443 69.5105 639.901 Q71.3392 636.337 71.3392 629.23 Q71.3392 622.101 69.5105 618.559 Q67.705 614.994 64.0708 614.994 M64.0708 611.29 Q69.8809 611.29 72.9365 615.897 Q76.0151 620.48 76.0151 629.23 Q76.0151 637.957 72.9365 642.563 Q69.8809 647.147 64.0708 647.147 Q58.2606 647.147 55.1819 642.563 Q52.1264 637.957 52.1264 629.23 Q52.1264 620.48 55.1819 615.897 Q58.2606 611.29 64.0708 611.29 Z" fill="#000000" fill-rule="nonzero" fill-opacity="1" /><path clip-path="url(#clip250)" d="M84.2327 640.596 L89.1169 640.596 L89.1169 646.475 L84.2327 646.475 L84.2327 640.596 Z" fill="#000000" fill-rule="nonzero" fill-opacity="1" /><path clip-path="url(#clip250)" d="M113.469 627.841 Q116.825 628.559 118.7 630.827 Q120.598 633.096 120.598 636.429 Q120.598 641.545 117.08 644.346 Q113.561 647.147 107.08 647.147 Q104.904 647.147 102.589 646.707 Q100.297 646.29 97.8437 645.434 L97.8437 640.92 Q99.7882 642.054 102.103 642.633 Q104.418 643.212 106.941 643.212 Q111.339 643.212 113.631 641.475 Q115.945 639.739 115.945 636.429 Q115.945 633.374 113.793 631.661 Q111.663 629.925 107.844 629.925 L103.816 629.925 L103.816 626.082 L108.029 626.082 Q111.478 626.082 113.307 624.716 Q115.135 623.327 115.135 620.735 Q115.135 618.073 113.237 616.661 Q111.362 615.226 107.844 615.226 Q105.922 615.226 103.723 615.642 Q101.524 616.059 98.8854 616.939 L98.8854 612.772 Q101.547 612.031 103.862 611.661 Q106.2 611.29 108.26 611.29 Q113.584 611.29 116.686 613.721 Q119.788 616.128 119.788 620.249 Q119.788 623.119 118.145 625.11 Q116.501 627.077 113.469 627.841 Z" fill="#000000" fill-rule="nonzero" fill-opacity="1" /><path clip-path="url(#clip250)" d="M62.9365 273.728 Q59.3254 273.728 57.4967 277.293 Q55.6912 280.834 55.6912 287.964 Q55.6912 295.07 57.4967 298.635 Q59.3254 302.177 62.9365 302.177 Q66.5707 302.177 68.3763 298.635 Q70.205 295.07 70.205 287.964 Q70.205 280.834 68.3763 277.293 Q66.5707 273.728 62.9365 273.728 M62.9365 270.024 Q68.7467 270.024 71.8022 274.631 Q74.8809 279.214 74.8809 287.964 Q74.8809 296.691 71.8022 301.297 Q68.7467 305.881 62.9365 305.881 Q57.1264 305.881 54.0477 301.297 Q50.9921 296.691 50.9921 287.964 Q50.9921 279.214 54.0477 274.631 Q57.1264 270.024 62.9365 270.024 Z" fill="#000000" fill-rule="nonzero" fill-opacity="1" /><path clip-path="url(#clip250)" d="M83.0984 299.33 L87.9827 299.33 L87.9827 305.209 L83.0984 305.209 L83.0984 299.33 Z" fill="#000000" fill-rule="nonzero" fill-opacity="1" /><path clip-path="url(#clip250)" d="M111.015 274.723 L99.2095 293.172 L111.015 293.172 L111.015 274.723 M109.788 270.649 L115.668 270.649 L115.668 293.172 L120.598 293.172 L120.598 297.061 L115.668 297.061 L115.668 305.209 L111.015 305.209 L111.015 297.061 L95.4132 297.061 L95.4132 292.547 L109.788 270.649 Z" fill="#000000" fill-rule="nonzero" fill-opacity="1" /><polyline clip-path="url(#clip252)" style="stroke:#009af9; stroke-linecap:round; stroke-linejoin:round; stroke-width:4; stroke-opacity:1; fill:none" points="218.754,87.9763 219.79,103.587 220.825,119.021 221.861,134.281 222.897,149.372 223.933,164.296 224.969,179.059 226.005,193.662 227.041,208.11 228.077,222.406 229.113,236.552 230.149,250.552 231.185,264.407 232.221,278.122 233.257,291.698 234.292,305.139 235.328,318.445 236.364,331.62 237.4,344.666 238.436,357.584 239.472,370.378 240.508,383.047 241.544,395.595 242.58,408.023 243.616,420.333 244.652,432.525 245.688,444.602 246.724,456.565 247.759,468.414 248.795,480.153 249.831,491.78 250.867,503.298 251.903,514.708 252.939,526.011 253.975,537.207 255.011,548.297 256.047,559.283 257.083,570.165 258.119,580.943 259.155,591.619 260.191,602.193 261.227,612.667 262.262,623.039 263.298,633.312 264.334,643.486 265.37,653.56 266.406,663.537 267.442,673.415 268.478,683.197 269.514,692.882 270.55,702.47 271.586,711.963 272.622,721.361 273.658,730.663 274.694,739.872 275.729,748.986 276.765,758.007 277.801,766.935 278.837,775.77 279.873,784.513 280.909,793.164 281.945,801.724 282.981,810.194 284.017,818.573 285.053,826.862 286.089,835.062 287.125,843.173 288.161,851.195 289.196,859.13 290.232,866.978 291.268,874.738 292.304,882.412 293.34,890.001 294.376,897.504 295.412,904.923 296.448,912.257 297.484,919.508 298.52,926.677 299.556,933.762 300.592,940.766 301.628,947.689 302.663,954.532 303.699,961.294 304.735,967.978 305.771,974.583 306.807,981.109 307.843,987.559 308.879,993.932 309.915,1000.23 310.951,1006.45 311.987,1012.6 313.023,1018.67 314.059,1024.67 315.095,1030.6 316.13,1036.46 317.166,1042.24 318.202,1047.95 319.238,1053.6 320.274,1059.18 321.31,1064.68 322.346,1070.12 323.382,1075.5 324.418,1080.8 325.454,1086.05 326.49,1091.22 327.526,1096.34 328.562,1101.39 329.597,1106.38 330.633,1111.3 331.669,1116.17 332.705,1120.97 333.741,1125.72 334.777,1130.41 335.813,1135.03 336.849,1139.6 337.885,1144.12 338.921,1148.58 339.957,1152.98 340.993,1157.33 342.029,1161.62 343.064,1165.86 344.1,1170.05 345.136,1174.19 346.172,1178.27 347.208,1182.31 348.244,1186.29 349.28,1190.23 350.316,1194.12 351.352,1197.96 352.388,1201.75 353.424,1205.49 354.46,1209.19 355.496,1212.84 356.531,1216.45 357.567,1220.02 358.603,1223.54 359.639,1227.01 360.675,1230.45 361.711,1233.84 362.747,1237.19 363.783,1240.5 364.819,1243.78 365.855,1247.01 366.891,1250.2 367.927,1253.35 368.963,1256.47 369.998,1259.55 371.034,1262.59 372.07,1265.59 373.106,1268.56 374.142,1271.49 375.178,1274.39 376.214,1277.26 377.25,1280.09 378.286,1282.88 379.322,1285.65 380.358,1288.38 381.394,1291.08 382.43,1293.74 383.465,1296.38 384.501,1298.98 385.537,1301.56 386.573,1304.1 387.609,1306.62 388.645,1309.11 389.681,1311.56 390.717,1313.99 391.753,1316.39 392.789,1318.77 393.825,1321.12 394.861,1323.44 395.897,1325.73 396.932,1328 397.968,1330.24 399.004,1332.46 400.04,1334.65 401.076,1336.82 402.112,1338.96 403.148,1341.08 404.184,1343.18 405.22,1345.25 406.256,1347.3 407.292,1349.33 408.328,1351.34 409.364,1353.32 410.399,1355.28 411.435,1357.22 412.471,1359.14 413.507,1359.96 414.543,1360.12 415.579,1360.29 416.615,1360.45 417.651,1360.61 418.687,1360.78 419.723,1360.94 420.759,1361.1 421.795,1361.26 422.831,1361.42 423.866,1361.58 424.902,1361.74 425.938,1361.9 426.974,1362.05 428.01,1362.21 429.046,1362.37 430.082,1362.52 431.118,1362.68 432.154,1362.84 433.19,1362.99 434.226,1363.15 435.262,1363.3 436.298,1363.45 437.333,1363.61 438.369,1363.76 439.405,1363.91 440.441,1364.06 441.477,1364.21 442.513,1364.36 443.549,1364.51 444.585,1364.66 445.621,1364.81 446.657,1364.96 447.693,1365.11 448.729,1365.25 449.765,1365.4 450.8,1365.55 451.836,1365.69 452.872,1365.84 453.908,1365.98 454.944,1366.13 455.98,1366.27 457.016,1366.42 458.052,1366.56 459.088,1366.7 460.124,1366.84 461.16,1366.99 462.196,1367.13 463.232,1367.27 464.267,1367.41 465.303,1367.55 466.339,1367.69 467.375,1367.83 468.411,1367.97 469.447,1368.11 470.483,1368.24 471.519,1368.38 472.555,1368.52 473.591,1368.66 474.627,1368.79 475.663,1368.93 476.699,1369.06 477.734,1369.2 478.77,1369.33 479.806,1369.47 480.842,1369.6 481.878,1369.74 482.914,1369.87 483.95,1370 484.986,1370.13 486.022,1370.27 487.058,1370.4 488.094,1370.53 489.13,1370.66 490.166,1370.79 491.202,1370.92 492.237,1371.05 493.273,1371.18 494.309,1371.31 495.345,1371.44 496.381,1371.57 497.417,1371.69 498.453,1371.82 499.489,1371.95 500.525,1372.07 501.561,1372.2 502.597,1372.33 503.633,1372.45 504.669,1372.58 505.704,1372.7 506.74,1372.83 507.776,1372.95 508.812,1373.08 509.848,1373.2 510.884,1373.32 511.92,1373.45 512.956,1373.57 513.992,1373.69 515.028,1373.81 516.064,1373.93 517.1,1374.05 518.136,1374.18 519.171,1374.3 520.207,1374.42 521.243,1374.54 522.279,1374.65 523.315,1374.77 524.351,1374.89 525.387,1375.01 526.423,1375.13 527.459,1375.25 528.495,1375.37 529.531,1375.48 530.567,1375.6 531.603,1375.72 532.638,1375.83 533.674,1375.95 534.71,1376.06 535.746,1376.18 536.782,1376.29 537.818,1376.41 538.854,1376.52 539.89,1376.64 540.926,1376.75 541.962,1376.86 542.998,1376.98 544.034,1377.09 545.07,1377.2 546.105,1377.32 547.141,1377.43 548.177,1377.54 549.213,1377.65 550.249,1377.76 551.285,1377.87 552.321,1377.98 553.357,1378.09 554.393,1378.2 555.429,1378.31 556.465,1378.42 557.501,1378.53 558.537,1378.64 559.572,1378.75 560.608,1378.86 561.644,1378.97 562.68,1379.07 563.716,1379.18 564.752,1379.29 565.788,1379.4 566.824,1379.5 567.86,1379.61 568.896,1379.72 569.932,1379.82 570.968,1379.93 572.004,1380.03 573.039,1380.14 574.075,1380.24 575.111,1380.35 576.147,1380.45 577.183,1380.56 578.219,1380.66 579.255,1380.76 580.291,1380.87 581.327,1380.97 582.363,1381.07 583.399,1381.18 584.435,1381.28 585.471,1381.38 586.506,1381.48 587.542,1381.58 588.578,1381.68 589.614,1381.79 590.65,1381.89 591.686,1381.99 592.722,1382.09 593.758,1382.19 594.794,1382.29 595.83,1382.39 596.866,1382.49 597.902,1382.59 598.938,1382.69 599.973,1382.78 601.009,1382.88 602.045,1382.98 603.081,1383.08 604.117,1383.18 605.153,1383.27 606.189,1383.37 607.225,1383.47 608.261,1383.57 609.297,1383.66 610.333,1383.76 611.369,1383.86 612.405,1383.95 613.44,1384.05 614.476,1384.14 615.512,1384.24 616.548,1384.33 617.584,1384.43 618.62,1384.52 619.656,1384.62 620.692,1384.71 621.728,1384.81 622.764,1384.9 623.8,1384.99 624.836,1385.09 625.872,1385.18 626.907,1385.27 627.943,1385.37 628.979,1385.46 630.015,1385.55 631.051,1385.64 632.087,1385.74 633.123,1385.83 634.159,1385.92 635.195,1386.01 636.231,1386.1 637.267,1386.19 638.303,1386.28 639.339,1386.37 640.374,1386.46 641.41,1386.55 642.446,1386.64 643.482,1386.73 644.518,1386.82 645.554,1386.91 646.59,1387 647.626,1387.09 648.662,1387.18 649.698,1387.27 650.734,1387.36 651.77,1387.45 652.806,1387.53 653.841,1387.62 654.877,1387.71 655.913,1387.8 656.949,1387.88 657.985,1387.97 659.021,1388.06 660.057,1388.14 661.093,1388.23 662.129,1388.32 663.165,1388.4 664.201,1388.49 665.237,1388.58 666.273,1388.66 667.308,1388.75 668.344,1388.83 669.38,1388.92 670.416,1389 671.452,1389.09 672.488,1389.17 673.524,1389.26 674.56,1389.34 675.596,1389.42 676.632,1389.51 677.668,1389.59 678.704,1389.68 679.74,1389.76 680.775,1389.84 681.811,1389.93 682.847,1390.01 683.883,1390.09 684.919,1390.17 685.955,1390.26 686.991,1390.34 688.027,1390.42 689.063,1390.5 690.099,1390.58 691.135,1390.67 692.171,1390.75 693.207,1390.83 694.242,1390.91 695.278,1390.99 696.314,1391.07 697.35,1391.15 698.386,1391.23 699.422,1391.31 700.458,1391.39 701.494,1391.47 702.53,1391.55 703.566,1391.63 704.602,1391.71 705.638,1391.79 706.674,1391.87 707.709,1391.95 708.745,1392.03 709.781,1392.11 710.817,1392.19 711.853,1392.26 712.889,1392.34 713.925,1392.42 714.961,1392.5 715.997,1392.58 717.033,1392.65 718.069,1392.73 719.105,1392.81 720.141,1392.89 721.177,1392.96 722.212,1393.04 723.248,1393.12 724.284,1393.19 725.32,1393.27 726.356,1393.35 727.392,1393.42 728.428,1393.5 729.464,1393.58 730.5,1393.65 731.536,1393.73 732.572,1393.8 733.608,1393.88 734.644,1393.95 735.679,1394.03 736.715,1394.1 737.751,1394.18 738.787,1394.25 739.823,1394.33 740.859,1394.4 741.895,1394.48 742.931,1394.55 743.967,1394.63 745.003,1394.7 746.039,1394.77 747.075,1394.85 748.111,1394.92 749.146,1394.99 750.182,1395.07 751.218,1395.14 752.254,1395.21 753.29,1395.29 754.326,1395.36 755.362,1395.43 756.398,1395.5 757.434,1395.58 758.47,1395.65 759.506,1395.72 760.542,1395.79 761.578,1395.86 762.613,1395.94 763.649,1396.01 764.685,1396.08 765.721,1396.15 766.757,1396.22 767.793,1396.29 768.829,1396.36 769.865,1396.43 770.901,1396.5 771.937,1396.58 772.973,1396.65 774.009,1396.72 775.045,1396.79 776.08,1396.86 777.116,1396.93 778.152,1397 779.188,1397.07 780.224,1397.14 781.26,1397.2 782.296,1397.27 783.332,1397.34 784.368,1397.41 785.404,1397.48 786.44,1397.55 787.476,1397.62 788.512,1397.69 789.547,1397.76 790.583,1397.83 791.619,1397.89 792.655,1397.96 793.691,1398.03 794.727,1398.1 795.763,1398.17 796.799,1398.23 797.835,1398.3 798.871,1398.37 799.907,1398.44 800.943,1398.5 801.979,1398.57 803.014,1398.64 804.05,1398.7 805.086,1398.77 806.122,1398.84 807.158,1398.9 808.194,1398.97 809.23,1399.04 810.266,1399.1 811.302,1399.17 812.338,1399.24 813.374,1399.3 814.41,1399.37 815.446,1399.43 816.481,1399.5 817.517,1399.57 818.553,1399.63 819.589,1399.7 820.625,1399.76 821.661,1399.83 822.697,1399.89 823.733,1399.96 824.769,1400.02 825.805,1400.09 826.841,1400.15 827.877,1400.22 828.913,1400.28 829.948,1400.34 830.984,1400.41 832.02,1400.47 833.056,1400.54 834.092,1400.6 835.128,1400.66 836.164,1400.73 837.2,1400.79 838.236,1400.86 839.272,1400.92 840.308,1400.98 841.344,1401.05 842.38,1401.11 843.415,1401.17 844.451,1401.23 845.487,1401.3 846.523,1401.36 847.559,1401.42 848.595,1401.49 849.631,1401.55 850.667,1401.61 851.703,1401.67 852.739,1401.73 853.775,1401.8 854.811,1401.86 855.847,1401.92 856.882,1401.98 857.918,1402.04 858.954,1402.11 859.99,1402.17 861.026,1402.23 862.062,1402.29 863.098,1402.35 864.134,1402.41 865.17,1402.47 866.206,1402.53 867.242,1402.6 868.278,1402.66 869.314,1402.72 870.349,1402.78 871.385,1402.84 872.421,1402.9 873.457,1402.96 874.493,1403.02 875.529,1403.08 876.565,1403.14 877.601,1403.2 878.637,1403.26 879.673,1403.32 880.709,1403.38 881.745,1403.44 882.781,1403.5 883.816,1403.56 884.852,1403.62 885.888,1403.68 886.924,1403.74 887.96,1403.79 888.996,1403.85 890.032,1403.91 891.068,1403.97 892.104,1404.03 893.14,1404.09 894.176,1404.15 895.212,1404.21 896.248,1404.26 897.283,1404.32 898.319,1404.38 899.355,1404.44 900.391,1404.5 901.427,1404.56 902.463,1404.61 903.499,1404.67 904.535,1404.73 905.571,1404.79 906.607,1404.84 907.643,1404.9 908.679,1404.96 909.715,1405.02 910.75,1405.07 911.786,1405.13 912.822,1405.19 913.858,1405.25 914.894,1405.3 915.93,1405.36 916.966,1405.42 918.002,1405.47 919.038,1405.53 920.074,1405.59 921.11,1405.64 922.146,1405.7 923.182,1405.76 924.217,1405.81 925.253,1405.87 926.289,1405.93 927.325,1405.98 928.361,1406.04 929.397,1406.09 930.433,1406.15 931.469,1406.2 932.505,1406.26 933.541,1406.32 934.577,1406.37 935.613,1406.43 936.649,1406.48 937.685,1406.54 938.72,1406.59 939.756,1406.65 940.792,1406.7 941.828,1406.76 942.864,1406.81 943.9,1406.87 944.936,1406.92 945.972,1406.98 947.008,1407.03 948.044,1407.09 949.08,1407.14 950.116,1407.2 951.152,1407.25 952.187,1407.31 953.223,1407.36 954.259,1407.41 955.295,1407.47 956.331,1407.52 957.367,1407.58 958.403,1407.63 959.439,1407.68 960.475,1407.74 961.511,1407.79 962.547,1407.84 963.583,1407.9 964.619,1407.95 965.654,1408.01 966.69,1408.06 967.726,1408.11 968.762,1408.17 969.798,1408.22 970.834,1408.27 971.87,1408.32 972.906,1408.38 973.942,1408.43 974.978,1408.48 976.014,1408.54 977.05,1408.59 978.086,1408.64 979.121,1408.69 980.157,1408.75 981.193,1408.8 982.229,1408.85 983.265,1408.9 984.301,1408.96 985.337,1409.01 986.373,1409.06 987.409,1409.11 988.445,1409.16 989.481,1409.22 990.517,1409.27 991.553,1409.32 992.588,1409.37 993.624,1409.42 994.66,1409.47 995.696,1409.53 996.732,1409.58 997.768,1409.63 998.804,1409.68 999.84,1409.73 1000.88,1409.78 1001.91,1409.83 1002.95,1409.89 1003.98,1409.94 1005.02,1409.99 1006.06,1410.04 1007.09,1410.09 1008.13,1410.14 1009.16,1410.19 1010.2,1410.24 1011.24,1410.29 1012.27,1410.34 1013.31,1410.39 1014.34,1410.44 1015.38,1410.49 1016.41,1410.54 1017.45,1410.59 1018.49,1410.64 1019.52,1410.69 1020.56,1410.74 1021.59,1410.79 1022.63,1410.84 1023.67,1410.89 1024.7,1410.94 1025.74,1410.99 1026.77,1411.04 1027.81,1411.09 1028.85,1411.14 1029.88,1411.19 1030.92,1411.24 1031.95,1411.29 1032.99,1411.34 1034.03,1411.39 1035.06,1411.44 1036.1,1411.49 1037.13,1411.54 1038.17,1411.59 1039.2,1411.64 1040.24,1411.69 1041.28,1411.73 1042.31,1411.78 1043.35,1411.83 1044.38,1411.88 1045.42,1411.93 1046.46,1411.98 1047.49,1412.03 1048.53,1412.08 1049.56,1412.12 1050.6,1412.17 1051.64,1412.22 1052.67,1412.27 1053.71,1412.32 1054.74,1412.37 1055.78,1412.41 1056.82,1412.46 1057.85,1412.51 1058.89,1412.56 1059.92,1412.61 1060.96,1412.65 1062,1412.7 1063.03,1412.75 1064.07,1412.8 1065.1,1412.85 1066.14,1412.89 1067.17,1412.94 1068.21,1412.99 1069.25,1413.04 1070.28,1413.08 1071.32,1413.13 1072.35,1413.18 1073.39,1413.23 1074.43,1413.27 1075.46,1413.32 1076.5,1413.37 1077.53,1413.41 1078.57,1413.46 1079.61,1413.51 1080.64,1413.55 1081.68,1413.6 1082.71,1413.65 1083.75,1413.7 1084.79,1413.74 1085.82,1413.79 1086.86,1413.84 1087.89,1413.88 1088.93,1413.93 1089.97,1413.97 1091,1414.02 1092.04,1414.07 1093.07,1414.11 1094.11,1414.16 1095.14,1414.21 1096.18,1414.25 1097.22,1414.3 1098.25,1414.35 1099.29,1414.39 1100.32,1414.44 1101.36,1414.48 1102.4,1414.53 1103.43,1414.57 1104.47,1414.62 1105.5,1414.67 1106.54,1414.71 1107.58,1414.76 1108.61,1414.8 1109.65,1414.85 1110.68,1414.89 1111.72,1414.94 1112.76,1414.99 1113.79,1415.03 1114.83,1415.08 1115.86,1415.12 1116.9,1415.17 1117.94,1415.21 1118.97,1415.26 1120.01,1415.3 1121.04,1415.35 1122.08,1415.39 1123.11,1415.44 1124.15,1415.48 1125.19,1415.53 1126.22,1415.57 1127.26,1415.62 1128.29,1415.66 1129.33,1415.71 1130.37,1415.75 1131.4,1415.8 1132.44,1415.84 1133.47,1415.88 1134.51,1415.93 1135.55,1415.97 1136.58,1416.02 1137.62,1416.06 1138.65,1416.11 1139.69,1416.15 1140.73,1416.2 1141.76,1416.24 1142.8,1416.28 1143.83,1416.33 1144.87,1416.37 1145.91,1416.42 1146.94,1416.46 1147.98,1416.5 1149.01,1416.55 1150.05,1416.59 1151.08,1416.64 1152.12,1416.68 1153.16,1416.72 1154.19,1416.77 1155.23,1416.81 1156.26,1416.85 1157.3,1416.9 1158.34,1416.94 1159.37,1416.98 1160.41,1417.03 1161.44,1417.07 1162.48,1417.11 1163.52,1417.16 1164.55,1417.2 1165.59,1417.24 1166.62,1417.29 1167.66,1417.33 1168.7,1417.37 1169.73,1417.42 1170.77,1417.46 1171.8,1417.5 1172.84,1417.55 1173.88,1417.59 1174.91,1417.63 1175.95,1417.67 1176.98,1417.72 1178.02,1417.76 1179.05,1417.8 1180.09,1417.84 1181.13,1417.89 1182.16,1417.93 1183.2,1417.97 1184.23,1418.01 1185.27,1418.06 1186.31,1418.1 1187.34,1418.14 1188.38,1418.18 1189.41,1418.23 1190.45,1418.27 1191.49,1418.31 1192.52,1418.35 1193.56,1418.4 1194.59,1418.44 1195.63,1418.48 1196.67,1418.52 1197.7,1418.56 1198.74,1418.61 1199.77,1418.65 1200.81,1418.69 1201.84,1418.73 1202.88,1418.77 1203.92,1418.81 1204.95,1418.86 1205.99,1418.9 1207.02,1418.94 1208.06,1418.98 1209.1,1419.02 1210.13,1419.06 1211.17,1419.11 1212.2,1419.15 1213.24,1419.19 1214.28,1419.23 1215.31,1419.27 1216.35,1419.31 1217.38,1419.35 1218.42,1419.4 1219.46,1419.44 1220.49,1419.48 1221.53,1419.52 1222.56,1419.56 1223.6,1419.6 1224.64,1419.64 1225.67,1419.68 1226.71,1419.72 1227.74,1419.77 1228.78,1419.81 1229.81,1419.85 1230.85,1419.89 1231.89,1419.93 1232.92,1419.97 1233.96,1420.01 1234.99,1420.05 1236.03,1420.09 1237.07,1420.13 1238.1,1420.17 1239.14,1420.21 1240.17,1420.25 1241.21,1420.29 1242.25,1420.33 1243.28,1420.38 1244.32,1420.42 1245.35,1420.46 1246.39,1420.5 1247.43,1420.54 1248.46,1420.58 1249.5,1420.62 1250.53,1420.66 1251.57,1420.7 1252.61,1420.74 1253.64,1420.78 1254.68,1420.82 1255.71,1420.86 1256.75,1420.9 1257.78,1420.94 1258.82,1420.98 1259.86,1421.02 1260.89,1421.06 1261.93,1421.1 1262.96,1421.14 1264,1421.18 1265.04,1421.22 1266.07,1421.26 1267.11,1421.3 1268.14,1421.33 1269.18,1421.37 1270.22,1421.41 1271.25,1421.45 1272.29,1421.49 1273.32,1421.53 1274.36,1421.57 1275.4,1421.61 1276.43,1421.65 1277.47,1421.69 1278.5,1421.73 1279.54,1421.77 1280.58,1421.81 1281.61,1421.85 1282.65,1421.89 1283.68,1421.92 1284.72,1421.96 1285.75,1422 1286.79,1422.04 1287.83,1422.08 1288.86,1422.12 1289.9,1422.16 1290.93,1422.2 1291.97,1422.24 1293.01,1422.28 1294.04,1422.31 1295.08,1422.35 1296.11,1422.39 1297.15,1422.43 1298.19,1422.47 1299.22,1422.51 1300.26,1422.55 1301.29,1422.59 1302.33,1422.62 1303.37,1422.66 1304.4,1422.7 1305.44,1422.74 1306.47,1422.78 1307.51,1422.82 1308.55,1422.85 1309.58,1422.89 1310.62,1422.93 1311.65,1422.97 1312.69,1423.01 1313.72,1423.05 1314.76,1423.08 1315.8,1423.12 1316.83,1423.16 1317.87,1423.2 1318.9,1423.24 1319.94,1423.27 1320.98,1423.31 1322.01,1423.35 1323.05,1423.39 1324.08,1423.43 1325.12,1423.46 1326.16,1423.5 1327.19,1423.54 1328.23,1423.58 1329.26,1423.62 1330.3,1423.65 1331.34,1423.69 1332.37,1423.73 1333.41,1423.77 1334.44,1423.8 1335.48,1423.84 1336.52,1423.88 1337.55,1423.92 1338.59,1423.96 1339.62,1423.99 1340.66,1424.03 1341.69,1424.07 1342.73,1424.11 1343.77,1424.14 1344.8,1424.18 1345.84,1424.22 1346.87,1424.25 1347.91,1424.29 1348.95,1424.33 1349.98,1424.37 1351.02,1424.4 1352.05,1424.44 1353.09,1424.48 1354.13,1424.52 1355.16,1424.55 1356.2,1424.59 1357.23,1424.63 1358.27,1424.66 1359.31,1424.7 1360.34,1424.74 1361.38,1424.77 1362.41,1424.81 1363.45,1424.85 1364.48,1424.88 1365.52,1424.92 1366.56,1424.96 1367.59,1425 1368.63,1425.03 1369.66,1425.07 1370.7,1425.11 1371.74,1425.14 1372.77,1425.18 1373.81,1425.22 1374.84,1425.25 1375.88,1425.29 1376.92,1425.33 1377.95,1425.36 1378.99,1425.4 1380.02,1425.43 1381.06,1425.47 1382.1,1425.51 1383.13,1425.54 1384.17,1425.58 1385.2,1425.62 1386.24,1425.65 1387.28,1425.69 1388.31,1425.73 1389.35,1425.76 1390.38,1425.8 1391.42,1425.83 1392.45,1425.87 1393.49,1425.91 1394.53,1425.94 1395.56,1425.98 1396.6,1426.02 1397.63,1426.05 1398.67,1426.09 1399.71,1426.12 1400.74,1426.16 1401.78,1426.2 1402.81,1426.23 1403.85,1426.27 1404.89,1426.3 1405.92,1426.34 1406.96,1426.37 1407.99,1426.41 1409.03,1426.45 1410.07,1426.48 1411.1,1426.52 1412.14,1426.55 1413.17,1426.59 1414.21,1426.62 1415.25,1426.66 1416.28,1426.7 1417.32,1426.73 1418.35,1426.77 1419.39,1426.8 1420.42,1426.84 1421.46,1426.87 1422.5,1426.91 1423.53,1426.94 1424.57,1426.98 1425.6,1427.02 1426.64,1427.05 1427.68,1427.09 1428.71,1427.12 1429.75,1427.16 1430.78,1427.19 1431.82,1427.23 1432.86,1427.26 1433.89,1427.3 1434.93,1427.33 1435.96,1427.37 1437,1427.4 1438.04,1427.44 1439.07,1427.47 1440.11,1427.51 1441.14,1427.54 1442.18,1427.58 1443.22,1427.61 1444.25,1427.65 1445.29,1427.68 1446.32,1427.72 1447.36,1427.75 1448.39,1427.79 1449.43,1427.82 1450.47,1427.86 1451.5,1427.89 1452.54,1427.93 1453.57,1427.96 1454.61,1428 1455.65,1428.03 1456.68,1428.07 1457.72,1428.1 1458.75,1428.14 1459.79,1428.17 1460.83,1428.21 1461.86,1428.24 1462.9,1428.27 1463.93,1428.31 1464.97,1428.34 1466.01,1428.38 1467.04,1428.41 1468.08,1428.45 1469.11,1428.48 1470.15,1428.52 1471.19,1428.55 1472.22,1428.58 1473.26,1428.62 1474.29,1428.65 1475.33,1428.69 1476.36,1428.72 1477.4,1428.76 1478.44,1428.79 1479.47,1428.82 1480.51,1428.86 1481.54,1428.89 1482.58,1428.93 1483.62,1428.96 1484.65,1429 1485.69,1429.03 1486.72,1429.06 1487.76,1429.1 1488.8,1429.13 1489.83,1429.17 1490.87,1429.2 1491.9,1429.23 1492.94,1429.27 1493.98,1429.3 1495.01,1429.34 1496.05,1429.37 1497.08,1429.4 1498.12,1429.43 1499.15,1429.45 1500.19,1429.47 1501.23,1429.49 1502.26,1429.51 1503.3,1429.53 1504.33,1429.55 1505.37,1429.58 1506.41,1429.6 1507.44,1429.62 1508.48,1429.64 1509.51,1429.66 1510.55,1429.68 1511.59,1429.7 1512.62,1429.72 1513.66,1429.74 1514.69,1429.77 1515.73,1429.79 1516.77,1429.81 1517.8,1429.83 1518.84,1429.85 1519.87,1429.87 1520.91,1429.89 1521.95,1429.91 1522.98,1429.94 1524.02,1429.96 1525.05,1429.98 1526.09,1430 1527.12,1430.02 1528.16,1430.04 1529.2,1430.06 1530.23,1430.08 1531.27,1430.11 1532.3,1430.13 1533.34,1430.15 1534.38,1430.17 1535.41,1430.19 1536.45,1430.21 1537.48,1430.23 1538.52,1430.25 1539.56,1430.27 1540.59,1430.3 1541.63,1430.32 1542.66,1430.34 1543.7,1430.36 1544.74,1430.38 1545.77,1430.4 1546.81,1430.42 1547.84,1430.44 1548.88,1430.47 1549.92,1430.49 1550.95,1430.51 1551.99,1430.53 1553.02,1430.55 1554.06,1430.57 1555.09,1430.59 1556.13,1430.61 1557.17,1430.64 1558.2,1430.66 1559.24,1430.68 1560.27,1430.7 1561.31,1430.72 1562.35,1430.74 1563.38,1430.76 1564.42,1430.78 1565.45,1430.8 1566.49,1430.83 1567.53,1430.85 1568.56,1430.87 1569.6,1430.89 1570.63,1430.91 1571.67,1430.93 1572.71,1430.95 1573.74,1430.97 1574.78,1431 1575.81,1431.02 1576.85,1431.04 1577.89,1431.06 1578.92,1431.08 1579.96,1431.1 1580.99,1431.12 1582.03,1431.14 1583.06,1431.16 1584.1,1431.19 1585.14,1431.21 1586.17,1431.23 1587.21,1431.25 1588.24,1431.27 1589.28,1431.29 1590.32,1431.31 1591.35,1431.33 1592.39,1431.36 1593.42,1431.38 1594.46,1431.4 1595.5,1431.42 1596.53,1431.44 1597.57,1431.46 1598.6,1431.48 1599.64,1431.5 1600.68,1431.53 1601.71,1431.55 1602.75,1431.57 1603.78,1431.59 1604.82,1431.61 1605.86,1431.63 1606.89,1431.65 1607.93,1431.67 1608.96,1431.69 1610,1431.72 1611.03,1431.74 1612.07,1431.76 1613.11,1431.78 1614.14,1431.8 1615.18,1431.82 1616.21,1431.84 1617.25,1431.86 1618.29,1431.89 1619.32,1431.91 1620.36,1431.93 1621.39,1431.95 1622.43,1431.97 1623.47,1431.99 1624.5,1432.01 1625.54,1432.03 1626.57,1432.06 1627.61,1432.08 1628.65,1432.1 1629.68,1432.12 1630.72,1432.14 1631.75,1432.16 1632.79,1432.18 1633.83,1432.2 1634.86,1432.22 1635.9,1432.25 1636.93,1432.27 1637.97,1432.29 1639,1432.31 1640.04,1432.33 1641.08,1432.35 1642.11,1432.37 1643.15,1432.39 1644.18,1432.42 1645.22,1432.44 1646.26,1432.46 1647.29,1432.48 1648.33,1432.5 1649.36,1432.52 1650.4,1432.54 1651.44,1432.56 1652.47,1432.58 1653.51,1432.61 1654.54,1432.63 1655.58,1432.65 1656.62,1432.67 1657.65,1432.69 1658.69,1432.71 1659.72,1432.73 1660.76,1432.75 1661.79,1432.78 1662.83,1432.8 1663.87,1432.82 1664.9,1432.84 1665.94,1432.86 1666.97,1432.88 1668.01,1432.9 1669.05,1432.92 1670.08,1432.95 1671.12,1432.97 1672.15,1432.99 1673.19,1433.01 1674.23,1433.03 1675.26,1433.05 1676.3,1433.07 1677.33,1433.09 1678.37,1433.11 1679.41,1433.14 1680.44,1433.16 1681.48,1433.18 1682.51,1433.2 1683.55,1433.22 1684.59,1433.24 1685.62,1433.26 1686.66,1433.28 1687.69,1433.31 1688.73,1433.33 1689.76,1433.35 1690.8,1433.37 1691.84,1433.39 1692.87,1433.41 1693.91,1433.43 1694.94,1433.45 1695.98,1433.48 1697.02,1433.5 1698.05,1433.52 1699.09,1433.54 1700.12,1433.56 1701.16,1433.58 1702.2,1433.6 1703.23,1433.62 1704.27,1433.64 1705.3,1433.67 1706.34,1433.69 1707.38,1433.71 1708.41,1433.73 1709.45,1433.75 1710.48,1433.77 1711.52,1433.79 1712.56,1433.81 1713.59,1433.84 1714.63,1433.86 1715.66,1433.88 1716.7,1433.9 1717.73,1433.92 1718.77,1433.94 1719.81,1433.96 1720.84,1433.98 1721.88,1434.01 1722.91,1434.03 1723.95,1434.05 1724.99,1434.07 1726.02,1434.09 1727.06,1434.11 1728.09,1434.13 1729.13,1434.15 1730.17,1434.17 1731.2,1434.2 1732.24,1434.22 1733.27,1434.24 1734.31,1434.26 1735.35,1434.28 1736.38,1434.3 1737.42,1434.32 1738.45,1434.34 1739.49,1434.37 1740.53,1434.39 1741.56,1434.41 1742.6,1434.43 1743.63,1434.45 1744.67,1434.47 1745.7,1434.49 1746.74,1434.51 1747.78,1434.54 1748.81,1434.56 1749.85,1434.58 1750.88,1434.6 1751.92,1434.62 1752.96,1434.64 1753.99,1434.66 1755.03,1434.68 1756.06,1434.7 1757.1,1434.73 1758.14,1434.75 1759.17,1434.77 1760.21,1434.79 1761.24,1434.81 1762.28,1434.83 1763.32,1434.85 1764.35,1434.87 1765.39,1434.9 1766.42,1434.92 1767.46,1434.94 1768.5,1434.96 1769.53,1434.98 1770.57,1435 1771.6,1435.02 1772.64,1435.04 1773.67,1435.07 1774.71,1435.09 1775.75,1435.11 1776.78,1435.13 1777.82,1435.15 1778.85,1435.17 1779.89,1435.19 1780.93,1435.21 1781.96,1435.24 1783,1435.26 1784.03,1435.28 1785.07,1435.3 1786.11,1435.32 1787.14,1435.34 1788.18,1435.36 1789.21,1435.38 1790.25,1435.41 1791.29,1435.43 1792.32,1435.45 1793.36,1435.47 1794.39,1435.49 1795.43,1435.51 1796.47,1435.53 1797.5,1435.55 1798.54,1435.57 1799.57,1435.6 1800.61,1435.62 1801.64,1435.64 1802.68,1435.66 1803.72,1435.68 1804.75,1435.7 1805.79,1435.72 1806.82,1435.74 1807.86,1435.77 1808.9,1435.79 1809.93,1435.81 1810.97,1435.83 1812,1435.85 1813.04,1435.87 1814.08,1435.89 1815.11,1435.91 1816.15,1435.94 1817.18,1435.96 1818.22,1435.98 1819.26,1436 1820.29,1436.02 1821.33,1436.04 1822.36,1436.06 1823.4,1436.08 1824.43,1436.11 1825.47,1436.13 1826.51,1436.15 1827.54,1436.17 1828.58,1436.19 1829.61,1436.21 1830.65,1436.23 1831.69,1436.25 1832.72,1436.28 1833.76,1436.3 1834.79,1436.32 1835.83,1436.34 1836.87,1436.36 1837.9,1436.38 1838.94,1436.4 1839.97,1436.42 1841.01,1436.45 1842.05,1436.47 1843.08,1436.49 1844.12,1436.51 1845.15,1436.53 1846.19,1436.55 1847.23,1436.57 1848.26,1436.59 1849.3,1436.61 1850.33,1436.64 1851.37,1436.66 1852.4,1436.68 1853.44,1436.7 1854.48,1436.72 1855.51,1436.74 1856.55,1436.76 1857.58,1436.78 1858.62,1436.81 1859.66,1436.83 1860.69,1436.85 1861.73,1436.87 1862.76,1436.89 1863.8,1436.91 1864.84,1436.93 1865.87,1436.95 1866.91,1436.98 1867.94,1437 1868.98,1437.02 1870.02,1437.04 1871.05,1437.06 1872.09,1437.08 1873.12,1437.1 1874.16,1437.12 1875.2,1437.15 1876.23,1437.17 1877.27,1437.19 1878.3,1437.21 1879.34,1437.23 1880.37,1437.25 1881.41,1437.27 1882.45,1437.29 1883.48,1437.32 1884.52,1437.34 1885.55,1437.36 1886.59,1437.38 1887.63,1437.4 1888.66,1437.42 1889.7,1437.44 1890.73,1437.46 1891.77,1437.49 1892.81,1437.51 1893.84,1437.53 1894.88,1437.55 1895.91,1437.57 1896.95,1437.59 1897.99,1437.61 1899.02,1437.63 1900.06,1437.66 1901.09,1437.68 1902.13,1437.7 1903.17,1437.72 1904.2,1437.74 1905.24,1437.76 1906.27,1437.78 1907.31,1437.8 1908.34,1437.83 1909.38,1437.85 1910.42,1437.87 1911.45,1437.89 1912.49,1437.91 1913.52,1437.93 1914.56,1437.95 1915.6,1437.98 1916.63,1438 1917.67,1438.02 1918.7,1438.04 1919.74,1438.06 1920.78,1438.08 1921.81,1438.1 1922.85,1438.12 1923.88,1438.15 1924.92,1438.17 1925.96,1438.19 1926.99,1438.21 1928.03,1438.23 1929.06,1438.25 1930.1,1438.27 1931.14,1438.29 1932.17,1438.32 1933.21,1438.34 1934.24,1438.36 1935.28,1438.38 1936.31,1438.4 1937.35,1438.42 1938.39,1438.44 1939.42,1438.46 1940.46,1438.49 1941.49,1438.51 1942.53,1438.53 1943.57,1438.55 1944.6,1438.57 1945.64,1438.59 1946.67,1438.61 1947.71,1438.63 1948.75,1438.66 1949.78,1438.68 1950.82,1438.7 1951.85,1438.72 1952.89,1438.74 1953.93,1438.76 1954.96,1438.78 1956,1438.8 1957.03,1438.83 1958.07,1438.85 1959.11,1438.87 1960.14,1438.89 1961.18,1438.91 1962.21,1438.93 1963.25,1438.95 1964.28,1438.98 1965.32,1439 1966.36,1439.02 1967.39,1439.04 1968.43,1439.06 1969.46,1439.08 1970.5,1439.1 1971.54,1439.12 1972.57,1439.15 1973.61,1439.17 1974.64,1439.19 1975.68,1439.21 1976.72,1439.23 1977.75,1439.25 1978.79,1439.27 1979.82,1439.29 1980.86,1439.32 1981.9,1439.34 1982.93,1439.36 1983.97,1439.38 1985,1439.4 1986.04,1439.42 1987.07,1439.44 1988.11,1439.46 1989.15,1439.49 1990.18,1439.51 1991.22,1439.53 1992.25,1439.55 1993.29,1439.57 1994.33,1439.59 1995.36,1439.61 1996.4,1439.64 1997.43,1439.66 1998.47,1439.68 1999.51,1439.7 2000.54,1439.72 2001.58,1439.74 2002.61,1439.76 2003.65,1439.78 2004.69,1439.81 2005.72,1439.83 2006.76,1439.85 2007.79,1439.87 2008.83,1439.89 2009.87,1439.91 2010.9,1439.93 2011.94,1439.95 2012.97,1439.98 2014.01,1440 2015.04,1440.02 2016.08,1440.04 2017.12,1440.06 2018.15,1440.08 2019.19,1440.1 2020.22,1440.13 2021.26,1440.15 2022.3,1440.17 2023.33,1440.19 2024.37,1440.21 2025.4,1440.23 2026.44,1440.25 2027.48,1440.27 2028.51,1440.3 2029.55,1440.32 2030.58,1440.34 2031.62,1440.36 2032.66,1440.38 2033.69,1440.4 2034.73,1440.42 2035.76,1440.45 2036.8,1440.47 2037.84,1440.49 2038.87,1440.51 2039.91,1440.53 2040.94,1440.55 2041.98,1440.57 2043.01,1440.59 2044.05,1440.62 2045.09,1440.64 2046.12,1440.66 2047.16,1440.68 2048.19,1440.7 2049.23,1440.72 2050.27,1440.74 2051.3,1440.77 2052.34,1440.79 2053.37,1440.81 2054.41,1440.83 2055.45,1440.85 2056.48,1440.87 2057.52,1440.89 2058.55,1440.91 2059.59,1440.94 2060.63,1440.96 2061.66,1440.98 2062.7,1441 2063.73,1441.02 2064.77,1441.04 2065.81,1441.06 2066.84,1441.09 2067.88,1441.11 2068.91,1441.13 2069.95,1441.15 2070.98,1441.17 2072.02,1441.19 2073.06,1441.21 2074.09,1441.24 2075.13,1441.26 2076.16,1441.28 2077.2,1441.3 2078.24,1441.32 2079.27,1441.34 2080.31,1441.36 2081.34,1441.38 2082.38,1441.41 2083.42,1441.43 2084.45,1441.45 2085.49,1441.47 2086.52,1441.49 2087.56,1441.51 2088.6,1441.53 2089.63,1441.56 2090.67,1441.58 2091.7,1441.6 2092.74,1441.62 2093.78,1441.64 2094.81,1441.66 2095.85,1441.68 2096.88,1441.71 2097.92,1441.73 2098.95,1441.75 2099.99,1441.77 2101.03,1441.79 2102.06,1441.81 2103.1,1441.83 2104.13,1441.85 2105.17,1441.88 2106.21,1441.9 2107.24,1441.92 2108.28,1441.94 2109.31,1441.96 2110.35,1441.98 2111.39,1442 2112.42,1442.03 2113.46,1442.05 2114.49,1442.07 2115.53,1442.09 2116.57,1442.11 2117.6,1442.13 2118.64,1442.15 2119.67,1442.18 2120.71,1442.2 2121.74,1442.22 2122.78,1442.24 2123.82,1442.26 2124.85,1442.28 2125.89,1442.3 2126.92,1442.33 2127.96,1442.35 2129,1442.37 2130.03,1442.39 2131.07,1442.41 2132.1,1442.43 2133.14,1442.45 2134.18,1442.47 2135.21,1442.5 2136.25,1442.52 2137.28,1442.54 2138.32,1442.56 2139.36,1442.58 2140.39,1442.6 2141.43,1442.62 2142.46,1442.65 2143.5,1442.67 2144.54,1442.69 2145.57,1442.71 2146.61,1442.73 2147.64,1442.75 2148.68,1442.77 2149.71,1442.8 2150.75,1442.82 2151.79,1442.84 2152.82,1442.86 2153.86,1442.88 2154.89,1442.9 2155.93,1442.92 2156.97,1442.95 2158,1442.97 2159.04,1442.99 2160.07,1443.01 2161.11,1443.03 2162.15,1443.05 2163.18,1443.07 2164.22,1443.1 2165.25,1443.12 2166.29,1443.14 2167.33,1443.16 2168.36,1443.18 2169.4,1443.2 2170.43,1443.22 2171.47,1443.25 2172.51,1443.27 2173.54,1443.29 2174.58,1443.31 2175.61,1443.33 2176.65,1443.35 2177.68,1443.37 2178.72,1443.4 2179.76,1443.42 2180.79,1443.44 2181.83,1443.46 2182.86,1443.48 2183.9,1443.5 2184.94,1443.52 2185.97,1443.55 2187.01,1443.57 2188.04,1443.59 2189.08,1443.61 2190.12,1443.63 2191.15,1443.65 2192.19,1443.67 2193.22,1443.7 2194.26,1443.72 2195.3,1443.74 2196.33,1443.76 2197.37,1443.78 2198.4,1443.8 2199.44,1443.82 2200.48,1443.85 2201.51,1443.87 2202.55,1443.89 2203.58,1443.91 2204.62,1443.93 2205.65,1443.95 2206.69,1443.97 2207.73,1444 2208.76,1444.02 2209.8,1444.04 2210.83,1444.06 2211.87,1444.08 2212.91,1444.1 2213.94,1444.12 2214.98,1444.15 2216.01,1444.17 2217.05,1444.19 2218.09,1444.21 2219.12,1444.23 2220.16,1444.25 2221.19,1444.28 2222.23,1444.3 2223.27,1444.32 2224.3,1444.34 2225.34,1444.36 2226.37,1444.38 2227.41,1444.4 2228.45,1444.43 2229.48,1444.45 2230.52,1444.47 2231.55,1444.49 2232.59,1444.51 2233.62,1444.53 2234.66,1444.55 2235.7,1444.58 2236.73,1444.6 2237.77,1444.62 2238.8,1444.64 2239.84,1444.66 2240.88,1444.68 2241.91,1444.7 2242.95,1444.73 2243.98,1444.75 2245.02,1444.77 2246.06,1444.79 2247.09,1444.81 2248.13,1444.83 2249.16,1444.86 2250.2,1444.88 2251.24,1444.9 2252.27,1444.92 2253.31,1444.94 2254.34,1444.96 2255.38,1444.98 2256.42,1445.01 2257.45,1445.03 2258.49,1445.05 2259.52,1445.07 2260.56,1445.09 2261.59,1445.11 2262.63,1445.13 2263.67,1445.16 2264.7,1445.18 2265.74,1445.2 2266.77,1445.22 2267.81,1445.24 2268.85,1445.26 2269.88,1445.29 2270.92,1445.31 2271.95,1445.33 2272.99,1445.35 2274.03,1445.37 2275.06,1445.39 2276.1,1445.41 2277.13,1445.44 2278.17,1445.46 2279.21,1445.48 2280.24,1445.5 2281.28,1445.52 2282.31,1445.54 2283.35,1445.56 2284.38,1445.59 2285.42,1445.61 2286.46,1445.63 2287.49,1445.65 2288.53,1445.67 2289.56,1445.69 2290.6,1445.72 "/>
<path clip-path="url(#clip250)" d="M2007.5 198.898 L2279.55 198.898 L2279.55 95.2176 L2007.5 95.2176  Z" fill="#ffffff" fill-rule="evenodd" fill-opacity="1"/>
<polyline clip-path="url(#clip250)" style="stroke:#000000; stroke-linecap:round; stroke-linejoin:round; stroke-width:4; stroke-opacity:1; fill:none" points="2007.5,198.898 2279.55,198.898 2279.55,95.2176 2007.5,95.2176 2007.5,198.898 "/>
<polyline clip-path="url(#clip250)" style="stroke:#009af9; stroke-linecap:round; stroke-linejoin:round; stroke-width:4; stroke-opacity:1; fill:none" points="2031.91,147.058 2178.32,147.058 "/>
<path clip-path="url(#clip250)" d="M2216.56 166.745 Q2214.76 171.375 2213.04 172.787 Q2211.33 174.199 2208.46 174.199 L2205.06 174.199 L2205.06 170.634 L2207.56 170.634 Q2209.32 170.634 2210.29 169.8 Q2211.26 168.967 2212.44 165.865 L2213.2 163.921 L2202.72 138.412 L2207.23 138.412 L2215.33 158.689 L2223.44 138.412 L2227.95 138.412 L2216.56 166.745 Z" fill="#000000" fill-rule="nonzero" fill-opacity="1" /><path clip-path="url(#clip250)" d="M2235.24 160.402 L2242.88 160.402 L2242.88 134.037 L2234.57 135.703 L2234.57 131.444 L2242.83 129.778 L2247.51 129.778 L2247.51 160.402 L2255.15 160.402 L2255.15 164.338 L2235.24 164.338 L2235.24 160.402 Z" fill="#000000" fill-rule="nonzero" fill-opacity="1" /></svg>
