<?xml version="1.0" encoding="utf-8"?>
<svg xmlns="http://www.w3.org/2000/svg" xmlns:xlink="http://www.w3.org/1999/xlink" width="600" height="400" viewBox="0 0 2400 1600">
<defs>
  <clipPath id="clip450">
    <rect x="0" y="0" width="2400" height="1600"/>
  </clipPath>
</defs>
<path clip-path="url(#clip450)" d="M0 1600 L2400 1600 L2400 0 L0 0  Z" fill="#ffffff" fill-rule="evenodd" fill-opacity="1"/>
<defs>
  <clipPath id="clip451">
    <rect x="480" y="0" width="1681" height="1600"/>
  </clipPath>
</defs>
<path clip-path="url(#clip450)" d="M209.029 1486.45 L2352.76 1486.45 L2352.76 47.2441 L209.029 47.2441  Z" fill="#ffffff" fill-rule="evenodd" fill-opacity="1"/>
<defs>
  <clipPath id="clip452">
    <rect x="209" y="47" width="2145" height="1440"/>
  </clipPath>
</defs>
<polyline clip-path="url(#clip452)" style="stroke:#000000; stroke-linecap:round; stroke-linejoin:round; stroke-width:2; stroke-opacity:0.1; fill:none" points="269.7,1486.45 269.7,47.2441 "/>
<polyline clip-path="url(#clip452)" style="stroke:#000000; stroke-linecap:round; stroke-linejoin:round; stroke-width:2; stroke-opacity:0.1; fill:none" points="775.423,1486.45 775.423,47.2441 "/>
<polyline clip-path="url(#clip452)" style="stroke:#000000; stroke-linecap:round; stroke-linejoin:round; stroke-width:2; stroke-opacity:0.1; fill:none" points="1281.15,1486.45 1281.15,47.2441 "/>
<polyline clip-path="url(#clip452)" style="stroke:#000000; stroke-linecap:round; stroke-linejoin:round; stroke-width:2; stroke-opacity:0.1; fill:none" points="1786.87,1486.45 1786.87,47.2441 "/>
<polyline clip-path="url(#clip452)" style="stroke:#000000; stroke-linecap:round; stroke-linejoin:round; stroke-width:2; stroke-opacity:0.1; fill:none" points="2292.59,1486.45 2292.59,47.2441 "/>
<polyline clip-path="url(#clip450)" style="stroke:#000000; stroke-linecap:round; stroke-linejoin:round; stroke-width:4; stroke-opacity:1; fill:none" points="209.029,1486.45 2352.76,1486.45 "/>
<polyline clip-path="url(#clip450)" style="stroke:#000000; stroke-linecap:round; stroke-linejoin:round; stroke-width:4; stroke-opacity:1; fill:none" points="269.7,1486.45 269.7,1467.55 "/>
<polyline clip-path="url(#clip450)" style="stroke:#000000; stroke-linecap:round; stroke-linejoin:round; stroke-width:4; stroke-opacity:1; fill:none" points="775.423,1486.45 775.423,1467.55 "/>
<polyline clip-path="url(#clip450)" style="stroke:#000000; stroke-linecap:round; stroke-linejoin:round; stroke-width:4; stroke-opacity:1; fill:none" points="1281.15,1486.45 1281.15,1467.55 "/>
<polyline clip-path="url(#clip450)" style="stroke:#000000; stroke-linecap:round; stroke-linejoin:round; stroke-width:4; stroke-opacity:1; fill:none" points="1786.87,1486.45 1786.87,1467.55 "/>
<polyline clip-path="url(#clip450)" style="stroke:#000000; stroke-linecap:round; stroke-linejoin:round; stroke-width:4; stroke-opacity:1; fill:none" points="2292.59,1486.45 2292.59,1467.55 "/>
<path clip-path="url(#clip450)" d="M269.7 1517.37 Q266.089 1517.37 264.26 1520.93 Q262.455 1524.47 262.455 1531.6 Q262.455 1538.71 264.26 1542.27 Q266.089 1545.82 269.7 1545.82 Q273.334 1545.82 275.14 1542.27 Q276.969 1538.71 276.969 1531.6 Q276.969 1524.47 275.14 1520.93 Q273.334 1517.37 269.7 1517.37 M269.7 1513.66 Q275.51 1513.66 278.566 1518.27 Q281.644 1522.85 281.644 1531.6 Q281.644 1540.33 278.566 1544.94 Q275.51 1549.52 269.7 1549.52 Q263.89 1549.52 260.811 1544.94 Q257.756 1540.33 257.756 1531.6 Q257.756 1522.85 260.811 1518.27 Q263.89 1513.66 269.7 1513.66 Z" fill="#000000" fill-rule="nonzero" fill-opacity="1" /><path clip-path="url(#clip450)" d="M719.948 1544.91 L727.587 1544.91 L727.587 1518.55 L719.277 1520.21 L719.277 1515.95 L727.541 1514.29 L732.217 1514.29 L732.217 1544.91 L739.856 1544.91 L739.856 1548.85 L719.948 1548.85 L719.948 1544.91 Z" fill="#000000" fill-rule="nonzero" fill-opacity="1" /><path clip-path="url(#clip450)" d="M759.3 1517.37 Q755.689 1517.37 753.86 1520.93 Q752.055 1524.47 752.055 1531.6 Q752.055 1538.71 753.86 1542.27 Q755.689 1545.82 759.3 1545.82 Q762.934 1545.82 764.74 1542.27 Q766.568 1538.71 766.568 1531.6 Q766.568 1524.47 764.74 1520.93 Q762.934 1517.37 759.3 1517.37 M759.3 1513.66 Q765.11 1513.66 768.166 1518.27 Q771.244 1522.85 771.244 1531.6 Q771.244 1540.33 768.166 1544.94 Q765.11 1549.52 759.3 1549.52 Q753.49 1549.52 750.411 1544.94 Q747.356 1540.33 747.356 1531.6 Q747.356 1522.85 750.411 1518.27 Q753.49 1513.66 759.3 1513.66 Z" fill="#000000" fill-rule="nonzero" fill-opacity="1" /><path clip-path="url(#clip450)" d="M789.462 1517.37 Q785.851 1517.37 784.022 1520.93 Q782.216 1524.47 782.216 1531.6 Q782.216 1538.71 784.022 1542.27 Q785.851 1545.82 789.462 1545.82 Q793.096 1545.82 794.902 1542.27 Q796.73 1538.71 796.73 1531.6 Q796.73 1524.47 794.902 1520.93 Q793.096 1517.37 789.462 1517.37 M789.462 1513.66 Q795.272 1513.66 798.328 1518.27 Q801.406 1522.85 801.406 1531.6 Q801.406 1540.33 798.328 1544.94 Q795.272 1549.52 789.462 1549.52 Q783.652 1549.52 780.573 1544.94 Q777.517 1540.33 777.517 1531.6 Q777.517 1522.85 780.573 1518.27 Q783.652 1513.66 789.462 1513.66 Z" fill="#000000" fill-rule="nonzero" fill-opacity="1" /><path clip-path="url(#clip450)" d="M819.624 1517.37 Q816.013 1517.37 814.184 1520.93 Q812.378 1524.47 812.378 1531.6 Q812.378 1538.71 814.184 1542.27 Q816.013 1545.82 819.624 1545.82 Q823.258 1545.82 825.063 1542.27 Q826.892 1538.71 826.892 1531.6 Q826.892 1524.47 825.063 1520.93 Q823.258 1517.37 819.624 1517.37 M819.624 1513.66 Q825.434 1513.66 828.489 1518.27 Q831.568 1522.85 831.568 1531.6 Q831.568 1540.33 828.489 1544.94 Q825.434 1549.52 819.624 1549.52 Q813.814 1549.52 810.735 1544.94 Q807.679 1540.33 807.679 1531.6 Q807.679 1522.85 810.735 1518.27 Q813.814 1513.66 819.624 1513.66 Z" fill="#000000" fill-rule="nonzero" fill-opacity="1" /><path clip-path="url(#clip450)" d="M1229.76 1544.91 L1246.08 1544.91 L1246.08 1548.85 L1224.13 1548.85 L1224.13 1544.91 Q1226.79 1542.16 1231.38 1537.53 Q1235.98 1532.88 1237.16 1531.53 Q1239.41 1529.01 1240.29 1527.27 Q1241.19 1525.51 1241.19 1523.82 Q1241.19 1521.07 1239.25 1519.33 Q1237.33 1517.6 1234.22 1517.6 Q1232.02 1517.6 1229.57 1518.36 Q1227.14 1519.13 1224.36 1520.68 L1224.36 1515.95 Q1227.19 1514.82 1229.64 1514.24 Q1232.09 1513.66 1234.13 1513.66 Q1239.5 1513.66 1242.7 1516.35 Q1245.89 1519.03 1245.89 1523.52 Q1245.89 1525.65 1245.08 1527.57 Q1244.29 1529.47 1242.19 1532.07 Q1241.61 1532.74 1238.51 1535.95 Q1235.4 1539.15 1229.76 1544.91 Z" fill="#000000" fill-rule="nonzero" fill-opacity="1" /><path clip-path="url(#clip450)" d="M1265.89 1517.37 Q1262.28 1517.37 1260.45 1520.93 Q1258.65 1524.47 1258.65 1531.6 Q1258.65 1538.71 1260.45 1542.27 Q1262.28 1545.82 1265.89 1545.82 Q1269.52 1545.82 1271.33 1542.27 Q1273.16 1538.71 1273.16 1531.6 Q1273.16 1524.47 1271.33 1520.93 Q1269.52 1517.37 1265.89 1517.37 M1265.89 1513.66 Q1271.7 1513.66 1274.76 1518.27 Q1277.83 1522.85 1277.83 1531.6 Q1277.83 1540.33 1274.76 1544.94 Q1271.7 1549.52 1265.89 1549.52 Q1260.08 1549.52 1257 1544.94 Q1253.95 1540.33 1253.95 1531.6 Q1253.95 1522.85 1257 1518.27 Q1260.08 1513.66 1265.89 1513.66 Z" fill="#000000" fill-rule="nonzero" fill-opacity="1" /><path clip-path="url(#clip450)" d="M1296.05 1517.37 Q1292.44 1517.37 1290.61 1520.93 Q1288.81 1524.47 1288.81 1531.6 Q1288.81 1538.71 1290.61 1542.27 Q1292.44 1545.82 1296.05 1545.82 Q1299.69 1545.82 1301.49 1542.27 Q1303.32 1538.71 1303.32 1531.6 Q1303.32 1524.47 1301.49 1520.93 Q1299.69 1517.37 1296.05 1517.37 M1296.05 1513.66 Q1301.86 1513.66 1304.92 1518.27 Q1308 1522.85 1308 1531.6 Q1308 1540.33 1304.92 1544.94 Q1301.86 1549.52 1296.05 1549.52 Q1290.24 1549.52 1287.16 1544.94 Q1284.11 1540.33 1284.11 1531.6 Q1284.11 1522.85 1287.16 1518.27 Q1290.24 1513.66 1296.05 1513.66 Z" fill="#000000" fill-rule="nonzero" fill-opacity="1" /><path clip-path="url(#clip450)" d="M1326.21 1517.37 Q1322.6 1517.37 1320.77 1520.93 Q1318.97 1524.47 1318.97 1531.6 Q1318.97 1538.71 1320.77 1542.27 Q1322.6 1545.82 1326.21 1545.82 Q1329.85 1545.82 1331.65 1542.27 Q1333.48 1538.71 1333.48 1531.6 Q1333.48 1524.47 1331.65 1520.93 Q1329.85 1517.37 1326.21 1517.37 M1326.21 1513.66 Q1332.02 1513.66 1335.08 1518.27 Q1338.16 1522.85 1338.16 1531.6 Q1338.16 1540.33 1335.08 1544.94 Q1332.02 1549.52 1326.21 1549.52 Q1320.4 1549.52 1317.33 1544.94 Q1314.27 1540.33 1314.27 1531.6 Q1314.27 1522.85 1317.33 1518.27 Q1320.4 1513.66 1326.21 1513.66 Z" fill="#000000" fill-rule="nonzero" fill-opacity="1" /><path clip-path="url(#clip450)" d="M1745.55 1530.21 Q1748.9 1530.93 1750.78 1533.2 Q1752.68 1535.47 1752.68 1538.8 Q1752.68 1543.92 1749.16 1546.72 Q1745.64 1549.52 1739.16 1549.52 Q1736.98 1549.52 1734.67 1549.08 Q1732.38 1548.66 1729.92 1547.81 L1729.92 1543.29 Q1731.87 1544.43 1734.18 1545.01 Q1736.5 1545.58 1739.02 1545.58 Q1743.42 1545.58 1745.71 1543.85 Q1748.03 1542.11 1748.03 1538.8 Q1748.03 1535.75 1745.87 1534.03 Q1743.74 1532.3 1739.92 1532.3 L1735.9 1532.3 L1735.9 1528.45 L1740.11 1528.45 Q1743.56 1528.45 1745.39 1527.09 Q1747.22 1525.7 1747.22 1523.11 Q1747.22 1520.45 1745.32 1519.03 Q1743.44 1517.6 1739.92 1517.6 Q1738 1517.6 1735.8 1518.01 Q1733.6 1518.43 1730.97 1519.31 L1730.97 1515.14 Q1733.63 1514.4 1735.94 1514.03 Q1738.28 1513.66 1740.34 1513.66 Q1745.66 1513.66 1748.77 1516.09 Q1751.87 1518.5 1751.87 1522.62 Q1751.87 1525.49 1750.22 1527.48 Q1748.58 1529.45 1745.55 1530.21 Z" fill="#000000" fill-rule="nonzero" fill-opacity="1" /><path clip-path="url(#clip450)" d="M1771.54 1517.37 Q1767.93 1517.37 1766.1 1520.93 Q1764.3 1524.47 1764.3 1531.6 Q1764.3 1538.71 1766.1 1542.27 Q1767.93 1545.82 1771.54 1545.82 Q1775.18 1545.82 1776.98 1542.27 Q1778.81 1538.71 1778.81 1531.6 Q1778.81 1524.47 1776.98 1520.93 Q1775.18 1517.37 1771.54 1517.37 M1771.54 1513.66 Q1777.35 1513.66 1780.41 1518.27 Q1783.49 1522.85 1783.49 1531.6 Q1783.49 1540.33 1780.41 1544.94 Q1777.35 1549.52 1771.54 1549.52 Q1765.73 1549.52 1762.65 1544.94 Q1759.6 1540.33 1759.6 1531.6 Q1759.6 1522.85 1762.65 1518.27 Q1765.73 1513.66 1771.54 1513.66 Z" fill="#000000" fill-rule="nonzero" fill-opacity="1" /><path clip-path="url(#clip450)" d="M1801.71 1517.37 Q1798.09 1517.37 1796.27 1520.93 Q1794.46 1524.47 1794.46 1531.6 Q1794.46 1538.71 1796.27 1542.27 Q1798.09 1545.82 1801.71 1545.82 Q1805.34 1545.82 1807.15 1542.27 Q1808.97 1538.71 1808.97 1531.6 Q1808.97 1524.47 1807.15 1520.93 Q1805.34 1517.37 1801.71 1517.37 M1801.71 1513.66 Q1807.52 1513.66 1810.57 1518.27 Q1813.65 1522.85 1813.65 1531.6 Q1813.65 1540.33 1810.57 1544.94 Q1807.52 1549.52 1801.71 1549.52 Q1795.9 1549.52 1792.82 1544.94 Q1789.76 1540.33 1789.76 1531.6 Q1789.76 1522.85 1792.82 1518.27 Q1795.9 1513.66 1801.71 1513.66 Z" fill="#000000" fill-rule="nonzero" fill-opacity="1" /><path clip-path="url(#clip450)" d="M1831.87 1517.37 Q1828.26 1517.37 1826.43 1520.93 Q1824.62 1524.47 1824.62 1531.6 Q1824.62 1538.71 1826.43 1542.27 Q1828.26 1545.82 1831.87 1545.82 Q1835.5 1545.82 1837.31 1542.27 Q1839.14 1538.71 1839.14 1531.6 Q1839.14 1524.47 1837.31 1520.93 Q1835.5 1517.37 1831.87 1517.37 M1831.87 1513.66 Q1837.68 1513.66 1840.73 1518.27 Q1843.81 1522.85 1843.81 1531.6 Q1843.81 1540.33 1840.73 1544.94 Q1837.68 1549.52 1831.87 1549.52 Q1826.06 1549.52 1822.98 1544.94 Q1819.92 1540.33 1819.92 1531.6 Q1819.92 1522.85 1822.98 1518.27 Q1826.06 1513.66 1831.87 1513.66 Z" fill="#000000" fill-rule="nonzero" fill-opacity="1" /><path clip-path="url(#clip450)" d="M2250.6 1518.36 L2238.79 1536.81 L2250.6 1536.81 L2250.6 1518.36 M2249.37 1514.29 L2255.25 1514.29 L2255.25 1536.81 L2260.18 1536.81 L2260.18 1540.7 L2255.25 1540.7 L2255.25 1548.85 L2250.6 1548.85 L2250.6 1540.7 L2235 1540.7 L2235 1536.19 L2249.37 1514.29 Z" fill="#000000" fill-rule="nonzero" fill-opacity="1" /><path clip-path="url(#clip450)" d="M2277.91 1517.37 Q2274.3 1517.37 2272.47 1520.93 Q2270.67 1524.47 2270.67 1531.6 Q2270.67 1538.71 2272.47 1542.27 Q2274.3 1545.82 2277.91 1545.82 Q2281.55 1545.82 2283.35 1542.27 Q2285.18 1538.71 2285.18 1531.6 Q2285.18 1524.47 2283.35 1520.93 Q2281.55 1517.37 2277.91 1517.37 M2277.91 1513.66 Q2283.72 1513.66 2286.78 1518.27 Q2289.86 1522.85 2289.86 1531.6 Q2289.86 1540.33 2286.78 1544.94 Q2283.72 1549.52 2277.91 1549.52 Q2272.1 1549.52 2269.03 1544.94 Q2265.97 1540.33 2265.97 1531.6 Q2265.97 1522.85 2269.03 1518.27 Q2272.1 1513.66 2277.91 1513.66 Z" fill="#000000" fill-rule="nonzero" fill-opacity="1" /><path clip-path="url(#clip450)" d="M2308.08 1517.37 Q2304.47 1517.37 2302.64 1520.93 Q2300.83 1524.47 2300.83 1531.6 Q2300.83 1538.71 2302.64 1542.27 Q2304.47 1545.82 2308.08 1545.82 Q2311.71 1545.82 2313.52 1542.27 Q2315.34 1538.71 2315.34 1531.6 Q2315.34 1524.47 2313.52 1520.93 Q2311.71 1517.37 2308.08 1517.37 M2308.08 1513.66 Q2313.89 1513.66 2316.94 1518.27 Q2320.02 1522.85 2320.02 1531.6 Q2320.02 1540.33 2316.94 1544.94 Q2313.89 1549.52 2308.08 1549.52 Q2302.27 1549.52 2299.19 1544.94 Q2296.13 1540.33 2296.13 1531.6 Q2296.13 1522.85 2299.19 1518.27 Q2302.27 1513.66 2308.08 1513.66 Z" fill="#000000" fill-rule="nonzero" fill-opacity="1" /><path clip-path="url(#clip450)" d="M2338.24 1517.37 Q2334.63 1517.37 2332.8 1520.93 Q2330.99 1524.47 2330.99 1531.6 Q2330.99 1538.71 2332.8 1542.27 Q2334.63 1545.82 2338.24 1545.82 Q2341.87 1545.82 2343.68 1542.27 Q2345.51 1538.71 2345.51 1531.6 Q2345.51 1524.47 2343.68 1520.93 Q2341.87 1517.37 2338.24 1517.37 M2338.24 1513.66 Q2344.05 1513.66 2347.1 1518.27 Q2350.18 1522.85 2350.18 1531.6 Q2350.18 1540.33 2347.1 1544.94 Q2344.05 1549.52 2338.24 1549.52 Q2332.43 1549.52 2329.35 1544.94 Q2326.29 1540.33 2326.29 1531.6 Q2326.29 1522.85 2329.35 1518.27 Q2332.43 1513.66 2338.24 1513.66 Z" fill="#000000" fill-rule="nonzero" fill-opacity="1" /><polyline clip-path="url(#clip452)" style="stroke:#000000; stroke-linecap:round; stroke-linejoin:round; stroke-width:2; stroke-opacity:0.1; fill:none" points="209.029,1253.25 2352.76,1253.25 "/>
<polyline clip-path="url(#clip452)" style="stroke:#000000; stroke-linecap:round; stroke-linejoin:round; stroke-width:2; stroke-opacity:0.1; fill:none" points="209.029,972.664 2352.76,972.664 "/>
<polyline clip-path="url(#clip452)" style="stroke:#000000; stroke-linecap:round; stroke-linejoin:round; stroke-width:2; stroke-opacity:0.1; fill:none" points="209.029,692.076 2352.76,692.076 "/>
<polyline clip-path="url(#clip452)" style="stroke:#000000; stroke-linecap:round; stroke-linejoin:round; stroke-width:2; stroke-opacity:0.1; fill:none" points="209.029,411.489 2352.76,411.489 "/>
<polyline clip-path="url(#clip452)" style="stroke:#000000; stroke-linecap:round; stroke-linejoin:round; stroke-width:2; stroke-opacity:0.1; fill:none" points="209.029,130.902 2352.76,130.902 "/>
<polyline clip-path="url(#clip450)" style="stroke:#000000; stroke-linecap:round; stroke-linejoin:round; stroke-width:4; stroke-opacity:1; fill:none" points="209.029,1486.45 209.029,47.2441 "/>
<polyline clip-path="url(#clip450)" style="stroke:#000000; stroke-linecap:round; stroke-linejoin:round; stroke-width:4; stroke-opacity:1; fill:none" points="209.029,1253.25 227.926,1253.25 "/>
<polyline clip-path="url(#clip450)" style="stroke:#000000; stroke-linecap:round; stroke-linejoin:round; stroke-width:4; stroke-opacity:1; fill:none" points="209.029,972.664 227.926,972.664 "/>
<polyline clip-path="url(#clip450)" style="stroke:#000000; stroke-linecap:round; stroke-linejoin:round; stroke-width:4; stroke-opacity:1; fill:none" points="209.029,692.076 227.926,692.076 "/>
<polyline clip-path="url(#clip450)" style="stroke:#000000; stroke-linecap:round; stroke-linejoin:round; stroke-width:4; stroke-opacity:1; fill:none" points="209.029,411.489 227.926,411.489 "/>
<polyline clip-path="url(#clip450)" style="stroke:#000000; stroke-linecap:round; stroke-linejoin:round; stroke-width:4; stroke-opacity:1; fill:none" points="209.029,130.902 227.926,130.902 "/>
<path clip-path="url(#clip450)" d="M50.9921 1253.7 L80.6679 1253.7 L80.6679 1257.64 L50.9921 1257.64 L50.9921 1253.7 Z" fill="#000000" fill-rule="nonzero" fill-opacity="1" /><path clip-path="url(#clip450)" d="M94.7882 1266.6 L111.108 1266.6 L111.108 1270.53 L89.1632 1270.53 L89.1632 1266.6 Q91.8252 1263.84 96.4085 1259.21 Q101.015 1254.56 102.196 1253.22 Q104.441 1250.69 105.321 1248.96 Q106.223 1247.2 106.223 1245.51 Q106.223 1242.75 104.279 1241.02 Q102.358 1239.28 99.2558 1239.28 Q97.0567 1239.28 94.603 1240.05 Q92.1725 1240.81 89.3947 1242.36 L89.3947 1237.64 Q92.2188 1236.5 94.6724 1235.92 Q97.1261 1235.35 99.1632 1235.35 Q104.534 1235.35 107.728 1238.03 Q110.922 1240.72 110.922 1245.21 Q110.922 1247.34 110.112 1249.26 Q109.325 1251.16 107.219 1253.75 Q106.64 1254.42 103.538 1257.64 Q100.436 1260.83 94.7882 1266.6 Z" fill="#000000" fill-rule="nonzero" fill-opacity="1" /><path clip-path="url(#clip450)" d="M133.769 1240.05 L121.964 1258.49 L133.769 1258.49 L133.769 1240.05 M132.543 1235.97 L138.422 1235.97 L138.422 1258.49 L143.353 1258.49 L143.353 1262.38 L138.422 1262.38 L138.422 1270.53 L133.769 1270.53 L133.769 1262.38 L118.168 1262.38 L118.168 1257.87 L132.543 1235.97 Z" fill="#000000" fill-rule="nonzero" fill-opacity="1" /><path clip-path="url(#clip450)" d="M161.084 1239.05 Q157.473 1239.05 155.644 1242.61 Q153.839 1246.16 153.839 1253.29 Q153.839 1260.39 155.644 1263.96 Q157.473 1267.5 161.084 1267.5 Q164.718 1267.5 166.524 1263.96 Q168.353 1260.39 168.353 1253.29 Q168.353 1246.16 166.524 1242.61 Q164.718 1239.05 161.084 1239.05 M161.084 1235.35 Q166.894 1235.35 169.95 1239.95 Q173.029 1244.54 173.029 1253.29 Q173.029 1262.01 169.95 1266.62 Q166.894 1271.2 161.084 1271.2 Q155.274 1271.2 152.195 1266.62 Q149.14 1262.01 149.14 1253.29 Q149.14 1244.54 152.195 1239.95 Q155.274 1235.35 161.084 1235.35 Z" fill="#000000" fill-rule="nonzero" fill-opacity="1" /><path clip-path="url(#clip450)" d="M50.9921 973.115 L80.6679 973.115 L80.6679 977.05 L50.9921 977.05 L50.9921 973.115 Z" fill="#000000" fill-rule="nonzero" fill-opacity="1" /><path clip-path="url(#clip450)" d="M94.7882 986.009 L111.108 986.009 L111.108 989.944 L89.1632 989.944 L89.1632 986.009 Q91.8252 983.254 96.4085 978.624 Q101.015 973.972 102.196 972.629 Q104.441 970.106 105.321 968.37 Q106.223 966.611 106.223 964.921 Q106.223 962.166 104.279 960.43 Q102.358 958.694 99.2558 958.694 Q97.0567 958.694 94.603 959.458 Q92.1725 960.222 89.3947 961.773 L89.3947 957.05 Q92.2188 955.916 94.6724 955.337 Q97.1261 954.759 99.1632 954.759 Q104.534 954.759 107.728 957.444 Q110.922 960.129 110.922 964.62 Q110.922 966.749 110.112 968.671 Q109.325 970.569 107.219 973.161 Q106.64 973.833 103.538 977.05 Q100.436 980.245 94.7882 986.009 Z" fill="#000000" fill-rule="nonzero" fill-opacity="1" /><path clip-path="url(#clip450)" d="M121.732 986.009 L129.371 986.009 L129.371 959.643 L121.061 961.31 L121.061 957.05 L129.325 955.384 L134.001 955.384 L134.001 986.009 L141.64 986.009 L141.64 989.944 L121.732 989.944 L121.732 986.009 Z" fill="#000000" fill-rule="nonzero" fill-opacity="1" /><path clip-path="url(#clip450)" d="M161.084 958.462 Q157.473 958.462 155.644 962.027 Q153.839 965.569 153.839 972.698 Q153.839 979.805 155.644 983.37 Q157.473 986.911 161.084 986.911 Q164.718 986.911 166.524 983.37 Q168.353 979.805 168.353 972.698 Q168.353 965.569 166.524 962.027 Q164.718 958.462 161.084 958.462 M161.084 954.759 Q166.894 954.759 169.95 959.365 Q173.029 963.949 173.029 972.698 Q173.029 981.425 169.95 986.032 Q166.894 990.615 161.084 990.615 Q155.274 990.615 152.195 986.032 Q149.14 981.425 149.14 972.698 Q149.14 963.949 152.195 959.365 Q155.274 954.759 161.084 954.759 Z" fill="#000000" fill-rule="nonzero" fill-opacity="1" /><path clip-path="url(#clip450)" d="M50.9921 692.528 L80.6679 692.528 L80.6679 696.463 L50.9921 696.463 L50.9921 692.528 Z" fill="#000000" fill-rule="nonzero" fill-opacity="1" /><path clip-path="url(#clip450)" d="M91.5706 705.421 L99.2095 705.421 L99.2095 679.056 L90.8993 680.722 L90.8993 676.463 L99.1632 674.796 L103.839 674.796 L103.839 705.421 L111.478 705.421 L111.478 709.356 L91.5706 709.356 L91.5706 705.421 Z" fill="#000000" fill-rule="nonzero" fill-opacity="1" /><path clip-path="url(#clip450)" d="M130.922 692.945 Q127.589 692.945 125.668 694.727 Q123.77 696.509 123.77 699.634 Q123.77 702.759 125.668 704.542 Q127.589 706.324 130.922 706.324 Q134.256 706.324 136.177 704.542 Q138.098 702.736 138.098 699.634 Q138.098 696.509 136.177 694.727 Q134.279 692.945 130.922 692.945 M126.246 690.954 Q123.237 690.213 121.547 688.153 Q119.881 686.093 119.881 683.13 Q119.881 678.986 122.82 676.579 Q125.783 674.171 130.922 674.171 Q136.084 674.171 139.024 676.579 Q141.964 678.986 141.964 683.13 Q141.964 686.093 140.274 688.153 Q138.607 690.213 135.621 690.954 Q139.001 691.741 140.876 694.033 Q142.774 696.324 142.774 699.634 Q142.774 704.657 139.695 707.343 Q136.64 710.028 130.922 710.028 Q125.205 710.028 122.126 707.343 Q119.07 704.657 119.07 699.634 Q119.07 696.324 120.969 694.033 Q122.867 691.741 126.246 690.954 M124.533 683.57 Q124.533 686.255 126.2 687.759 Q127.89 689.264 130.922 689.264 Q133.931 689.264 135.621 687.759 Q137.334 686.255 137.334 683.57 Q137.334 680.884 135.621 679.38 Q133.931 677.875 130.922 677.875 Q127.89 677.875 126.2 679.38 Q124.533 680.884 124.533 683.57 Z" fill="#000000" fill-rule="nonzero" fill-opacity="1" /><path clip-path="url(#clip450)" d="M161.084 677.875 Q157.473 677.875 155.644 681.44 Q153.839 684.982 153.839 692.111 Q153.839 699.218 155.644 702.782 Q157.473 706.324 161.084 706.324 Q164.718 706.324 166.524 702.782 Q168.353 699.218 168.353 692.111 Q168.353 684.982 166.524 681.44 Q164.718 677.875 161.084 677.875 M161.084 674.171 Q166.894 674.171 169.95 678.778 Q173.029 683.361 173.029 692.111 Q173.029 700.838 169.95 705.444 Q166.894 710.028 161.084 710.028 Q155.274 710.028 152.195 705.444 Q149.14 700.838 149.14 692.111 Q149.14 683.361 152.195 678.778 Q155.274 674.171 161.084 674.171 Z" fill="#000000" fill-rule="nonzero" fill-opacity="1" /><path clip-path="url(#clip450)" d="M50.9921 411.941 L80.6679 411.941 L80.6679 415.876 L50.9921 415.876 L50.9921 411.941 Z" fill="#000000" fill-rule="nonzero" fill-opacity="1" /><path clip-path="url(#clip450)" d="M91.5706 424.834 L99.2095 424.834 L99.2095 398.468 L90.8993 400.135 L90.8993 395.876 L99.1632 394.209 L103.839 394.209 L103.839 424.834 L111.478 424.834 L111.478 428.769 L91.5706 428.769 L91.5706 424.834 Z" fill="#000000" fill-rule="nonzero" fill-opacity="1" /><path clip-path="url(#clip450)" d="M120.969 394.209 L139.325 394.209 L139.325 398.144 L125.251 398.144 L125.251 406.617 Q126.27 406.269 127.288 406.107 Q128.307 405.922 129.325 405.922 Q135.112 405.922 138.492 409.093 Q141.871 412.265 141.871 417.681 Q141.871 423.26 138.399 426.362 Q134.927 429.441 128.607 429.441 Q126.432 429.441 124.163 429.07 Q121.918 428.7 119.51 427.959 L119.51 423.26 Q121.594 424.394 123.816 424.95 Q126.038 425.505 128.515 425.505 Q132.519 425.505 134.857 423.399 Q137.195 421.292 137.195 417.681 Q137.195 414.07 134.857 411.964 Q132.519 409.857 128.515 409.857 Q126.64 409.857 124.765 410.274 Q122.913 410.691 120.969 411.57 L120.969 394.209 Z" fill="#000000" fill-rule="nonzero" fill-opacity="1" /><path clip-path="url(#clip450)" d="M161.084 397.288 Q157.473 397.288 155.644 400.853 Q153.839 404.394 153.839 411.524 Q153.839 418.63 155.644 422.195 Q157.473 425.737 161.084 425.737 Q164.718 425.737 166.524 422.195 Q168.353 418.63 168.353 411.524 Q168.353 404.394 166.524 400.853 Q164.718 397.288 161.084 397.288 M161.084 393.584 Q166.894 393.584 169.95 398.191 Q173.029 402.774 173.029 411.524 Q173.029 420.251 169.95 424.857 Q166.894 429.441 161.084 429.441 Q155.274 429.441 152.195 424.857 Q149.14 420.251 149.14 411.524 Q149.14 402.774 152.195 398.191 Q155.274 393.584 161.084 393.584 Z" fill="#000000" fill-rule="nonzero" fill-opacity="1" /><path clip-path="url(#clip450)" d="M50.9921 131.353 L80.6679 131.353 L80.6679 135.289 L50.9921 135.289 L50.9921 131.353 Z" fill="#000000" fill-rule="nonzero" fill-opacity="1" /><path clip-path="url(#clip450)" d="M91.5706 144.247 L99.2095 144.247 L99.2095 117.881 L90.8993 119.548 L90.8993 115.289 L99.1632 113.622 L103.839 113.622 L103.839 144.247 L111.478 144.247 L111.478 148.182 L91.5706 148.182 L91.5706 144.247 Z" fill="#000000" fill-rule="nonzero" fill-opacity="1" /><path clip-path="url(#clip450)" d="M124.95 144.247 L141.269 144.247 L141.269 148.182 L119.325 148.182 L119.325 144.247 Q121.987 141.492 126.57 136.863 Q131.177 132.21 132.357 130.867 Q134.603 128.344 135.482 126.608 Q136.385 124.849 136.385 123.159 Q136.385 120.404 134.441 118.668 Q132.519 116.932 129.418 116.932 Q127.219 116.932 124.765 117.696 Q122.334 118.46 119.557 120.011 L119.557 115.289 Q122.381 114.154 124.834 113.576 Q127.288 112.997 129.325 112.997 Q134.695 112.997 137.89 115.682 Q141.084 118.367 141.084 122.858 Q141.084 124.988 140.274 126.909 Q139.487 128.807 137.381 131.4 Q136.802 132.071 133.7 135.289 Q130.598 138.483 124.95 144.247 Z" fill="#000000" fill-rule="nonzero" fill-opacity="1" /><path clip-path="url(#clip450)" d="M161.084 116.701 Q157.473 116.701 155.644 120.265 Q153.839 123.807 153.839 130.937 Q153.839 138.043 155.644 141.608 Q157.473 145.15 161.084 145.15 Q164.718 145.15 166.524 141.608 Q168.353 138.043 168.353 130.937 Q168.353 123.807 166.524 120.265 Q164.718 116.701 161.084 116.701 M161.084 112.997 Q166.894 112.997 169.95 117.603 Q173.029 122.187 173.029 130.937 Q173.029 139.664 169.95 144.27 Q166.894 148.853 161.084 148.853 Q155.274 148.853 152.195 144.27 Q149.14 139.664 149.14 130.937 Q149.14 122.187 152.195 117.603 Q155.274 112.997 161.084 112.997 Z" fill="#000000" fill-rule="nonzero" fill-opacity="1" /><polyline clip-path="url(#clip452)" style="stroke:#009af9; stroke-linecap:round; stroke-linejoin:round; stroke-width:4; stroke-opacity:1; fill:none" points="269.7,447.766 270.206,447.917 270.711,493.469 271.217,493.587 271.723,442.392 272.229,442.457 272.734,552.526 273.24,552.612 273.746,254.844 274.252,254.852 274.757,418.181 275.263,418.274 275.769,417.273 276.274,417.348 276.78,481.103 277.286,481.213 277.792,353.179 278.297,353.187 278.803,314.35 279.309,314.349 279.814,251.08 280.32,250.929 280.826,686.492 281.332,686.544 281.837,365.426 282.343,365.459 282.849,570.86 283.355,570.925 283.86,606.863 284.366,606.853 284.872,466.782 285.377,466.83 285.883,362.361 286.389,362.345 286.895,315.259 287.4,315.337 287.906,423.354 288.412,423.4 288.917,382.732 289.423,382.758 289.929,489.004 290.435,489.056 290.94,360.045 291.446,360.051 291.952,501.641 292.458,501.656 292.963,450.927 293.469,450.944 293.975,187.198 294.48,187.271 294.986,541.308 295.492,541.303 295.998,402.122 296.503,402.138 297.009,496.096 297.515,496.096 298.021,429.467 298.526,429.493 299.032,677.13 299.538,677.192 300.043,402.71 300.549,402.702 301.055,762.343 301.561,762.209 302.066,340.212 302.572,340.148 303.078,450.171 303.583,450.131 304.089,308.495 304.595,308.557 305.101,290.283 305.606,290.27 306.112,344.997 306.618,344.926 307.124,627.748 307.629,627.736 308.135,460.675 308.641,460.64 309.146,255.514 309.652,255.514 310.158,348.961 310.664,348.959 311.169,461.168 311.675,461.23 312.181,419.516 312.686,419.513 313.192,392.533 313.698,392.522 314.204,471.204 314.709,471.209 315.215,430.12 315.721,430.152 316.227,394.889 316.732,394.865 317.238,477.302 317.744,477.265 318.249,409.985 318.755,409.971 319.261,341.027 319.767,340.865 320.272,384.124 320.778,384.056 321.284,214.313 321.789,214.09 322.295,305.663 322.801,305.641 323.307,472.789 323.812,472.825 324.318,513.548 324.824,513.378 325.33,438.347 325.835,438.357 326.341,720.213 326.847,720.254 327.352,509.959 327.858,510.075 328.364,406.041 328.87,405.986 329.375,787.476 329.881,787.542 330.387,495.352 330.892,495.381 331.398,515.948 331.904,515.916 332.41,390.054 332.915,390.046 333.421,522.321 333.927,522.253 334.433,535.561 334.938,535.459 335.444,585.119 335.95,585.027 336.455,346.065 336.961,346.055 337.467,607.821 337.973,607.772 338.478,585.258 338.984,585.237 339.49,474.904 339.995,474.915 340.501,633.972 341.007,633.915 341.513,564.825 342.018,564.906 342.524,278.911 343.03,278.674 343.536,287.822 344.041,287.785 344.547,316.889 345.053,316.855 345.558,88.1316 346.064,87.9763 346.57,540.458 347.076,540.306 347.581,821.547 348.087,821.414 348.593,376.214 349.098,376.103 349.604,477.577 350.11,477.514 350.616,466.424 351.121,466.303 351.627,489.582 352.133,489.543 352.639,535.006 353.144,535.022 353.65,418.909 354.156,418.898 354.661,740.39 355.167,740.386 355.673,540.227 356.179,540.169 356.684,630.961 357.19,630.925 357.696,270.613 358.201,270.53 358.707,589.864 359.213,589.864 359.719,223.175 360.224,223.097 360.73,452.725 361.236,452.655 361.742,472.447 362.247,472.394 362.753,712.157 363.259,712.021 363.764,384.932 364.27,384.84 364.776,376.057 365.282,375.949 365.787,576.679 366.293,576.638 366.799,225.053 367.304,224.773 367.81,578.215 368.316,578.178 368.822,711.831 369.327,711.695 369.833,501.169 370.339,501.163 370.845,564.777 371.35,564.669 371.856,319.077 372.362,318.976 372.867,398.656 373.373,398.543 373.879,593.745 374.385,593.794 374.89,555.323 375.396,555.31 375.902,475.945 376.407,475.913 376.913,470.075 377.419,470.031 377.925,377.185 378.43,377.169 378.936,409.16 379.442,409.125 379.948,562.651 380.453,562.51 380.959,488.79 381.465,488.733 381.97,491.998 382.476,491.788 382.982,337.553 383.488,337.535 383.993,542.971 384.499,542.916 385.005,573.405 385.51,573.354 386.016,443.687 386.522,443.592 387.028,542.95 387.533,542.877 388.039,409.744 388.545,409.648 389.051,529.234 389.556,529.091 390.062,627.466 390.568,627.497 391.073,597.813 391.579,597.59 392.085,604.709 392.591,604.641 393.096,336.261 393.602,336.169 394.108,522.725 394.614,522.541 395.119,571.347 395.625,571.282 396.131,574.128 396.636,573.874 397.142,585.776 397.648,585.664 398.154,698.309 398.659,698.276 399.165,441.237 399.671,441.183 400.176,431.244 400.682,431.178 401.188,371.223 401.694,371.107 402.199,642.998 402.705,642.865 403.211,615.881 403.717,615.839 404.222,581.265 404.728,581.104 405.234,443.3 405.739,443.111 406.245,545.045 406.751,544.966 407.257,770.375 407.762,770.438 408.268,613.334 408.774,613.239 409.279,484.985 409.785,484.899 410.291,497.467 410.797,497.372 411.302,544.646 411.808,544.607 412.314,453.97 412.82,453.854 413.325,615.837 413.831,615.694 414.337,549.397 414.842,549.33 415.348,550.413 415.854,550.28 416.36,414.383 416.865,414.273 417.371,574.322 417.877,574.297 418.382,461.936 418.888,461.868 419.394,652.166 419.9,652.029 420.405,634.522 420.911,634.368 421.417,741.474 421.923,741.311 422.428,335.455 422.934,335.3 423.44,690.428 423.945,690.377 424.451,487.851 424.957,487.59 425.463,687.759 425.968,687.614 426.474,633.041 426.98,632.921 427.485,546.687 427.991,546.55 428.497,433.489 429.003,433.387 429.508,496.695 430.014,496.548 430.52,633.21 431.026,633.152 431.531,776.747 432.037,776.686 432.543,456.119 433.048,455.904 433.554,563.632 434.06,563.492 434.566,563.36 435.071,563.229 435.577,507.31 436.083,507.27 436.588,461.94 437.094,461.837 437.6,678.704 438.106,678.509 438.611,580.067 439.117,579.922 439.623,573.217 440.129,573.168 440.634,653.392 441.14,653.266 441.646,436.708 442.151,436.57 442.657,596.356 443.163,596.299 443.669,400.188 444.174,400.043 444.68,553.058 445.186,552.926 445.691,511.154 446.197,510.994 446.703,667.06 447.209,666.985 447.714,415.683 448.22,415.474 448.726,644.027 449.232,643.902 449.737,528.327 450.243,528.234 450.749,693.879 451.254,693.778 451.76,656.257 452.266,656.156 452.772,514.352 453.277,514.226 453.783,708.498 454.289,708.37 454.794,641.452 455.3,641.312 455.806,614.966 456.312,614.819 456.817,507.414 457.323,507.263 457.829,531.263 458.335,531.189 458.84,674.903 459.346,674.753 459.852,820.4 460.357,820.282 460.863,463.486 461.369,463.324 461.875,498.241 462.38,498.172 462.886,622.775 463.392,622.601 463.897,427.025 464.403,426.904 464.909,634.716 465.415,634.484 465.92,790.698 466.426,790.565 466.932,473.05 467.438,472.812 467.943,764.16 468.449,764.111 468.955,595.821 469.46,595.715 469.966,664.638 470.472,664.566 470.978,408.238 471.483,408.142 471.989,668.225 472.495,668.078 473,672.637 473.506,672.463 474.012,340.196 474.518,340.043 475.023,942.09 475.529,941.808 476.035,632.149 476.541,632.04 477.046,574.92 477.552,574.735 478.058,439.388 478.563,439.231 479.069,687.403 479.575,687.361 480.081,635.728 480.586,635.519 481.092,586.848 481.598,586.858 482.103,625.058 482.609,624.936 483.115,475.977 483.621,475.91 484.126,697.21 484.632,696.887 485.138,665.34 485.644,665.149 486.149,662.639 486.655,662.517 487.161,461.76 487.666,461.434 488.172,594.555 488.678,594.467 489.184,658.849 489.689,658.626 490.195,838.174 490.701,838.052 491.207,502.432 491.712,502.182 492.218,762.201 492.724,762.012 493.229,577.64 493.735,577.517 494.241,670.664 494.747,670.497 495.252,395.954 495.758,395.825 496.264,630.225 496.769,630.102 497.275,630.163 497.781,629.998 498.287,558.505 498.792,558.365 499.298,1011.87 499.804,1011.83 500.31,840.371 500.815,840.281 501.321,809.419 501.827,809.249 502.332,483.63 502.838,483.488 503.344,682.664 503.85,682.472 504.355,675.276 504.861,675.051 505.367,705.437 505.872,705.234 506.378,889.475 506.884,889.347 507.39,567.197 507.895,567.113 508.401,679.749 508.907,679.669 509.413,657.68 509.918,657.459 510.424,667.539 510.93,667.387 511.435,785.276 511.941,785.24 512.447,702.741 512.953,702.567 513.458,771.374 513.964,771.222 514.47,566.221 514.975,566.143 515.481,800.835 515.987,800.636 516.493,539.738 516.998,539.624 517.504,875.373 518.01,875.248 518.516,715.658 519.021,715.551 519.527,698.756 520.033,698.668 520.538,811.655 521.044,811.333 521.55,853.207 522.056,852.926 522.561,849.068 523.067,848.93 523.573,447.677 524.078,447.531 524.584,704.389 525.09,704.17 525.596,706.968 526.101,706.75 526.607,844.187 527.113,844.017 527.619,800.912 528.124,800.796 528.63,715.023 529.136,714.93 529.641,571.264 530.147,571.028 530.653,668.02 531.159,667.865 531.664,743.52 532.17,743.271 532.676,700.882 533.181,700.777 533.687,670.539 534.193,670.426 534.699,679.429 535.204,679.019 535.71,585.571 536.216,585.291 536.722,815.122 537.227,814.932 537.733,797.237 538.239,797.012 538.744,399.198 539.25,398.933 539.756,795.662 540.262,795.338 540.767,629.338 541.273,629.183 541.779,536.535 542.284,536.358 542.79,585.922 543.296,585.705 543.802,856.331 544.307,856.215 544.813,728.81 545.319,728.642 545.825,447.621 546.33,447.069 546.836,881.56 547.342,881.386 547.847,453.082 548.353,452.871 548.859,549.907 549.365,549.807 549.87,545.26 550.376,545.004 550.882,434.031 551.387,433.905 551.893,543.173 552.399,542.979 552.905,673.964 553.41,673.825 553.916,914.896 554.422,914.77 554.928,669.337 555.433,669.146 555.939,917.121 556.445,916.866 556.95,563.116 557.456,562.95 557.962,673.892 558.468,673.768 558.973,643.895 559.479,643.651 559.985,837.694 560.49,837.485 560.996,743.047 561.502,742.836 562.008,850.765 562.513,850.647 563.019,765.189 563.525,765.048 564.031,823.173 564.536,822.986 565.042,691.186 565.548,691.05 566.053,768.678 566.559,768.546 567.065,738.221 567.571,737.996 568.076,716.119 568.582,715.938 569.088,685.99 569.593,685.82 570.099,658.64 570.605,658.404 571.111,747.493 571.616,747.318 572.122,897.692 572.628,897.445 573.134,665.631 573.639,665.41 574.145,709.962 574.651,709.813 575.156,692.601 575.662,692.394 576.168,672.07 576.674,671.916 577.179,667.701 577.685,667.539 578.191,796.075 578.696,795.906 579.202,695.212 579.708,694.962 580.214,852.936 580.719,852.803 581.225,827.339 581.731,827.087 582.237,754.058 582.742,753.866 583.248,795.738 583.754,795.552 584.259,691.628 584.765,691.48 585.271,595.944 585.777,595.837 586.282,767.39 586.788,767.145 587.294,728.5 587.8,728.238 588.305,691.703 588.811,691.466 589.317,578.838 589.822,578.612 590.328,812.067 590.834,811.898 591.34,822.16 591.845,821.996 592.351,953.383 592.857,953.166 593.362,853.832 593.868,853.54 594.374,530.783 594.88,530.512 595.385,659.092 595.891,658.868 596.397,742.868 596.903,742.716 597.408,659.489 597.914,659.278 598.42,621.869 598.925,621.827 599.431,594.052 599.937,593.868 600.443,769.992 600.948,769.796 601.454,711.624 601.96,711.5 602.465,634.613 602.971,634.403 603.477,1019.82 603.983,1019.61 604.488,690.871 604.994,690.618 605.5,422.802 606.006,422.542 606.511,769.738 607.017,769.583 607.523,648.107 608.028,647.819 608.534,713.663 609.04,713.501 609.546,936.239 610.051,935.953 610.557,916.01 611.063,915.869 611.568,703.996 612.074,703.792 612.58,801.137 613.086,800.945 613.591,856.092 614.097,855.983 614.603,843.182 615.109,843.053 615.614,777.696 616.12,777.413 616.626,683.455 617.131,683.287 617.637,522.85 618.143,522.65 618.649,846.129 619.154,845.973 619.66,652.783 620.166,652.626 620.671,653.565 621.177,653.288 621.683,770.962 622.189,770.77 622.694,791.003 623.2,790.8 623.706,817.508 624.212,817.365 624.717,733.94 625.223,733.807 625.729,600.671 626.234,600.395 626.74,736.85 627.246,736.623 627.752,819.71 628.257,819.509 628.763,640.581 629.269,640.063 629.774,705.421 630.28,705.08 630.786,780.679 631.292,780.415 631.797,829.589 632.303,829.523 632.809,731.956 633.315,731.812 633.82,763.34 634.326,763.147 634.832,712.8 635.337,712.658 635.843,708.347 636.349,708.197 636.855,846.302 637.36,846.175 637.866,819.855 638.372,819.525 638.877,772.472 639.383,772.195 639.889,711.468 640.395,711.087 640.9,870.329 641.406,870.091 641.912,693.839 642.418,693.484 642.923,791.025 643.429,790.887 643.935,669.416 644.44,669.247 644.946,983.039 645.452,982.822 645.958,936.438 646.463,936.248 646.969,762.826 647.475,762.652 647.98,875.053 648.486,874.871 648.992,883.289 649.498,883.059 650.003,868.902 650.509,868.661 651.015,835.275 651.521,835.092 652.026,773.525 652.532,773.439 653.038,664.122 653.543,663.86 654.049,859.126 654.555,858.934 655.061,913.613 655.566,913.373 656.072,784.038 656.578,783.875 657.083,728.872 657.589,728.797 658.095,710.837 658.601,710.66 659.106,887.786 659.612,887.57 660.118,742.636 660.624,742.412 661.129,903.834 661.635,903.679 662.141,763.396 662.646,763.2 663.152,819.126 663.658,818.977 664.164,896.215 664.669,896 665.175,714.686 665.681,714.475 666.186,664.853 666.692,664.622 667.198,937.923 667.704,937.774 668.209,785.353 668.715,785.181 669.221,807.181 669.727,807.059 670.232,1125.69 670.738,1125.44 671.244,636.875 671.749,636.726 672.255,921.398 672.761,921.289 673.267,1000.43 673.772,1000.22 674.278,869.11 674.784,868.828 675.289,727.709 675.795,727.525 676.301,848.518 676.807,848.325 677.312,1094.18 677.818,1094.01 678.324,735.283 678.83,735.097 679.335,651.566 679.841,651.323 680.347,770.99 680.852,770.857 681.358,840.244 681.864,840.004 682.37,820.994 682.875,820.767 683.381,780.094 683.887,779.854 684.393,765.17 684.898,765.006 685.404,870.282 685.91,870.144 686.415,846.124 686.921,845.872 687.427,831.695 687.933,831.542 688.438,825.043 688.944,824.819 689.45,834.776 689.955,834.501 690.461,736.165 690.967,735.836 691.473,646.844 691.978,646.611 692.484,885.784 692.99,885.617 693.496,754.049 694.001,753.797 694.507,800.852 695.013,800.629 695.518,856.129 696.024,855.908 696.53,962.187 697.036,962.022 697.541,948.886 698.047,948.666 698.553,796.472 699.058,796.265 699.564,724.133 700.07,723.971 700.576,775.984 701.081,775.809 701.587,958.729 702.093,958.503 702.599,735.366 703.104,735.187 703.61,794.319 704.116,794.201 704.621,758.826 705.127,758.657 705.633,1057.65 706.139,1057.46 706.644,777.292 707.15,777.091 707.656,803.649 708.161,803.398 708.667,823.497 709.173,823.281 709.679,949.899 710.184,949.69 710.69,635.699 711.196,635.491 711.702,818.186 712.207,817.956 712.713,895.731 713.219,895.489 713.724,876.881 714.23,876.641 714.736,754.541 715.242,754.313 715.747,976.221 716.253,975.956 716.759,725.267 717.264,724.993 717.77,880.974 718.276,880.769 718.782,859.792 719.287,859.522 719.793,558.147 720.299,558.033 720.805,774.365 721.31,774.186 721.816,620.861 722.322,620.599 722.827,770.236 723.333,770.043 723.839,989.225 724.345,989.064 724.85,794.225 725.356,793.958 725.862,709.848 726.367,709.549 726.873,732.149 727.379,731.954 727.885,714.663 728.39,714.381 728.896,1023.06 729.402,1022.9 729.908,659.298 730.413,659.071 730.919,878.805 731.425,878.492 731.93,706.928 732.436,706.735 732.942,929.524 733.448,929.315 733.953,977.619 734.459,977.45 734.965,1107.31 735.47,1107.13 735.976,732.394 736.482,732.195 736.988,1050.49 737.493,1050.27 737.999,721.514 738.505,721.214 739.011,692.209 739.516,692.024 740.022,1053.66 740.528,1053.36 741.033,848.255 741.539,847.981 742.045,726.629 742.551,726.449 743.056,867.645 743.562,867.375 744.068,870.627 744.573,870.333 745.079,1051.69 745.585,1051.5 746.091,659.068 746.596,658.95 747.102,745.578 747.608,745.355 748.114,944.015 748.619,943.853 749.125,970.176 749.631,970.103 750.136,778.253 750.642,778.015 751.148,945.206 751.654,944.928 752.159,906.099 752.665,905.967 753.171,819.332 753.676,819.181 754.182,857.901 754.688,857.761 755.194,985.714 755.699,985.494 756.205,900.544 756.711,900.281 757.217,1060.51 757.722,1060.23 758.228,984.307 758.734,984.034 759.239,715.497 759.745,715.331 760.251,988.329 760.757,988.099 761.262,659.071 761.768,658.888 762.274,724.099 762.779,723.881 763.285,923.498 763.791,923.309 764.297,913.521 764.802,913.345 765.308,756.426 765.814,756.191 766.32,973.382 766.825,973.178 767.331,960.718 767.837,960.563 768.342,947.354 768.848,947.174 769.354,1077.95 769.86,1077.63 770.365,1033.82 770.871,1033.57 771.377,929.928 771.882,929.551 772.388,984.433 772.894,984.291 773.4,1024.86 773.905,1024.56 774.411,945.184 774.917,944.949 775.423,874.736 775.928,874.504 776.434,899.719 776.94,899.571 777.445,879.552 777.951,879.418 778.457,878.398 778.963,878.034 779.468,987.898 779.974,987.629 780.48,884.874 780.986,884.545 781.491,712.255 781.997,712.129 782.503,940.21 783.008,940.043 783.514,913.064 784.02,912.773 784.526,712.868 785.031,712.664 785.537,757.607 786.043,757.402 786.548,1148.96 787.054,1148.79 787.56,982.475 788.066,982.285 788.571,983.285 789.077,983.092 789.583,932.124 790.089,932.014 790.594,918.559 791.1,918.338 791.606,850.934 792.111,850.673 792.617,948.492 793.123,948.232 793.629,612.149 794.134,611.909 794.64,1053.86 795.146,1053.54 795.651,1008.73 796.157,1008.51 796.663,1001.13 797.169,1000.95 797.674,893.98 798.18,893.838 798.686,920.157 799.192,919.929 799.697,915.651 800.203,915.413 800.709,983.94 801.214,983.685 801.72,1078.82 802.226,1078.71 802.732,673.198 803.237,672.877 803.743,912.388 804.249,912.227 804.754,1037.99 805.26,1037.81 805.766,887.346 806.272,887.117 806.777,1096.1 807.283,1095.91 807.789,725.135 808.295,724.814 808.8,774.147 809.306,773.934 809.812,973.239 810.317,973.108 810.823,768.917 811.329,768.691 811.835,823.308 812.34,823.175 812.846,915.162 813.352,914.793 813.857,781.49 814.363,781.155 814.869,794.391 815.375,794.17 815.88,954.813 816.386,954.609 816.892,851.054 817.398,850.758 817.903,906.849 818.409,906.559 818.915,914.612 819.42,914.307 819.926,777.751 820.432,777.382 820.938,809.521 821.443,809.28 821.949,955.698 822.455,955.506 822.96,864.601 823.466,864.466 823.972,835.097 824.478,834.908 824.983,895.493 825.489,895.301 825.995,904.399 826.501,904.2 827.006,797.995 827.512,797.609 828.018,670.522 828.523,670.436 829.029,854.518 829.535,854.377 830.041,1021.58 830.546,1021.36 831.052,691.136 831.558,690.82 832.063,925.12 832.569,924.814 833.075,808.34 833.581,808.166 834.086,823.119 834.592,822.904 835.098,813.25 835.604,812.955 836.109,1143.19 836.615,1142.93 837.121,849.279 837.626,849.034 838.132,903.445 838.638,903.159 839.144,1037.69 839.649,1037.44 840.155,931.972 840.661,931.688 841.166,965.814 841.672,965.613 842.178,786.213 842.684,785.912 843.189,892.513 843.695,892.389 844.201,838.081 844.707,837.88 845.212,947.14 845.718,946.911 846.224,730.046 846.729,729.865 847.235,831.181 847.741,830.987 848.247,1035.54 848.752,1035.4 849.258,883.427 849.764,883.264 850.269,1025.33 850.775,1025.1 851.281,803.528 851.787,803.347 852.292,1029.9 852.798,1029.68 853.304,860.738 853.81,860.521 854.315,863.983 854.821,863.827 855.327,943.661 855.832,943.472 856.338,1153.57 856.844,1153.24 857.35,826.461 857.855,826.237 858.361,765.163 858.867,764.959 859.372,1137.44 859.878,1137.32 860.384,893.892 860.89,893.592 861.395,1163.33 861.901,1163.2 862.407,925.701 862.913,925.561 863.418,800.787 863.924,800.546 864.43,875.683 864.935,875.558 865.441,1006.2 865.947,1005.97 866.453,728.943 866.958,728.702 867.464,938.109 867.97,937.938 868.475,1015.98 868.981,1015.75 869.487,763.536 869.993,763.099 870.498,816.965 871.004,816.768 871.51,928.473 872.016,928.192 872.521,653.769 873.027,653.615 873.533,877.611 874.038,877.296 874.544,731.199 875.05,730.964 875.556,824.15 876.061,823.905 876.567,1068.61 877.073,1068.35 877.579,983.894 878.084,983.67 878.59,971.274 879.096,971.083 879.601,1010.05 880.107,1009.87 880.613,851.231 881.119,851.052 881.624,824.996 882.13,824.771 882.636,848.693 883.141,848.492 883.647,893.392 884.153,893.14 884.659,901.058 885.164,900.846 885.67,935.254 886.176,935.009 886.682,792.541 887.187,792.208 887.693,993.768 888.199,993.498 888.704,917.522 889.21,917.335 889.716,776.303 890.222,776.211 890.727,852.789 891.233,852.459 891.739,1045.59 892.244,1045.44 892.75,982.088 893.256,981.909 893.762,1083.62 894.267,1083.47 894.773,947.015 895.279,946.787 895.785,891.714 896.29,891.556 896.796,999.831 897.302,999.68 897.807,1004.48 898.313,1004.27 898.819,993.074 899.325,992.908 899.83,826.014 900.336,825.786 900.842,891.534 901.347,891.275 901.853,907.173 902.359,906.96 902.865,1037.41 903.37,1037.28 903.876,841.327 904.382,841.086 904.888,993.118 905.393,992.881 905.899,932.818 906.405,932.607 906.91,1074.59 907.416,1074.32 907.922,930.907 908.428,930.667 908.933,955.519 909.439,955.344 909.945,765.075 910.45,764.82 910.956,891.594 911.462,891.399 911.968,965.332 912.473,965.18 912.979,928.422 913.485,928.222 913.991,935.476 914.496,935.214 915.002,864.716 915.508,864.579 916.013,849.692 916.519,849.537 917.025,846.597 917.531,846.459 918.036,947.832 918.542,947.653 919.048,954.497 919.553,954.228 920.059,894.387 920.565,894.218 921.071,995.328 921.576,995.239 922.082,887.935 922.588,887.734 923.094,912.722 923.599,912.357 924.105,843.042 924.611,842.888 925.116,952.382 925.622,952.23 926.128,863.062 926.634,862.892 927.139,805.572 927.645,805.344 928.151,934.188 928.656,933.961 929.162,959.219 929.668,959.037 930.174,996.059 930.679,995.914 931.185,815.871 931.691,815.646 932.197,890.53 932.702,890.334 933.208,934.185 933.714,934.035 934.219,958.518 934.725,958.367 935.231,972.196 935.737,972.01 936.242,1034.17 936.748,1033.99 937.254,784.692 937.759,784.549 938.265,980.195 938.771,979.989 939.277,1056.03 939.782,1055.86 940.288,1076.49 940.794,1076.38 941.3,873.221 941.805,872.933 942.311,1080.55 942.817,1080.32 943.322,852.468 943.828,852.134 944.334,1011.15 944.84,1010.99 945.345,1066.4 945.851,1066.17 946.357,865.032 946.862,864.715 947.368,1054.55 947.874,1054.31 948.38,1080.33 948.885,1080.13 949.391,895.764 949.897,895.501 950.403,877.993 950.908,877.796 951.414,987.565 951.92,987.372 952.425,972.388 952.931,972.221 953.437,980.003 953.943,979.784 954.448,879.511 954.954,879.368 955.46,1101.04 955.965,1100.85 956.471,1006.39 956.977,1006.21 957.483,861.793 957.988,861.644 958.494,857.871 959,857.653 959.506,1034.92 960.011,1034.67 960.517,840.314 961.023,840.161 961.528,837.532 962.034,837.259 962.54,899.429 963.046,899.164 963.551,986.062 964.057,985.77 964.563,911.616 965.068,911.486 965.574,994.931 966.08,994.747 966.586,879.505 967.091,879.281 967.597,979.645 968.103,979.467 968.609,1039.66 969.114,1039.5 969.62,995.623 970.126,995.369 970.631,1064.29 971.137,1064.15 971.643,810.748 972.149,810.599 972.654,1011.08 973.16,1010.97 973.666,1130.16 974.172,1129.97 974.677,768.211 975.183,768.048 975.689,612.093 976.194,611.844 976.7,813.566 977.206,813.233 977.712,1008.9 978.217,1008.65 978.723,976.685 979.229,976.561 979.734,1008.18 980.24,1007.95 980.746,1028.78 981.252,1028.57 981.757,969.112 982.263,968.913 982.769,782.693 983.275,782.545 983.78,732.283 984.286,732.135 984.792,1181.86 985.297,1181.71 985.803,1223.17 986.309,1222.96 986.815,708.904 987.32,708.687 987.826,923.59 988.332,923.394 988.837,967.75 989.343,967.594 989.849,831.166 990.355,830.999 990.86,934.07 991.366,933.844 991.872,1004.6 992.378,1004.39 992.883,912.312 993.389,912.047 993.895,1086.32 994.4,1086.12 994.906,1049.95 995.412,1049.76 995.918,904.133 996.423,903.776 996.929,833.552 997.435,833.286 997.94,1085.49 998.446,1085.32 998.952,1003.16 999.458,1002.93 999.963,997.693 1000.47,997.478 1000.97,910.62 1001.48,910.409 1001.99,928.408 1002.49,928.268 1003,791.274 1003.5,791.059 1004.01,962.125 1004.51,961.957 1005.02,1075.02 1005.53,1074.76 1006.03,1023.14 1006.54,1022.91 1007.04,942.727 1007.55,942.589 1008.05,992.271 1008.56,992.048 1009.07,905.147 1009.57,904.938 1010.08,1058.54 1010.58,1058.31 1011.09,915.535 1011.59,915.329 1012.1,980.503 1012.61,980.393 1013.11,1037.73 1013.62,1037.64 1014.12,1265.07 1014.63,1264.94 1015.14,914.425 1015.64,914.254 1016.15,895.205 1016.65,894.986 1017.16,867.129 1017.66,866.911 1018.17,861.494 1018.68,861.352 1019.18,801.5 1019.69,801.347 1020.19,1007.49 1020.7,1007.27 1021.2,1046.12 1021.71,1045.93 1022.22,1012.18 1022.72,1011.91 1023.23,958.173 1023.73,957.884 1024.24,926.952 1024.74,926.783 1025.25,1037.07 1025.76,1036.89 1026.26,989.908 1026.77,989.773 1027.27,1004.67 1027.78,1004.5 1028.28,841.085 1028.79,840.828 1029.3,1143.76 1029.8,1143.48 1030.31,938.968 1030.81,938.726 1031.32,1080.86 1031.82,1080.63 1032.33,1097.82 1032.84,1097.63 1033.34,1046.38 1033.85,1046.22 1034.35,801.178 1034.86,800.907 1035.36,933.505 1035.87,933.184 1036.38,730.114 1036.88,729.944 1037.39,1111.92 1037.89,1111.71 1038.4,995.618 1038.9,995.38 1039.41,1240.62 1039.92,1240.44 1040.42,881.672 1040.93,881.538 1041.43,955.58 1041.94,955.398 1042.44,941.329 1042.95,941.185 1043.46,878.441 1043.96,878.173 1044.47,877.447 1044.97,877.373 1045.48,949.456 1045.98,949.28 1046.49,1024.86 1047,1024.76 1047.5,1205.98 1048.01,1205.85 1048.51,1013.87 1049.02,1013.63 1049.52,998.075 1050.03,997.876 1050.54,1066.36 1051.04,1066.28 1051.55,932.712 1052.05,932.57 1052.56,1124.27 1053.06,1124.04 1053.57,993.357 1054.08,993.149 1054.58,858.99 1055.09,858.848 1055.59,1028.23 1056.1,1028.07 1056.6,1052.26 1057.11,1052.08 1057.62,802.99 1058.12,802.759 1058.63,843.745 1059.13,843.589 1059.64,1015.53 1060.14,1015.39 1060.65,826.15 1061.16,826.007 1061.66,858.935 1062.17,858.768 1062.67,1117.41 1063.18,1117.24 1063.68,922.961 1064.19,922.759 1064.7,1099.74 1065.2,1099.55 1065.71,1028.04 1066.21,1027.91 1066.72,979.328 1067.22,979.097 1067.73,945.245 1068.24,945.155 1068.74,863.156 1069.25,862.922 1069.75,1072.79 1070.26,1072.65 1070.76,1100.81 1071.27,1100.56 1071.78,892.682 1072.28,892.54 1072.79,1085.34 1073.29,1085.25 1073.8,788.426 1074.3,788.154 1074.81,1026.86 1075.32,1026.65 1075.82,908.419 1076.33,908.123 1076.83,1040.6 1077.34,1040.38 1077.84,858.766 1078.35,858.631 1078.86,990.395 1079.36,990.183 1079.87,916.417 1080.37,916.23 1080.88,870.49 1081.38,870.349 1081.89,1094.36 1082.4,1094.21 1082.9,886.284 1083.41,886.134 1083.91,1111.29 1084.42,1111.14 1084.92,1023.66 1085.43,1023.5 1085.94,976.431 1086.44,976.124 1086.95,814.362 1087.45,814.285 1087.96,964.617 1088.46,964.442 1088.97,1023.15 1089.48,1022.86 1089.98,1166.98 1090.49,1166.73 1090.99,1069.69 1091.5,1069.5 1092,986.321 1092.51,986.155 1093.02,910.444 1093.52,910.151 1094.03,965.73 1094.53,965.458 1095.04,995.07 1095.54,994.943 1096.05,915.505 1096.56,915.38 1097.06,840.486 1097.57,840.271 1098.07,825.022 1098.58,824.873 1099.08,1038.4 1099.59,1038.19 1100.1,904.322 1100.6,903.873 1101.11,1006.66 1101.61,1006.49 1102.12,1023.13 1102.63,1022.89 1103.13,927.556 1103.64,927.219 1104.14,836.338 1104.65,836.116 1105.15,1022.93 1105.66,1022.76 1106.17,1126.71 1106.67,1126.49 1107.18,844.854 1107.68,844.757 1108.19,1121.09 1108.69,1120.9 1109.2,1062.65 1109.71,1062.41 1110.21,935.872 1110.72,935.717 1111.22,936.255 1111.73,936.163 1112.23,1003.89 1112.74,1003.73 1113.25,1021.17 1113.75,1021.03 1114.26,832.721 1114.76,832.443 1115.27,1049.71 1115.77,1049.49 1116.28,1141.23 1116.79,1141.04 1117.29,915.361 1117.8,915.27 1118.3,982.418 1118.81,982.265 1119.31,930.622 1119.82,930.378 1120.33,1047.16 1120.83,1046.95 1121.34,994.05 1121.84,993.913 1122.35,870.719 1122.85,870.482 1123.36,890.004 1123.87,889.837 1124.37,1064.34 1124.88,1064.16 1125.38,1070.86 1125.89,1070.71 1126.39,888.363 1126.9,888.209 1127.41,1034.65 1127.91,1034.47 1128.42,1232.17 1128.92,1231.95 1129.43,1083.74 1129.93,1083.62 1130.44,830.413 1130.95,830.274 1131.45,865.117 1131.96,864.951 1132.46,865.081 1132.97,864.816 1133.47,829.123 1133.98,828.967 1134.49,896.997 1134.99,896.721 1135.5,967.279 1136,967.157 1136.51,950.157 1137.01,949.955 1137.52,877.527 1138.03,877.387 1138.53,1070.6 1139.04,1070.49 1139.54,1110.77 1140.05,1110.47 1140.55,1028.44 1141.06,1028.3 1141.57,782.621 1142.07,782.495 1142.58,948.128 1143.08,947.905 1143.59,1060.86 1144.09,1060.74 1144.6,1038.71 1145.11,1038.48 1145.61,938.353 1146.12,938.224 1146.62,1037.36 1147.13,1037.2 1147.63,873.124 1148.14,872.906 1148.65,1012.73 1149.15,1012.59 1149.66,912.867 1150.16,912.639 1150.67,1060.94 1151.17,1060.77 1151.68,1079.8 1152.19,1079.62 1152.69,975.355 1153.2,975.15 1153.7,1115.16 1154.21,1115.01 1154.71,1201.18 1155.22,1201.01 1155.73,1122.81 1156.23,1122.51 1156.74,936.002 1157.24,935.835 1157.75,949.757 1158.25,949.619 1158.76,866.513 1159.27,866.397 1159.77,1153.17 1160.28,1152.94 1160.78,1151.11 1161.29,1151.01 1161.79,973.422 1162.3,972.88 1162.81,973.677 1163.31,973.449 1163.82,1147.7 1164.32,1147.56 1164.83,1010.99 1165.33,1010.76 1165.84,1087.92 1166.35,1087.74 1166.85,984.414 1167.36,984.197 1167.86,910.263 1168.37,910.07 1168.87,956.124 1169.38,955.82 1169.89,954.626 1170.39,954.43 1170.9,1127.69 1171.4,1127.62 1171.91,1020.87 1172.41,1020.72 1172.92,1105.14 1173.43,1105.02 1173.93,998.859 1174.44,998.707 1174.94,1071.95 1175.45,1071.71 1175.95,1028.05 1176.46,1027.89 1176.97,1218.23 1177.47,1218.07 1177.98,888.562 1178.48,888.407 1178.99,896.179 1179.49,896.057 1180,984.107 1180.51,984.015 1181.01,1116.2 1181.52,1116.02 1182.02,1011.26 1182.53,1011.02 1183.03,964.802 1183.54,964.714 1184.05,924.753 1184.55,924.533 1185.06,1031.55 1185.56,1031.34 1186.07,1032.02 1186.57,1031.91 1187.08,1067.35 1187.59,1067.15 1188.09,1075.15 1188.6,1075 1189.1,1038.71 1189.61,1038.51 1190.12,994.577 1190.62,994.412 1191.13,913.369 1191.63,913.172 1192.14,870.71 1192.64,870.414 1193.15,834.859 1193.66,834.736 1194.16,1113.52 1194.67,1113.35 1195.17,996.449 1195.68,996.329 1196.18,769.444 1196.69,769.261 1197.2,1063.67 1197.7,1063.53 1198.21,915.189 1198.71,915.043 1199.22,1056.32 1199.72,1056.16 1200.23,998.043 1200.74,997.909 1201.24,900.771 1201.75,900.533 1202.25,833.728 1202.76,833.542 1203.26,1150.49 1203.77,1150.31 1204.28,1188.93 1204.78,1188.83 1205.29,1171.01 1205.79,1170.83 1206.3,1120.69 1206.8,1120.53 1207.31,811.953 1207.82,811.853 1208.32,943.748 1208.83,943.622 1209.33,873.812 1209.84,873.643 1210.34,1117.34 1210.85,1117.23 1211.36,1063.5 1211.86,1063.4 1212.37,1047.1 1212.87,1047.01 1213.38,1089.2 1213.88,1088.86 1214.39,801.232 1214.9,800.991 1215.4,957.139 1215.91,957.057 1216.41,1171.21 1216.92,1171.04 1217.42,1379.32 1217.93,1379.23 1218.44,955.365 1218.94,955.19 1219.45,995.294 1219.95,995.174 1220.46,1081.68 1220.96,1081.52 1221.47,1073.52 1221.98,1073.38 1222.48,999.921 1222.99,999.78 1223.49,1051.52 1224,1051.42 1224.5,1020.8 1225.01,1020.6 1225.52,1123.59 1226.02,1123.27 1226.53,1135.39 1227.03,1135.26 1227.54,1228.55 1228.04,1228.41 1228.55,1006.95 1229.06,1006.8 1229.56,1050.63 1230.07,1050.48 1230.57,1011.05 1231.08,1010.9 1231.58,1033.46 1232.09,1033.26 1232.6,937.694 1233.1,937.536 1233.61,1096.02 1234.11,1095.89 1234.62,996.58 1235.12,996.449 1235.63,982.131 1236.14,981.968 1236.64,953.432 1237.15,953.076 1237.65,1175.93 1238.16,1175.72 1238.66,1054.87 1239.17,1054.72 1239.68,864.244 1240.18,863.958 1240.69,1112.65 1241.19,1112.51 1241.7,1054.83 1242.2,1054.67 1242.71,1092.2 1243.22,1091.91 1243.72,1001.92 1244.23,1001.73 1244.73,946.136 1245.24,945.883 1245.74,1082.36 1246.25,1082.16 1246.76,950.555 1247.26,950.42 1247.77,1121.46 1248.27,1121.21 1248.78,1064.39 1249.28,1064.27 1249.79,1126.15 1250.3,1126.03 1250.8,1097.73 1251.31,1097.65 1251.81,875.784 1252.32,875.383 1252.82,897.885 1253.33,897.745 1253.84,981.663 1254.34,981.539 1254.85,976.66 1255.35,976.529 1255.86,1148.02 1256.36,1147.93 1256.87,1232.08 1257.38,1231.9 1257.88,1205.5 1258.39,1205.35 1258.89,1031.8 1259.4,1031.44 1259.9,1095.73 1260.41,1095.58 1260.92,873.77 1261.42,873.638 1261.93,1056.77 1262.43,1056.63 1262.94,1025.6 1263.44,1025.34 1263.95,1060.84 1264.46,1060.77 1264.96,1048.71 1265.47,1048.55 1265.97,1005.01 1266.48,1004.87 1266.98,970.782 1267.49,970.634 1268,1097.14 1268.5,1096.98 1269.01,925.495 1269.51,925.282 1270.02,1053.06 1270.52,1052.91 1271.03,1135.79 1271.54,1135.66 1272.04,929.563 1272.55,929.371 1273.05,1099.5 1273.56,1099.31 1274.06,936.553 1274.57,936.413 1275.08,1161.37 1275.58,1161.21 1276.09,886.82 1276.59,886.729 1277.1,928.575 1277.61,928.426 1278.11,1024.32 1278.62,1024.1 1279.12,1130.04 1279.63,1129.94 1280.13,989.92 1280.64,989.816 1281.15,970.43 1281.65,970.248 1282.16,1081.07 1282.66,1080.92 1283.17,992.088 1283.67,991.85 1284.18,1005.28 1284.69,1005.08 1285.19,1042.14 1285.7,1042 1286.2,1059.46 1286.71,1059.23 1287.21,1032.38 1287.72,1032.34 1288.23,1164.07 1288.73,1163.9 1289.24,1136.67 1289.74,1136.5 1290.25,1194.29 1290.75,1194.11 1291.26,936.408 1291.77,936.211 1292.27,1146.44 1292.78,1146.28 1293.28,1187.38 1293.79,1187.28 1294.29,1105.27 1294.8,1105.09 1295.31,1124.22 1295.81,1124.14 1296.32,1160.45 1296.82,1160.31 1297.33,697.977 1297.83,697.864 1298.34,1266.53 1298.85,1266.37 1299.35,1120.18 1299.86,1120 1300.36,1166.89 1300.87,1166.79 1301.37,1004.99 1301.88,1004.85 1302.39,960.11 1302.89,959.881 1303.4,1005.38 1303.9,1005.15 1304.41,1107.79 1304.91,1107.61 1305.42,1239.99 1305.93,1239.78 1306.43,1054.13 1306.94,1053.97 1307.44,975.989 1307.95,975.738 1308.45,961.17 1308.96,960.987 1309.47,1011.77 1309.97,1011.67 1310.48,1117.67 1310.98,1117.48 1311.49,930.472 1311.99,930.37 1312.5,993.949 1313.01,993.783 1313.51,1026.38 1314.02,1026.19 1314.52,1020.72 1315.03,1020.59 1315.53,1089.59 1316.04,1089.44 1316.55,1063.88 1317.05,1063.75 1317.56,1080.94 1318.06,1080.82 1318.57,894.229 1319.07,893.84 1319.58,1028.41 1320.09,1028.16 1320.59,1064.31 1321.1,1064.14 1321.6,1074.14 1322.11,1073.94 1322.61,1030.89 1323.12,1030.76 1323.63,1168.58 1324.13,1168.46 1324.64,1015.81 1325.14,1015.64 1325.65,1033.88 1326.15,1033.76 1326.66,1077.62 1327.17,1077.53 1327.67,982.638 1328.18,982.58 1328.68,905.547 1329.19,905.442 1329.69,1039.94 1330.2,1039.77 1330.71,1146.15 1331.21,1145.97 1331.72,952.484 1332.22,952.375 1332.73,980.689 1333.23,980.416 1333.74,959.45 1334.25,959.33 1334.75,1085.76 1335.26,1085.6 1335.76,897.571 1336.27,897.424 1336.77,1146.27 1337.28,1146.07 1337.79,1014.61 1338.29,1014.46 1338.8,1101.55 1339.3,1101.4 1339.81,1007.27 1340.31,1007.1 1340.82,836.273 1341.33,836.185 1341.83,985.456 1342.34,985.239 1342.84,939.059 1343.35,938.855 1343.85,1167.79 1344.36,1167.67 1344.87,1153 1345.37,1152.83 1345.88,1046.32 1346.38,1046.02 1346.89,911.365 1347.39,911.229 1347.9,1011.72 1348.41,1011.65 1348.91,1056.72 1349.42,1056.33 1349.92,1077.46 1350.43,1077.31 1350.93,1068.21 1351.44,1068.13 1351.95,1228.1 1352.45,1227.99 1352.96,1020.59 1353.46,1020.36 1353.97,1121.45 1354.47,1121.35 1354.98,1055.64 1355.49,1055.5 1355.99,963.581 1356.5,963.414 1357,1042.08 1357.51,1041.83 1358.01,1014.56 1358.52,1014.39 1359.03,1127.71 1359.53,1127.55 1360.04,1012.99 1360.54,1012.85 1361.05,1046.39 1361.55,1046.24 1362.06,942.288 1362.57,942.176 1363.07,1110.48 1363.58,1110.29 1364.08,1119.62 1364.59,1119.47 1365.1,978.532 1365.6,978.337 1366.11,1149.03 1366.61,1148.89 1367.12,1047.72 1367.62,1047.56 1368.13,1054.51 1368.64,1054.4 1369.14,1002.04 1369.65,1001.82 1370.15,1008.86 1370.66,1008.74 1371.16,1058.95 1371.67,1058.83 1372.18,991.823 1372.68,991.747 1373.19,1088.63 1373.69,1088.5 1374.2,913.616 1374.7,913.483 1375.21,1008.81 1375.72,1008.72 1376.22,1127.22 1376.73,1127.12 1377.23,1140.82 1377.74,1140.59 1378.24,1144.31 1378.75,1144.02 1379.26,1060.59 1379.76,1060.34 1380.27,1002.39 1380.77,1002.34 1381.28,1126.29 1381.78,1126.12 1382.29,1096.49 1382.8,1096.35 1383.3,1141.27 1383.81,1141.12 1384.31,1086.58 1384.82,1086.46 1385.32,1113.1 1385.83,1112.96 1386.34,885.578 1386.84,885.439 1387.35,1020.42 1387.85,1020.3 1388.36,857.262 1388.86,857.163 1389.37,1095.94 1389.88,1095.77 1390.38,1194.38 1390.89,1194.24 1391.39,1106.87 1391.9,1106.76 1392.4,1031.04 1392.91,1030.8 1393.42,1220.9 1393.92,1220.77 1394.43,1099.72 1394.93,1099.56 1395.44,1026.22 1395.94,1026.13 1396.45,1110.9 1396.96,1110.76 1397.46,1021.96 1397.97,1021.8 1398.47,1224.5 1398.98,1224.39 1399.48,1165.42 1399.99,1165.22 1400.5,1140.5 1401,1140.33 1401.51,1159.85 1402.01,1159.75 1402.52,969.833 1403.02,969.767 1403.53,866.019 1404.04,865.929 1404.54,1103.73 1405.05,1103.55 1405.55,1067.64 1406.06,1067.47 1406.56,1038.92 1407.07,1038.81 1407.58,896.06 1408.08,895.756 1408.59,1106.7 1409.09,1106.51 1409.6,1116.41 1410.1,1116.26 1410.61,972.481 1411.12,972.382 1411.62,1061.02 1412.13,1060.97 1412.63,1255.02 1413.14,1254.92 1413.64,922.295 1414.15,922.154 1414.66,1074.2 1415.16,1074.03 1415.67,1240.28 1416.17,1240.16 1416.68,966.205 1417.18,966.124 1417.69,1036.73 1418.2,1036.6 1418.7,1123.15 1419.21,1123.02 1419.71,1027.55 1420.22,1027.38 1420.72,1102.3 1421.23,1102.14 1421.74,962.092 1422.24,961.886 1422.75,1062.96 1423.25,1062.83 1423.76,1089.91 1424.26,1089.79 1424.77,1174.93 1425.28,1174.84 1425.78,1027.57 1426.29,1027.44 1426.79,953.321 1427.3,953.106 1427.8,1173.01 1428.31,1172.75 1428.82,1035.56 1429.32,1035.44 1429.83,1084.83 1430.33,1084.71 1430.84,980.291 1431.34,980.18 1431.85,1025.83 1432.36,1025.64 1432.86,1043.38 1433.37,1043.26 1433.87,970.968 1434.38,970.764 1434.88,961.247 1435.39,961.122 1435.9,1149.13 1436.4,1149.01 1436.91,949.278 1437.41,949.136 1437.92,1045.75 1438.42,1045.6 1438.93,1088.71 1439.44,1088.59 1439.94,1081.15 1440.45,1081.05 1440.95,1121.39 1441.46,1121.21 1441.96,979.102 1442.47,978.914 1442.98,946.273 1443.48,946.118 1443.99,1056.06 1444.49,1055.93 1445,1027.87 1445.5,1027.72 1446.01,978.276 1446.52,978.14 1447.02,862.201 1447.53,861.907 1448.03,1000.46 1448.54,1000.38 1449.04,1108.12 1449.55,1107.95 1450.06,981.757 1450.56,981.58 1451.07,969.273 1451.57,969.194 1452.08,1212.15 1452.59,1212.05 1453.09,1054.42 1453.6,1054.28 1454.1,1100.27 1454.61,1100.16 1455.11,998.613 1455.62,998.445 1456.13,994.407 1456.63,994.312 1457.14,1034.27 1457.64,1034.1 1458.15,1119.81 1458.65,1119.68 1459.16,1004.46 1459.67,1004.2 1460.17,864.523 1460.68,864.339 1461.18,990.351 1461.69,990.24 1462.19,1153.23 1462.7,1153.13 1463.21,1140.32 1463.71,1140.14 1464.22,1001.72 1464.72,1001.57 1465.23,1206.54 1465.73,1206.44 1466.24,1085.48 1466.75,1085.25 1467.25,1017.32 1467.76,1017.2 1468.26,1105.16 1468.77,1104.99 1469.27,1144.99 1469.78,1144.84 1470.29,1053.01 1470.79,1052.78 1471.3,1113.97 1471.8,1113.68 1472.31,1086.6 1472.81,1086.56 1473.32,1147.39 1473.83,1147.26 1474.33,1075.17 1474.84,1075.05 1475.34,1074.11 1475.85,1074 1476.35,901.532 1476.86,901.426 1477.37,1014.04 1477.87,1013.9 1478.38,1067.88 1478.88,1067.65 1479.39,1181.55 1479.89,1181.44 1480.4,970.125 1480.91,969.948 1481.41,1052.43 1481.92,1052.3 1482.42,1077.5 1482.93,1077.43 1483.43,1161.19 1483.94,1161.13 1484.45,1103.24 1484.95,1103.03 1485.46,1088.22 1485.96,1088.01 1486.47,1077.75 1486.97,1077.6 1487.48,1111.11 1487.99,1110.88 1488.49,903.479 1489,903.276 1489.5,932.222 1490.01,931.996 1490.51,996.699 1491.02,996.592 1491.53,874.695 1492.03,874.607 1492.54,1050.21 1493.04,1050.13 1493.55,1247.74 1494.05,1247.67 1494.56,1111.43 1495.07,1111.34 1495.57,1148.26 1496.08,1148.15 1496.58,1126.24 1497.09,1126.05 1497.59,1010.98 1498.1,1010.91 1498.61,1064.76 1499.11,1064.63 1499.62,1015.79 1500.12,1015.54 1500.63,1021.66 1501.13,1021.54 1501.64,1016.15 1502.15,1015.87 1502.65,1193.81 1503.16,1193.61 1503.66,1083.22 1504.17,1083.1 1504.67,1086.78 1505.18,1086.64 1505.69,1148.51 1506.19,1148.31 1506.7,1051.32 1507.2,1051.24 1507.71,1081.47 1508.21,1081.23 1508.72,1186.87 1509.23,1186.64 1509.73,1059.29 1510.24,1059.05 1510.74,1132.61 1511.25,1132.49 1511.75,1104.84 1512.26,1104.73 1512.77,1057.88 1513.27,1057.78 1513.78,1121.09 1514.28,1120.87 1514.79,1059.02 1515.29,1058.83 1515.8,1006.96 1516.31,1006.72 1516.81,1074.28 1517.32,1074.18 1517.82,1070.08 1518.33,1070.01 1518.83,996.753 1519.34,996.562 1519.85,1146.86 1520.35,1146.79 1520.86,1028.05 1521.36,1027.93 1521.87,1019.63 1522.37,1019.35 1522.88,1063.98 1523.39,1063.82 1523.89,1182.5 1524.4,1182.42 1524.9,978.205 1525.41,978.116 1525.91,989.299 1526.42,989.233 1526.93,1153.79 1527.43,1153.73 1527.94,1131.91 1528.44,1131.78 1528.95,1162.52 1529.45,1162.41 1529.96,1020.07 1530.47,1019.94 1530.97,1081.33 1531.48,1081.22 1531.98,1005.84 1532.49,1005.72 1532.99,1276.76 1533.5,1276.67 1534.01,1170.57 1534.51,1170.45 1535.02,1116.22 1535.52,1116.13 1536.03,1038.67 1536.53,1038.62 1537.04,1055.56 1537.55,1055.43 1538.05,1122.18 1538.56,1122.02 1539.06,1150.26 1539.57,1150.12 1540.07,1044.19 1540.58,1044.08 1541.09,1026.33 1541.59,1026.2 1542.1,843.27 1542.6,843.111 1543.11,860.736 1543.62,860.624 1544.12,1141.88 1544.63,1141.81 1545.13,1107.99 1545.64,1107.87 1546.14,1061.5 1546.65,1061.36 1547.16,1194.69 1547.66,1194.62 1548.17,1036.95 1548.67,1036.76 1549.18,980.677 1549.68,980.539 1550.19,1198.19 1550.7,1198.09 1551.2,1120.26 1551.71,1120.11 1552.21,1048.36 1552.72,1048.2 1553.22,1195.95 1553.73,1195.8 1554.24,1047.12 1554.74,1047.03 1555.25,1136 1555.75,1135.93 1556.26,1002.93 1556.76,1002.59 1557.27,1104.21 1557.78,1104.12 1558.28,1220.77 1558.79,1220.63 1559.29,1012.49 1559.8,1012.32 1560.3,1016.06 1560.81,1015.97 1561.32,1064.17 1561.82,1064 1562.33,1042.89 1562.83,1042.77 1563.34,1056.7 1563.84,1056.57 1564.35,1034.75 1564.86,1034.63 1565.36,1060.15 1565.87,1060.04 1566.37,1101.36 1566.88,1101.19 1567.38,1059.21 1567.89,1059.07 1568.4,1171.96 1568.9,1171.89 1569.41,1016.63 1569.91,1016.45 1570.42,1154.18 1570.92,1154.11 1571.43,1002.54 1571.94,1002.41 1572.44,1064.4 1572.95,1064.3 1573.45,1184.86 1573.96,1184.78 1574.46,1079.92 1574.97,1079.75 1575.48,1140.82 1575.98,1140.73 1576.49,1199.1 1576.99,1199.01 1577.5,1111.28 1578,1111.16 1578.51,1015.63 1579.02,1015.56 1579.52,982.805 1580.03,982.567 1580.53,1049.39 1581.04,1049.24 1581.54,991.002 1582.05,990.827 1582.56,833.235 1583.06,832.967 1583.57,979.757 1584.07,979.557 1584.58,1224.66 1585.08,1224.56 1585.59,1213.86 1586.1,1213.74 1586.6,993.385 1587.11,993.313 1587.61,1052.23 1588.12,1052.02 1588.62,1189.46 1589.13,1189.32 1589.64,1115.37 1590.14,1115.12 1590.65,1006.44 1591.15,1006.21 1591.66,1178.68 1592.16,1178.61 1592.67,945.371 1593.18,945.286 1593.68,1150.2 1594.19,1150.03 1594.69,1445.72 1595.2,1445.66 1595.7,1044.4 1596.21,1044.35 1596.72,1080.69 1597.22,1080.56 1597.73,1040.51 1598.23,1040.31 1598.74,1262.7 1599.24,1262.6 1599.75,951.357 1600.26,951.211 1600.76,1156.4 1601.27,1156.29 1601.77,1073.15 1602.28,1072.98 1602.78,1140.89 1603.29,1140.75 1603.8,1039.19 1604.3,1039.11 1604.81,1189.44 1605.31,1189.32 1605.82,1064.43 1606.32,1064.36 1606.83,1137.57 1607.34,1137.42 1607.84,1065.06 1608.35,1064.89 1608.85,1136.17 1609.36,1136.08 1609.86,1032.76 1610.37,1032.62 1610.88,1079.41 1611.38,1079.3 1611.89,1230.37 1612.39,1230.32 1612.9,993.468 1613.4,993.363 1613.91,901.96 1614.42,901.84 1614.92,1214.5 1615.43,1214.46 1615.93,1036.09 1616.44,1036.01 1616.94,1166.79 1617.45,1166.65 1617.96,1106.77 1618.46,1106.72 1618.97,1133.73 1619.47,1133.62 1619.98,1030.28 1620.48,1030.2 1620.99,1024.36 1621.5,1024.25 1622,1196.59 1622.51,1196.52 1623.01,1180.88 1623.52,1180.82 1624.02,1104.25 1624.53,1104.12 1625.04,1259.4 1625.54,1259.29 1626.05,1106.87 1626.55,1106.81 1627.06,977.211 1627.56,977.115 1628.07,986.119 1628.58,985.892 1629.08,1109.34 1629.59,1109.25 1630.09,983.168 1630.6,983.061 1631.11,1045.8 1631.61,1045.71 1632.12,979.662 1632.62,979.569 1633.13,1157.27 1633.63,1157.23 1634.14,916.884 1634.65,916.701 1635.15,1080.41 1635.66,1080.31 1636.16,1050.8 1636.67,1050.71 1637.17,1116.41 1637.68,1116.21 1638.19,1149.49 1638.69,1149.45 1639.2,1071.39 1639.7,1071.17 1640.21,1024.52 1640.71,1024.43 1641.22,1063.23 1641.73,1063.15 1642.23,976.387 1642.74,976.319 1643.24,1131.62 1643.75,1131.53 1644.25,1114.12 1644.76,1114.05 1645.27,1068.36 1645.77,1068.24 1646.28,1032.14 1646.78,1032.01 1647.29,1018.54 1647.79,1018.44 1648.3,1029.66 1648.81,1029.42 1649.31,1044.5 1649.82,1044.35 1650.32,1011.86 1650.83,1011.71 1651.33,932.626 1651.84,932.471 1652.35,1158.6 1652.85,1158.51 1653.36,1016.95 1653.86,1016.89 1654.37,1091.41 1654.87,1091.28 1655.38,1039.04 1655.89,1038.89 1656.39,1129.67 1656.9,1129.6 1657.4,987.294 1657.91,987.129 1658.41,1134.24 1658.92,1134.02 1659.43,1110.13 1659.93,1110.05 1660.44,1146.94 1660.94,1146.8 1661.45,1105.94 1661.95,1105.85 1662.46,1049.82 1662.97,1049.69 1663.47,1100.62 1663.98,1100.44 1664.48,1023.81 1664.99,1023.74 1665.49,1138.52 1666,1138.34 1666.51,1212.07 1667.01,1211.95 1667.52,1211.32 1668.02,1211.18 1668.53,1160.97 1669.03,1160.86 1669.54,1167 1670.05,1166.89 1670.55,983.015 1671.06,982.865 1671.56,1266.52 1672.07,1266.35 1672.57,1136.8 1673.08,1136.76 1673.59,1016.04 1674.09,1015.92 1674.6,993.918 1675.1,993.752 1675.61,1069.25 1676.11,1069.14 1676.62,889.061 1677.13,888.784 1677.63,1046.01 1678.14,1045.87 1678.64,1179.28 1679.15,1179.13 1679.65,1111.98 1680.16,1111.91 1680.67,1011.41 1681.17,1011.19 1681.68,886.763 1682.18,886.572 1682.69,1092.8 1683.19,1092.68 1683.7,1003.63 1684.21,1003.49 1684.71,1054.92 1685.22,1054.75 1685.72,1030.68 1686.23,1030.49 1686.73,1000.09 1687.24,1000.01 1687.75,1146.56 1688.25,1146.47 1688.76,1147.54 1689.26,1147.49 1689.77,1099.79 1690.27,1099.72 1690.78,1085.91 1691.29,1085.78 1691.79,977.994 1692.3,977.912 1692.8,951.927 1693.31,951.782 1693.81,1103.24 1694.32,1103.15 1694.83,1068.72 1695.33,1068.48 1695.84,1091.73 1696.34,1091.66 1696.85,974.462 1697.35,974.385 1697.86,1216.96 1698.37,1216.86 1698.87,1072.39 1699.38,1072.34 1699.88,1090 1700.39,1089.89 1700.89,1058.16 1701.4,1058.08 1701.91,983.899 1702.41,983.727 1702.92,878.648 1703.42,878.345 1703.93,1158.25 1704.43,1158.18 1704.94,1048.25 1705.45,1048.11 1705.95,1172.15 1706.46,1172.11 1706.96,1094.9 1707.47,1094.82 1707.97,1001.81 1708.48,1001.75 1708.99,1045.12 1709.49,1044.99 1710,1047.81 1710.5,1047.78 1711.01,1085.45 1711.51,1085.32 1712.02,1065.95 1712.53,1065.85 1713.03,1107.41 1713.54,1107.34 1714.04,1115.26 1714.55,1115.07 1715.05,1087.93 1715.56,1087.87 1716.07,1135.83 1716.57,1135.76 1717.08,1075.06 1717.58,1074.98 1718.09,1071.79 1718.6,1071.71 1719.1,989.471 1719.61,989.397 1720.11,900.805 1720.62,900.627 1721.12,1100.51 1721.63,1100.34 1722.14,1059.47 1722.64,1059.35 1723.15,1159.85 1723.65,1159.72 1724.16,1203.54 1724.66,1203.46 1725.17,1238.12 1725.68,1238.14 1726.18,1032.89 1726.69,1032.82 1727.19,976.901 1727.7,976.7 1728.2,1011.6 1728.71,1011.47 1729.22,862.345 1729.72,862.179 1730.23,1040.31 1730.73,1040.23 1731.24,1112 1731.74,1111.75 1732.25,1161.12 1732.76,1160.99 1733.26,1059.78 1733.77,1059.67 1734.27,1110.01 1734.78,1109.92 1735.28,1089.73 1735.79,1089.53 1736.3,1030.6 1736.8,1030.45 1737.31,1141.91 1737.81,1141.78 1738.32,1211.52 1738.82,1211.48 1739.33,1106.92 1739.84,1106.81 1740.34,1029.36 1740.85,1029.23 1741.35,1029.34 1741.86,1029.2 1742.36,1101.4 1742.87,1101.33 1743.38,1120.51 1743.88,1120.39 1744.39,1235.19 1744.89,1235.15 1745.4,1246.72 1745.9,1246.62 1746.41,1189.47 1746.92,1189.38 1747.42,1054.28 1747.93,1054.18 1748.43,1141.02 1748.94,1141 1749.44,1013.96 1749.95,1013.79 1750.46,1148.88 1750.96,1148.85 1751.47,1230.72 1751.97,1230.56 1752.48,945.352 1752.98,945.174 1753.49,1148.65 1754,1148.53 1754.5,996.776 1755.01,996.546 1755.51,1213.08 1756.02,1212.99 1756.52,902.573 1757.03,902.494 1757.54,1099.33 1758.04,1099.28 1758.55,1068.2 1759.05,1068.12 1759.56,1295.18 1760.06,1295.12 1760.57,1070.4 1761.08,1070.36 1761.58,1036.47 1762.09,1036.24 1762.59,1109.65 1763.1,1109.61 1763.6,980.412 1764.11,980.287 1764.62,1152.34 1765.12,1152.2 1765.63,1263.75 1766.13,1263.67 1766.64,1234.49 1767.14,1234.3 1767.65,1164.57 1768.16,1164.48 1768.66,1015.69 1769.17,1015.51 1769.67,925.092 1770.18,925.006 1770.68,964.813 1771.19,964.688 1771.7,1016.24 1772.2,1016.19 1772.71,1150.42 1773.21,1150.33 1773.72,1047.44 1774.22,1047.36 1774.73,1203.76 1775.24,1203.52 1775.74,931.95 1776.25,931.814 1776.75,1100.69 1777.26,1100.62 1777.76,1078.94 1778.27,1078.85 1778.78,1010.76 1779.28,1010.67 1779.79,1092.5 1780.29,1092.43 1780.8,1045.76 1781.3,1045.63 1781.81,975.216 1782.32,975.112 1782.82,1057.97 1783.33,1057.92 1783.83,1069.02 1784.34,1068.94 1784.84,1040.4 1785.35,1040.33 1785.86,1169.93 1786.36,1169.82 1786.87,1342.88 1787.37,1342.78 1787.88,1023.34 1788.38,1023.08 1788.89,1067.13 1789.4,1067.01 1789.9,1135.71 1790.41,1135.67 1790.91,1053.3 1791.42,1053.25 1791.92,1145.13 1792.43,1145.04 1792.94,1097.76 1793.44,1097.65 1793.95,1079.01 1794.45,1078.89 1794.96,1035.44 1795.46,1035.34 1795.97,1019.12 1796.48,1018.97 1796.98,1100.3 1797.49,1100.26 1797.99,1194.58 1798.5,1194.54 1799,1165.19 1799.51,1165.08 1800.02,1138.12 1800.52,1138 1801.03,1016.53 1801.53,1016.45 1802.04,1038.06 1802.54,1037.96 1803.05,1045.35 1803.56,1045.25 1804.06,1064.51 1804.57,1064.43 1805.07,1051.38 1805.58,1051.2 1806.09,1181.09 1806.59,1180.93 1807.1,1141.36 1807.6,1141.28 1808.11,1147.34 1808.61,1147.28 1809.12,983.464 1809.63,983.39 1810.13,1076.93 1810.64,1076.85 1811.14,1038.52 1811.65,1038.42 1812.15,925.197 1812.66,925.066 1813.17,1095.09 1813.67,1094.82 1814.18,1182.03 1814.68,1181.88 1815.19,983.948 1815.69,983.681 1816.2,1138.65 1816.71,1138.46 1817.21,989.149 1817.72,989.021 1818.22,1135.15 1818.73,1135.08 1819.23,963.589 1819.74,963.456 1820.25,1107.34 1820.75,1107.3 1821.26,1228.76 1821.76,1228.69 1822.27,1236.69 1822.77,1236.55 1823.28,1081.38 1823.79,1081.36 1824.29,1092.18 1824.8,1092.12 1825.3,1012.66 1825.81,1012.55 1826.31,1062.26 1826.82,1062.1 1827.33,1156.98 1827.83,1156.88 1828.34,1256.09 1828.84,1256.02 1829.35,1281.07 1829.85,1280.95 1830.36,1069.47 1830.87,1069.36 1831.37,1214.36 1831.88,1214.29 1832.38,1071.9 1832.89,1071.68 1833.39,1102.2 1833.9,1101.93 1834.41,968.86 1834.91,968.822 1835.42,1098.58 1835.92,1098.48 1836.43,1004.16 1836.93,1003.96 1837.44,1077.08 1837.95,1076.95 1838.45,845.608 1838.96,845.448 1839.46,1174.84 1839.97,1174.76 1840.47,1061.75 1840.98,1061.66 1841.49,1035.11 1841.99,1035.03 1842.5,1187.5 1843,1187.42 1843.51,1008.04 1844.01,1007.93 1844.52,1064.39 1845.03,1064.15 1845.53,1142.17 1846.04,1141.97 1846.54,1146.34 1847.05,1146.22 1847.55,1106.24 1848.06,1106.11 1848.57,1021.36 1849.07,1021.33 1849.58,1073.96 1850.08,1073.79 1850.59,1053.99 1851.09,1053.7 1851.6,1064.66 1852.11,1064.59 1852.61,971.235 1853.12,971.121 1853.62,1106.65 1854.13,1106.55 1854.63,1182.19 1855.14,1182.05 1855.65,931.061 1856.15,930.817 1856.66,1046.22 1857.16,1046.02 1857.67,958.436 1858.17,958.324 1858.68,1107.8 1859.19,1107.71 1859.69,1084.53 1860.2,1084.51 1860.7,1184.85 1861.21,1184.71 1861.71,1081.3 1862.22,1081.26 1862.73,1070.19 1863.23,1070.08 1863.74,1211.92 1864.24,1211.83 1864.75,1012.46 1865.25,1012.35 1865.76,1221.46 1866.27,1221.41 1866.77,982.113 1867.28,981.972 1867.78,1189.93 1868.29,1189.81 1868.79,1005.55 1869.3,1005.46 1869.81,1083.18 1870.31,1083.01 1870.82,922.386 1871.32,922.297 1871.83,1168.83 1872.33,1168.7 1872.84,1060.2 1873.35,1060.1 1873.85,930.859 1874.36,930.675 1874.86,1097.06 1875.37,1096.92 1875.87,1158.53 1876.38,1158.41 1876.89,1210.76 1877.39,1210.64 1877.9,1092.76 1878.4,1092.68 1878.91,1155.05 1879.41,1154.95 1879.92,1038.86 1880.43,1038.66 1880.93,1067 1881.44,1066.91 1881.94,1109.03 1882.45,1108.87 1882.95,1099.59 1883.46,1099.48 1883.97,1075.64 1884.47,1075.57 1884.98,1063.36 1885.48,1063.24 1885.99,1151.01 1886.49,1150.97 1887,1207.32 1887.51,1207.19 1888.01,1055.36 1888.52,1055.28 1889.02,1088.9 1889.53,1088.76 1890.03,1111.98 1890.54,1111.86 1891.05,1106.51 1891.55,1106.28 1892.06,1018.2 1892.56,1018.08 1893.07,1212.43 1893.58,1212.32 1894.08,1069.35 1894.59,1069.3 1895.09,1086.06 1895.6,1085.98 1896.1,1050.01 1896.61,1049.92 1897.12,971.422 1897.62,971.252 1898.13,1265.15 1898.63,1265.12 1899.14,1229.24 1899.64,1229.17 1900.15,993.866 1900.66,993.757 1901.16,1143.79 1901.67,1143.71 1902.17,1083.2 1902.68,1083.13 1903.18,1017.6 1903.69,1017.46 1904.2,1155.54 1904.7,1155.48 1905.21,1108.74 1905.71,1108.65 1906.22,1147.04 1906.72,1146.96 1907.23,1198.67 1907.74,1198.62 1908.24,1091.26 1908.75,1091.17 1909.25,1161.81 1909.76,1161.65 1910.26,1036.04 1910.77,1035.95 1911.28,1041.11 1911.78,1041.02 1912.29,1046.46 1912.79,1046.39 1913.3,1146.3 1913.8,1146.19 1914.31,1130.22 1914.82,1130.09 1915.32,1271.06 1915.83,1271 1916.33,1149.51 1916.84,1149.4 1917.34,1214.23 1917.85,1214.17 1918.36,1012.42 1918.86,1012.37 1919.37,1236.5 1919.87,1236.43 1920.38,1096.31 1920.88,1096.22 1921.39,1089.01 1921.9,1088.9 1922.4,1059.33 1922.91,1059.23 1923.41,1222.98 1923.92,1222.8 1924.42,1115.64 1924.93,1115.56 1925.44,1185.75 1925.94,1185.73 1926.45,1002.8 1926.95,1002.63 1927.46,1210.21 1927.96,1210.14 1928.47,1060.1 1928.98,1059.84 1929.48,1200.76 1929.99,1200.73 1930.49,1013.72 1931,1013.59 1931.5,1037.42 1932.01,1037.33 1932.52,1036.05 1933.02,1035.82 1933.53,1179.27 1934.03,1179.16 1934.54,1156.99 1935.04,1156.9 1935.55,1057.28 1936.06,1057.21 1936.56,1051.59 1937.07,1051.49 1937.57,1119.35 1938.08,1119.27 1938.58,1015 1939.09,1014.96 1939.6,1161.09 1940.1,1161.05 1940.61,1209.21 1941.11,1209.14 1941.62,1056.99 1942.12,1056.92 1942.63,1077.94 1943.14,1077.89 1943.64,1030.26 1944.15,1030.05 1944.65,1158.42 1945.16,1158.37 1945.66,904.767 1946.17,904.629 1946.68,1117.21 1947.18,1117.06 1947.69,940.097 1948.19,940.022 1948.7,1093.82 1949.2,1093.7 1949.71,1053.47 1950.22,1053.37 1950.72,1263.47 1951.23,1263.44 1951.73,1104.08 1952.24,1104.01 1952.74,1221.7 1953.25,1221.63 1953.76,1239.36 1954.26,1239.33 1954.77,1229.74 1955.27,1229.63 1955.78,1103.37 1956.28,1103.24 1956.79,905.932 1957.3,905.814 1957.8,1166.45 1958.31,1166.34 1958.81,1076.5 1959.32,1076.37 1959.82,1249.97 1960.33,1249.94 1960.84,1064.58 1961.34,1064.52 1961.85,1032.25 1962.35,1032.11 1962.86,1180.85 1963.36,1180.77 1963.87,1231.91 1964.38,1231.8 1964.88,1070.51 1965.39,1070.4 1965.89,1154.32 1966.4,1154.2 1966.9,1257.2 1967.41,1257.13 1967.92,1074.04 1968.42,1073.78 1968.93,1041.37 1969.43,1041.32 1969.94,1053.86 1970.44,1053.82 1970.95,1113.91 1971.46,1113.9 1971.96,1179.1 1972.47,1179.01 1972.97,1099.95 1973.48,1099.87 1973.98,1064.56 1974.49,1064.42 1975,1047.1 1975.5,1046.99 1976.01,1022.02 1976.51,1021.93 1977.02,1153.88 1977.52,1153.69 1978.03,1073.66 1978.54,1073.57 1979.04,1320.82 1979.55,1320.78 1980.05,1148.01 1980.56,1147.93 1981.07,1148.85 1981.57,1148.78 1982.08,1057.65 1982.58,1057.55 1983.09,1207.48 1983.59,1207.43 1984.1,928.988 1984.61,928.888 1985.11,959.542 1985.62,959.481 1986.12,1041.34 1986.63,1041.23 1987.13,1047.27 1987.64,1047.17 1988.15,916.624 1988.65,916.356 1989.16,1043.08 1989.66,1042.96 1990.17,1006.95 1990.67,1006.84 1991.18,1118.35 1991.69,1118.16 1992.19,1033.54 1992.7,1033.47 1993.2,1110.5 1993.71,1110.35 1994.21,1067.21 1994.72,1067.12 1995.23,1157.47 1995.73,1157.42 1996.24,1257.91 1996.74,1257.84 1997.25,1029.59 1997.75,1029.41 1998.26,1130.8 1998.77,1130.7 1999.27,1168.49 1999.78,1168.42 2000.28,1104.59 2000.79,1104.43 2001.29,1071.13 2001.8,1070.97 2002.31,1101.46 2002.81,1101.35 2003.32,928.512 2003.82,928.446 2004.33,1014.92 2004.83,1014.6 2005.34,1083.1 2005.85,1083.01 2006.35,1100.46 2006.86,1100.4 2007.36,958.623 2007.87,958.315 2008.37,1091.56 2008.88,1091.48 2009.39,1055.04 2009.89,1054.96 2010.4,1130.74 2010.9,1130.66 2011.41,1044 2011.91,1043.91 2012.42,921.327 2012.93,921.262 2013.43,1196.14 2013.94,1196.03 2014.44,1149.06 2014.95,1149.01 2015.45,1187.31 2015.96,1187.25 2016.47,1026.22 2016.97,1026.1 2017.48,1078.39 2017.98,1078.25 2018.49,1200.28 2018.99,1200.17 2019.5,1101.44 2020.01,1101.34 2020.51,1141.65 2021.02,1141.57 2021.52,1290.16 2022.03,1290.12 2022.53,1111.01 2023.04,1110.89 2023.55,1004.56 2024.05,1004.46 2024.56,1158.78 2025.06,1158.67 2025.57,1093.22 2026.07,1093.13 2026.58,1049.48 2027.09,1049.44 2027.59,899.22 2028.1,899.116 2028.6,1043.1 2029.11,1042.94 2029.61,1027.91 2030.12,1027.83 2030.63,1075.89 2031.13,1075.78 2031.64,1071.52 2032.14,1071.45 2032.65,1303.95 2033.15,1303.93 2033.66,1248.86 2034.17,1248.77 2034.67,1293.01 2035.18,1292.97 2035.68,1194.3 2036.19,1194.23 2036.69,1060.9 2037.2,1060.83 2037.71,1045.7 2038.21,1045.61 2038.72,1228.04 2039.22,1228.01 2039.73,1232.99 2040.23,1232.91 2040.74,1132.07 2041.25,1131.9 2041.75,1086.31 2042.26,1086.24 2042.76,1027.59 2043.27,1027.5 2043.77,1015.9 2044.28,1015.83 2044.79,1035.79 2045.29,1035.73 2045.8,1019.95 2046.3,1019.88 2046.81,1117.17 2047.31,1117.05 2047.82,1074.61 2048.33,1074.51 2048.83,1085.59 2049.34,1085.47 2049.84,1270.3 2050.35,1270.26 2050.85,1234.04 2051.36,1233.98 2051.87,1140.36 2052.37,1140.25 2052.88,975.481 2053.38,975.314 2053.89,1210.48 2054.39,1210.41 2054.9,1129.6 2055.41,1129.53 2055.91,1083.33 2056.42,1083.26 2056.92,1021.83 2057.43,1021.73 2057.93,1049.22 2058.44,1049.16 2058.95,1108.86 2059.45,1108.76 2059.96,1064.19 2060.46,1064.09 2060.97,1085.93 2061.47,1085.88 2061.98,1152.52 2062.49,1152.49 2062.99,1112.15 2063.5,1111.95 2064,1125.92 2064.51,1125.77 2065.01,1075.94 2065.52,1075.77 2066.03,1065.89 2066.53,1065.86 2067.04,1154.02 2067.54,1153.97 2068.05,1168.54 2068.56,1168.53 2069.06,1128.17 2069.57,1128.05 2070.07,1176.6 2070.58,1176.46 2071.08,1125.76 2071.59,1125.69 2072.1,1131.61 2072.6,1131.55 2073.11,1148.89 2073.61,1148.84 2074.12,1097.19 2074.62,1097.14 2075.13,957.065 2075.64,956.877 2076.14,1157.74 2076.65,1157.67 2077.15,998.641 2077.66,998.603 2078.16,1086.49 2078.67,1086.39 2079.18,1187.12 2079.68,1187.01 2080.19,1123.15 2080.69,1123.01 2081.2,1053.41 2081.7,1053.35 2082.21,1278.07 2082.72,1278.03 2083.22,1105.26 2083.73,1105.17 2084.23,1092.07 2084.74,1092 2085.24,1050.34 2085.75,1050.24 2086.26,1172.47 2086.76,1172.37 2087.27,1098.11 2087.77,1098.04 2088.28,1053.95 2088.78,1053.87 2089.29,1103.54 2089.8,1103.44 2090.3,965.803 2090.81,965.73 2091.31,1173.54 2091.82,1173.39 2092.32,992.35 2092.83,992.269 2093.34,967.346 2093.84,967.287 2094.35,1108.94 2094.85,1108.87 2095.36,1094.71 2095.86,1094.57 2096.37,1133.17 2096.88,1133.1 2097.38,999.926 2097.89,999.801 2098.39,1084.65 2098.9,1084.59 2099.4,929.773 2099.91,929.656 2100.42,1263.35 2100.92,1263.3 2101.43,1192.27 2101.93,1192.2 2102.44,1027.41 2102.94,1027.32 2103.45,1136.54 2103.96,1136.48 2104.46,1322.99 2104.97,1322.92 2105.47,1036.53 2105.98,1036.48 2106.48,1183.09 2106.99,1182.92 2107.5,1096.07 2108,1095.98 2108.51,1047.01 2109.01,1046.98 2109.52,1041.62 2110.02,1041.52 2110.53,1071.75 2111.04,1071.43 2111.54,1104 2112.05,1103.95 2112.55,1048.5 2113.06,1048.37 2113.56,1220.06 2114.07,1220.04 2114.58,1196.3 2115.08,1196.22 2115.59,947.458 2116.09,947.3 2116.6,1012.43 2117.1,1012.4 2117.61,1120.62 2118.12,1120.55 2118.62,1164.95 2119.13,1164.91 2119.63,1320.23 2120.14,1320.16 2120.64,1042.01 2121.15,1041.97 2121.66,1124.18 2122.16,1124.14 2122.67,1214.23 2123.17,1214 2123.68,1103.89 2124.18,1103.77 2124.69,1172.49 2125.2,1172.36 2125.7,1076.27 2126.21,1076.22 2126.71,950.678 2127.22,950.556 2127.72,1008.39 2128.23,1008.32 2128.74,1072.06 2129.24,1072.02 2129.75,1151.16 2130.25,1151.12 2130.76,1042.88 2131.26,1042.77 2131.77,1304.64 2132.28,1304.55 2132.78,1007.48 2133.29,1007.39 2133.79,1058.77 2134.3,1058.72 2134.8,1113.5 2135.31,1113.27 2135.82,1095.61 2136.32,1095.52 2136.83,1179.48 2137.33,1179.39 2137.84,1105.44 2138.34,1105.33 2138.85,1115.37 2139.36,1115.27 2139.86,1070.62 2140.37,1070.53 2140.87,1107.46 2141.38,1107.35 2141.88,1050.86 2142.39,1050.74 2142.9,1180.81 2143.4,1180.81 2143.91,1154.45 2144.41,1154.39 2144.92,1082.12 2145.42,1082.05 2145.93,1092.88 2146.44,1092.82 2146.94,1140.53 2147.45,1140.46 2147.95,1173.87 2148.46,1173.84 2148.96,1265.31 2149.47,1265.22 2149.98,961.966 2150.48,961.874 2150.99,1003.1 2151.49,1003 2152,1030.82 2152.5,1030.65 2153.01,1003.08 2153.52,1003.02 2154.02,1183.2 2154.53,1183.17 2155.03,876.272 2155.54,876.219 2156.05,1100.82 2156.55,1100.79 2157.06,1265.16 2157.56,1265.04 2158.07,1052.54 2158.57,1052.5 2159.08,1160.84 2159.59,1160.78 2160.09,1068.2 2160.6,1068.14 2161.1,1165.32 2161.61,1165.29 2162.11,1111.57 2162.62,1111.48 2163.13,1186.06 2163.63,1186.01 2164.14,1029.01 2164.64,1028.99 2165.15,1042.92 2165.65,1042.7 2166.16,1059.49 2166.67,1059.45 2167.17,1316.55 2167.68,1316.46 2168.18,1090.28 2168.69,1090.23 2169.19,1163.53 2169.7,1163.46 2170.21,1082.91 2170.71,1082.9 2171.22,1191.51 2171.72,1191.49 2172.23,1162.32 2172.73,1162.25 2173.24,1108.13 2173.75,1108.11 2174.25,1029.87 2174.76,1029.77 2175.26,1085.45 2175.77,1085.41 2176.27,1079.05 2176.78,1078.94 2177.29,947.581 2177.79,947.396 2178.3,1117.95 2178.8,1117.87 2179.31,1159.95 2179.81,1159.89 2180.32,1163.3 2180.83,1163.21 2181.33,961.697 2181.84,961.536 2182.34,1130.09 2182.85,1130.08 2183.35,1003.11 2183.86,1003.06 2184.37,1089.97 2184.87,1089.83 2185.38,1130.66 2185.88,1130.48 2186.39,1115.84 2186.89,1115.79 2187.4,1058.1 2187.91,1058.03 2188.41,1130.23 2188.92,1130.14 2189.42,1133.21 2189.93,1133.19 2190.43,1122.01 2190.94,1121.82 2191.45,1159.87 2191.95,1159.85 2192.46,1144.57 2192.96,1144.54 2193.47,1199.04 2193.97,1198.98 2194.48,1121.19 2194.99,1121.13 2195.49,1127.18 2196,1127.12 2196.5,953.286 2197.01,953.177 2197.51,1186.13 2198.02,1186.11 2198.53,1105.47 2199.03,1105.39 2199.54,1200.91 2200.04,1200.85 2200.55,1150.68 2201.05,1150.67 2201.56,1201.19 2202.07,1200.99 2202.57,1013.72 2203.08,1013.7 2203.58,1259.52 2204.09,1259.41 2204.59,1174.82 2205.1,1174.8 2205.61,1174.32 2206.11,1174.28 2206.62,1180.52 2207.12,1180.49 2207.63,1196.51 2208.13,1196.5 2208.64,966.404 2209.15,966.323 2209.65,1148.94 2210.16,1148.88 2210.66,1103.12 2211.17,1103 2211.67,1135.78 2212.18,1135.66 2212.69,1108.58 2213.19,1108.48 2213.7,1170.65 2214.2,1170.52 2214.71,1051.11 2215.21,1051.02 2215.72,1170.77 2216.23,1170.74 2216.73,1243.18 2217.24,1243.16 2217.74,1032.44 2218.25,1032.38 2218.75,1089.48 2219.26,1089.45 2219.77,1210.77 2220.27,1210.75 2220.78,1125.2 2221.28,1125.09 2221.79,1140.43 2222.29,1140.3 2222.8,1176.1 2223.31,1176.1 2223.81,1101.99 2224.32,1101.94 2224.82,1131.54 2225.33,1131.48 2225.83,1005.97 2226.34,1005.94 2226.85,977.792 2227.35,977.61 2227.86,1254.15 2228.36,1254.06 2228.87,1156.3 2229.37,1156.27 2229.88,1122 2230.39,1121.85 2230.89,1047.68 2231.4,1047.63 2231.9,1306.74 2232.41,1306.72 2232.91,976.867 2233.42,976.776 2233.93,1098.38 2234.43,1098.33 2234.94,1046.94 2235.44,1046.89 2235.95,1299.87 2236.45,1299.83 2236.96,1046.96 2237.47,1046.92 2237.97,1043.78 2238.48,1043.73 2238.98,1046.89 2239.49,1046.81 2239.99,1031.72 2240.5,1031.69 2241.01,1086.1 2241.51,1086.03 2242.02,1140.81 2242.52,1140.74 2243.03,1232.73 2243.54,1232.62 2244.04,1117.38 2244.55,1117.36 2245.05,1072.84 2245.56,1072.72 2246.06,1127.81 2246.57,1127.76 2247.08,1054.08 2247.58,1053.96 2248.09,1010.03 2248.59,1009.95 2249.1,1101.01 2249.6,1100.96 2250.11,1067.49 2250.62,1067.36 2251.12,1018.49 2251.63,1018.35 2252.13,1071.58 2252.64,1071.54 2253.14,1123.06 2253.65,1122.96 2254.16,1135.86 2254.66,1135.7 2255.17,1040.23 2255.67,1040.16 2256.18,1202.87 2256.68,1202.85 2257.19,1054.49 2257.7,1054.38 2258.2,1029.71 2258.71,1029.6 2259.21,1114.84 2259.72,1114.82 2260.22,1067.12 2260.73,1066.87 2261.24,1046.42 2261.74,1046.41 2262.25,1140.75 2262.75,1140.47 2263.26,1210.5 2263.76,1210.49 2264.27,955.69 2264.78,955.611 2265.28,1091.51 2265.79,1091.5 2266.29,1162.75 2266.8,1162.68 2267.3,1112.97 2267.81,1112.88 2268.32,1005.71 2268.82,1005.5 2269.33,1365.56 2269.83,1365.5 2270.34,1279.99 2270.84,1279.93 2271.35,1140.73 2271.86,1140.58 2272.36,1241.63 2272.87,1241.6 2273.37,1130.21 2273.88,1130.16 2274.38,1137.86 2274.89,1137.65 2275.4,1169.65 2275.9,1169.58 2276.41,1034.81 2276.91,1034.74 2277.42,995.052 2277.92,994.943 2278.43,1127.02 2278.94,1126.94 2279.44,1028.8 2279.95,1028.69 2280.45,1153.83 2280.96,1153.8 2281.46,1165.84 2281.97,1165.82 2282.48,1057.51 2282.98,1057.38 2283.49,1024.14 2283.99,1024.07 2284.5,991.653 2285,991.582 2285.51,1021.59 2286.02,1021.48 2286.52,1170.56 2287.03,1170.55 2287.53,1237.62 2288.04,1237.56 2288.54,978.827 2289.05,978.765 2289.56,978.328 2290.06,978.297 2290.57,1303.55 2291.07,1303.49 2291.58,1193.18 2292.08,1193.14 "/>
<path clip-path="url(#clip450)" d="M2014.5 198.898 L2281.3 198.898 L2281.3 95.2176 L2014.5 95.2176  Z" fill="#ffffff" fill-rule="evenodd" fill-opacity="1"/>
<polyline clip-path="url(#clip450)" style="stroke:#000000; stroke-linecap:round; stroke-linejoin:round; stroke-width:4; stroke-opacity:1; fill:none" points="2014.5,198.898 2281.3,198.898 2281.3,95.2176 2014.5,95.2176 2014.5,198.898 "/>
<polyline clip-path="url(#clip450)" style="stroke:#009af9; stroke-linecap:round; stroke-linejoin:round; stroke-width:4; stroke-opacity:1; fill:none" points="2038.31,147.058 2181.23,147.058 "/>
<path clip-path="url(#clip450)" d="M2218.89 166.745 Q2217.09 171.375 2215.37 172.787 Q2213.66 174.199 2210.79 174.199 L2207.39 174.199 L2207.39 170.634 L2209.89 170.634 Q2211.65 170.634 2212.62 169.8 Q2213.59 168.967 2214.77 165.865 L2215.53 163.921 L2205.05 138.412 L2209.56 138.412 L2217.66 158.689 L2225.77 138.412 L2230.28 138.412 L2218.89 166.745 Z" fill="#000000" fill-rule="nonzero" fill-opacity="1" /><path clip-path="url(#clip450)" d="M2237.57 160.402 L2245.21 160.402 L2245.21 134.037 L2236.9 135.703 L2236.9 131.444 L2245.16 129.778 L2249.84 129.778 L2249.84 160.402 L2257.48 160.402 L2257.48 164.338 L2237.57 164.338 L2237.57 160.402 Z" fill="#000000" fill-rule="nonzero" fill-opacity="1" /></svg>
