<?xml version="1.0" encoding="utf-8"?>
<svg xmlns="http://www.w3.org/2000/svg" xmlns:xlink="http://www.w3.org/1999/xlink" width="600" height="400" viewBox="0 0 2400 1600">
<defs>
  <clipPath id="clip960">
    <rect x="0" y="0" width="2400" height="1600"/>
  </clipPath>
</defs>
<path clip-path="url(#clip960)" d="M0 1600 L2400 1600 L2400 0 L0 0  Z" fill="#ffffff" fill-rule="evenodd" fill-opacity="1"/>
<defs>
  <clipPath id="clip961">
    <rect x="480" y="0" width="1681" height="1600"/>
  </clipPath>
</defs>
<path clip-path="url(#clip960)" d="M199.283 1486.45 L2352.76 1486.45 L2352.76 47.2441 L199.283 47.2441  Z" fill="#ffffff" fill-rule="evenodd" fill-opacity="1"/>
<defs>
  <clipPath id="clip962">
    <rect x="199" y="47" width="2154" height="1440"/>
  </clipPath>
</defs>
<polyline clip-path="url(#clip962)" style="stroke:#000000; stroke-linecap:round; stroke-linejoin:round; stroke-width:2; stroke-opacity:0.1; fill:none" points="260.231,1486.45 260.231,47.2441 "/>
<polyline clip-path="url(#clip962)" style="stroke:#000000; stroke-linecap:round; stroke-linejoin:round; stroke-width:2; stroke-opacity:0.1; fill:none" points="666.546,1486.45 666.546,47.2441 "/>
<polyline clip-path="url(#clip962)" style="stroke:#000000; stroke-linecap:round; stroke-linejoin:round; stroke-width:2; stroke-opacity:0.1; fill:none" points="1072.86,1486.45 1072.86,47.2441 "/>
<polyline clip-path="url(#clip962)" style="stroke:#000000; stroke-linecap:round; stroke-linejoin:round; stroke-width:2; stroke-opacity:0.1; fill:none" points="1479.18,1486.45 1479.18,47.2441 "/>
<polyline clip-path="url(#clip962)" style="stroke:#000000; stroke-linecap:round; stroke-linejoin:round; stroke-width:2; stroke-opacity:0.1; fill:none" points="1885.49,1486.45 1885.49,47.2441 "/>
<polyline clip-path="url(#clip962)" style="stroke:#000000; stroke-linecap:round; stroke-linejoin:round; stroke-width:2; stroke-opacity:0.1; fill:none" points="2291.81,1486.45 2291.81,47.2441 "/>
<polyline clip-path="url(#clip960)" style="stroke:#000000; stroke-linecap:round; stroke-linejoin:round; stroke-width:4; stroke-opacity:1; fill:none" points="199.283,1486.45 2352.76,1486.45 "/>
<polyline clip-path="url(#clip960)" style="stroke:#000000; stroke-linecap:round; stroke-linejoin:round; stroke-width:4; stroke-opacity:1; fill:none" points="260.231,1486.45 260.231,1467.55 "/>
<polyline clip-path="url(#clip960)" style="stroke:#000000; stroke-linecap:round; stroke-linejoin:round; stroke-width:4; stroke-opacity:1; fill:none" points="666.546,1486.45 666.546,1467.55 "/>
<polyline clip-path="url(#clip960)" style="stroke:#000000; stroke-linecap:round; stroke-linejoin:round; stroke-width:4; stroke-opacity:1; fill:none" points="1072.86,1486.45 1072.86,1467.55 "/>
<polyline clip-path="url(#clip960)" style="stroke:#000000; stroke-linecap:round; stroke-linejoin:round; stroke-width:4; stroke-opacity:1; fill:none" points="1479.18,1486.45 1479.18,1467.55 "/>
<polyline clip-path="url(#clip960)" style="stroke:#000000; stroke-linecap:round; stroke-linejoin:round; stroke-width:4; stroke-opacity:1; fill:none" points="1885.49,1486.45 1885.49,1467.55 "/>
<polyline clip-path="url(#clip960)" style="stroke:#000000; stroke-linecap:round; stroke-linejoin:round; stroke-width:4; stroke-opacity:1; fill:none" points="2291.81,1486.45 2291.81,1467.55 "/>
<path clip-path="url(#clip960)" d="M260.231 1517.37 Q256.619 1517.37 254.791 1520.93 Q252.985 1524.47 252.985 1531.6 Q252.985 1538.71 254.791 1542.27 Q256.619 1545.82 260.231 1545.82 Q263.865 1545.82 265.67 1542.27 Q267.499 1538.71 267.499 1531.6 Q267.499 1524.47 265.67 1520.93 Q263.865 1517.37 260.231 1517.37 M260.231 1513.66 Q266.041 1513.66 269.096 1518.27 Q272.175 1522.85 272.175 1531.6 Q272.175 1540.33 269.096 1544.94 Q266.041 1549.52 260.231 1549.52 Q254.42 1549.52 251.342 1544.94 Q248.286 1540.33 248.286 1531.6 Q248.286 1522.85 251.342 1518.27 Q254.42 1513.66 260.231 1513.66 Z" fill="#000000" fill-rule="nonzero" fill-opacity="1" /><path clip-path="url(#clip960)" d="M626.153 1544.91 L633.792 1544.91 L633.792 1518.55 L625.482 1520.21 L625.482 1515.95 L633.745 1514.29 L638.421 1514.29 L638.421 1544.91 L646.06 1544.91 L646.06 1548.85 L626.153 1548.85 L626.153 1544.91 Z" fill="#000000" fill-rule="nonzero" fill-opacity="1" /><path clip-path="url(#clip960)" d="M665.504 1517.37 Q661.893 1517.37 660.065 1520.93 Q658.259 1524.47 658.259 1531.6 Q658.259 1538.71 660.065 1542.27 Q661.893 1545.82 665.504 1545.82 Q669.139 1545.82 670.944 1542.27 Q672.773 1538.71 672.773 1531.6 Q672.773 1524.47 670.944 1520.93 Q669.139 1517.37 665.504 1517.37 M665.504 1513.66 Q671.315 1513.66 674.37 1518.27 Q677.449 1522.85 677.449 1531.6 Q677.449 1540.33 674.37 1544.94 Q671.315 1549.52 665.504 1549.52 Q659.694 1549.52 656.616 1544.94 Q653.56 1540.33 653.56 1531.6 Q653.56 1522.85 656.616 1518.27 Q659.694 1513.66 665.504 1513.66 Z" fill="#000000" fill-rule="nonzero" fill-opacity="1" /><path clip-path="url(#clip960)" d="M695.666 1517.37 Q692.055 1517.37 690.227 1520.93 Q688.421 1524.47 688.421 1531.6 Q688.421 1538.71 690.227 1542.27 Q692.055 1545.82 695.666 1545.82 Q699.301 1545.82 701.106 1542.27 Q702.935 1538.71 702.935 1531.6 Q702.935 1524.47 701.106 1520.93 Q699.301 1517.37 695.666 1517.37 M695.666 1513.66 Q701.477 1513.66 704.532 1518.27 Q707.611 1522.85 707.611 1531.6 Q707.611 1540.33 704.532 1544.94 Q701.477 1549.52 695.666 1549.52 Q689.856 1549.52 686.778 1544.94 Q683.722 1540.33 683.722 1531.6 Q683.722 1522.85 686.778 1518.27 Q689.856 1513.66 695.666 1513.66 Z" fill="#000000" fill-rule="nonzero" fill-opacity="1" /><path clip-path="url(#clip960)" d="M1036.55 1544.91 L1052.87 1544.91 L1052.87 1548.85 L1030.93 1548.85 L1030.93 1544.91 Q1033.59 1542.16 1038.17 1537.53 Q1042.78 1532.88 1043.96 1531.53 Q1046.21 1529.01 1047.09 1527.27 Q1047.99 1525.51 1047.99 1523.82 Q1047.99 1521.07 1046.04 1519.33 Q1044.12 1517.6 1041.02 1517.6 Q1038.82 1517.6 1036.37 1518.36 Q1033.94 1519.13 1031.16 1520.68 L1031.16 1515.95 Q1033.98 1514.82 1036.44 1514.24 Q1038.89 1513.66 1040.93 1513.66 Q1046.3 1513.66 1049.49 1516.35 Q1052.69 1519.03 1052.69 1523.52 Q1052.69 1525.65 1051.88 1527.57 Q1051.09 1529.47 1048.98 1532.07 Q1048.41 1532.74 1045.3 1535.95 Q1042.2 1539.15 1036.55 1544.91 Z" fill="#000000" fill-rule="nonzero" fill-opacity="1" /><path clip-path="url(#clip960)" d="M1072.69 1517.37 Q1069.08 1517.37 1067.25 1520.93 Q1065.44 1524.47 1065.44 1531.6 Q1065.44 1538.71 1067.25 1542.27 Q1069.08 1545.82 1072.69 1545.82 Q1076.32 1545.82 1078.13 1542.27 Q1079.96 1538.71 1079.96 1531.6 Q1079.96 1524.47 1078.13 1520.93 Q1076.32 1517.37 1072.69 1517.37 M1072.69 1513.66 Q1078.5 1513.66 1081.55 1518.27 Q1084.63 1522.85 1084.63 1531.6 Q1084.63 1540.33 1081.55 1544.94 Q1078.5 1549.52 1072.69 1549.52 Q1066.88 1549.52 1063.8 1544.94 Q1060.74 1540.33 1060.74 1531.6 Q1060.74 1522.85 1063.8 1518.27 Q1066.88 1513.66 1072.69 1513.66 Z" fill="#000000" fill-rule="nonzero" fill-opacity="1" /><path clip-path="url(#clip960)" d="M1102.85 1517.37 Q1099.24 1517.37 1097.41 1520.93 Q1095.6 1524.47 1095.6 1531.6 Q1095.6 1538.71 1097.41 1542.27 Q1099.24 1545.82 1102.85 1545.82 Q1106.48 1545.82 1108.29 1542.27 Q1110.12 1538.71 1110.12 1531.6 Q1110.12 1524.47 1108.29 1520.93 Q1106.48 1517.37 1102.85 1517.37 M1102.85 1513.66 Q1108.66 1513.66 1111.72 1518.27 Q1114.79 1522.85 1114.79 1531.6 Q1114.79 1540.33 1111.72 1544.94 Q1108.66 1549.52 1102.85 1549.52 Q1097.04 1549.52 1093.96 1544.94 Q1090.91 1540.33 1090.91 1531.6 Q1090.91 1522.85 1093.96 1518.27 Q1097.04 1513.66 1102.85 1513.66 Z" fill="#000000" fill-rule="nonzero" fill-opacity="1" /><path clip-path="url(#clip960)" d="M1452.94 1530.21 Q1456.3 1530.93 1458.17 1533.2 Q1460.07 1535.47 1460.07 1538.8 Q1460.07 1543.92 1456.55 1546.72 Q1453.03 1549.52 1446.55 1549.52 Q1444.37 1549.52 1442.06 1549.08 Q1439.77 1548.66 1437.31 1547.81 L1437.31 1543.29 Q1439.26 1544.43 1441.57 1545.01 Q1443.89 1545.58 1446.41 1545.58 Q1450.81 1545.58 1453.1 1543.85 Q1455.42 1542.11 1455.42 1538.8 Q1455.42 1535.75 1453.26 1534.03 Q1451.13 1532.3 1447.31 1532.3 L1443.29 1532.3 L1443.29 1528.45 L1447.5 1528.45 Q1450.95 1528.45 1452.78 1527.09 Q1454.61 1525.7 1454.61 1523.11 Q1454.61 1520.45 1452.71 1519.03 Q1450.83 1517.6 1447.31 1517.6 Q1445.39 1517.6 1443.19 1518.01 Q1440.99 1518.43 1438.36 1519.31 L1438.36 1515.14 Q1441.02 1514.4 1443.33 1514.03 Q1445.67 1513.66 1447.73 1513.66 Q1453.05 1513.66 1456.16 1516.09 Q1459.26 1518.5 1459.26 1522.62 Q1459.26 1525.49 1457.61 1527.48 Q1455.97 1529.45 1452.94 1530.21 Z" fill="#000000" fill-rule="nonzero" fill-opacity="1" /><path clip-path="url(#clip960)" d="M1478.93 1517.37 Q1475.32 1517.37 1473.49 1520.93 Q1471.69 1524.47 1471.69 1531.6 Q1471.69 1538.71 1473.49 1542.27 Q1475.32 1545.82 1478.93 1545.82 Q1482.57 1545.82 1484.37 1542.27 Q1486.2 1538.71 1486.2 1531.6 Q1486.2 1524.47 1484.37 1520.93 Q1482.57 1517.37 1478.93 1517.37 M1478.93 1513.66 Q1484.74 1513.66 1487.8 1518.27 Q1490.88 1522.85 1490.88 1531.6 Q1490.88 1540.33 1487.8 1544.94 Q1484.74 1549.52 1478.93 1549.52 Q1473.12 1549.52 1470.05 1544.94 Q1466.99 1540.33 1466.99 1531.6 Q1466.99 1522.85 1470.05 1518.27 Q1473.12 1513.66 1478.93 1513.66 Z" fill="#000000" fill-rule="nonzero" fill-opacity="1" /><path clip-path="url(#clip960)" d="M1509.1 1517.37 Q1505.49 1517.37 1503.66 1520.93 Q1501.85 1524.47 1501.85 1531.6 Q1501.85 1538.71 1503.66 1542.27 Q1505.49 1545.82 1509.1 1545.82 Q1512.73 1545.82 1514.54 1542.27 Q1516.36 1538.71 1516.36 1531.6 Q1516.36 1524.47 1514.54 1520.93 Q1512.73 1517.37 1509.1 1517.37 M1509.1 1513.66 Q1514.91 1513.66 1517.96 1518.27 Q1521.04 1522.85 1521.04 1531.6 Q1521.04 1540.33 1517.96 1544.94 Q1514.91 1549.52 1509.1 1549.52 Q1503.29 1549.52 1500.21 1544.94 Q1497.15 1540.33 1497.15 1531.6 Q1497.15 1522.85 1500.21 1518.27 Q1503.29 1513.66 1509.1 1513.66 Z" fill="#000000" fill-rule="nonzero" fill-opacity="1" /><path clip-path="url(#clip960)" d="M1858.58 1518.36 L1846.78 1536.81 L1858.58 1536.81 L1858.58 1518.36 M1857.36 1514.29 L1863.24 1514.29 L1863.24 1536.81 L1868.17 1536.81 L1868.17 1540.7 L1863.24 1540.7 L1863.24 1548.85 L1858.58 1548.85 L1858.58 1540.7 L1842.98 1540.7 L1842.98 1536.19 L1857.36 1514.29 Z" fill="#000000" fill-rule="nonzero" fill-opacity="1" /><path clip-path="url(#clip960)" d="M1885.9 1517.37 Q1882.29 1517.37 1880.46 1520.93 Q1878.65 1524.47 1878.65 1531.6 Q1878.65 1538.71 1880.46 1542.27 Q1882.29 1545.82 1885.9 1545.82 Q1889.53 1545.82 1891.34 1542.27 Q1893.17 1538.71 1893.17 1531.6 Q1893.17 1524.47 1891.34 1520.93 Q1889.53 1517.37 1885.9 1517.37 M1885.9 1513.66 Q1891.71 1513.66 1894.76 1518.27 Q1897.84 1522.85 1897.84 1531.6 Q1897.84 1540.33 1894.76 1544.94 Q1891.71 1549.52 1885.9 1549.52 Q1880.09 1549.52 1877.01 1544.94 Q1873.95 1540.33 1873.95 1531.6 Q1873.95 1522.85 1877.01 1518.27 Q1880.09 1513.66 1885.9 1513.66 Z" fill="#000000" fill-rule="nonzero" fill-opacity="1" /><path clip-path="url(#clip960)" d="M1916.06 1517.37 Q1912.45 1517.37 1910.62 1520.93 Q1908.81 1524.47 1908.81 1531.6 Q1908.81 1538.71 1910.62 1542.27 Q1912.45 1545.82 1916.06 1545.82 Q1919.69 1545.82 1921.5 1542.27 Q1923.33 1538.71 1923.33 1531.6 Q1923.33 1524.47 1921.5 1520.93 Q1919.69 1517.37 1916.06 1517.37 M1916.06 1513.66 Q1921.87 1513.66 1924.93 1518.27 Q1928 1522.85 1928 1531.6 Q1928 1540.33 1924.93 1544.94 Q1921.87 1549.52 1916.06 1549.52 Q1910.25 1549.52 1907.17 1544.94 Q1904.12 1540.33 1904.12 1531.6 Q1904.12 1522.85 1907.17 1518.27 Q1910.25 1513.66 1916.06 1513.66 Z" fill="#000000" fill-rule="nonzero" fill-opacity="1" /><path clip-path="url(#clip960)" d="M2251.43 1514.29 L2269.78 1514.29 L2269.78 1518.22 L2255.71 1518.22 L2255.71 1526.7 Q2256.73 1526.35 2257.75 1526.19 Q2258.76 1526 2259.78 1526 Q2265.57 1526 2268.95 1529.17 Q2272.33 1532.34 2272.33 1537.76 Q2272.33 1543.34 2268.86 1546.44 Q2265.39 1549.52 2259.07 1549.52 Q2256.89 1549.52 2254.62 1549.15 Q2252.38 1548.78 2249.97 1548.04 L2249.97 1543.34 Q2252.05 1544.47 2254.27 1545.03 Q2256.5 1545.58 2258.97 1545.58 Q2262.98 1545.58 2265.32 1543.48 Q2267.65 1541.37 2267.65 1537.76 Q2267.65 1534.15 2265.32 1532.04 Q2262.98 1529.94 2258.97 1529.94 Q2257.1 1529.94 2255.22 1530.35 Q2253.37 1530.77 2251.43 1531.65 L2251.43 1514.29 Z" fill="#000000" fill-rule="nonzero" fill-opacity="1" /><path clip-path="url(#clip960)" d="M2291.54 1517.37 Q2287.93 1517.37 2286.1 1520.93 Q2284.3 1524.47 2284.3 1531.6 Q2284.3 1538.71 2286.1 1542.27 Q2287.93 1545.82 2291.54 1545.82 Q2295.18 1545.82 2296.98 1542.27 Q2298.81 1538.71 2298.81 1531.6 Q2298.81 1524.47 2296.98 1520.93 Q2295.18 1517.37 2291.54 1517.37 M2291.54 1513.66 Q2297.35 1513.66 2300.41 1518.27 Q2303.49 1522.85 2303.49 1531.6 Q2303.49 1540.33 2300.41 1544.94 Q2297.35 1549.52 2291.54 1549.52 Q2285.73 1549.52 2282.65 1544.94 Q2279.6 1540.33 2279.6 1531.6 Q2279.6 1522.85 2282.65 1518.27 Q2285.73 1513.66 2291.54 1513.66 Z" fill="#000000" fill-rule="nonzero" fill-opacity="1" /><path clip-path="url(#clip960)" d="M2321.7 1517.37 Q2318.09 1517.37 2316.26 1520.93 Q2314.46 1524.47 2314.46 1531.6 Q2314.46 1538.71 2316.26 1542.27 Q2318.09 1545.82 2321.7 1545.82 Q2325.34 1545.82 2327.14 1542.27 Q2328.97 1538.71 2328.97 1531.6 Q2328.97 1524.47 2327.14 1520.93 Q2325.34 1517.37 2321.7 1517.37 M2321.7 1513.66 Q2327.51 1513.66 2330.57 1518.27 Q2333.65 1522.85 2333.65 1531.6 Q2333.65 1540.33 2330.57 1544.94 Q2327.51 1549.52 2321.7 1549.52 Q2315.89 1549.52 2312.82 1544.94 Q2309.76 1540.33 2309.76 1531.6 Q2309.76 1522.85 2312.82 1518.27 Q2315.89 1513.66 2321.7 1513.66 Z" fill="#000000" fill-rule="nonzero" fill-opacity="1" /><polyline clip-path="url(#clip962)" style="stroke:#000000; stroke-linecap:round; stroke-linejoin:round; stroke-width:2; stroke-opacity:0.1; fill:none" points="199.283,1335 2352.76,1335 "/>
<polyline clip-path="url(#clip962)" style="stroke:#000000; stroke-linecap:round; stroke-linejoin:round; stroke-width:2; stroke-opacity:0.1; fill:none" points="199.283,1174 2352.76,1174 "/>
<polyline clip-path="url(#clip962)" style="stroke:#000000; stroke-linecap:round; stroke-linejoin:round; stroke-width:2; stroke-opacity:0.1; fill:none" points="199.283,1013 2352.76,1013 "/>
<polyline clip-path="url(#clip962)" style="stroke:#000000; stroke-linecap:round; stroke-linejoin:round; stroke-width:2; stroke-opacity:0.1; fill:none" points="199.283,851.996 2352.76,851.996 "/>
<polyline clip-path="url(#clip962)" style="stroke:#000000; stroke-linecap:round; stroke-linejoin:round; stroke-width:2; stroke-opacity:0.1; fill:none" points="199.283,690.994 2352.76,690.994 "/>
<polyline clip-path="url(#clip962)" style="stroke:#000000; stroke-linecap:round; stroke-linejoin:round; stroke-width:2; stroke-opacity:0.1; fill:none" points="199.283,529.993 2352.76,529.993 "/>
<polyline clip-path="url(#clip962)" style="stroke:#000000; stroke-linecap:round; stroke-linejoin:round; stroke-width:2; stroke-opacity:0.1; fill:none" points="199.283,368.992 2352.76,368.992 "/>
<polyline clip-path="url(#clip962)" style="stroke:#000000; stroke-linecap:round; stroke-linejoin:round; stroke-width:2; stroke-opacity:0.1; fill:none" points="199.283,207.99 2352.76,207.99 "/>
<polyline clip-path="url(#clip960)" style="stroke:#000000; stroke-linecap:round; stroke-linejoin:round; stroke-width:4; stroke-opacity:1; fill:none" points="199.283,1486.45 199.283,47.2441 "/>
<polyline clip-path="url(#clip960)" style="stroke:#000000; stroke-linecap:round; stroke-linejoin:round; stroke-width:4; stroke-opacity:1; fill:none" points="199.283,1335 218.181,1335 "/>
<polyline clip-path="url(#clip960)" style="stroke:#000000; stroke-linecap:round; stroke-linejoin:round; stroke-width:4; stroke-opacity:1; fill:none" points="199.283,1174 218.181,1174 "/>
<polyline clip-path="url(#clip960)" style="stroke:#000000; stroke-linecap:round; stroke-linejoin:round; stroke-width:4; stroke-opacity:1; fill:none" points="199.283,1013 218.181,1013 "/>
<polyline clip-path="url(#clip960)" style="stroke:#000000; stroke-linecap:round; stroke-linejoin:round; stroke-width:4; stroke-opacity:1; fill:none" points="199.283,851.996 218.181,851.996 "/>
<polyline clip-path="url(#clip960)" style="stroke:#000000; stroke-linecap:round; stroke-linejoin:round; stroke-width:4; stroke-opacity:1; fill:none" points="199.283,690.994 218.181,690.994 "/>
<polyline clip-path="url(#clip960)" style="stroke:#000000; stroke-linecap:round; stroke-linejoin:round; stroke-width:4; stroke-opacity:1; fill:none" points="199.283,529.993 218.181,529.993 "/>
<polyline clip-path="url(#clip960)" style="stroke:#000000; stroke-linecap:round; stroke-linejoin:round; stroke-width:4; stroke-opacity:1; fill:none" points="199.283,368.992 218.181,368.992 "/>
<polyline clip-path="url(#clip960)" style="stroke:#000000; stroke-linecap:round; stroke-linejoin:round; stroke-width:4; stroke-opacity:1; fill:none" points="199.283,207.99 218.181,207.99 "/>
<path clip-path="url(#clip960)" d="M93.8623 1321.79 L82.0568 1340.24 L93.8623 1340.24 L93.8623 1321.79 M92.6354 1317.72 L98.515 1317.72 L98.515 1340.24 L103.446 1340.24 L103.446 1344.13 L98.515 1344.13 L98.515 1352.28 L93.8623 1352.28 L93.8623 1344.13 L78.2605 1344.13 L78.2605 1339.62 L92.6354 1317.72 Z" fill="#000000" fill-rule="nonzero" fill-opacity="1" /><path clip-path="url(#clip960)" d="M121.177 1320.8 Q117.566 1320.8 115.737 1324.36 Q113.932 1327.9 113.932 1335.03 Q113.932 1342.14 115.737 1345.71 Q117.566 1349.25 121.177 1349.25 Q124.811 1349.25 126.617 1345.71 Q128.445 1342.14 128.445 1335.03 Q128.445 1327.9 126.617 1324.36 Q124.811 1320.8 121.177 1320.8 M121.177 1317.09 Q126.987 1317.09 130.043 1321.7 Q133.121 1326.28 133.121 1335.03 Q133.121 1343.76 130.043 1348.37 Q126.987 1352.95 121.177 1352.95 Q115.367 1352.95 112.288 1348.37 Q109.233 1343.76 109.233 1335.03 Q109.233 1326.28 112.288 1321.7 Q115.367 1317.09 121.177 1317.09 Z" fill="#000000" fill-rule="nonzero" fill-opacity="1" /><path clip-path="url(#clip960)" d="M151.339 1320.8 Q147.728 1320.8 145.899 1324.36 Q144.093 1327.9 144.093 1335.03 Q144.093 1342.14 145.899 1345.71 Q147.728 1349.25 151.339 1349.25 Q154.973 1349.25 156.779 1345.71 Q158.607 1342.14 158.607 1335.03 Q158.607 1327.9 156.779 1324.36 Q154.973 1320.8 151.339 1320.8 M151.339 1317.09 Q157.149 1317.09 160.205 1321.7 Q163.283 1326.28 163.283 1335.03 Q163.283 1343.76 160.205 1348.37 Q157.149 1352.95 151.339 1352.95 Q145.529 1352.95 142.45 1348.37 Q139.394 1343.76 139.394 1335.03 Q139.394 1326.28 142.45 1321.7 Q145.529 1317.09 151.339 1317.09 Z" fill="#000000" fill-rule="nonzero" fill-opacity="1" /><path clip-path="url(#clip960)" d="M91.5938 1172.13 Q88.4456 1172.13 86.5938 1174.29 Q84.7651 1176.44 84.7651 1180.19 Q84.7651 1183.92 86.5938 1186.09 Q88.4456 1188.25 91.5938 1188.25 Q94.7419 1188.25 96.5706 1186.09 Q98.4224 1183.92 98.4224 1180.19 Q98.4224 1176.44 96.5706 1174.29 Q94.7419 1172.13 91.5938 1172.13 M100.876 1157.48 L100.876 1161.74 Q99.1169 1160.91 97.3113 1160.47 Q95.5289 1160.03 93.7697 1160.03 Q89.1401 1160.03 86.6864 1163.15 Q84.2558 1166.28 83.9086 1172.6 Q85.2743 1170.58 87.3345 1169.52 Q89.3947 1168.43 91.8715 1168.43 Q97.0798 1168.43 100.089 1171.6 Q103.121 1174.75 103.121 1180.19 Q103.121 1185.51 99.9733 1188.73 Q96.8252 1191.95 91.5938 1191.95 Q85.5984 1191.95 82.4271 1187.37 Q79.2559 1182.76 79.2559 1174.03 Q79.2559 1165.84 83.1447 1160.98 Q87.0336 1156.09 93.5845 1156.09 Q95.3437 1156.09 97.1261 1156.44 Q98.9317 1156.79 100.876 1157.48 Z" fill="#000000" fill-rule="nonzero" fill-opacity="1" /><path clip-path="url(#clip960)" d="M121.177 1159.8 Q117.566 1159.8 115.737 1163.36 Q113.932 1166.9 113.932 1174.03 Q113.932 1181.14 115.737 1184.7 Q117.566 1188.25 121.177 1188.25 Q124.811 1188.25 126.617 1184.7 Q128.445 1181.14 128.445 1174.03 Q128.445 1166.9 126.617 1163.36 Q124.811 1159.8 121.177 1159.8 M121.177 1156.09 Q126.987 1156.09 130.043 1160.7 Q133.121 1165.28 133.121 1174.03 Q133.121 1182.76 130.043 1187.37 Q126.987 1191.95 121.177 1191.95 Q115.367 1191.95 112.288 1187.37 Q109.233 1182.76 109.233 1174.03 Q109.233 1165.28 112.288 1160.7 Q115.367 1156.09 121.177 1156.09 Z" fill="#000000" fill-rule="nonzero" fill-opacity="1" /><path clip-path="url(#clip960)" d="M151.339 1159.8 Q147.728 1159.8 145.899 1163.36 Q144.093 1166.9 144.093 1174.03 Q144.093 1181.14 145.899 1184.7 Q147.728 1188.25 151.339 1188.25 Q154.973 1188.25 156.779 1184.7 Q158.607 1181.14 158.607 1174.03 Q158.607 1166.9 156.779 1163.36 Q154.973 1159.8 151.339 1159.8 M151.339 1156.09 Q157.149 1156.09 160.205 1160.7 Q163.283 1165.28 163.283 1174.03 Q163.283 1182.76 160.205 1187.37 Q157.149 1191.95 151.339 1191.95 Q145.529 1191.95 142.45 1187.37 Q139.394 1182.76 139.394 1174.03 Q139.394 1165.28 142.45 1160.7 Q145.529 1156.09 151.339 1156.09 Z" fill="#000000" fill-rule="nonzero" fill-opacity="1" /><path clip-path="url(#clip960)" d="M91.0151 1013.87 Q87.6817 1013.87 85.7605 1015.65 Q83.8623 1017.43 83.8623 1020.55 Q83.8623 1023.68 85.7605 1025.46 Q87.6817 1027.24 91.0151 1027.24 Q94.3484 1027.24 96.2697 1025.46 Q98.1909 1023.66 98.1909 1020.55 Q98.1909 1017.43 96.2697 1015.65 Q94.3715 1013.87 91.0151 1013.87 M86.3392 1011.87 Q83.3299 1011.13 81.6401 1009.07 Q79.9735 1007.01 79.9735 1004.05 Q79.9735 999.907 82.9133 997.499 Q85.8762 995.092 91.0151 995.092 Q96.1771 995.092 99.1169 997.499 Q102.057 999.907 102.057 1004.05 Q102.057 1007.01 100.367 1009.07 Q98.7002 1011.13 95.7141 1011.87 Q99.0937 1012.66 100.969 1014.95 Q102.867 1017.24 102.867 1020.55 Q102.867 1025.58 99.7882 1028.26 Q96.7326 1030.95 91.0151 1030.95 Q85.2975 1030.95 82.2188 1028.26 Q79.1633 1025.58 79.1633 1020.55 Q79.1633 1017.24 81.0614 1014.95 Q82.9595 1012.66 86.3392 1011.87 M84.6262 1004.49 Q84.6262 1007.18 86.2929 1008.68 Q87.9827 1010.18 91.0151 1010.18 Q94.0243 1010.18 95.7141 1008.68 Q97.4271 1007.18 97.4271 1004.49 Q97.4271 1001.8 95.7141 1000.3 Q94.0243 998.796 91.0151 998.796 Q87.9827 998.796 86.2929 1000.3 Q84.6262 1001.8 84.6262 1004.49 Z" fill="#000000" fill-rule="nonzero" fill-opacity="1" /><path clip-path="url(#clip960)" d="M121.177 998.796 Q117.566 998.796 115.737 1002.36 Q113.932 1005.9 113.932 1013.03 Q113.932 1020.14 115.737 1023.7 Q117.566 1027.24 121.177 1027.24 Q124.811 1027.24 126.617 1023.7 Q128.445 1020.14 128.445 1013.03 Q128.445 1005.9 126.617 1002.36 Q124.811 998.796 121.177 998.796 M121.177 995.092 Q126.987 995.092 130.043 999.698 Q133.121 1004.28 133.121 1013.03 Q133.121 1021.76 130.043 1026.36 Q126.987 1030.95 121.177 1030.95 Q115.367 1030.95 112.288 1026.36 Q109.233 1021.76 109.233 1013.03 Q109.233 1004.28 112.288 999.698 Q115.367 995.092 121.177 995.092 Z" fill="#000000" fill-rule="nonzero" fill-opacity="1" /><path clip-path="url(#clip960)" d="M151.339 998.796 Q147.728 998.796 145.899 1002.36 Q144.093 1005.9 144.093 1013.03 Q144.093 1020.14 145.899 1023.7 Q147.728 1027.24 151.339 1027.24 Q154.973 1027.24 156.779 1023.7 Q158.607 1020.14 158.607 1013.03 Q158.607 1005.9 156.779 1002.36 Q154.973 998.796 151.339 998.796 M151.339 995.092 Q157.149 995.092 160.205 999.698 Q163.283 1004.28 163.283 1013.03 Q163.283 1021.76 160.205 1026.36 Q157.149 1030.95 151.339 1030.95 Q145.529 1030.95 142.45 1026.36 Q139.394 1021.76 139.394 1013.03 Q139.394 1004.28 142.45 999.698 Q145.529 995.092 151.339 995.092 Z" fill="#000000" fill-rule="nonzero" fill-opacity="1" /><path clip-path="url(#clip960)" d="M51.6634 865.341 L59.3023 865.341 L59.3023 838.975 L50.9921 840.642 L50.9921 836.382 L59.256 834.716 L63.9319 834.716 L63.9319 865.341 L71.5707 865.341 L71.5707 869.276 L51.6634 869.276 L51.6634 865.341 Z" fill="#000000" fill-rule="nonzero" fill-opacity="1" /><path clip-path="url(#clip960)" d="M91.0151 837.794 Q87.404 837.794 85.5753 841.359 Q83.7697 844.901 83.7697 852.03 Q83.7697 859.137 85.5753 862.702 Q87.404 866.243 91.0151 866.243 Q94.6493 866.243 96.4548 862.702 Q98.2835 859.137 98.2835 852.03 Q98.2835 844.901 96.4548 841.359 Q94.6493 837.794 91.0151 837.794 M91.0151 834.091 Q96.8252 834.091 99.8808 838.697 Q102.959 843.28 102.959 852.03 Q102.959 860.757 99.8808 865.364 Q96.8252 869.947 91.0151 869.947 Q85.2049 869.947 82.1262 865.364 Q79.0707 860.757 79.0707 852.03 Q79.0707 843.28 82.1262 838.697 Q85.2049 834.091 91.0151 834.091 Z" fill="#000000" fill-rule="nonzero" fill-opacity="1" /><path clip-path="url(#clip960)" d="M121.177 837.794 Q117.566 837.794 115.737 841.359 Q113.932 844.901 113.932 852.03 Q113.932 859.137 115.737 862.702 Q117.566 866.243 121.177 866.243 Q124.811 866.243 126.617 862.702 Q128.445 859.137 128.445 852.03 Q128.445 844.901 126.617 841.359 Q124.811 837.794 121.177 837.794 M121.177 834.091 Q126.987 834.091 130.043 838.697 Q133.121 843.28 133.121 852.03 Q133.121 860.757 130.043 865.364 Q126.987 869.947 121.177 869.947 Q115.367 869.947 112.288 865.364 Q109.233 860.757 109.233 852.03 Q109.233 843.28 112.288 838.697 Q115.367 834.091 121.177 834.091 Z" fill="#000000" fill-rule="nonzero" fill-opacity="1" /><path clip-path="url(#clip960)" d="M151.339 837.794 Q147.728 837.794 145.899 841.359 Q144.093 844.901 144.093 852.03 Q144.093 859.137 145.899 862.702 Q147.728 866.243 151.339 866.243 Q154.973 866.243 156.779 862.702 Q158.607 859.137 158.607 852.03 Q158.607 844.901 156.779 841.359 Q154.973 837.794 151.339 837.794 M151.339 834.091 Q157.149 834.091 160.205 838.697 Q163.283 843.28 163.283 852.03 Q163.283 860.757 160.205 865.364 Q157.149 869.947 151.339 869.947 Q145.529 869.947 142.45 865.364 Q139.394 860.757 139.394 852.03 Q139.394 843.28 142.45 838.697 Q145.529 834.091 151.339 834.091 Z" fill="#000000" fill-rule="nonzero" fill-opacity="1" /><path clip-path="url(#clip960)" d="M51.6634 704.339 L59.3023 704.339 L59.3023 677.974 L50.9921 679.64 L50.9921 675.381 L59.256 673.714 L63.9319 673.714 L63.9319 704.339 L71.5707 704.339 L71.5707 708.274 L51.6634 708.274 L51.6634 704.339 Z" fill="#000000" fill-rule="nonzero" fill-opacity="1" /><path clip-path="url(#clip960)" d="M85.0429 704.339 L101.362 704.339 L101.362 708.274 L79.4179 708.274 L79.4179 704.339 Q82.0799 701.585 86.6632 696.955 Q91.2697 692.302 92.4502 690.96 Q94.6956 688.436 95.5752 686.7 Q96.478 684.941 96.478 683.251 Q96.478 680.497 94.5336 678.761 Q92.6123 677.025 89.5104 677.025 Q87.3114 677.025 84.8577 677.788 Q82.4271 678.552 79.6494 680.103 L79.6494 675.381 Q82.4734 674.247 84.9271 673.668 Q87.3808 673.089 89.4178 673.089 Q94.7882 673.089 97.9826 675.775 Q101.177 678.46 101.177 682.95 Q101.177 685.08 100.367 687.001 Q99.5798 688.899 97.4734 691.492 Q96.8947 692.163 93.7928 695.381 Q90.691 698.575 85.0429 704.339 Z" fill="#000000" fill-rule="nonzero" fill-opacity="1" /><path clip-path="url(#clip960)" d="M121.177 676.793 Q117.566 676.793 115.737 680.358 Q113.932 683.899 113.932 691.029 Q113.932 698.136 115.737 701.7 Q117.566 705.242 121.177 705.242 Q124.811 705.242 126.617 701.7 Q128.445 698.136 128.445 691.029 Q128.445 683.899 126.617 680.358 Q124.811 676.793 121.177 676.793 M121.177 673.089 Q126.987 673.089 130.043 677.696 Q133.121 682.279 133.121 691.029 Q133.121 699.756 130.043 704.362 Q126.987 708.946 121.177 708.946 Q115.367 708.946 112.288 704.362 Q109.233 699.756 109.233 691.029 Q109.233 682.279 112.288 677.696 Q115.367 673.089 121.177 673.089 Z" fill="#000000" fill-rule="nonzero" fill-opacity="1" /><path clip-path="url(#clip960)" d="M151.339 676.793 Q147.728 676.793 145.899 680.358 Q144.093 683.899 144.093 691.029 Q144.093 698.136 145.899 701.7 Q147.728 705.242 151.339 705.242 Q154.973 705.242 156.779 701.7 Q158.607 698.136 158.607 691.029 Q158.607 683.899 156.779 680.358 Q154.973 676.793 151.339 676.793 M151.339 673.089 Q157.149 673.089 160.205 677.696 Q163.283 682.279 163.283 691.029 Q163.283 699.756 160.205 704.362 Q157.149 708.946 151.339 708.946 Q145.529 708.946 142.45 704.362 Q139.394 699.756 139.394 691.029 Q139.394 682.279 142.45 677.696 Q145.529 673.089 151.339 673.089 Z" fill="#000000" fill-rule="nonzero" fill-opacity="1" /><path clip-path="url(#clip960)" d="M51.6634 543.338 L59.3023 543.338 L59.3023 516.972 L50.9921 518.639 L50.9921 514.38 L59.256 512.713 L63.9319 512.713 L63.9319 543.338 L71.5707 543.338 L71.5707 547.273 L51.6634 547.273 L51.6634 543.338 Z" fill="#000000" fill-rule="nonzero" fill-opacity="1" /><path clip-path="url(#clip960)" d="M93.8623 516.787 L82.0568 535.236 L93.8623 535.236 L93.8623 516.787 M92.6354 512.713 L98.515 512.713 L98.515 535.236 L103.446 535.236 L103.446 539.125 L98.515 539.125 L98.515 547.273 L93.8623 547.273 L93.8623 539.125 L78.2605 539.125 L78.2605 534.611 L92.6354 512.713 Z" fill="#000000" fill-rule="nonzero" fill-opacity="1" /><path clip-path="url(#clip960)" d="M121.177 515.792 Q117.566 515.792 115.737 519.357 Q113.932 522.898 113.932 530.028 Q113.932 537.134 115.737 540.699 Q117.566 544.241 121.177 544.241 Q124.811 544.241 126.617 540.699 Q128.445 537.134 128.445 530.028 Q128.445 522.898 126.617 519.357 Q124.811 515.792 121.177 515.792 M121.177 512.088 Q126.987 512.088 130.043 516.694 Q133.121 521.278 133.121 530.028 Q133.121 538.755 130.043 543.361 Q126.987 547.944 121.177 547.944 Q115.367 547.944 112.288 543.361 Q109.233 538.755 109.233 530.028 Q109.233 521.278 112.288 516.694 Q115.367 512.088 121.177 512.088 Z" fill="#000000" fill-rule="nonzero" fill-opacity="1" /><path clip-path="url(#clip960)" d="M151.339 515.792 Q147.728 515.792 145.899 519.357 Q144.093 522.898 144.093 530.028 Q144.093 537.134 145.899 540.699 Q147.728 544.241 151.339 544.241 Q154.973 544.241 156.779 540.699 Q158.607 537.134 158.607 530.028 Q158.607 522.898 156.779 519.357 Q154.973 515.792 151.339 515.792 M151.339 512.088 Q157.149 512.088 160.205 516.694 Q163.283 521.278 163.283 530.028 Q163.283 538.755 160.205 543.361 Q157.149 547.944 151.339 547.944 Q145.529 547.944 142.45 543.361 Q139.394 538.755 139.394 530.028 Q139.394 521.278 142.45 516.694 Q145.529 512.088 151.339 512.088 Z" fill="#000000" fill-rule="nonzero" fill-opacity="1" /><path clip-path="url(#clip960)" d="M51.6634 382.337 L59.3023 382.337 L59.3023 355.971 L50.9921 357.638 L50.9921 353.378 L59.256 351.712 L63.9319 351.712 L63.9319 382.337 L71.5707 382.337 L71.5707 386.272 L51.6634 386.272 L51.6634 382.337 Z" fill="#000000" fill-rule="nonzero" fill-opacity="1" /><path clip-path="url(#clip960)" d="M91.5938 367.128 Q88.4456 367.128 86.5938 369.281 Q84.7651 371.434 84.7651 375.184 Q84.7651 378.911 86.5938 381.087 Q88.4456 383.239 91.5938 383.239 Q94.7419 383.239 96.5706 381.087 Q98.4224 378.911 98.4224 375.184 Q98.4224 371.434 96.5706 369.281 Q94.7419 367.128 91.5938 367.128 M100.876 352.476 L100.876 356.735 Q99.1169 355.901 97.3113 355.462 Q95.5289 355.022 93.7697 355.022 Q89.1401 355.022 86.6864 358.147 Q84.2558 361.272 83.9086 367.591 Q85.2743 365.577 87.3345 364.513 Q89.3947 363.425 91.8715 363.425 Q97.0798 363.425 100.089 366.596 Q103.121 369.744 103.121 375.184 Q103.121 380.508 99.9733 383.725 Q96.8252 386.943 91.5938 386.943 Q85.5984 386.943 82.4271 382.36 Q79.2559 377.753 79.2559 369.026 Q79.2559 360.832 83.1447 355.971 Q87.0336 351.087 93.5845 351.087 Q95.3437 351.087 97.1261 351.434 Q98.9317 351.781 100.876 352.476 Z" fill="#000000" fill-rule="nonzero" fill-opacity="1" /><path clip-path="url(#clip960)" d="M121.177 354.79 Q117.566 354.79 115.737 358.355 Q113.932 361.897 113.932 369.026 Q113.932 376.133 115.737 379.698 Q117.566 383.239 121.177 383.239 Q124.811 383.239 126.617 379.698 Q128.445 376.133 128.445 369.026 Q128.445 361.897 126.617 358.355 Q124.811 354.79 121.177 354.79 M121.177 351.087 Q126.987 351.087 130.043 355.693 Q133.121 360.276 133.121 369.026 Q133.121 377.753 130.043 382.36 Q126.987 386.943 121.177 386.943 Q115.367 386.943 112.288 382.36 Q109.233 377.753 109.233 369.026 Q109.233 360.276 112.288 355.693 Q115.367 351.087 121.177 351.087 Z" fill="#000000" fill-rule="nonzero" fill-opacity="1" /><path clip-path="url(#clip960)" d="M151.339 354.79 Q147.728 354.79 145.899 358.355 Q144.093 361.897 144.093 369.026 Q144.093 376.133 145.899 379.698 Q147.728 383.239 151.339 383.239 Q154.973 383.239 156.779 379.698 Q158.607 376.133 158.607 369.026 Q158.607 361.897 156.779 358.355 Q154.973 354.79 151.339 354.79 M151.339 351.087 Q157.149 351.087 160.205 355.693 Q163.283 360.276 163.283 369.026 Q163.283 377.753 160.205 382.36 Q157.149 386.943 151.339 386.943 Q145.529 386.943 142.45 382.36 Q139.394 377.753 139.394 369.026 Q139.394 360.276 142.45 355.693 Q145.529 351.087 151.339 351.087 Z" fill="#000000" fill-rule="nonzero" fill-opacity="1" /><path clip-path="url(#clip960)" d="M51.6634 221.335 L59.3023 221.335 L59.3023 194.97 L50.9921 196.636 L50.9921 192.377 L59.256 190.71 L63.9319 190.71 L63.9319 221.335 L71.5707 221.335 L71.5707 225.27 L51.6634 225.27 L51.6634 221.335 Z" fill="#000000" fill-rule="nonzero" fill-opacity="1" /><path clip-path="url(#clip960)" d="M91.0151 208.858 Q87.6817 208.858 85.7605 210.641 Q83.8623 212.423 83.8623 215.548 Q83.8623 218.673 85.7605 220.456 Q87.6817 222.238 91.0151 222.238 Q94.3484 222.238 96.2697 220.456 Q98.1909 218.65 98.1909 215.548 Q98.1909 212.423 96.2697 210.641 Q94.3715 208.858 91.0151 208.858 M86.3392 206.868 Q83.3299 206.127 81.6401 204.067 Q79.9735 202.007 79.9735 199.044 Q79.9735 194.9 82.9133 192.493 Q85.8762 190.085 91.0151 190.085 Q96.1771 190.085 99.1169 192.493 Q102.057 194.9 102.057 199.044 Q102.057 202.007 100.367 204.067 Q98.7002 206.127 95.7141 206.868 Q99.0937 207.655 100.969 209.946 Q102.867 212.238 102.867 215.548 Q102.867 220.571 99.7882 223.257 Q96.7326 225.942 91.0151 225.942 Q85.2975 225.942 82.2188 223.257 Q79.1633 220.571 79.1633 215.548 Q79.1633 212.238 81.0614 209.946 Q82.9595 207.655 86.3392 206.868 M84.6262 199.483 Q84.6262 202.169 86.2929 203.673 Q87.9827 205.178 91.0151 205.178 Q94.0243 205.178 95.7141 203.673 Q97.4271 202.169 97.4271 199.483 Q97.4271 196.798 95.7141 195.294 Q94.0243 193.789 91.0151 193.789 Q87.9827 193.789 86.2929 195.294 Q84.6262 196.798 84.6262 199.483 Z" fill="#000000" fill-rule="nonzero" fill-opacity="1" /><path clip-path="url(#clip960)" d="M121.177 193.789 Q117.566 193.789 115.737 197.354 Q113.932 200.896 113.932 208.025 Q113.932 215.132 115.737 218.696 Q117.566 222.238 121.177 222.238 Q124.811 222.238 126.617 218.696 Q128.445 215.132 128.445 208.025 Q128.445 200.896 126.617 197.354 Q124.811 193.789 121.177 193.789 M121.177 190.085 Q126.987 190.085 130.043 194.692 Q133.121 199.275 133.121 208.025 Q133.121 216.752 130.043 221.358 Q126.987 225.942 121.177 225.942 Q115.367 225.942 112.288 221.358 Q109.233 216.752 109.233 208.025 Q109.233 199.275 112.288 194.692 Q115.367 190.085 121.177 190.085 Z" fill="#000000" fill-rule="nonzero" fill-opacity="1" /><path clip-path="url(#clip960)" d="M151.339 193.789 Q147.728 193.789 145.899 197.354 Q144.093 200.896 144.093 208.025 Q144.093 215.132 145.899 218.696 Q147.728 222.238 151.339 222.238 Q154.973 222.238 156.779 218.696 Q158.607 215.132 158.607 208.025 Q158.607 200.896 156.779 197.354 Q154.973 193.789 151.339 193.789 M151.339 190.085 Q157.149 190.085 160.205 194.692 Q163.283 199.275 163.283 208.025 Q163.283 216.752 160.205 221.358 Q157.149 225.942 151.339 225.942 Q145.529 225.942 142.45 221.358 Q139.394 216.752 139.394 208.025 Q139.394 199.275 142.45 194.692 Q145.529 190.085 151.339 190.085 Z" fill="#000000" fill-rule="nonzero" fill-opacity="1" /><polyline clip-path="url(#clip962)" style="stroke:#009af9; stroke-linecap:round; stroke-linejoin:round; stroke-width:4; stroke-opacity:1; fill:none" points="260.231,1368.91 264.294,1369.24 268.357,1445.57 272.42,1445.72 276.483,1362.97 280.546,1363.26 284.609,1363.68 288.673,1363.91 292.736,1374.49 296.799,1374.74 300.862,1329.49 304.925,1329.73 308.988,1351.27 313.052,1351.58 317.115,1325.88 321.178,1326.2 325.241,1255.51 329.304,1255.84 333.367,1309.3 337.43,1309.48 341.494,1301.88 345.557,1302.14 349.62,1314.41 353.683,1314.67 357.746,1281.76 361.809,1282.01 365.873,1197.1 369.936,1197.46 373.999,1207.58 378.062,1207.98 382.125,1190.41 386.188,1190.71 390.252,1208.31 394.315,1208.51 398.378,1152.57 402.441,1153.07 406.504,1163.44 410.567,1163.68 414.63,1133.76 418.694,1134.29 422.757,1109.14 426.82,1109.47 430.883,1053.14 434.946,1053.6 439.009,1089.04 443.073,1089.46 447.136,1056.94 451.199,1057.41 455.262,1036.72 459.325,1036.97 463.388,959.544 467.451,960.045 471.515,967.275 475.578,968.13 479.641,939.026 483.704,939.348 487.767,881.052 491.83,881.518 495.894,865.708 499.957,866.174 504.02,903.797 508.083,904.144 512.146,903.618 516.209,903.882 520.273,839.822 524.336,840.094 528.399,849.004 532.462,849.283 536.525,780.067 540.588,780.449 544.651,735.657 548.715,736.194 552.778,668.909 556.841,670.365 560.904,682.213 564.967,682.657 569.03,680.142 573.094,680.59 577.157,638.542 581.22,638.864 585.283,565.241 589.346,565.535 593.409,551.091 597.472,551.756 601.536,497.436 605.599,498.067 609.662,535.601 613.725,535.897 617.788,565.78 621.851,566.328 625.915,514.467 629.978,514.748 634.041,428.555 638.104,429.489 642.167,488.433 646.23,489.112 650.294,514.685 654.357,515.078 658.42,464.618 662.483,464.793 666.546,435.808 670.609,436.115 674.672,391.383 678.736,392.094 682.799,367.269 686.862,367.844 690.925,456.843 694.988,456.999 699.051,432.001 703.115,432.482 707.178,336.834 711.241,337.038 715.304,399.396 719.367,399.75 723.43,393.626 727.493,393.971 731.557,428.225 735.62,428.5 739.683,384.299 743.746,384.91 747.809,342.065 751.872,342.213 755.936,393.593 759.999,393.716 764.062,365.054 768.125,365.567 772.188,348.685 776.251,348.957 780.315,326.528 784.378,326.707 788.441,381.256 792.504,381.492 796.567,391.444 800.63,392.235 804.693,280.294 808.757,280.742 812.82,268.213 816.883,268.349 820.946,325.681 825.009,325.906 829.072,312.065 833.136,312.39 837.199,436.937 841.262,437.148 845.325,382.439 849.388,382.855 853.451,316.844 857.514,317.05 861.578,316.291 865.641,316.651 869.704,269.709 873.767,269.994 877.83,315.23 881.893,315.838 885.957,322.757 890.02,322.87 894.083,272.383 898.146,272.68 902.209,290.346 906.272,290.542 910.336,276.088 914.399,276.519 918.462,311.361 922.525,311.658 926.588,301.941 930.651,302.063 934.714,242.428 938.778,242.545 942.841,270.065 946.904,270.318 950.967,221.74 955.03,222.61 959.093,282.076 963.157,282.17 967.22,270.868 971.283,270.952 975.346,262.008 979.409,262.12 983.472,364.804 987.535,365.049 991.599,262.556 995.662,262.872 999.725,237.593 1003.79,237.872 1007.85,321.741 1011.91,321.986 1015.98,226.473 1020.04,226.753 1024.1,283.942 1028.17,284.249 1032.23,271.756 1036.29,271.856 1040.36,298.315 1044.42,298.382 1048.48,271.911 1052.55,272.183 1056.61,217.747 1060.67,218.14 1064.74,247.268 1068.8,248.115 1072.86,238.641 1076.92,239.025 1080.99,314.219 1085.05,314.316 1089.11,282.226 1093.18,282.762 1097.24,188.093 1101.3,188.294 1105.37,202.239 1109.43,202.416 1113.49,245.687 1117.56,245.733 1121.62,256.463 1125.68,256.58 1129.75,228.369 1133.81,228.454 1137.87,203.196 1141.94,203.266 1146,180.857 1150.06,181.169 1154.12,241.404 1158.19,241.575 1162.25,195.126 1166.31,195.243 1170.38,192.169 1174.44,192.236 1178.5,232.904 1182.57,232.971 1186.63,230.481 1190.69,230.64 1194.76,188.639 1198.82,188.8 1202.88,190.879 1206.95,191.146 1211.01,220.371 1215.07,220.52 1219.14,197.002 1223.2,197.285 1227.26,238.114 1231.32,238.314 1235.39,261.205 1239.45,261.229 1243.51,191.66 1247.58,192.272 1251.64,225.857 1255.7,226.033 1259.77,159.37 1263.83,159.524 1267.89,274.079 1271.96,274.272 1276.02,186.414 1280.08,186.973 1284.15,162.484 1288.21,162.581 1292.27,207.647 1296.34,207.897 1300.4,156.233 1304.46,156.426 1308.52,239.526 1312.59,239.704 1316.65,234.575 1320.71,234.796 1324.78,172.176 1328.84,172.318 1332.9,290.714 1336.97,290.962 1341.03,189.354 1345.09,189.479 1349.16,198.089 1353.22,198.338 1357.28,200.184 1361.35,200.261 1365.41,278.443 1369.47,279.144 1373.54,214.511 1377.6,214.718 1381.66,184.422 1385.72,184.637 1389.79,205.499 1393.85,205.701 1397.91,182.396 1401.98,182.487 1406.04,213.069 1410.1,213.253 1414.17,187.579 1418.23,188.051 1422.29,159.755 1426.36,159.903 1430.42,282.915 1434.48,283.083 1438.55,178.146 1442.61,178.406 1446.67,236.313 1450.74,236.471 1454.8,233.675 1458.86,233.936 1462.92,205.638 1466.99,205.718 1471.05,225.57 1475.11,225.868 1479.18,187.218 1483.24,187.273 1487.3,246.701 1491.37,246.777 1495.43,190.731 1499.49,191.176 1503.56,191.188 1507.62,191.397 1511.68,184 1515.75,184.485 1519.81,259.181 1523.87,259.333 1527.94,137.088 1532,137.215 1536.06,218.303 1540.12,218.463 1544.19,186.327 1548.25,186.669 1552.31,264.715 1556.38,264.838 1560.44,181.435 1564.5,181.921 1568.57,175.708 1572.63,176.069 1576.69,215.672 1580.76,215.859 1584.82,188.011 1588.88,188.962 1592.95,195.957 1597.01,196.344 1601.07,179.66 1605.14,180.002 1609.2,213.212 1613.26,213.348 1617.32,232.112 1621.39,232.269 1625.45,191.568 1629.51,191.682 1633.58,286.881 1637.64,287.044 1641.7,218.306 1645.77,218.49 1649.83,183.556 1653.89,183.658 1657.96,190.379 1662.02,190.542 1666.08,201.536 1670.15,201.66 1674.21,238.163 1678.27,239.196 1682.34,185.172 1686.4,185.394 1690.46,240.968 1694.52,241.114 1698.59,160.117 1702.65,160.343 1706.71,298.855 1710.78,299.023 1714.84,279.681 1718.9,279.76 1722.97,174.88 1727.03,175.181 1731.09,215.391 1735.16,215.546 1739.22,287.898 1743.28,288.247 1747.35,274.55 1751.41,274.678 1755.47,173.325 1759.54,173.522 1763.6,133.392 1767.66,133.932 1771.72,223.352 1775.79,223.638 1779.85,256.787 1783.91,257.118 1787.98,218.427 1792.04,218.643 1796.1,215.672 1800.17,215.765 1804.23,286.027 1808.29,286.11 1812.36,233.27 1816.42,233.7 1820.48,170.707 1824.55,170.91 1828.61,239.172 1832.67,239.341 1836.74,172.151 1840.8,172.396 1844.86,179.825 1848.92,180.121 1852.99,170.479 1857.05,170.56 1861.11,244.414 1865.18,244.537 1869.24,245.746 1873.3,246.083 1877.37,202.416 1881.43,202.718 1885.49,250.731 1889.56,250.791 1893.62,210.453 1897.68,210.896 1901.75,87.9763 1905.81,88.3371 1909.87,269.808 1913.94,270.177 1918,203.402 1922.06,203.63 1926.12,215.285 1930.19,215.417 1934.25,211.242 1938.31,211.514 1942.38,187.626 1946.44,187.749 1950.5,119.697 1954.57,119.727 1958.63,235.073 1962.69,235.144 1966.76,242.911 1970.82,243.149 1974.88,124.906 1978.95,124.955 1983.01,269.597 1987.07,269.725 1991.14,187.837 1995.2,187.957 1999.26,205.829 2003.32,205.853 2007.39,218.868 2011.45,218.934 2015.51,123.621 2019.58,123.948 2023.64,218.562 2027.7,218.78 2031.77,177.819 2035.83,177.983 2039.89,170.697 2043.96,170.804 2048.02,226.865 2052.08,226.932 2056.15,221.667 2060.21,221.869 2064.27,185.256 2068.33,185.669 2072.4,150.951 2076.46,151.219 2080.52,225.267 2084.59,225.504 2088.65,170.304 2092.71,170.347 2096.78,164.599 2100.84,164.718 2104.9,193.444 2108.97,193.539 2113.03,230.157 2117.09,230.804 2121.16,99.1995 2125.22,99.3519 2129.28,204.546 2133.35,204.951 2137.41,151.476 2141.47,151.552 2145.53,207.273 2149.6,207.284 2153.66,167.394 2157.72,167.413 2161.79,180.418 2165.85,180.765 2169.91,151.522 2173.98,152.279 2178.04,278.573 2182.1,278.784 2186.17,307.478 2190.23,307.568 2194.29,131.702 2198.36,131.804 2202.42,167.243 2206.48,167.688 2210.55,175.844 2214.61,175.864 2218.67,185.188 2222.73,185.223 2226.8,158.716 2230.86,159.139 2234.92,190.541 2238.99,190.929 2243.05,196.431 2247.11,196.633 2251.18,199.804 2255.24,199.897 2259.3,232.101 2263.37,232.331 2267.43,218.177 2271.49,218.574 2275.56,152.409 2279.62,152.59 2283.68,203.326 2287.75,203.555 2291.81,203.6 "/>
<path clip-path="url(#clip960)" d="M2013.2 1438.47 L2280.97 1438.47 L2280.97 1334.79 L2013.2 1334.79  Z" fill="#ffffff" fill-rule="evenodd" fill-opacity="1"/>
<polyline clip-path="url(#clip960)" style="stroke:#000000; stroke-linecap:round; stroke-linejoin:round; stroke-width:4; stroke-opacity:1; fill:none" points="2013.2,1438.47 2280.97,1438.47 2280.97,1334.79 2013.2,1334.79 2013.2,1438.47 "/>
<polyline clip-path="url(#clip960)" style="stroke:#009af9; stroke-linecap:round; stroke-linejoin:round; stroke-width:4; stroke-opacity:1; fill:none" points="2037.12,1386.63 2180.69,1386.63 "/>
<path clip-path="url(#clip960)" d="M2218.46 1406.32 Q2216.65 1410.95 2214.94 1412.36 Q2213.23 1413.78 2210.36 1413.78 L2206.95 1413.78 L2206.95 1410.21 L2209.45 1410.21 Q2211.21 1410.21 2212.19 1409.38 Q2213.16 1408.54 2214.34 1405.44 L2215.1 1403.5 L2204.62 1377.99 L2209.13 1377.99 L2217.23 1398.27 L2225.33 1377.99 L2229.85 1377.99 L2218.46 1406.32 Z" fill="#000000" fill-rule="nonzero" fill-opacity="1" /><path clip-path="url(#clip960)" d="M2237.14 1399.98 L2244.78 1399.98 L2244.78 1373.61 L2236.47 1375.28 L2236.47 1371.02 L2244.73 1369.35 L2249.41 1369.35 L2249.41 1399.98 L2257.05 1399.98 L2257.05 1403.91 L2237.14 1403.91 L2237.14 1399.98 Z" fill="#000000" fill-rule="nonzero" fill-opacity="1" /></svg>
