<?xml version="1.0" encoding="utf-8"?>
<svg xmlns="http://www.w3.org/2000/svg" xmlns:xlink="http://www.w3.org/1999/xlink" width="600" height="400" viewBox="0 0 2400 1600">
<defs>
  <clipPath id="clip370">
    <rect x="0" y="0" width="2400" height="1600"/>
  </clipPath>
</defs>
<path clip-path="url(#clip370)" d="M0 1600 L2400 1600 L2400 0 L0 0  Z" fill="#ffffff" fill-rule="evenodd" fill-opacity="1"/>
<defs>
  <clipPath id="clip371">
    <rect x="480" y="0" width="1681" height="1600"/>
  </clipPath>
</defs>
<path clip-path="url(#clip370)" d="M139.446 1486.45 L2352.76 1486.45 L2352.76 47.2441 L139.446 47.2441  Z" fill="#ffffff" fill-rule="evenodd" fill-opacity="1"/>
<defs>
  <clipPath id="clip372">
    <rect x="139" y="47" width="2214" height="1440"/>
  </clipPath>
</defs>
<polyline clip-path="url(#clip372)" style="stroke:#000000; stroke-linecap:round; stroke-linejoin:round; stroke-width:2; stroke-opacity:0.1; fill:none" points="202.086,1486.45 202.086,47.2441 "/>
<polyline clip-path="url(#clip372)" style="stroke:#000000; stroke-linecap:round; stroke-linejoin:round; stroke-width:2; stroke-opacity:0.1; fill:none" points="724.094,1486.45 724.094,47.2441 "/>
<polyline clip-path="url(#clip372)" style="stroke:#000000; stroke-linecap:round; stroke-linejoin:round; stroke-width:2; stroke-opacity:0.1; fill:none" points="1246.1,1486.45 1246.1,47.2441 "/>
<polyline clip-path="url(#clip372)" style="stroke:#000000; stroke-linecap:round; stroke-linejoin:round; stroke-width:2; stroke-opacity:0.1; fill:none" points="1768.11,1486.45 1768.11,47.2441 "/>
<polyline clip-path="url(#clip372)" style="stroke:#000000; stroke-linecap:round; stroke-linejoin:round; stroke-width:2; stroke-opacity:0.1; fill:none" points="2290.12,1486.45 2290.12,47.2441 "/>
<polyline clip-path="url(#clip370)" style="stroke:#000000; stroke-linecap:round; stroke-linejoin:round; stroke-width:4; stroke-opacity:1; fill:none" points="139.446,1486.45 2352.76,1486.45 "/>
<polyline clip-path="url(#clip370)" style="stroke:#000000; stroke-linecap:round; stroke-linejoin:round; stroke-width:4; stroke-opacity:1; fill:none" points="202.086,1486.45 202.086,1467.55 "/>
<polyline clip-path="url(#clip370)" style="stroke:#000000; stroke-linecap:round; stroke-linejoin:round; stroke-width:4; stroke-opacity:1; fill:none" points="724.094,1486.45 724.094,1467.55 "/>
<polyline clip-path="url(#clip370)" style="stroke:#000000; stroke-linecap:round; stroke-linejoin:round; stroke-width:4; stroke-opacity:1; fill:none" points="1246.1,1486.45 1246.1,1467.55 "/>
<polyline clip-path="url(#clip370)" style="stroke:#000000; stroke-linecap:round; stroke-linejoin:round; stroke-width:4; stroke-opacity:1; fill:none" points="1768.11,1486.45 1768.11,1467.55 "/>
<polyline clip-path="url(#clip370)" style="stroke:#000000; stroke-linecap:round; stroke-linejoin:round; stroke-width:4; stroke-opacity:1; fill:none" points="2290.12,1486.45 2290.12,1467.55 "/>
<path clip-path="url(#clip370)" d="M202.086 1517.37 Q198.475 1517.37 196.647 1520.93 Q194.841 1524.47 194.841 1531.6 Q194.841 1538.71 196.647 1542.27 Q198.475 1545.82 202.086 1545.82 Q205.721 1545.82 207.526 1542.27 Q209.355 1538.71 209.355 1531.6 Q209.355 1524.47 207.526 1520.93 Q205.721 1517.37 202.086 1517.37 M202.086 1513.66 Q207.897 1513.66 210.952 1518.27 Q214.031 1522.85 214.031 1531.6 Q214.031 1540.33 210.952 1544.94 Q207.897 1549.52 202.086 1549.52 Q196.276 1549.52 193.198 1544.94 Q190.142 1540.33 190.142 1531.6 Q190.142 1522.85 193.198 1518.27 Q196.276 1513.66 202.086 1513.66 Z" fill="#000000" fill-rule="nonzero" fill-opacity="1" /><path clip-path="url(#clip370)" d="M668.619 1544.91 L676.258 1544.91 L676.258 1518.55 L667.948 1520.21 L667.948 1515.95 L676.212 1514.29 L680.888 1514.29 L680.888 1544.91 L688.527 1544.91 L688.527 1548.85 L668.619 1548.85 L668.619 1544.91 Z" fill="#000000" fill-rule="nonzero" fill-opacity="1" /><path clip-path="url(#clip370)" d="M707.971 1517.37 Q704.36 1517.37 702.531 1520.93 Q700.726 1524.47 700.726 1531.6 Q700.726 1538.71 702.531 1542.27 Q704.36 1545.82 707.971 1545.82 Q711.605 1545.82 713.411 1542.27 Q715.239 1538.71 715.239 1531.6 Q715.239 1524.47 713.411 1520.93 Q711.605 1517.37 707.971 1517.37 M707.971 1513.66 Q713.781 1513.66 716.837 1518.27 Q719.915 1522.85 719.915 1531.6 Q719.915 1540.33 716.837 1544.94 Q713.781 1549.52 707.971 1549.52 Q702.161 1549.52 699.082 1544.94 Q696.027 1540.33 696.027 1531.6 Q696.027 1522.85 699.082 1518.27 Q702.161 1513.66 707.971 1513.66 Z" fill="#000000" fill-rule="nonzero" fill-opacity="1" /><path clip-path="url(#clip370)" d="M738.133 1517.37 Q734.522 1517.37 732.693 1520.93 Q730.888 1524.47 730.888 1531.6 Q730.888 1538.71 732.693 1542.27 Q734.522 1545.82 738.133 1545.82 Q741.767 1545.82 743.573 1542.27 Q745.401 1538.71 745.401 1531.6 Q745.401 1524.47 743.573 1520.93 Q741.767 1517.37 738.133 1517.37 M738.133 1513.66 Q743.943 1513.66 746.999 1518.27 Q750.077 1522.85 750.077 1531.6 Q750.077 1540.33 746.999 1544.94 Q743.943 1549.52 738.133 1549.52 Q732.323 1549.52 729.244 1544.94 Q726.188 1540.33 726.188 1531.6 Q726.188 1522.85 729.244 1518.27 Q732.323 1513.66 738.133 1513.66 Z" fill="#000000" fill-rule="nonzero" fill-opacity="1" /><path clip-path="url(#clip370)" d="M768.295 1517.37 Q764.684 1517.37 762.855 1520.93 Q761.049 1524.47 761.049 1531.6 Q761.049 1538.71 762.855 1542.27 Q764.684 1545.82 768.295 1545.82 Q771.929 1545.82 773.735 1542.27 Q775.563 1538.71 775.563 1531.6 Q775.563 1524.47 773.735 1520.93 Q771.929 1517.37 768.295 1517.37 M768.295 1513.66 Q774.105 1513.66 777.16 1518.27 Q780.239 1522.85 780.239 1531.6 Q780.239 1540.33 777.16 1544.94 Q774.105 1549.52 768.295 1549.52 Q762.485 1549.52 759.406 1544.94 Q756.35 1540.33 756.35 1531.6 Q756.35 1522.85 759.406 1518.27 Q762.485 1513.66 768.295 1513.66 Z" fill="#000000" fill-rule="nonzero" fill-opacity="1" /><path clip-path="url(#clip370)" d="M1194.71 1544.91 L1211.03 1544.91 L1211.03 1548.85 L1189.09 1548.85 L1189.09 1544.91 Q1191.75 1542.16 1196.33 1537.53 Q1200.94 1532.88 1202.12 1531.53 Q1204.36 1529.01 1205.24 1527.27 Q1206.15 1525.51 1206.15 1523.82 Q1206.15 1521.07 1204.2 1519.33 Q1202.28 1517.6 1199.18 1517.6 Q1196.98 1517.6 1194.53 1518.36 Q1192.1 1519.13 1189.32 1520.68 L1189.32 1515.95 Q1192.14 1514.82 1194.6 1514.24 Q1197.05 1513.66 1199.09 1513.66 Q1204.46 1513.66 1207.65 1516.35 Q1210.85 1519.03 1210.85 1523.52 Q1210.85 1525.65 1210.04 1527.57 Q1209.25 1529.47 1207.14 1532.07 Q1206.56 1532.74 1203.46 1535.95 Q1200.36 1539.15 1194.71 1544.91 Z" fill="#000000" fill-rule="nonzero" fill-opacity="1" /><path clip-path="url(#clip370)" d="M1230.85 1517.37 Q1227.24 1517.37 1225.41 1520.93 Q1223.6 1524.47 1223.6 1531.6 Q1223.6 1538.71 1225.41 1542.27 Q1227.24 1545.82 1230.85 1545.82 Q1234.48 1545.82 1236.29 1542.27 Q1238.11 1538.71 1238.11 1531.6 Q1238.11 1524.47 1236.29 1520.93 Q1234.48 1517.37 1230.85 1517.37 M1230.85 1513.66 Q1236.66 1513.66 1239.71 1518.27 Q1242.79 1522.85 1242.79 1531.6 Q1242.79 1540.33 1239.71 1544.94 Q1236.66 1549.52 1230.85 1549.52 Q1225.04 1549.52 1221.96 1544.94 Q1218.9 1540.33 1218.9 1531.6 Q1218.9 1522.85 1221.96 1518.27 Q1225.04 1513.66 1230.85 1513.66 Z" fill="#000000" fill-rule="nonzero" fill-opacity="1" /><path clip-path="url(#clip370)" d="M1261.01 1517.37 Q1257.4 1517.37 1255.57 1520.93 Q1253.76 1524.47 1253.76 1531.6 Q1253.76 1538.71 1255.57 1542.27 Q1257.4 1545.82 1261.01 1545.82 Q1264.64 1545.82 1266.45 1542.27 Q1268.28 1538.71 1268.28 1531.6 Q1268.28 1524.47 1266.45 1520.93 Q1264.64 1517.37 1261.01 1517.37 M1261.01 1513.66 Q1266.82 1513.66 1269.87 1518.27 Q1272.95 1522.85 1272.95 1531.6 Q1272.95 1540.33 1269.87 1544.94 Q1266.82 1549.52 1261.01 1549.52 Q1255.2 1549.52 1252.12 1544.94 Q1249.06 1540.33 1249.06 1531.6 Q1249.06 1522.85 1252.12 1518.27 Q1255.2 1513.66 1261.01 1513.66 Z" fill="#000000" fill-rule="nonzero" fill-opacity="1" /><path clip-path="url(#clip370)" d="M1291.17 1517.37 Q1287.56 1517.37 1285.73 1520.93 Q1283.92 1524.47 1283.92 1531.6 Q1283.92 1538.71 1285.73 1542.27 Q1287.56 1545.82 1291.17 1545.82 Q1294.8 1545.82 1296.61 1542.27 Q1298.44 1538.71 1298.44 1531.6 Q1298.44 1524.47 1296.61 1520.93 Q1294.8 1517.37 1291.17 1517.37 M1291.17 1513.66 Q1296.98 1513.66 1300.04 1518.27 Q1303.11 1522.85 1303.11 1531.6 Q1303.11 1540.33 1300.04 1544.94 Q1296.98 1549.52 1291.17 1549.52 Q1285.36 1549.52 1282.28 1544.94 Q1279.23 1540.33 1279.23 1531.6 Q1279.23 1522.85 1282.28 1518.27 Q1285.36 1513.66 1291.17 1513.66 Z" fill="#000000" fill-rule="nonzero" fill-opacity="1" /><path clip-path="url(#clip370)" d="M1726.79 1530.21 Q1730.15 1530.93 1732.02 1533.2 Q1733.92 1535.47 1733.92 1538.8 Q1733.92 1543.92 1730.4 1546.72 Q1726.88 1549.52 1720.4 1549.52 Q1718.22 1549.52 1715.91 1549.08 Q1713.62 1548.66 1711.16 1547.81 L1711.16 1543.29 Q1713.11 1544.43 1715.42 1545.01 Q1717.74 1545.58 1720.26 1545.58 Q1724.66 1545.58 1726.95 1543.85 Q1729.27 1542.11 1729.27 1538.8 Q1729.27 1535.75 1727.11 1534.03 Q1724.98 1532.3 1721.16 1532.3 L1717.14 1532.3 L1717.14 1528.45 L1721.35 1528.45 Q1724.8 1528.45 1726.63 1527.09 Q1728.46 1525.7 1728.46 1523.11 Q1728.46 1520.45 1726.56 1519.03 Q1724.68 1517.6 1721.16 1517.6 Q1719.24 1517.6 1717.04 1518.01 Q1714.84 1518.43 1712.21 1519.31 L1712.21 1515.14 Q1714.87 1514.4 1717.18 1514.03 Q1719.52 1513.66 1721.58 1513.66 Q1726.9 1513.66 1730.01 1516.09 Q1733.11 1518.5 1733.11 1522.62 Q1733.11 1525.49 1731.46 1527.48 Q1729.82 1529.45 1726.79 1530.21 Z" fill="#000000" fill-rule="nonzero" fill-opacity="1" /><path clip-path="url(#clip370)" d="M1752.78 1517.37 Q1749.17 1517.37 1747.34 1520.93 Q1745.54 1524.47 1745.54 1531.6 Q1745.54 1538.71 1747.34 1542.27 Q1749.17 1545.82 1752.78 1545.82 Q1756.42 1545.82 1758.22 1542.27 Q1760.05 1538.71 1760.05 1531.6 Q1760.05 1524.47 1758.22 1520.93 Q1756.42 1517.37 1752.78 1517.37 M1752.78 1513.66 Q1758.59 1513.66 1761.65 1518.27 Q1764.73 1522.85 1764.73 1531.6 Q1764.73 1540.33 1761.65 1544.94 Q1758.59 1549.52 1752.78 1549.52 Q1746.97 1549.52 1743.9 1544.94 Q1740.84 1540.33 1740.84 1531.6 Q1740.84 1522.85 1743.9 1518.27 Q1746.97 1513.66 1752.78 1513.66 Z" fill="#000000" fill-rule="nonzero" fill-opacity="1" /><path clip-path="url(#clip370)" d="M1782.95 1517.37 Q1779.33 1517.37 1777.51 1520.93 Q1775.7 1524.47 1775.7 1531.6 Q1775.7 1538.71 1777.51 1542.27 Q1779.33 1545.82 1782.95 1545.82 Q1786.58 1545.82 1788.39 1542.27 Q1790.21 1538.71 1790.21 1531.6 Q1790.21 1524.47 1788.39 1520.93 Q1786.58 1517.37 1782.95 1517.37 M1782.95 1513.66 Q1788.76 1513.66 1791.81 1518.27 Q1794.89 1522.85 1794.89 1531.6 Q1794.89 1540.33 1791.81 1544.94 Q1788.76 1549.52 1782.95 1549.52 Q1777.14 1549.52 1774.06 1544.94 Q1771 1540.33 1771 1531.6 Q1771 1522.85 1774.06 1518.27 Q1777.14 1513.66 1782.95 1513.66 Z" fill="#000000" fill-rule="nonzero" fill-opacity="1" /><path clip-path="url(#clip370)" d="M1813.11 1517.37 Q1809.5 1517.37 1807.67 1520.93 Q1805.86 1524.47 1805.86 1531.6 Q1805.86 1538.71 1807.67 1542.27 Q1809.5 1545.82 1813.11 1545.82 Q1816.74 1545.82 1818.55 1542.27 Q1820.38 1538.71 1820.38 1531.6 Q1820.38 1524.47 1818.55 1520.93 Q1816.74 1517.37 1813.11 1517.37 M1813.11 1513.66 Q1818.92 1513.66 1821.97 1518.27 Q1825.05 1522.85 1825.05 1531.6 Q1825.05 1540.33 1821.97 1544.94 Q1818.92 1549.52 1813.11 1549.52 Q1807.3 1549.52 1804.22 1544.94 Q1801.16 1540.33 1801.16 1531.6 Q1801.16 1522.85 1804.22 1518.27 Q1807.3 1513.66 1813.11 1513.66 Z" fill="#000000" fill-rule="nonzero" fill-opacity="1" /><path clip-path="url(#clip370)" d="M2248.12 1518.36 L2236.32 1536.81 L2248.12 1536.81 L2248.12 1518.36 M2246.9 1514.29 L2252.78 1514.29 L2252.78 1536.81 L2257.71 1536.81 L2257.71 1540.7 L2252.78 1540.7 L2252.78 1548.85 L2248.12 1548.85 L2248.12 1540.7 L2232.52 1540.7 L2232.52 1536.19 L2246.9 1514.29 Z" fill="#000000" fill-rule="nonzero" fill-opacity="1" /><path clip-path="url(#clip370)" d="M2275.44 1517.37 Q2271.83 1517.37 2270 1520.93 Q2268.19 1524.47 2268.19 1531.6 Q2268.19 1538.71 2270 1542.27 Q2271.83 1545.82 2275.44 1545.82 Q2279.07 1545.82 2280.88 1542.27 Q2282.71 1538.71 2282.71 1531.6 Q2282.71 1524.47 2280.88 1520.93 Q2279.07 1517.37 2275.44 1517.37 M2275.44 1513.66 Q2281.25 1513.66 2284.3 1518.27 Q2287.38 1522.85 2287.38 1531.6 Q2287.38 1540.33 2284.3 1544.94 Q2281.25 1549.52 2275.44 1549.52 Q2269.63 1549.52 2266.55 1544.94 Q2263.49 1540.33 2263.49 1531.6 Q2263.49 1522.85 2266.55 1518.27 Q2269.63 1513.66 2275.44 1513.66 Z" fill="#000000" fill-rule="nonzero" fill-opacity="1" /><path clip-path="url(#clip370)" d="M2305.6 1517.37 Q2301.99 1517.37 2300.16 1520.93 Q2298.36 1524.47 2298.36 1531.6 Q2298.36 1538.71 2300.16 1542.27 Q2301.99 1545.82 2305.6 1545.82 Q2309.24 1545.82 2311.04 1542.27 Q2312.87 1538.71 2312.87 1531.6 Q2312.87 1524.47 2311.04 1520.93 Q2309.24 1517.37 2305.6 1517.37 M2305.6 1513.66 Q2311.41 1513.66 2314.47 1518.27 Q2317.55 1522.85 2317.55 1531.6 Q2317.55 1540.33 2314.47 1544.94 Q2311.41 1549.52 2305.6 1549.52 Q2299.79 1549.52 2296.71 1544.94 Q2293.66 1540.33 2293.66 1531.6 Q2293.66 1522.85 2296.71 1518.27 Q2299.79 1513.66 2305.6 1513.66 Z" fill="#000000" fill-rule="nonzero" fill-opacity="1" /><path clip-path="url(#clip370)" d="M2335.76 1517.37 Q2332.15 1517.37 2330.32 1520.93 Q2328.52 1524.47 2328.52 1531.6 Q2328.52 1538.71 2330.32 1542.27 Q2332.15 1545.82 2335.76 1545.82 Q2339.4 1545.82 2341.2 1542.27 Q2343.03 1538.71 2343.03 1531.6 Q2343.03 1524.47 2341.2 1520.93 Q2339.4 1517.37 2335.76 1517.37 M2335.76 1513.66 Q2341.57 1513.66 2344.63 1518.27 Q2347.71 1522.85 2347.71 1531.6 Q2347.71 1540.33 2344.63 1544.94 Q2341.57 1549.52 2335.76 1549.52 Q2329.95 1549.52 2326.87 1544.94 Q2323.82 1540.33 2323.82 1531.6 Q2323.82 1522.85 2326.87 1518.27 Q2329.95 1513.66 2335.76 1513.66 Z" fill="#000000" fill-rule="nonzero" fill-opacity="1" /><polyline clip-path="url(#clip372)" style="stroke:#000000; stroke-linecap:round; stroke-linejoin:round; stroke-width:2; stroke-opacity:0.1; fill:none" points="139.446,1441.25 2352.76,1441.25 "/>
<polyline clip-path="url(#clip372)" style="stroke:#000000; stroke-linecap:round; stroke-linejoin:round; stroke-width:2; stroke-opacity:0.1; fill:none" points="139.446,1019.56 2352.76,1019.56 "/>
<polyline clip-path="url(#clip372)" style="stroke:#000000; stroke-linecap:round; stroke-linejoin:round; stroke-width:2; stroke-opacity:0.1; fill:none" points="139.446,597.858 2352.76,597.858 "/>
<polyline clip-path="url(#clip372)" style="stroke:#000000; stroke-linecap:round; stroke-linejoin:round; stroke-width:2; stroke-opacity:0.1; fill:none" points="139.446,176.161 2352.76,176.161 "/>
<polyline clip-path="url(#clip370)" style="stroke:#000000; stroke-linecap:round; stroke-linejoin:round; stroke-width:4; stroke-opacity:1; fill:none" points="139.446,1486.45 139.446,47.2441 "/>
<polyline clip-path="url(#clip370)" style="stroke:#000000; stroke-linecap:round; stroke-linejoin:round; stroke-width:4; stroke-opacity:1; fill:none" points="139.446,1441.25 158.343,1441.25 "/>
<polyline clip-path="url(#clip370)" style="stroke:#000000; stroke-linecap:round; stroke-linejoin:round; stroke-width:4; stroke-opacity:1; fill:none" points="139.446,1019.56 158.343,1019.56 "/>
<polyline clip-path="url(#clip370)" style="stroke:#000000; stroke-linecap:round; stroke-linejoin:round; stroke-width:4; stroke-opacity:1; fill:none" points="139.446,597.858 158.343,597.858 "/>
<polyline clip-path="url(#clip370)" style="stroke:#000000; stroke-linecap:round; stroke-linejoin:round; stroke-width:4; stroke-opacity:1; fill:none" points="139.446,176.161 158.343,176.161 "/>
<path clip-path="url(#clip370)" d="M53.3764 1454.6 L61.0152 1454.6 L61.0152 1428.23 L52.7051 1429.9 L52.7051 1425.64 L60.9689 1423.97 L65.6448 1423.97 L65.6448 1454.6 L73.2837 1454.6 L73.2837 1458.53 L53.3764 1458.53 L53.3764 1454.6 Z" fill="#000000" fill-rule="nonzero" fill-opacity="1" /><path clip-path="url(#clip370)" d="M83.5382 1454.6 L91.1771 1454.6 L91.1771 1428.23 L82.867 1429.9 L82.867 1425.64 L91.1308 1423.97 L95.8067 1423.97 L95.8067 1454.6 L103.446 1454.6 L103.446 1458.53 L83.5382 1458.53 L83.5382 1454.6 Z" fill="#000000" fill-rule="nonzero" fill-opacity="1" /><path clip-path="url(#clip370)" d="M53.7467 1032.9 L61.3856 1032.9 L61.3856 1006.53 L53.0754 1008.2 L53.0754 1003.94 L61.3393 1002.28 L66.0152 1002.28 L66.0152 1032.9 L73.654 1032.9 L73.654 1036.84 L53.7467 1036.84 L53.7467 1032.9 Z" fill="#000000" fill-rule="nonzero" fill-opacity="1" /><path clip-path="url(#clip370)" d="M87.1262 1032.9 L103.446 1032.9 L103.446 1036.84 L81.5012 1036.84 L81.5012 1032.9 Q84.1632 1030.15 88.7466 1025.52 Q93.353 1020.86 94.5336 1019.52 Q96.7789 1017 97.6585 1015.26 Q98.5613 1013.5 98.5613 1011.81 Q98.5613 1009.06 96.6169 1007.32 Q94.6956 1005.59 91.5938 1005.59 Q89.3947 1005.59 86.941 1006.35 Q84.5105 1007.11 81.7327 1008.66 L81.7327 1003.94 Q84.5568 1002.81 87.0105 1002.23 Q89.4641 1001.65 91.5012 1001.65 Q96.8715 1001.65 100.066 1004.34 Q103.26 1007.02 103.26 1011.51 Q103.26 1013.64 102.45 1015.56 Q101.663 1017.46 99.5567 1020.05 Q98.978 1020.72 95.8761 1023.94 Q92.7743 1027.14 87.1262 1032.9 Z" fill="#000000" fill-rule="nonzero" fill-opacity="1" /><path clip-path="url(#clip370)" d="M52.7977 611.203 L60.4365 611.203 L60.4365 584.837 L52.1264 586.504 L52.1264 582.245 L60.3902 580.578 L65.0661 580.578 L65.0661 611.203 L72.705 611.203 L72.705 615.138 L52.7977 615.138 L52.7977 611.203 Z" fill="#000000" fill-rule="nonzero" fill-opacity="1" /><path clip-path="url(#clip370)" d="M96.316 596.504 Q99.6724 597.221 101.547 599.49 Q103.446 601.758 103.446 605.092 Q103.446 610.207 99.927 613.008 Q96.4085 615.809 89.9271 615.809 Q87.7512 615.809 85.4364 615.369 Q83.1447 614.953 80.691 614.096 L80.691 609.582 Q82.6355 610.717 84.9503 611.295 Q87.2651 611.874 89.7882 611.874 Q94.1863 611.874 96.478 610.138 Q98.7928 608.402 98.7928 605.092 Q98.7928 602.036 96.64 600.323 Q94.5104 598.587 90.691 598.587 L86.6632 598.587 L86.6632 594.745 L90.8762 594.745 Q94.3252 594.745 96.1539 593.379 Q97.9826 591.99 97.9826 589.397 Q97.9826 586.735 96.0845 585.323 Q94.2095 583.888 90.691 583.888 Q88.7697 583.888 86.5706 584.305 Q84.3716 584.721 81.7327 585.601 L81.7327 581.434 Q84.3947 580.694 86.7095 580.323 Q89.0475 579.953 91.1077 579.953 Q96.4317 579.953 99.5335 582.384 Q102.635 584.791 102.635 588.911 Q102.635 591.782 100.992 593.772 Q99.3483 595.74 96.316 596.504 Z" fill="#000000" fill-rule="nonzero" fill-opacity="1" /><path clip-path="url(#clip370)" d="M51.6634 189.505 L59.3023 189.505 L59.3023 163.14 L50.9921 164.807 L50.9921 160.547 L59.256 158.881 L63.9319 158.881 L63.9319 189.505 L71.5707 189.505 L71.5707 193.441 L51.6634 193.441 L51.6634 189.505 Z" fill="#000000" fill-rule="nonzero" fill-opacity="1" /><path clip-path="url(#clip370)" d="M93.8623 162.955 L82.0568 181.404 L93.8623 181.404 L93.8623 162.955 M92.6354 158.881 L98.515 158.881 L98.515 181.404 L103.446 181.404 L103.446 185.293 L98.515 185.293 L98.515 193.441 L93.8623 193.441 L93.8623 185.293 L78.2605 185.293 L78.2605 180.779 L92.6354 158.881 Z" fill="#000000" fill-rule="nonzero" fill-opacity="1" /><polyline clip-path="url(#clip372)" style="stroke:#009af9; stroke-linecap:round; stroke-linejoin:round; stroke-width:4; stroke-opacity:1; fill:none" points="202.086,433.337 202.608,87.9763 203.13,1272.19 203.652,1427.8 204.174,1231.93 204.696,1445.72 205.218,1272.63 205.74,1434.44 206.262,1241.36 206.784,1442.96 207.306,1264.73 207.828,1436.52 208.35,1246.95 208.873,1441.67 209.395,1261.01 209.917,1437.67 210.439,1250.06 210.961,1440.6 211.483,1258.01 212.005,1438.56 212.527,1252.36 213.049,1440.11 213.571,1256.64 214.093,1438.38 214.615,1252.48 215.137,1439.93 215.659,1256.29 216.181,1438.98 216.703,1253.66 217.225,1439.5 217.747,1255.13 218.269,1439.45 218.791,1254.84 219.313,1439.41 219.835,1254.67 220.357,1439.66 220.879,1255.16 221.401,1439.21 221.923,1254.29 222.445,1439.21 222.967,1254.5 223.489,1439.64 224.011,1255.29 224.533,1439.41 225.055,1254.71 225.577,1439.44 226.099,1254.82 226.621,1439.36 227.143,1254.64 227.665,1439.28 228.187,1254.41 228.709,1439.47 229.231,1254.97 229.753,1439.2 230.275,1254.4 230.797,1439.62 231.319,1255.25 231.841,1439.37 232.363,1254.67 232.885,1439.3 233.407,1254.56 233.929,1439.58 234.451,1255.14 234.973,1439.31 235.495,1254.5 236.017,1439.39 236.539,1254.85 237.061,1439.21 237.583,1254.28 238.105,1439.56 238.627,1255.17 239.149,1439.2 239.671,1254.3 240.193,1439.56 240.715,1255.13 241.237,1439.24 241.759,1254.25 242.281,1439.51 242.803,1255.12 243.325,1439.32 243.847,1254.53 244.369,1439.59 244.891,1255.15 245.413,1439.41 245.935,1254.66 246.457,1439.56 246.979,1255.01 247.501,1439.38 248.023,1254.79 248.545,1439.35 249.067,1254.72 249.589,1439.04 250.111,1254.08 250.633,1439.48 251.155,1254.99 251.677,1439.32 252.199,1254.44 252.721,1439.52 253.243,1255.02 253.765,1439.51 254.287,1254.82 254.809,1439.25 255.331,1254.51 255.853,1439.54 256.375,1255.11 256.897,1439.24 257.419,1254.3 257.941,1439.55 258.463,1255.17 258.985,1439.41 259.507,1254.61 260.029,1439.52 260.551,1254.97 261.073,1439.41 261.595,1254.72 262.117,1439.37 262.639,1254.78 263.161,1439.47 263.683,1254.84 264.205,1439.45 264.727,1254.81 265.249,1439.46 265.771,1254.85 266.293,1439.37 266.815,1254.53 267.337,1439.43 267.859,1254.92 268.381,1439.17 268.903,1254.36 269.425,1439.31 269.947,1254.56 270.469,1439.39 270.991,1254.71 271.513,1439.29 272.035,1254.56 272.557,1439.39 273.079,1254.74 273.601,1439.34 274.123,1254.58 274.645,1439.27 275.167,1254.62 275.689,1439.42 276.211,1254.78 276.733,1439.43 277.255,1254.72 277.777,1439.48 278.299,1254.91 278.821,1439.37 279.343,1254.7 279.865,1439.54 280.387,1255.04 280.909,1439.25 281.431,1254.38 281.954,1439.43 282.476,1254.93 282.998,1439.53 283.52,1254.9 284.042,1439.33 284.564,1254.6 285.086,1439.34 285.608,1254.57 286.13,1439.22 286.652,1254.51 287.174,1439.49 287.696,1255.02 288.218,1439.39 288.74,1254.71 289.262,1439.24 289.784,1254.44 290.306,1439.27 290.828,1254.55 291.35,1439.52 291.872,1255.08 292.394,1439.15 292.916,1254.11 293.438,1439.16 293.96,1254.49 294.482,1439.55 295.004,1255.09 295.526,1439.19 296.048,1254.23 296.57,1439.74 297.092,1255.41 297.614,1439.19 298.136,1254.17 298.658,1439.59 299.18,1255.25 299.702,1439.24 300.224,1254.32 300.746,1439.16 301.268,1254.36 301.79,1439.52 302.312,1255.16 302.834,1439.13 303.356,1254.03 303.878,1439.48 304.4,1255.1 304.922,1439.21 305.444,1254.39 305.966,1439.44 306.488,1254.85 307.01,1439.5 307.532,1254.9 308.054,1439.23 308.576,1254.43 309.098,1439.46 309.62,1254.98 310.142,1439.3 310.664,1254.56 311.186,1439.34 311.708,1254.64 312.23,1439.27 312.752,1254.46 313.274,1439.41 313.796,1254.86 314.318,1439.2 314.84,1254.34 315.362,1439.64 315.884,1255.29 316.406,1439.02 316.928,1253.96 317.45,1439.69 317.972,1255.54 318.494,1438.91 319.016,1253.65 319.538,1439.61 320.06,1255.29 320.582,1439.24 321.104,1254.21 321.626,1439.29 322.148,1254.62 322.67,1439.51 323.192,1255 323.714,1439.21 324.236,1254.3 324.758,1439.59 325.28,1255.31 325.802,1439.08 326.324,1253.97 326.846,1439.55 327.368,1255.24 327.89,1439.28 328.412,1254.43 328.934,1439.04 329.456,1254.07 329.978,1439.66 330.5,1255.46 331.022,1439.23 331.544,1254.21 332.066,1439.62 332.588,1255.34 333.11,1439.22 333.632,1254.21 334.154,1439.73 334.676,1255.49 335.198,1438.96 335.72,1253.8 336.242,1439.63 336.764,1255.53 337.286,1439.05 337.808,1253.93 338.33,1439.42 338.852,1254.95 339.374,1439.38 339.896,1254.59 340.418,1439.18 340.94,1254.34 341.462,1439.24 341.984,1254.6 342.506,1439.33 343.028,1254.6 343.55,1439.66 344.072,1255.32 344.594,1439.33 345.116,1254.38 345.638,1439.4 346.16,1254.76 346.682,1439.24 347.204,1254.39 347.726,1439.68 348.248,1255.35 348.77,1439.04 349.292,1254.03 349.814,1439.66 350.336,1255.56 350.858,1439.2 351.38,1254.17 351.902,1439.4 352.424,1254.88 352.946,1439.39 353.468,1254.69 353.99,1439.39 354.512,1254.77 355.035,1439.36 355.557,1254.73 356.079,1438.95 356.601,1253.84 357.123,1439.71 357.645,1255.69 358.167,1438.98 358.689,1253.64 359.211,1439.7 359.733,1255.55 360.255,1439.15 360.777,1254.08 361.299,1439.91 361.821,1255.88 362.343,1439.03 362.865,1253.66 363.387,1439.49 363.909,1255.16 364.431,1439.11 364.953,1254.11 365.475,1439.7 365.997,1255.5 366.519,1439.03 367.041,1253.81 367.563,1439.54 368.085,1255.27 368.607,1439.09 369.129,1253.98 369.651,1439.45 370.173,1255.05 370.695,1439.19 371.217,1254.31 371.739,1439.51 372.261,1255.03 372.783,1439.48 373.305,1254.91 373.827,1439.43 374.349,1254.77 374.871,1439.42 375.393,1254.78 375.915,1439.43 376.437,1254.72 376.959,1439.43 377.481,1254.84 378.003,1439.31 378.525,1254.52 379.047,1439.25 379.569,1254.5 380.091,1439.55 380.613,1255.06 381.135,1439.29 381.657,1254.46 382.179,1439.5 382.701,1255.04 383.223,1439.29 383.745,1254.48 384.267,1439.35 384.789,1254.72 385.311,1439.48 385.833,1254.91 386.355,1439.32 386.877,1254.61 387.399,1439.51 387.921,1255.01 388.443,1439.51 388.965,1254.84 389.487,1439.33 390.009,1254.71 390.531,1439.34 391.053,1254.66 391.575,1439.36 392.097,1254.64 392.619,1439.44 393.141,1254.96 393.663,1439.01 394.185,1254.03 394.707,1439.59 395.229,1255.24 395.751,1438.99 396.273,1253.89 396.795,1439.32 397.317,1254.84 397.839,1439.35 398.361,1254.62 398.883,1439.26 399.405,1254.57 399.927,1439.24 400.449,1254.46 400.971,1439.55 401.493,1255.15 402.015,1439.2 402.537,1254.35 403.059,1439.63 403.581,1255.32 404.103,1439.2 404.625,1254.32 405.147,1439.59 405.669,1255.25 406.191,1439.42 406.713,1254.75 407.235,1439.37 407.757,1254.73 408.279,1439.48 408.801,1254.9 409.323,1439.28 409.845,1254.5 410.367,1439.4 410.889,1254.81 411.411,1439.42 411.933,1254.71 412.455,1439.34 412.977,1254.64 413.499,1439.22 414.021,1254.41 414.543,1439.53 415.065,1255.05 415.587,1439.19 416.109,1254.29 416.631,1439.45 417.153,1255.02 417.675,1439.34 418.197,1254.64 418.719,1439.47 419.241,1254.85 419.763,1439.41 420.285,1254.69 420.807,1439.54 421.329,1255.03 421.851,1439.26 422.373,1254.36 422.895,1439.66 423.417,1255.19 423.939,1439.21 424.461,1254.25 424.983,1439.62 425.505,1255.28 426.027,1439.33 426.549,1254.46 427.071,1439.47 427.594,1254.9 428.116,1439.09 428.638,1254.13 429.16,1439.46 429.682,1254.97 430.204,1439.22 430.726,1254.32 431.248,1439.45 431.77,1254.94 432.292,1439.3 432.814,1254.64 433.336,1439.42 433.858,1254.74 434.38,1439.37 434.902,1254.76 435.424,1439.43 435.946,1254.76 436.468,1439.22 436.99,1254.45 437.512,1439.41 438.034,1254.84 438.556,1439.21 439.078,1254.32 439.6,1439.5 440.122,1255.04 440.644,1439.06 441.166,1253.99 441.688,1439.61 442.21,1255.22 442.732,1439.04 443.254,1254 443.776,1439.48 444.298,1255.14 444.82,1439.37 445.342,1254.54 445.864,1439.29 446.386,1254.59 446.908,1439.23 447.43,1254.43 447.952,1439.57 448.474,1255.13 448.996,1439.41 449.518,1254.71 450.04,1439.4 450.562,1254.7 451.084,1439.29 451.606,1254.58 452.128,1439.37 452.65,1254.78 453.172,1439.48 453.694,1254.81 454.216,1439.36 454.738,1254.64 455.26,1439.41 455.782,1254.77 456.304,1439.28 456.826,1254.48 457.348,1439.47 457.87,1254.83 458.392,1439.31 458.914,1254.54 459.436,1439.49 459.958,1254.96 460.48,1439.17 461.002,1254.28 461.524,1439.28 462.046,1254.56 462.568,1439.58 463.09,1255.1 463.612,1439.12 464.134,1254.17 464.656,1439.5 465.178,1255.02 465.7,1439.54 466.222,1254.99 466.744,1439.11 467.266,1254.18 467.788,1439.6 468.31,1255.22 468.832,1439.14 469.354,1254.16 469.876,1439.7 470.398,1255.38 470.92,1439.07 471.442,1253.86 471.964,1439.73 472.486,1255.55 473.008,1439.25 473.53,1254.25 474.052,1439.49 474.574,1254.9 475.096,1439.04 475.618,1254.04 476.14,1439.53 476.662,1255.18 477.184,1439.21 477.706,1254.27 478.228,1439.51 478.75,1255.12 479.272,1439.14 479.794,1254.1 480.316,1439.51 480.838,1255.15 481.36,1438.82 481.882,1253.58 482.404,1439.57 482.926,1255.31 483.448,1439.12 483.97,1254.09 484.492,1439.82 485.014,1255.65 485.536,1438.96 486.058,1253.78 486.58,1439.75 487.102,1255.65 487.624,1439.21 488.146,1254.24 488.668,1439.47 489.19,1255.02 489.712,1439.39 490.234,1254.73 490.756,1439.38 491.278,1254.73 491.8,1439.18 492.322,1254.36 492.844,1439.44 493.366,1254.93 493.888,1439.38 494.41,1254.64 494.932,1439.35 495.454,1254.72 495.976,1439.49 496.498,1254.9 497.02,1439.69 497.542,1255.18 498.064,1439.2 498.586,1254.29 499.108,1439.7 499.63,1255.46 500.152,1439.32 500.675,1254.42 501.197,1439.57 501.719,1255.14 502.241,1439.27 502.763,1254.36 503.285,1439.39 503.807,1254.82 504.329,1439.36 504.851,1254.64 505.373,1439.21 505.895,1254.42 506.417,1439.54 506.939,1254.96 507.461,1439.38 507.983,1254.58 508.505,1439.58 509.027,1255.07 509.549,1439.19 510.071,1254.26 510.593,1439.68 511.115,1255.31 511.637,1439.24 512.159,1254.18 512.681,1439.54 513.203,1255.12 513.725,1439.41 514.247,1254.74 514.769,1439.37 515.291,1254.76 515.813,1439.23 516.335,1254.41 516.857,1439.51 517.379,1255.13 517.901,1439.48 518.423,1254.69 518.945,1439.29 519.467,1254.58 519.989,1439.63 520.511,1255.19 521.033,1439.35 521.555,1254.56 522.077,1439.43 522.599,1254.85 523.121,1439.6 523.643,1255.08 524.165,1439.34 524.687,1254.51 525.209,1439.21 525.731,1254.37 526.253,1439.49 526.775,1255 527.297,1439.5 527.819,1254.91 528.341,1439.04 528.863,1254.02 529.385,1439.64 529.907,1255.35 530.429,1439.01 530.951,1253.87 531.473,1439.47 531.995,1255.16 532.517,1439.05 533.039,1254.09 533.561,1439.79 534.083,1255.75 534.605,1439.24 535.127,1254.22 535.649,1439.58 536.171,1255.19 536.693,1439.25 537.215,1254.37 537.737,1439.63 538.259,1255.3 538.781,1439.23 539.303,1254.26 539.825,1439.53 540.347,1255.04 540.869,1439.4 541.391,1254.63 541.913,1439.62 542.435,1255.13 542.957,1439.31 543.479,1254.52 544.001,1439.5 544.523,1254.94 545.045,1439.14 545.567,1254.13 546.089,1439.54 546.611,1255.23 547.133,1439.1 547.655,1254.04 548.177,1439.73 548.699,1255.54 549.221,1439.15 549.743,1254.12 550.265,1439.65 550.787,1255.41 551.309,1439.04 551.831,1253.93 552.353,1439.66 552.875,1255.42 553.397,1439.33 553.919,1254.51 554.441,1439.28 554.963,1254.7 555.485,1439.48 556.007,1254.98 556.529,1439.28 557.051,1254.39 557.573,1439.59 558.095,1255.1 558.617,1439.19 559.139,1254.19 559.661,1439.48 560.183,1255.05 560.705,1439.18 561.227,1254.31 561.749,1439.5 562.271,1255.04 562.793,1439.22 563.315,1254.19 563.837,1439.68 564.359,1255.42 564.881,1439.03 565.403,1253.96 565.925,1439.56 566.447,1255.18 566.969,1439.26 567.491,1254.33 568.013,1439.65 568.535,1255.28 569.057,1439.32 569.579,1254.49 570.101,1439.46 570.623,1254.85 571.145,1439.32 571.667,1254.46 572.189,1439.45 572.711,1254.97 573.233,1439.45 573.756,1254.85 574.278,1439.21 574.8,1254.31 575.322,1439.46 575.844,1254.92 576.366,1439.26 576.888,1254.54 577.41,1439.4 577.932,1254.73 578.454,1439.44 578.976,1254.79 579.498,1439.37 580.02,1254.67 580.542,1439.59 581.064,1255.16 581.586,1439.18 582.108,1254.13 582.63,1439.3 583.152,1254.78 583.674,1439.16 584.196,1254.36 584.718,1439.51 585.24,1254.92 585.762,1439.58 586.284,1255 586.806,1439.27 587.328,1254.35 587.85,1439.66 588.372,1255.2 588.894,1439.2 589.416,1254.29 589.938,1439.62 590.46,1255.2 590.982,1438.96 591.504,1253.79 592.026,1439.5 592.548,1255.19 593.07,1439.26 593.592,1254.34 594.114,1439.41 594.636,1254.78 595.158,1439.51 595.68,1254.96 596.202,1439.45 596.724,1254.88 597.246,1439.34 597.768,1254.63 598.29,1439.4 598.812,1254.84 599.334,1439.36 599.856,1254.58 600.378,1439.32 600.9,1254.69 601.422,1439.43 601.944,1254.89 602.466,1439.46 602.988,1254.69 603.51,1439.19 604.032,1254.39 604.554,1439.62 605.076,1255.29 605.598,1439.21 606.12,1254.32 606.642,1439.2 607.164,1254.48 607.686,1439.36 608.208,1254.71 608.73,1439.3 609.252,1254.52 609.774,1439.49 610.296,1254.99 610.818,1439.31 611.34,1254.49 611.862,1439.21 612.384,1254.45 612.906,1439.51 613.428,1255.04 613.95,1439.06 614.472,1253.99 614.994,1439.71 615.516,1255.41 616.038,1438.98 616.56,1253.88 617.082,1439.64 617.604,1255.29 618.126,1439.19 618.648,1254.14 619.17,1439.65 619.692,1255.35 620.214,1439.2 620.736,1254.29 621.258,1439.5 621.78,1255.08 622.302,1439.05 622.824,1253.9 623.346,1439.67 623.868,1255.43 624.39,1439.14 624.912,1254.07 625.434,1439.61 625.956,1255.34 626.478,1439.29 627,1254.22 627.522,1439.74 628.044,1255.43 628.566,1439.17 629.088,1254.24 629.61,1439.58 630.132,1255.15 630.654,1439.12 631.176,1254.11 631.698,1439.18 632.22,1254.4 632.742,1439.52 633.264,1255.1 633.786,1439.47 634.308,1254.81 634.83,1439.26 635.352,1254.46 635.874,1439.51 636.396,1255.01 636.918,1439.26 637.44,1254.36 637.962,1439.45 638.484,1254.87 639.006,1439.3 639.528,1254.49 640.05,1439.21 640.572,1254.42 641.094,1439.33 641.616,1254.66 642.138,1439.36 642.66,1254.67 643.182,1439.43 643.704,1254.66 644.226,1439.36 644.748,1254.67 645.27,1439.16 645.792,1254.27 646.315,1439.6 646.837,1255.32 647.359,1439.41 647.881,1254.63 648.403,1439.34 648.925,1254.5 649.447,1439.54 649.969,1255.08 650.491,1439.18 651.013,1254.28 651.535,1439.43 652.057,1254.83 652.579,1439.39 653.101,1254.8 653.623,1439.25 654.145,1254.53 654.667,1439.38 655.189,1254.82 655.711,1439.3 656.233,1254.6 656.755,1439.58 657.277,1255.02 657.799,1439.1 658.321,1254.13 658.843,1439.55 659.365,1255.19 659.887,1439.15 660.409,1254.21 660.931,1439.49 661.453,1255.02 661.975,1439.3 662.497,1254.49 663.019,1439.46 663.541,1254.87 664.063,1439.59 664.585,1255.05 665.107,1439.24 665.629,1254.39 666.151,1439.49 666.673,1254.95 667.195,1439.46 667.717,1254.86 668.239,1439.45 668.761,1254.79 669.283,1439.57 669.805,1255.02 670.327,1439.35 670.849,1254.58 671.371,1439.53 671.893,1254.98 672.415,1439.35 672.937,1254.66 673.459,1439.25 673.981,1254.52 674.503,1439.36 675.025,1254.62 675.547,1439.33 676.069,1254.55 676.591,1439.4 677.113,1254.72 677.635,1439.33 678.157,1254.65 678.679,1439.38 679.201,1254.61 679.723,1439.27 680.245,1254.52 680.767,1439.65 681.289,1255.2 681.811,1439.2 682.333,1254.25 682.855,1439.57 683.377,1255.17 683.899,1439.32 684.421,1254.41 684.943,1439.72 685.465,1255.44 685.987,1439.13 686.509,1254.1 687.031,1439.2 687.553,1254.32 688.075,1439.31 688.597,1254.63 689.119,1439.39 689.641,1254.6 690.163,1439.53 690.685,1254.95 691.207,1439.24 691.729,1254.27 692.251,1439.22 692.773,1254.5 693.295,1439.44 693.817,1254.91 694.339,1439.27 694.861,1254.52 695.383,1438.99 695.905,1254.1 696.427,1439.61 696.949,1255.31 697.471,1439.22 697.993,1254.28 698.515,1439.49 699.037,1254.87 699.559,1439.2 700.081,1254.31 700.603,1439.41 701.125,1254.82 701.647,1439.22 702.169,1254.33 702.691,1439.65 703.213,1255.26 703.735,1439.35 704.257,1254.43 704.779,1439.49 705.301,1254.85 705.823,1439.41 706.345,1254.67 706.867,1439.36 707.389,1254.63 707.911,1439.47 708.433,1254.83 708.955,1439.55 709.477,1255.03 709.999,1439.3 710.521,1254.46 711.043,1439.62 711.565,1255.16 712.087,1439.18 712.609,1254.12 713.131,1439.54 713.653,1255.28 714.175,1439.23 714.697,1254.29 715.219,1439.37 715.741,1254.74 716.263,1439.64 716.785,1255.12 717.307,1439.43 717.829,1254.64 718.351,1439.5 718.873,1254.99 719.396,1439.27 719.918,1254.38 720.44,1439.6 720.962,1255.11 721.484,1439.28 722.006,1254.39 722.528,1439.38 723.05,1254.79 723.572,1439.41 724.094,1254.8 724.616,1439.42 725.138,1254.74 725.66,1439.3 726.182,1254.46 726.704,1439.43 727.226,1254.73 727.748,1439.47 728.27,1254.94 728.792,1439.13 729.314,1254.18 729.836,1439.45 730.358,1254.93 730.88,1439.38 731.402,1254.66 731.924,1439.36 732.446,1254.66 732.968,1439.65 733.49,1255.23 734.012,1439.29 734.534,1254.4 735.056,1439.54 735.578,1254.99 736.1,1439.26 736.622,1254.41 737.144,1439.62 737.666,1255.25 738.188,1439.3 738.71,1254.37 739.232,1439.43 739.754,1254.93 740.276,1439.28 740.798,1254.47 741.32,1439.5 741.842,1255.02 742.364,1439.4 742.886,1254.66 743.408,1439.41 743.93,1254.75 744.452,1439.08 744.974,1254.15 745.496,1439.45 746.018,1254.99 746.54,1439.4 747.062,1254.74 747.584,1439.29 748.106,1254.47 748.628,1439.17 749.15,1254.35 749.672,1439.21 750.194,1254.41 750.716,1439.51 751.238,1255.11 751.76,1439.28 752.282,1254.39 752.804,1439.58 753.326,1255.15 753.848,1439.23 754.37,1254.23 754.892,1439.34 755.414,1254.68 755.936,1439.21 756.458,1254.36 756.98,1439.45 757.502,1254.86 758.024,1439.38 758.546,1254.77 759.068,1439.23 759.59,1254.41 760.112,1439.49 760.634,1254.92 761.156,1439.28 761.678,1254.48 762.2,1439.61 762.722,1255.15 763.244,1439.26 763.766,1254.39 764.288,1439.63 764.81,1255.23 765.332,1439.05 765.854,1253.95 766.376,1439.61 766.898,1255.31 767.42,1439.22 767.942,1254.24 768.464,1439.62 768.986,1255.27 769.508,1439.23 770.03,1254.29 770.552,1439.17 771.074,1254.38 771.596,1439.34 772.118,1254.71 772.64,1439.16 773.162,1254.19 773.684,1439.39 774.206,1254.86 774.728,1439.26 775.25,1254.37 775.772,1439.54 776.294,1255.07 776.816,1439.18 777.338,1254.29 777.86,1439.67 778.382,1255.28 778.904,1439.37 779.426,1254.59 779.948,1439.33 780.47,1254.61 780.992,1439.16 781.514,1254.39 782.036,1439.39 782.558,1254.75 783.08,1439.34 783.602,1254.55 784.124,1439.58 784.646,1255.14 785.168,1439.14 785.69,1254.05 786.212,1439.59 786.734,1255.17 787.256,1439.09 787.778,1254.17 788.3,1439.44 788.822,1254.97 789.344,1439.16 789.866,1254.27 790.388,1439.67 790.91,1255.3 791.432,1439.41 791.954,1254.67 792.477,1438.91 792.999,1253.83 793.521,1439.93 794.043,1255.99 794.565,1439.23 795.087,1254.09 795.609,1439.73 796.131,1255.42 796.653,1439.29 797.175,1254.33 797.697,1439.58 798.219,1255.29 798.741,1439.09 799.263,1253.94 799.785,1439.51 800.307,1255.16 800.829,1439.1 801.351,1254.18 801.873,1439.25 802.395,1254.56 802.917,1439.42 803.439,1254.91 803.961,1439.18 804.483,1254.33 805.005,1439.35 805.527,1254.73 806.049,1439.63 806.571,1255.16 807.093,1439.27 807.615,1254.36 808.137,1439.55 808.659,1255.03 809.181,1439.15 809.703,1254.2 810.225,1439.45 810.747,1254.89 811.269,1439.44 811.791,1254.76 812.313,1439.27 812.835,1254.52 813.357,1439.59 813.879,1255.15 814.401,1439.32 814.923,1254.45 815.445,1439.47 815.967,1254.9 816.489,1439.23 817.011,1254.42 817.533,1439.49 818.055,1254.87 818.577,1439.45 819.099,1254.76 819.621,1439.33 820.143,1254.6 820.665,1439.32 821.187,1254.66 821.709,1439.21 822.231,1254.4 822.753,1439.52 823.275,1255.07 823.797,1439.38 824.319,1254.64 824.841,1439.42 825.363,1254.76 825.885,1439.4 826.407,1254.86 826.929,1439.14 827.451,1254.29 827.973,1439.62 828.495,1255.21 829.017,1439.16 829.539,1254.12 830.061,1439.66 830.583,1255.34 831.105,1439.16 831.627,1254.17 832.149,1439.24 832.671,1254.61 833.193,1439.41 833.715,1254.86 834.237,1439.12 834.759,1254.09 835.281,1439.81 835.803,1255.67 836.325,1439.27 836.847,1254.25 837.369,1439.56 837.891,1255.2 838.413,1439.3 838.935,1254.44 839.457,1439.56 839.979,1255.14 840.501,1439.28 841.023,1254.35 841.545,1439.5 842.067,1254.97 842.589,1439.32 843.111,1254.52 843.633,1439.6 844.155,1255.14 844.677,1439.39 845.199,1254.76 845.721,1439.61 846.243,1255.19 846.765,1439.24 847.287,1254.42 847.809,1439.38 848.331,1254.75 848.853,1439.39 849.375,1254.63 849.897,1439.43 850.419,1254.73 850.941,1439.55 851.463,1254.92 851.985,1439.24 852.507,1254.35 853.029,1439.65 853.551,1255.25 854.073,1439.16 854.595,1254.02 855.117,1439.58 855.639,1255.26 856.161,1439.03 856.683,1253.95 857.205,1439.47 857.727,1254.98 858.249,1439.57 858.771,1254.94 859.293,1439.62 859.815,1255.11 860.337,1439.43 860.859,1254.65 861.381,1439.54 861.903,1254.81 862.425,1439.5 862.947,1254.95 863.469,1439.38 863.991,1254.61 864.513,1439.32 865.036,1254.61 865.558,1439.33 866.08,1254.6 866.602,1439.31 867.124,1254.66 867.646,1439.41 868.168,1254.74 868.69,1439.64 869.212,1255.11 869.734,1439.39 870.256,1254.55 870.778,1439.38 871.3,1254.78 871.822,1438.98 872.344,1253.91 872.866,1439.52 873.388,1255.15 873.91,1439.05 874.432,1253.8 874.954,1439.69 875.476,1255.54 875.998,1439.25 876.52,1254.29 877.042,1439.42 877.564,1254.82 878.086,1439.35 878.608,1254.66 879.13,1439.14 879.652,1254.37 880.174,1439.32 880.696,1254.49 881.218,1439.37 881.74,1254.66 882.262,1439.5 882.784,1254.96 883.306,1439.27 883.828,1254.42 884.35,1439.13 884.872,1254.29 885.394,1439.6 885.916,1255.25 886.438,1439.3 886.96,1254.36 887.482,1439.4 888.004,1254.75 888.526,1439.26 889.048,1254.58 889.57,1439.49 890.092,1254.86 890.614,1439.32 891.136,1254.45 891.658,1439.48 892.18,1254.84 892.702,1439.33 893.224,1254.72 893.746,1439.47 894.268,1254.96 894.79,1439.27 895.312,1254.43 895.834,1439.57 896.356,1255.12 896.878,1439.37 897.4,1254.61 897.922,1439.47 898.444,1254.89 898.966,1439.35 899.488,1254.54 900.01,1439.53 900.532,1255.06 901.054,1439.23 901.576,1254.12 902.098,1439.43 902.62,1254.84 903.142,1439.16 903.664,1254.26 904.186,1439.51 904.708,1255.09 905.23,1439.33 905.752,1254.51 906.274,1439.3 906.796,1254.6 907.318,1439.53 907.84,1254.96 908.362,1439.22 908.884,1254.37 909.406,1439.4 909.928,1254.77 910.45,1439.12 910.972,1254.25 911.494,1439.61 912.016,1255.3 912.538,1439.09 913.06,1253.95 913.582,1439.74 914.104,1255.65 914.626,1439.14 915.148,1253.94 915.67,1439.47 916.192,1255.03 916.714,1439.26 917.236,1254.36 917.758,1439.68 918.28,1255.41 918.802,1439.29 919.324,1254.38 919.846,1439.28 920.368,1254.63 920.89,1439.46 921.412,1254.9 921.934,1439.1 922.456,1254.07 922.978,1439.71 923.5,1255.54 924.022,1439.21 924.544,1254.16 925.066,1439.5 925.588,1255.08 926.11,1439.38 926.632,1254.64 927.154,1439.65 927.676,1255.26 928.198,1439.33 928.72,1254.48 929.242,1439.71 929.764,1255.35 930.286,1438.96 930.808,1253.79 931.33,1439.76 931.852,1255.57 932.374,1439.14 932.896,1254.08 933.418,1439.52 933.94,1255.11 934.462,1439.47 934.984,1254.78 935.506,1439.33 936.028,1254.53 936.55,1439.34 937.072,1254.68 937.594,1439.55 938.117,1255 938.639,1439.26 939.161,1254.39 939.683,1439.44 940.205,1254.85 940.727,1439.42 941.249,1254.59 941.771,1439.27 942.293,1254.57 942.815,1439.29 943.337,1254.54 943.859,1439.39 944.381,1254.77 944.903,1439.23 945.425,1254.38 945.947,1439.52 946.469,1255.15 946.991,1439.37 947.513,1254.55 948.035,1439.49 948.557,1254.91 949.079,1439.34 949.601,1254.53 950.123,1439.58 950.645,1255.15 951.167,1439.47 951.689,1254.73 952.211,1439.09 952.733,1254.17 953.255,1439.79 953.777,1255.62 954.299,1439.04 954.821,1253.8 955.343,1439.65 955.865,1255.42 956.387,1439.19 956.909,1254.15 957.431,1439.6 957.953,1255.23 958.475,1439.24 958.997,1254.35 959.519,1439.42 960.041,1254.69 960.563,1439.4 961.085,1254.73 961.607,1439.33 962.129,1254.63 962.651,1439.56 963.173,1255.08 963.695,1439.33 964.217,1254.53 964.739,1439.25 965.261,1254.49 965.783,1439.56 966.305,1255.06 966.827,1439.26 967.349,1254.29 967.871,1439.52 968.393,1255 968.915,1439.41 969.437,1254.69 969.959,1439.25 970.481,1254.47 971.003,1439.22 971.525,1254.42 972.047,1439.31 972.569,1254.75 973.091,1439.08 973.613,1254.18 974.135,1439.36 974.657,1254.71 975.179,1439.7 975.701,1255.21 976.223,1439.01 976.745,1253.83 977.267,1439.5 977.789,1255.09 978.311,1439.28 978.833,1254.43 979.355,1439.63 979.877,1255.18 980.399,1439.36 980.921,1254.5 981.443,1439.45 981.965,1254.89 982.487,1439.4 983.009,1254.63 983.531,1439.51 984.053,1254.98 984.575,1439.37 985.097,1254.6 985.619,1439.13 986.141,1254.24 986.663,1439.71 987.185,1255.5 987.707,1439.08 988.229,1253.89 988.751,1439.38 989.273,1254.88 989.795,1439.36 990.317,1254.53 990.839,1439.35 991.361,1254.66 991.883,1439.2 992.405,1254.44 992.927,1439.37 993.449,1254.73 993.971,1439.29 994.493,1254.51 995.015,1439.36 995.537,1254.64 996.059,1439.45 996.581,1254.89 997.103,1439.39 997.625,1254.7 998.147,1439.39 998.669,1254.75 999.191,1439.58 999.713,1255.03 1000.24,1439.4 1000.76,1254.66 1001.28,1439.47 1001.8,1254.79 1002.32,1439.12 1002.85,1254.22 1003.37,1439.59 1003.89,1255.14 1004.41,1439.29 1004.93,1254.3 1005.46,1439.26 1005.98,1254.57 1006.5,1439.34 1007.02,1254.61 1007.54,1439.32 1008.07,1254.6 1008.59,1439.42 1009.11,1254.84 1009.63,1439.25 1010.15,1254.47 1010.68,1439.17 1011.2,1254.34 1011.72,1439.4 1012.24,1254.83 1012.76,1439.47 1013.29,1254.76 1013.81,1439.39 1014.33,1254.63 1014.85,1439.33 1015.37,1254.55 1015.9,1439.38 1016.42,1254.78 1016.94,1439.11 1017.46,1254.27 1017.98,1439.33 1018.51,1254.66 1019.03,1439.5 1019.55,1254.95 1020.07,1439.23 1020.59,1254.32 1021.12,1439.36 1021.64,1254.73 1022.16,1439.43 1022.68,1254.84 1023.2,1439.5 1023.73,1254.93 1024.25,1439.39 1024.77,1254.58 1025.29,1439.17 1025.81,1254.41 1026.34,1439.51 1026.86,1255.11 1027.38,1439.24 1027.9,1254.3 1028.42,1439.56 1028.95,1255.14 1029.47,1439.35 1029.99,1254.64 1030.51,1439.51 1031.03,1254.94 1031.56,1439.47 1032.08,1254.84 1032.6,1439.4 1033.12,1254.75 1033.64,1439.19 1034.17,1254.31 1034.69,1439.45 1035.21,1254.95 1035.73,1439.37 1036.25,1254.64 1036.78,1439.5 1037.3,1255.01 1037.82,1439.57 1038.34,1254.89 1038.86,1439.45 1039.39,1254.73 1039.91,1439.31 1040.43,1254.42 1040.95,1439.42 1041.47,1254.85 1042,1439.53 1042.52,1255.06 1043.04,1439.16 1043.56,1254.1 1044.08,1439.76 1044.61,1255.6 1045.13,1439.1 1045.65,1253.92 1046.17,1439.37 1046.69,1254.86 1047.22,1439.39 1047.74,1254.75 1048.26,1439.38 1048.78,1254.67 1049.3,1439.26 1049.83,1254.45 1050.35,1439.27 1050.87,1254.55 1051.39,1439.39 1051.91,1254.73 1052.44,1439.59 1052.96,1255.05 1053.48,1439.24 1054,1254.4 1054.52,1439.38 1055.05,1254.78 1055.57,1439.23 1056.09,1254.34 1056.61,1439.58 1057.13,1255.25 1057.66,1439.45 1058.18,1254.61 1058.7,1439.41 1059.22,1254.83 1059.74,1439.61 1060.27,1255.07 1060.79,1439.32 1061.31,1254.6 1061.83,1439.42 1062.35,1254.79 1062.88,1439.14 1063.4,1254.14 1063.92,1439.55 1064.44,1255.18 1064.96,1439.29 1065.49,1254.51 1066.01,1439.3 1066.53,1254.62 1067.05,1439.51 1067.57,1254.99 1068.1,1439.25 1068.62,1254.45 1069.14,1439.76 1069.66,1255.47 1070.18,1439.14 1070.71,1253.99 1071.23,1439.51 1071.75,1255.06 1072.27,1439.11 1072.79,1254.04 1073.32,1439.35 1073.84,1254.73 1074.36,1439.16 1074.88,1254.16 1075.4,1439.74 1075.93,1255.53 1076.45,1439.34 1076.97,1254.51 1077.49,1439.39 1078.01,1254.82 1078.54,1439.26 1079.06,1254.44 1079.58,1439.3 1080.1,1254.73 1080.62,1439.33 1081.15,1254.65 1081.67,1439.37 1082.19,1254.62 1082.71,1439.43 1083.23,1254.71 1083.76,1439.29 1084.28,1254.55 1084.8,1439.39 1085.32,1254.72 1085.84,1439.49 1086.37,1254.87 1086.89,1439.4 1087.41,1254.66 1087.93,1439.45 1088.45,1254.88 1088.98,1439.25 1089.5,1254.4 1090.02,1439.44 1090.54,1254.82 1091.06,1439.27 1091.59,1254.43 1092.11,1439.77 1092.63,1255.47 1093.15,1439.14 1093.67,1253.97 1094.2,1439.48 1094.72,1254.92 1095.24,1439.52 1095.76,1254.94 1096.28,1439.44 1096.81,1254.65 1097.33,1439.46 1097.85,1254.87 1098.37,1439.49 1098.89,1254.89 1099.42,1439.24 1099.94,1254.39 1100.46,1439.72 1100.98,1255.48 1101.5,1439.18 1102.03,1254.08 1102.55,1439.32 1103.07,1254.77 1103.59,1439.38 1104.11,1254.67 1104.64,1439.4 1105.16,1254.79 1105.68,1439.49 1106.2,1254.76 1106.72,1439.29 1107.25,1254.46 1107.77,1439.38 1108.29,1254.67 1108.81,1439.46 1109.33,1254.82 1109.86,1439.06 1110.38,1254.11 1110.9,1439.65 1111.42,1255.43 1111.94,1439.13 1112.47,1254.12 1112.99,1439.57 1113.51,1255.15 1114.03,1439.13 1114.55,1254.06 1115.08,1439.57 1115.6,1255.26 1116.12,1439.14 1116.64,1254.09 1117.16,1439.67 1117.69,1255.35 1118.21,1439.25 1118.73,1254.34 1119.25,1439.31 1119.77,1254.59 1120.3,1439.29 1120.82,1254.49 1121.34,1439.41 1121.86,1254.76 1122.39,1439.53 1122.91,1254.93 1123.43,1439.2 1123.95,1254.2 1124.47,1439.58 1125,1255.25 1125.52,1439.14 1126.04,1254.11 1126.56,1439.58 1127.08,1255.12 1127.61,1439.21 1128.13,1254.39 1128.65,1439.69 1129.17,1255.31 1129.69,1439.12 1130.22,1254.07 1130.74,1439.23 1131.26,1254.59 1131.78,1439.51 1132.3,1255.08 1132.83,1439.09 1133.35,1254.05 1133.87,1439.39 1134.39,1254.83 1134.91,1439.46 1135.44,1254.79 1135.96,1439.08 1136.48,1254.07 1137,1439.39 1137.52,1254.78 1138.05,1439.41 1138.57,1254.81 1139.09,1439.47 1139.61,1254.81 1140.13,1439.36 1140.66,1254.65 1141.18,1439.22 1141.7,1254.36 1142.22,1439.39 1142.74,1254.81 1143.27,1439.12 1143.79,1254.15 1144.31,1439.58 1144.83,1255.34 1145.35,1439.19 1145.88,1254.33 1146.4,1439.33 1146.92,1254.54 1147.44,1439.31 1147.96,1254.5 1148.49,1439.4 1149.01,1254.79 1149.53,1439.38 1150.05,1254.62 1150.57,1439.32 1151.1,1254.61 1151.62,1439.47 1152.14,1254.87 1152.66,1439.21 1153.18,1254.28 1153.71,1439.48 1154.23,1254.89 1154.75,1439.28 1155.27,1254.54 1155.79,1439.59 1156.32,1255.13 1156.84,1439.33 1157.36,1254.46 1157.88,1439.33 1158.4,1254.58 1158.93,1439.62 1159.45,1255.22 1159.97,1439.09 1160.49,1254.07 1161.01,1439.58 1161.54,1255.19 1162.06,1439.27 1162.58,1254.3 1163.1,1439.41 1163.62,1254.88 1164.15,1439.35 1164.67,1254.58 1165.19,1439.37 1165.71,1254.75 1166.23,1439.13 1166.76,1254.23 1167.28,1439.48 1167.8,1254.99 1168.32,1439.11 1168.84,1254.14 1169.37,1439.51 1169.89,1255.06 1170.41,1439.23 1170.93,1254.43 1171.45,1439.12 1171.98,1254.31 1172.5,1439.32 1173.02,1254.62 1173.54,1439.25 1174.06,1254.6 1174.59,1439.61 1175.11,1255.23 1175.63,1439.22 1176.15,1254.41 1176.67,1439.58 1177.2,1255.11 1177.72,1439.18 1178.24,1254.23 1178.76,1439.54 1179.28,1255.06 1179.81,1439.53 1180.33,1254.94 1180.85,1439.21 1181.37,1254.43 1181.89,1439.58 1182.42,1255.06 1182.94,1439.03 1183.46,1254.04 1183.98,1439.58 1184.5,1255.27 1185.03,1439.52 1185.55,1254.87 1186.07,1439.09 1186.59,1254.15 1187.11,1439.2 1187.64,1254.53 1188.16,1439.24 1188.68,1254.51 1189.2,1439.35 1189.72,1254.69 1190.25,1439.29 1190.77,1254.57 1191.29,1439.2 1191.81,1254.31 1192.33,1439.41 1192.86,1254.83 1193.38,1439.43 1193.9,1254.64 1194.42,1439.41 1194.94,1254.8 1195.47,1439.38 1195.99,1254.62 1196.51,1439.42 1197.03,1254.78 1197.55,1439.12 1198.08,1254.22 1198.6,1439.58 1199.12,1255.18 1199.64,1439.35 1200.16,1254.55 1200.69,1439.26 1201.21,1254.39 1201.73,1439.57 1202.25,1255.19 1202.77,1439.41 1203.3,1254.59 1203.82,1439.37 1204.34,1254.74 1204.86,1439.29 1205.38,1254.5 1205.91,1439.3 1206.43,1254.62 1206.95,1439.57 1207.47,1255.05 1207.99,1439.32 1208.52,1254.36 1209.04,1439.73 1209.56,1255.47 1210.08,1439.4 1210.6,1254.41 1211.13,1439.27 1211.65,1254.63 1212.17,1439.5 1212.69,1254.73 1213.21,1439.48 1213.74,1254.91 1214.26,1439.23 1214.78,1254.38 1215.3,1439.43 1215.82,1254.93 1216.35,1439.38 1216.87,1254.66 1217.39,1439.41 1217.91,1254.73 1218.43,1439.42 1218.96,1254.85 1219.48,1439.17 1220,1254.17 1220.52,1439.55 1221.04,1255.11 1221.57,1439.29 1222.09,1254.38 1222.61,1439.14 1223.13,1254.33 1223.65,1439.52 1224.18,1254.91 1224.7,1439.11 1225.22,1254.02 1225.74,1439.61 1226.26,1255.17 1226.79,1439.21 1227.31,1254.25 1227.83,1439.57 1228.35,1255.19 1228.87,1439.3 1229.4,1254.45 1229.92,1439.43 1230.44,1254.76 1230.96,1439.32 1231.48,1254.6 1232.01,1439.33 1232.53,1254.6 1233.05,1439.44 1233.57,1254.76 1234.09,1439.33 1234.62,1254.58 1235.14,1439.43 1235.66,1254.83 1236.18,1439.36 1236.7,1254.63 1237.23,1439.34 1237.75,1254.5 1238.27,1439.38 1238.79,1254.59 1239.31,1439.5 1239.84,1254.82 1240.36,1439.33 1240.88,1254.47 1241.4,1439.46 1241.92,1254.9 1242.45,1439.19 1242.97,1254.28 1243.49,1439.57 1244.01,1255.1 1244.53,1439.22 1245.06,1254.37 1245.58,1439.48 1246.1,1255.05 1246.62,1439.3 1247.14,1254.44 1247.67,1439.38 1248.19,1254.71 1248.71,1439.21 1249.23,1254.28 1249.75,1439.38 1250.28,1254.71 1250.8,1439.33 1251.32,1254.7 1251.84,1439.48 1252.36,1254.96 1252.89,1439.09 1253.41,1254.02 1253.93,1439.45 1254.45,1254.95 1254.97,1439.09 1255.5,1254.02 1256.02,1439.15 1256.54,1254.38 1257.06,1439.34 1257.58,1254.7 1258.11,1439.29 1258.63,1254.56 1259.15,1439.54 1259.67,1255 1260.19,1439.41 1260.72,1254.68 1261.24,1439.4 1261.76,1254.75 1262.28,1439.53 1262.8,1254.95 1263.33,1439.43 1263.85,1254.68 1264.37,1439.39 1264.89,1254.79 1265.41,1439.57 1265.94,1255 1266.46,1439.27 1266.98,1254.37 1267.5,1439.3 1268.03,1254.57 1268.55,1439.25 1269.07,1254.41 1269.59,1439.78 1270.11,1255.48 1270.64,1439.18 1271.16,1254.1 1271.68,1439.41 1272.2,1254.94 1272.72,1439.32 1273.25,1254.55 1273.77,1439.29 1274.29,1254.56 1274.81,1439.39 1275.33,1254.74 1275.86,1439.43 1276.38,1254.8 1276.9,1439.45 1277.42,1254.89 1277.94,1439.19 1278.47,1254.33 1278.99,1439.21 1279.51,1254.44 1280.03,1439.42 1280.55,1254.82 1281.08,1439.51 1281.6,1254.9 1282.12,1439.14 1282.64,1254.19 1283.16,1439.62 1283.69,1255.38 1284.21,1439.31 1284.73,1254.35 1285.25,1439.59 1285.77,1255.21 1286.3,1439.27 1286.82,1254.25 1287.34,1439.62 1287.86,1255.28 1288.38,1439.14 1288.91,1254.05 1289.43,1439.52 1289.95,1255.16 1290.47,1439.12 1290.99,1254.08 1291.52,1439.72 1292.04,1255.49 1292.56,1439.32 1293.08,1254.38 1293.6,1439.49 1294.13,1254.94 1294.65,1439.37 1295.17,1254.66 1295.69,1439.4 1296.21,1254.78 1296.74,1439.38 1297.26,1254.64 1297.78,1439.31 1298.3,1254.59 1298.82,1439.45 1299.35,1254.7 1299.87,1439.56 1300.39,1254.91 1300.91,1439.39 1301.43,1254.62 1301.96,1439.61 1302.48,1255.16 1303,1439.18 1303.52,1254.14 1304.04,1439.29 1304.57,1254.75 1305.09,1439.58 1305.61,1255.02 1306.13,1439.3 1306.65,1254.48 1307.18,1439.66 1307.7,1255.24 1308.22,1439.14 1308.74,1254.13 1309.26,1439.55 1309.79,1255.19 1310.31,1439.42 1310.83,1254.56 1311.35,1439.68 1311.87,1255.28 1312.4,1439.04 1312.92,1253.88 1313.44,1439.78 1313.96,1255.62 1314.48,1438.84 1315.01,1253.46 1315.53,1439.95 1316.05,1256.05 1316.57,1438.79 1317.09,1253.12 1317.62,1439.7 1318.14,1255.66 1318.66,1439.21 1319.18,1254.21 1319.7,1439.43 1320.23,1254.95 1320.75,1439.46 1321.27,1254.87 1321.79,1439.37 1322.31,1254.51 1322.84,1439.26 1323.36,1254.45 1323.88,1439.37 1324.4,1254.7 1324.92,1439.45 1325.45,1254.8 1325.97,1439.22 1326.49,1254.37 1327.01,1439.3 1327.53,1254.57 1328.06,1439.43 1328.58,1254.83 1329.1,1439.44 1329.62,1254.88 1330.14,1439.36 1330.67,1254.51 1331.19,1439.36 1331.71,1254.62 1332.23,1439.38 1332.75,1254.65 1333.28,1439.53 1333.8,1254.84 1334.32,1439.32 1334.84,1254.47 1335.36,1439.59 1335.89,1255.25 1336.41,1439.28 1336.93,1254.42 1337.45,1439.39 1337.97,1254.72 1338.5,1439.54 1339.02,1255 1339.54,1439.4 1340.06,1254.71 1340.58,1439.08 1341.11,1254.22 1341.63,1439.49 1342.15,1254.98 1342.67,1439.33 1343.19,1254.44 1343.72,1439.63 1344.24,1255.12 1344.76,1439.09 1345.28,1254 1345.8,1439.46 1346.33,1254.94 1346.85,1439.57 1347.37,1255.02 1347.89,1439.21 1348.41,1254.25 1348.94,1439.34 1349.46,1254.65 1349.98,1439.46 1350.5,1254.85 1351.02,1439.42 1351.55,1254.62 1352.07,1439.51 1352.59,1255 1353.11,1439.26 1353.63,1254.38 1354.16,1439.62 1354.68,1255.32 1355.2,1438.99 1355.72,1253.71 1356.24,1439.79 1356.77,1255.6 1357.29,1439.24 1357.81,1254.22 1358.33,1439.69 1358.85,1255.34 1359.38,1439 1359.9,1253.91 1360.42,1439.85 1360.94,1255.87 1361.46,1439.11 1361.99,1253.93 1362.51,1439.68 1363.03,1255.36 1363.55,1439.17 1364.07,1254.08 1364.6,1439.62 1365.12,1255.3 1365.64,1439.02 1366.16,1253.92 1366.68,1439.72 1367.21,1255.51 1367.73,1438.59 1368.25,1252.91 1368.77,1439.87 1369.29,1255.99 1369.82,1439.18 1370.34,1253.99 1370.86,1439.76 1371.38,1255.49 1371.9,1439.13 1372.43,1253.99 1372.95,1439.66 1373.47,1255.3 1373.99,1439.34 1374.51,1254.38 1375.04,1439.21 1375.56,1254.32 1376.08,1439.6 1376.6,1255.21 1377.12,1439.44 1377.65,1254.73 1378.17,1439.5 1378.69,1254.85 1379.21,1439.1 1379.73,1254.18 1380.26,1439.73 1380.78,1255.54 1381.3,1438.95 1381.82,1253.75 1382.34,1439.81 1382.87,1255.76 1383.39,1439 1383.91,1253.68 1384.43,1439.75 1384.95,1255.53 1385.48,1438.98 1386,1253.66 1386.52,1439.68 1387.04,1255.58 1387.56,1439.44 1388.09,1254.6 1388.61,1439.43 1389.13,1254.76 1389.65,1439.53 1390.17,1254.92 1390.7,1439.34 1391.22,1254.52 1391.74,1439.53 1392.26,1255.09 1392.78,1439.41 1393.31,1254.5 1393.83,1439.31 1394.35,1254.61 1394.87,1439.5 1395.39,1254.78 1395.92,1439.52 1396.44,1254.95 1396.96,1439.33 1397.48,1254.52 1398,1439.55 1398.53,1255 1399.05,1439.58 1399.57,1254.84 1400.09,1439.39 1400.61,1254.76 1401.14,1439.13 1401.66,1254.22 1402.18,1439.58 1402.7,1255.2 1403.22,1439.35 1403.75,1254.52 1404.27,1439.48 1404.79,1254.72 1405.31,1439.06 1405.83,1254 1406.36,1439.59 1406.88,1255.27 1407.4,1439.38 1407.92,1254.56 1408.44,1439.5 1408.97,1254.84 1409.49,1439.42 1410.01,1254.65 1410.53,1439.56 1411.05,1255.02 1411.58,1439.35 1412.1,1254.59 1412.62,1439.36 1413.14,1254.78 1413.67,1439.35 1414.19,1254.45 1414.71,1439.61 1415.23,1255.24 1415.75,1439.1 1416.28,1254.03 1416.8,1439.63 1417.32,1255.37 1417.84,1439.11 1418.36,1254.02 1418.89,1439.84 1419.41,1255.69 1419.93,1439.11 1420.45,1253.97 1420.97,1439.56 1421.5,1255.2 1422.02,1439.33 1422.54,1254.32 1423.06,1439.36 1423.58,1254.7 1424.11,1439.44 1424.63,1254.81 1425.15,1439.46 1425.67,1254.81 1426.19,1439.21 1426.72,1254.38 1427.24,1439.63 1427.76,1255.26 1428.28,1439.09 1428.8,1254 1429.33,1439.69 1429.85,1255.47 1430.37,1439.03 1430.89,1253.84 1431.41,1439.58 1431.94,1255.37 1432.46,1439.1 1432.98,1254.04 1433.5,1439.64 1434.02,1255.28 1434.55,1439.29 1435.07,1254.34 1435.59,1439.64 1436.11,1255.31 1436.63,1438.98 1437.16,1253.76 1437.68,1439.42 1438.2,1254.99 1438.72,1439.45 1439.24,1254.84 1439.77,1439.33 1440.29,1254.45 1440.81,1439.53 1441.33,1254.93 1441.85,1439.38 1442.38,1254.63 1442.9,1439.47 1443.42,1254.84 1443.94,1439.33 1444.46,1254.7 1444.99,1439.35 1445.51,1254.61 1446.03,1439.31 1446.55,1254.66 1447.07,1439.34 1447.6,1254.75 1448.12,1439.24 1448.64,1254.36 1449.16,1439.44 1449.68,1254.9 1450.21,1439.48 1450.73,1254.9 1451.25,1439.49 1451.77,1254.83 1452.29,1439.26 1452.82,1254.42 1453.34,1439.47 1453.86,1254.95 1454.38,1439.33 1454.9,1254.53 1455.43,1439.49 1455.95,1254.95 1456.47,1439.08 1456.99,1254.06 1457.51,1439.58 1458.04,1255.21 1458.56,1439.26 1459.08,1254.3 1459.6,1439.56 1460.12,1255.12 1460.65,1439.18 1461.17,1254.23 1461.69,1439.68 1462.21,1255.34 1462.73,1439.22 1463.26,1254.21 1463.78,1439.5 1464.3,1254.96 1464.82,1439.17 1465.34,1254.27 1465.87,1439.58 1466.39,1255.08 1466.91,1439.44 1467.43,1254.7 1467.95,1439.4 1468.48,1254.7 1469,1439.29 1469.52,1254.57 1470.04,1439.54 1470.56,1254.98 1471.09,1439.42 1471.61,1254.65 1472.13,1439.41 1472.65,1254.75 1473.17,1439.46 1473.7,1254.66 1474.22,1439.45 1474.74,1254.86 1475.26,1439.16 1475.78,1254.18 1476.31,1439.49 1476.83,1255.06 1477.35,1439.18 1477.87,1254.32 1478.39,1439.52 1478.92,1254.97 1479.44,1439.32 1479.96,1254.51 1480.48,1439.45 1481,1254.86 1481.53,1439.49 1482.05,1254.92 1482.57,1439.21 1483.09,1254.17 1483.61,1439.65 1484.14,1255.31 1484.66,1439.3 1485.18,1254.5 1485.7,1439.41 1486.22,1254.74 1486.75,1439.38 1487.27,1254.68 1487.79,1439.6 1488.31,1255.1 1488.83,1439.27 1489.36,1254.49 1489.88,1439.41 1490.4,1254.76 1490.92,1439.26 1491.44,1254.59 1491.97,1439.26 1492.49,1254.62 1493.01,1439.48 1493.53,1254.82 1494.05,1439.6 1494.58,1255.12 1495.1,1439.48 1495.62,1254.74 1496.14,1439.34 1496.66,1254.56 1497.19,1439.69 1497.71,1255.27 1498.23,1439.39 1498.75,1254.51 1499.27,1439.54 1499.8,1255.08 1500.32,1439.38 1500.84,1254.64 1501.36,1439.37 1501.88,1254.66 1502.41,1439.26 1502.93,1254.48 1503.45,1439.56 1503.97,1255.07 1504.49,1439.34 1505.02,1254.53 1505.54,1439.56 1506.06,1254.96 1506.58,1439.37 1507.1,1254.64 1507.63,1439.41 1508.15,1254.8 1508.67,1439.37 1509.19,1254.64 1509.71,1439.41 1510.24,1254.8 1510.76,1439.36 1511.28,1254.65 1511.8,1439.06 1512.32,1254.13 1512.85,1439.66 1513.37,1255.32 1513.89,1439.18 1514.41,1254.11 1514.93,1439.18 1515.46,1254.38 1515.98,1439.21 1516.5,1254.35 1517.02,1439.8 1517.54,1255.5 1518.07,1439.25 1518.59,1254.38 1519.11,1439.5 1519.63,1254.92 1520.15,1439.38 1520.68,1254.63 1521.2,1439.38 1521.72,1254.61 1522.24,1439.62 1522.76,1255.17 1523.29,1439.26 1523.81,1254.34 1524.33,1439.68 1524.85,1255.41 1525.37,1439.21 1525.9,1254.1 1526.42,1439.33 1526.94,1254.68 1527.46,1439.49 1527.98,1254.96 1528.51,1439.56 1529.03,1255 1529.55,1439.52 1530.07,1254.8 1530.59,1439.46 1531.12,1254.86 1531.64,1439.4 1532.16,1254.7 1532.68,1439.41 1533.2,1254.68 1533.73,1439.6 1534.25,1255.08 1534.77,1439.15 1535.29,1254.12 1535.81,1439.36 1536.34,1254.82 1536.86,1439.43 1537.38,1254.65 1537.9,1439.31 1538.42,1254.58 1538.95,1439.58 1539.47,1255.09 1539.99,1439.23 1540.51,1254.35 1541.03,1439.6 1541.56,1255.15 1542.08,1439.15 1542.6,1254.28 1543.12,1439.51 1543.64,1255.06 1544.17,1439.2 1544.69,1254.25 1545.21,1439.58 1545.73,1255.13 1546.25,1439.28 1546.78,1254.33 1547.3,1439.57 1547.82,1255.02 1548.34,1439.31 1548.86,1254.44 1549.39,1439.33 1549.91,1254.6 1550.43,1439.22 1550.95,1254.45 1551.47,1439.37 1552,1254.72 1552.52,1439.43 1553.04,1254.84 1553.56,1439.31 1554.08,1254.53 1554.61,1439.38 1555.13,1254.81 1555.65,1439.52 1556.17,1254.89 1556.69,1439.4 1557.22,1254.63 1557.74,1439.31 1558.26,1254.63 1558.78,1439.37 1559.31,1254.68 1559.83,1438.92 1560.35,1253.77 1560.87,1439.72 1561.39,1255.48 1561.92,1439.12 1562.44,1254.03 1562.96,1439.55 1563.48,1255.1 1564,1438.91 1564.53,1253.57 1565.05,1439.79 1565.57,1255.61 1566.09,1438.74 1566.61,1253.28 1567.14,1439.86 1567.66,1255.9 1568.18,1439.06 1568.7,1253.78 1569.22,1439.57 1569.75,1255.21 1570.27,1439.04 1570.79,1254.02 1571.31,1439.3 1571.83,1254.67 1572.36,1439.61 1572.88,1255.09 1573.4,1439.21 1573.92,1254.12 1574.44,1439.67 1574.97,1255.31 1575.49,1439.17 1576.01,1254.18 1576.53,1439.65 1577.05,1255.28 1577.58,1439.17 1578.1,1254.22 1578.62,1439.29 1579.14,1254.64 1579.66,1439.45 1580.19,1254.9 1580.71,1439.44 1581.23,1254.74 1581.75,1439.32 1582.27,1254.65 1582.8,1439.48 1583.32,1254.78 1583.84,1439.19 1584.36,1254.23 1584.88,1439.74 1585.41,1255.4 1585.93,1439.19 1586.45,1254.2 1586.97,1439.48 1587.49,1255.05 1588.02,1439.13 1588.54,1253.93 1589.06,1439.51 1589.58,1255.15 1590.1,1439.36 1590.63,1254.58 1591.15,1439.52 1591.67,1255.03 1592.19,1439.12 1592.71,1254.02 1593.24,1439.45 1593.76,1254.92 1594.28,1439.42 1594.8,1254.79 1595.32,1439.63 1595.85,1255.07 1596.37,1439.4 1596.89,1254.56 1597.41,1439.37 1597.93,1254.79 1598.46,1439.17 1598.98,1254.27 1599.5,1439.58 1600.02,1255.08 1600.54,1439.18 1601.07,1254.31 1601.59,1439.5 1602.11,1255.06 1602.63,1439.28 1603.15,1254.51 1603.68,1439.3 1604.2,1254.6 1604.72,1439.34 1605.24,1254.58 1605.76,1439.49 1606.29,1254.84 1606.81,1439.25 1607.33,1254.46 1607.85,1439.47 1608.37,1254.89 1608.9,1439.4 1609.42,1254.62 1609.94,1439.18 1610.46,1254.3 1610.98,1439.41 1611.51,1254.84 1612.03,1439.27 1612.55,1254.37 1613.07,1439.45 1613.59,1254.83 1614.12,1439.45 1614.64,1254.83 1615.16,1439.36 1615.68,1254.63 1616.2,1439.71 1616.73,1255.35 1617.25,1439.31 1617.77,1254.39 1618.29,1439.13 1618.81,1254.37 1619.34,1439.66 1619.86,1255.17 1620.38,1439.22 1620.9,1254.23 1621.42,1439.35 1621.95,1254.67 1622.47,1439.47 1622.99,1254.76 1623.51,1439.19 1624.03,1254.29 1624.56,1439.52 1625.08,1255.01 1625.6,1439.11 1626.12,1254.09 1626.64,1439.62 1627.17,1255.26 1627.69,1439.07 1628.21,1253.79 1628.73,1439.56 1629.25,1255.21 1629.78,1439.41 1630.3,1254.54 1630.82,1439.5 1631.34,1254.87 1631.86,1439.5 1632.39,1254.86 1632.91,1439.4 1633.43,1254.69 1633.95,1439.4 1634.47,1254.74 1635,1439.69 1635.52,1255.19 1636.04,1439.41 1636.56,1254.59 1637.08,1439.42 1637.61,1254.83 1638.13,1439.46 1638.65,1254.8 1639.17,1439.22 1639.69,1254.35 1640.22,1439.49 1640.74,1255 1641.26,1439.46 1641.78,1254.75 1642.3,1439.39 1642.83,1254.66 1643.35,1439.61 1643.87,1255.09 1644.39,1439.23 1644.91,1254.37 1645.44,1439.15 1645.96,1254.33 1646.48,1439.55 1647,1255.09 1647.52,1439.21 1648.05,1254.14 1648.57,1439.46 1649.09,1254.94 1649.61,1439.24 1650.13,1254.32 1650.66,1439.31 1651.18,1254.63 1651.7,1438.84 1652.22,1253.6 1652.74,1439.65 1653.27,1255.52 1653.79,1439.2 1654.31,1254.23 1654.83,1439.63 1655.35,1255.24 1655.88,1439.24 1656.4,1254.32 1656.92,1439.51 1657.44,1254.98 1657.96,1439.14 1658.49,1254.05 1659.01,1439.43 1659.53,1254.95 1660.05,1439.43 1660.57,1254.68 1661.1,1439.46 1661.62,1254.79 1662.14,1439.48 1662.66,1254.82 1663.18,1438.96 1663.71,1253.91 1664.23,1439.72 1664.75,1255.52 1665.27,1439.26 1665.79,1254.28 1666.32,1439.57 1666.84,1255.13 1667.36,1439.41 1667.88,1254.43 1668.4,1439.48 1668.93,1254.92 1669.45,1439.47 1669.97,1254.86 1670.49,1439.31 1671.01,1254.48 1671.54,1439.45 1672.06,1254.93 1672.58,1439.43 1673.1,1254.71 1673.62,1439.13 1674.15,1254.33 1674.67,1439.52 1675.19,1254.93 1675.71,1439.53 1676.23,1254.89 1676.76,1439.31 1677.28,1254.4 1677.8,1439.62 1678.32,1255.26 1678.84,1439.18 1679.37,1254.22 1679.89,1439.47 1680.41,1255.04 1680.93,1439.45 1681.45,1254.73 1681.98,1439.22 1682.5,1254.49 1683.02,1439.36 1683.54,1254.68 1684.06,1439.3 1684.59,1254.56 1685.11,1439.54 1685.63,1255 1686.15,1439.35 1686.67,1254.31 1687.2,1439.61 1687.72,1255.19 1688.24,1439.31 1688.76,1254.41 1689.28,1439.23 1689.81,1254.49 1690.33,1439.54 1690.85,1255.13 1691.37,1439.33 1691.89,1254.43 1692.42,1439.52 1692.94,1255.04 1693.46,1439.25 1693.98,1254.36 1694.5,1439.49 1695.03,1254.99 1695.55,1439.27 1696.07,1254.39 1696.59,1439.24 1697.11,1254.48 1697.64,1439.6 1698.16,1255.17 1698.68,1439.13 1699.2,1254 1699.72,1439.57 1700.25,1255.37 1700.77,1439.16 1701.29,1254.11 1701.81,1439.58 1702.33,1255.09 1702.86,1438.99 1703.38,1253.88 1703.9,1439.58 1704.42,1255.28 1704.95,1439.1 1705.47,1253.93 1705.99,1439.42 1706.51,1254.97 1707.03,1439.29 1707.56,1254.32 1708.08,1439.32 1708.6,1254.57 1709.12,1439.27 1709.64,1254.63 1710.17,1439.47 1710.69,1254.87 1711.21,1439.21 1711.73,1254.29 1712.25,1439.41 1712.78,1254.9 1713.3,1439.28 1713.82,1254.51 1714.34,1439.32 1714.86,1254.49 1715.39,1439.42 1715.91,1254.75 1716.43,1439.09 1716.95,1254.12 1717.47,1439.51 1718,1255.07 1718.52,1439.34 1719.04,1254.53 1719.56,1439.21 1720.08,1254.36 1720.61,1439.62 1721.13,1255.07 1721.65,1439.29 1722.17,1254.43 1722.69,1439.36 1723.22,1254.79 1723.74,1439.38 1724.26,1254.62 1724.78,1439.66 1725.3,1255.25 1725.83,1439.25 1726.35,1254.24 1726.87,1439.68 1727.39,1255.34 1727.91,1439.32 1728.44,1254.37 1728.96,1439.53 1729.48,1255.09 1730,1439.23 1730.52,1254.35 1731.05,1439.56 1731.57,1255.03 1732.09,1439.19 1732.61,1254.32 1733.13,1439.46 1733.66,1254.9 1734.18,1439.11 1734.7,1254.04 1735.22,1439.59 1735.74,1255.18 1736.27,1439.18 1736.79,1254.1 1737.31,1439.47 1737.83,1254.98 1738.35,1439.02 1738.88,1253.96 1739.4,1439.71 1739.92,1255.46 1740.44,1439.34 1740.96,1254.35 1741.49,1439.38 1742.01,1254.86 1742.53,1439.51 1743.05,1254.81 1743.57,1439.28 1744.1,1254.39 1744.62,1439.54 1745.14,1255.02 1745.66,1439.59 1746.18,1255.07 1746.71,1439.32 1747.23,1254.3 1747.75,1439.52 1748.27,1255 1748.79,1439.26 1749.32,1254.39 1749.84,1439.34 1750.36,1254.66 1750.88,1439.26 1751.4,1254.49 1751.93,1439.61 1752.45,1255.15 1752.97,1439.37 1753.49,1254.54 1754.01,1439.42 1754.54,1254.93 1755.06,1439.08 1755.58,1254.11 1756.1,1439.56 1756.62,1255.21 1757.15,1439.36 1757.67,1254.48 1758.19,1439.46 1758.71,1254.88 1759.23,1439.35 1759.76,1254.56 1760.28,1439.38 1760.8,1254.75 1761.32,1439.22 1761.84,1254.45 1762.37,1439.29 1762.89,1254.46 1763.41,1439.43 1763.93,1254.73 1764.45,1439.44 1764.98,1254.79 1765.5,1439.59 1766.02,1254.95 1766.54,1439.38 1767.06,1254.58 1767.59,1439.08 1768.11,1254.17 1768.63,1439.45 1769.15,1254.92 1769.67,1439.23 1770.2,1254.39 1770.72,1439.59 1771.24,1255.12 1771.76,1439.28 1772.28,1254.41 1772.81,1439.27 1773.33,1254.62 1773.85,1439.41 1774.37,1254.82 1774.89,1439.31 1775.42,1254.54 1775.94,1439.31 1776.46,1254.5 1776.98,1439.37 1777.5,1254.6 1778.03,1439.43 1778.55,1254.78 1779.07,1439.34 1779.59,1254.52 1780.11,1439.56 1780.64,1255 1781.16,1439.4 1781.68,1254.7 1782.2,1439.25 1782.72,1254.42 1783.25,1439.55 1783.77,1254.93 1784.29,1439.42 1784.81,1254.76 1785.33,1439.23 1785.86,1254.41 1786.38,1439.57 1786.9,1255.18 1787.42,1439.21 1787.94,1254.26 1788.47,1439.44 1788.99,1254.83 1789.51,1439.56 1790.03,1254.97 1790.55,1439.18 1791.08,1254.22 1791.6,1439.47 1792.12,1255.05 1792.64,1439.06 1793.16,1253.97 1793.69,1439.95 1794.21,1255.9 1794.73,1439.2 1795.25,1254.08 1795.77,1439.72 1796.3,1255.5 1796.82,1439.2 1797.34,1254.28 1797.86,1439.28 1798.38,1254.54 1798.91,1439.44 1799.43,1254.85 1799.95,1439.15 1800.47,1254.26 1800.99,1439.28 1801.52,1254.58 1802.04,1439.58 1802.56,1255.08 1803.08,1439.14 1803.6,1254.14 1804.13,1439.37 1804.65,1254.75 1805.17,1439.48 1805.69,1254.88 1806.21,1439.29 1806.74,1254.51 1807.26,1439.26 1807.78,1254.47 1808.3,1439.72 1808.82,1255.3 1809.35,1439.27 1809.87,1254.36 1810.39,1439.49 1810.91,1254.99 1811.43,1439.27 1811.96,1254.39 1812.48,1439.29 1813,1254.57 1813.52,1439.24 1814.04,1254.45 1814.57,1439.62 1815.09,1255.19 1815.61,1439.2 1816.13,1254.3 1816.65,1439.71 1817.18,1255.38 1817.7,1439.15 1818.22,1254.11 1818.74,1439.48 1819.26,1254.93 1819.79,1439.28 1820.31,1254.45 1820.83,1439.67 1821.35,1255.27 1821.87,1439.21 1822.4,1254.1 1822.92,1439.29 1823.44,1254.56 1823.96,1439.53 1824.48,1255.02 1825.01,1439.41 1825.53,1254.61 1826.05,1439.58 1826.57,1255.01 1827.09,1439.45 1827.62,1254.78 1828.14,1439.43 1828.66,1254.73 1829.18,1439.39 1829.7,1254.7 1830.23,1439.5 1830.75,1254.87 1831.27,1439.16 1831.79,1254.2 1832.31,1439.64 1832.84,1255.3 1833.36,1438.94 1833.88,1253.68 1834.4,1439.88 1834.92,1255.93 1835.45,1439.25 1835.97,1254.11 1836.49,1439.64 1837.01,1255.15 1837.53,1439.37 1838.06,1254.55 1838.58,1439.63 1839.1,1255.23 1839.62,1439.4 1840.14,1254.53 1840.67,1439.45 1841.19,1254.84 1841.71,1439.07 1842.23,1254.02 1842.75,1439.85 1843.28,1255.67 1843.8,1438.93 1844.32,1253.59 1844.84,1439.81 1845.36,1255.79 1845.89,1438.95 1846.41,1253.54 1846.93,1439.72 1847.45,1255.64 1847.97,1439.14 1848.5,1253.94 1849.02,1439.71 1849.54,1255.51 1850.06,1439.13 1850.59,1253.97 1851.11,1439.6 1851.63,1255.29 1852.15,1439.48 1852.67,1254.72 1853.2,1439.24 1853.72,1254.42 1854.24,1439.45 1854.76,1254.75 1855.28,1439.23 1855.81,1254.4 1856.33,1439.24 1856.85,1254.46 1857.37,1439.32 1857.89,1254.63 1858.42,1439.46 1858.94,1254.88 1859.46,1439.22 1859.98,1254.21 1860.5,1439.43 1861.03,1254.94 1861.55,1439.19 1862.07,1254.23 1862.59,1439.49 1863.11,1254.96 1863.64,1439.38 1864.16,1254.57 1864.68,1439.64 1865.2,1255.15 1865.72,1439.07 1866.25,1253.99 1866.77,1439.33 1867.29,1254.9 1867.81,1439.44 1868.33,1254.73 1868.86,1439.48 1869.38,1254.89 1869.9,1439.45 1870.42,1254.71 1870.94,1439.39 1871.47,1254.74 1871.99,1439.24 1872.51,1254.39 1873.03,1439.52 1873.55,1255.13 1874.08,1439.33 1874.6,1254.47 1875.12,1439.51 1875.64,1254.99 1876.16,1439.19 1876.69,1254.14 1877.21,1439.66 1877.73,1255.32 1878.25,1439.27 1878.77,1254.33 1879.3,1439.5 1879.82,1255.01 1880.34,1439.4 1880.86,1254.71 1881.38,1439.2 1881.91,1254.34 1882.43,1439.56 1882.95,1255.07 1883.47,1439.4 1883.99,1254.57 1884.52,1439.29 1885.04,1254.52 1885.56,1439.41 1886.08,1254.73 1886.6,1439.45 1887.13,1254.74 1887.65,1439.33 1888.17,1254.65 1888.69,1439.12 1889.21,1254.2 1889.74,1439.54 1890.26,1255.09 1890.78,1439.2 1891.3,1254.18 1891.82,1439.5 1892.35,1255.02 1892.87,1439.02 1893.39,1253.89 1893.91,1439.73 1894.43,1255.51 1894.96,1439.21 1895.48,1254.21 1896,1439.39 1896.52,1254.82 1897.04,1439.42 1897.57,1254.69 1898.09,1439.55 1898.61,1254.99 1899.13,1439.38 1899.65,1254.54 1900.18,1439.5 1900.7,1254.87 1901.22,1439.35 1901.74,1254.58 1902.26,1439.44 1902.79,1254.77 1903.31,1439.33 1903.83,1254.56 1904.35,1439.1 1904.87,1254.16 1905.4,1439.29 1905.92,1254.74 1906.44,1439.19 1906.96,1254.3 1907.48,1439.56 1908.01,1255.11 1908.53,1439.38 1909.05,1254.56 1909.57,1439.35 1910.09,1254.61 1910.62,1439.61 1911.14,1255.21 1911.66,1439.21 1912.18,1254.2 1912.7,1439.73 1913.23,1255.5 1913.75,1439.07 1914.27,1253.92 1914.79,1439.72 1915.31,1255.51 1915.84,1439.17 1916.36,1254.08 1916.88,1439.72 1917.4,1255.48 1917.92,1439.14 1918.45,1253.98 1918.97,1439.84 1919.49,1255.75 1920.01,1439.14 1920.53,1254.02 1921.06,1439.64 1921.58,1255.32 1922.1,1438.97 1922.62,1253.82 1923.14,1439.81 1923.67,1255.63 1924.19,1439.34 1924.71,1254.33 1925.23,1439.55 1925.75,1255.09 1926.28,1439.38 1926.8,1254.62 1927.32,1439.42 1927.84,1254.78 1928.36,1439.53 1928.89,1254.91 1929.41,1439.29 1929.93,1254.45 1930.45,1439.37 1930.97,1254.71 1931.5,1439.53 1932.02,1255.03 1932.54,1439.3 1933.06,1254.49 1933.58,1439.22 1934.11,1254.37 1934.63,1439.24 1935.15,1254.53 1935.67,1439.4 1936.19,1254.76 1936.72,1439.57 1937.24,1255.08 1937.76,1439.28 1938.28,1254.45 1938.8,1439.37 1939.33,1254.71 1939.85,1439.3 1940.37,1254.5 1940.89,1439.52 1941.41,1254.88 1941.94,1439.3 1942.46,1254.48 1942.98,1439.47 1943.5,1254.85 1944.02,1439.36 1944.55,1254.59 1945.07,1439.47 1945.59,1254.91 1946.11,1439.39 1946.63,1254.65 1947.16,1439.36 1947.68,1254.66 1948.2,1439.61 1948.72,1255.12 1949.24,1439.04 1949.77,1253.91 1950.29,1439.42 1950.81,1255.01 1951.33,1439.22 1951.85,1254.25 1952.38,1439.68 1952.9,1255.3 1953.42,1439.43 1953.94,1254.6 1954.46,1439.23 1954.99,1254.42 1955.51,1439.38 1956.03,1254.75 1956.55,1439.19 1957.07,1254.31 1957.6,1439.59 1958.12,1255.29 1958.64,1439.5 1959.16,1254.64 1959.68,1439.28 1960.21,1254.44 1960.73,1439.58 1961.25,1255.03 1961.77,1439.24 1962.29,1254.41 1962.82,1439.53 1963.34,1255.04 1963.86,1439.31 1964.38,1254.42 1964.9,1439.73 1965.43,1255.35 1965.95,1439.22 1966.47,1254.18 1966.99,1439.46 1967.51,1254.9 1968.04,1439.49 1968.56,1254.85 1969.08,1439.4 1969.6,1254.69 1970.12,1439.17 1970.65,1254.21 1971.17,1439.54 1971.69,1255.08 1972.21,1439.35 1972.73,1254.47 1973.26,1439.38 1973.78,1254.65 1974.3,1439.07 1974.82,1254.11 1975.34,1439.66 1975.87,1255.38 1976.39,1439.16 1976.91,1254.1 1977.43,1439.58 1977.95,1255.14 1978.48,1439.52 1979,1254.84 1979.52,1439.26 1980.04,1254.42 1980.56,1439.39 1981.09,1254.69 1981.61,1439.31 1982.13,1254.53 1982.65,1439.45 1983.17,1254.83 1983.7,1439.46 1984.22,1254.79 1984.74,1439.51 1985.26,1254.96 1985.78,1439.28 1986.31,1254.4 1986.83,1439.39 1987.35,1254.75 1987.87,1439.38 1988.39,1254.7 1988.92,1439.64 1989.44,1255.18 1989.96,1439.26 1990.48,1254.37 1991,1439.81 1991.53,1255.45 1992.05,1439.09 1992.57,1253.95 1993.09,1439.67 1993.61,1255.34 1994.14,1439.22 1994.66,1254.19 1995.18,1439.42 1995.7,1255.01 1996.23,1439.16 1996.75,1254.2 1997.27,1439.79 1997.79,1255.56 1998.31,1438.8 1998.84,1253.46 1999.36,1439.78 1999.88,1255.85 2000.4,1439.11 2000.92,1253.95 2001.45,1439.52 2001.97,1255.08 2002.49,1439.38 2003.01,1254.62 2003.53,1439.42 2004.06,1254.79 2004.58,1439.33 2005.1,1254.53 2005.62,1439.59 2006.14,1255.13 2006.67,1439.12 2007.19,1254.13 2007.71,1439.61 2008.23,1255.24 2008.75,1439.29 2009.28,1254.39 2009.8,1439.58 2010.32,1255.16 2010.84,1439.04 2011.36,1253.84 2011.89,1439.49 2012.41,1255.11 2012.93,1438.88 2013.45,1253.68 2013.97,1439.7 2014.5,1255.45 2015.02,1439.39 2015.54,1254.46 2016.06,1439.41 2016.58,1254.85 2017.11,1439.29 2017.63,1254.59 2018.15,1439.53 2018.67,1254.96 2019.19,1439.51 2019.72,1254.91 2020.24,1439.2 2020.76,1254.22 2021.28,1439.62 2021.8,1255.34 2022.33,1439.27 2022.85,1254.28 2023.37,1439.47 2023.89,1254.94 2024.41,1439.37 2024.94,1254.65 2025.46,1439.63 2025.98,1255.05 2026.5,1439.45 2027.02,1254.69 2027.55,1439.51 2028.07,1254.88 2028.59,1439.19 2029.11,1254.33 2029.63,1439.26 2030.16,1254.52 2030.68,1439.4 2031.2,1254.77 2031.72,1439.33 2032.24,1254.56 2032.77,1439.3 2033.29,1254.53 2033.81,1439.46 2034.33,1254.8 2034.85,1439.22 2035.38,1254.38 2035.9,1439.43 2036.42,1254.91 2036.94,1439.41 2037.46,1254.84 2037.99,1439.17 2038.51,1254.19 2039.03,1439.4 2039.55,1254.81 2040.07,1439.34 2040.6,1254.45 2041.12,1439.61 2041.64,1255.22 2042.16,1439.44 2042.68,1254.73 2043.21,1439.46 2043.73,1254.69 2044.25,1439.45 2044.77,1254.83 2045.29,1439.46 2045.82,1254.8 2046.34,1439.52 2046.86,1254.89 2047.38,1439.44 2047.9,1254.75 2048.43,1439.39 2048.95,1254.65 2049.47,1439.32 2049.99,1254.53 2050.51,1439.6 2051.04,1255.12 2051.56,1439.49 2052.08,1254.7 2052.6,1439.35 2053.12,1254.6 2053.65,1439.23 2054.17,1254.4 2054.69,1439.59 2055.21,1255.11 2055.73,1439.34 2056.26,1254.44 2056.78,1439.41 2057.3,1254.9 2057.82,1439.3 2058.34,1254.44 2058.87,1439.47 2059.39,1254.91 2059.91,1439.19 2060.43,1254.28 2060.95,1439.71 2061.48,1255.41 2062,1439.44 2062.52,1254.62 2063.04,1439.58 2063.56,1255.02 2064.09,1439.36 2064.61,1254.53 2065.13,1439.51 2065.65,1254.89 2066.17,1439.53 2066.7,1255 2067.22,1439.18 2067.74,1254.13 2068.26,1439.61 2068.78,1255.24 2069.31,1439.18 2069.83,1254.28 2070.35,1439.42 2070.87,1254.82 2071.39,1439.46 2071.92,1254.79 2072.44,1439.37 2072.96,1254.63 2073.48,1439.32 2074,1254.57 2074.53,1439.28 2075.05,1254.57 2075.57,1439.52 2076.09,1255.04 2076.61,1439.06 2077.14,1253.96 2077.66,1439.71 2078.18,1255.44 2078.7,1439.24 2079.22,1254.22 2079.75,1439.5 2080.27,1254.95 2080.79,1439.44 2081.31,1254.66 2081.83,1439.55 2082.36,1255.03 2082.88,1439.31 2083.4,1254.45 2083.92,1439.39 2084.44,1254.64 2084.97,1439.33 2085.49,1254.5 2086.01,1439.5 2086.53,1254.99 2087.05,1439.36 2087.58,1254.6 2088.1,1439.54 2088.62,1254.92 2089.14,1439.24 2089.66,1254.35 2090.19,1439.51 2090.71,1254.96 2091.23,1439.07 2091.75,1254.07 2092.27,1439.42 2092.8,1254.97 2093.32,1439.33 2093.84,1254.44 2094.36,1439.23 2094.88,1254.43 2095.41,1439.27 2095.93,1254.57 2096.45,1439.29 2096.97,1254.53 2097.49,1439.6 2098.02,1255.09 2098.54,1439.35 2099.06,1254.45 2099.58,1439.56 2100.1,1255.09 2100.63,1439.39 2101.15,1254.58 2101.67,1439.68 2102.19,1255.27 2102.71,1438.73 2103.24,1253.4 2103.76,1439.92 2104.28,1256 2104.8,1439.33 2105.32,1254.22 2105.85,1439.54 2106.37,1255.07 2106.89,1439.45 2107.41,1254.68 2107.93,1439.36 2108.46,1254.63 2108.98,1439.16 2109.5,1254.36 2110.02,1439.31 2110.54,1254.52 2111.07,1439.52 2111.59,1254.86 2112.11,1439.51 2112.63,1254.84 2113.15,1439.17 2113.68,1254.2 2114.2,1439.59 2114.72,1255.19 2115.24,1439.27 2115.76,1254.3 2116.29,1439.66 2116.81,1255.31 2117.33,1439.09 2117.85,1253.9 2118.37,1439.63 2118.9,1255.32 2119.42,1439.06 2119.94,1254 2120.46,1439.85 2120.98,1255.68 2121.51,1438.97 2122.03,1253.69 2122.55,1439.5 2123.07,1255.09 2123.59,1439.19 2124.12,1254.21 2124.64,1439.57 2125.16,1255.24 2125.68,1439.25 2126.2,1254.26 2126.73,1439.49 2127.25,1254.89 2127.77,1439.1 2128.29,1254.09 2128.81,1439.53 2129.34,1255.08 2129.86,1439.32 2130.38,1254.6 2130.9,1439.57 2131.42,1255.08 2131.95,1439.22 2132.47,1254.4 2132.99,1439.67 2133.51,1255.35 2134.03,1439.36 2134.56,1254.49 2135.08,1439.5 2135.6,1254.99 2136.12,1439.21 2136.64,1254.35 2137.17,1439.17 2137.69,1254.26 2138.21,1439.48 2138.73,1254.91 2139.25,1439.14 2139.78,1254.17 2140.3,1439.7 2140.82,1255.38 2141.34,1439.29 2141.87,1254.44 2142.39,1439.63 2142.91,1255.13 2143.43,1439.33 2143.95,1254.47 2144.48,1439.13 2145,1254.18 2145.52,1439.65 2146.04,1255.29 2146.56,1439.07 2147.09,1254.02 2147.61,1439.64 2148.13,1255.34 2148.65,1439.16 2149.17,1254.17 2149.7,1439.39 2150.22,1254.88 2150.74,1439.3 2151.26,1254.46 2151.78,1439.64 2152.31,1255.36 2152.83,1439.26 2153.35,1254.29 2153.87,1439.4 2154.39,1254.92 2154.92,1439.33 2155.44,1254.57 2155.96,1439.35 2156.48,1254.57 2157,1439.35 2157.53,1254.57 2158.05,1439.49 2158.57,1254.87 2159.09,1439.44 2159.61,1254.78 2160.14,1439.09 2160.66,1254.07 2161.18,1439.52 2161.7,1255.14 2162.22,1439.14 2162.75,1254.05 2163.27,1439.65 2163.79,1255.26 2164.31,1439.29 2164.83,1254.38 2165.36,1439.57 2165.88,1254.93 2166.4,1439.44 2166.92,1254.7 2167.44,1439.54 2167.97,1255 2168.49,1439.31 2169.01,1254.5 2169.53,1439.41 2170.05,1254.76 2170.58,1439.29 2171.1,1254.46 2171.62,1439.42 2172.14,1254.8 2172.66,1439.21 2173.19,1254.4 2173.71,1439.52 2174.23,1255.08 2174.75,1439.02 2175.27,1253.76 2175.8,1439.96 2176.32,1255.98 2176.84,1439.03 2177.36,1253.74 2177.88,1439.78 2178.41,1255.6 2178.93,1439.06 2179.45,1253.76 2179.97,1439.57 2180.49,1255.24 2181.02,1439.11 2181.54,1253.96 2182.06,1439.61 2182.58,1255.27 2183.1,1439.33 2183.63,1254.47 2184.15,1439.26 2184.67,1254.55 2185.19,1439.59 2185.71,1255.11 2186.24,1439.43 2186.76,1254.67 2187.28,1439.31 2187.8,1254.55 2188.32,1439.34 2188.85,1254.68 2189.37,1439.47 2189.89,1254.74 2190.41,1439.55 2190.93,1254.89 2191.46,1439.4 2191.98,1254.63 2192.5,1439.21 2193.02,1254.46 2193.54,1439.51 2194.07,1255.01 2194.59,1439.26 2195.11,1254.41 2195.63,1439.59 2196.15,1255.08 2196.68,1439.3 2197.2,1254.37 2197.72,1439.21 2198.24,1254.37 2198.76,1439.65 2199.29,1255.22 2199.81,1439.11 2200.33,1254.02 2200.85,1439.58 2201.37,1255.26 2201.9,1439.28 2202.42,1254.4 2202.94,1439.53 2203.46,1255.07 2203.98,1439.15 2204.51,1254.13 2205.03,1439.76 2205.55,1255.52 2206.07,1439.07 2206.59,1253.9 2207.12,1439.48 2207.64,1255.05 2208.16,1439.31 2208.68,1254.42 2209.2,1439.54 2209.73,1254.98 2210.25,1439.19 2210.77,1254.15 2211.29,1439.47 2211.81,1254.9 2212.34,1439.25 2212.86,1254.34 2213.38,1439.61 2213.9,1255.13 2214.42,1439.14 2214.95,1254.07 2215.47,1439.69 2215.99,1255.32 2216.51,1438.92 2217.03,1253.71 2217.56,1439.79 2218.08,1255.63 2218.6,1439.25 2219.12,1254.11 2219.64,1439.67 2220.17,1255.31 2220.69,1439.24 2221.21,1254.18 2221.73,1439.55 2222.25,1255.08 2222.78,1439.4 2223.3,1254.54 2223.82,1439.56 2224.34,1254.96 2224.86,1439.3 2225.39,1254.33 2225.91,1439.6 2226.43,1255.18 2226.95,1439.26 2227.47,1254.35 2228,1439.41 2228.52,1254.76 2229.04,1439.21 2229.56,1254.2 2230.08,1439.73 2230.61,1255.51 2231.13,1439.07 2231.65,1253.88 2232.17,1439.44 2232.69,1254.98 2233.22,1439.33 2233.74,1254.44 2234.26,1439.33 2234.78,1254.6 2235.3,1439.37 2235.83,1254.73 2236.35,1439.29 2236.87,1254.5 2237.39,1439.39 2237.91,1254.84 2238.44,1439.36 2238.96,1254.6 2239.48,1439.43 2240,1254.76 2240.52,1439.44 2241.05,1254.7 2241.57,1439.5 2242.09,1254.86 2242.61,1439.35 2243.13,1254.6 2243.66,1439.39 2244.18,1254.66 2244.7,1439.65 2245.22,1255.22 2245.74,1439.31 2246.27,1254.38 2246.79,1439.43 2247.31,1254.89 2247.83,1439.22 2248.35,1254.21 2248.88,1439.6 2249.4,1255.14 2249.92,1439.19 2250.44,1254.1 2250.96,1439.56 2251.49,1255.21 2252.01,1439.41 2252.53,1254.56 2253.05,1439.43 2253.57,1254.84 2254.1,1439.16 2254.62,1254.23 2255.14,1439.39 2255.66,1254.79 2256.18,1439.23 2256.71,1254.35 2257.23,1439.69 2257.75,1255.37 2258.27,1439.31 2258.79,1254.38 2259.32,1439.4 2259.84,1254.73 2260.36,1439.44 2260.88,1254.79 2261.4,1439.44 2261.93,1254.65 2262.45,1439.4 2262.97,1254.8 2263.49,1439.18 2264.01,1254.25 2264.54,1439.48 2265.06,1254.94 2265.58,1439.47 2266.1,1254.83 2266.62,1439.27 2267.15,1254.41 2267.67,1439.38 2268.19,1254.74 2268.71,1439.33 2269.23,1254.62 2269.76,1439.56 2270.28,1255.07 2270.8,1439.41 2271.32,1254.54 2271.84,1439.4 2272.37,1254.69 2272.89,1439.41 2273.41,1254.67 2273.93,1439.49 2274.45,1254.67 2274.98,1439.57 2275.5,1255.23 2276.02,1439.11 2276.54,1253.97 2277.06,1439.5 2277.59,1255.12 2278.11,1439.42 2278.63,1254.72 2279.15,1439.49 2279.67,1254.89 2280.2,1439.26 2280.72,1254.29 2281.24,1439.57 2281.76,1255.1 2282.28,1439.37 2282.81,1254.62 2283.33,1439.52 2283.85,1254.97 2284.37,1439.36 2284.89,1254.64 2285.42,1439.47 2285.94,1254.84 2286.46,1439.31 2286.98,1254.53 2287.51,1439.41 2288.03,1254.69 2288.55,1439.41 2289.07,1254.69 2289.59,1439.36 2290.12,1254.59 "/>
<path clip-path="url(#clip370)" d="M2005.22 198.898 L2278.98 198.898 L2278.98 95.2176 L2005.22 95.2176  Z" fill="#ffffff" fill-rule="evenodd" fill-opacity="1"/>
<polyline clip-path="url(#clip370)" style="stroke:#000000; stroke-linecap:round; stroke-linejoin:round; stroke-width:4; stroke-opacity:1; fill:none" points="2005.22,198.898 2278.98,198.898 2278.98,95.2176 2005.22,95.2176 2005.22,198.898 "/>
<polyline clip-path="url(#clip370)" style="stroke:#009af9; stroke-linecap:round; stroke-linejoin:round; stroke-width:4; stroke-opacity:1; fill:none" points="2029.81,147.058 2177.36,147.058 "/>
<path clip-path="url(#clip370)" d="M2215.8 166.745 Q2213.99 171.375 2212.28 172.787 Q2210.57 174.199 2207.7 174.199 L2204.29 174.199 L2204.29 170.634 L2206.79 170.634 Q2208.55 170.634 2209.53 169.8 Q2210.5 168.967 2211.68 165.865 L2212.44 163.921 L2201.96 138.412 L2206.47 138.412 L2214.57 158.689 L2222.67 138.412 L2227.19 138.412 L2215.8 166.745 Z" fill="#000000" fill-rule="nonzero" fill-opacity="1" /><path clip-path="url(#clip370)" d="M2234.48 160.402 L2242.12 160.402 L2242.12 134.037 L2233.81 135.703 L2233.81 131.444 L2242.07 129.778 L2246.75 129.778 L2246.75 160.402 L2254.39 160.402 L2254.39 164.338 L2234.48 164.338 L2234.48 160.402 Z" fill="#000000" fill-rule="nonzero" fill-opacity="1" /></svg>
