<?xml version="1.0" encoding="utf-8"?>
<svg xmlns="http://www.w3.org/2000/svg" xmlns:xlink="http://www.w3.org/1999/xlink" width="600" height="400" viewBox="0 0 2400 1600">
<defs>
  <clipPath id="clip340">
    <rect x="0" y="0" width="2400" height="1600"/>
  </clipPath>
</defs>
<path clip-path="url(#clip340)" d="M0 1600 L2400 1600 L2400 0 L0 0  Z" fill="#ffffff" fill-rule="evenodd" fill-opacity="1"/>
<defs>
  <clipPath id="clip341">
    <rect x="480" y="0" width="1681" height="1600"/>
  </clipPath>
</defs>
<path clip-path="url(#clip340)" d="M155.765 1486.45 L2352.76 1486.45 L2352.76 47.2441 L155.765 47.2441  Z" fill="#ffffff" fill-rule="evenodd" fill-opacity="1"/>
<defs>
  <clipPath id="clip342">
    <rect x="155" y="47" width="2198" height="1440"/>
  </clipPath>
</defs>
<polyline clip-path="url(#clip342)" style="stroke:#000000; stroke-linecap:round; stroke-linejoin:round; stroke-width:2; stroke-opacity:0.1; fill:none" points="217.944,1486.45 217.944,47.2441 "/>
<polyline clip-path="url(#clip342)" style="stroke:#000000; stroke-linecap:round; stroke-linejoin:round; stroke-width:2; stroke-opacity:0.1; fill:none" points="736.102,1486.45 736.102,47.2441 "/>
<polyline clip-path="url(#clip342)" style="stroke:#000000; stroke-linecap:round; stroke-linejoin:round; stroke-width:2; stroke-opacity:0.1; fill:none" points="1254.26,1486.45 1254.26,47.2441 "/>
<polyline clip-path="url(#clip342)" style="stroke:#000000; stroke-linecap:round; stroke-linejoin:round; stroke-width:2; stroke-opacity:0.1; fill:none" points="1772.42,1486.45 1772.42,47.2441 "/>
<polyline clip-path="url(#clip342)" style="stroke:#000000; stroke-linecap:round; stroke-linejoin:round; stroke-width:2; stroke-opacity:0.1; fill:none" points="2290.58,1486.45 2290.58,47.2441 "/>
<polyline clip-path="url(#clip340)" style="stroke:#000000; stroke-linecap:round; stroke-linejoin:round; stroke-width:4; stroke-opacity:1; fill:none" points="155.765,1486.45 2352.76,1486.45 "/>
<polyline clip-path="url(#clip340)" style="stroke:#000000; stroke-linecap:round; stroke-linejoin:round; stroke-width:4; stroke-opacity:1; fill:none" points="217.944,1486.45 217.944,1467.55 "/>
<polyline clip-path="url(#clip340)" style="stroke:#000000; stroke-linecap:round; stroke-linejoin:round; stroke-width:4; stroke-opacity:1; fill:none" points="736.102,1486.45 736.102,1467.55 "/>
<polyline clip-path="url(#clip340)" style="stroke:#000000; stroke-linecap:round; stroke-linejoin:round; stroke-width:4; stroke-opacity:1; fill:none" points="1254.26,1486.45 1254.26,1467.55 "/>
<polyline clip-path="url(#clip340)" style="stroke:#000000; stroke-linecap:round; stroke-linejoin:round; stroke-width:4; stroke-opacity:1; fill:none" points="1772.42,1486.45 1772.42,1467.55 "/>
<polyline clip-path="url(#clip340)" style="stroke:#000000; stroke-linecap:round; stroke-linejoin:round; stroke-width:4; stroke-opacity:1; fill:none" points="2290.58,1486.45 2290.58,1467.55 "/>
<path clip-path="url(#clip340)" d="M217.944 1517.37 Q214.333 1517.37 212.504 1520.93 Q210.699 1524.47 210.699 1531.6 Q210.699 1538.71 212.504 1542.27 Q214.333 1545.82 217.944 1545.82 Q221.578 1545.82 223.384 1542.27 Q225.212 1538.71 225.212 1531.6 Q225.212 1524.47 223.384 1520.93 Q221.578 1517.37 217.944 1517.37 M217.944 1513.66 Q223.754 1513.66 226.81 1518.27 Q229.888 1522.85 229.888 1531.6 Q229.888 1540.33 226.81 1544.94 Q223.754 1549.52 217.944 1549.52 Q212.134 1549.52 209.055 1544.94 Q206 1540.33 206 1531.6 Q206 1522.85 209.055 1518.27 Q212.134 1513.66 217.944 1513.66 Z" fill="#000000" fill-rule="nonzero" fill-opacity="1" /><path clip-path="url(#clip340)" d="M680.628 1544.91 L688.267 1544.91 L688.267 1518.55 L679.957 1520.21 L679.957 1515.95 L688.22 1514.29 L692.896 1514.29 L692.896 1544.91 L700.535 1544.91 L700.535 1548.85 L680.628 1548.85 L680.628 1544.91 Z" fill="#000000" fill-rule="nonzero" fill-opacity="1" /><path clip-path="url(#clip340)" d="M719.98 1517.37 Q716.368 1517.37 714.54 1520.93 Q712.734 1524.47 712.734 1531.6 Q712.734 1538.71 714.54 1542.27 Q716.368 1545.82 719.98 1545.82 Q723.614 1545.82 725.419 1542.27 Q727.248 1538.71 727.248 1531.6 Q727.248 1524.47 725.419 1520.93 Q723.614 1517.37 719.98 1517.37 M719.98 1513.66 Q725.79 1513.66 728.845 1518.27 Q731.924 1522.85 731.924 1531.6 Q731.924 1540.33 728.845 1544.94 Q725.79 1549.52 719.98 1549.52 Q714.169 1549.52 711.091 1544.94 Q708.035 1540.33 708.035 1531.6 Q708.035 1522.85 711.091 1518.27 Q714.169 1513.66 719.98 1513.66 Z" fill="#000000" fill-rule="nonzero" fill-opacity="1" /><path clip-path="url(#clip340)" d="M750.141 1517.37 Q746.53 1517.37 744.702 1520.93 Q742.896 1524.47 742.896 1531.6 Q742.896 1538.71 744.702 1542.27 Q746.53 1545.82 750.141 1545.82 Q753.776 1545.82 755.581 1542.27 Q757.41 1538.71 757.41 1531.6 Q757.41 1524.47 755.581 1520.93 Q753.776 1517.37 750.141 1517.37 M750.141 1513.66 Q755.952 1513.66 759.007 1518.27 Q762.086 1522.85 762.086 1531.6 Q762.086 1540.33 759.007 1544.94 Q755.952 1549.52 750.141 1549.52 Q744.331 1549.52 741.253 1544.94 Q738.197 1540.33 738.197 1531.6 Q738.197 1522.85 741.253 1518.27 Q744.331 1513.66 750.141 1513.66 Z" fill="#000000" fill-rule="nonzero" fill-opacity="1" /><path clip-path="url(#clip340)" d="M780.303 1517.37 Q776.692 1517.37 774.864 1520.93 Q773.058 1524.47 773.058 1531.6 Q773.058 1538.71 774.864 1542.27 Q776.692 1545.82 780.303 1545.82 Q783.938 1545.82 785.743 1542.27 Q787.572 1538.71 787.572 1531.6 Q787.572 1524.47 785.743 1520.93 Q783.938 1517.37 780.303 1517.37 M780.303 1513.66 Q786.113 1513.66 789.169 1518.27 Q792.248 1522.85 792.248 1531.6 Q792.248 1540.33 789.169 1544.94 Q786.113 1549.52 780.303 1549.52 Q774.493 1549.52 771.414 1544.94 Q768.359 1540.33 768.359 1531.6 Q768.359 1522.85 771.414 1518.27 Q774.493 1513.66 780.303 1513.66 Z" fill="#000000" fill-rule="nonzero" fill-opacity="1" /><path clip-path="url(#clip340)" d="M1202.87 1544.91 L1219.19 1544.91 L1219.19 1548.85 L1197.25 1548.85 L1197.25 1544.91 Q1199.91 1542.16 1204.49 1537.53 Q1209.1 1532.88 1210.28 1531.53 Q1212.52 1529.01 1213.4 1527.27 Q1214.31 1525.51 1214.31 1523.82 Q1214.31 1521.07 1212.36 1519.33 Q1210.44 1517.6 1207.34 1517.6 Q1205.14 1517.6 1202.69 1518.36 Q1200.26 1519.13 1197.48 1520.68 L1197.48 1515.95 Q1200.3 1514.82 1202.76 1514.24 Q1205.21 1513.66 1207.25 1513.66 Q1212.62 1513.66 1215.81 1516.35 Q1219.01 1519.03 1219.01 1523.52 Q1219.01 1525.65 1218.2 1527.57 Q1217.41 1529.47 1215.3 1532.07 Q1214.72 1532.74 1211.62 1535.95 Q1208.52 1539.15 1202.87 1544.91 Z" fill="#000000" fill-rule="nonzero" fill-opacity="1" /><path clip-path="url(#clip340)" d="M1239.01 1517.37 Q1235.39 1517.37 1233.57 1520.93 Q1231.76 1524.47 1231.76 1531.6 Q1231.76 1538.71 1233.57 1542.27 Q1235.39 1545.82 1239.01 1545.82 Q1242.64 1545.82 1244.45 1542.27 Q1246.27 1538.71 1246.27 1531.6 Q1246.27 1524.47 1244.45 1520.93 Q1242.64 1517.37 1239.01 1517.37 M1239.01 1513.66 Q1244.82 1513.66 1247.87 1518.27 Q1250.95 1522.85 1250.95 1531.6 Q1250.95 1540.33 1247.87 1544.94 Q1244.82 1549.52 1239.01 1549.52 Q1233.2 1549.52 1230.12 1544.94 Q1227.06 1540.33 1227.06 1531.6 Q1227.06 1522.85 1230.12 1518.27 Q1233.2 1513.66 1239.01 1513.66 Z" fill="#000000" fill-rule="nonzero" fill-opacity="1" /><path clip-path="url(#clip340)" d="M1269.17 1517.37 Q1265.56 1517.37 1263.73 1520.93 Q1261.92 1524.47 1261.92 1531.6 Q1261.92 1538.71 1263.73 1542.27 Q1265.56 1545.82 1269.17 1545.82 Q1272.8 1545.82 1274.61 1542.27 Q1276.44 1538.71 1276.44 1531.6 Q1276.44 1524.47 1274.61 1520.93 Q1272.8 1517.37 1269.17 1517.37 M1269.17 1513.66 Q1274.98 1513.66 1278.03 1518.27 Q1281.11 1522.85 1281.11 1531.6 Q1281.11 1540.33 1278.03 1544.94 Q1274.98 1549.52 1269.17 1549.52 Q1263.36 1549.52 1260.28 1544.94 Q1257.22 1540.33 1257.22 1531.6 Q1257.22 1522.85 1260.28 1518.27 Q1263.36 1513.66 1269.17 1513.66 Z" fill="#000000" fill-rule="nonzero" fill-opacity="1" /><path clip-path="url(#clip340)" d="M1299.33 1517.37 Q1295.72 1517.37 1293.89 1520.93 Q1292.08 1524.47 1292.08 1531.6 Q1292.08 1538.71 1293.89 1542.27 Q1295.72 1545.82 1299.33 1545.82 Q1302.96 1545.82 1304.77 1542.27 Q1306.6 1538.71 1306.6 1531.6 Q1306.6 1524.47 1304.77 1520.93 Q1302.96 1517.37 1299.33 1517.37 M1299.33 1513.66 Q1305.14 1513.66 1308.2 1518.27 Q1311.27 1522.85 1311.27 1531.6 Q1311.27 1540.33 1308.2 1544.94 Q1305.14 1549.52 1299.33 1549.52 Q1293.52 1549.52 1290.44 1544.94 Q1287.39 1540.33 1287.39 1531.6 Q1287.39 1522.85 1290.44 1518.27 Q1293.52 1513.66 1299.33 1513.66 Z" fill="#000000" fill-rule="nonzero" fill-opacity="1" /><path clip-path="url(#clip340)" d="M1731.1 1530.21 Q1734.46 1530.93 1736.33 1533.2 Q1738.23 1535.47 1738.23 1538.8 Q1738.23 1543.92 1734.71 1546.72 Q1731.19 1549.52 1724.71 1549.52 Q1722.53 1549.52 1720.22 1549.08 Q1717.93 1548.66 1715.47 1547.81 L1715.47 1543.29 Q1717.42 1544.43 1719.73 1545.01 Q1722.05 1545.58 1724.57 1545.58 Q1728.97 1545.58 1731.26 1543.85 Q1733.58 1542.11 1733.58 1538.8 Q1733.58 1535.75 1731.42 1534.03 Q1729.29 1532.3 1725.47 1532.3 L1721.45 1532.3 L1721.45 1528.45 L1725.66 1528.45 Q1729.11 1528.45 1730.94 1527.09 Q1732.77 1525.7 1732.77 1523.11 Q1732.77 1520.45 1730.87 1519.03 Q1728.99 1517.6 1725.47 1517.6 Q1723.55 1517.6 1721.35 1518.01 Q1719.16 1518.43 1716.52 1519.31 L1716.52 1515.14 Q1719.18 1514.4 1721.49 1514.03 Q1723.83 1513.66 1725.89 1513.66 Q1731.22 1513.66 1734.32 1516.09 Q1737.42 1518.5 1737.42 1522.62 Q1737.42 1525.49 1735.78 1527.48 Q1734.13 1529.45 1731.1 1530.21 Z" fill="#000000" fill-rule="nonzero" fill-opacity="1" /><path clip-path="url(#clip340)" d="M1757.09 1517.37 Q1753.48 1517.37 1751.65 1520.93 Q1749.85 1524.47 1749.85 1531.6 Q1749.85 1538.71 1751.65 1542.27 Q1753.48 1545.82 1757.09 1545.82 Q1760.73 1545.82 1762.53 1542.27 Q1764.36 1538.71 1764.36 1531.6 Q1764.36 1524.47 1762.53 1520.93 Q1760.73 1517.37 1757.09 1517.37 M1757.09 1513.66 Q1762.9 1513.66 1765.96 1518.27 Q1769.04 1522.85 1769.04 1531.6 Q1769.04 1540.33 1765.96 1544.94 Q1762.9 1549.52 1757.09 1549.52 Q1751.28 1549.52 1748.21 1544.94 Q1745.15 1540.33 1745.15 1531.6 Q1745.15 1522.85 1748.21 1518.27 Q1751.28 1513.66 1757.09 1513.66 Z" fill="#000000" fill-rule="nonzero" fill-opacity="1" /><path clip-path="url(#clip340)" d="M1787.26 1517.37 Q1783.65 1517.37 1781.82 1520.93 Q1780.01 1524.47 1780.01 1531.6 Q1780.01 1538.71 1781.82 1542.27 Q1783.65 1545.82 1787.26 1545.82 Q1790.89 1545.82 1792.7 1542.27 Q1794.53 1538.71 1794.53 1531.6 Q1794.53 1524.47 1792.7 1520.93 Q1790.89 1517.37 1787.26 1517.37 M1787.26 1513.66 Q1793.07 1513.66 1796.12 1518.27 Q1799.2 1522.85 1799.2 1531.6 Q1799.2 1540.33 1796.12 1544.94 Q1793.07 1549.52 1787.26 1549.52 Q1781.45 1549.52 1778.37 1544.94 Q1775.31 1540.33 1775.31 1531.6 Q1775.31 1522.85 1778.37 1518.27 Q1781.45 1513.66 1787.26 1513.66 Z" fill="#000000" fill-rule="nonzero" fill-opacity="1" /><path clip-path="url(#clip340)" d="M1817.42 1517.37 Q1813.81 1517.37 1811.98 1520.93 Q1810.17 1524.47 1810.17 1531.6 Q1810.17 1538.71 1811.98 1542.27 Q1813.81 1545.82 1817.42 1545.82 Q1821.05 1545.82 1822.86 1542.27 Q1824.69 1538.71 1824.69 1531.6 Q1824.69 1524.47 1822.86 1520.93 Q1821.05 1517.37 1817.42 1517.37 M1817.42 1513.66 Q1823.23 1513.66 1826.28 1518.27 Q1829.36 1522.85 1829.36 1531.6 Q1829.36 1540.33 1826.28 1544.94 Q1823.23 1549.52 1817.42 1549.52 Q1811.61 1549.52 1808.53 1544.94 Q1805.47 1540.33 1805.47 1531.6 Q1805.47 1522.85 1808.53 1518.27 Q1811.61 1513.66 1817.42 1513.66 Z" fill="#000000" fill-rule="nonzero" fill-opacity="1" /><path clip-path="url(#clip340)" d="M2248.59 1518.36 L2236.78 1536.81 L2248.59 1536.81 L2248.59 1518.36 M2247.36 1514.29 L2253.24 1514.29 L2253.24 1536.81 L2258.17 1536.81 L2258.17 1540.7 L2253.24 1540.7 L2253.24 1548.85 L2248.59 1548.85 L2248.59 1540.7 L2232.98 1540.7 L2232.98 1536.19 L2247.36 1514.29 Z" fill="#000000" fill-rule="nonzero" fill-opacity="1" /><path clip-path="url(#clip340)" d="M2275.9 1517.37 Q2272.29 1517.37 2270.46 1520.93 Q2268.66 1524.47 2268.66 1531.6 Q2268.66 1538.71 2270.46 1542.27 Q2272.29 1545.82 2275.9 1545.82 Q2279.54 1545.82 2281.34 1542.27 Q2283.17 1538.71 2283.17 1531.6 Q2283.17 1524.47 2281.34 1520.93 Q2279.54 1517.37 2275.9 1517.37 M2275.9 1513.66 Q2281.71 1513.66 2284.77 1518.27 Q2287.85 1522.85 2287.85 1531.6 Q2287.85 1540.33 2284.77 1544.94 Q2281.71 1549.52 2275.9 1549.52 Q2270.09 1549.52 2267.01 1544.94 Q2263.96 1540.33 2263.96 1531.6 Q2263.96 1522.85 2267.01 1518.27 Q2270.09 1513.66 2275.9 1513.66 Z" fill="#000000" fill-rule="nonzero" fill-opacity="1" /><path clip-path="url(#clip340)" d="M2306.06 1517.37 Q2302.45 1517.37 2300.62 1520.93 Q2298.82 1524.47 2298.82 1531.6 Q2298.82 1538.71 2300.62 1542.27 Q2302.45 1545.82 2306.06 1545.82 Q2309.7 1545.82 2311.5 1542.27 Q2313.33 1538.71 2313.33 1531.6 Q2313.33 1524.47 2311.5 1520.93 Q2309.7 1517.37 2306.06 1517.37 M2306.06 1513.66 Q2311.87 1513.66 2314.93 1518.27 Q2318.01 1522.85 2318.01 1531.6 Q2318.01 1540.33 2314.93 1544.94 Q2311.87 1549.52 2306.06 1549.52 Q2300.25 1549.52 2297.17 1544.94 Q2294.12 1540.33 2294.12 1531.6 Q2294.12 1522.85 2297.17 1518.27 Q2300.25 1513.66 2306.06 1513.66 Z" fill="#000000" fill-rule="nonzero" fill-opacity="1" /><path clip-path="url(#clip340)" d="M2336.22 1517.37 Q2332.61 1517.37 2330.79 1520.93 Q2328.98 1524.47 2328.98 1531.6 Q2328.98 1538.71 2330.79 1542.27 Q2332.61 1545.82 2336.22 1545.82 Q2339.86 1545.82 2341.66 1542.27 Q2343.49 1538.71 2343.49 1531.6 Q2343.49 1524.47 2341.66 1520.93 Q2339.86 1517.37 2336.22 1517.37 M2336.22 1513.66 Q2342.03 1513.66 2345.09 1518.27 Q2348.17 1522.85 2348.17 1531.6 Q2348.17 1540.33 2345.09 1544.94 Q2342.03 1549.52 2336.22 1549.52 Q2330.41 1549.52 2327.34 1544.94 Q2324.28 1540.33 2324.28 1531.6 Q2324.28 1522.85 2327.34 1518.27 Q2330.41 1513.66 2336.22 1513.66 Z" fill="#000000" fill-rule="nonzero" fill-opacity="1" /><polyline clip-path="url(#clip342)" style="stroke:#000000; stroke-linecap:round; stroke-linejoin:round; stroke-width:2; stroke-opacity:0.1; fill:none" points="155.765,1221.44 2352.76,1221.44 "/>
<polyline clip-path="url(#clip342)" style="stroke:#000000; stroke-linecap:round; stroke-linejoin:round; stroke-width:2; stroke-opacity:0.1; fill:none" points="155.765,890.122 2352.76,890.122 "/>
<polyline clip-path="url(#clip342)" style="stroke:#000000; stroke-linecap:round; stroke-linejoin:round; stroke-width:2; stroke-opacity:0.1; fill:none" points="155.765,558.804 2352.76,558.804 "/>
<polyline clip-path="url(#clip342)" style="stroke:#000000; stroke-linecap:round; stroke-linejoin:round; stroke-width:2; stroke-opacity:0.1; fill:none" points="155.765,227.486 2352.76,227.486 "/>
<polyline clip-path="url(#clip340)" style="stroke:#000000; stroke-linecap:round; stroke-linejoin:round; stroke-width:4; stroke-opacity:1; fill:none" points="155.765,1486.45 155.765,47.2441 "/>
<polyline clip-path="url(#clip340)" style="stroke:#000000; stroke-linecap:round; stroke-linejoin:round; stroke-width:4; stroke-opacity:1; fill:none" points="155.765,1221.44 174.663,1221.44 "/>
<polyline clip-path="url(#clip340)" style="stroke:#000000; stroke-linecap:round; stroke-linejoin:round; stroke-width:4; stroke-opacity:1; fill:none" points="155.765,890.122 174.663,890.122 "/>
<polyline clip-path="url(#clip340)" style="stroke:#000000; stroke-linecap:round; stroke-linejoin:round; stroke-width:4; stroke-opacity:1; fill:none" points="155.765,558.804 174.663,558.804 "/>
<polyline clip-path="url(#clip340)" style="stroke:#000000; stroke-linecap:round; stroke-linejoin:round; stroke-width:4; stroke-opacity:1; fill:none" points="155.765,227.486 174.663,227.486 "/>
<path clip-path="url(#clip340)" d="M54.3949 1234.78 L62.0337 1234.78 L62.0337 1208.42 L53.7236 1210.09 L53.7236 1205.83 L61.9874 1204.16 L66.6633 1204.16 L66.6633 1234.78 L74.3022 1234.78 L74.3022 1238.72 L54.3949 1238.72 L54.3949 1234.78 Z" fill="#000000" fill-rule="nonzero" fill-opacity="1" /><path clip-path="url(#clip340)" d="M83.7466 1232.84 L88.6308 1232.84 L88.6308 1238.72 L83.7466 1238.72 L83.7466 1232.84 Z" fill="#000000" fill-rule="nonzero" fill-opacity="1" /><path clip-path="url(#clip340)" d="M98.8622 1204.16 L117.219 1204.16 L117.219 1208.09 L103.145 1208.09 L103.145 1216.57 Q104.163 1216.22 105.182 1216.06 Q106.2 1215.87 107.219 1215.87 Q113.006 1215.87 116.385 1219.04 Q119.765 1222.22 119.765 1227.63 Q119.765 1233.21 116.293 1236.31 Q112.82 1239.39 106.501 1239.39 Q104.325 1239.39 102.057 1239.02 Q99.8113 1238.65 97.4039 1237.91 L97.4039 1233.21 Q99.4872 1234.34 101.709 1234.9 Q103.932 1235.46 106.408 1235.46 Q110.413 1235.46 112.751 1233.35 Q115.089 1231.24 115.089 1227.63 Q115.089 1224.02 112.751 1221.91 Q110.413 1219.81 106.408 1219.81 Q104.534 1219.81 102.659 1220.22 Q100.807 1220.64 98.8622 1221.52 L98.8622 1204.16 Z" fill="#000000" fill-rule="nonzero" fill-opacity="1" /><path clip-path="url(#clip340)" d="M56.6171 903.467 L72.9365 903.467 L72.9365 907.402 L50.9921 907.402 L50.9921 903.467 Q53.6541 900.712 58.2375 896.082 Q62.8439 891.43 64.0245 890.087 Q66.2698 887.564 67.1494 885.828 Q68.0522 884.069 68.0522 882.379 Q68.0522 879.624 66.1078 877.888 Q64.1865 876.152 61.0847 876.152 Q58.8856 876.152 56.4319 876.916 Q54.0014 877.68 51.2236 879.231 L51.2236 874.508 Q54.0477 873.374 56.5014 872.795 Q58.955 872.217 60.9921 872.217 Q66.3624 872.217 69.5568 874.902 Q72.7513 877.587 72.7513 882.078 Q72.7513 884.207 71.9411 886.129 Q71.1541 888.027 69.0476 890.619 Q68.4689 891.291 65.367 894.508 Q62.2652 897.703 56.6171 903.467 Z" fill="#000000" fill-rule="nonzero" fill-opacity="1" /><path clip-path="url(#clip340)" d="M82.7512 901.522 L87.6354 901.522 L87.6354 907.402 L82.7512 907.402 L82.7512 901.522 Z" fill="#000000" fill-rule="nonzero" fill-opacity="1" /><path clip-path="url(#clip340)" d="M107.821 875.92 Q104.209 875.92 102.381 879.485 Q100.575 883.027 100.575 890.156 Q100.575 897.263 102.381 900.828 Q104.209 904.369 107.821 904.369 Q111.455 904.369 113.26 900.828 Q115.089 897.263 115.089 890.156 Q115.089 883.027 113.26 879.485 Q111.455 875.92 107.821 875.92 M107.821 872.217 Q113.631 872.217 116.686 876.823 Q119.765 881.407 119.765 890.156 Q119.765 898.883 116.686 903.49 Q113.631 908.073 107.821 908.073 Q102.01 908.073 98.9317 903.49 Q95.8761 898.883 95.8761 890.156 Q95.8761 881.407 98.9317 876.823 Q102.01 872.217 107.821 872.217 Z" fill="#000000" fill-rule="nonzero" fill-opacity="1" /><path clip-path="url(#clip340)" d="M57.6125 572.149 L73.9318 572.149 L73.9318 576.084 L51.9875 576.084 L51.9875 572.149 Q54.6495 569.394 59.2328 564.765 Q63.8393 560.112 65.0198 558.769 Q67.2652 556.246 68.1448 554.51 Q69.0476 552.751 69.0476 551.061 Q69.0476 548.306 67.1032 546.57 Q65.1819 544.834 62.08 544.834 Q59.881 544.834 57.4273 545.598 Q54.9967 546.362 52.219 547.913 L52.219 543.191 Q55.043 542.056 57.4967 541.478 Q59.9504 540.899 61.9874 540.899 Q67.3578 540.899 70.5522 543.584 Q73.7466 546.269 73.7466 550.76 Q73.7466 552.89 72.9365 554.811 Q72.1494 556.709 70.0429 559.302 Q69.4642 559.973 66.3624 563.19 Q63.2606 566.385 57.6125 572.149 Z" fill="#000000" fill-rule="nonzero" fill-opacity="1" /><path clip-path="url(#clip340)" d="M83.7466 570.204 L88.6308 570.204 L88.6308 576.084 L83.7466 576.084 L83.7466 570.204 Z" fill="#000000" fill-rule="nonzero" fill-opacity="1" /><path clip-path="url(#clip340)" d="M98.8622 541.524 L117.219 541.524 L117.219 545.459 L103.145 545.459 L103.145 553.931 Q104.163 553.584 105.182 553.422 Q106.2 553.237 107.219 553.237 Q113.006 553.237 116.385 556.408 Q119.765 559.579 119.765 564.996 Q119.765 570.575 116.293 573.677 Q112.82 576.755 106.501 576.755 Q104.325 576.755 102.057 576.385 Q99.8113 576.014 97.4039 575.274 L97.4039 570.575 Q99.4872 571.709 101.709 572.264 Q103.932 572.82 106.408 572.82 Q110.413 572.82 112.751 570.714 Q115.089 568.607 115.089 564.996 Q115.089 561.385 112.751 559.278 Q110.413 557.172 106.408 557.172 Q104.534 557.172 102.659 557.589 Q100.807 558.005 98.8622 558.885 L98.8622 541.524 Z" fill="#000000" fill-rule="nonzero" fill-opacity="1" /><path clip-path="url(#clip340)" d="M66.7559 226.132 Q70.1124 226.849 71.9874 229.118 Q73.8855 231.386 73.8855 234.72 Q73.8855 239.836 70.367 242.636 Q66.8485 245.437 60.3671 245.437 Q58.1912 245.437 55.8764 244.998 Q53.5847 244.581 51.131 243.724 L51.131 239.211 Q53.0754 240.345 55.3903 240.923 Q57.7051 241.502 60.2282 241.502 Q64.6263 241.502 66.918 239.766 Q69.2328 238.03 69.2328 234.72 Q69.2328 231.664 67.08 229.951 Q64.9504 228.215 61.131 228.215 L57.1032 228.215 L57.1032 224.373 L61.3161 224.373 Q64.7652 224.373 66.5939 223.007 Q68.4226 221.618 68.4226 219.025 Q68.4226 216.363 66.5245 214.951 Q64.6495 213.516 61.131 213.516 Q59.2097 213.516 57.0106 213.933 Q54.8115 214.35 52.1727 215.229 L52.1727 211.063 Q54.8347 210.322 57.1495 209.951 Q59.4875 209.581 61.5476 209.581 Q66.8717 209.581 69.9735 212.012 Q73.0753 214.419 73.0753 218.539 Q73.0753 221.41 71.4318 223.4 Q69.7883 225.368 66.7559 226.132 Z" fill="#000000" fill-rule="nonzero" fill-opacity="1" /><path clip-path="url(#clip340)" d="M82.7512 238.886 L87.6354 238.886 L87.6354 244.766 L82.7512 244.766 L82.7512 238.886 Z" fill="#000000" fill-rule="nonzero" fill-opacity="1" /><path clip-path="url(#clip340)" d="M107.821 213.285 Q104.209 213.285 102.381 216.85 Q100.575 220.391 100.575 227.521 Q100.575 234.627 102.381 238.192 Q104.209 241.734 107.821 241.734 Q111.455 241.734 113.26 238.192 Q115.089 234.627 115.089 227.521 Q115.089 220.391 113.26 216.85 Q111.455 213.285 107.821 213.285 M107.821 209.581 Q113.631 209.581 116.686 214.188 Q119.765 218.771 119.765 227.521 Q119.765 236.248 116.686 240.854 Q113.631 245.437 107.821 245.437 Q102.01 245.437 98.9317 240.854 Q95.8761 236.248 95.8761 227.521 Q95.8761 218.771 98.9317 214.188 Q102.01 209.581 107.821 209.581 Z" fill="#000000" fill-rule="nonzero" fill-opacity="1" /><polyline clip-path="url(#clip342)" style="stroke:#009af9; stroke-linecap:round; stroke-linejoin:round; stroke-width:4; stroke-opacity:1; fill:none" points="217.944,1082.01 218.462,87.9763 218.98,1299.61 219.498,1404.14 220.017,1170.55 220.535,1209.34 221.053,940.691 221.571,1008.81 222.089,819.236 222.607,1032.33 223.125,819.061 223.644,900.858 224.162,1193.16 224.68,1251.43 225.198,1174.98 225.716,1220.47 226.234,654.716 226.753,751.588 227.271,950.486 227.789,956.114 228.307,997.89 228.825,1029.26 229.343,988.867 229.862,1262.91 230.38,951.422 230.898,1051.94 231.416,1209.88 231.934,1261.72 232.452,774.146 232.97,900.547 233.489,1278.88 234.007,1267.97 234.525,766.727 235.043,782.462 235.561,970.238 236.079,897.49 236.598,1001.86 237.116,1079.55 237.634,916.501 238.152,1103.22 238.67,1190.89 239.188,1171.43 239.707,1232.58 240.225,1223.07 240.743,909.937 241.261,941.8 241.779,998.669 242.297,1051.35 242.815,620.981 243.334,707.602 243.852,1068.35 244.37,1127.39 244.888,1178.02 245.406,1298.28 245.924,1113.65 246.443,1103.97 246.961,1258.33 247.479,1277.28 247.997,780.721 248.515,875.575 249.033,1105.38 249.552,1101.97 250.07,1029.05 250.588,1068.21 251.106,1148.39 251.624,1245.29 252.142,771.256 252.66,871.622 253.179,1035.18 253.697,1075 254.215,1057.96 254.733,1142.85 255.251,959.209 255.769,989.661 256.288,704.228 256.806,758.959 257.324,1183.16 257.842,1249.4 258.36,1091.24 258.878,1132.63 259.397,1035.7 259.915,1025.84 260.433,1041.5 260.951,1029.71 261.469,906.058 261.987,884.708 262.506,1376.43 263.024,1427.71 263.542,1222.24 264.06,1296.07 264.578,945.89 265.096,1155.99 265.614,891.222 266.133,977.591 266.651,829.966 267.169,860.522 267.687,968.872 268.205,997.84 268.723,1022.03 269.242,975.297 269.76,1142.82 270.278,1258.44 270.796,1145.86 271.314,1170.08 271.832,861.935 272.351,926.476 272.869,1092.34 273.387,1137.06 273.905,839.758 274.423,814.897 274.941,998.382 275.459,1000.92 275.978,1087.74 276.496,1101.62 277.014,1230.52 277.532,1307.61 278.05,989.617 278.568,996.062 279.087,991.381 279.605,1002.97 280.123,1048.42 280.641,1064.91 281.159,590.365 281.677,613.003 282.196,1088.47 282.714,1160.13 283.232,1163.58 283.75,1306.92 284.268,624.623 284.786,741.219 285.304,894.34 285.823,955.568 286.341,1042.35 286.859,1147.39 287.377,851.559 287.895,924.505 288.413,893.071 288.932,957.003 289.45,1120.22 289.968,1262.97 290.486,954.774 291.004,1004.01 291.522,748.051 292.041,765.549 292.559,1032.52 293.077,1046.16 293.595,1131.97 294.113,1176.21 294.631,1161.92 295.149,1160.32 295.668,991.628 296.186,1067.53 296.704,1052.06 297.222,1141.29 297.74,948.389 298.258,906.288 298.777,1137.39 299.295,1199.74 299.813,759.815 300.331,838.219 300.849,973.484 301.367,1129.44 301.886,1149.75 302.404,1199.26 302.922,1126.92 303.44,1153.72 303.958,838.832 304.476,955.594 304.994,911.633 305.513,1047.71 306.031,1134.82 306.549,1162.19 307.067,699.829 307.585,800.86 308.103,973.043 308.622,1217.3 309.14,1052.9 309.658,1066.97 310.176,794.467 310.694,885.991 311.212,867.763 311.731,816.032 312.249,955.068 312.767,1003.76 313.285,1047.63 313.803,1083.6 314.321,1100.25 314.839,1157.71 315.358,740.517 315.876,941.674 316.394,1278.35 316.912,1337.07 317.43,686.676 317.948,780.443 318.467,957.103 318.985,1066.43 319.503,1243.59 320.021,1342.06 320.539,823.736 321.057,891.03 321.576,1117.48 322.094,1107.8 322.612,965.469 323.13,1074.73 323.648,1149.81 324.166,1218.86 324.684,1138.23 325.203,1207.87 325.721,904.851 326.239,997.422 326.757,774.228 327.275,879.639 327.793,1029.51 328.312,1115.64 328.83,935.404 329.348,1056.08 329.866,1035.89 330.384,1025.28 330.902,1087.4 331.421,1247.53 331.939,1050.93 332.457,1076.76 332.975,991.088 333.493,1161.39 334.011,671.78 334.53,744.301 335.048,827.01 335.566,859.287 336.084,877.413 336.602,1031.24 337.12,1085.36 337.638,1104.33 338.157,977.987 338.675,1072.46 339.193,1211.38 339.711,1250.65 340.229,906.481 340.747,1018.36 341.266,1086.77 341.784,1175.06 342.302,1109.32 342.82,1150.71 343.338,722.423 343.856,960.628 344.375,1246.15 344.893,1278.16 345.411,913.695 345.929,937.586 346.447,1203.18 346.965,1228.95 347.483,886.322 348.002,931.137 348.52,977.014 349.038,946.475 349.556,1068.52 350.074,1226.2 350.592,1316.91 351.111,1405.82 351.629,1026.44 352.147,1131.72 352.665,917.451 353.183,1056.97 353.701,972.753 354.22,991.654 354.738,820.884 355.256,978.955 355.774,1104.92 356.292,1285.83 356.81,881.773 357.328,968.808 357.847,1240.43 358.365,1201.06 358.883,826.266 359.401,815.497 359.919,890.931 360.437,974.173 360.956,854.535 361.474,965.121 361.992,1053.27 362.51,1022.5 363.028,1147.07 363.546,1292.23 364.065,1375.46 364.583,1429.42 365.101,998.684 365.619,1033.12 366.137,914.915 366.655,1037.27 367.173,1080.56 367.692,1113.48 368.21,1047.05 368.728,1112.16 369.246,1166.28 369.764,1237.29 370.282,682.619 370.801,920.05 371.319,1397.3 371.837,1445.72 372.355,706.973 372.873,806.565 373.391,944.884 373.91,997.714 374.428,1107.89 374.946,1165.74 375.464,1302.35 375.982,1211.55 376.5,700.362 377.018,752.295 377.537,752.925 378.055,890.727 378.573,963.669 379.091,1086.31 379.609,1156.1 380.127,1155.76 380.646,908.075 381.164,1018.14 381.682,1027.5 382.2,1137.98 382.718,766.958 383.236,872.931 383.755,1022.83 384.273,1152.56 384.791,1004.45 385.309,1111.41 385.827,954.173 386.345,1007.64 386.863,1246.7 387.382,1235.47 387.9,1069.49 388.418,1084.35 388.936,1077.84 389.454,1112.19 389.972,857.464 390.491,875.128 391.009,1146.87 391.527,1190.28 392.045,888.424 392.563,959.885 393.081,928.453 393.6,1071.03 394.118,947.628 394.636,954.724 395.154,1007.23 395.672,1062.88 396.19,1108.74 396.708,1151.87 397.227,1058.97 397.745,1118.67 398.263,934.886 398.781,1034.83 399.299,1100.92 399.817,1115.64 400.336,1101.8 400.854,1170.34 401.372,1090.33 401.89,1108.78 402.408,968.92 402.926,929.232 403.445,1300.84 403.963,1384.22 404.481,1026.89 404.999,1112.7 405.517,827.115 406.035,893.473 406.554,1253.03 407.072,1314.74 407.59,1088.39 408.108,1290.78 408.626,879.367 409.144,929.27 409.662,930.992 410.181,1106.49 410.699,947.318 411.217,1144.64 411.735,925.503 412.253,977.263 412.771,1099.9 413.29,1235.76 413.808,928.453 414.326,1068.21 414.844,1135.85 415.362,1164.99 415.88,1115.3 416.399,1210.89 416.917,1120.35 417.435,1121.82 417.953,1202.92 418.471,1280.48 418.989,1193.9 419.507,1216.24 420.026,1354.15 420.544,1344.09 421.062,1146.46 421.58,1212.18 422.098,1062.67 422.616,1075.31 423.135,967.294 423.653,1047.2 424.171,964.439 424.689,1044.48 425.207,894.814 425.725,917.128 426.244,891.903 426.762,970.109 427.28,893.603 427.798,1033.09 428.316,985.099 428.834,1014.84 429.352,990.993 429.871,1093.27 430.389,1200.78 430.907,1298.81 431.425,1056.01 431.943,1107.85 432.461,956.162 432.98,979.069 433.498,804.995 434.016,828.626 434.534,1037.41 435.052,1029.16 435.57,888.508 436.089,954.258 436.607,746.628 437.125,703.688 437.643,863.27 438.161,934.176 438.679,1093.95 439.197,1109.88 439.716,1026.2 440.234,1032.76 440.752,923.484 441.27,969.554 441.788,957.585 442.306,1123.58 442.825,829.544 443.343,917.907 443.861,888.593 444.379,978.418 444.897,967.842 445.415,1047.06 445.934,1332.89 446.452,1419.16 446.97,730.839 447.488,770.345 448.006,1097.6 448.524,1171.89 449.042,911.638 449.561,937.846 450.079,1067.3 450.597,1201.72 451.115,977.17 451.633,1055.95 452.151,853.71 452.67,962.584 453.188,899.756 453.706,956.364 454.224,750.474 454.742,907.595 455.26,702.824 455.779,734.523 456.297,944.042 456.815,1096.88 457.333,1152.55 457.851,1267.76 458.369,885.535 458.887,881.985 459.406,991.14 459.924,1113.29 460.442,883.273 460.96,1019.27 461.478,1039.32 461.996,1050.83 462.515,1173.1 463.033,1171.81 463.551,921.825 464.069,964.97 464.587,902.773 465.105,1009.94 465.624,1102.4 466.142,1194.18 466.66,862.462 467.178,856.237 467.696,994.801 468.214,1047.23 468.732,875.791 469.251,926.459 469.769,732.631 470.287,826.039 470.805,705.086 471.323,735.563 471.841,970.881 472.36,1045.65 472.878,1084.86 473.396,1118.06 473.914,1013.19 474.432,1138.78 474.95,606.579 475.469,755.997 475.987,1045.54 476.505,1028.01 477.023,1064.05 477.541,1193.61 478.059,888.278 478.577,956.009 479.096,1171.98 479.614,1132 480.132,1031.34 480.65,1184.44 481.168,984.659 481.686,1011.65 482.205,995.168 482.723,1097.61 483.241,977.754 483.759,951.365 484.277,709.225 484.795,805.364 485.314,1002.59 485.832,1006.77 486.35,1011.34 486.868,1016.7 487.386,727.984 487.904,773.754 488.423,868.307 488.941,1060.13 489.459,1071.37 489.977,1155.79 490.495,995.939 491.013,1069.05 491.531,1095.53 492.05,1165.46 492.568,778.521 493.086,885.141 493.604,1089.25 494.122,1179.02 494.64,877.644 495.159,1137.14 495.677,812.457 496.195,925.9 496.713,1012.6 497.231,1114.53 497.749,1050.97 498.268,990.778 498.786,1067.46 499.304,1205.58 499.822,1103.89 500.34,1119.01 500.858,1225.94 501.376,1255.28 501.895,1062.78 502.413,1145.36 502.931,1225.79 503.449,1256.47 503.967,1054.79 504.485,1117.33 505.004,1011.67 505.522,1161.28 506.04,1010.92 506.558,1095.13 507.076,961.854 507.594,991.249 508.113,1093.11 508.631,1181.33 509.149,986.312 509.667,996.703 510.185,990.063 510.703,878.063 511.221,1131.19 511.74,1215.28 512.258,1266.98 512.776,1248.34 513.294,1053.81 513.812,1041.96 514.33,1086.33 514.849,1098.84 515.367,852.844 515.885,896.478 516.403,1005.94 516.921,1106.31 517.439,923.853 517.958,975.24 518.476,969.436 518.994,1114.02 519.512,741.95 520.03,745.851 520.548,770.332 521.066,786.987 521.585,909.869 522.103,888.661 522.621,965.393 523.139,1061.96 523.657,901.285 524.175,874.875 524.694,694.536 525.212,721.439 525.73,983.081 526.248,1032.18 526.766,1286.54 527.284,1295.19 527.803,1216.96 528.321,1293.42 528.839,963.405 529.357,1083.99 529.875,1292.16 530.393,1353.24 530.911,832.702 531.43,773.565 531.948,1065.02 532.466,1171.28 532.984,1125.98 533.502,1091.63 534.02,1137.1 534.539,1156.07 535.057,880.849 535.575,936.837 536.093,1000.49 536.611,943.506 537.129,775.67 537.648,799.042 538.166,778.811 538.684,924.709 539.202,1042.37 539.72,1099.19 540.238,1155.48 540.756,1135.3 541.275,866.596 541.793,1051.83 542.311,920.099 542.829,949.49 543.347,939.245 543.865,1081.83 544.384,1098.54 544.902,1240.39 545.42,1141.11 545.938,1312.48 546.456,1399.25 546.974,1373.56 547.493,1019.04 548.011,1015.18 548.529,999.921 549.047,1030.55 549.565,1082.57 550.083,1141.95 550.601,1184.09 551.12,1183.63 551.638,982.86 552.156,1033.02 552.674,538.013 553.192,579.258 553.71,894.473 554.229,894.64 554.747,996.805 555.265,954.25 555.783,1139.26 556.301,1180.71 556.819,975.536 557.338,999.392 557.856,771.34 558.374,895.803 558.892,1064.23 559.41,1136.3 559.928,930.537 560.447,1046.08 560.965,1181.33 561.483,1176.52 562.001,1087.68 562.519,1154.22 563.037,1108.43 563.555,1132.18 564.074,993.786 564.592,1121.44 565.11,990.121 565.628,1021.34 566.146,1239.64 566.664,1245.94 567.183,1230.3 567.701,1383.07 568.219,1233.55 568.737,1264.15 569.255,815.992 569.773,877.136 570.292,896.752 570.81,886.955 571.328,811.397 571.846,893.177 572.364,1047.32 572.882,1130.35 573.4,1062.56 573.919,1174.34 574.437,1045.84 574.955,1102.48 575.473,686.047 575.991,751.41 576.509,1136.83 577.028,1132.94 577.546,1075.97 578.064,1218.4 578.582,898.051 579.1,963.89 579.618,902.478 580.137,944.349 580.655,1053.19 581.173,1036.07 581.691,1090.79 582.209,1110.11 582.727,860.247 583.245,897.414 583.764,750.219 584.282,803.658 584.8,1134.46 585.318,1206.69 585.836,1237.33 586.354,1243.63 586.873,805.09 587.391,915.919 587.909,887.262 588.427,956.442 588.945,1223.75 589.463,1325.56 589.982,855.402 590.5,920.403 591.018,1003.33 591.536,1030.79 592.054,1056.54 592.572,1113.57 593.09,1127.01 593.609,1106.6 594.127,616.047 594.645,689.971 595.163,1092.4 595.681,1278.5 596.199,1051.09 596.718,1211.75 597.236,691.526 597.754,718.526 598.272,997.625 598.79,933.086 599.308,795.724 599.827,849.963 600.345,762.305 600.863,720.927 601.381,1001.91 601.899,1087.19 602.417,967.273 602.935,964.03 603.454,820.327 603.972,1004.88 604.49,1015.12 605.008,1145.72 605.526,1011.12 606.044,1060.13 606.563,855.663 607.081,936.235 607.599,1090.62 608.117,1084.24 608.635,1281.37 609.153,1294.36 609.672,1118.27 610.19,1183.94 610.708,1212.93 611.226,1286.41 611.744,801.367 612.262,839.953 612.78,1158.66 613.299,1273.84 613.817,1204.63 614.335,1255.56 614.853,778.753 615.371,760.74 615.889,973.44 616.408,1122.26 616.926,1236.13 617.444,1239.47 617.962,1127.09 618.48,1197.01 618.998,909.394 619.517,1097.38 620.035,870.206 620.553,963.558 621.071,812.548 621.589,902.159 622.107,1097.25 622.625,1139.63 623.144,973.168 623.662,1020.08 624.18,934.464 624.698,1101 625.216,973.042 625.734,1010.6 626.253,606.288 626.771,761.419 627.289,891.284 627.807,880.186 628.325,1128.73 628.843,1293.43 629.362,773.446 629.88,800.655 630.398,730.825 630.916,790.971 631.434,1037.11 631.952,1046.09 632.47,1155.83 632.989,1229.06 633.507,1106.14 634.025,1171.65 634.543,592.656 635.061,730.795 635.579,1028.03 636.098,1054.65 636.616,925.672 637.134,999.13 637.652,1115.27 638.17,1158.59 638.688,604.205 639.207,596.481 639.725,1002.54 640.243,953.6 640.761,1229.34 641.279,1308.78 641.797,931.298 642.316,951.15 642.834,970.161 643.352,1088.11 643.87,674.523 644.388,884.419 644.906,1119.75 645.424,1167.36 645.943,1142.73 646.461,1116.16 646.979,901.55 647.497,997.079 648.015,1027.03 648.533,1058.01 649.052,849.03 649.57,911.617 650.088,919.493 650.606,984.737 651.124,834.339 651.642,901.799 652.161,860.612 652.679,1016.31 653.197,888.946 653.715,1002.71 654.233,979.999 654.751,1053.68 655.269,633.141 655.788,650.622 656.306,934.523 656.824,1009.94 657.342,703.888 657.86,860.408 658.378,1283.22 658.897,1320.04 659.415,1140.55 659.933,1109.6 660.451,673.923 660.969,735.492 661.487,1079.42 662.006,1094.66 662.524,974.339 663.042,1081.12 663.56,807.593 664.078,889.526 664.596,1284.02 665.114,1342.69 665.633,1145.98 666.151,1265.95 666.669,1126.41 667.187,1219.37 667.705,1115.1 668.223,1209.07 668.742,866.313 669.26,831.976 669.778,842.844 670.296,988.869 670.814,1044.07 671.332,1104.52 671.851,1088.01 672.369,1199.28 672.887,921.669 673.405,995.497 673.923,918.046 674.441,971.797 674.959,931.484 675.478,975.069 675.996,1087.24 676.514,1027.27 677.032,990.963 677.55,1073.12 678.068,920.754 678.587,965.157 679.105,1228.19 679.623,1231.04 680.141,1062.77 680.659,1071.09 681.177,1074.3 681.696,1035.89 682.214,1040.1 682.732,1073.09 683.25,983.163 683.768,984.803 684.286,1151.01 684.804,1202.35 685.323,1020.48 685.841,1152.33 686.359,699.754 686.877,773.695 687.395,740.703 687.913,815.759 688.432,920.018 688.95,981.428 689.468,1060.26 689.986,1142.42 690.504,797.484 691.022,847.392 691.541,902.315 692.059,1018.65 692.577,908.449 693.095,859.935 693.613,892.999 694.131,966.194 694.649,1058.38 695.168,1087.63 695.686,789.056 696.204,801.318 696.722,1226.2 697.24,1178.92 697.758,1015.05 698.277,1101.99 698.795,404.461 699.313,583.346 699.831,837.571 700.349,966.855 700.867,660.892 701.386,701.672 701.904,841.663 702.422,834.55 702.94,673.584 703.458,741.146 703.976,788.812 704.494,971.972 705.013,1036.44 705.531,1099.32 706.049,1143.06 706.567,1233.82 707.085,987.123 707.603,1258.33 708.122,1097.3 708.64,1134.53 709.158,1086.53 709.676,1144.54 710.194,638.267 710.712,680.661 711.231,897.915 711.749,1013.36 712.267,754.274 712.785,840.349 713.303,844.261 713.821,951.91 714.34,910.309 714.858,886.09 715.376,858.041 715.894,849.238 716.412,561.748 716.93,585.314 717.448,891.783 717.967,911.939 718.485,927.383 719.003,992.885 719.521,845.304 720.039,860.445 720.557,996.892 721.076,973.865 721.594,956.204 722.112,1005 722.63,929.551 723.148,905.18 723.666,666.244 724.185,735.906 724.703,1286.88 725.221,1374.05 725.739,1041.94 726.257,1096.61 726.775,788.971 727.293,895.681 727.812,962.457 728.33,890.845 728.848,949.525 729.366,922.448 729.884,1111.29 730.402,1131.08 730.921,876.397 731.439,938.087 731.957,782.142 732.475,772.316 732.993,896.945 733.511,941.635 734.03,963.682 734.548,1061.75 735.066,1139.6 735.584,1186.71 736.102,916.034 736.62,943.932 737.138,827.11 737.657,904.358 738.175,720.027 738.693,762.095 739.211,1231.21 739.729,1256.6 740.247,864.837 740.766,1007.99 741.284,806.727 741.802,896.876 742.32,1048.74 742.838,1082.67 743.356,998.603 743.875,1070.75 744.393,1152.52 744.911,1101.29 745.429,919.334 745.947,945.59 746.465,740.414 746.983,749.079 747.502,968.776 748.02,1043.19 748.538,1023.69 749.056,1016.02 749.574,904.126 750.092,924.154 750.611,1014.21 751.129,1101 751.647,1022.8 752.165,1100.23 752.683,1074.92 753.201,1113.28 753.72,999.492 754.238,1005.72 754.756,950.712 755.274,997.897 755.792,864.02 756.31,1051.76 756.828,971.49 757.347,1076.54 757.865,1236.87 758.383,1265.42 758.901,769.195 759.419,849.25 759.937,835.762 760.456,1018.06 760.974,729.066 761.492,901.707 762.01,1270.55 762.528,1326.16 763.046,965.359 763.565,1011.87 764.083,965.562 764.601,974.334 765.119,741.398 765.637,795.744 766.155,691.971 766.673,816.765 767.192,885.398 767.71,1019.97 768.228,857.789 768.746,917.206 769.264,1211.36 769.782,1266.15 770.301,956.65 770.819,1076.92 771.337,837.338 771.855,875.912 772.373,963.421 772.891,1040.27 773.41,880.023 773.928,857.212 774.446,1023.24 774.964,1080.73 775.482,1000.91 776,982.331 776.518,876.02 777.037,1014.77 777.555,1011.93 778.073,1065.38 778.591,892.38 779.109,940.741 779.627,1066.82 780.146,1075.88 780.664,953.865 781.182,1004.3 781.7,707.037 782.218,903.898 782.736,949.515 783.255,1070.91 783.773,706.907 784.291,843.812 784.809,991.421 785.327,1113.79 785.845,829.408 786.364,909.516 786.882,1032.28 787.4,1061.78 787.918,996.81 788.436,1104.76 788.954,906.906 789.472,880.892 789.991,1196.94 790.509,1197.92 791.027,898.546 791.545,987.952 792.063,984.721 792.581,1165.08 793.1,779.065 793.618,865.214 794.136,790.631 794.654,848.772 795.172,1139.75 795.69,1132.35 796.209,748.031 796.727,844.75 797.245,760.847 797.763,793.577 798.281,1206.78 798.799,1355.04 799.317,1008.09 799.836,1110.29 800.354,1060.73 800.872,1187.46 801.39,914.535 801.908,885.967 802.426,1145.11 802.945,1121.01 803.463,798.216 803.981,1067.85 804.499,1190.98 805.017,1121.51 805.535,1032.25 806.054,991.32 806.572,873.888 807.09,840.438 807.608,880.728 808.126,879.703 808.644,1326.94 809.162,1368.65 809.681,705.293 810.199,804.87 810.717,1077.5 811.235,1181.93 811.753,1148.47 812.271,1296.17 812.79,788.778 813.308,966 813.826,1241.56 814.344,1319.5 814.862,1026.68 815.38,1158.55 815.899,922.144 816.417,1037.98 816.935,1056.78 817.453,997.847 817.971,894.099 818.489,939.723 819.007,845.566 819.526,855.237 820.044,854.09 820.562,973.938 821.08,823.332 821.598,904.538 822.116,950.133 822.635,955.392 823.153,985.849 823.671,1088.92 824.189,1005.42 824.707,991.702 825.225,957.007 825.744,979.282 826.262,826.245 826.78,872.674 827.298,1115.98 827.816,1224.68 828.334,716.498 828.852,741.647 829.371,868.42 829.889,867.828 830.407,918.399 830.925,996.764 831.443,1063.21 831.961,1171.95 832.48,964.379 832.998,1106.13 833.516,1029.89 834.034,1067.7 834.552,1033.3 835.07,1046.81 835.589,984.336 836.107,1031.99 836.625,1314.84 837.143,1378.02 837.661,1046.57 838.179,1205.2 838.697,1031.69 839.216,1033.3 839.734,778.423 840.252,865.537 840.77,923.74 841.288,924.954 841.806,1047.43 842.325,1132.05 842.843,903.488 843.361,1096.86 843.879,1222.73 844.397,1296.81 844.915,650.736 845.434,793.942 845.952,1161.93 846.47,1109.92 846.988,1085.55 847.506,1071.69 848.024,1166.74 848.542,1210.09 849.061,1045.67 849.579,1079.36 850.097,1137.2 850.615,1153.52 851.133,835.26 851.651,872.064 852.17,840.154 852.688,880.534 853.206,1018.14 853.724,1068.89 854.242,914.217 854.76,899.045 855.279,1292.3 855.797,1312.33 856.315,1141.69 856.833,1101.47 857.351,1260.12 857.869,1338.71 858.387,820.972 858.906,914.565 859.424,671.604 859.942,703.464 860.46,863.1 860.978,897.309 861.496,885.772 862.015,851.249 862.533,925.386 863.051,1014.32 863.569,1025.05 864.087,1004.7 864.605,688.131 865.124,752.02 865.642,1025.34 866.16,1082.01 866.678,965.333 867.196,1115.13 867.714,763.916 868.233,863.319 868.751,1003.36 869.269,935.845 869.787,1162.09 870.305,1089.09 870.823,885.687 871.341,859.584 871.86,549.982 872.378,510.054 872.896,1137.15 873.414,1135.73 873.932,938.637 874.45,962.895 874.969,908.046 875.487,1000.5 876.005,969.066 876.523,1060.56 877.041,1017.5 877.559,1128.45 878.078,901.656 878.596,946.417 879.114,883.375 879.632,809.093 880.15,883.761 880.668,875.893 881.186,1047.88 881.705,1132.12 882.223,722.646 882.741,943.355 883.259,778.892 883.777,873.2 884.295,469.85 884.814,591.04 885.332,1117.37 885.85,1156.82 886.368,1115.44 886.886,1134.5 887.404,841.707 887.923,923.93 888.441,1078.03 888.959,1138.64 889.477,1102.28 889.995,1288.41 890.513,524.485 891.031,619.669 891.55,790.589 892.068,871.216 892.586,1106.17 893.104,1122.7 893.622,922.579 894.14,991.774 894.659,774.998 895.177,977.972 895.695,1074.07 896.213,1088.63 896.731,838.067 897.249,856.062 897.768,809.916 898.286,887.634 898.804,1110.52 899.322,1231.82 899.84,717.863 900.358,727.532 900.876,719.073 901.395,769.957 901.913,650.049 902.431,673.747 902.949,1231.14 903.467,1317.88 903.985,1227.48 904.504,1258.64 905.022,897.262 905.54,970.88 906.058,979.564 906.576,988.585 907.094,1062.16 907.613,1079.19 908.131,1061.1 908.649,1092.04 909.167,881.489 909.685,920.654 910.203,1053.37 910.721,1071.73 911.24,230.024 911.758,275.698 912.276,676.794 912.794,772.031 913.312,870.916 913.83,1013.25 914.349,1075.64 914.867,1135.29 915.385,1018.73 915.903,1046.97 916.421,1032.68 916.939,1154.03 917.458,979.787 917.976,979.392 918.494,1012.62 919.012,1117.31 919.53,862.489 920.048,946.103 920.566,1029.42 921.085,1202.28 921.603,1155.09 922.121,1175.17 922.639,603.997 923.157,707.632 923.675,1296.58 924.194,1307.38 924.712,767.266 925.23,799.343 925.748,861.698 926.266,975.601 926.784,911.038 927.303,978.039 927.821,1294.5 928.339,1277.5 928.857,1110.09 929.375,1126.01 929.893,940.841 930.411,1090.8 930.93,1104.02 931.448,1144.06 931.966,769.857 932.484,917.914 933.002,1128.96 933.52,1132.93 934.039,934.354 934.557,958.51 935.075,963.97 935.593,1046.48 936.111,1094.17 936.629,1109.45 937.148,1219.73 937.666,1170.7 938.184,999.611 938.702,1007.49 939.22,1078.47 939.738,1018.62 940.257,939.618 940.775,1110.58 941.293,818.45 941.811,808.543 942.329,1021.08 942.847,1079.64 943.365,1013.12 943.884,1086.15 944.402,1092.81 944.92,1058.07 945.438,835.18 945.956,891.836 946.474,945.679 946.993,1042.8 947.511,932.577 948.029,911.997 948.547,938.824 949.065,1008.99 949.583,913.834 950.102,981.497 950.62,469.538 951.138,461.251 951.656,1043.78 952.174,1175.23 952.692,910.77 953.21,1024.36 953.729,838.021 954.247,914.288 954.765,828.133 955.283,939.92 955.801,1257.34 956.319,1315.17 956.838,1005.44 957.356,1006.56 957.874,958.836 958.392,978.623 958.91,859.506 959.428,900.297 959.947,1067.24 960.465,1060.25 960.983,1015.18 961.501,973.448 962.019,867.877 962.537,1058.73 963.055,1221.03 963.574,1172.04 964.092,860.891 964.61,945.026 965.128,953.982 965.646,1005.72 966.164,955.845 966.683,1002.85 967.201,975.383 967.719,1000.76 968.237,1077.13 968.755,1141.75 969.273,445.607 969.792,499.427 970.31,938.242 970.828,987.324 971.346,1045.98 971.864,1125.88 972.382,1093.49 972.9,1088.32 973.419,1049.33 973.937,1082.11 974.455,863.399 974.973,1002.34 975.491,966.197 976.009,968.338 976.528,751.827 977.046,801.429 977.564,811.294 978.082,846.271 978.6,863.585 979.118,874.014 979.637,907.699 980.155,1028.86 980.673,858.973 981.191,1013.24 981.709,981.417 982.227,1127.91 982.745,1017.32 983.264,1217.23 983.782,695.431 984.3,818.657 984.818,915.547 985.336,815.913 985.854,768.782 986.373,914.699 986.891,863.327 987.409,969.046 987.927,929.171 988.445,982.157 988.963,988.466 989.482,963.636 990,919.73 990.518,913.264 991.036,947.919 991.554,1001.89 992.072,785.66 992.59,801.768 993.109,1050.09 993.627,1062.31 994.145,1014.7 994.663,1042.64 995.181,838.548 995.699,1016.87 996.218,1211.93 996.736,1193.1 997.254,824.836 997.772,907.64 998.29,773.546 998.808,928.905 999.327,827.189 999.845,859.665 1000.36,848.075 1000.88,939.99 1001.4,1067.85 1001.92,1225.66 1002.44,922.15 1002.95,1012.42 1003.47,903.223 1003.99,996.423 1004.51,805.148 1005.03,885.192 1005.54,1152.09 1006.06,1190.29 1006.58,1030.14 1007.1,1067.63 1007.62,1051.2 1008.14,1110.38 1008.65,989.398 1009.17,943.991 1009.69,1101.38 1010.21,1110.18 1010.73,774.317 1011.24,781.496 1011.76,972.397 1012.28,1140.55 1012.8,896.947 1013.32,910.552 1013.83,739.872 1014.35,762.893 1014.87,795.19 1015.39,954.778 1015.91,833.418 1016.43,918.984 1016.94,882.807 1017.46,974.103 1017.98,1058.89 1018.5,1121.39 1019.02,1119.64 1019.53,1228.93 1020.05,808.463 1020.57,987.924 1021.09,968.834 1021.61,1067.43 1022.13,774.089 1022.64,763.557 1023.16,754.723 1023.68,789.075 1024.2,740.21 1024.72,819.736 1025.23,1039.39 1025.75,1123.17 1026.27,1067.56 1026.79,1250.71 1027.31,816.883 1027.83,945.262 1028.34,1090.62 1028.86,1101.64 1029.38,815.401 1029.9,900.151 1030.42,839.644 1030.93,950.647 1031.45,1113.37 1031.97,1157.45 1032.49,1200.99 1033.01,1198.5 1033.52,803.682 1034.04,810.705 1034.56,1062.59 1035.08,1241.11 1035.6,1245.31 1036.12,1297.2 1036.63,919.861 1037.15,985.868 1037.67,1055.96 1038.19,1089.25 1038.71,1261.43 1039.22,1293.57 1039.74,899.466 1040.26,902.472 1040.78,1103.59 1041.3,1096.99 1041.82,1068.05 1042.33,1109.13 1042.85,875.806 1043.37,1012.51 1043.89,970.744 1044.41,1051.49 1044.92,1005.31 1045.44,1040.8 1045.96,1195.89 1046.48,1221.02 1047,941.363 1047.52,862.297 1048.03,950.023 1048.55,946.639 1049.07,610.997 1049.59,672.788 1050.11,953.13 1050.62,1027.2 1051.14,1383.65 1051.66,1378.05 1052.18,663.684 1052.7,755.738 1053.22,1229.84 1053.73,1206.58 1054.25,914.839 1054.77,980.667 1055.29,843.562 1055.81,1000.69 1056.32,1109.35 1056.84,1158.34 1057.36,918.915 1057.88,964.752 1058.4,792.353 1058.91,902.475 1059.43,894.481 1059.95,1034.34 1060.47,897.734 1060.99,963.104 1061.51,987.963 1062.02,943.298 1062.54,1062.15 1063.06,1148.46 1063.58,985.235 1064.1,1084.58 1064.61,781.885 1065.13,882.796 1065.65,1201.86 1066.17,1230.13 1066.69,912.249 1067.21,855.32 1067.72,1084.73 1068.24,1148.44 1068.76,1006.04 1069.28,941.912 1069.8,1207.23 1070.31,1261.83 1070.83,987.133 1071.35,1034.65 1071.87,659.992 1072.39,800.783 1072.91,1048.34 1073.42,1108.06 1073.94,1111.9 1074.46,1163.08 1074.98,933.921 1075.5,1057.62 1076.01,1124.75 1076.53,1137.79 1077.05,1102.84 1077.57,1191.05 1078.09,1029.52 1078.6,948.569 1079.12,751.124 1079.64,804.547 1080.16,811.132 1080.68,893.494 1081.2,765.694 1081.71,889.367 1082.23,725.827 1082.75,871.299 1083.27,598.896 1083.79,733.348 1084.3,1123.43 1084.82,1094.66 1085.34,1237.89 1085.86,1222.67 1086.38,1057.95 1086.9,1145.41 1087.41,924.786 1087.93,1017.76 1088.45,1173.94 1088.97,1321.39 1089.49,1156.26 1090,1246.35 1090.52,858.795 1091.04,916.571 1091.56,741.805 1092.08,766.149 1092.6,976.262 1093.11,1077.79 1093.63,875.802 1094.15,941.229 1094.67,973.84 1095.19,973.406 1095.7,853.702 1096.22,873.464 1096.74,1108.43 1097.26,1148.2 1097.78,950.069 1098.29,1044.51 1098.81,755.267 1099.33,812.731 1099.85,894.854 1100.37,984.95 1100.89,1106.14 1101.4,1021.8 1101.92,745.594 1102.44,793.077 1102.96,618.113 1103.48,701.26 1103.99,1131.7 1104.51,1102.69 1105.03,781.262 1105.55,762.363 1106.07,996.818 1106.59,1030.07 1107.1,1126.61 1107.62,1119.83 1108.14,927.014 1108.66,1020.2 1109.18,1321.51 1109.69,1282.35 1110.21,846.841 1110.73,882.275 1111.25,982.59 1111.77,1151.89 1112.29,1017.56 1112.8,1068.36 1113.32,1128.27 1113.84,1192.92 1114.36,833.015 1114.88,811.385 1115.39,715.002 1115.91,797.856 1116.43,759.755 1116.95,833.493 1117.47,864.453 1117.98,884.497 1118.5,927.899 1119.02,1121.67 1119.54,1245.29 1120.06,1276 1120.58,1101 1121.09,1190.54 1121.61,833.376 1122.13,873.184 1122.65,781.116 1123.17,883.424 1123.68,1046.08 1124.2,1111.1 1124.72,903.101 1125.24,992.522 1125.76,914.13 1126.28,910.591 1126.79,1110.64 1127.31,1149.09 1127.83,789.508 1128.35,912.228 1128.87,750.944 1129.38,852.252 1129.9,801.118 1130.42,862.577 1130.94,830.4 1131.46,806.52 1131.98,700.872 1132.49,792.549 1133.01,1185.12 1133.53,1230.91 1134.05,860.543 1134.57,953.764 1135.08,750.162 1135.6,780.563 1136.12,1170.59 1136.64,1272.25 1137.16,1010.35 1137.67,964.406 1138.19,902.473 1138.71,996.89 1139.23,894.818 1139.75,1105.94 1140.27,1241.99 1140.78,1278.16 1141.3,833.174 1141.82,965.924 1142.34,722.14 1142.86,849.795 1143.37,977.673 1143.89,979.092 1144.41,821.553 1144.93,994.574 1145.45,641.673 1145.97,757.524 1146.48,1166.11 1147,1213.58 1147.52,876.262 1148.04,878.188 1148.56,973.344 1149.07,1027.18 1149.59,719.709 1150.11,845.391 1150.63,967.904 1151.15,1063.81 1151.67,736.043 1152.18,886.878 1152.7,1308.34 1153.22,1371.43 1153.74,1177.76 1154.26,1262.16 1154.77,540.571 1155.29,642.195 1155.81,622.346 1156.33,711.776 1156.85,972.355 1157.36,1045.46 1157.88,741.648 1158.4,780.048 1158.92,880.159 1159.44,978.16 1159.96,965.647 1160.47,988.529 1160.99,805.76 1161.51,910.145 1162.03,762.137 1162.55,812.281 1163.06,1095.73 1163.58,1186.38 1164.1,948.704 1164.62,933.385 1165.14,878.849 1165.66,898.679 1166.17,731.189 1166.69,828.255 1167.21,1193.68 1167.73,1169.49 1168.25,951.078 1168.76,1075.58 1169.28,867.605 1169.8,909.659 1170.32,766.21 1170.84,800.875 1171.36,983.728 1171.87,1087.36 1172.39,911.87 1172.91,959.351 1173.43,1054.01 1173.95,1136.58 1174.46,865.395 1174.98,1029.09 1175.5,903.127 1176.02,972.757 1176.54,929.701 1177.05,1071.71 1177.57,871.172 1178.09,942.855 1178.61,1176.08 1179.13,1276.94 1179.65,866.765 1180.16,1078.74 1180.68,752.601 1181.2,878.055 1181.72,1085.46 1182.24,1235.1 1182.75,1242.36 1183.27,1227.85 1183.79,1276.16 1184.31,1360.9 1184.83,960.581 1185.35,958.374 1185.86,938.051 1186.38,1033.36 1186.9,865.85 1187.42,907.603 1187.94,1231.49 1188.45,1184.43 1188.97,1200.3 1189.49,1321.76 1190.01,762.903 1190.53,750.472 1191.05,1057.17 1191.56,1236.63 1192.08,873.152 1192.6,934.721 1193.12,1106.1 1193.64,1037.59 1194.15,972.453 1194.67,1140.66 1195.19,877.876 1195.71,1090.13 1196.23,972.595 1196.74,1118.64 1197.26,995.008 1197.78,1092.05 1198.3,1013.27 1198.82,1115.28 1199.34,629.146 1199.85,770.525 1200.37,863.283 1200.89,953.937 1201.41,761.366 1201.93,763.539 1202.44,1067.67 1202.96,1127.72 1203.48,870.704 1204,909.763 1204.52,969.382 1205.04,1018.75 1205.55,957.071 1206.07,1124.41 1206.59,969.974 1207.11,995.811 1207.63,1089.73 1208.14,1102.16 1208.66,636.908 1209.18,748.287 1209.7,1171.84 1210.22,1195.62 1210.74,987.662 1211.25,962.547 1211.77,1030.91 1212.29,1112.54 1212.81,911.756 1213.33,1004.29 1213.84,969.666 1214.36,1093.41 1214.88,1008.47 1215.4,991.01 1215.92,595.047 1216.43,612.986 1216.95,1116.24 1217.47,1063.44 1217.99,790.729 1218.51,722.309 1219.03,997.405 1219.54,1152.96 1220.06,564.891 1220.58,543.231 1221.1,1126.85 1221.62,1143.69 1222.13,998.928 1222.65,1095.97 1223.17,1139.39 1223.69,1229.95 1224.21,1048.15 1224.73,1083.53 1225.24,851.775 1225.76,893.753 1226.28,1167.24 1226.8,1215.7 1227.32,623.19 1227.83,737.906 1228.35,915.574 1228.87,958.229 1229.39,883.119 1229.91,923.192 1230.43,824.959 1230.94,1028.88 1231.46,619.433 1231.98,635.025 1232.5,583.249 1233.02,715.958 1233.53,816.192 1234.05,840.213 1234.57,969.836 1235.09,1037.31 1235.61,997.897 1236.12,1036.67 1236.64,1024.44 1237.16,1056.98 1237.68,761.17 1238.2,811.612 1238.72,1019.94 1239.23,1097.5 1239.75,867.923 1240.27,953.913 1240.79,858.756 1241.31,892.89 1241.82,955.817 1242.34,1025.38 1242.86,1001.94 1243.38,1058.38 1243.9,1022.8 1244.42,1076.55 1244.93,644.45 1245.45,706.207 1245.97,487.99 1246.49,544.747 1247.01,705.841 1247.52,704.854 1248.04,786.017 1248.56,834.582 1249.08,1030.1 1249.6,1081.59 1250.12,852.516 1250.63,963.799 1251.15,914.643 1251.67,929.598 1252.19,1026.11 1252.71,1114.99 1253.22,1104.54 1253.74,1178.63 1254.26,946.658 1254.78,993.497 1255.3,855.408 1255.81,940.717 1256.33,741.185 1256.85,857.137 1257.37,736.261 1257.89,830.678 1258.41,1140.76 1258.92,1237.98 1259.44,1201.3 1259.96,1223.95 1260.48,758.453 1261,903.171 1261.51,714.352 1262.03,823.658 1262.55,745.408 1263.07,890.843 1263.59,668.602 1264.11,905.032 1264.62,780.907 1265.14,899.01 1265.66,1040.62 1266.18,1140.25 1266.7,954.116 1267.21,953.831 1267.73,932.03 1268.25,939.586 1268.77,1005.37 1269.29,1058.14 1269.81,1035.79 1270.32,1016.22 1270.84,958.065 1271.36,952.546 1271.88,1118.71 1272.4,1185.54 1272.91,1013.75 1273.43,966.52 1273.95,854.695 1274.47,914.85 1274.99,702.688 1275.5,826.996 1276.02,642.312 1276.54,763.447 1277.06,1006.93 1277.58,916.938 1278.1,868.283 1278.61,911.264 1279.13,1032.92 1279.65,1160.02 1280.17,1049.76 1280.69,1105.02 1281.2,896.335 1281.72,1010.5 1282.24,967.817 1282.76,1038.36 1283.28,1011.57 1283.8,1045.16 1284.31,1261.35 1284.83,1290.31 1285.35,990.364 1285.87,1118.65 1286.39,843.1 1286.9,1021.76 1287.42,910.924 1287.94,981.881 1288.46,1042.27 1288.98,1027.74 1289.5,828.39 1290.01,962.833 1290.53,1278.6 1291.05,1312.29 1291.57,881.094 1292.09,876.238 1292.6,1149.77 1293.12,1167.13 1293.64,740.448 1294.16,762.151 1294.68,1127.71 1295.19,1141.06 1295.71,743.838 1296.23,824.374 1296.75,1071.48 1297.27,1155.76 1297.79,907.51 1298.3,1020.46 1298.82,1027.43 1299.34,1015.1 1299.86,1083.23 1300.38,1065.96 1300.89,879.22 1301.41,919.582 1301.93,1019.32 1302.45,1058.94 1302.97,1122.58 1303.49,1184.41 1304,910.419 1304.52,955.118 1305.04,998.588 1305.56,1095.97 1306.08,651.533 1306.59,663.828 1307.11,777.194 1307.63,731.188 1308.15,867.994 1308.67,886.322 1309.19,1073.27 1309.7,1038.43 1310.22,819.038 1310.74,899.403 1311.26,1041.86 1311.78,1222.38 1312.29,978.793 1312.81,931.314 1313.33,989.908 1313.85,1043.33 1314.37,919.246 1314.88,876.249 1315.4,951.775 1315.92,1049.79 1316.44,1038.48 1316.96,1097.69 1317.48,882.878 1317.99,847.145 1318.51,1068.4 1319.03,1004.28 1319.55,793.526 1320.07,920.081 1320.58,1049.31 1321.1,1029.22 1321.62,832.547 1322.14,1013.42 1322.66,981.286 1323.18,941.189 1323.69,559.248 1324.21,682.406 1324.73,867.988 1325.25,980.976 1325.77,1166.31 1326.28,1188.34 1326.8,1024.59 1327.32,1127.56 1327.84,1227.8 1328.36,1233.54 1328.88,763.399 1329.39,785.497 1329.91,746.328 1330.43,867.768 1330.95,862.267 1331.47,945.334 1331.98,909.088 1332.5,930.28 1333.02,937.027 1333.54,1051.72 1334.06,755.346 1334.57,879.3 1335.09,966.773 1335.61,1019.17 1336.13,1269.63 1336.65,1299.86 1337.17,729.492 1337.68,753.791 1338.2,750.36 1338.72,822.106 1339.24,817.853 1339.76,873.952 1340.27,687.225 1340.79,656.991 1341.31,737.246 1341.83,791.011 1342.35,1217.37 1342.87,1226.84 1343.38,1131.32 1343.9,1169.78 1344.42,766.621 1344.94,847.327 1345.46,1077.84 1345.97,1066.25 1346.49,1125.78 1347.01,1144.6 1347.53,981.827 1348.05,1186.41 1348.57,896.683 1349.08,960.723 1349.6,724.261 1350.12,750.777 1350.64,797.237 1351.16,753.638 1351.67,793.909 1352.19,920.447 1352.71,779.926 1353.23,878.558 1353.75,1144.84 1354.26,1094.55 1354.78,834.421 1355.3,914.962 1355.82,729.212 1356.34,850.344 1356.86,832.519 1357.37,859.199 1357.89,667.141 1358.41,666.296 1358.93,1120.56 1359.45,1138.59 1359.96,935.842 1360.48,1003.27 1361,1276.06 1361.52,1285.76 1362.04,598.917 1362.56,731.814 1363.07,740.453 1363.59,720.045 1364.11,1038.22 1364.63,1047.06 1365.15,952.783 1365.66,928.676 1366.18,1038.25 1366.7,1194.29 1367.22,1315.21 1367.74,1280.73 1368.26,1084.89 1368.77,1119.24 1369.29,854.757 1369.81,864.698 1370.33,873.781 1370.85,932.014 1371.36,926.332 1371.88,957.631 1372.4,986.705 1372.92,1135.66 1373.44,871.086 1373.95,877.676 1374.47,451.437 1374.99,735.614 1375.51,790.139 1376.03,851.534 1376.55,988.447 1377.06,969.928 1377.58,935.458 1378.1,901.298 1378.62,857.6 1379.14,919.99 1379.65,825.194 1380.17,830.001 1380.69,710.497 1381.21,694.135 1381.73,349.28 1382.25,497.907 1382.76,1062.56 1383.28,1072.21 1383.8,1103.88 1384.32,1076.43 1384.84,891.819 1385.35,884.375 1385.87,959.748 1386.39,1131.74 1386.91,1173.56 1387.43,1152.35 1387.95,944.275 1388.46,1098.57 1388.98,1163.4 1389.5,1159.22 1390.02,864.004 1390.54,943.734 1391.05,748.26 1391.57,748.654 1392.09,743.961 1392.61,863.496 1393.13,1157.08 1393.64,1225.21 1394.16,1104.59 1394.68,1022.91 1395.2,911.464 1395.72,948.343 1396.24,966.371 1396.75,941.805 1397.27,897.356 1397.79,937.295 1398.31,1192.63 1398.83,1214.71 1399.34,717.533 1399.86,685.636 1400.38,914.785 1400.9,1031.49 1401.42,645.618 1401.94,637.473 1402.45,1064.84 1402.97,1054.7 1403.49,923.477 1404.01,970.83 1404.53,911.667 1405.04,903.869 1405.56,787.812 1406.08,692.357 1406.6,1212.06 1407.12,1260.07 1407.64,847.932 1408.15,1007.9 1408.67,1014.98 1409.19,1047.62 1409.71,1054.88 1410.23,1062.57 1410.74,485.539 1411.26,486.839 1411.78,636.744 1412.3,819.426 1412.82,1019.75 1413.33,1072.09 1413.85,1067.53 1414.37,1053.56 1414.89,766.632 1415.41,767.558 1415.93,838.756 1416.44,846.612 1416.96,1004.93 1417.48,983.381 1418,976.855 1418.52,1013.4 1419.03,1126.54 1419.55,1220.24 1420.07,592.861 1420.59,621.63 1421.11,1119.51 1421.63,1118.42 1422.14,882.856 1422.66,999.605 1423.18,1128.25 1423.7,1169.4 1424.22,863.668 1424.73,957.999 1425.25,983.2 1425.77,916.583 1426.29,979.549 1426.81,1032.1 1427.33,901.482 1427.84,973.264 1428.36,677.637 1428.88,668.418 1429.4,819.941 1429.92,923.771 1430.43,986.759 1430.95,1015.1 1431.47,896.214 1431.99,898.85 1432.51,647.939 1433.03,768.787 1433.54,1100.07 1434.06,1088.32 1434.58,874.073 1435.1,986.731 1435.62,1129.36 1436.13,1145.69 1436.65,887.587 1437.17,999.471 1437.69,1188.05 1438.21,1285.33 1438.72,1032.74 1439.24,1132.92 1439.76,816.308 1440.28,827.283 1440.8,992.528 1441.32,1012.64 1441.83,1092.45 1442.35,1090.11 1442.87,812.185 1443.39,963.229 1443.91,905.72 1444.42,1067.06 1444.94,1245.17 1445.46,1251.41 1445.98,714.129 1446.5,758.405 1447.02,750.113 1447.53,751.367 1448.05,988.632 1448.57,1014.86 1449.09,849.724 1449.61,867.898 1450.12,1254.66 1450.64,1336.93 1451.16,880.497 1451.68,945.603 1452.2,1084.77 1452.72,1196.47 1453.23,1246.54 1453.75,1350.98 1454.27,741.848 1454.79,841.827 1455.31,967.37 1455.82,1040.57 1456.34,1221.3 1456.86,1223.52 1457.38,969.357 1457.9,948.604 1458.41,622.018 1458.93,711.118 1459.45,982.272 1459.97,1035.39 1460.49,909.717 1461.01,959.364 1461.52,1025.44 1462.04,1056.9 1462.56,852.164 1463.08,1008.91 1463.6,980.282 1464.11,1027.63 1464.63,775.603 1465.15,814.7 1465.67,911.571 1466.19,935.653 1466.71,976.153 1467.22,1076.06 1467.74,1005.92 1468.26,984.678 1468.78,953.245 1469.3,997.475 1469.81,767.278 1470.33,820.201 1470.85,853.92 1471.37,977.826 1471.89,667.543 1472.41,671.081 1472.92,990.373 1473.44,972.039 1473.96,910.477 1474.48,951.209 1475,1026.76 1475.51,1130.97 1476.03,942.783 1476.55,941.54 1477.07,970.851 1477.59,964.69 1478.1,925.829 1478.62,973.201 1479.14,674.265 1479.66,662.166 1480.18,1053.16 1480.7,1087.18 1481.21,781.17 1481.73,903.399 1482.25,1016.32 1482.77,1097.51 1483.29,1113.33 1483.8,1226.02 1484.32,851.058 1484.84,883.55 1485.36,826.56 1485.88,874.317 1486.4,952.077 1486.91,996.667 1487.43,1185.99 1487.95,1186.47 1488.47,614.474 1488.99,692.763 1489.5,1030.9 1490.02,1035.18 1490.54,1098.48 1491.06,1127.85 1491.58,812.829 1492.1,869.58 1492.61,934.85 1493.13,983.294 1493.65,1039.91 1494.17,1000.89 1494.69,1256.56 1495.2,1332.29 1495.72,692.716 1496.24,753.994 1496.76,1236.22 1497.28,1366.33 1497.79,1188.13 1498.31,1335.94 1498.83,753.546 1499.35,763.362 1499.87,1205.78 1500.39,1158.51 1500.9,1018.24 1501.42,973.811 1501.94,837.827 1502.46,895.899 1502.98,1010.91 1503.49,943.112 1504.01,864.142 1504.53,832.159 1505.05,1104.1 1505.57,1121.19 1506.09,1152.82 1506.6,1170.18 1507.12,928.917 1507.64,995.905 1508.16,928.112 1508.68,1045.19 1509.19,1017.51 1509.71,1021.06 1510.23,1000.28 1510.75,1028.64 1511.27,788.613 1511.79,767.481 1512.3,1048.22 1512.82,1085.12 1513.34,1106.34 1513.86,1168.39 1514.38,980.686 1514.89,1029.68 1515.41,1076.3 1515.93,1138.16 1516.45,995.169 1516.97,1048.92 1517.48,860.897 1518,1071.06 1518.52,810.122 1519.04,805.501 1519.56,746.587 1520.08,803.174 1520.59,596.485 1521.11,799.256 1521.63,583.651 1522.15,741.997 1522.67,1009.87 1523.18,913.776 1523.7,1322.65 1524.22,1362.3 1524.74,850.283 1525.26,884.325 1525.78,972.494 1526.29,997.1 1526.81,678.235 1527.33,723.604 1527.85,1106.08 1528.37,1072.87 1528.88,904.528 1529.4,950.406 1529.92,1200.5 1530.44,1179.81 1530.96,766.988 1531.48,791.779 1531.99,757.783 1532.51,902.384 1533.03,1146.88 1533.55,1167.62 1534.07,1122.12 1534.58,1068.76 1535.1,859.349 1535.62,799.804 1536.14,1097.45 1536.66,1112.7 1537.17,1047.9 1537.69,1077.83 1538.21,893.823 1538.73,928.547 1539.25,971.874 1539.77,926.424 1540.28,848.957 1540.8,953.436 1541.32,981.932 1541.84,1125.03 1542.36,785.815 1542.87,788.337 1543.39,934.778 1543.91,1031.17 1544.43,1075.16 1544.95,1060.49 1545.47,1000.47 1545.98,1079.12 1546.5,922.847 1547.02,918.082 1547.54,1213.62 1548.06,1339.41 1548.57,993.582 1549.09,1049.8 1549.61,903.352 1550.13,995.269 1550.65,907.165 1551.17,925.867 1551.68,835.895 1552.2,866.905 1552.72,750.755 1553.24,752.047 1553.76,780.504 1554.27,820.266 1554.79,793.351 1555.31,893.682 1555.83,964.177 1556.35,1107.12 1556.86,919.293 1557.38,1006.99 1557.9,1117.07 1558.42,1158.58 1558.94,941.302 1559.46,1015.64 1559.97,1051.13 1560.49,1140.35 1561.01,980.53 1561.53,955.976 1562.05,898.498 1562.56,912.044 1563.08,1026.1 1563.6,1132.98 1564.12,959.346 1564.64,1029.66 1565.16,653.388 1565.67,907.334 1566.19,833.918 1566.71,843.808 1567.23,979.215 1567.75,1053.62 1568.26,758.802 1568.78,813.234 1569.3,514.33 1569.82,700.587 1570.34,724.559 1570.86,724.668 1571.37,779.965 1571.89,1004.05 1572.41,908.023 1572.93,928.397 1573.45,931.971 1573.96,975.067 1574.48,788.172 1575,867.162 1575.52,1097.75 1576.04,1255.71 1576.55,770.362 1577.07,942.839 1577.59,1015.76 1578.11,970.539 1578.63,568.882 1579.15,622.759 1579.66,878.971 1580.18,870.846 1580.7,1043.85 1581.22,1124.59 1581.74,918.878 1582.25,915.57 1582.77,1080.24 1583.29,1164.24 1583.81,915.997 1584.33,1075.63 1584.85,1124.01 1585.36,1166.38 1585.88,996.184 1586.4,999.708 1586.92,1092.24 1587.44,1182.51 1587.95,748.404 1588.47,751.499 1588.99,721.37 1589.51,838.936 1590.03,905.445 1590.55,848.334 1591.06,1060.32 1591.58,1115.59 1592.1,1095.44 1592.62,1179.93 1593.14,406.969 1593.65,492.169 1594.17,1022.02 1594.69,1122.05 1595.21,1052.32 1595.73,1066.99 1596.24,1125.36 1596.76,1143.75 1597.28,681.45 1597.8,792.948 1598.32,713.111 1598.84,809.955 1599.35,1216.44 1599.87,1239.98 1600.39,794.812 1600.91,720.184 1601.43,875.138 1601.94,860.07 1602.46,1068.31 1602.98,1159.74 1603.5,894.161 1604.02,1027.95 1604.54,745.375 1605.05,749.182 1605.57,1128.31 1606.09,1243.61 1606.61,1045.5 1607.13,1105.99 1607.64,1164.39 1608.16,1236.55 1608.68,952.048 1609.2,1069.25 1609.72,795.065 1610.24,875.928 1610.75,806.671 1611.27,811.059 1611.79,1032.32 1612.31,1137.54 1612.83,927.368 1613.34,970.373 1613.86,802.416 1614.38,812.537 1614.9,851.015 1615.42,1003.47 1615.93,902.427 1616.45,994.472 1616.97,787.714 1617.49,862.225 1618.01,616.691 1618.53,668.532 1619.04,1062.63 1619.56,1075.51 1620.08,968.794 1620.6,1021.71 1621.12,1189.39 1621.63,1115.19 1622.15,998.427 1622.67,999.356 1623.19,993 1623.71,1214.65 1624.23,652.647 1624.74,606.353 1625.26,854.224 1625.78,911.241 1626.3,750.937 1626.82,870.47 1627.33,754.835 1627.85,756.236 1628.37,840.087 1628.89,971.002 1629.41,887.51 1629.93,927.206 1630.44,838.385 1630.96,969.917 1631.48,908.914 1632,927.163 1632.52,449.021 1633.03,540.312 1633.55,746.537 1634.07,828.476 1634.59,864.91 1635.11,827.475 1635.62,819.822 1636.14,824.135 1636.66,991.174 1637.18,971.938 1637.7,995.201 1638.22,1023.22 1638.73,1040.88 1639.25,1094.13 1639.77,931.521 1640.29,830.66 1640.81,909.507 1641.32,882.903 1641.84,1073.39 1642.36,1132.41 1642.88,1056.17 1643.4,1062.57 1643.92,857.281 1644.43,967.362 1644.95,1042.89 1645.47,1096.49 1645.99,949.832 1646.51,927.667 1647.02,899.556 1647.54,939.851 1648.06,1002.1 1648.58,952.726 1649.1,1054.65 1649.62,1139.12 1650.13,877.401 1650.65,1080.68 1651.17,999.544 1651.69,1023.88 1652.21,591.968 1652.72,651.179 1653.24,747.982 1653.76,831.284 1654.28,841.921 1654.8,925.009 1655.31,876.458 1655.83,1008.58 1656.35,514.02 1656.87,803.821 1657.39,1104.11 1657.91,1190.48 1658.42,1171.61 1658.94,1218.98 1659.46,939.242 1659.98,934.609 1660.5,868.265 1661.01,923.152 1661.53,916.356 1662.05,955.165 1662.57,662.288 1663.09,769.016 1663.61,920.819 1664.12,1037.85 1664.64,915.193 1665.16,912.55 1665.68,876.516 1666.2,890.54 1666.71,935.72 1667.23,933.857 1667.75,893.471 1668.27,1126.01 1668.79,1016.19 1669.31,1023.35 1669.82,1034.87 1670.34,1041.63 1670.86,984.008 1671.38,1007.88 1671.9,484.921 1672.41,439.647 1672.93,895.69 1673.45,940.016 1673.97,1172.56 1674.49,1168.27 1675,899.891 1675.52,963.393 1676.04,1067.07 1676.56,1128.79 1677.08,972.321 1677.6,971.412 1678.11,1069.02 1678.63,1256.39 1679.15,716.628 1679.67,737.841 1680.19,1018.29 1680.7,972.372 1681.22,705.604 1681.74,747.836 1682.26,1137.96 1682.78,1131.9 1683.3,999.137 1683.81,1080.6 1684.33,1112.35 1684.85,1200.21 1685.37,1046.5 1685.89,1031.34 1686.4,1179.62 1686.92,1321.5 1687.44,886.657 1687.96,974.225 1688.48,969.681 1689,1065.41 1689.51,979 1690.03,981.092 1690.55,463.299 1691.07,449.94 1691.59,982.221 1692.1,981.831 1692.62,918.823 1693.14,938.199 1693.66,882.114 1694.18,1044.26 1694.69,1244.88 1695.21,1273.89 1695.73,892.615 1696.25,902.298 1696.77,941.158 1697.29,975.218 1697.8,937.868 1698.32,1008.9 1698.84,1025.03 1699.36,1076.48 1699.88,898.397 1700.39,965.117 1700.91,855.348 1701.43,1008.72 1701.95,1101.4 1702.47,1087.49 1702.99,658.34 1703.5,746.782 1704.02,1280.11 1704.54,1366.73 1705.06,923.272 1705.58,993.764 1706.09,740.595 1706.61,759.209 1707.13,894.085 1707.65,1077.81 1708.17,1018.07 1708.69,1094.36 1709.2,714.811 1709.72,806.567 1710.24,950.25 1710.76,1094.04 1711.28,623.636 1711.79,660.437 1712.31,655.503 1712.83,765.292 1713.35,1158.93 1713.87,1301.94 1714.38,1032.32 1714.9,1059.77 1715.42,732.294 1715.94,838.032 1716.46,1001.34 1716.98,1108.98 1717.49,1042.52 1718.01,1127.34 1718.53,520.765 1719.05,600.493 1719.57,804.854 1720.08,860.71 1720.6,813.467 1721.12,992.454 1721.64,950.531 1722.16,1020.29 1722.68,1036.27 1723.19,1063.86 1723.71,741.592 1724.23,887.572 1724.75,732.069 1725.27,701.378 1725.78,976.189 1726.3,1024.33 1726.82,1043.71 1727.34,1154.55 1727.86,878.813 1728.38,917.725 1728.89,1096.69 1729.41,1038.85 1729.93,836.109 1730.45,867.348 1730.97,1010.77 1731.48,989.684 1732,887.661 1732.52,879.35 1733.04,1092.13 1733.56,1127.68 1734.07,1037.82 1734.59,1115.71 1735.11,779.792 1735.63,787.456 1736.15,1061.12 1736.67,1169.22 1737.18,903.157 1737.7,967.4 1738.22,621.836 1738.74,759.036 1739.26,755.367 1739.77,788.121 1740.29,694.038 1740.81,765.154 1741.33,826.723 1741.85,912.289 1742.37,890.618 1742.88,1074.45 1743.4,980.372 1743.92,980.784 1744.44,845.341 1744.96,809.568 1745.47,1140.55 1745.99,1253.81 1746.51,912.729 1747.03,875.603 1747.55,712.013 1748.07,784.488 1748.58,886.576 1749.1,901.45 1749.62,1255.77 1750.14,1190.19 1750.66,520.278 1751.17,524.212 1751.69,900.383 1752.21,939.259 1752.73,954.899 1753.25,1024.17 1753.76,849.979 1754.28,958.558 1754.8,971.872 1755.32,1092.89 1755.84,1002.24 1756.36,983.477 1756.87,1000.91 1757.39,1002.78 1757.91,1235.32 1758.43,1315.66 1758.95,974.779 1759.46,1144.52 1759.98,1064.68 1760.5,1125.61 1761.02,917.742 1761.54,913.434 1762.06,952.199 1762.57,998.313 1763.09,912.905 1763.61,954.1 1764.13,976.347 1764.65,1052.74 1765.16,1024.52 1765.68,1154.49 1766.2,651.241 1766.72,757.478 1767.24,704.229 1767.76,746.95 1768.27,1001.43 1768.79,1028.78 1769.31,851.716 1769.83,787.329 1770.35,737.358 1770.86,750.291 1771.38,819.403 1771.9,1024.29 1772.42,817.856 1772.94,901.175 1773.45,1036.33 1773.97,1138.07 1774.49,965.868 1775.01,962.372 1775.53,1002.66 1776.05,1054.73 1776.56,1017.94 1777.08,1170.58 1777.6,1105.42 1778.12,1168.64 1778.64,920.008 1779.15,991.696 1779.67,734.583 1780.19,826.273 1780.71,698.336 1781.23,761.618 1781.75,926.764 1782.26,969.592 1782.78,752.506 1783.3,806.865 1783.82,909.322 1784.34,898.437 1784.85,1116.7 1785.37,1131.57 1785.89,822.035 1786.41,929.13 1786.93,731.023 1787.45,722.468 1787.96,1132.35 1788.48,1148.38 1789,964.17 1789.52,1084.26 1790.04,1199.38 1790.55,1222.25 1791.07,890.349 1791.59,960.604 1792.11,797.771 1792.63,873.391 1793.14,1003.44 1793.66,957.103 1794.18,885.997 1794.7,996.591 1795.22,1091.84 1795.74,1181.27 1796.25,797.368 1796.77,950.279 1797.29,1049.08 1797.81,935.463 1798.33,1056.61 1798.84,1041.98 1799.36,1151.88 1799.88,1144.1 1800.4,1269.97 1800.92,1330.03 1801.44,772.836 1801.95,917.218 1802.47,998.098 1802.99,1050.38 1803.51,960.917 1804.03,1107.29 1804.54,792.743 1805.06,943.446 1805.58,1004.52 1806.1,984.239 1806.62,927.864 1807.14,1039.88 1807.65,771.977 1808.17,895.302 1808.69,1050.32 1809.21,1058.77 1809.73,948.061 1810.24,1024.69 1810.76,791.544 1811.28,918.224 1811.8,966.438 1812.32,886.8 1812.84,1053.75 1813.35,1086.12 1813.87,905.916 1814.39,957.552 1814.91,920.093 1815.43,985.134 1815.94,839.038 1816.46,967.144 1816.98,888.159 1817.5,1022.52 1818.02,1016.31 1818.53,999.2 1819.05,1118.6 1819.57,1207.84 1820.09,999.865 1820.61,954.537 1821.13,934.915 1821.64,1007.13 1822.16,725.063 1822.68,793.881 1823.2,919.301 1823.72,987.713 1824.23,1027.09 1824.75,981.768 1825.27,669.938 1825.79,710.517 1826.31,619.197 1826.83,775.169 1827.34,938.267 1827.86,945.951 1828.38,841.509 1828.9,830.634 1829.42,885.964 1829.93,851.38 1830.45,1089.17 1830.97,1080.45 1831.49,974.109 1832.01,993.415 1832.53,1017.89 1833.04,1069.58 1833.56,944.052 1834.08,938.32 1834.6,817.39 1835.12,946.251 1835.63,1009.96 1836.15,1016.97 1836.67,737.372 1837.19,907.61 1837.71,1166.34 1838.22,1143.62 1838.74,1005.72 1839.26,956.635 1839.78,654.693 1840.3,640.348 1840.82,982.44 1841.33,986.049 1841.85,1118.56 1842.37,1090.77 1842.89,905.774 1843.41,871.018 1843.92,978.501 1844.44,1024.2 1844.96,734.94 1845.48,900.617 1846,977.715 1846.52,904.459 1847.03,848.566 1847.55,980.973 1848.07,1046.93 1848.59,1060.13 1849.11,708.86 1849.62,800.536 1850.14,1030.89 1850.66,1086.79 1851.18,809.832 1851.7,840.126 1852.22,1052.2 1852.73,1062.37 1853.25,873.773 1853.77,932.392 1854.29,940.28 1854.81,989.357 1855.32,1083.8 1855.84,1021.99 1856.36,849.111 1856.88,961.646 1857.4,712.137 1857.91,751.407 1858.43,915.9 1858.95,1030.85 1859.47,751.288 1859.99,901.336 1860.51,928.5 1861.02,1044.55 1861.54,1074.2 1862.06,1105.72 1862.58,674.341 1863.1,755.193 1863.61,970.894 1864.13,1070.76 1864.65,829.788 1865.17,934.85 1865.69,870.006 1866.21,930.825 1866.72,880.385 1867.24,893.961 1867.76,990.812 1868.28,939.764 1868.8,913.473 1869.31,1046.76 1869.83,1141.72 1870.35,1332.23 1870.87,883.886 1871.39,882.112 1871.91,1058.54 1872.42,1068.1 1872.94,933.52 1873.46,923.344 1873.98,1034.28 1874.5,1093.36 1875.01,845.947 1875.53,951.729 1876.05,1252.02 1876.57,1306.53 1877.09,852.069 1877.6,875.811 1878.12,955.535 1878.64,980.936 1879.16,666.193 1879.68,752.445 1880.2,940.357 1880.71,938.227 1881.23,1010.66 1881.75,1035.61 1882.27,976.881 1882.79,1026.39 1883.3,1004.15 1883.82,1024.79 1884.34,814.265 1884.86,948.711 1885.38,914.453 1885.9,932.167 1886.41,799.54 1886.93,788.267 1887.45,923.166 1887.97,1032.21 1888.49,832.648 1889,890.264 1889.52,801.758 1890.04,810.06 1890.56,1101.07 1891.08,1189.14 1891.6,775.533 1892.11,951.918 1892.63,952.602 1893.15,994.525 1893.67,773.403 1894.19,847.595 1894.7,943.438 1895.22,1011.18 1895.74,744.413 1896.26,913.637 1896.78,930.586 1897.29,928.785 1897.81,1083.12 1898.33,1118.59 1898.85,889.978 1899.37,1002.67 1899.89,894.461 1900.4,912.012 1900.92,1020.15 1901.44,998.494 1901.96,871.655 1902.48,882.027 1902.99,812.18 1903.51,818.651 1904.03,971.766 1904.55,1021.09 1905.07,840.939 1905.59,876.148 1906.1,892.206 1906.62,956.704 1907.14,682.317 1907.66,875.289 1908.18,1029.34 1908.69,1210.3 1909.21,837.327 1909.73,966.425 1910.25,926.327 1910.77,948.437 1911.29,919.88 1911.8,916.111 1912.32,816.64 1912.84,896.708 1913.36,1243.38 1913.88,1223.2 1914.39,847.292 1914.91,908.458 1915.43,1183.95 1915.95,1156.81 1916.47,929.172 1916.98,1022.9 1917.5,1049.95 1918.02,1055.25 1918.54,931.385 1919.06,976.891 1919.58,1027.72 1920.09,1013.41 1920.61,795.387 1921.13,850.578 1921.65,1115.03 1922.17,1059.45 1922.68,1067.29 1923.2,1101.93 1923.72,937.632 1924.24,957.923 1924.76,992.135 1925.28,1162.39 1925.79,859.352 1926.31,825.003 1926.83,949.249 1927.35,895.596 1927.87,955.92 1928.38,979.358 1928.9,1102.9 1929.42,1114.56 1929.94,979.587 1930.46,1027.92 1930.98,1013.24 1931.49,989.576 1932.01,935.549 1932.53,1003.89 1933.05,882.098 1933.57,969.03 1934.08,1189.31 1934.6,1187.65 1935.12,1070.22 1935.64,1127.53 1936.16,709.41 1936.67,847.597 1937.19,870.686 1937.71,1032.29 1938.23,951.625 1938.75,1020.97 1939.27,1164.23 1939.78,1137.47 1940.3,1029.88 1940.82,1087.25 1941.34,893.252 1941.86,980.8 1942.37,830.59 1942.89,914.528 1943.41,735.487 1943.93,731.265 1944.45,982.575 1944.97,1051 1945.48,905.6 1946,942.025 1946.52,950.913 1947.04,994.824 1947.56,1031.65 1948.07,1063.3 1948.59,1007.87 1949.11,1034.28 1949.63,929.521 1950.15,996.848 1950.67,1088.02 1951.18,1048.84 1951.7,808.34 1952.22,956.682 1952.74,1031.52 1953.26,1184.23 1953.77,806.688 1954.29,883.911 1954.81,905.83 1955.33,872.217 1955.85,951.582 1956.36,901.818 1956.88,833.519 1957.4,965.062 1957.92,939.423 1958.44,1032.07 1958.96,849.991 1959.47,985.791 1959.99,1273.26 1960.51,1306.5 1961.03,826.591 1961.55,735.709 1962.06,784.614 1962.58,882.713 1963.1,788.372 1963.62,767.94 1964.14,1119.05 1964.66,1204.32 1965.17,1034.5 1965.69,1065.23 1966.21,930.202 1966.73,969.189 1967.25,965.047 1967.76,890.05 1968.28,882.422 1968.8,918.671 1969.32,773.476 1969.84,852.016 1970.36,1058.02 1970.87,1043.6 1971.39,972.058 1971.91,997.295 1972.43,636.664 1972.95,774.89 1973.46,868.984 1973.98,909.268 1974.5,836.922 1975.02,845.694 1975.54,696.46 1976.05,766.256 1976.57,787.504 1977.09,988.207 1977.61,1087.03 1978.13,1098.05 1978.65,937.274 1979.16,1005.38 1979.68,800.444 1980.2,833.594 1980.72,1093.39 1981.24,1032.97 1981.75,888.482 1982.27,977.636 1982.79,711.47 1983.31,781.037 1983.83,868.327 1984.35,955.699 1984.86,909.646 1985.38,950.321 1985.9,1022.05 1986.42,1021.54 1986.94,1139.21 1987.45,1134.29 1987.97,881.577 1988.49,941.961 1989.01,887.909 1989.53,975.079 1990.05,1016.24 1990.56,1071.59 1991.08,1040.99 1991.6,979.238 1992.12,1034.73 1992.64,1089.93 1993.15,864.909 1993.67,753.813 1994.19,943.628 1994.71,1034.52 1995.23,847.366 1995.74,855.677 1996.26,855.805 1996.78,892.704 1997.3,1199.77 1997.82,1320.27 1998.34,777.76 1998.85,891.616 1999.37,1052.79 1999.89,990.27 2000.41,926.702 2000.93,1145.67 2001.44,1191.21 2001.96,1245.31 2002.48,1092.88 2003,1127.69 2003.52,779.259 2004.04,857.89 2004.55,1072.77 2005.07,1082.5 2005.59,1018.24 2006.11,1070.06 2006.63,865.605 2007.14,926.198 2007.66,1071.74 2008.18,1057.95 2008.7,959.873 2009.22,1082.32 2009.74,916.479 2010.25,939.717 2010.77,998.631 2011.29,1024.08 2011.81,1078.5 2012.33,1087.42 2012.84,719.052 2013.36,854.584 2013.88,799.326 2014.4,916.333 2014.92,857.789 2015.43,1088.06 2015.95,765.692 2016.47,792.189 2016.99,867.608 2017.51,809.615 2018.03,1031.88 2018.54,1113.82 2019.06,1214.29 2019.58,1312.79 2020.1,957.181 2020.62,953.234 2021.13,1175.82 2021.65,1147.07 2022.17,725.994 2022.69,819.724 2023.21,1232.33 2023.73,1260.59 2024.24,900.275 2024.76,915.216 2025.28,930.574 2025.8,996.174 2026.32,1096.36 2026.83,1130.64 2027.35,860.184 2027.87,793.608 2028.39,897.788 2028.91,866.562 2029.43,950.748 2029.94,942.406 2030.46,996.753 2030.98,1121.25 2031.5,818.511 2032.02,970.638 2032.53,1004.48 2033.05,1078.14 2033.57,916.339 2034.09,982.451 2034.61,801.566 2035.12,907.151 2035.64,807.025 2036.16,837.136 2036.68,976.457 2037.2,1094.8 2037.72,1089.61 2038.23,1173.23 2038.75,1337.06 2039.27,1377.95 2039.79,791.245 2040.31,911.115 2040.82,779.112 2041.34,885.595 2041.86,691.57 2042.38,729.218 2042.9,1112.22 2043.42,1104.7 2043.93,1149.22 2044.45,1123.94 2044.97,681.439 2045.49,673.414 2046.01,1030.74 2046.52,1061.99 2047.04,1028.13 2047.56,1031.94 2048.08,943.741 2048.6,916.782 2049.12,972.05 2049.63,974.069 2050.15,874.995 2050.67,914.261 2051.19,815.651 2051.71,893.188 2052.22,1050.31 2052.74,1028.99 2053.26,882.492 2053.78,821.977 2054.3,871.342 2054.81,935.192 2055.33,837.656 2055.85,966.64 2056.37,900.434 2056.89,897.236 2057.41,818.038 2057.92,825.619 2058.44,1160.97 2058.96,1256.72 2059.48,861.194 2060,921.384 2060.51,960.858 2061.03,1008.12 2061.55,953.981 2062.07,1070.82 2062.59,1039.73 2063.11,1000.88 2063.62,1012.13 2064.14,946.202 2064.66,902.533 2065.18,872.625 2065.7,878.053 2066.21,892.69 2066.73,832.015 2067.25,838.053 2067.77,1244.81 2068.29,1224.68 2068.81,686.864 2069.32,771.767 2069.84,949.165 2070.36,972.212 2070.88,1184.62 2071.4,1282.34 2071.91,827.412 2072.43,907.513 2072.95,991.703 2073.47,990.877 2073.99,892.284 2074.5,934.145 2075.02,890.121 2075.54,975.787 2076.06,978.779 2076.58,1104.13 2077.1,1146.9 2077.61,1163.98 2078.13,759.753 2078.65,904.042 2079.17,896.978 2079.69,889.97 2080.2,971.668 2080.72,991.841 2081.24,785.884 2081.76,838.122 2082.28,841.724 2082.8,829.325 2083.31,1027.08 2083.83,1012.3 2084.35,932.209 2084.87,975.03 2085.39,674.748 2085.9,736.896 2086.42,667.096 2086.94,731.242 2087.46,1075.45 2087.98,1109.56 2088.5,1026.59 2089.01,1056.27 2089.53,804.445 2090.05,788.756 2090.57,921.312 2091.09,1008.74 2091.6,846.18 2092.12,883.286 2092.64,910.975 2093.16,1074.21 2093.68,1039.5 2094.19,1169.72 2094.71,797.54 2095.23,823.761 2095.75,833.772 2096.27,983.809 2096.79,947.908 2097.3,1089.77 2097.82,895.659 2098.34,1006.06 2098.86,926.191 2099.38,896.715 2099.89,854.242 2100.41,862.304 2100.93,1025.43 2101.45,1030.35 2101.97,972 2102.49,970.03 2103,1072.95 2103.52,1011.24 2104.04,890.752 2104.56,1174.41 2105.08,1043.37 2105.59,1025.68 2106.11,855.671 2106.63,756.636 2107.15,907.942 2107.67,948.539 2108.19,928.416 2108.7,900.458 2109.22,926.565 2109.74,991.781 2110.26,1002.77 2110.78,1178.37 2111.29,655.523 2111.81,761.812 2112.33,752.102 2112.85,748.063 2113.37,934.282 2113.88,905.023 2114.4,733.694 2114.92,852.999 2115.44,962.147 2115.96,985.05 2116.48,894.674 2116.99,928.913 2117.51,1078.19 2118.03,1063.39 2118.55,746.341 2119.07,837.236 2119.58,906.674 2120.1,951.401 2120.62,1008.72 2121.14,1137.31 2121.66,996.001 2122.18,921.388 2122.69,972.128 2123.21,1089.74 2123.73,770.556 2124.25,892.542 2124.77,865.929 2125.28,950.967 2125.8,1169.4 2126.32,1214.04 2126.84,877.188 2127.36,910.541 2127.88,704.837 2128.39,749.231 2128.91,810.589 2129.43,962.765 2129.95,885.79 2130.47,950.573 2130.98,1230.27 2131.5,1285.94 2132.02,1077.08 2132.54,1063.87 2133.06,1142.07 2133.57,1236.17 2134.09,1155.33 2134.61,1125.4 2135.13,1054.77 2135.65,1034.72 2136.17,1067.43 2136.68,1099.72 2137.2,1043.6 2137.72,1150.79 2138.24,560.495 2138.76,733.702 2139.27,783.871 2139.79,836.392 2140.31,876.79 2140.83,1009.42 2141.35,1002.1 2141.87,977.975 2142.38,1114.79 2142.9,1142.69 2143.42,864.467 2143.94,824.033 2144.46,967.88 2144.97,991.685 2145.49,611 2146.01,788.572 2146.53,927.105 2147.05,926.338 2147.57,1058.36 2148.08,1185.01 2148.6,1058.02 2149.12,1087.6 2149.64,1088.31 2150.16,1172.69 2150.67,981.648 2151.19,1105.67 2151.71,838.647 2152.23,898.844 2152.75,1331.01 2153.26,1322.3 2153.78,949.134 2154.3,973.294 2154.82,1154.19 2155.34,1272.05 2155.86,1049.05 2156.37,1105.49 2156.89,771.388 2157.41,841.017 2157.93,762.252 2158.45,832.736 2158.96,900.761 2159.48,915.49 2160,1014.39 2160.52,1022.08 2161.04,771.938 2161.56,938.314 2162.07,1045.74 2162.59,1123.55 2163.11,781.431 2163.63,875.496 2164.15,825.972 2164.66,831.654 2165.18,988.171 2165.7,1014.57 2166.22,568.99 2166.74,550.004 2167.26,962.222 2167.77,959.228 2168.29,1049.72 2168.81,1035.53 2169.33,1045.74 2169.85,1099.1 2170.36,908.563 2170.88,973.026 2171.4,858.319 2171.92,940.961 2172.44,796.787 2172.95,862.026 2173.47,968.39 2173.99,1093.99 2174.51,1133.42 2175.03,1173.62 2175.55,505.739 2176.06,646.533 2176.58,1025.43 2177.1,935.821 2177.62,1021.52 2178.14,1073.27 2178.65,932.528 2179.17,920.945 2179.69,675.819 2180.21,740.286 2180.73,903.521 2181.25,989.167 2181.76,699.216 2182.28,791.244 2182.8,899.037 2183.32,939.247 2183.84,981.757 2184.35,989.672 2184.87,932.362 2185.39,1077.47 2185.91,1056.95 2186.43,1038.53 2186.95,991.284 2187.46,970.062 2187.98,906.981 2188.5,995.093 2189.02,1001.62 2189.54,1102.55 2190.05,711.987 2190.57,707.349 2191.09,812.938 2191.61,770.411 2192.13,928.202 2192.65,943.211 2193.16,1078.27 2193.68,1233.95 2194.2,1032.31 2194.72,1062.41 2195.24,1010.42 2195.75,1086.92 2196.27,789.084 2196.79,778.091 2197.31,810.747 2197.83,841.452 2198.34,658.669 2198.86,821.334 2199.38,1002.35 2199.9,974.544 2200.42,825.227 2200.94,933.304 2201.45,1033.97 2201.97,1090.14 2202.49,1055.14 2203.01,1089.26 2203.53,1130.19 2204.04,1166.32 2204.56,845.249 2205.08,949.589 2205.6,961.813 2206.12,919.553 2206.64,920.101 2207.15,1011.2 2207.67,856.997 2208.19,965.037 2208.71,867.224 2209.23,903.951 2209.74,879.716 2210.26,888.349 2210.78,512.463 2211.3,598.646 2211.82,621.588 2212.34,690.682 2212.85,814.639 2213.37,890.737 2213.89,874.615 2214.41,860.613 2214.93,812.189 2215.44,913.027 2215.96,830.732 2216.48,811.677 2217,884.244 2217.52,1072.11 2218.03,908.245 2218.55,900.096 2219.07,820.688 2219.59,801.631 2220.11,826.409 2220.63,815.134 2221.14,789.371 2221.66,816.227 2222.18,846.372 2222.7,881.8 2223.22,805.716 2223.73,786.247 2224.25,856.362 2224.77,837.476 2225.29,547.666 2225.81,585.155 2226.33,990.19 2226.84,992.866 2227.36,946.265 2227.88,996.512 2228.4,800.111 2228.92,877.108 2229.43,551.651 2229.95,650.211 2230.47,1158.11 2230.99,1131.77 2231.51,870.401 2232.03,951.979 2232.54,858.374 2233.06,992.742 2233.58,811.756 2234.1,840.444 2234.62,825.317 2235.13,927.129 2235.65,1047.95 2236.17,1127.73 2236.69,882.587 2237.21,969.011 2237.72,1115.98 2238.24,1204.96 2238.76,958.816 2239.28,1003.4 2239.8,862.315 2240.32,898.502 2240.83,845.485 2241.35,850.638 2241.87,743.944 2242.39,734.721 2242.91,1045.58 2243.42,1097.8 2243.94,784.094 2244.46,838.792 2244.98,1084.45 2245.5,1025 2246.02,957.887 2246.53,974.759 2247.05,1028.22 2247.57,1103.77 2248.09,643.3 2248.61,725.946 2249.12,833.7 2249.64,843.808 2250.16,601.435 2250.68,661.212 2251.2,1065.09 2251.72,1122.39 2252.23,958.088 2252.75,927.348 2253.27,1026.4 2253.79,1081.14 2254.31,862.941 2254.82,994.754 2255.34,845.844 2255.86,953.831 2256.38,847.128 2256.9,953.123 2257.41,1115.17 2257.93,1081.34 2258.45,1014.23 2258.97,1016.99 2259.49,733.532 2260.01,806.457 2260.52,986.411 2261.04,1012.78 2261.56,732.949 2262.08,726.669 2262.6,1083.55 2263.11,1145.68 2263.63,829.459 2264.15,958.069 2264.67,876.374 2265.19,936.655 2265.71,1124.14 2266.22,1114.46 2266.74,875.655 2267.26,960.801 2267.78,873.908 2268.3,961.486 2268.81,1050.04 2269.33,1131.31 2269.85,1083.28 2270.37,1071.33 2270.89,796.614 2271.41,775.291 2271.92,840.012 2272.44,891.701 2272.96,799.817 2273.48,831.024 2274,500.357 2274.51,472.247 2275.03,1417.17 2275.55,1422.45 2276.07,770.482 2276.59,865.364 2277.1,991.684 2277.62,1091.18 2278.14,1182.21 2278.66,1180.95 2279.18,1084.2 2279.7,1091.08 2280.21,664.585 2280.73,725.554 2281.25,892.694 2281.77,911.069 2282.29,1142.98 2282.8,1158.41 2283.32,1051.98 2283.84,1058.46 2284.36,1121.41 2284.88,1160.47 2285.4,999.985 2285.91,1021.05 2286.43,985.552 2286.95,1059.36 2287.47,771.124 2287.99,818.583 2288.5,902.747 2289.02,939.642 2289.54,824.127 2290.06,879.377 2290.58,824.219 "/>
<path clip-path="url(#clip340)" d="M2007.39 198.898 L2279.52 198.898 L2279.52 95.2176 L2007.39 95.2176  Z" fill="#ffffff" fill-rule="evenodd" fill-opacity="1"/>
<polyline clip-path="url(#clip340)" style="stroke:#000000; stroke-linecap:round; stroke-linejoin:round; stroke-width:4; stroke-opacity:1; fill:none" points="2007.39,198.898 2279.52,198.898 2279.52,95.2176 2007.39,95.2176 2007.39,198.898 "/>
<polyline clip-path="url(#clip340)" style="stroke:#009af9; stroke-linecap:round; stroke-linejoin:round; stroke-width:4; stroke-opacity:1; fill:none" points="2031.8,147.058 2178.27,147.058 "/>
<path clip-path="url(#clip340)" d="M2216.52 166.745 Q2214.72 171.375 2213.01 172.787 Q2211.29 174.199 2208.42 174.199 L2205.02 174.199 L2205.02 170.634 L2207.52 170.634 Q2209.28 170.634 2210.25 169.8 Q2211.22 168.967 2212.4 165.865 L2213.17 163.921 L2202.68 138.412 L2207.2 138.412 L2215.3 158.689 L2223.4 138.412 L2227.91 138.412 L2216.52 166.745 Z" fill="#000000" fill-rule="nonzero" fill-opacity="1" /><path clip-path="url(#clip340)" d="M2235.2 160.402 L2242.84 160.402 L2242.84 134.037 L2234.53 135.703 L2234.53 131.444 L2242.8 129.778 L2247.47 129.778 L2247.47 160.402 L2255.11 160.402 L2255.11 164.338 L2235.2 164.338 L2235.2 160.402 Z" fill="#000000" fill-rule="nonzero" fill-opacity="1" /></svg>
