<?xml version="1.0" encoding="utf-8"?>
<svg xmlns="http://www.w3.org/2000/svg" xmlns:xlink="http://www.w3.org/1999/xlink" width="600" height="400" viewBox="0 0 2400 1600">
<defs>
  <clipPath id="clip920">
    <rect x="0" y="0" width="2400" height="1600"/>
  </clipPath>
</defs>
<path clip-path="url(#clip920)" d="M0 1600 L2400 1600 L2400 0 L0 0  Z" fill="#ffffff" fill-rule="evenodd" fill-opacity="1"/>
<defs>
  <clipPath id="clip921">
    <rect x="480" y="0" width="1681" height="1600"/>
  </clipPath>
</defs>
<path clip-path="url(#clip920)" d="M156.598 1486.45 L2352.76 1486.45 L2352.76 47.2441 L156.598 47.2441  Z" fill="#ffffff" fill-rule="evenodd" fill-opacity="1"/>
<defs>
  <clipPath id="clip922">
    <rect x="156" y="47" width="2197" height="1440"/>
  </clipPath>
</defs>
<polyline clip-path="url(#clip922)" style="stroke:#000000; stroke-linecap:round; stroke-linejoin:round; stroke-width:2; stroke-opacity:0.1; fill:none" points="218.754,1486.45 218.754,47.2441 "/>
<polyline clip-path="url(#clip922)" style="stroke:#000000; stroke-linecap:round; stroke-linejoin:round; stroke-width:2; stroke-opacity:0.1; fill:none" points="737.234,1486.45 737.234,47.2441 "/>
<polyline clip-path="url(#clip922)" style="stroke:#000000; stroke-linecap:round; stroke-linejoin:round; stroke-width:2; stroke-opacity:0.1; fill:none" points="1255.71,1486.45 1255.71,47.2441 "/>
<polyline clip-path="url(#clip922)" style="stroke:#000000; stroke-linecap:round; stroke-linejoin:round; stroke-width:2; stroke-opacity:0.1; fill:none" points="1774.19,1486.45 1774.19,47.2441 "/>
<polyline clip-path="url(#clip922)" style="stroke:#000000; stroke-linecap:round; stroke-linejoin:round; stroke-width:2; stroke-opacity:0.1; fill:none" points="2292.67,1486.45 2292.67,47.2441 "/>
<polyline clip-path="url(#clip920)" style="stroke:#000000; stroke-linecap:round; stroke-linejoin:round; stroke-width:4; stroke-opacity:1; fill:none" points="156.598,1486.45 2352.76,1486.45 "/>
<polyline clip-path="url(#clip920)" style="stroke:#000000; stroke-linecap:round; stroke-linejoin:round; stroke-width:4; stroke-opacity:1; fill:none" points="218.754,1486.45 218.754,1467.55 "/>
<polyline clip-path="url(#clip920)" style="stroke:#000000; stroke-linecap:round; stroke-linejoin:round; stroke-width:4; stroke-opacity:1; fill:none" points="737.234,1486.45 737.234,1467.55 "/>
<polyline clip-path="url(#clip920)" style="stroke:#000000; stroke-linecap:round; stroke-linejoin:round; stroke-width:4; stroke-opacity:1; fill:none" points="1255.71,1486.45 1255.71,1467.55 "/>
<polyline clip-path="url(#clip920)" style="stroke:#000000; stroke-linecap:round; stroke-linejoin:round; stroke-width:4; stroke-opacity:1; fill:none" points="1774.19,1486.45 1774.19,1467.55 "/>
<polyline clip-path="url(#clip920)" style="stroke:#000000; stroke-linecap:round; stroke-linejoin:round; stroke-width:4; stroke-opacity:1; fill:none" points="2292.67,1486.45 2292.67,1467.55 "/>
<path clip-path="url(#clip920)" d="M218.754 1517.37 Q215.143 1517.37 213.314 1520.93 Q211.508 1524.47 211.508 1531.6 Q211.508 1538.71 213.314 1542.27 Q215.143 1545.82 218.754 1545.82 Q222.388 1545.82 224.193 1542.27 Q226.022 1538.71 226.022 1531.6 Q226.022 1524.47 224.193 1520.93 Q222.388 1517.37 218.754 1517.37 M218.754 1513.66 Q224.564 1513.66 227.619 1518.27 Q230.698 1522.85 230.698 1531.6 Q230.698 1540.33 227.619 1544.94 Q224.564 1549.52 218.754 1549.52 Q212.943 1549.52 209.865 1544.94 Q206.809 1540.33 206.809 1531.6 Q206.809 1522.85 209.865 1518.27 Q212.943 1513.66 218.754 1513.66 Z" fill="#000000" fill-rule="nonzero" fill-opacity="1" /><path clip-path="url(#clip920)" d="M700.926 1544.91 L717.246 1544.91 L717.246 1548.85 L695.301 1548.85 L695.301 1544.91 Q697.963 1542.16 702.547 1537.53 Q707.153 1532.88 708.334 1531.53 Q710.579 1529.01 711.459 1527.27 Q712.361 1525.51 712.361 1523.82 Q712.361 1521.07 710.417 1519.33 Q708.496 1517.6 705.394 1517.6 Q703.195 1517.6 700.741 1518.36 Q698.31 1519.13 695.533 1520.68 L695.533 1515.95 Q698.357 1514.82 700.81 1514.24 Q703.264 1513.66 705.301 1513.66 Q710.671 1513.66 713.866 1516.35 Q717.06 1519.03 717.06 1523.52 Q717.06 1525.65 716.25 1527.57 Q715.463 1529.47 713.357 1532.07 Q712.778 1532.74 709.676 1535.95 Q706.574 1539.15 700.926 1544.91 Z" fill="#000000" fill-rule="nonzero" fill-opacity="1" /><path clip-path="url(#clip920)" d="M727.107 1514.29 L745.463 1514.29 L745.463 1518.22 L731.389 1518.22 L731.389 1526.7 Q732.407 1526.35 733.426 1526.19 Q734.444 1526 735.463 1526 Q741.25 1526 744.63 1529.17 Q748.009 1532.34 748.009 1537.76 Q748.009 1543.34 744.537 1546.44 Q741.065 1549.52 734.745 1549.52 Q732.57 1549.52 730.301 1549.15 Q728.056 1548.78 725.648 1548.04 L725.648 1543.34 Q727.732 1544.47 729.954 1545.03 Q732.176 1545.58 734.653 1545.58 Q738.657 1545.58 740.995 1543.48 Q743.333 1541.37 743.333 1537.76 Q743.333 1534.15 740.995 1532.04 Q738.657 1529.94 734.653 1529.94 Q732.778 1529.94 730.903 1530.35 Q729.051 1530.77 727.107 1531.65 L727.107 1514.29 Z" fill="#000000" fill-rule="nonzero" fill-opacity="1" /><path clip-path="url(#clip920)" d="M767.222 1517.37 Q763.611 1517.37 761.782 1520.93 Q759.977 1524.47 759.977 1531.6 Q759.977 1538.71 761.782 1542.27 Q763.611 1545.82 767.222 1545.82 Q770.856 1545.82 772.662 1542.27 Q774.491 1538.71 774.491 1531.6 Q774.491 1524.47 772.662 1520.93 Q770.856 1517.37 767.222 1517.37 M767.222 1513.66 Q773.032 1513.66 776.088 1518.27 Q779.166 1522.85 779.166 1531.6 Q779.166 1540.33 776.088 1544.94 Q773.032 1549.52 767.222 1549.52 Q761.412 1549.52 758.333 1544.94 Q755.278 1540.33 755.278 1531.6 Q755.278 1522.85 758.333 1518.27 Q761.412 1513.66 767.222 1513.66 Z" fill="#000000" fill-rule="nonzero" fill-opacity="1" /><path clip-path="url(#clip920)" d="M1215.33 1514.29 L1233.69 1514.29 L1233.69 1518.22 L1219.61 1518.22 L1219.61 1526.7 Q1220.63 1526.35 1221.65 1526.19 Q1222.67 1526 1223.69 1526 Q1229.48 1526 1232.86 1529.17 Q1236.23 1532.34 1236.23 1537.76 Q1236.23 1543.34 1232.76 1546.44 Q1229.29 1549.52 1222.97 1549.52 Q1220.8 1549.52 1218.53 1549.15 Q1216.28 1548.78 1213.87 1548.04 L1213.87 1543.34 Q1215.96 1544.47 1218.18 1545.03 Q1220.4 1545.58 1222.88 1545.58 Q1226.88 1545.58 1229.22 1543.48 Q1231.56 1541.37 1231.56 1537.76 Q1231.56 1534.15 1229.22 1532.04 Q1226.88 1529.94 1222.88 1529.94 Q1221 1529.94 1219.13 1530.35 Q1217.28 1530.77 1215.33 1531.65 L1215.33 1514.29 Z" fill="#000000" fill-rule="nonzero" fill-opacity="1" /><path clip-path="url(#clip920)" d="M1255.45 1517.37 Q1251.84 1517.37 1250.01 1520.93 Q1248.2 1524.47 1248.2 1531.6 Q1248.2 1538.71 1250.01 1542.27 Q1251.84 1545.82 1255.45 1545.82 Q1259.08 1545.82 1260.89 1542.27 Q1262.72 1538.71 1262.72 1531.6 Q1262.72 1524.47 1260.89 1520.93 Q1259.08 1517.37 1255.45 1517.37 M1255.45 1513.66 Q1261.26 1513.66 1264.31 1518.27 Q1267.39 1522.85 1267.39 1531.6 Q1267.39 1540.33 1264.31 1544.94 Q1261.26 1549.52 1255.45 1549.52 Q1249.64 1549.52 1246.56 1544.94 Q1243.5 1540.33 1243.5 1531.6 Q1243.5 1522.85 1246.56 1518.27 Q1249.64 1513.66 1255.45 1513.66 Z" fill="#000000" fill-rule="nonzero" fill-opacity="1" /><path clip-path="url(#clip920)" d="M1285.61 1517.37 Q1282 1517.37 1280.17 1520.93 Q1278.36 1524.47 1278.36 1531.6 Q1278.36 1538.71 1280.17 1542.27 Q1282 1545.82 1285.61 1545.82 Q1289.24 1545.82 1291.05 1542.27 Q1292.88 1538.71 1292.88 1531.6 Q1292.88 1524.47 1291.05 1520.93 Q1289.24 1517.37 1285.61 1517.37 M1285.61 1513.66 Q1291.42 1513.66 1294.48 1518.27 Q1297.55 1522.85 1297.55 1531.6 Q1297.55 1540.33 1294.48 1544.94 Q1291.42 1549.52 1285.61 1549.52 Q1279.8 1549.52 1276.72 1544.94 Q1273.67 1540.33 1273.67 1531.6 Q1273.67 1522.85 1276.72 1518.27 Q1279.8 1513.66 1285.61 1513.66 Z" fill="#000000" fill-rule="nonzero" fill-opacity="1" /><path clip-path="url(#clip920)" d="M1732.47 1514.29 L1754.69 1514.29 L1754.69 1516.28 L1742.15 1548.85 L1737.26 1548.85 L1749.07 1518.22 L1732.47 1518.22 L1732.47 1514.29 Z" fill="#000000" fill-rule="nonzero" fill-opacity="1" /><path clip-path="url(#clip920)" d="M1763.86 1514.29 L1782.22 1514.29 L1782.22 1518.22 L1768.14 1518.22 L1768.14 1526.7 Q1769.16 1526.35 1770.18 1526.19 Q1771.2 1526 1772.22 1526 Q1778 1526 1781.38 1529.17 Q1784.76 1532.34 1784.76 1537.76 Q1784.76 1543.34 1781.29 1546.44 Q1777.82 1549.52 1771.5 1549.52 Q1769.32 1549.52 1767.05 1549.15 Q1764.81 1548.78 1762.4 1548.04 L1762.4 1543.34 Q1764.48 1544.47 1766.71 1545.03 Q1768.93 1545.58 1771.4 1545.58 Q1775.41 1545.58 1777.75 1543.48 Q1780.09 1541.37 1780.09 1537.76 Q1780.09 1534.15 1777.75 1532.04 Q1775.41 1529.94 1771.4 1529.94 Q1769.53 1529.94 1767.65 1530.35 Q1765.8 1530.77 1763.86 1531.65 L1763.86 1514.29 Z" fill="#000000" fill-rule="nonzero" fill-opacity="1" /><path clip-path="url(#clip920)" d="M1803.97 1517.37 Q1800.36 1517.37 1798.53 1520.93 Q1796.73 1524.47 1796.73 1531.6 Q1796.73 1538.71 1798.53 1542.27 Q1800.36 1545.82 1803.97 1545.82 Q1807.61 1545.82 1809.41 1542.27 Q1811.24 1538.71 1811.24 1531.6 Q1811.24 1524.47 1809.41 1520.93 Q1807.61 1517.37 1803.97 1517.37 M1803.97 1513.66 Q1809.78 1513.66 1812.84 1518.27 Q1815.92 1522.85 1815.92 1531.6 Q1815.92 1540.33 1812.84 1544.94 Q1809.78 1549.52 1803.97 1549.52 Q1798.16 1549.52 1795.09 1544.94 Q1792.03 1540.33 1792.03 1531.6 Q1792.03 1522.85 1795.09 1518.27 Q1798.16 1513.66 1803.97 1513.66 Z" fill="#000000" fill-rule="nonzero" fill-opacity="1" /><path clip-path="url(#clip920)" d="M2237.2 1544.91 L2244.84 1544.91 L2244.84 1518.55 L2236.53 1520.21 L2236.53 1515.95 L2244.79 1514.29 L2249.47 1514.29 L2249.47 1544.91 L2257.11 1544.91 L2257.11 1548.85 L2237.2 1548.85 L2237.2 1544.91 Z" fill="#000000" fill-rule="nonzero" fill-opacity="1" /><path clip-path="url(#clip920)" d="M2276.55 1517.37 Q2272.94 1517.37 2271.11 1520.93 Q2269.31 1524.47 2269.31 1531.6 Q2269.31 1538.71 2271.11 1542.27 Q2272.94 1545.82 2276.55 1545.82 Q2280.19 1545.82 2281.99 1542.27 Q2283.82 1538.71 2283.82 1531.6 Q2283.82 1524.47 2281.99 1520.93 Q2280.19 1517.37 2276.55 1517.37 M2276.55 1513.66 Q2282.36 1513.66 2285.42 1518.27 Q2288.5 1522.85 2288.5 1531.6 Q2288.5 1540.33 2285.42 1544.94 Q2282.36 1549.52 2276.55 1549.52 Q2270.74 1549.52 2267.66 1544.94 Q2264.61 1540.33 2264.61 1531.6 Q2264.61 1522.85 2267.66 1518.27 Q2270.74 1513.66 2276.55 1513.66 Z" fill="#000000" fill-rule="nonzero" fill-opacity="1" /><path clip-path="url(#clip920)" d="M2306.71 1517.37 Q2303.1 1517.37 2301.27 1520.93 Q2299.47 1524.47 2299.47 1531.6 Q2299.47 1538.71 2301.27 1542.27 Q2303.1 1545.82 2306.71 1545.82 Q2310.35 1545.82 2312.15 1542.27 Q2313.98 1538.71 2313.98 1531.6 Q2313.98 1524.47 2312.15 1520.93 Q2310.35 1517.37 2306.71 1517.37 M2306.71 1513.66 Q2312.52 1513.66 2315.58 1518.27 Q2318.66 1522.85 2318.66 1531.6 Q2318.66 1540.33 2315.58 1544.94 Q2312.52 1549.52 2306.71 1549.52 Q2300.9 1549.52 2297.82 1544.94 Q2294.77 1540.33 2294.77 1531.6 Q2294.77 1522.85 2297.82 1518.27 Q2300.9 1513.66 2306.71 1513.66 Z" fill="#000000" fill-rule="nonzero" fill-opacity="1" /><path clip-path="url(#clip920)" d="M2336.88 1517.37 Q2333.26 1517.37 2331.44 1520.93 Q2329.63 1524.47 2329.63 1531.6 Q2329.63 1538.71 2331.44 1542.27 Q2333.26 1545.82 2336.88 1545.82 Q2340.51 1545.82 2342.32 1542.27 Q2344.14 1538.71 2344.14 1531.6 Q2344.14 1524.47 2342.32 1520.93 Q2340.51 1517.37 2336.88 1517.37 M2336.88 1513.66 Q2342.69 1513.66 2345.74 1518.27 Q2348.82 1522.85 2348.82 1531.6 Q2348.82 1540.33 2345.74 1544.94 Q2342.69 1549.52 2336.88 1549.52 Q2331.07 1549.52 2327.99 1544.94 Q2324.93 1540.33 2324.93 1531.6 Q2324.93 1522.85 2327.99 1518.27 Q2331.07 1513.66 2336.88 1513.66 Z" fill="#000000" fill-rule="nonzero" fill-opacity="1" /><polyline clip-path="url(#clip922)" style="stroke:#000000; stroke-linecap:round; stroke-linejoin:round; stroke-width:2; stroke-opacity:0.1; fill:none" points="156.598,1401.92 2352.76,1401.92 "/>
<polyline clip-path="url(#clip922)" style="stroke:#000000; stroke-linecap:round; stroke-linejoin:round; stroke-width:2; stroke-opacity:0.1; fill:none" points="156.598,1182.93 2352.76,1182.93 "/>
<polyline clip-path="url(#clip922)" style="stroke:#000000; stroke-linecap:round; stroke-linejoin:round; stroke-width:2; stroke-opacity:0.1; fill:none" points="156.598,963.937 2352.76,963.937 "/>
<polyline clip-path="url(#clip922)" style="stroke:#000000; stroke-linecap:round; stroke-linejoin:round; stroke-width:2; stroke-opacity:0.1; fill:none" points="156.598,744.947 2352.76,744.947 "/>
<polyline clip-path="url(#clip922)" style="stroke:#000000; stroke-linecap:round; stroke-linejoin:round; stroke-width:2; stroke-opacity:0.1; fill:none" points="156.598,525.957 2352.76,525.957 "/>
<polyline clip-path="url(#clip922)" style="stroke:#000000; stroke-linecap:round; stroke-linejoin:round; stroke-width:2; stroke-opacity:0.1; fill:none" points="156.598,306.967 2352.76,306.967 "/>
<polyline clip-path="url(#clip922)" style="stroke:#000000; stroke-linecap:round; stroke-linejoin:round; stroke-width:2; stroke-opacity:0.1; fill:none" points="156.598,87.9763 2352.76,87.9763 "/>
<polyline clip-path="url(#clip920)" style="stroke:#000000; stroke-linecap:round; stroke-linejoin:round; stroke-width:4; stroke-opacity:1; fill:none" points="156.598,1486.45 156.598,47.2441 "/>
<polyline clip-path="url(#clip920)" style="stroke:#000000; stroke-linecap:round; stroke-linejoin:round; stroke-width:4; stroke-opacity:1; fill:none" points="156.598,1401.92 175.496,1401.92 "/>
<polyline clip-path="url(#clip920)" style="stroke:#000000; stroke-linecap:round; stroke-linejoin:round; stroke-width:4; stroke-opacity:1; fill:none" points="156.598,1182.93 175.496,1182.93 "/>
<polyline clip-path="url(#clip920)" style="stroke:#000000; stroke-linecap:round; stroke-linejoin:round; stroke-width:4; stroke-opacity:1; fill:none" points="156.598,963.937 175.496,963.937 "/>
<polyline clip-path="url(#clip920)" style="stroke:#000000; stroke-linecap:round; stroke-linejoin:round; stroke-width:4; stroke-opacity:1; fill:none" points="156.598,744.947 175.496,744.947 "/>
<polyline clip-path="url(#clip920)" style="stroke:#000000; stroke-linecap:round; stroke-linejoin:round; stroke-width:4; stroke-opacity:1; fill:none" points="156.598,525.957 175.496,525.957 "/>
<polyline clip-path="url(#clip920)" style="stroke:#000000; stroke-linecap:round; stroke-linejoin:round; stroke-width:4; stroke-opacity:1; fill:none" points="156.598,306.967 175.496,306.967 "/>
<polyline clip-path="url(#clip920)" style="stroke:#000000; stroke-linecap:round; stroke-linejoin:round; stroke-width:4; stroke-opacity:1; fill:none" points="156.598,87.9763 175.496,87.9763 "/>
<path clip-path="url(#clip920)" d="M62.9365 1387.72 Q59.3254 1387.72 57.4967 1391.28 Q55.6912 1394.82 55.6912 1401.95 Q55.6912 1409.06 57.4967 1412.62 Q59.3254 1416.17 62.9365 1416.17 Q66.5707 1416.17 68.3763 1412.62 Q70.205 1409.06 70.205 1401.95 Q70.205 1394.82 68.3763 1391.28 Q66.5707 1387.72 62.9365 1387.72 M62.9365 1384.01 Q68.7467 1384.01 71.8022 1388.62 Q74.8809 1393.2 74.8809 1401.95 Q74.8809 1410.68 71.8022 1415.29 Q68.7467 1419.87 62.9365 1419.87 Q57.1264 1419.87 54.0477 1415.29 Q50.9921 1410.68 50.9921 1401.95 Q50.9921 1393.2 54.0477 1388.62 Q57.1264 1384.01 62.9365 1384.01 Z" fill="#000000" fill-rule="nonzero" fill-opacity="1" /><path clip-path="url(#clip920)" d="M83.0984 1413.32 L87.9827 1413.32 L87.9827 1419.2 L83.0984 1419.2 L83.0984 1413.32 Z" fill="#000000" fill-rule="nonzero" fill-opacity="1" /><path clip-path="url(#clip920)" d="M111.015 1388.71 L99.2095 1407.16 L111.015 1407.16 L111.015 1388.71 M109.788 1384.64 L115.668 1384.64 L115.668 1407.16 L120.598 1407.16 L120.598 1411.05 L115.668 1411.05 L115.668 1419.2 L111.015 1419.2 L111.015 1411.05 L95.4132 1411.05 L95.4132 1406.54 L109.788 1384.64 Z" fill="#000000" fill-rule="nonzero" fill-opacity="1" /><path clip-path="url(#clip920)" d="M64.418 1168.73 Q60.8069 1168.73 58.9782 1172.29 Q57.1726 1175.83 57.1726 1182.96 Q57.1726 1190.07 58.9782 1193.63 Q60.8069 1197.18 64.418 1197.18 Q68.0522 1197.18 69.8578 1193.63 Q71.6865 1190.07 71.6865 1182.96 Q71.6865 1175.83 69.8578 1172.29 Q68.0522 1168.73 64.418 1168.73 M64.418 1165.02 Q70.2281 1165.02 73.2837 1169.63 Q76.3624 1174.21 76.3624 1182.96 Q76.3624 1191.69 73.2837 1196.3 Q70.2281 1200.88 64.418 1200.88 Q58.6078 1200.88 55.5291 1196.3 Q52.4736 1191.69 52.4736 1182.96 Q52.4736 1174.21 55.5291 1169.63 Q58.6078 1165.02 64.418 1165.02 Z" fill="#000000" fill-rule="nonzero" fill-opacity="1" /><path clip-path="url(#clip920)" d="M84.5799 1194.33 L89.4641 1194.33 L89.4641 1200.21 L84.5799 1200.21 L84.5799 1194.33 Z" fill="#000000" fill-rule="nonzero" fill-opacity="1" /><path clip-path="url(#clip920)" d="M99.6956 1165.65 L118.052 1165.65 L118.052 1169.58 L103.978 1169.58 L103.978 1178.05 Q104.996 1177.71 106.015 1177.55 Q107.033 1177.36 108.052 1177.36 Q113.839 1177.36 117.219 1180.53 Q120.598 1183.7 120.598 1189.12 Q120.598 1194.7 117.126 1197.8 Q113.654 1200.88 107.334 1200.88 Q105.159 1200.88 102.89 1200.51 Q100.645 1200.14 98.2372 1199.4 L98.2372 1194.7 Q100.321 1195.83 102.543 1196.39 Q104.765 1196.94 107.242 1196.94 Q111.246 1196.94 113.584 1194.84 Q115.922 1192.73 115.922 1189.12 Q115.922 1185.51 113.584 1183.4 Q111.246 1181.3 107.242 1181.3 Q105.367 1181.3 103.492 1181.71 Q101.64 1182.13 99.6956 1183.01 L99.6956 1165.65 Z" fill="#000000" fill-rule="nonzero" fill-opacity="1" /><path clip-path="url(#clip920)" d="M63.2606 949.736 Q59.6495 949.736 57.8208 953.301 Q56.0152 956.842 56.0152 963.972 Q56.0152 971.078 57.8208 974.643 Q59.6495 978.185 63.2606 978.185 Q66.8948 978.185 68.7004 974.643 Q70.5291 971.078 70.5291 963.972 Q70.5291 956.842 68.7004 953.301 Q66.8948 949.736 63.2606 949.736 M63.2606 946.032 Q69.0707 946.032 72.1263 950.639 Q75.205 955.222 75.205 963.972 Q75.205 972.699 72.1263 977.305 Q69.0707 981.888 63.2606 981.888 Q57.4504 981.888 54.3717 977.305 Q51.3162 972.699 51.3162 963.972 Q51.3162 955.222 54.3717 950.639 Q57.4504 946.032 63.2606 946.032 Z" fill="#000000" fill-rule="nonzero" fill-opacity="1" /><path clip-path="url(#clip920)" d="M83.4225 975.338 L88.3067 975.338 L88.3067 981.217 L83.4225 981.217 L83.4225 975.338 Z" fill="#000000" fill-rule="nonzero" fill-opacity="1" /><path clip-path="url(#clip920)" d="M109.071 962.074 Q105.922 962.074 104.071 964.227 Q102.242 966.379 102.242 970.129 Q102.242 973.856 104.071 976.032 Q105.922 978.185 109.071 978.185 Q112.219 978.185 114.047 976.032 Q115.899 973.856 115.899 970.129 Q115.899 966.379 114.047 964.227 Q112.219 962.074 109.071 962.074 M118.353 947.421 L118.353 951.68 Q116.594 950.847 114.788 950.407 Q113.006 949.967 111.246 949.967 Q106.617 949.967 104.163 953.092 Q101.733 956.217 101.385 962.537 Q102.751 960.523 104.811 959.458 Q106.871 958.37 109.348 958.37 Q114.557 958.37 117.566 961.541 Q120.598 964.69 120.598 970.129 Q120.598 975.453 117.45 978.671 Q114.302 981.888 109.071 981.888 Q103.075 981.888 99.9039 977.305 Q96.7326 972.699 96.7326 963.972 Q96.7326 955.778 100.621 950.916 Q104.51 946.032 111.061 946.032 Q112.82 946.032 114.603 946.379 Q116.408 946.727 118.353 947.421 Z" fill="#000000" fill-rule="nonzero" fill-opacity="1" /><path clip-path="url(#clip920)" d="M64.3254 730.746 Q60.7143 730.746 58.8856 734.31 Q57.0801 737.852 57.0801 744.982 Q57.0801 752.088 58.8856 755.653 Q60.7143 759.195 64.3254 759.195 Q67.9596 759.195 69.7652 755.653 Q71.5939 752.088 71.5939 744.982 Q71.5939 737.852 69.7652 734.31 Q67.9596 730.746 64.3254 730.746 M64.3254 727.042 Q70.1355 727.042 73.1911 731.648 Q76.2698 736.232 76.2698 744.982 Q76.2698 753.708 73.1911 758.315 Q70.1355 762.898 64.3254 762.898 Q58.5152 762.898 55.4365 758.315 Q52.381 753.708 52.381 744.982 Q52.381 736.232 55.4365 731.648 Q58.5152 727.042 64.3254 727.042 Z" fill="#000000" fill-rule="nonzero" fill-opacity="1" /><path clip-path="url(#clip920)" d="M84.4873 756.347 L89.3715 756.347 L89.3715 762.227 L84.4873 762.227 L84.4873 756.347 Z" fill="#000000" fill-rule="nonzero" fill-opacity="1" /><path clip-path="url(#clip920)" d="M98.3761 727.667 L120.598 727.667 L120.598 729.658 L108.052 762.227 L103.168 762.227 L114.973 731.602 L98.3761 731.602 L98.3761 727.667 Z" fill="#000000" fill-rule="nonzero" fill-opacity="1" /><path clip-path="url(#clip920)" d="M63.5152 511.755 Q59.9041 511.755 58.0754 515.32 Q56.2699 518.862 56.2699 525.991 Q56.2699 533.098 58.0754 536.663 Q59.9041 540.204 63.5152 540.204 Q67.1494 540.204 68.955 536.663 Q70.7837 533.098 70.7837 525.991 Q70.7837 518.862 68.955 515.32 Q67.1494 511.755 63.5152 511.755 M63.5152 508.052 Q69.3254 508.052 72.3809 512.658 Q75.4596 517.242 75.4596 525.991 Q75.4596 534.718 72.3809 539.325 Q69.3254 543.908 63.5152 543.908 Q57.7051 543.908 54.6264 539.325 Q51.5708 534.718 51.5708 525.991 Q51.5708 517.242 54.6264 512.658 Q57.7051 508.052 63.5152 508.052 Z" fill="#000000" fill-rule="nonzero" fill-opacity="1" /><path clip-path="url(#clip920)" d="M83.6771 537.357 L88.5614 537.357 L88.5614 543.237 L83.6771 543.237 L83.6771 537.357 Z" fill="#000000" fill-rule="nonzero" fill-opacity="1" /><path clip-path="url(#clip920)" d="M108.746 526.825 Q105.413 526.825 103.492 528.607 Q101.594 530.39 101.594 533.515 Q101.594 536.64 103.492 538.422 Q105.413 540.204 108.746 540.204 Q112.08 540.204 114.001 538.422 Q115.922 536.616 115.922 533.515 Q115.922 530.39 114.001 528.607 Q112.103 526.825 108.746 526.825 M104.071 524.834 Q101.061 524.093 99.3715 522.033 Q97.7048 519.973 97.7048 517.01 Q97.7048 512.867 100.645 510.459 Q103.608 508.052 108.746 508.052 Q113.908 508.052 116.848 510.459 Q119.788 512.867 119.788 517.01 Q119.788 519.973 118.098 522.033 Q116.432 524.093 113.445 524.834 Q116.825 525.621 118.7 527.913 Q120.598 530.204 120.598 533.515 Q120.598 538.538 117.52 541.223 Q114.464 543.908 108.746 543.908 Q103.029 543.908 99.9502 541.223 Q96.8947 538.538 96.8947 533.515 Q96.8947 530.204 98.7928 527.913 Q100.691 525.621 104.071 524.834 M102.358 517.45 Q102.358 520.135 104.024 521.64 Q105.714 523.144 108.746 523.144 Q111.756 523.144 113.445 521.64 Q115.158 520.135 115.158 517.45 Q115.158 514.765 113.445 513.26 Q111.756 511.755 108.746 511.755 Q105.714 511.755 104.024 513.26 Q102.358 514.765 102.358 517.45 Z" fill="#000000" fill-rule="nonzero" fill-opacity="1" /><path clip-path="url(#clip920)" d="M63.6078 292.765 Q59.9967 292.765 58.168 296.33 Q56.3625 299.872 56.3625 307.001 Q56.3625 314.108 58.168 317.672 Q59.9967 321.214 63.6078 321.214 Q67.242 321.214 69.0476 317.672 Q70.8763 314.108 70.8763 307.001 Q70.8763 299.872 69.0476 296.33 Q67.242 292.765 63.6078 292.765 M63.6078 289.062 Q69.418 289.062 72.4735 293.668 Q75.5522 298.251 75.5522 307.001 Q75.5522 315.728 72.4735 320.334 Q69.418 324.918 63.6078 324.918 Q57.7976 324.918 54.719 320.334 Q51.6634 315.728 51.6634 307.001 Q51.6634 298.251 54.719 293.668 Q57.7976 289.062 63.6078 289.062 Z" fill="#000000" fill-rule="nonzero" fill-opacity="1" /><path clip-path="url(#clip920)" d="M83.7697 318.367 L88.654 318.367 L88.654 324.247 L83.7697 324.247 L83.7697 318.367 Z" fill="#000000" fill-rule="nonzero" fill-opacity="1" /><path clip-path="url(#clip920)" d="M98.978 323.529 L98.978 319.27 Q100.737 320.103 102.543 320.543 Q104.348 320.983 106.084 320.983 Q110.714 320.983 113.145 317.881 Q115.598 314.756 115.945 308.413 Q114.603 310.404 112.543 311.469 Q110.483 312.534 107.983 312.534 Q102.797 312.534 99.765 309.409 Q96.7558 306.26 96.7558 300.821 Q96.7558 295.497 99.9039 292.279 Q103.052 289.062 108.283 289.062 Q114.279 289.062 117.427 293.668 Q120.598 298.251 120.598 307.001 Q120.598 315.172 116.709 320.057 Q112.844 324.918 106.293 324.918 Q104.534 324.918 102.728 324.571 Q100.922 324.223 98.978 323.529 M108.283 308.876 Q111.432 308.876 113.26 306.723 Q115.112 304.571 115.112 300.821 Q115.112 297.094 113.26 294.941 Q111.432 292.765 108.283 292.765 Q105.135 292.765 103.284 294.941 Q101.455 297.094 101.455 300.821 Q101.455 304.571 103.284 306.723 Q105.135 308.876 108.283 308.876 Z" fill="#000000" fill-rule="nonzero" fill-opacity="1" /><path clip-path="url(#clip920)" d="M54.2328 101.321 L61.8717 101.321 L61.8717 74.9555 L53.5616 76.6222 L53.5616 72.3629 L61.8254 70.6963 L66.5013 70.6963 L66.5013 101.321 L74.1402 101.321 L74.1402 105.256 L54.2328 105.256 L54.2328 101.321 Z" fill="#000000" fill-rule="nonzero" fill-opacity="1" /><path clip-path="url(#clip920)" d="M83.5845 99.3767 L88.4688 99.3767 L88.4688 105.256 L83.5845 105.256 L83.5845 99.3767 Z" fill="#000000" fill-rule="nonzero" fill-opacity="1" /><path clip-path="url(#clip920)" d="M108.654 73.775 Q105.043 73.775 103.214 77.3398 Q101.409 80.8814 101.409 88.011 Q101.409 95.1174 103.214 98.6822 Q105.043 102.224 108.654 102.224 Q112.288 102.224 114.094 98.6822 Q115.922 95.1174 115.922 88.011 Q115.922 80.8814 114.094 77.3398 Q112.288 73.775 108.654 73.775 M108.654 70.0713 Q114.464 70.0713 117.52 74.6777 Q120.598 79.261 120.598 88.011 Q120.598 96.7378 117.52 101.344 Q114.464 105.928 108.654 105.928 Q102.844 105.928 99.765 101.344 Q96.7095 96.7378 96.7095 88.011 Q96.7095 79.261 99.765 74.6777 Q102.844 70.0713 108.654 70.0713 Z" fill="#000000" fill-rule="nonzero" fill-opacity="1" /><polyline clip-path="url(#clip922)" style="stroke:#009af9; stroke-linecap:round; stroke-linejoin:round; stroke-width:4; stroke-opacity:1; fill:none" points="218.754,1412.87 220.828,1445.72 222.901,1423.82 224.975,1314.32 227.049,1390.97 229.123,1369.07 231.197,1336.22 233.271,1292.42 235.345,1347.17 237.419,1347.17 239.493,1401.92 241.567,1171.98 243.641,1084.38 245.715,1270.52 247.789,1171.98 249.862,1018.68 251.936,1150.08 254.01,1040.58 256.084,985.836 258.158,920.139 260.232,1040.58 262.306,1007.74 264.38,898.24 266.454,920.139 268.528,963.937 270.602,854.442 272.676,646.401 274.75,898.24 276.823,646.401 278.897,701.149 280.971,723.048 283.045,613.553 285.119,701.149 287.193,668.3 289.267,690.199 291.341,613.553 293.415,547.856 295.489,547.856 297.563,679.25 299.637,624.502 301.71,646.401 303.784,591.654 305.858,613.553 307.932,613.553 310.006,547.856 312.08,602.603 314.154,613.553 316.228,536.906 318.302,515.007 320.376,515.007 322.45,460.26 324.524,515.007 326.598,416.462 328.671,525.957 330.745,460.26 332.819,504.058 334.893,438.361 336.967,482.159 339.041,427.411 341.115,493.108 343.189,427.411 345.263,471.209 347.337,394.563 349.411,405.512 351.485,372.664 353.558,405.512 355.632,372.664 357.706,471.209 359.78,361.714 361.854,339.815 363.928,416.462 366.002,285.067 368.076,438.361 370.15,427.411 372.224,504.058 374.298,296.017 376.372,339.815 378.446,361.714 380.519,317.916 382.593,328.866 384.667,361.714 386.741,416.462 388.815,317.916 390.889,296.017 392.963,285.067 395.037,317.916 397.111,252.219 399.185,263.168 401.259,361.714 403.333,328.866 405.407,241.269 407.48,274.118 409.554,252.219 411.628,306.967 413.702,361.714 415.776,306.967 417.85,328.866 419.924,339.815 421.998,197.471 424.072,230.32 426.146,306.967 428.22,208.421 430.294,252.219 432.367,263.168 434.441,296.017 436.515,263.168 438.589,274.118 440.663,252.219 442.737,197.471 444.811,208.421 446.885,230.32 448.959,274.118 451.033,186.522 453.107,241.269 455.181,175.572 457.255,219.37 459.328,208.421 461.402,197.471 463.476,263.168 465.55,197.471 467.624,296.017 469.698,263.168 471.772,208.421 473.846,186.522 475.92,241.269 477.994,219.37 480.068,208.421 482.142,131.774 484.216,219.37 486.289,208.421 488.363,208.421 490.437,197.471 492.511,197.471 494.585,153.673 496.659,186.522 498.733,142.724 500.807,153.673 502.881,164.623 504.955,142.724 507.029,208.421 509.103,164.623 511.176,153.673 513.25,164.623 515.324,164.623 517.398,142.724 519.472,142.724 521.546,186.522 523.62,197.471 525.694,164.623 527.768,164.623 529.842,153.673 531.916,98.9258 533.99,142.724 536.064,175.572 538.137,153.673 540.211,153.673 542.285,153.673 544.359,186.522 546.433,142.724 548.507,153.673 550.581,197.471 552.655,120.825 554.729,142.724 556.803,164.623 558.877,109.875 560.951,142.724 563.024,120.825 565.098,153.673 567.172,120.825 569.246,186.522 571.32,175.572 573.394,131.774 575.468,109.875 577.542,131.774 579.616,186.522 581.69,142.724 583.764,208.421 585.838,153.673 587.912,142.724 589.985,142.724 592.059,175.572 594.133,87.9763 596.207,142.724 598.281,131.774 600.355,142.724 602.429,131.774 604.503,109.875 606.577,164.623 608.651,142.724 610.725,142.724 612.799,153.673 614.873,120.825 616.946,120.825 619.02,131.774 621.094,120.825 623.168,120.825 625.242,98.9258 627.316,164.623 629.39,153.673 631.464,131.774 633.538,98.9258 635.612,153.673 637.686,109.875 639.76,120.825 641.833,142.724 643.907,120.825 645.981,142.724 648.055,153.673 650.129,142.724 652.203,120.825 654.277,131.774 656.351,98.9258 658.425,109.875 660.499,98.9258 662.573,109.875 664.647,98.9258 666.721,120.825 668.794,109.875 670.868,109.875 672.942,109.875 675.016,142.724 677.09,109.875 679.164,109.875 681.238,98.9258 683.312,98.9258 685.386,98.9258 687.46,109.875 689.534,120.825 691.608,98.9258 693.681,109.875 695.755,142.724 697.829,131.774 699.903,98.9258 701.977,120.825 704.051,131.774 706.125,131.774 708.199,120.825 710.273,109.875 712.347,164.623 714.421,164.623 716.495,153.673 718.569,142.724 720.642,98.9258 722.716,120.825 724.79,142.724 726.864,109.875 728.938,109.875 731.012,120.825 733.086,120.825 735.16,109.875 737.234,131.774 739.308,131.774 741.382,131.774 743.456,109.875 745.53,87.9763 747.603,109.875 749.677,120.825 751.751,131.774 753.825,98.9258 755.899,109.875 757.973,87.9763 760.047,98.9258 762.121,120.825 764.195,109.875 766.269,109.875 768.343,109.875 770.417,109.875 772.49,208.421 774.564,142.724 776.638,98.9258 778.712,87.9763 780.786,120.825 782.86,98.9258 784.934,131.774 787.008,98.9258 789.082,98.9258 791.156,142.724 793.23,120.825 795.304,87.9763 797.378,120.825 799.451,131.774 801.525,109.875 803.599,98.9258 805.673,109.875 807.747,98.9258 809.821,109.875 811.895,87.9763 813.969,109.875 816.043,109.875 818.117,120.825 820.191,109.875 822.265,109.875 824.339,87.9763 826.412,98.9258 828.486,109.875 830.56,87.9763 832.634,98.9258 834.708,142.724 836.782,142.724 838.856,98.9258 840.93,98.9258 843.004,131.774 845.078,120.825 847.152,120.825 849.226,120.825 851.299,109.875 853.373,120.825 855.447,98.9258 857.521,142.724 859.595,87.9763 861.669,87.9763 863.743,98.9258 865.817,120.825 867.891,87.9763 869.965,98.9258 872.039,98.9258 874.113,131.774 876.187,98.9258 878.26,109.875 880.334,109.875 882.408,87.9763 884.482,142.724 886.556,98.9258 888.63,131.774 890.704,98.9258 892.778,98.9258 894.852,142.724 896.926,109.875 899,109.875 901.074,109.875 903.147,87.9763 905.221,109.875 907.295,120.825 909.369,98.9258 911.443,131.774 913.517,109.875 915.591,109.875 917.665,109.875 919.739,98.9258 921.813,131.774 923.887,87.9763 925.961,87.9763 928.035,153.673 930.108,98.9258 932.182,109.875 934.256,98.9258 936.33,98.9258 938.404,87.9763 940.478,87.9763 942.552,98.9258 944.626,131.774 946.7,98.9258 948.774,109.875 950.848,87.9763 952.922,87.9763 954.996,109.875 957.069,87.9763 959.143,120.825 961.217,98.9258 963.291,98.9258 965.365,120.825 967.439,120.825 969.513,109.875 971.587,109.875 973.661,98.9258 975.735,98.9258 977.809,120.825 979.883,87.9763 981.956,120.825 984.03,87.9763 986.104,109.875 988.178,120.825 990.252,109.875 992.326,109.875 994.4,87.9763 996.474,142.724 998.548,131.774 1000.62,131.774 1002.7,98.9258 1004.77,87.9763 1006.84,120.825 1008.92,98.9258 1010.99,87.9763 1013.07,87.9763 1015.14,109.875 1017.21,131.774 1019.29,98.9258 1021.36,98.9258 1023.43,120.825 1025.51,98.9258 1027.58,98.9258 1029.66,109.875 1031.73,98.9258 1033.8,87.9763 1035.88,98.9258 1037.95,87.9763 1040.03,120.825 1042.1,109.875 1044.17,120.825 1046.25,87.9763 1048.32,87.9763 1050.4,120.825 1052.47,98.9258 1054.54,98.9258 1056.62,98.9258 1058.69,87.9763 1060.77,87.9763 1062.84,109.875 1064.91,109.875 1066.99,87.9763 1069.06,120.825 1071.14,109.875 1073.21,87.9763 1075.28,98.9258 1077.36,98.9258 1079.43,98.9258 1081.5,109.875 1083.58,87.9763 1085.65,87.9763 1087.73,109.875 1089.8,98.9258 1091.87,131.774 1093.95,87.9763 1096.02,87.9763 1098.1,98.9258 1100.17,98.9258 1102.24,87.9763 1104.32,98.9258 1106.39,98.9258 1108.47,98.9258 1110.54,87.9763 1112.61,87.9763 1114.69,87.9763 1116.76,87.9763 1118.84,87.9763 1120.91,98.9258 1122.98,98.9258 1125.06,87.9763 1127.13,87.9763 1129.2,87.9763 1131.28,109.875 1133.35,87.9763 1135.43,98.9258 1137.5,109.875 1139.57,87.9763 1141.65,120.825 1143.72,98.9258 1145.8,87.9763 1147.87,87.9763 1149.94,109.875 1152.02,98.9258 1154.09,98.9258 1156.17,87.9763 1158.24,87.9763 1160.31,120.825 1162.39,98.9258 1164.46,98.9258 1166.54,87.9763 1168.61,109.875 1170.68,109.875 1172.76,87.9763 1174.83,109.875 1176.91,87.9763 1178.98,98.9258 1181.05,98.9258 1183.13,87.9763 1185.2,87.9763 1187.27,98.9258 1189.35,109.875 1191.42,98.9258 1193.5,109.875 1195.57,98.9258 1197.64,98.9258 1199.72,120.825 1201.79,87.9763 1203.87,109.875 1205.94,109.875 1208.01,98.9258 1210.09,87.9763 1212.16,98.9258 1214.24,98.9258 1216.31,109.875 1218.38,109.875 1220.46,98.9258 1222.53,98.9258 1224.61,109.875 1226.68,109.875 1228.75,109.875 1230.83,98.9258 1232.9,87.9763 1234.97,98.9258 1237.05,87.9763 1239.12,98.9258 1241.2,98.9258 1243.27,109.875 1245.34,87.9763 1247.42,98.9258 1249.49,98.9258 1251.57,109.875 1253.64,109.875 1255.71,87.9763 1257.79,87.9763 1259.86,109.875 1261.94,98.9258 1264.01,109.875 1266.08,109.875 1268.16,87.9763 1270.23,98.9258 1272.31,87.9763 1274.38,87.9763 1276.45,98.9258 1278.53,109.875 1280.6,98.9258 1282.68,109.875 1284.75,98.9258 1286.82,87.9763 1288.9,87.9763 1290.97,98.9258 1293.04,109.875 1295.12,120.825 1297.19,98.9258 1299.27,87.9763 1301.34,98.9258 1303.41,87.9763 1305.49,109.875 1307.56,98.9258 1309.64,109.875 1311.71,98.9258 1313.78,98.9258 1315.86,87.9763 1317.93,87.9763 1320.01,87.9763 1322.08,109.875 1324.15,98.9258 1326.23,87.9763 1328.3,87.9763 1330.38,87.9763 1332.45,120.825 1334.52,98.9258 1336.6,87.9763 1338.67,98.9258 1340.74,109.875 1342.82,87.9763 1344.89,98.9258 1346.97,109.875 1349.04,87.9763 1351.11,98.9258 1353.19,98.9258 1355.26,98.9258 1357.34,98.9258 1359.41,98.9258 1361.48,98.9258 1363.56,109.875 1365.63,109.875 1367.71,87.9763 1369.78,87.9763 1371.85,87.9763 1373.93,87.9763 1376,98.9258 1378.08,98.9258 1380.15,87.9763 1382.22,109.875 1384.3,98.9258 1386.37,87.9763 1388.44,87.9763 1390.52,87.9763 1392.59,98.9258 1394.67,87.9763 1396.74,98.9258 1398.81,109.875 1400.89,87.9763 1402.96,98.9258 1405.04,98.9258 1407.11,98.9258 1409.18,131.774 1411.26,98.9258 1413.33,87.9763 1415.41,87.9763 1417.48,109.875 1419.55,98.9258 1421.63,87.9763 1423.7,98.9258 1425.78,87.9763 1427.85,98.9258 1429.92,87.9763 1432,98.9258 1434.07,98.9258 1436.15,98.9258 1438.22,87.9763 1440.29,109.875 1442.37,98.9258 1444.44,98.9258 1446.51,87.9763 1448.59,109.875 1450.66,87.9763 1452.74,98.9258 1454.81,98.9258 1456.88,87.9763 1458.96,109.875 1461.03,87.9763 1463.11,98.9258 1465.18,87.9763 1467.25,87.9763 1469.33,87.9763 1471.4,98.9258 1473.48,98.9258 1475.55,87.9763 1477.62,98.9258 1479.7,109.875 1481.77,87.9763 1483.85,98.9258 1485.92,87.9763 1487.99,109.875 1490.07,87.9763 1492.14,87.9763 1494.21,87.9763 1496.29,87.9763 1498.36,109.875 1500.44,98.9258 1502.51,98.9258 1504.58,98.9258 1506.66,109.875 1508.73,87.9763 1510.81,87.9763 1512.88,98.9258 1514.95,87.9763 1517.03,87.9763 1519.1,87.9763 1521.18,98.9258 1523.25,109.875 1525.32,87.9763 1527.4,87.9763 1529.47,98.9258 1531.55,98.9258 1533.62,87.9763 1535.69,98.9258 1537.77,87.9763 1539.84,98.9258 1541.92,98.9258 1543.99,87.9763 1546.06,87.9763 1548.14,87.9763 1550.21,109.875 1552.28,98.9258 1554.36,98.9258 1556.43,98.9258 1558.51,87.9763 1560.58,120.825 1562.65,98.9258 1564.73,98.9258 1566.8,109.875 1568.88,98.9258 1570.95,98.9258 1573.02,109.875 1575.1,98.9258 1577.17,98.9258 1579.25,109.875 1581.32,87.9763 1583.39,98.9258 1585.47,109.875 1587.54,109.875 1589.62,98.9258 1591.69,98.9258 1593.76,98.9258 1595.84,98.9258 1597.91,87.9763 1599.98,98.9258 1602.06,87.9763 1604.13,98.9258 1606.21,98.9258 1608.28,98.9258 1610.35,98.9258 1612.43,87.9763 1614.5,109.875 1616.58,109.875 1618.65,87.9763 1620.72,109.875 1622.8,98.9258 1624.87,98.9258 1626.95,98.9258 1629.02,109.875 1631.09,87.9763 1633.17,87.9763 1635.24,87.9763 1637.32,87.9763 1639.39,109.875 1641.46,98.9258 1643.54,87.9763 1645.61,87.9763 1647.69,98.9258 1649.76,98.9258 1651.83,87.9763 1653.91,87.9763 1655.98,87.9763 1658.05,109.875 1660.13,98.9258 1662.2,87.9763 1664.28,87.9763 1666.35,87.9763 1668.42,87.9763 1670.5,98.9258 1672.57,87.9763 1674.65,87.9763 1676.72,87.9763 1678.79,87.9763 1680.87,87.9763 1682.94,98.9258 1685.02,87.9763 1687.09,87.9763 1689.16,98.9258 1691.24,109.875 1693.31,87.9763 1695.39,87.9763 1697.46,98.9258 1699.53,98.9258 1701.61,87.9763 1703.68,98.9258 1705.75,87.9763 1707.83,120.825 1709.9,98.9258 1711.98,87.9763 1714.05,87.9763 1716.12,98.9258 1718.2,120.825 1720.27,87.9763 1722.35,87.9763 1724.42,87.9763 1726.49,87.9763 1728.57,98.9258 1730.64,109.875 1732.72,87.9763 1734.79,87.9763 1736.86,98.9258 1738.94,98.9258 1741.01,98.9258 1743.09,87.9763 1745.16,87.9763 1747.23,98.9258 1749.31,87.9763 1751.38,87.9763 1753.46,87.9763 1755.53,109.875 1757.6,98.9258 1759.68,87.9763 1761.75,109.875 1763.82,87.9763 1765.9,98.9258 1767.97,109.875 1770.05,98.9258 1772.12,98.9258 1774.19,109.875 1776.27,98.9258 1778.34,87.9763 1780.42,120.825 1782.49,87.9763 1784.56,87.9763 1786.64,87.9763 1788.71,87.9763 1790.79,87.9763 1792.86,98.9258 1794.93,87.9763 1797.01,98.9258 1799.08,98.9258 1801.16,87.9763 1803.23,98.9258 1805.3,109.875 1807.38,87.9763 1809.45,98.9258 1811.52,87.9763 1813.6,98.9258 1815.67,87.9763 1817.75,87.9763 1819.82,98.9258 1821.89,87.9763 1823.97,98.9258 1826.04,98.9258 1828.12,87.9763 1830.19,98.9258 1832.26,98.9258 1834.34,87.9763 1836.41,87.9763 1838.49,98.9258 1840.56,98.9258 1842.63,109.875 1844.71,87.9763 1846.78,87.9763 1848.86,87.9763 1850.93,87.9763 1853,98.9258 1855.08,109.875 1857.15,87.9763 1859.22,98.9258 1861.3,109.875 1863.37,87.9763 1865.45,98.9258 1867.52,98.9258 1869.59,109.875 1871.67,98.9258 1873.74,98.9258 1875.82,98.9258 1877.89,87.9763 1879.96,87.9763 1882.04,87.9763 1884.11,87.9763 1886.19,87.9763 1888.26,98.9258 1890.33,87.9763 1892.41,87.9763 1894.48,98.9258 1896.56,98.9258 1898.63,109.875 1900.7,87.9763 1902.78,109.875 1904.85,87.9763 1906.93,98.9258 1909,120.825 1911.07,87.9763 1913.15,98.9258 1915.22,87.9763 1917.29,87.9763 1919.37,87.9763 1921.44,109.875 1923.52,98.9258 1925.59,98.9258 1927.66,87.9763 1929.74,98.9258 1931.81,98.9258 1933.89,109.875 1935.96,98.9258 1938.03,98.9258 1940.11,87.9763 1942.18,87.9763 1944.26,87.9763 1946.33,87.9763 1948.4,87.9763 1950.48,98.9258 1952.55,87.9763 1954.63,98.9258 1956.7,87.9763 1958.77,98.9258 1960.85,87.9763 1962.92,98.9258 1964.99,87.9763 1967.07,109.875 1969.14,87.9763 1971.22,120.825 1973.29,87.9763 1975.36,120.825 1977.44,98.9258 1979.51,109.875 1981.59,87.9763 1983.66,87.9763 1985.73,87.9763 1987.81,87.9763 1989.88,87.9763 1991.96,87.9763 1994.03,87.9763 1996.1,120.825 1998.18,87.9763 2000.25,87.9763 2002.33,87.9763 2004.4,87.9763 2006.47,98.9258 2008.55,131.774 2010.62,109.875 2012.7,87.9763 2014.77,87.9763 2016.84,98.9258 2018.92,87.9763 2020.99,98.9258 2023.06,87.9763 2025.14,98.9258 2027.21,87.9763 2029.29,87.9763 2031.36,87.9763 2033.43,87.9763 2035.51,98.9258 2037.58,87.9763 2039.66,87.9763 2041.73,98.9258 2043.8,98.9258 2045.88,109.875 2047.95,98.9258 2050.03,87.9763 2052.1,87.9763 2054.17,87.9763 2056.25,87.9763 2058.32,87.9763 2060.4,98.9258 2062.47,87.9763 2064.54,98.9258 2066.62,98.9258 2068.69,98.9258 2070.76,87.9763 2072.84,87.9763 2074.91,109.875 2076.99,98.9258 2079.06,98.9258 2081.13,98.9258 2083.21,98.9258 2085.28,98.9258 2087.36,98.9258 2089.43,98.9258 2091.5,87.9763 2093.58,87.9763 2095.65,87.9763 2097.73,98.9258 2099.8,98.9258 2101.87,87.9763 2103.95,109.875 2106.02,98.9258 2108.1,87.9763 2110.17,98.9258 2112.24,87.9763 2114.32,87.9763 2116.39,87.9763 2118.47,98.9258 2120.54,98.9258 2122.61,87.9763 2124.69,87.9763 2126.76,109.875 2128.83,87.9763 2130.91,87.9763 2132.98,87.9763 2135.06,98.9258 2137.13,109.875 2139.2,98.9258 2141.28,87.9763 2143.35,98.9258 2145.43,120.825 2147.5,87.9763 2149.57,109.875 2151.65,98.9258 2153.72,87.9763 2155.8,98.9258 2157.87,98.9258 2159.94,87.9763 2162.02,98.9258 2164.09,87.9763 2166.17,98.9258 2168.24,98.9258 2170.31,98.9258 2172.39,98.9258 2174.46,87.9763 2176.53,87.9763 2178.61,87.9763 2180.68,87.9763 2182.76,87.9763 2184.83,98.9258 2186.9,87.9763 2188.98,87.9763 2191.05,98.9258 2193.13,98.9258 2195.2,87.9763 2197.27,87.9763 2199.35,98.9258 2201.42,87.9763 2203.5,87.9763 2205.57,87.9763 2207.64,87.9763 2209.72,87.9763 2211.79,87.9763 2213.87,87.9763 2215.94,87.9763 2218.01,87.9763 2220.09,87.9763 2222.16,109.875 2224.24,87.9763 2226.31,87.9763 2228.38,87.9763 2230.46,98.9258 2232.53,98.9258 2234.6,87.9763 2236.68,87.9763 2238.75,87.9763 2240.83,87.9763 2242.9,98.9258 2244.97,98.9258 2247.05,98.9258 2249.12,87.9763 2251.2,87.9763 2253.27,98.9258 2255.34,98.9258 2257.42,87.9763 2259.49,87.9763 2261.57,87.9763 2263.64,87.9763 2265.71,87.9763 2267.79,87.9763 2269.86,87.9763 2271.94,87.9763 2274.01,109.875 2276.08,87.9763 2278.16,109.875 2280.23,98.9258 2282.3,87.9763 2284.38,98.9258 2286.45,98.9258 2288.53,98.9258 2290.6,98.9258 "/>
<path clip-path="url(#clip920)" d="M2007.5 1438.47 L2279.55 1438.47 L2279.55 1334.79 L2007.5 1334.79  Z" fill="#ffffff" fill-rule="evenodd" fill-opacity="1"/>
<polyline clip-path="url(#clip920)" style="stroke:#000000; stroke-linecap:round; stroke-linejoin:round; stroke-width:4; stroke-opacity:1; fill:none" points="2007.5,1438.47 2279.55,1438.47 2279.55,1334.79 2007.5,1334.79 2007.5,1438.47 "/>
<polyline clip-path="url(#clip920)" style="stroke:#009af9; stroke-linecap:round; stroke-linejoin:round; stroke-width:4; stroke-opacity:1; fill:none" points="2031.91,1386.63 2178.32,1386.63 "/>
<path clip-path="url(#clip920)" d="M2216.56 1406.32 Q2214.76 1410.95 2213.04 1412.36 Q2211.33 1413.78 2208.46 1413.78 L2205.06 1413.78 L2205.06 1410.21 L2207.56 1410.21 Q2209.32 1410.21 2210.29 1409.38 Q2211.26 1408.54 2212.44 1405.44 L2213.2 1403.5 L2202.72 1377.99 L2207.23 1377.99 L2215.33 1398.27 L2223.44 1377.99 L2227.95 1377.99 L2216.56 1406.32 Z" fill="#000000" fill-rule="nonzero" fill-opacity="1" /><path clip-path="url(#clip920)" d="M2235.24 1399.98 L2242.88 1399.98 L2242.88 1373.61 L2234.57 1375.28 L2234.57 1371.02 L2242.83 1369.35 L2247.51 1369.35 L2247.51 1399.98 L2255.15 1399.98 L2255.15 1403.91 L2235.24 1403.91 L2235.24 1399.98 Z" fill="#000000" fill-rule="nonzero" fill-opacity="1" /></svg>
