<?xml version="1.0" encoding="utf-8"?>
<svg xmlns="http://www.w3.org/2000/svg" xmlns:xlink="http://www.w3.org/1999/xlink" width="600" height="400" viewBox="0 0 2400 1600">
<defs>
  <clipPath id="clip120">
    <rect x="0" y="0" width="2400" height="1600"/>
  </clipPath>
</defs>
<path clip-path="url(#clip120)" d="M0 1600 L2400 1600 L2400 0 L0 0  Z" fill="#ffffff" fill-rule="evenodd" fill-opacity="1"/>
<defs>
  <clipPath id="clip121">
    <rect x="480" y="0" width="1681" height="1600"/>
  </clipPath>
</defs>
<path clip-path="url(#clip120)" d="M186.413 1486.45 L2352.76 1486.45 L2352.76 47.2441 L186.413 47.2441  Z" fill="#ffffff" fill-rule="evenodd" fill-opacity="1"/>
<defs>
  <clipPath id="clip122">
    <rect x="186" y="47" width="2167" height="1440"/>
  </clipPath>
</defs>
<polyline clip-path="url(#clip122)" style="stroke:#000000; stroke-linecap:round; stroke-linejoin:round; stroke-width:2; stroke-opacity:0.1; fill:none" points="247.724,1486.45 247.724,47.2441 "/>
<polyline clip-path="url(#clip122)" style="stroke:#000000; stroke-linecap:round; stroke-linejoin:round; stroke-width:2; stroke-opacity:0.1; fill:none" points="758.654,1486.45 758.654,47.2441 "/>
<polyline clip-path="url(#clip122)" style="stroke:#000000; stroke-linecap:round; stroke-linejoin:round; stroke-width:2; stroke-opacity:0.1; fill:none" points="1269.58,1486.45 1269.58,47.2441 "/>
<polyline clip-path="url(#clip122)" style="stroke:#000000; stroke-linecap:round; stroke-linejoin:round; stroke-width:2; stroke-opacity:0.1; fill:none" points="1780.51,1486.45 1780.51,47.2441 "/>
<polyline clip-path="url(#clip122)" style="stroke:#000000; stroke-linecap:round; stroke-linejoin:round; stroke-width:2; stroke-opacity:0.1; fill:none" points="2291.44,1486.45 2291.44,47.2441 "/>
<polyline clip-path="url(#clip120)" style="stroke:#000000; stroke-linecap:round; stroke-linejoin:round; stroke-width:4; stroke-opacity:1; fill:none" points="186.413,1486.45 2352.76,1486.45 "/>
<polyline clip-path="url(#clip120)" style="stroke:#000000; stroke-linecap:round; stroke-linejoin:round; stroke-width:4; stroke-opacity:1; fill:none" points="247.724,1486.45 247.724,1467.55 "/>
<polyline clip-path="url(#clip120)" style="stroke:#000000; stroke-linecap:round; stroke-linejoin:round; stroke-width:4; stroke-opacity:1; fill:none" points="758.654,1486.45 758.654,1467.55 "/>
<polyline clip-path="url(#clip120)" style="stroke:#000000; stroke-linecap:round; stroke-linejoin:round; stroke-width:4; stroke-opacity:1; fill:none" points="1269.58,1486.45 1269.58,1467.55 "/>
<polyline clip-path="url(#clip120)" style="stroke:#000000; stroke-linecap:round; stroke-linejoin:round; stroke-width:4; stroke-opacity:1; fill:none" points="1780.51,1486.45 1780.51,1467.55 "/>
<polyline clip-path="url(#clip120)" style="stroke:#000000; stroke-linecap:round; stroke-linejoin:round; stroke-width:4; stroke-opacity:1; fill:none" points="2291.44,1486.45 2291.44,1467.55 "/>
<path clip-path="url(#clip120)" d="M247.724 1517.37 Q244.113 1517.37 242.285 1520.93 Q240.479 1524.47 240.479 1531.6 Q240.479 1538.71 242.285 1542.27 Q244.113 1545.82 247.724 1545.82 Q251.359 1545.82 253.164 1542.27 Q254.993 1538.71 254.993 1531.6 Q254.993 1524.47 253.164 1520.93 Q251.359 1517.37 247.724 1517.37 M247.724 1513.66 Q253.535 1513.66 256.59 1518.27 Q259.669 1522.85 259.669 1531.6 Q259.669 1540.33 256.59 1544.94 Q253.535 1549.52 247.724 1549.52 Q241.914 1549.52 238.836 1544.94 Q235.78 1540.33 235.78 1531.6 Q235.78 1522.85 238.836 1518.27 Q241.914 1513.66 247.724 1513.66 Z" fill="#000000" fill-rule="nonzero" fill-opacity="1" /><path clip-path="url(#clip120)" d="M718.273 1514.29 L736.629 1514.29 L736.629 1518.22 L722.555 1518.22 L722.555 1526.7 Q723.574 1526.35 724.592 1526.19 Q725.611 1526 726.629 1526 Q732.416 1526 735.796 1529.17 Q739.175 1532.34 739.175 1537.76 Q739.175 1543.34 735.703 1546.44 Q732.231 1549.52 725.912 1549.52 Q723.736 1549.52 721.467 1549.15 Q719.222 1548.78 716.814 1548.04 L716.814 1543.34 Q718.898 1544.47 721.12 1545.03 Q723.342 1545.58 725.819 1545.58 Q729.824 1545.58 732.162 1543.48 Q734.499 1541.37 734.499 1537.76 Q734.499 1534.15 732.162 1532.04 Q729.824 1529.94 725.819 1529.94 Q723.944 1529.94 722.069 1530.35 Q720.217 1530.77 718.273 1531.65 L718.273 1514.29 Z" fill="#000000" fill-rule="nonzero" fill-opacity="1" /><path clip-path="url(#clip120)" d="M758.388 1517.37 Q754.777 1517.37 752.948 1520.93 Q751.143 1524.47 751.143 1531.6 Q751.143 1538.71 752.948 1542.27 Q754.777 1545.82 758.388 1545.82 Q762.022 1545.82 763.828 1542.27 Q765.657 1538.71 765.657 1531.6 Q765.657 1524.47 763.828 1520.93 Q762.022 1517.37 758.388 1517.37 M758.388 1513.66 Q764.198 1513.66 767.254 1518.27 Q770.333 1522.85 770.333 1531.6 Q770.333 1540.33 767.254 1544.94 Q764.198 1549.52 758.388 1549.52 Q752.578 1549.52 749.499 1544.94 Q746.444 1540.33 746.444 1531.6 Q746.444 1522.85 749.499 1518.27 Q752.578 1513.66 758.388 1513.66 Z" fill="#000000" fill-rule="nonzero" fill-opacity="1" /><path clip-path="url(#clip120)" d="M788.55 1517.37 Q784.939 1517.37 783.11 1520.93 Q781.305 1524.47 781.305 1531.6 Q781.305 1538.71 783.11 1542.27 Q784.939 1545.82 788.55 1545.82 Q792.184 1545.82 793.99 1542.27 Q795.819 1538.71 795.819 1531.6 Q795.819 1524.47 793.99 1520.93 Q792.184 1517.37 788.55 1517.37 M788.55 1513.66 Q794.36 1513.66 797.416 1518.27 Q800.494 1522.85 800.494 1531.6 Q800.494 1540.33 797.416 1544.94 Q794.36 1549.52 788.55 1549.52 Q782.74 1549.52 779.661 1544.94 Q776.606 1540.33 776.606 1531.6 Q776.606 1522.85 779.661 1518.27 Q782.74 1513.66 788.55 1513.66 Z" fill="#000000" fill-rule="nonzero" fill-opacity="1" /><path clip-path="url(#clip120)" d="M1214.11 1544.91 L1221.75 1544.91 L1221.75 1518.55 L1213.44 1520.21 L1213.44 1515.95 L1221.7 1514.29 L1226.38 1514.29 L1226.38 1544.91 L1234.02 1544.91 L1234.02 1548.85 L1214.11 1548.85 L1214.11 1544.91 Z" fill="#000000" fill-rule="nonzero" fill-opacity="1" /><path clip-path="url(#clip120)" d="M1253.46 1517.37 Q1249.85 1517.37 1248.02 1520.93 Q1246.22 1524.47 1246.22 1531.6 Q1246.22 1538.71 1248.02 1542.27 Q1249.85 1545.82 1253.46 1545.82 Q1257.1 1545.82 1258.9 1542.27 Q1260.73 1538.71 1260.73 1531.6 Q1260.73 1524.47 1258.9 1520.93 Q1257.1 1517.37 1253.46 1517.37 M1253.46 1513.66 Q1259.27 1513.66 1262.33 1518.27 Q1265.41 1522.85 1265.41 1531.6 Q1265.41 1540.33 1262.33 1544.94 Q1259.27 1549.52 1253.46 1549.52 Q1247.65 1549.52 1244.57 1544.94 Q1241.52 1540.33 1241.52 1531.6 Q1241.52 1522.85 1244.57 1518.27 Q1247.65 1513.66 1253.46 1513.66 Z" fill="#000000" fill-rule="nonzero" fill-opacity="1" /><path clip-path="url(#clip120)" d="M1283.62 1517.37 Q1280.01 1517.37 1278.18 1520.93 Q1276.38 1524.47 1276.38 1531.6 Q1276.38 1538.71 1278.18 1542.27 Q1280.01 1545.82 1283.62 1545.82 Q1287.26 1545.82 1289.06 1542.27 Q1290.89 1538.71 1290.89 1531.6 Q1290.89 1524.47 1289.06 1520.93 Q1287.26 1517.37 1283.62 1517.37 M1283.62 1513.66 Q1289.43 1513.66 1292.49 1518.27 Q1295.57 1522.85 1295.57 1531.6 Q1295.57 1540.33 1292.49 1544.94 Q1289.43 1549.52 1283.62 1549.52 Q1277.81 1549.52 1274.73 1544.94 Q1271.68 1540.33 1271.68 1531.6 Q1271.68 1522.85 1274.73 1518.27 Q1277.81 1513.66 1283.62 1513.66 Z" fill="#000000" fill-rule="nonzero" fill-opacity="1" /><path clip-path="url(#clip120)" d="M1313.79 1517.37 Q1310.17 1517.37 1308.35 1520.93 Q1306.54 1524.47 1306.54 1531.6 Q1306.54 1538.71 1308.35 1542.27 Q1310.17 1545.82 1313.79 1545.82 Q1317.42 1545.82 1319.23 1542.27 Q1321.05 1538.71 1321.05 1531.6 Q1321.05 1524.47 1319.23 1520.93 Q1317.42 1517.37 1313.79 1517.37 M1313.79 1513.66 Q1319.6 1513.66 1322.65 1518.27 Q1325.73 1522.85 1325.73 1531.6 Q1325.73 1540.33 1322.65 1544.94 Q1319.6 1549.52 1313.79 1549.52 Q1307.98 1549.52 1304.9 1544.94 Q1301.84 1540.33 1301.84 1531.6 Q1301.84 1522.85 1304.9 1518.27 Q1307.98 1513.66 1313.79 1513.66 Z" fill="#000000" fill-rule="nonzero" fill-opacity="1" /><path clip-path="url(#clip120)" d="M1725.04 1544.91 L1732.68 1544.91 L1732.68 1518.55 L1724.37 1520.21 L1724.37 1515.95 L1732.63 1514.29 L1737.31 1514.29 L1737.31 1544.91 L1744.95 1544.91 L1744.95 1548.85 L1725.04 1548.85 L1725.04 1544.91 Z" fill="#000000" fill-rule="nonzero" fill-opacity="1" /><path clip-path="url(#clip120)" d="M1754.44 1514.29 L1772.79 1514.29 L1772.79 1518.22 L1758.72 1518.22 L1758.72 1526.7 Q1759.74 1526.35 1760.76 1526.19 Q1761.78 1526 1762.79 1526 Q1768.58 1526 1771.96 1529.17 Q1775.34 1532.34 1775.34 1537.76 Q1775.34 1543.34 1771.87 1546.44 Q1768.4 1549.52 1762.08 1549.52 Q1759.9 1549.52 1757.63 1549.15 Q1755.39 1548.78 1752.98 1548.04 L1752.98 1543.34 Q1755.06 1544.47 1757.29 1545.03 Q1759.51 1545.58 1761.98 1545.58 Q1765.99 1545.58 1768.33 1543.48 Q1770.66 1541.37 1770.66 1537.76 Q1770.66 1534.15 1768.33 1532.04 Q1765.99 1529.94 1761.98 1529.94 Q1760.11 1529.94 1758.23 1530.35 Q1756.38 1530.77 1754.44 1531.65 L1754.44 1514.29 Z" fill="#000000" fill-rule="nonzero" fill-opacity="1" /><path clip-path="url(#clip120)" d="M1794.55 1517.37 Q1790.94 1517.37 1789.11 1520.93 Q1787.31 1524.47 1787.31 1531.6 Q1787.31 1538.71 1789.11 1542.27 Q1790.94 1545.82 1794.55 1545.82 Q1798.19 1545.82 1799.99 1542.27 Q1801.82 1538.71 1801.82 1531.6 Q1801.82 1524.47 1799.99 1520.93 Q1798.19 1517.37 1794.55 1517.37 M1794.55 1513.66 Q1800.36 1513.66 1803.42 1518.27 Q1806.5 1522.85 1806.5 1531.6 Q1806.5 1540.33 1803.42 1544.94 Q1800.36 1549.52 1794.55 1549.52 Q1788.74 1549.52 1785.66 1544.94 Q1782.61 1540.33 1782.61 1531.6 Q1782.61 1522.85 1785.66 1518.27 Q1788.74 1513.66 1794.55 1513.66 Z" fill="#000000" fill-rule="nonzero" fill-opacity="1" /><path clip-path="url(#clip120)" d="M1824.72 1517.37 Q1821.1 1517.37 1819.28 1520.93 Q1817.47 1524.47 1817.47 1531.6 Q1817.47 1538.71 1819.28 1542.27 Q1821.1 1545.82 1824.72 1545.82 Q1828.35 1545.82 1830.16 1542.27 Q1831.98 1538.71 1831.98 1531.6 Q1831.98 1524.47 1830.16 1520.93 Q1828.35 1517.37 1824.72 1517.37 M1824.72 1513.66 Q1830.53 1513.66 1833.58 1518.27 Q1836.66 1522.85 1836.66 1531.6 Q1836.66 1540.33 1833.58 1544.94 Q1830.53 1549.52 1824.72 1549.52 Q1818.91 1549.52 1815.83 1544.94 Q1812.77 1540.33 1812.77 1531.6 Q1812.77 1522.85 1815.83 1518.27 Q1818.91 1513.66 1824.72 1513.66 Z" fill="#000000" fill-rule="nonzero" fill-opacity="1" /><path clip-path="url(#clip120)" d="M2240.06 1544.91 L2256.38 1544.91 L2256.38 1548.85 L2234.43 1548.85 L2234.43 1544.91 Q2237.09 1542.16 2241.68 1537.53 Q2246.28 1532.88 2247.46 1531.53 Q2249.71 1529.01 2250.59 1527.27 Q2251.49 1525.51 2251.49 1523.82 Q2251.49 1521.07 2249.55 1519.33 Q2247.63 1517.6 2244.52 1517.6 Q2242.32 1517.6 2239.87 1518.36 Q2237.44 1519.13 2234.66 1520.68 L2234.66 1515.95 Q2237.49 1514.82 2239.94 1514.24 Q2242.39 1513.66 2244.43 1513.66 Q2249.8 1513.66 2253 1516.35 Q2256.19 1519.03 2256.19 1523.52 Q2256.19 1525.65 2255.38 1527.57 Q2254.59 1529.47 2252.49 1532.07 Q2251.91 1532.74 2248.81 1535.95 Q2245.7 1539.15 2240.06 1544.91 Z" fill="#000000" fill-rule="nonzero" fill-opacity="1" /><path clip-path="url(#clip120)" d="M2276.19 1517.37 Q2272.58 1517.37 2270.75 1520.93 Q2268.94 1524.47 2268.94 1531.6 Q2268.94 1538.71 2270.75 1542.27 Q2272.58 1545.82 2276.19 1545.82 Q2279.82 1545.82 2281.63 1542.27 Q2283.46 1538.71 2283.46 1531.6 Q2283.46 1524.47 2281.63 1520.93 Q2279.82 1517.37 2276.19 1517.37 M2276.19 1513.66 Q2282 1513.66 2285.06 1518.27 Q2288.13 1522.85 2288.13 1531.6 Q2288.13 1540.33 2285.06 1544.94 Q2282 1549.52 2276.19 1549.52 Q2270.38 1549.52 2267.3 1544.94 Q2264.25 1540.33 2264.25 1531.6 Q2264.25 1522.85 2267.3 1518.27 Q2270.38 1513.66 2276.19 1513.66 Z" fill="#000000" fill-rule="nonzero" fill-opacity="1" /><path clip-path="url(#clip120)" d="M2306.35 1517.37 Q2302.74 1517.37 2300.91 1520.93 Q2299.11 1524.47 2299.11 1531.6 Q2299.11 1538.71 2300.91 1542.27 Q2302.74 1545.82 2306.35 1545.82 Q2309.99 1545.82 2311.79 1542.27 Q2313.62 1538.71 2313.62 1531.6 Q2313.62 1524.47 2311.79 1520.93 Q2309.99 1517.37 2306.35 1517.37 M2306.35 1513.66 Q2312.16 1513.66 2315.22 1518.27 Q2318.3 1522.85 2318.3 1531.6 Q2318.3 1540.33 2315.22 1544.94 Q2312.16 1549.52 2306.35 1549.52 Q2300.54 1549.52 2297.46 1544.94 Q2294.41 1540.33 2294.41 1531.6 Q2294.41 1522.85 2297.46 1518.27 Q2300.54 1513.66 2306.35 1513.66 Z" fill="#000000" fill-rule="nonzero" fill-opacity="1" /><path clip-path="url(#clip120)" d="M2336.51 1517.37 Q2332.9 1517.37 2331.07 1520.93 Q2329.27 1524.47 2329.27 1531.6 Q2329.27 1538.71 2331.07 1542.27 Q2332.9 1545.82 2336.51 1545.82 Q2340.15 1545.82 2341.95 1542.27 Q2343.78 1538.71 2343.78 1531.6 Q2343.78 1524.47 2341.95 1520.93 Q2340.15 1517.37 2336.51 1517.37 M2336.51 1513.66 Q2342.32 1513.66 2345.38 1518.27 Q2348.46 1522.85 2348.46 1531.6 Q2348.46 1540.33 2345.38 1544.94 Q2342.32 1549.52 2336.51 1549.52 Q2330.7 1549.52 2327.62 1544.94 Q2324.57 1540.33 2324.57 1531.6 Q2324.57 1522.85 2327.62 1518.27 Q2330.7 1513.66 2336.51 1513.66 Z" fill="#000000" fill-rule="nonzero" fill-opacity="1" /><polyline clip-path="url(#clip122)" style="stroke:#000000; stroke-linecap:round; stroke-linejoin:round; stroke-width:2; stroke-opacity:0.1; fill:none" points="186.413,1347.73 2352.76,1347.73 "/>
<polyline clip-path="url(#clip122)" style="stroke:#000000; stroke-linecap:round; stroke-linejoin:round; stroke-width:2; stroke-opacity:0.1; fill:none" points="186.413,1151.04 2352.76,1151.04 "/>
<polyline clip-path="url(#clip122)" style="stroke:#000000; stroke-linecap:round; stroke-linejoin:round; stroke-width:2; stroke-opacity:0.1; fill:none" points="186.413,954.357 2352.76,954.357 "/>
<polyline clip-path="url(#clip122)" style="stroke:#000000; stroke-linecap:round; stroke-linejoin:round; stroke-width:2; stroke-opacity:0.1; fill:none" points="186.413,757.672 2352.76,757.672 "/>
<polyline clip-path="url(#clip122)" style="stroke:#000000; stroke-linecap:round; stroke-linejoin:round; stroke-width:2; stroke-opacity:0.1; fill:none" points="186.413,560.987 2352.76,560.987 "/>
<polyline clip-path="url(#clip122)" style="stroke:#000000; stroke-linecap:round; stroke-linejoin:round; stroke-width:2; stroke-opacity:0.1; fill:none" points="186.413,364.301 2352.76,364.301 "/>
<polyline clip-path="url(#clip122)" style="stroke:#000000; stroke-linecap:round; stroke-linejoin:round; stroke-width:2; stroke-opacity:0.1; fill:none" points="186.413,167.616 2352.76,167.616 "/>
<polyline clip-path="url(#clip120)" style="stroke:#000000; stroke-linecap:round; stroke-linejoin:round; stroke-width:4; stroke-opacity:1; fill:none" points="186.413,1486.45 186.413,47.2441 "/>
<polyline clip-path="url(#clip120)" style="stroke:#000000; stroke-linecap:round; stroke-linejoin:round; stroke-width:4; stroke-opacity:1; fill:none" points="186.413,1347.73 205.311,1347.73 "/>
<polyline clip-path="url(#clip120)" style="stroke:#000000; stroke-linecap:round; stroke-linejoin:round; stroke-width:4; stroke-opacity:1; fill:none" points="186.413,1151.04 205.311,1151.04 "/>
<polyline clip-path="url(#clip120)" style="stroke:#000000; stroke-linecap:round; stroke-linejoin:round; stroke-width:4; stroke-opacity:1; fill:none" points="186.413,954.357 205.311,954.357 "/>
<polyline clip-path="url(#clip120)" style="stroke:#000000; stroke-linecap:round; stroke-linejoin:round; stroke-width:4; stroke-opacity:1; fill:none" points="186.413,757.672 205.311,757.672 "/>
<polyline clip-path="url(#clip120)" style="stroke:#000000; stroke-linecap:round; stroke-linejoin:round; stroke-width:4; stroke-opacity:1; fill:none" points="186.413,560.987 205.311,560.987 "/>
<polyline clip-path="url(#clip120)" style="stroke:#000000; stroke-linecap:round; stroke-linejoin:round; stroke-width:4; stroke-opacity:1; fill:none" points="186.413,364.301 205.311,364.301 "/>
<polyline clip-path="url(#clip120)" style="stroke:#000000; stroke-linecap:round; stroke-linejoin:round; stroke-width:4; stroke-opacity:1; fill:none" points="186.413,167.616 205.311,167.616 "/>
<path clip-path="url(#clip120)" d="M64.0708 1348.6 Q60.7374 1348.6 58.8162 1350.38 Q56.918 1352.16 56.918 1355.29 Q56.918 1358.41 58.8162 1360.19 Q60.7374 1361.98 64.0708 1361.98 Q67.4041 1361.98 69.3254 1360.19 Q71.2466 1358.39 71.2466 1355.29 Q71.2466 1352.16 69.3254 1350.38 Q67.4272 1348.6 64.0708 1348.6 M59.3949 1346.61 Q56.3856 1345.86 54.6958 1343.8 Q53.0292 1341.74 53.0292 1338.78 Q53.0292 1334.64 55.969 1332.23 Q58.9319 1329.82 64.0708 1329.82 Q69.2328 1329.82 72.1726 1332.23 Q75.1124 1334.64 75.1124 1338.78 Q75.1124 1341.74 73.4226 1343.8 Q71.7559 1345.86 68.7698 1346.61 Q72.1494 1347.39 74.0244 1349.68 Q75.9225 1351.98 75.9225 1355.29 Q75.9225 1360.31 72.8439 1362.99 Q69.7883 1365.68 64.0708 1365.68 Q58.3532 1365.68 55.2745 1362.99 Q52.219 1360.31 52.219 1355.29 Q52.219 1351.98 54.1171 1349.68 Q56.0152 1347.39 59.3949 1346.61 M57.6819 1339.22 Q57.6819 1341.91 59.3486 1343.41 Q61.0384 1344.92 64.0708 1344.92 Q67.08 1344.92 68.7698 1343.41 Q70.4828 1341.91 70.4828 1339.22 Q70.4828 1336.54 68.7698 1335.03 Q67.08 1333.53 64.0708 1333.53 Q61.0384 1333.53 59.3486 1335.03 Q57.6819 1336.54 57.6819 1339.22 Z" fill="#000000" fill-rule="nonzero" fill-opacity="1" /><path clip-path="url(#clip120)" d="M84.2327 1359.13 L89.1169 1359.13 L89.1169 1365.01 L84.2327 1365.01 L84.2327 1359.13 Z" fill="#000000" fill-rule="nonzero" fill-opacity="1" /><path clip-path="url(#clip120)" d="M103.33 1361.07 L119.649 1361.07 L119.649 1365.01 L97.7048 1365.01 L97.7048 1361.07 Q100.367 1358.32 104.95 1353.69 Q109.557 1349.04 110.737 1347.69 Q112.983 1345.17 113.862 1343.43 Q114.765 1341.67 114.765 1339.98 Q114.765 1337.23 112.82 1335.49 Q110.899 1333.76 107.797 1333.76 Q105.598 1333.76 103.145 1334.52 Q100.714 1335.29 97.9363 1336.84 L97.9363 1332.11 Q100.76 1330.98 103.214 1330.4 Q105.668 1329.82 107.705 1329.82 Q113.075 1329.82 116.27 1332.51 Q119.464 1335.19 119.464 1339.68 Q119.464 1341.81 118.654 1343.73 Q117.867 1345.63 115.76 1348.23 Q115.182 1348.9 112.08 1352.11 Q108.978 1355.31 103.33 1361.07 Z" fill="#000000" fill-rule="nonzero" fill-opacity="1" /><path clip-path="url(#clip120)" d="M129.51 1330.45 L147.867 1330.45 L147.867 1334.38 L133.793 1334.38 L133.793 1342.86 Q134.811 1342.51 135.83 1342.35 Q136.848 1342.16 137.867 1342.16 Q143.654 1342.16 147.033 1345.33 Q150.413 1348.5 150.413 1353.92 Q150.413 1359.5 146.941 1362.6 Q143.468 1365.68 137.149 1365.68 Q134.973 1365.68 132.705 1365.31 Q130.459 1364.94 128.052 1364.2 L128.052 1359.5 Q130.135 1360.63 132.357 1361.19 Q134.58 1361.74 137.056 1361.74 Q141.061 1361.74 143.399 1359.64 Q145.737 1357.53 145.737 1353.92 Q145.737 1350.31 143.399 1348.2 Q141.061 1346.1 137.056 1346.1 Q135.181 1346.1 133.306 1346.51 Q131.455 1346.93 129.51 1347.81 L129.51 1330.45 Z" fill="#000000" fill-rule="nonzero" fill-opacity="1" /><path clip-path="url(#clip120)" d="M63.0754 1151.91 Q59.7421 1151.91 57.8208 1153.69 Q55.9227 1155.48 55.9227 1158.6 Q55.9227 1161.73 57.8208 1163.51 Q59.7421 1165.29 63.0754 1165.29 Q66.4087 1165.29 68.33 1163.51 Q70.2513 1161.7 70.2513 1158.6 Q70.2513 1155.48 68.33 1153.69 Q66.4319 1151.91 63.0754 1151.91 M58.3995 1149.92 Q55.3903 1149.18 53.7004 1147.12 Q52.0338 1145.06 52.0338 1142.1 Q52.0338 1137.95 54.9736 1135.55 Q57.9365 1133.14 63.0754 1133.14 Q68.2374 1133.14 71.1772 1135.55 Q74.117 1137.95 74.117 1142.1 Q74.117 1145.06 72.4272 1147.12 Q70.7605 1149.18 67.7744 1149.92 Q71.1541 1150.71 73.029 1153 Q74.9272 1155.29 74.9272 1158.6 Q74.9272 1163.62 71.8485 1166.31 Q68.793 1168.99 63.0754 1168.99 Q57.3578 1168.99 54.2791 1166.31 Q51.2236 1163.62 51.2236 1158.6 Q51.2236 1155.29 53.1217 1153 Q55.0199 1150.71 58.3995 1149.92 M56.6865 1142.54 Q56.6865 1145.22 58.3532 1146.73 Q60.043 1148.23 63.0754 1148.23 Q66.0846 1148.23 67.7744 1146.73 Q69.4874 1145.22 69.4874 1142.54 Q69.4874 1139.85 67.7744 1138.35 Q66.0846 1136.84 63.0754 1136.84 Q60.043 1136.84 58.3532 1138.35 Q56.6865 1139.85 56.6865 1142.54 Z" fill="#000000" fill-rule="nonzero" fill-opacity="1" /><path clip-path="url(#clip120)" d="M83.2373 1162.44 L88.1216 1162.44 L88.1216 1168.32 L83.2373 1168.32 L83.2373 1162.44 Z" fill="#000000" fill-rule="nonzero" fill-opacity="1" /><path clip-path="url(#clip120)" d="M98.353 1133.76 L116.709 1133.76 L116.709 1137.7 L102.635 1137.7 L102.635 1146.17 Q103.654 1145.82 104.672 1145.66 Q105.691 1145.48 106.709 1145.48 Q112.496 1145.48 115.876 1148.65 Q119.256 1151.82 119.256 1157.23 Q119.256 1162.81 115.783 1165.92 Q112.311 1168.99 105.992 1168.99 Q103.816 1168.99 101.547 1168.62 Q99.3021 1168.25 96.8947 1167.51 L96.8947 1162.81 Q98.978 1163.95 101.2 1164.5 Q103.422 1165.06 105.899 1165.06 Q109.904 1165.06 112.242 1162.95 Q114.58 1160.85 114.58 1157.23 Q114.58 1153.62 112.242 1151.52 Q109.904 1149.41 105.899 1149.41 Q104.024 1149.41 102.149 1149.83 Q100.297 1150.24 98.353 1151.12 L98.353 1133.76 Z" fill="#000000" fill-rule="nonzero" fill-opacity="1" /><path clip-path="url(#clip120)" d="M138.469 1136.84 Q134.857 1136.84 133.029 1140.41 Q131.223 1143.95 131.223 1151.08 Q131.223 1158.18 133.029 1161.75 Q134.857 1165.29 138.469 1165.29 Q142.103 1165.29 143.908 1161.75 Q145.737 1158.18 145.737 1151.08 Q145.737 1143.95 143.908 1140.41 Q142.103 1136.84 138.469 1136.84 M138.469 1133.14 Q144.279 1133.14 147.334 1137.74 Q150.413 1142.33 150.413 1151.08 Q150.413 1159.8 147.334 1164.41 Q144.279 1168.99 138.469 1168.99 Q132.658 1168.99 129.58 1164.41 Q126.524 1159.8 126.524 1151.08 Q126.524 1142.33 129.58 1137.74 Q132.658 1133.14 138.469 1133.14 Z" fill="#000000" fill-rule="nonzero" fill-opacity="1" /><path clip-path="url(#clip120)" d="M64.0708 955.225 Q60.7374 955.225 58.8162 957.008 Q56.918 958.79 56.918 961.915 Q56.918 965.04 58.8162 966.823 Q60.7374 968.605 64.0708 968.605 Q67.4041 968.605 69.3254 966.823 Q71.2466 965.017 71.2466 961.915 Q71.2466 958.79 69.3254 957.008 Q67.4272 955.225 64.0708 955.225 M59.3949 953.235 Q56.3856 952.494 54.6958 950.434 Q53.0292 948.374 53.0292 945.411 Q53.0292 941.267 55.969 938.86 Q58.9319 936.452 64.0708 936.452 Q69.2328 936.452 72.1726 938.86 Q75.1124 941.267 75.1124 945.411 Q75.1124 948.374 73.4226 950.434 Q71.7559 952.494 68.7698 953.235 Q72.1494 954.022 74.0244 956.313 Q75.9225 958.605 75.9225 961.915 Q75.9225 966.938 72.8439 969.624 Q69.7883 972.309 64.0708 972.309 Q58.3532 972.309 55.2745 969.624 Q52.219 966.938 52.219 961.915 Q52.219 958.605 54.1171 956.313 Q56.0152 954.022 59.3949 953.235 M57.6819 945.85 Q57.6819 948.536 59.3486 950.04 Q61.0384 951.545 64.0708 951.545 Q67.08 951.545 68.7698 950.04 Q70.4828 948.536 70.4828 945.85 Q70.4828 943.165 68.7698 941.661 Q67.08 940.156 64.0708 940.156 Q61.0384 940.156 59.3486 941.661 Q57.6819 943.165 57.6819 945.85 Z" fill="#000000" fill-rule="nonzero" fill-opacity="1" /><path clip-path="url(#clip120)" d="M84.2327 965.758 L89.1169 965.758 L89.1169 971.637 L84.2327 971.637 L84.2327 965.758 Z" fill="#000000" fill-rule="nonzero" fill-opacity="1" /><path clip-path="url(#clip120)" d="M98.1215 937.077 L120.344 937.077 L120.344 939.068 L107.797 971.637 L102.913 971.637 L114.719 941.013 L98.1215 941.013 L98.1215 937.077 Z" fill="#000000" fill-rule="nonzero" fill-opacity="1" /><path clip-path="url(#clip120)" d="M129.51 937.077 L147.867 937.077 L147.867 941.013 L133.793 941.013 L133.793 949.485 Q134.811 949.138 135.83 948.975 Q136.848 948.79 137.867 948.79 Q143.654 948.79 147.033 951.962 Q150.413 955.133 150.413 960.549 Q150.413 966.128 146.941 969.23 Q143.468 972.309 137.149 972.309 Q134.973 972.309 132.705 971.938 Q130.459 971.568 128.052 970.827 L128.052 966.128 Q130.135 967.262 132.357 967.818 Q134.58 968.374 137.056 968.374 Q141.061 968.374 143.399 966.267 Q145.737 964.161 145.737 960.549 Q145.737 956.938 143.399 954.832 Q141.061 952.725 137.056 952.725 Q135.181 952.725 133.306 953.142 Q131.455 953.559 129.51 954.438 L129.51 937.077 Z" fill="#000000" fill-rule="nonzero" fill-opacity="1" /><path clip-path="url(#clip120)" d="M53.2143 774.234 L53.2143 769.975 Q54.9736 770.809 56.7791 771.248 Q58.5847 771.688 60.3208 771.688 Q64.9504 771.688 67.3809 768.586 Q69.8346 765.461 70.1818 759.119 Q68.8393 761.11 66.7791 762.174 Q64.7189 763.239 62.2189 763.239 Q57.0338 763.239 54.0014 760.114 Q50.9921 756.966 50.9921 751.526 Q50.9921 746.202 54.1403 742.985 Q57.2884 739.767 62.5198 739.767 Q68.5152 739.767 71.6633 744.374 Q74.8346 748.957 74.8346 757.707 Q74.8346 765.878 70.9457 770.762 Q67.08 775.623 60.5291 775.623 Q58.7699 775.623 56.9643 775.276 Q55.1588 774.929 53.2143 774.234 M62.5198 759.582 Q65.668 759.582 67.4967 757.429 Q69.3485 755.276 69.3485 751.526 Q69.3485 747.799 67.4967 745.647 Q65.668 743.471 62.5198 743.471 Q59.3717 743.471 57.5199 745.647 Q55.6912 747.799 55.6912 751.526 Q55.6912 755.276 57.5199 757.429 Q59.3717 759.582 62.5198 759.582 Z" fill="#000000" fill-rule="nonzero" fill-opacity="1" /><path clip-path="url(#clip120)" d="M83.2373 769.072 L88.1216 769.072 L88.1216 774.952 L83.2373 774.952 L83.2373 769.072 Z" fill="#000000" fill-rule="nonzero" fill-opacity="1" /><path clip-path="url(#clip120)" d="M108.307 743.471 Q104.696 743.471 102.867 747.036 Q101.061 750.577 101.061 757.707 Q101.061 764.813 102.867 768.378 Q104.696 771.92 108.307 771.92 Q111.941 771.92 113.746 768.378 Q115.575 764.813 115.575 757.707 Q115.575 750.577 113.746 747.036 Q111.941 743.471 108.307 743.471 M108.307 739.767 Q114.117 739.767 117.172 744.374 Q120.251 748.957 120.251 757.707 Q120.251 766.434 117.172 771.04 Q114.117 775.623 108.307 775.623 Q102.496 775.623 99.4178 771.04 Q96.3623 766.434 96.3623 757.707 Q96.3623 748.957 99.4178 744.374 Q102.496 739.767 108.307 739.767 Z" fill="#000000" fill-rule="nonzero" fill-opacity="1" /><path clip-path="url(#clip120)" d="M138.469 743.471 Q134.857 743.471 133.029 747.036 Q131.223 750.577 131.223 757.707 Q131.223 764.813 133.029 768.378 Q134.857 771.92 138.469 771.92 Q142.103 771.92 143.908 768.378 Q145.737 764.813 145.737 757.707 Q145.737 750.577 143.908 747.036 Q142.103 743.471 138.469 743.471 M138.469 739.767 Q144.279 739.767 147.334 744.374 Q150.413 748.957 150.413 757.707 Q150.413 766.434 147.334 771.04 Q144.279 775.623 138.469 775.623 Q132.658 775.623 129.58 771.04 Q126.524 766.434 126.524 757.707 Q126.524 748.957 129.58 744.374 Q132.658 739.767 138.469 739.767 Z" fill="#000000" fill-rule="nonzero" fill-opacity="1" /><path clip-path="url(#clip120)" d="M54.2097 577.549 L54.2097 573.29 Q55.969 574.123 57.7745 574.563 Q59.58 575.003 61.3161 575.003 Q65.9457 575.003 68.3763 571.901 Q70.83 568.776 71.1772 562.434 Q69.8346 564.424 67.7744 565.489 Q65.7143 566.554 63.2143 566.554 Q58.0291 566.554 54.9967 563.429 Q51.9875 560.281 51.9875 554.841 Q51.9875 549.517 55.1356 546.299 Q58.2838 543.082 63.5152 543.082 Q69.5105 543.082 72.6587 547.688 Q75.83 552.272 75.83 561.021 Q75.83 569.193 71.9411 574.077 Q68.0754 578.938 61.5245 578.938 Q59.7652 578.938 57.9597 578.591 Q56.1541 578.244 54.2097 577.549 M63.5152 562.896 Q66.6633 562.896 68.492 560.744 Q70.3439 558.591 70.3439 554.841 Q70.3439 551.114 68.492 548.961 Q66.6633 546.785 63.5152 546.785 Q60.3671 546.785 58.5152 548.961 Q56.6865 551.114 56.6865 554.841 Q56.6865 558.591 58.5152 560.744 Q60.3671 562.896 63.5152 562.896 Z" fill="#000000" fill-rule="nonzero" fill-opacity="1" /><path clip-path="url(#clip120)" d="M84.2327 572.387 L89.1169 572.387 L89.1169 578.267 L84.2327 578.267 L84.2327 572.387 Z" fill="#000000" fill-rule="nonzero" fill-opacity="1" /><path clip-path="url(#clip120)" d="M103.33 574.332 L119.649 574.332 L119.649 578.267 L97.7048 578.267 L97.7048 574.332 Q100.367 571.577 104.95 566.947 Q109.557 562.295 110.737 560.952 Q112.983 558.429 113.862 556.693 Q114.765 554.934 114.765 553.244 Q114.765 550.489 112.82 548.753 Q110.899 547.017 107.797 547.017 Q105.598 547.017 103.145 547.781 Q100.714 548.545 97.9363 550.096 L97.9363 545.373 Q100.76 544.239 103.214 543.66 Q105.668 543.082 107.705 543.082 Q113.075 543.082 116.27 545.767 Q119.464 548.452 119.464 552.943 Q119.464 555.072 118.654 556.994 Q117.867 558.892 115.76 561.484 Q115.182 562.156 112.08 565.373 Q108.978 568.568 103.33 574.332 Z" fill="#000000" fill-rule="nonzero" fill-opacity="1" /><path clip-path="url(#clip120)" d="M129.51 543.707 L147.867 543.707 L147.867 547.642 L133.793 547.642 L133.793 556.114 Q134.811 555.767 135.83 555.605 Q136.848 555.42 137.867 555.42 Q143.654 555.42 147.033 558.591 Q150.413 561.762 150.413 567.179 Q150.413 572.758 146.941 575.859 Q143.468 578.938 137.149 578.938 Q134.973 578.938 132.705 578.568 Q130.459 578.197 128.052 577.457 L128.052 572.758 Q130.135 573.892 132.357 574.447 Q134.58 575.003 137.056 575.003 Q141.061 575.003 143.399 572.896 Q145.737 570.79 145.737 567.179 Q145.737 563.568 143.399 561.461 Q141.061 559.355 137.056 559.355 Q135.181 559.355 133.306 559.772 Q131.455 560.188 129.51 561.068 L129.51 543.707 Z" fill="#000000" fill-rule="nonzero" fill-opacity="1" /><path clip-path="url(#clip120)" d="M53.2143 380.864 L53.2143 376.605 Q54.9736 377.438 56.7791 377.878 Q58.5847 378.318 60.3208 378.318 Q64.9504 378.318 67.3809 375.216 Q69.8346 372.091 70.1818 365.748 Q68.8393 367.739 66.7791 368.804 Q64.7189 369.869 62.2189 369.869 Q57.0338 369.869 54.0014 366.744 Q50.9921 363.595 50.9921 358.156 Q50.9921 352.832 54.1403 349.614 Q57.2884 346.396 62.5198 346.396 Q68.5152 346.396 71.6633 351.003 Q74.8346 355.586 74.8346 364.336 Q74.8346 372.507 70.9457 377.392 Q67.08 382.253 60.5291 382.253 Q58.7699 382.253 56.9643 381.906 Q55.1588 381.558 53.2143 380.864 M62.5198 366.211 Q65.668 366.211 67.4967 364.058 Q69.3485 361.906 69.3485 358.156 Q69.3485 354.429 67.4967 352.276 Q65.668 350.1 62.5198 350.1 Q59.3717 350.1 57.5199 352.276 Q55.6912 354.429 55.6912 358.156 Q55.6912 361.906 57.5199 364.058 Q59.3717 366.211 62.5198 366.211 Z" fill="#000000" fill-rule="nonzero" fill-opacity="1" /><path clip-path="url(#clip120)" d="M83.2373 375.702 L88.1216 375.702 L88.1216 381.581 L83.2373 381.581 L83.2373 375.702 Z" fill="#000000" fill-rule="nonzero" fill-opacity="1" /><path clip-path="url(#clip120)" d="M98.353 347.021 L116.709 347.021 L116.709 350.957 L102.635 350.957 L102.635 359.429 Q103.654 359.082 104.672 358.92 Q105.691 358.734 106.709 358.734 Q112.496 358.734 115.876 361.906 Q119.256 365.077 119.256 370.494 Q119.256 376.072 115.783 379.174 Q112.311 382.253 105.992 382.253 Q103.816 382.253 101.547 381.882 Q99.3021 381.512 96.8947 380.771 L96.8947 376.072 Q98.978 377.206 101.2 377.762 Q103.422 378.318 105.899 378.318 Q109.904 378.318 112.242 376.211 Q114.58 374.105 114.58 370.494 Q114.58 366.882 112.242 364.776 Q109.904 362.67 105.899 362.67 Q104.024 362.67 102.149 363.086 Q100.297 363.503 98.353 364.382 L98.353 347.021 Z" fill="#000000" fill-rule="nonzero" fill-opacity="1" /><path clip-path="url(#clip120)" d="M138.469 350.1 Q134.857 350.1 133.029 353.665 Q131.223 357.207 131.223 364.336 Q131.223 371.443 133.029 375.007 Q134.857 378.549 138.469 378.549 Q142.103 378.549 143.908 375.007 Q145.737 371.443 145.737 364.336 Q145.737 357.207 143.908 353.665 Q142.103 350.1 138.469 350.1 M138.469 346.396 Q144.279 346.396 147.334 351.003 Q150.413 355.586 150.413 364.336 Q150.413 373.063 147.334 377.669 Q144.279 382.253 138.469 382.253 Q132.658 382.253 129.58 377.669 Q126.524 373.063 126.524 364.336 Q126.524 355.586 129.58 351.003 Q132.658 346.396 138.469 346.396 Z" fill="#000000" fill-rule="nonzero" fill-opacity="1" /><path clip-path="url(#clip120)" d="M54.2097 184.179 L54.2097 179.919 Q55.969 180.753 57.7745 181.192 Q59.58 181.632 61.3161 181.632 Q65.9457 181.632 68.3763 178.53 Q70.83 175.405 71.1772 169.063 Q69.8346 171.054 67.7744 172.118 Q65.7143 173.183 63.2143 173.183 Q58.0291 173.183 54.9967 170.058 Q51.9875 166.91 51.9875 161.47 Q51.9875 156.146 55.1356 152.929 Q58.2838 149.711 63.5152 149.711 Q69.5105 149.711 72.6587 154.318 Q75.83 158.901 75.83 167.651 Q75.83 175.822 71.9411 180.706 Q68.0754 185.567 61.5245 185.567 Q59.7652 185.567 57.9597 185.22 Q56.1541 184.873 54.2097 184.179 M63.5152 169.526 Q66.6633 169.526 68.492 167.373 Q70.3439 165.22 70.3439 161.47 Q70.3439 157.744 68.492 155.591 Q66.6633 153.415 63.5152 153.415 Q60.3671 153.415 58.5152 155.591 Q56.6865 157.744 56.6865 161.47 Q56.6865 165.22 58.5152 167.373 Q60.3671 169.526 63.5152 169.526 Z" fill="#000000" fill-rule="nonzero" fill-opacity="1" /><path clip-path="url(#clip120)" d="M84.2327 179.017 L89.1169 179.017 L89.1169 184.896 L84.2327 184.896 L84.2327 179.017 Z" fill="#000000" fill-rule="nonzero" fill-opacity="1" /><path clip-path="url(#clip120)" d="M98.1215 150.336 L120.344 150.336 L120.344 152.327 L107.797 184.896 L102.913 184.896 L114.719 154.271 L98.1215 154.271 L98.1215 150.336 Z" fill="#000000" fill-rule="nonzero" fill-opacity="1" /><path clip-path="url(#clip120)" d="M129.51 150.336 L147.867 150.336 L147.867 154.271 L133.793 154.271 L133.793 162.743 Q134.811 162.396 135.83 162.234 Q136.848 162.049 137.867 162.049 Q143.654 162.049 147.033 165.22 Q150.413 168.392 150.413 173.808 Q150.413 179.387 146.941 182.489 Q143.468 185.567 137.149 185.567 Q134.973 185.567 132.705 185.197 Q130.459 184.827 128.052 184.086 L128.052 179.387 Q130.135 180.521 132.357 181.077 Q134.58 181.632 137.056 181.632 Q141.061 181.632 143.399 179.526 Q145.737 177.419 145.737 173.808 Q145.737 170.197 143.399 168.091 Q141.061 165.984 137.056 165.984 Q135.181 165.984 133.306 166.401 Q131.455 166.818 129.51 167.697 L129.51 150.336 Z" fill="#000000" fill-rule="nonzero" fill-opacity="1" /><polyline clip-path="url(#clip122)" style="stroke:#009af9; stroke-linecap:round; stroke-linejoin:round; stroke-width:4; stroke-opacity:1; fill:none" points="247.724,87.9763 248.746,115.622 249.768,142.294 250.79,168.037 251.812,192.898 252.834,216.916 253.856,240.129 254.878,262.574 255.899,284.282 256.921,305.285 257.943,325.611 258.965,345.287 259.987,364.338 261.009,382.788 262.031,400.659 263.052,417.972 264.074,434.747 265.096,451.003 266.118,466.758 267.14,482.027 268.162,496.829 269.184,511.178 270.205,525.088 271.227,538.575 272.249,551.65 273.271,564.329 274.293,576.622 275.315,588.542 276.337,600.101 277.358,611.31 278.38,622.179 279.402,632.72 280.424,642.942 281.446,652.855 282.468,662.469 283.49,671.793 284.511,680.836 285.533,689.607 286.555,698.114 287.577,706.365 288.599,714.369 289.621,722.133 290.643,729.666 291.664,736.973 292.686,744.062 293.708,750.941 294.73,757.616 295.752,764.094 296.774,770.381 297.796,776.483 298.817,782.406 299.839,788.156 300.861,793.74 301.883,799.161 302.905,804.426 303.927,809.54 304.949,814.508 305.97,819.335 306.992,824.025 308.014,828.583 309.036,833.014 310.058,837.322 311.08,841.511 312.102,845.585 313.124,849.548 314.145,853.403 315.167,857.156 316.189,860.808 317.211,864.364 318.233,867.827 319.255,871.2 320.277,874.486 321.298,877.688 322.32,880.81 323.342,883.853 324.364,886.821 325.386,889.716 326.408,892.541 327.43,895.298 328.451,897.989 329.473,900.618 330.495,903.185 331.517,905.694 332.539,908.146 333.561,910.543 334.583,912.887 335.604,915.18 336.626,917.424 337.648,919.621 338.67,921.771 339.692,923.877 340.714,925.94 341.736,927.962 342.757,929.944 343.779,931.888 344.801,933.794 345.823,935.664 346.845,937.5 347.867,939.303 348.889,941.073 349.91,942.811 350.932,944.52 351.954,946.199 352.976,947.85 353.998,949.475 355.02,951.072 356.042,952.645 357.063,954.192 358.085,955.717 359.107,957.218 360.129,958.697 361.151,960.154 362.173,961.591 363.195,963.007 364.217,964.405 365.238,965.783 366.26,967.143 367.282,968.486 368.304,969.812 369.326,971.121 370.348,972.414 371.37,973.692 372.391,974.955 373.413,976.204 374.435,977.438 375.457,978.659 376.479,979.866 377.501,981.061 378.523,982.243 379.544,983.414 380.566,984.573 381.588,985.72 382.61,986.857 383.632,987.982 384.654,989.098 385.676,990.203 386.697,991.299 387.719,992.385 388.741,993.462 389.763,994.531 390.785,995.59 391.807,996.641 392.829,997.684 393.85,998.719 394.872,999.746 395.894,1000.77 396.916,1001.78 397.938,1002.78 398.96,1003.78 399.982,1004.77 401.003,1005.76 402.025,1006.73 403.047,1007.71 404.069,1008.67 405.091,1009.63 406.113,1010.58 407.135,1011.53 408.156,1012.48 409.178,1013.41 410.2,1014.34 411.222,1015.27 412.244,1016.19 413.266,1017.11 414.288,1018.02 415.31,1018.93 416.331,1019.83 417.353,1020.73 418.375,1021.62 419.397,1022.51 420.419,1023.39 421.441,1024.27 422.463,1025.15 423.484,1026.02 424.506,1026.89 425.528,1027.75 426.55,1028.62 427.572,1029.47 428.594,1030.33 429.616,1031.17 430.637,1032.02 431.659,1032.86 432.681,1033.7 433.703,1034.54 434.725,1035.37 435.747,1036.2 436.769,1037.03 437.79,1037.85 438.812,1038.67 439.834,1039.49 440.856,1040.3 441.878,1041.11 442.9,1041.92 443.922,1042.72 444.943,1043.52 445.965,1044.32 446.987,1045.12 448.009,1045.91 449.031,1046.7 450.053,1047.49 451.075,1048.28 452.096,1049.06 453.118,1049.84 454.14,1050.62 455.162,1051.39 456.184,1052.17 457.206,1052.94 458.228,1053.71 459.249,1054.47 460.271,1055.23 461.293,1056 462.315,1056.75 463.337,1057.51 464.359,1058.26 465.381,1059.02 466.403,1059.76 467.424,1060.51 468.446,1061.26 469.468,1062 470.49,1062.74 471.512,1063.48 472.534,1064.22 473.556,1064.95 474.577,1065.68 475.599,1066.41 476.621,1067.14 477.643,1067.87 478.665,1068.59 479.687,1069.31 480.709,1070.03 481.73,1070.75 482.752,1071.47 483.774,1072.18 484.796,1072.89 485.818,1073.6 486.84,1074.31 487.862,1075.02 488.883,1075.72 489.905,1076.42 490.927,1077.12 491.949,1077.82 492.971,1078.52 493.993,1079.22 495.015,1079.91 496.036,1080.6 497.058,1081.29 498.08,1081.98 499.102,1082.66 500.124,1083.35 501.146,1084.03 502.168,1084.71 503.189,1085.39 504.211,1086.07 505.233,1086.74 506.255,1087.42 507.277,1088.09 508.299,1088.76 509.321,1089.43 510.342,1090.1 511.364,1090.76 512.386,1091.43 513.408,1092.09 514.43,1092.75 515.452,1093.41 516.474,1094.07 517.496,1094.72 518.517,1095.38 519.539,1096.03 520.561,1096.68 521.583,1097.33 522.605,1097.98 523.627,1098.62 524.649,1099.27 525.67,1099.91 526.692,1100.55 527.714,1101.19 528.736,1101.83 529.758,1102.47 530.78,1103.1 531.802,1103.73 532.823,1104.37 533.845,1105 534.867,1105.63 535.889,1106.25 536.911,1106.88 537.933,1107.5 538.955,1108.13 539.976,1108.75 540.998,1109.37 542.02,1109.99 543.042,1110.61 544.064,1111.22 545.086,1111.84 546.108,1112.45 547.129,1113.06 548.151,1113.67 549.173,1114.28 550.195,1114.89 551.217,1115.49 552.239,1116.1 553.261,1116.7 554.282,1117.3 555.304,1117.9 556.326,1118.5 557.348,1119.1 558.37,1119.69 559.392,1120.29 560.414,1120.88 561.435,1121.47 562.457,1122.06 563.479,1122.65 564.501,1123.24 565.523,1123.82 566.545,1124.41 567.567,1124.99 568.588,1125.58 569.61,1126.16 570.632,1126.74 571.654,1127.31 572.676,1127.89 573.698,1128.47 574.72,1129.04 575.742,1129.61 576.763,1130.19 577.785,1130.76 578.807,1131.33 579.829,1131.89 580.851,1132.46 581.873,1133.03 582.895,1133.59 583.916,1134.15 584.938,1134.71 585.96,1135.27 586.982,1135.83 588.004,1136.39 589.026,1136.95 590.048,1137.5 591.069,1138.06 592.091,1138.61 593.113,1139.16 594.135,1139.71 595.157,1140.26 596.179,1140.81 597.201,1141.35 598.222,1141.9 599.244,1142.44 600.266,1142.99 601.288,1143.53 602.31,1144.07 603.332,1144.61 604.354,1145.15 605.375,1145.68 606.397,1146.22 607.419,1146.75 608.441,1147.29 609.463,1147.82 610.485,1148.35 611.507,1148.88 612.528,1149.41 613.55,1149.94 614.572,1150.46 615.594,1150.99 616.616,1151.51 617.638,1152.03 618.66,1152.56 619.681,1153.08 620.703,1153.6 621.725,1154.11 622.747,1154.63 623.769,1155.15 624.791,1155.66 625.813,1156.18 626.835,1156.69 627.856,1157.2 628.878,1157.71 629.9,1158.22 630.922,1158.73 631.944,1159.24 632.966,1159.74 633.988,1160.25 635.009,1160.75 636.031,1161.25 637.053,1161.76 638.075,1162.26 639.097,1162.76 640.119,1163.25 641.141,1163.75 642.162,1164.25 643.184,1164.74 644.206,1165.24 645.228,1165.73 646.25,1166.22 647.272,1166.71 648.294,1167.2 649.315,1167.69 650.337,1168.18 651.359,1168.67 652.381,1169.15 653.403,1169.64 654.425,1170.12 655.447,1170.61 656.468,1171.09 657.49,1171.57 658.512,1172.05 659.534,1172.53 660.556,1173 661.578,1173.48 662.6,1173.96 663.621,1174.43 664.643,1174.9 665.665,1175.38 666.687,1175.85 667.709,1176.32 668.731,1176.79 669.753,1177.26 670.774,1177.73 671.796,1178.19 672.818,1178.66 673.84,1179.12 674.862,1179.59 675.884,1180.05 676.906,1180.51 677.928,1180.97 678.949,1181.43 679.971,1181.89 680.993,1182.35 682.015,1182.81 683.037,1183.26 684.059,1183.72 685.081,1184.17 686.102,1184.63 687.124,1185.08 688.146,1185.53 689.168,1185.98 690.19,1186.43 691.212,1186.88 692.234,1187.33 693.255,1187.77 694.277,1188.22 695.299,1188.66 696.321,1189.11 697.343,1189.55 698.365,1189.99 699.387,1190.43 700.408,1190.88 701.43,1191.31 702.452,1191.75 703.474,1192.19 704.496,1192.63 705.518,1193.06 706.54,1193.5 707.561,1193.93 708.583,1194.37 709.605,1194.8 710.627,1195.23 711.649,1195.66 712.671,1196.09 713.693,1196.52 714.714,1196.95 715.736,1197.38 716.758,1197.8 717.78,1198.23 718.802,1198.65 719.824,1199.08 720.846,1199.5 721.867,1199.92 722.889,1200.34 723.911,1200.76 724.933,1201.18 725.955,1201.6 726.977,1202.02 727.999,1202.43 729.021,1202.85 730.042,1203.27 731.064,1203.68 732.086,1204.09 733.108,1204.51 734.13,1204.92 735.152,1205.33 736.174,1205.74 737.195,1206.15 738.217,1206.56 739.239,1206.97 740.261,1207.37 741.283,1207.78 742.305,1208.19 743.327,1208.59 744.348,1208.99 745.37,1209.4 746.392,1209.8 747.414,1210.2 748.436,1210.6 749.458,1211 750.48,1211.4 751.501,1211.8 752.523,1212.2 753.545,1212.59 754.567,1212.99 755.589,1213.39 756.611,1213.78 757.633,1214.17 758.654,1214.57 759.676,1214.96 760.698,1215.35 761.72,1215.74 762.742,1216.13 763.764,1216.52 764.786,1216.91 765.807,1217.3 766.829,1217.68 767.851,1218.07 768.873,1218.45 769.895,1218.84 770.917,1219.22 771.939,1219.61 772.96,1219.99 773.982,1220.37 775.004,1220.75 776.026,1221.13 777.048,1221.51 778.07,1221.89 779.092,1222.27 780.113,1222.64 781.135,1223.02 782.157,1223.4 783.179,1223.77 784.201,1224.15 785.223,1224.52 786.245,1224.89 787.267,1225.26 788.288,1225.64 789.31,1226.01 790.332,1226.38 791.354,1226.75 792.376,1227.12 793.398,1227.48 794.42,1227.85 795.441,1228.22 796.463,1228.58 797.485,1228.95 798.507,1229.31 799.529,1229.68 800.551,1230.04 801.573,1230.4 802.594,1230.76 803.616,1231.12 804.638,1231.48 805.66,1231.84 806.682,1232.2 807.704,1232.56 808.726,1232.92 809.747,1233.28 810.769,1233.63 811.791,1233.99 812.813,1234.34 813.835,1234.7 814.857,1235.05 815.879,1235.4 816.9,1235.76 817.922,1236.11 818.944,1236.46 819.966,1236.81 820.988,1237.16 822.01,1237.51 823.032,1237.86 824.053,1238.2 825.075,1238.55 826.097,1238.9 827.119,1239.24 828.141,1239.59 829.163,1239.93 830.185,1240.28 831.206,1240.62 832.228,1240.96 833.25,1241.3 834.272,1241.65 835.294,1241.99 836.316,1242.33 837.338,1242.67 838.36,1243.01 839.381,1243.34 840.403,1243.68 841.425,1244.02 842.447,1244.35 843.469,1244.69 844.491,1245.02 845.513,1245.36 846.534,1245.69 847.556,1246.03 848.578,1246.36 849.6,1246.69 850.622,1247.02 851.644,1247.35 852.666,1247.68 853.687,1248.01 854.709,1248.34 855.731,1248.67 856.753,1249 857.775,1249.33 858.797,1249.65 859.819,1249.98 860.84,1250.3 861.862,1250.63 862.884,1250.95 863.906,1251.28 864.928,1251.6 865.95,1251.92 866.972,1252.24 867.993,1252.57 869.015,1252.89 870.037,1253.21 871.059,1253.53 872.081,1253.85 873.103,1254.16 874.125,1254.48 875.146,1254.8 876.168,1255.12 877.19,1255.43 878.212,1255.75 879.234,1256.06 880.256,1256.38 881.278,1256.69 882.299,1257 883.321,1257.32 884.343,1257.63 885.365,1257.94 886.387,1258.25 887.409,1258.56 888.431,1258.87 889.453,1259.18 890.474,1259.49 891.496,1259.8 892.518,1260.11 893.54,1260.41 894.562,1260.72 895.584,1261.03 896.606,1261.33 897.627,1261.64 898.649,1261.94 899.671,1262.25 900.693,1262.55 901.715,1262.85 902.737,1263.16 903.759,1263.46 904.78,1263.76 905.802,1264.06 906.824,1264.36 907.846,1264.66 908.868,1264.96 909.89,1265.26 910.912,1265.56 911.933,1265.85 912.955,1266.15 913.977,1266.45 914.999,1266.74 916.021,1267.04 917.043,1267.34 918.065,1267.63 919.086,1267.92 920.108,1268.22 921.13,1268.51 922.152,1268.8 923.174,1269.1 924.196,1269.39 925.218,1269.68 926.239,1269.97 927.261,1270.26 928.283,1270.55 929.305,1270.84 930.327,1271.13 931.349,1271.41 932.371,1271.7 933.392,1271.99 934.414,1272.28 935.436,1272.56 936.458,1272.85 937.48,1273.13 938.502,1273.42 939.524,1273.7 940.546,1273.98 941.567,1274.27 942.589,1274.55 943.611,1274.83 944.633,1275.11 945.655,1275.4 946.677,1275.68 947.699,1275.96 948.72,1276.24 949.742,1276.52 950.764,1276.79 951.786,1277.07 952.808,1277.35 953.83,1277.63 954.852,1277.9 955.873,1278.18 956.895,1278.46 957.917,1278.73 958.939,1279.01 959.961,1279.28 960.983,1279.56 962.005,1279.83 963.026,1280.1 964.048,1280.38 965.07,1280.65 966.092,1280.92 967.114,1281.19 968.136,1281.46 969.158,1281.73 970.179,1282 971.201,1282.27 972.223,1282.54 973.245,1282.81 974.267,1283.08 975.289,1283.35 976.311,1283.61 977.332,1283.88 978.354,1284.15 979.376,1284.41 980.398,1284.68 981.42,1284.94 982.442,1285.21 983.464,1285.47 984.485,1285.74 985.507,1286 986.529,1286.26 987.551,1286.53 988.573,1286.79 989.595,1287.05 990.617,1287.31 991.639,1287.57 992.66,1287.83 993.682,1288.09 994.704,1288.35 995.726,1288.61 996.748,1288.87 997.77,1289.13 998.792,1289.38 999.813,1289.64 1000.84,1289.9 1001.86,1290.15 1002.88,1290.41 1003.9,1290.67 1004.92,1290.92 1005.94,1291.18 1006.97,1291.43 1007.99,1291.68 1009.01,1291.94 1010.03,1292.19 1011.05,1292.44 1012.08,1292.7 1013.1,1292.95 1014.12,1293.2 1015.14,1293.45 1016.16,1293.7 1017.18,1293.95 1018.21,1294.2 1019.23,1294.45 1020.25,1294.7 1021.27,1294.95 1022.29,1295.2 1023.32,1295.44 1024.34,1295.69 1025.36,1295.94 1026.38,1296.19 1027.4,1296.43 1028.43,1296.68 1029.45,1296.92 1030.47,1297.17 1031.49,1297.41 1032.51,1297.66 1033.53,1297.9 1034.56,1298.14 1035.58,1298.39 1036.6,1298.63 1037.62,1298.87 1038.64,1299.11 1039.67,1299.36 1040.69,1299.6 1041.71,1299.84 1042.73,1300.08 1043.75,1300.32 1044.78,1300.56 1045.8,1300.8 1046.82,1301.04 1047.84,1301.27 1048.86,1301.51 1049.88,1301.75 1050.91,1301.99 1051.93,1302.22 1052.95,1302.46 1053.97,1302.7 1054.99,1302.93 1056.02,1303.17 1057.04,1303.4 1058.06,1303.64 1059.08,1303.87 1060.1,1304.11 1061.12,1304.34 1062.15,1304.57 1063.17,1304.81 1064.19,1305.04 1065.21,1305.27 1066.23,1305.5 1067.26,1305.73 1068.28,1305.97 1069.3,1306.2 1070.32,1306.43 1071.34,1306.66 1072.37,1306.89 1073.39,1307.12 1074.41,1307.34 1075.43,1307.57 1076.45,1307.8 1077.47,1308.03 1078.5,1308.26 1079.52,1308.48 1080.54,1308.71 1081.56,1308.94 1082.58,1309.16 1083.61,1309.39 1084.63,1309.61 1085.65,1309.84 1086.67,1310.06 1087.69,1310.29 1088.72,1310.51 1089.74,1310.74 1090.76,1310.96 1091.78,1311.18 1092.8,1311.4 1093.82,1311.63 1094.85,1311.85 1095.87,1312.07 1096.89,1312.29 1097.91,1312.51 1098.93,1312.73 1099.96,1312.95 1100.98,1313.17 1102,1313.39 1103.02,1313.61 1104.04,1313.83 1105.06,1314.05 1106.09,1314.27 1107.11,1314.48 1108.13,1314.7 1109.15,1314.92 1110.17,1315.14 1111.2,1315.35 1112.22,1315.57 1113.24,1315.78 1114.26,1316 1115.28,1316.22 1116.31,1316.43 1117.33,1316.64 1118.35,1316.86 1119.37,1317.07 1120.39,1317.29 1121.41,1317.5 1122.44,1317.71 1123.46,1317.92 1124.48,1318.14 1125.5,1318.35 1126.52,1318.56 1127.55,1318.77 1128.57,1318.98 1129.59,1319.19 1130.61,1319.4 1131.63,1319.61 1132.66,1319.82 1133.68,1320.03 1134.7,1320.24 1135.72,1320.45 1136.74,1320.66 1137.76,1320.87 1138.79,1321.08 1139.81,1321.28 1140.83,1321.49 1141.85,1321.7 1142.87,1321.9 1143.9,1322.11 1144.92,1322.32 1145.94,1322.52 1146.96,1322.73 1147.98,1322.93 1149,1323.14 1150.03,1323.34 1151.05,1323.55 1152.07,1323.75 1153.09,1323.95 1154.11,1324.16 1155.14,1324.36 1156.16,1324.56 1157.18,1324.76 1158.2,1324.97 1159.22,1325.17 1160.25,1325.37 1161.27,1325.57 1162.29,1325.77 1163.31,1325.97 1164.33,1326.17 1165.35,1326.37 1166.38,1326.57 1167.4,1326.77 1168.42,1326.97 1169.44,1327.17 1170.46,1327.37 1171.49,1327.56 1172.51,1327.76 1173.53,1327.96 1174.55,1328.16 1175.57,1328.35 1176.6,1328.55 1177.62,1328.75 1178.64,1328.94 1179.66,1329.14 1180.68,1329.34 1181.7,1329.53 1182.73,1329.73 1183.75,1329.92 1184.77,1330.11 1185.79,1330.31 1186.81,1330.5 1187.84,1330.7 1188.86,1330.89 1189.88,1331.08 1190.9,1331.28 1191.92,1331.47 1192.94,1331.66 1193.97,1331.85 1194.99,1332.04 1196.01,1332.24 1197.03,1332.43 1198.05,1332.62 1199.08,1332.81 1200.1,1333 1201.12,1333.19 1202.14,1333.38 1203.16,1333.57 1204.19,1333.76 1205.21,1333.94 1206.23,1334.13 1207.25,1334.32 1208.27,1334.51 1209.29,1334.7 1210.32,1334.89 1211.34,1335.07 1212.36,1335.26 1213.38,1335.45 1214.4,1335.63 1215.43,1335.82 1216.45,1336 1217.47,1336.19 1218.49,1336.38 1219.51,1336.56 1220.54,1336.75 1221.56,1336.93 1222.58,1337.11 1223.6,1337.3 1224.62,1337.48 1225.64,1337.67 1226.67,1337.85 1227.69,1338.03 1228.71,1338.22 1229.73,1338.4 1230.75,1338.58 1231.78,1338.76 1232.8,1338.94 1233.82,1339.13 1234.84,1339.31 1235.86,1339.49 1236.88,1339.67 1237.91,1339.85 1238.93,1340.03 1239.95,1340.21 1240.97,1340.39 1241.99,1340.57 1243.02,1340.75 1244.04,1340.93 1245.06,1341.1 1246.08,1341.28 1247.1,1341.46 1248.13,1341.64 1249.15,1341.82 1250.17,1341.99 1251.19,1342.17 1252.21,1342.35 1253.23,1342.53 1254.26,1342.7 1255.28,1342.88 1256.3,1343.05 1257.32,1343.23 1258.34,1343.41 1259.37,1343.58 1260.39,1343.76 1261.41,1343.93 1262.43,1344.1 1263.45,1344.28 1264.48,1344.45 1265.5,1344.63 1266.52,1344.8 1267.54,1344.97 1268.56,1345.15 1269.58,1345.32 1270.61,1345.49 1271.63,1345.66 1272.65,1345.84 1273.67,1346.01 1274.69,1346.18 1275.72,1346.35 1276.74,1346.52 1277.76,1346.69 1278.78,1346.86 1279.8,1347.03 1280.82,1347.2 1281.85,1347.37 1282.87,1347.54 1283.89,1347.71 1284.91,1347.88 1285.93,1348.05 1286.96,1348.22 1287.98,1348.39 1289,1348.56 1290.02,1348.73 1291.04,1348.89 1292.07,1349.06 1293.09,1349.23 1294.11,1349.4 1295.13,1349.56 1296.15,1349.73 1297.17,1349.9 1298.2,1350.06 1299.22,1350.23 1300.24,1350.39 1301.26,1350.56 1302.28,1350.73 1303.31,1350.89 1304.33,1351.06 1305.35,1351.22 1306.37,1351.38 1307.39,1351.55 1308.42,1351.71 1309.44,1351.88 1310.46,1352.04 1311.48,1352.2 1312.5,1352.37 1313.52,1352.53 1314.55,1352.69 1315.57,1352.85 1316.59,1353.02 1317.61,1353.18 1318.63,1353.34 1319.66,1353.5 1320.68,1353.66 1321.7,1353.83 1322.72,1353.99 1323.74,1354.15 1324.76,1354.31 1325.79,1354.47 1326.81,1354.63 1327.83,1354.79 1328.85,1354.95 1329.87,1355.11 1330.9,1355.27 1331.92,1355.43 1332.94,1355.58 1333.96,1355.74 1334.98,1355.9 1336.01,1356.06 1337.03,1356.22 1338.05,1356.37 1339.07,1356.53 1340.09,1356.69 1341.11,1356.85 1342.14,1357 1343.16,1357.16 1344.18,1357.32 1345.2,1357.47 1346.22,1357.63 1347.25,1357.79 1348.27,1357.94 1349.29,1358.1 1350.31,1358.25 1351.33,1358.41 1352.36,1358.56 1353.38,1358.72 1354.4,1358.87 1355.42,1359.02 1356.44,1359.18 1357.46,1359.33 1358.49,1359.49 1359.51,1359.64 1360.53,1359.79 1361.55,1359.95 1362.57,1360.1 1363.6,1360.25 1364.62,1360.4 1365.64,1360.56 1366.66,1360.71 1367.68,1360.86 1368.7,1361.01 1369.73,1361.16 1370.75,1361.31 1371.77,1361.47 1372.79,1361.62 1373.81,1361.77 1374.84,1361.92 1375.86,1362.07 1376.88,1362.22 1377.9,1362.37 1378.92,1362.52 1379.95,1362.67 1380.97,1362.82 1381.99,1362.96 1383.01,1363.11 1384.03,1363.26 1385.05,1363.41 1386.08,1363.56 1387.1,1363.71 1388.12,1363.86 1389.14,1364 1390.16,1364.15 1391.19,1364.3 1392.21,1364.45 1393.23,1364.59 1394.25,1364.74 1395.27,1364.89 1396.3,1365.03 1397.32,1365.18 1398.34,1365.32 1399.36,1365.47 1400.38,1365.62 1401.4,1365.76 1402.43,1365.91 1403.45,1366.05 1404.47,1366.2 1405.49,1366.34 1406.51,1366.49 1407.54,1366.63 1408.56,1366.77 1409.58,1366.92 1410.6,1367.06 1411.62,1367.21 1412.64,1367.35 1413.67,1367.49 1414.69,1367.63 1415.71,1367.78 1416.73,1367.92 1417.75,1368.06 1418.78,1368.21 1419.8,1368.35 1420.82,1368.49 1421.84,1368.63 1422.86,1368.77 1423.89,1368.91 1424.91,1369.06 1425.93,1369.2 1426.95,1369.34 1427.97,1369.48 1428.99,1369.62 1430.02,1369.76 1431.04,1369.9 1432.06,1370.04 1433.08,1370.18 1434.1,1370.32 1435.13,1370.46 1436.15,1370.6 1437.17,1370.74 1438.19,1370.87 1439.21,1371.01 1440.24,1371.15 1441.26,1371.29 1442.28,1371.43 1443.3,1371.57 1444.32,1371.7 1445.34,1371.84 1446.37,1371.98 1447.39,1372.12 1448.41,1372.25 1449.43,1372.39 1450.45,1372.53 1451.48,1372.67 1452.5,1372.8 1453.52,1372.94 1454.54,1373.07 1455.56,1373.21 1456.58,1373.35 1457.61,1373.48 1458.63,1373.62 1459.65,1373.75 1460.67,1373.89 1461.69,1374.02 1462.72,1374.16 1463.74,1374.29 1464.76,1374.43 1465.78,1374.56 1466.8,1374.69 1467.83,1374.83 1468.85,1374.96 1469.87,1375.1 1470.89,1375.23 1471.91,1375.36 1472.93,1375.5 1473.96,1375.63 1474.98,1375.76 1476,1375.89 1477.02,1376.03 1478.04,1376.16 1479.07,1376.29 1480.09,1376.42 1481.11,1376.55 1482.13,1376.69 1483.15,1376.82 1484.17,1376.95 1485.2,1377.08 1486.22,1377.21 1487.24,1377.34 1488.26,1377.47 1489.28,1377.6 1490.31,1377.73 1491.33,1377.86 1492.35,1377.99 1493.37,1378.12 1494.39,1378.25 1495.42,1378.38 1496.44,1378.51 1497.46,1378.64 1498.48,1378.77 1499.5,1378.9 1500.52,1379.03 1501.55,1379.16 1502.57,1379.29 1503.59,1379.41 1504.61,1379.54 1505.63,1379.67 1506.66,1379.8 1507.68,1379.93 1508.7,1380.05 1509.72,1380.18 1510.74,1380.31 1511.77,1380.43 1512.79,1380.56 1513.81,1380.69 1514.83,1380.81 1515.85,1380.94 1516.87,1381.07 1517.9,1381.19 1518.92,1381.32 1519.94,1381.45 1520.96,1381.57 1521.98,1381.7 1523.01,1381.82 1524.03,1381.95 1525.05,1382.07 1526.07,1382.2 1527.09,1382.32 1528.11,1382.45 1529.14,1382.57 1530.16,1382.69 1531.18,1382.82 1532.2,1382.94 1533.22,1383.07 1534.25,1383.19 1535.27,1383.31 1536.29,1383.44 1537.31,1383.56 1538.33,1383.68 1539.36,1383.81 1540.38,1383.93 1541.4,1384.05 1542.42,1384.17 1543.44,1384.3 1544.46,1384.42 1545.49,1384.54 1546.51,1384.66 1547.53,1384.78 1548.55,1384.91 1549.57,1385.03 1550.6,1385.15 1551.62,1385.27 1552.64,1385.39 1553.66,1385.51 1554.68,1385.63 1555.71,1385.75 1556.73,1385.87 1557.75,1385.99 1558.77,1386.11 1559.79,1386.23 1560.81,1386.35 1561.84,1386.47 1562.86,1386.59 1563.88,1386.71 1564.9,1386.83 1565.92,1386.95 1566.95,1387.07 1567.97,1387.19 1568.99,1387.31 1570.01,1387.43 1571.03,1387.55 1572.05,1387.66 1573.08,1387.78 1574.1,1387.9 1575.12,1388.02 1576.14,1388.14 1577.16,1388.25 1578.19,1388.37 1579.21,1388.49 1580.23,1388.61 1581.25,1388.72 1582.27,1388.84 1583.3,1388.96 1584.32,1389.07 1585.34,1389.19 1586.36,1389.31 1587.38,1389.42 1588.4,1389.54 1589.43,1389.65 1590.45,1389.77 1591.47,1389.89 1592.49,1390 1593.51,1390.12 1594.54,1390.23 1595.56,1390.35 1596.58,1390.46 1597.6,1390.58 1598.62,1390.69 1599.65,1390.81 1600.67,1390.92 1601.69,1391.04 1602.71,1391.15 1603.73,1391.26 1604.75,1391.38 1605.78,1391.49 1606.8,1391.61 1607.82,1391.72 1608.84,1391.83 1609.86,1391.95 1610.89,1392.06 1611.91,1392.17 1612.93,1392.28 1613.95,1392.4 1614.97,1392.51 1615.99,1392.62 1617.02,1392.74 1618.04,1392.85 1619.06,1392.96 1620.08,1393.07 1621.1,1393.18 1622.13,1393.29 1623.15,1393.41 1624.17,1393.52 1625.19,1393.63 1626.21,1393.74 1627.24,1393.85 1628.26,1393.96 1629.28,1394.07 1630.3,1394.18 1631.32,1394.29 1632.34,1394.41 1633.37,1394.52 1634.39,1394.63 1635.41,1394.74 1636.43,1394.85 1637.45,1394.96 1638.48,1395.06 1639.5,1395.17 1640.52,1395.28 1641.54,1395.39 1642.56,1395.5 1643.59,1395.61 1644.61,1395.72 1645.63,1395.83 1646.65,1395.94 1647.67,1396.05 1648.69,1396.15 1649.72,1396.26 1650.74,1396.37 1651.76,1396.48 1652.78,1396.59 1653.8,1396.69 1654.83,1396.8 1655.85,1396.91 1656.87,1397.02 1657.89,1397.12 1658.91,1397.23 1659.93,1397.34 1660.96,1397.45 1661.98,1397.55 1663,1397.66 1664.02,1397.77 1665.04,1397.87 1666.07,1397.98 1667.09,1398.09 1668.11,1398.19 1669.13,1398.3 1670.15,1398.4 1671.18,1398.51 1672.2,1398.61 1673.22,1398.72 1674.24,1398.83 1675.26,1398.93 1676.28,1399.04 1677.31,1399.14 1678.33,1399.25 1679.35,1399.35 1680.37,1399.45 1681.39,1399.56 1682.42,1399.66 1683.44,1399.77 1684.46,1399.87 1685.48,1399.98 1686.5,1400.08 1687.53,1400.18 1688.55,1400.29 1689.57,1400.39 1690.59,1400.49 1691.61,1400.6 1692.63,1400.7 1693.66,1400.8 1694.68,1400.91 1695.7,1401.01 1696.72,1401.11 1697.74,1401.22 1698.77,1401.32 1699.79,1401.42 1700.81,1401.52 1701.83,1401.63 1702.85,1401.73 1703.87,1401.83 1704.9,1401.93 1705.92,1402.03 1706.94,1402.13 1707.96,1402.24 1708.98,1402.34 1710.01,1402.44 1711.03,1402.54 1712.05,1402.64 1713.07,1402.74 1714.09,1402.84 1715.12,1402.94 1716.14,1403.04 1717.16,1403.14 1718.18,1403.24 1719.2,1403.35 1720.22,1403.45 1721.25,1403.55 1722.27,1403.65 1723.29,1403.75 1724.31,1403.84 1725.33,1403.94 1726.36,1404.04 1727.38,1404.14 1728.4,1404.24 1729.42,1404.34 1730.44,1404.44 1731.47,1404.54 1732.49,1404.64 1733.51,1404.74 1734.53,1404.84 1735.55,1404.93 1736.57,1405.03 1737.6,1405.13 1738.62,1405.23 1739.64,1405.33 1740.66,1405.43 1741.68,1405.52 1742.71,1405.62 1743.73,1405.72 1744.75,1405.82 1745.77,1405.91 1746.79,1406.01 1747.81,1406.11 1748.84,1406.2 1749.86,1406.3 1750.88,1406.4 1751.9,1406.5 1752.92,1406.59 1753.95,1406.69 1754.97,1406.79 1755.99,1406.88 1757.01,1406.98 1758.03,1407.07 1759.06,1407.17 1760.08,1407.27 1761.1,1407.36 1762.12,1407.46 1763.14,1407.55 1764.16,1407.65 1765.19,1407.74 1766.21,1407.84 1767.23,1407.93 1768.25,1408.03 1769.27,1408.12 1770.3,1408.22 1771.32,1408.31 1772.34,1408.41 1773.36,1408.5 1774.38,1408.6 1775.41,1408.69 1776.43,1408.79 1777.45,1408.88 1778.47,1408.97 1779.49,1409.07 1780.51,1409.16 1781.54,1409.26 1782.56,1409.35 1783.58,1409.44 1784.6,1409.54 1785.62,1409.63 1786.65,1409.72 1787.67,1409.82 1788.69,1409.91 1789.71,1410 1790.73,1410.09 1791.75,1410.19 1792.78,1410.28 1793.8,1410.37 1794.82,1410.47 1795.84,1410.56 1796.86,1410.65 1797.89,1410.74 1798.91,1410.83 1799.93,1410.93 1800.95,1411.02 1801.97,1411.11 1803,1411.2 1804.02,1411.29 1805.04,1411.38 1806.06,1411.48 1807.08,1411.57 1808.1,1411.66 1809.13,1411.75 1810.15,1411.84 1811.17,1411.93 1812.19,1412.02 1813.21,1412.11 1814.24,1412.2 1815.26,1412.29 1816.28,1412.38 1817.3,1412.47 1818.32,1412.56 1819.35,1412.65 1820.37,1412.74 1821.39,1412.83 1822.41,1412.92 1823.43,1413.01 1824.45,1413.1 1825.48,1413.19 1826.5,1413.28 1827.52,1413.37 1828.54,1413.46 1829.56,1413.55 1830.59,1413.64 1831.61,1413.73 1832.63,1413.82 1833.65,1413.9 1834.67,1413.99 1835.69,1414.08 1836.72,1414.17 1837.74,1414.26 1838.76,1414.35 1839.78,1414.43 1840.8,1414.52 1841.83,1414.61 1842.85,1414.7 1843.87,1414.79 1844.89,1414.87 1845.91,1414.96 1846.94,1415.05 1847.96,1415.14 1848.98,1415.22 1850,1415.31 1851.02,1415.4 1852.04,1415.48 1853.07,1415.57 1854.09,1415.66 1855.11,1415.74 1856.13,1415.83 1857.15,1415.92 1858.18,1416 1859.2,1416.09 1860.22,1416.18 1861.24,1416.26 1862.26,1416.35 1863.29,1416.44 1864.31,1416.52 1865.33,1416.61 1866.35,1416.69 1867.37,1416.78 1868.39,1416.86 1869.42,1416.95 1870.44,1417.03 1871.46,1417.12 1872.48,1417.21 1873.5,1417.29 1874.53,1417.38 1875.55,1417.46 1876.57,1417.54 1877.59,1417.63 1878.61,1417.71 1879.63,1417.8 1880.66,1417.88 1881.68,1417.97 1882.7,1418.05 1883.72,1418.14 1884.74,1418.22 1885.77,1418.3 1886.79,1418.39 1887.81,1418.47 1888.83,1418.56 1889.85,1418.64 1890.88,1418.72 1891.9,1418.81 1892.92,1418.89 1893.94,1418.97 1894.96,1419.06 1895.98,1419.14 1897.01,1419.22 1898.03,1419.31 1899.05,1419.39 1900.07,1419.47 1901.09,1419.55 1902.12,1419.64 1903.14,1419.72 1904.16,1419.8 1905.18,1419.88 1906.2,1419.97 1907.22,1420.05 1908.25,1420.13 1909.27,1420.21 1910.29,1420.29 1911.31,1420.38 1912.33,1420.46 1913.36,1420.54 1914.38,1420.62 1915.4,1420.7 1916.42,1420.78 1917.44,1420.87 1918.47,1420.95 1919.49,1421.03 1920.51,1421.11 1921.53,1421.19 1922.55,1421.27 1923.57,1421.35 1924.6,1421.43 1925.62,1421.51 1926.64,1421.59 1927.66,1421.67 1928.68,1421.75 1929.71,1421.83 1930.73,1421.91 1931.75,1421.99 1932.77,1422.07 1933.79,1422.15 1934.82,1422.23 1935.84,1422.31 1936.86,1422.39 1937.88,1422.47 1938.9,1422.55 1939.92,1422.63 1940.95,1422.71 1941.97,1422.79 1942.99,1422.87 1944.01,1422.95 1945.03,1423.03 1946.06,1423.11 1947.08,1423.19 1948.1,1423.27 1949.12,1423.34 1950.14,1423.42 1951.16,1423.5 1952.19,1423.58 1953.21,1423.66 1954.23,1423.74 1955.25,1423.82 1956.27,1423.89 1957.3,1423.97 1958.32,1424.05 1959.34,1424.13 1960.36,1424.21 1961.38,1424.28 1962.41,1424.36 1963.43,1424.44 1964.45,1424.52 1965.47,1424.59 1966.49,1424.67 1967.51,1424.75 1968.54,1424.83 1969.56,1424.9 1970.58,1424.98 1971.6,1425.06 1972.62,1425.13 1973.65,1425.21 1974.67,1425.29 1975.69,1425.36 1976.71,1425.44 1977.73,1425.52 1978.76,1425.59 1979.78,1425.67 1980.8,1425.75 1981.82,1425.82 1982.84,1425.9 1983.86,1425.97 1984.89,1426.05 1985.91,1426.13 1986.93,1426.2 1987.95,1426.28 1988.97,1426.35 1990,1426.43 1991.02,1426.5 1992.04,1426.58 1993.06,1426.65 1994.08,1426.73 1995.1,1426.8 1996.13,1426.88 1997.15,1426.95 1998.17,1427.03 1999.19,1427.1 2000.21,1427.18 2001.24,1427.25 2002.26,1427.33 2003.28,1427.4 2004.3,1427.48 2005.32,1427.55 2006.35,1427.63 2007.37,1427.7 2008.39,1427.78 2009.41,1427.85 2010.43,1427.92 2011.45,1428 2012.48,1428.07 2013.5,1428.14 2014.52,1428.22 2015.54,1428.29 2016.56,1428.37 2017.59,1428.44 2018.61,1428.51 2019.63,1428.59 2020.65,1428.66 2021.67,1428.73 2022.7,1428.81 2023.72,1428.88 2024.74,1428.95 2025.76,1429.02 2026.78,1429.1 2027.8,1429.17 2028.83,1429.24 2029.85,1429.32 2030.87,1429.39 2031.89,1429.46 2032.91,1429.53 2033.94,1429.61 2034.96,1429.68 2035.98,1429.75 2037,1429.82 2038.02,1429.89 2039.04,1429.97 2040.07,1430.04 2041.09,1430.11 2042.11,1430.18 2043.13,1430.25 2044.15,1430.32 2045.18,1430.4 2046.2,1430.47 2047.22,1430.54 2048.24,1430.61 2049.26,1430.68 2050.29,1430.75 2051.31,1430.82 2052.33,1430.89 2053.35,1430.97 2054.37,1431.04 2055.39,1431.11 2056.42,1431.18 2057.44,1431.25 2058.46,1431.32 2059.48,1431.39 2060.5,1431.46 2061.53,1431.53 2062.55,1431.6 2063.57,1431.67 2064.59,1431.74 2065.61,1431.81 2066.64,1431.88 2067.66,1431.95 2068.68,1432.02 2069.7,1432.09 2070.72,1432.16 2071.74,1432.23 2072.77,1432.3 2073.79,1432.37 2074.81,1432.44 2075.83,1432.51 2076.85,1432.58 2077.88,1432.65 2078.9,1432.72 2079.92,1432.78 2080.94,1432.85 2081.96,1432.92 2082.98,1432.99 2084.01,1433.06 2085.03,1433.13 2086.05,1433.2 2087.07,1433.27 2088.09,1433.34 2089.12,1433.4 2090.14,1433.47 2091.16,1433.54 2092.18,1433.61 2093.2,1433.68 2094.23,1433.75 2095.25,1433.81 2096.27,1433.88 2097.29,1433.95 2098.31,1434.02 2099.33,1434.08 2100.36,1434.15 2101.38,1434.22 2102.4,1434.29 2103.42,1434.36 2104.44,1434.42 2105.47,1434.49 2106.49,1434.56 2107.51,1434.62 2108.53,1434.69 2109.55,1434.76 2110.58,1434.83 2111.6,1434.89 2112.62,1434.96 2113.64,1435.03 2114.66,1435.09 2115.68,1435.16 2116.71,1435.23 2117.73,1435.29 2118.75,1435.36 2119.77,1435.43 2120.79,1435.49 2121.82,1435.56 2122.84,1435.63 2123.86,1435.69 2124.88,1435.76 2125.9,1435.82 2126.92,1435.89 2127.95,1435.96 2128.97,1436.02 2129.99,1436.09 2131.01,1436.15 2132.03,1436.22 2133.06,1436.29 2134.08,1436.35 2135.1,1436.42 2136.12,1436.48 2137.14,1436.55 2138.17,1436.61 2139.19,1436.68 2140.21,1436.74 2141.23,1436.81 2142.25,1436.87 2143.27,1436.94 2144.3,1437 2145.32,1437.07 2146.34,1437.13 2147.36,1437.2 2148.38,1437.26 2149.41,1437.33 2150.43,1437.39 2151.45,1437.46 2152.47,1437.52 2153.49,1437.58 2154.52,1437.65 2155.54,1437.71 2156.56,1437.78 2157.58,1437.84 2158.6,1437.9 2159.62,1437.97 2160.65,1438.03 2161.67,1438.1 2162.69,1438.16 2163.71,1438.22 2164.73,1438.29 2165.76,1438.35 2166.78,1438.41 2167.8,1438.48 2168.82,1438.54 2169.84,1438.6 2170.86,1438.67 2171.89,1438.73 2172.91,1438.79 2173.93,1438.86 2174.95,1438.92 2175.97,1438.98 2177,1439.05 2178.02,1439.11 2179.04,1439.17 2180.06,1439.23 2181.08,1439.3 2182.11,1439.36 2183.13,1439.42 2184.15,1439.48 2185.17,1439.55 2186.19,1439.61 2187.21,1439.67 2188.24,1439.73 2189.26,1439.8 2190.28,1439.86 2191.3,1439.92 2192.32,1439.98 2193.35,1440.04 2194.37,1440.11 2195.39,1440.17 2196.41,1440.23 2197.43,1440.29 2198.46,1440.35 2199.48,1440.41 2200.5,1440.48 2201.52,1440.54 2202.54,1440.6 2203.56,1440.66 2204.59,1440.72 2205.61,1440.78 2206.63,1440.84 2207.65,1440.9 2208.67,1440.97 2209.7,1441.03 2210.72,1441.09 2211.74,1441.15 2212.76,1441.21 2213.78,1441.27 2214.8,1441.33 2215.83,1441.39 2216.85,1441.45 2217.87,1441.51 2218.89,1441.57 2219.91,1441.63 2220.94,1441.69 2221.96,1441.75 2222.98,1441.81 2224,1441.87 2225.02,1441.93 2226.05,1441.99 2227.07,1442.05 2228.09,1442.11 2229.11,1442.17 2230.13,1442.23 2231.15,1442.29 2232.18,1442.35 2233.2,1442.41 2234.22,1442.47 2235.24,1442.53 2236.26,1442.59 2237.29,1442.65 2238.31,1442.71 2239.33,1442.77 2240.35,1442.83 2241.37,1442.89 2242.4,1442.95 2243.42,1443 2244.44,1443.06 2245.46,1443.12 2246.48,1443.18 2247.5,1443.24 2248.53,1443.3 2249.55,1443.36 2250.57,1443.42 2251.59,1443.48 2252.61,1443.53 2253.64,1443.59 2254.66,1443.65 2255.68,1443.71 2256.7,1443.77 2257.72,1443.83 2258.74,1443.88 2259.77,1443.94 2260.79,1444 2261.81,1444.06 2262.83,1444.12 2263.85,1444.17 2264.88,1444.23 2265.9,1444.29 2266.92,1444.35 2267.94,1444.4 2268.96,1444.46 2269.99,1444.52 2271.01,1444.58 2272.03,1444.63 2273.05,1444.69 2274.07,1444.75 2275.09,1444.81 2276.12,1444.86 2277.14,1444.92 2278.16,1444.98 2279.18,1445.04 2280.2,1445.09 2281.23,1445.15 2282.25,1445.21 2283.27,1445.26 2284.29,1445.32 2285.31,1445.38 2286.34,1445.43 2287.36,1445.49 2288.38,1445.55 2289.4,1445.6 2290.42,1445.66 2291.44,1445.72 "/>
<path clip-path="url(#clip120)" d="M2011.48 198.898 L2280.54 198.898 L2280.54 95.2176 L2011.48 95.2176  Z" fill="#ffffff" fill-rule="evenodd" fill-opacity="1"/>
<polyline clip-path="url(#clip120)" style="stroke:#000000; stroke-linecap:round; stroke-linejoin:round; stroke-width:4; stroke-opacity:1; fill:none" points="2011.48,198.898 2280.54,198.898 2280.54,95.2176 2011.48,95.2176 2011.48,198.898 "/>
<polyline clip-path="url(#clip120)" style="stroke:#009af9; stroke-linecap:round; stroke-linejoin:round; stroke-width:4; stroke-opacity:1; fill:none" points="2035.55,147.058 2179.97,147.058 "/>
<path clip-path="url(#clip120)" d="M2217.89 166.745 Q2216.08 171.375 2214.37 172.787 Q2212.65 174.199 2209.78 174.199 L2206.38 174.199 L2206.38 170.634 L2208.88 170.634 Q2210.64 170.634 2211.61 169.8 Q2212.59 168.967 2213.77 165.865 L2214.53 163.921 L2204.04 138.412 L2208.56 138.412 L2216.66 158.689 L2224.76 138.412 L2229.28 138.412 L2217.89 166.745 Z" fill="#000000" fill-rule="nonzero" fill-opacity="1" /><path clip-path="url(#clip120)" d="M2236.57 160.402 L2244.21 160.402 L2244.21 134.037 L2235.9 135.703 L2235.9 131.444 L2244.16 129.778 L2248.84 129.778 L2248.84 160.402 L2256.47 160.402 L2256.47 164.338 L2236.57 164.338 L2236.57 160.402 Z" fill="#000000" fill-rule="nonzero" fill-opacity="1" /></svg>
