<?xml version="1.0" encoding="utf-8"?>
<svg xmlns="http://www.w3.org/2000/svg" xmlns:xlink="http://www.w3.org/1999/xlink" width="600" height="400" viewBox="0 0 2400 1600">
<defs>
  <clipPath id="clip690">
    <rect x="0" y="0" width="2400" height="1600"/>
  </clipPath>
</defs>
<path clip-path="url(#clip690)" d="M0 1600 L2400 1600 L2400 0 L0 0  Z" fill="#ffffff" fill-rule="evenodd" fill-opacity="1"/>
<defs>
  <clipPath id="clip691">
    <rect x="480" y="0" width="1681" height="1600"/>
  </clipPath>
</defs>
<path clip-path="url(#clip690)" d="M156.274 1486.45 L2352.76 1486.45 L2352.76 47.2441 L156.274 47.2441  Z" fill="#ffffff" fill-rule="evenodd" fill-opacity="1"/>
<defs>
  <clipPath id="clip692">
    <rect x="156" y="47" width="2197" height="1440"/>
  </clipPath>
</defs>
<polyline clip-path="url(#clip692)" style="stroke:#000000; stroke-linecap:round; stroke-linejoin:round; stroke-width:2; stroke-opacity:0.1; fill:none" points="218.439,1486.45 218.439,47.2441 "/>
<polyline clip-path="url(#clip692)" style="stroke:#000000; stroke-linecap:round; stroke-linejoin:round; stroke-width:2; stroke-opacity:0.1; fill:none" points="737.775,1486.45 737.775,47.2441 "/>
<polyline clip-path="url(#clip692)" style="stroke:#000000; stroke-linecap:round; stroke-linejoin:round; stroke-width:2; stroke-opacity:0.1; fill:none" points="1257.11,1486.45 1257.11,47.2441 "/>
<polyline clip-path="url(#clip692)" style="stroke:#000000; stroke-linecap:round; stroke-linejoin:round; stroke-width:2; stroke-opacity:0.1; fill:none" points="1776.45,1486.45 1776.45,47.2441 "/>
<polyline clip-path="url(#clip692)" style="stroke:#000000; stroke-linecap:round; stroke-linejoin:round; stroke-width:2; stroke-opacity:0.1; fill:none" points="2295.78,1486.45 2295.78,47.2441 "/>
<polyline clip-path="url(#clip690)" style="stroke:#000000; stroke-linecap:round; stroke-linejoin:round; stroke-width:4; stroke-opacity:1; fill:none" points="156.274,1486.45 2352.76,1486.45 "/>
<polyline clip-path="url(#clip690)" style="stroke:#000000; stroke-linecap:round; stroke-linejoin:round; stroke-width:4; stroke-opacity:1; fill:none" points="218.439,1486.45 218.439,1467.55 "/>
<polyline clip-path="url(#clip690)" style="stroke:#000000; stroke-linecap:round; stroke-linejoin:round; stroke-width:4; stroke-opacity:1; fill:none" points="737.775,1486.45 737.775,1467.55 "/>
<polyline clip-path="url(#clip690)" style="stroke:#000000; stroke-linecap:round; stroke-linejoin:round; stroke-width:4; stroke-opacity:1; fill:none" points="1257.11,1486.45 1257.11,1467.55 "/>
<polyline clip-path="url(#clip690)" style="stroke:#000000; stroke-linecap:round; stroke-linejoin:round; stroke-width:4; stroke-opacity:1; fill:none" points="1776.45,1486.45 1776.45,1467.55 "/>
<polyline clip-path="url(#clip690)" style="stroke:#000000; stroke-linecap:round; stroke-linejoin:round; stroke-width:4; stroke-opacity:1; fill:none" points="2295.78,1486.45 2295.78,1467.55 "/>
<path clip-path="url(#clip690)" d="M218.439 1517.37 Q214.828 1517.37 212.999 1520.93 Q211.193 1524.47 211.193 1531.6 Q211.193 1538.71 212.999 1542.27 Q214.828 1545.82 218.439 1545.82 Q222.073 1545.82 223.879 1542.27 Q225.707 1538.71 225.707 1531.6 Q225.707 1524.47 223.879 1520.93 Q222.073 1517.37 218.439 1517.37 M218.439 1513.66 Q224.249 1513.66 227.304 1518.27 Q230.383 1522.85 230.383 1531.6 Q230.383 1540.33 227.304 1544.94 Q224.249 1549.52 218.439 1549.52 Q212.629 1549.52 209.55 1544.94 Q206.494 1540.33 206.494 1531.6 Q206.494 1522.85 209.55 1518.27 Q212.629 1513.66 218.439 1513.66 Z" fill="#000000" fill-rule="nonzero" fill-opacity="1" /><path clip-path="url(#clip690)" d="M697.382 1544.91 L705.021 1544.91 L705.021 1518.55 L696.711 1520.21 L696.711 1515.95 L704.974 1514.29 L709.65 1514.29 L709.65 1544.91 L717.289 1544.91 L717.289 1548.85 L697.382 1548.85 L697.382 1544.91 Z" fill="#000000" fill-rule="nonzero" fill-opacity="1" /><path clip-path="url(#clip690)" d="M736.734 1517.37 Q733.122 1517.37 731.294 1520.93 Q729.488 1524.47 729.488 1531.6 Q729.488 1538.71 731.294 1542.27 Q733.122 1545.82 736.734 1545.82 Q740.368 1545.82 742.173 1542.27 Q744.002 1538.71 744.002 1531.6 Q744.002 1524.47 742.173 1520.93 Q740.368 1517.37 736.734 1517.37 M736.734 1513.66 Q742.544 1513.66 745.599 1518.27 Q748.678 1522.85 748.678 1531.6 Q748.678 1540.33 745.599 1544.94 Q742.544 1549.52 736.734 1549.52 Q730.923 1549.52 727.845 1544.94 Q724.789 1540.33 724.789 1531.6 Q724.789 1522.85 727.845 1518.27 Q730.923 1513.66 736.734 1513.66 Z" fill="#000000" fill-rule="nonzero" fill-opacity="1" /><path clip-path="url(#clip690)" d="M766.895 1517.37 Q763.284 1517.37 761.456 1520.93 Q759.65 1524.47 759.65 1531.6 Q759.65 1538.71 761.456 1542.27 Q763.284 1545.82 766.895 1545.82 Q770.53 1545.82 772.335 1542.27 Q774.164 1538.71 774.164 1531.6 Q774.164 1524.47 772.335 1520.93 Q770.53 1517.37 766.895 1517.37 M766.895 1513.66 Q772.706 1513.66 775.761 1518.27 Q778.84 1522.85 778.84 1531.6 Q778.84 1540.33 775.761 1544.94 Q772.706 1549.52 766.895 1549.52 Q761.085 1549.52 758.007 1544.94 Q754.951 1540.33 754.951 1531.6 Q754.951 1522.85 758.007 1518.27 Q761.085 1513.66 766.895 1513.66 Z" fill="#000000" fill-rule="nonzero" fill-opacity="1" /><path clip-path="url(#clip690)" d="M1220.8 1544.91 L1237.12 1544.91 L1237.12 1548.85 L1215.18 1548.85 L1215.18 1544.91 Q1217.84 1542.16 1222.42 1537.53 Q1227.03 1532.88 1228.21 1531.53 Q1230.46 1529.01 1231.34 1527.27 Q1232.24 1525.51 1232.24 1523.82 Q1232.24 1521.07 1230.29 1519.33 Q1228.37 1517.6 1225.27 1517.6 Q1223.07 1517.6 1220.62 1518.36 Q1218.19 1519.13 1215.41 1520.68 L1215.41 1515.95 Q1218.23 1514.82 1220.69 1514.24 Q1223.14 1513.66 1225.18 1513.66 Q1230.55 1513.66 1233.74 1516.35 Q1236.94 1519.03 1236.94 1523.52 Q1236.94 1525.65 1236.13 1527.57 Q1235.34 1529.47 1233.23 1532.07 Q1232.66 1532.74 1229.55 1535.95 Q1226.45 1539.15 1220.8 1544.91 Z" fill="#000000" fill-rule="nonzero" fill-opacity="1" /><path clip-path="url(#clip690)" d="M1256.94 1517.37 Q1253.33 1517.37 1251.5 1520.93 Q1249.69 1524.47 1249.69 1531.6 Q1249.69 1538.71 1251.5 1542.27 Q1253.33 1545.82 1256.94 1545.82 Q1260.57 1545.82 1262.38 1542.27 Q1264.21 1538.71 1264.21 1531.6 Q1264.21 1524.47 1262.38 1520.93 Q1260.57 1517.37 1256.94 1517.37 M1256.94 1513.66 Q1262.75 1513.66 1265.8 1518.27 Q1268.88 1522.85 1268.88 1531.6 Q1268.88 1540.33 1265.8 1544.94 Q1262.75 1549.52 1256.94 1549.52 Q1251.13 1549.52 1248.05 1544.94 Q1244.99 1540.33 1244.99 1531.6 Q1244.99 1522.85 1248.05 1518.27 Q1251.13 1513.66 1256.94 1513.66 Z" fill="#000000" fill-rule="nonzero" fill-opacity="1" /><path clip-path="url(#clip690)" d="M1287.1 1517.37 Q1283.49 1517.37 1281.66 1520.93 Q1279.85 1524.47 1279.85 1531.6 Q1279.85 1538.71 1281.66 1542.27 Q1283.49 1545.82 1287.1 1545.82 Q1290.73 1545.82 1292.54 1542.27 Q1294.37 1538.71 1294.37 1531.6 Q1294.37 1524.47 1292.54 1520.93 Q1290.73 1517.37 1287.1 1517.37 M1287.1 1513.66 Q1292.91 1513.66 1295.97 1518.27 Q1299.04 1522.85 1299.04 1531.6 Q1299.04 1540.33 1295.97 1544.94 Q1292.91 1549.52 1287.1 1549.52 Q1281.29 1549.52 1278.21 1544.94 Q1275.16 1540.33 1275.16 1531.6 Q1275.16 1522.85 1278.21 1518.27 Q1281.29 1513.66 1287.1 1513.66 Z" fill="#000000" fill-rule="nonzero" fill-opacity="1" /><path clip-path="url(#clip690)" d="M1750.21 1530.21 Q1753.57 1530.93 1755.44 1533.2 Q1757.34 1535.47 1757.34 1538.8 Q1757.34 1543.92 1753.82 1546.72 Q1750.3 1549.52 1743.82 1549.52 Q1741.65 1549.52 1739.33 1549.08 Q1737.04 1548.66 1734.59 1547.81 L1734.59 1543.29 Q1736.53 1544.43 1738.84 1545.01 Q1741.16 1545.58 1743.68 1545.58 Q1748.08 1545.58 1750.37 1543.85 Q1752.69 1542.11 1752.69 1538.8 Q1752.69 1535.75 1750.53 1534.03 Q1748.4 1532.3 1744.58 1532.3 L1740.56 1532.3 L1740.56 1528.45 L1744.77 1528.45 Q1748.22 1528.45 1750.05 1527.09 Q1751.88 1525.7 1751.88 1523.11 Q1751.88 1520.45 1749.98 1519.03 Q1748.1 1517.6 1744.58 1517.6 Q1742.66 1517.6 1740.46 1518.01 Q1738.27 1518.43 1735.63 1519.31 L1735.63 1515.14 Q1738.29 1514.4 1740.6 1514.03 Q1742.94 1513.66 1745 1513.66 Q1750.33 1513.66 1753.43 1516.09 Q1756.53 1518.5 1756.53 1522.62 Q1756.53 1525.49 1754.89 1527.48 Q1753.24 1529.45 1750.21 1530.21 Z" fill="#000000" fill-rule="nonzero" fill-opacity="1" /><path clip-path="url(#clip690)" d="M1776.21 1517.37 Q1772.59 1517.37 1770.77 1520.93 Q1768.96 1524.47 1768.96 1531.6 Q1768.96 1538.71 1770.77 1542.27 Q1772.59 1545.82 1776.21 1545.82 Q1779.84 1545.82 1781.64 1542.27 Q1783.47 1538.71 1783.47 1531.6 Q1783.47 1524.47 1781.64 1520.93 Q1779.84 1517.37 1776.21 1517.37 M1776.21 1513.66 Q1782.02 1513.66 1785.07 1518.27 Q1788.15 1522.85 1788.15 1531.6 Q1788.15 1540.33 1785.07 1544.94 Q1782.02 1549.52 1776.21 1549.52 Q1770.39 1549.52 1767.32 1544.94 Q1764.26 1540.33 1764.26 1531.6 Q1764.26 1522.85 1767.32 1518.27 Q1770.39 1513.66 1776.21 1513.66 Z" fill="#000000" fill-rule="nonzero" fill-opacity="1" /><path clip-path="url(#clip690)" d="M1806.37 1517.37 Q1802.76 1517.37 1800.93 1520.93 Q1799.12 1524.47 1799.12 1531.6 Q1799.12 1538.71 1800.93 1542.27 Q1802.76 1545.82 1806.37 1545.82 Q1810 1545.82 1811.81 1542.27 Q1813.64 1538.71 1813.64 1531.6 Q1813.64 1524.47 1811.81 1520.93 Q1810 1517.37 1806.37 1517.37 M1806.37 1513.66 Q1812.18 1513.66 1815.23 1518.27 Q1818.31 1522.85 1818.31 1531.6 Q1818.31 1540.33 1815.23 1544.94 Q1812.18 1549.52 1806.37 1549.52 Q1800.56 1549.52 1797.48 1544.94 Q1794.42 1540.33 1794.42 1531.6 Q1794.42 1522.85 1797.48 1518.27 Q1800.56 1513.66 1806.37 1513.66 Z" fill="#000000" fill-rule="nonzero" fill-opacity="1" /><path clip-path="url(#clip690)" d="M2268.88 1518.36 L2257.07 1536.81 L2268.88 1536.81 L2268.88 1518.36 M2267.65 1514.29 L2273.53 1514.29 L2273.53 1536.81 L2278.46 1536.81 L2278.46 1540.7 L2273.53 1540.7 L2273.53 1548.85 L2268.88 1548.85 L2268.88 1540.7 L2253.27 1540.7 L2253.27 1536.19 L2267.65 1514.29 Z" fill="#000000" fill-rule="nonzero" fill-opacity="1" /><path clip-path="url(#clip690)" d="M2296.19 1517.37 Q2292.58 1517.37 2290.75 1520.93 Q2288.94 1524.47 2288.94 1531.6 Q2288.94 1538.71 2290.75 1542.27 Q2292.58 1545.82 2296.19 1545.82 Q2299.82 1545.82 2301.63 1542.27 Q2303.46 1538.71 2303.46 1531.6 Q2303.46 1524.47 2301.63 1520.93 Q2299.82 1517.37 2296.19 1517.37 M2296.19 1513.66 Q2302 1513.66 2305.06 1518.27 Q2308.13 1522.85 2308.13 1531.6 Q2308.13 1540.33 2305.06 1544.94 Q2302 1549.52 2296.19 1549.52 Q2290.38 1549.52 2287.3 1544.94 Q2284.25 1540.33 2284.25 1531.6 Q2284.25 1522.85 2287.3 1518.27 Q2290.38 1513.66 2296.19 1513.66 Z" fill="#000000" fill-rule="nonzero" fill-opacity="1" /><path clip-path="url(#clip690)" d="M2326.35 1517.37 Q2322.74 1517.37 2320.91 1520.93 Q2319.11 1524.47 2319.11 1531.6 Q2319.11 1538.71 2320.91 1542.27 Q2322.74 1545.82 2326.35 1545.82 Q2329.99 1545.82 2331.79 1542.27 Q2333.62 1538.71 2333.62 1531.6 Q2333.62 1524.47 2331.79 1520.93 Q2329.99 1517.37 2326.35 1517.37 M2326.35 1513.66 Q2332.16 1513.66 2335.22 1518.27 Q2338.3 1522.85 2338.3 1531.6 Q2338.3 1540.33 2335.22 1544.94 Q2332.16 1549.52 2326.35 1549.52 Q2320.54 1549.52 2317.46 1544.94 Q2314.41 1540.33 2314.41 1531.6 Q2314.41 1522.85 2317.46 1518.27 Q2320.54 1513.66 2326.35 1513.66 Z" fill="#000000" fill-rule="nonzero" fill-opacity="1" /><polyline clip-path="url(#clip692)" style="stroke:#000000; stroke-linecap:round; stroke-linejoin:round; stroke-width:2; stroke-opacity:0.1; fill:none" points="156.274,1445.72 2352.76,1445.72 "/>
<polyline clip-path="url(#clip692)" style="stroke:#000000; stroke-linecap:round; stroke-linejoin:round; stroke-width:2; stroke-opacity:0.1; fill:none" points="156.274,1174.17 2352.76,1174.17 "/>
<polyline clip-path="url(#clip692)" style="stroke:#000000; stroke-linecap:round; stroke-linejoin:round; stroke-width:2; stroke-opacity:0.1; fill:none" points="156.274,902.62 2352.76,902.62 "/>
<polyline clip-path="url(#clip692)" style="stroke:#000000; stroke-linecap:round; stroke-linejoin:round; stroke-width:2; stroke-opacity:0.1; fill:none" points="156.274,631.072 2352.76,631.072 "/>
<polyline clip-path="url(#clip692)" style="stroke:#000000; stroke-linecap:round; stroke-linejoin:round; stroke-width:2; stroke-opacity:0.1; fill:none" points="156.274,359.524 2352.76,359.524 "/>
<polyline clip-path="url(#clip692)" style="stroke:#000000; stroke-linecap:round; stroke-linejoin:round; stroke-width:2; stroke-opacity:0.1; fill:none" points="156.274,87.9763 2352.76,87.9763 "/>
<polyline clip-path="url(#clip690)" style="stroke:#000000; stroke-linecap:round; stroke-linejoin:round; stroke-width:4; stroke-opacity:1; fill:none" points="156.274,1486.45 156.274,47.2441 "/>
<polyline clip-path="url(#clip690)" style="stroke:#000000; stroke-linecap:round; stroke-linejoin:round; stroke-width:4; stroke-opacity:1; fill:none" points="156.274,1445.72 175.172,1445.72 "/>
<polyline clip-path="url(#clip690)" style="stroke:#000000; stroke-linecap:round; stroke-linejoin:round; stroke-width:4; stroke-opacity:1; fill:none" points="156.274,1174.17 175.172,1174.17 "/>
<polyline clip-path="url(#clip690)" style="stroke:#000000; stroke-linecap:round; stroke-linejoin:round; stroke-width:4; stroke-opacity:1; fill:none" points="156.274,902.62 175.172,902.62 "/>
<polyline clip-path="url(#clip690)" style="stroke:#000000; stroke-linecap:round; stroke-linejoin:round; stroke-width:4; stroke-opacity:1; fill:none" points="156.274,631.072 175.172,631.072 "/>
<polyline clip-path="url(#clip690)" style="stroke:#000000; stroke-linecap:round; stroke-linejoin:round; stroke-width:4; stroke-opacity:1; fill:none" points="156.274,359.524 175.172,359.524 "/>
<polyline clip-path="url(#clip690)" style="stroke:#000000; stroke-linecap:round; stroke-linejoin:round; stroke-width:4; stroke-opacity:1; fill:none" points="156.274,87.9763 175.172,87.9763 "/>
<path clip-path="url(#clip690)" d="M64.0939 1431.51 Q60.4828 1431.51 58.6541 1435.08 Q56.8486 1438.62 56.8486 1445.75 Q56.8486 1452.86 58.6541 1456.42 Q60.4828 1459.96 64.0939 1459.96 Q67.7281 1459.96 69.5337 1456.42 Q71.3624 1452.86 71.3624 1445.75 Q71.3624 1438.62 69.5337 1435.08 Q67.7281 1431.51 64.0939 1431.51 M64.0939 1427.81 Q69.9041 1427.81 72.9596 1432.42 Q76.0383 1437 76.0383 1445.75 Q76.0383 1454.48 72.9596 1459.08 Q69.9041 1463.67 64.0939 1463.67 Q58.2838 1463.67 55.2051 1459.08 Q52.1495 1454.48 52.1495 1445.75 Q52.1495 1437 55.2051 1432.42 Q58.2838 1427.81 64.0939 1427.81 Z" fill="#000000" fill-rule="nonzero" fill-opacity="1" /><path clip-path="url(#clip690)" d="M84.2558 1457.12 L89.1401 1457.12 L89.1401 1463 L84.2558 1463 L84.2558 1457.12 Z" fill="#000000" fill-rule="nonzero" fill-opacity="1" /><path clip-path="url(#clip690)" d="M99.3715 1428.44 L117.728 1428.44 L117.728 1432.37 L103.654 1432.37 L103.654 1440.84 Q104.672 1440.5 105.691 1440.33 Q106.709 1440.15 107.728 1440.15 Q113.515 1440.15 116.895 1443.32 Q120.274 1446.49 120.274 1451.91 Q120.274 1457.49 116.802 1460.59 Q113.33 1463.67 107.01 1463.67 Q104.834 1463.67 102.566 1463.3 Q100.321 1462.93 97.9132 1462.19 L97.9132 1457.49 Q99.9965 1458.62 102.219 1459.18 Q104.441 1459.73 106.918 1459.73 Q110.922 1459.73 113.26 1457.63 Q115.598 1455.52 115.598 1451.91 Q115.598 1448.3 113.26 1446.19 Q110.922 1444.08 106.918 1444.08 Q105.043 1444.08 103.168 1444.5 Q101.316 1444.92 99.3715 1445.8 L99.3715 1428.44 Z" fill="#000000" fill-rule="nonzero" fill-opacity="1" /><path clip-path="url(#clip690)" d="M62.9365 1159.97 Q59.3254 1159.97 57.4967 1163.53 Q55.6912 1167.07 55.6912 1174.2 Q55.6912 1181.31 57.4967 1184.87 Q59.3254 1188.42 62.9365 1188.42 Q66.5707 1188.42 68.3763 1184.87 Q70.205 1181.31 70.205 1174.2 Q70.205 1167.07 68.3763 1163.53 Q66.5707 1159.97 62.9365 1159.97 M62.9365 1156.26 Q68.7467 1156.26 71.8022 1160.87 Q74.8809 1165.45 74.8809 1174.2 Q74.8809 1182.93 71.8022 1187.54 Q68.7467 1192.12 62.9365 1192.12 Q57.1264 1192.12 54.0477 1187.54 Q50.9921 1182.93 50.9921 1174.2 Q50.9921 1165.45 54.0477 1160.87 Q57.1264 1156.26 62.9365 1156.26 Z" fill="#000000" fill-rule="nonzero" fill-opacity="1" /><path clip-path="url(#clip690)" d="M83.0984 1185.57 L87.9827 1185.57 L87.9827 1191.45 L83.0984 1191.45 L83.0984 1185.57 Z" fill="#000000" fill-rule="nonzero" fill-opacity="1" /><path clip-path="url(#clip690)" d="M108.746 1172.3 Q105.598 1172.3 103.746 1174.46 Q101.918 1176.61 101.918 1180.36 Q101.918 1184.09 103.746 1186.26 Q105.598 1188.42 108.746 1188.42 Q111.895 1188.42 113.723 1186.26 Q115.575 1184.09 115.575 1180.36 Q115.575 1176.61 113.723 1174.46 Q111.895 1172.3 108.746 1172.3 M118.029 1157.65 L118.029 1161.91 Q116.27 1161.08 114.464 1160.64 Q112.682 1160.2 110.922 1160.2 Q106.293 1160.2 103.839 1163.32 Q101.409 1166.45 101.061 1172.77 Q102.427 1170.75 104.487 1169.69 Q106.547 1168.6 109.024 1168.6 Q114.233 1168.6 117.242 1171.77 Q120.274 1174.92 120.274 1180.36 Q120.274 1185.68 117.126 1188.9 Q113.978 1192.12 108.746 1192.12 Q102.751 1192.12 99.5798 1187.54 Q96.4085 1182.93 96.4085 1174.2 Q96.4085 1166.01 100.297 1161.15 Q104.186 1156.26 110.737 1156.26 Q112.496 1156.26 114.279 1156.61 Q116.084 1156.96 118.029 1157.65 Z" fill="#000000" fill-rule="nonzero" fill-opacity="1" /><path clip-path="url(#clip690)" d="M64.0013 888.419 Q60.3902 888.419 58.5615 891.983 Q56.756 895.525 56.756 902.655 Q56.756 909.761 58.5615 913.326 Q60.3902 916.868 64.0013 916.868 Q67.6356 916.868 69.4411 913.326 Q71.2698 909.761 71.2698 902.655 Q71.2698 895.525 69.4411 891.983 Q67.6356 888.419 64.0013 888.419 M64.0013 884.715 Q69.8115 884.715 72.867 889.321 Q75.9457 893.905 75.9457 902.655 Q75.9457 911.381 72.867 915.988 Q69.8115 920.571 64.0013 920.571 Q58.1912 920.571 55.1125 915.988 Q52.0569 911.381 52.0569 902.655 Q52.0569 893.905 55.1125 889.321 Q58.1912 884.715 64.0013 884.715 Z" fill="#000000" fill-rule="nonzero" fill-opacity="1" /><path clip-path="url(#clip690)" d="M84.1632 914.02 L89.0475 914.02 L89.0475 919.9 L84.1632 919.9 L84.1632 914.02 Z" fill="#000000" fill-rule="nonzero" fill-opacity="1" /><path clip-path="url(#clip690)" d="M98.0521 885.34 L120.274 885.34 L120.274 887.331 L107.728 919.9 L102.844 919.9 L114.649 889.275 L98.0521 889.275 L98.0521 885.34 Z" fill="#000000" fill-rule="nonzero" fill-opacity="1" /><path clip-path="url(#clip690)" d="M63.1911 616.871 Q59.58 616.871 57.7513 620.436 Q55.9458 623.977 55.9458 631.107 Q55.9458 638.213 57.7513 641.778 Q59.58 645.32 63.1911 645.32 Q66.8254 645.32 68.6309 641.778 Q70.4596 638.213 70.4596 631.107 Q70.4596 623.977 68.6309 620.436 Q66.8254 616.871 63.1911 616.871 M63.1911 613.167 Q69.0013 613.167 72.0568 617.774 Q75.1355 622.357 75.1355 631.107 Q75.1355 639.834 72.0568 644.44 Q69.0013 649.023 63.1911 649.023 Q57.381 649.023 54.3023 644.44 Q51.2468 639.834 51.2468 631.107 Q51.2468 622.357 54.3023 617.774 Q57.381 613.167 63.1911 613.167 Z" fill="#000000" fill-rule="nonzero" fill-opacity="1" /><path clip-path="url(#clip690)" d="M83.3531 642.472 L88.2373 642.472 L88.2373 648.352 L83.3531 648.352 L83.3531 642.472 Z" fill="#000000" fill-rule="nonzero" fill-opacity="1" /><path clip-path="url(#clip690)" d="M108.422 631.94 Q105.089 631.94 103.168 633.722 Q101.27 635.505 101.27 638.63 Q101.27 641.755 103.168 643.537 Q105.089 645.32 108.422 645.32 Q111.756 645.32 113.677 643.537 Q115.598 641.732 115.598 638.63 Q115.598 635.505 113.677 633.722 Q111.779 631.94 108.422 631.94 M103.746 629.949 Q100.737 629.209 99.0474 627.148 Q97.3808 625.088 97.3808 622.125 Q97.3808 617.982 100.321 615.574 Q103.284 613.167 108.422 613.167 Q113.584 613.167 116.524 615.574 Q119.464 617.982 119.464 622.125 Q119.464 625.088 117.774 627.148 Q116.108 629.209 113.121 629.949 Q116.501 630.736 118.376 633.028 Q120.274 635.32 120.274 638.63 Q120.274 643.653 117.195 646.338 Q114.14 649.023 108.422 649.023 Q102.705 649.023 99.6261 646.338 Q96.5706 643.653 96.5706 638.63 Q96.5706 635.32 98.4687 633.028 Q100.367 630.736 103.746 629.949 M102.034 622.565 Q102.034 625.25 103.7 626.755 Q105.39 628.26 108.422 628.26 Q111.432 628.26 113.121 626.755 Q114.834 625.25 114.834 622.565 Q114.834 619.88 113.121 618.375 Q111.432 616.871 108.422 616.871 Q105.39 616.871 103.7 618.375 Q102.034 619.88 102.034 622.565 Z" fill="#000000" fill-rule="nonzero" fill-opacity="1" /><path clip-path="url(#clip690)" d="M63.2837 345.323 Q59.6726 345.323 57.8439 348.888 Q56.0384 352.429 56.0384 359.559 Q56.0384 366.665 57.8439 370.23 Q59.6726 373.772 63.2837 373.772 Q66.918 373.772 68.7235 370.23 Q70.5522 366.665 70.5522 359.559 Q70.5522 352.429 68.7235 348.888 Q66.918 345.323 63.2837 345.323 M63.2837 341.619 Q69.0939 341.619 72.1494 346.226 Q75.2281 350.809 75.2281 359.559 Q75.2281 368.286 72.1494 372.892 Q69.0939 377.475 63.2837 377.475 Q57.4736 377.475 54.3949 372.892 Q51.3393 368.286 51.3393 359.559 Q51.3393 350.809 54.3949 346.226 Q57.4736 341.619 63.2837 341.619 Z" fill="#000000" fill-rule="nonzero" fill-opacity="1" /><path clip-path="url(#clip690)" d="M83.4457 370.925 L88.3299 370.925 L88.3299 376.804 L83.4457 376.804 L83.4457 370.925 Z" fill="#000000" fill-rule="nonzero" fill-opacity="1" /><path clip-path="url(#clip690)" d="M98.6539 376.087 L98.6539 371.827 Q100.413 372.661 102.219 373.1 Q104.024 373.54 105.76 373.54 Q110.39 373.54 112.82 370.438 Q115.274 367.313 115.621 360.971 Q114.279 362.962 112.219 364.026 Q110.158 365.091 107.658 365.091 Q102.473 365.091 99.4409 361.966 Q96.4317 358.818 96.4317 353.378 Q96.4317 348.054 99.5798 344.837 Q102.728 341.619 107.959 341.619 Q113.955 341.619 117.103 346.226 Q120.274 350.809 120.274 359.559 Q120.274 367.73 116.385 372.614 Q112.52 377.475 105.969 377.475 Q104.209 377.475 102.404 377.128 Q100.598 376.781 98.6539 376.087 M107.959 361.434 Q111.108 361.434 112.936 359.281 Q114.788 357.128 114.788 353.378 Q114.788 349.652 112.936 347.499 Q111.108 345.323 107.959 345.323 Q104.811 345.323 102.959 347.499 Q101.131 349.652 101.131 353.378 Q101.131 357.128 102.959 359.281 Q104.811 361.434 107.959 361.434 Z" fill="#000000" fill-rule="nonzero" fill-opacity="1" /><path clip-path="url(#clip690)" d="M53.9088 101.321 L61.5476 101.321 L61.5476 74.9555 L53.2375 76.6222 L53.2375 72.3629 L61.5013 70.6963 L66.1772 70.6963 L66.1772 101.321 L73.8161 101.321 L73.8161 105.256 L53.9088 105.256 L53.9088 101.321 Z" fill="#000000" fill-rule="nonzero" fill-opacity="1" /><path clip-path="url(#clip690)" d="M83.2605 99.3767 L88.1447 99.3767 L88.1447 105.256 L83.2605 105.256 L83.2605 99.3767 Z" fill="#000000" fill-rule="nonzero" fill-opacity="1" /><path clip-path="url(#clip690)" d="M108.33 73.775 Q104.719 73.775 102.89 77.3398 Q101.084 80.8814 101.084 88.011 Q101.084 95.1174 102.89 98.6822 Q104.719 102.224 108.33 102.224 Q111.964 102.224 113.77 98.6822 Q115.598 95.1174 115.598 88.011 Q115.598 80.8814 113.77 77.3398 Q111.964 73.775 108.33 73.775 M108.33 70.0713 Q114.14 70.0713 117.195 74.6777 Q120.274 79.261 120.274 88.011 Q120.274 96.7378 117.195 101.344 Q114.14 105.928 108.33 105.928 Q102.52 105.928 99.4409 101.344 Q96.3854 96.7378 96.3854 88.011 Q96.3854 79.261 99.4409 74.6777 Q102.52 70.0713 108.33 70.0713 Z" fill="#000000" fill-rule="nonzero" fill-opacity="1" /><polyline clip-path="url(#clip692)" style="stroke:#009af9; stroke-linecap:round; stroke-linejoin:round; stroke-width:4; stroke-opacity:1; fill:none" points="218.439,1445.72 223.632,1445.72 228.825,902.62 234.019,1228.48 239.212,1011.24 244.406,902.62 249.599,956.93 254.792,848.31 259.986,739.691 265.179,1011.24 270.372,576.762 275.566,522.453 280.759,468.143 285.952,359.524 291.146,413.834 296.339,305.215 301.533,413.834 306.726,305.215 311.919,305.215 317.113,250.905 322.306,142.286 327.499,359.524 332.693,196.595 337.886,305.215 343.079,196.595 348.273,142.286 353.466,250.905 358.66,250.905 363.853,196.595 369.046,142.286 374.24,196.595 379.433,250.905 384.626,196.595 389.82,250.905 395.013,196.595 400.207,196.595 405.4,196.595 410.593,142.286 415.787,196.595 420.98,142.286 426.173,196.595 431.367,87.9763 436.56,87.9763 441.753,142.286 446.947,142.286 452.14,142.286 457.334,196.595 462.527,87.9763 467.72,305.215 472.914,196.595 478.107,87.9763 483.3,142.286 488.494,142.286 493.687,142.286 498.88,196.595 504.074,87.9763 509.267,87.9763 514.461,142.286 519.654,142.286 524.847,87.9763 530.041,87.9763 535.234,142.286 540.427,142.286 545.621,142.286 550.814,87.9763 556.007,142.286 561.201,87.9763 566.394,87.9763 571.588,87.9763 576.781,87.9763 581.974,196.595 587.168,87.9763 592.361,142.286 597.554,87.9763 602.748,87.9763 607.941,87.9763 613.134,87.9763 618.328,87.9763 623.521,87.9763 628.715,87.9763 633.908,142.286 639.101,142.286 644.295,87.9763 649.488,87.9763 654.681,87.9763 659.875,87.9763 665.068,87.9763 670.261,87.9763 675.455,87.9763 680.648,142.286 685.842,87.9763 691.035,87.9763 696.228,142.286 701.422,87.9763 706.615,87.9763 711.808,87.9763 717.002,87.9763 722.195,87.9763 727.388,87.9763 732.582,142.286 737.775,87.9763 742.969,142.286 748.162,142.286 753.355,142.286 758.549,87.9763 763.742,87.9763 768.935,87.9763 774.129,142.286 779.322,87.9763 784.516,142.286 789.709,87.9763 794.902,87.9763 800.096,87.9763 805.289,87.9763 810.482,87.9763 815.676,142.286 820.869,87.9763 826.062,142.286 831.256,87.9763 836.449,142.286 841.643,87.9763 846.836,87.9763 852.029,87.9763 857.223,87.9763 862.416,87.9763 867.609,87.9763 872.803,87.9763 877.996,87.9763 883.189,87.9763 888.383,87.9763 893.576,87.9763 898.77,87.9763 903.963,87.9763 909.156,87.9763 914.35,87.9763 919.543,142.286 924.736,87.9763 929.93,87.9763 935.123,142.286 940.316,87.9763 945.51,142.286 950.703,87.9763 955.897,142.286 961.09,87.9763 966.283,87.9763 971.477,87.9763 976.67,196.595 981.863,87.9763 987.057,87.9763 992.25,87.9763 997.443,87.9763 1002.64,142.286 1007.83,87.9763 1013.02,87.9763 1018.22,87.9763 1023.41,87.9763 1028.6,87.9763 1033.8,87.9763 1038.99,196.595 1044.18,142.286 1049.38,87.9763 1054.57,87.9763 1059.76,87.9763 1064.96,87.9763 1070.15,87.9763 1075.34,87.9763 1080.54,87.9763 1085.73,142.286 1090.92,87.9763 1096.12,87.9763 1101.31,87.9763 1106.5,87.9763 1111.7,87.9763 1116.89,142.286 1122.08,87.9763 1127.28,87.9763 1132.47,87.9763 1137.66,87.9763 1142.86,142.286 1148.05,87.9763 1153.24,87.9763 1158.44,87.9763 1163.63,87.9763 1168.82,142.286 1174.02,87.9763 1179.21,87.9763 1184.4,87.9763 1189.6,87.9763 1194.79,87.9763 1199.98,142.286 1205.18,87.9763 1210.37,87.9763 1215.56,87.9763 1220.76,142.286 1225.95,87.9763 1231.14,87.9763 1236.34,87.9763 1241.53,87.9763 1246.72,87.9763 1251.92,87.9763 1257.11,87.9763 1262.31,87.9763 1267.5,87.9763 1272.69,87.9763 1277.89,87.9763 1283.08,87.9763 1288.27,87.9763 1293.47,87.9763 1298.66,142.286 1303.85,87.9763 1309.05,87.9763 1314.24,87.9763 1319.43,87.9763 1324.63,87.9763 1329.82,87.9763 1335.01,142.286 1340.21,87.9763 1345.4,87.9763 1350.59,87.9763 1355.79,87.9763 1360.98,87.9763 1366.17,87.9763 1371.37,87.9763 1376.56,87.9763 1381.75,87.9763 1386.95,87.9763 1392.14,87.9763 1397.33,87.9763 1402.53,87.9763 1407.72,87.9763 1412.91,142.286 1418.11,142.286 1423.3,87.9763 1428.49,87.9763 1433.69,87.9763 1438.88,87.9763 1444.07,87.9763 1449.27,87.9763 1454.46,87.9763 1459.65,87.9763 1464.85,87.9763 1470.04,87.9763 1475.23,87.9763 1480.43,87.9763 1485.62,87.9763 1490.81,87.9763 1496.01,87.9763 1501.2,87.9763 1506.39,87.9763 1511.59,87.9763 1516.78,87.9763 1521.97,87.9763 1527.17,87.9763 1532.36,87.9763 1537.55,87.9763 1542.75,87.9763 1547.94,87.9763 1553.13,87.9763 1558.33,87.9763 1563.52,87.9763 1568.71,87.9763 1573.91,87.9763 1579.1,87.9763 1584.29,87.9763 1589.49,87.9763 1594.68,87.9763 1599.87,87.9763 1605.07,142.286 1610.26,87.9763 1615.45,87.9763 1620.65,87.9763 1625.84,87.9763 1631.03,87.9763 1636.23,87.9763 1641.42,87.9763 1646.61,87.9763 1651.81,142.286 1657,87.9763 1662.19,87.9763 1667.39,87.9763 1672.58,87.9763 1677.77,87.9763 1682.97,87.9763 1688.16,87.9763 1693.35,87.9763 1698.55,87.9763 1703.74,142.286 1708.93,87.9763 1714.13,87.9763 1719.32,87.9763 1724.51,87.9763 1729.71,87.9763 1734.9,87.9763 1740.09,87.9763 1745.29,87.9763 1750.48,87.9763 1755.67,87.9763 1760.87,87.9763 1766.06,87.9763 1771.25,87.9763 1776.45,87.9763 1781.64,87.9763 1786.83,87.9763 1792.03,87.9763 1797.22,87.9763 1802.42,87.9763 1807.61,87.9763 1812.8,87.9763 1818,87.9763 1823.19,87.9763 1828.38,87.9763 1833.58,87.9763 1838.77,87.9763 1843.96,87.9763 1849.16,87.9763 1854.35,87.9763 1859.54,87.9763 1864.74,87.9763 1869.93,87.9763 1875.12,87.9763 1880.32,87.9763 1885.51,87.9763 1890.7,87.9763 1895.9,87.9763 1901.09,87.9763 1906.28,87.9763 1911.48,87.9763 1916.67,87.9763 1921.86,142.286 1927.06,87.9763 1932.25,87.9763 1937.44,87.9763 1942.64,87.9763 1947.83,87.9763 1953.02,87.9763 1958.22,87.9763 1963.41,87.9763 1968.6,87.9763 1973.8,87.9763 1978.99,87.9763 1984.18,87.9763 1989.38,196.595 1994.57,87.9763 1999.76,142.286 2004.96,87.9763 2010.15,87.9763 2015.34,87.9763 2020.54,87.9763 2025.73,87.9763 2030.92,87.9763 2036.12,87.9763 2041.31,87.9763 2046.5,87.9763 2051.7,142.286 2056.89,87.9763 2062.08,87.9763 2067.28,87.9763 2072.47,87.9763 2077.66,87.9763 2082.86,87.9763 2088.05,87.9763 2093.24,87.9763 2098.44,87.9763 2103.63,87.9763 2108.82,142.286 2114.02,87.9763 2119.21,87.9763 2124.4,87.9763 2129.6,87.9763 2134.79,87.9763 2139.98,87.9763 2145.18,87.9763 2150.37,87.9763 2155.56,142.286 2160.76,87.9763 2165.95,87.9763 2171.14,87.9763 2176.34,87.9763 2181.53,87.9763 2186.72,87.9763 2191.92,87.9763 2197.11,87.9763 2202.3,87.9763 2207.5,87.9763 2212.69,87.9763 2217.88,87.9763 2223.08,87.9763 2228.27,87.9763 2233.46,87.9763 2238.66,87.9763 2243.85,87.9763 2249.04,87.9763 2254.24,87.9763 2259.43,87.9763 2264.62,87.9763 2269.82,87.9763 2275.01,87.9763 2280.2,87.9763 2285.4,87.9763 2290.59,87.9763 "/>
<path clip-path="url(#clip690)" d="M2007.46 1438.47 L2279.54 1438.47 L2279.54 1334.79 L2007.46 1334.79  Z" fill="#ffffff" fill-rule="evenodd" fill-opacity="1"/>
<polyline clip-path="url(#clip690)" style="stroke:#000000; stroke-linecap:round; stroke-linejoin:round; stroke-width:4; stroke-opacity:1; fill:none" points="2007.46,1438.47 2279.54,1438.47 2279.54,1334.79 2007.46,1334.79 2007.46,1438.47 "/>
<polyline clip-path="url(#clip690)" style="stroke:#009af9; stroke-linecap:round; stroke-linejoin:round; stroke-width:4; stroke-opacity:1; fill:none" points="2031.87,1386.63 2178.3,1386.63 "/>
<path clip-path="url(#clip690)" d="M2216.55 1406.32 Q2214.74 1410.95 2213.03 1412.36 Q2211.32 1413.78 2208.44 1413.78 L2205.04 1413.78 L2205.04 1410.21 L2207.54 1410.21 Q2209.3 1410.21 2210.27 1409.38 Q2211.25 1408.54 2212.43 1405.44 L2213.19 1403.5 L2202.7 1377.99 L2207.22 1377.99 L2215.32 1398.27 L2223.42 1377.99 L2227.94 1377.99 L2216.55 1406.32 Z" fill="#000000" fill-rule="nonzero" fill-opacity="1" /><path clip-path="url(#clip690)" d="M2235.23 1399.98 L2242.87 1399.98 L2242.87 1373.61 L2234.56 1375.28 L2234.56 1371.02 L2242.82 1369.35 L2247.5 1369.35 L2247.5 1399.98 L2255.13 1399.98 L2255.13 1403.91 L2235.23 1403.91 L2235.23 1399.98 Z" fill="#000000" fill-rule="nonzero" fill-opacity="1" /></svg>
