<?xml version="1.0" encoding="utf-8"?>
<svg xmlns="http://www.w3.org/2000/svg" xmlns:xlink="http://www.w3.org/1999/xlink" width="600" height="400" viewBox="0 0 2400 1600">
<defs>
  <clipPath id="clip260">
    <rect x="0" y="0" width="2400" height="1600"/>
  </clipPath>
</defs>
<path clip-path="url(#clip260)" d="M0 1600 L2400 1600 L2400 0 L0 0  Z" fill="#ffffff" fill-rule="evenodd" fill-opacity="1"/>
<defs>
  <clipPath id="clip261">
    <rect x="480" y="0" width="1681" height="1600"/>
  </clipPath>
</defs>
<path clip-path="url(#clip260)" d="M209.029 1486.45 L2352.76 1486.45 L2352.76 47.2441 L209.029 47.2441  Z" fill="#ffffff" fill-rule="evenodd" fill-opacity="1"/>
<defs>
  <clipPath id="clip262">
    <rect x="209" y="47" width="2145" height="1440"/>
  </clipPath>
</defs>
<polyline clip-path="url(#clip262)" style="stroke:#000000; stroke-linecap:round; stroke-linejoin:round; stroke-width:2; stroke-opacity:0.1; fill:none" points="269.7,1486.45 269.7,47.2441 "/>
<polyline clip-path="url(#clip262)" style="stroke:#000000; stroke-linecap:round; stroke-linejoin:round; stroke-width:2; stroke-opacity:0.1; fill:none" points="674.987,1486.45 674.987,47.2441 "/>
<polyline clip-path="url(#clip262)" style="stroke:#000000; stroke-linecap:round; stroke-linejoin:round; stroke-width:2; stroke-opacity:0.1; fill:none" points="1080.27,1486.45 1080.27,47.2441 "/>
<polyline clip-path="url(#clip262)" style="stroke:#000000; stroke-linecap:round; stroke-linejoin:round; stroke-width:2; stroke-opacity:0.1; fill:none" points="1485.56,1486.45 1485.56,47.2441 "/>
<polyline clip-path="url(#clip262)" style="stroke:#000000; stroke-linecap:round; stroke-linejoin:round; stroke-width:2; stroke-opacity:0.1; fill:none" points="1890.85,1486.45 1890.85,47.2441 "/>
<polyline clip-path="url(#clip262)" style="stroke:#000000; stroke-linecap:round; stroke-linejoin:round; stroke-width:2; stroke-opacity:0.1; fill:none" points="2296.14,1486.45 2296.14,47.2441 "/>
<polyline clip-path="url(#clip260)" style="stroke:#000000; stroke-linecap:round; stroke-linejoin:round; stroke-width:4; stroke-opacity:1; fill:none" points="209.029,1486.45 2352.76,1486.45 "/>
<polyline clip-path="url(#clip260)" style="stroke:#000000; stroke-linecap:round; stroke-linejoin:round; stroke-width:4; stroke-opacity:1; fill:none" points="269.7,1486.45 269.7,1467.55 "/>
<polyline clip-path="url(#clip260)" style="stroke:#000000; stroke-linecap:round; stroke-linejoin:round; stroke-width:4; stroke-opacity:1; fill:none" points="674.987,1486.45 674.987,1467.55 "/>
<polyline clip-path="url(#clip260)" style="stroke:#000000; stroke-linecap:round; stroke-linejoin:round; stroke-width:4; stroke-opacity:1; fill:none" points="1080.27,1486.45 1080.27,1467.55 "/>
<polyline clip-path="url(#clip260)" style="stroke:#000000; stroke-linecap:round; stroke-linejoin:round; stroke-width:4; stroke-opacity:1; fill:none" points="1485.56,1486.45 1485.56,1467.55 "/>
<polyline clip-path="url(#clip260)" style="stroke:#000000; stroke-linecap:round; stroke-linejoin:round; stroke-width:4; stroke-opacity:1; fill:none" points="1890.85,1486.45 1890.85,1467.55 "/>
<polyline clip-path="url(#clip260)" style="stroke:#000000; stroke-linecap:round; stroke-linejoin:round; stroke-width:4; stroke-opacity:1; fill:none" points="2296.14,1486.45 2296.14,1467.55 "/>
<path clip-path="url(#clip260)" d="M269.7 1517.37 Q266.089 1517.37 264.26 1520.93 Q262.455 1524.47 262.455 1531.6 Q262.455 1538.71 264.26 1542.27 Q266.089 1545.82 269.7 1545.82 Q273.334 1545.82 275.14 1542.27 Q276.969 1538.71 276.969 1531.6 Q276.969 1524.47 275.14 1520.93 Q273.334 1517.37 269.7 1517.37 M269.7 1513.66 Q275.51 1513.66 278.566 1518.27 Q281.644 1522.85 281.644 1531.6 Q281.644 1540.33 278.566 1544.94 Q275.51 1549.52 269.7 1549.52 Q263.89 1549.52 260.811 1544.94 Q257.756 1540.33 257.756 1531.6 Q257.756 1522.85 260.811 1518.27 Q263.89 1513.66 269.7 1513.66 Z" fill="#000000" fill-rule="nonzero" fill-opacity="1" /><path clip-path="url(#clip260)" d="M634.594 1544.91 L642.233 1544.91 L642.233 1518.55 L633.923 1520.21 L633.923 1515.95 L642.187 1514.29 L646.863 1514.29 L646.863 1544.91 L654.501 1544.91 L654.501 1548.85 L634.594 1548.85 L634.594 1544.91 Z" fill="#000000" fill-rule="nonzero" fill-opacity="1" /><path clip-path="url(#clip260)" d="M673.946 1517.37 Q670.335 1517.37 668.506 1520.93 Q666.7 1524.47 666.7 1531.6 Q666.7 1538.71 668.506 1542.27 Q670.335 1545.82 673.946 1545.82 Q677.58 1545.82 679.386 1542.27 Q681.214 1538.71 681.214 1531.6 Q681.214 1524.47 679.386 1520.93 Q677.58 1517.37 673.946 1517.37 M673.946 1513.66 Q679.756 1513.66 682.812 1518.27 Q685.89 1522.85 685.89 1531.6 Q685.89 1540.33 682.812 1544.94 Q679.756 1549.52 673.946 1549.52 Q668.136 1549.52 665.057 1544.94 Q662.001 1540.33 662.001 1531.6 Q662.001 1522.85 665.057 1518.27 Q668.136 1513.66 673.946 1513.66 Z" fill="#000000" fill-rule="nonzero" fill-opacity="1" /><path clip-path="url(#clip260)" d="M704.108 1517.37 Q700.497 1517.37 698.668 1520.93 Q696.862 1524.47 696.862 1531.6 Q696.862 1538.71 698.668 1542.27 Q700.497 1545.82 704.108 1545.82 Q707.742 1545.82 709.547 1542.27 Q711.376 1538.71 711.376 1531.6 Q711.376 1524.47 709.547 1520.93 Q707.742 1517.37 704.108 1517.37 M704.108 1513.66 Q709.918 1513.66 712.973 1518.27 Q716.052 1522.85 716.052 1531.6 Q716.052 1540.33 712.973 1544.94 Q709.918 1549.52 704.108 1549.52 Q698.298 1549.52 695.219 1544.94 Q692.163 1540.33 692.163 1531.6 Q692.163 1522.85 695.219 1518.27 Q698.298 1513.66 704.108 1513.66 Z" fill="#000000" fill-rule="nonzero" fill-opacity="1" /><path clip-path="url(#clip260)" d="M1043.97 1544.91 L1060.29 1544.91 L1060.29 1548.85 L1038.34 1548.85 L1038.34 1544.91 Q1041 1542.16 1045.59 1537.53 Q1050.19 1532.88 1051.37 1531.53 Q1053.62 1529.01 1054.5 1527.27 Q1055.4 1525.51 1055.4 1523.82 Q1055.4 1521.07 1053.46 1519.33 Q1051.54 1517.6 1048.43 1517.6 Q1046.24 1517.6 1043.78 1518.36 Q1041.35 1519.13 1038.57 1520.68 L1038.57 1515.95 Q1041.4 1514.82 1043.85 1514.24 Q1046.31 1513.66 1048.34 1513.66 Q1053.71 1513.66 1056.91 1516.35 Q1060.1 1519.03 1060.1 1523.52 Q1060.1 1525.65 1059.29 1527.57 Q1058.5 1529.47 1056.4 1532.07 Q1055.82 1532.74 1052.72 1535.95 Q1049.62 1539.15 1043.97 1544.91 Z" fill="#000000" fill-rule="nonzero" fill-opacity="1" /><path clip-path="url(#clip260)" d="M1080.1 1517.37 Q1076.49 1517.37 1074.66 1520.93 Q1072.86 1524.47 1072.86 1531.6 Q1072.86 1538.71 1074.66 1542.27 Q1076.49 1545.82 1080.1 1545.82 Q1083.74 1545.82 1085.54 1542.27 Q1087.37 1538.71 1087.37 1531.6 Q1087.37 1524.47 1085.54 1520.93 Q1083.74 1517.37 1080.1 1517.37 M1080.1 1513.66 Q1085.91 1513.66 1088.97 1518.27 Q1092.05 1522.85 1092.05 1531.6 Q1092.05 1540.33 1088.97 1544.94 Q1085.91 1549.52 1080.1 1549.52 Q1074.29 1549.52 1071.21 1544.94 Q1068.16 1540.33 1068.16 1531.6 Q1068.16 1522.85 1071.21 1518.27 Q1074.29 1513.66 1080.1 1513.66 Z" fill="#000000" fill-rule="nonzero" fill-opacity="1" /><path clip-path="url(#clip260)" d="M1110.26 1517.37 Q1106.65 1517.37 1104.82 1520.93 Q1103.02 1524.47 1103.02 1531.6 Q1103.02 1538.71 1104.82 1542.27 Q1106.65 1545.82 1110.26 1545.82 Q1113.9 1545.82 1115.7 1542.27 Q1117.53 1538.71 1117.53 1531.6 Q1117.53 1524.47 1115.7 1520.93 Q1113.9 1517.37 1110.26 1517.37 M1110.26 1513.66 Q1116.07 1513.66 1119.13 1518.27 Q1122.21 1522.85 1122.21 1531.6 Q1122.21 1540.33 1119.13 1544.94 Q1116.07 1549.52 1110.26 1549.52 Q1104.45 1549.52 1101.37 1544.94 Q1098.32 1540.33 1098.32 1531.6 Q1098.32 1522.85 1101.37 1518.27 Q1104.45 1513.66 1110.26 1513.66 Z" fill="#000000" fill-rule="nonzero" fill-opacity="1" /><path clip-path="url(#clip260)" d="M1459.32 1530.21 Q1462.68 1530.93 1464.56 1533.2 Q1466.45 1535.47 1466.45 1538.8 Q1466.45 1543.92 1462.94 1546.72 Q1459.42 1549.52 1452.94 1549.52 Q1450.76 1549.52 1448.44 1549.08 Q1446.15 1548.66 1443.7 1547.81 L1443.7 1543.29 Q1445.64 1544.43 1447.96 1545.01 Q1450.27 1545.58 1452.8 1545.58 Q1457.19 1545.58 1459.49 1543.85 Q1461.8 1542.11 1461.8 1538.8 Q1461.8 1535.75 1459.65 1534.03 Q1457.52 1532.3 1453.7 1532.3 L1449.67 1532.3 L1449.67 1528.45 L1453.88 1528.45 Q1457.33 1528.45 1459.16 1527.09 Q1460.99 1525.7 1460.99 1523.11 Q1460.99 1520.45 1459.09 1519.03 Q1457.22 1517.6 1453.7 1517.6 Q1451.78 1517.6 1449.58 1518.01 Q1447.38 1518.43 1444.74 1519.31 L1444.74 1515.14 Q1447.4 1514.4 1449.72 1514.03 Q1452.06 1513.66 1454.12 1513.66 Q1459.44 1513.66 1462.54 1516.09 Q1465.64 1518.5 1465.64 1522.62 Q1465.64 1525.49 1464 1527.48 Q1462.36 1529.45 1459.32 1530.21 Z" fill="#000000" fill-rule="nonzero" fill-opacity="1" /><path clip-path="url(#clip260)" d="M1485.32 1517.37 Q1481.71 1517.37 1479.88 1520.93 Q1478.07 1524.47 1478.07 1531.6 Q1478.07 1538.71 1479.88 1542.27 Q1481.71 1545.82 1485.32 1545.82 Q1488.95 1545.82 1490.76 1542.27 Q1492.59 1538.71 1492.59 1531.6 Q1492.59 1524.47 1490.76 1520.93 Q1488.95 1517.37 1485.32 1517.37 M1485.32 1513.66 Q1491.13 1513.66 1494.19 1518.27 Q1497.26 1522.85 1497.26 1531.6 Q1497.26 1540.33 1494.19 1544.94 Q1491.13 1549.52 1485.32 1549.52 Q1479.51 1549.52 1476.43 1544.94 Q1473.37 1540.33 1473.37 1531.6 Q1473.37 1522.85 1476.43 1518.27 Q1479.51 1513.66 1485.32 1513.66 Z" fill="#000000" fill-rule="nonzero" fill-opacity="1" /><path clip-path="url(#clip260)" d="M1515.48 1517.37 Q1511.87 1517.37 1510.04 1520.93 Q1508.24 1524.47 1508.24 1531.6 Q1508.24 1538.71 1510.04 1542.27 Q1511.87 1545.82 1515.48 1545.82 Q1519.12 1545.82 1520.92 1542.27 Q1522.75 1538.71 1522.75 1531.6 Q1522.75 1524.47 1520.92 1520.93 Q1519.12 1517.37 1515.48 1517.37 M1515.48 1513.66 Q1521.29 1513.66 1524.35 1518.27 Q1527.43 1522.85 1527.43 1531.6 Q1527.43 1540.33 1524.35 1544.94 Q1521.29 1549.52 1515.48 1549.52 Q1509.67 1549.52 1506.59 1544.94 Q1503.54 1540.33 1503.54 1531.6 Q1503.54 1522.85 1506.59 1518.27 Q1509.67 1513.66 1515.48 1513.66 Z" fill="#000000" fill-rule="nonzero" fill-opacity="1" /><path clip-path="url(#clip260)" d="M1863.94 1518.36 L1852.13 1536.81 L1863.94 1536.81 L1863.94 1518.36 M1862.71 1514.29 L1868.59 1514.29 L1868.59 1536.81 L1873.52 1536.81 L1873.52 1540.7 L1868.59 1540.7 L1868.59 1548.85 L1863.94 1548.85 L1863.94 1540.7 L1848.34 1540.7 L1848.34 1536.19 L1862.71 1514.29 Z" fill="#000000" fill-rule="nonzero" fill-opacity="1" /><path clip-path="url(#clip260)" d="M1891.25 1517.37 Q1887.64 1517.37 1885.82 1520.93 Q1884.01 1524.47 1884.01 1531.6 Q1884.01 1538.71 1885.82 1542.27 Q1887.64 1545.82 1891.25 1545.82 Q1894.89 1545.82 1896.69 1542.27 Q1898.52 1538.71 1898.52 1531.6 Q1898.52 1524.47 1896.69 1520.93 Q1894.89 1517.37 1891.25 1517.37 M1891.25 1513.66 Q1897.07 1513.66 1900.12 1518.27 Q1903.2 1522.85 1903.2 1531.6 Q1903.2 1540.33 1900.12 1544.94 Q1897.07 1549.52 1891.25 1549.52 Q1885.44 1549.52 1882.37 1544.94 Q1879.31 1540.33 1879.31 1531.6 Q1879.31 1522.85 1882.37 1518.27 Q1885.44 1513.66 1891.25 1513.66 Z" fill="#000000" fill-rule="nonzero" fill-opacity="1" /><path clip-path="url(#clip260)" d="M1921.42 1517.37 Q1917.81 1517.37 1915.98 1520.93 Q1914.17 1524.47 1914.17 1531.6 Q1914.17 1538.71 1915.98 1542.27 Q1917.81 1545.82 1921.42 1545.82 Q1925.05 1545.82 1926.86 1542.27 Q1928.69 1538.71 1928.69 1531.6 Q1928.69 1524.47 1926.86 1520.93 Q1925.05 1517.37 1921.42 1517.37 M1921.42 1513.66 Q1927.23 1513.66 1930.28 1518.27 Q1933.36 1522.85 1933.36 1531.6 Q1933.36 1540.33 1930.28 1544.94 Q1927.23 1549.52 1921.42 1549.52 Q1915.61 1549.52 1912.53 1544.94 Q1909.47 1540.33 1909.47 1531.6 Q1909.47 1522.85 1912.53 1518.27 Q1915.61 1513.66 1921.42 1513.66 Z" fill="#000000" fill-rule="nonzero" fill-opacity="1" /><path clip-path="url(#clip260)" d="M2255.76 1514.29 L2274.11 1514.29 L2274.11 1518.22 L2260.04 1518.22 L2260.04 1526.7 Q2261.06 1526.35 2262.07 1526.19 Q2263.09 1526 2264.11 1526 Q2269.9 1526 2273.28 1529.17 Q2276.66 1532.34 2276.66 1537.76 Q2276.66 1543.34 2273.19 1546.44 Q2269.71 1549.52 2263.39 1549.52 Q2261.22 1549.52 2258.95 1549.15 Q2256.7 1548.78 2254.3 1548.04 L2254.3 1543.34 Q2256.38 1544.47 2258.6 1545.03 Q2260.82 1545.58 2263.3 1545.58 Q2267.31 1545.58 2269.64 1543.48 Q2271.98 1541.37 2271.98 1537.76 Q2271.98 1534.15 2269.64 1532.04 Q2267.31 1529.94 2263.3 1529.94 Q2261.43 1529.94 2259.55 1530.35 Q2257.7 1530.77 2255.76 1531.65 L2255.76 1514.29 Z" fill="#000000" fill-rule="nonzero" fill-opacity="1" /><path clip-path="url(#clip260)" d="M2295.87 1517.37 Q2292.26 1517.37 2290.43 1520.93 Q2288.63 1524.47 2288.63 1531.6 Q2288.63 1538.71 2290.43 1542.27 Q2292.26 1545.82 2295.87 1545.82 Q2299.51 1545.82 2301.31 1542.27 Q2303.14 1538.71 2303.14 1531.6 Q2303.14 1524.47 2301.31 1520.93 Q2299.51 1517.37 2295.87 1517.37 M2295.87 1513.66 Q2301.68 1513.66 2304.74 1518.27 Q2307.82 1522.85 2307.82 1531.6 Q2307.82 1540.33 2304.74 1544.94 Q2301.68 1549.52 2295.87 1549.52 Q2290.06 1549.52 2286.98 1544.94 Q2283.93 1540.33 2283.93 1531.6 Q2283.93 1522.85 2286.98 1518.27 Q2290.06 1513.66 2295.87 1513.66 Z" fill="#000000" fill-rule="nonzero" fill-opacity="1" /><path clip-path="url(#clip260)" d="M2326.03 1517.37 Q2322.42 1517.37 2320.59 1520.93 Q2318.79 1524.47 2318.79 1531.6 Q2318.79 1538.71 2320.59 1542.27 Q2322.42 1545.82 2326.03 1545.82 Q2329.67 1545.82 2331.47 1542.27 Q2333.3 1538.71 2333.3 1531.6 Q2333.3 1524.47 2331.47 1520.93 Q2329.67 1517.37 2326.03 1517.37 M2326.03 1513.66 Q2331.84 1513.66 2334.9 1518.27 Q2337.98 1522.85 2337.98 1531.6 Q2337.98 1540.33 2334.9 1544.94 Q2331.84 1549.52 2326.03 1549.52 Q2320.22 1549.52 2317.14 1544.94 Q2314.09 1540.33 2314.09 1531.6 Q2314.09 1522.85 2317.14 1518.27 Q2320.22 1513.66 2326.03 1513.66 Z" fill="#000000" fill-rule="nonzero" fill-opacity="1" /><polyline clip-path="url(#clip262)" style="stroke:#000000; stroke-linecap:round; stroke-linejoin:round; stroke-width:2; stroke-opacity:0.1; fill:none" points="209.029,1456.27 2352.76,1456.27 "/>
<polyline clip-path="url(#clip262)" style="stroke:#000000; stroke-linecap:round; stroke-linejoin:round; stroke-width:2; stroke-opacity:0.1; fill:none" points="209.029,1157.65 2352.76,1157.65 "/>
<polyline clip-path="url(#clip262)" style="stroke:#000000; stroke-linecap:round; stroke-linejoin:round; stroke-width:2; stroke-opacity:0.1; fill:none" points="209.029,859.024 2352.76,859.024 "/>
<polyline clip-path="url(#clip262)" style="stroke:#000000; stroke-linecap:round; stroke-linejoin:round; stroke-width:2; stroke-opacity:0.1; fill:none" points="209.029,560.403 2352.76,560.403 "/>
<polyline clip-path="url(#clip262)" style="stroke:#000000; stroke-linecap:round; stroke-linejoin:round; stroke-width:2; stroke-opacity:0.1; fill:none" points="209.029,261.781 2352.76,261.781 "/>
<polyline clip-path="url(#clip260)" style="stroke:#000000; stroke-linecap:round; stroke-linejoin:round; stroke-width:4; stroke-opacity:1; fill:none" points="209.029,1486.45 209.029,47.2441 "/>
<polyline clip-path="url(#clip260)" style="stroke:#000000; stroke-linecap:round; stroke-linejoin:round; stroke-width:4; stroke-opacity:1; fill:none" points="209.029,1456.27 227.926,1456.27 "/>
<polyline clip-path="url(#clip260)" style="stroke:#000000; stroke-linecap:round; stroke-linejoin:round; stroke-width:4; stroke-opacity:1; fill:none" points="209.029,1157.65 227.926,1157.65 "/>
<polyline clip-path="url(#clip260)" style="stroke:#000000; stroke-linecap:round; stroke-linejoin:round; stroke-width:4; stroke-opacity:1; fill:none" points="209.029,859.024 227.926,859.024 "/>
<polyline clip-path="url(#clip260)" style="stroke:#000000; stroke-linecap:round; stroke-linejoin:round; stroke-width:4; stroke-opacity:1; fill:none" points="209.029,560.403 227.926,560.403 "/>
<polyline clip-path="url(#clip260)" style="stroke:#000000; stroke-linecap:round; stroke-linejoin:round; stroke-width:4; stroke-opacity:1; fill:none" points="209.029,261.781 227.926,261.781 "/>
<path clip-path="url(#clip260)" d="M50.9921 1456.72 L80.6679 1456.72 L80.6679 1460.65 L50.9921 1460.65 L50.9921 1456.72 Z" fill="#000000" fill-rule="nonzero" fill-opacity="1" /><path clip-path="url(#clip260)" d="M91.5706 1469.61 L99.2095 1469.61 L99.2095 1443.25 L90.8993 1444.91 L90.8993 1440.65 L99.1632 1438.99 L103.839 1438.99 L103.839 1469.61 L111.478 1469.61 L111.478 1473.55 L91.5706 1473.55 L91.5706 1469.61 Z" fill="#000000" fill-rule="nonzero" fill-opacity="1" /><path clip-path="url(#clip260)" d="M124.95 1469.61 L141.269 1469.61 L141.269 1473.55 L119.325 1473.55 L119.325 1469.61 Q121.987 1466.86 126.57 1462.23 Q131.177 1457.58 132.357 1456.23 Q134.603 1453.71 135.482 1451.97 Q136.385 1450.21 136.385 1448.52 Q136.385 1445.77 134.441 1444.03 Q132.519 1442.3 129.418 1442.3 Q127.219 1442.3 124.765 1443.06 Q122.334 1443.83 119.557 1445.38 L119.557 1440.65 Q122.381 1439.52 124.834 1438.94 Q127.288 1438.36 129.325 1438.36 Q134.695 1438.36 137.89 1441.05 Q141.084 1443.73 141.084 1448.22 Q141.084 1450.35 140.274 1452.27 Q139.487 1454.17 137.381 1456.77 Q136.802 1457.44 133.7 1460.65 Q130.598 1463.85 124.95 1469.61 Z" fill="#000000" fill-rule="nonzero" fill-opacity="1" /><path clip-path="url(#clip260)" d="M161.084 1442.07 Q157.473 1442.07 155.644 1445.63 Q153.839 1449.17 153.839 1456.3 Q153.839 1463.41 155.644 1466.97 Q157.473 1470.52 161.084 1470.52 Q164.718 1470.52 166.524 1466.97 Q168.353 1463.41 168.353 1456.3 Q168.353 1449.17 166.524 1445.63 Q164.718 1442.07 161.084 1442.07 M161.084 1438.36 Q166.894 1438.36 169.95 1442.97 Q173.029 1447.55 173.029 1456.3 Q173.029 1465.03 169.95 1469.64 Q166.894 1474.22 161.084 1474.22 Q155.274 1474.22 152.195 1469.64 Q149.14 1465.03 149.14 1456.3 Q149.14 1447.55 152.195 1442.97 Q155.274 1438.36 161.084 1438.36 Z" fill="#000000" fill-rule="nonzero" fill-opacity="1" /><path clip-path="url(#clip260)" d="M50.9921 1158.1 L80.6679 1158.1 L80.6679 1162.03 L50.9921 1162.03 L50.9921 1158.1 Z" fill="#000000" fill-rule="nonzero" fill-opacity="1" /><path clip-path="url(#clip260)" d="M91.5706 1170.99 L99.2095 1170.99 L99.2095 1144.63 L90.8993 1146.29 L90.8993 1142.03 L99.1632 1140.37 L103.839 1140.37 L103.839 1170.99 L111.478 1170.99 L111.478 1174.93 L91.5706 1174.93 L91.5706 1170.99 Z" fill="#000000" fill-rule="nonzero" fill-opacity="1" /><path clip-path="url(#clip260)" d="M130.922 1143.44 Q127.311 1143.44 125.482 1147.01 Q123.677 1150.55 123.677 1157.68 Q123.677 1164.79 125.482 1168.35 Q127.311 1171.89 130.922 1171.89 Q134.556 1171.89 136.362 1168.35 Q138.191 1164.79 138.191 1157.68 Q138.191 1150.55 136.362 1147.01 Q134.556 1143.44 130.922 1143.44 M130.922 1139.74 Q136.732 1139.74 139.788 1144.35 Q142.867 1148.93 142.867 1157.68 Q142.867 1166.41 139.788 1171.01 Q136.732 1175.6 130.922 1175.6 Q125.112 1175.6 122.033 1171.01 Q118.978 1166.41 118.978 1157.68 Q118.978 1148.93 122.033 1144.35 Q125.112 1139.74 130.922 1139.74 Z" fill="#000000" fill-rule="nonzero" fill-opacity="1" /><path clip-path="url(#clip260)" d="M161.084 1143.44 Q157.473 1143.44 155.644 1147.01 Q153.839 1150.55 153.839 1157.68 Q153.839 1164.79 155.644 1168.35 Q157.473 1171.89 161.084 1171.89 Q164.718 1171.89 166.524 1168.35 Q168.353 1164.79 168.353 1157.68 Q168.353 1150.55 166.524 1147.01 Q164.718 1143.44 161.084 1143.44 M161.084 1139.74 Q166.894 1139.74 169.95 1144.35 Q173.029 1148.93 173.029 1157.68 Q173.029 1166.41 169.95 1171.01 Q166.894 1175.6 161.084 1175.6 Q155.274 1175.6 152.195 1171.01 Q149.14 1166.41 149.14 1157.68 Q149.14 1148.93 152.195 1144.35 Q155.274 1139.74 161.084 1139.74 Z" fill="#000000" fill-rule="nonzero" fill-opacity="1" /><path clip-path="url(#clip260)" d="M81.154 859.476 L110.83 859.476 L110.83 863.411 L81.154 863.411 L81.154 859.476 Z" fill="#000000" fill-rule="nonzero" fill-opacity="1" /><path clip-path="url(#clip260)" d="M130.922 859.893 Q127.589 859.893 125.668 861.675 Q123.77 863.457 123.77 866.582 Q123.77 869.707 125.668 871.49 Q127.589 873.272 130.922 873.272 Q134.256 873.272 136.177 871.49 Q138.098 869.684 138.098 866.582 Q138.098 863.457 136.177 861.675 Q134.279 859.893 130.922 859.893 M126.246 857.902 Q123.237 857.161 121.547 855.101 Q119.881 853.041 119.881 850.078 Q119.881 845.934 122.82 843.527 Q125.783 841.119 130.922 841.119 Q136.084 841.119 139.024 843.527 Q141.964 845.934 141.964 850.078 Q141.964 853.041 140.274 855.101 Q138.607 857.161 135.621 857.902 Q139.001 858.689 140.876 860.98 Q142.774 863.272 142.774 866.582 Q142.774 871.605 139.695 874.291 Q136.64 876.976 130.922 876.976 Q125.205 876.976 122.126 874.291 Q119.07 871.605 119.07 866.582 Q119.07 863.272 120.969 860.98 Q122.867 858.689 126.246 857.902 M124.533 850.518 Q124.533 853.203 126.2 854.707 Q127.89 856.212 130.922 856.212 Q133.931 856.212 135.621 854.707 Q137.334 853.203 137.334 850.518 Q137.334 847.832 135.621 846.328 Q133.931 844.823 130.922 844.823 Q127.89 844.823 126.2 846.328 Q124.533 847.832 124.533 850.518 Z" fill="#000000" fill-rule="nonzero" fill-opacity="1" /><path clip-path="url(#clip260)" d="M161.084 844.823 Q157.473 844.823 155.644 848.388 Q153.839 851.93 153.839 859.059 Q153.839 866.166 155.644 869.73 Q157.473 873.272 161.084 873.272 Q164.718 873.272 166.524 869.73 Q168.353 866.166 168.353 859.059 Q168.353 851.93 166.524 848.388 Q164.718 844.823 161.084 844.823 M161.084 841.119 Q166.894 841.119 169.95 845.726 Q173.029 850.309 173.029 859.059 Q173.029 867.786 169.95 872.392 Q166.894 876.976 161.084 876.976 Q155.274 876.976 152.195 872.392 Q149.14 867.786 149.14 859.059 Q149.14 850.309 152.195 845.726 Q155.274 841.119 161.084 841.119 Z" fill="#000000" fill-rule="nonzero" fill-opacity="1" /><path clip-path="url(#clip260)" d="M81.154 560.854 L110.83 560.854 L110.83 564.79 L81.154 564.79 L81.154 560.854 Z" fill="#000000" fill-rule="nonzero" fill-opacity="1" /><path clip-path="url(#clip260)" d="M131.501 558.54 Q128.353 558.54 126.501 560.692 Q124.672 562.845 124.672 566.595 Q124.672 570.322 126.501 572.498 Q128.353 574.651 131.501 574.651 Q134.649 574.651 136.478 572.498 Q138.33 570.322 138.33 566.595 Q138.33 562.845 136.478 560.692 Q134.649 558.54 131.501 558.54 M140.783 543.887 L140.783 548.146 Q139.024 547.313 137.219 546.873 Q135.436 546.433 133.677 546.433 Q129.047 546.433 126.594 549.558 Q124.163 552.683 123.816 559.003 Q125.182 556.989 127.242 555.924 Q129.302 554.836 131.779 554.836 Q136.987 554.836 139.996 558.007 Q143.029 561.155 143.029 566.595 Q143.029 571.919 139.881 575.137 Q136.732 578.354 131.501 578.354 Q125.506 578.354 122.334 573.771 Q119.163 569.165 119.163 560.438 Q119.163 552.243 123.052 547.382 Q126.941 542.498 133.492 542.498 Q135.251 542.498 137.033 542.845 Q138.839 543.192 140.783 543.887 Z" fill="#000000" fill-rule="nonzero" fill-opacity="1" /><path clip-path="url(#clip260)" d="M161.084 546.202 Q157.473 546.202 155.644 549.766 Q153.839 553.308 153.839 560.438 Q153.839 567.544 155.644 571.109 Q157.473 574.651 161.084 574.651 Q164.718 574.651 166.524 571.109 Q168.353 567.544 168.353 560.438 Q168.353 553.308 166.524 549.766 Q164.718 546.202 161.084 546.202 M161.084 542.498 Q166.894 542.498 169.95 547.104 Q173.029 551.688 173.029 560.438 Q173.029 569.165 169.95 573.771 Q166.894 578.354 161.084 578.354 Q155.274 578.354 152.195 573.771 Q149.14 569.165 149.14 560.438 Q149.14 551.688 152.195 547.104 Q155.274 542.498 161.084 542.498 Z" fill="#000000" fill-rule="nonzero" fill-opacity="1" /><path clip-path="url(#clip260)" d="M81.154 262.233 L110.83 262.233 L110.83 266.168 L81.154 266.168 L81.154 262.233 Z" fill="#000000" fill-rule="nonzero" fill-opacity="1" /><path clip-path="url(#clip260)" d="M133.769 248.576 L121.964 267.025 L133.769 267.025 L133.769 248.576 M132.543 244.501 L138.422 244.501 L138.422 267.025 L143.353 267.025 L143.353 270.913 L138.422 270.913 L138.422 279.061 L133.769 279.061 L133.769 270.913 L118.168 270.913 L118.168 266.4 L132.543 244.501 Z" fill="#000000" fill-rule="nonzero" fill-opacity="1" /><path clip-path="url(#clip260)" d="M161.084 247.58 Q157.473 247.58 155.644 251.145 Q153.839 254.687 153.839 261.816 Q153.839 268.923 155.644 272.487 Q157.473 276.029 161.084 276.029 Q164.718 276.029 166.524 272.487 Q168.353 268.923 168.353 261.816 Q168.353 254.687 166.524 251.145 Q164.718 247.58 161.084 247.58 M161.084 243.876 Q166.894 243.876 169.95 248.483 Q173.029 253.066 173.029 261.816 Q173.029 270.543 169.95 275.149 Q166.894 279.733 161.084 279.733 Q155.274 279.733 152.195 275.149 Q149.14 270.543 149.14 261.816 Q149.14 253.066 152.195 248.483 Q155.274 243.876 161.084 243.876 Z" fill="#000000" fill-rule="nonzero" fill-opacity="1" /><polyline clip-path="url(#clip262)" style="stroke:#009af9; stroke-linecap:round; stroke-linejoin:round; stroke-width:4; stroke-opacity:1; fill:none" points="269.7,906.47 273.753,906.303 277.806,554.452 281.859,554.365 285.912,502.506 289.964,502.422 294.017,833.57 298.07,833.484 302.123,905.419 306.176,905.181 310.229,1143.71 314.282,1143.53 318.335,398.498 322.387,398.43 326.44,460.625 330.493,460.516 334.546,470.886 338.599,470.798 342.652,543.002 346.705,542.887 350.758,450.148 354.81,450.055 358.863,821.41 362.916,821.239 366.969,904.406 371.022,904.257 375.075,273.635 379.128,273.585 383.181,677.307 387.233,677.208 391.286,728.494 395.339,728.33 399.392,459.571 403.445,459.499 407.498,800.428 411.551,800.297 415.604,697.057 419.656,696.968 423.709,737.894 427.762,737.786 431.815,655.691 435.868,655.589 439.921,767.765 443.974,767.619 448.027,562.154 452.079,562.038 456.132,665.165 460.185,665.065 464.238,335.457 468.291,335.385 472.344,324.399 476.397,324.33 480.45,859.524 484.502,859.305 488.555,820.257 492.608,820.105 496.661,623.637 500.714,623.538 504.767,674.093 508.82,673.985 512.873,601.588 516.925,601.43 520.978,88.0195 525.031,87.9763 529.084,592.928 533.137,592.841 537.19,653.316 541.243,653.209 545.295,724.587 549.348,724.47 553.401,848.387 557.454,848.23 561.507,520.056 565.56,519.971 569.613,683.147 573.666,683.024 577.718,468.079 581.771,467.998 585.824,662.34 589.877,662.211 593.93,941.095 597.983,940.8 602.036,179.591 606.089,179.549 610.141,333.308 614.194,333.264 618.247,520.442 622.3,520.31 626.353,528.588 630.406,528.493 634.459,466.809 638.512,466.729 642.564,551.377 646.617,551.266 650.67,633.223 654.723,633.103 658.776,591.592 662.829,591.478 666.882,446.675 670.935,446.58 674.987,631.861 679.04,631.761 683.093,610.062 687.146,609.954 691.199,547.095 695.252,546.984 699.305,549.426 703.358,549.357 707.41,497.231 711.463,497.14 715.516,929.87 719.569,929.689 723.622,599.383 727.675,599.292 731.728,404.718 735.781,404.637 739.833,453.232 743.886,453.126 747.939,363.97 751.992,363.923 756.045,682.801 760.098,682.711 764.151,710.86 768.204,710.735 772.256,854.367 776.309,854.19 780.362,497.179 784.415,497.074 788.468,669.445 792.521,669.309 796.574,909.278 800.627,909.161 804.679,259.493 808.732,259.446 812.785,760.347 816.838,760.152 820.891,464.388 824.944,464.307 828.997,332.074 833.05,331.992 837.102,454.548 841.155,454.496 845.208,902.663 849.261,902.472 853.314,678.627 857.367,678.463 861.42,698.223 865.473,698.101 869.525,925.581 873.578,925.433 877.631,529.081 881.684,529.017 885.737,360.921 889.79,360.84 893.843,813.316 897.896,813.206 901.948,442.21 906.001,442.158 910.054,872.747 914.107,872.617 918.16,454.241 922.213,454.172 926.266,462.347 930.319,462.253 934.371,668.517 938.424,668.415 942.477,1272.12 946.53,1271.75 950.583,168.092 954.636,168.025 958.689,493.333 962.742,493.268 966.794,507.344 970.847,507.291 974.9,757.604 978.953,757.47 983.006,791.333 987.059,791.2 991.112,637.68 995.165,637.561 999.217,797.914 1003.27,797.697 1007.32,548.369 1011.38,548.241 1015.43,1076.06 1019.48,1075.79 1023.53,704.915 1027.59,704.814 1031.64,779.783 1035.69,779.694 1039.75,430.867 1043.8,430.792 1047.85,679.021 1051.9,678.959 1055.96,651.717 1060.01,651.571 1064.06,1060.73 1068.12,1060.44 1072.17,573.834 1076.22,573.719 1080.27,533.011 1084.33,532.905 1088.38,799.856 1092.43,799.691 1096.49,513.078 1100.54,513.004 1104.59,842.196 1108.65,842.101 1112.7,501.134 1116.75,501.072 1120.8,702.908 1124.86,702.791 1128.91,642.654 1132.96,642.551 1137.02,785.356 1141.07,785.241 1145.12,863.381 1149.17,863.214 1153.23,721.015 1157.28,720.859 1161.33,911.92 1165.39,911.771 1169.44,704.187 1173.49,704.091 1177.54,1177.59 1181.6,1177.44 1185.65,358.196 1189.7,358.15 1193.76,684.533 1197.81,684.434 1201.86,307.768 1205.91,307.725 1209.97,767.289 1214.02,767.14 1218.07,778.187 1222.13,778.068 1226.18,1445.72 1230.23,1445.39 1234.28,469.934 1238.34,469.865 1242.39,571.186 1246.44,571.116 1250.5,703.065 1254.55,702.916 1258.6,893.946 1262.65,893.645 1266.71,1038.64 1270.76,1038.48 1274.81,982.083 1278.87,981.852 1282.92,456.959 1286.97,456.863 1291.02,760.94 1295.08,760.808 1299.13,830.056 1303.18,829.876 1307.24,602.559 1311.29,602.435 1315.34,536.115 1319.39,536.036 1323.45,603.668 1327.5,603.505 1331.55,602.567 1335.61,602.491 1339.66,639.152 1343.71,639.04 1347.76,468.229 1351.82,468.146 1355.87,377.367 1359.92,377.31 1363.98,611.622 1368.03,611.493 1372.08,863.534 1376.13,863.394 1380.19,915.001 1384.24,914.75 1388.29,907.065 1392.35,906.952 1396.4,296.633 1400.45,296.562 1404.5,767.232 1408.56,767.095 1412.61,1057.1 1416.66,1056.91 1420.72,646.612 1424.77,646.504 1428.82,873.2 1432.87,873.015 1436.93,750.632 1440.98,750.526 1445.03,1053.8 1449.09,1053.6 1453.14,955.767 1457.19,955.661 1461.25,719.068 1465.3,718.961 1469.35,780.54 1473.4,780.413 1477.46,620.513 1481.51,620.426 1485.56,366.372 1489.62,366.319 1493.67,708.14 1497.72,707.979 1501.77,824.496 1505.83,824.413 1509.88,927.454 1513.93,927.252 1517.99,676.597 1522.04,676.46 1526.09,630.7 1530.14,630.606 1534.2,819.946 1538.25,819.842 1542.3,1294.67 1546.36,1294.47 1550.41,823.35 1554.46,823.247 1558.51,824.377 1562.57,824.173 1566.62,517.756 1570.67,517.685 1574.73,697.662 1578.78,697.574 1582.83,808.385 1586.88,808.238 1590.94,1129.82 1594.99,1129.57 1599.04,715.327 1603.1,715.241 1607.15,329.442 1611.2,329.399 1615.25,463.477 1619.31,463.391 1623.36,1042.36 1627.41,1042.21 1631.47,884.962 1635.52,884.814 1639.57,571.019 1643.62,570.912 1647.68,414.81 1651.73,414.708 1655.78,778.928 1659.84,778.789 1663.89,786.834 1667.94,786.723 1671.99,916.115 1676.05,915.819 1680.1,852.332 1684.15,852.227 1688.21,746.411 1692.26,746.295 1696.31,738.989 1700.36,738.807 1704.42,649.294 1708.47,649.186 1712.52,505.623 1716.58,505.496 1720.63,1094.29 1724.68,1094.05 1728.73,470.306 1732.79,470.247 1736.84,1096.94 1740.89,1096.83 1744.95,296.442 1749,296.382 1753.05,716.12 1757.1,716.002 1761.16,944.963 1765.21,944.857 1769.26,703.014 1773.32,702.897 1777.37,1032.89 1781.42,1032.76 1785.48,886.968 1789.53,886.859 1793.58,813.214 1797.63,813.099 1801.69,865.396 1805.74,865.27 1809.79,897.528 1813.85,897.304 1817.9,678.642 1821.95,678.57 1826,643.803 1830.06,643.735 1834.11,1006.06 1838.16,1005.87 1842.22,755.41 1846.27,755.248 1850.32,569.561 1854.37,569.418 1858.43,978.68 1862.48,978.433 1866.53,887.324 1870.59,887.15 1874.64,1085.2 1878.69,1085.06 1882.74,952.35 1886.8,952.196 1890.85,1279.15 1894.9,1278.96 1898.96,780.109 1903.01,779.947 1907.06,774.064 1911.11,773.931 1915.17,953.442 1919.22,953.349 1923.27,591.285 1927.33,591.189 1931.38,957.491 1935.43,957.333 1939.48,575.382 1943.54,575.288 1947.59,814.645 1951.64,814.465 1955.7,707.981 1959.75,707.897 1963.8,985.794 1967.85,985.635 1971.91,886.108 1975.96,885.989 1980.01,969.183 1984.07,969.008 1988.12,741.466 1992.17,741.339 1996.22,701.868 2000.28,701.778 2004.33,1267.68 2008.38,1267.43 2012.44,456.316 2016.49,456.216 2020.54,820.157 2024.59,819.987 2028.65,890.429 2032.7,890.198 2036.75,967.851 2040.81,967.652 2044.86,993.083 2048.91,992.99 2052.96,1096.17 2057.02,1095.89 2061.07,726.536 2065.12,726.418 2069.18,1369.42 2073.23,1368.95 2077.28,501.329 2081.33,501.252 2085.39,537.618 2089.44,537.539 2093.49,490.103 2097.55,490.037 2101.6,923.615 2105.65,923.468 2109.71,484.324 2113.76,484.256 2117.81,658.759 2121.86,658.651 2125.92,955.11 2129.97,954.961 2134.02,720.281 2138.08,720.124 2142.13,396.26 2146.18,396.19 2150.23,1232.23 2154.29,1232.02 2158.34,1080.45 2162.39,1080.16 2166.45,598.234 2170.5,598.149 2174.55,731.469 2178.6,731.416 2182.66,862.497 2186.71,862.295 2190.76,814.8 2194.82,814.688 2198.87,229.928 2202.92,229.864 2206.97,776.76 2211.03,776.569 2215.08,683.561 2219.13,683.473 2223.19,559.061 2227.24,558.97 2231.29,444.098 2235.34,444.022 2239.4,1032.33 2243.45,1032.24 2247.5,740.41 2251.56,740.337 2255.61,773.442 2259.66,773.309 2263.71,781.802 2267.77,781.677 2271.82,768.513 2275.87,768.331 2279.93,717.92 2283.98,717.813 2288.03,317.309 2292.08,317.256 "/>
<path clip-path="url(#clip260)" d="M280.486 1438.47 L547.289 1438.47 L547.289 1334.79 L280.486 1334.79  Z" fill="#ffffff" fill-rule="evenodd" fill-opacity="1"/>
<polyline clip-path="url(#clip260)" style="stroke:#000000; stroke-linecap:round; stroke-linejoin:round; stroke-width:4; stroke-opacity:1; fill:none" points="280.486,1438.47 547.289,1438.47 547.289,1334.79 280.486,1334.79 280.486,1438.47 "/>
<polyline clip-path="url(#clip260)" style="stroke:#009af9; stroke-linecap:round; stroke-linejoin:round; stroke-width:4; stroke-opacity:1; fill:none" points="304.305,1386.63 447.22,1386.63 "/>
<path clip-path="url(#clip260)" d="M484.882 1406.32 Q483.077 1410.95 481.364 1412.36 Q479.651 1413.78 476.78 1413.78 L473.378 1413.78 L473.378 1410.21 L475.878 1410.21 Q477.637 1410.21 478.609 1409.38 Q479.581 1408.54 480.762 1405.44 L481.526 1403.5 L471.04 1377.99 L475.554 1377.99 L483.655 1398.27 L491.757 1377.99 L496.271 1377.99 L484.882 1406.32 Z" fill="#000000" fill-rule="nonzero" fill-opacity="1" /><path clip-path="url(#clip260)" d="M503.563 1399.98 L511.201 1399.98 L511.201 1373.61 L502.891 1375.28 L502.891 1371.02 L511.155 1369.35 L515.831 1369.35 L515.831 1399.98 L523.47 1399.98 L523.47 1403.91 L503.563 1403.91 L503.563 1399.98 Z" fill="#000000" fill-rule="nonzero" fill-opacity="1" /></svg>
