<?xml version="1.0" encoding="utf-8"?>
<svg xmlns="http://www.w3.org/2000/svg" xmlns:xlink="http://www.w3.org/1999/xlink" width="600" height="400" viewBox="0 0 2400 1600">
<defs>
  <clipPath id="clip540">
    <rect x="0" y="0" width="2400" height="1600"/>
  </clipPath>
</defs>
<path clip-path="url(#clip540)" d="M0 1600 L2400 1600 L2400 0 L0 0  Z" fill="#ffffff" fill-rule="evenodd" fill-opacity="1"/>
<defs>
  <clipPath id="clip541">
    <rect x="480" y="0" width="1681" height="1600"/>
  </clipPath>
</defs>
<path clip-path="url(#clip540)" d="M139.446 1486.45 L2352.76 1486.45 L2352.76 47.2441 L139.446 47.2441  Z" fill="#ffffff" fill-rule="evenodd" fill-opacity="1"/>
<defs>
  <clipPath id="clip542">
    <rect x="139" y="47" width="2214" height="1440"/>
  </clipPath>
</defs>
<polyline clip-path="url(#clip542)" style="stroke:#000000; stroke-linecap:round; stroke-linejoin:round; stroke-width:2; stroke-opacity:0.1; fill:none" points="202.086,1486.45 202.086,47.2441 "/>
<polyline clip-path="url(#clip542)" style="stroke:#000000; stroke-linecap:round; stroke-linejoin:round; stroke-width:2; stroke-opacity:0.1; fill:none" points="724.094,1486.45 724.094,47.2441 "/>
<polyline clip-path="url(#clip542)" style="stroke:#000000; stroke-linecap:round; stroke-linejoin:round; stroke-width:2; stroke-opacity:0.1; fill:none" points="1246.1,1486.45 1246.1,47.2441 "/>
<polyline clip-path="url(#clip542)" style="stroke:#000000; stroke-linecap:round; stroke-linejoin:round; stroke-width:2; stroke-opacity:0.1; fill:none" points="1768.11,1486.45 1768.11,47.2441 "/>
<polyline clip-path="url(#clip542)" style="stroke:#000000; stroke-linecap:round; stroke-linejoin:round; stroke-width:2; stroke-opacity:0.1; fill:none" points="2290.12,1486.45 2290.12,47.2441 "/>
<polyline clip-path="url(#clip540)" style="stroke:#000000; stroke-linecap:round; stroke-linejoin:round; stroke-width:4; stroke-opacity:1; fill:none" points="139.446,1486.45 2352.76,1486.45 "/>
<polyline clip-path="url(#clip540)" style="stroke:#000000; stroke-linecap:round; stroke-linejoin:round; stroke-width:4; stroke-opacity:1; fill:none" points="202.086,1486.45 202.086,1467.55 "/>
<polyline clip-path="url(#clip540)" style="stroke:#000000; stroke-linecap:round; stroke-linejoin:round; stroke-width:4; stroke-opacity:1; fill:none" points="724.094,1486.45 724.094,1467.55 "/>
<polyline clip-path="url(#clip540)" style="stroke:#000000; stroke-linecap:round; stroke-linejoin:round; stroke-width:4; stroke-opacity:1; fill:none" points="1246.1,1486.45 1246.1,1467.55 "/>
<polyline clip-path="url(#clip540)" style="stroke:#000000; stroke-linecap:round; stroke-linejoin:round; stroke-width:4; stroke-opacity:1; fill:none" points="1768.11,1486.45 1768.11,1467.55 "/>
<polyline clip-path="url(#clip540)" style="stroke:#000000; stroke-linecap:round; stroke-linejoin:round; stroke-width:4; stroke-opacity:1; fill:none" points="2290.12,1486.45 2290.12,1467.55 "/>
<path clip-path="url(#clip540)" d="M202.086 1517.37 Q198.475 1517.37 196.647 1520.93 Q194.841 1524.47 194.841 1531.6 Q194.841 1538.71 196.647 1542.27 Q198.475 1545.82 202.086 1545.82 Q205.721 1545.82 207.526 1542.27 Q209.355 1538.71 209.355 1531.6 Q209.355 1524.47 207.526 1520.93 Q205.721 1517.37 202.086 1517.37 M202.086 1513.66 Q207.897 1513.66 210.952 1518.27 Q214.031 1522.85 214.031 1531.6 Q214.031 1540.33 210.952 1544.94 Q207.897 1549.52 202.086 1549.52 Q196.276 1549.52 193.198 1544.94 Q190.142 1540.33 190.142 1531.6 Q190.142 1522.85 193.198 1518.27 Q196.276 1513.66 202.086 1513.66 Z" fill="#000000" fill-rule="nonzero" fill-opacity="1" /><path clip-path="url(#clip540)" d="M668.619 1544.91 L676.258 1544.91 L676.258 1518.55 L667.948 1520.21 L667.948 1515.95 L676.212 1514.29 L680.888 1514.29 L680.888 1544.91 L688.527 1544.91 L688.527 1548.85 L668.619 1548.85 L668.619 1544.91 Z" fill="#000000" fill-rule="nonzero" fill-opacity="1" /><path clip-path="url(#clip540)" d="M707.971 1517.37 Q704.36 1517.37 702.531 1520.93 Q700.726 1524.47 700.726 1531.6 Q700.726 1538.71 702.531 1542.27 Q704.36 1545.82 707.971 1545.82 Q711.605 1545.82 713.411 1542.27 Q715.239 1538.71 715.239 1531.6 Q715.239 1524.47 713.411 1520.93 Q711.605 1517.37 707.971 1517.37 M707.971 1513.66 Q713.781 1513.66 716.837 1518.27 Q719.915 1522.85 719.915 1531.6 Q719.915 1540.33 716.837 1544.94 Q713.781 1549.52 707.971 1549.52 Q702.161 1549.52 699.082 1544.94 Q696.027 1540.33 696.027 1531.6 Q696.027 1522.85 699.082 1518.27 Q702.161 1513.66 707.971 1513.66 Z" fill="#000000" fill-rule="nonzero" fill-opacity="1" /><path clip-path="url(#clip540)" d="M738.133 1517.37 Q734.522 1517.37 732.693 1520.93 Q730.888 1524.47 730.888 1531.6 Q730.888 1538.71 732.693 1542.27 Q734.522 1545.82 738.133 1545.82 Q741.767 1545.82 743.573 1542.27 Q745.401 1538.71 745.401 1531.6 Q745.401 1524.47 743.573 1520.93 Q741.767 1517.37 738.133 1517.37 M738.133 1513.66 Q743.943 1513.66 746.999 1518.27 Q750.077 1522.85 750.077 1531.6 Q750.077 1540.33 746.999 1544.94 Q743.943 1549.52 738.133 1549.52 Q732.323 1549.52 729.244 1544.94 Q726.188 1540.33 726.188 1531.6 Q726.188 1522.85 729.244 1518.27 Q732.323 1513.66 738.133 1513.66 Z" fill="#000000" fill-rule="nonzero" fill-opacity="1" /><path clip-path="url(#clip540)" d="M768.295 1517.37 Q764.684 1517.37 762.855 1520.93 Q761.049 1524.47 761.049 1531.6 Q761.049 1538.71 762.855 1542.27 Q764.684 1545.82 768.295 1545.82 Q771.929 1545.82 773.735 1542.27 Q775.563 1538.71 775.563 1531.6 Q775.563 1524.47 773.735 1520.93 Q771.929 1517.37 768.295 1517.37 M768.295 1513.66 Q774.105 1513.66 777.16 1518.27 Q780.239 1522.85 780.239 1531.6 Q780.239 1540.33 777.16 1544.94 Q774.105 1549.52 768.295 1549.52 Q762.485 1549.52 759.406 1544.94 Q756.35 1540.33 756.35 1531.6 Q756.35 1522.85 759.406 1518.27 Q762.485 1513.66 768.295 1513.66 Z" fill="#000000" fill-rule="nonzero" fill-opacity="1" /><path clip-path="url(#clip540)" d="M1194.71 1544.91 L1211.03 1544.91 L1211.03 1548.85 L1189.09 1548.85 L1189.09 1544.91 Q1191.75 1542.16 1196.33 1537.53 Q1200.94 1532.88 1202.12 1531.53 Q1204.36 1529.01 1205.24 1527.27 Q1206.15 1525.51 1206.15 1523.82 Q1206.15 1521.07 1204.2 1519.33 Q1202.28 1517.6 1199.18 1517.6 Q1196.98 1517.6 1194.53 1518.36 Q1192.1 1519.13 1189.32 1520.68 L1189.32 1515.95 Q1192.14 1514.82 1194.6 1514.24 Q1197.05 1513.66 1199.09 1513.66 Q1204.46 1513.66 1207.65 1516.35 Q1210.85 1519.03 1210.85 1523.52 Q1210.85 1525.65 1210.04 1527.57 Q1209.25 1529.47 1207.14 1532.07 Q1206.56 1532.74 1203.46 1535.95 Q1200.36 1539.15 1194.71 1544.91 Z" fill="#000000" fill-rule="nonzero" fill-opacity="1" /><path clip-path="url(#clip540)" d="M1230.85 1517.37 Q1227.24 1517.37 1225.41 1520.93 Q1223.6 1524.47 1223.6 1531.6 Q1223.6 1538.71 1225.41 1542.27 Q1227.24 1545.82 1230.85 1545.82 Q1234.48 1545.82 1236.29 1542.27 Q1238.11 1538.71 1238.11 1531.6 Q1238.11 1524.47 1236.29 1520.93 Q1234.48 1517.37 1230.85 1517.37 M1230.85 1513.66 Q1236.66 1513.66 1239.71 1518.27 Q1242.79 1522.85 1242.79 1531.6 Q1242.79 1540.33 1239.71 1544.94 Q1236.66 1549.52 1230.85 1549.52 Q1225.04 1549.52 1221.96 1544.94 Q1218.9 1540.33 1218.9 1531.6 Q1218.9 1522.85 1221.96 1518.27 Q1225.04 1513.66 1230.85 1513.66 Z" fill="#000000" fill-rule="nonzero" fill-opacity="1" /><path clip-path="url(#clip540)" d="M1261.01 1517.37 Q1257.4 1517.37 1255.57 1520.93 Q1253.76 1524.47 1253.76 1531.6 Q1253.76 1538.71 1255.57 1542.27 Q1257.4 1545.82 1261.01 1545.82 Q1264.64 1545.82 1266.45 1542.27 Q1268.28 1538.71 1268.28 1531.6 Q1268.28 1524.47 1266.45 1520.93 Q1264.64 1517.37 1261.01 1517.37 M1261.01 1513.66 Q1266.82 1513.66 1269.87 1518.27 Q1272.95 1522.85 1272.95 1531.6 Q1272.95 1540.33 1269.87 1544.94 Q1266.82 1549.52 1261.01 1549.52 Q1255.2 1549.52 1252.12 1544.94 Q1249.06 1540.33 1249.06 1531.6 Q1249.06 1522.85 1252.12 1518.27 Q1255.2 1513.66 1261.01 1513.66 Z" fill="#000000" fill-rule="nonzero" fill-opacity="1" /><path clip-path="url(#clip540)" d="M1291.17 1517.37 Q1287.56 1517.37 1285.73 1520.93 Q1283.92 1524.47 1283.92 1531.6 Q1283.92 1538.71 1285.73 1542.27 Q1287.56 1545.82 1291.17 1545.82 Q1294.8 1545.82 1296.61 1542.27 Q1298.44 1538.71 1298.44 1531.6 Q1298.44 1524.47 1296.61 1520.93 Q1294.8 1517.37 1291.17 1517.37 M1291.17 1513.66 Q1296.98 1513.66 1300.04 1518.27 Q1303.11 1522.85 1303.11 1531.6 Q1303.11 1540.33 1300.04 1544.94 Q1296.98 1549.52 1291.17 1549.52 Q1285.36 1549.52 1282.28 1544.94 Q1279.23 1540.33 1279.23 1531.6 Q1279.23 1522.85 1282.28 1518.27 Q1285.36 1513.66 1291.17 1513.66 Z" fill="#000000" fill-rule="nonzero" fill-opacity="1" /><path clip-path="url(#clip540)" d="M1726.79 1530.21 Q1730.15 1530.93 1732.02 1533.2 Q1733.92 1535.47 1733.92 1538.8 Q1733.92 1543.92 1730.4 1546.72 Q1726.88 1549.52 1720.4 1549.52 Q1718.22 1549.52 1715.91 1549.08 Q1713.62 1548.66 1711.16 1547.81 L1711.16 1543.29 Q1713.11 1544.43 1715.42 1545.01 Q1717.74 1545.58 1720.26 1545.58 Q1724.66 1545.58 1726.95 1543.85 Q1729.27 1542.11 1729.27 1538.8 Q1729.27 1535.75 1727.11 1534.03 Q1724.98 1532.3 1721.16 1532.3 L1717.14 1532.3 L1717.14 1528.45 L1721.35 1528.45 Q1724.8 1528.45 1726.63 1527.09 Q1728.46 1525.7 1728.46 1523.11 Q1728.46 1520.45 1726.56 1519.03 Q1724.68 1517.6 1721.16 1517.6 Q1719.24 1517.6 1717.04 1518.01 Q1714.84 1518.43 1712.21 1519.31 L1712.21 1515.14 Q1714.87 1514.4 1717.18 1514.03 Q1719.52 1513.66 1721.58 1513.66 Q1726.9 1513.66 1730.01 1516.09 Q1733.11 1518.5 1733.11 1522.62 Q1733.11 1525.49 1731.46 1527.48 Q1729.82 1529.45 1726.79 1530.21 Z" fill="#000000" fill-rule="nonzero" fill-opacity="1" /><path clip-path="url(#clip540)" d="M1752.78 1517.37 Q1749.17 1517.37 1747.34 1520.93 Q1745.54 1524.47 1745.54 1531.6 Q1745.54 1538.71 1747.34 1542.27 Q1749.17 1545.82 1752.78 1545.82 Q1756.42 1545.82 1758.22 1542.27 Q1760.05 1538.71 1760.05 1531.6 Q1760.05 1524.47 1758.22 1520.93 Q1756.42 1517.37 1752.78 1517.37 M1752.78 1513.66 Q1758.59 1513.66 1761.65 1518.27 Q1764.73 1522.85 1764.73 1531.6 Q1764.73 1540.33 1761.65 1544.94 Q1758.59 1549.52 1752.78 1549.52 Q1746.97 1549.52 1743.9 1544.94 Q1740.84 1540.33 1740.84 1531.6 Q1740.84 1522.85 1743.9 1518.27 Q1746.97 1513.66 1752.78 1513.66 Z" fill="#000000" fill-rule="nonzero" fill-opacity="1" /><path clip-path="url(#clip540)" d="M1782.95 1517.37 Q1779.33 1517.37 1777.51 1520.93 Q1775.7 1524.47 1775.7 1531.6 Q1775.7 1538.71 1777.51 1542.27 Q1779.33 1545.82 1782.95 1545.82 Q1786.58 1545.82 1788.39 1542.27 Q1790.21 1538.71 1790.21 1531.6 Q1790.21 1524.47 1788.39 1520.93 Q1786.58 1517.37 1782.95 1517.37 M1782.95 1513.66 Q1788.76 1513.66 1791.81 1518.27 Q1794.89 1522.85 1794.89 1531.6 Q1794.89 1540.33 1791.81 1544.94 Q1788.76 1549.52 1782.95 1549.52 Q1777.14 1549.52 1774.06 1544.94 Q1771 1540.33 1771 1531.6 Q1771 1522.85 1774.06 1518.27 Q1777.14 1513.66 1782.95 1513.66 Z" fill="#000000" fill-rule="nonzero" fill-opacity="1" /><path clip-path="url(#clip540)" d="M1813.11 1517.37 Q1809.5 1517.37 1807.67 1520.93 Q1805.86 1524.47 1805.86 1531.6 Q1805.86 1538.71 1807.67 1542.27 Q1809.5 1545.82 1813.11 1545.82 Q1816.74 1545.82 1818.55 1542.27 Q1820.38 1538.71 1820.38 1531.6 Q1820.38 1524.47 1818.55 1520.93 Q1816.74 1517.37 1813.11 1517.37 M1813.11 1513.66 Q1818.92 1513.66 1821.97 1518.27 Q1825.05 1522.85 1825.05 1531.6 Q1825.05 1540.33 1821.97 1544.94 Q1818.92 1549.52 1813.11 1549.52 Q1807.3 1549.52 1804.22 1544.94 Q1801.16 1540.33 1801.16 1531.6 Q1801.16 1522.85 1804.22 1518.27 Q1807.3 1513.66 1813.11 1513.66 Z" fill="#000000" fill-rule="nonzero" fill-opacity="1" /><path clip-path="url(#clip540)" d="M2248.12 1518.36 L2236.32 1536.81 L2248.12 1536.81 L2248.12 1518.36 M2246.9 1514.29 L2252.78 1514.29 L2252.78 1536.81 L2257.71 1536.81 L2257.71 1540.7 L2252.78 1540.7 L2252.78 1548.85 L2248.12 1548.85 L2248.12 1540.7 L2232.52 1540.7 L2232.52 1536.19 L2246.9 1514.29 Z" fill="#000000" fill-rule="nonzero" fill-opacity="1" /><path clip-path="url(#clip540)" d="M2275.44 1517.37 Q2271.83 1517.37 2270 1520.93 Q2268.19 1524.47 2268.19 1531.6 Q2268.19 1538.71 2270 1542.27 Q2271.83 1545.82 2275.44 1545.82 Q2279.07 1545.82 2280.88 1542.27 Q2282.71 1538.71 2282.71 1531.6 Q2282.71 1524.47 2280.88 1520.93 Q2279.07 1517.37 2275.44 1517.37 M2275.44 1513.66 Q2281.25 1513.66 2284.3 1518.27 Q2287.38 1522.85 2287.38 1531.6 Q2287.38 1540.33 2284.3 1544.94 Q2281.25 1549.52 2275.44 1549.52 Q2269.63 1549.52 2266.55 1544.94 Q2263.49 1540.33 2263.49 1531.6 Q2263.49 1522.85 2266.55 1518.27 Q2269.63 1513.66 2275.44 1513.66 Z" fill="#000000" fill-rule="nonzero" fill-opacity="1" /><path clip-path="url(#clip540)" d="M2305.6 1517.37 Q2301.99 1517.37 2300.16 1520.93 Q2298.36 1524.47 2298.36 1531.6 Q2298.36 1538.71 2300.16 1542.27 Q2301.99 1545.82 2305.6 1545.82 Q2309.24 1545.82 2311.04 1542.27 Q2312.87 1538.71 2312.87 1531.6 Q2312.87 1524.47 2311.04 1520.93 Q2309.24 1517.37 2305.6 1517.37 M2305.6 1513.66 Q2311.41 1513.66 2314.47 1518.27 Q2317.55 1522.85 2317.55 1531.6 Q2317.55 1540.33 2314.47 1544.94 Q2311.41 1549.52 2305.6 1549.52 Q2299.79 1549.52 2296.71 1544.94 Q2293.66 1540.33 2293.66 1531.6 Q2293.66 1522.85 2296.71 1518.27 Q2299.79 1513.66 2305.6 1513.66 Z" fill="#000000" fill-rule="nonzero" fill-opacity="1" /><path clip-path="url(#clip540)" d="M2335.76 1517.37 Q2332.15 1517.37 2330.32 1520.93 Q2328.52 1524.47 2328.52 1531.6 Q2328.52 1538.71 2330.32 1542.27 Q2332.15 1545.82 2335.76 1545.82 Q2339.4 1545.82 2341.2 1542.27 Q2343.03 1538.71 2343.03 1531.6 Q2343.03 1524.47 2341.2 1520.93 Q2339.4 1517.37 2335.76 1517.37 M2335.76 1513.66 Q2341.57 1513.66 2344.63 1518.27 Q2347.71 1522.85 2347.71 1531.6 Q2347.71 1540.33 2344.63 1544.94 Q2341.57 1549.52 2335.76 1549.52 Q2329.95 1549.52 2326.87 1544.94 Q2323.82 1540.33 2323.82 1531.6 Q2323.82 1522.85 2326.87 1518.27 Q2329.95 1513.66 2335.76 1513.66 Z" fill="#000000" fill-rule="nonzero" fill-opacity="1" /><polyline clip-path="url(#clip542)" style="stroke:#000000; stroke-linecap:round; stroke-linejoin:round; stroke-width:2; stroke-opacity:0.1; fill:none" points="139.446,1441.51 2352.76,1441.51 "/>
<polyline clip-path="url(#clip542)" style="stroke:#000000; stroke-linecap:round; stroke-linejoin:round; stroke-width:2; stroke-opacity:0.1; fill:none" points="139.446,1019.74 2352.76,1019.74 "/>
<polyline clip-path="url(#clip542)" style="stroke:#000000; stroke-linecap:round; stroke-linejoin:round; stroke-width:2; stroke-opacity:0.1; fill:none" points="139.446,597.962 2352.76,597.962 "/>
<polyline clip-path="url(#clip542)" style="stroke:#000000; stroke-linecap:round; stroke-linejoin:round; stroke-width:2; stroke-opacity:0.1; fill:none" points="139.446,176.186 2352.76,176.186 "/>
<polyline clip-path="url(#clip540)" style="stroke:#000000; stroke-linecap:round; stroke-linejoin:round; stroke-width:4; stroke-opacity:1; fill:none" points="139.446,1486.45 139.446,47.2441 "/>
<polyline clip-path="url(#clip540)" style="stroke:#000000; stroke-linecap:round; stroke-linejoin:round; stroke-width:4; stroke-opacity:1; fill:none" points="139.446,1441.51 158.343,1441.51 "/>
<polyline clip-path="url(#clip540)" style="stroke:#000000; stroke-linecap:round; stroke-linejoin:round; stroke-width:4; stroke-opacity:1; fill:none" points="139.446,1019.74 158.343,1019.74 "/>
<polyline clip-path="url(#clip540)" style="stroke:#000000; stroke-linecap:round; stroke-linejoin:round; stroke-width:4; stroke-opacity:1; fill:none" points="139.446,597.962 158.343,597.962 "/>
<polyline clip-path="url(#clip540)" style="stroke:#000000; stroke-linecap:round; stroke-linejoin:round; stroke-width:4; stroke-opacity:1; fill:none" points="139.446,176.186 158.343,176.186 "/>
<path clip-path="url(#clip540)" d="M53.3764 1454.86 L61.0152 1454.86 L61.0152 1428.49 L52.7051 1430.16 L52.7051 1425.9 L60.9689 1424.23 L65.6448 1424.23 L65.6448 1454.86 L73.2837 1454.86 L73.2837 1458.79 L53.3764 1458.79 L53.3764 1454.86 Z" fill="#000000" fill-rule="nonzero" fill-opacity="1" /><path clip-path="url(#clip540)" d="M83.5382 1454.86 L91.1771 1454.86 L91.1771 1428.49 L82.867 1430.16 L82.867 1425.9 L91.1308 1424.23 L95.8067 1424.23 L95.8067 1454.86 L103.446 1454.86 L103.446 1458.79 L83.5382 1458.79 L83.5382 1454.86 Z" fill="#000000" fill-rule="nonzero" fill-opacity="1" /><path clip-path="url(#clip540)" d="M53.7467 1033.08 L61.3856 1033.08 L61.3856 1006.72 L53.0754 1008.38 L53.0754 1004.13 L61.3393 1002.46 L66.0152 1002.46 L66.0152 1033.08 L73.654 1033.08 L73.654 1037.02 L53.7467 1037.02 L53.7467 1033.08 Z" fill="#000000" fill-rule="nonzero" fill-opacity="1" /><path clip-path="url(#clip540)" d="M87.1262 1033.08 L103.446 1033.08 L103.446 1037.02 L81.5012 1037.02 L81.5012 1033.08 Q84.1632 1030.33 88.7466 1025.7 Q93.353 1021.05 94.5336 1019.7 Q96.7789 1017.18 97.6585 1015.44 Q98.5613 1013.69 98.5613 1012 Q98.5613 1009.24 96.6169 1007.5 Q94.6956 1005.77 91.5938 1005.77 Q89.3947 1005.77 86.941 1006.53 Q84.5105 1007.3 81.7327 1008.85 L81.7327 1004.13 Q84.5568 1002.99 87.0105 1002.41 Q89.4641 1001.83 91.5012 1001.83 Q96.8715 1001.83 100.066 1004.52 Q103.26 1007.2 103.26 1011.69 Q103.26 1013.82 102.45 1015.75 Q101.663 1017.64 99.5567 1020.24 Q98.978 1020.91 95.8761 1024.13 Q92.7743 1027.32 87.1262 1033.08 Z" fill="#000000" fill-rule="nonzero" fill-opacity="1" /><path clip-path="url(#clip540)" d="M52.7977 611.307 L60.4365 611.307 L60.4365 584.942 L52.1264 586.608 L52.1264 582.349 L60.3902 580.682 L65.0661 580.682 L65.0661 611.307 L72.705 611.307 L72.705 615.242 L52.7977 615.242 L52.7977 611.307 Z" fill="#000000" fill-rule="nonzero" fill-opacity="1" /><path clip-path="url(#clip540)" d="M96.316 596.608 Q99.6724 597.326 101.547 599.594 Q103.446 601.863 103.446 605.196 Q103.446 610.312 99.927 613.113 Q96.4085 615.914 89.9271 615.914 Q87.7512 615.914 85.4364 615.474 Q83.1447 615.057 80.691 614.201 L80.691 609.687 Q82.6355 610.821 84.9503 611.4 Q87.2651 611.979 89.7882 611.979 Q94.1863 611.979 96.478 610.242 Q98.7928 608.506 98.7928 605.196 Q98.7928 602.141 96.64 600.428 Q94.5104 598.692 90.691 598.692 L86.6632 598.692 L86.6632 594.849 L90.8762 594.849 Q94.3252 594.849 96.1539 593.483 Q97.9826 592.094 97.9826 589.502 Q97.9826 586.84 96.0845 585.428 Q94.2095 583.993 90.691 583.993 Q88.7697 583.993 86.5706 584.409 Q84.3716 584.826 81.7327 585.706 L81.7327 581.539 Q84.3947 580.798 86.7095 580.428 Q89.0475 580.057 91.1077 580.057 Q96.4317 580.057 99.5335 582.488 Q102.635 584.895 102.635 589.016 Q102.635 591.886 100.992 593.877 Q99.3483 595.844 96.316 596.608 Z" fill="#000000" fill-rule="nonzero" fill-opacity="1" /><path clip-path="url(#clip540)" d="M51.6634 189.531 L59.3023 189.531 L59.3023 163.165 L50.9921 164.832 L50.9921 160.573 L59.256 158.906 L63.9319 158.906 L63.9319 189.531 L71.5707 189.531 L71.5707 193.466 L51.6634 193.466 L51.6634 189.531 Z" fill="#000000" fill-rule="nonzero" fill-opacity="1" /><path clip-path="url(#clip540)" d="M93.8623 162.98 L82.0568 181.429 L93.8623 181.429 L93.8623 162.98 M92.6354 158.906 L98.515 158.906 L98.515 181.429 L103.446 181.429 L103.446 185.318 L98.515 185.318 L98.515 193.466 L93.8623 193.466 L93.8623 185.318 L78.2605 185.318 L78.2605 180.804 L92.6354 158.906 Z" fill="#000000" fill-rule="nonzero" fill-opacity="1" /><polyline clip-path="url(#clip542)" style="stroke:#009af9; stroke-linecap:round; stroke-linejoin:round; stroke-width:4; stroke-opacity:1; fill:none" points="202.086,433.41 202.608,87.9763 203.13,1272.51 203.652,1428.45 204.174,1232.77 204.696,1445.72 205.218,1272.05 205.74,1435.15 206.262,1242.63 206.784,1443.41 207.306,1265.29 207.828,1436.81 208.35,1247.04 208.873,1441.96 209.395,1261.08 209.917,1437.7 210.439,1250.04 210.961,1441.05 211.483,1258.84 212.005,1438.72 212.527,1252.47 213.049,1440.54 213.571,1257.3 214.093,1438.95 214.615,1253.29 215.137,1440.29 215.659,1256.72 216.181,1439.13 216.703,1253.66 217.225,1440.24 217.747,1256.2 218.269,1439.45 218.791,1254.51 219.313,1439.76 219.835,1255.36 220.357,1439.76 220.879,1254.86 221.401,1439.65 221.923,1255.13 222.445,1439.57 222.967,1254.93 223.489,1439.44 224.011,1254.65 224.533,1439.72 225.055,1255.25 225.577,1439.75 226.099,1255.12 226.621,1439.58 227.143,1254.89 227.665,1440.06 228.187,1255.71 228.709,1439.81 229.231,1255.17 229.753,1439.57 230.275,1254.84 230.797,1438.7 231.319,1253.14 231.841,1440.56 232.363,1257.09 232.885,1439.41 233.407,1254.17 233.929,1440.26 234.451,1256.29 234.973,1439.48 235.495,1254.22 236.017,1440.25 236.539,1256.26 237.061,1439.46 237.583,1254.36 238.105,1439.6 238.627,1255.1 239.149,1439.63 239.671,1254.72 240.193,1439.73 240.715,1255.03 241.237,1439.44 241.759,1254.47 242.281,1439.8 242.803,1255.24 243.325,1439.36 243.847,1254.41 244.369,1439.41 244.891,1254.6 245.413,1439.94 245.935,1255.62 246.457,1439.66 246.979,1254.79 247.501,1439.48 248.023,1254.75 248.545,1439.51 249.067,1254.7 249.589,1439.9 250.111,1255.57 250.633,1439.5 251.155,1254.34 251.677,1439.8 252.199,1255.51 252.721,1439.47 253.243,1254.61 253.765,1439.73 254.287,1255.3 254.809,1439.15 255.331,1253.95 255.853,1439.75 256.375,1255.3 256.897,1439.73 257.419,1255.1 257.941,1439.19 258.463,1254.18 258.985,1439.49 259.507,1254.74 260.029,1439.52 260.551,1254.7 261.073,1439.7 261.595,1255.24 262.117,1439.34 262.639,1254.46 263.161,1439.79 263.683,1255.31 264.205,1439.96 264.727,1255.32 265.249,1439.57 265.771,1254.53 266.293,1439.75 266.815,1255.34 267.337,1439.92 267.859,1255.44 268.381,1439.34 268.903,1254.09 269.425,1440.26 269.947,1256.47 270.469,1439.3 270.991,1253.42 271.513,1439.51 272.035,1254.94 272.557,1439.86 273.079,1255.27 273.601,1439.37 274.123,1254.29 274.645,1439.65 275.167,1255.05 275.689,1439.46 276.211,1254.34 276.733,1440.2 277.255,1256.21 277.777,1438.69 278.299,1252.91 278.821,1440.06 279.343,1256.06 279.865,1439.32 280.387,1254.17 280.909,1439.68 281.431,1255.18 281.954,1439.78 282.476,1255.13 282.998,1439.81 283.52,1255.11 284.042,1439.62 284.564,1254.72 285.086,1440.12 285.608,1255.81 286.13,1439.2 286.652,1253.95 287.174,1439.91 287.696,1255.81 288.218,1439.78 288.74,1255.08 289.262,1439.02 289.784,1253.71 290.306,1439.6 290.828,1255.22 291.35,1439.73 291.872,1255.26 292.394,1439.74 292.916,1255.14 293.438,1439.77 293.96,1255.25 294.482,1439.93 295.004,1255.56 295.526,1439.47 296.048,1254.5 296.57,1439.79 297.092,1255.22 297.614,1439.19 298.136,1253.93 298.658,1439.54 299.18,1255.01 299.702,1439.8 300.224,1255.39 300.746,1439.33 301.268,1254.22 301.79,1439.31 302.312,1254.2 302.834,1439.64 303.356,1255.25 303.878,1439.57 304.4,1254.68 304.922,1439.92 305.444,1255.52 305.966,1439.66 306.488,1254.96 307.01,1439.69 307.532,1254.72 308.054,1439.31 308.576,1254.44 309.098,1440.18 309.62,1256.1 310.142,1439.32 310.664,1254.09 311.186,1440.07 311.708,1256.05 312.23,1439.35 312.752,1254.01 313.274,1440.09 313.796,1256.15 314.318,1439.51 314.84,1254.37 315.362,1439.79 315.884,1255.48 316.406,1438.9 316.928,1253.46 317.45,1439.71 317.972,1255.22 318.494,1439.57 319.016,1254.73 319.538,1439.94 320.06,1255.34 320.582,1439.76 321.104,1254.91 321.626,1439.46 322.148,1254.64 322.67,1439.51 323.192,1254.94 323.714,1439.82 324.236,1255.45 324.758,1439.31 325.28,1254.21 325.802,1439.83 326.324,1255.63 326.846,1439.62 327.368,1254.93 327.89,1439.83 328.412,1255.44 328.934,1439.72 329.456,1254.88 329.978,1439.9 330.5,1255.21 331.022,1439.37 331.544,1254.43 332.066,1439.43 332.588,1254.5 333.11,1439.96 333.632,1255.71 334.154,1439.05 334.676,1253.56 335.198,1439.44 335.72,1255 336.242,1439.44 336.764,1254.5 337.286,1439.18 337.808,1254.22 338.33,1440.05 338.852,1255.88 339.374,1439.58 339.896,1254.59 340.418,1439.75 340.94,1255.22 341.462,1439.01 341.984,1253.51 342.506,1440.23 343.028,1256.54 343.55,1439.55 344.072,1254.62 344.594,1439.54 345.116,1254.86 345.638,1439.5 346.16,1254.53 346.682,1440.17 347.204,1255.96 347.726,1439.39 348.248,1254.06 348.77,1439.89 349.292,1255.67 349.814,1439.43 350.336,1254.43 350.858,1439.6 351.38,1254.99 351.902,1439.83 352.424,1255.3 352.946,1439.92 353.468,1255.51 353.99,1439.29 354.512,1254.17 355.035,1439.47 355.557,1254.83 356.079,1439.88 356.601,1255.41 357.123,1439.52 357.645,1254.58 358.167,1440.18 358.689,1255.83 359.211,1439.6 359.733,1254.6 360.255,1439.95 360.777,1255.58 361.299,1439.68 361.821,1254.77 362.343,1439.9 362.865,1255.45 363.387,1439.69 363.909,1255.01 364.431,1439.84 364.953,1255.2 365.475,1439.21 365.997,1253.9 366.519,1439.57 367.041,1254.94 367.563,1439.86 368.085,1255.26 368.607,1439.56 369.129,1254.72 369.651,1439.53 370.173,1254.71 370.695,1439.89 371.217,1255.58 371.739,1439.47 372.261,1254.47 372.783,1440.18 373.305,1256.05 373.827,1439.74 374.349,1254.79 374.871,1439.71 375.393,1255.01 375.915,1439.63 376.437,1254.92 376.959,1439.27 377.481,1254.18 378.003,1440.09 378.525,1255.79 379.047,1439.25 379.569,1253.76 380.091,1439.56 380.613,1255.25 381.135,1439.37 381.657,1254.31 382.179,1439.84 382.701,1255.4 383.223,1439.52 383.745,1254.6 384.267,1439.77 384.789,1255.14 385.311,1439.38 385.833,1254.52 386.355,1439.78 386.877,1255.24 387.399,1439.95 387.921,1255.5 388.443,1439.68 388.965,1254.95 389.487,1439.88 390.009,1255.17 390.531,1439.6 391.053,1254.69 391.575,1439.35 392.097,1254.29 392.619,1439.84 393.141,1255.46 393.663,1439.68 394.185,1254.98 394.707,1439.27 395.229,1254.08 395.751,1439.92 396.273,1255.52 396.795,1439.48 397.317,1254.55 397.839,1439.76 398.361,1255.25 398.883,1439.57 399.405,1254.71 399.927,1439.75 400.449,1254.96 400.971,1440.04 401.493,1255.65 402.015,1439.23 402.537,1254.12 403.059,1440.13 403.581,1255.73 404.103,1439.05 404.625,1253.52 405.147,1440.23 405.669,1256.52 406.191,1439.41 406.713,1254.04 407.235,1440.1 407.757,1256.03 408.279,1439.14 408.801,1253.76 409.323,1439.79 409.845,1255.5 410.367,1439.84 410.889,1255.44 411.411,1439.31 411.933,1254.2 412.455,1440.05 412.977,1255.92 413.499,1439.54 414.021,1254.69 414.543,1439.16 415.065,1253.93 415.587,1439.94 416.109,1255.73 416.631,1438.85 417.153,1253.18 417.675,1440.55 418.197,1257.04 418.719,1439.29 419.241,1253.55 419.763,1440.03 420.285,1256.14 420.807,1439.69 421.329,1254.84 421.851,1439.34 422.373,1254.04 422.895,1439.71 423.417,1255.29 423.939,1439.72 424.461,1255.16 424.983,1439.77 425.505,1255.24 426.027,1439.02 426.549,1253.44 427.071,1439.88 427.594,1255.76 428.116,1439.21 428.638,1253.98 429.16,1439.91 429.682,1255.75 430.204,1439.43 430.726,1254.31 431.248,1439.61 431.77,1255.18 432.292,1439.59 432.814,1254.74 433.336,1439.96 433.858,1255.24 434.38,1439.37 434.902,1254.33 435.424,1439.42 435.946,1254.75 436.468,1439.51 436.99,1254.72 437.512,1439.91 438.034,1255.51 438.556,1439.53 439.078,1254.35 439.6,1439.62 440.122,1255.03 440.644,1439.62 441.166,1254.89 441.688,1439.88 442.21,1255.27 442.732,1439.77 443.254,1255.01 443.776,1439.64 444.298,1254.86 444.82,1439.45 445.342,1254.75 445.864,1439.92 446.386,1255.4 446.908,1439.71 447.43,1255.01 447.952,1439.62 448.474,1254.94 448.996,1439.83 449.518,1255.4 450.04,1438.92 450.562,1253.53 451.084,1439.66 451.606,1255.31 452.128,1439.72 452.65,1255.13 453.172,1439.82 453.694,1255.09 454.216,1439.26 454.738,1253.92 455.26,1440.13 455.782,1256.15 456.304,1439.1 456.826,1253.68 457.348,1439.79 457.87,1255.65 458.392,1439.45 458.914,1254.4 459.436,1439.59 459.958,1255.06 460.48,1439.81 461.002,1255.24 461.524,1439.76 462.046,1255.07 462.568,1439.78 463.09,1255.34 463.612,1439.89 464.134,1255.55 464.656,1439.89 465.178,1255.14 465.7,1439.77 466.222,1255.26 466.744,1439.77 467.266,1255 467.788,1439.64 468.31,1254.88 468.832,1439.68 469.354,1254.94 469.876,1439.63 470.398,1255.05 470.92,1439.4 471.442,1254.57 471.964,1439.74 472.486,1255.32 473.008,1439.37 473.53,1254.2 474.052,1440.23 474.574,1256.36 475.096,1439.24 475.618,1253.89 476.14,1439.92 476.662,1255.88 477.184,1439.4 477.706,1254.15 478.228,1440.09 478.75,1255.86 479.272,1439.43 479.794,1254.09 480.316,1439.69 480.838,1255.27 481.36,1439.98 481.882,1255.32 482.404,1439.92 482.926,1255.48 483.448,1439.32 483.97,1254.07 484.492,1440.1 485.014,1255.96 485.536,1439.76 486.058,1254.88 486.58,1439.84 487.102,1255.48 487.624,1439.13 488.146,1253.66 488.668,1440.18 489.19,1256.45 489.712,1439.41 490.234,1254.19 490.756,1440.08 491.278,1255.83 491.8,1439 492.322,1253.57 492.844,1440.06 493.366,1255.95 493.888,1439.14 494.41,1253.94 494.932,1439.95 495.454,1255.67 495.976,1439.43 496.498,1254.44 497.02,1439.75 497.542,1255.52 498.064,1439.28 498.586,1254.18 499.108,1439.45 499.63,1254.9 500.152,1439.84 500.675,1255.44 501.197,1438.96 501.719,1253.27 502.241,1439.72 502.763,1255.55 503.285,1439.71 503.807,1254.71 504.329,1439.53 504.851,1254.74 505.373,1439.5 505.895,1254.77 506.417,1439.13 506.939,1253.9 507.461,1439.36 507.983,1254.63 508.505,1439.78 509.027,1255.04 509.549,1439.45 510.071,1254.38 510.593,1439.81 511.115,1255.4 511.637,1439.32 512.159,1254.25 512.681,1440.24 513.203,1256.22 513.725,1439.28 514.247,1254 514.769,1439.7 515.291,1255.39 515.813,1439.76 516.335,1254.78 516.857,1439.33 517.379,1254.22 517.901,1439.84 518.423,1255.58 518.945,1439.68 519.467,1254.78 519.989,1439.7 520.511,1255.06 521.033,1439.61 521.555,1254.88 522.077,1439.66 522.599,1255.04 523.121,1439.61 523.643,1254.94 524.165,1439.67 524.687,1254.87 525.209,1439.89 525.731,1255.3 526.253,1439.55 526.775,1254.67 527.297,1440.13 527.819,1255.88 528.341,1439.21 528.863,1253.76 529.385,1440.19 529.907,1256.19 530.429,1438.92 530.951,1253.18 531.473,1440.53 531.995,1257.12 532.517,1438.48 533.039,1252.02 533.561,1440.66 534.083,1257.69 534.605,1438.69 535.127,1252.43 535.649,1440.62 536.171,1257.03 536.693,1439.05 537.215,1253.4 537.737,1439.88 538.259,1255.84 538.781,1439.57 539.303,1254.72 539.825,1440.13 540.347,1255.77 540.869,1438.44 541.391,1252.4 541.913,1440.38 542.435,1256.93 542.957,1439.1 543.479,1253.37 544.001,1440.5 544.523,1256.88 545.045,1439.52 545.567,1254.11 546.089,1439.87 546.611,1255.68 547.133,1439.82 547.655,1255.16 548.177,1439.57 548.699,1254.88 549.221,1439.87 549.743,1255.34 550.265,1439.52 550.787,1254.71 551.309,1439.89 551.831,1255.58 552.353,1439.86 552.875,1255.22 553.397,1439.36 553.919,1254.44 554.441,1439.41 554.963,1254.57 555.485,1439.73 556.007,1255.33 556.529,1439.76 557.051,1254.92 557.573,1439.65 558.095,1255 558.617,1440.03 559.139,1255.63 559.661,1439.49 560.183,1254.28 560.705,1439.86 561.227,1255.4 561.749,1439.48 562.271,1254.77 562.793,1440.09 563.315,1255.84 563.837,1439.58 564.359,1254.68 564.881,1440.1 565.403,1255.98 565.925,1439.13 566.447,1253.91 566.969,1439.75 567.491,1255.36 568.013,1439.52 568.535,1254.67 569.057,1439.7 569.579,1255.29 570.101,1439.12 570.623,1254.1 571.145,1439.88 571.667,1255.64 572.189,1439.44 572.711,1254.48 573.233,1439.59 573.756,1254.93 574.278,1439.66 574.8,1254.94 575.322,1439.24 575.844,1254.26 576.366,1440.22 576.888,1256.28 577.41,1439.27 577.932,1253.94 578.454,1440.13 578.976,1256.09 579.498,1439.75 580.02,1254.69 580.542,1439.9 581.064,1255.59 581.586,1439.47 582.108,1254.44 582.63,1439.99 583.152,1255.72 583.674,1439.26 584.196,1253.88 584.718,1440.35 585.24,1256.48 585.762,1439.61 586.284,1254.47 586.806,1440.02 587.328,1255.52 587.85,1439.68 588.372,1254.9 588.894,1440.05 589.416,1255.74 589.938,1439.8 590.46,1255.14 590.982,1439.79 591.504,1255.17 592.026,1439.39 592.548,1254.42 593.07,1439.82 593.592,1255.25 594.114,1439.77 594.636,1255.03 595.158,1439.65 595.68,1254.78 596.202,1439.86 596.724,1255.58 597.246,1439.63 597.768,1254.99 598.29,1439.84 598.812,1255.25 599.334,1439.39 599.856,1254.26 600.378,1439.67 600.9,1254.99 601.422,1439.44 601.944,1254.55 602.466,1439.78 602.988,1255.18 603.51,1439.55 604.032,1254.9 604.554,1439.65 605.076,1255.05 605.598,1439.41 606.12,1254.56 606.642,1438.79 607.164,1253.34 607.686,1440.49 608.208,1257.01 608.73,1438.88 609.252,1252.92 609.774,1440.49 610.296,1256.61 610.818,1439.34 611.34,1254.17 611.862,1439.88 612.384,1255.5 612.906,1439.49 613.428,1254.51 613.95,1439.58 614.472,1254.91 614.994,1440.07 615.516,1255.62 616.038,1439.28 616.56,1253.98 617.082,1439.72 617.604,1255.38 618.126,1439.38 618.648,1254.05 619.17,1439.88 619.692,1255.77 620.214,1439.58 620.736,1254.83 621.258,1439.07 621.78,1254.01 622.302,1439.94 622.824,1255.56 623.346,1439.5 623.868,1254.36 624.39,1439.46 624.912,1254.51 625.434,1439.57 625.956,1254.94 626.478,1440.06 627,1255.6 627.522,1439.47 628.044,1254.43 628.566,1440.17 629.088,1256.18 629.61,1439.68 630.132,1254.8 630.654,1439.86 631.176,1255.56 631.698,1439.3 632.22,1254.01 632.742,1440.09 633.264,1256.12 633.786,1439.13 634.308,1253.62 634.83,1440.01 635.352,1256.06 635.874,1439.52 636.396,1254.49 636.918,1439.98 637.44,1255.65 637.962,1439.64 638.484,1254.79 639.006,1439.67 639.528,1255.16 640.05,1439.78 640.572,1255.18 641.094,1439.59 641.616,1254.74 642.138,1440.08 642.66,1255.95 643.182,1439.36 643.704,1254.18 644.226,1439.84 644.748,1255.65 645.27,1439.08 645.792,1253.53 646.315,1439.66 646.837,1255.32 647.359,1439.34 647.881,1254.32 648.403,1440.05 648.925,1255.69 649.447,1439.44 649.969,1254.38 650.491,1439.44 651.013,1254.54 651.535,1439.95 652.057,1255.66 652.579,1439.63 653.101,1254.81 653.623,1439.68 654.145,1255.08 654.667,1439.81 655.189,1255.2 655.711,1439.82 656.233,1254.93 656.755,1439.84 657.277,1255.39 657.799,1439.76 658.321,1254.8 658.843,1439.49 659.365,1254.72 659.887,1439.52 660.409,1254.74 660.931,1439.72 661.453,1255.02 661.975,1439.65 662.497,1254.8 663.019,1439.48 663.541,1254.74 664.063,1439.35 664.585,1254.2 665.107,1439.69 665.629,1255.04 666.151,1440.04 666.673,1255.51 667.195,1439.71 667.717,1254.76 668.239,1439.72 668.761,1255.03 669.283,1439.66 669.805,1254.72 670.327,1439.53 670.849,1254.7 671.371,1439.75 671.893,1255 672.415,1439.81 672.937,1255.38 673.459,1439.54 673.981,1254.57 674.503,1440.16 675.025,1255.93 675.547,1438.8 676.069,1252.98 676.591,1440.42 677.113,1256.81 677.635,1439.54 678.157,1254.15 678.679,1439.88 679.201,1255.54 679.723,1439.47 680.245,1254.56 680.767,1439.92 681.289,1255.76 681.811,1439.8 682.333,1255.12 682.855,1439.83 683.377,1255.07 683.899,1439.44 684.421,1254.4 684.943,1440.03 685.465,1255.62 685.987,1439.65 686.509,1254.83 687.031,1439.88 687.553,1255.4 688.075,1439.89 688.597,1255.42 689.119,1439.32 689.641,1254.21 690.163,1440.09 690.685,1255.73 691.207,1439.63 691.729,1254.66 692.251,1439.73 692.773,1255.19 693.295,1439.18 693.817,1254.06 694.339,1439.9 694.861,1255.63 695.383,1439.84 695.905,1255.21 696.427,1439.55 696.949,1254.83 697.471,1439.68 697.993,1255.02 698.515,1439.44 699.037,1254.5 699.559,1439.75 700.081,1255.42 700.603,1439.92 701.125,1255.24 701.647,1439.39 702.169,1254.23 702.691,1439.86 703.213,1255.49 703.735,1439.53 704.257,1254.38 704.779,1440.21 705.301,1256.12 705.823,1438.91 706.345,1253.37 706.867,1439.92 707.389,1255.71 707.911,1439.46 708.433,1254.24 708.955,1439.65 709.477,1255.15 709.999,1439.22 710.521,1253.95 711.043,1440.34 711.565,1256.41 712.087,1439.04 712.609,1253.45 713.131,1440.26 713.653,1256.52 714.175,1439.37 714.697,1254.25 715.219,1440.06 715.741,1255.77 716.263,1439.63 716.785,1254.58 717.307,1439.93 717.829,1255.69 718.351,1439.24 718.873,1254 719.396,1439.9 719.918,1255.76 720.44,1439.24 720.962,1253.88 721.484,1439.59 722.006,1254.91 722.528,1439.85 723.05,1255.38 723.572,1439.33 724.094,1254.25 724.616,1440.21 725.138,1256.37 725.66,1439.44 726.182,1254.22 726.704,1440.25 727.226,1256.24 727.748,1439.64 728.27,1254.83 728.792,1439.88 729.314,1255.39 729.836,1439.74 730.358,1254.9 730.88,1439.29 731.402,1254.15 731.924,1439.9 732.446,1255.46 732.968,1439.47 733.49,1254.68 734.012,1439.73 734.534,1255.14 735.056,1439.8 735.578,1255.14 736.1,1439.95 736.622,1255.71 737.144,1439.6 737.666,1254.87 738.188,1439.27 738.71,1254.29 739.232,1439.63 739.754,1255.12 740.276,1439.6 740.798,1254.83 741.32,1439.7 741.842,1254.98 742.364,1439.82 742.886,1255.38 743.408,1439.95 743.93,1255.2 744.452,1439.99 744.974,1255.39 745.496,1439.35 746.018,1254.14 746.54,1439.89 747.062,1255.52 747.584,1439.29 748.106,1254.15 748.628,1440.24 749.15,1256.42 749.672,1439.25 750.194,1253.74 750.716,1440.21 751.238,1256.15 751.76,1439.08 752.282,1253.75 752.804,1439.79 753.326,1255.54 753.848,1439.35 754.37,1253.85 754.892,1439.76 755.414,1255.42 755.936,1439.93 756.458,1255.2 756.98,1439.78 757.502,1255.11 758.024,1439.2 758.546,1254.14 759.068,1440.25 759.59,1256.39 760.112,1439.06 760.634,1253.39 761.156,1440.44 761.678,1257.07 762.2,1438.67 762.722,1252.52 763.244,1440.15 763.766,1256.44 764.288,1439.62 764.81,1254.53 765.332,1439.97 765.854,1255.61 766.376,1438.91 766.898,1253.14 767.42,1439.97 767.942,1255.99 768.464,1439.36 768.986,1254.1 769.508,1439.52 770.03,1254.78 770.552,1439.13 771.074,1253.85 771.596,1439.97 772.118,1255.76 772.64,1439.8 773.162,1255.1 773.684,1439.79 774.206,1255.24 774.728,1439.77 775.25,1255.05 775.772,1438.82 776.294,1253.43 776.816,1440.07 777.338,1256.18 777.86,1439.1 778.382,1253.63 778.904,1440.24 779.426,1256.28 779.948,1439.07 780.47,1253.55 780.992,1440.43 781.514,1256.83 782.036,1438.55 782.558,1252.27 783.08,1440.61 783.602,1257.4 784.124,1438.97 784.646,1253 785.168,1440.58 785.69,1257.28 786.212,1439.2 786.734,1253.47 787.256,1439.89 787.778,1255.65 788.3,1439.24 788.822,1254.09 789.344,1439.91 789.866,1255.53 790.388,1439.5 790.91,1254.42 791.432,1439.8 791.954,1255.34 792.477,1439.92 792.999,1255.44 793.521,1438.73 794.043,1253.03 794.565,1440.2 795.087,1256.44 795.609,1439.22 796.131,1253.82 796.653,1439.79 797.175,1255.39 797.697,1439.52 798.219,1254.63 798.741,1439.34 799.263,1254.49 799.785,1439.95 800.307,1255.81 800.829,1439.21 801.351,1253.92 801.873,1439.77 802.395,1255.27 802.917,1439.35 803.439,1254.38 803.961,1439.44 804.483,1254.57 805.005,1439.76 805.527,1255.22 806.049,1439.17 806.571,1254.01 807.093,1440.09 807.615,1256.14 808.137,1439.48 808.659,1254.52 809.181,1439.81 809.703,1255.07 810.225,1439.64 810.747,1254.74 811.269,1440.09 811.791,1255.89 812.313,1439.37 812.835,1254.25 813.357,1439.65 813.879,1255.13 814.401,1440.01 814.923,1255.48 815.445,1439.69 815.967,1254.92 816.489,1439.85 817.011,1255.35 817.533,1439.89 818.055,1255.56 818.577,1439.25 819.099,1254.2 819.621,1440.25 820.143,1256.27 820.665,1439.1 821.187,1253.47 821.709,1440.49 822.231,1256.74 822.753,1439.54 823.275,1254.28 823.797,1439.84 824.319,1255.48 824.841,1439.29 825.363,1254.2 825.885,1440.05 826.407,1255.93 826.929,1439.15 827.451,1253.93 827.973,1439.94 828.495,1255.73 829.017,1438.66 829.539,1252.78 830.061,1440.46 830.583,1257.03 831.105,1438.5 831.627,1252.08 832.149,1440.25 832.671,1256.9 833.193,1438.7 833.715,1252.69 834.237,1440.47 834.759,1257.16 835.281,1439.04 835.803,1253.18 836.325,1439.77 836.847,1255.55 837.369,1438.72 837.891,1252.87 838.413,1440.45 838.935,1256.9 839.457,1438.71 839.979,1252.67 840.501,1440.47 841.023,1257.19 841.545,1439.06 842.067,1253.03 842.589,1440.39 843.111,1256.81 843.633,1438.93 844.155,1253.13 844.677,1440.18 845.199,1256.3 845.721,1439.27 846.243,1253.89 846.765,1439.95 847.287,1255.76 847.809,1439.63 848.331,1254.63 848.853,1439.94 849.375,1255.57 849.897,1439.25 850.419,1254.22 850.941,1439.87 851.463,1255.47 851.985,1439.12 852.507,1253.76 853.029,1440.35 853.551,1256.72 854.073,1438.94 854.595,1253.25 855.117,1440.13 855.639,1256.27 856.161,1439.07 856.683,1253.6 857.205,1439.46 857.727,1254.8 858.249,1439.09 858.771,1253.98 859.293,1439.76 859.815,1255.19 860.337,1439.56 860.859,1254.86 861.381,1439.86 861.903,1255.43 862.425,1439.49 862.947,1254.67 863.469,1439.9 863.991,1255.61 864.513,1439.66 865.036,1254.79 865.558,1439.7 866.08,1255.03 866.602,1439.43 867.124,1254.53 867.646,1439.59 868.168,1254.85 868.69,1439.7 869.212,1254.93 869.734,1439.46 870.256,1254.57 870.778,1439.93 871.3,1255.72 871.822,1439.44 872.344,1254.31 872.866,1439.25 873.388,1254.28 873.91,1439.68 874.432,1254.92 874.954,1439.86 875.476,1255.3 875.998,1439.55 876.52,1254.66 877.042,1439.94 877.564,1255.49 878.086,1439.49 878.608,1254.54 879.13,1439.17 879.652,1254.18 880.174,1439.85 880.696,1255.59 881.218,1439.7 881.74,1254.67 882.262,1439.72 882.784,1255.21 883.306,1438.97 883.828,1253.7 884.35,1440.03 884.872,1255.81 885.394,1439.39 885.916,1254.35 886.438,1439.99 886.96,1255.88 887.482,1439.56 888.004,1254.69 888.526,1439.57 889.048,1254.58 889.57,1439.96 890.092,1255.58 890.614,1439.49 891.136,1254.36 891.658,1439.62 892.18,1255.01 892.702,1439.99 893.224,1255.78 893.746,1439.6 894.268,1254.71 894.79,1439.9 895.312,1255.56 895.834,1439.32 896.356,1253.93 896.878,1439.93 897.4,1255.8 897.922,1439.42 898.444,1254.22 898.966,1439.84 899.488,1255.57 900.01,1439.86 900.532,1255.24 901.054,1439.95 901.576,1255.49 902.098,1439.31 902.62,1254.1 903.142,1439.9 903.664,1255.55 904.186,1439.87 904.708,1255.25 905.23,1439.83 905.752,1254.79 906.274,1439.1 906.796,1253.95 907.318,1440.15 907.84,1256.02 908.362,1439.35 908.884,1254.08 909.406,1440.06 909.928,1256.11 910.45,1439.55 910.972,1254.25 911.494,1439.24 912.016,1254.44 912.538,1439.83 913.06,1255.2 913.582,1439.4 914.104,1254.29 914.626,1439.81 915.148,1255.58 915.67,1439.87 916.192,1255.18 916.714,1439.55 917.236,1254.92 917.758,1439.66 918.28,1254.94 918.802,1439.65 919.324,1254.94 919.846,1439.64 920.368,1255 920.89,1439.63 921.412,1254.92 921.934,1439.1 922.456,1253.69 922.978,1440.21 923.5,1256.26 924.022,1439.65 924.544,1254.77 925.066,1439.87 925.588,1255.55 926.11,1439.07 926.632,1253.8 927.154,1440.37 927.676,1256.58 928.198,1439 928.72,1253.27 929.242,1440.35 929.764,1256.5 930.286,1439.39 930.808,1254.17 931.33,1439.89 931.852,1255.45 932.374,1438.89 932.896,1253.56 933.418,1440.27 933.94,1256.26 934.462,1439.65 934.984,1254.76 935.506,1439.89 936.028,1255.5 936.55,1439.68 937.072,1254.94 937.594,1439.82 938.117,1255.43 938.639,1439.68 939.161,1255.09 939.683,1439.42 940.205,1254.43 940.727,1440.01 941.249,1255.66 941.771,1439.81 942.293,1255.26 942.815,1439.38 943.337,1254.24 943.859,1440.03 944.381,1255.94 944.903,1439.35 945.425,1254.23 945.947,1439.81 946.469,1255.67 946.991,1439.05 947.513,1253.65 948.035,1440.22 948.557,1256.29 949.079,1439.46 949.601,1254.29 950.123,1440.06 950.645,1255.69 951.167,1439.82 951.689,1255.17 952.211,1439.04 952.733,1253.49 953.255,1440.24 953.777,1256.56 954.299,1439.37 954.821,1254.14 955.343,1439.85 955.865,1255.69 956.387,1439.65 956.909,1254.67 957.431,1440.1 957.953,1255.98 958.475,1439.73 958.997,1254.95 959.519,1439.84 960.041,1255.32 960.563,1439.56 961.085,1254.59 961.607,1438.98 962.129,1253.68 962.651,1439.84 963.173,1255.45 963.695,1439.68 964.217,1255.03 964.739,1439.82 965.261,1255.29 965.783,1439.92 966.305,1255.54 966.827,1438.91 967.349,1253.32 967.871,1440.5 968.393,1256.99 968.915,1438.48 969.437,1252.25 969.959,1440.79 970.481,1257.88 971.003,1439.02 971.525,1253.06 972.047,1439.97 972.569,1256.14 973.091,1439.7 973.613,1254.8 974.135,1439.67 974.657,1255.16 975.179,1438.8 975.701,1253.29 976.223,1439.7 976.745,1255.63 977.267,1439.48 977.789,1254.31 978.311,1439.84 978.833,1255.39 979.355,1439.87 979.877,1255.52 980.399,1439.65 980.921,1254.99 981.443,1439.63 981.965,1254.95 982.487,1439.44 983.009,1254.62 983.531,1439.56 984.053,1254.75 984.575,1439.33 985.097,1254.28 985.619,1439.63 986.141,1255.15 986.663,1439.82 987.185,1255.03 987.707,1439.46 988.229,1254.38 988.751,1440.01 989.273,1255.77 989.795,1439.21 990.317,1253.98 990.839,1440.12 991.361,1256.09 991.883,1439.14 992.405,1253.65 992.927,1440.22 993.449,1256.32 993.971,1439.44 994.493,1254.31 995.015,1440.03 995.537,1255.79 996.059,1438.82 996.581,1253.16 997.103,1440.33 997.625,1256.82 998.147,1438.98 998.669,1252.9 999.191,1440.61 999.713,1257.35 1000.24,1439.17 1000.76,1253.44 1001.28,1440.08 1001.8,1256.12 1002.32,1439.16 1002.85,1253.5 1003.37,1440.04 1003.89,1256.19 1004.41,1439.31 1004.93,1253.92 1005.46,1439.77 1005.98,1255.28 1006.5,1438.77 1007.02,1253.2 1007.54,1440.34 1008.07,1256.68 1008.59,1438.94 1009.11,1253.33 1009.63,1440.3 1010.15,1256.59 1010.68,1439.61 1011.2,1254.27 1011.72,1439.85 1012.24,1255.46 1012.76,1439.91 1013.29,1255.25 1013.81,1439.37 1014.33,1254.35 1014.85,1440.19 1015.37,1256.27 1015.9,1439.46 1016.42,1254.34 1016.94,1439.43 1017.46,1254.68 1017.98,1439.93 1018.51,1255.49 1019.03,1439.47 1019.55,1254.63 1020.07,1440.15 1020.59,1255.82 1021.12,1439.59 1021.64,1254.66 1022.16,1439.54 1022.68,1254.79 1023.2,1440.06 1023.73,1255.91 1024.25,1439.79 1024.77,1254.85 1025.29,1439.08 1025.81,1253.96 1026.34,1439.71 1026.86,1255.46 1027.38,1439.69 1027.9,1254.98 1028.42,1439.47 1028.95,1254.43 1029.47,1440.2 1029.99,1256.03 1030.51,1439.7 1031.03,1254.99 1031.56,1439.46 1032.08,1254.46 1032.6,1439.8 1033.12,1255.27 1033.64,1439.35 1034.17,1254.34 1034.69,1440.01 1035.21,1255.83 1035.73,1439.19 1036.25,1253.97 1036.78,1440.32 1037.3,1256.45 1037.82,1439.6 1038.34,1254.6 1038.86,1439.92 1039.39,1255.72 1039.91,1439.62 1040.43,1254.74 1040.95,1439.91 1041.47,1255.47 1042,1439.47 1042.52,1254.67 1043.04,1439.93 1043.56,1255.51 1044.08,1439.68 1044.61,1254.92 1045.13,1439.43 1045.65,1254.72 1046.17,1439.13 1046.69,1253.96 1047.22,1439.36 1047.74,1254.51 1048.26,1439.62 1048.78,1254.71 1049.3,1439.9 1049.83,1255.54 1050.35,1439.29 1050.87,1254.07 1051.39,1440.09 1051.91,1256.02 1052.44,1439.53 1052.96,1254.56 1053.48,1439.78 1054,1255.15 1054.52,1438.82 1055.05,1253.23 1055.57,1440.15 1056.09,1256.25 1056.61,1439.08 1057.13,1253.61 1057.66,1439.64 1058.18,1255.23 1058.7,1439.6 1059.22,1254.59 1059.74,1439.56 1060.27,1254.81 1060.79,1439.29 1061.31,1254.33 1061.83,1439.82 1062.35,1255.45 1062.88,1439.7 1063.4,1254.95 1063.92,1439.43 1064.44,1254.67 1064.96,1439.97 1065.49,1255.34 1066.01,1439.16 1066.53,1253.81 1067.05,1439.99 1067.57,1255.78 1068.1,1439.63 1068.62,1254.6 1069.14,1439.95 1069.66,1255.54 1070.18,1438.89 1070.71,1253.38 1071.23,1440.26 1071.75,1256.66 1072.27,1439.16 1072.79,1253.64 1073.32,1440.23 1073.84,1256.27 1074.36,1439.28 1074.88,1253.91 1075.4,1439.78 1075.93,1255.26 1076.45,1439.02 1076.97,1253.39 1077.49,1440.07 1078.01,1256.25 1078.54,1439.28 1079.06,1253.95 1079.58,1440.14 1080.1,1256.03 1080.62,1439.31 1081.15,1254.24 1081.67,1439.84 1082.19,1255.52 1082.71,1439.07 1083.23,1253.87 1083.76,1439.54 1084.28,1255.15 1084.8,1439.8 1085.32,1255.12 1085.84,1439.44 1086.37,1254.29 1086.89,1440.03 1087.41,1255.87 1087.93,1438.41 1088.45,1252.36 1088.98,1440.44 1089.5,1256.75 1090.02,1439.37 1090.54,1253.78 1091.06,1439.99 1091.59,1255.82 1092.11,1439.21 1092.63,1253.88 1093.15,1440.32 1093.67,1256.61 1094.2,1438.98 1094.72,1253.29 1095.24,1440.11 1095.76,1256.3 1096.28,1439.5 1096.81,1254.12 1097.33,1439.7 1097.85,1255.18 1098.37,1439.18 1098.89,1254.06 1099.42,1439.71 1099.94,1255.22 1100.46,1439.58 1100.98,1254.7 1101.5,1440.12 1102.03,1255.83 1102.55,1439.77 1103.07,1255.09 1103.59,1439.61 1104.11,1254.83 1104.64,1440.06 1105.16,1255.87 1105.68,1438.6 1106.2,1252.73 1106.72,1440.09 1107.25,1256.28 1107.77,1439.47 1108.29,1254.3 1108.81,1440.03 1109.33,1255.8 1109.86,1439.41 1110.38,1254.29 1110.9,1439.43 1111.42,1254.77 1111.94,1439.74 1112.47,1254.92 1112.99,1439.32 1113.51,1254 1114.03,1439.94 1114.55,1255.58 1115.08,1438.7 1115.6,1252.9 1116.12,1440.22 1116.64,1256.61 1117.16,1438.98 1117.69,1253.31 1118.21,1440.11 1118.73,1256.26 1119.25,1439.31 1119.77,1253.79 1120.3,1440.18 1120.82,1256.2 1121.34,1439.69 1121.86,1254.72 1122.39,1439.94 1122.91,1255.37 1123.43,1439.74 1123.95,1254.94 1124.47,1439.63 1125,1255.06 1125.52,1439.67 1126.04,1254.64 1126.56,1439.56 1127.08,1254.71 1127.61,1439.7 1128.13,1255.18 1128.65,1439.42 1129.17,1254.24 1129.69,1440.05 1130.22,1255.85 1130.74,1439.2 1131.26,1253.87 1131.78,1440.17 1132.3,1256.08 1132.83,1439.76 1133.35,1254.62 1133.87,1439.74 1134.39,1255.22 1134.91,1439.59 1135.44,1254.65 1135.96,1439.74 1136.48,1255.16 1137,1439.2 1137.52,1254.03 1138.05,1439.93 1138.57,1255.55 1139.09,1439.29 1139.61,1254.08 1140.13,1440.07 1140.66,1256.07 1141.18,1439.36 1141.7,1253.94 1142.22,1439.76 1142.74,1255.29 1143.27,1439.75 1143.79,1255.03 1144.31,1439.64 1144.83,1254.8 1145.35,1439.53 1145.88,1254.55 1146.4,1439.96 1146.92,1255.65 1147.44,1439.45 1147.96,1254.41 1148.49,1440.04 1149.01,1255.55 1149.53,1439.67 1150.05,1254.88 1150.57,1439.69 1151.1,1254.9 1151.62,1440.03 1152.14,1255.82 1152.66,1439.6 1153.18,1254.64 1153.71,1439.73 1154.23,1255.24 1154.75,1439.38 1155.27,1254.31 1155.79,1439.82 1156.32,1255.47 1156.84,1439.48 1157.36,1254.62 1157.88,1439.98 1158.4,1255.39 1158.93,1439.7 1159.45,1255.06 1159.97,1439.6 1160.49,1254.91 1161.01,1439.64 1161.54,1255.04 1162.06,1439.26 1162.58,1254.01 1163.1,1439.52 1163.62,1254.93 1164.15,1439.63 1164.67,1255.05 1165.19,1440.01 1165.71,1255.63 1166.23,1439.43 1166.76,1254.52 1167.28,1439.81 1167.8,1255.13 1168.32,1439.78 1168.84,1255.23 1169.37,1439.99 1169.89,1255.37 1170.41,1439.33 1170.93,1254.25 1171.45,1440.21 1171.98,1256.35 1172.5,1439.45 1173.02,1254.22 1173.54,1439.31 1174.06,1254.18 1174.59,1439.87 1175.11,1255.53 1175.63,1439.66 1176.15,1254.96 1176.67,1439.63 1177.2,1255 1177.72,1439.84 1178.24,1255.25 1178.76,1439.75 1179.28,1255.15 1179.81,1439.03 1180.33,1253.55 1180.85,1440.04 1181.37,1256.09 1181.89,1439.17 1182.42,1253.51 1182.94,1440.26 1183.46,1256.4 1183.98,1439.66 1184.5,1254.41 1185.03,1439.59 1185.55,1255.07 1186.07,1439.63 1186.59,1254.79 1187.11,1439.67 1187.64,1255.15 1188.16,1439.62 1188.68,1254.68 1189.2,1439.52 1189.72,1254.81 1190.25,1440.06 1190.77,1255.89 1191.29,1439.76 1191.81,1255.02 1192.33,1439.84 1192.86,1255.19 1193.38,1439.78 1193.9,1255.09 1194.42,1439.4 1194.94,1254.5 1195.47,1439.77 1195.99,1255.31 1196.51,1439.75 1197.03,1255.01 1197.55,1439.44 1198.08,1254.51 1198.6,1439.39 1199.12,1254.51 1199.64,1439.96 1200.16,1255.67 1200.69,1439.84 1201.21,1255.12 1201.73,1439.6 1202.25,1254.8 1202.77,1439.49 1203.3,1254.69 1203.82,1439.76 1204.34,1255 1204.86,1439.45 1205.38,1254.5 1205.91,1439.36 1206.43,1254.66 1206.95,1439.95 1207.47,1255.42 1207.99,1439.37 1208.52,1254.01 1209.04,1440.15 1209.56,1255.88 1210.08,1439.01 1210.6,1253.38 1211.13,1440.12 1211.65,1256.08 1212.17,1439.5 1212.69,1254.54 1213.21,1439.98 1213.74,1255.55 1214.26,1438.91 1214.78,1253.29 1215.3,1440.14 1215.82,1256.15 1216.35,1439.15 1216.87,1253.48 1217.39,1439.9 1217.91,1255.62 1218.43,1439.64 1218.96,1254.85 1219.48,1439.49 1220,1254.6 1220.52,1439.72 1221.04,1255.32 1221.57,1439.72 1222.09,1255.1 1222.61,1439.65 1223.13,1254.62 1223.65,1439.76 1224.18,1255.15 1224.7,1440 1225.22,1255.47 1225.74,1439.27 1226.26,1254.32 1226.79,1440.05 1227.31,1255.68 1227.83,1439.43 1228.35,1254.43 1228.87,1440.21 1229.4,1256.02 1229.92,1439.17 1230.44,1253.64 1230.96,1440.02 1231.48,1255.97 1232.01,1439.57 1232.53,1254.48 1233.05,1439.79 1233.57,1255.29 1234.09,1439.53 1234.62,1254.76 1235.14,1439.92 1235.66,1255.38 1236.18,1439.34 1236.7,1254.18 1237.23,1440.08 1237.75,1255.85 1238.27,1439.58 1238.79,1254.64 1239.31,1439.91 1239.84,1255.63 1240.36,1438.84 1240.88,1253.42 1241.4,1439.86 1241.92,1255.9 1242.45,1438.8 1242.97,1253.03 1243.49,1439.82 1244.01,1255.62 1244.53,1439.3 1245.06,1253.9 1245.58,1440.14 1246.1,1256.15 1246.62,1439.27 1247.14,1254.2 1247.67,1439.87 1248.19,1255.51 1248.71,1439.49 1249.23,1254.53 1249.75,1439.81 1250.28,1255.1 1250.8,1439.6 1251.32,1254.85 1251.84,1439.49 1252.36,1254.61 1252.89,1439.18 1253.41,1254 1253.93,1440.29 1254.45,1256.52 1254.97,1439.18 1255.5,1253.83 1256.02,1439.78 1256.54,1255.39 1257.06,1439.89 1257.58,1255.46 1258.11,1439.32 1258.63,1254.1 1259.15,1439.72 1259.67,1255.14 1260.19,1439.81 1260.72,1255.1 1261.24,1439.63 1261.76,1254.72 1262.28,1439.92 1262.8,1255.46 1263.33,1439.7 1263.85,1254.92 1264.37,1438.27 1264.89,1252.42 1265.41,1440.58 1265.94,1257.26 1266.46,1439.02 1266.98,1253.07 1267.5,1440.37 1268.03,1256.83 1268.55,1438.15 1269.07,1251.54 1269.59,1440.97 1270.11,1258.53 1270.64,1438.85 1271.16,1252.51 1271.68,1440.56 1272.2,1257.14 1272.72,1438.83 1273.25,1252.88 1273.77,1440.05 1274.29,1256.14 1274.81,1439.35 1275.33,1253.87 1275.86,1439.96 1276.38,1255.77 1276.9,1439.86 1277.42,1254.84 1277.94,1439.68 1278.47,1255.02 1278.99,1439.25 1279.51,1254.09 1280.03,1440.1 1280.55,1255.95 1281.08,1439.56 1281.6,1254.54 1282.12,1439.56 1282.64,1254.91 1283.16,1439.65 1283.69,1255.01 1284.21,1439.44 1284.73,1254.51 1285.25,1439.2 1285.77,1254.1 1286.3,1439.88 1286.82,1255.65 1287.34,1439.43 1287.86,1254.49 1288.38,1439.57 1288.91,1254.97 1289.43,1439.47 1289.95,1254.47 1290.47,1439.54 1290.99,1255.16 1291.52,1439.42 1292.04,1254.28 1292.56,1439.64 1293.08,1255.11 1293.6,1439.59 1294.13,1254.86 1294.65,1439.7 1295.17,1254.91 1295.69,1439.28 1296.21,1254.18 1296.74,1439.5 1297.26,1254.66 1297.78,1439.7 1298.3,1255.32 1298.82,1439.52 1299.35,1254.74 1299.87,1440.12 1300.39,1255.77 1300.91,1439.41 1301.43,1254.32 1301.96,1440.27 1302.48,1255.96 1303,1439.58 1303.52,1254.44 1304.04,1439.98 1304.57,1255.73 1305.09,1439.21 1305.61,1254.03 1306.13,1439.91 1306.65,1255.65 1307.18,1439.89 1307.7,1254.94 1308.22,1439.66 1308.74,1254.89 1309.26,1439.29 1309.79,1254.17 1310.31,1440.1 1310.83,1255.78 1311.35,1439.44 1311.87,1254.19 1312.4,1440.24 1312.92,1256.35 1313.44,1439.25 1313.96,1253.86 1314.48,1439.99 1315.01,1255.67 1315.53,1439.64 1316.05,1254.76 1316.57,1439.69 1317.09,1255.16 1317.62,1439.61 1318.14,1254.66 1318.66,1440.15 1319.18,1255.78 1319.7,1439 1320.23,1253.63 1320.75,1439.84 1321.27,1255.54 1321.79,1439.11 1322.31,1253.63 1322.84,1439.85 1323.36,1255.52 1323.88,1439.88 1324.4,1255.21 1324.92,1439.56 1325.45,1254.8 1325.97,1439.29 1326.49,1254.35 1327.01,1439.63 1327.53,1255.03 1328.06,1439.81 1328.58,1255.3 1329.1,1439.77 1329.62,1254.94 1330.14,1439.84 1330.67,1255.37 1331.19,1439.57 1331.71,1254.45 1332.23,1440.01 1332.75,1255.61 1333.28,1439.48 1333.8,1254.34 1334.32,1440.02 1334.84,1255.8 1335.36,1439.59 1335.89,1254.72 1336.41,1439.91 1336.93,1255.49 1337.45,1439.52 1337.97,1254.39 1338.5,1439.61 1339.02,1255 1339.54,1439.66 1340.06,1254.78 1340.58,1439.7 1341.11,1255.08 1341.63,1439.81 1342.15,1255.2 1342.67,1439.79 1343.19,1255.06 1343.72,1439.04 1344.24,1253.7 1344.76,1440.21 1345.28,1256.26 1345.8,1439.28 1346.33,1253.9 1346.85,1439.77 1347.37,1255.29 1347.89,1439.73 1348.41,1255.13 1348.94,1440 1349.46,1255.48 1349.98,1439.5 1350.5,1254.54 1351.02,1439.35 1351.55,1254.61 1352.07,1439.76 1352.59,1255.12 1353.11,1439.6 1353.63,1254.82 1354.16,1439.49 1354.68,1254.67 1355.2,1439.56 1355.72,1254.66 1356.24,1440.13 1356.77,1255.87 1357.29,1439.59 1357.81,1254.6 1358.33,1439.34 1358.85,1254.55 1359.38,1439.38 1359.9,1254.46 1360.42,1439.61 1360.94,1254.87 1361.46,1439.08 1361.99,1253.92 1362.51,1439.94 1363.03,1255.73 1363.55,1439.62 1364.07,1254.71 1364.6,1439.75 1365.12,1254.97 1365.64,1440.03 1366.16,1255.69 1366.68,1439.62 1367.21,1254.79 1367.73,1440.1 1368.25,1255.76 1368.77,1439.26 1369.29,1253.79 1369.82,1440.19 1370.34,1256.14 1370.86,1438.74 1371.38,1252.82 1371.9,1440.69 1372.43,1257.17 1372.95,1439.23 1373.47,1253.55 1373.99,1440.08 1374.51,1255.88 1375.04,1439.19 1375.56,1253.83 1376.08,1439.41 1376.6,1254.54 1377.12,1439.58 1377.65,1254.84 1378.17,1440.08 1378.69,1255.73 1379.21,1438.84 1379.73,1253.21 1380.26,1440.36 1380.78,1256.58 1381.3,1438.4 1381.82,1252.21 1382.34,1440.64 1382.87,1257.41 1383.39,1438.55 1383.91,1252.36 1384.43,1440.41 1384.95,1256.9 1385.48,1438.7 1386,1252.72 1386.52,1439.69 1387.04,1255.57 1387.56,1439.46 1388.09,1254.51 1388.61,1439.38 1389.13,1254.52 1389.65,1440.15 1390.17,1256.05 1390.7,1439.53 1391.22,1254.45 1391.74,1439.44 1392.26,1254.41 1392.78,1439.81 1393.31,1255.32 1393.83,1439.36 1394.35,1254.26 1394.87,1439.66 1395.39,1255.06 1395.92,1439.61 1396.44,1254.89 1396.96,1439.65 1397.48,1255.05 1398,1439.67 1398.53,1254.64 1399.05,1439.76 1399.57,1255.07 1400.09,1440.02 1400.61,1255.55 1401.14,1438.9 1401.66,1253.31 1402.18,1439.92 1402.7,1255.86 1403.22,1439.4 1403.75,1254.18 1404.27,1440.25 1404.79,1256.31 1405.31,1438.1 1405.83,1251.56 1406.36,1440.79 1406.88,1258.06 1407.4,1438.79 1407.92,1252.45 1408.44,1440.55 1408.97,1257.3 1409.49,1438.96 1410.01,1253.22 1410.53,1439.74 1411.05,1255.58 1411.58,1439.88 1412.1,1255.12 1412.62,1439.41 1413.14,1254.41 1413.67,1439.8 1414.19,1255.38 1414.71,1439.53 1415.23,1254.61 1415.75,1438.97 1416.28,1253.69 1416.8,1440.23 1417.32,1256.17 1417.84,1438.74 1418.36,1252.77 1418.89,1440.44 1419.41,1257.15 1419.93,1439.21 1420.45,1253.67 1420.97,1439.83 1421.5,1255.51 1422.02,1439.33 1422.54,1253.98 1423.06,1439.93 1423.58,1255.68 1424.11,1439.7 1424.63,1254.49 1425.15,1440 1425.67,1255.59 1426.19,1439.48 1426.72,1254.38 1427.24,1439.8 1427.76,1255.44 1428.28,1439.49 1428.8,1254.65 1429.33,1439.34 1429.85,1254.45 1430.37,1440 1430.89,1255.62 1431.41,1439.48 1431.94,1254.32 1432.46,1439.84 1432.98,1255.39 1433.5,1439.36 1434.02,1254.08 1434.55,1439.91 1435.07,1255.58 1435.59,1439.46 1436.11,1254.52 1436.63,1440 1437.16,1255.52 1437.68,1439.66 1438.2,1254.98 1438.72,1439.44 1439.24,1254.57 1439.77,1439.91 1440.29,1255.8 1440.81,1439.39 1441.33,1254.35 1441.85,1440.05 1442.38,1255.61 1442.9,1439.31 1443.42,1253.87 1443.94,1439.91 1444.46,1255.99 1444.99,1439.37 1445.51,1254.05 1446.03,1440.1 1446.55,1256 1447.07,1439.36 1447.6,1254.1 1448.12,1440.06 1448.64,1256.1 1449.16,1439.32 1449.68,1254.07 1450.21,1439.91 1450.73,1255.59 1451.25,1439.25 1451.77,1254.18 1452.29,1440.07 1452.82,1255.89 1453.34,1439.57 1453.86,1254.61 1454.38,1439.77 1454.9,1255.08 1455.43,1439.42 1455.95,1254.44 1456.47,1439.59 1456.99,1254.99 1457.51,1440.03 1458.04,1255.64 1458.56,1439.88 1459.08,1255.02 1459.6,1439.83 1460.12,1255.24 1460.65,1439.54 1461.17,1254.83 1461.69,1439.87 1462.21,1255.46 1462.73,1439.15 1463.26,1253.62 1463.78,1440.02 1464.3,1256 1464.82,1439.74 1465.34,1254.91 1465.87,1439.48 1466.39,1254.52 1466.91,1439.97 1467.43,1255.61 1467.95,1439.48 1468.48,1254.33 1469,1439.44 1469.52,1254.67 1470.04,1439.92 1470.56,1255.54 1471.09,1438.93 1471.61,1253.2 1472.13,1440.53 1472.65,1257.1 1473.17,1439.23 1473.7,1253.69 1474.22,1439.63 1474.74,1255.12 1475.26,1439.82 1475.78,1255.09 1476.31,1440.03 1476.83,1255.44 1477.35,1439.48 1477.87,1254.67 1478.39,1439.75 1478.92,1255.07 1479.44,1439.59 1479.96,1254.97 1480.48,1439.43 1481,1254.63 1481.53,1440.16 1482.05,1255.81 1482.57,1439.79 1483.09,1255.03 1483.61,1440.03 1484.14,1255.6 1484.66,1439.68 1485.18,1254.73 1485.7,1439.32 1486.22,1254.34 1486.75,1440.01 1487.27,1255.82 1487.79,1439.4 1488.31,1254.27 1488.83,1439.64 1489.36,1255.12 1489.88,1439.41 1490.4,1254.41 1490.92,1439.84 1491.44,1255.2 1491.97,1439.58 1492.49,1254.75 1493.01,1439.91 1493.53,1255.42 1494.05,1439.54 1494.58,1254.49 1495.1,1439.96 1495.62,1255.74 1496.14,1439.6 1496.66,1254.81 1497.19,1439.1 1497.71,1253.92 1498.23,1440.15 1498.75,1256.06 1499.27,1439.53 1499.8,1254.44 1500.32,1439.39 1500.84,1254.64 1501.36,1439.95 1501.88,1255.5 1502.41,1439.86 1502.93,1255.37 1503.45,1439.92 1503.97,1255.37 1504.49,1439.72 1505.02,1255.03 1505.54,1439.41 1506.06,1254.6 1506.58,1439.96 1507.1,1255.52 1507.63,1439.53 1508.15,1254.31 1508.67,1439.84 1509.19,1255.39 1509.71,1439.56 1510.24,1254.46 1510.76,1439.18 1511.28,1254.27 1511.8,1440.07 1512.32,1255.68 1512.85,1439.43 1513.37,1254.44 1513.89,1439.64 1514.41,1254.78 1514.93,1439.68 1515.46,1255.14 1515.98,1439.82 1516.5,1255.04 1517.02,1439.26 1517.54,1253.99 1518.07,1439.71 1518.59,1255.38 1519.11,1439.56 1519.63,1254.48 1520.15,1439.2 1520.68,1254.15 1521.2,1439.83 1521.72,1255.76 1522.24,1439.43 1522.76,1254.28 1523.29,1440.04 1523.81,1255.8 1524.33,1438.82 1524.85,1253.14 1525.37,1440.16 1525.9,1256.37 1526.42,1438.89 1526.94,1252.92 1527.46,1440.26 1527.98,1256.39 1528.51,1439.44 1529.03,1254.2 1529.55,1439.89 1530.07,1255.4 1530.59,1439.51 1531.12,1254.64 1531.64,1439.95 1532.16,1255.47 1532.68,1439.1 1533.2,1253.82 1533.73,1439.76 1534.25,1255.51 1534.77,1439.7 1535.29,1254.82 1535.81,1439.88 1536.34,1255.41 1536.86,1438.95 1537.38,1253.36 1537.9,1439.93 1538.42,1255.72 1538.95,1439.24 1539.47,1253.97 1539.99,1439.95 1540.51,1255.61 1541.03,1439.27 1541.56,1254.06 1542.08,1440.28 1542.6,1256.45 1543.12,1438.89 1543.64,1252.78 1544.17,1440.69 1544.69,1257.22 1545.21,1439.2 1545.73,1253.6 1546.25,1440.23 1546.78,1256.36 1547.3,1439.47 1547.82,1254.1 1548.34,1439.89 1548.86,1255.6 1549.39,1438.88 1549.91,1253.31 1550.43,1440.11 1550.95,1256.25 1551.47,1439.5 1552,1254.21 1552.52,1440.06 1553.04,1255.86 1553.56,1439.78 1554.08,1255.01 1554.61,1439.29 1555.13,1253.94 1555.65,1439.72 1556.17,1255.45 1556.69,1439.65 1557.22,1255.15 1557.74,1439.61 1558.26,1254.7 1558.78,1439.94 1559.31,1255.4 1559.83,1439.13 1560.35,1253.83 1560.87,1440.19 1561.39,1256.06 1561.92,1439.54 1562.44,1254.44 1562.96,1439.64 1563.48,1254.8 1564,1439.31 1564.53,1254.26 1565.05,1439.85 1565.57,1255.48 1566.09,1439.7 1566.61,1254.87 1567.14,1438.7 1567.66,1253.11 1568.18,1440.19 1568.7,1256.29 1569.22,1439.11 1569.75,1253.37 1570.27,1440.08 1570.79,1256.25 1571.31,1439.35 1571.83,1253.63 1572.36,1439.66 1572.88,1255.1 1573.4,1439.42 1573.92,1254.43 1574.44,1439.62 1574.97,1254.91 1575.49,1439.66 1576.01,1254.98 1576.53,1439.65 1577.05,1254.89 1577.58,1439.48 1578.1,1254.59 1578.62,1439.77 1579.14,1255.11 1579.66,1439.6 1580.19,1254.81 1580.71,1439.09 1581.23,1253.97 1581.75,1440.13 1582.27,1256.06 1582.8,1438.97 1583.32,1253.23 1583.84,1440.34 1584.36,1256.63 1584.88,1439.18 1585.41,1253.63 1585.93,1439.82 1586.45,1255.63 1586.97,1439.83 1587.49,1255.25 1588.02,1439.78 1588.54,1254.97 1589.06,1439.84 1589.58,1255.31 1590.1,1439.76 1590.63,1254.95 1591.15,1439.46 1591.67,1254.53 1592.19,1439.61 1592.71,1254.73 1593.24,1439.89 1593.76,1255.56 1594.28,1439.85 1594.8,1255.31 1595.32,1439.77 1595.85,1254.91 1596.37,1439.67 1596.89,1254.91 1597.41,1439.28 1597.93,1254.17 1598.46,1439.86 1598.98,1255.6 1599.5,1439.47 1600.02,1254.39 1600.54,1439.82 1601.07,1255.32 1601.59,1439.38 1602.11,1254.14 1602.63,1439.71 1603.15,1255.11 1603.68,1439.62 1604.2,1254.76 1604.72,1439.88 1605.24,1255.52 1605.76,1439.29 1606.29,1254.13 1606.81,1440.09 1607.33,1255.91 1607.85,1439.59 1608.37,1254.52 1608.9,1439.96 1609.42,1255.71 1609.94,1439.47 1610.46,1254.22 1610.98,1439.13 1611.51,1253.77 1612.03,1440.36 1612.55,1256.68 1613.07,1438.35 1613.59,1252.19 1614.12,1440.43 1614.64,1257.14 1615.16,1439.24 1615.68,1253.57 1616.2,1440.44 1616.73,1256.72 1617.25,1439.35 1617.77,1253.95 1618.29,1439.93 1618.81,1255.73 1619.34,1439.43 1619.86,1254.33 1620.38,1439.82 1620.9,1255.46 1621.42,1439.55 1621.95,1254.36 1622.47,1440.23 1622.99,1256.05 1623.51,1439.16 1624.03,1253.63 1624.56,1440.04 1625.08,1255.88 1625.6,1439.39 1626.12,1254.21 1626.64,1440.05 1627.17,1255.92 1627.69,1439.19 1628.21,1253.75 1628.73,1440 1629.25,1255.82 1629.78,1438.64 1630.3,1252.67 1630.82,1439.9 1631.34,1256.02 1631.86,1439.18 1632.39,1253.63 1632.91,1440.41 1633.43,1256.74 1633.95,1439.02 1634.47,1252.88 1635,1440.04 1635.52,1256.21 1636.04,1439.72 1636.56,1254.56 1637.08,1440 1637.61,1255.44 1638.13,1439.57 1638.65,1254.32 1639.17,1439.64 1639.69,1255 1640.22,1440 1640.74,1255.77 1641.26,1439.63 1641.78,1254.58 1642.3,1439.93 1642.83,1255.7 1643.35,1439.83 1643.87,1255.08 1644.39,1439.85 1644.91,1255.02 1645.44,1439.63 1645.96,1254.89 1646.48,1439.86 1647,1255.36 1647.52,1439.54 1648.05,1254.61 1648.57,1439.77 1649.09,1255.1 1649.61,1439.8 1650.13,1255.2 1650.66,1439.99 1651.18,1255.41 1651.7,1439.94 1652.22,1255.21 1652.74,1439.2 1653.27,1253.92 1653.79,1439.21 1654.31,1254 1654.83,1439.94 1655.35,1255.61 1655.88,1439.64 1656.4,1254.86 1656.92,1439.7 1657.44,1254.9 1657.96,1439.66 1658.49,1254.99 1659.01,1439.64 1659.53,1254.91 1660.05,1439.67 1660.57,1254.95 1661.1,1439.28 1661.62,1254.11 1662.14,1440.07 1662.66,1256 1663.18,1439.54 1663.71,1254.52 1664.23,1439.61 1664.75,1254.76 1665.27,1439.71 1665.79,1255.06 1666.32,1439.63 1666.84,1254.81 1667.36,1439.88 1667.88,1255.42 1668.4,1439.34 1668.93,1254.11 1669.45,1439.09 1669.97,1254.15 1670.49,1439.88 1671.01,1255.54 1671.54,1439.48 1672.06,1254.49 1672.58,1439.98 1673.1,1255.66 1673.62,1439.84 1674.15,1255.14 1674.67,1439.63 1675.19,1254.67 1675.71,1439.33 1676.23,1254.46 1676.76,1439.6 1677.28,1254.93 1677.8,1439.49 1678.32,1254.47 1678.84,1439.39 1679.37,1254.57 1679.89,1439.95 1680.41,1255.61 1680.93,1439.31 1681.45,1253.88 1681.98,1440.16 1682.5,1256.12 1683.02,1439.32 1683.54,1254.01 1684.06,1440.11 1684.59,1256.06 1685.11,1439.38 1685.63,1253.86 1686.15,1440.36 1686.67,1256.5 1687.2,1439.4 1687.72,1254.15 1688.24,1440.07 1688.76,1255.94 1689.28,1439.55 1689.81,1254.61 1690.33,1439.94 1690.85,1255.6 1691.37,1439.48 1691.89,1254.37 1692.42,1439.98 1692.94,1255.91 1693.46,1439.42 1693.98,1254.01 1694.5,1439.92 1695.03,1255.64 1695.55,1439.44 1696.07,1254.47 1696.59,1439.97 1697.11,1255.74 1697.64,1439.41 1698.16,1254.4 1698.68,1439.61 1699.2,1254.96 1699.72,1439.81 1700.25,1255.42 1700.77,1439.15 1701.29,1253.7 1701.81,1440.15 1702.33,1256.52 1702.86,1439.39 1703.38,1254.15 1703.9,1440.28 1704.42,1256.26 1704.95,1439.49 1705.47,1254.22 1705.99,1440.07 1706.51,1255.8 1707.03,1439.58 1707.56,1254.76 1708.08,1439.52 1708.6,1254.67 1709.12,1440.14 1709.64,1255.82 1710.17,1439.8 1710.69,1254.96 1711.21,1439.45 1711.73,1254.56 1712.25,1439.76 1712.78,1255.25 1713.3,1439.95 1713.82,1255.49 1714.34,1439.11 1714.86,1253.74 1715.39,1439.39 1715.91,1254.84 1716.43,1439.09 1716.95,1253.92 1717.47,1440.14 1718,1256.11 1718.52,1439.33 1719.04,1254.02 1719.56,1439.51 1720.08,1254.96 1720.61,1439.47 1721.13,1254.47 1721.65,1440.03 1722.17,1255.47 1722.69,1439.5 1723.22,1254.53 1723.74,1439.78 1724.26,1255.23 1724.78,1439.56 1725.3,1254.76 1725.83,1439.33 1726.35,1254.24 1726.87,1439.66 1727.39,1255.1 1727.91,1439.78 1728.44,1255.27 1728.96,1439.52 1729.48,1254.85 1730,1439.09 1730.52,1253.87 1731.05,1440.19 1731.57,1255.98 1732.09,1439.37 1732.61,1254.1 1733.13,1439.69 1733.66,1255.28 1734.18,1439.36 1734.7,1254.33 1735.22,1439.05 1735.74,1253.88 1736.27,1439.8 1736.79,1255.2 1737.31,1439.6 1737.83,1254.62 1738.35,1439.75 1738.88,1255.16 1739.4,1439.6 1739.92,1254.7 1740.44,1439.92 1740.96,1255.47 1741.49,1439.7 1742.01,1254.91 1742.53,1439.29 1743.05,1254.12 1743.57,1439.53 1744.1,1254.7 1744.62,1439.72 1745.14,1255.14 1745.66,1439.21 1746.18,1254 1746.71,1438.94 1747.23,1253.8 1747.75,1440.16 1748.27,1256.24 1748.79,1439.31 1749.32,1253.8 1749.84,1440.18 1750.36,1256.18 1750.88,1439.51 1751.4,1254.3 1751.93,1439.79 1752.45,1255.61 1752.97,1439.48 1753.49,1254.36 1754.01,1439.81 1754.54,1255.45 1755.06,1439.68 1755.58,1255.02 1756.1,1439.24 1756.62,1254.14 1757.15,1439.9 1757.67,1255.48 1758.19,1439.51 1758.71,1254.5 1759.23,1439.61 1759.76,1254.8 1760.28,1439.49 1760.8,1254.7 1761.32,1439.55 1761.84,1254.64 1762.37,1439.55 1762.89,1254.78 1763.41,1439.5 1763.93,1254.73 1764.45,1439.55 1764.98,1254.59 1765.5,1439.54 1766.02,1254.9 1766.54,1439.29 1767.06,1254.15 1767.59,1440.09 1768.11,1255.83 1768.63,1439.57 1769.15,1254.74 1769.67,1439.71 1770.2,1255.11 1770.72,1439.66 1771.24,1254.6 1771.76,1439.56 1772.28,1254.79 1772.81,1439.51 1773.33,1254.63 1773.85,1439.89 1774.37,1255.75 1774.89,1439.8 1775.42,1255.12 1775.94,1439.21 1776.46,1254.07 1776.98,1440.11 1777.5,1255.95 1778.03,1439.54 1778.55,1254.63 1779.07,1439.56 1779.59,1254.74 1780.11,1439.32 1780.64,1254.35 1781.16,1439.82 1781.68,1255.38 1782.2,1439.74 1782.72,1254.9 1783.25,1439.86 1783.77,1255.38 1784.29,1439.76 1784.81,1254.84 1785.33,1439.06 1785.86,1254.05 1786.38,1439.51 1786.9,1254.9 1787.42,1439.86 1787.94,1255.33 1788.47,1439.17 1788.99,1253.82 1789.51,1439.96 1790.03,1255.87 1790.55,1439.43 1791.08,1254.03 1791.6,1439.73 1792.12,1255.19 1792.64,1439.99 1793.16,1255.44 1793.69,1439.92 1794.21,1255.24 1794.73,1439.77 1795.25,1255.04 1795.77,1439.44 1796.3,1254.45 1796.82,1439.61 1797.34,1254.91 1797.86,1439.67 1798.38,1254.93 1798.91,1439.47 1799.43,1254.55 1799.95,1439.79 1800.47,1255.14 1800.99,1439.6 1801.52,1254.75 1802.04,1439.49 1802.56,1254.83 1803.08,1439.31 1803.6,1254.19 1804.13,1440.26 1804.65,1256.27 1805.17,1439.28 1805.69,1253.9 1806.21,1440.13 1806.74,1256.17 1807.26,1439.12 1807.78,1253.56 1808.3,1440.47 1808.82,1256.6 1809.35,1439.01 1809.87,1253.17 1810.39,1439.58 1810.91,1255.17 1811.43,1439.8 1811.96,1255.08 1812.48,1439.61 1813,1254.84 1813.52,1439.85 1814.04,1255.48 1814.57,1439.54 1815.09,1254.35 1815.61,1439.6 1816.13,1255.13 1816.65,1439.82 1817.18,1255.04 1817.7,1439.47 1818.22,1254.31 1818.74,1439.83 1819.26,1255.43 1819.79,1439.93 1820.31,1255.2 1820.83,1439.97 1821.35,1255.47 1821.87,1439.3 1822.4,1254.21 1822.92,1440.25 1823.44,1256.28 1823.96,1438.87 1824.48,1253.18 1825.01,1439.41 1825.53,1254.66 1826.05,1439.53 1826.57,1254.83 1827.09,1439.9 1827.62,1255.34 1828.14,1439.74 1828.66,1254.98 1829.18,1439.44 1829.7,1254.56 1830.23,1439.36 1830.75,1254.53 1831.27,1439.61 1831.79,1254.71 1832.31,1439.53 1832.84,1254.74 1833.36,1439.33 1833.88,1254.31 1834.4,1440.24 1834.92,1256.11 1835.45,1439.11 1835.97,1253.75 1836.49,1440.37 1837.01,1256.67 1837.53,1439.36 1838.06,1253.98 1838.58,1439.58 1839.1,1254.75 1839.62,1439.92 1840.14,1255.39 1840.67,1439.69 1841.19,1255.1 1841.71,1439.62 1842.23,1254.77 1842.75,1439.47 1843.28,1254.85 1843.8,1439.28 1844.32,1254.27 1844.84,1440.03 1845.36,1255.89 1845.89,1439.21 1846.41,1253.74 1846.93,1439.81 1847.45,1255.46 1847.97,1439.5 1848.5,1254.55 1849.02,1439.56 1849.54,1254.92 1850.06,1440.05 1850.59,1255.72 1851.11,1439.43 1851.63,1254.35 1852.15,1439.82 1852.67,1255.42 1853.2,1439.72 1853.72,1254.9 1854.24,1439.66 1854.76,1254.99 1855.28,1439.45 1855.81,1254.5 1856.33,1439.98 1856.85,1255.65 1857.37,1439.67 1857.89,1254.66 1858.42,1440.11 1858.94,1255.95 1859.46,1439.38 1859.98,1254.11 1860.5,1439.89 1861.03,1255.59 1861.55,1439.27 1862.07,1254.1 1862.59,1439.71 1863.11,1255.16 1863.64,1439.4 1864.16,1254.38 1864.68,1439.84 1865.2,1255.24 1865.72,1439.76 1866.25,1255.11 1866.77,1440.02 1867.29,1255.46 1867.81,1439.55 1868.33,1254.34 1868.86,1439.81 1869.38,1255.46 1869.9,1439.49 1870.42,1254.59 1870.94,1440.17 1871.47,1255.84 1871.99,1439.05 1872.51,1253.31 1873.03,1440.33 1873.55,1256.52 1874.08,1439.58 1874.6,1254.54 1875.12,1439.54 1875.64,1254.99 1876.16,1439.82 1876.69,1255.32 1877.21,1439.72 1877.73,1255.12 1878.25,1439.81 1878.77,1255.12 1879.3,1439.83 1879.82,1255.01 1880.34,1439.44 1880.86,1254.5 1881.38,1439.93 1881.91,1255.85 1882.43,1438.85 1882.95,1252.94 1883.47,1440.04 1883.99,1256.08 1884.52,1439.33 1885.04,1254.05 1885.56,1439.75 1886.08,1255.08 1886.6,1439.8 1887.13,1255.26 1887.65,1439.4 1888.17,1254.16 1888.69,1440.1 1889.21,1255.79 1889.74,1439.44 1890.26,1254.17 1890.78,1439.7 1891.3,1255.05 1891.82,1439.4 1892.35,1254.6 1892.87,1440.16 1893.39,1255.86 1893.91,1439.79 1894.43,1254.97 1894.96,1439.43 1895.48,1254.61 1896,1439.54 1896.52,1254.87 1897.04,1439.47 1897.57,1254.65 1898.09,1439.56 1898.61,1254.72 1899.13,1439.54 1899.65,1254.66 1900.18,1439.54 1900.7,1254.75 1901.22,1439.52 1901.74,1254.68 1902.26,1439.9 1902.79,1255.63 1903.31,1439.28 1903.83,1253.98 1904.35,1439.9 1904.87,1255.83 1905.4,1439.39 1905.92,1254.31 1906.44,1440.04 1906.96,1255.76 1907.48,1439.41 1908.01,1254.33 1908.53,1440.03 1909.05,1255.76 1909.57,1439.04 1910.09,1253.51 1910.62,1440.07 1911.14,1256.01 1911.66,1439.53 1912.18,1254.56 1912.7,1439.39 1913.23,1254.42 1913.75,1439.64 1914.27,1254.82 1914.79,1440.07 1915.31,1255.84 1915.84,1439.19 1916.36,1253.91 1916.88,1439.94 1917.4,1255.78 1917.92,1439.4 1918.45,1254.35 1918.97,1439.8 1919.49,1255.49 1920.01,1439.13 1920.53,1253.68 1921.06,1440.41 1921.58,1256.65 1922.1,1439.17 1922.62,1253.62 1923.14,1440.03 1923.67,1256 1924.19,1439.58 1924.71,1254.39 1925.23,1439.84 1925.75,1255.23 1926.28,1439.56 1926.8,1254.76 1927.32,1439.88 1927.84,1255.54 1928.36,1439.5 1928.89,1254.4 1929.41,1439.81 1929.93,1255.36 1930.45,1439.54 1930.97,1254.6 1931.5,1439.38 1932.02,1254.36 1932.54,1439.8 1933.06,1255.48 1933.58,1439.3 1934.11,1254.19 1934.63,1439.26 1935.15,1254.5 1935.67,1439.21 1936.19,1254.1 1936.72,1439.88 1937.24,1255.68 1937.76,1439.27 1938.28,1253.89 1938.8,1440.17 1939.33,1256.02 1939.85,1439.12 1940.37,1253.85 1940.89,1440.36 1941.41,1256.51 1941.94,1439.41 1942.46,1254.06 1942.98,1440.13 1943.5,1255.85 1944.02,1439.02 1944.55,1253.44 1945.07,1440.31 1945.59,1256.34 1946.11,1439.46 1946.63,1254.21 1947.16,1439.87 1947.68,1255.47 1948.2,1439.51 1948.72,1254.48 1949.24,1440.01 1949.77,1255.55 1950.29,1439.48 1950.81,1254.46 1951.33,1439 1951.85,1253.82 1952.38,1440.16 1952.9,1256.23 1953.42,1439.04 1953.94,1253.78 1954.46,1440.18 1954.99,1256.21 1955.51,1439.11 1956.03,1253.53 1956.55,1440.08 1957.07,1255.93 1957.6,1439.39 1958.12,1254.11 1958.64,1439.9 1959.16,1255.53 1959.68,1439.88 1960.21,1255.23 1960.73,1439.99 1961.25,1255.35 1961.77,1439.35 1962.29,1254.21 1962.82,1440.26 1963.34,1256.21 1963.86,1439.29 1964.38,1253.96 1964.9,1439.94 1965.43,1255.65 1965.95,1438.72 1966.47,1252.65 1966.99,1440.68 1967.51,1257.54 1968.04,1439.13 1968.56,1253.25 1969.08,1440.15 1969.6,1256.22 1970.12,1438.9 1970.65,1253.2 1971.17,1440.12 1971.69,1256.41 1972.21,1439.62 1972.73,1254.59 1973.26,1439.92 1973.78,1255.7 1974.3,1439.62 1974.82,1254.77 1975.34,1439.9 1975.87,1255.45 1976.39,1439.72 1976.91,1254.86 1977.43,1439.29 1977.95,1254.21 1978.48,1440.08 1979,1255.76 1979.52,1439.06 1980.04,1253.4 1980.56,1440.3 1981.09,1256.46 1981.61,1438.85 1982.13,1252.92 1982.65,1440.25 1983.17,1256.41 1983.7,1439.07 1984.22,1253.32 1984.74,1440.32 1985.26,1256.52 1985.78,1439 1986.31,1253.41 1986.83,1440.31 1987.35,1256.41 1987.87,1439.21 1988.39,1253.91 1988.92,1440.13 1989.44,1256.19 1989.96,1439.51 1990.48,1254.26 1991,1439.67 1991.53,1255.02 1992.05,1439.82 1992.57,1255.27 1993.09,1439.56 1993.61,1254.68 1994.14,1439.91 1994.66,1255.58 1995.18,1439.46 1995.7,1254.5 1996.23,1439.92 1996.75,1255.89 1997.27,1439.39 1997.79,1254.19 1998.31,1439.67 1998.84,1255.15 1999.36,1439.61 1999.88,1254.72 2000.4,1439.32 2000.92,1254.38 2001.45,1439.81 2001.97,1255.4 2002.49,1439.13 2003.01,1253.85 2003.53,1439.76 2004.06,1255.46 2004.58,1439.15 2005.1,1253.61 2005.62,1440.04 2006.14,1255.95 2006.67,1438.98 2007.19,1253.38 2007.71,1440.28 2008.23,1256.59 2008.75,1439.56 2009.28,1254.47 2009.8,1439.61 2010.32,1254.86 2010.84,1439.89 2011.36,1255.32 2011.89,1439.76 2012.41,1254.96 2012.93,1439.46 2013.45,1254.5 2013.97,1439.96 2014.5,1255.74 2015.02,1439.23 2015.54,1253.95 2016.06,1440.34 2016.58,1256.4 2017.11,1438.84 2017.63,1253.09 2018.15,1440.19 2018.67,1256.34 2019.19,1439.25 2019.72,1253.87 2020.24,1440.34 2020.76,1256.54 2021.28,1439.2 2021.8,1253.71 2022.33,1439.24 2022.85,1254.32 2023.37,1440.03 2023.89,1255.78 2024.41,1439.21 2024.94,1253.97 2025.46,1439.75 2025.98,1255.25 2026.5,1439.54 2027.02,1254.81 2027.55,1439.69 2028.07,1255.05 2028.59,1439.24 2029.11,1254.08 2029.63,1439.9 2030.16,1255.6 2030.68,1439.5 2031.2,1254.3 2031.72,1440.22 2032.24,1256.24 2032.77,1438.9 2033.29,1253.16 2033.81,1440.38 2034.33,1256.59 2034.85,1439.43 2035.38,1253.84 2035.9,1439.81 2036.42,1255.24 2036.94,1439.76 2037.46,1255.09 2037.99,1439.63 2038.51,1254.75 2039.03,1439.95 2039.55,1255.27 2040.07,1439.19 2040.6,1253.83 2041.12,1439.81 2041.64,1255.26 2042.16,1439.77 2042.68,1254.99 2043.21,1440.03 2043.73,1255.66 2044.25,1439.46 2044.77,1254.35 2045.29,1439.59 2045.82,1255.15 2046.34,1439.59 2046.86,1254.8 2047.38,1439.51 2047.9,1254.6 2048.43,1440.17 2048.95,1255.81 2049.47,1439.21 2049.99,1253.9 2050.51,1440.15 2051.04,1256.12 2051.56,1439.69 2052.08,1254.85 2052.6,1439.5 2053.12,1254.54 2053.65,1439.79 2054.17,1255.12 2054.69,1439.64 2055.21,1254.61 2055.73,1440.18 2056.26,1255.75 2056.78,1439.06 2057.3,1253.46 2057.82,1440.06 2058.34,1256.17 2058.87,1439.33 2059.39,1253.9 2059.91,1440.15 2060.43,1256.11 2060.95,1439.15 2061.48,1253.57 2062,1440.05 2062.52,1255.99 2063.04,1439.35 2063.56,1254.15 2064.09,1440.29 2064.61,1256.22 2065.13,1439.7 2065.65,1254.62 2066.17,1439.95 2066.7,1255.49 2067.22,1439.1 2067.74,1253.79 2068.26,1440.18 2068.78,1256.18 2069.31,1439.68 2069.83,1254.79 2070.35,1439.86 2070.87,1255.56 2071.39,1439.07 2071.92,1253.78 2072.44,1440.18 2072.96,1256.21 2073.48,1439.1 2074,1253.59 2074.53,1439.84 2075.05,1255.62 2075.57,1439.48 2076.09,1254.35 2076.61,1439.82 2077.14,1255.41 2077.66,1439.55 2078.18,1254.47 2078.7,1439.58 2079.22,1255 2079.75,1439.66 2080.27,1254.81 2080.79,1439.5 2081.31,1254.66 2081.83,1439.71 2082.36,1255.27 2082.88,1439.93 2083.4,1255.5 2083.92,1439.52 2084.44,1254.41 2084.97,1440.2 2085.49,1256.1 2086.01,1439.52 2086.53,1254.42 2087.05,1439.81 2087.58,1255.31 2088.1,1439.37 2088.62,1254.2 2089.14,1440.06 2089.66,1255.86 2090.19,1439.81 2090.71,1254.85 2091.23,1440.07 2091.75,1255.78 2092.27,1439.25 2092.8,1253.79 2093.32,1440.15 2093.84,1256.34 2094.36,1439.26 2094.88,1253.84 2095.41,1439.97 2095.93,1255.78 2096.45,1439.79 2096.97,1255.08 2097.49,1439.44 2098.02,1254.34 2098.54,1439.62 2099.06,1255.06 2099.58,1439.62 2100.1,1254.85 2100.63,1439.9 2101.15,1255.28 2101.67,1439.6 2102.19,1254.5 2102.71,1439.82 2103.24,1255.09 2103.76,1439.02 2104.28,1253.72 2104.8,1440 2105.32,1255.92 2105.85,1438.97 2106.37,1253.51 2106.89,1440.26 2107.41,1256.44 2107.93,1439.64 2108.46,1254.46 2108.98,1439.96 2109.5,1255.8 2110.02,1439.8 2110.54,1255.05 2111.07,1439.61 2111.59,1254.89 2112.11,1440.04 2112.63,1255.81 2113.15,1439.63 2113.68,1254.52 2114.2,1440.14 2114.72,1256.11 2115.24,1439.31 2115.76,1254.1 2116.29,1439.91 2116.81,1255.53 2117.33,1439.3 2117.85,1254.07 2118.37,1440.09 2118.9,1256 2119.42,1439.36 2119.94,1254.1 2120.46,1438.93 2120.98,1253.64 2121.51,1440.43 2122.03,1256.65 2122.55,1439.4 2123.07,1253.85 2123.59,1439.76 2124.12,1255.45 2124.64,1439.49 2125.16,1254.63 2125.68,1439.52 2126.2,1254.95 2126.73,1439.66 2127.25,1254.9 2127.77,1439.85 2128.29,1255.38 2128.81,1439.71 2129.34,1255.04 2129.86,1439.43 2130.38,1254.49 2130.9,1439.79 2131.42,1255.25 2131.95,1439.56 2132.47,1254.71 2132.99,1439.94 2133.51,1255.4 2134.03,1439.51 2134.56,1254.63 2135.08,1439.19 2135.6,1253.91 2136.12,1440.39 2136.64,1256.29 2137.17,1438.87 2137.69,1253.21 2138.21,1439.97 2138.73,1255.84 2139.25,1439.57 2139.78,1254.71 2140.3,1439.76 2140.82,1254.93 2141.34,1439.7 2141.87,1254.76 2142.39,1439.31 2142.91,1254.32 2143.43,1440.03 2143.95,1255.78 2144.48,1439.62 2145,1254.61 2145.52,1439.77 2146.04,1255.09 2146.56,1439.42 2147.09,1254.42 2147.61,1439.43 2148.13,1254.52 2148.65,1439.76 2149.17,1255.31 2149.7,1439.17 2150.22,1253.84 2150.74,1440.2 2151.26,1256.01 2151.78,1439.15 2152.31,1253.76 2152.83,1439.82 2153.35,1255.37 2153.87,1439.74 2154.39,1254.9 2154.92,1439.88 2155.44,1255.27 2155.96,1439.57 2156.48,1254.63 2157,1439.77 2157.53,1255.04 2158.05,1439.43 2158.57,1254.49 2159.09,1439.79 2159.61,1255.27 2160.14,1439.57 2160.66,1254.65 2161.18,1439.56 2161.7,1254.71 2162.22,1439.93 2162.75,1255.44 2163.27,1439.69 2163.79,1255.03 2164.31,1439.59 2164.83,1255.04 2165.36,1439.25 2165.88,1254.03 2166.4,1439.73 2166.92,1255.2 2167.44,1439.39 2167.97,1254.35 2168.49,1440.03 2169.01,1255.69 2169.53,1439.07 2170.05,1253.51 2170.58,1440.1 2171.1,1255.91 2171.62,1439.37 2172.14,1254.23 2172.66,1439.66 2173.19,1255.1 2173.71,1439.63 2174.23,1254.74 2174.75,1439.89 2175.27,1255.54 2175.8,1439.5 2176.32,1254.39 2176.84,1440.02 2177.36,1255.7 2177.88,1439.07 2178.41,1253.49 2178.93,1439.49 2179.45,1254.93 2179.97,1440.08 2180.49,1255.55 2181.02,1439.29 2181.54,1254.08 2182.06,1439.72 2182.58,1255.17 2183.1,1439.19 2183.63,1254.02 2184.15,1440.12 2184.67,1255.99 2185.19,1439.35 2185.71,1254.15 2186.24,1439.86 2186.76,1255.64 2187.28,1439.47 2187.8,1254.33 2188.32,1439.61 2188.85,1255.13 2189.37,1439.56 2189.89,1254.95 2190.41,1439.86 2190.93,1255.26 2191.46,1439.36 2191.98,1254.36 2192.5,1439.99 2193.02,1255.89 2193.54,1439.6 2194.07,1254.48 2194.59,1439.99 2195.11,1255.63 2195.63,1439.66 2196.15,1254.75 2196.68,1439.72 2197.2,1255.01 2197.72,1440 2198.24,1255.74 2198.76,1439.62 2199.29,1254.7 2199.81,1439.49 2200.33,1254.89 2200.85,1439.51 2201.37,1254.42 2201.9,1440.04 2202.42,1255.54 2202.94,1439.27 2203.46,1254.18 2203.98,1439.3 2204.51,1254.35 2205.03,1439.48 2205.55,1254.42 2206.07,1439.84 2206.59,1255.16 2207.12,1439.97 2207.64,1255.56 2208.16,1439.29 2208.68,1254.05 2209.2,1439.91 2209.73,1255.63 2210.25,1439.65 2210.77,1254.8 2211.29,1439.73 2211.81,1254.92 2212.34,1439.69 2212.86,1254.85 2213.38,1439.87 2213.9,1255.39 2214.42,1439.74 2214.95,1254.88 2215.47,1439.47 2215.99,1254.62 2216.51,1439.59 2217.03,1254.64 2217.56,1440.09 2218.08,1256.07 2218.6,1439.16 2219.12,1253.59 2219.64,1440.43 2220.17,1256.73 2220.69,1439.16 2221.21,1253.5 2221.73,1440.27 2222.25,1256.38 2222.78,1439.61 2223.3,1254.7 2223.82,1438.75 2224.34,1253.23 2224.86,1439.94 2225.39,1255.91 2225.91,1438.99 2226.43,1253.43 2226.95,1439.69 2227.47,1255.38 2228,1439.32 2228.52,1254.29 2229.04,1440.28 2229.56,1256 2230.08,1438.96 2230.61,1253.36 2231.13,1440.35 2231.65,1256.32 2232.17,1439.66 2232.69,1254.59 2233.22,1439.74 2233.74,1255.28 2234.26,1439.98 2234.78,1255.28 2235.3,1439.71 2235.83,1255.23 2236.35,1439.96 2236.87,1255.49 2237.39,1439.51 2237.91,1254.45 2238.44,1439.21 2238.96,1254.18 2239.48,1439.86 2240,1255.58 2240.52,1439.66 2241.05,1254.84 2241.57,1439.69 2242.09,1254.98 2242.61,1440.03 2243.13,1255.66 2243.66,1439.84 2244.18,1255.15 2244.7,1439.41 2245.22,1254.35 2245.74,1439.63 2246.27,1255 2246.79,1439.24 2247.31,1254.19 2247.83,1439.28 2248.35,1254.39 2248.88,1440.01 2249.4,1255.74 2249.92,1439.61 2250.44,1254.74 2250.96,1439.92 2251.49,1255.43 2252.01,1439.9 2252.53,1255.35 2253.05,1439.71 2253.57,1255.12 2254.1,1439.58 2254.62,1254.93 2255.14,1439.45 2255.66,1254.63 2256.18,1439.72 2256.71,1255.26 2257.23,1439.77 2257.75,1255 2258.27,1439.09 2258.79,1253.59 2259.32,1440.23 2259.84,1256.36 2260.36,1439.23 2260.88,1253.94 2261.4,1440.15 2261.93,1256.03 2262.45,1439.55 2262.97,1254.45 2263.49,1439.81 2264.01,1255.25 2264.54,1439.56 2265.06,1254.71 2265.58,1439.92 2266.1,1255.45 2266.62,1439.13 2267.15,1253.74 2267.67,1440.23 2268.19,1256.09 2268.71,1439.73 2269.23,1254.74 2269.76,1439.72 2270.28,1255.08 2270.8,1440.01 2271.32,1255.54 2271.84,1439.31 2272.37,1254.01 2272.89,1439.5 2273.41,1255.03 2273.93,1439.25 2274.45,1254.08 2274.98,1439.69 2275.5,1255.28 2276.02,1439.93 2276.54,1255.5 2277.06,1439.31 2277.59,1254.1 2278.11,1439.69 2278.63,1255.24 2279.15,1439.4 2279.67,1254.24 2280.2,1439.88 2280.72,1255.37 2281.24,1439.71 2281.76,1255.07 2282.28,1439.44 2282.81,1254.37 2283.33,1439.23 2283.85,1254.24 2284.37,1439.65 2284.89,1255.15 2285.42,1439.41 2285.94,1254.38 2286.46,1439.82 2286.98,1255.37 2287.51,1439.75 2288.03,1254.87 2288.55,1439.51 2289.07,1254.48 2289.59,1439.57 2290.12,1255 "/>
<path clip-path="url(#clip540)" d="M2005.22 198.898 L2278.98 198.898 L2278.98 95.2176 L2005.22 95.2176  Z" fill="#ffffff" fill-rule="evenodd" fill-opacity="1"/>
<polyline clip-path="url(#clip540)" style="stroke:#000000; stroke-linecap:round; stroke-linejoin:round; stroke-width:4; stroke-opacity:1; fill:none" points="2005.22,198.898 2278.98,198.898 2278.98,95.2176 2005.22,95.2176 2005.22,198.898 "/>
<polyline clip-path="url(#clip540)" style="stroke:#009af9; stroke-linecap:round; stroke-linejoin:round; stroke-width:4; stroke-opacity:1; fill:none" points="2029.81,147.058 2177.36,147.058 "/>
<path clip-path="url(#clip540)" d="M2215.8 166.745 Q2213.99 171.375 2212.28 172.787 Q2210.57 174.199 2207.7 174.199 L2204.29 174.199 L2204.29 170.634 L2206.79 170.634 Q2208.55 170.634 2209.53 169.8 Q2210.5 168.967 2211.68 165.865 L2212.44 163.921 L2201.96 138.412 L2206.47 138.412 L2214.57 158.689 L2222.67 138.412 L2227.19 138.412 L2215.8 166.745 Z" fill="#000000" fill-rule="nonzero" fill-opacity="1" /><path clip-path="url(#clip540)" d="M2234.48 160.402 L2242.12 160.402 L2242.12 134.037 L2233.81 135.703 L2233.81 131.444 L2242.07 129.778 L2246.75 129.778 L2246.75 160.402 L2254.39 160.402 L2254.39 164.338 L2234.48 164.338 L2234.48 160.402 Z" fill="#000000" fill-rule="nonzero" fill-opacity="1" /></svg>
