<?xml version="1.0" encoding="utf-8"?>
<svg xmlns="http://www.w3.org/2000/svg" xmlns:xlink="http://www.w3.org/1999/xlink" width="600" height="400" viewBox="0 0 2400 1600">
<defs>
  <clipPath id="clip420">
    <rect x="0" y="0" width="2400" height="1600"/>
  </clipPath>
</defs>
<path clip-path="url(#clip420)" d="M0 1600 L2400 1600 L2400 0 L0 0  Z" fill="#ffffff" fill-rule="evenodd" fill-opacity="1"/>
<defs>
  <clipPath id="clip421">
    <rect x="480" y="0" width="1681" height="1600"/>
  </clipPath>
</defs>
<path clip-path="url(#clip420)" d="M140.696 1486.45 L2352.76 1486.45 L2352.76 47.2441 L140.696 47.2441  Z" fill="#ffffff" fill-rule="evenodd" fill-opacity="1"/>
<defs>
  <clipPath id="clip422">
    <rect x="140" y="47" width="2213" height="1440"/>
  </clipPath>
</defs>
<polyline clip-path="url(#clip422)" style="stroke:#000000; stroke-linecap:round; stroke-linejoin:round; stroke-width:2; stroke-opacity:0.1; fill:none" points="203.301,1486.45 203.301,47.2441 "/>
<polyline clip-path="url(#clip422)" style="stroke:#000000; stroke-linecap:round; stroke-linejoin:round; stroke-width:2; stroke-opacity:0.1; fill:none" points="620.671,1486.45 620.671,47.2441 "/>
<polyline clip-path="url(#clip422)" style="stroke:#000000; stroke-linecap:round; stroke-linejoin:round; stroke-width:2; stroke-opacity:0.1; fill:none" points="1038.04,1486.45 1038.04,47.2441 "/>
<polyline clip-path="url(#clip422)" style="stroke:#000000; stroke-linecap:round; stroke-linejoin:round; stroke-width:2; stroke-opacity:0.1; fill:none" points="1455.41,1486.45 1455.41,47.2441 "/>
<polyline clip-path="url(#clip422)" style="stroke:#000000; stroke-linecap:round; stroke-linejoin:round; stroke-width:2; stroke-opacity:0.1; fill:none" points="1872.78,1486.45 1872.78,47.2441 "/>
<polyline clip-path="url(#clip422)" style="stroke:#000000; stroke-linecap:round; stroke-linejoin:round; stroke-width:2; stroke-opacity:0.1; fill:none" points="2290.15,1486.45 2290.15,47.2441 "/>
<polyline clip-path="url(#clip420)" style="stroke:#000000; stroke-linecap:round; stroke-linejoin:round; stroke-width:4; stroke-opacity:1; fill:none" points="140.696,1486.45 2352.76,1486.45 "/>
<polyline clip-path="url(#clip420)" style="stroke:#000000; stroke-linecap:round; stroke-linejoin:round; stroke-width:4; stroke-opacity:1; fill:none" points="203.301,1486.45 203.301,1467.55 "/>
<polyline clip-path="url(#clip420)" style="stroke:#000000; stroke-linecap:round; stroke-linejoin:round; stroke-width:4; stroke-opacity:1; fill:none" points="620.671,1486.45 620.671,1467.55 "/>
<polyline clip-path="url(#clip420)" style="stroke:#000000; stroke-linecap:round; stroke-linejoin:round; stroke-width:4; stroke-opacity:1; fill:none" points="1038.04,1486.45 1038.04,1467.55 "/>
<polyline clip-path="url(#clip420)" style="stroke:#000000; stroke-linecap:round; stroke-linejoin:round; stroke-width:4; stroke-opacity:1; fill:none" points="1455.41,1486.45 1455.41,1467.55 "/>
<polyline clip-path="url(#clip420)" style="stroke:#000000; stroke-linecap:round; stroke-linejoin:round; stroke-width:4; stroke-opacity:1; fill:none" points="1872.78,1486.45 1872.78,1467.55 "/>
<polyline clip-path="url(#clip420)" style="stroke:#000000; stroke-linecap:round; stroke-linejoin:round; stroke-width:4; stroke-opacity:1; fill:none" points="2290.15,1486.45 2290.15,1467.55 "/>
<path clip-path="url(#clip420)" d="M203.301 1517.37 Q199.69 1517.37 197.861 1520.93 Q196.056 1524.47 196.056 1531.6 Q196.056 1538.71 197.861 1542.27 Q199.69 1545.82 203.301 1545.82 Q206.935 1545.82 208.741 1542.27 Q210.57 1538.71 210.57 1531.6 Q210.57 1524.47 208.741 1520.93 Q206.935 1517.37 203.301 1517.37 M203.301 1513.66 Q209.111 1513.66 212.167 1518.27 Q215.245 1522.85 215.245 1531.6 Q215.245 1540.33 212.167 1544.94 Q209.111 1549.52 203.301 1549.52 Q197.491 1549.52 194.412 1544.94 Q191.357 1540.33 191.357 1531.6 Q191.357 1522.85 194.412 1518.27 Q197.491 1513.66 203.301 1513.66 Z" fill="#000000" fill-rule="nonzero" fill-opacity="1" /><path clip-path="url(#clip420)" d="M580.278 1544.91 L587.916 1544.91 L587.916 1518.55 L579.606 1520.21 L579.606 1515.95 L587.87 1514.29 L592.546 1514.29 L592.546 1544.91 L600.185 1544.91 L600.185 1548.85 L580.278 1548.85 L580.278 1544.91 Z" fill="#000000" fill-rule="nonzero" fill-opacity="1" /><path clip-path="url(#clip420)" d="M619.629 1517.37 Q616.018 1517.37 614.189 1520.93 Q612.384 1524.47 612.384 1531.6 Q612.384 1538.71 614.189 1542.27 Q616.018 1545.82 619.629 1545.82 Q623.263 1545.82 625.069 1542.27 Q626.898 1538.71 626.898 1531.6 Q626.898 1524.47 625.069 1520.93 Q623.263 1517.37 619.629 1517.37 M619.629 1513.66 Q625.439 1513.66 628.495 1518.27 Q631.574 1522.85 631.574 1531.6 Q631.574 1540.33 628.495 1544.94 Q625.439 1549.52 619.629 1549.52 Q613.819 1549.52 610.74 1544.94 Q607.685 1540.33 607.685 1531.6 Q607.685 1522.85 610.74 1518.27 Q613.819 1513.66 619.629 1513.66 Z" fill="#000000" fill-rule="nonzero" fill-opacity="1" /><path clip-path="url(#clip420)" d="M649.791 1517.37 Q646.18 1517.37 644.351 1520.93 Q642.546 1524.47 642.546 1531.6 Q642.546 1538.71 644.351 1542.27 Q646.18 1545.82 649.791 1545.82 Q653.425 1545.82 655.231 1542.27 Q657.06 1538.71 657.06 1531.6 Q657.06 1524.47 655.231 1520.93 Q653.425 1517.37 649.791 1517.37 M649.791 1513.66 Q655.601 1513.66 658.657 1518.27 Q661.735 1522.85 661.735 1531.6 Q661.735 1540.33 658.657 1544.94 Q655.601 1549.52 649.791 1549.52 Q643.981 1549.52 640.902 1544.94 Q637.847 1540.33 637.847 1531.6 Q637.847 1522.85 640.902 1518.27 Q643.981 1513.66 649.791 1513.66 Z" fill="#000000" fill-rule="nonzero" fill-opacity="1" /><path clip-path="url(#clip420)" d="M1001.73 1544.91 L1018.05 1544.91 L1018.05 1548.85 L996.108 1548.85 L996.108 1544.91 Q998.77 1542.16 1003.35 1537.53 Q1007.96 1532.88 1009.14 1531.53 Q1011.39 1529.01 1012.27 1527.27 Q1013.17 1525.51 1013.17 1523.82 Q1013.17 1521.07 1011.22 1519.33 Q1009.3 1517.6 1006.2 1517.6 Q1004 1517.6 1001.55 1518.36 Q999.117 1519.13 996.34 1520.68 L996.34 1515.95 Q999.164 1514.82 1001.62 1514.24 Q1004.07 1513.66 1006.11 1513.66 Q1011.48 1513.66 1014.67 1516.35 Q1017.87 1519.03 1017.87 1523.52 Q1017.87 1525.65 1017.06 1527.57 Q1016.27 1529.47 1014.16 1532.07 Q1013.58 1532.74 1010.48 1535.95 Q1007.38 1539.15 1001.73 1544.91 Z" fill="#000000" fill-rule="nonzero" fill-opacity="1" /><path clip-path="url(#clip420)" d="M1037.87 1517.37 Q1034.26 1517.37 1032.43 1520.93 Q1030.62 1524.47 1030.62 1531.6 Q1030.62 1538.71 1032.43 1542.27 Q1034.26 1545.82 1037.87 1545.82 Q1041.5 1545.82 1043.31 1542.27 Q1045.14 1538.71 1045.14 1531.6 Q1045.14 1524.47 1043.31 1520.93 Q1041.5 1517.37 1037.87 1517.37 M1037.87 1513.66 Q1043.68 1513.66 1046.73 1518.27 Q1049.81 1522.85 1049.81 1531.6 Q1049.81 1540.33 1046.73 1544.94 Q1043.68 1549.52 1037.87 1549.52 Q1032.06 1549.52 1028.98 1544.94 Q1025.92 1540.33 1025.92 1531.6 Q1025.92 1522.85 1028.98 1518.27 Q1032.06 1513.66 1037.87 1513.66 Z" fill="#000000" fill-rule="nonzero" fill-opacity="1" /><path clip-path="url(#clip420)" d="M1068.03 1517.37 Q1064.42 1517.37 1062.59 1520.93 Q1060.78 1524.47 1060.78 1531.6 Q1060.78 1538.71 1062.59 1542.27 Q1064.42 1545.82 1068.03 1545.82 Q1071.66 1545.82 1073.47 1542.27 Q1075.3 1538.71 1075.3 1531.6 Q1075.3 1524.47 1073.47 1520.93 Q1071.66 1517.37 1068.03 1517.37 M1068.03 1513.66 Q1073.84 1513.66 1076.89 1518.27 Q1079.97 1522.85 1079.97 1531.6 Q1079.97 1540.33 1076.89 1544.94 Q1073.84 1549.52 1068.03 1549.52 Q1062.22 1549.52 1059.14 1544.94 Q1056.08 1540.33 1056.08 1531.6 Q1056.08 1522.85 1059.14 1518.27 Q1062.22 1513.66 1068.03 1513.66 Z" fill="#000000" fill-rule="nonzero" fill-opacity="1" /><path clip-path="url(#clip420)" d="M1429.17 1530.21 Q1432.53 1530.93 1434.4 1533.2 Q1436.3 1535.47 1436.3 1538.8 Q1436.3 1543.92 1432.78 1546.72 Q1429.26 1549.52 1422.78 1549.52 Q1420.61 1549.52 1418.29 1549.08 Q1416 1548.66 1413.55 1547.81 L1413.55 1543.29 Q1415.49 1544.43 1417.81 1545.01 Q1420.12 1545.58 1422.64 1545.58 Q1427.04 1545.58 1429.33 1543.85 Q1431.65 1542.11 1431.65 1538.8 Q1431.65 1535.75 1429.5 1534.03 Q1427.37 1532.3 1423.55 1532.3 L1419.52 1532.3 L1419.52 1528.45 L1423.73 1528.45 Q1427.18 1528.45 1429.01 1527.09 Q1430.84 1525.7 1430.84 1523.11 Q1430.84 1520.45 1428.94 1519.03 Q1427.07 1517.6 1423.55 1517.6 Q1421.63 1517.6 1419.43 1518.01 Q1417.23 1518.43 1414.59 1519.31 L1414.59 1515.14 Q1417.25 1514.4 1419.57 1514.03 Q1421.9 1513.66 1423.96 1513.66 Q1429.29 1513.66 1432.39 1516.09 Q1435.49 1518.5 1435.49 1522.62 Q1435.49 1525.49 1433.85 1527.48 Q1432.2 1529.45 1429.17 1530.21 Z" fill="#000000" fill-rule="nonzero" fill-opacity="1" /><path clip-path="url(#clip420)" d="M1455.17 1517.37 Q1451.56 1517.37 1449.73 1520.93 Q1447.92 1524.47 1447.92 1531.6 Q1447.92 1538.71 1449.73 1542.27 Q1451.56 1545.82 1455.17 1545.82 Q1458.8 1545.82 1460.61 1542.27 Q1462.44 1538.71 1462.44 1531.6 Q1462.44 1524.47 1460.61 1520.93 Q1458.8 1517.37 1455.17 1517.37 M1455.17 1513.66 Q1460.98 1513.66 1464.03 1518.27 Q1467.11 1522.85 1467.11 1531.6 Q1467.11 1540.33 1464.03 1544.94 Q1460.98 1549.52 1455.17 1549.52 Q1449.36 1549.52 1446.28 1544.94 Q1443.22 1540.33 1443.22 1531.6 Q1443.22 1522.85 1446.28 1518.27 Q1449.36 1513.66 1455.17 1513.66 Z" fill="#000000" fill-rule="nonzero" fill-opacity="1" /><path clip-path="url(#clip420)" d="M1485.33 1517.37 Q1481.72 1517.37 1479.89 1520.93 Q1478.08 1524.47 1478.08 1531.6 Q1478.08 1538.71 1479.89 1542.27 Q1481.72 1545.82 1485.33 1545.82 Q1488.96 1545.82 1490.77 1542.27 Q1492.6 1538.71 1492.6 1531.6 Q1492.6 1524.47 1490.77 1520.93 Q1488.96 1517.37 1485.33 1517.37 M1485.33 1513.66 Q1491.14 1513.66 1494.2 1518.27 Q1497.27 1522.85 1497.27 1531.6 Q1497.27 1540.33 1494.2 1544.94 Q1491.14 1549.52 1485.33 1549.52 Q1479.52 1549.52 1476.44 1544.94 Q1473.39 1540.33 1473.39 1531.6 Q1473.39 1522.85 1476.44 1518.27 Q1479.52 1513.66 1485.33 1513.66 Z" fill="#000000" fill-rule="nonzero" fill-opacity="1" /><path clip-path="url(#clip420)" d="M1845.87 1518.36 L1834.07 1536.81 L1845.87 1536.81 L1845.87 1518.36 M1844.64 1514.29 L1850.52 1514.29 L1850.52 1536.81 L1855.45 1536.81 L1855.45 1540.7 L1850.52 1540.7 L1850.52 1548.85 L1845.87 1548.85 L1845.87 1540.7 L1830.27 1540.7 L1830.27 1536.19 L1844.64 1514.29 Z" fill="#000000" fill-rule="nonzero" fill-opacity="1" /><path clip-path="url(#clip420)" d="M1873.19 1517.37 Q1869.57 1517.37 1867.75 1520.93 Q1865.94 1524.47 1865.94 1531.6 Q1865.94 1538.71 1867.75 1542.27 Q1869.57 1545.82 1873.19 1545.82 Q1876.82 1545.82 1878.63 1542.27 Q1880.45 1538.71 1880.45 1531.6 Q1880.45 1524.47 1878.63 1520.93 Q1876.82 1517.37 1873.19 1517.37 M1873.19 1513.66 Q1879 1513.66 1882.05 1518.27 Q1885.13 1522.85 1885.13 1531.6 Q1885.13 1540.33 1882.05 1544.94 Q1879 1549.52 1873.19 1549.52 Q1867.38 1549.52 1864.3 1544.94 Q1861.24 1540.33 1861.24 1531.6 Q1861.24 1522.85 1864.3 1518.27 Q1867.38 1513.66 1873.19 1513.66 Z" fill="#000000" fill-rule="nonzero" fill-opacity="1" /><path clip-path="url(#clip420)" d="M1903.35 1517.37 Q1899.74 1517.37 1897.91 1520.93 Q1896.1 1524.47 1896.1 1531.6 Q1896.1 1538.71 1897.91 1542.27 Q1899.74 1545.82 1903.35 1545.82 Q1906.98 1545.82 1908.79 1542.27 Q1910.62 1538.71 1910.62 1531.6 Q1910.62 1524.47 1908.79 1520.93 Q1906.98 1517.37 1903.35 1517.37 M1903.35 1513.66 Q1909.16 1513.66 1912.21 1518.27 Q1915.29 1522.85 1915.29 1531.6 Q1915.29 1540.33 1912.21 1544.94 Q1909.16 1549.52 1903.35 1549.52 Q1897.54 1549.52 1894.46 1544.94 Q1891.4 1540.33 1891.4 1531.6 Q1891.4 1522.85 1894.46 1518.27 Q1897.54 1513.66 1903.35 1513.66 Z" fill="#000000" fill-rule="nonzero" fill-opacity="1" /><path clip-path="url(#clip420)" d="M2249.77 1514.29 L2268.13 1514.29 L2268.13 1518.22 L2254.05 1518.22 L2254.05 1526.7 Q2255.07 1526.35 2256.09 1526.19 Q2257.11 1526 2258.13 1526 Q2263.91 1526 2267.29 1529.17 Q2270.67 1532.34 2270.67 1537.76 Q2270.67 1543.34 2267.2 1546.44 Q2263.73 1549.52 2257.41 1549.52 Q2255.23 1549.52 2252.96 1549.15 Q2250.72 1548.78 2248.31 1548.04 L2248.31 1543.34 Q2250.39 1544.47 2252.62 1545.03 Q2254.84 1545.58 2257.31 1545.58 Q2261.32 1545.58 2263.66 1543.48 Q2266 1541.37 2266 1537.76 Q2266 1534.15 2263.66 1532.04 Q2261.32 1529.94 2257.31 1529.94 Q2255.44 1529.94 2253.56 1530.35 Q2251.71 1530.77 2249.77 1531.65 L2249.77 1514.29 Z" fill="#000000" fill-rule="nonzero" fill-opacity="1" /><path clip-path="url(#clip420)" d="M2289.88 1517.37 Q2286.27 1517.37 2284.44 1520.93 Q2282.64 1524.47 2282.64 1531.6 Q2282.64 1538.71 2284.44 1542.27 Q2286.27 1545.82 2289.88 1545.82 Q2293.52 1545.82 2295.32 1542.27 Q2297.15 1538.71 2297.15 1531.6 Q2297.15 1524.47 2295.32 1520.93 Q2293.52 1517.37 2289.88 1517.37 M2289.88 1513.66 Q2295.69 1513.66 2298.75 1518.27 Q2301.83 1522.85 2301.83 1531.6 Q2301.83 1540.33 2298.75 1544.94 Q2295.69 1549.52 2289.88 1549.52 Q2284.07 1549.52 2281 1544.94 Q2277.94 1540.33 2277.94 1531.6 Q2277.94 1522.85 2281 1518.27 Q2284.07 1513.66 2289.88 1513.66 Z" fill="#000000" fill-rule="nonzero" fill-opacity="1" /><path clip-path="url(#clip420)" d="M2320.05 1517.37 Q2316.44 1517.37 2314.61 1520.93 Q2312.8 1524.47 2312.8 1531.6 Q2312.8 1538.71 2314.61 1542.27 Q2316.44 1545.82 2320.05 1545.82 Q2323.68 1545.82 2325.49 1542.27 Q2327.31 1538.71 2327.31 1531.6 Q2327.31 1524.47 2325.49 1520.93 Q2323.68 1517.37 2320.05 1517.37 M2320.05 1513.66 Q2325.86 1513.66 2328.91 1518.27 Q2331.99 1522.85 2331.99 1531.6 Q2331.99 1540.33 2328.91 1544.94 Q2325.86 1549.52 2320.05 1549.52 Q2314.24 1549.52 2311.16 1544.94 Q2308.1 1540.33 2308.1 1531.6 Q2308.1 1522.85 2311.16 1518.27 Q2314.24 1513.66 2320.05 1513.66 Z" fill="#000000" fill-rule="nonzero" fill-opacity="1" /><polyline clip-path="url(#clip422)" style="stroke:#000000; stroke-linecap:round; stroke-linejoin:round; stroke-width:2; stroke-opacity:0.1; fill:none" points="140.696,1148 2352.76,1148 "/>
<polyline clip-path="url(#clip422)" style="stroke:#000000; stroke-linecap:round; stroke-linejoin:round; stroke-width:2; stroke-opacity:0.1; fill:none" points="140.696,804.668 2352.76,804.668 "/>
<polyline clip-path="url(#clip422)" style="stroke:#000000; stroke-linecap:round; stroke-linejoin:round; stroke-width:2; stroke-opacity:0.1; fill:none" points="140.696,461.338 2352.76,461.338 "/>
<polyline clip-path="url(#clip422)" style="stroke:#000000; stroke-linecap:round; stroke-linejoin:round; stroke-width:2; stroke-opacity:0.1; fill:none" points="140.696,118.008 2352.76,118.008 "/>
<polyline clip-path="url(#clip420)" style="stroke:#000000; stroke-linecap:round; stroke-linejoin:round; stroke-width:4; stroke-opacity:1; fill:none" points="140.696,1486.45 140.696,47.2441 "/>
<polyline clip-path="url(#clip420)" style="stroke:#000000; stroke-linecap:round; stroke-linejoin:round; stroke-width:4; stroke-opacity:1; fill:none" points="140.696,1148 159.593,1148 "/>
<polyline clip-path="url(#clip420)" style="stroke:#000000; stroke-linecap:round; stroke-linejoin:round; stroke-width:4; stroke-opacity:1; fill:none" points="140.696,804.668 159.593,804.668 "/>
<polyline clip-path="url(#clip420)" style="stroke:#000000; stroke-linecap:round; stroke-linejoin:round; stroke-width:4; stroke-opacity:1; fill:none" points="140.696,461.338 159.593,461.338 "/>
<polyline clip-path="url(#clip420)" style="stroke:#000000; stroke-linecap:round; stroke-linejoin:round; stroke-width:4; stroke-opacity:1; fill:none" points="140.696,118.008 159.593,118.008 "/>
<path clip-path="url(#clip420)" d="M83.7929 1130.72 L102.149 1130.72 L102.149 1134.65 L88.0753 1134.65 L88.0753 1143.13 Q89.0938 1142.78 90.1123 1142.62 Q91.1308 1142.43 92.1493 1142.43 Q97.9363 1142.43 101.316 1145.6 Q104.696 1148.77 104.696 1154.19 Q104.696 1159.77 101.223 1162.87 Q97.7511 1165.95 91.4317 1165.95 Q89.2558 1165.95 86.9873 1165.58 Q84.7419 1165.21 82.3346 1164.47 L82.3346 1159.77 Q84.4179 1160.9 86.6401 1161.46 Q88.8623 1162.01 91.3391 1162.01 Q95.3437 1162.01 97.6817 1159.91 Q100.02 1157.8 100.02 1154.19 Q100.02 1150.58 97.6817 1148.47 Q95.3437 1146.37 91.3391 1146.37 Q89.4641 1146.37 87.5892 1146.78 Q85.7373 1147.2 83.7929 1148.08 L83.7929 1130.72 Z" fill="#000000" fill-rule="nonzero" fill-opacity="1" /><path clip-path="url(#clip420)" d="M53.3995 818.013 L61.0384 818.013 L61.0384 791.647 L52.7282 793.314 L52.7282 789.054 L60.9921 787.388 L65.668 787.388 L65.668 818.013 L73.3068 818.013 L73.3068 821.948 L53.3995 821.948 L53.3995 818.013 Z" fill="#000000" fill-rule="nonzero" fill-opacity="1" /><path clip-path="url(#clip420)" d="M92.7512 790.466 Q89.1401 790.466 87.3114 794.031 Q85.5058 797.573 85.5058 804.703 Q85.5058 811.809 87.3114 815.374 Q89.1401 818.915 92.7512 818.915 Q96.3854 818.915 98.1909 815.374 Q100.02 811.809 100.02 804.703 Q100.02 797.573 98.1909 794.031 Q96.3854 790.466 92.7512 790.466 M92.7512 786.763 Q98.5613 786.763 101.617 791.369 Q104.696 795.953 104.696 804.703 Q104.696 813.429 101.617 818.036 Q98.5613 822.619 92.7512 822.619 Q86.941 822.619 83.8623 818.036 Q80.8068 813.429 80.8068 804.703 Q80.8068 795.953 83.8623 791.369 Q86.941 786.763 92.7512 786.763 Z" fill="#000000" fill-rule="nonzero" fill-opacity="1" /><path clip-path="url(#clip420)" d="M54.3949 474.683 L62.0337 474.683 L62.0337 448.317 L53.7236 449.984 L53.7236 445.724 L61.9874 444.058 L66.6633 444.058 L66.6633 474.683 L74.3022 474.683 L74.3022 478.618 L54.3949 478.618 L54.3949 474.683 Z" fill="#000000" fill-rule="nonzero" fill-opacity="1" /><path clip-path="url(#clip420)" d="M83.7929 444.058 L102.149 444.058 L102.149 447.993 L88.0753 447.993 L88.0753 456.465 Q89.0938 456.118 90.1123 455.956 Q91.1308 455.771 92.1493 455.771 Q97.9363 455.771 101.316 458.942 Q104.696 462.113 104.696 467.53 Q104.696 473.109 101.223 476.21 Q97.7511 479.289 91.4317 479.289 Q89.2558 479.289 86.9873 478.919 Q84.7419 478.548 82.3346 477.808 L82.3346 473.109 Q84.4179 474.243 86.6401 474.798 Q88.8623 475.354 91.3391 475.354 Q95.3437 475.354 97.6817 473.247 Q100.02 471.141 100.02 467.53 Q100.02 463.919 97.6817 461.812 Q95.3437 459.706 91.3391 459.706 Q89.4641 459.706 87.5892 460.122 Q85.7373 460.539 83.7929 461.419 L83.7929 444.058 Z" fill="#000000" fill-rule="nonzero" fill-opacity="1" /><path clip-path="url(#clip420)" d="M56.6171 131.353 L72.9365 131.353 L72.9365 135.288 L50.9921 135.288 L50.9921 131.353 Q53.6541 128.598 58.2375 123.968 Q62.8439 119.316 64.0245 117.973 Q66.2698 115.45 67.1494 113.714 Q68.0522 111.954 68.0522 110.265 Q68.0522 107.51 66.1078 105.774 Q64.1865 104.038 61.0847 104.038 Q58.8856 104.038 56.4319 104.802 Q54.0014 105.566 51.2236 107.117 L51.2236 102.394 Q54.0477 101.26 56.5014 100.681 Q58.955 100.103 60.9921 100.103 Q66.3624 100.103 69.5568 102.788 Q72.7513 105.473 72.7513 109.964 Q72.7513 112.093 71.9411 114.015 Q71.1541 115.913 69.0476 118.505 Q68.4689 119.177 65.367 122.394 Q62.2652 125.589 56.6171 131.353 Z" fill="#000000" fill-rule="nonzero" fill-opacity="1" /><path clip-path="url(#clip420)" d="M92.7512 103.806 Q89.1401 103.806 87.3114 107.371 Q85.5058 110.913 85.5058 118.042 Q85.5058 125.149 87.3114 128.714 Q89.1401 132.255 92.7512 132.255 Q96.3854 132.255 98.1909 128.714 Q100.02 125.149 100.02 118.042 Q100.02 110.913 98.1909 107.371 Q96.3854 103.806 92.7512 103.806 M92.7512 100.103 Q98.5613 100.103 101.617 104.709 Q104.696 109.292 104.696 118.042 Q104.696 126.769 101.617 131.376 Q98.5613 135.959 92.7512 135.959 Q86.941 135.959 83.8623 131.376 Q80.8068 126.769 80.8068 118.042 Q80.8068 109.292 83.8623 104.709 Q86.941 100.103 92.7512 100.103 Z" fill="#000000" fill-rule="nonzero" fill-opacity="1" /><polyline clip-path="url(#clip422)" style="stroke:#009af9; stroke-linecap:round; stroke-linejoin:round; stroke-width:4; stroke-opacity:1; fill:none" points="203.301,1154.82 207.475,1054.65 211.648,1300.85 215.822,1107.87 219.996,1219.95 224.17,1194.79 228.343,1194.13 232.517,1283.44 236.691,1251.22 240.864,1135.17 245.038,1271.2 249.212,1195.37 253.385,1170.36 257.559,182.791 261.733,1148.03 265.907,1033.98 270.08,1342.65 274.254,861.876 278.428,1026.07 282.601,1157.19 286.775,562.243 290.949,1289.8 295.122,1025.48 299.296,1206.17 303.47,985.292 307.643,1319.73 311.817,1105.75 315.991,978.415 320.165,1206.84 324.338,922.829 328.512,1320.14 332.686,947.758 336.859,740.024 341.033,945.846 345.207,1024.03 349.38,929.701 353.554,1236.59 357.728,908.209 361.902,1096.98 366.075,1174.76 370.249,1095.53 374.423,1304.29 378.596,909.694 382.77,634.027 386.944,1010.72 391.117,994.049 395.291,817.056 399.465,350.245 403.639,1045.07 407.812,1380.4 411.986,1157.18 416.16,1129.54 420.333,954.656 424.507,937.384 428.681,1334.47 432.854,1027.86 437.028,902.095 441.202,1032.86 445.376,1148.56 449.549,1197.82 453.723,1259.39 457.897,1095.24 462.07,719.286 466.244,1260.53 470.418,1191.27 474.591,896.44 478.765,1070.04 482.939,987.658 487.113,1341.41 491.286,1173.87 495.46,1313.46 499.634,1078.17 503.807,748.582 507.981,1247.73 512.155,1007.61 516.328,1445.72 520.502,1025.81 524.676,1132.19 528.85,1105.04 533.023,1226.9 537.197,1330.98 541.371,816.537 545.544,1157.26 549.718,882.954 553.892,859.757 558.065,1174.03 562.239,1222.74 566.413,1174.06 570.587,1168.45 574.76,1238.23 578.934,665.512 583.108,1051.16 587.281,922.013 591.455,1400.78 595.629,1134.51 599.802,1116.6 603.976,1209.88 608.15,1176.92 612.324,1054.39 616.497,1130.98 620.671,1325.34 624.845,1197.88 629.018,966.029 633.192,1017.18 637.366,1061.35 641.539,1085.46 645.713,1196.34 649.887,1124.74 654.06,1193.33 658.234,1236.76 662.408,980.864 666.582,1170.62 670.755,1267.2 674.929,1215.12 679.103,807.293 683.276,1264.11 687.45,1115.01 691.624,1183.67 695.797,1008.62 699.971,1013.72 704.145,694.216 708.319,1134.98 712.492,1258.86 716.666,1035.67 720.84,884.339 725.013,662.464 729.187,974.842 733.361,835.68 737.534,1081.86 741.708,801.337 745.882,1149.96 750.056,1134.65 754.229,1156.99 758.403,735.765 762.577,912.973 766.75,786.287 770.924,1251.92 775.098,892.01 779.271,1263.58 783.445,1254.81 787.619,919.395 791.793,1259.66 795.966,1123.83 800.14,838.909 804.314,1237.57 808.487,1341.96 812.661,1010.66 816.835,1096.83 821.008,1208.61 825.182,929.476 829.356,757.573 833.53,1364.72 837.703,1199.26 841.877,1242.66 846.051,1250.58 850.224,860.429 854.398,587.668 858.572,1147.26 862.745,1234.46 866.919,1001.7 871.093,1232.11 875.267,1220.57 879.44,1215.04 883.614,1284.45 887.788,1064.73 891.961,1191.98 896.135,1091.97 900.309,1252.33 904.482,505.81 908.656,1279.96 912.83,1325.92 917.004,1226.89 921.177,1090.82 925.351,1071.25 929.525,353.881 933.698,1170.7 937.872,1142.34 942.046,923.305 946.219,1064.93 950.393,1270.32 954.567,1265.69 958.741,1101.18 962.914,1092.82 967.088,996.859 971.262,1025.88 975.435,1035.75 979.609,1227.58 983.783,904.905 987.956,725.59 992.13,1037.33 996.304,1169.3 1000.48,1216.16 1004.65,990.901 1008.82,1337.62 1013,1079.56 1017.17,702.605 1021.35,1178.43 1025.52,925.933 1029.69,1228.15 1033.87,1283.44 1038.04,820.688 1042.21,1312.49 1046.39,745.573 1050.56,1084.02 1054.74,1217.65 1058.91,1212.54 1063.08,1097.38 1067.26,985.874 1071.43,724.131 1075.6,1128.75 1079.78,1263.8 1083.95,1076.76 1088.13,1152.4 1092.3,1177.67 1096.47,1007.9 1100.65,1041.84 1104.82,1163.38 1108.99,1183.43 1113.17,1090.98 1117.34,1040.59 1121.51,1147.62 1125.69,912.359 1129.86,1198.61 1134.04,1178.53 1138.21,1162.94 1142.38,908.592 1146.56,1246.77 1150.73,1164.26 1154.9,959.315 1159.08,891.399 1163.25,745.124 1167.43,1033.18 1171.6,920.471 1175.77,1094.49 1179.95,1207.13 1184.12,989.068 1188.29,1108.43 1192.47,960.393 1196.64,1110.51 1200.82,880.119 1204.99,1147.42 1209.16,783.023 1213.34,1274.68 1217.51,1172.84 1221.68,1196.79 1225.86,730.352 1230.03,1182.44 1234.2,1235.88 1238.38,1105.67 1242.55,1232.64 1246.73,1088.67 1250.9,1126.52 1255.07,1005.8 1259.25,1001.81 1263.42,913.191 1267.59,1252.25 1271.77,861.092 1275.94,1036.28 1280.12,1044 1284.29,935.025 1288.46,935.516 1292.64,1246.01 1296.81,1195.56 1300.98,87.9763 1305.16,1095.98 1309.33,948.139 1313.5,784.723 1317.68,1160.12 1321.85,1238.75 1326.03,1070.06 1330.2,1214.2 1334.37,1056.98 1338.55,830.051 1342.72,1395.47 1346.89,918.324 1351.07,917.888 1355.24,742.73 1359.42,632.75 1363.59,693.555 1367.76,921.552 1371.94,1244.09 1376.11,1231.11 1380.28,856.614 1384.46,1371.75 1388.63,1146.91 1392.81,1051.83 1396.98,1229.45 1401.15,1032.37 1405.33,1111.41 1409.5,1085.71 1413.67,995.91 1417.85,916.273 1422.02,185.805 1426.19,858.271 1430.37,750.047 1434.54,1225.95 1438.72,1055.88 1442.89,1257.59 1447.06,992.579 1451.24,877.594 1455.41,1036.55 1459.58,726.551 1463.76,916.715 1467.93,1088.87 1472.11,1346.16 1476.28,1175.59 1480.45,820.565 1484.63,1335.83 1488.8,913.384 1492.97,932.028 1497.15,1087.14 1501.32,1171.43 1505.5,968.095 1509.67,924.009 1513.84,1163.55 1518.02,1229.16 1522.19,850.829 1526.36,918.038 1530.54,972.366 1534.71,1184.95 1538.88,1240.83 1543.06,1172.5 1547.23,1005.48 1551.41,1277.42 1555.58,1002.99 1559.75,1191 1563.93,1191.1 1568.1,996.816 1572.27,993.54 1576.45,968.812 1580.62,1173.44 1584.8,1205.51 1588.97,1218.15 1593.14,1030.13 1597.32,1209.82 1601.49,1136.48 1605.66,1096.44 1609.84,818.706 1614.01,1001.13 1618.18,669.664 1622.36,1175.68 1626.53,989.623 1630.71,1158.18 1634.88,1008.93 1639.05,837.061 1643.23,1158.95 1647.4,867.073 1651.57,330.813 1655.75,1052.58 1659.92,776.489 1664.1,968.534 1668.27,1021.34 1672.44,1174.65 1676.62,1018.86 1680.79,1154.29 1684.96,304.624 1689.14,1127.53 1693.31,743.478 1697.49,1207.25 1701.66,844.726 1705.83,1127.26 1710.01,1026.95 1714.18,1008.83 1718.35,904.881 1722.53,1064.22 1726.7,1147.38 1730.87,850.965 1735.05,926.161 1739.22,1166.57 1743.4,1075.13 1747.57,980.627 1751.74,926.048 1755.92,612.923 1760.09,1027.17 1764.26,1057.43 1768.44,1057.35 1772.61,776.047 1776.79,765.284 1780.96,927.528 1785.13,1178.02 1789.31,910.105 1793.48,928.985 1797.65,1196.57 1801.83,659.32 1806,1047.9 1810.18,1131.76 1814.35,1200.06 1818.52,1160.23 1822.7,1133.45 1826.87,1207.49 1831.04,855.079 1835.22,939.651 1839.39,1160 1843.56,1166.68 1847.74,1033.53 1851.91,610.499 1856.09,1133.7 1860.26,512.037 1864.43,905.647 1868.61,731.884 1872.78,1175.26 1876.95,1009.2 1881.13,1319.63 1885.3,523.856 1889.48,1223.72 1893.65,950.405 1897.82,731.61 1902,1021.14 1906.17,1280.61 1910.34,1310.03 1914.52,1157.87 1918.69,1263.04 1922.86,1214.18 1927.04,1209.77 1931.21,837.999 1935.39,616.742 1939.56,1038.28 1943.73,1252.44 1947.91,755.33 1952.08,740.802 1956.25,1112.08 1960.43,773.93 1964.6,960.599 1968.78,829.901 1972.95,1037.16 1977.12,1244.61 1981.3,949.32 1985.47,660.206 1989.64,1176.19 1993.82,1213.8 1997.99,1124.03 2002.17,1055.18 2006.34,1154.28 2010.51,740.08 2014.69,1172.66 2018.86,951.573 2023.03,1217.93 2027.21,1225.87 2031.38,490.271 2035.55,1113.49 2039.73,701.738 2043.9,1082.21 2048.08,1047.06 2052.25,1225 2056.42,1329.25 2060.6,995.557 2064.77,769.566 2068.94,1195.83 2073.12,813.564 2077.29,1231.88 2081.47,884.468 2085.64,987.972 2089.81,1170.29 2093.99,1211.92 2098.16,802.005 2102.33,877.58 2106.51,1041.41 2110.68,1283.05 2114.86,744.272 2119.03,1146.37 2123.2,955.437 2127.38,1213.48 2131.55,1189.81 2135.72,984.666 2139.9,1255.56 2144.07,1117.61 2148.24,653.848 2152.42,1233.57 2156.59,1316.04 2160.77,935.481 2164.94,1118.1 2169.11,1152.8 2173.29,959.876 2177.46,678.845 2181.63,520.383 2185.81,462.121 2189.98,1058.6 2194.16,1181.17 2198.33,702.119 2202.5,1288.72 2206.68,850.349 2210.85,1061.7 2215.02,1248.57 2219.2,1411.03 2223.37,697.632 2227.54,932.842 2231.72,968.902 2235.89,969.884 2240.07,978.689 2244.24,1194.24 2248.41,1039.52 2252.59,1058.47 2256.76,428.188 2260.93,1084.68 2265.11,1121.38 2269.28,965.859 2273.46,926.387 2277.63,977.535 2281.8,1230.18 2285.98,957.424 2290.15,957.598 "/>
<path clip-path="url(#clip420)" d="M2005.38 198.898 L2279.02 198.898 L2279.02 95.2176 L2005.38 95.2176  Z" fill="#ffffff" fill-rule="evenodd" fill-opacity="1"/>
<polyline clip-path="url(#clip420)" style="stroke:#000000; stroke-linecap:round; stroke-linejoin:round; stroke-width:4; stroke-opacity:1; fill:none" points="2005.38,198.898 2279.02,198.898 2279.02,95.2176 2005.38,95.2176 2005.38,198.898 "/>
<polyline clip-path="url(#clip420)" style="stroke:#009af9; stroke-linecap:round; stroke-linejoin:round; stroke-width:4; stroke-opacity:1; fill:none" points="2029.96,147.058 2177.43,147.058 "/>
<path clip-path="url(#clip420)" d="M2215.85 166.745 Q2214.05 171.375 2212.34 172.787 Q2210.62 174.199 2207.75 174.199 L2204.35 174.199 L2204.35 170.634 L2206.85 170.634 Q2208.61 170.634 2209.58 169.8 Q2210.55 168.967 2211.73 165.865 L2212.5 163.921 L2202.01 138.412 L2206.53 138.412 L2214.63 158.689 L2222.73 138.412 L2227.24 138.412 L2215.85 166.745 Z" fill="#000000" fill-rule="nonzero" fill-opacity="1" /><path clip-path="url(#clip420)" d="M2234.53 160.402 L2242.17 160.402 L2242.17 134.037 L2233.86 135.703 L2233.86 131.444 L2242.13 129.778 L2246.8 129.778 L2246.8 160.402 L2254.44 160.402 L2254.44 164.338 L2234.53 164.338 L2234.53 160.402 Z" fill="#000000" fill-rule="nonzero" fill-opacity="1" /></svg>
