<?xml version="1.0" encoding="utf-8"?>
<svg xmlns="http://www.w3.org/2000/svg" xmlns:xlink="http://www.w3.org/1999/xlink" width="600" height="400" viewBox="0 0 2400 1600">
<defs>
  <clipPath id="clip630">
    <rect x="0" y="0" width="2400" height="1600"/>
  </clipPath>
</defs>
<path clip-path="url(#clip630)" d="M0 1600 L2400 1600 L2400 0 L0 0  Z" fill="#ffffff" fill-rule="evenodd" fill-opacity="1"/>
<defs>
  <clipPath id="clip631">
    <rect x="480" y="0" width="1681" height="1600"/>
  </clipPath>
</defs>
<path clip-path="url(#clip630)" d="M277.431 1486.45 L2352.76 1486.45 L2352.76 47.2441 L277.431 47.2441  Z" fill="#ffffff" fill-rule="evenodd" fill-opacity="1"/>
<defs>
  <clipPath id="clip632">
    <rect x="277" y="47" width="2076" height="1440"/>
  </clipPath>
</defs>
<polyline clip-path="url(#clip632)" style="stroke:#000000; stroke-linecap:round; stroke-linejoin:round; stroke-width:2; stroke-opacity:0.1; fill:none" points="336.167,1486.45 336.167,47.2441 "/>
<polyline clip-path="url(#clip632)" style="stroke:#000000; stroke-linecap:round; stroke-linejoin:round; stroke-width:2; stroke-opacity:0.1; fill:none" points="825.63,1486.45 825.63,47.2441 "/>
<polyline clip-path="url(#clip632)" style="stroke:#000000; stroke-linecap:round; stroke-linejoin:round; stroke-width:2; stroke-opacity:0.1; fill:none" points="1315.09,1486.45 1315.09,47.2441 "/>
<polyline clip-path="url(#clip632)" style="stroke:#000000; stroke-linecap:round; stroke-linejoin:round; stroke-width:2; stroke-opacity:0.1; fill:none" points="1804.56,1486.45 1804.56,47.2441 "/>
<polyline clip-path="url(#clip632)" style="stroke:#000000; stroke-linecap:round; stroke-linejoin:round; stroke-width:2; stroke-opacity:0.1; fill:none" points="2294.02,1486.45 2294.02,47.2441 "/>
<polyline clip-path="url(#clip630)" style="stroke:#000000; stroke-linecap:round; stroke-linejoin:round; stroke-width:4; stroke-opacity:1; fill:none" points="277.431,1486.45 2352.76,1486.45 "/>
<polyline clip-path="url(#clip630)" style="stroke:#000000; stroke-linecap:round; stroke-linejoin:round; stroke-width:4; stroke-opacity:1; fill:none" points="336.167,1486.45 336.167,1467.55 "/>
<polyline clip-path="url(#clip630)" style="stroke:#000000; stroke-linecap:round; stroke-linejoin:round; stroke-width:4; stroke-opacity:1; fill:none" points="825.63,1486.45 825.63,1467.55 "/>
<polyline clip-path="url(#clip630)" style="stroke:#000000; stroke-linecap:round; stroke-linejoin:round; stroke-width:4; stroke-opacity:1; fill:none" points="1315.09,1486.45 1315.09,1467.55 "/>
<polyline clip-path="url(#clip630)" style="stroke:#000000; stroke-linecap:round; stroke-linejoin:round; stroke-width:4; stroke-opacity:1; fill:none" points="1804.56,1486.45 1804.56,1467.55 "/>
<polyline clip-path="url(#clip630)" style="stroke:#000000; stroke-linecap:round; stroke-linejoin:round; stroke-width:4; stroke-opacity:1; fill:none" points="2294.02,1486.45 2294.02,1467.55 "/>
<path clip-path="url(#clip630)" d="M336.167 1517.37 Q332.555 1517.37 330.727 1520.93 Q328.921 1524.47 328.921 1531.6 Q328.921 1538.71 330.727 1542.27 Q332.555 1545.82 336.167 1545.82 Q339.801 1545.82 341.606 1542.27 Q343.435 1538.71 343.435 1531.6 Q343.435 1524.47 341.606 1520.93 Q339.801 1517.37 336.167 1517.37 M336.167 1513.66 Q341.977 1513.66 345.032 1518.27 Q348.111 1522.85 348.111 1531.6 Q348.111 1540.33 345.032 1544.94 Q341.977 1549.52 336.167 1549.52 Q330.356 1549.52 327.278 1544.94 Q324.222 1540.33 324.222 1531.6 Q324.222 1522.85 327.278 1518.27 Q330.356 1513.66 336.167 1513.66 Z" fill="#000000" fill-rule="nonzero" fill-opacity="1" /><path clip-path="url(#clip630)" d="M785.248 1514.29 L803.605 1514.29 L803.605 1518.22 L789.531 1518.22 L789.531 1526.7 Q790.549 1526.35 791.568 1526.19 Q792.586 1526 793.605 1526 Q799.392 1526 802.771 1529.17 Q806.151 1532.34 806.151 1537.76 Q806.151 1543.34 802.679 1546.44 Q799.207 1549.52 792.887 1549.52 Q790.711 1549.52 788.443 1549.15 Q786.197 1548.78 783.79 1548.04 L783.79 1543.34 Q785.873 1544.47 788.095 1545.03 Q790.318 1545.58 792.795 1545.58 Q796.799 1545.58 799.137 1543.48 Q801.475 1541.37 801.475 1537.76 Q801.475 1534.15 799.137 1532.04 Q796.799 1529.94 792.795 1529.94 Q790.92 1529.94 789.045 1530.35 Q787.193 1530.77 785.248 1531.65 L785.248 1514.29 Z" fill="#000000" fill-rule="nonzero" fill-opacity="1" /><path clip-path="url(#clip630)" d="M825.364 1517.37 Q821.753 1517.37 819.924 1520.93 Q818.118 1524.47 818.118 1531.6 Q818.118 1538.71 819.924 1542.27 Q821.753 1545.82 825.364 1545.82 Q828.998 1545.82 830.804 1542.27 Q832.632 1538.71 832.632 1531.6 Q832.632 1524.47 830.804 1520.93 Q828.998 1517.37 825.364 1517.37 M825.364 1513.66 Q831.174 1513.66 834.229 1518.27 Q837.308 1522.85 837.308 1531.6 Q837.308 1540.33 834.229 1544.94 Q831.174 1549.52 825.364 1549.52 Q819.554 1549.52 816.475 1544.94 Q813.419 1540.33 813.419 1531.6 Q813.419 1522.85 816.475 1518.27 Q819.554 1513.66 825.364 1513.66 Z" fill="#000000" fill-rule="nonzero" fill-opacity="1" /><path clip-path="url(#clip630)" d="M855.526 1517.37 Q851.915 1517.37 850.086 1520.93 Q848.28 1524.47 848.28 1531.6 Q848.28 1538.71 850.086 1542.27 Q851.915 1545.82 855.526 1545.82 Q859.16 1545.82 860.965 1542.27 Q862.794 1538.71 862.794 1531.6 Q862.794 1524.47 860.965 1520.93 Q859.16 1517.37 855.526 1517.37 M855.526 1513.66 Q861.336 1513.66 864.391 1518.27 Q867.47 1522.85 867.47 1531.6 Q867.47 1540.33 864.391 1544.94 Q861.336 1549.52 855.526 1549.52 Q849.715 1549.52 846.637 1544.94 Q843.581 1540.33 843.581 1531.6 Q843.581 1522.85 846.637 1518.27 Q849.715 1513.66 855.526 1513.66 Z" fill="#000000" fill-rule="nonzero" fill-opacity="1" /><path clip-path="url(#clip630)" d="M1259.62 1544.91 L1267.26 1544.91 L1267.26 1518.55 L1258.95 1520.21 L1258.95 1515.95 L1267.21 1514.29 L1271.89 1514.29 L1271.89 1544.91 L1279.53 1544.91 L1279.53 1548.85 L1259.62 1548.85 L1259.62 1544.91 Z" fill="#000000" fill-rule="nonzero" fill-opacity="1" /><path clip-path="url(#clip630)" d="M1298.97 1517.37 Q1295.36 1517.37 1293.53 1520.93 Q1291.73 1524.47 1291.73 1531.6 Q1291.73 1538.71 1293.53 1542.27 Q1295.36 1545.82 1298.97 1545.82 Q1302.61 1545.82 1304.41 1542.27 Q1306.24 1538.71 1306.24 1531.6 Q1306.24 1524.47 1304.41 1520.93 Q1302.61 1517.37 1298.97 1517.37 M1298.97 1513.66 Q1304.78 1513.66 1307.84 1518.27 Q1310.92 1522.85 1310.92 1531.6 Q1310.92 1540.33 1307.84 1544.94 Q1304.78 1549.52 1298.97 1549.52 Q1293.16 1549.52 1290.08 1544.94 Q1287.03 1540.33 1287.03 1531.6 Q1287.03 1522.85 1290.08 1518.27 Q1293.16 1513.66 1298.97 1513.66 Z" fill="#000000" fill-rule="nonzero" fill-opacity="1" /><path clip-path="url(#clip630)" d="M1329.13 1517.37 Q1325.52 1517.37 1323.69 1520.93 Q1321.89 1524.47 1321.89 1531.6 Q1321.89 1538.71 1323.69 1542.27 Q1325.52 1545.82 1329.13 1545.82 Q1332.77 1545.82 1334.57 1542.27 Q1336.4 1538.71 1336.4 1531.6 Q1336.4 1524.47 1334.57 1520.93 Q1332.77 1517.37 1329.13 1517.37 M1329.13 1513.66 Q1334.94 1513.66 1338 1518.27 Q1341.08 1522.85 1341.08 1531.6 Q1341.08 1540.33 1338 1544.94 Q1334.94 1549.52 1329.13 1549.52 Q1323.32 1549.52 1320.24 1544.94 Q1317.19 1540.33 1317.19 1531.6 Q1317.19 1522.85 1320.24 1518.27 Q1323.32 1513.66 1329.13 1513.66 Z" fill="#000000" fill-rule="nonzero" fill-opacity="1" /><path clip-path="url(#clip630)" d="M1359.29 1517.37 Q1355.68 1517.37 1353.85 1520.93 Q1352.05 1524.47 1352.05 1531.6 Q1352.05 1538.71 1353.85 1542.27 Q1355.68 1545.82 1359.29 1545.82 Q1362.93 1545.82 1364.73 1542.27 Q1366.56 1538.71 1366.56 1531.6 Q1366.56 1524.47 1364.73 1520.93 Q1362.93 1517.37 1359.29 1517.37 M1359.29 1513.66 Q1365.1 1513.66 1368.16 1518.27 Q1371.24 1522.85 1371.24 1531.6 Q1371.24 1540.33 1368.16 1544.94 Q1365.1 1549.52 1359.29 1549.52 Q1353.48 1549.52 1350.41 1544.94 Q1347.35 1540.33 1347.35 1531.6 Q1347.35 1522.85 1350.41 1518.27 Q1353.48 1513.66 1359.29 1513.66 Z" fill="#000000" fill-rule="nonzero" fill-opacity="1" /><path clip-path="url(#clip630)" d="M1749.08 1544.91 L1756.72 1544.91 L1756.72 1518.55 L1748.41 1520.21 L1748.41 1515.95 L1756.68 1514.29 L1761.35 1514.29 L1761.35 1544.91 L1768.99 1544.91 L1768.99 1548.85 L1749.08 1548.85 L1749.08 1544.91 Z" fill="#000000" fill-rule="nonzero" fill-opacity="1" /><path clip-path="url(#clip630)" d="M1778.48 1514.29 L1796.84 1514.29 L1796.84 1518.22 L1782.76 1518.22 L1782.76 1526.7 Q1783.78 1526.35 1784.8 1526.19 Q1785.82 1526 1786.84 1526 Q1792.62 1526 1796 1529.17 Q1799.38 1532.34 1799.38 1537.76 Q1799.38 1543.34 1795.91 1546.44 Q1792.44 1549.52 1786.12 1549.52 Q1783.94 1549.52 1781.68 1549.15 Q1779.43 1548.78 1777.02 1548.04 L1777.02 1543.34 Q1779.11 1544.47 1781.33 1545.03 Q1783.55 1545.58 1786.03 1545.58 Q1790.03 1545.58 1792.37 1543.48 Q1794.71 1541.37 1794.71 1537.76 Q1794.71 1534.15 1792.37 1532.04 Q1790.03 1529.94 1786.03 1529.94 Q1784.15 1529.94 1782.28 1530.35 Q1780.43 1530.77 1778.48 1531.65 L1778.48 1514.29 Z" fill="#000000" fill-rule="nonzero" fill-opacity="1" /><path clip-path="url(#clip630)" d="M1818.6 1517.37 Q1814.99 1517.37 1813.16 1520.93 Q1811.35 1524.47 1811.35 1531.6 Q1811.35 1538.71 1813.16 1542.27 Q1814.99 1545.82 1818.6 1545.82 Q1822.23 1545.82 1824.04 1542.27 Q1825.86 1538.71 1825.86 1531.6 Q1825.86 1524.47 1824.04 1520.93 Q1822.23 1517.37 1818.6 1517.37 M1818.6 1513.66 Q1824.41 1513.66 1827.46 1518.27 Q1830.54 1522.85 1830.54 1531.6 Q1830.54 1540.33 1827.46 1544.94 Q1824.41 1549.52 1818.6 1549.52 Q1812.79 1549.52 1809.71 1544.94 Q1806.65 1540.33 1806.65 1531.6 Q1806.65 1522.85 1809.71 1518.27 Q1812.79 1513.66 1818.6 1513.66 Z" fill="#000000" fill-rule="nonzero" fill-opacity="1" /><path clip-path="url(#clip630)" d="M1848.76 1517.37 Q1845.15 1517.37 1843.32 1520.93 Q1841.51 1524.47 1841.51 1531.6 Q1841.51 1538.71 1843.32 1542.27 Q1845.15 1545.82 1848.76 1545.82 Q1852.39 1545.82 1854.2 1542.27 Q1856.03 1538.71 1856.03 1531.6 Q1856.03 1524.47 1854.2 1520.93 Q1852.39 1517.37 1848.76 1517.37 M1848.76 1513.66 Q1854.57 1513.66 1857.62 1518.27 Q1860.7 1522.85 1860.7 1531.6 Q1860.7 1540.33 1857.62 1544.94 Q1854.57 1549.52 1848.76 1549.52 Q1842.95 1549.52 1839.87 1544.94 Q1836.81 1540.33 1836.81 1531.6 Q1836.81 1522.85 1839.87 1518.27 Q1842.95 1513.66 1848.76 1513.66 Z" fill="#000000" fill-rule="nonzero" fill-opacity="1" /><path clip-path="url(#clip630)" d="M2242.63 1544.91 L2258.95 1544.91 L2258.95 1548.85 L2237.01 1548.85 L2237.01 1544.91 Q2239.67 1542.16 2244.25 1537.53 Q2248.86 1532.88 2250.04 1531.53 Q2252.28 1529.01 2253.16 1527.27 Q2254.07 1525.51 2254.07 1523.82 Q2254.07 1521.07 2252.12 1519.33 Q2250.2 1517.6 2247.1 1517.6 Q2244.9 1517.6 2242.45 1518.36 Q2240.02 1519.13 2237.24 1520.68 L2237.24 1515.95 Q2240.06 1514.82 2242.52 1514.24 Q2244.97 1513.66 2247.01 1513.66 Q2252.38 1513.66 2255.57 1516.35 Q2258.77 1519.03 2258.77 1523.52 Q2258.77 1525.65 2257.96 1527.57 Q2257.17 1529.47 2255.06 1532.07 Q2254.48 1532.74 2251.38 1535.95 Q2248.28 1539.15 2242.63 1544.91 Z" fill="#000000" fill-rule="nonzero" fill-opacity="1" /><path clip-path="url(#clip630)" d="M2278.77 1517.37 Q2275.15 1517.37 2273.33 1520.93 Q2271.52 1524.47 2271.52 1531.6 Q2271.52 1538.71 2273.33 1542.27 Q2275.15 1545.82 2278.77 1545.82 Q2282.4 1545.82 2284.21 1542.27 Q2286.03 1538.71 2286.03 1531.6 Q2286.03 1524.47 2284.21 1520.93 Q2282.4 1517.37 2278.77 1517.37 M2278.77 1513.66 Q2284.58 1513.66 2287.63 1518.27 Q2290.71 1522.85 2290.71 1531.6 Q2290.71 1540.33 2287.63 1544.94 Q2284.58 1549.52 2278.77 1549.52 Q2272.96 1549.52 2269.88 1544.94 Q2266.82 1540.33 2266.82 1531.6 Q2266.82 1522.85 2269.88 1518.27 Q2272.96 1513.66 2278.77 1513.66 Z" fill="#000000" fill-rule="nonzero" fill-opacity="1" /><path clip-path="url(#clip630)" d="M2308.93 1517.37 Q2305.32 1517.37 2303.49 1520.93 Q2301.68 1524.47 2301.68 1531.6 Q2301.68 1538.71 2303.49 1542.27 Q2305.32 1545.82 2308.93 1545.82 Q2312.56 1545.82 2314.37 1542.27 Q2316.2 1538.71 2316.2 1531.6 Q2316.2 1524.47 2314.37 1520.93 Q2312.56 1517.37 2308.93 1517.37 M2308.93 1513.66 Q2314.74 1513.66 2317.79 1518.27 Q2320.87 1522.85 2320.87 1531.6 Q2320.87 1540.33 2317.79 1544.94 Q2314.74 1549.52 2308.93 1549.52 Q2303.12 1549.52 2300.04 1544.94 Q2296.98 1540.33 2296.98 1531.6 Q2296.98 1522.85 2300.04 1518.27 Q2303.12 1513.66 2308.93 1513.66 Z" fill="#000000" fill-rule="nonzero" fill-opacity="1" /><path clip-path="url(#clip630)" d="M2339.09 1517.37 Q2335.48 1517.37 2333.65 1520.93 Q2331.84 1524.47 2331.84 1531.6 Q2331.84 1538.71 2333.65 1542.27 Q2335.48 1545.82 2339.09 1545.82 Q2342.72 1545.82 2344.53 1542.27 Q2346.36 1538.71 2346.36 1531.6 Q2346.36 1524.47 2344.53 1520.93 Q2342.72 1517.37 2339.09 1517.37 M2339.09 1513.66 Q2344.9 1513.66 2347.96 1518.27 Q2351.03 1522.85 2351.03 1531.6 Q2351.03 1540.33 2347.96 1544.94 Q2344.9 1549.52 2339.09 1549.52 Q2333.28 1549.52 2330.2 1544.94 Q2327.15 1540.33 2327.15 1531.6 Q2327.15 1522.85 2330.2 1518.27 Q2333.28 1513.66 2339.09 1513.66 Z" fill="#000000" fill-rule="nonzero" fill-opacity="1" /><polyline clip-path="url(#clip632)" style="stroke:#000000; stroke-linecap:round; stroke-linejoin:round; stroke-width:2; stroke-opacity:0.1; fill:none" points="277.431,1363.18 2352.76,1363.18 "/>
<polyline clip-path="url(#clip632)" style="stroke:#000000; stroke-linecap:round; stroke-linejoin:round; stroke-width:2; stroke-opacity:0.1; fill:none" points="277.431,954.03 2352.76,954.03 "/>
<polyline clip-path="url(#clip632)" style="stroke:#000000; stroke-linecap:round; stroke-linejoin:round; stroke-width:2; stroke-opacity:0.1; fill:none" points="277.431,544.878 2352.76,544.878 "/>
<polyline clip-path="url(#clip632)" style="stroke:#000000; stroke-linecap:round; stroke-linejoin:round; stroke-width:2; stroke-opacity:0.1; fill:none" points="277.431,135.726 2352.76,135.726 "/>
<polyline clip-path="url(#clip630)" style="stroke:#000000; stroke-linecap:round; stroke-linejoin:round; stroke-width:4; stroke-opacity:1; fill:none" points="277.431,1486.45 277.431,47.2441 "/>
<polyline clip-path="url(#clip630)" style="stroke:#000000; stroke-linecap:round; stroke-linejoin:round; stroke-width:4; stroke-opacity:1; fill:none" points="277.431,1363.18 296.329,1363.18 "/>
<polyline clip-path="url(#clip630)" style="stroke:#000000; stroke-linecap:round; stroke-linejoin:round; stroke-width:4; stroke-opacity:1; fill:none" points="277.431,954.03 296.329,954.03 "/>
<polyline clip-path="url(#clip630)" style="stroke:#000000; stroke-linecap:round; stroke-linejoin:round; stroke-width:4; stroke-opacity:1; fill:none" points="277.431,544.878 296.329,544.878 "/>
<polyline clip-path="url(#clip630)" style="stroke:#000000; stroke-linecap:round; stroke-linejoin:round; stroke-width:4; stroke-opacity:1; fill:none" points="277.431,135.726 296.329,135.726 "/>
<path clip-path="url(#clip630)" d="M54.5569 1382.97 L62.1958 1382.97 L62.1958 1356.61 L53.8856 1358.28 L53.8856 1354.02 L62.1495 1352.35 L66.8254 1352.35 L66.8254 1382.97 L74.4642 1382.97 L74.4642 1386.91 L54.5569 1386.91 L54.5569 1382.97 Z" fill="#000000" fill-rule="nonzero" fill-opacity="1" /><path clip-path="url(#clip630)" d="M83.9086 1381.03 L88.7928 1381.03 L88.7928 1386.91 L83.9086 1386.91 L83.9086 1381.03 Z" fill="#000000" fill-rule="nonzero" fill-opacity="1" /><path clip-path="url(#clip630)" d="M108.978 1355.43 Q105.367 1355.43 103.538 1358.99 Q101.733 1362.53 101.733 1369.66 Q101.733 1376.77 103.538 1380.34 Q105.367 1383.88 108.978 1383.88 Q112.612 1383.88 114.418 1380.34 Q116.246 1376.77 116.246 1369.66 Q116.246 1362.53 114.418 1358.99 Q112.612 1355.43 108.978 1355.43 M108.978 1351.72 Q114.788 1351.72 117.844 1356.33 Q120.922 1360.91 120.922 1369.66 Q120.922 1378.39 117.844 1383 Q114.788 1387.58 108.978 1387.58 Q103.168 1387.58 100.089 1383 Q97.0335 1378.39 97.0335 1369.66 Q97.0335 1360.91 100.089 1356.33 Q103.168 1351.72 108.978 1351.72 Z" fill="#000000" fill-rule="nonzero" fill-opacity="1" /><path clip-path="url(#clip630)" d="M157.311 1361.45 L146.732 1372.07 L157.311 1382.65 L154.556 1385.45 L143.931 1374.83 L133.306 1385.45 L130.575 1382.65 L141.131 1372.07 L130.575 1361.45 L133.306 1358.65 L143.931 1369.27 L154.556 1358.65 L157.311 1361.45 Z" fill="#000000" fill-rule="nonzero" fill-opacity="1" /><path clip-path="url(#clip630)" d="M169.672 1382.97 L177.311 1382.97 L177.311 1356.61 L169.001 1358.28 L169.001 1354.02 L177.265 1352.35 L181.94 1352.35 L181.94 1382.97 L189.579 1382.97 L189.579 1386.91 L169.672 1386.91 L169.672 1382.97 Z" fill="#000000" fill-rule="nonzero" fill-opacity="1" /><path clip-path="url(#clip630)" d="M209.024 1355.43 Q205.413 1355.43 203.584 1358.99 Q201.778 1362.53 201.778 1369.66 Q201.778 1376.77 203.584 1380.34 Q205.413 1383.88 209.024 1383.88 Q212.658 1383.88 214.463 1380.34 Q216.292 1376.77 216.292 1369.66 Q216.292 1362.53 214.463 1358.99 Q212.658 1355.43 209.024 1355.43 M209.024 1351.72 Q214.834 1351.72 217.889 1356.33 Q220.968 1360.91 220.968 1369.66 Q220.968 1378.39 217.889 1383 Q214.834 1387.58 209.024 1387.58 Q203.214 1387.58 200.135 1383 Q197.079 1378.39 197.079 1369.66 Q197.079 1360.91 200.135 1356.33 Q203.214 1351.72 209.024 1351.72 Z" fill="#000000" fill-rule="nonzero" fill-opacity="1" /><path clip-path="url(#clip630)" d="M233.645 1334.73 L224.053 1349.72 L233.645 1349.72 L233.645 1334.73 M232.648 1331.42 L237.425 1331.42 L237.425 1349.72 L241.431 1349.72 L241.431 1352.88 L237.425 1352.88 L237.425 1359.5 L233.645 1359.5 L233.645 1352.88 L220.968 1352.88 L220.968 1349.21 L232.648 1331.42 Z" fill="#000000" fill-rule="nonzero" fill-opacity="1" /><path clip-path="url(#clip630)" d="M57.7745 973.823 L74.0939 973.823 L74.0939 977.758 L52.1495 977.758 L52.1495 973.823 Q54.8115 971.068 59.3949 966.438 Q64.0013 961.786 65.1819 960.443 Q67.4272 957.92 68.3068 956.184 Q69.2096 954.424 69.2096 952.735 Q69.2096 949.98 67.2652 948.244 Q65.3439 946.508 62.2421 946.508 Q60.043 946.508 57.5893 947.272 Q55.1588 948.036 52.381 949.587 L52.381 944.864 Q55.2051 943.73 57.6588 943.151 Q60.1124 942.573 62.1495 942.573 Q67.5198 942.573 70.7142 945.258 Q73.9087 947.943 73.9087 952.434 Q73.9087 954.563 73.0985 956.485 Q72.3115 958.383 70.205 960.975 Q69.6263 961.647 66.5245 964.864 Q63.4226 968.059 57.7745 973.823 Z" fill="#000000" fill-rule="nonzero" fill-opacity="1" /><path clip-path="url(#clip630)" d="M83.9086 971.878 L88.7928 971.878 L88.7928 977.758 L83.9086 977.758 L83.9086 971.878 Z" fill="#000000" fill-rule="nonzero" fill-opacity="1" /><path clip-path="url(#clip630)" d="M108.978 946.276 Q105.367 946.276 103.538 949.841 Q101.733 953.383 101.733 960.512 Q101.733 967.619 103.538 971.184 Q105.367 974.725 108.978 974.725 Q112.612 974.725 114.418 971.184 Q116.246 967.619 116.246 960.512 Q116.246 953.383 114.418 949.841 Q112.612 946.276 108.978 946.276 M108.978 942.573 Q114.788 942.573 117.844 947.179 Q120.922 951.762 120.922 960.512 Q120.922 969.239 117.844 973.846 Q114.788 978.429 108.978 978.429 Q103.168 978.429 100.089 973.846 Q97.0335 969.239 97.0335 960.512 Q97.0335 951.762 100.089 947.179 Q103.168 942.573 108.978 942.573 Z" fill="#000000" fill-rule="nonzero" fill-opacity="1" /><path clip-path="url(#clip630)" d="M157.311 952.295 L146.732 962.92 L157.311 973.498 L154.556 976.299 L143.931 965.674 L133.306 976.299 L130.575 973.498 L141.131 962.92 L130.575 952.295 L133.306 949.494 L143.931 960.119 L154.556 949.494 L157.311 952.295 Z" fill="#000000" fill-rule="nonzero" fill-opacity="1" /><path clip-path="url(#clip630)" d="M169.672 973.823 L177.311 973.823 L177.311 947.457 L169.001 949.124 L169.001 944.864 L177.265 943.198 L181.94 943.198 L181.94 973.823 L189.579 973.823 L189.579 977.758 L169.672 977.758 L169.672 973.823 Z" fill="#000000" fill-rule="nonzero" fill-opacity="1" /><path clip-path="url(#clip630)" d="M209.024 946.276 Q205.413 946.276 203.584 949.841 Q201.778 953.383 201.778 960.512 Q201.778 967.619 203.584 971.184 Q205.413 974.725 209.024 974.725 Q212.658 974.725 214.463 971.184 Q216.292 967.619 216.292 960.512 Q216.292 953.383 214.463 949.841 Q212.658 946.276 209.024 946.276 M209.024 942.573 Q214.834 942.573 217.889 947.179 Q220.968 951.762 220.968 960.512 Q220.968 969.239 217.889 973.846 Q214.834 978.429 209.024 978.429 Q203.214 978.429 200.135 973.846 Q197.079 969.239 197.079 960.512 Q197.079 951.762 200.135 947.179 Q203.214 942.573 209.024 942.573 Z" fill="#000000" fill-rule="nonzero" fill-opacity="1" /><path clip-path="url(#clip630)" d="M233.645 925.577 L224.053 940.567 L233.645 940.567 L233.645 925.577 M232.648 922.267 L237.425 922.267 L237.425 940.567 L241.431 940.567 L241.431 943.727 L237.425 943.727 L237.425 950.347 L233.645 950.347 L233.645 943.727 L220.968 943.727 L220.968 940.059 L232.648 922.267 Z" fill="#000000" fill-rule="nonzero" fill-opacity="1" /><path clip-path="url(#clip630)" d="M67.9133 549.971 Q71.2698 550.689 73.1448 552.958 Q75.0429 555.226 75.0429 558.559 Q75.0429 563.675 71.5244 566.476 Q68.0059 569.277 61.5245 569.277 Q59.3486 569.277 57.0338 568.837 Q54.7421 568.42 52.2884 567.564 L52.2884 563.05 Q54.2328 564.184 56.5477 564.763 Q58.8625 565.342 61.3856 565.342 Q65.7837 565.342 68.0754 563.606 Q70.3902 561.87 70.3902 558.559 Q70.3902 555.504 68.2374 553.791 Q66.1078 552.055 62.2884 552.055 L58.2606 552.055 L58.2606 548.212 L62.4735 548.212 Q65.9226 548.212 67.7513 546.846 Q69.58 545.458 69.58 542.865 Q69.58 540.203 67.6819 538.791 Q65.8069 537.356 62.2884 537.356 Q60.3671 537.356 58.168 537.772 Q55.969 538.189 53.3301 539.069 L53.3301 534.902 Q55.9921 534.161 58.3069 533.791 Q60.6449 533.421 62.705 533.421 Q68.0291 533.421 71.1309 535.851 Q74.2327 538.259 74.2327 542.379 Q74.2327 545.249 72.5892 547.24 Q70.9457 549.208 67.9133 549.971 Z" fill="#000000" fill-rule="nonzero" fill-opacity="1" /><path clip-path="url(#clip630)" d="M83.9086 562.726 L88.7928 562.726 L88.7928 568.606 L83.9086 568.606 L83.9086 562.726 Z" fill="#000000" fill-rule="nonzero" fill-opacity="1" /><path clip-path="url(#clip630)" d="M108.978 537.124 Q105.367 537.124 103.538 540.689 Q101.733 544.231 101.733 551.36 Q101.733 558.467 103.538 562.032 Q105.367 565.573 108.978 565.573 Q112.612 565.573 114.418 562.032 Q116.246 558.467 116.246 551.36 Q116.246 544.231 114.418 540.689 Q112.612 537.124 108.978 537.124 M108.978 533.421 Q114.788 533.421 117.844 538.027 Q120.922 542.61 120.922 551.36 Q120.922 560.087 117.844 564.694 Q114.788 569.277 108.978 569.277 Q103.168 569.277 100.089 564.694 Q97.0335 560.087 97.0335 551.36 Q97.0335 542.61 100.089 538.027 Q103.168 533.421 108.978 533.421 Z" fill="#000000" fill-rule="nonzero" fill-opacity="1" /><path clip-path="url(#clip630)" d="M157.311 543.143 L146.732 553.768 L157.311 564.346 L154.556 567.147 L143.931 556.522 L133.306 567.147 L130.575 564.346 L141.131 553.768 L130.575 543.143 L133.306 540.342 L143.931 550.967 L154.556 540.342 L157.311 543.143 Z" fill="#000000" fill-rule="nonzero" fill-opacity="1" /><path clip-path="url(#clip630)" d="M169.672 564.67 L177.311 564.67 L177.311 538.305 L169.001 539.972 L169.001 535.712 L177.265 534.046 L181.94 534.046 L181.94 564.67 L189.579 564.67 L189.579 568.606 L169.672 568.606 L169.672 564.67 Z" fill="#000000" fill-rule="nonzero" fill-opacity="1" /><path clip-path="url(#clip630)" d="M209.024 537.124 Q205.413 537.124 203.584 540.689 Q201.778 544.231 201.778 551.36 Q201.778 558.467 203.584 562.032 Q205.413 565.573 209.024 565.573 Q212.658 565.573 214.463 562.032 Q216.292 558.467 216.292 551.36 Q216.292 544.231 214.463 540.689 Q212.658 537.124 209.024 537.124 M209.024 533.421 Q214.834 533.421 217.889 538.027 Q220.968 542.61 220.968 551.36 Q220.968 560.087 217.889 564.694 Q214.834 569.277 209.024 569.277 Q203.214 569.277 200.135 564.694 Q197.079 560.087 197.079 551.36 Q197.079 542.61 200.135 538.027 Q203.214 533.421 209.024 533.421 Z" fill="#000000" fill-rule="nonzero" fill-opacity="1" /><path clip-path="url(#clip630)" d="M233.645 516.425 L224.053 531.415 L233.645 531.415 L233.645 516.425 M232.648 513.115 L237.425 513.115 L237.425 531.415 L241.431 531.415 L241.431 534.575 L237.425 534.575 L237.425 541.195 L233.645 541.195 L233.645 534.575 L220.968 534.575 L220.968 530.907 L232.648 513.115 Z" fill="#000000" fill-rule="nonzero" fill-opacity="1" /><path clip-path="url(#clip630)" d="M66.5939 128.968 L54.7884 147.417 L66.5939 147.417 L66.5939 128.968 M65.367 124.894 L71.2466 124.894 L71.2466 147.417 L76.1772 147.417 L76.1772 151.305 L71.2466 151.305 L71.2466 159.454 L66.5939 159.454 L66.5939 151.305 L50.9921 151.305 L50.9921 146.792 L65.367 124.894 Z" fill="#000000" fill-rule="nonzero" fill-opacity="1" /><path clip-path="url(#clip630)" d="M83.9086 153.574 L88.7928 153.574 L88.7928 159.454 L83.9086 159.454 L83.9086 153.574 Z" fill="#000000" fill-rule="nonzero" fill-opacity="1" /><path clip-path="url(#clip630)" d="M108.978 127.972 Q105.367 127.972 103.538 131.537 Q101.733 135.079 101.733 142.208 Q101.733 149.315 103.538 152.88 Q105.367 156.421 108.978 156.421 Q112.612 156.421 114.418 152.88 Q116.246 149.315 116.246 142.208 Q116.246 135.079 114.418 131.537 Q112.612 127.972 108.978 127.972 M108.978 124.269 Q114.788 124.269 117.844 128.875 Q120.922 133.458 120.922 142.208 Q120.922 150.935 117.844 155.542 Q114.788 160.125 108.978 160.125 Q103.168 160.125 100.089 155.542 Q97.0335 150.935 97.0335 142.208 Q97.0335 133.458 100.089 128.875 Q103.168 124.269 108.978 124.269 Z" fill="#000000" fill-rule="nonzero" fill-opacity="1" /><path clip-path="url(#clip630)" d="M157.311 133.991 L146.732 144.616 L157.311 155.194 L154.556 157.995 L143.931 147.37 L133.306 157.995 L130.575 155.194 L141.131 144.616 L130.575 133.991 L133.306 131.19 L143.931 141.815 L154.556 131.19 L157.311 133.991 Z" fill="#000000" fill-rule="nonzero" fill-opacity="1" /><path clip-path="url(#clip630)" d="M169.672 155.518 L177.311 155.518 L177.311 129.153 L169.001 130.819 L169.001 126.56 L177.265 124.894 L181.94 124.894 L181.94 155.518 L189.579 155.518 L189.579 159.454 L169.672 159.454 L169.672 155.518 Z" fill="#000000" fill-rule="nonzero" fill-opacity="1" /><path clip-path="url(#clip630)" d="M209.024 127.972 Q205.413 127.972 203.584 131.537 Q201.778 135.079 201.778 142.208 Q201.778 149.315 203.584 152.88 Q205.413 156.421 209.024 156.421 Q212.658 156.421 214.463 152.88 Q216.292 149.315 216.292 142.208 Q216.292 135.079 214.463 131.537 Q212.658 127.972 209.024 127.972 M209.024 124.269 Q214.834 124.269 217.889 128.875 Q220.968 133.458 220.968 142.208 Q220.968 150.935 217.889 155.542 Q214.834 160.125 209.024 160.125 Q203.214 160.125 200.135 155.542 Q197.079 150.935 197.079 142.208 Q197.079 133.458 200.135 128.875 Q203.214 124.269 209.024 124.269 Z" fill="#000000" fill-rule="nonzero" fill-opacity="1" /><path clip-path="url(#clip630)" d="M233.645 107.273 L224.053 122.263 L233.645 122.263 L233.645 107.273 M232.648 103.963 L237.425 103.963 L237.425 122.263 L241.431 122.263 L241.431 125.423 L237.425 125.423 L237.425 132.043 L233.645 132.043 L233.645 125.423 L220.968 125.423 L220.968 121.755 L232.648 103.963 Z" fill="#000000" fill-rule="nonzero" fill-opacity="1" /><polyline clip-path="url(#clip632)" style="stroke:#009af9; stroke-linecap:round; stroke-linejoin:round; stroke-width:4; stroke-opacity:1; fill:none" points="336.167,87.9763 337.145,966.487 338.124,1273.65 339.103,1367.63 340.082,1399.54 341.061,1412.18 342.04,1422.24 343.019,1432.42 343.998,1438.37 344.977,1440.52 345.956,1441.45 346.935,1441.95 347.914,1442.27 348.893,1442.49 349.872,1442.66 350.85,1442.8 351.829,1442.92 352.808,1443.03 353.787,1443.13 354.766,1443.22 355.745,1443.3 356.724,1443.37 357.703,1443.44 358.682,1443.5 359.661,1443.55 360.64,1443.6 361.619,1443.65 362.598,1443.69 363.576,1443.72 364.555,1443.75 365.534,1443.78 366.513,1443.81 367.492,1443.83 368.471,1443.85 369.45,1443.87 370.429,1443.89 371.408,1443.91 372.387,1443.92 373.366,1443.94 374.345,1443.95 375.324,1443.97 376.303,1443.98 377.281,1443.99 378.26,1444.01 379.239,1444.02 380.218,1444.03 381.197,1444.04 382.176,1444.05 383.155,1444.06 384.134,1444.07 385.113,1444.08 386.092,1444.09 387.071,1444.1 388.05,1444.11 389.029,1444.12 390.008,1444.12 390.986,1444.13 391.965,1444.14 392.944,1444.15 393.923,1444.16 394.902,1444.16 395.881,1444.17 396.86,1444.18 397.839,1444.19 398.818,1444.19 399.797,1444.2 400.776,1444.21 401.755,1444.22 402.734,1444.22 403.712,1444.23 404.691,1444.24 405.67,1444.24 406.649,1444.25 407.628,1444.26 408.607,1444.26 409.586,1444.27 410.565,1444.27 411.544,1444.28 412.523,1444.29 413.502,1444.29 414.481,1444.3 415.46,1444.3 416.439,1444.31 417.417,1444.32 418.396,1444.32 419.375,1444.33 420.354,1444.33 421.333,1444.34 422.312,1444.35 423.291,1444.35 424.27,1444.36 425.249,1444.36 426.228,1444.37 427.207,1444.37 428.186,1444.38 429.165,1444.39 430.144,1444.39 431.122,1444.4 432.101,1444.4 433.08,1444.41 434.059,1444.41 435.038,1444.42 436.017,1444.42 436.996,1444.43 437.975,1444.43 438.954,1444.44 439.933,1444.45 440.912,1444.45 441.891,1444.46 442.87,1444.46 443.848,1444.47 444.827,1444.47 445.806,1444.48 446.785,1444.48 447.764,1444.49 448.743,1444.49 449.722,1444.5 450.701,1444.5 451.68,1444.51 452.659,1444.52 453.638,1444.52 454.617,1444.53 455.596,1444.53 456.575,1444.54 457.553,1444.54 458.532,1444.55 459.511,1444.55 460.49,1444.56 461.469,1444.56 462.448,1444.57 463.427,1444.57 464.406,1444.58 465.385,1444.58 466.364,1444.59 467.343,1444.59 468.322,1444.6 469.301,1444.6 470.28,1444.61 471.258,1444.61 472.237,1444.62 473.216,1444.62 474.195,1444.63 475.174,1444.63 476.153,1444.64 477.132,1444.64 478.111,1444.65 479.09,1444.65 480.069,1444.66 481.048,1444.66 482.027,1444.66 483.006,1444.67 483.984,1444.67 484.963,1444.68 485.942,1444.68 486.921,1444.69 487.9,1444.69 488.879,1444.7 489.858,1444.7 490.837,1444.71 491.816,1444.71 492.795,1444.71 493.774,1444.72 494.753,1444.72 495.732,1444.73 496.711,1444.73 497.689,1444.73 498.668,1444.74 499.647,1444.74 500.626,1444.75 501.605,1444.75 502.584,1444.76 503.563,1444.76 504.542,1444.76 505.521,1444.77 506.5,1444.77 507.479,1444.77 508.458,1444.78 509.437,1444.78 510.416,1444.79 511.394,1444.79 512.373,1444.79 513.352,1444.8 514.331,1444.8 515.31,1444.8 516.289,1444.81 517.268,1444.81 518.247,1444.82 519.226,1444.82 520.205,1444.82 521.184,1444.83 522.163,1444.83 523.142,1444.83 524.12,1444.84 525.099,1444.84 526.078,1444.84 527.057,1444.85 528.036,1444.85 529.015,1444.85 529.994,1444.86 530.973,1444.86 531.952,1444.86 532.931,1444.87 533.91,1444.87 534.889,1444.87 535.868,1444.87 536.847,1444.88 537.825,1444.88 538.804,1444.88 539.783,1444.89 540.762,1444.89 541.741,1444.89 542.72,1444.9 543.699,1444.9 544.678,1444.9 545.657,1444.9 546.636,1444.91 547.615,1444.91 548.594,1444.91 549.573,1444.92 550.552,1444.92 551.53,1444.92 552.509,1444.92 553.488,1444.93 554.467,1444.93 555.446,1444.93 556.425,1444.93 557.404,1444.94 558.383,1444.94 559.362,1444.94 560.341,1444.95 561.32,1444.95 562.299,1444.95 563.278,1444.95 564.256,1444.96 565.235,1444.96 566.214,1444.96 567.193,1444.96 568.172,1444.97 569.151,1444.97 570.13,1444.97 571.109,1444.97 572.088,1444.98 573.067,1444.98 574.046,1444.98 575.025,1444.98 576.004,1444.99 576.983,1444.99 577.961,1444.99 578.94,1444.99 579.919,1444.99 580.898,1445 581.877,1445 582.856,1445 583.835,1445 584.814,1445.01 585.793,1445.01 586.772,1445.01 587.751,1445.01 588.73,1445.02 589.709,1445.02 590.688,1445.02 591.666,1445.02 592.645,1445.02 593.624,1445.03 594.603,1445.03 595.582,1445.03 596.561,1445.03 597.54,1445.04 598.519,1445.04 599.498,1445.04 600.477,1445.04 601.456,1445.04 602.435,1445.05 603.414,1445.05 604.392,1445.05 605.371,1445.05 606.35,1445.06 607.329,1445.06 608.308,1445.06 609.287,1445.06 610.266,1445.06 611.245,1445.07 612.224,1445.07 613.203,1445.07 614.182,1445.07 615.161,1445.07 616.14,1445.08 617.119,1445.08 618.097,1445.08 619.076,1445.08 620.055,1445.08 621.034,1445.09 622.013,1445.09 622.992,1445.09 623.971,1445.09 624.95,1445.1 625.929,1445.1 626.908,1445.1 627.887,1445.1 628.866,1445.1 629.845,1445.11 630.824,1445.11 631.802,1445.11 632.781,1445.11 633.76,1445.11 634.739,1445.12 635.718,1445.12 636.697,1445.12 637.676,1445.12 638.655,1445.12 639.634,1445.13 640.613,1445.13 641.592,1445.13 642.571,1445.13 643.55,1445.13 644.529,1445.13 645.507,1445.14 646.486,1445.14 647.465,1445.14 648.444,1445.14 649.423,1445.14 650.402,1445.15 651.381,1445.15 652.36,1445.15 653.339,1445.15 654.318,1445.15 655.297,1445.16 656.276,1445.16 657.255,1445.16 658.233,1445.16 659.212,1445.16 660.191,1445.17 661.17,1445.17 662.149,1445.17 663.128,1445.17 664.107,1445.17 665.086,1445.17 666.065,1445.18 667.044,1445.18 668.023,1445.18 669.002,1445.18 669.981,1445.18 670.96,1445.19 671.938,1445.19 672.917,1445.19 673.896,1445.19 674.875,1445.19 675.854,1445.2 676.833,1445.2 677.812,1445.2 678.791,1445.2 679.77,1445.2 680.749,1445.2 681.728,1445.21 682.707,1445.21 683.686,1445.21 684.665,1445.21 685.643,1445.21 686.622,1445.21 687.601,1445.22 688.58,1445.22 689.559,1445.22 690.538,1445.22 691.517,1445.22 692.496,1445.23 693.475,1445.23 694.454,1445.23 695.433,1445.23 696.412,1445.23 697.391,1445.23 698.369,1445.24 699.348,1445.24 700.327,1445.24 701.306,1445.24 702.285,1445.24 703.264,1445.24 704.243,1445.25 705.222,1445.25 706.201,1445.25 707.18,1445.25 708.159,1445.25 709.138,1445.25 710.117,1445.26 711.096,1445.26 712.074,1445.26 713.053,1445.26 714.032,1445.26 715.011,1445.26 715.99,1445.26 716.969,1445.27 717.948,1445.27 718.927,1445.27 719.906,1445.27 720.885,1445.27 721.864,1445.27 722.843,1445.28 723.822,1445.28 724.801,1445.28 725.779,1445.28 726.758,1445.28 727.737,1445.28 728.716,1445.28 729.695,1445.29 730.674,1445.29 731.653,1445.29 732.632,1445.29 733.611,1445.29 734.59,1445.29 735.569,1445.3 736.548,1445.3 737.527,1445.3 738.505,1445.3 739.484,1445.3 740.463,1445.3 741.442,1445.3 742.421,1445.31 743.4,1445.31 744.379,1445.31 745.358,1445.31 746.337,1445.31 747.316,1445.31 748.295,1445.31 749.274,1445.31 750.253,1445.32 751.232,1445.32 752.21,1445.32 753.189,1445.32 754.168,1445.32 755.147,1445.32 756.126,1445.32 757.105,1445.33 758.084,1445.33 759.063,1445.33 760.042,1445.33 761.021,1445.33 762,1445.33 762.979,1445.33 763.958,1445.33 764.937,1445.34 765.915,1445.34 766.894,1445.34 767.873,1445.34 768.852,1445.34 769.831,1445.34 770.81,1445.34 771.789,1445.34 772.768,1445.35 773.747,1445.35 774.726,1445.35 775.705,1445.35 776.684,1445.35 777.663,1445.35 778.641,1445.35 779.62,1445.35 780.599,1445.35 781.578,1445.36 782.557,1445.36 783.536,1445.36 784.515,1445.36 785.494,1445.36 786.473,1445.36 787.452,1445.36 788.431,1445.36 789.41,1445.36 790.389,1445.37 791.368,1445.37 792.346,1445.37 793.325,1445.37 794.304,1445.37 795.283,1445.37 796.262,1445.37 797.241,1445.37 798.22,1445.37 799.199,1445.38 800.178,1445.38 801.157,1445.38 802.136,1445.38 803.115,1445.38 804.094,1445.38 805.073,1445.38 806.051,1445.38 807.03,1445.38 808.009,1445.38 808.988,1445.39 809.967,1445.39 810.946,1445.39 811.925,1445.39 812.904,1445.39 813.883,1445.39 814.862,1445.39 815.841,1445.39 816.82,1445.39 817.799,1445.39 818.777,1445.4 819.756,1445.4 820.735,1445.4 821.714,1445.4 822.693,1445.4 823.672,1445.4 824.651,1445.4 825.63,1445.4 826.609,1445.4 827.588,1445.4 828.567,1445.4 829.546,1445.41 830.525,1445.41 831.504,1445.41 832.482,1445.41 833.461,1445.41 834.44,1445.41 835.419,1445.41 836.398,1445.41 837.377,1445.41 838.356,1445.41 839.335,1445.41 840.314,1445.41 841.293,1445.42 842.272,1445.42 843.251,1445.42 844.23,1445.42 845.209,1445.42 846.187,1445.42 847.166,1445.42 848.145,1445.42 849.124,1445.42 850.103,1445.42 851.082,1445.42 852.061,1445.42 853.04,1445.43 854.019,1445.43 854.998,1445.43 855.977,1445.43 856.956,1445.43 857.935,1445.43 858.913,1445.43 859.892,1445.43 860.871,1445.43 861.85,1445.43 862.829,1445.43 863.808,1445.43 864.787,1445.43 865.766,1445.44 866.745,1445.44 867.724,1445.44 868.703,1445.44 869.682,1445.44 870.661,1445.44 871.64,1445.44 872.618,1445.44 873.597,1445.44 874.576,1445.44 875.555,1445.44 876.534,1445.44 877.513,1445.44 878.492,1445.45 879.471,1445.45 880.45,1445.45 881.429,1445.45 882.408,1445.45 883.387,1445.45 884.366,1445.45 885.345,1445.45 886.323,1445.45 887.302,1445.45 888.281,1445.45 889.26,1445.45 890.239,1445.45 891.218,1445.46 892.197,1445.46 893.176,1445.46 894.155,1445.46 895.134,1445.46 896.113,1445.46 897.092,1445.46 898.071,1445.46 899.049,1445.46 900.028,1445.46 901.007,1445.46 901.986,1445.46 902.965,1445.46 903.944,1445.46 904.923,1445.46 905.902,1445.47 906.881,1445.47 907.86,1445.47 908.839,1445.47 909.818,1445.47 910.797,1445.47 911.776,1445.47 912.754,1445.47 913.733,1445.47 914.712,1445.47 915.691,1445.47 916.67,1445.47 917.649,1445.47 918.628,1445.47 919.607,1445.48 920.586,1445.48 921.565,1445.48 922.544,1445.48 923.523,1445.48 924.502,1445.48 925.481,1445.48 926.459,1445.48 927.438,1445.48 928.417,1445.48 929.396,1445.48 930.375,1445.48 931.354,1445.48 932.333,1445.48 933.312,1445.48 934.291,1445.49 935.27,1445.49 936.249,1445.49 937.228,1445.49 938.207,1445.49 939.185,1445.49 940.164,1445.49 941.143,1445.49 942.122,1445.49 943.101,1445.49 944.08,1445.49 945.059,1445.49 946.038,1445.49 947.017,1445.49 947.996,1445.49 948.975,1445.5 949.954,1445.5 950.933,1445.5 951.912,1445.5 952.89,1445.5 953.869,1445.5 954.848,1445.5 955.827,1445.5 956.806,1445.5 957.785,1445.5 958.764,1445.5 959.743,1445.5 960.722,1445.5 961.701,1445.5 962.68,1445.5 963.659,1445.5 964.638,1445.51 965.617,1445.51 966.595,1445.51 967.574,1445.51 968.553,1445.51 969.532,1445.51 970.511,1445.51 971.49,1445.51 972.469,1445.51 973.448,1445.51 974.427,1445.51 975.406,1445.51 976.385,1445.51 977.364,1445.51 978.343,1445.51 979.321,1445.51 980.3,1445.52 981.279,1445.52 982.258,1445.52 983.237,1445.52 984.216,1445.52 985.195,1445.52 986.174,1445.52 987.153,1445.52 988.132,1445.52 989.111,1445.52 990.09,1445.52 991.069,1445.52 992.048,1445.52 993.026,1445.52 994.005,1445.52 994.984,1445.53 995.963,1445.53 996.942,1445.53 997.921,1445.53 998.9,1445.53 999.879,1445.53 1000.86,1445.53 1001.84,1445.53 1002.82,1445.53 1003.79,1445.53 1004.77,1445.53 1005.75,1445.53 1006.73,1445.53 1007.71,1445.53 1008.69,1445.53 1009.67,1445.53 1010.65,1445.54 1011.63,1445.54 1012.61,1445.54 1013.58,1445.54 1014.56,1445.54 1015.54,1445.54 1016.52,1445.54 1017.5,1445.54 1018.48,1445.54 1019.46,1445.54 1020.44,1445.54 1021.42,1445.54 1022.39,1445.54 1023.37,1445.54 1024.35,1445.54 1025.33,1445.54 1026.31,1445.55 1027.29,1445.55 1028.27,1445.55 1029.25,1445.55 1030.23,1445.55 1031.2,1445.55 1032.18,1445.55 1033.16,1445.55 1034.14,1445.55 1035.12,1445.55 1036.1,1445.55 1037.08,1445.55 1038.06,1445.55 1039.04,1445.55 1040.01,1445.55 1040.99,1445.55 1041.97,1445.56 1042.95,1445.56 1043.93,1445.56 1044.91,1445.56 1045.89,1445.56 1046.87,1445.56 1047.85,1445.56 1048.83,1445.56 1049.8,1445.56 1050.78,1445.56 1051.76,1445.56 1052.74,1445.56 1053.72,1445.56 1054.7,1445.56 1055.68,1445.56 1056.66,1445.56 1057.64,1445.57 1058.61,1445.57 1059.59,1445.57 1060.57,1445.57 1061.55,1445.57 1062.53,1445.57 1063.51,1445.57 1064.49,1445.57 1065.47,1445.57 1066.45,1445.57 1067.42,1445.57 1068.4,1445.57 1069.38,1445.57 1070.36,1445.57 1071.34,1445.57 1072.32,1445.57 1073.3,1445.58 1074.28,1445.58 1075.26,1445.58 1076.24,1445.58 1077.21,1445.58 1078.19,1445.58 1079.17,1445.58 1080.15,1445.58 1081.13,1445.58 1082.11,1445.58 1083.09,1445.58 1084.07,1445.58 1085.05,1445.58 1086.02,1445.58 1087,1445.58 1087.98,1445.59 1088.96,1445.59 1089.94,1445.59 1090.92,1445.59 1091.9,1445.59 1092.88,1445.59 1093.86,1445.59 1094.83,1445.59 1095.81,1445.59 1096.79,1445.59 1097.77,1445.59 1098.75,1445.59 1099.73,1445.59 1100.71,1445.59 1101.69,1445.59 1102.67,1445.59 1103.65,1445.6 1104.62,1445.6 1105.6,1445.6 1106.58,1445.6 1107.56,1445.6 1108.54,1445.6 1109.52,1445.6 1110.5,1445.6 1111.48,1445.6 1112.46,1445.6 1113.43,1445.6 1114.41,1445.6 1115.39,1445.6 1116.37,1445.6 1117.35,1445.6 1118.33,1445.6 1119.31,1445.61 1120.29,1445.61 1121.27,1445.61 1122.24,1445.61 1123.22,1445.61 1124.2,1445.61 1125.18,1445.61 1126.16,1445.61 1127.14,1445.61 1128.12,1445.61 1129.1,1445.61 1130.08,1445.61 1131.06,1445.61 1132.03,1445.61 1133.01,1445.61 1133.99,1445.61 1134.97,1445.62 1135.95,1445.62 1136.93,1445.62 1137.91,1445.62 1138.89,1445.62 1139.87,1445.62 1140.84,1445.62 1141.82,1445.62 1142.8,1445.62 1143.78,1445.62 1144.76,1445.62 1145.74,1445.62 1146.72,1445.62 1147.7,1445.62 1148.68,1445.62 1149.65,1445.62 1150.63,1445.63 1151.61,1445.63 1152.59,1445.63 1153.57,1445.63 1154.55,1445.63 1155.53,1445.63 1156.51,1445.63 1157.49,1445.63 1158.47,1445.63 1159.44,1445.63 1160.42,1445.63 1161.4,1445.63 1162.38,1445.63 1163.36,1445.63 1164.34,1445.63 1165.32,1445.63 1166.3,1445.63 1167.28,1445.64 1168.25,1445.64 1169.23,1445.64 1170.21,1445.64 1171.19,1445.64 1172.17,1445.64 1173.15,1445.64 1174.13,1445.64 1175.11,1445.64 1176.09,1445.64 1177.06,1445.64 1178.04,1445.64 1179.02,1445.64 1180,1445.64 1180.98,1445.64 1181.96,1445.64 1182.94,1445.64 1183.92,1445.65 1184.9,1445.65 1185.88,1445.65 1186.85,1445.65 1187.83,1445.65 1188.81,1445.65 1189.79,1445.65 1190.77,1445.65 1191.75,1445.65 1192.73,1445.65 1193.71,1445.65 1194.69,1445.65 1195.66,1445.65 1196.64,1445.65 1197.62,1445.65 1198.6,1445.65 1199.58,1445.65 1200.56,1445.65 1201.54,1445.66 1202.52,1445.66 1203.5,1445.66 1204.47,1445.66 1205.45,1445.66 1206.43,1445.66 1207.41,1445.66 1208.39,1445.66 1209.37,1445.66 1210.35,1445.66 1211.33,1445.66 1212.31,1445.66 1213.29,1445.66 1214.26,1445.66 1215.24,1445.66 1216.22,1445.66 1217.2,1445.66 1218.18,1445.66 1219.16,1445.66 1220.14,1445.66 1221.12,1445.67 1222.1,1445.67 1223.07,1445.67 1224.05,1445.67 1225.03,1445.67 1226.01,1445.67 1226.99,1445.67 1227.97,1445.67 1228.95,1445.67 1229.93,1445.67 1230.91,1445.67 1231.88,1445.67 1232.86,1445.67 1233.84,1445.67 1234.82,1445.67 1235.8,1445.67 1236.78,1445.67 1237.76,1445.67 1238.74,1445.67 1239.72,1445.67 1240.69,1445.67 1241.67,1445.67 1242.65,1445.68 1243.63,1445.68 1244.61,1445.68 1245.59,1445.68 1246.57,1445.68 1247.55,1445.68 1248.53,1445.68 1249.51,1445.68 1250.48,1445.68 1251.46,1445.68 1252.44,1445.68 1253.42,1445.68 1254.4,1445.68 1255.38,1445.68 1256.36,1445.68 1257.34,1445.68 1258.32,1445.68 1259.29,1445.68 1260.27,1445.68 1261.25,1445.68 1262.23,1445.68 1263.21,1445.68 1264.19,1445.68 1265.17,1445.68 1266.15,1445.68 1267.13,1445.68 1268.1,1445.69 1269.08,1445.69 1270.06,1445.69 1271.04,1445.69 1272.02,1445.69 1273,1445.69 1273.98,1445.69 1274.96,1445.69 1275.94,1445.69 1276.92,1445.69 1277.89,1445.69 1278.87,1445.69 1279.85,1445.69 1280.83,1445.69 1281.81,1445.69 1282.79,1445.69 1283.77,1445.69 1284.75,1445.69 1285.73,1445.69 1286.7,1445.69 1287.68,1445.69 1288.66,1445.69 1289.64,1445.69 1290.62,1445.69 1291.6,1445.69 1292.58,1445.69 1293.56,1445.69 1294.54,1445.69 1295.51,1445.69 1296.49,1445.69 1297.47,1445.7 1298.45,1445.7 1299.43,1445.7 1300.41,1445.7 1301.39,1445.7 1302.37,1445.7 1303.35,1445.7 1304.33,1445.7 1305.3,1445.7 1306.28,1445.7 1307.26,1445.7 1308.24,1445.7 1309.22,1445.7 1310.2,1445.7 1311.18,1445.7 1312.16,1445.7 1313.14,1445.7 1314.11,1445.7 1315.09,1445.7 1316.07,1445.7 1317.05,1445.7 1318.03,1445.7 1319.01,1445.7 1319.99,1445.7 1320.97,1445.7 1321.95,1445.7 1322.92,1445.7 1323.9,1445.7 1324.88,1445.7 1325.86,1445.7 1326.84,1445.7 1327.82,1445.7 1328.8,1445.7 1329.78,1445.7 1330.76,1445.7 1331.74,1445.7 1332.71,1445.7 1333.69,1445.7 1334.67,1445.7 1335.65,1445.71 1336.63,1445.71 1337.61,1445.71 1338.59,1445.71 1339.57,1445.71 1340.55,1445.71 1341.52,1445.71 1342.5,1445.71 1343.48,1445.71 1344.46,1445.71 1345.44,1445.71 1346.42,1445.71 1347.4,1445.71 1348.38,1445.71 1349.36,1445.71 1350.33,1445.71 1351.31,1445.71 1352.29,1445.71 1353.27,1445.71 1354.25,1445.71 1355.23,1445.71 1356.21,1445.71 1357.19,1445.71 1358.17,1445.71 1359.15,1445.71 1360.12,1445.71 1361.1,1445.71 1362.08,1445.71 1363.06,1445.71 1364.04,1445.71 1365.02,1445.71 1366,1445.71 1366.98,1445.71 1367.96,1445.71 1368.93,1445.71 1369.91,1445.71 1370.89,1445.71 1371.87,1445.71 1372.85,1445.71 1373.83,1445.71 1374.81,1445.71 1375.79,1445.71 1376.77,1445.71 1377.74,1445.71 1378.72,1445.71 1379.7,1445.71 1380.68,1445.71 1381.66,1445.71 1382.64,1445.71 1383.62,1445.71 1384.6,1445.71 1385.58,1445.71 1386.56,1445.71 1387.53,1445.71 1388.51,1445.71 1389.49,1445.72 1390.47,1445.72 1391.45,1445.72 1392.43,1445.72 1393.41,1445.72 1394.39,1445.72 1395.37,1445.72 1396.34,1445.72 1397.32,1445.72 1398.3,1445.72 1399.28,1445.72 1400.26,1445.72 1401.24,1445.71 1402.22,1445.71 1403.2,1445.71 1404.18,1445.71 1405.15,1445.71 1406.13,1445.71 1407.11,1445.71 1408.09,1445.71 1409.07,1445.7 1410.05,1445.7 1411.03,1445.69 1412.01,1445.69 1412.99,1445.67 1413.97,1445.67 1414.94,1445.65 1415.92,1445.65 1416.9,1445.62 1417.88,1445.62 1418.86,1445.58 1419.84,1445.6 1420.82,1445.55 1421.8,1445.58 1422.78,1445.53 1423.75,1445.57 1424.73,1445.52 1425.71,1445.57 1426.69,1445.52 1427.67,1445.57 1428.65,1445.52 1429.63,1445.57 1430.61,1445.53 1431.59,1445.58 1432.56,1445.53 1433.54,1445.58 1434.52,1445.54 1435.5,1445.59 1436.48,1445.55 1437.46,1445.59 1438.44,1445.56 1439.42,1445.6 1440.4,1445.56 1441.37,1445.6 1442.35,1445.57 1443.33,1445.6 1444.31,1445.57 1445.29,1445.61 1446.27,1445.57 1447.25,1445.61 1448.23,1445.58 1449.21,1445.61 1450.19,1445.58 1451.16,1445.61 1452.14,1445.58 1453.12,1445.61 1454.1,1445.58 1455.08,1445.62 1456.06,1445.59 1457.04,1445.62 1458.02,1445.59 1459,1445.62 1459.97,1445.59 1460.95,1445.62 1461.93,1445.59 1462.91,1445.62 1463.89,1445.59 1464.87,1445.62 1465.85,1445.6 1466.83,1445.62 1467.81,1445.6 1468.78,1445.63 1469.76,1445.6 1470.74,1445.63 1471.72,1445.6 1472.7,1445.63 1473.68,1445.6 1474.66,1445.63 1475.64,1445.6 1476.62,1445.63 1477.6,1445.6 1478.57,1445.63 1479.55,1445.6 1480.53,1445.63 1481.51,1445.61 1482.49,1445.63 1483.47,1445.61 1484.45,1445.63 1485.43,1445.61 1486.41,1445.63 1487.38,1445.61 1488.36,1445.63 1489.34,1445.61 1490.32,1445.63 1491.3,1445.61 1492.28,1445.63 1493.26,1445.61 1494.24,1445.64 1495.22,1445.61 1496.19,1445.64 1497.17,1445.61 1498.15,1445.64 1499.13,1445.61 1500.11,1445.64 1501.09,1445.61 1502.07,1445.64 1503.05,1445.62 1504.03,1445.64 1505.01,1445.62 1505.98,1445.64 1506.96,1445.62 1507.94,1445.64 1508.92,1445.62 1509.9,1445.64 1510.88,1445.62 1511.86,1445.64 1512.84,1445.62 1513.82,1445.64 1514.79,1445.62 1515.77,1445.64 1516.75,1445.62 1517.73,1445.64 1518.71,1445.62 1519.69,1445.64 1520.67,1445.62 1521.65,1445.64 1522.63,1445.62 1523.6,1445.64 1524.58,1445.62 1525.56,1445.64 1526.54,1445.62 1527.52,1445.64 1528.5,1445.62 1529.48,1445.64 1530.46,1445.62 1531.44,1445.64 1532.42,1445.62 1533.39,1445.65 1534.37,1445.62 1535.35,1445.65 1536.33,1445.63 1537.31,1445.65 1538.29,1445.63 1539.27,1445.65 1540.25,1445.63 1541.23,1445.65 1542.2,1445.63 1543.18,1445.65 1544.16,1445.63 1545.14,1445.65 1546.12,1445.63 1547.1,1445.65 1548.08,1445.63 1549.06,1445.65 1550.04,1445.63 1551.01,1445.65 1551.99,1445.63 1552.97,1445.65 1553.95,1445.63 1554.93,1445.65 1555.91,1445.63 1556.89,1445.65 1557.87,1445.63 1558.85,1445.65 1559.83,1445.63 1560.8,1445.65 1561.78,1445.63 1562.76,1445.65 1563.74,1445.63 1564.72,1445.65 1565.7,1445.63 1566.68,1445.65 1567.66,1445.63 1568.64,1445.65 1569.61,1445.63 1570.59,1445.65 1571.57,1445.63 1572.55,1445.65 1573.53,1445.63 1574.51,1445.65 1575.49,1445.63 1576.47,1445.65 1577.45,1445.63 1578.42,1445.65 1579.4,1445.63 1580.38,1445.65 1581.36,1445.63 1582.34,1445.65 1583.32,1445.63 1584.3,1445.65 1585.28,1445.63 1586.26,1445.65 1587.24,1445.63 1588.21,1445.65 1589.19,1445.63 1590.17,1445.65 1591.15,1445.64 1592.13,1445.65 1593.11,1445.64 1594.09,1445.65 1595.07,1445.64 1596.05,1445.65 1597.02,1445.64 1598,1445.65 1598.98,1445.64 1599.96,1445.66 1600.94,1445.64 1601.92,1445.66 1602.9,1445.64 1603.88,1445.66 1604.86,1445.64 1605.83,1445.66 1606.81,1445.64 1607.79,1445.66 1608.77,1445.64 1609.75,1445.66 1610.73,1445.64 1611.71,1445.66 1612.69,1445.64 1613.67,1445.66 1614.65,1445.64 1615.62,1445.66 1616.6,1445.64 1617.58,1445.66 1618.56,1445.64 1619.54,1445.66 1620.52,1445.64 1621.5,1445.66 1622.48,1445.64 1623.46,1445.66 1624.43,1445.64 1625.41,1445.66 1626.39,1445.64 1627.37,1445.66 1628.35,1445.64 1629.33,1445.66 1630.31,1445.64 1631.29,1445.66 1632.27,1445.64 1633.24,1445.66 1634.22,1445.64 1635.2,1445.66 1636.18,1445.64 1637.16,1445.66 1638.14,1445.64 1639.12,1445.66 1640.1,1445.64 1641.08,1445.66 1642.05,1445.64 1643.03,1445.66 1644.01,1445.64 1644.99,1445.66 1645.97,1445.64 1646.95,1445.66 1647.93,1445.64 1648.91,1445.66 1649.89,1445.64 1650.87,1445.66 1651.84,1445.64 1652.82,1445.66 1653.8,1445.64 1654.78,1445.66 1655.76,1445.64 1656.74,1445.66 1657.72,1445.64 1658.7,1445.66 1659.68,1445.64 1660.65,1445.66 1661.63,1445.64 1662.61,1445.66 1663.59,1445.64 1664.57,1445.66 1665.55,1445.64 1666.53,1445.66 1667.51,1445.64 1668.49,1445.66 1669.46,1445.64 1670.44,1445.66 1671.42,1445.64 1672.4,1445.66 1673.38,1445.65 1674.36,1445.66 1675.34,1445.65 1676.32,1445.66 1677.3,1445.65 1678.28,1445.66 1679.25,1445.65 1680.23,1445.66 1681.21,1445.65 1682.19,1445.66 1683.17,1445.65 1684.15,1445.66 1685.13,1445.65 1686.11,1445.66 1687.09,1445.65 1688.06,1445.66 1689.04,1445.65 1690.02,1445.66 1691,1445.65 1691.98,1445.66 1692.96,1445.65 1693.94,1445.66 1694.92,1445.65 1695.9,1445.66 1696.87,1445.65 1697.85,1445.66 1698.83,1445.65 1699.81,1445.66 1700.79,1445.65 1701.77,1445.66 1702.75,1445.65 1703.73,1445.67 1704.71,1445.65 1705.69,1445.67 1706.66,1445.65 1707.64,1445.67 1708.62,1445.65 1709.6,1445.67 1710.58,1445.65 1711.56,1445.67 1712.54,1445.65 1713.52,1445.67 1714.5,1445.65 1715.47,1445.67 1716.45,1445.65 1717.43,1445.67 1718.41,1445.65 1719.39,1445.67 1720.37,1445.65 1721.35,1445.67 1722.33,1445.65 1723.31,1445.67 1724.28,1445.65 1725.26,1445.67 1726.24,1445.65 1727.22,1445.67 1728.2,1445.65 1729.18,1445.67 1730.16,1445.65 1731.14,1445.67 1732.12,1445.65 1733.1,1445.67 1734.07,1445.65 1735.05,1445.67 1736.03,1445.65 1737.01,1445.67 1737.99,1445.65 1738.97,1445.67 1739.95,1445.65 1740.93,1445.67 1741.91,1445.65 1742.88,1445.67 1743.86,1445.65 1744.84,1445.67 1745.82,1445.65 1746.8,1445.67 1747.78,1445.65 1748.76,1445.67 1749.74,1445.65 1750.72,1445.67 1751.69,1445.65 1752.67,1445.67 1753.65,1445.65 1754.63,1445.67 1755.61,1445.65 1756.59,1445.67 1757.57,1445.65 1758.55,1445.67 1759.53,1445.65 1760.51,1445.67 1761.48,1445.65 1762.46,1445.67 1763.44,1445.65 1764.42,1445.67 1765.4,1445.65 1766.38,1445.67 1767.36,1445.65 1768.34,1445.67 1769.32,1445.65 1770.29,1445.67 1771.27,1445.65 1772.25,1445.67 1773.23,1445.65 1774.21,1445.67 1775.19,1445.65 1776.17,1445.67 1777.15,1445.65 1778.13,1445.67 1779.1,1445.65 1780.08,1445.67 1781.06,1445.65 1782.04,1445.67 1783.02,1445.65 1784,1445.67 1784.98,1445.65 1785.96,1445.67 1786.94,1445.65 1787.92,1445.67 1788.89,1445.66 1789.87,1445.67 1790.85,1445.66 1791.83,1445.67 1792.81,1445.66 1793.79,1445.67 1794.77,1445.66 1795.75,1445.67 1796.73,1445.66 1797.7,1445.67 1798.68,1445.66 1799.66,1445.67 1800.64,1445.66 1801.62,1445.67 1802.6,1445.66 1803.58,1445.67 1804.56,1445.66 1805.54,1445.67 1806.51,1445.66 1807.49,1445.67 1808.47,1445.66 1809.45,1445.67 1810.43,1445.66 1811.41,1445.67 1812.39,1445.66 1813.37,1445.67 1814.35,1445.66 1815.33,1445.67 1816.3,1445.66 1817.28,1445.67 1818.26,1445.66 1819.24,1445.67 1820.22,1445.66 1821.2,1445.67 1822.18,1445.66 1823.16,1445.67 1824.14,1445.66 1825.11,1445.67 1826.09,1445.66 1827.07,1445.67 1828.05,1445.66 1829.03,1445.67 1830.01,1445.66 1830.99,1445.67 1831.97,1445.66 1832.95,1445.67 1833.92,1445.66 1834.9,1445.67 1835.88,1445.66 1836.86,1445.67 1837.84,1445.66 1838.82,1445.67 1839.8,1445.66 1840.78,1445.67 1841.76,1445.66 1842.74,1445.68 1843.71,1445.66 1844.69,1445.68 1845.67,1445.66 1846.65,1445.68 1847.63,1445.66 1848.61,1445.68 1849.59,1445.66 1850.57,1445.68 1851.55,1445.66 1852.52,1445.68 1853.5,1445.66 1854.48,1445.68 1855.46,1445.66 1856.44,1445.68 1857.42,1445.66 1858.4,1445.68 1859.38,1445.66 1860.36,1445.68 1861.33,1445.66 1862.31,1445.68 1863.29,1445.66 1864.27,1445.68 1865.25,1445.66 1866.23,1445.68 1867.21,1445.66 1868.19,1445.68 1869.17,1445.66 1870.14,1445.68 1871.12,1445.66 1872.1,1445.68 1873.08,1445.66 1874.06,1445.68 1875.04,1445.66 1876.02,1445.68 1877,1445.66 1877.98,1445.68 1878.96,1445.66 1879.93,1445.68 1880.91,1445.66 1881.89,1445.68 1882.87,1445.66 1883.85,1445.68 1884.83,1445.66 1885.81,1445.68 1886.79,1445.66 1887.77,1445.68 1888.74,1445.66 1889.72,1445.68 1890.7,1445.66 1891.68,1445.68 1892.66,1445.66 1893.64,1445.68 1894.62,1445.66 1895.6,1445.68 1896.58,1445.66 1897.55,1445.68 1898.53,1445.66 1899.51,1445.68 1900.49,1445.66 1901.47,1445.68 1902.45,1445.66 1903.43,1445.68 1904.41,1445.66 1905.39,1445.68 1906.37,1445.66 1907.34,1445.68 1908.32,1445.66 1909.3,1445.68 1910.28,1445.66 1911.26,1445.68 1912.24,1445.66 1913.22,1445.68 1914.2,1445.66 1915.18,1445.68 1916.15,1445.66 1917.13,1445.68 1918.11,1445.66 1919.09,1445.68 1920.07,1445.66 1921.05,1445.68 1922.03,1445.66 1923.01,1445.68 1923.99,1445.66 1924.96,1445.68 1925.94,1445.66 1926.92,1445.68 1927.9,1445.66 1928.88,1445.68 1929.86,1445.66 1930.84,1445.68 1931.82,1445.66 1932.8,1445.68 1933.78,1445.66 1934.75,1445.68 1935.73,1445.66 1936.71,1445.68 1937.69,1445.67 1938.67,1445.68 1939.65,1445.67 1940.63,1445.68 1941.61,1445.67 1942.59,1445.68 1943.56,1445.67 1944.54,1445.68 1945.52,1445.67 1946.5,1445.68 1947.48,1445.67 1948.46,1445.68 1949.44,1445.67 1950.42,1445.68 1951.4,1445.67 1952.37,1445.68 1953.35,1445.67 1954.33,1445.68 1955.31,1445.67 1956.29,1445.68 1957.27,1445.67 1958.25,1445.68 1959.23,1445.67 1960.21,1445.68 1961.19,1445.67 1962.16,1445.68 1963.14,1445.67 1964.12,1445.68 1965.1,1445.67 1966.08,1445.68 1967.06,1445.67 1968.04,1445.68 1969.02,1445.67 1970,1445.68 1970.97,1445.67 1971.95,1445.68 1972.93,1445.67 1973.91,1445.68 1974.89,1445.67 1975.87,1445.68 1976.85,1445.67 1977.83,1445.68 1978.81,1445.67 1979.78,1445.68 1980.76,1445.67 1981.74,1445.68 1982.72,1445.67 1983.7,1445.68 1984.68,1445.67 1985.66,1445.68 1986.64,1445.67 1987.62,1445.68 1988.6,1445.67 1989.57,1445.68 1990.55,1445.67 1991.53,1445.68 1992.51,1445.67 1993.49,1445.68 1994.47,1445.67 1995.45,1445.68 1996.43,1445.67 1997.41,1445.68 1998.38,1445.67 1999.36,1445.68 2000.34,1445.67 2001.32,1445.68 2002.3,1445.67 2003.28,1445.68 2004.26,1445.67 2005.24,1445.69 2006.22,1445.67 2007.19,1445.69 2008.17,1445.67 2009.15,1445.69 2010.13,1445.67 2011.11,1445.69 2012.09,1445.67 2013.07,1445.69 2014.05,1445.67 2015.03,1445.69 2016.01,1445.67 2016.98,1445.69 2017.96,1445.67 2018.94,1445.69 2019.92,1445.67 2020.9,1445.69 2021.88,1445.67 2022.86,1445.69 2023.84,1445.67 2024.82,1445.69 2025.79,1445.67 2026.77,1445.69 2027.75,1445.67 2028.73,1445.69 2029.71,1445.67 2030.69,1445.69 2031.67,1445.67 2032.65,1445.69 2033.63,1445.67 2034.6,1445.69 2035.58,1445.67 2036.56,1445.69 2037.54,1445.67 2038.52,1445.69 2039.5,1445.67 2040.48,1445.69 2041.46,1445.67 2042.44,1445.69 2043.42,1445.67 2044.39,1445.69 2045.37,1445.67 2046.35,1445.69 2047.33,1445.67 2048.31,1445.69 2049.29,1445.67 2050.27,1445.69 2051.25,1445.67 2052.23,1445.69 2053.2,1445.67 2054.18,1445.69 2055.16,1445.67 2056.14,1445.69 2057.12,1445.67 2058.1,1445.69 2059.08,1445.67 2060.06,1445.69 2061.04,1445.67 2062.01,1445.69 2062.99,1445.67 2063.97,1445.69 2064.95,1445.67 2065.93,1445.69 2066.91,1445.67 2067.89,1445.69 2068.87,1445.67 2069.85,1445.69 2070.82,1445.67 2071.8,1445.69 2072.78,1445.67 2073.76,1445.69 2074.74,1445.67 2075.72,1445.69 2076.7,1445.67 2077.68,1445.69 2078.66,1445.67 2079.64,1445.69 2080.61,1445.67 2081.59,1445.69 2082.57,1445.67 2083.55,1445.69 2084.53,1445.67 2085.51,1445.69 2086.49,1445.67 2087.47,1445.69 2088.45,1445.67 2089.42,1445.69 2090.4,1445.67 2091.38,1445.69 2092.36,1445.67 2093.34,1445.69 2094.32,1445.67 2095.3,1445.69 2096.28,1445.67 2097.26,1445.69 2098.23,1445.67 2099.21,1445.69 2100.19,1445.68 2101.17,1445.69 2102.15,1445.68 2103.13,1445.69 2104.11,1445.68 2105.09,1445.69 2106.07,1445.68 2107.05,1445.69 2108.02,1445.68 2109,1445.69 2109.98,1445.68 2110.96,1445.69 2111.94,1445.68 2112.92,1445.69 2113.9,1445.68 2114.88,1445.69 2115.86,1445.68 2116.83,1445.69 2117.81,1445.68 2118.79,1445.69 2119.77,1445.68 2120.75,1445.69 2121.73,1445.68 2122.71,1445.69 2123.69,1445.68 2124.67,1445.69 2125.64,1445.68 2126.62,1445.69 2127.6,1445.68 2128.58,1445.69 2129.56,1445.68 2130.54,1445.69 2131.52,1445.68 2132.5,1445.69 2133.48,1445.68 2134.46,1445.69 2135.43,1445.68 2136.41,1445.69 2137.39,1445.68 2138.37,1445.69 2139.35,1445.68 2140.33,1445.69 2141.31,1445.68 2142.29,1445.69 2143.27,1445.68 2144.24,1445.69 2145.22,1445.68 2146.2,1445.69 2147.18,1445.68 2148.16,1445.69 2149.14,1445.68 2150.12,1445.69 2151.1,1445.68 2152.08,1445.69 2153.05,1445.68 2154.03,1445.69 2155.01,1445.68 2155.99,1445.69 2156.97,1445.68 2157.95,1445.69 2158.93,1445.68 2159.91,1445.69 2160.89,1445.68 2161.87,1445.69 2162.84,1445.68 2163.82,1445.69 2164.8,1445.68 2165.78,1445.7 2166.76,1445.68 2167.74,1445.7 2168.72,1445.68 2169.7,1445.7 2170.68,1445.68 2171.65,1445.7 2172.63,1445.68 2173.61,1445.7 2174.59,1445.68 2175.57,1445.7 2176.55,1445.68 2177.53,1445.7 2178.51,1445.68 2179.49,1445.7 2180.46,1445.68 2181.44,1445.7 2182.42,1445.68 2183.4,1445.7 2184.38,1445.68 2185.36,1445.7 2186.34,1445.68 2187.32,1445.7 2188.3,1445.68 2189.28,1445.7 2190.25,1445.68 2191.23,1445.7 2192.21,1445.68 2193.19,1445.7 2194.17,1445.68 2195.15,1445.7 2196.13,1445.68 2197.11,1445.7 2198.09,1445.68 2199.06,1445.7 2200.04,1445.68 2201.02,1445.7 2202,1445.68 2202.98,1445.7 2203.96,1445.68 2204.94,1445.7 2205.92,1445.68 2206.9,1445.7 2207.87,1445.68 2208.85,1445.7 2209.83,1445.68 2210.81,1445.7 2211.79,1445.68 2212.77,1445.7 2213.75,1445.68 2214.73,1445.7 2215.71,1445.68 2216.69,1445.7 2217.66,1445.68 2218.64,1445.7 2219.62,1445.68 2220.6,1445.7 2221.58,1445.68 2222.56,1445.7 2223.54,1445.68 2224.52,1445.7 2225.5,1445.68 2226.47,1445.7 2227.45,1445.68 2228.43,1445.7 2229.41,1445.68 2230.39,1445.7 2231.37,1445.68 2232.35,1445.7 2233.33,1445.68 2234.31,1445.7 2235.28,1445.68 2236.26,1445.7 2237.24,1445.68 2238.22,1445.7 2239.2,1445.68 2240.18,1445.7 2241.16,1445.68 2242.14,1445.7 2243.12,1445.68 2244.1,1445.7 2245.07,1445.68 2246.05,1445.7 2247.03,1445.68 2248.01,1445.7 2248.99,1445.68 2249.97,1445.7 2250.95,1445.69 2251.93,1445.7 2252.91,1445.69 2253.88,1445.7 2254.86,1445.69 2255.84,1445.7 2256.82,1445.69 2257.8,1445.7 2258.78,1445.69 2259.76,1445.7 2260.74,1445.69 2261.72,1445.7 2262.69,1445.69 2263.67,1445.7 2264.65,1445.69 2265.63,1445.7 2266.61,1445.69 2267.59,1445.7 2268.57,1445.69 2269.55,1445.7 2270.53,1445.69 2271.5,1445.7 2272.48,1445.69 2273.46,1445.7 2274.44,1445.69 2275.42,1445.7 2276.4,1445.69 2277.38,1445.7 2278.36,1445.69 2279.34,1445.7 2280.32,1445.69 2281.29,1445.7 2282.27,1445.69 2283.25,1445.7 2284.23,1445.69 2285.21,1445.7 2286.19,1445.69 2287.17,1445.7 2288.15,1445.69 2289.13,1445.7 2290.1,1445.69 2291.08,1445.7 2292.06,1445.69 2293.04,1445.7 2294.02,1445.69 "/>
<path clip-path="url(#clip630)" d="M2023.62 198.898 L2283.58 198.898 L2283.58 95.2176 L2023.62 95.2176  Z" fill="#ffffff" fill-rule="evenodd" fill-opacity="1"/>
<polyline clip-path="url(#clip630)" style="stroke:#000000; stroke-linecap:round; stroke-linejoin:round; stroke-width:4; stroke-opacity:1; fill:none" points="2023.62,198.898 2283.58,198.898 2283.58,95.2176 2023.62,95.2176 2023.62,198.898 "/>
<polyline clip-path="url(#clip630)" style="stroke:#009af9; stroke-linecap:round; stroke-linejoin:round; stroke-width:4; stroke-opacity:1; fill:none" points="2046.67,147.058 2185.03,147.058 "/>
<path clip-path="url(#clip630)" d="M2221.93 166.745 Q2220.13 171.375 2218.41 172.787 Q2216.7 174.199 2213.83 174.199 L2210.43 174.199 L2210.43 170.634 L2212.93 170.634 Q2214.69 170.634 2215.66 169.8 Q2216.63 168.967 2217.81 165.865 L2218.58 163.921 L2208.09 138.412 L2212.6 138.412 L2220.7 158.689 L2228.81 138.412 L2233.32 138.412 L2221.93 166.745 Z" fill="#000000" fill-rule="nonzero" fill-opacity="1" /><path clip-path="url(#clip630)" d="M2240.61 160.402 L2248.25 160.402 L2248.25 134.037 L2239.94 135.703 L2239.94 131.444 L2248.2 129.778 L2252.88 129.778 L2252.88 160.402 L2260.52 160.402 L2260.52 164.338 L2240.61 164.338 L2240.61 160.402 Z" fill="#000000" fill-rule="nonzero" fill-opacity="1" /></svg>
