<?xml version="1.0" encoding="utf-8"?>
<svg xmlns="http://www.w3.org/2000/svg" xmlns:xlink="http://www.w3.org/1999/xlink" width="600" height="400" viewBox="0 0 2400 1600">
<defs>
  <clipPath id="clip550">
    <rect x="0" y="0" width="2400" height="1600"/>
  </clipPath>
</defs>
<path clip-path="url(#clip550)" d="M0 1600 L2400 1600 L2400 0 L0 0  Z" fill="#ffffff" fill-rule="evenodd" fill-opacity="1"/>
<defs>
  <clipPath id="clip551">
    <rect x="480" y="0" width="1681" height="1600"/>
  </clipPath>
</defs>
<path clip-path="url(#clip550)" d="M156.274 1486.45 L2352.76 1486.45 L2352.76 47.2441 L156.274 47.2441  Z" fill="#ffffff" fill-rule="evenodd" fill-opacity="1"/>
<defs>
  <clipPath id="clip552">
    <rect x="156" y="47" width="2197" height="1440"/>
  </clipPath>
</defs>
<polyline clip-path="url(#clip552)" style="stroke:#000000; stroke-linecap:round; stroke-linejoin:round; stroke-width:2; stroke-opacity:0.1; fill:none" points="218.439,1486.45 218.439,47.2441 "/>
<polyline clip-path="url(#clip552)" style="stroke:#000000; stroke-linecap:round; stroke-linejoin:round; stroke-width:2; stroke-opacity:0.1; fill:none" points="736.995,1486.45 736.995,47.2441 "/>
<polyline clip-path="url(#clip552)" style="stroke:#000000; stroke-linecap:round; stroke-linejoin:round; stroke-width:2; stroke-opacity:0.1; fill:none" points="1255.55,1486.45 1255.55,47.2441 "/>
<polyline clip-path="url(#clip552)" style="stroke:#000000; stroke-linecap:round; stroke-linejoin:round; stroke-width:2; stroke-opacity:0.1; fill:none" points="1774.11,1486.45 1774.11,47.2441 "/>
<polyline clip-path="url(#clip552)" style="stroke:#000000; stroke-linecap:round; stroke-linejoin:round; stroke-width:2; stroke-opacity:0.1; fill:none" points="2292.67,1486.45 2292.67,47.2441 "/>
<polyline clip-path="url(#clip550)" style="stroke:#000000; stroke-linecap:round; stroke-linejoin:round; stroke-width:4; stroke-opacity:1; fill:none" points="156.274,1486.45 2352.76,1486.45 "/>
<polyline clip-path="url(#clip550)" style="stroke:#000000; stroke-linecap:round; stroke-linejoin:round; stroke-width:4; stroke-opacity:1; fill:none" points="218.439,1486.45 218.439,1467.55 "/>
<polyline clip-path="url(#clip550)" style="stroke:#000000; stroke-linecap:round; stroke-linejoin:round; stroke-width:4; stroke-opacity:1; fill:none" points="736.995,1486.45 736.995,1467.55 "/>
<polyline clip-path="url(#clip550)" style="stroke:#000000; stroke-linecap:round; stroke-linejoin:round; stroke-width:4; stroke-opacity:1; fill:none" points="1255.55,1486.45 1255.55,1467.55 "/>
<polyline clip-path="url(#clip550)" style="stroke:#000000; stroke-linecap:round; stroke-linejoin:round; stroke-width:4; stroke-opacity:1; fill:none" points="1774.11,1486.45 1774.11,1467.55 "/>
<polyline clip-path="url(#clip550)" style="stroke:#000000; stroke-linecap:round; stroke-linejoin:round; stroke-width:4; stroke-opacity:1; fill:none" points="2292.67,1486.45 2292.67,1467.55 "/>
<path clip-path="url(#clip550)" d="M218.439 1517.37 Q214.828 1517.37 212.999 1520.93 Q211.193 1524.47 211.193 1531.6 Q211.193 1538.71 212.999 1542.27 Q214.828 1545.82 218.439 1545.82 Q222.073 1545.82 223.879 1542.27 Q225.707 1538.71 225.707 1531.6 Q225.707 1524.47 223.879 1520.93 Q222.073 1517.37 218.439 1517.37 M218.439 1513.66 Q224.249 1513.66 227.304 1518.27 Q230.383 1522.85 230.383 1531.6 Q230.383 1540.33 227.304 1544.94 Q224.249 1549.52 218.439 1549.52 Q212.629 1549.52 209.55 1544.94 Q206.494 1540.33 206.494 1531.6 Q206.494 1522.85 209.55 1518.27 Q212.629 1513.66 218.439 1513.66 Z" fill="#000000" fill-rule="nonzero" fill-opacity="1" /><path clip-path="url(#clip550)" d="M700.688 1544.91 L717.007 1544.91 L717.007 1548.85 L695.063 1548.85 L695.063 1544.91 Q697.725 1542.16 702.308 1537.53 Q706.915 1532.88 708.095 1531.53 Q710.34 1529.01 711.22 1527.27 Q712.123 1525.51 712.123 1523.82 Q712.123 1521.07 710.178 1519.33 Q708.257 1517.6 705.155 1517.6 Q702.956 1517.6 700.503 1518.36 Q698.072 1519.13 695.294 1520.68 L695.294 1515.95 Q698.118 1514.82 700.572 1514.24 Q703.026 1513.66 705.063 1513.66 Q710.433 1513.66 713.628 1516.35 Q716.822 1519.03 716.822 1523.52 Q716.822 1525.65 716.012 1527.57 Q715.225 1529.47 713.118 1532.07 Q712.54 1532.74 709.438 1535.95 Q706.336 1539.15 700.688 1544.91 Z" fill="#000000" fill-rule="nonzero" fill-opacity="1" /><path clip-path="url(#clip550)" d="M726.868 1514.29 L745.225 1514.29 L745.225 1518.22 L731.151 1518.22 L731.151 1526.7 Q732.169 1526.35 733.188 1526.19 Q734.206 1526 735.225 1526 Q741.012 1526 744.391 1529.17 Q747.771 1532.34 747.771 1537.76 Q747.771 1543.34 744.299 1546.44 Q740.826 1549.52 734.507 1549.52 Q732.331 1549.52 730.063 1549.15 Q727.817 1548.78 725.41 1548.04 L725.41 1543.34 Q727.493 1544.47 729.715 1545.03 Q731.938 1545.58 734.414 1545.58 Q738.419 1545.58 740.757 1543.48 Q743.095 1541.37 743.095 1537.76 Q743.095 1534.15 740.757 1532.04 Q738.419 1529.94 734.414 1529.94 Q732.539 1529.94 730.664 1530.35 Q728.813 1530.77 726.868 1531.65 L726.868 1514.29 Z" fill="#000000" fill-rule="nonzero" fill-opacity="1" /><path clip-path="url(#clip550)" d="M766.984 1517.37 Q763.373 1517.37 761.544 1520.93 Q759.738 1524.47 759.738 1531.6 Q759.738 1538.71 761.544 1542.27 Q763.373 1545.82 766.984 1545.82 Q770.618 1545.82 772.423 1542.27 Q774.252 1538.71 774.252 1531.6 Q774.252 1524.47 772.423 1520.93 Q770.618 1517.37 766.984 1517.37 M766.984 1513.66 Q772.794 1513.66 775.849 1518.27 Q778.928 1522.85 778.928 1531.6 Q778.928 1540.33 775.849 1544.94 Q772.794 1549.52 766.984 1549.52 Q761.174 1549.52 758.095 1544.94 Q755.039 1540.33 755.039 1531.6 Q755.039 1522.85 758.095 1518.27 Q761.174 1513.66 766.984 1513.66 Z" fill="#000000" fill-rule="nonzero" fill-opacity="1" /><path clip-path="url(#clip550)" d="M1215.17 1514.29 L1233.53 1514.29 L1233.53 1518.22 L1219.45 1518.22 L1219.45 1526.7 Q1220.47 1526.35 1221.49 1526.19 Q1222.51 1526 1223.53 1526 Q1229.31 1526 1232.69 1529.17 Q1236.07 1532.34 1236.07 1537.76 Q1236.07 1543.34 1232.6 1546.44 Q1229.13 1549.52 1222.81 1549.52 Q1220.63 1549.52 1218.36 1549.15 Q1216.12 1548.78 1213.71 1548.04 L1213.71 1543.34 Q1215.8 1544.47 1218.02 1545.03 Q1220.24 1545.58 1222.72 1545.58 Q1226.72 1545.58 1229.06 1543.48 Q1231.4 1541.37 1231.4 1537.76 Q1231.4 1534.15 1229.06 1532.04 Q1226.72 1529.94 1222.72 1529.94 Q1220.84 1529.94 1218.97 1530.35 Q1217.11 1530.77 1215.17 1531.65 L1215.17 1514.29 Z" fill="#000000" fill-rule="nonzero" fill-opacity="1" /><path clip-path="url(#clip550)" d="M1255.29 1517.37 Q1251.67 1517.37 1249.85 1520.93 Q1248.04 1524.47 1248.04 1531.6 Q1248.04 1538.71 1249.85 1542.27 Q1251.67 1545.82 1255.29 1545.82 Q1258.92 1545.82 1260.73 1542.27 Q1262.55 1538.71 1262.55 1531.6 Q1262.55 1524.47 1260.73 1520.93 Q1258.92 1517.37 1255.29 1517.37 M1255.29 1513.66 Q1261.1 1513.66 1264.15 1518.27 Q1267.23 1522.85 1267.23 1531.6 Q1267.23 1540.33 1264.15 1544.94 Q1261.1 1549.52 1255.29 1549.52 Q1249.48 1549.52 1246.4 1544.94 Q1243.34 1540.33 1243.34 1531.6 Q1243.34 1522.85 1246.4 1518.27 Q1249.48 1513.66 1255.29 1513.66 Z" fill="#000000" fill-rule="nonzero" fill-opacity="1" /><path clip-path="url(#clip550)" d="M1285.45 1517.37 Q1281.84 1517.37 1280.01 1520.93 Q1278.2 1524.47 1278.2 1531.6 Q1278.2 1538.71 1280.01 1542.27 Q1281.84 1545.82 1285.45 1545.82 Q1289.08 1545.82 1290.89 1542.27 Q1292.72 1538.71 1292.72 1531.6 Q1292.72 1524.47 1290.89 1520.93 Q1289.08 1517.37 1285.45 1517.37 M1285.45 1513.66 Q1291.26 1513.66 1294.31 1518.27 Q1297.39 1522.85 1297.39 1531.6 Q1297.39 1540.33 1294.31 1544.94 Q1291.26 1549.52 1285.45 1549.52 Q1279.64 1549.52 1276.56 1544.94 Q1273.5 1540.33 1273.5 1531.6 Q1273.5 1522.85 1276.56 1518.27 Q1279.64 1513.66 1285.45 1513.66 Z" fill="#000000" fill-rule="nonzero" fill-opacity="1" /><path clip-path="url(#clip550)" d="M1732.38 1514.29 L1754.61 1514.29 L1754.61 1516.28 L1742.06 1548.85 L1737.18 1548.85 L1748.98 1518.22 L1732.38 1518.22 L1732.38 1514.29 Z" fill="#000000" fill-rule="nonzero" fill-opacity="1" /><path clip-path="url(#clip550)" d="M1763.77 1514.29 L1782.13 1514.29 L1782.13 1518.22 L1768.06 1518.22 L1768.06 1526.7 Q1769.07 1526.35 1770.09 1526.19 Q1771.11 1526 1772.13 1526 Q1777.92 1526 1781.3 1529.17 Q1784.68 1532.34 1784.68 1537.76 Q1784.68 1543.34 1781.2 1546.44 Q1777.73 1549.52 1771.41 1549.52 Q1769.24 1549.52 1766.97 1549.15 Q1764.72 1548.78 1762.31 1548.04 L1762.31 1543.34 Q1764.4 1544.47 1766.62 1545.03 Q1768.84 1545.58 1771.32 1545.58 Q1775.32 1545.58 1777.66 1543.48 Q1780 1541.37 1780 1537.76 Q1780 1534.15 1777.66 1532.04 Q1775.32 1529.94 1771.32 1529.94 Q1769.44 1529.94 1767.57 1530.35 Q1765.72 1530.77 1763.77 1531.65 L1763.77 1514.29 Z" fill="#000000" fill-rule="nonzero" fill-opacity="1" /><path clip-path="url(#clip550)" d="M1803.89 1517.37 Q1800.28 1517.37 1798.45 1520.93 Q1796.64 1524.47 1796.64 1531.6 Q1796.64 1538.71 1798.45 1542.27 Q1800.28 1545.82 1803.89 1545.82 Q1807.52 1545.82 1809.33 1542.27 Q1811.16 1538.71 1811.16 1531.6 Q1811.16 1524.47 1809.33 1520.93 Q1807.52 1517.37 1803.89 1517.37 M1803.89 1513.66 Q1809.7 1513.66 1812.75 1518.27 Q1815.83 1522.85 1815.83 1531.6 Q1815.83 1540.33 1812.75 1544.94 Q1809.7 1549.52 1803.89 1549.52 Q1798.08 1549.52 1795 1544.94 Q1791.94 1540.33 1791.94 1531.6 Q1791.94 1522.85 1795 1518.27 Q1798.08 1513.66 1803.89 1513.66 Z" fill="#000000" fill-rule="nonzero" fill-opacity="1" /><path clip-path="url(#clip550)" d="M2237.19 1544.91 L2244.83 1544.91 L2244.83 1518.55 L2236.52 1520.21 L2236.52 1515.95 L2244.78 1514.29 L2249.46 1514.29 L2249.46 1544.91 L2257.1 1544.91 L2257.1 1548.85 L2237.19 1548.85 L2237.19 1544.91 Z" fill="#000000" fill-rule="nonzero" fill-opacity="1" /><path clip-path="url(#clip550)" d="M2276.54 1517.37 Q2272.93 1517.37 2271.1 1520.93 Q2269.3 1524.47 2269.3 1531.6 Q2269.3 1538.71 2271.1 1542.27 Q2272.93 1545.82 2276.54 1545.82 Q2280.18 1545.82 2281.98 1542.27 Q2283.81 1538.71 2283.81 1531.6 Q2283.81 1524.47 2281.98 1520.93 Q2280.18 1517.37 2276.54 1517.37 M2276.54 1513.66 Q2282.35 1513.66 2285.41 1518.27 Q2288.49 1522.85 2288.49 1531.6 Q2288.49 1540.33 2285.41 1544.94 Q2282.35 1549.52 2276.54 1549.52 Q2270.73 1549.52 2267.65 1544.94 Q2264.6 1540.33 2264.6 1531.6 Q2264.6 1522.85 2267.65 1518.27 Q2270.73 1513.66 2276.54 1513.66 Z" fill="#000000" fill-rule="nonzero" fill-opacity="1" /><path clip-path="url(#clip550)" d="M2306.7 1517.37 Q2303.09 1517.37 2301.27 1520.93 Q2299.46 1524.47 2299.46 1531.6 Q2299.46 1538.71 2301.27 1542.27 Q2303.09 1545.82 2306.7 1545.82 Q2310.34 1545.82 2312.14 1542.27 Q2313.97 1538.71 2313.97 1531.6 Q2313.97 1524.47 2312.14 1520.93 Q2310.34 1517.37 2306.7 1517.37 M2306.7 1513.66 Q2312.51 1513.66 2315.57 1518.27 Q2318.65 1522.85 2318.65 1531.6 Q2318.65 1540.33 2315.57 1544.94 Q2312.51 1549.52 2306.7 1549.52 Q2300.89 1549.52 2297.82 1544.94 Q2294.76 1540.33 2294.76 1531.6 Q2294.76 1522.85 2297.82 1518.27 Q2300.89 1513.66 2306.7 1513.66 Z" fill="#000000" fill-rule="nonzero" fill-opacity="1" /><path clip-path="url(#clip550)" d="M2336.87 1517.37 Q2333.26 1517.37 2331.43 1520.93 Q2329.62 1524.47 2329.62 1531.6 Q2329.62 1538.71 2331.43 1542.27 Q2333.26 1545.82 2336.87 1545.82 Q2340.5 1545.82 2342.31 1542.27 Q2344.14 1538.71 2344.14 1531.6 Q2344.14 1524.47 2342.31 1520.93 Q2340.5 1517.37 2336.87 1517.37 M2336.87 1513.66 Q2342.68 1513.66 2345.73 1518.27 Q2348.81 1522.85 2348.81 1531.6 Q2348.81 1540.33 2345.73 1544.94 Q2342.68 1549.52 2336.87 1549.52 Q2331.06 1549.52 2327.98 1544.94 Q2324.92 1540.33 2324.92 1531.6 Q2324.92 1522.85 2327.98 1518.27 Q2331.06 1513.66 2336.87 1513.66 Z" fill="#000000" fill-rule="nonzero" fill-opacity="1" /><polyline clip-path="url(#clip552)" style="stroke:#000000; stroke-linecap:round; stroke-linejoin:round; stroke-width:2; stroke-opacity:0.1; fill:none" points="156.274,1300.24 2352.76,1300.24 "/>
<polyline clip-path="url(#clip552)" style="stroke:#000000; stroke-linecap:round; stroke-linejoin:round; stroke-width:2; stroke-opacity:0.1; fill:none" points="156.274,1057.79 2352.76,1057.79 "/>
<polyline clip-path="url(#clip552)" style="stroke:#000000; stroke-linecap:round; stroke-linejoin:round; stroke-width:2; stroke-opacity:0.1; fill:none" points="156.274,815.337 2352.76,815.337 "/>
<polyline clip-path="url(#clip552)" style="stroke:#000000; stroke-linecap:round; stroke-linejoin:round; stroke-width:2; stroke-opacity:0.1; fill:none" points="156.274,572.883 2352.76,572.883 "/>
<polyline clip-path="url(#clip552)" style="stroke:#000000; stroke-linecap:round; stroke-linejoin:round; stroke-width:2; stroke-opacity:0.1; fill:none" points="156.274,330.43 2352.76,330.43 "/>
<polyline clip-path="url(#clip552)" style="stroke:#000000; stroke-linecap:round; stroke-linejoin:round; stroke-width:2; stroke-opacity:0.1; fill:none" points="156.274,87.9763 2352.76,87.9763 "/>
<polyline clip-path="url(#clip550)" style="stroke:#000000; stroke-linecap:round; stroke-linejoin:round; stroke-width:4; stroke-opacity:1; fill:none" points="156.274,1486.45 156.274,47.2441 "/>
<polyline clip-path="url(#clip550)" style="stroke:#000000; stroke-linecap:round; stroke-linejoin:round; stroke-width:4; stroke-opacity:1; fill:none" points="156.274,1300.24 175.172,1300.24 "/>
<polyline clip-path="url(#clip550)" style="stroke:#000000; stroke-linecap:round; stroke-linejoin:round; stroke-width:4; stroke-opacity:1; fill:none" points="156.274,1057.79 175.172,1057.79 "/>
<polyline clip-path="url(#clip550)" style="stroke:#000000; stroke-linecap:round; stroke-linejoin:round; stroke-width:4; stroke-opacity:1; fill:none" points="156.274,815.337 175.172,815.337 "/>
<polyline clip-path="url(#clip550)" style="stroke:#000000; stroke-linecap:round; stroke-linejoin:round; stroke-width:4; stroke-opacity:1; fill:none" points="156.274,572.883 175.172,572.883 "/>
<polyline clip-path="url(#clip550)" style="stroke:#000000; stroke-linecap:round; stroke-linejoin:round; stroke-width:4; stroke-opacity:1; fill:none" points="156.274,330.43 175.172,330.43 "/>
<polyline clip-path="url(#clip550)" style="stroke:#000000; stroke-linecap:round; stroke-linejoin:round; stroke-width:4; stroke-opacity:1; fill:none" points="156.274,87.9763 175.172,87.9763 "/>
<path clip-path="url(#clip550)" d="M64.0939 1286.04 Q60.4828 1286.04 58.6541 1289.61 Q56.8486 1293.15 56.8486 1300.28 Q56.8486 1307.38 58.6541 1310.95 Q60.4828 1314.49 64.0939 1314.49 Q67.7281 1314.49 69.5337 1310.95 Q71.3624 1307.38 71.3624 1300.28 Q71.3624 1293.15 69.5337 1289.61 Q67.7281 1286.04 64.0939 1286.04 M64.0939 1282.34 Q69.9041 1282.34 72.9596 1286.95 Q76.0383 1291.53 76.0383 1300.28 Q76.0383 1309.01 72.9596 1313.61 Q69.9041 1318.19 64.0939 1318.19 Q58.2838 1318.19 55.2051 1313.61 Q52.1495 1309.01 52.1495 1300.28 Q52.1495 1291.53 55.2051 1286.95 Q58.2838 1282.34 64.0939 1282.34 Z" fill="#000000" fill-rule="nonzero" fill-opacity="1" /><path clip-path="url(#clip550)" d="M84.2558 1311.64 L89.1401 1311.64 L89.1401 1317.52 L84.2558 1317.52 L84.2558 1311.64 Z" fill="#000000" fill-rule="nonzero" fill-opacity="1" /><path clip-path="url(#clip550)" d="M99.3715 1282.96 L117.728 1282.96 L117.728 1286.9 L103.654 1286.9 L103.654 1295.37 Q104.672 1295.02 105.691 1294.86 Q106.709 1294.68 107.728 1294.68 Q113.515 1294.68 116.895 1297.85 Q120.274 1301.02 120.274 1306.44 Q120.274 1312.01 116.802 1315.12 Q113.33 1318.19 107.01 1318.19 Q104.834 1318.19 102.566 1317.82 Q100.321 1317.45 97.9132 1316.71 L97.9132 1312.01 Q99.9965 1313.15 102.219 1313.7 Q104.441 1314.26 106.918 1314.26 Q110.922 1314.26 113.26 1312.15 Q115.598 1310.05 115.598 1306.44 Q115.598 1302.82 113.26 1300.72 Q110.922 1298.61 106.918 1298.61 Q105.043 1298.61 103.168 1299.03 Q101.316 1299.45 99.3715 1300.32 L99.3715 1282.96 Z" fill="#000000" fill-rule="nonzero" fill-opacity="1" /><path clip-path="url(#clip550)" d="M62.9365 1043.59 Q59.3254 1043.59 57.4967 1047.15 Q55.6912 1050.7 55.6912 1057.82 Q55.6912 1064.93 57.4967 1068.5 Q59.3254 1072.04 62.9365 1072.04 Q66.5707 1072.04 68.3763 1068.5 Q70.205 1064.93 70.205 1057.82 Q70.205 1050.7 68.3763 1047.15 Q66.5707 1043.59 62.9365 1043.59 M62.9365 1039.89 Q68.7467 1039.89 71.8022 1044.49 Q74.8809 1049.07 74.8809 1057.82 Q74.8809 1066.55 71.8022 1071.16 Q68.7467 1075.74 62.9365 1075.74 Q57.1264 1075.74 54.0477 1071.16 Q50.9921 1066.55 50.9921 1057.82 Q50.9921 1049.07 54.0477 1044.49 Q57.1264 1039.89 62.9365 1039.89 Z" fill="#000000" fill-rule="nonzero" fill-opacity="1" /><path clip-path="url(#clip550)" d="M83.0984 1069.19 L87.9827 1069.19 L87.9827 1075.07 L83.0984 1075.07 L83.0984 1069.19 Z" fill="#000000" fill-rule="nonzero" fill-opacity="1" /><path clip-path="url(#clip550)" d="M108.746 1055.93 Q105.598 1055.93 103.746 1058.08 Q101.918 1060.23 101.918 1063.98 Q101.918 1067.71 103.746 1069.88 Q105.598 1072.04 108.746 1072.04 Q111.895 1072.04 113.723 1069.88 Q115.575 1067.71 115.575 1063.98 Q115.575 1060.23 113.723 1058.08 Q111.895 1055.93 108.746 1055.93 M118.029 1041.27 L118.029 1045.53 Q116.27 1044.7 114.464 1044.26 Q112.682 1043.82 110.922 1043.82 Q106.293 1043.82 103.839 1046.95 Q101.409 1050.07 101.061 1056.39 Q102.427 1054.38 104.487 1053.31 Q106.547 1052.22 109.024 1052.22 Q114.233 1052.22 117.242 1055.39 Q120.274 1058.54 120.274 1063.98 Q120.274 1069.31 117.126 1072.52 Q113.978 1075.74 108.746 1075.74 Q102.751 1075.74 99.5798 1071.16 Q96.4085 1066.55 96.4085 1057.82 Q96.4085 1049.63 100.297 1044.77 Q104.186 1039.89 110.737 1039.89 Q112.496 1039.89 114.279 1040.23 Q116.084 1040.58 118.029 1041.27 Z" fill="#000000" fill-rule="nonzero" fill-opacity="1" /><path clip-path="url(#clip550)" d="M64.0013 801.135 Q60.3902 801.135 58.5615 804.7 Q56.756 808.242 56.756 815.371 Q56.756 822.478 58.5615 826.043 Q60.3902 829.584 64.0013 829.584 Q67.6356 829.584 69.4411 826.043 Q71.2698 822.478 71.2698 815.371 Q71.2698 808.242 69.4411 804.7 Q67.6356 801.135 64.0013 801.135 M64.0013 797.432 Q69.8115 797.432 72.867 802.038 Q75.9457 806.621 75.9457 815.371 Q75.9457 824.098 72.867 828.705 Q69.8115 833.288 64.0013 833.288 Q58.1912 833.288 55.1125 828.705 Q52.0569 824.098 52.0569 815.371 Q52.0569 806.621 55.1125 802.038 Q58.1912 797.432 64.0013 797.432 Z" fill="#000000" fill-rule="nonzero" fill-opacity="1" /><path clip-path="url(#clip550)" d="M84.1632 826.737 L89.0475 826.737 L89.0475 832.617 L84.1632 832.617 L84.1632 826.737 Z" fill="#000000" fill-rule="nonzero" fill-opacity="1" /><path clip-path="url(#clip550)" d="M98.0521 798.057 L120.274 798.057 L120.274 800.047 L107.728 832.617 L102.844 832.617 L114.649 801.992 L98.0521 801.992 L98.0521 798.057 Z" fill="#000000" fill-rule="nonzero" fill-opacity="1" /><path clip-path="url(#clip550)" d="M63.1911 558.682 Q59.58 558.682 57.7513 562.247 Q55.9458 565.788 55.9458 572.918 Q55.9458 580.024 57.7513 583.589 Q59.58 587.131 63.1911 587.131 Q66.8254 587.131 68.6309 583.589 Q70.4596 580.024 70.4596 572.918 Q70.4596 565.788 68.6309 562.247 Q66.8254 558.682 63.1911 558.682 M63.1911 554.978 Q69.0013 554.978 72.0568 559.585 Q75.1355 564.168 75.1355 572.918 Q75.1355 581.645 72.0568 586.251 Q69.0013 590.835 63.1911 590.835 Q57.381 590.835 54.3023 586.251 Q51.2468 581.645 51.2468 572.918 Q51.2468 564.168 54.3023 559.585 Q57.381 554.978 63.1911 554.978 Z" fill="#000000" fill-rule="nonzero" fill-opacity="1" /><path clip-path="url(#clip550)" d="M83.3531 584.284 L88.2373 584.284 L88.2373 590.163 L83.3531 590.163 L83.3531 584.284 Z" fill="#000000" fill-rule="nonzero" fill-opacity="1" /><path clip-path="url(#clip550)" d="M108.422 573.751 Q105.089 573.751 103.168 575.534 Q101.27 577.316 101.27 580.441 Q101.27 583.566 103.168 585.348 Q105.089 587.131 108.422 587.131 Q111.756 587.131 113.677 585.348 Q115.598 583.543 115.598 580.441 Q115.598 577.316 113.677 575.534 Q111.779 573.751 108.422 573.751 M103.746 571.761 Q100.737 571.02 99.0474 568.96 Q97.3808 566.899 97.3808 563.936 Q97.3808 559.793 100.321 557.386 Q103.284 554.978 108.422 554.978 Q113.584 554.978 116.524 557.386 Q119.464 559.793 119.464 563.936 Q119.464 566.899 117.774 568.96 Q116.108 571.02 113.121 571.761 Q116.501 572.548 118.376 574.839 Q120.274 577.131 120.274 580.441 Q120.274 585.464 117.195 588.149 Q114.14 590.835 108.422 590.835 Q102.705 590.835 99.6261 588.149 Q96.5706 585.464 96.5706 580.441 Q96.5706 577.131 98.4687 574.839 Q100.367 572.548 103.746 571.761 M102.034 564.376 Q102.034 567.061 103.7 568.566 Q105.39 570.071 108.422 570.071 Q111.432 570.071 113.121 568.566 Q114.834 567.061 114.834 564.376 Q114.834 561.691 113.121 560.187 Q111.432 558.682 108.422 558.682 Q105.39 558.682 103.7 560.187 Q102.034 561.691 102.034 564.376 Z" fill="#000000" fill-rule="nonzero" fill-opacity="1" /><path clip-path="url(#clip550)" d="M63.2837 316.228 Q59.6726 316.228 57.8439 319.793 Q56.0384 323.335 56.0384 330.464 Q56.0384 337.571 57.8439 341.136 Q59.6726 344.677 63.2837 344.677 Q66.918 344.677 68.7235 341.136 Q70.5522 337.571 70.5522 330.464 Q70.5522 323.335 68.7235 319.793 Q66.918 316.228 63.2837 316.228 M63.2837 312.525 Q69.0939 312.525 72.1494 317.131 Q75.2281 321.715 75.2281 330.464 Q75.2281 339.191 72.1494 343.798 Q69.0939 348.381 63.2837 348.381 Q57.4736 348.381 54.3949 343.798 Q51.3393 339.191 51.3393 330.464 Q51.3393 321.715 54.3949 317.131 Q57.4736 312.525 63.2837 312.525 Z" fill="#000000" fill-rule="nonzero" fill-opacity="1" /><path clip-path="url(#clip550)" d="M83.4457 341.83 L88.3299 341.83 L88.3299 347.71 L83.4457 347.71 L83.4457 341.83 Z" fill="#000000" fill-rule="nonzero" fill-opacity="1" /><path clip-path="url(#clip550)" d="M98.6539 346.992 L98.6539 342.733 Q100.413 343.566 102.219 344.006 Q104.024 344.446 105.76 344.446 Q110.39 344.446 112.82 341.344 Q115.274 338.219 115.621 331.876 Q114.279 333.867 112.219 334.932 Q110.158 335.997 107.658 335.997 Q102.473 335.997 99.4409 332.872 Q96.4317 329.724 96.4317 324.284 Q96.4317 318.96 99.5798 315.742 Q102.728 312.525 107.959 312.525 Q113.955 312.525 117.103 317.131 Q120.274 321.715 120.274 330.464 Q120.274 338.636 116.385 343.52 Q112.52 348.381 105.969 348.381 Q104.209 348.381 102.404 348.034 Q100.598 347.687 98.6539 346.992 M107.959 332.339 Q111.108 332.339 112.936 330.187 Q114.788 328.034 114.788 324.284 Q114.788 320.557 112.936 318.404 Q111.108 316.228 107.959 316.228 Q104.811 316.228 102.959 318.404 Q101.131 320.557 101.131 324.284 Q101.131 328.034 102.959 330.187 Q104.811 332.339 107.959 332.339 Z" fill="#000000" fill-rule="nonzero" fill-opacity="1" /><path clip-path="url(#clip550)" d="M53.9088 101.321 L61.5476 101.321 L61.5476 74.9555 L53.2375 76.6222 L53.2375 72.3629 L61.5013 70.6963 L66.1772 70.6963 L66.1772 101.321 L73.8161 101.321 L73.8161 105.256 L53.9088 105.256 L53.9088 101.321 Z" fill="#000000" fill-rule="nonzero" fill-opacity="1" /><path clip-path="url(#clip550)" d="M83.2605 99.3767 L88.1447 99.3767 L88.1447 105.256 L83.2605 105.256 L83.2605 99.3767 Z" fill="#000000" fill-rule="nonzero" fill-opacity="1" /><path clip-path="url(#clip550)" d="M108.33 73.775 Q104.719 73.775 102.89 77.3398 Q101.084 80.8814 101.084 88.011 Q101.084 95.1174 102.89 98.6822 Q104.719 102.224 108.33 102.224 Q111.964 102.224 113.77 98.6822 Q115.598 95.1174 115.598 88.011 Q115.598 80.8814 113.77 77.3398 Q111.964 73.775 108.33 73.775 M108.33 70.0713 Q114.14 70.0713 117.195 74.6777 Q120.274 79.261 120.274 88.011 Q120.274 96.7378 117.195 101.344 Q114.14 105.928 108.33 105.928 Q102.52 105.928 99.4409 101.344 Q96.3854 96.7378 96.3854 88.011 Q96.3854 79.261 99.4409 74.6777 Q102.52 70.0713 108.33 70.0713 Z" fill="#000000" fill-rule="nonzero" fill-opacity="1" /><polyline clip-path="url(#clip552)" style="stroke:#009af9; stroke-linecap:round; stroke-linejoin:round; stroke-width:4; stroke-opacity:1; fill:none" points="218.439,1106.28 220.513,718.355 222.587,1251.75 224.661,1106.28 226.736,912.318 228.81,718.355 230.884,912.318 232.958,1057.79 235.033,718.355 237.107,718.355 239.181,912.318 241.255,1154.77 243.329,1348.73 245.404,815.337 247.478,1445.72 249.552,912.318 251.626,1203.26 253.701,766.846 255.775,1397.22 257.849,912.318 259.923,815.337 261.998,815.337 264.072,863.827 266.146,1203.26 268.22,815.337 270.294,863.827 272.369,1251.75 274.443,912.318 276.517,863.827 278.591,1009.3 280.666,912.318 282.74,1203.26 284.814,863.827 286.888,960.809 288.962,912.318 291.037,863.827 293.111,1009.3 295.185,863.827 297.259,863.827 299.334,863.827 301.408,1057.79 303.482,960.809 305.556,524.393 307.63,912.318 309.705,718.355 311.779,1009.3 313.853,912.318 315.927,815.337 318.002,621.374 320.076,912.318 322.15,766.846 324.224,572.883 326.299,912.318 328.373,863.827 330.447,621.374 332.521,621.374 334.595,1057.79 336.67,863.827 338.744,572.883 340.818,960.809 342.892,524.393 344.967,960.809 347.041,1106.28 349.115,669.865 351.189,718.355 353.263,524.393 355.338,1106.28 357.412,766.846 359.486,718.355 361.56,718.355 363.635,815.337 365.709,669.865 367.783,621.374 369.857,766.846 371.932,960.809 374.006,766.846 376.08,524.393 378.154,524.393 380.228,1009.3 382.303,475.902 384.377,815.337 386.451,718.355 388.525,718.355 390.6,524.393 392.674,524.393 394.748,815.337 396.822,572.883 398.896,621.374 400.971,524.393 403.045,718.355 405.119,572.883 407.193,621.374 409.268,621.374 411.342,718.355 413.416,427.411 415.49,669.865 417.565,621.374 419.639,621.374 421.713,815.337 423.787,766.846 425.861,378.92 427.936,378.92 430.01,669.865 432.084,427.411 434.158,669.865 436.233,621.374 438.307,330.43 440.381,621.374 442.455,718.355 444.529,378.92 446.604,621.374 448.678,621.374 450.752,378.92 452.826,621.374 454.901,330.43 456.975,524.393 459.049,184.958 461.123,475.902 463.198,524.393 465.272,330.43 467.346,815.337 469.42,572.883 471.494,427.411 473.569,572.883 475.643,475.902 477.717,669.865 479.791,621.374 481.866,475.902 483.94,766.846 486.014,427.411 488.088,427.411 490.162,524.393 492.237,669.865 494.311,621.374 496.385,281.939 498.459,281.939 500.534,621.374 502.608,621.374 504.682,330.43 506.756,475.902 508.83,572.883 510.905,378.92 512.979,524.393 515.053,572.883 517.127,669.865 519.202,330.43 521.276,427.411 523.35,330.43 525.424,427.411 527.499,621.374 529.573,524.393 531.647,330.43 533.721,475.902 535.795,378.92 537.87,378.92 539.944,330.43 542.018,281.939 544.092,330.43 546.167,524.393 548.241,572.883 550.315,427.411 552.389,572.883 554.463,281.939 556.538,427.411 558.612,427.411 560.686,572.883 562.76,572.883 564.835,524.393 566.909,427.411 568.983,524.393 571.057,524.393 573.132,475.902 575.206,427.411 577.28,572.883 579.354,427.411 581.428,281.939 583.503,621.374 585.577,233.448 587.651,427.411 589.725,427.411 591.8,330.43 593.874,475.902 595.948,475.902 598.022,281.939 600.096,184.958 602.171,427.411 604.245,378.92 606.319,330.43 608.393,378.92 610.468,281.939 612.542,378.92 614.616,572.883 616.69,572.883 618.765,281.939 620.839,233.448 622.913,233.448 624.987,184.958 627.061,281.939 629.136,378.92 631.21,378.92 633.284,233.448 635.358,475.902 637.433,475.902 639.507,330.43 641.581,378.92 643.655,475.902 645.729,281.939 647.804,233.448 649.878,378.92 651.952,233.448 654.026,233.448 656.101,281.939 658.175,281.939 660.249,621.374 662.323,330.43 664.398,330.43 666.472,233.448 668.546,475.902 670.62,427.411 672.694,475.902 674.769,184.958 676.843,475.902 678.917,281.939 680.991,475.902 683.066,427.411 685.14,427.411 687.214,281.939 689.288,378.92 691.362,233.448 693.437,427.411 695.511,184.958 697.585,524.393 699.659,378.92 701.734,378.92 703.808,378.92 705.882,621.374 707.956,233.448 710.03,233.448 712.105,184.958 714.179,281.939 716.253,281.939 718.327,281.939 720.402,378.92 722.476,427.411 724.55,378.92 726.624,330.43 728.699,427.411 730.773,281.939 732.847,233.448 734.921,184.958 736.995,475.902 739.07,524.393 741.144,281.939 743.218,427.411 745.292,184.958 747.367,475.902 749.441,184.958 751.515,281.939 753.589,233.448 755.663,281.939 757.738,378.92 759.812,427.411 761.886,281.939 763.96,184.958 766.035,330.43 768.109,184.958 770.183,281.939 772.257,330.43 774.332,378.92 776.406,378.92 778.48,281.939 780.554,184.958 782.628,281.939 784.703,427.411 786.777,475.902 788.851,378.92 790.925,184.958 793,330.43 795.074,233.448 797.148,330.43 799.222,184.958 801.296,427.411 803.371,330.43 805.445,427.411 807.519,524.393 809.593,378.92 811.668,233.448 813.742,281.939 815.816,330.43 817.89,281.939 819.965,281.939 822.039,330.43 824.113,524.393 826.187,281.939 828.261,281.939 830.336,233.448 832.41,136.467 834.484,233.448 836.558,427.411 838.633,330.43 840.707,233.448 842.781,281.939 844.855,136.467 846.929,330.43 849.004,281.939 851.078,184.958 853.152,184.958 855.226,233.448 857.301,427.411 859.375,330.43 861.449,281.939 863.523,136.467 865.598,330.43 867.672,233.448 869.746,281.939 871.82,281.939 873.894,330.43 875.969,427.411 878.043,136.467 880.117,136.467 882.191,233.448 884.266,427.411 886.34,184.958 888.414,233.448 890.488,184.958 892.562,427.411 894.637,281.939 896.711,281.939 898.785,233.448 900.859,136.467 902.934,427.411 905.008,184.958 907.082,184.958 909.156,184.958 911.23,281.939 913.305,184.958 915.379,136.467 917.453,378.92 919.527,330.43 921.602,184.958 923.676,184.958 925.75,378.92 927.824,233.448 929.899,281.939 931.973,136.467 934.047,136.467 936.121,233.448 938.195,184.958 940.27,184.958 942.344,378.92 944.418,233.448 946.492,233.448 948.567,233.448 950.641,87.9763 952.715,281.939 954.789,87.9763 956.863,378.92 958.938,281.939 961.012,330.43 963.086,330.43 965.16,281.939 967.235,233.448 969.309,136.467 971.383,281.939 973.457,281.939 975.532,233.448 977.606,233.448 979.68,281.939 981.754,233.448 983.828,184.958 985.903,281.939 987.977,281.939 990.051,136.467 992.125,475.902 994.2,281.939 996.274,184.958 998.348,330.43 1000.42,184.958 1002.5,281.939 1004.57,184.958 1006.64,233.448 1008.72,233.448 1010.79,136.467 1012.87,233.448 1014.94,281.939 1017.02,378.92 1019.09,281.939 1021.16,184.958 1023.24,184.958 1025.31,136.467 1027.39,136.467 1029.46,330.43 1031.54,233.448 1033.61,233.448 1035.68,233.448 1037.76,378.92 1039.83,330.43 1041.91,136.467 1043.98,281.939 1046.06,330.43 1048.13,136.467 1050.2,330.43 1052.28,330.43 1054.35,233.448 1056.43,281.939 1058.5,184.958 1060.57,330.43 1062.65,184.958 1064.72,281.939 1066.8,330.43 1068.87,281.939 1070.95,281.939 1073.02,136.467 1075.09,136.467 1077.17,281.939 1079.24,136.467 1081.32,378.92 1083.39,281.939 1085.47,136.467 1087.54,184.958 1089.61,233.448 1091.69,184.958 1093.76,184.958 1095.84,378.92 1097.91,427.411 1099.99,330.43 1102.06,136.467 1104.13,233.448 1106.21,184.958 1108.28,378.92 1110.36,330.43 1112.43,281.939 1114.5,233.448 1116.58,281.939 1118.65,281.939 1120.73,330.43 1122.8,233.448 1124.88,330.43 1126.95,281.939 1129.02,233.448 1131.1,233.448 1133.17,87.9763 1135.25,330.43 1137.32,330.43 1139.4,87.9763 1141.47,281.939 1143.54,233.448 1145.62,330.43 1147.69,233.448 1149.77,184.958 1151.84,136.467 1153.92,233.448 1155.99,233.448 1158.06,184.958 1160.14,524.393 1162.21,136.467 1164.29,233.448 1166.36,233.448 1168.43,233.448 1170.51,184.958 1172.58,427.411 1174.66,87.9763 1176.73,184.958 1178.81,378.92 1180.88,233.448 1182.95,136.467 1185.03,281.939 1187.1,184.958 1189.18,281.939 1191.25,136.467 1193.33,233.448 1195.4,136.467 1197.47,233.448 1199.55,427.411 1201.62,184.958 1203.7,136.467 1205.77,378.92 1207.84,233.448 1209.92,233.448 1211.99,233.448 1214.07,184.958 1216.14,378.92 1218.22,184.958 1220.29,233.448 1222.36,378.92 1224.44,281.939 1226.51,184.958 1228.59,233.448 1230.66,184.958 1232.74,233.448 1234.81,184.958 1236.88,184.958 1238.96,233.448 1241.03,184.958 1243.11,136.467 1245.18,330.43 1247.26,184.958 1249.33,87.9763 1251.4,136.467 1253.48,136.467 1255.55,87.9763 1257.63,281.939 1259.7,136.467 1261.77,281.939 1263.85,281.939 1265.92,281.939 1268,136.467 1270.07,136.467 1272.15,233.448 1274.22,330.43 1276.29,136.467 1278.37,233.448 1280.44,233.448 1282.52,281.939 1284.59,281.939 1286.67,330.43 1288.74,233.448 1290.81,524.393 1292.89,136.467 1294.96,184.958 1297.04,281.939 1299.11,184.958 1301.19,136.467 1303.26,281.939 1305.33,330.43 1307.41,136.467 1309.48,233.448 1311.56,87.9763 1313.63,281.939 1315.7,233.448 1317.78,136.467 1319.85,184.958 1321.93,233.448 1324,330.43 1326.08,281.939 1328.15,281.939 1330.22,233.448 1332.3,184.958 1334.37,281.939 1336.45,136.467 1338.52,330.43 1340.6,281.939 1342.67,136.467 1344.74,184.958 1346.82,87.9763 1348.89,281.939 1350.97,281.939 1353.04,233.448 1355.12,281.939 1357.19,184.958 1359.26,136.467 1361.34,184.958 1363.41,136.467 1365.49,184.958 1367.56,378.92 1369.63,136.467 1371.71,184.958 1373.78,136.467 1375.86,330.43 1377.93,184.958 1380.01,281.939 1382.08,184.958 1384.15,281.939 1386.23,233.448 1388.3,233.448 1390.38,233.448 1392.45,233.448 1394.53,184.958 1396.6,281.939 1398.67,330.43 1400.75,136.467 1402.82,330.43 1404.9,233.448 1406.97,184.958 1409.04,281.939 1411.12,281.939 1413.19,136.467 1415.27,136.467 1417.34,233.448 1419.42,281.939 1421.49,233.448 1423.56,184.958 1425.64,233.448 1427.71,233.448 1429.79,233.448 1431.86,184.958 1433.94,281.939 1436.01,184.958 1438.08,184.958 1440.16,184.958 1442.23,378.92 1444.31,136.467 1446.38,378.92 1448.46,136.467 1450.53,233.448 1452.6,184.958 1454.68,233.448 1456.75,378.92 1458.83,281.939 1460.9,281.939 1462.97,233.448 1465.05,184.958 1467.12,184.958 1469.2,330.43 1471.27,233.448 1473.35,184.958 1475.42,233.448 1477.49,233.448 1479.57,378.92 1481.64,281.939 1483.72,136.467 1485.79,136.467 1487.87,330.43 1489.94,87.9763 1492.01,184.958 1494.09,233.448 1496.16,233.448 1498.24,136.467 1500.31,184.958 1502.39,136.467 1504.46,136.467 1506.53,184.958 1508.61,233.448 1510.68,184.958 1512.76,281.939 1514.83,330.43 1516.9,184.958 1518.98,184.958 1521.05,233.448 1523.13,87.9763 1525.2,233.448 1527.28,136.467 1529.35,233.448 1531.42,427.411 1533.5,378.92 1535.57,184.958 1537.65,233.448 1539.72,330.43 1541.8,184.958 1543.87,87.9763 1545.94,87.9763 1548.02,184.958 1550.09,87.9763 1552.17,136.467 1554.24,184.958 1556.32,184.958 1558.39,330.43 1560.46,281.939 1562.54,233.448 1564.61,184.958 1566.69,184.958 1568.76,184.958 1570.83,281.939 1572.91,330.43 1574.98,184.958 1577.06,87.9763 1579.13,281.939 1581.21,233.448 1583.28,233.448 1585.35,184.958 1587.43,184.958 1589.5,281.939 1591.58,233.448 1593.65,281.939 1595.73,184.958 1597.8,233.448 1599.87,281.939 1601.95,184.958 1604.02,136.467 1606.1,233.448 1608.17,281.939 1610.24,184.958 1612.32,136.467 1614.39,233.448 1616.47,87.9763 1618.54,233.448 1620.62,378.92 1622.69,184.958 1624.76,233.448 1626.84,233.448 1628.91,281.939 1630.99,184.958 1633.06,233.448 1635.14,184.958 1637.21,233.448 1639.28,184.958 1641.36,330.43 1643.43,281.939 1645.51,233.448 1647.58,378.92 1649.66,378.92 1651.73,330.43 1653.8,184.958 1655.88,136.467 1657.95,233.448 1660.03,184.958 1662.1,184.958 1664.17,184.958 1666.25,136.467 1668.32,184.958 1670.4,233.448 1672.47,87.9763 1674.55,233.448 1676.62,281.939 1678.69,233.448 1680.77,281.939 1682.84,184.958 1684.92,233.448 1686.99,330.43 1689.07,281.939 1691.14,330.43 1693.21,184.958 1695.29,233.448 1697.36,184.958 1699.44,233.448 1701.51,281.939 1703.59,233.448 1705.66,233.448 1707.73,184.958 1709.81,330.43 1711.88,136.467 1713.96,233.448 1716.03,136.467 1718.1,233.448 1720.18,136.467 1722.25,281.939 1724.33,136.467 1726.4,87.9763 1728.48,184.958 1730.55,281.939 1732.62,87.9763 1734.7,233.448 1736.77,233.448 1738.85,136.467 1740.92,87.9763 1743,427.411 1745.07,427.411 1747.14,136.467 1749.22,136.467 1751.29,281.939 1753.37,87.9763 1755.44,281.939 1757.52,136.467 1759.59,233.448 1761.66,281.939 1763.74,184.958 1765.81,330.43 1767.89,136.467 1769.96,281.939 1772.03,233.448 1774.11,233.448 1776.18,136.467 1778.26,281.939 1780.33,233.448 1782.41,184.958 1784.48,184.958 1786.55,233.448 1788.63,427.411 1790.7,281.939 1792.78,233.448 1794.85,233.448 1796.93,184.958 1799,136.467 1801.07,184.958 1803.15,136.467 1805.22,184.958 1807.3,184.958 1809.37,136.467 1811.44,233.448 1813.52,87.9763 1815.59,184.958 1817.67,378.92 1819.74,330.43 1821.82,136.467 1823.89,233.448 1825.96,136.467 1828.04,136.467 1830.11,87.9763 1832.19,233.448 1834.26,184.958 1836.34,233.448 1838.41,281.939 1840.48,233.448 1842.56,378.92 1844.63,87.9763 1846.71,184.958 1848.78,330.43 1850.86,233.448 1852.93,184.958 1855,281.939 1857.08,184.958 1859.15,184.958 1861.23,330.43 1863.3,136.467 1865.37,233.448 1867.45,184.958 1869.52,330.43 1871.6,136.467 1873.67,136.467 1875.75,233.448 1877.82,281.939 1879.89,184.958 1881.97,281.939 1884.04,330.43 1886.12,87.9763 1888.19,184.958 1890.27,136.467 1892.34,233.448 1894.41,87.9763 1896.49,233.448 1898.56,378.92 1900.64,233.448 1902.71,184.958 1904.79,184.958 1906.86,136.467 1908.93,184.958 1911.01,524.393 1913.08,330.43 1915.16,184.958 1917.23,330.43 1919.3,87.9763 1921.38,281.939 1923.45,184.958 1925.53,184.958 1927.6,281.939 1929.68,330.43 1931.75,233.448 1933.82,184.958 1935.9,184.958 1937.97,136.467 1940.05,233.448 1942.12,330.43 1944.2,233.448 1946.27,281.939 1948.34,136.467 1950.42,87.9763 1952.49,281.939 1954.57,184.958 1956.64,136.467 1958.72,184.958 1960.79,233.448 1962.86,233.448 1964.94,136.467 1967.01,136.467 1969.09,184.958 1971.16,136.467 1973.23,330.43 1975.31,136.467 1977.38,184.958 1979.46,136.467 1981.53,87.9763 1983.61,136.467 1985.68,233.448 1987.75,184.958 1989.83,136.467 1991.9,233.448 1993.98,233.448 1996.05,281.939 1998.13,136.467 2000.2,233.448 2002.27,136.467 2004.35,184.958 2006.42,233.448 2008.5,136.467 2010.57,281.939 2012.64,233.448 2014.72,184.958 2016.79,233.448 2018.87,136.467 2020.94,233.448 2023.02,330.43 2025.09,281.939 2027.16,233.448 2029.24,281.939 2031.31,378.92 2033.39,184.958 2035.46,281.939 2037.54,281.939 2039.61,184.958 2041.68,136.467 2043.76,378.92 2045.83,233.448 2047.91,184.958 2049.98,184.958 2052.06,330.43 2054.13,184.958 2056.2,136.467 2058.28,184.958 2060.35,233.448 2062.43,330.43 2064.5,87.9763 2066.57,87.9763 2068.65,233.448 2070.72,184.958 2072.8,136.467 2074.87,233.448 2076.95,233.448 2079.02,233.448 2081.09,136.467 2083.17,136.467 2085.24,136.467 2087.32,87.9763 2089.39,136.467 2091.47,184.958 2093.54,233.448 2095.61,281.939 2097.69,136.467 2099.76,136.467 2101.84,281.939 2103.91,184.958 2105.99,136.467 2108.06,330.43 2110.13,136.467 2112.21,136.467 2114.28,233.448 2116.36,136.467 2118.43,184.958 2120.5,281.939 2122.58,87.9763 2124.65,136.467 2126.73,184.958 2128.8,233.448 2130.88,330.43 2132.95,87.9763 2135.02,233.448 2137.1,233.448 2139.17,233.448 2141.25,87.9763 2143.32,184.958 2145.4,184.958 2147.47,87.9763 2149.54,136.467 2151.62,184.958 2153.69,184.958 2155.77,136.467 2157.84,184.958 2159.92,233.448 2161.99,233.448 2164.06,233.448 2166.14,87.9763 2168.21,184.958 2170.29,184.958 2172.36,136.467 2174.43,184.958 2176.51,136.467 2178.58,136.467 2180.66,136.467 2182.73,87.9763 2184.81,281.939 2186.88,184.958 2188.95,233.448 2191.03,184.958 2193.1,233.448 2195.18,184.958 2197.25,233.448 2199.33,184.958 2201.4,136.467 2203.47,281.939 2205.55,281.939 2207.62,233.448 2209.7,136.467 2211.77,184.958 2213.84,330.43 2215.92,136.467 2217.99,233.448 2220.07,233.448 2222.14,281.939 2224.22,233.448 2226.29,233.448 2228.36,233.448 2230.44,233.448 2232.51,136.467 2234.59,136.467 2236.66,330.43 2238.74,233.448 2240.81,281.939 2242.88,87.9763 2244.96,184.958 2247.03,184.958 2249.11,136.467 2251.18,233.448 2253.26,136.467 2255.33,87.9763 2257.4,233.448 2259.48,233.448 2261.55,136.467 2263.63,233.448 2265.7,330.43 2267.77,184.958 2269.85,281.939 2271.92,330.43 2274,184.958 2276.07,281.939 2278.15,233.448 2280.22,233.448 2282.29,378.92 2284.37,87.9763 2286.44,136.467 2288.52,136.467 2290.59,87.9763 "/>
<path clip-path="url(#clip550)" d="M2007.46 1438.47 L2279.54 1438.47 L2279.54 1334.79 L2007.46 1334.79  Z" fill="#ffffff" fill-rule="evenodd" fill-opacity="1"/>
<polyline clip-path="url(#clip550)" style="stroke:#000000; stroke-linecap:round; stroke-linejoin:round; stroke-width:4; stroke-opacity:1; fill:none" points="2007.46,1438.47 2279.54,1438.47 2279.54,1334.79 2007.46,1334.79 2007.46,1438.47 "/>
<polyline clip-path="url(#clip550)" style="stroke:#009af9; stroke-linecap:round; stroke-linejoin:round; stroke-width:4; stroke-opacity:1; fill:none" points="2031.87,1386.63 2178.3,1386.63 "/>
<path clip-path="url(#clip550)" d="M2216.55 1406.32 Q2214.74 1410.95 2213.03 1412.36 Q2211.32 1413.78 2208.44 1413.78 L2205.04 1413.78 L2205.04 1410.21 L2207.54 1410.21 Q2209.3 1410.21 2210.27 1409.38 Q2211.25 1408.54 2212.43 1405.44 L2213.19 1403.5 L2202.7 1377.99 L2207.22 1377.99 L2215.32 1398.27 L2223.42 1377.99 L2227.94 1377.99 L2216.55 1406.32 Z" fill="#000000" fill-rule="nonzero" fill-opacity="1" /><path clip-path="url(#clip550)" d="M2235.23 1399.98 L2242.87 1399.98 L2242.87 1373.61 L2234.56 1375.28 L2234.56 1371.02 L2242.82 1369.35 L2247.5 1369.35 L2247.5 1399.98 L2255.13 1399.98 L2255.13 1403.91 L2235.23 1403.91 L2235.23 1399.98 Z" fill="#000000" fill-rule="nonzero" fill-opacity="1" /></svg>
