<?xml version="1.0" encoding="utf-8"?>
<svg xmlns="http://www.w3.org/2000/svg" xmlns:xlink="http://www.w3.org/1999/xlink" width="600" height="400" viewBox="0 0 2400 1600">
<defs>
  <clipPath id="clip280">
    <rect x="0" y="0" width="2400" height="1600"/>
  </clipPath>
</defs>
<path clip-path="url(#clip280)" d="M0 1600 L2400 1600 L2400 0 L0 0  Z" fill="#ffffff" fill-rule="evenodd" fill-opacity="1"/>
<defs>
  <clipPath id="clip281">
    <rect x="480" y="0" width="1681" height="1600"/>
  </clipPath>
</defs>
<path clip-path="url(#clip280)" d="M239.19 1486.45 L2352.76 1486.45 L2352.76 47.2441 L239.19 47.2441  Z" fill="#ffffff" fill-rule="evenodd" fill-opacity="1"/>
<defs>
  <clipPath id="clip282">
    <rect x="239" y="47" width="2115" height="1440"/>
  </clipPath>
</defs>
<polyline clip-path="url(#clip282)" style="stroke:#000000; stroke-linecap:round; stroke-linejoin:round; stroke-width:2; stroke-opacity:0.1; fill:none" points="299.008,1486.45 299.008,47.2441 "/>
<polyline clip-path="url(#clip282)" style="stroke:#000000; stroke-linecap:round; stroke-linejoin:round; stroke-width:2; stroke-opacity:0.1; fill:none" points="797.615,1486.45 797.615,47.2441 "/>
<polyline clip-path="url(#clip282)" style="stroke:#000000; stroke-linecap:round; stroke-linejoin:round; stroke-width:2; stroke-opacity:0.1; fill:none" points="1296.22,1486.45 1296.22,47.2441 "/>
<polyline clip-path="url(#clip282)" style="stroke:#000000; stroke-linecap:round; stroke-linejoin:round; stroke-width:2; stroke-opacity:0.1; fill:none" points="1794.83,1486.45 1794.83,47.2441 "/>
<polyline clip-path="url(#clip282)" style="stroke:#000000; stroke-linecap:round; stroke-linejoin:round; stroke-width:2; stroke-opacity:0.1; fill:none" points="2293.44,1486.45 2293.44,47.2441 "/>
<polyline clip-path="url(#clip280)" style="stroke:#000000; stroke-linecap:round; stroke-linejoin:round; stroke-width:4; stroke-opacity:1; fill:none" points="239.19,1486.45 2352.76,1486.45 "/>
<polyline clip-path="url(#clip280)" style="stroke:#000000; stroke-linecap:round; stroke-linejoin:round; stroke-width:4; stroke-opacity:1; fill:none" points="299.008,1486.45 299.008,1467.55 "/>
<polyline clip-path="url(#clip280)" style="stroke:#000000; stroke-linecap:round; stroke-linejoin:round; stroke-width:4; stroke-opacity:1; fill:none" points="797.615,1486.45 797.615,1467.55 "/>
<polyline clip-path="url(#clip280)" style="stroke:#000000; stroke-linecap:round; stroke-linejoin:round; stroke-width:4; stroke-opacity:1; fill:none" points="1296.22,1486.45 1296.22,1467.55 "/>
<polyline clip-path="url(#clip280)" style="stroke:#000000; stroke-linecap:round; stroke-linejoin:round; stroke-width:4; stroke-opacity:1; fill:none" points="1794.83,1486.45 1794.83,1467.55 "/>
<polyline clip-path="url(#clip280)" style="stroke:#000000; stroke-linecap:round; stroke-linejoin:round; stroke-width:4; stroke-opacity:1; fill:none" points="2293.44,1486.45 2293.44,1467.55 "/>
<path clip-path="url(#clip280)" d="M299.008 1517.37 Q295.397 1517.37 293.568 1520.93 Q291.763 1524.47 291.763 1531.6 Q291.763 1538.71 293.568 1542.27 Q295.397 1545.82 299.008 1545.82 Q302.643 1545.82 304.448 1542.27 Q306.277 1538.71 306.277 1531.6 Q306.277 1524.47 304.448 1520.93 Q302.643 1517.37 299.008 1517.37 M299.008 1513.66 Q304.818 1513.66 307.874 1518.27 Q310.953 1522.85 310.953 1531.6 Q310.953 1540.33 307.874 1544.94 Q304.818 1549.52 299.008 1549.52 Q293.198 1549.52 290.119 1544.94 Q287.064 1540.33 287.064 1531.6 Q287.064 1522.85 290.119 1518.27 Q293.198 1513.66 299.008 1513.66 Z" fill="#000000" fill-rule="nonzero" fill-opacity="1" /><path clip-path="url(#clip280)" d="M742.141 1544.91 L749.78 1544.91 L749.78 1518.55 L741.47 1520.21 L741.47 1515.95 L749.734 1514.29 L754.41 1514.29 L754.41 1544.91 L762.048 1544.91 L762.048 1548.85 L742.141 1548.85 L742.141 1544.91 Z" fill="#000000" fill-rule="nonzero" fill-opacity="1" /><path clip-path="url(#clip280)" d="M781.493 1517.37 Q777.882 1517.37 776.053 1520.93 Q774.247 1524.47 774.247 1531.6 Q774.247 1538.71 776.053 1542.27 Q777.882 1545.82 781.493 1545.82 Q785.127 1545.82 786.933 1542.27 Q788.761 1538.71 788.761 1531.6 Q788.761 1524.47 786.933 1520.93 Q785.127 1517.37 781.493 1517.37 M781.493 1513.66 Q787.303 1513.66 790.358 1518.27 Q793.437 1522.85 793.437 1531.6 Q793.437 1540.33 790.358 1544.94 Q787.303 1549.52 781.493 1549.52 Q775.683 1549.52 772.604 1544.94 Q769.548 1540.33 769.548 1531.6 Q769.548 1522.85 772.604 1518.27 Q775.683 1513.66 781.493 1513.66 Z" fill="#000000" fill-rule="nonzero" fill-opacity="1" /><path clip-path="url(#clip280)" d="M811.655 1517.37 Q808.044 1517.37 806.215 1520.93 Q804.409 1524.47 804.409 1531.6 Q804.409 1538.71 806.215 1542.27 Q808.044 1545.82 811.655 1545.82 Q815.289 1545.82 817.094 1542.27 Q818.923 1538.71 818.923 1531.6 Q818.923 1524.47 817.094 1520.93 Q815.289 1517.37 811.655 1517.37 M811.655 1513.66 Q817.465 1513.66 820.52 1518.27 Q823.599 1522.85 823.599 1531.6 Q823.599 1540.33 820.52 1544.94 Q817.465 1549.52 811.655 1549.52 Q805.844 1549.52 802.766 1544.94 Q799.71 1540.33 799.71 1531.6 Q799.71 1522.85 802.766 1518.27 Q805.844 1513.66 811.655 1513.66 Z" fill="#000000" fill-rule="nonzero" fill-opacity="1" /><path clip-path="url(#clip280)" d="M841.817 1517.37 Q838.205 1517.37 836.377 1520.93 Q834.571 1524.47 834.571 1531.6 Q834.571 1538.71 836.377 1542.27 Q838.205 1545.82 841.817 1545.82 Q845.451 1545.82 847.256 1542.27 Q849.085 1538.71 849.085 1531.6 Q849.085 1524.47 847.256 1520.93 Q845.451 1517.37 841.817 1517.37 M841.817 1513.66 Q847.627 1513.66 850.682 1518.27 Q853.761 1522.85 853.761 1531.6 Q853.761 1540.33 850.682 1544.94 Q847.627 1549.52 841.817 1549.52 Q836.006 1549.52 832.928 1544.94 Q829.872 1540.33 829.872 1531.6 Q829.872 1522.85 832.928 1518.27 Q836.006 1513.66 841.817 1513.66 Z" fill="#000000" fill-rule="nonzero" fill-opacity="1" /><path clip-path="url(#clip280)" d="M1244.83 1544.91 L1261.15 1544.91 L1261.15 1548.85 L1239.21 1548.85 L1239.21 1544.91 Q1241.87 1542.16 1246.45 1537.53 Q1251.06 1532.88 1252.24 1531.53 Q1254.49 1529.01 1255.37 1527.27 Q1256.27 1525.51 1256.27 1523.82 Q1256.27 1521.07 1254.32 1519.33 Q1252.4 1517.6 1249.3 1517.6 Q1247.1 1517.6 1244.65 1518.36 Q1242.22 1519.13 1239.44 1520.68 L1239.44 1515.95 Q1242.26 1514.82 1244.72 1514.24 Q1247.17 1513.66 1249.21 1513.66 Q1254.58 1513.66 1257.77 1516.35 Q1260.97 1519.03 1260.97 1523.52 Q1260.97 1525.65 1260.16 1527.57 Q1259.37 1529.47 1257.26 1532.07 Q1256.69 1532.74 1253.58 1535.95 Q1250.48 1539.15 1244.83 1544.91 Z" fill="#000000" fill-rule="nonzero" fill-opacity="1" /><path clip-path="url(#clip280)" d="M1280.97 1517.37 Q1277.36 1517.37 1275.53 1520.93 Q1273.72 1524.47 1273.72 1531.6 Q1273.72 1538.71 1275.53 1542.27 Q1277.36 1545.82 1280.97 1545.82 Q1284.6 1545.82 1286.41 1542.27 Q1288.24 1538.71 1288.24 1531.6 Q1288.24 1524.47 1286.41 1520.93 Q1284.6 1517.37 1280.97 1517.37 M1280.97 1513.66 Q1286.78 1513.66 1289.83 1518.27 Q1292.91 1522.85 1292.91 1531.6 Q1292.91 1540.33 1289.83 1544.94 Q1286.78 1549.52 1280.97 1549.52 Q1275.16 1549.52 1272.08 1544.94 Q1269.02 1540.33 1269.02 1531.6 Q1269.02 1522.85 1272.08 1518.27 Q1275.16 1513.66 1280.97 1513.66 Z" fill="#000000" fill-rule="nonzero" fill-opacity="1" /><path clip-path="url(#clip280)" d="M1311.13 1517.37 Q1307.52 1517.37 1305.69 1520.93 Q1303.88 1524.47 1303.88 1531.6 Q1303.88 1538.71 1305.69 1542.27 Q1307.52 1545.82 1311.13 1545.82 Q1314.76 1545.82 1316.57 1542.27 Q1318.4 1538.71 1318.4 1531.6 Q1318.4 1524.47 1316.57 1520.93 Q1314.76 1517.37 1311.13 1517.37 M1311.13 1513.66 Q1316.94 1513.66 1320 1518.27 Q1323.07 1522.85 1323.07 1531.6 Q1323.07 1540.33 1320 1544.94 Q1316.94 1549.52 1311.13 1549.52 Q1305.32 1549.52 1302.24 1544.94 Q1299.19 1540.33 1299.19 1531.6 Q1299.19 1522.85 1302.24 1518.27 Q1305.32 1513.66 1311.13 1513.66 Z" fill="#000000" fill-rule="nonzero" fill-opacity="1" /><path clip-path="url(#clip280)" d="M1341.29 1517.37 Q1337.68 1517.37 1335.85 1520.93 Q1334.05 1524.47 1334.05 1531.6 Q1334.05 1538.71 1335.85 1542.27 Q1337.68 1545.82 1341.29 1545.82 Q1344.93 1545.82 1346.73 1542.27 Q1348.56 1538.71 1348.56 1531.6 Q1348.56 1524.47 1346.73 1520.93 Q1344.93 1517.37 1341.29 1517.37 M1341.29 1513.66 Q1347.1 1513.66 1350.16 1518.27 Q1353.24 1522.85 1353.24 1531.6 Q1353.24 1540.33 1350.16 1544.94 Q1347.1 1549.52 1341.29 1549.52 Q1335.48 1549.52 1332.4 1544.94 Q1329.35 1540.33 1329.35 1531.6 Q1329.35 1522.85 1332.4 1518.27 Q1335.48 1513.66 1341.29 1513.66 Z" fill="#000000" fill-rule="nonzero" fill-opacity="1" /><path clip-path="url(#clip280)" d="M1753.51 1530.21 Q1756.87 1530.93 1758.74 1533.2 Q1760.64 1535.47 1760.64 1538.8 Q1760.64 1543.92 1757.12 1546.72 Q1753.6 1549.52 1747.12 1549.52 Q1744.95 1549.52 1742.63 1549.08 Q1740.34 1548.66 1737.89 1547.81 L1737.89 1543.29 Q1739.83 1544.43 1742.14 1545.01 Q1744.46 1545.58 1746.98 1545.58 Q1751.38 1545.58 1753.67 1543.85 Q1755.99 1542.11 1755.99 1538.8 Q1755.99 1535.75 1753.83 1534.03 Q1751.7 1532.3 1747.89 1532.3 L1743.86 1532.3 L1743.86 1528.45 L1748.07 1528.45 Q1751.52 1528.45 1753.35 1527.09 Q1755.18 1525.7 1755.18 1523.11 Q1755.18 1520.45 1753.28 1519.03 Q1751.4 1517.6 1747.89 1517.6 Q1745.96 1517.6 1743.76 1518.01 Q1741.57 1518.43 1738.93 1519.31 L1738.93 1515.14 Q1741.59 1514.4 1743.9 1514.03 Q1746.24 1513.66 1748.3 1513.66 Q1753.63 1513.66 1756.73 1516.09 Q1759.83 1518.5 1759.83 1522.62 Q1759.83 1525.49 1758.19 1527.48 Q1756.54 1529.45 1753.51 1530.21 Z" fill="#000000" fill-rule="nonzero" fill-opacity="1" /><path clip-path="url(#clip280)" d="M1779.51 1517.37 Q1775.89 1517.37 1774.07 1520.93 Q1772.26 1524.47 1772.26 1531.6 Q1772.26 1538.71 1774.07 1542.27 Q1775.89 1545.82 1779.51 1545.82 Q1783.14 1545.82 1784.95 1542.27 Q1786.77 1538.71 1786.77 1531.6 Q1786.77 1524.47 1784.95 1520.93 Q1783.14 1517.37 1779.51 1517.37 M1779.51 1513.66 Q1785.32 1513.66 1788.37 1518.27 Q1791.45 1522.85 1791.45 1531.6 Q1791.45 1540.33 1788.37 1544.94 Q1785.32 1549.52 1779.51 1549.52 Q1773.7 1549.52 1770.62 1544.94 Q1767.56 1540.33 1767.56 1531.6 Q1767.56 1522.85 1770.62 1518.27 Q1773.7 1513.66 1779.51 1513.66 Z" fill="#000000" fill-rule="nonzero" fill-opacity="1" /><path clip-path="url(#clip280)" d="M1809.67 1517.37 Q1806.06 1517.37 1804.23 1520.93 Q1802.42 1524.47 1802.42 1531.6 Q1802.42 1538.71 1804.23 1542.27 Q1806.06 1545.82 1809.67 1545.82 Q1813.3 1545.82 1815.11 1542.27 Q1816.94 1538.71 1816.94 1531.6 Q1816.94 1524.47 1815.11 1520.93 Q1813.3 1517.37 1809.67 1517.37 M1809.67 1513.66 Q1815.48 1513.66 1818.53 1518.27 Q1821.61 1522.85 1821.61 1531.6 Q1821.61 1540.33 1818.53 1544.94 Q1815.48 1549.52 1809.67 1549.52 Q1803.86 1549.52 1800.78 1544.94 Q1797.72 1540.33 1797.72 1531.6 Q1797.72 1522.85 1800.78 1518.27 Q1803.86 1513.66 1809.67 1513.66 Z" fill="#000000" fill-rule="nonzero" fill-opacity="1" /><path clip-path="url(#clip280)" d="M1839.83 1517.37 Q1836.22 1517.37 1834.39 1520.93 Q1832.58 1524.47 1832.58 1531.6 Q1832.58 1538.71 1834.39 1542.27 Q1836.22 1545.82 1839.83 1545.82 Q1843.46 1545.82 1845.27 1542.27 Q1847.1 1538.71 1847.1 1531.6 Q1847.1 1524.47 1845.27 1520.93 Q1843.46 1517.37 1839.83 1517.37 M1839.83 1513.66 Q1845.64 1513.66 1848.69 1518.27 Q1851.77 1522.85 1851.77 1531.6 Q1851.77 1540.33 1848.69 1544.94 Q1845.64 1549.52 1839.83 1549.52 Q1834.02 1549.52 1830.94 1544.94 Q1827.88 1540.33 1827.88 1531.6 Q1827.88 1522.85 1830.94 1518.27 Q1834.02 1513.66 1839.83 1513.66 Z" fill="#000000" fill-rule="nonzero" fill-opacity="1" /><path clip-path="url(#clip280)" d="M2251.45 1518.36 L2239.64 1536.81 L2251.45 1536.81 L2251.45 1518.36 M2250.22 1514.29 L2256.1 1514.29 L2256.1 1536.81 L2261.03 1536.81 L2261.03 1540.7 L2256.1 1540.7 L2256.1 1548.85 L2251.45 1548.85 L2251.45 1540.7 L2235.84 1540.7 L2235.84 1536.19 L2250.22 1514.29 Z" fill="#000000" fill-rule="nonzero" fill-opacity="1" /><path clip-path="url(#clip280)" d="M2278.76 1517.37 Q2275.15 1517.37 2273.32 1520.93 Q2271.52 1524.47 2271.52 1531.6 Q2271.52 1538.71 2273.32 1542.27 Q2275.15 1545.82 2278.76 1545.82 Q2282.4 1545.82 2284.2 1542.27 Q2286.03 1538.71 2286.03 1531.6 Q2286.03 1524.47 2284.2 1520.93 Q2282.4 1517.37 2278.76 1517.37 M2278.76 1513.66 Q2284.57 1513.66 2287.63 1518.27 Q2290.71 1522.85 2290.71 1531.6 Q2290.71 1540.33 2287.63 1544.94 Q2284.57 1549.52 2278.76 1549.52 Q2272.95 1549.52 2269.87 1544.94 Q2266.82 1540.33 2266.82 1531.6 Q2266.82 1522.85 2269.87 1518.27 Q2272.95 1513.66 2278.76 1513.66 Z" fill="#000000" fill-rule="nonzero" fill-opacity="1" /><path clip-path="url(#clip280)" d="M2308.92 1517.37 Q2305.31 1517.37 2303.48 1520.93 Q2301.68 1524.47 2301.68 1531.6 Q2301.68 1538.71 2303.48 1542.27 Q2305.31 1545.82 2308.92 1545.82 Q2312.56 1545.82 2314.36 1542.27 Q2316.19 1538.71 2316.19 1531.6 Q2316.19 1524.47 2314.36 1520.93 Q2312.56 1517.37 2308.92 1517.37 M2308.92 1513.66 Q2314.73 1513.66 2317.79 1518.27 Q2320.87 1522.85 2320.87 1531.6 Q2320.87 1540.33 2317.79 1544.94 Q2314.73 1549.52 2308.92 1549.52 Q2303.11 1549.52 2300.03 1544.94 Q2296.98 1540.33 2296.98 1531.6 Q2296.98 1522.85 2300.03 1518.27 Q2303.11 1513.66 2308.92 1513.66 Z" fill="#000000" fill-rule="nonzero" fill-opacity="1" /><path clip-path="url(#clip280)" d="M2339.08 1517.37 Q2335.47 1517.37 2333.64 1520.93 Q2331.84 1524.47 2331.84 1531.6 Q2331.84 1538.71 2333.64 1542.27 Q2335.47 1545.82 2339.08 1545.82 Q2342.72 1545.82 2344.52 1542.27 Q2346.35 1538.71 2346.35 1531.6 Q2346.35 1524.47 2344.52 1520.93 Q2342.72 1517.37 2339.08 1517.37 M2339.08 1513.66 Q2344.89 1513.66 2347.95 1518.27 Q2351.03 1522.85 2351.03 1531.6 Q2351.03 1540.33 2347.95 1544.94 Q2344.89 1549.52 2339.08 1549.52 Q2333.27 1549.52 2330.2 1544.94 Q2327.14 1540.33 2327.14 1531.6 Q2327.14 1522.85 2330.2 1518.27 Q2333.27 1513.66 2339.08 1513.66 Z" fill="#000000" fill-rule="nonzero" fill-opacity="1" /><polyline clip-path="url(#clip282)" style="stroke:#000000; stroke-linecap:round; stroke-linejoin:round; stroke-width:2; stroke-opacity:0.1; fill:none" points="239.19,1301.56 2352.76,1301.56 "/>
<polyline clip-path="url(#clip282)" style="stroke:#000000; stroke-linecap:round; stroke-linejoin:round; stroke-width:2; stroke-opacity:0.1; fill:none" points="239.19,998.164 2352.76,998.164 "/>
<polyline clip-path="url(#clip282)" style="stroke:#000000; stroke-linecap:round; stroke-linejoin:round; stroke-width:2; stroke-opacity:0.1; fill:none" points="239.19,694.768 2352.76,694.768 "/>
<polyline clip-path="url(#clip282)" style="stroke:#000000; stroke-linecap:round; stroke-linejoin:round; stroke-width:2; stroke-opacity:0.1; fill:none" points="239.19,391.372 2352.76,391.372 "/>
<polyline clip-path="url(#clip282)" style="stroke:#000000; stroke-linecap:round; stroke-linejoin:round; stroke-width:2; stroke-opacity:0.1; fill:none" points="239.19,87.9763 2352.76,87.9763 "/>
<polyline clip-path="url(#clip280)" style="stroke:#000000; stroke-linecap:round; stroke-linejoin:round; stroke-width:4; stroke-opacity:1; fill:none" points="239.19,1486.45 239.19,47.2441 "/>
<polyline clip-path="url(#clip280)" style="stroke:#000000; stroke-linecap:round; stroke-linejoin:round; stroke-width:4; stroke-opacity:1; fill:none" points="239.19,1301.56 258.088,1301.56 "/>
<polyline clip-path="url(#clip280)" style="stroke:#000000; stroke-linecap:round; stroke-linejoin:round; stroke-width:4; stroke-opacity:1; fill:none" points="239.19,998.164 258.088,998.164 "/>
<polyline clip-path="url(#clip280)" style="stroke:#000000; stroke-linecap:round; stroke-linejoin:round; stroke-width:4; stroke-opacity:1; fill:none" points="239.19,694.768 258.088,694.768 "/>
<polyline clip-path="url(#clip280)" style="stroke:#000000; stroke-linecap:round; stroke-linejoin:round; stroke-width:4; stroke-opacity:1; fill:none" points="239.19,391.372 258.088,391.372 "/>
<polyline clip-path="url(#clip280)" style="stroke:#000000; stroke-linecap:round; stroke-linejoin:round; stroke-width:4; stroke-opacity:1; fill:none" points="239.19,87.9763 258.088,87.9763 "/>
<path clip-path="url(#clip280)" d="M50.9921 1302.01 L80.6679 1302.01 L80.6679 1305.95 L50.9921 1305.95 L50.9921 1302.01 Z" fill="#000000" fill-rule="nonzero" fill-opacity="1" /><path clip-path="url(#clip280)" d="M100.76 1302.43 Q97.4271 1302.43 95.5058 1304.21 Q93.6076 1305.99 93.6076 1309.12 Q93.6076 1312.24 95.5058 1314.02 Q97.4271 1315.81 100.76 1315.81 Q104.094 1315.81 106.015 1314.02 Q107.936 1312.22 107.936 1309.12 Q107.936 1305.99 106.015 1304.21 Q104.117 1302.43 100.76 1302.43 M96.0845 1300.44 Q93.0752 1299.7 91.3854 1297.64 Q89.7188 1295.58 89.7188 1292.61 Q89.7188 1288.47 92.6586 1286.06 Q95.6215 1283.65 100.76 1283.65 Q105.922 1283.65 108.862 1286.06 Q111.802 1288.47 111.802 1292.61 Q111.802 1295.58 110.112 1297.64 Q108.446 1299.7 105.459 1300.44 Q108.839 1301.22 110.714 1303.52 Q112.612 1305.81 112.612 1309.12 Q112.612 1314.14 109.533 1316.83 Q106.478 1319.51 100.76 1319.51 Q95.0428 1319.51 91.9641 1316.83 Q88.9086 1314.14 88.9086 1309.12 Q88.9086 1305.81 90.8067 1303.52 Q92.7049 1301.22 96.0845 1300.44 M94.3715 1293.05 Q94.3715 1295.74 96.0382 1297.24 Q97.728 1298.75 100.76 1298.75 Q103.77 1298.75 105.459 1297.24 Q107.172 1295.74 107.172 1293.05 Q107.172 1290.37 105.459 1288.86 Q103.77 1287.36 100.76 1287.36 Q97.728 1287.36 96.0382 1288.86 Q94.3715 1290.37 94.3715 1293.05 Z" fill="#000000" fill-rule="nonzero" fill-opacity="1" /><path clip-path="url(#clip280)" d="M130.922 1287.36 Q127.311 1287.36 125.482 1290.92 Q123.677 1294.46 123.677 1301.59 Q123.677 1308.7 125.482 1312.27 Q127.311 1315.81 130.922 1315.81 Q134.556 1315.81 136.362 1312.27 Q138.191 1308.7 138.191 1301.59 Q138.191 1294.46 136.362 1290.92 Q134.556 1287.36 130.922 1287.36 M130.922 1283.65 Q136.732 1283.65 139.788 1288.26 Q142.867 1292.84 142.867 1301.59 Q142.867 1310.32 139.788 1314.93 Q136.732 1319.51 130.922 1319.51 Q125.112 1319.51 122.033 1314.93 Q118.978 1310.32 118.978 1301.59 Q118.978 1292.84 122.033 1288.26 Q125.112 1283.65 130.922 1283.65 Z" fill="#000000" fill-rule="nonzero" fill-opacity="1" /><path clip-path="url(#clip280)" d="M161.084 1287.36 Q157.473 1287.36 155.644 1290.92 Q153.839 1294.46 153.839 1301.59 Q153.839 1308.7 155.644 1312.27 Q157.473 1315.81 161.084 1315.81 Q164.718 1315.81 166.524 1312.27 Q168.353 1308.7 168.353 1301.59 Q168.353 1294.46 166.524 1290.92 Q164.718 1287.36 161.084 1287.36 M161.084 1283.65 Q166.894 1283.65 169.95 1288.26 Q173.029 1292.84 173.029 1301.59 Q173.029 1310.32 169.95 1314.93 Q166.894 1319.51 161.084 1319.51 Q155.274 1319.51 152.195 1314.93 Q149.14 1310.32 149.14 1301.59 Q149.14 1292.84 152.195 1288.26 Q155.274 1283.65 161.084 1283.65 Z" fill="#000000" fill-rule="nonzero" fill-opacity="1" /><path clip-path="url(#clip280)" d="M191.246 1287.36 Q187.635 1287.36 185.806 1290.92 Q184.001 1294.46 184.001 1301.59 Q184.001 1308.7 185.806 1312.27 Q187.635 1315.81 191.246 1315.81 Q194.88 1315.81 196.686 1312.27 Q198.514 1308.7 198.514 1301.59 Q198.514 1294.46 196.686 1290.92 Q194.88 1287.36 191.246 1287.36 M191.246 1283.65 Q197.056 1283.65 200.112 1288.26 Q203.19 1292.84 203.19 1301.59 Q203.19 1310.32 200.112 1314.93 Q197.056 1319.51 191.246 1319.51 Q185.436 1319.51 182.357 1314.93 Q179.302 1310.32 179.302 1301.59 Q179.302 1292.84 182.357 1288.26 Q185.436 1283.65 191.246 1283.65 Z" fill="#000000" fill-rule="nonzero" fill-opacity="1" /><path clip-path="url(#clip280)" d="M50.9921 998.615 L80.6679 998.615 L80.6679 1002.55 L50.9921 1002.55 L50.9921 998.615 Z" fill="#000000" fill-rule="nonzero" fill-opacity="1" /><path clip-path="url(#clip280)" d="M101.339 996.3 Q98.1909 996.3 96.3391 998.453 Q94.5104 1000.61 94.5104 1004.36 Q94.5104 1008.08 96.3391 1010.26 Q98.1909 1012.41 101.339 1012.41 Q104.487 1012.41 106.316 1010.26 Q108.168 1008.08 108.168 1004.36 Q108.168 1000.61 106.316 998.453 Q104.487 996.3 101.339 996.3 M110.621 981.648 L110.621 985.907 Q108.862 985.073 107.057 984.634 Q105.274 984.194 103.515 984.194 Q98.8854 984.194 96.4317 987.319 Q94.0012 990.444 93.6539 996.763 Q95.0197 994.749 97.0798 993.685 Q99.14 992.597 101.617 992.597 Q106.825 992.597 109.834 995.768 Q112.867 998.916 112.867 1004.36 Q112.867 1009.68 109.719 1012.9 Q106.571 1016.11 101.339 1016.11 Q95.3437 1016.11 92.1725 1011.53 Q89.0012 1006.93 89.0012 998.198 Q89.0012 990.004 92.89 985.143 Q96.7789 980.259 103.33 980.259 Q105.089 980.259 106.871 980.606 Q108.677 980.953 110.621 981.648 Z" fill="#000000" fill-rule="nonzero" fill-opacity="1" /><path clip-path="url(#clip280)" d="M130.922 983.962 Q127.311 983.962 125.482 987.527 Q123.677 991.069 123.677 998.198 Q123.677 1005.3 125.482 1008.87 Q127.311 1012.41 130.922 1012.41 Q134.556 1012.41 136.362 1008.87 Q138.191 1005.3 138.191 998.198 Q138.191 991.069 136.362 987.527 Q134.556 983.962 130.922 983.962 M130.922 980.259 Q136.732 980.259 139.788 984.865 Q142.867 989.448 142.867 998.198 Q142.867 1006.93 139.788 1011.53 Q136.732 1016.11 130.922 1016.11 Q125.112 1016.11 122.033 1011.53 Q118.978 1006.93 118.978 998.198 Q118.978 989.448 122.033 984.865 Q125.112 980.259 130.922 980.259 Z" fill="#000000" fill-rule="nonzero" fill-opacity="1" /><path clip-path="url(#clip280)" d="M161.084 983.962 Q157.473 983.962 155.644 987.527 Q153.839 991.069 153.839 998.198 Q153.839 1005.3 155.644 1008.87 Q157.473 1012.41 161.084 1012.41 Q164.718 1012.41 166.524 1008.87 Q168.353 1005.3 168.353 998.198 Q168.353 991.069 166.524 987.527 Q164.718 983.962 161.084 983.962 M161.084 980.259 Q166.894 980.259 169.95 984.865 Q173.029 989.448 173.029 998.198 Q173.029 1006.93 169.95 1011.53 Q166.894 1016.11 161.084 1016.11 Q155.274 1016.11 152.195 1011.53 Q149.14 1006.93 149.14 998.198 Q149.14 989.448 152.195 984.865 Q155.274 980.259 161.084 980.259 Z" fill="#000000" fill-rule="nonzero" fill-opacity="1" /><path clip-path="url(#clip280)" d="M191.246 983.962 Q187.635 983.962 185.806 987.527 Q184.001 991.069 184.001 998.198 Q184.001 1005.3 185.806 1008.87 Q187.635 1012.41 191.246 1012.41 Q194.88 1012.41 196.686 1008.87 Q198.514 1005.3 198.514 998.198 Q198.514 991.069 196.686 987.527 Q194.88 983.962 191.246 983.962 M191.246 980.259 Q197.056 980.259 200.112 984.865 Q203.19 989.448 203.19 998.198 Q203.19 1006.93 200.112 1011.53 Q197.056 1016.11 191.246 1016.11 Q185.436 1016.11 182.357 1011.53 Q179.302 1006.93 179.302 998.198 Q179.302 989.448 182.357 984.865 Q185.436 980.259 191.246 980.259 Z" fill="#000000" fill-rule="nonzero" fill-opacity="1" /><path clip-path="url(#clip280)" d="M50.9921 695.219 L80.6679 695.219 L80.6679 699.154 L50.9921 699.154 L50.9921 695.219 Z" fill="#000000" fill-rule="nonzero" fill-opacity="1" /><path clip-path="url(#clip280)" d="M103.608 681.562 L91.8021 700.011 L103.608 700.011 L103.608 681.562 M102.381 677.488 L108.26 677.488 L108.26 700.011 L113.191 700.011 L113.191 703.9 L108.26 703.9 L108.26 712.048 L103.608 712.048 L103.608 703.9 L88.0058 703.9 L88.0058 699.386 L102.381 677.488 Z" fill="#000000" fill-rule="nonzero" fill-opacity="1" /><path clip-path="url(#clip280)" d="M130.922 680.567 Q127.311 680.567 125.482 684.131 Q123.677 687.673 123.677 694.803 Q123.677 701.909 125.482 705.474 Q127.311 709.015 130.922 709.015 Q134.556 709.015 136.362 705.474 Q138.191 701.909 138.191 694.803 Q138.191 687.673 136.362 684.131 Q134.556 680.567 130.922 680.567 M130.922 676.863 Q136.732 676.863 139.788 681.469 Q142.867 686.053 142.867 694.803 Q142.867 703.529 139.788 708.136 Q136.732 712.719 130.922 712.719 Q125.112 712.719 122.033 708.136 Q118.978 703.529 118.978 694.803 Q118.978 686.053 122.033 681.469 Q125.112 676.863 130.922 676.863 Z" fill="#000000" fill-rule="nonzero" fill-opacity="1" /><path clip-path="url(#clip280)" d="M161.084 680.567 Q157.473 680.567 155.644 684.131 Q153.839 687.673 153.839 694.803 Q153.839 701.909 155.644 705.474 Q157.473 709.015 161.084 709.015 Q164.718 709.015 166.524 705.474 Q168.353 701.909 168.353 694.803 Q168.353 687.673 166.524 684.131 Q164.718 680.567 161.084 680.567 M161.084 676.863 Q166.894 676.863 169.95 681.469 Q173.029 686.053 173.029 694.803 Q173.029 703.529 169.95 708.136 Q166.894 712.719 161.084 712.719 Q155.274 712.719 152.195 708.136 Q149.14 703.529 149.14 694.803 Q149.14 686.053 152.195 681.469 Q155.274 676.863 161.084 676.863 Z" fill="#000000" fill-rule="nonzero" fill-opacity="1" /><path clip-path="url(#clip280)" d="M191.246 680.567 Q187.635 680.567 185.806 684.131 Q184.001 687.673 184.001 694.803 Q184.001 701.909 185.806 705.474 Q187.635 709.015 191.246 709.015 Q194.88 709.015 196.686 705.474 Q198.514 701.909 198.514 694.803 Q198.514 687.673 196.686 684.131 Q194.88 680.567 191.246 680.567 M191.246 676.863 Q197.056 676.863 200.112 681.469 Q203.19 686.053 203.19 694.803 Q203.19 703.529 200.112 708.136 Q197.056 712.719 191.246 712.719 Q185.436 712.719 182.357 708.136 Q179.302 703.529 179.302 694.803 Q179.302 686.053 182.357 681.469 Q185.436 676.863 191.246 676.863 Z" fill="#000000" fill-rule="nonzero" fill-opacity="1" /><path clip-path="url(#clip280)" d="M50.9921 391.823 L80.6679 391.823 L80.6679 395.759 L50.9921 395.759 L50.9921 391.823 Z" fill="#000000" fill-rule="nonzero" fill-opacity="1" /><path clip-path="url(#clip280)" d="M94.7882 404.717 L111.108 404.717 L111.108 408.652 L89.1632 408.652 L89.1632 404.717 Q91.8252 401.962 96.4085 397.333 Q101.015 392.68 102.196 391.337 Q104.441 388.814 105.321 387.078 Q106.223 385.319 106.223 383.629 Q106.223 380.874 104.279 379.138 Q102.358 377.402 99.2558 377.402 Q97.0567 377.402 94.603 378.166 Q92.1725 378.93 89.3947 380.481 L89.3947 375.759 Q92.2188 374.624 94.6724 374.046 Q97.1261 373.467 99.1632 373.467 Q104.534 373.467 107.728 376.152 Q110.922 378.837 110.922 383.328 Q110.922 385.458 110.112 387.379 Q109.325 389.277 107.219 391.87 Q106.64 392.541 103.538 395.759 Q100.436 398.953 94.7882 404.717 Z" fill="#000000" fill-rule="nonzero" fill-opacity="1" /><path clip-path="url(#clip280)" d="M130.922 377.171 Q127.311 377.171 125.482 380.736 Q123.677 384.277 123.677 391.407 Q123.677 398.513 125.482 402.078 Q127.311 405.62 130.922 405.62 Q134.556 405.62 136.362 402.078 Q138.191 398.513 138.191 391.407 Q138.191 384.277 136.362 380.736 Q134.556 377.171 130.922 377.171 M130.922 373.467 Q136.732 373.467 139.788 378.074 Q142.867 382.657 142.867 391.407 Q142.867 400.134 139.788 404.74 Q136.732 409.323 130.922 409.323 Q125.112 409.323 122.033 404.74 Q118.978 400.134 118.978 391.407 Q118.978 382.657 122.033 378.074 Q125.112 373.467 130.922 373.467 Z" fill="#000000" fill-rule="nonzero" fill-opacity="1" /><path clip-path="url(#clip280)" d="M161.084 377.171 Q157.473 377.171 155.644 380.736 Q153.839 384.277 153.839 391.407 Q153.839 398.513 155.644 402.078 Q157.473 405.62 161.084 405.62 Q164.718 405.62 166.524 402.078 Q168.353 398.513 168.353 391.407 Q168.353 384.277 166.524 380.736 Q164.718 377.171 161.084 377.171 M161.084 373.467 Q166.894 373.467 169.95 378.074 Q173.029 382.657 173.029 391.407 Q173.029 400.134 169.95 404.74 Q166.894 409.323 161.084 409.323 Q155.274 409.323 152.195 404.74 Q149.14 400.134 149.14 391.407 Q149.14 382.657 152.195 378.074 Q155.274 373.467 161.084 373.467 Z" fill="#000000" fill-rule="nonzero" fill-opacity="1" /><path clip-path="url(#clip280)" d="M191.246 377.171 Q187.635 377.171 185.806 380.736 Q184.001 384.277 184.001 391.407 Q184.001 398.513 185.806 402.078 Q187.635 405.62 191.246 405.62 Q194.88 405.62 196.686 402.078 Q198.514 398.513 198.514 391.407 Q198.514 384.277 196.686 380.736 Q194.88 377.171 191.246 377.171 M191.246 373.467 Q197.056 373.467 200.112 378.074 Q203.19 382.657 203.19 391.407 Q203.19 400.134 200.112 404.74 Q197.056 409.323 191.246 409.323 Q185.436 409.323 182.357 404.74 Q179.302 400.134 179.302 391.407 Q179.302 382.657 182.357 378.074 Q185.436 373.467 191.246 373.467 Z" fill="#000000" fill-rule="nonzero" fill-opacity="1" /><path clip-path="url(#clip280)" d="M191.246 73.775 Q187.635 73.775 185.806 77.3398 Q184.001 80.8814 184.001 88.011 Q184.001 95.1174 185.806 98.6822 Q187.635 102.224 191.246 102.224 Q194.88 102.224 196.686 98.6822 Q198.514 95.1174 198.514 88.011 Q198.514 80.8814 196.686 77.3398 Q194.88 73.775 191.246 73.775 M191.246 70.0713 Q197.056 70.0713 200.112 74.6777 Q203.19 79.261 203.19 88.011 Q203.19 96.7378 200.112 101.344 Q197.056 105.928 191.246 105.928 Q185.436 105.928 182.357 101.344 Q179.302 96.7378 179.302 88.011 Q179.302 79.261 182.357 74.6777 Q185.436 70.0713 191.246 70.0713 Z" fill="#000000" fill-rule="nonzero" fill-opacity="1" /><polyline clip-path="url(#clip282)" style="stroke:#009af9; stroke-linecap:round; stroke-linejoin:round; stroke-width:4; stroke-opacity:1; fill:none" points="299.008,113.212 299.507,411.992 300.005,92.4288 300.504,89.6645 301.003,87.9763 301.501,87.9763 302,98.6495 302.499,392.894 302.997,87.9763 303.496,87.9763 303.994,87.9763 304.493,87.9763 304.992,96.5292 305.49,106.04 305.989,88.2675 306.487,1440.02 306.986,87.9763 307.485,87.9763 307.983,88.2633 308.482,683.513 308.98,88.2465 309.479,1445.72 309.978,98.1799 310.476,226.56 310.975,88.916 311.473,1000.54 311.972,88.2417 312.471,1445.45 312.969,88.0218 313.468,254.83 313.966,87.9763 314.465,116.733 314.964,88.2379 315.462,1431.82 315.961,87.9763 316.46,87.9763 316.958,89.5315 317.457,89.6133 317.955,90.4038 318.454,1438.08 318.953,87.9763 319.451,87.9763 319.95,92.6534 320.448,87.9941 320.947,88.2403 321.446,1445.38 321.944,87.9763 322.443,87.9763 322.941,88.1969 323.44,1131.06 323.939,88.2389 324.437,1438.59 324.936,88.6935 325.434,87.9775 325.933,87.9763 326.432,87.9763 326.93,88.2402 327.429,1445.37 327.927,88.2218 328.426,1137.09 328.925,87.9763 329.423,87.9763 329.922,88.2376 330.421,1431.8 330.919,87.9763 331.418,87.9763 331.916,87.9763 332.415,87.9763 332.914,88.9605 333.412,1443.87 333.911,87.9763 334.409,87.9763 334.908,89.4237 335.407,87.9814 335.905,88.2376 336.404,1431.8 336.902,87.9763 337.401,87.9763 337.9,88.2238 338.398,1143.57 338.897,88.2402 339.395,1445.37 339.894,87.9763 340.393,87.9763 340.891,87.9763 341.39,87.9763 341.888,88.2376 342.387,1431.8 342.886,88.2249 343.384,1143.39 343.883,87.9763 344.382,87.9763 344.88,88.2402 345.379,1445.37 345.877,87.9763 346.376,87.9763 346.875,87.9763 347.373,87.9763 347.872,90.4012 348.37,1440.86 348.869,87.9763 349.368,87.9763 349.866,88.7036 350.365,87.9788 350.863,88.2403 351.362,1445.38 351.861,87.9763 352.359,87.9763 352.858,88.2252 353.356,1143.68 353.855,88.2389 354.354,1438.59 354.852,88.7038 355.351,87.9775 355.849,87.9763 356.348,87.9763 356.847,88.2402 357.345,1445.37 357.844,88.2238 358.343,1138.12 358.841,87.9763 359.34,87.9763 359.838,88.2389 360.337,1438.59 360.836,87.9763 361.334,87.9763 361.833,87.9763 362.331,87.9763 362.83,89.6808 363.329,1442.37 363.827,87.9763 364.326,87.9763 364.824,92.3412 365.323,87.9916 365.822,88.2389 366.32,1438.59 366.819,87.9763 367.317,87.9763 367.816,88.2225 368.315,1133.1 368.813,88.2389 369.312,1438.59 369.81,87.9763 370.309,87.9763 370.808,87.9763 371.306,87.9763 371.805,88.2389 372.304,1438.59 372.802,88.2228 373.301,1132.87 373.799,87.9763 374.298,87.9763 374.797,88.2389 375.295,1438.59 375.794,87.9763 376.292,87.9763 376.791,87.9763 377.29,87.9763 377.788,88.9603 378.287,1443.85 378.785,87.9763 379.284,87.9763 379.783,90.0937 380.281,87.9837 380.78,88.2376 381.278,1431.8 381.777,87.9763 382.276,87.9763 382.774,88.2168 383.273,1137.86 383.771,88.2363 384.27,1425.01 384.769,90.8756 385.267,87.9812 385.766,87.9763 386.265,87.9763 386.763,88.2376 387.262,1431.8 387.76,88.2202 388.259,1127.48 388.758,87.9763 389.256,87.9763 389.755,88.2349 390.253,1418.23 390.752,87.9763 391.251,87.9763 391.749,87.9763 392.248,87.9763 392.746,91.1215 393.245,1439.36 393.744,87.9763 394.242,87.9763 394.741,90.1567 395.239,87.984 395.738,88.2364 396.237,1425.02 396.735,87.9763 397.234,87.9763 397.732,88.2221 398.231,1132.97 398.73,88.2402 399.228,1445.37 399.727,90.8834 400.226,87.9812 400.724,87.9763 401.223,87.9763 401.721,88.2349 402.22,1418.23 402.719,88.2245 403.217,1143.36 403.716,87.9763 404.214,87.9763 404.713,88.2362 405.212,1425.01 405.71,87.9763 406.209,87.9763 406.707,87.9763 407.206,87.9763 407.705,90.4012 408.203,1440.86 408.702,87.9763 409.2,87.9763 409.699,89.4288 410.198,87.9814 410.696,88.2403 411.195,1445.38 411.693,87.9763 412.192,87.9763 412.691,88.2232 413.189,1138.33 413.688,88.2363 414.187,1425.01 414.685,87.9763 415.184,87.9763 415.682,87.9763 416.181,87.9763 416.68,88.2376 417.178,1431.8 417.677,88.2218 418.175,1109.44 418.674,87.9763 419.173,87.9763 419.671,88.2389 420.17,1438.59 420.668,87.9763 421.167,87.9763 421.666,87.9763 422.164,87.9763 422.663,88.2402 423.161,1445.37 423.66,87.9763 424.159,87.9763 424.657,90.5533 425.156,87.9854 425.654,88.2389 426.153,1438.59 426.652,87.9763 427.15,87.9763 427.649,88.2013 428.148,1136.3 428.646,88.2402 429.145,1445.37 429.643,89.4104 430.142,87.9787 430.641,87.9763 431.139,87.9763 431.638,88.2349 432.136,1418.23 432.635,88.2191 433.134,1137.49 433.632,87.9763 434.131,87.9763 434.629,88.2402 435.128,1445.37 435.627,87.9763 436.125,87.9763 436.624,87.9763 437.122,87.9763 437.621,88.9605 438.12,1443.87 438.618,87.9763 439.117,87.9763 439.615,89.4271 440.114,87.9814 440.613,88.2363 441.111,1425.01 441.61,87.9763 442.109,87.9763 442.607,88.1644 443.106,995.368 443.604,88.2402 444.103,1445.37 444.602,99.2153 445.1,313.03 445.599,90.6535 446.097,87.9857 446.596,88.2376 447.095,1431.8 447.593,87.9763 448.092,87.9763 448.59,88.1773 449.089,1103.3 449.588,88.2362 450.086,1425.01 450.585,90.501 451.083,87.9801 451.582,87.9763 452.081,87.9763 452.579,88.2362 453.078,1425.01 453.576,88.1676 454.075,1087.05 454.574,87.9763 455.072,87.9763 455.571,88.2402 456.07,1445.37 456.568,87.9763 457.067,87.9763 457.565,87.9763 458.064,87.9763 458.563,88.2362 459.061,1425.01 459.56,87.9763 460.058,87.9763 460.557,87.9763 461.056,87.9763 461.554,88.2402 462.053,1445.37 462.551,87.9763 463.05,87.9763 463.549,88.4809 464.047,979.749 464.546,88.2389 465.044,1438.59 465.543,88.2359 466.042,1123.65 466.54,87.9763 467.039,87.9763 467.537,88.2402 468.036,1445.37 468.535,87.9763 469.033,87.9763 469.532,87.9763 470.031,87.9763 470.529,88.2402 471.028,1445.37 471.526,87.9763 472.025,87.9763 472.524,87.9763 473.022,87.9763 473.521,88.2389 474.019,1438.59 474.518,87.9763 475.017,87.9763 475.515,88.2148 476.014,1105.17 476.512,88.2349 477.011,1418.23 477.51,92.6969 478.008,87.985 478.507,87.9763 479.005,87.9763 479.504,88.2402 480.003,1445.37 480.501,87.9763 481,87.9763 481.498,91.0959 481.997,934.855 482.496,88.2389 482.994,1438.59 483.493,94.8176 483.992,88.1087 484.49,87.9763 484.989,87.9763 485.487,88.2376 485.986,1431.8 486.485,89.3259 486.983,956.094 487.482,87.9763 487.98,87.9763 488.479,89.6003 488.978,1418.24 489.476,88.4097 489.975,396.511 490.473,90.6416 490.972,88.0565 491.471,88.2403 491.969,1445.38 492.468,92.239 492.966,216.367 493.465,88.2052 493.964,1064.22 494.462,88.2402 494.961,1445.37 495.459,88.2092 495.958,91.2217 496.457,96.1194 496.955,519.28 497.454,88.2402 497.953,1445.37 498.451,96.3206 498.95,100.65 499.448,92.2312 499.947,87.9947 500.446,88.2389 500.944,1438.59 501.443,87.9763 501.941,87.9763 502.44,88.1943 502.939,1129.14 503.437,88.2402 503.936,1445.37 504.434,87.9763 504.933,87.9763 505.432,87.9763 505.93,87.9763 506.429,88.2389 506.927,1438.59 507.426,88.2092 507.925,858.096 508.423,88.5147 508.922,464.201 509.42,89.6817 509.919,1442.25 510.418,87.9763 510.916,87.9763 511.415,88.6446 511.914,87.9786 512.412,88.2389 512.911,1438.59 513.409,87.9763 513.908,87.9763 514.407,88.2078 514.905,846.127 515.404,88.2389 515.902,1438.59 516.401,88.2469 516.9,855.314 517.398,87.9763 517.897,87.9763 518.395,90.4033 518.894,1437.35 519.393,89.6311 519.891,87.9962 520.39,89.5183 520.888,1023.13 521.387,88.235 521.886,1418.23 522.384,95.7058 522.883,101.992 523.381,88.8473 523.88,954.648 524.379,88.2363 524.877,1425.01 525.376,93.2802 525.875,802.986 526.373,87.9763 526.872,87.9763 527.37,89.0037 527.869,1442.57 528.368,87.9763 528.866,87.9763 529.365,88.7208 529.863,1125.73 530.362,88.2376 530.861,1431.8 531.359,88.7468 531.858,87.9778 532.356,87.9763 532.855,87.9763 533.354,88.2389 533.852,1438.59 534.351,88.2415 534.849,1138.09 535.348,87.9763 535.847,87.9763 536.345,88.2389 536.844,1438.59 537.342,87.9763 537.841,87.9763 538.34,87.9763 538.838,87.9763 539.337,88.9776 539.835,1443.49 540.334,87.9763 540.833,87.9763 541.331,94.0663 541.83,88.121 542.329,88.2402 542.827,1445.38 543.326,87.9763 543.824,87.9763 544.323,88.1882 544.822,1122.4 545.32,88.2389 545.819,1438.59 546.317,89.3777 546.816,87.9785 547.315,87.9763 547.813,87.9763 548.312,88.2362 548.81,1425.01 549.309,88.1928 549.808,1125.66 550.306,87.9763 550.805,87.9763 551.303,88.2376 551.802,1431.8 552.301,87.9763 552.799,87.9763 553.298,87.9763 553.796,87.9763 554.295,90.4004 554.794,1437.2 555.292,87.9763 555.791,87.9763 556.29,87.9763 556.788,87.9763 557.287,89.6812 557.785,1442.4 558.284,87.9763 558.783,87.9763 559.281,92.4105 559.78,87.992 560.278,88.235 560.777,1418.23 561.276,87.9763 561.774,87.9763 562.273,88.2298 562.771,1144.16 563.27,88.2389 563.769,1438.59 564.267,89.436 564.766,87.9788 565.264,87.9763 565.763,87.9763 566.262,88.2389 566.76,1438.59 567.259,88.2253 567.757,1138.39 568.256,87.9763 568.755,87.9763 569.253,88.2389 569.752,1438.59 570.251,87.9763 570.749,87.9763 571.248,87.9763 571.746,87.9763 572.245,88.9605 572.744,1443.87 573.242,87.9763 573.741,87.9763 574.239,88.7048 574.738,87.9788 575.237,88.2376 575.735,1431.8 576.234,87.9763 576.732,87.9763 577.231,88.2224 577.73,1128.06 578.228,88.2389 578.727,1438.59 579.225,90.162 579.724,87.98 580.223,87.9763 580.721,87.9763 581.22,88.2376 581.718,1431.8 582.217,88.2249 582.716,1138.35 583.214,87.9763 583.713,87.9763 584.212,88.2389 584.71,1438.59 585.209,87.9763 585.707,87.9763 586.206,87.9763 586.705,87.9763 587.203,88.9605 587.702,1443.87 588.2,87.9763 588.699,87.9763 589.198,87.9763 589.696,87.9763 590.195,88.2389 590.693,1438.59 591.192,87.9763 591.691,87.9763 592.189,88.2259 592.688,1143.88 593.186,88.2349 593.685,1418.23 594.184,89.4333 594.682,87.9788 595.181,87.9763 595.679,87.9763 596.178,88.2402 596.677,1445.37 597.175,88.2261 597.674,1143.63 598.173,87.9763 598.671,87.9763 599.17,89.6813 599.668,1404.67 600.167,87.9763 600.666,87.9763 601.164,87.9763 601.663,87.9763 602.161,89.6808 602.66,1442.37 603.159,87.9763 603.657,87.9763 604.156,88.7048 604.654,87.9788 605.153,88.2403 605.652,1445.38 606.15,87.9763 606.649,87.9763 607.147,88.2224 607.646,1128.06 608.145,88.2376 608.643,1431.8 609.142,88.7049 609.64,87.9775 610.139,87.9763 610.638,87.9763 611.136,88.2389 611.635,1438.59 612.134,88.2262 612.632,1143.64 613.131,87.9763 613.629,87.9763 614.128,88.2402 614.627,1445.37 615.125,87.9763 615.624,87.9763 616.122,87.9763 616.621,87.9763 617.12,89.6806 617.618,1442.32 618.117,87.9763 618.615,87.9763 619.114,88.6796 619.613,87.9787 620.111,88.2389 620.61,1438.59 621.108,87.9763 621.607,87.9763 622.106,88.2079 622.604,975.323 623.103,88.2376 623.601,1431.8 624.1,96.4654 624.599,514.092 625.097,87.9763 625.596,87.9763 626.095,88.2389 626.593,1438.59 627.092,87.9763 627.59,87.9763 628.089,88.3129 628.588,1138.21 629.086,88.2389 629.585,1438.59 630.083,89.4823 630.582,87.979 631.081,87.9763 631.579,87.9763 632.078,88.2402 632.576,1445.37 633.075,88.2337 633.574,1138.93 634.072,87.9763 634.571,87.9763 635.069,88.2362 635.568,1425.01 636.067,87.9763 636.565,87.9763 637.064,87.9763 637.562,87.9763 638.061,88.2402 638.56,1445.37 639.058,87.9763 639.557,87.9763 640.056,88.7029 640.554,87.9788 641.053,88.2362 641.551,1425.01 642.05,87.9763 642.549,87.9763 643.047,88.2243 643.546,1138.54 644.044,88.2389 644.543,1438.59 645.042,90.1609 645.54,87.98 646.039,87.9763 646.537,87.9763 647.036,88.2362 647.535,1425.01 648.033,88.2208 648.532,1122.47 649.03,87.9763 649.529,87.9763 650.028,88.2389 650.526,1438.59 651.025,87.9763 651.523,87.9763 652.022,87.9763 652.521,87.9763 653.019,88.9605 653.518,1443.87 654.017,87.9763 654.515,87.9763 655.014,90.1617 655.512,87.984 656.011,88.2389 656.51,1438.59 657.008,87.9763 657.507,87.9763 658.005,88.2257 658.504,1142.78 659.003,88.2402 659.501,1445.37 660,88.6993 660.498,87.9775 660.997,87.9763 661.496,87.9763 661.994,88.2389 662.493,1438.59 662.991,88.2243 663.49,1143.5 663.989,87.9763 664.487,87.9763 664.986,88.2402 665.484,1445.37 665.983,87.9763 666.482,87.9763 666.98,87.9763 667.479,87.9763 667.978,89.6809 668.476,1442.34 668.975,87.9763 669.473,87.9763 669.972,88.6906 670.471,87.9788 670.969,88.2389 671.468,1438.59 671.966,87.9763 672.465,87.9763 672.964,88.2214 673.462,1143.55 673.961,88.2376 674.459,1431.8 674.958,90.8837 675.457,87.9812 675.955,87.9763 676.454,87.9763 676.952,88.2389 677.451,1438.59 677.95,88.2243 678.448,1138.18 678.947,87.9763 679.445,87.9763 679.944,88.2389 680.443,1438.59 680.941,87.9763 681.44,87.9763 681.939,87.9763 682.437,87.9763 682.936,89.6809 683.434,1442.37 683.933,87.9763 684.432,87.9763 684.93,90.1615 685.429,87.984 685.927,88.235 686.426,1418.23 686.925,87.9763 687.423,87.9763 687.922,89.9517 688.42,1058.32 688.919,88.2363 689.418,1425.01 689.916,89.1998 690.415,87.9781 690.913,87.9763 691.412,87.9763 691.911,88.2389 692.409,1438.59 692.908,88.198 693.406,1131.03 693.905,87.9763 694.404,87.9763 694.902,88.2362 695.401,1425.01 695.9,87.9763 696.398,87.9763 696.897,87.9763 697.395,87.9763 697.894,88.9605 698.393,1443.86 698.891,87.9763 699.39,87.9763 699.888,89.4085 700.387,87.9813 700.886,88.2402 701.384,1445.37 701.883,87.9763 702.381,87.9763 702.88,88.2168 703.379,1122.44 703.877,88.2402 704.376,1445.37 704.874,87.9763 705.373,87.9763 705.872,87.9763 706.37,87.9763 706.869,88.2349 707.367,1418.23 707.866,88.2255 708.365,1141.22 708.863,87.9763 709.362,87.9763 709.861,88.2402 710.359,1445.37 710.858,87.9763 711.356,87.9763 711.855,87.9763 712.354,87.9763 712.852,93.2823 713.351,1434.85 713.849,87.9763 714.348,87.9763 714.847,89.4296 715.345,87.9814 715.844,88.2365 716.342,1425.02 716.841,87.9763 717.34,87.9763 717.838,88.2242 718.337,1135.97 718.835,88.2376 719.334,1431.8 719.833,88.6917 720.331,87.9775 720.83,87.9763 721.328,87.9763 721.827,88.2389 722.326,1438.59 722.824,88.2201 723.323,1137.98 723.822,87.9763 724.32,87.9763 724.819,88.2402 725.317,1445.37 725.816,87.9763 726.315,87.9763 726.813,87.9763 727.312,87.9763 727.81,91.1215 728.309,1439.3 728.808,87.9763 729.306,87.9763 729.805,89.4028 730.303,87.9813 730.802,88.239 731.301,1438.59 731.799,87.9763 732.298,87.9763 732.796,88.2194 733.295,1138.19 733.794,88.2389 734.292,1438.59 734.791,90.1556 735.289,87.98 735.788,87.9763 736.287,87.9763 736.785,88.2336 737.284,1411.44 737.783,88.2241 738.281,1135.15 738.78,87.9763 739.278,87.9763 739.777,88.2402 740.276,1445.37 740.774,87.9763 741.273,87.9763 741.771,87.9763 742.27,87.9763 742.769,89.6808 743.267,1442.37 743.766,87.9763 744.264,87.9763 744.763,88.7026 745.262,87.9788 745.76,88.2376 746.259,1431.8 746.757,87.9763 747.256,87.9763 747.755,88.2216 748.253,1124.43 748.752,88.2389 749.25,1438.59 749.749,88.6866 750.248,87.9774 750.746,87.9763 751.245,87.9763 751.744,88.2376 752.242,1431.8 752.741,88.216 753.239,1127.29 753.738,87.9763 754.237,87.9763 754.735,88.2389 755.234,1438.59 755.732,87.9763 756.231,87.9763 756.73,87.9763 757.228,87.9763 757.727,90.4012 758.225,1440.8 758.724,87.9763 759.223,87.9763 759.721,88.6832 760.22,87.9787 760.718,88.2377 761.217,1431.8 761.716,87.9763 762.214,87.9763 762.713,88.216 763.211,1132.74 763.71,88.2376 764.209,1431.8 764.707,88.7019 765.206,87.9775 765.705,87.9763 766.203,87.9763 766.702,88.2389 767.2,1438.59 767.699,88.2225 768.198,1129.39 768.696,87.9763 769.195,87.9763 769.693,88.2376 770.192,1431.8 770.691,87.9763 771.189,87.9763 771.688,87.9763 772.186,87.9763 772.685,88.9605 773.184,1443.87 773.682,87.9763 774.181,87.9763 774.679,88.7016 775.178,87.9788 775.677,88.2376 776.175,1431.8 776.674,87.9763 777.172,87.9763 777.671,88.2199 778.17,1117.23 778.668,88.2363 779.167,1425.01 779.666,87.9763 780.164,87.9763 780.663,87.9763 781.161,87.9763 781.66,88.2402 782.159,1445.37 782.657,95.0983 783.156,100.67 783.654,88.3032 784.153,1132.4 784.652,88.2349 785.15,1418.23 785.649,88.7268 786.147,87.9776 786.646,87.9763 787.145,87.9763 787.643,88.2362 788.142,1425.01 788.64,88.2259 789.139,1143.26 789.638,87.9763 790.136,87.9763 790.635,88.2362 791.133,1425.01 791.632,87.9763 792.131,87.9763 792.629,87.9763 793.128,87.9763 793.627,88.2402 794.125,1445.37 794.624,87.9763 795.122,87.9763 795.621,90.1334 796.12,87.9838 796.618,88.2402 797.117,1445.37 797.615,87.9763 798.114,87.9763 798.613,88.2226 799.111,1140.22 799.61,88.2389 800.108,1438.59 800.607,89.397 801.106,87.9786 801.604,87.9763 802.103,87.9763 802.601,88.2376 803.1,1431.8 803.599,88.1886 804.097,1129.96 804.596,87.9763 805.094,87.9763 805.593,88.2362 806.092,1425.01 806.59,87.9763 807.089,87.9763 807.588,87.9763 808.086,87.9763 808.585,88.9602 809.083,1443.84 809.582,87.9763 810.081,87.9763 810.579,90.0614 811.078,87.9836 811.576,88.235 812.075,1418.23 812.574,87.9763 813.072,87.9763 813.571,88.1877 814.069,1135.84 814.568,88.2402 815.067,1445.37 815.565,89.3542 816.064,87.9784 816.562,87.9763 817.061,87.9763 817.56,88.2349 818.058,1418.23 818.557,88.2087 819.055,1044.71 819.554,87.9763 820.053,87.9763 820.551,89.2394 821.05,1425.09 821.549,87.9763 822.047,87.9763 822.546,97.4866 823.044,120.895 823.543,88.9632 824.042,1443.92 824.54,87.9763 825.039,87.9763 825.537,88.7485 826.036,87.9791 826.535,88.2389 827.033,1438.59 827.532,87.9763 828.03,87.9763 828.529,88.2384 829.028,1129.15 829.526,88.2376 830.025,1431.8 830.523,87.9763 831.022,87.9763 831.521,87.9763 832.019,87.9763 832.518,88.2389 833.016,1438.59 833.515,88.2231 834.014,1122.66 834.512,87.9763 835.011,87.9763 835.51,88.2376 836.008,1431.8 836.507,87.9763 837.005,87.9763 837.504,87.9763 838.003,87.9763 838.501,91.1215 839,1439.37 839.498,87.9763 839.997,87.9763 840.496,88.7048 840.994,87.9788 841.493,88.239 841.991,1438.59 842.49,87.9763 842.989,87.9763 843.487,88.2224 843.986,1128.06 844.484,88.2389 844.983,1438.59 845.482,89.4335 845.98,87.9788 846.479,87.9763 846.977,87.9763 847.476,88.2376 847.975,1431.8 848.473,88.2248 848.972,1138.35 849.47,87.9763 849.969,87.9763 850.468,88.2402 850.966,1445.37 851.465,87.9763 851.964,87.9763 852.462,87.9763 852.961,87.9763 853.459,88.9605 853.958,1443.87 854.457,87.9763 854.955,87.9763 855.454,89.4334 855.952,87.9814 856.451,88.2376 856.95,1431.8 857.448,87.9763 857.947,87.9763 858.445,88.2235 858.944,1133.33 859.443,88.2389 859.941,1438.59 860.44,89.4334 860.938,87.9788 861.437,87.9763 861.936,87.9763 862.434,88.2402 862.933,1445.37 863.431,88.2249 863.93,1138.35 864.429,87.9763 864.927,87.9763 865.426,88.2389 865.925,1438.59 866.423,87.9763 866.922,87.9763 867.42,87.9763 867.919,87.9763 868.418,89.6809 868.916,1442.37 869.415,87.9763 869.913,87.9763 870.412,88.7048 870.911,87.9788 871.409,88.2389 871.908,1438.59 872.406,87.9763 872.905,87.9763 873.404,88.2198 873.902,1117.5 874.401,88.2363 874.899,1425.01 875.398,90.162 875.897,87.98 876.395,87.9763 876.894,87.9763 877.392,88.2362 877.891,1425.01 878.39,88.2261 878.888,1143.19 879.387,87.9763 879.886,87.9763 880.384,88.2376 880.883,1431.8 881.381,87.9763 881.88,87.9763 882.379,87.9763 882.877,87.9763 883.376,89.6808 883.874,1442.37 884.373,87.9763 884.872,87.9763 885.37,90.8894 885.869,87.9865 886.367,88.2363 886.866,1425.02 887.365,87.9763 887.863,87.9763 888.362,88.2223 888.86,1127.55 889.359,88.2402 889.858,1445.37 890.356,88.7023 890.855,87.9775 891.353,87.9763 891.852,87.9763 892.351,88.2389 892.849,1438.59 893.348,88.2228 893.847,1133.01 894.345,87.9763 894.844,87.9763 895.342,88.2389 895.841,1438.59 896.34,87.9763 896.838,87.9763 897.337,87.9763 897.835,87.9763 898.334,88.9605 898.833,1443.87 899.331,87.9763 899.83,87.9763 900.328,88.7047 900.827,87.9788 901.326,88.2402 901.824,1445.37 902.323,87.9763 902.821,87.9763 903.32,88.2224 903.819,1128.06 904.317,88.2376 904.816,1431.8 905.314,89.4334 905.813,87.9788 906.312,87.9763 906.81,87.9763 907.309,88.2376 907.808,1431.8 908.306,88.2249 908.805,1138.3 909.303,87.9763 909.802,87.9763 910.301,88.2389 910.799,1438.59 911.298,87.9763 911.796,87.9763 912.295,87.9763 912.794,87.9763 913.292,88.2402 913.791,1445.37 914.289,87.9763 914.788,87.9763 915.287,87.9763 915.785,87.9763 916.284,88.2402 916.782,1445.37 917.281,87.9763 917.78,87.9763 918.278,88.2237 918.777,1133.34 919.275,88.2362 919.774,1425.01 920.273,88.7049 920.771,87.9775 921.27,87.9763 921.769,87.9763 922.267,88.2362 922.766,1425.01 923.264,88.2223 923.763,1127.78 924.262,87.9763 924.76,87.9763 925.259,88.2362 925.757,1425.01 926.256,87.9763 926.755,87.9763 927.253,87.9763 927.752,87.9763 928.25,89.6809 928.749,1442.37 929.248,87.9763 929.746,87.9763 930.245,89.4333 930.743,87.9814 931.242,88.2376 931.741,1431.8 932.239,87.9763 932.738,87.9763 933.236,88.2236 933.735,1133.34 934.234,88.2389 934.732,1438.59 935.231,90.8906 935.73,87.9813 936.228,87.9763 936.727,87.9763 937.225,88.2376 937.724,1431.8 938.223,88.2249 938.721,1138.32 939.22,87.9763 939.718,87.9763 940.217,88.2376 940.716,1431.8 941.214,87.9763 941.713,87.9763 942.211,87.9763 942.71,87.9763 943.209,88.9605 943.707,1443.87 944.206,87.9763 944.704,87.9763 945.203,90.1601 945.702,87.984 946.2,88.2389 946.699,1438.59 947.197,87.9763 947.696,87.9763 948.195,88.2259 948.693,1143.88 949.192,88.2389 949.691,1438.59 950.189,90.1618 950.688,87.98 951.186,87.9763 951.685,87.9763 952.184,88.2389 952.682,1438.59 953.181,88.2197 953.679,1117.23 954.178,87.9763 954.677,87.9763 955.175,88.2349 955.674,1418.23 956.172,87.9763 956.671,87.9763 957.17,87.9763 957.668,87.9763 958.167,88.9605 958.665,1443.87 959.164,87.9763 959.663,87.9763 960.161,89.4334 960.66,87.9814 961.158,88.235 961.657,1418.23 962.156,87.9763 962.654,87.9763 963.153,88.2236 963.652,1133.33 964.15,88.2402 964.649,1445.37 965.147,89.4334 965.646,87.9788 966.145,87.9763 966.643,87.9763 967.142,88.2362 967.64,1425.01 968.139,88.2261 968.638,1143.63 969.136,87.9763 969.635,87.9763 970.133,88.2376 970.632,1431.8 971.131,87.9763 971.629,87.9763 972.128,87.9763 972.626,87.9763 973.125,88.9605 973.624,1443.87 974.122,87.9763 974.621,87.9763 975.119,88.7048 975.618,87.9788 976.117,88.2389 976.615,1438.59 977.114,87.9763 977.613,87.9763 978.111,88.2249 978.61,1138.62 979.108,88.2389 979.607,1438.59 980.106,90.1621 980.604,87.98 981.103,87.9763 981.601,87.9763 982.1,88.2376 982.599,1431.8 983.097,88.2247 983.596,1138.35 984.094,87.9763 984.593,87.9763 985.092,88.2402 985.59,1445.37 986.089,87.9763 986.587,87.9763 987.086,87.9763 987.585,87.9763 988.083,88.2402 988.582,1445.37 989.08,87.9763 989.579,87.9763 990.078,90.1606 990.576,87.984 991.075,88.2376 991.574,1431.8 992.072,87.9763 992.571,87.9763 993.069,88.2235 993.568,1133.33 994.067,88.2402 994.565,1445.37 995.064,90.1619 995.562,87.98 996.061,87.9763 996.56,87.9763 997.058,88.2376 997.557,1431.8 998.055,88.2199 998.554,1117.23 999.053,87.9763 999.551,87.9763 1000.05,88.2389 1000.55,1438.59 1001.05,87.9763 1001.55,87.9763 1002.04,87.9763 1002.54,87.9763 1003.04,88.2402 1003.54,1445.37 1004.04,87.9763 1004.54,87.9763 1005.04,90.8907 1005.53,87.9865 1006.03,88.2402 1006.53,1445.37 1007.03,87.9763 1007.53,87.9763 1008.03,88.2261 1008.53,1143.36 1009.02,88.2349 1009.52,1418.23 1010.02,88.7022 1010.52,87.9775 1011.02,87.9763 1011.52,87.9763 1012.02,88.2362 1012.52,1425.01 1013.01,88.2215 1013.51,1127.74 1014.01,87.9763 1014.51,87.9763 1015.01,88.2376 1015.51,1431.8 1016.01,87.9763 1016.5,87.9763 1017,87.9763 1017.5,87.9763 1018,88.9605 1018.5,1443.87 1019,87.9763 1019.5,87.9763 1019.99,88.7048 1020.49,87.9788 1020.99,88.2402 1021.49,1445.37 1021.99,87.9763 1022.49,87.9763 1022.99,88.2237 1023.48,1133.34 1023.98,88.2389 1024.48,1438.59 1024.98,87.9763 1025.48,87.9763 1025.98,87.9763 1026.48,87.9763 1026.97,88.2376 1027.47,1431.8 1027.97,88.2261 1028.47,1143.63 1028.97,87.9763 1029.47,87.9763 1029.97,89.6813 1030.46,1404.67 1030.96,87.9763 1031.46,87.9763 1031.96,87.9763 1032.46,87.9763 1032.96,88.2403 1033.46,1445.38 1033.96,87.9763 1034.45,87.9763 1034.95,87.9763 1035.45,87.9763 1035.95,88.2389 1036.45,1438.59 1036.95,87.9763 1037.45,87.9763 1037.94,88.2212 1038.44,1122.78 1038.94,88.2376 1039.44,1431.8 1039.94,89.4335 1040.44,87.9788 1040.94,87.9763 1041.43,87.9763 1041.93,88.2402 1042.43,1445.37 1042.93,88.2249 1043.43,1138.36 1043.93,87.9763 1044.43,87.9763 1044.92,89.6866 1045.42,1431.81 1045.92,87.9763 1046.42,87.9763 1046.92,87.9763 1047.42,87.9763 1047.92,88.9606 1048.41,1443.87 1048.91,87.9763 1049.41,87.9763 1049.91,87.9763 1050.41,87.9763 1050.91,88.2376 1051.41,1431.8 1051.9,87.9763 1052.4,87.9763 1052.9,88.2261 1053.4,1143.89 1053.9,88.2389 1054.4,1438.59 1054.9,87.9763 1055.4,87.9763 1055.89,87.9763 1056.39,87.9763 1056.89,88.2389 1057.39,1438.59 1057.89,88.2262 1058.39,1143.64 1058.89,87.9763 1059.38,87.9763 1059.88,88.2349 1060.38,1418.23 1060.88,87.9763 1061.38,87.9763 1061.88,87.9763 1062.38,87.9763 1062.87,90.4012 1063.37,1440.87 1063.87,87.9763 1064.37,87.9763 1064.87,89.4332 1065.37,87.9814 1065.87,88.2363 1066.36,1425.02 1066.86,87.9763 1067.36,87.9763 1067.86,88.2236 1068.36,1133.33 1068.86,88.2376 1069.36,1431.8 1069.85,88.7048 1070.35,87.9775 1070.85,87.9763 1071.35,87.9763 1071.85,88.2362 1072.35,1425.01 1072.85,88.2234 1073.35,1133.06 1073.84,87.9763 1074.34,87.9763 1074.84,88.2402 1075.34,1445.37 1075.84,87.9763 1076.34,87.9763 1076.84,87.9763 1077.33,87.9763 1077.83,89.6809 1078.33,1442.37 1078.83,87.9763 1079.33,87.9763 1079.83,87.9763 1080.33,87.9763 1080.82,88.2337 1081.32,1411.44 1081.82,87.9763 1082.32,87.9763 1082.82,88.2224 1083.32,1128.06 1083.82,88.2376 1084.31,1431.8 1084.81,89.4334 1085.31,87.9788 1085.81,87.9763 1086.31,87.9763 1086.81,88.2376 1087.31,1431.8 1087.8,88.2236 1088.3,1133.08 1088.8,87.9763 1089.3,87.9763 1089.8,88.2376 1090.3,1431.8 1090.8,87.9763 1091.29,87.9763 1091.79,87.9763 1092.29,87.9763 1092.79,88.9605 1093.29,1443.87 1093.79,87.9763 1094.29,87.9763 1094.79,87.9763 1095.28,87.9763 1095.78,88.2402 1096.28,1445.37 1096.78,87.9763 1097.28,87.9763 1097.78,88.2237 1098.28,1133.34 1098.77,88.2402 1099.27,1445.37 1099.77,90.1621 1100.27,87.98 1100.77,87.9763 1101.27,87.9763 1101.77,88.2389 1102.26,1438.59 1102.76,88.2211 1103.26,1122.52 1103.76,87.9763 1104.26,87.9763 1104.76,88.2402 1105.26,1445.37 1105.75,87.9763 1106.25,87.9763 1106.75,87.9763 1107.25,87.9763 1107.75,88.9605 1108.25,1443.87 1108.75,87.9763 1109.24,87.9763 1109.74,87.9763 1110.24,87.9763 1110.74,88.2389 1111.24,1438.59 1111.74,87.9763 1112.24,87.9763 1112.74,88.2223 1113.23,1127.88 1113.73,88.2389 1114.23,1438.59 1114.73,91.6147 1115.23,87.9825 1115.73,87.9763 1116.23,87.9763 1116.72,88.2376 1117.22,1431.8 1117.72,88.2257 1118.22,1143.6 1118.72,87.9763 1119.22,87.9763 1119.72,88.2389 1120.21,1438.59 1120.71,87.9763 1121.21,87.9763 1121.71,87.9763 1122.21,87.9763 1122.71,92.5622 1123.21,1436.36 1123.7,87.9763 1124.2,87.9763 1124.7,88.7047 1125.2,87.9788 1125.7,88.2391 1126.2,1438.6 1126.7,87.9763 1127.19,87.9763 1127.69,88.2261 1128.19,1143.86 1128.69,88.2402 1129.19,1445.38 1129.69,88.7047 1130.19,87.9775 1130.68,87.9763 1131.18,87.9763 1131.68,88.2363 1132.18,1425.01 1132.68,88.2236 1133.18,1133.08 1133.68,87.9763 1134.18,87.9763 1134.67,88.2376 1135.17,1431.8 1135.67,87.9763 1136.17,87.9763 1136.67,87.9763 1137.17,87.9763 1137.67,88.9605 1138.16,1443.87 1138.66,87.9763 1139.16,87.9763 1139.66,89.4335 1140.16,87.9814 1140.66,88.2402 1141.16,1445.37 1141.65,87.9763 1142.15,87.9763 1142.65,88.2262 1143.15,1143.9 1143.65,88.2389 1144.15,1438.59 1144.65,89.4335 1145.14,87.9788 1145.64,87.9763 1146.14,87.9763 1146.64,88.2376 1147.14,1431.8 1147.64,88.2236 1148.14,1133.08 1148.63,87.9763 1149.13,87.9763 1149.63,88.2376 1150.13,1431.8 1150.63,87.9763 1151.13,87.9763 1151.63,87.9763 1152.13,87.9763 1152.62,90.4012 1153.12,1440.87 1153.62,87.9763 1154.12,87.9763 1154.62,87.9763 1155.12,87.9763 1155.62,88.2377 1156.11,1431.8 1156.61,87.9763 1157.11,87.9763 1157.61,88.2237 1158.11,1133.3 1158.61,88.2376 1159.11,1431.8 1159.6,88.7047 1160.1,87.9775 1160.6,87.9763 1161.1,87.9763 1161.6,88.2389 1162.1,1438.59 1162.6,88.2248 1163.09,1138.34 1163.59,87.9763 1164.09,87.9763 1164.59,88.2389 1165.09,1438.59 1165.59,87.9763 1166.09,87.9763 1166.58,87.9763 1167.08,87.9763 1167.58,88.9605 1168.08,1443.87 1168.58,87.9763 1169.08,87.9763 1169.58,88.7048 1170.07,87.9788 1170.57,88.2389 1171.07,1438.59 1171.57,87.9763 1172.07,87.9763 1172.57,88.226 1173.07,1143.89 1173.57,88.2389 1174.06,1438.59 1174.56,87.9763 1175.06,87.9763 1175.56,87.9763 1176.06,87.9763 1176.56,88.2362 1177.06,1425.01 1177.55,88.2249 1178.05,1138.36 1178.55,87.9763 1179.05,87.9763 1179.55,88.2362 1180.05,1425.01 1180.55,87.9763 1181.04,87.9763 1181.54,87.9763 1182.04,87.9763 1182.54,88.9605 1183.04,1443.87 1183.54,87.9763 1184.04,87.9763 1184.53,87.9763 1185.03,87.9763 1185.53,88.235 1186.03,1418.23 1186.53,87.9763 1187.03,87.9763 1187.53,88.2249 1188.02,1138.62 1188.52,88.2376 1189.02,1431.8 1189.52,89.4335 1190.02,87.9788 1190.52,87.9763 1191.02,87.9763 1191.51,88.2362 1192.01,1425.01 1192.51,88.2218 1193.01,1132.94 1193.51,87.9763 1194.01,87.9763 1194.51,88.2296 1195.01,1391.08 1195.5,87.9763 1196,87.9763 1196.5,87.9763 1197,87.9763 1197.5,88.2402 1198,1445.37 1198.5,87.9763 1198.99,87.9763 1199.49,89.4312 1199.99,87.9814 1200.49,88.2402 1200.99,1445.37 1201.49,87.9763 1201.99,87.9763 1202.48,88.2219 1202.98,1138.4 1203.48,88.2402 1203.98,1445.37 1204.48,89.4313 1204.98,87.9788 1205.48,87.9763 1205.97,87.9763 1206.47,88.2389 1206.97,1438.59 1207.47,88.2258 1207.97,1143.61 1208.47,87.9763 1208.97,87.9763 1209.46,88.2362 1209.96,1425.01 1210.46,87.9763 1210.96,87.9763 1211.46,87.9763 1211.96,87.9763 1212.46,90.4011 1212.96,1440.86 1213.45,87.9763 1213.95,87.9763 1214.45,88.703 1214.95,87.9788 1215.45,88.2377 1215.95,1431.8 1216.45,87.9763 1216.94,87.9763 1217.44,88.2231 1217.94,1133.26 1218.44,88.2389 1218.94,1438.59 1219.44,87.9763 1219.94,87.9763 1220.43,87.9763 1220.93,87.9763 1221.43,88.2389 1221.93,1438.59 1222.43,88.2248 1222.93,1138.35 1223.43,87.9763 1223.92,87.9763 1224.42,88.2362 1224.92,1425.01 1225.42,87.9763 1225.92,87.9763 1226.42,87.9763 1226.92,87.9763 1227.41,90.4012 1227.91,1440.87 1228.41,87.9763 1228.91,87.9763 1229.41,87.9763 1229.91,87.9763 1230.41,88.2403 1230.9,1445.38 1231.4,87.9763 1231.9,87.9763 1232.4,88.2249 1232.9,1138.62 1233.4,88.2336 1233.9,1411.44 1234.4,88.7049 1234.89,87.9775 1235.39,87.9763 1235.89,87.9763 1236.39,88.2402 1236.89,1445.37 1237.39,88.2249 1237.89,1138.36 1238.38,87.9763 1238.88,87.9763 1239.38,88.2402 1239.88,1445.37 1240.38,87.9763 1240.88,87.9763 1241.38,87.9763 1241.87,87.9763 1242.37,91.1215 1242.87,1439.37 1243.37,87.9763 1243.87,87.9763 1244.37,87.9763 1244.87,87.9763 1245.36,88.239 1245.86,1438.59 1246.36,87.9763 1246.86,87.9763 1247.36,88.2249 1247.86,1138.58 1248.36,88.235 1248.85,1418.23 1249.35,89.4331 1249.85,87.9788 1250.35,87.9763 1250.85,87.9763 1251.35,88.2349 1251.85,1418.23 1252.35,88.2233 1252.84,1133.05 1253.34,87.9763 1253.84,87.9763 1254.34,88.2376 1254.84,1431.8 1255.34,87.9763 1255.84,87.9763 1256.33,87.9763 1256.83,87.9763 1257.33,90.4012 1257.83,1440.87 1258.33,87.9763 1258.83,87.9763 1259.33,91.6188 1259.82,87.9891 1260.32,88.239 1260.82,1438.59 1261.32,87.9763 1261.82,87.9763 1262.32,88.2247 1262.82,1138.6 1263.31,88.2363 1263.81,1425.01 1264.31,87.9763 1264.81,87.9763 1265.31,87.9763 1265.81,87.9763 1266.31,88.2376 1266.8,1431.8 1267.3,88.2224 1267.8,1127.8 1268.3,87.9763 1268.8,87.9763 1269.3,88.2349 1269.8,1418.23 1270.29,87.9763 1270.79,87.9763 1271.29,87.9763 1271.79,87.9763 1272.29,89.6809 1272.79,1442.37 1273.29,87.9763 1273.79,87.9763 1274.28,90.1613 1274.78,87.984 1275.28,88.2389 1275.78,1438.59 1276.28,87.9763 1276.78,87.9763 1277.28,88.2248 1277.77,1138.61 1278.27,88.2402 1278.77,1445.37 1279.27,89.4334 1279.77,87.9788 1280.27,87.9763 1280.77,87.9763 1281.26,88.2402 1281.76,1445.37 1282.26,88.2247 1282.76,1138.34 1283.26,87.9763 1283.76,87.9763 1284.26,88.2402 1284.75,1445.37 1285.25,87.9763 1285.75,87.9763 1286.25,87.9763 1286.75,87.9763 1287.25,90.4012 1287.75,1440.87 1288.24,87.9763 1288.74,87.9763 1289.24,90.1617 1289.74,87.984 1290.24,88.2377 1290.74,1431.8 1291.24,87.9763 1291.73,87.9763 1292.23,88.2223 1292.73,1128.05 1293.23,88.2376 1293.73,1431.8 1294.23,89.4334 1294.73,87.9788 1295.23,87.9763 1295.72,87.9763 1296.22,88.2389 1296.72,1438.59 1297.22,88.2211 1297.72,1122.52 1298.22,87.9763 1298.72,87.9763 1299.21,88.2389 1299.71,1438.59 1300.21,87.9763 1300.71,87.9763 1301.21,87.9763 1301.71,87.9763 1302.21,88.9592 1302.7,1437.08 1303.2,87.9763 1303.7,87.9763 1304.2,89.4331 1304.7,87.9814 1305.2,88.2363 1305.7,1425.01 1306.19,87.9763 1306.69,87.9763 1307.19,88.2249 1307.69,1138.57 1308.19,88.2376 1308.69,1431.8 1309.19,88.7047 1309.68,87.9775 1310.18,87.9763 1310.68,87.9763 1311.18,88.2376 1311.68,1431.8 1312.18,88.2261 1312.68,1143.61 1313.18,87.9763 1313.67,87.9763 1314.17,88.2376 1314.67,1431.8 1315.17,87.9763 1315.67,87.9763 1316.17,87.9763 1316.67,87.9763 1317.16,90.4012 1317.66,1440.87 1318.16,87.9763 1318.66,87.9763 1319.16,89.4333 1319.66,87.9814 1320.16,88.2363 1320.65,1425.02 1321.15,87.9763 1321.65,87.9763 1322.15,88.2249 1322.65,1138.59 1323.15,88.2402 1323.65,1445.37 1324.14,90.1616 1324.64,87.98 1325.14,87.9763 1325.64,87.9763 1326.14,88.2389 1326.64,1438.59 1327.14,88.2236 1327.63,1133.07 1328.13,87.9763 1328.63,87.9763 1329.13,88.2362 1329.63,1425.01 1330.13,87.9763 1330.63,87.9763 1331.12,87.9763 1331.62,87.9763 1332.12,89.6809 1332.62,1442.37 1333.12,87.9763 1333.62,87.9763 1334.12,87.9763 1334.62,87.9763 1335.11,88.2403 1335.61,1445.38 1336.11,87.9763 1336.61,87.9763 1337.11,88.2261 1337.61,1143.89 1338.11,88.2363 1338.6,1425.01 1339.1,88.7048 1339.6,87.9775 1340.1,87.9763 1340.6,87.9763 1341.1,88.2402 1341.6,1445.37 1342.09,88.2262 1342.59,1143.6 1343.09,87.9763 1343.59,87.9763 1344.09,88.2402 1344.59,1445.37 1345.09,87.9763 1345.58,87.9763 1346.08,87.9763 1346.58,87.9763 1347.08,89.6809 1347.58,1442.37 1348.08,87.9763 1348.58,87.9763 1349.07,88.7048 1349.57,87.9788 1350.07,88.2323 1350.57,1404.65 1351.07,87.9763 1351.57,87.9763 1352.07,88.2249 1352.57,1138.59 1353.06,88.2363 1353.56,1425.01 1354.06,90.1616 1354.56,87.98 1355.06,87.9763 1355.56,87.9763 1356.06,88.2389 1356.55,1438.59 1357.05,88.2248 1357.55,1138.35 1358.05,87.9763 1358.55,87.9763 1359.05,88.2402 1359.55,1445.37 1360.04,87.9763 1360.54,87.9763 1361.04,87.9763 1361.54,87.9763 1362.04,90.4012 1362.54,1440.87 1363.04,87.9763 1363.53,87.9763 1364.03,89.4326 1364.53,87.9814 1365.03,88.2363 1365.53,1425.02 1366.03,87.9763 1366.53,87.9763 1367.02,88.2235 1367.52,1133.33 1368.02,88.2349 1368.52,1418.23 1369.02,88.7048 1369.52,87.9775 1370.02,87.9763 1370.51,87.9763 1371.01,88.2389 1371.51,1438.59 1372.01,88.2247 1372.51,1138.2 1373.01,87.9763 1373.51,87.9763 1374.01,88.2389 1374.5,1438.59 1375,87.9763 1375.5,87.9763 1376,87.9763 1376.5,87.9763 1377,89.6808 1377.5,1442.37 1377.99,87.9763 1378.49,87.9763 1378.99,89.4315 1379.49,87.9814 1379.99,88.2376 1380.49,1431.8 1380.99,87.9763 1381.48,87.9763 1381.98,88.2221 1382.48,1128 1382.98,88.2363 1383.48,1425.01 1383.98,88.7045 1384.48,87.9775 1384.97,87.9763 1385.47,87.9763 1385.97,88.2362 1386.47,1425.01 1386.97,88.2261 1387.47,1143.63 1387.97,87.9763 1388.46,87.9763 1388.96,88.2376 1389.46,1431.8 1389.96,87.9763 1390.46,87.9763 1390.96,87.9763 1391.46,87.9763 1391.96,89.6809 1392.45,1442.37 1392.95,87.9763 1393.45,87.9763 1393.95,90.1614 1394.45,87.984 1394.95,88.235 1395.45,1418.23 1395.94,87.9763 1396.44,87.9763 1396.94,88.2223 1397.44,1128.05 1397.94,88.2376 1398.44,1431.8 1398.94,88.7048 1399.43,87.9775 1399.93,87.9763 1400.43,87.9763 1400.93,88.2376 1401.43,1431.8 1401.93,88.2237 1402.43,1132.88 1402.92,87.9763 1403.42,87.9763 1403.92,88.2402 1404.42,1445.37 1404.92,87.9763 1405.42,87.9763 1405.92,87.9763 1406.41,87.9763 1406.91,89.6809 1407.41,1442.37 1407.91,87.9763 1408.41,87.9763 1408.91,88.7047 1409.41,87.9788 1409.9,88.2376 1410.4,1431.8 1410.9,87.9763 1411.4,87.9763 1411.9,88.2236 1412.4,1133.3 1412.9,88.2389 1413.4,1438.59 1413.89,88.7047 1414.39,87.9775 1414.89,87.9763 1415.39,87.9763 1415.89,88.2376 1416.39,1431.8 1416.89,88.2236 1417.38,1133.07 1417.88,87.9763 1418.38,87.9763 1418.88,88.2376 1419.38,1431.8 1419.88,87.9763 1420.38,87.9763 1420.87,87.9763 1421.37,87.9763 1421.87,88.9605 1422.37,1443.87 1422.87,87.9763 1423.37,87.9763 1423.87,90.1599 1424.36,87.984 1424.86,88.2389 1425.36,1438.59 1425.86,87.9763 1426.36,87.9763 1426.86,88.2234 1427.36,1133.32 1427.85,88.2402 1428.35,1445.37 1428.85,91.6188 1429.35,87.9825 1429.85,87.9763 1430.35,87.9763 1430.85,88.2389 1431.34,1438.59 1431.84,88.2236 1432.34,1133.04 1432.84,87.9763 1433.34,87.9763 1433.84,88.2389 1434.34,1438.59 1434.84,87.9763 1435.33,87.9763 1435.83,87.9763 1436.33,87.9763 1436.83,90.4012 1437.33,1440.87 1437.83,87.9763 1438.33,87.9763 1438.82,89.4333 1439.32,87.9814 1439.82,88.2324 1440.32,1404.66 1440.82,87.9763 1441.32,87.9763 1441.82,88.2224 1442.31,1128.02 1442.81,88.2376 1443.31,1431.8 1443.81,87.9763 1444.31,87.9763 1444.81,87.9763 1445.31,87.9763 1445.8,88.2376 1446.3,1431.8 1446.8,88.2249 1447.3,1138.35 1447.8,87.9763 1448.3,87.9763 1448.8,88.2389 1449.29,1438.59 1449.79,87.9763 1450.29,87.9763 1450.79,87.9763 1451.29,87.9763 1451.79,88.2402 1452.29,1445.37 1452.79,87.9763 1453.28,87.9763 1453.78,89.4325 1454.28,87.9814 1454.78,88.2389 1455.28,1438.59 1455.78,87.9763 1456.28,87.9763 1456.77,88.2248 1457.27,1138.61 1457.77,88.2376 1458.27,1431.8 1458.77,87.9763 1459.27,87.9763 1459.77,87.9763 1460.26,87.9763 1460.76,88.2402 1461.26,1445.37 1461.76,88.2249 1462.26,1138.32 1462.76,87.9763 1463.26,87.9763 1463.75,88.2376 1464.25,1431.8 1464.75,87.9763 1465.25,87.9763 1465.75,87.9763 1466.25,87.9763 1466.75,89.6809 1467.24,1442.37 1467.74,87.9763 1468.24,87.9763 1468.74,88.7048 1469.24,87.9788 1469.74,88.2376 1470.24,1431.8 1470.73,87.9763 1471.23,87.9763 1471.73,88.2247 1472.23,1138.56 1472.73,88.2363 1473.23,1425.01 1473.73,89.4329 1474.23,87.9788 1474.72,87.9763 1475.22,87.9763 1475.72,88.2336 1476.22,1411.44 1476.72,88.2233 1477.22,1133.06 1477.72,87.9763 1478.21,87.9763 1478.71,88.2376 1479.21,1431.8 1479.71,87.9763 1480.21,87.9763 1480.71,87.9763 1481.21,87.9763 1481.7,89.6809 1482.2,1442.37 1482.7,87.9763 1483.2,87.9763 1483.7,89.4332 1484.2,87.9814 1484.7,88.2403 1485.19,1445.38 1485.69,87.9763 1486.19,87.9763 1486.69,88.2236 1487.19,1133.34 1487.69,88.2363 1488.19,1425.01 1488.68,90.162 1489.18,87.98 1489.68,87.9763 1490.18,87.9763 1490.68,88.2402 1491.18,1445.37 1491.68,88.2235 1492.18,1133.07 1492.67,87.9763 1493.17,87.9763 1493.67,88.2402 1494.17,1445.37 1494.67,87.9763 1495.17,87.9763 1495.67,87.9763 1496.16,87.9763 1496.66,88.2402 1497.16,1445.37 1497.66,87.9763 1498.16,87.9763 1498.66,88.7049 1499.16,87.9788 1499.65,88.2402 1500.15,1445.37 1500.65,87.9763 1501.15,87.9763 1501.65,88.2235 1502.15,1133.33 1502.65,88.2389 1503.14,1438.59 1503.64,89.4334 1504.14,87.9788 1504.64,87.9763 1505.14,87.9763 1505.64,88.2362 1506.14,1425.01 1506.63,88.2261 1507.13,1143.63 1507.63,87.9763 1508.13,87.9763 1508.63,88.2389 1509.13,1438.59 1509.63,87.9763 1510.12,87.9763 1510.62,87.9763 1511.12,87.9763 1511.62,88.2402 1512.12,1445.37 1512.62,87.9763 1513.12,87.9763 1513.62,88.7048 1514.11,87.9788 1514.61,88.2389 1515.11,1438.59 1515.61,87.9763 1516.11,87.9763 1516.61,88.2249 1517.11,1138.62 1517.6,88.2376 1518.1,1431.8 1518.6,87.9763 1519.1,87.9763 1519.6,87.9763 1520.1,87.9763 1520.6,88.2389 1521.09,1438.59 1521.59,88.2262 1522.09,1143.64 1522.59,87.9763 1523.09,87.9763 1523.59,88.2402 1524.09,1445.37 1524.58,87.9763 1525.08,87.9763 1525.58,87.9763 1526.08,87.9763 1526.58,91.1215 1527.08,1439.37 1527.58,87.9763 1528.07,87.9763 1528.57,90.8895 1529.07,87.9865 1529.57,88.2377 1530.07,1431.81 1530.57,87.9763 1531.07,87.9763 1531.56,88.226 1532.06,1143.89 1532.56,88.235 1533.06,1418.23 1533.56,87.9763 1534.06,87.9763 1534.56,87.9763 1535.06,87.9763 1535.55,88.2389 1536.05,1438.59 1536.55,88.2199 1537.05,1117.21 1537.55,87.9763 1538.05,87.9763 1538.55,88.2362 1539.04,1425.01 1539.54,87.9763 1540.04,87.9763 1540.54,87.9763 1541.04,87.9763 1541.54,91.1215 1542.04,1439.37 1542.53,87.9763 1543.03,87.9763 1543.53,88.7047 1544.03,87.9788 1544.53,88.239 1545.03,1438.59 1545.53,87.9763 1546.02,87.9763 1546.52,88.2236 1547.02,1133.3 1547.52,88.2389 1548.02,1438.59 1548.52,89.4331 1549.02,87.9788 1549.51,87.9763 1550.01,87.9763 1550.51,88.2402 1551.01,1445.37 1551.51,88.2236 1552.01,1133.07 1552.51,87.9763 1553.01,87.9763 1553.5,88.2376 1554,1431.8 1554.5,87.9763 1555,87.9763 1555.5,87.9763 1556,87.9763 1556.5,88.9605 1556.99,1443.87 1557.49,87.9763 1557.99,87.9763 1558.49,90.1615 1558.99,87.984 1559.49,88.2376 1559.99,1431.8 1560.48,87.9763 1560.98,87.9763 1561.48,88.2234 1561.98,1133.32 1562.48,88.2389 1562.98,1438.59 1563.48,87.9763 1563.97,87.9763 1564.47,87.9763 1564.97,87.9763 1565.47,88.2376 1565.97,1431.8 1566.47,88.2249 1566.97,1138.32 1567.46,87.9763 1567.96,87.9763 1568.46,88.2389 1568.96,1438.59 1569.46,87.9763 1569.96,87.9763 1570.46,87.9763 1570.95,87.9763 1571.45,89.6809 1571.95,1442.37 1572.45,87.9763 1572.95,87.9763 1573.45,89.4333 1573.95,87.9814 1574.45,88.2403 1574.94,1445.38 1575.44,87.9763 1575.94,87.9763 1576.44,88.2236 1576.94,1133.31 1577.44,88.2402 1577.94,1445.37 1578.43,88.7047 1578.93,87.9775 1579.43,87.9763 1579.93,87.9763 1580.43,88.2362 1580.93,1425.01 1581.43,88.2249 1581.92,1138.35 1582.42,87.9763 1582.92,87.9763 1583.42,88.2389 1583.92,1438.59 1584.42,87.9763 1584.92,87.9763 1585.41,87.9763 1585.91,87.9763 1586.41,88.9605 1586.91,1443.85 1587.41,87.9763 1587.91,87.9763 1588.41,90.8176 1588.9,87.9862 1589.4,88.2376 1589.9,1431.8 1590.4,87.9763 1590.9,87.9763 1591.4,88.2189 1591.9,1138.17 1592.4,88.2402 1592.89,1445.37 1593.39,89.429 1593.89,87.9788 1594.39,87.9763 1594.89,87.9763 1595.39,88.2402 1595.89,1445.37 1596.38,88.2241 1596.88,1138.24 1597.38,87.9763 1597.88,87.9763 1598.38,88.2376 1598.88,1431.8 1599.38,87.9763 1599.87,87.9763 1600.37,87.9763 1600.87,87.9763 1601.37,91.1215 1601.87,1439.37 1602.37,87.9763 1602.87,87.9763 1603.36,88.7047 1603.86,87.9788 1604.36,88.2364 1604.86,1425.02 1605.36,87.9763 1605.86,87.9763 1606.36,88.2224 1606.85,1128.02 1607.35,88.2376 1607.85,1431.8 1608.35,87.9763 1608.85,87.9763 1609.35,87.9763 1609.85,87.9763 1610.34,88.2376 1610.84,1431.8 1611.34,88.2236 1611.84,1133.08 1612.34,87.9763 1612.84,87.9763 1613.34,88.2376 1613.84,1431.8 1614.33,87.9763 1614.83,87.9763 1615.33,87.9763 1615.83,87.9763 1616.33,89.6809 1616.83,1442.37 1617.33,87.9763 1617.82,87.9763 1618.32,88.7046 1618.82,87.9788 1619.32,88.2376 1619.82,1431.8 1620.32,87.9763 1620.82,87.9763 1621.31,88.2236 1621.81,1133.33 1622.31,88.2376 1622.81,1431.8 1623.31,89.4334 1623.81,87.9788 1624.31,87.9763 1624.8,87.9763 1625.3,88.2362 1625.8,1425.01 1626.3,88.2236 1626.8,1133.04 1627.3,87.9763 1627.8,87.9763 1628.29,88.2376 1628.79,1431.8 1629.29,87.9763 1629.79,87.9763 1630.29,87.9763 1630.79,87.9763 1631.29,88.2402 1631.79,1445.37 1632.28,87.9763 1632.78,87.9763 1633.28,88.7049 1633.78,87.9788 1634.28,88.2402 1634.78,1445.37 1635.28,87.9763 1635.77,87.9763 1636.27,88.2249 1636.77,1138.56 1637.27,88.2402 1637.77,1445.37 1638.27,89.4329 1638.77,87.9788 1639.26,87.9763 1639.76,87.9763 1640.26,88.2402 1640.76,1445.37 1641.26,88.226 1641.76,1143.63 1642.26,87.9763 1642.75,87.9763 1643.25,88.2362 1643.75,1425.01 1644.25,87.9763 1644.75,87.9763 1645.25,87.9763 1645.75,87.9763 1646.24,89.6809 1646.74,1442.37 1647.24,87.9763 1647.74,87.9763 1648.24,89.433 1648.74,87.9814 1649.24,88.2389 1649.73,1438.59 1650.23,87.9763 1650.73,87.9763 1651.23,88.2248 1651.73,1138.61 1652.23,88.2402 1652.73,1445.37 1653.23,88.7048 1653.72,87.9775 1654.22,87.9763 1654.72,87.9763 1655.22,88.2376 1655.72,1431.8 1656.22,88.2262 1656.72,1143.6 1657.21,87.9763 1657.71,87.9763 1658.21,88.2376 1658.71,1431.8 1659.21,87.9763 1659.71,87.9763 1660.21,87.9763 1660.7,87.9763 1661.2,91.1215 1661.7,1439.37 1662.2,87.9763 1662.7,87.9763 1663.2,88.7047 1663.7,87.9788 1664.19,88.2377 1664.69,1431.81 1665.19,87.9763 1665.69,87.9763 1666.19,88.2261 1666.69,1143.53 1667.19,88.2363 1667.68,1425.01 1668.18,89.4298 1668.68,87.9788 1669.18,87.9763 1669.68,87.9763 1670.18,88.2376 1670.68,1431.8 1671.17,88.2243 1671.67,1138.31 1672.17,87.9763 1672.67,87.9763 1673.17,88.2376 1673.67,1431.8 1674.17,87.9763 1674.67,87.9763 1675.16,87.9763 1675.66,87.9763 1676.16,88.2402 1676.66,1445.37 1677.16,87.9763 1677.66,87.9763 1678.16,88.7046 1678.65,87.9788 1679.15,88.2402 1679.65,1445.37 1680.15,87.9763 1680.65,87.9763 1681.15,88.2211 1681.65,1122.77 1682.14,88.2402 1682.64,1445.37 1683.14,90.8905 1683.64,87.9813 1684.14,87.9763 1684.64,87.9763 1685.14,88.2376 1685.63,1431.8 1686.13,88.2236 1686.63,1133.04 1687.13,87.9763 1687.63,87.9763 1688.13,88.2389 1688.63,1438.59 1689.12,87.9763 1689.62,87.9763 1690.12,87.9763 1690.62,87.9763 1691.12,89.6809 1691.62,1442.37 1692.12,87.9763 1692.62,87.9763 1693.11,88.7048 1693.61,87.9788 1694.11,88.2376 1694.61,1431.8 1695.11,87.9763 1695.61,87.9763 1696.11,88.2249 1696.6,1138.58 1697.1,88.2363 1697.6,1425.01 1698.1,87.9763 1698.6,87.9763 1699.1,87.9763 1699.6,87.9763 1700.09,88.2389 1700.59,1438.59 1701.09,88.2224 1701.59,1127.8 1702.09,87.9763 1702.59,87.9763 1703.09,88.2376 1703.58,1431.8 1704.08,87.9763 1704.58,87.9763 1705.08,87.9763 1705.58,87.9763 1706.08,88.2402 1706.58,1445.37 1707.07,87.9763 1707.57,87.9763 1708.07,89.4331 1708.57,87.9814 1709.07,88.2389 1709.57,1438.59 1710.07,87.9763 1710.56,87.9763 1711.06,88.2236 1711.56,1133.33 1712.06,88.2389 1712.56,1438.59 1713.06,89.4334 1713.56,87.9788 1714.06,87.9763 1714.55,87.9763 1715.05,88.2389 1715.55,1438.59 1716.05,88.2249 1716.55,1138.32 1717.05,87.9763 1717.55,87.9763 1718.04,88.2349 1718.54,1418.23 1719.04,87.9763 1719.54,87.9763 1720.04,87.9763 1720.54,87.9763 1721.04,88.9605 1721.53,1443.87 1722.03,87.9763 1722.53,87.9763 1723.03,89.4332 1723.53,87.9814 1724.03,88.2402 1724.53,1445.37 1725.02,87.9763 1725.52,87.9763 1726.02,88.2249 1726.52,1138.58 1727.02,88.2389 1727.52,1438.59 1728.02,87.9763 1728.51,87.9763 1729.01,87.9763 1729.51,87.9763 1730.01,88.2376 1730.51,1431.8 1731.01,88.2236 1731.51,1133.08 1732.01,87.9763 1732.5,87.9763 1733,88.2389 1733.5,1438.59 1734,87.9763 1734.5,87.9763 1735,87.9763 1735.5,87.9763 1735.99,90.4012 1736.49,1440.87 1736.99,87.9763 1737.49,87.9763 1737.99,89.4325 1738.49,87.9814 1738.99,88.239 1739.48,1438.59 1739.98,87.9763 1740.48,87.9763 1740.98,88.2235 1741.48,1133.33 1741.98,88.2376 1742.48,1431.8 1742.97,89.4333 1743.47,87.9788 1743.97,87.9763 1744.47,87.9763 1744.97,88.2402 1745.47,1445.37 1745.97,88.2236 1746.46,1133.04 1746.96,87.9763 1747.46,87.9763 1747.96,88.2389 1748.46,1438.59 1748.96,87.9763 1749.46,87.9763 1749.95,87.9763 1750.45,87.9763 1750.95,88.2402 1751.45,1445.37 1751.95,87.9763 1752.45,87.9763 1752.95,89.4335 1753.45,87.9814 1753.94,88.2362 1754.44,1425.01 1754.94,87.9763 1755.44,87.9763 1755.94,88.2212 1756.44,1122.74 1756.94,88.2389 1757.43,1438.59 1757.93,87.9763 1758.43,87.9763 1758.93,87.9763 1759.43,87.9763 1759.93,88.2402 1760.43,1445.37 1760.92,88.2261 1761.42,1143.63 1761.92,87.9763 1762.42,87.9763 1762.92,88.2389 1763.42,1438.59 1763.92,87.9763 1764.41,87.9763 1764.91,87.9763 1765.41,87.9763 1765.91,91.1215 1766.41,1439.36 1766.91,87.9763 1767.41,87.9763 1767.9,88.7044 1768.4,87.9788 1768.9,88.2364 1769.4,1425.02 1769.9,87.9763 1770.4,87.9763 1770.9,88.221 1771.4,1122.77 1771.89,88.2402 1772.39,1445.37 1772.89,90.8904 1773.39,87.9813 1773.89,87.9763 1774.39,87.9763 1774.89,88.2376 1775.38,1431.8 1775.88,88.2223 1776.38,1127.67 1776.88,87.9763 1777.38,87.9763 1777.88,88.2349 1778.38,1418.23 1778.87,87.9763 1779.37,87.9763 1779.87,87.9763 1780.37,87.9763 1780.87,89.6809 1781.37,1442.37 1781.87,87.9763 1782.36,87.9763 1782.86,87.9763 1783.36,87.9763 1783.86,88.2363 1784.36,1425.02 1784.86,87.9763 1785.36,87.9763 1785.85,88.2249 1786.35,1138.58 1786.85,88.2402 1787.35,1445.37 1787.85,89.433 1788.35,87.9788 1788.85,87.9763 1789.34,87.9763 1789.84,88.2362 1790.34,1425.01 1790.84,88.2248 1791.34,1138.35 1791.84,87.9763 1792.34,87.9763 1792.84,88.2389 1793.33,1438.59 1793.83,87.9763 1794.33,87.9763 1794.83,87.9763 1795.33,87.9763 1795.83,90.4012 1796.33,1440.87 1796.82,87.9763 1797.32,87.9763 1797.82,88.7045 1798.32,87.9788 1798.82,88.2324 1799.32,1404.66 1799.82,87.9763 1800.31,87.9763 1800.81,88.2248 1801.31,1138.61 1801.81,88.2376 1802.31,1431.8 1802.81,89.4334 1803.31,87.9788 1803.8,87.9763 1804.3,87.9763 1804.8,88.2362 1805.3,1425.01 1805.8,88.2249 1806.3,1138.33 1806.8,87.9763 1807.29,87.9763 1807.79,88.2402 1808.29,1445.37 1808.79,87.9763 1809.29,87.9763 1809.79,87.9763 1810.29,87.9763 1810.78,88.2402 1811.28,1445.37 1811.78,87.9763 1812.28,87.9763 1812.78,88.7049 1813.28,87.9788 1813.78,88.2376 1814.28,1431.8 1814.77,87.9763 1815.27,87.9763 1815.77,88.2249 1816.27,1138.56 1816.77,88.2389 1817.27,1438.59 1817.77,88.7046 1818.26,87.9775 1818.76,87.9763 1819.26,87.9763 1819.76,88.2389 1820.26,1438.59 1820.76,88.2248 1821.26,1138.35 1821.75,87.9763 1822.25,87.9763 1822.75,88.2376 1823.25,1431.8 1823.75,87.9763 1824.25,87.9763 1824.75,87.9763 1825.24,87.9763 1825.74,88.9605 1826.24,1443.87 1826.74,87.9763 1827.24,87.9763 1827.74,90.1561 1828.24,87.984 1828.73,88.2363 1829.23,1425.01 1829.73,87.9763 1830.23,87.9763 1830.73,88.2242 1831.23,1138.57 1831.73,88.2389 1832.23,1438.59 1832.72,88.7046 1833.22,87.9775 1833.72,87.9763 1834.22,87.9763 1834.72,88.2402 1835.22,1445.37 1835.72,88.2236 1836.21,1133.03 1836.71,87.9763 1837.21,87.9763 1837.71,88.2376 1838.21,1431.8 1838.71,87.9763 1839.21,87.9763 1839.7,87.9763 1840.2,87.9763 1840.7,89.6809 1841.2,1442.37 1841.7,87.9763 1842.2,87.9763 1842.7,90.8904 1843.19,87.9865 1843.69,88.2403 1844.19,1445.38 1844.69,87.9763 1845.19,87.9763 1845.69,88.2211 1846.19,1122.74 1846.68,88.2402 1847.18,1445.37 1847.68,90.1614 1848.18,87.98 1848.68,87.9763 1849.18,87.9763 1849.68,88.2376 1850.17,1431.8 1850.67,88.2211 1851.17,1122.51 1851.67,87.9763 1852.17,87.9763 1852.67,88.2376 1853.17,1431.8 1853.67,87.9763 1854.16,87.9763 1854.66,87.9763 1855.16,87.9763 1855.66,88.2402 1856.16,1445.37 1856.66,87.9763 1857.16,87.9763 1857.65,87.9763 1858.15,87.9763 1858.65,88.2376 1859.15,1431.8 1859.65,87.9763 1860.15,87.9763 1860.65,88.2249 1861.14,1138.62 1861.64,88.2376 1862.14,1431.8 1862.64,88.7049 1863.14,87.9775 1863.64,87.9763 1864.14,87.9763 1864.63,88.2389 1865.13,1438.59 1865.63,88.2247 1866.13,1138.07 1866.63,87.9763 1867.13,87.9763 1867.63,88.2376 1868.12,1431.8 1868.62,87.9763 1869.12,87.9763 1869.62,87.9763 1870.12,87.9763 1870.62,88.9605 1871.12,1443.87 1871.62,87.9763 1872.11,87.9763 1872.61,88.7047 1873.11,87.9788 1873.61,88.2376 1874.11,1431.8 1874.61,87.9763 1875.11,87.9763 1875.6,88.2249 1876.1,1138.58 1876.6,88.2402 1877.1,1445.37 1877.6,88.7047 1878.1,87.9775 1878.6,87.9763 1879.09,87.9763 1879.59,88.2402 1880.09,1445.37 1880.59,88.2236 1881.09,1133.02 1881.59,87.9763 1882.09,87.9763 1882.58,88.2389 1883.08,1438.59 1883.58,87.9763 1884.08,87.9763 1884.58,87.9763 1885.08,87.9763 1885.58,89.6809 1886.07,1442.37 1886.57,87.9763 1887.07,87.9763 1887.57,89.4322 1888.07,87.9814 1888.57,88.2403 1889.07,1445.38 1889.56,87.9763 1890.06,87.9763 1890.56,88.2234 1891.06,1133.32 1891.56,88.2402 1892.06,1445.37 1892.56,88.7048 1893.06,87.9775 1893.55,87.9763 1894.05,87.9763 1894.55,88.2389 1895.05,1438.59 1895.55,88.2249 1896.05,1138.08 1896.55,87.9763 1897.04,87.9763 1897.54,88.2376 1898.04,1431.8 1898.54,87.9763 1899.04,87.9763 1899.54,87.9763 1900.04,87.9763 1900.53,90.4012 1901.03,1440.87 1901.53,87.9763 1902.03,87.9763 1902.53,88.7045 1903.03,87.9788 1903.53,88.2377 1904.02,1431.8 1904.52,87.9763 1905.02,87.9763 1905.52,88.2248 1906.02,1138.48 1906.52,88.2376 1907.02,1431.8 1907.51,88.7042 1908.01,87.9775 1908.51,87.9763 1909.01,87.9763 1909.51,88.2389 1910.01,1438.59 1910.51,88.2197 1911,1117.23 1911.5,87.9763 1912,87.9763 1912.5,88.2362 1913,1425.01 1913.5,87.9763 1914,87.9763 1914.5,87.9763 1914.99,87.9763 1915.49,89.6809 1915.99,1442.37 1916.49,87.9763 1916.99,87.9763 1917.49,87.9763 1917.99,87.9763 1918.48,88.2376 1918.98,1431.8 1919.48,87.9763 1919.98,87.9763 1920.48,88.2249 1920.98,1138.62 1921.48,88.2376 1921.97,1431.8 1922.47,89.4334 1922.97,87.9788 1923.47,87.9763 1923.97,87.9763 1924.47,88.2376 1924.97,1431.8 1925.46,88.2249 1925.96,1138.29 1926.46,87.9763 1926.96,87.9763 1927.46,88.2362 1927.96,1425.01 1928.46,87.9763 1928.95,87.9763 1929.45,87.9763 1929.95,87.9763 1930.45,88.9605 1930.95,1443.87 1931.45,87.9763 1931.95,87.9763 1932.45,89.4334 1932.94,87.9814 1933.44,88.2389 1933.94,1438.59 1934.44,87.9763 1934.94,87.9763 1935.44,88.2262 1935.94,1143.9 1936.43,88.2389 1936.93,1438.59 1937.43,88.7049 1937.93,87.9775 1938.43,87.9763 1938.93,87.9763 1939.43,88.2389 1939.92,1438.59 1940.42,88.2247 1940.92,1138.34 1941.42,87.9763 1941.92,87.9763 1942.42,88.2376 1942.92,1431.8 1943.41,87.9763 1943.91,87.9763 1944.41,87.9763 1944.91,87.9763 1945.41,89.6809 1945.91,1441.72 1946.41,87.9763 1946.9,87.9763 1947.4,92.5406 1947.9,88.0185 1948.4,88.2376 1948.9,1431.8 1949.4,87.9763 1949.9,87.9763 1950.39,88.2709 1950.89,1141.48 1951.39,88.2363 1951.89,1425.01 1952.39,89.462 1952.89,87.9789 1953.39,87.9763 1953.89,87.9763 1954.38,88.2362 1954.88,1425.01 1955.38,88.2298 1955.88,1138.7 1956.38,87.9763 1956.88,87.9763 1957.38,88.2376 1957.87,1431.8 1958.37,87.9763 1958.87,87.9763 1959.37,87.9763 1959.87,87.9763 1960.37,88.9605 1960.87,1443.87 1961.36,87.9763 1961.86,87.9763 1962.36,87.9763 1962.86,87.9763 1963.36,88.2323 1963.86,1404.65 1964.36,87.9763 1964.85,87.9763 1965.35,88.2219 1965.85,1127.99 1966.35,88.2376 1966.85,1431.8 1967.35,90.161 1967.85,87.98 1968.34,87.9763 1968.84,87.9763 1969.34,88.2389 1969.84,1438.59 1970.34,88.2235 1970.84,1132.75 1971.34,87.9763 1971.84,87.9763 1972.33,88.231 1972.83,1397.86 1973.33,87.9763 1973.83,87.9763 1974.33,87.9763 1974.83,87.9763 1975.33,88.2402 1975.82,1445.37 1976.32,87.9763 1976.82,87.9763 1977.32,89.4248 1977.82,87.9814 1978.32,88.2349 1978.82,1418.23 1979.31,87.9763 1979.81,87.9763 1980.31,88.2231 1980.81,1143.67 1981.31,88.2402 1981.81,1445.37 1982.31,89.4312 1982.8,87.9788 1983.3,87.9763 1983.8,87.9763 1984.3,88.2389 1984.8,1438.59 1985.3,88.2232 1985.8,1094.82 1986.29,87.9763 1986.79,87.9763 1987.29,88.2389 1987.79,1438.59 1988.29,87.9763 1988.79,87.9763 1989.29,87.9763 1989.78,87.9763 1990.28,89.6806 1990.78,1442.35 1991.28,87.9763 1991.78,87.9763 1992.28,90.1369 1992.78,87.9839 1993.28,88.2376 1993.77,1431.8 1994.27,87.9763 1994.77,87.9763 1995.27,88.2152 1995.77,1136.61 1996.27,88.2363 1996.77,1425.01 1997.26,89.4135 1997.76,87.9787 1998.26,87.9763 1998.76,87.9763 1999.26,88.2376 1999.76,1431.8 2000.26,88.2224 2000.75,1141.81 2001.25,87.9763 2001.75,87.9763 2002.25,88.2389 2002.75,1438.59 2003.25,87.9763 2003.75,87.9763 2004.24,87.9763 2004.74,87.9763 2005.24,90.4011 2005.74,1440.8 2006.24,87.9763 2006.74,87.9763 2007.24,87.9763 2007.73,87.9763 2008.23,88.2403 2008.73,1445.38 2009.23,87.9763 2009.73,87.9763 2010.23,88.2099 2010.73,1142.64 2011.23,88.2402 2011.72,1445.37 2012.22,91.588 2012.72,87.9824 2013.22,87.9763 2013.72,87.9763 2014.22,88.2362 2014.72,1425.01 2015.21,88.2225 2015.71,936.471 2016.21,87.9763 2016.71,87.9763 2017.21,90.4609 2017.71,1432.56 2018.21,87.9763 2018.7,87.9763 2019.2,98.8089 2019.7,93.3815 2020.2,88.239 2020.7,1438.59 2021.2,87.9763 2021.7,87.9763 2022.19,93.9322 2022.69,88.0864 2023.19,88.235 2023.69,1418.23 2024.19,95.4075 2024.69,643.64 2025.19,87.9763 2025.68,87.9763 2026.18,88.2389 2026.68,1438.59 2027.18,87.9763 2027.68,87.9763 2028.18,87.9763 2028.68,87.9763 2029.17,88.9607 2029.67,1442.72 2030.17,87.9763 2030.67,87.9763 2031.17,89.6717 2031.67,811.729 2032.17,88.2376 2032.67,1431.8 2033.16,88.8137 2033.66,87.9814 2034.16,87.9763 2034.66,87.9763 2035.16,88.2376 2035.66,1431.8 2036.16,87.9763 2036.65,87.9763 2037.15,87.9763 2037.65,87.9763 2038.15,89.9589 2038.65,1433.75 2039.15,91.3523 2039.65,828.261 2040.14,87.9763 2040.64,87.9763 2041.14,88.239 2041.64,1438.59 2042.14,87.9763 2042.64,87.9763 2043.14,90.7204 2043.63,91.4043 2044.13,91.847 2044.63,1437.98 2045.13,87.9763 2045.63,87.9763 2046.13,87.9763 2046.63,87.9763 2047.12,88.2324 2047.62,1404.66 2048.12,87.9763 2048.62,87.9763 2049.12,88.2239 2049.62,1102.2 2050.12,88.2376 2050.61,1431.8 2051.11,88.7076 2051.61,87.9775 2052.11,87.9763 2052.61,87.9763 2053.11,88.2402 2053.61,1445.37 2054.11,88.2222 2054.6,1120.9 2055.1,87.9763 2055.6,87.9763 2056.1,88.2362 2056.6,1425.01 2057.1,87.9763 2057.6,87.9763 2058.09,87.9763 2058.59,87.9763 2059.09,91.1212 2059.59,1439.34 2060.09,87.9763 2060.59,87.9763 2061.09,90.1415 2061.58,87.9839 2062.08,88.2364 2062.58,1425.02 2063.08,87.9763 2063.58,87.9763 2064.08,88.2198 2064.58,1111.19 2065.07,88.2402 2065.57,1445.37 2066.07,90.3466 2066.57,87.9799 2067.07,87.9763 2067.57,87.9763 2068.07,88.2389 2068.56,1438.59 2069.06,88.1984 2069.56,1136.24 2070.06,87.9763 2070.56,87.9763 2071.06,88.2349 2071.56,1418.23 2072.06,87.9763 2072.55,87.9763 2073.05,87.9763 2073.55,87.9763 2074.05,89.6807 2074.55,1441.18 2075.05,87.9763 2075.55,87.9763 2076.04,97.3479 2076.54,129.78 2077.04,89.6821 2077.54,1442.42 2078.04,87.9763 2078.54,87.9763 2079.04,87.9763 2079.53,87.9763 2080.03,88.239 2080.53,1438.59 2081.03,87.9763 2081.53,87.9763 2082.03,88.2282 2082.53,1021.93 2083.02,88.2363 2083.52,1425.01 2084.02,99.0496 2084.52,117.715 2085.02,88.1743 2085.52,903.65 2086.02,88.2362 2086.51,1425.01 2087.01,90.2602 2087.51,1004.15 2088.01,87.9763 2088.51,87.9763 2089.01,88.2362 2089.51,1425.01 2090,87.9763 2090.5,87.9763 2091,87.9763 2091.5,87.9763 2092,90.4014 2092.5,1440.85 2093,87.9763 2093.5,87.9763 2093.99,88.6982 2094.49,87.9788 2094.99,88.239 2095.49,1438.59 2095.99,87.9763 2096.49,87.9763 2096.99,88.2208 2097.48,1133.06 2097.98,88.2402 2098.48,1445.37 2098.98,89.4307 2099.48,87.9788 2099.98,87.9763 2100.48,87.9763 2100.97,88.2389 2101.47,1438.59 2101.97,88.2202 2102.47,1114.96 2102.97,87.9763 2103.47,87.9763 2103.97,88.2402 2104.46,1445.37 2104.96,87.9763 2105.46,87.9763 2105.96,87.9763 2106.46,87.9763 2106.96,88.2402 2107.46,1445.37 2107.95,87.9763 2108.45,87.9763 2108.95,87.9763 2109.45,87.9763 2109.95,88.2376 2110.45,1431.8 2110.95,87.9763 2111.45,87.9763 2111.94,88.2237 2112.44,1131.2 2112.94,88.2389 2113.44,1438.59 2113.94,89.3078 2114.44,87.9783 2114.94,87.9763 2115.43,87.9763 2115.93,88.2376 2116.43,1431.8 2116.93,88.2071 2117.43,1141.93 2117.93,87.9763 2118.43,87.9763 2118.92,88.2376 2119.42,1431.8 2119.92,87.9763 2120.42,87.9763 2120.92,87.9763 2121.42,87.9763 2121.92,88.9605 2122.41,1443.73 2122.91,87.9763 2123.41,87.9763 2123.91,90.9039 2124.41,87.9874 2124.91,88.2363 2125.41,1425.01 2125.9,87.9763 2126.4,87.9763 2126.9,88.1973 2127.4,1140.84 2127.9,88.2402 2128.4,1445.37 2128.9,87.9763 2129.39,87.9763 2129.89,87.9763 2130.39,87.9763 2130.89,88.2362 2131.39,1425.01 2131.89,88.2174 2132.39,1077.48 2132.89,87.9763 2133.38,87.9763 2133.88,88.2376 2134.38,1431.8 2134.88,87.9763 2135.38,87.9763 2135.88,87.9763 2136.38,87.9763 2136.87,88.9606 2137.37,1443.16 2137.87,87.9763 2138.37,87.9763 2138.87,98.7851 2139.37,409.825 2139.87,88.2389 2140.36,1438.59 2140.86,87.9763 2141.36,87.9763 2141.86,92.6104 2142.36,89.8998 2142.86,88.2389 2143.36,1438.59 2143.85,87.9763 2144.35,87.9763 2144.85,90.0013 2145.35,87.9834 2145.85,88.2389 2146.35,1438.59 2146.85,87.9763 2147.34,87.9763 2147.84,88.2092 2148.34,1137.21 2148.84,88.2389 2149.34,1438.59 2149.84,88.6979 2150.34,87.9775 2150.83,87.9763 2151.33,87.9763 2151.83,88.2402 2152.33,1445.37 2152.83,88.22 2153.33,1124.63 2153.83,87.9763 2154.33,87.9763 2154.82,88.2389 2155.32,1438.59 2155.82,87.9763 2156.32,87.9763 2156.82,87.9763 2157.32,87.9763 2157.82,88.2402 2158.31,1445.37 2158.81,87.9763 2159.31,87.9763 2159.81,88.7028 2160.31,87.9788 2160.81,88.2376 2161.31,1431.8 2161.8,87.9763 2162.3,87.9763 2162.8,99.8875 2163.3,158.748 2163.8,88.9595 2164.3,1443.65 2164.8,87.9763 2165.29,87.9763 2165.79,92.5827 2166.29,87.9978 2166.79,88.2363 2167.29,1425.01 2167.79,87.9763 2168.29,87.9763 2168.78,88.2128 2169.28,1142.89 2169.78,88.2389 2170.28,1438.59 2170.78,89.4234 2171.28,87.9787 2171.78,87.9763 2172.28,87.9763 2172.77,88.2362 2173.27,1425.01 2173.77,88.2232 2174.27,1138.23 2174.77,87.9763 2175.27,87.9763 2175.77,88.2389 2176.26,1438.59 2176.76,87.9763 2177.26,87.9763 2177.76,87.9763 2178.26,87.9763 2178.76,88.9605 2179.26,1443.87 2179.75,87.9763 2180.25,87.9763 2180.75,89.4333 2181.25,87.9814 2181.75,88.2363 2182.25,1425.01 2182.75,87.9763 2183.24,87.9763 2183.74,88.2242 2184.24,1092.81 2184.74,88.2402 2185.24,1445.37 2185.74,91.4957 2186.24,87.9841 2186.73,87.9763 2187.23,87.9763 2187.73,88.2389 2188.23,1438.59 2188.73,88.2141 2189.23,1132.35 2189.73,87.9763 2190.22,87.9763 2190.72,88.2376 2191.22,1431.8 2191.72,87.9763 2192.22,87.9763 2192.72,87.9763 2193.22,87.9763 2193.72,88.9605 2194.21,1443.87 2194.71,87.9763 2195.21,87.9763 2195.71,90.1606 2196.21,87.984 2196.71,88.2376 2197.21,1431.8 2197.7,87.9763 2198.2,87.9763 2198.7,88.221 2199.2,1122.76 2199.7,88.2349 2200.2,1418.23 2200.7,89.4333 2201.19,87.9788 2201.69,87.9763 2202.19,87.9763 2202.69,88.2389 2203.19,1438.59 2203.69,88.2211 2204.19,981.198 2204.68,87.9763 2205.18,87.9763 2205.68,88.2389 2206.18,1438.59 2206.68,89.3441 2207.18,87.9784 2207.68,87.9763 2208.17,87.9763 2208.67,88.2402 2209.17,1445.37 2209.67,88.3141 2210.17,1037.46 2210.67,87.9763 2211.17,87.9763 2211.67,88.2402 2212.16,1445.37 2212.66,87.9763 2213.16,87.9763 2213.66,87.9763 2214.16,87.9763 2214.66,88.2376 2215.16,1431.8 2215.65,87.9763 2216.15,87.9763 2216.65,87.9763 2217.15,87.9763 2217.65,89.6946 2218.15,1439.48 2218.65,87.9763 2219.14,87.9763 2219.64,88.2903 2220.14,1130.42 2220.64,88.2403 2221.14,1445.38 2221.64,88.7168 2222.14,87.9776 2222.63,87.9763 2223.13,87.9763 2223.63,88.2376 2224.13,1431.8 2224.63,88.2274 2225.13,1133.35 2225.63,87.9763 2226.12,87.9763 2226.62,88.2349 2227.12,1418.23 2227.62,87.9763 2228.12,87.9763 2228.62,87.9763 2229.12,87.9763 2229.61,88.2402 2230.11,1445.37 2230.61,87.9763 2231.11,87.9763 2231.61,90.1625 2232.11,87.984 2232.61,88.2362 2233.11,1425.01 2233.6,87.9763 2234.1,87.9763 2234.6,88.2262 2235.1,1143.9 2235.6,88.2376 2236.1,1431.8 2236.6,88.7049 2237.09,87.9775 2237.59,87.9763 2238.09,87.9763 2238.59,88.2389 2239.09,1438.59 2239.59,88.2248 2240.09,1138.35 2240.58,87.9763 2241.08,87.9763 2241.58,88.2389 2242.08,1438.59 2242.58,87.9763 2243.08,87.9763 2243.58,87.9763 2244.07,87.9763 2244.57,89.6809 2245.07,1442.37 2245.57,87.9763 2246.07,87.9763 2246.57,87.9763 2247.07,87.9763 2247.56,88.2376 2248.06,1431.8 2248.56,87.9763 2249.06,87.9763 2249.56,88.2223 2250.06,1128.05 2250.56,88.2402 2251.06,1445.37 2251.55,89.4334 2252.05,87.9788 2252.55,87.9763 2253.05,87.9763 2253.55,88.2376 2254.05,1431.8 2254.55,88.2249 2255.04,1138.29 2255.54,87.9763 2256.04,87.9763 2256.54,88.2389 2257.04,1438.59 2257.54,87.9763 2258.04,87.9763 2258.53,87.9763 2259.03,87.9763 2259.53,88.9605 2260.03,1443.87 2260.53,87.9763 2261.03,87.9763 2261.53,91.6187 2262.02,87.9891 2262.52,88.2389 2263.02,1438.59 2263.52,87.9763 2264.02,87.9763 2264.52,88.226 2265.02,1143.63 2265.51,88.2389 2266.01,1438.59 2266.51,88.7036 2267.01,87.9775 2267.51,87.9763 2268.01,87.9763 2268.51,88.2402 2269,1445.37 2269.5,88.2244 2270,1138.32 2270.5,87.9763 2271,87.9763 2271.5,88.2349 2272,1418.23 2272.5,87.9763 2272.99,87.9763 2273.49,87.9763 2273.99,87.9763 2274.49,89.6809 2274.99,1442.32 2275.49,87.9763 2275.99,87.9763 2276.48,88.68 2276.98,87.9787 2277.48,88.2403 2277.98,1445.38 2278.48,87.9763 2278.98,87.9763 2279.48,88.2132 2279.97,1122.19 2280.47,88.2349 2280.97,1418.23 2281.47,90.1531 2281.97,87.98 2282.47,87.9763 2282.97,87.9763 2283.46,88.2376 2283.96,1431.8 2284.46,88.225 2284.96,1143.48 2285.46,87.9763 2285.96,87.9763 2286.46,88.2389 2286.95,1438.59 2287.45,87.9763 2287.95,87.9763 2288.45,87.9763 2288.95,87.9763 2289.45,88.9605 2289.95,1443.87 2290.44,87.9763 2290.94,87.9763 2291.44,90.1612 2291.94,87.984 2292.44,88.2376 2292.94,1431.8 "/>
<path clip-path="url(#clip280)" d="M309.643 1438.47 L573.429 1438.47 L573.429 1334.79 L309.643 1334.79  Z" fill="#ffffff" fill-rule="evenodd" fill-opacity="1"/>
<polyline clip-path="url(#clip280)" style="stroke:#000000; stroke-linecap:round; stroke-linejoin:round; stroke-width:4; stroke-opacity:1; fill:none" points="309.643,1438.47 573.429,1438.47 573.429,1334.79 309.643,1334.79 309.643,1438.47 "/>
<polyline clip-path="url(#clip280)" style="stroke:#009af9; stroke-linecap:round; stroke-linejoin:round; stroke-width:4; stroke-opacity:1; fill:none" points="333.127,1386.63 474.031,1386.63 "/>
<path clip-path="url(#clip280)" d="M511.358 1406.32 Q509.552 1410.95 507.839 1412.36 Q506.126 1413.78 503.256 1413.78 L499.853 1413.78 L499.853 1410.21 L502.353 1410.21 Q504.112 1410.21 505.084 1409.38 Q506.057 1408.54 507.237 1405.44 L508.001 1403.5 L497.515 1377.99 L502.029 1377.99 L510.131 1398.27 L518.233 1377.99 L522.746 1377.99 L511.358 1406.32 Z" fill="#000000" fill-rule="nonzero" fill-opacity="1" /><path clip-path="url(#clip280)" d="M530.038 1399.98 L537.677 1399.98 L537.677 1373.61 L529.367 1375.28 L529.367 1371.02 L537.631 1369.35 L542.306 1369.35 L542.306 1399.98 L549.945 1399.98 L549.945 1403.91 L530.038 1403.91 L530.038 1399.98 Z" fill="#000000" fill-rule="nonzero" fill-opacity="1" /></svg>
