<?xml version="1.0" encoding="utf-8"?>
<svg xmlns="http://www.w3.org/2000/svg" xmlns:xlink="http://www.w3.org/1999/xlink" width="600" height="400" viewBox="0 0 2400 1600">
<defs>
  <clipPath id="clip360">
    <rect x="0" y="0" width="2400" height="1600"/>
  </clipPath>
</defs>
<path clip-path="url(#clip360)" d="M0 1600 L2400 1600 L2400 0 L0 0  Z" fill="#ffffff" fill-rule="evenodd" fill-opacity="1"/>
<defs>
  <clipPath id="clip361">
    <rect x="480" y="0" width="1681" height="1600"/>
  </clipPath>
</defs>
<path clip-path="url(#clip360)" d="M186.274 1486.45 L2352.76 1486.45 L2352.76 47.2441 L186.274 47.2441  Z" fill="#ffffff" fill-rule="evenodd" fill-opacity="1"/>
<defs>
  <clipPath id="clip362">
    <rect x="186" y="47" width="2167" height="1440"/>
  </clipPath>
</defs>
<polyline clip-path="url(#clip362)" style="stroke:#000000; stroke-linecap:round; stroke-linejoin:round; stroke-width:2; stroke-opacity:0.1; fill:none" points="226.945,1486.45 226.945,47.2441 "/>
<polyline clip-path="url(#clip362)" style="stroke:#000000; stroke-linecap:round; stroke-linejoin:round; stroke-width:2; stroke-opacity:0.1; fill:none" points="743.069,1486.45 743.069,47.2441 "/>
<polyline clip-path="url(#clip362)" style="stroke:#000000; stroke-linecap:round; stroke-linejoin:round; stroke-width:2; stroke-opacity:0.1; fill:none" points="1259.19,1486.45 1259.19,47.2441 "/>
<polyline clip-path="url(#clip362)" style="stroke:#000000; stroke-linecap:round; stroke-linejoin:round; stroke-width:2; stroke-opacity:0.1; fill:none" points="1775.32,1486.45 1775.32,47.2441 "/>
<polyline clip-path="url(#clip362)" style="stroke:#000000; stroke-linecap:round; stroke-linejoin:round; stroke-width:2; stroke-opacity:0.1; fill:none" points="2291.44,1486.45 2291.44,47.2441 "/>
<polyline clip-path="url(#clip360)" style="stroke:#000000; stroke-linecap:round; stroke-linejoin:round; stroke-width:4; stroke-opacity:1; fill:none" points="186.274,1486.45 2352.76,1486.45 "/>
<polyline clip-path="url(#clip360)" style="stroke:#000000; stroke-linecap:round; stroke-linejoin:round; stroke-width:4; stroke-opacity:1; fill:none" points="226.945,1486.45 226.945,1467.55 "/>
<polyline clip-path="url(#clip360)" style="stroke:#000000; stroke-linecap:round; stroke-linejoin:round; stroke-width:4; stroke-opacity:1; fill:none" points="743.069,1486.45 743.069,1467.55 "/>
<polyline clip-path="url(#clip360)" style="stroke:#000000; stroke-linecap:round; stroke-linejoin:round; stroke-width:4; stroke-opacity:1; fill:none" points="1259.19,1486.45 1259.19,1467.55 "/>
<polyline clip-path="url(#clip360)" style="stroke:#000000; stroke-linecap:round; stroke-linejoin:round; stroke-width:4; stroke-opacity:1; fill:none" points="1775.32,1486.45 1775.32,1467.55 "/>
<polyline clip-path="url(#clip360)" style="stroke:#000000; stroke-linecap:round; stroke-linejoin:round; stroke-width:4; stroke-opacity:1; fill:none" points="2291.44,1486.45 2291.44,1467.55 "/>
<path clip-path="url(#clip360)" d="M226.945 1517.37 Q223.333 1517.37 221.505 1520.93 Q219.699 1524.47 219.699 1531.6 Q219.699 1538.71 221.505 1542.27 Q223.333 1545.82 226.945 1545.82 Q230.579 1545.82 232.384 1542.27 Q234.213 1538.71 234.213 1531.6 Q234.213 1524.47 232.384 1520.93 Q230.579 1517.37 226.945 1517.37 M226.945 1513.66 Q232.755 1513.66 235.81 1518.27 Q238.889 1522.85 238.889 1531.6 Q238.889 1540.33 235.81 1544.94 Q232.755 1549.52 226.945 1549.52 Q221.134 1549.52 218.056 1544.94 Q215 1540.33 215 1531.6 Q215 1522.85 218.056 1518.27 Q221.134 1513.66 226.945 1513.66 Z" fill="#000000" fill-rule="nonzero" fill-opacity="1" /><path clip-path="url(#clip360)" d="M722.339 1544.91 L738.659 1544.91 L738.659 1548.85 L716.714 1548.85 L716.714 1544.91 Q719.377 1542.16 723.96 1537.53 Q728.566 1532.88 729.747 1531.53 Q731.992 1529.01 732.872 1527.27 Q733.775 1525.51 733.775 1523.82 Q733.775 1521.07 731.83 1519.33 Q729.909 1517.6 726.807 1517.6 Q724.608 1517.6 722.154 1518.36 Q719.724 1519.13 716.946 1520.68 L716.946 1515.95 Q719.77 1514.82 722.224 1514.24 Q724.677 1513.66 726.714 1513.66 Q732.085 1513.66 735.279 1516.35 Q738.474 1519.03 738.474 1523.52 Q738.474 1525.65 737.663 1527.57 Q736.876 1529.47 734.77 1532.07 Q734.191 1532.74 731.089 1535.95 Q727.988 1539.15 722.339 1544.91 Z" fill="#000000" fill-rule="nonzero" fill-opacity="1" /><path clip-path="url(#clip360)" d="M748.52 1514.29 L766.876 1514.29 L766.876 1518.22 L752.802 1518.22 L752.802 1526.7 Q753.821 1526.35 754.839 1526.19 Q755.858 1526 756.876 1526 Q762.663 1526 766.043 1529.17 Q769.423 1532.34 769.423 1537.76 Q769.423 1543.34 765.95 1546.44 Q762.478 1549.52 756.159 1549.52 Q753.983 1549.52 751.714 1549.15 Q749.469 1548.78 747.062 1548.04 L747.062 1543.34 Q749.145 1544.47 751.367 1545.03 Q753.589 1545.58 756.066 1545.58 Q760.071 1545.58 762.409 1543.48 Q764.747 1541.37 764.747 1537.76 Q764.747 1534.15 762.409 1532.04 Q760.071 1529.94 756.066 1529.94 Q754.191 1529.94 752.316 1530.35 Q750.464 1530.77 748.52 1531.65 L748.52 1514.29 Z" fill="#000000" fill-rule="nonzero" fill-opacity="1" /><path clip-path="url(#clip360)" d="M1233.89 1514.29 L1252.25 1514.29 L1252.25 1518.22 L1238.17 1518.22 L1238.17 1526.7 Q1239.19 1526.35 1240.21 1526.19 Q1241.23 1526 1242.25 1526 Q1248.04 1526 1251.41 1529.17 Q1254.79 1532.34 1254.79 1537.76 Q1254.79 1543.34 1251.32 1546.44 Q1247.85 1549.52 1241.53 1549.52 Q1239.35 1549.52 1237.09 1549.15 Q1234.84 1548.78 1232.43 1548.04 L1232.43 1543.34 Q1234.52 1544.47 1236.74 1545.03 Q1238.96 1545.58 1241.44 1545.58 Q1245.44 1545.58 1247.78 1543.48 Q1250.12 1541.37 1250.12 1537.76 Q1250.12 1534.15 1247.78 1532.04 Q1245.44 1529.94 1241.44 1529.94 Q1239.56 1529.94 1237.69 1530.35 Q1235.84 1530.77 1233.89 1531.65 L1233.89 1514.29 Z" fill="#000000" fill-rule="nonzero" fill-opacity="1" /><path clip-path="url(#clip360)" d="M1274.01 1517.37 Q1270.4 1517.37 1268.57 1520.93 Q1266.76 1524.47 1266.76 1531.6 Q1266.76 1538.71 1268.57 1542.27 Q1270.4 1545.82 1274.01 1545.82 Q1277.64 1545.82 1279.45 1542.27 Q1281.28 1538.71 1281.28 1531.6 Q1281.28 1524.47 1279.45 1520.93 Q1277.64 1517.37 1274.01 1517.37 M1274.01 1513.66 Q1279.82 1513.66 1282.87 1518.27 Q1285.95 1522.85 1285.95 1531.6 Q1285.95 1540.33 1282.87 1544.94 Q1279.82 1549.52 1274.01 1549.52 Q1268.2 1549.52 1265.12 1544.94 Q1262.06 1540.33 1262.06 1531.6 Q1262.06 1522.85 1265.12 1518.27 Q1268.2 1513.66 1274.01 1513.66 Z" fill="#000000" fill-rule="nonzero" fill-opacity="1" /><path clip-path="url(#clip360)" d="M1749.17 1514.29 L1771.39 1514.29 L1771.39 1516.28 L1758.85 1548.85 L1753.96 1548.85 L1765.77 1518.22 L1749.17 1518.22 L1749.17 1514.29 Z" fill="#000000" fill-rule="nonzero" fill-opacity="1" /><path clip-path="url(#clip360)" d="M1780.56 1514.29 L1798.92 1514.29 L1798.92 1518.22 L1784.84 1518.22 L1784.84 1526.7 Q1785.86 1526.35 1786.88 1526.19 Q1787.9 1526 1788.92 1526 Q1794.7 1526 1798.08 1529.17 Q1801.46 1532.34 1801.46 1537.76 Q1801.46 1543.34 1797.99 1546.44 Q1794.52 1549.52 1788.2 1549.52 Q1786.02 1549.52 1783.75 1549.15 Q1781.51 1548.78 1779.1 1548.04 L1779.1 1543.34 Q1781.18 1544.47 1783.41 1545.03 Q1785.63 1545.58 1788.11 1545.58 Q1792.11 1545.58 1794.45 1543.48 Q1796.79 1541.37 1796.79 1537.76 Q1796.79 1534.15 1794.45 1532.04 Q1792.11 1529.94 1788.11 1529.94 Q1786.23 1529.94 1784.36 1530.35 Q1782.5 1530.77 1780.56 1531.65 L1780.56 1514.29 Z" fill="#000000" fill-rule="nonzero" fill-opacity="1" /><path clip-path="url(#clip360)" d="M2251.05 1544.91 L2258.69 1544.91 L2258.69 1518.55 L2250.38 1520.21 L2250.38 1515.95 L2258.64 1514.29 L2263.32 1514.29 L2263.32 1544.91 L2270.95 1544.91 L2270.95 1548.85 L2251.05 1548.85 L2251.05 1544.91 Z" fill="#000000" fill-rule="nonzero" fill-opacity="1" /><path clip-path="url(#clip360)" d="M2290.4 1517.37 Q2286.79 1517.37 2284.96 1520.93 Q2283.15 1524.47 2283.15 1531.6 Q2283.15 1538.71 2284.96 1542.27 Q2286.79 1545.82 2290.4 1545.82 Q2294.03 1545.82 2295.84 1542.27 Q2297.67 1538.71 2297.67 1531.6 Q2297.67 1524.47 2295.84 1520.93 Q2294.03 1517.37 2290.4 1517.37 M2290.4 1513.66 Q2296.21 1513.66 2299.26 1518.27 Q2302.34 1522.85 2302.34 1531.6 Q2302.34 1540.33 2299.26 1544.94 Q2296.21 1549.52 2290.4 1549.52 Q2284.59 1549.52 2281.51 1544.94 Q2278.45 1540.33 2278.45 1531.6 Q2278.45 1522.85 2281.51 1518.27 Q2284.59 1513.66 2290.4 1513.66 Z" fill="#000000" fill-rule="nonzero" fill-opacity="1" /><path clip-path="url(#clip360)" d="M2320.56 1517.37 Q2316.95 1517.37 2315.12 1520.93 Q2313.32 1524.47 2313.32 1531.6 Q2313.32 1538.71 2315.12 1542.27 Q2316.95 1545.82 2320.56 1545.82 Q2324.19 1545.82 2326 1542.27 Q2327.83 1538.71 2327.83 1531.6 Q2327.83 1524.47 2326 1520.93 Q2324.19 1517.37 2320.56 1517.37 M2320.56 1513.66 Q2326.37 1513.66 2329.43 1518.27 Q2332.5 1522.85 2332.5 1531.6 Q2332.5 1540.33 2329.43 1544.94 Q2326.37 1549.52 2320.56 1549.52 Q2314.75 1549.52 2311.67 1544.94 Q2308.62 1540.33 2308.62 1531.6 Q2308.62 1522.85 2311.67 1518.27 Q2314.75 1513.66 2320.56 1513.66 Z" fill="#000000" fill-rule="nonzero" fill-opacity="1" /><polyline clip-path="url(#clip362)" style="stroke:#000000; stroke-linecap:round; stroke-linejoin:round; stroke-width:2; stroke-opacity:0.1; fill:none" points="186.274,1445.72 2352.76,1445.72 "/>
<polyline clip-path="url(#clip362)" style="stroke:#000000; stroke-linecap:round; stroke-linejoin:round; stroke-width:2; stroke-opacity:0.1; fill:none" points="186.274,1106.28 2352.76,1106.28 "/>
<polyline clip-path="url(#clip362)" style="stroke:#000000; stroke-linecap:round; stroke-linejoin:round; stroke-width:2; stroke-opacity:0.1; fill:none" points="186.274,766.846 2352.76,766.846 "/>
<polyline clip-path="url(#clip362)" style="stroke:#000000; stroke-linecap:round; stroke-linejoin:round; stroke-width:2; stroke-opacity:0.1; fill:none" points="186.274,427.411 2352.76,427.411 "/>
<polyline clip-path="url(#clip362)" style="stroke:#000000; stroke-linecap:round; stroke-linejoin:round; stroke-width:2; stroke-opacity:0.1; fill:none" points="186.274,87.9763 2352.76,87.9763 "/>
<polyline clip-path="url(#clip360)" style="stroke:#000000; stroke-linecap:round; stroke-linejoin:round; stroke-width:4; stroke-opacity:1; fill:none" points="186.274,1486.45 186.274,47.2441 "/>
<polyline clip-path="url(#clip360)" style="stroke:#000000; stroke-linecap:round; stroke-linejoin:round; stroke-width:4; stroke-opacity:1; fill:none" points="186.274,1445.72 205.172,1445.72 "/>
<polyline clip-path="url(#clip360)" style="stroke:#000000; stroke-linecap:round; stroke-linejoin:round; stroke-width:4; stroke-opacity:1; fill:none" points="186.274,1106.28 205.172,1106.28 "/>
<polyline clip-path="url(#clip360)" style="stroke:#000000; stroke-linecap:round; stroke-linejoin:round; stroke-width:4; stroke-opacity:1; fill:none" points="186.274,766.846 205.172,766.846 "/>
<polyline clip-path="url(#clip360)" style="stroke:#000000; stroke-linecap:round; stroke-linejoin:round; stroke-width:4; stroke-opacity:1; fill:none" points="186.274,427.411 205.172,427.411 "/>
<polyline clip-path="url(#clip360)" style="stroke:#000000; stroke-linecap:round; stroke-linejoin:round; stroke-width:4; stroke-opacity:1; fill:none" points="186.274,87.9763 205.172,87.9763 "/>
<path clip-path="url(#clip360)" d="M62.9365 1431.51 Q59.3254 1431.51 57.4967 1435.08 Q55.6912 1438.62 55.6912 1445.75 Q55.6912 1452.86 57.4967 1456.42 Q59.3254 1459.96 62.9365 1459.96 Q66.5707 1459.96 68.3763 1456.42 Q70.205 1452.86 70.205 1445.75 Q70.205 1438.62 68.3763 1435.08 Q66.5707 1431.51 62.9365 1431.51 M62.9365 1427.81 Q68.7467 1427.81 71.8022 1432.42 Q74.8809 1437 74.8809 1445.75 Q74.8809 1454.48 71.8022 1459.08 Q68.7467 1463.67 62.9365 1463.67 Q57.1264 1463.67 54.0477 1459.08 Q50.9921 1454.48 50.9921 1445.75 Q50.9921 1437 54.0477 1432.42 Q57.1264 1427.81 62.9365 1427.81 Z" fill="#000000" fill-rule="nonzero" fill-opacity="1" /><path clip-path="url(#clip360)" d="M83.0984 1457.12 L87.9827 1457.12 L87.9827 1463 L83.0984 1463 L83.0984 1457.12 Z" fill="#000000" fill-rule="nonzero" fill-opacity="1" /><path clip-path="url(#clip360)" d="M108.168 1431.51 Q104.557 1431.51 102.728 1435.08 Q100.922 1438.62 100.922 1445.75 Q100.922 1452.86 102.728 1456.42 Q104.557 1459.96 108.168 1459.96 Q111.802 1459.96 113.608 1456.42 Q115.436 1452.86 115.436 1445.75 Q115.436 1438.62 113.608 1435.08 Q111.802 1431.51 108.168 1431.51 M108.168 1427.81 Q113.978 1427.81 117.033 1432.42 Q120.112 1437 120.112 1445.75 Q120.112 1454.48 117.033 1459.08 Q113.978 1463.67 108.168 1463.67 Q102.358 1463.67 99.2789 1459.08 Q96.2234 1454.48 96.2234 1445.75 Q96.2234 1437 99.2789 1432.42 Q102.358 1427.81 108.168 1427.81 Z" fill="#000000" fill-rule="nonzero" fill-opacity="1" /><path clip-path="url(#clip360)" d="M138.33 1431.51 Q134.719 1431.51 132.89 1435.08 Q131.084 1438.62 131.084 1445.75 Q131.084 1452.86 132.89 1456.42 Q134.719 1459.96 138.33 1459.96 Q141.964 1459.96 143.769 1456.42 Q145.598 1452.86 145.598 1445.75 Q145.598 1438.62 143.769 1435.08 Q141.964 1431.51 138.33 1431.51 M138.33 1427.81 Q144.14 1427.81 147.195 1432.42 Q150.274 1437 150.274 1445.75 Q150.274 1454.48 147.195 1459.08 Q144.14 1463.67 138.33 1463.67 Q132.519 1463.67 129.441 1459.08 Q126.385 1454.48 126.385 1445.75 Q126.385 1437 129.441 1432.42 Q132.519 1427.81 138.33 1427.81 Z" fill="#000000" fill-rule="nonzero" fill-opacity="1" /><path clip-path="url(#clip360)" d="M63.9319 1092.08 Q60.3208 1092.08 58.4921 1095.64 Q56.6865 1099.19 56.6865 1106.32 Q56.6865 1113.42 58.4921 1116.99 Q60.3208 1120.53 63.9319 1120.53 Q67.5661 1120.53 69.3717 1116.99 Q71.2004 1113.42 71.2004 1106.32 Q71.2004 1099.19 69.3717 1095.64 Q67.5661 1092.08 63.9319 1092.08 M63.9319 1088.38 Q69.742 1088.38 72.7976 1092.98 Q75.8763 1097.57 75.8763 1106.32 Q75.8763 1115.04 72.7976 1119.65 Q69.742 1124.23 63.9319 1124.23 Q58.1217 1124.23 55.043 1119.65 Q51.9875 1115.04 51.9875 1106.32 Q51.9875 1097.57 55.043 1092.98 Q58.1217 1088.38 63.9319 1088.38 Z" fill="#000000" fill-rule="nonzero" fill-opacity="1" /><path clip-path="url(#clip360)" d="M84.0938 1117.68 L88.978 1117.68 L88.978 1123.56 L84.0938 1123.56 L84.0938 1117.68 Z" fill="#000000" fill-rule="nonzero" fill-opacity="1" /><path clip-path="url(#clip360)" d="M103.191 1119.63 L119.51 1119.63 L119.51 1123.56 L97.566 1123.56 L97.566 1119.63 Q100.228 1116.87 104.811 1112.24 Q109.418 1107.59 110.598 1106.25 Q112.844 1103.72 113.723 1101.99 Q114.626 1100.23 114.626 1098.54 Q114.626 1095.78 112.682 1094.05 Q110.76 1092.31 107.658 1092.31 Q105.459 1092.31 103.006 1093.07 Q100.575 1093.84 97.7974 1095.39 L97.7974 1090.67 Q100.621 1089.53 103.075 1088.95 Q105.529 1088.38 107.566 1088.38 Q112.936 1088.38 116.131 1091.06 Q119.325 1093.75 119.325 1098.24 Q119.325 1100.37 118.515 1102.29 Q117.728 1104.19 115.621 1106.78 Q115.043 1107.45 111.941 1110.67 Q108.839 1113.86 103.191 1119.63 Z" fill="#000000" fill-rule="nonzero" fill-opacity="1" /><path clip-path="url(#clip360)" d="M129.371 1089 L147.728 1089 L147.728 1092.94 L133.654 1092.94 L133.654 1101.41 Q134.672 1101.06 135.691 1100.9 Q136.709 1100.71 137.728 1100.71 Q143.515 1100.71 146.894 1103.89 Q150.274 1107.06 150.274 1112.47 Q150.274 1118.05 146.802 1121.15 Q143.33 1124.23 137.01 1124.23 Q134.834 1124.23 132.566 1123.86 Q130.32 1123.49 127.913 1122.75 L127.913 1118.05 Q129.996 1119.19 132.219 1119.74 Q134.441 1120.3 136.918 1120.3 Q140.922 1120.3 143.26 1118.19 Q145.598 1116.08 145.598 1112.47 Q145.598 1108.86 143.26 1106.76 Q140.922 1104.65 136.918 1104.65 Q135.043 1104.65 133.168 1105.07 Q131.316 1105.48 129.371 1106.36 L129.371 1089 Z" fill="#000000" fill-rule="nonzero" fill-opacity="1" /><path clip-path="url(#clip360)" d="M62.9365 752.645 Q59.3254 752.645 57.4967 756.209 Q55.6912 759.751 55.6912 766.881 Q55.6912 773.987 57.4967 777.552 Q59.3254 781.094 62.9365 781.094 Q66.5707 781.094 68.3763 777.552 Q70.205 773.987 70.205 766.881 Q70.205 759.751 68.3763 756.209 Q66.5707 752.645 62.9365 752.645 M62.9365 748.941 Q68.7467 748.941 71.8022 753.547 Q74.8809 758.131 74.8809 766.881 Q74.8809 775.608 71.8022 780.214 Q68.7467 784.797 62.9365 784.797 Q57.1264 784.797 54.0477 780.214 Q50.9921 775.608 50.9921 766.881 Q50.9921 758.131 54.0477 753.547 Q57.1264 748.941 62.9365 748.941 Z" fill="#000000" fill-rule="nonzero" fill-opacity="1" /><path clip-path="url(#clip360)" d="M83.0984 778.246 L87.9827 778.246 L87.9827 784.126 L83.0984 784.126 L83.0984 778.246 Z" fill="#000000" fill-rule="nonzero" fill-opacity="1" /><path clip-path="url(#clip360)" d="M98.2141 749.566 L116.57 749.566 L116.57 753.501 L102.496 753.501 L102.496 761.973 Q103.515 761.626 104.534 761.464 Q105.552 761.279 106.571 761.279 Q112.358 761.279 115.737 764.45 Q119.117 767.621 119.117 773.038 Q119.117 778.617 115.645 781.719 Q112.172 784.797 105.853 784.797 Q103.677 784.797 101.409 784.427 Q99.1632 784.057 96.7558 783.316 L96.7558 778.617 Q98.8391 779.751 101.061 780.307 Q103.284 780.862 105.76 780.862 Q109.765 780.862 112.103 778.756 Q114.441 776.649 114.441 773.038 Q114.441 769.427 112.103 767.321 Q109.765 765.214 105.76 765.214 Q103.885 765.214 102.01 765.631 Q100.159 766.047 98.2141 766.927 L98.2141 749.566 Z" fill="#000000" fill-rule="nonzero" fill-opacity="1" /><path clip-path="url(#clip360)" d="M138.33 752.645 Q134.719 752.645 132.89 756.209 Q131.084 759.751 131.084 766.881 Q131.084 773.987 132.89 777.552 Q134.719 781.094 138.33 781.094 Q141.964 781.094 143.769 777.552 Q145.598 773.987 145.598 766.881 Q145.598 759.751 143.769 756.209 Q141.964 752.645 138.33 752.645 M138.33 748.941 Q144.14 748.941 147.195 753.547 Q150.274 758.131 150.274 766.881 Q150.274 775.608 147.195 780.214 Q144.14 784.797 138.33 784.797 Q132.519 784.797 129.441 780.214 Q126.385 775.608 126.385 766.881 Q126.385 758.131 129.441 753.547 Q132.519 748.941 138.33 748.941 Z" fill="#000000" fill-rule="nonzero" fill-opacity="1" /><path clip-path="url(#clip360)" d="M63.9319 413.21 Q60.3208 413.21 58.4921 416.775 Q56.6865 420.316 56.6865 427.446 Q56.6865 434.552 58.4921 438.117 Q60.3208 441.659 63.9319 441.659 Q67.5661 441.659 69.3717 438.117 Q71.2004 434.552 71.2004 427.446 Q71.2004 420.316 69.3717 416.775 Q67.5661 413.21 63.9319 413.21 M63.9319 409.506 Q69.742 409.506 72.7976 414.113 Q75.8763 418.696 75.8763 427.446 Q75.8763 436.173 72.7976 440.779 Q69.742 445.362 63.9319 445.362 Q58.1217 445.362 55.043 440.779 Q51.9875 436.173 51.9875 427.446 Q51.9875 418.696 55.043 414.113 Q58.1217 409.506 63.9319 409.506 Z" fill="#000000" fill-rule="nonzero" fill-opacity="1" /><path clip-path="url(#clip360)" d="M84.0938 438.812 L88.978 438.812 L88.978 444.691 L84.0938 444.691 L84.0938 438.812 Z" fill="#000000" fill-rule="nonzero" fill-opacity="1" /><path clip-path="url(#clip360)" d="M97.9826 410.131 L120.205 410.131 L120.205 412.122 L107.658 444.691 L102.774 444.691 L114.58 414.066 L97.9826 414.066 L97.9826 410.131 Z" fill="#000000" fill-rule="nonzero" fill-opacity="1" /><path clip-path="url(#clip360)" d="M129.371 410.131 L147.728 410.131 L147.728 414.066 L133.654 414.066 L133.654 422.538 Q134.672 422.191 135.691 422.029 Q136.709 421.844 137.728 421.844 Q143.515 421.844 146.894 425.015 Q150.274 428.187 150.274 433.603 Q150.274 439.182 146.802 442.284 Q143.33 445.362 137.01 445.362 Q134.834 445.362 132.566 444.992 Q130.32 444.622 127.913 443.881 L127.913 439.182 Q129.996 440.316 132.219 440.872 Q134.441 441.427 136.918 441.427 Q140.922 441.427 143.26 439.321 Q145.598 437.214 145.598 433.603 Q145.598 429.992 143.26 427.886 Q140.922 425.779 136.918 425.779 Q135.043 425.779 133.168 426.196 Q131.316 426.613 129.371 427.492 L129.371 410.131 Z" fill="#000000" fill-rule="nonzero" fill-opacity="1" /><path clip-path="url(#clip360)" d="M53.7467 101.321 L61.3856 101.321 L61.3856 74.9555 L53.0754 76.6222 L53.0754 72.3629 L61.3393 70.6963 L66.0152 70.6963 L66.0152 101.321 L73.654 101.321 L73.654 105.256 L53.7467 105.256 L53.7467 101.321 Z" fill="#000000" fill-rule="nonzero" fill-opacity="1" /><path clip-path="url(#clip360)" d="M83.0984 99.3767 L87.9827 99.3767 L87.9827 105.256 L83.0984 105.256 L83.0984 99.3767 Z" fill="#000000" fill-rule="nonzero" fill-opacity="1" /><path clip-path="url(#clip360)" d="M108.168 73.775 Q104.557 73.775 102.728 77.3398 Q100.922 80.8814 100.922 88.011 Q100.922 95.1174 102.728 98.6822 Q104.557 102.224 108.168 102.224 Q111.802 102.224 113.608 98.6822 Q115.436 95.1174 115.436 88.011 Q115.436 80.8814 113.608 77.3398 Q111.802 73.775 108.168 73.775 M108.168 70.0713 Q113.978 70.0713 117.033 74.6777 Q120.112 79.261 120.112 88.011 Q120.112 96.7378 117.033 101.344 Q113.978 105.928 108.168 105.928 Q102.358 105.928 99.2789 101.344 Q96.2234 96.7378 96.2234 88.011 Q96.2234 79.261 99.2789 74.6777 Q102.358 70.0713 108.168 70.0713 Z" fill="#000000" fill-rule="nonzero" fill-opacity="1" /><path clip-path="url(#clip360)" d="M138.33 73.775 Q134.719 73.775 132.89 77.3398 Q131.084 80.8814 131.084 88.011 Q131.084 95.1174 132.89 98.6822 Q134.719 102.224 138.33 102.224 Q141.964 102.224 143.769 98.6822 Q145.598 95.1174 145.598 88.011 Q145.598 80.8814 143.769 77.3398 Q141.964 73.775 138.33 73.775 M138.33 70.0713 Q144.14 70.0713 147.195 74.6777 Q150.274 79.261 150.274 88.011 Q150.274 96.7378 147.195 101.344 Q144.14 105.928 138.33 105.928 Q132.519 105.928 129.441 101.344 Q126.385 96.7378 126.385 88.011 Q126.385 79.261 129.441 74.6777 Q132.519 70.0713 138.33 70.0713 Z" fill="#000000" fill-rule="nonzero" fill-opacity="1" /><path clip-path="url(#clip362)" d="M247.59 1427.78 L268.234 1425.7 L288.879 1425.67 L309.524 1425.63 L330.169 1425.61 L350.814 1425.58 L371.459 1425.54 L392.104 1425.51 L412.749 1425.47 L433.394 1425.44 L454.039 1425.41 L474.684 1425.38 L495.329 1425.35 L515.974 1425.32 L536.619 1425.27 L557.264 1425.24 L577.909 1425.21 L598.554 1425.19 L619.199 1425.14 L639.844 1425.1 L660.489 1425.08 L681.134 1425.03 L701.779 1425.01 L722.424 1424.98 L743.069 1424.94 L763.713 1424.91 L784.358 1424.88 L805.003 1424.86 L825.648 1424.82 L846.293 1424.79 L866.938 1424.76 L887.583 1424.73 L908.228 1424.69 L928.873 1424.67 L949.518 1424.64 L970.163 1424.6 L990.808 1424.56 L1011.45 1424.52 L1032.1 1424.49 L1052.74 1424.45 L1073.39 1424.41 L1094.03 1424.38 L1114.68 1424.34 L1135.32 1424.3 L1155.97 1424.28 L1176.61 1424.25 L1197.26 1424.21 L1217.9 1424.17 L1238.55 1424.14 L1259.19 1424.11 L1279.84 1424.07 L1300.48 1424.03 L1321.13 1423.99 L1341.77 1423.97 L1362.42 1423.93 L1383.06 1423.89 L1403.71 1423.86 L1424.35 1423.83 L1445 1423.8 L1465.64 1423.76 L1486.29 1423.73 L1506.93 1423.7 L1527.58 1423.66 L1548.22 1423.63 L1568.87 1423.6 L1589.51 1423.57 L1610.16 1423.54 L1630.8 1423.5 L1651.45 1423.46 L1672.09 1423.43 L1692.74 1423.4 L1713.38 1423.35 L1734.03 1423.31 L1754.67 1423.29 L1775.32 1423.25 L1795.96 1423.2 L1816.61 1423.17 L1837.25 1423.14 L1857.9 1423.1 L1878.54 1423.07 L1899.19 1423.04 L1919.83 1423.01 L1940.48 1422.97 L1961.12 1422.94 L1981.77 1422.9 L2002.41 1422.87 L2023.06 1422.84 L2043.7 1422.8 L2064.35 1422.75 L2084.99 1422.71 L2105.64 1422.68 L2126.28 1422.63 L2146.93 1422.59 L2167.57 1422.56 L2188.22 1422.51 L2208.86 1422.49 L2229.51 1422.45 L2250.15 1422.41 L2270.8 1422.35 L2291.44 1422.31 L2291.44 1445.72 L2270.8 1445.72 L2250.15 1445.72 L2229.51 1445.72 L2208.86 1445.72 L2188.22 1445.72 L2167.57 1445.72 L2146.93 1445.72 L2126.28 1445.72 L2105.64 1445.72 L2084.99 1445.72 L2064.35 1445.72 L2043.7 1445.72 L2023.06 1445.72 L2002.41 1445.72 L1981.77 1445.72 L1961.12 1445.72 L1940.48 1445.72 L1919.83 1445.72 L1899.19 1445.72 L1878.54 1445.72 L1857.9 1445.72 L1837.25 1445.72 L1816.61 1445.72 L1795.96 1445.72 L1775.32 1445.72 L1754.67 1445.72 L1734.03 1445.72 L1713.38 1445.72 L1692.74 1445.72 L1672.09 1445.72 L1651.45 1445.72 L1630.8 1445.72 L1610.16 1445.72 L1589.51 1445.72 L1568.87 1445.72 L1548.22 1445.72 L1527.58 1445.72 L1506.93 1445.72 L1486.29 1445.72 L1465.64 1445.72 L1445 1445.72 L1424.35 1445.72 L1403.71 1445.72 L1383.06 1445.72 L1362.42 1445.72 L1341.77 1445.72 L1321.13 1445.72 L1300.48 1445.72 L1279.84 1445.72 L1259.19 1445.72 L1238.55 1445.72 L1217.9 1445.72 L1197.26 1445.72 L1176.61 1445.72 L1155.97 1445.72 L1135.32 1445.72 L1114.68 1445.72 L1094.03 1445.72 L1073.39 1445.72 L1052.74 1445.72 L1032.1 1445.72 L1011.45 1445.72 L990.808 1445.72 L970.163 1445.72 L949.518 1445.72 L928.873 1445.72 L908.228 1445.72 L887.583 1445.72 L866.938 1445.72 L846.293 1445.72 L825.648 1445.72 L805.003 1445.72 L784.358 1445.72 L763.713 1445.72 L743.069 1445.72 L722.424 1445.72 L701.779 1445.72 L681.134 1445.72 L660.489 1445.72 L639.844 1445.72 L619.199 1445.72 L598.554 1445.72 L577.909 1445.72 L557.264 1445.72 L536.619 1445.72 L515.974 1445.72 L495.329 1445.72 L474.684 1445.72 L454.039 1445.72 L433.394 1445.72 L412.749 1445.72 L392.104 1445.72 L371.459 1445.72 L350.814 1445.72 L330.169 1445.72 L309.524 1445.72 L288.879 1445.72 L268.234 1445.72 L247.59 1445.72  Z" fill="#032333" fill-rule="evenodd" fill-opacity="1"/>
<polyline clip-path="url(#clip362)" style="stroke:#032333; stroke-linecap:round; stroke-linejoin:round; stroke-width:4; stroke-opacity:1; fill:none" points="247.59,1427.78 268.234,1425.7 288.879,1425.67 309.524,1425.63 330.169,1425.61 350.814,1425.58 371.459,1425.54 392.104,1425.51 412.749,1425.47 433.394,1425.44 454.039,1425.41 474.684,1425.38 495.329,1425.35 515.974,1425.32 536.619,1425.27 557.264,1425.24 577.909,1425.21 598.554,1425.19 619.199,1425.14 639.844,1425.1 660.489,1425.08 681.134,1425.03 701.779,1425.01 722.424,1424.98 743.069,1424.94 763.713,1424.91 784.358,1424.88 805.003,1424.86 825.648,1424.82 846.293,1424.79 866.938,1424.76 887.583,1424.73 908.228,1424.69 928.873,1424.67 949.518,1424.64 970.163,1424.6 990.808,1424.56 1011.45,1424.52 1032.1,1424.49 1052.74,1424.45 1073.39,1424.41 1094.03,1424.38 1114.68,1424.34 1135.32,1424.3 1155.97,1424.28 1176.61,1424.25 1197.26,1424.21 1217.9,1424.17 1238.55,1424.14 1259.19,1424.11 1279.84,1424.07 1300.48,1424.03 1321.13,1423.99 1341.77,1423.97 1362.42,1423.93 1383.06,1423.89 1403.71,1423.86 1424.35,1423.83 1445,1423.8 1465.64,1423.76 1486.29,1423.73 1506.93,1423.7 1527.58,1423.66 1548.22,1423.63 1568.87,1423.6 1589.51,1423.57 1610.16,1423.54 1630.8,1423.5 1651.45,1423.46 1672.09,1423.43 1692.74,1423.4 1713.38,1423.35 1734.03,1423.31 1754.67,1423.29 1775.32,1423.25 1795.96,1423.2 1816.61,1423.17 1837.25,1423.14 1857.9,1423.1 1878.54,1423.07 1899.19,1423.04 1919.83,1423.01 1940.48,1422.97 1961.12,1422.94 1981.77,1422.9 2002.41,1422.87 2023.06,1422.84 2043.7,1422.8 2064.35,1422.75 2084.99,1422.71 2105.64,1422.68 2126.28,1422.63 2146.93,1422.59 2167.57,1422.56 2188.22,1422.51 2208.86,1422.49 2229.51,1422.45 2250.15,1422.41 2270.8,1422.35 2291.44,1422.31 "/>
<path clip-path="url(#clip362)" d="M247.59 1424.25 L268.234 1421.75 L288.879 1421.71 L309.524 1421.67 L330.169 1421.63 L350.814 1421.59 L371.459 1421.54 L392.104 1421.5 L412.749 1421.46 L433.394 1421.41 L454.039 1421.37 L474.684 1421.33 L495.329 1421.29 L515.974 1421.24 L536.619 1421.19 L557.264 1421.14 L577.909 1421.1 L598.554 1421.07 L619.199 1421.01 L639.844 1420.96 L660.489 1420.92 L681.134 1420.86 L701.779 1420.82 L722.424 1420.79 L743.069 1420.74 L763.713 1420.7 L784.358 1420.66 L805.003 1420.62 L825.648 1420.57 L846.293 1420.53 L866.938 1420.49 L887.583 1420.44 L908.228 1420.39 L928.873 1420.36 L949.518 1420.31 L970.163 1420.26 L990.808 1420.22 L1011.45 1420.16 L1032.1 1420.11 L1052.74 1420.07 L1073.39 1420.01 L1094.03 1419.96 L1114.68 1419.91 L1135.32 1419.87 L1155.97 1419.83 L1176.61 1419.79 L1197.26 1419.74 L1217.9 1419.68 L1238.55 1419.65 L1259.19 1419.6 L1279.84 1419.55 L1300.48 1419.5 L1321.13 1419.45 L1341.77 1419.42 L1362.42 1419.37 L1383.06 1419.32 L1403.71 1419.27 L1424.35 1419.23 L1445 1419.19 L1465.64 1419.13 L1486.29 1419.1 L1506.93 1419.05 L1527.58 1419 L1548.22 1418.95 L1568.87 1418.92 L1589.51 1418.87 L1610.16 1418.83 L1630.8 1418.78 L1651.45 1418.72 L1672.09 1418.69 L1692.74 1418.63 L1713.38 1418.58 L1734.03 1418.53 L1754.67 1418.49 L1775.32 1418.44 L1795.96 1418.38 L1816.61 1418.33 L1837.25 1418.3 L1857.9 1418.24 L1878.54 1418.19 L1899.19 1418.16 L1919.83 1418.11 L1940.48 1418.06 L1961.12 1418.01 L1981.77 1417.96 L2002.41 1417.92 L2023.06 1417.87 L2043.7 1417.81 L2064.35 1417.75 L2084.99 1417.7 L2105.64 1417.65 L2126.28 1417.59 L2146.93 1417.53 L2167.57 1417.48 L2188.22 1417.42 L2208.86 1417.38 L2229.51 1417.33 L2250.15 1417.27 L2270.8 1417.2 L2291.44 1417.14 L2291.44 1422.31 L2270.8 1422.35 L2250.15 1422.41 L2229.51 1422.45 L2208.86 1422.49 L2188.22 1422.51 L2167.57 1422.56 L2146.93 1422.59 L2126.28 1422.63 L2105.64 1422.68 L2084.99 1422.71 L2064.35 1422.75 L2043.7 1422.8 L2023.06 1422.84 L2002.41 1422.87 L1981.77 1422.9 L1961.12 1422.94 L1940.48 1422.97 L1919.83 1423.01 L1899.19 1423.04 L1878.54 1423.07 L1857.9 1423.1 L1837.25 1423.14 L1816.61 1423.17 L1795.96 1423.2 L1775.32 1423.25 L1754.67 1423.29 L1734.03 1423.31 L1713.38 1423.35 L1692.74 1423.4 L1672.09 1423.43 L1651.45 1423.46 L1630.8 1423.5 L1610.16 1423.54 L1589.51 1423.57 L1568.87 1423.6 L1548.22 1423.63 L1527.58 1423.66 L1506.93 1423.7 L1486.29 1423.73 L1465.64 1423.76 L1445 1423.8 L1424.35 1423.83 L1403.71 1423.86 L1383.06 1423.89 L1362.42 1423.93 L1341.77 1423.97 L1321.13 1423.99 L1300.48 1424.03 L1279.84 1424.07 L1259.19 1424.11 L1238.55 1424.14 L1217.9 1424.17 L1197.26 1424.21 L1176.61 1424.25 L1155.97 1424.28 L1135.32 1424.3 L1114.68 1424.34 L1094.03 1424.38 L1073.39 1424.41 L1052.74 1424.45 L1032.1 1424.49 L1011.45 1424.52 L990.808 1424.56 L970.163 1424.6 L949.518 1424.64 L928.873 1424.67 L908.228 1424.69 L887.583 1424.73 L866.938 1424.76 L846.293 1424.79 L825.648 1424.82 L805.003 1424.86 L784.358 1424.88 L763.713 1424.91 L743.069 1424.94 L722.424 1424.98 L701.779 1425.01 L681.134 1425.03 L660.489 1425.08 L639.844 1425.1 L619.199 1425.14 L598.554 1425.19 L577.909 1425.21 L557.264 1425.24 L536.619 1425.27 L515.974 1425.32 L495.329 1425.35 L474.684 1425.38 L454.039 1425.41 L433.394 1425.44 L412.749 1425.47 L392.104 1425.51 L371.459 1425.54 L350.814 1425.58 L330.169 1425.61 L309.524 1425.63 L288.879 1425.67 L268.234 1425.7 L247.59 1427.78  Z" fill="#e7fa5a" fill-rule="evenodd" fill-opacity="1"/>
<polyline clip-path="url(#clip362)" style="stroke:#e7fa5a; stroke-linecap:round; stroke-linejoin:round; stroke-width:4; stroke-opacity:1; fill:none" points="247.59,1424.25 268.234,1421.75 288.879,1421.71 309.524,1421.67 330.169,1421.63 350.814,1421.59 371.459,1421.54 392.104,1421.5 412.749,1421.46 433.394,1421.41 454.039,1421.37 474.684,1421.33 495.329,1421.29 515.974,1421.24 536.619,1421.19 557.264,1421.14 577.909,1421.1 598.554,1421.07 619.199,1421.01 639.844,1420.96 660.489,1420.92 681.134,1420.86 701.779,1420.82 722.424,1420.79 743.069,1420.74 763.713,1420.7 784.358,1420.66 805.003,1420.62 825.648,1420.57 846.293,1420.53 866.938,1420.49 887.583,1420.44 908.228,1420.39 928.873,1420.36 949.518,1420.31 970.163,1420.26 990.808,1420.22 1011.45,1420.16 1032.1,1420.11 1052.74,1420.07 1073.39,1420.01 1094.03,1419.96 1114.68,1419.91 1135.32,1419.87 1155.97,1419.83 1176.61,1419.79 1197.26,1419.74 1217.9,1419.68 1238.55,1419.65 1259.19,1419.6 1279.84,1419.55 1300.48,1419.5 1321.13,1419.45 1341.77,1419.42 1362.42,1419.37 1383.06,1419.32 1403.71,1419.27 1424.35,1419.23 1445,1419.19 1465.64,1419.13 1486.29,1419.1 1506.93,1419.05 1527.58,1419 1548.22,1418.95 1568.87,1418.92 1589.51,1418.87 1610.16,1418.83 1630.8,1418.78 1651.45,1418.72 1672.09,1418.69 1692.74,1418.63 1713.38,1418.58 1734.03,1418.53 1754.67,1418.49 1775.32,1418.44 1795.96,1418.38 1816.61,1418.33 1837.25,1418.3 1857.9,1418.24 1878.54,1418.19 1899.19,1418.16 1919.83,1418.11 1940.48,1418.06 1961.12,1418.01 1981.77,1417.96 2002.41,1417.92 2023.06,1417.87 2043.7,1417.81 2064.35,1417.75 2084.99,1417.7 2105.64,1417.65 2126.28,1417.59 2146.93,1417.53 2167.57,1417.48 2188.22,1417.42 2208.86,1417.38 2229.51,1417.33 2250.15,1417.27 2270.8,1417.2 2291.44,1417.14 "/>
<path clip-path="url(#clip362)" d="M247.59 1242.15 L268.234 1241.57 L288.879 1241.43 L309.524 1241.3 L330.169 1241.16 L350.814 1240.98 L371.459 1240.77 L392.104 1240.63 L412.749 1240.47 L433.394 1240.3 L454.039 1240.21 L474.684 1240.07 L495.329 1239.89 L515.974 1239.79 L536.619 1239.57 L557.264 1239.41 L577.909 1239.26 L598.554 1239.17 L619.199 1238.95 L639.844 1238.82 L660.489 1238.67 L681.134 1238.48 L701.779 1238.33 L722.424 1238.21 L743.069 1238.03 L763.713 1237.83 L784.358 1237.67 L805.003 1237.59 L825.648 1237.41 L846.293 1237.27 L866.938 1237.06 L887.583 1236.9 L908.228 1236.74 L928.873 1236.59 L949.518 1236.49 L970.163 1236.31 L990.808 1236.15 L1011.45 1235.98 L1032.1 1235.79 L1052.74 1235.63 L1073.39 1235.47 L1094.03 1235.26 L1114.68 1235.06 L1135.32 1234.9 L1155.97 1234.77 L1176.61 1234.65 L1197.26 1234.52 L1217.9 1234.3 L1238.55 1234.2 L1259.19 1234.01 L1279.84 1233.85 L1300.48 1233.64 L1321.13 1233.47 L1341.77 1233.34 L1362.42 1233.19 L1383.06 1233.03 L1403.71 1232.88 L1424.35 1232.72 L1445 1232.59 L1465.64 1232.34 L1486.29 1232.23 L1506.93 1232.08 L1527.58 1231.93 L1548.22 1231.77 L1568.87 1231.64 L1589.51 1231.48 L1610.16 1231.3 L1630.8 1231.11 L1651.45 1230.99 L1672.09 1230.88 L1692.74 1230.71 L1713.38 1230.49 L1734.03 1230.37 L1754.67 1230.22 L1775.32 1230.02 L1795.96 1229.8 L1816.61 1229.6 L1837.25 1229.55 L1857.9 1229.38 L1878.54 1229.24 L1899.19 1229.08 L1919.83 1228.98 L1940.48 1228.78 L1961.12 1228.59 L1981.77 1228.36 L2002.41 1228.23 L2023.06 1228 L2043.7 1227.84 L2064.35 1227.64 L2084.99 1227.43 L2105.64 1227.3 L2126.28 1227.15 L2146.93 1226.93 L2167.57 1226.82 L2188.22 1226.68 L2208.86 1226.54 L2229.51 1226.38 L2250.15 1226.22 L2270.8 1225.97 L2291.44 1225.79 L2291.44 1417.14 L2270.8 1417.2 L2250.15 1417.27 L2229.51 1417.33 L2208.86 1417.38 L2188.22 1417.42 L2167.57 1417.48 L2146.93 1417.53 L2126.28 1417.59 L2105.64 1417.65 L2084.99 1417.7 L2064.35 1417.75 L2043.7 1417.81 L2023.06 1417.87 L2002.41 1417.92 L1981.77 1417.96 L1961.12 1418.01 L1940.48 1418.06 L1919.83 1418.11 L1899.19 1418.16 L1878.54 1418.19 L1857.9 1418.24 L1837.25 1418.3 L1816.61 1418.33 L1795.96 1418.38 L1775.32 1418.44 L1754.67 1418.49 L1734.03 1418.53 L1713.38 1418.58 L1692.74 1418.63 L1672.09 1418.69 L1651.45 1418.72 L1630.8 1418.78 L1610.16 1418.83 L1589.51 1418.87 L1568.87 1418.92 L1548.22 1418.95 L1527.58 1419 L1506.93 1419.05 L1486.29 1419.1 L1465.64 1419.13 L1445 1419.19 L1424.35 1419.23 L1403.71 1419.27 L1383.06 1419.32 L1362.42 1419.37 L1341.77 1419.42 L1321.13 1419.45 L1300.48 1419.5 L1279.84 1419.55 L1259.19 1419.6 L1238.55 1419.65 L1217.9 1419.68 L1197.26 1419.74 L1176.61 1419.79 L1155.97 1419.83 L1135.32 1419.87 L1114.68 1419.91 L1094.03 1419.96 L1073.39 1420.01 L1052.74 1420.07 L1032.1 1420.11 L1011.45 1420.16 L990.808 1420.22 L970.163 1420.26 L949.518 1420.31 L928.873 1420.36 L908.228 1420.39 L887.583 1420.44 L866.938 1420.49 L846.293 1420.53 L825.648 1420.57 L805.003 1420.62 L784.358 1420.66 L763.713 1420.7 L743.069 1420.74 L722.424 1420.79 L701.779 1420.82 L681.134 1420.86 L660.489 1420.92 L639.844 1420.96 L619.199 1421.01 L598.554 1421.07 L577.909 1421.1 L557.264 1421.14 L536.619 1421.19 L515.974 1421.24 L495.329 1421.29 L474.684 1421.33 L454.039 1421.37 L433.394 1421.41 L412.749 1421.46 L392.104 1421.5 L371.459 1421.54 L350.814 1421.59 L330.169 1421.63 L309.524 1421.67 L288.879 1421.71 L268.234 1421.75 L247.59 1424.25  Z" fill="#af5f81" fill-rule="evenodd" fill-opacity="1"/>
<polyline clip-path="url(#clip362)" style="stroke:#af5f81; stroke-linecap:round; stroke-linejoin:round; stroke-width:4; stroke-opacity:1; fill:none" points="247.59,1242.15 268.234,1241.57 288.879,1241.43 309.524,1241.3 330.169,1241.16 350.814,1240.98 371.459,1240.77 392.104,1240.63 412.749,1240.47 433.394,1240.3 454.039,1240.21 474.684,1240.07 495.329,1239.89 515.974,1239.79 536.619,1239.57 557.264,1239.41 577.909,1239.26 598.554,1239.17 619.199,1238.95 639.844,1238.82 660.489,1238.67 681.134,1238.48 701.779,1238.33 722.424,1238.21 743.069,1238.03 763.713,1237.83 784.358,1237.67 805.003,1237.59 825.648,1237.41 846.293,1237.27 866.938,1237.06 887.583,1236.9 908.228,1236.74 928.873,1236.59 949.518,1236.49 970.163,1236.31 990.808,1236.15 1011.45,1235.98 1032.1,1235.79 1052.74,1235.63 1073.39,1235.47 1094.03,1235.26 1114.68,1235.06 1135.32,1234.9 1155.97,1234.77 1176.61,1234.65 1197.26,1234.52 1217.9,1234.3 1238.55,1234.2 1259.19,1234.01 1279.84,1233.85 1300.48,1233.64 1321.13,1233.47 1341.77,1233.34 1362.42,1233.19 1383.06,1233.03 1403.71,1232.88 1424.35,1232.72 1445,1232.59 1465.64,1232.34 1486.29,1232.23 1506.93,1232.08 1527.58,1231.93 1548.22,1231.77 1568.87,1231.64 1589.51,1231.48 1610.16,1231.3 1630.8,1231.11 1651.45,1230.99 1672.09,1230.88 1692.74,1230.71 1713.38,1230.49 1734.03,1230.37 1754.67,1230.22 1775.32,1230.02 1795.96,1229.8 1816.61,1229.6 1837.25,1229.55 1857.9,1229.38 1878.54,1229.24 1899.19,1229.08 1919.83,1228.98 1940.48,1228.78 1961.12,1228.59 1981.77,1228.36 2002.41,1228.23 2023.06,1228 2043.7,1227.84 2064.35,1227.64 2084.99,1227.43 2105.64,1227.3 2126.28,1227.15 2146.93,1226.93 2167.57,1226.82 2188.22,1226.68 2208.86,1226.54 2229.51,1226.38 2250.15,1226.22 2270.8,1225.97 2291.44,1225.79 "/>
<path clip-path="url(#clip362)" d="M247.59 1206.27 L268.234 1206.05 L288.879 1205.85 L309.524 1205.65 L330.169 1205.45 L350.814 1205.21 L371.459 1204.94 L392.104 1204.75 L412.749 1204.53 L433.394 1204.32 L454.039 1204.16 L474.684 1203.96 L495.329 1203.73 L515.974 1203.54 L536.619 1203.26 L557.264 1203.03 L577.909 1202.83 L598.554 1202.69 L619.199 1202.39 L639.844 1202.19 L660.489 1201.97 L681.134 1201.71 L701.779 1201.49 L722.424 1201.31 L743.069 1201.05 L763.713 1200.77 L784.358 1200.55 L805.003 1200.41 L825.648 1200.17 L846.293 1199.95 L866.938 1199.65 L887.583 1199.4 L908.228 1199.17 L928.873 1198.93 L949.518 1198.78 L970.163 1198.54 L990.808 1198.32 L1011.45 1198.09 L1032.1 1197.83 L1052.74 1197.59 L1073.39 1197.38 L1094.03 1197.08 L1114.68 1196.81 L1135.32 1196.6 L1155.97 1196.38 L1176.61 1196.21 L1197.26 1196.02 L1217.9 1195.72 L1238.55 1195.57 L1259.19 1195.32 L1279.84 1195.11 L1300.48 1194.82 L1321.13 1194.59 L1341.77 1194.41 L1362.42 1194.19 L1383.06 1193.96 L1403.71 1193.75 L1424.35 1193.53 L1445 1193.34 L1465.64 1193.01 L1486.29 1192.81 L1506.93 1192.58 L1527.58 1192.38 L1548.22 1192.15 L1568.87 1191.96 L1589.51 1191.71 L1610.16 1191.47 L1630.8 1191.21 L1651.45 1191.01 L1672.09 1190.85 L1692.74 1190.62 L1713.38 1190.35 L1734.03 1190.17 L1754.67 1189.95 L1775.32 1189.66 L1795.96 1189.39 L1816.61 1189.12 L1837.25 1189.02 L1857.9 1188.74 L1878.54 1188.55 L1899.19 1188.31 L1919.83 1188.16 L1940.48 1187.87 L1961.12 1187.6 L1981.77 1187.29 L2002.41 1187.1 L2023.06 1186.77 L2043.7 1186.54 L2064.35 1186.26 L2084.99 1185.95 L2105.64 1185.75 L2126.28 1185.54 L2146.93 1185.22 L2167.57 1185.03 L2188.22 1184.82 L2208.86 1184.6 L2229.51 1184.36 L2250.15 1184.15 L2270.8 1183.82 L2291.44 1183.55 L2291.44 1225.79 L2270.8 1225.97 L2250.15 1226.22 L2229.51 1226.38 L2208.86 1226.54 L2188.22 1226.68 L2167.57 1226.82 L2146.93 1226.93 L2126.28 1227.15 L2105.64 1227.3 L2084.99 1227.43 L2064.35 1227.64 L2043.7 1227.84 L2023.06 1228 L2002.41 1228.23 L1981.77 1228.36 L1961.12 1228.59 L1940.48 1228.78 L1919.83 1228.98 L1899.19 1229.08 L1878.54 1229.24 L1857.9 1229.38 L1837.25 1229.55 L1816.61 1229.6 L1795.96 1229.8 L1775.32 1230.02 L1754.67 1230.22 L1734.03 1230.37 L1713.38 1230.49 L1692.74 1230.71 L1672.09 1230.88 L1651.45 1230.99 L1630.8 1231.11 L1610.16 1231.3 L1589.51 1231.48 L1568.87 1231.64 L1548.22 1231.77 L1527.58 1231.93 L1506.93 1232.08 L1486.29 1232.23 L1465.64 1232.34 L1445 1232.59 L1424.35 1232.72 L1403.71 1232.88 L1383.06 1233.03 L1362.42 1233.19 L1341.77 1233.34 L1321.13 1233.47 L1300.48 1233.64 L1279.84 1233.85 L1259.19 1234.01 L1238.55 1234.2 L1217.9 1234.3 L1197.26 1234.52 L1176.61 1234.65 L1155.97 1234.77 L1135.32 1234.9 L1114.68 1235.06 L1094.03 1235.26 L1073.39 1235.47 L1052.74 1235.63 L1032.1 1235.79 L1011.45 1235.98 L990.808 1236.15 L970.163 1236.31 L949.518 1236.49 L928.873 1236.59 L908.228 1236.74 L887.583 1236.9 L866.938 1237.06 L846.293 1237.27 L825.648 1237.41 L805.003 1237.59 L784.358 1237.67 L763.713 1237.83 L743.069 1238.03 L722.424 1238.21 L701.779 1238.33 L681.134 1238.48 L660.489 1238.67 L639.844 1238.82 L619.199 1238.95 L598.554 1239.17 L577.909 1239.26 L557.264 1239.41 L536.619 1239.57 L515.974 1239.79 L495.329 1239.89 L474.684 1240.07 L454.039 1240.21 L433.394 1240.3 L412.749 1240.47 L392.104 1240.63 L371.459 1240.77 L350.814 1240.98 L330.169 1241.16 L309.524 1241.3 L288.879 1241.43 L268.234 1241.57 L247.59 1242.15  Z" fill="#553b9c" fill-rule="evenodd" fill-opacity="1"/>
<polyline clip-path="url(#clip362)" style="stroke:#553b9c; stroke-linecap:round; stroke-linejoin:round; stroke-width:4; stroke-opacity:1; fill:none" points="247.59,1206.27 268.234,1206.05 288.879,1205.85 309.524,1205.65 330.169,1205.45 350.814,1205.21 371.459,1204.94 392.104,1204.75 412.749,1204.53 433.394,1204.32 454.039,1204.16 474.684,1203.96 495.329,1203.73 515.974,1203.54 536.619,1203.26 557.264,1203.03 577.909,1202.83 598.554,1202.69 619.199,1202.39 639.844,1202.19 660.489,1201.97 681.134,1201.71 701.779,1201.49 722.424,1201.31 743.069,1201.05 763.713,1200.77 784.358,1200.55 805.003,1200.41 825.648,1200.17 846.293,1199.95 866.938,1199.65 887.583,1199.4 908.228,1199.17 928.873,1198.93 949.518,1198.78 970.163,1198.54 990.808,1198.32 1011.45,1198.09 1032.1,1197.83 1052.74,1197.59 1073.39,1197.38 1094.03,1197.08 1114.68,1196.81 1135.32,1196.6 1155.97,1196.38 1176.61,1196.21 1197.26,1196.02 1217.9,1195.72 1238.55,1195.57 1259.19,1195.32 1279.84,1195.11 1300.48,1194.82 1321.13,1194.59 1341.77,1194.41 1362.42,1194.19 1383.06,1193.96 1403.71,1193.75 1424.35,1193.53 1445,1193.34 1465.64,1193.01 1486.29,1192.81 1506.93,1192.58 1527.58,1192.38 1548.22,1192.15 1568.87,1191.96 1589.51,1191.71 1610.16,1191.47 1630.8,1191.21 1651.45,1191.01 1672.09,1190.85 1692.74,1190.62 1713.38,1190.35 1734.03,1190.17 1754.67,1189.95 1775.32,1189.66 1795.96,1189.39 1816.61,1189.12 1837.25,1189.02 1857.9,1188.74 1878.54,1188.55 1899.19,1188.31 1919.83,1188.16 1940.48,1187.87 1961.12,1187.6 1981.77,1187.29 2002.41,1187.1 2023.06,1186.77 2043.7,1186.54 2064.35,1186.26 2084.99,1185.95 2105.64,1185.75 2126.28,1185.54 2146.93,1185.22 2167.57,1185.03 2188.22,1184.82 2208.86,1184.6 2229.51,1184.36 2250.15,1184.15 2270.8,1183.82 2291.44,1183.55 "/>
<path clip-path="url(#clip362)" d="M247.59 1122.52 L268.234 1112.66 L288.879 1112.41 L309.524 1112.16 L330.169 1111.93 L350.814 1111.67 L371.459 1111.34 L392.104 1111.1 L412.749 1110.82 L433.394 1110.56 L454.039 1110.35 L474.684 1110.11 L495.329 1109.81 L515.974 1109.57 L536.619 1109.22 L557.264 1108.96 L577.909 1108.72 L598.554 1108.52 L619.199 1108.14 L639.844 1107.88 L660.489 1107.64 L681.134 1107.31 L701.779 1107.07 L722.424 1106.85 L743.069 1106.54 L763.713 1106.26 L784.358 1106.02 L805.003 1105.81 L825.648 1105.51 L846.293 1105.29 L866.938 1104.98 L887.583 1104.69 L908.228 1104.42 L928.873 1104.19 L949.518 1103.96 L970.163 1103.66 L990.808 1103.39 L1011.45 1103.08 L1032.1 1102.78 L1052.74 1102.5 L1073.39 1102.21 L1094.03 1101.89 L1114.68 1101.56 L1135.32 1101.31 L1155.97 1101.07 L1176.61 1100.84 L1197.26 1100.58 L1217.9 1100.23 L1238.55 1100.06 L1259.19 1099.75 L1279.84 1099.48 L1300.48 1099.15 L1321.13 1098.87 L1341.77 1098.66 L1362.42 1098.38 L1383.06 1098.09 L1403.71 1097.83 L1424.35 1097.57 L1445 1097.36 L1465.64 1096.98 L1486.29 1096.77 L1506.93 1096.5 L1527.58 1096.24 L1548.22 1095.96 L1568.87 1095.76 L1589.51 1095.49 L1610.16 1095.21 L1630.8 1094.91 L1651.45 1094.64 L1672.09 1094.44 L1692.74 1094.14 L1713.38 1093.81 L1734.03 1093.55 L1754.67 1093.31 L1775.32 1093 L1795.96 1092.66 L1816.61 1092.36 L1837.25 1092.2 L1857.9 1091.88 L1878.54 1091.64 L1899.19 1091.39 L1919.83 1091.18 L1940.48 1090.86 L1961.12 1090.57 L1981.77 1090.24 L2002.41 1090.02 L2023.06 1089.69 L2043.7 1089.4 L2064.35 1089.04 L2084.99 1088.73 L2105.64 1088.46 L2126.28 1088.16 L2146.93 1087.8 L2167.57 1087.56 L2188.22 1087.26 L2208.86 1087.05 L2229.51 1086.75 L2250.15 1086.46 L2270.8 1086.07 L2291.44 1085.72 L2291.44 1183.55 L2270.8 1183.82 L2250.15 1184.15 L2229.51 1184.36 L2208.86 1184.6 L2188.22 1184.82 L2167.57 1185.03 L2146.93 1185.22 L2126.28 1185.54 L2105.64 1185.75 L2084.99 1185.95 L2064.35 1186.26 L2043.7 1186.54 L2023.06 1186.77 L2002.41 1187.1 L1981.77 1187.29 L1961.12 1187.6 L1940.48 1187.87 L1919.83 1188.16 L1899.19 1188.31 L1878.54 1188.55 L1857.9 1188.74 L1837.25 1189.02 L1816.61 1189.12 L1795.96 1189.39 L1775.32 1189.66 L1754.67 1189.95 L1734.03 1190.17 L1713.38 1190.35 L1692.74 1190.62 L1672.09 1190.85 L1651.45 1191.01 L1630.8 1191.21 L1610.16 1191.47 L1589.51 1191.71 L1568.87 1191.96 L1548.22 1192.15 L1527.58 1192.38 L1506.93 1192.58 L1486.29 1192.81 L1465.64 1193.01 L1445 1193.34 L1424.35 1193.53 L1403.71 1193.75 L1383.06 1193.96 L1362.42 1194.19 L1341.77 1194.41 L1321.13 1194.59 L1300.48 1194.82 L1279.84 1195.11 L1259.19 1195.32 L1238.55 1195.57 L1217.9 1195.72 L1197.26 1196.02 L1176.61 1196.21 L1155.97 1196.38 L1135.32 1196.6 L1114.68 1196.81 L1094.03 1197.08 L1073.39 1197.38 L1052.74 1197.59 L1032.1 1197.83 L1011.45 1198.09 L990.808 1198.32 L970.163 1198.54 L949.518 1198.78 L928.873 1198.93 L908.228 1199.17 L887.583 1199.4 L866.938 1199.65 L846.293 1199.95 L825.648 1200.17 L805.003 1200.41 L784.358 1200.55 L763.713 1200.77 L743.069 1201.05 L722.424 1201.31 L701.779 1201.49 L681.134 1201.71 L660.489 1201.97 L639.844 1202.19 L619.199 1202.39 L598.554 1202.69 L577.909 1202.83 L557.264 1203.03 L536.619 1203.26 L515.974 1203.54 L495.329 1203.73 L474.684 1203.96 L454.039 1204.16 L433.394 1204.32 L412.749 1204.53 L392.104 1204.75 L371.459 1204.94 L350.814 1205.21 L330.169 1205.45 L309.524 1205.65 L288.879 1205.85 L268.234 1206.05 L247.59 1206.27  Z" fill="#f99241" fill-rule="evenodd" fill-opacity="1"/>
<polyline clip-path="url(#clip362)" style="stroke:#f99241; stroke-linecap:round; stroke-linejoin:round; stroke-width:4; stroke-opacity:1; fill:none" points="247.59,1122.52 268.234,1112.66 288.879,1112.41 309.524,1112.16 330.169,1111.93 350.814,1111.67 371.459,1111.34 392.104,1111.1 412.749,1110.82 433.394,1110.56 454.039,1110.35 474.684,1110.11 495.329,1109.81 515.974,1109.57 536.619,1109.22 557.264,1108.96 577.909,1108.72 598.554,1108.52 619.199,1108.14 639.844,1107.88 660.489,1107.64 681.134,1107.31 701.779,1107.07 722.424,1106.85 743.069,1106.54 763.713,1106.26 784.358,1106.02 805.003,1105.81 825.648,1105.51 846.293,1105.29 866.938,1104.98 887.583,1104.69 908.228,1104.42 928.873,1104.19 949.518,1103.96 970.163,1103.66 990.808,1103.39 1011.45,1103.08 1032.1,1102.78 1052.74,1102.5 1073.39,1102.21 1094.03,1101.89 1114.68,1101.56 1135.32,1101.31 1155.97,1101.07 1176.61,1100.84 1197.26,1100.58 1217.9,1100.23 1238.55,1100.06 1259.19,1099.75 1279.84,1099.48 1300.48,1099.15 1321.13,1098.87 1341.77,1098.66 1362.42,1098.38 1383.06,1098.09 1403.71,1097.83 1424.35,1097.57 1445,1097.36 1465.64,1096.98 1486.29,1096.77 1506.93,1096.5 1527.58,1096.24 1548.22,1095.96 1568.87,1095.76 1589.51,1095.49 1610.16,1095.21 1630.8,1094.91 1651.45,1094.64 1672.09,1094.44 1692.74,1094.14 1713.38,1093.81 1734.03,1093.55 1754.67,1093.31 1775.32,1093 1795.96,1092.66 1816.61,1092.36 1837.25,1092.2 1857.9,1091.88 1878.54,1091.64 1899.19,1091.39 1919.83,1091.18 1940.48,1090.86 1961.12,1090.57 1981.77,1090.24 2002.41,1090.02 2023.06,1089.69 2043.7,1089.4 2064.35,1089.04 2084.99,1088.73 2105.64,1088.46 2126.28,1088.16 2146.93,1087.8 2167.57,1087.56 2188.22,1087.26 2208.86,1087.05 2229.51,1086.75 2250.15,1086.46 2270.8,1086.07 2291.44,1085.72 "/>
<path clip-path="url(#clip362)" d="M247.59 1106.03 L268.234 1094.24 L288.879 1093.97 L309.524 1093.68 L330.169 1093.43 L350.814 1093.14 L371.459 1092.79 L392.104 1092.52 L412.749 1092.22 L433.394 1091.93 L454.039 1091.68 L474.684 1091.41 L495.329 1091.08 L515.974 1090.8 L536.619 1090.42 L557.264 1090.13 L577.909 1089.86 L598.554 1089.63 L619.199 1089.22 L639.844 1088.92 L660.489 1088.64 L681.134 1088.28 L701.779 1088 L722.424 1087.76 L743.069 1087.41 L763.713 1087.11 L784.358 1086.84 L805.003 1086.6 L825.648 1086.26 L846.293 1086.01 L866.938 1085.67 L887.583 1085.34 L908.228 1085.04 L928.873 1084.77 L949.518 1084.51 L970.163 1084.18 L990.808 1083.88 L1011.45 1083.53 L1032.1 1083.2 L1052.74 1082.89 L1073.39 1082.56 L1094.03 1082.21 L1114.68 1081.86 L1135.32 1081.58 L1155.97 1081.3 L1176.61 1081.04 L1197.26 1080.74 L1217.9 1080.36 L1238.55 1080.16 L1259.19 1079.83 L1279.84 1079.53 L1300.48 1079.17 L1321.13 1078.86 L1341.77 1078.62 L1362.42 1078.3 L1383.06 1077.99 L1403.71 1077.7 L1424.35 1077.41 L1445 1077.17 L1465.64 1076.76 L1486.29 1076.52 L1506.93 1076.2 L1527.58 1075.91 L1548.22 1075.6 L1568.87 1075.37 L1589.51 1075.07 L1610.16 1074.76 L1630.8 1074.43 L1651.45 1074.11 L1672.09 1073.89 L1692.74 1073.56 L1713.38 1073.2 L1734.03 1072.91 L1754.67 1072.64 L1775.32 1072.3 L1795.96 1071.93 L1816.61 1071.61 L1837.25 1071.4 L1857.9 1071.04 L1878.54 1070.77 L1899.19 1070.5 L1919.83 1070.25 L1940.48 1069.89 L1961.12 1069.57 L1981.77 1069.21 L2002.41 1068.97 L2023.06 1068.61 L2043.7 1068.28 L2064.35 1067.88 L2084.99 1067.54 L2105.64 1067.23 L2126.28 1066.89 L2146.93 1066.48 L2167.57 1066.2 L2188.22 1065.85 L2208.86 1065.61 L2229.51 1065.26 L2250.15 1064.95 L2270.8 1064.52 L2291.44 1064.13 L2291.44 1085.72 L2270.8 1086.07 L2250.15 1086.46 L2229.51 1086.75 L2208.86 1087.05 L2188.22 1087.26 L2167.57 1087.56 L2146.93 1087.8 L2126.28 1088.16 L2105.64 1088.46 L2084.99 1088.73 L2064.35 1089.04 L2043.7 1089.4 L2023.06 1089.69 L2002.41 1090.02 L1981.77 1090.24 L1961.12 1090.57 L1940.48 1090.86 L1919.83 1091.18 L1899.19 1091.39 L1878.54 1091.64 L1857.9 1091.88 L1837.25 1092.2 L1816.61 1092.36 L1795.96 1092.66 L1775.32 1093 L1754.67 1093.31 L1734.03 1093.55 L1713.38 1093.81 L1692.74 1094.14 L1672.09 1094.44 L1651.45 1094.64 L1630.8 1094.91 L1610.16 1095.21 L1589.51 1095.49 L1568.87 1095.76 L1548.22 1095.96 L1527.58 1096.24 L1506.93 1096.5 L1486.29 1096.77 L1465.64 1096.98 L1445 1097.36 L1424.35 1097.57 L1403.71 1097.83 L1383.06 1098.09 L1362.42 1098.38 L1341.77 1098.66 L1321.13 1098.87 L1300.48 1099.15 L1279.84 1099.48 L1259.19 1099.75 L1238.55 1100.06 L1217.9 1100.23 L1197.26 1100.58 L1176.61 1100.84 L1155.97 1101.07 L1135.32 1101.31 L1114.68 1101.56 L1094.03 1101.89 L1073.39 1102.21 L1052.74 1102.5 L1032.1 1102.78 L1011.45 1103.08 L990.808 1103.39 L970.163 1103.66 L949.518 1103.96 L928.873 1104.19 L908.228 1104.42 L887.583 1104.69 L866.938 1104.98 L846.293 1105.29 L825.648 1105.51 L805.003 1105.81 L784.358 1106.02 L763.713 1106.26 L743.069 1106.54 L722.424 1106.85 L701.779 1107.07 L681.134 1107.31 L660.489 1107.64 L639.844 1107.88 L619.199 1108.14 L598.554 1108.52 L577.909 1108.72 L557.264 1108.96 L536.619 1109.22 L515.974 1109.57 L495.329 1109.81 L474.684 1110.11 L454.039 1110.35 L433.394 1110.56 L412.749 1110.82 L392.104 1111.1 L371.459 1111.34 L350.814 1111.67 L330.169 1111.93 L309.524 1112.16 L288.879 1112.41 L268.234 1112.66 L247.59 1122.52  Z" fill="#18337b" fill-rule="evenodd" fill-opacity="1"/>
<polyline clip-path="url(#clip362)" style="stroke:#18337b; stroke-linecap:round; stroke-linejoin:round; stroke-width:4; stroke-opacity:1; fill:none" points="247.59,1106.03 268.234,1094.24 288.879,1093.97 309.524,1093.68 330.169,1093.43 350.814,1093.14 371.459,1092.79 392.104,1092.52 412.749,1092.22 433.394,1091.93 454.039,1091.68 474.684,1091.41 495.329,1091.08 515.974,1090.8 536.619,1090.42 557.264,1090.13 577.909,1089.86 598.554,1089.63 619.199,1089.22 639.844,1088.92 660.489,1088.64 681.134,1088.28 701.779,1088 722.424,1087.76 743.069,1087.41 763.713,1087.11 784.358,1086.84 805.003,1086.6 825.648,1086.26 846.293,1086.01 866.938,1085.67 887.583,1085.34 908.228,1085.04 928.873,1084.77 949.518,1084.51 970.163,1084.18 990.808,1083.88 1011.45,1083.53 1032.1,1083.2 1052.74,1082.89 1073.39,1082.56 1094.03,1082.21 1114.68,1081.86 1135.32,1081.58 1155.97,1081.3 1176.61,1081.04 1197.26,1080.74 1217.9,1080.36 1238.55,1080.16 1259.19,1079.83 1279.84,1079.53 1300.48,1079.17 1321.13,1078.86 1341.77,1078.62 1362.42,1078.3 1383.06,1077.99 1403.71,1077.7 1424.35,1077.41 1445,1077.17 1465.64,1076.76 1486.29,1076.52 1506.93,1076.2 1527.58,1075.91 1548.22,1075.6 1568.87,1075.37 1589.51,1075.07 1610.16,1074.76 1630.8,1074.43 1651.45,1074.11 1672.09,1073.89 1692.74,1073.56 1713.38,1073.2 1734.03,1072.91 1754.67,1072.64 1775.32,1072.3 1795.96,1071.93 1816.61,1071.61 1837.25,1071.4 1857.9,1071.04 1878.54,1070.77 1899.19,1070.5 1919.83,1070.25 1940.48,1069.89 1961.12,1069.57 1981.77,1069.21 2002.41,1068.97 2023.06,1068.61 2043.7,1068.28 2064.35,1067.88 2084.99,1067.54 2105.64,1067.23 2126.28,1066.89 2146.93,1066.48 2167.57,1066.2 2188.22,1065.85 2208.86,1065.61 2229.51,1065.26 2250.15,1064.95 2270.8,1064.52 2291.44,1064.13 "/>
<path clip-path="url(#clip362)" d="M247.59 255.513 L268.234 253.68 L288.879 253.79 L309.524 253.925 L330.169 254.046 L350.814 254.127 L371.459 254.19 L392.104 254.26 L412.749 254.347 L433.394 254.402 L454.039 254.542 L474.684 254.65 L495.329 254.734 L515.974 254.948 L536.619 255.002 L557.264 255.114 L577.909 255.206 L598.554 255.309 L619.199 255.421 L639.844 255.555 L660.489 255.683 L681.134 255.809 L701.779 255.959 L722.424 256.051 L743.069 256.216 L763.713 256.346 L784.358 256.458 L805.003 256.572 L825.648 256.674 L846.293 256.822 L866.938 257.01 L887.583 257.173 L908.228 257.316 L928.873 257.504 L949.518 257.607 L970.163 257.687 L990.808 257.779 L1011.45 257.87 L1032.1 257.955 L1052.74 258.085 L1073.39 258.152 L1094.03 258.292 L1114.68 258.373 L1135.32 258.434 L1155.97 258.604 L1176.61 258.733 L1197.26 258.833 L1217.9 258.915 L1238.55 259.026 L1259.19 259.066 L1279.84 259.108 L1300.48 259.219 L1321.13 259.304 L1341.77 259.376 L1362.42 259.496 L1383.06 259.608 L1403.71 259.674 L1424.35 259.755 L1445 259.859 L1465.64 259.977 L1486.29 260.183 L1506.93 260.351 L1527.58 260.419 L1548.22 260.522 L1568.87 260.635 L1589.51 260.784 L1610.16 260.864 L1630.8 260.961 L1651.45 261.102 L1672.09 261.197 L1692.74 261.248 L1713.38 261.267 L1734.03 261.347 L1754.67 261.459 L1775.32 261.599 L1795.96 261.632 L1816.61 261.68 L1837.25 261.838 L1857.9 262.027 L1878.54 262.121 L1899.19 262.234 L1919.83 262.338 L1940.48 262.471 L1961.12 262.574 L1981.77 262.698 L2002.41 262.78 L2023.06 262.91 L2043.7 263.04 L2064.35 263.144 L2084.99 263.299 L2105.64 263.428 L2126.28 263.534 L2146.93 263.669 L2167.57 263.842 L2188.22 263.939 L2208.86 264.102 L2229.51 264.258 L2250.15 264.3 L2270.8 264.348 L2291.44 264.496 L2291.44 1064.13 L2270.8 1064.52 L2250.15 1064.95 L2229.51 1065.26 L2208.86 1065.61 L2188.22 1065.85 L2167.57 1066.2 L2146.93 1066.48 L2126.28 1066.89 L2105.64 1067.23 L2084.99 1067.54 L2064.35 1067.88 L2043.7 1068.28 L2023.06 1068.61 L2002.41 1068.97 L1981.77 1069.21 L1961.12 1069.57 L1940.48 1069.89 L1919.83 1070.25 L1899.19 1070.5 L1878.54 1070.77 L1857.9 1071.04 L1837.25 1071.4 L1816.61 1071.61 L1795.96 1071.93 L1775.32 1072.3 L1754.67 1072.64 L1734.03 1072.91 L1713.38 1073.2 L1692.74 1073.56 L1672.09 1073.89 L1651.45 1074.11 L1630.8 1074.43 L1610.16 1074.76 L1589.51 1075.07 L1568.87 1075.37 L1548.22 1075.6 L1527.58 1075.91 L1506.93 1076.2 L1486.29 1076.52 L1465.64 1076.76 L1445 1077.17 L1424.35 1077.41 L1403.71 1077.7 L1383.06 1077.99 L1362.42 1078.3 L1341.77 1078.62 L1321.13 1078.86 L1300.48 1079.17 L1279.84 1079.53 L1259.19 1079.83 L1238.55 1080.16 L1217.9 1080.36 L1197.26 1080.74 L1176.61 1081.04 L1155.97 1081.3 L1135.32 1081.58 L1114.68 1081.86 L1094.03 1082.21 L1073.39 1082.56 L1052.74 1082.89 L1032.1 1083.2 L1011.45 1083.53 L990.808 1083.88 L970.163 1084.18 L949.518 1084.51 L928.873 1084.77 L908.228 1085.04 L887.583 1085.34 L866.938 1085.67 L846.293 1086.01 L825.648 1086.26 L805.003 1086.6 L784.358 1086.84 L763.713 1087.11 L743.069 1087.41 L722.424 1087.76 L701.779 1088 L681.134 1088.28 L660.489 1088.64 L639.844 1088.92 L619.199 1089.22 L598.554 1089.63 L577.909 1089.86 L557.264 1090.13 L536.619 1090.42 L515.974 1090.8 L495.329 1091.08 L474.684 1091.41 L454.039 1091.68 L433.394 1091.93 L412.749 1092.22 L392.104 1092.52 L371.459 1092.79 L350.814 1093.14 L330.169 1093.43 L309.524 1093.68 L288.879 1093.97 L268.234 1094.24 L247.59 1106.03  Z" fill="#de6f64" fill-rule="evenodd" fill-opacity="1"/>
<polyline clip-path="url(#clip362)" style="stroke:#de6f64; stroke-linecap:round; stroke-linejoin:round; stroke-width:4; stroke-opacity:1; fill:none" points="247.59,255.513 268.234,253.68 288.879,253.79 309.524,253.925 330.169,254.046 350.814,254.127 371.459,254.19 392.104,254.26 412.749,254.347 433.394,254.402 454.039,254.542 474.684,254.65 495.329,254.734 515.974,254.948 536.619,255.002 557.264,255.114 577.909,255.206 598.554,255.309 619.199,255.421 639.844,255.555 660.489,255.683 681.134,255.809 701.779,255.959 722.424,256.051 743.069,256.216 763.713,256.346 784.358,256.458 805.003,256.572 825.648,256.674 846.293,256.822 866.938,257.01 887.583,257.173 908.228,257.316 928.873,257.504 949.518,257.607 970.163,257.687 990.808,257.779 1011.45,257.87 1032.1,257.955 1052.74,258.085 1073.39,258.152 1094.03,258.292 1114.68,258.373 1135.32,258.434 1155.97,258.604 1176.61,258.733 1197.26,258.833 1217.9,258.915 1238.55,259.026 1259.19,259.066 1279.84,259.108 1300.48,259.219 1321.13,259.304 1341.77,259.376 1362.42,259.496 1383.06,259.608 1403.71,259.674 1424.35,259.755 1445,259.859 1465.64,259.977 1486.29,260.183 1506.93,260.351 1527.58,260.419 1548.22,260.522 1568.87,260.635 1589.51,260.784 1610.16,260.864 1630.8,260.961 1651.45,261.102 1672.09,261.197 1692.74,261.248 1713.38,261.267 1734.03,261.347 1754.67,261.459 1775.32,261.599 1795.96,261.632 1816.61,261.68 1837.25,261.838 1857.9,262.027 1878.54,262.121 1899.19,262.234 1919.83,262.338 1940.48,262.471 1961.12,262.574 1981.77,262.698 2002.41,262.78 2023.06,262.91 2043.7,263.04 2064.35,263.144 2084.99,263.299 2105.64,263.428 2126.28,263.534 2146.93,263.669 2167.57,263.842 2188.22,263.939 2208.86,264.102 2229.51,264.258 2250.15,264.3 2270.8,264.348 2291.44,264.496 "/>
<path clip-path="url(#clip362)" d="M247.59 87.9763 L268.234 87.9763 L288.879 87.9763 L309.524 87.9763 L330.169 87.9763 L350.814 87.9763 L371.459 87.9763 L392.104 87.9763 L412.749 87.9763 L433.394 87.9763 L454.039 87.9763 L474.684 87.9763 L495.329 87.9763 L515.974 87.9763 L536.619 87.9763 L557.264 87.9763 L577.909 87.9763 L598.554 87.9763 L619.199 87.9763 L639.844 87.9763 L660.489 87.9763 L681.134 87.9763 L701.779 87.9763 L722.424 87.9763 L743.069 87.9763 L763.713 87.9763 L784.358 87.9763 L805.003 87.9763 L825.648 87.9763 L846.293 87.9763 L866.938 87.9763 L887.583 87.9763 L908.228 87.9763 L928.873 87.9763 L949.518 87.9763 L970.163 87.9763 L990.808 87.9763 L1011.45 87.9763 L1032.1 87.9763 L1052.74 87.9763 L1073.39 87.9763 L1094.03 87.9763 L1114.68 87.9763 L1135.32 87.9763 L1155.97 87.9763 L1176.61 87.9763 L1197.26 87.9763 L1217.9 87.9763 L1238.55 87.9763 L1259.19 87.9763 L1279.84 87.9763 L1300.48 87.9763 L1321.13 87.9763 L1341.77 87.9763 L1362.42 87.9763 L1383.06 87.9763 L1403.71 87.9763 L1424.35 87.9763 L1445 87.9763 L1465.64 87.9763 L1486.29 87.9763 L1506.93 87.9763 L1527.58 87.9763 L1548.22 87.9763 L1568.87 87.9763 L1589.51 87.9763 L1610.16 87.9763 L1630.8 87.9763 L1651.45 87.9763 L1672.09 87.9763 L1692.74 87.9763 L1713.38 87.9763 L1734.03 87.9763 L1754.67 87.9763 L1775.32 87.9763 L1795.96 87.9763 L1816.61 87.9763 L1837.25 87.9763 L1857.9 87.9763 L1878.54 87.9763 L1899.19 87.9763 L1919.83 87.9763 L1940.48 87.9763 L1961.12 87.9763 L1981.77 87.9763 L2002.41 87.9763 L2023.06 87.9763 L2043.7 87.9763 L2064.35 87.9763 L2084.99 87.9763 L2105.64 87.9763 L2126.28 87.9763 L2146.93 87.9763 L2167.57 87.9763 L2188.22 87.9763 L2208.86 87.9763 L2229.51 87.9763 L2250.15 87.9763 L2270.8 87.9763 L2291.44 87.9763 L2291.44 264.496 L2270.8 264.348 L2250.15 264.3 L2229.51 264.258 L2208.86 264.102 L2188.22 263.939 L2167.57 263.842 L2146.93 263.669 L2126.28 263.534 L2105.64 263.428 L2084.99 263.299 L2064.35 263.144 L2043.7 263.04 L2023.06 262.91 L2002.41 262.78 L1981.77 262.698 L1961.12 262.574 L1940.48 262.471 L1919.83 262.338 L1899.19 262.234 L1878.54 262.121 L1857.9 262.027 L1837.25 261.838 L1816.61 261.68 L1795.96 261.632 L1775.32 261.599 L1754.67 261.459 L1734.03 261.347 L1713.38 261.267 L1692.74 261.248 L1672.09 261.197 L1651.45 261.102 L1630.8 260.961 L1610.16 260.864 L1589.51 260.784 L1568.87 260.635 L1548.22 260.522 L1527.58 260.419 L1506.93 260.351 L1486.29 260.183 L1465.64 259.977 L1445 259.859 L1424.35 259.755 L1403.71 259.674 L1383.06 259.608 L1362.42 259.496 L1341.77 259.376 L1321.13 259.304 L1300.48 259.219 L1279.84 259.108 L1259.19 259.066 L1238.55 259.026 L1217.9 258.915 L1197.26 258.833 L1176.61 258.733 L1155.97 258.604 L1135.32 258.434 L1114.68 258.373 L1094.03 258.292 L1073.39 258.152 L1052.74 258.085 L1032.1 257.955 L1011.45 257.87 L990.808 257.779 L970.163 257.687 L949.518 257.607 L928.873 257.504 L908.228 257.316 L887.583 257.173 L866.938 257.01 L846.293 256.822 L825.648 256.674 L805.003 256.572 L784.358 256.458 L763.713 256.346 L743.069 256.216 L722.424 256.051 L701.779 255.959 L681.134 255.809 L660.489 255.683 L639.844 255.555 L619.199 255.421 L598.554 255.309 L577.909 255.206 L557.264 255.114 L536.619 255.002 L515.974 254.948 L495.329 254.734 L474.684 254.65 L454.039 254.542 L433.394 254.402 L412.749 254.347 L392.104 254.26 L371.459 254.19 L350.814 254.127 L330.169 254.046 L309.524 253.925 L288.879 253.79 L268.234 253.68 L247.59 255.513  Z" fill="#824f8e" fill-rule="evenodd" fill-opacity="1"/>
<polyline clip-path="url(#clip362)" style="stroke:#824f8e; stroke-linecap:round; stroke-linejoin:round; stroke-width:4; stroke-opacity:1; fill:none" points="247.59,87.9763 268.234,87.9763 288.879,87.9763 309.524,87.9763 330.169,87.9763 350.814,87.9763 371.459,87.9763 392.104,87.9763 412.749,87.9763 433.394,87.9763 454.039,87.9763 474.684,87.9763 495.329,87.9763 515.974,87.9763 536.619,87.9763 557.264,87.9763 577.909,87.9763 598.554,87.9763 619.199,87.9763 639.844,87.9763 660.489,87.9763 681.134,87.9763 701.779,87.9763 722.424,87.9763 743.069,87.9763 763.713,87.9763 784.358,87.9763 805.003,87.9763 825.648,87.9763 846.293,87.9763 866.938,87.9763 887.583,87.9763 908.228,87.9763 928.873,87.9763 949.518,87.9763 970.163,87.9763 990.808,87.9763 1011.45,87.9763 1032.1,87.9763 1052.74,87.9763 1073.39,87.9763 1094.03,87.9763 1114.68,87.9763 1135.32,87.9763 1155.97,87.9763 1176.61,87.9763 1197.26,87.9763 1217.9,87.9763 1238.55,87.9763 1259.19,87.9763 1279.84,87.9763 1300.48,87.9763 1321.13,87.9763 1341.77,87.9763 1362.42,87.9763 1383.06,87.9763 1403.71,87.9763 1424.35,87.9763 1445,87.9763 1465.64,87.9763 1486.29,87.9763 1506.93,87.9763 1527.58,87.9763 1548.22,87.9763 1568.87,87.9763 1589.51,87.9763 1610.16,87.9763 1630.8,87.9763 1651.45,87.9763 1672.09,87.9763 1692.74,87.9763 1713.38,87.9763 1734.03,87.9763 1754.67,87.9763 1775.32,87.9763 1795.96,87.9763 1816.61,87.9763 1837.25,87.9763 1857.9,87.9763 1878.54,87.9763 1899.19,87.9763 1919.83,87.9763 1940.48,87.9763 1961.12,87.9763 1981.77,87.9763 2002.41,87.9763 2023.06,87.9763 2043.7,87.9763 2064.35,87.9763 2084.99,87.9763 2105.64,87.9763 2126.28,87.9763 2146.93,87.9763 2167.57,87.9763 2188.22,87.9763 2208.86,87.9763 2229.51,87.9763 2250.15,87.9763 2270.8,87.9763 2291.44,87.9763 "/>
</svg>
