<?xml version="1.0" encoding="utf-8"?>
<svg xmlns="http://www.w3.org/2000/svg" xmlns:xlink="http://www.w3.org/1999/xlink" width="600" height="400" viewBox="0 0 2400 1600">
<defs>
  <clipPath id="clip370">
    <rect x="0" y="0" width="2400" height="1600"/>
  </clipPath>
</defs>
<path clip-path="url(#clip370)" d="M0 1600 L2400 1600 L2400 0 L0 0  Z" fill="#ffffff" fill-rule="evenodd" fill-opacity="1"/>
<defs>
  <clipPath id="clip371">
    <rect x="480" y="0" width="1681" height="1600"/>
  </clipPath>
</defs>
<path clip-path="url(#clip370)" d="M172.015 1486.45 L2352.76 1486.45 L2352.76 47.2441 L172.015 47.2441  Z" fill="#ffffff" fill-rule="evenodd" fill-opacity="1"/>
<defs>
  <clipPath id="clip372">
    <rect x="172" y="47" width="2182" height="1440"/>
  </clipPath>
</defs>
<polyline clip-path="url(#clip372)" style="stroke:#000000; stroke-linecap:round; stroke-linejoin:round; stroke-width:2; stroke-opacity:0.1; fill:none" points="233.734,1486.45 233.734,47.2441 "/>
<polyline clip-path="url(#clip372)" style="stroke:#000000; stroke-linecap:round; stroke-linejoin:round; stroke-width:2; stroke-opacity:0.1; fill:none" points="748.06,1486.45 748.06,47.2441 "/>
<polyline clip-path="url(#clip372)" style="stroke:#000000; stroke-linecap:round; stroke-linejoin:round; stroke-width:2; stroke-opacity:0.1; fill:none" points="1262.39,1486.45 1262.39,47.2441 "/>
<polyline clip-path="url(#clip372)" style="stroke:#000000; stroke-linecap:round; stroke-linejoin:round; stroke-width:2; stroke-opacity:0.1; fill:none" points="1776.71,1486.45 1776.71,47.2441 "/>
<polyline clip-path="url(#clip372)" style="stroke:#000000; stroke-linecap:round; stroke-linejoin:round; stroke-width:2; stroke-opacity:0.1; fill:none" points="2291.04,1486.45 2291.04,47.2441 "/>
<polyline clip-path="url(#clip370)" style="stroke:#000000; stroke-linecap:round; stroke-linejoin:round; stroke-width:4; stroke-opacity:1; fill:none" points="172.015,1486.45 2352.76,1486.45 "/>
<polyline clip-path="url(#clip370)" style="stroke:#000000; stroke-linecap:round; stroke-linejoin:round; stroke-width:4; stroke-opacity:1; fill:none" points="233.734,1486.45 233.734,1467.55 "/>
<polyline clip-path="url(#clip370)" style="stroke:#000000; stroke-linecap:round; stroke-linejoin:round; stroke-width:4; stroke-opacity:1; fill:none" points="748.06,1486.45 748.06,1467.55 "/>
<polyline clip-path="url(#clip370)" style="stroke:#000000; stroke-linecap:round; stroke-linejoin:round; stroke-width:4; stroke-opacity:1; fill:none" points="1262.39,1486.45 1262.39,1467.55 "/>
<polyline clip-path="url(#clip370)" style="stroke:#000000; stroke-linecap:round; stroke-linejoin:round; stroke-width:4; stroke-opacity:1; fill:none" points="1776.71,1486.45 1776.71,1467.55 "/>
<polyline clip-path="url(#clip370)" style="stroke:#000000; stroke-linecap:round; stroke-linejoin:round; stroke-width:4; stroke-opacity:1; fill:none" points="2291.04,1486.45 2291.04,1467.55 "/>
<path clip-path="url(#clip370)" d="M233.734 1517.37 Q230.123 1517.37 228.294 1520.93 Q226.489 1524.47 226.489 1531.6 Q226.489 1538.71 228.294 1542.27 Q230.123 1545.82 233.734 1545.82 Q237.368 1545.82 239.174 1542.27 Q241.002 1538.71 241.002 1531.6 Q241.002 1524.47 239.174 1520.93 Q237.368 1517.37 233.734 1517.37 M233.734 1513.66 Q239.544 1513.66 242.6 1518.27 Q245.678 1522.85 245.678 1531.6 Q245.678 1540.33 242.6 1544.94 Q239.544 1549.52 233.734 1549.52 Q227.924 1549.52 224.845 1544.94 Q221.79 1540.33 221.79 1531.6 Q221.79 1522.85 224.845 1518.27 Q227.924 1513.66 233.734 1513.66 Z" fill="#000000" fill-rule="nonzero" fill-opacity="1" /><path clip-path="url(#clip370)" d="M707.678 1514.29 L726.034 1514.29 L726.034 1518.22 L711.96 1518.22 L711.96 1526.7 Q712.979 1526.35 713.997 1526.19 Q715.016 1526 716.034 1526 Q721.821 1526 725.201 1529.17 Q728.581 1532.34 728.581 1537.76 Q728.581 1543.34 725.108 1546.44 Q721.636 1549.52 715.317 1549.52 Q713.141 1549.52 710.872 1549.15 Q708.627 1548.78 706.22 1548.04 L706.22 1543.34 Q708.303 1544.47 710.525 1545.03 Q712.747 1545.58 715.224 1545.58 Q719.229 1545.58 721.567 1543.48 Q723.905 1541.37 723.905 1537.76 Q723.905 1534.15 721.567 1532.04 Q719.229 1529.94 715.224 1529.94 Q713.349 1529.94 711.474 1530.35 Q709.622 1530.77 707.678 1531.65 L707.678 1514.29 Z" fill="#000000" fill-rule="nonzero" fill-opacity="1" /><path clip-path="url(#clip370)" d="M747.793 1517.37 Q744.182 1517.37 742.354 1520.93 Q740.548 1524.47 740.548 1531.6 Q740.548 1538.71 742.354 1542.27 Q744.182 1545.82 747.793 1545.82 Q751.428 1545.82 753.233 1542.27 Q755.062 1538.71 755.062 1531.6 Q755.062 1524.47 753.233 1520.93 Q751.428 1517.37 747.793 1517.37 M747.793 1513.66 Q753.604 1513.66 756.659 1518.27 Q759.738 1522.85 759.738 1531.6 Q759.738 1540.33 756.659 1544.94 Q753.604 1549.52 747.793 1549.52 Q741.983 1549.52 738.905 1544.94 Q735.849 1540.33 735.849 1531.6 Q735.849 1522.85 738.905 1518.27 Q741.983 1513.66 747.793 1513.66 Z" fill="#000000" fill-rule="nonzero" fill-opacity="1" /><path clip-path="url(#clip370)" d="M777.955 1517.37 Q774.344 1517.37 772.516 1520.93 Q770.71 1524.47 770.71 1531.6 Q770.71 1538.71 772.516 1542.27 Q774.344 1545.82 777.955 1545.82 Q781.59 1545.82 783.395 1542.27 Q785.224 1538.71 785.224 1531.6 Q785.224 1524.47 783.395 1520.93 Q781.59 1517.37 777.955 1517.37 M777.955 1513.66 Q783.765 1513.66 786.821 1518.27 Q789.9 1522.85 789.9 1531.6 Q789.9 1540.33 786.821 1544.94 Q783.765 1549.52 777.955 1549.52 Q772.145 1549.52 769.066 1544.94 Q766.011 1540.33 766.011 1531.6 Q766.011 1522.85 769.066 1518.27 Q772.145 1513.66 777.955 1513.66 Z" fill="#000000" fill-rule="nonzero" fill-opacity="1" /><path clip-path="url(#clip370)" d="M1206.91 1544.91 L1214.55 1544.91 L1214.55 1518.55 L1206.24 1520.21 L1206.24 1515.95 L1214.5 1514.29 L1219.18 1514.29 L1219.18 1544.91 L1226.82 1544.91 L1226.82 1548.85 L1206.91 1548.85 L1206.91 1544.91 Z" fill="#000000" fill-rule="nonzero" fill-opacity="1" /><path clip-path="url(#clip370)" d="M1246.26 1517.37 Q1242.65 1517.37 1240.82 1520.93 Q1239.02 1524.47 1239.02 1531.6 Q1239.02 1538.71 1240.82 1542.27 Q1242.65 1545.82 1246.26 1545.82 Q1249.9 1545.82 1251.7 1542.27 Q1253.53 1538.71 1253.53 1531.6 Q1253.53 1524.47 1251.7 1520.93 Q1249.9 1517.37 1246.26 1517.37 M1246.26 1513.66 Q1252.07 1513.66 1255.13 1518.27 Q1258.21 1522.85 1258.21 1531.6 Q1258.21 1540.33 1255.13 1544.94 Q1252.07 1549.52 1246.26 1549.52 Q1240.45 1549.52 1237.37 1544.94 Q1234.32 1540.33 1234.32 1531.6 Q1234.32 1522.85 1237.37 1518.27 Q1240.45 1513.66 1246.26 1513.66 Z" fill="#000000" fill-rule="nonzero" fill-opacity="1" /><path clip-path="url(#clip370)" d="M1276.42 1517.37 Q1272.81 1517.37 1270.98 1520.93 Q1269.18 1524.47 1269.18 1531.6 Q1269.18 1538.71 1270.98 1542.27 Q1272.81 1545.82 1276.42 1545.82 Q1280.06 1545.82 1281.86 1542.27 Q1283.69 1538.71 1283.69 1531.6 Q1283.69 1524.47 1281.86 1520.93 Q1280.06 1517.37 1276.42 1517.37 M1276.42 1513.66 Q1282.23 1513.66 1285.29 1518.27 Q1288.37 1522.85 1288.37 1531.6 Q1288.37 1540.33 1285.29 1544.94 Q1282.23 1549.52 1276.42 1549.52 Q1270.61 1549.52 1267.54 1544.94 Q1264.48 1540.33 1264.48 1531.6 Q1264.48 1522.85 1267.54 1518.27 Q1270.61 1513.66 1276.42 1513.66 Z" fill="#000000" fill-rule="nonzero" fill-opacity="1" /><path clip-path="url(#clip370)" d="M1306.59 1517.37 Q1302.98 1517.37 1301.15 1520.93 Q1299.34 1524.47 1299.34 1531.6 Q1299.34 1538.71 1301.15 1542.27 Q1302.98 1545.82 1306.59 1545.82 Q1310.22 1545.82 1312.03 1542.27 Q1313.85 1538.71 1313.85 1531.6 Q1313.85 1524.47 1312.03 1520.93 Q1310.22 1517.37 1306.59 1517.37 M1306.59 1513.66 Q1312.4 1513.66 1315.45 1518.27 Q1318.53 1522.85 1318.53 1531.6 Q1318.53 1540.33 1315.45 1544.94 Q1312.4 1549.52 1306.59 1549.52 Q1300.78 1549.52 1297.7 1544.94 Q1294.64 1540.33 1294.64 1531.6 Q1294.64 1522.85 1297.7 1518.27 Q1300.78 1513.66 1306.59 1513.66 Z" fill="#000000" fill-rule="nonzero" fill-opacity="1" /><path clip-path="url(#clip370)" d="M1721.24 1544.91 L1728.88 1544.91 L1728.88 1518.55 L1720.57 1520.21 L1720.57 1515.95 L1728.83 1514.29 L1733.51 1514.29 L1733.51 1544.91 L1741.14 1544.91 L1741.14 1548.85 L1721.24 1548.85 L1721.24 1544.91 Z" fill="#000000" fill-rule="nonzero" fill-opacity="1" /><path clip-path="url(#clip370)" d="M1750.63 1514.29 L1768.99 1514.29 L1768.99 1518.22 L1754.92 1518.22 L1754.92 1526.7 Q1755.94 1526.35 1756.95 1526.19 Q1757.97 1526 1758.99 1526 Q1764.78 1526 1768.16 1529.17 Q1771.54 1532.34 1771.54 1537.76 Q1771.54 1543.34 1768.07 1546.44 Q1764.59 1549.52 1758.27 1549.52 Q1756.1 1549.52 1753.83 1549.15 Q1751.58 1548.78 1749.18 1548.04 L1749.18 1543.34 Q1751.26 1544.47 1753.48 1545.03 Q1755.7 1545.58 1758.18 1545.58 Q1762.19 1545.58 1764.52 1543.48 Q1766.86 1541.37 1766.86 1537.76 Q1766.86 1534.15 1764.52 1532.04 Q1762.19 1529.94 1758.18 1529.94 Q1756.31 1529.94 1754.43 1530.35 Q1752.58 1530.77 1750.63 1531.65 L1750.63 1514.29 Z" fill="#000000" fill-rule="nonzero" fill-opacity="1" /><path clip-path="url(#clip370)" d="M1790.75 1517.37 Q1787.14 1517.37 1785.31 1520.93 Q1783.51 1524.47 1783.51 1531.6 Q1783.51 1538.71 1785.31 1542.27 Q1787.14 1545.82 1790.75 1545.82 Q1794.38 1545.82 1796.19 1542.27 Q1798.02 1538.71 1798.02 1531.6 Q1798.02 1524.47 1796.19 1520.93 Q1794.38 1517.37 1790.75 1517.37 M1790.75 1513.66 Q1796.56 1513.66 1799.62 1518.27 Q1802.69 1522.85 1802.69 1531.6 Q1802.69 1540.33 1799.62 1544.94 Q1796.56 1549.52 1790.75 1549.52 Q1784.94 1549.52 1781.86 1544.94 Q1778.81 1540.33 1778.81 1531.6 Q1778.81 1522.85 1781.86 1518.27 Q1784.94 1513.66 1790.75 1513.66 Z" fill="#000000" fill-rule="nonzero" fill-opacity="1" /><path clip-path="url(#clip370)" d="M1820.91 1517.37 Q1817.3 1517.37 1815.47 1520.93 Q1813.67 1524.47 1813.67 1531.6 Q1813.67 1538.71 1815.47 1542.27 Q1817.3 1545.82 1820.91 1545.82 Q1824.55 1545.82 1826.35 1542.27 Q1828.18 1538.71 1828.18 1531.6 Q1828.18 1524.47 1826.35 1520.93 Q1824.55 1517.37 1820.91 1517.37 M1820.91 1513.66 Q1826.72 1513.66 1829.78 1518.27 Q1832.86 1522.85 1832.86 1531.6 Q1832.86 1540.33 1829.78 1544.94 Q1826.72 1549.52 1820.91 1549.52 Q1815.1 1549.52 1812.02 1544.94 Q1808.97 1540.33 1808.97 1531.6 Q1808.97 1522.85 1812.02 1518.27 Q1815.1 1513.66 1820.91 1513.66 Z" fill="#000000" fill-rule="nonzero" fill-opacity="1" /><path clip-path="url(#clip370)" d="M2239.65 1544.91 L2255.97 1544.91 L2255.97 1548.85 L2234.02 1548.85 L2234.02 1544.91 Q2236.69 1542.16 2241.27 1537.53 Q2245.88 1532.88 2247.06 1531.53 Q2249.3 1529.01 2250.18 1527.27 Q2251.08 1525.51 2251.08 1523.82 Q2251.08 1521.07 2249.14 1519.33 Q2247.22 1517.6 2244.12 1517.6 Q2241.92 1517.6 2239.46 1518.36 Q2237.03 1519.13 2234.25 1520.68 L2234.25 1515.95 Q2237.08 1514.82 2239.53 1514.24 Q2241.99 1513.66 2244.02 1513.66 Q2249.39 1513.66 2252.59 1516.35 Q2255.78 1519.03 2255.78 1523.52 Q2255.78 1525.65 2254.97 1527.57 Q2254.19 1529.47 2252.08 1532.07 Q2251.5 1532.74 2248.4 1535.95 Q2245.3 1539.15 2239.65 1544.91 Z" fill="#000000" fill-rule="nonzero" fill-opacity="1" /><path clip-path="url(#clip370)" d="M2275.78 1517.37 Q2272.17 1517.37 2270.34 1520.93 Q2268.54 1524.47 2268.54 1531.6 Q2268.54 1538.71 2270.34 1542.27 Q2272.17 1545.82 2275.78 1545.82 Q2279.42 1545.82 2281.22 1542.27 Q2283.05 1538.71 2283.05 1531.6 Q2283.05 1524.47 2281.22 1520.93 Q2279.42 1517.37 2275.78 1517.37 M2275.78 1513.66 Q2281.59 1513.66 2284.65 1518.27 Q2287.73 1522.85 2287.73 1531.6 Q2287.73 1540.33 2284.65 1544.94 Q2281.59 1549.52 2275.78 1549.52 Q2269.97 1549.52 2266.89 1544.94 Q2263.84 1540.33 2263.84 1531.6 Q2263.84 1522.85 2266.89 1518.27 Q2269.97 1513.66 2275.78 1513.66 Z" fill="#000000" fill-rule="nonzero" fill-opacity="1" /><path clip-path="url(#clip370)" d="M2305.94 1517.37 Q2302.33 1517.37 2300.5 1520.93 Q2298.7 1524.47 2298.7 1531.6 Q2298.7 1538.71 2300.5 1542.27 Q2302.33 1545.82 2305.94 1545.82 Q2309.58 1545.82 2311.38 1542.27 Q2313.21 1538.71 2313.21 1531.6 Q2313.21 1524.47 2311.38 1520.93 Q2309.58 1517.37 2305.94 1517.37 M2305.94 1513.66 Q2311.75 1513.66 2314.81 1518.27 Q2317.89 1522.85 2317.89 1531.6 Q2317.89 1540.33 2314.81 1544.94 Q2311.75 1549.52 2305.94 1549.52 Q2300.13 1549.52 2297.06 1544.94 Q2294 1540.33 2294 1531.6 Q2294 1522.85 2297.06 1518.27 Q2300.13 1513.66 2305.94 1513.66 Z" fill="#000000" fill-rule="nonzero" fill-opacity="1" /><path clip-path="url(#clip370)" d="M2336.11 1517.37 Q2332.49 1517.37 2330.67 1520.93 Q2328.86 1524.47 2328.86 1531.6 Q2328.86 1538.71 2330.67 1542.27 Q2332.49 1545.82 2336.11 1545.82 Q2339.74 1545.82 2341.55 1542.27 Q2343.37 1538.71 2343.37 1531.6 Q2343.37 1524.47 2341.55 1520.93 Q2339.74 1517.37 2336.11 1517.37 M2336.11 1513.66 Q2341.92 1513.66 2344.97 1518.27 Q2348.05 1522.85 2348.05 1531.6 Q2348.05 1540.33 2344.97 1544.94 Q2341.92 1549.52 2336.11 1549.52 Q2330.3 1549.52 2327.22 1544.94 Q2324.16 1540.33 2324.16 1531.6 Q2324.16 1522.85 2327.22 1518.27 Q2330.3 1513.66 2336.11 1513.66 Z" fill="#000000" fill-rule="nonzero" fill-opacity="1" /><polyline clip-path="url(#clip372)" style="stroke:#000000; stroke-linecap:round; stroke-linejoin:round; stroke-width:2; stroke-opacity:0.1; fill:none" points="172.015,1185.17 2352.76,1185.17 "/>
<polyline clip-path="url(#clip372)" style="stroke:#000000; stroke-linecap:round; stroke-linejoin:round; stroke-width:2; stroke-opacity:0.1; fill:none" points="172.015,813.458 2352.76,813.458 "/>
<polyline clip-path="url(#clip372)" style="stroke:#000000; stroke-linecap:round; stroke-linejoin:round; stroke-width:2; stroke-opacity:0.1; fill:none" points="172.015,441.742 2352.76,441.742 "/>
<polyline clip-path="url(#clip372)" style="stroke:#000000; stroke-linecap:round; stroke-linejoin:round; stroke-width:2; stroke-opacity:0.1; fill:none" points="172.015,70.0259 2352.76,70.0259 "/>
<polyline clip-path="url(#clip370)" style="stroke:#000000; stroke-linecap:round; stroke-linejoin:round; stroke-width:4; stroke-opacity:1; fill:none" points="172.015,1486.45 172.015,47.2441 "/>
<polyline clip-path="url(#clip370)" style="stroke:#000000; stroke-linecap:round; stroke-linejoin:round; stroke-width:4; stroke-opacity:1; fill:none" points="172.015,1185.17 190.912,1185.17 "/>
<polyline clip-path="url(#clip370)" style="stroke:#000000; stroke-linecap:round; stroke-linejoin:round; stroke-width:4; stroke-opacity:1; fill:none" points="172.015,813.458 190.912,813.458 "/>
<polyline clip-path="url(#clip370)" style="stroke:#000000; stroke-linecap:round; stroke-linejoin:round; stroke-width:4; stroke-opacity:1; fill:none" points="172.015,441.742 190.912,441.742 "/>
<polyline clip-path="url(#clip370)" style="stroke:#000000; stroke-linecap:round; stroke-linejoin:round; stroke-width:4; stroke-opacity:1; fill:none" points="172.015,70.0259 190.912,70.0259 "/>
<path clip-path="url(#clip370)" d="M66.5939 1171.97 L54.7884 1190.42 L66.5939 1190.42 L66.5939 1171.97 M65.367 1167.89 L71.2466 1167.89 L71.2466 1190.42 L76.1772 1190.42 L76.1772 1194.31 L71.2466 1194.31 L71.2466 1202.45 L66.5939 1202.45 L66.5939 1194.31 L50.9921 1194.31 L50.9921 1189.79 L65.367 1167.89 Z" fill="#000000" fill-rule="nonzero" fill-opacity="1" /><path clip-path="url(#clip370)" d="M93.9086 1170.97 Q90.2975 1170.97 88.4688 1174.54 Q86.6632 1178.08 86.6632 1185.21 Q86.6632 1192.32 88.4688 1195.88 Q90.2975 1199.42 93.9086 1199.42 Q97.5428 1199.42 99.3483 1195.88 Q101.177 1192.32 101.177 1185.21 Q101.177 1178.08 99.3483 1174.54 Q97.5428 1170.97 93.9086 1170.97 M93.9086 1167.27 Q99.7187 1167.27 102.774 1171.88 Q105.853 1176.46 105.853 1185.21 Q105.853 1193.94 102.774 1198.54 Q99.7187 1203.13 93.9086 1203.13 Q88.0984 1203.13 85.0197 1198.54 Q81.9642 1193.94 81.9642 1185.21 Q81.9642 1176.46 85.0197 1171.88 Q88.0984 1167.27 93.9086 1167.27 Z" fill="#000000" fill-rule="nonzero" fill-opacity="1" /><path clip-path="url(#clip370)" d="M124.07 1170.97 Q120.459 1170.97 118.631 1174.54 Q116.825 1178.08 116.825 1185.21 Q116.825 1192.32 118.631 1195.88 Q120.459 1199.42 124.07 1199.42 Q127.705 1199.42 129.51 1195.88 Q131.339 1192.32 131.339 1185.21 Q131.339 1178.08 129.51 1174.54 Q127.705 1170.97 124.07 1170.97 M124.07 1167.27 Q129.881 1167.27 132.936 1171.88 Q136.015 1176.46 136.015 1185.21 Q136.015 1193.94 132.936 1198.54 Q129.881 1203.13 124.07 1203.13 Q118.26 1203.13 115.182 1198.54 Q112.126 1193.94 112.126 1185.21 Q112.126 1176.46 115.182 1171.88 Q118.26 1167.27 124.07 1167.27 Z" fill="#000000" fill-rule="nonzero" fill-opacity="1" /><path clip-path="url(#clip370)" d="M53.793 796.178 L72.1494 796.178 L72.1494 800.113 L58.0754 800.113 L58.0754 808.585 Q59.0939 808.238 60.1124 808.076 Q61.131 807.891 62.1495 807.891 Q67.9365 807.891 71.3161 811.062 Q74.6957 814.234 74.6957 819.65 Q74.6957 825.229 71.2235 828.331 Q67.7513 831.409 61.4319 831.409 Q59.256 831.409 56.9875 831.039 Q54.7421 830.669 52.3347 829.928 L52.3347 825.229 Q54.418 826.363 56.6402 826.919 Q58.8625 827.474 61.3393 827.474 Q65.3439 827.474 67.6819 825.368 Q70.0198 823.261 70.0198 819.65 Q70.0198 816.039 67.6819 813.933 Q65.3439 811.826 61.3393 811.826 Q59.4643 811.826 57.5893 812.243 Q55.7375 812.66 53.793 813.539 L53.793 796.178 Z" fill="#000000" fill-rule="nonzero" fill-opacity="1" /><path clip-path="url(#clip370)" d="M93.9086 799.257 Q90.2975 799.257 88.4688 802.822 Q86.6632 806.363 86.6632 813.493 Q86.6632 820.599 88.4688 824.164 Q90.2975 827.706 93.9086 827.706 Q97.5428 827.706 99.3483 824.164 Q101.177 820.599 101.177 813.493 Q101.177 806.363 99.3483 802.822 Q97.5428 799.257 93.9086 799.257 M93.9086 795.553 Q99.7187 795.553 102.774 800.16 Q105.853 804.743 105.853 813.493 Q105.853 822.22 102.774 826.826 Q99.7187 831.409 93.9086 831.409 Q88.0984 831.409 85.0197 826.826 Q81.9642 822.22 81.9642 813.493 Q81.9642 804.743 85.0197 800.16 Q88.0984 795.553 93.9086 795.553 Z" fill="#000000" fill-rule="nonzero" fill-opacity="1" /><path clip-path="url(#clip370)" d="M124.07 799.257 Q120.459 799.257 118.631 802.822 Q116.825 806.363 116.825 813.493 Q116.825 820.599 118.631 824.164 Q120.459 827.706 124.07 827.706 Q127.705 827.706 129.51 824.164 Q131.339 820.599 131.339 813.493 Q131.339 806.363 129.51 802.822 Q127.705 799.257 124.07 799.257 M124.07 795.553 Q129.881 795.553 132.936 800.16 Q136.015 804.743 136.015 813.493 Q136.015 822.22 132.936 826.826 Q129.881 831.409 124.07 831.409 Q118.26 831.409 115.182 826.826 Q112.126 822.22 112.126 813.493 Q112.126 804.743 115.182 800.16 Q118.26 795.553 124.07 795.553 Z" fill="#000000" fill-rule="nonzero" fill-opacity="1" /><path clip-path="url(#clip370)" d="M64.3254 439.879 Q61.1773 439.879 59.3254 442.031 Q57.4967 444.184 57.4967 447.934 Q57.4967 451.661 59.3254 453.837 Q61.1773 455.99 64.3254 455.99 Q67.4735 455.99 69.3022 453.837 Q71.1541 451.661 71.1541 447.934 Q71.1541 444.184 69.3022 442.031 Q67.4735 439.879 64.3254 439.879 M73.6077 425.226 L73.6077 429.485 Q71.8485 428.652 70.0429 428.212 Q68.2606 427.772 66.5013 427.772 Q61.8717 427.772 59.418 430.897 Q56.9875 434.022 56.6402 440.342 Q58.006 438.328 60.0662 437.263 Q62.1263 436.175 64.6032 436.175 Q69.8115 436.175 72.8207 439.346 Q75.8531 442.494 75.8531 447.934 Q75.8531 453.258 72.705 456.476 Q69.5568 459.693 64.3254 459.693 Q58.33 459.693 55.1588 455.11 Q51.9875 450.504 51.9875 441.777 Q51.9875 433.582 55.8764 428.721 Q59.7652 423.837 66.3161 423.837 Q68.0754 423.837 69.8578 424.184 Q71.6633 424.531 73.6077 425.226 Z" fill="#000000" fill-rule="nonzero" fill-opacity="1" /><path clip-path="url(#clip370)" d="M93.9086 427.541 Q90.2975 427.541 88.4688 431.106 Q86.6632 434.647 86.6632 441.777 Q86.6632 448.883 88.4688 452.448 Q90.2975 455.99 93.9086 455.99 Q97.5428 455.99 99.3483 452.448 Q101.177 448.883 101.177 441.777 Q101.177 434.647 99.3483 431.106 Q97.5428 427.541 93.9086 427.541 M93.9086 423.837 Q99.7187 423.837 102.774 428.443 Q105.853 433.027 105.853 441.777 Q105.853 450.504 102.774 455.11 Q99.7187 459.693 93.9086 459.693 Q88.0984 459.693 85.0197 455.11 Q81.9642 450.504 81.9642 441.777 Q81.9642 433.027 85.0197 428.443 Q88.0984 423.837 93.9086 423.837 Z" fill="#000000" fill-rule="nonzero" fill-opacity="1" /><path clip-path="url(#clip370)" d="M124.07 427.541 Q120.459 427.541 118.631 431.106 Q116.825 434.647 116.825 441.777 Q116.825 448.883 118.631 452.448 Q120.459 455.99 124.07 455.99 Q127.705 455.99 129.51 452.448 Q131.339 448.883 131.339 441.777 Q131.339 434.647 129.51 431.106 Q127.705 427.541 124.07 427.541 M124.07 423.837 Q129.881 423.837 132.936 428.443 Q136.015 433.027 136.015 441.777 Q136.015 450.504 132.936 455.11 Q129.881 459.693 124.07 459.693 Q118.26 459.693 115.182 455.11 Q112.126 450.504 112.126 441.777 Q112.126 433.027 115.182 428.443 Q118.26 423.837 124.07 423.837 Z" fill="#000000" fill-rule="nonzero" fill-opacity="1" /><path clip-path="url(#clip370)" d="M52.5662 52.7459 L74.7883 52.7459 L74.7883 54.7367 L62.2421 87.3059 L57.3578 87.3059 L69.1633 56.6811 L52.5662 56.6811 L52.5662 52.7459 Z" fill="#000000" fill-rule="nonzero" fill-opacity="1" /><path clip-path="url(#clip370)" d="M93.9086 55.8246 Q90.2975 55.8246 88.4688 59.3894 Q86.6632 62.9311 86.6632 70.0607 Q86.6632 77.1671 88.4688 80.7319 Q90.2975 84.2736 93.9086 84.2736 Q97.5428 84.2736 99.3483 80.7319 Q101.177 77.1671 101.177 70.0607 Q101.177 62.9311 99.3483 59.3894 Q97.5428 55.8246 93.9086 55.8246 M93.9086 52.1209 Q99.7187 52.1209 102.774 56.7274 Q105.853 61.3107 105.853 70.0607 Q105.853 78.7875 102.774 83.3939 Q99.7187 87.9772 93.9086 87.9772 Q88.0984 87.9772 85.0197 83.3939 Q81.9642 78.7875 81.9642 70.0607 Q81.9642 61.3107 85.0197 56.7274 Q88.0984 52.1209 93.9086 52.1209 Z" fill="#000000" fill-rule="nonzero" fill-opacity="1" /><path clip-path="url(#clip370)" d="M124.07 55.8246 Q120.459 55.8246 118.631 59.3894 Q116.825 62.9311 116.825 70.0607 Q116.825 77.1671 118.631 80.7319 Q120.459 84.2736 124.07 84.2736 Q127.705 84.2736 129.51 80.7319 Q131.339 77.1671 131.339 70.0607 Q131.339 62.9311 129.51 59.3894 Q127.705 55.8246 124.07 55.8246 M124.07 52.1209 Q129.881 52.1209 132.936 56.7274 Q136.015 61.3107 136.015 70.0607 Q136.015 78.7875 132.936 83.3939 Q129.881 87.9772 124.07 87.9772 Q118.26 87.9772 115.182 83.3939 Q112.126 78.7875 112.126 70.0607 Q112.126 61.3107 115.182 56.7274 Q118.26 52.1209 124.07 52.1209 Z" fill="#000000" fill-rule="nonzero" fill-opacity="1" /><polyline clip-path="url(#clip372)" style="stroke:#009af9; stroke-linecap:round; stroke-linejoin:round; stroke-width:4; stroke-opacity:1; fill:none" points="233.734,87.9763 234.763,467.02 235.791,680.663 236.82,821.969 237.849,912.831 238.877,987.607 239.906,1051.36 240.934,1106.2 241.963,1153.5 242.992,1194.32 244.02,1229.5 245.049,1259.8 246.078,1285.86 247.106,1306.94 248.135,1323.59 249.164,1337.89 250.192,1350.19 251.221,1360.8 252.25,1369.99 253.278,1377.88 254.307,1384.57 255.336,1390.42 256.364,1395.55 257.393,1400.06 258.422,1404.03 259.45,1407.55 260.479,1410.66 261.507,1413.44 262.536,1415.92 263.565,1418.14 264.593,1420.14 265.622,1421.94 266.651,1423.56 267.679,1425.03 268.708,1426.37 269.737,1427.58 270.765,1428.69 271.794,1429.71 272.823,1430.63 273.851,1431.49 274.88,1432.27 275.909,1432.99 276.937,1433.66 277.966,1434.28 278.995,1434.85 280.023,1435.38 281.052,1435.87 282.081,1436.33 283.109,1436.76 284.138,1437.15 285.166,1437.53 286.195,1437.87 287.224,1438.2 288.252,1438.51 289.281,1438.79 290.31,1439.06 291.338,1439.32 292.367,1439.55 293.396,1439.78 294.424,1439.99 295.453,1440.19 296.482,1440.38 297.51,1440.56 298.539,1440.74 299.568,1440.9 300.596,1441.05 301.625,1441.2 302.654,1441.34 303.682,1441.47 304.711,1441.6 305.74,1441.72 306.768,1441.83 307.797,1441.94 308.825,1442.05 309.854,1442.15 310.883,1442.25 311.911,1442.34 312.94,1442.43 313.969,1442.51 314.997,1442.59 316.026,1442.67 317.055,1442.75 318.083,1442.82 319.112,1442.89 320.141,1442.96 321.169,1443.02 322.198,1443.09 323.227,1443.15 324.255,1443.21 325.284,1443.26 326.313,1443.32 327.341,1443.37 328.37,1443.42 329.398,1443.47 330.427,1443.52 331.456,1443.56 332.484,1443.61 333.513,1443.65 334.542,1443.7 335.57,1443.74 336.599,1443.78 337.628,1443.81 338.656,1443.85 339.685,1443.89 340.714,1443.92 341.742,1443.96 342.771,1443.99 343.8,1444.02 344.828,1444.06 345.857,1444.09 346.886,1444.12 347.914,1444.15 348.943,1444.18 349.972,1444.2 351,1444.23 352.029,1444.26 353.057,1444.28 354.086,1444.31 355.115,1444.34 356.143,1444.36 357.172,1444.38 358.201,1444.41 359.229,1444.43 360.258,1444.45 361.287,1444.47 362.315,1444.49 363.344,1444.52 364.373,1444.54 365.401,1444.56 366.43,1444.58 367.459,1444.6 368.487,1444.61 369.516,1444.63 370.545,1444.65 371.573,1444.67 372.602,1444.69 373.631,1444.7 374.659,1444.72 375.688,1444.74 376.716,1444.75 377.745,1444.77 378.774,1444.78 379.802,1444.8 380.831,1444.81 381.86,1444.83 382.888,1444.84 383.917,1444.86 384.946,1444.87 385.974,1444.89 387.003,1444.9 388.032,1444.91 389.06,1444.93 390.089,1444.94 391.118,1444.95 392.146,1444.96 393.175,1444.98 394.204,1444.99 395.232,1445 396.261,1445.01 397.289,1445.02 398.318,1445.04 399.347,1445.05 400.375,1445.06 401.404,1445.07 402.433,1445.08 403.461,1445.09 404.49,1445.1 405.519,1445.11 406.547,1445.12 407.576,1445.13 408.605,1445.14 409.633,1445.15 410.662,1445.16 411.691,1445.17 412.719,1445.18 413.748,1445.18 414.777,1445.19 415.805,1445.2 416.834,1445.21 417.863,1445.22 418.891,1445.23 419.92,1445.23 420.948,1445.24 421.977,1445.25 423.006,1445.26 424.034,1445.27 425.063,1445.27 426.092,1445.28 427.12,1445.29 428.149,1445.29 429.178,1445.3 430.206,1445.31 431.235,1445.32 432.264,1445.32 433.292,1445.33 434.321,1445.33 435.35,1445.34 436.378,1445.35 437.407,1445.35 438.436,1445.36 439.464,1445.37 440.493,1445.37 441.522,1445.38 442.55,1445.38 443.579,1445.39 444.607,1445.39 445.636,1445.4 446.665,1445.4 447.693,1445.41 448.722,1445.41 449.751,1445.42 450.779,1445.42 451.808,1445.43 452.837,1445.43 453.865,1445.44 454.894,1445.44 455.923,1445.45 456.951,1445.45 457.98,1445.46 459.009,1445.46 460.037,1445.47 461.066,1445.47 462.095,1445.47 463.123,1445.48 464.152,1445.48 465.18,1445.49 466.209,1445.49 467.238,1445.49 468.266,1445.5 469.295,1445.5 470.324,1445.51 471.352,1445.51 472.381,1445.51 473.41,1445.52 474.438,1445.52 475.467,1445.52 476.496,1445.53 477.524,1445.53 478.553,1445.53 479.582,1445.53 480.61,1445.54 481.639,1445.54 482.668,1445.54 483.696,1445.55 484.725,1445.55 485.754,1445.55 486.782,1445.55 487.811,1445.56 488.839,1445.56 489.868,1445.56 490.897,1445.56 491.925,1445.57 492.954,1445.57 493.983,1445.57 495.011,1445.57 496.04,1445.58 497.069,1445.58 498.097,1445.58 499.126,1445.58 500.155,1445.59 501.183,1445.59 502.212,1445.59 503.241,1445.59 504.269,1445.59 505.298,1445.6 506.327,1445.6 507.355,1445.6 508.384,1445.6 509.412,1445.6 510.441,1445.6 511.47,1445.61 512.498,1445.61 513.527,1445.61 514.556,1445.61 515.584,1445.61 516.613,1445.61 517.642,1445.62 518.67,1445.62 519.699,1445.62 520.728,1445.62 521.756,1445.62 522.785,1445.62 523.814,1445.63 524.842,1445.63 525.871,1445.63 526.9,1445.63 527.928,1445.63 528.957,1445.63 529.986,1445.63 531.014,1445.63 532.043,1445.64 533.071,1445.64 534.1,1445.64 535.129,1445.64 536.157,1445.64 537.186,1445.64 538.215,1445.64 539.243,1445.64 540.272,1445.64 541.301,1445.65 542.329,1445.65 543.358,1445.65 544.387,1445.65 545.415,1445.65 546.444,1445.65 547.473,1445.65 548.501,1445.65 549.53,1445.65 550.559,1445.65 551.587,1445.66 552.616,1445.66 553.645,1445.66 554.673,1445.66 555.702,1445.66 556.73,1445.66 557.759,1445.66 558.788,1445.66 559.816,1445.66 560.845,1445.66 561.874,1445.66 562.902,1445.66 563.931,1445.66 564.96,1445.67 565.988,1445.67 567.017,1445.67 568.046,1445.67 569.074,1445.67 570.103,1445.67 571.132,1445.67 572.16,1445.67 573.189,1445.67 574.218,1445.67 575.246,1445.67 576.275,1445.67 577.303,1445.67 578.332,1445.67 579.361,1445.67 580.389,1445.67 581.418,1445.67 582.447,1445.68 583.475,1445.68 584.504,1445.68 585.533,1445.68 586.561,1445.68 587.59,1445.68 588.619,1445.68 589.647,1445.68 590.676,1445.68 591.705,1445.68 592.733,1445.68 593.762,1445.68 594.791,1445.68 595.819,1445.68 596.848,1445.68 597.877,1445.68 598.905,1445.68 599.934,1445.68 600.962,1445.68 601.991,1445.68 603.02,1445.68 604.048,1445.68 605.077,1445.68 606.106,1445.68 607.134,1445.68 608.163,1445.69 609.192,1445.69 610.22,1445.69 611.249,1445.69 612.278,1445.69 613.306,1445.69 614.335,1445.69 615.364,1445.69 616.392,1445.69 617.421,1445.69 618.45,1445.69 619.478,1445.69 620.507,1445.69 621.536,1445.69 622.564,1445.69 623.593,1445.69 624.621,1445.69 625.65,1445.69 626.679,1445.69 627.707,1445.69 628.736,1445.69 629.765,1445.69 630.793,1445.69 631.822,1445.69 632.851,1445.69 633.879,1445.69 634.908,1445.69 635.937,1445.69 636.965,1445.69 637.994,1445.69 639.023,1445.69 640.051,1445.69 641.08,1445.69 642.109,1445.69 643.137,1445.69 644.166,1445.69 645.194,1445.69 646.223,1445.69 647.252,1445.69 648.28,1445.69 649.309,1445.69 650.338,1445.69 651.366,1445.69 652.395,1445.69 653.424,1445.69 654.452,1445.69 655.481,1445.69 656.51,1445.69 657.538,1445.7 658.567,1445.7 659.596,1445.7 660.624,1445.7 661.653,1445.7 662.682,1445.7 663.71,1445.7 664.739,1445.7 665.768,1445.7 666.796,1445.7 667.825,1445.7 668.853,1445.7 669.882,1445.7 670.911,1445.7 671.939,1445.7 672.968,1445.7 673.997,1445.7 675.025,1445.7 676.054,1445.7 677.083,1445.7 678.111,1445.7 679.14,1445.7 680.169,1445.7 681.197,1445.7 682.226,1445.7 683.255,1445.7 684.283,1445.7 685.312,1445.7 686.341,1445.7 687.369,1445.7 688.398,1445.7 689.427,1445.7 690.455,1445.7 691.484,1445.7 692.512,1445.7 693.541,1445.7 694.57,1445.7 695.598,1445.7 696.627,1445.7 697.656,1445.7 698.684,1445.7 699.713,1445.7 700.742,1445.7 701.77,1445.7 702.799,1445.7 703.828,1445.7 704.856,1445.7 705.885,1445.7 706.914,1445.7 707.942,1445.7 708.971,1445.7 710,1445.7 711.028,1445.7 712.057,1445.7 713.085,1445.7 714.114,1445.7 715.143,1445.7 716.171,1445.7 717.2,1445.7 718.229,1445.7 719.257,1445.7 720.286,1445.7 721.315,1445.7 722.343,1445.7 723.372,1445.7 724.401,1445.7 725.429,1445.7 726.458,1445.7 727.487,1445.7 728.515,1445.7 729.544,1445.7 730.573,1445.7 731.601,1445.7 732.63,1445.7 733.659,1445.7 734.687,1445.7 735.716,1445.7 736.744,1445.7 737.773,1445.7 738.802,1445.7 739.83,1445.7 740.859,1445.7 741.888,1445.7 742.916,1445.7 743.945,1445.7 744.974,1445.7 746.002,1445.7 747.031,1445.7 748.06,1445.7 749.088,1445.7 750.117,1445.7 751.146,1445.7 752.174,1445.7 753.203,1445.7 754.232,1445.7 755.26,1445.7 756.289,1445.7 757.317,1445.7 758.346,1445.7 759.375,1445.7 760.403,1445.7 761.432,1445.7 762.461,1445.7 763.489,1445.7 764.518,1445.7 765.547,1445.7 766.575,1445.7 767.604,1445.7 768.633,1445.7 769.661,1445.7 770.69,1445.7 771.719,1445.7 772.747,1445.7 773.776,1445.7 774.805,1445.7 775.833,1445.7 776.862,1445.7 777.891,1445.7 778.919,1445.7 779.948,1445.7 780.976,1445.7 782.005,1445.7 783.034,1445.7 784.062,1445.7 785.091,1445.7 786.12,1445.7 787.148,1445.7 788.177,1445.7 789.206,1445.7 790.234,1445.7 791.263,1445.7 792.292,1445.7 793.32,1445.7 794.349,1445.7 795.378,1445.7 796.406,1445.7 797.435,1445.7 798.464,1445.7 799.492,1445.7 800.521,1445.7 801.55,1445.7 802.578,1445.7 803.607,1445.7 804.635,1445.7 805.664,1445.7 806.693,1445.7 807.721,1445.7 808.75,1445.7 809.779,1445.7 810.807,1445.7 811.836,1445.7 812.865,1445.7 813.893,1445.7 814.922,1445.7 815.951,1445.7 816.979,1445.7 818.008,1445.7 819.037,1445.7 820.065,1445.7 821.094,1445.7 822.123,1445.7 823.151,1445.7 824.18,1445.7 825.208,1445.7 826.237,1445.7 827.266,1445.7 828.294,1445.7 829.323,1445.7 830.352,1445.7 831.38,1445.7 832.409,1445.7 833.438,1445.7 834.466,1445.7 835.495,1445.7 836.524,1445.7 837.552,1445.7 838.581,1445.7 839.61,1445.7 840.638,1445.7 841.667,1445.7 842.696,1445.7 843.724,1445.7 844.753,1445.7 845.782,1445.7 846.81,1445.7 847.839,1445.7 848.867,1445.7 849.896,1445.7 850.925,1445.7 851.953,1445.7 852.982,1445.7 854.011,1445.7 855.039,1445.7 856.068,1445.7 857.097,1445.7 858.125,1445.7 859.154,1445.7 860.183,1445.7 861.211,1445.7 862.24,1445.7 863.269,1445.7 864.297,1445.7 865.326,1445.7 866.355,1445.7 867.383,1445.7 868.412,1445.7 869.441,1445.7 870.469,1445.7 871.498,1445.7 872.526,1445.7 873.555,1445.7 874.584,1445.7 875.612,1445.7 876.641,1445.7 877.67,1445.7 878.698,1445.7 879.727,1445.7 880.756,1445.7 881.784,1445.7 882.813,1445.7 883.842,1445.7 884.87,1445.7 885.899,1445.7 886.928,1445.7 887.956,1445.7 888.985,1445.7 890.014,1445.7 891.042,1445.7 892.071,1445.7 893.099,1445.7 894.128,1445.7 895.157,1445.7 896.185,1445.7 897.214,1445.7 898.243,1445.7 899.271,1445.7 900.3,1445.7 901.329,1445.7 902.357,1445.7 903.386,1445.7 904.415,1445.7 905.443,1445.7 906.472,1445.7 907.501,1445.7 908.529,1445.7 909.558,1445.7 910.587,1445.7 911.615,1445.7 912.644,1445.7 913.673,1445.7 914.701,1445.7 915.73,1445.7 916.758,1445.7 917.787,1445.7 918.816,1445.7 919.844,1445.7 920.873,1445.7 921.902,1445.7 922.93,1445.7 923.959,1445.7 924.988,1445.7 926.016,1445.7 927.045,1445.7 928.074,1445.7 929.102,1445.7 930.131,1445.7 931.16,1445.7 932.188,1445.7 933.217,1445.7 934.246,1445.7 935.274,1445.7 936.303,1445.7 937.332,1445.7 938.36,1445.7 939.389,1445.7 940.417,1445.7 941.446,1445.7 942.475,1445.7 943.503,1445.7 944.532,1445.7 945.561,1445.7 946.589,1445.7 947.618,1445.7 948.647,1445.7 949.675,1445.7 950.704,1445.7 951.733,1445.7 952.761,1445.7 953.79,1445.7 954.819,1445.7 955.847,1445.7 956.876,1445.7 957.905,1445.7 958.933,1445.7 959.962,1445.7 960.99,1445.7 962.019,1445.7 963.048,1445.7 964.076,1445.7 965.105,1445.7 966.134,1445.7 967.162,1445.7 968.191,1445.7 969.22,1445.7 970.248,1445.7 971.277,1445.7 972.306,1445.7 973.334,1445.7 974.363,1445.7 975.392,1445.7 976.42,1445.7 977.449,1445.7 978.478,1445.7 979.506,1445.7 980.535,1445.7 981.564,1445.7 982.592,1445.7 983.621,1445.7 984.649,1445.7 985.678,1445.7 986.707,1445.7 987.735,1445.7 988.764,1445.7 989.793,1445.7 990.821,1445.7 991.85,1445.7 992.879,1445.7 993.907,1445.7 994.936,1445.7 995.965,1445.7 996.993,1445.7 998.022,1445.7 999.051,1445.7 1000.08,1445.7 1001.11,1445.7 1002.14,1445.7 1003.17,1445.7 1004.19,1445.7 1005.22,1445.7 1006.25,1445.7 1007.28,1445.7 1008.31,1445.7 1009.34,1445.7 1010.37,1445.7 1011.39,1445.7 1012.42,1445.7 1013.45,1445.7 1014.48,1445.7 1015.51,1445.7 1016.54,1445.7 1017.57,1445.7 1018.59,1445.7 1019.62,1445.7 1020.65,1445.7 1021.68,1445.7 1022.71,1445.7 1023.74,1445.7 1024.77,1445.7 1025.8,1445.7 1026.82,1445.7 1027.85,1445.7 1028.88,1445.7 1029.91,1445.7 1030.94,1445.7 1031.97,1445.7 1033,1445.7 1034.02,1445.7 1035.05,1445.7 1036.08,1445.7 1037.11,1445.7 1038.14,1445.7 1039.17,1445.7 1040.2,1445.7 1041.23,1445.7 1042.25,1445.7 1043.28,1445.7 1044.31,1445.7 1045.34,1445.7 1046.37,1445.7 1047.4,1445.7 1048.43,1445.7 1049.45,1445.7 1050.48,1445.7 1051.51,1445.7 1052.54,1445.7 1053.57,1445.7 1054.6,1445.7 1055.63,1445.7 1056.66,1445.7 1057.68,1445.7 1058.71,1445.7 1059.74,1445.7 1060.77,1445.7 1061.8,1445.7 1062.83,1445.7 1063.86,1445.7 1064.88,1445.7 1065.91,1445.7 1066.94,1445.7 1067.97,1445.7 1069,1445.7 1070.03,1445.7 1071.06,1445.7 1072.08,1445.7 1073.11,1445.7 1074.14,1445.7 1075.17,1445.7 1076.2,1445.7 1077.23,1445.7 1078.26,1445.7 1079.29,1445.7 1080.31,1445.7 1081.34,1445.7 1082.37,1445.7 1083.4,1445.7 1084.43,1445.7 1085.46,1445.7 1086.49,1445.7 1087.51,1445.7 1088.54,1445.7 1089.57,1445.7 1090.6,1445.7 1091.63,1445.7 1092.66,1445.7 1093.69,1445.7 1094.72,1445.7 1095.74,1445.7 1096.77,1445.7 1097.8,1445.7 1098.83,1445.7 1099.86,1445.7 1100.89,1445.7 1101.92,1445.7 1102.94,1445.7 1103.97,1445.7 1105,1445.7 1106.03,1445.7 1107.06,1445.7 1108.09,1445.7 1109.12,1445.7 1110.14,1445.7 1111.17,1445.7 1112.2,1445.7 1113.23,1445.7 1114.26,1445.7 1115.29,1445.7 1116.32,1445.7 1117.35,1445.7 1118.37,1445.7 1119.4,1445.7 1120.43,1445.7 1121.46,1445.7 1122.49,1445.7 1123.52,1445.7 1124.55,1445.7 1125.57,1445.7 1126.6,1445.7 1127.63,1445.7 1128.66,1445.7 1129.69,1445.7 1130.72,1445.7 1131.75,1445.7 1132.78,1445.7 1133.8,1445.7 1134.83,1445.7 1135.86,1445.7 1136.89,1445.7 1137.92,1445.7 1138.95,1445.7 1139.98,1445.7 1141,1445.7 1142.03,1445.7 1143.06,1445.7 1144.09,1445.7 1145.12,1445.7 1146.15,1445.7 1147.18,1445.7 1148.21,1445.7 1149.23,1445.7 1150.26,1445.7 1151.29,1445.7 1152.32,1445.7 1153.35,1445.7 1154.38,1445.7 1155.41,1445.7 1156.43,1445.7 1157.46,1445.7 1158.49,1445.7 1159.52,1445.7 1160.55,1445.7 1161.58,1445.7 1162.61,1445.7 1163.63,1445.7 1164.66,1445.7 1165.69,1445.7 1166.72,1445.7 1167.75,1445.7 1168.78,1445.7 1169.81,1445.7 1170.84,1445.7 1171.86,1445.7 1172.89,1445.7 1173.92,1445.7 1174.95,1445.7 1175.98,1445.7 1177.01,1445.7 1178.04,1445.7 1179.06,1445.7 1180.09,1445.7 1181.12,1445.7 1182.15,1445.7 1183.18,1445.7 1184.21,1445.7 1185.24,1445.7 1186.27,1445.7 1187.29,1445.7 1188.32,1445.7 1189.35,1445.7 1190.38,1445.7 1191.41,1445.7 1192.44,1445.7 1193.47,1445.7 1194.49,1445.7 1195.52,1445.7 1196.55,1445.7 1197.58,1445.7 1198.61,1445.7 1199.64,1445.7 1200.67,1445.7 1201.69,1445.7 1202.72,1445.7 1203.75,1445.7 1204.78,1445.7 1205.81,1445.7 1206.84,1445.7 1207.87,1445.7 1208.9,1445.7 1209.92,1445.7 1210.95,1445.7 1211.98,1445.7 1213.01,1445.7 1214.04,1445.7 1215.07,1445.7 1216.1,1445.7 1217.12,1445.7 1218.15,1445.7 1219.18,1445.7 1220.21,1445.7 1221.24,1445.7 1222.27,1445.7 1223.3,1445.7 1224.33,1445.7 1225.35,1445.7 1226.38,1445.7 1227.41,1445.7 1228.44,1445.7 1229.47,1445.7 1230.5,1445.7 1231.53,1445.7 1232.55,1445.7 1233.58,1445.7 1234.61,1445.7 1235.64,1445.7 1236.67,1445.7 1237.7,1445.7 1238.73,1445.7 1239.76,1445.7 1240.78,1445.7 1241.81,1445.7 1242.84,1445.7 1243.87,1445.7 1244.9,1445.7 1245.93,1445.7 1246.96,1445.7 1247.98,1445.7 1249.01,1445.7 1250.04,1445.7 1251.07,1445.7 1252.1,1445.7 1253.13,1445.7 1254.16,1445.7 1255.18,1445.7 1256.21,1445.7 1257.24,1445.7 1258.27,1445.7 1259.3,1445.7 1260.33,1445.7 1261.36,1445.7 1262.39,1445.7 1263.41,1445.7 1264.44,1445.7 1265.47,1445.7 1266.5,1445.7 1267.53,1445.7 1268.56,1445.7 1269.59,1445.7 1270.61,1445.7 1271.64,1445.7 1272.67,1445.7 1273.7,1445.7 1274.73,1445.7 1275.76,1445.7 1276.79,1445.7 1277.82,1445.7 1278.84,1445.7 1279.87,1445.7 1280.9,1445.7 1281.93,1445.7 1282.96,1445.7 1283.99,1445.7 1285.02,1445.7 1286.04,1445.7 1287.07,1445.7 1288.1,1445.7 1289.13,1445.7 1290.16,1445.7 1291.19,1445.7 1292.22,1445.7 1293.24,1445.7 1294.27,1445.7 1295.3,1445.7 1296.33,1445.7 1297.36,1445.7 1298.39,1445.7 1299.42,1445.7 1300.45,1445.7 1301.47,1445.7 1302.5,1445.7 1303.53,1445.7 1304.56,1445.7 1305.59,1445.7 1306.62,1445.7 1307.65,1445.7 1308.67,1445.7 1309.7,1445.7 1310.73,1445.7 1311.76,1445.7 1312.79,1445.7 1313.82,1445.7 1314.85,1445.7 1315.88,1445.7 1316.9,1445.7 1317.93,1445.7 1318.96,1445.7 1319.99,1445.7 1321.02,1445.7 1322.05,1445.7 1323.08,1445.7 1324.1,1445.7 1325.13,1445.7 1326.16,1445.7 1327.19,1445.7 1328.22,1445.7 1329.25,1445.7 1330.28,1445.7 1331.31,1445.7 1332.33,1445.7 1333.36,1445.7 1334.39,1445.7 1335.42,1445.7 1336.45,1445.7 1337.48,1445.7 1338.51,1445.7 1339.53,1445.7 1340.56,1445.7 1341.59,1445.7 1342.62,1445.7 1343.65,1445.7 1344.68,1445.7 1345.71,1445.7 1346.73,1445.7 1347.76,1445.7 1348.79,1445.7 1349.82,1445.7 1350.85,1445.7 1351.88,1445.7 1352.91,1445.7 1353.94,1445.7 1354.96,1445.7 1355.99,1445.7 1357.02,1445.7 1358.05,1445.7 1359.08,1445.7 1360.11,1445.7 1361.14,1445.7 1362.16,1445.7 1363.19,1445.7 1364.22,1445.7 1365.25,1445.7 1366.28,1445.7 1367.31,1445.7 1368.34,1445.7 1369.37,1445.7 1370.39,1445.7 1371.42,1445.7 1372.45,1445.7 1373.48,1445.7 1374.51,1445.7 1375.54,1445.7 1376.57,1445.7 1377.59,1445.7 1378.62,1445.7 1379.65,1445.7 1380.68,1445.7 1381.71,1445.7 1382.74,1445.7 1383.77,1445.7 1384.79,1445.7 1385.82,1445.7 1386.85,1445.7 1387.88,1445.7 1388.91,1445.7 1389.94,1445.7 1390.97,1445.7 1392,1445.7 1393.02,1445.7 1394.05,1445.7 1395.08,1445.7 1396.11,1445.7 1397.14,1445.7 1398.17,1445.7 1399.2,1445.7 1400.22,1445.7 1401.25,1445.7 1402.28,1445.7 1403.31,1445.7 1404.34,1445.7 1405.37,1445.7 1406.4,1445.7 1407.43,1445.7 1408.45,1445.7 1409.48,1445.7 1410.51,1445.7 1411.54,1445.7 1412.57,1445.7 1413.6,1445.7 1414.63,1445.7 1415.65,1445.7 1416.68,1445.7 1417.71,1445.7 1418.74,1445.7 1419.77,1445.7 1420.8,1445.7 1421.83,1445.7 1422.85,1445.7 1423.88,1445.7 1424.91,1445.7 1425.94,1445.7 1426.97,1445.7 1428,1445.7 1429.03,1445.7 1430.06,1445.7 1431.08,1445.7 1432.11,1445.7 1433.14,1445.7 1434.17,1445.7 1435.2,1445.7 1436.23,1445.7 1437.26,1445.7 1438.28,1445.7 1439.31,1445.7 1440.34,1445.7 1441.37,1445.7 1442.4,1445.7 1443.43,1445.7 1444.46,1445.7 1445.49,1445.7 1446.51,1445.7 1447.54,1445.7 1448.57,1445.7 1449.6,1445.7 1450.63,1445.7 1451.66,1445.7 1452.69,1445.7 1453.71,1445.7 1454.74,1445.7 1455.77,1445.7 1456.8,1445.7 1457.83,1445.7 1458.86,1445.7 1459.89,1445.7 1460.92,1445.7 1461.94,1445.7 1462.97,1445.7 1464,1445.7 1465.03,1445.7 1466.06,1445.7 1467.09,1445.7 1468.12,1445.7 1469.14,1445.7 1470.17,1445.7 1471.2,1445.7 1472.23,1445.7 1473.26,1445.7 1474.29,1445.7 1475.32,1445.7 1476.34,1445.7 1477.37,1445.7 1478.4,1445.7 1479.43,1445.7 1480.46,1445.7 1481.49,1445.7 1482.52,1445.7 1483.55,1445.7 1484.57,1445.7 1485.6,1445.7 1486.63,1445.7 1487.66,1445.7 1488.69,1445.7 1489.72,1445.7 1490.75,1445.7 1491.77,1445.7 1492.8,1445.7 1493.83,1445.7 1494.86,1445.7 1495.89,1445.7 1496.92,1445.7 1497.95,1445.7 1498.98,1445.7 1500,1445.7 1501.03,1445.7 1502.06,1445.7 1503.09,1445.7 1504.12,1445.7 1505.15,1445.7 1506.18,1445.7 1507.2,1445.7 1508.23,1445.7 1509.26,1445.7 1510.29,1445.7 1511.32,1445.7 1512.35,1445.7 1513.38,1445.7 1514.4,1445.7 1515.43,1445.7 1516.46,1445.7 1517.49,1445.7 1518.52,1445.7 1519.55,1445.7 1520.58,1445.7 1521.61,1445.7 1522.63,1445.7 1523.66,1445.7 1524.69,1445.7 1525.72,1445.7 1526.75,1445.7 1527.78,1445.7 1528.81,1445.7 1529.83,1445.7 1530.86,1445.7 1531.89,1445.7 1532.92,1445.7 1533.95,1445.7 1534.98,1445.7 1536.01,1445.7 1537.04,1445.7 1538.06,1445.7 1539.09,1445.7 1540.12,1445.7 1541.15,1445.7 1542.18,1445.7 1543.21,1445.7 1544.24,1445.7 1545.26,1445.7 1546.29,1445.7 1547.32,1445.7 1548.35,1445.7 1549.38,1445.7 1550.41,1445.7 1551.44,1445.7 1552.47,1445.7 1553.49,1445.7 1554.52,1445.7 1555.55,1445.7 1556.58,1445.7 1557.61,1445.7 1558.64,1445.7 1559.67,1445.7 1560.69,1445.7 1561.72,1445.7 1562.75,1445.7 1563.78,1445.7 1564.81,1445.7 1565.84,1445.7 1566.87,1445.7 1567.89,1445.7 1568.92,1445.7 1569.95,1445.7 1570.98,1445.7 1572.01,1445.7 1573.04,1445.7 1574.07,1445.7 1575.1,1445.7 1576.12,1445.7 1577.15,1445.7 1578.18,1445.7 1579.21,1445.7 1580.24,1445.7 1581.27,1445.7 1582.3,1445.7 1583.32,1445.7 1584.35,1445.7 1585.38,1445.7 1586.41,1445.7 1587.44,1445.7 1588.47,1445.7 1589.5,1445.7 1590.53,1445.7 1591.55,1445.7 1592.58,1445.7 1593.61,1445.7 1594.64,1445.7 1595.67,1445.7 1596.7,1445.7 1597.73,1445.7 1598.75,1445.7 1599.78,1445.7 1600.81,1445.7 1601.84,1445.7 1602.87,1445.7 1603.9,1445.7 1604.93,1445.7 1605.95,1445.7 1606.98,1445.7 1608.01,1445.7 1609.04,1445.7 1610.07,1445.7 1611.1,1445.7 1612.13,1445.7 1613.16,1445.7 1614.18,1445.7 1615.21,1445.7 1616.24,1445.7 1617.27,1445.7 1618.3,1445.7 1619.33,1445.7 1620.36,1445.7 1621.38,1445.7 1622.41,1445.7 1623.44,1445.7 1624.47,1445.7 1625.5,1445.7 1626.53,1445.7 1627.56,1445.7 1628.59,1445.7 1629.61,1445.7 1630.64,1445.7 1631.67,1445.7 1632.7,1445.7 1633.73,1445.7 1634.76,1445.7 1635.79,1445.7 1636.81,1445.7 1637.84,1445.7 1638.87,1445.7 1639.9,1445.7 1640.93,1445.7 1641.96,1445.7 1642.99,1445.7 1644.02,1445.7 1645.04,1445.7 1646.07,1445.7 1647.1,1445.7 1648.13,1445.7 1649.16,1445.7 1650.19,1445.7 1651.22,1445.7 1652.24,1445.7 1653.27,1445.7 1654.3,1445.7 1655.33,1445.7 1656.36,1445.7 1657.39,1445.7 1658.42,1445.7 1659.44,1445.7 1660.47,1445.7 1661.5,1445.7 1662.53,1445.7 1663.56,1445.7 1664.59,1445.7 1665.62,1445.7 1666.65,1445.7 1667.67,1445.7 1668.7,1445.7 1669.73,1445.7 1670.76,1445.7 1671.79,1445.7 1672.82,1445.7 1673.85,1445.7 1674.87,1445.7 1675.9,1445.7 1676.93,1445.7 1677.96,1445.7 1678.99,1445.7 1680.02,1445.7 1681.05,1445.7 1682.08,1445.7 1683.1,1445.7 1684.13,1445.7 1685.16,1445.7 1686.19,1445.7 1687.22,1445.7 1688.25,1445.7 1689.28,1445.7 1690.3,1445.7 1691.33,1445.7 1692.36,1445.7 1693.39,1445.7 1694.42,1445.7 1695.45,1445.7 1696.48,1445.7 1697.5,1445.7 1698.53,1445.7 1699.56,1445.7 1700.59,1445.7 1701.62,1445.7 1702.65,1445.7 1703.68,1445.7 1704.71,1445.7 1705.73,1445.7 1706.76,1445.7 1707.79,1445.7 1708.82,1445.7 1709.85,1445.7 1710.88,1445.7 1711.91,1445.7 1712.93,1445.7 1713.96,1445.7 1714.99,1445.7 1716.02,1445.7 1717.05,1445.7 1718.08,1445.7 1719.11,1445.7 1720.14,1445.7 1721.16,1445.7 1722.19,1445.7 1723.22,1445.7 1724.25,1445.7 1725.28,1445.7 1726.31,1445.7 1727.34,1445.7 1728.36,1445.7 1729.39,1445.7 1730.42,1445.7 1731.45,1445.7 1732.48,1445.7 1733.51,1445.7 1734.54,1445.7 1735.57,1445.7 1736.59,1445.7 1737.62,1445.7 1738.65,1445.7 1739.68,1445.7 1740.71,1445.7 1741.74,1445.7 1742.77,1445.7 1743.79,1445.7 1744.82,1445.7 1745.85,1445.7 1746.88,1445.7 1747.91,1445.7 1748.94,1445.7 1749.97,1445.7 1750.99,1445.7 1752.02,1445.7 1753.05,1445.7 1754.08,1445.7 1755.11,1445.7 1756.14,1445.7 1757.17,1445.7 1758.2,1445.7 1759.22,1445.7 1760.25,1445.7 1761.28,1445.7 1762.31,1445.7 1763.34,1445.7 1764.37,1445.7 1765.4,1445.7 1766.42,1445.7 1767.45,1445.7 1768.48,1445.7 1769.51,1445.7 1770.54,1445.7 1771.57,1445.7 1772.6,1445.7 1773.63,1445.7 1774.65,1445.7 1775.68,1445.7 1776.71,1445.7 1777.74,1445.7 1778.77,1445.7 1779.8,1445.7 1780.83,1445.7 1781.85,1445.7 1782.88,1445.7 1783.91,1445.7 1784.94,1445.7 1785.97,1445.7 1787,1445.7 1788.03,1445.7 1789.05,1445.7 1790.08,1445.7 1791.11,1445.7 1792.14,1445.7 1793.17,1445.7 1794.2,1445.7 1795.23,1445.7 1796.26,1445.7 1797.28,1445.7 1798.31,1445.7 1799.34,1445.7 1800.37,1445.7 1801.4,1445.7 1802.43,1445.7 1803.46,1445.7 1804.48,1445.7 1805.51,1445.7 1806.54,1445.7 1807.57,1445.7 1808.6,1445.7 1809.63,1445.7 1810.66,1445.7 1811.69,1445.7 1812.71,1445.7 1813.74,1445.7 1814.77,1445.7 1815.8,1445.7 1816.83,1445.7 1817.86,1445.7 1818.89,1445.7 1819.91,1445.7 1820.94,1445.7 1821.97,1445.7 1823,1445.7 1824.03,1445.7 1825.06,1445.7 1826.09,1445.7 1827.12,1445.7 1828.14,1445.7 1829.17,1445.7 1830.2,1445.7 1831.23,1445.7 1832.26,1445.7 1833.29,1445.7 1834.32,1445.7 1835.34,1445.7 1836.37,1445.7 1837.4,1445.7 1838.43,1445.7 1839.46,1445.7 1840.49,1445.7 1841.52,1445.7 1842.54,1445.7 1843.57,1445.7 1844.6,1445.7 1845.63,1445.7 1846.66,1445.7 1847.69,1445.7 1848.72,1445.7 1849.75,1445.7 1850.77,1445.7 1851.8,1445.7 1852.83,1445.7 1853.86,1445.7 1854.89,1445.7 1855.92,1445.7 1856.95,1445.7 1857.97,1445.7 1859,1445.7 1860.03,1445.7 1861.06,1445.7 1862.09,1445.7 1863.12,1445.7 1864.15,1445.7 1865.18,1445.7 1866.2,1445.7 1867.23,1445.7 1868.26,1445.7 1869.29,1445.7 1870.32,1445.7 1871.35,1445.7 1872.38,1445.7 1873.4,1445.7 1874.43,1445.7 1875.46,1445.7 1876.49,1445.7 1877.52,1445.7 1878.55,1445.7 1879.58,1445.7 1880.6,1445.7 1881.63,1445.7 1882.66,1445.7 1883.69,1445.7 1884.72,1445.7 1885.75,1445.7 1886.78,1445.7 1887.81,1445.7 1888.83,1445.7 1889.86,1445.7 1890.89,1445.7 1891.92,1445.7 1892.95,1445.7 1893.98,1445.7 1895.01,1445.7 1896.03,1445.7 1897.06,1445.7 1898.09,1445.7 1899.12,1445.7 1900.15,1445.7 1901.18,1445.7 1902.21,1445.7 1903.24,1445.7 1904.26,1445.7 1905.29,1445.7 1906.32,1445.7 1907.35,1445.7 1908.38,1445.7 1909.41,1445.7 1910.44,1445.7 1911.46,1445.7 1912.49,1445.7 1913.52,1445.7 1914.55,1445.7 1915.58,1445.7 1916.61,1445.7 1917.64,1445.7 1918.66,1445.7 1919.69,1445.7 1920.72,1445.7 1921.75,1445.7 1922.78,1445.7 1923.81,1445.7 1924.84,1445.7 1925.87,1445.7 1926.89,1445.7 1927.92,1445.7 1928.95,1445.7 1929.98,1445.7 1931.01,1445.7 1932.04,1445.7 1933.07,1445.7 1934.09,1445.7 1935.12,1445.7 1936.15,1445.7 1937.18,1445.7 1938.21,1445.7 1939.24,1445.7 1940.27,1445.7 1941.3,1445.7 1942.32,1445.7 1943.35,1445.7 1944.38,1445.7 1945.41,1445.7 1946.44,1445.7 1947.47,1445.7 1948.5,1445.7 1949.52,1445.7 1950.55,1445.7 1951.58,1445.7 1952.61,1445.7 1953.64,1445.7 1954.67,1445.7 1955.7,1445.7 1956.73,1445.7 1957.75,1445.7 1958.78,1445.7 1959.81,1445.7 1960.84,1445.7 1961.87,1445.7 1962.9,1445.7 1963.93,1445.7 1964.95,1445.7 1965.98,1445.7 1967.01,1445.7 1968.04,1445.7 1969.07,1445.7 1970.1,1445.7 1971.13,1445.7 1972.15,1445.7 1973.18,1445.7 1974.21,1445.7 1975.24,1445.7 1976.27,1445.7 1977.3,1445.7 1978.33,1445.7 1979.36,1445.7 1980.38,1445.7 1981.41,1445.7 1982.44,1445.7 1983.47,1445.7 1984.5,1445.7 1985.53,1445.7 1986.56,1445.7 1987.58,1445.7 1988.61,1445.7 1989.64,1445.7 1990.67,1445.7 1991.7,1445.7 1992.73,1445.7 1993.76,1445.7 1994.79,1445.7 1995.81,1445.7 1996.84,1445.7 1997.87,1445.7 1998.9,1445.7 1999.93,1445.7 2000.96,1445.7 2001.99,1445.7 2003.01,1445.7 2004.04,1445.7 2005.07,1445.7 2006.1,1445.7 2007.13,1445.7 2008.16,1445.7 2009.19,1445.7 2010.21,1445.7 2011.24,1445.7 2012.27,1445.7 2013.3,1445.7 2014.33,1445.7 2015.36,1445.7 2016.39,1445.7 2017.42,1445.7 2018.44,1445.7 2019.47,1445.7 2020.5,1445.7 2021.53,1445.7 2022.56,1445.7 2023.59,1445.7 2024.62,1445.7 2025.64,1445.7 2026.67,1445.7 2027.7,1445.7 2028.73,1445.7 2029.76,1445.7 2030.79,1445.7 2031.82,1445.7 2032.85,1445.7 2033.87,1445.7 2034.9,1445.7 2035.93,1445.7 2036.96,1445.7 2037.99,1445.7 2039.02,1445.7 2040.05,1445.7 2041.07,1445.7 2042.1,1445.7 2043.13,1445.7 2044.16,1445.7 2045.19,1445.7 2046.22,1445.7 2047.25,1445.7 2048.28,1445.7 2049.3,1445.7 2050.33,1445.7 2051.36,1445.7 2052.39,1445.7 2053.42,1445.7 2054.45,1445.7 2055.48,1445.7 2056.5,1445.7 2057.53,1445.7 2058.56,1445.7 2059.59,1445.7 2060.62,1445.7 2061.65,1445.7 2062.68,1445.7 2063.7,1445.7 2064.73,1445.7 2065.76,1445.7 2066.79,1445.7 2067.82,1445.7 2068.85,1445.7 2069.88,1445.7 2070.91,1445.7 2071.93,1445.7 2072.96,1445.7 2073.99,1445.7 2075.02,1445.7 2076.05,1445.7 2077.08,1445.7 2078.11,1445.7 2079.13,1445.7 2080.16,1445.7 2081.19,1445.7 2082.22,1445.7 2083.25,1445.7 2084.28,1445.7 2085.31,1445.7 2086.34,1445.7 2087.36,1445.7 2088.39,1445.7 2089.42,1445.7 2090.45,1445.7 2091.48,1445.7 2092.51,1445.7 2093.54,1445.7 2094.56,1445.7 2095.59,1445.7 2096.62,1445.7 2097.65,1445.7 2098.68,1445.7 2099.71,1445.7 2100.74,1445.7 2101.76,1445.7 2102.79,1445.7 2103.82,1445.7 2104.85,1445.7 2105.88,1445.7 2106.91,1445.7 2107.94,1445.7 2108.97,1445.7 2109.99,1445.7 2111.02,1445.7 2112.05,1445.7 2113.08,1445.7 2114.11,1445.7 2115.14,1445.7 2116.17,1445.7 2117.19,1445.7 2118.22,1445.7 2119.25,1445.7 2120.28,1445.7 2121.31,1445.7 2122.34,1445.7 2123.37,1445.7 2124.4,1445.7 2125.42,1445.7 2126.45,1445.7 2127.48,1445.7 2128.51,1445.7 2129.54,1445.7 2130.57,1445.7 2131.6,1445.7 2132.62,1445.7 2133.65,1445.7 2134.68,1445.7 2135.71,1445.7 2136.74,1445.7 2137.77,1445.7 2138.8,1445.7 2139.83,1445.7 2140.85,1445.7 2141.88,1445.7 2142.91,1445.7 2143.94,1445.7 2144.97,1445.7 2146,1445.7 2147.03,1445.7 2148.05,1445.7 2149.08,1445.7 2150.11,1445.7 2151.14,1445.7 2152.17,1445.7 2153.2,1445.7 2154.23,1445.7 2155.25,1445.7 2156.28,1445.7 2157.31,1445.7 2158.34,1445.7 2159.37,1445.7 2160.4,1445.7 2161.43,1445.7 2162.46,1445.7 2163.48,1445.7 2164.51,1445.7 2165.54,1445.7 2166.57,1445.7 2167.6,1445.7 2168.63,1445.7 2169.66,1445.7 2170.68,1445.7 2171.71,1445.7 2172.74,1445.7 2173.77,1445.7 2174.8,1445.7 2175.83,1445.7 2176.86,1445.7 2177.89,1445.7 2178.91,1445.7 2179.94,1445.7 2180.97,1445.7 2182,1445.7 2183.03,1445.7 2184.06,1445.7 2185.09,1445.7 2186.11,1445.7 2187.14,1445.7 2188.17,1445.7 2189.2,1445.7 2190.23,1445.7 2191.26,1445.7 2192.29,1445.7 2193.31,1445.7 2194.34,1445.7 2195.37,1445.7 2196.4,1445.7 2197.43,1445.7 2198.46,1445.7 2199.49,1445.7 2200.52,1445.7 2201.54,1445.7 2202.57,1445.7 2203.6,1445.7 2204.63,1445.7 2205.66,1445.7 2206.69,1445.7 2207.72,1445.7 2208.74,1445.7 2209.77,1445.7 2210.8,1445.7 2211.83,1445.7 2212.86,1445.7 2213.89,1445.7 2214.92,1445.7 2215.95,1445.7 2216.97,1445.7 2218,1445.7 2219.03,1445.7 2220.06,1445.7 2221.09,1445.7 2222.12,1445.7 2223.15,1445.7 2224.17,1445.7 2225.2,1445.7 2226.23,1445.7 2227.26,1445.7 2228.29,1445.7 2229.32,1445.7 2230.35,1445.7 2231.38,1445.71 2232.4,1445.71 2233.43,1445.71 2234.46,1445.71 2235.49,1445.71 2236.52,1445.71 2237.55,1445.71 2238.58,1445.71 2239.6,1445.71 2240.63,1445.71 2241.66,1445.71 2242.69,1445.71 2243.72,1445.71 2244.75,1445.71 2245.78,1445.71 2246.8,1445.71 2247.83,1445.71 2248.86,1445.71 2249.89,1445.71 2250.92,1445.71 2251.95,1445.71 2252.98,1445.71 2254.01,1445.71 2255.03,1445.71 2256.06,1445.71 2257.09,1445.71 2258.12,1445.71 2259.15,1445.71 2260.18,1445.71 2261.21,1445.71 2262.23,1445.71 2263.26,1445.71 2264.29,1445.71 2265.32,1445.71 2266.35,1445.71 2267.38,1445.71 2268.41,1445.71 2269.44,1445.71 2270.46,1445.71 2271.49,1445.71 2272.52,1445.71 2273.55,1445.71 2274.58,1445.71 2275.61,1445.71 2276.64,1445.71 2277.66,1445.71 2278.69,1445.71 2279.72,1445.71 2280.75,1445.71 2281.78,1445.71 2282.81,1445.71 2283.84,1445.71 2284.86,1445.71 2285.89,1445.71 2286.92,1445.71 2287.95,1445.71 2288.98,1445.71 2290.01,1445.72 2291.04,1445.72 "/>
<path clip-path="url(#clip370)" d="M2009.56 198.898 L2280.06 198.898 L2280.06 95.2176 L2009.56 95.2176  Z" fill="#ffffff" fill-rule="evenodd" fill-opacity="1"/>
<polyline clip-path="url(#clip370)" style="stroke:#000000; stroke-linecap:round; stroke-linejoin:round; stroke-width:4; stroke-opacity:1; fill:none" points="2009.56,198.898 2280.06,198.898 2280.06,95.2176 2009.56,95.2176 2009.56,198.898 "/>
<polyline clip-path="url(#clip370)" style="stroke:#009af9; stroke-linecap:round; stroke-linejoin:round; stroke-width:4; stroke-opacity:1; fill:none" points="2033.79,147.058 2179.17,147.058 "/>
<path clip-path="url(#clip370)" d="M2217.25 166.745 Q2215.44 171.375 2213.73 172.787 Q2212.01 174.199 2209.14 174.199 L2205.74 174.199 L2205.74 170.634 L2208.24 170.634 Q2210 170.634 2210.97 169.8 Q2211.95 168.967 2213.13 165.865 L2213.89 163.921 L2203.4 138.412 L2207.92 138.412 L2216.02 158.689 L2224.12 138.412 L2228.64 138.412 L2217.25 166.745 Z" fill="#000000" fill-rule="nonzero" fill-opacity="1" /><path clip-path="url(#clip370)" d="M2235.93 160.402 L2243.57 160.402 L2243.57 134.037 L2235.26 135.703 L2235.26 131.444 L2243.52 129.778 L2248.2 129.778 L2248.2 160.402 L2255.83 160.402 L2255.83 164.338 L2235.93 164.338 L2235.93 160.402 Z" fill="#000000" fill-rule="nonzero" fill-opacity="1" /></svg>
