<?xml version="1.0" encoding="utf-8"?>
<svg xmlns="http://www.w3.org/2000/svg" xmlns:xlink="http://www.w3.org/1999/xlink" width="600" height="400" viewBox="0 0 2400 1600">
<defs>
  <clipPath id="clip590">
    <rect x="0" y="0" width="2400" height="1600"/>
  </clipPath>
</defs>
<path clip-path="url(#clip590)" d="M0 1600 L2400 1600 L2400 0 L0 0  Z" fill="#ffffff" fill-rule="evenodd" fill-opacity="1"/>
<defs>
  <clipPath id="clip591">
    <rect x="480" y="0" width="1681" height="1600"/>
  </clipPath>
</defs>
<path clip-path="url(#clip590)" d="M209.029 1486.45 L2352.76 1486.45 L2352.76 47.2441 L209.029 47.2441  Z" fill="#ffffff" fill-rule="evenodd" fill-opacity="1"/>
<defs>
  <clipPath id="clip592">
    <rect x="209" y="47" width="2145" height="1440"/>
  </clipPath>
</defs>
<polyline clip-path="url(#clip592)" style="stroke:#000000; stroke-linecap:round; stroke-linejoin:round; stroke-width:2; stroke-opacity:0.1; fill:none" points="269.7,1486.45 269.7,47.2441 "/>
<polyline clip-path="url(#clip592)" style="stroke:#000000; stroke-linecap:round; stroke-linejoin:round; stroke-width:2; stroke-opacity:0.1; fill:none" points="674.987,1486.45 674.987,47.2441 "/>
<polyline clip-path="url(#clip592)" style="stroke:#000000; stroke-linecap:round; stroke-linejoin:round; stroke-width:2; stroke-opacity:0.1; fill:none" points="1080.27,1486.45 1080.27,47.2441 "/>
<polyline clip-path="url(#clip592)" style="stroke:#000000; stroke-linecap:round; stroke-linejoin:round; stroke-width:2; stroke-opacity:0.1; fill:none" points="1485.56,1486.45 1485.56,47.2441 "/>
<polyline clip-path="url(#clip592)" style="stroke:#000000; stroke-linecap:round; stroke-linejoin:round; stroke-width:2; stroke-opacity:0.1; fill:none" points="1890.85,1486.45 1890.85,47.2441 "/>
<polyline clip-path="url(#clip592)" style="stroke:#000000; stroke-linecap:round; stroke-linejoin:round; stroke-width:2; stroke-opacity:0.1; fill:none" points="2296.14,1486.45 2296.14,47.2441 "/>
<polyline clip-path="url(#clip590)" style="stroke:#000000; stroke-linecap:round; stroke-linejoin:round; stroke-width:4; stroke-opacity:1; fill:none" points="209.029,1486.45 2352.76,1486.45 "/>
<polyline clip-path="url(#clip590)" style="stroke:#000000; stroke-linecap:round; stroke-linejoin:round; stroke-width:4; stroke-opacity:1; fill:none" points="269.7,1486.45 269.7,1467.55 "/>
<polyline clip-path="url(#clip590)" style="stroke:#000000; stroke-linecap:round; stroke-linejoin:round; stroke-width:4; stroke-opacity:1; fill:none" points="674.987,1486.45 674.987,1467.55 "/>
<polyline clip-path="url(#clip590)" style="stroke:#000000; stroke-linecap:round; stroke-linejoin:round; stroke-width:4; stroke-opacity:1; fill:none" points="1080.27,1486.45 1080.27,1467.55 "/>
<polyline clip-path="url(#clip590)" style="stroke:#000000; stroke-linecap:round; stroke-linejoin:round; stroke-width:4; stroke-opacity:1; fill:none" points="1485.56,1486.45 1485.56,1467.55 "/>
<polyline clip-path="url(#clip590)" style="stroke:#000000; stroke-linecap:round; stroke-linejoin:round; stroke-width:4; stroke-opacity:1; fill:none" points="1890.85,1486.45 1890.85,1467.55 "/>
<polyline clip-path="url(#clip590)" style="stroke:#000000; stroke-linecap:round; stroke-linejoin:round; stroke-width:4; stroke-opacity:1; fill:none" points="2296.14,1486.45 2296.14,1467.55 "/>
<path clip-path="url(#clip590)" d="M269.7 1517.37 Q266.089 1517.37 264.26 1520.93 Q262.455 1524.47 262.455 1531.6 Q262.455 1538.71 264.26 1542.27 Q266.089 1545.82 269.7 1545.82 Q273.334 1545.82 275.14 1542.27 Q276.969 1538.71 276.969 1531.6 Q276.969 1524.47 275.14 1520.93 Q273.334 1517.37 269.7 1517.37 M269.7 1513.66 Q275.51 1513.66 278.566 1518.27 Q281.644 1522.85 281.644 1531.6 Q281.644 1540.33 278.566 1544.94 Q275.51 1549.52 269.7 1549.52 Q263.89 1549.52 260.811 1544.94 Q257.756 1540.33 257.756 1531.6 Q257.756 1522.85 260.811 1518.27 Q263.89 1513.66 269.7 1513.66 Z" fill="#000000" fill-rule="nonzero" fill-opacity="1" /><path clip-path="url(#clip590)" d="M634.594 1544.91 L642.233 1544.91 L642.233 1518.55 L633.923 1520.21 L633.923 1515.95 L642.187 1514.29 L646.863 1514.29 L646.863 1544.91 L654.501 1544.91 L654.501 1548.85 L634.594 1548.85 L634.594 1544.91 Z" fill="#000000" fill-rule="nonzero" fill-opacity="1" /><path clip-path="url(#clip590)" d="M673.946 1517.37 Q670.335 1517.37 668.506 1520.93 Q666.7 1524.47 666.7 1531.6 Q666.7 1538.71 668.506 1542.27 Q670.335 1545.82 673.946 1545.82 Q677.58 1545.82 679.386 1542.27 Q681.214 1538.71 681.214 1531.6 Q681.214 1524.47 679.386 1520.93 Q677.58 1517.37 673.946 1517.37 M673.946 1513.66 Q679.756 1513.66 682.812 1518.27 Q685.89 1522.85 685.89 1531.6 Q685.89 1540.33 682.812 1544.94 Q679.756 1549.52 673.946 1549.52 Q668.136 1549.52 665.057 1544.94 Q662.001 1540.33 662.001 1531.6 Q662.001 1522.85 665.057 1518.27 Q668.136 1513.66 673.946 1513.66 Z" fill="#000000" fill-rule="nonzero" fill-opacity="1" /><path clip-path="url(#clip590)" d="M704.108 1517.37 Q700.497 1517.37 698.668 1520.93 Q696.862 1524.47 696.862 1531.6 Q696.862 1538.71 698.668 1542.27 Q700.497 1545.82 704.108 1545.82 Q707.742 1545.82 709.547 1542.27 Q711.376 1538.71 711.376 1531.6 Q711.376 1524.47 709.547 1520.93 Q707.742 1517.37 704.108 1517.37 M704.108 1513.66 Q709.918 1513.66 712.973 1518.27 Q716.052 1522.85 716.052 1531.6 Q716.052 1540.33 712.973 1544.94 Q709.918 1549.52 704.108 1549.52 Q698.298 1549.52 695.219 1544.94 Q692.163 1540.33 692.163 1531.6 Q692.163 1522.85 695.219 1518.27 Q698.298 1513.66 704.108 1513.66 Z" fill="#000000" fill-rule="nonzero" fill-opacity="1" /><path clip-path="url(#clip590)" d="M1043.97 1544.91 L1060.29 1544.91 L1060.29 1548.85 L1038.34 1548.85 L1038.34 1544.91 Q1041 1542.16 1045.59 1537.53 Q1050.19 1532.88 1051.37 1531.53 Q1053.62 1529.01 1054.5 1527.27 Q1055.4 1525.51 1055.4 1523.82 Q1055.4 1521.07 1053.46 1519.33 Q1051.54 1517.6 1048.43 1517.6 Q1046.24 1517.6 1043.78 1518.36 Q1041.35 1519.13 1038.57 1520.68 L1038.57 1515.95 Q1041.4 1514.82 1043.85 1514.24 Q1046.31 1513.66 1048.34 1513.66 Q1053.71 1513.66 1056.91 1516.35 Q1060.1 1519.03 1060.1 1523.52 Q1060.1 1525.65 1059.29 1527.57 Q1058.5 1529.47 1056.4 1532.07 Q1055.82 1532.74 1052.72 1535.95 Q1049.62 1539.15 1043.97 1544.91 Z" fill="#000000" fill-rule="nonzero" fill-opacity="1" /><path clip-path="url(#clip590)" d="M1080.1 1517.37 Q1076.49 1517.37 1074.66 1520.93 Q1072.86 1524.47 1072.86 1531.6 Q1072.86 1538.71 1074.66 1542.27 Q1076.49 1545.82 1080.1 1545.82 Q1083.74 1545.82 1085.54 1542.27 Q1087.37 1538.71 1087.37 1531.6 Q1087.37 1524.47 1085.54 1520.93 Q1083.74 1517.37 1080.1 1517.37 M1080.1 1513.66 Q1085.91 1513.66 1088.97 1518.27 Q1092.05 1522.85 1092.05 1531.6 Q1092.05 1540.33 1088.97 1544.94 Q1085.91 1549.52 1080.1 1549.52 Q1074.29 1549.52 1071.21 1544.94 Q1068.16 1540.33 1068.16 1531.6 Q1068.16 1522.85 1071.21 1518.27 Q1074.29 1513.66 1080.1 1513.66 Z" fill="#000000" fill-rule="nonzero" fill-opacity="1" /><path clip-path="url(#clip590)" d="M1110.26 1517.37 Q1106.65 1517.37 1104.82 1520.93 Q1103.02 1524.47 1103.02 1531.6 Q1103.02 1538.71 1104.82 1542.27 Q1106.65 1545.82 1110.26 1545.82 Q1113.9 1545.82 1115.7 1542.27 Q1117.53 1538.71 1117.53 1531.6 Q1117.53 1524.47 1115.7 1520.93 Q1113.9 1517.37 1110.26 1517.37 M1110.26 1513.66 Q1116.07 1513.66 1119.13 1518.27 Q1122.21 1522.85 1122.21 1531.6 Q1122.21 1540.33 1119.13 1544.94 Q1116.07 1549.52 1110.26 1549.52 Q1104.45 1549.52 1101.37 1544.94 Q1098.32 1540.33 1098.32 1531.6 Q1098.32 1522.85 1101.37 1518.27 Q1104.45 1513.66 1110.26 1513.66 Z" fill="#000000" fill-rule="nonzero" fill-opacity="1" /><path clip-path="url(#clip590)" d="M1459.32 1530.21 Q1462.68 1530.93 1464.56 1533.2 Q1466.45 1535.47 1466.45 1538.8 Q1466.45 1543.92 1462.94 1546.72 Q1459.42 1549.52 1452.94 1549.52 Q1450.76 1549.52 1448.44 1549.08 Q1446.15 1548.66 1443.7 1547.81 L1443.7 1543.29 Q1445.64 1544.43 1447.96 1545.01 Q1450.27 1545.58 1452.8 1545.58 Q1457.19 1545.58 1459.49 1543.85 Q1461.8 1542.11 1461.8 1538.8 Q1461.8 1535.75 1459.65 1534.03 Q1457.52 1532.3 1453.7 1532.3 L1449.67 1532.3 L1449.67 1528.45 L1453.88 1528.45 Q1457.33 1528.45 1459.16 1527.09 Q1460.99 1525.7 1460.99 1523.11 Q1460.99 1520.45 1459.09 1519.03 Q1457.22 1517.6 1453.7 1517.6 Q1451.78 1517.6 1449.58 1518.01 Q1447.38 1518.43 1444.74 1519.31 L1444.74 1515.14 Q1447.4 1514.4 1449.72 1514.03 Q1452.06 1513.66 1454.12 1513.66 Q1459.44 1513.66 1462.54 1516.09 Q1465.64 1518.5 1465.64 1522.62 Q1465.64 1525.49 1464 1527.48 Q1462.36 1529.45 1459.32 1530.21 Z" fill="#000000" fill-rule="nonzero" fill-opacity="1" /><path clip-path="url(#clip590)" d="M1485.32 1517.37 Q1481.71 1517.37 1479.88 1520.93 Q1478.07 1524.47 1478.07 1531.6 Q1478.07 1538.71 1479.88 1542.27 Q1481.71 1545.82 1485.32 1545.82 Q1488.95 1545.82 1490.76 1542.27 Q1492.59 1538.71 1492.59 1531.6 Q1492.59 1524.47 1490.76 1520.93 Q1488.95 1517.37 1485.32 1517.37 M1485.32 1513.66 Q1491.13 1513.66 1494.19 1518.27 Q1497.26 1522.85 1497.26 1531.6 Q1497.26 1540.33 1494.19 1544.94 Q1491.13 1549.52 1485.32 1549.52 Q1479.51 1549.52 1476.43 1544.94 Q1473.37 1540.33 1473.37 1531.6 Q1473.37 1522.85 1476.43 1518.27 Q1479.51 1513.66 1485.32 1513.66 Z" fill="#000000" fill-rule="nonzero" fill-opacity="1" /><path clip-path="url(#clip590)" d="M1515.48 1517.37 Q1511.87 1517.37 1510.04 1520.93 Q1508.24 1524.47 1508.24 1531.6 Q1508.24 1538.71 1510.04 1542.27 Q1511.87 1545.82 1515.48 1545.82 Q1519.12 1545.82 1520.92 1542.27 Q1522.75 1538.71 1522.75 1531.6 Q1522.75 1524.47 1520.92 1520.93 Q1519.12 1517.37 1515.48 1517.37 M1515.48 1513.66 Q1521.29 1513.66 1524.35 1518.27 Q1527.43 1522.85 1527.43 1531.6 Q1527.43 1540.33 1524.35 1544.94 Q1521.29 1549.52 1515.48 1549.52 Q1509.67 1549.52 1506.59 1544.94 Q1503.54 1540.33 1503.54 1531.6 Q1503.54 1522.85 1506.59 1518.27 Q1509.67 1513.66 1515.48 1513.66 Z" fill="#000000" fill-rule="nonzero" fill-opacity="1" /><path clip-path="url(#clip590)" d="M1863.94 1518.36 L1852.13 1536.81 L1863.94 1536.81 L1863.94 1518.36 M1862.71 1514.29 L1868.59 1514.29 L1868.59 1536.81 L1873.52 1536.81 L1873.52 1540.7 L1868.59 1540.7 L1868.59 1548.85 L1863.94 1548.85 L1863.94 1540.7 L1848.34 1540.7 L1848.34 1536.19 L1862.71 1514.29 Z" fill="#000000" fill-rule="nonzero" fill-opacity="1" /><path clip-path="url(#clip590)" d="M1891.25 1517.37 Q1887.64 1517.37 1885.82 1520.93 Q1884.01 1524.47 1884.01 1531.6 Q1884.01 1538.71 1885.82 1542.27 Q1887.64 1545.82 1891.25 1545.82 Q1894.89 1545.82 1896.69 1542.27 Q1898.52 1538.71 1898.52 1531.6 Q1898.52 1524.47 1896.69 1520.93 Q1894.89 1517.37 1891.25 1517.37 M1891.25 1513.66 Q1897.07 1513.66 1900.12 1518.27 Q1903.2 1522.85 1903.2 1531.6 Q1903.2 1540.33 1900.12 1544.94 Q1897.07 1549.52 1891.25 1549.52 Q1885.44 1549.52 1882.37 1544.94 Q1879.31 1540.33 1879.31 1531.6 Q1879.31 1522.85 1882.37 1518.27 Q1885.44 1513.66 1891.25 1513.66 Z" fill="#000000" fill-rule="nonzero" fill-opacity="1" /><path clip-path="url(#clip590)" d="M1921.42 1517.37 Q1917.81 1517.37 1915.98 1520.93 Q1914.17 1524.47 1914.17 1531.6 Q1914.17 1538.71 1915.98 1542.27 Q1917.81 1545.82 1921.42 1545.82 Q1925.05 1545.82 1926.86 1542.27 Q1928.69 1538.71 1928.69 1531.6 Q1928.69 1524.47 1926.86 1520.93 Q1925.05 1517.37 1921.42 1517.37 M1921.42 1513.66 Q1927.23 1513.66 1930.28 1518.27 Q1933.36 1522.85 1933.36 1531.6 Q1933.36 1540.33 1930.28 1544.94 Q1927.23 1549.52 1921.42 1549.52 Q1915.61 1549.52 1912.53 1544.94 Q1909.47 1540.33 1909.47 1531.6 Q1909.47 1522.85 1912.53 1518.27 Q1915.61 1513.66 1921.42 1513.66 Z" fill="#000000" fill-rule="nonzero" fill-opacity="1" /><path clip-path="url(#clip590)" d="M2255.76 1514.29 L2274.11 1514.29 L2274.11 1518.22 L2260.04 1518.22 L2260.04 1526.7 Q2261.06 1526.35 2262.07 1526.19 Q2263.09 1526 2264.11 1526 Q2269.9 1526 2273.28 1529.17 Q2276.66 1532.34 2276.66 1537.76 Q2276.66 1543.34 2273.19 1546.44 Q2269.71 1549.52 2263.39 1549.52 Q2261.22 1549.52 2258.95 1549.15 Q2256.7 1548.78 2254.3 1548.04 L2254.3 1543.34 Q2256.38 1544.47 2258.6 1545.03 Q2260.82 1545.58 2263.3 1545.58 Q2267.31 1545.58 2269.64 1543.48 Q2271.98 1541.37 2271.98 1537.76 Q2271.98 1534.15 2269.64 1532.04 Q2267.31 1529.94 2263.3 1529.94 Q2261.43 1529.94 2259.55 1530.35 Q2257.7 1530.77 2255.76 1531.65 L2255.76 1514.29 Z" fill="#000000" fill-rule="nonzero" fill-opacity="1" /><path clip-path="url(#clip590)" d="M2295.87 1517.37 Q2292.26 1517.37 2290.43 1520.93 Q2288.63 1524.47 2288.63 1531.6 Q2288.63 1538.71 2290.43 1542.27 Q2292.26 1545.82 2295.87 1545.82 Q2299.51 1545.82 2301.31 1542.27 Q2303.14 1538.71 2303.14 1531.6 Q2303.14 1524.47 2301.31 1520.93 Q2299.51 1517.37 2295.87 1517.37 M2295.87 1513.66 Q2301.68 1513.66 2304.74 1518.27 Q2307.82 1522.85 2307.82 1531.6 Q2307.82 1540.33 2304.74 1544.94 Q2301.68 1549.52 2295.87 1549.52 Q2290.06 1549.52 2286.98 1544.94 Q2283.93 1540.33 2283.93 1531.6 Q2283.93 1522.85 2286.98 1518.27 Q2290.06 1513.66 2295.87 1513.66 Z" fill="#000000" fill-rule="nonzero" fill-opacity="1" /><path clip-path="url(#clip590)" d="M2326.03 1517.37 Q2322.42 1517.37 2320.59 1520.93 Q2318.79 1524.47 2318.79 1531.6 Q2318.79 1538.71 2320.59 1542.27 Q2322.42 1545.82 2326.03 1545.82 Q2329.67 1545.82 2331.47 1542.27 Q2333.3 1538.71 2333.3 1531.6 Q2333.3 1524.47 2331.47 1520.93 Q2329.67 1517.37 2326.03 1517.37 M2326.03 1513.66 Q2331.84 1513.66 2334.9 1518.27 Q2337.98 1522.85 2337.98 1531.6 Q2337.98 1540.33 2334.9 1544.94 Q2331.84 1549.52 2326.03 1549.52 Q2320.22 1549.52 2317.14 1544.94 Q2314.09 1540.33 2314.09 1531.6 Q2314.09 1522.85 2317.14 1518.27 Q2320.22 1513.66 2326.03 1513.66 Z" fill="#000000" fill-rule="nonzero" fill-opacity="1" /><polyline clip-path="url(#clip592)" style="stroke:#000000; stroke-linecap:round; stroke-linejoin:round; stroke-width:2; stroke-opacity:0.1; fill:none" points="209.029,1397.99 2352.76,1397.99 "/>
<polyline clip-path="url(#clip592)" style="stroke:#000000; stroke-linecap:round; stroke-linejoin:round; stroke-width:2; stroke-opacity:0.1; fill:none" points="209.029,979.661 2352.76,979.661 "/>
<polyline clip-path="url(#clip592)" style="stroke:#000000; stroke-linecap:round; stroke-linejoin:round; stroke-width:2; stroke-opacity:0.1; fill:none" points="209.029,561.336 2352.76,561.336 "/>
<polyline clip-path="url(#clip592)" style="stroke:#000000; stroke-linecap:round; stroke-linejoin:round; stroke-width:2; stroke-opacity:0.1; fill:none" points="209.029,143.011 2352.76,143.011 "/>
<polyline clip-path="url(#clip590)" style="stroke:#000000; stroke-linecap:round; stroke-linejoin:round; stroke-width:4; stroke-opacity:1; fill:none" points="209.029,1486.45 209.029,47.2441 "/>
<polyline clip-path="url(#clip590)" style="stroke:#000000; stroke-linecap:round; stroke-linejoin:round; stroke-width:4; stroke-opacity:1; fill:none" points="209.029,1397.99 227.926,1397.99 "/>
<polyline clip-path="url(#clip590)" style="stroke:#000000; stroke-linecap:round; stroke-linejoin:round; stroke-width:4; stroke-opacity:1; fill:none" points="209.029,979.661 227.926,979.661 "/>
<polyline clip-path="url(#clip590)" style="stroke:#000000; stroke-linecap:round; stroke-linejoin:round; stroke-width:4; stroke-opacity:1; fill:none" points="209.029,561.336 227.926,561.336 "/>
<polyline clip-path="url(#clip590)" style="stroke:#000000; stroke-linecap:round; stroke-linejoin:round; stroke-width:4; stroke-opacity:1; fill:none" points="209.029,143.011 227.926,143.011 "/>
<path clip-path="url(#clip590)" d="M50.9921 1398.44 L80.6679 1398.44 L80.6679 1402.37 L50.9921 1402.37 L50.9921 1398.44 Z" fill="#000000" fill-rule="nonzero" fill-opacity="1" /><path clip-path="url(#clip590)" d="M94.7882 1411.33 L111.108 1411.33 L111.108 1415.27 L89.1632 1415.27 L89.1632 1411.33 Q91.8252 1408.58 96.4085 1403.95 Q101.015 1399.29 102.196 1397.95 Q104.441 1395.43 105.321 1393.69 Q106.223 1391.93 106.223 1390.24 Q106.223 1387.49 104.279 1385.75 Q102.358 1384.02 99.2558 1384.02 Q97.0567 1384.02 94.603 1384.78 Q92.1725 1385.54 89.3947 1387.1 L89.3947 1382.37 Q92.2188 1381.24 94.6724 1380.66 Q97.1261 1380.08 99.1632 1380.08 Q104.534 1380.08 107.728 1382.77 Q110.922 1385.45 110.922 1389.94 Q110.922 1392.07 110.112 1393.99 Q109.325 1395.89 107.219 1398.48 Q106.64 1399.16 103.538 1402.37 Q100.436 1405.57 94.7882 1411.33 Z" fill="#000000" fill-rule="nonzero" fill-opacity="1" /><path clip-path="url(#clip590)" d="M130.922 1383.79 Q127.311 1383.79 125.482 1387.35 Q123.677 1390.89 123.677 1398.02 Q123.677 1405.13 125.482 1408.69 Q127.311 1412.23 130.922 1412.23 Q134.556 1412.23 136.362 1408.69 Q138.191 1405.13 138.191 1398.02 Q138.191 1390.89 136.362 1387.35 Q134.556 1383.79 130.922 1383.79 M130.922 1380.08 Q136.732 1380.08 139.788 1384.69 Q142.867 1389.27 142.867 1398.02 Q142.867 1406.75 139.788 1411.35 Q136.732 1415.94 130.922 1415.94 Q125.112 1415.94 122.033 1411.35 Q118.978 1406.75 118.978 1398.02 Q118.978 1389.27 122.033 1384.69 Q125.112 1380.08 130.922 1380.08 Z" fill="#000000" fill-rule="nonzero" fill-opacity="1" /><path clip-path="url(#clip590)" d="M161.084 1383.79 Q157.473 1383.79 155.644 1387.35 Q153.839 1390.89 153.839 1398.02 Q153.839 1405.13 155.644 1408.69 Q157.473 1412.23 161.084 1412.23 Q164.718 1412.23 166.524 1408.69 Q168.353 1405.13 168.353 1398.02 Q168.353 1390.89 166.524 1387.35 Q164.718 1383.79 161.084 1383.79 M161.084 1380.08 Q166.894 1380.08 169.95 1384.69 Q173.029 1389.27 173.029 1398.02 Q173.029 1406.75 169.95 1411.35 Q166.894 1415.94 161.084 1415.94 Q155.274 1415.94 152.195 1411.35 Q149.14 1406.75 149.14 1398.02 Q149.14 1389.27 152.195 1384.69 Q155.274 1380.08 161.084 1380.08 Z" fill="#000000" fill-rule="nonzero" fill-opacity="1" /><path clip-path="url(#clip590)" d="M50.9921 980.113 L80.6679 980.113 L80.6679 984.048 L50.9921 984.048 L50.9921 980.113 Z" fill="#000000" fill-rule="nonzero" fill-opacity="1" /><path clip-path="url(#clip590)" d="M91.5706 993.006 L99.2095 993.006 L99.2095 966.64 L90.8993 968.307 L90.8993 964.048 L99.1632 962.381 L103.839 962.381 L103.839 993.006 L111.478 993.006 L111.478 996.941 L91.5706 996.941 L91.5706 993.006 Z" fill="#000000" fill-rule="nonzero" fill-opacity="1" /><path clip-path="url(#clip590)" d="M120.969 962.381 L139.325 962.381 L139.325 966.316 L125.251 966.316 L125.251 974.789 Q126.27 974.441 127.288 974.279 Q128.307 974.094 129.325 974.094 Q135.112 974.094 138.492 977.265 Q141.871 980.437 141.871 985.853 Q141.871 991.432 138.399 994.534 Q134.927 997.613 128.607 997.613 Q126.432 997.613 124.163 997.242 Q121.918 996.872 119.51 996.131 L119.51 991.432 Q121.594 992.566 123.816 993.122 Q126.038 993.677 128.515 993.677 Q132.519 993.677 134.857 991.571 Q137.195 989.464 137.195 985.853 Q137.195 982.242 134.857 980.136 Q132.519 978.029 128.515 978.029 Q126.64 978.029 124.765 978.446 Q122.913 978.863 120.969 979.742 L120.969 962.381 Z" fill="#000000" fill-rule="nonzero" fill-opacity="1" /><path clip-path="url(#clip590)" d="M161.084 965.46 Q157.473 965.46 155.644 969.025 Q153.839 972.566 153.839 979.696 Q153.839 986.802 155.644 990.367 Q157.473 993.909 161.084 993.909 Q164.718 993.909 166.524 990.367 Q168.353 986.802 168.353 979.696 Q168.353 972.566 166.524 969.025 Q164.718 965.46 161.084 965.46 M161.084 961.756 Q166.894 961.756 169.95 966.363 Q173.029 970.946 173.029 979.696 Q173.029 988.423 169.95 993.029 Q166.894 997.613 161.084 997.613 Q155.274 997.613 152.195 993.029 Q149.14 988.423 149.14 979.696 Q149.14 970.946 152.195 966.363 Q155.274 961.756 161.084 961.756 Z" fill="#000000" fill-rule="nonzero" fill-opacity="1" /><path clip-path="url(#clip590)" d="M50.9921 561.787 L80.6679 561.787 L80.6679 565.722 L50.9921 565.722 L50.9921 561.787 Z" fill="#000000" fill-rule="nonzero" fill-opacity="1" /><path clip-path="url(#clip590)" d="M91.5706 574.681 L99.2095 574.681 L99.2095 548.315 L90.8993 549.982 L90.8993 545.723 L99.1632 544.056 L103.839 544.056 L103.839 574.681 L111.478 574.681 L111.478 578.616 L91.5706 578.616 L91.5706 574.681 Z" fill="#000000" fill-rule="nonzero" fill-opacity="1" /><path clip-path="url(#clip590)" d="M130.922 547.135 Q127.311 547.135 125.482 550.699 Q123.677 554.241 123.677 561.371 Q123.677 568.477 125.482 572.042 Q127.311 575.583 130.922 575.583 Q134.556 575.583 136.362 572.042 Q138.191 568.477 138.191 561.371 Q138.191 554.241 136.362 550.699 Q134.556 547.135 130.922 547.135 M130.922 543.431 Q136.732 543.431 139.788 548.037 Q142.867 552.621 142.867 561.371 Q142.867 570.097 139.788 574.704 Q136.732 579.287 130.922 579.287 Q125.112 579.287 122.033 574.704 Q118.978 570.097 118.978 561.371 Q118.978 552.621 122.033 548.037 Q125.112 543.431 130.922 543.431 Z" fill="#000000" fill-rule="nonzero" fill-opacity="1" /><path clip-path="url(#clip590)" d="M161.084 547.135 Q157.473 547.135 155.644 550.699 Q153.839 554.241 153.839 561.371 Q153.839 568.477 155.644 572.042 Q157.473 575.583 161.084 575.583 Q164.718 575.583 166.524 572.042 Q168.353 568.477 168.353 561.371 Q168.353 554.241 166.524 550.699 Q164.718 547.135 161.084 547.135 M161.084 543.431 Q166.894 543.431 169.95 548.037 Q173.029 552.621 173.029 561.371 Q173.029 570.097 169.95 574.704 Q166.894 579.287 161.084 579.287 Q155.274 579.287 152.195 574.704 Q149.14 570.097 149.14 561.371 Q149.14 552.621 152.195 548.037 Q155.274 543.431 161.084 543.431 Z" fill="#000000" fill-rule="nonzero" fill-opacity="1" /><path clip-path="url(#clip590)" d="M81.154 143.462 L110.83 143.462 L110.83 147.397 L81.154 147.397 L81.154 143.462 Z" fill="#000000" fill-rule="nonzero" fill-opacity="1" /><path clip-path="url(#clip590)" d="M120.969 125.731 L139.325 125.731 L139.325 129.666 L125.251 129.666 L125.251 138.138 Q126.27 137.791 127.288 137.629 Q128.307 137.443 129.325 137.443 Q135.112 137.443 138.492 140.615 Q141.871 143.786 141.871 149.203 Q141.871 154.781 138.399 157.883 Q134.927 160.962 128.607 160.962 Q126.432 160.962 124.163 160.591 Q121.918 160.221 119.51 159.48 L119.51 154.781 Q121.594 155.916 123.816 156.471 Q126.038 157.027 128.515 157.027 Q132.519 157.027 134.857 154.92 Q137.195 152.814 137.195 149.203 Q137.195 145.592 134.857 143.485 Q132.519 141.379 128.515 141.379 Q126.64 141.379 124.765 141.795 Q122.913 142.212 120.969 143.092 L120.969 125.731 Z" fill="#000000" fill-rule="nonzero" fill-opacity="1" /><path clip-path="url(#clip590)" d="M161.084 128.809 Q157.473 128.809 155.644 132.374 Q153.839 135.916 153.839 143.045 Q153.839 150.152 155.644 153.716 Q157.473 157.258 161.084 157.258 Q164.718 157.258 166.524 153.716 Q168.353 150.152 168.353 143.045 Q168.353 135.916 166.524 132.374 Q164.718 128.809 161.084 128.809 M161.084 125.106 Q166.894 125.106 169.95 129.712 Q173.029 134.295 173.029 143.045 Q173.029 151.772 169.95 156.378 Q166.894 160.962 161.084 160.962 Q155.274 160.962 152.195 156.378 Q149.14 151.772 149.14 143.045 Q149.14 134.295 152.195 129.712 Q155.274 125.106 161.084 125.106 Z" fill="#000000" fill-rule="nonzero" fill-opacity="1" /><polyline clip-path="url(#clip592)" style="stroke:#009af9; stroke-linecap:round; stroke-linejoin:round; stroke-width:4; stroke-opacity:1; fill:none" points="269.7,420.592 273.753,419.655 277.806,263.018 281.859,262.485 285.912,221.359 289.964,220.878 294.017,377.447 298.07,376.995 302.123,403.079 306.176,401.88 310.229,549.72 314.282,548.746 318.335,131.758 322.387,131.413 326.44,246.329 330.493,245.729 334.546,172.11 338.599,171.642 342.652,307.433 346.705,306.747 350.758,193.464 354.81,193.025 358.863,447.824 362.916,446.78 366.969,425.493 371.022,424.773 375.075,126.61 379.128,126.29 383.181,370.602 387.233,370.064 391.286,355.693 395.339,354.582 399.392,325.428 403.445,324.76 407.498,409.704 411.551,409.077 415.604,376.32 419.656,375.716 423.709,394.935 427.762,394.284 431.815,88.3238 435.868,87.9763 439.921,456.482 443.974,455.516 448.027,297.954 452.079,297.089 456.132,286.301 460.185,285.731 464.238,125.365 468.291,124.988 472.344,231.727 476.397,230.873 480.45,356.885 484.502,356.064 488.555,619.27 492.608,617.421 496.661,287.303 500.714,286.749 504.767,361.557 508.82,360.283 512.873,397.314 516.925,396.32 520.978,241.309 525.031,240.738 529.084,325.56 533.137,324.667 537.19,650.843 541.243,649.46 545.295,315.338 549.348,314.625 553.401,618.63 557.454,617.623 561.507,275.009 565.56,274.572 569.613,347.765 573.666,347.006 577.718,256.089 581.771,255.696 585.824,794.267 589.877,791.478 593.93,510.597 597.983,508.984 602.036,412.374 606.089,411.372 610.141,489.048 614.194,488.221 618.247,178.079 622.3,177.517 626.353,436.145 630.406,435.138 634.459,357.881 638.512,357.296 642.564,436.15 646.617,434.984 650.67,204.206 654.723,203.82 658.776,130.945 662.829,130.422 666.882,211.39 670.935,210.751 674.987,701.24 679.04,699.893 683.093,670.62 687.146,669.692 691.199,506.737 695.252,505.88 699.305,674.822 703.358,673.276 707.41,327.781 711.463,327.169 715.516,485.796 719.569,485.308 723.622,443.49 727.675,442.516 731.728,415.508 735.781,414.614 739.833,648.646 743.886,647.811 747.939,728.86 751.992,728.099 756.045,408.734 760.098,406.586 764.151,853.175 768.204,852.272 772.256,300.87 776.309,299.58 780.362,610.744 784.415,608.777 788.468,372.345 792.521,371.8 796.574,678.884 800.627,676.095 804.679,592.789 808.732,591.29 812.785,378.213 816.838,377.652 820.891,501.514 824.944,500.682 828.997,444.747 833.05,443.937 837.102,654.437 841.155,653.493 845.208,801.208 849.261,799.699 853.314,566.316 857.367,565.562 861.42,474.769 865.473,474.055 869.525,586.734 873.578,585.553 877.631,498.079 881.684,497.415 885.737,436.791 889.79,436.078 893.843,514.959 897.896,513.739 901.948,420.178 906.001,419.569 910.054,689.315 914.107,687.982 918.16,264.871 922.213,264.546 926.266,810.278 930.319,809.014 934.371,685.953 938.424,684.253 942.477,568.178 946.53,566.973 950.583,499.069 954.636,498.54 958.689,643.977 962.742,643.23 966.794,751.345 970.847,750.208 974.9,952.213 978.953,950.312 983.006,565.327 987.059,564.276 991.112,893.157 995.165,891.16 999.217,797.03 1003.27,796.238 1007.32,440.719 1011.38,439.879 1015.43,786.913 1019.48,785.783 1023.53,507.802 1027.59,507.379 1031.64,380.241 1035.69,379.842 1039.75,619.322 1043.8,618.677 1047.85,797.739 1051.9,795.919 1055.96,708.728 1060.01,707.977 1064.06,952.953 1068.12,951.772 1072.17,500.958 1076.22,500.375 1080.27,684.067 1084.33,683.394 1088.38,511.356 1092.43,510.397 1096.49,637.672 1100.54,636.836 1104.59,515.094 1108.65,514.61 1112.7,852.006 1116.75,849.962 1120.8,799.685 1124.86,799.071 1128.91,728.426 1132.96,727.839 1137.02,513.477 1141.07,512.373 1145.12,612.627 1149.17,612.059 1153.23,893.689 1157.28,892.421 1161.33,775.315 1165.39,773.451 1169.44,449.347 1173.49,448.631 1177.54,895.317 1181.6,895.051 1185.65,510.48 1189.7,509.945 1193.76,871.438 1197.81,869.789 1201.86,495.792 1205.91,494.813 1209.97,555.621 1214.02,555.011 1218.07,781.495 1222.13,780.636 1226.18,627.813 1230.23,626.822 1234.28,688.795 1238.34,686.78 1242.39,717.716 1246.44,717.013 1250.5,602.56 1254.55,601.979 1258.6,510.907 1262.65,510.491 1266.71,615.882 1270.76,615.311 1274.81,582.845 1278.87,582.243 1282.92,391.624 1286.97,391.296 1291.02,808.267 1295.08,807.047 1299.13,621.181 1303.18,620.517 1307.24,675.391 1311.29,674.529 1315.34,753.093 1319.39,751.74 1323.45,1078.96 1327.5,1075.95 1331.55,847.744 1335.61,846.049 1339.66,718.477 1343.71,716.538 1347.76,753.237 1351.82,751.809 1355.87,830.632 1359.92,829.478 1363.98,727.419 1368.03,725.808 1372.08,872.179 1376.13,871.79 1380.19,815.925 1384.24,814.618 1388.29,744.373 1392.35,743.591 1396.4,816.951 1400.45,815.787 1404.5,720.814 1408.56,720.274 1412.61,1013.32 1416.66,1011.84 1420.72,840.815 1424.77,839.909 1428.82,869.741 1432.87,868.74 1436.93,724.322 1440.98,722.541 1445.03,933.345 1449.09,932.713 1453.14,684.463 1457.19,684.069 1461.25,793.022 1465.3,791.903 1469.35,925.269 1473.4,924.402 1477.46,802.147 1481.51,801.442 1485.56,704.679 1489.62,703.777 1493.67,619.305 1497.72,618.733 1501.77,999.654 1505.83,997.91 1509.88,673.257 1513.93,671.662 1517.99,547.894 1522.04,547.423 1526.09,975.446 1530.14,971.235 1534.2,728.145 1538.25,726.949 1542.3,949.428 1546.36,948.716 1550.41,639.677 1554.46,638.452 1558.51,1048.89 1562.57,1044.98 1566.62,887.266 1570.67,886.412 1574.73,874.737 1578.78,873.961 1582.83,627.569 1586.88,627.08 1590.94,944.395 1594.99,943.739 1599.04,660.324 1603.1,659.84 1607.15,1157.79 1611.2,1155.34 1615.25,1018.67 1619.31,1018.06 1623.36,880.217 1627.41,879.516 1631.47,950.205 1635.52,948.68 1639.57,776.159 1643.62,775.458 1647.68,645.658 1651.73,644.933 1655.78,797.117 1659.84,796.202 1663.89,842.629 1667.94,841.925 1671.99,1298.39 1676.05,1295.82 1680.1,1023.13 1684.15,1021.8 1688.21,1015.93 1692.26,1012.09 1696.31,890.065 1700.36,889.363 1704.42,1230.27 1708.47,1229.21 1712.52,1108.7 1716.58,1106.58 1720.63,898.972 1724.68,898.37 1728.73,957.574 1732.79,956.772 1736.84,937.661 1740.89,936.626 1744.95,894.295 1749,892.015 1753.05,826.405 1757.1,825.255 1761.16,926.829 1765.21,926.298 1769.26,968.085 1773.32,967.145 1777.37,1141.64 1781.42,1140.49 1785.48,980.316 1789.53,979.523 1793.58,907.498 1797.63,906.444 1801.69,953.053 1805.74,951.773 1809.79,1105.88 1813.85,1104.89 1817.9,949.679 1821.95,948.284 1826,1356.38 1830.06,1354.54 1834.11,1349.31 1838.16,1346.36 1842.22,919.378 1846.27,917.94 1850.32,1245.36 1854.37,1240.79 1858.43,826.885 1862.48,826.028 1866.53,605.225 1870.59,604.882 1874.64,940.352 1878.69,939.476 1882.74,922.463 1886.8,921.524 1890.85,998.503 1894.9,997.615 1898.96,1154.73 1903.01,1150.82 1907.06,957.999 1911.11,957.31 1915.17,1024.18 1919.22,1022.94 1923.27,782.014 1927.33,780.938 1931.38,963.634 1935.43,962.814 1939.48,1121.77 1943.54,1120.32 1947.59,875.294 1951.64,873.793 1955.7,1071.87 1959.75,1069.26 1963.8,1102.35 1967.85,1101.51 1971.91,903.019 1975.96,901.269 1980.01,912.845 1984.07,911.475 1988.12,1393.26 1992.17,1388.8 1996.22,881.436 2000.28,880.966 2004.33,1384.48 2008.38,1383 2012.44,866.302 2016.49,865.951 2020.54,1100.28 2024.59,1099.44 2028.65,921.145 2032.7,920.731 2036.75,1305.82 2040.81,1303.59 2044.86,1304.24 2048.91,1302.64 2052.96,832.993 2057.02,832.576 2061.07,1023.55 2065.12,1022.17 2069.18,1199.41 2073.23,1198.81 2077.28,1178.2 2081.33,1176.54 2085.39,1267.39 2089.44,1266.18 2093.49,1169.27 2097.55,1167.03 2101.6,782.722 2105.65,780.995 2109.71,887.1 2113.76,886.365 2117.81,1089.35 2121.86,1087.46 2125.92,1190.6 2129.97,1188.4 2134.02,780.071 2138.08,779.095 2142.13,1136.23 2146.18,1135.5 2150.23,1373.93 2154.29,1372.65 2158.34,1094.84 2162.39,1093.49 2166.45,1252.73 2170.5,1251.8 2174.55,1075.59 2178.6,1074.4 2182.66,1445.72 2186.71,1442.81 2190.76,1343.4 2194.82,1342.28 2198.87,1259.96 2202.92,1259.03 2206.97,1011.51 2211.03,1009.99 2215.08,1176.62 2219.13,1175.78 2223.19,1131.26 2227.24,1130.87 2231.29,1181.07 2235.34,1178.4 2239.4,1152.47 2243.45,1150.4 2247.5,902.116 2251.56,901.171 2255.61,1030.05 2259.66,1028.85 2263.71,1305.03 2267.77,1304.32 2271.82,1031.12 2275.87,1030.26 2279.93,1346.27 2283.98,1345.66 2288.03,1355.28 2292.08,1353.79 "/>
<path clip-path="url(#clip590)" d="M2014.5 198.898 L2281.3 198.898 L2281.3 95.2176 L2014.5 95.2176  Z" fill="#ffffff" fill-rule="evenodd" fill-opacity="1"/>
<polyline clip-path="url(#clip590)" style="stroke:#000000; stroke-linecap:round; stroke-linejoin:round; stroke-width:4; stroke-opacity:1; fill:none" points="2014.5,198.898 2281.3,198.898 2281.3,95.2176 2014.5,95.2176 2014.5,198.898 "/>
<polyline clip-path="url(#clip590)" style="stroke:#009af9; stroke-linecap:round; stroke-linejoin:round; stroke-width:4; stroke-opacity:1; fill:none" points="2038.31,147.058 2181.23,147.058 "/>
<path clip-path="url(#clip590)" d="M2218.89 166.745 Q2217.09 171.375 2215.37 172.787 Q2213.66 174.199 2210.79 174.199 L2207.39 174.199 L2207.39 170.634 L2209.89 170.634 Q2211.65 170.634 2212.62 169.8 Q2213.59 168.967 2214.77 165.865 L2215.53 163.921 L2205.05 138.412 L2209.56 138.412 L2217.66 158.689 L2225.77 138.412 L2230.28 138.412 L2218.89 166.745 Z" fill="#000000" fill-rule="nonzero" fill-opacity="1" /><path clip-path="url(#clip590)" d="M2237.57 160.402 L2245.21 160.402 L2245.21 134.037 L2236.9 135.703 L2236.9 131.444 L2245.16 129.778 L2249.84 129.778 L2249.84 160.402 L2257.48 160.402 L2257.48 164.338 L2237.57 164.338 L2237.57 160.402 Z" fill="#000000" fill-rule="nonzero" fill-opacity="1" /></svg>
