<?xml version="1.0" encoding="utf-8"?>
<svg xmlns="http://www.w3.org/2000/svg" xmlns:xlink="http://www.w3.org/1999/xlink" width="600" height="400" viewBox="0 0 2400 1600">
<defs>
  <clipPath id="clip560">
    <rect x="0" y="0" width="2400" height="1600"/>
  </clipPath>
</defs>
<path clip-path="url(#clip560)" d="M0 1600 L2400 1600 L2400 0 L0 0  Z" fill="#ffffff" fill-rule="evenodd" fill-opacity="1"/>
<defs>
  <clipPath id="clip561">
    <rect x="480" y="0" width="1681" height="1600"/>
  </clipPath>
</defs>
<path clip-path="url(#clip560)" d="M140.696 1486.45 L2352.76 1486.45 L2352.76 47.2441 L140.696 47.2441  Z" fill="#ffffff" fill-rule="evenodd" fill-opacity="1"/>
<defs>
  <clipPath id="clip562">
    <rect x="140" y="47" width="2213" height="1440"/>
  </clipPath>
</defs>
<polyline clip-path="url(#clip562)" style="stroke:#000000; stroke-linecap:round; stroke-linejoin:round; stroke-width:2; stroke-opacity:0.1; fill:none" points="203.301,1486.45 203.301,47.2441 "/>
<polyline clip-path="url(#clip562)" style="stroke:#000000; stroke-linecap:round; stroke-linejoin:round; stroke-width:2; stroke-opacity:0.1; fill:none" points="620.671,1486.45 620.671,47.2441 "/>
<polyline clip-path="url(#clip562)" style="stroke:#000000; stroke-linecap:round; stroke-linejoin:round; stroke-width:2; stroke-opacity:0.1; fill:none" points="1038.04,1486.45 1038.04,47.2441 "/>
<polyline clip-path="url(#clip562)" style="stroke:#000000; stroke-linecap:round; stroke-linejoin:round; stroke-width:2; stroke-opacity:0.1; fill:none" points="1455.41,1486.45 1455.41,47.2441 "/>
<polyline clip-path="url(#clip562)" style="stroke:#000000; stroke-linecap:round; stroke-linejoin:round; stroke-width:2; stroke-opacity:0.1; fill:none" points="1872.78,1486.45 1872.78,47.2441 "/>
<polyline clip-path="url(#clip562)" style="stroke:#000000; stroke-linecap:round; stroke-linejoin:round; stroke-width:2; stroke-opacity:0.1; fill:none" points="2290.15,1486.45 2290.15,47.2441 "/>
<polyline clip-path="url(#clip560)" style="stroke:#000000; stroke-linecap:round; stroke-linejoin:round; stroke-width:4; stroke-opacity:1; fill:none" points="140.696,1486.45 2352.76,1486.45 "/>
<polyline clip-path="url(#clip560)" style="stroke:#000000; stroke-linecap:round; stroke-linejoin:round; stroke-width:4; stroke-opacity:1; fill:none" points="203.301,1486.45 203.301,1467.55 "/>
<polyline clip-path="url(#clip560)" style="stroke:#000000; stroke-linecap:round; stroke-linejoin:round; stroke-width:4; stroke-opacity:1; fill:none" points="620.671,1486.45 620.671,1467.55 "/>
<polyline clip-path="url(#clip560)" style="stroke:#000000; stroke-linecap:round; stroke-linejoin:round; stroke-width:4; stroke-opacity:1; fill:none" points="1038.04,1486.45 1038.04,1467.55 "/>
<polyline clip-path="url(#clip560)" style="stroke:#000000; stroke-linecap:round; stroke-linejoin:round; stroke-width:4; stroke-opacity:1; fill:none" points="1455.41,1486.45 1455.41,1467.55 "/>
<polyline clip-path="url(#clip560)" style="stroke:#000000; stroke-linecap:round; stroke-linejoin:round; stroke-width:4; stroke-opacity:1; fill:none" points="1872.78,1486.45 1872.78,1467.55 "/>
<polyline clip-path="url(#clip560)" style="stroke:#000000; stroke-linecap:round; stroke-linejoin:round; stroke-width:4; stroke-opacity:1; fill:none" points="2290.15,1486.45 2290.15,1467.55 "/>
<path clip-path="url(#clip560)" d="M203.301 1517.37 Q199.69 1517.37 197.861 1520.93 Q196.056 1524.47 196.056 1531.6 Q196.056 1538.71 197.861 1542.27 Q199.69 1545.82 203.301 1545.82 Q206.935 1545.82 208.741 1542.27 Q210.57 1538.71 210.57 1531.6 Q210.57 1524.47 208.741 1520.93 Q206.935 1517.37 203.301 1517.37 M203.301 1513.66 Q209.111 1513.66 212.167 1518.27 Q215.245 1522.85 215.245 1531.6 Q215.245 1540.33 212.167 1544.94 Q209.111 1549.52 203.301 1549.52 Q197.491 1549.52 194.412 1544.94 Q191.357 1540.33 191.357 1531.6 Q191.357 1522.85 194.412 1518.27 Q197.491 1513.66 203.301 1513.66 Z" fill="#000000" fill-rule="nonzero" fill-opacity="1" /><path clip-path="url(#clip560)" d="M580.278 1544.91 L587.916 1544.91 L587.916 1518.55 L579.606 1520.21 L579.606 1515.95 L587.87 1514.29 L592.546 1514.29 L592.546 1544.91 L600.185 1544.91 L600.185 1548.85 L580.278 1548.85 L580.278 1544.91 Z" fill="#000000" fill-rule="nonzero" fill-opacity="1" /><path clip-path="url(#clip560)" d="M619.629 1517.37 Q616.018 1517.37 614.189 1520.93 Q612.384 1524.47 612.384 1531.6 Q612.384 1538.71 614.189 1542.27 Q616.018 1545.82 619.629 1545.82 Q623.263 1545.82 625.069 1542.27 Q626.898 1538.71 626.898 1531.6 Q626.898 1524.47 625.069 1520.93 Q623.263 1517.37 619.629 1517.37 M619.629 1513.66 Q625.439 1513.66 628.495 1518.27 Q631.574 1522.85 631.574 1531.6 Q631.574 1540.33 628.495 1544.94 Q625.439 1549.52 619.629 1549.52 Q613.819 1549.52 610.74 1544.94 Q607.685 1540.33 607.685 1531.6 Q607.685 1522.85 610.74 1518.27 Q613.819 1513.66 619.629 1513.66 Z" fill="#000000" fill-rule="nonzero" fill-opacity="1" /><path clip-path="url(#clip560)" d="M649.791 1517.37 Q646.18 1517.37 644.351 1520.93 Q642.546 1524.47 642.546 1531.6 Q642.546 1538.71 644.351 1542.27 Q646.18 1545.82 649.791 1545.82 Q653.425 1545.82 655.231 1542.27 Q657.06 1538.71 657.06 1531.6 Q657.06 1524.47 655.231 1520.93 Q653.425 1517.37 649.791 1517.37 M649.791 1513.66 Q655.601 1513.66 658.657 1518.27 Q661.735 1522.85 661.735 1531.6 Q661.735 1540.33 658.657 1544.94 Q655.601 1549.52 649.791 1549.52 Q643.981 1549.52 640.902 1544.94 Q637.847 1540.33 637.847 1531.6 Q637.847 1522.85 640.902 1518.27 Q643.981 1513.66 649.791 1513.66 Z" fill="#000000" fill-rule="nonzero" fill-opacity="1" /><path clip-path="url(#clip560)" d="M1001.73 1544.91 L1018.05 1544.91 L1018.05 1548.85 L996.108 1548.85 L996.108 1544.91 Q998.77 1542.16 1003.35 1537.53 Q1007.96 1532.88 1009.14 1531.53 Q1011.39 1529.01 1012.27 1527.27 Q1013.17 1525.51 1013.17 1523.82 Q1013.17 1521.07 1011.22 1519.33 Q1009.3 1517.6 1006.2 1517.6 Q1004 1517.6 1001.55 1518.36 Q999.117 1519.13 996.34 1520.68 L996.34 1515.95 Q999.164 1514.82 1001.62 1514.24 Q1004.07 1513.66 1006.11 1513.66 Q1011.48 1513.66 1014.67 1516.35 Q1017.87 1519.03 1017.87 1523.52 Q1017.87 1525.65 1017.06 1527.57 Q1016.27 1529.47 1014.16 1532.07 Q1013.58 1532.74 1010.48 1535.95 Q1007.38 1539.15 1001.73 1544.91 Z" fill="#000000" fill-rule="nonzero" fill-opacity="1" /><path clip-path="url(#clip560)" d="M1037.87 1517.37 Q1034.26 1517.37 1032.43 1520.93 Q1030.62 1524.47 1030.62 1531.6 Q1030.62 1538.71 1032.43 1542.27 Q1034.26 1545.82 1037.87 1545.82 Q1041.5 1545.82 1043.31 1542.27 Q1045.14 1538.71 1045.14 1531.6 Q1045.14 1524.47 1043.31 1520.93 Q1041.5 1517.37 1037.87 1517.37 M1037.87 1513.66 Q1043.68 1513.66 1046.73 1518.27 Q1049.81 1522.85 1049.81 1531.6 Q1049.81 1540.33 1046.73 1544.94 Q1043.68 1549.52 1037.87 1549.52 Q1032.06 1549.52 1028.98 1544.94 Q1025.92 1540.33 1025.92 1531.6 Q1025.92 1522.85 1028.98 1518.27 Q1032.06 1513.66 1037.87 1513.66 Z" fill="#000000" fill-rule="nonzero" fill-opacity="1" /><path clip-path="url(#clip560)" d="M1068.03 1517.37 Q1064.42 1517.37 1062.59 1520.93 Q1060.78 1524.47 1060.78 1531.6 Q1060.78 1538.71 1062.59 1542.27 Q1064.42 1545.82 1068.03 1545.82 Q1071.66 1545.82 1073.47 1542.27 Q1075.3 1538.71 1075.3 1531.6 Q1075.3 1524.47 1073.47 1520.93 Q1071.66 1517.37 1068.03 1517.37 M1068.03 1513.66 Q1073.84 1513.66 1076.89 1518.27 Q1079.97 1522.85 1079.97 1531.6 Q1079.97 1540.33 1076.89 1544.94 Q1073.84 1549.52 1068.03 1549.52 Q1062.22 1549.52 1059.14 1544.94 Q1056.08 1540.33 1056.08 1531.6 Q1056.08 1522.85 1059.14 1518.27 Q1062.22 1513.66 1068.03 1513.66 Z" fill="#000000" fill-rule="nonzero" fill-opacity="1" /><path clip-path="url(#clip560)" d="M1429.17 1530.21 Q1432.53 1530.93 1434.4 1533.2 Q1436.3 1535.47 1436.3 1538.8 Q1436.3 1543.92 1432.78 1546.72 Q1429.26 1549.52 1422.78 1549.52 Q1420.61 1549.52 1418.29 1549.08 Q1416 1548.66 1413.55 1547.81 L1413.55 1543.29 Q1415.49 1544.43 1417.81 1545.01 Q1420.12 1545.58 1422.64 1545.58 Q1427.04 1545.58 1429.33 1543.85 Q1431.65 1542.11 1431.65 1538.8 Q1431.65 1535.75 1429.5 1534.03 Q1427.37 1532.3 1423.55 1532.3 L1419.52 1532.3 L1419.52 1528.45 L1423.73 1528.45 Q1427.18 1528.45 1429.01 1527.09 Q1430.84 1525.7 1430.84 1523.11 Q1430.84 1520.45 1428.94 1519.03 Q1427.07 1517.6 1423.55 1517.6 Q1421.63 1517.6 1419.43 1518.01 Q1417.23 1518.43 1414.59 1519.31 L1414.59 1515.14 Q1417.25 1514.4 1419.57 1514.03 Q1421.9 1513.66 1423.96 1513.66 Q1429.29 1513.66 1432.39 1516.09 Q1435.49 1518.5 1435.49 1522.62 Q1435.49 1525.49 1433.85 1527.48 Q1432.2 1529.45 1429.17 1530.21 Z" fill="#000000" fill-rule="nonzero" fill-opacity="1" /><path clip-path="url(#clip560)" d="M1455.17 1517.37 Q1451.56 1517.37 1449.73 1520.93 Q1447.92 1524.47 1447.92 1531.6 Q1447.92 1538.71 1449.73 1542.27 Q1451.56 1545.82 1455.17 1545.82 Q1458.8 1545.82 1460.61 1542.27 Q1462.44 1538.71 1462.44 1531.6 Q1462.44 1524.47 1460.61 1520.93 Q1458.8 1517.37 1455.17 1517.37 M1455.17 1513.66 Q1460.98 1513.66 1464.03 1518.27 Q1467.11 1522.85 1467.11 1531.6 Q1467.11 1540.33 1464.03 1544.94 Q1460.98 1549.52 1455.17 1549.52 Q1449.36 1549.52 1446.28 1544.94 Q1443.22 1540.33 1443.22 1531.6 Q1443.22 1522.85 1446.28 1518.27 Q1449.36 1513.66 1455.17 1513.66 Z" fill="#000000" fill-rule="nonzero" fill-opacity="1" /><path clip-path="url(#clip560)" d="M1485.33 1517.37 Q1481.72 1517.37 1479.89 1520.93 Q1478.08 1524.47 1478.08 1531.6 Q1478.08 1538.71 1479.89 1542.27 Q1481.72 1545.82 1485.33 1545.82 Q1488.96 1545.82 1490.77 1542.27 Q1492.6 1538.71 1492.6 1531.6 Q1492.6 1524.47 1490.77 1520.93 Q1488.96 1517.37 1485.33 1517.37 M1485.33 1513.66 Q1491.14 1513.66 1494.2 1518.27 Q1497.27 1522.85 1497.27 1531.6 Q1497.27 1540.33 1494.2 1544.94 Q1491.14 1549.52 1485.33 1549.52 Q1479.52 1549.52 1476.44 1544.94 Q1473.39 1540.33 1473.39 1531.6 Q1473.39 1522.85 1476.44 1518.27 Q1479.52 1513.66 1485.33 1513.66 Z" fill="#000000" fill-rule="nonzero" fill-opacity="1" /><path clip-path="url(#clip560)" d="M1845.87 1518.36 L1834.07 1536.81 L1845.87 1536.81 L1845.87 1518.36 M1844.64 1514.29 L1850.52 1514.29 L1850.52 1536.81 L1855.45 1536.81 L1855.45 1540.7 L1850.52 1540.7 L1850.52 1548.85 L1845.87 1548.85 L1845.87 1540.7 L1830.27 1540.7 L1830.27 1536.19 L1844.64 1514.29 Z" fill="#000000" fill-rule="nonzero" fill-opacity="1" /><path clip-path="url(#clip560)" d="M1873.19 1517.37 Q1869.57 1517.37 1867.75 1520.93 Q1865.94 1524.47 1865.94 1531.6 Q1865.94 1538.71 1867.75 1542.27 Q1869.57 1545.82 1873.19 1545.82 Q1876.82 1545.82 1878.63 1542.27 Q1880.45 1538.71 1880.45 1531.6 Q1880.45 1524.47 1878.63 1520.93 Q1876.82 1517.37 1873.19 1517.37 M1873.19 1513.66 Q1879 1513.66 1882.05 1518.27 Q1885.13 1522.85 1885.13 1531.6 Q1885.13 1540.33 1882.05 1544.94 Q1879 1549.52 1873.19 1549.52 Q1867.38 1549.52 1864.3 1544.94 Q1861.24 1540.33 1861.24 1531.6 Q1861.24 1522.85 1864.3 1518.27 Q1867.38 1513.66 1873.19 1513.66 Z" fill="#000000" fill-rule="nonzero" fill-opacity="1" /><path clip-path="url(#clip560)" d="M1903.35 1517.37 Q1899.74 1517.37 1897.91 1520.93 Q1896.1 1524.47 1896.1 1531.6 Q1896.1 1538.71 1897.91 1542.27 Q1899.74 1545.82 1903.35 1545.82 Q1906.98 1545.82 1908.79 1542.27 Q1910.62 1538.71 1910.62 1531.6 Q1910.62 1524.47 1908.79 1520.93 Q1906.98 1517.37 1903.35 1517.37 M1903.35 1513.66 Q1909.16 1513.66 1912.21 1518.27 Q1915.29 1522.85 1915.29 1531.6 Q1915.29 1540.33 1912.21 1544.94 Q1909.16 1549.52 1903.35 1549.52 Q1897.54 1549.52 1894.46 1544.94 Q1891.4 1540.33 1891.4 1531.6 Q1891.4 1522.85 1894.46 1518.27 Q1897.54 1513.66 1903.35 1513.66 Z" fill="#000000" fill-rule="nonzero" fill-opacity="1" /><path clip-path="url(#clip560)" d="M2249.77 1514.29 L2268.13 1514.29 L2268.13 1518.22 L2254.05 1518.22 L2254.05 1526.7 Q2255.07 1526.35 2256.09 1526.19 Q2257.11 1526 2258.13 1526 Q2263.91 1526 2267.29 1529.17 Q2270.67 1532.34 2270.67 1537.76 Q2270.67 1543.34 2267.2 1546.44 Q2263.73 1549.52 2257.41 1549.52 Q2255.23 1549.52 2252.96 1549.15 Q2250.72 1548.78 2248.31 1548.04 L2248.31 1543.34 Q2250.39 1544.47 2252.62 1545.03 Q2254.84 1545.58 2257.31 1545.58 Q2261.32 1545.58 2263.66 1543.48 Q2266 1541.37 2266 1537.76 Q2266 1534.15 2263.66 1532.04 Q2261.32 1529.94 2257.31 1529.94 Q2255.44 1529.94 2253.56 1530.35 Q2251.71 1530.77 2249.77 1531.65 L2249.77 1514.29 Z" fill="#000000" fill-rule="nonzero" fill-opacity="1" /><path clip-path="url(#clip560)" d="M2289.88 1517.37 Q2286.27 1517.37 2284.44 1520.93 Q2282.64 1524.47 2282.64 1531.6 Q2282.64 1538.71 2284.44 1542.27 Q2286.27 1545.82 2289.88 1545.82 Q2293.52 1545.82 2295.32 1542.27 Q2297.15 1538.71 2297.15 1531.6 Q2297.15 1524.47 2295.32 1520.93 Q2293.52 1517.37 2289.88 1517.37 M2289.88 1513.66 Q2295.69 1513.66 2298.75 1518.27 Q2301.83 1522.85 2301.83 1531.6 Q2301.83 1540.33 2298.75 1544.94 Q2295.69 1549.52 2289.88 1549.52 Q2284.07 1549.52 2281 1544.94 Q2277.94 1540.33 2277.94 1531.6 Q2277.94 1522.85 2281 1518.27 Q2284.07 1513.66 2289.88 1513.66 Z" fill="#000000" fill-rule="nonzero" fill-opacity="1" /><path clip-path="url(#clip560)" d="M2320.05 1517.37 Q2316.44 1517.37 2314.61 1520.93 Q2312.8 1524.47 2312.8 1531.6 Q2312.8 1538.71 2314.61 1542.27 Q2316.44 1545.82 2320.05 1545.82 Q2323.68 1545.82 2325.49 1542.27 Q2327.31 1538.71 2327.31 1531.6 Q2327.31 1524.47 2325.49 1520.93 Q2323.68 1517.37 2320.05 1517.37 M2320.05 1513.66 Q2325.86 1513.66 2328.91 1518.27 Q2331.99 1522.85 2331.99 1531.6 Q2331.99 1540.33 2328.91 1544.94 Q2325.86 1549.52 2320.05 1549.52 Q2314.24 1549.52 2311.16 1544.94 Q2308.1 1540.33 2308.1 1531.6 Q2308.1 1522.85 2311.16 1518.27 Q2314.24 1513.66 2320.05 1513.66 Z" fill="#000000" fill-rule="nonzero" fill-opacity="1" /><polyline clip-path="url(#clip562)" style="stroke:#000000; stroke-linecap:round; stroke-linejoin:round; stroke-width:2; stroke-opacity:0.1; fill:none" points="140.696,1319.08 2352.76,1319.08 "/>
<polyline clip-path="url(#clip562)" style="stroke:#000000; stroke-linecap:round; stroke-linejoin:round; stroke-width:2; stroke-opacity:0.1; fill:none" points="140.696,1034.79 2352.76,1034.79 "/>
<polyline clip-path="url(#clip562)" style="stroke:#000000; stroke-linecap:round; stroke-linejoin:round; stroke-width:2; stroke-opacity:0.1; fill:none" points="140.696,750.495 2352.76,750.495 "/>
<polyline clip-path="url(#clip562)" style="stroke:#000000; stroke-linecap:round; stroke-linejoin:round; stroke-width:2; stroke-opacity:0.1; fill:none" points="140.696,466.201 2352.76,466.201 "/>
<polyline clip-path="url(#clip562)" style="stroke:#000000; stroke-linecap:round; stroke-linejoin:round; stroke-width:2; stroke-opacity:0.1; fill:none" points="140.696,181.907 2352.76,181.907 "/>
<polyline clip-path="url(#clip560)" style="stroke:#000000; stroke-linecap:round; stroke-linejoin:round; stroke-width:4; stroke-opacity:1; fill:none" points="140.696,1486.45 140.696,47.2441 "/>
<polyline clip-path="url(#clip560)" style="stroke:#000000; stroke-linecap:round; stroke-linejoin:round; stroke-width:4; stroke-opacity:1; fill:none" points="140.696,1319.08 159.593,1319.08 "/>
<polyline clip-path="url(#clip560)" style="stroke:#000000; stroke-linecap:round; stroke-linejoin:round; stroke-width:4; stroke-opacity:1; fill:none" points="140.696,1034.79 159.593,1034.79 "/>
<polyline clip-path="url(#clip560)" style="stroke:#000000; stroke-linecap:round; stroke-linejoin:round; stroke-width:4; stroke-opacity:1; fill:none" points="140.696,750.495 159.593,750.495 "/>
<polyline clip-path="url(#clip560)" style="stroke:#000000; stroke-linecap:round; stroke-linejoin:round; stroke-width:4; stroke-opacity:1; fill:none" points="140.696,466.201 159.593,466.201 "/>
<polyline clip-path="url(#clip560)" style="stroke:#000000; stroke-linecap:round; stroke-linejoin:round; stroke-width:4; stroke-opacity:1; fill:none" points="140.696,181.907 159.593,181.907 "/>
<path clip-path="url(#clip560)" d="M83.7929 1301.8 L102.149 1301.8 L102.149 1305.74 L88.0753 1305.74 L88.0753 1314.21 Q89.0938 1313.86 90.1123 1313.7 Q91.1308 1313.52 92.1493 1313.52 Q97.9363 1313.52 101.316 1316.69 Q104.696 1319.86 104.696 1325.27 Q104.696 1330.85 101.223 1333.95 Q97.7511 1337.03 91.4317 1337.03 Q89.2558 1337.03 86.9873 1336.66 Q84.7419 1336.29 82.3346 1335.55 L82.3346 1330.85 Q84.4179 1331.99 86.6401 1332.54 Q88.8623 1333.1 91.3391 1333.1 Q95.3437 1333.1 97.6817 1330.99 Q100.02 1328.89 100.02 1325.27 Q100.02 1321.66 97.6817 1319.56 Q95.3437 1317.45 91.3391 1317.45 Q89.4641 1317.45 87.5892 1317.87 Q85.7373 1318.28 83.7929 1319.16 L83.7929 1301.8 Z" fill="#000000" fill-rule="nonzero" fill-opacity="1" /><path clip-path="url(#clip560)" d="M53.3995 1048.13 L61.0384 1048.13 L61.0384 1021.77 L52.7282 1023.43 L52.7282 1019.18 L60.9921 1017.51 L65.668 1017.51 L65.668 1048.13 L73.3068 1048.13 L73.3068 1052.07 L53.3995 1052.07 L53.3995 1048.13 Z" fill="#000000" fill-rule="nonzero" fill-opacity="1" /><path clip-path="url(#clip560)" d="M92.7512 1020.59 Q89.1401 1020.59 87.3114 1024.15 Q85.5058 1027.69 85.5058 1034.82 Q85.5058 1041.93 87.3114 1045.49 Q89.1401 1049.04 92.7512 1049.04 Q96.3854 1049.04 98.1909 1045.49 Q100.02 1041.93 100.02 1034.82 Q100.02 1027.69 98.1909 1024.15 Q96.3854 1020.59 92.7512 1020.59 M92.7512 1016.88 Q98.5613 1016.88 101.617 1021.49 Q104.696 1026.07 104.696 1034.82 Q104.696 1043.55 101.617 1048.16 Q98.5613 1052.74 92.7512 1052.74 Q86.941 1052.74 83.8623 1048.16 Q80.8068 1043.55 80.8068 1034.82 Q80.8068 1026.07 83.8623 1021.49 Q86.941 1016.88 92.7512 1016.88 Z" fill="#000000" fill-rule="nonzero" fill-opacity="1" /><path clip-path="url(#clip560)" d="M54.3949 763.84 L62.0337 763.84 L62.0337 737.474 L53.7236 739.141 L53.7236 734.881 L61.9874 733.215 L66.6633 733.215 L66.6633 763.84 L74.3022 763.84 L74.3022 767.775 L54.3949 767.775 L54.3949 763.84 Z" fill="#000000" fill-rule="nonzero" fill-opacity="1" /><path clip-path="url(#clip560)" d="M83.7929 733.215 L102.149 733.215 L102.149 737.15 L88.0753 737.15 L88.0753 745.622 Q89.0938 745.275 90.1123 745.113 Q91.1308 744.928 92.1493 744.928 Q97.9363 744.928 101.316 748.099 Q104.696 751.27 104.696 756.687 Q104.696 762.266 101.223 765.367 Q97.7511 768.446 91.4317 768.446 Q89.2558 768.446 86.9873 768.076 Q84.7419 767.705 82.3346 766.965 L82.3346 762.266 Q84.4179 763.4 86.6401 763.955 Q88.8623 764.511 91.3391 764.511 Q95.3437 764.511 97.6817 762.404 Q100.02 760.298 100.02 756.687 Q100.02 753.076 97.6817 750.969 Q95.3437 748.863 91.3391 748.863 Q89.4641 748.863 87.5892 749.279 Q85.7373 749.696 83.7929 750.576 L83.7929 733.215 Z" fill="#000000" fill-rule="nonzero" fill-opacity="1" /><path clip-path="url(#clip560)" d="M56.6171 479.546 L72.9365 479.546 L72.9365 483.481 L50.9921 483.481 L50.9921 479.546 Q53.6541 476.791 58.2375 472.162 Q62.8439 467.509 64.0245 466.166 Q66.2698 463.643 67.1494 461.907 Q68.0522 460.148 68.0522 458.458 Q68.0522 455.703 66.1078 453.967 Q64.1865 452.231 61.0847 452.231 Q58.8856 452.231 56.4319 452.995 Q54.0014 453.759 51.2236 455.31 L51.2236 450.588 Q54.0477 449.453 56.5014 448.875 Q58.955 448.296 60.9921 448.296 Q66.3624 448.296 69.5568 450.981 Q72.7513 453.666 72.7513 458.157 Q72.7513 460.287 71.9411 462.208 Q71.1541 464.106 69.0476 466.699 Q68.4689 467.37 65.367 470.588 Q62.2652 473.782 56.6171 479.546 Z" fill="#000000" fill-rule="nonzero" fill-opacity="1" /><path clip-path="url(#clip560)" d="M92.7512 452 Q89.1401 452 87.3114 455.565 Q85.5058 459.106 85.5058 466.236 Q85.5058 473.342 87.3114 476.907 Q89.1401 480.449 92.7512 480.449 Q96.3854 480.449 98.1909 476.907 Q100.02 473.342 100.02 466.236 Q100.02 459.106 98.1909 455.565 Q96.3854 452 92.7512 452 M92.7512 448.296 Q98.5613 448.296 101.617 452.903 Q104.696 457.486 104.696 466.236 Q104.696 474.963 101.617 479.569 Q98.5613 484.152 92.7512 484.152 Q86.941 484.152 83.8623 479.569 Q80.8068 474.963 80.8068 466.236 Q80.8068 457.486 83.8623 452.903 Q86.941 448.296 92.7512 448.296 Z" fill="#000000" fill-rule="nonzero" fill-opacity="1" /><path clip-path="url(#clip560)" d="M57.6125 195.252 L73.9318 195.252 L73.9318 199.187 L51.9875 199.187 L51.9875 195.252 Q54.6495 192.498 59.2328 187.868 Q63.8393 183.215 65.0198 181.873 Q67.2652 179.349 68.1448 177.613 Q69.0476 175.854 69.0476 174.164 Q69.0476 171.41 67.1032 169.674 Q65.1819 167.938 62.08 167.938 Q59.881 167.938 57.4273 168.701 Q54.9967 169.465 52.219 171.016 L52.219 166.294 Q55.043 165.16 57.4967 164.581 Q59.9504 164.002 61.9874 164.002 Q67.3578 164.002 70.5522 166.688 Q73.7466 169.373 73.7466 173.863 Q73.7466 175.993 72.9365 177.914 Q72.1494 179.812 70.0429 182.405 Q69.4642 183.076 66.3624 186.294 Q63.2606 189.488 57.6125 195.252 Z" fill="#000000" fill-rule="nonzero" fill-opacity="1" /><path clip-path="url(#clip560)" d="M83.7929 164.627 L102.149 164.627 L102.149 168.563 L88.0753 168.563 L88.0753 177.035 Q89.0938 176.687 90.1123 176.525 Q91.1308 176.34 92.1493 176.34 Q97.9363 176.34 101.316 179.512 Q104.696 182.683 104.696 188.099 Q104.696 193.678 101.223 196.78 Q97.7511 199.859 91.4317 199.859 Q89.2558 199.859 86.9873 199.488 Q84.7419 199.118 82.3346 198.377 L82.3346 193.678 Q84.4179 194.812 86.6401 195.368 Q88.8623 195.923 91.3391 195.923 Q95.3437 195.923 97.6817 193.817 Q100.02 191.711 100.02 188.099 Q100.02 184.488 97.6817 182.382 Q95.3437 180.275 91.3391 180.275 Q89.4641 180.275 87.5892 180.692 Q85.7373 181.109 83.7929 181.988 L83.7929 164.627 Z" fill="#000000" fill-rule="nonzero" fill-opacity="1" /><polyline clip-path="url(#clip562)" style="stroke:#009af9; stroke-linecap:round; stroke-linejoin:round; stroke-width:4; stroke-opacity:1; fill:none" points="203.301,1134.6 207.475,1135.4 211.648,1261.48 215.822,1261.9 219.996,1288.47 224.17,1288.84 228.343,1095.38 232.517,1095.82 236.691,1177.62 240.864,1178.6 245.038,935.252 249.212,936.204 253.385,1377.24 257.559,1377.48 261.733,1324.78 265.907,1325.14 270.08,1362.44 274.254,1362.73 278.428,1162.87 282.601,1163.45 286.775,1316.62 290.949,1316.96 295.122,1080.89 299.296,1081.85 303.47,1152.97 307.643,1153.47 311.817,1373.13 315.991,1373.38 320.165,1213.91 324.338,1214.25 328.512,1177.59 332.686,1178.43 336.859,1199.58 341.033,1200.15 345.207,1037.93 349.38,1038.62 353.554,1255.94 357.728,1256.27 361.902,1116.45 366.075,1116.98 370.249,1445.59 374.423,1445.72 378.596,1184.53 382.77,1185.16 386.944,1079.05 391.117,1080.07 395.291,1312.46 399.465,1312.79 403.639,1388.31 407.812,1388.51 411.986,1238.15 416.16,1238.89 420.333,1152.02 424.507,1152.78 428.681,754.887 432.854,757.386 437.028,1124.67 441.202,1125.25 445.376,1177.61 449.549,1178.62 453.723,1138.18 457.897,1139.01 462.07,1339.31 466.244,1339.62 470.418,1218.39 474.591,1218.97 478.765,811.253 482.939,812.872 487.113,1313.85 491.286,1314.28 495.46,965.486 499.634,966.368 503.807,1248.73 507.981,1249.02 512.155,1185.83 516.328,1186.3 520.502,1288.73 524.676,1288.97 528.85,521.661 533.023,525.455 537.197,1144.24 541.371,1145.14 545.544,1112.33 549.718,1113.3 553.892,1114.04 558.065,1114.63 562.239,1347.66 566.413,1348.03 570.587,1191.19 574.76,1191.83 578.934,1178.33 583.108,1178.79 587.281,1174.91 591.455,1175.65 595.629,1386.97 599.802,1387.14 603.976,1391.83 608.15,1392.2 612.324,1333.6 616.497,1334.05 620.671,812.664 624.845,813.927 629.018,915.282 633.192,916.081 637.366,1100.09 641.539,1100.69 645.713,802.588 649.887,804.086 654.06,1238.52 658.234,1238.87 662.408,1114.72 666.582,1115.05 670.755,1214.79 674.929,1215.3 679.103,1189.61 683.276,1190.18 687.45,1014.08 691.624,1014.66 695.797,770.653 699.971,771.475 704.145,953.816 708.319,956.948 712.492,532.184 716.666,534.003 720.84,1179.32 725.013,1180.35 729.187,880.195 733.361,882.451 737.534,1208.05 741.708,1208.48 745.882,678.588 750.056,682.682 754.229,981.935 758.403,983.153 762.577,1185.59 766.75,1186 770.924,1066.45 775.098,1067.25 779.271,1142.47 783.445,1143.05 787.619,1034.48 791.793,1035.22 795.966,548.658 800.14,550.588 804.314,1110.4 808.487,1110.86 812.661,1110.61 816.835,1111.31 821.008,978.489 825.182,979.588 829.356,930.403 833.53,931.227 837.703,1071.58 841.877,1072.34 846.051,894.441 850.224,896.042 854.398,1223.43 858.572,1223.8 862.745,878.551 866.919,879.835 871.093,1322.68 875.267,1322.86 879.44,726.217 883.614,727.667 887.788,917.674 891.961,919.361 896.135,1083.1 900.309,1084.01 904.482,1187.83 908.656,1188.13 912.83,971.752 917.004,972.305 921.177,886.318 925.351,887.254 929.525,520.109 933.698,522.344 937.872,959.735 942.046,960.874 946.219,622.838 950.393,625.915 954.567,706.103 958.741,707.007 962.914,1176.84 967.088,1177.36 971.262,733.147 975.435,734.666 979.609,1064.34 983.783,1064.82 987.956,1242.93 992.13,1243.13 996.304,1034.36 1000.48,1034.82 1004.65,795.891 1008.82,797.594 1013,910.006 1017.17,910.826 1021.35,542.79 1025.52,544.127 1029.69,908.374 1033.87,909.027 1038.04,847.33 1042.21,847.968 1046.39,1164.14 1050.56,1164.69 1054.74,954.514 1058.91,955.268 1063.08,1122.27 1067.26,1122.62 1071.43,697.58 1075.6,699.792 1079.78,748.772 1083.95,749.413 1088.13,872.12 1092.3,872.684 1096.47,1107.18 1100.65,1108.04 1104.82,1034.31 1108.99,1034.76 1113.17,686.135 1117.34,687.754 1121.51,801.111 1125.69,802.596 1129.86,1167.56 1134.04,1168.08 1138.21,671.157 1142.38,671.98 1146.56,1087.07 1150.73,1087.53 1154.9,788.008 1159.08,789.336 1163.25,1141.4 1167.43,1142.08 1171.6,893.475 1175.77,894.32 1179.95,918.016 1184.12,918.746 1188.29,1012.58 1192.47,1013.71 1196.64,881.302 1200.82,883.438 1204.99,1042.57 1209.16,1042.99 1213.34,1027.03 1217.51,1027.6 1221.68,1115.49 1225.86,1115.83 1230.03,1091.33 1234.2,1091.69 1238.38,1110.02 1242.55,1110.43 1246.73,1285.41 1250.9,1285.59 1255.07,835.082 1259.25,836.11 1263.42,1025.75 1267.59,1026.32 1271.77,1018.62 1275.94,1019.39 1280.12,783.105 1284.29,784.771 1288.46,365.11 1292.64,368.913 1296.81,733.566 1300.98,735.245 1305.16,796.01 1309.33,798.27 1313.5,678.417 1317.68,680.859 1321.85,786.705 1326.03,787.736 1330.2,919.484 1334.37,921.029 1338.55,528.897 1342.72,529.854 1346.89,928.074 1351.07,928.986 1355.24,882.786 1359.42,883.611 1363.59,786.922 1367.76,788.094 1371.94,1001.44 1376.11,1001.84 1380.28,759.737 1384.46,761.068 1388.63,853.466 1392.81,854.275 1396.98,735.776 1401.15,737.129 1405.33,923.306 1409.5,924.931 1413.67,757.821 1417.85,758.453 1422.02,1040.81 1426.19,1041.13 1430.37,857.138 1434.54,858.256 1438.72,756.796 1442.89,757.631 1447.06,950.212 1451.24,950.803 1455.41,836.184 1459.58,836.998 1463.76,1138.74 1467.93,1139.06 1472.11,519.94 1476.28,522.051 1480.45,1002.09 1484.63,1003.49 1488.8,1210.01 1492.97,1210.24 1497.15,552.835 1501.32,558.639 1505.5,958.867 1509.67,959.895 1513.84,737.591 1518.02,738.189 1522.19,854.793 1526.36,856.313 1530.54,415.088 1534.71,420.713 1538.88,779.561 1543.06,780.733 1547.23,757.144 1551.41,758.049 1555.58,1034.71 1559.75,1035.34 1563.93,577.245 1568.1,578.274 1572.27,1019.75 1576.45,1020.2 1580.62,375.517 1584.8,379.502 1588.97,644.836 1593.14,645.506 1597.32,771.462 1601.49,772.264 1605.66,884.137 1609.84,885.341 1614.01,934.316 1618.18,935.074 1622.36,1128.37 1626.53,1128.78 1630.71,862.561 1634.88,863.301 1639.05,727.317 1643.23,728.165 1647.4,272.263 1651.57,275.084 1655.75,658.508 1659.92,660.027 1664.1,775.994 1668.27,779.165 1672.44,926.57 1676.62,927.069 1680.79,463.111 1684.96,464.344 1689.14,451.432 1693.31,454.151 1697.49,662.499 1701.66,663.665 1705.83,762.532 1710.01,763.334 1714.18,797.251 1718.35,798.128 1722.53,698.294 1726.7,701.22 1730.87,975.973 1735.05,976.698 1739.22,762.211 1743.4,762.776 1747.57,731.286 1751.74,732.403 1755.92,394.551 1760.09,396.109 1764.26,832.735 1768.44,833.383 1772.61,798.895 1776.79,799.947 1780.96,752.974 1785.13,754.07 1789.31,568.736 1793.48,569.858 1797.65,796.042 1801.83,796.925 1806,203.62 1810.18,205.43 1814.35,132.678 1818.52,136.714 1822.7,672.869 1826.87,674.556 1831.04,344.047 1835.22,348.65 1839.39,940.851 1843.56,941.58 1847.74,1068.52 1851.91,1068.83 1856.09,821.304 1860.26,821.969 1864.43,769.59 1868.61,770.663 1872.78,693.248 1876.95,694.158 1881.13,558.7 1885.3,562.045 1889.48,826.862 1893.65,827.703 1897.82,743.473 1902,744.57 1906.17,917.51 1910.34,918.58 1914.52,692.639 1918.69,693.634 1922.86,413.356 1927.04,415.708 1931.21,897.382 1935.39,898.407 1939.56,558.708 1943.73,561.019 1947.91,560.298 1952.08,561.303 1956.25,697.566 1960.43,699.431 1964.6,821.113 1968.78,822.134 1972.95,87.9763 1977.12,92.7806 1981.3,925.186 1985.47,925.531 1989.64,116.63 1993.82,118.748 1997.99,853.836 2002.17,854.176 2006.34,486.493 2010.51,487.469 2014.69,925.269 2018.86,925.598 2023.03,217.022 2027.21,219.194 2031.38,293.142 2035.55,294.801 2039.73,947.049 2043.9,947.321 2048.08,607.402 2052.25,608.66 2056.42,513.095 2060.6,513.807 2064.77,479.786 2068.94,481.368 2073.12,506.548 2077.29,507.437 2081.47,491.166 2085.64,493.197 2089.81,777.978 2093.99,779.736 2098.16,884.935 2102.33,885.431 2106.51,719.48 2110.68,720.877 2114.86,476.59 2119.03,478.848 2123.2,1053.82 2127.38,1054.34 2131.55,698.902 2135.72,699.446 2139.9,377.214 2144.07,378.251 2148.24,615.51 2152.42,616.736 2156.59,553.811 2160.77,554.686 2164.94,578.182 2169.11,579.254 2173.29,170.475 2177.46,173.431 2181.63,193.845 2185.81,195.101 2189.98,358.195 2194.16,359.389 2198.33,516.734 2202.5,518.345 2206.68,410.925 2210.85,412.457 2215.02,747.554 2219.2,747.829 2223.37,556.977 2227.54,559.665 2231.72,704.179 2235.89,705.583 2240.07,947.916 2244.24,948.526 2248.41,721.992 2252.59,723.188 2256.76,263.366 2260.93,264.485 2265.11,747.734 2269.28,748.307 2273.46,263.38 2277.63,264.137 2281.8,324.511 2285.98,326.329 2290.15,328.067 "/>
<path clip-path="url(#clip560)" d="M214.431 198.898 L488.067 198.898 L488.067 95.2176 L214.431 95.2176  Z" fill="#ffffff" fill-rule="evenodd" fill-opacity="1"/>
<polyline clip-path="url(#clip560)" style="stroke:#000000; stroke-linecap:round; stroke-linejoin:round; stroke-width:4; stroke-opacity:1; fill:none" points="214.431,198.898 488.067,198.898 488.067,95.2176 214.431,95.2176 214.431,198.898 "/>
<polyline clip-path="url(#clip560)" style="stroke:#009af9; stroke-linecap:round; stroke-linejoin:round; stroke-width:4; stroke-opacity:1; fill:none" points="239.009,147.058 386.48,147.058 "/>
<path clip-path="url(#clip560)" d="M424.901 166.745 Q423.095 171.375 421.382 172.787 Q419.67 174.199 416.799 174.199 L413.396 174.199 L413.396 170.634 L415.896 170.634 Q417.656 170.634 418.628 169.8 Q419.6 168.967 420.781 165.865 L421.545 163.921 L411.058 138.412 L415.572 138.412 L423.674 158.689 L431.776 138.412 L436.29 138.412 L424.901 166.745 Z" fill="#000000" fill-rule="nonzero" fill-opacity="1" /><path clip-path="url(#clip560)" d="M443.581 160.402 L451.22 160.402 L451.22 134.037 L442.91 135.703 L442.91 131.444 L451.174 129.778 L455.85 129.778 L455.85 160.402 L463.489 160.402 L463.489 164.338 L443.581 164.338 L443.581 160.402 Z" fill="#000000" fill-rule="nonzero" fill-opacity="1" /></svg>
