<?xml version="1.0" encoding="utf-8"?>
<svg xmlns="http://www.w3.org/2000/svg" xmlns:xlink="http://www.w3.org/1999/xlink" width="600" height="400" viewBox="0 0 2400 1600">
<defs>
  <clipPath id="clip010">
    <rect x="0" y="0" width="2400" height="1600"/>
  </clipPath>
</defs>
<path clip-path="url(#clip010)" d="M0 1600 L2400 1600 L2400 0 L0 0  Z" fill="#ffffff" fill-rule="evenodd" fill-opacity="1"/>
<defs>
  <clipPath id="clip011">
    <rect x="480" y="0" width="1681" height="1600"/>
  </clipPath>
</defs>
<path clip-path="url(#clip010)" d="M172.015 1486.45 L2352.76 1486.45 L2352.76 47.2441 L172.015 47.2441  Z" fill="#ffffff" fill-rule="evenodd" fill-opacity="1"/>
<defs>
  <clipPath id="clip012">
    <rect x="172" y="47" width="2182" height="1440"/>
  </clipPath>
</defs>
<polyline clip-path="url(#clip012)" style="stroke:#000000; stroke-linecap:round; stroke-linejoin:round; stroke-width:2; stroke-opacity:0.1; fill:none" points="233.734,1486.45 233.734,47.2441 "/>
<polyline clip-path="url(#clip012)" style="stroke:#000000; stroke-linecap:round; stroke-linejoin:round; stroke-width:2; stroke-opacity:0.1; fill:none" points="748.06,1486.45 748.06,47.2441 "/>
<polyline clip-path="url(#clip012)" style="stroke:#000000; stroke-linecap:round; stroke-linejoin:round; stroke-width:2; stroke-opacity:0.1; fill:none" points="1262.39,1486.45 1262.39,47.2441 "/>
<polyline clip-path="url(#clip012)" style="stroke:#000000; stroke-linecap:round; stroke-linejoin:round; stroke-width:2; stroke-opacity:0.1; fill:none" points="1776.71,1486.45 1776.71,47.2441 "/>
<polyline clip-path="url(#clip012)" style="stroke:#000000; stroke-linecap:round; stroke-linejoin:round; stroke-width:2; stroke-opacity:0.1; fill:none" points="2291.04,1486.45 2291.04,47.2441 "/>
<polyline clip-path="url(#clip010)" style="stroke:#000000; stroke-linecap:round; stroke-linejoin:round; stroke-width:4; stroke-opacity:1; fill:none" points="172.015,1486.45 2352.76,1486.45 "/>
<polyline clip-path="url(#clip010)" style="stroke:#000000; stroke-linecap:round; stroke-linejoin:round; stroke-width:4; stroke-opacity:1; fill:none" points="233.734,1486.45 233.734,1467.55 "/>
<polyline clip-path="url(#clip010)" style="stroke:#000000; stroke-linecap:round; stroke-linejoin:round; stroke-width:4; stroke-opacity:1; fill:none" points="748.06,1486.45 748.06,1467.55 "/>
<polyline clip-path="url(#clip010)" style="stroke:#000000; stroke-linecap:round; stroke-linejoin:round; stroke-width:4; stroke-opacity:1; fill:none" points="1262.39,1486.45 1262.39,1467.55 "/>
<polyline clip-path="url(#clip010)" style="stroke:#000000; stroke-linecap:round; stroke-linejoin:round; stroke-width:4; stroke-opacity:1; fill:none" points="1776.71,1486.45 1776.71,1467.55 "/>
<polyline clip-path="url(#clip010)" style="stroke:#000000; stroke-linecap:round; stroke-linejoin:round; stroke-width:4; stroke-opacity:1; fill:none" points="2291.04,1486.45 2291.04,1467.55 "/>
<path clip-path="url(#clip010)" d="M233.734 1517.37 Q230.123 1517.37 228.294 1520.93 Q226.489 1524.47 226.489 1531.6 Q226.489 1538.71 228.294 1542.27 Q230.123 1545.82 233.734 1545.82 Q237.368 1545.82 239.174 1542.27 Q241.002 1538.71 241.002 1531.6 Q241.002 1524.47 239.174 1520.93 Q237.368 1517.37 233.734 1517.37 M233.734 1513.66 Q239.544 1513.66 242.6 1518.27 Q245.678 1522.85 245.678 1531.6 Q245.678 1540.33 242.6 1544.94 Q239.544 1549.52 233.734 1549.52 Q227.924 1549.52 224.845 1544.94 Q221.79 1540.33 221.79 1531.6 Q221.79 1522.85 224.845 1518.27 Q227.924 1513.66 233.734 1513.66 Z" fill="#000000" fill-rule="nonzero" fill-opacity="1" /><path clip-path="url(#clip010)" d="M707.678 1514.29 L726.034 1514.29 L726.034 1518.22 L711.96 1518.22 L711.96 1526.7 Q712.979 1526.35 713.997 1526.19 Q715.016 1526 716.034 1526 Q721.821 1526 725.201 1529.17 Q728.581 1532.34 728.581 1537.76 Q728.581 1543.34 725.108 1546.44 Q721.636 1549.52 715.317 1549.52 Q713.141 1549.52 710.872 1549.15 Q708.627 1548.78 706.22 1548.04 L706.22 1543.34 Q708.303 1544.47 710.525 1545.03 Q712.747 1545.58 715.224 1545.58 Q719.229 1545.58 721.567 1543.48 Q723.905 1541.37 723.905 1537.76 Q723.905 1534.15 721.567 1532.04 Q719.229 1529.94 715.224 1529.94 Q713.349 1529.94 711.474 1530.35 Q709.622 1530.77 707.678 1531.65 L707.678 1514.29 Z" fill="#000000" fill-rule="nonzero" fill-opacity="1" /><path clip-path="url(#clip010)" d="M747.793 1517.37 Q744.182 1517.37 742.354 1520.93 Q740.548 1524.47 740.548 1531.6 Q740.548 1538.71 742.354 1542.27 Q744.182 1545.82 747.793 1545.82 Q751.428 1545.82 753.233 1542.27 Q755.062 1538.71 755.062 1531.6 Q755.062 1524.47 753.233 1520.93 Q751.428 1517.37 747.793 1517.37 M747.793 1513.66 Q753.604 1513.66 756.659 1518.27 Q759.738 1522.85 759.738 1531.6 Q759.738 1540.33 756.659 1544.94 Q753.604 1549.52 747.793 1549.52 Q741.983 1549.52 738.905 1544.94 Q735.849 1540.33 735.849 1531.6 Q735.849 1522.85 738.905 1518.27 Q741.983 1513.66 747.793 1513.66 Z" fill="#000000" fill-rule="nonzero" fill-opacity="1" /><path clip-path="url(#clip010)" d="M777.955 1517.37 Q774.344 1517.37 772.516 1520.93 Q770.71 1524.47 770.71 1531.6 Q770.71 1538.71 772.516 1542.27 Q774.344 1545.82 777.955 1545.82 Q781.59 1545.82 783.395 1542.27 Q785.224 1538.71 785.224 1531.6 Q785.224 1524.47 783.395 1520.93 Q781.59 1517.37 777.955 1517.37 M777.955 1513.66 Q783.765 1513.66 786.821 1518.27 Q789.9 1522.85 789.9 1531.6 Q789.9 1540.33 786.821 1544.94 Q783.765 1549.52 777.955 1549.52 Q772.145 1549.52 769.066 1544.94 Q766.011 1540.33 766.011 1531.6 Q766.011 1522.85 769.066 1518.27 Q772.145 1513.66 777.955 1513.66 Z" fill="#000000" fill-rule="nonzero" fill-opacity="1" /><path clip-path="url(#clip010)" d="M1206.91 1544.91 L1214.55 1544.91 L1214.55 1518.55 L1206.24 1520.21 L1206.24 1515.95 L1214.5 1514.29 L1219.18 1514.29 L1219.18 1544.91 L1226.82 1544.91 L1226.82 1548.85 L1206.91 1548.85 L1206.91 1544.91 Z" fill="#000000" fill-rule="nonzero" fill-opacity="1" /><path clip-path="url(#clip010)" d="M1246.26 1517.37 Q1242.65 1517.37 1240.82 1520.93 Q1239.02 1524.47 1239.02 1531.6 Q1239.02 1538.71 1240.82 1542.27 Q1242.65 1545.82 1246.26 1545.82 Q1249.9 1545.82 1251.7 1542.27 Q1253.53 1538.71 1253.53 1531.6 Q1253.53 1524.47 1251.7 1520.93 Q1249.9 1517.37 1246.26 1517.37 M1246.26 1513.66 Q1252.07 1513.66 1255.13 1518.27 Q1258.21 1522.85 1258.21 1531.6 Q1258.21 1540.33 1255.13 1544.94 Q1252.07 1549.52 1246.26 1549.52 Q1240.45 1549.52 1237.37 1544.94 Q1234.32 1540.33 1234.32 1531.6 Q1234.32 1522.85 1237.37 1518.27 Q1240.45 1513.66 1246.26 1513.66 Z" fill="#000000" fill-rule="nonzero" fill-opacity="1" /><path clip-path="url(#clip010)" d="M1276.42 1517.37 Q1272.81 1517.37 1270.98 1520.93 Q1269.18 1524.47 1269.18 1531.6 Q1269.18 1538.71 1270.98 1542.27 Q1272.81 1545.82 1276.42 1545.82 Q1280.06 1545.82 1281.86 1542.27 Q1283.69 1538.71 1283.69 1531.6 Q1283.69 1524.47 1281.86 1520.93 Q1280.06 1517.37 1276.42 1517.37 M1276.42 1513.66 Q1282.23 1513.66 1285.29 1518.27 Q1288.37 1522.85 1288.37 1531.6 Q1288.37 1540.33 1285.29 1544.94 Q1282.23 1549.52 1276.42 1549.52 Q1270.61 1549.52 1267.54 1544.94 Q1264.48 1540.33 1264.48 1531.6 Q1264.48 1522.85 1267.54 1518.27 Q1270.61 1513.66 1276.42 1513.66 Z" fill="#000000" fill-rule="nonzero" fill-opacity="1" /><path clip-path="url(#clip010)" d="M1306.59 1517.37 Q1302.98 1517.37 1301.15 1520.93 Q1299.34 1524.47 1299.34 1531.6 Q1299.34 1538.71 1301.15 1542.27 Q1302.98 1545.82 1306.59 1545.82 Q1310.22 1545.82 1312.03 1542.27 Q1313.85 1538.71 1313.85 1531.6 Q1313.85 1524.47 1312.03 1520.93 Q1310.22 1517.37 1306.59 1517.37 M1306.59 1513.66 Q1312.4 1513.66 1315.45 1518.27 Q1318.53 1522.85 1318.53 1531.6 Q1318.53 1540.33 1315.45 1544.94 Q1312.4 1549.52 1306.59 1549.52 Q1300.78 1549.52 1297.7 1544.94 Q1294.64 1540.33 1294.64 1531.6 Q1294.64 1522.85 1297.7 1518.27 Q1300.78 1513.66 1306.59 1513.66 Z" fill="#000000" fill-rule="nonzero" fill-opacity="1" /><path clip-path="url(#clip010)" d="M1721.24 1544.91 L1728.88 1544.91 L1728.88 1518.55 L1720.57 1520.21 L1720.57 1515.95 L1728.83 1514.29 L1733.51 1514.29 L1733.51 1544.91 L1741.14 1544.91 L1741.14 1548.85 L1721.24 1548.85 L1721.24 1544.91 Z" fill="#000000" fill-rule="nonzero" fill-opacity="1" /><path clip-path="url(#clip010)" d="M1750.63 1514.29 L1768.99 1514.29 L1768.99 1518.22 L1754.92 1518.22 L1754.92 1526.7 Q1755.94 1526.35 1756.95 1526.19 Q1757.97 1526 1758.99 1526 Q1764.78 1526 1768.16 1529.17 Q1771.54 1532.34 1771.54 1537.76 Q1771.54 1543.34 1768.07 1546.44 Q1764.59 1549.52 1758.27 1549.52 Q1756.1 1549.52 1753.83 1549.15 Q1751.58 1548.78 1749.18 1548.04 L1749.18 1543.34 Q1751.26 1544.47 1753.48 1545.03 Q1755.7 1545.58 1758.18 1545.58 Q1762.19 1545.58 1764.52 1543.48 Q1766.86 1541.37 1766.86 1537.76 Q1766.86 1534.15 1764.52 1532.04 Q1762.19 1529.94 1758.18 1529.94 Q1756.31 1529.94 1754.43 1530.35 Q1752.58 1530.77 1750.63 1531.65 L1750.63 1514.29 Z" fill="#000000" fill-rule="nonzero" fill-opacity="1" /><path clip-path="url(#clip010)" d="M1790.75 1517.37 Q1787.14 1517.37 1785.31 1520.93 Q1783.51 1524.47 1783.51 1531.6 Q1783.51 1538.71 1785.31 1542.27 Q1787.14 1545.82 1790.75 1545.82 Q1794.38 1545.82 1796.19 1542.27 Q1798.02 1538.71 1798.02 1531.6 Q1798.02 1524.47 1796.19 1520.93 Q1794.38 1517.37 1790.75 1517.37 M1790.75 1513.66 Q1796.56 1513.66 1799.62 1518.27 Q1802.69 1522.85 1802.69 1531.6 Q1802.69 1540.33 1799.62 1544.94 Q1796.56 1549.52 1790.75 1549.52 Q1784.94 1549.52 1781.86 1544.94 Q1778.81 1540.33 1778.81 1531.6 Q1778.81 1522.85 1781.86 1518.27 Q1784.94 1513.66 1790.75 1513.66 Z" fill="#000000" fill-rule="nonzero" fill-opacity="1" /><path clip-path="url(#clip010)" d="M1820.91 1517.37 Q1817.3 1517.37 1815.47 1520.93 Q1813.67 1524.47 1813.67 1531.6 Q1813.67 1538.71 1815.47 1542.27 Q1817.3 1545.82 1820.91 1545.82 Q1824.55 1545.82 1826.35 1542.27 Q1828.18 1538.71 1828.18 1531.6 Q1828.18 1524.47 1826.35 1520.93 Q1824.55 1517.37 1820.91 1517.37 M1820.91 1513.66 Q1826.72 1513.66 1829.78 1518.27 Q1832.86 1522.85 1832.86 1531.6 Q1832.86 1540.33 1829.78 1544.94 Q1826.72 1549.52 1820.91 1549.52 Q1815.1 1549.52 1812.02 1544.94 Q1808.97 1540.33 1808.97 1531.6 Q1808.97 1522.85 1812.02 1518.27 Q1815.1 1513.66 1820.91 1513.66 Z" fill="#000000" fill-rule="nonzero" fill-opacity="1" /><path clip-path="url(#clip010)" d="M2239.65 1544.91 L2255.97 1544.91 L2255.97 1548.85 L2234.02 1548.85 L2234.02 1544.91 Q2236.69 1542.16 2241.27 1537.53 Q2245.88 1532.88 2247.06 1531.53 Q2249.3 1529.01 2250.18 1527.27 Q2251.08 1525.51 2251.08 1523.82 Q2251.08 1521.07 2249.14 1519.33 Q2247.22 1517.6 2244.12 1517.6 Q2241.92 1517.6 2239.46 1518.36 Q2237.03 1519.13 2234.25 1520.68 L2234.25 1515.95 Q2237.08 1514.82 2239.53 1514.24 Q2241.99 1513.66 2244.02 1513.66 Q2249.39 1513.66 2252.59 1516.35 Q2255.78 1519.03 2255.78 1523.52 Q2255.78 1525.65 2254.97 1527.57 Q2254.19 1529.47 2252.08 1532.07 Q2251.5 1532.74 2248.4 1535.95 Q2245.3 1539.15 2239.65 1544.91 Z" fill="#000000" fill-rule="nonzero" fill-opacity="1" /><path clip-path="url(#clip010)" d="M2275.78 1517.37 Q2272.17 1517.37 2270.34 1520.93 Q2268.54 1524.47 2268.54 1531.6 Q2268.54 1538.71 2270.34 1542.27 Q2272.17 1545.82 2275.78 1545.82 Q2279.42 1545.82 2281.22 1542.27 Q2283.05 1538.71 2283.05 1531.6 Q2283.05 1524.47 2281.22 1520.93 Q2279.42 1517.37 2275.78 1517.37 M2275.78 1513.66 Q2281.59 1513.66 2284.65 1518.27 Q2287.73 1522.85 2287.73 1531.6 Q2287.73 1540.33 2284.65 1544.94 Q2281.59 1549.52 2275.78 1549.52 Q2269.97 1549.52 2266.89 1544.94 Q2263.84 1540.33 2263.84 1531.6 Q2263.84 1522.85 2266.89 1518.27 Q2269.97 1513.66 2275.78 1513.66 Z" fill="#000000" fill-rule="nonzero" fill-opacity="1" /><path clip-path="url(#clip010)" d="M2305.94 1517.37 Q2302.33 1517.37 2300.5 1520.93 Q2298.7 1524.47 2298.7 1531.6 Q2298.7 1538.71 2300.5 1542.27 Q2302.33 1545.82 2305.94 1545.82 Q2309.58 1545.82 2311.38 1542.27 Q2313.21 1538.71 2313.21 1531.6 Q2313.21 1524.47 2311.38 1520.93 Q2309.58 1517.37 2305.94 1517.37 M2305.94 1513.66 Q2311.75 1513.66 2314.81 1518.27 Q2317.89 1522.85 2317.89 1531.6 Q2317.89 1540.33 2314.81 1544.94 Q2311.75 1549.52 2305.94 1549.52 Q2300.13 1549.52 2297.06 1544.94 Q2294 1540.33 2294 1531.6 Q2294 1522.85 2297.06 1518.27 Q2300.13 1513.66 2305.94 1513.66 Z" fill="#000000" fill-rule="nonzero" fill-opacity="1" /><path clip-path="url(#clip010)" d="M2336.11 1517.37 Q2332.49 1517.37 2330.67 1520.93 Q2328.86 1524.47 2328.86 1531.6 Q2328.86 1538.71 2330.67 1542.27 Q2332.49 1545.82 2336.11 1545.82 Q2339.74 1545.82 2341.55 1542.27 Q2343.37 1538.71 2343.37 1531.6 Q2343.37 1524.47 2341.55 1520.93 Q2339.74 1517.37 2336.11 1517.37 M2336.11 1513.66 Q2341.92 1513.66 2344.97 1518.27 Q2348.05 1522.85 2348.05 1531.6 Q2348.05 1540.33 2344.97 1544.94 Q2341.92 1549.52 2336.11 1549.52 Q2330.3 1549.52 2327.22 1544.94 Q2324.16 1540.33 2324.16 1531.6 Q2324.16 1522.85 2327.22 1518.27 Q2330.3 1513.66 2336.11 1513.66 Z" fill="#000000" fill-rule="nonzero" fill-opacity="1" /><polyline clip-path="url(#clip012)" style="stroke:#000000; stroke-linecap:round; stroke-linejoin:round; stroke-width:2; stroke-opacity:0.1; fill:none" points="172.015,1369.05 2352.76,1369.05 "/>
<polyline clip-path="url(#clip012)" style="stroke:#000000; stroke-linecap:round; stroke-linejoin:round; stroke-width:2; stroke-opacity:0.1; fill:none" points="172.015,947.087 2352.76,947.087 "/>
<polyline clip-path="url(#clip012)" style="stroke:#000000; stroke-linecap:round; stroke-linejoin:round; stroke-width:2; stroke-opacity:0.1; fill:none" points="172.015,525.129 2352.76,525.129 "/>
<polyline clip-path="url(#clip012)" style="stroke:#000000; stroke-linecap:round; stroke-linejoin:round; stroke-width:2; stroke-opacity:0.1; fill:none" points="172.015,103.171 2352.76,103.171 "/>
<polyline clip-path="url(#clip010)" style="stroke:#000000; stroke-linecap:round; stroke-linejoin:round; stroke-width:4; stroke-opacity:1; fill:none" points="172.015,1486.45 172.015,47.2441 "/>
<polyline clip-path="url(#clip010)" style="stroke:#000000; stroke-linecap:round; stroke-linejoin:round; stroke-width:4; stroke-opacity:1; fill:none" points="172.015,1369.05 190.912,1369.05 "/>
<polyline clip-path="url(#clip010)" style="stroke:#000000; stroke-linecap:round; stroke-linejoin:round; stroke-width:4; stroke-opacity:1; fill:none" points="172.015,947.087 190.912,947.087 "/>
<polyline clip-path="url(#clip010)" style="stroke:#000000; stroke-linecap:round; stroke-linejoin:round; stroke-width:4; stroke-opacity:1; fill:none" points="172.015,525.129 190.912,525.129 "/>
<polyline clip-path="url(#clip010)" style="stroke:#000000; stroke-linecap:round; stroke-linejoin:round; stroke-width:4; stroke-opacity:1; fill:none" points="172.015,103.171 190.912,103.171 "/>
<path clip-path="url(#clip010)" d="M57.7745 1382.39 L74.0939 1382.39 L74.0939 1386.33 L52.1495 1386.33 L52.1495 1382.39 Q54.8115 1379.64 59.3949 1375.01 Q64.0013 1370.35 65.1819 1369.01 Q67.4272 1366.49 68.3068 1364.75 Q69.2096 1362.99 69.2096 1361.3 Q69.2096 1358.55 67.2652 1356.81 Q65.3439 1355.08 62.2421 1355.08 Q60.043 1355.08 57.5893 1355.84 Q55.1588 1356.6 52.381 1358.15 L52.381 1353.43 Q55.2051 1352.3 57.6588 1351.72 Q60.1124 1351.14 62.1495 1351.14 Q67.5198 1351.14 70.7142 1353.83 Q73.9087 1356.51 73.9087 1361 Q73.9087 1363.13 73.0985 1365.05 Q72.3115 1366.95 70.205 1369.54 Q69.6263 1370.21 66.5245 1373.43 Q63.4226 1376.63 57.7745 1382.39 Z" fill="#000000" fill-rule="nonzero" fill-opacity="1" /><path clip-path="url(#clip010)" d="M93.9086 1354.84 Q90.2975 1354.84 88.4688 1358.41 Q86.6632 1361.95 86.6632 1369.08 Q86.6632 1376.19 88.4688 1379.75 Q90.2975 1383.29 93.9086 1383.29 Q97.5428 1383.29 99.3483 1379.75 Q101.177 1376.19 101.177 1369.08 Q101.177 1361.95 99.3483 1358.41 Q97.5428 1354.84 93.9086 1354.84 M93.9086 1351.14 Q99.7187 1351.14 102.774 1355.75 Q105.853 1360.33 105.853 1369.08 Q105.853 1377.81 102.774 1382.41 Q99.7187 1387 93.9086 1387 Q88.0984 1387 85.0197 1382.41 Q81.9642 1377.81 81.9642 1369.08 Q81.9642 1360.33 85.0197 1355.75 Q88.0984 1351.14 93.9086 1351.14 Z" fill="#000000" fill-rule="nonzero" fill-opacity="1" /><path clip-path="url(#clip010)" d="M124.07 1354.84 Q120.459 1354.84 118.631 1358.41 Q116.825 1361.95 116.825 1369.08 Q116.825 1376.19 118.631 1379.75 Q120.459 1383.29 124.07 1383.29 Q127.705 1383.29 129.51 1379.75 Q131.339 1376.19 131.339 1369.08 Q131.339 1361.95 129.51 1358.41 Q127.705 1354.84 124.07 1354.84 M124.07 1351.14 Q129.881 1351.14 132.936 1355.75 Q136.015 1360.33 136.015 1369.08 Q136.015 1377.81 132.936 1382.41 Q129.881 1387 124.07 1387 Q118.26 1387 115.182 1382.41 Q112.126 1377.81 112.126 1369.08 Q112.126 1360.33 115.182 1355.75 Q118.26 1351.14 124.07 1351.14 Z" fill="#000000" fill-rule="nonzero" fill-opacity="1" /><path clip-path="url(#clip010)" d="M67.9133 945.733 Q71.2698 946.451 73.1448 948.719 Q75.0429 950.988 75.0429 954.321 Q75.0429 959.437 71.5244 962.238 Q68.0059 965.039 61.5245 965.039 Q59.3486 965.039 57.0338 964.599 Q54.7421 964.182 52.2884 963.326 L52.2884 958.812 Q54.2328 959.946 56.5477 960.525 Q58.8625 961.104 61.3856 961.104 Q65.7837 961.104 68.0754 959.367 Q70.3902 957.631 70.3902 954.321 Q70.3902 951.266 68.2374 949.553 Q66.1078 947.817 62.2884 947.817 L58.2606 947.817 L58.2606 943.974 L62.4735 943.974 Q65.9226 943.974 67.7513 942.608 Q69.58 941.219 69.58 938.627 Q69.58 935.965 67.6819 934.553 Q65.8069 933.118 62.2884 933.118 Q60.3671 933.118 58.168 933.534 Q55.969 933.951 53.3301 934.83 L53.3301 930.664 Q55.9921 929.923 58.3069 929.553 Q60.6449 929.182 62.705 929.182 Q68.0291 929.182 71.1309 931.613 Q74.2327 934.02 74.2327 938.141 Q74.2327 941.011 72.5892 943.002 Q70.9457 944.969 67.9133 945.733 Z" fill="#000000" fill-rule="nonzero" fill-opacity="1" /><path clip-path="url(#clip010)" d="M93.9086 932.886 Q90.2975 932.886 88.4688 936.451 Q86.6632 939.993 86.6632 947.122 Q86.6632 954.229 88.4688 957.793 Q90.2975 961.335 93.9086 961.335 Q97.5428 961.335 99.3483 957.793 Q101.177 954.229 101.177 947.122 Q101.177 939.993 99.3483 936.451 Q97.5428 932.886 93.9086 932.886 M93.9086 929.182 Q99.7187 929.182 102.774 933.789 Q105.853 938.372 105.853 947.122 Q105.853 955.849 102.774 960.455 Q99.7187 965.039 93.9086 965.039 Q88.0984 965.039 85.0197 960.455 Q81.9642 955.849 81.9642 947.122 Q81.9642 938.372 85.0197 933.789 Q88.0984 929.182 93.9086 929.182 Z" fill="#000000" fill-rule="nonzero" fill-opacity="1" /><path clip-path="url(#clip010)" d="M124.07 932.886 Q120.459 932.886 118.631 936.451 Q116.825 939.993 116.825 947.122 Q116.825 954.229 118.631 957.793 Q120.459 961.335 124.07 961.335 Q127.705 961.335 129.51 957.793 Q131.339 954.229 131.339 947.122 Q131.339 939.993 129.51 936.451 Q127.705 932.886 124.07 932.886 M124.07 929.182 Q129.881 929.182 132.936 933.789 Q136.015 938.372 136.015 947.122 Q136.015 955.849 132.936 960.455 Q129.881 965.039 124.07 965.039 Q118.26 965.039 115.182 960.455 Q112.126 955.849 112.126 947.122 Q112.126 938.372 115.182 933.789 Q118.26 929.182 124.07 929.182 Z" fill="#000000" fill-rule="nonzero" fill-opacity="1" /><path clip-path="url(#clip010)" d="M66.5939 511.923 L54.7884 530.372 L66.5939 530.372 L66.5939 511.923 M65.367 507.849 L71.2466 507.849 L71.2466 530.372 L76.1772 530.372 L76.1772 534.261 L71.2466 534.261 L71.2466 542.409 L66.5939 542.409 L66.5939 534.261 L50.9921 534.261 L50.9921 529.747 L65.367 507.849 Z" fill="#000000" fill-rule="nonzero" fill-opacity="1" /><path clip-path="url(#clip010)" d="M93.9086 510.928 Q90.2975 510.928 88.4688 514.493 Q86.6632 518.034 86.6632 525.164 Q86.6632 532.27 88.4688 535.835 Q90.2975 539.377 93.9086 539.377 Q97.5428 539.377 99.3483 535.835 Q101.177 532.27 101.177 525.164 Q101.177 518.034 99.3483 514.493 Q97.5428 510.928 93.9086 510.928 M93.9086 507.224 Q99.7187 507.224 102.774 511.831 Q105.853 516.414 105.853 525.164 Q105.853 533.891 102.774 538.497 Q99.7187 543.08 93.9086 543.08 Q88.0984 543.08 85.0197 538.497 Q81.9642 533.891 81.9642 525.164 Q81.9642 516.414 85.0197 511.831 Q88.0984 507.224 93.9086 507.224 Z" fill="#000000" fill-rule="nonzero" fill-opacity="1" /><path clip-path="url(#clip010)" d="M124.07 510.928 Q120.459 510.928 118.631 514.493 Q116.825 518.034 116.825 525.164 Q116.825 532.27 118.631 535.835 Q120.459 539.377 124.07 539.377 Q127.705 539.377 129.51 535.835 Q131.339 532.27 131.339 525.164 Q131.339 518.034 129.51 514.493 Q127.705 510.928 124.07 510.928 M124.07 507.224 Q129.881 507.224 132.936 511.831 Q136.015 516.414 136.015 525.164 Q136.015 533.891 132.936 538.497 Q129.881 543.08 124.07 543.08 Q118.26 543.08 115.182 538.497 Q112.126 533.891 112.126 525.164 Q112.126 516.414 115.182 511.831 Q118.26 507.224 124.07 507.224 Z" fill="#000000" fill-rule="nonzero" fill-opacity="1" /><path clip-path="url(#clip010)" d="M53.793 85.8909 L72.1494 85.8909 L72.1494 89.826 L58.0754 89.826 L58.0754 98.2982 Q59.0939 97.951 60.1124 97.7889 Q61.131 97.6038 62.1495 97.6038 Q67.9365 97.6038 71.3161 100.775 Q74.6957 103.946 74.6957 109.363 Q74.6957 114.942 71.2235 118.043 Q67.7513 121.122 61.4319 121.122 Q59.256 121.122 56.9875 120.752 Q54.7421 120.381 52.3347 119.641 L52.3347 114.942 Q54.418 116.076 56.6402 116.631 Q58.8625 117.187 61.3393 117.187 Q65.3439 117.187 67.6819 115.081 Q70.0198 112.974 70.0198 109.363 Q70.0198 105.752 67.6819 103.645 Q65.3439 101.539 61.3393 101.539 Q59.4643 101.539 57.5893 101.956 Q55.7375 102.372 53.793 103.252 L53.793 85.8909 Z" fill="#000000" fill-rule="nonzero" fill-opacity="1" /><path clip-path="url(#clip010)" d="M93.9086 88.9695 Q90.2975 88.9695 88.4688 92.5343 Q86.6632 96.076 86.6632 103.206 Q86.6632 110.312 88.4688 113.877 Q90.2975 117.418 93.9086 117.418 Q97.5428 117.418 99.3483 113.877 Q101.177 110.312 101.177 103.206 Q101.177 96.076 99.3483 92.5343 Q97.5428 88.9695 93.9086 88.9695 M93.9086 85.2659 Q99.7187 85.2659 102.774 89.8723 Q105.853 94.4556 105.853 103.206 Q105.853 111.932 102.774 116.539 Q99.7187 121.122 93.9086 121.122 Q88.0984 121.122 85.0197 116.539 Q81.9642 111.932 81.9642 103.206 Q81.9642 94.4556 85.0197 89.8723 Q88.0984 85.2659 93.9086 85.2659 Z" fill="#000000" fill-rule="nonzero" fill-opacity="1" /><path clip-path="url(#clip010)" d="M124.07 88.9695 Q120.459 88.9695 118.631 92.5343 Q116.825 96.076 116.825 103.206 Q116.825 110.312 118.631 113.877 Q120.459 117.418 124.07 117.418 Q127.705 117.418 129.51 113.877 Q131.339 110.312 131.339 103.206 Q131.339 96.076 129.51 92.5343 Q127.705 88.9695 124.07 88.9695 M124.07 85.2659 Q129.881 85.2659 132.936 89.8723 Q136.015 94.4556 136.015 103.206 Q136.015 111.932 132.936 116.539 Q129.881 121.122 124.07 121.122 Q118.26 121.122 115.182 116.539 Q112.126 111.932 112.126 103.206 Q112.126 94.4556 115.182 89.8723 Q118.26 85.2659 124.07 85.2659 Z" fill="#000000" fill-rule="nonzero" fill-opacity="1" /><polyline clip-path="url(#clip012)" style="stroke:#009af9; stroke-linecap:round; stroke-linejoin:round; stroke-width:4; stroke-opacity:1; fill:none" points="233.734,87.9763 234.763,178.336 235.791,249.83 236.82,307.786 237.849,355.929 238.877,396.83 239.906,432.274 240.934,463.516 241.963,491.452 242.992,516.731 244.02,539.833 245.049,561.12 246.078,580.869 247.106,599.298 248.135,616.583 249.164,632.869 250.192,648.201 251.221,662.359 252.25,675.884 253.278,688.847 254.307,701.311 255.336,712.877 256.364,723.939 257.393,734.57 258.422,744.016 259.45,753.131 260.479,761.78 261.507,770.326 262.536,778.21 263.565,786.008 264.593,793.477 265.622,800.704 266.651,807.961 267.679,815.246 268.708,822.557 269.737,829.891 270.765,837.248 271.794,844.624 272.823,852.019 273.851,859.429 274.88,866.853 275.909,874.29 276.937,881.736 277.966,889.19 278.995,896.651 280.023,904.115 281.052,911.582 282.081,919.05 283.109,926.516 284.138,933.978 285.166,941.436 286.195,948.887 287.224,956.329 288.252,963.76 289.281,971.18 290.31,978.586 291.338,985.976 292.367,993.35 293.396,1000.7 294.424,1008.04 295.453,1015.35 296.482,1022.64 297.51,1029.91 298.539,1037.15 299.568,1044.36 300.596,1051.54 301.625,1058.69 302.654,1065.81 303.682,1072.9 304.711,1079.95 305.74,1086.97 306.768,1093.96 307.797,1100.9 308.825,1107.81 309.854,1114.67 310.883,1121.5 311.911,1128.29 312.94,1134.9 313.969,1141.22 314.997,1147.49 316.026,1153.56 317.055,1159.38 318.083,1165.16 319.112,1170.87 320.141,1176.48 321.169,1182.04 322.198,1187.56 323.227,1193.03 324.255,1198.45 325.284,1203.83 326.313,1209.17 327.341,1214.46 328.37,1219.71 329.398,1224.91 330.427,1230.07 331.456,1235.19 332.484,1240.26 333.513,1245.29 334.542,1250.24 335.57,1255.01 336.599,1259.39 337.628,1263.7 338.656,1267.85 339.685,1271.72 340.714,1275.56 341.742,1279.36 342.771,1283.07 343.8,1286.72 344.828,1290.35 345.857,1293.94 346.886,1297.51 347.914,1301.04 348.943,1304.54 349.972,1307.95 351,1311.34 352.029,1314.7 353.057,1318.03 354.086,1320.8 355.115,1323.16 356.143,1325.51 357.172,1327.84 358.201,1330.15 359.229,1332.44 360.258,1334.72 361.287,1336.97 362.315,1339.21 363.344,1341.44 364.373,1343.64 365.401,1345.6 366.43,1347.55 367.459,1349.48 368.487,1351.41 369.516,1353.32 370.545,1355.22 371.573,1357.11 372.602,1358.98 373.631,1360.84 374.659,1362.7 375.688,1364.53 376.716,1366.36 377.745,1368.17 378.774,1369.65 379.802,1371.12 380.831,1372.57 381.86,1374.01 382.888,1375.34 383.917,1376.45 384.946,1377.54 385.974,1378.62 387.003,1379.69 388.032,1380.76 389.06,1381.81 390.089,1382.71 391.118,1383.58 392.146,1384.45 393.175,1385.31 394.204,1386.17 395.232,1387.01 396.261,1387.85 397.289,1388.67 398.318,1389.49 399.347,1390.3 400.375,1391.11 401.404,1391.9 402.433,1392.69 403.461,1393.47 404.49,1394.24 405.519,1395 406.547,1395.76 407.576,1396.5 408.605,1397.24 409.633,1397.98 410.662,1398.7 411.691,1399.42 412.719,1400.13 413.748,1400.83 414.777,1401.52 415.805,1402.21 416.834,1402.89 417.863,1403.56 418.891,1404.23 419.92,1404.88 420.948,1405.53 421.977,1406.18 423.006,1406.82 424.034,1407.45 425.063,1408.07 426.092,1408.69 427.12,1409.3 428.149,1409.9 429.178,1410.5 430.206,1411.09 431.235,1411.67 432.264,1412.25 433.292,1412.82 434.321,1413.39 435.35,1413.95 436.378,1414.5 437.407,1415.05 438.436,1415.59 439.464,1416.13 440.493,1416.66 441.522,1417.18 442.55,1417.7 443.579,1418.21 444.607,1418.72 445.636,1419.22 446.665,1419.72 447.693,1420.21 448.722,1420.7 449.751,1421.18 450.779,1421.65 451.808,1421.98 452.837,1422.29 453.865,1422.6 454.894,1422.9 455.923,1423.21 456.951,1423.51 457.98,1423.8 459.009,1424.09 460.037,1424.38 461.066,1424.67 462.095,1424.95 463.123,1425.23 464.152,1425.51 465.18,1425.78 466.209,1426.05 467.238,1426.32 468.266,1426.59 469.295,1426.85 470.324,1427.11 471.352,1427.37 472.381,1427.63 473.41,1427.88 474.438,1428.13 475.467,1428.37 476.496,1428.62 477.524,1428.86 478.553,1429.1 479.582,1429.34 480.61,1429.57 481.639,1429.81 482.668,1430.04 483.696,1430.26 484.725,1430.49 485.754,1430.71 486.782,1430.93 487.811,1431.15 488.839,1431.37 489.868,1431.58 490.897,1431.8 491.925,1432.01 492.954,1432.21 493.983,1432.42 495.011,1432.63 496.04,1432.83 497.069,1433.03 498.097,1433.23 499.126,1433.42 500.155,1433.62 501.183,1433.81 502.212,1433.99 503.241,1434.04 504.269,1434.1 505.298,1434.15 506.327,1434.2 507.355,1434.26 508.384,1434.31 509.412,1434.36 510.441,1434.41 511.47,1434.46 512.498,1434.51 513.527,1434.56 514.556,1434.61 515.584,1434.66 516.613,1434.71 517.642,1434.71 518.67,1434.72 519.699,1434.73 520.728,1434.73 521.756,1434.74 522.785,1434.74 523.814,1434.75 524.842,1434.76 525.871,1434.76 526.9,1434.77 527.928,1434.78 528.957,1434.78 529.986,1434.79 531.014,1434.79 532.043,1434.8 533.071,1434.81 534.1,1434.81 535.129,1434.82 536.157,1434.83 537.186,1434.83 538.215,1434.84 539.243,1434.84 540.272,1434.85 541.301,1434.86 542.329,1434.86 543.358,1434.87 544.387,1434.88 545.415,1434.88 546.444,1434.89 547.473,1434.89 548.501,1434.9 549.53,1434.91 550.559,1434.91 551.587,1434.92 552.616,1434.93 553.645,1434.93 554.673,1434.94 555.702,1434.95 556.73,1434.95 557.759,1434.96 558.788,1434.96 559.816,1434.97 560.845,1434.98 561.874,1434.98 562.902,1434.99 563.931,1435 564.96,1435 565.988,1435.01 567.017,1435.01 568.046,1435.02 569.074,1435.03 570.103,1435.03 571.132,1435.04 572.16,1435.04 573.189,1435.05 574.218,1435.06 575.246,1435.06 576.275,1435.07 577.303,1435.08 578.332,1435.08 579.361,1435.09 580.389,1435.09 581.418,1435.1 582.447,1435.11 583.475,1435.11 584.504,1435.12 585.533,1435.13 586.561,1435.13 587.59,1435.14 588.619,1435.14 589.647,1435.15 590.676,1435.16 591.705,1435.16 592.733,1435.17 593.762,1435.18 594.791,1435.18 595.819,1435.19 596.848,1435.19 597.877,1435.2 598.905,1435.21 599.934,1435.21 600.962,1435.22 601.991,1435.23 603.02,1435.23 604.048,1435.24 605.077,1435.24 606.106,1435.25 607.134,1435.26 608.163,1435.26 609.192,1435.27 610.22,1435.28 611.249,1435.28 612.278,1435.29 613.306,1435.29 614.335,1435.3 615.364,1435.31 616.392,1435.31 617.421,1435.32 618.45,1435.33 619.478,1435.33 620.507,1435.34 621.536,1435.34 622.564,1435.35 623.593,1435.36 624.621,1435.36 625.65,1435.37 626.679,1435.38 627.707,1435.38 628.736,1435.39 629.765,1435.39 630.793,1435.4 631.822,1435.41 632.851,1435.41 633.879,1435.42 634.908,1435.42 635.937,1435.43 636.965,1435.44 637.994,1435.44 639.023,1435.45 640.051,1435.46 641.08,1435.46 642.109,1435.47 643.137,1435.47 644.166,1435.48 645.194,1435.49 646.223,1435.49 647.252,1435.5 648.28,1435.51 649.309,1435.51 650.338,1435.52 651.366,1435.52 652.395,1435.53 653.424,1435.54 654.452,1435.54 655.481,1435.55 656.51,1435.56 657.538,1435.56 658.567,1435.57 659.596,1435.57 660.624,1435.58 661.653,1435.59 662.682,1435.59 663.71,1435.6 664.739,1435.6 665.768,1435.61 666.796,1435.62 667.825,1435.62 668.853,1435.63 669.882,1435.64 670.911,1435.64 671.939,1435.65 672.968,1435.65 673.997,1435.66 675.025,1435.67 676.054,1435.67 677.083,1435.68 678.111,1435.69 679.14,1435.69 680.169,1435.7 681.197,1435.7 682.226,1435.71 683.255,1435.72 684.283,1435.72 685.312,1435.73 686.341,1435.74 687.369,1435.74 688.398,1435.75 689.427,1435.75 690.455,1435.76 691.484,1435.77 692.512,1435.77 693.541,1435.78 694.57,1435.78 695.598,1435.79 696.627,1435.8 697.656,1435.8 698.684,1435.81 699.713,1435.82 700.742,1435.82 701.77,1435.83 702.799,1435.83 703.828,1435.84 704.856,1435.85 705.885,1435.85 706.914,1435.86 707.942,1435.87 708.971,1435.87 710,1435.88 711.028,1435.88 712.057,1435.89 713.085,1435.9 714.114,1435.9 715.143,1435.91 716.171,1435.91 717.2,1435.92 718.229,1435.93 719.257,1435.93 720.286,1435.94 721.315,1435.95 722.343,1435.95 723.372,1435.96 724.401,1435.96 725.429,1435.97 726.458,1435.98 727.487,1435.98 728.515,1435.99 729.544,1436 730.573,1436 731.601,1436.01 732.63,1436.01 733.659,1436.02 734.687,1436.03 735.716,1436.03 736.744,1436.04 737.773,1436.04 738.802,1436.05 739.83,1436.06 740.859,1436.06 741.888,1436.07 742.916,1436.08 743.945,1436.08 744.974,1436.09 746.002,1436.09 747.031,1436.1 748.06,1436.11 749.088,1436.11 750.117,1436.12 751.146,1436.13 752.174,1436.13 753.203,1436.14 754.232,1436.14 755.26,1436.15 756.289,1436.16 757.317,1436.16 758.346,1436.17 759.375,1436.17 760.403,1436.18 761.432,1436.19 762.461,1436.19 763.489,1436.2 764.518,1436.21 765.547,1436.21 766.575,1436.22 767.604,1436.22 768.633,1436.23 769.661,1436.24 770.69,1436.24 771.719,1436.25 772.747,1436.26 773.776,1436.26 774.805,1436.27 775.833,1436.27 776.862,1436.28 777.891,1436.29 778.919,1436.29 779.948,1436.3 780.976,1436.3 782.005,1436.31 783.034,1436.32 784.062,1436.32 785.091,1436.33 786.12,1436.34 787.148,1436.34 788.177,1436.35 789.206,1436.35 790.234,1436.36 791.263,1436.37 792.292,1436.37 793.32,1436.38 794.349,1436.39 795.378,1436.39 796.406,1436.4 797.435,1436.4 798.464,1436.41 799.492,1436.42 800.521,1436.42 801.55,1436.43 802.578,1436.43 803.607,1436.44 804.635,1436.45 805.664,1436.45 806.693,1436.46 807.721,1436.47 808.75,1436.47 809.779,1436.48 810.807,1436.48 811.836,1436.49 812.865,1436.5 813.893,1436.5 814.922,1436.51 815.951,1436.52 816.979,1436.52 818.008,1436.53 819.037,1436.53 820.065,1436.54 821.094,1436.55 822.123,1436.55 823.151,1436.56 824.18,1436.56 825.208,1436.57 826.237,1436.58 827.266,1436.58 828.294,1436.59 829.323,1436.6 830.352,1436.6 831.38,1436.61 832.409,1436.61 833.438,1436.62 834.466,1436.63 835.495,1436.63 836.524,1436.64 837.552,1436.65 838.581,1436.65 839.61,1436.66 840.638,1436.66 841.667,1436.67 842.696,1436.68 843.724,1436.68 844.753,1436.69 845.782,1436.69 846.81,1436.7 847.839,1436.71 848.867,1436.71 849.896,1436.72 850.925,1436.73 851.953,1436.73 852.982,1436.74 854.011,1436.74 855.039,1436.75 856.068,1436.76 857.097,1436.76 858.125,1436.77 859.154,1436.78 860.183,1436.78 861.211,1436.79 862.24,1436.79 863.269,1436.8 864.297,1436.81 865.326,1436.81 866.355,1436.82 867.383,1436.83 868.412,1436.83 869.441,1436.84 870.469,1436.84 871.498,1436.85 872.526,1436.86 873.555,1436.86 874.584,1436.87 875.612,1436.87 876.641,1436.88 877.67,1436.89 878.698,1436.89 879.727,1436.9 880.756,1436.91 881.784,1436.91 882.813,1436.92 883.842,1436.92 884.87,1436.93 885.899,1436.94 886.928,1436.94 887.956,1436.95 888.985,1436.96 890.014,1436.96 891.042,1436.97 892.071,1436.97 893.099,1436.98 894.128,1436.99 895.157,1436.99 896.185,1437 897.214,1437.01 898.243,1437.01 899.271,1437.02 900.3,1437.02 901.329,1437.03 902.357,1437.04 903.386,1437.04 904.415,1437.05 905.443,1437.05 906.472,1437.06 907.501,1437.07 908.529,1437.07 909.558,1437.08 910.587,1437.09 911.615,1437.09 912.644,1437.1 913.673,1437.1 914.701,1437.11 915.73,1437.12 916.758,1437.12 917.787,1437.13 918.816,1437.14 919.844,1437.14 920.873,1437.15 921.902,1437.15 922.93,1437.16 923.959,1437.17 924.988,1437.17 926.016,1437.18 927.045,1437.19 928.074,1437.19 929.102,1437.2 930.131,1437.2 931.16,1437.21 932.188,1437.22 933.217,1437.22 934.246,1437.23 935.274,1437.24 936.303,1437.24 937.332,1437.25 938.36,1437.25 939.389,1437.26 940.417,1437.27 941.446,1437.27 942.475,1437.28 943.503,1437.28 944.532,1437.29 945.561,1437.3 946.589,1437.3 947.618,1437.31 948.647,1437.32 949.675,1437.32 950.704,1437.33 951.733,1437.33 952.761,1437.34 953.79,1437.35 954.819,1437.35 955.847,1437.36 956.876,1437.37 957.905,1437.37 958.933,1437.38 959.962,1437.38 960.99,1437.39 962.019,1437.4 963.048,1437.4 964.076,1437.41 965.105,1437.42 966.134,1437.42 967.162,1437.43 968.191,1437.43 969.22,1437.44 970.248,1437.45 971.277,1437.45 972.306,1437.46 973.334,1437.47 974.363,1437.47 975.392,1437.48 976.42,1437.48 977.449,1437.49 978.478,1437.5 979.506,1437.5 980.535,1437.51 981.564,1437.52 982.592,1437.52 983.621,1437.53 984.649,1437.53 985.678,1437.54 986.707,1437.55 987.735,1437.55 988.764,1437.56 989.793,1437.57 990.821,1437.57 991.85,1437.58 992.879,1437.58 993.907,1437.59 994.936,1437.6 995.965,1437.6 996.993,1437.61 998.022,1437.62 999.051,1437.62 1000.08,1437.63 1001.11,1437.63 1002.14,1437.64 1003.17,1437.65 1004.19,1437.65 1005.22,1437.66 1006.25,1437.67 1007.28,1437.67 1008.31,1437.68 1009.34,1437.68 1010.37,1437.69 1011.39,1437.7 1012.42,1437.7 1013.45,1437.71 1014.48,1437.72 1015.51,1437.72 1016.54,1437.73 1017.57,1437.73 1018.59,1437.74 1019.62,1437.75 1020.65,1437.75 1021.68,1437.76 1022.71,1437.77 1023.74,1437.77 1024.77,1437.78 1025.8,1437.78 1026.82,1437.79 1027.85,1437.8 1028.88,1437.8 1029.91,1437.81 1030.94,1437.82 1031.97,1437.82 1033,1437.83 1034.02,1437.83 1035.05,1437.84 1036.08,1437.85 1037.11,1437.85 1038.14,1437.86 1039.17,1437.87 1040.2,1437.87 1041.23,1437.88 1042.25,1437.89 1043.28,1437.89 1044.31,1437.9 1045.34,1437.9 1046.37,1437.91 1047.4,1437.92 1048.43,1437.92 1049.45,1437.93 1050.48,1437.94 1051.51,1437.94 1052.54,1437.95 1053.57,1437.95 1054.6,1437.96 1055.63,1437.97 1056.66,1437.97 1057.68,1437.98 1058.71,1437.99 1059.74,1437.99 1060.77,1438 1061.8,1438 1062.83,1438.01 1063.86,1438.02 1064.88,1438.02 1065.91,1438.03 1066.94,1438.04 1067.97,1438.04 1069,1438.05 1070.03,1438.05 1071.06,1438.06 1072.08,1438.07 1073.11,1438.07 1074.14,1438.08 1075.17,1438.09 1076.2,1438.09 1077.23,1438.1 1078.26,1438.11 1079.29,1438.11 1080.31,1438.12 1081.34,1438.12 1082.37,1438.13 1083.4,1438.14 1084.43,1438.14 1085.46,1438.15 1086.49,1438.16 1087.51,1438.16 1088.54,1438.17 1089.57,1438.17 1090.6,1438.18 1091.63,1438.19 1092.66,1438.19 1093.69,1438.2 1094.72,1438.21 1095.74,1438.21 1096.77,1438.22 1097.8,1438.23 1098.83,1438.23 1099.86,1438.24 1100.89,1438.24 1101.92,1438.25 1102.94,1438.26 1103.97,1438.26 1105,1438.27 1106.03,1438.28 1107.06,1438.28 1108.09,1438.29 1109.12,1438.29 1110.14,1438.3 1111.17,1438.31 1112.2,1438.31 1113.23,1438.32 1114.26,1438.33 1115.29,1438.33 1116.32,1438.34 1117.35,1438.35 1118.37,1438.35 1119.4,1438.36 1120.43,1438.36 1121.46,1438.37 1122.49,1438.38 1123.52,1438.38 1124.55,1438.39 1125.57,1438.4 1126.6,1438.4 1127.63,1438.41 1128.66,1438.41 1129.69,1438.42 1130.72,1438.43 1131.75,1438.43 1132.78,1438.44 1133.8,1438.45 1134.83,1438.45 1135.86,1438.46 1136.89,1438.47 1137.92,1438.47 1138.95,1438.48 1139.98,1438.48 1141,1438.49 1142.03,1438.5 1143.06,1438.5 1144.09,1438.51 1145.12,1438.52 1146.15,1438.52 1147.18,1438.53 1148.21,1438.54 1149.23,1438.54 1150.26,1438.55 1151.29,1438.55 1152.32,1438.56 1153.35,1438.57 1154.38,1438.57 1155.41,1438.58 1156.43,1438.59 1157.46,1438.59 1158.49,1438.6 1159.52,1438.6 1160.55,1438.61 1161.58,1438.62 1162.61,1438.62 1163.63,1438.63 1164.66,1438.64 1165.69,1438.64 1166.72,1438.65 1167.75,1438.66 1168.78,1438.66 1169.81,1438.67 1170.84,1438.67 1171.86,1438.68 1172.89,1438.69 1173.92,1438.69 1174.95,1438.7 1175.98,1438.71 1177.01,1438.71 1178.04,1438.72 1179.06,1438.73 1180.09,1438.73 1181.12,1438.74 1182.15,1438.74 1183.18,1438.75 1184.21,1438.76 1185.24,1438.76 1186.27,1438.77 1187.29,1438.78 1188.32,1438.78 1189.35,1438.79 1190.38,1438.8 1191.41,1438.8 1192.44,1438.81 1193.47,1438.81 1194.49,1438.82 1195.52,1438.83 1196.55,1438.83 1197.58,1438.84 1198.61,1438.85 1199.64,1438.85 1200.67,1438.86 1201.69,1438.87 1202.72,1438.87 1203.75,1438.88 1204.78,1438.89 1205.81,1438.89 1206.84,1438.9 1207.87,1438.9 1208.9,1438.91 1209.92,1438.92 1210.95,1438.92 1211.98,1438.93 1213.01,1438.94 1214.04,1438.94 1215.07,1438.95 1216.1,1438.96 1217.12,1438.96 1218.15,1438.97 1219.18,1438.97 1220.21,1438.98 1221.24,1438.99 1222.27,1438.99 1223.3,1439 1224.33,1439.01 1225.35,1439.01 1226.38,1439.02 1227.41,1439.03 1228.44,1439.03 1229.47,1439.04 1230.5,1439.04 1231.53,1439.05 1232.55,1439.06 1233.58,1439.06 1234.61,1439.07 1235.64,1439.08 1236.67,1439.08 1237.7,1439.09 1238.73,1439.1 1239.76,1439.1 1240.78,1439.11 1241.81,1439.12 1242.84,1439.12 1243.87,1439.13 1244.9,1439.13 1245.93,1439.14 1246.96,1439.15 1247.98,1439.15 1249.01,1439.16 1250.04,1439.17 1251.07,1439.17 1252.1,1439.18 1253.13,1439.19 1254.16,1439.19 1255.18,1439.2 1256.21,1439.21 1257.24,1439.21 1258.27,1439.22 1259.3,1439.22 1260.33,1439.23 1261.36,1439.24 1262.39,1439.24 1263.41,1439.25 1264.44,1439.26 1265.47,1439.26 1266.5,1439.27 1267.53,1439.28 1268.56,1439.28 1269.59,1439.29 1270.61,1439.3 1271.64,1439.3 1272.67,1439.31 1273.7,1439.31 1274.73,1439.32 1275.76,1439.33 1276.79,1439.33 1277.82,1439.34 1278.84,1439.35 1279.87,1439.35 1280.9,1439.36 1281.93,1439.37 1282.96,1439.37 1283.99,1439.38 1285.02,1439.39 1286.04,1439.39 1287.07,1439.4 1288.1,1439.4 1289.13,1439.41 1290.16,1439.42 1291.19,1439.42 1292.22,1439.43 1293.24,1439.44 1294.27,1439.44 1295.3,1439.45 1296.33,1439.46 1297.36,1439.46 1298.39,1439.47 1299.42,1439.48 1300.45,1439.48 1301.47,1439.49 1302.5,1439.49 1303.53,1439.5 1304.56,1439.51 1305.59,1439.51 1306.62,1439.52 1307.65,1439.53 1308.67,1439.53 1309.7,1439.54 1310.73,1439.55 1311.76,1439.55 1312.79,1439.56 1313.82,1439.57 1314.85,1439.57 1315.88,1439.58 1316.9,1439.59 1317.93,1439.59 1318.96,1439.6 1319.99,1439.6 1321.02,1439.61 1322.05,1439.62 1323.08,1439.62 1324.1,1439.63 1325.13,1439.64 1326.16,1439.64 1327.19,1439.65 1328.22,1439.66 1329.25,1439.66 1330.28,1439.67 1331.31,1439.68 1332.33,1439.68 1333.36,1439.69 1334.39,1439.69 1335.42,1439.7 1336.45,1439.71 1337.48,1439.71 1338.51,1439.72 1339.53,1439.73 1340.56,1439.73 1341.59,1439.74 1342.62,1439.75 1343.65,1439.75 1344.68,1439.76 1345.71,1439.77 1346.73,1439.77 1347.76,1439.78 1348.79,1439.79 1349.82,1439.79 1350.85,1439.8 1351.88,1439.81 1352.91,1439.81 1353.94,1439.82 1354.96,1439.82 1355.99,1439.83 1357.02,1439.84 1358.05,1439.84 1359.08,1439.85 1360.11,1439.86 1361.14,1439.86 1362.16,1439.87 1363.19,1439.88 1364.22,1439.88 1365.25,1439.89 1366.28,1439.9 1367.31,1439.9 1368.34,1439.91 1369.37,1439.92 1370.39,1439.92 1371.42,1439.93 1372.45,1439.93 1373.48,1439.94 1374.51,1439.95 1375.54,1439.95 1376.57,1439.96 1377.59,1439.97 1378.62,1439.97 1379.65,1439.98 1380.68,1439.99 1381.71,1439.99 1382.74,1440 1383.77,1440.01 1384.79,1440.01 1385.82,1440.02 1386.85,1440.03 1387.88,1440.03 1388.91,1440.04 1389.94,1440.05 1390.97,1440.05 1392,1440.06 1393.02,1440.06 1394.05,1440.07 1395.08,1440.08 1396.11,1440.08 1397.14,1440.09 1398.17,1440.1 1399.2,1440.1 1400.22,1440.11 1401.25,1440.12 1402.28,1440.12 1403.31,1440.13 1404.34,1440.14 1405.37,1440.14 1406.4,1440.15 1407.43,1440.16 1408.45,1440.16 1409.48,1440.17 1410.51,1440.18 1411.54,1440.18 1412.57,1440.19 1413.6,1440.2 1414.63,1440.2 1415.65,1440.21 1416.68,1440.21 1417.71,1440.22 1418.74,1440.23 1419.77,1440.23 1420.8,1440.24 1421.83,1440.25 1422.85,1440.25 1423.88,1440.26 1424.91,1440.27 1425.94,1440.27 1426.97,1440.28 1428,1440.29 1429.03,1440.29 1430.06,1440.3 1431.08,1440.31 1432.11,1440.31 1433.14,1440.32 1434.17,1440.33 1435.2,1440.33 1436.23,1440.34 1437.26,1440.35 1438.28,1440.35 1439.31,1440.36 1440.34,1440.36 1441.37,1440.37 1442.4,1440.38 1443.43,1440.38 1444.46,1440.39 1445.49,1440.4 1446.51,1440.4 1447.54,1440.41 1448.57,1440.42 1449.6,1440.42 1450.63,1440.43 1451.66,1440.44 1452.69,1440.44 1453.71,1440.45 1454.74,1440.46 1455.77,1440.46 1456.8,1440.47 1457.83,1440.48 1458.86,1440.48 1459.89,1440.49 1460.92,1440.5 1461.94,1440.5 1462.97,1440.51 1464,1440.52 1465.03,1440.52 1466.06,1440.53 1467.09,1440.53 1468.12,1440.54 1469.14,1440.55 1470.17,1440.55 1471.2,1440.56 1472.23,1440.57 1473.26,1440.57 1474.29,1440.58 1475.32,1440.59 1476.34,1440.59 1477.37,1440.6 1478.4,1440.61 1479.43,1440.61 1480.46,1440.62 1481.49,1440.63 1482.52,1440.63 1483.55,1440.64 1484.57,1440.65 1485.6,1440.65 1486.63,1440.66 1487.66,1440.67 1488.69,1440.67 1489.72,1440.68 1490.75,1440.69 1491.77,1440.69 1492.8,1440.7 1493.83,1440.71 1494.86,1440.71 1495.89,1440.72 1496.92,1440.72 1497.95,1440.73 1498.98,1440.74 1500,1440.74 1501.03,1440.75 1502.06,1440.76 1503.09,1440.76 1504.12,1440.77 1505.15,1440.78 1506.18,1440.78 1507.2,1440.79 1508.23,1440.8 1509.26,1440.8 1510.29,1440.81 1511.32,1440.82 1512.35,1440.82 1513.38,1440.83 1514.4,1440.84 1515.43,1440.84 1516.46,1440.85 1517.49,1440.86 1518.52,1440.86 1519.55,1440.87 1520.58,1440.88 1521.61,1440.88 1522.63,1440.89 1523.66,1440.9 1524.69,1440.9 1525.72,1440.91 1526.75,1440.92 1527.78,1440.92 1528.81,1440.93 1529.83,1440.94 1530.86,1440.94 1531.89,1440.95 1532.92,1440.95 1533.95,1440.96 1534.98,1440.97 1536.01,1440.97 1537.04,1440.98 1538.06,1440.99 1539.09,1440.99 1540.12,1441 1541.15,1441.01 1542.18,1441.01 1543.21,1441.02 1544.24,1441.03 1545.26,1441.03 1546.29,1441.04 1547.32,1441.05 1548.35,1441.05 1549.38,1441.06 1550.41,1441.07 1551.44,1441.07 1552.47,1441.08 1553.49,1441.09 1554.52,1441.09 1555.55,1441.1 1556.58,1441.11 1557.61,1441.11 1558.64,1441.12 1559.67,1441.13 1560.69,1441.13 1561.72,1441.14 1562.75,1441.15 1563.78,1441.15 1564.81,1441.16 1565.84,1441.17 1566.87,1441.17 1567.89,1441.18 1568.92,1441.19 1569.95,1441.19 1570.98,1441.2 1572.01,1441.2 1573.04,1441.21 1574.07,1441.22 1575.1,1441.22 1576.12,1441.23 1577.15,1441.24 1578.18,1441.24 1579.21,1441.25 1580.24,1441.26 1581.27,1441.26 1582.3,1441.27 1583.32,1441.28 1584.35,1441.28 1585.38,1441.29 1586.41,1441.3 1587.44,1441.3 1588.47,1441.31 1589.5,1441.32 1590.53,1441.32 1591.55,1441.33 1592.58,1441.34 1593.61,1441.34 1594.64,1441.35 1595.67,1441.36 1596.7,1441.36 1597.73,1441.37 1598.75,1441.38 1599.78,1441.38 1600.81,1441.39 1601.84,1441.4 1602.87,1441.4 1603.9,1441.41 1604.93,1441.42 1605.95,1441.42 1606.98,1441.43 1608.01,1441.44 1609.04,1441.44 1610.07,1441.45 1611.1,1441.46 1612.13,1441.46 1613.16,1441.47 1614.18,1441.48 1615.21,1441.48 1616.24,1441.49 1617.27,1441.5 1618.3,1441.5 1619.33,1441.51 1620.36,1441.51 1621.38,1441.52 1622.41,1441.53 1623.44,1441.53 1624.47,1441.54 1625.5,1441.55 1626.53,1441.55 1627.56,1441.56 1628.59,1441.57 1629.61,1441.57 1630.64,1441.58 1631.67,1441.59 1632.7,1441.59 1633.73,1441.6 1634.76,1441.61 1635.79,1441.61 1636.81,1441.62 1637.84,1441.63 1638.87,1441.63 1639.9,1441.64 1640.93,1441.65 1641.96,1441.65 1642.99,1441.66 1644.02,1441.67 1645.04,1441.67 1646.07,1441.68 1647.1,1441.69 1648.13,1441.69 1649.16,1441.7 1650.19,1441.71 1651.22,1441.71 1652.24,1441.72 1653.27,1441.73 1654.3,1441.73 1655.33,1441.74 1656.36,1441.75 1657.39,1441.75 1658.42,1441.76 1659.44,1441.77 1660.47,1441.77 1661.5,1441.78 1662.53,1441.79 1663.56,1441.79 1664.59,1441.8 1665.62,1441.81 1666.65,1441.81 1667.67,1441.82 1668.7,1441.83 1669.73,1441.83 1670.76,1441.84 1671.79,1441.85 1672.82,1441.85 1673.85,1441.86 1674.87,1441.86 1675.9,1441.87 1676.93,1441.88 1677.96,1441.88 1678.99,1441.89 1680.02,1441.9 1681.05,1441.9 1682.08,1441.91 1683.1,1441.92 1684.13,1441.92 1685.16,1441.93 1686.19,1441.94 1687.22,1441.94 1688.25,1441.95 1689.28,1441.96 1690.3,1441.96 1691.33,1441.97 1692.36,1441.98 1693.39,1441.98 1694.42,1441.99 1695.45,1442 1696.48,1442 1697.5,1442.01 1698.53,1442.02 1699.56,1442.02 1700.59,1442.03 1701.62,1442.04 1702.65,1442.04 1703.68,1442.05 1704.71,1442.06 1705.73,1442.06 1706.76,1442.07 1707.79,1442.08 1708.82,1442.08 1709.85,1442.09 1710.88,1442.1 1711.91,1442.1 1712.93,1442.11 1713.96,1442.12 1714.99,1442.12 1716.02,1442.13 1717.05,1442.14 1718.08,1442.14 1719.11,1442.15 1720.14,1442.16 1721.16,1442.16 1722.19,1442.17 1723.22,1442.18 1724.25,1442.18 1725.28,1442.19 1726.31,1442.2 1727.34,1442.2 1728.36,1442.21 1729.39,1442.21 1730.42,1442.22 1731.45,1442.23 1732.48,1442.23 1733.51,1442.24 1734.54,1442.25 1735.57,1442.25 1736.59,1442.26 1737.62,1442.27 1738.65,1442.27 1739.68,1442.28 1740.71,1442.29 1741.74,1442.29 1742.77,1442.3 1743.79,1442.31 1744.82,1442.31 1745.85,1442.32 1746.88,1442.33 1747.91,1442.33 1748.94,1442.34 1749.97,1442.35 1750.99,1442.35 1752.02,1442.36 1753.05,1442.37 1754.08,1442.37 1755.11,1442.38 1756.14,1442.39 1757.17,1442.39 1758.2,1442.4 1759.22,1442.41 1760.25,1442.41 1761.28,1442.42 1762.31,1442.43 1763.34,1442.43 1764.37,1442.44 1765.4,1442.45 1766.42,1442.45 1767.45,1442.46 1768.48,1442.47 1769.51,1442.47 1770.54,1442.48 1771.57,1442.49 1772.6,1442.49 1773.63,1442.5 1774.65,1442.51 1775.68,1442.51 1776.71,1442.52 1777.74,1442.52 1778.77,1442.53 1779.8,1442.54 1780.83,1442.54 1781.85,1442.55 1782.88,1442.56 1783.91,1442.56 1784.94,1442.57 1785.97,1442.58 1787,1442.58 1788.03,1442.59 1789.05,1442.6 1790.08,1442.6 1791.11,1442.61 1792.14,1442.62 1793.17,1442.62 1794.2,1442.63 1795.23,1442.64 1796.26,1442.64 1797.28,1442.65 1798.31,1442.66 1799.34,1442.66 1800.37,1442.67 1801.4,1442.68 1802.43,1442.68 1803.46,1442.69 1804.48,1442.7 1805.51,1442.7 1806.54,1442.71 1807.57,1442.72 1808.6,1442.72 1809.63,1442.73 1810.66,1442.74 1811.69,1442.74 1812.71,1442.75 1813.74,1442.76 1814.77,1442.76 1815.8,1442.77 1816.83,1442.78 1817.86,1442.78 1818.89,1442.79 1819.91,1442.79 1820.94,1442.8 1821.97,1442.81 1823,1442.81 1824.03,1442.82 1825.06,1442.83 1826.09,1442.83 1827.12,1442.84 1828.14,1442.85 1829.17,1442.85 1830.2,1442.86 1831.23,1442.87 1832.26,1442.87 1833.29,1442.88 1834.32,1442.89 1835.34,1442.89 1836.37,1442.9 1837.4,1442.91 1838.43,1442.91 1839.46,1442.92 1840.49,1442.93 1841.52,1442.93 1842.54,1442.94 1843.57,1442.95 1844.6,1442.95 1845.63,1442.96 1846.66,1442.97 1847.69,1442.97 1848.72,1442.98 1849.75,1442.99 1850.77,1442.99 1851.8,1443 1852.83,1443.01 1853.86,1443.01 1854.89,1443.02 1855.92,1443.02 1856.95,1443.03 1857.97,1443.04 1859,1443.04 1860.03,1443.05 1861.06,1443.06 1862.09,1443.06 1863.12,1443.07 1864.15,1443.08 1865.18,1443.08 1866.2,1443.09 1867.23,1443.1 1868.26,1443.1 1869.29,1443.11 1870.32,1443.12 1871.35,1443.12 1872.38,1443.13 1873.4,1443.14 1874.43,1443.14 1875.46,1443.15 1876.49,1443.16 1877.52,1443.16 1878.55,1443.17 1879.58,1443.18 1880.6,1443.18 1881.63,1443.19 1882.66,1443.2 1883.69,1443.2 1884.72,1443.21 1885.75,1443.22 1886.78,1443.22 1887.81,1443.23 1888.83,1443.23 1889.86,1443.24 1890.89,1443.25 1891.92,1443.25 1892.95,1443.26 1893.98,1443.27 1895.01,1443.27 1896.03,1443.28 1897.06,1443.29 1898.09,1443.29 1899.12,1443.3 1900.15,1443.31 1901.18,1443.31 1902.21,1443.32 1903.24,1443.33 1904.26,1443.33 1905.29,1443.34 1906.32,1443.35 1907.35,1443.35 1908.38,1443.36 1909.41,1443.37 1910.44,1443.37 1911.46,1443.38 1912.49,1443.39 1913.52,1443.39 1914.55,1443.4 1915.58,1443.4 1916.61,1443.41 1917.64,1443.42 1918.66,1443.42 1919.69,1443.43 1920.72,1443.44 1921.75,1443.44 1922.78,1443.45 1923.81,1443.46 1924.84,1443.46 1925.87,1443.47 1926.89,1443.48 1927.92,1443.48 1928.95,1443.49 1929.98,1443.5 1931.01,1443.5 1932.04,1443.51 1933.07,1443.52 1934.09,1443.52 1935.12,1443.53 1936.15,1443.54 1937.18,1443.54 1938.21,1443.55 1939.24,1443.55 1940.27,1443.56 1941.3,1443.57 1942.32,1443.57 1943.35,1443.58 1944.38,1443.59 1945.41,1443.59 1946.44,1443.6 1947.47,1443.61 1948.5,1443.61 1949.52,1443.62 1950.55,1443.63 1951.58,1443.63 1952.61,1443.64 1953.64,1443.65 1954.67,1443.65 1955.7,1443.66 1956.73,1443.67 1957.75,1443.67 1958.78,1443.68 1959.81,1443.68 1960.84,1443.69 1961.87,1443.7 1962.9,1443.7 1963.93,1443.71 1964.95,1443.72 1965.98,1443.72 1967.01,1443.73 1968.04,1443.74 1969.07,1443.74 1970.1,1443.75 1971.13,1443.76 1972.15,1443.76 1973.18,1443.77 1974.21,1443.78 1975.24,1443.78 1976.27,1443.79 1977.3,1443.79 1978.33,1443.8 1979.36,1443.81 1980.38,1443.81 1981.41,1443.82 1982.44,1443.83 1983.47,1443.83 1984.5,1443.84 1985.53,1443.85 1986.56,1443.85 1987.58,1443.86 1988.61,1443.87 1989.64,1443.87 1990.67,1443.88 1991.7,1443.89 1992.73,1443.89 1993.76,1443.9 1994.79,1443.9 1995.81,1443.91 1996.84,1443.92 1997.87,1443.92 1998.9,1443.93 1999.93,1443.94 2000.96,1443.94 2001.99,1443.95 2003.01,1443.96 2004.04,1443.96 2005.07,1443.97 2006.1,1443.98 2007.13,1443.98 2008.16,1443.99 2009.19,1444 2010.21,1444 2011.24,1444.01 2012.27,1444.01 2013.3,1444.02 2014.33,1444.03 2015.36,1444.03 2016.39,1444.04 2017.42,1444.05 2018.44,1444.05 2019.47,1444.06 2020.5,1444.07 2021.53,1444.07 2022.56,1444.08 2023.59,1444.09 2024.62,1444.09 2025.64,1444.1 2026.67,1444.1 2027.7,1444.11 2028.73,1444.12 2029.76,1444.12 2030.79,1444.13 2031.82,1444.14 2032.85,1444.14 2033.87,1444.15 2034.9,1444.16 2035.93,1444.16 2036.96,1444.17 2037.99,1444.18 2039.02,1444.18 2040.05,1444.19 2041.07,1444.19 2042.1,1444.2 2043.13,1444.21 2044.16,1444.21 2045.19,1444.22 2046.22,1444.23 2047.25,1444.23 2048.28,1444.24 2049.3,1444.25 2050.33,1444.25 2051.36,1444.26 2052.39,1444.27 2053.42,1444.27 2054.45,1444.28 2055.48,1444.28 2056.5,1444.29 2057.53,1444.3 2058.56,1444.3 2059.59,1444.31 2060.62,1444.32 2061.65,1444.32 2062.68,1444.33 2063.7,1444.34 2064.73,1444.34 2065.76,1444.35 2066.79,1444.35 2067.82,1444.36 2068.85,1444.37 2069.88,1444.37 2070.91,1444.38 2071.93,1444.39 2072.96,1444.39 2073.99,1444.4 2075.02,1444.41 2076.05,1444.41 2077.08,1444.42 2078.11,1444.43 2079.13,1444.43 2080.16,1444.44 2081.19,1444.44 2082.22,1444.45 2083.25,1444.46 2084.28,1444.46 2085.31,1444.47 2086.34,1444.48 2087.36,1444.48 2088.39,1444.49 2089.42,1444.5 2090.45,1444.5 2091.48,1444.51 2092.51,1444.51 2093.54,1444.52 2094.56,1444.53 2095.59,1444.53 2096.62,1444.54 2097.65,1444.55 2098.68,1444.55 2099.71,1444.56 2100.74,1444.57 2101.76,1444.57 2102.79,1444.58 2103.82,1444.58 2104.85,1444.59 2105.88,1444.6 2106.91,1444.6 2107.94,1444.61 2108.97,1444.62 2109.99,1444.62 2111.02,1444.63 2112.05,1444.63 2113.08,1444.64 2114.11,1444.65 2115.14,1444.65 2116.17,1444.66 2117.19,1444.67 2118.22,1444.67 2119.25,1444.68 2120.28,1444.69 2121.31,1444.69 2122.34,1444.7 2123.37,1444.7 2124.4,1444.71 2125.42,1444.72 2126.45,1444.72 2127.48,1444.73 2128.51,1444.74 2129.54,1444.74 2130.57,1444.75 2131.6,1444.76 2132.62,1444.76 2133.65,1444.77 2134.68,1444.77 2135.71,1444.78 2136.74,1444.79 2137.77,1444.79 2138.8,1444.8 2139.83,1444.81 2140.85,1444.81 2141.88,1444.82 2142.91,1444.82 2143.94,1444.83 2144.97,1444.84 2146,1444.84 2147.03,1444.85 2148.05,1444.86 2149.08,1444.86 2150.11,1444.87 2151.14,1444.87 2152.17,1444.88 2153.2,1444.89 2154.23,1444.89 2155.25,1444.9 2156.28,1444.91 2157.31,1444.91 2158.34,1444.92 2159.37,1444.92 2160.4,1444.93 2161.43,1444.94 2162.46,1444.94 2163.48,1444.95 2164.51,1444.96 2165.54,1444.96 2166.57,1444.97 2167.6,1444.98 2168.63,1444.98 2169.66,1444.99 2170.68,1444.99 2171.71,1445 2172.74,1445.01 2173.77,1445.01 2174.8,1445.02 2175.83,1445.03 2176.86,1445.03 2177.89,1445.04 2178.91,1445.04 2179.94,1445.05 2180.97,1445.06 2182,1445.06 2183.03,1445.07 2184.06,1445.08 2185.09,1445.08 2186.11,1445.09 2187.14,1445.09 2188.17,1445.1 2189.2,1445.11 2190.23,1445.11 2191.26,1445.12 2192.29,1445.12 2193.31,1445.13 2194.34,1445.14 2195.37,1445.14 2196.4,1445.15 2197.43,1445.16 2198.46,1445.16 2199.49,1445.17 2200.52,1445.17 2201.54,1445.18 2202.57,1445.19 2203.6,1445.19 2204.63,1445.2 2205.66,1445.21 2206.69,1445.21 2207.72,1445.22 2208.74,1445.22 2209.77,1445.23 2210.8,1445.24 2211.83,1445.24 2212.86,1445.25 2213.89,1445.26 2214.92,1445.26 2215.95,1445.27 2216.97,1445.27 2218,1445.28 2219.03,1445.29 2220.06,1445.29 2221.09,1445.3 2222.12,1445.3 2223.15,1445.31 2224.17,1445.32 2225.2,1445.32 2226.23,1445.33 2227.26,1445.34 2228.29,1445.34 2229.32,1445.35 2230.35,1445.35 2231.38,1445.36 2232.4,1445.37 2233.43,1445.37 2234.46,1445.38 2235.49,1445.39 2236.52,1445.39 2237.55,1445.4 2238.58,1445.4 2239.6,1445.41 2240.63,1445.42 2241.66,1445.42 2242.69,1445.43 2243.72,1445.43 2244.75,1445.44 2245.78,1445.45 2246.8,1445.45 2247.83,1445.46 2248.86,1445.47 2249.89,1445.47 2250.92,1445.48 2251.95,1445.48 2252.98,1445.49 2254.01,1445.5 2255.03,1445.5 2256.06,1445.51 2257.09,1445.51 2258.12,1445.52 2259.15,1445.53 2260.18,1445.53 2261.21,1445.54 2262.23,1445.54 2263.26,1445.55 2264.29,1445.56 2265.32,1445.56 2266.35,1445.57 2267.38,1445.58 2268.41,1445.58 2269.44,1445.59 2270.46,1445.59 2271.49,1445.6 2272.52,1445.61 2273.55,1445.61 2274.58,1445.62 2275.61,1445.62 2276.64,1445.63 2277.66,1445.64 2278.69,1445.64 2279.72,1445.65 2280.75,1445.65 2281.78,1445.66 2282.81,1445.67 2283.84,1445.67 2284.86,1445.68 2285.89,1445.69 2286.92,1445.69 2287.95,1445.7 2288.98,1445.7 2290.01,1445.71 2291.04,1445.72 "/>
<path clip-path="url(#clip010)" d="M2009.56 198.898 L2280.06 198.898 L2280.06 95.2176 L2009.56 95.2176  Z" fill="#ffffff" fill-rule="evenodd" fill-opacity="1"/>
<polyline clip-path="url(#clip010)" style="stroke:#000000; stroke-linecap:round; stroke-linejoin:round; stroke-width:4; stroke-opacity:1; fill:none" points="2009.56,198.898 2280.06,198.898 2280.06,95.2176 2009.56,95.2176 2009.56,198.898 "/>
<polyline clip-path="url(#clip010)" style="stroke:#009af9; stroke-linecap:round; stroke-linejoin:round; stroke-width:4; stroke-opacity:1; fill:none" points="2033.79,147.058 2179.17,147.058 "/>
<path clip-path="url(#clip010)" d="M2217.25 166.745 Q2215.44 171.375 2213.73 172.787 Q2212.01 174.199 2209.14 174.199 L2205.74 174.199 L2205.74 170.634 L2208.24 170.634 Q2210 170.634 2210.97 169.8 Q2211.95 168.967 2213.13 165.865 L2213.89 163.921 L2203.4 138.412 L2207.92 138.412 L2216.02 158.689 L2224.12 138.412 L2228.64 138.412 L2217.25 166.745 Z" fill="#000000" fill-rule="nonzero" fill-opacity="1" /><path clip-path="url(#clip010)" d="M2235.93 160.402 L2243.57 160.402 L2243.57 134.037 L2235.26 135.703 L2235.26 131.444 L2243.52 129.778 L2248.2 129.778 L2248.2 160.402 L2255.83 160.402 L2255.83 164.338 L2235.93 164.338 L2235.93 160.402 Z" fill="#000000" fill-rule="nonzero" fill-opacity="1" /></svg>
