<?xml version="1.0" encoding="utf-8"?>
<svg xmlns="http://www.w3.org/2000/svg" xmlns:xlink="http://www.w3.org/1999/xlink" width="600" height="400" viewBox="0 0 2400 1600">
<defs>
  <clipPath id="clip310">
    <rect x="0" y="0" width="2400" height="1600"/>
  </clipPath>
</defs>
<path clip-path="url(#clip310)" d="M0 1600 L2400 1600 L2400 0 L0 0  Z" fill="#ffffff" fill-rule="evenodd" fill-opacity="1"/>
<defs>
  <clipPath id="clip311">
    <rect x="480" y="0" width="1681" height="1600"/>
  </clipPath>
</defs>
<path clip-path="url(#clip310)" d="M140.696 1486.45 L2352.76 1486.45 L2352.76 47.2441 L140.696 47.2441  Z" fill="#ffffff" fill-rule="evenodd" fill-opacity="1"/>
<defs>
  <clipPath id="clip312">
    <rect x="140" y="47" width="2213" height="1440"/>
  </clipPath>
</defs>
<polyline clip-path="url(#clip312)" style="stroke:#000000; stroke-linecap:round; stroke-linejoin:round; stroke-width:2; stroke-opacity:0.1; fill:none" points="203.301,1486.45 203.301,47.2441 "/>
<polyline clip-path="url(#clip312)" style="stroke:#000000; stroke-linecap:round; stroke-linejoin:round; stroke-width:2; stroke-opacity:0.1; fill:none" points="725.013,1486.45 725.013,47.2441 "/>
<polyline clip-path="url(#clip312)" style="stroke:#000000; stroke-linecap:round; stroke-linejoin:round; stroke-width:2; stroke-opacity:0.1; fill:none" points="1246.73,1486.45 1246.73,47.2441 "/>
<polyline clip-path="url(#clip312)" style="stroke:#000000; stroke-linecap:round; stroke-linejoin:round; stroke-width:2; stroke-opacity:0.1; fill:none" points="1768.44,1486.45 1768.44,47.2441 "/>
<polyline clip-path="url(#clip312)" style="stroke:#000000; stroke-linecap:round; stroke-linejoin:round; stroke-width:2; stroke-opacity:0.1; fill:none" points="2290.15,1486.45 2290.15,47.2441 "/>
<polyline clip-path="url(#clip310)" style="stroke:#000000; stroke-linecap:round; stroke-linejoin:round; stroke-width:4; stroke-opacity:1; fill:none" points="140.696,1486.45 2352.76,1486.45 "/>
<polyline clip-path="url(#clip310)" style="stroke:#000000; stroke-linecap:round; stroke-linejoin:round; stroke-width:4; stroke-opacity:1; fill:none" points="203.301,1486.45 203.301,1467.55 "/>
<polyline clip-path="url(#clip310)" style="stroke:#000000; stroke-linecap:round; stroke-linejoin:round; stroke-width:4; stroke-opacity:1; fill:none" points="725.013,1486.45 725.013,1467.55 "/>
<polyline clip-path="url(#clip310)" style="stroke:#000000; stroke-linecap:round; stroke-linejoin:round; stroke-width:4; stroke-opacity:1; fill:none" points="1246.73,1486.45 1246.73,1467.55 "/>
<polyline clip-path="url(#clip310)" style="stroke:#000000; stroke-linecap:round; stroke-linejoin:round; stroke-width:4; stroke-opacity:1; fill:none" points="1768.44,1486.45 1768.44,1467.55 "/>
<polyline clip-path="url(#clip310)" style="stroke:#000000; stroke-linecap:round; stroke-linejoin:round; stroke-width:4; stroke-opacity:1; fill:none" points="2290.15,1486.45 2290.15,1467.55 "/>
<path clip-path="url(#clip310)" d="M203.301 1517.37 Q199.69 1517.37 197.861 1520.93 Q196.056 1524.47 196.056 1531.6 Q196.056 1538.71 197.861 1542.27 Q199.69 1545.82 203.301 1545.82 Q206.935 1545.82 208.741 1542.27 Q210.57 1538.71 210.57 1531.6 Q210.57 1524.47 208.741 1520.93 Q206.935 1517.37 203.301 1517.37 M203.301 1513.66 Q209.111 1513.66 212.167 1518.27 Q215.245 1522.85 215.245 1531.6 Q215.245 1540.33 212.167 1544.94 Q209.111 1549.52 203.301 1549.52 Q197.491 1549.52 194.412 1544.94 Q191.357 1540.33 191.357 1531.6 Q191.357 1522.85 194.412 1518.27 Q197.491 1513.66 203.301 1513.66 Z" fill="#000000" fill-rule="nonzero" fill-opacity="1" /><path clip-path="url(#clip310)" d="M669.539 1544.91 L677.178 1544.91 L677.178 1518.55 L668.868 1520.21 L668.868 1515.95 L677.132 1514.29 L681.808 1514.29 L681.808 1544.91 L689.446 1544.91 L689.446 1548.85 L669.539 1548.85 L669.539 1544.91 Z" fill="#000000" fill-rule="nonzero" fill-opacity="1" /><path clip-path="url(#clip310)" d="M708.891 1517.37 Q705.28 1517.37 703.451 1520.93 Q701.645 1524.47 701.645 1531.6 Q701.645 1538.71 703.451 1542.27 Q705.28 1545.82 708.891 1545.82 Q712.525 1545.82 714.331 1542.27 Q716.159 1538.71 716.159 1531.6 Q716.159 1524.47 714.331 1520.93 Q712.525 1517.37 708.891 1517.37 M708.891 1513.66 Q714.701 1513.66 717.756 1518.27 Q720.835 1522.85 720.835 1531.6 Q720.835 1540.33 717.756 1544.94 Q714.701 1549.52 708.891 1549.52 Q703.081 1549.52 700.002 1544.94 Q696.946 1540.33 696.946 1531.6 Q696.946 1522.85 700.002 1518.27 Q703.081 1513.66 708.891 1513.66 Z" fill="#000000" fill-rule="nonzero" fill-opacity="1" /><path clip-path="url(#clip310)" d="M739.053 1517.37 Q735.442 1517.37 733.613 1520.93 Q731.807 1524.47 731.807 1531.6 Q731.807 1538.71 733.613 1542.27 Q735.442 1545.82 739.053 1545.82 Q742.687 1545.82 744.492 1542.27 Q746.321 1538.71 746.321 1531.6 Q746.321 1524.47 744.492 1520.93 Q742.687 1517.37 739.053 1517.37 M739.053 1513.66 Q744.863 1513.66 747.918 1518.27 Q750.997 1522.85 750.997 1531.6 Q750.997 1540.33 747.918 1544.94 Q744.863 1549.52 739.053 1549.52 Q733.242 1549.52 730.164 1544.94 Q727.108 1540.33 727.108 1531.6 Q727.108 1522.85 730.164 1518.27 Q733.242 1513.66 739.053 1513.66 Z" fill="#000000" fill-rule="nonzero" fill-opacity="1" /><path clip-path="url(#clip310)" d="M769.215 1517.37 Q765.603 1517.37 763.775 1520.93 Q761.969 1524.47 761.969 1531.6 Q761.969 1538.71 763.775 1542.27 Q765.603 1545.82 769.215 1545.82 Q772.849 1545.82 774.654 1542.27 Q776.483 1538.71 776.483 1531.6 Q776.483 1524.47 774.654 1520.93 Q772.849 1517.37 769.215 1517.37 M769.215 1513.66 Q775.025 1513.66 778.08 1518.27 Q781.159 1522.85 781.159 1531.6 Q781.159 1540.33 778.08 1544.94 Q775.025 1549.52 769.215 1549.52 Q763.404 1549.52 760.326 1544.94 Q757.27 1540.33 757.27 1531.6 Q757.27 1522.85 760.326 1518.27 Q763.404 1513.66 769.215 1513.66 Z" fill="#000000" fill-rule="nonzero" fill-opacity="1" /><path clip-path="url(#clip310)" d="M1195.34 1544.91 L1211.66 1544.91 L1211.66 1548.85 L1189.71 1548.85 L1189.71 1544.91 Q1192.37 1542.16 1196.96 1537.53 Q1201.56 1532.88 1202.74 1531.53 Q1204.99 1529.01 1205.87 1527.27 Q1206.77 1525.51 1206.77 1523.82 Q1206.77 1521.07 1204.83 1519.33 Q1202.91 1517.6 1199.8 1517.6 Q1197.61 1517.6 1195.15 1518.36 Q1192.72 1519.13 1189.94 1520.68 L1189.94 1515.95 Q1192.77 1514.82 1195.22 1514.24 Q1197.68 1513.66 1199.71 1513.66 Q1205.08 1513.66 1208.28 1516.35 Q1211.47 1519.03 1211.47 1523.52 Q1211.47 1525.65 1210.66 1527.57 Q1209.87 1529.47 1207.77 1532.07 Q1207.19 1532.74 1204.09 1535.95 Q1200.99 1539.15 1195.34 1544.91 Z" fill="#000000" fill-rule="nonzero" fill-opacity="1" /><path clip-path="url(#clip310)" d="M1231.47 1517.37 Q1227.86 1517.37 1226.03 1520.93 Q1224.23 1524.47 1224.23 1531.6 Q1224.23 1538.71 1226.03 1542.27 Q1227.86 1545.82 1231.47 1545.82 Q1235.11 1545.82 1236.91 1542.27 Q1238.74 1538.71 1238.74 1531.6 Q1238.74 1524.47 1236.91 1520.93 Q1235.11 1517.37 1231.47 1517.37 M1231.47 1513.66 Q1237.28 1513.66 1240.34 1518.27 Q1243.42 1522.85 1243.42 1531.6 Q1243.42 1540.33 1240.34 1544.94 Q1237.28 1549.52 1231.47 1549.52 Q1225.66 1549.52 1222.58 1544.94 Q1219.53 1540.33 1219.53 1531.6 Q1219.53 1522.85 1222.58 1518.27 Q1225.66 1513.66 1231.47 1513.66 Z" fill="#000000" fill-rule="nonzero" fill-opacity="1" /><path clip-path="url(#clip310)" d="M1261.63 1517.37 Q1258.02 1517.37 1256.19 1520.93 Q1254.39 1524.47 1254.39 1531.6 Q1254.39 1538.71 1256.19 1542.27 Q1258.02 1545.82 1261.63 1545.82 Q1265.27 1545.82 1267.07 1542.27 Q1268.9 1538.71 1268.9 1531.6 Q1268.9 1524.47 1267.07 1520.93 Q1265.27 1517.37 1261.63 1517.37 M1261.63 1513.66 Q1267.44 1513.66 1270.5 1518.27 Q1273.58 1522.85 1273.58 1531.6 Q1273.58 1540.33 1270.5 1544.94 Q1267.44 1549.52 1261.63 1549.52 Q1255.82 1549.52 1252.74 1544.94 Q1249.69 1540.33 1249.69 1531.6 Q1249.69 1522.85 1252.74 1518.27 Q1255.82 1513.66 1261.63 1513.66 Z" fill="#000000" fill-rule="nonzero" fill-opacity="1" /><path clip-path="url(#clip310)" d="M1291.79 1517.37 Q1288.18 1517.37 1286.36 1520.93 Q1284.55 1524.47 1284.55 1531.6 Q1284.55 1538.71 1286.36 1542.27 Q1288.18 1545.82 1291.79 1545.82 Q1295.43 1545.82 1297.23 1542.27 Q1299.06 1538.71 1299.06 1531.6 Q1299.06 1524.47 1297.23 1520.93 Q1295.43 1517.37 1291.79 1517.37 M1291.79 1513.66 Q1297.61 1513.66 1300.66 1518.27 Q1303.74 1522.85 1303.74 1531.6 Q1303.74 1540.33 1300.66 1544.94 Q1297.61 1549.52 1291.79 1549.52 Q1285.98 1549.52 1282.91 1544.94 Q1279.85 1540.33 1279.85 1531.6 Q1279.85 1522.85 1282.91 1518.27 Q1285.98 1513.66 1291.79 1513.66 Z" fill="#000000" fill-rule="nonzero" fill-opacity="1" /><path clip-path="url(#clip310)" d="M1727.12 1530.21 Q1730.48 1530.93 1732.35 1533.2 Q1734.25 1535.47 1734.25 1538.8 Q1734.25 1543.92 1730.73 1546.72 Q1727.21 1549.52 1720.73 1549.52 Q1718.55 1549.52 1716.24 1549.08 Q1713.95 1548.66 1711.49 1547.81 L1711.49 1543.29 Q1713.44 1544.43 1715.75 1545.01 Q1718.07 1545.58 1720.59 1545.58 Q1724.99 1545.58 1727.28 1543.85 Q1729.6 1542.11 1729.6 1538.8 Q1729.6 1535.75 1727.44 1534.03 Q1725.31 1532.3 1721.49 1532.3 L1717.47 1532.3 L1717.47 1528.45 L1721.68 1528.45 Q1725.13 1528.45 1726.96 1527.09 Q1728.79 1525.7 1728.79 1523.11 Q1728.79 1520.45 1726.89 1519.03 Q1725.01 1517.6 1721.49 1517.6 Q1719.57 1517.6 1717.37 1518.01 Q1715.17 1518.43 1712.54 1519.31 L1712.54 1515.14 Q1715.2 1514.4 1717.51 1514.03 Q1719.85 1513.66 1721.91 1513.66 Q1727.23 1513.66 1730.34 1516.09 Q1733.44 1518.5 1733.44 1522.62 Q1733.44 1525.49 1731.79 1527.48 Q1730.15 1529.45 1727.12 1530.21 Z" fill="#000000" fill-rule="nonzero" fill-opacity="1" /><path clip-path="url(#clip310)" d="M1753.11 1517.37 Q1749.5 1517.37 1747.67 1520.93 Q1745.87 1524.47 1745.87 1531.6 Q1745.87 1538.71 1747.67 1542.27 Q1749.5 1545.82 1753.11 1545.82 Q1756.75 1545.82 1758.55 1542.27 Q1760.38 1538.71 1760.38 1531.6 Q1760.38 1524.47 1758.55 1520.93 Q1756.75 1517.37 1753.11 1517.37 M1753.11 1513.66 Q1758.92 1513.66 1761.98 1518.27 Q1765.06 1522.85 1765.06 1531.6 Q1765.06 1540.33 1761.98 1544.94 Q1758.92 1549.52 1753.11 1549.52 Q1747.3 1549.52 1744.23 1544.94 Q1741.17 1540.33 1741.17 1531.6 Q1741.17 1522.85 1744.23 1518.27 Q1747.3 1513.66 1753.11 1513.66 Z" fill="#000000" fill-rule="nonzero" fill-opacity="1" /><path clip-path="url(#clip310)" d="M1783.28 1517.37 Q1779.66 1517.37 1777.84 1520.93 Q1776.03 1524.47 1776.03 1531.6 Q1776.03 1538.71 1777.84 1542.27 Q1779.66 1545.82 1783.28 1545.82 Q1786.91 1545.82 1788.72 1542.27 Q1790.54 1538.71 1790.54 1531.6 Q1790.54 1524.47 1788.72 1520.93 Q1786.91 1517.37 1783.28 1517.37 M1783.28 1513.66 Q1789.09 1513.66 1792.14 1518.27 Q1795.22 1522.85 1795.22 1531.6 Q1795.22 1540.33 1792.14 1544.94 Q1789.09 1549.52 1783.28 1549.52 Q1777.47 1549.52 1774.39 1544.94 Q1771.33 1540.33 1771.33 1531.6 Q1771.33 1522.85 1774.39 1518.27 Q1777.47 1513.66 1783.28 1513.66 Z" fill="#000000" fill-rule="nonzero" fill-opacity="1" /><path clip-path="url(#clip310)" d="M1813.44 1517.37 Q1809.83 1517.37 1808 1520.93 Q1806.19 1524.47 1806.19 1531.6 Q1806.19 1538.71 1808 1542.27 Q1809.83 1545.82 1813.44 1545.82 Q1817.07 1545.82 1818.88 1542.27 Q1820.71 1538.71 1820.71 1531.6 Q1820.71 1524.47 1818.88 1520.93 Q1817.07 1517.37 1813.44 1517.37 M1813.44 1513.66 Q1819.25 1513.66 1822.3 1518.27 Q1825.38 1522.85 1825.38 1531.6 Q1825.38 1540.33 1822.3 1544.94 Q1819.25 1549.52 1813.44 1549.52 Q1807.63 1549.52 1804.55 1544.94 Q1801.49 1540.33 1801.49 1531.6 Q1801.49 1522.85 1804.55 1518.27 Q1807.63 1513.66 1813.44 1513.66 Z" fill="#000000" fill-rule="nonzero" fill-opacity="1" /><path clip-path="url(#clip310)" d="M2248.16 1518.36 L2236.35 1536.81 L2248.16 1536.81 L2248.16 1518.36 M2246.93 1514.29 L2252.81 1514.29 L2252.81 1536.81 L2257.74 1536.81 L2257.74 1540.7 L2252.81 1540.7 L2252.81 1548.85 L2248.16 1548.85 L2248.16 1540.7 L2232.56 1540.7 L2232.56 1536.19 L2246.93 1514.29 Z" fill="#000000" fill-rule="nonzero" fill-opacity="1" /><path clip-path="url(#clip310)" d="M2275.47 1517.37 Q2271.86 1517.37 2270.03 1520.93 Q2268.23 1524.47 2268.23 1531.6 Q2268.23 1538.71 2270.03 1542.27 Q2271.86 1545.82 2275.47 1545.82 Q2279.11 1545.82 2280.91 1542.27 Q2282.74 1538.71 2282.74 1531.6 Q2282.74 1524.47 2280.91 1520.93 Q2279.11 1517.37 2275.47 1517.37 M2275.47 1513.66 Q2281.28 1513.66 2284.34 1518.27 Q2287.42 1522.85 2287.42 1531.6 Q2287.42 1540.33 2284.34 1544.94 Q2281.28 1549.52 2275.47 1549.52 Q2269.66 1549.52 2266.59 1544.94 Q2263.53 1540.33 2263.53 1531.6 Q2263.53 1522.85 2266.59 1518.27 Q2269.66 1513.66 2275.47 1513.66 Z" fill="#000000" fill-rule="nonzero" fill-opacity="1" /><path clip-path="url(#clip310)" d="M2305.64 1517.37 Q2302.03 1517.37 2300.2 1520.93 Q2298.39 1524.47 2298.39 1531.6 Q2298.39 1538.71 2300.2 1542.27 Q2302.03 1545.82 2305.64 1545.82 Q2309.27 1545.82 2311.08 1542.27 Q2312.9 1538.71 2312.9 1531.6 Q2312.9 1524.47 2311.08 1520.93 Q2309.27 1517.37 2305.64 1517.37 M2305.64 1513.66 Q2311.45 1513.66 2314.5 1518.27 Q2317.58 1522.85 2317.58 1531.6 Q2317.58 1540.33 2314.5 1544.94 Q2311.45 1549.52 2305.64 1549.52 Q2299.83 1549.52 2296.75 1544.94 Q2293.69 1540.33 2293.69 1531.6 Q2293.69 1522.85 2296.75 1518.27 Q2299.83 1513.66 2305.64 1513.66 Z" fill="#000000" fill-rule="nonzero" fill-opacity="1" /><path clip-path="url(#clip310)" d="M2335.8 1517.37 Q2332.19 1517.37 2330.36 1520.93 Q2328.55 1524.47 2328.55 1531.6 Q2328.55 1538.71 2330.36 1542.27 Q2332.19 1545.82 2335.8 1545.82 Q2339.43 1545.82 2341.24 1542.27 Q2343.07 1538.71 2343.07 1531.6 Q2343.07 1524.47 2341.24 1520.93 Q2339.43 1517.37 2335.8 1517.37 M2335.8 1513.66 Q2341.61 1513.66 2344.66 1518.27 Q2347.74 1522.85 2347.74 1531.6 Q2347.74 1540.33 2344.66 1544.94 Q2341.61 1549.52 2335.8 1549.52 Q2329.99 1549.52 2326.91 1544.94 Q2323.85 1540.33 2323.85 1531.6 Q2323.85 1522.85 2326.91 1518.27 Q2329.99 1513.66 2335.8 1513.66 Z" fill="#000000" fill-rule="nonzero" fill-opacity="1" /><polyline clip-path="url(#clip312)" style="stroke:#000000; stroke-linecap:round; stroke-linejoin:round; stroke-width:2; stroke-opacity:0.1; fill:none" points="140.696,1459 2352.76,1459 "/>
<polyline clip-path="url(#clip312)" style="stroke:#000000; stroke-linecap:round; stroke-linejoin:round; stroke-width:2; stroke-opacity:0.1; fill:none" points="140.696,1182.4 2352.76,1182.4 "/>
<polyline clip-path="url(#clip312)" style="stroke:#000000; stroke-linecap:round; stroke-linejoin:round; stroke-width:2; stroke-opacity:0.1; fill:none" points="140.696,905.804 2352.76,905.804 "/>
<polyline clip-path="url(#clip312)" style="stroke:#000000; stroke-linecap:round; stroke-linejoin:round; stroke-width:2; stroke-opacity:0.1; fill:none" points="140.696,629.208 2352.76,629.208 "/>
<polyline clip-path="url(#clip312)" style="stroke:#000000; stroke-linecap:round; stroke-linejoin:round; stroke-width:2; stroke-opacity:0.1; fill:none" points="140.696,352.612 2352.76,352.612 "/>
<polyline clip-path="url(#clip312)" style="stroke:#000000; stroke-linecap:round; stroke-linejoin:round; stroke-width:2; stroke-opacity:0.1; fill:none" points="140.696,76.0161 2352.76,76.0161 "/>
<polyline clip-path="url(#clip310)" style="stroke:#000000; stroke-linecap:round; stroke-linejoin:round; stroke-width:4; stroke-opacity:1; fill:none" points="140.696,1486.45 140.696,47.2441 "/>
<polyline clip-path="url(#clip310)" style="stroke:#000000; stroke-linecap:round; stroke-linejoin:round; stroke-width:4; stroke-opacity:1; fill:none" points="140.696,1459 159.593,1459 "/>
<polyline clip-path="url(#clip310)" style="stroke:#000000; stroke-linecap:round; stroke-linejoin:round; stroke-width:4; stroke-opacity:1; fill:none" points="140.696,1182.4 159.593,1182.4 "/>
<polyline clip-path="url(#clip310)" style="stroke:#000000; stroke-linecap:round; stroke-linejoin:round; stroke-width:4; stroke-opacity:1; fill:none" points="140.696,905.804 159.593,905.804 "/>
<polyline clip-path="url(#clip310)" style="stroke:#000000; stroke-linecap:round; stroke-linejoin:round; stroke-width:4; stroke-opacity:1; fill:none" points="140.696,629.208 159.593,629.208 "/>
<polyline clip-path="url(#clip310)" style="stroke:#000000; stroke-linecap:round; stroke-linejoin:round; stroke-width:4; stroke-opacity:1; fill:none" points="140.696,352.612 159.593,352.612 "/>
<polyline clip-path="url(#clip310)" style="stroke:#000000; stroke-linecap:round; stroke-linejoin:round; stroke-width:4; stroke-opacity:1; fill:none" points="140.696,76.0161 159.593,76.0161 "/>
<path clip-path="url(#clip310)" d="M83.7929 1441.72 L102.149 1441.72 L102.149 1445.65 L88.0753 1445.65 L88.0753 1454.12 Q89.0938 1453.78 90.1123 1453.61 Q91.1308 1453.43 92.1493 1453.43 Q97.9363 1453.43 101.316 1456.6 Q104.696 1459.77 104.696 1465.19 Q104.696 1470.77 101.223 1473.87 Q97.7511 1476.95 91.4317 1476.95 Q89.2558 1476.95 86.9873 1476.58 Q84.7419 1476.21 82.3346 1475.47 L82.3346 1470.77 Q84.4179 1471.9 86.6401 1472.46 Q88.8623 1473.01 91.3391 1473.01 Q95.3437 1473.01 97.6817 1470.91 Q100.02 1468.8 100.02 1465.19 Q100.02 1461.58 97.6817 1459.47 Q95.3437 1457.36 91.3391 1457.36 Q89.4641 1457.36 87.5892 1457.78 Q85.7373 1458.2 83.7929 1459.08 L83.7929 1441.72 Z" fill="#000000" fill-rule="nonzero" fill-opacity="1" /><path clip-path="url(#clip310)" d="M53.3995 1195.74 L61.0384 1195.74 L61.0384 1169.38 L52.7282 1171.05 L52.7282 1166.79 L60.9921 1165.12 L65.668 1165.12 L65.668 1195.74 L73.3068 1195.74 L73.3068 1199.68 L53.3995 1199.68 L53.3995 1195.74 Z" fill="#000000" fill-rule="nonzero" fill-opacity="1" /><path clip-path="url(#clip310)" d="M92.7512 1168.2 Q89.1401 1168.2 87.3114 1171.76 Q85.5058 1175.3 85.5058 1182.43 Q85.5058 1189.54 87.3114 1193.11 Q89.1401 1196.65 92.7512 1196.65 Q96.3854 1196.65 98.1909 1193.11 Q100.02 1189.54 100.02 1182.43 Q100.02 1175.3 98.1909 1171.76 Q96.3854 1168.2 92.7512 1168.2 M92.7512 1164.49 Q98.5613 1164.49 101.617 1169.1 Q104.696 1173.68 104.696 1182.43 Q104.696 1191.16 101.617 1195.77 Q98.5613 1200.35 92.7512 1200.35 Q86.941 1200.35 83.8623 1195.77 Q80.8068 1191.16 80.8068 1182.43 Q80.8068 1173.68 83.8623 1169.1 Q86.941 1164.49 92.7512 1164.49 Z" fill="#000000" fill-rule="nonzero" fill-opacity="1" /><path clip-path="url(#clip310)" d="M54.3949 919.149 L62.0337 919.149 L62.0337 892.783 L53.7236 894.45 L53.7236 890.19 L61.9874 888.524 L66.6633 888.524 L66.6633 919.149 L74.3022 919.149 L74.3022 923.084 L54.3949 923.084 L54.3949 919.149 Z" fill="#000000" fill-rule="nonzero" fill-opacity="1" /><path clip-path="url(#clip310)" d="M83.7929 888.524 L102.149 888.524 L102.149 892.459 L88.0753 892.459 L88.0753 900.931 Q89.0938 900.584 90.1123 900.422 Q91.1308 900.237 92.1493 900.237 Q97.9363 900.237 101.316 903.408 Q104.696 906.579 104.696 911.996 Q104.696 917.575 101.223 920.676 Q97.7511 923.755 91.4317 923.755 Q89.2558 923.755 86.9873 923.385 Q84.7419 923.014 82.3346 922.274 L82.3346 917.575 Q84.4179 918.709 86.6401 919.264 Q88.8623 919.82 91.3391 919.82 Q95.3437 919.82 97.6817 917.713 Q100.02 915.607 100.02 911.996 Q100.02 908.385 97.6817 906.278 Q95.3437 904.172 91.3391 904.172 Q89.4641 904.172 87.5892 904.589 Q85.7373 905.005 83.7929 905.885 L83.7929 888.524 Z" fill="#000000" fill-rule="nonzero" fill-opacity="1" /><path clip-path="url(#clip310)" d="M56.6171 642.553 L72.9365 642.553 L72.9365 646.488 L50.9921 646.488 L50.9921 642.553 Q53.6541 639.798 58.2375 635.169 Q62.8439 630.516 64.0245 629.173 Q66.2698 626.65 67.1494 624.914 Q68.0522 623.155 68.0522 621.465 Q68.0522 618.71 66.1078 616.974 Q64.1865 615.238 61.0847 615.238 Q58.8856 615.238 56.4319 616.002 Q54.0014 616.766 51.2236 618.317 L51.2236 613.595 Q54.0477 612.46 56.5014 611.882 Q58.955 611.303 60.9921 611.303 Q66.3624 611.303 69.5568 613.988 Q72.7513 616.673 72.7513 621.164 Q72.7513 623.294 71.9411 625.215 Q71.1541 627.113 69.0476 629.706 Q68.4689 630.377 65.367 633.594 Q62.2652 636.789 56.6171 642.553 Z" fill="#000000" fill-rule="nonzero" fill-opacity="1" /><path clip-path="url(#clip310)" d="M92.7512 615.007 Q89.1401 615.007 87.3114 618.571 Q85.5058 622.113 85.5058 629.243 Q85.5058 636.349 87.3114 639.914 Q89.1401 643.456 92.7512 643.456 Q96.3854 643.456 98.1909 639.914 Q100.02 636.349 100.02 629.243 Q100.02 622.113 98.1909 618.571 Q96.3854 615.007 92.7512 615.007 M92.7512 611.303 Q98.5613 611.303 101.617 615.909 Q104.696 620.493 104.696 629.243 Q104.696 637.969 101.617 642.576 Q98.5613 647.159 92.7512 647.159 Q86.941 647.159 83.8623 642.576 Q80.8068 637.969 80.8068 629.243 Q80.8068 620.493 83.8623 615.909 Q86.941 611.303 92.7512 611.303 Z" fill="#000000" fill-rule="nonzero" fill-opacity="1" /><path clip-path="url(#clip310)" d="M57.6125 365.957 L73.9318 365.957 L73.9318 369.892 L51.9875 369.892 L51.9875 365.957 Q54.6495 363.202 59.2328 358.573 Q63.8393 353.92 65.0198 352.577 Q67.2652 350.054 68.1448 348.318 Q69.0476 346.559 69.0476 344.869 Q69.0476 342.114 67.1032 340.378 Q65.1819 338.642 62.08 338.642 Q59.881 338.642 57.4273 339.406 Q54.9967 340.17 52.219 341.721 L52.219 336.999 Q55.043 335.864 57.4967 335.286 Q59.9504 334.707 61.9874 334.707 Q67.3578 334.707 70.5522 337.392 Q73.7466 340.077 73.7466 344.568 Q73.7466 346.698 72.9365 348.619 Q72.1494 350.517 70.0429 353.11 Q69.4642 353.781 66.3624 356.999 Q63.2606 360.193 57.6125 365.957 Z" fill="#000000" fill-rule="nonzero" fill-opacity="1" /><path clip-path="url(#clip310)" d="M83.7929 335.332 L102.149 335.332 L102.149 339.267 L88.0753 339.267 L88.0753 347.739 Q89.0938 347.392 90.1123 347.23 Q91.1308 347.045 92.1493 347.045 Q97.9363 347.045 101.316 350.216 Q104.696 353.387 104.696 358.804 Q104.696 364.383 101.223 367.485 Q97.7511 370.563 91.4317 370.563 Q89.2558 370.563 86.9873 370.193 Q84.7419 369.823 82.3346 369.082 L82.3346 364.383 Q84.4179 365.517 86.6401 366.073 Q88.8623 366.628 91.3391 366.628 Q95.3437 366.628 97.6817 364.522 Q100.02 362.415 100.02 358.804 Q100.02 355.193 97.6817 353.087 Q95.3437 350.98 91.3391 350.98 Q89.4641 350.98 87.5892 351.397 Q85.7373 351.813 83.7929 352.693 L83.7929 335.332 Z" fill="#000000" fill-rule="nonzero" fill-opacity="1" /><path clip-path="url(#clip310)" d="M66.7559 74.662 Q70.1124 75.3796 71.9874 77.6481 Q73.8855 79.9166 73.8855 83.2499 Q73.8855 88.3656 70.367 91.1665 Q66.8485 93.9674 60.3671 93.9674 Q58.1912 93.9674 55.8764 93.5276 Q53.5847 93.111 51.131 92.2545 L51.131 87.7406 Q53.0754 88.8749 55.3903 89.4536 Q57.7051 90.0323 60.2282 90.0323 Q64.6263 90.0323 66.918 88.2962 Q69.2328 86.5601 69.2328 83.2499 Q69.2328 80.1944 67.08 78.4814 Q64.9504 76.7453 61.131 76.7453 L57.1032 76.7453 L57.1032 72.9027 L61.3161 72.9027 Q64.7652 72.9027 66.5939 71.537 Q68.4226 70.1481 68.4226 67.5555 Q68.4226 64.8935 66.5245 63.4815 Q64.6495 62.0463 61.131 62.0463 Q59.2097 62.0463 57.0106 62.463 Q54.8115 62.8796 52.1727 63.7593 L52.1727 59.5926 Q54.8347 58.8519 57.1495 58.4815 Q59.4875 58.1111 61.5476 58.1111 Q66.8717 58.1111 69.9735 60.5417 Q73.0753 62.9491 73.0753 67.0694 Q73.0753 69.9398 71.4318 71.9305 Q69.7883 73.8981 66.7559 74.662 Z" fill="#000000" fill-rule="nonzero" fill-opacity="1" /><path clip-path="url(#clip310)" d="M92.7512 61.8148 Q89.1401 61.8148 87.3114 65.3796 Q85.5058 68.9213 85.5058 76.0509 Q85.5058 83.1573 87.3114 86.7221 Q89.1401 90.2637 92.7512 90.2637 Q96.3854 90.2637 98.1909 86.7221 Q100.02 83.1573 100.02 76.0509 Q100.02 68.9213 98.1909 65.3796 Q96.3854 61.8148 92.7512 61.8148 M92.7512 58.1111 Q98.5613 58.1111 101.617 62.7176 Q104.696 67.3009 104.696 76.0509 Q104.696 84.7777 101.617 89.3841 Q98.5613 93.9674 92.7512 93.9674 Q86.941 93.9674 83.8623 89.3841 Q80.8068 84.7777 80.8068 76.0509 Q80.8068 67.3009 83.8623 62.7176 Q86.941 58.1111 92.7512 58.1111 Z" fill="#000000" fill-rule="nonzero" fill-opacity="1" /><polyline clip-path="url(#clip312)" style="stroke:#009af9; stroke-linecap:round; stroke-linejoin:round; stroke-width:4; stroke-opacity:1; fill:none" points="203.301,1234.72 203.823,1235.12 204.344,1294 204.866,1294.21 205.388,1230.31 205.91,1230.63 206.431,1174.65 206.953,1174.99 207.475,1291.9 207.996,1292.15 208.518,1294.58 209.04,1294.87 209.562,1445.61 210.083,1445.72 210.605,1272.44 211.127,1272.75 211.648,1282.15 212.17,1282.4 212.692,1154.24 213.214,1154.6 213.735,1347.29 214.257,1347.46 214.779,1126.32 215.3,1126.62 215.822,1411.73 216.344,1411.85 216.866,1300.89 217.387,1301.14 217.909,1190.48 218.431,1190.82 218.952,1361.86 219.474,1362.07 219.996,1316.49 220.518,1316.69 221.039,1334.11 221.561,1334.34 222.083,1205.47 222.604,1205.8 223.126,1363.9 223.648,1364.11 224.17,1207.84 224.691,1208.23 225.213,1190.49 225.735,1190.94 226.256,1188.22 226.778,1188.48 227.3,1433.14 227.822,1433.22 228.343,1428.59 228.865,1428.72 229.387,1322.98 229.908,1323.17 230.43,1004.9 230.952,1005.29 231.473,1130.44 231.995,1130.82 232.517,1117.58 233.039,1117.88 233.56,1252.46 234.082,1252.77 234.604,1132.65 235.125,1133.01 235.647,1171.23 236.169,1171.53 236.691,1148.81 237.212,1149.12 237.734,1184.42 238.256,1184.77 238.777,1232.9 239.299,1233.12 239.821,1061.79 240.343,1062.13 240.864,1355.09 241.386,1355.24 241.908,1319.49 242.429,1319.7 242.951,1224.57 243.473,1224.89 243.995,1150.88 244.516,1151.32 245.038,1200.77 245.56,1201.06 246.081,1098.24 246.603,1098.56 247.125,1138.72 247.647,1138.94 248.168,1203.4 248.69,1203.71 249.212,1099.2 249.733,1099.56 250.255,1195.19 250.777,1195.46 251.299,1056.93 251.82,1057.33 252.342,1079.99 252.864,1080.41 253.385,1196.62 253.907,1196.84 254.429,1109.21 254.951,1109.51 255.472,1269.87 255.994,1270.08 256.516,1107.25 257.037,1107.62 257.559,1102.27 258.081,1102.63 258.603,1167.9 259.124,1168.28 259.646,1100.95 260.168,1101.42 260.689,1225.73 261.211,1225.97 261.733,1136.74 262.255,1137.03 262.776,1112.86 263.298,1113.22 263.82,1149.1 264.341,1149.45 264.863,1120.51 265.385,1120.83 265.907,1130.77 266.428,1131.08 266.95,1053.09 267.472,1053.46 267.993,1179.16 268.515,1179.41 269.037,1217.21 269.558,1217.58 270.08,1079.54 270.602,1079.96 271.124,1070.08 271.645,1070.47 272.167,1179.38 272.689,1179.61 273.21,1158.2 273.732,1158.43 274.254,1090.65 274.776,1090.96 275.297,1150.05 275.819,1150.32 276.341,1097.94 276.862,1098.33 277.384,1166.44 277.906,1166.75 278.428,1099.19 278.949,1099.47 279.471,959.006 279.993,959.314 280.514,1207.83 281.036,1208.04 281.558,1045.53 282.08,1045.88 282.601,1245.33 283.123,1245.51 283.645,1200.85 284.166,1201.1 284.688,1059.63 285.21,1060 285.732,871.567 286.253,872.075 286.775,1146.33 287.297,1146.6 287.818,1053.03 288.34,1053.37 288.862,924.894 289.384,925.479 289.905,1021.37 290.427,1021.79 290.949,1106.36 291.47,1106.57 291.992,1191.71 292.514,1192.01 293.036,989.118 293.557,989.637 294.079,853.086 294.601,853.694 295.122,1141.73 295.644,1142.06 296.166,1050.78 296.688,1051.12 297.209,1244.44 297.731,1244.67 298.253,1053.29 298.774,1053.62 299.296,978.385 299.818,978.813 300.34,1140.38 300.861,1140.56 301.383,972.948 301.905,973.359 302.426,979.826 302.948,980.148 303.47,1069.8 303.992,1070.21 304.513,983.755 305.035,984.179 305.557,990.008 306.078,990.393 306.6,1009.36 307.122,1009.72 307.643,963.593 308.165,963.951 308.687,1006.8 309.209,1007.05 309.73,1039.22 310.252,1039.53 310.774,1149.48 311.295,1149.67 311.817,894.882 312.339,895.368 312.861,966.627 313.382,966.984 313.904,1183.22 314.426,1183.47 314.947,1046.55 315.469,1046.94 315.991,988.853 316.513,989.175 317.034,1136.91 317.556,1137.15 318.078,830.986 318.599,831.633 319.121,1045.78 319.643,1046.07 320.165,1043.97 320.686,1044.23 321.208,692.39 321.73,692.954 322.251,1025.74 322.773,1026.08 323.295,1048.52 323.817,1048.79 324.338,948.985 324.86,949.383 325.382,1046.74 325.903,1047.1 326.425,1009.02 326.947,1009.34 327.469,988.023 327.99,988.358 328.512,747.285 329.034,747.84 329.555,984.441 330.077,984.775 330.599,632.174 331.121,632.674 331.642,1084.14 332.164,1084.38 332.686,1013.64 333.207,1014.05 333.729,1025.73 334.251,1026.14 334.773,1071.58 335.294,1071.81 335.816,918.3 336.338,918.677 336.859,884.983 337.381,885.348 337.903,978.084 338.425,978.382 338.946,965.822 339.468,966.11 339.99,1026.09 340.511,1026.42 341.033,882.001 341.555,882.385 342.077,998.39 342.598,998.621 343.12,981.024 343.642,981.396 344.163,949.109 344.685,949.445 345.207,855.295 345.728,855.691 346.25,982.482 346.772,982.895 347.294,905.936 347.815,906.273 348.337,1032.44 348.859,1032.77 349.38,974.297 349.902,974.589 350.424,984.714 350.946,985.015 351.467,930.563 351.989,930.864 352.511,718.811 353.032,719.241 353.554,969.331 354.076,969.593 354.598,956.231 355.119,956.563 355.641,1009.11 356.163,1009.37 356.684,828.654 357.206,829.113 357.728,1032.63 358.25,1032.85 358.771,976.353 359.293,976.696 359.815,771.563 360.336,772.005 360.858,801.496 361.38,801.856 361.902,958.636 362.423,958.971 362.945,1083.64 363.467,1083.84 363.988,973.694 364.51,974.014 365.032,678.841 365.554,679.274 366.075,991.502 366.597,991.803 367.119,859.346 367.64,859.822 368.162,749.244 368.684,749.719 369.206,842.727 369.727,843.267 370.249,712.031 370.771,712.548 371.292,801.378 371.814,801.789 372.336,882.752 372.858,883.085 373.379,889.634 373.901,890.011 374.423,935.262 374.944,935.569 375.466,795.198 375.988,795.626 376.51,884.662 377.031,885.048 377.553,816.23 378.075,816.679 378.596,856.498 379.118,856.785 379.64,848.07 380.162,848.439 380.683,833.662 381.205,834.079 381.727,719.189 382.248,719.653 382.77,663.504 383.292,663.957 383.813,722.046 384.335,722.395 384.857,773.331 385.379,773.738 385.9,927.974 386.422,928.265 386.944,936.039 387.465,936.34 387.987,742.809 388.509,743.227 389.031,839.386 389.552,839.85 390.074,953.371 390.596,953.641 391.117,888.002 391.639,888.288 392.161,840.818 392.683,841.199 393.204,627.107 393.726,627.569 394.248,840.769 394.769,841.126 395.291,730.599 395.813,730.91 396.335,921.02 396.856,921.369 397.378,859.713 397.9,859.959 398.421,880.566 398.943,880.805 399.465,839.955 399.987,840.229 400.508,796.098 401.03,796.397 401.552,881.147 402.073,881.384 402.595,786.241 403.117,786.576 403.639,904.233 404.16,904.528 404.682,858.845 405.204,859.131 405.725,837.883 406.247,838.168 406.769,831.807 407.291,832.151 407.812,867.303 408.334,867.668 408.856,670.051 409.377,670.544 409.899,773.117 410.421,773.506 410.943,805.07 411.464,805.448 411.986,830.395 412.508,830.789 413.029,909.7 413.551,910.024 414.073,852.992 414.595,853.272 415.116,1068.58 415.638,1068.77 416.16,891.895 416.681,892.191 417.203,757.373 417.725,757.795 418.247,935.606 418.768,935.85 419.29,851.101 419.812,851.483 420.333,714.034 420.855,714.36 421.377,791.493 421.898,791.831 422.42,871.208 422.942,871.449 423.464,745.49 423.985,745.861 424.507,578.264 425.029,578.667 425.55,865.476 426.072,865.739 426.594,740.935 427.116,741.321 427.637,823.524 428.159,823.882 428.681,723.058 429.202,723.394 429.724,732.399 430.246,732.774 430.768,792.171 431.289,792.36 431.811,764.904 432.333,765.185 432.854,693.324 433.376,693.69 433.898,854.551 434.42,854.827 434.941,675.389 435.463,675.77 435.985,730.858 436.506,731.203 437.028,866.128 437.55,866.447 438.072,861.627 438.593,861.936 439.115,721.942 439.637,722.244 440.158,640.487 440.68,640.794 441.202,671.238 441.724,671.539 442.245,873.682 442.767,873.9 443.289,686.473 443.81,686.839 444.332,661.843 444.854,662.217 445.376,694.647 445.897,694.931 446.419,704.357 446.941,704.739 447.462,796.797 447.984,797.052 448.506,566.489 449.028,566.741 449.549,733.827 450.071,734.117 450.593,608.815 451.114,609.152 451.636,885.046 452.158,885.267 452.68,640.472 453.201,640.845 453.723,473.636 454.245,474.014 454.766,723.7 455.288,723.966 455.81,714.724 456.332,714.952 456.853,705.05 457.375,705.33 457.897,609.431 458.418,609.748 458.94,698.863 459.462,699.179 459.984,584.455 460.505,584.778 461.027,585.36 461.549,585.752 462.07,637.718 462.592,638.115 463.114,711.008 463.635,711.279 464.157,676.323 464.679,676.604 465.201,592.198 465.722,592.559 466.244,734.069 466.766,734.333 467.287,652.356 467.809,652.657 468.331,529.343 468.853,529.727 469.374,523.649 469.896,524.048 470.418,796.307 470.939,796.565 471.461,811.137 471.983,811.379 472.505,795.516 473.026,795.779 473.548,559.306 474.07,559.604 474.591,724.173 475.113,724.425 475.635,716.703 476.157,716.972 476.678,748.878 477.2,749.162 477.722,631.651 478.243,631.975 478.765,733.463 479.287,733.692 479.809,787.387 480.33,787.677 480.852,457.342 481.374,457.68 481.895,719.99 482.417,720.203 482.939,620.356 483.461,620.807 483.982,409.862 484.504,410.413 485.026,588.704 485.547,588.967 486.069,766.915 486.591,767.209 487.113,754.772 487.634,754.954 488.156,484.004 488.678,484.453 489.199,796.132 489.721,796.463 490.243,645.429 490.765,645.761 491.286,464.322 491.808,464.802 492.33,608.585 492.851,608.832 493.373,718.164 493.895,718.485 494.417,564.013 494.938,564.29 495.46,777.815 495.982,778.015 496.503,671.493 497.025,671.761 497.547,652.625 498.069,652.882 498.59,803.636 499.112,803.862 499.634,734.168 500.155,734.361 500.677,557.988 501.199,558.332 501.72,627.178 502.242,627.394 502.764,742.954 503.286,743.144 503.807,662.374 504.329,662.609 504.851,682.668 505.372,682.943 505.894,567.485 506.416,567.812 506.938,558.936 507.459,559.223 507.981,609.463 508.503,609.668 509.024,514.655 509.546,515.09 510.068,665.042 510.59,665.435 511.111,690.317 511.633,690.538 512.155,669.973 512.676,670.191 513.198,671.423 513.72,671.667 514.242,638.223 514.763,638.447 515.285,708.067 515.807,708.35 516.328,616.172 516.85,616.425 517.372,504.255 517.894,504.533 518.415,614.51 518.937,614.691 519.459,737.847 519.98,738.073 520.502,466.953 521.024,467.271 521.546,621.329 522.067,621.619 522.589,703.256 523.111,703.504 523.632,566.305 524.154,566.543 524.676,551.542 525.198,551.844 525.719,572.32 526.241,572.585 526.763,500.091 527.284,500.379 527.806,715.064 528.328,715.319 528.85,633.946 529.371,634.201 529.893,551.95 530.415,552.376 530.936,515.777 531.458,516.111 531.98,555.359 532.502,555.773 533.023,571.699 533.545,571.871 534.067,567.333 534.588,567.544 535.11,686.597 535.632,686.858 536.154,535.097 536.675,535.442 537.197,646.275 537.719,646.515 538.24,591.101 538.762,591.353 539.284,500.194 539.805,500.458 540.327,600.738 540.849,600.95 541.371,666.71 541.892,666.92 542.414,660.019 542.936,660.298 543.457,638.02 543.979,638.195 544.501,618.053 545.023,618.314 545.544,753.958 546.066,754.298 546.588,524.776 547.109,525.054 547.631,597.653 548.153,597.889 548.675,785.907 549.196,786.102 549.718,510.391 550.24,510.554 550.761,623.415 551.283,623.659 551.805,597.699 552.327,598.001 552.848,480.45 553.37,480.763 553.892,547.438 554.413,547.679 554.935,496.14 555.457,496.509 555.979,678.983 556.5,679.196 557.022,750.741 557.544,750.932 558.065,572.567 558.587,572.778 559.109,690.514 559.631,690.651 560.152,580.898 560.674,581.239 561.196,641.549 561.717,641.773 562.239,545.784 562.761,546.03 563.283,667.765 563.804,667.93 564.326,643.604 564.848,643.766 565.369,668.435 565.891,668.776 566.413,534.789 566.935,535.015 567.456,542.306 567.978,542.638 568.5,434.685 569.021,434.934 569.543,519.53 570.065,519.722 570.587,532.238 571.108,532.405 571.63,570 572.152,570.216 572.673,552.841 573.195,553.038 573.717,581.056 574.239,581.22 574.76,378.961 575.282,379.25 575.804,567.746 576.325,568.082 576.847,503.542 577.369,503.786 577.89,637.726 578.412,637.906 578.934,542.75 579.456,542.992 579.977,645.657 580.499,645.823 581.021,506.66 581.542,506.999 582.064,552.654 582.586,552.806 583.108,480.942 583.629,481.183 584.151,658.165 584.673,658.35 585.194,501.261 585.716,501.506 586.238,514.037 586.76,514.27 587.281,632.041 587.803,632.232 588.325,400.417 588.846,400.633 589.368,472.05 589.89,472.208 590.412,605.613 590.933,605.869 591.455,603.315 591.977,603.49 592.498,592.091 593.02,592.256 593.542,545.082 594.064,545.331 594.585,406.023 595.107,406.353 595.629,606.779 596.15,607.137 596.672,624.242 597.194,624.455 597.716,582.197 598.237,582.409 598.759,583.717 599.281,583.889 599.802,531.613 600.324,531.779 600.846,551.538 601.368,551.836 601.889,386.534 602.411,386.736 602.933,511.347 603.454,511.609 603.976,468.342 604.498,468.635 605.02,573.475 605.541,573.661 606.063,545.163 606.585,545.409 607.106,450.73 607.628,450.947 608.15,449.146 608.672,449.373 609.193,627.154 609.715,627.286 610.237,489.423 610.758,489.705 611.28,623.028 611.802,623.218 612.324,514.285 612.845,514.579 613.367,381.728 613.889,381.991 614.41,438.257 614.932,438.482 615.454,327.608 615.975,327.977 616.497,608.745 617.019,608.869 617.541,394.714 618.062,394.987 618.584,384.841 619.106,385.186 619.627,523.17 620.149,523.399 620.671,591.993 621.193,592.152 621.714,564.48 622.236,564.7 622.758,432.091 623.279,432.262 623.801,520.028 624.323,520.435 624.845,565.534 625.366,565.756 625.888,417.904 626.41,418.068 626.931,611.696 627.453,611.888 627.975,428.594 628.497,428.844 629.018,598.933 629.54,599.107 630.062,614.93 630.583,615.149 631.105,571.194 631.627,571.369 632.149,565.204 632.67,565.376 633.192,457.842 633.714,458.111 634.235,452.611 634.757,452.845 635.279,543.754 635.801,543.955 636.322,460.734 636.844,460.865 637.366,562.401 637.887,562.682 638.409,553.003 638.931,553.218 639.453,620.78 639.974,620.965 640.496,466.44 641.018,466.592 641.539,516.017 642.061,516.169 642.583,434.423 643.105,434.622 643.626,530.121 644.148,530.294 644.67,666.002 645.191,666.15 645.713,521.084 646.235,521.268 646.757,571.59 647.278,571.699 647.8,594.894 648.322,595.034 648.843,535.262 649.365,535.508 649.887,502.69 650.409,502.851 650.93,424.088 651.452,424.204 651.974,601.143 652.495,601.319 653.017,596.246 653.539,596.384 654.06,474.759 654.582,474.906 655.104,552.123 655.626,552.288 656.147,422.577 656.669,422.757 657.191,418.775 657.712,419.042 658.234,592.94 658.756,593.141 659.278,534.451 659.799,534.568 660.321,526.411 660.843,526.624 661.364,454.568 661.886,454.863 662.408,422.121 662.93,422.26 663.451,549.413 663.973,549.584 664.495,418.31 665.016,418.549 665.538,534.113 666.06,534.35 666.582,620.229 667.103,620.386 667.625,369.56 668.147,369.846 668.668,598.583 669.19,598.829 669.712,478.349 670.234,478.461 670.755,548.418 671.277,548.638 671.799,548.549 672.32,548.85 672.842,505.861 673.364,506.084 673.886,586.13 674.407,586.373 674.929,529.713 675.451,530.054 675.972,578.558 676.494,578.668 677.016,565.136 677.538,565.386 678.059,592.441 678.581,592.731 679.103,516.998 679.624,517.23 680.146,601.639 680.668,601.934 681.19,528.955 681.711,529.118 682.233,619.398 682.755,619.561 683.276,563.472 683.798,563.603 684.32,610.381 684.842,610.54 685.363,532.182 685.885,532.304 686.407,487.842 686.928,488.029 687.45,537.621 687.972,537.842 688.494,375.167 689.015,375.323 689.537,324.752 690.059,324.972 690.58,552.819 691.102,552.957 691.624,493.599 692.145,493.681 692.667,640.892 693.189,641.027 693.711,551.773 694.232,551.995 694.754,610.057 695.276,610.295 695.797,345.991 696.319,346.191 696.841,430.908 697.363,431.162 697.884,384.416 698.406,384.585 698.928,475.532 699.449,475.66 699.971,561.819 700.493,562.027 701.015,488.996 701.536,489.192 702.058,325.961 702.58,326.259 703.101,527.82 703.623,527.939 704.145,426.357 704.667,426.513 705.188,491.963 705.71,492.196 706.232,510.361 706.753,510.526 707.275,580 707.797,580.148 708.319,528.212 708.84,528.405 709.362,569.711 709.884,569.819 710.405,453.371 710.927,453.567 711.449,576.432 711.971,576.635 712.492,410.284 713.014,410.442 713.536,486.254 714.057,486.389 714.579,503.708 715.101,503.836 715.623,429.032 716.144,429.294 716.666,428.381 717.188,428.611 717.709,443.126 718.231,443.31 718.753,509.765 719.275,509.994 719.796,534.809 720.318,535.027 720.84,378.014 721.361,378.194 721.883,515.846 722.405,516.015 722.927,517.997 723.448,518.127 723.97,419.704 724.492,419.904 725.013,541.44 725.535,541.548 726.057,611.563 726.579,611.713 727.1,586.227 727.622,586.362 728.144,500.264 728.665,500.558 729.187,440.183 729.709,440.395 730.23,398.742 730.752,398.965 731.274,498.548 731.796,498.708 732.317,498.538 732.839,498.656 733.361,599.192 733.882,599.304 734.404,483.271 734.926,483.527 735.448,388.142 735.969,388.304 736.491,400.452 737.013,400.607 737.534,446.978 738.056,447.146 738.578,448.073 739.1,448.339 739.621,464.218 740.143,464.353 740.665,476.148 741.186,476.261 741.708,471.306 742.23,471.398 742.752,531.307 743.273,531.493 743.795,508.04 744.317,508.185 744.838,557.945 745.36,558.031 745.882,473.367 746.404,473.505 746.925,482.407 747.447,482.59 747.969,500.451 748.49,500.614 749.012,551.98 749.534,552.151 750.056,478.163 750.577,478.348 751.099,520.301 751.621,520.416 752.142,498.624 752.664,498.806 753.186,551.334 753.708,551.483 754.229,448.999 754.751,449.094 755.273,616.538 755.794,616.621 756.316,579.865 756.838,580.011 757.36,490.062 757.881,490.165 758.403,608.076 758.925,608.299 759.446,326.406 759.968,326.628 760.49,537.326 761.012,537.466 761.533,518.809 762.055,519.025 762.577,463.53 763.098,463.623 763.62,505.246 764.142,505.406 764.664,539.841 765.185,540.036 765.707,489.825 766.229,490.02 766.75,584.327 767.272,584.463 767.794,486.804 768.315,486.973 768.837,526.908 769.359,527.012 769.881,306.29 770.402,306.416 770.924,406.766 771.446,406.967 771.967,545.903 772.489,546.023 773.011,548.697 773.533,548.995 774.054,506.137 774.576,506.249 775.098,422.868 775.619,422.977 776.141,362.524 776.663,362.762 777.185,437.026 777.706,437.27 778.228,506.144 778.75,506.307 779.271,463.009 779.793,463.171 780.315,528.062 780.837,528.194 781.358,483.927 781.88,484.039 782.402,584.047 782.923,584.209 783.445,434.099 783.967,434.22 784.489,444.624 785.01,444.816 785.532,422.409 786.054,422.53 786.575,416.611 787.097,416.78 787.619,585.219 788.141,585.363 788.662,534.816 789.184,534.945 789.706,520.85 790.227,521.033 790.749,450.959 791.271,451.128 791.793,463.19 792.314,463.299 792.836,567.148 793.358,567.341 793.879,526.072 794.401,526.169 794.923,524.673 795.445,524.981 795.966,525.587 796.488,525.747 797.01,563.41 797.531,563.557 798.053,530.309 798.575,530.497 799.097,425.842 799.618,425.971 800.14,517.383 800.662,517.59 801.183,509.395 801.705,509.505 802.227,486.584 802.749,486.781 803.27,532.113 803.792,532.235 804.314,493.461 804.835,493.56 805.357,564.077 805.879,564.185 806.401,547.242 806.922,547.399 807.444,567.322 807.966,567.391 808.487,451.003 809.009,451.075 809.531,278.755 810.052,278.913 810.574,427.988 811.096,428.084 811.618,531.588 812.139,531.658 812.661,503.043 813.183,503.325 813.704,395.841 814.226,396.042 814.748,528.933 815.27,529.048 815.791,455.341 816.313,455.484 816.835,402.977 817.356,403.173 817.878,458.541 818.4,458.698 818.922,440.512 819.443,440.748 819.965,459.327 820.487,459.504 821.008,421.818 821.53,422.021 822.052,505.128 822.574,505.254 823.095,454.369 823.617,454.507 824.139,401.322 824.66,401.645 825.182,572.918 825.704,573.066 826.226,559.133 826.747,559.299 827.269,492.162 827.791,492.349 828.312,371.735 828.834,371.93 829.356,378.868 829.878,378.988 830.399,574.842 830.921,574.973 831.443,542.54 831.964,542.691 832.486,415.893 833.008,416.059 833.53,483.117 834.051,483.189 834.573,349.516 835.095,349.77 835.616,410.272 836.138,410.463 836.66,456.87 837.182,457.069 837.703,525.131 838.225,525.229 838.747,499.598 839.268,499.683 839.79,481.351 840.312,481.494 840.834,490.931 841.355,490.994 841.877,502.524 842.399,502.702 842.92,438.673 843.442,438.896 843.964,600.413 844.486,600.509 845.007,497.413 845.529,497.518 846.051,630.748 846.572,630.874 847.094,477.988 847.616,478.176 848.137,574.851 848.659,575 849.181,453.772 849.703,454.054 850.224,472.693 850.746,472.814 851.268,488.157 851.789,488.399 852.311,443.15 852.833,443.299 853.355,506.511 853.876,506.679 854.398,396.836 854.92,397.129 855.441,379.389 855.963,379.532 856.485,372.369 857.007,372.558 857.528,396.179 858.05,396.355 858.572,466.994 859.093,467.108 859.615,312.439 860.137,312.615 860.659,531.838 861.18,532.029 861.702,585.325 862.224,585.413 862.745,480.158 863.267,480.358 863.789,589.059 864.311,589.202 864.832,457.22 865.354,457.334 865.876,461.098 866.397,461.23 866.919,591.914 867.441,592.033 867.963,405.962 868.484,406.153 869.006,364.185 869.528,364.346 870.049,362.868 870.571,363.078 871.093,538.953 871.615,539.062 872.136,486.519 872.658,486.606 873.18,500.571 873.701,500.673 874.223,380.074 874.745,380.329 875.267,243.647 875.788,243.835 876.31,568.221 876.832,568.416 877.353,397.161 877.875,397.313 878.397,413.014 878.919,413.178 879.44,399.316 879.962,399.455 880.484,482.107 881.005,482.24 881.527,583.673 882.049,583.815 882.571,447.221 883.092,447.443 883.614,517.397 884.136,517.597 884.657,384.938 885.179,385.076 885.701,516.675 886.222,516.768 886.744,474.845 887.266,474.912 887.788,532.464 888.309,532.589 888.831,504.168 889.353,504.282 889.874,541.35 890.396,541.465 890.918,518.782 891.44,518.916 891.961,363.655 892.483,363.824 893.005,389.676 893.526,389.791 894.048,554.158 894.57,554.288 895.092,521.574 895.613,521.738 896.135,484.416 896.657,484.658 897.178,479.987 897.7,480.138 898.222,474.689 898.744,474.809 899.265,480.976 899.787,481.068 900.309,424.888 900.83,425.129 901.352,563.77 901.874,563.924 902.396,514.384 902.917,514.463 903.439,544.553 903.961,544.689 904.482,506.657 905.004,506.745 905.526,520.758 906.048,520.913 906.569,519.144 907.091,519.234 907.613,434.012 908.134,434.121 908.656,399.84 909.178,399.942 909.7,348.359 910.221,348.482 910.743,477.65 911.265,477.846 911.786,421.587 912.308,421.763 912.83,441.291 913.352,441.401 913.873,483.8 914.395,483.966 914.917,465.472 915.438,465.566 915.96,440.48 916.482,440.634 917.004,566.172 917.525,566.27 918.047,425.237 918.569,425.339 919.09,323.723 919.612,323.92 920.134,459.694 920.656,459.759 921.177,462.22 921.699,462.349 922.221,325.61 922.742,325.761 923.264,432.587 923.786,432.693 924.307,386.205 924.829,386.468 925.351,495.85 925.873,495.961 926.394,435.636 926.916,435.756 927.438,458.845 927.959,458.897 928.481,449.81 929.003,449.875 929.525,415.221 930.046,415.305 930.568,442.307 931.09,442.439 931.611,388.214 932.133,388.455 932.655,444.602 933.177,444.757 933.698,483.656 934.22,483.941 934.742,424.813 935.263,424.924 935.785,465.383 936.307,465.52 936.829,452.955 937.35,453.105 937.872,498.582 938.394,498.74 938.915,432.293 939.437,432.396 939.959,478.205 940.481,478.36 941.002,380.992 941.524,381.18 942.046,457.132 942.567,457.265 943.089,505.662 943.611,505.827 944.133,483.843 944.654,483.993 945.176,374.621 945.698,374.809 946.219,453.505 946.741,453.711 947.263,368.357 947.785,368.482 948.306,516.665 948.828,516.74 949.35,434.624 949.871,434.855 950.393,385.66 950.915,385.73 951.437,466.718 951.958,466.925 952.48,445.323 953.002,445.427 953.523,399.96 954.045,400.096 954.567,443.131 955.089,443.287 955.61,526.482 956.132,526.656 956.654,453.513 957.175,453.655 957.697,411.92 958.219,412.063 958.741,576.292 959.262,576.384 959.784,442.252 960.306,442.433 960.827,455.309 961.349,455.471 961.871,424.514 962.392,424.633 962.914,359.348 963.436,359.518 963.958,458.332 964.479,458.51 965.001,401.491 965.523,401.583 966.044,459.401 966.566,459.592 967.088,563.823 967.61,564.043 968.131,535.436 968.653,535.649 969.175,388.65 969.696,388.845 970.218,533.384 970.74,533.653 971.262,450.901 971.783,451.119 972.305,329.923 972.827,330.006 973.348,358.118 973.87,358.31 974.392,299.442 974.914,299.566 975.435,408.217 975.957,408.357 976.479,437.533 977,437.675 977.522,491.412 978.044,491.476 978.566,509.128 979.087,509.233 979.609,525.093 980.131,525.25 980.652,413.041 981.174,413.231 981.696,428.016 982.218,428.254 982.739,526.253 983.261,526.361 983.783,413.132 984.304,413.332 984.826,431.759 985.348,431.927 985.87,524.545 986.391,524.688 986.913,433.538 987.435,433.707 987.956,507.5 988.478,507.568 989,525.871 989.522,526.034 990.043,358.63 990.565,358.716 991.087,499.539 991.608,499.706 992.13,528.927 992.652,529.042 993.174,498.574 993.695,498.646 994.217,410.511 994.739,410.609 995.26,419.557 995.782,419.688 996.304,280.939 996.826,281.129 997.347,429.086 997.869,429.2 998.391,471.107 998.912,471.261 999.434,514.614 999.956,514.703 1000.48,441.04 1001,441.268 1001.52,427.595 1002.04,427.694 1002.56,468.055 1003.09,468.093 1003.61,449.573 1004.13,449.625 1004.65,440.633 1005.17,440.816 1005.69,300.416 1006.22,300.645 1006.74,328.647 1007.26,328.812 1007.78,442.329 1008.3,442.483 1008.82,464.842 1009.35,465.101 1009.87,464.546 1010.39,464.671 1010.91,492.709 1011.43,492.8 1011.96,368.65 1012.48,368.774 1013,424.375 1013.52,424.468 1014.04,408.572 1014.56,408.666 1015.09,524.48 1015.61,524.614 1016.13,416.592 1016.65,416.767 1017.17,453.977 1017.69,454.183 1018.22,495.603 1018.74,495.785 1019.26,342.742 1019.78,342.938 1020.3,438.349 1020.82,438.622 1021.35,348.989 1021.87,349.183 1022.39,480.653 1022.91,480.891 1023.43,468.773 1023.95,468.914 1024.48,451.839 1025,452.02 1025.52,423.273 1026.04,423.383 1026.56,378.18 1027.08,378.411 1027.61,419.821 1028.13,419.942 1028.65,482.352 1029.17,482.592 1029.69,523.89 1030.22,523.925 1030.74,525.797 1031.26,525.892 1031.78,321.948 1032.3,322.139 1032.82,478.05 1033.35,478.14 1033.87,245.647 1034.39,245.793 1034.91,448.918 1035.43,448.994 1035.95,451.958 1036.48,452.379 1037,475.968 1037.52,476.159 1038.04,491.836 1038.56,492.029 1039.08,335.84 1039.61,336.064 1040.13,448.553 1040.65,448.783 1041.17,334.988 1041.69,335.174 1042.21,415.318 1042.74,415.418 1043.26,373.154 1043.78,373.311 1044.3,366.772 1044.82,366.916 1045.34,438.715 1045.87,438.816 1046.39,412.193 1046.91,412.518 1047.43,454.862 1047.95,455.017 1048.48,392.324 1049,392.472 1049.52,573.744 1050.04,573.849 1050.56,467.39 1051.08,467.629 1051.61,473.951 1052.13,474.029 1052.65,467.883 1053.17,468.038 1053.69,344.204 1054.21,344.29 1054.74,422.674 1055.26,422.824 1055.78,486.72 1056.3,486.891 1056.82,467.949 1057.34,468.077 1057.87,376.726 1058.39,376.773 1058.91,391.713 1059.43,391.816 1059.95,515.113 1060.47,515.2 1061,449.712 1061.52,449.78 1062.04,444.257 1062.56,444.397 1063.08,375.22 1063.6,375.346 1064.13,474.035 1064.65,474.253 1065.17,367.568 1065.69,367.71 1066.21,290.697 1066.73,290.819 1067.26,323.96 1067.78,324.22 1068.3,414.987 1068.82,415.13 1069.34,447.296 1069.87,447.372 1070.39,360.699 1070.91,360.758 1071.43,419.938 1071.95,420.04 1072.47,471.54 1073,471.59 1073.52,254.948 1074.04,255.125 1074.56,502.683 1075.08,502.771 1075.6,350.606 1076.13,350.768 1076.65,289.85 1077.17,289.992 1077.69,381.234 1078.21,381.345 1078.73,436.155 1079.26,436.348 1079.78,499.574 1080.3,499.744 1080.82,415.399 1081.34,415.546 1081.86,402.748 1082.39,402.889 1082.91,594.306 1083.43,594.417 1083.95,438.16 1084.47,438.269 1084.99,322.022 1085.52,322.283 1086.04,401.693 1086.56,401.906 1087.08,475.984 1087.6,476.216 1088.13,530.449 1088.65,530.652 1089.17,405.611 1089.69,405.727 1090.21,457.394 1090.73,457.513 1091.26,334.107 1091.78,334.278 1092.3,310.408 1092.82,310.523 1093.34,445.243 1093.86,445.351 1094.39,558.173 1094.91,558.264 1095.43,467.88 1095.95,468.034 1096.47,420.315 1096.99,420.406 1097.52,340.644 1098.04,340.773 1098.56,407.548 1099.08,407.753 1099.6,393.22 1100.12,393.432 1100.65,384.368 1101.17,384.449 1101.69,349.141 1102.21,349.242 1102.73,461.743 1103.25,461.905 1103.78,457.316 1104.3,457.456 1104.82,323.483 1105.34,323.567 1105.86,514.295 1106.39,514.412 1106.91,477.972 1107.43,478.096 1107.95,442.906 1108.47,443.034 1108.99,454.087 1109.52,454.229 1110.04,496.756 1110.56,496.886 1111.08,479.901 1111.6,479.955 1112.12,469.257 1112.65,469.359 1113.17,367.726 1113.69,367.794 1114.21,464.847 1114.73,464.966 1115.25,470.055 1115.78,470.125 1116.3,354.73 1116.82,354.963 1117.34,471.898 1117.86,472.065 1118.38,531.432 1118.91,531.464 1119.43,419.347 1119.95,419.51 1120.47,357.191 1120.99,357.272 1121.51,381.695 1122.04,381.788 1122.56,469.762 1123.08,469.981 1123.6,292.523 1124.12,292.713 1124.65,391.321 1125.17,391.531 1125.69,542.776 1126.21,542.922 1126.73,473.551 1127.25,473.729 1127.78,416.622 1128.3,416.795 1128.82,369.394 1129.34,369.567 1129.86,499.331 1130.38,499.505 1130.91,368.686 1131.43,368.811 1131.95,366.093 1132.47,366.212 1132.99,415.948 1133.51,416.042 1134.04,378.327 1134.56,378.441 1135.08,336.623 1135.6,336.695 1136.12,477.85 1136.64,477.961 1137.17,282.255 1137.69,282.407 1138.21,461.284 1138.73,461.411 1139.25,471.229 1139.77,471.374 1140.3,425.638 1140.82,425.865 1141.34,348.774 1141.86,348.874 1142.38,582.455 1142.9,582.546 1143.43,382.132 1143.95,382.227 1144.47,374.938 1144.99,375.081 1145.51,521.467 1146.04,521.544 1146.56,534.839 1147.08,534.938 1147.6,382.823 1148.12,382.954 1148.64,369.64 1149.17,369.802 1149.69,423.655 1150.21,423.783 1150.73,492.158 1151.25,492.224 1151.77,476.648 1152.3,476.743 1152.82,522.652 1153.34,522.707 1153.86,297.1 1154.38,297.291 1154.9,479.393 1155.43,479.491 1155.95,380.175 1156.47,380.427 1156.99,408.974 1157.51,409.119 1158.03,404.943 1158.56,405.055 1159.08,393.186 1159.6,393.338 1160.12,353.661 1160.64,353.706 1161.16,541.693 1161.69,541.809 1162.21,330.197 1162.73,330.321 1163.25,463.338 1163.77,463.47 1164.3,428.699 1164.82,428.736 1165.34,486.407 1165.86,486.499 1166.38,492.339 1166.9,492.578 1167.43,444.968 1167.95,445.228 1168.47,162.633 1168.99,162.852 1169.51,480.342 1170.03,480.456 1170.56,358.896 1171.08,358.957 1171.6,372.895 1172.12,372.951 1172.64,447.421 1173.16,447.514 1173.69,189.802 1174.21,189.994 1174.73,462.878 1175.25,462.935 1175.77,453.93 1176.29,454.015 1176.82,464.849 1177.34,465.059 1177.86,518.2 1178.38,518.381 1178.9,397.662 1179.42,397.858 1179.95,460.225 1180.47,460.317 1180.99,481.558 1181.51,481.737 1182.03,400.519 1182.56,400.587 1183.08,483.58 1183.6,483.674 1184.12,412.302 1184.64,412.548 1185.16,403.152 1185.69,403.206 1186.21,431.055 1186.73,431.281 1187.25,379.141 1187.77,379.499 1188.29,492.872 1188.82,492.993 1189.34,526.478 1189.86,526.623 1190.38,498.504 1190.9,498.58 1191.42,463.481 1191.95,463.538 1192.47,406.257 1192.99,406.353 1193.51,460.929 1194.03,461.011 1194.55,431.298 1195.08,431.38 1195.6,480.45 1196.12,480.503 1196.64,491.22 1197.16,491.277 1197.68,429.12 1198.21,429.171 1198.73,364.813 1199.25,364.893 1199.77,396.884 1200.29,396.957 1200.82,513.898 1201.34,514.057 1201.86,476.458 1202.38,476.573 1202.9,356.967 1203.42,357.091 1203.95,460.589 1204.47,460.92 1204.99,300.784 1205.51,300.972 1206.03,473.648 1206.55,473.747 1207.08,439.968 1207.6,440.091 1208.12,476.692 1208.64,476.851 1209.16,339.66 1209.68,339.731 1210.21,443.113 1210.73,443.204 1211.25,270.637 1211.77,270.764 1212.29,455.751 1212.81,455.815 1213.34,384.188 1213.86,384.34 1214.38,397.423 1214.9,397.56 1215.42,511.488 1215.94,511.564 1216.47,356.8 1216.99,356.973 1217.51,461.599 1218.03,461.743 1218.55,466.26 1219.07,466.4 1219.6,345.654 1220.12,345.811 1220.64,432.183 1221.16,432.252 1221.68,487.985 1222.21,488.063 1222.73,382.981 1223.25,383.038 1223.77,413.814 1224.29,413.9 1224.81,419.417 1225.34,419.579 1225.86,347.088 1226.38,347.278 1226.9,482.711 1227.42,482.869 1227.94,529.179 1228.47,529.296 1228.99,347.755 1229.51,347.935 1230.03,403.058 1230.55,403.373 1231.07,424.021 1231.6,424.222 1232.12,359.001 1232.64,359.098 1233.16,358.494 1233.68,358.741 1234.2,431.072 1234.73,431.13 1235.25,392.269 1235.77,392.37 1236.29,280.898 1236.81,281.059 1237.33,469.479 1237.86,469.531 1238.38,329.647 1238.9,329.785 1239.42,349.006 1239.94,349.077 1240.47,315.283 1240.99,315.405 1241.51,439.966 1242.03,440.178 1242.55,507.736 1243.07,507.772 1243.6,478.463 1244.12,478.535 1244.64,411.599 1245.16,411.796 1245.68,321.727 1246.2,321.888 1246.73,405.73 1247.25,405.933 1247.77,440.34 1248.29,440.48 1248.81,434.675 1249.33,434.771 1249.86,377.116 1250.38,377.17 1250.9,411.196 1251.42,411.382 1251.94,357.928 1252.46,358.077 1252.99,432.038 1253.51,432.159 1254.03,458.26 1254.55,458.424 1255.07,304.361 1255.59,304.448 1256.12,555.985 1256.64,556.07 1257.16,432.982 1257.68,433.08 1258.2,402.806 1258.73,402.907 1259.25,383.146 1259.77,383.293 1260.29,530.239 1260.81,530.435 1261.33,252.76 1261.86,253.008 1262.38,426.047 1262.9,426.085 1263.42,441.315 1263.94,441.446 1264.46,469.536 1264.99,469.736 1265.51,461.844 1266.03,461.962 1266.55,331.518 1267.07,331.713 1267.59,371.312 1268.12,371.524 1268.64,436.489 1269.16,436.617 1269.68,468.878 1270.2,469.007 1270.72,432.767 1271.25,432.816 1271.77,422.627 1272.29,422.675 1272.81,447.507 1273.33,447.66 1273.85,463.145 1274.38,463.287 1274.9,434.679 1275.42,434.973 1275.94,490.071 1276.46,490.199 1276.99,334.009 1277.51,334.154 1278.03,513.566 1278.55,513.701 1279.07,457.137 1279.59,457.215 1280.12,353.258 1280.64,353.368 1281.16,436.211 1281.68,436.304 1282.2,252.773 1282.72,252.944 1283.25,368.794 1283.77,369.044 1284.29,482.539 1284.81,482.679 1285.33,314.242 1285.85,314.327 1286.38,358.123 1286.9,358.183 1287.42,460.648 1287.94,460.752 1288.46,400.866 1288.98,400.987 1289.51,406.096 1290.03,406.186 1290.55,424.744 1291.07,424.823 1291.59,336.802 1292.11,336.919 1292.64,387.115 1293.16,387.301 1293.68,417.502 1294.2,417.674 1294.72,403.224 1295.24,403.356 1295.77,337.224 1296.29,337.315 1296.81,527.61 1297.33,527.687 1297.85,356.589 1298.38,356.708 1298.9,396.813 1299.42,396.974 1299.94,435.937 1300.46,436.058 1300.98,377.518 1301.51,377.642 1302.03,436.982 1302.55,437.137 1303.07,391.45 1303.59,391.662 1304.11,443.793 1304.64,443.848 1305.16,470.648 1305.68,470.766 1306.2,456.247 1306.72,456.502 1307.24,458.623 1307.77,458.712 1308.29,520.495 1308.81,520.556 1309.33,370.725 1309.85,371.05 1310.37,510.703 1310.9,510.795 1311.42,294.636 1311.94,294.738 1312.46,298.547 1312.98,298.653 1313.5,499.861 1314.03,500.026 1314.55,354.352 1315.07,354.401 1315.59,403.091 1316.11,403.28 1316.64,402.35 1317.16,402.441 1317.68,341.104 1318.2,341.211 1318.72,413.222 1319.24,413.391 1319.77,405.733 1320.29,405.966 1320.81,404.512 1321.33,404.585 1321.85,436.401 1322.37,436.537 1322.9,368.795 1323.42,368.975 1323.94,379.702 1324.46,379.879 1324.98,394.372 1325.5,394.417 1326.03,418.815 1326.55,418.952 1327.07,391.451 1327.59,391.599 1328.11,490.581 1328.63,490.697 1329.16,460.836 1329.68,460.936 1330.2,324.401 1330.72,324.681 1331.24,506.781 1331.76,506.907 1332.29,389.017 1332.81,389.121 1333.33,309.312 1333.85,309.563 1334.37,337.276 1334.9,337.456 1335.42,397.001 1335.94,397.112 1336.46,399.593 1336.98,399.745 1337.5,477.365 1338.03,477.446 1338.55,437.15 1339.07,437.23 1339.59,355.234 1340.11,355.41 1340.63,219.758 1341.16,219.909 1341.68,446.682 1342.2,446.787 1342.72,371.548 1343.24,371.682 1343.76,486.35 1344.29,486.438 1344.81,402.022 1345.33,402.156 1345.85,448.176 1346.37,448.261 1346.89,320.057 1347.42,320.263 1347.94,506.78 1348.46,506.928 1348.98,440.615 1349.5,440.7 1350.02,362.91 1350.55,363.08 1351.07,349.015 1351.59,349.257 1352.11,374.234 1352.63,374.368 1353.16,378.411 1353.68,378.723 1354.2,241.43 1354.72,241.712 1355.24,169.088 1355.76,169.267 1356.29,468.469 1356.81,468.511 1357.33,364.734 1357.85,364.866 1358.37,338.321 1358.89,338.594 1359.42,374.029 1359.94,374.163 1360.46,418.485 1360.98,418.565 1361.5,438.873 1362.02,438.986 1362.55,400.133 1363.07,400.286 1363.59,450.311 1364.11,450.588 1364.63,329.918 1365.15,330.024 1365.68,444.213 1366.2,444.361 1366.72,423.538 1367.24,423.667 1367.76,380.29 1368.28,380.363 1368.81,454.399 1369.33,454.47 1369.85,357.104 1370.37,357.265 1370.89,347.616 1371.41,347.814 1371.94,376.761 1372.46,377.106 1372.98,424.419 1373.5,424.631 1374.02,329.293 1374.55,329.559 1375.07,367.089 1375.59,367.3 1376.11,426.747 1376.63,426.835 1377.15,338.905 1377.68,339.015 1378.2,468.878 1378.72,468.95 1379.24,359.531 1379.76,359.632 1380.28,284.923 1380.81,285.089 1381.33,258.514 1381.85,258.694 1382.37,320.757 1382.89,320.918 1383.41,367.854 1383.94,367.933 1384.46,443.762 1384.98,443.791 1385.5,455.242 1386.02,455.313 1386.54,475.35 1387.07,475.523 1387.59,467.511 1388.11,467.693 1388.63,466.782 1389.15,466.854 1389.67,409.815 1390.2,409.931 1390.72,347.324 1391.24,347.412 1391.76,441.361 1392.28,441.422 1392.81,392.557 1393.33,392.621 1393.85,479.53 1394.37,479.651 1394.89,340.296 1395.41,340.431 1395.94,452.588 1396.46,452.67 1396.98,447.94 1397.5,448.025 1398.02,466.122 1398.54,466.243 1399.07,474.716 1399.59,474.806 1400.11,471.571 1400.63,471.746 1401.15,516.792 1401.67,516.927 1402.2,452.855 1402.72,452.977 1403.24,335.657 1403.76,335.992 1404.28,479.128 1404.8,479.241 1405.33,234.892 1405.85,235.066 1406.37,450.685 1406.89,450.785 1407.41,371.641 1407.93,371.77 1408.46,388.766 1408.98,388.845 1409.5,363.09 1410.02,363.249 1410.54,380.114 1411.07,380.261 1411.59,413.905 1412.11,414.101 1412.63,384.844 1413.15,384.896 1413.67,492.51 1414.2,492.556 1414.72,419.098 1415.24,419.203 1415.76,472.902 1416.28,473.017 1416.8,406.941 1417.33,407.146 1417.85,279.69 1418.37,279.895 1418.89,355.417 1419.41,355.561 1419.93,550.717 1420.46,550.892 1420.98,419.983 1421.5,420.265 1422.02,462.09 1422.54,462.146 1423.06,439.88 1423.59,440.023 1424.11,471.413 1424.63,471.608 1425.15,479.546 1425.67,479.678 1426.19,441.104 1426.72,441.193 1427.24,385.232 1427.76,385.371 1428.28,366.075 1428.8,366.134 1429.33,366.543 1429.85,366.742 1430.37,430.008 1430.89,430.115 1431.41,442.409 1431.93,442.609 1432.46,341.538 1432.98,341.689 1433.5,480.991 1434.02,481.084 1434.54,364.87 1435.06,364.991 1435.59,375.048 1436.11,375.209 1436.63,303.168 1437.15,303.364 1437.67,349.888 1438.19,349.994 1438.72,445.791 1439.24,445.917 1439.76,501.459 1440.28,501.558 1440.8,447.584 1441.32,447.66 1441.85,411.663 1442.37,411.707 1442.89,501.812 1443.41,501.965 1443.93,463.043 1444.45,463.279 1444.98,351.794 1445.5,352.034 1446.02,384.299 1446.54,384.468 1447.06,383.794 1447.58,383.882 1448.11,373.468 1448.63,373.704 1449.15,454.937 1449.67,455.171 1450.19,352.057 1450.72,352.184 1451.24,309.411 1451.76,309.563 1452.28,440.124 1452.8,440.225 1453.32,360.173 1453.85,360.346 1454.37,443.954 1454.89,444.064 1455.41,353.626 1455.93,353.732 1456.45,372.62 1456.98,372.782 1457.5,377.546 1458.02,377.634 1458.54,405.106 1459.06,405.286 1459.58,411.406 1460.11,411.497 1460.63,387.719 1461.15,387.809 1461.67,469.383 1462.19,469.546 1462.71,404.257 1463.24,404.521 1463.76,463.511 1464.28,463.649 1464.8,337.406 1465.32,337.749 1465.84,396.268 1466.37,396.401 1466.89,325.645 1467.41,325.84 1467.93,392.36 1468.45,392.42 1468.98,339.929 1469.5,339.993 1470.02,400.567 1470.54,400.708 1471.06,405.502 1471.58,405.662 1472.11,378.817 1472.63,378.952 1473.15,417.912 1473.67,417.986 1474.19,212.108 1474.71,212.279 1475.24,326.101 1475.76,326.169 1476.28,343.699 1476.8,343.788 1477.32,370.053 1477.84,370.14 1478.37,306.498 1478.89,306.622 1479.41,343.947 1479.93,343.987 1480.45,399.367 1480.97,399.473 1481.5,550.707 1482.02,550.764 1482.54,387.52 1483.06,387.613 1483.58,449.957 1484.1,450.017 1484.63,338.428 1485.15,338.517 1485.67,343.579 1486.19,343.736 1486.71,416.917 1487.24,417.051 1487.76,419.646 1488.28,419.751 1488.8,291.984 1489.32,292.115 1489.84,311.185 1490.37,311.326 1490.89,495.015 1491.41,495.09 1491.93,449.498 1492.45,449.586 1492.97,457.551 1493.5,457.657 1494.02,326.987 1494.54,327.141 1495.06,402.193 1495.58,402.279 1496.1,418.097 1496.63,418.185 1497.15,524.156 1497.67,524.283 1498.19,373.297 1498.71,373.497 1499.23,397.686 1499.76,397.741 1500.28,310.726 1500.8,310.878 1501.32,440.479 1501.84,440.57 1502.36,444.394 1502.89,444.607 1503.41,425.468 1503.93,425.646 1504.45,405.28 1504.97,405.354 1505.5,514.069 1506.02,514.116 1506.54,436.703 1507.06,436.81 1507.58,416.854 1508.1,417.055 1508.63,435.419 1509.15,435.503 1509.67,411.177 1510.19,411.278 1510.71,422.366 1511.23,422.458 1511.76,408.918 1512.28,409.017 1512.8,408.117 1513.32,408.315 1513.84,413.6 1514.36,413.662 1514.89,365.273 1515.41,365.355 1515.93,467.615 1516.45,467.7 1516.97,428.611 1517.49,428.78 1518.02,343.398 1518.54,343.473 1519.06,405.372 1519.58,405.598 1520.1,336.746 1520.62,336.802 1521.15,484.337 1521.67,484.49 1522.19,446.746 1522.71,446.82 1523.23,462.321 1523.75,462.441 1524.28,396.538 1524.8,396.635 1525.32,385.673 1525.84,385.745 1526.36,415.783 1526.89,415.928 1527.41,344.079 1527.93,344.222 1528.45,336.833 1528.97,336.968 1529.49,395.313 1530.02,395.375 1530.54,399.892 1531.06,400.047 1531.58,433.964 1532.1,434.058 1532.62,418.527 1533.15,418.606 1533.67,313.334 1534.19,313.502 1534.71,400.995 1535.23,401.119 1535.75,495.397 1536.28,495.497 1536.8,401.825 1537.32,401.918 1537.84,424.973 1538.36,425.058 1538.88,396.01 1539.41,396.052 1539.93,401.851 1540.45,401.91 1540.97,373.059 1541.49,373.152 1542.01,296.681 1542.54,296.884 1543.06,376.499 1543.58,376.74 1544.1,376.177 1544.62,376.292 1545.15,310.75 1545.67,310.831 1546.19,338.186 1546.71,338.288 1547.23,369.172 1547.75,369.336 1548.28,436.066 1548.8,436.242 1549.32,371.989 1549.84,372.103 1550.36,409.514 1550.88,409.688 1551.41,428.612 1551.93,428.787 1552.45,364.112 1552.97,364.252 1553.49,200.185 1554.01,200.449 1554.54,279.036 1555.06,279.245 1555.58,434.558 1556.1,434.704 1556.62,489.107 1557.14,489.172 1557.67,442.659 1558.19,442.769 1558.71,286.168 1559.23,286.26 1559.75,458.722 1560.27,458.883 1560.8,469.1 1561.32,469.218 1561.84,397.235 1562.36,397.355 1562.88,380.738 1563.41,380.93 1563.93,356.016 1564.45,356.134 1564.97,385.356 1565.49,385.526 1566.01,457.137 1566.54,457.221 1567.06,413.178 1567.58,413.312 1568.1,375.745 1568.62,375.807 1569.14,425.531 1569.67,425.583 1570.19,384.968 1570.71,385.092 1571.23,475.736 1571.75,476.032 1572.27,471.559 1572.8,471.635 1573.32,470.516 1573.84,470.599 1574.36,417.502 1574.88,417.783 1575.4,411.438 1575.93,411.685 1576.45,458.995 1576.97,459.046 1577.49,397.026 1578.01,397.075 1578.53,400.547 1579.06,400.681 1579.58,332.379 1580.1,332.608 1580.62,410.37 1581.14,410.458 1581.67,355.928 1582.19,356.002 1582.71,409.27 1583.23,409.467 1583.75,440.384 1584.27,440.457 1584.8,366.985 1585.32,367.103 1585.84,386.527 1586.36,386.738 1586.88,456.098 1587.4,456.207 1587.93,436.713 1588.45,436.792 1588.97,351.817 1589.49,351.877 1590.01,405.482 1590.53,405.59 1591.06,453.07 1591.58,453.195 1592.1,409.532 1592.62,409.702 1593.14,403.691 1593.66,403.793 1594.19,477.916 1594.71,478.037 1595.23,274.925 1595.75,274.994 1596.27,451.462 1596.79,451.593 1597.32,317.344 1597.84,317.472 1598.36,380.609 1598.88,380.817 1599.4,397.088 1599.92,397.248 1600.45,414.408 1600.97,414.554 1601.49,403.645 1602.01,403.791 1602.53,260.63 1603.06,260.71 1603.58,365.662 1604.1,365.76 1604.62,422.759 1605.14,422.914 1605.66,472.653 1606.19,472.711 1606.71,366.491 1607.23,366.66 1607.75,365.998 1608.27,366.065 1608.79,328.926 1609.32,329.042 1609.84,449.582 1610.36,449.676 1610.88,379.146 1611.4,379.178 1611.92,202.823 1612.45,203.054 1612.97,458.019 1613.49,458.187 1614.01,435.151 1614.53,435.345 1615.05,411.088 1615.58,411.181 1616.1,451.513 1616.62,451.578 1617.14,337.278 1617.66,337.416 1618.18,315.412 1618.71,315.537 1619.23,442.777 1619.75,443 1620.27,406.592 1620.79,406.67 1621.32,423.209 1621.84,423.283 1622.36,383.629 1622.88,383.752 1623.4,358.344 1623.92,358.502 1624.45,505.755 1624.97,505.852 1625.49,351.963 1626.01,352.27 1626.53,484.567 1627.05,484.636 1627.58,377.36 1628.1,377.463 1628.62,330.178 1629.14,330.265 1629.66,413.039 1630.18,413.101 1630.71,417.42 1631.23,417.506 1631.75,431.74 1632.27,431.793 1632.79,430.083 1633.31,430.165 1633.84,453.555 1634.36,453.624 1634.88,309.483 1635.4,309.565 1635.92,478.151 1636.44,478.313 1636.97,256.281 1637.49,256.446 1638.01,355.128 1638.53,355.441 1639.05,305.898 1639.58,306.012 1640.1,389.29 1640.62,389.352 1641.14,400.449 1641.66,400.567 1642.18,428.994 1642.71,429.036 1643.23,417.676 1643.75,417.824 1644.27,328.619 1644.79,328.689 1645.31,87.9763 1645.84,88.2153 1646.36,400.053 1646.88,400.131 1647.4,481.815 1647.92,481.895 1648.44,323.705 1648.97,323.773 1649.49,418.944 1650.01,419.148 1650.53,405.175 1651.05,405.371 1651.57,381.457 1652.1,381.572 1652.62,276.49 1653.14,276.627 1653.66,418.235 1654.18,418.332 1654.7,466.042 1655.23,466.145 1655.75,477.65 1656.27,477.747 1656.79,327.126 1657.31,327.239 1657.84,304.914 1658.36,305.112 1658.88,353.423 1659.4,353.488 1659.92,496.115 1660.44,496.223 1660.97,354.685 1661.49,354.847 1662.01,381.5 1662.53,381.781 1663.05,384.615 1663.57,384.985 1664.1,411.547 1664.62,411.699 1665.14,378.166 1665.66,378.398 1666.18,479.577 1666.7,479.659 1667.23,565.744 1667.75,565.847 1668.27,392.439 1668.79,392.589 1669.31,276.96 1669.83,277.071 1670.36,349.433 1670.88,349.524 1671.4,338.762 1671.92,338.981 1672.44,308.491 1672.96,308.638 1673.49,344.302 1674.01,344.491 1674.53,364.379 1675.05,364.532 1675.57,358.469 1676.09,358.606 1676.62,412.004 1677.14,412.108 1677.66,489.457 1678.18,489.497 1678.7,349.399 1679.23,349.545 1679.75,310.116 1680.27,310.297 1680.79,314.547 1681.31,314.691 1681.83,385.852 1682.36,385.913 1682.88,449.5 1683.4,449.584 1683.92,367.007 1684.44,367.101 1684.96,422.269 1685.49,422.392 1686.01,424.32 1686.53,424.508 1687.05,291.943 1687.57,292.222 1688.09,409.274 1688.62,409.474 1689.14,413.058 1689.66,413.219 1690.18,412.252 1690.7,412.441 1691.22,308.962 1691.75,309.068 1692.27,341.974 1692.79,342.182 1693.31,440.499 1693.83,440.622 1694.35,401.497 1694.88,401.61 1695.4,467.203 1695.92,467.359 1696.44,272.861 1696.96,273.081 1697.49,416.726 1698.01,416.811 1698.53,351.663 1699.05,351.869 1699.57,380.281 1700.09,380.399 1700.62,482.894 1701.14,483.06 1701.66,451.61 1702.18,451.662 1702.7,433.881 1703.22,433.99 1703.75,420.963 1704.27,421.01 1704.79,477.336 1705.31,477.434 1705.83,309.532 1706.35,309.695 1706.88,400.755 1707.4,400.902 1707.92,296.261 1708.44,296.395 1708.96,480.992 1709.48,481.042 1710.01,314.216 1710.53,314.468 1711.05,220.102 1711.57,220.272 1712.09,405.468 1712.61,405.687 1713.14,412.406 1713.66,412.482 1714.18,363.995 1714.7,364.111 1715.22,504.15 1715.75,504.177 1716.27,503.225 1716.79,503.298 1717.31,379.243 1717.83,379.353 1718.35,373.254 1718.88,373.595 1719.4,399.823 1719.92,399.963 1720.44,444.623 1720.96,444.734 1721.48,262.711 1722.01,262.802 1722.53,270.06 1723.05,270.216 1723.57,354.028 1724.09,354.107 1724.61,358.077 1725.14,358.193 1725.66,391.094 1726.18,391.313 1726.7,479.696 1727.22,479.812 1727.74,413.304 1728.27,413.423 1728.79,463.428 1729.31,463.511 1729.83,319.716 1730.35,319.856 1730.87,371.095 1731.4,371.189 1731.92,370.411 1732.44,370.617 1732.96,415.402 1733.48,415.493 1734.01,388.43 1734.53,388.499 1735.05,358.651 1735.57,358.689 1736.09,459.723 1736.61,459.895 1737.14,320.882 1737.66,321.023 1738.18,439.202 1738.7,439.394 1739.22,329.316 1739.74,329.532 1740.27,214.271 1740.79,214.587 1741.31,398.079 1741.83,398.216 1742.35,468.141 1742.87,468.164 1743.4,500.652 1743.92,500.687 1744.44,313.205 1744.96,313.409 1745.48,446.467 1746,446.56 1746.53,390.393 1747.05,390.491 1747.57,329.116 1748.09,329.253 1748.61,400.708 1749.13,400.807 1749.66,340.118 1750.18,340.38 1750.7,477.704 1751.22,477.938 1751.74,405.119 1752.26,405.276 1752.79,418.212 1753.31,418.364 1753.83,467.107 1754.35,467.305 1754.87,460.738 1755.4,460.867 1755.92,279.799 1756.44,280.025 1756.96,302.007 1757.48,302.274 1758,352.418 1758.53,352.525 1759.05,483.013 1759.57,483.184 1760.09,318.459 1760.61,318.554 1761.13,361.698 1761.66,361.814 1762.18,479.031 1762.7,479.104 1763.22,284.355 1763.74,284.482 1764.26,350.038 1764.79,350.191 1765.31,406.074 1765.83,406.18 1766.35,311.855 1766.87,311.944 1767.39,446.027 1767.92,446.219 1768.44,341.284 1768.96,341.423 1769.48,344.716 1770,344.868 1770.52,449.479 1771.05,449.617 1771.57,475.203 1772.09,475.265 1772.61,293.097 1773.13,293.358 1773.66,404.92 1774.18,405.041 1774.7,353.785 1775.22,353.831 1775.74,451.798 1776.26,451.9 1776.79,448.212 1777.31,448.379 1777.83,407.475 1778.35,407.555 1778.87,422.368 1779.39,422.465 1779.92,421.247 1780.44,421.384 1780.96,437.123 1781.48,437.234 1782,339.424 1782.52,339.721 1783.05,397.674 1783.57,397.842 1784.09,360.322 1784.61,360.466 1785.13,295.389 1785.65,295.444 1786.18,395.091 1786.7,395.226 1787.22,368.139 1787.74,368.332 1788.26,411.764 1788.78,412.045 1789.31,460.366 1789.83,460.481 1790.35,467.405 1790.87,467.512 1791.39,443.48 1791.92,443.595 1792.44,427.727 1792.96,427.8 1793.48,367.382 1794,367.606 1794.52,285.871 1795.05,286.065 1795.57,389.184 1796.09,389.359 1796.61,343.509 1797.13,343.739 1797.65,369.521 1798.18,369.636 1798.7,302.495 1799.22,302.629 1799.74,496.316 1800.26,496.507 1800.78,434.57 1801.31,434.681 1801.83,312.464 1802.35,312.552 1802.87,431.124 1803.39,431.174 1803.91,428.21 1804.44,428.249 1804.96,348.757 1805.48,348.858 1806,504.328 1806.52,504.457 1807.04,265.09 1807.57,265.19 1808.09,418.821 1808.61,418.939 1809.13,303.75 1809.65,303.903 1810.18,404.938 1810.7,404.981 1811.22,405.837 1811.74,405.994 1812.26,486.472 1812.78,486.596 1813.31,402.631 1813.83,402.743 1814.35,330.294 1814.87,330.379 1815.39,384.182 1815.91,384.285 1816.44,467.792 1816.96,467.847 1817.48,433.117 1818,433.161 1818.52,354.445 1819.04,354.743 1819.57,360.763 1820.09,360.879 1820.61,415.658 1821.13,415.764 1821.65,378.669 1822.17,378.781 1822.7,339.942 1823.22,340.011 1823.74,317.088 1824.26,317.18 1824.78,316.078 1825.3,316.351 1825.83,216.885 1826.35,217.034 1826.87,396.798 1827.39,396.927 1827.91,370.531 1828.43,370.678 1828.96,407.718 1829.48,407.92 1830,359.49 1830.52,359.63 1831.04,426.426 1831.57,426.6 1832.09,353.789 1832.61,353.91 1833.13,340.658 1833.65,340.869 1834.17,475.65 1834.7,475.694 1835.22,221.639 1835.74,221.873 1836.26,369.03 1836.78,369.153 1837.3,266.133 1837.83,266.234 1838.35,317.628 1838.87,317.782 1839.39,374.261 1839.91,374.329 1840.43,392.745 1840.96,392.82 1841.48,503.045 1842,503.12 1842.52,407.486 1843.04,407.68 1843.56,394.311 1844.09,394.457 1844.61,334.813 1845.13,334.919 1845.65,393.75 1846.17,393.874 1846.69,457.075 1847.22,457.234 1847.74,476.55 1848.26,476.664 1848.78,317.995 1849.3,318.227 1849.83,426.691 1850.35,426.764 1850.87,293.538 1851.39,293.654 1851.91,361.308 1852.43,361.386 1852.96,371.163 1853.48,371.292 1854,460.507 1854.52,460.565 1855.04,406.477 1855.56,406.535 1856.09,455.023 1856.61,455.155 1857.13,379.236 1857.65,379.358 1858.17,362.778 1858.69,362.966 1859.22,428.885 1859.74,428.998 1860.26,445.168 1860.78,445.268 1861.3,425.164 1861.82,425.317 1862.35,335.177 1862.87,335.304 1863.39,460.832 1863.91,460.969 1864.43,384.97 1864.95,385.071 1865.48,371.544 1866,371.711 1866.52,283.704 1867.04,283.799 1867.56,252.251 1868.09,252.441 1868.61,489.237 1869.13,489.345 1869.65,442.733 1870.17,442.857 1870.69,308.432 1871.22,308.771 1871.74,302.577 1872.26,302.711 1872.78,209.714 1873.3,209.869 1873.82,346.829 1874.35,346.906 1874.87,347.666 1875.39,347.811 1875.91,393.765 1876.43,393.899 1876.95,389.235 1877.48,389.356 1878,435.745 1878.52,435.868 1879.04,361.643 1879.56,361.713 1880.08,334.752 1880.61,334.874 1881.13,354.205 1881.65,354.348 1882.17,467.49 1882.69,467.539 1883.21,345.051 1883.74,345.149 1884.26,366.006 1884.78,366.16 1885.3,271.385 1885.82,271.496 1886.35,346.234 1886.87,346.405 1887.39,317.084 1887.91,317.402 1888.43,395.188 1888.95,395.315 1889.48,388.218 1890,388.306 1890.52,494.047 1891.04,494.294 1891.56,327.657 1892.08,327.697 1892.61,395.287 1893.13,395.429 1893.65,302.383 1894.17,302.618 1894.69,499.726 1895.21,499.821 1895.74,341.547 1896.26,341.626 1896.78,449.401 1897.3,449.457 1897.82,390.644 1898.34,390.984 1898.87,437.424 1899.39,437.518 1899.91,281.011 1900.43,281.17 1900.95,340.85 1901.47,340.909 1902,374.926 1902.52,375.059 1903.04,388.328 1903.56,388.412 1904.08,437.077 1904.6,437.156 1905.13,462.961 1905.65,463.076 1906.17,381.596 1906.69,381.653 1907.21,343.796 1907.74,343.945 1908.26,342.007 1908.78,342.202 1909.3,240.423 1909.82,240.768 1910.34,393.998 1910.87,394.055 1911.39,438.844 1911.91,438.985 1912.43,391.291 1912.95,391.363 1913.47,465.698 1914,465.818 1914.52,224.653 1915.04,224.913 1915.56,240.703 1916.08,240.891 1916.6,356.938 1917.13,357.067 1917.65,411.907 1918.17,411.989 1918.69,342.424 1919.21,342.57 1919.73,477.314 1920.26,477.426 1920.78,457.842 1921.3,457.939 1921.82,458.675 1922.34,458.728 1922.86,444.671 1923.39,444.864 1923.91,450.438 1924.43,450.546 1924.95,309.136 1925.47,309.223 1926,344.348 1926.52,344.444 1927.04,332.728 1927.56,332.897 1928.08,354.904 1928.6,355.038 1929.13,414.922 1929.65,414.979 1930.17,425.142 1930.69,425.206 1931.21,467.779 1931.73,467.83 1932.26,302.14 1932.78,302.261 1933.3,348.919 1933.82,349.004 1934.34,346.545 1934.86,346.689 1935.39,336.657 1935.91,336.764 1936.43,296.729 1936.95,296.869 1937.47,417.185 1937.99,417.246 1938.52,426.64 1939.04,426.715 1939.56,370.251 1940.08,370.36 1940.6,403.984 1941.12,404.152 1941.65,387.335 1942.17,387.477 1942.69,478.015 1943.21,478.201 1943.73,270.033 1944.26,270.114 1944.78,432.85 1945.3,432.967 1945.82,426.685 1946.34,426.798 1946.86,303.624 1947.39,303.749 1947.91,442.986 1948.43,443.192 1948.95,392.586 1949.47,392.694 1949.99,405.793 1950.52,405.919 1951.04,279.219 1951.56,279.383 1952.08,371.686 1952.6,371.782 1953.12,404.487 1953.65,404.695 1954.17,404.748 1954.69,404.864 1955.21,517.931 1955.73,518.072 1956.25,436.97 1956.78,437.038 1957.3,276.562 1957.82,276.662 1958.34,307.645 1958.86,307.996 1959.38,395.73 1959.91,395.904 1960.43,404.626 1960.95,404.786 1961.47,449.344 1961.99,449.5 1962.52,369.712 1963.04,369.915 1963.56,458.969 1964.08,459.09 1964.6,339.785 1965.12,339.97 1965.65,360.358 1966.17,360.482 1966.69,284.898 1967.21,285.107 1967.73,307.356 1968.25,307.459 1968.78,494.974 1969.3,495.185 1969.82,413.988 1970.34,414.275 1970.86,307.445 1971.38,307.541 1971.91,362.891 1972.43,363.116 1972.95,299.552 1973.47,299.905 1973.99,407.92 1974.51,408.018 1975.04,191.947 1975.56,192.068 1976.08,345.763 1976.6,345.876 1977.12,286.17 1977.64,286.411 1978.17,378.548 1978.69,378.817 1979.21,296.475 1979.73,296.608 1980.25,478.991 1980.78,479.179 1981.3,390.925 1981.82,391.105 1982.34,369.683 1982.86,369.998 1983.38,311.911 1983.91,312.025 1984.43,349.974 1984.95,350.075 1985.47,341.896 1985.99,342.16 1986.51,267.162 1987.04,267.291 1987.56,290.977 1988.08,291.126 1988.6,96.5715 1989.12,96.7355 1989.64,360.241 1990.17,360.321 1990.69,342.811 1991.21,342.95 1991.73,398.193 1992.25,398.458 1992.77,428.117 1993.3,428.26 1993.82,391.419 1994.34,391.585 1994.86,368.979 1995.38,369.166 1995.9,407.242 1996.43,407.323 1996.95,373.995 1997.47,374.092 1997.99,213.147 1998.51,213.272 1999.03,467.606 1999.56,467.699 2000.08,295.963 2000.6,296.074 2001.12,205.919 2001.64,206.102 2002.17,293.042 2002.69,293.115 2003.21,358.616 2003.73,358.737 2004.25,513.021 2004.77,513.13 2005.3,409.87 2005.82,410.002 2006.34,397.423 2006.86,397.524 2007.38,287.579 2007.9,287.678 2008.43,423.332 2008.95,423.412 2009.47,341.94 2009.99,342 2010.51,286.469 2011.03,286.592 2011.56,247.317 2012.08,247.499 2012.6,351.95 2013.12,352.039 2013.64,355.199 2014.16,355.489 2014.69,346.207 2015.21,346.343 2015.73,297.431 2016.25,297.534 2016.77,372.579 2017.29,372.766 2017.82,403.139 2018.34,403.255 2018.86,416.531 2019.38,416.694 2019.9,379.49 2020.43,379.651 2020.95,408.312 2021.47,408.386 2021.99,307.857 2022.51,307.996 2023.03,374.884 2023.56,375.011 2024.08,318.296 2024.6,318.4 2025.12,397.858 2025.64,397.96 2026.16,367.899 2026.69,368.238 2027.21,344.141 2027.73,344.352 2028.25,321.786 2028.77,321.919 2029.29,421.036 2029.82,421.257 2030.34,447.776 2030.86,447.952 2031.38,192.976 2031.9,193.35 2032.42,411.541 2032.95,411.709 2033.47,417.341 2033.99,417.476 2034.51,354.025 2035.03,354.223 2035.55,273.497 2036.08,273.613 2036.6,393.453 2037.12,393.532 2037.64,367.931 2038.16,368.051 2038.69,391.79 2039.21,391.833 2039.73,399.001 2040.25,399.061 2040.77,417.065 2041.29,417.154 2041.82,372.386 2042.34,372.512 2042.86,362.123 2043.38,362.229 2043.9,456.005 2044.42,456.295 2044.95,407.565 2045.47,407.65 2045.99,469.712 2046.51,469.831 2047.03,391.226 2047.55,391.311 2048.08,333.907 2048.6,334.097 2049.12,379.238 2049.64,379.385 2050.16,311.867 2050.68,311.968 2051.21,387.41 2051.73,387.54 2052.25,402.407 2052.77,402.536 2053.29,378.498 2053.81,378.633 2054.34,328.79 2054.86,328.939 2055.38,392.316 2055.9,392.39 2056.42,445.178 2056.95,445.324 2057.47,330.997 2057.99,331.109 2058.51,364.118 2059.03,364.388 2059.55,413.628 2060.08,413.712 2060.6,320.108 2061.12,320.275 2061.64,248.76 2062.16,248.864 2062.68,340.071 2063.21,340.158 2063.73,363.354 2064.25,363.431 2064.77,466.724 2065.29,466.851 2065.81,346.308 2066.34,346.45 2066.86,452.61 2067.38,452.665 2067.9,398.219 2068.42,398.314 2068.94,295.507 2069.47,295.667 2069.99,318.743 2070.51,318.912 2071.03,399.164 2071.55,399.244 2072.07,403.478 2072.6,403.599 2073.12,307.784 2073.64,307.851 2074.16,217.476 2074.68,217.608 2075.2,408.954 2075.73,409.01 2076.25,313.59 2076.77,313.723 2077.29,385.451 2077.81,385.538 2078.34,406.367 2078.86,406.469 2079.38,333.342 2079.9,333.42 2080.42,272.79 2080.94,272.884 2081.47,372.82 2081.99,372.895 2082.51,404.565 2083.03,404.805 2083.55,380.07 2084.07,380.179 2084.6,329.91 2085.12,330.067 2085.64,318.324 2086.16,318.454 2086.68,265.082 2087.2,265.366 2087.73,393.729 2088.25,393.788 2088.77,357.234 2089.29,357.297 2089.81,341.121 2090.33,341.278 2090.86,401.059 2091.38,401.147 2091.9,417.888 2092.42,417.973 2092.94,411.765 2093.46,411.969 2093.99,275.801 2094.51,275.949 2095.03,383.34 2095.55,383.556 2096.07,474.051 2096.6,474.137 2097.12,308.114 2097.64,308.212 2098.16,402.505 2098.68,402.642 2099.2,300.643 2099.73,300.786 2100.25,186.141 2100.77,186.265 2101.29,240.979 2101.81,241.101 2102.33,280.626 2102.86,280.744 2103.38,400.664 2103.9,400.731 2104.42,445.628 2104.94,445.8 2105.46,437.223 2105.99,437.303 2106.51,262.508 2107.03,262.637 2107.55,377.607 2108.07,377.633 2108.59,363.051 2109.12,363.235 2109.64,325.241 2110.16,325.357 2110.68,443.146 2111.2,443.232 2111.72,349.418 2112.25,349.592 2112.77,265.087 2113.29,265.352 2113.81,356.375 2114.33,356.514 2114.86,382.57 2115.38,382.692 2115.9,335.669 2116.42,335.885 2116.94,335.269 2117.46,335.405 2117.99,460.025 2118.51,460.108 2119.03,449.878 2119.55,449.948 2120.07,381.685 2120.59,381.761 2121.12,329.322 2121.64,329.55 2122.16,239.366 2122.68,239.554 2123.2,279.145 2123.72,279.247 2124.25,229.463 2124.77,229.676 2125.29,358.062 2125.81,358.2 2126.33,371.18 2126.85,371.271 2127.38,379.311 2127.9,379.47 2128.42,518.457 2128.94,518.506 2129.46,465.668 2129.98,465.896 2130.51,268.767 2131.03,268.99 2131.55,337.698 2132.07,338.044 2132.59,353.766 2133.12,353.896 2133.64,215.614 2134.16,215.798 2134.68,338.543 2135.2,338.65 2135.72,341.418 2136.25,341.553 2136.77,439.799 2137.29,440.081 2137.81,168.297 2138.33,168.461 2138.85,427.031 2139.38,427.188 2139.9,323.82 2140.42,323.914 2140.94,293.7 2141.46,293.767 2141.98,466.584 2142.51,466.729 2143.03,451.77 2143.55,451.935 2144.07,420.752 2144.59,421.069 2145.11,424.787 2145.64,424.977 2146.16,410.094 2146.68,410.397 2147.2,382.893 2147.72,382.949 2148.24,418.133 2148.77,418.401 2149.29,408.121 2149.81,408.302 2150.33,312.057 2150.85,312.225 2151.37,374.664 2151.9,374.873 2152.42,361.433 2152.94,361.505 2153.46,378.903 2153.98,379.055 2154.51,332.461 2155.03,332.669 2155.55,231.126 2156.07,231.269 2156.59,168.537 2157.11,168.734 2157.64,392.72 2158.16,392.87 2158.68,269.583 2159.2,269.746 2159.72,494.47 2160.24,494.624 2160.77,284.28 2161.29,284.563 2161.81,379.748 2162.33,379.96 2162.85,304.684 2163.37,304.801 2163.9,361.381 2164.42,361.534 2164.94,384.909 2165.46,385.036 2165.98,332.513 2166.5,332.648 2167.03,362.051 2167.55,362.141 2168.07,250.12 2168.59,250.294 2169.11,419.886 2169.63,420.047 2170.16,346.974 2170.68,347.045 2171.2,374.363 2171.72,374.505 2172.24,289.47 2172.77,289.72 2173.29,437.956 2173.81,438.077 2174.33,309.191 2174.85,309.278 2175.37,404.763 2175.9,404.886 2176.42,312.232 2176.94,312.322 2177.46,326.497 2177.98,326.654 2178.5,373.316 2179.03,373.46 2179.55,316.027 2180.07,316.143 2180.59,275.086 2181.11,275.318 2181.63,486.911 2182.16,487.041 2182.68,229.2 2183.2,229.427 2183.72,334.381 2184.24,334.487 2184.76,349.423 2185.29,349.614 2185.81,473.716 2186.33,473.846 2186.85,327.153 2187.37,327.294 2187.89,429.071 2188.42,429.099 2188.94,384.067 2189.46,384.149 2189.98,348.742 2190.5,348.922 2191.03,301.283 2191.55,301.665 2192.07,192.143 2192.59,192.34 2193.11,288.163 2193.63,288.33 2194.16,284.287 2194.68,284.565 2195.2,150.359 2195.72,150.608 2196.24,374.89 2196.76,375.004 2197.29,254.844 2197.81,255.097 2198.33,302.627 2198.85,302.72 2199.37,300.863 2199.89,300.913 2200.42,417.092 2200.94,417.263 2201.46,240.378 2201.98,240.602 2202.5,369.896 2203.02,370.186 2203.55,395.757 2204.07,395.874 2204.59,334.289 2205.11,334.371 2205.63,391.031 2206.15,391.087 2206.68,434.98 2207.2,435.074 2207.72,395.44 2208.24,395.568 2208.76,414.25 2209.29,414.573 2209.81,308.465 2210.33,308.616 2210.85,381.784 2211.37,381.848 2211.89,393.669 2212.42,393.9 2212.94,334.024 2213.46,334.224 2213.98,383.202 2214.5,383.356 2215.02,445.181 2215.55,445.305 2216.07,443.191 2216.59,443.246 2217.11,413.391 2217.63,413.576 2218.15,398.261 2218.68,398.396 2219.2,361.263 2219.72,361.421 2220.24,274.559 2220.76,274.771 2221.28,236.511 2221.81,236.773 2222.33,364.64 2222.85,364.795 2223.37,234.028 2223.89,234.253 2224.41,363.96 2224.94,364.065 2225.46,445.801 2225.98,445.898 2226.5,337.481 2227.02,337.644 2227.54,285.376 2228.07,285.473 2228.59,437.815 2229.11,437.967 2229.63,315.73 2230.15,315.907 2230.68,333.237 2231.2,333.311 2231.72,307.443 2232.24,307.525 2232.76,225.962 2233.28,226.178 2233.81,169.233 2234.33,169.475 2234.85,363.599 2235.37,363.646 2235.89,340.89 2236.41,341.055 2236.94,269.657 2237.46,269.807 2237.98,449.909 2238.5,450.076 2239.02,461.086 2239.54,461.169 2240.07,377.245 2240.59,377.507 2241.11,369.149 2241.63,369.238 2242.15,243.054 2242.67,243.179 2243.2,306.863 2243.72,307.087 2244.24,418.075 2244.76,418.126 2245.28,354.79 2245.8,354.962 2246.33,382.524 2246.85,382.734 2247.37,405.669 2247.89,405.875 2248.41,331.619 2248.94,331.72 2249.46,286.639 2249.98,286.73 2250.5,412.864 2251.02,412.965 2251.54,279.12 2252.07,279.252 2252.59,468.066 2253.11,468.124 2253.63,455.335 2254.15,455.455 2254.67,359.237 2255.2,359.389 2255.72,251.363 2256.24,251.534 2256.76,358.985 2257.28,359.166 2257.8,378.293 2258.33,378.428 2258.85,328.237 2259.37,328.536 2259.89,317.271 2260.41,317.337 2260.93,367.424 2261.46,367.59 2261.98,316.779 2262.5,316.906 2263.02,404.073 2263.54,404.296 2264.06,345.646 2264.59,345.809 2265.11,442.373 2265.63,442.444 2266.15,344.68 2266.67,344.93 2267.2,423.076 2267.72,423.205 2268.24,364.411 2268.76,364.577 2269.28,322.652 2269.8,322.775 2270.33,233.404 2270.85,233.541 2271.37,413.905 2271.89,413.997 2272.41,241.488 2272.93,241.601 2273.46,286.826 2273.98,286.897 2274.5,371.997 2275.02,372.177 2275.54,439.452 2276.06,439.609 2276.59,491.142 2277.11,491.201 2277.63,212.168 2278.15,212.262 2278.67,334.396 2279.19,334.579 2279.72,280.097 2280.24,280.34 2280.76,396.227 2281.28,396.321 2281.8,303.118 2282.32,303.313 2282.85,408.355 2283.37,408.436 2283.89,364.225 2284.41,364.429 2284.93,351.171 2285.46,351.277 2285.98,454.635 2286.5,454.828 2287.02,450.577 2287.54,450.786 2288.06,137.984 2288.59,138.323 2289.11,346.131 2289.63,346.262 2290.15,346.391 "/>
<path clip-path="url(#clip310)" d="M2005.38 1438.47 L2279.02 1438.47 L2279.02 1334.79 L2005.38 1334.79  Z" fill="#ffffff" fill-rule="evenodd" fill-opacity="1"/>
<polyline clip-path="url(#clip310)" style="stroke:#000000; stroke-linecap:round; stroke-linejoin:round; stroke-width:4; stroke-opacity:1; fill:none" points="2005.38,1438.47 2279.02,1438.47 2279.02,1334.79 2005.38,1334.79 2005.38,1438.47 "/>
<polyline clip-path="url(#clip310)" style="stroke:#009af9; stroke-linecap:round; stroke-linejoin:round; stroke-width:4; stroke-opacity:1; fill:none" points="2029.96,1386.63 2177.43,1386.63 "/>
<path clip-path="url(#clip310)" d="M2215.85 1406.32 Q2214.05 1410.95 2212.34 1412.36 Q2210.62 1413.78 2207.75 1413.78 L2204.35 1413.78 L2204.35 1410.21 L2206.85 1410.21 Q2208.61 1410.21 2209.58 1409.38 Q2210.55 1408.54 2211.73 1405.44 L2212.5 1403.5 L2202.01 1377.99 L2206.53 1377.99 L2214.63 1398.27 L2222.73 1377.99 L2227.24 1377.99 L2215.85 1406.32 Z" fill="#000000" fill-rule="nonzero" fill-opacity="1" /><path clip-path="url(#clip310)" d="M2234.53 1399.98 L2242.17 1399.98 L2242.17 1373.61 L2233.86 1375.28 L2233.86 1371.02 L2242.13 1369.35 L2246.8 1369.35 L2246.8 1399.98 L2254.44 1399.98 L2254.44 1403.91 L2234.53 1403.91 L2234.53 1399.98 Z" fill="#000000" fill-rule="nonzero" fill-opacity="1" /></svg>
