<?xml version="1.0" encoding="utf-8"?>
<svg xmlns="http://www.w3.org/2000/svg" xmlns:xlink="http://www.w3.org/1999/xlink" width="600" height="400" viewBox="0 0 2400 1600">
<defs>
  <clipPath id="clip550">
    <rect x="0" y="0" width="2400" height="1600"/>
  </clipPath>
</defs>
<path clip-path="url(#clip550)" d="M0 1600 L2400 1600 L2400 0 L0 0  Z" fill="#ffffff" fill-rule="evenodd" fill-opacity="1"/>
<defs>
  <clipPath id="clip551">
    <rect x="480" y="0" width="1681" height="1600"/>
  </clipPath>
</defs>
<path clip-path="url(#clip550)" d="M141.853 1486.45 L2352.76 1486.45 L2352.76 47.2441 L141.853 47.2441  Z" fill="#ffffff" fill-rule="evenodd" fill-opacity="1"/>
<defs>
  <clipPath id="clip552">
    <rect x="141" y="47" width="2212" height="1440"/>
  </clipPath>
</defs>
<polyline clip-path="url(#clip552)" style="stroke:#000000; stroke-linecap:round; stroke-linejoin:round; stroke-width:2; stroke-opacity:0.1; fill:none" points="204.426,1486.45 204.426,47.2441 "/>
<polyline clip-path="url(#clip552)" style="stroke:#000000; stroke-linecap:round; stroke-linejoin:round; stroke-width:2; stroke-opacity:0.1; fill:none" points="725.865,1486.45 725.865,47.2441 "/>
<polyline clip-path="url(#clip552)" style="stroke:#000000; stroke-linecap:round; stroke-linejoin:round; stroke-width:2; stroke-opacity:0.1; fill:none" points="1247.3,1486.45 1247.3,47.2441 "/>
<polyline clip-path="url(#clip552)" style="stroke:#000000; stroke-linecap:round; stroke-linejoin:round; stroke-width:2; stroke-opacity:0.1; fill:none" points="1768.74,1486.45 1768.74,47.2441 "/>
<polyline clip-path="url(#clip552)" style="stroke:#000000; stroke-linecap:round; stroke-linejoin:round; stroke-width:2; stroke-opacity:0.1; fill:none" points="2290.18,1486.45 2290.18,47.2441 "/>
<polyline clip-path="url(#clip550)" style="stroke:#000000; stroke-linecap:round; stroke-linejoin:round; stroke-width:4; stroke-opacity:1; fill:none" points="141.853,1486.45 2352.76,1486.45 "/>
<polyline clip-path="url(#clip550)" style="stroke:#000000; stroke-linecap:round; stroke-linejoin:round; stroke-width:4; stroke-opacity:1; fill:none" points="204.426,1486.45 204.426,1467.55 "/>
<polyline clip-path="url(#clip550)" style="stroke:#000000; stroke-linecap:round; stroke-linejoin:round; stroke-width:4; stroke-opacity:1; fill:none" points="725.865,1486.45 725.865,1467.55 "/>
<polyline clip-path="url(#clip550)" style="stroke:#000000; stroke-linecap:round; stroke-linejoin:round; stroke-width:4; stroke-opacity:1; fill:none" points="1247.3,1486.45 1247.3,1467.55 "/>
<polyline clip-path="url(#clip550)" style="stroke:#000000; stroke-linecap:round; stroke-linejoin:round; stroke-width:4; stroke-opacity:1; fill:none" points="1768.74,1486.45 1768.74,1467.55 "/>
<polyline clip-path="url(#clip550)" style="stroke:#000000; stroke-linecap:round; stroke-linejoin:round; stroke-width:4; stroke-opacity:1; fill:none" points="2290.18,1486.45 2290.18,1467.55 "/>
<path clip-path="url(#clip550)" d="M204.426 1517.37 Q200.815 1517.37 198.986 1520.93 Q197.18 1524.47 197.18 1531.6 Q197.18 1538.71 198.986 1542.27 Q200.815 1545.82 204.426 1545.82 Q208.06 1545.82 209.865 1542.27 Q211.694 1538.71 211.694 1531.6 Q211.694 1524.47 209.865 1520.93 Q208.06 1517.37 204.426 1517.37 M204.426 1513.66 Q210.236 1513.66 213.291 1518.27 Q216.37 1522.85 216.37 1531.6 Q216.37 1540.33 213.291 1544.94 Q210.236 1549.52 204.426 1549.52 Q198.616 1549.52 195.537 1544.94 Q192.481 1540.33 192.481 1531.6 Q192.481 1522.85 195.537 1518.27 Q198.616 1513.66 204.426 1513.66 Z" fill="#000000" fill-rule="nonzero" fill-opacity="1" /><path clip-path="url(#clip550)" d="M685.483 1514.29 L703.84 1514.29 L703.84 1518.22 L689.766 1518.22 L689.766 1526.7 Q690.784 1526.35 691.803 1526.19 Q692.821 1526 693.84 1526 Q699.627 1526 703.006 1529.17 Q706.386 1532.34 706.386 1537.76 Q706.386 1543.34 702.914 1546.44 Q699.442 1549.52 693.122 1549.52 Q690.946 1549.52 688.678 1549.15 Q686.432 1548.78 684.025 1548.04 L684.025 1543.34 Q686.108 1544.47 688.331 1545.03 Q690.553 1545.58 693.03 1545.58 Q697.034 1545.58 699.372 1543.48 Q701.71 1541.37 701.71 1537.76 Q701.71 1534.15 699.372 1532.04 Q697.034 1529.94 693.03 1529.94 Q691.155 1529.94 689.28 1530.35 Q687.428 1530.77 685.483 1531.65 L685.483 1514.29 Z" fill="#000000" fill-rule="nonzero" fill-opacity="1" /><path clip-path="url(#clip550)" d="M725.599 1517.37 Q721.988 1517.37 720.159 1520.93 Q718.354 1524.47 718.354 1531.6 Q718.354 1538.71 720.159 1542.27 Q721.988 1545.82 725.599 1545.82 Q729.233 1545.82 731.039 1542.27 Q732.867 1538.71 732.867 1531.6 Q732.867 1524.47 731.039 1520.93 Q729.233 1517.37 725.599 1517.37 M725.599 1513.66 Q731.409 1513.66 734.465 1518.27 Q737.543 1522.85 737.543 1531.6 Q737.543 1540.33 734.465 1544.94 Q731.409 1549.52 725.599 1549.52 Q719.789 1549.52 716.71 1544.94 Q713.654 1540.33 713.654 1531.6 Q713.654 1522.85 716.71 1518.27 Q719.789 1513.66 725.599 1513.66 Z" fill="#000000" fill-rule="nonzero" fill-opacity="1" /><path clip-path="url(#clip550)" d="M755.761 1517.37 Q752.15 1517.37 750.321 1520.93 Q748.515 1524.47 748.515 1531.6 Q748.515 1538.71 750.321 1542.27 Q752.15 1545.82 755.761 1545.82 Q759.395 1545.82 761.201 1542.27 Q763.029 1538.71 763.029 1531.6 Q763.029 1524.47 761.201 1520.93 Q759.395 1517.37 755.761 1517.37 M755.761 1513.66 Q761.571 1513.66 764.626 1518.27 Q767.705 1522.85 767.705 1531.6 Q767.705 1540.33 764.626 1544.94 Q761.571 1549.52 755.761 1549.52 Q749.951 1549.52 746.872 1544.94 Q743.816 1540.33 743.816 1531.6 Q743.816 1522.85 746.872 1518.27 Q749.951 1513.66 755.761 1513.66 Z" fill="#000000" fill-rule="nonzero" fill-opacity="1" /><path clip-path="url(#clip550)" d="M1191.83 1544.91 L1199.47 1544.91 L1199.47 1518.55 L1191.16 1520.21 L1191.16 1515.95 L1199.42 1514.29 L1204.1 1514.29 L1204.1 1544.91 L1211.74 1544.91 L1211.74 1548.85 L1191.83 1548.85 L1191.83 1544.91 Z" fill="#000000" fill-rule="nonzero" fill-opacity="1" /><path clip-path="url(#clip550)" d="M1231.18 1517.37 Q1227.57 1517.37 1225.74 1520.93 Q1223.94 1524.47 1223.94 1531.6 Q1223.94 1538.71 1225.74 1542.27 Q1227.57 1545.82 1231.18 1545.82 Q1234.82 1545.82 1236.62 1542.27 Q1238.45 1538.71 1238.45 1531.6 Q1238.45 1524.47 1236.62 1520.93 Q1234.82 1517.37 1231.18 1517.37 M1231.18 1513.66 Q1236.99 1513.66 1240.05 1518.27 Q1243.13 1522.85 1243.13 1531.6 Q1243.13 1540.33 1240.05 1544.94 Q1236.99 1549.52 1231.18 1549.52 Q1225.37 1549.52 1222.29 1544.94 Q1219.24 1540.33 1219.24 1531.6 Q1219.24 1522.85 1222.29 1518.27 Q1225.37 1513.66 1231.18 1513.66 Z" fill="#000000" fill-rule="nonzero" fill-opacity="1" /><path clip-path="url(#clip550)" d="M1261.34 1517.37 Q1257.73 1517.37 1255.9 1520.93 Q1254.1 1524.47 1254.1 1531.6 Q1254.1 1538.71 1255.9 1542.27 Q1257.73 1545.82 1261.34 1545.82 Q1264.98 1545.82 1266.78 1542.27 Q1268.61 1538.71 1268.61 1531.6 Q1268.61 1524.47 1266.78 1520.93 Q1264.98 1517.37 1261.34 1517.37 M1261.34 1513.66 Q1267.15 1513.66 1270.21 1518.27 Q1273.29 1522.85 1273.29 1531.6 Q1273.29 1540.33 1270.21 1544.94 Q1267.15 1549.52 1261.34 1549.52 Q1255.53 1549.52 1252.45 1544.94 Q1249.4 1540.33 1249.4 1531.6 Q1249.4 1522.85 1252.45 1518.27 Q1255.53 1513.66 1261.34 1513.66 Z" fill="#000000" fill-rule="nonzero" fill-opacity="1" /><path clip-path="url(#clip550)" d="M1291.51 1517.37 Q1287.89 1517.37 1286.07 1520.93 Q1284.26 1524.47 1284.26 1531.6 Q1284.26 1538.71 1286.07 1542.27 Q1287.89 1545.82 1291.51 1545.82 Q1295.14 1545.82 1296.95 1542.27 Q1298.77 1538.71 1298.77 1531.6 Q1298.77 1524.47 1296.95 1520.93 Q1295.14 1517.37 1291.51 1517.37 M1291.51 1513.66 Q1297.32 1513.66 1300.37 1518.27 Q1303.45 1522.85 1303.45 1531.6 Q1303.45 1540.33 1300.37 1544.94 Q1297.32 1549.52 1291.51 1549.52 Q1285.7 1549.52 1282.62 1544.94 Q1279.56 1540.33 1279.56 1531.6 Q1279.56 1522.85 1282.62 1518.27 Q1285.7 1513.66 1291.51 1513.66 Z" fill="#000000" fill-rule="nonzero" fill-opacity="1" /><path clip-path="url(#clip550)" d="M1713.27 1544.91 L1720.91 1544.91 L1720.91 1518.55 L1712.6 1520.21 L1712.6 1515.95 L1720.86 1514.29 L1725.54 1514.29 L1725.54 1544.91 L1733.18 1544.91 L1733.18 1548.85 L1713.27 1548.85 L1713.27 1544.91 Z" fill="#000000" fill-rule="nonzero" fill-opacity="1" /><path clip-path="url(#clip550)" d="M1742.67 1514.29 L1761.02 1514.29 L1761.02 1518.22 L1746.95 1518.22 L1746.95 1526.7 Q1747.97 1526.35 1748.99 1526.19 Q1750.01 1526 1751.02 1526 Q1756.81 1526 1760.19 1529.17 Q1763.57 1532.34 1763.57 1537.76 Q1763.57 1543.34 1760.1 1546.44 Q1756.63 1549.52 1750.31 1549.52 Q1748.13 1549.52 1745.86 1549.15 Q1743.62 1548.78 1741.21 1548.04 L1741.21 1543.34 Q1743.29 1544.47 1745.51 1545.03 Q1747.74 1545.58 1750.21 1545.58 Q1754.22 1545.58 1756.56 1543.48 Q1758.89 1541.37 1758.89 1537.76 Q1758.89 1534.15 1756.56 1532.04 Q1754.22 1529.94 1750.21 1529.94 Q1748.34 1529.94 1746.46 1530.35 Q1744.61 1530.77 1742.67 1531.65 L1742.67 1514.29 Z" fill="#000000" fill-rule="nonzero" fill-opacity="1" /><path clip-path="url(#clip550)" d="M1782.78 1517.37 Q1779.17 1517.37 1777.34 1520.93 Q1775.54 1524.47 1775.54 1531.6 Q1775.54 1538.71 1777.34 1542.27 Q1779.17 1545.82 1782.78 1545.82 Q1786.42 1545.82 1788.22 1542.27 Q1790.05 1538.71 1790.05 1531.6 Q1790.05 1524.47 1788.22 1520.93 Q1786.42 1517.37 1782.78 1517.37 M1782.78 1513.66 Q1788.59 1513.66 1791.65 1518.27 Q1794.73 1522.85 1794.73 1531.6 Q1794.73 1540.33 1791.65 1544.94 Q1788.59 1549.52 1782.78 1549.52 Q1776.97 1549.52 1773.89 1544.94 Q1770.84 1540.33 1770.84 1531.6 Q1770.84 1522.85 1773.89 1518.27 Q1776.97 1513.66 1782.78 1513.66 Z" fill="#000000" fill-rule="nonzero" fill-opacity="1" /><path clip-path="url(#clip550)" d="M1812.94 1517.37 Q1809.33 1517.37 1807.51 1520.93 Q1805.7 1524.47 1805.7 1531.6 Q1805.7 1538.71 1807.51 1542.27 Q1809.33 1545.82 1812.94 1545.82 Q1816.58 1545.82 1818.38 1542.27 Q1820.21 1538.71 1820.21 1531.6 Q1820.21 1524.47 1818.38 1520.93 Q1816.58 1517.37 1812.94 1517.37 M1812.94 1513.66 Q1818.76 1513.66 1821.81 1518.27 Q1824.89 1522.85 1824.89 1531.6 Q1824.89 1540.33 1821.81 1544.94 Q1818.76 1549.52 1812.94 1549.52 Q1807.13 1549.52 1804.06 1544.94 Q1801 1540.33 1801 1531.6 Q1801 1522.85 1804.06 1518.27 Q1807.13 1513.66 1812.94 1513.66 Z" fill="#000000" fill-rule="nonzero" fill-opacity="1" /><path clip-path="url(#clip550)" d="M2238.79 1544.91 L2255.11 1544.91 L2255.11 1548.85 L2233.17 1548.85 L2233.17 1544.91 Q2235.83 1542.16 2240.41 1537.53 Q2245.02 1532.88 2246.2 1531.53 Q2248.45 1529.01 2249.33 1527.27 Q2250.23 1525.51 2250.23 1523.82 Q2250.23 1521.07 2248.29 1519.33 Q2246.36 1517.6 2243.26 1517.6 Q2241.06 1517.6 2238.61 1518.36 Q2236.18 1519.13 2233.4 1520.68 L2233.4 1515.95 Q2236.23 1514.82 2238.68 1514.24 Q2241.13 1513.66 2243.17 1513.66 Q2248.54 1513.66 2251.73 1516.35 Q2254.93 1519.03 2254.93 1523.52 Q2254.93 1525.65 2254.12 1527.57 Q2253.33 1529.47 2251.23 1532.07 Q2250.65 1532.74 2247.54 1535.95 Q2244.44 1539.15 2238.79 1544.91 Z" fill="#000000" fill-rule="nonzero" fill-opacity="1" /><path clip-path="url(#clip550)" d="M2274.93 1517.37 Q2271.32 1517.37 2269.49 1520.93 Q2267.68 1524.47 2267.68 1531.6 Q2267.68 1538.71 2269.49 1542.27 Q2271.32 1545.82 2274.93 1545.82 Q2278.56 1545.82 2280.37 1542.27 Q2282.2 1538.71 2282.2 1531.6 Q2282.2 1524.47 2280.37 1520.93 Q2278.56 1517.37 2274.93 1517.37 M2274.93 1513.66 Q2280.74 1513.66 2283.79 1518.27 Q2286.87 1522.85 2286.87 1531.6 Q2286.87 1540.33 2283.79 1544.94 Q2280.74 1549.52 2274.93 1549.52 Q2269.12 1549.52 2266.04 1544.94 Q2262.98 1540.33 2262.98 1531.6 Q2262.98 1522.85 2266.04 1518.27 Q2269.12 1513.66 2274.93 1513.66 Z" fill="#000000" fill-rule="nonzero" fill-opacity="1" /><path clip-path="url(#clip550)" d="M2305.09 1517.37 Q2301.48 1517.37 2299.65 1520.93 Q2297.85 1524.47 2297.85 1531.6 Q2297.85 1538.71 2299.65 1542.27 Q2301.48 1545.82 2305.09 1545.82 Q2308.72 1545.82 2310.53 1542.27 Q2312.36 1538.71 2312.36 1531.6 Q2312.36 1524.47 2310.53 1520.93 Q2308.72 1517.37 2305.09 1517.37 M2305.09 1513.66 Q2310.9 1513.66 2313.96 1518.27 Q2317.03 1522.85 2317.03 1531.6 Q2317.03 1540.33 2313.96 1544.94 Q2310.9 1549.52 2305.09 1549.52 Q2299.28 1549.52 2296.2 1544.94 Q2293.15 1540.33 2293.15 1531.6 Q2293.15 1522.85 2296.2 1518.27 Q2299.28 1513.66 2305.09 1513.66 Z" fill="#000000" fill-rule="nonzero" fill-opacity="1" /><path clip-path="url(#clip550)" d="M2335.25 1517.37 Q2331.64 1517.37 2329.81 1520.93 Q2328.01 1524.47 2328.01 1531.6 Q2328.01 1538.71 2329.81 1542.27 Q2331.64 1545.82 2335.25 1545.82 Q2338.89 1545.82 2340.69 1542.27 Q2342.52 1538.71 2342.52 1531.6 Q2342.52 1524.47 2340.69 1520.93 Q2338.89 1517.37 2335.25 1517.37 M2335.25 1513.66 Q2341.06 1513.66 2344.12 1518.27 Q2347.2 1522.85 2347.2 1531.6 Q2347.2 1540.33 2344.12 1544.94 Q2341.06 1549.52 2335.25 1549.52 Q2329.44 1549.52 2326.36 1544.94 Q2323.31 1540.33 2323.31 1531.6 Q2323.31 1522.85 2326.36 1518.27 Q2329.44 1513.66 2335.25 1513.66 Z" fill="#000000" fill-rule="nonzero" fill-opacity="1" /><polyline clip-path="url(#clip552)" style="stroke:#000000; stroke-linecap:round; stroke-linejoin:round; stroke-width:2; stroke-opacity:0.1; fill:none" points="141.853,1357.7 2352.76,1357.7 "/>
<polyline clip-path="url(#clip552)" style="stroke:#000000; stroke-linecap:round; stroke-linejoin:round; stroke-width:2; stroke-opacity:0.1; fill:none" points="141.853,1146.74 2352.76,1146.74 "/>
<polyline clip-path="url(#clip552)" style="stroke:#000000; stroke-linecap:round; stroke-linejoin:round; stroke-width:2; stroke-opacity:0.1; fill:none" points="141.853,935.773 2352.76,935.773 "/>
<polyline clip-path="url(#clip552)" style="stroke:#000000; stroke-linecap:round; stroke-linejoin:round; stroke-width:2; stroke-opacity:0.1; fill:none" points="141.853,724.812 2352.76,724.812 "/>
<polyline clip-path="url(#clip552)" style="stroke:#000000; stroke-linecap:round; stroke-linejoin:round; stroke-width:2; stroke-opacity:0.1; fill:none" points="141.853,513.85 2352.76,513.85 "/>
<polyline clip-path="url(#clip552)" style="stroke:#000000; stroke-linecap:round; stroke-linejoin:round; stroke-width:2; stroke-opacity:0.1; fill:none" points="141.853,302.888 2352.76,302.888 "/>
<polyline clip-path="url(#clip552)" style="stroke:#000000; stroke-linecap:round; stroke-linejoin:round; stroke-width:2; stroke-opacity:0.1; fill:none" points="141.853,91.9263 2352.76,91.9263 "/>
<polyline clip-path="url(#clip550)" style="stroke:#000000; stroke-linecap:round; stroke-linejoin:round; stroke-width:4; stroke-opacity:1; fill:none" points="141.853,1486.45 141.853,47.2441 "/>
<polyline clip-path="url(#clip550)" style="stroke:#000000; stroke-linecap:round; stroke-linejoin:round; stroke-width:4; stroke-opacity:1; fill:none" points="141.853,1357.7 160.751,1357.7 "/>
<polyline clip-path="url(#clip550)" style="stroke:#000000; stroke-linecap:round; stroke-linejoin:round; stroke-width:4; stroke-opacity:1; fill:none" points="141.853,1146.74 160.751,1146.74 "/>
<polyline clip-path="url(#clip550)" style="stroke:#000000; stroke-linecap:round; stroke-linejoin:round; stroke-width:4; stroke-opacity:1; fill:none" points="141.853,935.773 160.751,935.773 "/>
<polyline clip-path="url(#clip550)" style="stroke:#000000; stroke-linecap:round; stroke-linejoin:round; stroke-width:4; stroke-opacity:1; fill:none" points="141.853,724.812 160.751,724.812 "/>
<polyline clip-path="url(#clip550)" style="stroke:#000000; stroke-linecap:round; stroke-linejoin:round; stroke-width:4; stroke-opacity:1; fill:none" points="141.853,513.85 160.751,513.85 "/>
<polyline clip-path="url(#clip550)" style="stroke:#000000; stroke-linecap:round; stroke-linejoin:round; stroke-width:4; stroke-opacity:1; fill:none" points="141.853,302.888 160.751,302.888 "/>
<polyline clip-path="url(#clip550)" style="stroke:#000000; stroke-linecap:round; stroke-linejoin:round; stroke-width:4; stroke-opacity:1; fill:none" points="141.853,91.9263 160.751,91.9263 "/>
<path clip-path="url(#clip550)" d="M54.5569 1371.04 L62.1958 1371.04 L62.1958 1344.68 L53.8856 1346.34 L53.8856 1342.08 L62.1495 1340.42 L66.8254 1340.42 L66.8254 1371.04 L74.4642 1371.04 L74.4642 1374.98 L54.5569 1374.98 L54.5569 1371.04 Z" fill="#000000" fill-rule="nonzero" fill-opacity="1" /><path clip-path="url(#clip550)" d="M93.9086 1343.5 Q90.2975 1343.5 88.4688 1347.06 Q86.6632 1350.6 86.6632 1357.73 Q86.6632 1364.84 88.4688 1368.4 Q90.2975 1371.94 93.9086 1371.94 Q97.5428 1371.94 99.3483 1368.4 Q101.177 1364.84 101.177 1357.73 Q101.177 1350.6 99.3483 1347.06 Q97.5428 1343.5 93.9086 1343.5 M93.9086 1339.79 Q99.7187 1339.79 102.774 1344.4 Q105.853 1348.98 105.853 1357.73 Q105.853 1366.46 102.774 1371.06 Q99.7187 1375.65 93.9086 1375.65 Q88.0984 1375.65 85.0197 1371.06 Q81.9642 1366.46 81.9642 1357.73 Q81.9642 1348.98 85.0197 1344.4 Q88.0984 1339.79 93.9086 1339.79 Z" fill="#000000" fill-rule="nonzero" fill-opacity="1" /><path clip-path="url(#clip550)" d="M57.7745 1160.08 L74.0939 1160.08 L74.0939 1164.02 L52.1495 1164.02 L52.1495 1160.08 Q54.8115 1157.33 59.3949 1152.7 Q64.0013 1148.04 65.1819 1146.7 Q67.4272 1144.18 68.3068 1142.44 Q69.2096 1140.68 69.2096 1138.99 Q69.2096 1136.24 67.2652 1134.5 Q65.3439 1132.77 62.2421 1132.77 Q60.043 1132.77 57.5893 1133.53 Q55.1588 1134.29 52.381 1135.84 L52.381 1131.12 Q55.2051 1129.99 57.6588 1129.41 Q60.1124 1128.83 62.1495 1128.83 Q67.5198 1128.83 70.7142 1131.52 Q73.9087 1134.2 73.9087 1138.69 Q73.9087 1140.82 73.0985 1142.74 Q72.3115 1144.64 70.205 1147.23 Q69.6263 1147.9 66.5245 1151.12 Q63.4226 1154.32 57.7745 1160.08 Z" fill="#000000" fill-rule="nonzero" fill-opacity="1" /><path clip-path="url(#clip550)" d="M93.9086 1132.53 Q90.2975 1132.53 88.4688 1136.1 Q86.6632 1139.64 86.6632 1146.77 Q86.6632 1153.88 88.4688 1157.44 Q90.2975 1160.98 93.9086 1160.98 Q97.5428 1160.98 99.3483 1157.44 Q101.177 1153.88 101.177 1146.77 Q101.177 1139.64 99.3483 1136.1 Q97.5428 1132.53 93.9086 1132.53 M93.9086 1128.83 Q99.7187 1128.83 102.774 1133.44 Q105.853 1138.02 105.853 1146.77 Q105.853 1155.5 102.774 1160.1 Q99.7187 1164.69 93.9086 1164.69 Q88.0984 1164.69 85.0197 1160.1 Q81.9642 1155.5 81.9642 1146.77 Q81.9642 1138.02 85.0197 1133.44 Q88.0984 1128.83 93.9086 1128.83 Z" fill="#000000" fill-rule="nonzero" fill-opacity="1" /><path clip-path="url(#clip550)" d="M67.9133 934.419 Q71.2698 935.137 73.1448 937.405 Q75.0429 939.674 75.0429 943.007 Q75.0429 948.123 71.5244 950.924 Q68.0059 953.725 61.5245 953.725 Q59.3486 953.725 57.0338 953.285 Q54.7421 952.868 52.2884 952.012 L52.2884 947.498 Q54.2328 948.632 56.5477 949.211 Q58.8625 949.79 61.3856 949.79 Q65.7837 949.79 68.0754 948.053 Q70.3902 946.317 70.3902 943.007 Q70.3902 939.952 68.2374 938.239 Q66.1078 936.503 62.2884 936.503 L58.2606 936.503 L58.2606 932.66 L62.4735 932.66 Q65.9226 932.66 67.7513 931.294 Q69.58 929.905 69.58 927.313 Q69.58 924.651 67.6819 923.239 Q65.8069 921.804 62.2884 921.804 Q60.3671 921.804 58.168 922.22 Q55.969 922.637 53.3301 923.517 L53.3301 919.35 Q55.9921 918.609 58.3069 918.239 Q60.6449 917.868 62.705 917.868 Q68.0291 917.868 71.1309 920.299 Q74.2327 922.706 74.2327 926.827 Q74.2327 929.697 72.5892 931.688 Q70.9457 933.655 67.9133 934.419 Z" fill="#000000" fill-rule="nonzero" fill-opacity="1" /><path clip-path="url(#clip550)" d="M93.9086 921.572 Q90.2975 921.572 88.4688 925.137 Q86.6632 928.679 86.6632 935.808 Q86.6632 942.915 88.4688 946.479 Q90.2975 950.021 93.9086 950.021 Q97.5428 950.021 99.3483 946.479 Q101.177 942.915 101.177 935.808 Q101.177 928.679 99.3483 925.137 Q97.5428 921.572 93.9086 921.572 M93.9086 917.868 Q99.7187 917.868 102.774 922.475 Q105.853 927.058 105.853 935.808 Q105.853 944.535 102.774 949.141 Q99.7187 953.725 93.9086 953.725 Q88.0984 953.725 85.0197 949.141 Q81.9642 944.535 81.9642 935.808 Q81.9642 927.058 85.0197 922.475 Q88.0984 917.868 93.9086 917.868 Z" fill="#000000" fill-rule="nonzero" fill-opacity="1" /><path clip-path="url(#clip550)" d="M66.5939 711.606 L54.7884 730.055 L66.5939 730.055 L66.5939 711.606 M65.367 707.532 L71.2466 707.532 L71.2466 730.055 L76.1772 730.055 L76.1772 733.944 L71.2466 733.944 L71.2466 742.092 L66.5939 742.092 L66.5939 733.944 L50.9921 733.944 L50.9921 729.43 L65.367 707.532 Z" fill="#000000" fill-rule="nonzero" fill-opacity="1" /><path clip-path="url(#clip550)" d="M93.9086 710.61 Q90.2975 710.61 88.4688 714.175 Q86.6632 717.717 86.6632 724.846 Q86.6632 731.953 88.4688 735.518 Q90.2975 739.059 93.9086 739.059 Q97.5428 739.059 99.3483 735.518 Q101.177 731.953 101.177 724.846 Q101.177 717.717 99.3483 714.175 Q97.5428 710.61 93.9086 710.61 M93.9086 706.907 Q99.7187 706.907 102.774 711.513 Q105.853 716.096 105.853 724.846 Q105.853 733.573 102.774 738.18 Q99.7187 742.763 93.9086 742.763 Q88.0984 742.763 85.0197 738.18 Q81.9642 733.573 81.9642 724.846 Q81.9642 716.096 85.0197 711.513 Q88.0984 706.907 93.9086 706.907 Z" fill="#000000" fill-rule="nonzero" fill-opacity="1" /><path clip-path="url(#clip550)" d="M53.793 496.57 L72.1494 496.57 L72.1494 500.505 L58.0754 500.505 L58.0754 508.977 Q59.0939 508.63 60.1124 508.468 Q61.131 508.283 62.1495 508.283 Q67.9365 508.283 71.3161 511.454 Q74.6957 514.625 74.6957 520.042 Q74.6957 525.621 71.2235 528.722 Q67.7513 531.801 61.4319 531.801 Q59.256 531.801 56.9875 531.431 Q54.7421 531.06 52.3347 530.32 L52.3347 525.621 Q54.418 526.755 56.6402 527.31 Q58.8625 527.866 61.3393 527.866 Q65.3439 527.866 67.6819 525.759 Q70.0198 523.653 70.0198 520.042 Q70.0198 516.431 67.6819 514.324 Q65.3439 512.218 61.3393 512.218 Q59.4643 512.218 57.5893 512.635 Q55.7375 513.051 53.793 513.931 L53.793 496.57 Z" fill="#000000" fill-rule="nonzero" fill-opacity="1" /><path clip-path="url(#clip550)" d="M93.9086 499.649 Q90.2975 499.649 88.4688 503.213 Q86.6632 506.755 86.6632 513.885 Q86.6632 520.991 88.4688 524.556 Q90.2975 528.097 93.9086 528.097 Q97.5428 528.097 99.3483 524.556 Q101.177 520.991 101.177 513.885 Q101.177 506.755 99.3483 503.213 Q97.5428 499.649 93.9086 499.649 M93.9086 495.945 Q99.7187 495.945 102.774 500.551 Q105.853 505.135 105.853 513.885 Q105.853 522.611 102.774 527.218 Q99.7187 531.801 93.9086 531.801 Q88.0984 531.801 85.0197 527.218 Q81.9642 522.611 81.9642 513.885 Q81.9642 505.135 85.0197 500.551 Q88.0984 495.945 93.9086 495.945 Z" fill="#000000" fill-rule="nonzero" fill-opacity="1" /><path clip-path="url(#clip550)" d="M64.3254 301.025 Q61.1773 301.025 59.3254 303.177 Q57.4967 305.33 57.4967 309.08 Q57.4967 312.807 59.3254 314.983 Q61.1773 317.136 64.3254 317.136 Q67.4735 317.136 69.3022 314.983 Q71.1541 312.807 71.1541 309.08 Q71.1541 305.33 69.3022 303.177 Q67.4735 301.025 64.3254 301.025 M73.6077 286.372 L73.6077 290.631 Q71.8485 289.798 70.0429 289.358 Q68.2606 288.918 66.5013 288.918 Q61.8717 288.918 59.418 292.043 Q56.9875 295.168 56.6402 301.488 Q58.006 299.474 60.0662 298.409 Q62.1263 297.321 64.6032 297.321 Q69.8115 297.321 72.8207 300.492 Q75.8531 303.64 75.8531 309.08 Q75.8531 314.404 72.705 317.622 Q69.5568 320.839 64.3254 320.839 Q58.33 320.839 55.1588 316.256 Q51.9875 311.65 51.9875 302.923 Q51.9875 294.728 55.8764 289.867 Q59.7652 284.983 66.3161 284.983 Q68.0754 284.983 69.8578 285.33 Q71.6633 285.677 73.6077 286.372 Z" fill="#000000" fill-rule="nonzero" fill-opacity="1" /><path clip-path="url(#clip550)" d="M93.9086 288.687 Q90.2975 288.687 88.4688 292.252 Q86.6632 295.793 86.6632 302.923 Q86.6632 310.029 88.4688 313.594 Q90.2975 317.136 93.9086 317.136 Q97.5428 317.136 99.3483 313.594 Q101.177 310.029 101.177 302.923 Q101.177 295.793 99.3483 292.252 Q97.5428 288.687 93.9086 288.687 M93.9086 284.983 Q99.7187 284.983 102.774 289.589 Q105.853 294.173 105.853 302.923 Q105.853 311.65 102.774 316.256 Q99.7187 320.839 93.9086 320.839 Q88.0984 320.839 85.0197 316.256 Q81.9642 311.65 81.9642 302.923 Q81.9642 294.173 85.0197 289.589 Q88.0984 284.983 93.9086 284.983 Z" fill="#000000" fill-rule="nonzero" fill-opacity="1" /><path clip-path="url(#clip550)" d="M52.5662 74.6463 L74.7883 74.6463 L74.7883 76.637 L62.2421 109.206 L57.3578 109.206 L69.1633 78.5814 L52.5662 78.5814 L52.5662 74.6463 Z" fill="#000000" fill-rule="nonzero" fill-opacity="1" /><path clip-path="url(#clip550)" d="M93.9086 77.7249 Q90.2975 77.7249 88.4688 81.2897 Q86.6632 84.8314 86.6632 91.961 Q86.6632 99.0674 88.4688 102.632 Q90.2975 106.174 93.9086 106.174 Q97.5428 106.174 99.3483 102.632 Q101.177 99.0674 101.177 91.961 Q101.177 84.8314 99.3483 81.2897 Q97.5428 77.7249 93.9086 77.7249 M93.9086 74.0213 Q99.7187 74.0213 102.774 78.6277 Q105.853 83.211 105.853 91.961 Q105.853 100.688 102.774 105.294 Q99.7187 109.878 93.9086 109.878 Q88.0984 109.878 85.0197 105.294 Q81.9642 100.688 81.9642 91.961 Q81.9642 83.211 85.0197 78.6277 Q88.0984 74.0213 93.9086 74.0213 Z" fill="#000000" fill-rule="nonzero" fill-opacity="1" /><polyline clip-path="url(#clip552)" style="stroke:#009af9; stroke-linecap:round; stroke-linejoin:round; stroke-width:4; stroke-opacity:1; fill:none" points="204.426,1435.17 205.469,1436.17 206.511,1415.42 207.554,1416.6 208.597,1444.97 209.64,1445.72 210.683,1426.8 211.726,1427.69 212.769,1403.73 213.812,1404.94 214.854,1398.97 215.897,1400.01 216.94,1365.47 217.983,1367.2 219.026,1370.71 220.069,1372.08 221.112,1371.23 222.155,1372.43 223.197,1343.05 224.24,1344.2 225.283,1369.74 226.326,1370.84 227.369,1348.55 228.412,1349.79 229.455,1274.45 230.498,1276.72 231.541,1365.79 232.583,1366.82 233.626,1329.65 234.669,1331.43 235.712,1316.58 236.755,1317.97 237.798,1272.22 238.841,1273.82 239.884,1319.42 240.926,1320.72 241.969,1324.17 243.012,1325.3 244.055,1286.05 245.098,1287.63 246.141,1247.77 247.184,1250.64 248.227,1287.47 249.269,1288.35 250.312,1263.83 251.355,1265.46 252.398,1236.83 253.441,1238.58 254.484,1276.75 255.527,1277.79 256.57,1225 257.612,1226.52 258.655,1191.04 259.698,1193.37 260.741,1299.12 261.784,1300.02 262.827,1240.39 263.87,1241.28 264.913,1242.39 265.956,1243.17 266.998,1145.75 268.041,1147.14 269.084,1208.92 270.127,1209.62 271.17,1214.59 272.213,1215.34 273.256,1173.59 274.299,1174.5 275.341,1153.95 276.384,1155.02 277.427,1159.07 278.47,1160.43 279.513,1128.51 280.556,1130.12 281.599,1166 282.642,1167.46 283.684,1176.55 284.727,1177.31 285.77,1148.02 286.813,1149.65 287.856,1117.47 288.899,1119.02 289.942,1133.84 290.985,1134.84 292.027,1068.95 293.07,1069.85 294.113,1123.21 295.156,1124.06 296.199,1094.38 297.242,1095.51 298.285,1108 299.328,1109.25 300.371,1033.91 301.413,1034.9 302.456,1098.7 303.499,1100.06 304.542,1156.83 305.585,1158.09 306.628,1021.43 307.671,1022.68 308.714,1040.13 309.756,1041.16 310.799,967.509 311.842,970.077 312.885,995.656 313.928,997.313 314.971,1036.31 316.014,1037.28 317.057,971.35 318.099,972.389 319.142,1077.49 320.185,1078.08 321.228,1002.17 322.271,1003.75 323.314,984.758 324.357,986.21 325.4,994.33 326.442,995.754 327.485,1011.43 328.528,1012.06 329.571,992.253 330.614,993.075 331.657,917.597 332.7,918.809 333.743,832.435 334.786,833.723 335.828,1060.81 336.871,1061.52 337.914,913.343 338.957,915.401 340,880.223 341.043,881.329 342.086,963.49 343.129,964.594 344.171,929.981 345.214,932.259 346.257,834.058 347.3,835.932 348.343,857.413 349.386,858.619 350.429,851.25 351.472,852.873 352.514,858.421 353.557,861.133 354.6,930.32 355.643,931.719 356.686,912.01 357.729,916.003 358.772,864.952 359.815,868.041 360.857,897.782 361.9,899.815 362.943,838.452 363.986,839.63 365.029,949.094 366.072,950.002 367.115,847.757 368.158,848.434 369.201,834.696 370.243,837.771 371.286,812.523 372.329,814.234 373.372,797.081 374.415,799.906 375.458,800.75 376.501,802.3 377.544,782.224 378.586,784.277 379.629,773.491 380.672,774.759 381.715,813.475 382.758,815.855 383.801,805.32 384.844,808.878 385.887,922.243 386.929,923.298 387.972,826.406 389.015,827.894 390.058,749.549 391.101,751.568 392.144,785.853 393.187,787.358 394.23,844.774 395.272,845.703 396.315,851.22 397.358,853.154 398.401,662.829 399.444,667.16 400.487,843.478 401.53,844.953 402.573,748.824 403.616,749.972 404.658,720.561 405.701,723.263 406.744,722.87 407.787,725.86 408.83,746.042 409.873,747.369 410.916,604.764 411.959,608.515 413.001,631.024 414.044,632.958 415.087,652.036 416.13,655.922 417.173,673.247 418.216,676.409 419.259,608.34 420.302,610.423 421.344,708.145 422.387,709.333 423.43,630.274 424.473,632.966 425.516,722.515 426.559,724.693 427.602,779.808 428.645,782.319 429.687,805.597 430.73,807.827 431.773,643.502 432.816,648.262 433.859,661.376 434.902,662.673 435.945,740.528 436.988,742.282 438.031,666.889 439.073,670.873 440.116,748.916 441.159,752.28 442.202,647.393 443.245,649.063 444.288,668.387 445.331,670.427 446.374,637.507 447.416,639.795 448.459,655.706 449.502,657.517 450.545,436.877 451.588,440.176 452.631,708.863 453.674,709.885 454.717,674.348 455.759,677.356 456.802,597.52 457.845,599.084 458.888,670.236 459.931,671.599 460.974,691.62 462.017,693.987 463.06,660.833 464.102,662.284 465.145,597.922 466.188,600.695 467.231,688.928 468.274,691.279 469.317,508.077 470.36,510.32 471.403,572.84 472.446,574.227 473.488,580.169 474.531,582.187 475.574,651.755 476.617,652.728 477.66,631.101 478.703,634.055 479.746,644.502 480.789,645.596 481.831,736.298 482.874,738.606 483.917,492.068 484.96,494.233 486.003,597.081 487.046,599.171 488.089,576.148 489.132,580.386 490.174,517.077 491.217,518.582 492.26,661.422 493.303,663.617 494.346,568.042 495.389,569.861 496.432,604.984 497.475,608.483 498.517,461.118 499.56,463.583 500.603,509.743 501.646,512.13 502.689,533.98 503.732,535.948 504.775,534.008 505.818,536.239 506.861,590.498 507.903,593.564 508.946,674.737 509.989,676.181 511.032,539.532 512.075,541.15 513.118,680.704 514.161,681.629 515.204,575.281 516.246,576.096 517.289,651.789 518.332,653.976 519.375,516.834 520.418,518.449 521.461,541.512 522.504,545.208 523.547,491.522 524.589,495.006 525.632,435.915 526.675,437.718 527.718,504.828 528.761,509.069 529.804,632.048 530.847,636.147 531.89,531.227 532.932,533.671 533.975,570.63 535.018,571.933 536.061,468.289 537.104,470.172 538.147,624.398 539.19,626.713 540.233,658.915 541.276,660.147 542.318,573.886 543.361,576.477 544.404,460.46 545.447,464.238 546.49,481.481 547.533,487.906 548.576,593.719 549.619,594.866 550.661,448.378 551.704,450.054 552.747,531.243 553.79,534.881 554.833,422.803 555.876,425.69 556.919,474.409 557.962,475.763 559.004,546.043 560.047,547.907 561.09,418.635 562.133,430.611 563.176,474.26 564.219,475.834 565.262,629.208 566.305,631.623 567.347,536.275 568.39,538.842 569.433,527.24 570.476,528.448 571.519,553.295 572.562,555.814 573.605,491.041 574.648,492.799 575.691,365.908 576.733,368.7 577.776,467.018 578.819,470.369 579.862,500.662 580.905,504.607 581.948,581.64 582.991,584.953 584.034,444.96 585.076,447.853 586.119,558.299 587.162,560.242 588.205,709.098 589.248,715.078 590.291,519.448 591.334,522.613 592.377,463.864 593.419,464.958 594.462,571.859 595.505,575.579 596.548,545.929 597.591,548.152 598.634,508.572 599.677,509.816 600.72,447.87 601.762,450.675 602.805,473.188 603.848,475.658 604.891,550.66 605.934,552.225 606.977,600.397 608.02,601.697 609.063,582.151 610.106,583.838 611.148,572.63 612.191,574.598 613.234,465.645 614.277,468.127 615.32,557.767 616.363,561.514 617.406,545.631 618.449,549.077 619.491,522.825 620.534,524.272 621.577,459.936 622.62,464.185 623.663,534.989 624.706,537.107 625.749,448.449 626.792,451.662 627.834,561.333 628.877,563.233 629.92,540.415 630.963,542.988 632.006,579.979 633.049,581.259 634.092,342.28 635.135,347.759 636.177,464.309 637.22,465.393 638.263,515.544 639.306,517.682 640.349,536.634 641.392,539.432 642.435,608.094 643.478,609.232 644.521,569.617 645.563,574.184 646.606,559.88 647.649,562.272 648.692,484.507 649.735,487.546 650.778,477.948 651.821,481.104 652.864,599.613 653.906,601.18 654.949,700.235 655.992,704.018 657.035,704.258 658.078,706.454 659.121,669.981 660.164,674.261 661.207,559.419 662.249,560.927 663.292,430.594 664.335,435.096 665.378,489.24 666.421,490.47 667.464,316.258 668.507,321.468 669.55,502.378 670.592,505.184 671.635,439.483 672.678,441.631 673.721,565.983 674.764,566.91 675.807,577.681 676.85,578.604 677.893,436.478 678.936,438.408 679.978,380.679 681.021,384.409 682.064,342.937 683.107,345.369 684.15,531.106 685.193,532.406 686.236,667.956 687.279,669.917 688.321,543.509 689.364,545.615 690.407,547.76 691.45,549.899 692.493,512.768 693.536,514.86 694.579,607.282 695.622,608.142 696.664,507.595 697.707,510.555 698.75,404.641 699.793,406.938 700.836,389.558 701.879,390.753 702.922,429.854 703.965,436.332 705.007,451.664 706.05,453.116 707.093,390.49 708.136,391.693 709.179,441.321 710.222,444.403 711.265,419.909 712.308,422.192 713.351,456.224 714.393,457.909 715.436,541.949 716.479,546.126 717.522,459.057 718.565,462.195 719.608,447.339 720.651,452.01 721.694,457.809 722.736,460.035 723.779,553.644 724.822,555.443 725.865,476.888 726.908,478.363 727.951,463.769 728.994,465.991 730.037,445.331 731.079,446.831 732.122,469.665 733.165,473.14 734.208,471.82 735.251,475.868 736.294,461.979 737.337,463.715 738.38,600.901 739.422,602.424 740.465,555.622 741.508,559.613 742.551,531.991 743.594,532.597 744.637,466.56 745.68,467.79 746.723,582.702 747.766,584.975 748.808,443.866 749.851,445.378 750.894,387.442 751.937,391.106 752.98,439.385 754.023,441.838 755.066,352.254 756.109,355.006 757.151,533.255 758.194,535.412 759.237,471.247 760.28,474.061 761.323,472.96 762.366,473.943 763.409,619.39 764.452,620.562 765.494,405.374 766.537,408.136 767.58,555.592 768.623,558.028 769.666,439.707 770.709,441.207 771.752,317.574 772.795,321.355 773.837,439.4 774.88,442.217 775.923,423.539 776.966,427.579 778.009,563.211 779.052,564.38 780.095,368.363 781.138,370.705 782.18,556.126 783.223,558.002 784.266,405.25 785.309,406.742 786.352,599.186 787.395,601.242 788.438,360.333 789.481,362.514 790.524,589.412 791.566,590.782 792.609,531.487 793.652,532.421 794.695,518.224 795.738,522.112 796.781,514.727 797.824,516.822 798.867,444.753 799.909,446.1 800.952,471.329 801.995,473.21 803.038,559.503 804.081,562.647 805.124,609.449 806.167,611.204 807.21,526.132 808.252,530.358 809.295,650.132 810.338,651.233 811.381,547.368 812.424,549.476 813.467,526.637 814.51,529.878 815.553,425.112 816.595,426.648 817.638,553.925 818.681,555.735 819.724,548.708 820.767,552.795 821.81,480.787 822.853,483.666 823.896,453.654 824.939,455.72 825.981,507.942 827.024,510.965 828.067,426.957 829.11,428.153 830.153,572.938 831.196,573.988 832.239,508.295 833.282,510.328 834.324,412.646 835.367,415.996 836.41,604.793 837.453,607.691 838.496,570.181 839.539,571.186 840.582,288.316 841.625,290.806 842.667,413.892 843.71,415.247 844.753,426.957 845.796,429.783 846.839,317.607 847.882,319.788 848.925,597.169 849.968,597.816 851.01,409.354 852.053,413.133 853.096,494.828 854.139,496.375 855.182,635.561 856.225,636.742 857.268,605.23 858.311,606.684 859.354,375.429 860.396,377.553 861.439,407.239 862.482,408.292 863.525,327.174 864.568,330.48 865.611,418.532 866.654,421.793 867.697,464.398 868.739,467.503 869.782,382.899 870.825,384.829 871.868,377.969 872.911,380.966 873.954,405.195 874.997,407.507 876.04,435.173 877.082,437.6 878.125,513.711 879.168,515.612 880.211,475.226 881.254,478.852 882.297,460.874 883.34,462.213 884.383,389.586 885.425,392.286 886.468,344.647 887.511,346.339 888.554,336.654 889.597,338.018 890.64,462.23 891.683,465.722 892.726,386.411 893.769,388.348 894.811,436.908 895.854,439.155 896.897,278.688 897.94,281.858 898.983,567.519 900.026,569.138 901.069,415.977 902.112,418.371 903.154,478.828 904.197,483.892 905.24,351.219 906.283,354.676 907.326,417.786 908.369,419.557 909.412,290.865 910.455,293.51 911.497,523.278 912.54,524.686 913.583,362.457 914.626,364.398 915.669,518.827 916.712,520.955 917.755,485.574 918.798,487.036 919.84,501.269 920.883,503.292 921.926,437.727 922.969,439.733 924.012,390.94 925.055,396.225 926.098,255.138 927.141,256.532 928.184,557.136 929.226,558.318 930.269,403.324 931.312,404.634 932.355,453.875 933.398,455.519 934.441,508.238 935.484,511.706 936.527,384.8 937.569,388.672 938.612,395.972 939.655,398.968 940.698,335.631 941.741,338.085 942.784,475.434 943.827,477.496 944.87,255.452 945.912,257.717 946.955,401.217 947.998,404.325 949.041,269.599 950.084,272.37 951.127,468.006 952.17,471.49 953.213,448.668 954.255,449.836 955.298,353.127 956.341,355.37 957.384,352.798 958.427,356.525 959.47,557.939 960.513,559.85 961.556,363.005 962.599,365.131 963.641,407.007 964.684,410.194 965.727,391.746 966.77,394.589 967.813,408.263 968.856,410.701 969.899,339.939 970.942,341.535 971.984,442.256 973.027,443.816 974.07,306.606 975.113,308.502 976.156,530.83 977.199,532.24 978.242,417.317 979.285,418.51 980.327,412.089 981.37,414.247 982.413,413.89 983.456,415.468 984.499,448.296 985.542,451.989 986.585,459.333 987.628,461.058 988.67,500.904 989.713,502.429 990.756,373.147 991.799,376.629 992.842,477.886 993.885,479.406 994.928,405.188 995.971,407.696 997.014,505.159 998.056,506.486 999.099,426.288 1000.14,428.401 1001.19,393.86 1002.23,395.175 1003.27,410.108 1004.31,413.068 1005.36,438.189 1006.4,440.587 1007.44,460.367 1008.49,461.631 1009.53,495.894 1010.57,497.764 1011.61,344.913 1012.66,347.605 1013.7,400.018 1014.74,402.775 1015.79,326.786 1016.83,328.053 1017.87,316.339 1018.91,318.54 1019.96,352.107 1021,354.023 1022.04,378.931 1023.09,380.471 1024.13,367.527 1025.17,369.606 1026.21,428.87 1027.26,431.981 1028.3,419.174 1029.34,422.197 1030.39,375.333 1031.43,379.881 1032.47,408.381 1033.51,413.491 1034.56,317.988 1035.6,322.949 1036.64,475.811 1037.69,478.055 1038.73,394.267 1039.77,398.975 1040.81,462.35 1041.86,463.425 1042.9,442.449 1043.94,444.956 1044.99,379.558 1046.03,381.411 1047.07,361.789 1048.11,363.022 1049.16,392.105 1050.2,393.574 1051.24,397.89 1052.29,399.423 1053.33,248.145 1054.37,250.985 1055.41,300.813 1056.46,304.527 1057.5,496.964 1058.54,499.65 1059.59,433.94 1060.63,435.848 1061.67,355.022 1062.71,356.231 1063.76,317.338 1064.8,320.946 1065.84,324.758 1066.89,330.33 1067.93,374.449 1068.97,376.903 1070.02,440.869 1071.06,441.755 1072.1,462.574 1073.14,465.061 1074.19,485.629 1075.23,486.999 1076.27,373.181 1077.32,376.194 1078.36,321.316 1079.4,324.486 1080.44,230.457 1081.49,233.13 1082.53,293.24 1083.57,294.39 1084.62,335.151 1085.66,338.756 1086.7,338.589 1087.74,340.639 1088.79,474.89 1089.83,476.4 1090.87,438.444 1091.92,441.764 1092.96,344.031 1094,348.507 1095.04,222.625 1096.09,226.88 1097.13,297.316 1098.17,299.881 1099.22,443.221 1100.26,445.513 1101.3,392.545 1102.34,394.476 1103.39,294.385 1104.43,296.658 1105.47,274.04 1106.52,276.188 1107.56,568.799 1108.6,571.662 1109.64,378.311 1110.69,383.169 1111.73,451.045 1112.77,453.745 1113.82,399.187 1114.86,401.366 1115.9,280.298 1116.94,282.981 1117.99,367.487 1119.03,369.794 1120.07,427.521 1121.12,429.289 1122.16,368.2 1123.2,369.521 1124.24,407.259 1125.29,411.935 1126.33,360.123 1127.37,362.374 1128.42,300.289 1129.46,303.457 1130.5,361.751 1131.54,365.535 1132.59,384.696 1133.63,386.767 1134.67,266.672 1135.72,268.972 1136.76,610.963 1137.8,613.04 1138.85,357.045 1139.89,362.659 1140.93,249.13 1141.97,252.147 1143.02,411.176 1144.06,414.987 1145.1,327.598 1146.15,330.353 1147.19,258.016 1148.23,260.987 1149.27,325.006 1150.32,327.951 1151.36,420.798 1152.4,421.948 1153.45,370.637 1154.49,374.811 1155.53,408.988 1156.57,410.323 1157.62,450.189 1158.66,451.994 1159.7,328.297 1160.75,330.998 1161.79,192.679 1162.83,194.87 1163.87,372.896 1164.92,374.746 1165.96,399.113 1167,402.254 1168.05,236.778 1169.09,240.463 1170.13,279.867 1171.17,288.731 1172.22,142.246 1173.26,146.7 1174.3,300.878 1175.35,305.147 1176.39,278.135 1177.43,280.438 1178.47,279.476 1179.52,281.446 1180.56,520.356 1181.6,523.697 1182.65,414.597 1183.69,416.564 1184.73,219.967 1185.77,222.835 1186.82,448.735 1187.86,450.046 1188.9,447.455 1189.95,449.135 1190.99,404.933 1192.03,407.696 1193.07,372.603 1194.12,374.978 1195.16,450.855 1196.2,452.536 1197.25,314.868 1198.29,319.086 1199.33,159.367 1200.37,161.912 1201.42,306.875 1202.46,309.972 1203.5,337.046 1204.55,339.33 1205.59,372.199 1206.63,374.776 1207.68,315.516 1208.72,320.096 1209.76,419.204 1210.8,424.072 1211.85,331.907 1212.89,333.862 1213.93,342.272 1214.98,344.429 1216.02,386.849 1217.06,389.84 1218.1,382.284 1219.15,384.34 1220.19,298.343 1221.23,300.361 1222.28,300.609 1223.32,303.321 1224.36,443.784 1225.4,446.217 1226.45,231.374 1227.49,232.777 1228.53,268.545 1229.58,270.24 1230.62,397.28 1231.66,398.381 1232.7,271.098 1233.75,274.167 1234.79,293.413 1235.83,295.157 1236.88,397.136 1237.92,399.881 1238.96,336.422 1240,338.539 1241.05,325.954 1242.09,328.344 1243.13,188.199 1244.18,189.56 1245.22,348.817 1246.26,350.738 1247.3,203.722 1248.35,206.915 1249.39,313.817 1250.43,315.793 1251.48,311.64 1252.52,315.567 1253.56,484.349 1254.6,485.946 1255.65,321.446 1256.69,323.808 1257.73,331.655 1258.78,332.753 1259.82,138.611 1260.86,141.363 1261.9,344.047 1262.95,345.068 1263.99,410.619 1265.03,412.114 1266.08,350.017 1267.12,352.949 1268.16,370.77 1269.2,373.215 1270.25,229.785 1271.29,234.614 1272.33,263.215 1273.38,265.216 1274.42,365.612 1275.46,367.206 1276.51,256.665 1277.55,261 1278.59,261.51 1279.63,263.548 1280.68,356.993 1281.72,359.731 1282.76,311.998 1283.81,315.51 1284.85,226.13 1285.89,230.022 1286.93,137.271 1287.98,142.338 1289.02,391.36 1290.06,393.468 1291.11,273.035 1292.15,276.598 1293.19,273.539 1294.23,275.91 1295.28,395.698 1296.32,396.713 1297.36,250.93 1298.41,252.232 1299.45,218.653 1300.49,220.025 1301.53,237.384 1302.58,240.651 1303.62,450.898 1304.66,452.564 1305.71,413.091 1306.75,416.345 1307.79,337.706 1308.83,340.843 1309.88,400.986 1310.92,403.25 1311.96,333.789 1313.01,335.423 1314.05,362.984 1315.09,364.611 1316.13,400.946 1317.18,402.254 1318.22,326.308 1319.26,328.931 1320.31,268.428 1321.35,272.857 1322.39,319.313 1323.43,321.466 1324.48,300.488 1325.52,301.856 1326.56,169.618 1327.61,171.803 1328.65,302.515 1329.69,304.603 1330.73,196.218 1331.78,198.362 1332.82,380.936 1333.86,382.562 1334.91,180.851 1335.95,181.994 1336.99,246.445 1338.03,248.24 1339.08,275.254 1340.12,280.033 1341.16,159.255 1342.21,161.827 1343.25,202.163 1344.29,203.606 1345.34,400.679 1346.38,402.785 1347.42,291.857 1348.46,294.35 1349.51,410.21 1350.55,411.016 1351.59,439.007 1352.64,441.029 1353.68,250.429 1354.72,252.811 1355.76,216.631 1356.81,221.876 1357.85,298.737 1358.89,300.792 1359.94,181.089 1360.98,182.523 1362.02,491.631 1363.06,493.289 1364.11,463.441 1365.15,465.838 1366.19,317.343 1367.24,322.032 1368.28,386.37 1369.32,388.369 1370.36,178.046 1371.41,179.997 1372.45,343.925 1373.49,347.158 1374.54,242.279 1375.58,246.829 1376.62,320.935 1377.66,324.137 1378.71,235.776 1379.75,239.572 1380.79,222.516 1381.84,226.713 1382.88,261.75 1383.92,266.267 1384.96,231.449 1386.01,235.75 1387.05,172.409 1388.09,174.914 1389.14,281.675 1390.18,283.57 1391.22,362.211 1392.26,363.931 1393.31,116.06 1394.35,119.798 1395.39,411.138 1396.44,413.096 1397.48,207.71 1398.52,210.333 1399.56,402.05 1400.61,405.628 1401.65,289.322 1402.69,292.297 1403.74,169.105 1404.78,171.274 1405.82,161.949 1406.86,164.463 1407.91,353.387 1408.95,355.53 1409.99,352.33 1411.04,353.765 1412.08,259.738 1413.12,262.028 1414.17,257.589 1415.21,260.242 1416.25,284.809 1417.29,286.598 1418.34,239.813 1419.38,241.094 1420.42,353.266 1421.47,354.847 1422.51,369.424 1423.55,371.461 1424.59,360.227 1425.64,363.704 1426.68,324.299 1427.72,327.494 1428.77,326.24 1429.81,327.783 1430.85,331.759 1431.89,334.496 1432.94,355.299 1433.98,356.667 1435.02,271.415 1436.07,272.645 1437.11,281.48 1438.15,283.843 1439.19,380.546 1440.24,384.686 1441.28,435.964 1442.32,437.313 1443.37,282.955 1444.41,284.633 1445.45,392.977 1446.49,394.7 1447.54,256.288 1448.58,258.433 1449.62,351.864 1450.67,352.667 1451.71,280.925 1452.75,283.351 1453.79,286.354 1454.84,288.312 1455.88,212.72 1456.92,214.799 1457.97,321.339 1459.01,324.192 1460.05,244.506 1461.09,247.684 1462.14,352.177 1463.18,353.17 1464.22,276.274 1465.27,278.168 1466.31,409.262 1467.35,410.096 1468.39,310.718 1469.44,312.045 1470.48,376.236 1471.52,378.088 1472.57,239.842 1473.61,242.47 1474.65,326.315 1475.69,327.847 1476.74,377.278 1477.78,378.587 1478.82,288.42 1479.87,292.405 1480.91,369.324 1481.95,371.157 1483,297.125 1484.04,298.838 1485.08,282.235 1486.12,284.851 1487.17,488.345 1488.21,490.253 1489.25,226.159 1490.3,228.429 1491.34,301.789 1492.38,303.468 1493.42,313.78 1494.47,317.007 1495.51,312.451 1496.55,315.532 1497.6,317.61 1498.64,318.884 1499.68,301.124 1500.72,302.487 1501.77,316.948 1502.81,320.276 1503.85,294.772 1504.9,296.676 1505.94,303.513 1506.98,306.113 1508.02,369.339 1509.07,370.93 1510.11,366.237 1511.15,369.846 1512.2,339.852 1513.24,341.246 1514.28,163.109 1515.32,167.928 1516.37,413.641 1517.41,415.115 1518.45,258.197 1519.5,260.62 1520.54,271.699 1521.58,274.2 1522.62,355.351 1523.67,357.384 1524.71,274.05 1525.75,275.508 1526.8,264.647 1527.84,267.476 1528.88,435.774 1529.92,436.812 1530.97,152.808 1532.01,153.674 1533.05,394.311 1534.1,395.064 1535.14,332.352 1536.18,334.062 1537.22,241.245 1538.27,243.667 1539.31,353.116 1540.35,355.013 1541.4,288.618 1542.44,291.206 1543.48,188.575 1544.52,191.22 1545.57,375.713 1546.61,378.272 1547.65,182.968 1548.7,185.879 1549.74,296.747 1550.78,298.065 1551.83,261.42 1552.87,265.655 1553.91,313.936 1554.95,317.1 1556,326.107 1557.04,327.316 1558.08,170.495 1559.13,172.934 1560.17,327.436 1561.21,330.84 1562.25,338.177 1563.3,343.146 1564.34,198.166 1565.38,200.624 1566.43,347.7 1567.47,350.202 1568.51,302.957 1569.55,305.649 1570.6,326.743 1571.64,327.686 1572.68,372.189 1573.73,374.104 1574.77,425.556 1575.81,428.408 1576.85,286.113 1577.9,288.906 1578.94,273.911 1579.98,275.633 1581.03,293.633 1582.07,297.088 1583.11,177.925 1584.15,179.686 1585.2,323.188 1586.24,326.494 1587.28,256.327 1588.33,257.794 1589.37,224.27 1590.41,226.569 1591.45,322.047 1592.5,324.484 1593.54,253.202 1594.58,254.952 1595.63,265.373 1596.67,268.679 1597.71,274.568 1598.75,276.272 1599.8,227.752 1600.84,231.796 1601.88,146.221 1602.93,149.935 1603.97,232.492 1605.01,235.508 1606.05,334.089 1607.1,336.646 1608.14,402.298 1609.18,403.64 1610.23,271.702 1611.27,273.276 1612.31,339.252 1613.35,340.916 1614.4,236.86 1615.44,239.896 1616.48,343.672 1617.53,346.706 1618.57,232.328 1619.61,234.029 1620.66,434.638 1621.7,437.122 1622.74,437.236 1623.78,438.646 1624.83,276.571 1625.87,279.021 1626.91,214.061 1627.96,215.386 1629,397.236 1630.04,398.754 1631.08,298.831 1632.13,301.174 1633.17,230.192 1634.21,232.189 1635.26,363.758 1636.3,364.926 1637.34,181.014 1638.38,185.544 1639.43,462.868 1640.47,464.343 1641.51,147.029 1642.56,148.65 1643.6,303.411 1644.64,304.871 1645.68,162.803 1646.73,164.341 1647.77,329.134 1648.81,330.735 1649.86,395.671 1650.9,396.824 1651.94,363.393 1652.98,365.541 1654.03,316.714 1655.07,318.353 1656.11,278.893 1657.16,281.514 1658.2,337.847 1659.24,340.792 1660.28,268.792 1661.33,271.871 1662.37,392.481 1663.41,393.993 1664.46,255.156 1665.5,257.269 1666.54,350.63 1667.58,352.601 1668.63,376.166 1669.67,378.282 1670.71,295.903 1671.76,299.221 1672.8,393.838 1673.84,396.378 1674.88,225.907 1675.93,227.429 1676.97,222.93 1678.01,224.539 1679.06,323.03 1680.1,324.542 1681.14,337.478 1682.18,339.075 1683.23,429.405 1684.27,431.127 1685.31,313.781 1686.36,315.082 1687.4,313.11 1688.44,315.286 1689.49,448.032 1690.53,449.599 1691.57,431.429 1692.61,433.162 1693.66,381.214 1694.7,382.819 1695.74,320.579 1696.79,322.205 1697.83,354.241 1698.87,356.165 1699.91,291.926 1700.96,293.581 1702,405.954 1703.04,407.283 1704.09,350.998 1705.13,354.842 1706.17,278.192 1707.21,280.026 1708.26,321.156 1709.3,323.122 1710.34,368.727 1711.39,370.114 1712.43,285.413 1713.47,289.456 1714.51,362.714 1715.56,365.316 1716.6,286.262 1717.64,288.377 1718.69,371.447 1719.73,373.562 1720.77,286.87 1721.81,288.857 1722.86,357.012 1723.9,359.133 1724.94,249.462 1725.99,254.167 1727.03,339.925 1728.07,341.685 1729.11,181.174 1730.16,183.346 1731.2,409.291 1732.24,410.79 1733.29,206.079 1734.33,210.366 1735.37,266.3 1736.41,269.656 1737.46,287.666 1738.5,290.762 1739.54,350.652 1740.59,352.537 1741.63,288.605 1742.67,292.909 1743.71,332.684 1744.76,333.737 1745.8,306.71 1746.84,310.295 1747.89,317.326 1748.93,318.591 1749.97,213.803 1751.01,220.761 1752.06,292.53 1753.1,294.466 1754.14,240.236 1755.19,244.272 1756.23,215.189 1757.27,216.872 1758.32,166.362 1759.36,168.523 1760.4,337.845 1761.44,340.804 1762.49,411.188 1763.53,414.063 1764.57,295.2 1765.62,301.511 1766.66,366.795 1767.7,368.843 1768.74,298.276 1769.79,300.938 1770.83,241.979 1771.87,243.74 1772.92,348.071 1773.96,351.316 1775,309.396 1776.04,313.377 1777.09,241.052 1778.13,243.375 1779.17,208.562 1780.22,210.153 1781.26,375.064 1782.3,376.258 1783.34,512.628 1784.39,515.87 1785.43,317.875 1786.47,320.379 1787.52,268.554 1788.56,270.194 1789.6,206.726 1790.64,210.197 1791.69,433.148 1792.73,434.41 1793.77,351.249 1794.82,354.373 1795.86,351.831 1796.9,355.287 1797.94,302.499 1798.99,304.235 1800.03,270.631 1801.07,273.427 1802.12,182.274 1803.16,184.54 1804.2,301.705 1805.24,303.307 1806.29,543.077 1807.33,545.229 1808.37,317.1 1809.42,319.762 1810.46,376.695 1811.5,377.69 1812.54,260.436 1813.59,262.653 1814.63,228.288 1815.67,230.895 1816.72,168.15 1817.76,170.064 1818.8,290.53 1819.84,294.048 1820.89,295.749 1821.93,298.055 1822.97,213.999 1824.02,216.041 1825.06,324.207 1826.1,326.12 1827.15,350.831 1828.19,353.542 1829.23,356.949 1830.27,359.61 1831.32,373.847 1832.36,375.915 1833.4,492.601 1834.45,494.903 1835.49,401.604 1836.53,403.646 1837.57,322.438 1838.62,323.96 1839.66,454.984 1840.7,458.203 1841.75,292.31 1842.79,293.924 1843.83,356.051 1844.87,359.32 1845.92,379.564 1846.96,381.956 1848,359.377 1849.05,360.491 1850.09,208.788 1851.13,211.456 1852.17,327.923 1853.22,330.343 1854.26,493.467 1855.3,494.948 1856.35,350.235 1857.39,352.793 1858.43,227.01 1859.47,228.797 1860.52,301.163 1861.56,302.031 1862.6,396.892 1863.65,399.429 1864.69,163.048 1865.73,164.707 1866.77,348.033 1867.82,349.521 1868.86,277.325 1869.9,279.71 1870.95,264.521 1871.99,266.969 1873.03,241.514 1874.07,242.724 1875.12,151.707 1876.16,155.312 1877.2,177.699 1878.25,181.314 1879.29,391.772 1880.33,393.266 1881.37,418.846 1882.42,419.969 1883.46,335.964 1884.5,337.204 1885.55,324.253 1886.59,328.446 1887.63,287.666 1888.67,290.007 1889.72,253.735 1890.76,255.127 1891.8,350.898 1892.85,353.992 1893.89,131.739 1894.93,133.96 1895.98,236.775 1897.02,238.417 1898.06,295.777 1899.1,300.007 1900.15,262.086 1901.19,265.846 1902.23,170.294 1903.28,172.738 1904.32,156.573 1905.36,158.663 1906.4,313.274 1907.45,314.758 1908.49,266.466 1909.53,268.289 1910.58,180.469 1911.62,182.803 1912.66,283.508 1913.7,286.161 1914.75,303.523 1915.79,307.002 1916.83,310.349 1917.88,312.605 1918.92,337.822 1919.96,339.885 1921,336.456 1922.05,338.461 1923.09,284.498 1924.13,286.873 1925.18,373.558 1926.22,375.283 1927.26,353.509 1928.3,354.887 1929.35,95.8091 1930.39,98.0363 1931.43,342.211 1932.48,344.343 1933.52,220.618 1934.56,222.474 1935.6,283.595 1936.65,285.557 1937.69,253.155 1938.73,255.844 1939.78,269.969 1940.82,273.649 1941.86,219.055 1942.9,220.83 1943.95,287.03 1944.99,289.454 1946.03,226.14 1947.08,230.454 1948.12,251.394 1949.16,253.375 1950.2,276.767 1951.25,278.241 1952.29,307.905 1953.33,310.28 1954.38,305.581 1955.42,307.965 1956.46,270.052 1957.5,272.316 1958.55,318.878 1959.59,320.59 1960.63,322.971 1961.68,325.236 1962.72,209.259 1963.76,211.075 1964.81,241.529 1965.85,243.233 1966.89,403.531 1967.93,407.617 1968.98,347.781 1970.02,349.03 1971.06,289.418 1972.11,292.19 1973.15,368.13 1974.19,371.104 1975.23,471.465 1976.28,475.899 1977.32,266.9 1978.36,270.591 1979.41,325.747 1980.45,328.848 1981.49,468.415 1982.53,470.36 1983.58,240.407 1984.62,241.343 1985.66,481.947 1986.71,483.124 1987.75,213.751 1988.79,215.643 1989.83,221.95 1990.88,223.577 1991.92,288.697 1992.96,290.671 1994.01,220.083 1995.05,220.941 1996.09,346.15 1997.13,347.654 1998.18,239.241 1999.22,241.117 2000.26,236.096 2001.31,238.427 2002.35,164.883 2003.39,167.391 2004.43,268.919 2005.48,271.345 2006.52,133.937 2007.56,136.106 2008.61,163.675 2009.65,166.911 2010.69,303.188 2011.73,305.658 2012.78,470.739 2013.82,472.01 2014.86,462.559 2015.91,463.913 2016.95,358.795 2017.99,360.221 2019.03,320.124 2020.08,322.041 2021.12,157.352 2022.16,158.962 2023.21,340.307 2024.25,342.725 2025.29,267.166 2026.33,269.521 2027.38,323.489 2028.42,325.013 2029.46,230.866 2030.51,233.21 2031.55,226.047 2032.59,227.836 2033.64,253.272 2034.68,257.891 2035.72,231.423 2036.76,234.185 2037.81,316.33 2038.85,318.702 2039.89,300.812 2040.94,303.338 2041.98,295.605 2043.02,297.381 2044.06,325.651 2045.11,328.554 2046.15,330.855 2047.19,333.156 2048.24,217.52 2049.28,218.938 2050.32,246.859 2051.36,248.982 2052.41,251.753 2053.45,257.098 2054.49,290.305 2055.54,293.849 2056.58,311.705 2057.62,313.098 2058.66,300.068 2059.71,302.582 2060.75,349.516 2061.79,351.644 2062.84,311.551 2063.88,315.449 2064.92,307.773 2065.96,309.481 2067.01,253.057 2068.05,255.975 2069.09,261.575 2070.14,263.87 2071.18,444.241 2072.22,445.103 2073.26,183.909 2074.31,184.576 2075.35,251.753 2076.39,253.496 2077.44,217.163 2078.48,219.398 2079.52,250.293 2080.56,252.861 2081.61,288.855 2082.65,291.581 2083.69,406.251 2084.74,408.318 2085.78,263.715 2086.82,265.044 2087.86,202.246 2088.91,205.462 2089.95,240.082 2090.99,241.535 2092.04,426.73 2093.08,429.632 2094.12,348.882 2095.16,349.85 2096.21,200.631 2097.25,202.979 2098.29,343.7 2099.34,347.736 2100.38,302.523 2101.42,303.854 2102.47,235.18 2103.51,236.817 2104.55,284.097 2105.59,286.923 2106.64,238.305 2107.68,240.137 2108.72,312.435 2109.77,316.274 2110.81,290.772 2111.85,293.875 2112.89,224.022 2113.94,226.039 2114.98,359.456 2116.02,362.702 2117.07,285.505 2118.11,287.9 2119.15,176.757 2120.19,179.125 2121.24,235.499 2122.28,237.256 2123.32,270.979 2124.37,273.009 2125.41,474.243 2126.45,476.239 2127.49,258.59 2128.54,260.774 2129.58,296.158 2130.62,297.447 2131.67,191.313 2132.71,192.817 2133.75,302.775 2134.79,304.057 2135.84,261.372 2136.88,264.187 2137.92,352.654 2138.97,354.162 2140.01,339.419 2141.05,341.583 2142.09,323.343 2143.14,325.785 2144.18,313.772 2145.22,316.557 2146.27,341.42 2147.31,344.315 2148.35,179.315 2149.39,182.341 2150.44,334.156 2151.48,335.838 2152.52,198.858 2153.57,202.547 2154.61,227.22 2155.65,231.368 2156.69,309.637 2157.74,310.707 2158.78,292.738 2159.82,294.667 2160.87,151.73 2161.91,153.286 2162.95,420.967 2163.99,423.996 2165.04,275.344 2166.08,279.8 2167.12,152.064 2168.17,153.505 2169.21,179.294 2170.25,180.128 2171.3,302.748 2172.34,304.837 2173.38,137.839 2174.42,140.2 2175.47,327.53 2176.51,330.361 2177.55,196.481 2178.6,197.329 2179.64,194.453 2180.68,196.635 2181.72,240.859 2182.77,242.966 2183.81,287.906 2184.85,289.23 2185.9,87.9763 2186.94,88.9677 2187.98,156.342 2189.02,157.223 2190.07,228.628 2191.11,229.74 2192.15,257.724 2193.2,259.177 2194.24,365.001 2195.28,366.934 2196.32,311.405 2197.37,313.572 2198.41,377.961 2199.45,380.279 2200.5,141.656 2201.54,144.176 2202.58,212.011 2203.62,214.168 2204.67,328.69 2205.71,330.833 2206.75,394.125 2207.8,395.36 2208.84,186.442 2209.88,188.527 2210.92,348.018 2211.97,348.977 2213.01,301.792 2214.05,303.106 2215.1,307.037 2216.14,309.497 2217.18,206.954 2218.22,208.537 2219.27,459.716 2220.31,461.187 2221.35,252.581 2222.4,254.703 2223.44,436.081 2224.48,437.129 2225.52,282.079 2226.57,285.54 2227.61,219.921 2228.65,222.039 2229.7,364.413 2230.74,367.463 2231.78,378.469 2232.82,380.398 2233.87,398.355 2234.91,399.687 2235.95,157.365 2237,158.844 2238.04,194.116 2239.08,195.905 2240.12,239.449 2241.17,242.975 2242.21,265.482 2243.25,266.616 2244.3,296.663 2245.34,297.652 2246.38,143.432 2247.43,145.25 2248.47,341.654 2249.51,343.533 2250.55,325.42 2251.6,326.961 2252.64,318.052 2253.68,319.769 2254.73,287.507 2255.77,289.564 2256.81,373.087 2257.85,374.265 2258.9,292.13 2259.94,293.983 2260.98,286.503 2262.03,287.816 2263.07,422.736 2264.11,423.97 2265.15,349.707 2266.2,351.612 2267.24,183.749 2268.28,186.498 2269.33,305.838 2270.37,307.592 2271.41,211.189 2272.45,213.14 2273.5,171.675 2274.54,176.333 2275.58,194.432 2276.63,196.916 2277.67,145.331 2278.71,146.867 2279.75,354.063 2280.8,355.974 2281.84,421.091 2282.88,422.363 2283.93,132.61 2284.97,135.312 2286.01,263.989 2287.05,265.702 2288.1,239.092 2289.14,241.922 2290.18,243.466 "/>
<path clip-path="url(#clip550)" d="M2005.54 1438.47 L2279.06 1438.47 L2279.06 1334.79 L2005.54 1334.79  Z" fill="#ffffff" fill-rule="evenodd" fill-opacity="1"/>
<polyline clip-path="url(#clip550)" style="stroke:#000000; stroke-linecap:round; stroke-linejoin:round; stroke-width:4; stroke-opacity:1; fill:none" points="2005.54,1438.47 2279.06,1438.47 2279.06,1334.79 2005.54,1334.79 2005.54,1438.47 "/>
<polyline clip-path="url(#clip550)" style="stroke:#009af9; stroke-linecap:round; stroke-linejoin:round; stroke-width:4; stroke-opacity:1; fill:none" points="2030.1,1386.63 2177.5,1386.63 "/>
<path clip-path="url(#clip550)" d="M2215.91 1406.32 Q2214.1 1410.95 2212.39 1412.36 Q2210.67 1413.78 2207.8 1413.78 L2204.4 1413.78 L2204.4 1410.21 L2206.9 1410.21 Q2208.66 1410.21 2209.63 1409.38 Q2210.6 1408.54 2211.79 1405.44 L2212.55 1403.5 L2202.06 1377.99 L2206.58 1377.99 L2214.68 1398.27 L2222.78 1377.99 L2227.29 1377.99 L2215.91 1406.32 Z" fill="#000000" fill-rule="nonzero" fill-opacity="1" /><path clip-path="url(#clip550)" d="M2234.59 1399.98 L2242.23 1399.98 L2242.23 1373.61 L2233.91 1375.28 L2233.91 1371.02 L2242.18 1369.35 L2246.85 1369.35 L2246.85 1399.98 L2254.49 1399.98 L2254.49 1403.91 L2234.59 1403.91 L2234.59 1399.98 Z" fill="#000000" fill-rule="nonzero" fill-opacity="1" /></svg>
