<?xml version="1.0" encoding="utf-8"?>
<svg xmlns="http://www.w3.org/2000/svg" xmlns:xlink="http://www.w3.org/1999/xlink" width="600" height="400" viewBox="0 0 2400 1600">
<defs>
  <clipPath id="clip570">
    <rect x="0" y="0" width="2400" height="1600"/>
  </clipPath>
</defs>
<path clip-path="url(#clip570)" d="M0 1600 L2400 1600 L2400 0 L0 0  Z" fill="#ffffff" fill-rule="evenodd" fill-opacity="1"/>
<defs>
  <clipPath id="clip571">
    <rect x="480" y="0" width="1681" height="1600"/>
  </clipPath>
</defs>
<path clip-path="url(#clip570)" d="M184.191 1486.45 L2352.76 1486.45 L2352.76 47.2441 L184.191 47.2441  Z" fill="#ffffff" fill-rule="evenodd" fill-opacity="1"/>
<defs>
  <clipPath id="clip572">
    <rect x="184" y="47" width="2170" height="1440"/>
  </clipPath>
</defs>
<polyline clip-path="url(#clip572)" style="stroke:#000000; stroke-linecap:round; stroke-linejoin:round; stroke-width:2; stroke-opacity:0.1; fill:none" points="245.565,1486.45 245.565,47.2441 "/>
<polyline clip-path="url(#clip572)" style="stroke:#000000; stroke-linecap:round; stroke-linejoin:round; stroke-width:2; stroke-opacity:0.1; fill:none" points="757.019,1486.45 757.019,47.2441 "/>
<polyline clip-path="url(#clip572)" style="stroke:#000000; stroke-linecap:round; stroke-linejoin:round; stroke-width:2; stroke-opacity:0.1; fill:none" points="1268.47,1486.45 1268.47,47.2441 "/>
<polyline clip-path="url(#clip572)" style="stroke:#000000; stroke-linecap:round; stroke-linejoin:round; stroke-width:2; stroke-opacity:0.1; fill:none" points="1779.93,1486.45 1779.93,47.2441 "/>
<polyline clip-path="url(#clip572)" style="stroke:#000000; stroke-linecap:round; stroke-linejoin:round; stroke-width:2; stroke-opacity:0.1; fill:none" points="2291.38,1486.45 2291.38,47.2441 "/>
<polyline clip-path="url(#clip570)" style="stroke:#000000; stroke-linecap:round; stroke-linejoin:round; stroke-width:4; stroke-opacity:1; fill:none" points="184.191,1486.45 2352.76,1486.45 "/>
<polyline clip-path="url(#clip570)" style="stroke:#000000; stroke-linecap:round; stroke-linejoin:round; stroke-width:4; stroke-opacity:1; fill:none" points="245.565,1486.45 245.565,1467.55 "/>
<polyline clip-path="url(#clip570)" style="stroke:#000000; stroke-linecap:round; stroke-linejoin:round; stroke-width:4; stroke-opacity:1; fill:none" points="757.019,1486.45 757.019,1467.55 "/>
<polyline clip-path="url(#clip570)" style="stroke:#000000; stroke-linecap:round; stroke-linejoin:round; stroke-width:4; stroke-opacity:1; fill:none" points="1268.47,1486.45 1268.47,1467.55 "/>
<polyline clip-path="url(#clip570)" style="stroke:#000000; stroke-linecap:round; stroke-linejoin:round; stroke-width:4; stroke-opacity:1; fill:none" points="1779.93,1486.45 1779.93,1467.55 "/>
<polyline clip-path="url(#clip570)" style="stroke:#000000; stroke-linecap:round; stroke-linejoin:round; stroke-width:4; stroke-opacity:1; fill:none" points="2291.38,1486.45 2291.38,1467.55 "/>
<path clip-path="url(#clip570)" d="M245.565 1517.37 Q241.954 1517.37 240.125 1520.93 Q238.32 1524.47 238.32 1531.6 Q238.32 1538.71 240.125 1542.27 Q241.954 1545.82 245.565 1545.82 Q249.199 1545.82 251.005 1542.27 Q252.834 1538.71 252.834 1531.6 Q252.834 1524.47 251.005 1520.93 Q249.199 1517.37 245.565 1517.37 M245.565 1513.66 Q251.375 1513.66 254.431 1518.27 Q257.51 1522.85 257.51 1531.6 Q257.51 1540.33 254.431 1544.94 Q251.375 1549.52 245.565 1549.52 Q239.755 1549.52 236.676 1544.94 Q233.621 1540.33 233.621 1531.6 Q233.621 1522.85 236.676 1518.27 Q239.755 1513.66 245.565 1513.66 Z" fill="#000000" fill-rule="nonzero" fill-opacity="1" /><path clip-path="url(#clip570)" d="M701.545 1544.91 L709.184 1544.91 L709.184 1518.55 L700.874 1520.21 L700.874 1515.95 L709.138 1514.29 L713.813 1514.29 L713.813 1544.91 L721.452 1544.91 L721.452 1548.85 L701.545 1548.85 L701.545 1544.91 Z" fill="#000000" fill-rule="nonzero" fill-opacity="1" /><path clip-path="url(#clip570)" d="M740.897 1517.37 Q737.286 1517.37 735.457 1520.93 Q733.651 1524.47 733.651 1531.6 Q733.651 1538.71 735.457 1542.27 Q737.286 1545.82 740.897 1545.82 Q744.531 1545.82 746.336 1542.27 Q748.165 1538.71 748.165 1531.6 Q748.165 1524.47 746.336 1520.93 Q744.531 1517.37 740.897 1517.37 M740.897 1513.66 Q746.707 1513.66 749.762 1518.27 Q752.841 1522.85 752.841 1531.6 Q752.841 1540.33 749.762 1544.94 Q746.707 1549.52 740.897 1549.52 Q735.086 1549.52 732.008 1544.94 Q728.952 1540.33 728.952 1531.6 Q728.952 1522.85 732.008 1518.27 Q735.086 1513.66 740.897 1513.66 Z" fill="#000000" fill-rule="nonzero" fill-opacity="1" /><path clip-path="url(#clip570)" d="M771.059 1517.37 Q767.447 1517.37 765.619 1520.93 Q763.813 1524.47 763.813 1531.6 Q763.813 1538.71 765.619 1542.27 Q767.447 1545.82 771.059 1545.82 Q774.693 1545.82 776.498 1542.27 Q778.327 1538.71 778.327 1531.6 Q778.327 1524.47 776.498 1520.93 Q774.693 1517.37 771.059 1517.37 M771.059 1513.66 Q776.869 1513.66 779.924 1518.27 Q783.003 1522.85 783.003 1531.6 Q783.003 1540.33 779.924 1544.94 Q776.869 1549.52 771.059 1549.52 Q765.248 1549.52 762.17 1544.94 Q759.114 1540.33 759.114 1531.6 Q759.114 1522.85 762.17 1518.27 Q765.248 1513.66 771.059 1513.66 Z" fill="#000000" fill-rule="nonzero" fill-opacity="1" /><path clip-path="url(#clip570)" d="M801.22 1517.37 Q797.609 1517.37 795.781 1520.93 Q793.975 1524.47 793.975 1531.6 Q793.975 1538.71 795.781 1542.27 Q797.609 1545.82 801.22 1545.82 Q804.855 1545.82 806.66 1542.27 Q808.489 1538.71 808.489 1531.6 Q808.489 1524.47 806.66 1520.93 Q804.855 1517.37 801.22 1517.37 M801.22 1513.66 Q807.031 1513.66 810.086 1518.27 Q813.165 1522.85 813.165 1531.6 Q813.165 1540.33 810.086 1544.94 Q807.031 1549.52 801.22 1549.52 Q795.41 1549.52 792.332 1544.94 Q789.276 1540.33 789.276 1531.6 Q789.276 1522.85 792.332 1518.27 Q795.41 1513.66 801.22 1513.66 Z" fill="#000000" fill-rule="nonzero" fill-opacity="1" /><path clip-path="url(#clip570)" d="M1217.08 1544.91 L1233.4 1544.91 L1233.4 1548.85 L1211.46 1548.85 L1211.46 1544.91 Q1214.12 1542.16 1218.71 1537.53 Q1223.31 1532.88 1224.49 1531.53 Q1226.74 1529.01 1227.62 1527.27 Q1228.52 1525.51 1228.52 1523.82 Q1228.52 1521.07 1226.58 1519.33 Q1224.65 1517.6 1221.55 1517.6 Q1219.35 1517.6 1216.9 1518.36 Q1214.47 1519.13 1211.69 1520.68 L1211.69 1515.95 Q1214.52 1514.82 1216.97 1514.24 Q1219.42 1513.66 1221.46 1513.66 Q1226.83 1513.66 1230.02 1516.35 Q1233.22 1519.03 1233.22 1523.52 Q1233.22 1525.65 1232.41 1527.57 Q1231.62 1529.47 1229.52 1532.07 Q1228.94 1532.74 1225.83 1535.95 Q1222.73 1539.15 1217.08 1544.91 Z" fill="#000000" fill-rule="nonzero" fill-opacity="1" /><path clip-path="url(#clip570)" d="M1253.22 1517.37 Q1249.61 1517.37 1247.78 1520.93 Q1245.97 1524.47 1245.97 1531.6 Q1245.97 1538.71 1247.78 1542.27 Q1249.61 1545.82 1253.22 1545.82 Q1256.85 1545.82 1258.66 1542.27 Q1260.49 1538.71 1260.49 1531.6 Q1260.49 1524.47 1258.66 1520.93 Q1256.85 1517.37 1253.22 1517.37 M1253.22 1513.66 Q1259.03 1513.66 1262.08 1518.27 Q1265.16 1522.85 1265.16 1531.6 Q1265.16 1540.33 1262.08 1544.94 Q1259.03 1549.52 1253.22 1549.52 Q1247.41 1549.52 1244.33 1544.94 Q1241.27 1540.33 1241.27 1531.6 Q1241.27 1522.85 1244.33 1518.27 Q1247.41 1513.66 1253.22 1513.66 Z" fill="#000000" fill-rule="nonzero" fill-opacity="1" /><path clip-path="url(#clip570)" d="M1283.38 1517.37 Q1279.77 1517.37 1277.94 1520.93 Q1276.14 1524.47 1276.14 1531.6 Q1276.14 1538.71 1277.94 1542.27 Q1279.77 1545.82 1283.38 1545.82 Q1287.01 1545.82 1288.82 1542.27 Q1290.65 1538.71 1290.65 1531.6 Q1290.65 1524.47 1288.82 1520.93 Q1287.01 1517.37 1283.38 1517.37 M1283.38 1513.66 Q1289.19 1513.66 1292.25 1518.27 Q1295.33 1522.85 1295.33 1531.6 Q1295.33 1540.33 1292.25 1544.94 Q1289.19 1549.52 1283.38 1549.52 Q1277.57 1549.52 1274.49 1544.94 Q1271.44 1540.33 1271.44 1531.6 Q1271.44 1522.85 1274.49 1518.27 Q1277.57 1513.66 1283.38 1513.66 Z" fill="#000000" fill-rule="nonzero" fill-opacity="1" /><path clip-path="url(#clip570)" d="M1313.54 1517.37 Q1309.93 1517.37 1308.1 1520.93 Q1306.3 1524.47 1306.3 1531.6 Q1306.3 1538.71 1308.1 1542.27 Q1309.93 1545.82 1313.54 1545.82 Q1317.18 1545.82 1318.98 1542.27 Q1320.81 1538.71 1320.81 1531.6 Q1320.81 1524.47 1318.98 1520.93 Q1317.18 1517.37 1313.54 1517.37 M1313.54 1513.66 Q1319.35 1513.66 1322.41 1518.27 Q1325.49 1522.85 1325.49 1531.6 Q1325.49 1540.33 1322.41 1544.94 Q1319.35 1549.52 1313.54 1549.52 Q1307.73 1549.52 1304.65 1544.94 Q1301.6 1540.33 1301.6 1531.6 Q1301.6 1522.85 1304.65 1518.27 Q1307.73 1513.66 1313.54 1513.66 Z" fill="#000000" fill-rule="nonzero" fill-opacity="1" /><path clip-path="url(#clip570)" d="M1738.61 1530.21 Q1741.96 1530.93 1743.84 1533.2 Q1745.74 1535.47 1745.74 1538.8 Q1745.74 1543.92 1742.22 1546.72 Q1738.7 1549.52 1732.22 1549.52 Q1730.04 1549.52 1727.73 1549.08 Q1725.44 1548.66 1722.98 1547.81 L1722.98 1543.29 Q1724.93 1544.43 1727.24 1545.01 Q1729.56 1545.58 1732.08 1545.58 Q1736.48 1545.58 1738.77 1543.85 Q1741.08 1542.11 1741.08 1538.8 Q1741.08 1535.75 1738.93 1534.03 Q1736.8 1532.3 1732.98 1532.3 L1728.96 1532.3 L1728.96 1528.45 L1733.17 1528.45 Q1736.62 1528.45 1738.45 1527.09 Q1740.27 1525.7 1740.27 1523.11 Q1740.27 1520.45 1738.38 1519.03 Q1736.5 1517.6 1732.98 1517.6 Q1731.06 1517.6 1728.86 1518.01 Q1726.66 1518.43 1724.02 1519.31 L1724.02 1515.14 Q1726.69 1514.4 1729 1514.03 Q1731.34 1513.66 1733.4 1513.66 Q1738.72 1513.66 1741.83 1516.09 Q1744.93 1518.5 1744.93 1522.62 Q1744.93 1525.49 1743.28 1527.48 Q1741.64 1529.45 1738.61 1530.21 Z" fill="#000000" fill-rule="nonzero" fill-opacity="1" /><path clip-path="url(#clip570)" d="M1764.6 1517.37 Q1760.99 1517.37 1759.16 1520.93 Q1757.36 1524.47 1757.36 1531.6 Q1757.36 1538.71 1759.16 1542.27 Q1760.99 1545.82 1764.6 1545.82 Q1768.24 1545.82 1770.04 1542.27 Q1771.87 1538.71 1771.87 1531.6 Q1771.87 1524.47 1770.04 1520.93 Q1768.24 1517.37 1764.6 1517.37 M1764.6 1513.66 Q1770.41 1513.66 1773.47 1518.27 Q1776.55 1522.85 1776.55 1531.6 Q1776.55 1540.33 1773.47 1544.94 Q1770.41 1549.52 1764.6 1549.52 Q1758.79 1549.52 1755.71 1544.94 Q1752.66 1540.33 1752.66 1531.6 Q1752.66 1522.85 1755.71 1518.27 Q1758.79 1513.66 1764.6 1513.66 Z" fill="#000000" fill-rule="nonzero" fill-opacity="1" /><path clip-path="url(#clip570)" d="M1794.77 1517.37 Q1791.15 1517.37 1789.33 1520.93 Q1787.52 1524.47 1787.52 1531.6 Q1787.52 1538.71 1789.33 1542.27 Q1791.15 1545.82 1794.77 1545.82 Q1798.4 1545.82 1800.21 1542.27 Q1802.03 1538.71 1802.03 1531.6 Q1802.03 1524.47 1800.21 1520.93 Q1798.4 1517.37 1794.77 1517.37 M1794.77 1513.66 Q1800.58 1513.66 1803.63 1518.27 Q1806.71 1522.85 1806.71 1531.6 Q1806.71 1540.33 1803.63 1544.94 Q1800.58 1549.52 1794.77 1549.52 Q1788.96 1549.52 1785.88 1544.94 Q1782.82 1540.33 1782.82 1531.6 Q1782.82 1522.85 1785.88 1518.27 Q1788.96 1513.66 1794.77 1513.66 Z" fill="#000000" fill-rule="nonzero" fill-opacity="1" /><path clip-path="url(#clip570)" d="M1824.93 1517.37 Q1821.32 1517.37 1819.49 1520.93 Q1817.68 1524.47 1817.68 1531.6 Q1817.68 1538.71 1819.49 1542.27 Q1821.32 1545.82 1824.93 1545.82 Q1828.56 1545.82 1830.37 1542.27 Q1832.2 1538.71 1832.2 1531.6 Q1832.2 1524.47 1830.37 1520.93 Q1828.56 1517.37 1824.93 1517.37 M1824.93 1513.66 Q1830.74 1513.66 1833.79 1518.27 Q1836.87 1522.85 1836.87 1531.6 Q1836.87 1540.33 1833.79 1544.94 Q1830.74 1549.52 1824.93 1549.52 Q1819.12 1549.52 1816.04 1544.94 Q1812.98 1540.33 1812.98 1531.6 Q1812.98 1522.85 1816.04 1518.27 Q1819.12 1513.66 1824.93 1513.66 Z" fill="#000000" fill-rule="nonzero" fill-opacity="1" /><path clip-path="url(#clip570)" d="M2249.39 1518.36 L2237.59 1536.81 L2249.39 1536.81 L2249.39 1518.36 M2248.16 1514.29 L2254.04 1514.29 L2254.04 1536.81 L2258.97 1536.81 L2258.97 1540.7 L2254.04 1540.7 L2254.04 1548.85 L2249.39 1548.85 L2249.39 1540.7 L2233.79 1540.7 L2233.79 1536.19 L2248.16 1514.29 Z" fill="#000000" fill-rule="nonzero" fill-opacity="1" /><path clip-path="url(#clip570)" d="M2276.71 1517.37 Q2273.09 1517.37 2271.27 1520.93 Q2269.46 1524.47 2269.46 1531.6 Q2269.46 1538.71 2271.27 1542.27 Q2273.09 1545.82 2276.71 1545.82 Q2280.34 1545.82 2282.15 1542.27 Q2283.97 1538.71 2283.97 1531.6 Q2283.97 1524.47 2282.15 1520.93 Q2280.34 1517.37 2276.71 1517.37 M2276.71 1513.66 Q2282.52 1513.66 2285.57 1518.27 Q2288.65 1522.85 2288.65 1531.6 Q2288.65 1540.33 2285.57 1544.94 Q2282.52 1549.52 2276.71 1549.52 Q2270.9 1549.52 2267.82 1544.94 Q2264.76 1540.33 2264.76 1531.6 Q2264.76 1522.85 2267.82 1518.27 Q2270.9 1513.66 2276.71 1513.66 Z" fill="#000000" fill-rule="nonzero" fill-opacity="1" /><path clip-path="url(#clip570)" d="M2306.87 1517.37 Q2303.26 1517.37 2301.43 1520.93 Q2299.62 1524.47 2299.62 1531.6 Q2299.62 1538.71 2301.43 1542.27 Q2303.26 1545.82 2306.87 1545.82 Q2310.5 1545.82 2312.31 1542.27 Q2314.14 1538.71 2314.14 1531.6 Q2314.14 1524.47 2312.31 1520.93 Q2310.5 1517.37 2306.87 1517.37 M2306.87 1513.66 Q2312.68 1513.66 2315.73 1518.27 Q2318.81 1522.85 2318.81 1531.6 Q2318.81 1540.33 2315.73 1544.94 Q2312.68 1549.52 2306.87 1549.52 Q2301.06 1549.52 2297.98 1544.94 Q2294.92 1540.33 2294.92 1531.6 Q2294.92 1522.85 2297.98 1518.27 Q2301.06 1513.66 2306.87 1513.66 Z" fill="#000000" fill-rule="nonzero" fill-opacity="1" /><path clip-path="url(#clip570)" d="M2337.03 1517.37 Q2333.42 1517.37 2331.59 1520.93 Q2329.78 1524.47 2329.78 1531.6 Q2329.78 1538.71 2331.59 1542.27 Q2333.42 1545.82 2337.03 1545.82 Q2340.66 1545.82 2342.47 1542.27 Q2344.3 1538.71 2344.3 1531.6 Q2344.3 1524.47 2342.47 1520.93 Q2340.66 1517.37 2337.03 1517.37 M2337.03 1513.66 Q2342.84 1513.66 2345.9 1518.27 Q2348.97 1522.85 2348.97 1531.6 Q2348.97 1540.33 2345.9 1544.94 Q2342.84 1549.52 2337.03 1549.52 Q2331.22 1549.52 2328.14 1544.94 Q2325.08 1540.33 2325.08 1531.6 Q2325.08 1522.85 2328.14 1518.27 Q2331.22 1513.66 2337.03 1513.66 Z" fill="#000000" fill-rule="nonzero" fill-opacity="1" /><polyline clip-path="url(#clip572)" style="stroke:#000000; stroke-linecap:round; stroke-linejoin:round; stroke-width:2; stroke-opacity:0.1; fill:none" points="184.191,1317.44 2352.76,1317.44 "/>
<polyline clip-path="url(#clip572)" style="stroke:#000000; stroke-linecap:round; stroke-linejoin:round; stroke-width:2; stroke-opacity:0.1; fill:none" points="184.191,1060.24 2352.76,1060.24 "/>
<polyline clip-path="url(#clip572)" style="stroke:#000000; stroke-linecap:round; stroke-linejoin:round; stroke-width:2; stroke-opacity:0.1; fill:none" points="184.191,803.048 2352.76,803.048 "/>
<polyline clip-path="url(#clip572)" style="stroke:#000000; stroke-linecap:round; stroke-linejoin:round; stroke-width:2; stroke-opacity:0.1; fill:none" points="184.191,545.854 2352.76,545.854 "/>
<polyline clip-path="url(#clip572)" style="stroke:#000000; stroke-linecap:round; stroke-linejoin:round; stroke-width:2; stroke-opacity:0.1; fill:none" points="184.191,288.66 2352.76,288.66 "/>
<polyline clip-path="url(#clip570)" style="stroke:#000000; stroke-linecap:round; stroke-linejoin:round; stroke-width:4; stroke-opacity:1; fill:none" points="184.191,1486.45 184.191,47.2441 "/>
<polyline clip-path="url(#clip570)" style="stroke:#000000; stroke-linecap:round; stroke-linejoin:round; stroke-width:4; stroke-opacity:1; fill:none" points="184.191,1317.44 203.088,1317.44 "/>
<polyline clip-path="url(#clip570)" style="stroke:#000000; stroke-linecap:round; stroke-linejoin:round; stroke-width:4; stroke-opacity:1; fill:none" points="184.191,1060.24 203.088,1060.24 "/>
<polyline clip-path="url(#clip570)" style="stroke:#000000; stroke-linecap:round; stroke-linejoin:round; stroke-width:4; stroke-opacity:1; fill:none" points="184.191,803.048 203.088,803.048 "/>
<polyline clip-path="url(#clip570)" style="stroke:#000000; stroke-linecap:round; stroke-linejoin:round; stroke-width:4; stroke-opacity:1; fill:none" points="184.191,545.854 203.088,545.854 "/>
<polyline clip-path="url(#clip570)" style="stroke:#000000; stroke-linecap:round; stroke-linejoin:round; stroke-width:4; stroke-opacity:1; fill:none" points="184.191,288.66 203.088,288.66 "/>
<path clip-path="url(#clip570)" d="M51.6634 1330.78 L59.3023 1330.78 L59.3023 1304.42 L50.9921 1306.08 L50.9921 1301.82 L59.256 1300.16 L63.9319 1300.16 L63.9319 1330.78 L71.5707 1330.78 L71.5707 1334.72 L51.6634 1334.72 L51.6634 1330.78 Z" fill="#000000" fill-rule="nonzero" fill-opacity="1" /><path clip-path="url(#clip570)" d="M81.8253 1330.78 L89.4641 1330.78 L89.4641 1304.42 L81.154 1306.08 L81.154 1301.82 L89.4178 1300.16 L94.0937 1300.16 L94.0937 1330.78 L101.733 1330.78 L101.733 1334.72 L81.8253 1334.72 L81.8253 1330.78 Z" fill="#000000" fill-rule="nonzero" fill-opacity="1" /><path clip-path="url(#clip570)" d="M111.177 1328.84 L116.061 1328.84 L116.061 1334.72 L111.177 1334.72 L111.177 1328.84 Z" fill="#000000" fill-rule="nonzero" fill-opacity="1" /><path clip-path="url(#clip570)" d="M136.246 1303.24 Q132.635 1303.24 130.807 1306.8 Q129.001 1310.34 129.001 1317.47 Q129.001 1324.58 130.807 1328.14 Q132.635 1331.68 136.246 1331.68 Q139.881 1331.68 141.686 1328.14 Q143.515 1324.58 143.515 1317.47 Q143.515 1310.34 141.686 1306.8 Q139.881 1303.24 136.246 1303.24 M136.246 1299.53 Q142.056 1299.53 145.112 1304.14 Q148.191 1308.72 148.191 1317.47 Q148.191 1326.2 145.112 1330.8 Q142.056 1335.39 136.246 1335.39 Q130.436 1335.39 127.357 1330.8 Q124.302 1326.2 124.302 1317.47 Q124.302 1308.72 127.357 1304.14 Q130.436 1299.53 136.246 1299.53 Z" fill="#000000" fill-rule="nonzero" fill-opacity="1" /><path clip-path="url(#clip570)" d="M52.6588 1073.59 L60.2976 1073.59 L60.2976 1047.22 L51.9875 1048.89 L51.9875 1044.63 L60.2513 1042.96 L64.9272 1042.96 L64.9272 1073.59 L72.5661 1073.59 L72.5661 1077.52 L52.6588 1077.52 L52.6588 1073.59 Z" fill="#000000" fill-rule="nonzero" fill-opacity="1" /><path clip-path="url(#clip570)" d="M82.8207 1073.59 L90.4595 1073.59 L90.4595 1047.22 L82.1494 1048.89 L82.1494 1044.63 L90.4132 1042.96 L95.0891 1042.96 L95.0891 1073.59 L102.728 1073.59 L102.728 1077.52 L82.8207 1077.52 L82.8207 1073.59 Z" fill="#000000" fill-rule="nonzero" fill-opacity="1" /><path clip-path="url(#clip570)" d="M112.172 1071.64 L117.057 1071.64 L117.057 1077.52 L112.172 1077.52 L112.172 1071.64 Z" fill="#000000" fill-rule="nonzero" fill-opacity="1" /><path clip-path="url(#clip570)" d="M127.288 1042.96 L145.644 1042.96 L145.644 1046.9 L131.57 1046.9 L131.57 1055.37 Q132.589 1055.02 133.607 1054.86 Q134.626 1054.68 135.644 1054.68 Q141.431 1054.68 144.811 1057.85 Q148.191 1061.02 148.191 1066.43 Q148.191 1072.01 144.718 1075.11 Q141.246 1078.19 134.927 1078.19 Q132.751 1078.19 130.482 1077.82 Q128.237 1077.45 125.83 1076.71 L125.83 1072.01 Q127.913 1073.15 130.135 1073.7 Q132.357 1074.26 134.834 1074.26 Q138.839 1074.26 141.177 1072.15 Q143.515 1070.05 143.515 1066.43 Q143.515 1062.82 141.177 1060.72 Q138.839 1058.61 134.834 1058.61 Q132.959 1058.61 131.084 1059.03 Q129.232 1059.44 127.288 1060.32 L127.288 1042.96 Z" fill="#000000" fill-rule="nonzero" fill-opacity="1" /><path clip-path="url(#clip570)" d="M51.6634 816.393 L59.3023 816.393 L59.3023 790.027 L50.9921 791.694 L50.9921 787.435 L59.256 785.768 L63.9319 785.768 L63.9319 816.393 L71.5707 816.393 L71.5707 820.328 L51.6634 820.328 L51.6634 816.393 Z" fill="#000000" fill-rule="nonzero" fill-opacity="1" /><path clip-path="url(#clip570)" d="M85.0429 816.393 L101.362 816.393 L101.362 820.328 L79.4179 820.328 L79.4179 816.393 Q82.0799 813.638 86.6632 809.009 Q91.2697 804.356 92.4502 803.014 Q94.6956 800.49 95.5752 798.754 Q96.478 796.995 96.478 795.305 Q96.478 792.551 94.5336 790.815 Q92.6123 789.078 89.5104 789.078 Q87.3114 789.078 84.8577 789.842 Q82.4271 790.606 79.6494 792.157 L79.6494 787.435 Q82.4734 786.301 84.9271 785.722 Q87.3808 785.143 89.4178 785.143 Q94.7882 785.143 97.9826 787.828 Q101.177 790.514 101.177 795.004 Q101.177 797.134 100.367 799.055 Q99.5798 800.953 97.4734 803.546 Q96.8947 804.217 93.7928 807.435 Q90.691 810.629 85.0429 816.393 Z" fill="#000000" fill-rule="nonzero" fill-opacity="1" /><path clip-path="url(#clip570)" d="M111.177 814.449 L116.061 814.449 L116.061 820.328 L111.177 820.328 L111.177 814.449 Z" fill="#000000" fill-rule="nonzero" fill-opacity="1" /><path clip-path="url(#clip570)" d="M136.246 788.847 Q132.635 788.847 130.807 792.412 Q129.001 795.953 129.001 803.083 Q129.001 810.189 130.807 813.754 Q132.635 817.296 136.246 817.296 Q139.881 817.296 141.686 813.754 Q143.515 810.189 143.515 803.083 Q143.515 795.953 141.686 792.412 Q139.881 788.847 136.246 788.847 M136.246 785.143 Q142.056 785.143 145.112 789.75 Q148.191 794.333 148.191 803.083 Q148.191 811.81 145.112 816.416 Q142.056 821 136.246 821 Q130.436 821 127.357 816.416 Q124.302 811.81 124.302 803.083 Q124.302 794.333 127.357 789.75 Q130.436 785.143 136.246 785.143 Z" fill="#000000" fill-rule="nonzero" fill-opacity="1" /><path clip-path="url(#clip570)" d="M52.6588 559.199 L60.2976 559.199 L60.2976 532.833 L51.9875 534.5 L51.9875 530.241 L60.2513 528.574 L64.9272 528.574 L64.9272 559.199 L72.5661 559.199 L72.5661 563.134 L52.6588 563.134 L52.6588 559.199 Z" fill="#000000" fill-rule="nonzero" fill-opacity="1" /><path clip-path="url(#clip570)" d="M86.0382 559.199 L102.358 559.199 L102.358 563.134 L80.4133 563.134 L80.4133 559.199 Q83.0753 556.444 87.6586 551.815 Q92.2651 547.162 93.4456 545.819 Q95.691 543.296 96.5706 541.56 Q97.4734 539.801 97.4734 538.111 Q97.4734 535.357 95.5289 533.62 Q93.6076 531.884 90.5058 531.884 Q88.3067 531.884 85.8531 532.648 Q83.4225 533.412 80.6447 534.963 L80.6447 530.241 Q83.4688 529.107 85.9225 528.528 Q88.3762 527.949 90.4132 527.949 Q95.7836 527.949 98.978 530.634 Q102.172 533.319 102.172 537.81 Q102.172 539.94 101.362 541.861 Q100.575 543.759 98.4687 546.352 Q97.89 547.023 94.7882 550.241 Q91.6864 553.435 86.0382 559.199 Z" fill="#000000" fill-rule="nonzero" fill-opacity="1" /><path clip-path="url(#clip570)" d="M112.172 557.255 L117.057 557.255 L117.057 563.134 L112.172 563.134 L112.172 557.255 Z" fill="#000000" fill-rule="nonzero" fill-opacity="1" /><path clip-path="url(#clip570)" d="M127.288 528.574 L145.644 528.574 L145.644 532.509 L131.57 532.509 L131.57 540.981 Q132.589 540.634 133.607 540.472 Q134.626 540.287 135.644 540.287 Q141.431 540.287 144.811 543.458 Q148.191 546.63 148.191 552.046 Q148.191 557.625 144.718 560.727 Q141.246 563.805 134.927 563.805 Q132.751 563.805 130.482 563.435 Q128.237 563.065 125.83 562.324 L125.83 557.625 Q127.913 558.759 130.135 559.315 Q132.357 559.87 134.834 559.87 Q138.839 559.87 141.177 557.764 Q143.515 555.657 143.515 552.046 Q143.515 548.435 141.177 546.329 Q138.839 544.222 134.834 544.222 Q132.959 544.222 131.084 544.639 Q129.232 545.056 127.288 545.935 L127.288 528.574 Z" fill="#000000" fill-rule="nonzero" fill-opacity="1" /><path clip-path="url(#clip570)" d="M51.6634 302.005 L59.3023 302.005 L59.3023 275.639 L50.9921 277.306 L50.9921 273.047 L59.256 271.38 L63.9319 271.38 L63.9319 302.005 L71.5707 302.005 L71.5707 305.94 L51.6634 305.94 L51.6634 302.005 Z" fill="#000000" fill-rule="nonzero" fill-opacity="1" /><path clip-path="url(#clip570)" d="M95.1817 287.306 Q98.5382 288.023 100.413 290.292 Q102.311 292.56 102.311 295.894 Q102.311 301.009 98.7928 303.81 Q95.2743 306.611 88.7928 306.611 Q86.6169 306.611 84.3021 306.171 Q82.0105 305.755 79.5568 304.898 L79.5568 300.384 Q81.5012 301.519 83.816 302.097 Q86.1308 302.676 88.654 302.676 Q93.0521 302.676 95.3437 300.94 Q97.6585 299.204 97.6585 295.894 Q97.6585 292.838 95.5058 291.125 Q93.3762 289.389 89.5567 289.389 L85.529 289.389 L85.529 285.547 L89.7419 285.547 Q93.191 285.547 95.0197 284.181 Q96.8484 282.792 96.8484 280.199 Q96.8484 277.537 94.9502 276.125 Q93.0752 274.69 89.5567 274.69 Q87.6354 274.69 85.4364 275.107 Q83.2373 275.524 80.5984 276.403 L80.5984 272.236 Q83.2605 271.496 85.5753 271.125 Q87.9132 270.755 89.9734 270.755 Q95.2974 270.755 98.3993 273.186 Q101.501 275.593 101.501 279.713 Q101.501 282.584 99.8576 284.574 Q98.2141 286.542 95.1817 287.306 Z" fill="#000000" fill-rule="nonzero" fill-opacity="1" /><path clip-path="url(#clip570)" d="M111.177 300.06 L116.061 300.06 L116.061 305.94 L111.177 305.94 L111.177 300.06 Z" fill="#000000" fill-rule="nonzero" fill-opacity="1" /><path clip-path="url(#clip570)" d="M136.246 274.459 Q132.635 274.459 130.807 278.023 Q129.001 281.565 129.001 288.695 Q129.001 295.801 130.807 299.366 Q132.635 302.908 136.246 302.908 Q139.881 302.908 141.686 299.366 Q143.515 295.801 143.515 288.695 Q143.515 281.565 141.686 278.023 Q139.881 274.459 136.246 274.459 M136.246 270.755 Q142.056 270.755 145.112 275.361 Q148.191 279.945 148.191 288.695 Q148.191 297.422 145.112 302.028 Q142.056 306.611 136.246 306.611 Q130.436 306.611 127.357 302.028 Q124.302 297.422 124.302 288.695 Q124.302 279.945 127.357 275.361 Q130.436 270.755 136.246 270.755 Z" fill="#000000" fill-rule="nonzero" fill-opacity="1" /><polyline clip-path="url(#clip572)" style="stroke:#009af9; stroke-linecap:round; stroke-linejoin:round; stroke-width:4; stroke-opacity:1; fill:none" points="245.565,87.9763 246.077,671.618 246.588,911.904 247.1,1040.37 247.611,1122.61 248.122,1181.17 248.634,1225.51 249.145,1260.34 249.657,1288.4 250.168,1311.4 250.68,1330.45 251.191,1346.38 251.703,1359.77 252.214,1371.1 252.726,1380.72 253.237,1388.94 253.748,1395.98 254.26,1402.03 254.771,1407.24 255.283,1411.79 255.794,1415.73 256.306,1419.15 256.817,1422.14 257.329,1424.76 257.84,1427.05 258.352,1429.08 258.863,1430.86 259.374,1432.43 259.886,1433.82 260.397,1435.05 260.909,1436.14 261.42,1437.11 261.932,1437.98 262.443,1438.75 262.955,1439.44 263.466,1440.06 263.978,1440.62 264.489,1441.11 265,1441.55 265.512,1441.95 266.023,1442.31 266.535,1442.64 267.046,1442.93 267.558,1443.19 268.069,1443.42 268.581,1443.63 269.092,1443.83 269.604,1444 270.115,1444.16 270.626,1444.3 271.138,1444.43 271.649,1444.55 272.161,1444.65 272.672,1444.75 273.184,1444.84 273.695,1444.91 274.207,1444.98 274.718,1445.05 275.23,1445.11 275.741,1445.16 276.252,1445.2 276.764,1445.25 277.275,1445.29 277.787,1445.32 278.298,1445.36 278.81,1445.38 279.321,1445.41 279.833,1445.43 280.344,1445.45 280.855,1445.48 281.367,1445.5 281.878,1445.52 282.39,1445.53 282.901,1445.55 283.413,1445.56 283.924,1445.58 284.436,1445.59 284.947,1445.6 285.459,1445.61 285.97,1445.62 286.481,1445.63 286.993,1445.63 287.504,1445.64 288.016,1445.64 288.527,1445.65 289.039,1445.65 289.55,1445.66 290.062,1445.66 290.573,1445.66 291.085,1445.67 291.596,1445.67 292.107,1445.67 292.619,1445.68 293.13,1445.68 293.642,1445.68 294.153,1445.68 294.665,1445.68 295.176,1445.68 295.688,1445.68 296.199,1445.69 296.711,1445.7 297.222,1445.7 297.733,1445.69 298.245,1445.7 298.756,1445.7 299.268,1445.7 299.779,1445.7 300.291,1445.7 300.802,1445.7 301.314,1445.7 301.825,1445.7 302.337,1445.7 302.848,1445.7 303.359,1445.7 303.871,1445.7 304.382,1445.7 304.894,1445.7 305.405,1445.7 305.917,1445.7 306.428,1445.7 306.94,1445.7 307.451,1445.7 307.963,1445.71 308.474,1445.7 308.985,1445.7 309.497,1445.7 310.008,1445.7 310.52,1445.7 311.031,1445.7 311.543,1445.7 312.054,1445.7 312.566,1445.7 313.077,1445.7 313.589,1445.7 314.1,1445.7 314.611,1445.7 315.123,1445.7 315.634,1445.7 316.146,1445.7 316.657,1445.7 317.169,1445.7 317.68,1445.7 318.192,1445.7 318.703,1445.7 319.215,1445.7 319.726,1445.7 320.237,1445.7 320.749,1445.7 321.26,1445.7 321.772,1445.7 322.283,1445.7 322.795,1445.7 323.306,1445.7 323.818,1445.7 324.329,1445.7 324.841,1445.71 325.352,1445.71 325.863,1445.71 326.375,1445.71 326.886,1445.7 327.398,1445.7 327.909,1445.7 328.421,1445.7 328.932,1445.7 329.444,1445.7 329.955,1445.69 330.467,1445.69 330.978,1445.7 331.489,1445.7 332.001,1445.7 332.512,1445.7 333.024,1445.7 333.535,1445.71 334.047,1445.7 334.558,1445.7 335.07,1445.7 335.581,1445.7 336.093,1445.71 336.604,1445.71 337.115,1445.71 337.627,1445.71 338.138,1445.7 338.65,1445.7 339.161,1445.7 339.673,1445.7 340.184,1445.7 340.696,1445.7 341.207,1445.7 341.719,1445.7 342.23,1445.7 342.741,1445.69 343.253,1445.7 343.764,1445.7 344.276,1445.7 344.787,1445.7 345.299,1445.7 345.81,1445.7 346.322,1445.7 346.833,1445.7 347.345,1445.7 347.856,1445.7 348.367,1445.7 348.879,1445.7 349.39,1445.7 349.902,1445.7 350.413,1445.7 350.925,1445.7 351.436,1445.7 351.948,1445.7 352.459,1445.7 352.971,1445.7 353.482,1445.7 353.993,1445.7 354.505,1445.69 355.016,1445.69 355.528,1445.69 356.039,1445.69 356.551,1445.69 357.062,1445.69 357.574,1445.69 358.085,1445.69 358.597,1445.69 359.108,1445.7 359.619,1445.7 360.131,1445.7 360.642,1445.69 361.154,1445.69 361.665,1445.69 362.177,1445.69 362.688,1445.69 363.2,1445.69 363.711,1445.69 364.223,1445.7 364.734,1445.7 365.245,1445.7 365.757,1445.7 366.268,1445.7 366.78,1445.7 367.291,1445.7 367.803,1445.7 368.314,1445.7 368.826,1445.7 369.337,1445.7 369.849,1445.7 370.36,1445.7 370.871,1445.7 371.383,1445.7 371.894,1445.7 372.406,1445.7 372.917,1445.7 373.429,1445.7 373.94,1445.7 374.452,1445.7 374.963,1445.7 375.474,1445.7 375.986,1445.7 376.497,1445.7 377.009,1445.7 377.52,1445.7 378.032,1445.7 378.543,1445.7 379.055,1445.7 379.566,1445.7 380.078,1445.7 380.589,1445.7 381.1,1445.7 381.612,1445.7 382.123,1445.7 382.635,1445.71 383.146,1445.71 383.658,1445.71 384.169,1445.71 384.681,1445.71 385.192,1445.71 385.704,1445.71 386.215,1445.7 386.726,1445.7 387.238,1445.7 387.749,1445.7 388.261,1445.7 388.772,1445.7 389.284,1445.7 389.795,1445.7 390.307,1445.7 390.818,1445.7 391.33,1445.7 391.841,1445.7 392.352,1445.7 392.864,1445.7 393.375,1445.7 393.887,1445.7 394.398,1445.7 394.91,1445.7 395.421,1445.7 395.933,1445.7 396.444,1445.7 396.956,1445.7 397.467,1445.7 397.978,1445.7 398.49,1445.7 399.001,1445.71 399.513,1445.71 400.024,1445.7 400.536,1445.7 401.047,1445.7 401.559,1445.7 402.07,1445.7 402.582,1445.7 403.093,1445.7 403.604,1445.7 404.116,1445.7 404.627,1445.69 405.139,1445.69 405.65,1445.69 406.162,1445.69 406.673,1445.69 407.185,1445.69 407.696,1445.69 408.208,1445.69 408.719,1445.69 409.23,1445.7 409.742,1445.7 410.253,1445.7 410.765,1445.7 411.276,1445.7 411.788,1445.7 412.299,1445.7 412.811,1445.69 413.322,1445.69 413.834,1445.69 414.345,1445.69 414.856,1445.7 415.368,1445.7 415.879,1445.7 416.391,1445.7 416.902,1445.7 417.414,1445.7 417.925,1445.7 418.437,1445.69 418.948,1445.7 419.46,1445.7 419.971,1445.7 420.482,1445.7 420.994,1445.69 421.505,1445.69 422.017,1445.69 422.528,1445.69 423.04,1445.69 423.551,1445.69 424.063,1445.7 424.574,1445.7 425.086,1445.69 425.597,1445.69 426.108,1445.69 426.62,1445.69 427.131,1445.69 427.643,1445.69 428.154,1445.69 428.666,1445.69 429.177,1445.69 429.689,1445.69 430.2,1445.69 430.712,1445.69 431.223,1445.69 431.734,1445.7 432.246,1445.7 432.757,1445.7 433.269,1445.7 433.78,1445.7 434.292,1445.7 434.803,1445.7 435.315,1445.7 435.826,1445.7 436.338,1445.7 436.849,1445.7 437.36,1445.7 437.872,1445.7 438.383,1445.7 438.895,1445.7 439.406,1445.7 439.918,1445.7 440.429,1445.7 440.941,1445.7 441.452,1445.7 441.964,1445.7 442.475,1445.7 442.986,1445.7 443.498,1445.7 444.009,1445.7 444.521,1445.7 445.032,1445.7 445.544,1445.7 446.055,1445.7 446.567,1445.7 447.078,1445.7 447.59,1445.7 448.101,1445.7 448.612,1445.7 449.124,1445.7 449.635,1445.7 450.147,1445.7 450.658,1445.7 451.17,1445.69 451.681,1445.69 452.193,1445.69 452.704,1445.69 453.216,1445.69 453.727,1445.7 454.238,1445.7 454.75,1445.7 455.261,1445.7 455.773,1445.7 456.284,1445.7 456.796,1445.7 457.307,1445.7 457.819,1445.7 458.33,1445.7 458.842,1445.7 459.353,1445.69 459.864,1445.69 460.376,1445.69 460.887,1445.69 461.399,1445.69 461.91,1445.69 462.422,1445.69 462.933,1445.7 463.445,1445.7 463.956,1445.7 464.468,1445.7 464.979,1445.7 465.49,1445.7 466.002,1445.69 466.513,1445.69 467.025,1445.69 467.536,1445.7 468.048,1445.7 468.559,1445.7 469.071,1445.7 469.582,1445.7 470.094,1445.7 470.605,1445.7 471.116,1445.7 471.628,1445.7 472.139,1445.7 472.651,1445.7 473.162,1445.7 473.674,1445.7 474.185,1445.7 474.697,1445.7 475.208,1445.7 475.719,1445.7 476.231,1445.7 476.742,1445.69 477.254,1445.69 477.765,1445.69 478.277,1445.7 478.788,1445.7 479.3,1445.7 479.811,1445.69 480.323,1445.69 480.834,1445.69 481.345,1445.7 481.857,1445.7 482.368,1445.7 482.88,1445.7 483.391,1445.7 483.903,1445.7 484.414,1445.7 484.926,1445.7 485.437,1445.7 485.949,1445.7 486.46,1445.7 486.971,1445.7 487.483,1445.7 487.994,1445.7 488.506,1445.7 489.017,1445.7 489.529,1445.7 490.04,1445.7 490.552,1445.7 491.063,1445.7 491.575,1445.7 492.086,1445.7 492.597,1445.71 493.109,1445.71 493.62,1445.71 494.132,1445.71 494.643,1445.7 495.155,1445.7 495.666,1445.7 496.178,1445.7 496.689,1445.7 497.201,1445.7 497.712,1445.7 498.223,1445.7 498.735,1445.7 499.246,1445.7 499.758,1445.7 500.269,1445.7 500.781,1445.7 501.292,1445.7 501.804,1445.7 502.315,1445.7 502.827,1445.69 503.338,1445.69 503.849,1445.69 504.361,1445.69 504.872,1445.69 505.384,1445.69 505.895,1445.69 506.407,1445.69 506.918,1445.69 507.43,1445.69 507.941,1445.69 508.453,1445.7 508.964,1445.7 509.475,1445.7 509.987,1445.7 510.498,1445.7 511.01,1445.7 511.521,1445.7 512.033,1445.7 512.544,1445.7 513.056,1445.7 513.567,1445.7 514.079,1445.7 514.59,1445.7 515.101,1445.7 515.613,1445.7 516.124,1445.7 516.636,1445.7 517.147,1445.7 517.659,1445.7 518.17,1445.69 518.682,1445.69 519.193,1445.69 519.705,1445.7 520.216,1445.7 520.727,1445.7 521.239,1445.7 521.75,1445.7 522.262,1445.7 522.773,1445.7 523.285,1445.7 523.796,1445.71 524.308,1445.71 524.819,1445.71 525.331,1445.71 525.842,1445.71 526.353,1445.71 526.865,1445.71 527.376,1445.7 527.888,1445.7 528.399,1445.7 528.911,1445.7 529.422,1445.7 529.934,1445.7 530.445,1445.7 530.957,1445.7 531.468,1445.7 531.979,1445.7 532.491,1445.7 533.002,1445.7 533.514,1445.7 534.025,1445.7 534.537,1445.7 535.048,1445.7 535.56,1445.7 536.071,1445.7 536.583,1445.7 537.094,1445.7 537.605,1445.7 538.117,1445.71 538.628,1445.71 539.14,1445.71 539.651,1445.7 540.163,1445.7 540.674,1445.7 541.186,1445.7 541.697,1445.7 542.209,1445.7 542.72,1445.71 543.231,1445.71 543.743,1445.71 544.254,1445.7 544.766,1445.7 545.277,1445.7 545.789,1445.71 546.3,1445.71 546.812,1445.7 547.323,1445.7 547.835,1445.7 548.346,1445.7 548.857,1445.7 549.369,1445.7 549.88,1445.7 550.392,1445.7 550.903,1445.7 551.415,1445.7 551.926,1445.71 552.438,1445.71 552.949,1445.71 553.461,1445.71 553.972,1445.71 554.483,1445.71 554.995,1445.7 555.506,1445.7 556.018,1445.7 556.529,1445.7 557.041,1445.7 557.552,1445.7 558.064,1445.7 558.575,1445.7 559.087,1445.7 559.598,1445.7 560.109,1445.7 560.621,1445.7 561.132,1445.7 561.644,1445.7 562.155,1445.7 562.667,1445.7 563.178,1445.7 563.69,1445.7 564.201,1445.7 564.713,1445.7 565.224,1445.7 565.735,1445.7 566.247,1445.7 566.758,1445.7 567.27,1445.7 567.781,1445.7 568.293,1445.7 568.804,1445.7 569.316,1445.7 569.827,1445.7 570.338,1445.7 570.85,1445.7 571.361,1445.7 571.873,1445.7 572.384,1445.7 572.896,1445.7 573.407,1445.7 573.919,1445.7 574.43,1445.7 574.942,1445.7 575.453,1445.7 575.964,1445.7 576.476,1445.7 576.987,1445.7 577.499,1445.7 578.01,1445.7 578.522,1445.7 579.033,1445.7 579.545,1445.7 580.056,1445.7 580.568,1445.7 581.079,1445.7 581.59,1445.7 582.102,1445.7 582.613,1445.7 583.125,1445.7 583.636,1445.7 584.148,1445.71 584.659,1445.71 585.171,1445.71 585.682,1445.71 586.194,1445.71 586.705,1445.71 587.216,1445.71 587.728,1445.7 588.239,1445.7 588.751,1445.7 589.262,1445.7 589.774,1445.7 590.285,1445.7 590.797,1445.7 591.308,1445.7 591.82,1445.7 592.331,1445.71 592.842,1445.71 593.354,1445.71 593.865,1445.71 594.377,1445.71 594.888,1445.71 595.4,1445.71 595.911,1445.71 596.423,1445.7 596.934,1445.7 597.446,1445.7 597.957,1445.7 598.468,1445.7 598.98,1445.7 599.491,1445.7 600.003,1445.69 600.514,1445.69 601.026,1445.7 601.537,1445.7 602.049,1445.7 602.56,1445.7 603.072,1445.7 603.583,1445.7 604.094,1445.7 604.606,1445.7 605.117,1445.7 605.629,1445.7 606.14,1445.7 606.652,1445.71 607.163,1445.71 607.675,1445.71 608.186,1445.7 608.698,1445.7 609.209,1445.7 609.72,1445.7 610.232,1445.7 610.743,1445.7 611.255,1445.7 611.766,1445.7 612.278,1445.7 612.789,1445.7 613.301,1445.7 613.812,1445.7 614.324,1445.7 614.835,1445.7 615.346,1445.7 615.858,1445.7 616.369,1445.7 616.881,1445.7 617.392,1445.7 617.904,1445.7 618.415,1445.7 618.927,1445.7 619.438,1445.7 619.95,1445.7 620.461,1445.7 620.972,1445.7 621.484,1445.7 621.995,1445.7 622.507,1445.7 623.018,1445.7 623.53,1445.7 624.041,1445.7 624.553,1445.7 625.064,1445.7 625.576,1445.7 626.087,1445.7 626.598,1445.7 627.11,1445.69 627.621,1445.69 628.133,1445.69 628.644,1445.7 629.156,1445.7 629.667,1445.7 630.179,1445.7 630.69,1445.7 631.202,1445.7 631.713,1445.7 632.224,1445.7 632.736,1445.7 633.247,1445.7 633.759,1445.7 634.27,1445.7 634.782,1445.7 635.293,1445.7 635.805,1445.7 636.316,1445.7 636.828,1445.7 637.339,1445.7 637.85,1445.7 638.362,1445.7 638.873,1445.7 639.385,1445.7 639.896,1445.7 640.408,1445.7 640.919,1445.7 641.431,1445.7 641.942,1445.7 642.454,1445.7 642.965,1445.7 643.476,1445.7 643.988,1445.7 644.499,1445.7 645.011,1445.7 645.522,1445.71 646.034,1445.71 646.545,1445.71 647.057,1445.71 647.568,1445.71 648.08,1445.71 648.591,1445.71 649.102,1445.71 649.614,1445.71 650.125,1445.71 650.637,1445.71 651.148,1445.71 651.66,1445.71 652.171,1445.71 652.683,1445.7 653.194,1445.7 653.706,1445.7 654.217,1445.71 654.728,1445.71 655.24,1445.71 655.751,1445.71 656.263,1445.71 656.774,1445.71 657.286,1445.7 657.797,1445.7 658.309,1445.7 658.82,1445.7 659.332,1445.7 659.843,1445.7 660.354,1445.7 660.866,1445.7 661.377,1445.7 661.889,1445.7 662.4,1445.7 662.912,1445.7 663.423,1445.7 663.935,1445.7 664.446,1445.7 664.957,1445.7 665.469,1445.7 665.98,1445.7 666.492,1445.7 667.003,1445.7 667.515,1445.71 668.026,1445.71 668.538,1445.71 669.049,1445.71 669.561,1445.71 670.072,1445.71 670.583,1445.71 671.095,1445.71 671.606,1445.71 672.118,1445.71 672.629,1445.7 673.141,1445.7 673.652,1445.7 674.164,1445.7 674.675,1445.7 675.187,1445.69 675.698,1445.69 676.209,1445.7 676.721,1445.69 677.232,1445.69 677.744,1445.69 678.255,1445.69 678.767,1445.69 679.278,1445.69 679.79,1445.7 680.301,1445.7 680.813,1445.7 681.324,1445.7 681.835,1445.7 682.347,1445.7 682.858,1445.7 683.37,1445.7 683.881,1445.7 684.393,1445.7 684.904,1445.7 685.416,1445.7 685.927,1445.7 686.439,1445.7 686.95,1445.7 687.461,1445.7 687.973,1445.7 688.484,1445.7 688.996,1445.7 689.507,1445.7 690.019,1445.7 690.53,1445.7 691.042,1445.7 691.553,1445.7 692.065,1445.7 692.576,1445.7 693.087,1445.7 693.599,1445.7 694.11,1445.7 694.622,1445.7 695.133,1445.7 695.645,1445.7 696.156,1445.7 696.668,1445.7 697.179,1445.7 697.691,1445.7 698.202,1445.7 698.713,1445.7 699.225,1445.7 699.736,1445.7 700.248,1445.7 700.759,1445.7 701.271,1445.7 701.782,1445.7 702.294,1445.7 702.805,1445.7 703.317,1445.7 703.828,1445.7 704.339,1445.7 704.851,1445.7 705.362,1445.7 705.874,1445.7 706.385,1445.7 706.897,1445.7 707.408,1445.7 707.92,1445.7 708.431,1445.7 708.943,1445.7 709.454,1445.71 709.965,1445.71 710.477,1445.71 710.988,1445.71 711.5,1445.71 712.011,1445.71 712.523,1445.7 713.034,1445.7 713.546,1445.7 714.057,1445.7 714.569,1445.7 715.08,1445.7 715.591,1445.7 716.103,1445.7 716.614,1445.7 717.126,1445.7 717.637,1445.7 718.149,1445.7 718.66,1445.7 719.172,1445.7 719.683,1445.71 720.195,1445.71 720.706,1445.71 721.217,1445.71 721.729,1445.71 722.24,1445.7 722.752,1445.71 723.263,1445.71 723.775,1445.71 724.286,1445.7 724.798,1445.7 725.309,1445.7 725.821,1445.7 726.332,1445.7 726.843,1445.7 727.355,1445.7 727.866,1445.7 728.378,1445.7 728.889,1445.7 729.401,1445.7 729.912,1445.7 730.424,1445.7 730.935,1445.7 731.447,1445.69 731.958,1445.69 732.469,1445.69 732.981,1445.7 733.492,1445.7 734.004,1445.7 734.515,1445.7 735.027,1445.7 735.538,1445.7 736.05,1445.7 736.561,1445.7 737.073,1445.7 737.584,1445.7 738.095,1445.7 738.607,1445.7 739.118,1445.7 739.63,1445.7 740.141,1445.7 740.653,1445.7 741.164,1445.7 741.676,1445.7 742.187,1445.7 742.699,1445.7 743.21,1445.7 743.721,1445.7 744.233,1445.69 744.744,1445.69 745.256,1445.69 745.767,1445.69 746.279,1445.7 746.79,1445.7 747.302,1445.7 747.813,1445.7 748.325,1445.7 748.836,1445.7 749.347,1445.7 749.859,1445.7 750.37,1445.7 750.882,1445.7 751.393,1445.7 751.905,1445.69 752.416,1445.69 752.928,1445.7 753.439,1445.7 753.951,1445.7 754.462,1445.7 754.973,1445.71 755.485,1445.71 755.996,1445.71 756.508,1445.71 757.019,1445.71 757.531,1445.71 758.042,1445.71 758.554,1445.71 759.065,1445.71 759.576,1445.71 760.088,1445.7 760.599,1445.7 761.111,1445.7 761.622,1445.7 762.134,1445.7 762.645,1445.7 763.157,1445.7 763.668,1445.7 764.18,1445.7 764.691,1445.7 765.202,1445.7 765.714,1445.7 766.225,1445.7 766.737,1445.7 767.248,1445.7 767.76,1445.7 768.271,1445.7 768.783,1445.7 769.294,1445.7 769.806,1445.71 770.317,1445.71 770.828,1445.71 771.34,1445.71 771.851,1445.71 772.363,1445.71 772.874,1445.71 773.386,1445.71 773.897,1445.71 774.409,1445.71 774.92,1445.71 775.432,1445.71 775.943,1445.71 776.454,1445.71 776.966,1445.71 777.477,1445.71 777.989,1445.71 778.5,1445.71 779.012,1445.71 779.523,1445.71 780.035,1445.71 780.546,1445.7 781.058,1445.71 781.569,1445.71 782.08,1445.71 782.592,1445.7 783.103,1445.7 783.615,1445.7 784.126,1445.7 784.638,1445.7 785.149,1445.7 785.661,1445.7 786.172,1445.7 786.684,1445.7 787.195,1445.7 787.706,1445.7 788.218,1445.7 788.729,1445.7 789.241,1445.7 789.752,1445.7 790.264,1445.7 790.775,1445.7 791.287,1445.7 791.798,1445.71 792.31,1445.71 792.821,1445.71 793.332,1445.7 793.844,1445.7 794.355,1445.7 794.867,1445.7 795.378,1445.7 795.89,1445.7 796.401,1445.7 796.913,1445.7 797.424,1445.7 797.936,1445.7 798.447,1445.7 798.958,1445.7 799.47,1445.7 799.981,1445.7 800.493,1445.7 801.004,1445.7 801.516,1445.7 802.027,1445.7 802.539,1445.7 803.05,1445.7 803.562,1445.7 804.073,1445.7 804.584,1445.7 805.096,1445.7 805.607,1445.7 806.119,1445.7 806.63,1445.7 807.142,1445.7 807.653,1445.7 808.165,1445.7 808.676,1445.7 809.188,1445.7 809.699,1445.7 810.21,1445.71 810.722,1445.71 811.233,1445.71 811.745,1445.7 812.256,1445.7 812.768,1445.7 813.279,1445.7 813.791,1445.71 814.302,1445.71 814.814,1445.71 815.325,1445.71 815.836,1445.71 816.348,1445.71 816.859,1445.71 817.371,1445.71 817.882,1445.71 818.394,1445.71 818.905,1445.7 819.417,1445.7 819.928,1445.71 820.44,1445.71 820.951,1445.71 821.462,1445.7 821.974,1445.7 822.485,1445.7 822.997,1445.7 823.508,1445.7 824.02,1445.7 824.531,1445.7 825.043,1445.7 825.554,1445.7 826.066,1445.7 826.577,1445.7 827.088,1445.7 827.6,1445.7 828.111,1445.7 828.623,1445.7 829.134,1445.7 829.646,1445.7 830.157,1445.7 830.669,1445.7 831.18,1445.7 831.692,1445.7 832.203,1445.7 832.714,1445.7 833.226,1445.7 833.737,1445.7 834.249,1445.7 834.76,1445.7 835.272,1445.7 835.783,1445.7 836.295,1445.7 836.806,1445.7 837.318,1445.7 837.829,1445.7 838.34,1445.71 838.852,1445.71 839.363,1445.7 839.875,1445.7 840.386,1445.7 840.898,1445.71 841.409,1445.71 841.921,1445.71 842.432,1445.71 842.944,1445.71 843.455,1445.71 843.966,1445.71 844.478,1445.71 844.989,1445.7 845.501,1445.71 846.012,1445.71 846.524,1445.7 847.035,1445.7 847.547,1445.7 848.058,1445.7 848.57,1445.7 849.081,1445.7 849.592,1445.7 850.104,1445.7 850.615,1445.7 851.127,1445.7 851.638,1445.7 852.15,1445.7 852.661,1445.7 853.173,1445.7 853.684,1445.7 854.196,1445.7 854.707,1445.7 855.218,1445.7 855.73,1445.7 856.241,1445.7 856.753,1445.7 857.264,1445.7 857.776,1445.7 858.287,1445.7 858.799,1445.7 859.31,1445.71 859.821,1445.7 860.333,1445.7 860.844,1445.7 861.356,1445.7 861.867,1445.7 862.379,1445.7 862.89,1445.7 863.402,1445.7 863.913,1445.7 864.425,1445.7 864.936,1445.7 865.447,1445.7 865.959,1445.7 866.47,1445.7 866.982,1445.7 867.493,1445.7 868.005,1445.7 868.516,1445.7 869.028,1445.7 869.539,1445.7 870.051,1445.7 870.562,1445.7 871.073,1445.7 871.585,1445.7 872.096,1445.7 872.608,1445.7 873.119,1445.7 873.631,1445.7 874.142,1445.7 874.654,1445.7 875.165,1445.7 875.677,1445.7 876.188,1445.7 876.699,1445.7 877.211,1445.7 877.722,1445.7 878.234,1445.7 878.745,1445.7 879.257,1445.7 879.768,1445.7 880.28,1445.7 880.791,1445.7 881.303,1445.7 881.814,1445.7 882.325,1445.7 882.837,1445.7 883.348,1445.7 883.86,1445.7 884.371,1445.7 884.883,1445.69 885.394,1445.7 885.906,1445.7 886.417,1445.7 886.929,1445.7 887.44,1445.7 887.951,1445.7 888.463,1445.7 888.974,1445.7 889.486,1445.7 889.997,1445.7 890.509,1445.7 891.02,1445.7 891.532,1445.7 892.043,1445.7 892.555,1445.7 893.066,1445.7 893.577,1445.7 894.089,1445.7 894.6,1445.7 895.112,1445.7 895.623,1445.7 896.135,1445.7 896.646,1445.7 897.158,1445.7 897.669,1445.7 898.181,1445.7 898.692,1445.7 899.203,1445.7 899.715,1445.7 900.226,1445.7 900.738,1445.7 901.249,1445.7 901.761,1445.7 902.272,1445.7 902.784,1445.7 903.295,1445.7 903.807,1445.7 904.318,1445.7 904.829,1445.7 905.341,1445.7 905.852,1445.7 906.364,1445.7 906.875,1445.7 907.387,1445.71 907.898,1445.7 908.41,1445.7 908.921,1445.7 909.433,1445.7 909.944,1445.7 910.455,1445.7 910.967,1445.7 911.478,1445.7 911.99,1445.7 912.501,1445.7 913.013,1445.7 913.524,1445.7 914.036,1445.7 914.547,1445.7 915.059,1445.7 915.57,1445.7 916.081,1445.7 916.593,1445.7 917.104,1445.7 917.616,1445.7 918.127,1445.7 918.639,1445.7 919.15,1445.7 919.662,1445.7 920.173,1445.7 920.685,1445.7 921.196,1445.7 921.707,1445.7 922.219,1445.7 922.73,1445.7 923.242,1445.7 923.753,1445.7 924.265,1445.7 924.776,1445.7 925.288,1445.7 925.799,1445.7 926.311,1445.7 926.822,1445.7 927.333,1445.7 927.845,1445.7 928.356,1445.7 928.868,1445.7 929.379,1445.7 929.891,1445.7 930.402,1445.7 930.914,1445.7 931.425,1445.7 931.937,1445.7 932.448,1445.7 932.959,1445.7 933.471,1445.7 933.982,1445.7 934.494,1445.7 935.005,1445.7 935.517,1445.7 936.028,1445.7 936.54,1445.71 937.051,1445.71 937.563,1445.71 938.074,1445.71 938.585,1445.71 939.097,1445.71 939.608,1445.71 940.12,1445.71 940.631,1445.7 941.143,1445.7 941.654,1445.7 942.166,1445.7 942.677,1445.7 943.189,1445.7 943.7,1445.7 944.211,1445.7 944.723,1445.7 945.234,1445.7 945.746,1445.7 946.257,1445.7 946.769,1445.7 947.28,1445.7 947.792,1445.7 948.303,1445.7 948.815,1445.7 949.326,1445.7 949.837,1445.7 950.349,1445.7 950.86,1445.7 951.372,1445.7 951.883,1445.7 952.395,1445.7 952.906,1445.7 953.418,1445.7 953.929,1445.7 954.44,1445.7 954.952,1445.7 955.463,1445.7 955.975,1445.7 956.486,1445.7 956.998,1445.7 957.509,1445.7 958.021,1445.7 958.532,1445.7 959.044,1445.7 959.555,1445.7 960.066,1445.7 960.578,1445.71 961.089,1445.71 961.601,1445.71 962.112,1445.71 962.624,1445.71 963.135,1445.71 963.647,1445.7 964.158,1445.7 964.67,1445.7 965.181,1445.7 965.692,1445.7 966.204,1445.7 966.715,1445.7 967.227,1445.7 967.738,1445.7 968.25,1445.7 968.761,1445.7 969.273,1445.7 969.784,1445.7 970.296,1445.7 970.807,1445.7 971.318,1445.7 971.83,1445.7 972.341,1445.7 972.853,1445.7 973.364,1445.7 973.876,1445.7 974.387,1445.7 974.899,1445.7 975.41,1445.7 975.922,1445.7 976.433,1445.7 976.944,1445.7 977.456,1445.7 977.967,1445.7 978.479,1445.7 978.99,1445.7 979.502,1445.7 980.013,1445.7 980.525,1445.7 981.036,1445.7 981.548,1445.7 982.059,1445.7 982.57,1445.7 983.082,1445.71 983.593,1445.71 984.105,1445.7 984.616,1445.71 985.128,1445.71 985.639,1445.71 986.151,1445.71 986.662,1445.71 987.174,1445.71 987.685,1445.71 988.196,1445.71 988.708,1445.71 989.219,1445.7 989.731,1445.7 990.242,1445.7 990.754,1445.7 991.265,1445.7 991.777,1445.71 992.288,1445.71 992.8,1445.71 993.311,1445.71 993.822,1445.7 994.334,1445.7 994.845,1445.7 995.357,1445.7 995.868,1445.7 996.38,1445.7 996.891,1445.7 997.403,1445.7 997.914,1445.7 998.426,1445.71 998.937,1445.7 999.448,1445.7 999.96,1445.7 1000.47,1445.7 1000.98,1445.7 1001.49,1445.7 1002.01,1445.7 1002.52,1445.7 1003.03,1445.7 1003.54,1445.7 1004.05,1445.7 1004.56,1445.7 1005.07,1445.7 1005.59,1445.7 1006.1,1445.7 1006.61,1445.7 1007.12,1445.7 1007.63,1445.7 1008.14,1445.71 1008.65,1445.71 1009.17,1445.71 1009.68,1445.7 1010.19,1445.7 1010.7,1445.7 1011.21,1445.7 1011.72,1445.7 1012.23,1445.7 1012.75,1445.7 1013.26,1445.71 1013.77,1445.71 1014.28,1445.7 1014.79,1445.7 1015.3,1445.7 1015.81,1445.7 1016.33,1445.7 1016.84,1445.7 1017.35,1445.7 1017.86,1445.7 1018.37,1445.7 1018.88,1445.7 1019.4,1445.7 1019.91,1445.7 1020.42,1445.7 1020.93,1445.7 1021.44,1445.7 1021.95,1445.7 1022.46,1445.7 1022.98,1445.69 1023.49,1445.69 1024,1445.69 1024.51,1445.7 1025.02,1445.7 1025.53,1445.7 1026.04,1445.7 1026.56,1445.7 1027.07,1445.7 1027.58,1445.7 1028.09,1445.7 1028.6,1445.7 1029.11,1445.7 1029.62,1445.7 1030.14,1445.7 1030.65,1445.7 1031.16,1445.7 1031.67,1445.7 1032.18,1445.7 1032.69,1445.7 1033.2,1445.7 1033.72,1445.7 1034.23,1445.71 1034.74,1445.71 1035.25,1445.71 1035.76,1445.7 1036.27,1445.7 1036.78,1445.7 1037.3,1445.7 1037.81,1445.7 1038.32,1445.71 1038.83,1445.7 1039.34,1445.7 1039.85,1445.71 1040.36,1445.71 1040.88,1445.71 1041.39,1445.71 1041.9,1445.71 1042.41,1445.71 1042.92,1445.71 1043.43,1445.7 1043.94,1445.7 1044.46,1445.7 1044.97,1445.71 1045.48,1445.71 1045.99,1445.71 1046.5,1445.71 1047.01,1445.71 1047.53,1445.7 1048.04,1445.7 1048.55,1445.7 1049.06,1445.7 1049.57,1445.7 1050.08,1445.7 1050.59,1445.7 1051.11,1445.7 1051.62,1445.7 1052.13,1445.7 1052.64,1445.7 1053.15,1445.7 1053.66,1445.7 1054.17,1445.7 1054.69,1445.7 1055.2,1445.7 1055.71,1445.7 1056.22,1445.7 1056.73,1445.7 1057.24,1445.7 1057.75,1445.7 1058.27,1445.7 1058.78,1445.7 1059.29,1445.7 1059.8,1445.7 1060.31,1445.7 1060.82,1445.7 1061.33,1445.7 1061.85,1445.7 1062.36,1445.7 1062.87,1445.7 1063.38,1445.7 1063.89,1445.7 1064.4,1445.7 1064.91,1445.7 1065.43,1445.7 1065.94,1445.7 1066.45,1445.7 1066.96,1445.7 1067.47,1445.7 1067.98,1445.7 1068.49,1445.7 1069.01,1445.7 1069.52,1445.7 1070.03,1445.7 1070.54,1445.7 1071.05,1445.7 1071.56,1445.7 1072.07,1445.7 1072.59,1445.7 1073.1,1445.7 1073.61,1445.71 1074.12,1445.71 1074.63,1445.71 1075.14,1445.71 1075.66,1445.71 1076.17,1445.71 1076.68,1445.71 1077.19,1445.71 1077.7,1445.71 1078.21,1445.71 1078.72,1445.71 1079.24,1445.71 1079.75,1445.7 1080.26,1445.7 1080.77,1445.7 1081.28,1445.7 1081.79,1445.7 1082.3,1445.7 1082.82,1445.7 1083.33,1445.7 1083.84,1445.7 1084.35,1445.7 1084.86,1445.7 1085.37,1445.7 1085.88,1445.7 1086.4,1445.7 1086.91,1445.7 1087.42,1445.7 1087.93,1445.7 1088.44,1445.7 1088.95,1445.7 1089.46,1445.7 1089.98,1445.7 1090.49,1445.7 1091,1445.7 1091.51,1445.7 1092.02,1445.7 1092.53,1445.7 1093.04,1445.7 1093.56,1445.7 1094.07,1445.7 1094.58,1445.7 1095.09,1445.7 1095.6,1445.7 1096.11,1445.7 1096.62,1445.7 1097.14,1445.7 1097.65,1445.7 1098.16,1445.7 1098.67,1445.7 1099.18,1445.7 1099.69,1445.7 1100.2,1445.7 1100.72,1445.7 1101.23,1445.7 1101.74,1445.7 1102.25,1445.7 1102.76,1445.7 1103.27,1445.7 1103.79,1445.7 1104.3,1445.7 1104.81,1445.7 1105.32,1445.7 1105.83,1445.7 1106.34,1445.7 1106.85,1445.7 1107.37,1445.7 1107.88,1445.7 1108.39,1445.7 1108.9,1445.7 1109.41,1445.7 1109.92,1445.7 1110.43,1445.7 1110.95,1445.7 1111.46,1445.7 1111.97,1445.7 1112.48,1445.7 1112.99,1445.7 1113.5,1445.7 1114.01,1445.71 1114.53,1445.7 1115.04,1445.7 1115.55,1445.7 1116.06,1445.7 1116.57,1445.7 1117.08,1445.7 1117.59,1445.7 1118.11,1445.7 1118.62,1445.7 1119.13,1445.7 1119.64,1445.7 1120.15,1445.7 1120.66,1445.7 1121.17,1445.7 1121.69,1445.71 1122.2,1445.71 1122.71,1445.71 1123.22,1445.7 1123.73,1445.7 1124.24,1445.7 1124.75,1445.7 1125.27,1445.71 1125.78,1445.7 1126.29,1445.7 1126.8,1445.7 1127.31,1445.7 1127.82,1445.7 1128.33,1445.7 1128.85,1445.7 1129.36,1445.7 1129.87,1445.7 1130.38,1445.7 1130.89,1445.7 1131.4,1445.71 1131.92,1445.7 1132.43,1445.7 1132.94,1445.7 1133.45,1445.7 1133.96,1445.7 1134.47,1445.7 1134.98,1445.7 1135.5,1445.7 1136.01,1445.7 1136.52,1445.7 1137.03,1445.7 1137.54,1445.7 1138.05,1445.7 1138.56,1445.7 1139.08,1445.7 1139.59,1445.7 1140.1,1445.7 1140.61,1445.7 1141.12,1445.7 1141.63,1445.7 1142.14,1445.71 1142.66,1445.71 1143.17,1445.71 1143.68,1445.71 1144.19,1445.71 1144.7,1445.71 1145.21,1445.71 1145.72,1445.71 1146.24,1445.71 1146.75,1445.71 1147.26,1445.7 1147.77,1445.7 1148.28,1445.7 1148.79,1445.7 1149.3,1445.7 1149.82,1445.7 1150.33,1445.7 1150.84,1445.7 1151.35,1445.7 1151.86,1445.7 1152.37,1445.7 1152.88,1445.7 1153.4,1445.71 1153.91,1445.71 1154.42,1445.7 1154.93,1445.7 1155.44,1445.7 1155.95,1445.7 1156.46,1445.7 1156.98,1445.69 1157.49,1445.69 1158,1445.69 1158.51,1445.69 1159.02,1445.69 1159.53,1445.69 1160.05,1445.69 1160.56,1445.69 1161.07,1445.69 1161.58,1445.69 1162.09,1445.69 1162.6,1445.69 1163.11,1445.69 1163.63,1445.69 1164.14,1445.7 1164.65,1445.69 1165.16,1445.69 1165.67,1445.7 1166.18,1445.7 1166.69,1445.7 1167.21,1445.7 1167.72,1445.7 1168.23,1445.7 1168.74,1445.7 1169.25,1445.7 1169.76,1445.7 1170.27,1445.7 1170.79,1445.7 1171.3,1445.7 1171.81,1445.7 1172.32,1445.7 1172.83,1445.7 1173.34,1445.7 1173.85,1445.7 1174.37,1445.7 1174.88,1445.7 1175.39,1445.7 1175.9,1445.7 1176.41,1445.7 1176.92,1445.7 1177.43,1445.7 1177.95,1445.7 1178.46,1445.69 1178.97,1445.69 1179.48,1445.69 1179.99,1445.69 1180.5,1445.69 1181.01,1445.7 1181.53,1445.7 1182.04,1445.7 1182.55,1445.69 1183.06,1445.7 1183.57,1445.7 1184.08,1445.7 1184.59,1445.7 1185.11,1445.7 1185.62,1445.7 1186.13,1445.7 1186.64,1445.7 1187.15,1445.7 1187.66,1445.7 1188.18,1445.69 1188.69,1445.69 1189.2,1445.7 1189.71,1445.7 1190.22,1445.7 1190.73,1445.69 1191.24,1445.7 1191.76,1445.7 1192.27,1445.7 1192.78,1445.7 1193.29,1445.69 1193.8,1445.69 1194.31,1445.69 1194.82,1445.69 1195.34,1445.7 1195.85,1445.7 1196.36,1445.7 1196.87,1445.69 1197.38,1445.69 1197.89,1445.7 1198.4,1445.7 1198.92,1445.7 1199.43,1445.7 1199.94,1445.7 1200.45,1445.7 1200.96,1445.7 1201.47,1445.7 1201.98,1445.7 1202.5,1445.7 1203.01,1445.7 1203.52,1445.7 1204.03,1445.7 1204.54,1445.7 1205.05,1445.7 1205.56,1445.71 1206.08,1445.71 1206.59,1445.7 1207.1,1445.7 1207.61,1445.7 1208.12,1445.7 1208.63,1445.71 1209.14,1445.71 1209.66,1445.71 1210.17,1445.71 1210.68,1445.71 1211.19,1445.71 1211.7,1445.71 1212.21,1445.71 1212.72,1445.71 1213.24,1445.7 1213.75,1445.7 1214.26,1445.7 1214.77,1445.7 1215.28,1445.7 1215.79,1445.7 1216.3,1445.7 1216.82,1445.7 1217.33,1445.69 1217.84,1445.7 1218.35,1445.7 1218.86,1445.7 1219.37,1445.7 1219.89,1445.7 1220.4,1445.7 1220.91,1445.7 1221.42,1445.7 1221.93,1445.69 1222.44,1445.69 1222.95,1445.7 1223.47,1445.7 1223.98,1445.7 1224.49,1445.7 1225,1445.7 1225.51,1445.69 1226.02,1445.7 1226.53,1445.7 1227.05,1445.7 1227.56,1445.7 1228.07,1445.7 1228.58,1445.7 1229.09,1445.7 1229.6,1445.7 1230.11,1445.7 1230.63,1445.7 1231.14,1445.7 1231.65,1445.7 1232.16,1445.7 1232.67,1445.69 1233.18,1445.69 1233.69,1445.69 1234.21,1445.69 1234.72,1445.69 1235.23,1445.69 1235.74,1445.69 1236.25,1445.69 1236.76,1445.69 1237.27,1445.69 1237.79,1445.69 1238.3,1445.7 1238.81,1445.7 1239.32,1445.7 1239.83,1445.7 1240.34,1445.7 1240.85,1445.7 1241.37,1445.7 1241.88,1445.7 1242.39,1445.7 1242.9,1445.7 1243.41,1445.7 1243.92,1445.7 1244.43,1445.7 1244.95,1445.7 1245.46,1445.7 1245.97,1445.7 1246.48,1445.7 1246.99,1445.7 1247.5,1445.7 1248.02,1445.7 1248.53,1445.7 1249.04,1445.7 1249.55,1445.7 1250.06,1445.7 1250.57,1445.7 1251.08,1445.7 1251.6,1445.7 1252.11,1445.7 1252.62,1445.7 1253.13,1445.7 1253.64,1445.7 1254.15,1445.7 1254.66,1445.7 1255.18,1445.7 1255.69,1445.7 1256.2,1445.7 1256.71,1445.7 1257.22,1445.7 1257.73,1445.7 1258.24,1445.7 1258.76,1445.7 1259.27,1445.7 1259.78,1445.7 1260.29,1445.7 1260.8,1445.7 1261.31,1445.7 1261.82,1445.7 1262.34,1445.7 1262.85,1445.7 1263.36,1445.7 1263.87,1445.7 1264.38,1445.7 1264.89,1445.7 1265.4,1445.7 1265.92,1445.7 1266.43,1445.7 1266.94,1445.7 1267.45,1445.7 1267.96,1445.7 1268.47,1445.7 1268.98,1445.7 1269.5,1445.7 1270.01,1445.7 1270.52,1445.7 1271.03,1445.7 1271.54,1445.7 1272.05,1445.7 1272.56,1445.7 1273.08,1445.7 1273.59,1445.7 1274.1,1445.7 1274.61,1445.7 1275.12,1445.7 1275.63,1445.71 1276.15,1445.7 1276.66,1445.7 1277.17,1445.7 1277.68,1445.7 1278.19,1445.71 1278.7,1445.71 1279.21,1445.71 1279.73,1445.7 1280.24,1445.7 1280.75,1445.7 1281.26,1445.7 1281.77,1445.7 1282.28,1445.71 1282.79,1445.71 1283.31,1445.71 1283.82,1445.7 1284.33,1445.7 1284.84,1445.7 1285.35,1445.7 1285.86,1445.7 1286.37,1445.7 1286.89,1445.7 1287.4,1445.7 1287.91,1445.7 1288.42,1445.7 1288.93,1445.7 1289.44,1445.7 1289.95,1445.7 1290.47,1445.71 1290.98,1445.71 1291.49,1445.71 1292,1445.71 1292.51,1445.7 1293.02,1445.7 1293.53,1445.7 1294.05,1445.7 1294.56,1445.7 1295.07,1445.7 1295.58,1445.7 1296.09,1445.7 1296.6,1445.7 1297.11,1445.7 1297.63,1445.7 1298.14,1445.7 1298.65,1445.7 1299.16,1445.7 1299.67,1445.7 1300.18,1445.7 1300.69,1445.7 1301.21,1445.71 1301.72,1445.71 1302.23,1445.71 1302.74,1445.71 1303.25,1445.71 1303.76,1445.71 1304.28,1445.71 1304.79,1445.7 1305.3,1445.7 1305.81,1445.7 1306.32,1445.7 1306.83,1445.7 1307.34,1445.7 1307.86,1445.7 1308.37,1445.7 1308.88,1445.7 1309.39,1445.7 1309.9,1445.7 1310.41,1445.7 1310.92,1445.7 1311.44,1445.7 1311.95,1445.7 1312.46,1445.71 1312.97,1445.7 1313.48,1445.7 1313.99,1445.7 1314.5,1445.71 1315.02,1445.71 1315.53,1445.71 1316.04,1445.71 1316.55,1445.71 1317.06,1445.7 1317.57,1445.7 1318.08,1445.7 1318.6,1445.7 1319.11,1445.7 1319.62,1445.69 1320.13,1445.69 1320.64,1445.69 1321.15,1445.7 1321.66,1445.7 1322.18,1445.7 1322.69,1445.7 1323.2,1445.7 1323.71,1445.71 1324.22,1445.7 1324.73,1445.7 1325.24,1445.7 1325.76,1445.7 1326.27,1445.7 1326.78,1445.7 1327.29,1445.7 1327.8,1445.7 1328.31,1445.7 1328.82,1445.71 1329.34,1445.7 1329.85,1445.7 1330.36,1445.7 1330.87,1445.7 1331.38,1445.71 1331.89,1445.71 1332.41,1445.71 1332.92,1445.71 1333.43,1445.71 1333.94,1445.71 1334.45,1445.71 1334.96,1445.71 1335.47,1445.7 1335.99,1445.7 1336.5,1445.7 1337.01,1445.7 1337.52,1445.7 1338.03,1445.7 1338.54,1445.7 1339.05,1445.7 1339.57,1445.7 1340.08,1445.7 1340.59,1445.7 1341.1,1445.71 1341.61,1445.7 1342.12,1445.7 1342.63,1445.7 1343.15,1445.7 1343.66,1445.7 1344.17,1445.7 1344.68,1445.7 1345.19,1445.7 1345.7,1445.7 1346.21,1445.7 1346.73,1445.7 1347.24,1445.7 1347.75,1445.7 1348.26,1445.7 1348.77,1445.7 1349.28,1445.7 1349.79,1445.7 1350.31,1445.7 1350.82,1445.7 1351.33,1445.7 1351.84,1445.7 1352.35,1445.7 1352.86,1445.7 1353.37,1445.7 1353.89,1445.7 1354.4,1445.7 1354.91,1445.7 1355.42,1445.7 1355.93,1445.7 1356.44,1445.7 1356.95,1445.7 1357.47,1445.7 1357.98,1445.7 1358.49,1445.7 1359,1445.71 1359.51,1445.71 1360.02,1445.71 1360.54,1445.7 1361.05,1445.7 1361.56,1445.7 1362.07,1445.7 1362.58,1445.7 1363.09,1445.71 1363.6,1445.71 1364.12,1445.71 1364.63,1445.71 1365.14,1445.71 1365.65,1445.71 1366.16,1445.71 1366.67,1445.71 1367.18,1445.71 1367.7,1445.71 1368.21,1445.71 1368.72,1445.71 1369.23,1445.71 1369.74,1445.71 1370.25,1445.71 1370.76,1445.7 1371.28,1445.7 1371.79,1445.7 1372.3,1445.7 1372.81,1445.7 1373.32,1445.7 1373.83,1445.71 1374.34,1445.7 1374.86,1445.7 1375.37,1445.7 1375.88,1445.71 1376.39,1445.7 1376.9,1445.7 1377.41,1445.7 1377.92,1445.7 1378.44,1445.7 1378.95,1445.7 1379.46,1445.7 1379.97,1445.71 1380.48,1445.71 1380.99,1445.71 1381.5,1445.7 1382.02,1445.7 1382.53,1445.7 1383.04,1445.7 1383.55,1445.7 1384.06,1445.7 1384.57,1445.7 1385.08,1445.7 1385.6,1445.7 1386.11,1445.71 1386.62,1445.71 1387.13,1445.71 1387.64,1445.71 1388.15,1445.7 1388.66,1445.71 1389.18,1445.71 1389.69,1445.71 1390.2,1445.7 1390.71,1445.71 1391.22,1445.71 1391.73,1445.71 1392.25,1445.71 1392.76,1445.71 1393.27,1445.71 1393.78,1445.7 1394.29,1445.7 1394.8,1445.7 1395.31,1445.7 1395.83,1445.7 1396.34,1445.7 1396.85,1445.7 1397.36,1445.71 1397.87,1445.7 1398.38,1445.7 1398.89,1445.7 1399.41,1445.7 1399.92,1445.7 1400.43,1445.7 1400.94,1445.69 1401.45,1445.69 1401.96,1445.69 1402.47,1445.69 1402.99,1445.7 1403.5,1445.7 1404.01,1445.7 1404.52,1445.71 1405.03,1445.71 1405.54,1445.71 1406.05,1445.71 1406.57,1445.71 1407.08,1445.71 1407.59,1445.71 1408.1,1445.71 1408.61,1445.71 1409.12,1445.71 1409.63,1445.7 1410.15,1445.7 1410.66,1445.7 1411.17,1445.7 1411.68,1445.7 1412.19,1445.7 1412.7,1445.7 1413.21,1445.71 1413.73,1445.71 1414.24,1445.71 1414.75,1445.71 1415.26,1445.71 1415.77,1445.71 1416.28,1445.71 1416.79,1445.7 1417.31,1445.7 1417.82,1445.7 1418.33,1445.7 1418.84,1445.7 1419.35,1445.7 1419.86,1445.7 1420.38,1445.7 1420.89,1445.7 1421.4,1445.7 1421.91,1445.7 1422.42,1445.7 1422.93,1445.69 1423.44,1445.7 1423.96,1445.7 1424.47,1445.7 1424.98,1445.7 1425.49,1445.7 1426,1445.7 1426.51,1445.7 1427.02,1445.69 1427.54,1445.69 1428.05,1445.69 1428.56,1445.69 1429.07,1445.69 1429.58,1445.69 1430.09,1445.7 1430.6,1445.7 1431.12,1445.7 1431.63,1445.7 1432.14,1445.69 1432.65,1445.7 1433.16,1445.7 1433.67,1445.7 1434.18,1445.7 1434.7,1445.7 1435.21,1445.7 1435.72,1445.7 1436.23,1445.7 1436.74,1445.7 1437.25,1445.7 1437.76,1445.7 1438.28,1445.7 1438.79,1445.7 1439.3,1445.7 1439.81,1445.7 1440.32,1445.7 1440.83,1445.7 1441.34,1445.7 1441.86,1445.7 1442.37,1445.71 1442.88,1445.71 1443.39,1445.71 1443.9,1445.7 1444.41,1445.7 1444.92,1445.7 1445.44,1445.7 1445.95,1445.7 1446.46,1445.7 1446.97,1445.7 1447.48,1445.7 1447.99,1445.7 1448.51,1445.7 1449.02,1445.7 1449.53,1445.7 1450.04,1445.7 1450.55,1445.7 1451.06,1445.7 1451.57,1445.7 1452.09,1445.7 1452.6,1445.7 1453.11,1445.7 1453.62,1445.7 1454.13,1445.7 1454.64,1445.7 1455.15,1445.7 1455.67,1445.7 1456.18,1445.7 1456.69,1445.7 1457.2,1445.7 1457.71,1445.7 1458.22,1445.7 1458.73,1445.7 1459.25,1445.7 1459.76,1445.71 1460.27,1445.7 1460.78,1445.7 1461.29,1445.7 1461.8,1445.7 1462.31,1445.7 1462.83,1445.7 1463.34,1445.7 1463.85,1445.7 1464.36,1445.7 1464.87,1445.7 1465.38,1445.7 1465.89,1445.7 1466.41,1445.7 1466.92,1445.7 1467.43,1445.7 1467.94,1445.7 1468.45,1445.7 1468.96,1445.7 1469.47,1445.7 1469.99,1445.7 1470.5,1445.7 1471.01,1445.7 1471.52,1445.7 1472.03,1445.7 1472.54,1445.7 1473.05,1445.7 1473.57,1445.69 1474.08,1445.69 1474.59,1445.69 1475.1,1445.69 1475.61,1445.7 1476.12,1445.7 1476.64,1445.7 1477.15,1445.7 1477.66,1445.7 1478.17,1445.7 1478.68,1445.7 1479.19,1445.7 1479.7,1445.7 1480.22,1445.7 1480.73,1445.7 1481.24,1445.7 1481.75,1445.7 1482.26,1445.7 1482.77,1445.7 1483.28,1445.7 1483.8,1445.7 1484.31,1445.7 1484.82,1445.7 1485.33,1445.7 1485.84,1445.7 1486.35,1445.7 1486.86,1445.71 1487.38,1445.71 1487.89,1445.7 1488.4,1445.7 1488.91,1445.7 1489.42,1445.7 1489.93,1445.7 1490.44,1445.7 1490.96,1445.7 1491.47,1445.7 1491.98,1445.7 1492.49,1445.7 1493,1445.7 1493.51,1445.7 1494.02,1445.7 1494.54,1445.7 1495.05,1445.7 1495.56,1445.7 1496.07,1445.7 1496.58,1445.7 1497.09,1445.7 1497.6,1445.7 1498.12,1445.7 1498.63,1445.7 1499.14,1445.71 1499.65,1445.71 1500.16,1445.71 1500.67,1445.71 1501.18,1445.71 1501.7,1445.71 1502.21,1445.71 1502.72,1445.7 1503.23,1445.7 1503.74,1445.7 1504.25,1445.7 1504.77,1445.7 1505.28,1445.7 1505.79,1445.7 1506.3,1445.7 1506.81,1445.7 1507.32,1445.7 1507.83,1445.7 1508.35,1445.7 1508.86,1445.7 1509.37,1445.7 1509.88,1445.7 1510.39,1445.7 1510.9,1445.7 1511.41,1445.7 1511.93,1445.7 1512.44,1445.7 1512.95,1445.7 1513.46,1445.71 1513.97,1445.71 1514.48,1445.71 1514.99,1445.71 1515.51,1445.71 1516.02,1445.7 1516.53,1445.7 1517.04,1445.7 1517.55,1445.71 1518.06,1445.71 1518.57,1445.71 1519.09,1445.7 1519.6,1445.7 1520.11,1445.7 1520.62,1445.7 1521.13,1445.7 1521.64,1445.7 1522.15,1445.7 1522.67,1445.7 1523.18,1445.7 1523.69,1445.7 1524.2,1445.7 1524.71,1445.7 1525.22,1445.7 1525.73,1445.7 1526.25,1445.7 1526.76,1445.7 1527.27,1445.71 1527.78,1445.7 1528.29,1445.7 1528.8,1445.7 1529.31,1445.7 1529.83,1445.7 1530.34,1445.7 1530.85,1445.7 1531.36,1445.7 1531.87,1445.7 1532.38,1445.7 1532.9,1445.7 1533.41,1445.7 1533.92,1445.7 1534.43,1445.7 1534.94,1445.7 1535.45,1445.7 1535.96,1445.7 1536.48,1445.7 1536.99,1445.7 1537.5,1445.69 1538.01,1445.7 1538.52,1445.7 1539.03,1445.7 1539.54,1445.7 1540.06,1445.7 1540.57,1445.71 1541.08,1445.71 1541.59,1445.71 1542.1,1445.7 1542.61,1445.7 1543.12,1445.7 1543.64,1445.7 1544.15,1445.7 1544.66,1445.7 1545.17,1445.71 1545.68,1445.71 1546.19,1445.71 1546.7,1445.71 1547.22,1445.7 1547.73,1445.7 1548.24,1445.7 1548.75,1445.7 1549.26,1445.7 1549.77,1445.7 1550.28,1445.7 1550.8,1445.7 1551.31,1445.7 1551.82,1445.7 1552.33,1445.69 1552.84,1445.69 1553.35,1445.7 1553.86,1445.7 1554.38,1445.7 1554.89,1445.7 1555.4,1445.7 1555.91,1445.7 1556.42,1445.7 1556.93,1445.7 1557.44,1445.7 1557.96,1445.7 1558.47,1445.7 1558.98,1445.7 1559.49,1445.7 1560,1445.7 1560.51,1445.7 1561.03,1445.7 1561.54,1445.7 1562.05,1445.7 1562.56,1445.7 1563.07,1445.7 1563.58,1445.7 1564.09,1445.7 1564.61,1445.71 1565.12,1445.71 1565.63,1445.71 1566.14,1445.71 1566.65,1445.7 1567.16,1445.7 1567.67,1445.71 1568.19,1445.71 1568.7,1445.71 1569.21,1445.71 1569.72,1445.7 1570.23,1445.7 1570.74,1445.7 1571.25,1445.7 1571.77,1445.7 1572.28,1445.7 1572.79,1445.7 1573.3,1445.71 1573.81,1445.71 1574.32,1445.71 1574.83,1445.71 1575.35,1445.71 1575.86,1445.7 1576.37,1445.7 1576.88,1445.7 1577.39,1445.7 1577.9,1445.7 1578.41,1445.7 1578.93,1445.7 1579.44,1445.7 1579.95,1445.7 1580.46,1445.7 1580.97,1445.7 1581.48,1445.7 1581.99,1445.7 1582.51,1445.7 1583.02,1445.71 1583.53,1445.71 1584.04,1445.71 1584.55,1445.71 1585.06,1445.71 1585.57,1445.71 1586.09,1445.71 1586.6,1445.71 1587.11,1445.71 1587.62,1445.71 1588.13,1445.71 1588.64,1445.71 1589.15,1445.71 1589.67,1445.7 1590.18,1445.7 1590.69,1445.7 1591.2,1445.7 1591.71,1445.71 1592.22,1445.7 1592.74,1445.7 1593.25,1445.7 1593.76,1445.7 1594.27,1445.7 1594.78,1445.7 1595.29,1445.7 1595.8,1445.7 1596.32,1445.7 1596.83,1445.7 1597.34,1445.7 1597.85,1445.71 1598.36,1445.7 1598.87,1445.7 1599.38,1445.71 1599.9,1445.71 1600.41,1445.71 1600.92,1445.7 1601.43,1445.7 1601.94,1445.7 1602.45,1445.7 1602.96,1445.7 1603.48,1445.7 1603.99,1445.7 1604.5,1445.7 1605.01,1445.7 1605.52,1445.7 1606.03,1445.7 1606.54,1445.71 1607.06,1445.71 1607.57,1445.71 1608.08,1445.71 1608.59,1445.71 1609.1,1445.71 1609.61,1445.71 1610.12,1445.71 1610.64,1445.71 1611.15,1445.7 1611.66,1445.7 1612.17,1445.7 1612.68,1445.7 1613.19,1445.7 1613.7,1445.7 1614.22,1445.7 1614.73,1445.7 1615.24,1445.7 1615.75,1445.7 1616.26,1445.7 1616.77,1445.7 1617.28,1445.7 1617.8,1445.7 1618.31,1445.7 1618.82,1445.7 1619.33,1445.7 1619.84,1445.7 1620.35,1445.7 1620.87,1445.7 1621.38,1445.7 1621.89,1445.7 1622.4,1445.7 1622.91,1445.7 1623.42,1445.7 1623.93,1445.7 1624.45,1445.7 1624.96,1445.7 1625.47,1445.7 1625.98,1445.7 1626.49,1445.7 1627,1445.71 1627.51,1445.71 1628.03,1445.7 1628.54,1445.7 1629.05,1445.71 1629.56,1445.71 1630.07,1445.71 1630.58,1445.71 1631.09,1445.71 1631.61,1445.71 1632.12,1445.71 1632.63,1445.71 1633.14,1445.7 1633.65,1445.7 1634.16,1445.7 1634.67,1445.7 1635.19,1445.71 1635.7,1445.71 1636.21,1445.71 1636.72,1445.71 1637.23,1445.71 1637.74,1445.71 1638.25,1445.71 1638.77,1445.71 1639.28,1445.71 1639.79,1445.71 1640.3,1445.71 1640.81,1445.71 1641.32,1445.71 1641.83,1445.71 1642.35,1445.71 1642.86,1445.71 1643.37,1445.7 1643.88,1445.7 1644.39,1445.7 1644.9,1445.71 1645.41,1445.7 1645.93,1445.7 1646.44,1445.7 1646.95,1445.7 1647.46,1445.7 1647.97,1445.7 1648.48,1445.71 1649,1445.71 1649.51,1445.71 1650.02,1445.7 1650.53,1445.71 1651.04,1445.71 1651.55,1445.7 1652.06,1445.7 1652.58,1445.7 1653.09,1445.7 1653.6,1445.7 1654.11,1445.7 1654.62,1445.7 1655.13,1445.7 1655.64,1445.71 1656.16,1445.71 1656.67,1445.71 1657.18,1445.71 1657.69,1445.71 1658.2,1445.7 1658.71,1445.71 1659.22,1445.71 1659.74,1445.7 1660.25,1445.7 1660.76,1445.7 1661.27,1445.71 1661.78,1445.7 1662.29,1445.7 1662.8,1445.7 1663.32,1445.7 1663.83,1445.7 1664.34,1445.7 1664.85,1445.7 1665.36,1445.7 1665.87,1445.7 1666.38,1445.7 1666.9,1445.7 1667.41,1445.7 1667.92,1445.7 1668.43,1445.7 1668.94,1445.71 1669.45,1445.71 1669.96,1445.71 1670.48,1445.71 1670.99,1445.71 1671.5,1445.71 1672.01,1445.71 1672.52,1445.71 1673.03,1445.71 1673.54,1445.71 1674.06,1445.71 1674.57,1445.71 1675.08,1445.7 1675.59,1445.7 1676.1,1445.7 1676.61,1445.71 1677.13,1445.71 1677.64,1445.71 1678.15,1445.71 1678.66,1445.7 1679.17,1445.71 1679.68,1445.71 1680.19,1445.71 1680.71,1445.71 1681.22,1445.71 1681.73,1445.7 1682.24,1445.7 1682.75,1445.7 1683.26,1445.7 1683.77,1445.7 1684.29,1445.7 1684.8,1445.7 1685.31,1445.7 1685.82,1445.71 1686.33,1445.7 1686.84,1445.7 1687.35,1445.7 1687.87,1445.7 1688.38,1445.7 1688.89,1445.7 1689.4,1445.7 1689.91,1445.7 1690.42,1445.7 1690.93,1445.7 1691.45,1445.71 1691.96,1445.71 1692.47,1445.71 1692.98,1445.7 1693.49,1445.71 1694,1445.71 1694.51,1445.71 1695.03,1445.71 1695.54,1445.71 1696.05,1445.71 1696.56,1445.7 1697.07,1445.7 1697.58,1445.7 1698.09,1445.7 1698.61,1445.7 1699.12,1445.7 1699.63,1445.7 1700.14,1445.7 1700.65,1445.7 1701.16,1445.7 1701.67,1445.7 1702.19,1445.7 1702.7,1445.7 1703.21,1445.7 1703.72,1445.7 1704.23,1445.7 1704.74,1445.7 1705.26,1445.7 1705.77,1445.7 1706.28,1445.69 1706.79,1445.7 1707.3,1445.7 1707.81,1445.7 1708.32,1445.71 1708.84,1445.7 1709.35,1445.7 1709.86,1445.7 1710.37,1445.7 1710.88,1445.7 1711.39,1445.7 1711.9,1445.7 1712.42,1445.71 1712.93,1445.7 1713.44,1445.7 1713.95,1445.7 1714.46,1445.7 1714.97,1445.7 1715.48,1445.7 1716,1445.71 1716.51,1445.71 1717.02,1445.71 1717.53,1445.71 1718.04,1445.71 1718.55,1445.71 1719.06,1445.71 1719.58,1445.71 1720.09,1445.7 1720.6,1445.7 1721.11,1445.7 1721.62,1445.7 1722.13,1445.7 1722.64,1445.7 1723.16,1445.7 1723.67,1445.7 1724.18,1445.7 1724.69,1445.7 1725.2,1445.7 1725.71,1445.7 1726.22,1445.7 1726.74,1445.7 1727.25,1445.7 1727.76,1445.7 1728.27,1445.7 1728.78,1445.7 1729.29,1445.7 1729.8,1445.7 1730.32,1445.7 1730.83,1445.7 1731.34,1445.7 1731.85,1445.7 1732.36,1445.7 1732.87,1445.7 1733.39,1445.7 1733.9,1445.7 1734.41,1445.7 1734.92,1445.7 1735.43,1445.71 1735.94,1445.71 1736.45,1445.71 1736.97,1445.71 1737.48,1445.71 1737.99,1445.71 1738.5,1445.7 1739.01,1445.7 1739.52,1445.7 1740.03,1445.7 1740.55,1445.7 1741.06,1445.7 1741.57,1445.7 1742.08,1445.7 1742.59,1445.7 1743.1,1445.7 1743.61,1445.7 1744.13,1445.69 1744.64,1445.69 1745.15,1445.7 1745.66,1445.7 1746.17,1445.7 1746.68,1445.7 1747.19,1445.7 1747.71,1445.7 1748.22,1445.7 1748.73,1445.7 1749.24,1445.7 1749.75,1445.7 1750.26,1445.7 1750.77,1445.7 1751.29,1445.7 1751.8,1445.7 1752.31,1445.7 1752.82,1445.7 1753.33,1445.7 1753.84,1445.7 1754.35,1445.69 1754.87,1445.7 1755.38,1445.7 1755.89,1445.7 1756.4,1445.7 1756.91,1445.7 1757.42,1445.7 1757.93,1445.7 1758.45,1445.7 1758.96,1445.7 1759.47,1445.7 1759.98,1445.7 1760.49,1445.7 1761,1445.7 1761.52,1445.71 1762.03,1445.71 1762.54,1445.71 1763.05,1445.71 1763.56,1445.71 1764.07,1445.7 1764.58,1445.7 1765.1,1445.7 1765.61,1445.7 1766.12,1445.7 1766.63,1445.7 1767.14,1445.71 1767.65,1445.71 1768.16,1445.71 1768.68,1445.71 1769.19,1445.71 1769.7,1445.71 1770.21,1445.7 1770.72,1445.7 1771.23,1445.7 1771.74,1445.7 1772.26,1445.7 1772.77,1445.7 1773.28,1445.7 1773.79,1445.7 1774.3,1445.7 1774.81,1445.71 1775.32,1445.71 1775.84,1445.71 1776.35,1445.71 1776.86,1445.71 1777.37,1445.71 1777.88,1445.71 1778.39,1445.71 1778.9,1445.71 1779.42,1445.7 1779.93,1445.7 1780.44,1445.7 1780.95,1445.7 1781.46,1445.7 1781.97,1445.7 1782.48,1445.7 1783,1445.7 1783.51,1445.7 1784.02,1445.7 1784.53,1445.7 1785.04,1445.7 1785.55,1445.7 1786.06,1445.7 1786.58,1445.7 1787.09,1445.7 1787.6,1445.7 1788.11,1445.7 1788.62,1445.7 1789.13,1445.7 1789.64,1445.7 1790.16,1445.7 1790.67,1445.7 1791.18,1445.7 1791.69,1445.7 1792.2,1445.7 1792.71,1445.69 1793.23,1445.69 1793.74,1445.7 1794.25,1445.7 1794.76,1445.7 1795.27,1445.71 1795.78,1445.71 1796.29,1445.71 1796.81,1445.71 1797.32,1445.71 1797.83,1445.71 1798.34,1445.71 1798.85,1445.71 1799.36,1445.71 1799.87,1445.72 1800.39,1445.72 1800.9,1445.71 1801.41,1445.71 1801.92,1445.71 1802.43,1445.71 1802.94,1445.71 1803.45,1445.71 1803.97,1445.7 1804.48,1445.7 1804.99,1445.7 1805.5,1445.69 1806.01,1445.7 1806.52,1445.7 1807.03,1445.7 1807.55,1445.7 1808.06,1445.7 1808.57,1445.7 1809.08,1445.7 1809.59,1445.7 1810.1,1445.7 1810.61,1445.7 1811.13,1445.7 1811.64,1445.7 1812.15,1445.7 1812.66,1445.7 1813.17,1445.7 1813.68,1445.7 1814.19,1445.7 1814.71,1445.7 1815.22,1445.7 1815.73,1445.7 1816.24,1445.71 1816.75,1445.71 1817.26,1445.71 1817.77,1445.71 1818.29,1445.7 1818.8,1445.7 1819.31,1445.71 1819.82,1445.71 1820.33,1445.71 1820.84,1445.71 1821.36,1445.71 1821.87,1445.71 1822.38,1445.71 1822.89,1445.71 1823.4,1445.71 1823.91,1445.7 1824.42,1445.7 1824.94,1445.7 1825.45,1445.7 1825.96,1445.7 1826.47,1445.7 1826.98,1445.7 1827.49,1445.7 1828,1445.7 1828.52,1445.7 1829.03,1445.7 1829.54,1445.7 1830.05,1445.7 1830.56,1445.7 1831.07,1445.71 1831.58,1445.71 1832.1,1445.71 1832.61,1445.7 1833.12,1445.7 1833.63,1445.7 1834.14,1445.7 1834.65,1445.7 1835.16,1445.71 1835.68,1445.71 1836.19,1445.7 1836.7,1445.7 1837.21,1445.7 1837.72,1445.7 1838.23,1445.7 1838.74,1445.7 1839.26,1445.7 1839.77,1445.7 1840.28,1445.7 1840.79,1445.7 1841.3,1445.71 1841.81,1445.7 1842.32,1445.7 1842.84,1445.7 1843.35,1445.7 1843.86,1445.7 1844.37,1445.7 1844.88,1445.7 1845.39,1445.7 1845.9,1445.7 1846.42,1445.7 1846.93,1445.71 1847.44,1445.71 1847.95,1445.71 1848.46,1445.71 1848.97,1445.71 1849.49,1445.71 1850,1445.7 1850.51,1445.7 1851.02,1445.7 1851.53,1445.7 1852.04,1445.7 1852.55,1445.7 1853.07,1445.7 1853.58,1445.7 1854.09,1445.7 1854.6,1445.7 1855.11,1445.7 1855.62,1445.71 1856.13,1445.71 1856.65,1445.71 1857.16,1445.7 1857.67,1445.7 1858.18,1445.7 1858.69,1445.7 1859.2,1445.7 1859.71,1445.7 1860.23,1445.7 1860.74,1445.71 1861.25,1445.7 1861.76,1445.7 1862.27,1445.7 1862.78,1445.7 1863.29,1445.69 1863.81,1445.69 1864.32,1445.69 1864.83,1445.7 1865.34,1445.7 1865.85,1445.7 1866.36,1445.7 1866.87,1445.7 1867.39,1445.7 1867.9,1445.7 1868.41,1445.7 1868.92,1445.7 1869.43,1445.7 1869.94,1445.7 1870.45,1445.7 1870.97,1445.7 1871.48,1445.7 1871.99,1445.7 1872.5,1445.7 1873.01,1445.7 1873.52,1445.7 1874.03,1445.7 1874.55,1445.7 1875.06,1445.7 1875.57,1445.7 1876.08,1445.7 1876.59,1445.7 1877.1,1445.7 1877.62,1445.7 1878.13,1445.71 1878.64,1445.71 1879.15,1445.71 1879.66,1445.71 1880.17,1445.71 1880.68,1445.71 1881.2,1445.71 1881.71,1445.71 1882.22,1445.71 1882.73,1445.71 1883.24,1445.71 1883.75,1445.71 1884.26,1445.7 1884.78,1445.7 1885.29,1445.7 1885.8,1445.7 1886.31,1445.7 1886.82,1445.7 1887.33,1445.7 1887.84,1445.7 1888.36,1445.7 1888.87,1445.7 1889.38,1445.7 1889.89,1445.7 1890.4,1445.7 1890.91,1445.7 1891.42,1445.71 1891.94,1445.71 1892.45,1445.71 1892.96,1445.71 1893.47,1445.71 1893.98,1445.71 1894.49,1445.71 1895,1445.71 1895.52,1445.71 1896.03,1445.71 1896.54,1445.72 1897.05,1445.71 1897.56,1445.71 1898.07,1445.71 1898.58,1445.71 1899.1,1445.71 1899.61,1445.7 1900.12,1445.7 1900.63,1445.7 1901.14,1445.7 1901.65,1445.7 1902.16,1445.7 1902.68,1445.7 1903.19,1445.7 1903.7,1445.7 1904.21,1445.7 1904.72,1445.7 1905.23,1445.7 1905.75,1445.71 1906.26,1445.7 1906.77,1445.7 1907.28,1445.7 1907.79,1445.7 1908.3,1445.7 1908.81,1445.7 1909.33,1445.7 1909.84,1445.7 1910.35,1445.7 1910.86,1445.7 1911.37,1445.7 1911.88,1445.7 1912.39,1445.7 1912.91,1445.7 1913.42,1445.7 1913.93,1445.69 1914.44,1445.69 1914.95,1445.69 1915.46,1445.7 1915.97,1445.7 1916.49,1445.7 1917,1445.7 1917.51,1445.7 1918.02,1445.7 1918.53,1445.7 1919.04,1445.7 1919.55,1445.7 1920.07,1445.7 1920.58,1445.7 1921.09,1445.71 1921.6,1445.7 1922.11,1445.7 1922.62,1445.7 1923.13,1445.7 1923.65,1445.7 1924.16,1445.7 1924.67,1445.7 1925.18,1445.71 1925.69,1445.7 1926.2,1445.7 1926.71,1445.7 1927.23,1445.7 1927.74,1445.7 1928.25,1445.7 1928.76,1445.7 1929.27,1445.7 1929.78,1445.7 1930.29,1445.7 1930.81,1445.7 1931.32,1445.7 1931.83,1445.7 1932.34,1445.7 1932.85,1445.7 1933.36,1445.7 1933.88,1445.7 1934.39,1445.7 1934.9,1445.7 1935.41,1445.7 1935.92,1445.7 1936.43,1445.71 1936.94,1445.7 1937.46,1445.7 1937.97,1445.7 1938.48,1445.7 1938.99,1445.7 1939.5,1445.7 1940.01,1445.7 1940.52,1445.7 1941.04,1445.7 1941.55,1445.7 1942.06,1445.7 1942.57,1445.7 1943.08,1445.7 1943.59,1445.7 1944.1,1445.7 1944.62,1445.7 1945.13,1445.7 1945.64,1445.71 1946.15,1445.71 1946.66,1445.71 1947.17,1445.71 1947.68,1445.71 1948.2,1445.71 1948.71,1445.71 1949.22,1445.71 1949.73,1445.71 1950.24,1445.71 1950.75,1445.71 1951.26,1445.7 1951.78,1445.7 1952.29,1445.7 1952.8,1445.7 1953.31,1445.7 1953.82,1445.7 1954.33,1445.7 1954.84,1445.7 1955.36,1445.7 1955.87,1445.7 1956.38,1445.7 1956.89,1445.71 1957.4,1445.7 1957.91,1445.7 1958.42,1445.7 1958.94,1445.7 1959.45,1445.7 1959.96,1445.7 1960.47,1445.7 1960.98,1445.7 1961.49,1445.7 1962.01,1445.7 1962.52,1445.7 1963.03,1445.7 1963.54,1445.7 1964.05,1445.7 1964.56,1445.7 1965.07,1445.7 1965.59,1445.7 1966.1,1445.7 1966.61,1445.7 1967.12,1445.7 1967.63,1445.7 1968.14,1445.7 1968.65,1445.7 1969.17,1445.7 1969.68,1445.7 1970.19,1445.7 1970.7,1445.7 1971.21,1445.7 1971.72,1445.7 1972.23,1445.7 1972.75,1445.7 1973.26,1445.7 1973.77,1445.7 1974.28,1445.7 1974.79,1445.7 1975.3,1445.7 1975.81,1445.7 1976.33,1445.7 1976.84,1445.7 1977.35,1445.7 1977.86,1445.7 1978.37,1445.7 1978.88,1445.7 1979.39,1445.7 1979.91,1445.7 1980.42,1445.7 1980.93,1445.7 1981.44,1445.7 1981.95,1445.7 1982.46,1445.69 1982.97,1445.7 1983.49,1445.7 1984,1445.7 1984.51,1445.7 1985.02,1445.7 1985.53,1445.7 1986.04,1445.7 1986.55,1445.7 1987.07,1445.7 1987.58,1445.7 1988.09,1445.7 1988.6,1445.7 1989.11,1445.7 1989.62,1445.7 1990.13,1445.7 1990.65,1445.7 1991.16,1445.7 1991.67,1445.7 1992.18,1445.7 1992.69,1445.7 1993.2,1445.7 1993.72,1445.7 1994.23,1445.7 1994.74,1445.7 1995.25,1445.7 1995.76,1445.7 1996.27,1445.7 1996.78,1445.7 1997.3,1445.7 1997.81,1445.69 1998.32,1445.7 1998.83,1445.7 1999.34,1445.7 1999.85,1445.7 2000.36,1445.7 2000.88,1445.71 2001.39,1445.71 2001.9,1445.7 2002.41,1445.71 2002.92,1445.71 2003.43,1445.7 2003.94,1445.7 2004.46,1445.7 2004.97,1445.7 2005.48,1445.7 2005.99,1445.71 2006.5,1445.71 2007.01,1445.71 2007.52,1445.71 2008.04,1445.71 2008.55,1445.71 2009.06,1445.71 2009.57,1445.7 2010.08,1445.7 2010.59,1445.7 2011.1,1445.7 2011.62,1445.7 2012.13,1445.7 2012.64,1445.7 2013.15,1445.7 2013.66,1445.7 2014.17,1445.7 2014.68,1445.69 2015.2,1445.69 2015.71,1445.69 2016.22,1445.7 2016.73,1445.7 2017.24,1445.7 2017.75,1445.7 2018.26,1445.7 2018.78,1445.7 2019.29,1445.7 2019.8,1445.7 2020.31,1445.7 2020.82,1445.7 2021.33,1445.7 2021.85,1445.7 2022.36,1445.7 2022.87,1445.7 2023.38,1445.71 2023.89,1445.7 2024.4,1445.7 2024.91,1445.7 2025.43,1445.71 2025.94,1445.71 2026.45,1445.71 2026.96,1445.71 2027.47,1445.71 2027.98,1445.71 2028.49,1445.7 2029.01,1445.7 2029.52,1445.7 2030.03,1445.7 2030.54,1445.7 2031.05,1445.7 2031.56,1445.7 2032.07,1445.7 2032.59,1445.7 2033.1,1445.7 2033.61,1445.7 2034.12,1445.7 2034.63,1445.7 2035.14,1445.7 2035.65,1445.7 2036.17,1445.71 2036.68,1445.71 2037.19,1445.71 2037.7,1445.7 2038.21,1445.71 2038.72,1445.71 2039.23,1445.7 2039.75,1445.7 2040.26,1445.71 2040.77,1445.71 2041.28,1445.71 2041.79,1445.7 2042.3,1445.7 2042.81,1445.7 2043.33,1445.7 2043.84,1445.7 2044.35,1445.7 2044.86,1445.7 2045.37,1445.7 2045.88,1445.71 2046.39,1445.7 2046.91,1445.7 2047.42,1445.7 2047.93,1445.7 2048.44,1445.7 2048.95,1445.7 2049.46,1445.7 2049.98,1445.7 2050.49,1445.7 2051,1445.7 2051.51,1445.7 2052.02,1445.7 2052.53,1445.7 2053.04,1445.7 2053.56,1445.7 2054.07,1445.7 2054.58,1445.7 2055.09,1445.7 2055.6,1445.7 2056.11,1445.7 2056.62,1445.7 2057.14,1445.7 2057.65,1445.71 2058.16,1445.71 2058.67,1445.71 2059.18,1445.71 2059.69,1445.7 2060.2,1445.7 2060.72,1445.7 2061.23,1445.7 2061.74,1445.7 2062.25,1445.7 2062.76,1445.7 2063.27,1445.7 2063.78,1445.7 2064.3,1445.7 2064.81,1445.7 2065.32,1445.7 2065.83,1445.7 2066.34,1445.7 2066.85,1445.7 2067.36,1445.7 2067.88,1445.7 2068.39,1445.7 2068.9,1445.7 2069.41,1445.7 2069.92,1445.7 2070.43,1445.7 2070.94,1445.7 2071.46,1445.69 2071.97,1445.69 2072.48,1445.7 2072.99,1445.69 2073.5,1445.69 2074.01,1445.69 2074.52,1445.7 2075.04,1445.7 2075.55,1445.7 2076.06,1445.7 2076.57,1445.7 2077.08,1445.7 2077.59,1445.7 2078.11,1445.7 2078.62,1445.7 2079.13,1445.7 2079.64,1445.7 2080.15,1445.7 2080.66,1445.7 2081.17,1445.7 2081.69,1445.7 2082.2,1445.7 2082.71,1445.7 2083.22,1445.7 2083.73,1445.7 2084.24,1445.7 2084.75,1445.71 2085.27,1445.7 2085.78,1445.7 2086.29,1445.7 2086.8,1445.69 2087.31,1445.69 2087.82,1445.69 2088.33,1445.69 2088.85,1445.7 2089.36,1445.7 2089.87,1445.7 2090.38,1445.7 2090.89,1445.7 2091.4,1445.7 2091.91,1445.7 2092.43,1445.7 2092.94,1445.7 2093.45,1445.7 2093.96,1445.7 2094.47,1445.7 2094.98,1445.7 2095.49,1445.7 2096.01,1445.7 2096.52,1445.7 2097.03,1445.7 2097.54,1445.7 2098.05,1445.71 2098.56,1445.7 2099.07,1445.7 2099.59,1445.7 2100.1,1445.7 2100.61,1445.7 2101.12,1445.7 2101.63,1445.7 2102.14,1445.7 2102.65,1445.7 2103.17,1445.7 2103.68,1445.7 2104.19,1445.7 2104.7,1445.7 2105.21,1445.7 2105.72,1445.7 2106.24,1445.7 2106.75,1445.7 2107.26,1445.7 2107.77,1445.7 2108.28,1445.7 2108.79,1445.7 2109.3,1445.7 2109.82,1445.7 2110.33,1445.7 2110.84,1445.7 2111.35,1445.7 2111.86,1445.7 2112.37,1445.7 2112.88,1445.7 2113.4,1445.71 2113.91,1445.71 2114.42,1445.71 2114.93,1445.7 2115.44,1445.7 2115.95,1445.71 2116.46,1445.71 2116.98,1445.71 2117.49,1445.71 2118,1445.7 2118.51,1445.7 2119.02,1445.7 2119.53,1445.7 2120.04,1445.7 2120.56,1445.7 2121.07,1445.7 2121.58,1445.71 2122.09,1445.7 2122.6,1445.7 2123.11,1445.7 2123.62,1445.7 2124.14,1445.7 2124.65,1445.7 2125.16,1445.7 2125.67,1445.7 2126.18,1445.7 2126.69,1445.7 2127.2,1445.7 2127.72,1445.7 2128.23,1445.7 2128.74,1445.71 2129.25,1445.7 2129.76,1445.7 2130.27,1445.7 2130.78,1445.71 2131.3,1445.7 2131.81,1445.7 2132.32,1445.7 2132.83,1445.7 2133.34,1445.7 2133.85,1445.7 2134.37,1445.7 2134.88,1445.7 2135.39,1445.7 2135.9,1445.7 2136.41,1445.7 2136.92,1445.69 2137.43,1445.69 2137.95,1445.7 2138.46,1445.7 2138.97,1445.7 2139.48,1445.7 2139.99,1445.7 2140.5,1445.7 2141.01,1445.7 2141.53,1445.7 2142.04,1445.7 2142.55,1445.7 2143.06,1445.7 2143.57,1445.7 2144.08,1445.71 2144.59,1445.71 2145.11,1445.71 2145.62,1445.71 2146.13,1445.7 2146.64,1445.7 2147.15,1445.7 2147.66,1445.7 2148.17,1445.7 2148.69,1445.7 2149.2,1445.7 2149.71,1445.7 2150.22,1445.7 2150.73,1445.71 2151.24,1445.71 2151.75,1445.71 2152.27,1445.71 2152.78,1445.71 2153.29,1445.71 2153.8,1445.71 2154.31,1445.71 2154.82,1445.71 2155.33,1445.7 2155.85,1445.7 2156.36,1445.7 2156.87,1445.7 2157.38,1445.7 2157.89,1445.7 2158.4,1445.7 2158.91,1445.7 2159.43,1445.7 2159.94,1445.7 2160.45,1445.7 2160.96,1445.7 2161.47,1445.7 2161.98,1445.7 2162.49,1445.7 2163.01,1445.71 2163.52,1445.71 2164.03,1445.71 2164.54,1445.7 2165.05,1445.7 2165.56,1445.7 2166.08,1445.7 2166.59,1445.7 2167.1,1445.71 2167.61,1445.71 2168.12,1445.71 2168.63,1445.71 2169.14,1445.71 2169.66,1445.71 2170.17,1445.71 2170.68,1445.71 2171.19,1445.71 2171.7,1445.71 2172.21,1445.7 2172.72,1445.7 2173.24,1445.7 2173.75,1445.71 2174.26,1445.71 2174.77,1445.71 2175.28,1445.71 2175.79,1445.71 2176.3,1445.71 2176.82,1445.71 2177.33,1445.71 2177.84,1445.71 2178.35,1445.71 2178.86,1445.71 2179.37,1445.71 2179.88,1445.71 2180.4,1445.71 2180.91,1445.7 2181.42,1445.71 2181.93,1445.71 2182.44,1445.7 2182.95,1445.7 2183.46,1445.71 2183.98,1445.71 2184.49,1445.71 2185,1445.71 2185.51,1445.7 2186.02,1445.7 2186.53,1445.7 2187.04,1445.7 2187.56,1445.7 2188.07,1445.7 2188.58,1445.7 2189.09,1445.7 2189.6,1445.7 2190.11,1445.7 2190.62,1445.7 2191.14,1445.7 2191.65,1445.7 2192.16,1445.69 2192.67,1445.7 2193.18,1445.7 2193.69,1445.7 2194.21,1445.7 2194.72,1445.7 2195.23,1445.7 2195.74,1445.7 2196.25,1445.7 2196.76,1445.7 2197.27,1445.7 2197.79,1445.7 2198.3,1445.7 2198.81,1445.7 2199.32,1445.7 2199.83,1445.7 2200.34,1445.7 2200.85,1445.7 2201.37,1445.7 2201.88,1445.7 2202.39,1445.7 2202.9,1445.7 2203.41,1445.7 2203.92,1445.71 2204.43,1445.71 2204.95,1445.71 2205.46,1445.7 2205.97,1445.71 2206.48,1445.71 2206.99,1445.71 2207.5,1445.71 2208.01,1445.71 2208.53,1445.71 2209.04,1445.7 2209.55,1445.7 2210.06,1445.7 2210.57,1445.7 2211.08,1445.7 2211.59,1445.7 2212.11,1445.7 2212.62,1445.7 2213.13,1445.7 2213.64,1445.7 2214.15,1445.7 2214.66,1445.7 2215.17,1445.7 2215.69,1445.7 2216.2,1445.7 2216.71,1445.7 2217.22,1445.7 2217.73,1445.7 2218.24,1445.7 2218.75,1445.71 2219.27,1445.7 2219.78,1445.7 2220.29,1445.7 2220.8,1445.7 2221.31,1445.71 2221.82,1445.71 2222.34,1445.71 2222.85,1445.7 2223.36,1445.7 2223.87,1445.7 2224.38,1445.7 2224.89,1445.7 2225.4,1445.7 2225.92,1445.7 2226.43,1445.7 2226.94,1445.7 2227.45,1445.7 2227.96,1445.7 2228.47,1445.7 2228.98,1445.7 2229.5,1445.7 2230.01,1445.69 2230.52,1445.69 2231.03,1445.69 2231.54,1445.7 2232.05,1445.7 2232.56,1445.7 2233.08,1445.7 2233.59,1445.7 2234.1,1445.7 2234.61,1445.7 2235.12,1445.7 2235.63,1445.7 2236.14,1445.7 2236.66,1445.7 2237.17,1445.7 2237.68,1445.7 2238.19,1445.7 2238.7,1445.7 2239.21,1445.7 2239.72,1445.7 2240.24,1445.7 2240.75,1445.7 2241.26,1445.7 2241.77,1445.7 2242.28,1445.7 2242.79,1445.7 2243.3,1445.69 2243.82,1445.69 2244.33,1445.69 2244.84,1445.69 2245.35,1445.7 2245.86,1445.7 2246.37,1445.69 2246.88,1445.7 2247.4,1445.7 2247.91,1445.7 2248.42,1445.7 2248.93,1445.7 2249.44,1445.7 2249.95,1445.7 2250.47,1445.7 2250.98,1445.7 2251.49,1445.7 2252,1445.7 2252.51,1445.7 2253.02,1445.7 2253.53,1445.7 2254.05,1445.7 2254.56,1445.7 2255.07,1445.7 2255.58,1445.7 2256.09,1445.7 2256.6,1445.7 2257.11,1445.7 2257.63,1445.71 2258.14,1445.7 2258.65,1445.7 2259.16,1445.7 2259.67,1445.7 2260.18,1445.7 2260.69,1445.7 2261.21,1445.7 2261.72,1445.7 2262.23,1445.7 2262.74,1445.7 2263.25,1445.7 2263.76,1445.7 2264.27,1445.7 2264.79,1445.7 2265.3,1445.7 2265.81,1445.69 2266.32,1445.69 2266.83,1445.69 2267.34,1445.7 2267.85,1445.7 2268.37,1445.7 2268.88,1445.7 2269.39,1445.7 2269.9,1445.7 2270.41,1445.7 2270.92,1445.7 2271.43,1445.7 2271.95,1445.7 2272.46,1445.7 2272.97,1445.7 2273.48,1445.7 2273.99,1445.7 2274.5,1445.7 2275.01,1445.7 2275.53,1445.7 2276.04,1445.7 2276.55,1445.7 2277.06,1445.7 2277.57,1445.7 2278.08,1445.7 2278.6,1445.71 2279.11,1445.71 2279.62,1445.71 2280.13,1445.71 2280.64,1445.7 2281.15,1445.7 2281.66,1445.7 2282.18,1445.71 2282.69,1445.71 2283.2,1445.71 2283.71,1445.7 2284.22,1445.7 2284.73,1445.7 2285.24,1445.71 2285.76,1445.7 2286.27,1445.7 2286.78,1445.7 2287.29,1445.7 2287.8,1445.7 2288.31,1445.7 2288.82,1445.7 2289.34,1445.7 2289.85,1445.7 2290.36,1445.7 2290.87,1445.7 2291.38,1445.7 "/>
<path clip-path="url(#clip570)" d="M2011.18 198.898 L2280.47 198.898 L2280.47 95.2176 L2011.18 95.2176  Z" fill="#ffffff" fill-rule="evenodd" fill-opacity="1"/>
<polyline clip-path="url(#clip570)" style="stroke:#000000; stroke-linecap:round; stroke-linejoin:round; stroke-width:4; stroke-opacity:1; fill:none" points="2011.18,198.898 2280.47,198.898 2280.47,95.2176 2011.18,95.2176 2011.18,198.898 "/>
<polyline clip-path="url(#clip570)" style="stroke:#009af9; stroke-linecap:round; stroke-linejoin:round; stroke-width:4; stroke-opacity:1; fill:none" points="2035.28,147.058 2179.85,147.058 "/>
<path clip-path="url(#clip570)" d="M2217.79 166.745 Q2215.98 171.375 2214.27 172.787 Q2212.56 174.199 2209.69 174.199 L2206.28 174.199 L2206.28 170.634 L2208.78 170.634 Q2210.54 170.634 2211.51 169.8 Q2212.49 168.967 2213.67 165.865 L2214.43 163.921 L2203.94 138.412 L2208.46 138.412 L2216.56 158.689 L2224.66 138.412 L2229.18 138.412 L2217.79 166.745 Z" fill="#000000" fill-rule="nonzero" fill-opacity="1" /><path clip-path="url(#clip570)" d="M2236.47 160.402 L2244.11 160.402 L2244.11 134.037 L2235.8 135.703 L2235.8 131.444 L2244.06 129.778 L2248.74 129.778 L2248.74 160.402 L2256.38 160.402 L2256.38 164.338 L2236.47 164.338 L2236.47 160.402 Z" fill="#000000" fill-rule="nonzero" fill-opacity="1" /></svg>
