<?xml version="1.0" encoding="utf-8"?>
<svg xmlns="http://www.w3.org/2000/svg" xmlns:xlink="http://www.w3.org/1999/xlink" width="600" height="400" viewBox="0 0 2400 1600">
<defs>
  <clipPath id="clip350">
    <rect x="0" y="0" width="2400" height="1600"/>
  </clipPath>
</defs>
<path clip-path="url(#clip350)" d="M0 1600 L2400 1600 L2400 0 L0 0  Z" fill="#ffffff" fill-rule="evenodd" fill-opacity="1"/>
<defs>
  <clipPath id="clip351">
    <rect x="480" y="0" width="1681" height="1600"/>
  </clipPath>
</defs>
<path clip-path="url(#clip350)" d="M239.19 1486.45 L2352.76 1486.45 L2352.76 47.2441 L239.19 47.2441  Z" fill="#ffffff" fill-rule="evenodd" fill-opacity="1"/>
<defs>
  <clipPath id="clip352">
    <rect x="239" y="47" width="2115" height="1440"/>
  </clipPath>
</defs>
<polyline clip-path="url(#clip352)" style="stroke:#000000; stroke-linecap:round; stroke-linejoin:round; stroke-width:2; stroke-opacity:0.1; fill:none" points="299.008,1486.45 299.008,47.2441 "/>
<polyline clip-path="url(#clip352)" style="stroke:#000000; stroke-linecap:round; stroke-linejoin:round; stroke-width:2; stroke-opacity:0.1; fill:none" points="797.615,1486.45 797.615,47.2441 "/>
<polyline clip-path="url(#clip352)" style="stroke:#000000; stroke-linecap:round; stroke-linejoin:round; stroke-width:2; stroke-opacity:0.1; fill:none" points="1296.22,1486.45 1296.22,47.2441 "/>
<polyline clip-path="url(#clip352)" style="stroke:#000000; stroke-linecap:round; stroke-linejoin:round; stroke-width:2; stroke-opacity:0.1; fill:none" points="1794.83,1486.45 1794.83,47.2441 "/>
<polyline clip-path="url(#clip352)" style="stroke:#000000; stroke-linecap:round; stroke-linejoin:round; stroke-width:2; stroke-opacity:0.1; fill:none" points="2293.44,1486.45 2293.44,47.2441 "/>
<polyline clip-path="url(#clip350)" style="stroke:#000000; stroke-linecap:round; stroke-linejoin:round; stroke-width:4; stroke-opacity:1; fill:none" points="239.19,1486.45 2352.76,1486.45 "/>
<polyline clip-path="url(#clip350)" style="stroke:#000000; stroke-linecap:round; stroke-linejoin:round; stroke-width:4; stroke-opacity:1; fill:none" points="299.008,1486.45 299.008,1467.55 "/>
<polyline clip-path="url(#clip350)" style="stroke:#000000; stroke-linecap:round; stroke-linejoin:round; stroke-width:4; stroke-opacity:1; fill:none" points="797.615,1486.45 797.615,1467.55 "/>
<polyline clip-path="url(#clip350)" style="stroke:#000000; stroke-linecap:round; stroke-linejoin:round; stroke-width:4; stroke-opacity:1; fill:none" points="1296.22,1486.45 1296.22,1467.55 "/>
<polyline clip-path="url(#clip350)" style="stroke:#000000; stroke-linecap:round; stroke-linejoin:round; stroke-width:4; stroke-opacity:1; fill:none" points="1794.83,1486.45 1794.83,1467.55 "/>
<polyline clip-path="url(#clip350)" style="stroke:#000000; stroke-linecap:round; stroke-linejoin:round; stroke-width:4; stroke-opacity:1; fill:none" points="2293.44,1486.45 2293.44,1467.55 "/>
<path clip-path="url(#clip350)" d="M299.008 1517.37 Q295.397 1517.37 293.568 1520.93 Q291.763 1524.47 291.763 1531.6 Q291.763 1538.71 293.568 1542.27 Q295.397 1545.82 299.008 1545.82 Q302.643 1545.82 304.448 1542.27 Q306.277 1538.71 306.277 1531.6 Q306.277 1524.47 304.448 1520.93 Q302.643 1517.37 299.008 1517.37 M299.008 1513.66 Q304.818 1513.66 307.874 1518.27 Q310.953 1522.85 310.953 1531.6 Q310.953 1540.33 307.874 1544.94 Q304.818 1549.52 299.008 1549.52 Q293.198 1549.52 290.119 1544.94 Q287.064 1540.33 287.064 1531.6 Q287.064 1522.85 290.119 1518.27 Q293.198 1513.66 299.008 1513.66 Z" fill="#000000" fill-rule="nonzero" fill-opacity="1" /><path clip-path="url(#clip350)" d="M742.141 1544.91 L749.78 1544.91 L749.78 1518.55 L741.47 1520.21 L741.47 1515.95 L749.734 1514.29 L754.41 1514.29 L754.41 1544.91 L762.048 1544.91 L762.048 1548.85 L742.141 1548.85 L742.141 1544.91 Z" fill="#000000" fill-rule="nonzero" fill-opacity="1" /><path clip-path="url(#clip350)" d="M781.493 1517.37 Q777.882 1517.37 776.053 1520.93 Q774.247 1524.47 774.247 1531.6 Q774.247 1538.71 776.053 1542.27 Q777.882 1545.82 781.493 1545.82 Q785.127 1545.82 786.933 1542.27 Q788.761 1538.71 788.761 1531.6 Q788.761 1524.47 786.933 1520.93 Q785.127 1517.37 781.493 1517.37 M781.493 1513.66 Q787.303 1513.66 790.358 1518.27 Q793.437 1522.85 793.437 1531.6 Q793.437 1540.33 790.358 1544.94 Q787.303 1549.52 781.493 1549.52 Q775.683 1549.52 772.604 1544.94 Q769.548 1540.33 769.548 1531.6 Q769.548 1522.85 772.604 1518.27 Q775.683 1513.66 781.493 1513.66 Z" fill="#000000" fill-rule="nonzero" fill-opacity="1" /><path clip-path="url(#clip350)" d="M811.655 1517.37 Q808.044 1517.37 806.215 1520.93 Q804.409 1524.47 804.409 1531.6 Q804.409 1538.71 806.215 1542.27 Q808.044 1545.82 811.655 1545.82 Q815.289 1545.82 817.094 1542.27 Q818.923 1538.71 818.923 1531.6 Q818.923 1524.47 817.094 1520.93 Q815.289 1517.37 811.655 1517.37 M811.655 1513.66 Q817.465 1513.66 820.52 1518.27 Q823.599 1522.85 823.599 1531.6 Q823.599 1540.33 820.52 1544.94 Q817.465 1549.52 811.655 1549.52 Q805.844 1549.52 802.766 1544.94 Q799.71 1540.33 799.71 1531.6 Q799.71 1522.85 802.766 1518.27 Q805.844 1513.66 811.655 1513.66 Z" fill="#000000" fill-rule="nonzero" fill-opacity="1" /><path clip-path="url(#clip350)" d="M841.817 1517.37 Q838.205 1517.37 836.377 1520.93 Q834.571 1524.47 834.571 1531.6 Q834.571 1538.71 836.377 1542.27 Q838.205 1545.82 841.817 1545.82 Q845.451 1545.82 847.256 1542.27 Q849.085 1538.71 849.085 1531.6 Q849.085 1524.47 847.256 1520.93 Q845.451 1517.37 841.817 1517.37 M841.817 1513.66 Q847.627 1513.66 850.682 1518.27 Q853.761 1522.85 853.761 1531.6 Q853.761 1540.33 850.682 1544.94 Q847.627 1549.52 841.817 1549.52 Q836.006 1549.52 832.928 1544.94 Q829.872 1540.33 829.872 1531.6 Q829.872 1522.85 832.928 1518.27 Q836.006 1513.66 841.817 1513.66 Z" fill="#000000" fill-rule="nonzero" fill-opacity="1" /><path clip-path="url(#clip350)" d="M1244.83 1544.91 L1261.15 1544.91 L1261.15 1548.85 L1239.21 1548.85 L1239.21 1544.91 Q1241.87 1542.16 1246.45 1537.53 Q1251.06 1532.88 1252.24 1531.53 Q1254.49 1529.01 1255.37 1527.27 Q1256.27 1525.51 1256.27 1523.82 Q1256.27 1521.07 1254.32 1519.33 Q1252.4 1517.6 1249.3 1517.6 Q1247.1 1517.6 1244.65 1518.36 Q1242.22 1519.13 1239.44 1520.68 L1239.44 1515.95 Q1242.26 1514.82 1244.72 1514.24 Q1247.17 1513.66 1249.21 1513.66 Q1254.58 1513.66 1257.77 1516.35 Q1260.97 1519.03 1260.97 1523.52 Q1260.97 1525.65 1260.16 1527.57 Q1259.37 1529.47 1257.26 1532.07 Q1256.69 1532.74 1253.58 1535.95 Q1250.48 1539.15 1244.83 1544.91 Z" fill="#000000" fill-rule="nonzero" fill-opacity="1" /><path clip-path="url(#clip350)" d="M1280.97 1517.37 Q1277.36 1517.37 1275.53 1520.93 Q1273.72 1524.47 1273.72 1531.6 Q1273.72 1538.71 1275.53 1542.27 Q1277.36 1545.82 1280.97 1545.82 Q1284.6 1545.82 1286.41 1542.27 Q1288.24 1538.71 1288.24 1531.6 Q1288.24 1524.47 1286.41 1520.93 Q1284.6 1517.37 1280.97 1517.37 M1280.97 1513.66 Q1286.78 1513.66 1289.83 1518.27 Q1292.91 1522.85 1292.91 1531.6 Q1292.91 1540.33 1289.83 1544.94 Q1286.78 1549.52 1280.97 1549.52 Q1275.16 1549.52 1272.08 1544.94 Q1269.02 1540.33 1269.02 1531.6 Q1269.02 1522.85 1272.08 1518.27 Q1275.16 1513.66 1280.97 1513.66 Z" fill="#000000" fill-rule="nonzero" fill-opacity="1" /><path clip-path="url(#clip350)" d="M1311.13 1517.37 Q1307.52 1517.37 1305.69 1520.93 Q1303.88 1524.47 1303.88 1531.6 Q1303.88 1538.71 1305.69 1542.27 Q1307.52 1545.82 1311.13 1545.82 Q1314.76 1545.82 1316.57 1542.27 Q1318.4 1538.71 1318.4 1531.6 Q1318.4 1524.47 1316.57 1520.93 Q1314.76 1517.37 1311.13 1517.37 M1311.13 1513.66 Q1316.94 1513.66 1320 1518.27 Q1323.07 1522.85 1323.07 1531.6 Q1323.07 1540.33 1320 1544.94 Q1316.94 1549.52 1311.13 1549.52 Q1305.32 1549.52 1302.24 1544.94 Q1299.19 1540.33 1299.19 1531.6 Q1299.19 1522.85 1302.24 1518.27 Q1305.32 1513.66 1311.13 1513.66 Z" fill="#000000" fill-rule="nonzero" fill-opacity="1" /><path clip-path="url(#clip350)" d="M1341.29 1517.37 Q1337.68 1517.37 1335.85 1520.93 Q1334.05 1524.47 1334.05 1531.6 Q1334.05 1538.71 1335.85 1542.27 Q1337.68 1545.82 1341.29 1545.82 Q1344.93 1545.82 1346.73 1542.27 Q1348.56 1538.71 1348.56 1531.6 Q1348.56 1524.47 1346.73 1520.93 Q1344.93 1517.37 1341.29 1517.37 M1341.29 1513.66 Q1347.1 1513.66 1350.16 1518.27 Q1353.24 1522.85 1353.24 1531.6 Q1353.24 1540.33 1350.16 1544.94 Q1347.1 1549.52 1341.29 1549.52 Q1335.48 1549.52 1332.4 1544.94 Q1329.35 1540.33 1329.35 1531.6 Q1329.35 1522.85 1332.4 1518.27 Q1335.48 1513.66 1341.29 1513.66 Z" fill="#000000" fill-rule="nonzero" fill-opacity="1" /><path clip-path="url(#clip350)" d="M1753.51 1530.21 Q1756.87 1530.93 1758.74 1533.2 Q1760.64 1535.47 1760.64 1538.8 Q1760.64 1543.92 1757.12 1546.72 Q1753.6 1549.52 1747.12 1549.52 Q1744.95 1549.52 1742.63 1549.08 Q1740.34 1548.66 1737.89 1547.81 L1737.89 1543.29 Q1739.83 1544.43 1742.14 1545.01 Q1744.46 1545.58 1746.98 1545.58 Q1751.38 1545.58 1753.67 1543.85 Q1755.99 1542.11 1755.99 1538.8 Q1755.99 1535.75 1753.83 1534.03 Q1751.7 1532.3 1747.89 1532.3 L1743.86 1532.3 L1743.86 1528.45 L1748.07 1528.45 Q1751.52 1528.45 1753.35 1527.09 Q1755.18 1525.7 1755.18 1523.11 Q1755.18 1520.45 1753.28 1519.03 Q1751.4 1517.6 1747.89 1517.6 Q1745.96 1517.6 1743.76 1518.01 Q1741.57 1518.43 1738.93 1519.31 L1738.93 1515.14 Q1741.59 1514.4 1743.9 1514.03 Q1746.24 1513.66 1748.3 1513.66 Q1753.63 1513.66 1756.73 1516.09 Q1759.83 1518.5 1759.83 1522.62 Q1759.83 1525.49 1758.19 1527.48 Q1756.54 1529.45 1753.51 1530.21 Z" fill="#000000" fill-rule="nonzero" fill-opacity="1" /><path clip-path="url(#clip350)" d="M1779.51 1517.37 Q1775.89 1517.37 1774.07 1520.93 Q1772.26 1524.47 1772.26 1531.6 Q1772.26 1538.71 1774.07 1542.27 Q1775.89 1545.82 1779.51 1545.82 Q1783.14 1545.82 1784.95 1542.27 Q1786.77 1538.71 1786.77 1531.6 Q1786.77 1524.47 1784.95 1520.93 Q1783.14 1517.37 1779.51 1517.37 M1779.51 1513.66 Q1785.32 1513.66 1788.37 1518.27 Q1791.45 1522.85 1791.45 1531.6 Q1791.45 1540.33 1788.37 1544.94 Q1785.32 1549.52 1779.51 1549.52 Q1773.7 1549.52 1770.62 1544.94 Q1767.56 1540.33 1767.56 1531.6 Q1767.56 1522.85 1770.62 1518.27 Q1773.7 1513.66 1779.51 1513.66 Z" fill="#000000" fill-rule="nonzero" fill-opacity="1" /><path clip-path="url(#clip350)" d="M1809.67 1517.37 Q1806.06 1517.37 1804.23 1520.93 Q1802.42 1524.47 1802.42 1531.6 Q1802.42 1538.71 1804.23 1542.27 Q1806.06 1545.82 1809.67 1545.82 Q1813.3 1545.82 1815.11 1542.27 Q1816.94 1538.71 1816.94 1531.6 Q1816.94 1524.47 1815.11 1520.93 Q1813.3 1517.37 1809.67 1517.37 M1809.67 1513.66 Q1815.48 1513.66 1818.53 1518.27 Q1821.61 1522.85 1821.61 1531.6 Q1821.61 1540.33 1818.53 1544.94 Q1815.48 1549.52 1809.67 1549.52 Q1803.86 1549.52 1800.78 1544.94 Q1797.72 1540.33 1797.72 1531.6 Q1797.72 1522.85 1800.78 1518.27 Q1803.86 1513.66 1809.67 1513.66 Z" fill="#000000" fill-rule="nonzero" fill-opacity="1" /><path clip-path="url(#clip350)" d="M1839.83 1517.37 Q1836.22 1517.37 1834.39 1520.93 Q1832.58 1524.47 1832.58 1531.6 Q1832.58 1538.71 1834.39 1542.27 Q1836.22 1545.82 1839.83 1545.82 Q1843.46 1545.82 1845.27 1542.27 Q1847.1 1538.71 1847.1 1531.6 Q1847.1 1524.47 1845.27 1520.93 Q1843.46 1517.37 1839.83 1517.37 M1839.83 1513.66 Q1845.64 1513.66 1848.69 1518.27 Q1851.77 1522.85 1851.77 1531.6 Q1851.77 1540.33 1848.69 1544.94 Q1845.64 1549.52 1839.83 1549.52 Q1834.02 1549.52 1830.94 1544.94 Q1827.88 1540.33 1827.88 1531.6 Q1827.88 1522.85 1830.94 1518.27 Q1834.02 1513.66 1839.83 1513.66 Z" fill="#000000" fill-rule="nonzero" fill-opacity="1" /><path clip-path="url(#clip350)" d="M2251.45 1518.36 L2239.64 1536.81 L2251.45 1536.81 L2251.45 1518.36 M2250.22 1514.29 L2256.1 1514.29 L2256.1 1536.81 L2261.03 1536.81 L2261.03 1540.7 L2256.1 1540.7 L2256.1 1548.85 L2251.45 1548.85 L2251.45 1540.7 L2235.84 1540.7 L2235.84 1536.19 L2250.22 1514.29 Z" fill="#000000" fill-rule="nonzero" fill-opacity="1" /><path clip-path="url(#clip350)" d="M2278.76 1517.37 Q2275.15 1517.37 2273.32 1520.93 Q2271.52 1524.47 2271.52 1531.6 Q2271.52 1538.71 2273.32 1542.27 Q2275.15 1545.82 2278.76 1545.82 Q2282.4 1545.82 2284.2 1542.27 Q2286.03 1538.71 2286.03 1531.6 Q2286.03 1524.47 2284.2 1520.93 Q2282.4 1517.37 2278.76 1517.37 M2278.76 1513.66 Q2284.57 1513.66 2287.63 1518.27 Q2290.71 1522.85 2290.71 1531.6 Q2290.71 1540.33 2287.63 1544.94 Q2284.57 1549.52 2278.76 1549.52 Q2272.95 1549.52 2269.87 1544.94 Q2266.82 1540.33 2266.82 1531.6 Q2266.82 1522.85 2269.87 1518.27 Q2272.95 1513.66 2278.76 1513.66 Z" fill="#000000" fill-rule="nonzero" fill-opacity="1" /><path clip-path="url(#clip350)" d="M2308.92 1517.37 Q2305.31 1517.37 2303.48 1520.93 Q2301.68 1524.47 2301.68 1531.6 Q2301.68 1538.71 2303.48 1542.27 Q2305.31 1545.82 2308.92 1545.82 Q2312.56 1545.82 2314.36 1542.27 Q2316.19 1538.71 2316.19 1531.6 Q2316.19 1524.47 2314.36 1520.93 Q2312.56 1517.37 2308.92 1517.37 M2308.92 1513.66 Q2314.73 1513.66 2317.79 1518.27 Q2320.87 1522.85 2320.87 1531.6 Q2320.87 1540.33 2317.79 1544.94 Q2314.73 1549.52 2308.92 1549.52 Q2303.11 1549.52 2300.03 1544.94 Q2296.98 1540.33 2296.98 1531.6 Q2296.98 1522.85 2300.03 1518.27 Q2303.11 1513.66 2308.92 1513.66 Z" fill="#000000" fill-rule="nonzero" fill-opacity="1" /><path clip-path="url(#clip350)" d="M2339.08 1517.37 Q2335.47 1517.37 2333.64 1520.93 Q2331.84 1524.47 2331.84 1531.6 Q2331.84 1538.71 2333.64 1542.27 Q2335.47 1545.82 2339.08 1545.82 Q2342.72 1545.82 2344.52 1542.27 Q2346.35 1538.71 2346.35 1531.6 Q2346.35 1524.47 2344.52 1520.93 Q2342.72 1517.37 2339.08 1517.37 M2339.08 1513.66 Q2344.89 1513.66 2347.95 1518.27 Q2351.03 1522.85 2351.03 1531.6 Q2351.03 1540.33 2347.95 1544.94 Q2344.89 1549.52 2339.08 1549.52 Q2333.27 1549.52 2330.2 1544.94 Q2327.14 1540.33 2327.14 1531.6 Q2327.14 1522.85 2330.2 1518.27 Q2333.27 1513.66 2339.08 1513.66 Z" fill="#000000" fill-rule="nonzero" fill-opacity="1" /><polyline clip-path="url(#clip352)" style="stroke:#000000; stroke-linecap:round; stroke-linejoin:round; stroke-width:2; stroke-opacity:0.1; fill:none" points="239.19,1312.63 2352.76,1312.63 "/>
<polyline clip-path="url(#clip352)" style="stroke:#000000; stroke-linecap:round; stroke-linejoin:round; stroke-width:2; stroke-opacity:0.1; fill:none" points="239.19,1018.14 2352.76,1018.14 "/>
<polyline clip-path="url(#clip352)" style="stroke:#000000; stroke-linecap:round; stroke-linejoin:round; stroke-width:2; stroke-opacity:0.1; fill:none" points="239.19,723.643 2352.76,723.643 "/>
<polyline clip-path="url(#clip352)" style="stroke:#000000; stroke-linecap:round; stroke-linejoin:round; stroke-width:2; stroke-opacity:0.1; fill:none" points="239.19,429.149 2352.76,429.149 "/>
<polyline clip-path="url(#clip352)" style="stroke:#000000; stroke-linecap:round; stroke-linejoin:round; stroke-width:2; stroke-opacity:0.1; fill:none" points="239.19,134.654 2352.76,134.654 "/>
<polyline clip-path="url(#clip350)" style="stroke:#000000; stroke-linecap:round; stroke-linejoin:round; stroke-width:4; stroke-opacity:1; fill:none" points="239.19,1486.45 239.19,47.2441 "/>
<polyline clip-path="url(#clip350)" style="stroke:#000000; stroke-linecap:round; stroke-linejoin:round; stroke-width:4; stroke-opacity:1; fill:none" points="239.19,1312.63 258.088,1312.63 "/>
<polyline clip-path="url(#clip350)" style="stroke:#000000; stroke-linecap:round; stroke-linejoin:round; stroke-width:4; stroke-opacity:1; fill:none" points="239.19,1018.14 258.088,1018.14 "/>
<polyline clip-path="url(#clip350)" style="stroke:#000000; stroke-linecap:round; stroke-linejoin:round; stroke-width:4; stroke-opacity:1; fill:none" points="239.19,723.643 258.088,723.643 "/>
<polyline clip-path="url(#clip350)" style="stroke:#000000; stroke-linecap:round; stroke-linejoin:round; stroke-width:4; stroke-opacity:1; fill:none" points="239.19,429.149 258.088,429.149 "/>
<polyline clip-path="url(#clip350)" style="stroke:#000000; stroke-linecap:round; stroke-linejoin:round; stroke-width:4; stroke-opacity:1; fill:none" points="239.19,134.654 258.088,134.654 "/>
<path clip-path="url(#clip350)" d="M50.9921 1313.08 L80.6679 1313.08 L80.6679 1317.02 L50.9921 1317.02 L50.9921 1313.08 Z" fill="#000000" fill-rule="nonzero" fill-opacity="1" /><path clip-path="url(#clip350)" d="M91.5706 1325.98 L99.2095 1325.98 L99.2095 1299.61 L90.8993 1301.28 L90.8993 1297.02 L99.1632 1295.35 L103.839 1295.35 L103.839 1325.98 L111.478 1325.98 L111.478 1329.91 L91.5706 1329.91 L91.5706 1325.98 Z" fill="#000000" fill-rule="nonzero" fill-opacity="1" /><path clip-path="url(#clip350)" d="M124.95 1325.98 L141.269 1325.98 L141.269 1329.91 L119.325 1329.91 L119.325 1325.98 Q121.987 1323.22 126.57 1318.59 Q131.177 1313.94 132.357 1312.6 Q134.603 1310.07 135.482 1308.34 Q136.385 1306.58 136.385 1304.89 Q136.385 1302.13 134.441 1300.4 Q132.519 1298.66 129.418 1298.66 Q127.219 1298.66 124.765 1299.43 Q122.334 1300.19 119.557 1301.74 L119.557 1297.02 Q122.381 1295.88 124.834 1295.31 Q127.288 1294.73 129.325 1294.73 Q134.695 1294.73 137.89 1297.41 Q141.084 1300.1 141.084 1304.59 Q141.084 1306.72 140.274 1308.64 Q139.487 1310.54 137.381 1313.13 Q136.802 1313.8 133.7 1317.02 Q130.598 1320.21 124.95 1325.98 Z" fill="#000000" fill-rule="nonzero" fill-opacity="1" /><path clip-path="url(#clip350)" d="M151.13 1295.35 L169.487 1295.35 L169.487 1299.29 L155.413 1299.29 L155.413 1307.76 Q156.431 1307.41 157.45 1307.25 Q158.468 1307.07 159.487 1307.07 Q165.274 1307.07 168.654 1310.24 Q172.033 1313.41 172.033 1318.82 Q172.033 1324.4 168.561 1327.51 Q165.089 1330.58 158.769 1330.58 Q156.593 1330.58 154.325 1330.21 Q152.08 1329.84 149.672 1329.1 L149.672 1324.4 Q151.755 1325.54 153.978 1326.09 Q156.2 1326.65 158.677 1326.65 Q162.681 1326.65 165.019 1324.54 Q167.357 1322.44 167.357 1318.82 Q167.357 1315.21 165.019 1313.11 Q162.681 1311 158.677 1311 Q156.802 1311 154.927 1311.42 Q153.075 1311.83 151.13 1312.71 L151.13 1295.35 Z" fill="#000000" fill-rule="nonzero" fill-opacity="1" /><path clip-path="url(#clip350)" d="M191.246 1298.43 Q187.635 1298.43 185.806 1302 Q184.001 1305.54 184.001 1312.67 Q184.001 1319.77 185.806 1323.34 Q187.635 1326.88 191.246 1326.88 Q194.88 1326.88 196.686 1323.34 Q198.514 1319.77 198.514 1312.67 Q198.514 1305.54 196.686 1302 Q194.88 1298.43 191.246 1298.43 M191.246 1294.73 Q197.056 1294.73 200.112 1299.33 Q203.19 1303.92 203.19 1312.67 Q203.19 1321.39 200.112 1326 Q197.056 1330.58 191.246 1330.58 Q185.436 1330.58 182.357 1326 Q179.302 1321.39 179.302 1312.67 Q179.302 1303.92 182.357 1299.33 Q185.436 1294.73 191.246 1294.73 Z" fill="#000000" fill-rule="nonzero" fill-opacity="1" /><path clip-path="url(#clip350)" d="M50.9921 1018.59 L80.6679 1018.59 L80.6679 1022.52 L50.9921 1022.52 L50.9921 1018.59 Z" fill="#000000" fill-rule="nonzero" fill-opacity="1" /><path clip-path="url(#clip350)" d="M91.5706 1031.48 L99.2095 1031.48 L99.2095 1005.12 L90.8993 1006.78 L90.8993 1002.52 L99.1632 1000.86 L103.839 1000.86 L103.839 1031.48 L111.478 1031.48 L111.478 1035.42 L91.5706 1035.42 L91.5706 1031.48 Z" fill="#000000" fill-rule="nonzero" fill-opacity="1" /><path clip-path="url(#clip350)" d="M130.922 1003.94 Q127.311 1003.94 125.482 1007.5 Q123.677 1011.04 123.677 1018.17 Q123.677 1025.28 125.482 1028.84 Q127.311 1032.39 130.922 1032.39 Q134.556 1032.39 136.362 1028.84 Q138.191 1025.28 138.191 1018.17 Q138.191 1011.04 136.362 1007.5 Q134.556 1003.94 130.922 1003.94 M130.922 1000.23 Q136.732 1000.23 139.788 1004.84 Q142.867 1009.42 142.867 1018.17 Q142.867 1026.9 139.788 1031.51 Q136.732 1036.09 130.922 1036.09 Q125.112 1036.09 122.033 1031.51 Q118.978 1026.9 118.978 1018.17 Q118.978 1009.42 122.033 1004.84 Q125.112 1000.23 130.922 1000.23 Z" fill="#000000" fill-rule="nonzero" fill-opacity="1" /><path clip-path="url(#clip350)" d="M161.084 1003.94 Q157.473 1003.94 155.644 1007.5 Q153.839 1011.04 153.839 1018.17 Q153.839 1025.28 155.644 1028.84 Q157.473 1032.39 161.084 1032.39 Q164.718 1032.39 166.524 1028.84 Q168.353 1025.28 168.353 1018.17 Q168.353 1011.04 166.524 1007.5 Q164.718 1003.94 161.084 1003.94 M161.084 1000.23 Q166.894 1000.23 169.95 1004.84 Q173.029 1009.42 173.029 1018.17 Q173.029 1026.9 169.95 1031.51 Q166.894 1036.09 161.084 1036.09 Q155.274 1036.09 152.195 1031.51 Q149.14 1026.9 149.14 1018.17 Q149.14 1009.42 152.195 1004.84 Q155.274 1000.23 161.084 1000.23 Z" fill="#000000" fill-rule="nonzero" fill-opacity="1" /><path clip-path="url(#clip350)" d="M191.246 1003.94 Q187.635 1003.94 185.806 1007.5 Q184.001 1011.04 184.001 1018.17 Q184.001 1025.28 185.806 1028.84 Q187.635 1032.39 191.246 1032.39 Q194.88 1032.39 196.686 1028.84 Q198.514 1025.28 198.514 1018.17 Q198.514 1011.04 196.686 1007.5 Q194.88 1003.94 191.246 1003.94 M191.246 1000.23 Q197.056 1000.23 200.112 1004.84 Q203.19 1009.42 203.19 1018.17 Q203.19 1026.9 200.112 1031.51 Q197.056 1036.09 191.246 1036.09 Q185.436 1036.09 182.357 1031.51 Q179.302 1026.9 179.302 1018.17 Q179.302 1009.42 182.357 1004.84 Q185.436 1000.23 191.246 1000.23 Z" fill="#000000" fill-rule="nonzero" fill-opacity="1" /><path clip-path="url(#clip350)" d="M81.154 724.095 L110.83 724.095 L110.83 728.03 L81.154 728.03 L81.154 724.095 Z" fill="#000000" fill-rule="nonzero" fill-opacity="1" /><path clip-path="url(#clip350)" d="M119.742 706.363 L141.964 706.363 L141.964 708.354 L129.418 740.923 L124.533 740.923 L136.339 710.298 L119.742 710.298 L119.742 706.363 Z" fill="#000000" fill-rule="nonzero" fill-opacity="1" /><path clip-path="url(#clip350)" d="M151.13 706.363 L169.487 706.363 L169.487 710.298 L155.413 710.298 L155.413 718.771 Q156.431 718.423 157.45 718.261 Q158.468 718.076 159.487 718.076 Q165.274 718.076 168.654 721.247 Q172.033 724.419 172.033 729.835 Q172.033 735.414 168.561 738.516 Q165.089 741.595 158.769 741.595 Q156.593 741.595 154.325 741.224 Q152.08 740.854 149.672 740.113 L149.672 735.414 Q151.755 736.548 153.978 737.104 Q156.2 737.659 158.677 737.659 Q162.681 737.659 165.019 735.553 Q167.357 733.446 167.357 729.835 Q167.357 726.224 165.019 724.118 Q162.681 722.011 158.677 722.011 Q156.802 722.011 154.927 722.428 Q153.075 722.845 151.13 723.724 L151.13 706.363 Z" fill="#000000" fill-rule="nonzero" fill-opacity="1" /><path clip-path="url(#clip350)" d="M191.246 709.442 Q187.635 709.442 185.806 713.007 Q184.001 716.548 184.001 723.678 Q184.001 730.784 185.806 734.349 Q187.635 737.891 191.246 737.891 Q194.88 737.891 196.686 734.349 Q198.514 730.784 198.514 723.678 Q198.514 716.548 196.686 713.007 Q194.88 709.442 191.246 709.442 M191.246 705.738 Q197.056 705.738 200.112 710.345 Q203.19 714.928 203.19 723.678 Q203.19 732.405 200.112 737.011 Q197.056 741.595 191.246 741.595 Q185.436 741.595 182.357 737.011 Q179.302 732.405 179.302 723.678 Q179.302 714.928 182.357 710.345 Q185.436 705.738 191.246 705.738 Z" fill="#000000" fill-rule="nonzero" fill-opacity="1" /><path clip-path="url(#clip350)" d="M81.154 429.6 L110.83 429.6 L110.83 433.535 L81.154 433.535 L81.154 429.6 Z" fill="#000000" fill-rule="nonzero" fill-opacity="1" /><path clip-path="url(#clip350)" d="M120.969 411.869 L139.325 411.869 L139.325 415.804 L125.251 415.804 L125.251 424.276 Q126.27 423.929 127.288 423.767 Q128.307 423.582 129.325 423.582 Q135.112 423.582 138.492 426.753 Q141.871 429.924 141.871 435.341 Q141.871 440.919 138.399 444.021 Q134.927 447.1 128.607 447.1 Q126.432 447.1 124.163 446.73 Q121.918 446.359 119.51 445.618 L119.51 440.919 Q121.594 442.054 123.816 442.609 Q126.038 443.165 128.515 443.165 Q132.519 443.165 134.857 441.058 Q137.195 438.952 137.195 435.341 Q137.195 431.73 134.857 429.623 Q132.519 427.517 128.515 427.517 Q126.64 427.517 124.765 427.933 Q122.913 428.35 120.969 429.23 L120.969 411.869 Z" fill="#000000" fill-rule="nonzero" fill-opacity="1" /><path clip-path="url(#clip350)" d="M161.084 414.947 Q157.473 414.947 155.644 418.512 Q153.839 422.054 153.839 429.183 Q153.839 436.29 155.644 439.855 Q157.473 443.396 161.084 443.396 Q164.718 443.396 166.524 439.855 Q168.353 436.29 168.353 429.183 Q168.353 422.054 166.524 418.512 Q164.718 414.947 161.084 414.947 M161.084 411.244 Q166.894 411.244 169.95 415.85 Q173.029 420.433 173.029 429.183 Q173.029 437.91 169.95 442.517 Q166.894 447.1 161.084 447.1 Q155.274 447.1 152.195 442.517 Q149.14 437.91 149.14 429.183 Q149.14 420.433 152.195 415.85 Q155.274 411.244 161.084 411.244 Z" fill="#000000" fill-rule="nonzero" fill-opacity="1" /><path clip-path="url(#clip350)" d="M191.246 414.947 Q187.635 414.947 185.806 418.512 Q184.001 422.054 184.001 429.183 Q184.001 436.29 185.806 439.855 Q187.635 443.396 191.246 443.396 Q194.88 443.396 196.686 439.855 Q198.514 436.29 198.514 429.183 Q198.514 422.054 196.686 418.512 Q194.88 414.947 191.246 414.947 M191.246 411.244 Q197.056 411.244 200.112 415.85 Q203.19 420.433 203.19 429.183 Q203.19 437.91 200.112 442.517 Q197.056 447.1 191.246 447.1 Q185.436 447.1 182.357 442.517 Q179.302 437.91 179.302 429.183 Q179.302 420.433 182.357 415.85 Q185.436 411.244 191.246 411.244 Z" fill="#000000" fill-rule="nonzero" fill-opacity="1" /><path clip-path="url(#clip350)" d="M81.154 135.105 L110.83 135.105 L110.83 139.041 L81.154 139.041 L81.154 135.105 Z" fill="#000000" fill-rule="nonzero" fill-opacity="1" /><path clip-path="url(#clip350)" d="M124.95 147.999 L141.269 147.999 L141.269 151.934 L119.325 151.934 L119.325 147.999 Q121.987 145.244 126.57 140.615 Q131.177 135.962 132.357 134.619 Q134.603 132.096 135.482 130.36 Q136.385 128.601 136.385 126.911 Q136.385 124.156 134.441 122.42 Q132.519 120.684 129.418 120.684 Q127.219 120.684 124.765 121.448 Q122.334 122.212 119.557 123.763 L119.557 119.041 Q122.381 117.906 124.834 117.328 Q127.288 116.749 129.325 116.749 Q134.695 116.749 137.89 119.434 Q141.084 122.119 141.084 126.61 Q141.084 128.74 140.274 130.661 Q139.487 132.559 137.381 135.152 Q136.802 135.823 133.7 139.041 Q130.598 142.235 124.95 147.999 Z" fill="#000000" fill-rule="nonzero" fill-opacity="1" /><path clip-path="url(#clip350)" d="M151.13 117.374 L169.487 117.374 L169.487 121.309 L155.413 121.309 L155.413 129.781 Q156.431 129.434 157.45 129.272 Q158.468 129.087 159.487 129.087 Q165.274 129.087 168.654 132.258 Q172.033 135.43 172.033 140.846 Q172.033 146.425 168.561 149.527 Q165.089 152.605 158.769 152.605 Q156.593 152.605 154.325 152.235 Q152.08 151.865 149.672 151.124 L149.672 146.425 Q151.755 147.559 153.978 148.115 Q156.2 148.67 158.677 148.67 Q162.681 148.67 165.019 146.564 Q167.357 144.457 167.357 140.846 Q167.357 137.235 165.019 135.129 Q162.681 133.022 158.677 133.022 Q156.802 133.022 154.927 133.439 Q153.075 133.855 151.13 134.735 L151.13 117.374 Z" fill="#000000" fill-rule="nonzero" fill-opacity="1" /><path clip-path="url(#clip350)" d="M191.246 120.453 Q187.635 120.453 185.806 124.018 Q184.001 127.559 184.001 134.689 Q184.001 141.795 185.806 145.36 Q187.635 148.902 191.246 148.902 Q194.88 148.902 196.686 145.36 Q198.514 141.795 198.514 134.689 Q198.514 127.559 196.686 124.018 Q194.88 120.453 191.246 120.453 M191.246 116.749 Q197.056 116.749 200.112 121.356 Q203.19 125.939 203.19 134.689 Q203.19 143.416 200.112 148.022 Q197.056 152.605 191.246 152.605 Q185.436 152.605 182.357 148.022 Q179.302 143.416 179.302 134.689 Q179.302 125.939 182.357 121.356 Q185.436 116.749 191.246 116.749 Z" fill="#000000" fill-rule="nonzero" fill-opacity="1" /><polyline clip-path="url(#clip352)" style="stroke:#009af9; stroke-linecap:round; stroke-linejoin:round; stroke-width:4; stroke-opacity:1; fill:none" points="299.008,111.242 299.507,111.531 300.005,114.321 300.504,114.627 301.003,209.843 301.501,210.013 302,172.891 302.499,173.096 302.997,87.9763 303.496,88.3042 303.994,142.929 304.493,143.193 304.992,217.407 305.49,217.752 305.989,102.331 306.487,102.627 306.986,194.371 307.485,194.612 307.983,102.769 308.482,103.037 308.98,226.413 309.479,226.686 309.978,137.8 310.476,138.12 310.975,166.992 311.473,167.258 311.972,159.214 312.471,159.439 312.969,149.731 313.468,149.968 313.966,203.246 314.465,203.489 314.964,222.121 315.462,222.336 315.961,145.248 316.46,145.491 316.958,155.424 317.457,155.694 317.955,195.312 318.454,195.482 318.953,262.555 319.451,262.723 319.95,175.493 320.448,175.735 320.947,208.215 321.446,208.307 321.944,308.938 322.443,309.016 322.941,153.055 323.44,153.21 323.939,223.166 324.437,223.314 324.936,244.382 325.434,244.515 325.933,255.782 326.432,255.921 326.93,228.65 327.429,228.757 327.927,249.494 328.426,249.565 328.925,221.473 329.423,221.56 329.922,197.963 330.421,198.08 330.919,235.859 331.418,235.955 331.916,270.817 332.415,270.95 332.914,231.168 333.412,231.304 333.911,240.392 334.409,240.491 334.908,186.325 335.407,186.468 335.905,336.912 336.404,337.001 336.902,206.486 337.401,206.567 337.9,274.905 338.398,274.958 338.897,240.287 339.395,240.362 339.894,226.687 340.393,226.778 340.891,238.485 341.39,238.563 341.888,207.965 342.387,208.07 342.886,284.075 343.384,284.133 343.883,238.765 344.382,238.856 344.88,261.915 345.379,261.985 345.877,260.801 346.376,260.847 346.875,206.614 347.373,206.699 347.872,319.028 348.37,319.034 348.869,253.475 349.368,253.552 349.866,275.524 350.365,275.614 350.863,270.038 351.362,270.017 351.861,265.463 352.359,265.51 352.858,361.629 353.356,361.617 353.855,226.971 354.354,227.018 354.852,353.513 355.351,353.501 355.849,249.178 356.348,249.165 356.847,261.904 357.345,261.981 357.844,262.001 358.343,262.042 358.841,386.15 359.34,386.07 359.838,221.02 360.337,221.062 360.836,290.757 361.334,290.735 361.833,289.243 362.331,289.191 362.83,402.003 363.329,401.906 363.827,313.425 364.326,313.422 364.824,227.509 365.323,227.522 365.822,312.731 366.32,312.696 366.819,337.506 367.317,337.439 367.816,296.683 368.315,296.652 368.813,341.581 369.312,341.472 369.81,352.896 370.309,352.824 370.808,257.956 371.306,257.942 371.805,354.468 372.304,354.443 372.802,367.496 373.301,367.432 373.799,358.636 374.298,358.561 374.797,317.094 375.295,316.999 375.794,365.422 376.292,365.329 376.791,386.457 377.29,386.316 377.788,361.323 378.287,361.259 378.785,359.382 379.284,359.299 379.783,344.958 380.281,344.89 380.78,344.551 381.278,344.509 381.777,338.417 382.276,338.398 382.774,354.8 383.273,354.748 383.771,239.599 384.27,239.603 384.769,383.223 385.267,383.12 385.766,314.08 386.265,314.056 386.763,315.712 387.262,315.647 387.76,305.355 388.259,305.278 388.758,271.456 389.256,271.391 389.755,433.071 390.253,432.906 390.752,447.227 391.251,447.132 391.749,362.637 392.248,362.539 392.746,391.556 393.245,391.474 393.744,424.874 394.242,424.813 394.741,399.713 395.239,399.595 395.738,395.365 396.237,395.239 396.735,351.939 397.234,351.876 397.732,394.499 398.231,394.339 398.73,362.076 399.228,361.951 399.727,510.434 400.226,510.291 400.724,415.726 401.223,415.596 401.721,299.847 402.22,299.797 402.719,461.159 403.217,461.012 403.716,313.709 404.214,313.669 404.713,436.357 405.212,436.217 405.71,353.432 406.209,353.369 406.707,421.057 407.206,420.932 407.705,400.589 408.203,400.488 408.702,458.423 409.2,458.227 409.699,443.327 410.198,443.184 410.696,328.105 411.195,328.004 411.693,351.269 412.192,351.205 412.691,367.985 413.189,367.868 413.688,420.342 414.187,420.243 414.685,361.925 415.184,361.831 415.682,501.268 416.181,501.067 416.68,431.982 417.178,431.864 417.677,472.191 418.175,472.042 418.674,402.685 419.173,402.527 419.671,420.029 420.17,419.901 420.668,344.122 421.167,344.054 421.666,448.864 422.164,448.668 422.663,467.327 423.161,467.133 423.66,375.131 424.159,375.039 424.657,403.478 425.156,403.363 425.654,382.798 426.153,382.705 426.652,528.867 427.15,528.69 427.649,517.492 428.148,517.34 428.646,368.204 429.145,368.096 429.643,394.696 430.142,394.587 430.641,477.689 431.139,477.504 431.638,493.412 432.136,493.259 432.635,370.251 433.134,370.172 433.632,466.661 434.131,466.495 434.629,467.631 435.128,467.462 435.627,485.517 436.125,485.383 436.624,448.951 437.122,448.86 437.621,387.433 438.12,387.346 438.618,460.897 439.117,460.734 439.615,422.545 440.114,422.401 440.613,443.038 441.111,442.935 441.61,405.896 442.109,405.817 442.607,451.351 443.106,451.204 443.604,457.595 444.103,457.466 444.602,467.7 445.1,467.586 445.599,476.053 446.097,475.938 446.596,410.503 447.095,410.456 447.593,519.242 448.092,519.058 448.59,489.94 449.089,489.835 449.588,447.08 450.086,446.917 450.585,536.016 451.083,535.859 451.582,501.03 452.081,500.873 452.579,467.955 453.078,467.8 453.576,525.061 454.075,524.848 454.574,505.835 455.072,505.695 455.571,442.839 456.07,442.682 456.568,515.994 457.067,515.842 457.565,489.164 458.064,489.004 458.563,513.264 459.061,513.119 459.56,416.441 460.058,416.349 460.557,469.174 461.056,468.954 461.554,481.596 462.053,481.492 462.551,476.141 463.05,475.958 463.549,525.345 464.047,525.189 464.546,471.975 465.044,471.805 465.543,475.752 466.042,475.64 466.54,428.377 467.039,428.3 467.537,517.287 468.036,517.184 468.535,505.428 469.033,505.32 469.532,510.153 470.031,510.031 470.529,415.838 471.028,415.762 471.526,482.28 472.025,482.153 472.524,538.071 473.022,537.923 473.521,592.54 474.019,592.297 474.518,546.788 475.017,546.607 475.515,570.711 476.014,570.53 476.512,363.352 477.011,363.274 477.51,556.264 478.008,556.073 478.507,555.154 479.005,554.949 479.504,553.861 480.003,553.658 480.501,501.397 481,501.219 481.498,550.871 481.997,550.711 482.496,520.214 482.994,520.006 483.493,482.947 483.992,482.813 484.49,537.703 484.989,537.549 485.487,586.081 485.986,585.878 486.485,473.232 486.983,473.079 487.482,538.122 487.98,537.977 488.479,515.4 488.978,515.275 489.476,565.448 489.975,565.323 490.473,575.07 490.972,574.983 491.471,537.467 491.969,537.313 492.468,486.661 492.966,486.562 493.465,538.238 493.964,538.084 494.462,485.132 494.961,484.998 495.459,497.054 495.958,496.873 496.457,525.592 496.955,525.446 497.454,516.801 497.953,516.712 498.451,479.878 498.95,479.707 499.448,494.473 499.947,494.389 500.446,519.779 500.944,519.65 501.443,568.332 501.941,568.212 502.44,466.345 502.939,466.241 503.437,550.677 503.936,550.546 504.434,512.381 504.933,512.267 505.432,560.594 505.93,560.395 506.429,600.548 506.927,600.218 507.426,566.268 507.925,566.096 508.423,557.806 508.922,557.64 509.42,503.907 509.919,503.788 510.418,474.696 510.916,474.592 511.415,701.62 511.914,701.361 512.412,602.735 512.911,602.569 513.409,566.285 513.908,566.128 514.407,585.681 514.905,585.431 515.404,584.299 515.902,584.096 516.401,507.725 516.9,507.628 517.398,673.332 517.897,673.096 518.395,553.396 518.894,553.247 519.393,579.507 519.891,579.369 520.39,499.568 520.888,499.446 521.387,598.873 521.886,598.739 522.384,530.106 522.883,529.998 523.381,648.779 523.88,648.658 524.379,593.858 524.877,593.613 525.376,598.03 525.875,597.92 526.373,680.92 526.872,680.738 527.37,563.001 527.869,562.89 528.368,599.552 528.866,599.385 529.365,469.789 529.863,469.678 530.362,519.446 530.861,519.268 531.359,596.652 531.858,596.484 532.356,569.128 532.855,568.997 533.354,537.325 533.852,537.225 534.351,580.81 534.849,580.689 535.348,579.521 535.847,579.369 536.345,550.621 536.844,550.518 537.342,735.556 537.841,735.335 538.34,706.396 538.838,706.206 539.337,494.664 539.835,494.486 540.334,525.149 540.833,525.062 541.331,535.462 541.83,535.368 542.329,725.281 542.827,725.183 543.326,638.122 543.824,637.987 544.323,574.816 544.822,574.71 545.32,574.833 545.819,574.697 546.317,591.304 546.816,591.124 547.315,572.73 547.813,572.603 548.312,557.7 548.81,557.528 549.309,531.406 549.808,531.315 550.306,634.872 550.805,634.753 551.303,698.012 551.802,697.863 552.301,590.309 552.799,590.142 553.298,511.848 553.796,511.783 554.295,613.746 554.794,613.635 555.292,498.409 555.791,498.23 556.29,609.951 556.788,609.789 557.287,625.124 557.785,625.004 558.284,580.107 558.783,579.929 559.281,606.419 559.78,606.263 560.278,504.029 560.777,503.902 561.276,602.522 561.774,602.433 562.273,609.928 562.771,609.81 563.27,558.751 563.769,558.573 564.267,631.988 564.766,631.812 565.264,560.448 565.763,560.322 566.262,540.721 566.76,540.613 567.259,645.424 567.757,645.327 568.256,665.194 568.755,665.121 569.253,597.064 569.752,596.969 570.251,662.06 570.749,661.859 571.248,637.525 571.746,637.324 572.245,707.803 572.744,707.484 573.242,628.923 573.741,628.838 574.239,641.828 574.738,641.719 575.237,595.468 575.735,595.373 576.234,676.829 576.732,676.607 577.231,622.804 577.73,622.708 578.228,625.977 578.727,625.861 579.225,653.425 579.724,653.246 580.223,591.872 580.721,591.776 581.22,687.521 581.718,687.416 582.217,610.997 582.716,610.849 583.214,708.776 583.713,708.678 584.212,688.771 584.71,688.605 585.209,503.812 585.707,503.687 586.206,545.932 586.705,545.741 587.203,672.859 587.702,672.732 588.2,615.47 588.699,615.322 589.198,629.559 589.696,629.415 590.195,688.446 590.693,688.316 591.192,689.413 591.691,689.201 592.189,625.14 592.688,624.971 593.186,720.024 593.685,719.865 594.184,632.625 594.682,632.528 595.181,701.573 595.679,701.455 596.178,573.936 596.677,573.82 597.175,646.868 597.674,646.751 598.173,650.372 598.671,650.183 599.17,615.521 599.668,615.364 600.167,679.584 600.666,679.459 601.164,584.18 601.663,584.073 602.161,648.084 602.66,647.97 603.159,683.849 603.657,683.69 604.156,714.92 604.654,714.74 605.153,599.976 605.652,599.887 606.15,668.789 606.649,668.629 607.147,639.929 607.646,639.678 608.145,658.12 608.643,657.991 609.142,625.375 609.64,625.212 610.139,666.864 610.638,666.723 611.136,534.518 611.635,534.371 612.134,728.535 612.632,728.347 613.131,642.236 613.629,642.059 614.128,608.623 614.627,608.475 615.125,670.069 615.624,669.856 616.122,604.037 616.621,603.863 617.12,735.454 617.618,735.364 618.117,662.118 618.615,662.027 619.114,587.585 619.613,587.507 620.111,644.991 620.61,644.876 621.108,580.535 621.607,580.417 622.106,774.103 622.604,773.98 623.103,650.797 623.601,650.724 624.1,727.593 624.599,727.405 625.097,653.771 625.596,653.544 626.095,600.96 626.593,600.796 627.092,652.946 627.59,652.8 628.089,636.649 628.588,636.513 629.086,667.76 629.585,667.578 630.083,648.701 630.582,648.613 631.081,681.78 631.579,681.695 632.078,669.748 632.576,669.618 633.075,654.694 633.574,654.561 634.072,658.768 634.571,658.682 635.069,660.612 635.568,660.434 636.067,651.582 636.565,651.451 637.064,649.628 637.562,649.462 638.061,714.64 638.56,714.495 639.058,634.329 639.557,634.215 640.056,636.804 640.554,636.722 641.053,706.766 641.551,706.541 642.05,747.061 642.549,746.9 643.047,715.064 643.546,714.898 644.044,597.421 644.543,597.335 645.042,757.736 645.54,757.594 646.039,685.214 646.537,685.043 647.036,633.948 647.535,633.856 648.033,685.871 648.532,685.773 649.03,736.882 649.529,736.729 650.028,619.932 650.526,619.83 651.025,721.948 651.523,721.849 652.022,753.006 652.521,752.823 653.019,694.134 653.518,693.959 654.017,686.259 654.515,686.168 655.014,686.507 655.512,686.385 656.011,749.239 656.51,749.137 657.008,674.246 657.507,674.125 658.005,644.476 658.504,644.33 659.003,677.539 659.501,677.429 660,754.333 660.498,754.198 660.997,615.673 661.496,615.589 661.994,783.063 662.493,782.928 662.991,563.483 663.49,563.409 663.989,702.347 664.487,702.078 664.986,636.56 665.484,636.443 665.983,682.39 666.482,682.313 666.98,667.169 667.479,667.088 667.978,613.713 668.476,613.621 668.975,631.394 669.473,631.285 669.972,731.585 670.471,731.499 670.969,686.68 671.468,686.584 671.966,695.7 672.465,695.539 672.964,625.109 673.462,625.022 673.961,651.249 674.459,651.146 674.958,646.525 675.457,646.434 675.955,659.279 676.454,659.174 676.952,683.863 677.451,683.795 677.95,723.317 678.448,723.134 678.947,786.757 679.445,786.646 679.944,673.344 680.443,673.251 680.941,670.552 681.44,670.433 681.939,676.684 682.437,676.6 682.936,712.065 683.434,711.867 683.933,736.546 684.432,736.382 684.93,693.532 685.429,693.422 685.927,689.659 686.426,689.591 686.925,719.324 687.423,719.244 687.922,695.409 688.42,695.2 688.919,681.552 689.418,681.461 689.916,711.03 690.415,710.876 690.913,733.371 691.412,733.294 691.911,666.025 692.409,665.833 692.908,648.293 693.406,648.2 693.905,707.7 694.404,707.6 694.902,673.259 695.401,673.138 695.9,779.429 696.398,779.301 696.897,622.383 697.395,622.224 697.894,715.245 698.393,715.09 698.891,654.477 699.39,654.383 699.888,708.234 700.387,708.173 700.886,627.858 701.384,627.772 701.883,689.18 702.381,689.083 702.88,783.189 703.379,782.979 703.877,683.544 704.376,683.458 704.874,778.588 705.373,778.43 705.872,651.659 706.37,651.564 706.869,693.029 707.367,692.931 707.866,757.92 708.365,757.826 708.863,703.075 709.362,702.975 709.861,706.683 710.359,706.554 710.858,685.502 711.356,685.415 711.855,718.22 712.354,718.125 712.852,665.381 713.351,665.28 713.849,731.461 714.348,731.308 714.847,645.13 715.345,644.92 715.844,752.071 716.342,751.936 716.841,706.607 717.34,706.494 717.838,633.132 718.337,633.065 718.835,679.184 719.334,679.111 719.833,752.56 720.331,752.51 720.83,699.946 721.328,699.885 721.827,728.561 722.326,728.495 722.824,635.768 723.323,635.691 723.822,740.978 724.32,740.88 724.819,707.211 725.317,707.165 725.816,662.587 726.315,662.411 726.813,685.411 727.312,685.289 727.81,697.103 728.309,696.943 728.808,641.831 729.306,641.752 729.805,787.21 730.303,787.051 730.802,721.84 731.301,721.679 731.799,720.143 732.298,720.066 732.796,714.445 733.295,714.366 733.794,597.918 734.292,597.844 734.791,722.466 735.289,722.293 735.788,713.658 736.287,713.509 736.785,658.059 737.284,657.963 737.783,712.433 738.281,712.315 738.78,603.037 739.278,602.931 739.777,679.792 740.276,679.713 740.774,744.38 741.273,744.328 741.771,701.27 742.27,701.169 742.769,729.827 743.267,729.707 743.766,748.574 744.264,748.497 744.763,786.624 745.262,786.537 745.76,747.276 746.259,747.217 746.757,737.64 747.256,737.548 747.755,745.273 748.253,745.057 748.752,723.14 749.25,723.066 749.749,748.374 750.248,748.284 750.746,726.982 751.245,726.906 751.744,694.713 752.242,694.637 752.741,669.478 753.239,669.389 753.738,695.447 754.237,695.352 754.735,717.517 755.234,717.297 755.732,696.489 756.231,696.415 756.73,697.239 757.228,697.148 757.727,726.142 758.225,726.048 758.724,690.709 759.223,690.553 759.721,734.191 760.22,734.067 760.718,778.728 761.217,778.621 761.716,704.223 762.214,704.132 762.713,763.105 763.211,763.016 763.71,678.787 764.209,678.694 764.707,741.079 765.206,740.968 765.705,770.214 766.203,770.025 766.702,770.949 767.2,770.791 767.699,767.944 768.198,767.868 768.696,688.207 769.195,688.124 769.693,702.563 770.192,702.425 770.691,686.78 771.189,686.694 771.688,672.827 772.186,672.763 772.685,770.636 773.184,770.515 773.682,698.541 774.181,698.453 774.679,719.38 775.178,719.171 775.677,773.65 776.175,773.527 776.674,721.254 777.172,721.198 777.671,734.698 778.17,734.611 778.668,710.1 779.167,710.004 779.666,724.07 780.164,723.973 780.663,735.474 781.161,735.398 781.66,611.013 782.159,610.937 782.657,652.524 783.156,652.483 783.654,714.573 784.153,714.504 784.652,761.823 785.15,761.762 785.649,771.979 786.147,771.714 786.646,702.097 787.145,701.936 787.643,733.798 788.142,733.741 788.64,704.201 789.139,704.06 789.638,708.81 790.136,708.697 790.635,771.062 791.133,770.996 791.632,741.915 792.131,741.861 792.629,690.471 793.128,690.317 793.627,715.14 794.125,715.012 794.624,680.572 795.122,680.408 795.621,745.532 796.12,745.443 796.618,658.864 797.117,658.831 797.615,792.955 798.114,792.837 798.613,707.857 799.111,707.759 799.61,716.895 800.108,716.832 800.607,747.707 801.106,747.58 801.604,712.671 802.103,712.535 802.601,785.813 803.1,785.642 803.599,855.668 804.097,855.564 804.596,799.887 805.094,799.791 805.593,743.986 806.092,743.87 806.59,770.751 807.089,770.679 807.588,627.42 808.086,627.365 808.585,726.935 809.083,726.892 809.582,734.581 810.081,734.503 810.579,685.889 811.078,685.85 811.576,742.931 812.075,742.785 812.574,693.401 813.072,693.274 813.571,815.715 814.069,815.429 814.568,656.678 815.067,656.581 815.565,696.867 816.064,696.806 816.562,664.2 817.061,664.123 817.56,801.153 818.058,801.055 818.557,650.565 819.055,650.472 819.554,717.235 820.053,717.179 820.551,833.593 821.05,833.519 821.549,678.017 822.047,677.962 822.546,771.022 823.044,770.896 823.543,739.215 824.042,739.02 824.54,709.053 825.039,708.984 825.537,762.559 826.036,762.478 826.535,643.091 827.033,642.977 827.532,713.133 828.03,713.028 828.529,715.301 829.028,715.191 829.526,790.474 830.025,790.414 830.523,696.065 831.022,695.914 831.521,759.011 832.019,758.846 832.518,665.201 833.016,665.156 833.515,657.803 834.014,657.687 834.512,764.541 835.011,764.405 835.51,728.878 836.008,728.689 836.507,753.917 837.005,753.823 837.504,706.163 838.003,706.096 838.501,754.951 839,754.876 839.498,761.18 839.997,761.043 840.496,727.822 840.994,727.74 841.493,856.136 841.991,856.018 842.49,805.628 842.989,805.562 843.487,752.418 843.986,752.329 844.484,815.009 844.983,814.864 845.482,684.248 845.98,684.121 846.479,774.156 846.977,774.018 847.476,763.638 847.975,763.58 848.473,759.856 848.972,759.675 849.47,689.943 849.969,689.894 850.468,766.803 850.966,766.701 851.465,756.924 851.964,756.814 852.462,699.807 852.961,699.689 853.459,783.351 853.958,783.259 854.457,739.582 854.955,739.369 855.454,818.055 855.952,817.969 856.451,680.477 856.95,680.322 857.448,666.946 857.947,666.841 858.445,717.068 858.944,716.964 859.443,760.141 859.941,759.988 860.44,592.495 860.938,592.391 861.437,822.492 861.936,822.289 862.434,732.717 862.933,732.576 863.431,802.073 863.93,802.039 864.429,810.144 864.927,810.075 865.426,742.085 865.925,741.975 866.423,783.721 866.922,783.662 867.42,675.295 867.919,675.201 868.418,693.811 868.916,693.761 869.415,759.195 869.913,759.109 870.412,816.094 870.911,815.966 871.409,667.813 871.908,667.755 872.406,755.328 872.905,755.175 873.404,671.291 873.902,671.15 874.401,727.68 874.899,727.536 875.398,818.349 875.897,818.254 876.395,790.966 876.894,790.847 877.392,740.785 877.891,740.732 878.39,744.869 878.888,744.834 879.387,758.54 879.886,758.444 880.384,721.241 880.883,721.148 881.381,719.054 881.88,718.948 882.379,726.663 882.877,726.544 883.376,741.661 883.874,741.571 884.373,728.722 884.872,728.626 885.37,692.559 885.869,692.418 886.367,669.248 886.866,669.139 887.365,737.972 887.863,737.889 888.362,703.928 888.86,703.866 889.359,763.639 889.858,763.57 890.356,740.141 890.855,740.021 891.353,744.284 891.852,744.197 892.351,737.497 892.849,737.429 893.348,674.919 893.847,674.871 894.345,833.332 894.844,833.214 895.342,709.526 895.841,709.423 896.34,722.624 896.838,722.595 897.337,811.96 897.835,811.863 898.334,803.258 898.833,803.213 899.331,734.25 899.83,734.104 900.328,734.287 900.827,734.14 901.326,794.879 901.824,794.832 902.323,768.19 902.821,768.043 903.32,731.443 903.819,731.375 904.317,827.551 904.816,827.429 905.314,738.485 905.813,738.405 906.312,757.987 906.81,757.796 907.309,751.31 907.808,751.157 908.306,687.3 908.805,687.215 909.303,726.511 909.802,726.392 910.301,722.621 910.799,722.509 911.298,784.977 911.796,784.907 912.295,802.482 912.794,802.418 913.292,805.217 913.791,805.123 914.289,775.135 914.788,775.034 915.287,745.133 915.785,745.059 916.284,800.515 916.782,800.421 917.281,769.11 917.78,769.043 918.278,842.174 918.777,842.073 919.275,724.149 919.774,724.051 920.273,653.359 920.771,653.279 921.27,707.522 921.769,707.457 922.267,852.193 922.766,852.146 923.264,746.335 923.763,746.245 924.262,791.136 924.76,790.972 925.259,751.9 925.757,751.867 926.256,754.523 926.755,754.416 927.253,701.36 927.752,701.307 928.25,730.998 928.749,730.866 929.248,746.949 929.746,746.836 930.245,746.056 930.743,745.915 931.242,747.067 931.741,746.928 932.239,744.249 932.738,744.13 933.236,829.899 933.735,829.842 934.234,805.156 934.732,805.08 935.231,744.551 935.73,744.482 936.228,794.877 936.727,794.817 937.225,763.033 937.724,762.936 938.223,734.941 938.721,734.855 939.22,790.45 939.718,790.414 940.217,703.816 940.716,703.69 941.214,815.381 941.713,815.278 942.211,683.525 942.71,683.425 943.209,745.923 943.707,745.83 944.206,851.493 944.704,851.346 945.203,809.14 945.702,808.991 946.2,893.291 946.699,893.233 947.197,804.87 947.696,804.78 948.195,777.981 948.693,777.72 949.192,781.364 949.691,781.141 950.189,792.535 950.688,792.401 951.186,750.837 951.685,750.757 952.184,728.874 952.682,728.76 953.181,823.049 953.679,823.003 954.178,780.578 954.677,780.53 955.175,786.236 955.674,785.986 956.172,804.784 956.671,804.755 957.17,723.723 957.668,723.691 958.167,723.673 958.665,723.53 959.164,693.867 959.663,693.782 960.161,758.251 960.66,758.182 961.158,723.632 961.657,723.602 962.156,758.744 962.654,758.647 963.153,742.539 963.652,742.423 964.15,778.192 964.649,778.14 965.147,823.131 965.646,822.988 966.145,777.996 966.643,777.875 967.142,780.675 967.64,780.594 968.139,741.458 968.638,741.4 969.136,648.229 969.635,648.152 970.133,743.394 970.632,743.322 971.131,777.351 971.629,777.244 972.128,795.074 972.626,794.959 973.125,743.239 973.624,743.145 974.122,804.775 974.621,804.72 975.119,764.123 975.618,764.085 976.117,830.992 976.615,830.954 977.114,793.838 977.613,793.777 978.111,875.138 978.61,875.044 979.108,731.761 979.607,731.633 980.106,835.929 980.604,835.759 981.103,735.922 981.601,735.861 982.1,758.686 982.599,758.605 983.097,799.147 983.596,799.082 984.094,744.512 984.593,744.448 985.092,711.714 985.59,711.609 986.089,710.34 986.587,710.291 987.086,762.45 987.585,762.411 988.083,874.753 988.582,874.673 989.08,713.73 989.579,713.65 990.078,806.396 990.576,806.331 991.075,750.722 991.574,750.64 992.072,712.821 992.571,712.782 993.069,817.712 993.568,817.544 994.067,801.492 994.565,801.454 995.064,752.85 995.562,752.726 996.061,805.126 996.56,804.951 997.058,795.882 997.557,795.835 998.055,807.597 998.554,807.525 999.053,739.569 999.551,739.473 1000.05,817.122 1000.55,817.064 1001.05,793.918 1001.55,793.748 1002.04,849.454 1002.54,849.375 1003.04,796.049 1003.54,796.03 1004.04,770.28 1004.54,770.209 1005.04,800.303 1005.53,800.228 1006.03,816.887 1006.53,816.833 1007.03,757.476 1007.53,757.39 1008.03,807.912 1008.53,807.825 1009.02,747.659 1009.52,747.602 1010.02,726.158 1010.52,726.048 1011.02,774.442 1011.52,774.369 1012.02,803.616 1012.52,803.55 1013.01,729.347 1013.51,729.235 1014.01,728.574 1014.51,728.499 1015.01,786.443 1015.51,786.354 1016.01,730.198 1016.5,730.081 1017,795.49 1017.5,795.329 1018,819.055 1018.5,818.96 1019,783.127 1019.5,783.061 1019.99,842.502 1020.49,842.435 1020.99,774.365 1021.49,774.184 1021.99,812.22 1022.49,812.133 1022.99,762.427 1023.48,762.409 1023.98,812.551 1024.48,812.445 1024.98,729.408 1025.48,729.294 1025.98,809.823 1026.48,809.7 1026.97,795.856 1027.47,795.77 1027.97,805.909 1028.47,805.856 1028.97,785.045 1029.47,784.981 1029.97,811.269 1030.46,811.17 1030.96,759.732 1031.46,759.657 1031.96,853.561 1032.46,853.488 1032.96,900.306 1033.46,900.242 1033.96,805.322 1034.45,805.245 1034.95,750.057 1035.45,750.005 1035.95,841.958 1036.45,841.731 1036.95,750.765 1037.45,750.613 1037.94,815.357 1038.44,815.175 1038.94,686.888 1039.44,686.831 1039.94,697.086 1040.44,697.035 1040.94,740.261 1041.43,740.123 1041.93,816.45 1042.43,816.335 1042.93,705.82 1043.43,705.693 1043.93,742.366 1044.43,742.183 1044.92,845.281 1045.42,845.195 1045.92,787.452 1046.42,787.341 1046.92,681.723 1047.42,681.656 1047.92,756.058 1048.41,755.959 1048.91,794.803 1049.41,794.625 1049.91,732.632 1050.41,732.607 1050.91,727.436 1051.41,727.334 1051.9,786.464 1052.4,786.337 1052.9,798.183 1053.4,798.063 1053.9,759.87 1054.4,759.713 1054.9,780.947 1055.4,780.797 1055.89,791.695 1056.39,791.644 1056.89,801.806 1057.39,801.715 1057.89,791.415 1058.39,791.298 1058.89,818.827 1059.38,818.69 1059.88,732.617 1060.38,732.513 1060.88,687.972 1061.38,687.902 1061.88,719.261 1062.38,719.124 1062.87,829.738 1063.37,829.581 1063.87,775.308 1064.37,775.166 1064.87,888.329 1065.37,888.291 1065.87,613.083 1066.36,612.965 1066.86,814.734 1067.36,814.637 1067.86,798.946 1068.36,798.784 1068.86,755.259 1069.36,755.142 1069.85,731.083 1070.35,730.996 1070.85,795.086 1071.35,795.037 1071.85,883.182 1072.35,883.053 1072.85,731.736 1073.35,731.63 1073.84,733.831 1074.34,733.787 1074.84,817.637 1075.34,817.507 1075.84,744.299 1076.34,744.183 1076.84,792.648 1077.33,792.577 1077.83,783.2 1078.33,783.112 1078.83,858.182 1079.33,858.117 1079.83,718.488 1080.33,718.412 1080.82,815.748 1081.32,815.648 1081.82,850.709 1082.32,850.616 1082.82,833.276 1083.32,833.081 1083.82,864.781 1084.31,864.671 1084.81,850.161 1085.31,849.995 1085.81,716.518 1086.31,716.494 1086.81,830.529 1087.31,830.373 1087.8,812.091 1088.3,811.99 1088.8,782.94 1089.3,782.846 1089.8,782.282 1090.3,782.213 1090.8,824.223 1091.29,824.101 1091.79,729.155 1092.29,729.134 1092.79,717.001 1093.29,716.862 1093.79,822.616 1094.29,822.553 1094.79,911.136 1095.28,911.07 1095.78,833.778 1096.28,833.706 1096.78,825.05 1097.28,824.894 1097.78,797.15 1098.28,797.024 1098.77,737.706 1099.27,737.552 1099.77,757.567 1100.27,757.476 1100.77,790.148 1101.27,790.032 1101.77,860.42 1102.26,860.297 1102.76,856.955 1103.26,856.885 1103.76,874.872 1104.26,874.79 1104.76,810.239 1105.26,810.169 1105.75,849.858 1106.25,849.787 1106.75,839.87 1107.25,839.748 1107.75,810.789 1108.25,810.641 1108.75,857.858 1109.24,857.772 1109.74,794.288 1110.24,794.202 1110.74,764.905 1111.24,764.818 1111.74,787.631 1112.24,787.52 1112.74,866.527 1113.23,866.475 1113.73,810.355 1114.23,810.291 1114.73,724.712 1115.23,724.648 1115.73,784.013 1116.23,783.936 1116.72,840.824 1117.22,840.636 1117.72,896.87 1118.22,896.724 1118.72,891.73 1119.22,891.639 1119.72,755.723 1120.21,755.637 1120.71,761.353 1121.21,761.269 1121.71,867.33 1122.21,867.267 1122.71,754.13 1123.21,754.006 1123.7,792.907 1124.2,792.614 1124.7,818.789 1125.2,818.751 1125.7,781.542 1126.2,781.441 1126.7,825.099 1127.19,825.027 1127.69,795.366 1128.19,795.338 1128.69,803.371 1129.19,803.338 1129.69,867.954 1130.19,867.821 1130.68,899.118 1131.18,898.92 1131.68,716.848 1132.18,716.807 1132.68,807.182 1133.18,807.112 1133.68,899.035 1134.18,898.954 1134.67,814.729 1135.17,814.606 1135.67,846.539 1136.17,846.396 1136.67,811.189 1137.17,811.008 1137.67,914.728 1138.16,914.678 1138.66,868.135 1139.16,868.06 1139.66,807.795 1140.16,807.693 1140.66,815.077 1141.16,814.982 1141.65,813.993 1142.15,813.938 1142.65,751.016 1143.15,750.905 1143.65,834.071 1144.15,833.924 1144.65,711.628 1145.14,711.588 1145.64,857.437 1146.14,857.3 1146.64,829.853 1147.14,829.64 1147.64,828.524 1148.14,828.282 1148.63,824.925 1149.13,824.834 1149.63,766.605 1150.13,766.534 1150.63,778.983 1151.13,778.802 1151.63,802.792 1152.13,802.738 1152.62,773.57 1153.12,773.483 1153.62,742.834 1154.12,742.715 1154.62,776.933 1155.12,776.814 1155.62,859.499 1156.11,859.326 1156.61,724.885 1157.11,724.74 1157.61,704.311 1158.11,704.193 1158.61,824.966 1159.11,824.876 1159.6,794.882 1160.1,794.774 1160.6,740.321 1161.1,740.281 1161.6,777.592 1162.1,777.512 1162.6,903.431 1163.09,903.365 1163.59,768.756 1164.09,768.672 1164.59,844.465 1165.09,844.283 1165.59,825.676 1166.09,825.599 1166.58,897.376 1167.08,897.27 1167.58,828.924 1168.08,828.798 1168.58,935.524 1169.08,935.446 1169.58,767.073 1170.07,767.025 1170.57,760.641 1171.07,760.546 1171.57,816.649 1172.07,816.531 1172.57,817.79 1173.07,817.662 1173.57,842.852 1174.06,842.758 1174.56,844.279 1175.06,844.09 1175.56,775.918 1176.06,775.799 1176.56,772.583 1177.06,772.52 1177.55,828.024 1178.05,827.967 1178.55,819.534 1179.05,819.432 1179.55,829.546 1180.05,829.402 1180.55,845.344 1181.04,845.186 1181.54,845.982 1182.04,845.822 1182.54,794.825 1183.04,794.697 1183.54,774.408 1184.04,774.36 1184.53,746.121 1185.03,746.06 1185.53,786.103 1186.03,786.009 1186.53,749.896 1187.03,749.847 1187.53,845.318 1188.02,845.202 1188.52,730.583 1189.02,730.496 1189.52,774.238 1190.02,774.138 1190.52,956.719 1191.02,956.52 1191.51,787.676 1192.01,787.552 1192.51,839.132 1193.01,839.071 1193.51,838.2 1194.01,838.139 1194.51,798.578 1195.01,798.507 1195.5,752.306 1196,752.27 1196.5,844.504 1197,844.413 1197.5,840.269 1198,840.084 1198.5,806.192 1198.99,806.089 1199.49,843.358 1199.99,843.299 1200.49,784.205 1200.99,784.159 1201.49,773.466 1201.99,773.398 1202.48,893.432 1202.98,893.4 1203.48,909.803 1203.98,909.611 1204.48,906.942 1204.98,906.808 1205.48,862.658 1205.97,862.522 1206.47,946.358 1206.97,946.268 1207.47,864.826 1207.97,864.689 1208.47,893.847 1208.97,893.818 1209.46,741.467 1209.96,741.352 1210.46,836.671 1210.96,836.54 1211.46,839.797 1211.96,839.688 1212.46,834.686 1212.96,834.617 1213.45,779.199 1213.95,779.148 1214.45,807.062 1214.95,806.972 1215.45,800.667 1215.95,800.544 1216.45,923.422 1216.94,923.344 1217.44,812.092 1217.94,811.944 1218.44,828.406 1218.94,828.21 1219.44,803.499 1219.94,803.462 1220.43,795.078 1220.93,794.985 1221.43,895.106 1221.93,895.082 1222.43,833.225 1222.93,833.198 1223.43,814.018 1223.92,813.909 1224.42,858.328 1224.92,858.242 1225.42,879.541 1225.92,879.392 1226.42,872.191 1226.92,872.095 1227.41,863.297 1227.91,863.247 1228.41,795.754 1228.91,795.61 1229.41,878.283 1229.91,878.119 1230.41,726.342 1230.9,726.232 1231.4,819.888 1231.9,819.713 1232.4,868.879 1232.9,868.732 1233.4,816.447 1233.9,816.327 1234.4,824.323 1234.89,824.286 1235.39,779.432 1235.89,779.369 1236.39,816.965 1236.89,816.863 1237.39,792.822 1237.89,792.737 1238.38,803.823 1238.88,803.678 1239.38,822.949 1239.88,822.899 1240.38,851.251 1240.88,851.096 1241.38,916.475 1241.87,916.43 1242.37,816.386 1242.87,816.251 1243.37,799.201 1243.87,799.131 1244.37,802.742 1244.87,802.71 1245.36,842.416 1245.86,842.356 1246.36,904.621 1246.86,904.537 1247.36,893.708 1247.86,893.624 1248.36,879.111 1248.85,879.02 1249.35,788.703 1249.85,788.595 1250.35,821.913 1250.85,821.797 1251.35,884.082 1251.85,883.969 1252.35,810.585 1252.84,810.48 1253.34,788.549 1253.84,788.393 1254.34,849.013 1254.84,848.805 1255.34,954.96 1255.84,954.848 1256.33,810.431 1256.83,810.2 1257.33,860.471 1257.83,860.441 1258.33,757.115 1258.83,757.067 1259.33,860.826 1259.82,860.727 1260.32,884.352 1260.82,884.231 1261.32,798.052 1261.82,797.968 1262.32,804.946 1262.82,804.835 1263.31,814.27 1263.81,814.203 1264.31,928.271 1264.81,928.204 1265.31,827.483 1265.81,827.378 1266.31,882.916 1266.8,882.804 1267.3,801.556 1267.8,801.452 1268.3,902.069 1268.8,902.009 1269.3,817.195 1269.8,817.152 1270.29,814.35 1270.79,814.33 1271.29,957.611 1271.79,957.474 1272.29,852.727 1272.79,852.546 1273.29,898.516 1273.79,898.481 1274.28,837.586 1274.78,837.479 1275.28,820.537 1275.78,820.388 1276.28,962.022 1276.78,961.943 1277.28,745.799 1277.77,745.735 1278.27,840.429 1278.77,840.389 1279.27,885.385 1279.77,885.308 1280.27,931.903 1280.77,931.828 1281.26,824.808 1281.76,824.726 1282.26,852.311 1282.76,852.25 1283.26,903.926 1283.76,903.879 1284.26,897.225 1284.75,897.158 1285.25,915.482 1285.75,915.386 1286.25,825.114 1286.75,824.957 1287.25,731.69 1287.75,731.563 1288.24,894.075 1288.74,893.947 1289.24,852.225 1289.74,852.042 1290.24,987.378 1290.74,987.293 1291.24,793.054 1291.73,792.908 1292.23,822.761 1292.73,822.49 1293.23,841.735 1293.73,841.631 1294.23,865.981 1294.73,865.89 1295.23,857.318 1295.72,857.274 1296.22,843.947 1296.72,843.856 1297.22,723.888 1297.72,723.757 1298.22,894.256 1298.72,894.163 1299.21,770.335 1299.71,770.257 1300.21,860.005 1300.71,859.902 1301.21,786.174 1301.71,786.056 1302.21,894.948 1302.7,894.733 1303.2,865.278 1303.7,865.182 1304.2,929.493 1304.7,929.338 1305.2,847.531 1305.7,847.476 1306.19,824.268 1306.69,824.166 1307.19,799.179 1307.69,799.078 1308.19,878.406 1308.69,878.316 1309.19,789.943 1309.68,789.862 1310.18,844.83 1310.68,844.794 1311.18,825.272 1311.68,825.165 1312.18,836.594 1312.68,836.451 1313.18,776.349 1313.67,776.259 1314.17,863.636 1314.67,863.571 1315.17,830.365 1315.67,830.267 1316.17,948.875 1316.67,948.829 1317.16,851.37 1317.66,851.208 1318.16,832.798 1318.66,832.65 1319.16,835.369 1319.66,835.264 1320.16,909.275 1320.65,909.141 1321.15,805.365 1321.65,805.309 1322.15,843.249 1322.65,843.169 1323.15,874.675 1323.65,874.604 1324.14,879.311 1324.64,879.183 1325.14,784.775 1325.64,784.623 1326.14,819.02 1326.64,818.953 1327.14,893.594 1327.63,893.475 1328.13,809.964 1328.63,809.778 1329.13,852.19 1329.63,852.154 1330.13,765.253 1330.63,765.162 1331.12,912.018 1331.62,911.934 1332.12,905.654 1332.62,905.481 1333.12,863.656 1333.62,863.528 1334.12,856.107 1334.62,856.032 1335.11,874.314 1335.61,874.089 1336.11,798.057 1336.61,797.996 1337.11,899.189 1337.61,899.101 1338.11,818.082 1338.6,817.918 1339.1,874.345 1339.6,874.219 1340.1,829.323 1340.6,829.194 1341.1,839.236 1341.6,839.188 1342.09,793.681 1342.59,793.53 1343.09,803.294 1343.59,803.228 1344.09,868.988 1344.59,868.755 1345.09,855.46 1345.58,855.258 1346.08,915.086 1346.58,914.91 1347.08,907.983 1347.58,907.806 1348.08,865.409 1348.58,865.366 1349.07,931.607 1349.57,931.562 1350.07,784.039 1350.57,783.977 1351.07,778.21 1351.57,778.059 1352.07,855.217 1352.57,855.128 1353.06,924.825 1353.56,924.764 1354.06,786.466 1354.56,786.389 1355.06,907.55 1355.56,907.336 1356.06,904.659 1356.55,904.588 1357.05,846.427 1357.55,846.301 1358.05,847.49 1358.55,847.229 1359.05,865.216 1359.55,865.044 1360.04,824.78 1360.54,824.603 1361.04,956.564 1361.54,956.436 1362.04,946.708 1362.54,946.636 1363.04,865.513 1363.53,865.394 1364.03,981.942 1364.53,981.805 1365.03,858.489 1365.53,858.374 1366.03,854.334 1366.53,854.239 1367.02,763.843 1367.52,763.665 1368.02,796.974 1368.52,796.857 1369.02,899.159 1369.52,899.027 1370.02,945.612 1370.51,945.473 1371.01,799.213 1371.51,799.122 1372.01,960.162 1372.51,960.091 1373.01,787.276 1373.51,787.194 1374.01,965.762 1374.5,965.713 1375,846.802 1375.5,846.73 1376,831.53 1376.5,831.445 1377,787.988 1377.5,787.849 1377.99,807.711 1378.49,807.632 1378.99,886.877 1379.49,886.751 1379.99,914.107 1380.49,913.984 1380.99,876.985 1381.48,876.946 1381.98,900.415 1382.48,900.231 1382.98,870.49 1383.48,870.437 1383.98,929.529 1384.48,929.507 1384.97,884.099 1385.47,883.945 1385.97,875.314 1386.47,875.224 1386.97,883.207 1387.47,883.048 1387.97,927.532 1388.46,927.408 1388.96,807.395 1389.46,807.244 1389.96,869.639 1390.46,869.507 1390.96,865.38 1391.46,865.306 1391.96,841.921 1392.45,841.801 1392.95,952.711 1393.45,952.628 1393.95,903.594 1394.45,903.499 1394.95,971.141 1395.45,971.038 1395.94,890.746 1396.44,890.683 1396.94,896.551 1397.44,896.465 1397.94,872.329 1398.44,872.24 1398.94,920.238 1399.43,920.156 1399.93,917.927 1400.43,917.856 1400.93,915.265 1401.43,915.284 1401.93,954.184 1402.43,954.074 1402.92,790.449 1403.42,790.352 1403.92,865.973 1404.42,865.93 1404.92,932.099 1405.42,932.058 1405.92,829.174 1406.41,829.048 1406.91,899.348 1407.41,899.272 1407.91,910.969 1408.41,910.832 1408.91,895.72 1409.41,895.612 1409.9,883.034 1410.4,882.965 1410.9,829.07 1411.4,828.956 1411.9,828.75 1412.4,828.673 1412.9,926.001 1413.4,925.871 1413.89,847.161 1414.39,847.023 1414.89,810.617 1415.39,810.52 1415.89,982.331 1416.39,982.264 1416.89,904.413 1417.38,904.15 1417.88,901.193 1418.38,901.108 1418.88,868.338 1419.38,868.179 1419.88,909.919 1420.38,909.82 1420.87,922.811 1421.37,922.781 1421.87,928.561 1422.37,928.464 1422.87,814.526 1423.37,814.384 1423.87,891.902 1424.36,891.758 1424.86,930.16 1425.36,930.025 1425.86,793.838 1426.36,793.808 1426.86,893.257 1427.36,893.089 1427.85,929.471 1428.35,929.272 1428.85,834.643 1429.35,834.567 1429.85,932.826 1430.35,932.712 1430.85,911.435 1431.34,911.241 1431.84,877.831 1432.34,877.725 1432.84,939.825 1433.34,939.689 1433.84,920.776 1434.34,920.702 1434.84,953.467 1435.33,953.367 1435.83,829.13 1436.33,829.041 1436.83,771.367 1437.33,771.288 1437.83,905.739 1438.33,905.61 1438.82,885.472 1439.32,885.405 1439.82,983.298 1440.32,983.167 1440.82,866.688 1441.32,866.595 1441.82,895.924 1442.31,895.826 1442.81,899.832 1443.31,899.747 1443.81,979.714 1444.31,979.616 1444.81,924.971 1445.31,924.922 1445.8,933.44 1446.3,933.22 1446.8,895.799 1447.3,895.584 1447.8,839.934 1448.3,839.626 1448.8,916.487 1449.29,916.296 1449.79,853.034 1450.29,852.904 1450.79,891.901 1451.29,891.751 1451.79,820.203 1452.29,820.141 1452.79,1031.13 1453.28,1030.99 1453.78,904.386 1454.28,904.275 1454.78,891.65 1455.28,891.507 1455.78,967.551 1456.28,967.435 1456.77,955.975 1457.27,955.766 1457.77,908.054 1458.27,907.975 1458.77,884.231 1459.27,884.202 1459.77,918.869 1460.26,918.757 1460.76,950.352 1461.26,950.191 1461.76,920.798 1462.26,920.656 1462.76,830.114 1463.26,829.987 1463.75,967.506 1464.25,967.384 1464.75,894.721 1465.25,894.601 1465.75,916.22 1466.25,916.059 1466.75,894.341 1467.24,894.27 1467.74,892.873 1468.24,892.837 1468.74,970.596 1469.24,970.469 1469.74,904.157 1470.24,904.016 1470.73,889.382 1471.23,889.261 1471.73,893.943 1472.23,893.789 1472.73,868.888 1473.23,868.806 1473.73,850.697 1474.23,850.591 1474.72,958.581 1475.22,958.464 1475.72,900.992 1476.22,900.88 1476.72,930.657 1477.22,930.474 1477.72,935.248 1478.21,935.207 1478.71,848.088 1479.21,847.949 1479.71,824.005 1480.21,823.913 1480.71,910.041 1481.21,909.821 1481.7,896.606 1482.2,896.463 1482.7,846.855 1483.2,846.778 1483.7,920.288 1484.2,920.15 1484.7,878.55 1485.19,878.404 1485.69,842.023 1486.19,841.989 1486.69,845.523 1487.19,845.425 1487.69,916.486 1488.19,916.389 1488.68,853.822 1489.18,853.729 1489.68,884.274 1490.18,884.211 1490.68,973.88 1491.18,973.754 1491.68,826.79 1492.18,826.693 1492.67,919.469 1493.17,919.42 1493.67,933.242 1494.17,933.052 1494.67,889.953 1495.17,889.789 1495.67,839.427 1496.16,839.359 1496.66,916.57 1497.16,916.499 1497.66,940.367 1498.16,940.24 1498.66,1000.08 1499.16,999.962 1499.65,890.768 1500.15,890.696 1500.65,832.78 1501.15,832.575 1501.65,951.992 1502.15,951.851 1502.65,903.626 1503.14,903.504 1503.64,935.589 1504.14,935.351 1504.64,1006.45 1505.14,1006.27 1505.64,921.592 1506.14,921.445 1506.63,989.999 1507.13,989.997 1507.63,934.4 1508.13,934.28 1508.63,991.887 1509.13,991.686 1509.63,828.994 1510.12,828.746 1510.62,904.327 1511.12,904.215 1511.62,871.999 1512.12,871.803 1512.62,938.915 1513.12,938.851 1513.62,970.721 1514.11,970.594 1514.61,888.877 1515.11,888.791 1515.61,925.523 1516.11,925.408 1516.61,1007.87 1517.11,1007.68 1517.6,942.438 1518.1,942.355 1518.6,900.558 1519.1,900.425 1519.6,858.649 1520.1,858.536 1520.6,747.203 1521.09,747.078 1521.59,829.793 1522.09,829.663 1522.59,901.586 1523.09,901.504 1523.59,969.743 1524.09,969.621 1524.58,1031.75 1525.08,1031.56 1525.58,1015.67 1526.08,1015.6 1526.58,974.879 1527.08,974.733 1527.58,932.379 1528.07,932.17 1528.57,874.82 1529.07,874.703 1529.57,1040.01 1530.07,1039.93 1530.57,995.116 1531.07,994.916 1531.56,831.455 1532.06,831.283 1532.56,1017.68 1533.06,1017.5 1533.56,968.873 1534.06,968.83 1534.56,900.316 1535.06,900.16 1535.55,947.731 1536.05,947.576 1536.55,871.103 1537.05,870.963 1537.55,1082.07 1538.05,1081.77 1538.55,917.275 1539.04,917.137 1539.54,957.821 1540.04,957.77 1540.54,923.251 1541.04,923.148 1541.54,880.495 1542.04,880.411 1542.53,898.21 1543.03,898.082 1543.53,924.236 1544.03,924.178 1544.53,888.377 1545.03,888.199 1545.53,856.724 1546.02,856.601 1546.52,914.533 1547.02,914.39 1547.52,912.042 1548.02,911.843 1548.52,947.127 1549.02,946.999 1549.51,979.474 1550.01,979.309 1550.51,965.073 1551.01,964.862 1551.51,903.551 1552.01,903.449 1552.51,912.075 1553.01,911.909 1553.5,913.064 1554,912.82 1554.5,912.149 1555,911.861 1555.5,1011.3 1556,1011.21 1556.5,871.68 1556.99,871.469 1557.49,900.974 1557.99,900.859 1558.49,902.157 1558.99,902.053 1559.49,879.95 1559.99,879.82 1560.48,871.797 1560.98,871.708 1561.48,1011.7 1561.98,1011.52 1562.48,990.754 1562.98,990.627 1563.48,999.668 1563.97,999.444 1564.47,905.887 1564.97,905.681 1565.47,922.343 1565.97,922.242 1566.47,855.226 1566.97,855.131 1567.46,909.912 1567.96,909.696 1568.46,911.062 1568.96,910.998 1569.46,923.11 1569.96,923.018 1570.46,924.327 1570.95,924.238 1571.45,944.104 1571.95,943.858 1572.45,953.578 1572.95,953.34 1573.45,890.824 1573.95,890.665 1574.45,955.185 1574.94,954.994 1575.44,938.232 1575.94,938.161 1576.44,929.675 1576.94,929.568 1577.44,891.346 1577.94,891.23 1578.43,920.837 1578.93,920.659 1579.43,851.025 1579.93,850.898 1580.43,959.43 1580.93,959.254 1581.43,962.05 1581.92,961.8 1582.42,978.567 1582.92,978.513 1583.42,942.534 1583.92,942.404 1584.42,980.211 1584.92,980.107 1585.41,1060.54 1585.91,1060.32 1586.41,903.712 1586.91,903.583 1587.41,976.358 1587.91,976.226 1588.41,934.911 1588.9,934.626 1589.4,952.211 1589.9,952.127 1590.4,883.736 1590.9,883.687 1591.4,951.917 1591.9,951.714 1592.4,907.298 1592.89,907.191 1593.39,998.084 1593.89,997.922 1594.39,1011.42 1594.89,1011.2 1595.39,1056.31 1595.89,1056.15 1596.38,1047.7 1596.88,1047.6 1597.38,968.058 1597.88,967.954 1598.38,906.528 1598.88,906.294 1599.38,989.225 1599.87,989.028 1600.37,906.519 1600.87,906.395 1601.37,901.289 1601.87,901.128 1602.37,963.287 1602.87,963.09 1603.36,924.513 1603.86,924.323 1604.36,892.63 1604.86,892.486 1605.36,994.584 1605.86,994.521 1606.36,943.487 1606.85,943.363 1607.35,985.468 1607.85,985.343 1608.35,938.981 1608.85,938.819 1609.35,1011.8 1609.85,1011.65 1610.34,924.567 1610.84,924.454 1611.34,955.874 1611.84,955.628 1612.34,879.967 1612.84,879.725 1613.34,944.747 1613.84,944.571 1614.33,959.892 1614.83,959.775 1615.33,1028.8 1615.83,1028.65 1616.33,963.111 1616.83,963.023 1617.33,970.668 1617.82,970.566 1618.32,871.802 1618.82,871.746 1619.32,922.027 1619.82,921.894 1620.32,977.618 1620.82,977.488 1621.31,1052.62 1621.81,1052.43 1622.31,1049.89 1622.81,1049.76 1623.31,948.257 1623.81,948.079 1624.31,998.052 1624.8,997.904 1625.3,1013.98 1625.8,1013.78 1626.3,981.779 1626.8,981.532 1627.3,979.878 1627.8,979.793 1628.29,989.831 1628.79,989.687 1629.29,1052.06 1629.79,1051.94 1630.29,971.664 1630.79,971.579 1631.29,1066.53 1631.79,1066.39 1632.28,996.919 1632.78,996.796 1633.28,1034.77 1633.78,1034.64 1634.28,915.508 1634.78,915.442 1635.28,907.533 1635.77,907.429 1636.27,1069.3 1636.77,1069.19 1637.27,1016.82 1637.77,1016.72 1638.27,932.774 1638.77,932.659 1639.26,951.879 1639.76,951.685 1640.26,1020.17 1640.76,1020.01 1641.26,1049.37 1641.76,1049.14 1642.26,933.643 1642.75,933.495 1643.25,1010.59 1643.75,1010.34 1644.25,1003.18 1644.75,1002.95 1645.25,993.601 1645.75,993.48 1646.24,962.002 1646.74,961.828 1647.24,957.623 1647.74,957.472 1648.24,946.535 1648.74,946.387 1649.24,1036.01 1649.73,1035.84 1650.23,1070.64 1650.73,1070.41 1651.23,833.068 1651.73,832.846 1652.23,912.043 1652.73,911.939 1653.23,903.776 1653.72,903.509 1654.22,924.132 1654.72,923.989 1655.22,968.85 1655.72,968.748 1656.22,1042.49 1656.72,1042.22 1657.21,1073.28 1657.71,1073.14 1658.21,1015.08 1658.71,1014.92 1659.21,999.039 1659.71,998.916 1660.21,899.73 1660.7,899.523 1661.2,951.114 1661.7,950.962 1662.2,924.231 1662.7,924.116 1663.2,982.743 1663.7,982.571 1664.19,875.437 1664.69,875.258 1665.19,960.198 1665.69,959.977 1666.19,958.332 1666.69,958.306 1667.19,985.834 1667.68,985.665 1668.18,1025.05 1668.68,1024.81 1669.18,1062.31 1669.68,1062.18 1670.18,981.168 1670.68,981 1671.17,908.656 1671.67,908.513 1672.17,1065.14 1672.67,1065.01 1673.17,1023.46 1673.67,1023.11 1674.17,993.113 1674.67,992.865 1675.16,1087.81 1675.66,1087.75 1676.16,1007.09 1676.66,1006.99 1677.16,1047.27 1677.66,1047.1 1678.16,903.98 1678.65,903.911 1679.15,1040.64 1679.65,1040.43 1680.15,892.09 1680.65,891.947 1681.15,1063.64 1681.65,1063.46 1682.14,1020.98 1682.64,1020.9 1683.14,883.7 1683.64,883.656 1684.14,994.605 1684.64,994.465 1685.14,1093.78 1685.63,1093.66 1686.13,979.714 1686.63,979.528 1687.13,1121.7 1687.63,1121.58 1688.13,998.116 1688.63,997.964 1689.12,1044.97 1689.62,1044.78 1690.12,1001.54 1690.62,1001.45 1691.12,1038.05 1691.62,1037.95 1692.12,1077.53 1692.62,1077.39 1693.11,1046.86 1693.61,1046.7 1694.11,986.565 1694.61,986.334 1695.11,1016.28 1695.61,1016.1 1696.11,965.154 1696.6,964.869 1697.1,1040.32 1697.6,1040.18 1698.1,1077.03 1698.6,1076.92 1699.1,963.556 1699.6,963.434 1700.09,1089.78 1700.59,1089.59 1701.09,923.98 1701.59,923.804 1702.09,1106.42 1702.59,1106.27 1703.09,1048.86 1703.58,1048.74 1704.08,1013.69 1704.58,1013.56 1705.08,1060.76 1705.58,1060.68 1706.08,1098.08 1706.58,1097.99 1707.07,938.885 1707.57,938.633 1708.07,1089.23 1708.57,1089.04 1709.07,1094.28 1709.57,1094.13 1710.07,907.463 1710.56,907.343 1711.06,1021.94 1711.56,1021.81 1712.06,1028.4 1712.56,1028.26 1713.06,1047.9 1713.56,1047.73 1714.06,1031.27 1714.55,1030.98 1715.05,994.578 1715.55,994.456 1716.05,965.828 1716.55,965.658 1717.05,1014.24 1717.55,1014.06 1718.04,1101.07 1718.54,1100.94 1719.04,944.834 1719.54,944.593 1720.04,941.465 1720.54,941.352 1721.04,1007.01 1721.53,1006.96 1722.03,954.508 1722.53,954.32 1723.03,1096.18 1723.53,1096.06 1724.03,959.892 1724.53,959.686 1725.02,1022.8 1725.52,1022.67 1726.02,1044.45 1726.52,1044.16 1727.02,938.496 1727.52,938.331 1728.02,1129.84 1728.51,1129.69 1729.01,964.306 1729.51,964.149 1730.01,1016.01 1730.51,1015.77 1731.01,981.094 1731.51,980.868 1732.01,1047.62 1732.5,1047.56 1733,1043.92 1733.5,1043.56 1734,1106.45 1734.5,1106.31 1735,935.964 1735.5,935.802 1735.99,1187.53 1736.49,1187.36 1736.99,948.559 1737.49,948.451 1737.99,1064.76 1738.49,1064.69 1738.99,1098.98 1739.48,1098.88 1739.98,1083.61 1740.48,1083.41 1740.98,974.614 1741.48,974.485 1741.98,1065.36 1742.48,1065.15 1742.97,921.318 1743.47,921.141 1743.97,1141.91 1744.47,1141.67 1744.97,961.157 1745.47,961.031 1745.97,1038.35 1746.46,1038.24 1746.96,1080.57 1747.46,1080.42 1747.96,1199.14 1748.46,1198.95 1748.96,1017.92 1749.46,1017.64 1749.95,965.042 1750.45,964.899 1750.95,1035.6 1751.45,1035.5 1751.95,1108.18 1752.45,1107.96 1752.95,1143.87 1753.45,1143.47 1753.94,995.321 1754.44,995.178 1754.94,1014.55 1755.44,1014.3 1755.94,1061.83 1756.44,1061.78 1756.94,1007.58 1757.43,1007.38 1757.93,1090.06 1758.43,1089.95 1758.93,1127.17 1759.43,1127.04 1759.93,1042.97 1760.43,1042.81 1760.92,1008.05 1761.42,1007.94 1761.92,1134.01 1762.42,1133.89 1762.92,1131.14 1763.42,1130.92 1763.92,960.838 1764.41,960.657 1764.91,944.505 1765.41,944.36 1765.91,1087.11 1766.41,1086.99 1766.91,1086.54 1767.41,1086.3 1767.9,999.12 1768.4,998.96 1768.9,1163.33 1769.4,1163.09 1769.9,1046.8 1770.4,1046.68 1770.9,1075.73 1771.4,1075.54 1771.89,1119.06 1772.39,1118.94 1772.89,1044.09 1773.39,1043.77 1773.89,1234.66 1774.39,1234.42 1774.89,1101.11 1775.38,1100.84 1775.88,1034.76 1776.38,1034.55 1776.88,1071.95 1777.38,1071.79 1777.88,933.605 1778.38,933.471 1778.87,1110.98 1779.37,1110.83 1779.87,1179.54 1780.37,1179.37 1780.87,1134.45 1781.37,1134.05 1781.87,995.882 1782.36,995.786 1782.86,1025 1783.36,1024.88 1783.86,1079.73 1784.36,1079.62 1784.86,1069.62 1785.36,1069.35 1785.85,954.553 1786.35,954.41 1786.85,1024.79 1787.35,1024.68 1787.85,1075.45 1788.35,1075.26 1788.85,1043.78 1789.34,1043.69 1789.84,997.793 1790.34,997.657 1790.84,935.625 1791.34,935.536 1791.84,1058.2 1792.34,1058.09 1792.84,976.082 1793.33,975.922 1793.83,1144.53 1794.33,1144.3 1794.83,982.25 1795.33,982.107 1795.83,1107.82 1796.33,1107.59 1796.82,1043.68 1797.32,1043.44 1797.82,982.146 1798.32,981.983 1798.82,1072.1 1799.32,1071.93 1799.82,1029.4 1800.31,1029.21 1800.81,1039.87 1801.31,1039.74 1801.81,1080.92 1802.31,1080.82 1802.81,1071.73 1803.31,1071.54 1803.8,1074.18 1804.3,1073.93 1804.8,1135.45 1805.3,1135.13 1805.8,987.593 1806.3,987.253 1806.8,1155.17 1807.29,1154.98 1807.79,1182.98 1808.29,1182.87 1808.79,1029.69 1809.29,1029.45 1809.79,1069.81 1810.29,1069.65 1810.78,1137.85 1811.28,1137.66 1811.78,1114.29 1812.28,1114.17 1812.78,1126.93 1813.28,1126.8 1813.78,999.538 1814.28,999.256 1814.77,1115.45 1815.27,1115.26 1815.77,1078.46 1816.27,1078.24 1816.77,1184.47 1817.27,1184.33 1817.77,948.834 1818.26,948.688 1818.76,1037.6 1819.26,1037.41 1819.76,951.908 1820.26,951.831 1820.76,936.197 1821.26,935.924 1821.75,1094.95 1822.25,1094.62 1822.75,1107.67 1823.25,1107.5 1823.75,1069.92 1824.25,1069.7 1824.75,1218 1825.24,1217.7 1825.74,1131.28 1826.24,1131.05 1826.74,948.806 1827.24,948.678 1827.74,1098.17 1828.24,1098.07 1828.73,1026.43 1829.23,1026.22 1829.73,1101.73 1830.23,1101.54 1830.73,1063.02 1831.23,1062.76 1831.73,1111.64 1832.23,1111.48 1832.72,1152.92 1833.22,1152.76 1833.72,1058.06 1834.22,1057.92 1834.72,1196.34 1835.22,1196.07 1835.72,1122.26 1836.21,1122.16 1836.71,1149.06 1837.21,1148.84 1837.71,986.407 1838.21,985.983 1838.71,1040.35 1839.21,1040.14 1839.7,1094.55 1840.2,1094.43 1840.7,1290.69 1841.2,1290.49 1841.7,1076.35 1842.2,1076.23 1842.7,897.712 1843.19,897.53 1843.69,1098.19 1844.19,1098.03 1844.69,1074.4 1845.19,1074.31 1845.69,1103.1 1846.19,1102.9 1846.68,1066.08 1847.18,1065.87 1847.68,1073.15 1848.18,1073.04 1848.68,1071.56 1849.18,1071.32 1849.68,1049.88 1850.17,1049.71 1850.67,1078.21 1851.17,1078.09 1851.67,1061.34 1852.17,1061.24 1852.67,1126.84 1853.17,1126.62 1853.67,1082.8 1854.16,1082.69 1854.66,1186.01 1855.16,1185.84 1855.66,940.998 1856.16,940.677 1856.66,1159.76 1857.16,1159.61 1857.65,1001 1858.15,1000.84 1858.65,1091.4 1859.15,1091.23 1859.65,932.777 1860.15,932.646 1860.65,1042.01 1861.14,1041.84 1861.64,1153.09 1862.14,1152.86 1862.64,1051.59 1863.14,1051.48 1863.64,1106.41 1864.14,1106.21 1864.63,1161.74 1865.13,1161.49 1865.63,1139.77 1866.13,1139.63 1866.63,1128.19 1867.13,1128.07 1867.63,1241.48 1868.12,1241.22 1868.62,1200.99 1869.12,1200.81 1869.62,1238.31 1870.12,1238.18 1870.62,1057.46 1871.12,1057.17 1871.62,1168.05 1872.11,1167.89 1872.61,1123.95 1873.11,1123.83 1873.61,1059.07 1874.11,1058.98 1874.61,1116.65 1875.11,1116.42 1875.6,1085.45 1876.1,1085.32 1876.6,1129.06 1877.1,1128.86 1877.6,990.022 1878.1,989.755 1878.6,950.672 1879.09,950.554 1879.59,1190.25 1880.09,1190.12 1880.59,1118.47 1881.09,1118.33 1881.59,1028.08 1882.09,1027.89 1882.58,1108.98 1883.08,1108.77 1883.58,1126.07 1884.08,1126 1884.58,1193.1 1885.08,1192.95 1885.58,1133 1886.07,1132.76 1886.57,1130.77 1887.07,1130.64 1887.57,1080.08 1888.07,1079.92 1888.57,1090.98 1889.07,1090.83 1889.56,1187.04 1890.06,1186.82 1890.56,1037.69 1891.06,1037.37 1891.56,1179.72 1892.06,1179.53 1892.56,1121.65 1893.06,1121.47 1893.55,1132.55 1894.05,1132.33 1894.55,1170.26 1895.05,1170.04 1895.55,1080.89 1896.05,1080.78 1896.55,1100.45 1897.04,1100.32 1897.54,976.497 1898.04,976.326 1898.54,1183.83 1899.04,1183.55 1899.54,1084.26 1900.04,1084.04 1900.53,1040.78 1901.03,1040.55 1901.53,1177.31 1902.03,1177.06 1902.53,1099.59 1903.03,1099.41 1903.53,1098.08 1904.02,1097.86 1904.52,1145.05 1905.02,1144.8 1905.52,1075.13 1906.02,1075.02 1906.52,1104.87 1907.02,1104.69 1907.51,1224.25 1908.01,1224.06 1908.51,1077.93 1909.01,1077.82 1909.51,1048.97 1910.01,1048.76 1910.51,1076.16 1911,1076.02 1911.5,992.212 1912,991.791 1912.5,1103.48 1913,1103.3 1913.5,1089.92 1914,1089.8 1914.5,1088.85 1914.99,1088.61 1915.49,1105.55 1915.99,1105.38 1916.49,1183.15 1916.99,1182.94 1917.49,1089.23 1917.99,1089.08 1918.48,1187.52 1918.98,1187.33 1919.48,1105.96 1919.98,1105.85 1920.48,1019.72 1920.98,1019.51 1921.48,1066.17 1921.97,1065.99 1922.47,1116.69 1922.97,1116.4 1923.47,1157.35 1923.97,1157.18 1924.47,1150.36 1924.97,1150.23 1925.46,1036.27 1925.96,1036.11 1926.46,1187.29 1926.96,1187.16 1927.46,1161.49 1927.96,1161.2 1928.46,1163.08 1928.95,1162.97 1929.45,1194.03 1929.95,1193.92 1930.45,1149.08 1930.95,1148.91 1931.45,1054.5 1931.95,1054.29 1932.45,1164.68 1932.94,1164.59 1933.44,1122.97 1933.94,1122.8 1934.44,1117.61 1934.94,1117.26 1935.44,1099.21 1935.94,1099.14 1936.43,1138.27 1936.93,1138.11 1937.43,1186.62 1937.93,1186.44 1938.43,1182.61 1938.93,1182.41 1939.43,1263.33 1939.92,1263.16 1940.42,1156.79 1940.92,1156.61 1941.42,1057.83 1941.92,1057.51 1942.42,1149.63 1942.92,1149.38 1943.41,984.838 1943.91,984.733 1944.41,1080.86 1944.91,1080.75 1945.41,1023.38 1945.91,1023.16 1946.41,1140.76 1946.9,1140.42 1947.4,1262.99 1947.9,1262.88 1948.4,1145.26 1948.9,1145.09 1949.4,1164.35 1949.9,1164.12 1950.39,1176.14 1950.89,1175.89 1951.39,1161.08 1951.89,1160.82 1952.39,1136.4 1952.89,1136.21 1953.39,1218.34 1953.89,1218.22 1954.38,1004.01 1954.88,1003.83 1955.38,1109.04 1955.88,1108.93 1956.38,1179.09 1956.88,1178.84 1957.38,1151.44 1957.87,1151.16 1958.37,1080.47 1958.87,1080.22 1959.37,1083.53 1959.87,1083.35 1960.37,1134.68 1960.87,1134.47 1961.36,1198.16 1961.86,1198 1962.36,1231.75 1962.86,1231.59 1963.36,1132.34 1963.86,1132.1 1964.36,1186.16 1964.85,1186.02 1965.35,1317.04 1965.85,1316.89 1966.35,1188.35 1966.85,1188.06 1967.35,1180.78 1967.85,1180.54 1968.34,1187.79 1968.84,1187.63 1969.34,1150.98 1969.84,1150.86 1970.34,1045.02 1970.84,1044.87 1971.34,1115.89 1971.84,1115.6 1972.33,1260.27 1972.83,1260.11 1973.33,1092.68 1973.83,1092.44 1974.33,1060.97 1974.83,1060.78 1975.33,1070.83 1975.82,1070.65 1976.32,1009.31 1976.82,1009.09 1977.32,1116.63 1977.82,1116.43 1978.32,1168.45 1978.82,1168.26 1979.31,1105.61 1979.81,1105.29 1980.31,1200.09 1980.81,1199.87 1981.31,1061.54 1981.81,1061.32 1982.31,1089.58 1982.8,1089.46 1983.3,1030.57 1983.8,1030.4 1984.3,1290.11 1984.8,1289.96 1985.3,1080.3 1985.8,1080.16 1986.29,1225.3 1986.79,1225.13 1987.29,1125.23 1987.79,1124.88 1988.29,1149.73 1988.79,1149.52 1989.29,1099.13 1989.78,1099.02 1990.28,1108.06 1990.78,1107.97 1991.28,1195.16 1991.78,1194.82 1992.28,1139.62 1992.78,1139.54 1993.28,1109.24 1993.77,1109.05 1994.27,1162.66 1994.77,1162.48 1995.27,998.999 1995.77,998.793 1996.27,962.452 1996.77,962.25 1997.26,1113.73 1997.76,1113.57 1998.26,1268.49 1998.76,1268.18 1999.26,1198.81 1999.76,1198.66 2000.26,1264.3 2000.75,1264.08 2001.25,1058.91 2001.75,1058.72 2002.25,1171.66 2002.75,1171.52 2003.25,1087.27 2003.75,1087.11 2004.24,1149.57 2004.74,1149.26 2005.24,1092.73 2005.74,1092.47 2006.24,1090.8 2006.74,1090.57 2007.24,1019.94 2007.73,1019.82 2008.23,1071.43 2008.73,1071.25 2009.23,1174.75 2009.73,1174.49 2010.23,1135.07 2010.73,1134.85 2011.23,1144.23 2011.72,1144.07 2012.22,1092.78 2012.72,1092.57 2013.22,1139.76 2013.72,1139.58 2014.22,1264.76 2014.72,1264.57 2015.21,1044.8 2015.71,1044.67 2016.21,1236.92 2016.71,1236.76 2017.21,1189.72 2017.71,1189.56 2018.21,1110.36 2018.7,1110.01 2019.2,1163.11 2019.7,1162.91 2020.2,1128.27 2020.7,1128.07 2021.2,1162.89 2021.7,1162.71 2022.19,1142.53 2022.69,1142.14 2023.19,1039.58 2023.69,1039.32 2024.19,1295.12 2024.69,1294.89 2025.19,1212.1 2025.68,1211.94 2026.18,1247.34 2026.68,1247.17 2027.18,1220.63 2027.68,1220.42 2028.18,1167.09 2028.68,1166.85 2029.17,1170.68 2029.67,1170.53 2030.17,1157.73 2030.67,1157.54 2031.17,1281.58 2031.67,1281.39 2032.17,1158.19 2032.67,1158.04 2033.16,1093.53 2033.66,1093.29 2034.16,1033.02 2034.66,1032.82 2035.16,1133.38 2035.66,1133.01 2036.16,1113.5 2036.65,1113.36 2037.15,1080.52 2037.65,1080.31 2038.15,1137.44 2038.65,1137.33 2039.15,1040.33 2039.65,1040.21 2040.14,1064.3 2040.64,1064.02 2041.14,1103.59 2041.64,1103.49 2042.14,1081.29 2042.64,1081.15 2043.14,1213.26 2043.63,1213.06 2044.13,1240.11 2044.63,1239.78 2045.13,1188.36 2045.63,1188.22 2046.13,1201.74 2046.63,1201.56 2047.12,1195.53 2047.62,1195.36 2048.12,1216.61 2048.62,1216.3 2049.12,1166.83 2049.62,1166.66 2050.12,1145.3 2050.61,1145.02 2051.11,1144.31 2051.61,1144.17 2052.11,1337.31 2052.61,1337.08 2053.11,1232.25 2053.61,1232 2054.11,1150.38 2054.6,1150.1 2055.1,1186.36 2055.6,1186.22 2056.1,1118.8 2056.6,1118.62 2057.1,1101.72 2057.6,1101.45 2058.09,1158.04 2058.59,1157.94 2059.09,1095.58 2059.59,1095.47 2060.09,1223.22 2060.59,1223.04 2061.09,1250.34 2061.58,1250.17 2062.08,1219.6 2062.58,1219.42 2063.08,1272.49 2063.58,1272.43 2064.08,1085.26 2064.58,1085.08 2065.07,1083.61 2065.57,1083.44 2066.07,1197.85 2066.57,1197.77 2067.07,1241.3 2067.57,1241.11 2068.07,1147.97 2068.56,1147.85 2069.06,1157.2 2069.56,1156.99 2070.06,1070.58 2070.56,1070.35 2071.06,1114.38 2071.56,1114.13 2072.06,1120.83 2072.55,1120.58 2073.05,1087.18 2073.55,1086.88 2074.05,1203.32 2074.55,1203.03 2075.05,1187.38 2075.55,1187.26 2076.04,1209.29 2076.54,1209.14 2077.04,1120.78 2077.54,1120.65 2078.04,1350.81 2078.54,1350.75 2079.04,1149.63 2079.53,1149.47 2080.03,1156.76 2080.53,1156.68 2081.03,1121.5 2081.53,1121.27 2082.03,1183.92 2082.53,1183.79 2083.02,1108.39 2083.52,1108.21 2084.02,1295.25 2084.52,1295.1 2085.02,1219.53 2085.52,1219.32 2086.02,1182.77 2086.51,1182.55 2087.01,1164.95 2087.51,1164.87 2088.01,1129.17 2088.51,1128.96 2089.01,1118.44 2089.51,1118.19 2090,1282.83 2090.5,1282.61 2091,1256.14 2091.5,1255.96 2092,1255.1 2092.5,1254.85 2093,1218.3 2093.5,1218.09 2093.99,1043.69 2094.49,1043.6 2094.99,1170.51 2095.49,1170.42 2095.99,1270.35 2096.49,1270.02 2096.99,1145.79 2097.48,1145.6 2097.98,1139.19 2098.48,1139.01 2098.98,1218.14 2099.48,1218.02 2099.98,1232.8 2100.48,1232.55 2100.97,1204.79 2101.47,1204.58 2101.97,1087.55 2102.47,1087.36 2102.97,1363.56 2103.47,1363.4 2103.97,1194.8 2104.46,1194.59 2104.96,1421.97 2105.46,1421.77 2105.96,1229.63 2106.46,1229.49 2106.96,1165.35 2107.46,1165.2 2107.95,1213.78 2108.45,1213.66 2108.95,1204.41 2109.45,1204.17 2109.95,1192.92 2110.45,1192.77 2110.95,1167.61 2111.45,1167.26 2111.94,1188.43 2112.44,1188.27 2112.94,1218.23 2113.44,1218.08 2113.94,1096.59 2114.44,1096.35 2114.94,1136.86 2115.43,1136.54 2115.93,1259.48 2116.43,1259.18 2116.93,1173.35 2117.43,1173.26 2117.93,1136.82 2118.43,1136.5 2118.92,1274.88 2119.42,1274.7 2119.92,1153.12 2120.42,1152.95 2120.92,1083.05 2121.42,1082.97 2121.92,1328.76 2122.41,1328.56 2122.91,1242.1 2123.41,1241.87 2123.91,1214.53 2124.41,1214.4 2124.91,1257.78 2125.41,1257.69 2125.9,1186.39 2126.4,1186.08 2126.9,1181.22 2127.4,1181.07 2127.9,1208.6 2128.4,1208.28 2128.9,1110.39 2129.39,1110.15 2129.89,1104.43 2130.39,1104.24 2130.89,1057.36 2131.39,1057.12 2131.89,1197.69 2132.39,1197.44 2132.89,1125.98 2133.38,1125.71 2133.88,1243.58 2134.38,1243.29 2134.88,1174.35 2135.38,1174.19 2135.88,1296.41 2136.38,1296.11 2136.87,1187.97 2137.37,1187.84 2137.87,1310.63 2138.37,1310.52 2138.87,1239.8 2139.37,1239.51 2139.87,1226.67 2140.36,1226.56 2140.86,1186.63 2141.36,1186.43 2141.86,1124.39 2142.36,1124.17 2142.86,1268.11 2143.36,1267.98 2143.85,1124.48 2144.35,1124.13 2144.85,1238.21 2145.35,1237.99 2145.85,1179.42 2146.35,1179.28 2146.85,1231.07 2147.34,1230.95 2147.84,1102.82 2148.34,1102.68 2148.84,1231.25 2149.34,1231.15 2149.84,1339.07 2150.34,1338.9 2150.83,1161.22 2151.33,1161.01 2151.83,1173.69 2152.33,1173.52 2152.83,1176.03 2153.33,1175.89 2153.83,1174.86 2154.33,1174.58 2154.82,1234.39 2155.32,1234.15 2155.82,1192.65 2156.32,1192.47 2156.82,1094.64 2157.32,1094.52 2157.82,1241.81 2158.31,1241.68 2158.81,1243.73 2159.31,1243.5 2159.81,1319.81 2160.31,1319.62 2160.81,1173.98 2161.31,1173.75 2161.8,1171.2 2162.3,1170.96 2162.8,1187.86 2163.3,1187.66 2163.8,1078.58 2164.3,1078.36 2164.8,1231.03 2165.29,1230.71 2165.79,1227.29 2166.29,1227.15 2166.79,1198.3 2167.29,1197.97 2167.79,1054.78 2168.29,1054.62 2168.78,1157.99 2169.28,1157.73 2169.78,1328.41 2170.28,1328.17 2170.78,1221.48 2171.28,1221.23 2171.78,1319.41 2172.28,1319.29 2172.77,1114.32 2173.27,1114.12 2173.77,1224.36 2174.27,1224.07 2174.77,1176.5 2175.27,1176.32 2175.77,1182.22 2176.26,1182.06 2176.76,1135.1 2177.26,1134.91 2177.76,1137.91 2178.26,1137.73 2178.76,1117.88 2179.26,1117.61 2179.75,1086.43 2180.25,1086.25 2180.75,1167.53 2181.25,1167.34 2181.75,1227.57 2182.25,1227.44 2182.75,1270.53 2183.24,1270.34 2183.74,1367.5 2184.24,1367.27 2184.74,1253.35 2185.24,1253.24 2185.74,1129.5 2186.24,1129.29 2186.73,1204.92 2187.23,1204.68 2187.73,1174.35 2188.23,1174.21 2188.73,1199.41 2189.23,1199.23 2189.73,1199.36 2190.22,1199.22 2190.72,1299.11 2191.22,1298.86 2191.72,1181.4 2192.22,1181.06 2192.72,1207.2 2193.22,1207.11 2193.72,1270.25 2194.21,1270.09 2194.71,1121.11 2195.21,1120.87 2195.71,1217.6 2196.21,1217.44 2196.71,1177.66 2197.21,1177.42 2197.7,1179.61 2198.2,1179.43 2198.7,1244.15 2199.2,1243.88 2199.7,1116 2200.2,1115.9 2200.7,1155.67 2201.19,1155.19 2201.69,1159.93 2202.19,1159.71 2202.69,1199.07 2203.19,1198.86 2203.69,1162.07 2204.19,1161.86 2204.68,1176.94 2205.18,1176.8 2205.68,1255.13 2206.18,1254.94 2206.68,1232.22 2207.18,1232.05 2207.68,1249.79 2208.17,1249.56 2208.67,1256.26 2209.17,1256.04 2209.67,1197.18 2210.17,1196.89 2210.67,1179.89 2211.17,1179.73 2211.67,1270.69 2212.16,1270.57 2212.66,1323.69 2213.16,1323.52 2213.66,1294.82 2214.16,1294.62 2214.66,1342.51 2215.16,1342.38 2215.65,1197.38 2216.15,1197.09 2216.65,1316.04 2217.15,1315.83 2217.65,1267.76 2218.15,1267.6 2218.65,1247.73 2219.14,1247.46 2219.64,1205.13 2220.14,1204.99 2220.64,1204.8 2221.14,1204.67 2221.64,1199.48 2222.14,1199.26 2222.63,1179.07 2223.13,1178.81 2223.63,1241.67 2224.13,1241.37 2224.63,1238.1 2225.13,1237.98 2225.63,1217.28 2226.12,1217.03 2226.62,1163.28 2227.12,1163.16 2227.62,1149.35 2228.12,1149.16 2228.62,1244.31 2229.12,1244.09 2229.61,1119.45 2230.11,1119.22 2230.61,1189.82 2231.11,1189.63 2231.61,1242.03 2232.11,1241.83 2232.61,1241.06 2233.11,1240.86 2233.6,1260.01 2234.1,1259.85 2234.6,1159.5 2235.1,1159.35 2235.6,1316.19 2236.1,1315.83 2236.6,1262.13 2237.09,1261.83 2237.59,1263.71 2238.09,1263.37 2238.59,1354.49 2239.09,1354.35 2239.59,1377.7 2240.09,1377.42 2240.58,1244.47 2241.08,1244.24 2241.58,1313.74 2242.08,1313.56 2242.58,1294.49 2243.08,1294.3 2243.58,1177.91 2244.07,1177.76 2244.57,1138.64 2245.07,1138.37 2245.57,1240.13 2246.07,1240.01 2246.57,1183.46 2247.07,1183.31 2247.56,1338.45 2248.06,1338.31 2248.56,1264.59 2249.06,1264.17 2249.56,1155.96 2250.06,1155.79 2250.56,1192.28 2251.06,1192.15 2251.55,1332.79 2252.05,1332.57 2252.55,1188.3 2253.05,1188.2 2253.55,1217.98 2254.05,1217.82 2254.55,1307.53 2255.04,1307.37 2255.54,1146.47 2256.04,1146.26 2256.54,1244.75 2257.04,1244.61 2257.54,1102.9 2258.04,1102.75 2258.53,1173.19 2259.03,1173.04 2259.53,1206.72 2260.03,1206.59 2260.53,1256.01 2261.03,1255.83 2261.53,1279.58 2262.02,1279.48 2262.52,1234.47 2263.02,1234.24 2263.52,1273.77 2264.02,1273.56 2264.52,1216.45 2265.02,1216.32 2265.51,1209.5 2266.01,1209.28 2266.51,1256.31 2267.01,1256 2267.51,1261.51 2268.01,1261.23 2268.51,1191.54 2269,1191.32 2269.5,1177.21 2270,1176.97 2270.5,1212.82 2271,1212.58 2271.5,1233.36 2272,1233.05 2272.5,1322.96 2272.99,1322.72 2273.49,1380.08 2273.99,1379.85 2274.49,1307.09 2274.99,1306.78 2275.49,1287.94 2275.99,1287.76 2276.48,1173.17 2276.98,1173.01 2277.48,1201.49 2277.98,1201.36 2278.48,1445.72 2278.98,1445.54 2279.48,1297.17 2279.97,1297.04 2280.47,1295.84 2280.97,1295.56 2281.47,1268.96 2281.97,1268.69 2282.47,1226.53 2282.97,1226.27 2283.46,1196.12 2283.96,1196.05 2284.46,1304.5 2284.96,1304.23 2285.46,1283.53 2285.96,1283.42 2286.46,1132.64 2286.95,1132.42 2287.45,1169.48 2287.95,1169.18 2288.45,1237.18 2288.95,1236.95 2289.45,1216.88 2289.95,1216.62 2290.44,1196.11 2290.94,1195.82 2291.44,1194.55 2291.94,1194.42 2292.44,1253.04 2292.94,1252.78 "/>
<path clip-path="url(#clip350)" d="M2018.52 198.898 L2282.3 198.898 L2282.3 95.2176 L2018.52 95.2176  Z" fill="#ffffff" fill-rule="evenodd" fill-opacity="1"/>
<polyline clip-path="url(#clip350)" style="stroke:#000000; stroke-linecap:round; stroke-linejoin:round; stroke-width:4; stroke-opacity:1; fill:none" points="2018.52,198.898 2282.3,198.898 2282.3,95.2176 2018.52,95.2176 2018.52,198.898 "/>
<polyline clip-path="url(#clip350)" style="stroke:#009af9; stroke-linecap:round; stroke-linejoin:round; stroke-width:4; stroke-opacity:1; fill:none" points="2042,147.058 2182.91,147.058 "/>
<path clip-path="url(#clip350)" d="M2220.23 166.745 Q2218.43 171.375 2216.71 172.787 Q2215 174.199 2212.13 174.199 L2208.73 174.199 L2208.73 170.634 L2211.23 170.634 Q2212.99 170.634 2213.96 169.8 Q2214.93 168.967 2216.11 165.865 L2216.88 163.921 L2206.39 138.412 L2210.9 138.412 L2219.01 158.689 L2227.11 138.412 L2231.62 138.412 L2220.23 166.745 Z" fill="#000000" fill-rule="nonzero" fill-opacity="1" /><path clip-path="url(#clip350)" d="M2238.91 160.402 L2246.55 160.402 L2246.55 134.037 L2238.24 135.703 L2238.24 131.444 L2246.5 129.778 L2251.18 129.778 L2251.18 160.402 L2258.82 160.402 L2258.82 164.338 L2238.91 164.338 L2238.91 160.402 Z" fill="#000000" fill-rule="nonzero" fill-opacity="1" /></svg>
