<?xml version="1.0" encoding="utf-8"?>
<svg xmlns="http://www.w3.org/2000/svg" xmlns:xlink="http://www.w3.org/1999/xlink" width="600" height="400" viewBox="0 0 2400 1600">
<defs>
  <clipPath id="clip320">
    <rect x="0" y="0" width="2400" height="1600"/>
  </clipPath>
</defs>
<path clip-path="url(#clip320)" d="M0 1600 L2400 1600 L2400 0 L0 0  Z" fill="#ffffff" fill-rule="evenodd" fill-opacity="1"/>
<defs>
  <clipPath id="clip321">
    <rect x="480" y="0" width="1681" height="1600"/>
  </clipPath>
</defs>
<path clip-path="url(#clip320)" d="M184.191 1486.45 L2352.76 1486.45 L2352.76 47.2441 L184.191 47.2441  Z" fill="#ffffff" fill-rule="evenodd" fill-opacity="1"/>
<defs>
  <clipPath id="clip322">
    <rect x="184" y="47" width="2170" height="1440"/>
  </clipPath>
</defs>
<polyline clip-path="url(#clip322)" style="stroke:#000000; stroke-linecap:round; stroke-linejoin:round; stroke-width:2; stroke-opacity:0.1; fill:none" points="245.565,1486.45 245.565,47.2441 "/>
<polyline clip-path="url(#clip322)" style="stroke:#000000; stroke-linecap:round; stroke-linejoin:round; stroke-width:2; stroke-opacity:0.1; fill:none" points="757.019,1486.45 757.019,47.2441 "/>
<polyline clip-path="url(#clip322)" style="stroke:#000000; stroke-linecap:round; stroke-linejoin:round; stroke-width:2; stroke-opacity:0.1; fill:none" points="1268.47,1486.45 1268.47,47.2441 "/>
<polyline clip-path="url(#clip322)" style="stroke:#000000; stroke-linecap:round; stroke-linejoin:round; stroke-width:2; stroke-opacity:0.1; fill:none" points="1779.93,1486.45 1779.93,47.2441 "/>
<polyline clip-path="url(#clip322)" style="stroke:#000000; stroke-linecap:round; stroke-linejoin:round; stroke-width:2; stroke-opacity:0.1; fill:none" points="2291.38,1486.45 2291.38,47.2441 "/>
<polyline clip-path="url(#clip320)" style="stroke:#000000; stroke-linecap:round; stroke-linejoin:round; stroke-width:4; stroke-opacity:1; fill:none" points="184.191,1486.45 2352.76,1486.45 "/>
<polyline clip-path="url(#clip320)" style="stroke:#000000; stroke-linecap:round; stroke-linejoin:round; stroke-width:4; stroke-opacity:1; fill:none" points="245.565,1486.45 245.565,1467.55 "/>
<polyline clip-path="url(#clip320)" style="stroke:#000000; stroke-linecap:round; stroke-linejoin:round; stroke-width:4; stroke-opacity:1; fill:none" points="757.019,1486.45 757.019,1467.55 "/>
<polyline clip-path="url(#clip320)" style="stroke:#000000; stroke-linecap:round; stroke-linejoin:round; stroke-width:4; stroke-opacity:1; fill:none" points="1268.47,1486.45 1268.47,1467.55 "/>
<polyline clip-path="url(#clip320)" style="stroke:#000000; stroke-linecap:round; stroke-linejoin:round; stroke-width:4; stroke-opacity:1; fill:none" points="1779.93,1486.45 1779.93,1467.55 "/>
<polyline clip-path="url(#clip320)" style="stroke:#000000; stroke-linecap:round; stroke-linejoin:round; stroke-width:4; stroke-opacity:1; fill:none" points="2291.38,1486.45 2291.38,1467.55 "/>
<path clip-path="url(#clip320)" d="M245.565 1517.37 Q241.954 1517.37 240.125 1520.93 Q238.32 1524.47 238.32 1531.6 Q238.32 1538.71 240.125 1542.27 Q241.954 1545.82 245.565 1545.82 Q249.199 1545.82 251.005 1542.27 Q252.834 1538.71 252.834 1531.6 Q252.834 1524.47 251.005 1520.93 Q249.199 1517.37 245.565 1517.37 M245.565 1513.66 Q251.375 1513.66 254.431 1518.27 Q257.51 1522.85 257.51 1531.6 Q257.51 1540.33 254.431 1544.94 Q251.375 1549.52 245.565 1549.52 Q239.755 1549.52 236.676 1544.94 Q233.621 1540.33 233.621 1531.6 Q233.621 1522.85 236.676 1518.27 Q239.755 1513.66 245.565 1513.66 Z" fill="#000000" fill-rule="nonzero" fill-opacity="1" /><path clip-path="url(#clip320)" d="M701.545 1544.91 L709.184 1544.91 L709.184 1518.55 L700.874 1520.21 L700.874 1515.95 L709.138 1514.29 L713.813 1514.29 L713.813 1544.91 L721.452 1544.91 L721.452 1548.85 L701.545 1548.85 L701.545 1544.91 Z" fill="#000000" fill-rule="nonzero" fill-opacity="1" /><path clip-path="url(#clip320)" d="M740.897 1517.37 Q737.286 1517.37 735.457 1520.93 Q733.651 1524.47 733.651 1531.6 Q733.651 1538.71 735.457 1542.27 Q737.286 1545.82 740.897 1545.82 Q744.531 1545.82 746.336 1542.27 Q748.165 1538.71 748.165 1531.6 Q748.165 1524.47 746.336 1520.93 Q744.531 1517.37 740.897 1517.37 M740.897 1513.66 Q746.707 1513.66 749.762 1518.27 Q752.841 1522.85 752.841 1531.6 Q752.841 1540.33 749.762 1544.94 Q746.707 1549.52 740.897 1549.52 Q735.086 1549.52 732.008 1544.94 Q728.952 1540.33 728.952 1531.6 Q728.952 1522.85 732.008 1518.27 Q735.086 1513.66 740.897 1513.66 Z" fill="#000000" fill-rule="nonzero" fill-opacity="1" /><path clip-path="url(#clip320)" d="M771.059 1517.37 Q767.447 1517.37 765.619 1520.93 Q763.813 1524.47 763.813 1531.6 Q763.813 1538.71 765.619 1542.27 Q767.447 1545.82 771.059 1545.82 Q774.693 1545.82 776.498 1542.27 Q778.327 1538.71 778.327 1531.6 Q778.327 1524.47 776.498 1520.93 Q774.693 1517.37 771.059 1517.37 M771.059 1513.66 Q776.869 1513.66 779.924 1518.27 Q783.003 1522.85 783.003 1531.6 Q783.003 1540.33 779.924 1544.94 Q776.869 1549.52 771.059 1549.52 Q765.248 1549.52 762.17 1544.94 Q759.114 1540.33 759.114 1531.6 Q759.114 1522.85 762.17 1518.27 Q765.248 1513.66 771.059 1513.66 Z" fill="#000000" fill-rule="nonzero" fill-opacity="1" /><path clip-path="url(#clip320)" d="M801.22 1517.37 Q797.609 1517.37 795.781 1520.93 Q793.975 1524.47 793.975 1531.6 Q793.975 1538.71 795.781 1542.27 Q797.609 1545.82 801.22 1545.82 Q804.855 1545.82 806.66 1542.27 Q808.489 1538.71 808.489 1531.6 Q808.489 1524.47 806.66 1520.93 Q804.855 1517.37 801.22 1517.37 M801.22 1513.66 Q807.031 1513.66 810.086 1518.27 Q813.165 1522.85 813.165 1531.6 Q813.165 1540.33 810.086 1544.94 Q807.031 1549.52 801.22 1549.52 Q795.41 1549.52 792.332 1544.94 Q789.276 1540.33 789.276 1531.6 Q789.276 1522.85 792.332 1518.27 Q795.41 1513.66 801.22 1513.66 Z" fill="#000000" fill-rule="nonzero" fill-opacity="1" /><path clip-path="url(#clip320)" d="M1217.08 1544.91 L1233.4 1544.91 L1233.4 1548.85 L1211.46 1548.85 L1211.46 1544.91 Q1214.12 1542.16 1218.71 1537.53 Q1223.31 1532.88 1224.49 1531.53 Q1226.74 1529.01 1227.62 1527.27 Q1228.52 1525.51 1228.52 1523.82 Q1228.52 1521.07 1226.58 1519.33 Q1224.65 1517.6 1221.55 1517.6 Q1219.35 1517.6 1216.9 1518.36 Q1214.47 1519.13 1211.69 1520.68 L1211.69 1515.95 Q1214.52 1514.82 1216.97 1514.24 Q1219.42 1513.66 1221.46 1513.66 Q1226.83 1513.66 1230.02 1516.35 Q1233.22 1519.03 1233.22 1523.52 Q1233.22 1525.65 1232.41 1527.57 Q1231.62 1529.47 1229.52 1532.07 Q1228.94 1532.74 1225.83 1535.95 Q1222.73 1539.15 1217.08 1544.91 Z" fill="#000000" fill-rule="nonzero" fill-opacity="1" /><path clip-path="url(#clip320)" d="M1253.22 1517.37 Q1249.61 1517.37 1247.78 1520.93 Q1245.97 1524.47 1245.97 1531.6 Q1245.97 1538.71 1247.78 1542.27 Q1249.61 1545.82 1253.22 1545.82 Q1256.85 1545.82 1258.66 1542.27 Q1260.49 1538.71 1260.49 1531.6 Q1260.49 1524.47 1258.66 1520.93 Q1256.85 1517.37 1253.22 1517.37 M1253.22 1513.66 Q1259.03 1513.66 1262.08 1518.27 Q1265.16 1522.85 1265.16 1531.6 Q1265.16 1540.33 1262.08 1544.94 Q1259.03 1549.52 1253.22 1549.52 Q1247.41 1549.52 1244.33 1544.94 Q1241.27 1540.33 1241.27 1531.6 Q1241.27 1522.85 1244.33 1518.27 Q1247.41 1513.66 1253.22 1513.66 Z" fill="#000000" fill-rule="nonzero" fill-opacity="1" /><path clip-path="url(#clip320)" d="M1283.38 1517.37 Q1279.77 1517.37 1277.94 1520.93 Q1276.14 1524.47 1276.14 1531.6 Q1276.14 1538.71 1277.94 1542.27 Q1279.77 1545.82 1283.38 1545.82 Q1287.01 1545.82 1288.82 1542.27 Q1290.65 1538.71 1290.65 1531.6 Q1290.65 1524.47 1288.82 1520.93 Q1287.01 1517.37 1283.38 1517.37 M1283.38 1513.66 Q1289.19 1513.66 1292.25 1518.27 Q1295.33 1522.85 1295.33 1531.6 Q1295.33 1540.33 1292.25 1544.94 Q1289.19 1549.52 1283.38 1549.52 Q1277.57 1549.52 1274.49 1544.94 Q1271.44 1540.33 1271.44 1531.6 Q1271.44 1522.85 1274.49 1518.27 Q1277.57 1513.66 1283.38 1513.66 Z" fill="#000000" fill-rule="nonzero" fill-opacity="1" /><path clip-path="url(#clip320)" d="M1313.54 1517.37 Q1309.93 1517.37 1308.1 1520.93 Q1306.3 1524.47 1306.3 1531.6 Q1306.3 1538.71 1308.1 1542.27 Q1309.93 1545.82 1313.54 1545.82 Q1317.18 1545.82 1318.98 1542.27 Q1320.81 1538.71 1320.81 1531.6 Q1320.81 1524.47 1318.98 1520.93 Q1317.18 1517.37 1313.54 1517.37 M1313.54 1513.66 Q1319.35 1513.66 1322.41 1518.27 Q1325.49 1522.85 1325.49 1531.6 Q1325.49 1540.33 1322.41 1544.94 Q1319.35 1549.52 1313.54 1549.52 Q1307.73 1549.52 1304.65 1544.94 Q1301.6 1540.33 1301.6 1531.6 Q1301.6 1522.85 1304.65 1518.27 Q1307.73 1513.66 1313.54 1513.66 Z" fill="#000000" fill-rule="nonzero" fill-opacity="1" /><path clip-path="url(#clip320)" d="M1738.61 1530.21 Q1741.96 1530.93 1743.84 1533.2 Q1745.74 1535.47 1745.74 1538.8 Q1745.74 1543.92 1742.22 1546.72 Q1738.7 1549.52 1732.22 1549.52 Q1730.04 1549.52 1727.73 1549.08 Q1725.44 1548.66 1722.98 1547.81 L1722.98 1543.29 Q1724.93 1544.43 1727.24 1545.01 Q1729.56 1545.58 1732.08 1545.58 Q1736.48 1545.58 1738.77 1543.85 Q1741.08 1542.11 1741.08 1538.8 Q1741.08 1535.75 1738.93 1534.03 Q1736.8 1532.3 1732.98 1532.3 L1728.96 1532.3 L1728.96 1528.45 L1733.17 1528.45 Q1736.62 1528.45 1738.45 1527.09 Q1740.27 1525.7 1740.27 1523.11 Q1740.27 1520.45 1738.38 1519.03 Q1736.5 1517.6 1732.98 1517.6 Q1731.06 1517.6 1728.86 1518.01 Q1726.66 1518.43 1724.02 1519.31 L1724.02 1515.14 Q1726.69 1514.4 1729 1514.03 Q1731.34 1513.66 1733.4 1513.66 Q1738.72 1513.66 1741.83 1516.09 Q1744.93 1518.5 1744.93 1522.62 Q1744.93 1525.49 1743.28 1527.48 Q1741.64 1529.45 1738.61 1530.21 Z" fill="#000000" fill-rule="nonzero" fill-opacity="1" /><path clip-path="url(#clip320)" d="M1764.6 1517.37 Q1760.99 1517.37 1759.16 1520.93 Q1757.36 1524.47 1757.36 1531.6 Q1757.36 1538.71 1759.16 1542.27 Q1760.99 1545.82 1764.6 1545.82 Q1768.24 1545.82 1770.04 1542.27 Q1771.87 1538.71 1771.87 1531.6 Q1771.87 1524.47 1770.04 1520.93 Q1768.24 1517.37 1764.6 1517.37 M1764.6 1513.66 Q1770.41 1513.66 1773.47 1518.27 Q1776.55 1522.85 1776.55 1531.6 Q1776.55 1540.33 1773.47 1544.94 Q1770.41 1549.52 1764.6 1549.52 Q1758.79 1549.52 1755.71 1544.94 Q1752.66 1540.33 1752.66 1531.6 Q1752.66 1522.85 1755.71 1518.27 Q1758.79 1513.66 1764.6 1513.66 Z" fill="#000000" fill-rule="nonzero" fill-opacity="1" /><path clip-path="url(#clip320)" d="M1794.77 1517.37 Q1791.15 1517.37 1789.33 1520.93 Q1787.52 1524.47 1787.52 1531.6 Q1787.52 1538.71 1789.33 1542.27 Q1791.15 1545.82 1794.77 1545.82 Q1798.4 1545.82 1800.21 1542.27 Q1802.03 1538.71 1802.03 1531.6 Q1802.03 1524.47 1800.21 1520.93 Q1798.4 1517.37 1794.77 1517.37 M1794.77 1513.66 Q1800.58 1513.66 1803.63 1518.27 Q1806.71 1522.85 1806.71 1531.6 Q1806.71 1540.33 1803.63 1544.94 Q1800.58 1549.52 1794.77 1549.52 Q1788.96 1549.52 1785.88 1544.94 Q1782.82 1540.33 1782.82 1531.6 Q1782.82 1522.85 1785.88 1518.27 Q1788.96 1513.66 1794.77 1513.66 Z" fill="#000000" fill-rule="nonzero" fill-opacity="1" /><path clip-path="url(#clip320)" d="M1824.93 1517.37 Q1821.32 1517.37 1819.49 1520.93 Q1817.68 1524.47 1817.68 1531.6 Q1817.68 1538.71 1819.49 1542.27 Q1821.32 1545.82 1824.93 1545.82 Q1828.56 1545.82 1830.37 1542.27 Q1832.2 1538.71 1832.2 1531.6 Q1832.2 1524.47 1830.37 1520.93 Q1828.56 1517.37 1824.93 1517.37 M1824.93 1513.66 Q1830.74 1513.66 1833.79 1518.27 Q1836.87 1522.85 1836.87 1531.6 Q1836.87 1540.33 1833.79 1544.94 Q1830.74 1549.52 1824.93 1549.52 Q1819.12 1549.52 1816.04 1544.94 Q1812.98 1540.33 1812.98 1531.6 Q1812.98 1522.85 1816.04 1518.27 Q1819.12 1513.66 1824.93 1513.66 Z" fill="#000000" fill-rule="nonzero" fill-opacity="1" /><path clip-path="url(#clip320)" d="M2249.39 1518.36 L2237.59 1536.81 L2249.39 1536.81 L2249.39 1518.36 M2248.16 1514.29 L2254.04 1514.29 L2254.04 1536.81 L2258.97 1536.81 L2258.97 1540.7 L2254.04 1540.7 L2254.04 1548.85 L2249.39 1548.85 L2249.39 1540.7 L2233.79 1540.7 L2233.79 1536.19 L2248.16 1514.29 Z" fill="#000000" fill-rule="nonzero" fill-opacity="1" /><path clip-path="url(#clip320)" d="M2276.71 1517.37 Q2273.09 1517.37 2271.27 1520.93 Q2269.46 1524.47 2269.46 1531.6 Q2269.46 1538.71 2271.27 1542.27 Q2273.09 1545.82 2276.71 1545.82 Q2280.34 1545.82 2282.15 1542.27 Q2283.97 1538.71 2283.97 1531.6 Q2283.97 1524.47 2282.15 1520.93 Q2280.34 1517.37 2276.71 1517.37 M2276.71 1513.66 Q2282.52 1513.66 2285.57 1518.27 Q2288.65 1522.85 2288.65 1531.6 Q2288.65 1540.33 2285.57 1544.94 Q2282.52 1549.52 2276.71 1549.52 Q2270.9 1549.52 2267.82 1544.94 Q2264.76 1540.33 2264.76 1531.6 Q2264.76 1522.85 2267.82 1518.27 Q2270.9 1513.66 2276.71 1513.66 Z" fill="#000000" fill-rule="nonzero" fill-opacity="1" /><path clip-path="url(#clip320)" d="M2306.87 1517.37 Q2303.26 1517.37 2301.43 1520.93 Q2299.62 1524.47 2299.62 1531.6 Q2299.62 1538.71 2301.43 1542.27 Q2303.26 1545.82 2306.87 1545.82 Q2310.5 1545.82 2312.31 1542.27 Q2314.14 1538.71 2314.14 1531.6 Q2314.14 1524.47 2312.31 1520.93 Q2310.5 1517.37 2306.87 1517.37 M2306.87 1513.66 Q2312.68 1513.66 2315.73 1518.27 Q2318.81 1522.85 2318.81 1531.6 Q2318.81 1540.33 2315.73 1544.94 Q2312.68 1549.52 2306.87 1549.52 Q2301.06 1549.52 2297.98 1544.94 Q2294.92 1540.33 2294.92 1531.6 Q2294.92 1522.85 2297.98 1518.27 Q2301.06 1513.66 2306.87 1513.66 Z" fill="#000000" fill-rule="nonzero" fill-opacity="1" /><path clip-path="url(#clip320)" d="M2337.03 1517.37 Q2333.42 1517.37 2331.59 1520.93 Q2329.78 1524.47 2329.78 1531.6 Q2329.78 1538.71 2331.59 1542.27 Q2333.42 1545.82 2337.03 1545.82 Q2340.66 1545.82 2342.47 1542.27 Q2344.3 1538.71 2344.3 1531.6 Q2344.3 1524.47 2342.47 1520.93 Q2340.66 1517.37 2337.03 1517.37 M2337.03 1513.66 Q2342.84 1513.66 2345.9 1518.27 Q2348.97 1522.85 2348.97 1531.6 Q2348.97 1540.33 2345.9 1544.94 Q2342.84 1549.52 2337.03 1549.52 Q2331.22 1549.52 2328.14 1544.94 Q2325.08 1540.33 2325.08 1531.6 Q2325.08 1522.85 2328.14 1518.27 Q2331.22 1513.66 2337.03 1513.66 Z" fill="#000000" fill-rule="nonzero" fill-opacity="1" /><polyline clip-path="url(#clip322)" style="stroke:#000000; stroke-linecap:round; stroke-linejoin:round; stroke-width:2; stroke-opacity:0.1; fill:none" points="184.191,1412.4 2352.76,1412.4 "/>
<polyline clip-path="url(#clip322)" style="stroke:#000000; stroke-linecap:round; stroke-linejoin:round; stroke-width:2; stroke-opacity:0.1; fill:none" points="184.191,1123.44 2352.76,1123.44 "/>
<polyline clip-path="url(#clip322)" style="stroke:#000000; stroke-linecap:round; stroke-linejoin:round; stroke-width:2; stroke-opacity:0.1; fill:none" points="184.191,834.491 2352.76,834.491 "/>
<polyline clip-path="url(#clip322)" style="stroke:#000000; stroke-linecap:round; stroke-linejoin:round; stroke-width:2; stroke-opacity:0.1; fill:none" points="184.191,545.539 2352.76,545.539 "/>
<polyline clip-path="url(#clip322)" style="stroke:#000000; stroke-linecap:round; stroke-linejoin:round; stroke-width:2; stroke-opacity:0.1; fill:none" points="184.191,256.586 2352.76,256.586 "/>
<polyline clip-path="url(#clip320)" style="stroke:#000000; stroke-linecap:round; stroke-linejoin:round; stroke-width:4; stroke-opacity:1; fill:none" points="184.191,1486.45 184.191,47.2441 "/>
<polyline clip-path="url(#clip320)" style="stroke:#000000; stroke-linecap:round; stroke-linejoin:round; stroke-width:4; stroke-opacity:1; fill:none" points="184.191,1412.4 203.088,1412.4 "/>
<polyline clip-path="url(#clip320)" style="stroke:#000000; stroke-linecap:round; stroke-linejoin:round; stroke-width:4; stroke-opacity:1; fill:none" points="184.191,1123.44 203.088,1123.44 "/>
<polyline clip-path="url(#clip320)" style="stroke:#000000; stroke-linecap:round; stroke-linejoin:round; stroke-width:4; stroke-opacity:1; fill:none" points="184.191,834.491 203.088,834.491 "/>
<polyline clip-path="url(#clip320)" style="stroke:#000000; stroke-linecap:round; stroke-linejoin:round; stroke-width:4; stroke-opacity:1; fill:none" points="184.191,545.539 203.088,545.539 "/>
<polyline clip-path="url(#clip320)" style="stroke:#000000; stroke-linecap:round; stroke-linejoin:round; stroke-width:4; stroke-opacity:1; fill:none" points="184.191,256.586 203.088,256.586 "/>
<path clip-path="url(#clip320)" d="M51.6634 1425.74 L59.3023 1425.74 L59.3023 1399.38 L50.9921 1401.04 L50.9921 1396.78 L59.256 1395.12 L63.9319 1395.12 L63.9319 1425.74 L71.5707 1425.74 L71.5707 1429.68 L51.6634 1429.68 L51.6634 1425.74 Z" fill="#000000" fill-rule="nonzero" fill-opacity="1" /><path clip-path="url(#clip320)" d="M85.0429 1425.74 L101.362 1425.74 L101.362 1429.68 L79.4179 1429.68 L79.4179 1425.74 Q82.0799 1422.99 86.6632 1418.36 Q91.2697 1413.7 92.4502 1412.36 Q94.6956 1409.84 95.5752 1408.1 Q96.478 1406.34 96.478 1404.65 Q96.478 1401.9 94.5336 1400.16 Q92.6123 1398.43 89.5104 1398.43 Q87.3114 1398.43 84.8577 1399.19 Q82.4271 1399.95 79.6494 1401.51 L79.6494 1396.78 Q82.4734 1395.65 84.9271 1395.07 Q87.3808 1394.49 89.4178 1394.49 Q94.7882 1394.49 97.9826 1397.18 Q101.177 1399.86 101.177 1404.35 Q101.177 1406.48 100.367 1408.4 Q99.5798 1410.3 97.4734 1412.89 Q96.8947 1413.57 93.7928 1416.78 Q90.691 1419.98 85.0429 1425.74 Z" fill="#000000" fill-rule="nonzero" fill-opacity="1" /><path clip-path="url(#clip320)" d="M111.177 1423.8 L116.061 1423.8 L116.061 1429.68 L111.177 1429.68 L111.177 1423.8 Z" fill="#000000" fill-rule="nonzero" fill-opacity="1" /><path clip-path="url(#clip320)" d="M136.246 1398.2 Q132.635 1398.2 130.807 1401.76 Q129.001 1405.3 129.001 1412.43 Q129.001 1419.54 130.807 1423.1 Q132.635 1426.64 136.246 1426.64 Q139.881 1426.64 141.686 1423.1 Q143.515 1419.54 143.515 1412.43 Q143.515 1405.3 141.686 1401.76 Q139.881 1398.2 136.246 1398.2 M136.246 1394.49 Q142.056 1394.49 145.112 1399.1 Q148.191 1403.68 148.191 1412.43 Q148.191 1421.16 145.112 1425.76 Q142.056 1430.35 136.246 1430.35 Q130.436 1430.35 127.357 1425.76 Q124.302 1421.16 124.302 1412.43 Q124.302 1403.68 127.357 1399.1 Q130.436 1394.49 136.246 1394.49 Z" fill="#000000" fill-rule="nonzero" fill-opacity="1" /><path clip-path="url(#clip320)" d="M52.6588 1136.79 L60.2976 1136.79 L60.2976 1110.42 L51.9875 1112.09 L51.9875 1107.83 L60.2513 1106.16 L64.9272 1106.16 L64.9272 1136.79 L72.5661 1136.79 L72.5661 1140.72 L52.6588 1140.72 L52.6588 1136.79 Z" fill="#000000" fill-rule="nonzero" fill-opacity="1" /><path clip-path="url(#clip320)" d="M86.0382 1136.79 L102.358 1136.79 L102.358 1140.72 L80.4133 1140.72 L80.4133 1136.79 Q83.0753 1134.03 87.6586 1129.4 Q92.2651 1124.75 93.4456 1123.41 Q95.691 1120.89 96.5706 1119.15 Q97.4734 1117.39 97.4734 1115.7 Q97.4734 1112.95 95.5289 1111.21 Q93.6076 1109.47 90.5058 1109.47 Q88.3067 1109.47 85.8531 1110.24 Q83.4225 1111 80.6447 1112.55 L80.6447 1107.83 Q83.4688 1106.7 85.9225 1106.12 Q88.3762 1105.54 90.4132 1105.54 Q95.7836 1105.54 98.978 1108.22 Q102.172 1110.91 102.172 1115.4 Q102.172 1117.53 101.362 1119.45 Q100.575 1121.35 98.4687 1123.94 Q97.89 1124.61 94.7882 1127.83 Q91.6864 1131.03 86.0382 1136.79 Z" fill="#000000" fill-rule="nonzero" fill-opacity="1" /><path clip-path="url(#clip320)" d="M112.172 1134.84 L117.057 1134.84 L117.057 1140.72 L112.172 1140.72 L112.172 1134.84 Z" fill="#000000" fill-rule="nonzero" fill-opacity="1" /><path clip-path="url(#clip320)" d="M127.288 1106.16 L145.644 1106.16 L145.644 1110.1 L131.57 1110.1 L131.57 1118.57 Q132.589 1118.22 133.607 1118.06 Q134.626 1117.88 135.644 1117.88 Q141.431 1117.88 144.811 1121.05 Q148.191 1124.22 148.191 1129.64 Q148.191 1135.21 144.718 1138.32 Q141.246 1141.4 134.927 1141.4 Q132.751 1141.4 130.482 1141.02 Q128.237 1140.65 125.83 1139.91 L125.83 1135.21 Q127.913 1136.35 130.135 1136.9 Q132.357 1137.46 134.834 1137.46 Q138.839 1137.46 141.177 1135.35 Q143.515 1133.25 143.515 1129.64 Q143.515 1126.03 141.177 1123.92 Q138.839 1121.81 134.834 1121.81 Q132.959 1121.81 131.084 1122.23 Q129.232 1122.65 127.288 1123.53 L127.288 1106.16 Z" fill="#000000" fill-rule="nonzero" fill-opacity="1" /><path clip-path="url(#clip320)" d="M51.6634 847.836 L59.3023 847.836 L59.3023 821.471 L50.9921 823.137 L50.9921 818.878 L59.256 817.211 L63.9319 817.211 L63.9319 847.836 L71.5707 847.836 L71.5707 851.771 L51.6634 851.771 L51.6634 847.836 Z" fill="#000000" fill-rule="nonzero" fill-opacity="1" /><path clip-path="url(#clip320)" d="M95.1817 833.137 Q98.5382 833.855 100.413 836.123 Q102.311 838.392 102.311 841.725 Q102.311 846.841 98.7928 849.642 Q95.2743 852.443 88.7928 852.443 Q86.6169 852.443 84.3021 852.003 Q82.0105 851.586 79.5568 850.73 L79.5568 846.216 Q81.5012 847.35 83.816 847.929 Q86.1308 848.507 88.654 848.507 Q93.0521 848.507 95.3437 846.771 Q97.6585 845.035 97.6585 841.725 Q97.6585 838.67 95.5058 836.957 Q93.3762 835.22 89.5567 835.22 L85.529 835.22 L85.529 831.378 L89.7419 831.378 Q93.191 831.378 95.0197 830.012 Q96.8484 828.623 96.8484 826.031 Q96.8484 823.369 94.9502 821.957 Q93.0752 820.521 89.5567 820.521 Q87.6354 820.521 85.4364 820.938 Q83.2373 821.355 80.5984 822.234 L80.5984 818.068 Q83.2605 817.327 85.5753 816.957 Q87.9132 816.586 89.9734 816.586 Q95.2974 816.586 98.3993 819.017 Q101.501 821.424 101.501 825.545 Q101.501 828.415 99.8576 830.406 Q98.2141 832.373 95.1817 833.137 Z" fill="#000000" fill-rule="nonzero" fill-opacity="1" /><path clip-path="url(#clip320)" d="M111.177 845.892 L116.061 845.892 L116.061 851.771 L111.177 851.771 L111.177 845.892 Z" fill="#000000" fill-rule="nonzero" fill-opacity="1" /><path clip-path="url(#clip320)" d="M136.246 820.29 Q132.635 820.29 130.807 823.855 Q129.001 827.396 129.001 834.526 Q129.001 841.632 130.807 845.197 Q132.635 848.739 136.246 848.739 Q139.881 848.739 141.686 845.197 Q143.515 841.632 143.515 834.526 Q143.515 827.396 141.686 823.855 Q139.881 820.29 136.246 820.29 M136.246 816.586 Q142.056 816.586 145.112 821.193 Q148.191 825.776 148.191 834.526 Q148.191 843.253 145.112 847.859 Q142.056 852.443 136.246 852.443 Q130.436 852.443 127.357 847.859 Q124.302 843.253 124.302 834.526 Q124.302 825.776 127.357 821.193 Q130.436 816.586 136.246 816.586 Z" fill="#000000" fill-rule="nonzero" fill-opacity="1" /><path clip-path="url(#clip320)" d="M52.6588 558.883 L60.2976 558.883 L60.2976 532.518 L51.9875 534.184 L51.9875 529.925 L60.2513 528.259 L64.9272 528.259 L64.9272 558.883 L72.5661 558.883 L72.5661 562.819 L52.6588 562.819 L52.6588 558.883 Z" fill="#000000" fill-rule="nonzero" fill-opacity="1" /><path clip-path="url(#clip320)" d="M96.1771 544.184 Q99.5335 544.902 101.409 547.171 Q103.307 549.439 103.307 552.772 Q103.307 557.888 99.7882 560.689 Q96.2697 563.49 89.7882 563.49 Q87.6123 563.49 85.2975 563.05 Q83.0058 562.633 80.5522 561.777 L80.5522 557.263 Q82.4966 558.397 84.8114 558.976 Q87.1262 559.555 89.6493 559.555 Q94.0475 559.555 96.3391 557.819 Q98.6539 556.083 98.6539 552.772 Q98.6539 549.717 96.5011 548.004 Q94.3715 546.268 90.5521 546.268 L86.5243 546.268 L86.5243 542.425 L90.7373 542.425 Q94.1863 542.425 96.015 541.059 Q97.8437 539.671 97.8437 537.078 Q97.8437 534.416 95.9456 533.004 Q94.0706 531.569 90.5521 531.569 Q88.6308 531.569 86.4318 531.985 Q84.2327 532.402 81.5938 533.282 L81.5938 529.115 Q84.2558 528.374 86.5706 528.004 Q88.9086 527.634 90.9688 527.634 Q96.2928 527.634 99.3946 530.064 Q102.496 532.472 102.496 536.592 Q102.496 539.462 100.853 541.453 Q99.2095 543.421 96.1771 544.184 Z" fill="#000000" fill-rule="nonzero" fill-opacity="1" /><path clip-path="url(#clip320)" d="M112.172 556.939 L117.057 556.939 L117.057 562.819 L112.172 562.819 L112.172 556.939 Z" fill="#000000" fill-rule="nonzero" fill-opacity="1" /><path clip-path="url(#clip320)" d="M127.288 528.259 L145.644 528.259 L145.644 532.194 L131.57 532.194 L131.57 540.666 Q132.589 540.319 133.607 540.157 Q134.626 539.972 135.644 539.972 Q141.431 539.972 144.811 543.143 Q148.191 546.314 148.191 551.731 Q148.191 557.309 144.718 560.411 Q141.246 563.49 134.927 563.49 Q132.751 563.49 130.482 563.12 Q128.237 562.749 125.83 562.008 L125.83 557.309 Q127.913 558.444 130.135 558.999 Q132.357 559.555 134.834 559.555 Q138.839 559.555 141.177 557.448 Q143.515 555.342 143.515 551.731 Q143.515 548.12 141.177 546.013 Q138.839 543.907 134.834 543.907 Q132.959 543.907 131.084 544.323 Q129.232 544.74 127.288 545.62 L127.288 528.259 Z" fill="#000000" fill-rule="nonzero" fill-opacity="1" /><path clip-path="url(#clip320)" d="M51.6634 269.931 L59.3023 269.931 L59.3023 243.565 L50.9921 245.232 L50.9921 240.973 L59.256 239.306 L63.9319 239.306 L63.9319 269.931 L71.5707 269.931 L71.5707 273.866 L51.6634 273.866 L51.6634 269.931 Z" fill="#000000" fill-rule="nonzero" fill-opacity="1" /><path clip-path="url(#clip320)" d="M93.8623 243.38 L82.0568 261.829 L93.8623 261.829 L93.8623 243.38 M92.6354 239.306 L98.515 239.306 L98.515 261.829 L103.446 261.829 L103.446 265.718 L98.515 265.718 L98.515 273.866 L93.8623 273.866 L93.8623 265.718 L78.2605 265.718 L78.2605 261.204 L92.6354 239.306 Z" fill="#000000" fill-rule="nonzero" fill-opacity="1" /><path clip-path="url(#clip320)" d="M111.177 267.986 L116.061 267.986 L116.061 273.866 L111.177 273.866 L111.177 267.986 Z" fill="#000000" fill-rule="nonzero" fill-opacity="1" /><path clip-path="url(#clip320)" d="M136.246 242.385 Q132.635 242.385 130.807 245.949 Q129.001 249.491 129.001 256.621 Q129.001 263.727 130.807 267.292 Q132.635 270.834 136.246 270.834 Q139.881 270.834 141.686 267.292 Q143.515 263.727 143.515 256.621 Q143.515 249.491 141.686 245.949 Q139.881 242.385 136.246 242.385 M136.246 238.681 Q142.056 238.681 145.112 243.287 Q148.191 247.871 148.191 256.621 Q148.191 265.347 145.112 269.954 Q142.056 274.537 136.246 274.537 Q130.436 274.537 127.357 269.954 Q124.302 265.347 124.302 256.621 Q124.302 247.871 127.357 243.287 Q130.436 238.681 136.246 238.681 Z" fill="#000000" fill-rule="nonzero" fill-opacity="1" /><polyline clip-path="url(#clip322)" style="stroke:#009af9; stroke-linecap:round; stroke-linejoin:round; stroke-width:4; stroke-opacity:1; fill:none" points="245.565,609.027 246.077,620.044 246.588,630.919 247.1,641.564 247.611,652.071 248.122,665.078 248.634,677.875 249.145,689.921 249.657,701.788 250.168,710.208 250.68,718.532 251.191,728.341 251.703,738.017 252.214,749.414 252.726,760.644 253.237,769.116 253.748,777.487 254.26,787.787 254.771,797.933 255.283,805.916 255.794,813.803 256.306,824.372 256.817,834.78 257.329,842.536 257.84,850.197 258.352,858.268 258.863,866.23 259.374,874.679 259.886,883.013 260.397,890.69 260.909,898.263 261.42,906.859 261.932,915.33 262.443,924.287 262.955,933.109 263.466,940.004 263.978,946.812 264.489,953.878 265,960.858 265.512,968.56 266.023,976.146 266.535,984.192 267.046,992.106 267.558,998.402 268.069,1004.62 268.581,1011.91 269.092,1019.08 269.604,1027.22 270.115,1035.21 270.626,1041.22 271.138,1047.15 271.649,1053.67 272.161,1060.09 272.672,1066.8 273.184,1073.4 273.695,1079.79 274.207,1086.08 274.718,1092.41 275.23,1098.64 275.741,1105.16 276.252,1111.58 276.764,1117.33 277.275,1122.99 277.787,1127.79 278.298,1132.52 278.81,1137.8 279.321,1142.99 279.833,1149.01 280.344,1154.93 280.855,1159.58 281.367,1164.16 281.878,1169.12 282.39,1174 282.901,1177.99 283.413,1181.94 283.924,1187.72 284.436,1193.4 284.947,1197.86 285.459,1202.26 285.97,1207.06 286.481,1211.77 286.993,1216.04 287.504,1220.24 288.016,1224.14 288.527,1227.98 289.039,1231.66 289.55,1235.27 290.062,1238.7 290.573,1242.09 291.085,1245.82 291.596,1249.49 292.107,1253.08 292.619,1256.61 293.13,1260.3 293.642,1263.93 294.153,1267.51 294.665,1271.03 295.176,1274.21 295.688,1277.35 296.199,1281.35 296.711,1285.29 297.222,1288.72 297.733,1292.1 298.245,1295.32 298.756,1298.49 299.268,1301.72 299.779,1304.89 300.291,1307.96 300.802,1310.97 301.314,1314.82 301.825,1318.59 302.337,1321.18 302.848,1323.73 303.359,1326.86 303.871,1329.92 304.382,1332.56 304.894,1335.15 305.405,1337.43 305.917,1339.69 306.428,1342.08 306.94,1344.43 307.451,1347.55 307.963,1350.6 308.474,1352.76 308.985,1354.89 309.497,1356.82 310.008,1358.71 310.52,1361.04 311.031,1363.33 311.543,1365.9 312.054,1368.4 312.566,1370.09 313.077,1371.73 313.589,1373.22 314.1,1374.69 314.611,1376.88 315.123,1379.03 315.634,1381.02 316.146,1382.96 316.657,1384.76 317.169,1386.52 317.68,1388.28 318.192,1389.99 318.703,1391.76 319.215,1393.48 319.726,1394.92 320.237,1396.33 320.749,1397.92 321.26,1399.47 321.772,1400.81 322.283,1402.11 322.795,1403.57 323.306,1404.99 323.818,1406.5 324.329,1407.96 324.841,1409.06 325.352,1410.12 325.863,1411.5 326.375,1412.84 326.886,1413.86 327.398,1414.85 327.909,1416.32 328.421,1417.76 328.932,1419.07 329.444,1420.35 329.955,1421.74 330.467,1423.11 330.978,1424.39 331.489,1425.64 332.001,1426.41 332.512,1427.16 333.024,1427.87 333.535,1428.57 334.047,1429.76 334.558,1430.93 335.07,1431.74 335.581,1432.53 336.093,1433.19 336.604,1433.82 337.115,1434.16 337.627,1434.47 338.138,1435.14 338.65,1435.78 339.161,1436.25 339.673,1436.68 340.184,1437.15 340.696,1437.59 341.207,1437.79 341.719,1437.97 342.23,1438.33 342.741,1438.68 343.253,1439.08 343.764,1439.47 344.276,1440.46 344.787,1441.43 345.299,1441.6 345.81,1441.75 346.322,1442.27 346.833,1442.79 347.345,1443.02 347.856,1443.22 348.367,1443.33 348.879,1443.43 349.39,1444 349.902,1444.55 350.413,1444.92 350.925,1445.27 351.436,1445.5 351.948,1445.72 352.459,1445.49 352.971,1445.24 353.482,1445.35 353.993,1445.46 354.505,1445.18 355.016,1444.89 355.528,1444.9 356.039,1444.9 356.551,1444.61 357.062,1444.3 357.574,1443.92 358.085,1443.52 358.597,1443.43 359.108,1443.32 359.619,1442.64 360.131,1441.95 360.642,1441.72 361.154,1441.49 361.665,1441.46 362.177,1441.42 362.688,1441.24 363.2,1441.06 363.711,1440.67 364.223,1440.27 364.734,1439.78 365.245,1439.29 365.757,1438.78 366.268,1438.25 366.78,1437.74 367.291,1437.21 367.803,1436.56 368.314,1435.89 368.826,1435.16 369.337,1434.41 369.849,1433.78 370.36,1433.15 370.871,1432.47 371.383,1431.79 371.894,1431.14 372.406,1430.48 372.917,1429.43 373.429,1428.37 373.94,1428.06 374.452,1427.75 374.963,1427.16 375.474,1426.57 375.986,1425.97 376.497,1425.37 377.009,1425.11 377.52,1424.83 378.032,1424.17 378.543,1423.5 379.055,1422.93 379.566,1422.35 380.078,1421.92 380.589,1421.48 381.1,1420.4 381.612,1419.31 382.123,1418.53 382.635,1417.75 383.146,1417.1 383.658,1416.44 384.169,1415.74 384.681,1415.03 385.192,1413.88 385.704,1412.73 386.215,1411.78 386.726,1410.82 387.238,1410.17 387.749,1409.51 388.261,1409 388.772,1408.49 389.284,1407.43 389.795,1406.36 390.307,1405.11 390.818,1403.86 391.33,1403.2 391.841,1402.55 392.352,1401.77 392.864,1400.99 393.375,1400.35 393.887,1399.71 394.398,1398.63 394.91,1397.54 395.421,1396.72 395.933,1395.9 396.444,1394.59 396.956,1393.27 397.467,1392.92 397.978,1392.57 398.49,1391.27 399.001,1389.96 399.513,1388.85 400.024,1387.74 400.536,1386.68 401.047,1385.62 401.559,1384.09 402.07,1382.55 402.582,1381.32 403.093,1380.08 403.604,1379.15 404.116,1378.23 404.627,1377.28 405.139,1376.33 405.65,1374.92 406.162,1373.51 406.673,1372.43 407.185,1371.34 407.696,1370.27 408.208,1369.19 408.719,1367.74 409.23,1366.28 409.742,1365.27 410.253,1364.27 410.765,1363.41 411.276,1362.55 411.788,1361.24 412.299,1359.92 412.811,1358.77 413.322,1357.61 413.834,1356.3 414.345,1354.99 414.856,1354.23 415.368,1353.47 415.879,1351.92 416.391,1350.36 416.902,1349.14 417.414,1347.92 417.925,1347.2 418.437,1346.48 418.948,1346.04 419.46,1345.59 419.971,1344.6 420.482,1343.61 420.994,1342.15 421.505,1340.69 422.017,1339.67 422.528,1338.65 423.04,1337.74 423.551,1336.82 424.063,1335.26 424.574,1333.7 425.086,1331.3 425.597,1328.91 426.108,1327.1 426.62,1325.29 427.131,1323.53 427.643,1321.77 428.154,1320.89 428.666,1320.02 429.177,1318.3 429.689,1316.58 430.2,1315.29 430.712,1313.99 431.223,1311.86 431.734,1309.73 432.246,1308.49 432.757,1307.25 433.269,1305.17 433.78,1303.09 434.292,1301.27 434.803,1299.44 435.315,1298.13 435.826,1296.82 436.338,1294.87 436.849,1292.92 437.36,1290.93 437.872,1288.93 438.383,1287.35 438.895,1285.77 439.406,1284.13 439.918,1282.48 440.429,1281.24 440.941,1280 441.452,1278.44 441.964,1276.88 442.475,1275.99 442.986,1275.09 443.498,1273.25 444.009,1271.41 444.521,1270.39 445.032,1269.37 445.544,1267.59 446.055,1265.82 446.567,1264.97 447.078,1264.13 447.59,1262.53 448.101,1260.94 448.612,1259.03 449.124,1257.13 449.635,1255.9 450.147,1254.67 450.658,1253.33 451.17,1252 451.681,1251.35 452.193,1250.7 452.704,1249.27 453.216,1247.84 453.727,1246.5 454.238,1245.17 454.75,1243.91 455.261,1242.66 455.773,1240.89 456.284,1239.13 456.796,1237.75 457.307,1236.37 457.819,1235.14 458.33,1233.91 458.842,1232.37 459.353,1230.83 459.864,1228.54 460.376,1226.25 460.887,1224.74 461.399,1223.23 461.91,1221.75 462.422,1220.28 462.933,1219.38 463.445,1218.48 463.956,1217.02 464.468,1215.56 464.979,1214.11 465.49,1212.67 466.002,1210.78 466.513,1208.89 467.025,1207.07 467.536,1205.26 468.048,1203.39 468.559,1201.52 469.071,1200.16 469.582,1198.8 470.094,1196.49 470.605,1194.19 471.116,1192.84 471.628,1191.5 472.139,1190.19 472.651,1188.89 473.162,1187.44 473.674,1186 474.185,1184.6 474.697,1183.21 475.208,1181.81 475.719,1180.42 476.231,1178.73 476.742,1177.06 477.254,1175.36 477.765,1173.67 478.277,1171.89 478.788,1170.12 479.3,1168.27 479.811,1166.43 480.323,1164.98 480.834,1163.53 481.345,1161.2 481.857,1158.87 482.368,1157.42 482.88,1155.98 483.391,1154.26 483.903,1152.54 484.414,1150.71 484.926,1148.89 485.437,1147.37 485.949,1145.86 486.46,1144.52 486.971,1143.2 487.483,1141.95 487.994,1140.71 488.506,1139.17 489.017,1137.64 489.529,1136.31 490.04,1134.98 490.552,1132.46 491.063,1129.94 491.575,1127.77 492.086,1125.59 492.597,1124.29 493.109,1122.98 493.62,1122.22 494.132,1121.47 494.643,1120.33 495.155,1119.2 495.666,1118.56 496.178,1117.92 496.689,1116.22 497.201,1114.52 497.712,1113.11 498.223,1111.7 498.735,1109.94 499.246,1108.19 499.758,1106.48 500.269,1104.79 500.781,1103.06 501.292,1101.33 501.804,1099.45 502.315,1097.57 502.827,1096.25 503.338,1094.92 503.849,1092.84 504.361,1090.76 504.872,1089.06 505.384,1087.37 505.895,1086.08 506.407,1084.8 506.918,1084.09 507.43,1083.39 507.941,1082.02 508.453,1080.67 508.964,1079.2 509.475,1077.73 509.987,1075.52 510.498,1073.32 511.01,1072.31 511.521,1071.31 512.033,1069.29 512.544,1067.26 513.056,1065.99 513.567,1064.73 514.079,1063 514.59,1061.27 515.101,1059.9 515.613,1058.53 516.124,1057.38 516.636,1056.24 517.147,1054.4 517.659,1052.56 518.17,1050.58 518.682,1048.61 519.193,1047.14 519.705,1045.67 520.216,1044.47 520.727,1043.28 521.239,1041.48 521.75,1039.7 522.262,1038.45 522.773,1037.21 523.285,1036.05 523.796,1034.9 524.308,1033.64 524.819,1032.39 525.331,1030.55 525.842,1028.71 526.353,1026.51 526.865,1024.32 527.376,1022.98 527.888,1021.64 528.399,1020.56 528.911,1019.47 529.422,1018.41 529.934,1017.35 530.445,1015.34 530.957,1013.34 531.468,1011.78 531.979,1010.22 532.491,1008.66 533.002,1007.11 533.514,1005.8 534.025,1004.5 534.537,1003.12 535.048,1001.75 535.56,1000.26 536.071,998.787 536.583,997.698 537.094,996.612 537.605,995.508 538.117,994.406 538.628,992.304 539.14,990.209 539.651,989.272 540.163,988.338 540.674,986.819 541.186,985.302 541.697,984.473 542.209,983.647 542.72,981.306 543.231,978.972 543.743,977.177 544.254,975.387 544.766,973.208 545.277,971.036 545.789,969.151 546.3,967.272 546.812,966.091 547.323,964.915 547.835,963.324 548.346,961.738 548.857,960.157 549.369,958.58 549.88,957.468 550.392,956.359 550.903,955.101 551.415,953.846 551.926,952.289 552.438,950.737 552.949,948.679 553.461,946.625 553.972,945.85 554.483,945.075 554.995,943.509 555.506,941.947 556.018,941.081 556.529,940.219 557.041,939.335 557.552,938.453 558.064,935.877 558.575,933.309 559.087,931.642 559.598,929.982 560.109,929.168 560.621,928.358 561.132,926.945 561.644,925.538 562.155,924.308 562.667,923.082 563.178,921.933 563.69,920.789 564.201,919.51 564.713,918.235 565.224,917.011 565.735,915.79 566.247,914.693 566.758,913.599 567.27,912.403 567.781,911.211 568.293,908.931 568.804,906.657 569.316,905.308 569.827,903.964 570.338,901.824 570.85,899.691 571.361,898.647 571.873,897.606 572.384,896.814 572.896,896.024 573.407,894.597 573.919,893.175 574.43,891.844 574.942,890.517 575.453,888.885 575.964,887.259 576.476,886.356 576.987,885.454 577.499,883.623 578.01,881.797 578.522,880.373 579.033,878.955 579.545,877.524 580.056,876.1 580.568,873.895 581.079,871.698 581.59,870.694 582.102,869.695 582.613,869.209 583.125,868.726 583.636,867.285 584.148,865.848 584.659,864.736 585.171,863.628 585.682,862.522 586.194,861.418 586.705,860.157 587.216,858.9 587.728,857.103 588.239,855.312 588.751,853.529 589.262,851.753 589.774,850.22 590.285,848.693 590.797,847.355 591.308,846.021 591.82,845.153 592.331,844.289 592.842,843.295 593.354,842.306 593.865,840.757 594.377,839.214 594.888,838.182 595.4,837.154 595.911,835.832 596.423,834.515 596.934,832.967 597.446,831.425 597.957,830.018 598.468,828.617 598.98,827.688 599.491,826.762 600.003,825.089 600.514,823.422 601.026,822.983 601.537,822.548 602.049,821.405 602.56,820.268 603.072,819.142 603.583,818.018 604.094,816.818 604.606,815.622 605.117,814.649 605.629,813.683 606.14,812.802 606.652,811.924 607.163,811.155 607.675,810.39 608.186,809.178 608.698,807.971 609.209,806.437 609.72,804.908 610.232,803.974 610.743,803.043 611.255,801.772 611.766,800.506 612.278,798.988 612.789,797.474 613.301,796.961 613.812,796.45 614.324,795.341 614.835,794.235 615.346,792.971 615.858,791.71 616.369,789.617 616.881,787.532 617.392,786.844 617.904,786.159 618.415,785.944 618.927,785.731 619.438,784.863 619.95,783.997 620.461,782.083 620.972,780.176 621.484,778.577 621.995,776.982 622.507,776.496 623.018,776.011 623.53,774.832 624.041,773.657 624.553,773.129 625.064,772.604 625.576,772.057 626.087,771.513 626.598,770.314 627.11,769.118 627.621,767.695 628.133,766.277 628.644,764.418 629.156,762.565 629.667,761.488 630.179,760.415 630.69,758.85 631.202,757.291 631.713,756.39 632.224,755.494 632.736,755.189 633.247,754.886 633.759,754.153 634.27,753.424 634.782,751.257 635.293,749.097 635.805,747.397 636.316,745.702 636.828,744.451 637.339,743.205 637.85,742.832 638.362,742.462 638.873,741.754 639.385,741.049 639.896,739.754 640.408,738.464 640.919,737.358 641.431,736.256 641.942,735.113 642.454,733.974 642.965,733.504 643.476,733.036 643.988,732.566 644.499,732.098 645.011,730.464 645.522,728.833 646.034,727.545 646.545,726.261 647.057,724.387 647.568,722.519 648.08,721.599 648.591,720.684 649.102,719.66 649.614,718.639 650.125,717.44 650.637,716.245 651.148,715.777 651.66,715.312 652.171,714.675 652.683,714.039 653.194,712.553 653.706,711.072 654.217,709.918 654.728,708.769 655.24,707.246 655.751,705.729 656.263,704.506 656.774,703.287 657.286,702.367 657.797,701.451 658.309,700.853 658.82,700.258 659.332,699.54 659.843,698.825 660.354,697.585 660.866,696.35 661.377,695.758 661.889,695.169 662.4,694.239 662.912,693.314 663.423,692.766 663.935,692.22 664.446,691.023 664.957,689.83 665.469,689.527 665.98,689.225 666.492,688.48 667.003,687.735 667.515,686.919 668.026,686.105 668.538,684.648 669.049,683.195 669.561,682.98 670.072,682.766 670.583,681.618 671.095,680.475 671.606,679.518 672.118,678.564 672.629,677.529 673.141,676.498 673.652,675.284 674.164,674.072 674.675,673.595 675.187,673.121 675.698,672.025 676.209,670.932 676.721,669.944 677.232,668.959 677.744,668.875 678.255,668.791 678.767,668.051 679.278,667.314 679.79,667.361 680.301,667.406 680.813,666.943 681.324,666.481 681.835,665.519 682.347,664.56 682.858,664.032 683.37,663.506 683.881,662.849 684.393,662.19 684.904,661.287 685.416,660.385 685.927,660.04 686.439,659.696 686.95,659.21 687.461,658.726 687.973,659.272 688.484,659.817 688.996,659.807 689.507,659.798 690.019,658.466 690.53,657.139 691.042,656.142 691.553,655.148 692.065,654.449 692.576,653.751 693.087,652.602 693.599,651.458 694.11,650.401 694.622,649.349 695.133,648.505 695.645,647.665 696.156,646.526 696.668,645.392 697.179,645.423 697.691,645.453 698.202,645.433 698.713,645.413 699.225,644.404 699.736,643.399 700.248,643.041 700.759,642.688 701.271,643.347 701.782,644.005 702.294,643.091 702.805,642.179 703.317,641.638 703.828,641.099 704.339,641.66 704.851,642.217 705.362,642.606 705.874,642.992 706.385,641.722 706.897,640.457 707.408,640.932 707.92,641.405 708.431,640.432 708.943,639.463 709.454,638.626 709.965,637.792 710.477,637.641 710.988,637.49 711.5,636.72 712.011,635.952 712.523,635.006 713.034,634.063 713.546,632.994 714.057,631.929 714.569,632.134 715.08,632.338 715.591,631.932 716.103,631.527 716.614,631.92 717.126,632.311 717.637,630.936 718.149,629.566 718.66,628.435 719.172,627.308 719.683,626.834 720.195,626.363 720.706,626.498 721.217,626.634 721.729,625.941 722.24,625.252 722.752,624.225 723.263,623.202 723.775,623.348 724.286,623.493 724.798,621.599 725.309,619.711 725.821,618.509 726.332,617.311 726.843,616.32 727.355,615.335 727.866,614.622 728.378,613.914 728.889,612.909 729.401,611.909 729.912,612.013 730.424,612.116 730.935,611.595 731.447,611.075 731.958,611.328 732.469,611.579 732.981,611.029 733.492,610.482 734.004,609.908 734.515,609.336 735.027,609.16 735.538,608.983 736.05,609.235 736.561,609.486 737.073,609.062 737.584,608.641 738.095,608.252 738.607,607.864 739.118,607.339 739.63,606.815 740.141,606.497 740.653,606.184 741.164,606.166 741.676,606.148 742.187,605.764 742.699,605.383 743.21,604.666 743.721,603.953 744.233,603.909 744.744,603.865 745.256,602.387 745.767,600.913 746.279,600.56 746.79,600.209 747.302,599.253 747.813,598.3 748.325,598.175 748.836,598.05 749.347,598.104 749.859,598.162 750.37,597.687 750.882,597.215 751.393,597.267 751.905,597.32 752.416,596.052 752.928,594.79 753.439,594.252 753.951,593.719 754.462,593.112 754.973,592.506 755.485,592.526 755.996,592.547 756.508,592.194 757.019,591.842 757.531,591.599 758.042,591.357 758.554,590.593 759.065,589.831 759.576,589.52 760.088,589.213 760.599,589.098 761.111,588.984 761.622,587.708 762.134,586.437 762.645,584.99 763.157,583.549 763.668,583.35 764.18,583.152 764.691,582.176 765.202,581.204 765.714,580.859 766.225,580.518 766.737,579.739 767.248,578.963 767.76,579.14 768.271,579.315 768.783,578.748 769.294,578.183 769.806,577.307 770.317,576.436 770.828,576.637 771.34,576.836 771.851,576.391 772.363,575.948 772.874,575.555 773.386,575.162 773.897,573.569 774.409,571.982 774.92,571.806 775.432,571.63 775.943,570.841 776.454,570.055 776.966,569.636 777.477,569.218 777.989,569.697 778.5,570.174 779.012,570.67 779.523,571.165 780.035,571.329 780.546,571.494 781.058,571.722 781.569,571.948 782.08,571.966 782.592,571.983 783.103,570.649 783.615,569.319 784.126,569.001 784.638,568.682 785.149,567.909 785.661,567.14 786.172,567.629 786.684,568.113 787.195,567.676 787.706,567.24 788.218,567.154 788.729,567.068 789.241,565.448 789.752,563.834 790.264,563.988 790.775,564.142 791.287,563.956 791.798,563.77 792.31,562.842 792.821,561.917 793.332,561.616 793.844,561.316 794.355,562.356 794.867,563.392 795.378,561.955 795.89,560.523 796.401,559.879 796.913,559.237 797.424,559.64 797.936,560.04 798.447,559.265 798.958,558.494 799.47,559.227 799.981,559.96 800.493,558.752 801.004,557.549 801.516,556.453 802.027,555.362 802.539,556.257 803.05,557.147 803.562,557.835 804.073,558.519 804.584,557.621 805.096,556.727 805.607,556.745 806.119,556.764 806.63,556.633 807.142,556.5 807.653,556.356 808.165,556.211 808.676,555.265 809.188,554.323 809.699,553.953 810.21,553.585 810.722,554.005 811.233,554.424 811.745,553.945 812.256,553.468 812.768,553.914 813.279,554.356 813.791,554.568 814.302,554.778 814.814,553.492 815.325,552.212 815.836,551.091 816.348,549.975 816.859,551.602 817.371,553.223 817.882,553.17 818.394,553.117 818.905,552.907 819.417,552.698 819.928,551.242 820.44,549.791 820.951,548.157 821.462,546.529 821.974,546.287 822.485,546.046 822.997,545.149 823.508,544.256 824.02,544.203 824.531,544.149 825.043,544.546 825.554,544.94 826.066,543.914 826.577,542.894 827.088,542.029 827.6,541.167 828.111,541.102 828.623,541.037 829.134,540.285 829.646,539.537 830.157,539.965 830.669,540.391 831.18,541.174 831.692,541.95 832.203,542.74 832.714,543.528 833.226,543.274 833.737,543.022 834.249,541.819 834.76,540.62 835.272,540.378 835.783,540.136 836.295,540.5 836.806,540.862 837.318,541.952 837.829,543.037 838.34,542.267 838.852,541.5 839.363,540.836 839.875,540.176 840.386,539.649 840.898,539.124 841.409,538.456 841.921,537.79 842.432,537.69 842.944,537.59 843.455,537.613 843.966,537.636 844.478,537.717 844.989,537.798 845.501,537.822 846.012,537.848 846.524,537.284 847.035,536.722 847.547,536.356 848.058,535.991 848.57,535.554 849.081,535.118 849.592,534.971 850.104,534.824 850.615,534.56 851.127,534.296 851.638,533.444 852.15,532.595 852.661,532.017 853.173,531.44 853.684,531.839 854.196,532.236 854.707,530.894 855.218,529.558 855.73,529.478 856.241,529.399 856.753,530.084 857.264,530.762 857.776,530.992 858.287,531.22 858.799,531.9 859.31,532.576 859.821,532.958 860.333,533.338 860.844,534.013 861.356,534.688 861.867,533.937 862.379,533.189 862.89,532.663 863.402,532.137 863.913,532.207 864.425,532.277 864.936,532.213 865.447,532.148 865.959,531.909 866.47,531.671 866.982,531.574 867.493,531.477 868.005,530.937 868.516,530.4 869.028,530.799 869.539,531.196 870.051,530.489 870.562,529.785 871.073,528.331 871.585,526.884 872.096,525.711 872.608,524.542 873.119,525.592 873.631,526.638 874.142,526.567 874.654,526.497 875.165,526.2 875.677,525.903 876.188,524.841 876.699,523.786 877.211,522.352 877.722,520.924 878.234,521.96 878.745,522.991 879.257,522.785 879.768,522.58 880.28,521.583 880.791,520.589 881.303,521.156 881.814,521.718 882.325,522.548 882.837,523.373 883.348,523.508 883.86,523.643 884.371,523.011 884.883,522.381 885.394,522.897 885.906,523.409 886.417,523.76 886.929,524.109 887.44,523.618 887.951,523.129 888.463,523.322 888.974,523.515 889.486,523.86 889.997,524.205 890.509,523.566 891.02,522.93 891.532,523.59 892.043,524.249 892.555,523.737 893.066,523.224 893.577,523.849 894.089,524.47 894.6,523.815 895.112,523.161 895.623,523.725 896.135,524.286 896.646,523.886 897.158,523.488 897.669,523.775 898.181,524.059 898.692,524.404 899.203,524.749 899.715,524.095 900.226,523.445 900.738,523.148 901.249,522.852 901.761,522.111 902.272,521.373 902.784,521.051 903.295,520.73 903.807,520.283 904.318,519.837 904.829,520.856 905.341,521.868 905.852,523.399 906.364,524.923 906.875,525.59 907.387,526.252 907.898,525.88 908.41,525.509 908.921,524.664 909.433,523.823 909.944,524.638 910.455,525.447 910.967,525.932 911.478,526.413 911.99,525.237 912.501,524.067 913.013,524.597 913.524,525.121 914.036,525.785 914.547,526.444 915.059,525.784 915.57,525.128 916.081,525.044 916.593,524.959 917.104,524.746 917.616,524.533 918.127,525.204 918.639,525.872 919.15,525.085 919.662,524.3 920.173,524.648 920.685,524.995 921.196,525.738 921.707,526.477 922.219,525.979 922.73,525.482 923.242,524.634 923.753,523.79 924.265,524.417 924.776,525.04 925.288,525.573 925.799,526.102 926.311,525.683 926.822,525.266 927.333,523.808 927.845,522.357 928.356,523.385 928.868,524.407 929.379,523.891 929.891,523.378 930.402,523.104 930.914,522.831 931.425,524.35 931.937,525.862 932.448,526.23 932.959,526.595 933.471,526.937 933.982,527.277 934.494,527.763 935.005,528.245 935.517,527.312 936.028,526.383 936.54,525.865 937.051,525.351 937.563,524.621 938.074,523.894 938.585,524.007 939.097,524.118 939.608,525.157 940.12,526.19 940.631,528.855 941.143,531.501 941.654,530.746 942.166,529.994 942.677,530.744 943.189,531.491 943.7,532.204 944.211,532.913 944.723,533.442 945.234,533.968 945.746,534.98 946.257,535.985 946.769,537.162 947.28,538.332 947.792,538.972 948.303,539.606 948.815,539.628 949.326,539.648 949.837,538.767 950.349,537.89 950.86,538.172 951.372,538.452 951.883,538.261 952.395,538.071 952.906,539.634 953.418,541.184 953.929,541.229 954.44,541.273 954.952,541.509 955.463,541.742 955.975,541.9 956.486,542.057 956.998,542.534 957.509,543.008 958.021,543.409 958.532,543.81 959.044,544.459 959.555,545.106 960.066,545.825 960.578,546.54 961.089,547.181 961.601,547.816 962.112,547.922 962.624,548.027 963.135,547.525 963.647,547.025 964.158,546.787 964.67,546.552 965.181,547.683 965.692,548.806 966.204,548.656 966.715,548.507 967.227,550.296 967.738,552.073 968.25,553.617 968.761,555.15 969.273,556.728 969.784,558.295 970.296,559.207 970.807,560.113 971.318,559.639 971.83,559.166 972.341,558.692 972.853,558.22 973.364,559.529 973.876,560.829 974.387,561.322 974.899,561.812 975.41,562.387 975.922,562.963 976.433,563.049 976.944,563.134 977.456,563.394 977.967,563.655 978.479,564.229 978.99,564.799 979.502,564.431 980.013,564.064 980.525,563.764 981.036,563.463 981.548,563.583 982.059,563.701 982.57,562.795 983.082,561.891 983.593,562.784 984.105,563.671 984.616,564.688 985.128,565.7 985.639,566.497 986.151,567.292 986.662,567.998 987.174,568.699 987.685,567.068 988.196,565.445 988.708,566.182 989.219,566.913 989.731,567.346 990.242,567.775 990.754,566.317 991.265,564.866 991.777,564.851 992.288,564.834 992.8,564.448 993.311,564.063 993.822,564.779 994.334,565.495 994.845,566.359 995.357,567.215 995.868,567.6 996.38,567.981 996.891,568.493 997.403,569.001 997.914,568.981 998.426,568.959 998.937,570.31 999.448,571.648 999.96,572.034 1000.47,572.416 1000.98,572.111 1001.49,571.806 1002.01,573.47 1002.52,575.122 1003.03,574.14 1003.54,573.161 1004.05,573.665 1004.56,574.166 1005.07,573.717 1005.59,573.271 1006.1,573.475 1006.61,573.678 1007.12,574.13 1007.63,574.58 1008.14,573.039 1008.65,571.506 1009.17,571.318 1009.68,571.129 1010.19,571.246 1010.7,571.364 1011.21,570.23 1011.72,569.102 1012.23,570.16 1012.75,571.21 1013.26,572.003 1013.77,572.792 1014.28,572.344 1014.79,571.9 1015.3,571.144 1015.81,570.394 1016.33,570.596 1016.84,570.797 1017.35,570.587 1017.86,570.376 1018.37,570.32 1018.88,570.26 1019.4,570.632 1019.91,571.001 1020.42,570.777 1020.93,570.554 1021.44,571.947 1021.95,573.331 1022.46,573.337 1022.98,573.342 1023.49,572.661 1024,571.982 1024.51,571.485 1025.02,570.991 1025.53,571.323 1026.04,571.651 1026.56,571.221 1027.07,570.794 1027.58,570.588 1028.09,570.382 1028.6,569.215 1029.11,568.054 1029.62,567.885 1030.14,567.718 1030.65,566.689 1031.16,565.664 1031.67,566.207 1032.18,566.743 1032.69,566.929 1033.2,567.114 1033.72,566.602 1034.23,566.092 1034.74,566.441 1035.25,566.787 1035.76,565.703 1036.27,564.624 1036.78,565.334 1037.3,566.038 1037.81,566.055 1038.32,566.073 1038.83,565.883 1039.34,565.696 1039.85,565.268 1040.36,564.843 1040.88,564.409 1041.39,563.979 1041.9,563.69 1042.41,563.402 1042.92,563.65 1043.43,563.896 1043.94,563.954 1044.46,564.011 1044.97,563.307 1045.48,562.607 1045.99,562.865 1046.5,563.118 1047.01,563.045 1047.53,562.972 1048.04,563.377 1048.55,563.779 1049.06,562.342 1049.57,560.913 1050.08,561.346 1050.59,561.774 1051.11,562.279 1051.62,562.78 1052.13,563.717 1052.64,564.645 1053.15,565.12 1053.66,565.592 1054.17,566.654 1054.69,567.707 1055.2,569.343 1055.71,570.967 1056.22,571.292 1056.73,571.614 1057.24,570.863 1057.75,570.118 1058.27,569.66 1058.78,569.205 1059.29,569.548 1059.8,569.887 1060.31,569.788 1060.82,569.69 1061.33,569.684 1061.85,569.68 1062.36,571.555 1062.87,573.41 1063.38,575.125 1063.89,576.826 1064.4,575.256 1064.91,573.697 1065.43,572.752 1065.94,571.813 1066.45,570.572 1066.96,569.339 1067.47,569.859 1067.98,570.375 1068.49,569.496 1069.01,568.62 1069.52,567.96 1070.03,567.302 1070.54,566.964 1071.05,566.627 1071.56,566.575 1072.07,566.52 1072.59,565.996 1073.1,565.473 1073.61,565.892 1074.12,566.307 1074.63,566.981 1075.14,567.649 1075.66,567.493 1076.17,567.336 1076.68,568.287 1077.19,569.227 1077.7,568.872 1078.21,568.52 1078.72,568.67 1079.24,568.817 1079.75,569.61 1080.26,570.399 1080.77,571.373 1081.28,572.337 1081.79,572.517 1082.3,572.696 1082.82,572.823 1083.33,572.95 1083.84,573.22 1084.35,573.486 1084.86,574.002 1085.37,574.511 1085.88,574.56 1086.4,574.606 1086.91,574.731 1087.42,574.856 1087.93,574.404 1088.44,573.954 1088.95,573.818 1089.46,573.68 1089.98,573.04 1090.49,572.402 1091,572.608 1091.51,572.811 1092.02,573.051 1092.53,573.287 1093.04,573.241 1093.56,573.194 1094.07,572.566 1094.58,571.941 1095.09,572.776 1095.6,573.604 1096.11,573.941 1096.62,574.274 1097.14,574.44 1097.65,574.605 1098.16,574.814 1098.67,575.019 1099.18,576.52 1099.69,578.006 1100.2,578.468 1100.72,578.926 1101.23,579.297 1101.74,579.663 1102.25,580.868 1102.76,582.061 1103.27,582.431 1103.79,582.796 1104.3,584.89 1104.81,586.966 1105.32,585.595 1105.83,584.232 1106.34,584.638 1106.85,585.038 1107.37,585.959 1107.88,586.872 1108.39,585.936 1108.9,585.004 1109.41,585.824 1109.92,586.639 1110.43,586.503 1110.95,586.366 1111.46,585.995 1111.97,585.625 1112.48,586.12 1112.99,586.61 1113.5,587.171 1114.01,587.729 1114.53,586.562 1115.04,585.4 1115.55,586.042 1116.06,586.679 1116.57,585.666 1117.08,584.659 1117.59,584.85 1118.11,585.039 1118.62,586.408 1119.13,587.766 1119.64,587.453 1120.15,587.143 1120.66,588.627 1121.17,590.099 1121.69,589.891 1122.2,589.684 1122.71,588.913 1123.22,588.146 1123.73,587.591 1124.24,587.039 1124.75,587.643 1125.27,588.24 1125.78,587.499 1126.29,586.761 1126.8,585.929 1127.31,585.102 1127.82,586.579 1128.33,588.045 1128.85,586.878 1129.36,585.72 1129.87,587.009 1130.38,588.29 1130.89,589.344 1131.4,590.388 1131.92,591.866 1132.43,593.327 1132.94,592.592 1133.45,591.86 1133.96,591.213 1134.47,590.573 1134.98,590.256 1135.5,589.939 1136.01,589.244 1136.52,588.55 1137.03,588.49 1137.54,588.429 1138.05,588.643 1138.56,588.851 1139.08,589.242 1139.59,589.629 1140.1,589.146 1140.61,588.665 1141.12,587.782 1141.63,586.902 1142.14,586.229 1142.66,585.559 1143.17,586.221 1143.68,586.876 1144.19,586.453 1144.7,586.03 1145.21,585.884 1145.72,585.738 1146.24,586.675 1146.75,587.603 1147.26,588.045 1147.77,588.481 1148.28,587.898 1148.79,587.318 1149.3,588.011 1149.82,588.703 1150.33,588.33 1150.84,587.958 1151.35,586.518 1151.86,585.086 1152.37,585.15 1152.88,585.218 1153.4,585.026 1153.91,584.837 1154.42,586.05 1154.93,587.254 1155.44,587.845 1155.95,588.431 1156.46,587.922 1156.98,587.415 1157.49,587.28 1158,587.142 1158.51,587.972 1159.02,588.8 1159.53,588.031 1160.05,587.266 1160.56,588.202 1161.07,589.124 1161.58,588.62 1162.09,588.123 1162.6,588.081 1163.11,588.037 1163.63,588.685 1164.14,589.328 1164.65,589.173 1165.16,589.018 1165.67,590.815 1166.18,592.602 1166.69,594.607 1167.21,596.591 1167.72,595.581 1168.23,594.579 1168.74,594.761 1169.25,594.94 1169.76,593.969 1170.27,593.004 1170.79,593.159 1171.3,593.314 1171.81,593.676 1172.32,594.036 1172.83,597.354 1173.34,600.639 1173.85,600.433 1174.37,600.226 1174.88,601.017 1175.39,601.798 1175.9,603.468 1176.41,605.121 1176.92,606.055 1177.43,606.978 1177.95,608.007 1178.46,609.027 1178.97,610.59 1179.48,612.137 1179.99,612.309 1180.5,612.478 1181.01,611.751 1181.53,611.028 1182.04,612.117 1182.55,613.198 1183.06,613.445 1183.57,613.688 1184.08,613.611 1184.59,613.531 1185.11,612.943 1185.62,612.359 1186.13,611.367 1186.64,610.379 1187.15,611.398 1187.66,612.405 1188.18,613.017 1188.69,613.62 1189.2,613.554 1189.71,613.486 1190.22,614.531 1190.73,615.565 1191.24,614.889 1191.76,614.217 1192.27,615.828 1192.78,617.421 1193.29,618.353 1193.8,619.276 1194.31,618.519 1194.82,617.764 1195.34,618.86 1195.85,619.944 1196.36,620.452 1196.87,620.951 1197.38,621.261 1197.89,621.567 1198.4,622.791 1198.92,624.003 1199.43,622.931 1199.94,621.865 1200.45,621.056 1200.96,620.249 1201.47,620.15 1201.98,620.053 1202.5,618.118 1203.01,616.193 1203.52,616.677 1204.03,617.161 1204.54,617.719 1205.05,618.272 1205.56,619.393 1206.08,620.502 1206.59,620.234 1207.1,619.966 1207.61,620.991 1208.12,622.006 1208.63,621.742 1209.14,621.478 1209.66,621.321 1210.17,621.165 1210.68,621.268 1211.19,621.37 1211.7,621.059 1212.21,620.747 1212.72,622.121 1213.24,623.479 1213.75,621.724 1214.26,619.982 1214.77,620.224 1215.28,620.464 1215.79,620.926 1216.3,621.382 1216.82,621.451 1217.33,621.516 1217.84,622.04 1218.35,622.556 1218.86,624.207 1219.37,625.839 1219.89,625.643 1220.4,625.445 1220.91,626.791 1221.42,628.124 1221.93,630.303 1222.44,632.46 1222.95,632.024 1223.47,631.588 1223.98,631.667 1224.49,631.743 1225,630.486 1225.51,629.24 1226.02,628.474 1226.53,627.711 1227.05,627.292 1227.56,626.872 1228.07,626.265 1228.58,625.657 1229.09,626.636 1229.6,627.604 1230.11,627.228 1230.63,626.855 1231.14,626.751 1231.65,626.645 1232.16,626.786 1232.67,626.921 1233.18,626.62 1233.69,626.321 1234.21,627.58 1234.72,628.827 1235.23,628.778 1235.74,628.728 1236.25,631.219 1236.76,633.681 1237.27,634.82 1237.79,635.949 1238.3,636.556 1238.81,637.154 1239.32,637.349 1239.83,637.538 1240.34,638.644 1240.85,639.734 1241.37,640.392 1241.88,641.043 1242.39,642.453 1242.9,643.849 1243.41,645.006 1243.92,646.15 1244.43,645.741 1244.95,645.334 1245.46,646.564 1245.97,647.78 1246.48,647.32 1246.99,646.861 1247.5,646.058 1248.02,645.262 1248.53,645.191 1249.04,645.115 1249.55,646.533 1250.06,647.938 1250.57,648.355 1251.08,648.764 1251.6,649.122 1252.11,649.474 1252.62,649.994 1253.13,650.501 1253.64,652.004 1254.15,653.494 1254.66,653.368 1255.18,653.24 1255.69,653.047 1256.2,652.851 1256.71,654.38 1257.22,655.896 1257.73,658.834 1258.24,661.735 1258.76,660.468 1259.27,659.207 1259.78,657.903 1260.29,656.607 1260.8,656.828 1261.31,657.047 1261.82,655.752 1262.34,654.465 1262.85,655.464 1263.36,656.446 1263.87,656.052 1264.38,655.66 1264.89,654.808 1265.4,653.96 1265.92,656.308 1266.43,658.632 1266.94,658.722 1267.45,658.807 1267.96,659.321 1268.47,659.828 1268.98,662.764 1269.5,665.668 1270.01,664.313 1270.52,662.967 1271.03,664.471 1271.54,665.958 1272.05,666.964 1272.56,667.963 1273.08,668.348 1273.59,668.725 1274.1,669.597 1274.61,670.462 1275.12,668.09 1275.63,665.733 1276.15,665.165 1276.66,664.598 1277.17,664.206 1277.68,663.814 1278.19,663.553 1278.7,663.292 1279.21,662.437 1279.73,661.589 1280.24,660.757 1280.75,659.931 1281.26,660.357 1281.77,660.776 1282.28,660.892 1282.79,661.007 1283.31,662.2 1283.82,663.38 1284.33,662.954 1284.84,662.531 1285.35,661.626 1285.86,660.728 1286.37,661.657 1286.89,662.577 1287.4,662.794 1287.91,663.007 1288.42,663.953 1288.93,664.887 1289.44,665.257 1289.95,665.62 1290.47,665.482 1290.98,665.342 1291.49,665.715 1292,666.084 1292.51,665.617 1293.02,665.15 1293.53,666.122 1294.05,667.082 1294.56,667.419 1295.07,667.751 1295.58,667.196 1296.09,666.642 1296.6,667.09 1297.11,667.528 1297.63,667.023 1298.14,666.519 1298.65,667.167 1299.16,667.809 1299.67,668.148 1300.18,668.482 1300.69,668.19 1301.21,667.898 1301.72,666.63 1302.23,665.374 1302.74,667.124 1303.25,668.857 1303.76,669.203 1304.28,669.545 1304.79,669.654 1305.3,669.757 1305.81,669.149 1306.32,668.542 1306.83,668.713 1307.34,668.88 1307.86,669.153 1308.37,669.419 1308.88,669.724 1309.39,670.023 1309.9,670.625 1310.41,671.22 1310.92,670.876 1311.44,670.531 1311.95,670.272 1312.46,670.013 1312.97,669.313 1313.48,668.615 1313.99,667.059 1314.5,665.512 1315.02,666.073 1315.53,666.627 1316.04,666.123 1316.55,665.621 1317.06,666.07 1317.57,666.513 1318.08,668.163 1318.6,669.795 1319.11,669.146 1319.62,668.5 1320.13,666.832 1320.64,665.176 1321.15,665.133 1321.66,665.086 1322.18,664.899 1322.69,664.71 1323.2,665.819 1323.71,666.911 1324.22,667.339 1324.73,667.764 1325.24,667.656 1325.76,667.548 1326.27,667.577 1326.78,667.605 1327.29,667.44 1327.8,667.272 1328.31,667.428 1328.82,667.582 1329.34,668.309 1329.85,669.023 1330.36,668.542 1330.87,668.06 1331.38,668.732 1331.89,669.391 1332.41,671.09 1332.92,672.768 1333.43,673.187 1333.94,673.597 1334.45,674.348 1334.96,675.087 1335.47,675.376 1335.99,675.656 1336.5,678.163 1337.01,680.636 1337.52,679.662 1338.03,678.691 1338.54,680.257 1339.05,681.795 1339.57,682.357 1340.08,682.912 1340.59,683.693 1341.1,684.464 1341.61,683.269 1342.12,682.084 1342.63,680.876 1343.15,679.674 1343.66,679.385 1344.17,679.097 1344.68,678.748 1345.19,678.4 1345.7,677.919 1346.21,677.44 1346.73,678.398 1347.24,679.342 1347.75,679.443 1348.26,679.542 1348.77,680.096 1349.28,680.637 1349.79,681.549 1350.31,682.45 1350.82,682.944 1351.33,683.429 1351.84,681.92 1352.35,680.422 1352.86,679.612 1353.37,678.805 1353.89,678.164 1354.4,677.524 1354.91,677.194 1355.42,676.862 1355.93,676.842 1356.44,676.818 1356.95,676.381 1357.47,675.945 1357.98,675.983 1358.49,676.018 1359,677.047 1359.51,678.062 1360.02,676.675 1360.54,675.295 1361.05,675.226 1361.56,675.154 1362.07,674.695 1362.58,674.237 1363.09,675.039 1363.6,675.826 1364.12,676.83 1364.63,677.822 1365.14,676.74 1365.65,675.665 1366.16,674.827 1366.67,673.992 1367.18,673.188 1367.7,672.388 1368.21,674.378 1368.72,676.337 1369.23,677.085 1369.74,677.82 1370.25,678.356 1370.76,678.881 1371.28,678.223 1371.79,677.567 1372.3,677.937 1372.81,678.297 1373.32,679.242 1373.83,680.173 1374.34,680.97 1374.86,681.755 1375.37,681.915 1375.88,682.067 1376.39,683.84 1376.9,685.588 1377.41,686.681 1377.92,687.756 1378.44,688.013 1378.95,688.266 1379.46,688.505 1379.97,688.738 1380.48,689.565 1380.99,690.378 1381.5,692.138 1382.02,693.878 1382.53,694.398 1383.04,694.908 1383.55,694.191 1384.06,693.478 1384.57,694.737 1385.08,695.987 1385.6,696.045 1386.11,696.098 1386.62,696.518 1387.13,696.932 1387.64,696.871 1388.15,696.809 1388.66,698.567 1389.18,700.297 1389.69,700.142 1390.2,699.985 1390.71,701.6 1391.22,703.195 1391.73,704.885 1392.25,706.542 1392.76,706.17 1393.27,705.789 1393.78,707.085 1394.29,708.363 1394.8,707.384 1395.31,706.41 1395.83,707.287 1396.34,708.15 1396.85,708.611 1397.36,709.06 1397.87,709.589 1398.38,710.109 1398.89,709.61 1399.41,709.111 1399.92,710.172 1400.43,711.214 1400.94,709.758 1401.45,708.311 1401.96,710.113 1402.47,711.898 1402.99,711.125 1403.5,710.356 1404.01,709.333 1404.52,708.316 1405.03,708.65 1405.54,708.978 1406.05,709.464 1406.57,709.939 1407.08,711.037 1407.59,712.116 1408.1,711.964 1408.61,711.809 1409.12,711.811 1409.63,711.806 1410.15,712.035 1410.66,712.26 1411.17,711.764 1411.68,711.265 1412.19,710.232 1412.7,709.206 1413.21,709.191 1413.73,709.174 1414.24,709.683 1414.75,710.183 1415.26,710.204 1415.77,710.221 1416.28,709.244 1416.79,708.27 1417.31,708.759 1417.82,709.238 1418.33,709.353 1418.84,709.461 1419.35,710.444 1419.86,711.408 1420.38,711.989 1420.89,712.556 1421.4,713.372 1421.91,714.173 1422.42,714.137 1422.93,714.096 1423.44,712.134 1423.96,710.185 1424.47,708.691 1424.98,707.209 1425.49,707.413 1426,707.605 1426.51,708.249 1427.02,708.879 1427.54,708.367 1428.05,707.856 1428.56,708.43 1429.07,708.996 1429.58,709.032 1430.09,709.057 1430.6,708.44 1431.12,707.824 1431.63,707.446 1432.14,707.066 1432.65,706.505 1433.16,705.941 1433.67,707.624 1434.18,709.275 1434.7,709.623 1435.21,709.962 1435.72,712.149 1436.23,714.312 1436.74,714.462 1437.25,714.605 1437.76,714.536 1438.28,714.458 1438.79,713.645 1439.3,712.842 1439.81,712.015 1440.32,711.195 1440.83,710.991 1441.34,710.781 1441.86,710.669 1442.37,710.553 1442.88,709.844 1443.39,709.138 1443.9,708.66 1444.41,708.182 1444.92,708.703 1445.44,709.212 1445.95,711.025 1446.46,712.813 1446.97,713.518 1447.48,714.212 1447.99,715.141 1448.51,716.054 1449.02,715.284 1449.53,714.519 1450.04,714.108 1450.55,713.698 1451.06,713.607 1451.57,713.513 1452.09,714.509 1452.6,715.488 1453.11,714.543 1453.62,713.601 1454.13,713.829 1454.64,714.05 1455.15,714.987 1455.67,715.906 1456.18,717.435 1456.69,718.943 1457.2,719.763 1457.71,720.572 1458.22,722.237 1458.73,723.871 1459.25,723.662 1459.76,723.448 1460.27,723.779 1460.78,724.104 1461.29,725.794 1461.8,727.453 1462.31,728.11 1462.83,728.754 1463.34,729.738 1463.85,730.709 1464.36,729.918 1464.87,729.132 1465.38,730.144 1465.89,731.14 1466.41,731.321 1466.92,731.495 1467.43,732.702 1467.94,733.889 1468.45,734.206 1468.96,734.512 1469.47,734.644 1469.99,734.772 1470.5,734.757 1471.01,734.735 1471.52,733.983 1472.03,733.233 1472.54,733.122 1473.05,733.014 1473.57,734.415 1474.08,735.796 1474.59,735.602 1475.1,735.405 1475.61,733.873 1476.12,732.35 1476.64,732.193 1477.15,732.027 1477.66,733.964 1478.17,735.876 1478.68,734.402 1479.19,732.94 1479.7,732.675 1480.22,732.404 1480.73,731.808 1481.24,731.215 1481.75,731.105 1482.26,730.99 1482.77,732.054 1483.28,733.091 1483.8,732.326 1484.31,731.562 1484.82,731.997 1485.33,732.417 1485.84,732.907 1486.35,733.384 1486.86,733.42 1487.38,733.446 1487.89,733.065 1488.4,732.684 1488.91,732.347 1489.42,732.01 1489.93,731.825 1490.44,731.637 1490.96,732.634 1491.47,733.605 1491.98,735.051 1492.49,736.465 1493,737.346 1493.51,738.212 1494.02,738.974 1494.54,739.722 1495.05,740.06 1495.56,740.386 1496.07,740.08 1496.58,739.77 1497.09,740.996 1497.6,742.2 1498.12,742.561 1498.63,742.917 1499.14,742.282 1499.65,741.653 1500.16,740.242 1500.67,738.84 1501.18,737.75 1501.7,736.665 1502.21,736.442 1502.72,736.216 1503.23,735.885 1503.74,735.546 1504.25,736.552 1504.77,737.536 1505.28,738.81 1505.79,740.058 1506.3,739.375 1506.81,738.692 1507.32,738.112 1507.83,737.535 1508.35,738.172 1508.86,738.787 1509.37,738.513 1509.88,738.234 1510.39,738.505 1510.9,738.767 1511.41,738.209 1511.93,737.646 1512.44,737.921 1512.95,738.184 1513.46,736.18 1513.97,734.191 1514.48,734.421 1514.99,734.642 1515.51,733.726 1516.02,732.817 1516.53,731.659 1517.04,730.51 1517.55,731.585 1518.06,732.637 1518.57,733.786 1519.09,734.909 1519.6,734.058 1520.11,733.21 1520.62,733.464 1521.13,733.711 1521.64,733.341 1522.15,732.971 1522.67,732.501 1523.18,732.03 1523.69,731.802 1524.2,731.568 1524.71,731.417 1525.22,731.262 1525.73,731.233 1526.25,731.197 1526.76,731.594 1527.27,731.977 1527.78,732.433 1528.29,732.876 1528.8,733.519 1529.31,734.145 1529.83,732.406 1530.34,730.679 1530.85,730.824 1531.36,730.96 1531.87,729.867 1532.38,728.78 1532.9,727.763 1533.41,726.753 1533.92,724.387 1534.43,722.037 1534.94,723.849 1535.45,725.618 1535.96,723.155 1536.48,720.71 1536.99,719.125 1537.5,717.552 1538.01,718.245 1538.52,718.918 1539.03,717.775 1539.54,716.639 1540.06,716.765 1540.57,716.883 1541.08,715.164 1541.59,713.454 1542.1,715.698 1542.61,717.901 1543.12,717.144 1543.64,716.39 1544.15,716.835 1544.66,717.27 1545.17,717.301 1545.68,717.327 1546.19,716.686 1546.7,716.046 1547.22,716.333 1547.73,716.611 1548.24,717.352 1548.75,718.08 1549.26,717.452 1549.77,716.828 1550.28,716.362 1550.8,715.898 1551.31,715.036 1551.82,714.181 1552.33,712.176 1552.84,710.184 1553.35,708.489 1553.86,706.808 1554.38,705.761 1554.89,704.719 1555.4,704.827 1555.91,704.928 1556.42,705.689 1556.93,706.433 1557.44,705.538 1557.96,704.647 1558.47,705.404 1558.98,706.146 1559.49,707.05 1560,707.938 1560.51,707.454 1561.03,706.968 1561.54,707.476 1562.05,707.964 1562.56,708.751 1563.07,709.518 1563.58,710.903 1564.09,712.259 1564.61,711.286 1565.12,710.316 1565.63,711.75 1566.14,713.146 1566.65,712.141 1567.16,711.14 1567.67,712.038 1568.19,712.916 1568.7,711.146 1569.21,709.388 1569.72,709.909 1570.23,710.418 1570.74,710.193 1571.25,709.965 1571.77,709.477 1572.28,708.991 1572.79,710.055 1573.3,711.101 1573.81,711.708 1574.32,712.301 1574.83,713.028 1575.35,713.733 1575.86,713.841 1576.37,713.933 1576.88,714.86 1577.39,715.762 1577.9,715.356 1578.41,714.943 1578.93,715.663 1579.44,716.367 1579.95,716.54 1580.46,716.7 1580.97,716.139 1581.48,715.579 1581.99,714.096 1582.51,712.624 1583.02,713.332 1583.53,714.022 1584.04,712.357 1584.55,710.703 1585.06,711.662 1585.57,712.604 1586.09,712.038 1586.6,711.469 1587.11,711.598 1587.62,711.718 1588.13,711.735 1588.64,711.742 1589.15,712.179 1589.67,712.603 1590.18,712.794 1590.69,712.973 1591.2,712.177 1591.71,711.384 1592.22,709.922 1592.74,708.471 1593.25,708.535 1593.76,708.597 1594.27,707.909 1594.78,707.222 1595.29,707.334 1595.8,707.434 1596.32,706.876 1596.83,706.318 1597.34,706.918 1597.85,707.499 1598.36,708.679 1598.87,709.838 1599.38,709.935 1599.9,710.027 1600.41,710.062 1600.92,710.089 1601.43,709.922 1601.94,709.75 1602.45,709.647 1602.96,709.537 1603.48,709.115 1603.99,708.685 1604.5,708.699 1605.01,708.704 1605.52,708.453 1606.03,708.198 1606.54,709.608 1607.06,710.985 1607.57,712.708 1608.08,714.395 1608.59,714.433 1609.1,714.462 1609.61,712.444 1610.12,710.441 1610.64,710.38 1611.15,710.307 1611.66,710.78 1612.17,711.241 1612.68,710.807 1613.19,710.362 1613.7,711.971 1614.22,713.543 1614.73,713.821 1615.24,714.087 1615.75,715.454 1616.26,716.791 1616.77,716.931 1617.28,717.067 1617.8,718.027 1618.31,718.958 1618.82,718.508 1619.33,718.055 1619.84,717.883 1620.35,717.706 1620.87,716.63 1621.38,715.559 1621.89,713.846 1622.4,712.143 1622.91,712.781 1623.42,713.399 1623.93,712.373 1624.45,711.353 1624.96,713.02 1625.47,714.642 1625.98,715.496 1626.49,716.328 1627,715.721 1627.51,715.112 1628.03,715.038 1628.54,714.958 1629.05,713.877 1629.56,712.802 1630.07,712.66 1630.58,712.515 1631.09,711.135 1631.61,709.76 1632.12,708.379 1632.63,707.002 1633.14,706.317 1633.65,705.635 1634.16,706.353 1634.67,707.057 1635.19,704.439 1635.7,701.838 1636.21,701.015 1636.72,700.195 1637.23,701.145 1637.74,702.075 1638.25,703.431 1638.77,704.75 1639.28,705.19 1639.79,705.601 1640.3,704.778 1640.81,703.958 1641.32,704.285 1641.83,704.598 1642.35,704.452 1642.86,704.3 1643.37,704.076 1643.88,703.848 1644.39,703.272 1644.9,702.696 1645.41,702.519 1645.93,702.335 1646.44,701.455 1646.95,700.582 1647.46,699.017 1647.97,697.462 1648.48,697.961 1649,698.447 1649.51,698.745 1650.02,699.029 1650.53,699.274 1651.04,699.499 1651.55,700.617 1652.06,701.702 1652.58,700.986 1653.09,700.272 1653.6,700.082 1654.11,699.887 1654.62,700.369 1655.13,700.829 1655.64,700.642 1656.16,700.441 1656.67,698.929 1657.18,697.424 1657.69,697.641 1658.2,697.842 1658.71,698.97 1659.22,700.069 1659.74,698.791 1660.25,697.518 1660.76,697.372 1661.27,697.224 1661.78,697.161 1662.29,697.088 1662.8,696.947 1663.32,696.805 1663.83,697.968 1664.34,699.097 1664.85,698.78 1665.36,698.456 1665.87,698.414 1666.38,698.365 1666.9,698.553 1667.41,698.727 1667.92,698.476 1668.43,698.218 1668.94,698.004 1669.45,697.787 1669.96,697.736 1670.48,697.669 1670.99,698.326 1671.5,698.951 1672.01,697.912 1672.52,696.874 1673.03,696.478 1673.54,696.074 1674.06,696.398 1674.57,696.71 1675.08,695.421 1675.59,694.139 1676.1,695.029 1676.61,695.894 1677.13,694.817 1677.64,693.746 1678.15,693.447 1678.66,693.138 1679.17,691.84 1679.68,690.549 1680.19,690.456 1680.71,690.349 1681.22,691.496 1681.73,692.613 1682.24,692.391 1682.75,692.168 1683.26,693.561 1683.77,694.914 1684.29,693.983 1684.8,693.059 1685.31,693.42 1685.82,693.751 1686.33,693.423 1686.84,693.087 1687.35,693.55 1687.87,694.001 1688.38,694.359 1688.89,694.699 1689.4,694.924 1689.91,695.128 1690.42,693.106 1690.93,691.1 1691.45,691.095 1691.96,691.071 1692.47,690.151 1692.98,689.235 1693.49,689.667 1694,690.091 1694.51,689.675 1695.03,689.254 1695.54,688.085 1696.05,686.92 1696.56,686.606 1697.07,686.289 1697.58,684.427 1698.09,682.579 1698.61,682.298 1699.12,682.008 1699.63,680.953 1700.14,679.907 1700.65,678.529 1701.16,677.159 1701.67,676.09 1702.19,675.024 1702.7,674.224 1703.21,673.429 1703.72,672.196 1704.23,670.972 1704.74,670.996 1705.26,671.012 1705.77,670.686 1706.28,670.36 1706.79,670.052 1707.3,669.738 1707.81,668.591 1708.32,667.449 1708.84,666.584 1709.35,665.721 1709.86,666.622 1710.37,667.502 1710.88,666.478 1711.39,665.458 1711.9,664.75 1712.42,664.033 1712.93,662.848 1713.44,661.671 1713.95,661.209 1714.46,660.743 1714.97,659.7 1715.48,658.662 1716,658.432 1716.51,658.191 1717.02,657.992 1717.53,657.78 1718.04,658.237 1718.55,658.679 1719.06,658.629 1719.58,658.572 1720.09,660.185 1720.6,661.736 1721.11,661.53 1721.62,661.318 1722.13,661.906 1722.64,662.475 1723.16,661.195 1723.67,659.92 1724.18,660.073 1724.69,660.21 1725.2,659.321 1725.71,658.436 1726.22,658.1 1726.74,657.758 1727.25,657.09 1727.76,656.427 1728.27,656.411 1728.78,656.38 1729.29,655.888 1729.8,655.396 1730.32,654.84 1730.83,654.277 1731.34,655.356 1731.85,656.398 1732.36,657.084 1732.87,657.727 1733.39,657.576 1733.9,657.416 1734.41,656.461 1734.92,655.512 1735.43,654.683 1735.94,653.859 1736.45,651.973 1736.97,650.1 1737.48,650.212 1737.99,650.308 1738.5,650.139 1739.01,649.97 1739.52,648.714 1740.03,647.464 1740.55,647.461 1741.06,647.447 1741.57,646.712 1742.08,645.979 1742.59,644.859 1743.1,643.745 1743.61,644.029 1744.13,644.289 1744.64,642.468 1745.15,640.66 1745.66,640.96 1746.17,641.247 1746.68,641.215 1747.19,641.167 1747.71,641.039 1748.22,640.889 1748.73,640.105 1749.24,639.325 1749.75,638.625 1750.26,637.926 1750.77,639.077 1751.29,640.198 1751.8,640.242 1752.31,640.269 1752.82,639.828 1753.33,639.382 1753.84,639.079 1754.35,638.76 1754.87,638.873 1755.38,638.976 1755.89,639.991 1756.4,640.98 1756.91,641.281 1757.42,641.56 1757.93,640.033 1758.45,638.513 1758.96,636.866 1759.47,635.224 1759.98,634.329 1760.49,633.431 1761,632.866 1761.52,632.296 1762.03,633.247 1762.54,634.166 1763.05,634.405 1763.56,634.634 1764.07,633.96 1764.58,633.282 1765.1,632.979 1765.61,632.669 1766.12,632.857 1766.63,633.019 1767.14,632.291 1767.65,631.564 1768.16,630.652 1768.68,629.743 1769.19,629.481 1769.7,629.207 1770.21,627.862 1770.72,626.524 1771.23,626.596 1771.74,626.659 1772.26,625.992 1772.77,625.325 1773.28,624.509 1773.79,623.689 1774.3,623.005 1774.81,622.323 1775.32,622.099 1775.84,621.871 1776.35,621.367 1776.86,620.865 1777.37,620.22 1777.88,619.577 1778.39,618.338 1778.9,617.106 1779.42,616.402 1779.93,615.698 1780.44,615.77 1780.95,615.838 1781.46,615.425 1781.97,615.005 1782.48,613.347 1783,611.7 1783.51,612.451 1784.02,613.19 1784.53,613.005 1785.04,612.812 1785.55,612.486 1786.06,612.155 1786.58,611.381 1787.09,610.609 1787.6,609.945 1788.11,609.283 1788.62,607.726 1789.13,606.181 1789.64,605.138 1790.16,604.095 1790.67,603.478 1791.18,602.848 1791.69,601.497 1792.2,600.154 1792.71,599.672 1793.23,599.179 1793.74,598.158 1794.25,597.136 1794.76,595.922 1795.27,594.717 1795.78,594.894 1796.29,595.06 1796.81,593.543 1797.32,592.034 1797.83,592.658 1798.34,593.262 1798.85,592.701 1799.36,592.134 1799.87,591.734 1800.39,591.335 1800.9,591.354 1801.41,591.355 1801.92,590.881 1802.43,590.406 1802.94,590.164 1803.45,589.904 1803.97,589.5 1804.48,589.096 1804.99,588.726 1805.5,588.349 1806.01,588.951 1806.52,589.54 1807.03,588.972 1807.55,588.406 1808.06,588.251 1808.57,588.084 1809.08,587.327 1809.59,586.57 1810.1,585.807 1810.61,585.047 1811.13,583.835 1811.64,582.62 1812.15,580.94 1812.66,579.274 1813.17,578.806 1813.68,578.341 1814.19,578.73 1814.71,579.102 1815.22,578.168 1815.73,577.236 1816.24,576.288 1816.75,575.345 1817.26,574.36 1817.77,573.38 1818.29,573.497 1818.8,573.594 1819.31,573.317 1819.82,573.018 1820.33,573.324 1820.84,573.611 1821.36,572.631 1821.87,571.649 1822.38,571.537 1822.89,571.417 1823.4,570.687 1823.91,569.947 1824.42,569.289 1824.94,568.634 1825.45,566.76 1825.96,564.901 1826.47,564.469 1826.98,564.035 1827.49,563.756 1828,563.452 1828.52,562.734 1829.03,562.019 1829.54,561.21 1830.05,560.408 1830.56,558.785 1831.07,557.172 1831.58,557.247 1832.1,557.316 1832.61,555.842 1833.12,554.377 1833.63,553.052 1834.14,551.732 1834.65,551.199 1835.16,550.666 1835.68,549.947 1836.19,549.229 1836.7,548.768 1837.21,548.302 1837.72,547.684 1838.23,547.063 1838.74,546.526 1839.26,545.99 1839.77,545.244 1840.28,544.486 1840.79,544.488 1841.3,544.477 1841.81,543.64 1842.32,542.788 1842.84,542.187 1843.35,541.59 1843.86,540.968 1844.37,540.344 1844.88,539.924 1845.39,539.503 1845.9,538.704 1846.42,537.905 1846.93,537.603 1847.44,537.3 1847.95,536.098 1848.46,534.903 1848.97,533.954 1849.49,533.007 1850,533.016 1850.51,533.018 1851.02,532.933 1851.53,532.835 1852.04,531.943 1852.55,531.048 1853.07,530.913 1853.58,530.768 1854.09,530.409 1854.6,530.044 1855.11,530.256 1855.62,530.44 1856.13,529.265 1856.65,528.095 1857.16,526.514 1857.67,524.938 1858.18,523.923 1858.69,522.915 1859.2,522.663 1859.71,522.4 1860.23,521.758 1860.74,521.115 1861.25,520.032 1861.76,518.952 1862.27,518.974 1862.78,518.979 1863.29,519.431 1863.81,519.871 1864.32,519.473 1864.83,519.072 1865.34,519.041 1865.85,519.003 1866.36,519.26 1866.87,519.511 1867.39,519.278 1867.9,519.034 1868.41,518.447 1868.92,517.861 1869.43,516.933 1869.94,516.01 1870.45,516.014 1870.97,516.006 1871.48,516.061 1871.99,516.095 1872.5,515.888 1873.01,515.666 1873.52,515.469 1874.03,515.261 1874.55,515.158 1875.06,515.046 1875.57,514.277 1876.08,513.507 1876.59,512.62 1877.1,511.736 1877.62,510.732 1878.13,509.73 1878.64,508.719 1879.15,507.715 1879.66,507.122 1880.17,506.523 1880.68,505.336 1881.2,504.155 1881.71,502.937 1882.22,501.728 1882.73,501.261 1883.24,500.78 1883.75,500.271 1884.26,499.758 1884.78,500.239 1885.29,500.698 1885.8,500.756 1886.31,500.811 1886.82,500.634 1887.33,500.444 1887.84,499.901 1888.36,499.357 1888.87,498.961 1889.38,498.565 1889.89,497.916 1890.4,497.266 1890.91,497.298 1891.42,497.319 1891.94,497.081 1892.45,496.841 1892.96,495.963 1893.47,495.077 1893.98,494.479 1894.49,493.883 1895,494.013 1895.52,494.133 1896.03,493.058 1896.54,491.985 1897.05,492.011 1897.56,492.023 1898.07,491.387 1898.58,490.755 1899.1,491.369 1899.61,491.972 1900.12,490.149 1900.63,488.336 1901.14,487.933 1901.65,487.527 1902.16,487.67 1902.68,487.803 1903.19,486.408 1903.7,485.019 1904.21,483.607 1904.72,482.203 1905.23,480.882 1905.75,479.568 1906.26,479.409 1906.77,479.237 1907.28,478.264 1907.79,477.291 1908.3,477.609 1908.81,477.902 1909.33,478.419 1909.84,478.92 1910.35,478.108 1910.86,477.301 1911.37,476.388 1911.88,475.481 1912.39,474.225 1912.91,472.977 1913.42,472.116 1913.93,471.254 1914.44,470.83 1914.95,470.408 1915.46,470.469 1915.97,470.519 1916.49,469.783 1917,469.045 1917.51,468.57 1918.02,468.092 1918.53,466.838 1919.04,465.587 1919.55,464.42 1920.07,463.257 1920.58,462.651 1921.09,462.049 1921.6,462.021 1922.11,461.983 1922.62,461.485 1923.13,460.98 1923.65,460.729 1924.16,460.474 1924.67,460.76 1925.18,461.03 1925.69,461.089 1926.2,461.14 1926.71,460.178 1927.23,459.218 1927.74,459.414 1928.25,459.591 1928.76,458.545 1929.27,457.499 1929.78,457.703 1930.29,457.884 1930.81,456.909 1931.32,455.939 1931.83,455.436 1932.34,454.929 1932.85,454.541 1933.36,454.157 1933.88,453.216 1934.39,452.277 1934.9,451.667 1935.41,451.06 1935.92,449.61 1936.43,448.168 1936.94,446.891 1937.46,445.615 1937.97,444.791 1938.48,443.967 1938.99,442.46 1939.5,440.96 1940.01,441.939 1940.52,442.895 1941.04,441.985 1941.55,441.075 1942.06,440.786 1942.57,440.489 1943.08,439.887 1943.59,439.281 1944.1,438.299 1944.62,437.322 1945.13,437.2 1945.64,437.075 1946.15,436.523 1946.66,435.963 1947.17,435.368 1947.68,434.768 1948.2,434.456 1948.71,434.142 1949.22,433.285 1949.73,432.433 1950.24,431.473 1950.75,430.517 1951.26,430.027 1951.78,429.527 1952.29,428.641 1952.8,427.757 1953.31,427.157 1953.82,426.555 1954.33,426.85 1954.84,427.133 1955.36,425.902 1955.87,424.67 1956.38,424.002 1956.89,423.329 1957.4,422.752 1957.91,422.175 1958.42,420.807 1958.94,419.441 1959.45,419.769 1959.96,420.079 1960.47,419.178 1960.98,418.282 1961.49,417.426 1962.01,416.575 1962.52,415.768 1963.03,414.956 1963.54,413.931 1964.05,412.911 1964.56,412.339 1965.07,411.768 1965.59,412.542 1966.1,413.303 1966.61,413.275 1967.12,413.245 1967.63,413.861 1968.14,414.46 1968.65,413.722 1969.17,412.984 1969.68,411.817 1970.19,410.658 1970.7,409.66 1971.21,408.663 1971.72,408.038 1972.23,407.418 1972.75,407.281 1973.26,407.142 1973.77,407.279 1974.28,407.412 1974.79,407.066 1975.3,406.703 1975.81,407.154 1976.33,407.597 1976.84,406.434 1977.35,405.27 1977.86,404.399 1978.37,403.531 1978.88,403.023 1979.39,402.511 1979.91,402.232 1980.42,401.952 1980.93,401.841 1981.44,401.724 1981.95,400.992 1982.46,400.259 1982.97,400.249 1983.49,400.23 1984,399.823 1984.51,399.408 1985.02,398.52 1985.53,397.635 1986.04,396.725 1986.55,395.82 1987.07,395.715 1987.58,395.61 1988.09,395.46 1988.6,395.303 1989.11,393.957 1989.62,392.616 1990.13,390.872 1990.65,389.138 1991.16,388.199 1991.67,387.261 1992.18,387.083 1992.69,386.904 1993.2,386.549 1993.72,386.193 1994.23,385.573 1994.74,384.958 1995.25,384.437 1995.76,383.916 1996.27,384.608 1996.78,385.285 1997.3,384.955 1997.81,384.621 1998.32,384.445 1998.83,384.269 1999.34,383.544 1999.85,382.821 2000.36,381.421 2000.88,380.026 2001.39,380.011 2001.9,379.989 2002.41,379.188 2002.92,378.388 2003.43,376.949 2003.94,375.521 2004.46,374.766 2004.97,374.013 2005.48,372.861 2005.99,371.707 2006.5,370.967 2007.01,370.233 2007.52,369.518 2008.04,368.799 2008.55,368.675 2009.06,368.545 2009.57,368.72 2010.08,368.88 2010.59,367.517 2011.1,366.16 2011.62,366.34 2012.13,366.513 2012.64,365.2 2013.15,363.894 2013.66,363.184 2014.17,362.476 2014.68,362.177 2015.2,361.881 2015.71,360.526 2016.22,359.168 2016.73,357.87 2017.24,356.577 2017.75,355.277 2018.26,353.981 2018.78,353.849 2019.29,353.699 2019.8,352.5 2020.31,351.307 2020.82,351.296 2021.33,351.271 2021.85,351.953 2022.36,352.622 2022.87,351.874 2023.38,351.125 2023.89,350.628 2024.4,350.129 2024.91,349.358 2025.43,348.591 2025.94,347.652 2026.45,346.721 2026.96,346.115 2027.47,345.512 2027.98,344.899 2028.49,344.29 2029.01,343.38 2029.52,342.475 2030.03,341.499 2030.54,340.529 2031.05,340.143 2031.56,339.757 2032.07,339.383 2032.59,339.007 2033.1,338.474 2033.61,337.944 2034.12,337.682 2034.63,337.422 2035.14,337.34 2035.65,337.247 2036.17,335.573 2036.68,333.91 2037.19,333.248 2037.7,332.585 2038.21,331.566 2038.72,330.55 2039.23,330.081 2039.75,329.607 2040.26,328.512 2040.77,327.423 2041.28,326.854 2041.79,326.286 2042.3,325.149 2042.81,324.022 2043.33,323.578 2043.84,323.134 2044.35,322.765 2044.86,322.378 2045.37,321.202 2045.88,320.031 2046.39,319.388 2046.91,318.747 2047.42,318.333 2047.93,317.92 2048.44,317.137 2048.95,316.358 2049.46,316.451 2049.98,316.536 2050.49,316.199 2051,315.862 2051.51,316.193 2052.02,316.517 2052.53,316.477 2053.04,316.43 2053.56,316.3 2054.07,316.151 2054.58,314.714 2055.09,313.288 2055.6,312.626 2056.11,311.965 2056.62,311.491 2057.14,311.019 2057.65,312.304 2058.16,313.576 2058.67,313.069 2059.18,312.558 2059.69,311.937 2060.2,311.315 2060.72,312.174 2061.23,313.013 2061.74,312.491 2062.25,311.969 2062.76,311.789 2063.27,311.61 2063.78,311.922 2064.3,312.229 2064.81,311.996 2065.32,311.764 2065.83,311.526 2066.34,311.288 2066.85,310.094 2067.36,308.908 2067.88,308.23 2068.39,307.548 2068.9,306.178 2069.41,304.814 2069.92,304.159 2070.43,303.504 2070.94,303.182 2071.46,302.849 2071.97,302.442 2072.48,302.031 2072.99,301.37 2073.5,300.709 2074.01,299.671 2074.52,298.64 2075.04,297.853 2075.55,297.068 2076.06,296.973 2076.57,296.87 2077.08,296.571 2077.59,296.263 2078.11,296.38 2078.62,296.482 2079.13,295.327 2079.64,294.178 2080.15,294.298 2080.66,294.411 2081.17,293.497 2081.69,292.585 2082.2,291.426 2082.71,290.274 2083.22,289.012 2083.73,287.755 2084.24,288.068 2084.75,288.357 2085.27,287.895 2085.78,287.424 2086.29,286.55 2086.8,285.679 2087.31,286.292 2087.82,286.897 2088.33,286.993 2088.85,287.081 2089.36,287.334 2089.87,287.574 2090.38,286.357 2090.89,285.149 2091.4,284.506 2091.91,283.865 2092.43,283.333 2092.94,282.795 2093.45,282.168 2093.96,281.539 2094.47,280.971 2094.98,280.401 2095.49,279.44 2096.01,278.487 2096.52,277.234 2097.03,275.98 2097.54,275.155 2098.05,274.334 2098.56,273.743 2099.07,273.143 2099.59,273.066 2100.1,272.972 2100.61,273.078 2101.12,273.178 2101.63,273.417 2102.14,273.646 2102.65,273.193 2103.17,272.737 2103.68,272.642 2104.19,272.536 2104.7,272.372 2105.21,272.204 2105.72,271.877 2106.24,271.549 2106.75,271.043 2107.26,270.538 2107.77,270.719 2108.28,270.894 2108.79,269.904 2109.3,268.919 2109.82,267.944 2110.33,266.971 2110.84,266.647 2111.35,266.317 2111.86,266.017 2112.37,265.715 2112.88,265.734 2113.4,265.734 2113.91,264.551 2114.42,263.376 2114.93,263.129 2115.44,262.879 2115.95,262.185 2116.46,261.487 2116.98,261.224 2117.49,260.955 2118,260.064 2118.51,259.175 2119.02,258.748 2119.53,258.316 2120.04,256.762 2120.56,255.212 2121.07,255.339 2121.58,255.461 2122.09,254.862 2122.6,254.259 2123.11,252.704 2123.62,251.162 2124.14,250.457 2124.65,249.756 2125.16,249.28 2125.67,248.807 2126.18,248.121 2126.69,247.438 2127.2,247.321 2127.72,247.199 2128.23,247.355 2128.74,247.502 2129.25,247.003 2129.76,246.505 2130.27,245.443 2130.78,244.382 2131.3,244.817 2131.81,245.24 2132.32,244.866 2132.83,244.486 2133.34,243.528 2133.85,242.574 2134.37,241.984 2134.88,241.394 2135.39,241.173 2135.9,240.949 2136.41,241.197 2136.92,241.441 2137.43,241.325 2137.95,241.203 2138.46,240.83 2138.97,240.459 2139.48,239.923 2139.99,239.382 2140.5,238.208 2141.01,237.042 2141.53,236.288 2142.04,235.537 2142.55,235.409 2143.06,235.28 2143.57,234.658 2144.08,234.031 2144.59,232.929 2145.11,231.825 2145.62,231.184 2146.13,230.542 2146.64,230.141 2147.15,229.741 2147.66,229.052 2148.17,228.362 2148.69,227.34 2149.2,226.325 2149.71,226.804 2150.22,227.261 2150.73,227.612 2151.24,227.954 2151.75,228.11 2152.27,228.26 2152.78,228.267 2153.29,228.269 2153.8,227.193 2154.31,226.121 2154.82,225.612 2155.33,225.095 2155.85,225.588 2156.36,226.07 2156.87,225.54 2157.38,225.011 2157.89,224.423 2158.4,223.838 2158.91,223.396 2159.43,222.96 2159.94,222.796 2160.45,222.622 2160.96,222.675 2161.47,222.719 2161.98,222.882 2162.49,223.039 2163.01,222.376 2163.52,221.72 2164.03,221.045 2164.54,220.372 2165.05,219.512 2165.56,218.651 2166.08,217.485 2166.59,216.329 2167.1,216.128 2167.61,215.92 2168.12,215.696 2168.63,215.474 2169.14,214.895 2169.66,214.318 2170.17,212.895 2170.68,211.481 2171.19,210.909 2171.7,210.338 2172.21,210.096 2172.72,209.853 2173.24,209.408 2173.75,208.962 2174.26,207.971 2174.77,206.99 2175.28,206.17 2175.79,205.359 2176.3,205.02 2176.82,204.68 2177.33,203.643 2177.84,202.61 2178.35,201.635 2178.86,200.665 2179.37,199.953 2179.88,199.238 2180.4,198.514 2180.91,197.792 2181.42,196.709 2181.93,195.637 2182.44,194.699 2182.95,193.765 2183.46,192.803 2183.98,191.849 2184.49,191.89 2185,191.924 2185.51,191.394 2186.02,190.866 2186.53,190.095 2187.04,189.321 2187.56,187.794 2188.07,186.278 2188.58,186.256 2189.09,186.226 2189.6,186.42 2190.11,186.604 2190.62,185.962 2191.14,185.328 2191.65,185.202 2192.16,185.072 2192.67,184.223 2193.18,183.378 2193.69,183.534 2194.21,183.684 2194.72,182.913 2195.23,182.144 2195.74,182.59 2196.25,183.03 2196.76,182.572 2197.27,182.111 2197.79,180.838 2198.3,179.576 2198.81,178.826 2199.32,178.079 2199.83,177.917 2200.34,177.752 2200.85,176.907 2201.37,176.07 2201.88,175.263 2202.39,174.458 2202.9,174.092 2203.41,173.721 2203.92,173.248 2204.43,172.774 2204.95,172.457 2205.46,172.136 2205.97,171.288 2206.48,170.445 2206.99,170.209 2207.5,169.97 2208.01,169.74 2208.53,169.503 2209.04,168.733 2209.55,167.961 2210.06,167.685 2210.57,167.404 2211.08,167 2211.59,166.592 2212.11,165.151 2212.62,163.724 2213.13,162.99 2213.64,162.251 2214.15,160.963 2214.66,159.68 2215.17,158.792 2215.69,157.908 2216.2,157.46 2216.71,157.01 2217.22,156.719 2217.73,156.424 2218.24,157.091 2218.75,157.741 2219.27,157.037 2219.78,156.335 2220.29,156.019 2220.8,155.696 2221.31,155.393 2221.82,155.09 2222.34,154.289 2222.85,153.494 2223.36,153.506 2223.87,153.516 2224.38,152.751 2224.89,151.989 2225.4,151.373 2225.92,150.752 2226.43,150.136 2226.94,149.522 2227.45,150.029 2227.96,150.526 2228.47,150.176 2228.98,149.824 2229.5,149.238 2230.01,148.651 2230.52,148.174 2231.03,147.694 2231.54,147.527 2232.05,147.36 2232.56,146.334 2233.08,145.309 2233.59,145.183 2234.1,145.051 2234.61,144.218 2235.12,143.386 2235.63,144.01 2236.14,144.619 2236.66,143.791 2237.17,142.965 2237.68,142.449 2238.19,141.932 2238.7,141.459 2239.21,140.981 2239.72,140.506 2240.24,140.029 2240.75,139.485 2241.26,138.946 2241.77,138.827 2242.28,138.705 2242.79,137.945 2243.3,137.187 2243.82,137.116 2244.33,137.043 2244.84,136.342 2245.35,135.637 2245.86,134.253 2246.37,132.88 2246.88,132.29 2247.4,131.705 2247.91,131.964 2248.42,132.221 2248.93,131.419 2249.44,130.611 2249.95,130.23 2250.47,129.847 2250.98,129.475 2251.49,129.102 2252,128.062 2252.51,127.022 2253.02,125.862 2253.53,124.713 2254.05,123.583 2254.56,122.46 2255.07,122.109 2255.58,121.762 2256.09,122.348 2256.6,122.925 2257.11,123.125 2257.63,123.316 2258.14,122.45 2258.65,121.587 2259.16,120.712 2259.67,119.84 2260.18,119.724 2260.69,119.607 2261.21,119.375 2261.72,119.14 2262.23,118.92 2262.74,118.699 2263.25,118.784 2263.76,118.863 2264.27,117.43 2264.79,116.008 2265.3,114.82 2265.81,113.643 2266.32,112.385 2266.83,111.14 2267.34,110.866 2267.85,110.595 2268.37,109.472 2268.88,108.36 2269.39,107.592 2269.9,106.828 2270.41,106.317 2270.92,105.803 2271.43,105.949 2271.95,106.079 2272.46,105.367 2272.97,104.658 2273.48,103.94 2273.99,103.223 2274.5,102.978 2275.01,102.731 2275.53,103.27 2276.04,103.799 2276.55,103.93 2277.06,104.038 2277.57,104.075 2278.08,104.102 2278.6,104.082 2279.11,104.054 2279.62,102.763 2280.13,101.482 2280.64,101.188 2281.15,100.893 2281.66,100.12 2282.18,99.352 2282.69,98.3432 2283.2,97.3384 2283.71,96.5205 2284.22,95.7044 2284.73,95.8594 2285.24,96.0117 2285.76,95.3978 2286.27,94.7904 2286.78,93.6775 2287.29,92.5759 2287.8,91.5966 2288.31,90.6237 2288.82,90.3739 2289.34,90.1259 2289.85,89.9113 2290.36,89.697 2290.87,88.8332 2291.38,87.9763 "/>
<path clip-path="url(#clip320)" d="M256.476 198.898 L525.763 198.898 L525.763 95.2176 L256.476 95.2176  Z" fill="#ffffff" fill-rule="evenodd" fill-opacity="1"/>
<polyline clip-path="url(#clip320)" style="stroke:#000000; stroke-linecap:round; stroke-linejoin:round; stroke-width:4; stroke-opacity:1; fill:none" points="256.476,198.898 525.763,198.898 525.763,95.2176 256.476,95.2176 256.476,198.898 "/>
<polyline clip-path="url(#clip320)" style="stroke:#009af9; stroke-linecap:round; stroke-linejoin:round; stroke-width:4; stroke-opacity:1; fill:none" points="280.571,147.058 425.142,147.058 "/>
<path clip-path="url(#clip320)" d="M463.08 166.745 Q461.275 171.375 459.562 172.787 Q457.849 174.199 454.978 174.199 L451.575 174.199 L451.575 170.634 L454.075 170.634 Q455.835 170.634 456.807 169.8 Q457.779 168.967 458.96 165.865 L459.724 163.921 L449.238 138.412 L453.751 138.412 L461.853 158.689 L469.955 138.412 L474.469 138.412 L463.08 166.745 Z" fill="#000000" fill-rule="nonzero" fill-opacity="1" /><path clip-path="url(#clip320)" d="M481.761 160.402 L489.399 160.402 L489.399 134.037 L481.089 135.703 L481.089 131.444 L489.353 129.778 L494.029 129.778 L494.029 160.402 L501.668 160.402 L501.668 164.338 L481.761 164.338 L481.761 160.402 Z" fill="#000000" fill-rule="nonzero" fill-opacity="1" /></svg>
