<?xml version="1.0" encoding="utf-8"?>
<svg xmlns="http://www.w3.org/2000/svg" xmlns:xlink="http://www.w3.org/1999/xlink" width="600" height="400" viewBox="0 0 2400 1600">
<defs>
  <clipPath id="clip290">
    <rect x="0" y="0" width="2400" height="1600"/>
  </clipPath>
</defs>
<path clip-path="url(#clip290)" d="M0 1600 L2400 1600 L2400 0 L0 0  Z" fill="#ffffff" fill-rule="evenodd" fill-opacity="1"/>
<defs>
  <clipPath id="clip291">
    <rect x="480" y="0" width="1681" height="1600"/>
  </clipPath>
</defs>
<path clip-path="url(#clip290)" d="M141.853 1486.45 L2352.76 1486.45 L2352.76 47.2441 L141.853 47.2441  Z" fill="#ffffff" fill-rule="evenodd" fill-opacity="1"/>
<defs>
  <clipPath id="clip292">
    <rect x="141" y="47" width="2212" height="1440"/>
  </clipPath>
</defs>
<polyline clip-path="url(#clip292)" style="stroke:#000000; stroke-linecap:round; stroke-linejoin:round; stroke-width:2; stroke-opacity:0.1; fill:none" points="204.426,1486.45 204.426,47.2441 "/>
<polyline clip-path="url(#clip292)" style="stroke:#000000; stroke-linecap:round; stroke-linejoin:round; stroke-width:2; stroke-opacity:0.1; fill:none" points="725.865,1486.45 725.865,47.2441 "/>
<polyline clip-path="url(#clip292)" style="stroke:#000000; stroke-linecap:round; stroke-linejoin:round; stroke-width:2; stroke-opacity:0.1; fill:none" points="1247.3,1486.45 1247.3,47.2441 "/>
<polyline clip-path="url(#clip292)" style="stroke:#000000; stroke-linecap:round; stroke-linejoin:round; stroke-width:2; stroke-opacity:0.1; fill:none" points="1768.74,1486.45 1768.74,47.2441 "/>
<polyline clip-path="url(#clip292)" style="stroke:#000000; stroke-linecap:round; stroke-linejoin:round; stroke-width:2; stroke-opacity:0.1; fill:none" points="2290.18,1486.45 2290.18,47.2441 "/>
<polyline clip-path="url(#clip290)" style="stroke:#000000; stroke-linecap:round; stroke-linejoin:round; stroke-width:4; stroke-opacity:1; fill:none" points="141.853,1486.45 2352.76,1486.45 "/>
<polyline clip-path="url(#clip290)" style="stroke:#000000; stroke-linecap:round; stroke-linejoin:round; stroke-width:4; stroke-opacity:1; fill:none" points="204.426,1486.45 204.426,1467.55 "/>
<polyline clip-path="url(#clip290)" style="stroke:#000000; stroke-linecap:round; stroke-linejoin:round; stroke-width:4; stroke-opacity:1; fill:none" points="725.865,1486.45 725.865,1467.55 "/>
<polyline clip-path="url(#clip290)" style="stroke:#000000; stroke-linecap:round; stroke-linejoin:round; stroke-width:4; stroke-opacity:1; fill:none" points="1247.3,1486.45 1247.3,1467.55 "/>
<polyline clip-path="url(#clip290)" style="stroke:#000000; stroke-linecap:round; stroke-linejoin:round; stroke-width:4; stroke-opacity:1; fill:none" points="1768.74,1486.45 1768.74,1467.55 "/>
<polyline clip-path="url(#clip290)" style="stroke:#000000; stroke-linecap:round; stroke-linejoin:round; stroke-width:4; stroke-opacity:1; fill:none" points="2290.18,1486.45 2290.18,1467.55 "/>
<path clip-path="url(#clip290)" d="M204.426 1517.37 Q200.815 1517.37 198.986 1520.93 Q197.18 1524.47 197.18 1531.6 Q197.18 1538.71 198.986 1542.27 Q200.815 1545.82 204.426 1545.82 Q208.06 1545.82 209.865 1542.27 Q211.694 1538.71 211.694 1531.6 Q211.694 1524.47 209.865 1520.93 Q208.06 1517.37 204.426 1517.37 M204.426 1513.66 Q210.236 1513.66 213.291 1518.27 Q216.37 1522.85 216.37 1531.6 Q216.37 1540.33 213.291 1544.94 Q210.236 1549.52 204.426 1549.52 Q198.616 1549.52 195.537 1544.94 Q192.481 1540.33 192.481 1531.6 Q192.481 1522.85 195.537 1518.27 Q198.616 1513.66 204.426 1513.66 Z" fill="#000000" fill-rule="nonzero" fill-opacity="1" /><path clip-path="url(#clip290)" d="M670.391 1544.91 L678.03 1544.91 L678.03 1518.55 L669.72 1520.21 L669.72 1515.95 L677.983 1514.29 L682.659 1514.29 L682.659 1544.91 L690.298 1544.91 L690.298 1548.85 L670.391 1548.85 L670.391 1544.91 Z" fill="#000000" fill-rule="nonzero" fill-opacity="1" /><path clip-path="url(#clip290)" d="M709.742 1517.37 Q706.131 1517.37 704.303 1520.93 Q702.497 1524.47 702.497 1531.6 Q702.497 1538.71 704.303 1542.27 Q706.131 1545.82 709.742 1545.82 Q713.377 1545.82 715.182 1542.27 Q717.011 1538.71 717.011 1531.6 Q717.011 1524.47 715.182 1520.93 Q713.377 1517.37 709.742 1517.37 M709.742 1513.66 Q715.553 1513.66 718.608 1518.27 Q721.687 1522.85 721.687 1531.6 Q721.687 1540.33 718.608 1544.94 Q715.553 1549.52 709.742 1549.52 Q703.932 1549.52 700.854 1544.94 Q697.798 1540.33 697.798 1531.6 Q697.798 1522.85 700.854 1518.27 Q703.932 1513.66 709.742 1513.66 Z" fill="#000000" fill-rule="nonzero" fill-opacity="1" /><path clip-path="url(#clip290)" d="M739.904 1517.37 Q736.293 1517.37 734.465 1520.93 Q732.659 1524.47 732.659 1531.6 Q732.659 1538.71 734.465 1542.27 Q736.293 1545.82 739.904 1545.82 Q743.539 1545.82 745.344 1542.27 Q747.173 1538.71 747.173 1531.6 Q747.173 1524.47 745.344 1520.93 Q743.539 1517.37 739.904 1517.37 M739.904 1513.66 Q745.714 1513.66 748.77 1518.27 Q751.849 1522.85 751.849 1531.6 Q751.849 1540.33 748.77 1544.94 Q745.714 1549.52 739.904 1549.52 Q734.094 1549.52 731.015 1544.94 Q727.96 1540.33 727.96 1531.6 Q727.96 1522.85 731.015 1518.27 Q734.094 1513.66 739.904 1513.66 Z" fill="#000000" fill-rule="nonzero" fill-opacity="1" /><path clip-path="url(#clip290)" d="M770.066 1517.37 Q766.455 1517.37 764.626 1520.93 Q762.821 1524.47 762.821 1531.6 Q762.821 1538.71 764.626 1542.27 Q766.455 1545.82 770.066 1545.82 Q773.7 1545.82 775.506 1542.27 Q777.335 1538.71 777.335 1531.6 Q777.335 1524.47 775.506 1520.93 Q773.7 1517.37 770.066 1517.37 M770.066 1513.66 Q775.876 1513.66 778.932 1518.27 Q782.011 1522.85 782.011 1531.6 Q782.011 1540.33 778.932 1544.94 Q775.876 1549.52 770.066 1549.52 Q764.256 1549.52 761.177 1544.94 Q758.122 1540.33 758.122 1531.6 Q758.122 1522.85 761.177 1518.27 Q764.256 1513.66 770.066 1513.66 Z" fill="#000000" fill-rule="nonzero" fill-opacity="1" /><path clip-path="url(#clip290)" d="M1195.92 1544.91 L1212.24 1544.91 L1212.24 1548.85 L1190.29 1548.85 L1190.29 1544.91 Q1192.95 1542.16 1197.54 1537.53 Q1202.14 1532.88 1203.32 1531.53 Q1205.57 1529.01 1206.45 1527.27 Q1207.35 1525.51 1207.35 1523.82 Q1207.35 1521.07 1205.41 1519.33 Q1203.49 1517.6 1200.38 1517.6 Q1198.18 1517.6 1195.73 1518.36 Q1193.3 1519.13 1190.52 1520.68 L1190.52 1515.95 Q1193.35 1514.82 1195.8 1514.24 Q1198.25 1513.66 1200.29 1513.66 Q1205.66 1513.66 1208.86 1516.35 Q1212.05 1519.03 1212.05 1523.52 Q1212.05 1525.65 1211.24 1527.57 Q1210.45 1529.47 1208.35 1532.07 Q1207.77 1532.74 1204.67 1535.95 Q1201.56 1539.15 1195.92 1544.91 Z" fill="#000000" fill-rule="nonzero" fill-opacity="1" /><path clip-path="url(#clip290)" d="M1232.05 1517.37 Q1228.44 1517.37 1226.61 1520.93 Q1224.8 1524.47 1224.8 1531.6 Q1224.8 1538.71 1226.61 1542.27 Q1228.44 1545.82 1232.05 1545.82 Q1235.68 1545.82 1237.49 1542.27 Q1239.32 1538.71 1239.32 1531.6 Q1239.32 1524.47 1237.49 1520.93 Q1235.68 1517.37 1232.05 1517.37 M1232.05 1513.66 Q1237.86 1513.66 1240.92 1518.27 Q1243.99 1522.85 1243.99 1531.6 Q1243.99 1540.33 1240.92 1544.94 Q1237.86 1549.52 1232.05 1549.52 Q1226.24 1549.52 1223.16 1544.94 Q1220.11 1540.33 1220.11 1531.6 Q1220.11 1522.85 1223.16 1518.27 Q1226.24 1513.66 1232.05 1513.66 Z" fill="#000000" fill-rule="nonzero" fill-opacity="1" /><path clip-path="url(#clip290)" d="M1262.21 1517.37 Q1258.6 1517.37 1256.77 1520.93 Q1254.97 1524.47 1254.97 1531.6 Q1254.97 1538.71 1256.77 1542.27 Q1258.6 1545.82 1262.21 1545.82 Q1265.85 1545.82 1267.65 1542.27 Q1269.48 1538.71 1269.48 1531.6 Q1269.48 1524.47 1267.65 1520.93 Q1265.85 1517.37 1262.21 1517.37 M1262.21 1513.66 Q1268.02 1513.66 1271.08 1518.27 Q1274.16 1522.85 1274.16 1531.6 Q1274.16 1540.33 1271.08 1544.94 Q1268.02 1549.52 1262.21 1549.52 Q1256.4 1549.52 1253.32 1544.94 Q1250.27 1540.33 1250.27 1531.6 Q1250.27 1522.85 1253.32 1518.27 Q1256.4 1513.66 1262.21 1513.66 Z" fill="#000000" fill-rule="nonzero" fill-opacity="1" /><path clip-path="url(#clip290)" d="M1292.37 1517.37 Q1288.76 1517.37 1286.93 1520.93 Q1285.13 1524.47 1285.13 1531.6 Q1285.13 1538.71 1286.93 1542.27 Q1288.76 1545.82 1292.37 1545.82 Q1296.01 1545.82 1297.81 1542.27 Q1299.64 1538.71 1299.64 1531.6 Q1299.64 1524.47 1297.81 1520.93 Q1296.01 1517.37 1292.37 1517.37 M1292.37 1513.66 Q1298.18 1513.66 1301.24 1518.27 Q1304.32 1522.85 1304.32 1531.6 Q1304.32 1540.33 1301.24 1544.94 Q1298.18 1549.52 1292.37 1549.52 Q1286.56 1549.52 1283.48 1544.94 Q1280.43 1540.33 1280.43 1531.6 Q1280.43 1522.85 1283.48 1518.27 Q1286.56 1513.66 1292.37 1513.66 Z" fill="#000000" fill-rule="nonzero" fill-opacity="1" /><path clip-path="url(#clip290)" d="M1727.42 1530.21 Q1730.78 1530.93 1732.66 1533.2 Q1734.55 1535.47 1734.55 1538.8 Q1734.55 1543.92 1731.04 1546.72 Q1727.52 1549.52 1721.04 1549.52 Q1718.86 1549.52 1716.55 1549.08 Q1714.25 1548.66 1711.8 1547.81 L1711.8 1543.29 Q1713.74 1544.43 1716.06 1545.01 Q1718.37 1545.58 1720.9 1545.58 Q1725.29 1545.58 1727.59 1543.85 Q1729.9 1542.11 1729.9 1538.8 Q1729.9 1535.75 1727.75 1534.03 Q1725.62 1532.3 1721.8 1532.3 L1717.77 1532.3 L1717.77 1528.45 L1721.98 1528.45 Q1725.43 1528.45 1727.26 1527.09 Q1729.09 1525.7 1729.09 1523.11 Q1729.09 1520.45 1727.19 1519.03 Q1725.32 1517.6 1721.8 1517.6 Q1719.88 1517.6 1717.68 1518.01 Q1715.48 1518.43 1712.84 1519.31 L1712.84 1515.14 Q1715.5 1514.4 1717.82 1514.03 Q1720.16 1513.66 1722.22 1513.66 Q1727.54 1513.66 1730.64 1516.09 Q1733.74 1518.5 1733.74 1522.62 Q1733.74 1525.49 1732.1 1527.48 Q1730.46 1529.45 1727.42 1530.21 Z" fill="#000000" fill-rule="nonzero" fill-opacity="1" /><path clip-path="url(#clip290)" d="M1753.42 1517.37 Q1749.81 1517.37 1747.98 1520.93 Q1746.17 1524.47 1746.17 1531.6 Q1746.17 1538.71 1747.98 1542.27 Q1749.81 1545.82 1753.42 1545.82 Q1757.05 1545.82 1758.86 1542.27 Q1760.69 1538.71 1760.69 1531.6 Q1760.69 1524.47 1758.86 1520.93 Q1757.05 1517.37 1753.42 1517.37 M1753.42 1513.66 Q1759.23 1513.66 1762.29 1518.27 Q1765.36 1522.85 1765.36 1531.6 Q1765.36 1540.33 1762.29 1544.94 Q1759.23 1549.52 1753.42 1549.52 Q1747.61 1549.52 1744.53 1544.94 Q1741.48 1540.33 1741.48 1531.6 Q1741.48 1522.85 1744.53 1518.27 Q1747.61 1513.66 1753.42 1513.66 Z" fill="#000000" fill-rule="nonzero" fill-opacity="1" /><path clip-path="url(#clip290)" d="M1783.58 1517.37 Q1779.97 1517.37 1778.14 1520.93 Q1776.34 1524.47 1776.34 1531.6 Q1776.34 1538.71 1778.14 1542.27 Q1779.97 1545.82 1783.58 1545.82 Q1787.22 1545.82 1789.02 1542.27 Q1790.85 1538.71 1790.85 1531.6 Q1790.85 1524.47 1789.02 1520.93 Q1787.22 1517.37 1783.58 1517.37 M1783.58 1513.66 Q1789.39 1513.66 1792.45 1518.27 Q1795.53 1522.85 1795.53 1531.6 Q1795.53 1540.33 1792.45 1544.94 Q1789.39 1549.52 1783.58 1549.52 Q1777.77 1549.52 1774.69 1544.94 Q1771.64 1540.33 1771.64 1531.6 Q1771.64 1522.85 1774.69 1518.27 Q1777.77 1513.66 1783.58 1513.66 Z" fill="#000000" fill-rule="nonzero" fill-opacity="1" /><path clip-path="url(#clip290)" d="M1813.74 1517.37 Q1810.13 1517.37 1808.3 1520.93 Q1806.5 1524.47 1806.5 1531.6 Q1806.5 1538.71 1808.3 1542.27 Q1810.13 1545.82 1813.74 1545.82 Q1817.38 1545.82 1819.18 1542.27 Q1821.01 1538.71 1821.01 1531.6 Q1821.01 1524.47 1819.18 1520.93 Q1817.38 1517.37 1813.74 1517.37 M1813.74 1513.66 Q1819.55 1513.66 1822.61 1518.27 Q1825.69 1522.85 1825.69 1531.6 Q1825.69 1540.33 1822.61 1544.94 Q1819.55 1549.52 1813.74 1549.52 Q1807.93 1549.52 1804.85 1544.94 Q1801.8 1540.33 1801.8 1531.6 Q1801.8 1522.85 1804.85 1518.27 Q1807.93 1513.66 1813.74 1513.66 Z" fill="#000000" fill-rule="nonzero" fill-opacity="1" /><path clip-path="url(#clip290)" d="M2248.19 1518.36 L2236.39 1536.81 L2248.19 1536.81 L2248.19 1518.36 M2246.97 1514.29 L2252.85 1514.29 L2252.85 1536.81 L2257.78 1536.81 L2257.78 1540.7 L2252.85 1540.7 L2252.85 1548.85 L2248.19 1548.85 L2248.19 1540.7 L2232.59 1540.7 L2232.59 1536.19 L2246.97 1514.29 Z" fill="#000000" fill-rule="nonzero" fill-opacity="1" /><path clip-path="url(#clip290)" d="M2275.51 1517.37 Q2271.9 1517.37 2270.07 1520.93 Q2268.26 1524.47 2268.26 1531.6 Q2268.26 1538.71 2270.07 1542.27 Q2271.9 1545.82 2275.51 1545.82 Q2279.14 1545.82 2280.95 1542.27 Q2282.78 1538.71 2282.78 1531.6 Q2282.78 1524.47 2280.95 1520.93 Q2279.14 1517.37 2275.51 1517.37 M2275.51 1513.66 Q2281.32 1513.66 2284.37 1518.27 Q2287.45 1522.85 2287.45 1531.6 Q2287.45 1540.33 2284.37 1544.94 Q2281.32 1549.52 2275.51 1549.52 Q2269.7 1549.52 2266.62 1544.94 Q2263.56 1540.33 2263.56 1531.6 Q2263.56 1522.85 2266.62 1518.27 Q2269.7 1513.66 2275.51 1513.66 Z" fill="#000000" fill-rule="nonzero" fill-opacity="1" /><path clip-path="url(#clip290)" d="M2305.67 1517.37 Q2302.06 1517.37 2300.23 1520.93 Q2298.42 1524.47 2298.42 1531.6 Q2298.42 1538.71 2300.23 1542.27 Q2302.06 1545.82 2305.67 1545.82 Q2309.3 1545.82 2311.11 1542.27 Q2312.94 1538.71 2312.94 1531.6 Q2312.94 1524.47 2311.11 1520.93 Q2309.3 1517.37 2305.67 1517.37 M2305.67 1513.66 Q2311.48 1513.66 2314.53 1518.27 Q2317.61 1522.85 2317.61 1531.6 Q2317.61 1540.33 2314.53 1544.94 Q2311.48 1549.52 2305.67 1549.52 Q2299.86 1549.52 2296.78 1544.94 Q2293.72 1540.33 2293.72 1531.6 Q2293.72 1522.85 2296.78 1518.27 Q2299.86 1513.66 2305.67 1513.66 Z" fill="#000000" fill-rule="nonzero" fill-opacity="1" /><path clip-path="url(#clip290)" d="M2335.83 1517.37 Q2332.22 1517.37 2330.39 1520.93 Q2328.59 1524.47 2328.59 1531.6 Q2328.59 1538.71 2330.39 1542.27 Q2332.22 1545.82 2335.83 1545.82 Q2339.47 1545.82 2341.27 1542.27 Q2343.1 1538.71 2343.1 1531.6 Q2343.1 1524.47 2341.27 1520.93 Q2339.47 1517.37 2335.83 1517.37 M2335.83 1513.66 Q2341.64 1513.66 2344.7 1518.27 Q2347.78 1522.85 2347.78 1531.6 Q2347.78 1540.33 2344.7 1544.94 Q2341.64 1549.52 2335.83 1549.52 Q2330.02 1549.52 2326.94 1544.94 Q2323.89 1540.33 2323.89 1531.6 Q2323.89 1522.85 2326.94 1518.27 Q2330.02 1513.66 2335.83 1513.66 Z" fill="#000000" fill-rule="nonzero" fill-opacity="1" /><polyline clip-path="url(#clip292)" style="stroke:#000000; stroke-linecap:round; stroke-linejoin:round; stroke-width:2; stroke-opacity:0.1; fill:none" points="141.853,1323.4 2352.76,1323.4 "/>
<polyline clip-path="url(#clip292)" style="stroke:#000000; stroke-linecap:round; stroke-linejoin:round; stroke-width:2; stroke-opacity:0.1; fill:none" points="141.853,1088.86 2352.76,1088.86 "/>
<polyline clip-path="url(#clip292)" style="stroke:#000000; stroke-linecap:round; stroke-linejoin:round; stroke-width:2; stroke-opacity:0.1; fill:none" points="141.853,854.32 2352.76,854.32 "/>
<polyline clip-path="url(#clip292)" style="stroke:#000000; stroke-linecap:round; stroke-linejoin:round; stroke-width:2; stroke-opacity:0.1; fill:none" points="141.853,619.783 2352.76,619.783 "/>
<polyline clip-path="url(#clip292)" style="stroke:#000000; stroke-linecap:round; stroke-linejoin:round; stroke-width:2; stroke-opacity:0.1; fill:none" points="141.853,385.245 2352.76,385.245 "/>
<polyline clip-path="url(#clip292)" style="stroke:#000000; stroke-linecap:round; stroke-linejoin:round; stroke-width:2; stroke-opacity:0.1; fill:none" points="141.853,150.708 2352.76,150.708 "/>
<polyline clip-path="url(#clip290)" style="stroke:#000000; stroke-linecap:round; stroke-linejoin:round; stroke-width:4; stroke-opacity:1; fill:none" points="141.853,1486.45 141.853,47.2441 "/>
<polyline clip-path="url(#clip290)" style="stroke:#000000; stroke-linecap:round; stroke-linejoin:round; stroke-width:4; stroke-opacity:1; fill:none" points="141.853,1323.4 160.751,1323.4 "/>
<polyline clip-path="url(#clip290)" style="stroke:#000000; stroke-linecap:round; stroke-linejoin:round; stroke-width:4; stroke-opacity:1; fill:none" points="141.853,1088.86 160.751,1088.86 "/>
<polyline clip-path="url(#clip290)" style="stroke:#000000; stroke-linecap:round; stroke-linejoin:round; stroke-width:4; stroke-opacity:1; fill:none" points="141.853,854.32 160.751,854.32 "/>
<polyline clip-path="url(#clip290)" style="stroke:#000000; stroke-linecap:round; stroke-linejoin:round; stroke-width:4; stroke-opacity:1; fill:none" points="141.853,619.783 160.751,619.783 "/>
<polyline clip-path="url(#clip290)" style="stroke:#000000; stroke-linecap:round; stroke-linejoin:round; stroke-width:4; stroke-opacity:1; fill:none" points="141.853,385.245 160.751,385.245 "/>
<polyline clip-path="url(#clip290)" style="stroke:#000000; stroke-linecap:round; stroke-linejoin:round; stroke-width:4; stroke-opacity:1; fill:none" points="141.853,150.708 160.751,150.708 "/>
<path clip-path="url(#clip290)" d="M54.5569 1336.74 L62.1958 1336.74 L62.1958 1310.37 L53.8856 1312.04 L53.8856 1307.78 L62.1495 1306.12 L66.8254 1306.12 L66.8254 1336.74 L74.4642 1336.74 L74.4642 1340.68 L54.5569 1340.68 L54.5569 1336.74 Z" fill="#000000" fill-rule="nonzero" fill-opacity="1" /><path clip-path="url(#clip290)" d="M93.9086 1309.19 Q90.2975 1309.19 88.4688 1312.76 Q86.6632 1316.3 86.6632 1323.43 Q86.6632 1330.54 88.4688 1334.1 Q90.2975 1337.64 93.9086 1337.64 Q97.5428 1337.64 99.3483 1334.1 Q101.177 1330.54 101.177 1323.43 Q101.177 1316.3 99.3483 1312.76 Q97.5428 1309.19 93.9086 1309.19 M93.9086 1305.49 Q99.7187 1305.49 102.774 1310.1 Q105.853 1314.68 105.853 1323.43 Q105.853 1332.16 102.774 1336.76 Q99.7187 1341.35 93.9086 1341.35 Q88.0984 1341.35 85.0197 1336.76 Q81.9642 1332.16 81.9642 1323.43 Q81.9642 1314.68 85.0197 1310.1 Q88.0984 1305.49 93.9086 1305.49 Z" fill="#000000" fill-rule="nonzero" fill-opacity="1" /><path clip-path="url(#clip290)" d="M57.7745 1102.2 L74.0939 1102.2 L74.0939 1106.14 L52.1495 1106.14 L52.1495 1102.2 Q54.8115 1099.45 59.3949 1094.82 Q64.0013 1090.17 65.1819 1088.82 Q67.4272 1086.3 68.3068 1084.56 Q69.2096 1082.8 69.2096 1081.11 Q69.2096 1078.36 67.2652 1076.62 Q65.3439 1074.89 62.2421 1074.89 Q60.043 1074.89 57.5893 1075.65 Q55.1588 1076.42 52.381 1077.97 L52.381 1073.24 Q55.2051 1072.11 57.6588 1071.53 Q60.1124 1070.95 62.1495 1070.95 Q67.5198 1070.95 70.7142 1073.64 Q73.9087 1076.32 73.9087 1080.81 Q73.9087 1082.94 73.0985 1084.86 Q72.3115 1086.76 70.205 1089.36 Q69.6263 1090.03 66.5245 1093.24 Q63.4226 1096.44 57.7745 1102.2 Z" fill="#000000" fill-rule="nonzero" fill-opacity="1" /><path clip-path="url(#clip290)" d="M93.9086 1074.66 Q90.2975 1074.66 88.4688 1078.22 Q86.6632 1081.76 86.6632 1088.89 Q86.6632 1096 88.4688 1099.56 Q90.2975 1103.11 93.9086 1103.11 Q97.5428 1103.11 99.3483 1099.56 Q101.177 1096 101.177 1088.89 Q101.177 1081.76 99.3483 1078.22 Q97.5428 1074.66 93.9086 1074.66 M93.9086 1070.95 Q99.7187 1070.95 102.774 1075.56 Q105.853 1080.14 105.853 1088.89 Q105.853 1097.62 102.774 1102.23 Q99.7187 1106.81 93.9086 1106.81 Q88.0984 1106.81 85.0197 1102.23 Q81.9642 1097.62 81.9642 1088.89 Q81.9642 1080.14 85.0197 1075.56 Q88.0984 1070.95 93.9086 1070.95 Z" fill="#000000" fill-rule="nonzero" fill-opacity="1" /><path clip-path="url(#clip290)" d="M67.9133 852.966 Q71.2698 853.684 73.1448 855.952 Q75.0429 858.221 75.0429 861.554 Q75.0429 866.67 71.5244 869.471 Q68.0059 872.271 61.5245 872.271 Q59.3486 872.271 57.0338 871.832 Q54.7421 871.415 52.2884 870.558 L52.2884 866.045 Q54.2328 867.179 56.5477 867.758 Q58.8625 868.336 61.3856 868.336 Q65.7837 868.336 68.0754 866.6 Q70.3902 864.864 70.3902 861.554 Q70.3902 858.498 68.2374 856.785 Q66.1078 855.049 62.2884 855.049 L58.2606 855.049 L58.2606 851.207 L62.4735 851.207 Q65.9226 851.207 67.7513 849.841 Q69.58 848.452 69.58 845.86 Q69.58 843.198 67.6819 841.785 Q65.8069 840.35 62.2884 840.35 Q60.3671 840.35 58.168 840.767 Q55.969 841.184 53.3301 842.063 L53.3301 837.897 Q55.9921 837.156 58.3069 836.786 Q60.6449 836.415 62.705 836.415 Q68.0291 836.415 71.1309 838.846 Q74.2327 841.253 74.2327 845.373 Q74.2327 848.244 72.5892 850.235 Q70.9457 852.202 67.9133 852.966 Z" fill="#000000" fill-rule="nonzero" fill-opacity="1" /><path clip-path="url(#clip290)" d="M93.9086 840.119 Q90.2975 840.119 88.4688 843.684 Q86.6632 847.225 86.6632 854.355 Q86.6632 861.461 88.4688 865.026 Q90.2975 868.568 93.9086 868.568 Q97.5428 868.568 99.3483 865.026 Q101.177 861.461 101.177 854.355 Q101.177 847.225 99.3483 843.684 Q97.5428 840.119 93.9086 840.119 M93.9086 836.415 Q99.7187 836.415 102.774 841.022 Q105.853 845.605 105.853 854.355 Q105.853 863.082 102.774 867.688 Q99.7187 872.271 93.9086 872.271 Q88.0984 872.271 85.0197 867.688 Q81.9642 863.082 81.9642 854.355 Q81.9642 845.605 85.0197 841.022 Q88.0984 836.415 93.9086 836.415 Z" fill="#000000" fill-rule="nonzero" fill-opacity="1" /><path clip-path="url(#clip290)" d="M66.5939 606.577 L54.7884 625.026 L66.5939 625.026 L66.5939 606.577 M65.367 602.503 L71.2466 602.503 L71.2466 625.026 L76.1772 625.026 L76.1772 628.915 L71.2466 628.915 L71.2466 637.063 L66.5939 637.063 L66.5939 628.915 L50.9921 628.915 L50.9921 624.401 L65.367 602.503 Z" fill="#000000" fill-rule="nonzero" fill-opacity="1" /><path clip-path="url(#clip290)" d="M93.9086 605.581 Q90.2975 605.581 88.4688 609.146 Q86.6632 612.688 86.6632 619.817 Q86.6632 626.924 88.4688 630.489 Q90.2975 634.03 93.9086 634.03 Q97.5428 634.03 99.3483 630.489 Q101.177 626.924 101.177 619.817 Q101.177 612.688 99.3483 609.146 Q97.5428 605.581 93.9086 605.581 M93.9086 601.878 Q99.7187 601.878 102.774 606.484 Q105.853 611.067 105.853 619.817 Q105.853 628.544 102.774 633.151 Q99.7187 637.734 93.9086 637.734 Q88.0984 637.734 85.0197 633.151 Q81.9642 628.544 81.9642 619.817 Q81.9642 611.067 85.0197 606.484 Q88.0984 601.878 93.9086 601.878 Z" fill="#000000" fill-rule="nonzero" fill-opacity="1" /><path clip-path="url(#clip290)" d="M53.793 367.965 L72.1494 367.965 L72.1494 371.9 L58.0754 371.9 L58.0754 380.373 Q59.0939 380.025 60.1124 379.863 Q61.131 379.678 62.1495 379.678 Q67.9365 379.678 71.3161 382.849 Q74.6957 386.021 74.6957 391.437 Q74.6957 397.016 71.2235 400.118 Q67.7513 403.197 61.4319 403.197 Q59.256 403.197 56.9875 402.826 Q54.7421 402.456 52.3347 401.715 L52.3347 397.016 Q54.418 398.15 56.6402 398.706 Q58.8625 399.261 61.3393 399.261 Q65.3439 399.261 67.6819 397.155 Q70.0198 395.048 70.0198 391.437 Q70.0198 387.826 67.6819 385.72 Q65.3439 383.613 61.3393 383.613 Q59.4643 383.613 57.5893 384.03 Q55.7375 384.447 53.793 385.326 L53.793 367.965 Z" fill="#000000" fill-rule="nonzero" fill-opacity="1" /><path clip-path="url(#clip290)" d="M93.9086 371.044 Q90.2975 371.044 88.4688 374.609 Q86.6632 378.15 86.6632 385.28 Q86.6632 392.386 88.4688 395.951 Q90.2975 399.493 93.9086 399.493 Q97.5428 399.493 99.3483 395.951 Q101.177 392.386 101.177 385.28 Q101.177 378.15 99.3483 374.609 Q97.5428 371.044 93.9086 371.044 M93.9086 367.34 Q99.7187 367.34 102.774 371.947 Q105.853 376.53 105.853 385.28 Q105.853 394.007 102.774 398.613 Q99.7187 403.197 93.9086 403.197 Q88.0984 403.197 85.0197 398.613 Q81.9642 394.007 81.9642 385.28 Q81.9642 376.53 85.0197 371.947 Q88.0984 367.34 93.9086 367.34 Z" fill="#000000" fill-rule="nonzero" fill-opacity="1" /><path clip-path="url(#clip290)" d="M64.3254 148.844 Q61.1773 148.844 59.3254 150.997 Q57.4967 153.15 57.4967 156.9 Q57.4967 160.627 59.3254 162.803 Q61.1773 164.955 64.3254 164.955 Q67.4735 164.955 69.3022 162.803 Q71.1541 160.627 71.1541 156.9 Q71.1541 153.15 69.3022 150.997 Q67.4735 148.844 64.3254 148.844 M73.6077 134.192 L73.6077 138.451 Q71.8485 137.618 70.0429 137.178 Q68.2606 136.738 66.5013 136.738 Q61.8717 136.738 59.418 139.863 Q56.9875 142.988 56.6402 149.307 Q58.006 147.293 60.0662 146.229 Q62.1263 145.141 64.6032 145.141 Q69.8115 145.141 72.8207 148.312 Q75.8531 151.46 75.8531 156.9 Q75.8531 162.224 72.705 165.442 Q69.5568 168.659 64.3254 168.659 Q58.33 168.659 55.1588 164.076 Q51.9875 159.469 51.9875 150.743 Q51.9875 142.548 55.8764 137.687 Q59.7652 132.803 66.3161 132.803 Q68.0754 132.803 69.8578 133.15 Q71.6633 133.497 73.6077 134.192 Z" fill="#000000" fill-rule="nonzero" fill-opacity="1" /><path clip-path="url(#clip290)" d="M93.9086 136.506 Q90.2975 136.506 88.4688 140.071 Q86.6632 143.613 86.6632 150.743 Q86.6632 157.849 88.4688 161.414 Q90.2975 164.955 93.9086 164.955 Q97.5428 164.955 99.3483 161.414 Q101.177 157.849 101.177 150.743 Q101.177 143.613 99.3483 140.071 Q97.5428 136.506 93.9086 136.506 M93.9086 132.803 Q99.7187 132.803 102.774 137.409 Q105.853 141.993 105.853 150.743 Q105.853 159.469 102.774 164.076 Q99.7187 168.659 93.9086 168.659 Q88.0984 168.659 85.0197 164.076 Q81.9642 159.469 81.9642 150.743 Q81.9642 141.993 85.0197 137.409 Q88.0984 132.803 93.9086 132.803 Z" fill="#000000" fill-rule="nonzero" fill-opacity="1" /><polyline clip-path="url(#clip292)" style="stroke:#009af9; stroke-linecap:round; stroke-linejoin:round; stroke-width:4; stroke-opacity:1; fill:none" points="204.426,1408.4 204.947,1408.5 205.469,1408.58 205.99,1408.66 206.511,1336.95 207.033,1337.17 207.554,1342 208.076,1342.17 208.597,1445.66 209.119,1445.72 209.64,1402.37 210.162,1402.49 210.683,1279.58 211.204,1279.76 211.726,1421.55 212.247,1421.61 212.769,1347.25 213.29,1347.4 213.812,1422.12 214.333,1422.19 214.854,1289.71 215.376,1289.89 215.897,1396.39 216.419,1396.46 216.94,1393.65 217.462,1393.76 217.983,1371.47 218.505,1371.58 219.026,1400.51 219.547,1400.6 220.069,1335.94 220.59,1336.07 221.112,1302.47 221.633,1302.63 222.155,1388.44 222.676,1388.52 223.197,1345.72 223.719,1345.8 224.24,1356.66 224.762,1356.79 225.283,1310.17 225.805,1310.37 226.326,1373.3 226.848,1373.39 227.369,1347.56 227.89,1347.73 228.412,1285.14 228.933,1285.38 229.455,1394.81 229.976,1394.9 230.498,1343.66 231.019,1343.8 231.541,1319.58 232.062,1319.74 232.583,1300.72 233.105,1300.9 233.626,1303.18 234.148,1303.36 234.669,1302.55 235.191,1302.73 235.712,1342 236.233,1342.14 236.755,1375.82 237.276,1375.93 237.798,1346.34 238.319,1346.48 238.841,1265.77 239.362,1265.92 239.884,1346.94 240.405,1347.06 240.926,1333.93 241.448,1334.06 241.969,1368.69 242.491,1368.77 243.012,1227.52 243.534,1227.73 244.055,1336.6 244.577,1336.73 245.098,1301.57 245.619,1301.73 246.141,1326.68 246.662,1326.81 247.184,1346.15 247.705,1346.26 248.227,1350.52 248.748,1350.63 249.269,1361.24 249.791,1361.32 250.312,1307.29 250.834,1307.45 251.355,1323.35 251.877,1323.46 252.398,1314.43 252.92,1314.55 253.441,1315.03 253.962,1315.17 254.484,1349.56 255.005,1349.65 255.527,1249.01 256.048,1249.21 256.57,1307.65 257.091,1307.75 257.612,1292.13 258.134,1292.24 258.655,1313.5 259.177,1313.65 259.698,1303.59 260.22,1303.7 260.741,1209.57 261.263,1209.77 261.784,1337.9 262.305,1338 262.827,1247.71 263.348,1247.89 263.87,1320.5 264.391,1320.63 264.913,1307.39 265.434,1307.48 265.956,1309.12 266.477,1309.22 266.998,1213.26 267.52,1213.48 268.041,1340.77 268.563,1340.85 269.084,1320.83 269.606,1320.96 270.127,1300.63 270.648,1300.78 271.17,1215.67 271.691,1215.89 272.213,1308.13 272.734,1308.25 273.256,1360.33 273.777,1360.41 274.299,1269.64 274.82,1269.78 275.341,1259.76 275.863,1259.93 276.384,1292.77 276.906,1292.9 277.427,1260.77 277.949,1260.98 278.47,1251.21 278.991,1251.38 279.513,1326.9 280.034,1327 280.556,1251.88 281.077,1252.01 281.599,1256.61 282.12,1256.77 282.642,1254.27 283.163,1254.43 283.684,1274.68 284.206,1274.83 284.727,1264.5 285.249,1264.67 285.77,1222.73 286.292,1222.94 286.813,1260.05 287.335,1260.2 287.856,1225.23 288.377,1225.4 288.899,1238.64 289.42,1238.81 289.942,1226.83 290.463,1226.96 290.985,1222.73 291.506,1222.86 292.027,1263.27 292.549,1263.4 293.07,1337.92 293.592,1337.98 294.113,1204 294.635,1204.19 295.156,1277.51 295.678,1277.61 296.199,1289.33 296.72,1289.45 297.242,1314.71 297.763,1314.83 298.285,1310.67 298.806,1310.78 299.328,1207.54 299.849,1207.74 300.371,1192.79 300.892,1192.96 301.413,1272.22 301.935,1272.36 302.456,1234.54 302.978,1234.68 303.499,1201.34 304.021,1201.48 304.542,1173.14 305.063,1173.33 305.585,1238.4 306.106,1238.56 306.628,1236.56 307.149,1236.7 307.671,1229.03 308.192,1229.2 308.714,1258.68 309.235,1258.83 309.756,1106.54 310.278,1106.77 310.799,1189.69 311.321,1189.87 311.842,1291.49 312.364,1291.57 312.885,1197.23 313.406,1197.42 313.928,1286.97 314.449,1287.05 314.971,1218.27 315.492,1218.43 316.014,1258.67 316.535,1258.77 317.057,1225.74 317.578,1225.89 318.099,1245.81 318.621,1245.94 319.142,1171.22 319.664,1171.43 320.185,1228.64 320.707,1228.79 321.228,1289.15 321.75,1289.26 322.271,1251.77 322.792,1251.88 323.314,1251.55 323.835,1251.68 324.357,1219.29 324.878,1219.42 325.4,1273.79 325.921,1273.9 326.442,1155.96 326.964,1156.16 327.485,1215.98 328.007,1216.12 328.528,1185.19 329.05,1185.34 329.571,1248.26 330.093,1248.41 330.614,1230.3 331.135,1230.43 331.657,1299.96 332.178,1300.03 332.7,1199.19 333.221,1199.37 333.743,1208.28 334.264,1208.45 334.786,1236.15 335.307,1236.26 335.828,1230.22 336.35,1230.34 336.871,1248.33 337.393,1248.43 337.914,1094.44 338.436,1094.65 338.957,1128.5 339.478,1128.67 340,1259.52 340.521,1259.63 341.043,1221.45 341.564,1221.56 342.086,1186.05 342.607,1186.21 343.129,1161.03 343.65,1161.19 344.171,1258.4 344.693,1258.49 345.214,1166.14 345.736,1166.3 346.257,1208.57 346.779,1208.72 347.3,1171.13 347.821,1171.26 348.343,1187.9 348.864,1188.01 349.386,1234.78 349.907,1234.88 350.429,1198.88 350.95,1199.03 351.472,1254.01 351.993,1254.13 352.514,1189.94 353.036,1190.05 353.557,1227.65 354.079,1227.74 354.6,1175.89 355.122,1176.05 355.643,1207 356.165,1207.12 356.686,1188.65 357.207,1188.76 357.729,1204.76 358.25,1204.87 358.772,1198.59 359.293,1198.66 359.815,1150.17 360.336,1150.33 360.857,1181.24 361.379,1181.35 361.9,1202.98 362.422,1203.12 362.943,1151.94 363.465,1152.08 363.986,1169.37 364.508,1169.51 365.029,1173.49 365.55,1173.63 366.072,1125.1 366.593,1125.29 367.115,1178.93 367.636,1179.06 368.158,1212.72 368.679,1212.85 369.201,1137.25 369.722,1137.4 370.243,1190.3 370.765,1190.43 371.286,1142.77 371.808,1142.92 372.329,1217.04 372.851,1217.12 373.372,1189 373.893,1189.16 374.415,1183.43 374.936,1183.53 375.458,1195.01 375.979,1195.15 376.501,1119.97 377.022,1120.13 377.544,1194.94 378.065,1195.07 378.586,1177.05 379.108,1177.16 379.629,1203.5 380.151,1203.57 380.672,1099.91 381.194,1100.04 381.715,1153.29 382.236,1153.4 382.758,1159.52 383.279,1159.63 383.801,1226.22 384.322,1226.29 384.844,1160.36 385.365,1160.49 385.887,1149.65 386.408,1149.78 386.929,1142.78 387.451,1142.95 387.972,1150.46 388.494,1150.6 389.015,1127.62 389.537,1127.77 390.058,1286.11 390.58,1286.15 391.101,1134.55 391.622,1134.7 392.144,1112.73 392.665,1112.9 393.187,1162.34 393.708,1162.49 394.23,1155.84 394.751,1155.98 395.272,1170.12 395.794,1170.24 396.315,1174.78 396.837,1174.93 397.358,1196.02 397.88,1196.12 398.401,1164.76 398.923,1164.87 399.444,1116.65 399.965,1116.81 400.487,1193.33 401.008,1193.44 401.53,1147.09 402.051,1147.21 402.573,1156.85 403.094,1156.96 403.616,1122.62 404.137,1122.73 404.658,1066.52 405.18,1066.62 405.701,1172.39 406.223,1172.5 406.744,1173.3 407.266,1173.39 407.787,1158.34 408.308,1158.46 408.83,1157.96 409.351,1158.07 409.873,1175.53 410.394,1175.66 410.916,1173.7 411.437,1173.81 411.959,1156.35 412.48,1156.44 413.001,1194.47 413.523,1194.58 414.044,1148.85 414.566,1148.94 415.087,1164.12 415.609,1164.23 416.13,1120.3 416.651,1120.41 417.173,1200.58 417.694,1200.66 418.216,1154.77 418.737,1154.87 419.259,1182.2 419.78,1182.28 420.302,1123.36 420.823,1123.5 421.344,1089.97 421.866,1090.21 422.387,1159.73 422.909,1159.85 423.43,1135.43 423.952,1135.56 424.473,1197.39 424.995,1197.47 425.516,1196.1 426.037,1196.17 426.559,990.1 427.08,990.311 427.602,1085.02 428.123,1085.18 428.645,1144.97 429.166,1145.09 429.687,1129.87 430.209,1130.05 430.73,1120.72 431.252,1120.87 431.773,1179.72 432.295,1179.8 432.816,1076.23 433.338,1076.4 433.859,1139.96 434.38,1140.07 434.902,1100.74 435.423,1100.86 435.945,1198.83 436.466,1198.91 436.988,1088.06 437.509,1088.17 438.031,1159.16 438.552,1159.24 439.073,1062.58 439.595,1062.69 440.116,1095.97 440.638,1096.15 441.159,1120.59 441.681,1120.67 442.202,1048.06 442.723,1048.2 443.245,1146.37 443.766,1146.45 444.288,1149.01 444.809,1149.13 445.331,1219.78 445.852,1219.86 446.374,1196.99 446.895,1197.1 447.416,1121.86 447.938,1121.98 448.459,1124.36 448.981,1124.46 449.502,1157.75 450.024,1157.82 450.545,1108.44 451.066,1108.54 451.588,1121.21 452.109,1121.32 452.631,1153.08 453.152,1153.15 453.674,1033.92 454.195,1034.07 454.717,1036.65 455.238,1036.8 455.759,1191.98 456.281,1192.08 456.802,1149.9 457.324,1149.97 457.845,1147.18 458.367,1147.25 458.888,947.567 459.41,947.703 459.931,1092.91 460.452,1093.02 460.974,1139.71 461.495,1139.79 462.017,1147.17 462.538,1147.27 463.06,1131.67 463.581,1131.79 464.102,1147.48 464.624,1147.56 465.145,1163.04 465.667,1163.15 466.188,1184.41 466.71,1184.47 467.231,1113.38 467.753,1113.47 468.274,1029.92 468.795,1030.05 469.317,1135.26 469.838,1135.37 470.36,1169.04 470.881,1169.08 471.403,1112.35 471.924,1112.43 472.446,1217.18 472.967,1217.27 473.488,1131.46 474.01,1131.57 474.531,1071.88 475.053,1071.97 475.574,1160.08 476.096,1160.2 476.617,1112.48 477.138,1112.59 477.66,1218.12 478.181,1218.19 478.703,1109.3 479.224,1109.38 479.746,1101.85 480.267,1101.94 480.789,1158.88 481.31,1159 481.831,1105.23 482.353,1105.35 482.874,1153.85 483.396,1153.94 483.917,1182.64 484.439,1182.7 484.96,1099.09 485.481,1099.17 486.003,1063.28 486.524,1063.34 487.046,1119.42 487.567,1119.49 488.089,1052.83 488.61,1052.99 489.132,1110.88 489.653,1111.01 490.174,1054.65 490.696,1054.87 491.217,1102.73 491.739,1102.79 492.26,1059.6 492.782,1059.71 493.303,1107.95 493.825,1108.03 494.346,1056.43 494.867,1056.6 495.389,1112.08 495.91,1112.15 496.432,1112.8 496.953,1112.88 497.475,1063.1 497.996,1063.24 498.517,1146.3 499.039,1146.36 499.56,1051.25 500.082,1051.34 500.603,1083.75 501.125,1083.87 501.646,1031.25 502.168,1031.34 502.689,1074.5 503.21,1074.62 503.732,1198.76 504.253,1198.83 504.775,1163.92 505.296,1164.04 505.818,1043.76 506.339,1043.87 506.861,1154.18 507.382,1154.27 507.903,1120.37 508.425,1120.46 508.946,1088.53 509.468,1088.62 509.989,1051.97 510.511,1052.13 511.032,1079.13 511.553,1079.26 512.075,1047.2 512.596,1047.31 513.118,1108.4 513.639,1108.47 514.161,1022.84 514.682,1022.95 515.204,1140.08 515.725,1140.16 516.246,1102.53 516.768,1102.61 517.289,1112.17 517.811,1112.3 518.332,1096.03 518.854,1096.15 519.375,1044.77 519.896,1044.86 520.418,1129.78 520.939,1129.85 521.461,1064.4 521.982,1064.49 522.504,1105.3 523.025,1105.4 523.547,1042.44 524.068,1042.55 524.589,1105.7 525.111,1105.77 525.632,1066.46 526.154,1066.57 526.675,1111.4 527.197,1111.55 527.718,1064.48 528.24,1064.58 528.761,1102.51 529.282,1102.61 529.804,1069.91 530.325,1070.01 530.847,1158.14 531.368,1158.24 531.89,1017.19 532.411,1017.34 532.932,1124.95 533.454,1125.05 533.975,1121.89 534.497,1121.98 535.018,1095.68 535.54,1095.81 536.061,1132.52 536.583,1132.62 537.104,997.158 537.625,997.255 538.147,1086.32 538.668,1086.38 539.19,1140.76 539.711,1140.81 540.233,1115.65 540.754,1115.72 541.276,1121.06 541.797,1121.15 542.318,999.287 542.84,999.392 543.361,1102.52 543.883,1102.56 544.404,1061.01 544.926,1061.13 545.447,1124.8 545.968,1124.94 546.49,1118.98 547.011,1119.08 547.533,1052.43 548.054,1052.55 548.576,1117.39 549.097,1117.47 549.619,1073.25 550.14,1073.37 550.661,1089.89 551.183,1089.96 551.704,1052.64 552.226,1052.71 552.747,1102.62 553.269,1102.7 553.79,1118.78 554.311,1118.86 554.833,1095.31 555.354,1095.37 555.876,1094.66 556.397,1094.76 556.919,1083.06 557.44,1083.15 557.962,1087.01 558.483,1087.12 559.004,1047.43 559.526,1047.53 560.047,1113.17 560.569,1113.25 561.09,1120.14 561.612,1120.19 562.133,1062.06 562.655,1062.2 563.176,1027.57 563.697,1027.68 564.219,1033.62 564.74,1033.74 565.262,1156.27 565.783,1156.32 566.305,981.443 566.826,981.586 567.347,1064.34 567.869,1064.46 568.39,1107.14 568.912,1107.21 569.433,1073.8 569.955,1073.87 570.476,1007.46 570.998,1007.59 571.519,1121.48 572.04,1121.55 572.562,1026.63 573.083,1026.72 573.605,995.265 574.126,995.397 574.648,1077.73 575.169,1077.84 575.691,1064.29 576.212,1064.36 576.733,1072.2 577.255,1072.29 577.776,1030.69 578.298,1030.77 578.819,1050.56 579.341,1050.66 579.862,1121.06 580.383,1121.15 580.905,1088.15 581.426,1088.23 581.948,1058.43 582.469,1058.51 582.991,1125.32 583.512,1125.37 584.034,961.094 584.555,961.222 585.076,1167.52 585.598,1167.56 586.119,1065.41 586.641,1065.58 587.162,1141.44 587.684,1141.5 588.205,1060.32 588.726,1060.38 589.248,1093.8 589.769,1093.86 590.291,1116.55 590.812,1116.62 591.334,1108.82 591.855,1108.89 592.377,1027.34 592.898,1027.41 593.419,1081.68 593.941,1081.74 594.462,1088.66 594.984,1088.76 595.505,1112.19 596.027,1112.26 596.548,1107.68 597.07,1107.75 597.591,1108.92 598.112,1108.97 598.634,1077.64 599.155,1077.71 599.677,1068.2 600.198,1068.26 600.72,1083.69 601.241,1083.8 601.762,1035.35 602.284,1035.42 602.805,1094.35 603.327,1094.4 603.848,1057.1 604.37,1057.2 604.891,1057.39 605.413,1057.45 605.934,1048.89 606.455,1049.02 606.977,1058.33 607.498,1058.43 608.02,1074.1 608.541,1074.18 609.063,1055.04 609.584,1055.09 610.106,1019.22 610.627,1019.3 611.148,1110.42 611.67,1110.54 612.191,1088.29 612.713,1088.36 613.234,1060.59 613.756,1060.69 614.277,1032.85 614.798,1032.91 615.32,1072.26 615.841,1072.38 616.363,1112.85 616.884,1112.91 617.406,1038.63 617.927,1038.72 618.449,1071.02 618.97,1071.11 619.491,1007.51 620.013,1007.6 620.534,1126.2 621.056,1126.29 621.577,1070.45 622.099,1070.55 622.62,1097.27 623.141,1097.33 623.663,1054.16 624.184,1054.21 624.706,1106.14 625.227,1106.21 625.749,1082.69 626.27,1082.75 626.792,1017.09 627.313,1017.23 627.834,1095.86 628.356,1095.91 628.877,1013.32 629.399,1013.43 629.92,1095.9 630.442,1095.96 630.963,1080.97 631.485,1081.03 632.006,995.845 632.527,995.929 633.049,1054.41 633.57,1054.48 634.092,1067.09 634.613,1067.17 635.135,1103.07 635.656,1103.12 636.177,1034.34 636.699,1034.4 637.22,1093.55 637.742,1093.62 638.263,1036.34 638.785,1036.45 639.306,1115.24 639.828,1115.37 640.349,1026.38 640.87,1026.47 641.392,1036.5 641.913,1036.59 642.435,1119.26 642.956,1119.31 643.478,1087.47 643.999,1087.53 644.521,992.267 645.042,992.334 645.563,1058.06 646.085,1058.11 646.606,1005.67 647.128,1005.74 647.649,1106.48 648.171,1106.53 648.692,1039.79 649.213,1039.86 649.735,1047.58 650.256,1047.62 650.778,1080.84 651.299,1080.96 651.821,1057.31 652.342,1057.4 652.864,1038.87 653.385,1038.99 653.906,1113.91 654.428,1113.95 654.949,954.913 655.471,955.07 655.992,1034.97 656.514,1035.11 657.035,1055 657.556,1055.05 658.078,1059.88 658.599,1059.93 659.121,1155.16 659.642,1155.2 660.164,1071.42 660.685,1071.52 661.207,1064.65 661.728,1064.74 662.249,1099.94 662.771,1100.01 663.292,1084.63 663.814,1084.71 664.335,1137.13 664.857,1137.18 665.378,1051.61 665.9,1051.67 666.421,1034.03 666.942,1034.07 667.464,1051.13 667.985,1051.21 668.507,994.662 669.028,994.791 669.55,1031.84 670.071,1031.9 670.592,985 671.114,985.069 671.635,978.664 672.157,978.747 672.678,990.112 673.2,990.207 673.721,1048.13 674.243,1048.26 674.764,1003.6 675.285,1003.69 675.807,1033.98 676.328,1034.04 676.85,1044.68 677.371,1044.73 677.893,1054.99 678.414,1055.05 678.936,1108.86 679.457,1108.91 679.978,1073.91 680.5,1073.97 681.021,1064.2 681.543,1064.32 682.064,1064.9 682.586,1064.94 683.107,1051.8 683.628,1051.87 684.15,989.536 684.671,989.63 685.193,1077.62 685.714,1077.71 686.236,1053.41 686.757,1053.5 687.279,995.731 687.8,995.824 688.321,1047.08 688.843,1047.15 689.364,1010.96 689.886,1011.04 690.407,1096.65 690.929,1096.72 691.45,1000.9 691.971,1000.99 692.493,1046.2 693.014,1046.31 693.536,1018.88 694.057,1018.99 694.579,1029.85 695.1,1029.9 695.622,1061.26 696.143,1061.32 696.664,1080.89 697.186,1080.97 697.707,1062.04 698.229,1062.1 698.75,1085.88 699.272,1085.93 699.793,981.742 700.315,981.84 700.836,1062.51 701.357,1062.57 701.879,1049.74 702.4,1049.88 702.922,991.199 703.443,991.301 703.965,1024.41 704.486,1024.45 705.007,1038.65 705.529,1038.7 706.05,1060.51 706.572,1060.57 707.093,1022.8 707.615,1022.88 708.136,1028.32 708.658,1028.39 709.179,1136.43 709.7,1136.47 710.222,1081.76 710.743,1081.8 711.265,1055.98 711.786,1056.03 712.308,1010.6 712.829,1010.64 713.351,1050.79 713.872,1050.95 714.393,1062.81 714.915,1062.91 715.436,1052.62 715.958,1052.66 716.479,1057.19 717.001,1057.3 717.522,1035.67 718.043,1035.78 718.565,996.796 719.086,996.85 719.608,1026.74 720.129,1026.77 720.651,1104.12 721.172,1104.21 721.694,1057.05 722.215,1057.14 722.736,1105.39 723.258,1105.48 723.779,1025.83 724.301,1025.9 724.822,1094.42 725.344,1094.44 725.865,976.741 726.386,976.838 726.908,1068.11 727.429,1068.16 727.951,1045.79 728.472,1045.85 728.994,1011.82 729.515,1011.92 730.037,1098.37 730.558,1098.44 731.079,1024.66 731.601,1024.77 732.122,918.369 732.644,918.48 733.165,996.313 733.687,996.391 734.208,1034.06 734.73,1034.14 735.251,1029.81 735.772,1029.87 736.294,1086.29 736.815,1086.35 737.337,1034.41 737.858,1034.45 738.38,1044.25 738.901,1044.3 739.422,1066.4 739.944,1066.43 740.465,1019.02 740.987,1019.12 741.508,1091.14 742.03,1091.21 742.551,992.888 743.073,993.057 743.594,1086.21 744.115,1086.28 744.637,1082.01 745.158,1082.05 745.68,1088.76 746.201,1088.81 746.723,958.662 747.244,958.766 747.766,1090.46 748.287,1090.51 748.808,1039.99 749.33,1040.04 749.851,939.503 750.373,939.588 750.894,1062.09 751.416,1062.14 751.937,1030.5 752.458,1030.58 752.98,1029.02 753.501,1029.14 754.023,1069.69 754.544,1069.74 755.066,980.898 755.587,980.971 756.109,1110.78 756.63,1110.86 757.151,1048.42 757.673,1048.49 758.194,1099.23 758.716,1099.29 759.237,971.759 759.759,971.825 760.28,1082.01 760.801,1082.09 761.323,1037.58 761.844,1037.68 762.366,1089.2 762.887,1089.23 763.409,1063.54 763.93,1063.62 764.452,1031 764.973,1031.09 765.494,1058.78 766.016,1058.88 766.537,1001.74 767.059,1001.82 767.58,1066.24 768.102,1066.28 768.623,970.921 769.145,971.023 769.666,1035.72 770.187,1035.8 770.709,1065.11 771.23,1065.16 771.752,891.655 772.273,891.796 772.795,949.173 773.316,949.261 773.837,1049.4 774.359,1049.46 774.88,960.117 775.402,960.249 775.923,1083.38 776.445,1083.45 776.966,997.338 777.488,997.445 778.009,1014.23 778.53,1014.27 779.052,1000.4 779.573,1000.52 780.095,1044.11 780.616,1044.16 781.138,1027.66 781.659,1027.73 782.18,1030.07 782.702,1030.13 783.223,1062.88 783.745,1062.96 784.266,1016.42 784.788,1016.48 785.309,1059.67 785.831,1059.78 786.352,908.867 786.873,909.004 787.395,1079 787.916,1079.08 788.438,1108.34 788.959,1108.4 789.481,1089.3 790.002,1089.36 790.524,1047.14 791.045,1047.24 791.566,1159.07 792.088,1159.12 792.609,982.55 793.131,982.674 793.652,1004.42 794.174,1004.53 794.695,969.706 795.216,969.743 795.738,996.272 796.259,996.327 796.781,1051.9 797.302,1051.97 797.824,982.473 798.345,982.531 798.867,1107.06 799.388,1107.11 799.909,1069.16 800.431,1069.19 800.952,980.248 801.474,980.33 801.995,939.488 802.517,939.606 803.038,1093.74 803.56,1093.77 804.081,1039.83 804.602,1039.92 805.124,1093.9 805.645,1093.98 806.167,1026.71 806.688,1026.82 807.21,935.644 807.731,935.745 808.252,1003.57 808.774,1003.66 809.295,1055.59 809.817,1055.63 810.338,1027.86 810.86,1027.89 811.381,1048.19 811.903,1048.25 812.424,1037.27 812.945,1037.34 813.467,1051.51 813.988,1051.57 814.51,1023.58 815.031,1023.66 815.553,1032.62 816.074,1032.7 816.595,1065.18 817.117,1065.23 817.638,1080.16 818.16,1080.24 818.681,1088.93 819.203,1088.99 819.724,1044.1 820.246,1044.15 820.767,1065.8 821.288,1065.84 821.81,1029.64 822.331,1029.69 822.853,1033.15 823.374,1033.23 823.896,1012.31 824.417,1012.38 824.939,1058.4 825.46,1058.44 825.981,1066.05 826.503,1066.1 827.024,918.513 827.546,918.631 828.067,1009.16 828.589,1009.23 829.11,1021.77 829.631,1021.81 830.153,957.304 830.674,957.408 831.196,965.064 831.717,965.128 832.239,1055.46 832.76,1055.54 833.282,1059.42 833.803,1059.51 834.324,981.449 834.846,981.489 835.367,1004.46 835.889,1004.56 836.41,1028.01 836.932,1028.06 837.453,942.243 837.975,942.342 838.496,1048.06 839.017,1048.1 839.539,1017.78 840.06,1017.9 840.582,1024.35 841.103,1024.45 841.625,1102.93 842.146,1102.98 842.667,1080.31 843.189,1080.38 843.71,1017.62 844.232,1017.7 844.753,994.969 845.275,995.037 845.796,971.068 846.318,971.137 846.839,1011.73 847.36,1011.8 847.882,1043.83 848.403,1043.89 848.925,994.919 849.446,994.999 849.968,977.025 850.489,977.109 851.01,1025.97 851.532,1026.02 852.053,905.96 852.575,906.07 853.096,1022.23 853.618,1022.31 854.139,1078.76 854.661,1078.83 855.182,1083.75 855.703,1083.79 856.225,917.355 856.746,917.425 857.268,997.926 857.789,998.008 858.311,1005.05 858.832,1005.15 859.354,1001.7 859.875,1001.74 860.396,1013.86 860.918,1013.95 861.439,1086.27 861.961,1086.3 862.482,1031.71 863.004,1031.81 863.525,1025.88 864.046,1025.96 864.568,1005.31 865.089,1005.42 865.611,1048.45 866.132,1048.53 866.654,1014.07 867.175,1014.16 867.697,973.462 868.218,973.513 868.739,963.867 869.261,963.944 869.782,1020.13 870.304,1020.18 870.825,998.204 871.347,998.25 871.868,1031.98 872.39,1032.03 872.911,1047.22 873.432,1047.27 873.954,993.292 874.475,993.327 874.997,1074.21 875.518,1074.29 876.04,926.554 876.561,926.668 877.082,1056.04 877.604,1056.11 878.125,1004.91 878.647,1004.98 879.168,951.644 879.69,951.743 880.211,988.508 880.733,988.621 881.254,882.301 881.775,882.383 882.297,955.488 882.818,955.565 883.34,1005.85 883.861,1006.01 884.383,979.543 884.904,979.701 885.425,958.963 885.947,959.079 886.468,1041.93 886.99,1041.98 887.511,1045.2 888.033,1045.28 888.554,968.416 889.076,968.46 889.597,983.914 890.118,983.963 890.64,990.795 891.161,990.957 891.683,975.884 892.204,975.915 892.726,1026.69 893.247,1026.72 893.769,1080.78 894.29,1080.85 894.811,1075.02 895.333,1075.08 895.854,1003.39 896.376,1003.46 896.897,1025.44 897.419,1025.47 897.94,1019.52 898.461,1019.58 898.983,1057.14 899.504,1057.2 900.026,971.574 900.547,971.633 901.069,976.946 901.59,977.05 902.112,1000.22 902.633,1000.31 903.154,955.867 903.676,955.954 904.197,1016.52 904.719,1016.57 905.24,1077.66 905.762,1077.71 906.283,1002.09 906.805,1002.17 907.326,1029.76 907.847,1029.83 908.369,990.305 908.89,990.385 909.412,1046.55 909.933,1046.61 910.455,972.61 910.976,972.659 911.497,991.906 912.019,991.954 912.54,869.855 913.062,869.972 913.583,998.96 914.105,999.007 914.626,894.421 915.148,894.529 915.669,1013.34 916.19,1013.43 916.712,940.883 917.233,941.019 917.755,1004.73 918.276,1004.79 918.798,976.473 919.319,976.556 919.84,958.812 920.362,958.883 920.883,1010.34 921.405,1010.4 921.926,1069.91 922.448,1069.98 922.969,1062.78 923.491,1062.8 924.012,1021.21 924.533,1021.24 925.055,868.483 925.576,868.609 926.098,1035.16 926.619,1035.21 927.141,950.178 927.662,950.239 928.184,1012.09 928.705,1012.16 929.226,1016.82 929.748,1016.86 930.269,971.926 930.791,972.041 931.312,958.334 931.834,958.384 932.355,1004.3 932.876,1004.39 933.398,949.249 933.919,949.39 934.441,964.453 934.962,964.507 935.484,978.44 936.005,978.493 936.527,1031.43 937.048,1031.5 937.569,931.717 938.091,931.806 938.612,988.202 939.134,988.316 939.655,893.132 940.177,893.221 940.698,931.75 941.22,931.8 941.741,948.06 942.262,948.157 942.784,955.219 943.305,955.305 943.827,973.451 944.348,973.497 944.87,1015.74 945.391,1015.81 945.912,921.805 946.434,921.923 946.955,994.896 947.477,994.949 947.998,1019.47 948.52,1019.56 949.041,982.461 949.563,982.528 950.084,955.06 950.605,955.131 951.127,1017.95 951.648,1018.04 952.17,1037.65 952.691,1037.69 953.213,969.115 953.734,969.202 954.255,1032.21 954.777,1032.27 955.298,993.847 955.82,993.948 956.341,929.856 956.863,929.968 957.384,951.478 957.906,951.57 958.427,929.447 958.948,929.528 959.47,979.951 959.991,980.084 960.513,988.783 961.034,988.844 961.556,971.376 962.077,971.41 962.599,969.885 963.12,969.952 963.641,1055.15 964.163,1055.22 964.684,952.153 965.206,952.246 965.727,967.351 966.249,967.428 966.77,953.476 967.291,953.556 967.813,959.32 968.334,959.393 968.856,948.635 969.377,948.722 969.899,981.653 970.42,981.726 970.942,932.319 971.463,932.378 971.984,842.902 972.506,843.002 973.027,958.94 973.549,959.001 974.07,1032.94 974.592,1032.97 975.113,898.047 975.635,898.227 976.156,1041.08 976.677,1041.16 977.199,941.407 977.72,941.554 978.242,1067.92 978.763,1067.96 979.285,1050.36 979.806,1050.4 980.327,1009.09 980.849,1009.2 981.37,990.536 981.892,990.615 982.413,1057.24 982.935,1057.32 983.456,1029.26 983.978,1029.38 984.499,957.409 985.02,957.47 985.542,951.48 986.063,951.579 986.585,1043.42 987.106,1043.47 987.628,1016.95 988.149,1017.02 988.67,999.822 989.192,999.937 989.713,1010.33 990.235,1010.36 990.756,1030.99 991.278,1031.06 991.799,993.502 992.321,993.584 992.842,962.642 993.363,962.746 993.885,1005.67 994.406,1005.78 994.928,952.452 995.449,952.57 995.971,974.217 996.492,974.257 997.014,984.95 997.535,985.011 998.056,1001.88 998.578,1001.95 999.099,959.323 999.621,959.41 1000.14,1021.37 1000.66,1021.44 1001.19,1060.58 1001.71,1060.63 1002.23,1082.17 1002.75,1082.24 1003.27,957.857 1003.79,957.963 1004.31,1011.84 1004.84,1011.93 1005.36,869.323 1005.88,869.387 1006.4,1142.91 1006.92,1142.96 1007.44,949.733 1007.96,949.813 1008.49,968.907 1009.01,969.033 1009.53,1031.02 1010.05,1031.09 1010.57,1001.81 1011.09,1001.87 1011.61,961.891 1012.14,961.944 1012.66,898.287 1013.18,898.41 1013.7,1025.34 1014.22,1025.41 1014.74,1028.32 1015.26,1028.36 1015.79,960.977 1016.31,961.08 1016.83,1002.22 1017.35,1002.3 1017.87,975.794 1018.39,975.848 1018.91,1000.37 1019.44,1000.42 1019.96,910.247 1020.48,910.323 1021,1037.17 1021.52,1037.22 1022.04,977.604 1022.56,977.669 1023.09,963.131 1023.61,963.19 1024.13,935.949 1024.65,936.077 1025.17,886.692 1025.69,886.814 1026.21,899.386 1026.74,899.544 1027.26,1001.38 1027.78,1001.42 1028.3,912.427 1028.82,912.567 1029.34,910.744 1029.86,910.876 1030.39,966.523 1030.91,966.614 1031.43,975.725 1031.95,975.787 1032.47,958.419 1032.99,958.515 1033.51,993.637 1034.04,993.67 1034.56,1024.73 1035.08,1024.83 1035.6,945.477 1036.12,945.545 1036.64,811.363 1037.16,811.493 1037.69,886.216 1038.21,886.334 1038.73,964.125 1039.25,964.243 1039.77,995.431 1040.29,995.5 1040.81,1009.32 1041.34,1009.43 1041.86,987.967 1042.38,988.038 1042.9,979.849 1043.42,979.941 1043.94,930.304 1044.46,930.401 1044.99,928.912 1045.51,928.969 1046.03,905.486 1046.55,905.573 1047.07,961.739 1047.59,961.792 1048.11,924.248 1048.64,924.312 1049.16,915.135 1049.68,915.257 1050.2,958.413 1050.72,958.52 1051.24,879.378 1051.76,879.483 1052.29,993.203 1052.81,993.261 1053.33,983.123 1053.85,983.191 1054.37,956.502 1054.89,956.591 1055.41,863.494 1055.94,863.585 1056.46,941.08 1056.98,941.148 1057.5,1010.48 1058.02,1010.53 1058.54,987.524 1059.06,987.577 1059.59,907.948 1060.11,908.093 1060.63,883.47 1061.15,883.578 1061.67,872.987 1062.19,873.081 1062.71,1022.88 1063.24,1022.93 1063.76,1003.2 1064.28,1003.25 1064.8,917.121 1065.32,917.181 1065.84,1010.14 1066.36,1010.21 1066.89,959.435 1067.41,959.644 1067.93,947.871 1068.45,947.911 1068.97,1007.47 1069.49,1007.53 1070.02,913.246 1070.54,913.314 1071.06,946.355 1071.58,946.401 1072.1,958.686 1072.62,958.73 1073.14,900.004 1073.67,900.105 1074.19,841.816 1074.71,842.021 1075.23,1008.78 1075.75,1008.84 1076.27,963.733 1076.79,963.787 1077.32,840.834 1077.84,840.965 1078.36,933.712 1078.88,933.816 1079.4,859.761 1079.92,859.934 1080.44,980.617 1080.97,980.735 1081.49,851.393 1082.01,851.46 1082.53,893.165 1083.05,893.251 1083.57,976.898 1084.09,976.96 1084.62,945.283 1085.14,945.362 1085.66,944.937 1086.18,945.007 1086.7,1015.67 1087.22,1015.74 1087.74,909.363 1088.27,909.495 1088.79,1024.87 1089.31,1024.9 1089.83,927.811 1090.35,927.905 1090.87,907.474 1091.39,907.643 1091.92,970.912 1092.44,971.064 1092.96,925.412 1093.48,925.5 1094,946.216 1094.52,946.302 1095.04,987.895 1095.57,988.015 1096.09,914.49 1096.61,914.579 1097.13,991.855 1097.65,991.915 1098.17,1015.74 1098.69,1015.81 1099.22,994.137 1099.74,994.209 1100.26,892.277 1100.78,892.42 1101.3,1046.17 1101.82,1046.25 1102.34,1074.28 1102.87,1074.34 1103.39,888.827 1103.91,888.924 1104.43,992.046 1104.95,992.114 1105.47,987.609 1105.99,987.649 1106.52,922.894 1107.04,922.996 1107.56,835.179 1108.08,835.284 1108.6,987.759 1109.12,987.821 1109.64,924.208 1110.17,924.353 1110.69,936.279 1111.21,936.358 1111.73,904.129 1112.25,904.203 1112.77,942.564 1113.29,942.662 1113.82,821.936 1114.34,822.031 1114.86,978.218 1115.38,978.267 1115.9,1015.87 1116.42,1015.93 1116.94,966.684 1117.47,966.751 1117.99,945.767 1118.51,945.871 1119.03,909.739 1119.55,909.824 1120.07,939.69 1120.59,939.816 1121.12,1000.66 1121.64,1000.73 1122.16,959.656 1122.68,959.732 1123.2,925.147 1123.72,925.213 1124.24,952.331 1124.77,952.409 1125.29,910.177 1125.81,910.318 1126.33,934.244 1126.85,934.349 1127.37,947.636 1127.89,947.737 1128.42,963.859 1128.94,963.974 1129.46,971.437 1129.98,971.484 1130.5,956.547 1131.02,956.622 1131.54,959.717 1132.07,959.79 1132.59,1002.44 1133.11,1002.49 1133.63,927.051 1134.15,927.134 1134.67,1008.1 1135.19,1008.18 1135.72,995.144 1136.24,995.207 1136.76,806.813 1137.28,806.989 1137.8,962.262 1138.32,962.365 1138.85,917.779 1139.37,917.847 1139.89,910.221 1140.41,910.3 1140.93,945.98 1141.45,946.044 1141.97,954.254 1142.5,954.311 1143.02,852.059 1143.54,852.188 1144.06,962.374 1144.58,962.5 1145.1,935.704 1145.62,935.795 1146.15,933.783 1146.67,933.831 1147.19,975.337 1147.71,975.375 1148.23,985.731 1148.75,985.791 1149.27,793.168 1149.8,793.308 1150.32,859.456 1150.84,859.614 1151.36,845.614 1151.88,845.743 1152.4,845.486 1152.92,845.621 1153.45,798.083 1153.97,798.213 1154.49,874.328 1155.01,874.461 1155.53,832.447 1156.05,832.532 1156.57,998.547 1157.1,998.632 1157.62,930.337 1158.14,930.43 1158.66,898.512 1159.18,898.648 1159.7,914.817 1160.22,914.887 1160.75,957.561 1161.27,957.61 1161.79,959.728 1162.31,959.794 1162.83,956.427 1163.35,956.52 1163.87,824.05 1164.4,824.154 1164.92,922.184 1165.44,922.298 1165.96,933.111 1166.48,933.268 1167,908.999 1167.52,909.078 1168.05,967.455 1168.57,967.51 1169.09,811.777 1169.61,811.871 1170.13,899.245 1170.65,899.309 1171.17,945.285 1171.7,945.355 1172.22,864.574 1172.74,864.703 1173.26,862.826 1173.78,862.969 1174.3,865.44 1174.82,865.552 1175.35,876.896 1175.87,876.975 1176.39,971.673 1176.91,971.766 1177.43,881.533 1177.95,881.663 1178.47,1008.19 1179,1008.26 1179.52,965.982 1180.04,966.09 1180.56,897.196 1181.08,897.331 1181.6,937.869 1182.12,937.955 1182.65,897.587 1183.17,897.656 1183.69,952.34 1184.21,952.405 1184.73,905.012 1185.25,905.132 1185.77,950.243 1186.3,950.302 1186.82,943.707 1187.34,943.823 1187.86,930.557 1188.38,930.602 1188.9,902.586 1189.42,902.711 1189.95,808.517 1190.47,808.609 1190.99,975.341 1191.51,975.424 1192.03,950.287 1192.55,950.332 1193.07,922.909 1193.6,922.957 1194.12,901.157 1194.64,901.224 1195.16,851.04 1195.68,851.138 1196.2,808.848 1196.72,808.988 1197.25,880.716 1197.77,880.8 1198.29,919.222 1198.81,919.351 1199.33,859.099 1199.85,859.247 1200.37,874.583 1200.9,874.682 1201.42,935.298 1201.94,935.387 1202.46,969.052 1202.98,969.166 1203.5,928.483 1204.02,928.611 1204.55,820.539 1205.07,820.652 1205.59,943.399 1206.11,943.545 1206.63,875.714 1207.15,875.767 1207.68,974.531 1208.2,974.572 1208.72,889.934 1209.24,890.021 1209.76,864.145 1210.28,864.269 1210.8,960.457 1211.33,960.521 1211.85,913.35 1212.37,913.443 1212.89,924.122 1213.41,924.193 1213.93,779.948 1214.45,780.066 1214.98,895.58 1215.5,895.697 1216.02,860.744 1216.54,860.85 1217.06,913.131 1217.58,913.241 1218.1,818.143 1218.63,818.232 1219.15,897.999 1219.67,898.066 1220.19,887.492 1220.71,887.55 1221.23,769.046 1221.75,769.23 1222.28,904.383 1222.8,904.528 1223.32,825.58 1223.84,825.647 1224.36,923.266 1224.88,923.339 1225.4,949.954 1225.93,950.043 1226.45,785.079 1226.97,785.184 1227.49,936.473 1228.01,936.565 1228.53,894.222 1229.05,894.28 1229.58,861.583 1230.1,861.672 1230.62,809.097 1231.14,809.186 1231.66,898.479 1232.18,898.551 1232.7,891.249 1233.23,891.312 1233.75,847.025 1234.27,847.08 1234.79,816.968 1235.31,817.057 1235.83,769.131 1236.35,769.298 1236.88,929.041 1237.4,929.142 1237.92,1025.7 1238.44,1025.78 1238.96,842.67 1239.48,842.791 1240,917.647 1240.53,917.758 1241.05,745.301 1241.57,745.437 1242.09,956.374 1242.61,956.473 1243.13,920.473 1243.65,920.65 1244.18,840.251 1244.7,840.41 1245.22,861.307 1245.74,861.394 1246.26,866.636 1246.78,866.696 1247.3,829.906 1247.83,830.053 1248.35,1017.88 1248.87,1017.96 1249.39,829.638 1249.91,829.761 1250.43,940.363 1250.95,940.419 1251.48,870.355 1252,870.451 1252.52,941.859 1253.04,941.931 1253.56,896.633 1254.08,896.762 1254.6,875.915 1255.13,875.992 1255.65,814.355 1256.17,814.491 1256.69,896.064 1257.21,896.113 1257.73,941.072 1258.25,941.132 1258.78,951.865 1259.3,951.923 1259.82,820.379 1260.34,820.494 1260.86,939.633 1261.38,939.709 1261.9,864.778 1262.43,864.842 1262.95,886.495 1263.47,886.599 1263.99,929.316 1264.51,929.433 1265.03,944.204 1265.55,944.282 1266.08,877.348 1266.6,877.407 1267.12,894.095 1267.64,894.187 1268.16,798.677 1268.68,798.736 1269.2,879.338 1269.73,879.484 1270.25,895.652 1270.77,895.766 1271.29,898.367 1271.81,898.46 1272.33,808.272 1272.85,808.447 1273.38,915.035 1273.9,915.106 1274.42,901.503 1274.94,901.565 1275.46,839.093 1275.98,839.169 1276.51,864.943 1277.03,865.057 1277.55,926.628 1278.07,926.747 1278.59,909.906 1279.11,909.985 1279.63,851.895 1280.16,851.989 1280.68,954.909 1281.2,955.037 1281.72,856.818 1282.24,856.885 1282.76,929.776 1283.28,929.869 1283.81,826.417 1284.33,826.509 1284.85,853.557 1285.37,853.675 1285.89,893.087 1286.41,893.185 1286.93,880.217 1287.46,880.295 1287.98,853.123 1288.5,853.328 1289.02,918.813 1289.54,918.875 1290.06,844.909 1290.58,844.992 1291.11,910.558 1291.63,910.708 1292.15,892.065 1292.67,892.149 1293.19,942.072 1293.71,942.15 1294.23,889.131 1294.76,889.175 1295.28,939.147 1295.8,939.246 1296.32,903.187 1296.84,903.272 1297.36,839.643 1297.88,839.857 1298.41,891.444 1298.93,891.59 1299.45,858.374 1299.97,858.515 1300.49,827.546 1301.01,827.701 1301.53,874.269 1302.06,874.319 1302.58,783.988 1303.1,784.087 1303.62,921.146 1304.14,921.21 1304.66,943.766 1305.18,943.873 1305.71,887.952 1306.23,888.034 1306.75,834.301 1307.27,834.37 1307.79,940.369 1308.31,940.442 1308.83,806.876 1309.36,807.102 1309.88,826.904 1310.4,826.965 1310.92,865.854 1311.44,865.965 1311.96,851.631 1312.48,851.899 1313.01,847.006 1313.53,847.167 1314.05,859.625 1314.57,859.79 1315.09,788.056 1315.61,788.191 1316.13,742.211 1316.66,742.383 1317.18,869.602 1317.7,869.691 1318.22,711.205 1318.74,711.402 1319.26,856.597 1319.78,856.721 1320.31,850.17 1320.83,850.263 1321.35,974.283 1321.87,974.409 1322.39,954.108 1322.91,954.174 1323.43,863.458 1323.96,863.582 1324.48,794.018 1325,794.145 1325.52,939.913 1326.04,939.973 1326.56,784.208 1327.08,784.289 1327.61,936.485 1328.13,936.548 1328.65,749.56 1329.17,749.65 1329.69,870.26 1330.21,870.338 1330.73,877.448 1331.26,877.533 1331.78,961.555 1332.3,961.639 1332.82,912.882 1333.34,912.953 1333.86,847.917 1334.38,848.022 1334.91,826.61 1335.43,826.7 1335.95,860.902 1336.47,860.95 1336.99,855.987 1337.51,856.114 1338.03,852.065 1338.56,852.133 1339.08,768.753 1339.6,768.808 1340.12,872.635 1340.64,872.735 1341.16,853.504 1341.68,853.596 1342.21,846.682 1342.73,846.797 1343.25,772.334 1343.77,772.503 1344.29,890.951 1344.81,891.106 1345.34,879.787 1345.86,879.877 1346.38,874.587 1346.9,874.646 1347.42,905.487 1347.94,905.59 1348.46,732.315 1348.99,732.477 1349.51,797.788 1350.03,797.906 1350.55,761.742 1351.07,761.903 1351.59,839.247 1352.11,839.299 1352.64,809.472 1353.16,809.587 1353.68,819.131 1354.2,819.222 1354.72,791.072 1355.24,791.184 1355.76,787.067 1356.29,787.169 1356.81,758.992 1357.33,759.052 1357.85,747.209 1358.37,747.354 1358.89,934.768 1359.41,934.84 1359.94,847.017 1360.46,847.087 1360.98,761.226 1361.5,761.314 1362.02,868.608 1362.54,868.722 1363.06,816.446 1363.59,816.532 1364.11,823.369 1364.63,823.475 1365.15,797.493 1365.67,797.63 1366.19,831.756 1366.71,831.829 1367.24,885.895 1367.76,886 1368.28,879.719 1368.8,879.792 1369.32,752.461 1369.84,752.636 1370.36,883.311 1370.89,883.409 1371.41,864.189 1371.93,864.317 1372.45,686.56 1372.97,686.723 1373.49,826.535 1374.01,826.716 1374.54,805.115 1375.06,805.213 1375.58,862.102 1376.1,862.213 1376.62,789.191 1377.14,789.317 1377.66,778.13 1378.19,778.199 1378.71,785.725 1379.23,785.833 1379.75,890.054 1380.27,890.167 1380.79,796.576 1381.31,796.712 1381.84,815.898 1382.36,816.009 1382.88,888.986 1383.4,889.02 1383.92,858.683 1384.44,858.802 1384.96,834.42 1385.49,834.585 1386.01,862.002 1386.53,862.095 1387.05,769.534 1387.57,769.662 1388.09,781.778 1388.61,781.977 1389.14,835.163 1389.66,835.25 1390.18,764.958 1390.7,765.11 1391.22,784.478 1391.74,784.577 1392.26,765.784 1392.79,765.911 1393.31,907.024 1393.83,907.079 1394.35,938.997 1394.87,939.066 1395.39,803.109 1395.91,803.228 1396.44,830.732 1396.96,830.798 1397.48,771.579 1398,771.7 1398.52,812.895 1399.04,813.007 1399.56,821.509 1400.09,821.604 1400.61,784.216 1401.13,784.341 1401.65,710.725 1402.17,710.868 1402.69,767.067 1403.21,767.159 1403.74,803.136 1404.26,803.313 1404.78,864.636 1405.3,864.795 1405.82,883.092 1406.34,883.286 1406.86,785.814 1407.39,785.98 1407.91,836.691 1408.43,836.803 1408.95,817.774 1409.47,817.897 1409.99,870.568 1410.51,870.632 1411.04,695.293 1411.56,695.44 1412.08,820.491 1412.6,820.588 1413.12,822.36 1413.64,822.489 1414.17,762.454 1414.69,762.571 1415.21,718.203 1415.73,718.435 1416.25,785.352 1416.77,785.468 1417.29,763.805 1417.82,763.911 1418.34,780.915 1418.86,781.026 1419.38,740.03 1419.9,740.187 1420.42,788.517 1420.94,788.662 1421.47,896.271 1421.99,896.349 1422.51,741.245 1423.03,741.363 1423.55,802.552 1424.07,802.656 1424.59,817.797 1425.12,817.909 1425.64,821.321 1426.16,821.393 1426.68,796.499 1427.2,796.566 1427.72,698.821 1428.24,699.015 1428.77,800.671 1429.29,800.827 1429.81,785.303 1430.33,785.442 1430.85,828.188 1431.37,828.312 1431.89,851.728 1432.42,851.792 1432.94,850.757 1433.46,850.865 1433.98,753.755 1434.5,753.889 1435.02,819.673 1435.54,819.764 1436.07,781.07 1436.59,781.226 1437.11,737.705 1437.63,737.792 1438.15,820.048 1438.67,820.19 1439.19,839.691 1439.72,839.78 1440.24,737.41 1440.76,737.688 1441.28,789.335 1441.8,789.48 1442.32,842.283 1442.84,842.357 1443.37,731.307 1443.89,731.505 1444.41,797.418 1444.93,797.565 1445.45,831.529 1445.97,831.599 1446.49,855.206 1447.02,855.281 1447.54,746.794 1448.06,746.933 1448.58,822.74 1449.1,822.839 1449.62,768.139 1450.14,768.244 1450.67,728.537 1451.19,728.661 1451.71,858.858 1452.23,858.939 1452.75,768.423 1453.27,768.504 1453.79,777.534 1454.32,777.682 1454.84,801.523 1455.36,801.661 1455.88,807.75 1456.4,807.847 1456.92,781.157 1457.44,781.237 1457.97,790.702 1458.49,790.791 1459.01,695.68 1459.53,695.809 1460.05,752.981 1460.57,753.119 1461.09,905.495 1461.62,905.631 1462.14,755.692 1462.66,755.809 1463.18,803.833 1463.7,803.931 1464.22,760.036 1464.74,760.225 1465.27,667.27 1465.79,667.488 1466.31,791.5 1466.83,791.629 1467.35,679.008 1467.87,679.086 1468.39,728.406 1468.92,728.544 1469.44,720.093 1469.96,720.273 1470.48,869.745 1471,869.938 1471.52,806.507 1472.04,806.596 1472.57,821.866 1473.09,822.049 1473.61,701.734 1474.13,701.857 1474.65,672.48 1475.17,672.67 1475.69,790.461 1476.22,790.576 1476.74,754.755 1477.26,754.885 1477.78,677.463 1478.3,677.662 1478.82,762.858 1479.34,762.954 1479.87,739.375 1480.39,739.563 1480.91,837.997 1481.43,838.104 1481.95,939.792 1482.47,939.878 1483,874.454 1483.52,874.557 1484.04,816.671 1484.56,816.736 1485.08,717.865 1485.6,718.001 1486.12,630.636 1486.65,630.859 1487.17,679.009 1487.69,679.136 1488.21,681.619 1488.73,681.798 1489.25,761.96 1489.77,762.141 1490.3,819.077 1490.82,819.182 1491.34,641.931 1491.86,642.067 1492.38,716.827 1492.9,717.008 1493.42,830.142 1493.95,830.307 1494.47,665.335 1494.99,665.535 1495.51,686.826 1496.03,686.916 1496.55,834.845 1497.07,834.945 1497.6,721.427 1498.12,721.588 1498.64,858.394 1499.16,858.494 1499.68,640.035 1500.2,640.307 1500.72,732.526 1501.25,732.685 1501.77,688.216 1502.29,688.327 1502.81,779.487 1503.33,779.573 1503.85,822.12 1504.37,822.202 1504.9,809.163 1505.42,809.263 1505.94,740.687 1506.46,740.759 1506.98,801.734 1507.5,801.872 1508.02,794.831 1508.55,794.958 1509.07,771.31 1509.59,771.455 1510.11,765.222 1510.63,765.423 1511.15,736.109 1511.67,736.265 1512.2,699.266 1512.72,699.436 1513.24,779.868 1513.76,780.034 1514.28,778.599 1514.8,778.702 1515.32,793.13 1515.85,793.254 1516.37,799.173 1516.89,799.357 1517.41,834.775 1517.93,834.946 1518.45,613.259 1518.97,613.465 1519.5,873.596 1520.02,873.721 1520.54,824.563 1521.06,824.638 1521.58,739.89 1522.1,740.019 1522.62,834.831 1523.15,834.936 1523.67,775.496 1524.19,775.613 1524.71,729.546 1525.23,729.658 1525.75,635.261 1526.27,635.49 1526.8,692.822 1527.32,693.013 1527.84,776.783 1528.36,776.972 1528.88,743.596 1529.4,743.7 1529.92,823.021 1530.45,823.115 1530.97,772.376 1531.49,772.567 1532.01,747.944 1532.53,748.052 1533.05,775.396 1533.57,775.473 1534.1,768.517 1534.62,768.602 1535.14,746.34 1535.66,746.55 1536.18,765.538 1536.7,765.702 1537.22,836.721 1537.75,836.835 1538.27,763.98 1538.79,764.122 1539.31,743.303 1539.83,743.395 1540.35,717.657 1540.87,717.808 1541.4,816.222 1541.92,816.328 1542.44,737.081 1542.96,737.272 1543.48,789.959 1544,790.092 1544.52,729.658 1545.05,729.816 1545.57,701.445 1546.09,701.697 1546.61,671.846 1547.13,671.963 1547.65,704.09 1548.17,704.286 1548.7,715.139 1549.22,715.255 1549.74,578.268 1550.26,578.553 1550.78,782.706 1551.3,782.803 1551.83,673.525 1552.35,673.703 1552.87,769.348 1553.39,769.55 1553.91,729.095 1554.43,729.212 1554.95,795.859 1555.48,795.928 1556,747.045 1556.52,747.188 1557.04,719.123 1557.56,719.287 1558.08,694.277 1558.6,694.43 1559.13,672.528 1559.65,672.76 1560.17,597.127 1560.69,597.305 1561.21,572.263 1561.73,572.459 1562.25,697.431 1562.78,697.557 1563.3,764.989 1563.82,765.214 1564.34,675.741 1564.86,675.953 1565.38,771.475 1565.9,771.58 1566.43,790.21 1566.95,790.34 1567.47,692.499 1567.99,692.713 1568.51,776.273 1569.03,776.407 1569.55,769.483 1570.08,769.625 1570.6,679.912 1571.12,680.004 1571.64,731.744 1572.16,731.863 1572.68,697.542 1573.2,697.672 1573.73,706.31 1574.25,706.497 1574.77,645.758 1575.29,645.937 1575.81,761.31 1576.33,761.401 1576.85,756.198 1577.38,756.367 1577.9,788.933 1578.42,789.123 1578.94,734.472 1579.46,734.589 1579.98,690.124 1580.5,690.265 1581.03,653.23 1581.55,653.378 1582.07,678.994 1582.59,679.144 1583.11,653.777 1583.63,653.946 1584.15,819.326 1584.68,819.361 1585.2,754.445 1585.72,754.592 1586.24,691.48 1586.76,691.626 1587.28,637.128 1587.8,637.294 1588.33,636.719 1588.85,636.865 1589.37,741.581 1589.89,741.728 1590.41,680.609 1590.93,680.768 1591.45,602.703 1591.98,602.953 1592.5,658.48 1593.02,658.745 1593.54,689.416 1594.06,689.513 1594.58,712.231 1595.1,712.333 1595.63,618.252 1596.15,618.403 1596.67,673.02 1597.19,673.155 1597.71,606.379 1598.23,606.554 1598.75,627.121 1599.28,627.318 1599.8,613.15 1600.32,613.314 1600.84,667.002 1601.36,667.16 1601.88,733.846 1602.4,733.964 1602.93,563.347 1603.45,563.511 1603.97,650.342 1604.49,650.449 1605.01,713.934 1605.53,714.053 1606.05,733.58 1606.58,733.741 1607.1,687.316 1607.62,687.435 1608.14,569.489 1608.66,569.774 1609.18,746.451 1609.7,746.554 1610.23,621.792 1610.75,622.126 1611.27,653.449 1611.79,653.706 1612.31,685.191 1612.83,685.307 1613.35,717.463 1613.88,717.618 1614.4,703.493 1614.92,703.626 1615.44,717.603 1615.96,717.73 1616.48,652.87 1617,653.026 1617.53,616.074 1618.05,616.238 1618.57,843.73 1619.09,843.912 1619.61,712.226 1620.13,712.348 1620.66,820.263 1621.18,820.406 1621.7,754.852 1622.22,754.982 1622.74,658.898 1623.26,659.048 1623.78,597.253 1624.31,597.519 1624.83,549.092 1625.35,549.284 1625.87,649.255 1626.39,649.414 1626.91,650.494 1627.43,650.642 1627.96,776.509 1628.48,776.696 1629,724.095 1629.52,724.241 1630.04,733.243 1630.56,733.36 1631.08,687.156 1631.61,687.334 1632.13,813.487 1632.65,813.621 1633.17,716.211 1633.69,716.367 1634.21,674.122 1634.73,674.19 1635.26,644.385 1635.78,644.58 1636.3,613.885 1636.82,614.105 1637.34,575.057 1637.86,575.262 1638.38,693.477 1638.91,693.609 1639.43,761.87 1639.95,761.999 1640.47,568.277 1640.99,568.478 1641.51,623.739 1642.03,624.105 1642.56,671.676 1643.08,671.876 1643.6,542.561 1644.12,542.702 1644.64,638.21 1645.16,638.376 1645.68,649.609 1646.21,649.745 1646.73,732.804 1647.25,732.904 1647.77,557.894 1648.29,558.152 1648.81,754.689 1649.33,754.833 1649.86,558.508 1650.38,558.732 1650.9,626.93 1651.42,627.042 1651.94,743.432 1652.46,743.5 1652.98,647.869 1653.51,648.032 1654.03,545.917 1654.55,546.075 1655.07,660.298 1655.59,660.471 1656.11,532.692 1656.63,532.847 1657.16,597.974 1657.68,598.197 1658.2,618.97 1658.72,619.159 1659.24,638.91 1659.76,639.025 1660.28,573.999 1660.81,574.159 1661.33,590.448 1661.85,590.578 1662.37,590.867 1662.89,591.063 1663.41,692.436 1663.93,692.613 1664.46,637.368 1664.98,637.557 1665.5,714.939 1666.02,715.177 1666.54,598.425 1667.06,598.599 1667.58,494.34 1668.11,494.559 1668.63,682.391 1669.15,682.516 1669.67,558.521 1670.19,558.752 1670.71,760.205 1671.23,760.341 1671.76,520.341 1672.28,520.559 1672.8,597.473 1673.32,597.617 1673.84,610.172 1674.36,610.351 1674.88,560.169 1675.41,560.317 1675.93,541.559 1676.45,541.691 1676.97,766.015 1677.49,766.151 1678.01,554.166 1678.53,554.383 1679.06,574.903 1679.58,575.066 1680.1,724.106 1680.62,724.224 1681.14,609.707 1681.66,609.846 1682.18,632.948 1682.71,633.077 1683.23,598.112 1683.75,598.294 1684.27,666.875 1684.79,667.08 1685.31,642.176 1685.83,642.311 1686.36,677.048 1686.88,677.199 1687.4,674.344 1687.92,674.478 1688.44,592.098 1688.96,592.221 1689.49,733.013 1690.01,733.183 1690.53,731.166 1691.05,731.239 1691.57,621.562 1692.09,621.655 1692.61,700.201 1693.14,700.328 1693.66,576.387 1694.18,576.505 1694.7,709.214 1695.22,709.37 1695.74,644.61 1696.26,644.727 1696.79,577.974 1697.31,578.313 1697.83,695.334 1698.35,695.485 1698.87,498.185 1699.39,498.386 1699.91,710.854 1700.44,710.969 1700.96,663.156 1701.48,663.35 1702,684.95 1702.52,685.126 1703.04,585.914 1703.56,586.002 1704.09,575.754 1704.61,576.079 1705.13,532.325 1705.65,532.523 1706.17,682.141 1706.69,682.314 1707.21,379.594 1707.74,379.962 1708.26,684.294 1708.78,684.414 1709.3,569.55 1709.82,569.67 1710.34,559.273 1710.86,559.367 1711.39,517.968 1711.91,518.212 1712.43,648.179 1712.95,648.297 1713.47,573.01 1713.99,573.24 1714.51,746.402 1715.04,746.543 1715.56,464.654 1716.08,464.978 1716.6,681.673 1717.12,681.793 1717.64,600.563 1718.16,600.678 1718.69,505.442 1719.21,505.675 1719.73,422.163 1720.25,422.439 1720.77,648.564 1721.29,648.793 1721.81,687.495 1722.34,687.604 1722.86,622.13 1723.38,622.214 1723.9,578.247 1724.42,578.414 1724.94,459.456 1725.46,459.883 1725.99,612.419 1726.51,612.6 1727.03,650.338 1727.55,650.53 1728.07,564.878 1728.59,564.969 1729.11,656.995 1729.64,657.159 1730.16,576.087 1730.68,576.17 1731.2,483.712 1731.72,483.891 1732.24,635.443 1732.76,635.562 1733.29,594.636 1733.81,594.801 1734.33,487.23 1734.85,487.4 1735.37,483.606 1735.89,483.869 1736.41,688.103 1736.94,688.231 1737.46,697.02 1737.98,697.143 1738.5,493.027 1739.02,493.228 1739.54,506.503 1740.06,506.779 1740.59,644.145 1741.11,644.289 1741.63,459.77 1742.15,460.054 1742.67,586.373 1743.19,586.522 1743.71,551.8 1744.24,552.016 1744.76,491.921 1745.28,492.088 1745.8,609.567 1746.32,609.827 1746.84,425.426 1747.36,425.636 1747.89,533.13 1748.41,533.375 1748.93,574.699 1749.45,574.907 1749.97,531.192 1750.49,531.405 1751.01,676.244 1751.54,676.39 1752.06,541.557 1752.58,541.711 1753.1,456.251 1753.62,456.466 1754.14,495.374 1754.66,495.779 1755.19,667.145 1755.71,667.238 1756.23,645.041 1756.75,645.139 1757.27,543.173 1757.79,543.299 1758.32,611.18 1758.84,611.375 1759.36,681.125 1759.88,681.26 1760.4,609.973 1760.92,610.092 1761.44,572.885 1761.97,573.074 1762.49,602.29 1763.01,602.386 1763.53,626.219 1764.05,626.377 1764.57,706.674 1765.09,706.738 1765.62,580.888 1766.14,580.997 1766.66,688.994 1767.18,689.123 1767.7,536.078 1768.22,536.267 1768.74,640.841 1769.27,640.989 1769.79,533.537 1770.31,533.806 1770.83,619.693 1771.35,619.86 1771.87,635.671 1772.39,635.856 1772.92,562.188 1773.44,562.363 1773.96,605.841 1774.48,606.033 1775,616.811 1775.52,616.918 1776.04,558.552 1776.57,558.646 1777.09,603.508 1777.61,603.631 1778.13,571.725 1778.65,571.949 1779.17,501.396 1779.69,501.709 1780.22,677.477 1780.74,677.727 1781.26,482.896 1781.78,483.094 1782.3,487.153 1782.82,487.264 1783.34,639.064 1783.87,639.226 1784.39,552.251 1784.91,552.437 1785.43,547.935 1785.95,548.087 1786.47,518.235 1786.99,518.392 1787.52,525.505 1788.04,525.644 1788.56,655.796 1789.08,656.02 1789.6,500.47 1790.12,500.683 1790.64,537.898 1791.17,538.09 1791.69,429.734 1792.21,429.919 1792.73,716.184 1793.25,716.313 1793.77,587.415 1794.29,587.587 1794.82,661.853 1795.34,661.945 1795.86,726.431 1796.38,726.634 1796.9,527.916 1797.42,528.234 1797.94,544.111 1798.47,544.269 1798.99,583.51 1799.51,583.706 1800.03,439.462 1800.55,439.768 1801.07,554.274 1801.59,554.447 1802.12,681.619 1802.64,681.718 1803.16,501.68 1803.68,501.864 1804.2,614.9 1804.72,615.075 1805.24,562.266 1805.77,562.441 1806.29,586.298 1806.81,586.529 1807.33,517.262 1807.85,517.459 1808.37,449.422 1808.89,449.633 1809.42,562.894 1809.94,563.067 1810.46,455.401 1810.98,455.673 1811.5,485.282 1812.02,485.422 1812.54,502.317 1813.07,502.547 1813.59,692.519 1814.11,692.842 1814.63,651.218 1815.15,651.375 1815.67,552.261 1816.19,552.38 1816.72,336.643 1817.24,336.899 1817.76,561.839 1818.28,561.954 1818.8,760.07 1819.32,760.21 1819.84,567.088 1820.37,567.202 1820.89,550.951 1821.41,551.053 1821.93,573.202 1822.45,573.35 1822.97,567.065 1823.49,567.252 1824.02,575.958 1824.54,576.07 1825.06,562.592 1825.58,562.801 1826.1,575.519 1826.62,575.688 1827.15,569.564 1827.67,569.704 1828.19,595.198 1828.71,595.271 1829.23,498.747 1829.75,498.974 1830.27,522.422 1830.8,522.556 1831.32,435.898 1831.84,436.087 1832.36,733.327 1832.88,733.533 1833.4,481.354 1833.92,481.473 1834.45,652.993 1834.97,653.127 1835.49,532.507 1836.01,532.688 1836.53,666.221 1837.05,666.35 1837.57,624.662 1838.1,624.778 1838.62,496.331 1839.14,496.537 1839.66,553.306 1840.18,553.466 1840.7,526.792 1841.22,527.004 1841.75,465.527 1842.27,465.77 1842.79,487.491 1843.31,487.648 1843.83,507.455 1844.35,507.578 1844.87,364.979 1845.4,365.299 1845.92,466.433 1846.44,466.594 1846.96,413.476 1847.48,413.597 1848,614.513 1848.52,614.754 1849.05,485.813 1849.57,485.969 1850.09,498.999 1850.61,499.148 1851.13,570.071 1851.65,570.166 1852.17,491.901 1852.7,492.152 1853.22,533.358 1853.74,533.511 1854.26,504.757 1854.78,504.944 1855.3,633.361 1855.82,633.604 1856.35,682.099 1856.87,682.202 1857.39,429.222 1857.91,429.396 1858.43,516.493 1858.95,516.639 1859.47,578.318 1860,578.51 1860.52,496.577 1861.04,496.772 1861.56,468.88 1862.08,469.026 1862.6,432.037 1863.12,432.239 1863.65,507.755 1864.17,507.966 1864.69,493.242 1865.21,493.404 1865.73,557.265 1866.25,557.432 1866.77,557.849 1867.3,557.967 1867.82,437.251 1868.34,437.452 1868.86,611.22 1869.38,611.459 1869.9,412.381 1870.42,412.604 1870.95,545.007 1871.47,545.15 1871.99,510.866 1872.51,511.047 1873.03,434.565 1873.55,434.812 1874.07,547.539 1874.6,547.666 1875.12,507.413 1875.64,507.589 1876.16,632.966 1876.68,633.119 1877.2,442.426 1877.72,442.724 1878.25,524.851 1878.77,525.044 1879.29,602.853 1879.81,603.066 1880.33,466.481 1880.85,466.72 1881.37,536.484 1881.9,536.667 1882.42,529.431 1882.94,529.647 1883.46,476.928 1883.98,477.177 1884.5,582.638 1885.02,582.72 1885.55,538.09 1886.07,538.268 1886.59,424.003 1887.11,424.192 1887.63,526.596 1888.15,526.727 1888.67,577.65 1889.2,577.82 1889.72,536.815 1890.24,536.948 1890.76,691.27 1891.28,691.553 1891.8,546.285 1892.32,546.47 1892.85,506.403 1893.37,506.548 1893.89,556.632 1894.41,556.845 1894.93,550.424 1895.45,550.575 1895.98,498.239 1896.5,498.397 1897.02,525.825 1897.54,526.006 1898.06,429.99 1898.58,430.193 1899.1,460.693 1899.63,460.858 1900.15,596.682 1900.67,596.883 1901.19,589.2 1901.71,589.339 1902.23,557.514 1902.75,557.738 1903.28,512.567 1903.8,512.697 1904.32,475.387 1904.84,475.541 1905.36,608.712 1905.88,608.847 1906.4,392.275 1906.93,392.487 1907.45,488.205 1907.97,488.458 1908.49,478.749 1909.01,478.885 1909.53,458.752 1910.05,458.851 1910.58,491.088 1911.1,491.227 1911.62,635.993 1912.14,636.138 1912.66,445.646 1913.18,445.757 1913.7,489.591 1914.23,489.782 1914.75,539.244 1915.27,539.516 1915.79,506.439 1916.31,506.561 1916.83,481.738 1917.35,481.907 1917.88,436.905 1918.4,437.072 1918.92,415.964 1919.44,416.208 1919.96,399.218 1920.48,399.396 1921,405.345 1921.53,405.615 1922.05,601.22 1922.57,601.457 1923.09,492.143 1923.61,492.378 1924.13,649.358 1924.65,649.442 1925.18,544.233 1925.7,544.34 1926.22,614.97 1926.74,615.159 1927.26,504.485 1927.78,504.769 1928.3,345.786 1928.83,345.942 1929.35,467.568 1929.87,467.738 1930.39,463.738 1930.91,463.949 1931.43,400.565 1931.95,400.878 1932.48,511.665 1933,511.903 1933.52,489.57 1934.04,489.755 1934.56,423.252 1935.08,423.391 1935.6,634.329 1936.13,634.483 1936.65,508.34 1937.17,508.461 1937.69,417.76 1938.21,418.015 1938.73,449.637 1939.25,449.915 1939.78,552.775 1940.3,552.99 1940.82,582.474 1941.34,582.604 1941.86,508.041 1942.38,508.211 1942.9,418.779 1943.43,418.96 1943.95,382.595 1944.47,382.768 1944.99,490.907 1945.51,491.146 1946.03,402.549 1946.55,402.781 1947.08,308.561 1947.6,308.747 1948.12,423.712 1948.64,423.994 1949.16,462.458 1949.68,462.669 1950.2,454.935 1950.73,455.083 1951.25,389.031 1951.77,389.25 1952.29,562.265 1952.81,562.409 1953.33,569.065 1953.85,569.253 1954.38,352.659 1954.9,352.87 1955.42,547.301 1955.94,547.493 1956.46,596.52 1956.98,596.676 1957.5,544.876 1958.03,545.079 1958.55,619.303 1959.07,619.485 1959.59,473.67 1960.11,473.889 1960.63,468.591 1961.15,468.751 1961.68,523.246 1962.2,523.512 1962.72,417.819 1963.24,418.059 1963.76,620.128 1964.28,620.263 1964.81,547.65 1965.33,547.758 1965.85,586.694 1966.37,586.847 1966.89,289.4 1967.41,289.634 1967.93,521.667 1968.46,521.846 1968.98,410.201 1969.5,410.381 1970.02,521.342 1970.54,521.658 1971.06,476.406 1971.58,476.614 1972.11,532.162 1972.63,532.27 1973.15,503.835 1973.67,503.933 1974.19,451.577 1974.71,451.856 1975.23,449.444 1975.76,449.568 1976.28,484.958 1976.8,485.154 1977.32,490.165 1977.84,490.315 1978.36,660.196 1978.88,660.319 1979.41,655.445 1979.93,655.601 1980.45,499.054 1980.97,499.211 1981.49,371.373 1982.01,371.661 1982.53,454.91 1983.06,455.021 1983.58,384.035 1984.1,384.245 1984.62,556.353 1985.14,556.523 1985.66,466.091 1986.18,466.244 1986.71,547.841 1987.23,547.979 1987.75,486.559 1988.27,486.828 1988.79,492.119 1989.31,492.339 1989.83,548.646 1990.36,548.858 1990.88,597.817 1991.4,597.914 1991.92,568.2 1992.44,568.35 1992.96,439.764 1993.48,439.994 1994.01,512.271 1994.53,512.493 1995.05,488.38 1995.57,488.548 1996.09,561.253 1996.61,561.398 1997.13,495.47 1997.66,495.611 1998.18,368.387 1998.7,368.56 1999.22,599.797 1999.74,599.884 2000.26,379.5 2000.78,379.686 2001.31,420.492 2001.83,420.668 2002.35,513.575 2002.87,513.887 2003.39,489.681 2003.91,489.85 2004.43,471.681 2004.96,471.916 2005.48,488.276 2006,488.416 2006.52,524.882 2007.04,525.179 2007.56,585.143 2008.08,585.346 2008.61,345.137 2009.13,345.365 2009.65,403.421 2010.17,403.586 2010.69,396.014 2011.21,396.177 2011.73,372.872 2012.26,373.11 2012.78,477.609 2013.3,477.796 2013.82,414.674 2014.34,414.877 2014.86,448.621 2015.38,448.841 2015.91,302.65 2016.43,302.887 2016.95,452.041 2017.47,452.185 2017.99,550.124 2018.51,550.32 2019.03,617.962 2019.56,618.121 2020.08,522.974 2020.6,523.288 2021.12,526.029 2021.64,526.15 2022.16,571.044 2022.68,571.193 2023.21,493.978 2023.73,494.057 2024.25,571.094 2024.77,571.213 2025.29,513.671 2025.81,513.937 2026.33,543.557 2026.86,543.626 2027.38,550.129 2027.9,550.241 2028.42,380.231 2028.94,380.465 2029.46,429.519 2029.98,429.77 2030.51,449.584 2031.03,449.727 2031.55,424.017 2032.07,424.205 2032.59,421.442 2033.11,421.653 2033.64,459.094 2034.16,459.334 2034.68,480.361 2035.2,480.513 2035.72,531.765 2036.24,531.981 2036.76,460.066 2037.29,460.218 2037.81,235.596 2038.33,235.912 2038.85,407.587 2039.37,407.841 2039.89,489.356 2040.41,489.577 2040.94,460.69 2041.46,460.825 2041.98,543.672 2042.5,543.797 2043.02,488.023 2043.54,488.32 2044.06,477.343 2044.59,477.443 2045.11,497.18 2045.63,497.3 2046.15,411.592 2046.67,411.785 2047.19,330.805 2047.71,331.052 2048.24,466.223 2048.76,466.36 2049.28,370.41 2049.8,370.5 2050.32,531.841 2050.84,532.019 2051.36,491.711 2051.89,491.935 2052.41,408.026 2052.93,408.135 2053.45,391.42 2053.97,391.608 2054.49,415.778 2055.01,415.96 2055.54,485.714 2056.06,485.9 2056.58,561.636 2057.1,561.82 2057.62,503.363 2058.14,503.601 2058.66,506.886 2059.19,507.09 2059.71,540.453 2060.23,540.705 2060.75,449.26 2061.27,449.474 2061.79,398.053 2062.31,398.24 2062.84,400.309 2063.36,400.444 2063.88,481.146 2064.4,481.259 2064.92,221.677 2065.44,221.828 2065.96,471.106 2066.49,471.266 2067.01,450.343 2067.53,450.443 2068.05,534.932 2068.57,535.118 2069.09,429.028 2069.61,429.171 2070.14,499.576 2070.66,499.748 2071.18,297.488 2071.7,297.695 2072.22,392.756 2072.74,393.005 2073.26,428.362 2073.79,428.567 2074.31,449.087 2074.83,449.19 2075.35,508.809 2075.87,508.992 2076.39,523.416 2076.91,523.619 2077.44,339.603 2077.96,339.838 2078.48,313.749 2079,314.019 2079.52,344.175 2080.04,344.439 2080.56,393 2081.09,393.183 2081.61,558.1 2082.13,558.178 2082.65,426.968 2083.17,427.109 2083.69,298.906 2084.21,299.285 2084.74,514.653 2085.26,514.794 2085.78,468.742 2086.3,468.916 2086.82,374.924 2087.34,375.084 2087.86,390.534 2088.39,390.82 2088.91,394.727 2089.43,394.94 2089.95,533.939 2090.47,534.088 2090.99,222.264 2091.51,222.452 2092.04,444.898 2092.56,445.06 2093.08,160.33 2093.6,160.629 2094.12,327.573 2094.64,327.804 2095.16,432.156 2095.69,432.329 2096.21,389.553 2096.73,389.719 2097.25,415.73 2097.77,415.937 2098.29,403.864 2098.81,404.07 2099.34,417.483 2099.86,417.857 2100.38,425.76 2100.9,425.919 2101.42,395.312 2101.94,395.459 2102.47,491.79 2102.99,492.011 2103.51,481.052 2104.03,481.353 2104.55,401.208 2105.07,401.466 2105.59,397.03 2106.12,397.162 2106.64,455.712 2107.16,456 2107.68,302.261 2108.2,302.535 2108.72,482.823 2109.24,482.947 2109.77,497.742 2110.29,497.835 2110.81,290.456 2111.33,290.672 2111.85,341.802 2112.37,342.101 2112.89,389.89 2113.42,390.027 2113.94,329.23 2114.46,329.352 2114.98,498.726 2115.5,498.929 2116.02,442.98 2116.54,443.118 2117.07,379.992 2117.59,380.311 2118.11,519.044 2118.63,519.229 2119.15,534.312 2119.67,534.457 2120.19,558.423 2120.72,558.63 2121.24,419.088 2121.76,419.329 2122.28,463.728 2122.8,463.983 2123.32,362.992 2123.84,363.27 2124.37,446.413 2124.89,446.545 2125.41,312.365 2125.93,312.652 2126.45,402.932 2126.97,403.109 2127.49,301.692 2128.02,301.835 2128.54,399.763 2129.06,399.994 2129.58,373.413 2130.1,373.554 2130.62,402.316 2131.14,402.492 2131.67,505.471 2132.19,505.665 2132.71,339.252 2133.23,339.405 2133.75,482.774 2134.27,483.058 2134.79,355.602 2135.32,355.809 2135.84,441.863 2136.36,441.983 2136.88,363.317 2137.4,363.461 2137.92,492.124 2138.44,492.241 2138.97,330.345 2139.49,330.48 2140.01,271.78 2140.53,271.966 2141.05,436.67 2141.57,436.877 2142.09,453.448 2142.62,453.609 2143.14,438.804 2143.66,438.944 2144.18,464.889 2144.7,465.104 2145.22,299.791 2145.74,300.158 2146.27,372.098 2146.79,372.326 2147.31,481.186 2147.83,481.332 2148.35,352.56 2148.87,352.693 2149.39,392.975 2149.92,393.174 2150.44,235.245 2150.96,235.531 2151.48,434.692 2152,434.955 2152.52,471.933 2153.04,472.111 2153.57,434.762 2154.09,434.938 2154.61,533.715 2155.13,533.882 2155.65,339.212 2156.17,339.592 2156.69,364.493 2157.22,364.676 2157.74,447.167 2158.26,447.443 2158.78,572.655 2159.3,572.767 2159.82,438.264 2160.34,438.508 2160.87,301.023 2161.39,301.23 2161.91,444.481 2162.43,444.669 2162.95,287.305 2163.47,287.442 2163.99,485.232 2164.52,485.412 2165.04,402.921 2165.56,403.155 2166.08,434.292 2166.6,434.457 2167.12,459.984 2167.64,460.113 2168.17,476.422 2168.69,476.591 2169.21,450.229 2169.73,450.392 2170.25,557.94 2170.77,558.111 2171.3,559.826 2171.82,559.948 2172.34,443.492 2172.86,443.657 2173.38,411.011 2173.9,411.104 2174.42,359.78 2174.95,359.959 2175.47,269.574 2175.99,269.8 2176.51,384.695 2177.03,384.788 2177.55,516.54 2178.07,516.692 2178.6,439.614 2179.12,439.803 2179.64,463.224 2180.16,463.322 2180.68,397.67 2181.2,397.863 2181.72,445.585 2182.25,445.709 2182.77,323.287 2183.29,323.529 2183.81,443.551 2184.33,443.849 2184.85,368.384 2185.37,368.51 2185.9,338.956 2186.42,339.131 2186.94,520.309 2187.46,520.501 2187.98,383.572 2188.5,383.748 2189.02,468.828 2189.55,469.011 2190.07,416.967 2190.59,417.15 2191.11,381.123 2191.63,381.368 2192.15,499.833 2192.67,499.927 2193.2,440.143 2193.72,440.558 2194.24,490.707 2194.76,490.873 2195.28,420.805 2195.8,420.978 2196.32,421.355 2196.85,421.556 2197.37,487.107 2197.89,487.198 2198.41,388.226 2198.93,388.398 2199.45,364.886 2199.97,365.079 2200.5,358.864 2201.02,359.096 2201.54,342.407 2202.06,342.684 2202.58,441.941 2203.1,442.155 2203.62,418.984 2204.15,419.171 2204.67,327.027 2205.19,327.19 2205.71,284.556 2206.23,284.753 2206.75,284.144 2207.27,284.372 2207.8,270.777 2208.32,270.949 2208.84,421.018 2209.36,421.255 2209.88,254.048 2210.4,254.285 2210.92,365.831 2211.45,365.958 2211.97,384.717 2212.49,384.949 2213.01,399.112 2213.53,399.237 2214.05,389.685 2214.57,389.835 2215.1,362.825 2215.62,363.113 2216.14,438.315 2216.66,438.529 2217.18,341.159 2217.7,341.493 2218.22,391.642 2218.75,391.76 2219.27,426.899 2219.79,427.081 2220.31,422.277 2220.83,422.424 2221.35,445.954 2221.87,446.139 2222.4,367.615 2222.92,367.854 2223.44,469.671 2223.96,469.894 2224.48,389.368 2225,389.584 2225.52,357.372 2226.05,357.577 2226.57,355.561 2227.09,355.75 2227.61,355.739 2228.13,355.903 2228.65,466.739 2229.17,466.849 2229.7,299.201 2230.22,299.517 2230.74,334.578 2231.26,334.882 2231.78,310.452 2232.3,310.787 2232.82,239.438 2233.35,239.647 2233.87,259.963 2234.39,260.262 2234.91,357.159 2235.43,357.379 2235.95,273.582 2236.47,273.802 2237,321.544 2237.52,321.742 2238.04,469.799 2238.56,469.902 2239.08,511.845 2239.6,512.015 2240.12,351.394 2240.65,351.525 2241.17,417.332 2241.69,417.49 2242.21,247.368 2242.73,247.558 2243.25,397.283 2243.78,397.618 2244.3,484.754 2244.82,484.897 2245.34,437.871 2245.86,437.971 2246.38,250.17 2246.9,250.42 2247.43,429.82 2247.95,429.932 2248.47,388.694 2248.99,388.865 2249.51,298.047 2250.03,298.219 2250.55,492.267 2251.08,492.408 2251.6,378.368 2252.12,378.481 2252.64,526.622 2253.16,526.73 2253.68,421.907 2254.2,422.067 2254.73,390.49 2255.25,390.639 2255.77,358.387 2256.29,358.552 2256.81,292.786 2257.33,292.915 2257.85,398.301 2258.38,398.473 2258.9,305.65 2259.42,305.883 2259.94,408.781 2260.46,408.895 2260.98,392.508 2261.5,392.744 2262.03,360.685 2262.55,360.944 2263.07,358.132 2263.59,358.359 2264.11,431.793 2264.63,431.961 2265.15,439.913 2265.68,440.109 2266.2,427.371 2266.72,427.589 2267.24,394.132 2267.76,394.413 2268.28,279.134 2268.8,279.4 2269.33,197.39 2269.85,197.688 2270.37,306.602 2270.89,306.903 2271.41,306.227 2271.93,306.417 2272.45,454.629 2272.98,454.762 2273.5,378.739 2274.02,378.906 2274.54,87.9763 2275.06,88.2574 2275.58,279.789 2276.1,279.948 2276.63,295.443 2277.15,295.74 2277.67,379.734 2278.19,379.933 2278.71,381.306 2279.23,381.557 2279.75,410.151 2280.28,410.221 2280.8,323.082 2281.32,323.303 2281.84,322.8 2282.36,322.938 2282.88,476.263 2283.4,476.463 2283.93,480.04 2284.45,480.267 2284.97,416.963 2285.49,417.133 2286.01,389.556 2286.53,389.789 2287.05,430.944 2287.58,431.194 2288.1,421.172 2288.62,421.277 2289.14,382.671 2289.66,382.867 2290.18,383.058 "/>
<path clip-path="url(#clip290)" d="M215.55 198.898 L489.07 198.898 L489.07 95.2176 L215.55 95.2176  Z" fill="#ffffff" fill-rule="evenodd" fill-opacity="1"/>
<polyline clip-path="url(#clip290)" style="stroke:#000000; stroke-linecap:round; stroke-linejoin:round; stroke-width:4; stroke-opacity:1; fill:none" points="215.55,198.898 489.07,198.898 489.07,95.2176 215.55,95.2176 215.55,198.898 "/>
<polyline clip-path="url(#clip290)" style="stroke:#009af9; stroke-linecap:round; stroke-linejoin:round; stroke-width:4; stroke-opacity:1; fill:none" points="240.115,147.058 387.509,147.058 "/>
<path clip-path="url(#clip290)" d="M425.917 166.745 Q424.111 171.375 422.398 172.787 Q420.685 174.199 417.815 174.199 L414.412 174.199 L414.412 170.634 L416.912 170.634 Q418.672 170.634 419.644 169.8 Q420.616 168.967 421.797 165.865 L422.56 163.921 L412.074 138.412 L416.588 138.412 L424.69 158.689 L432.792 138.412 L437.306 138.412 L425.917 166.745 Z" fill="#000000" fill-rule="nonzero" fill-opacity="1" /><path clip-path="url(#clip290)" d="M444.597 160.402 L452.236 160.402 L452.236 134.037 L443.926 135.703 L443.926 131.444 L452.19 129.778 L456.866 129.778 L456.866 160.402 L464.505 160.402 L464.505 164.338 L444.597 164.338 L444.597 160.402 Z" fill="#000000" fill-rule="nonzero" fill-opacity="1" /></svg>
