<?xml version="1.0" encoding="utf-8"?>
<svg xmlns="http://www.w3.org/2000/svg" xmlns:xlink="http://www.w3.org/1999/xlink" width="600" height="400" viewBox="0 0 2400 1600">
<defs>
  <clipPath id="clip170">
    <rect x="0" y="0" width="2400" height="1600"/>
  </clipPath>
</defs>
<path clip-path="url(#clip170)" d="M0 1600 L2400 1600 L2400 0 L0 0  Z" fill="#ffffff" fill-rule="evenodd" fill-opacity="1"/>
<defs>
  <clipPath id="clip171">
    <rect x="480" y="0" width="1681" height="1600"/>
  </clipPath>
</defs>
<path clip-path="url(#clip170)" d="M169.121 1486.45 L2352.76 1486.45 L2352.76 47.2441 L169.121 47.2441  Z" fill="#ffffff" fill-rule="evenodd" fill-opacity="1"/>
<defs>
  <clipPath id="clip172">
    <rect x="169" y="47" width="2185" height="1440"/>
  </clipPath>
</defs>
<polyline clip-path="url(#clip172)" style="stroke:#000000; stroke-linecap:round; stroke-linejoin:round; stroke-width:2; stroke-opacity:0.1; fill:none" points="230.922,1486.45 230.922,47.2441 "/>
<polyline clip-path="url(#clip172)" style="stroke:#000000; stroke-linecap:round; stroke-linejoin:round; stroke-width:2; stroke-opacity:0.1; fill:none" points="745.93,1486.45 745.93,47.2441 "/>
<polyline clip-path="url(#clip172)" style="stroke:#000000; stroke-linecap:round; stroke-linejoin:round; stroke-width:2; stroke-opacity:0.1; fill:none" points="1260.94,1486.45 1260.94,47.2441 "/>
<polyline clip-path="url(#clip172)" style="stroke:#000000; stroke-linecap:round; stroke-linejoin:round; stroke-width:2; stroke-opacity:0.1; fill:none" points="1775.95,1486.45 1775.95,47.2441 "/>
<polyline clip-path="url(#clip172)" style="stroke:#000000; stroke-linecap:round; stroke-linejoin:round; stroke-width:2; stroke-opacity:0.1; fill:none" points="2290.95,1486.45 2290.95,47.2441 "/>
<polyline clip-path="url(#clip170)" style="stroke:#000000; stroke-linecap:round; stroke-linejoin:round; stroke-width:4; stroke-opacity:1; fill:none" points="169.121,1486.45 2352.76,1486.45 "/>
<polyline clip-path="url(#clip170)" style="stroke:#000000; stroke-linecap:round; stroke-linejoin:round; stroke-width:4; stroke-opacity:1; fill:none" points="230.922,1486.45 230.922,1467.55 "/>
<polyline clip-path="url(#clip170)" style="stroke:#000000; stroke-linecap:round; stroke-linejoin:round; stroke-width:4; stroke-opacity:1; fill:none" points="745.93,1486.45 745.93,1467.55 "/>
<polyline clip-path="url(#clip170)" style="stroke:#000000; stroke-linecap:round; stroke-linejoin:round; stroke-width:4; stroke-opacity:1; fill:none" points="1260.94,1486.45 1260.94,1467.55 "/>
<polyline clip-path="url(#clip170)" style="stroke:#000000; stroke-linecap:round; stroke-linejoin:round; stroke-width:4; stroke-opacity:1; fill:none" points="1775.95,1486.45 1775.95,1467.55 "/>
<polyline clip-path="url(#clip170)" style="stroke:#000000; stroke-linecap:round; stroke-linejoin:round; stroke-width:4; stroke-opacity:1; fill:none" points="2290.95,1486.45 2290.95,1467.55 "/>
<path clip-path="url(#clip170)" d="M230.922 1517.37 Q227.311 1517.37 225.483 1520.93 Q223.677 1524.47 223.677 1531.6 Q223.677 1538.71 225.483 1542.27 Q227.311 1545.82 230.922 1545.82 Q234.557 1545.82 236.362 1542.27 Q238.191 1538.71 238.191 1531.6 Q238.191 1524.47 236.362 1520.93 Q234.557 1517.37 230.922 1517.37 M230.922 1513.66 Q236.732 1513.66 239.788 1518.27 Q242.867 1522.85 242.867 1531.6 Q242.867 1540.33 239.788 1544.94 Q236.732 1549.52 230.922 1549.52 Q225.112 1549.52 222.033 1544.94 Q218.978 1540.33 218.978 1531.6 Q218.978 1522.85 222.033 1518.27 Q225.112 1513.66 230.922 1513.66 Z" fill="#000000" fill-rule="nonzero" fill-opacity="1" /><path clip-path="url(#clip170)" d="M690.456 1544.91 L698.095 1544.91 L698.095 1518.55 L689.785 1520.21 L689.785 1515.95 L698.049 1514.29 L702.725 1514.29 L702.725 1544.91 L710.364 1544.91 L710.364 1548.85 L690.456 1548.85 L690.456 1544.91 Z" fill="#000000" fill-rule="nonzero" fill-opacity="1" /><path clip-path="url(#clip170)" d="M729.808 1517.37 Q726.197 1517.37 724.368 1520.93 Q722.563 1524.47 722.563 1531.6 Q722.563 1538.71 724.368 1542.27 Q726.197 1545.82 729.808 1545.82 Q733.442 1545.82 735.248 1542.27 Q737.076 1538.71 737.076 1531.6 Q737.076 1524.47 735.248 1520.93 Q733.442 1517.37 729.808 1517.37 M729.808 1513.66 Q735.618 1513.66 738.674 1518.27 Q741.752 1522.85 741.752 1531.6 Q741.752 1540.33 738.674 1544.94 Q735.618 1549.52 729.808 1549.52 Q723.998 1549.52 720.919 1544.94 Q717.863 1540.33 717.863 1531.6 Q717.863 1522.85 720.919 1518.27 Q723.998 1513.66 729.808 1513.66 Z" fill="#000000" fill-rule="nonzero" fill-opacity="1" /><path clip-path="url(#clip170)" d="M759.97 1517.37 Q756.359 1517.37 754.53 1520.93 Q752.724 1524.47 752.724 1531.6 Q752.724 1538.71 754.53 1542.27 Q756.359 1545.82 759.97 1545.82 Q763.604 1545.82 765.41 1542.27 Q767.238 1538.71 767.238 1531.6 Q767.238 1524.47 765.41 1520.93 Q763.604 1517.37 759.97 1517.37 M759.97 1513.66 Q765.78 1513.66 768.835 1518.27 Q771.914 1522.85 771.914 1531.6 Q771.914 1540.33 768.835 1544.94 Q765.78 1549.52 759.97 1549.52 Q754.16 1549.52 751.081 1544.94 Q748.025 1540.33 748.025 1531.6 Q748.025 1522.85 751.081 1518.27 Q754.16 1513.66 759.97 1513.66 Z" fill="#000000" fill-rule="nonzero" fill-opacity="1" /><path clip-path="url(#clip170)" d="M790.132 1517.37 Q786.521 1517.37 784.692 1520.93 Q782.886 1524.47 782.886 1531.6 Q782.886 1538.71 784.692 1542.27 Q786.521 1545.82 790.132 1545.82 Q793.766 1545.82 795.571 1542.27 Q797.4 1538.71 797.4 1531.6 Q797.4 1524.47 795.571 1520.93 Q793.766 1517.37 790.132 1517.37 M790.132 1513.66 Q795.942 1513.66 798.997 1518.27 Q802.076 1522.85 802.076 1531.6 Q802.076 1540.33 798.997 1544.94 Q795.942 1549.52 790.132 1549.52 Q784.321 1549.52 781.243 1544.94 Q778.187 1540.33 778.187 1531.6 Q778.187 1522.85 781.243 1518.27 Q784.321 1513.66 790.132 1513.66 Z" fill="#000000" fill-rule="nonzero" fill-opacity="1" /><path clip-path="url(#clip170)" d="M1209.55 1544.91 L1225.87 1544.91 L1225.87 1548.85 L1203.93 1548.85 L1203.93 1544.91 Q1206.59 1542.16 1211.17 1537.53 Q1215.78 1532.88 1216.96 1531.53 Q1219.2 1529.01 1220.08 1527.27 Q1220.99 1525.51 1220.99 1523.82 Q1220.99 1521.07 1219.04 1519.33 Q1217.12 1517.6 1214.02 1517.6 Q1211.82 1517.6 1209.36 1518.36 Q1206.93 1519.13 1204.16 1520.68 L1204.16 1515.95 Q1206.98 1514.82 1209.43 1514.24 Q1211.89 1513.66 1213.92 1513.66 Q1219.3 1513.66 1222.49 1516.35 Q1225.68 1519.03 1225.68 1523.52 Q1225.68 1525.65 1224.87 1527.57 Q1224.09 1529.47 1221.98 1532.07 Q1221.4 1532.74 1218.3 1535.95 Q1215.2 1539.15 1209.55 1544.91 Z" fill="#000000" fill-rule="nonzero" fill-opacity="1" /><path clip-path="url(#clip170)" d="M1245.68 1517.37 Q1242.07 1517.37 1240.24 1520.93 Q1238.44 1524.47 1238.44 1531.6 Q1238.44 1538.71 1240.24 1542.27 Q1242.07 1545.82 1245.68 1545.82 Q1249.32 1545.82 1251.12 1542.27 Q1252.95 1538.71 1252.95 1531.6 Q1252.95 1524.47 1251.12 1520.93 Q1249.32 1517.37 1245.68 1517.37 M1245.68 1513.66 Q1251.49 1513.66 1254.55 1518.27 Q1257.63 1522.85 1257.63 1531.6 Q1257.63 1540.33 1254.55 1544.94 Q1251.49 1549.52 1245.68 1549.52 Q1239.87 1549.52 1236.8 1544.94 Q1233.74 1540.33 1233.74 1531.6 Q1233.74 1522.85 1236.8 1518.27 Q1239.87 1513.66 1245.68 1513.66 Z" fill="#000000" fill-rule="nonzero" fill-opacity="1" /><path clip-path="url(#clip170)" d="M1275.85 1517.37 Q1272.23 1517.37 1270.41 1520.93 Q1268.6 1524.47 1268.6 1531.6 Q1268.6 1538.71 1270.41 1542.27 Q1272.23 1545.82 1275.85 1545.82 Q1279.48 1545.82 1281.29 1542.27 Q1283.11 1538.71 1283.11 1531.6 Q1283.11 1524.47 1281.29 1520.93 Q1279.48 1517.37 1275.85 1517.37 M1275.85 1513.66 Q1281.66 1513.66 1284.71 1518.27 Q1287.79 1522.85 1287.79 1531.6 Q1287.79 1540.33 1284.71 1544.94 Q1281.66 1549.52 1275.85 1549.52 Q1270.04 1549.52 1266.96 1544.94 Q1263.9 1540.33 1263.9 1531.6 Q1263.9 1522.85 1266.96 1518.27 Q1270.04 1513.66 1275.85 1513.66 Z" fill="#000000" fill-rule="nonzero" fill-opacity="1" /><path clip-path="url(#clip170)" d="M1306.01 1517.37 Q1302.4 1517.37 1300.57 1520.93 Q1298.76 1524.47 1298.76 1531.6 Q1298.76 1538.71 1300.57 1542.27 Q1302.4 1545.82 1306.01 1545.82 Q1309.64 1545.82 1311.45 1542.27 Q1313.28 1538.71 1313.28 1531.6 Q1313.28 1524.47 1311.45 1520.93 Q1309.64 1517.37 1306.01 1517.37 M1306.01 1513.66 Q1311.82 1513.66 1314.87 1518.27 Q1317.95 1522.85 1317.95 1531.6 Q1317.95 1540.33 1314.87 1544.94 Q1311.82 1549.52 1306.01 1549.52 Q1300.2 1549.52 1297.12 1544.94 Q1294.06 1540.33 1294.06 1531.6 Q1294.06 1522.85 1297.12 1518.27 Q1300.2 1513.66 1306.01 1513.66 Z" fill="#000000" fill-rule="nonzero" fill-opacity="1" /><path clip-path="url(#clip170)" d="M1734.63 1530.21 Q1737.98 1530.93 1739.86 1533.2 Q1741.76 1535.47 1741.76 1538.8 Q1741.76 1543.92 1738.24 1546.72 Q1734.72 1549.52 1728.24 1549.52 Q1726.06 1549.52 1723.75 1549.08 Q1721.46 1548.66 1719 1547.81 L1719 1543.29 Q1720.95 1544.43 1723.26 1545.01 Q1725.58 1545.58 1728.1 1545.58 Q1732.5 1545.58 1734.79 1543.85 Q1737.1 1542.11 1737.1 1538.8 Q1737.1 1535.75 1734.95 1534.03 Q1732.82 1532.3 1729 1532.3 L1724.97 1532.3 L1724.97 1528.45 L1729.19 1528.45 Q1732.64 1528.45 1734.47 1527.09 Q1736.29 1525.7 1736.29 1523.11 Q1736.29 1520.45 1734.4 1519.03 Q1732.52 1517.6 1729 1517.6 Q1727.08 1517.6 1724.88 1518.01 Q1722.68 1518.43 1720.04 1519.31 L1720.04 1515.14 Q1722.71 1514.4 1725.02 1514.03 Q1727.36 1513.66 1729.42 1513.66 Q1734.74 1513.66 1737.85 1516.09 Q1740.95 1518.5 1740.95 1522.62 Q1740.95 1525.49 1739.3 1527.48 Q1737.66 1529.45 1734.63 1530.21 Z" fill="#000000" fill-rule="nonzero" fill-opacity="1" /><path clip-path="url(#clip170)" d="M1760.62 1517.37 Q1757.01 1517.37 1755.18 1520.93 Q1753.38 1524.47 1753.38 1531.6 Q1753.38 1538.71 1755.18 1542.27 Q1757.01 1545.82 1760.62 1545.82 Q1764.26 1545.82 1766.06 1542.27 Q1767.89 1538.71 1767.89 1531.6 Q1767.89 1524.47 1766.06 1520.93 Q1764.26 1517.37 1760.62 1517.37 M1760.62 1513.66 Q1766.43 1513.66 1769.49 1518.27 Q1772.57 1522.85 1772.57 1531.6 Q1772.57 1540.33 1769.49 1544.94 Q1766.43 1549.52 1760.62 1549.52 Q1754.81 1549.52 1751.73 1544.94 Q1748.68 1540.33 1748.68 1531.6 Q1748.68 1522.85 1751.73 1518.27 Q1754.81 1513.66 1760.62 1513.66 Z" fill="#000000" fill-rule="nonzero" fill-opacity="1" /><path clip-path="url(#clip170)" d="M1790.78 1517.37 Q1787.17 1517.37 1785.34 1520.93 Q1783.54 1524.47 1783.54 1531.6 Q1783.54 1538.71 1785.34 1542.27 Q1787.17 1545.82 1790.78 1545.82 Q1794.42 1545.82 1796.22 1542.27 Q1798.05 1538.71 1798.05 1531.6 Q1798.05 1524.47 1796.22 1520.93 Q1794.42 1517.37 1790.78 1517.37 M1790.78 1513.66 Q1796.59 1513.66 1799.65 1518.27 Q1802.73 1522.85 1802.73 1531.6 Q1802.73 1540.33 1799.65 1544.94 Q1796.59 1549.52 1790.78 1549.52 Q1784.97 1549.52 1781.9 1544.94 Q1778.84 1540.33 1778.84 1531.6 Q1778.84 1522.85 1781.9 1518.27 Q1784.97 1513.66 1790.78 1513.66 Z" fill="#000000" fill-rule="nonzero" fill-opacity="1" /><path clip-path="url(#clip170)" d="M1820.95 1517.37 Q1817.34 1517.37 1815.51 1520.93 Q1813.7 1524.47 1813.7 1531.6 Q1813.7 1538.71 1815.51 1542.27 Q1817.34 1545.82 1820.95 1545.82 Q1824.58 1545.82 1826.39 1542.27 Q1828.22 1538.71 1828.22 1531.6 Q1828.22 1524.47 1826.39 1520.93 Q1824.58 1517.37 1820.95 1517.37 M1820.95 1513.66 Q1826.76 1513.66 1829.81 1518.27 Q1832.89 1522.85 1832.89 1531.6 Q1832.89 1540.33 1829.81 1544.94 Q1826.76 1549.52 1820.95 1549.52 Q1815.14 1549.52 1812.06 1544.94 Q1809 1540.33 1809 1531.6 Q1809 1522.85 1812.06 1518.27 Q1815.14 1513.66 1820.95 1513.66 Z" fill="#000000" fill-rule="nonzero" fill-opacity="1" /><path clip-path="url(#clip170)" d="M2248.96 1518.36 L2237.16 1536.81 L2248.96 1536.81 L2248.96 1518.36 M2247.74 1514.29 L2253.62 1514.29 L2253.62 1536.81 L2258.55 1536.81 L2258.55 1540.7 L2253.62 1540.7 L2253.62 1548.85 L2248.96 1548.85 L2248.96 1540.7 L2233.36 1540.7 L2233.36 1536.19 L2247.74 1514.29 Z" fill="#000000" fill-rule="nonzero" fill-opacity="1" /><path clip-path="url(#clip170)" d="M2276.28 1517.37 Q2272.67 1517.37 2270.84 1520.93 Q2269.03 1524.47 2269.03 1531.6 Q2269.03 1538.71 2270.84 1542.27 Q2272.67 1545.82 2276.28 1545.82 Q2279.91 1545.82 2281.72 1542.27 Q2283.55 1538.71 2283.55 1531.6 Q2283.55 1524.47 2281.72 1520.93 Q2279.91 1517.37 2276.28 1517.37 M2276.28 1513.66 Q2282.09 1513.66 2285.14 1518.27 Q2288.22 1522.85 2288.22 1531.6 Q2288.22 1540.33 2285.14 1544.94 Q2282.09 1549.52 2276.28 1549.52 Q2270.47 1549.52 2267.39 1544.94 Q2264.33 1540.33 2264.33 1531.6 Q2264.33 1522.85 2267.39 1518.27 Q2270.47 1513.66 2276.28 1513.66 Z" fill="#000000" fill-rule="nonzero" fill-opacity="1" /><path clip-path="url(#clip170)" d="M2306.44 1517.37 Q2302.83 1517.37 2301 1520.93 Q2299.2 1524.47 2299.2 1531.6 Q2299.2 1538.71 2301 1542.27 Q2302.83 1545.82 2306.44 1545.82 Q2310.08 1545.82 2311.88 1542.27 Q2313.71 1538.71 2313.71 1531.6 Q2313.71 1524.47 2311.88 1520.93 Q2310.08 1517.37 2306.44 1517.37 M2306.44 1513.66 Q2312.25 1513.66 2315.31 1518.27 Q2318.39 1522.85 2318.39 1531.6 Q2318.39 1540.33 2315.31 1544.94 Q2312.25 1549.52 2306.44 1549.52 Q2300.63 1549.52 2297.55 1544.94 Q2294.5 1540.33 2294.5 1531.6 Q2294.5 1522.85 2297.55 1518.27 Q2300.63 1513.66 2306.44 1513.66 Z" fill="#000000" fill-rule="nonzero" fill-opacity="1" /><path clip-path="url(#clip170)" d="M2336.6 1517.37 Q2332.99 1517.37 2331.16 1520.93 Q2329.36 1524.47 2329.36 1531.6 Q2329.36 1538.71 2331.16 1542.27 Q2332.99 1545.82 2336.6 1545.82 Q2340.24 1545.82 2342.04 1542.27 Q2343.87 1538.71 2343.87 1531.6 Q2343.87 1524.47 2342.04 1520.93 Q2340.24 1517.37 2336.6 1517.37 M2336.6 1513.66 Q2342.41 1513.66 2345.47 1518.27 Q2348.55 1522.85 2348.55 1531.6 Q2348.55 1540.33 2345.47 1544.94 Q2342.41 1549.52 2336.6 1549.52 Q2330.79 1549.52 2327.71 1544.94 Q2324.66 1540.33 2324.66 1531.6 Q2324.66 1522.85 2327.71 1518.27 Q2330.79 1513.66 2336.6 1513.66 Z" fill="#000000" fill-rule="nonzero" fill-opacity="1" /><polyline clip-path="url(#clip172)" style="stroke:#000000; stroke-linecap:round; stroke-linejoin:round; stroke-width:2; stroke-opacity:0.1; fill:none" points="169.121,1445.72 2352.76,1445.72 "/>
<polyline clip-path="url(#clip172)" style="stroke:#000000; stroke-linecap:round; stroke-linejoin:round; stroke-width:2; stroke-opacity:0.1; fill:none" points="169.121,1076.44 2352.76,1076.44 "/>
<polyline clip-path="url(#clip172)" style="stroke:#000000; stroke-linecap:round; stroke-linejoin:round; stroke-width:2; stroke-opacity:0.1; fill:none" points="169.121,707.155 2352.76,707.155 "/>
<polyline clip-path="url(#clip172)" style="stroke:#000000; stroke-linecap:round; stroke-linejoin:round; stroke-width:2; stroke-opacity:0.1; fill:none" points="169.121,337.875 2352.76,337.875 "/>
<polyline clip-path="url(#clip170)" style="stroke:#000000; stroke-linecap:round; stroke-linejoin:round; stroke-width:4; stroke-opacity:1; fill:none" points="169.121,1486.45 169.121,47.2441 "/>
<polyline clip-path="url(#clip170)" style="stroke:#000000; stroke-linecap:round; stroke-linejoin:round; stroke-width:4; stroke-opacity:1; fill:none" points="169.121,1445.72 188.019,1445.72 "/>
<polyline clip-path="url(#clip170)" style="stroke:#000000; stroke-linecap:round; stroke-linejoin:round; stroke-width:4; stroke-opacity:1; fill:none" points="169.121,1076.44 188.019,1076.44 "/>
<polyline clip-path="url(#clip170)" style="stroke:#000000; stroke-linecap:round; stroke-linejoin:round; stroke-width:4; stroke-opacity:1; fill:none" points="169.121,707.155 188.019,707.155 "/>
<polyline clip-path="url(#clip170)" style="stroke:#000000; stroke-linecap:round; stroke-linejoin:round; stroke-width:4; stroke-opacity:1; fill:none" points="169.121,337.875 188.019,337.875 "/>
<path clip-path="url(#clip170)" d="M121.177 1431.51 Q117.566 1431.51 115.737 1435.08 Q113.932 1438.62 113.932 1445.75 Q113.932 1452.86 115.737 1456.42 Q117.566 1459.96 121.177 1459.96 Q124.811 1459.96 126.617 1456.42 Q128.445 1452.86 128.445 1445.75 Q128.445 1438.62 126.617 1435.08 Q124.811 1431.51 121.177 1431.51 M121.177 1427.81 Q126.987 1427.81 130.043 1432.42 Q133.121 1437 133.121 1445.75 Q133.121 1454.48 130.043 1459.08 Q126.987 1463.67 121.177 1463.67 Q115.367 1463.67 112.288 1459.08 Q109.233 1454.48 109.233 1445.75 Q109.233 1437 112.288 1432.42 Q115.367 1427.81 121.177 1427.81 Z" fill="#000000" fill-rule="nonzero" fill-opacity="1" /><path clip-path="url(#clip170)" d="M81.0614 1059.16 L99.4178 1059.16 L99.4178 1063.09 L85.3438 1063.09 L85.3438 1071.56 Q86.3623 1071.22 87.3808 1071.05 Q88.3993 1070.87 89.4178 1070.87 Q95.2049 1070.87 98.5845 1074.04 Q101.964 1077.21 101.964 1082.63 Q101.964 1088.21 98.4919 1091.31 Q95.0197 1094.39 88.7003 1094.39 Q86.5243 1094.39 84.2558 1094.02 Q82.0105 1093.65 79.6031 1092.91 L79.6031 1088.21 Q81.6864 1089.34 83.9086 1089.9 Q86.1308 1090.45 88.6077 1090.45 Q92.6123 1090.45 94.9502 1088.35 Q97.2882 1086.24 97.2882 1082.63 Q97.2882 1079.02 94.9502 1076.91 Q92.6123 1074.8 88.6077 1074.8 Q86.7327 1074.8 84.8577 1075.22 Q83.0058 1075.64 81.0614 1076.52 L81.0614 1059.16 Z" fill="#000000" fill-rule="nonzero" fill-opacity="1" /><path clip-path="url(#clip170)" d="M121.177 1062.23 Q117.566 1062.23 115.737 1065.8 Q113.932 1069.34 113.932 1076.47 Q113.932 1083.58 115.737 1087.14 Q117.566 1090.68 121.177 1090.68 Q124.811 1090.68 126.617 1087.14 Q128.445 1083.58 128.445 1076.47 Q128.445 1069.34 126.617 1065.8 Q124.811 1062.23 121.177 1062.23 M121.177 1058.53 Q126.987 1058.53 130.043 1063.14 Q133.121 1067.72 133.121 1076.47 Q133.121 1085.2 130.043 1089.8 Q126.987 1094.39 121.177 1094.39 Q115.367 1094.39 112.288 1089.8 Q109.233 1085.2 109.233 1076.47 Q109.233 1067.72 112.288 1063.14 Q115.367 1058.53 121.177 1058.53 Z" fill="#000000" fill-rule="nonzero" fill-opacity="1" /><path clip-path="url(#clip170)" d="M51.6634 720.5 L59.3023 720.5 L59.3023 694.135 L50.9921 695.801 L50.9921 691.542 L59.256 689.875 L63.9319 689.875 L63.9319 720.5 L71.5707 720.5 L71.5707 724.435 L51.6634 724.435 L51.6634 720.5 Z" fill="#000000" fill-rule="nonzero" fill-opacity="1" /><path clip-path="url(#clip170)" d="M91.0151 692.954 Q87.404 692.954 85.5753 696.519 Q83.7697 700.061 83.7697 707.19 Q83.7697 714.297 85.5753 717.861 Q87.404 721.403 91.0151 721.403 Q94.6493 721.403 96.4548 717.861 Q98.2835 714.297 98.2835 707.19 Q98.2835 700.061 96.4548 696.519 Q94.6493 692.954 91.0151 692.954 M91.0151 689.25 Q96.8252 689.25 99.8808 693.857 Q102.959 698.44 102.959 707.19 Q102.959 715.917 99.8808 720.523 Q96.8252 725.107 91.0151 725.107 Q85.2049 725.107 82.1262 720.523 Q79.0707 715.917 79.0707 707.19 Q79.0707 698.44 82.1262 693.857 Q85.2049 689.25 91.0151 689.25 Z" fill="#000000" fill-rule="nonzero" fill-opacity="1" /><path clip-path="url(#clip170)" d="M121.177 692.954 Q117.566 692.954 115.737 696.519 Q113.932 700.061 113.932 707.19 Q113.932 714.297 115.737 717.861 Q117.566 721.403 121.177 721.403 Q124.811 721.403 126.617 717.861 Q128.445 714.297 128.445 707.19 Q128.445 700.061 126.617 696.519 Q124.811 692.954 121.177 692.954 M121.177 689.25 Q126.987 689.25 130.043 693.857 Q133.121 698.44 133.121 707.19 Q133.121 715.917 130.043 720.523 Q126.987 725.107 121.177 725.107 Q115.367 725.107 112.288 720.523 Q109.233 715.917 109.233 707.19 Q109.233 698.44 112.288 693.857 Q115.367 689.25 121.177 689.25 Z" fill="#000000" fill-rule="nonzero" fill-opacity="1" /><path clip-path="url(#clip170)" d="M51.6634 351.22 L59.3023 351.22 L59.3023 324.854 L50.9921 326.521 L50.9921 322.262 L59.256 320.595 L63.9319 320.595 L63.9319 351.22 L71.5707 351.22 L71.5707 355.155 L51.6634 355.155 L51.6634 351.22 Z" fill="#000000" fill-rule="nonzero" fill-opacity="1" /><path clip-path="url(#clip170)" d="M81.0614 320.595 L99.4178 320.595 L99.4178 324.53 L85.3438 324.53 L85.3438 333.003 Q86.3623 332.655 87.3808 332.493 Q88.3993 332.308 89.4178 332.308 Q95.2049 332.308 98.5845 335.479 Q101.964 338.651 101.964 344.067 Q101.964 349.646 98.4919 352.748 Q95.0197 355.827 88.7003 355.827 Q86.5243 355.827 84.2558 355.456 Q82.0105 355.086 79.6031 354.345 L79.6031 349.646 Q81.6864 350.78 83.9086 351.336 Q86.1308 351.891 88.6077 351.891 Q92.6123 351.891 94.9502 349.785 Q97.2882 347.678 97.2882 344.067 Q97.2882 340.456 94.9502 338.35 Q92.6123 336.243 88.6077 336.243 Q86.7327 336.243 84.8577 336.66 Q83.0058 337.077 81.0614 337.956 L81.0614 320.595 Z" fill="#000000" fill-rule="nonzero" fill-opacity="1" /><path clip-path="url(#clip170)" d="M121.177 323.674 Q117.566 323.674 115.737 327.239 Q113.932 330.78 113.932 337.91 Q113.932 345.016 115.737 348.581 Q117.566 352.123 121.177 352.123 Q124.811 352.123 126.617 348.581 Q128.445 345.016 128.445 337.91 Q128.445 330.78 126.617 327.239 Q124.811 323.674 121.177 323.674 M121.177 319.97 Q126.987 319.97 130.043 324.577 Q133.121 329.16 133.121 337.91 Q133.121 346.637 130.043 351.243 Q126.987 355.827 121.177 355.827 Q115.367 355.827 112.288 351.243 Q109.233 346.637 109.233 337.91 Q109.233 329.16 112.288 324.577 Q115.367 319.97 121.177 319.97 Z" fill="#000000" fill-rule="nonzero" fill-opacity="1" /><polyline clip-path="url(#clip172)" style="stroke:#009af9; stroke-linecap:round; stroke-linejoin:round; stroke-width:4; stroke-opacity:1; fill:none" points="230.922,1401.08 231.437,1346.69 231.952,1418.56 232.467,1426.51 232.982,1445.72 233.497,1445.72 234.012,1443.89 234.527,1392.49 235.042,1346.23 235.557,1088.38 236.072,1355.19 236.587,1225.66 237.102,1399.79 237.617,1145.08 238.132,1303.83 238.647,1252.13 239.162,1440.81 239.677,1445.7 240.192,1436.82 240.707,1440.87 241.222,1445.72 241.737,1445.72 242.252,1314.14 242.767,291.55 243.282,1445.72 243.797,1445.72 244.313,1445.72 244.828,1445.72 245.343,1316.6 245.858,257.932 246.373,1445.72 246.888,1445.72 247.403,1445.72 247.918,1445.72 248.433,1319.21 248.948,290.622 249.463,1445.72 249.978,1445.72 250.493,1445.72 251.008,1445.72 251.523,1442.31 252.038,1445.71 252.553,1445.72 253.068,1445.72 253.583,1317.14 254.098,410.326 254.613,1439.02 255.128,1445.7 255.643,1317.55 256.158,250.655 256.673,1445.72 257.188,1445.72 257.703,1434.23 258.218,1434.11 258.733,1445.72 259.248,1445.72 259.763,1445.72 260.278,1445.72 260.793,1317.12 261.308,99.8366 261.823,1445.72 262.338,1445.72 262.853,1434.02 263.368,1440.24 263.883,1445.72 264.398,1445.72 264.913,1445.72 265.428,1445.72 265.943,1319.82 266.458,270.251 266.973,1445.72 267.488,1445.72 268.003,1445.72 268.518,1445.72 269.033,1445.72 269.548,1445.72 270.063,1445.72 270.578,1445.72 271.093,1317.52 271.608,247.711 272.123,1445.72 272.638,1445.72 273.153,1445.72 273.668,1445.72 274.183,1445.72 274.698,1445.72 275.213,1445.72 275.728,1445.72 276.243,1316.9 276.758,99.7299 277.273,1445.72 277.788,1445.72 278.303,1434.13 278.818,1440.27 279.333,1445.72 279.848,1445.72 280.363,1445.72 280.878,1445.72 281.393,1323.03 281.908,297.694 282.423,1445.72 282.938,1445.72 283.453,1445.72 283.968,1445.72 284.483,1445.72 284.998,1445.72 285.513,1445.72 286.028,1445.72 286.543,1317.23 287.058,246.148 287.573,1445.72 288.088,1445.72 288.603,1434.06 289.118,1434.06 289.633,1445.72 290.148,1445.72 290.663,1445.72 291.178,1445.72 291.693,1316.27 292.208,125.842 292.723,1445.72 293.238,1445.72 293.753,1445.72 294.268,1445.72 294.783,1445.72 295.298,1445.72 295.813,1445.72 296.328,1445.72 296.843,1317.64 297.358,248.211 297.873,1445.72 298.388,1445.72 298.903,1445.72 299.418,1445.72 299.933,1445.72 300.448,1445.72 300.963,1445.72 301.478,1445.72 301.993,1322.54 302.508,295.24 303.023,1445.72 303.538,1445.72 304.053,1430.68 304.568,1434 305.083,1445.72 305.598,1445.72 306.113,1445.72 306.628,1445.72 307.144,1314.15 307.659,176.457 308.174,1445.72 308.689,1445.72 309.204,1445.72 309.719,1445.72 310.234,1445.72 310.749,1445.72 311.264,1445.72 311.779,1445.72 312.294,1317.01 312.809,251.113 313.324,1445.72 313.839,1445.72 314.354,1445.72 314.869,1445.72 315.384,1445.72 315.899,1445.72 316.414,1442.38 316.929,1445.71 317.444,1317.36 317.959,247.583 318.474,1445.72 318.989,1445.72 319.504,1445.72 320.019,1445.72 320.534,1445.72 321.049,1445.72 321.564,1445.72 322.079,1445.72 322.594,1318.92 323.109,153.358 323.624,1445.72 324.139,1445.72 324.654,1445.72 325.169,1445.72 325.684,1445.72 326.199,1445.72 326.714,1445.72 327.229,1445.72 327.744,1322.52 328.259,318.05 328.774,1442.37 329.289,1445.71 329.804,1435.89 330.319,1440.68 330.834,1445.72 331.349,1445.72 331.864,1442.38 332.379,1445.71 332.894,1319.72 333.409,272.065 333.924,1445.72 334.439,1445.72 334.954,1442.38 335.469,1445.71 335.984,1445.72 336.499,1445.72 337.014,1445.72 337.529,1445.72 338.044,1316.24 338.559,126.471 339.074,1445.72 339.589,1445.72 340.104,1445.72 340.619,1445.72 341.134,1445.72 341.649,1445.72 342.164,1445.72 342.679,1445.72 343.194,1368.12 343.709,1275.41 344.224,1323.66 344.739,212.86 345.254,1445.72 345.769,1445.72 346.284,1426.55 346.799,1435.8 347.314,1442.33 347.829,1445.71 348.344,1445.72 348.859,1445.72 349.374,1317.43 349.889,403.574 350.404,1445.72 350.919,1445.72 351.434,1343.14 351.949,922.538 352.464,1445.72 352.979,1445.72 353.494,1445.72 354.009,1445.72 354.524,1332.9 355.039,530.027 355.554,1445.72 356.069,1445.72 356.584,1347.36 357.099,815.253 357.614,1445.72 358.129,1445.72 358.644,1445.72 359.159,1445.72 359.674,1368.34 360.189,1220.87 360.704,1322.34 361.219,317.291 361.734,1445.72 362.249,1445.72 362.764,1442.35 363.279,1445.71 363.794,1445.72 364.309,1445.72 364.824,1445.72 365.339,1445.72 365.854,1316.02 366.369,130.875 366.884,1445.72 367.399,1445.72 367.914,1445.72 368.429,1445.72 368.944,1445.72 369.459,1445.72 369.974,1445.72 370.49,1445.72 371.005,1320.26 371.52,302.391 372.035,1445.72 372.55,1445.72 373.065,1445.72 373.58,1445.72 374.095,1445.72 374.61,1445.72 375.125,1442.38 375.64,1445.71 376.155,1317.54 376.67,251.797 377.185,1445.72 377.7,1445.72 378.215,1445.72 378.73,1445.72 379.245,1445.72 379.76,1445.72 380.275,1445.72 380.79,1445.72 381.305,1322.33 381.82,156.446 382.335,1445.72 382.85,1445.72 383.365,1434.26 383.88,1440.31 384.395,1442.33 384.91,1445.71 385.425,1445.72 385.94,1445.72 386.455,1317.86 386.97,253.063 387.485,1445.72 388,1445.72 388.515,1445.72 389.03,1445.72 389.545,1445.72 390.06,1445.72 390.575,1442.38 391.09,1445.71 391.605,1322.07 392.12,296.261 392.635,1445.72 393.15,1445.72 393.665,1434.29 394.18,1434.13 394.695,1445.72 395.21,1445.72 395.725,1445.72 396.24,1445.72 396.755,1315.5 397.27,157.336 397.785,1445.72 398.3,1445.72 398.815,1434.39 399.33,1440.33 399.845,1442.33 400.36,1445.71 400.875,1445.72 401.39,1445.72 401.905,1317.5 402.42,259.503 402.935,1445.72 403.45,1445.72 403.965,1445.72 404.48,1445.72 404.995,1445.72 405.51,1445.72 406.025,1445.72 406.54,1445.72 407.055,1322.56 407.57,312.001 408.085,1445.72 408.6,1445.72 409.115,1445.72 409.63,1445.72 410.145,1445.72 410.66,1445.72 411.175,1445.72 411.69,1445.72 412.205,1316.62 412.72,238.404 413.235,1445.72 413.75,1445.72 414.265,1364.55 414.78,1372.99 415.295,1445.72 415.81,1445.72 416.325,1445.72 416.84,1445.72 417.355,1342.97 417.87,681.608 418.385,1445.72 418.9,1445.72 419.415,1328.27 419.93,521.336 420.445,1421.52 420.96,1413.13 421.475,1317.53 421.99,106.834 422.505,1445.72 423.02,1445.72 423.535,1445.72 424.05,1445.72 424.565,1445.72 425.08,1445.72 425.595,1445.72 426.11,1445.72 426.625,1319.76 427.14,286.172 427.655,1445.72 428.17,1445.72 428.685,1445.72 429.2,1445.72 429.715,1445.72 430.23,1445.72 430.745,1445.72 431.26,1445.72 431.775,1320.14 432.29,277.907 432.805,1445.72 433.321,1445.72 433.836,1442.38 434.351,1445.71 434.866,1445.72 435.381,1445.72 435.896,1445.72 436.411,1445.72 436.926,1442.38 437.441,1445.71 437.956,1445.72 438.471,1445.72 438.986,1408.92 439.501,1416.22 440.016,1442.39 440.531,1445.71 441.046,1318.1 441.561,258.596 442.076,1445.72 442.591,1445.72 443.106,1442.39 443.621,1445.71 444.136,1445.72 444.651,1445.72 445.166,1445.72 445.681,1445.72 446.196,1317.48 446.711,100.917 447.226,1445.72 447.741,1445.72 448.256,1422.1 448.771,1434.68 449.286,1445.72 449.801,1445.72 450.316,1445.72 450.831,1445.72 451.346,1317.63 451.861,248.126 452.376,1439.03 452.891,1445.7 453.406,1445.72 453.921,1445.72 454.436,1445.72 454.951,1445.72 455.466,1445.72 455.981,1445.72 456.496,1317.62 457.011,247.916 457.526,1445.72 458.041,1445.72 458.556,1442.38 459.071,1445.71 459.586,1445.72 460.101,1445.72 460.616,1445.72 461.131,1445.72 461.646,1316.24 462.161,125.663 462.676,1445.72 463.191,1445.72 463.706,1434.01 464.221,1440.25 464.736,1445.72 465.251,1445.72 465.766,1445.72 466.281,1445.72 466.796,1317.94 467.311,249.991 467.826,1442.37 468.341,1445.71 468.856,1445.72 469.371,1445.72 469.886,1445.72 470.401,1445.72 470.916,1439.05 471.431,1445.7 471.946,1316.89 472.461,244.266 472.976,1445.72 473.491,1445.72 474.006,1434.04 474.521,1434.05 475.036,1445.72 475.551,1445.72 476.066,1445.72 476.581,1445.72 477.096,1317.22 477.611,100.109 478.126,1445.72 478.641,1445.72 479.156,1445.72 479.671,1445.72 480.186,1445.72 480.701,1445.72 481.216,1445.72 481.731,1445.72 482.246,1318.47 482.761,252.673 483.276,1445.72 483.791,1445.72 484.306,1445.72 484.821,1445.72 485.336,1445.72 485.851,1445.72 486.366,1445.72 486.881,1445.72 487.396,1319.18 487.911,267.673 488.426,1445.72 488.941,1445.72 489.456,1445.72 489.971,1445.72 490.486,1445.72 491.001,1445.72 491.516,1445.72 492.031,1445.72 492.546,1319.44 493.061,124.947 493.576,1445.72 494.091,1445.72 494.606,1445.72 495.121,1445.72 495.636,1445.72 496.151,1445.72 496.667,1445.72 497.182,1445.72 497.697,1317.58 498.212,247.776 498.727,1445.72 499.242,1445.72 499.757,1445.72 500.272,1445.72 500.787,1445.72 501.302,1445.72 501.817,1442.38 502.332,1445.71 502.847,1323.34 503.362,299.101 503.877,1445.72 504.392,1445.72 504.907,1445.72 505.422,1445.72 505.937,1445.72 506.452,1445.72 506.967,1445.72 507.482,1445.72 507.997,1318.07 508.512,104.901 509.027,1445.72 509.542,1445.72 510.057,1434.13 510.572,1440.34 511.087,1442.33 511.602,1445.71 512.117,1445.72 512.632,1445.72 513.147,1319.74 513.662,269.649 514.177,1442.37 514.692,1445.71 515.207,1434.13 515.722,1440.35 516.237,1445.72 516.752,1445.72 517.267,1442.38 517.782,1445.71 518.297,1322.94 518.812,297.322 519.327,1445.72 519.842,1445.72 520.357,1445.72 520.872,1445.72 521.387,1445.72 521.902,1445.72 522.417,1445.72 522.932,1445.72 523.447,1316.95 523.962,98.5011 524.477,1445.72 524.992,1445.72 525.507,1445.72 526.022,1445.72 526.537,1445.72 527.052,1445.72 527.567,1445.72 528.082,1445.72 528.597,1317.74 529.112,248.977 529.627,1442.37 530.142,1445.71 530.657,1433.76 531.172,1440.05 531.687,1445.72 532.202,1445.72 532.717,1445.72 533.232,1445.72 533.747,1318.07 534.262,250.409 534.777,1445.72 535.292,1445.72 535.807,1430.86 536.322,1434.19 536.837,1445.72 537.352,1445.72 537.867,1445.72 538.382,1445.72 538.897,1316.59 539.412,96.3577 539.927,1445.72 540.442,1445.72 540.957,1433.75 541.472,1440.06 541.987,1442.33 542.502,1445.71 543.017,1445.72 543.532,1445.72 544.047,1317.37 544.562,247.08 545.077,1442.37 545.592,1445.71 546.107,1433.94 546.622,1440.19 547.137,1445.72 547.652,1445.72 548.167,1442.38 548.682,1445.71 549.197,1320.21 549.712,273.974 550.227,1445.72 550.742,1445.72 551.257,1430.72 551.772,1433.98 552.287,1445.72 552.802,1445.72 553.317,1445.72 553.832,1445.72 554.347,1320.51 554.862,131.53 555.377,1445.72 555.892,1445.72 556.407,1411.2 556.922,1429.71 557.437,1445.72 557.952,1445.72 558.467,1445.72 558.982,1445.72 559.497,1317.32 560.013,246.558 560.528,1445.72 561.043,1445.72 561.558,1434.04 562.073,1440.27 562.588,1445.72 563.103,1445.72 563.618,1442.38 564.133,1445.71 564.648,1322.01 565.163,292.172 565.678,1445.72 566.193,1445.72 566.708,1430.61 567.223,1433.94 567.738,1445.72 568.253,1445.72 568.768,1445.72 569.283,1445.72 569.798,1315.77 570.313,122.938 570.828,1445.72 571.343,1445.72 571.858,1434.07 572.373,1440.29 572.888,1445.72 573.403,1445.72 573.918,1445.72 574.433,1445.72 574.948,1322.58 575.463,295.111 575.978,1442.37 576.493,1445.71 577.008,1434 577.523,1440.25 578.038,1445.72 578.553,1445.72 579.068,1439.05 579.583,1445.7 580.098,1317.55 580.613,247.687 581.128,1445.72 581.643,1445.72 582.158,1445.72 582.673,1445.72 583.188,1445.72 583.703,1445.72 584.218,1445.72 584.733,1445.72 585.248,1316.49 585.763,95.7298 586.278,1445.72 586.793,1445.72 587.308,1445.72 587.823,1445.72 588.338,1445.72 588.853,1445.72 589.368,1445.72 589.883,1445.72 590.398,1318.16 590.913,251.062 591.428,1445.72 591.943,1445.72 592.458,1445.72 592.973,1445.72 593.488,1445.72 594.003,1445.72 594.518,1445.72 595.033,1445.72 595.548,1320.31 596.063,272.637 596.578,1445.72 597.093,1445.72 597.608,1433.69 598.123,1433.7 598.638,1445.72 599.153,1445.72 599.668,1445.72 600.183,1445.72 600.698,1319.46 601.213,125.018 601.728,1445.72 602.243,1445.72 602.758,1445.72 603.273,1445.72 603.788,1445.72 604.303,1445.72 604.818,1445.72 605.333,1445.72 605.848,1319.77 606.363,270.42 606.878,1445.72 607.393,1445.72 607.908,1445.72 608.423,1445.72 608.938,1445.72 609.453,1445.72 609.968,1445.72 610.483,1445.72 610.998,1317.27 611.513,246.433 612.028,1445.72 612.543,1445.72 613.058,1445.72 613.573,1445.72 614.088,1445.72 614.603,1445.72 615.118,1445.72 615.633,1445.72 616.148,1316.85 616.663,97.9039 617.178,1445.72 617.693,1445.72 618.208,1445.72 618.723,1445.72 619.238,1445.72 619.753,1445.72 620.268,1445.72 620.783,1445.72 621.298,1317.05 621.813,245.691 622.328,1445.72 622.844,1445.72 623.359,1434.04 623.874,1440.25 624.389,1445.72 624.904,1445.72 625.419,1445.72 625.934,1445.72 626.449,1317.29 626.964,246.304 627.479,1445.72 627.994,1445.72 628.509,1445.72 629.024,1445.72 629.539,1445.72 630.054,1445.72 630.569,1445.72 631.084,1445.72 631.599,1318.66 632.114,120.651 632.629,1445.72 633.144,1445.72 633.659,1433.98 634.174,1440.22 634.689,1445.72 635.204,1445.72 635.719,1445.72 636.234,1445.72 636.749,1318.02 637.264,250.156 637.779,1442.37 638.294,1445.71 638.809,1445.72 639.324,1445.72 639.839,1445.72 640.354,1445.72 640.869,1445.72 641.384,1445.72 641.899,1317.13 642.414,245.429 642.929,1445.72 643.444,1445.72 643.959,1445.72 644.474,1445.72 644.989,1445.72 645.504,1445.72 646.019,1445.72 646.534,1445.72 647.049,1316.63 647.564,96.6762 648.079,1445.72 648.594,1445.72 649.109,1445.72 649.624,1445.72 650.139,1442.33 650.654,1445.71 651.169,1445.72 651.684,1445.72 652.199,1320.17 652.714,271.838 653.229,1445.72 653.744,1445.72 654.259,1410.42 654.774,1429.21 655.289,1445.72 655.804,1445.72 656.319,1445.72 656.834,1445.72 657.349,1317.22 657.864,245.961 658.379,1445.72 658.894,1445.72 659.409,1421.98 659.924,1422 660.439,1445.72 660.954,1445.72 661.469,1445.72 661.984,1445.72 662.499,1319.6 663.014,125.766 663.529,1445.72 664.044,1445.72 664.559,1434.06 665.074,1440.29 665.589,1445.72 666.104,1445.72 666.619,1445.72 667.134,1445.72 667.649,1317.36 668.164,247.442 668.679,1439.03 669.194,1445.7 669.709,1445.72 670.224,1445.72 670.739,1445.72 671.254,1445.72 671.769,1445.72 672.284,1445.72 672.799,1317.44 673.314,247.622 673.829,1445.72 674.344,1445.72 674.859,1445.72 675.374,1445.72 675.889,1445.72 676.404,1445.72 676.919,1445.72 677.434,1445.72 677.949,1316.79 678.464,97.5045 678.979,1445.72 679.494,1445.72 680.009,1434.08 680.524,1440.3 681.039,1445.72 681.554,1445.72 682.069,1445.72 682.584,1445.72 683.099,1317.2 683.614,245.795 684.129,1445.72 684.644,1445.72 685.159,1434.04 685.674,1440.28 686.19,1445.72 686.705,1445.72 687.22,1445.72 687.735,1445.72 688.25,1317.14 688.765,245.475 689.28,1445.72 689.795,1445.72 690.31,1445.72 690.825,1445.72 691.34,1445.72 691.855,1445.72 692.37,1445.72 692.885,1445.72 693.4,1316.93 693.915,98.2683 694.43,1445.72 694.945,1445.72 695.46,1445.72 695.975,1445.72 696.49,1442.33 697.005,1445.71 697.52,1445.72 698.035,1445.72 698.55,1317.74 699.065,248.684 699.58,1442.37 700.095,1445.71 700.61,1445.72 701.125,1445.72 701.64,1445.72 702.155,1445.72 702.67,1442.38 703.185,1445.71 703.7,1320.02 704.215,271.166 704.73,1445.72 705.245,1445.72 705.76,1442.38 706.275,1445.71 706.79,1445.72 707.305,1445.72 707.82,1445.72 708.335,1445.72 708.85,1322.43 709.365,154.124 709.88,1445.72 710.395,1445.72 710.91,1445.72 711.425,1445.72 711.94,1445.72 712.455,1445.72 712.97,1445.72 713.485,1445.72 714,1317.46 714.515,247.134 715.03,1445.72 715.545,1445.72 716.06,1445.72 716.575,1445.72 717.09,1445.72 717.605,1445.72 718.12,1445.72 718.635,1445.72 719.15,1317 719.665,244.915 720.18,1445.72 720.695,1445.72 721.21,1434 721.725,1434.01 722.24,1445.72 722.755,1445.72 723.27,1445.72 723.785,1445.72 724.3,1315.69 724.815,153.651 725.33,1445.72 725.845,1445.72 726.36,1445.72 726.875,1445.72 727.39,1445.72 727.905,1445.72 728.42,1445.72 728.935,1445.72 729.45,1317.51 729.965,247.809 730.48,1442.37 730.995,1445.71 731.51,1445.72 732.025,1445.72 732.54,1445.72 733.055,1445.72 733.57,1445.72 734.085,1445.72 734.6,1317.33 735.115,246.522 735.63,1445.72 736.145,1445.72 736.66,1445.72 737.175,1445.72 737.69,1445.72 738.205,1445.72 738.72,1445.72 739.235,1445.72 739.75,1319.77 740.265,127.677 740.78,1445.72 741.295,1445.72 741.81,1433.94 742.325,1440.17 742.84,1442.33 743.355,1445.71 743.87,1445.72 744.385,1445.72 744.9,1319.78 745.415,270.204 745.93,1435.68 746.445,1445.7 746.96,1434 747.475,1440.23 747.99,1445.72 748.505,1445.72 749.021,1435.72 749.536,1445.7 750.051,1317.21 750.566,245.877 751.081,1445.72 751.596,1445.72 752.111,1445.72 752.626,1445.72 753.141,1445.72 753.656,1445.72 754.171,1445.72 754.686,1445.72 755.201,1322.24 755.716,153.034 756.231,1445.72 756.746,1445.72 757.261,1445.72 757.776,1445.72 758.291,1445.72 758.806,1445.72 759.321,1445.72 759.836,1445.72 760.351,1316.96 760.866,246.233 761.381,1442.37 761.896,1445.71 762.411,1434.1 762.926,1440.25 763.441,1445.72 763.956,1445.72 764.471,1445.72 764.986,1445.72 765.501,1317.43 766.016,247.611 766.531,1445.72 767.046,1445.72 767.561,1445.72 768.076,1445.72 768.591,1445.72 769.106,1445.72 769.621,1445.72 770.136,1445.72 770.651,1321.02 771.166,177.459 771.681,1445.72 772.196,1445.72 772.711,1445.72 773.226,1445.72 773.741,1442.33 774.256,1445.71 774.771,1445.72 775.286,1445.72 775.801,1319.96 776.316,275.379 776.831,1445.72 777.346,1445.72 777.861,1445.72 778.376,1445.72 778.891,1445.72 779.406,1445.72 779.921,1445.72 780.436,1445.72 780.951,1322.49 781.466,295.058 781.981,1445.72 782.496,1445.72 783.011,1445.72 783.526,1445.72 784.041,1445.72 784.556,1445.72 785.071,1445.72 785.586,1445.72 786.101,1316.7 786.616,97.3706 787.131,1445.72 787.646,1445.72 788.161,1445.72 788.676,1445.72 789.191,1445.72 789.706,1445.72 790.221,1445.72 790.736,1445.72 791.251,1317.67 791.766,248.807 792.281,1445.72 792.796,1445.72 793.311,1422.26 793.826,1434.71 794.341,1445.72 794.856,1445.72 795.371,1445.72 795.886,1445.72 796.401,1317.42 796.916,247.08 797.431,1445.72 797.946,1445.72 798.461,1445.72 798.976,1445.72 799.491,1445.72 800.006,1445.72 800.521,1445.72 801.036,1445.72 801.551,1316.23 802.066,125.477 802.581,1445.72 803.096,1445.72 803.611,1445.72 804.126,1445.72 804.641,1445.72 805.156,1445.72 805.671,1445.72 806.186,1445.72 806.701,1317.66 807.216,250.128 807.731,1445.72 808.246,1445.72 808.761,1445.72 809.276,1445.72 809.791,1445.72 810.306,1445.72 810.821,1445.72 811.336,1445.72 811.851,1320.13 812.367,274.001 812.882,1445.72 813.397,1445.72 813.912,1422.6 814.427,1422.42 814.942,1445.72 815.457,1445.72 815.972,1445.72 816.487,1445.72 817.002,1316.86 817.517,98.3098 818.032,1445.72 818.547,1445.72 819.062,1445.72 819.577,1445.72 820.092,1445.72 820.607,1445.72 821.122,1445.72 821.637,1445.72 822.152,1320.2 822.667,273.78 823.182,1442.37 823.697,1445.71 824.212,1445.72 824.727,1445.72 825.242,1445.72 825.757,1445.72 826.272,1445.72 826.787,1445.72 827.302,1317.48 827.817,247.544 828.332,1445.72 828.847,1445.72 829.362,1445.72 829.877,1445.72 830.392,1445.72 830.907,1445.72 831.422,1445.72 831.937,1445.72 832.452,1316.14 832.967,127.36 833.482,1445.72 833.997,1445.72 834.512,1434.16 835.027,1440.26 835.542,1445.72 836.057,1445.72 836.572,1445.72 837.087,1445.72 837.602,1317.03 838.117,248.242 838.632,1445.72 839.147,1445.72 839.662,1445.72 840.177,1445.72 840.692,1445.72 841.207,1445.72 841.722,1445.72 842.237,1445.72 842.752,1317.49 843.267,249.978 843.782,1445.72 844.297,1445.72 844.812,1422.56 845.327,1422.35 845.842,1445.72 846.357,1445.72 846.872,1445.72 847.387,1445.72 847.902,1316.13 848.417,126.87 848.932,1445.72 849.447,1445.72 849.962,1445.72 850.477,1445.72 850.992,1438.94 851.507,1445.7 852.022,1445.72 852.537,1445.72 853.052,1319.85 853.567,270.587 854.082,1445.72 854.597,1445.72 855.112,1445.72 855.627,1445.72 856.142,1445.72 856.657,1445.72 857.172,1445.72 857.687,1445.72 858.202,1317.93 858.717,255.596 859.232,1445.72 859.747,1445.72 860.262,1442.38 860.777,1445.71 861.292,1445.72 861.807,1445.72 862.322,1445.72 862.837,1445.72 863.352,1317.14 863.867,100.877 864.382,1445.72 864.897,1445.72 865.412,1434.15 865.927,1440.3 866.442,1442.33 866.957,1445.71 867.472,1445.72 867.987,1445.72 868.502,1319.98 869.017,279.282 869.532,1445.72 870.047,1445.72 870.562,1445.72 871.077,1445.72 871.592,1445.72 872.107,1445.72 872.622,1445.72 873.137,1445.72 873.652,1320 874.167,287.97 874.682,1445.72 875.198,1445.72 875.713,1445.72 876.228,1445.72 876.743,1445.72 877.258,1445.72 877.773,1445.72 878.288,1445.72 878.803,1319.91 879.318,132.462 879.833,1445.72 880.348,1445.72 880.863,1434.48 881.378,1440.39 881.893,1445.72 882.408,1445.72 882.923,1445.72 883.438,1445.72 883.953,1319.85 884.468,287.885 884.983,1445.72 885.498,1445.72 886.013,1435.63 886.528,1440.72 887.043,1445.72 887.558,1445.72 888.073,1442.38 888.588,1445.71 889.103,1318.14 889.618,318.156 890.133,1445.72 890.648,1445.72 891.163,1401.73 891.678,1392.21 892.193,1445.72 892.708,1445.72 893.223,1424.55 893.738,1435.35 894.253,1445.72 894.768,1445.72 895.283,1445.72 895.798,1445.72 896.313,1320.57 896.828,275.219 897.343,1445.72 897.858,1445.72 898.373,1433.98 898.888,1440.18 899.403,1445.72 899.918,1445.72 900.433,1445.72 900.948,1445.72 901.463,1445.72 901.978,1445.72 902.493,1445.72 903.008,1445.72 903.523,1445.72 904.038,1445.72 904.553,1402.21 905.068,1366.05 905.583,1445.72 906.098,1445.72 906.613,1442.38 907.128,1445.71 907.643,1445.72 908.158,1445.72 908.673,1317.44 909.188,243.471 909.703,1439.05 910.218,1445.7 910.733,1445.72 911.248,1445.72 911.763,1445.72 912.278,1445.72 912.793,1445.72 913.308,1445.72 913.823,1317.47 914.338,258.481 914.853,1445.72 915.368,1445.72 915.883,1445.72 916.398,1445.72 916.913,1445.72 917.428,1445.72 917.943,1445.72 918.458,1445.72 918.973,1319.73 919.488,127.783 920.003,1445.72 920.518,1445.72 921.033,1445.72 921.548,1445.72 922.063,1442.33 922.578,1445.71 923.093,1445.72 923.608,1445.72 924.123,1322.69 924.638,310.61 925.153,1445.72 925.668,1445.72 926.183,1445.72 926.698,1445.72 927.213,1445.72 927.728,1445.72 928.243,1445.72 928.758,1445.72 929.273,1316.84 929.788,247.078 930.303,1445.72 930.818,1445.72 931.333,1445.72 931.848,1445.72 932.363,1445.72 932.878,1445.72 933.393,1445.72 933.908,1445.72 934.423,1316.23 934.938,130.37 935.453,1445.72 935.968,1445.72 936.483,1436.92 936.998,1441.02 937.513,1445.72 938.028,1445.72 938.544,1445.72 939.059,1445.72 939.574,1317.46 940.089,250.08 940.604,1445.72 941.119,1445.72 941.634,1445.72 942.149,1445.72 942.664,1445.72 943.179,1445.72 943.694,1445.72 944.209,1445.72 944.724,1317.85 945.239,250.678 945.754,1445.72 946.269,1445.72 946.784,1434.1 947.299,1434.05 947.814,1445.72 948.329,1445.72 948.844,1445.72 949.359,1445.72 949.874,1319.61 950.389,127.271 950.904,1445.72 951.419,1445.72 951.934,1445.72 952.449,1445.72 952.964,1445.72 953.479,1445.72 953.994,1445.72 954.509,1445.72 955.024,1317.59 955.539,249.375 956.054,1445.72 956.569,1445.72 957.084,1445.72 957.599,1445.72 958.114,1445.72 958.629,1445.72 959.144,1445.72 959.659,1445.72 960.174,1317.34 960.689,248.256 961.204,1445.72 961.719,1445.72 962.234,1427.28 962.749,1433.86 963.264,1445.72 963.779,1445.72 964.294,1445.72 964.809,1445.72 965.324,1315.78 965.839,123.027 966.354,1445.72 966.869,1445.72 967.384,1445.72 967.899,1445.72 968.414,1445.72 968.929,1445.72 969.444,1445.72 969.959,1445.72 970.474,1445.72 970.989,1445.72 971.504,1445.72 972.019,1445.72 972.534,1319.96 973.049,272.306 973.564,1445.72 974.079,1445.72 974.594,1445.72 975.109,1445.72 975.624,1445.72 976.139,1445.72 976.654,1445.72 977.169,1445.72 977.684,1319.4 978.199,128.772 978.714,1445.72 979.229,1445.72 979.744,1434.33 980.259,1440.31 980.774,1445.72 981.289,1445.72 981.804,1445.72 982.319,1445.72 982.834,1322.92 983.349,297.365 983.864,1445.72 984.379,1445.72 984.894,1422.34 985.409,1434.77 985.924,1445.72 986.439,1445.72 986.954,1445.72 987.469,1445.72 987.984,1319.66 988.499,274.585 989.014,1445.72 989.529,1445.72 990.044,1445.72 990.559,1445.72 991.074,1445.72 991.589,1445.72 992.104,1445.72 992.619,1445.72 993.134,1315.34 993.649,152.482 994.164,1445.72 994.679,1445.72 995.194,1434.04 995.709,1440.24 996.224,1445.72 996.739,1445.72 997.254,1445.72 997.769,1445.72 998.284,1317.54 998.799,254.917 999.314,1445.72 999.829,1445.72 1000.34,1445.72 1000.86,1445.72 1001.37,1445.72 1001.89,1445.72 1002.4,1442.38 1002.92,1445.71 1003.43,1317.97 1003.95,251.776 1004.46,1445.72 1004.98,1445.72 1005.49,1445.72 1006.01,1445.72 1006.52,1445.72 1007.04,1445.72 1007.55,1445.72 1008.07,1445.72 1008.58,1423.8 1009.1,1424.87 1009.61,1445.72 1010.13,1445.72 1010.64,1331.82 1011.16,660.12 1011.67,1445.72 1012.19,1445.72 1012.7,1319.07 1013.22,287.671 1013.73,1445.72 1014.25,1445.72 1014.76,1445.72 1015.28,1445.72 1015.79,1445.72 1016.31,1445.72 1016.82,1445.72 1017.34,1445.72 1017.85,1315.67 1018.37,127.037 1018.88,1445.72 1019.4,1445.72 1019.91,1434.35 1020.43,1440.3 1020.94,1445.72 1021.46,1445.72 1021.97,1445.72 1022.49,1445.72 1023,1317.53 1023.52,508.854 1024.03,1439.03 1024.55,1445.7 1025.06,1330.3 1025.58,653.39 1026.09,1445.72 1026.61,1445.72 1027.12,1390.57 1027.64,1362.28 1028.15,1445.72 1028.67,1445.72 1029.18,1445.72 1029.7,1445.72 1030.21,1442.37 1030.73,1445.71 1031.24,1445.72 1031.76,1445.72 1032.27,1322.48 1032.79,292.883 1033.31,1442.38 1033.82,1445.71 1034.34,1445.72 1034.85,1445.72 1035.37,1445.72 1035.88,1445.72 1036.4,1445.72 1036.91,1445.72 1037.43,1317.25 1037.94,246.788 1038.46,1445.72 1038.97,1445.72 1039.49,1430.8 1040,1434.1 1040.52,1445.72 1041.03,1445.72 1041.55,1445.72 1042.06,1445.72 1042.58,1316.86 1043.09,98.0052 1043.61,1445.72 1044.12,1445.72 1044.64,1445.72 1045.15,1445.72 1045.67,1445.72 1046.18,1445.72 1046.7,1445.72 1047.21,1445.72 1047.73,1320.08 1048.24,272.517 1048.76,1445.72 1049.27,1445.72 1049.79,1445.72 1050.3,1445.72 1050.82,1445.72 1051.33,1445.72 1051.85,1445.72 1052.36,1445.72 1052.88,1322.86 1053.39,296.719 1053.91,1445.72 1054.42,1445.72 1054.94,1445.72 1055.45,1445.72 1055.97,1445.72 1056.48,1445.72 1057,1445.72 1057.51,1445.72 1058.03,1316.24 1058.54,126.87 1059.06,1445.72 1059.57,1445.72 1060.09,1445.72 1060.6,1445.72 1061.12,1445.72 1061.63,1445.72 1062.15,1445.72 1062.66,1445.72 1063.18,1317.63 1063.69,248.333 1064.21,1445.72 1064.72,1445.72 1065.24,1445.72 1065.75,1445.72 1066.27,1445.72 1066.78,1445.72 1067.3,1442.38 1067.81,1445.71 1068.33,1317.79 1068.84,250.427 1069.36,1445.72 1069.87,1445.72 1070.39,1445.72 1070.9,1445.72 1071.42,1445.72 1071.93,1445.72 1072.45,1445.72 1072.96,1445.72 1073.48,1319.09 1073.99,123.214 1074.51,1445.72 1075.02,1445.72 1075.54,1445.72 1076.05,1445.72 1076.57,1445.72 1077.08,1445.72 1077.6,1445.72 1078.11,1445.72 1078.63,1319.76 1079.14,270.741 1079.66,1445.72 1080.17,1445.72 1080.69,1445.72 1081.2,1445.72 1081.72,1445.72 1082.23,1445.72 1082.75,1445.72 1083.26,1445.72 1083.78,1317.85 1084.29,253.698 1084.81,1445.72 1085.32,1445.72 1085.84,1442.38 1086.35,1445.71 1086.87,1445.72 1087.38,1445.72 1087.9,1445.72 1088.41,1445.72 1088.93,1317.54 1089.44,102.313 1089.96,1445.72 1090.47,1445.72 1090.99,1434.13 1091.5,1440.32 1092.02,1442.33 1092.53,1445.71 1093.05,1445.72 1093.56,1445.72 1094.08,1319.58 1094.59,268.86 1095.11,1445.72 1095.62,1445.72 1096.14,1433.88 1096.65,1440.16 1097.17,1445.72 1097.68,1445.72 1098.2,1442.38 1098.71,1445.71 1099.23,1316.88 1099.74,244.182 1100.26,1445.72 1100.77,1445.72 1101.29,1439.05 1101.8,1445.7 1102.32,1445.72 1102.83,1445.72 1103.35,1445.72 1103.86,1445.72 1104.38,1319.18 1104.89,123.232 1105.41,1445.72 1105.92,1445.72 1106.44,1422.04 1106.95,1434.61 1107.47,1445.72 1107.98,1445.72 1108.5,1445.72 1109.01,1445.72 1109.53,1322.72 1110.04,295.804 1110.56,1442.37 1111.07,1445.71 1111.59,1445.72 1112.1,1445.72 1112.62,1445.72 1113.13,1445.72 1113.65,1445.72 1114.16,1445.72 1114.68,1319.69 1115.19,289.826 1115.71,1445.72 1116.22,1445.72 1116.74,1422.11 1117.25,1423.82 1117.77,1445.72 1118.28,1445.72 1118.8,1445.72 1119.31,1445.72 1119.83,1319.62 1120.34,127.582 1120.86,1445.72 1121.37,1445.72 1121.89,1422.58 1122.4,1434.85 1122.92,1445.72 1123.43,1445.72 1123.95,1445.72 1124.46,1445.72 1124.98,1320.02 1125.49,319.072 1126.01,1445.72 1126.52,1445.72 1127.04,1421.8 1127.55,1432.18 1128.07,1445.72 1128.58,1445.72 1129.1,1445.72 1129.61,1445.72 1130.13,1317.71 1130.64,248.443 1131.16,1445.72 1131.67,1445.72 1132.19,1445.72 1132.7,1445.72 1133.22,1445.72 1133.73,1445.72 1134.25,1445.72 1134.76,1445.72 1135.28,1318.57 1135.79,399.521 1136.31,1445.72 1136.82,1445.72 1137.34,1316.49 1137.85,433.122 1138.37,1435.56 1138.88,1445.7 1139.4,1445.72 1139.91,1445.72 1140.43,1445.72 1140.94,1445.72 1141.46,1435.69 1141.97,1445.7 1142.49,1445.72 1143,1445.72 1143.52,1317.62 1144.03,246.123 1144.55,1445.72 1145.06,1445.72 1145.58,1445.72 1146.09,1445.72 1146.61,1445.72 1147.12,1445.72 1147.64,1442.38 1148.15,1445.71 1148.67,1320.11 1149.18,271.354 1149.7,1445.72 1150.21,1445.72 1150.73,1439.05 1151.24,1445.7 1151.76,1445.72 1152.27,1445.72 1152.79,1445.72 1153.3,1445.72 1153.82,1318.54 1154.33,153.151 1154.85,1445.72 1155.36,1445.72 1155.88,1434.28 1156.39,1440.36 1156.91,1445.72 1157.42,1445.72 1157.94,1445.72 1158.45,1445.72 1158.97,1318.24 1159.48,251.469 1160,1442.37 1160.51,1445.71 1161.03,1445.72 1161.54,1445.72 1162.06,1445.72 1162.57,1445.72 1163.09,1445.72 1163.6,1445.72 1164.12,1318.13 1164.63,253.59 1165.15,1445.72 1165.66,1445.72 1166.18,1434.37 1166.69,1434.26 1167.21,1445.72 1167.72,1445.72 1168.24,1445.72 1168.75,1445.72 1169.27,1317.48 1169.78,101.78 1170.3,1445.72 1170.81,1445.72 1171.33,1445.72 1171.84,1445.72 1172.36,1438.94 1172.87,1445.7 1173.39,1445.72 1173.9,1445.72 1174.42,1318.29 1174.93,255.259 1175.45,1442.37 1175.96,1445.71 1176.48,1423.05 1176.99,1435.02 1177.51,1445.72 1178.02,1445.72 1178.54,1442.38 1179.05,1445.71 1179.57,1317.23 1180.08,246.564 1180.6,1445.72 1181.11,1445.72 1181.63,1434.19 1182.14,1434.18 1182.66,1445.72 1183.17,1445.72 1183.69,1445.72 1184.2,1445.72 1184.72,1317.33 1185.23,105.851 1185.75,1445.72 1186.26,1445.72 1186.78,1445.72 1187.29,1445.72 1187.81,1445.72 1188.32,1445.72 1188.84,1445.72 1189.35,1445.72 1189.87,1317.66 1190.38,248.868 1190.9,1442.37 1191.41,1445.71 1191.93,1445.72 1192.44,1445.72 1192.96,1445.72 1193.47,1445.72 1193.99,1445.72 1194.5,1445.72 1195.02,1318.07 1195.53,258.565 1196.05,1445.72 1196.56,1445.72 1197.08,1445.72 1197.59,1445.72 1198.11,1445.72 1198.62,1445.72 1199.14,1445.72 1199.65,1445.72 1200.17,1318.7 1200.68,152.963 1201.2,1445.72 1201.71,1445.72 1202.23,1445.72 1202.74,1445.72 1203.26,1445.72 1203.77,1445.72 1204.29,1445.72 1204.8,1445.72 1205.32,1318.62 1205.83,270.56 1206.35,1442.37 1206.86,1445.71 1207.38,1445.72 1207.89,1445.72 1208.41,1445.72 1208.92,1445.72 1209.44,1445.72 1209.95,1445.72 1210.47,1317.47 1210.98,249.637 1211.5,1445.72 1212.01,1445.72 1212.53,1433.95 1213.04,1433.86 1213.56,1445.72 1214.07,1445.72 1214.59,1445.72 1215.1,1445.72 1215.62,1326.29 1216.13,267.251 1216.65,1445.72 1217.16,1445.72 1217.68,1399.17 1218.19,1416.53 1218.71,1445.72 1219.22,1445.72 1219.74,1445.72 1220.25,1445.72 1220.77,1445.72 1221.28,1445.72 1221.8,1321.14 1222.31,303.616 1222.83,1445.72 1223.34,1445.72 1223.86,1316.79 1224.37,235.536 1224.89,1445.72 1225.4,1445.72 1225.92,1445.72 1226.43,1445.72 1226.95,1445.72 1227.46,1445.72 1227.98,1445.72 1228.49,1445.72 1229.01,1321.95 1229.52,361.727 1230.04,1445.72 1230.55,1445.72 1231.07,1419.49 1231.58,1410.46 1232.1,1445.72 1232.61,1445.72 1233.13,1432.91 1233.64,1439.97 1234.16,1442.38 1234.67,1445.71 1235.19,1381.17 1235.7,1396.72 1236.22,1445.72 1236.73,1445.72 1237.25,1355.43 1237.76,1021.64 1238.28,1327.23 1238.79,350 1239.31,1445.72 1239.82,1445.72 1240.34,1434.78 1240.85,1434.41 1241.37,1445.72 1241.88,1445.72 1242.4,1445.72 1242.91,1445.72 1243.43,1317.51 1243.94,103.338 1244.46,1445.72 1244.97,1445.72 1245.49,1423.11 1246,1435.26 1246.52,1445.72 1247.03,1445.72 1247.55,1445.72 1248.06,1445.72 1248.58,1320.66 1249.09,317.578 1249.61,1442.37 1250.12,1445.71 1250.64,1420.72 1251.15,1431.84 1251.67,1445.72 1252.18,1445.72 1252.7,1445.72 1253.21,1445.72 1253.73,1316.94 1254.24,247.896 1254.76,1445.72 1255.27,1445.72 1255.79,1445.72 1256.3,1445.72 1256.82,1445.72 1257.33,1445.72 1257.85,1445.72 1258.36,1445.72 1258.88,1319.28 1259.39,402.124 1259.91,1445.72 1260.42,1445.72 1260.94,1334.96 1261.45,877.951 1261.97,1316.88 1262.48,339.07 1263,1445.72 1263.51,1445.72 1264.03,1345.98 1264.54,700.424 1265.06,1442.32 1265.57,1445.71 1266.09,1347.32 1266.6,711.209 1267.12,1445.72 1267.63,1445.72 1268.15,1334.22 1268.66,553.594 1269.18,1445.72 1269.69,1445.72 1270.21,1316.22 1270.72,375.686 1271.24,1445.72 1271.75,1445.72 1272.27,1356.1 1272.78,1086.61 1273.3,1445.72 1273.81,1445.72 1274.33,1445.72 1274.84,1445.72 1275.36,1414.49 1275.87,1432.82 1276.39,1445.72 1276.9,1445.72 1277.42,1422.4 1277.93,1407.69 1278.45,1317.15 1278.96,237.973 1279.48,1445.72 1279.99,1445.72 1280.51,1445.72 1281.02,1445.72 1281.54,1445.72 1282.05,1445.72 1282.57,1445.72 1283.08,1445.72 1283.6,1315.51 1284.11,151.882 1284.63,1445.72 1285.14,1445.72 1285.66,1445.72 1286.17,1445.72 1286.69,1442.33 1287.2,1445.71 1287.72,1445.72 1288.23,1445.72 1288.75,1317.71 1289.26,250.249 1289.78,1445.72 1290.29,1445.72 1290.81,1445.72 1291.32,1445.72 1291.84,1445.72 1292.35,1445.72 1292.87,1445.72 1293.38,1445.72 1293.9,1317.31 1294.41,246.727 1294.93,1445.72 1295.44,1445.72 1295.96,1442.38 1296.47,1445.71 1296.99,1445.72 1297.5,1445.72 1298.02,1445.72 1298.53,1445.72 1299.05,1315.11 1299.56,121.29 1300.08,1445.72 1300.59,1445.72 1301.11,1445.72 1301.62,1445.72 1302.14,1445.72 1302.65,1445.72 1303.17,1445.72 1303.68,1445.72 1304.2,1320.35 1304.71,273.217 1305.23,1442.37 1305.74,1445.71 1306.26,1445.72 1306.77,1445.72 1307.29,1445.72 1307.8,1445.72 1308.32,1445.72 1308.83,1445.72 1309.35,1322.91 1309.86,299.383 1310.38,1445.72 1310.89,1445.72 1311.41,1433.92 1311.92,1433.82 1312.44,1445.72 1312.95,1445.72 1313.47,1445.72 1313.98,1445.72 1314.5,1319.96 1315.01,128.317 1315.53,1445.72 1316.04,1445.72 1316.56,1445.72 1317.07,1445.72 1317.59,1438.94 1318.1,1445.7 1318.62,1445.72 1319.13,1445.72 1319.65,1324.23 1320.16,306.973 1320.68,1445.72 1321.19,1445.72 1321.71,1434.68 1322.22,1440.6 1322.74,1445.72 1323.25,1445.72 1323.77,1445.72 1324.28,1445.72 1324.8,1320.05 1325.31,271.979 1325.83,1445.72 1326.34,1445.72 1326.86,1445.72 1327.37,1445.72 1327.89,1445.72 1328.4,1445.72 1328.92,1445.72 1329.43,1445.72 1329.95,1316.32 1330.46,99.6695 1330.98,1445.72 1331.49,1445.72 1332.01,1445.72 1332.52,1445.72 1333.04,1445.72 1333.55,1445.72 1334.07,1445.72 1334.58,1445.72 1335.1,1316.89 1335.61,245.124 1336.13,1445.72 1336.64,1445.72 1337.16,1445.72 1337.67,1445.72 1338.19,1445.72 1338.7,1445.72 1339.22,1445.72 1339.73,1445.72 1340.25,1317.73 1340.76,255.383 1341.28,1445.72 1341.79,1445.72 1342.31,1431.31 1342.82,1434.37 1343.34,1445.72 1343.85,1445.72 1344.37,1445.72 1344.88,1445.72 1345.4,1316.85 1345.91,130.583 1346.43,1445.72 1346.94,1445.72 1347.46,1445.72 1347.97,1445.72 1348.49,1442.33 1349.01,1445.71 1349.52,1445.72 1350.04,1445.72 1350.55,1323.9 1351.07,306.643 1351.58,1445.72 1352.1,1445.72 1352.61,1433.25 1353.13,1440 1353.64,1445.72 1354.16,1445.72 1354.67,1439.05 1355.19,1445.7 1355.7,1321.44 1356.22,304.692 1356.73,1445.72 1357.25,1445.72 1357.76,1442.39 1358.28,1445.71 1358.79,1445.72 1359.31,1445.72 1359.82,1445.72 1360.34,1445.72 1360.85,1442.39 1361.37,1445.71 1361.88,1445.72 1362.4,1445.72 1362.91,1318.78 1363.43,250.539 1363.94,1442.39 1364.46,1445.71 1364.97,1433.33 1365.49,1439.91 1366,1445.72 1366.52,1445.72 1367.03,1442.39 1367.55,1445.71 1368.06,1317.74 1368.58,255.761 1369.09,1445.72 1369.61,1445.72 1370.12,1434.53 1370.64,1434.25 1371.15,1445.72 1371.67,1445.72 1372.18,1445.72 1372.7,1445.72 1373.21,1314 1373.73,176.128 1374.24,1445.72 1374.76,1445.72 1375.27,1445.72 1375.79,1445.72 1376.3,1445.72 1376.82,1445.72 1377.33,1445.72 1377.85,1445.72 1378.36,1319.77 1378.88,280.352 1379.39,1445.72 1379.91,1445.72 1380.42,1445.72 1380.94,1445.72 1381.45,1445.72 1381.97,1445.72 1382.48,1442.38 1383,1445.71 1383.51,1317.22 1384.03,247.268 1384.54,1445.72 1385.06,1445.72 1385.57,1442.38 1386.09,1445.71 1386.6,1445.72 1387.12,1445.72 1387.63,1445.72 1388.15,1445.72 1388.66,1316.33 1389.18,110.626 1389.69,1445.72 1390.21,1445.72 1390.72,1445.72 1391.24,1445.72 1391.75,1445.72 1392.27,1445.72 1392.78,1445.72 1393.3,1445.72 1393.81,1317.9 1394.33,251.255 1394.84,1442.37 1395.36,1445.71 1395.87,1422.34 1396.39,1434.67 1396.9,1445.72 1397.42,1445.72 1397.93,1442.38 1398.45,1445.71 1398.96,1317.7 1399.48,275.979 1399.99,1445.72 1400.51,1445.72 1401.02,1436.14 1401.54,1435.1 1402.05,1445.72 1402.57,1445.72 1403.08,1445.72 1403.6,1445.72 1404.11,1316.94 1404.63,101.224 1405.14,1445.72 1405.66,1445.72 1406.17,1423 1406.69,1435.07 1407.2,1445.72 1407.72,1445.72 1408.23,1445.72 1408.75,1445.72 1409.26,1319.64 1409.78,345.512 1410.29,1445.72 1410.81,1445.72 1411.32,1415.14 1411.84,1425.95 1412.35,1445.72 1412.87,1445.72 1413.38,1445.72 1413.9,1445.72 1414.41,1317.74 1414.93,265.526 1415.44,1445.72 1415.96,1445.72 1416.47,1414.84 1416.99,1412.88 1417.5,1445.72 1418.02,1445.72 1418.53,1445.72 1419.05,1445.72 1419.56,1319.38 1420.08,239.062 1420.59,1445.72 1421.11,1445.72 1421.62,1371.44 1422.14,1316.88 1422.65,1316 1423.17,313.555 1423.68,1445.72 1424.2,1445.72 1424.71,1340.79 1425.23,798.598 1425.74,1405.88 1426.26,1387.42 1426.77,1445.72 1427.29,1445.72 1427.8,1445.72 1428.32,1445.72 1428.83,1445.72 1429.35,1445.72 1429.86,1361.08 1430.38,932.774 1430.89,1445.72 1431.41,1445.72 1431.92,1317.02 1432.44,250.253 1432.95,1433.02 1433.47,1424.87 1433.98,1445.72 1434.5,1445.72 1435.01,1445.72 1435.53,1445.72 1436.04,1445.72 1436.56,1445.72 1437.07,1318.09 1437.59,250.481 1438.1,1445.72 1438.62,1445.72 1439.13,1445.72 1439.65,1445.72 1440.16,1445.72 1440.68,1445.72 1441.19,1445.72 1441.71,1445.72 1442.22,1317.5 1442.74,277.369 1443.25,1445.72 1443.77,1445.72 1444.28,1445.72 1444.8,1445.72 1445.31,1445.72 1445.83,1445.72 1446.34,1445.72 1446.86,1445.72 1447.37,1322.03 1447.89,154.927 1448.4,1445.72 1448.92,1445.72 1449.43,1445.72 1449.95,1445.72 1450.46,1445.72 1450.98,1445.72 1451.49,1445.72 1452.01,1445.72 1452.52,1319.67 1453.04,362.428 1453.55,1445.72 1454.07,1445.72 1454.58,1392.36 1455.1,1404.1 1455.61,1445.72 1456.13,1445.72 1456.64,1341.65 1457.16,802.739 1457.67,1445.72 1458.19,1445.72 1458.7,1445.72 1459.22,1445.72 1459.73,1333.4 1460.25,657.917 1460.76,1445.72 1461.28,1445.72 1461.79,1317.14 1462.31,612.102 1462.82,1445.72 1463.34,1445.72 1463.85,1321.8 1464.37,414.787 1464.88,1398.31 1465.4,1327.82 1465.91,1424.39 1466.43,1406.21 1466.94,1445.72 1467.46,1445.72 1467.97,1364.17 1468.49,1081.92 1469,1423.01 1469.52,1419.77 1470.03,1445.72 1470.55,1445.72 1471.06,1445.72 1471.58,1445.72 1472.09,1442.38 1472.61,1445.71 1473.12,1445.72 1473.64,1445.72 1474.15,1445.72 1474.67,1445.72 1475.18,1445.72 1475.7,1445.72 1476.21,1413.34 1476.73,1425.22 1477.24,1445.72 1477.76,1445.72 1478.27,1445.72 1478.79,1445.72 1479.3,1445.72 1479.82,1445.72 1480.33,1318.19 1480.85,313.444 1481.36,1445.72 1481.88,1445.72 1482.39,1431.7 1482.91,1437.31 1483.42,1445.72 1483.94,1445.72 1484.45,1445.72 1484.97,1445.72 1485.48,1445.72 1486,1445.72 1486.51,1445.72 1487.03,1445.72 1487.54,1442.38 1488.06,1445.71 1488.57,1433.43 1489.09,1440.2 1489.6,1445.72 1490.12,1445.72 1490.63,1445.72 1491.15,1445.72 1491.66,1322.77 1492.18,464.273 1492.69,1445.72 1493.21,1445.72 1493.72,1319.46 1494.24,313.545 1494.75,1445.72 1495.27,1445.72 1495.78,1335.49 1496.3,609.63 1496.81,1445.72 1497.33,1445.72 1497.84,1365.44 1498.36,1171.39 1498.87,1396.79 1499.39,1337.39 1499.9,1324.7 1500.42,224.126 1500.93,1445.72 1501.45,1445.72 1501.96,1445.72 1502.48,1445.72 1502.99,1442.33 1503.51,1445.71 1504.02,1445.72 1504.54,1445.72 1505.05,1317.46 1505.57,249.03 1506.08,1445.72 1506.6,1445.72 1507.11,1445.72 1507.63,1445.72 1508.14,1445.72 1508.66,1445.72 1509.17,1445.72 1509.69,1445.72 1510.2,1316.76 1510.72,243.805 1511.23,1445.72 1511.75,1445.72 1512.26,1433.72 1512.78,1433.72 1513.29,1445.72 1513.81,1445.72 1514.32,1445.72 1514.84,1445.72 1515.35,1318.19 1515.87,149.053 1516.38,1445.72 1516.9,1445.72 1517.41,1445.72 1517.93,1445.72 1518.44,1442.33 1518.96,1445.71 1519.47,1445.72 1519.99,1445.72 1520.5,1317.54 1521.02,247.541 1521.53,1445.72 1522.05,1445.72 1522.56,1433.78 1523.08,1440.09 1523.59,1445.72 1524.11,1445.72 1524.62,1442.38 1525.14,1445.71 1525.65,1317.35 1526.17,246.592 1526.68,1445.72 1527.2,1445.72 1527.71,1445.72 1528.23,1445.72 1528.74,1445.72 1529.26,1445.72 1529.77,1445.72 1530.29,1445.72 1530.8,1320.22 1531.32,129.339 1531.83,1445.72 1532.35,1445.72 1532.86,1445.72 1533.38,1445.72 1533.89,1445.72 1534.41,1445.72 1534.92,1445.72 1535.44,1445.72 1535.95,1316.98 1536.47,244.675 1536.98,1442.37 1537.5,1445.71 1538.01,1434.16 1538.53,1440.37 1539.04,1445.72 1539.56,1445.72 1540.07,1442.38 1540.59,1445.71 1541.1,1322.23 1541.62,293.279 1542.13,1445.72 1542.65,1445.72 1543.16,1442.38 1543.68,1445.71 1544.19,1445.72 1544.71,1445.72 1545.22,1445.72 1545.74,1445.72 1546.25,1320.47 1546.77,130.763 1547.28,1445.72 1547.8,1445.72 1548.31,1445.72 1548.83,1445.72 1549.34,1445.72 1549.86,1445.72 1550.37,1445.72 1550.89,1445.72 1551.4,1319.88 1551.92,270.349 1552.43,1442.37 1552.95,1445.71 1553.46,1445.72 1553.98,1445.72 1554.49,1445.72 1555.01,1445.72 1555.52,1445.72 1556.04,1445.72 1556.55,1317.7 1557.07,248.46 1557.58,1445.72 1558.1,1445.72 1558.61,1439.05 1559.13,1445.7 1559.64,1445.72 1560.16,1445.72 1560.67,1445.72 1561.19,1445.72 1561.7,1319.58 1562.22,125.591 1562.73,1445.72 1563.25,1445.72 1563.76,1433.98 1564.28,1440.24 1564.79,1445.72 1565.31,1445.72 1565.82,1445.72 1566.34,1445.72 1566.85,1317.34 1567.37,246.608 1567.88,1442.37 1568.4,1445.71 1568.91,1445.72 1569.43,1445.72 1569.94,1445.72 1570.46,1445.72 1570.97,1439.05 1571.49,1445.7 1572,1317.46 1572.52,247.201 1573.03,1445.72 1573.55,1445.72 1574.06,1430.9 1574.58,1434.23 1575.09,1445.72 1575.61,1445.72 1576.12,1445.72 1576.64,1445.72 1577.15,1315.87 1577.67,92.2414 1578.18,1445.72 1578.7,1445.72 1579.21,1445.72 1579.73,1445.72 1580.24,1445.72 1580.76,1445.72 1581.27,1445.72 1581.79,1445.72 1582.3,1317.4 1582.82,246.866 1583.33,1445.72 1583.85,1445.72 1584.36,1433.92 1584.88,1440.19 1585.39,1445.72 1585.91,1445.72 1586.42,1439.05 1586.94,1445.7 1587.45,1316.82 1587.97,243.853 1588.48,1445.72 1589,1445.72 1589.51,1445.72 1590.03,1445.72 1590.54,1445.72 1591.06,1445.72 1591.57,1445.72 1592.09,1445.72 1592.6,1318.89 1593.12,152.907 1593.63,1445.72 1594.15,1445.72 1594.66,1445.72 1595.18,1445.72 1595.69,1445.72 1596.21,1445.72 1596.72,1445.72 1597.24,1445.72 1597.75,1316.35 1598.27,241.432 1598.78,1445.72 1599.3,1445.72 1599.81,1445.72 1600.33,1445.72 1600.84,1445.72 1601.36,1445.72 1601.87,1445.72 1602.39,1445.72 1602.9,1323.05 1603.42,297.443 1603.93,1445.72 1604.45,1445.72 1604.96,1445.72 1605.48,1445.72 1605.99,1445.72 1606.51,1445.72 1607.02,1445.72 1607.54,1445.72 1608.05,1316.66 1608.57,96.701 1609.08,1445.72 1609.6,1445.72 1610.11,1445.72 1610.63,1445.72 1611.14,1442.33 1611.66,1445.71 1612.17,1445.72 1612.69,1445.72 1613.2,1317.39 1613.72,246.752 1614.23,1445.72 1614.75,1445.72 1615.26,1445.72 1615.78,1445.72 1616.29,1445.72 1616.81,1445.72 1617.32,1442.38 1617.84,1445.71 1618.35,1317.3 1618.87,246.296 1619.38,1445.72 1619.9,1445.72 1620.41,1445.72 1620.93,1445.72 1621.44,1445.72 1621.96,1445.72 1622.47,1445.72 1622.99,1445.72 1623.5,1319.26 1624.02,154.986 1624.53,1445.72 1625.05,1445.72 1625.56,1422.49 1626.08,1434.94 1626.59,1445.72 1627.11,1445.72 1627.62,1445.72 1628.14,1445.72 1628.65,1317.43 1629.17,246.959 1629.68,1445.72 1630.2,1445.72 1630.71,1445.72 1631.23,1445.72 1631.74,1445.72 1632.26,1445.72 1632.77,1445.72 1633.29,1445.72 1633.8,1318.18 1634.32,250.825 1634.83,1445.72 1635.35,1445.72 1635.86,1445.72 1636.38,1445.72 1636.89,1445.72 1637.41,1445.72 1637.92,1445.72 1638.44,1445.72 1638.95,1316.57 1639.47,96.1926 1639.98,1445.72 1640.5,1445.72 1641.01,1445.72 1641.53,1445.72 1642.04,1445.72 1642.56,1445.72 1643.07,1445.72 1643.59,1445.72 1644.1,1318.2 1644.62,250.979 1645.13,1439.03 1645.65,1445.7 1646.16,1445.72 1646.68,1445.72 1647.19,1445.72 1647.71,1445.72 1648.22,1442.38 1648.74,1445.71 1649.25,1317.93 1649.77,249.574 1650.28,1445.72 1650.8,1445.72 1651.31,1445.72 1651.83,1445.72 1652.34,1445.72 1652.86,1445.72 1653.37,1445.72 1653.89,1445.72 1654.4,1316.55 1654.92,96.0578 1655.43,1445.72 1655.95,1445.72 1656.46,1433.84 1656.98,1440.13 1657.49,1445.72 1658.01,1445.72 1658.52,1445.72 1659.04,1445.72 1659.55,1317.25 1660.07,246.049 1660.58,1445.72 1661.1,1445.72 1661.61,1445.72 1662.13,1445.72 1662.64,1445.72 1663.16,1445.72 1663.67,1445.72 1664.19,1445.72 1664.71,1317.2 1665.22,245.809 1665.74,1445.72 1666.25,1445.72 1666.77,1445.72 1667.28,1445.72 1667.8,1445.72 1668.31,1445.72 1668.83,1445.72 1669.34,1445.72 1669.86,1316.43 1670.37,95.3666 1670.89,1445.72 1671.4,1445.72 1671.92,1445.72 1672.43,1445.72 1672.95,1445.72 1673.46,1445.72 1673.98,1445.72 1674.49,1445.72 1675.01,1317.59 1675.52,247.814 1676.04,1442.37 1676.55,1445.71 1677.07,1445.72 1677.58,1445.72 1678.1,1445.72 1678.61,1445.72 1679.13,1445.72 1679.64,1445.72 1680.16,1316.95 1680.67,244.548 1681.19,1445.72 1681.7,1445.72 1682.22,1442.38 1682.73,1445.71 1683.25,1445.72 1683.76,1445.72 1684.28,1445.72 1684.79,1445.72 1685.31,1316.91 1685.82,98.0417 1686.34,1445.72 1686.85,1445.72 1687.37,1434.01 1687.88,1440.26 1688.4,1442.33 1688.91,1445.71 1689.43,1445.72 1689.94,1445.72 1690.46,1317.11 1690.97,245.271 1691.49,1445.72 1692,1445.72 1692.52,1445.72 1693.03,1445.72 1693.55,1445.72 1694.06,1445.72 1694.58,1445.72 1695.09,1445.72 1695.61,1317.61 1696.12,247.873 1696.64,1445.72 1697.15,1445.72 1697.67,1442.38 1698.18,1445.71 1698.7,1445.72 1699.21,1445.72 1699.73,1445.72 1700.24,1445.72 1700.76,1316.94 1701.27,98.283 1701.79,1445.72 1702.3,1445.72 1702.82,1433.81 1703.33,1440.11 1703.85,1442.33 1704.36,1445.71 1704.88,1445.72 1705.39,1445.72 1705.91,1317.49 1706.42,247.257 1706.94,1445.72 1707.45,1445.72 1707.97,1445.72 1708.48,1445.72 1709,1445.72 1709.51,1445.72 1710.03,1445.72 1710.54,1445.72 1711.06,1317.47 1711.57,247.117 1712.09,1445.72 1712.6,1445.72 1713.12,1433.73 1713.63,1433.74 1714.15,1445.72 1714.66,1445.72 1715.18,1445.72 1715.69,1445.72 1716.21,1318.05 1716.72,148.127 1717.24,1445.72 1717.75,1445.72 1718.27,1445.72 1718.78,1445.72 1719.3,1442.33 1719.81,1445.71 1720.33,1445.72 1720.84,1445.72 1721.36,1317.47 1721.87,247.121 1722.39,1445.72 1722.9,1445.72 1723.42,1445.72 1723.93,1445.72 1724.45,1445.72 1724.96,1445.72 1725.48,1439.05 1725.99,1445.7 1726.51,1317.66 1727.02,248.106 1727.54,1445.72 1728.05,1445.72 1728.57,1445.72 1729.08,1445.72 1729.6,1445.72 1730.11,1445.72 1730.63,1445.72 1731.14,1445.72 1731.66,1317.39 1732.17,206.712 1732.69,1445.72 1733.2,1445.72 1733.72,1445.72 1734.23,1445.72 1734.75,1445.72 1735.26,1445.72 1735.78,1445.72 1736.29,1445.72 1736.81,1317.99 1737.32,249.825 1737.84,1442.37 1738.35,1445.71 1738.87,1433.86 1739.38,1440.14 1739.9,1445.72 1740.41,1445.72 1740.93,1445.72 1741.44,1445.72 1741.96,1320.06 1742.47,271.245 1742.99,1445.72 1743.5,1445.72 1744.02,1433.92 1744.53,1433.94 1745.05,1445.72 1745.56,1445.72 1746.08,1445.72 1746.59,1445.72 1747.11,1316.11 1747.62,124.786 1748.14,1445.72 1748.65,1445.72 1749.17,1445.72 1749.68,1445.72 1750.2,1442.33 1750.71,1445.71 1751.23,1445.72 1751.74,1445.72 1752.26,1319.99 1752.77,270.882 1753.29,1445.72 1753.8,1445.72 1754.32,1445.72 1754.83,1445.72 1755.35,1445.72 1755.86,1445.72 1756.38,1442.38 1756.89,1445.71 1757.41,1317.54 1757.92,247.469 1758.44,1445.72 1758.95,1445.72 1759.47,1445.72 1759.98,1445.72 1760.5,1445.72 1761.01,1445.72 1761.53,1445.72 1762.04,1445.72 1762.56,1317.21 1763.07,99.7367 1763.59,1445.72 1764.1,1445.72 1764.62,1445.72 1765.13,1445.72 1765.65,1442.33 1766.16,1445.71 1766.68,1445.72 1767.19,1445.72 1767.71,1320.68 1768.22,274.467 1768.74,1445.72 1769.25,1445.72 1769.77,1445.72 1770.28,1445.72 1770.8,1445.72 1771.31,1445.72 1771.83,1442.38 1772.34,1445.71 1772.86,1316.98 1773.37,244.628 1773.89,1445.72 1774.4,1445.72 1774.92,1442.38 1775.43,1445.71 1775.95,1445.72 1776.46,1445.72 1776.98,1445.72 1777.49,1445.72 1778.01,1315.29 1778.52,151.246 1779.04,1445.72 1779.55,1445.72 1780.07,1433.96 1780.58,1440.22 1781.1,1445.72 1781.61,1445.72 1782.13,1445.72 1782.64,1445.72 1783.16,1317.48 1783.67,247.235 1784.19,1445.72 1784.7,1445.72 1785.22,1445.72 1785.73,1445.72 1786.25,1445.72 1786.76,1445.72 1787.28,1442.38 1787.79,1445.71 1788.31,1317.07 1788.82,245.094 1789.34,1445.72 1789.85,1445.72 1790.37,1418.76 1790.88,1422.11 1791.4,1445.72 1791.91,1445.72 1792.43,1445.72 1792.94,1445.72 1793.46,1316.46 1793.97,95.6021 1794.49,1445.72 1795,1445.72 1795.52,1434.07 1796.03,1440.3 1796.55,1442.33 1797.06,1445.71 1797.58,1445.72 1798.09,1445.72 1798.61,1317.49 1799.12,247.254 1799.64,1445.72 1800.15,1445.72 1800.67,1433.98 1801.18,1440.23 1801.7,1445.72 1802.21,1445.72 1802.73,1445.72 1803.24,1445.72 1803.76,1319.77 1804.27,269.777 1804.79,1445.72 1805.3,1445.72 1805.82,1442.38 1806.33,1445.71 1806.85,1445.72 1807.36,1445.72 1807.88,1445.72 1808.39,1445.72 1808.91,1316.26 1809.42,125.558 1809.94,1445.72 1810.45,1445.72 1810.97,1445.72 1811.48,1445.72 1812,1442.33 1812.51,1445.71 1813.03,1445.72 1813.54,1445.72 1814.06,1317.37 1814.57,246.6 1815.09,1445.72 1815.6,1445.72 1816.12,1445.72 1816.63,1445.72 1817.15,1445.72 1817.66,1445.72 1818.18,1445.72 1818.69,1445.72 1819.21,1317.18 1819.72,245.596 1820.24,1445.72 1820.75,1445.72 1821.27,1439.05 1821.78,1445.7 1822.3,1445.72 1822.81,1445.72 1823.33,1445.72 1823.84,1445.72 1824.36,1316.86 1824.87,97.7693 1825.39,1445.72 1825.9,1445.72 1826.42,1434.15 1826.93,1440.36 1827.45,1442.33 1827.96,1445.71 1828.48,1445.72 1828.99,1445.72 1829.51,1317.87 1830.02,249.181 1830.54,1445.72 1831.05,1445.72 1831.57,1445.72 1832.08,1445.72 1832.6,1445.72 1833.11,1445.72 1833.63,1445.72 1834.14,1445.72 1834.66,1317.63 1835.17,247.992 1835.69,1445.72 1836.2,1445.72 1836.72,1433.88 1837.23,1433.9 1837.75,1445.72 1838.26,1445.72 1838.78,1445.72 1839.29,1445.72 1839.81,1315.09 1840.32,150.209 1840.84,1445.72 1841.35,1445.72 1841.87,1445.72 1842.38,1445.72 1842.9,1445.72 1843.41,1445.72 1843.93,1445.72 1844.44,1445.72 1844.96,1320.17 1845.47,271.803 1845.99,1439.03 1846.5,1445.7 1847.02,1422.17 1847.53,1434.7 1848.05,1445.72 1848.56,1445.72 1849.08,1445.72 1849.59,1445.72 1850.11,1322.7 1850.62,295.616 1851.14,1445.72 1851.65,1445.72 1852.17,1442.38 1852.68,1445.71 1853.2,1445.72 1853.71,1445.72 1854.23,1445.72 1854.74,1445.72 1855.26,1317.07 1855.77,98.9906 1856.29,1445.72 1856.8,1445.72 1857.32,1445.72 1857.83,1445.72 1858.35,1442.33 1858.86,1445.71 1859.38,1445.72 1859.89,1445.72 1860.41,1317.21 1860.92,245.831 1861.44,1442.37 1861.95,1445.71 1862.47,1445.72 1862.98,1445.72 1863.5,1445.72 1864.01,1445.72 1864.53,1445.72 1865.04,1445.72 1865.56,1319.56 1866.07,268.64 1866.59,1445.72 1867.1,1445.72 1867.62,1423.97 1868.13,1433.96 1868.65,1445.72 1869.16,1445.72 1869.68,1445.72 1870.19,1445.72 1870.71,1315.49 1871.22,121.198 1871.74,1445.72 1872.25,1445.72 1872.77,1434.02 1873.28,1440.26 1873.8,1438.94 1874.31,1445.7 1874.83,1445.72 1875.34,1445.72 1875.86,1317.62 1876.37,247.886 1876.89,1442.37 1877.4,1445.71 1877.92,1422.17 1878.43,1434.7 1878.95,1445.72 1879.46,1445.72 1879.98,1445.72 1880.49,1445.72 1881.01,1317.56 1881.52,247.551 1882.04,1445.72 1882.55,1445.72 1883.07,1418.96 1883.58,1422.3 1884.1,1445.72 1884.61,1445.72 1885.13,1445.72 1885.64,1445.72 1886.16,1321.83 1886.67,150.698 1887.19,1445.72 1887.7,1445.72 1888.22,1433.95 1888.73,1440.22 1889.25,1445.72 1889.76,1445.72 1890.28,1445.72 1890.79,1445.72 1891.31,1320.09 1891.82,271.359 1892.34,1442.37 1892.85,1445.71 1893.37,1445.72 1893.88,1445.72 1894.4,1445.72 1894.91,1445.72 1895.43,1439.05 1895.94,1445.7 1896.46,1317.77 1896.97,248.641 1897.49,1445.72 1898,1445.72 1898.52,1433.79 1899.03,1433.8 1899.55,1445.72 1900.06,1445.72 1900.58,1445.72 1901.09,1445.72 1901.61,1316.27 1902.12,125.646 1902.64,1445.72 1903.15,1445.72 1903.67,1433.91 1904.18,1440.18 1904.7,1442.33 1905.21,1445.71 1905.73,1445.72 1906.24,1445.72 1906.76,1317.16 1907.27,245.529 1907.79,1442.37 1908.3,1445.71 1908.82,1445.72 1909.33,1445.72 1909.85,1445.72 1910.36,1445.72 1910.88,1445.72 1911.39,1445.72 1911.91,1317.44 1912.42,246.977 1912.94,1445.72 1913.45,1445.72 1913.97,1445.72 1914.48,1445.72 1915,1445.72 1915.51,1445.72 1916.03,1445.72 1916.54,1445.72 1917.06,1319.73 1917.57,126.373 1918.09,1445.72 1918.6,1445.72 1919.12,1433.93 1919.63,1440.2 1920.15,1445.72 1920.66,1445.72 1921.18,1445.72 1921.69,1445.72 1922.21,1325.39 1922.72,320.192 1923.24,1445.72 1923.75,1445.72 1924.27,1445.72 1924.78,1445.72 1925.3,1445.72 1925.81,1445.72 1926.33,1445.72 1926.84,1445.72 1927.36,1320.46 1927.87,273.28 1928.39,1445.72 1928.9,1445.72 1929.42,1439.05 1929.93,1445.7 1930.45,1445.72 1930.96,1445.72 1931.48,1445.72 1931.99,1445.72 1932.51,1318.61 1933.02,151.21 1933.54,1445.72 1934.05,1445.72 1934.57,1445.72 1935.08,1445.72 1935.6,1442.33 1936.11,1445.71 1936.63,1445.72 1937.14,1445.72 1937.66,1320.09 1938.17,271.405 1938.69,1445.72 1939.2,1445.72 1939.72,1434.09 1940.23,1440.32 1940.75,1445.72 1941.26,1445.72 1941.78,1442.38 1942.29,1445.71 1942.81,1318.1 1943.32,250.424 1943.84,1445.72 1944.35,1445.72 1944.87,1442.38 1945.38,1445.71 1945.9,1445.72 1946.41,1445.72 1946.93,1445.72 1947.44,1445.72 1947.96,1317.4 1948.47,100.885 1948.99,1445.72 1949.5,1445.72 1950.02,1434.12 1950.53,1440.34 1951.05,1445.72 1951.56,1445.72 1952.08,1445.72 1952.59,1445.72 1953.11,1317.31 1953.62,246.302 1954.14,1442.37 1954.65,1445.71 1955.17,1445.72 1955.68,1445.72 1956.2,1445.72 1956.71,1445.72 1957.23,1442.38 1957.74,1445.71 1958.26,1319.49 1958.77,268.315 1959.29,1445.72 1959.8,1445.72 1960.32,1445.72 1960.83,1445.72 1961.35,1445.72 1961.86,1445.72 1962.38,1445.72 1962.89,1445.72 1963.41,1315.96 1963.92,123.908 1964.44,1445.72 1964.95,1445.72 1965.47,1445.72 1965.98,1445.72 1966.5,1445.72 1967.01,1445.72 1967.53,1445.72 1968.04,1445.72 1968.56,1323.11 1969.07,297.734 1969.59,1442.37 1970.1,1445.71 1970.62,1445.72 1971.13,1445.72 1971.65,1445.72 1972.16,1445.72 1972.68,1445.72 1973.19,1445.72 1973.71,1317.08 1974.22,245.109 1974.74,1445.72 1975.25,1445.72 1975.77,1433.98 1976.28,1434 1976.8,1445.72 1977.31,1445.72 1977.83,1445.72 1978.34,1445.72 1978.86,1317.04 1979.37,98.8273 1979.89,1445.72 1980.41,1445.72 1980.92,1445.72 1981.44,1445.72 1981.95,1442.33 1982.47,1445.71 1982.98,1445.72 1983.5,1445.72 1984.01,1317.99 1984.53,249.845 1985.04,1439.03 1985.56,1445.7 1986.07,1433.89 1986.59,1440.17 1987.1,1445.72 1987.62,1445.72 1988.13,1445.72 1988.65,1445.72 1989.16,1317.36 1989.68,246.568 1990.19,1445.72 1990.71,1445.72 1991.22,1445.72 1991.74,1445.72 1992.25,1445.72 1992.77,1445.72 1993.28,1445.72 1993.8,1445.72 1994.31,1317.15 1994.83,99.4565 1995.34,1445.72 1995.86,1445.72 1996.37,1433.92 1996.89,1440.19 1997.4,1445.72 1997.92,1445.72 1998.43,1445.72 1998.95,1445.72 1999.46,1319.38 1999.98,267.771 2000.49,1445.72 2001.01,1445.72 2001.52,1445.72 2002.04,1445.72 2002.55,1445.72 2003.07,1445.72 2003.58,1445.72 2004.1,1445.72 2004.61,1317.5 2005.13,247.308 2005.64,1445.72 2006.16,1445.72 2006.67,1445.72 2007.19,1445.72 2007.7,1445.72 2008.22,1445.72 2008.73,1445.72 2009.25,1445.72 2009.76,1319.86 2010.28,127.21 2010.79,1445.72 2011.31,1445.72 2011.82,1445.72 2012.34,1445.72 2012.85,1445.72 2013.37,1445.72 2013.88,1445.72 2014.4,1445.72 2014.91,1320.19 2015.43,271.944 2015.94,1445.72 2016.46,1445.72 2016.97,1433.94 2017.49,1440.2 2018,1445.72 2018.52,1445.72 2019.03,1442.38 2019.55,1445.71 2020.06,1320.02 2020.58,271.057 2021.09,1445.72 2021.61,1445.72 2022.12,1433.78 2022.64,1433.79 2023.15,1445.72 2023.67,1445.72 2024.18,1445.72 2024.7,1445.72 2025.21,1316.21 2025.73,125.402 2026.24,1445.72 2026.76,1445.72 2027.27,1445.72 2027.79,1445.72 2028.3,1438.94 2028.82,1445.7 2029.33,1445.72 2029.85,1445.72 2030.36,1318.21 2030.88,250.951 2031.39,1439.03 2031.91,1445.7 2032.42,1445.72 2032.94,1445.72 2033.45,1445.72 2033.97,1445.72 2034.48,1445.72 2035,1445.72 2035.51,1318.5 2036.03,252.534 2036.54,1445.72 2037.06,1445.72 2037.57,1442.38 2038.09,1445.71 2038.6,1445.72 2039.12,1445.72 2039.63,1445.72 2040.15,1445.72 2040.66,1316.32 2041.18,125.976 2041.69,1445.72 2042.21,1445.72 2042.72,1445.72 2043.24,1445.72 2043.75,1445.72 2044.27,1445.72 2044.78,1445.72 2045.3,1445.72 2045.81,1317.91 2046.33,249.432 2046.84,1442.37 2047.36,1445.71 2047.87,1422.47 2048.39,1434.92 2048.9,1445.72 2049.42,1445.72 2049.93,1445.72 2050.45,1445.72 2050.96,1320.03 2051.48,271.216 2051.99,1445.72 2052.51,1445.72 2053.02,1445.72 2053.54,1445.72 2054.05,1445.72 2054.57,1445.72 2055.08,1445.72 2055.6,1445.72 2056.11,1319.67 2056.63,126.134 2057.14,1445.72 2057.66,1445.72 2058.17,1445.72 2058.69,1445.72 2059.2,1445.72 2059.72,1445.72 2060.23,1445.72 2060.75,1445.72 2061.26,1317.16 2061.78,245.6 2062.29,1442.37 2062.81,1445.71 2063.32,1445.72 2063.84,1445.72 2064.35,1445.72 2064.87,1445.72 2065.38,1445.72 2065.9,1445.72 2066.41,1317.18 2066.93,245.646 2067.44,1445.72 2067.96,1445.72 2068.47,1442.38 2068.99,1445.71 2069.5,1445.72 2070.02,1445.72 2070.53,1445.72 2071.05,1445.72 2071.56,1316.89 2072.08,129.256 2072.59,1445.72 2073.11,1445.72 2073.62,1445.72 2074.14,1445.72 2074.65,1445.72 2075.17,1445.72 2075.68,1445.72 2076.2,1445.72 2076.71,1317.88 2077.23,249.35 2077.74,1445.72 2078.26,1445.72 2078.77,1445.72 2079.29,1445.72 2079.8,1445.72 2080.32,1445.72 2080.83,1442.38 2081.35,1445.71 2081.86,1320.98 2082.38,276.074 2082.89,1445.72 2083.41,1445.72 2083.92,1433.94 2084.44,1433.96 2084.95,1445.72 2085.47,1445.72 2085.98,1445.72 2086.5,1445.72 2087.01,1316.94 2087.53,98.4034 2088.04,1445.72 2088.56,1445.72 2089.07,1445.72 2089.59,1445.72 2090.1,1445.72 2090.62,1445.72 2091.13,1445.72 2091.65,1445.72 2092.16,1318.12 2092.68,250.584 2093.19,1445.72 2093.71,1445.72 2094.22,1445.72 2094.74,1445.72 2095.25,1445.72 2095.77,1445.72 2096.28,1442.38 2096.8,1445.71 2097.31,1320.11 2097.83,271.636 2098.34,1445.72 2098.86,1445.72 2099.37,1445.72 2099.89,1445.72 2100.4,1445.72 2100.92,1445.72 2101.43,1445.72 2101.95,1445.72 2102.46,1316.94 2102.98,129.546 2103.49,1445.72 2104.01,1445.72 2104.52,1445.72 2105.04,1445.72 2105.55,1445.72 2106.07,1445.72 2106.58,1445.72 2107.1,1445.72 2107.61,1317.1 2108.13,245.357 2108.64,1445.72 2109.16,1445.72 2109.67,1434.26 2110.19,1440.44 2110.7,1445.72 2111.22,1445.72 2111.73,1442.38 2112.25,1445.71 2112.76,1318.24 2113.28,251.258 2113.79,1445.72 2114.31,1445.72 2114.82,1445.72 2115.34,1445.72 2115.85,1445.72 2116.37,1445.72 2116.88,1445.72 2117.4,1445.72 2117.91,1321.03 2118.43,177.402 2118.94,1445.72 2119.46,1445.72 2119.97,1445.72 2120.49,1445.72 2121,1445.72 2121.52,1445.72 2122.03,1445.72 2122.55,1445.72 2123.06,1317.55 2123.58,247.593 2124.09,1445.72 2124.61,1445.72 2125.12,1445.72 2125.64,1445.72 2126.15,1445.72 2126.67,1445.72 2127.18,1445.72 2127.7,1445.72 2128.21,1322.84 2128.73,296.379 2129.24,1445.72 2129.76,1445.72 2130.27,1445.72 2130.79,1445.72 2131.3,1445.72 2131.82,1445.72 2132.33,1445.72 2132.85,1445.72 2133.36,1316.19 2133.88,125.258 2134.39,1445.72 2134.91,1445.72 2135.42,1445.72 2135.94,1445.72 2136.45,1445.72 2136.97,1445.72 2137.48,1445.72 2138,1445.72 2138.51,1317.9 2139.03,249.51 2139.54,1439.03 2140.06,1445.7 2140.57,1445.72 2141.09,1445.72 2141.6,1445.72 2142.12,1445.72 2142.63,1445.72 2143.15,1445.72 2143.66,1317.12 2144.18,245.473 2144.69,1445.72 2145.21,1445.72 2145.72,1445.72 2146.24,1445.72 2146.75,1445.72 2147.27,1445.72 2147.78,1445.72 2148.3,1445.72 2148.81,1318 2149.33,147.84 2149.84,1445.72 2150.36,1445.72 2150.87,1445.72 2151.39,1445.72 2151.9,1445.72 2152.42,1445.72 2152.93,1445.72 2153.45,1445.72 2153.96,1320.88 2154.48,275.563 2154.99,1445.72 2155.51,1445.72 2156.02,1445.72 2156.54,1445.72 2157.05,1445.72 2157.57,1445.72 2158.08,1445.72 2158.6,1445.72 2159.11,1318.48 2159.63,252.407 2160.14,1445.72 2160.66,1445.72 2161.17,1433.88 2161.69,1433.89 2162.2,1445.72 2162.72,1445.72 2163.23,1445.72 2163.75,1445.72 2164.26,1319.39 2164.78,124.737 2165.29,1445.72 2165.81,1445.72 2166.32,1445.72 2166.84,1445.72 2167.35,1445.72 2167.87,1445.72 2168.38,1445.72 2168.9,1445.72 2169.41,1318.06 2169.93,250.313 2170.44,1445.72 2170.96,1445.72 2171.47,1445.72 2171.99,1445.72 2172.5,1445.72 2173.02,1445.72 2173.53,1445.72 2174.05,1445.72 2174.56,1317.81 2175.08,248.963 2175.59,1445.72 2176.11,1445.72 2176.62,1445.72 2177.14,1445.72 2177.65,1445.72 2178.17,1445.72 2178.68,1445.72 2179.2,1445.72 2179.71,1315.11 2180.23,87.9763 2180.74,1445.72 2181.26,1445.72 2181.77,1434.07 2182.29,1440.3 2182.8,1442.33 2183.32,1445.71 2183.83,1445.72 2184.35,1445.72 2184.86,1319.17 2185.38,266.778 2185.89,1445.72 2186.41,1445.72 2186.92,1445.72 2187.44,1445.72 2187.95,1445.72 2188.47,1445.72 2188.98,1445.72 2189.5,1445.72 2190.01,1320.54 2190.53,273.759 2191.04,1445.72 2191.56,1445.72 2192.07,1427.32 2192.59,1433.99 2193.1,1445.72 2193.62,1445.72 2194.13,1445.72 2194.65,1445.72 2195.16,1316.7 2195.68,96.9825 2196.19,1445.72 2196.71,1445.72 2197.22,1433.96 2197.74,1440.22 2198.25,1445.72 2198.77,1445.72 2199.28,1445.72 2199.8,1445.72 2200.31,1319.69 2200.83,269.413 2201.34,1442.37 2201.86,1445.71 2202.37,1422.26 2202.89,1434.76 2203.4,1445.72 2203.92,1445.72 2204.43,1445.72 2204.95,1445.72 2205.46,1317.67 2205.98,248.308 2206.49,1445.72 2207.01,1445.72 2207.52,1445.72 2208.04,1445.72 2208.55,1445.72 2209.07,1445.72 2209.58,1445.72 2210.1,1445.72 2210.61,1320.08 2211.13,159.806 2211.64,1445.72 2212.16,1445.72 2212.67,1445.72 2213.19,1445.72 2213.7,1445.72 2214.22,1445.72 2214.73,1445.72 2215.25,1445.72 2215.76,1317.68 2216.28,248.333 2216.79,1445.72 2217.31,1445.72 2217.82,1445.72 2218.34,1445.72 2218.85,1445.72 2219.37,1445.72 2219.88,1445.72 2220.4,1445.72 2220.91,1316.89 2221.43,244.284 2221.94,1445.72 2222.46,1445.72 2222.97,1433.87 2223.49,1433.89 2224,1445.72 2224.52,1445.72 2225.03,1445.72 2225.55,1445.72 2226.06,1317.95 2226.58,178.804 2227.09,1445.72 2227.61,1445.72 2228.12,1445.72 2228.64,1445.72 2229.15,1442.33 2229.67,1445.71 2230.18,1445.72 2230.7,1445.72 2231.21,1316.85 2231.73,243.977 2232.24,1445.72 2232.76,1445.72 2233.27,1445.72 2233.79,1445.72 2234.3,1445.72 2234.82,1445.72 2235.33,1445.72 2235.85,1445.72 2236.36,1319.37 2236.88,267.754 2237.39,1445.72 2237.91,1445.72 2238.42,1445.72 2238.94,1445.72 2239.45,1445.72 2239.97,1445.72 2240.48,1445.72 2241,1445.72 2241.51,1319.82 2242.03,126.978 2242.54,1445.72 2243.06,1445.72 2243.57,1445.72 2244.09,1445.72 2244.6,1445.72 2245.12,1445.72 2245.63,1445.72 2246.15,1445.72 2246.66,1317.74 2247.18,248.588 2247.69,1445.72 2248.21,1445.72 2248.72,1445.72 2249.24,1445.72 2249.75,1445.72 2250.27,1445.72 2250.78,1445.72 2251.3,1445.72 2251.81,1316.59 2252.33,242.663 2252.84,1445.72 2253.36,1445.72 2253.87,1427.22 2254.39,1433.88 2254.9,1445.72 2255.42,1445.72 2255.93,1445.72 2256.45,1445.72 2256.96,1322.21 2257.48,152.898 2257.99,1445.72 2258.51,1445.72 2259.02,1445.72 2259.54,1445.72 2260.05,1445.72 2260.57,1445.72 2261.08,1445.72 2261.6,1445.72 2262.11,1319.74 2262.63,269.622 2263.14,1445.72 2263.66,1445.72 2264.17,1445.72 2264.69,1445.72 2265.2,1445.72 2265.72,1445.72 2266.23,1445.72 2266.75,1445.72 2267.26,1318.37 2267.78,251.822 2268.29,1445.72 2268.81,1445.72 2269.32,1430.71 2269.84,1434.05 2270.35,1445.72 2270.87,1445.72 2271.38,1445.72 2271.9,1445.72 2272.41,1316.98 2272.93,98.5815 2273.44,1445.72 2273.96,1445.72 2274.47,1445.72 2274.99,1445.72 2275.5,1445.72 2276.02,1445.72 2276.53,1445.72 2277.05,1445.72 2277.56,1317.92 2278.08,249.535 2278.59,1445.72 2279.11,1445.72 2279.62,1445.72 2280.14,1445.72 2280.65,1445.72 2281.17,1445.72 2281.68,1445.72 2282.2,1445.72 2282.71,1316.87 2283.23,244.098 2283.74,1445.72 2284.26,1445.72 2284.77,1445.72 2285.29,1445.72 2285.8,1445.72 2286.32,1445.72 2286.83,1445.72 2287.35,1445.72 2287.86,1316.35 2288.38,126.137 2288.89,1445.72 2289.41,1445.72 2289.92,1434.05 2290.44,1440.29 2290.95,1394.64 "/>
<path clip-path="url(#clip170)" d="M241.909 198.898 L512.703 198.898 L512.703 95.2176 L241.909 95.2176  Z" fill="#ffffff" fill-rule="evenodd" fill-opacity="1"/>
<polyline clip-path="url(#clip170)" style="stroke:#000000; stroke-linecap:round; stroke-linejoin:round; stroke-width:4; stroke-opacity:1; fill:none" points="241.909,198.898 512.703,198.898 512.703,95.2176 241.909,95.2176 241.909,198.898 "/>
<polyline clip-path="url(#clip170)" style="stroke:#009af9; stroke-linecap:round; stroke-linejoin:round; stroke-width:4; stroke-opacity:1; fill:none" points="266.172,147.058 411.747,147.058 "/>
<path clip-path="url(#clip170)" d="M449.853 166.745 Q448.047 171.375 446.334 172.787 Q444.621 174.199 441.751 174.199 L438.348 174.199 L438.348 170.634 L440.848 170.634 Q442.607 170.634 443.579 169.8 Q444.552 168.967 445.732 165.865 L446.496 163.921 L436.01 138.412 L440.524 138.412 L448.626 158.689 L456.727 138.412 L461.241 138.412 L449.853 166.745 Z" fill="#000000" fill-rule="nonzero" fill-opacity="1" /><path clip-path="url(#clip170)" d="M468.533 160.402 L476.172 160.402 L476.172 134.037 L467.862 135.703 L467.862 131.444 L476.126 129.778 L480.801 129.778 L480.801 160.402 L488.44 160.402 L488.44 164.338 L468.533 164.338 L468.533 160.402 Z" fill="#000000" fill-rule="nonzero" fill-opacity="1" /></svg>
