<?xml version="1.0" encoding="utf-8"?>
<svg xmlns="http://www.w3.org/2000/svg" xmlns:xlink="http://www.w3.org/1999/xlink" width="600" height="400" viewBox="0 0 2400 1600">
<defs>
  <clipPath id="clip560">
    <rect x="0" y="0" width="2400" height="1600"/>
  </clipPath>
</defs>
<path clip-path="url(#clip560)" d="M0 1600 L2400 1600 L2400 0 L0 0  Z" fill="#ffffff" fill-rule="evenodd" fill-opacity="1"/>
<defs>
  <clipPath id="clip561">
    <rect x="480" y="0" width="1681" height="1600"/>
  </clipPath>
</defs>
<path clip-path="url(#clip560)" d="M239.19 1486.45 L2352.76 1486.45 L2352.76 47.2441 L239.19 47.2441  Z" fill="#ffffff" fill-rule="evenodd" fill-opacity="1"/>
<defs>
  <clipPath id="clip562">
    <rect x="239" y="47" width="2115" height="1440"/>
  </clipPath>
</defs>
<polyline clip-path="url(#clip562)" style="stroke:#000000; stroke-linecap:round; stroke-linejoin:round; stroke-width:2; stroke-opacity:0.1; fill:none" points="299.008,1486.45 299.008,47.2441 "/>
<polyline clip-path="url(#clip562)" style="stroke:#000000; stroke-linecap:round; stroke-linejoin:round; stroke-width:2; stroke-opacity:0.1; fill:none" points="797.74,1486.45 797.74,47.2441 "/>
<polyline clip-path="url(#clip562)" style="stroke:#000000; stroke-linecap:round; stroke-linejoin:round; stroke-width:2; stroke-opacity:0.1; fill:none" points="1296.47,1486.45 1296.47,47.2441 "/>
<polyline clip-path="url(#clip562)" style="stroke:#000000; stroke-linecap:round; stroke-linejoin:round; stroke-width:2; stroke-opacity:0.1; fill:none" points="1795.2,1486.45 1795.2,47.2441 "/>
<polyline clip-path="url(#clip562)" style="stroke:#000000; stroke-linecap:round; stroke-linejoin:round; stroke-width:2; stroke-opacity:0.1; fill:none" points="2293.94,1486.45 2293.94,47.2441 "/>
<polyline clip-path="url(#clip560)" style="stroke:#000000; stroke-linecap:round; stroke-linejoin:round; stroke-width:4; stroke-opacity:1; fill:none" points="239.19,1486.45 2352.76,1486.45 "/>
<polyline clip-path="url(#clip560)" style="stroke:#000000; stroke-linecap:round; stroke-linejoin:round; stroke-width:4; stroke-opacity:1; fill:none" points="299.008,1486.45 299.008,1467.55 "/>
<polyline clip-path="url(#clip560)" style="stroke:#000000; stroke-linecap:round; stroke-linejoin:round; stroke-width:4; stroke-opacity:1; fill:none" points="797.74,1486.45 797.74,1467.55 "/>
<polyline clip-path="url(#clip560)" style="stroke:#000000; stroke-linecap:round; stroke-linejoin:round; stroke-width:4; stroke-opacity:1; fill:none" points="1296.47,1486.45 1296.47,1467.55 "/>
<polyline clip-path="url(#clip560)" style="stroke:#000000; stroke-linecap:round; stroke-linejoin:round; stroke-width:4; stroke-opacity:1; fill:none" points="1795.2,1486.45 1795.2,1467.55 "/>
<polyline clip-path="url(#clip560)" style="stroke:#000000; stroke-linecap:round; stroke-linejoin:round; stroke-width:4; stroke-opacity:1; fill:none" points="2293.94,1486.45 2293.94,1467.55 "/>
<path clip-path="url(#clip560)" d="M299.008 1517.37 Q295.397 1517.37 293.568 1520.93 Q291.763 1524.47 291.763 1531.6 Q291.763 1538.71 293.568 1542.27 Q295.397 1545.82 299.008 1545.82 Q302.643 1545.82 304.448 1542.27 Q306.277 1538.71 306.277 1531.6 Q306.277 1524.47 304.448 1520.93 Q302.643 1517.37 299.008 1517.37 M299.008 1513.66 Q304.818 1513.66 307.874 1518.27 Q310.953 1522.85 310.953 1531.6 Q310.953 1540.33 307.874 1544.94 Q304.818 1549.52 299.008 1549.52 Q293.198 1549.52 290.119 1544.94 Q287.064 1540.33 287.064 1531.6 Q287.064 1522.85 290.119 1518.27 Q293.198 1513.66 299.008 1513.66 Z" fill="#000000" fill-rule="nonzero" fill-opacity="1" /><path clip-path="url(#clip560)" d="M757.358 1514.29 L775.715 1514.29 L775.715 1518.22 L761.641 1518.22 L761.641 1526.7 Q762.659 1526.35 763.678 1526.19 Q764.696 1526 765.715 1526 Q771.502 1526 774.881 1529.17 Q778.261 1532.34 778.261 1537.76 Q778.261 1543.34 774.789 1546.44 Q771.317 1549.52 764.997 1549.52 Q762.821 1549.52 760.553 1549.15 Q758.307 1548.78 755.9 1548.04 L755.9 1543.34 Q757.983 1544.47 760.206 1545.03 Q762.428 1545.58 764.905 1545.58 Q768.909 1545.58 771.247 1543.48 Q773.585 1541.37 773.585 1537.76 Q773.585 1534.15 771.247 1532.04 Q768.909 1529.94 764.905 1529.94 Q763.03 1529.94 761.155 1530.35 Q759.303 1530.77 757.358 1531.65 L757.358 1514.29 Z" fill="#000000" fill-rule="nonzero" fill-opacity="1" /><path clip-path="url(#clip560)" d="M797.474 1517.37 Q793.863 1517.37 792.034 1520.93 Q790.229 1524.47 790.229 1531.6 Q790.229 1538.71 792.034 1542.27 Q793.863 1545.82 797.474 1545.82 Q801.108 1545.82 802.914 1542.27 Q804.742 1538.71 804.742 1531.6 Q804.742 1524.47 802.914 1520.93 Q801.108 1517.37 797.474 1517.37 M797.474 1513.66 Q803.284 1513.66 806.34 1518.27 Q809.418 1522.85 809.418 1531.6 Q809.418 1540.33 806.34 1544.94 Q803.284 1549.52 797.474 1549.52 Q791.664 1549.52 788.585 1544.94 Q785.529 1540.33 785.529 1531.6 Q785.529 1522.85 788.585 1518.27 Q791.664 1513.66 797.474 1513.66 Z" fill="#000000" fill-rule="nonzero" fill-opacity="1" /><path clip-path="url(#clip560)" d="M827.636 1517.37 Q824.025 1517.37 822.196 1520.93 Q820.39 1524.47 820.39 1531.6 Q820.39 1538.71 822.196 1542.27 Q824.025 1545.82 827.636 1545.82 Q831.27 1545.82 833.076 1542.27 Q834.904 1538.71 834.904 1531.6 Q834.904 1524.47 833.076 1520.93 Q831.27 1517.37 827.636 1517.37 M827.636 1513.66 Q833.446 1513.66 836.501 1518.27 Q839.58 1522.85 839.58 1531.6 Q839.58 1540.33 836.501 1544.94 Q833.446 1549.52 827.636 1549.52 Q821.826 1549.52 818.747 1544.94 Q815.691 1540.33 815.691 1531.6 Q815.691 1522.85 818.747 1518.27 Q821.826 1513.66 827.636 1513.66 Z" fill="#000000" fill-rule="nonzero" fill-opacity="1" /><path clip-path="url(#clip560)" d="M1241 1544.91 L1248.64 1544.91 L1248.64 1518.55 L1240.33 1520.21 L1240.33 1515.95 L1248.59 1514.29 L1253.27 1514.29 L1253.27 1544.91 L1260.9 1544.91 L1260.9 1548.85 L1241 1548.85 L1241 1544.91 Z" fill="#000000" fill-rule="nonzero" fill-opacity="1" /><path clip-path="url(#clip560)" d="M1280.35 1517.37 Q1276.74 1517.37 1274.91 1520.93 Q1273.1 1524.47 1273.1 1531.6 Q1273.1 1538.71 1274.91 1542.27 Q1276.74 1545.82 1280.35 1545.82 Q1283.98 1545.82 1285.79 1542.27 Q1287.62 1538.71 1287.62 1531.6 Q1287.62 1524.47 1285.79 1520.93 Q1283.98 1517.37 1280.35 1517.37 M1280.35 1513.66 Q1286.16 1513.66 1289.21 1518.27 Q1292.29 1522.85 1292.29 1531.6 Q1292.29 1540.33 1289.21 1544.94 Q1286.16 1549.52 1280.35 1549.52 Q1274.54 1549.52 1271.46 1544.94 Q1268.4 1540.33 1268.4 1531.6 Q1268.4 1522.85 1271.46 1518.27 Q1274.54 1513.66 1280.35 1513.66 Z" fill="#000000" fill-rule="nonzero" fill-opacity="1" /><path clip-path="url(#clip560)" d="M1310.51 1517.37 Q1306.9 1517.37 1305.07 1520.93 Q1303.27 1524.47 1303.27 1531.6 Q1303.27 1538.71 1305.07 1542.27 Q1306.9 1545.82 1310.51 1545.82 Q1314.15 1545.82 1315.95 1542.27 Q1317.78 1538.71 1317.78 1531.6 Q1317.78 1524.47 1315.95 1520.93 Q1314.15 1517.37 1310.51 1517.37 M1310.51 1513.66 Q1316.32 1513.66 1319.38 1518.27 Q1322.46 1522.85 1322.46 1531.6 Q1322.46 1540.33 1319.38 1544.94 Q1316.32 1549.52 1310.51 1549.52 Q1304.7 1549.52 1301.62 1544.94 Q1298.57 1540.33 1298.57 1531.6 Q1298.57 1522.85 1301.62 1518.27 Q1304.7 1513.66 1310.51 1513.66 Z" fill="#000000" fill-rule="nonzero" fill-opacity="1" /><path clip-path="url(#clip560)" d="M1340.67 1517.37 Q1337.06 1517.37 1335.23 1520.93 Q1333.43 1524.47 1333.43 1531.6 Q1333.43 1538.71 1335.23 1542.27 Q1337.06 1545.82 1340.67 1545.82 Q1344.31 1545.82 1346.11 1542.27 Q1347.94 1538.71 1347.94 1531.6 Q1347.94 1524.47 1346.11 1520.93 Q1344.31 1517.37 1340.67 1517.37 M1340.67 1513.66 Q1346.48 1513.66 1349.54 1518.27 Q1352.62 1522.85 1352.62 1531.6 Q1352.62 1540.33 1349.54 1544.94 Q1346.48 1549.52 1340.67 1549.52 Q1334.86 1549.52 1331.78 1544.94 Q1328.73 1540.33 1328.73 1531.6 Q1328.73 1522.85 1331.78 1518.27 Q1334.86 1513.66 1340.67 1513.66 Z" fill="#000000" fill-rule="nonzero" fill-opacity="1" /><path clip-path="url(#clip560)" d="M1739.73 1544.91 L1747.37 1544.91 L1747.37 1518.55 L1739.06 1520.21 L1739.06 1515.95 L1747.32 1514.29 L1752 1514.29 L1752 1544.91 L1759.64 1544.91 L1759.64 1548.85 L1739.73 1548.85 L1739.73 1544.91 Z" fill="#000000" fill-rule="nonzero" fill-opacity="1" /><path clip-path="url(#clip560)" d="M1769.13 1514.29 L1787.48 1514.29 L1787.48 1518.22 L1773.41 1518.22 L1773.41 1526.7 Q1774.43 1526.35 1775.45 1526.19 Q1776.47 1526 1777.48 1526 Q1783.27 1526 1786.65 1529.17 Q1790.03 1532.34 1790.03 1537.76 Q1790.03 1543.34 1786.56 1546.44 Q1783.09 1549.52 1776.77 1549.52 Q1774.59 1549.52 1772.32 1549.15 Q1770.08 1548.78 1767.67 1548.04 L1767.67 1543.34 Q1769.75 1544.47 1771.97 1545.03 Q1774.2 1545.58 1776.67 1545.58 Q1780.68 1545.58 1783.02 1543.48 Q1785.35 1541.37 1785.35 1537.76 Q1785.35 1534.15 1783.02 1532.04 Q1780.68 1529.94 1776.67 1529.94 Q1774.8 1529.94 1772.92 1530.35 Q1771.07 1530.77 1769.13 1531.65 L1769.13 1514.29 Z" fill="#000000" fill-rule="nonzero" fill-opacity="1" /><path clip-path="url(#clip560)" d="M1809.24 1517.37 Q1805.63 1517.37 1803.8 1520.93 Q1802 1524.47 1802 1531.6 Q1802 1538.71 1803.8 1542.27 Q1805.63 1545.82 1809.24 1545.82 Q1812.88 1545.82 1814.68 1542.27 Q1816.51 1538.71 1816.51 1531.6 Q1816.51 1524.47 1814.68 1520.93 Q1812.88 1517.37 1809.24 1517.37 M1809.24 1513.66 Q1815.05 1513.66 1818.11 1518.27 Q1821.19 1522.85 1821.19 1531.6 Q1821.19 1540.33 1818.11 1544.94 Q1815.05 1549.52 1809.24 1549.52 Q1803.43 1549.52 1800.35 1544.94 Q1797.3 1540.33 1797.3 1531.6 Q1797.3 1522.85 1800.35 1518.27 Q1803.43 1513.66 1809.24 1513.66 Z" fill="#000000" fill-rule="nonzero" fill-opacity="1" /><path clip-path="url(#clip560)" d="M1839.4 1517.37 Q1835.79 1517.37 1833.97 1520.93 Q1832.16 1524.47 1832.16 1531.6 Q1832.16 1538.71 1833.97 1542.27 Q1835.79 1545.82 1839.4 1545.82 Q1843.04 1545.82 1844.84 1542.27 Q1846.67 1538.71 1846.67 1531.6 Q1846.67 1524.47 1844.84 1520.93 Q1843.04 1517.37 1839.4 1517.37 M1839.4 1513.66 Q1845.21 1513.66 1848.27 1518.27 Q1851.35 1522.85 1851.35 1531.6 Q1851.35 1540.33 1848.27 1544.94 Q1845.21 1549.52 1839.4 1549.52 Q1833.59 1549.52 1830.52 1544.94 Q1827.46 1540.33 1827.46 1531.6 Q1827.46 1522.85 1830.52 1518.27 Q1833.59 1513.66 1839.4 1513.66 Z" fill="#000000" fill-rule="nonzero" fill-opacity="1" /><path clip-path="url(#clip560)" d="M2242.55 1544.91 L2258.87 1544.91 L2258.87 1548.85 L2236.92 1548.85 L2236.92 1544.91 Q2239.58 1542.16 2244.17 1537.53 Q2248.77 1532.88 2249.95 1531.53 Q2252.2 1529.01 2253.08 1527.27 Q2253.98 1525.51 2253.98 1523.82 Q2253.98 1521.07 2252.04 1519.33 Q2250.12 1517.6 2247.01 1517.6 Q2244.82 1517.6 2242.36 1518.36 Q2239.93 1519.13 2237.15 1520.68 L2237.15 1515.95 Q2239.98 1514.82 2242.43 1514.24 Q2244.88 1513.66 2246.92 1513.66 Q2252.29 1513.66 2255.49 1516.35 Q2258.68 1519.03 2258.68 1523.52 Q2258.68 1525.65 2257.87 1527.57 Q2257.08 1529.47 2254.98 1532.07 Q2254.4 1532.74 2251.3 1535.95 Q2248.19 1539.15 2242.55 1544.91 Z" fill="#000000" fill-rule="nonzero" fill-opacity="1" /><path clip-path="url(#clip560)" d="M2278.68 1517.37 Q2275.07 1517.37 2273.24 1520.93 Q2271.44 1524.47 2271.44 1531.6 Q2271.44 1538.71 2273.24 1542.27 Q2275.07 1545.82 2278.68 1545.82 Q2282.32 1545.82 2284.12 1542.27 Q2285.95 1538.71 2285.95 1531.6 Q2285.95 1524.47 2284.12 1520.93 Q2282.32 1517.37 2278.68 1517.37 M2278.68 1513.66 Q2284.49 1513.66 2287.55 1518.27 Q2290.63 1522.85 2290.63 1531.6 Q2290.63 1540.33 2287.55 1544.94 Q2284.49 1549.52 2278.68 1549.52 Q2272.87 1549.52 2269.79 1544.94 Q2266.74 1540.33 2266.74 1531.6 Q2266.74 1522.85 2269.79 1518.27 Q2272.87 1513.66 2278.68 1513.66 Z" fill="#000000" fill-rule="nonzero" fill-opacity="1" /><path clip-path="url(#clip560)" d="M2308.84 1517.37 Q2305.23 1517.37 2303.4 1520.93 Q2301.6 1524.47 2301.6 1531.6 Q2301.6 1538.71 2303.4 1542.27 Q2305.23 1545.82 2308.84 1545.82 Q2312.48 1545.82 2314.28 1542.27 Q2316.11 1538.71 2316.11 1531.6 Q2316.11 1524.47 2314.28 1520.93 Q2312.48 1517.37 2308.84 1517.37 M2308.84 1513.66 Q2314.65 1513.66 2317.71 1518.27 Q2320.79 1522.85 2320.79 1531.6 Q2320.79 1540.33 2317.71 1544.94 Q2314.65 1549.52 2308.84 1549.52 Q2303.03 1549.52 2299.95 1544.94 Q2296.9 1540.33 2296.9 1531.6 Q2296.9 1522.85 2299.95 1518.27 Q2303.03 1513.66 2308.84 1513.66 Z" fill="#000000" fill-rule="nonzero" fill-opacity="1" /><path clip-path="url(#clip560)" d="M2339 1517.37 Q2335.39 1517.37 2333.56 1520.93 Q2331.76 1524.47 2331.76 1531.6 Q2331.76 1538.71 2333.56 1542.27 Q2335.39 1545.82 2339 1545.82 Q2342.64 1545.82 2344.44 1542.27 Q2346.27 1538.71 2346.27 1531.6 Q2346.27 1524.47 2344.44 1520.93 Q2342.64 1517.37 2339 1517.37 M2339 1513.66 Q2344.81 1513.66 2347.87 1518.27 Q2350.95 1522.85 2350.95 1531.6 Q2350.95 1540.33 2347.87 1544.94 Q2344.81 1549.52 2339 1549.52 Q2333.19 1549.52 2330.12 1544.94 Q2327.06 1540.33 2327.06 1531.6 Q2327.06 1522.85 2330.12 1518.27 Q2333.19 1513.66 2339 1513.66 Z" fill="#000000" fill-rule="nonzero" fill-opacity="1" /><polyline clip-path="url(#clip562)" style="stroke:#000000; stroke-linecap:round; stroke-linejoin:round; stroke-width:2; stroke-opacity:0.1; fill:none" points="239.19,1423.93 2352.76,1423.93 "/>
<polyline clip-path="url(#clip562)" style="stroke:#000000; stroke-linecap:round; stroke-linejoin:round; stroke-width:2; stroke-opacity:0.1; fill:none" points="239.19,1151.99 2352.76,1151.99 "/>
<polyline clip-path="url(#clip562)" style="stroke:#000000; stroke-linecap:round; stroke-linejoin:round; stroke-width:2; stroke-opacity:0.1; fill:none" points="239.19,880.049 2352.76,880.049 "/>
<polyline clip-path="url(#clip562)" style="stroke:#000000; stroke-linecap:round; stroke-linejoin:round; stroke-width:2; stroke-opacity:0.1; fill:none" points="239.19,608.11 2352.76,608.11 "/>
<polyline clip-path="url(#clip562)" style="stroke:#000000; stroke-linecap:round; stroke-linejoin:round; stroke-width:2; stroke-opacity:0.1; fill:none" points="239.19,336.171 2352.76,336.171 "/>
<polyline clip-path="url(#clip562)" style="stroke:#000000; stroke-linecap:round; stroke-linejoin:round; stroke-width:2; stroke-opacity:0.1; fill:none" points="239.19,64.2319 2352.76,64.2319 "/>
<polyline clip-path="url(#clip560)" style="stroke:#000000; stroke-linecap:round; stroke-linejoin:round; stroke-width:4; stroke-opacity:1; fill:none" points="239.19,1486.45 239.19,47.2441 "/>
<polyline clip-path="url(#clip560)" style="stroke:#000000; stroke-linecap:round; stroke-linejoin:round; stroke-width:4; stroke-opacity:1; fill:none" points="239.19,1423.93 258.088,1423.93 "/>
<polyline clip-path="url(#clip560)" style="stroke:#000000; stroke-linecap:round; stroke-linejoin:round; stroke-width:4; stroke-opacity:1; fill:none" points="239.19,1151.99 258.088,1151.99 "/>
<polyline clip-path="url(#clip560)" style="stroke:#000000; stroke-linecap:round; stroke-linejoin:round; stroke-width:4; stroke-opacity:1; fill:none" points="239.19,880.049 258.088,880.049 "/>
<polyline clip-path="url(#clip560)" style="stroke:#000000; stroke-linecap:round; stroke-linejoin:round; stroke-width:4; stroke-opacity:1; fill:none" points="239.19,608.11 258.088,608.11 "/>
<polyline clip-path="url(#clip560)" style="stroke:#000000; stroke-linecap:round; stroke-linejoin:round; stroke-width:4; stroke-opacity:1; fill:none" points="239.19,336.171 258.088,336.171 "/>
<polyline clip-path="url(#clip560)" style="stroke:#000000; stroke-linecap:round; stroke-linejoin:round; stroke-width:4; stroke-opacity:1; fill:none" points="239.19,64.2319 258.088,64.2319 "/>
<path clip-path="url(#clip560)" d="M50.9921 1424.38 L80.6679 1424.38 L80.6679 1428.31 L50.9921 1428.31 L50.9921 1424.38 Z" fill="#000000" fill-rule="nonzero" fill-opacity="1" /><path clip-path="url(#clip560)" d="M104.927 1422.57 Q108.283 1423.29 110.158 1425.56 Q112.057 1427.83 112.057 1431.16 Q112.057 1436.28 108.538 1439.08 Q105.02 1441.88 98.5382 1441.88 Q96.3623 1441.88 94.0475 1441.44 Q91.7558 1441.02 89.3021 1440.17 L89.3021 1435.65 Q91.2465 1436.79 93.5613 1437.36 Q95.8761 1437.94 98.3993 1437.94 Q102.797 1437.94 105.089 1436.21 Q107.404 1434.47 107.404 1431.16 Q107.404 1428.11 105.251 1426.39 Q103.121 1424.66 99.3021 1424.66 L95.2743 1424.66 L95.2743 1420.81 L99.4872 1420.81 Q102.936 1420.81 104.765 1419.45 Q106.594 1418.06 106.594 1415.47 Q106.594 1412.8 104.696 1411.39 Q102.821 1409.96 99.3021 1409.96 Q97.3808 1409.96 95.1817 1410.37 Q92.9826 1410.79 90.3438 1411.67 L90.3438 1407.5 Q93.0058 1406.76 95.3206 1406.39 Q97.6585 1406.02 99.7187 1406.02 Q105.043 1406.02 108.145 1408.45 Q111.246 1410.86 111.246 1414.98 Q111.246 1417.85 109.603 1419.84 Q107.959 1421.81 104.927 1422.57 Z" fill="#000000" fill-rule="nonzero" fill-opacity="1" /><path clip-path="url(#clip560)" d="M130.922 1409.73 Q127.311 1409.73 125.482 1413.29 Q123.677 1416.83 123.677 1423.96 Q123.677 1431.07 125.482 1434.63 Q127.311 1438.17 130.922 1438.17 Q134.556 1438.17 136.362 1434.63 Q138.191 1431.07 138.191 1423.96 Q138.191 1416.83 136.362 1413.29 Q134.556 1409.73 130.922 1409.73 M130.922 1406.02 Q136.732 1406.02 139.788 1410.63 Q142.867 1415.21 142.867 1423.96 Q142.867 1432.69 139.788 1437.3 Q136.732 1441.88 130.922 1441.88 Q125.112 1441.88 122.033 1437.3 Q118.978 1432.69 118.978 1423.96 Q118.978 1415.21 122.033 1410.63 Q125.112 1406.02 130.922 1406.02 Z" fill="#000000" fill-rule="nonzero" fill-opacity="1" /><path clip-path="url(#clip560)" d="M161.084 1409.73 Q157.473 1409.73 155.644 1413.29 Q153.839 1416.83 153.839 1423.96 Q153.839 1431.07 155.644 1434.63 Q157.473 1438.17 161.084 1438.17 Q164.718 1438.17 166.524 1434.63 Q168.353 1431.07 168.353 1423.96 Q168.353 1416.83 166.524 1413.29 Q164.718 1409.73 161.084 1409.73 M161.084 1406.02 Q166.894 1406.02 169.95 1410.63 Q173.029 1415.21 173.029 1423.96 Q173.029 1432.69 169.95 1437.3 Q166.894 1441.88 161.084 1441.88 Q155.274 1441.88 152.195 1437.3 Q149.14 1432.69 149.14 1423.96 Q149.14 1415.21 152.195 1410.63 Q155.274 1406.02 161.084 1406.02 Z" fill="#000000" fill-rule="nonzero" fill-opacity="1" /><path clip-path="url(#clip560)" d="M191.246 1409.73 Q187.635 1409.73 185.806 1413.29 Q184.001 1416.83 184.001 1423.96 Q184.001 1431.07 185.806 1434.63 Q187.635 1438.17 191.246 1438.17 Q194.88 1438.17 196.686 1434.63 Q198.514 1431.07 198.514 1423.96 Q198.514 1416.83 196.686 1413.29 Q194.88 1409.73 191.246 1409.73 M191.246 1406.02 Q197.056 1406.02 200.112 1410.63 Q203.19 1415.21 203.19 1423.96 Q203.19 1432.69 200.112 1437.3 Q197.056 1441.88 191.246 1441.88 Q185.436 1441.88 182.357 1437.3 Q179.302 1432.69 179.302 1423.96 Q179.302 1415.21 182.357 1410.63 Q185.436 1406.02 191.246 1406.02 Z" fill="#000000" fill-rule="nonzero" fill-opacity="1" /><path clip-path="url(#clip560)" d="M50.9921 1152.44 L80.6679 1152.44 L80.6679 1156.37 L50.9921 1156.37 L50.9921 1152.44 Z" fill="#000000" fill-rule="nonzero" fill-opacity="1" /><path clip-path="url(#clip560)" d="M94.7882 1165.33 L111.108 1165.33 L111.108 1169.27 L89.1632 1169.27 L89.1632 1165.33 Q91.8252 1162.58 96.4085 1157.95 Q101.015 1153.3 102.196 1151.95 Q104.441 1149.43 105.321 1147.69 Q106.223 1145.93 106.223 1144.25 Q106.223 1141.49 104.279 1139.75 Q102.358 1138.02 99.2558 1138.02 Q97.0567 1138.02 94.603 1138.78 Q92.1725 1139.55 89.3947 1141.1 L89.3947 1136.37 Q92.2188 1135.24 94.6724 1134.66 Q97.1261 1134.08 99.1632 1134.08 Q104.534 1134.08 107.728 1136.77 Q110.922 1139.45 110.922 1143.94 Q110.922 1146.07 110.112 1148 Q109.325 1149.89 107.219 1152.49 Q106.64 1153.16 103.538 1156.37 Q100.436 1159.57 94.7882 1165.33 Z" fill="#000000" fill-rule="nonzero" fill-opacity="1" /><path clip-path="url(#clip560)" d="M120.969 1134.71 L139.325 1134.71 L139.325 1138.64 L125.251 1138.64 L125.251 1147.12 Q126.27 1146.77 127.288 1146.61 Q128.307 1146.42 129.325 1146.42 Q135.112 1146.42 138.492 1149.59 Q141.871 1152.76 141.871 1158.18 Q141.871 1163.76 138.399 1166.86 Q134.927 1169.94 128.607 1169.94 Q126.432 1169.94 124.163 1169.57 Q121.918 1169.2 119.51 1168.46 L119.51 1163.76 Q121.594 1164.89 123.816 1165.45 Q126.038 1166 128.515 1166 Q132.519 1166 134.857 1163.9 Q137.195 1161.79 137.195 1158.18 Q137.195 1154.57 134.857 1152.46 Q132.519 1150.36 128.515 1150.36 Q126.64 1150.36 124.765 1150.77 Q122.913 1151.19 120.969 1152.07 L120.969 1134.71 Z" fill="#000000" fill-rule="nonzero" fill-opacity="1" /><path clip-path="url(#clip560)" d="M161.084 1137.79 Q157.473 1137.79 155.644 1141.35 Q153.839 1144.89 153.839 1152.02 Q153.839 1159.13 155.644 1162.69 Q157.473 1166.24 161.084 1166.24 Q164.718 1166.24 166.524 1162.69 Q168.353 1159.13 168.353 1152.02 Q168.353 1144.89 166.524 1141.35 Q164.718 1137.79 161.084 1137.79 M161.084 1134.08 Q166.894 1134.08 169.95 1138.69 Q173.029 1143.27 173.029 1152.02 Q173.029 1160.75 169.95 1165.36 Q166.894 1169.94 161.084 1169.94 Q155.274 1169.94 152.195 1165.36 Q149.14 1160.75 149.14 1152.02 Q149.14 1143.27 152.195 1138.69 Q155.274 1134.08 161.084 1134.08 Z" fill="#000000" fill-rule="nonzero" fill-opacity="1" /><path clip-path="url(#clip560)" d="M191.246 1137.79 Q187.635 1137.79 185.806 1141.35 Q184.001 1144.89 184.001 1152.02 Q184.001 1159.13 185.806 1162.69 Q187.635 1166.24 191.246 1166.24 Q194.88 1166.24 196.686 1162.69 Q198.514 1159.13 198.514 1152.02 Q198.514 1144.89 196.686 1141.35 Q194.88 1137.79 191.246 1137.79 M191.246 1134.08 Q197.056 1134.08 200.112 1138.69 Q203.19 1143.27 203.19 1152.02 Q203.19 1160.75 200.112 1165.36 Q197.056 1169.94 191.246 1169.94 Q185.436 1169.94 182.357 1165.36 Q179.302 1160.75 179.302 1152.02 Q179.302 1143.27 182.357 1138.69 Q185.436 1134.08 191.246 1134.08 Z" fill="#000000" fill-rule="nonzero" fill-opacity="1" /><path clip-path="url(#clip560)" d="M50.9921 880.5 L80.6679 880.5 L80.6679 884.436 L50.9921 884.436 L50.9921 880.5 Z" fill="#000000" fill-rule="nonzero" fill-opacity="1" /><path clip-path="url(#clip560)" d="M94.7882 893.394 L111.108 893.394 L111.108 897.329 L89.1632 897.329 L89.1632 893.394 Q91.8252 890.639 96.4085 886.01 Q101.015 881.357 102.196 880.014 Q104.441 877.491 105.321 875.755 Q106.223 873.996 106.223 872.306 Q106.223 869.551 104.279 867.815 Q102.358 866.079 99.2558 866.079 Q97.0567 866.079 94.603 866.843 Q92.1725 867.607 89.3947 869.158 L89.3947 864.436 Q92.2188 863.301 94.6724 862.723 Q97.1261 862.144 99.1632 862.144 Q104.534 862.144 107.728 864.829 Q110.922 867.514 110.922 872.005 Q110.922 874.135 110.112 876.056 Q109.325 877.954 107.219 880.547 Q106.64 881.218 103.538 884.436 Q100.436 887.63 94.7882 893.394 Z" fill="#000000" fill-rule="nonzero" fill-opacity="1" /><path clip-path="url(#clip560)" d="M130.922 865.848 Q127.311 865.848 125.482 869.413 Q123.677 872.954 123.677 880.084 Q123.677 887.19 125.482 890.755 Q127.311 894.297 130.922 894.297 Q134.556 894.297 136.362 890.755 Q138.191 887.19 138.191 880.084 Q138.191 872.954 136.362 869.413 Q134.556 865.848 130.922 865.848 M130.922 862.144 Q136.732 862.144 139.788 866.75 Q142.867 871.334 142.867 880.084 Q142.867 888.811 139.788 893.417 Q136.732 898 130.922 898 Q125.112 898 122.033 893.417 Q118.978 888.811 118.978 880.084 Q118.978 871.334 122.033 866.75 Q125.112 862.144 130.922 862.144 Z" fill="#000000" fill-rule="nonzero" fill-opacity="1" /><path clip-path="url(#clip560)" d="M161.084 865.848 Q157.473 865.848 155.644 869.413 Q153.839 872.954 153.839 880.084 Q153.839 887.19 155.644 890.755 Q157.473 894.297 161.084 894.297 Q164.718 894.297 166.524 890.755 Q168.353 887.19 168.353 880.084 Q168.353 872.954 166.524 869.413 Q164.718 865.848 161.084 865.848 M161.084 862.144 Q166.894 862.144 169.95 866.75 Q173.029 871.334 173.029 880.084 Q173.029 888.811 169.95 893.417 Q166.894 898 161.084 898 Q155.274 898 152.195 893.417 Q149.14 888.811 149.14 880.084 Q149.14 871.334 152.195 866.75 Q155.274 862.144 161.084 862.144 Z" fill="#000000" fill-rule="nonzero" fill-opacity="1" /><path clip-path="url(#clip560)" d="M191.246 865.848 Q187.635 865.848 185.806 869.413 Q184.001 872.954 184.001 880.084 Q184.001 887.19 185.806 890.755 Q187.635 894.297 191.246 894.297 Q194.88 894.297 196.686 890.755 Q198.514 887.19 198.514 880.084 Q198.514 872.954 196.686 869.413 Q194.88 865.848 191.246 865.848 M191.246 862.144 Q197.056 862.144 200.112 866.75 Q203.19 871.334 203.19 880.084 Q203.19 888.811 200.112 893.417 Q197.056 898 191.246 898 Q185.436 898 182.357 893.417 Q179.302 888.811 179.302 880.084 Q179.302 871.334 182.357 866.75 Q185.436 862.144 191.246 862.144 Z" fill="#000000" fill-rule="nonzero" fill-opacity="1" /><path clip-path="url(#clip560)" d="M50.9921 608.561 L80.6679 608.561 L80.6679 612.497 L50.9921 612.497 L50.9921 608.561 Z" fill="#000000" fill-rule="nonzero" fill-opacity="1" /><path clip-path="url(#clip560)" d="M91.5706 621.455 L99.2095 621.455 L99.2095 595.089 L90.8993 596.756 L90.8993 592.497 L99.1632 590.83 L103.839 590.83 L103.839 621.455 L111.478 621.455 L111.478 625.39 L91.5706 625.39 L91.5706 621.455 Z" fill="#000000" fill-rule="nonzero" fill-opacity="1" /><path clip-path="url(#clip560)" d="M120.969 590.83 L139.325 590.83 L139.325 594.765 L125.251 594.765 L125.251 603.237 Q126.27 602.89 127.288 602.728 Q128.307 602.543 129.325 602.543 Q135.112 602.543 138.492 605.714 Q141.871 608.885 141.871 614.302 Q141.871 619.881 138.399 622.983 Q134.927 626.061 128.607 626.061 Q126.432 626.061 124.163 625.691 Q121.918 625.321 119.51 624.58 L119.51 619.881 Q121.594 621.015 123.816 621.571 Q126.038 622.126 128.515 622.126 Q132.519 622.126 134.857 620.02 Q137.195 617.913 137.195 614.302 Q137.195 610.691 134.857 608.585 Q132.519 606.478 128.515 606.478 Q126.64 606.478 124.765 606.895 Q122.913 607.311 120.969 608.191 L120.969 590.83 Z" fill="#000000" fill-rule="nonzero" fill-opacity="1" /><path clip-path="url(#clip560)" d="M161.084 593.909 Q157.473 593.909 155.644 597.473 Q153.839 601.015 153.839 608.145 Q153.839 615.251 155.644 618.816 Q157.473 622.358 161.084 622.358 Q164.718 622.358 166.524 618.816 Q168.353 615.251 168.353 608.145 Q168.353 601.015 166.524 597.473 Q164.718 593.909 161.084 593.909 M161.084 590.205 Q166.894 590.205 169.95 594.811 Q173.029 599.395 173.029 608.145 Q173.029 616.872 169.95 621.478 Q166.894 626.061 161.084 626.061 Q155.274 626.061 152.195 621.478 Q149.14 616.872 149.14 608.145 Q149.14 599.395 152.195 594.811 Q155.274 590.205 161.084 590.205 Z" fill="#000000" fill-rule="nonzero" fill-opacity="1" /><path clip-path="url(#clip560)" d="M191.246 593.909 Q187.635 593.909 185.806 597.473 Q184.001 601.015 184.001 608.145 Q184.001 615.251 185.806 618.816 Q187.635 622.358 191.246 622.358 Q194.88 622.358 196.686 618.816 Q198.514 615.251 198.514 608.145 Q198.514 601.015 196.686 597.473 Q194.88 593.909 191.246 593.909 M191.246 590.205 Q197.056 590.205 200.112 594.811 Q203.19 599.395 203.19 608.145 Q203.19 616.872 200.112 621.478 Q197.056 626.061 191.246 626.061 Q185.436 626.061 182.357 621.478 Q179.302 616.872 179.302 608.145 Q179.302 599.395 182.357 594.811 Q185.436 590.205 191.246 590.205 Z" fill="#000000" fill-rule="nonzero" fill-opacity="1" /><path clip-path="url(#clip560)" d="M50.9921 336.622 L80.6679 336.622 L80.6679 340.557 L50.9921 340.557 L50.9921 336.622 Z" fill="#000000" fill-rule="nonzero" fill-opacity="1" /><path clip-path="url(#clip560)" d="M91.5706 349.516 L99.2095 349.516 L99.2095 323.15 L90.8993 324.817 L90.8993 320.558 L99.1632 318.891 L103.839 318.891 L103.839 349.516 L111.478 349.516 L111.478 353.451 L91.5706 353.451 L91.5706 349.516 Z" fill="#000000" fill-rule="nonzero" fill-opacity="1" /><path clip-path="url(#clip560)" d="M130.922 321.97 Q127.311 321.97 125.482 325.534 Q123.677 329.076 123.677 336.206 Q123.677 343.312 125.482 346.877 Q127.311 350.419 130.922 350.419 Q134.556 350.419 136.362 346.877 Q138.191 343.312 138.191 336.206 Q138.191 329.076 136.362 325.534 Q134.556 321.97 130.922 321.97 M130.922 318.266 Q136.732 318.266 139.788 322.872 Q142.867 327.456 142.867 336.206 Q142.867 344.932 139.788 349.539 Q136.732 354.122 130.922 354.122 Q125.112 354.122 122.033 349.539 Q118.978 344.932 118.978 336.206 Q118.978 327.456 122.033 322.872 Q125.112 318.266 130.922 318.266 Z" fill="#000000" fill-rule="nonzero" fill-opacity="1" /><path clip-path="url(#clip560)" d="M161.084 321.97 Q157.473 321.97 155.644 325.534 Q153.839 329.076 153.839 336.206 Q153.839 343.312 155.644 346.877 Q157.473 350.419 161.084 350.419 Q164.718 350.419 166.524 346.877 Q168.353 343.312 168.353 336.206 Q168.353 329.076 166.524 325.534 Q164.718 321.97 161.084 321.97 M161.084 318.266 Q166.894 318.266 169.95 322.872 Q173.029 327.456 173.029 336.206 Q173.029 344.932 169.95 349.539 Q166.894 354.122 161.084 354.122 Q155.274 354.122 152.195 349.539 Q149.14 344.932 149.14 336.206 Q149.14 327.456 152.195 322.872 Q155.274 318.266 161.084 318.266 Z" fill="#000000" fill-rule="nonzero" fill-opacity="1" /><path clip-path="url(#clip560)" d="M191.246 321.97 Q187.635 321.97 185.806 325.534 Q184.001 329.076 184.001 336.206 Q184.001 343.312 185.806 346.877 Q187.635 350.419 191.246 350.419 Q194.88 350.419 196.686 346.877 Q198.514 343.312 198.514 336.206 Q198.514 329.076 196.686 325.534 Q194.88 321.97 191.246 321.97 M191.246 318.266 Q197.056 318.266 200.112 322.872 Q203.19 327.456 203.19 336.206 Q203.19 344.932 200.112 349.539 Q197.056 354.122 191.246 354.122 Q185.436 354.122 182.357 349.539 Q179.302 344.932 179.302 336.206 Q179.302 327.456 182.357 322.872 Q185.436 318.266 191.246 318.266 Z" fill="#000000" fill-rule="nonzero" fill-opacity="1" /><path clip-path="url(#clip560)" d="M81.154 64.6832 L110.83 64.6832 L110.83 68.6184 L81.154 68.6184 L81.154 64.6832 Z" fill="#000000" fill-rule="nonzero" fill-opacity="1" /><path clip-path="url(#clip560)" d="M120.969 46.9519 L139.325 46.9519 L139.325 50.887 L125.251 50.887 L125.251 59.3592 Q126.27 59.012 127.288 58.8499 Q128.307 58.6648 129.325 58.6648 Q135.112 58.6648 138.492 61.836 Q141.871 65.0073 141.871 70.424 Q141.871 76.0026 138.399 79.1045 Q134.927 82.1832 128.607 82.1832 Q126.432 82.1832 124.163 81.8128 Q121.918 81.4424 119.51 80.7017 L119.51 76.0026 Q121.594 77.1369 123.816 77.6924 Q126.038 78.248 128.515 78.248 Q132.519 78.248 134.857 76.1415 Q137.195 74.035 137.195 70.424 Q137.195 66.8129 134.857 64.7064 Q132.519 62.5999 128.515 62.5999 Q126.64 62.5999 124.765 63.0166 Q122.913 63.4333 120.969 64.3129 L120.969 46.9519 Z" fill="#000000" fill-rule="nonzero" fill-opacity="1" /><path clip-path="url(#clip560)" d="M161.084 50.0305 Q157.473 50.0305 155.644 53.5953 Q153.839 57.137 153.839 64.2666 Q153.839 71.373 155.644 74.9378 Q157.473 78.4795 161.084 78.4795 Q164.718 78.4795 166.524 74.9378 Q168.353 71.373 168.353 64.2666 Q168.353 57.137 166.524 53.5953 Q164.718 50.0305 161.084 50.0305 M161.084 46.3269 Q166.894 46.3269 169.95 50.9333 Q173.029 55.5166 173.029 64.2666 Q173.029 72.9934 169.95 77.5998 Q166.894 82.1832 161.084 82.1832 Q155.274 82.1832 152.195 77.5998 Q149.14 72.9934 149.14 64.2666 Q149.14 55.5166 152.195 50.9333 Q155.274 46.3269 161.084 46.3269 Z" fill="#000000" fill-rule="nonzero" fill-opacity="1" /><path clip-path="url(#clip560)" d="M191.246 50.0305 Q187.635 50.0305 185.806 53.5953 Q184.001 57.137 184.001 64.2666 Q184.001 71.373 185.806 74.9378 Q187.635 78.4795 191.246 78.4795 Q194.88 78.4795 196.686 74.9378 Q198.514 71.373 198.514 64.2666 Q198.514 57.137 196.686 53.5953 Q194.88 50.0305 191.246 50.0305 M191.246 46.3269 Q197.056 46.3269 200.112 50.9333 Q203.19 55.5166 203.19 64.2666 Q203.19 72.9934 200.112 77.5998 Q197.056 82.1832 191.246 82.1832 Q185.436 82.1832 182.357 77.5998 Q179.302 72.9934 179.302 64.2666 Q179.302 55.5166 182.357 50.9333 Q185.436 46.3269 191.246 46.3269 Z" fill="#000000" fill-rule="nonzero" fill-opacity="1" /><polyline clip-path="url(#clip562)" style="stroke:#009af9; stroke-linecap:round; stroke-linejoin:round; stroke-width:4; stroke-opacity:1; fill:none" points="299.008,97.2758 300.006,94.3601 301.003,90.0422 302.001,87.9763 302.998,121.415 303.996,119.115 304.993,110.939 305.991,108.919 306.988,238.654 307.985,236.294 308.983,144.13 309.98,142.625 310.978,204.6 311.975,202.391 312.973,234.596 313.97,232.615 314.968,246.051 315.965,244.186 316.963,257.903 317.96,255.942 318.958,289.591 319.955,288.194 320.952,317.866 321.95,316.196 322.947,327.172 323.945,325.714 324.942,457.038 325.94,454.172 326.937,412.271 327.935,410.087 328.932,352.294 329.93,350.718 330.927,412.24 331.925,410.222 332.922,398.848 333.92,396.734 334.917,388.392 335.914,386.727 336.912,492.766 337.909,490.926 338.907,397.45 339.904,396.034 340.902,446.94 341.899,444.572 342.897,479.258 343.894,477.004 344.892,417.833 345.889,416.133 346.887,482.24 347.884,479.961 348.881,537.387 349.879,534.399 350.876,516.43 351.874,514.314 352.871,422.822 353.869,420.541 354.866,496.324 355.864,494.507 356.861,547.65 357.859,545.121 358.856,511.766 359.854,508.808 360.851,480.689 361.848,478.891 362.846,593.173 363.843,590.761 364.841,428.247 365.838,426.166 366.836,513.758 367.833,511.748 368.831,533.689 369.828,531.193 370.826,594.515 371.823,592.054 372.821,517.149 373.818,515.039 374.816,563.507 375.813,561.539 376.81,402.548 377.808,400.792 378.805,483.029 379.803,481.365 380.8,497.732 381.798,495.39 382.795,549.452 383.793,547.493 384.79,475.922 385.788,473.917 386.785,547.65 387.783,545.173 388.78,579.999 389.777,577.628 390.775,611.731 391.772,609.653 392.77,510.544 393.767,507.698 394.765,659.666 395.762,656.072 396.76,682.3 397.757,679.544 398.755,590.231 399.752,588.078 400.75,600.391 401.747,597.55 402.744,627.413 403.742,623.171 404.739,647.226 405.737,644.985 406.734,552.407 407.732,550.188 408.729,715.151 409.727,711.747 410.724,618.034 411.722,615.403 412.719,603.528 413.717,601.043 414.714,647.886 415.712,644.265 416.709,770.71 417.706,765.886 418.704,719.216 419.701,716.636 420.699,587.391 421.696,584.605 422.694,738.402 423.691,734.655 424.689,682.756 425.686,679.78 426.684,791.679 427.681,788.986 428.679,653.921 429.676,650.788 430.673,733.863 431.671,731.175 432.668,585.102 433.666,582.642 434.663,716.187 435.661,713.488 436.658,680.746 437.656,677.868 438.653,648.057 439.651,645.742 440.648,674.932 441.646,671.717 442.643,770.793 443.64,766.451 444.638,798.898 445.635,794.758 446.633,725.142 447.63,721.128 448.628,796.127 449.625,792.199 450.623,710.065 451.62,707.753 452.618,824.847 453.615,821.815 454.613,707.327 455.61,703.859 456.608,775.508 457.605,771.765 458.602,757.326 459.6,753.362 460.597,781.801 461.595,777.888 462.592,814.003 463.59,810.145 464.587,809.645 465.585,806.402 466.582,771.887 467.58,766.823 468.577,788.055 469.575,785.332 470.572,802.697 471.569,798.641 472.567,884.813 473.564,881.321 474.562,840.746 475.559,836.381 476.557,894.889 477.554,890.978 478.552,895.251 479.549,890.888 480.547,796.544 481.544,792.685 482.542,764.909 483.539,762.23 484.537,714.46 485.534,712.176 486.531,807.792 487.529,804.451 488.526,910.801 489.524,907.177 490.521,888.833 491.519,885.216 492.516,898.354 493.514,895.441 494.511,895.945 495.509,891.906 496.506,751.116 497.504,747.218 498.501,813.343 499.498,808.609 500.496,846.564 501.493,842.727 502.491,976.721 503.488,971.624 504.486,883.008 505.483,879.765 506.481,995.26 507.478,991.182 508.476,788.222 509.473,785.064 510.471,885.915 511.468,881.155 512.465,818.436 513.463,814.688 514.46,885.385 515.458,882.384 516.455,895.229 517.453,890.064 518.45,929.691 519.448,926.174 520.445,772.554 521.443,768.452 522.44,881.02 523.438,876.599 524.435,992.171 525.433,988.724 526.43,909.102 527.427,905.38 528.425,993.102 529.422,986.793 530.42,882.124 531.417,878.893 532.415,872.58 533.412,868.138 534.41,964.483 535.407,959.592 536.405,937.192 537.402,931.541 538.4,866.601 539.397,863.01 540.394,996.749 541.392,992.411 542.389,863.916 543.387,858.194 544.384,1016.87 545.382,1012.28 546.379,951.254 547.377,947.046 548.374,1016.19 549.372,1009.78 550.369,1018.64 551.367,1014.89 552.364,1016.44 553.361,1011.07 554.359,1037.74 555.356,1033.2 556.354,942.566 557.351,938.637 558.349,957.352 559.346,954.261 560.344,919.4 561.341,916.089 562.339,1057.79 563.336,1053.03 564.334,1039.47 565.331,1034.74 566.329,1033.82 567.326,1029.17 568.323,1001.57 569.321,996.546 570.318,1045.7 571.316,1037.66 572.313,1050.19 573.311,1045.67 574.308,988.791 575.306,983.542 576.303,966.939 577.301,961.494 578.298,1049.58 579.296,1043.95 580.293,1011.78 581.29,1006.05 582.288,1038.67 583.285,1035.25 584.283,960.64 585.28,956.512 586.278,1075.32 587.275,1068.82 588.273,972.525 589.27,967.6 590.268,968.541 591.265,964.313 592.263,1023.22 593.26,1019.21 594.258,1086.25 595.255,1081.46 596.252,1096.88 597.25,1091.16 598.247,829.738 599.245,825.897 600.242,1005.85 601.24,1001.41 602.237,1076.12 603.235,1069.74 604.232,1022.06 605.23,1017.81 606.227,968.064 607.225,962.293 608.222,1012.19 609.219,1007.52 610.217,1029.6 611.214,1025.09 612.212,991.688 613.209,986.001 614.207,948.478 615.204,943.432 616.202,1016.79 617.199,1012.76 618.197,1042.06 619.194,1036.41 620.192,1063.42 621.189,1057.28 622.186,1085.74 623.184,1078.8 624.181,1098.87 625.179,1093.7 626.176,1177.15 627.174,1172.43 628.171,1010.58 629.169,1006.88 630.166,1105.26 631.164,1097.99 632.161,1052.32 633.159,1046.82 634.156,1069.3 635.154,1064.51 636.151,1259.55 637.148,1253.78 638.146,1000.51 639.143,995.221 640.141,1107.26 641.138,1101.88 642.136,974.216 643.133,969.634 644.131,997.681 645.128,993.31 646.126,851.239 647.123,845.872 648.121,1064.88 649.118,1059.72 650.115,1046.87 651.113,1042.55 652.11,1026.51 653.108,1022.36 654.105,1086.8 655.103,1079.39 656.1,1051.26 657.098,1044.44 658.095,1111.68 659.093,1106.54 660.09,1111.68 661.088,1106.73 662.085,998.817 663.082,993.778 664.08,1051.44 665.077,1047.19 666.075,1134.57 667.072,1130.24 668.07,1034.08 669.067,1028.38 670.065,1077.16 671.062,1071.82 672.06,1031.16 673.057,1025.76 674.055,1055.5 675.052,1051.3 676.05,1093.71 677.047,1087.99 678.044,1073.68 679.042,1069.52 680.039,1097.32 681.037,1092.53 682.034,1193.01 683.032,1188.14 684.029,1056.16 685.027,1048.87 686.024,963.013 687.022,958.277 688.019,1056.12 689.017,1050.84 690.014,961.237 691.011,955.964 692.009,1064.5 693.006,1058.44 694.004,1211.4 695.001,1206.61 695.999,999.328 696.996,995.123 697.994,1035.88 698.991,1031.53 699.989,1007.66 700.986,1003.63 701.984,1094.77 702.981,1088.5 703.978,1060.36 704.976,1055.11 705.973,1078.7 706.971,1073.81 707.968,1127.65 708.966,1123.25 709.963,1159.29 710.961,1153.34 711.958,1093.35 712.956,1087.44 713.953,1049.5 714.951,1044.23 715.948,1181.57 716.946,1176.53 717.943,1131.33 718.94,1125.72 719.938,1018.2 720.935,1012.84 721.933,1086.17 722.93,1081.65 723.928,1053.83 724.925,1048 725.923,1100.13 726.92,1095.61 727.918,1072.38 728.915,1068.32 729.913,1146.06 730.91,1141.75 731.907,1001.83 732.905,997.654 733.902,1132.26 734.9,1126.71 735.897,1128.18 736.895,1122.46 737.892,1260.61 738.89,1254.15 739.887,1084.46 740.885,1078.1 741.882,1088.49 742.88,1084.38 743.877,968.423 744.875,964.674 745.872,1141.46 746.869,1137.96 747.867,1170.93 748.864,1165.49 749.862,1204.1 750.859,1197.97 751.857,1019.69 752.854,1014.79 753.852,1030.53 754.849,1026.04 755.847,1054.45 756.844,1048.9 757.842,1018.5 758.839,1010.94 759.836,1011.07 760.834,1005.58 761.831,1093.48 762.829,1088.37 763.826,1221.86 764.824,1216.75 765.821,1044.03 766.819,1038.07 767.816,1207.86 768.814,1202.24 769.811,1099.43 770.809,1094.19 771.806,1159.48 772.803,1153.61 773.801,1249.91 774.798,1244.16 775.796,1048.73 776.793,1044.07 777.791,1086.47 778.788,1080.53 779.786,1093.69 780.783,1088.58 781.781,1102.83 782.778,1097.39 783.776,1227.36 784.773,1221.54 785.771,1092.07 786.768,1086.72 787.765,1071.05 788.763,1066.19 789.76,1119.75 790.758,1114.66 791.755,1164.18 792.753,1155.9 793.75,1323.37 794.748,1314.66 795.745,1125.72 796.743,1121.52 797.74,1092.9 798.738,1086 799.735,1239.15 800.732,1232.72 801.73,1109.76 802.727,1105.37 803.725,1078.99 804.722,1075.55 805.72,1043.8 806.717,1040.07 807.715,1130.85 808.712,1124.09 809.71,1222.66 810.707,1218.1 811.705,1057.55 812.702,1053.75 813.699,1049.4 814.697,1043.85 815.694,1089.11 816.692,1083.93 817.689,900.867 818.687,894.841 819.684,1010.12 820.682,1003.77 821.679,1193.27 822.677,1186.89 823.674,1049.38 824.672,1042.39 825.669,1144.04 826.667,1138.91 827.664,1163.93 828.661,1157.78 829.659,1091.64 830.656,1085.94 831.654,1286.67 832.651,1281.35 833.649,1059.26 834.646,1053 835.644,1188.38 836.641,1183.03 837.639,1215.44 838.636,1209.32 839.634,1191.99 840.631,1187.31 841.628,1142.01 842.626,1135.81 843.623,1110.12 844.621,1105.11 845.618,1099.51 846.616,1095.52 847.613,1037.63 848.611,1030.98 849.608,1027.82 850.606,1024.16 851.603,1264.46 852.601,1256.87 853.598,1287.42 854.596,1281.67 855.593,1164.55 856.59,1159.33 857.588,1154.15 858.585,1147.19 859.583,1032.44 860.58,1026.4 861.578,1199.84 862.575,1192.88 863.573,1166.88 864.57,1160.72 865.568,1083.96 866.565,1078.43 867.563,1213.13 868.56,1207.6 869.557,1303.09 870.555,1298.13 871.552,1180.07 872.55,1176.27 873.547,1097.27 874.545,1090.9 875.542,1169.12 876.54,1162.66 877.537,953.17 878.535,949.509 879.532,1137.32 880.53,1131.79 881.527,1304.26 882.524,1298.65 883.522,1213.94 884.519,1209.57 885.517,1100.47 886.514,1093.87 887.512,1193.25 888.509,1188.3 889.507,1174.55 890.504,1167.73 891.502,1216.18 892.499,1211.26 893.497,1141.68 894.494,1135.22 895.492,1023.27 896.489,1018 897.486,1159.91 898.484,1152.63 899.481,1085.84 900.479,1079.72 901.476,1035.23 902.474,1027.12 903.471,1196.08 904.469,1190.76 905.466,1215.82 906.464,1210.79 907.461,1338.25 908.459,1332.24 909.456,1068.05 910.453,1064.16 911.451,1132.02 912.448,1126.61 913.446,1353.47 914.443,1345.09 915.441,1275.2 916.438,1270.1 917.436,1095.02 918.433,1090.46 919.431,1030.65 920.428,1026.06 921.426,1234.23 922.423,1227.91 923.42,1120.56 924.418,1113.49 925.415,1251.33 926.413,1246.06 927.41,1167.48 928.408,1160.28 929.405,1036.59 930.403,1032.68 931.4,1224.66 932.398,1220.73 933.395,1282.69 934.393,1276.59 935.39,1325.33 936.388,1317.56 937.385,1135.8 938.382,1128.55 939.38,1090.72 940.377,1086.48 941.375,1118.41 942.372,1113.04 943.37,1175.42 944.367,1169.74 945.365,1386.6 946.362,1379.17 947.36,1111.54 948.357,1106.39 949.355,1302.26 950.352,1295.64 951.349,1145.32 952.347,1139.08 953.344,1254.36 954.342,1246.68 955.339,1053.94 956.337,1049.32 957.334,1169.16 958.332,1161.5 959.329,1144.44 960.327,1136.78 961.324,1228.52 962.322,1221.15 963.319,1051.41 964.316,1046.23 965.314,1137.16 966.311,1131.87 967.309,1146.66 968.306,1141.16 969.304,1122.32 970.301,1114.84 971.299,1219.79 972.296,1214.87 973.294,1173.99 974.291,1169.46 975.289,1231 976.286,1225.89 977.284,1134.69 978.281,1130.33 979.278,1174.68 980.276,1167.93 981.273,1215.91 982.271,1209.13 983.268,1177.71 984.266,1172.73 985.263,1167.98 986.261,1161.95 987.258,1152.48 988.256,1146.29 989.253,1119.28 990.251,1112.62 991.248,1070.57 992.245,1064.63 993.243,1143.25 994.24,1136.45 995.238,1098.6 996.235,1094.05 997.233,1301.61 998.23,1296.83 999.228,1047.82 1000.23,1043.07 1001.22,1102 1002.22,1097.4 1003.22,1243.88 1004.22,1234.25 1005.21,1296.95 1006.21,1291.04 1007.21,1242.89 1008.2,1235.97 1009.2,1108.59 1010.2,1103.57 1011.2,1136.83 1012.19,1129.03 1013.19,1034.97 1014.19,1029.99 1015.19,1108.45 1016.18,1102.71 1017.18,1305.98 1018.18,1301.41 1019.18,1049.31 1020.17,1044.07 1021.17,1394.34 1022.17,1389.24 1023.17,1312.29 1024.16,1301.92 1025.16,1224.98 1026.16,1218.18 1027.16,1072.22 1028.15,1064.82 1029.15,1076.42 1030.15,1071.65 1031.15,1245.46 1032.14,1237.91 1033.14,1136.86 1034.14,1131.7 1035.14,1198.66 1036.13,1192.56 1037.13,1125.24 1038.13,1119.94 1039.13,1145.98 1040.12,1140.72 1041.12,1050.56 1042.12,1045.28 1043.12,1150.41 1044.11,1144.9 1045.11,1235.29 1046.11,1229.96 1047.11,1298.63 1048.1,1294.41 1049.1,1169.07 1050.1,1162.06 1051.1,1254.05 1052.09,1248.48 1053.09,1292.33 1054.09,1285.43 1055.09,1036.87 1056.08,1031.08 1057.08,1307.65 1058.08,1301.83 1059.08,1114.17 1060.07,1110.12 1061.07,1222.85 1062.07,1217.87 1063.07,1162.8 1064.06,1156.2 1065.06,1185.23 1066.06,1179.45 1067.06,1233.42 1068.05,1226.3 1069.05,1192.9 1070.05,1187.92 1071.05,1250.01 1072.04,1245.38 1073.04,1088.18 1074.04,1082.46 1075.03,1147.14 1076.03,1141.61 1077.03,1122.22 1078.03,1118.15 1079.02,1161.79 1080.02,1158.04 1081.02,1086 1082.02,1080.24 1083.01,1067 1084.01,1062.59 1085.01,1209.04 1086.01,1202.78 1087,1117.63 1088,1113.78 1089,1145.51 1090,1140.15 1090.99,1232.46 1091.99,1226.37 1092.99,1147.07 1093.99,1143.31 1094.98,973.915 1095.98,970.719 1096.98,1066.39 1097.98,1061.2 1098.97,1291.31 1099.97,1285.4 1100.97,1165.82 1101.97,1159.32 1102.96,1089.78 1103.96,1084.4 1104.96,1200.01 1105.96,1192.09 1106.95,1115.37 1107.95,1108.59 1108.95,1177.26 1109.95,1171.53 1110.94,1088.79 1111.94,1083.65 1112.94,1176.84 1113.94,1171.67 1114.93,1221.83 1115.93,1214.31 1116.93,1197.77 1117.93,1189.33 1118.92,1249.56 1119.92,1242.4 1120.92,1163.88 1121.92,1157.03 1122.91,1185.69 1123.91,1180.63 1124.91,1162.11 1125.91,1155.48 1126.9,1208.98 1127.9,1203.1 1128.9,1186.62 1129.9,1179.72 1130.89,1242.67 1131.89,1233.17 1132.89,1216.75 1133.89,1210.43 1134.88,1419.67 1135.88,1411.96 1136.88,1138.64 1137.88,1134.25 1138.87,1131.43 1139.87,1125.84 1140.87,1193.06 1141.87,1185.98 1142.86,1135.07 1143.86,1129.51 1144.86,1298.66 1145.85,1291.81 1146.85,1096.9 1147.85,1090.97 1148.85,1118.36 1149.84,1113.86 1150.84,1141.75 1151.84,1137.66 1152.84,1240.02 1153.83,1233.98 1154.83,1156.52 1155.83,1152.72 1156.83,1258.27 1157.82,1252.91 1158.82,1276.18 1159.82,1270.35 1160.82,1049.57 1161.81,1045.92 1162.81,1147.13 1163.81,1141.69 1164.81,1061.89 1165.8,1057.58 1166.8,1265.63 1167.8,1258.27 1168.8,1104.18 1169.79,1098.74 1170.79,1174.5 1171.79,1170.12 1172.79,1149 1173.78,1144.58 1174.78,1236.99 1175.78,1231.7 1176.78,1206.72 1177.77,1198.74 1178.77,1215.43 1179.77,1207.53 1180.77,1146.61 1181.76,1139.77 1182.76,1144.86 1183.76,1138.33 1184.76,1279.92 1185.75,1275.07 1186.75,1270.01 1187.75,1265 1188.75,1114.31 1189.74,1108.34 1190.74,1065.38 1191.74,1060.64 1192.74,1192.3 1193.73,1186.86 1194.73,1113.17 1195.73,1108.52 1196.73,972.99 1197.72,968.637 1198.72,1274.11 1199.72,1268.55 1200.72,1051.43 1201.71,1045.92 1202.71,1081.85 1203.71,1076.37 1204.71,1121.33 1205.7,1115.22 1206.7,1191.95 1207.7,1185.94 1208.7,1003.46 1209.69,997.122 1210.69,988.758 1211.69,983.331 1212.68,1301.23 1213.68,1295.94 1214.68,1162.54 1215.68,1156.26 1216.67,1262.41 1217.67,1257.86 1218.67,1121.33 1219.67,1114.95 1220.66,1049.55 1221.66,1045.98 1222.66,994.112 1223.66,988.801 1224.65,1277.27 1225.65,1271.85 1226.65,1118.01 1227.65,1112.13 1228.64,1138.12 1229.64,1133.09 1230.64,1105.12 1231.64,1100.46 1232.63,1309.33 1233.63,1303.64 1234.63,1169.75 1235.63,1164.31 1236.62,1153.59 1237.62,1145.95 1238.62,1160.31 1239.62,1156.56 1240.61,1283.44 1241.61,1278.23 1242.61,908.427 1243.61,903.115 1244.6,1361.3 1245.6,1355.98 1246.6,1276.99 1247.6,1270.92 1248.59,1185.69 1249.59,1179.44 1250.59,1327.52 1251.59,1321.34 1252.58,1165.97 1253.58,1162.29 1254.58,1140.18 1255.58,1135.45 1256.57,1174.96 1257.57,1166.54 1258.57,1185.72 1259.57,1180.61 1260.56,1174.72 1261.56,1169.11 1262.56,1434.46 1263.56,1427.96 1264.55,1193.32 1265.55,1187.59 1266.55,1188.6 1267.55,1182.02 1268.54,1133.24 1269.54,1128.38 1270.54,1107.18 1271.54,1100.48 1272.53,1339.91 1273.53,1333.67 1274.53,1191.26 1275.53,1185.46 1276.52,1175.67 1277.52,1170.14 1278.52,1126.94 1279.51,1122.44 1280.51,1136.57 1281.51,1131.25 1282.51,1056.48 1283.5,1051.96 1284.5,1085.33 1285.5,1079.39 1286.5,1272.81 1287.49,1267.68 1288.49,1023.24 1289.49,1018.72 1290.49,1132.91 1291.48,1127.88 1292.48,1167.01 1293.48,1162.12 1294.48,1148.48 1295.47,1142.94 1296.47,1089.3 1297.47,1083.06 1298.47,1086.93 1299.46,1082.76 1300.46,1161.54 1301.46,1156.14 1302.46,1201.84 1303.45,1196.6 1304.45,1066.54 1305.45,1061.94 1306.45,1157.57 1307.44,1152.87 1308.44,1145.05 1309.44,1137.83 1310.44,1205.45 1311.43,1200.55 1312.43,1203.98 1313.43,1198.14 1314.43,1093.91 1315.42,1087.71 1316.42,1224.37 1317.42,1216.3 1318.42,1178.67 1319.41,1171.85 1320.41,1255.41 1321.41,1250.27 1322.41,1004.71 1323.4,999.908 1324.4,1153.93 1325.4,1150.47 1326.4,1088.07 1327.39,1083.23 1328.39,1236.64 1329.39,1230.49 1330.39,1103.69 1331.38,1099.89 1332.38,1187.26 1333.38,1181.06 1334.38,1401.77 1335.37,1396.76 1336.37,1267.43 1337.37,1260.85 1338.37,1238.83 1339.36,1233.24 1340.36,1070.99 1341.36,1066.38 1342.36,1244.71 1343.35,1238.82 1344.35,1364.79 1345.35,1359.66 1346.35,1225.47 1347.34,1218.47 1348.34,1084.73 1349.34,1078.67 1350.33,1221.19 1351.33,1214.85 1352.33,1148.43 1353.33,1143.75 1354.32,1362.99 1355.32,1358.57 1356.32,1157.67 1357.32,1150.62 1358.31,1164.68 1359.31,1160.34 1360.31,1244.94 1361.31,1239.26 1362.3,1039.34 1363.3,1033.9 1364.3,1208.8 1365.3,1203.82 1366.29,1090.3 1367.29,1084.13 1368.29,1201.56 1369.29,1196.74 1370.28,1143.2 1371.28,1136.47 1372.28,1048.75 1373.28,1043.57 1374.27,1220.96 1375.27,1213.94 1376.27,1169.22 1377.27,1163.12 1378.26,1064.28 1379.26,1058.76 1380.26,1108.05 1381.26,1102.7 1382.25,1074.97 1383.25,1068.65 1384.25,1003.98 1385.25,1000.26 1386.24,1253.29 1387.24,1246.3 1388.24,1311.86 1389.24,1306.21 1390.23,1008.12 1391.23,1003.8 1392.23,1006.96 1393.23,1002.7 1394.22,1121.55 1395.22,1117.56 1396.22,1234.4 1397.22,1227.61 1398.21,1141.82 1399.21,1135.27 1400.21,1277.97 1401.21,1272.19 1402.2,1194.41 1403.2,1189.39 1404.2,1051.19 1405.2,1045.75 1406.19,1054.6 1407.19,1049.19 1408.19,1199.93 1409.19,1195.24 1410.18,1162.12 1411.18,1156.5 1412.18,1264.33 1413.18,1258.86 1414.17,1138.14 1415.17,1133.47 1416.17,1166.84 1417.16,1161.09 1418.16,1146.85 1419.16,1142.61 1420.16,1186.45 1421.15,1179.79 1422.15,1153.49 1423.15,1147.44 1424.15,960.029 1425.14,954.928 1426.14,1240.71 1427.14,1234.35 1428.14,1091.76 1429.13,1086.81 1430.13,1209.27 1431.13,1203.23 1432.13,1079.2 1433.12,1073.59 1434.12,1192 1435.12,1185.19 1436.12,1172.48 1437.11,1167.16 1438.11,1187.09 1439.11,1181.41 1440.11,1164.26 1441.1,1157.03 1442.1,1201.36 1443.1,1196.77 1444.1,1147.9 1445.09,1141.81 1446.09,1128.84 1447.09,1123.13 1448.09,1271.79 1449.08,1263.64 1450.08,947.363 1451.08,942.388 1452.08,1146.09 1453.07,1140.23 1454.07,1116.99 1455.07,1112.27 1456.07,1180.87 1457.06,1176.17 1458.06,1229.43 1459.06,1222.21 1460.06,1275 1461.05,1269.69 1462.05,1296.43 1463.05,1292.24 1464.05,1220.02 1465.04,1213.55 1466.04,1119.53 1467.04,1115.04 1468.04,1153.18 1469.03,1147.88 1470.03,1059.52 1471.03,1054.73 1472.03,1045.14 1473.02,1039.91 1474.02,1195.27 1475.02,1188.21 1476.02,1158.21 1477.01,1152.3 1478.01,1024.71 1479.01,1019.71 1480.01,1282.39 1481,1276.61 1482,1038.48 1483,1034.15 1484,1152 1484.99,1146.46 1485.99,1180.77 1486.99,1174.8 1487.98,1114.49 1488.98,1110.05 1489.98,1296.39 1490.98,1289.87 1491.97,1242.66 1492.97,1237.31 1493.97,1115.91 1494.97,1111.25 1495.96,1223.65 1496.96,1218.51 1497.96,1049.68 1498.96,1045.31 1499.95,1159.29 1500.95,1154.83 1501.95,1112.3 1502.95,1106.92 1503.94,1159.99 1504.94,1154.04 1505.94,1180.42 1506.94,1174.82 1507.93,1205.78 1508.93,1200.6 1509.93,1203.38 1510.93,1198.51 1511.92,1305.43 1512.92,1299.73 1513.92,1159 1514.92,1153.16 1515.91,1163.65 1516.91,1155.1 1517.91,1125.96 1518.91,1121.18 1519.9,1240.18 1520.9,1235.51 1521.9,1115.55 1522.9,1109.84 1523.89,1336.13 1524.89,1329.59 1525.89,1251.67 1526.89,1246.5 1527.88,1259.05 1528.88,1254.1 1529.88,1295.77 1530.88,1290.9 1531.87,1122.7 1532.87,1118.71 1533.87,1339.25 1534.87,1332.9 1535.86,1225.08 1536.86,1220.39 1537.86,1142.82 1538.86,1137.11 1539.85,1152.96 1540.85,1146.27 1541.85,1334.28 1542.85,1328.42 1543.84,1327.61 1544.84,1321.61 1545.84,1019.25 1546.84,1012.44 1547.83,1108.7 1548.83,1103.71 1549.83,1191.27 1550.83,1185.77 1551.82,1160.5 1552.82,1156.37 1553.82,1214.07 1554.81,1208.2 1555.81,1186.25 1556.81,1181.26 1557.81,1242.24 1558.8,1236.97 1559.8,1123.51 1560.8,1119.01 1561.8,1283.29 1562.79,1276.51 1563.79,1282.52 1564.79,1277.72 1565.79,1197.9 1566.78,1192.51 1567.78,1125.17 1568.78,1121.53 1569.78,1164.93 1570.77,1159.74 1571.77,1059.13 1572.77,1054.19 1573.77,1230.78 1574.76,1225.06 1575.76,1202.03 1576.76,1194.62 1577.76,1358.38 1578.75,1352.37 1579.75,1077.98 1580.75,1072.88 1581.75,1129.16 1582.74,1124.24 1583.74,1167.34 1584.74,1160.62 1585.74,1223.94 1586.73,1215.54 1587.73,1178.28 1588.73,1173.85 1589.73,1296.51 1590.72,1290.68 1591.72,1259.84 1592.72,1253.17 1593.72,1187.23 1594.71,1182.39 1595.71,1157.04 1596.71,1150.01 1597.71,1151.74 1598.7,1145.96 1599.7,1090.57 1600.7,1086.44 1601.7,1126.05 1602.69,1120.75 1603.69,1173.87 1604.69,1168.98 1605.69,1135.64 1606.68,1132.28 1607.68,1211.6 1608.68,1204.64 1609.68,1444.84 1610.67,1437.84 1611.67,1018.71 1612.67,1014.13 1613.67,1118.08 1614.66,1113.1 1615.66,1195.77 1616.66,1190.88 1617.66,1259.05 1618.65,1252.4 1619.65,1364.32 1620.65,1356.07 1621.65,1240.27 1622.64,1235.82 1623.64,1253.71 1624.64,1249.76 1625.63,1249.89 1626.63,1244.69 1627.63,1169.1 1628.63,1162.88 1629.62,1300.76 1630.62,1295.62 1631.62,1164.72 1632.62,1159.04 1633.61,1255.19 1634.61,1248.98 1635.61,1160.53 1636.61,1153.15 1637.6,1090.8 1638.6,1084.63 1639.6,1182.86 1640.6,1177.76 1641.59,1197.52 1642.59,1191.49 1643.59,1183.88 1644.59,1179.88 1645.58,1098.63 1646.58,1093.83 1647.58,1208.81 1648.58,1204.51 1649.57,1191.13 1650.57,1186.76 1651.57,1093.92 1652.57,1089.1 1653.56,1186.09 1654.56,1179.39 1655.56,1194.84 1656.56,1189.99 1657.55,1279.33 1658.55,1272.17 1659.55,1108.45 1660.55,1102.91 1661.54,1273.77 1662.54,1268.42 1663.54,1188.03 1664.54,1183.36 1665.53,1143.52 1666.53,1137.78 1667.53,1148.51 1668.53,1141.86 1669.52,1210.66 1670.52,1205.71 1671.52,1189.21 1672.52,1182.84 1673.51,1091.78 1674.51,1083.75 1675.51,1151.74 1676.51,1147.82 1677.5,1077.88 1678.5,1073.11 1679.5,1262.41 1680.5,1257.57 1681.49,1445.72 1682.49,1440.51 1683.49,1205.27 1684.49,1200.5 1685.48,1040.75 1686.48,1035.62 1687.48,1174.84 1688.48,1169.05 1689.47,1132.61 1690.47,1126.49 1691.47,1167.62 1692.46,1162.54 1693.46,1156.43 1694.46,1150.97 1695.46,1170.5 1696.45,1164.22 1697.45,1001.83 1698.45,997.906 1699.45,1241.21 1700.44,1235.18 1701.44,1387.06 1702.44,1380.01 1703.44,1219.08 1704.43,1212.06 1705.43,1235.88 1706.43,1230.01 1707.43,1147.53 1708.42,1140.05 1709.42,1058.63 1710.42,1053.36 1711.42,1177.74 1712.41,1171.04 1713.41,1284.86 1714.41,1278.14 1715.41,1286.03 1716.4,1279.75 1717.4,1251.27 1718.4,1246.77 1719.4,1100.99 1720.39,1095.95 1721.39,1145.87 1722.39,1138.1 1723.39,1378.14 1724.38,1371.52 1725.38,1155.58 1726.38,1149.67 1727.38,1305.49 1728.37,1299.83 1729.37,1185.49 1730.37,1178.35 1731.37,1341.07 1732.36,1335.92 1733.36,1135.17 1734.36,1130.51 1735.36,1317.11 1736.35,1311.97 1737.35,1197.59 1738.35,1192.06 1739.35,1360.23 1740.34,1354.78 1741.34,1078.23 1742.34,1072.38 1743.34,1115.51 1744.33,1111.37 1745.33,1196.07 1746.33,1189.27 1747.33,1091.02 1748.32,1085.83 1749.32,1127.77 1750.32,1123.82 1751.32,1217.75 1752.31,1212.09 1753.31,1237.48 1754.31,1230.72 1755.31,1157.84 1756.3,1152.96 1757.3,1326.31 1758.3,1318.7 1759.29,1278.39 1760.29,1273.14 1761.29,1284.8 1762.29,1279.2 1763.28,1128.37 1764.28,1124.56 1765.28,1041.4 1766.28,1037.19 1767.27,1356.52 1768.27,1352.51 1769.27,1140.56 1770.27,1136.26 1771.26,1274.94 1772.26,1265.09 1773.26,1208.37 1774.26,1203.94 1775.25,1281.51 1776.25,1275.78 1777.25,1094.49 1778.25,1089.57 1779.24,1181.31 1780.24,1175.64 1781.24,1059.14 1782.24,1053.5 1783.23,1171.55 1784.23,1167.06 1785.23,1326.84 1786.23,1321.18 1787.22,1155.12 1788.22,1147.88 1789.22,1180.91 1790.22,1175.35 1791.21,1095.48 1792.21,1089.78 1793.21,1253.17 1794.21,1246.69 1795.2,997.627 1796.2,993.908 1797.2,1244.01 1798.2,1238.08 1799.19,1129.31 1800.19,1124.42 1801.19,1167.26 1802.19,1162.44 1803.18,1307.89 1804.18,1302.21 1805.18,1119 1806.18,1113.32 1807.17,1209.25 1808.17,1203.12 1809.17,1270.84 1810.17,1265.41 1811.16,1367.59 1812.16,1361.4 1813.16,1138.01 1814.16,1133.51 1815.15,1172.03 1816.15,1163.99 1817.15,1153.57 1818.15,1148.27 1819.14,1293.3 1820.14,1287.04 1821.14,1282.79 1822.14,1277.36 1823.13,1110.94 1824.13,1106.75 1825.13,1027.71 1826.13,1021.98 1827.12,1145.11 1828.12,1140.31 1829.12,979.595 1830.11,974.443 1831.11,1162.48 1832.11,1154.26 1833.11,1163.76 1834.1,1157.96 1835.1,1218.52 1836.1,1210.25 1837.1,1161.1 1838.09,1156.99 1839.09,1203.03 1840.09,1197.5 1841.09,1185.68 1842.08,1182.55 1843.08,1230.33 1844.08,1224.6 1845.08,1140 1846.07,1134.28 1847.07,1181.58 1848.07,1176.91 1849.07,1142.1 1850.06,1134.1 1851.06,1158.83 1852.06,1154.79 1853.06,1329.52 1854.05,1324.37 1855.05,1407.32 1856.05,1401.28 1857.05,1105.11 1858.04,1098.06 1859.04,1219.18 1860.04,1210.74 1861.04,1064.24 1862.03,1056.42 1863.03,1178.38 1864.03,1173.44 1865.03,1224.34 1866.02,1217.59 1867.02,1238.82 1868.02,1232.75 1869.02,1096.58 1870.01,1092.21 1871.01,1093.12 1872.01,1088.66 1873.01,1129.4 1874,1125.21 1875,1240.72 1876,1233.08 1877,1438.86 1877.99,1431.48 1878.99,1189.79 1879.99,1182.03 1880.99,1309.71 1881.98,1304.41 1882.98,1139.92 1883.98,1136.5 1884.98,1074.85 1885.97,1068.26 1886.97,1391.8 1887.97,1385.36 1888.97,983.245 1889.96,976.895 1890.96,1270.4 1891.96,1264.93 1892.96,1242.05 1893.95,1236.18 1894.95,1158.06 1895.95,1150.02 1896.94,1178.2 1897.94,1173.06 1898.94,1162.97 1899.94,1158.68 1900.93,1384.21 1901.93,1377.34 1902.93,1173.87 1903.93,1168.11 1904.92,1227.92 1905.92,1220.24 1906.92,1335.39 1907.92,1328.47 1908.91,1194.72 1909.91,1189.42 1910.91,1138.76 1911.91,1132.2 1912.9,1215.03 1913.9,1210.7 1914.9,1218.12 1915.9,1211.87 1916.89,1156.7 1917.89,1149.45 1918.89,1248.84 1919.89,1244.4 1920.88,1251.91 1921.88,1245.99 1922.88,1266.24 1923.88,1261.21 1924.87,1064.5 1925.87,1061.25 1926.87,1128.07 1927.87,1121.37 1928.86,1154.01 1929.86,1146.56 1930.86,1181.39 1931.86,1174.8 1932.85,1231.37 1933.85,1226.14 1934.85,1214.78 1935.85,1208.46 1936.84,1273.43 1937.84,1267.45 1938.84,1132.14 1939.84,1126.28 1940.83,1296.15 1941.83,1290.03 1942.83,931.168 1943.83,925.38 1944.82,1079.17 1945.82,1073.23 1946.82,1087.83 1947.82,1083.89 1948.81,1094.66 1949.81,1090.34 1950.81,1230.01 1951.81,1224.77 1952.8,1141.58 1953.8,1136.76 1954.8,1218.43 1955.8,1211.73 1956.79,1070.98 1957.79,1064.95 1958.79,1306.25 1959.79,1301.34 1960.78,1305.92 1961.78,1300.29 1962.78,1280.58 1963.78,1275.09 1964.77,1205.62 1965.77,1200.15 1966.77,1217.22 1967.76,1212.51 1968.76,1202 1969.76,1195.96 1970.76,1129.17 1971.75,1124.97 1972.75,1195.25 1973.75,1188.84 1974.75,1198.91 1975.74,1191.38 1976.74,1335.94 1977.74,1330.09 1978.74,1237.02 1979.73,1231.39 1980.73,1202.83 1981.73,1198.1 1982.73,1181.33 1983.72,1176.67 1984.72,1412.65 1985.72,1404.32 1986.72,1176.92 1987.71,1173.06 1988.71,1079.88 1989.71,1076.31 1990.71,1261.78 1991.7,1252.78 1992.7,1224.98 1993.7,1219.37 1994.7,1266.26 1995.69,1258.32 1996.69,1304.51 1997.69,1298.1 1998.69,1209.13 1999.68,1203.57 2000.68,1228.11 2001.68,1221.65 2002.68,1209.67 2003.67,1203.72 2004.67,1257.9 2005.67,1252.1 2006.67,1170.97 2007.66,1164.42 2008.66,1169.25 2009.66,1163.07 2010.66,1254.47 2011.65,1249.42 2012.65,1200.03 2013.65,1194.51 2014.65,1294.18 2015.64,1290.59 2016.64,1177.48 2017.64,1171.97 2018.64,1224.38 2019.63,1219.44 2020.63,1308.69 2021.63,1301.57 2022.63,1148.45 2023.62,1144.24 2024.62,1019.61 2025.62,1014.98 2026.62,1150.18 2027.61,1145.09 2028.61,1161.07 2029.61,1156.4 2030.61,1164.41 2031.6,1158.72 2032.6,1179.89 2033.6,1175.11 2034.59,1278.76 2035.59,1275.42 2036.59,1188.38 2037.59,1182.07 2038.58,1231.1 2039.58,1225.95 2040.58,1112.45 2041.58,1107.47 2042.57,1148.4 2043.57,1139.15 2044.57,1017.95 2045.57,1014.39 2046.56,1254.24 2047.56,1247.23 2048.56,1200.23 2049.56,1192.98 2050.55,1314.08 2051.55,1309.45 2052.55,1167.88 2053.55,1161.32 2054.54,1243.81 2055.54,1237.84 2056.54,1166.57 2057.54,1161.05 2058.53,1202.27 2059.53,1196.68 2060.53,1224.73 2061.53,1219.12 2062.52,1265.47 2063.52,1260.69 2064.52,1254.77 2065.52,1249.12 2066.51,1353.58 2067.51,1349.06 2068.51,1236.06 2069.51,1231.08 2070.5,1112.8 2071.5,1106.71 2072.5,1125.53 2073.5,1119.99 2074.49,1083.64 2075.49,1077.16 2076.49,1265.21 2077.49,1259.79 2078.48,1306.82 2079.48,1302.09 2080.48,1208.71 2081.48,1202.64 2082.47,1218.92 2083.47,1212.4 2084.47,1225.78 2085.47,1220.63 2086.46,1189.62 2087.46,1182.92 2088.46,1230.92 2089.46,1224.51 2090.45,1123.84 2091.45,1118.09 2092.45,1174.98 2093.45,1168.07 2094.44,1110.85 2095.44,1104.5 2096.44,1157.37 2097.44,1151.28 2098.43,1259.33 2099.43,1253.66 2100.43,1172.29 2101.43,1167.76 2102.42,1364.63 2103.42,1358.82 2104.42,1246.11 2105.41,1241.18 2106.41,1247.66 2107.41,1240.51 2108.41,1166.71 2109.4,1161.57 2110.4,1210.32 2111.4,1205.09 2112.4,1313.11 2113.39,1307.64 2114.39,1123.03 2115.39,1116.18 2116.39,1096.04 2117.38,1090.26 2118.38,1190.47 2119.38,1183.14 2120.38,1205.11 2121.37,1201.35 2122.37,1380.5 2123.37,1373.86 2124.37,1289.33 2125.36,1281.85 2126.36,1190.46 2127.36,1184.41 2128.36,1307.6 2129.35,1301.18 2130.35,1217.8 2131.35,1212.43 2132.35,1102.99 2133.34,1095.87 2134.34,1079.98 2135.34,1074.99 2136.34,1145.46 2137.33,1140.64 2138.33,1293.27 2139.33,1285.07 2140.33,1161.95 2141.32,1158.48 2142.32,1249.44 2143.32,1241.48 2144.32,1142.26 2145.31,1138.03 2146.31,1164.26 2147.31,1158.96 2148.31,1369.37 2149.3,1362.13 2150.3,1280.6 2151.3,1273.75 2152.3,1193 2153.29,1187.33 2154.29,1313.15 2155.29,1307.01 2156.29,1307.3 2157.28,1302.1 2158.28,1259.29 2159.28,1253.65 2160.28,1375.77 2161.27,1368.51 2162.27,1208.2 2163.27,1203.55 2164.27,1203.82 2165.26,1196.88 2166.26,1170.47 2167.26,1165.49 2168.26,1142.95 2169.25,1137.92 2170.25,1063.3 2171.25,1058.03 2172.24,1185.26 2173.24,1179.8 2174.24,1325.79 2175.24,1320.04 2176.23,1160.46 2177.23,1153.22 2178.23,1170.54 2179.23,1163.82 2180.22,1163.96 2181.22,1156.96 2182.22,1224.21 2183.22,1217.54 2184.21,1262.46 2185.21,1255.31 2186.21,1146.46 2187.21,1141.83 2188.2,1172.9 2189.2,1167.79 2190.2,1161.15 2191.2,1155.51 2192.19,1261.39 2193.19,1255.59 2194.19,1178.94 2195.19,1172.61 2196.18,1045.37 2197.18,1040.23 2198.18,1268.25 2199.18,1263.27 2200.17,1095.79 2201.17,1092.43 2202.17,1195.87 2203.17,1190.89 2204.16,1151.59 2205.16,1145.81 2206.16,1313.97 2207.16,1307.34 2208.15,1191.64 2209.15,1186.53 2210.15,1215.84 2211.15,1209.63 2212.14,1132.71 2213.14,1126.55 2214.14,1378.64 2215.14,1370.27 2216.13,1045.31 2217.13,1038.13 2218.13,1145.39 2219.13,1139.92 2220.12,1137.28 2221.12,1131 2222.12,1147.22 2223.12,1142.24 2224.11,1174.62 2225.11,1168.29 2226.11,1239.33 2227.11,1234.65 2228.1,1199.81 2229.1,1196 2230.1,1257.35 2231.1,1249.54 2232.09,1101.44 2233.09,1095.77 2234.09,1173.31 2235.09,1165.42 2236.08,1078.59 2237.08,1074.26 2238.08,1192.36 2239.07,1185.49 2240.07,1320.45 2241.07,1313.46 2242.07,1148.41 2243.06,1142.92 2244.06,1414.67 2245.06,1407.85 2246.06,1238.4 2247.05,1233.27 2248.05,1240.9 2249.05,1233.85 2250.05,1239.26 2251.04,1234.41 2252.04,1302.06 2253.04,1295.59 2254.04,1120.49 2255.03,1117.04 2256.03,1177.12 2257.03,1171.97 2258.03,1206.76 2259.02,1200.52 2260.02,1106.2 2261.02,1100.35 2262.02,1125.85 2263.01,1120.06 2264.01,1356.68 2265.01,1352.81 2266.01,1233.42 2267,1226.66 2268,1149.77 2269,1143.94 2270,1291.08 2270.99,1285.6 2271.99,1268.59 2272.99,1262.01 2273.99,1208.39 2274.98,1202.64 2275.98,1329.13 2276.98,1320.82 2277.98,1299.26 2278.97,1291.45 2279.97,1267.22 2280.97,1260.44 2281.97,1244.87 2282.96,1239.79 2283.96,1154.47 2284.96,1147.76 2285.96,1326.84 2286.95,1319.03 2287.95,1356.19 2288.95,1351.24 2289.95,1249.05 2290.94,1243.81 2291.94,1126.16 2292.94,1120.36 "/>
<path clip-path="url(#clip560)" d="M2018.52 198.898 L2282.3 198.898 L2282.3 95.2176 L2018.52 95.2176  Z" fill="#ffffff" fill-rule="evenodd" fill-opacity="1"/>
<polyline clip-path="url(#clip560)" style="stroke:#000000; stroke-linecap:round; stroke-linejoin:round; stroke-width:4; stroke-opacity:1; fill:none" points="2018.52,198.898 2282.3,198.898 2282.3,95.2176 2018.52,95.2176 2018.52,198.898 "/>
<polyline clip-path="url(#clip560)" style="stroke:#009af9; stroke-linecap:round; stroke-linejoin:round; stroke-width:4; stroke-opacity:1; fill:none" points="2042,147.058 2182.91,147.058 "/>
<path clip-path="url(#clip560)" d="M2220.23 166.745 Q2218.43 171.375 2216.71 172.787 Q2215 174.199 2212.13 174.199 L2208.73 174.199 L2208.73 170.634 L2211.23 170.634 Q2212.99 170.634 2213.96 169.8 Q2214.93 168.967 2216.11 165.865 L2216.88 163.921 L2206.39 138.412 L2210.9 138.412 L2219.01 158.689 L2227.11 138.412 L2231.62 138.412 L2220.23 166.745 Z" fill="#000000" fill-rule="nonzero" fill-opacity="1" /><path clip-path="url(#clip560)" d="M2238.91 160.402 L2246.55 160.402 L2246.55 134.037 L2238.24 135.703 L2238.24 131.444 L2246.5 129.778 L2251.18 129.778 L2251.18 160.402 L2258.82 160.402 L2258.82 164.338 L2238.91 164.338 L2238.91 160.402 Z" fill="#000000" fill-rule="nonzero" fill-opacity="1" /></svg>
