<?xml version="1.0" encoding="utf-8"?>
<svg xmlns="http://www.w3.org/2000/svg" xmlns:xlink="http://www.w3.org/1999/xlink" width="600" height="400" viewBox="0 0 2400 1600">
<defs>
  <clipPath id="clip620">
    <rect x="0" y="0" width="2400" height="1600"/>
  </clipPath>
</defs>
<path clip-path="url(#clip620)" d="M0 1600 L2400 1600 L2400 0 L0 0  Z" fill="#ffffff" fill-rule="evenodd" fill-opacity="1"/>
<defs>
  <clipPath id="clip621">
    <rect x="480" y="0" width="1681" height="1600"/>
  </clipPath>
</defs>
<path clip-path="url(#clip620)" d="M170.857 1486.45 L2352.76 1486.45 L2352.76 47.2441 L170.857 47.2441  Z" fill="#ffffff" fill-rule="evenodd" fill-opacity="1"/>
<defs>
  <clipPath id="clip622">
    <rect x="170" y="47" width="2183" height="1440"/>
  </clipPath>
</defs>
<polyline clip-path="url(#clip622)" style="stroke:#000000; stroke-linecap:round; stroke-linejoin:round; stroke-width:2; stroke-opacity:0.1; fill:none" points="232.609,1486.45 232.609,47.2441 "/>
<polyline clip-path="url(#clip622)" style="stroke:#000000; stroke-linecap:round; stroke-linejoin:round; stroke-width:2; stroke-opacity:0.1; fill:none" points="747.208,1486.45 747.208,47.2441 "/>
<polyline clip-path="url(#clip622)" style="stroke:#000000; stroke-linecap:round; stroke-linejoin:round; stroke-width:2; stroke-opacity:0.1; fill:none" points="1261.81,1486.45 1261.81,47.2441 "/>
<polyline clip-path="url(#clip622)" style="stroke:#000000; stroke-linecap:round; stroke-linejoin:round; stroke-width:2; stroke-opacity:0.1; fill:none" points="1776.41,1486.45 1776.41,47.2441 "/>
<polyline clip-path="url(#clip622)" style="stroke:#000000; stroke-linecap:round; stroke-linejoin:round; stroke-width:2; stroke-opacity:0.1; fill:none" points="2291,1486.45 2291,47.2441 "/>
<polyline clip-path="url(#clip620)" style="stroke:#000000; stroke-linecap:round; stroke-linejoin:round; stroke-width:4; stroke-opacity:1; fill:none" points="170.857,1486.45 2352.76,1486.45 "/>
<polyline clip-path="url(#clip620)" style="stroke:#000000; stroke-linecap:round; stroke-linejoin:round; stroke-width:4; stroke-opacity:1; fill:none" points="232.609,1486.45 232.609,1467.55 "/>
<polyline clip-path="url(#clip620)" style="stroke:#000000; stroke-linecap:round; stroke-linejoin:round; stroke-width:4; stroke-opacity:1; fill:none" points="747.208,1486.45 747.208,1467.55 "/>
<polyline clip-path="url(#clip620)" style="stroke:#000000; stroke-linecap:round; stroke-linejoin:round; stroke-width:4; stroke-opacity:1; fill:none" points="1261.81,1486.45 1261.81,1467.55 "/>
<polyline clip-path="url(#clip620)" style="stroke:#000000; stroke-linecap:round; stroke-linejoin:round; stroke-width:4; stroke-opacity:1; fill:none" points="1776.41,1486.45 1776.41,1467.55 "/>
<polyline clip-path="url(#clip620)" style="stroke:#000000; stroke-linecap:round; stroke-linejoin:round; stroke-width:4; stroke-opacity:1; fill:none" points="2291,1486.45 2291,1467.55 "/>
<path clip-path="url(#clip620)" d="M232.609 1517.37 Q228.998 1517.37 227.169 1520.93 Q225.364 1524.47 225.364 1531.6 Q225.364 1538.71 227.169 1542.27 Q228.998 1545.82 232.609 1545.82 Q236.244 1545.82 238.049 1542.27 Q239.878 1538.71 239.878 1531.6 Q239.878 1524.47 238.049 1520.93 Q236.244 1517.37 232.609 1517.37 M232.609 1513.66 Q238.419 1513.66 241.475 1518.27 Q244.554 1522.85 244.554 1531.6 Q244.554 1540.33 241.475 1544.94 Q238.419 1549.52 232.609 1549.52 Q226.799 1549.52 223.72 1544.94 Q220.665 1540.33 220.665 1531.6 Q220.665 1522.85 223.72 1518.27 Q226.799 1513.66 232.609 1513.66 Z" fill="#000000" fill-rule="nonzero" fill-opacity="1" /><path clip-path="url(#clip620)" d="M706.826 1514.29 L725.183 1514.29 L725.183 1518.22 L711.109 1518.22 L711.109 1526.7 Q712.127 1526.35 713.146 1526.19 Q714.164 1526 715.183 1526 Q720.97 1526 724.349 1529.17 Q727.729 1532.34 727.729 1537.76 Q727.729 1543.34 724.257 1546.44 Q720.784 1549.52 714.465 1549.52 Q712.289 1549.52 710.021 1549.15 Q707.775 1548.78 705.368 1548.04 L705.368 1543.34 Q707.451 1544.47 709.673 1545.03 Q711.896 1545.58 714.372 1545.58 Q718.377 1545.58 720.715 1543.48 Q723.053 1541.37 723.053 1537.76 Q723.053 1534.15 720.715 1532.04 Q718.377 1529.94 714.372 1529.94 Q712.497 1529.94 710.623 1530.35 Q708.771 1530.77 706.826 1531.65 L706.826 1514.29 Z" fill="#000000" fill-rule="nonzero" fill-opacity="1" /><path clip-path="url(#clip620)" d="M746.942 1517.37 Q743.331 1517.37 741.502 1520.93 Q739.696 1524.47 739.696 1531.6 Q739.696 1538.71 741.502 1542.27 Q743.331 1545.82 746.942 1545.82 Q750.576 1545.82 752.382 1542.27 Q754.21 1538.71 754.21 1531.6 Q754.21 1524.47 752.382 1520.93 Q750.576 1517.37 746.942 1517.37 M746.942 1513.66 Q752.752 1513.66 755.807 1518.27 Q758.886 1522.85 758.886 1531.6 Q758.886 1540.33 755.807 1544.94 Q752.752 1549.52 746.942 1549.52 Q741.132 1549.52 738.053 1544.94 Q734.997 1540.33 734.997 1531.6 Q734.997 1522.85 738.053 1518.27 Q741.132 1513.66 746.942 1513.66 Z" fill="#000000" fill-rule="nonzero" fill-opacity="1" /><path clip-path="url(#clip620)" d="M777.104 1517.37 Q773.493 1517.37 771.664 1520.93 Q769.858 1524.47 769.858 1531.6 Q769.858 1538.71 771.664 1542.27 Q773.493 1545.82 777.104 1545.82 Q780.738 1545.82 782.543 1542.27 Q784.372 1538.71 784.372 1531.6 Q784.372 1524.47 782.543 1520.93 Q780.738 1517.37 777.104 1517.37 M777.104 1513.66 Q782.914 1513.66 785.969 1518.27 Q789.048 1522.85 789.048 1531.6 Q789.048 1540.33 785.969 1544.94 Q782.914 1549.52 777.104 1549.52 Q771.293 1549.52 768.215 1544.94 Q765.159 1540.33 765.159 1531.6 Q765.159 1522.85 768.215 1518.27 Q771.293 1513.66 777.104 1513.66 Z" fill="#000000" fill-rule="nonzero" fill-opacity="1" /><path clip-path="url(#clip620)" d="M1206.33 1544.91 L1213.97 1544.91 L1213.97 1518.55 L1205.66 1520.21 L1205.66 1515.95 L1213.92 1514.29 L1218.6 1514.29 L1218.6 1544.91 L1226.24 1544.91 L1226.24 1548.85 L1206.33 1548.85 L1206.33 1544.91 Z" fill="#000000" fill-rule="nonzero" fill-opacity="1" /><path clip-path="url(#clip620)" d="M1245.68 1517.37 Q1242.07 1517.37 1240.24 1520.93 Q1238.44 1524.47 1238.44 1531.6 Q1238.44 1538.71 1240.24 1542.27 Q1242.07 1545.82 1245.68 1545.82 Q1249.32 1545.82 1251.12 1542.27 Q1252.95 1538.71 1252.95 1531.6 Q1252.95 1524.47 1251.12 1520.93 Q1249.32 1517.37 1245.68 1517.37 M1245.68 1513.66 Q1251.49 1513.66 1254.55 1518.27 Q1257.63 1522.85 1257.63 1531.6 Q1257.63 1540.33 1254.55 1544.94 Q1251.49 1549.52 1245.68 1549.52 Q1239.87 1549.52 1236.8 1544.94 Q1233.74 1540.33 1233.74 1531.6 Q1233.74 1522.85 1236.8 1518.27 Q1239.87 1513.66 1245.68 1513.66 Z" fill="#000000" fill-rule="nonzero" fill-opacity="1" /><path clip-path="url(#clip620)" d="M1275.85 1517.37 Q1272.23 1517.37 1270.41 1520.93 Q1268.6 1524.47 1268.6 1531.6 Q1268.6 1538.71 1270.41 1542.27 Q1272.23 1545.82 1275.85 1545.82 Q1279.48 1545.82 1281.29 1542.27 Q1283.11 1538.71 1283.11 1531.6 Q1283.11 1524.47 1281.29 1520.93 Q1279.48 1517.37 1275.85 1517.37 M1275.85 1513.66 Q1281.66 1513.66 1284.71 1518.27 Q1287.79 1522.85 1287.79 1531.6 Q1287.79 1540.33 1284.71 1544.94 Q1281.66 1549.52 1275.85 1549.52 Q1270.04 1549.52 1266.96 1544.94 Q1263.9 1540.33 1263.9 1531.6 Q1263.9 1522.85 1266.96 1518.27 Q1270.04 1513.66 1275.85 1513.66 Z" fill="#000000" fill-rule="nonzero" fill-opacity="1" /><path clip-path="url(#clip620)" d="M1306.01 1517.37 Q1302.4 1517.37 1300.57 1520.93 Q1298.76 1524.47 1298.76 1531.6 Q1298.76 1538.71 1300.57 1542.27 Q1302.4 1545.82 1306.01 1545.82 Q1309.64 1545.82 1311.45 1542.27 Q1313.28 1538.71 1313.28 1531.6 Q1313.28 1524.47 1311.45 1520.93 Q1309.64 1517.37 1306.01 1517.37 M1306.01 1513.66 Q1311.82 1513.66 1314.87 1518.27 Q1317.95 1522.85 1317.95 1531.6 Q1317.95 1540.33 1314.87 1544.94 Q1311.82 1549.52 1306.01 1549.52 Q1300.2 1549.52 1297.12 1544.94 Q1294.06 1540.33 1294.06 1531.6 Q1294.06 1522.85 1297.12 1518.27 Q1300.2 1513.66 1306.01 1513.66 Z" fill="#000000" fill-rule="nonzero" fill-opacity="1" /><path clip-path="url(#clip620)" d="M1720.93 1544.91 L1728.57 1544.91 L1728.57 1518.55 L1720.26 1520.21 L1720.26 1515.95 L1728.52 1514.29 L1733.2 1514.29 L1733.2 1544.91 L1740.84 1544.91 L1740.84 1548.85 L1720.93 1548.85 L1720.93 1544.91 Z" fill="#000000" fill-rule="nonzero" fill-opacity="1" /><path clip-path="url(#clip620)" d="M1750.33 1514.29 L1768.69 1514.29 L1768.69 1518.22 L1754.61 1518.22 L1754.61 1526.7 Q1755.63 1526.35 1756.65 1526.19 Q1757.67 1526 1758.69 1526 Q1764.47 1526 1767.85 1529.17 Q1771.23 1532.34 1771.23 1537.76 Q1771.23 1543.34 1767.76 1546.44 Q1764.29 1549.52 1757.97 1549.52 Q1755.79 1549.52 1753.52 1549.15 Q1751.28 1548.78 1748.87 1548.04 L1748.87 1543.34 Q1750.95 1544.47 1753.18 1545.03 Q1755.4 1545.58 1757.88 1545.58 Q1761.88 1545.58 1764.22 1543.48 Q1766.56 1541.37 1766.56 1537.76 Q1766.56 1534.15 1764.22 1532.04 Q1761.88 1529.94 1757.88 1529.94 Q1756 1529.94 1754.13 1530.35 Q1752.27 1530.77 1750.33 1531.65 L1750.33 1514.29 Z" fill="#000000" fill-rule="nonzero" fill-opacity="1" /><path clip-path="url(#clip620)" d="M1790.44 1517.37 Q1786.83 1517.37 1785 1520.93 Q1783.2 1524.47 1783.2 1531.6 Q1783.2 1538.71 1785 1542.27 Q1786.83 1545.82 1790.44 1545.82 Q1794.08 1545.82 1795.88 1542.27 Q1797.71 1538.71 1797.71 1531.6 Q1797.71 1524.47 1795.88 1520.93 Q1794.08 1517.37 1790.44 1517.37 M1790.44 1513.66 Q1796.25 1513.66 1799.31 1518.27 Q1802.39 1522.85 1802.39 1531.6 Q1802.39 1540.33 1799.31 1544.94 Q1796.25 1549.52 1790.44 1549.52 Q1784.63 1549.52 1781.56 1544.94 Q1778.5 1540.33 1778.5 1531.6 Q1778.5 1522.85 1781.56 1518.27 Q1784.63 1513.66 1790.44 1513.66 Z" fill="#000000" fill-rule="nonzero" fill-opacity="1" /><path clip-path="url(#clip620)" d="M1820.61 1517.37 Q1817 1517.37 1815.17 1520.93 Q1813.36 1524.47 1813.36 1531.6 Q1813.36 1538.71 1815.17 1542.27 Q1817 1545.82 1820.61 1545.82 Q1824.24 1545.82 1826.05 1542.27 Q1827.87 1538.71 1827.87 1531.6 Q1827.87 1524.47 1826.05 1520.93 Q1824.24 1517.37 1820.61 1517.37 M1820.61 1513.66 Q1826.42 1513.66 1829.47 1518.27 Q1832.55 1522.85 1832.55 1531.6 Q1832.55 1540.33 1829.47 1544.94 Q1826.42 1549.52 1820.61 1549.52 Q1814.8 1549.52 1811.72 1544.94 Q1808.66 1540.33 1808.66 1531.6 Q1808.66 1522.85 1811.72 1518.27 Q1814.8 1513.66 1820.61 1513.66 Z" fill="#000000" fill-rule="nonzero" fill-opacity="1" /><path clip-path="url(#clip620)" d="M2239.62 1544.91 L2255.93 1544.91 L2255.93 1548.85 L2233.99 1548.85 L2233.99 1544.91 Q2236.65 1542.16 2241.24 1537.53 Q2245.84 1532.88 2247.02 1531.53 Q2249.27 1529.01 2250.15 1527.27 Q2251.05 1525.51 2251.05 1523.82 Q2251.05 1521.07 2249.11 1519.33 Q2247.18 1517.6 2244.08 1517.6 Q2241.88 1517.6 2239.43 1518.36 Q2237 1519.13 2234.22 1520.68 L2234.22 1515.95 Q2237.05 1514.82 2239.5 1514.24 Q2241.95 1513.66 2243.99 1513.66 Q2249.36 1513.66 2252.56 1516.35 Q2255.75 1519.03 2255.75 1523.52 Q2255.75 1525.65 2254.94 1527.57 Q2254.15 1529.47 2252.05 1532.07 Q2251.47 1532.74 2248.37 1535.95 Q2245.26 1539.15 2239.62 1544.91 Z" fill="#000000" fill-rule="nonzero" fill-opacity="1" /><path clip-path="url(#clip620)" d="M2275.75 1517.37 Q2272.14 1517.37 2270.31 1520.93 Q2268.5 1524.47 2268.5 1531.6 Q2268.5 1538.71 2270.31 1542.27 Q2272.14 1545.82 2275.75 1545.82 Q2279.38 1545.82 2281.19 1542.27 Q2283.02 1538.71 2283.02 1531.6 Q2283.02 1524.47 2281.19 1520.93 Q2279.38 1517.37 2275.75 1517.37 M2275.75 1513.66 Q2281.56 1513.66 2284.62 1518.27 Q2287.69 1522.85 2287.69 1531.6 Q2287.69 1540.33 2284.62 1544.94 Q2281.56 1549.52 2275.75 1549.52 Q2269.94 1549.52 2266.86 1544.94 Q2263.81 1540.33 2263.81 1531.6 Q2263.81 1522.85 2266.86 1518.27 Q2269.94 1513.66 2275.75 1513.66 Z" fill="#000000" fill-rule="nonzero" fill-opacity="1" /><path clip-path="url(#clip620)" d="M2305.91 1517.37 Q2302.3 1517.37 2300.47 1520.93 Q2298.67 1524.47 2298.67 1531.6 Q2298.67 1538.71 2300.47 1542.27 Q2302.3 1545.82 2305.91 1545.82 Q2309.55 1545.82 2311.35 1542.27 Q2313.18 1538.71 2313.18 1531.6 Q2313.18 1524.47 2311.35 1520.93 Q2309.55 1517.37 2305.91 1517.37 M2305.91 1513.66 Q2311.72 1513.66 2314.78 1518.27 Q2317.86 1522.85 2317.86 1531.6 Q2317.86 1540.33 2314.78 1544.94 Q2311.72 1549.52 2305.91 1549.52 Q2300.1 1549.52 2297.02 1544.94 Q2293.97 1540.33 2293.97 1531.6 Q2293.97 1522.85 2297.02 1518.27 Q2300.1 1513.66 2305.91 1513.66 Z" fill="#000000" fill-rule="nonzero" fill-opacity="1" /><path clip-path="url(#clip620)" d="M2336.07 1517.37 Q2332.46 1517.37 2330.63 1520.93 Q2328.83 1524.47 2328.83 1531.6 Q2328.83 1538.71 2330.63 1542.27 Q2332.46 1545.82 2336.07 1545.82 Q2339.71 1545.82 2341.51 1542.27 Q2343.34 1538.71 2343.34 1531.6 Q2343.34 1524.47 2341.51 1520.93 Q2339.71 1517.37 2336.07 1517.37 M2336.07 1513.66 Q2341.88 1513.66 2344.94 1518.27 Q2348.02 1522.85 2348.02 1531.6 Q2348.02 1540.33 2344.94 1544.94 Q2341.88 1549.52 2336.07 1549.52 Q2330.26 1549.52 2327.18 1544.94 Q2324.13 1540.33 2324.13 1531.6 Q2324.13 1522.85 2327.18 1518.27 Q2330.26 1513.66 2336.07 1513.66 Z" fill="#000000" fill-rule="nonzero" fill-opacity="1" /><polyline clip-path="url(#clip622)" style="stroke:#000000; stroke-linecap:round; stroke-linejoin:round; stroke-width:2; stroke-opacity:0.1; fill:none" points="170.857,1322.75 2352.76,1322.75 "/>
<polyline clip-path="url(#clip622)" style="stroke:#000000; stroke-linecap:round; stroke-linejoin:round; stroke-width:2; stroke-opacity:0.1; fill:none" points="170.857,1013.17 2352.76,1013.17 "/>
<polyline clip-path="url(#clip622)" style="stroke:#000000; stroke-linecap:round; stroke-linejoin:round; stroke-width:2; stroke-opacity:0.1; fill:none" points="170.857,703.584 2352.76,703.584 "/>
<polyline clip-path="url(#clip622)" style="stroke:#000000; stroke-linecap:round; stroke-linejoin:round; stroke-width:2; stroke-opacity:0.1; fill:none" points="170.857,394.001 2352.76,394.001 "/>
<polyline clip-path="url(#clip622)" style="stroke:#000000; stroke-linecap:round; stroke-linejoin:round; stroke-width:2; stroke-opacity:0.1; fill:none" points="170.857,84.4184 2352.76,84.4184 "/>
<polyline clip-path="url(#clip620)" style="stroke:#000000; stroke-linecap:round; stroke-linejoin:round; stroke-width:4; stroke-opacity:1; fill:none" points="170.857,1486.45 170.857,47.2441 "/>
<polyline clip-path="url(#clip620)" style="stroke:#000000; stroke-linecap:round; stroke-linejoin:round; stroke-width:4; stroke-opacity:1; fill:none" points="170.857,1322.75 189.755,1322.75 "/>
<polyline clip-path="url(#clip620)" style="stroke:#000000; stroke-linecap:round; stroke-linejoin:round; stroke-width:4; stroke-opacity:1; fill:none" points="170.857,1013.17 189.755,1013.17 "/>
<polyline clip-path="url(#clip620)" style="stroke:#000000; stroke-linecap:round; stroke-linejoin:round; stroke-width:4; stroke-opacity:1; fill:none" points="170.857,703.584 189.755,703.584 "/>
<polyline clip-path="url(#clip620)" style="stroke:#000000; stroke-linecap:round; stroke-linejoin:round; stroke-width:4; stroke-opacity:1; fill:none" points="170.857,394.001 189.755,394.001 "/>
<polyline clip-path="url(#clip620)" style="stroke:#000000; stroke-linecap:round; stroke-linejoin:round; stroke-width:4; stroke-opacity:1; fill:none" points="170.857,84.4184 189.755,84.4184 "/>
<path clip-path="url(#clip620)" d="M54.3949 1336.1 L62.0337 1336.1 L62.0337 1309.73 L53.7236 1311.4 L53.7236 1307.14 L61.9874 1305.47 L66.6633 1305.47 L66.6633 1336.1 L74.3022 1336.1 L74.3022 1340.03 L54.3949 1340.03 L54.3949 1336.1 Z" fill="#000000" fill-rule="nonzero" fill-opacity="1" /><path clip-path="url(#clip620)" d="M87.7743 1336.1 L104.094 1336.1 L104.094 1340.03 L82.1494 1340.03 L82.1494 1336.1 Q84.8114 1333.34 89.3947 1328.71 Q94.0012 1324.06 95.1817 1322.72 Q97.4271 1320.19 98.3067 1318.46 Q99.2095 1316.7 99.2095 1315.01 Q99.2095 1312.25 97.265 1310.52 Q95.3437 1308.78 92.2419 1308.78 Q90.0428 1308.78 87.5892 1309.54 Q85.1586 1310.31 82.3808 1311.86 L82.3808 1307.14 Q85.2049 1306 87.6586 1305.42 Q90.1123 1304.85 92.1493 1304.85 Q97.5197 1304.85 100.714 1307.53 Q103.909 1310.22 103.909 1314.71 Q103.909 1316.84 103.098 1318.76 Q102.311 1320.66 100.205 1323.25 Q99.6261 1323.92 96.5243 1327.14 Q93.4225 1330.33 87.7743 1336.1 Z" fill="#000000" fill-rule="nonzero" fill-opacity="1" /><path clip-path="url(#clip620)" d="M113.955 1305.47 L132.311 1305.47 L132.311 1309.41 L118.237 1309.41 L118.237 1317.88 Q119.256 1317.53 120.274 1317.37 Q121.293 1317.18 122.311 1317.18 Q128.098 1317.18 131.478 1320.35 Q134.857 1323.53 134.857 1328.94 Q134.857 1334.52 131.385 1337.62 Q127.913 1340.7 121.594 1340.7 Q119.418 1340.7 117.149 1340.33 Q114.904 1339.96 112.496 1339.22 L112.496 1334.52 Q114.58 1335.66 116.802 1336.21 Q119.024 1336.77 121.501 1336.77 Q125.506 1336.77 127.844 1334.66 Q130.182 1332.55 130.182 1328.94 Q130.182 1325.33 127.844 1323.22 Q125.506 1321.12 121.501 1321.12 Q119.626 1321.12 117.751 1321.54 Q115.899 1321.95 113.955 1322.83 L113.955 1305.47 Z" fill="#000000" fill-rule="nonzero" fill-opacity="1" /><path clip-path="url(#clip620)" d="M53.3995 1026.51 L61.0384 1026.51 L61.0384 1000.15 L52.7282 1001.81 L52.7282 997.554 L60.9921 995.887 L65.668 995.887 L65.668 1026.51 L73.3068 1026.51 L73.3068 1030.45 L53.3995 1030.45 L53.3995 1026.51 Z" fill="#000000" fill-rule="nonzero" fill-opacity="1" /><path clip-path="url(#clip620)" d="M82.7975 995.887 L101.154 995.887 L101.154 999.823 L87.0799 999.823 L87.0799 1008.29 Q88.0984 1007.95 89.1169 1007.79 Q90.1354 1007.6 91.1539 1007.6 Q96.941 1007.6 100.321 1010.77 Q103.7 1013.94 103.7 1019.36 Q103.7 1024.94 100.228 1028.04 Q96.7558 1031.12 90.4364 1031.12 Q88.2604 1031.12 85.9919 1030.75 Q83.7466 1030.38 81.3392 1029.64 L81.3392 1024.94 Q83.4225 1026.07 85.6447 1026.63 Q87.8669 1027.18 90.3438 1027.18 Q94.3484 1027.18 96.6863 1025.08 Q99.0243 1022.97 99.0243 1019.36 Q99.0243 1015.75 96.6863 1013.64 Q94.3484 1011.54 90.3438 1011.54 Q88.4688 1011.54 86.5938 1011.95 Q84.7419 1012.37 82.7975 1013.25 L82.7975 995.887 Z" fill="#000000" fill-rule="nonzero" fill-opacity="1" /><path clip-path="url(#clip620)" d="M122.913 998.966 Q119.302 998.966 117.473 1002.53 Q115.668 1006.07 115.668 1013.2 Q115.668 1020.31 117.473 1023.87 Q119.302 1027.42 122.913 1027.42 Q126.547 1027.42 128.353 1023.87 Q130.182 1020.31 130.182 1013.2 Q130.182 1006.07 128.353 1002.53 Q126.547 998.966 122.913 998.966 M122.913 995.262 Q128.723 995.262 131.779 999.869 Q134.857 1004.45 134.857 1013.2 Q134.857 1021.93 131.779 1026.54 Q128.723 1031.12 122.913 1031.12 Q117.103 1031.12 114.024 1026.54 Q110.969 1021.93 110.969 1013.2 Q110.969 1004.45 114.024 999.869 Q117.103 995.262 122.913 995.262 Z" fill="#000000" fill-rule="nonzero" fill-opacity="1" /><path clip-path="url(#clip620)" d="M54.3949 716.929 L62.0337 716.929 L62.0337 690.564 L53.7236 692.23 L53.7236 687.971 L61.9874 686.304 L66.6633 686.304 L66.6633 716.929 L74.3022 716.929 L74.3022 720.864 L54.3949 720.864 L54.3949 716.929 Z" fill="#000000" fill-rule="nonzero" fill-opacity="1" /><path clip-path="url(#clip620)" d="M82.566 686.304 L104.788 686.304 L104.788 688.295 L92.2419 720.864 L87.3577 720.864 L99.1632 690.24 L82.566 690.24 L82.566 686.304 Z" fill="#000000" fill-rule="nonzero" fill-opacity="1" /><path clip-path="url(#clip620)" d="M113.955 686.304 L132.311 686.304 L132.311 690.24 L118.237 690.24 L118.237 698.712 Q119.256 698.365 120.274 698.202 Q121.293 698.017 122.311 698.017 Q128.098 698.017 131.478 701.189 Q134.857 704.36 134.857 709.776 Q134.857 715.355 131.385 718.457 Q127.913 721.536 121.594 721.536 Q119.418 721.536 117.149 721.165 Q114.904 720.795 112.496 720.054 L112.496 715.355 Q114.58 716.489 116.802 717.045 Q119.024 717.601 121.501 717.601 Q125.506 717.601 127.844 715.494 Q130.182 713.388 130.182 709.776 Q130.182 706.165 127.844 704.059 Q125.506 701.952 121.501 701.952 Q119.626 701.952 117.751 702.369 Q115.899 702.786 113.955 703.665 L113.955 686.304 Z" fill="#000000" fill-rule="nonzero" fill-opacity="1" /><path clip-path="url(#clip620)" d="M56.6171 407.346 L72.9365 407.346 L72.9365 411.281 L50.9921 411.281 L50.9921 407.346 Q53.6541 404.592 58.2375 399.962 Q62.8439 395.309 64.0245 393.967 Q66.2698 391.444 67.1494 389.707 Q68.0522 387.948 68.0522 386.258 Q68.0522 383.504 66.1078 381.768 Q64.1865 380.032 61.0847 380.032 Q58.8856 380.032 56.4319 380.795 Q54.0014 381.559 51.2236 383.11 L51.2236 378.388 Q54.0477 377.254 56.5014 376.675 Q58.955 376.096 60.9921 376.096 Q66.3624 376.096 69.5568 378.782 Q72.7513 381.467 72.7513 385.957 Q72.7513 388.087 71.9411 390.008 Q71.1541 391.906 69.0476 394.499 Q68.4689 395.17 65.367 398.388 Q62.2652 401.582 56.6171 407.346 Z" fill="#000000" fill-rule="nonzero" fill-opacity="1" /><path clip-path="url(#clip620)" d="M92.7512 379.8 Q89.1401 379.8 87.3114 383.365 Q85.5058 386.907 85.5058 394.036 Q85.5058 401.143 87.3114 404.707 Q89.1401 408.249 92.7512 408.249 Q96.3854 408.249 98.1909 404.707 Q100.02 401.143 100.02 394.036 Q100.02 386.907 98.1909 383.365 Q96.3854 379.8 92.7512 379.8 M92.7512 376.096 Q98.5613 376.096 101.617 380.703 Q104.696 385.286 104.696 394.036 Q104.696 402.763 101.617 407.369 Q98.5613 411.953 92.7512 411.953 Q86.941 411.953 83.8623 407.369 Q80.8068 402.763 80.8068 394.036 Q80.8068 385.286 83.8623 380.703 Q86.941 376.096 92.7512 376.096 Z" fill="#000000" fill-rule="nonzero" fill-opacity="1" /><path clip-path="url(#clip620)" d="M122.913 379.8 Q119.302 379.8 117.473 383.365 Q115.668 386.907 115.668 394.036 Q115.668 401.143 117.473 404.707 Q119.302 408.249 122.913 408.249 Q126.547 408.249 128.353 404.707 Q130.182 401.143 130.182 394.036 Q130.182 386.907 128.353 383.365 Q126.547 379.8 122.913 379.8 M122.913 376.096 Q128.723 376.096 131.779 380.703 Q134.857 385.286 134.857 394.036 Q134.857 402.763 131.779 407.369 Q128.723 411.953 122.913 411.953 Q117.103 411.953 114.024 407.369 Q110.969 402.763 110.969 394.036 Q110.969 385.286 114.024 380.703 Q117.103 376.096 122.913 376.096 Z" fill="#000000" fill-rule="nonzero" fill-opacity="1" /><path clip-path="url(#clip620)" d="M57.6125 97.7632 L73.9318 97.7632 L73.9318 101.698 L51.9875 101.698 L51.9875 97.7632 Q54.6495 95.0086 59.2328 90.379 Q63.8393 85.7262 65.0198 84.3836 Q67.2652 81.8605 68.1448 80.1244 Q69.0476 78.3651 69.0476 76.6753 Q69.0476 73.9207 67.1032 72.1846 Q65.1819 70.4485 62.08 70.4485 Q59.881 70.4485 57.4273 71.2124 Q54.9967 71.9763 52.219 73.5272 L52.219 68.805 Q55.043 67.6708 57.4967 67.0921 Q59.9504 66.5134 61.9874 66.5134 Q67.3578 66.5134 70.5522 69.1985 Q73.7466 71.8837 73.7466 76.3744 Q73.7466 78.504 72.9365 80.4253 Q72.1494 82.3235 70.0429 84.916 Q69.4642 85.5873 66.3624 88.8049 Q63.2606 91.9993 57.6125 97.7632 Z" fill="#000000" fill-rule="nonzero" fill-opacity="1" /><path clip-path="url(#clip620)" d="M87.7743 97.7632 L104.094 97.7632 L104.094 101.698 L82.1494 101.698 L82.1494 97.7632 Q84.8114 95.0086 89.3947 90.379 Q94.0012 85.7262 95.1817 84.3836 Q97.4271 81.8605 98.3067 80.1244 Q99.2095 78.3651 99.2095 76.6753 Q99.2095 73.9207 97.265 72.1846 Q95.3437 70.4485 92.2419 70.4485 Q90.0428 70.4485 87.5892 71.2124 Q85.1586 71.9763 82.3808 73.5272 L82.3808 68.805 Q85.2049 67.6708 87.6586 67.0921 Q90.1123 66.5134 92.1493 66.5134 Q97.5197 66.5134 100.714 69.1985 Q103.909 71.8837 103.909 76.3744 Q103.909 78.504 103.098 80.4253 Q102.311 82.3235 100.205 84.916 Q99.6261 85.5873 96.5243 88.8049 Q93.4225 91.9993 87.7743 97.7632 Z" fill="#000000" fill-rule="nonzero" fill-opacity="1" /><path clip-path="url(#clip620)" d="M113.955 67.1384 L132.311 67.1384 L132.311 71.0735 L118.237 71.0735 L118.237 79.5457 Q119.256 79.1985 120.274 79.0364 Q121.293 78.8513 122.311 78.8513 Q128.098 78.8513 131.478 82.0225 Q134.857 85.1938 134.857 90.6105 Q134.857 96.1891 131.385 99.291 Q127.913 102.37 121.594 102.37 Q119.418 102.37 117.149 101.999 Q114.904 101.629 112.496 100.888 L112.496 96.1891 Q114.58 97.3234 116.802 97.8789 Q119.024 98.4345 121.501 98.4345 Q125.506 98.4345 127.844 96.328 Q130.182 94.2215 130.182 90.6105 Q130.182 86.9994 127.844 84.8929 Q125.506 82.7864 121.501 82.7864 Q119.626 82.7864 117.751 83.2031 Q115.899 83.6198 113.955 84.4994 L113.955 67.1384 Z" fill="#000000" fill-rule="nonzero" fill-opacity="1" /><polyline clip-path="url(#clip622)" style="stroke:#009af9; stroke-linecap:round; stroke-linejoin:round; stroke-width:4; stroke-opacity:1; fill:none" points="232.609,87.9763 233.638,950.292 234.668,1185.7 235.697,1282.56 236.726,1328.73 237.755,1353.34 238.784,1367.71 239.814,1376.82 240.843,1383.01 241.872,1386.59 242.901,1389.59 243.93,1392.21 244.96,1394.56 245.989,1396.72 247.018,1398.73 248.047,1400.62 249.076,1402.41 250.106,1404.11 251.135,1405.72 252.164,1407.25 253.193,1408.7 254.222,1410.08 255.252,1411.38 256.281,1412.61 257.31,1413.78 258.339,1414.88 259.368,1415.92 260.398,1416.9 261.427,1417.83 262.456,1418.7 263.485,1419.53 264.514,1420.28 265.544,1420.98 266.573,1421.61 267.602,1421.86 268.631,1422.08 269.66,1422.3 270.69,1422.5 271.719,1422.7 272.748,1422.89 273.777,1423.07 274.806,1423.25 275.836,1423.43 276.865,1423.6 277.894,1423.77 278.923,1423.93 279.952,1424.09 280.982,1424.25 282.011,1424.4 283.04,1424.55 284.069,1424.7 285.098,1424.85 286.128,1424.99 287.157,1425.13 288.186,1425.27 289.215,1425.4 290.244,1425.54 291.274,1425.67 292.303,1425.8 293.332,1425.92 294.361,1426.05 295.39,1426.17 296.42,1426.29 297.449,1426.41 298.478,1426.53 299.507,1426.65 300.536,1426.76 301.565,1426.87 302.595,1426.98 303.624,1427.09 304.653,1427.2 305.682,1427.31 306.711,1427.41 307.741,1427.52 308.77,1427.62 309.799,1427.72 310.828,1427.83 311.857,1427.92 312.887,1428.02 313.916,1428.12 314.945,1428.22 315.974,1428.31 317.003,1428.41 318.033,1428.5 319.062,1428.59 320.091,1428.68 321.12,1428.78 322.149,1428.87 323.179,1428.95 324.208,1429.04 325.237,1429.13 326.266,1429.22 327.295,1429.3 328.325,1429.39 329.354,1429.47 330.383,1429.56 331.412,1429.64 332.441,1429.72 333.471,1429.8 334.5,1429.88 335.529,1429.97 336.558,1430.05 337.587,1430.12 338.617,1430.2 339.646,1430.28 340.675,1430.36 341.704,1430.44 342.733,1430.52 343.763,1430.59 344.792,1430.67 345.821,1430.74 346.85,1430.82 347.879,1430.89 348.909,1430.97 349.938,1431.04 350.967,1431.12 351.996,1431.19 353.025,1431.26 354.055,1431.34 355.084,1431.41 356.113,1431.48 357.142,1431.55 358.171,1431.62 359.201,1431.7 360.23,1431.77 361.259,1431.84 362.288,1431.91 363.317,1431.98 364.347,1432.05 365.376,1432.12 366.405,1432.19 367.434,1432.26 368.463,1432.33 369.493,1432.4 370.522,1432.47 371.551,1432.54 372.58,1432.61 373.609,1432.68 374.639,1432.75 375.668,1432.81 376.697,1432.88 377.726,1432.95 378.755,1433.02 379.784,1433.09 380.814,1433.16 381.843,1433.23 382.872,1433.29 383.901,1433.36 384.93,1433.43 385.96,1433.5 386.989,1433.57 388.018,1433.63 389.047,1433.7 390.076,1433.77 391.106,1433.84 392.135,1433.91 393.164,1433.97 394.193,1434.04 395.222,1434.11 396.252,1434.18 397.281,1434.25 398.31,1434.31 399.339,1434.38 400.368,1434.45 401.398,1434.52 402.427,1434.59 403.456,1434.65 404.485,1434.72 405.514,1434.79 406.544,1434.86 407.573,1434.93 408.602,1435 409.631,1435.06 410.66,1435.13 411.69,1435.2 412.719,1435.27 413.748,1435.34 414.777,1435.41 415.806,1435.48 416.836,1435.55 417.865,1435.61 418.894,1435.68 419.923,1435.75 420.952,1435.82 421.982,1435.89 423.011,1435.96 424.04,1436.03 425.069,1436.1 426.098,1436.17 427.128,1436.24 428.157,1436.31 429.186,1436.37 430.215,1436.44 431.244,1436.51 432.274,1436.58 433.303,1436.65 434.332,1436.72 435.361,1436.79 436.39,1436.86 437.42,1436.93 438.449,1437 439.478,1437.07 440.507,1437.14 441.536,1437.21 442.566,1437.28 443.595,1437.35 444.624,1437.42 445.653,1437.49 446.682,1437.56 447.712,1437.63 448.741,1437.69 449.77,1437.75 450.799,1437.81 451.828,1437.88 452.858,1437.94 453.887,1438 454.916,1438.06 455.945,1438.13 456.974,1438.19 458.003,1438.25 459.033,1438.31 460.062,1438.38 461.091,1438.44 462.12,1438.5 463.149,1438.56 464.179,1438.63 465.208,1438.69 466.237,1438.75 467.266,1438.81 468.295,1438.87 469.325,1438.93 470.354,1439 471.383,1439.06 472.412,1439.12 473.441,1439.18 474.471,1439.24 475.5,1439.3 476.529,1439.36 477.558,1439.42 478.587,1439.48 479.617,1439.53 480.646,1439.59 481.675,1439.64 482.704,1439.69 483.733,1439.74 484.763,1439.79 485.792,1439.84 486.821,1439.89 487.85,1439.94 488.879,1439.98 489.909,1440.03 490.938,1440.08 491.967,1440.12 492.996,1440.17 494.025,1440.21 495.055,1440.26 496.084,1440.3 497.113,1440.34 498.142,1440.39 499.171,1440.43 500.201,1440.47 501.23,1440.51 502.259,1440.55 503.288,1440.59 504.317,1440.63 505.347,1440.67 506.376,1440.71 507.405,1440.75 508.434,1440.79 509.463,1440.83 510.493,1440.87 511.522,1440.91 512.551,1440.95 513.58,1440.98 514.609,1441.02 515.639,1441.06 516.668,1441.09 517.697,1441.13 518.726,1441.16 519.755,1441.2 520.785,1441.24 521.814,1441.27 522.843,1441.3 523.872,1441.34 524.901,1441.37 525.931,1441.41 526.96,1441.44 527.989,1441.47 529.018,1441.51 530.047,1441.54 531.077,1441.57 532.106,1441.6 533.135,1441.64 534.164,1441.67 535.193,1441.7 536.222,1441.73 537.252,1441.76 538.281,1441.79 539.31,1441.82 540.339,1441.85 541.368,1441.88 542.398,1441.91 543.427,1441.94 544.456,1441.97 545.485,1442 546.514,1442.03 547.544,1442.06 548.573,1442.09 549.602,1442.12 550.631,1442.15 551.66,1442.17 552.69,1442.2 553.719,1442.23 554.748,1442.26 555.777,1442.28 556.806,1442.31 557.836,1442.34 558.865,1442.36 559.894,1442.39 560.923,1442.42 561.952,1442.44 562.982,1442.47 564.011,1442.49 565.04,1442.52 566.069,1442.54 567.098,1442.57 568.128,1442.59 569.157,1442.62 570.186,1442.64 571.215,1442.67 572.244,1442.69 573.274,1442.71 574.303,1442.74 575.332,1442.76 576.361,1442.78 577.39,1442.81 578.42,1442.83 579.449,1442.85 580.478,1442.87 581.507,1442.9 582.536,1442.92 583.566,1442.94 584.595,1442.96 585.624,1442.98 586.653,1443 587.682,1443.03 588.712,1443.05 589.741,1443.07 590.77,1443.09 591.799,1443.11 592.828,1443.13 593.858,1443.15 594.887,1443.17 595.916,1443.19 596.945,1443.21 597.974,1443.23 599.004,1443.25 600.033,1443.27 601.062,1443.29 602.091,1443.3 603.12,1443.32 604.15,1443.34 605.179,1443.36 606.208,1443.38 607.237,1443.4 608.266,1443.41 609.296,1443.43 610.325,1443.45 611.354,1443.47 612.383,1443.48 613.412,1443.5 614.441,1443.52 615.471,1443.54 616.5,1443.55 617.529,1443.57 618.558,1443.59 619.587,1443.6 620.617,1443.62 621.646,1443.63 622.675,1443.65 623.704,1443.67 624.733,1443.68 625.763,1443.69 626.792,1443.71 627.821,1443.72 628.85,1443.74 629.879,1443.75 630.909,1443.76 631.938,1443.78 632.967,1443.79 633.996,1443.8 635.025,1443.82 636.055,1443.83 637.084,1443.84 638.113,1443.85 639.142,1443.87 640.171,1443.88 641.201,1443.89 642.23,1443.9 643.259,1443.92 644.288,1443.93 645.317,1443.94 646.347,1443.95 647.376,1443.96 648.405,1443.98 649.434,1443.99 650.463,1444 651.493,1444.01 652.522,1444.02 653.551,1444.03 654.58,1444.04 655.609,1444.05 656.639,1444.06 657.668,1444.08 658.697,1444.09 659.726,1444.1 660.755,1444.11 661.785,1444.12 662.814,1444.13 663.843,1444.14 664.872,1444.15 665.901,1444.16 666.931,1444.17 667.96,1444.18 668.989,1444.19 670.018,1444.2 671.047,1444.21 672.077,1444.22 673.106,1444.23 674.135,1444.24 675.164,1444.24 676.193,1444.25 677.223,1444.26 678.252,1444.27 679.281,1444.28 680.31,1444.29 681.339,1444.3 682.369,1444.31 683.398,1444.32 684.427,1444.32 685.456,1444.33 686.485,1444.34 687.515,1444.35 688.544,1444.36 689.573,1444.37 690.602,1444.37 691.631,1444.38 692.66,1444.39 693.69,1444.4 694.719,1444.41 695.748,1444.41 696.777,1444.42 697.806,1444.43 698.836,1444.44 699.865,1444.44 700.894,1444.45 701.923,1444.46 702.952,1444.47 703.982,1444.47 705.011,1444.48 706.04,1444.49 707.069,1444.5 708.098,1444.5 709.128,1444.51 710.157,1444.52 711.186,1444.52 712.215,1444.53 713.244,1444.54 714.274,1444.54 715.303,1444.55 716.332,1444.56 717.361,1444.56 718.39,1444.57 719.42,1444.58 720.449,1444.58 721.478,1444.59 722.507,1444.59 723.536,1444.6 724.566,1444.61 725.595,1444.61 726.624,1444.62 727.653,1444.63 728.682,1444.63 729.712,1444.64 730.741,1444.64 731.77,1444.65 732.799,1444.65 733.828,1444.66 734.858,1444.67 735.887,1444.67 736.916,1444.68 737.945,1444.68 738.974,1444.69 740.004,1444.69 741.033,1444.7 742.062,1444.7 743.091,1444.71 744.12,1444.72 745.15,1444.72 746.179,1444.73 747.208,1444.73 748.237,1444.74 749.266,1444.74 750.296,1444.75 751.325,1444.75 752.354,1444.76 753.383,1444.76 754.412,1444.77 755.442,1444.77 756.471,1444.78 757.5,1444.78 758.529,1444.79 759.558,1444.79 760.588,1444.79 761.617,1444.8 762.646,1444.8 763.675,1444.81 764.704,1444.81 765.734,1444.82 766.763,1444.82 767.792,1444.83 768.821,1444.83 769.85,1444.84 770.88,1444.84 771.909,1444.84 772.938,1444.85 773.967,1444.85 774.996,1444.86 776.025,1444.86 777.055,1444.87 778.084,1444.87 779.113,1444.87 780.142,1444.88 781.171,1444.88 782.201,1444.89 783.23,1444.89 784.259,1444.89 785.288,1444.9 786.317,1444.9 787.347,1444.91 788.376,1444.91 789.405,1444.91 790.434,1444.92 791.463,1444.92 792.493,1444.92 793.522,1444.93 794.551,1444.93 795.58,1444.94 796.609,1444.94 797.639,1444.94 798.668,1444.95 799.697,1444.95 800.726,1444.95 801.755,1444.96 802.785,1444.96 803.814,1444.96 804.843,1444.97 805.872,1444.97 806.901,1444.97 807.931,1444.98 808.96,1444.98 809.989,1444.98 811.018,1444.99 812.047,1444.99 813.077,1444.99 814.106,1445 815.135,1445 816.164,1445 817.193,1445.01 818.223,1445.01 819.252,1445.01 820.281,1445.02 821.31,1445.02 822.339,1445.02 823.369,1445.03 824.398,1445.03 825.427,1445.03 826.456,1445.03 827.485,1445.04 828.515,1445.04 829.544,1445.04 830.573,1445.05 831.602,1445.05 832.631,1445.05 833.661,1445.05 834.69,1445.06 835.719,1445.06 836.748,1445.06 837.777,1445.07 838.807,1445.07 839.836,1445.07 840.865,1445.07 841.894,1445.08 842.923,1445.08 843.953,1445.08 844.982,1445.09 846.011,1445.09 847.04,1445.09 848.069,1445.09 849.099,1445.1 850.128,1445.1 851.157,1445.1 852.186,1445.1 853.215,1445.11 854.244,1445.11 855.274,1445.11 856.303,1445.11 857.332,1445.12 858.361,1445.12 859.39,1445.12 860.42,1445.12 861.449,1445.13 862.478,1445.13 863.507,1445.13 864.536,1445.13 865.566,1445.14 866.595,1445.14 867.624,1445.14 868.653,1445.14 869.682,1445.15 870.712,1445.15 871.741,1445.15 872.77,1445.15 873.799,1445.15 874.828,1445.16 875.858,1445.16 876.887,1445.16 877.916,1445.16 878.945,1445.17 879.974,1445.17 881.004,1445.17 882.033,1445.17 883.062,1445.17 884.091,1445.18 885.12,1445.18 886.15,1445.18 887.179,1445.18 888.208,1445.18 889.237,1445.19 890.266,1445.19 891.296,1445.19 892.325,1445.19 893.354,1445.2 894.383,1445.2 895.412,1445.2 896.442,1445.2 897.471,1445.2 898.5,1445.21 899.529,1445.21 900.558,1445.21 901.588,1445.21 902.617,1445.21 903.646,1445.22 904.675,1445.22 905.704,1445.22 906.734,1445.22 907.763,1445.22 908.792,1445.23 909.821,1445.23 910.85,1445.23 911.88,1445.23 912.909,1445.23 913.938,1445.23 914.967,1445.24 915.996,1445.24 917.026,1445.24 918.055,1445.24 919.084,1445.24 920.113,1445.25 921.142,1445.25 922.172,1445.25 923.201,1445.25 924.23,1445.25 925.259,1445.25 926.288,1445.26 927.318,1445.26 928.347,1445.26 929.376,1445.26 930.405,1445.26 931.434,1445.26 932.463,1445.27 933.493,1445.27 934.522,1445.27 935.551,1445.27 936.58,1445.27 937.609,1445.27 938.639,1445.28 939.668,1445.28 940.697,1445.28 941.726,1445.28 942.755,1445.28 943.785,1445.28 944.814,1445.29 945.843,1445.29 946.872,1445.29 947.901,1445.29 948.931,1445.29 949.96,1445.29 950.989,1445.3 952.018,1445.3 953.047,1445.3 954.077,1445.3 955.106,1445.3 956.135,1445.3 957.164,1445.31 958.193,1445.31 959.223,1445.31 960.252,1445.31 961.281,1445.31 962.31,1445.31 963.339,1445.31 964.369,1445.32 965.398,1445.32 966.427,1445.32 967.456,1445.32 968.485,1445.32 969.515,1445.32 970.544,1445.32 971.573,1445.33 972.602,1445.33 973.631,1445.33 974.661,1445.33 975.69,1445.33 976.719,1445.33 977.748,1445.34 978.777,1445.34 979.807,1445.34 980.836,1445.34 981.865,1445.34 982.894,1445.34 983.923,1445.34 984.953,1445.34 985.982,1445.35 987.011,1445.35 988.04,1445.35 989.069,1445.35 990.099,1445.35 991.128,1445.35 992.157,1445.35 993.186,1445.36 994.215,1445.36 995.245,1445.36 996.274,1445.36 997.303,1445.36 998.332,1445.36 999.361,1445.36 1000.39,1445.37 1001.42,1445.37 1002.45,1445.37 1003.48,1445.37 1004.51,1445.37 1005.54,1445.37 1006.57,1445.37 1007.59,1445.37 1008.62,1445.38 1009.65,1445.38 1010.68,1445.38 1011.71,1445.38 1012.74,1445.38 1013.77,1445.38 1014.8,1445.38 1015.83,1445.38 1016.86,1445.39 1017.89,1445.39 1018.92,1445.39 1019.95,1445.39 1020.97,1445.39 1022,1445.39 1023.03,1445.39 1024.06,1445.39 1025.09,1445.39 1026.12,1445.39 1027.15,1445.4 1028.18,1445.4 1029.21,1445.4 1030.24,1445.4 1031.27,1445.4 1032.3,1445.4 1033.32,1445.4 1034.35,1445.4 1035.38,1445.4 1036.41,1445.4 1037.44,1445.41 1038.47,1445.41 1039.5,1445.41 1040.53,1445.41 1041.56,1445.41 1042.59,1445.41 1043.62,1445.41 1044.65,1445.41 1045.68,1445.41 1046.7,1445.41 1047.73,1445.42 1048.76,1445.42 1049.79,1445.42 1050.82,1445.42 1051.85,1445.42 1052.88,1445.42 1053.91,1445.42 1054.94,1445.42 1055.97,1445.42 1057,1445.42 1058.03,1445.43 1059.05,1445.43 1060.08,1445.43 1061.11,1445.43 1062.14,1445.43 1063.17,1445.43 1064.2,1445.43 1065.23,1445.43 1066.26,1445.43 1067.29,1445.43 1068.32,1445.44 1069.35,1445.44 1070.38,1445.44 1071.41,1445.44 1072.43,1445.44 1073.46,1445.44 1074.49,1445.44 1075.52,1445.44 1076.55,1445.44 1077.58,1445.44 1078.61,1445.44 1079.64,1445.45 1080.67,1445.45 1081.7,1445.45 1082.73,1445.45 1083.76,1445.45 1084.78,1445.45 1085.81,1445.45 1086.84,1445.45 1087.87,1445.45 1088.9,1445.45 1089.93,1445.46 1090.96,1445.46 1091.99,1445.46 1093.02,1445.46 1094.05,1445.46 1095.08,1445.46 1096.11,1445.46 1097.14,1445.46 1098.16,1445.46 1099.19,1445.46 1100.22,1445.46 1101.25,1445.46 1102.28,1445.46 1103.31,1445.46 1104.34,1445.46 1105.37,1445.46 1106.4,1445.47 1107.43,1445.47 1108.46,1445.47 1109.49,1445.47 1110.51,1445.47 1111.54,1445.47 1112.57,1445.47 1113.6,1445.47 1114.63,1445.47 1115.66,1445.47 1116.69,1445.47 1117.72,1445.47 1118.75,1445.47 1119.78,1445.47 1120.81,1445.47 1121.84,1445.47 1122.87,1445.47 1123.89,1445.47 1124.92,1445.47 1125.95,1445.47 1126.98,1445.47 1128.01,1445.48 1129.04,1445.48 1130.07,1445.48 1131.1,1445.48 1132.13,1445.48 1133.16,1445.48 1134.19,1445.48 1135.22,1445.48 1136.24,1445.48 1137.27,1445.48 1138.3,1445.48 1139.33,1445.48 1140.36,1445.48 1141.39,1445.48 1142.42,1445.48 1143.45,1445.48 1144.48,1445.48 1145.51,1445.48 1146.54,1445.48 1147.57,1445.48 1148.59,1445.48 1149.62,1445.49 1150.65,1445.49 1151.68,1445.49 1152.71,1445.49 1153.74,1445.49 1154.77,1445.49 1155.8,1445.49 1156.83,1445.49 1157.86,1445.49 1158.89,1445.49 1159.92,1445.49 1160.95,1445.49 1161.97,1445.49 1163,1445.49 1164.03,1445.49 1165.06,1445.49 1166.09,1445.49 1167.12,1445.49 1168.15,1445.49 1169.18,1445.49 1170.21,1445.49 1171.24,1445.49 1172.27,1445.49 1173.3,1445.49 1174.32,1445.49 1175.35,1445.5 1176.38,1445.5 1177.41,1445.5 1178.44,1445.5 1179.47,1445.5 1180.5,1445.5 1181.53,1445.5 1182.56,1445.5 1183.59,1445.5 1184.62,1445.5 1185.65,1445.5 1186.68,1445.5 1187.7,1445.5 1188.73,1445.5 1189.76,1445.5 1190.79,1445.5 1191.82,1445.5 1192.85,1445.5 1193.88,1445.5 1194.91,1445.5 1195.94,1445.5 1196.97,1445.5 1198,1445.5 1199.03,1445.5 1200.05,1445.5 1201.08,1445.5 1202.11,1445.51 1203.14,1445.51 1204.17,1445.51 1205.2,1445.51 1206.23,1445.51 1207.26,1445.51 1208.29,1445.51 1209.32,1445.51 1210.35,1445.51 1211.38,1445.51 1212.41,1445.51 1213.43,1445.51 1214.46,1445.51 1215.49,1445.51 1216.52,1445.51 1217.55,1445.51 1218.58,1445.51 1219.61,1445.51 1220.64,1445.51 1221.67,1445.51 1222.7,1445.51 1223.73,1445.51 1224.76,1445.51 1225.78,1445.51 1226.81,1445.51 1227.84,1445.51 1228.87,1445.51 1229.9,1445.51 1230.93,1445.52 1231.96,1445.52 1232.99,1445.52 1234.02,1445.52 1235.05,1445.52 1236.08,1445.52 1237.11,1445.52 1238.14,1445.52 1239.16,1445.52 1240.19,1445.52 1241.22,1445.52 1242.25,1445.52 1243.28,1445.52 1244.31,1445.52 1245.34,1445.52 1246.37,1445.52 1247.4,1445.52 1248.43,1445.52 1249.46,1445.52 1250.49,1445.52 1251.51,1445.52 1252.54,1445.52 1253.57,1445.52 1254.6,1445.52 1255.63,1445.52 1256.66,1445.52 1257.69,1445.52 1258.72,1445.52 1259.75,1445.53 1260.78,1445.53 1261.81,1445.53 1262.84,1445.53 1263.87,1445.53 1264.89,1445.53 1265.92,1445.53 1266.95,1445.53 1267.98,1445.53 1269.01,1445.53 1270.04,1445.53 1271.07,1445.53 1272.1,1445.53 1273.13,1445.53 1274.16,1445.53 1275.19,1445.53 1276.22,1445.53 1277.24,1445.53 1278.27,1445.53 1279.3,1445.53 1280.33,1445.53 1281.36,1445.53 1282.39,1445.53 1283.42,1445.53 1284.45,1445.53 1285.48,1445.53 1286.51,1445.53 1287.54,1445.53 1288.57,1445.54 1289.59,1445.54 1290.62,1445.54 1291.65,1445.54 1292.68,1445.54 1293.71,1445.54 1294.74,1445.54 1295.77,1445.54 1296.8,1445.54 1297.83,1445.54 1298.86,1445.54 1299.89,1445.54 1300.92,1445.54 1301.95,1445.54 1302.97,1445.54 1304,1445.54 1305.03,1445.54 1306.06,1445.54 1307.09,1445.54 1308.12,1445.54 1309.15,1445.54 1310.18,1445.54 1311.21,1445.54 1312.24,1445.54 1313.27,1445.54 1314.3,1445.54 1315.32,1445.54 1316.35,1445.54 1317.38,1445.54 1318.41,1445.55 1319.44,1445.55 1320.47,1445.55 1321.5,1445.55 1322.53,1445.55 1323.56,1445.55 1324.59,1445.55 1325.62,1445.55 1326.65,1445.55 1327.68,1445.55 1328.7,1445.55 1329.73,1445.55 1330.76,1445.55 1331.79,1445.55 1332.82,1445.55 1333.85,1445.55 1334.88,1445.55 1335.91,1445.55 1336.94,1445.55 1337.97,1445.55 1339,1445.55 1340.03,1445.55 1341.05,1445.55 1342.08,1445.55 1343.11,1445.55 1344.14,1445.55 1345.17,1445.55 1346.2,1445.55 1347.23,1445.55 1348.26,1445.55 1349.29,1445.56 1350.32,1445.56 1351.35,1445.56 1352.38,1445.56 1353.41,1445.56 1354.43,1445.56 1355.46,1445.56 1356.49,1445.56 1357.52,1445.56 1358.55,1445.56 1359.58,1445.56 1360.61,1445.56 1361.64,1445.56 1362.67,1445.56 1363.7,1445.56 1364.73,1445.56 1365.76,1445.56 1366.78,1445.56 1367.81,1445.56 1368.84,1445.56 1369.87,1445.56 1370.9,1445.56 1371.93,1445.56 1372.96,1445.56 1373.99,1445.56 1375.02,1445.56 1376.05,1445.56 1377.08,1445.56 1378.11,1445.56 1379.14,1445.56 1380.16,1445.57 1381.19,1445.57 1382.22,1445.57 1383.25,1445.57 1384.28,1445.57 1385.31,1445.57 1386.34,1445.57 1387.37,1445.57 1388.4,1445.57 1389.43,1445.57 1390.46,1445.57 1391.49,1445.57 1392.51,1445.57 1393.54,1445.57 1394.57,1445.57 1395.6,1445.57 1396.63,1445.57 1397.66,1445.57 1398.69,1445.57 1399.72,1445.57 1400.75,1445.57 1401.78,1445.57 1402.81,1445.57 1403.84,1445.57 1404.87,1445.57 1405.89,1445.57 1406.92,1445.57 1407.95,1445.57 1408.98,1445.57 1410.01,1445.57 1411.04,1445.57 1412.07,1445.58 1413.1,1445.58 1414.13,1445.58 1415.16,1445.58 1416.19,1445.58 1417.22,1445.58 1418.24,1445.58 1419.27,1445.58 1420.3,1445.58 1421.33,1445.58 1422.36,1445.58 1423.39,1445.58 1424.42,1445.58 1425.45,1445.58 1426.48,1445.58 1427.51,1445.58 1428.54,1445.58 1429.57,1445.58 1430.6,1445.58 1431.62,1445.58 1432.65,1445.58 1433.68,1445.58 1434.71,1445.58 1435.74,1445.58 1436.77,1445.58 1437.8,1445.58 1438.83,1445.58 1439.86,1445.58 1440.89,1445.58 1441.92,1445.58 1442.95,1445.58 1443.97,1445.58 1445,1445.59 1446.03,1445.59 1447.06,1445.59 1448.09,1445.59 1449.12,1445.59 1450.15,1445.59 1451.18,1445.59 1452.21,1445.59 1453.24,1445.59 1454.27,1445.59 1455.3,1445.59 1456.32,1445.59 1457.35,1445.59 1458.38,1445.59 1459.41,1445.59 1460.44,1445.59 1461.47,1445.59 1462.5,1445.59 1463.53,1445.59 1464.56,1445.59 1465.59,1445.59 1466.62,1445.59 1467.65,1445.59 1468.68,1445.59 1469.7,1445.59 1470.73,1445.59 1471.76,1445.59 1472.79,1445.59 1473.82,1445.59 1474.85,1445.59 1475.88,1445.59 1476.91,1445.59 1477.94,1445.6 1478.97,1445.6 1480,1445.6 1481.03,1445.6 1482.05,1445.6 1483.08,1445.6 1484.11,1445.6 1485.14,1445.6 1486.17,1445.6 1487.2,1445.6 1488.23,1445.6 1489.26,1445.6 1490.29,1445.6 1491.32,1445.6 1492.35,1445.6 1493.38,1445.6 1494.41,1445.6 1495.43,1445.6 1496.46,1445.6 1497.49,1445.6 1498.52,1445.6 1499.55,1445.6 1500.58,1445.6 1501.61,1445.6 1502.64,1445.6 1503.67,1445.6 1504.7,1445.6 1505.73,1445.6 1506.76,1445.6 1507.78,1445.6 1508.81,1445.6 1509.84,1445.6 1510.87,1445.6 1511.9,1445.6 1512.93,1445.6 1513.96,1445.6 1514.99,1445.6 1516.02,1445.6 1517.05,1445.61 1518.08,1445.61 1519.11,1445.61 1520.14,1445.61 1521.16,1445.61 1522.19,1445.61 1523.22,1445.61 1524.25,1445.61 1525.28,1445.61 1526.31,1445.61 1527.34,1445.61 1528.37,1445.61 1529.4,1445.61 1530.43,1445.61 1531.46,1445.61 1532.49,1445.61 1533.51,1445.61 1534.54,1445.61 1535.57,1445.61 1536.6,1445.61 1537.63,1445.61 1538.66,1445.61 1539.69,1445.61 1540.72,1445.61 1541.75,1445.61 1542.78,1445.61 1543.81,1445.61 1544.84,1445.61 1545.87,1445.61 1546.89,1445.61 1547.92,1445.61 1548.95,1445.61 1549.98,1445.61 1551.01,1445.61 1552.04,1445.61 1553.07,1445.61 1554.1,1445.61 1555.13,1445.61 1556.16,1445.61 1557.19,1445.61 1558.22,1445.61 1559.24,1445.61 1560.27,1445.61 1561.3,1445.61 1562.33,1445.61 1563.36,1445.61 1564.39,1445.61 1565.42,1445.61 1566.45,1445.61 1567.48,1445.61 1568.51,1445.61 1569.54,1445.61 1570.57,1445.61 1571.6,1445.61 1572.62,1445.61 1573.65,1445.61 1574.68,1445.61 1575.71,1445.61 1576.74,1445.61 1577.77,1445.62 1578.8,1445.62 1579.83,1445.62 1580.86,1445.62 1581.89,1445.62 1582.92,1445.62 1583.95,1445.62 1584.97,1445.62 1586,1445.62 1587.03,1445.62 1588.06,1445.62 1589.09,1445.62 1590.12,1445.62 1591.15,1445.62 1592.18,1445.62 1593.21,1445.62 1594.24,1445.62 1595.27,1445.62 1596.3,1445.62 1597.33,1445.62 1598.35,1445.62 1599.38,1445.62 1600.41,1445.62 1601.44,1445.62 1602.47,1445.62 1603.5,1445.62 1604.53,1445.62 1605.56,1445.62 1606.59,1445.62 1607.62,1445.62 1608.65,1445.62 1609.68,1445.62 1610.7,1445.62 1611.73,1445.62 1612.76,1445.62 1613.79,1445.62 1614.82,1445.62 1615.85,1445.62 1616.88,1445.62 1617.91,1445.62 1618.94,1445.62 1619.97,1445.62 1621,1445.62 1622.03,1445.62 1623.05,1445.62 1624.08,1445.62 1625.11,1445.62 1626.14,1445.62 1627.17,1445.62 1628.2,1445.62 1629.23,1445.62 1630.26,1445.62 1631.29,1445.62 1632.32,1445.62 1633.35,1445.62 1634.38,1445.62 1635.41,1445.62 1636.43,1445.62 1637.46,1445.62 1638.49,1445.62 1639.52,1445.63 1640.55,1445.63 1641.58,1445.63 1642.61,1445.63 1643.64,1445.63 1644.67,1445.63 1645.7,1445.63 1646.73,1445.63 1647.76,1445.63 1648.78,1445.63 1649.81,1445.63 1650.84,1445.63 1651.87,1445.63 1652.9,1445.63 1653.93,1445.63 1654.96,1445.63 1655.99,1445.63 1657.02,1445.63 1658.05,1445.63 1659.08,1445.63 1660.11,1445.63 1661.14,1445.63 1662.16,1445.63 1663.19,1445.63 1664.22,1445.63 1665.25,1445.63 1666.28,1445.63 1667.31,1445.63 1668.34,1445.63 1669.37,1445.63 1670.4,1445.63 1671.43,1445.63 1672.46,1445.63 1673.49,1445.63 1674.51,1445.63 1675.54,1445.63 1676.57,1445.63 1677.6,1445.63 1678.63,1445.63 1679.66,1445.63 1680.69,1445.63 1681.72,1445.63 1682.75,1445.63 1683.78,1445.63 1684.81,1445.63 1685.84,1445.63 1686.87,1445.63 1687.89,1445.63 1688.92,1445.63 1689.95,1445.63 1690.98,1445.63 1692.01,1445.63 1693.04,1445.63 1694.07,1445.63 1695.1,1445.63 1696.13,1445.63 1697.16,1445.63 1698.19,1445.63 1699.22,1445.63 1700.24,1445.63 1701.27,1445.63 1702.3,1445.63 1703.33,1445.64 1704.36,1445.64 1705.39,1445.64 1706.42,1445.64 1707.45,1445.64 1708.48,1445.64 1709.51,1445.64 1710.54,1445.64 1711.57,1445.64 1712.6,1445.64 1713.62,1445.64 1714.65,1445.64 1715.68,1445.64 1716.71,1445.64 1717.74,1445.64 1718.77,1445.64 1719.8,1445.64 1720.83,1445.64 1721.86,1445.64 1722.89,1445.64 1723.92,1445.64 1724.95,1445.64 1725.97,1445.64 1727,1445.64 1728.03,1445.64 1729.06,1445.64 1730.09,1445.64 1731.12,1445.64 1732.15,1445.64 1733.18,1445.64 1734.21,1445.64 1735.24,1445.64 1736.27,1445.64 1737.3,1445.64 1738.33,1445.64 1739.35,1445.64 1740.38,1445.64 1741.41,1445.64 1742.44,1445.64 1743.47,1445.64 1744.5,1445.64 1745.53,1445.64 1746.56,1445.64 1747.59,1445.64 1748.62,1445.64 1749.65,1445.64 1750.68,1445.64 1751.7,1445.64 1752.73,1445.64 1753.76,1445.64 1754.79,1445.64 1755.82,1445.64 1756.85,1445.64 1757.88,1445.64 1758.91,1445.64 1759.94,1445.64 1760.97,1445.64 1762,1445.64 1763.03,1445.64 1764.05,1445.64 1765.08,1445.64 1766.11,1445.64 1767.14,1445.64 1768.17,1445.64 1769.2,1445.65 1770.23,1445.65 1771.26,1445.65 1772.29,1445.65 1773.32,1445.65 1774.35,1445.65 1775.38,1445.65 1776.41,1445.65 1777.43,1445.65 1778.46,1445.65 1779.49,1445.65 1780.52,1445.65 1781.55,1445.65 1782.58,1445.65 1783.61,1445.65 1784.64,1445.65 1785.67,1445.65 1786.7,1445.65 1787.73,1445.65 1788.76,1445.65 1789.78,1445.65 1790.81,1445.65 1791.84,1445.65 1792.87,1445.65 1793.9,1445.65 1794.93,1445.65 1795.96,1445.65 1796.99,1445.65 1798.02,1445.65 1799.05,1445.65 1800.08,1445.65 1801.11,1445.65 1802.14,1445.65 1803.16,1445.65 1804.19,1445.65 1805.22,1445.65 1806.25,1445.65 1807.28,1445.65 1808.31,1445.65 1809.34,1445.65 1810.37,1445.65 1811.4,1445.65 1812.43,1445.65 1813.46,1445.65 1814.49,1445.65 1815.51,1445.65 1816.54,1445.65 1817.57,1445.65 1818.6,1445.65 1819.63,1445.65 1820.66,1445.65 1821.69,1445.65 1822.72,1445.65 1823.75,1445.65 1824.78,1445.65 1825.81,1445.65 1826.84,1445.65 1827.87,1445.65 1828.89,1445.65 1829.92,1445.65 1830.95,1445.65 1831.98,1445.65 1833.01,1445.65 1834.04,1445.65 1835.07,1445.65 1836.1,1445.66 1837.13,1445.66 1838.16,1445.66 1839.19,1445.66 1840.22,1445.66 1841.24,1445.66 1842.27,1445.66 1843.3,1445.66 1844.33,1445.66 1845.36,1445.66 1846.39,1445.66 1847.42,1445.66 1848.45,1445.66 1849.48,1445.66 1850.51,1445.66 1851.54,1445.66 1852.57,1445.66 1853.6,1445.66 1854.62,1445.66 1855.65,1445.66 1856.68,1445.66 1857.71,1445.66 1858.74,1445.66 1859.77,1445.66 1860.8,1445.66 1861.83,1445.66 1862.86,1445.66 1863.89,1445.66 1864.92,1445.66 1865.95,1445.66 1866.97,1445.66 1868,1445.66 1869.03,1445.66 1870.06,1445.66 1871.09,1445.66 1872.12,1445.66 1873.15,1445.66 1874.18,1445.66 1875.21,1445.66 1876.24,1445.66 1877.27,1445.66 1878.3,1445.66 1879.33,1445.66 1880.35,1445.66 1881.38,1445.66 1882.41,1445.66 1883.44,1445.66 1884.47,1445.66 1885.5,1445.66 1886.53,1445.66 1887.56,1445.66 1888.59,1445.66 1889.62,1445.66 1890.65,1445.66 1891.68,1445.66 1892.7,1445.66 1893.73,1445.66 1894.76,1445.66 1895.79,1445.66 1896.82,1445.66 1897.85,1445.66 1898.88,1445.66 1899.91,1445.66 1900.94,1445.66 1901.97,1445.66 1903,1445.66 1904.03,1445.66 1905.06,1445.67 1906.08,1445.67 1907.11,1445.67 1908.14,1445.67 1909.17,1445.67 1910.2,1445.67 1911.23,1445.67 1912.26,1445.67 1913.29,1445.67 1914.32,1445.67 1915.35,1445.67 1916.38,1445.67 1917.41,1445.67 1918.43,1445.67 1919.46,1445.67 1920.49,1445.67 1921.52,1445.67 1922.55,1445.67 1923.58,1445.67 1924.61,1445.67 1925.64,1445.67 1926.67,1445.67 1927.7,1445.67 1928.73,1445.67 1929.76,1445.67 1930.78,1445.67 1931.81,1445.67 1932.84,1445.67 1933.87,1445.67 1934.9,1445.67 1935.93,1445.67 1936.96,1445.67 1937.99,1445.67 1939.02,1445.67 1940.05,1445.67 1941.08,1445.67 1942.11,1445.67 1943.14,1445.67 1944.16,1445.67 1945.19,1445.67 1946.22,1445.67 1947.25,1445.67 1948.28,1445.67 1949.31,1445.67 1950.34,1445.67 1951.37,1445.67 1952.4,1445.67 1953.43,1445.67 1954.46,1445.67 1955.49,1445.67 1956.51,1445.67 1957.54,1445.67 1958.57,1445.67 1959.6,1445.67 1960.63,1445.67 1961.66,1445.67 1962.69,1445.67 1963.72,1445.67 1964.75,1445.67 1965.78,1445.67 1966.81,1445.67 1967.84,1445.67 1968.87,1445.67 1969.89,1445.67 1970.92,1445.67 1971.95,1445.67 1972.98,1445.67 1974.01,1445.67 1975.04,1445.67 1976.07,1445.68 1977.1,1445.68 1978.13,1445.68 1979.16,1445.68 1980.19,1445.68 1981.22,1445.68 1982.24,1445.68 1983.27,1445.68 1984.3,1445.68 1985.33,1445.68 1986.36,1445.68 1987.39,1445.68 1988.42,1445.68 1989.45,1445.68 1990.48,1445.68 1991.51,1445.68 1992.54,1445.68 1993.57,1445.68 1994.6,1445.68 1995.62,1445.68 1996.65,1445.68 1997.68,1445.68 1998.71,1445.68 1999.74,1445.68 2000.77,1445.68 2001.8,1445.68 2002.83,1445.68 2003.86,1445.68 2004.89,1445.68 2005.92,1445.68 2006.95,1445.68 2007.97,1445.68 2009,1445.68 2010.03,1445.68 2011.06,1445.68 2012.09,1445.68 2013.12,1445.68 2014.15,1445.68 2015.18,1445.68 2016.21,1445.68 2017.24,1445.68 2018.27,1445.68 2019.3,1445.68 2020.33,1445.68 2021.35,1445.68 2022.38,1445.68 2023.41,1445.68 2024.44,1445.68 2025.47,1445.68 2026.5,1445.68 2027.53,1445.68 2028.56,1445.68 2029.59,1445.68 2030.62,1445.68 2031.65,1445.68 2032.68,1445.68 2033.7,1445.68 2034.73,1445.68 2035.76,1445.68 2036.79,1445.68 2037.82,1445.68 2038.85,1445.68 2039.88,1445.68 2040.91,1445.68 2041.94,1445.68 2042.97,1445.68 2044,1445.68 2045.03,1445.68 2046.06,1445.68 2047.08,1445.68 2048.11,1445.68 2049.14,1445.69 2050.17,1445.69 2051.2,1445.69 2052.23,1445.69 2053.26,1445.69 2054.29,1445.69 2055.32,1445.69 2056.35,1445.69 2057.38,1445.69 2058.41,1445.69 2059.43,1445.69 2060.46,1445.69 2061.49,1445.69 2062.52,1445.69 2063.55,1445.69 2064.58,1445.69 2065.61,1445.69 2066.64,1445.69 2067.67,1445.69 2068.7,1445.69 2069.73,1445.69 2070.76,1445.69 2071.79,1445.69 2072.81,1445.69 2073.84,1445.69 2074.87,1445.69 2075.9,1445.69 2076.93,1445.69 2077.96,1445.69 2078.99,1445.69 2080.02,1445.69 2081.05,1445.69 2082.08,1445.69 2083.11,1445.69 2084.14,1445.69 2085.16,1445.69 2086.19,1445.69 2087.22,1445.69 2088.25,1445.69 2089.28,1445.69 2090.31,1445.69 2091.34,1445.69 2092.37,1445.69 2093.4,1445.69 2094.43,1445.69 2095.46,1445.69 2096.49,1445.69 2097.51,1445.69 2098.54,1445.69 2099.57,1445.69 2100.6,1445.69 2101.63,1445.69 2102.66,1445.69 2103.69,1445.69 2104.72,1445.69 2105.75,1445.69 2106.78,1445.69 2107.81,1445.69 2108.84,1445.69 2109.87,1445.69 2110.89,1445.69 2111.92,1445.69 2112.95,1445.69 2113.98,1445.69 2115.01,1445.69 2116.04,1445.69 2117.07,1445.69 2118.1,1445.69 2119.13,1445.69 2120.16,1445.69 2121.19,1445.69 2122.22,1445.69 2123.24,1445.69 2124.27,1445.69 2125.3,1445.7 2126.33,1445.7 2127.36,1445.7 2128.39,1445.7 2129.42,1445.7 2130.45,1445.7 2131.48,1445.7 2132.51,1445.7 2133.54,1445.7 2134.57,1445.7 2135.6,1445.7 2136.62,1445.7 2137.65,1445.7 2138.68,1445.7 2139.71,1445.7 2140.74,1445.7 2141.77,1445.7 2142.8,1445.7 2143.83,1445.7 2144.86,1445.7 2145.89,1445.7 2146.92,1445.7 2147.95,1445.7 2148.97,1445.7 2150,1445.7 2151.03,1445.7 2152.06,1445.7 2153.09,1445.7 2154.12,1445.7 2155.15,1445.7 2156.18,1445.7 2157.21,1445.7 2158.24,1445.7 2159.27,1445.7 2160.3,1445.7 2161.33,1445.7 2162.35,1445.7 2163.38,1445.7 2164.41,1445.7 2165.44,1445.7 2166.47,1445.7 2167.5,1445.7 2168.53,1445.7 2169.56,1445.7 2170.59,1445.7 2171.62,1445.7 2172.65,1445.7 2173.68,1445.7 2174.7,1445.7 2175.73,1445.7 2176.76,1445.7 2177.79,1445.7 2178.82,1445.7 2179.85,1445.7 2180.88,1445.7 2181.91,1445.7 2182.94,1445.7 2183.97,1445.7 2185,1445.7 2186.03,1445.7 2187.06,1445.7 2188.08,1445.7 2189.11,1445.7 2190.14,1445.7 2191.17,1445.7 2192.2,1445.7 2193.23,1445.7 2194.26,1445.7 2195.29,1445.7 2196.32,1445.7 2197.35,1445.7 2198.38,1445.7 2199.41,1445.7 2200.43,1445.7 2201.46,1445.7 2202.49,1445.7 2203.52,1445.7 2204.55,1445.71 2205.58,1445.71 2206.61,1445.71 2207.64,1445.71 2208.67,1445.71 2209.7,1445.71 2210.73,1445.71 2211.76,1445.71 2212.79,1445.71 2213.81,1445.71 2214.84,1445.71 2215.87,1445.71 2216.9,1445.71 2217.93,1445.71 2218.96,1445.71 2219.99,1445.71 2221.02,1445.71 2222.05,1445.71 2223.08,1445.71 2224.11,1445.71 2225.14,1445.71 2226.16,1445.71 2227.19,1445.71 2228.22,1445.71 2229.25,1445.71 2230.28,1445.71 2231.31,1445.71 2232.34,1445.71 2233.37,1445.71 2234.4,1445.71 2235.43,1445.71 2236.46,1445.71 2237.49,1445.71 2238.51,1445.71 2239.54,1445.71 2240.57,1445.71 2241.6,1445.71 2242.63,1445.71 2243.66,1445.71 2244.69,1445.71 2245.72,1445.71 2246.75,1445.71 2247.78,1445.71 2248.81,1445.71 2249.84,1445.71 2250.87,1445.71 2251.89,1445.71 2252.92,1445.71 2253.95,1445.71 2254.98,1445.71 2256.01,1445.71 2257.04,1445.71 2258.07,1445.71 2259.1,1445.71 2260.13,1445.71 2261.16,1445.71 2262.19,1445.71 2263.22,1445.71 2264.24,1445.71 2265.27,1445.71 2266.3,1445.71 2267.33,1445.71 2268.36,1445.71 2269.39,1445.71 2270.42,1445.71 2271.45,1445.71 2272.48,1445.71 2273.51,1445.71 2274.54,1445.71 2275.57,1445.71 2276.6,1445.71 2277.62,1445.71 2278.65,1445.71 2279.68,1445.71 2280.71,1445.71 2281.74,1445.71 2282.77,1445.71 2283.8,1445.71 2284.83,1445.71 2285.86,1445.72 2286.89,1445.72 2287.92,1445.72 2288.95,1445.72 2289.97,1445.72 2291,1445.72 "/>
<path clip-path="url(#clip620)" d="M2009.41 198.898 L2280.03 198.898 L2280.03 95.2176 L2009.41 95.2176  Z" fill="#ffffff" fill-rule="evenodd" fill-opacity="1"/>
<polyline clip-path="url(#clip620)" style="stroke:#000000; stroke-linecap:round; stroke-linejoin:round; stroke-width:4; stroke-opacity:1; fill:none" points="2009.41,198.898 2280.03,198.898 2280.03,95.2176 2009.41,95.2176 2009.41,198.898 "/>
<polyline clip-path="url(#clip620)" style="stroke:#009af9; stroke-linecap:round; stroke-linejoin:round; stroke-width:4; stroke-opacity:1; fill:none" points="2033.65,147.058 2179.11,147.058 "/>
<path clip-path="url(#clip620)" d="M2217.19 166.745 Q2215.39 171.375 2213.68 172.787 Q2211.96 174.199 2209.09 174.199 L2205.69 174.199 L2205.69 170.634 L2208.19 170.634 Q2209.95 170.634 2210.92 169.8 Q2211.89 168.967 2213.07 165.865 L2213.84 163.921 L2203.35 138.412 L2207.87 138.412 L2215.97 158.689 L2224.07 138.412 L2228.58 138.412 L2217.19 166.745 Z" fill="#000000" fill-rule="nonzero" fill-opacity="1" /><path clip-path="url(#clip620)" d="M2235.88 160.402 L2243.51 160.402 L2243.51 134.037 L2235.2 135.703 L2235.2 131.444 L2243.47 129.778 L2248.14 129.778 L2248.14 160.402 L2255.78 160.402 L2255.78 164.338 L2235.88 164.338 L2235.88 160.402 Z" fill="#000000" fill-rule="nonzero" fill-opacity="1" /></svg>
