<?xml version="1.0" encoding="utf-8"?>
<svg xmlns="http://www.w3.org/2000/svg" xmlns:xlink="http://www.w3.org/1999/xlink" width="600" height="400" viewBox="0 0 2400 1600">
<defs>
  <clipPath id="clip790">
    <rect x="0" y="0" width="2400" height="1600"/>
  </clipPath>
</defs>
<path clip-path="url(#clip790)" d="M0 1600 L2400 1600 L2400 0 L0 0  Z" fill="#ffffff" fill-rule="evenodd" fill-opacity="1"/>
<defs>
  <clipPath id="clip791">
    <rect x="480" y="0" width="1681" height="1600"/>
  </clipPath>
</defs>
<path clip-path="url(#clip790)" d="M239.19 1486.45 L2352.76 1486.45 L2352.76 47.2441 L239.19 47.2441  Z" fill="#ffffff" fill-rule="evenodd" fill-opacity="1"/>
<defs>
  <clipPath id="clip792">
    <rect x="239" y="47" width="2115" height="1440"/>
  </clipPath>
</defs>
<polyline clip-path="url(#clip792)" style="stroke:#000000; stroke-linecap:round; stroke-linejoin:round; stroke-width:2; stroke-opacity:0.1; fill:none" points="299.008,1486.45 299.008,47.2441 "/>
<polyline clip-path="url(#clip792)" style="stroke:#000000; stroke-linecap:round; stroke-linejoin:round; stroke-width:2; stroke-opacity:0.1; fill:none" points="797.74,1486.45 797.74,47.2441 "/>
<polyline clip-path="url(#clip792)" style="stroke:#000000; stroke-linecap:round; stroke-linejoin:round; stroke-width:2; stroke-opacity:0.1; fill:none" points="1296.47,1486.45 1296.47,47.2441 "/>
<polyline clip-path="url(#clip792)" style="stroke:#000000; stroke-linecap:round; stroke-linejoin:round; stroke-width:2; stroke-opacity:0.1; fill:none" points="1795.2,1486.45 1795.2,47.2441 "/>
<polyline clip-path="url(#clip792)" style="stroke:#000000; stroke-linecap:round; stroke-linejoin:round; stroke-width:2; stroke-opacity:0.1; fill:none" points="2293.94,1486.45 2293.94,47.2441 "/>
<polyline clip-path="url(#clip790)" style="stroke:#000000; stroke-linecap:round; stroke-linejoin:round; stroke-width:4; stroke-opacity:1; fill:none" points="239.19,1486.45 2352.76,1486.45 "/>
<polyline clip-path="url(#clip790)" style="stroke:#000000; stroke-linecap:round; stroke-linejoin:round; stroke-width:4; stroke-opacity:1; fill:none" points="299.008,1486.45 299.008,1467.55 "/>
<polyline clip-path="url(#clip790)" style="stroke:#000000; stroke-linecap:round; stroke-linejoin:round; stroke-width:4; stroke-opacity:1; fill:none" points="797.74,1486.45 797.74,1467.55 "/>
<polyline clip-path="url(#clip790)" style="stroke:#000000; stroke-linecap:round; stroke-linejoin:round; stroke-width:4; stroke-opacity:1; fill:none" points="1296.47,1486.45 1296.47,1467.55 "/>
<polyline clip-path="url(#clip790)" style="stroke:#000000; stroke-linecap:round; stroke-linejoin:round; stroke-width:4; stroke-opacity:1; fill:none" points="1795.2,1486.45 1795.2,1467.55 "/>
<polyline clip-path="url(#clip790)" style="stroke:#000000; stroke-linecap:round; stroke-linejoin:round; stroke-width:4; stroke-opacity:1; fill:none" points="2293.94,1486.45 2293.94,1467.55 "/>
<path clip-path="url(#clip790)" d="M299.008 1517.37 Q295.397 1517.37 293.568 1520.93 Q291.763 1524.47 291.763 1531.6 Q291.763 1538.71 293.568 1542.27 Q295.397 1545.82 299.008 1545.82 Q302.643 1545.82 304.448 1542.27 Q306.277 1538.71 306.277 1531.6 Q306.277 1524.47 304.448 1520.93 Q302.643 1517.37 299.008 1517.37 M299.008 1513.66 Q304.818 1513.66 307.874 1518.27 Q310.953 1522.85 310.953 1531.6 Q310.953 1540.33 307.874 1544.94 Q304.818 1549.52 299.008 1549.52 Q293.198 1549.52 290.119 1544.94 Q287.064 1540.33 287.064 1531.6 Q287.064 1522.85 290.119 1518.27 Q293.198 1513.66 299.008 1513.66 Z" fill="#000000" fill-rule="nonzero" fill-opacity="1" /><path clip-path="url(#clip790)" d="M757.358 1514.29 L775.715 1514.29 L775.715 1518.22 L761.641 1518.22 L761.641 1526.7 Q762.659 1526.35 763.678 1526.19 Q764.696 1526 765.715 1526 Q771.502 1526 774.881 1529.17 Q778.261 1532.34 778.261 1537.76 Q778.261 1543.34 774.789 1546.44 Q771.317 1549.52 764.997 1549.52 Q762.821 1549.52 760.553 1549.15 Q758.307 1548.78 755.9 1548.04 L755.9 1543.34 Q757.983 1544.47 760.206 1545.03 Q762.428 1545.58 764.905 1545.58 Q768.909 1545.58 771.247 1543.48 Q773.585 1541.37 773.585 1537.76 Q773.585 1534.15 771.247 1532.04 Q768.909 1529.94 764.905 1529.94 Q763.03 1529.94 761.155 1530.35 Q759.303 1530.77 757.358 1531.65 L757.358 1514.29 Z" fill="#000000" fill-rule="nonzero" fill-opacity="1" /><path clip-path="url(#clip790)" d="M797.474 1517.37 Q793.863 1517.37 792.034 1520.93 Q790.229 1524.47 790.229 1531.6 Q790.229 1538.71 792.034 1542.27 Q793.863 1545.82 797.474 1545.82 Q801.108 1545.82 802.914 1542.27 Q804.742 1538.71 804.742 1531.6 Q804.742 1524.47 802.914 1520.93 Q801.108 1517.37 797.474 1517.37 M797.474 1513.66 Q803.284 1513.66 806.34 1518.27 Q809.418 1522.85 809.418 1531.6 Q809.418 1540.33 806.34 1544.94 Q803.284 1549.52 797.474 1549.52 Q791.664 1549.52 788.585 1544.94 Q785.529 1540.33 785.529 1531.6 Q785.529 1522.85 788.585 1518.27 Q791.664 1513.66 797.474 1513.66 Z" fill="#000000" fill-rule="nonzero" fill-opacity="1" /><path clip-path="url(#clip790)" d="M827.636 1517.37 Q824.025 1517.37 822.196 1520.93 Q820.39 1524.47 820.39 1531.6 Q820.39 1538.71 822.196 1542.27 Q824.025 1545.82 827.636 1545.82 Q831.27 1545.82 833.076 1542.27 Q834.904 1538.71 834.904 1531.6 Q834.904 1524.47 833.076 1520.93 Q831.27 1517.37 827.636 1517.37 M827.636 1513.66 Q833.446 1513.66 836.501 1518.27 Q839.58 1522.85 839.58 1531.6 Q839.58 1540.33 836.501 1544.94 Q833.446 1549.52 827.636 1549.52 Q821.826 1549.52 818.747 1544.94 Q815.691 1540.33 815.691 1531.6 Q815.691 1522.85 818.747 1518.27 Q821.826 1513.66 827.636 1513.66 Z" fill="#000000" fill-rule="nonzero" fill-opacity="1" /><path clip-path="url(#clip790)" d="M1241 1544.91 L1248.64 1544.91 L1248.64 1518.55 L1240.33 1520.21 L1240.33 1515.95 L1248.59 1514.29 L1253.27 1514.29 L1253.27 1544.91 L1260.9 1544.91 L1260.9 1548.85 L1241 1548.85 L1241 1544.91 Z" fill="#000000" fill-rule="nonzero" fill-opacity="1" /><path clip-path="url(#clip790)" d="M1280.35 1517.37 Q1276.74 1517.37 1274.91 1520.93 Q1273.1 1524.47 1273.1 1531.6 Q1273.1 1538.71 1274.91 1542.27 Q1276.74 1545.82 1280.35 1545.82 Q1283.98 1545.82 1285.79 1542.27 Q1287.62 1538.71 1287.62 1531.6 Q1287.62 1524.47 1285.79 1520.93 Q1283.98 1517.37 1280.35 1517.37 M1280.35 1513.66 Q1286.16 1513.66 1289.21 1518.27 Q1292.29 1522.85 1292.29 1531.6 Q1292.29 1540.33 1289.21 1544.94 Q1286.16 1549.52 1280.35 1549.52 Q1274.54 1549.52 1271.46 1544.94 Q1268.4 1540.33 1268.4 1531.6 Q1268.4 1522.85 1271.46 1518.27 Q1274.54 1513.66 1280.35 1513.66 Z" fill="#000000" fill-rule="nonzero" fill-opacity="1" /><path clip-path="url(#clip790)" d="M1310.51 1517.37 Q1306.9 1517.37 1305.07 1520.93 Q1303.27 1524.47 1303.27 1531.6 Q1303.27 1538.71 1305.07 1542.27 Q1306.9 1545.82 1310.51 1545.82 Q1314.15 1545.82 1315.95 1542.27 Q1317.78 1538.71 1317.78 1531.6 Q1317.78 1524.47 1315.95 1520.93 Q1314.15 1517.37 1310.51 1517.37 M1310.51 1513.66 Q1316.32 1513.66 1319.38 1518.27 Q1322.46 1522.85 1322.46 1531.6 Q1322.46 1540.33 1319.38 1544.94 Q1316.32 1549.52 1310.51 1549.52 Q1304.7 1549.52 1301.62 1544.94 Q1298.57 1540.33 1298.57 1531.6 Q1298.57 1522.85 1301.62 1518.27 Q1304.7 1513.66 1310.51 1513.66 Z" fill="#000000" fill-rule="nonzero" fill-opacity="1" /><path clip-path="url(#clip790)" d="M1340.67 1517.37 Q1337.06 1517.37 1335.23 1520.93 Q1333.43 1524.47 1333.43 1531.6 Q1333.43 1538.71 1335.23 1542.27 Q1337.06 1545.82 1340.67 1545.82 Q1344.31 1545.82 1346.11 1542.27 Q1347.94 1538.71 1347.94 1531.6 Q1347.94 1524.47 1346.11 1520.93 Q1344.31 1517.37 1340.67 1517.37 M1340.67 1513.66 Q1346.48 1513.66 1349.54 1518.27 Q1352.62 1522.85 1352.62 1531.6 Q1352.62 1540.33 1349.54 1544.94 Q1346.48 1549.52 1340.67 1549.52 Q1334.86 1549.52 1331.78 1544.94 Q1328.73 1540.33 1328.73 1531.6 Q1328.73 1522.85 1331.78 1518.27 Q1334.86 1513.66 1340.67 1513.66 Z" fill="#000000" fill-rule="nonzero" fill-opacity="1" /><path clip-path="url(#clip790)" d="M1739.73 1544.91 L1747.37 1544.91 L1747.37 1518.55 L1739.06 1520.21 L1739.06 1515.95 L1747.32 1514.29 L1752 1514.29 L1752 1544.91 L1759.64 1544.91 L1759.64 1548.85 L1739.73 1548.85 L1739.73 1544.91 Z" fill="#000000" fill-rule="nonzero" fill-opacity="1" /><path clip-path="url(#clip790)" d="M1769.13 1514.29 L1787.48 1514.29 L1787.48 1518.22 L1773.41 1518.22 L1773.41 1526.7 Q1774.43 1526.35 1775.45 1526.19 Q1776.47 1526 1777.48 1526 Q1783.27 1526 1786.65 1529.17 Q1790.03 1532.34 1790.03 1537.76 Q1790.03 1543.34 1786.56 1546.44 Q1783.09 1549.52 1776.77 1549.52 Q1774.59 1549.52 1772.32 1549.15 Q1770.08 1548.78 1767.67 1548.04 L1767.67 1543.34 Q1769.75 1544.47 1771.97 1545.03 Q1774.2 1545.58 1776.67 1545.58 Q1780.68 1545.58 1783.02 1543.48 Q1785.35 1541.37 1785.35 1537.76 Q1785.35 1534.15 1783.02 1532.04 Q1780.68 1529.94 1776.67 1529.94 Q1774.8 1529.94 1772.92 1530.35 Q1771.07 1530.77 1769.13 1531.65 L1769.13 1514.29 Z" fill="#000000" fill-rule="nonzero" fill-opacity="1" /><path clip-path="url(#clip790)" d="M1809.24 1517.37 Q1805.63 1517.37 1803.8 1520.93 Q1802 1524.47 1802 1531.6 Q1802 1538.71 1803.8 1542.27 Q1805.63 1545.82 1809.24 1545.82 Q1812.88 1545.82 1814.68 1542.27 Q1816.51 1538.71 1816.51 1531.6 Q1816.51 1524.47 1814.68 1520.93 Q1812.88 1517.37 1809.24 1517.37 M1809.24 1513.66 Q1815.05 1513.66 1818.11 1518.27 Q1821.19 1522.85 1821.19 1531.6 Q1821.19 1540.33 1818.11 1544.94 Q1815.05 1549.52 1809.24 1549.52 Q1803.43 1549.52 1800.35 1544.94 Q1797.3 1540.33 1797.3 1531.6 Q1797.3 1522.85 1800.35 1518.27 Q1803.43 1513.66 1809.24 1513.66 Z" fill="#000000" fill-rule="nonzero" fill-opacity="1" /><path clip-path="url(#clip790)" d="M1839.4 1517.37 Q1835.79 1517.37 1833.97 1520.93 Q1832.16 1524.47 1832.16 1531.6 Q1832.16 1538.71 1833.97 1542.27 Q1835.79 1545.82 1839.4 1545.82 Q1843.04 1545.82 1844.84 1542.27 Q1846.67 1538.71 1846.67 1531.6 Q1846.67 1524.47 1844.84 1520.93 Q1843.04 1517.37 1839.4 1517.37 M1839.4 1513.66 Q1845.21 1513.66 1848.27 1518.27 Q1851.35 1522.85 1851.35 1531.6 Q1851.35 1540.33 1848.27 1544.94 Q1845.21 1549.52 1839.4 1549.52 Q1833.59 1549.52 1830.52 1544.94 Q1827.46 1540.33 1827.46 1531.6 Q1827.46 1522.85 1830.52 1518.27 Q1833.59 1513.66 1839.4 1513.66 Z" fill="#000000" fill-rule="nonzero" fill-opacity="1" /><path clip-path="url(#clip790)" d="M2242.55 1544.91 L2258.87 1544.91 L2258.87 1548.85 L2236.92 1548.85 L2236.92 1544.91 Q2239.58 1542.16 2244.17 1537.53 Q2248.77 1532.88 2249.95 1531.53 Q2252.2 1529.01 2253.08 1527.27 Q2253.98 1525.51 2253.98 1523.82 Q2253.98 1521.07 2252.04 1519.33 Q2250.12 1517.6 2247.01 1517.6 Q2244.82 1517.6 2242.36 1518.36 Q2239.93 1519.13 2237.15 1520.68 L2237.15 1515.95 Q2239.98 1514.82 2242.43 1514.24 Q2244.88 1513.66 2246.92 1513.66 Q2252.29 1513.66 2255.49 1516.35 Q2258.68 1519.03 2258.68 1523.52 Q2258.68 1525.65 2257.87 1527.57 Q2257.08 1529.47 2254.98 1532.07 Q2254.4 1532.74 2251.3 1535.95 Q2248.19 1539.15 2242.55 1544.91 Z" fill="#000000" fill-rule="nonzero" fill-opacity="1" /><path clip-path="url(#clip790)" d="M2278.68 1517.37 Q2275.07 1517.37 2273.24 1520.93 Q2271.44 1524.47 2271.44 1531.6 Q2271.44 1538.71 2273.24 1542.27 Q2275.07 1545.82 2278.68 1545.82 Q2282.32 1545.82 2284.12 1542.27 Q2285.95 1538.71 2285.95 1531.6 Q2285.95 1524.47 2284.12 1520.93 Q2282.32 1517.37 2278.68 1517.37 M2278.68 1513.66 Q2284.49 1513.66 2287.55 1518.27 Q2290.63 1522.85 2290.63 1531.6 Q2290.63 1540.33 2287.55 1544.94 Q2284.49 1549.52 2278.68 1549.52 Q2272.87 1549.52 2269.79 1544.94 Q2266.74 1540.33 2266.74 1531.6 Q2266.74 1522.85 2269.79 1518.27 Q2272.87 1513.66 2278.68 1513.66 Z" fill="#000000" fill-rule="nonzero" fill-opacity="1" /><path clip-path="url(#clip790)" d="M2308.84 1517.37 Q2305.23 1517.37 2303.4 1520.93 Q2301.6 1524.47 2301.6 1531.6 Q2301.6 1538.71 2303.4 1542.27 Q2305.23 1545.82 2308.84 1545.82 Q2312.48 1545.82 2314.28 1542.27 Q2316.11 1538.71 2316.11 1531.6 Q2316.11 1524.47 2314.28 1520.93 Q2312.48 1517.37 2308.84 1517.37 M2308.84 1513.66 Q2314.65 1513.66 2317.71 1518.27 Q2320.79 1522.85 2320.79 1531.6 Q2320.79 1540.33 2317.71 1544.94 Q2314.65 1549.52 2308.84 1549.52 Q2303.03 1549.52 2299.95 1544.94 Q2296.9 1540.33 2296.9 1531.6 Q2296.9 1522.85 2299.95 1518.27 Q2303.03 1513.66 2308.84 1513.66 Z" fill="#000000" fill-rule="nonzero" fill-opacity="1" /><path clip-path="url(#clip790)" d="M2339 1517.37 Q2335.39 1517.37 2333.56 1520.93 Q2331.76 1524.47 2331.76 1531.6 Q2331.76 1538.71 2333.56 1542.27 Q2335.39 1545.82 2339 1545.82 Q2342.64 1545.82 2344.44 1542.27 Q2346.27 1538.71 2346.27 1531.6 Q2346.27 1524.47 2344.44 1520.93 Q2342.64 1517.37 2339 1517.37 M2339 1513.66 Q2344.81 1513.66 2347.87 1518.27 Q2350.95 1522.85 2350.95 1531.6 Q2350.95 1540.33 2347.87 1544.94 Q2344.81 1549.52 2339 1549.52 Q2333.19 1549.52 2330.12 1544.94 Q2327.06 1540.33 2327.06 1531.6 Q2327.06 1522.85 2330.12 1518.27 Q2333.19 1513.66 2339 1513.66 Z" fill="#000000" fill-rule="nonzero" fill-opacity="1" /><polyline clip-path="url(#clip792)" style="stroke:#000000; stroke-linecap:round; stroke-linejoin:round; stroke-width:2; stroke-opacity:0.1; fill:none" points="239.19,1472.68 2352.76,1472.68 "/>
<polyline clip-path="url(#clip792)" style="stroke:#000000; stroke-linecap:round; stroke-linejoin:round; stroke-width:2; stroke-opacity:0.1; fill:none" points="239.19,1018.07 2352.76,1018.07 "/>
<polyline clip-path="url(#clip792)" style="stroke:#000000; stroke-linecap:round; stroke-linejoin:round; stroke-width:2; stroke-opacity:0.1; fill:none" points="239.19,563.458 2352.76,563.458 "/>
<polyline clip-path="url(#clip792)" style="stroke:#000000; stroke-linecap:round; stroke-linejoin:round; stroke-width:2; stroke-opacity:0.1; fill:none" points="239.19,108.845 2352.76,108.845 "/>
<polyline clip-path="url(#clip790)" style="stroke:#000000; stroke-linecap:round; stroke-linejoin:round; stroke-width:4; stroke-opacity:1; fill:none" points="239.19,1486.45 239.19,47.2441 "/>
<polyline clip-path="url(#clip790)" style="stroke:#000000; stroke-linecap:round; stroke-linejoin:round; stroke-width:4; stroke-opacity:1; fill:none" points="239.19,1472.68 258.088,1472.68 "/>
<polyline clip-path="url(#clip790)" style="stroke:#000000; stroke-linecap:round; stroke-linejoin:round; stroke-width:4; stroke-opacity:1; fill:none" points="239.19,1018.07 258.088,1018.07 "/>
<polyline clip-path="url(#clip790)" style="stroke:#000000; stroke-linecap:round; stroke-linejoin:round; stroke-width:4; stroke-opacity:1; fill:none" points="239.19,563.458 258.088,563.458 "/>
<polyline clip-path="url(#clip790)" style="stroke:#000000; stroke-linecap:round; stroke-linejoin:round; stroke-width:4; stroke-opacity:1; fill:none" points="239.19,108.845 258.088,108.845 "/>
<path clip-path="url(#clip790)" d="M50.9921 1473.13 L80.6679 1473.13 L80.6679 1477.07 L50.9921 1477.07 L50.9921 1473.13 Z" fill="#000000" fill-rule="nonzero" fill-opacity="1" /><path clip-path="url(#clip790)" d="M103.608 1459.48 L91.8021 1477.93 L103.608 1477.93 L103.608 1459.48 M102.381 1455.4 L108.26 1455.4 L108.26 1477.93 L113.191 1477.93 L113.191 1481.81 L108.26 1481.81 L108.26 1489.96 L103.608 1489.96 L103.608 1481.81 L88.0058 1481.81 L88.0058 1477.3 L102.381 1455.4 Z" fill="#000000" fill-rule="nonzero" fill-opacity="1" /><path clip-path="url(#clip790)" d="M130.922 1458.48 Q127.311 1458.48 125.482 1462.05 Q123.677 1465.59 123.677 1472.72 Q123.677 1479.82 125.482 1483.39 Q127.311 1486.93 130.922 1486.93 Q134.556 1486.93 136.362 1483.39 Q138.191 1479.82 138.191 1472.72 Q138.191 1465.59 136.362 1462.05 Q134.556 1458.48 130.922 1458.48 M130.922 1454.78 Q136.732 1454.78 139.788 1459.38 Q142.867 1463.97 142.867 1472.72 Q142.867 1481.44 139.788 1486.05 Q136.732 1490.63 130.922 1490.63 Q125.112 1490.63 122.033 1486.05 Q118.978 1481.44 118.978 1472.72 Q118.978 1463.97 122.033 1459.38 Q125.112 1454.78 130.922 1454.78 Z" fill="#000000" fill-rule="nonzero" fill-opacity="1" /><path clip-path="url(#clip790)" d="M161.084 1458.48 Q157.473 1458.48 155.644 1462.05 Q153.839 1465.59 153.839 1472.72 Q153.839 1479.82 155.644 1483.39 Q157.473 1486.93 161.084 1486.93 Q164.718 1486.93 166.524 1483.39 Q168.353 1479.82 168.353 1472.72 Q168.353 1465.59 166.524 1462.05 Q164.718 1458.48 161.084 1458.48 M161.084 1454.78 Q166.894 1454.78 169.95 1459.38 Q173.029 1463.97 173.029 1472.72 Q173.029 1481.44 169.95 1486.05 Q166.894 1490.63 161.084 1490.63 Q155.274 1490.63 152.195 1486.05 Q149.14 1481.44 149.14 1472.72 Q149.14 1463.97 152.195 1459.38 Q155.274 1454.78 161.084 1454.78 Z" fill="#000000" fill-rule="nonzero" fill-opacity="1" /><path clip-path="url(#clip790)" d="M191.246 1458.48 Q187.635 1458.48 185.806 1462.05 Q184.001 1465.59 184.001 1472.72 Q184.001 1479.82 185.806 1483.39 Q187.635 1486.93 191.246 1486.93 Q194.88 1486.93 196.686 1483.39 Q198.514 1479.82 198.514 1472.72 Q198.514 1465.59 196.686 1462.05 Q194.88 1458.48 191.246 1458.48 M191.246 1454.78 Q197.056 1454.78 200.112 1459.38 Q203.19 1463.97 203.19 1472.72 Q203.19 1481.44 200.112 1486.05 Q197.056 1490.63 191.246 1490.63 Q185.436 1490.63 182.357 1486.05 Q179.302 1481.44 179.302 1472.72 Q179.302 1463.97 182.357 1459.38 Q185.436 1454.78 191.246 1454.78 Z" fill="#000000" fill-rule="nonzero" fill-opacity="1" /><path clip-path="url(#clip790)" d="M50.9921 1018.52 L80.6679 1018.52 L80.6679 1022.46 L50.9921 1022.46 L50.9921 1018.52 Z" fill="#000000" fill-rule="nonzero" fill-opacity="1" /><path clip-path="url(#clip790)" d="M104.927 1016.72 Q108.283 1017.43 110.158 1019.7 Q112.057 1021.97 112.057 1025.3 Q112.057 1030.42 108.538 1033.22 Q105.02 1036.02 98.5382 1036.02 Q96.3623 1036.02 94.0475 1035.58 Q91.7558 1035.17 89.3021 1034.31 L89.3021 1029.79 Q91.2465 1030.93 93.5613 1031.51 Q95.8761 1032.09 98.3993 1032.09 Q102.797 1032.09 105.089 1030.35 Q107.404 1028.61 107.404 1025.3 Q107.404 1022.25 105.251 1020.54 Q103.121 1018.8 99.3021 1018.8 L95.2743 1018.8 L95.2743 1014.96 L99.4872 1014.96 Q102.936 1014.96 104.765 1013.59 Q106.594 1012.2 106.594 1009.61 Q106.594 1006.95 104.696 1005.54 Q102.821 1004.1 99.3021 1004.1 Q97.3808 1004.1 95.1817 1004.52 Q92.9826 1004.93 90.3438 1005.81 L90.3438 1001.65 Q93.0058 1000.91 95.3206 1000.54 Q97.6585 1000.17 99.7187 1000.17 Q105.043 1000.17 108.145 1002.6 Q111.246 1005 111.246 1009.12 Q111.246 1011.99 109.603 1013.98 Q107.959 1015.95 104.927 1016.72 Z" fill="#000000" fill-rule="nonzero" fill-opacity="1" /><path clip-path="url(#clip790)" d="M130.922 1003.87 Q127.311 1003.87 125.482 1007.43 Q123.677 1010.98 123.677 1018.11 Q123.677 1025.21 125.482 1028.78 Q127.311 1032.32 130.922 1032.32 Q134.556 1032.32 136.362 1028.78 Q138.191 1025.21 138.191 1018.11 Q138.191 1010.98 136.362 1007.43 Q134.556 1003.87 130.922 1003.87 M130.922 1000.17 Q136.732 1000.17 139.788 1004.77 Q142.867 1009.36 142.867 1018.11 Q142.867 1026.83 139.788 1031.44 Q136.732 1036.02 130.922 1036.02 Q125.112 1036.02 122.033 1031.44 Q118.978 1026.83 118.978 1018.11 Q118.978 1009.36 122.033 1004.77 Q125.112 1000.17 130.922 1000.17 Z" fill="#000000" fill-rule="nonzero" fill-opacity="1" /><path clip-path="url(#clip790)" d="M161.084 1003.87 Q157.473 1003.87 155.644 1007.43 Q153.839 1010.98 153.839 1018.11 Q153.839 1025.21 155.644 1028.78 Q157.473 1032.32 161.084 1032.32 Q164.718 1032.32 166.524 1028.78 Q168.353 1025.21 168.353 1018.11 Q168.353 1010.98 166.524 1007.43 Q164.718 1003.87 161.084 1003.87 M161.084 1000.17 Q166.894 1000.17 169.95 1004.77 Q173.029 1009.36 173.029 1018.11 Q173.029 1026.83 169.95 1031.44 Q166.894 1036.02 161.084 1036.02 Q155.274 1036.02 152.195 1031.44 Q149.14 1026.83 149.14 1018.11 Q149.14 1009.36 152.195 1004.77 Q155.274 1000.17 161.084 1000.17 Z" fill="#000000" fill-rule="nonzero" fill-opacity="1" /><path clip-path="url(#clip790)" d="M191.246 1003.87 Q187.635 1003.87 185.806 1007.43 Q184.001 1010.98 184.001 1018.11 Q184.001 1025.21 185.806 1028.78 Q187.635 1032.32 191.246 1032.32 Q194.88 1032.32 196.686 1028.78 Q198.514 1025.21 198.514 1018.11 Q198.514 1010.98 196.686 1007.43 Q194.88 1003.87 191.246 1003.87 M191.246 1000.17 Q197.056 1000.17 200.112 1004.77 Q203.19 1009.36 203.19 1018.11 Q203.19 1026.83 200.112 1031.44 Q197.056 1036.02 191.246 1036.02 Q185.436 1036.02 182.357 1031.44 Q179.302 1026.83 179.302 1018.11 Q179.302 1009.36 182.357 1004.77 Q185.436 1000.17 191.246 1000.17 Z" fill="#000000" fill-rule="nonzero" fill-opacity="1" /><path clip-path="url(#clip790)" d="M50.9921 563.909 L80.6679 563.909 L80.6679 567.844 L50.9921 567.844 L50.9921 563.909 Z" fill="#000000" fill-rule="nonzero" fill-opacity="1" /><path clip-path="url(#clip790)" d="M94.7882 576.803 L111.108 576.803 L111.108 580.738 L89.1632 580.738 L89.1632 576.803 Q91.8252 574.048 96.4085 569.418 Q101.015 564.766 102.196 563.423 Q104.441 560.9 105.321 559.164 Q106.223 557.405 106.223 555.715 Q106.223 552.96 104.279 551.224 Q102.358 549.488 99.2558 549.488 Q97.0567 549.488 94.603 550.252 Q92.1725 551.016 89.3947 552.567 L89.3947 547.844 Q92.2188 546.71 94.6724 546.131 Q97.1261 545.553 99.1632 545.553 Q104.534 545.553 107.728 548.238 Q110.922 550.923 110.922 555.414 Q110.922 557.543 110.112 559.465 Q109.325 561.363 107.219 563.955 Q106.64 564.627 103.538 567.844 Q100.436 571.039 94.7882 576.803 Z" fill="#000000" fill-rule="nonzero" fill-opacity="1" /><path clip-path="url(#clip790)" d="M130.922 549.256 Q127.311 549.256 125.482 552.821 Q123.677 556.363 123.677 563.492 Q123.677 570.599 125.482 574.164 Q127.311 577.705 130.922 577.705 Q134.556 577.705 136.362 574.164 Q138.191 570.599 138.191 563.492 Q138.191 556.363 136.362 552.821 Q134.556 549.256 130.922 549.256 M130.922 545.553 Q136.732 545.553 139.788 550.159 Q142.867 554.743 142.867 563.492 Q142.867 572.219 139.788 576.826 Q136.732 581.409 130.922 581.409 Q125.112 581.409 122.033 576.826 Q118.978 572.219 118.978 563.492 Q118.978 554.743 122.033 550.159 Q125.112 545.553 130.922 545.553 Z" fill="#000000" fill-rule="nonzero" fill-opacity="1" /><path clip-path="url(#clip790)" d="M161.084 549.256 Q157.473 549.256 155.644 552.821 Q153.839 556.363 153.839 563.492 Q153.839 570.599 155.644 574.164 Q157.473 577.705 161.084 577.705 Q164.718 577.705 166.524 574.164 Q168.353 570.599 168.353 563.492 Q168.353 556.363 166.524 552.821 Q164.718 549.256 161.084 549.256 M161.084 545.553 Q166.894 545.553 169.95 550.159 Q173.029 554.743 173.029 563.492 Q173.029 572.219 169.95 576.826 Q166.894 581.409 161.084 581.409 Q155.274 581.409 152.195 576.826 Q149.14 572.219 149.14 563.492 Q149.14 554.743 152.195 550.159 Q155.274 545.553 161.084 545.553 Z" fill="#000000" fill-rule="nonzero" fill-opacity="1" /><path clip-path="url(#clip790)" d="M191.246 549.256 Q187.635 549.256 185.806 552.821 Q184.001 556.363 184.001 563.492 Q184.001 570.599 185.806 574.164 Q187.635 577.705 191.246 577.705 Q194.88 577.705 196.686 574.164 Q198.514 570.599 198.514 563.492 Q198.514 556.363 196.686 552.821 Q194.88 549.256 191.246 549.256 M191.246 545.553 Q197.056 545.553 200.112 550.159 Q203.19 554.743 203.19 563.492 Q203.19 572.219 200.112 576.826 Q197.056 581.409 191.246 581.409 Q185.436 581.409 182.357 576.826 Q179.302 572.219 179.302 563.492 Q179.302 554.743 182.357 550.159 Q185.436 545.553 191.246 545.553 Z" fill="#000000" fill-rule="nonzero" fill-opacity="1" /><path clip-path="url(#clip790)" d="M50.9921 109.297 L80.6679 109.297 L80.6679 113.232 L50.9921 113.232 L50.9921 109.297 Z" fill="#000000" fill-rule="nonzero" fill-opacity="1" /><path clip-path="url(#clip790)" d="M91.5706 122.19 L99.2095 122.19 L99.2095 95.8244 L90.8993 97.491 L90.8993 93.2318 L99.1632 91.5651 L103.839 91.5651 L103.839 122.19 L111.478 122.19 L111.478 126.125 L91.5706 126.125 L91.5706 122.19 Z" fill="#000000" fill-rule="nonzero" fill-opacity="1" /><path clip-path="url(#clip790)" d="M130.922 94.6438 Q127.311 94.6438 125.482 98.2086 Q123.677 101.75 123.677 108.88 Q123.677 115.986 125.482 119.551 Q127.311 123.093 130.922 123.093 Q134.556 123.093 136.362 119.551 Q138.191 115.986 138.191 108.88 Q138.191 101.75 136.362 98.2086 Q134.556 94.6438 130.922 94.6438 M130.922 90.9401 Q136.732 90.9401 139.788 95.5466 Q142.867 100.13 142.867 108.88 Q142.867 117.607 139.788 122.213 Q136.732 126.796 130.922 126.796 Q125.112 126.796 122.033 122.213 Q118.978 117.607 118.978 108.88 Q118.978 100.13 122.033 95.5466 Q125.112 90.9401 130.922 90.9401 Z" fill="#000000" fill-rule="nonzero" fill-opacity="1" /><path clip-path="url(#clip790)" d="M161.084 94.6438 Q157.473 94.6438 155.644 98.2086 Q153.839 101.75 153.839 108.88 Q153.839 115.986 155.644 119.551 Q157.473 123.093 161.084 123.093 Q164.718 123.093 166.524 119.551 Q168.353 115.986 168.353 108.88 Q168.353 101.75 166.524 98.2086 Q164.718 94.6438 161.084 94.6438 M161.084 90.9401 Q166.894 90.9401 169.95 95.5466 Q173.029 100.13 173.029 108.88 Q173.029 117.607 169.95 122.213 Q166.894 126.796 161.084 126.796 Q155.274 126.796 152.195 122.213 Q149.14 117.607 149.14 108.88 Q149.14 100.13 152.195 95.5466 Q155.274 90.9401 161.084 90.9401 Z" fill="#000000" fill-rule="nonzero" fill-opacity="1" /><path clip-path="url(#clip790)" d="M191.246 94.6438 Q187.635 94.6438 185.806 98.2086 Q184.001 101.75 184.001 108.88 Q184.001 115.986 185.806 119.551 Q187.635 123.093 191.246 123.093 Q194.88 123.093 196.686 119.551 Q198.514 115.986 198.514 108.88 Q198.514 101.75 196.686 98.2086 Q194.88 94.6438 191.246 94.6438 M191.246 90.9401 Q197.056 90.9401 200.112 95.5466 Q203.19 100.13 203.19 108.88 Q203.19 117.607 200.112 122.213 Q197.056 126.796 191.246 126.796 Q185.436 126.796 182.357 122.213 Q179.302 117.607 179.302 108.88 Q179.302 100.13 182.357 95.5466 Q185.436 90.9401 191.246 90.9401 Z" fill="#000000" fill-rule="nonzero" fill-opacity="1" /><polyline clip-path="url(#clip792)" style="stroke:#009af9; stroke-linecap:round; stroke-linejoin:round; stroke-width:4; stroke-opacity:1; fill:none" points="299.008,162.511 300.006,162.492 301.003,153.359 302.001,153.338 302.998,151.802 303.996,151.793 304.993,176.976 305.991,176.954 306.988,147.131 307.985,147.128 308.983,170.057 309.98,170.044 310.978,181.102 311.975,181.091 312.973,180.47 313.97,180.443 314.968,104.266 315.965,104.253 316.963,131.644 317.96,131.628 318.958,115.303 319.955,115.299 320.952,154.013 321.95,154.008 322.947,131.085 323.945,131.075 324.942,148.566 325.94,148.547 326.937,194.599 327.935,194.568 328.932,135.351 329.93,135.337 330.927,141.298 331.925,141.271 332.922,179.061 333.92,179.034 334.917,163.041 335.914,163.028 336.912,154.235 337.909,154.22 338.907,87.9769 339.904,87.9763 340.902,143.61 341.899,143.593 342.897,181.008 343.894,180.992 344.892,166.083 345.889,166.071 346.887,190.99 347.884,190.978 348.881,150.903 349.879,150.888 350.876,184.948 351.874,184.931 352.871,171.11 353.869,171.083 354.866,278.397 355.864,278.351 356.861,176.318 357.859,176.289 358.856,182.057 359.854,182.043 360.851,232.135 361.848,232.106 362.846,160.015 363.843,160.002 364.841,201.013 365.838,201 366.836,147.354 367.833,147.331 368.831,154.14 369.828,154.122 370.826,164.154 371.823,164.134 372.821,215.741 373.818,215.722 374.816,223.686 375.813,223.655 376.81,202.329 377.808,202.314 378.805,189.659 379.803,189.643 380.8,248.252 381.798,248.222 382.795,202.473 383.793,202.444 384.79,166.905 385.788,166.897 386.785,270.987 387.783,270.953 388.78,173.903 389.777,173.888 390.775,194.705 391.772,194.678 392.77,245.667 393.767,245.631 394.765,169.826 395.762,169.81 396.76,165.817 397.757,165.807 398.755,174.199 399.752,174.187 400.75,178.349 401.747,178.322 402.744,168.755 403.742,168.746 404.739,137.299 405.737,137.288 406.734,91.4128 407.732,91.4073 408.729,270.528 409.727,270.492 410.724,211.632 411.722,211.597 412.719,185.51 413.717,185.495 414.714,184.807 415.712,184.784 416.709,162.39 417.706,162.38 418.704,225.827 419.701,225.796 420.699,150.073 421.696,150.06 422.694,240.766 423.691,240.722 424.689,235.621 425.686,235.608 426.684,193.156 427.681,193.118 428.679,197.693 429.676,197.681 430.673,251.34 431.671,251.325 432.668,206.674 433.666,206.66 434.663,217.6 435.661,217.576 436.658,252.617 437.656,252.594 438.653,139.729 439.651,139.719 440.648,187.624 441.646,187.601 442.643,203.852 443.64,203.838 444.638,208.54 445.635,208.525 446.633,221.021 447.63,221.003 448.628,223.2 449.625,223.185 450.623,218.812 451.62,218.793 452.618,193.649 453.615,193.626 454.613,265.837 455.61,265.813 456.608,207.188 457.605,207.181 458.602,190.902 459.6,190.89 460.597,203.793 461.595,203.756 462.592,204.893 463.59,204.872 464.587,157.698 465.585,157.691 466.582,205.763 467.58,205.737 468.577,236.43 469.575,236.396 470.572,236.266 471.569,236.249 472.567,235.214 473.564,235.181 474.562,106.812 475.559,106.807 476.557,141.541 477.554,141.53 478.552,190.858 479.549,190.843 480.547,235.956 481.544,235.936 482.542,259.948 483.539,259.922 484.537,246.777 485.534,246.747 486.531,233.735 487.529,233.704 488.526,208.275 489.524,208.269 490.521,174.644 491.519,174.639 492.516,256.457 493.514,256.447 494.511,187.755 495.509,187.747 496.506,234.536 497.504,234.516 498.501,242.897 499.498,242.875 500.496,273.718 501.493,273.691 502.491,260.35 503.488,260.325 504.486,310.289 505.483,310.251 506.481,155.248 507.478,155.249 508.476,199.388 509.473,199.378 510.471,194.207 511.468,194.194 512.465,160.912 513.463,160.899 514.46,255.419 515.458,255.39 516.455,197.678 517.453,197.664 518.45,192.881 519.448,192.876 520.445,156.296 521.443,156.289 522.44,213.364 523.438,213.348 524.435,231.565 525.433,231.542 526.43,224.491 527.427,224.463 528.425,247.53 529.422,247.505 530.42,244.208 531.417,244.192 532.415,297.927 533.412,297.89 534.41,293.158 535.407,293.115 536.405,168.425 537.402,168.424 538.4,192.703 539.397,192.682 540.394,268.069 541.392,268.043 542.389,126.539 543.387,126.534 544.384,211.971 545.382,211.965 546.379,255.265 547.377,255.242 548.374,176.09 549.372,176.078 550.369,224.769 551.367,224.751 552.364,232.053 553.361,232.036 554.359,245.805 555.356,245.79 556.354,245.29 557.351,245.271 558.349,187.281 559.346,187.27 560.344,258.928 561.341,258.911 562.339,254.05 563.336,254.033 564.334,258.499 565.331,258.471 566.329,272.282 567.326,272.258 568.323,254.606 569.321,254.576 570.318,271.677 571.316,271.638 572.313,227.5 573.311,227.483 574.308,302.598 575.306,302.564 576.303,228.7 577.301,228.695 578.298,242.546 579.296,242.539 580.293,319.169 581.29,319.119 582.288,314.392 583.285,314.362 584.283,324.389 585.28,324.354 586.278,306.005 587.275,305.978 588.273,364.45 589.27,364.413 590.268,235.407 591.265,235.387 592.263,263.548 593.26,263.535 594.258,213.834 595.255,213.829 596.252,259.033 597.25,259.013 598.247,323.63 599.245,323.598 600.242,275.512 601.24,275.491 602.237,242.855 603.235,242.835 604.232,291.233 605.23,291.182 606.227,228.039 607.225,228.013 608.222,302.332 609.219,302.322 610.217,288.94 611.214,288.914 612.212,290.888 613.209,290.87 614.207,328.394 615.204,328.373 616.202,337.546 617.199,337.489 618.197,282.994 619.194,282.983 620.192,339.625 621.189,339.584 622.186,272.457 623.184,272.426 624.181,349.16 625.179,349.086 626.176,336.982 627.174,336.942 628.171,352.544 629.169,352.522 630.166,316.987 631.164,316.961 632.161,223.649 633.159,223.605 634.156,325.838 635.154,325.793 636.151,350.417 637.148,350.388 638.146,329.382 639.143,329.359 640.141,247.234 641.138,247.224 642.136,255.687 643.133,255.68 644.131,327.877 645.128,327.847 646.126,322.184 647.123,322.166 648.121,318.826 649.118,318.803 650.115,265.107 651.113,265.098 652.11,265.545 653.108,265.529 654.105,313.709 655.103,313.68 656.1,330.214 657.098,330.19 658.095,295.37 659.093,295.352 660.09,216.86 661.088,216.853 662.085,258.583 663.082,258.562 664.08,323.13 665.077,323.094 666.075,287.004 667.072,286.995 668.07,221.228 669.067,221.218 670.065,324.404 671.062,324.352 672.06,272.299 673.057,272.281 674.055,329.133 675.052,329.103 676.05,304.896 677.047,304.866 678.044,320.127 679.042,320.094 680.039,257.982 681.037,257.972 682.034,320.372 683.032,320.347 684.029,266.668 685.027,266.666 686.024,256.001 687.022,255.992 688.019,272.213 689.017,272.19 690.014,318.528 691.011,318.505 692.009,378.938 693.006,378.909 694.004,295.392 695.001,295.367 695.999,243.861 696.996,243.851 697.994,255.089 698.991,255.044 699.989,327.595 700.986,327.558 701.984,286.564 702.981,286.532 703.978,308.956 704.976,308.922 705.973,343.871 706.971,343.844 707.968,267.469 708.966,267.453 709.963,294.932 710.961,294.894 711.958,341.347 712.956,341.309 713.953,399.475 714.951,399.441 715.948,274.746 716.946,274.74 717.943,360.916 718.94,360.877 719.938,260.528 720.935,260.508 721.933,271.605 722.93,271.577 723.928,362.094 724.925,362.058 725.923,249.866 726.92,249.859 727.918,326.232 728.915,326.202 729.913,375.385 730.91,375.363 731.907,301.164 732.905,301.147 733.902,398.66 734.9,398.626 735.897,268.151 736.895,268.139 737.892,331.744 738.89,331.717 739.887,347.455 740.885,347.423 741.882,319.292 742.88,319.263 743.877,367.563 744.875,367.525 745.872,349.946 746.869,349.92 747.867,373.681 748.864,373.656 749.862,338.423 750.859,338.398 751.857,288.071 752.854,288.06 753.852,363.69 754.849,363.673 755.847,312.281 756.844,312.249 757.842,400.154 758.839,400.105 759.836,340.646 760.834,340.625 761.831,398.412 762.829,398.377 763.826,377.343 764.824,377.313 765.821,370.325 766.819,370.288 767.816,299.657 768.814,299.646 769.811,416.507 770.809,416.457 771.806,350.753 772.803,350.736 773.801,398.664 774.798,398.613 775.796,385.813 776.793,385.787 777.791,362.455 778.788,362.44 779.786,279.338 780.783,279.327 781.781,338.761 782.778,338.724 783.776,353.844 784.773,353.819 785.771,365.705 786.768,365.677 787.765,253.863 788.763,253.852 789.76,424.579 790.758,424.525 791.755,322.717 792.753,322.692 793.75,376.303 794.748,376.272 795.745,377.76 796.743,377.709 797.74,380.616 798.738,380.591 799.735,316.328 800.732,316.328 801.73,417.103 802.727,417.074 803.725,399.249 804.722,399.207 805.72,355.684 806.717,355.667 807.715,332.793 808.712,332.771 809.71,424.342 810.707,424.287 811.705,363.578 812.702,363.548 813.699,428.985 814.697,428.958 815.694,338.208 816.692,338.17 817.689,413.037 818.687,413.019 819.684,358.285 820.682,358.246 821.679,404.684 822.677,404.655 823.674,370.596 824.672,370.562 825.669,400.194 826.667,400.17 827.664,322.908 828.661,322.863 829.659,366.667 830.656,366.638 831.654,412.538 832.651,412.508 833.649,282.12 834.646,282.112 835.644,383.162 836.641,383.127 837.639,313.458 838.636,313.444 839.634,339.437 840.631,339.414 841.628,381.727 842.626,381.692 843.623,401.207 844.621,401.186 845.618,432.284 846.616,432.26 847.613,416.974 848.611,416.936 849.608,403.609 850.606,403.56 851.603,376.693 852.601,376.669 853.598,395.946 854.596,395.925 855.593,467.209 856.59,467.147 857.588,295.505 858.585,295.483 859.583,382.386 860.58,382.347 861.578,398.594 862.575,398.537 863.573,401.755 864.57,401.723 865.568,340.79 866.565,340.777 867.563,349.126 868.56,349.097 869.557,382.842 870.555,382.819 871.552,354.701 872.55,354.682 873.547,373.588 874.545,373.57 875.542,417.57 876.54,417.538 877.537,364.01 878.535,363.976 879.532,413.549 880.53,413.516 881.527,404.029 882.524,404.002 883.522,389.692 884.519,389.671 885.517,382.545 886.514,382.522 887.512,404.948 888.509,404.933 889.507,482.072 890.504,482.022 891.502,453.376 892.499,453.328 893.497,296.978 894.494,296.969 895.492,438.131 896.489,438.092 897.486,477.64 898.484,477.585 899.481,386.807 900.479,386.792 901.476,440.522 902.474,440.492 903.471,413.871 904.469,413.842 905.466,435.137 906.464,435.096 907.461,348.981 908.459,348.97 909.456,447.507 910.453,447.487 911.451,394.342 912.448,394.335 913.446,330.083 914.443,330.068 915.441,327.707 916.438,327.682 917.436,445.807 918.433,445.722 919.431,436.844 920.428,436.82 921.426,462.211 922.423,462.13 923.42,453.382 924.418,453.336 925.415,427.024 926.413,426.971 927.41,437.756 928.408,437.717 929.405,470.33 930.403,470.304 931.4,493.508 932.398,493.454 933.395,390.851 934.393,390.83 935.39,461.609 936.388,461.542 937.385,411.572 938.382,411.558 939.38,351.884 940.377,351.855 941.375,513.889 942.372,513.823 943.37,435.416 944.367,435.385 945.365,460.129 946.362,460.089 947.36,451.699 948.357,451.669 949.355,442.56 950.352,442.534 951.349,453.254 952.347,453.205 953.344,463.982 954.342,463.953 955.339,453.177 956.337,453.137 957.334,443.506 958.332,443.471 959.329,417.602 960.327,417.547 961.324,529.213 962.322,529.162 963.319,312.404 964.316,312.393 965.314,529.051 966.311,529.012 967.309,425.165 968.306,425.143 969.304,443.01 970.301,442.994 971.299,386.865 972.296,386.841 973.294,480.991 974.291,480.955 975.289,459.553 976.286,459.505 977.284,402.178 978.281,402.157 979.278,448.141 980.276,448.106 981.273,420.287 982.271,420.261 983.268,520.927 984.266,520.869 985.263,398.696 986.261,398.645 987.258,461.922 988.256,461.891 989.253,412.56 990.251,412.545 991.248,471.068 992.245,471.045 993.243,435.931 994.24,435.911 995.238,469.451 996.235,469.425 997.233,424.401 998.23,424.384 999.228,554.141 1000.23,554.09 1001.22,472.625 1002.22,472.594 1003.22,404.711 1004.22,404.691 1005.21,404.282 1006.21,404.262 1007.21,472.124 1008.2,472.071 1009.2,427.624 1010.2,427.595 1011.2,510.676 1012.19,510.642 1013.19,462.071 1014.19,462.047 1015.19,523.475 1016.18,523.446 1017.18,532.088 1018.18,532.043 1019.18,475.754 1020.17,475.721 1021.17,428.829 1022.17,428.809 1023.17,439.905 1024.16,439.881 1025.16,427.105 1026.16,427.091 1027.16,418.888 1028.15,418.874 1029.15,465.454 1030.15,465.414 1031.15,476.458 1032.14,476.443 1033.14,500.949 1034.14,500.918 1035.14,466.079 1036.13,466.057 1037.13,449.525 1038.13,449.481 1039.13,485.754 1040.12,485.708 1041.12,428.762 1042.12,428.74 1043.12,498.055 1044.11,498.013 1045.11,456.962 1046.11,456.919 1047.11,469.968 1048.1,469.926 1049.1,458.049 1050.1,458.025 1051.1,520.261 1052.09,520.194 1053.09,438.265 1054.09,438.242 1055.09,514.198 1056.08,514.16 1057.08,533.803 1058.08,533.769 1059.08,545.946 1060.07,545.892 1061.07,511.976 1062.07,511.951 1063.07,494.42 1064.06,494.382 1065.06,472.663 1066.06,472.601 1067.06,489.315 1068.05,489.262 1069.05,481.606 1070.05,481.577 1071.05,501.996 1072.04,501.922 1073.04,576.205 1074.04,576.15 1075.03,483.76 1076.03,483.729 1077.03,479.98 1078.03,479.949 1079.02,509.977 1080.02,509.95 1081.02,443.318 1082.02,443.305 1083.01,494.488 1084.01,494.406 1085.01,451.631 1086.01,451.603 1087,529.21 1088,529.164 1089,523.22 1090,523.183 1090.99,528.008 1091.99,527.952 1092.99,490.332 1093.99,490.279 1094.98,532.059 1095.98,532.017 1096.98,602.169 1097.98,602.126 1098.97,486.955 1099.97,486.935 1100.97,605.656 1101.97,605.6 1102.96,534.526 1103.96,534.493 1104.96,549.704 1105.96,549.647 1106.95,492.941 1107.95,492.903 1108.95,585.274 1109.95,585.22 1110.94,567.172 1111.94,567.12 1112.94,503.311 1113.94,503.296 1114.93,587.214 1115.93,587.166 1116.93,535.786 1117.93,535.753 1118.92,606.548 1119.92,606.501 1120.92,632.863 1121.92,632.801 1122.91,577.919 1123.91,577.846 1124.91,508.783 1125.91,508.746 1126.9,538.658 1127.9,538.635 1128.9,532.517 1129.9,532.483 1130.89,535.922 1131.89,535.871 1132.89,567.545 1133.89,567.504 1134.88,549.469 1135.88,549.444 1136.88,470.942 1137.88,470.919 1138.87,573.924 1139.87,573.908 1140.87,568.652 1141.87,568.59 1142.86,558.24 1143.86,558.186 1144.86,583.985 1145.85,583.922 1146.85,524.653 1147.85,524.612 1148.85,517.832 1149.84,517.816 1150.84,546.572 1151.84,546.5 1152.84,550.476 1153.83,550.44 1154.83,621.736 1155.83,621.621 1156.83,619.666 1157.82,619.627 1158.82,532.065 1159.82,532.037 1160.82,503.715 1161.81,503.686 1162.81,510.233 1163.81,510.205 1164.81,579.038 1165.8,579.013 1166.8,572.564 1167.8,572.54 1168.8,493.124 1169.79,493.1 1170.79,563.027 1171.79,562.934 1172.79,577.247 1173.78,577.214 1174.78,570.306 1175.78,570.272 1176.78,513.43 1177.77,513.409 1178.77,543.159 1179.77,543.137 1180.77,572.815 1181.76,572.785 1182.76,573.156 1183.76,573.124 1184.76,517.285 1185.75,517.211 1186.75,606.432 1187.75,606.392 1188.75,462.944 1189.74,462.922 1190.74,544.522 1191.74,544.488 1192.74,622.597 1193.73,622.536 1194.73,517.289 1195.73,517.187 1196.73,515.292 1197.72,515.275 1198.72,576.039 1199.72,575.987 1200.72,593.304 1201.71,593.267 1202.71,561.503 1203.71,561.47 1204.71,566.089 1205.7,566.062 1206.7,642.391 1207.7,642.341 1208.7,569.765 1209.69,569.726 1210.69,605.971 1211.69,605.887 1212.68,526.007 1213.68,525.975 1214.68,551.386 1215.68,551.34 1216.67,633.133 1217.67,633.082 1218.67,673.483 1219.67,673.442 1220.66,551.732 1221.66,551.711 1222.66,532.4 1223.66,532.356 1224.65,513.861 1225.65,513.819 1226.65,584.364 1227.65,584.324 1228.64,554.933 1229.64,554.898 1230.64,654.925 1231.64,654.858 1232.63,559.379 1233.63,559.332 1234.63,643.49 1235.63,643.455 1236.62,545.961 1237.62,545.932 1238.62,625.55 1239.62,625.492 1240.61,494.258 1241.61,494.231 1242.61,625.104 1243.61,625.058 1244.6,537.799 1245.6,537.766 1246.6,532.532 1247.6,532.508 1248.59,523.69 1249.59,523.666 1250.59,578.745 1251.59,578.677 1252.58,608.092 1253.58,608.061 1254.58,590.951 1255.58,590.919 1256.57,637.789 1257.57,637.719 1258.57,547.515 1259.57,547.466 1260.56,606.236 1261.56,606.19 1262.56,592.398 1263.56,592.356 1264.55,592.479 1265.55,592.448 1266.55,572.472 1267.55,572.407 1268.54,615.379 1269.54,615.333 1270.54,653.409 1271.54,653.353 1272.53,643.172 1273.53,643.138 1274.53,561.714 1275.53,561.691 1276.52,620.789 1277.52,620.754 1278.52,649.106 1279.51,649.058 1280.51,535.948 1281.51,535.935 1282.51,627.551 1283.5,627.514 1284.5,585.576 1285.5,585.547 1286.5,630.595 1287.49,630.509 1288.49,661.526 1289.49,661.444 1290.49,522.595 1291.48,522.533 1292.48,631.613 1293.48,631.567 1294.48,561.799 1295.47,561.756 1296.47,589.186 1297.47,589.142 1298.47,685.596 1299.46,685.537 1300.46,599.484 1301.46,599.46 1302.46,594.935 1303.45,594.907 1304.45,643.436 1305.45,643.405 1306.45,587.501 1307.44,587.449 1308.44,648.53 1309.44,648.477 1310.44,680.25 1311.43,680.2 1312.43,624.746 1313.43,624.697 1314.43,600.238 1315.42,600.204 1316.42,677.673 1317.42,677.608 1318.42,640.536 1319.41,640.5 1320.41,654.142 1321.41,654.098 1322.41,549.942 1323.4,549.917 1324.4,688.598 1325.4,688.546 1326.4,612.519 1327.39,612.462 1328.39,595.76 1329.39,595.73 1330.39,626.106 1331.38,626.06 1332.38,680.61 1333.38,680.568 1334.38,649.588 1335.37,649.568 1336.37,521.689 1337.37,521.66 1338.37,580.269 1339.36,580.243 1340.36,651.723 1341.36,651.691 1342.36,701.316 1343.35,701.279 1344.35,649.609 1345.35,649.565 1346.35,575.832 1347.34,575.782 1348.34,702.475 1349.34,702.419 1350.33,667.4 1351.33,667.341 1352.33,627.508 1353.33,627.473 1354.32,506.229 1355.32,506.22 1356.32,695.07 1357.32,695.005 1358.31,639.098 1359.31,639.045 1360.31,612.63 1361.31,612.604 1362.3,679.953 1363.3,679.862 1364.3,600.195 1365.3,600.162 1366.29,678.868 1367.29,678.836 1368.29,620.444 1369.29,620.401 1370.28,787.141 1371.28,787.094 1372.28,755.121 1373.28,755.057 1374.27,649.53 1375.27,649.506 1376.27,646.114 1377.27,646.049 1378.26,576.515 1379.26,576.463 1380.26,704.815 1381.26,704.766 1382.25,702.752 1383.25,702.71 1384.25,610.78 1385.25,610.754 1386.24,627.569 1387.24,627.542 1388.24,654.852 1389.24,654.81 1390.23,665.229 1391.23,665.189 1392.23,583.188 1393.23,583.161 1394.22,673.675 1395.22,673.633 1396.22,740.593 1397.22,740.532 1398.21,764.192 1399.21,764.119 1400.21,632.499 1401.21,632.454 1402.2,646.706 1403.2,646.675 1404.2,688.962 1405.2,688.917 1406.19,691.116 1407.19,691.065 1408.19,703.781 1409.19,703.695 1410.18,664.29 1411.18,664.259 1412.18,746.959 1413.18,746.897 1414.17,696.129 1415.17,696.049 1416.17,713.37 1417.16,713.326 1418.16,673.675 1419.16,673.639 1420.16,676.327 1421.15,676.239 1422.15,681.812 1423.15,681.756 1424.15,724.168 1425.14,724.132 1426.14,666.634 1427.14,666.519 1428.14,707.422 1429.13,707.365 1430.13,753.464 1431.13,753.388 1432.13,688.684 1433.12,688.644 1434.12,654.014 1435.12,653.977 1436.12,683.124 1437.11,683.077 1438.11,681.053 1439.11,680.992 1440.11,717.404 1441.1,717.367 1442.1,743.836 1443.1,743.785 1444.1,664.587 1445.09,664.532 1446.09,799.523 1447.09,799.434 1448.09,827.24 1449.08,827.173 1450.08,678.641 1451.08,678.594 1452.08,667.488 1453.07,667.461 1454.07,777.077 1455.07,777.01 1456.07,755.932 1457.06,755.876 1458.06,691.85 1459.06,691.795 1460.06,714.205 1461.05,714.143 1462.05,754.045 1463.05,753.978 1464.05,785.252 1465.04,785.2 1466.04,654.332 1467.04,654.275 1468.04,739.281 1469.03,739.232 1470.03,681.958 1471.03,681.929 1472.03,701.852 1473.02,701.82 1474.02,691.375 1475.02,691.337 1476.02,796.643 1477.01,796.599 1478.01,688.385 1479.01,688.33 1480.01,686.908 1481,686.831 1482,714.123 1483,714.082 1484,707.992 1484.99,707.949 1485.99,779.923 1486.99,779.877 1487.98,761.699 1488.98,761.643 1489.98,662.779 1490.98,662.714 1491.97,667.697 1492.97,667.67 1493.97,630.791 1494.97,630.764 1495.96,668.319 1496.96,668.294 1497.96,792.405 1498.96,792.35 1499.95,775.141 1500.95,775.091 1501.95,660.994 1502.95,660.936 1503.94,762.205 1504.94,762.159 1505.94,739.93 1506.94,739.868 1507.93,736.362 1508.93,736.274 1509.93,813.153 1510.93,813.095 1511.92,714.907 1512.92,714.84 1513.92,737.97 1514.92,737.913 1515.91,765.658 1516.91,765.53 1517.91,770.076 1518.91,769.896 1519.9,840.725 1520.9,840.628 1521.9,747.542 1522.9,747.496 1523.89,750.49 1524.89,750.453 1525.89,775.17 1526.89,775.109 1527.88,688.098 1528.88,688.054 1529.88,786.133 1530.88,786.025 1531.87,774.372 1532.87,774.322 1533.87,715.435 1534.87,715.402 1535.86,759.158 1536.86,759.066 1537.86,720.944 1538.86,720.904 1539.85,723.199 1540.85,723.154 1541.85,689.184 1542.85,689.154 1543.84,699.439 1544.84,699.367 1545.84,847.338 1546.84,847.19 1547.83,784.084 1548.83,784.037 1549.83,720.564 1550.83,720.518 1551.82,798.054 1552.82,797.991 1553.82,769.182 1554.81,769.061 1555.81,713.179 1556.81,713.089 1557.81,908.664 1558.8,908.612 1559.8,794.454 1560.8,794.335 1561.8,862.56 1562.79,862.501 1563.79,760.435 1564.79,760.397 1565.79,743.369 1566.78,743.345 1567.78,903.705 1568.78,903.624 1569.78,787.758 1570.77,787.649 1571.77,804.598 1572.77,804.492 1573.77,840.131 1574.76,840.077 1575.76,748.212 1576.76,748.182 1577.76,851.499 1578.75,851.458 1579.75,665.541 1580.75,665.516 1581.75,840.357 1582.74,840.315 1583.74,802.43 1584.74,802.384 1585.74,833.05 1586.73,832.969 1587.73,745.022 1588.73,744.961 1589.73,855.783 1590.72,855.735 1591.72,753.962 1592.72,753.921 1593.72,852.232 1594.71,852.139 1595.71,715.931 1596.71,715.909 1597.71,811.861 1598.7,811.718 1599.7,813.004 1600.7,812.951 1601.7,795.006 1602.69,794.943 1603.69,754.131 1604.69,754.095 1605.69,835.117 1606.68,835.076 1607.68,719.999 1608.68,719.937 1609.68,755.375 1610.67,755.36 1611.67,811.773 1612.67,811.725 1613.67,922.195 1614.66,922.083 1615.66,803.084 1616.66,802.986 1617.66,784.073 1618.65,784.022 1619.65,901.939 1620.65,901.82 1621.65,768.371 1622.64,768.317 1623.64,862.648 1624.64,862.546 1625.63,743.911 1626.63,743.889 1627.63,724.501 1628.63,724.399 1629.62,737.497 1630.62,737.444 1631.62,850.84 1632.62,850.783 1633.61,792.79 1634.61,792.728 1635.61,800.413 1636.61,800.338 1637.6,756.67 1638.6,756.634 1639.6,906.672 1640.6,906.612 1641.59,764.003 1642.59,763.943 1643.59,783.093 1644.59,783.042 1645.58,823.302 1646.58,823.257 1647.58,885.639 1648.58,885.558 1649.57,793.119 1650.57,793.055 1651.57,768.446 1652.57,768.432 1653.56,905.888 1654.56,905.792 1655.56,815.598 1656.56,815.558 1657.55,758.126 1658.55,758.093 1659.55,927.924 1660.55,927.851 1661.54,813.202 1662.54,813.161 1663.54,798.713 1664.54,798.631 1665.53,827.141 1666.53,827.078 1667.53,795.776 1668.53,795.658 1669.52,859.475 1670.52,859.423 1671.52,881.564 1672.52,881.488 1673.51,778.359 1674.51,778.303 1675.51,850.302 1676.51,850.258 1677.5,932.86 1678.5,932.771 1679.5,814.007 1680.5,813.951 1681.49,893.911 1682.49,893.864 1683.49,763.998 1684.49,763.957 1685.48,826.566 1686.48,826.437 1687.48,850.209 1688.48,850.177 1689.47,787.817 1690.47,787.785 1691.47,888.887 1692.46,888.84 1693.46,838.315 1694.46,838.247 1695.46,862.966 1696.45,862.883 1697.45,966.056 1698.45,965.971 1699.45,879.379 1700.44,879.263 1701.44,869.046 1702.44,868.997 1703.44,864.805 1704.43,864.734 1705.43,912.128 1706.43,911.972 1707.43,872.149 1708.42,872.086 1709.42,934.492 1710.42,934.363 1711.42,971.016 1712.41,970.93 1713.41,765.885 1714.41,765.806 1715.41,808.651 1716.4,808.554 1717.4,833.995 1718.4,833.89 1719.4,953.905 1720.39,953.842 1721.39,890.331 1722.39,890.195 1723.39,932.237 1724.38,932.166 1725.38,830.164 1726.38,830.122 1727.38,843.791 1728.37,843.747 1729.37,911.354 1730.37,911.26 1731.37,894.295 1732.36,894.227 1733.36,904.118 1734.36,904.034 1735.36,869.216 1736.35,869.166 1737.35,879.969 1738.35,879.921 1739.35,905.754 1740.34,905.7 1741.34,912.574 1742.34,912.522 1743.34,807.747 1744.33,807.714 1745.33,901.821 1746.33,901.731 1747.33,868.933 1748.32,868.899 1749.32,964.352 1750.32,964.274 1751.32,877.578 1752.31,877.537 1753.31,975.293 1754.31,975.227 1755.31,830.767 1756.3,830.727 1757.3,872.546 1758.3,872.486 1759.29,793.616 1760.29,793.524 1761.29,875.249 1762.29,875.198 1763.28,844.098 1764.28,844.055 1765.28,882.641 1766.28,882.593 1767.27,926.541 1768.27,926.469 1769.27,860.19 1770.27,860.089 1771.26,879.74 1772.26,879.667 1773.26,894.579 1774.26,894.505 1775.25,876.835 1776.25,876.746 1777.25,932.7 1778.25,932.643 1779.24,1018.16 1780.24,1018.04 1781.24,915.331 1782.24,915.216 1783.23,849.862 1784.23,849.831 1785.23,924.882 1786.23,924.785 1787.22,930.495 1788.22,930.449 1789.22,959.726 1790.22,959.692 1791.21,775.484 1792.21,775.453 1793.21,873.945 1794.21,873.819 1795.2,946.545 1796.2,946.445 1797.2,865.934 1798.2,865.862 1799.19,865.713 1800.19,865.659 1801.19,891.596 1802.19,891.496 1803.18,952.735 1804.18,952.693 1805.18,895.352 1806.18,895.263 1807.17,961.764 1808.17,961.69 1809.17,962.367 1810.17,962.311 1811.16,864.915 1812.16,864.881 1813.16,936.986 1814.16,936.937 1815.15,925.359 1816.15,925.282 1817.15,932.155 1818.15,932.111 1819.14,891.695 1820.14,891.573 1821.14,1005.87 1822.14,1005.82 1823.13,948.844 1824.13,948.766 1825.13,918.563 1826.13,918.5 1827.12,936.579 1828.12,936.528 1829.12,845.78 1830.11,845.722 1831.11,1005.34 1832.11,1005.19 1833.11,940.882 1834.1,940.826 1835.1,873.867 1836.1,873.808 1837.1,892.484 1838.09,892.433 1839.09,913.137 1840.09,913.057 1841.09,1024.98 1842.08,1024.92 1843.08,920.232 1844.08,920.183 1845.08,882.088 1846.07,882.044 1847.07,1021.12 1848.07,1021.02 1849.07,951.931 1850.06,951.814 1851.06,942.017 1852.06,941.931 1853.06,1016.84 1854.05,1016.79 1855.05,953.267 1856.05,953.246 1857.05,1030.71 1858.04,1030.59 1859.04,1008.54 1860.04,1008.46 1861.04,918.005 1862.03,917.911 1863.03,1040.15 1864.03,1040.08 1865.03,1026.92 1866.02,1026.87 1867.02,961.814 1868.02,961.748 1869.02,990.103 1870.01,989.997 1871.01,929.687 1872.01,929.618 1873.01,936.204 1874,936.157 1875,946.288 1876,946.218 1877,1031.15 1877.99,1031.04 1878.99,1008.98 1879.99,1008.91 1880.99,996.051 1881.98,995.991 1882.98,1024.5 1883.98,1024.32 1884.98,1031.04 1885.97,1030.94 1886.97,998.532 1887.97,998.426 1888.97,907.053 1889.96,907.025 1890.96,1020.14 1891.96,1020.05 1892.96,916.522 1893.95,916.45 1894.95,1010.41 1895.95,1010.35 1896.94,949.897 1897.94,949.86 1898.94,1078.27 1899.94,1078.14 1900.93,1059.3 1901.93,1059.24 1902.93,1054.07 1903.93,1053.97 1904.92,949.077 1905.92,948.95 1906.92,1049.95 1907.92,1049.85 1908.91,839.157 1909.91,839.057 1910.91,1000.36 1911.91,1000.28 1912.9,1007.28 1913.9,1007.22 1914.9,1074.04 1915.9,1073.89 1916.89,1004.8 1917.89,1004.68 1918.89,901.092 1919.89,901.044 1920.88,1079.34 1921.88,1079.29 1922.88,1118.74 1923.88,1118.62 1924.87,1039.05 1925.87,1038.95 1926.87,1043.15 1927.87,1043.08 1928.86,1107.4 1929.86,1107.26 1930.86,1078.29 1931.86,1078.17 1932.85,997.872 1933.85,997.73 1934.85,1022.27 1935.85,1022.13 1936.84,1052.62 1937.84,1052.54 1938.84,1073.99 1939.84,1073.91 1940.83,965.286 1941.83,965.239 1942.83,1096.78 1943.83,1096.68 1944.82,939.121 1945.82,939.073 1946.82,941.865 1947.82,941.811 1948.81,1031.08 1949.81,1030.99 1950.81,977.218 1951.81,977.101 1952.8,990.538 1953.8,990.474 1954.8,1077.56 1955.8,1077.44 1956.79,898.538 1957.79,898.436 1958.79,1083.53 1959.79,1083.42 1960.78,1133.9 1961.78,1133.83 1962.78,1111.03 1963.78,1110.96 1964.77,1096.64 1965.77,1096.53 1966.77,993.155 1967.76,993.085 1968.76,1030.7 1969.76,1030.65 1970.76,1068.07 1971.75,1067.89 1972.75,1065.99 1973.75,1065.93 1974.75,1046.99 1975.74,1046.9 1976.74,969.248 1977.74,969.215 1978.74,1122.64 1979.73,1122.45 1980.73,1112.38 1981.73,1112.26 1982.73,1079.36 1983.72,1079.28 1984.72,1022.88 1985.72,1022.82 1986.72,1103.19 1987.71,1103.12 1988.71,1007.17 1989.71,1007.11 1990.71,1101.66 1991.7,1101.55 1992.7,960.975 1993.7,960.937 1994.7,1128.73 1995.69,1128.66 1996.69,1056.74 1997.69,1056.68 1998.69,1019.78 1999.68,1019.7 2000.68,1130.87 2001.68,1130.78 2002.68,1061.59 2003.67,1061.53 2004.67,1115.38 2005.67,1115.21 2006.67,1091.47 2007.66,1091.41 2008.66,1196.11 2009.66,1195.97 2010.66,1179.49 2011.65,1179.31 2012.65,1071 2013.65,1070.94 2014.65,1110.53 2015.64,1110.31 2016.64,1036.41 2017.64,1036.37 2018.64,1185.83 2019.63,1185.7 2020.63,978.283 2021.63,978.214 2022.63,1047.17 2023.62,1047.12 2024.62,1218.58 2025.62,1218.44 2026.62,1108.72 2027.61,1108.57 2028.61,1285.45 2029.61,1285.32 2030.61,1136 2031.6,1135.88 2032.6,1122.66 2033.6,1122.6 2034.59,1195.18 2035.59,1195.06 2036.59,1168.65 2037.59,1168.57 2038.58,1124.84 2039.58,1124.74 2040.58,1190.79 2041.58,1190.69 2042.57,1148.82 2043.57,1148.64 2044.57,1091.87 2045.57,1091.8 2046.56,1122.11 2047.56,1122.03 2048.56,1146.19 2049.56,1146.17 2050.55,1099.72 2051.55,1099.67 2052.55,1114.74 2053.55,1114.68 2054.54,1048.78 2055.54,1048.7 2056.54,1165.21 2057.54,1165.15 2058.53,1080.03 2059.53,1079.98 2060.53,1174.59 2061.53,1174.45 2062.52,1051.14 2063.52,1051.1 2064.52,1108.96 2065.52,1108.92 2066.51,1057.92 2067.51,1057.85 2068.51,1151.4 2069.51,1151.34 2070.5,1176.37 2071.5,1176.29 2072.5,1102.33 2073.5,1102.25 2074.49,1213.53 2075.49,1213.45 2076.49,1184.34 2077.49,1184.27 2078.48,1100.09 2079.48,1100 2080.48,1078.21 2081.48,1078.09 2082.47,1172.31 2083.47,1172.27 2084.47,1128.91 2085.47,1128.86 2086.46,1258.59 2087.46,1258.49 2088.46,1114.03 2089.46,1113.94 2090.45,1253.77 2091.45,1253.69 2092.45,1207.81 2093.45,1207.7 2094.44,1229.48 2095.44,1229.36 2096.44,1096.92 2097.44,1096.89 2098.43,1226.04 2099.43,1225.95 2100.43,1113.03 2101.43,1112.98 2102.42,1170.52 2103.42,1170.47 2104.42,1183.42 2105.41,1183.33 2106.41,1162.37 2107.41,1162.22 2108.41,1191.91 2109.4,1191.82 2110.4,1165.32 2111.4,1165.24 2112.4,1289.67 2113.39,1289.52 2114.39,1108.67 2115.39,1108.64 2116.39,1242.67 2117.38,1242.53 2118.38,1163.02 2119.38,1162.92 2120.38,1079.45 2121.37,1079.41 2122.37,1168.05 2123.37,1167.94 2124.37,1156.45 2125.36,1156.38 2126.36,1223.41 2127.36,1223.23 2128.36,1178 2129.35,1177.93 2130.35,1152.99 2131.35,1152.91 2132.35,1233.72 2133.34,1233.56 2134.34,1175.33 2135.34,1175.19 2136.34,1263.75 2137.33,1263.59 2138.33,1264.49 2139.33,1264.36 2140.33,1324.92 2141.32,1324.78 2142.32,1119.99 2143.32,1119.89 2144.32,1206.76 2145.31,1206.67 2146.31,1261.83 2147.31,1261.73 2148.31,1290.99 2149.3,1290.77 2150.3,1270.24 2151.3,1270.15 2152.3,1167.78 2153.29,1167.69 2154.29,1265.45 2155.29,1265.33 2156.29,1198.8 2157.28,1198.7 2158.28,1198.09 2159.28,1197.97 2160.28,1193.85 2161.27,1193.71 2162.27,1232.64 2163.27,1232.55 2164.27,1297.7 2165.26,1297.62 2166.26,1223.27 2167.26,1223.16 2168.26,1325.69 2169.25,1325.61 2170.25,1320.91 2171.25,1320.81 2172.24,1242.07 2173.24,1242 2174.24,1296.98 2175.24,1296.92 2176.23,1260.7 2177.23,1260.6 2178.23,1226.3 2179.23,1226.16 2180.22,1181.66 2181.22,1181.58 2182.22,1295.54 2183.22,1295.44 2184.21,1319.54 2185.21,1319.38 2186.21,1183.16 2187.21,1183.09 2188.2,1383.49 2189.2,1383.35 2190.2,1158.58 2191.2,1158.48 2192.19,1256.31 2193.19,1256.21 2194.19,1219.23 2195.19,1219.14 2196.18,1264.24 2197.18,1264.12 2198.18,1321.51 2199.18,1321.27 2200.17,1260.08 2201.17,1259.92 2202.17,1323.25 2203.17,1323.12 2204.16,1337.49 2205.16,1337.35 2206.16,1306.79 2207.16,1306.71 2208.15,1355.94 2209.15,1355.78 2210.15,1281.42 2211.15,1281.33 2212.14,1151.31 2213.14,1151.19 2214.14,1218.68 2215.14,1218.63 2216.13,1264.34 2217.13,1264.25 2218.13,1255.93 2219.13,1255.8 2220.12,1330.89 2221.12,1330.63 2222.12,1289.22 2223.12,1289.06 2224.11,1262.27 2225.11,1262.19 2226.11,1248.49 2227.11,1248.44 2228.1,1174.89 2229.1,1174.8 2230.1,1247.1 2231.1,1246.95 2232.09,1242.51 2233.09,1242.46 2234.09,1270.21 2235.09,1270.15 2236.08,1310.43 2237.08,1310.37 2238.08,1247.99 2239.07,1247.87 2240.07,1295.95 2241.07,1295.82 2242.07,1338.91 2243.06,1338.74 2244.06,1365.3 2245.06,1365.17 2246.06,1237.7 2247.05,1237.64 2248.05,1346.48 2249.05,1346.32 2250.05,1305.56 2251.04,1305.5 2252.04,1351.94 2253.04,1351.84 2254.04,1303.68 2255.03,1303.59 2256.03,1228.67 2257.03,1228.62 2258.03,1203.38 2259.02,1203.32 2260.02,1238.23 2261.02,1238.12 2262.02,1423.71 2263.01,1423.57 2264.01,1294.95 2265.01,1294.84 2266.01,1308.88 2267,1308.69 2268,1272.48 2269,1272.41 2270,1319.64 2270.99,1319.5 2271.99,1344.9 2272.99,1344.75 2273.99,1271.81 2274.98,1271.74 2275.98,1335.15 2276.98,1334.88 2277.98,1285.37 2278.97,1285.27 2279.97,1445.72 2280.97,1445.53 2281.97,1416.78 2282.96,1416.45 2283.96,1254.24 2284.96,1254.19 2285.96,1338.27 2286.95,1338.19 2287.95,1419.72 2288.95,1419.64 2289.95,1358.53 2290.94,1358.42 2291.94,1287.77 2292.94,1287.64 "/>
<path clip-path="url(#clip790)" d="M2018.52 198.898 L2282.3 198.898 L2282.3 95.2176 L2018.52 95.2176  Z" fill="#ffffff" fill-rule="evenodd" fill-opacity="1"/>
<polyline clip-path="url(#clip790)" style="stroke:#000000; stroke-linecap:round; stroke-linejoin:round; stroke-width:4; stroke-opacity:1; fill:none" points="2018.52,198.898 2282.3,198.898 2282.3,95.2176 2018.52,95.2176 2018.52,198.898 "/>
<polyline clip-path="url(#clip790)" style="stroke:#009af9; stroke-linecap:round; stroke-linejoin:round; stroke-width:4; stroke-opacity:1; fill:none" points="2042,147.058 2182.91,147.058 "/>
<path clip-path="url(#clip790)" d="M2220.23 166.745 Q2218.43 171.375 2216.71 172.787 Q2215 174.199 2212.13 174.199 L2208.73 174.199 L2208.73 170.634 L2211.23 170.634 Q2212.99 170.634 2213.96 169.8 Q2214.93 168.967 2216.11 165.865 L2216.88 163.921 L2206.39 138.412 L2210.9 138.412 L2219.01 158.689 L2227.11 138.412 L2231.62 138.412 L2220.23 166.745 Z" fill="#000000" fill-rule="nonzero" fill-opacity="1" /><path clip-path="url(#clip790)" d="M2238.91 160.402 L2246.55 160.402 L2246.55 134.037 L2238.24 135.703 L2238.24 131.444 L2246.5 129.778 L2251.18 129.778 L2251.18 160.402 L2258.82 160.402 L2258.82 164.338 L2238.91 164.338 L2238.91 160.402 Z" fill="#000000" fill-rule="nonzero" fill-opacity="1" /></svg>
