<?xml version="1.0" encoding="utf-8"?>
<svg xmlns="http://www.w3.org/2000/svg" xmlns:xlink="http://www.w3.org/1999/xlink" width="600" height="400" viewBox="0 0 2400 1600">
<defs>
  <clipPath id="clip530">
    <rect x="0" y="0" width="2400" height="1600"/>
  </clipPath>
</defs>
<path clip-path="url(#clip530)" d="M0 1600 L2400 1600 L2400 0 L0 0  Z" fill="#ffffff" fill-rule="evenodd" fill-opacity="1"/>
<defs>
  <clipPath id="clip531">
    <rect x="480" y="0" width="1681" height="1600"/>
  </clipPath>
</defs>
<path clip-path="url(#clip530)" d="M209.029 1486.45 L2352.76 1486.45 L2352.76 47.2441 L209.029 47.2441  Z" fill="#ffffff" fill-rule="evenodd" fill-opacity="1"/>
<defs>
  <clipPath id="clip532">
    <rect x="209" y="47" width="2145" height="1440"/>
  </clipPath>
</defs>
<polyline clip-path="url(#clip532)" style="stroke:#000000; stroke-linecap:round; stroke-linejoin:round; stroke-width:2; stroke-opacity:0.1; fill:none" points="269.7,1486.45 269.7,47.2441 "/>
<polyline clip-path="url(#clip532)" style="stroke:#000000; stroke-linecap:round; stroke-linejoin:round; stroke-width:2; stroke-opacity:0.1; fill:none" points="775.549,1486.45 775.549,47.2441 "/>
<polyline clip-path="url(#clip532)" style="stroke:#000000; stroke-linecap:round; stroke-linejoin:round; stroke-width:2; stroke-opacity:0.1; fill:none" points="1281.4,1486.45 1281.4,47.2441 "/>
<polyline clip-path="url(#clip532)" style="stroke:#000000; stroke-linecap:round; stroke-linejoin:round; stroke-width:2; stroke-opacity:0.1; fill:none" points="1787.25,1486.45 1787.25,47.2441 "/>
<polyline clip-path="url(#clip532)" style="stroke:#000000; stroke-linecap:round; stroke-linejoin:round; stroke-width:2; stroke-opacity:0.1; fill:none" points="2293.1,1486.45 2293.1,47.2441 "/>
<polyline clip-path="url(#clip530)" style="stroke:#000000; stroke-linecap:round; stroke-linejoin:round; stroke-width:4; stroke-opacity:1; fill:none" points="209.029,1486.45 2352.76,1486.45 "/>
<polyline clip-path="url(#clip530)" style="stroke:#000000; stroke-linecap:round; stroke-linejoin:round; stroke-width:4; stroke-opacity:1; fill:none" points="269.7,1486.45 269.7,1467.55 "/>
<polyline clip-path="url(#clip530)" style="stroke:#000000; stroke-linecap:round; stroke-linejoin:round; stroke-width:4; stroke-opacity:1; fill:none" points="775.549,1486.45 775.549,1467.55 "/>
<polyline clip-path="url(#clip530)" style="stroke:#000000; stroke-linecap:round; stroke-linejoin:round; stroke-width:4; stroke-opacity:1; fill:none" points="1281.4,1486.45 1281.4,1467.55 "/>
<polyline clip-path="url(#clip530)" style="stroke:#000000; stroke-linecap:round; stroke-linejoin:round; stroke-width:4; stroke-opacity:1; fill:none" points="1787.25,1486.45 1787.25,1467.55 "/>
<polyline clip-path="url(#clip530)" style="stroke:#000000; stroke-linecap:round; stroke-linejoin:round; stroke-width:4; stroke-opacity:1; fill:none" points="2293.1,1486.45 2293.1,1467.55 "/>
<path clip-path="url(#clip530)" d="M269.7 1517.37 Q266.089 1517.37 264.26 1520.93 Q262.455 1524.47 262.455 1531.6 Q262.455 1538.71 264.26 1542.27 Q266.089 1545.82 269.7 1545.82 Q273.334 1545.82 275.14 1542.27 Q276.969 1538.71 276.969 1531.6 Q276.969 1524.47 275.14 1520.93 Q273.334 1517.37 269.7 1517.37 M269.7 1513.66 Q275.51 1513.66 278.566 1518.27 Q281.644 1522.85 281.644 1531.6 Q281.644 1540.33 278.566 1544.94 Q275.51 1549.52 269.7 1549.52 Q263.89 1549.52 260.811 1544.94 Q257.756 1540.33 257.756 1531.6 Q257.756 1522.85 260.811 1518.27 Q263.89 1513.66 269.7 1513.66 Z" fill="#000000" fill-rule="nonzero" fill-opacity="1" /><path clip-path="url(#clip530)" d="M735.167 1514.29 L753.524 1514.29 L753.524 1518.22 L739.45 1518.22 L739.45 1526.7 Q740.468 1526.35 741.487 1526.19 Q742.505 1526 743.524 1526 Q749.311 1526 752.69 1529.17 Q756.07 1532.34 756.07 1537.76 Q756.07 1543.34 752.598 1546.44 Q749.126 1549.52 742.806 1549.52 Q740.63 1549.52 738.362 1549.15 Q736.116 1548.78 733.709 1548.04 L733.709 1543.34 Q735.792 1544.47 738.015 1545.03 Q740.237 1545.58 742.714 1545.58 Q746.718 1545.58 749.056 1543.48 Q751.394 1541.37 751.394 1537.76 Q751.394 1534.15 749.056 1532.04 Q746.718 1529.94 742.714 1529.94 Q740.839 1529.94 738.964 1530.35 Q737.112 1530.77 735.167 1531.65 L735.167 1514.29 Z" fill="#000000" fill-rule="nonzero" fill-opacity="1" /><path clip-path="url(#clip530)" d="M775.283 1517.37 Q771.672 1517.37 769.843 1520.93 Q768.038 1524.47 768.038 1531.6 Q768.038 1538.71 769.843 1542.27 Q771.672 1545.82 775.283 1545.82 Q778.917 1545.82 780.723 1542.27 Q782.551 1538.71 782.551 1531.6 Q782.551 1524.47 780.723 1520.93 Q778.917 1517.37 775.283 1517.37 M775.283 1513.66 Q781.093 1513.66 784.149 1518.27 Q787.227 1522.85 787.227 1531.6 Q787.227 1540.33 784.149 1544.94 Q781.093 1549.52 775.283 1549.52 Q769.473 1549.52 766.394 1544.94 Q763.338 1540.33 763.338 1531.6 Q763.338 1522.85 766.394 1518.27 Q769.473 1513.66 775.283 1513.66 Z" fill="#000000" fill-rule="nonzero" fill-opacity="1" /><path clip-path="url(#clip530)" d="M805.445 1517.37 Q801.834 1517.37 800.005 1520.93 Q798.199 1524.47 798.199 1531.6 Q798.199 1538.71 800.005 1542.27 Q801.834 1545.82 805.445 1545.82 Q809.079 1545.82 810.885 1542.27 Q812.713 1538.71 812.713 1531.6 Q812.713 1524.47 810.885 1520.93 Q809.079 1517.37 805.445 1517.37 M805.445 1513.66 Q811.255 1513.66 814.31 1518.27 Q817.389 1522.85 817.389 1531.6 Q817.389 1540.33 814.31 1544.94 Q811.255 1549.52 805.445 1549.52 Q799.635 1549.52 796.556 1544.94 Q793.5 1540.33 793.5 1531.6 Q793.5 1522.85 796.556 1518.27 Q799.635 1513.66 805.445 1513.66 Z" fill="#000000" fill-rule="nonzero" fill-opacity="1" /><path clip-path="url(#clip530)" d="M1225.92 1544.91 L1233.56 1544.91 L1233.56 1518.55 L1225.25 1520.21 L1225.25 1515.95 L1233.52 1514.29 L1238.19 1514.29 L1238.19 1544.91 L1245.83 1544.91 L1245.83 1548.85 L1225.92 1548.85 L1225.92 1544.91 Z" fill="#000000" fill-rule="nonzero" fill-opacity="1" /><path clip-path="url(#clip530)" d="M1265.28 1517.37 Q1261.66 1517.37 1259.84 1520.93 Q1258.03 1524.47 1258.03 1531.6 Q1258.03 1538.71 1259.84 1542.27 Q1261.66 1545.82 1265.28 1545.82 Q1268.91 1545.82 1270.72 1542.27 Q1272.54 1538.71 1272.54 1531.6 Q1272.54 1524.47 1270.72 1520.93 Q1268.91 1517.37 1265.28 1517.37 M1265.28 1513.66 Q1271.09 1513.66 1274.14 1518.27 Q1277.22 1522.85 1277.22 1531.6 Q1277.22 1540.33 1274.14 1544.94 Q1271.09 1549.52 1265.28 1549.52 Q1259.47 1549.52 1256.39 1544.94 Q1253.33 1540.33 1253.33 1531.6 Q1253.33 1522.85 1256.39 1518.27 Q1259.47 1513.66 1265.28 1513.66 Z" fill="#000000" fill-rule="nonzero" fill-opacity="1" /><path clip-path="url(#clip530)" d="M1295.44 1517.37 Q1291.83 1517.37 1290 1520.93 Q1288.19 1524.47 1288.19 1531.6 Q1288.19 1538.71 1290 1542.27 Q1291.83 1545.82 1295.44 1545.82 Q1299.07 1545.82 1300.88 1542.27 Q1302.71 1538.71 1302.71 1531.6 Q1302.71 1524.47 1300.88 1520.93 Q1299.07 1517.37 1295.44 1517.37 M1295.44 1513.66 Q1301.25 1513.66 1304.3 1518.27 Q1307.38 1522.85 1307.38 1531.6 Q1307.38 1540.33 1304.3 1544.94 Q1301.25 1549.52 1295.44 1549.52 Q1289.63 1549.52 1286.55 1544.94 Q1283.49 1540.33 1283.49 1531.6 Q1283.49 1522.85 1286.55 1518.27 Q1289.63 1513.66 1295.44 1513.66 Z" fill="#000000" fill-rule="nonzero" fill-opacity="1" /><path clip-path="url(#clip530)" d="M1325.6 1517.37 Q1321.99 1517.37 1320.16 1520.93 Q1318.35 1524.47 1318.35 1531.6 Q1318.35 1538.71 1320.16 1542.27 Q1321.99 1545.82 1325.6 1545.82 Q1329.23 1545.82 1331.04 1542.27 Q1332.87 1538.71 1332.87 1531.6 Q1332.87 1524.47 1331.04 1520.93 Q1329.23 1517.37 1325.6 1517.37 M1325.6 1513.66 Q1331.41 1513.66 1334.46 1518.27 Q1337.54 1522.85 1337.54 1531.6 Q1337.54 1540.33 1334.46 1544.94 Q1331.41 1549.52 1325.6 1549.52 Q1319.79 1549.52 1316.71 1544.94 Q1313.65 1540.33 1313.65 1531.6 Q1313.65 1522.85 1316.71 1518.27 Q1319.79 1513.66 1325.6 1513.66 Z" fill="#000000" fill-rule="nonzero" fill-opacity="1" /><path clip-path="url(#clip530)" d="M1731.77 1544.91 L1739.41 1544.91 L1739.41 1518.55 L1731.1 1520.21 L1731.1 1515.95 L1739.37 1514.29 L1744.04 1514.29 L1744.04 1544.91 L1751.68 1544.91 L1751.68 1548.85 L1731.77 1548.85 L1731.77 1544.91 Z" fill="#000000" fill-rule="nonzero" fill-opacity="1" /><path clip-path="url(#clip530)" d="M1761.17 1514.29 L1779.53 1514.29 L1779.53 1518.22 L1765.45 1518.22 L1765.45 1526.7 Q1766.47 1526.35 1767.49 1526.19 Q1768.51 1526 1769.53 1526 Q1775.31 1526 1778.69 1529.17 Q1782.07 1532.34 1782.07 1537.76 Q1782.07 1543.34 1778.6 1546.44 Q1775.13 1549.52 1768.81 1549.52 Q1766.63 1549.52 1764.37 1549.15 Q1762.12 1548.78 1759.71 1548.04 L1759.71 1543.34 Q1761.8 1544.47 1764.02 1545.03 Q1766.24 1545.58 1768.72 1545.58 Q1772.72 1545.58 1775.06 1543.48 Q1777.4 1541.37 1777.4 1537.76 Q1777.4 1534.15 1775.06 1532.04 Q1772.72 1529.94 1768.72 1529.94 Q1766.84 1529.94 1764.97 1530.35 Q1763.12 1530.77 1761.17 1531.65 L1761.17 1514.29 Z" fill="#000000" fill-rule="nonzero" fill-opacity="1" /><path clip-path="url(#clip530)" d="M1801.29 1517.37 Q1797.68 1517.37 1795.85 1520.93 Q1794.04 1524.47 1794.04 1531.6 Q1794.04 1538.71 1795.85 1542.27 Q1797.68 1545.82 1801.29 1545.82 Q1804.92 1545.82 1806.73 1542.27 Q1808.55 1538.71 1808.55 1531.6 Q1808.55 1524.47 1806.73 1520.93 Q1804.92 1517.37 1801.29 1517.37 M1801.29 1513.66 Q1807.1 1513.66 1810.15 1518.27 Q1813.23 1522.85 1813.23 1531.6 Q1813.23 1540.33 1810.15 1544.94 Q1807.1 1549.52 1801.29 1549.52 Q1795.48 1549.52 1792.4 1544.94 Q1789.34 1540.33 1789.34 1531.6 Q1789.34 1522.85 1792.4 1518.27 Q1795.48 1513.66 1801.29 1513.66 Z" fill="#000000" fill-rule="nonzero" fill-opacity="1" /><path clip-path="url(#clip530)" d="M1831.45 1517.37 Q1827.84 1517.37 1826.01 1520.93 Q1824.2 1524.47 1824.2 1531.6 Q1824.2 1538.71 1826.01 1542.27 Q1827.84 1545.82 1831.45 1545.82 Q1835.08 1545.82 1836.89 1542.27 Q1838.72 1538.71 1838.72 1531.6 Q1838.72 1524.47 1836.89 1520.93 Q1835.08 1517.37 1831.45 1517.37 M1831.45 1513.66 Q1837.26 1513.66 1840.31 1518.27 Q1843.39 1522.85 1843.39 1531.6 Q1843.39 1540.33 1840.31 1544.94 Q1837.26 1549.52 1831.45 1549.52 Q1825.64 1549.52 1822.56 1544.94 Q1819.5 1540.33 1819.5 1531.6 Q1819.5 1522.85 1822.56 1518.27 Q1825.64 1513.66 1831.45 1513.66 Z" fill="#000000" fill-rule="nonzero" fill-opacity="1" /><path clip-path="url(#clip530)" d="M2241.71 1544.91 L2258.03 1544.91 L2258.03 1548.85 L2236.08 1548.85 L2236.08 1544.91 Q2238.74 1542.16 2243.33 1537.53 Q2247.93 1532.88 2249.11 1531.53 Q2251.36 1529.01 2252.24 1527.27 Q2253.14 1525.51 2253.14 1523.82 Q2253.14 1521.07 2251.2 1519.33 Q2249.28 1517.6 2246.18 1517.6 Q2243.98 1517.6 2241.52 1518.36 Q2239.09 1519.13 2236.31 1520.68 L2236.31 1515.95 Q2239.14 1514.82 2241.59 1514.24 Q2244.05 1513.66 2246.08 1513.66 Q2251.45 1513.66 2254.65 1516.35 Q2257.84 1519.03 2257.84 1523.52 Q2257.84 1525.65 2257.03 1527.57 Q2256.24 1529.47 2254.14 1532.07 Q2253.56 1532.74 2250.46 1535.95 Q2247.36 1539.15 2241.71 1544.91 Z" fill="#000000" fill-rule="nonzero" fill-opacity="1" /><path clip-path="url(#clip530)" d="M2277.84 1517.37 Q2274.23 1517.37 2272.4 1520.93 Q2270.6 1524.47 2270.6 1531.6 Q2270.6 1538.71 2272.4 1542.27 Q2274.23 1545.82 2277.84 1545.82 Q2281.48 1545.82 2283.28 1542.27 Q2285.11 1538.71 2285.11 1531.6 Q2285.11 1524.47 2283.28 1520.93 Q2281.48 1517.37 2277.84 1517.37 M2277.84 1513.66 Q2283.65 1513.66 2286.71 1518.27 Q2289.79 1522.85 2289.79 1531.6 Q2289.79 1540.33 2286.71 1544.94 Q2283.65 1549.52 2277.84 1549.52 Q2272.03 1549.52 2268.95 1544.94 Q2265.9 1540.33 2265.9 1531.6 Q2265.9 1522.85 2268.95 1518.27 Q2272.03 1513.66 2277.84 1513.66 Z" fill="#000000" fill-rule="nonzero" fill-opacity="1" /><path clip-path="url(#clip530)" d="M2308 1517.37 Q2304.39 1517.37 2302.56 1520.93 Q2300.76 1524.47 2300.76 1531.6 Q2300.76 1538.71 2302.56 1542.27 Q2304.39 1545.82 2308 1545.82 Q2311.64 1545.82 2313.44 1542.27 Q2315.27 1538.71 2315.27 1531.6 Q2315.27 1524.47 2313.44 1520.93 Q2311.64 1517.37 2308 1517.37 M2308 1513.66 Q2313.81 1513.66 2316.87 1518.27 Q2319.95 1522.85 2319.95 1531.6 Q2319.95 1540.33 2316.87 1544.94 Q2313.81 1549.52 2308 1549.52 Q2302.19 1549.52 2299.11 1544.94 Q2296.06 1540.33 2296.06 1531.6 Q2296.06 1522.85 2299.11 1518.27 Q2302.19 1513.66 2308 1513.66 Z" fill="#000000" fill-rule="nonzero" fill-opacity="1" /><path clip-path="url(#clip530)" d="M2338.17 1517.37 Q2334.55 1517.37 2332.73 1520.93 Q2330.92 1524.47 2330.92 1531.6 Q2330.92 1538.71 2332.73 1542.27 Q2334.55 1545.82 2338.17 1545.82 Q2341.8 1545.82 2343.61 1542.27 Q2345.43 1538.71 2345.43 1531.6 Q2345.43 1524.47 2343.61 1520.93 Q2341.8 1517.37 2338.17 1517.37 M2338.17 1513.66 Q2343.98 1513.66 2347.03 1518.27 Q2350.11 1522.85 2350.11 1531.6 Q2350.11 1540.33 2347.03 1544.94 Q2343.98 1549.52 2338.17 1549.52 Q2332.36 1549.52 2329.28 1544.94 Q2326.22 1540.33 2326.22 1531.6 Q2326.22 1522.85 2329.28 1518.27 Q2332.36 1513.66 2338.17 1513.66 Z" fill="#000000" fill-rule="nonzero" fill-opacity="1" /><polyline clip-path="url(#clip532)" style="stroke:#000000; stroke-linecap:round; stroke-linejoin:round; stroke-width:2; stroke-opacity:0.1; fill:none" points="209.029,1448.49 2352.76,1448.49 "/>
<polyline clip-path="url(#clip532)" style="stroke:#000000; stroke-linecap:round; stroke-linejoin:round; stroke-width:2; stroke-opacity:0.1; fill:none" points="209.029,1097.76 2352.76,1097.76 "/>
<polyline clip-path="url(#clip532)" style="stroke:#000000; stroke-linecap:round; stroke-linejoin:round; stroke-width:2; stroke-opacity:0.1; fill:none" points="209.029,747.033 2352.76,747.033 "/>
<polyline clip-path="url(#clip532)" style="stroke:#000000; stroke-linecap:round; stroke-linejoin:round; stroke-width:2; stroke-opacity:0.1; fill:none" points="209.029,396.302 2352.76,396.302 "/>
<polyline clip-path="url(#clip530)" style="stroke:#000000; stroke-linecap:round; stroke-linejoin:round; stroke-width:4; stroke-opacity:1; fill:none" points="209.029,1486.45 209.029,47.2441 "/>
<polyline clip-path="url(#clip530)" style="stroke:#000000; stroke-linecap:round; stroke-linejoin:round; stroke-width:4; stroke-opacity:1; fill:none" points="209.029,1448.49 227.926,1448.49 "/>
<polyline clip-path="url(#clip530)" style="stroke:#000000; stroke-linecap:round; stroke-linejoin:round; stroke-width:4; stroke-opacity:1; fill:none" points="209.029,1097.76 227.926,1097.76 "/>
<polyline clip-path="url(#clip530)" style="stroke:#000000; stroke-linecap:round; stroke-linejoin:round; stroke-width:4; stroke-opacity:1; fill:none" points="209.029,747.033 227.926,747.033 "/>
<polyline clip-path="url(#clip530)" style="stroke:#000000; stroke-linecap:round; stroke-linejoin:round; stroke-width:4; stroke-opacity:1; fill:none" points="209.029,396.302 227.926,396.302 "/>
<path clip-path="url(#clip530)" d="M50.9921 1448.95 L80.6679 1448.95 L80.6679 1452.88 L50.9921 1452.88 L50.9921 1448.95 Z" fill="#000000" fill-rule="nonzero" fill-opacity="1" /><path clip-path="url(#clip530)" d="M94.7882 1461.84 L111.108 1461.84 L111.108 1465.77 L89.1632 1465.77 L89.1632 1461.84 Q91.8252 1459.08 96.4085 1454.45 Q101.015 1449.8 102.196 1448.46 Q104.441 1445.94 105.321 1444.2 Q106.223 1442.44 106.223 1440.75 Q106.223 1438 104.279 1436.26 Q102.358 1434.52 99.2558 1434.52 Q97.0567 1434.52 94.603 1435.29 Q92.1725 1436.05 89.3947 1437.6 L89.3947 1432.88 Q92.2188 1431.75 94.6724 1431.17 Q97.1261 1430.59 99.1632 1430.59 Q104.534 1430.59 107.728 1433.27 Q110.922 1435.96 110.922 1440.45 Q110.922 1442.58 110.112 1444.5 Q109.325 1446.4 107.219 1448.99 Q106.64 1449.66 103.538 1452.88 Q100.436 1456.08 94.7882 1461.84 Z" fill="#000000" fill-rule="nonzero" fill-opacity="1" /><path clip-path="url(#clip530)" d="M124.95 1461.84 L141.269 1461.84 L141.269 1465.77 L119.325 1465.77 L119.325 1461.84 Q121.987 1459.08 126.57 1454.45 Q131.177 1449.8 132.357 1448.46 Q134.603 1445.94 135.482 1444.2 Q136.385 1442.44 136.385 1440.75 Q136.385 1438 134.441 1436.26 Q132.519 1434.52 129.418 1434.52 Q127.219 1434.52 124.765 1435.29 Q122.334 1436.05 119.557 1437.6 L119.557 1432.88 Q122.381 1431.75 124.834 1431.17 Q127.288 1430.59 129.325 1430.59 Q134.695 1430.59 137.89 1433.27 Q141.084 1435.96 141.084 1440.45 Q141.084 1442.58 140.274 1444.5 Q139.487 1446.4 137.381 1448.99 Q136.802 1449.66 133.7 1452.88 Q130.598 1456.08 124.95 1461.84 Z" fill="#000000" fill-rule="nonzero" fill-opacity="1" /><path clip-path="url(#clip530)" d="M161.084 1434.29 Q157.473 1434.29 155.644 1437.86 Q153.839 1441.4 153.839 1448.53 Q153.839 1455.64 155.644 1459.2 Q157.473 1462.74 161.084 1462.74 Q164.718 1462.74 166.524 1459.2 Q168.353 1455.64 168.353 1448.53 Q168.353 1441.4 166.524 1437.86 Q164.718 1434.29 161.084 1434.29 M161.084 1430.59 Q166.894 1430.59 169.95 1435.2 Q173.029 1439.78 173.029 1448.53 Q173.029 1457.26 169.95 1461.86 Q166.894 1466.45 161.084 1466.45 Q155.274 1466.45 152.195 1461.86 Q149.14 1457.26 149.14 1448.53 Q149.14 1439.78 152.195 1435.2 Q155.274 1430.59 161.084 1430.59 Z" fill="#000000" fill-rule="nonzero" fill-opacity="1" /><path clip-path="url(#clip530)" d="M50.9921 1098.21 L80.6679 1098.21 L80.6679 1102.15 L50.9921 1102.15 L50.9921 1098.21 Z" fill="#000000" fill-rule="nonzero" fill-opacity="1" /><path clip-path="url(#clip530)" d="M94.7882 1111.11 L111.108 1111.11 L111.108 1115.04 L89.1632 1115.04 L89.1632 1111.11 Q91.8252 1108.35 96.4085 1103.72 Q101.015 1099.07 102.196 1097.73 Q104.441 1095.21 105.321 1093.47 Q106.223 1091.71 106.223 1090.02 Q106.223 1087.27 104.279 1085.53 Q102.358 1083.79 99.2558 1083.79 Q97.0567 1083.79 94.603 1084.56 Q92.1725 1085.32 89.3947 1086.87 L89.3947 1082.15 Q92.2188 1081.02 94.6724 1080.44 Q97.1261 1079.86 99.1632 1079.86 Q104.534 1079.86 107.728 1082.54 Q110.922 1085.23 110.922 1089.72 Q110.922 1091.85 110.112 1093.77 Q109.325 1095.67 107.219 1098.26 Q106.64 1098.93 103.538 1102.15 Q100.436 1105.34 94.7882 1111.11 Z" fill="#000000" fill-rule="nonzero" fill-opacity="1" /><path clip-path="url(#clip530)" d="M130.922 1083.56 Q127.311 1083.56 125.482 1087.13 Q123.677 1090.67 123.677 1097.8 Q123.677 1104.9 125.482 1108.47 Q127.311 1112.01 130.922 1112.01 Q134.556 1112.01 136.362 1108.47 Q138.191 1104.9 138.191 1097.8 Q138.191 1090.67 136.362 1087.13 Q134.556 1083.56 130.922 1083.56 M130.922 1079.86 Q136.732 1079.86 139.788 1084.46 Q142.867 1089.05 142.867 1097.8 Q142.867 1106.52 139.788 1111.13 Q136.732 1115.71 130.922 1115.71 Q125.112 1115.71 122.033 1111.13 Q118.978 1106.52 118.978 1097.8 Q118.978 1089.05 122.033 1084.46 Q125.112 1079.86 130.922 1079.86 Z" fill="#000000" fill-rule="nonzero" fill-opacity="1" /><path clip-path="url(#clip530)" d="M161.084 1083.56 Q157.473 1083.56 155.644 1087.13 Q153.839 1090.67 153.839 1097.8 Q153.839 1104.9 155.644 1108.47 Q157.473 1112.01 161.084 1112.01 Q164.718 1112.01 166.524 1108.47 Q168.353 1104.9 168.353 1097.8 Q168.353 1090.67 166.524 1087.13 Q164.718 1083.56 161.084 1083.56 M161.084 1079.86 Q166.894 1079.86 169.95 1084.46 Q173.029 1089.05 173.029 1097.8 Q173.029 1106.52 169.95 1111.13 Q166.894 1115.71 161.084 1115.71 Q155.274 1115.71 152.195 1111.13 Q149.14 1106.52 149.14 1097.8 Q149.14 1089.05 152.195 1084.46 Q155.274 1079.86 161.084 1079.86 Z" fill="#000000" fill-rule="nonzero" fill-opacity="1" /><path clip-path="url(#clip530)" d="M50.9921 747.484 L80.6679 747.484 L80.6679 751.419 L50.9921 751.419 L50.9921 747.484 Z" fill="#000000" fill-rule="nonzero" fill-opacity="1" /><path clip-path="url(#clip530)" d="M91.5706 760.377 L99.2095 760.377 L99.2095 734.012 L90.8993 735.678 L90.8993 731.419 L99.1632 729.753 L103.839 729.753 L103.839 760.377 L111.478 760.377 L111.478 764.313 L91.5706 764.313 L91.5706 760.377 Z" fill="#000000" fill-rule="nonzero" fill-opacity="1" /><path clip-path="url(#clip530)" d="M130.922 747.901 Q127.589 747.901 125.668 749.683 Q123.77 751.465 123.77 754.59 Q123.77 757.715 125.668 759.498 Q127.589 761.28 130.922 761.28 Q134.256 761.28 136.177 759.498 Q138.098 757.692 138.098 754.59 Q138.098 751.465 136.177 749.683 Q134.279 747.901 130.922 747.901 M126.246 745.91 Q123.237 745.169 121.547 743.109 Q119.881 741.049 119.881 738.086 Q119.881 733.942 122.82 731.535 Q125.783 729.128 130.922 729.128 Q136.084 729.128 139.024 731.535 Q141.964 733.942 141.964 738.086 Q141.964 741.049 140.274 743.109 Q138.607 745.169 135.621 745.91 Q139.001 746.697 140.876 748.989 Q142.774 751.28 142.774 754.59 Q142.774 759.613 139.695 762.299 Q136.64 764.984 130.922 764.984 Q125.205 764.984 122.126 762.299 Q119.07 759.613 119.07 754.59 Q119.07 751.28 120.969 748.989 Q122.867 746.697 126.246 745.91 M124.533 738.526 Q124.533 741.211 126.2 742.715 Q127.89 744.22 130.922 744.22 Q133.931 744.22 135.621 742.715 Q137.334 741.211 137.334 738.526 Q137.334 735.84 135.621 734.336 Q133.931 732.831 130.922 732.831 Q127.89 732.831 126.2 734.336 Q124.533 735.84 124.533 738.526 Z" fill="#000000" fill-rule="nonzero" fill-opacity="1" /><path clip-path="url(#clip530)" d="M161.084 732.831 Q157.473 732.831 155.644 736.396 Q153.839 739.938 153.839 747.067 Q153.839 754.174 155.644 757.738 Q157.473 761.28 161.084 761.28 Q164.718 761.28 166.524 757.738 Q168.353 754.174 168.353 747.067 Q168.353 739.938 166.524 736.396 Q164.718 732.831 161.084 732.831 M161.084 729.128 Q166.894 729.128 169.95 733.734 Q173.029 738.317 173.029 747.067 Q173.029 755.794 169.95 760.4 Q166.894 764.984 161.084 764.984 Q155.274 764.984 152.195 760.4 Q149.14 755.794 149.14 747.067 Q149.14 738.317 152.195 733.734 Q155.274 729.128 161.084 729.128 Z" fill="#000000" fill-rule="nonzero" fill-opacity="1" /><path clip-path="url(#clip530)" d="M50.9921 396.753 L80.6679 396.753 L80.6679 400.688 L50.9921 400.688 L50.9921 396.753 Z" fill="#000000" fill-rule="nonzero" fill-opacity="1" /><path clip-path="url(#clip530)" d="M91.5706 409.647 L99.2095 409.647 L99.2095 383.281 L90.8993 384.948 L90.8993 380.688 L99.1632 379.022 L103.839 379.022 L103.839 409.647 L111.478 409.647 L111.478 413.582 L91.5706 413.582 L91.5706 409.647 Z" fill="#000000" fill-rule="nonzero" fill-opacity="1" /><path clip-path="url(#clip530)" d="M131.501 394.438 Q128.353 394.438 126.501 396.591 Q124.672 398.744 124.672 402.494 Q124.672 406.221 126.501 408.397 Q128.353 410.549 131.501 410.549 Q134.649 410.549 136.478 408.397 Q138.33 406.221 138.33 402.494 Q138.33 398.744 136.478 396.591 Q134.649 394.438 131.501 394.438 M140.783 379.786 L140.783 384.045 Q139.024 383.211 137.219 382.772 Q135.436 382.332 133.677 382.332 Q129.047 382.332 126.594 385.457 Q124.163 388.582 123.816 394.901 Q125.182 392.887 127.242 391.823 Q129.302 390.735 131.779 390.735 Q136.987 390.735 139.996 393.906 Q143.029 397.054 143.029 402.494 Q143.029 407.818 139.881 411.035 Q136.732 414.253 131.501 414.253 Q125.506 414.253 122.334 409.67 Q119.163 405.063 119.163 396.336 Q119.163 388.142 123.052 383.281 Q126.941 378.397 133.492 378.397 Q135.251 378.397 137.033 378.744 Q138.839 379.091 140.783 379.786 Z" fill="#000000" fill-rule="nonzero" fill-opacity="1" /><path clip-path="url(#clip530)" d="M161.084 382.1 Q157.473 382.1 155.644 385.665 Q153.839 389.207 153.839 396.336 Q153.839 403.443 155.644 407.008 Q157.473 410.549 161.084 410.549 Q164.718 410.549 166.524 407.008 Q168.353 403.443 168.353 396.336 Q168.353 389.207 166.524 385.665 Q164.718 382.1 161.084 382.1 M161.084 378.397 Q166.894 378.397 169.95 383.003 Q173.029 387.586 173.029 396.336 Q173.029 405.063 169.95 409.67 Q166.894 414.253 161.084 414.253 Q155.274 414.253 152.195 409.67 Q149.14 405.063 149.14 396.336 Q149.14 387.586 152.195 383.003 Q155.274 378.397 161.084 378.397 Z" fill="#000000" fill-rule="nonzero" fill-opacity="1" /><polyline clip-path="url(#clip532)" style="stroke:#009af9; stroke-linecap:round; stroke-linejoin:round; stroke-width:4; stroke-opacity:1; fill:none" points="269.7,422.664 270.712,418.057 271.723,124.161 272.735,119.852 273.747,574.643 274.759,571.268 275.77,476.949 276.782,471.122 277.794,92.7182 278.805,87.9763 279.817,172.488 280.829,164.189 281.84,498.453 282.852,491.009 283.864,361.662 284.876,354.435 285.887,93.6848 286.899,89.6229 287.911,528.029 288.922,524.067 289.934,233.885 290.946,225.927 291.957,614.726 292.969,611.818 293.981,360.195 294.992,356.21 296.004,185.458 297.016,179.164 298.028,432.148 299.039,428.647 300.051,454.351 301.063,449.249 302.074,273.131 303.086,264.896 304.098,426.728 305.109,421.201 306.121,583.246 307.133,579.83 308.145,547.472 309.156,542.694 310.168,325.478 311.18,321.868 312.191,375.468 313.203,370.808 314.215,324.936 315.226,317.873 316.238,686.903 317.25,684.85 318.262,757.906 319.273,753.974 320.285,939.331 321.297,936.202 322.308,923.198 323.32,921.03 324.332,369.026 325.343,364.58 326.355,584.85 327.367,580.667 328.379,845.401 329.39,841.958 330.402,468.729 331.414,463.852 332.425,685.687 333.437,681.439 334.449,846.645 335.46,843.245 336.472,753.587 337.484,748.239 338.496,827.229 339.507,823.254 340.519,788.444 341.531,784.65 342.542,769.166 343.554,764.708 344.566,451.553 345.577,445.161 346.589,795.186 347.601,791.292 348.612,722.792 349.624,720.654 350.636,882.86 351.648,880.342 352.659,989.124 353.671,985.674 354.683,591.915 355.694,589.124 356.706,612.047 357.718,607.679 358.729,624.318 359.741,619.376 360.753,452.898 361.765,445.561 362.776,1013.67 363.788,1012.02 364.8,1009.93 365.811,1005.62 366.823,815.661 367.835,812.87 368.846,833.731 369.858,829.864 370.87,1105.37 371.882,1104.39 372.893,742.078 373.905,738.337 374.917,943.98 375.928,942.028 376.94,990.901 377.952,986.771 378.963,808.827 379.975,804.578 380.987,920.74 381.999,915.975 383.01,530.872 384.022,525.344 385.034,1009.25 386.045,1008.6 387.057,848.962 388.069,846.573 389.08,749.115 390.092,745.781 391.104,1140.44 392.115,1140.22 393.127,575.73 394.139,572.345 395.151,798.137 396.162,795.1 397.174,1003.32 398.186,1000.74 399.197,469.874 400.209,463.916 401.221,801.782 402.232,800.825 403.244,554.139 404.256,547.91 405.268,1024.3 406.279,1022.35 407.291,1055.97 408.303,1053.8 409.314,704.136 410.326,699.341 411.338,791.861 412.349,789.097 413.361,771.154 414.373,767.09 415.385,889.91 416.396,887.574 417.408,550.588 418.42,546.698 419.431,690.046 420.443,687.747 421.455,875.991 422.466,872.835 423.478,609.744 424.49,604.88 425.502,632.117 426.513,628.165 427.525,788.012 428.537,783.646 429.548,792.543 430.56,789.386 431.572,534.783 432.583,532.188 433.595,790.546 434.607,789.824 435.619,867.04 436.63,864.646 437.642,619.368 438.654,617.433 439.665,606.768 440.677,604.929 441.689,876.583 442.7,874.549 443.712,831.626 444.724,829.78 445.735,886.525 446.747,882.628 447.759,914.654 448.771,913.195 449.782,1119.66 450.794,1119.82 451.806,762.009 452.817,759.894 453.829,715.079 454.841,711.996 455.852,797.242 456.864,794.145 457.876,722.154 458.888,720.698 459.899,802.781 460.911,802.879 461.923,752.297 462.934,749.233 463.946,773.728 464.958,768.633 465.969,669.925 466.981,668.129 467.993,745.042 469.005,744.096 470.016,800.05 471.028,798.272 472.04,938.878 473.051,937.482 474.063,1061.32 475.075,1060.72 476.086,954.196 477.098,953.28 478.11,798.637 479.122,796.664 480.133,763.682 481.145,761.629 482.157,1033 483.168,1031.09 484.18,676.123 485.192,673.316 486.203,650.062 487.215,647.71 488.227,817.776 489.239,815.512 490.25,715.427 491.262,713.344 492.274,570.582 493.285,566.516 494.297,592.15 495.309,588.48 496.32,1270.53 497.332,1272.21 498.344,704.23 499.355,701.9 500.367,1144.49 501.379,1144.5 502.391,834.361 503.402,832.846 504.414,886.169 505.426,885.483 506.437,676.362 507.449,674.136 508.461,807.949 509.472,807.832 510.484,661.763 511.496,658.57 512.508,822.216 513.519,820.795 514.531,657.795 515.543,656.423 516.554,698.794 517.566,697.55 518.578,684.503 519.589,682.79 520.601,803.132 521.613,802.146 522.625,940.146 523.636,939.344 524.648,943.45 525.66,941.224 526.671,659.688 527.683,657.408 528.695,972.595 529.706,971.631 530.718,785.92 531.73,784.089 532.742,764.543 533.753,762.531 534.765,695.57 535.777,693.983 536.788,687.045 537.8,685.788 538.812,1013.18 539.823,1013.64 540.835,790.585 541.847,788.626 542.859,632.033 543.87,629.86 544.882,617.154 545.894,613.293 546.905,759.543 547.917,758.105 548.929,587.549 549.94,585.451 550.952,873.671 551.964,872.94 552.975,773.007 553.987,771.072 554.999,376.694 556.011,372.945 557.022,754.617 558.034,752.257 559.046,812.966 560.057,812.113 561.069,1154.52 562.081,1155.42 563.092,946.296 564.104,945.641 565.116,601.902 566.128,600.515 567.139,892.463 568.151,892.145 569.163,619 570.174,617.561 571.186,955.573 572.198,955.975 573.209,1011.13 574.221,1011.52 575.233,886.825 576.245,886.278 577.256,1224.24 578.268,1222.95 579.28,739.505 580.291,738.502 581.303,892.078 582.315,890.75 583.326,594.253 584.338,590.208 585.35,927.728 586.362,927.345 587.373,979.316 588.385,978.767 589.397,705.862 590.408,704.759 591.42,799.221 592.432,799.5 593.443,882.356 594.455,882.572 595.467,1177.62 596.478,1177.66 597.49,920.934 598.502,920.658 599.514,1061.04 600.525,1060.17 601.537,763.336 602.549,760.863 603.56,807.779 604.572,804.508 605.584,990.758 606.595,990.822 607.607,1192.37 608.619,1193.82 609.631,794.533 610.642,792.582 611.654,747.149 612.666,744.794 613.677,817.014 614.689,814.881 615.701,520.791 616.712,517.499 617.724,634.603 618.736,631.289 619.748,1012.29 620.759,1012.55 621.771,942.314 622.783,939.741 623.794,707.652 624.806,706.496 625.818,877.046 626.829,877.239 627.841,891.664 628.853,891.315 629.865,835.264 630.876,834.73 631.888,795.397 632.9,794.547 633.911,904.974 634.923,905.042 635.935,635.063 636.946,633.915 637.958,1049.4 638.97,1049.52 639.982,663.205 640.993,660.751 642.005,892.295 643.017,891.645 644.028,1069.68 645.04,1070.38 646.052,615.58 647.063,612.726 648.075,663.748 649.087,660.99 650.098,752.904 651.11,752.052 652.122,770.306 653.134,769.342 654.145,941.514 655.157,941.715 656.169,850.611 657.18,849.477 658.192,941.724 659.204,942.026 660.215,735.905 661.227,734.062 662.239,749.21 663.251,748.101 664.262,938.624 665.274,938.954 666.286,1079.88 667.297,1080.22 668.309,943.128 669.321,943.643 670.332,629.19 671.344,627.26 672.356,774.081 673.368,773.172 674.379,928.631 675.391,928.758 676.403,800.02 677.414,799.141 678.426,782.694 679.438,781.545 680.449,845.03 681.461,845.189 682.473,1082.97 683.485,1083.84 684.496,913.858 685.508,913.396 686.52,899.301 687.531,898.741 688.543,1037.8 689.555,1038.05 690.566,1035.18 691.578,1035.48 692.59,760.576 693.602,759.614 694.613,940.979 695.625,940.877 696.637,706.075 697.648,702.956 698.66,953.983 699.672,953.119 700.683,763.034 701.695,760.734 702.707,1198.19 703.718,1199.88 704.73,834.714 705.742,834.681 706.754,1027.76 707.765,1028.09 708.777,766.799 709.789,765.327 710.8,776.43 711.812,775.339 712.824,559.986 713.835,556.093 714.847,776.356 715.859,773.735 716.871,578.681 717.882,575.003 718.894,1063 719.906,1062.35 720.917,940.348 721.929,940.447 722.941,764.302 723.952,763.452 724.964,1031.02 725.976,1031.86 726.988,976.347 727.999,975.119 729.011,908.242 730.023,908.633 731.034,736.401 732.046,734.221 733.058,789.026 734.069,789.079 735.081,851.529 736.093,849.438 737.105,695.399 738.116,694.045 739.128,1122.19 740.14,1122.34 741.151,1097.23 742.163,1097.87 743.175,765.855 744.186,764.859 745.198,782.547 746.21,781.217 747.222,1117.6 748.233,1118.76 749.245,1125.59 750.257,1124.97 751.268,944.549 752.28,944.588 753.292,778.5 754.303,778.257 755.315,878.997 756.327,878.974 757.338,1106.91 758.35,1106.54 759.362,877.403 760.374,877.73 761.385,964.602 762.397,963.995 763.409,651.932 764.42,649.79 765.432,1040.56 766.444,1041.41 767.455,737.246 768.467,735.462 769.479,892.203 770.491,891.573 771.502,1226.25 772.514,1227.52 773.526,819.964 774.537,819.344 775.549,1042.74 776.561,1043.25 777.572,1094.67 778.584,1092.95 779.596,675.445 780.608,675.2 781.619,930.212 782.631,930.077 783.643,840.238 784.654,838.439 785.666,1216.52 786.678,1217.31 787.689,966.736 788.701,967.015 789.713,988.99 790.725,989.156 791.736,903.945 792.748,902.878 793.76,983.426 794.771,981.338 795.783,681.089 796.795,680.785 797.806,896.471 798.818,896.841 799.83,807.177 800.841,806.705 801.853,559.739 802.865,555.399 803.877,1256.89 804.888,1257.77 805.9,584.45 806.912,581.418 807.923,706.94 808.935,706.083 809.947,812.183 810.958,809.479 811.97,817.679 812.982,817.236 813.994,964.735 815.005,964.977 816.017,1070.53 817.029,1071.94 818.04,869.649 819.052,868.037 820.064,1158.18 821.075,1158.17 822.087,816.815 823.099,815.01 824.111,929.22 825.122,928.725 826.134,1069.45 827.146,1069.63 828.157,835.974 829.169,833.541 830.181,973.596 831.192,973.431 832.204,887.681 833.216,886.257 834.228,599.474 835.239,597.387 836.251,930.868 837.263,930.608 838.274,574.213 839.286,571.938 840.298,1062.58 841.309,1062.57 842.321,1041.39 843.333,1041.44 844.345,1113.93 845.356,1114.19 846.368,837.647 847.38,836.849 848.391,765.813 849.403,763.668 850.415,680.925 851.426,679.11 852.438,1019.59 853.45,1018.9 854.461,833.83 855.473,829.971 856.485,773.095 857.497,772.783 858.508,740.208 859.52,738.366 860.532,820.963 861.543,818.816 862.555,1083.47 863.567,1084.11 864.578,979.756 865.59,979.718 866.602,1062.25 867.614,1061.4 868.625,893.33 869.637,892.11 870.649,938.027 871.66,938.723 872.672,795.53 873.684,794.494 874.695,622.927 875.707,620.462 876.719,937.489 877.731,936.275 878.742,867.797 879.754,867.037 880.766,1158.71 881.777,1158.06 882.789,1061.62 883.801,1060.97 884.812,1013.59 885.824,1013.95 886.836,886.641 887.848,886.064 888.859,721.752 889.871,719.638 890.883,851.913 891.894,850.268 892.906,1036.07 893.918,1037.3 894.929,1162.93 895.941,1163.77 896.953,898.361 897.965,897.96 898.976,1056.6 899.988,1056.13 901,793.8 902.011,791.219 903.023,906.26 904.035,905.912 905.046,790.27 906.058,789.604 907.07,678.714 908.081,677.609 909.093,792.576 910.105,791.604 911.117,675.526 912.128,672.496 913.14,873.053 914.152,872.929 915.163,694.141 916.175,692.899 917.187,967.844 918.198,967.999 919.21,1078.81 920.222,1079.45 921.234,568 922.245,564.743 923.257,812.632 924.269,812.861 925.28,893.572 926.292,893.282 927.304,1192.31 928.315,1192.85 929.327,737.198 930.339,734.903 931.351,931.477 932.362,930.428 933.374,921.44 934.386,921.177 935.397,987.538 936.409,987.228 937.421,623.293 938.432,622.468 939.444,1005.47 940.456,1006.41 941.468,1027.54 942.479,1027.24 943.491,1016.1 944.503,1016.16 945.514,779.541 946.526,776.961 947.538,1222.51 948.549,1223.62 949.561,1174.01 950.573,1172.25 951.585,1128.81 952.596,1128.72 953.608,1126.61 954.62,1127.62 955.631,727.224 956.643,726.496 957.655,719.176 958.666,716.667 959.678,605.331 960.69,598.824 961.701,855.894 962.713,855.597 963.725,902.676 964.737,902.465 965.748,799.382 966.76,799.171 967.772,912.604 968.783,913.156 969.795,1008.08 970.807,1008.67 971.818,734.141 972.83,732.54 973.842,936.658 974.854,936.387 975.865,1004.59 976.877,1001.96 977.889,1030.69 978.9,1031.48 979.912,809.549 980.924,809.599 981.935,620.941 982.947,619.475 983.959,1015.4 984.971,1015.45 985.982,1256.63 986.994,1257.46 988.006,932.873 989.017,932.336 990.029,1120.2 991.041,1118.79 992.052,1023.73 993.064,1024.45 994.076,989.364 995.088,989.33 996.099,962.018 997.111,961.491 998.123,848.843 999.134,848.479 1000.15,955.011 1001.16,954.41 1002.17,859.056 1003.18,857.516 1004.19,1024.41 1005.2,1024 1006.22,1048.79 1007.23,1048.85 1008.24,1026.99 1009.25,1026.99 1010.26,938.79 1011.27,938.14 1012.29,1015.53 1013.3,1015.41 1014.31,812.194 1015.32,810.859 1016.33,1001.5 1017.34,999.015 1018.36,1360.64 1019.37,1361.98 1020.38,1048.68 1021.39,1046.26 1022.4,1065.74 1023.42,1064.21 1024.43,860.714 1025.44,859.364 1026.45,730.758 1027.46,728.448 1028.47,1260.53 1029.49,1261.6 1030.5,1169.06 1031.51,1167.51 1032.52,1217.1 1033.53,1217.23 1034.54,742.719 1035.56,742.557 1036.57,873.059 1037.58,872.365 1038.59,859.385 1039.6,858.999 1040.61,1286.82 1041.63,1288.24 1042.64,1066.96 1043.65,1067.25 1044.66,975.646 1045.67,973.608 1046.68,929.145 1047.7,928.322 1048.71,1029.59 1049.72,1030.33 1050.73,962.346 1051.74,962.659 1052.75,929.301 1053.77,929.637 1054.78,1309.18 1055.79,1309.21 1056.8,952.133 1057.81,950.926 1058.82,633.651 1059.84,631.05 1060.85,895.58 1061.86,895.209 1062.87,881.972 1063.88,880.71 1064.89,880.753 1065.91,879.535 1066.92,767.193 1067.93,763.064 1068.94,1092.19 1069.95,1091.31 1070.96,1020.95 1071.98,1020.98 1072.99,907.02 1074,906.805 1075.01,1087.27 1076.02,1088.46 1077.04,988.463 1078.05,988.677 1079.06,812.525 1080.07,810.451 1081.08,1202.09 1082.09,1203.31 1083.11,819.003 1084.12,819.302 1085.13,1290.35 1086.14,1291.18 1087.15,954.576 1088.16,953.188 1089.18,854.314 1090.19,852.579 1091.2,803.017 1092.21,800.514 1093.22,1207.92 1094.23,1208.47 1095.25,905.629 1096.26,905.387 1097.27,1021.1 1098.28,1019.58 1099.29,1276.65 1100.3,1277.78 1101.32,1111.83 1102.33,1111.18 1103.34,900.202 1104.35,901.566 1105.36,904.699 1106.37,903.361 1107.39,995.592 1108.4,994.454 1109.41,1069.33 1110.42,1069.26 1111.43,1183.89 1112.44,1184.9 1113.46,898.725 1114.47,895.897 1115.48,1139.76 1116.49,1139.09 1117.5,1099.78 1118.51,1099.73 1119.53,1006.78 1120.54,1007.14 1121.55,812.518 1122.56,811.23 1123.57,1006.87 1124.58,1007.56 1125.6,1302.69 1126.61,1303.77 1127.62,1332.26 1128.63,1332.88 1129.64,725.511 1130.66,724.05 1131.67,853.82 1132.68,851.716 1133.69,1212.49 1134.7,1213.92 1135.71,869.081 1136.73,868.523 1137.74,776.964 1138.75,770.773 1139.76,898.045 1140.77,896.331 1141.78,876.215 1142.8,875.387 1143.81,1027.1 1144.82,1025.37 1145.83,1006.64 1146.84,1006.68 1147.85,1019.42 1148.87,1018.82 1149.88,921.039 1150.89,917.564 1151.9,1201.49 1152.91,1202.09 1153.92,1063.57 1154.94,1063.16 1155.95,934.687 1156.96,933.958 1157.97,1011.27 1158.98,1011.04 1159.99,1237.25 1161.01,1238.68 1162.02,1086.26 1163.03,1086.99 1164.04,1251.5 1165.05,1253.17 1166.06,1028.48 1167.08,1027.46 1168.09,1229.16 1169.1,1230.51 1170.11,1109.63 1171.12,1109.05 1172.13,741.526 1173.15,740.23 1174.16,1324.3 1175.17,1325.27 1176.18,1010.59 1177.19,1011.3 1178.2,1296.88 1179.22,1295.65 1180.23,913.182 1181.24,911.745 1182.25,1185.58 1183.26,1185.67 1184.28,1103.12 1185.29,1103.58 1186.3,882.684 1187.31,880.541 1188.32,770.374 1189.33,766.339 1190.35,917.152 1191.36,916.954 1192.37,897.879 1193.38,896.824 1194.39,1045.13 1195.4,1043.75 1196.42,944.236 1197.43,942.957 1198.44,886.108 1199.45,884.565 1200.46,1040.67 1201.47,1040.09 1202.49,937.388 1203.5,934.86 1204.51,1024.96 1205.52,1025.33 1206.53,1043.91 1207.54,1041.55 1208.56,1134.11 1209.57,1132.07 1210.58,858.332 1211.59,856.34 1212.6,674.566 1213.61,674.303 1214.63,834.999 1215.64,833.353 1216.65,821.786 1217.66,821.133 1218.67,926.758 1219.68,925.448 1220.7,930.878 1221.71,930.518 1222.72,714.517 1223.73,712.47 1224.74,735.927 1225.75,733.991 1226.77,969.573 1227.78,968.777 1228.79,914.712 1229.8,911.669 1230.81,831.126 1231.82,829.824 1232.84,952.651 1233.85,951.849 1234.86,994.05 1235.87,993.881 1236.88,803.998 1237.9,801.293 1238.91,828.23 1239.92,827.576 1240.93,1119.09 1241.94,1119.84 1242.95,900.818 1243.97,899.596 1244.98,1013.19 1245.99,1011.95 1247,980.913 1248.01,979.317 1249.02,912.872 1250.04,912.319 1251.05,1023.04 1252.06,1020.7 1253.07,836.747 1254.08,833.14 1255.09,835.737 1256.11,833.699 1257.12,995.297 1258.13,994.345 1259.14,830.067 1260.15,829.122 1261.16,1061.25 1262.18,1061.68 1263.19,947.14 1264.2,943.811 1265.21,1043.2 1266.22,1044.25 1267.23,1252.6 1268.25,1252.86 1269.26,1130.85 1270.27,1132.12 1271.28,1028.18 1272.29,1028.75 1273.3,923.456 1274.32,921.854 1275.33,856.123 1276.34,855.269 1277.35,1025.89 1278.36,1026.29 1279.37,643.232 1280.39,639.101 1281.4,881.583 1282.41,881.421 1283.42,1183.17 1284.43,1184 1285.44,861.052 1286.46,858.964 1287.47,866 1288.48,864.303 1289.49,879.085 1290.5,879.494 1291.52,1116.46 1292.53,1117.2 1293.54,916.066 1294.55,913.516 1295.56,780.526 1296.57,777.649 1297.59,870.588 1298.6,871.124 1299.61,738.967 1300.62,737.424 1301.63,1087.01 1302.64,1086.1 1303.66,975.747 1304.67,975.506 1305.68,962.684 1306.69,962.571 1307.7,921.853 1308.71,921.511 1309.73,1130.31 1310.74,1128.87 1311.75,1045.21 1312.76,1044.85 1313.77,980.981 1314.78,980.394 1315.8,1001.97 1316.81,1001.48 1317.82,992.962 1318.83,993.405 1319.84,857.49 1320.85,855.376 1321.87,917.856 1322.88,917.896 1323.89,988.662 1324.9,987.753 1325.91,1405.47 1326.92,1406.99 1327.94,1050.65 1328.95,1050.43 1329.96,979.359 1330.97,978.908 1331.98,846.511 1332.99,845.357 1334.01,1232.29 1335.02,1230.4 1336.03,1167.61 1337.04,1168.48 1338.05,963.612 1339.06,962.303 1340.08,1138.6 1341.09,1138.45 1342.1,1026.78 1343.11,1027.49 1344.12,1161.5 1345.14,1161.91 1346.15,865.873 1347.16,864.594 1348.17,666.873 1349.18,664.742 1350.19,983.854 1351.21,982.567 1352.22,593.815 1353.23,591.591 1354.24,1065.71 1355.25,1065.55 1356.26,1262.47 1357.28,1263.56 1358.29,1050.24 1359.3,1048.82 1360.31,730.228 1361.32,729.315 1362.33,1079.07 1363.35,1078.78 1364.36,972.617 1365.37,973.239 1366.38,1052.62 1367.39,1052.26 1368.4,899.349 1369.42,897.523 1370.43,1039.25 1371.44,1038.85 1372.45,1089.72 1373.46,1090.84 1374.47,1182.02 1375.49,1182.18 1376.5,1123.39 1377.51,1122.62 1378.52,946.686 1379.53,945.922 1380.54,1283.62 1381.56,1284.13 1382.57,1070.53 1383.58,1068.3 1384.59,961.648 1385.6,960.881 1386.61,1047.09 1387.63,1045.73 1388.64,976.437 1389.65,976.267 1390.66,989.131 1391.67,985.903 1392.68,663.995 1393.7,661.921 1394.71,727.307 1395.72,725.573 1396.73,978.504 1397.74,977.2 1398.76,1124.79 1399.77,1124.16 1400.78,998.225 1401.79,997.37 1402.8,1025.4 1403.81,1026.17 1404.83,975.236 1405.84,975.324 1406.85,966.272 1407.86,965.996 1408.87,1222.35 1409.88,1222.8 1410.9,1095.19 1411.91,1096.26 1412.92,1114.22 1413.93,1113.77 1414.94,877.308 1415.95,875.214 1416.97,942.083 1417.98,940.156 1418.99,842.395 1420,841.138 1421.01,834.182 1422.02,832.652 1423.04,1166.53 1424.05,1167.06 1425.06,906.906 1426.07,902.484 1427.08,790.568 1428.09,786.913 1429.11,893.32 1430.12,892.952 1431.13,1208.14 1432.14,1208.3 1433.15,953.903 1434.16,953.622 1435.18,844.517 1436.19,845.041 1437.2,910.343 1438.21,910.388 1439.22,846.342 1440.23,844.196 1441.25,937.242 1442.26,936.364 1443.27,1123.51 1444.28,1123.72 1445.29,1306.99 1446.3,1308.39 1447.32,1046.93 1448.33,1047.91 1449.34,1275.54 1450.35,1276.02 1451.36,918.197 1452.38,918.396 1453.39,1031.86 1454.4,1032.28 1455.41,846.732 1456.42,847.135 1457.43,1157.75 1458.45,1156.37 1459.46,1022.59 1460.47,1022.02 1461.48,878.554 1462.49,874.437 1463.5,1022.89 1464.52,1022.79 1465.53,917.533 1466.54,917.475 1467.55,1015.85 1468.56,1015.33 1469.57,912.072 1470.59,911.822 1471.6,1012.16 1472.61,1013.03 1473.62,1158.12 1474.63,1157.81 1475.64,755.599 1476.66,754.642 1477.67,1134.92 1478.68,1135.13 1479.69,792.99 1480.7,787.483 1481.71,970.787 1482.73,970.435 1483.74,1024.28 1484.75,1022.98 1485.76,783.04 1486.77,781.438 1487.78,943.807 1488.8,942.826 1489.81,735.097 1490.82,732.709 1491.83,1012.81 1492.84,1012.38 1493.85,1254.59 1494.87,1255.9 1495.88,986.088 1496.89,983.487 1497.9,925.694 1498.91,924.851 1499.92,872.222 1500.94,869.333 1501.95,856.607 1502.96,855.127 1503.97,924.716 1504.98,924.587 1506,1095.83 1507.01,1095.99 1508.02,896.401 1509.03,895.86 1510.04,983.855 1511.05,983.983 1512.07,932.511 1513.08,930.374 1514.09,779.47 1515.1,776.967 1516.11,1020 1517.12,1019.82 1518.14,1219.03 1519.15,1219.63 1520.16,812.17 1521.17,808.03 1522.18,792.627 1523.19,791.992 1524.21,870.301 1525.22,869.533 1526.23,1055.54 1527.24,1055.69 1528.25,1170.35 1529.26,1170.57 1530.28,837.092 1531.29,837.217 1532.3,723.439 1533.31,721.73 1534.32,804.926 1535.33,804.245 1536.35,950.742 1537.36,950.5 1538.37,896.223 1539.38,895.17 1540.39,852.62 1541.4,851.993 1542.42,1025.55 1543.43,1022.04 1544.44,925.614 1545.45,926.161 1546.46,1176.54 1547.47,1176.9 1548.49,1034.15 1549.5,1033.85 1550.51,1260.58 1551.52,1260.18 1552.53,1061.03 1553.54,1061.25 1554.56,801.442 1555.57,800.665 1556.58,1078.26 1557.59,1078.46 1558.6,959.035 1559.62,958.24 1560.63,1278.73 1561.64,1279.58 1562.65,981.757 1563.66,976.893 1564.67,1102.48 1565.69,1103.19 1566.7,831.212 1567.71,830.397 1568.72,1136.9 1569.73,1136.14 1570.74,1185.18 1571.76,1185.5 1572.77,892.429 1573.78,889.812 1574.79,1155.99 1575.8,1156.27 1576.81,921.45 1577.83,920.611 1578.84,904.14 1579.85,902.307 1580.86,986.73 1581.87,985.813 1582.88,1152.49 1583.9,1153.32 1584.91,915.582 1585.92,912.429 1586.93,776.045 1587.94,775.391 1588.95,1165.46 1589.97,1165.78 1590.98,1023.95 1591.99,1021.9 1593,703.18 1594.01,700.625 1595.02,1170.56 1596.04,1169.9 1597.05,756.401 1598.06,754.434 1599.07,919.58 1600.08,919.308 1601.09,904.076 1602.11,903.693 1603.12,1035.3 1604.13,1034.4 1605.14,828.52 1606.15,826.069 1607.16,762.461 1608.18,761.089 1609.19,1220.03 1610.2,1218.97 1611.21,873.78 1612.22,872.228 1613.24,1091.38 1614.25,1091.22 1615.26,1096.98 1616.27,1096.95 1617.28,974.592 1618.29,974.092 1619.31,877.096 1620.32,876.139 1621.33,1116.29 1622.34,1116.61 1623.35,1182.88 1624.36,1182.45 1625.38,1073.12 1626.39,1072.34 1627.4,803.464 1628.41,802.754 1629.42,1249.31 1630.43,1249.19 1631.45,782.452 1632.46,775.996 1633.47,907.295 1634.48,907.668 1635.49,845.792 1636.5,843.663 1637.52,939.338 1638.53,938.322 1639.54,954.418 1640.55,953.182 1641.56,1099.75 1642.57,1100.07 1643.59,884.506 1644.6,882.877 1645.61,818.564 1646.62,818.187 1647.63,1272.64 1648.64,1273.08 1649.66,1172.97 1650.67,1171.29 1651.68,628.183 1652.69,624.865 1653.7,1200.95 1654.71,1201.45 1655.73,1008.33 1656.74,1007.15 1657.75,1075.16 1658.76,1074.31 1659.77,959.075 1660.78,958.837 1661.8,1332.23 1662.81,1334.08 1663.82,1032.4 1664.83,1032.03 1665.84,1014.37 1666.86,1015.67 1667.87,1094.6 1668.88,1094.12 1669.89,866.292 1670.9,865.468 1671.91,1315.52 1672.93,1315.45 1673.94,1178.14 1674.95,1178.8 1675.96,953.063 1676.97,951.753 1677.98,724.958 1679,722.612 1680.01,1082.66 1681.02,1081.61 1682.03,939.442 1683.04,938.807 1684.05,1139.45 1685.07,1138.62 1686.08,721.81 1687.09,720.314 1688.1,1028.98 1689.11,1029.09 1690.12,1198.86 1691.14,1198.23 1692.15,1182.62 1693.16,1183.82 1694.17,771.905 1695.18,769.571 1696.19,958.647 1697.21,956.484 1698.22,814.228 1699.23,811.394 1700.24,1066.25 1701.25,1066.9 1702.26,1176.16 1703.28,1177.38 1704.29,1051.21 1705.3,1051.03 1706.31,796.752 1707.32,796.824 1708.33,1228.63 1709.35,1228.9 1710.36,1244.27 1711.37,1245.52 1712.38,929.595 1713.39,927.95 1714.4,789.313 1715.42,787.6 1716.43,1117.65 1717.44,1117.21 1718.45,1025.55 1719.46,1025.81 1720.47,931.449 1721.49,929.643 1722.5,739.09 1723.51,738.281 1724.52,1079 1725.53,1078.24 1726.55,1102.72 1727.56,1103.07 1728.57,1096.59 1729.58,1095.13 1730.59,872.045 1731.6,871.48 1732.62,905.966 1733.63,906.055 1734.64,1075.75 1735.65,1075.83 1736.66,1337.77 1737.67,1338.9 1738.69,965.037 1739.7,964.298 1740.71,1118.04 1741.72,1116.79 1742.73,1202 1743.74,1202.08 1744.76,976.696 1745.77,975.671 1746.78,1145.74 1747.79,1143.32 1748.8,1288.77 1749.81,1289.09 1750.83,932.337 1751.84,930.077 1752.85,1102.07 1753.86,1102.5 1754.87,1172.16 1755.88,1172.92 1756.9,1041.65 1757.91,1041.69 1758.92,1383.51 1759.93,1385.16 1760.94,1407.63 1761.95,1408.45 1762.97,1229.44 1763.98,1229.96 1764.99,1028.21 1766,1025.69 1767.01,962.381 1768.02,960.318 1769.04,1019.67 1770.05,1014.94 1771.06,1156.65 1772.07,1157.36 1773.08,951.275 1774.09,948.704 1775.11,881.409 1776.12,879.766 1777.13,821.202 1778.14,819.525 1779.15,1297.46 1780.17,1298.6 1781.18,941.068 1782.19,940.208 1783.2,1085 1784.21,1084.78 1785.22,1099.01 1786.24,1098.31 1787.25,837.211 1788.26,835.566 1789.27,913.431 1790.28,911.211 1791.29,1125 1792.31,1123.18 1793.32,972.444 1794.33,972.098 1795.34,1246.96 1796.35,1247.15 1797.36,1027.59 1798.38,1027.36 1799.39,1098.17 1800.4,1097.76 1801.41,1013.4 1802.42,1011.7 1803.43,1070.04 1804.45,1070.26 1805.46,1155.46 1806.47,1155.06 1807.48,991.596 1808.49,990.037 1809.5,956.538 1810.52,955.911 1811.53,1049.58 1812.54,1049.25 1813.55,871.956 1814.56,870.68 1815.57,1166.44 1816.59,1167.18 1817.6,859.569 1818.61,859.689 1819.62,863.784 1820.63,860.963 1821.64,1249.17 1822.66,1250.75 1823.67,916.448 1824.68,915.68 1825.69,1036.96 1826.7,1032.14 1827.71,1150.4 1828.73,1149.85 1829.74,1037.15 1830.75,1036.46 1831.76,1145.2 1832.77,1145.12 1833.79,797.204 1834.8,795.013 1835.81,944.399 1836.82,940.66 1837.83,956.119 1838.84,953.165 1839.86,1142.28 1840.87,1142.56 1841.88,1263.46 1842.89,1264.52 1843.9,972.577 1844.91,971.129 1845.93,1291.03 1846.94,1291.89 1847.95,954.623 1848.96,953.442 1849.97,978.609 1850.98,978.098 1852,958.487 1853.01,958.837 1854.02,1233.44 1855.03,1233.2 1856.04,947.906 1857.05,948.296 1858.07,1239.49 1859.08,1241.1 1860.09,933.676 1861.1,929.858 1862.11,1406.8 1863.12,1406.97 1864.14,994.821 1865.15,994.189 1866.16,941.838 1867.17,941.022 1868.18,1009.31 1869.19,1009.87 1870.21,1049.82 1871.22,1049.94 1872.23,935.225 1873.24,933.785 1874.25,968.529 1875.26,968.347 1876.28,821.251 1877.29,820.419 1878.3,1190.27 1879.31,1190.05 1880.32,1154.14 1881.33,1154.69 1882.35,914.427 1883.36,914.338 1884.37,1021.75 1885.38,1021.43 1886.39,836.413 1887.41,834.501 1888.42,1318.95 1889.43,1319.43 1890.44,1129.56 1891.45,1130.19 1892.46,800.096 1893.48,796.752 1894.49,1119.85 1895.5,1120.81 1896.51,1169.17 1897.52,1169.35 1898.53,952.738 1899.55,952.817 1900.56,1112.26 1901.57,1110.81 1902.58,935.179 1903.59,933.961 1904.6,1109.73 1905.62,1107.26 1906.63,1151.79 1907.64,1153.19 1908.65,1043.15 1909.66,1042.64 1910.67,1228.31 1911.69,1228.83 1912.7,816.061 1913.71,812.198 1914.72,1135.09 1915.73,1134.1 1916.74,1280.56 1917.76,1280.55 1918.77,780.822 1919.78,777.341 1920.79,1076.87 1921.8,1074.14 1922.81,1100.14 1923.83,1100.14 1924.84,1089.33 1925.85,1089.2 1926.86,811.313 1927.87,811.223 1928.88,785.651 1929.9,783.809 1930.91,1116.73 1931.92,1116.35 1932.93,1243.87 1933.94,1244.33 1934.95,964.779 1935.97,962.064 1936.98,830.508 1937.99,829.285 1939,995.636 1940.01,995.492 1941.03,1038.05 1942.04,1037.31 1943.05,1340.16 1944.06,1340.78 1945.07,996.733 1946.08,995.945 1947.1,1030 1948.11,1028.99 1949.12,733.269 1950.13,732.286 1951.14,1039.69 1952.15,1037.16 1953.17,1036.76 1954.18,1035.7 1955.19,1092.62 1956.2,1092.87 1957.21,1183.96 1958.22,1184.45 1959.24,1088.28 1960.25,1085.64 1961.26,733.873 1962.27,729.764 1963.28,945.819 1964.29,944.97 1965.31,1068.97 1966.32,1067.45 1967.33,1116.93 1968.34,1117.63 1969.35,942.362 1970.36,942.379 1971.38,1292.39 1972.39,1291.71 1973.4,1046.37 1974.41,1045.5 1975.42,905.415 1976.43,903.557 1977.45,925.357 1978.46,924.774 1979.47,648.593 1980.48,647.89 1981.49,1013.69 1982.5,1013.11 1983.52,688.161 1984.53,685.725 1985.54,899.383 1986.55,897.427 1987.56,870.794 1988.57,869.391 1989.59,1213.58 1990.6,1213.59 1991.61,1027.04 1992.62,1026.72 1993.63,1218.71 1994.65,1218.33 1995.66,1235.53 1996.67,1237 1997.68,970.36 1998.69,969.976 1999.7,1110.8 2000.72,1111.41 2001.73,968.666 2002.74,967.666 2003.75,1099.32 2004.76,1099.47 2005.77,946.066 2006.79,944.838 2007.8,983.084 2008.81,981.861 2009.82,1077.8 2010.83,1078.41 2011.84,1264.22 2012.86,1264.96 2013.87,1195.72 2014.88,1194.82 2015.89,955.26 2016.9,953.998 2017.91,939.528 2018.93,938.039 2019.94,1109.91 2020.95,1110.37 2021.96,813.079 2022.97,810.202 2023.98,771.219 2025,768.416 2026.01,1254.76 2027.02,1254.16 2028.03,1101.27 2029.04,1099.46 2030.05,911.214 2031.07,910.786 2032.08,907.64 2033.09,906.605 2034.1,1043.59 2035.11,1043.1 2036.12,992.477 2037.14,992.412 2038.15,1085.21 2039.16,1084.71 2040.17,978.571 2041.18,978.137 2042.19,1036.04 2043.21,1036.37 2044.22,907.555 2045.23,905.687 2046.24,1074.46 2047.25,1075.07 2048.27,1171.62 2049.28,1171.23 2050.29,881.598 2051.3,880.744 2052.31,1395.29 2053.32,1397.01 2054.34,856.486 2055.35,853.394 2056.36,890.22 2057.37,888.019 2058.38,891.176 2059.39,890.877 2060.41,1160.28 2061.42,1161.42 2062.43,1017.27 2063.44,1017.34 2064.45,1206.18 2065.46,1205.71 2066.48,966.262 2067.49,964.145 2068.5,1076.41 2069.51,1077.25 2070.52,909.473 2071.53,907.313 2072.55,799.08 2073.56,796.241 2074.57,1115.22 2075.58,1114.26 2076.59,855.194 2077.6,853.321 2078.62,963.544 2079.63,961.172 2080.64,1311.64 2081.65,1312.76 2082.66,1161.73 2083.67,1162.96 2084.69,1159.09 2085.7,1159.84 2086.71,979.24 2087.72,979.573 2088.73,969.298 2089.74,969.23 2090.76,1122.92 2091.77,1122.79 2092.78,897.941 2093.79,897.921 2094.8,816.225 2095.81,814.374 2096.83,1215.4 2097.84,1216.79 2098.85,868.847 2099.86,868.244 2100.87,1003.51 2101.89,1004.13 2102.9,1148.96 2103.91,1149.59 2104.92,1245.59 2105.93,1246.43 2106.94,1192.9 2107.96,1191.99 2108.97,725.36 2109.98,723.836 2110.99,1269.41 2112,1269.82 2113.01,1107.83 2114.03,1107.12 2115.04,926.045 2116.05,923.806 2117.06,942.754 2118.07,942.207 2119.08,875.53 2120.1,874.371 2121.11,1019.19 2122.12,1018.77 2123.13,1172.04 2124.14,1172.18 2125.15,1313.77 2126.17,1315.45 2127.18,778.445 2128.19,771.345 2129.2,848.941 2130.21,846.724 2131.22,993.64 2132.24,992.105 2133.25,939.982 2134.26,938.225 2135.27,1171.5 2136.28,1172.08 2137.29,977.052 2138.31,976.011 2139.32,1151.27 2140.33,1151.4 2141.34,948.115 2142.35,946.741 2143.36,1087.06 2144.38,1087.95 2145.39,881.033 2146.4,879.652 2147.41,1266.33 2148.42,1267.22 2149.43,1409.79 2150.45,1411.33 2151.46,928.513 2152.47,926.376 2153.48,975.974 2154.49,975.266 2155.51,1043.33 2156.52,1041.24 2157.53,847.186 2158.54,844.663 2159.55,1444.38 2160.56,1445.72 2161.58,951.833 2162.59,949.926 2163.6,822.058 2164.61,819.85 2165.62,953.421 2166.63,951.744 2167.65,880.581 2168.66,880.929 2169.67,1034.39 2170.68,1033.06 2171.69,1061.88 2172.7,1060.72 2173.72,1230.21 2174.73,1228.97 2175.74,990.082 2176.75,988.233 2177.76,1087.5 2178.77,1087.44 2179.79,1088.61 2180.8,1088.2 2181.81,1012.79 2182.82,1009.45 2183.83,802.261 2184.84,800.935 2185.86,888.568 2186.87,887.285 2187.88,852.483 2188.89,851.946 2189.9,1088.28 2190.91,1088.52 2191.93,1076.69 2192.94,1076.66 2193.95,1029.76 2194.96,1026.97 2195.97,861.841 2196.98,860.127 2198,1141.76 2199.01,1141.42 2200.02,1172.41 2201.03,1171.85 2202.04,1065.75 2203.05,1064.13 2204.07,1319.05 2205.08,1320.28 2206.09,896.206 2207.1,896.492 2208.11,1104.42 2209.13,1105.03 2210.14,1059.03 2211.15,1059.29 2212.16,855.652 2213.17,854.322 2214.18,944.725 2215.2,942.15 2216.21,948.5 2217.22,947.024 2218.23,1137.76 2219.24,1138.29 2220.25,1020.47 2221.27,1019.1 2222.28,906.564 2223.29,905.813 2224.3,943.383 2225.31,943.44 2226.32,1176.42 2227.34,1175.67 2228.35,944.01 2229.36,943.853 2230.37,1045.47 2231.38,1044.48 2232.39,1174.67 2233.41,1175.61 2234.42,1063.14 2235.43,1063.66 2236.44,854.21 2237.45,851.961 2238.46,1055.97 2239.48,1055.48 2240.49,1166.48 2241.5,1165.08 2242.51,735.462 2243.52,732.901 2244.53,1183.39 2245.55,1183.65 2246.56,1006.71 2247.57,1007.44 2248.58,1219.18 2249.59,1220.21 2250.6,811.615 2251.62,810.679 2252.63,1008.77 2253.64,1008.06 2254.65,924.162 2255.66,922.068 2256.67,936.528 2257.69,936.189 2258.7,1293.08 2259.71,1293.92 2260.72,996.532 2261.73,996.288 2262.75,826.874 2263.76,827.204 2264.77,742.957 2265.78,741.252 2266.79,1040.81 2267.8,1040.07 2268.82,917.013 2269.83,915.014 2270.84,1066.62 2271.85,1066.53 2272.86,1061.44 2273.87,1059.65 2274.89,814.021 2275.9,812.598 2276.91,1264.89 2277.92,1264.83 2278.93,974.263 2279.94,972.355 2280.96,772.227 2281.97,771.625 2282.98,1187.9 2283.99,1187.02 2285,1055.44 2286.01,1055.05 2287.03,956.422 2288.04,954.709 2289.05,973.492 2290.06,973.103 2291.07,1142.2 2292.08,1139.94 "/>
<path clip-path="url(#clip530)" d="M2014.5 198.898 L2281.3 198.898 L2281.3 95.2176 L2014.5 95.2176  Z" fill="#ffffff" fill-rule="evenodd" fill-opacity="1"/>
<polyline clip-path="url(#clip530)" style="stroke:#000000; stroke-linecap:round; stroke-linejoin:round; stroke-width:4; stroke-opacity:1; fill:none" points="2014.5,198.898 2281.3,198.898 2281.3,95.2176 2014.5,95.2176 2014.5,198.898 "/>
<polyline clip-path="url(#clip530)" style="stroke:#009af9; stroke-linecap:round; stroke-linejoin:round; stroke-width:4; stroke-opacity:1; fill:none" points="2038.31,147.058 2181.23,147.058 "/>
<path clip-path="url(#clip530)" d="M2218.89 166.745 Q2217.09 171.375 2215.37 172.787 Q2213.66 174.199 2210.79 174.199 L2207.39 174.199 L2207.39 170.634 L2209.89 170.634 Q2211.65 170.634 2212.62 169.8 Q2213.59 168.967 2214.77 165.865 L2215.53 163.921 L2205.05 138.412 L2209.56 138.412 L2217.66 158.689 L2225.77 138.412 L2230.28 138.412 L2218.89 166.745 Z" fill="#000000" fill-rule="nonzero" fill-opacity="1" /><path clip-path="url(#clip530)" d="M2237.57 160.402 L2245.21 160.402 L2245.21 134.037 L2236.9 135.703 L2236.9 131.444 L2245.16 129.778 L2249.84 129.778 L2249.84 160.402 L2257.48 160.402 L2257.48 164.338 L2237.57 164.338 L2237.57 160.402 Z" fill="#000000" fill-rule="nonzero" fill-opacity="1" /></svg>
