<?xml version="1.0" encoding="utf-8"?>
<svg xmlns="http://www.w3.org/2000/svg" xmlns:xlink="http://www.w3.org/1999/xlink" width="600" height="400" viewBox="0 0 2400 1600">
<defs>
  <clipPath id="clip280">
    <rect x="0" y="0" width="2400" height="1600"/>
  </clipPath>
</defs>
<path clip-path="url(#clip280)" d="M0 1600 L2400 1600 L2400 0 L0 0  Z" fill="#ffffff" fill-rule="evenodd" fill-opacity="1"/>
<defs>
  <clipPath id="clip281">
    <rect x="480" y="0" width="1681" height="1600"/>
  </clipPath>
</defs>
<path clip-path="url(#clip280)" d="M156.274 1486.45 L2352.76 1486.45 L2352.76 47.2441 L156.274 47.2441  Z" fill="#ffffff" fill-rule="evenodd" fill-opacity="1"/>
<defs>
  <clipPath id="clip282">
    <rect x="156" y="47" width="2197" height="1440"/>
  </clipPath>
</defs>
<polyline clip-path="url(#clip282)" style="stroke:#000000; stroke-linecap:round; stroke-linejoin:round; stroke-width:2; stroke-opacity:0.1; fill:none" points="218.439,1486.45 218.439,47.2441 "/>
<polyline clip-path="url(#clip282)" style="stroke:#000000; stroke-linecap:round; stroke-linejoin:round; stroke-width:2; stroke-opacity:0.1; fill:none" points="736.995,1486.45 736.995,47.2441 "/>
<polyline clip-path="url(#clip282)" style="stroke:#000000; stroke-linecap:round; stroke-linejoin:round; stroke-width:2; stroke-opacity:0.1; fill:none" points="1255.55,1486.45 1255.55,47.2441 "/>
<polyline clip-path="url(#clip282)" style="stroke:#000000; stroke-linecap:round; stroke-linejoin:round; stroke-width:2; stroke-opacity:0.1; fill:none" points="1774.11,1486.45 1774.11,47.2441 "/>
<polyline clip-path="url(#clip282)" style="stroke:#000000; stroke-linecap:round; stroke-linejoin:round; stroke-width:2; stroke-opacity:0.1; fill:none" points="2292.67,1486.45 2292.67,47.2441 "/>
<polyline clip-path="url(#clip280)" style="stroke:#000000; stroke-linecap:round; stroke-linejoin:round; stroke-width:4; stroke-opacity:1; fill:none" points="156.274,1486.45 2352.76,1486.45 "/>
<polyline clip-path="url(#clip280)" style="stroke:#000000; stroke-linecap:round; stroke-linejoin:round; stroke-width:4; stroke-opacity:1; fill:none" points="218.439,1486.45 218.439,1467.55 "/>
<polyline clip-path="url(#clip280)" style="stroke:#000000; stroke-linecap:round; stroke-linejoin:round; stroke-width:4; stroke-opacity:1; fill:none" points="736.995,1486.45 736.995,1467.55 "/>
<polyline clip-path="url(#clip280)" style="stroke:#000000; stroke-linecap:round; stroke-linejoin:round; stroke-width:4; stroke-opacity:1; fill:none" points="1255.55,1486.45 1255.55,1467.55 "/>
<polyline clip-path="url(#clip280)" style="stroke:#000000; stroke-linecap:round; stroke-linejoin:round; stroke-width:4; stroke-opacity:1; fill:none" points="1774.11,1486.45 1774.11,1467.55 "/>
<polyline clip-path="url(#clip280)" style="stroke:#000000; stroke-linecap:round; stroke-linejoin:round; stroke-width:4; stroke-opacity:1; fill:none" points="2292.67,1486.45 2292.67,1467.55 "/>
<path clip-path="url(#clip280)" d="M218.439 1517.37 Q214.828 1517.37 212.999 1520.93 Q211.193 1524.47 211.193 1531.6 Q211.193 1538.71 212.999 1542.27 Q214.828 1545.82 218.439 1545.82 Q222.073 1545.82 223.879 1542.27 Q225.707 1538.71 225.707 1531.6 Q225.707 1524.47 223.879 1520.93 Q222.073 1517.37 218.439 1517.37 M218.439 1513.66 Q224.249 1513.66 227.304 1518.27 Q230.383 1522.85 230.383 1531.6 Q230.383 1540.33 227.304 1544.94 Q224.249 1549.52 218.439 1549.52 Q212.629 1549.52 209.55 1544.94 Q206.494 1540.33 206.494 1531.6 Q206.494 1522.85 209.55 1518.27 Q212.629 1513.66 218.439 1513.66 Z" fill="#000000" fill-rule="nonzero" fill-opacity="1" /><path clip-path="url(#clip280)" d="M700.688 1544.91 L717.007 1544.91 L717.007 1548.85 L695.063 1548.85 L695.063 1544.91 Q697.725 1542.16 702.308 1537.53 Q706.915 1532.88 708.095 1531.53 Q710.34 1529.01 711.22 1527.27 Q712.123 1525.51 712.123 1523.82 Q712.123 1521.07 710.178 1519.33 Q708.257 1517.6 705.155 1517.6 Q702.956 1517.6 700.503 1518.36 Q698.072 1519.13 695.294 1520.68 L695.294 1515.95 Q698.118 1514.82 700.572 1514.24 Q703.026 1513.66 705.063 1513.66 Q710.433 1513.66 713.628 1516.35 Q716.822 1519.03 716.822 1523.52 Q716.822 1525.65 716.012 1527.57 Q715.225 1529.47 713.118 1532.07 Q712.54 1532.74 709.438 1535.95 Q706.336 1539.15 700.688 1544.91 Z" fill="#000000" fill-rule="nonzero" fill-opacity="1" /><path clip-path="url(#clip280)" d="M726.868 1514.29 L745.225 1514.29 L745.225 1518.22 L731.151 1518.22 L731.151 1526.7 Q732.169 1526.35 733.188 1526.19 Q734.206 1526 735.225 1526 Q741.012 1526 744.391 1529.17 Q747.771 1532.34 747.771 1537.76 Q747.771 1543.34 744.299 1546.44 Q740.826 1549.52 734.507 1549.52 Q732.331 1549.52 730.063 1549.15 Q727.817 1548.78 725.41 1548.04 L725.41 1543.34 Q727.493 1544.47 729.715 1545.03 Q731.938 1545.58 734.414 1545.58 Q738.419 1545.58 740.757 1543.48 Q743.095 1541.37 743.095 1537.76 Q743.095 1534.15 740.757 1532.04 Q738.419 1529.94 734.414 1529.94 Q732.539 1529.94 730.664 1530.35 Q728.813 1530.77 726.868 1531.65 L726.868 1514.29 Z" fill="#000000" fill-rule="nonzero" fill-opacity="1" /><path clip-path="url(#clip280)" d="M766.984 1517.37 Q763.373 1517.37 761.544 1520.93 Q759.738 1524.47 759.738 1531.6 Q759.738 1538.71 761.544 1542.27 Q763.373 1545.82 766.984 1545.82 Q770.618 1545.82 772.423 1542.27 Q774.252 1538.71 774.252 1531.6 Q774.252 1524.47 772.423 1520.93 Q770.618 1517.37 766.984 1517.37 M766.984 1513.66 Q772.794 1513.66 775.849 1518.27 Q778.928 1522.85 778.928 1531.6 Q778.928 1540.33 775.849 1544.94 Q772.794 1549.52 766.984 1549.52 Q761.174 1549.52 758.095 1544.94 Q755.039 1540.33 755.039 1531.6 Q755.039 1522.85 758.095 1518.27 Q761.174 1513.66 766.984 1513.66 Z" fill="#000000" fill-rule="nonzero" fill-opacity="1" /><path clip-path="url(#clip280)" d="M1215.17 1514.29 L1233.53 1514.29 L1233.53 1518.22 L1219.45 1518.22 L1219.45 1526.7 Q1220.47 1526.35 1221.49 1526.19 Q1222.51 1526 1223.53 1526 Q1229.31 1526 1232.69 1529.17 Q1236.07 1532.34 1236.07 1537.76 Q1236.07 1543.34 1232.6 1546.44 Q1229.13 1549.52 1222.81 1549.52 Q1220.63 1549.52 1218.36 1549.15 Q1216.12 1548.78 1213.71 1548.04 L1213.71 1543.34 Q1215.8 1544.47 1218.02 1545.03 Q1220.24 1545.58 1222.72 1545.58 Q1226.72 1545.58 1229.06 1543.48 Q1231.4 1541.37 1231.4 1537.76 Q1231.4 1534.15 1229.06 1532.04 Q1226.72 1529.94 1222.72 1529.94 Q1220.84 1529.94 1218.97 1530.35 Q1217.11 1530.77 1215.17 1531.65 L1215.17 1514.29 Z" fill="#000000" fill-rule="nonzero" fill-opacity="1" /><path clip-path="url(#clip280)" d="M1255.29 1517.37 Q1251.67 1517.37 1249.85 1520.93 Q1248.04 1524.47 1248.04 1531.6 Q1248.04 1538.71 1249.85 1542.27 Q1251.67 1545.82 1255.29 1545.82 Q1258.92 1545.82 1260.73 1542.27 Q1262.55 1538.71 1262.55 1531.6 Q1262.55 1524.47 1260.73 1520.93 Q1258.92 1517.37 1255.29 1517.37 M1255.29 1513.66 Q1261.1 1513.66 1264.15 1518.27 Q1267.23 1522.85 1267.23 1531.6 Q1267.23 1540.33 1264.15 1544.94 Q1261.1 1549.52 1255.29 1549.52 Q1249.48 1549.52 1246.4 1544.94 Q1243.34 1540.33 1243.34 1531.6 Q1243.34 1522.85 1246.4 1518.27 Q1249.48 1513.66 1255.29 1513.66 Z" fill="#000000" fill-rule="nonzero" fill-opacity="1" /><path clip-path="url(#clip280)" d="M1285.45 1517.37 Q1281.84 1517.37 1280.01 1520.93 Q1278.2 1524.47 1278.2 1531.6 Q1278.2 1538.71 1280.01 1542.27 Q1281.84 1545.82 1285.45 1545.82 Q1289.08 1545.82 1290.89 1542.27 Q1292.72 1538.71 1292.72 1531.6 Q1292.72 1524.47 1290.89 1520.93 Q1289.08 1517.37 1285.45 1517.37 M1285.45 1513.66 Q1291.26 1513.66 1294.31 1518.27 Q1297.39 1522.85 1297.39 1531.6 Q1297.39 1540.33 1294.31 1544.94 Q1291.26 1549.52 1285.45 1549.52 Q1279.64 1549.52 1276.56 1544.94 Q1273.5 1540.33 1273.5 1531.6 Q1273.5 1522.85 1276.56 1518.27 Q1279.64 1513.66 1285.45 1513.66 Z" fill="#000000" fill-rule="nonzero" fill-opacity="1" /><path clip-path="url(#clip280)" d="M1732.38 1514.29 L1754.61 1514.29 L1754.61 1516.28 L1742.06 1548.85 L1737.18 1548.85 L1748.98 1518.22 L1732.38 1518.22 L1732.38 1514.29 Z" fill="#000000" fill-rule="nonzero" fill-opacity="1" /><path clip-path="url(#clip280)" d="M1763.77 1514.29 L1782.13 1514.29 L1782.13 1518.22 L1768.06 1518.22 L1768.06 1526.7 Q1769.07 1526.35 1770.09 1526.19 Q1771.11 1526 1772.13 1526 Q1777.92 1526 1781.3 1529.17 Q1784.68 1532.34 1784.68 1537.76 Q1784.68 1543.34 1781.2 1546.44 Q1777.73 1549.52 1771.41 1549.52 Q1769.24 1549.52 1766.97 1549.15 Q1764.72 1548.78 1762.31 1548.04 L1762.31 1543.34 Q1764.4 1544.47 1766.62 1545.03 Q1768.84 1545.58 1771.32 1545.58 Q1775.32 1545.58 1777.66 1543.48 Q1780 1541.37 1780 1537.76 Q1780 1534.15 1777.66 1532.04 Q1775.32 1529.94 1771.32 1529.94 Q1769.44 1529.94 1767.57 1530.35 Q1765.72 1530.77 1763.77 1531.65 L1763.77 1514.29 Z" fill="#000000" fill-rule="nonzero" fill-opacity="1" /><path clip-path="url(#clip280)" d="M1803.89 1517.37 Q1800.28 1517.37 1798.45 1520.93 Q1796.64 1524.47 1796.64 1531.6 Q1796.64 1538.71 1798.45 1542.27 Q1800.28 1545.82 1803.89 1545.82 Q1807.52 1545.82 1809.33 1542.27 Q1811.16 1538.71 1811.16 1531.6 Q1811.16 1524.47 1809.33 1520.93 Q1807.52 1517.37 1803.89 1517.37 M1803.89 1513.66 Q1809.7 1513.66 1812.75 1518.27 Q1815.83 1522.85 1815.83 1531.6 Q1815.83 1540.33 1812.75 1544.94 Q1809.7 1549.52 1803.89 1549.52 Q1798.08 1549.52 1795 1544.94 Q1791.94 1540.33 1791.94 1531.6 Q1791.94 1522.85 1795 1518.27 Q1798.08 1513.66 1803.89 1513.66 Z" fill="#000000" fill-rule="nonzero" fill-opacity="1" /><path clip-path="url(#clip280)" d="M2237.19 1544.91 L2244.83 1544.91 L2244.83 1518.55 L2236.52 1520.21 L2236.52 1515.95 L2244.78 1514.29 L2249.46 1514.29 L2249.46 1544.91 L2257.1 1544.91 L2257.1 1548.85 L2237.19 1548.85 L2237.19 1544.91 Z" fill="#000000" fill-rule="nonzero" fill-opacity="1" /><path clip-path="url(#clip280)" d="M2276.54 1517.37 Q2272.93 1517.37 2271.1 1520.93 Q2269.3 1524.47 2269.3 1531.6 Q2269.3 1538.71 2271.1 1542.27 Q2272.93 1545.82 2276.54 1545.82 Q2280.18 1545.82 2281.98 1542.27 Q2283.81 1538.71 2283.81 1531.6 Q2283.81 1524.47 2281.98 1520.93 Q2280.18 1517.37 2276.54 1517.37 M2276.54 1513.66 Q2282.35 1513.66 2285.41 1518.27 Q2288.49 1522.85 2288.49 1531.6 Q2288.49 1540.33 2285.41 1544.94 Q2282.35 1549.52 2276.54 1549.52 Q2270.73 1549.52 2267.65 1544.94 Q2264.6 1540.33 2264.6 1531.6 Q2264.6 1522.85 2267.65 1518.27 Q2270.73 1513.66 2276.54 1513.66 Z" fill="#000000" fill-rule="nonzero" fill-opacity="1" /><path clip-path="url(#clip280)" d="M2306.7 1517.37 Q2303.09 1517.37 2301.27 1520.93 Q2299.46 1524.47 2299.46 1531.6 Q2299.46 1538.71 2301.27 1542.27 Q2303.09 1545.82 2306.7 1545.82 Q2310.34 1545.82 2312.14 1542.27 Q2313.97 1538.71 2313.97 1531.6 Q2313.97 1524.47 2312.14 1520.93 Q2310.34 1517.37 2306.7 1517.37 M2306.7 1513.66 Q2312.51 1513.66 2315.57 1518.27 Q2318.65 1522.85 2318.65 1531.6 Q2318.65 1540.33 2315.57 1544.94 Q2312.51 1549.52 2306.7 1549.52 Q2300.89 1549.52 2297.82 1544.94 Q2294.76 1540.33 2294.76 1531.6 Q2294.76 1522.85 2297.82 1518.27 Q2300.89 1513.66 2306.7 1513.66 Z" fill="#000000" fill-rule="nonzero" fill-opacity="1" /><path clip-path="url(#clip280)" d="M2336.87 1517.37 Q2333.26 1517.37 2331.43 1520.93 Q2329.62 1524.47 2329.62 1531.6 Q2329.62 1538.71 2331.43 1542.27 Q2333.26 1545.82 2336.87 1545.82 Q2340.5 1545.82 2342.31 1542.27 Q2344.14 1538.71 2344.14 1531.6 Q2344.14 1524.47 2342.31 1520.93 Q2340.5 1517.37 2336.87 1517.37 M2336.87 1513.66 Q2342.68 1513.66 2345.73 1518.27 Q2348.81 1522.85 2348.81 1531.6 Q2348.81 1540.33 2345.73 1544.94 Q2342.68 1549.52 2336.87 1549.52 Q2331.06 1549.52 2327.98 1544.94 Q2324.92 1540.33 2324.92 1531.6 Q2324.92 1522.85 2327.98 1518.27 Q2331.06 1513.66 2336.87 1513.66 Z" fill="#000000" fill-rule="nonzero" fill-opacity="1" /><polyline clip-path="url(#clip282)" style="stroke:#000000; stroke-linecap:round; stroke-linejoin:round; stroke-width:2; stroke-opacity:0.1; fill:none" points="156.274,1481.45 2352.76,1481.45 "/>
<polyline clip-path="url(#clip282)" style="stroke:#000000; stroke-linecap:round; stroke-linejoin:round; stroke-width:2; stroke-opacity:0.1; fill:none" points="156.274,1124.15 2352.76,1124.15 "/>
<polyline clip-path="url(#clip282)" style="stroke:#000000; stroke-linecap:round; stroke-linejoin:round; stroke-width:2; stroke-opacity:0.1; fill:none" points="156.274,766.846 2352.76,766.846 "/>
<polyline clip-path="url(#clip282)" style="stroke:#000000; stroke-linecap:round; stroke-linejoin:round; stroke-width:2; stroke-opacity:0.1; fill:none" points="156.274,409.546 2352.76,409.546 "/>
<polyline clip-path="url(#clip282)" style="stroke:#000000; stroke-linecap:round; stroke-linejoin:round; stroke-width:2; stroke-opacity:0.1; fill:none" points="156.274,52.2463 2352.76,52.2463 "/>
<polyline clip-path="url(#clip280)" style="stroke:#000000; stroke-linecap:round; stroke-linejoin:round; stroke-width:4; stroke-opacity:1; fill:none" points="156.274,1486.45 156.274,47.2441 "/>
<polyline clip-path="url(#clip280)" style="stroke:#000000; stroke-linecap:round; stroke-linejoin:round; stroke-width:4; stroke-opacity:1; fill:none" points="156.274,1481.45 175.172,1481.45 "/>
<polyline clip-path="url(#clip280)" style="stroke:#000000; stroke-linecap:round; stroke-linejoin:round; stroke-width:4; stroke-opacity:1; fill:none" points="156.274,1124.15 175.172,1124.15 "/>
<polyline clip-path="url(#clip280)" style="stroke:#000000; stroke-linecap:round; stroke-linejoin:round; stroke-width:4; stroke-opacity:1; fill:none" points="156.274,766.846 175.172,766.846 "/>
<polyline clip-path="url(#clip280)" style="stroke:#000000; stroke-linecap:round; stroke-linejoin:round; stroke-width:4; stroke-opacity:1; fill:none" points="156.274,409.546 175.172,409.546 "/>
<polyline clip-path="url(#clip280)" style="stroke:#000000; stroke-linecap:round; stroke-linejoin:round; stroke-width:4; stroke-opacity:1; fill:none" points="156.274,52.2463 175.172,52.2463 "/>
<path clip-path="url(#clip280)" d="M64.0939 1467.24 Q60.4828 1467.24 58.6541 1470.81 Q56.8486 1474.35 56.8486 1481.48 Q56.8486 1488.59 58.6541 1492.15 Q60.4828 1495.69 64.0939 1495.69 Q67.7281 1495.69 69.5337 1492.15 Q71.3624 1488.59 71.3624 1481.48 Q71.3624 1474.35 69.5337 1470.81 Q67.7281 1467.24 64.0939 1467.24 M64.0939 1463.54 Q69.9041 1463.54 72.9596 1468.15 Q76.0383 1472.73 76.0383 1481.48 Q76.0383 1490.21 72.9596 1494.81 Q69.9041 1499.4 64.0939 1499.4 Q58.2838 1499.4 55.2051 1494.81 Q52.1495 1490.21 52.1495 1481.48 Q52.1495 1472.73 55.2051 1468.15 Q58.2838 1463.54 64.0939 1463.54 Z" fill="#000000" fill-rule="nonzero" fill-opacity="1" /><path clip-path="url(#clip280)" d="M84.2558 1492.85 L89.1401 1492.85 L89.1401 1498.73 L84.2558 1498.73 L84.2558 1492.85 Z" fill="#000000" fill-rule="nonzero" fill-opacity="1" /><path clip-path="url(#clip280)" d="M99.3715 1464.17 L117.728 1464.17 L117.728 1468.1 L103.654 1468.1 L103.654 1476.57 Q104.672 1476.23 105.691 1476.06 Q106.709 1475.88 107.728 1475.88 Q113.515 1475.88 116.895 1479.05 Q120.274 1482.22 120.274 1487.64 Q120.274 1493.22 116.802 1496.32 Q113.33 1499.4 107.01 1499.4 Q104.834 1499.4 102.566 1499.03 Q100.321 1498.66 97.9132 1497.92 L97.9132 1493.22 Q99.9965 1494.35 102.219 1494.91 Q104.441 1495.46 106.918 1495.46 Q110.922 1495.46 113.26 1493.36 Q115.598 1491.25 115.598 1487.64 Q115.598 1484.03 113.26 1481.92 Q110.922 1479.81 106.918 1479.81 Q105.043 1479.81 103.168 1480.23 Q101.316 1480.65 99.3715 1481.53 L99.3715 1464.17 Z" fill="#000000" fill-rule="nonzero" fill-opacity="1" /><path clip-path="url(#clip280)" d="M62.9365 1109.94 Q59.3254 1109.94 57.4967 1113.51 Q55.6912 1117.05 55.6912 1124.18 Q55.6912 1131.29 57.4967 1134.85 Q59.3254 1138.39 62.9365 1138.39 Q66.5707 1138.39 68.3763 1134.85 Q70.205 1131.29 70.205 1124.18 Q70.205 1117.05 68.3763 1113.51 Q66.5707 1109.94 62.9365 1109.94 M62.9365 1106.24 Q68.7467 1106.24 71.8022 1110.85 Q74.8809 1115.43 74.8809 1124.18 Q74.8809 1132.91 71.8022 1137.51 Q68.7467 1142.1 62.9365 1142.1 Q57.1264 1142.1 54.0477 1137.51 Q50.9921 1132.91 50.9921 1124.18 Q50.9921 1115.43 54.0477 1110.85 Q57.1264 1106.24 62.9365 1106.24 Z" fill="#000000" fill-rule="nonzero" fill-opacity="1" /><path clip-path="url(#clip280)" d="M83.0984 1135.55 L87.9827 1135.55 L87.9827 1141.43 L83.0984 1141.43 L83.0984 1135.55 Z" fill="#000000" fill-rule="nonzero" fill-opacity="1" /><path clip-path="url(#clip280)" d="M108.746 1122.28 Q105.598 1122.28 103.746 1124.44 Q101.918 1126.59 101.918 1130.34 Q101.918 1134.06 103.746 1136.24 Q105.598 1138.39 108.746 1138.39 Q111.895 1138.39 113.723 1136.24 Q115.575 1134.06 115.575 1130.34 Q115.575 1126.59 113.723 1124.44 Q111.895 1122.28 108.746 1122.28 M118.029 1107.63 L118.029 1111.89 Q116.27 1111.06 114.464 1110.62 Q112.682 1110.18 110.922 1110.18 Q106.293 1110.18 103.839 1113.3 Q101.409 1116.43 101.061 1122.75 Q102.427 1120.73 104.487 1119.67 Q106.547 1118.58 109.024 1118.58 Q114.233 1118.58 117.242 1121.75 Q120.274 1124.9 120.274 1130.34 Q120.274 1135.66 117.126 1138.88 Q113.978 1142.1 108.746 1142.1 Q102.751 1142.1 99.5798 1137.51 Q96.4085 1132.91 96.4085 1124.18 Q96.4085 1115.99 100.297 1111.13 Q104.186 1106.24 110.737 1106.24 Q112.496 1106.24 114.279 1106.59 Q116.084 1106.94 118.029 1107.63 Z" fill="#000000" fill-rule="nonzero" fill-opacity="1" /><path clip-path="url(#clip280)" d="M64.0013 752.645 Q60.3902 752.645 58.5615 756.209 Q56.756 759.751 56.756 766.881 Q56.756 773.987 58.5615 777.552 Q60.3902 781.094 64.0013 781.094 Q67.6356 781.094 69.4411 777.552 Q71.2698 773.987 71.2698 766.881 Q71.2698 759.751 69.4411 756.209 Q67.6356 752.645 64.0013 752.645 M64.0013 748.941 Q69.8115 748.941 72.867 753.547 Q75.9457 758.131 75.9457 766.881 Q75.9457 775.608 72.867 780.214 Q69.8115 784.797 64.0013 784.797 Q58.1912 784.797 55.1125 780.214 Q52.0569 775.608 52.0569 766.881 Q52.0569 758.131 55.1125 753.547 Q58.1912 748.941 64.0013 748.941 Z" fill="#000000" fill-rule="nonzero" fill-opacity="1" /><path clip-path="url(#clip280)" d="M84.1632 778.246 L89.0475 778.246 L89.0475 784.126 L84.1632 784.126 L84.1632 778.246 Z" fill="#000000" fill-rule="nonzero" fill-opacity="1" /><path clip-path="url(#clip280)" d="M98.0521 749.566 L120.274 749.566 L120.274 751.557 L107.728 784.126 L102.844 784.126 L114.649 753.501 L98.0521 753.501 L98.0521 749.566 Z" fill="#000000" fill-rule="nonzero" fill-opacity="1" /><path clip-path="url(#clip280)" d="M63.1911 395.345 Q59.58 395.345 57.7513 398.91 Q55.9458 402.451 55.9458 409.581 Q55.9458 416.687 57.7513 420.252 Q59.58 423.794 63.1911 423.794 Q66.8254 423.794 68.6309 420.252 Q70.4596 416.687 70.4596 409.581 Q70.4596 402.451 68.6309 398.91 Q66.8254 395.345 63.1911 395.345 M63.1911 391.641 Q69.0013 391.641 72.0568 396.248 Q75.1355 400.831 75.1355 409.581 Q75.1355 418.308 72.0568 422.914 Q69.0013 427.497 63.1911 427.497 Q57.381 427.497 54.3023 422.914 Q51.2468 418.308 51.2468 409.581 Q51.2468 400.831 54.3023 396.248 Q57.381 391.641 63.1911 391.641 Z" fill="#000000" fill-rule="nonzero" fill-opacity="1" /><path clip-path="url(#clip280)" d="M83.3531 420.947 L88.2373 420.947 L88.2373 426.826 L83.3531 426.826 L83.3531 420.947 Z" fill="#000000" fill-rule="nonzero" fill-opacity="1" /><path clip-path="url(#clip280)" d="M108.422 410.414 Q105.089 410.414 103.168 412.197 Q101.27 413.979 101.27 417.104 Q101.27 420.229 103.168 422.011 Q105.089 423.794 108.422 423.794 Q111.756 423.794 113.677 422.011 Q115.598 420.206 115.598 417.104 Q115.598 413.979 113.677 412.197 Q111.779 410.414 108.422 410.414 M103.746 408.423 Q100.737 407.683 99.0474 405.623 Q97.3808 403.562 97.3808 400.599 Q97.3808 396.456 100.321 394.049 Q103.284 391.641 108.422 391.641 Q113.584 391.641 116.524 394.049 Q119.464 396.456 119.464 400.599 Q119.464 403.562 117.774 405.623 Q116.108 407.683 113.121 408.423 Q116.501 409.21 118.376 411.502 Q120.274 413.794 120.274 417.104 Q120.274 422.127 117.195 424.812 Q114.14 427.497 108.422 427.497 Q102.705 427.497 99.6261 424.812 Q96.5706 422.127 96.5706 417.104 Q96.5706 413.794 98.4687 411.502 Q100.367 409.21 103.746 408.423 M102.034 401.039 Q102.034 403.724 103.7 405.229 Q105.39 406.734 108.422 406.734 Q111.432 406.734 113.121 405.229 Q114.834 403.724 114.834 401.039 Q114.834 398.354 113.121 396.849 Q111.432 395.345 108.422 395.345 Q105.39 395.345 103.7 396.849 Q102.034 398.354 102.034 401.039 Z" fill="#000000" fill-rule="nonzero" fill-opacity="1" /><path clip-path="url(#clip280)" d="M63.2837 38.045 Q59.6726 38.045 57.8439 41.6098 Q56.0384 45.1514 56.0384 52.281 Q56.0384 59.3875 57.8439 62.9523 Q59.6726 66.4939 63.2837 66.4939 Q66.918 66.4939 68.7235 62.9523 Q70.5522 59.3875 70.5522 52.281 Q70.5522 45.1514 68.7235 41.6098 Q66.918 38.045 63.2837 38.045 M63.2837 34.3413 Q69.0939 34.3413 72.1494 38.9478 Q75.2281 43.5311 75.2281 52.281 Q75.2281 61.0078 72.1494 65.6143 Q69.0939 70.1976 63.2837 70.1976 Q57.4736 70.1976 54.3949 65.6143 Q51.3393 61.0078 51.3393 52.281 Q51.3393 43.5311 54.3949 38.9478 Q57.4736 34.3413 63.2837 34.3413 Z" fill="#000000" fill-rule="nonzero" fill-opacity="1" /><path clip-path="url(#clip280)" d="M83.4457 63.6467 L88.3299 63.6467 L88.3299 69.5263 L83.4457 69.5263 L83.4457 63.6467 Z" fill="#000000" fill-rule="nonzero" fill-opacity="1" /><path clip-path="url(#clip280)" d="M98.6539 68.8087 L98.6539 64.5495 Q100.413 65.3828 102.219 65.8226 Q104.024 66.2624 105.76 66.2624 Q110.39 66.2624 112.82 63.1606 Q115.274 60.0356 115.621 53.693 Q114.279 55.6838 112.219 56.7486 Q110.158 57.8134 107.658 57.8134 Q102.473 57.8134 99.4409 54.6884 Q96.4317 51.5403 96.4317 46.1005 Q96.4317 40.7764 99.5798 37.5589 Q102.728 34.3413 107.959 34.3413 Q113.955 34.3413 117.103 38.9478 Q120.274 43.5311 120.274 52.281 Q120.274 60.4523 116.385 65.3365 Q112.52 70.1976 105.969 70.1976 Q104.209 70.1976 102.404 69.8504 Q100.598 69.5031 98.6539 68.8087 M107.959 54.156 Q111.108 54.156 112.936 52.0032 Q114.788 49.8505 114.788 46.1005 Q114.788 42.3737 112.936 40.2209 Q111.108 38.045 107.959 38.045 Q104.811 38.045 102.959 40.2209 Q101.131 42.3737 101.131 46.1005 Q101.131 49.8505 102.959 52.0032 Q104.811 54.156 107.959 54.156 Z" fill="#000000" fill-rule="nonzero" fill-opacity="1" /><polyline clip-path="url(#clip282)" style="stroke:#009af9; stroke-linecap:round; stroke-linejoin:round; stroke-width:4; stroke-opacity:1; fill:none" points="218.439,1052.69 220.513,909.766 222.587,1052.69 224.661,1159.88 226.736,1052.69 228.81,1016.96 230.884,1195.61 232.958,1052.69 235.033,874.036 237.107,1088.42 239.181,945.496 241.255,1445.72 243.329,1106.28 245.404,874.036 247.478,963.361 249.552,856.171 251.626,838.306 253.701,588.196 255.775,748.981 257.849,695.386 259.923,695.386 261.998,891.901 264.072,534.601 266.146,641.791 268.22,641.791 270.294,445.276 272.369,695.386 274.443,570.331 276.517,498.871 278.591,516.736 280.666,427.411 282.74,552.466 284.814,445.276 286.888,427.411 288.962,463.141 291.037,588.196 293.111,463.141 295.185,445.276 297.259,445.276 299.334,373.816 301.408,320.221 303.482,498.871 305.556,320.221 307.63,355.951 309.705,338.086 311.779,373.816 313.853,338.086 315.927,266.626 318.002,355.951 320.076,266.626 322.15,177.301 324.224,445.276 326.299,338.086 328.373,409.546 330.447,266.626 332.521,391.681 334.595,230.896 336.67,355.951 338.744,159.436 340.818,302.356 342.892,159.436 344.967,355.951 347.041,498.871 349.115,355.951 351.189,338.086 353.263,159.436 355.338,373.816 357.412,355.951 359.486,141.571 361.56,463.141 363.635,463.141 365.709,284.491 367.783,338.086 369.857,409.546 371.932,338.086 374.006,266.626 376.08,463.141 378.154,427.411 380.228,373.816 382.303,338.086 384.377,373.816 386.451,320.221 388.525,373.816 390.6,266.626 392.674,481.006 394.748,391.681 396.822,213.031 398.896,195.166 400.971,266.626 403.045,320.221 405.119,391.681 407.193,230.896 409.268,355.951 411.342,302.356 413.416,284.491 415.49,552.466 417.565,87.9763 419.639,498.871 421.713,141.571 423.787,338.086 425.861,266.626 427.936,445.276 430.01,338.086 432.084,463.141 434.158,445.276 436.233,373.816 438.307,373.816 440.381,266.626 442.455,391.681 444.529,481.006 446.604,320.221 448.678,302.356 450.752,320.221 452.826,284.491 454.901,391.681 456.975,481.006 459.049,409.546 461.123,391.681 463.198,141.571 465.272,320.221 467.346,463.141 469.42,320.221 471.494,373.816 473.569,373.816 475.643,355.951 477.717,177.301 479.791,284.491 481.866,498.871 483.94,320.221 486.014,141.571 488.088,302.356 490.162,481.006 492.237,463.141 494.311,552.466 496.385,284.491 498.459,248.761 500.534,463.141 502.608,516.736 504.682,373.816 506.756,230.896 508.83,552.466 510.905,463.141 512.979,338.086 515.053,320.221 517.127,498.871 519.202,445.276 521.276,284.491 523.35,409.546 525.424,445.276 527.499,213.031 529.573,552.466 531.647,355.951 533.721,248.761 535.795,427.411 537.87,570.331 539.944,498.871 542.018,570.331 544.092,248.761 546.167,588.196 548.241,338.086 550.315,623.926 552.389,570.331 554.463,445.276 556.538,373.816 558.612,391.681 560.686,463.141 562.76,302.356 564.835,320.221 566.909,230.896 568.983,588.196 571.057,570.331 573.132,588.196 575.206,498.871 577.28,516.736 579.354,570.331 581.428,409.546 583.503,445.276 585.577,570.331 587.651,427.411 589.725,623.926 591.8,516.736 593.874,659.656 595.948,677.521 598.022,498.871 600.096,713.251 602.171,498.871 604.245,498.871 606.319,248.761 608.393,713.251 610.468,481.006 612.542,659.656 614.616,409.546 616.69,677.521 618.765,695.386 620.839,695.386 622.913,498.871 624.987,498.871 627.061,677.521 629.136,427.411 631.21,463.141 633.284,623.926 635.358,623.926 637.433,623.926 639.507,659.656 641.581,748.981 643.655,534.601 645.729,588.196 647.804,588.196 649.878,570.331 651.952,463.141 654.026,659.656 656.101,659.656 658.175,713.251 660.249,427.411 662.323,481.006 664.398,570.331 666.472,481.006 668.546,534.601 670.62,588.196 672.694,641.791 674.769,588.196 676.843,409.546 678.917,463.141 680.991,427.411 683.066,373.816 685.14,606.061 687.214,552.466 689.288,498.871 691.362,623.926 693.437,498.871 695.511,284.491 697.585,695.386 699.659,820.441 701.734,820.441 703.808,570.331 705.882,606.061 707.956,623.926 710.03,695.386 712.105,427.411 714.179,373.816 716.253,534.601 718.327,516.736 720.402,588.196 722.476,498.871 724.55,534.601 726.624,481.006 728.699,659.656 730.773,409.546 732.847,409.546 734.921,427.411 736.995,355.951 739.07,481.006 741.144,641.791 743.218,534.601 745.292,391.681 747.367,445.276 749.441,659.656 751.515,588.196 753.589,427.411 755.663,677.521 757.738,534.601 759.812,641.791 761.886,695.386 763.96,498.871 766.035,445.276 768.109,516.736 770.183,802.576 772.257,588.196 774.332,695.386 776.406,534.601 778.48,498.871 780.554,695.386 782.628,498.871 784.703,373.816 786.777,552.466 788.851,641.791 790.925,856.171 793,641.791 795.074,713.251 797.148,766.846 799.222,570.331 801.296,552.466 803.371,588.196 805.445,588.196 807.519,588.196 809.593,623.926 811.668,623.926 813.742,766.846 815.816,588.196 817.89,659.656 819.965,641.791 822.039,606.061 824.113,641.791 826.187,623.926 828.261,498.871 830.336,641.791 832.41,677.521 834.484,588.196 836.558,766.846 838.633,516.736 840.707,695.386 842.781,516.736 844.855,659.656 846.929,623.926 849.004,570.331 851.078,588.196 853.152,516.736 855.226,355.951 857.301,481.006 859.375,534.601 861.449,498.871 863.523,481.006 865.598,570.331 867.672,552.466 869.746,677.521 871.82,445.276 873.894,498.871 875.969,391.681 878.043,784.711 880.117,731.116 882.191,516.736 884.266,677.521 886.34,481.006 888.414,570.331 890.488,445.276 892.562,713.251 894.637,570.331 896.711,623.926 898.785,677.521 900.859,623.926 902.934,570.331 905.008,463.141 907.082,641.791 909.156,570.331 911.23,552.466 913.305,606.061 915.379,445.276 917.453,534.601 919.527,641.791 921.602,695.386 923.676,516.736 925.75,784.711 927.824,623.926 929.899,677.521 931.973,570.331 934.047,427.411 936.121,606.061 938.195,552.466 940.27,606.061 942.344,677.521 944.418,516.736 946.492,409.546 948.567,534.601 950.641,534.601 952.715,302.356 954.789,355.951 956.863,677.521 958.938,623.926 961.012,713.251 963.086,570.331 965.16,284.491 967.235,516.736 969.309,481.006 971.383,516.736 973.457,713.251 975.532,677.521 977.606,570.331 979.68,534.601 981.754,606.061 983.828,606.061 985.903,570.331 987.977,409.546 990.051,570.331 992.125,695.386 994.2,713.251 996.274,498.871 998.348,552.466 1000.42,659.656 1002.5,552.466 1004.57,606.061 1006.64,463.141 1008.72,713.251 1010.79,463.141 1012.87,588.196 1014.94,677.521 1017.02,516.736 1019.09,498.871 1021.16,552.466 1023.24,659.656 1025.31,409.546 1027.39,623.926 1029.46,570.331 1031.54,498.871 1033.61,498.871 1035.68,427.411 1037.76,481.006 1039.83,659.656 1041.91,516.736 1043.98,623.926 1046.06,677.521 1048.13,463.141 1050.2,606.061 1052.28,498.871 1054.35,355.951 1056.43,677.521 1058.5,641.791 1060.57,498.871 1062.65,641.791 1064.72,713.251 1066.8,552.466 1068.87,373.816 1070.95,641.791 1073.02,355.951 1075.09,498.871 1077.17,427.411 1079.24,677.521 1081.32,481.006 1083.39,552.466 1085.47,248.761 1087.54,552.466 1089.61,588.196 1091.69,552.466 1093.76,284.491 1095.84,713.251 1097.91,427.411 1099.99,623.926 1102.06,713.251 1104.13,552.466 1106.21,623.926 1108.28,516.736 1110.36,463.141 1112.43,481.006 1114.5,641.791 1116.58,695.386 1118.65,516.736 1120.73,498.871 1122.8,570.331 1124.88,641.791 1126.95,570.331 1129.02,516.736 1131.1,498.871 1133.17,641.791 1135.25,427.411 1137.32,516.736 1139.4,713.251 1141.47,588.196 1143.54,588.196 1145.62,498.871 1147.69,695.386 1149.77,409.546 1151.84,481.006 1153.92,445.276 1155.99,695.386 1158.06,463.141 1160.14,713.251 1162.21,481.006 1164.29,677.521 1166.36,373.816 1168.43,427.411 1170.51,606.061 1172.58,784.711 1174.66,659.656 1176.73,355.951 1178.81,748.981 1180.88,481.006 1182.95,641.791 1185.03,588.196 1187.1,338.086 1189.18,498.871 1191.25,659.656 1193.33,427.411 1195.4,748.981 1197.47,409.546 1199.55,713.251 1201.62,481.006 1203.7,552.466 1205.77,856.171 1207.84,570.331 1209.92,641.791 1211.99,481.006 1214.07,623.926 1216.14,516.736 1218.22,552.466 1220.29,498.871 1222.36,516.736 1224.44,731.116 1226.51,463.141 1228.59,731.116 1230.66,498.871 1232.74,641.791 1234.81,802.576 1236.88,498.871 1238.96,481.006 1241.03,570.331 1243.11,445.276 1245.18,534.601 1247.26,498.871 1249.33,784.711 1251.4,570.331 1253.48,445.276 1255.55,570.331 1257.63,534.601 1259.7,695.386 1261.77,606.061 1263.85,570.331 1265.92,516.736 1268,498.871 1270.07,481.006 1272.15,606.061 1274.22,552.466 1276.29,445.276 1278.37,623.926 1280.44,623.926 1282.52,588.196 1284.59,302.356 1286.67,552.466 1288.74,391.681 1290.81,570.331 1292.89,606.061 1294.96,445.276 1297.04,463.141 1299.11,641.791 1301.19,641.791 1303.26,463.141 1305.33,463.141 1307.41,552.466 1309.48,516.736 1311.56,588.196 1313.63,606.061 1315.7,570.331 1317.78,516.736 1319.85,373.816 1321.93,606.061 1324,552.466 1326.08,552.466 1328.15,534.601 1330.22,445.276 1332.3,409.546 1334.37,338.086 1336.45,623.926 1338.52,427.411 1340.6,445.276 1342.67,481.006 1344.74,391.681 1346.82,534.601 1348.89,498.871 1350.97,570.331 1353.04,445.276 1355.12,641.791 1357.19,427.411 1359.26,588.196 1361.34,355.951 1363.41,552.466 1365.49,606.061 1367.56,498.871 1369.63,338.086 1371.71,552.466 1373.78,606.061 1375.86,570.331 1377.93,391.681 1380.01,516.736 1382.08,463.141 1384.15,695.386 1386.23,463.141 1388.3,784.711 1390.38,784.711 1392.45,373.816 1394.53,463.141 1396.6,641.791 1398.67,427.411 1400.75,516.736 1402.82,391.681 1404.9,570.331 1406.97,552.466 1409.04,641.791 1411.12,534.601 1413.19,606.061 1415.27,481.006 1417.34,534.601 1419.42,302.356 1421.49,463.141 1423.56,606.061 1425.64,498.871 1427.71,606.061 1429.79,641.791 1431.86,731.116 1433.94,588.196 1436.01,731.116 1438.08,534.601 1440.16,695.386 1442.23,695.386 1444.31,713.251 1446.38,606.061 1448.46,713.251 1450.53,623.926 1452.6,570.331 1454.68,445.276 1456.75,641.791 1458.83,588.196 1460.9,498.871 1462.97,641.791 1465.05,659.656 1467.12,695.386 1469.2,463.141 1471.27,409.546 1473.35,677.521 1475.42,570.331 1477.49,463.141 1479.57,641.791 1481.64,570.331 1483.72,373.816 1485.79,552.466 1487.87,516.736 1489.94,731.116 1492.01,552.466 1494.09,391.681 1496.16,481.006 1498.24,409.546 1500.31,552.466 1502.39,588.196 1504.46,498.871 1506.53,552.466 1508.61,355.951 1510.68,766.846 1512.76,427.411 1514.83,481.006 1516.9,445.276 1518.98,445.276 1521.05,570.331 1523.13,481.006 1525.2,481.006 1527.28,427.411 1529.35,445.276 1531.42,320.221 1533.5,427.411 1535.57,766.846 1537.65,445.276 1539.72,409.546 1541.8,552.466 1543.87,445.276 1545.94,338.086 1548.02,552.466 1550.09,463.141 1552.17,338.086 1554.24,427.411 1556.32,784.711 1558.39,516.736 1560.46,641.791 1562.54,373.816 1564.61,641.791 1566.69,409.546 1568.76,498.871 1570.83,659.656 1572.91,641.791 1574.98,588.196 1577.06,731.116 1579.13,427.411 1581.21,463.141 1583.28,463.141 1585.35,445.276 1587.43,641.791 1589.5,498.871 1591.58,516.736 1593.65,748.981 1595.73,373.816 1597.8,588.196 1599.87,623.926 1601.95,641.791 1604.02,623.926 1606.1,588.196 1608.17,409.546 1610.24,498.871 1612.32,641.791 1614.39,391.681 1616.47,498.871 1618.54,641.791 1620.62,623.926 1622.69,498.871 1624.76,641.791 1626.84,748.981 1628.91,641.791 1630.99,606.061 1633.06,498.871 1635.14,695.386 1637.21,606.061 1639.28,606.061 1641.36,588.196 1643.43,748.981 1645.51,498.871 1647.58,766.846 1649.66,748.981 1651.73,606.061 1653.8,623.926 1655.88,570.331 1657.95,677.521 1660.03,677.521 1662.1,623.926 1664.17,516.736 1666.25,588.196 1668.32,731.116 1670.4,552.466 1672.47,570.331 1674.55,463.141 1676.62,677.521 1678.69,427.411 1680.77,748.981 1682.84,748.981 1684.92,534.601 1686.99,427.411 1689.07,588.196 1691.14,731.116 1693.21,391.681 1695.29,481.006 1697.36,570.331 1699.44,570.331 1701.51,623.926 1703.59,552.466 1705.66,623.926 1707.73,641.791 1709.81,409.546 1711.88,570.331 1713.96,463.141 1716.03,588.196 1718.1,373.816 1720.18,498.871 1722.25,623.926 1724.33,713.251 1726.4,695.386 1728.48,695.386 1730.55,570.331 1732.62,695.386 1734.7,570.331 1736.77,677.521 1738.85,481.006 1740.92,820.441 1743,659.656 1745.07,659.656 1747.14,766.846 1749.22,588.196 1751.29,588.196 1753.37,463.141 1755.44,606.061 1757.52,391.681 1759.59,409.546 1761.66,355.951 1763.74,534.601 1765.81,570.331 1767.89,766.846 1769.96,534.601 1772.03,498.871 1774.11,713.251 1776.18,570.331 1778.26,498.871 1780.33,713.251 1782.41,463.141 1784.48,552.466 1786.55,748.981 1788.63,498.871 1790.7,677.521 1792.78,731.116 1794.85,552.466 1796.93,588.196 1799,677.521 1801.07,534.601 1803.15,534.601 1805.22,481.006 1807.3,338.086 1809.37,498.871 1811.44,588.196 1813.52,516.736 1815.59,570.331 1817.67,641.791 1819.74,570.331 1821.82,606.061 1823.89,481.006 1825.96,606.061 1828.04,230.896 1830.11,534.601 1832.19,570.331 1834.26,570.331 1836.34,623.926 1838.41,534.601 1840.48,481.006 1842.56,570.331 1844.63,534.601 1846.71,659.656 1848.78,606.061 1850.86,606.061 1852.93,695.386 1855,534.601 1857.08,623.926 1859.15,766.846 1861.23,623.926 1863.3,588.196 1865.37,570.331 1867.45,498.871 1869.52,534.601 1871.6,641.791 1873.67,552.466 1875.75,623.926 1877.82,606.061 1879.89,748.981 1881.97,623.926 1884.04,463.141 1886.12,552.466 1888.19,677.521 1890.27,766.846 1892.34,623.926 1894.41,766.846 1896.49,623.926 1898.56,606.061 1900.64,766.846 1902.71,534.601 1904.79,588.196 1906.86,588.196 1908.93,713.251 1911.01,802.576 1913.08,498.871 1915.16,695.386 1917.23,713.251 1919.3,641.791 1921.38,874.036 1923.45,481.006 1925.53,695.386 1927.6,623.926 1929.68,659.656 1931.75,623.926 1933.82,784.711 1935.9,606.061 1937.97,677.521 1940.05,856.171 1942.12,516.736 1944.2,516.736 1946.27,641.791 1948.34,731.116 1950.42,445.276 1952.49,588.196 1954.57,677.521 1956.64,623.926 1958.72,784.711 1960.79,731.116 1962.86,409.546 1964.94,623.926 1967.01,552.466 1969.09,713.251 1971.16,463.141 1973.23,713.251 1975.31,731.116 1977.38,731.116 1979.46,748.981 1981.53,659.656 1983.61,481.006 1985.68,534.601 1987.75,748.981 1989.83,659.656 1991.9,695.386 1993.98,748.981 1996.05,784.711 1998.13,766.846 2000.2,820.441 2002.27,695.386 2004.35,623.926 2006.42,552.466 2008.5,695.386 2010.57,748.981 2012.64,748.981 2014.72,731.116 2016.79,606.061 2018.87,713.251 2020.94,677.521 2023.02,516.736 2025.09,713.251 2027.16,659.656 2029.24,641.791 2031.31,588.196 2033.39,838.306 2035.46,641.791 2037.54,713.251 2039.61,606.061 2041.68,570.331 2043.76,1088.42 2045.83,731.116 2047.91,606.061 2049.98,695.386 2052.06,641.791 2054.13,945.496 2056.2,641.791 2058.28,659.656 2060.35,820.441 2062.43,552.466 2064.5,623.926 2066.57,731.116 2068.65,623.926 2070.72,766.846 2072.8,677.521 2074.87,623.926 2076.95,695.386 2079.02,570.331 2081.09,498.871 2083.17,588.196 2085.24,463.141 2087.32,891.901 2089.39,641.791 2091.47,713.251 2093.54,713.251 2095.61,713.251 2097.69,766.846 2099.76,498.871 2101.84,766.846 2103.91,623.926 2105.99,606.061 2108.06,766.846 2110.13,874.036 2112.21,677.521 2114.28,695.386 2116.36,463.141 2118.43,534.601 2120.5,659.656 2122.58,606.061 2124.65,766.846 2126.73,695.386 2128.8,606.061 2130.88,552.466 2132.95,731.116 2135.02,641.791 2137.1,659.656 2139.17,748.981 2141.25,516.736 2143.32,927.631 2145.4,606.061 2147.47,748.981 2149.54,516.736 2151.62,945.496 2153.69,659.656 2155.77,552.466 2157.84,731.116 2159.92,748.981 2161.99,766.846 2164.06,623.926 2166.14,498.871 2168.21,516.736 2170.29,820.441 2172.36,748.981 2174.43,820.441 2176.51,766.846 2178.58,588.196 2180.66,891.901 2182.73,748.981 2184.81,856.171 2186.88,534.601 2188.95,588.196 2191.03,623.926 2193.1,641.791 2195.18,802.576 2197.25,427.411 2199.33,731.116 2201.4,802.576 2203.47,713.251 2205.55,641.791 2207.62,516.736 2209.7,641.791 2211.77,552.466 2213.84,802.576 2215.92,695.386 2217.99,588.196 2220.07,659.656 2222.14,588.196 2224.22,641.791 2226.29,909.766 2228.36,713.251 2230.44,891.901 2232.51,623.926 2234.59,606.061 2236.66,677.521 2238.74,427.411 2240.81,516.736 2242.88,463.141 2244.96,606.061 2247.03,695.386 2249.11,695.386 2251.18,606.061 2253.26,731.116 2255.33,695.386 2257.4,891.901 2259.48,748.981 2261.55,677.521 2263.63,641.791 2265.7,623.926 2267.77,552.466 2269.85,891.901 2271.92,606.061 2274,641.791 2276.07,534.601 2278.15,748.981 2280.22,677.521 2282.29,838.306 2284.37,695.386 2286.44,820.441 2288.52,516.736 2290.59,713.251 "/>
<path clip-path="url(#clip280)" d="M2007.46 1438.47 L2279.54 1438.47 L2279.54 1334.79 L2007.46 1334.79  Z" fill="#ffffff" fill-rule="evenodd" fill-opacity="1"/>
<polyline clip-path="url(#clip280)" style="stroke:#000000; stroke-linecap:round; stroke-linejoin:round; stroke-width:4; stroke-opacity:1; fill:none" points="2007.46,1438.47 2279.54,1438.47 2279.54,1334.79 2007.46,1334.79 2007.46,1438.47 "/>
<polyline clip-path="url(#clip280)" style="stroke:#009af9; stroke-linecap:round; stroke-linejoin:round; stroke-width:4; stroke-opacity:1; fill:none" points="2031.87,1386.63 2178.3,1386.63 "/>
<path clip-path="url(#clip280)" d="M2216.55 1406.32 Q2214.74 1410.95 2213.03 1412.36 Q2211.32 1413.78 2208.44 1413.78 L2205.04 1413.78 L2205.04 1410.21 L2207.54 1410.21 Q2209.3 1410.21 2210.27 1409.38 Q2211.25 1408.54 2212.43 1405.44 L2213.19 1403.5 L2202.7 1377.99 L2207.22 1377.99 L2215.32 1398.27 L2223.42 1377.99 L2227.94 1377.99 L2216.55 1406.32 Z" fill="#000000" fill-rule="nonzero" fill-opacity="1" /><path clip-path="url(#clip280)" d="M2235.23 1399.98 L2242.87 1399.98 L2242.87 1373.61 L2234.56 1375.28 L2234.56 1371.02 L2242.82 1369.35 L2247.5 1369.35 L2247.5 1399.98 L2255.13 1399.98 L2255.13 1403.91 L2235.23 1403.91 L2235.23 1399.98 Z" fill="#000000" fill-rule="nonzero" fill-opacity="1" /></svg>
