<?xml version="1.0" encoding="utf-8"?>
<svg xmlns="http://www.w3.org/2000/svg" xmlns:xlink="http://www.w3.org/1999/xlink" width="600" height="400" viewBox="0 0 2400 1600">
<defs>
  <clipPath id="clip550">
    <rect x="0" y="0" width="2400" height="1600"/>
  </clipPath>
</defs>
<path clip-path="url(#clip550)" d="M0 1600 L2400 1600 L2400 0 L0 0  Z" fill="#ffffff" fill-rule="evenodd" fill-opacity="1"/>
<defs>
  <clipPath id="clip551">
    <rect x="480" y="0" width="1681" height="1600"/>
  </clipPath>
</defs>
<path clip-path="url(#clip550)" d="M156.274 1486.45 L2352.76 1486.45 L2352.76 47.2441 L156.274 47.2441  Z" fill="#ffffff" fill-rule="evenodd" fill-opacity="1"/>
<defs>
  <clipPath id="clip552">
    <rect x="156" y="47" width="2197" height="1440"/>
  </clipPath>
</defs>
<polyline clip-path="url(#clip552)" style="stroke:#000000; stroke-linecap:round; stroke-linejoin:round; stroke-width:2; stroke-opacity:0.1; fill:none" points="218.439,1486.45 218.439,47.2441 "/>
<polyline clip-path="url(#clip552)" style="stroke:#000000; stroke-linecap:round; stroke-linejoin:round; stroke-width:2; stroke-opacity:0.1; fill:none" points="737.775,1486.45 737.775,47.2441 "/>
<polyline clip-path="url(#clip552)" style="stroke:#000000; stroke-linecap:round; stroke-linejoin:round; stroke-width:2; stroke-opacity:0.1; fill:none" points="1257.11,1486.45 1257.11,47.2441 "/>
<polyline clip-path="url(#clip552)" style="stroke:#000000; stroke-linecap:round; stroke-linejoin:round; stroke-width:2; stroke-opacity:0.1; fill:none" points="1776.45,1486.45 1776.45,47.2441 "/>
<polyline clip-path="url(#clip552)" style="stroke:#000000; stroke-linecap:round; stroke-linejoin:round; stroke-width:2; stroke-opacity:0.1; fill:none" points="2295.78,1486.45 2295.78,47.2441 "/>
<polyline clip-path="url(#clip550)" style="stroke:#000000; stroke-linecap:round; stroke-linejoin:round; stroke-width:4; stroke-opacity:1; fill:none" points="156.274,1486.45 2352.76,1486.45 "/>
<polyline clip-path="url(#clip550)" style="stroke:#000000; stroke-linecap:round; stroke-linejoin:round; stroke-width:4; stroke-opacity:1; fill:none" points="218.439,1486.45 218.439,1467.55 "/>
<polyline clip-path="url(#clip550)" style="stroke:#000000; stroke-linecap:round; stroke-linejoin:round; stroke-width:4; stroke-opacity:1; fill:none" points="737.775,1486.45 737.775,1467.55 "/>
<polyline clip-path="url(#clip550)" style="stroke:#000000; stroke-linecap:round; stroke-linejoin:round; stroke-width:4; stroke-opacity:1; fill:none" points="1257.11,1486.45 1257.11,1467.55 "/>
<polyline clip-path="url(#clip550)" style="stroke:#000000; stroke-linecap:round; stroke-linejoin:round; stroke-width:4; stroke-opacity:1; fill:none" points="1776.45,1486.45 1776.45,1467.55 "/>
<polyline clip-path="url(#clip550)" style="stroke:#000000; stroke-linecap:round; stroke-linejoin:round; stroke-width:4; stroke-opacity:1; fill:none" points="2295.78,1486.45 2295.78,1467.55 "/>
<path clip-path="url(#clip550)" d="M218.439 1517.37 Q214.828 1517.37 212.999 1520.93 Q211.193 1524.47 211.193 1531.6 Q211.193 1538.71 212.999 1542.27 Q214.828 1545.82 218.439 1545.82 Q222.073 1545.82 223.879 1542.27 Q225.707 1538.71 225.707 1531.6 Q225.707 1524.47 223.879 1520.93 Q222.073 1517.37 218.439 1517.37 M218.439 1513.66 Q224.249 1513.66 227.304 1518.27 Q230.383 1522.85 230.383 1531.6 Q230.383 1540.33 227.304 1544.94 Q224.249 1549.52 218.439 1549.52 Q212.629 1549.52 209.55 1544.94 Q206.494 1540.33 206.494 1531.6 Q206.494 1522.85 209.55 1518.27 Q212.629 1513.66 218.439 1513.66 Z" fill="#000000" fill-rule="nonzero" fill-opacity="1" /><path clip-path="url(#clip550)" d="M697.382 1544.91 L705.021 1544.91 L705.021 1518.55 L696.711 1520.21 L696.711 1515.95 L704.974 1514.29 L709.65 1514.29 L709.65 1544.91 L717.289 1544.91 L717.289 1548.85 L697.382 1548.85 L697.382 1544.91 Z" fill="#000000" fill-rule="nonzero" fill-opacity="1" /><path clip-path="url(#clip550)" d="M736.734 1517.37 Q733.122 1517.37 731.294 1520.93 Q729.488 1524.47 729.488 1531.6 Q729.488 1538.71 731.294 1542.27 Q733.122 1545.82 736.734 1545.82 Q740.368 1545.82 742.173 1542.27 Q744.002 1538.71 744.002 1531.6 Q744.002 1524.47 742.173 1520.93 Q740.368 1517.37 736.734 1517.37 M736.734 1513.66 Q742.544 1513.66 745.599 1518.27 Q748.678 1522.85 748.678 1531.6 Q748.678 1540.33 745.599 1544.94 Q742.544 1549.52 736.734 1549.52 Q730.923 1549.52 727.845 1544.94 Q724.789 1540.33 724.789 1531.6 Q724.789 1522.85 727.845 1518.27 Q730.923 1513.66 736.734 1513.66 Z" fill="#000000" fill-rule="nonzero" fill-opacity="1" /><path clip-path="url(#clip550)" d="M766.895 1517.37 Q763.284 1517.37 761.456 1520.93 Q759.65 1524.47 759.65 1531.6 Q759.65 1538.71 761.456 1542.27 Q763.284 1545.82 766.895 1545.82 Q770.53 1545.82 772.335 1542.27 Q774.164 1538.71 774.164 1531.6 Q774.164 1524.47 772.335 1520.93 Q770.53 1517.37 766.895 1517.37 M766.895 1513.66 Q772.706 1513.66 775.761 1518.27 Q778.84 1522.85 778.84 1531.6 Q778.84 1540.33 775.761 1544.94 Q772.706 1549.52 766.895 1549.52 Q761.085 1549.52 758.007 1544.94 Q754.951 1540.33 754.951 1531.6 Q754.951 1522.85 758.007 1518.27 Q761.085 1513.66 766.895 1513.66 Z" fill="#000000" fill-rule="nonzero" fill-opacity="1" /><path clip-path="url(#clip550)" d="M1220.8 1544.91 L1237.12 1544.91 L1237.12 1548.85 L1215.18 1548.85 L1215.18 1544.91 Q1217.84 1542.16 1222.42 1537.53 Q1227.03 1532.88 1228.21 1531.53 Q1230.46 1529.01 1231.34 1527.27 Q1232.24 1525.51 1232.24 1523.82 Q1232.24 1521.07 1230.29 1519.33 Q1228.37 1517.6 1225.27 1517.6 Q1223.07 1517.6 1220.62 1518.36 Q1218.19 1519.13 1215.41 1520.68 L1215.41 1515.95 Q1218.23 1514.82 1220.69 1514.24 Q1223.14 1513.66 1225.18 1513.66 Q1230.55 1513.66 1233.74 1516.35 Q1236.94 1519.03 1236.94 1523.52 Q1236.94 1525.65 1236.13 1527.57 Q1235.34 1529.47 1233.23 1532.07 Q1232.66 1532.74 1229.55 1535.95 Q1226.45 1539.15 1220.8 1544.91 Z" fill="#000000" fill-rule="nonzero" fill-opacity="1" /><path clip-path="url(#clip550)" d="M1256.94 1517.37 Q1253.33 1517.37 1251.5 1520.93 Q1249.69 1524.47 1249.69 1531.6 Q1249.69 1538.71 1251.5 1542.27 Q1253.33 1545.82 1256.94 1545.82 Q1260.57 1545.82 1262.38 1542.27 Q1264.21 1538.71 1264.21 1531.6 Q1264.21 1524.47 1262.38 1520.93 Q1260.57 1517.37 1256.94 1517.37 M1256.94 1513.66 Q1262.75 1513.66 1265.8 1518.27 Q1268.88 1522.85 1268.88 1531.6 Q1268.88 1540.33 1265.8 1544.94 Q1262.75 1549.52 1256.94 1549.52 Q1251.13 1549.52 1248.05 1544.94 Q1244.99 1540.33 1244.99 1531.6 Q1244.99 1522.85 1248.05 1518.27 Q1251.13 1513.66 1256.94 1513.66 Z" fill="#000000" fill-rule="nonzero" fill-opacity="1" /><path clip-path="url(#clip550)" d="M1287.1 1517.37 Q1283.49 1517.37 1281.66 1520.93 Q1279.85 1524.47 1279.85 1531.6 Q1279.85 1538.71 1281.66 1542.27 Q1283.49 1545.82 1287.1 1545.82 Q1290.73 1545.82 1292.54 1542.27 Q1294.37 1538.71 1294.37 1531.6 Q1294.37 1524.47 1292.54 1520.93 Q1290.73 1517.37 1287.1 1517.37 M1287.1 1513.66 Q1292.91 1513.66 1295.97 1518.27 Q1299.04 1522.85 1299.04 1531.6 Q1299.04 1540.33 1295.97 1544.94 Q1292.91 1549.52 1287.1 1549.52 Q1281.29 1549.52 1278.21 1544.94 Q1275.16 1540.33 1275.16 1531.6 Q1275.16 1522.85 1278.21 1518.27 Q1281.29 1513.66 1287.1 1513.66 Z" fill="#000000" fill-rule="nonzero" fill-opacity="1" /><path clip-path="url(#clip550)" d="M1750.21 1530.21 Q1753.57 1530.93 1755.44 1533.2 Q1757.34 1535.47 1757.34 1538.8 Q1757.34 1543.92 1753.82 1546.72 Q1750.3 1549.52 1743.82 1549.52 Q1741.65 1549.52 1739.33 1549.08 Q1737.04 1548.66 1734.59 1547.81 L1734.59 1543.29 Q1736.53 1544.43 1738.84 1545.01 Q1741.16 1545.58 1743.68 1545.58 Q1748.08 1545.58 1750.37 1543.85 Q1752.69 1542.11 1752.69 1538.8 Q1752.69 1535.75 1750.53 1534.03 Q1748.4 1532.3 1744.58 1532.3 L1740.56 1532.3 L1740.56 1528.45 L1744.77 1528.45 Q1748.22 1528.45 1750.05 1527.09 Q1751.88 1525.7 1751.88 1523.11 Q1751.88 1520.45 1749.98 1519.03 Q1748.1 1517.6 1744.58 1517.6 Q1742.66 1517.6 1740.46 1518.01 Q1738.27 1518.43 1735.63 1519.31 L1735.63 1515.14 Q1738.29 1514.4 1740.6 1514.03 Q1742.94 1513.66 1745 1513.66 Q1750.33 1513.66 1753.43 1516.09 Q1756.53 1518.5 1756.53 1522.62 Q1756.53 1525.49 1754.89 1527.48 Q1753.24 1529.45 1750.21 1530.21 Z" fill="#000000" fill-rule="nonzero" fill-opacity="1" /><path clip-path="url(#clip550)" d="M1776.21 1517.37 Q1772.59 1517.37 1770.77 1520.93 Q1768.96 1524.47 1768.96 1531.6 Q1768.96 1538.71 1770.77 1542.27 Q1772.59 1545.82 1776.21 1545.82 Q1779.84 1545.82 1781.64 1542.27 Q1783.47 1538.71 1783.47 1531.6 Q1783.47 1524.47 1781.64 1520.93 Q1779.84 1517.37 1776.21 1517.37 M1776.21 1513.66 Q1782.02 1513.66 1785.07 1518.27 Q1788.15 1522.85 1788.15 1531.6 Q1788.15 1540.33 1785.07 1544.94 Q1782.02 1549.52 1776.21 1549.52 Q1770.39 1549.52 1767.32 1544.94 Q1764.26 1540.33 1764.26 1531.6 Q1764.26 1522.85 1767.32 1518.27 Q1770.39 1513.66 1776.21 1513.66 Z" fill="#000000" fill-rule="nonzero" fill-opacity="1" /><path clip-path="url(#clip550)" d="M1806.37 1517.37 Q1802.76 1517.37 1800.93 1520.93 Q1799.12 1524.47 1799.12 1531.6 Q1799.12 1538.71 1800.93 1542.27 Q1802.76 1545.82 1806.37 1545.82 Q1810 1545.82 1811.81 1542.27 Q1813.64 1538.71 1813.64 1531.6 Q1813.64 1524.47 1811.81 1520.93 Q1810 1517.37 1806.37 1517.37 M1806.37 1513.66 Q1812.18 1513.66 1815.23 1518.27 Q1818.31 1522.85 1818.31 1531.6 Q1818.31 1540.33 1815.23 1544.94 Q1812.18 1549.52 1806.37 1549.52 Q1800.56 1549.52 1797.48 1544.94 Q1794.42 1540.33 1794.42 1531.6 Q1794.42 1522.85 1797.48 1518.27 Q1800.56 1513.66 1806.37 1513.66 Z" fill="#000000" fill-rule="nonzero" fill-opacity="1" /><path clip-path="url(#clip550)" d="M2268.88 1518.36 L2257.07 1536.81 L2268.88 1536.81 L2268.88 1518.36 M2267.65 1514.29 L2273.53 1514.29 L2273.53 1536.81 L2278.46 1536.81 L2278.46 1540.7 L2273.53 1540.7 L2273.53 1548.85 L2268.88 1548.85 L2268.88 1540.7 L2253.27 1540.7 L2253.27 1536.19 L2267.65 1514.29 Z" fill="#000000" fill-rule="nonzero" fill-opacity="1" /><path clip-path="url(#clip550)" d="M2296.19 1517.37 Q2292.58 1517.37 2290.75 1520.93 Q2288.94 1524.47 2288.94 1531.6 Q2288.94 1538.71 2290.75 1542.27 Q2292.58 1545.82 2296.19 1545.82 Q2299.82 1545.82 2301.63 1542.27 Q2303.46 1538.71 2303.46 1531.6 Q2303.46 1524.47 2301.63 1520.93 Q2299.82 1517.37 2296.19 1517.37 M2296.19 1513.66 Q2302 1513.66 2305.06 1518.27 Q2308.13 1522.85 2308.13 1531.6 Q2308.13 1540.33 2305.06 1544.94 Q2302 1549.52 2296.19 1549.52 Q2290.38 1549.52 2287.3 1544.94 Q2284.25 1540.33 2284.25 1531.6 Q2284.25 1522.85 2287.3 1518.27 Q2290.38 1513.66 2296.19 1513.66 Z" fill="#000000" fill-rule="nonzero" fill-opacity="1" /><path clip-path="url(#clip550)" d="M2326.35 1517.37 Q2322.74 1517.37 2320.91 1520.93 Q2319.11 1524.47 2319.11 1531.6 Q2319.11 1538.71 2320.91 1542.27 Q2322.74 1545.82 2326.35 1545.82 Q2329.99 1545.82 2331.79 1542.27 Q2333.62 1538.71 2333.62 1531.6 Q2333.62 1524.47 2331.79 1520.93 Q2329.99 1517.37 2326.35 1517.37 M2326.35 1513.66 Q2332.16 1513.66 2335.22 1518.27 Q2338.3 1522.85 2338.3 1531.6 Q2338.3 1540.33 2335.22 1544.94 Q2332.16 1549.52 2326.35 1549.52 Q2320.54 1549.52 2317.46 1544.94 Q2314.41 1540.33 2314.41 1531.6 Q2314.41 1522.85 2317.46 1518.27 Q2320.54 1513.66 2326.35 1513.66 Z" fill="#000000" fill-rule="nonzero" fill-opacity="1" /><polyline clip-path="url(#clip552)" style="stroke:#000000; stroke-linecap:round; stroke-linejoin:round; stroke-width:2; stroke-opacity:0.1; fill:none" points="156.274,1258.44 2352.76,1258.44 "/>
<polyline clip-path="url(#clip552)" style="stroke:#000000; stroke-linecap:round; stroke-linejoin:round; stroke-width:2; stroke-opacity:0.1; fill:none" points="156.274,1024.35 2352.76,1024.35 "/>
<polyline clip-path="url(#clip552)" style="stroke:#000000; stroke-linecap:round; stroke-linejoin:round; stroke-width:2; stroke-opacity:0.1; fill:none" points="156.274,790.255 2352.76,790.255 "/>
<polyline clip-path="url(#clip552)" style="stroke:#000000; stroke-linecap:round; stroke-linejoin:round; stroke-width:2; stroke-opacity:0.1; fill:none" points="156.274,556.162 2352.76,556.162 "/>
<polyline clip-path="url(#clip552)" style="stroke:#000000; stroke-linecap:round; stroke-linejoin:round; stroke-width:2; stroke-opacity:0.1; fill:none" points="156.274,322.069 2352.76,322.069 "/>
<polyline clip-path="url(#clip552)" style="stroke:#000000; stroke-linecap:round; stroke-linejoin:round; stroke-width:2; stroke-opacity:0.1; fill:none" points="156.274,87.9763 2352.76,87.9763 "/>
<polyline clip-path="url(#clip550)" style="stroke:#000000; stroke-linecap:round; stroke-linejoin:round; stroke-width:4; stroke-opacity:1; fill:none" points="156.274,1486.45 156.274,47.2441 "/>
<polyline clip-path="url(#clip550)" style="stroke:#000000; stroke-linecap:round; stroke-linejoin:round; stroke-width:4; stroke-opacity:1; fill:none" points="156.274,1258.44 175.172,1258.44 "/>
<polyline clip-path="url(#clip550)" style="stroke:#000000; stroke-linecap:round; stroke-linejoin:round; stroke-width:4; stroke-opacity:1; fill:none" points="156.274,1024.35 175.172,1024.35 "/>
<polyline clip-path="url(#clip550)" style="stroke:#000000; stroke-linecap:round; stroke-linejoin:round; stroke-width:4; stroke-opacity:1; fill:none" points="156.274,790.255 175.172,790.255 "/>
<polyline clip-path="url(#clip550)" style="stroke:#000000; stroke-linecap:round; stroke-linejoin:round; stroke-width:4; stroke-opacity:1; fill:none" points="156.274,556.162 175.172,556.162 "/>
<polyline clip-path="url(#clip550)" style="stroke:#000000; stroke-linecap:round; stroke-linejoin:round; stroke-width:4; stroke-opacity:1; fill:none" points="156.274,322.069 175.172,322.069 "/>
<polyline clip-path="url(#clip550)" style="stroke:#000000; stroke-linecap:round; stroke-linejoin:round; stroke-width:4; stroke-opacity:1; fill:none" points="156.274,87.9763 175.172,87.9763 "/>
<path clip-path="url(#clip550)" d="M64.0939 1244.24 Q60.4828 1244.24 58.6541 1247.8 Q56.8486 1251.35 56.8486 1258.48 Q56.8486 1265.58 58.6541 1269.15 Q60.4828 1272.69 64.0939 1272.69 Q67.7281 1272.69 69.5337 1269.15 Q71.3624 1265.58 71.3624 1258.48 Q71.3624 1251.35 69.5337 1247.8 Q67.7281 1244.24 64.0939 1244.24 M64.0939 1240.54 Q69.9041 1240.54 72.9596 1245.14 Q76.0383 1249.73 76.0383 1258.48 Q76.0383 1267.2 72.9596 1271.81 Q69.9041 1276.39 64.0939 1276.39 Q58.2838 1276.39 55.2051 1271.81 Q52.1495 1267.2 52.1495 1258.48 Q52.1495 1249.73 55.2051 1245.14 Q58.2838 1240.54 64.0939 1240.54 Z" fill="#000000" fill-rule="nonzero" fill-opacity="1" /><path clip-path="url(#clip550)" d="M84.2558 1269.84 L89.1401 1269.84 L89.1401 1275.72 L84.2558 1275.72 L84.2558 1269.84 Z" fill="#000000" fill-rule="nonzero" fill-opacity="1" /><path clip-path="url(#clip550)" d="M99.3715 1241.16 L117.728 1241.16 L117.728 1245.1 L103.654 1245.1 L103.654 1253.57 Q104.672 1253.22 105.691 1253.06 Q106.709 1252.87 107.728 1252.87 Q113.515 1252.87 116.895 1256.05 Q120.274 1259.22 120.274 1264.63 Q120.274 1270.21 116.802 1273.31 Q113.33 1276.39 107.01 1276.39 Q104.834 1276.39 102.566 1276.02 Q100.321 1275.65 97.9132 1274.91 L97.9132 1270.21 Q99.9965 1271.35 102.219 1271.9 Q104.441 1272.46 106.918 1272.46 Q110.922 1272.46 113.26 1270.35 Q115.598 1268.24 115.598 1264.63 Q115.598 1261.02 113.26 1258.92 Q110.922 1256.81 106.918 1256.81 Q105.043 1256.81 103.168 1257.23 Q101.316 1257.64 99.3715 1258.52 L99.3715 1241.16 Z" fill="#000000" fill-rule="nonzero" fill-opacity="1" /><path clip-path="url(#clip550)" d="M62.9365 1010.15 Q59.3254 1010.15 57.4967 1013.71 Q55.6912 1017.25 55.6912 1024.38 Q55.6912 1031.49 57.4967 1035.05 Q59.3254 1038.6 62.9365 1038.6 Q66.5707 1038.6 68.3763 1035.05 Q70.205 1031.49 70.205 1024.38 Q70.205 1017.25 68.3763 1013.71 Q66.5707 1010.15 62.9365 1010.15 M62.9365 1006.44 Q68.7467 1006.44 71.8022 1011.05 Q74.8809 1015.63 74.8809 1024.38 Q74.8809 1033.11 71.8022 1037.72 Q68.7467 1042.3 62.9365 1042.3 Q57.1264 1042.3 54.0477 1037.72 Q50.9921 1033.11 50.9921 1024.38 Q50.9921 1015.63 54.0477 1011.05 Q57.1264 1006.44 62.9365 1006.44 Z" fill="#000000" fill-rule="nonzero" fill-opacity="1" /><path clip-path="url(#clip550)" d="M83.0984 1035.75 L87.9827 1035.75 L87.9827 1041.63 L83.0984 1041.63 L83.0984 1035.75 Z" fill="#000000" fill-rule="nonzero" fill-opacity="1" /><path clip-path="url(#clip550)" d="M108.746 1022.48 Q105.598 1022.48 103.746 1024.64 Q101.918 1026.79 101.918 1030.54 Q101.918 1034.27 103.746 1036.44 Q105.598 1038.6 108.746 1038.6 Q111.895 1038.6 113.723 1036.44 Q115.575 1034.27 115.575 1030.54 Q115.575 1026.79 113.723 1024.64 Q111.895 1022.48 108.746 1022.48 M118.029 1007.83 L118.029 1012.09 Q116.27 1011.26 114.464 1010.82 Q112.682 1010.38 110.922 1010.38 Q106.293 1010.38 103.839 1013.5 Q101.409 1016.63 101.061 1022.95 Q102.427 1020.93 104.487 1019.87 Q106.547 1018.78 109.024 1018.78 Q114.233 1018.78 117.242 1021.95 Q120.274 1025.1 120.274 1030.54 Q120.274 1035.86 117.126 1039.08 Q113.978 1042.3 108.746 1042.3 Q102.751 1042.3 99.5798 1037.72 Q96.4085 1033.11 96.4085 1024.38 Q96.4085 1016.19 100.297 1011.33 Q104.186 1006.44 110.737 1006.44 Q112.496 1006.44 114.279 1006.79 Q116.084 1007.14 118.029 1007.83 Z" fill="#000000" fill-rule="nonzero" fill-opacity="1" /><path clip-path="url(#clip550)" d="M64.0013 776.054 Q60.3902 776.054 58.5615 779.619 Q56.756 783.16 56.756 790.29 Q56.756 797.396 58.5615 800.961 Q60.3902 804.503 64.0013 804.503 Q67.6356 804.503 69.4411 800.961 Q71.2698 797.396 71.2698 790.29 Q71.2698 783.16 69.4411 779.619 Q67.6356 776.054 64.0013 776.054 M64.0013 772.35 Q69.8115 772.35 72.867 776.957 Q75.9457 781.54 75.9457 790.29 Q75.9457 799.017 72.867 803.623 Q69.8115 808.207 64.0013 808.207 Q58.1912 808.207 55.1125 803.623 Q52.0569 799.017 52.0569 790.29 Q52.0569 781.54 55.1125 776.957 Q58.1912 772.35 64.0013 772.35 Z" fill="#000000" fill-rule="nonzero" fill-opacity="1" /><path clip-path="url(#clip550)" d="M84.1632 801.656 L89.0475 801.656 L89.0475 807.535 L84.1632 807.535 L84.1632 801.656 Z" fill="#000000" fill-rule="nonzero" fill-opacity="1" /><path clip-path="url(#clip550)" d="M98.0521 772.975 L120.274 772.975 L120.274 774.966 L107.728 807.535 L102.844 807.535 L114.649 776.91 L98.0521 776.91 L98.0521 772.975 Z" fill="#000000" fill-rule="nonzero" fill-opacity="1" /><path clip-path="url(#clip550)" d="M63.1911 541.961 Q59.58 541.961 57.7513 545.526 Q55.9458 549.067 55.9458 556.197 Q55.9458 563.303 57.7513 566.868 Q59.58 570.41 63.1911 570.41 Q66.8254 570.41 68.6309 566.868 Q70.4596 563.303 70.4596 556.197 Q70.4596 549.067 68.6309 545.526 Q66.8254 541.961 63.1911 541.961 M63.1911 538.257 Q69.0013 538.257 72.0568 542.864 Q75.1355 547.447 75.1355 556.197 Q75.1355 564.924 72.0568 569.53 Q69.0013 574.114 63.1911 574.114 Q57.381 574.114 54.3023 569.53 Q51.2468 564.924 51.2468 556.197 Q51.2468 547.447 54.3023 542.864 Q57.381 538.257 63.1911 538.257 Z" fill="#000000" fill-rule="nonzero" fill-opacity="1" /><path clip-path="url(#clip550)" d="M83.3531 567.563 L88.2373 567.563 L88.2373 573.442 L83.3531 573.442 L83.3531 567.563 Z" fill="#000000" fill-rule="nonzero" fill-opacity="1" /><path clip-path="url(#clip550)" d="M108.422 557.03 Q105.089 557.03 103.168 558.813 Q101.27 560.595 101.27 563.72 Q101.27 566.845 103.168 568.627 Q105.089 570.41 108.422 570.41 Q111.756 570.41 113.677 568.627 Q115.598 566.822 115.598 563.72 Q115.598 560.595 113.677 558.813 Q111.779 557.03 108.422 557.03 M103.746 555.04 Q100.737 554.299 99.0474 552.239 Q97.3808 550.179 97.3808 547.216 Q97.3808 543.072 100.321 540.665 Q103.284 538.257 108.422 538.257 Q113.584 538.257 116.524 540.665 Q119.464 543.072 119.464 547.216 Q119.464 550.179 117.774 552.239 Q116.108 554.299 113.121 555.04 Q116.501 555.827 118.376 558.118 Q120.274 560.41 120.274 563.72 Q120.274 568.743 117.195 571.428 Q114.14 574.114 108.422 574.114 Q102.705 574.114 99.6261 571.428 Q96.5706 568.743 96.5706 563.72 Q96.5706 560.41 98.4687 558.118 Q100.367 555.827 103.746 555.04 M102.034 547.655 Q102.034 550.341 103.7 551.845 Q105.39 553.35 108.422 553.35 Q111.432 553.35 113.121 551.845 Q114.834 550.341 114.834 547.655 Q114.834 544.97 113.121 543.466 Q111.432 541.961 108.422 541.961 Q105.39 541.961 103.7 543.466 Q102.034 544.97 102.034 547.655 Z" fill="#000000" fill-rule="nonzero" fill-opacity="1" /><path clip-path="url(#clip550)" d="M63.2837 307.868 Q59.6726 307.868 57.8439 311.433 Q56.0384 314.974 56.0384 322.104 Q56.0384 329.21 57.8439 332.775 Q59.6726 336.317 63.2837 336.317 Q66.918 336.317 68.7235 332.775 Q70.5522 329.21 70.5522 322.104 Q70.5522 314.974 68.7235 311.433 Q66.918 307.868 63.2837 307.868 M63.2837 304.164 Q69.0939 304.164 72.1494 308.771 Q75.2281 313.354 75.2281 322.104 Q75.2281 330.831 72.1494 335.437 Q69.0939 340.021 63.2837 340.021 Q57.4736 340.021 54.3949 335.437 Q51.3393 330.831 51.3393 322.104 Q51.3393 313.354 54.3949 308.771 Q57.4736 304.164 63.2837 304.164 Z" fill="#000000" fill-rule="nonzero" fill-opacity="1" /><path clip-path="url(#clip550)" d="M83.4457 333.47 L88.3299 333.47 L88.3299 339.349 L83.4457 339.349 L83.4457 333.47 Z" fill="#000000" fill-rule="nonzero" fill-opacity="1" /><path clip-path="url(#clip550)" d="M98.6539 338.632 L98.6539 334.372 Q100.413 335.206 102.219 335.646 Q104.024 336.085 105.76 336.085 Q110.39 336.085 112.82 332.984 Q115.274 329.859 115.621 323.516 Q114.279 325.507 112.219 326.572 Q110.158 327.636 107.658 327.636 Q102.473 327.636 99.4409 324.511 Q96.4317 321.363 96.4317 315.923 Q96.4317 310.599 99.5798 307.382 Q102.728 304.164 107.959 304.164 Q113.955 304.164 117.103 308.771 Q120.274 313.354 120.274 322.104 Q120.274 330.275 116.385 335.159 Q112.52 340.021 105.969 340.021 Q104.209 340.021 102.404 339.673 Q100.598 339.326 98.6539 338.632 M107.959 323.979 Q111.108 323.979 112.936 321.826 Q114.788 319.673 114.788 315.923 Q114.788 312.197 112.936 310.044 Q111.108 307.868 107.959 307.868 Q104.811 307.868 102.959 310.044 Q101.131 312.197 101.131 315.923 Q101.131 319.673 102.959 321.826 Q104.811 323.979 107.959 323.979 Z" fill="#000000" fill-rule="nonzero" fill-opacity="1" /><path clip-path="url(#clip550)" d="M53.9088 101.321 L61.5476 101.321 L61.5476 74.9555 L53.2375 76.6222 L53.2375 72.3629 L61.5013 70.6963 L66.1772 70.6963 L66.1772 101.321 L73.8161 101.321 L73.8161 105.256 L53.9088 105.256 L53.9088 101.321 Z" fill="#000000" fill-rule="nonzero" fill-opacity="1" /><path clip-path="url(#clip550)" d="M83.2605 99.3767 L88.1447 99.3767 L88.1447 105.256 L83.2605 105.256 L83.2605 99.3767 Z" fill="#000000" fill-rule="nonzero" fill-opacity="1" /><path clip-path="url(#clip550)" d="M108.33 73.775 Q104.719 73.775 102.89 77.3398 Q101.084 80.8814 101.084 88.011 Q101.084 95.1174 102.89 98.6822 Q104.719 102.224 108.33 102.224 Q111.964 102.224 113.77 98.6822 Q115.598 95.1174 115.598 88.011 Q115.598 80.8814 113.77 77.3398 Q111.964 73.775 108.33 73.775 M108.33 70.0713 Q114.14 70.0713 117.195 74.6777 Q120.274 79.261 120.274 88.011 Q120.274 96.7378 117.195 101.344 Q114.14 105.928 108.33 105.928 Q102.52 105.928 99.4409 101.344 Q96.3854 96.7378 96.3854 88.011 Q96.3854 79.261 99.4409 74.6777 Q102.52 70.0713 108.33 70.0713 Z" fill="#000000" fill-rule="nonzero" fill-opacity="1" /><polyline clip-path="url(#clip552)" style="stroke:#009af9; stroke-linecap:round; stroke-linejoin:round; stroke-width:4; stroke-opacity:1; fill:none" points="218.439,1258.44 223.632,1258.44 228.825,1305.26 234.019,1445.72 239.212,837.074 244.406,1117.99 249.599,1305.26 254.792,1305.26 259.986,1164.8 265.179,1211.62 270.372,1164.8 275.566,1071.17 280.759,1211.62 285.952,1211.62 291.146,1071.17 296.339,883.892 301.533,790.255 306.726,1117.99 311.919,790.255 317.113,1445.72 322.306,930.711 327.499,1117.99 332.693,1024.35 337.886,837.074 343.079,1117.99 348.273,883.892 353.466,556.162 358.66,837.074 363.853,790.255 369.046,556.162 374.24,930.711 379.433,790.255 384.626,602.981 389.82,696.618 395.013,883.892 400.207,1024.35 405.4,556.162 410.593,649.799 415.787,743.437 420.98,556.162 426.173,743.437 431.367,790.255 436.56,696.618 441.753,790.255 446.947,696.618 452.14,883.892 457.334,602.981 462.527,556.162 467.72,696.618 472.914,649.799 478.107,696.618 483.3,696.618 488.494,556.162 493.687,743.437 498.88,602.981 504.074,368.888 509.267,322.069 514.461,696.618 519.654,556.162 524.847,696.618 530.041,509.344 535.234,275.251 540.427,368.888 545.621,556.162 550.814,462.525 556.007,462.525 561.201,509.344 566.394,602.981 571.588,462.525 576.781,322.069 581.974,602.981 587.168,322.069 592.361,415.706 597.554,415.706 602.748,415.706 607.941,275.251 613.134,462.525 618.328,322.069 623.521,322.069 628.715,415.706 633.908,415.706 639.101,462.525 644.295,556.162 649.488,228.432 654.681,322.069 659.875,602.981 665.068,368.888 670.261,322.069 675.455,368.888 680.648,228.432 685.842,368.888 691.035,275.251 696.228,228.432 701.422,322.069 706.615,322.069 711.808,228.432 717.002,181.613 722.195,368.888 727.388,322.069 732.582,228.432 737.775,134.795 742.969,275.251 748.162,181.613 753.355,228.432 758.549,181.613 763.742,275.251 768.935,228.432 774.129,228.432 779.322,275.251 784.516,322.069 789.709,275.251 794.902,134.795 800.096,228.432 805.289,322.069 810.482,228.432 815.676,87.9763 820.869,275.251 826.062,228.432 831.256,275.251 836.449,322.069 841.643,181.613 846.836,181.613 852.029,275.251 857.223,228.432 862.416,134.795 867.609,275.251 872.803,87.9763 877.996,322.069 883.189,228.432 888.383,322.069 893.576,181.613 898.77,275.251 903.963,181.613 909.156,87.9763 914.35,228.432 919.543,228.432 924.736,87.9763 929.93,181.613 935.123,228.432 940.316,134.795 945.51,134.795 950.703,181.613 955.897,228.432 961.09,275.251 966.283,181.613 971.477,87.9763 976.67,87.9763 981.863,87.9763 987.057,228.432 992.25,228.432 997.443,181.613 1002.64,181.613 1007.83,87.9763 1013.02,87.9763 1018.22,181.613 1023.41,134.795 1028.6,87.9763 1033.8,181.613 1038.99,181.613 1044.18,134.795 1049.38,134.795 1054.57,181.613 1059.76,87.9763 1064.96,228.432 1070.15,181.613 1075.34,134.795 1080.54,181.613 1085.73,181.613 1090.92,87.9763 1096.12,87.9763 1101.31,134.795 1106.5,134.795 1111.7,228.432 1116.89,87.9763 1122.08,87.9763 1127.28,134.795 1132.47,181.613 1137.66,228.432 1142.86,87.9763 1148.05,87.9763 1153.24,87.9763 1158.44,228.432 1163.63,87.9763 1168.82,87.9763 1174.02,87.9763 1179.21,87.9763 1184.4,228.432 1189.6,87.9763 1194.79,228.432 1199.98,134.795 1205.18,87.9763 1210.37,134.795 1215.56,87.9763 1220.76,134.795 1225.95,87.9763 1231.14,134.795 1236.34,87.9763 1241.53,228.432 1246.72,228.432 1251.92,87.9763 1257.11,87.9763 1262.31,87.9763 1267.5,87.9763 1272.69,134.795 1277.89,87.9763 1283.08,87.9763 1288.27,181.613 1293.47,134.795 1298.66,87.9763 1303.85,87.9763 1309.05,181.613 1314.24,181.613 1319.43,87.9763 1324.63,181.613 1329.82,87.9763 1335.01,181.613 1340.21,181.613 1345.4,181.613 1350.59,134.795 1355.79,134.795 1360.98,134.795 1366.17,87.9763 1371.37,134.795 1376.56,87.9763 1381.75,87.9763 1386.95,87.9763 1392.14,87.9763 1397.33,87.9763 1402.53,134.795 1407.72,87.9763 1412.91,134.795 1418.11,87.9763 1423.3,87.9763 1428.49,134.795 1433.69,134.795 1438.88,87.9763 1444.07,87.9763 1449.27,134.795 1454.46,87.9763 1459.65,181.613 1464.85,134.795 1470.04,87.9763 1475.23,134.795 1480.43,134.795 1485.62,87.9763 1490.81,134.795 1496.01,134.795 1501.2,87.9763 1506.39,87.9763 1511.59,134.795 1516.78,87.9763 1521.97,87.9763 1527.17,87.9763 1532.36,134.795 1537.55,87.9763 1542.75,87.9763 1547.94,134.795 1553.13,134.795 1558.33,87.9763 1563.52,134.795 1568.71,87.9763 1573.91,134.795 1579.1,87.9763 1584.29,87.9763 1589.49,134.795 1594.68,87.9763 1599.87,87.9763 1605.07,87.9763 1610.26,134.795 1615.45,181.613 1620.65,87.9763 1625.84,134.795 1631.03,87.9763 1636.23,87.9763 1641.42,87.9763 1646.61,87.9763 1651.81,87.9763 1657,87.9763 1662.19,134.795 1667.39,134.795 1672.58,134.795 1677.77,181.613 1682.97,134.795 1688.16,134.795 1693.35,87.9763 1698.55,134.795 1703.74,134.795 1708.93,134.795 1714.13,87.9763 1719.32,87.9763 1724.51,87.9763 1729.71,87.9763 1734.9,87.9763 1740.09,87.9763 1745.29,134.795 1750.48,87.9763 1755.67,87.9763 1760.87,134.795 1766.06,134.795 1771.25,87.9763 1776.45,87.9763 1781.64,87.9763 1786.83,134.795 1792.03,87.9763 1797.22,181.613 1802.42,87.9763 1807.61,87.9763 1812.8,87.9763 1818,87.9763 1823.19,87.9763 1828.38,87.9763 1833.58,87.9763 1838.77,181.613 1843.96,87.9763 1849.16,87.9763 1854.35,134.795 1859.54,87.9763 1864.74,134.795 1869.93,87.9763 1875.12,87.9763 1880.32,87.9763 1885.51,87.9763 1890.7,134.795 1895.9,87.9763 1901.09,87.9763 1906.28,87.9763 1911.48,134.795 1916.67,134.795 1921.86,87.9763 1927.06,134.795 1932.25,87.9763 1937.44,87.9763 1942.64,134.795 1947.83,87.9763 1953.02,134.795 1958.22,87.9763 1963.41,87.9763 1968.6,134.795 1973.8,87.9763 1978.99,181.613 1984.18,134.795 1989.38,87.9763 1994.57,87.9763 1999.76,134.795 2004.96,87.9763 2010.15,134.795 2015.34,134.795 2020.54,87.9763 2025.73,87.9763 2030.92,134.795 2036.12,181.613 2041.31,87.9763 2046.5,87.9763 2051.7,87.9763 2056.89,87.9763 2062.08,87.9763 2067.28,87.9763 2072.47,87.9763 2077.66,87.9763 2082.86,87.9763 2088.05,87.9763 2093.24,134.795 2098.44,87.9763 2103.63,87.9763 2108.82,134.795 2114.02,87.9763 2119.21,87.9763 2124.4,87.9763 2129.6,134.795 2134.79,87.9763 2139.98,87.9763 2145.18,87.9763 2150.37,87.9763 2155.56,134.795 2160.76,134.795 2165.95,134.795 2171.14,87.9763 2176.34,87.9763 2181.53,87.9763 2186.72,134.795 2191.92,87.9763 2197.11,87.9763 2202.3,87.9763 2207.5,87.9763 2212.69,87.9763 2217.88,134.795 2223.08,87.9763 2228.27,87.9763 2233.46,87.9763 2238.66,87.9763 2243.85,134.795 2249.04,134.795 2254.24,87.9763 2259.43,87.9763 2264.62,134.795 2269.82,87.9763 2275.01,134.795 2280.2,134.795 2285.4,87.9763 2290.59,87.9763 "/>
<path clip-path="url(#clip550)" d="M2007.46 1438.47 L2279.54 1438.47 L2279.54 1334.79 L2007.46 1334.79  Z" fill="#ffffff" fill-rule="evenodd" fill-opacity="1"/>
<polyline clip-path="url(#clip550)" style="stroke:#000000; stroke-linecap:round; stroke-linejoin:round; stroke-width:4; stroke-opacity:1; fill:none" points="2007.46,1438.47 2279.54,1438.47 2279.54,1334.79 2007.46,1334.79 2007.46,1438.47 "/>
<polyline clip-path="url(#clip550)" style="stroke:#009af9; stroke-linecap:round; stroke-linejoin:round; stroke-width:4; stroke-opacity:1; fill:none" points="2031.87,1386.63 2178.3,1386.63 "/>
<path clip-path="url(#clip550)" d="M2216.55 1406.32 Q2214.74 1410.95 2213.03 1412.36 Q2211.32 1413.78 2208.44 1413.78 L2205.04 1413.78 L2205.04 1410.21 L2207.54 1410.21 Q2209.3 1410.21 2210.27 1409.38 Q2211.25 1408.54 2212.43 1405.44 L2213.19 1403.5 L2202.7 1377.99 L2207.22 1377.99 L2215.32 1398.27 L2223.42 1377.99 L2227.94 1377.99 L2216.55 1406.32 Z" fill="#000000" fill-rule="nonzero" fill-opacity="1" /><path clip-path="url(#clip550)" d="M2235.23 1399.98 L2242.87 1399.98 L2242.87 1373.61 L2234.56 1375.28 L2234.56 1371.02 L2242.82 1369.35 L2247.5 1369.35 L2247.5 1399.98 L2255.13 1399.98 L2255.13 1403.91 L2235.23 1403.91 L2235.23 1399.98 Z" fill="#000000" fill-rule="nonzero" fill-opacity="1" /></svg>
