<?xml version="1.0" encoding="utf-8"?>
<svg xmlns="http://www.w3.org/2000/svg" xmlns:xlink="http://www.w3.org/1999/xlink" width="600" height="400" viewBox="0 0 2400 1600">
<defs>
  <clipPath id="clip410">
    <rect x="0" y="0" width="2400" height="1600"/>
  </clipPath>
</defs>
<path clip-path="url(#clip410)" d="M0 1600 L2400 1600 L2400 0 L0 0  Z" fill="#ffffff" fill-rule="evenodd" fill-opacity="1"/>
<defs>
  <clipPath id="clip411">
    <rect x="480" y="0" width="1681" height="1600"/>
  </clipPath>
</defs>
<path clip-path="url(#clip410)" d="M209.029 1486.45 L2352.76 1486.45 L2352.76 47.2441 L209.029 47.2441  Z" fill="#ffffff" fill-rule="evenodd" fill-opacity="1"/>
<defs>
  <clipPath id="clip412">
    <rect x="209" y="47" width="2145" height="1440"/>
  </clipPath>
</defs>
<polyline clip-path="url(#clip412)" style="stroke:#000000; stroke-linecap:round; stroke-linejoin:round; stroke-width:2; stroke-opacity:0.1; fill:none" points="269.7,1486.45 269.7,47.2441 "/>
<polyline clip-path="url(#clip412)" style="stroke:#000000; stroke-linecap:round; stroke-linejoin:round; stroke-width:2; stroke-opacity:0.1; fill:none" points="775.549,1486.45 775.549,47.2441 "/>
<polyline clip-path="url(#clip412)" style="stroke:#000000; stroke-linecap:round; stroke-linejoin:round; stroke-width:2; stroke-opacity:0.1; fill:none" points="1281.4,1486.45 1281.4,47.2441 "/>
<polyline clip-path="url(#clip412)" style="stroke:#000000; stroke-linecap:round; stroke-linejoin:round; stroke-width:2; stroke-opacity:0.1; fill:none" points="1787.25,1486.45 1787.25,47.2441 "/>
<polyline clip-path="url(#clip412)" style="stroke:#000000; stroke-linecap:round; stroke-linejoin:round; stroke-width:2; stroke-opacity:0.1; fill:none" points="2293.1,1486.45 2293.1,47.2441 "/>
<polyline clip-path="url(#clip410)" style="stroke:#000000; stroke-linecap:round; stroke-linejoin:round; stroke-width:4; stroke-opacity:1; fill:none" points="209.029,1486.45 2352.76,1486.45 "/>
<polyline clip-path="url(#clip410)" style="stroke:#000000; stroke-linecap:round; stroke-linejoin:round; stroke-width:4; stroke-opacity:1; fill:none" points="269.7,1486.45 269.7,1467.55 "/>
<polyline clip-path="url(#clip410)" style="stroke:#000000; stroke-linecap:round; stroke-linejoin:round; stroke-width:4; stroke-opacity:1; fill:none" points="775.549,1486.45 775.549,1467.55 "/>
<polyline clip-path="url(#clip410)" style="stroke:#000000; stroke-linecap:round; stroke-linejoin:round; stroke-width:4; stroke-opacity:1; fill:none" points="1281.4,1486.45 1281.4,1467.55 "/>
<polyline clip-path="url(#clip410)" style="stroke:#000000; stroke-linecap:round; stroke-linejoin:round; stroke-width:4; stroke-opacity:1; fill:none" points="1787.25,1486.45 1787.25,1467.55 "/>
<polyline clip-path="url(#clip410)" style="stroke:#000000; stroke-linecap:round; stroke-linejoin:round; stroke-width:4; stroke-opacity:1; fill:none" points="2293.1,1486.45 2293.1,1467.55 "/>
<path clip-path="url(#clip410)" d="M269.7 1517.37 Q266.089 1517.37 264.26 1520.93 Q262.455 1524.47 262.455 1531.6 Q262.455 1538.71 264.26 1542.27 Q266.089 1545.82 269.7 1545.82 Q273.334 1545.82 275.14 1542.27 Q276.969 1538.71 276.969 1531.6 Q276.969 1524.47 275.14 1520.93 Q273.334 1517.37 269.7 1517.37 M269.7 1513.66 Q275.51 1513.66 278.566 1518.27 Q281.644 1522.85 281.644 1531.6 Q281.644 1540.33 278.566 1544.94 Q275.51 1549.52 269.7 1549.52 Q263.89 1549.52 260.811 1544.94 Q257.756 1540.33 257.756 1531.6 Q257.756 1522.85 260.811 1518.27 Q263.89 1513.66 269.7 1513.66 Z" fill="#000000" fill-rule="nonzero" fill-opacity="1" /><path clip-path="url(#clip410)" d="M735.167 1514.29 L753.524 1514.29 L753.524 1518.22 L739.45 1518.22 L739.45 1526.7 Q740.468 1526.35 741.487 1526.19 Q742.505 1526 743.524 1526 Q749.311 1526 752.69 1529.17 Q756.07 1532.34 756.07 1537.76 Q756.07 1543.34 752.598 1546.44 Q749.126 1549.52 742.806 1549.52 Q740.63 1549.52 738.362 1549.15 Q736.116 1548.78 733.709 1548.04 L733.709 1543.34 Q735.792 1544.47 738.015 1545.03 Q740.237 1545.58 742.714 1545.58 Q746.718 1545.58 749.056 1543.48 Q751.394 1541.37 751.394 1537.76 Q751.394 1534.15 749.056 1532.04 Q746.718 1529.94 742.714 1529.94 Q740.839 1529.94 738.964 1530.35 Q737.112 1530.77 735.167 1531.65 L735.167 1514.29 Z" fill="#000000" fill-rule="nonzero" fill-opacity="1" /><path clip-path="url(#clip410)" d="M775.283 1517.37 Q771.672 1517.37 769.843 1520.93 Q768.038 1524.47 768.038 1531.6 Q768.038 1538.71 769.843 1542.27 Q771.672 1545.82 775.283 1545.82 Q778.917 1545.82 780.723 1542.27 Q782.551 1538.71 782.551 1531.6 Q782.551 1524.47 780.723 1520.93 Q778.917 1517.37 775.283 1517.37 M775.283 1513.66 Q781.093 1513.66 784.149 1518.27 Q787.227 1522.85 787.227 1531.6 Q787.227 1540.33 784.149 1544.94 Q781.093 1549.52 775.283 1549.52 Q769.473 1549.52 766.394 1544.94 Q763.338 1540.33 763.338 1531.6 Q763.338 1522.85 766.394 1518.27 Q769.473 1513.66 775.283 1513.66 Z" fill="#000000" fill-rule="nonzero" fill-opacity="1" /><path clip-path="url(#clip410)" d="M805.445 1517.37 Q801.834 1517.37 800.005 1520.93 Q798.199 1524.47 798.199 1531.6 Q798.199 1538.71 800.005 1542.27 Q801.834 1545.82 805.445 1545.82 Q809.079 1545.82 810.885 1542.27 Q812.713 1538.71 812.713 1531.6 Q812.713 1524.47 810.885 1520.93 Q809.079 1517.37 805.445 1517.37 M805.445 1513.66 Q811.255 1513.66 814.31 1518.27 Q817.389 1522.85 817.389 1531.6 Q817.389 1540.33 814.31 1544.94 Q811.255 1549.52 805.445 1549.52 Q799.635 1549.52 796.556 1544.94 Q793.5 1540.33 793.5 1531.6 Q793.5 1522.85 796.556 1518.27 Q799.635 1513.66 805.445 1513.66 Z" fill="#000000" fill-rule="nonzero" fill-opacity="1" /><path clip-path="url(#clip410)" d="M1225.92 1544.91 L1233.56 1544.91 L1233.56 1518.55 L1225.25 1520.21 L1225.25 1515.95 L1233.52 1514.29 L1238.19 1514.29 L1238.19 1544.91 L1245.83 1544.91 L1245.83 1548.85 L1225.92 1548.85 L1225.92 1544.91 Z" fill="#000000" fill-rule="nonzero" fill-opacity="1" /><path clip-path="url(#clip410)" d="M1265.28 1517.37 Q1261.66 1517.37 1259.84 1520.93 Q1258.03 1524.47 1258.03 1531.6 Q1258.03 1538.71 1259.84 1542.27 Q1261.66 1545.82 1265.28 1545.82 Q1268.91 1545.82 1270.72 1542.27 Q1272.54 1538.71 1272.54 1531.6 Q1272.54 1524.47 1270.72 1520.93 Q1268.91 1517.37 1265.28 1517.37 M1265.28 1513.66 Q1271.09 1513.66 1274.14 1518.27 Q1277.22 1522.85 1277.22 1531.6 Q1277.22 1540.33 1274.14 1544.94 Q1271.09 1549.52 1265.28 1549.52 Q1259.47 1549.52 1256.39 1544.94 Q1253.33 1540.33 1253.33 1531.6 Q1253.33 1522.85 1256.39 1518.27 Q1259.47 1513.66 1265.28 1513.66 Z" fill="#000000" fill-rule="nonzero" fill-opacity="1" /><path clip-path="url(#clip410)" d="M1295.44 1517.37 Q1291.83 1517.37 1290 1520.93 Q1288.19 1524.47 1288.19 1531.6 Q1288.19 1538.71 1290 1542.27 Q1291.83 1545.82 1295.44 1545.82 Q1299.07 1545.82 1300.88 1542.27 Q1302.71 1538.71 1302.71 1531.6 Q1302.71 1524.47 1300.88 1520.93 Q1299.07 1517.37 1295.44 1517.37 M1295.44 1513.66 Q1301.25 1513.66 1304.3 1518.27 Q1307.38 1522.85 1307.38 1531.6 Q1307.38 1540.33 1304.3 1544.94 Q1301.25 1549.52 1295.44 1549.52 Q1289.63 1549.52 1286.55 1544.94 Q1283.49 1540.33 1283.49 1531.6 Q1283.49 1522.85 1286.55 1518.27 Q1289.63 1513.66 1295.44 1513.66 Z" fill="#000000" fill-rule="nonzero" fill-opacity="1" /><path clip-path="url(#clip410)" d="M1325.6 1517.37 Q1321.99 1517.37 1320.16 1520.93 Q1318.35 1524.47 1318.35 1531.6 Q1318.35 1538.71 1320.16 1542.27 Q1321.99 1545.82 1325.6 1545.82 Q1329.23 1545.82 1331.04 1542.27 Q1332.87 1538.71 1332.87 1531.6 Q1332.87 1524.47 1331.04 1520.93 Q1329.23 1517.37 1325.6 1517.37 M1325.6 1513.66 Q1331.41 1513.66 1334.46 1518.27 Q1337.54 1522.85 1337.54 1531.6 Q1337.54 1540.33 1334.46 1544.94 Q1331.41 1549.52 1325.6 1549.52 Q1319.79 1549.52 1316.71 1544.94 Q1313.65 1540.33 1313.65 1531.6 Q1313.65 1522.85 1316.71 1518.27 Q1319.79 1513.66 1325.6 1513.66 Z" fill="#000000" fill-rule="nonzero" fill-opacity="1" /><path clip-path="url(#clip410)" d="M1731.77 1544.91 L1739.41 1544.91 L1739.41 1518.55 L1731.1 1520.21 L1731.1 1515.95 L1739.37 1514.29 L1744.04 1514.29 L1744.04 1544.91 L1751.68 1544.91 L1751.68 1548.85 L1731.77 1548.85 L1731.77 1544.91 Z" fill="#000000" fill-rule="nonzero" fill-opacity="1" /><path clip-path="url(#clip410)" d="M1761.17 1514.29 L1779.53 1514.29 L1779.53 1518.22 L1765.45 1518.22 L1765.45 1526.7 Q1766.47 1526.35 1767.49 1526.19 Q1768.51 1526 1769.53 1526 Q1775.31 1526 1778.69 1529.17 Q1782.07 1532.34 1782.07 1537.76 Q1782.07 1543.34 1778.6 1546.44 Q1775.13 1549.52 1768.81 1549.52 Q1766.63 1549.52 1764.37 1549.15 Q1762.12 1548.78 1759.71 1548.04 L1759.71 1543.34 Q1761.8 1544.47 1764.02 1545.03 Q1766.24 1545.58 1768.72 1545.58 Q1772.72 1545.58 1775.06 1543.48 Q1777.4 1541.37 1777.4 1537.76 Q1777.4 1534.15 1775.06 1532.04 Q1772.72 1529.94 1768.72 1529.94 Q1766.84 1529.94 1764.97 1530.35 Q1763.12 1530.77 1761.17 1531.65 L1761.17 1514.29 Z" fill="#000000" fill-rule="nonzero" fill-opacity="1" /><path clip-path="url(#clip410)" d="M1801.29 1517.37 Q1797.68 1517.37 1795.85 1520.93 Q1794.04 1524.47 1794.04 1531.6 Q1794.04 1538.71 1795.85 1542.27 Q1797.68 1545.82 1801.29 1545.82 Q1804.92 1545.82 1806.73 1542.27 Q1808.55 1538.71 1808.55 1531.6 Q1808.55 1524.47 1806.73 1520.93 Q1804.92 1517.37 1801.29 1517.37 M1801.29 1513.66 Q1807.1 1513.66 1810.15 1518.27 Q1813.23 1522.85 1813.23 1531.6 Q1813.23 1540.33 1810.15 1544.94 Q1807.1 1549.52 1801.29 1549.52 Q1795.48 1549.52 1792.4 1544.94 Q1789.34 1540.33 1789.34 1531.6 Q1789.34 1522.85 1792.4 1518.27 Q1795.48 1513.66 1801.29 1513.66 Z" fill="#000000" fill-rule="nonzero" fill-opacity="1" /><path clip-path="url(#clip410)" d="M1831.45 1517.37 Q1827.84 1517.37 1826.01 1520.93 Q1824.2 1524.47 1824.2 1531.6 Q1824.2 1538.71 1826.01 1542.27 Q1827.84 1545.82 1831.45 1545.82 Q1835.08 1545.82 1836.89 1542.27 Q1838.72 1538.71 1838.72 1531.6 Q1838.72 1524.47 1836.89 1520.93 Q1835.08 1517.37 1831.45 1517.37 M1831.45 1513.66 Q1837.26 1513.66 1840.31 1518.27 Q1843.39 1522.85 1843.39 1531.6 Q1843.39 1540.33 1840.31 1544.94 Q1837.26 1549.52 1831.45 1549.52 Q1825.64 1549.52 1822.56 1544.94 Q1819.5 1540.33 1819.5 1531.6 Q1819.5 1522.85 1822.56 1518.27 Q1825.64 1513.66 1831.45 1513.66 Z" fill="#000000" fill-rule="nonzero" fill-opacity="1" /><path clip-path="url(#clip410)" d="M2241.71 1544.91 L2258.03 1544.91 L2258.03 1548.85 L2236.08 1548.85 L2236.08 1544.91 Q2238.74 1542.16 2243.33 1537.53 Q2247.93 1532.88 2249.11 1531.53 Q2251.36 1529.01 2252.24 1527.27 Q2253.14 1525.51 2253.14 1523.82 Q2253.14 1521.07 2251.2 1519.33 Q2249.28 1517.6 2246.18 1517.6 Q2243.98 1517.6 2241.52 1518.36 Q2239.09 1519.13 2236.31 1520.68 L2236.31 1515.95 Q2239.14 1514.82 2241.59 1514.24 Q2244.05 1513.66 2246.08 1513.66 Q2251.45 1513.66 2254.65 1516.35 Q2257.84 1519.03 2257.84 1523.52 Q2257.84 1525.65 2257.03 1527.57 Q2256.24 1529.47 2254.14 1532.07 Q2253.56 1532.74 2250.46 1535.95 Q2247.36 1539.15 2241.71 1544.91 Z" fill="#000000" fill-rule="nonzero" fill-opacity="1" /><path clip-path="url(#clip410)" d="M2277.84 1517.37 Q2274.23 1517.37 2272.4 1520.93 Q2270.6 1524.47 2270.6 1531.6 Q2270.6 1538.71 2272.4 1542.27 Q2274.23 1545.82 2277.84 1545.82 Q2281.48 1545.82 2283.28 1542.27 Q2285.11 1538.71 2285.11 1531.6 Q2285.11 1524.47 2283.28 1520.93 Q2281.48 1517.37 2277.84 1517.37 M2277.84 1513.66 Q2283.65 1513.66 2286.71 1518.27 Q2289.79 1522.85 2289.79 1531.6 Q2289.79 1540.33 2286.71 1544.94 Q2283.65 1549.52 2277.84 1549.52 Q2272.03 1549.52 2268.95 1544.94 Q2265.9 1540.33 2265.9 1531.6 Q2265.9 1522.85 2268.95 1518.27 Q2272.03 1513.66 2277.84 1513.66 Z" fill="#000000" fill-rule="nonzero" fill-opacity="1" /><path clip-path="url(#clip410)" d="M2308 1517.37 Q2304.39 1517.37 2302.56 1520.93 Q2300.76 1524.47 2300.76 1531.6 Q2300.76 1538.71 2302.56 1542.27 Q2304.39 1545.82 2308 1545.82 Q2311.64 1545.82 2313.44 1542.27 Q2315.27 1538.71 2315.27 1531.6 Q2315.27 1524.47 2313.44 1520.93 Q2311.64 1517.37 2308 1517.37 M2308 1513.66 Q2313.81 1513.66 2316.87 1518.27 Q2319.95 1522.85 2319.95 1531.6 Q2319.95 1540.33 2316.87 1544.94 Q2313.81 1549.52 2308 1549.52 Q2302.19 1549.52 2299.11 1544.94 Q2296.06 1540.33 2296.06 1531.6 Q2296.06 1522.85 2299.11 1518.27 Q2302.19 1513.66 2308 1513.66 Z" fill="#000000" fill-rule="nonzero" fill-opacity="1" /><path clip-path="url(#clip410)" d="M2338.17 1517.37 Q2334.55 1517.37 2332.73 1520.93 Q2330.92 1524.47 2330.92 1531.6 Q2330.92 1538.71 2332.73 1542.27 Q2334.55 1545.82 2338.17 1545.82 Q2341.8 1545.82 2343.61 1542.27 Q2345.43 1538.71 2345.43 1531.6 Q2345.43 1524.47 2343.61 1520.93 Q2341.8 1517.37 2338.17 1517.37 M2338.17 1513.66 Q2343.98 1513.66 2347.03 1518.27 Q2350.11 1522.85 2350.11 1531.6 Q2350.11 1540.33 2347.03 1544.94 Q2343.98 1549.52 2338.17 1549.52 Q2332.36 1549.52 2329.28 1544.94 Q2326.22 1540.33 2326.22 1531.6 Q2326.22 1522.85 2329.28 1518.27 Q2332.36 1513.66 2338.17 1513.66 Z" fill="#000000" fill-rule="nonzero" fill-opacity="1" /><polyline clip-path="url(#clip412)" style="stroke:#000000; stroke-linecap:round; stroke-linejoin:round; stroke-width:2; stroke-opacity:0.1; fill:none" points="209.029,1288.84 2352.76,1288.84 "/>
<polyline clip-path="url(#clip412)" style="stroke:#000000; stroke-linecap:round; stroke-linejoin:round; stroke-width:2; stroke-opacity:0.1; fill:none" points="209.029,1040.23 2352.76,1040.23 "/>
<polyline clip-path="url(#clip412)" style="stroke:#000000; stroke-linecap:round; stroke-linejoin:round; stroke-width:2; stroke-opacity:0.1; fill:none" points="209.029,791.619 2352.76,791.619 "/>
<polyline clip-path="url(#clip412)" style="stroke:#000000; stroke-linecap:round; stroke-linejoin:round; stroke-width:2; stroke-opacity:0.1; fill:none" points="209.029,543.008 2352.76,543.008 "/>
<polyline clip-path="url(#clip412)" style="stroke:#000000; stroke-linecap:round; stroke-linejoin:round; stroke-width:2; stroke-opacity:0.1; fill:none" points="209.029,294.396 2352.76,294.396 "/>
<polyline clip-path="url(#clip410)" style="stroke:#000000; stroke-linecap:round; stroke-linejoin:round; stroke-width:4; stroke-opacity:1; fill:none" points="209.029,1486.45 209.029,47.2441 "/>
<polyline clip-path="url(#clip410)" style="stroke:#000000; stroke-linecap:round; stroke-linejoin:round; stroke-width:4; stroke-opacity:1; fill:none" points="209.029,1288.84 227.926,1288.84 "/>
<polyline clip-path="url(#clip410)" style="stroke:#000000; stroke-linecap:round; stroke-linejoin:round; stroke-width:4; stroke-opacity:1; fill:none" points="209.029,1040.23 227.926,1040.23 "/>
<polyline clip-path="url(#clip410)" style="stroke:#000000; stroke-linecap:round; stroke-linejoin:round; stroke-width:4; stroke-opacity:1; fill:none" points="209.029,791.619 227.926,791.619 "/>
<polyline clip-path="url(#clip410)" style="stroke:#000000; stroke-linecap:round; stroke-linejoin:round; stroke-width:4; stroke-opacity:1; fill:none" points="209.029,543.008 227.926,543.008 "/>
<polyline clip-path="url(#clip410)" style="stroke:#000000; stroke-linecap:round; stroke-linejoin:round; stroke-width:4; stroke-opacity:1; fill:none" points="209.029,294.396 227.926,294.396 "/>
<path clip-path="url(#clip410)" d="M50.9921 1289.29 L80.6679 1289.29 L80.6679 1293.23 L50.9921 1293.23 L50.9921 1289.29 Z" fill="#000000" fill-rule="nonzero" fill-opacity="1" /><path clip-path="url(#clip410)" d="M104.927 1287.49 Q108.283 1288.21 110.158 1290.47 Q112.057 1292.74 112.057 1296.08 Q112.057 1301.19 108.538 1303.99 Q105.02 1306.79 98.5382 1306.79 Q96.3623 1306.79 94.0475 1306.35 Q91.7558 1305.94 89.3021 1305.08 L89.3021 1300.57 Q91.2465 1301.7 93.5613 1302.28 Q95.8761 1302.86 98.3993 1302.86 Q102.797 1302.86 105.089 1301.12 Q107.404 1299.39 107.404 1296.08 Q107.404 1293.02 105.251 1291.31 Q103.121 1289.57 99.3021 1289.57 L95.2743 1289.57 L95.2743 1285.73 L99.4872 1285.73 Q102.936 1285.73 104.765 1284.36 Q106.594 1282.97 106.594 1280.38 Q106.594 1277.72 104.696 1276.31 Q102.821 1274.87 99.3021 1274.87 Q97.3808 1274.87 95.1817 1275.29 Q92.9826 1275.71 90.3438 1276.59 L90.3438 1272.42 Q93.0058 1271.68 95.3206 1271.31 Q97.6585 1270.94 99.7187 1270.94 Q105.043 1270.94 108.145 1273.37 Q111.246 1275.78 111.246 1279.9 Q111.246 1282.77 109.603 1284.76 Q107.959 1286.72 104.927 1287.49 Z" fill="#000000" fill-rule="nonzero" fill-opacity="1" /><path clip-path="url(#clip410)" d="M120.969 1271.56 L139.325 1271.56 L139.325 1275.5 L125.251 1275.5 L125.251 1283.97 Q126.27 1283.62 127.288 1283.46 Q128.307 1283.28 129.325 1283.28 Q135.112 1283.28 138.492 1286.45 Q141.871 1289.62 141.871 1295.03 Q141.871 1300.61 138.399 1303.72 Q134.927 1306.79 128.607 1306.79 Q126.432 1306.79 124.163 1306.42 Q121.918 1306.05 119.51 1305.31 L119.51 1300.61 Q121.594 1301.75 123.816 1302.3 Q126.038 1302.86 128.515 1302.86 Q132.519 1302.86 134.857 1300.75 Q137.195 1298.65 137.195 1295.03 Q137.195 1291.42 134.857 1289.32 Q132.519 1287.21 128.515 1287.21 Q126.64 1287.21 124.765 1287.63 Q122.913 1288.04 120.969 1288.92 L120.969 1271.56 Z" fill="#000000" fill-rule="nonzero" fill-opacity="1" /><path clip-path="url(#clip410)" d="M161.084 1274.64 Q157.473 1274.64 155.644 1278.21 Q153.839 1281.75 153.839 1288.88 Q153.839 1295.98 155.644 1299.55 Q157.473 1303.09 161.084 1303.09 Q164.718 1303.09 166.524 1299.55 Q168.353 1295.98 168.353 1288.88 Q168.353 1281.75 166.524 1278.21 Q164.718 1274.64 161.084 1274.64 M161.084 1270.94 Q166.894 1270.94 169.95 1275.54 Q173.029 1280.13 173.029 1288.88 Q173.029 1297.6 169.95 1302.21 Q166.894 1306.79 161.084 1306.79 Q155.274 1306.79 152.195 1302.21 Q149.14 1297.6 149.14 1288.88 Q149.14 1280.13 152.195 1275.54 Q155.274 1270.94 161.084 1270.94 Z" fill="#000000" fill-rule="nonzero" fill-opacity="1" /><path clip-path="url(#clip410)" d="M50.9921 1040.68 L80.6679 1040.68 L80.6679 1044.62 L50.9921 1044.62 L50.9921 1040.68 Z" fill="#000000" fill-rule="nonzero" fill-opacity="1" /><path clip-path="url(#clip410)" d="M104.927 1038.88 Q108.283 1039.59 110.158 1041.86 Q112.057 1044.13 112.057 1047.46 Q112.057 1052.58 108.538 1055.38 Q105.02 1058.18 98.5382 1058.18 Q96.3623 1058.18 94.0475 1057.74 Q91.7558 1057.33 89.3021 1056.47 L89.3021 1051.96 Q91.2465 1053.09 93.5613 1053.67 Q95.8761 1054.25 98.3993 1054.25 Q102.797 1054.25 105.089 1052.51 Q107.404 1050.77 107.404 1047.46 Q107.404 1044.41 105.251 1042.7 Q103.121 1040.96 99.3021 1040.96 L95.2743 1040.96 L95.2743 1037.12 L99.4872 1037.12 Q102.936 1037.12 104.765 1035.75 Q106.594 1034.36 106.594 1031.77 Q106.594 1029.11 104.696 1027.7 Q102.821 1026.26 99.3021 1026.26 Q97.3808 1026.26 95.1817 1026.68 Q92.9826 1027.09 90.3438 1027.97 L90.3438 1023.81 Q93.0058 1023.07 95.3206 1022.7 Q97.6585 1022.33 99.7187 1022.33 Q105.043 1022.33 108.145 1024.76 Q111.246 1027.16 111.246 1031.28 Q111.246 1034.15 109.603 1036.15 Q107.959 1038.11 104.927 1038.88 Z" fill="#000000" fill-rule="nonzero" fill-opacity="1" /><path clip-path="url(#clip410)" d="M130.922 1026.03 Q127.311 1026.03 125.482 1029.59 Q123.677 1033.14 123.677 1040.27 Q123.677 1047.37 125.482 1050.94 Q127.311 1054.48 130.922 1054.48 Q134.556 1054.48 136.362 1050.94 Q138.191 1047.37 138.191 1040.27 Q138.191 1033.14 136.362 1029.59 Q134.556 1026.03 130.922 1026.03 M130.922 1022.33 Q136.732 1022.33 139.788 1026.93 Q142.867 1031.52 142.867 1040.27 Q142.867 1048.99 139.788 1053.6 Q136.732 1058.18 130.922 1058.18 Q125.112 1058.18 122.033 1053.6 Q118.978 1048.99 118.978 1040.27 Q118.978 1031.52 122.033 1026.93 Q125.112 1022.33 130.922 1022.33 Z" fill="#000000" fill-rule="nonzero" fill-opacity="1" /><path clip-path="url(#clip410)" d="M161.084 1026.03 Q157.473 1026.03 155.644 1029.59 Q153.839 1033.14 153.839 1040.27 Q153.839 1047.37 155.644 1050.94 Q157.473 1054.48 161.084 1054.48 Q164.718 1054.48 166.524 1050.94 Q168.353 1047.37 168.353 1040.27 Q168.353 1033.14 166.524 1029.59 Q164.718 1026.03 161.084 1026.03 M161.084 1022.33 Q166.894 1022.33 169.95 1026.93 Q173.029 1031.52 173.029 1040.27 Q173.029 1048.99 169.95 1053.6 Q166.894 1058.18 161.084 1058.18 Q155.274 1058.18 152.195 1053.6 Q149.14 1048.99 149.14 1040.27 Q149.14 1031.52 152.195 1026.93 Q155.274 1022.33 161.084 1022.33 Z" fill="#000000" fill-rule="nonzero" fill-opacity="1" /><path clip-path="url(#clip410)" d="M50.9921 792.071 L80.6679 792.071 L80.6679 796.006 L50.9921 796.006 L50.9921 792.071 Z" fill="#000000" fill-rule="nonzero" fill-opacity="1" /><path clip-path="url(#clip410)" d="M94.7882 804.964 L111.108 804.964 L111.108 808.899 L89.1632 808.899 L89.1632 804.964 Q91.8252 802.21 96.4085 797.58 Q101.015 792.927 102.196 791.585 Q104.441 789.061 105.321 787.325 Q106.223 785.566 106.223 783.876 Q106.223 781.122 104.279 779.386 Q102.358 777.649 99.2558 777.649 Q97.0567 777.649 94.603 778.413 Q92.1725 779.177 89.3947 780.728 L89.3947 776.006 Q92.2188 774.872 94.6724 774.293 Q97.1261 773.714 99.1632 773.714 Q104.534 773.714 107.728 776.399 Q110.922 779.085 110.922 783.575 Q110.922 785.705 110.112 787.626 Q109.325 789.524 107.219 792.117 Q106.64 792.788 103.538 796.006 Q100.436 799.2 94.7882 804.964 Z" fill="#000000" fill-rule="nonzero" fill-opacity="1" /><path clip-path="url(#clip410)" d="M120.969 774.339 L139.325 774.339 L139.325 778.274 L125.251 778.274 L125.251 786.747 Q126.27 786.399 127.288 786.237 Q128.307 786.052 129.325 786.052 Q135.112 786.052 138.492 789.223 Q141.871 792.395 141.871 797.811 Q141.871 803.39 138.399 806.492 Q134.927 809.571 128.607 809.571 Q126.432 809.571 124.163 809.2 Q121.918 808.83 119.51 808.089 L119.51 803.39 Q121.594 804.524 123.816 805.08 Q126.038 805.635 128.515 805.635 Q132.519 805.635 134.857 803.529 Q137.195 801.422 137.195 797.811 Q137.195 794.2 134.857 792.094 Q132.519 789.987 128.515 789.987 Q126.64 789.987 124.765 790.404 Q122.913 790.821 120.969 791.7 L120.969 774.339 Z" fill="#000000" fill-rule="nonzero" fill-opacity="1" /><path clip-path="url(#clip410)" d="M161.084 777.418 Q157.473 777.418 155.644 780.983 Q153.839 784.524 153.839 791.654 Q153.839 798.76 155.644 802.325 Q157.473 805.867 161.084 805.867 Q164.718 805.867 166.524 802.325 Q168.353 798.76 168.353 791.654 Q168.353 784.524 166.524 780.983 Q164.718 777.418 161.084 777.418 M161.084 773.714 Q166.894 773.714 169.95 778.321 Q173.029 782.904 173.029 791.654 Q173.029 800.381 169.95 804.987 Q166.894 809.571 161.084 809.571 Q155.274 809.571 152.195 804.987 Q149.14 800.381 149.14 791.654 Q149.14 782.904 152.195 778.321 Q155.274 773.714 161.084 773.714 Z" fill="#000000" fill-rule="nonzero" fill-opacity="1" /><path clip-path="url(#clip410)" d="M50.9921 543.459 L80.6679 543.459 L80.6679 547.394 L50.9921 547.394 L50.9921 543.459 Z" fill="#000000" fill-rule="nonzero" fill-opacity="1" /><path clip-path="url(#clip410)" d="M94.7882 556.353 L111.108 556.353 L111.108 560.288 L89.1632 560.288 L89.1632 556.353 Q91.8252 553.598 96.4085 548.968 Q101.015 544.316 102.196 542.973 Q104.441 540.45 105.321 538.714 Q106.223 536.955 106.223 535.265 Q106.223 532.51 104.279 530.774 Q102.358 529.038 99.2558 529.038 Q97.0567 529.038 94.603 529.802 Q92.1725 530.566 89.3947 532.117 L89.3947 527.394 Q92.2188 526.26 94.6724 525.681 Q97.1261 525.103 99.1632 525.103 Q104.534 525.103 107.728 527.788 Q110.922 530.473 110.922 534.964 Q110.922 537.093 110.112 539.015 Q109.325 540.913 107.219 543.505 Q106.64 544.177 103.538 547.394 Q100.436 550.589 94.7882 556.353 Z" fill="#000000" fill-rule="nonzero" fill-opacity="1" /><path clip-path="url(#clip410)" d="M130.922 528.806 Q127.311 528.806 125.482 532.371 Q123.677 535.913 123.677 543.042 Q123.677 550.149 125.482 553.714 Q127.311 557.255 130.922 557.255 Q134.556 557.255 136.362 553.714 Q138.191 550.149 138.191 543.042 Q138.191 535.913 136.362 532.371 Q134.556 528.806 130.922 528.806 M130.922 525.103 Q136.732 525.103 139.788 529.709 Q142.867 534.293 142.867 543.042 Q142.867 551.769 139.788 556.376 Q136.732 560.959 130.922 560.959 Q125.112 560.959 122.033 556.376 Q118.978 551.769 118.978 543.042 Q118.978 534.293 122.033 529.709 Q125.112 525.103 130.922 525.103 Z" fill="#000000" fill-rule="nonzero" fill-opacity="1" /><path clip-path="url(#clip410)" d="M161.084 528.806 Q157.473 528.806 155.644 532.371 Q153.839 535.913 153.839 543.042 Q153.839 550.149 155.644 553.714 Q157.473 557.255 161.084 557.255 Q164.718 557.255 166.524 553.714 Q168.353 550.149 168.353 543.042 Q168.353 535.913 166.524 532.371 Q164.718 528.806 161.084 528.806 M161.084 525.103 Q166.894 525.103 169.95 529.709 Q173.029 534.293 173.029 543.042 Q173.029 551.769 169.95 556.376 Q166.894 560.959 161.084 560.959 Q155.274 560.959 152.195 556.376 Q149.14 551.769 149.14 543.042 Q149.14 534.293 152.195 529.709 Q155.274 525.103 161.084 525.103 Z" fill="#000000" fill-rule="nonzero" fill-opacity="1" /><path clip-path="url(#clip410)" d="M50.9921 294.848 L80.6679 294.848 L80.6679 298.783 L50.9921 298.783 L50.9921 294.848 Z" fill="#000000" fill-rule="nonzero" fill-opacity="1" /><path clip-path="url(#clip410)" d="M91.5706 307.741 L99.2095 307.741 L99.2095 281.375 L90.8993 283.042 L90.8993 278.783 L99.1632 277.116 L103.839 277.116 L103.839 307.741 L111.478 307.741 L111.478 311.676 L91.5706 311.676 L91.5706 307.741 Z" fill="#000000" fill-rule="nonzero" fill-opacity="1" /><path clip-path="url(#clip410)" d="M120.969 277.116 L139.325 277.116 L139.325 281.051 L125.251 281.051 L125.251 289.524 Q126.27 289.176 127.288 289.014 Q128.307 288.829 129.325 288.829 Q135.112 288.829 138.492 292 Q141.871 295.172 141.871 300.588 Q141.871 306.167 138.399 309.269 Q134.927 312.347 128.607 312.347 Q126.432 312.347 124.163 311.977 Q121.918 311.607 119.51 310.866 L119.51 306.167 Q121.594 307.301 123.816 307.857 Q126.038 308.412 128.515 308.412 Q132.519 308.412 134.857 306.306 Q137.195 304.199 137.195 300.588 Q137.195 296.977 134.857 294.871 Q132.519 292.764 128.515 292.764 Q126.64 292.764 124.765 293.181 Q122.913 293.598 120.969 294.477 L120.969 277.116 Z" fill="#000000" fill-rule="nonzero" fill-opacity="1" /><path clip-path="url(#clip410)" d="M161.084 280.195 Q157.473 280.195 155.644 283.76 Q153.839 287.301 153.839 294.431 Q153.839 301.537 155.644 305.102 Q157.473 308.644 161.084 308.644 Q164.718 308.644 166.524 305.102 Q168.353 301.537 168.353 294.431 Q168.353 287.301 166.524 283.76 Q164.718 280.195 161.084 280.195 M161.084 276.491 Q166.894 276.491 169.95 281.098 Q173.029 285.681 173.029 294.431 Q173.029 303.158 169.95 307.764 Q166.894 312.347 161.084 312.347 Q155.274 312.347 152.195 307.764 Q149.14 303.158 149.14 294.431 Q149.14 285.681 152.195 281.098 Q155.274 276.491 161.084 276.491 Z" fill="#000000" fill-rule="nonzero" fill-opacity="1" /><polyline clip-path="url(#clip412)" style="stroke:#009af9; stroke-linecap:round; stroke-linejoin:round; stroke-width:4; stroke-opacity:1; fill:none" points="269.7,210.287 270.712,206.458 271.723,292.038 272.735,287.586 273.747,121.875 274.759,119.298 275.77,317.517 276.782,313.054 277.794,355.132 278.805,351.16 279.817,243.208 280.829,238.094 281.84,469.373 282.852,465.849 283.864,342.684 284.876,338.181 285.887,429.253 286.899,425.597 287.911,90.4647 288.922,87.9763 289.934,445.442 290.946,442.153 291.957,253.797 292.969,250.603 293.981,317.954 294.992,314.767 296.004,294.231 297.016,289.905 298.028,281.509 299.039,278.314 300.051,342.823 301.063,339.584 302.074,268.411 303.086,264.743 304.098,439.815 305.109,434.228 306.121,322.923 307.133,319.083 308.145,242.178 309.156,238.842 310.168,338.506 311.18,335.879 312.191,341.127 313.203,337.255 314.215,522.192 315.226,519.115 316.238,468.292 317.25,464.38 318.262,235.018 319.273,232.326 320.285,406.324 321.297,403.682 322.308,361.008 323.32,356.728 324.332,243.032 325.343,239.947 326.355,463.194 327.367,461.249 328.379,463.231 329.39,460.248 330.402,345.095 331.414,341.95 332.425,357.612 333.437,355.231 334.449,390.297 335.46,387.983 336.472,572.21 337.484,569.387 338.496,382.11 339.507,379.609 340.519,355.345 341.531,353.252 342.542,382.254 343.554,380.007 344.566,413.379 345.577,411.354 346.589,367.682 347.601,365.333 348.612,591.848 349.624,590.596 350.636,502.447 351.648,500.508 352.659,376.943 353.671,373.894 354.683,529.825 355.694,527.414 356.706,507.941 357.718,506.898 358.729,424.577 359.741,423.816 360.753,266.596 361.765,264.787 362.776,410.184 363.788,408.15 364.8,545.471 365.811,543.231 366.823,505.099 367.835,502.693 368.846,642.874 369.858,640.301 370.87,377.664 371.882,376.499 372.893,499.195 373.905,496.927 374.917,630.135 375.928,629.168 376.94,486.483 377.952,484.732 378.963,437.23 379.975,435.277 380.987,513.313 381.999,511.23 383.01,400.802 384.022,399.651 385.034,534.605 386.045,532.635 387.057,480.608 388.069,479.93 389.08,436.086 390.092,435.289 391.104,474.481 392.115,473.433 393.127,457.436 394.139,455.822 395.151,452.103 396.162,450.62 397.174,517.021 398.186,515.631 399.197,412.829 400.209,411.655 401.221,487.024 402.232,486.448 403.244,572.282 404.256,570.32 405.268,396.648 406.279,394.665 407.291,515.34 408.303,514.465 409.314,581.121 410.326,580.04 411.338,442.675 412.349,441.253 413.361,433.014 414.373,431.845 415.385,404.405 416.396,403.61 417.408,843.905 418.42,843.27 419.431,561.764 420.443,560.487 421.455,568.755 422.466,567.729 423.478,506.69 424.49,505.673 425.502,529.24 426.513,528.484 427.525,661.703 428.537,660.363 429.548,653.949 430.56,653.225 431.572,665.857 432.583,664.086 433.595,540.553 434.607,539.947 435.619,617.08 436.63,616.046 437.642,609.567 438.654,608.555 439.665,559.179 440.677,558.455 441.689,635.502 442.7,634.211 443.712,639.689 444.724,638.408 445.735,597.545 446.747,597.281 447.759,584.869 448.771,584.02 449.782,610.724 450.794,609.746 451.806,618.145 452.817,617.425 453.829,725.277 454.841,723.898 455.852,652.192 456.864,651.567 457.876,569.367 458.888,568.586 459.899,532.581 460.911,531.62 461.923,599.15 462.934,598.114 463.946,564.453 464.958,563.458 465.969,633.247 466.981,632.445 467.993,502.283 469.005,501.365 470.016,567.345 471.028,566.062 472.04,665.137 473.051,665.185 474.063,662.17 475.075,661.28 476.086,647.435 477.098,646.969 478.11,803.254 479.122,801.684 480.133,466.014 481.145,465.152 482.157,580.629 483.168,579.66 484.18,611.434 485.192,610.738 486.203,703.048 487.215,702.215 488.227,592.389 489.239,591.257 490.25,712.943 491.262,712.309 492.274,550.46 493.285,549.38 494.297,721.303 495.309,720.83 496.32,691.823 497.332,691.023 498.344,673.537 499.355,672.639 500.367,664.021 501.379,663.395 502.391,662.295 503.402,661.45 504.414,686.808 505.426,686.377 506.437,642.283 507.449,641.386 508.461,618.843 509.472,618.025 510.484,676.854 511.496,675.808 512.508,664.218 513.519,663.252 514.531,719.465 515.543,718.64 516.554,698.548 517.566,697.997 518.578,693.408 519.589,692.805 520.601,725.563 521.613,724.975 522.625,639.445 523.636,639.033 524.648,670.653 525.66,669.92 526.671,710.109 527.683,709.235 528.695,690.627 529.706,689.789 530.718,762.105 531.73,761.403 532.742,644.664 533.753,643.79 534.765,770.386 535.777,769.78 536.788,724.145 537.8,723.99 538.812,614.378 539.823,613.675 540.835,660.811 541.847,660.265 542.859,800.967 543.87,800.334 544.882,689.391 545.894,688.618 546.905,728.08 547.917,727.336 548.929,722.501 549.94,722.264 550.952,656.201 551.964,655.56 552.975,797.192 553.987,796.64 554.999,646.097 556.011,645.484 557.022,749.455 558.034,748.967 559.046,706.25 560.057,704.885 561.069,807.887 562.081,807.719 563.092,641.482 564.104,640.625 565.116,744.727 566.128,744.612 567.139,699.349 568.151,698.424 569.163,570.661 570.174,569.858 571.186,706.797 572.198,706.522 573.209,724.739 574.221,724.339 575.233,615.871 576.245,615.064 577.256,685.432 578.268,684.054 579.28,752.772 580.291,751.728 581.303,712.884 582.315,711.632 583.326,658.972 584.338,658.345 585.35,740.565 586.362,739.909 587.373,694.664 588.385,694.203 589.397,762.126 590.408,761.849 591.42,704.239 592.432,703.503 593.443,708.944 594.455,708.59 595.467,735.754 596.478,735.434 597.49,553.358 598.502,551.562 599.514,697.737 600.525,697.193 601.537,844.693 602.549,844.096 603.56,815.229 604.572,814.809 605.584,666.595 606.595,666.03 607.607,771.589 608.619,771.138 609.631,827.046 610.642,826.814 611.654,718.069 612.666,717.408 613.677,767.332 614.689,766.856 615.701,807.902 616.712,807.372 617.724,741.216 618.736,740.699 619.748,828.583 620.759,828.029 621.771,823.45 622.783,822.565 623.794,756.845 624.806,756.209 625.818,735.064 626.829,734.479 627.841,781.491 628.853,780.58 629.865,686.542 630.876,685.986 631.888,784.036 632.9,783.297 633.911,976.068 634.923,975.197 635.935,815.705 636.946,814.976 637.958,843.401 638.97,842.934 639.982,915.156 640.993,914.499 642.005,827.598 643.017,827.243 644.028,731.304 645.04,730.564 646.052,842.277 647.063,841.912 648.075,745.536 649.087,744.973 650.098,804.494 651.11,803.602 652.122,778.435 653.134,777.937 654.145,724.811 655.157,724.329 656.169,800.025 657.18,799.301 658.192,784.126 659.204,783.746 660.215,791.862 661.227,791.31 662.239,733.031 663.251,732.741 664.262,824.666 665.274,824.192 666.286,717.861 667.297,716.827 668.309,866.791 669.321,866.227 670.332,778.659 671.344,778.477 672.356,828.923 673.368,828.332 674.379,741.411 675.391,740.943 676.403,823.714 677.414,822.015 678.426,761.81 679.438,761.444 680.449,936.838 681.461,936.118 682.473,834.878 683.485,834.31 684.496,727.8 685.508,727.169 686.52,821.633 687.531,821.227 688.543,976.806 689.555,976.712 690.566,727.267 691.578,725.139 692.59,816.054 693.602,815.778 694.613,825.912 695.625,825.454 696.637,823.465 697.648,822.885 698.66,896.444 699.672,896.022 700.683,891.909 701.695,891.61 702.707,916.21 703.718,915.935 704.73,866.027 705.742,865.327 706.754,849.637 707.765,848.791 708.777,830.419 709.789,829.954 710.8,854.504 711.812,854.208 712.824,825.727 713.835,825.482 714.847,860.495 715.859,859.779 716.871,809.931 717.882,809.501 718.894,854.279 719.906,853.774 720.917,842.57 721.929,842.052 722.941,928.381 723.952,928.018 724.964,833.896 725.976,833.425 726.988,733.367 727.999,732.959 729.011,794.452 730.023,794.016 731.034,782.394 732.046,782.145 733.058,793.207 734.069,792.77 735.081,739.326 736.093,739.135 737.105,954.645 738.116,954.306 739.128,919.347 740.14,918.97 741.151,846.809 742.163,846.097 743.175,892.792 744.186,892.042 745.198,808.835 746.21,807.992 747.222,783.2 748.233,782.404 749.245,962.994 750.257,962.808 751.268,882.959 752.28,882.635 753.292,959.81 754.303,959.409 755.315,910.768 756.327,910.289 757.338,847.551 758.35,847.064 759.362,876.58 760.374,875.936 761.385,841.9 762.397,841.69 763.409,818.471 764.42,818.111 765.432,759.925 766.444,759.483 767.455,789.732 768.467,787.991 769.479,953.74 770.491,953.346 771.502,873.109 772.514,872.88 773.526,811.285 774.537,810.955 775.549,960.149 776.561,959.947 777.572,936.096 778.584,935.8 779.596,974.715 780.608,974.498 781.619,815.126 782.631,814.876 783.643,893.081 784.654,892.788 785.666,1001 786.678,1000.77 787.689,687.558 788.701,686.773 789.713,932.736 790.725,932.56 791.736,1021.02 792.748,1020.7 793.76,853.724 794.771,853.508 795.783,996.973 796.795,996.636 797.806,880.044 798.818,879.415 799.83,880.332 800.841,880.089 801.853,873.811 802.865,873.4 803.877,794.318 804.888,793.95 805.9,878.686 806.912,878.342 807.923,950.141 808.935,949.624 809.947,917.396 810.958,916.993 811.97,1018.51 812.982,1018.29 813.994,937.239 815.005,936.928 816.017,1038.56 817.029,1038.26 818.04,950.958 819.052,950.065 820.064,895.228 821.075,894.943 822.087,945.245 823.099,944.9 824.111,945.345 825.122,943.681 826.134,1004.91 827.146,1003.37 828.157,923.619 829.169,923.247 830.181,937.154 831.192,936.838 832.204,930.36 833.216,930.03 834.228,888.077 835.239,887.177 836.251,1011.58 837.263,1011.24 838.274,926.868 839.286,926.511 840.298,1018.78 841.309,1018.38 842.321,1063.28 843.333,1063.13 844.345,908.727 845.356,908.469 846.368,890.474 847.38,889.997 848.391,913.716 849.403,913.325 850.415,927.712 851.426,927.21 852.438,883.135 853.45,882.974 854.461,885.528 855.473,883.896 856.485,858.789 857.497,858.576 858.508,1124.56 859.52,1124.3 860.532,1121.02 861.543,1120.88 862.555,884.492 863.567,884.073 864.578,909.292 865.59,909.074 866.602,974.108 867.614,973.532 868.625,929.846 869.637,929.325 870.649,855.206 871.66,854.879 872.672,900.344 873.684,900.071 874.695,977.203 875.707,976.707 876.719,1021.09 877.731,1020.96 878.742,1026.76 879.754,1026.73 880.766,875.502 881.777,874.951 882.789,1031.77 883.801,1031.35 884.812,1022.22 885.824,1021.81 886.836,1008.26 887.848,1006.6 888.859,1024.26 889.871,1023.7 890.883,1064.76 891.894,1064.41 892.906,973.517 893.918,973.248 894.929,975.361 895.941,974.901 896.953,1031.48 897.965,1031.17 898.976,912.834 899.988,912.588 901,932.255 902.011,931.844 903.023,902.566 904.035,902.096 905.046,904.632 906.058,904.312 907.07,831.854 908.081,831.586 909.093,974.664 910.105,974.336 911.117,1024.98 912.128,1024.69 913.14,906.226 914.152,906.021 915.163,994.218 916.175,994.072 917.187,987.597 918.198,987.327 919.21,1043.28 920.222,1042.64 921.234,926.653 922.245,926.386 923.257,923.871 924.269,923.363 925.28,889.568 926.292,889.21 927.304,921.629 928.315,921.24 929.327,1086.04 930.339,1085.79 931.351,1029.08 932.362,1028.17 933.374,1021.04 934.386,1020.4 935.397,1091.01 936.409,1090.83 937.421,1009.67 938.432,1008.93 939.444,908.156 940.456,906.567 941.468,986.693 942.479,985.705 943.491,892.713 944.503,892.476 945.514,1055.75 946.526,1055.4 947.538,1210.69 948.549,1210.85 949.561,1040.6 950.573,1040.3 951.585,1060.97 952.596,1060.81 953.608,991.393 954.62,991.14 955.631,1046.89 956.643,1045.8 957.655,1003.57 958.666,1003.11 959.678,914.502 960.69,914.106 961.701,1051.4 962.713,1050.93 963.725,975.596 964.737,974.809 965.748,1063.06 966.76,1062.98 967.772,1073.9 968.783,1073.62 969.795,1086.82 970.807,1086.48 971.818,928.439 972.83,928.272 973.842,1231.37 974.854,1231.34 975.865,1069.62 976.877,1069.29 977.889,947.516 978.9,945.389 979.912,1002.98 980.924,1002.36 981.935,1095.41 982.947,1095.13 983.959,985.376 984.971,985.037 985.982,976.931 986.994,976.78 988.006,961.941 989.017,961.537 990.029,1027.15 991.041,1026.88 992.052,1017.79 993.064,1017.61 994.076,999.378 995.088,998.803 996.099,997.334 997.111,996.964 998.123,986.252 999.134,985.67 1000.15,967.67 1001.16,967.198 1002.17,1004.61 1003.18,1004.45 1004.19,1240.25 1005.2,1240.12 1006.22,1077.13 1007.23,1076.61 1008.24,1101.04 1009.25,1100.76 1010.26,1019.88 1011.27,1019.48 1012.29,994.989 1013.3,993.968 1014.31,1064.95 1015.32,1064.91 1016.33,1209.82 1017.34,1209.7 1018.36,986.482 1019.37,986.029 1020.38,1031.2 1021.39,1030.62 1022.4,1033 1023.42,1032.84 1024.43,1045.92 1025.44,1045.72 1026.45,1091.41 1027.46,1091.07 1028.47,1086.42 1029.49,1086.24 1030.5,1070.14 1031.51,1069.64 1032.52,1115.33 1033.53,1115.06 1034.54,1091.59 1035.56,1091.4 1036.57,1087.59 1037.58,1087.42 1038.59,1209.58 1039.6,1208.68 1040.61,1007.71 1041.63,1007.44 1042.64,1070.26 1043.65,1069.93 1044.66,1039.54 1045.67,1039.16 1046.68,1059.09 1047.7,1058.48 1048.71,1074.24 1049.72,1073.94 1050.73,1088.51 1051.74,1088.14 1052.75,1009.03 1053.77,1008.51 1054.78,1086.04 1055.79,1085.83 1056.8,1105.17 1057.81,1104.59 1058.82,1068.5 1059.84,1068.04 1060.85,1154.26 1061.86,1154.03 1062.87,1115.95 1063.88,1115.39 1064.89,1003.14 1065.91,1001.72 1066.92,1059.08 1067.93,1058.53 1068.94,1039.57 1069.95,1039.26 1070.96,1086.22 1071.98,1085.96 1072.99,1097.88 1074,1097.66 1075.01,1210.76 1076.02,1210.49 1077.04,1084.68 1078.05,1083.91 1079.06,1020.25 1080.07,1020.05 1081.08,1108.73 1082.09,1108.22 1083.11,1006.9 1084.12,1006.64 1085.13,1122.73 1086.14,1122.65 1087.15,1227.09 1088.16,1226.65 1089.18,1093.44 1090.19,1092.65 1091.2,1048.21 1092.21,1047.66 1093.22,1123.22 1094.23,1122.97 1095.25,1013.09 1096.26,1012.54 1097.27,1053.95 1098.28,1053.56 1099.29,994.225 1100.3,993.834 1101.32,934.355 1102.33,934.027 1103.34,1083.34 1104.35,1082.89 1105.36,1062.42 1106.37,1061.97 1107.39,1111.19 1108.4,1110.07 1109.41,978.445 1110.42,978.157 1111.43,1055.48 1112.44,1054.5 1113.46,1156.49 1114.47,1155.64 1115.48,1125.02 1116.49,1124.08 1117.5,1096.02 1118.51,1095.9 1119.53,998.644 1120.54,998.395 1121.55,1013.05 1122.56,1012.61 1123.57,1034.1 1124.58,1033.75 1125.6,1080.45 1126.61,1080.18 1127.62,1075.11 1128.63,1074.47 1129.64,1075.69 1130.66,1075.38 1131.67,1064.03 1132.68,1063.76 1133.69,1117.45 1134.7,1117.02 1135.71,1162.06 1136.73,1161.91 1137.74,1057.65 1138.75,1057.31 1139.76,1072.9 1140.77,1072.46 1141.78,1130.48 1142.8,1130.38 1143.81,1070.67 1144.82,1070.56 1145.83,1154.25 1146.84,1154.08 1147.85,1077.77 1148.87,1077.53 1149.88,1121.48 1150.89,1121.34 1151.9,1159.26 1152.91,1159.15 1153.92,1133.88 1154.94,1133.71 1155.95,1090.62 1156.96,1089.97 1157.97,1091.36 1158.98,1090.61 1159.99,1113.46 1161.01,1113.3 1162.02,1062.78 1163.03,1062.43 1164.04,1133.52 1165.05,1132.53 1166.06,1101.45 1167.08,1100.91 1168.09,1183.3 1169.1,1182.85 1170.11,1046.03 1171.12,1045.89 1172.13,1084.22 1173.15,1084 1174.16,1047.55 1175.17,1045.77 1176.18,1197.29 1177.19,1197.24 1178.2,1077.53 1179.22,1077.06 1180.23,1054.4 1181.24,1054.11 1182.25,1078.26 1183.26,1077.71 1184.28,1033.26 1185.29,1032.26 1186.3,1116.95 1187.31,1116.82 1188.32,1075.34 1189.33,1075.2 1190.35,1095.67 1191.36,1095.32 1192.37,1145.34 1193.38,1144.66 1194.39,1123.4 1195.4,1123.15 1196.42,1130.01 1197.43,1129.83 1198.44,1105.38 1199.45,1105.13 1200.46,1042.65 1201.47,1042.38 1202.49,1116.04 1203.5,1115.9 1204.51,1171.41 1205.52,1170.05 1206.53,1168.03 1207.54,1167.82 1208.56,1131.64 1209.57,1131.37 1210.58,1062.27 1211.59,1062.11 1212.6,1099.05 1213.61,1098.47 1214.63,1085.9 1215.64,1085.77 1216.65,1070.65 1217.66,1069.75 1218.67,1102.83 1219.68,1101.81 1220.7,1215.66 1221.71,1215.4 1222.72,1048.54 1223.73,1047.62 1224.74,1079.12 1225.75,1078.86 1226.77,1196.13 1227.78,1196.03 1228.79,1183.95 1229.8,1183.61 1230.81,1076.8 1231.82,1076.75 1232.84,1091.62 1233.85,1090.14 1234.86,1138.55 1235.87,1138.44 1236.88,1158.26 1237.9,1157.68 1238.91,1147.85 1239.92,1147.61 1240.93,1105.7 1241.94,1104.39 1242.95,1211.04 1243.97,1210.84 1244.98,1205.1 1245.99,1204.88 1247,1189.35 1248.01,1188.89 1249.02,1121.79 1250.04,1121.44 1251.05,1274.95 1252.06,1274.2 1253.07,1073.9 1254.08,1073.54 1255.09,1147.04 1256.11,1146.29 1257.12,1072.11 1258.13,1072.04 1259.14,1132.03 1260.15,1131.75 1261.16,1109.93 1262.18,1107.47 1263.19,1097.16 1264.2,1096.55 1265.21,1085.7 1266.22,1085.38 1267.23,1152.12 1268.25,1151.89 1269.26,1421.37 1270.27,1421.13 1271.28,1188.08 1272.29,1187.89 1273.3,1193.42 1274.32,1193.14 1275.33,1148.27 1276.34,1147.68 1277.35,1088.51 1278.36,1088.11 1279.37,1162.52 1280.39,1161.44 1281.4,1157.6 1282.41,1157.1 1283.42,1217 1284.43,1216.65 1285.44,1253.68 1286.46,1253.4 1287.47,1105.39 1288.48,1104.81 1289.49,1200.32 1290.5,1200.29 1291.52,1115.4 1292.53,1115.2 1293.54,1122.25 1294.55,1121.73 1295.56,1208.87 1296.57,1208.23 1297.59,1124.62 1298.6,1123.99 1299.61,1076.06 1300.62,1075.62 1301.63,1255.79 1302.64,1255.32 1303.66,1130 1304.67,1129.53 1305.68,1140.05 1306.69,1139.32 1307.7,1143.01 1308.71,1142.19 1309.73,1175.72 1310.74,1175.44 1311.75,1111.45 1312.76,1111.05 1313.77,1179.35 1314.78,1179.17 1315.8,1185.76 1316.81,1185.11 1317.82,1203.56 1318.83,1203.24 1319.84,1230.48 1320.85,1230.31 1321.87,1163.74 1322.88,1163.41 1323.89,1167.28 1324.9,1166.92 1325.91,1088.81 1326.92,1088.67 1327.94,1223.61 1328.95,1223.42 1329.96,1202.68 1330.97,1202.5 1331.98,1152.6 1332.99,1152.38 1334.01,1164.21 1335.02,1163.7 1336.03,1136.64 1337.04,1135.51 1338.05,1183.25 1339.06,1183.17 1340.08,1108.08 1341.09,1107.81 1342.1,1093.3 1343.11,1093.16 1344.12,1115.43 1345.14,1114.45 1346.15,1134.06 1347.16,1133.23 1348.17,1258.28 1349.18,1258.08 1350.19,1135.65 1351.21,1135.5 1352.22,1082.28 1353.23,1081.91 1354.24,1172.88 1355.25,1172.7 1356.26,1118.51 1357.28,1118.25 1358.29,1256.9 1359.3,1256.69 1360.31,1040.74 1361.32,1040.22 1362.33,1174.41 1363.35,1174.19 1364.36,1168.67 1365.37,1168.13 1366.38,1163.31 1367.39,1162.69 1368.4,1195.5 1369.42,1195.41 1370.43,1215.76 1371.44,1215.52 1372.45,1163.81 1373.46,1163.03 1374.47,1192.11 1375.49,1191.88 1376.5,1173.16 1377.51,1173 1378.52,1322.47 1379.53,1322.37 1380.54,1266.64 1381.56,1266.42 1382.57,1192.07 1383.58,1191.56 1384.59,1169.88 1385.6,1169.32 1386.61,1300.56 1387.63,1300.5 1388.64,1234.63 1389.65,1234.21 1390.66,1138.93 1391.67,1138.74 1392.68,1210.03 1393.7,1209.84 1394.71,1088.11 1395.72,1087.98 1396.73,1127.02 1397.74,1125.6 1398.76,1169.28 1399.77,1168.97 1400.78,1152.84 1401.79,1152.61 1402.8,1165.91 1403.81,1165.75 1404.83,1290.54 1405.84,1289.09 1406.85,1197.21 1407.86,1196.61 1408.87,1202.76 1409.88,1202.61 1410.9,1272.47 1411.91,1271.77 1412.92,1180.45 1413.93,1179.58 1414.94,1257.41 1415.95,1256.99 1416.97,1241.09 1417.98,1240.83 1418.99,1119.86 1420,1119.57 1421.01,1197.29 1422.02,1197.13 1423.04,1326.81 1424.05,1326.65 1425.06,1133.46 1426.07,1132.97 1427.08,1159.75 1428.09,1159.5 1429.11,1139.14 1430.12,1138.98 1431.13,1092.44 1432.14,1091.85 1433.15,1265.18 1434.16,1264.97 1435.18,1190.23 1436.19,1189.93 1437.2,1220.76 1438.21,1220.48 1439.22,1213.89 1440.23,1213.48 1441.25,1153.04 1442.26,1151.46 1443.27,1214.48 1444.28,1214.19 1445.29,1229.73 1446.3,1229.47 1447.32,1244.36 1448.33,1244.2 1449.34,1197.13 1450.35,1196.14 1451.36,1210.09 1452.38,1209.78 1453.39,1289.62 1454.4,1289.25 1455.41,1238.65 1456.42,1238.18 1457.43,1133.64 1458.45,1133.49 1459.46,1185.07 1460.47,1184.68 1461.48,1180.35 1462.49,1179.44 1463.5,1181.58 1464.52,1181.44 1465.53,1244.56 1466.54,1243.36 1467.55,1206.59 1468.56,1206.3 1469.57,1195.21 1470.59,1194.89 1471.6,1281.71 1472.61,1281.28 1473.62,1343.91 1474.63,1343.42 1475.64,1227.77 1476.66,1227.49 1477.67,1236.78 1478.68,1236.41 1479.69,1252.59 1480.7,1252.34 1481.71,1348.6 1482.73,1348.43 1483.74,1285.67 1484.75,1285.43 1485.76,1220.68 1486.77,1220.22 1487.78,1238.16 1488.8,1237.47 1489.81,1269.15 1490.82,1268.76 1491.83,1194.54 1492.84,1194.23 1493.85,1273.17 1494.87,1272.38 1495.88,1225.7 1496.89,1224.93 1497.9,1315.42 1498.91,1314.98 1499.92,1162.13 1500.94,1161.64 1501.95,1261.21 1502.96,1259.7 1503.97,1226.26 1504.98,1225.89 1506,1297.75 1507.01,1297.32 1508.02,1235.01 1509.03,1234.58 1510.04,1311.18 1511.05,1310.05 1512.07,1292.08 1513.08,1291.56 1514.09,1364.42 1515.1,1364.23 1516.11,1256.22 1517.12,1255.49 1518.14,1264.51 1519.15,1263.76 1520.16,1228.82 1521.17,1228.57 1522.18,1301.49 1523.19,1301.04 1524.21,1229.08 1525.22,1228.6 1526.23,1241.94 1527.24,1241.29 1528.25,1222.72 1529.26,1221.95 1530.28,1247.32 1531.29,1246.96 1532.3,1201.9 1533.31,1200.96 1534.32,1316 1535.33,1315.61 1536.35,1205.92 1537.36,1204.99 1538.37,1300.65 1539.38,1300.43 1540.39,1288.69 1541.4,1288.32 1542.42,1193.57 1543.43,1193.38 1544.44,1273.59 1545.45,1273.26 1546.46,1234.94 1547.47,1234.29 1548.49,1188.29 1549.5,1187.5 1550.51,1201.13 1551.52,1200.94 1552.53,1247.97 1553.54,1247.59 1554.56,1303.8 1555.57,1303.32 1556.58,1242.06 1557.59,1241.83 1558.6,1252.85 1559.62,1252.39 1560.63,1147.99 1561.64,1147.8 1562.65,1268.61 1563.66,1267.98 1564.67,1318.17 1565.69,1317.4 1566.7,1238.63 1567.71,1238.43 1568.72,1224.27 1569.73,1223.91 1570.74,1224.94 1571.76,1224.45 1572.77,1196.73 1573.78,1196.25 1574.79,1212.14 1575.8,1211.91 1576.81,1245.54 1577.83,1245.22 1578.84,1203.11 1579.85,1202.89 1580.86,1274.15 1581.87,1274 1582.88,1300.55 1583.9,1299.74 1584.91,1245.68 1585.92,1245.26 1586.93,1301.76 1587.94,1301.28 1588.95,1192.11 1589.97,1191.94 1590.98,1241.13 1591.99,1240.96 1593,1295.74 1594.01,1295.03 1595.02,1190.6 1596.04,1190.17 1597.05,1289.36 1598.06,1289.22 1599.07,1222.67 1600.08,1221.77 1601.09,1269.84 1602.11,1269.61 1603.12,1188.19 1604.13,1187.82 1605.14,1364.45 1606.15,1364.12 1607.16,1308.48 1608.18,1308.14 1609.19,1398.76 1610.2,1398.46 1611.21,1237.72 1612.22,1236.98 1613.24,1281.58 1614.25,1279.86 1615.26,1313.19 1616.27,1312.73 1617.28,1237.7 1618.29,1236.31 1619.31,1253.26 1620.32,1252.92 1621.33,1262.94 1622.34,1262.1 1623.35,1229.58 1624.36,1229.23 1625.38,1214.45 1626.39,1214.26 1627.4,1246.53 1628.41,1245.94 1629.42,1172.85 1630.43,1172.57 1631.45,1195.78 1632.46,1195.34 1633.47,1247.16 1634.48,1246.14 1635.49,1248.54 1636.5,1248.4 1637.52,1230.89 1638.53,1230.31 1639.54,1310.57 1640.55,1310.09 1641.56,1278.89 1642.57,1278.55 1643.59,1304.72 1644.6,1304.35 1645.61,1295.84 1646.62,1295.71 1647.63,1232.86 1648.64,1231.85 1649.66,1232.41 1650.67,1232.02 1651.68,1307.22 1652.69,1306.38 1653.7,1269.68 1654.71,1267.97 1655.73,1251.71 1656.74,1251.54 1657.75,1394.39 1658.76,1394.05 1659.77,1314.37 1660.78,1313.95 1661.8,1227.84 1662.81,1226.09 1663.82,1256.28 1664.83,1254.78 1665.84,1277.99 1666.86,1276.7 1667.87,1181.09 1668.88,1180.22 1669.89,1239.69 1670.9,1239.52 1671.91,1392.23 1672.93,1391.41 1673.94,1242.6 1674.95,1242 1675.96,1282.5 1676.97,1281.34 1677.98,1261.15 1679,1260.95 1680.01,1339.44 1681.02,1339.14 1682.03,1297.08 1683.04,1296.81 1684.05,1321.73 1685.07,1321.56 1686.08,1246.46 1687.09,1246.23 1688.1,1305.84 1689.11,1305.4 1690.12,1370.82 1691.14,1370.3 1692.15,1294.53 1693.16,1293.79 1694.17,1233.11 1695.18,1232.98 1696.19,1241.55 1697.21,1241.23 1698.22,1278.59 1699.23,1278.13 1700.24,1191.99 1701.25,1191.49 1702.26,1268.13 1703.28,1267.41 1704.29,1375.91 1705.3,1375.44 1706.31,1263.44 1707.32,1263.29 1708.33,1306.62 1709.35,1306.02 1710.36,1286.32 1711.37,1285.48 1712.38,1245.23 1713.39,1244.84 1714.4,1197.51 1715.42,1196.61 1716.43,1265.89 1717.44,1265.55 1718.45,1310.79 1719.46,1310.66 1720.47,1245.31 1721.49,1244.69 1722.5,1222.82 1723.51,1222.17 1724.52,1262.4 1725.53,1261.87 1726.55,1243.35 1727.56,1242.82 1728.57,1295.09 1729.58,1294.51 1730.59,1243.89 1731.6,1243.58 1732.62,1258.4 1733.63,1257.75 1734.64,1191.23 1735.65,1190.9 1736.66,1290.96 1737.67,1290.71 1738.69,1323.8 1739.7,1323.46 1740.71,1255.87 1741.72,1255.63 1742.73,1214.28 1743.74,1213.41 1744.76,1322.31 1745.77,1322.09 1746.78,1321.75 1747.79,1321.55 1748.8,1236.69 1749.81,1236.37 1750.83,1311.12 1751.84,1310.93 1752.85,1264.89 1753.86,1264.09 1754.87,1176.11 1755.88,1175.83 1756.9,1159.35 1757.91,1157.82 1758.92,1184.65 1759.93,1184.38 1760.94,1342.09 1761.95,1341.57 1762.97,1322.67 1763.98,1322.14 1764.99,1286.53 1766,1286.21 1767.01,1226.45 1768.02,1225.94 1769.04,1238.17 1770.05,1237.34 1771.06,1213.51 1772.07,1212.57 1773.08,1230.23 1774.09,1229.79 1775.11,1280 1776.12,1279.49 1777.13,1340.95 1778.14,1340.27 1779.15,1277.68 1780.17,1276.83 1781.18,1231.84 1782.19,1231.54 1783.2,1303.68 1784.21,1303.07 1785.22,1335.66 1786.24,1335.09 1787.25,1312.71 1788.26,1311.33 1789.27,1267.7 1790.28,1267.47 1791.29,1312.61 1792.31,1312.29 1793.32,1279.79 1794.33,1279.57 1795.34,1313.65 1796.35,1312.91 1797.36,1221.86 1798.38,1221.19 1799.39,1346.01 1800.4,1345.64 1801.41,1276.13 1802.42,1275.62 1803.43,1268.65 1804.45,1268.22 1805.46,1254.69 1806.47,1253.81 1807.48,1211.43 1808.49,1211.23 1809.5,1246.34 1810.52,1245.98 1811.53,1236.04 1812.54,1235.23 1813.55,1310.34 1814.56,1310.2 1815.57,1306.88 1816.59,1306.69 1817.6,1271.65 1818.61,1271.48 1819.62,1271.39 1820.63,1271.2 1821.64,1291.41 1822.66,1290.88 1823.67,1221.59 1824.68,1221.28 1825.69,1337.84 1826.7,1337.31 1827.71,1188.86 1828.73,1188.59 1829.74,1263.53 1830.75,1263.22 1831.76,1276.73 1832.77,1276.16 1833.79,1284.11 1834.8,1283.81 1835.81,1253.11 1836.82,1252.94 1837.83,1292.46 1838.84,1292.29 1839.86,1290.54 1840.87,1290.25 1841.88,1391.08 1842.89,1389.75 1843.9,1303.58 1844.91,1303.34 1845.93,1296.74 1846.94,1296.53 1847.95,1287.77 1848.96,1287.61 1849.97,1403.97 1850.98,1403.55 1852,1311 1853.01,1310.6 1854.02,1248.53 1855.03,1247.99 1856.04,1292.8 1857.05,1292.57 1858.07,1299.91 1859.08,1299.67 1860.09,1330.86 1861.1,1330.35 1862.11,1346.64 1863.12,1346.43 1864.14,1323.51 1865.15,1323.29 1866.16,1346.21 1867.17,1345.45 1868.18,1244.37 1869.19,1243.81 1870.21,1261.49 1871.22,1261.17 1872.23,1278.45 1873.24,1277.91 1874.25,1244.46 1875.26,1244.12 1876.28,1283.44 1877.29,1283.05 1878.3,1265.55 1879.31,1265 1880.32,1285.95 1881.33,1285.87 1882.35,1220.57 1883.36,1220.34 1884.37,1294.77 1885.38,1294.16 1886.39,1390.52 1887.41,1389.23 1888.42,1316.37 1889.43,1315.83 1890.44,1251.9 1891.45,1251.7 1892.46,1290.22 1893.48,1289.8 1894.49,1317.66 1895.5,1316.9 1896.51,1289.36 1897.52,1288.17 1898.53,1263.08 1899.55,1262.92 1900.56,1254.46 1901.57,1254.17 1902.58,1289.74 1903.59,1289.62 1904.6,1265.97 1905.62,1265.64 1906.63,1250.01 1907.64,1249.79 1908.65,1385.87 1909.66,1385.52 1910.67,1340.49 1911.69,1340.36 1912.7,1251.85 1913.71,1251.55 1914.72,1284.92 1915.73,1284.47 1916.74,1310.06 1917.76,1309.72 1918.77,1276.52 1919.78,1276.18 1920.79,1233.52 1921.8,1232.62 1922.81,1294.69 1923.83,1294.28 1924.84,1254.22 1925.85,1253.98 1926.86,1308.68 1927.87,1308.28 1928.88,1315.38 1929.9,1315.11 1930.91,1312.64 1931.92,1311.79 1932.93,1286.08 1933.94,1285.89 1934.95,1274.25 1935.97,1274.05 1936.98,1295.12 1937.99,1294.72 1939,1222.51 1940.01,1221.2 1941.03,1255.32 1942.04,1255.09 1943.05,1249.45 1944.06,1249.1 1945.07,1277.78 1946.08,1277.65 1947.1,1288.76 1948.11,1288.4 1949.12,1281.46 1950.13,1281.14 1951.14,1376.93 1952.15,1376.23 1953.17,1291.58 1954.18,1291.41 1955.19,1280.07 1956.2,1279.02 1957.21,1293.78 1958.22,1293.51 1959.24,1262.23 1960.25,1261.51 1961.26,1284.08 1962.27,1283.48 1963.28,1398 1964.29,1397.19 1965.31,1249.54 1966.32,1249.21 1967.33,1293.47 1968.34,1293.31 1969.35,1323.23 1970.36,1323.06 1971.38,1263.05 1972.39,1262.58 1973.4,1241.95 1974.41,1241.08 1975.42,1316.68 1976.43,1315.94 1977.45,1281.03 1978.46,1280.82 1979.47,1283.7 1980.48,1282.55 1981.49,1300.13 1982.5,1299.17 1983.52,1312.12 1984.53,1310.89 1985.54,1299.46 1986.55,1299.01 1987.56,1302.72 1988.57,1302.56 1989.59,1285.7 1990.6,1285.23 1991.61,1285.55 1992.62,1285.19 1993.63,1344.08 1994.65,1343.1 1995.66,1345.14 1996.67,1344.71 1997.68,1389.01 1998.69,1387.79 1999.7,1201.09 2000.72,1200.92 2001.73,1359.62 2002.74,1358.66 2003.75,1296.87 2004.76,1296.53 2005.77,1265.28 2006.79,1265.02 2007.8,1309.9 2008.81,1309.29 2009.82,1339.49 2010.83,1339.05 2011.84,1291.8 2012.86,1290.62 2013.87,1343.86 2014.88,1343.61 2015.89,1288.55 2016.9,1288.2 2017.91,1318.06 2018.93,1317.8 2019.94,1263.83 2020.95,1263.5 2021.96,1258.46 2022.97,1258.04 2023.98,1318.48 2025,1318.21 2026.01,1285.07 2027.02,1284.79 2028.03,1321.68 2029.04,1321.34 2030.05,1347.83 2031.07,1347.46 2032.08,1295.51 2033.09,1293.91 2034.1,1284.07 2035.11,1283.78 2036.12,1302.86 2037.14,1302.44 2038.15,1291.55 2039.16,1291.1 2040.17,1319.46 2041.18,1318.31 2042.19,1292.17 2043.21,1290.74 2044.22,1312.96 2045.23,1312.11 2046.24,1291.61 2047.25,1291.51 2048.27,1334.12 2049.28,1333.36 2050.29,1313.37 2051.3,1313.06 2052.31,1309.73 2053.32,1309.55 2054.34,1282.18 2055.35,1281.92 2056.36,1185.51 2057.37,1185.26 2058.38,1263.09 2059.39,1262.88 2060.41,1248.47 2061.42,1247.78 2062.43,1268.99 2063.44,1268.64 2064.45,1377.05 2065.46,1376.56 2066.48,1379.46 2067.49,1379.31 2068.5,1315.38 2069.51,1314.87 2070.52,1313.38 2071.53,1312.96 2072.55,1290.56 2073.56,1290.23 2074.57,1288.57 2075.58,1288.32 2076.59,1282.53 2077.6,1282.28 2078.62,1291.36 2079.63,1291.04 2080.64,1318.43 2081.65,1317.49 2082.66,1329.73 2083.67,1329.58 2084.69,1256.68 2085.7,1256.45 2086.71,1289.98 2087.72,1289.23 2088.73,1326.65 2089.74,1326.08 2090.76,1324.79 2091.77,1324.48 2092.78,1275.38 2093.79,1275.19 2094.8,1328.99 2095.81,1328.53 2096.83,1285.98 2097.84,1285.66 2098.85,1341.69 2099.86,1341.49 2100.87,1320.38 2101.89,1320.27 2102.9,1356.15 2103.91,1355.36 2104.92,1356.55 2105.93,1356.13 2106.94,1263.84 2107.96,1263.46 2108.97,1365.39 2109.98,1365.03 2110.99,1298.08 2112,1297.83 2113.01,1328.48 2114.03,1328.34 2115.04,1304.79 2116.05,1304.56 2117.06,1294.15 2118.07,1293.88 2119.08,1294.61 2120.1,1294.18 2121.11,1244.57 2122.12,1244.43 2123.13,1283.12 2124.14,1282.51 2125.15,1328 2126.17,1327.74 2127.18,1229.96 2128.19,1229.23 2129.2,1283.69 2130.21,1283.33 2131.22,1341.24 2132.24,1340.79 2133.25,1306.27 2134.26,1305.82 2135.27,1264.46 2136.28,1263.86 2137.29,1298.44 2138.31,1298.2 2139.32,1263.83 2140.33,1262.98 2141.34,1320.4 2142.35,1319.7 2143.36,1279.47 2144.38,1279.25 2145.39,1322.99 2146.4,1322.63 2147.41,1289.65 2148.42,1288.9 2149.43,1351.41 2150.45,1349.87 2151.46,1358.72 2152.47,1358.34 2153.48,1300.63 2154.49,1300.25 2155.51,1315.13 2156.52,1314.63 2157.53,1445.72 2158.54,1444.81 2159.55,1297.68 2160.56,1297.47 2161.58,1349.2 2162.59,1348.97 2163.6,1307.64 2164.61,1307.22 2165.62,1291.83 2166.63,1291.64 2167.65,1285.96 2168.66,1285.65 2169.67,1305.48 2170.68,1305.22 2171.69,1379.02 2172.7,1378.71 2173.72,1307.78 2174.73,1306.95 2175.74,1305.96 2176.75,1305.24 2177.76,1272.17 2178.77,1271.79 2179.79,1283.32 2180.8,1282.81 2181.81,1337.41 2182.82,1337.24 2183.83,1298.27 2184.84,1297.2 2185.86,1301.86 2186.87,1300.66 2187.88,1318.18 2188.89,1317.78 2189.9,1319.09 2190.91,1318.79 2191.93,1306.73 2192.94,1306.02 2193.95,1257.73 2194.96,1257.15 2195.97,1319.44 2196.98,1319.05 2198,1344.83 2199.01,1344.62 2200.02,1292.41 2201.03,1291.77 2202.04,1341.46 2203.05,1341.24 2204.07,1256.6 2205.08,1256.33 2206.09,1301.24 2207.1,1300.65 2208.11,1344.25 2209.13,1343 2210.14,1390.54 2211.15,1390.36 2212.16,1330.78 2213.17,1330.54 2214.18,1269.63 2215.2,1269.3 2216.21,1380.98 2217.22,1379.54 2218.23,1261.93 2219.24,1261.55 2220.25,1320.59 2221.27,1320 2222.28,1299.79 2223.29,1298.86 2224.3,1351.8 2225.31,1351.13 2226.32,1324.34 2227.34,1323.75 2228.35,1263.92 2229.36,1263.59 2230.37,1284.77 2231.38,1283.98 2232.39,1323.14 2233.41,1322.85 2234.42,1295.55 2235.43,1295.42 2236.44,1343.55 2237.45,1342.97 2238.46,1322.66 2239.48,1322.23 2240.49,1329.63 2241.5,1329.51 2242.51,1265.36 2243.52,1264.64 2244.53,1236.38 2245.55,1236.03 2246.56,1323.73 2247.57,1323.32 2248.58,1302.97 2249.59,1302.72 2250.6,1332.55 2251.62,1332.1 2252.63,1331.1 2253.64,1330.96 2254.65,1291.9 2255.66,1291.33 2256.67,1237.52 2257.69,1237.33 2258.7,1326.82 2259.71,1326.69 2260.72,1270.38 2261.73,1270.31 2262.75,1301.92 2263.76,1301.72 2264.77,1299.57 2265.78,1299.12 2266.79,1353.96 2267.8,1353.55 2268.82,1332.26 2269.83,1331.75 2270.84,1332.45 2271.85,1331.75 2272.86,1325.47 2273.87,1325.15 2274.89,1245.22 2275.9,1244.94 2276.91,1309.59 2277.92,1309.1 2278.93,1347.19 2279.94,1346.89 2280.96,1243.33 2281.97,1242.96 2282.98,1249.35 2283.99,1248.78 2285,1249.44 2286.01,1249.28 2287.03,1281.54 2288.04,1280.96 2289.05,1297.27 2290.06,1296.31 2291.07,1301.29 2292.08,1301.16 "/>
<path clip-path="url(#clip410)" d="M2014.5 198.898 L2281.3 198.898 L2281.3 95.2176 L2014.5 95.2176  Z" fill="#ffffff" fill-rule="evenodd" fill-opacity="1"/>
<polyline clip-path="url(#clip410)" style="stroke:#000000; stroke-linecap:round; stroke-linejoin:round; stroke-width:4; stroke-opacity:1; fill:none" points="2014.5,198.898 2281.3,198.898 2281.3,95.2176 2014.5,95.2176 2014.5,198.898 "/>
<polyline clip-path="url(#clip410)" style="stroke:#009af9; stroke-linecap:round; stroke-linejoin:round; stroke-width:4; stroke-opacity:1; fill:none" points="2038.31,147.058 2181.23,147.058 "/>
<path clip-path="url(#clip410)" d="M2218.89 166.745 Q2217.09 171.375 2215.37 172.787 Q2213.66 174.199 2210.79 174.199 L2207.39 174.199 L2207.39 170.634 L2209.89 170.634 Q2211.65 170.634 2212.62 169.8 Q2213.59 168.967 2214.77 165.865 L2215.53 163.921 L2205.05 138.412 L2209.56 138.412 L2217.66 158.689 L2225.77 138.412 L2230.28 138.412 L2218.89 166.745 Z" fill="#000000" fill-rule="nonzero" fill-opacity="1" /><path clip-path="url(#clip410)" d="M2237.57 160.402 L2245.21 160.402 L2245.21 134.037 L2236.9 135.703 L2236.9 131.444 L2245.16 129.778 L2249.84 129.778 L2249.84 160.402 L2257.48 160.402 L2257.48 164.338 L2237.57 164.338 L2237.57 160.402 Z" fill="#000000" fill-rule="nonzero" fill-opacity="1" /></svg>
