<?xml version="1.0" encoding="utf-8"?>
<svg xmlns="http://www.w3.org/2000/svg" xmlns:xlink="http://www.w3.org/1999/xlink" width="600" height="400" viewBox="0 0 2400 1600">
<defs>
  <clipPath id="clip110">
    <rect x="0" y="0" width="2400" height="1600"/>
  </clipPath>
</defs>
<path clip-path="url(#clip110)" d="M0 1600 L2400 1600 L2400 0 L0 0  Z" fill="#ffffff" fill-rule="evenodd" fill-opacity="1"/>
<defs>
  <clipPath id="clip111">
    <rect x="480" y="0" width="1681" height="1600"/>
  </clipPath>
</defs>
<path clip-path="url(#clip110)" d="M156.598 1486.45 L2352.76 1486.45 L2352.76 47.2441 L156.598 47.2441  Z" fill="#ffffff" fill-rule="evenodd" fill-opacity="1"/>
<defs>
  <clipPath id="clip112">
    <rect x="156" y="47" width="2197" height="1440"/>
  </clipPath>
</defs>
<polyline clip-path="url(#clip112)" style="stroke:#000000; stroke-linecap:round; stroke-linejoin:round; stroke-width:2; stroke-opacity:0.1; fill:none" points="218.754,1486.45 218.754,47.2441 "/>
<polyline clip-path="url(#clip112)" style="stroke:#000000; stroke-linecap:round; stroke-linejoin:round; stroke-width:2; stroke-opacity:0.1; fill:none" points="737.234,1486.45 737.234,47.2441 "/>
<polyline clip-path="url(#clip112)" style="stroke:#000000; stroke-linecap:round; stroke-linejoin:round; stroke-width:2; stroke-opacity:0.1; fill:none" points="1255.71,1486.45 1255.71,47.2441 "/>
<polyline clip-path="url(#clip112)" style="stroke:#000000; stroke-linecap:round; stroke-linejoin:round; stroke-width:2; stroke-opacity:0.1; fill:none" points="1774.19,1486.45 1774.19,47.2441 "/>
<polyline clip-path="url(#clip112)" style="stroke:#000000; stroke-linecap:round; stroke-linejoin:round; stroke-width:2; stroke-opacity:0.1; fill:none" points="2292.67,1486.45 2292.67,47.2441 "/>
<polyline clip-path="url(#clip110)" style="stroke:#000000; stroke-linecap:round; stroke-linejoin:round; stroke-width:4; stroke-opacity:1; fill:none" points="156.598,1486.45 2352.76,1486.45 "/>
<polyline clip-path="url(#clip110)" style="stroke:#000000; stroke-linecap:round; stroke-linejoin:round; stroke-width:4; stroke-opacity:1; fill:none" points="218.754,1486.45 218.754,1467.55 "/>
<polyline clip-path="url(#clip110)" style="stroke:#000000; stroke-linecap:round; stroke-linejoin:round; stroke-width:4; stroke-opacity:1; fill:none" points="737.234,1486.45 737.234,1467.55 "/>
<polyline clip-path="url(#clip110)" style="stroke:#000000; stroke-linecap:round; stroke-linejoin:round; stroke-width:4; stroke-opacity:1; fill:none" points="1255.71,1486.45 1255.71,1467.55 "/>
<polyline clip-path="url(#clip110)" style="stroke:#000000; stroke-linecap:round; stroke-linejoin:round; stroke-width:4; stroke-opacity:1; fill:none" points="1774.19,1486.45 1774.19,1467.55 "/>
<polyline clip-path="url(#clip110)" style="stroke:#000000; stroke-linecap:round; stroke-linejoin:round; stroke-width:4; stroke-opacity:1; fill:none" points="2292.67,1486.45 2292.67,1467.55 "/>
<path clip-path="url(#clip110)" d="M218.754 1517.37 Q215.143 1517.37 213.314 1520.93 Q211.508 1524.47 211.508 1531.6 Q211.508 1538.71 213.314 1542.27 Q215.143 1545.82 218.754 1545.82 Q222.388 1545.82 224.193 1542.27 Q226.022 1538.71 226.022 1531.6 Q226.022 1524.47 224.193 1520.93 Q222.388 1517.37 218.754 1517.37 M218.754 1513.66 Q224.564 1513.66 227.619 1518.27 Q230.698 1522.85 230.698 1531.6 Q230.698 1540.33 227.619 1544.94 Q224.564 1549.52 218.754 1549.52 Q212.943 1549.52 209.865 1544.94 Q206.809 1540.33 206.809 1531.6 Q206.809 1522.85 209.865 1518.27 Q212.943 1513.66 218.754 1513.66 Z" fill="#000000" fill-rule="nonzero" fill-opacity="1" /><path clip-path="url(#clip110)" d="M700.926 1544.91 L717.246 1544.91 L717.246 1548.85 L695.301 1548.85 L695.301 1544.91 Q697.963 1542.16 702.547 1537.53 Q707.153 1532.88 708.334 1531.53 Q710.579 1529.01 711.459 1527.27 Q712.361 1525.51 712.361 1523.82 Q712.361 1521.07 710.417 1519.33 Q708.496 1517.6 705.394 1517.6 Q703.195 1517.6 700.741 1518.36 Q698.31 1519.13 695.533 1520.68 L695.533 1515.95 Q698.357 1514.82 700.81 1514.24 Q703.264 1513.66 705.301 1513.66 Q710.671 1513.66 713.866 1516.35 Q717.06 1519.03 717.06 1523.52 Q717.06 1525.65 716.25 1527.57 Q715.463 1529.47 713.357 1532.07 Q712.778 1532.74 709.676 1535.95 Q706.574 1539.15 700.926 1544.91 Z" fill="#000000" fill-rule="nonzero" fill-opacity="1" /><path clip-path="url(#clip110)" d="M727.107 1514.29 L745.463 1514.29 L745.463 1518.22 L731.389 1518.22 L731.389 1526.7 Q732.407 1526.35 733.426 1526.19 Q734.444 1526 735.463 1526 Q741.25 1526 744.63 1529.17 Q748.009 1532.34 748.009 1537.76 Q748.009 1543.34 744.537 1546.44 Q741.065 1549.52 734.745 1549.52 Q732.57 1549.52 730.301 1549.15 Q728.056 1548.78 725.648 1548.04 L725.648 1543.34 Q727.732 1544.47 729.954 1545.03 Q732.176 1545.58 734.653 1545.58 Q738.657 1545.58 740.995 1543.48 Q743.333 1541.37 743.333 1537.76 Q743.333 1534.15 740.995 1532.04 Q738.657 1529.94 734.653 1529.94 Q732.778 1529.94 730.903 1530.35 Q729.051 1530.77 727.107 1531.65 L727.107 1514.29 Z" fill="#000000" fill-rule="nonzero" fill-opacity="1" /><path clip-path="url(#clip110)" d="M767.222 1517.37 Q763.611 1517.37 761.782 1520.93 Q759.977 1524.47 759.977 1531.6 Q759.977 1538.71 761.782 1542.27 Q763.611 1545.82 767.222 1545.82 Q770.856 1545.82 772.662 1542.27 Q774.491 1538.71 774.491 1531.6 Q774.491 1524.47 772.662 1520.93 Q770.856 1517.37 767.222 1517.37 M767.222 1513.66 Q773.032 1513.66 776.088 1518.27 Q779.166 1522.85 779.166 1531.6 Q779.166 1540.33 776.088 1544.94 Q773.032 1549.52 767.222 1549.52 Q761.412 1549.52 758.333 1544.94 Q755.278 1540.33 755.278 1531.6 Q755.278 1522.85 758.333 1518.27 Q761.412 1513.66 767.222 1513.66 Z" fill="#000000" fill-rule="nonzero" fill-opacity="1" /><path clip-path="url(#clip110)" d="M1215.33 1514.29 L1233.69 1514.29 L1233.69 1518.22 L1219.61 1518.22 L1219.61 1526.7 Q1220.63 1526.35 1221.65 1526.19 Q1222.67 1526 1223.69 1526 Q1229.48 1526 1232.86 1529.17 Q1236.23 1532.34 1236.23 1537.76 Q1236.23 1543.34 1232.76 1546.44 Q1229.29 1549.52 1222.97 1549.52 Q1220.8 1549.52 1218.53 1549.15 Q1216.28 1548.78 1213.87 1548.04 L1213.87 1543.34 Q1215.96 1544.47 1218.18 1545.03 Q1220.4 1545.58 1222.88 1545.58 Q1226.88 1545.58 1229.22 1543.48 Q1231.56 1541.37 1231.56 1537.76 Q1231.56 1534.15 1229.22 1532.04 Q1226.88 1529.94 1222.88 1529.94 Q1221 1529.94 1219.13 1530.35 Q1217.28 1530.77 1215.33 1531.65 L1215.33 1514.29 Z" fill="#000000" fill-rule="nonzero" fill-opacity="1" /><path clip-path="url(#clip110)" d="M1255.45 1517.37 Q1251.84 1517.37 1250.01 1520.93 Q1248.2 1524.47 1248.2 1531.6 Q1248.2 1538.71 1250.01 1542.27 Q1251.84 1545.82 1255.45 1545.82 Q1259.08 1545.82 1260.89 1542.27 Q1262.72 1538.71 1262.72 1531.6 Q1262.72 1524.47 1260.89 1520.93 Q1259.08 1517.37 1255.45 1517.37 M1255.45 1513.66 Q1261.26 1513.66 1264.31 1518.27 Q1267.39 1522.85 1267.39 1531.6 Q1267.39 1540.33 1264.31 1544.94 Q1261.26 1549.52 1255.45 1549.52 Q1249.64 1549.52 1246.56 1544.94 Q1243.5 1540.33 1243.5 1531.6 Q1243.5 1522.85 1246.56 1518.27 Q1249.64 1513.66 1255.45 1513.66 Z" fill="#000000" fill-rule="nonzero" fill-opacity="1" /><path clip-path="url(#clip110)" d="M1285.61 1517.37 Q1282 1517.37 1280.17 1520.93 Q1278.36 1524.47 1278.36 1531.6 Q1278.36 1538.71 1280.17 1542.27 Q1282 1545.82 1285.61 1545.82 Q1289.24 1545.82 1291.05 1542.27 Q1292.88 1538.71 1292.88 1531.6 Q1292.88 1524.47 1291.05 1520.93 Q1289.24 1517.37 1285.61 1517.37 M1285.61 1513.66 Q1291.42 1513.66 1294.48 1518.27 Q1297.55 1522.85 1297.55 1531.6 Q1297.55 1540.33 1294.48 1544.94 Q1291.42 1549.52 1285.61 1549.52 Q1279.8 1549.52 1276.72 1544.94 Q1273.67 1540.33 1273.67 1531.6 Q1273.67 1522.85 1276.72 1518.27 Q1279.8 1513.66 1285.61 1513.66 Z" fill="#000000" fill-rule="nonzero" fill-opacity="1" /><path clip-path="url(#clip110)" d="M1732.47 1514.29 L1754.69 1514.29 L1754.69 1516.28 L1742.15 1548.85 L1737.26 1548.85 L1749.07 1518.22 L1732.47 1518.22 L1732.47 1514.29 Z" fill="#000000" fill-rule="nonzero" fill-opacity="1" /><path clip-path="url(#clip110)" d="M1763.86 1514.29 L1782.22 1514.29 L1782.22 1518.22 L1768.14 1518.22 L1768.14 1526.7 Q1769.16 1526.35 1770.18 1526.19 Q1771.2 1526 1772.22 1526 Q1778 1526 1781.38 1529.17 Q1784.76 1532.34 1784.76 1537.76 Q1784.76 1543.34 1781.29 1546.44 Q1777.82 1549.52 1771.5 1549.52 Q1769.32 1549.52 1767.05 1549.15 Q1764.81 1548.78 1762.4 1548.04 L1762.4 1543.34 Q1764.48 1544.47 1766.71 1545.03 Q1768.93 1545.58 1771.4 1545.58 Q1775.41 1545.58 1777.75 1543.48 Q1780.09 1541.37 1780.09 1537.76 Q1780.09 1534.15 1777.75 1532.04 Q1775.41 1529.94 1771.4 1529.94 Q1769.53 1529.94 1767.65 1530.35 Q1765.8 1530.77 1763.86 1531.65 L1763.86 1514.29 Z" fill="#000000" fill-rule="nonzero" fill-opacity="1" /><path clip-path="url(#clip110)" d="M1803.97 1517.37 Q1800.36 1517.37 1798.53 1520.93 Q1796.73 1524.47 1796.73 1531.6 Q1796.73 1538.71 1798.53 1542.27 Q1800.36 1545.82 1803.97 1545.82 Q1807.61 1545.82 1809.41 1542.27 Q1811.24 1538.71 1811.24 1531.6 Q1811.24 1524.47 1809.41 1520.93 Q1807.61 1517.37 1803.97 1517.37 M1803.97 1513.66 Q1809.78 1513.66 1812.84 1518.27 Q1815.92 1522.85 1815.92 1531.6 Q1815.92 1540.33 1812.84 1544.94 Q1809.78 1549.52 1803.97 1549.52 Q1798.16 1549.52 1795.09 1544.94 Q1792.03 1540.33 1792.03 1531.6 Q1792.03 1522.85 1795.09 1518.27 Q1798.16 1513.66 1803.97 1513.66 Z" fill="#000000" fill-rule="nonzero" fill-opacity="1" /><path clip-path="url(#clip110)" d="M2237.2 1544.91 L2244.84 1544.91 L2244.84 1518.55 L2236.53 1520.21 L2236.53 1515.95 L2244.79 1514.29 L2249.47 1514.29 L2249.47 1544.91 L2257.11 1544.91 L2257.11 1548.85 L2237.2 1548.85 L2237.2 1544.91 Z" fill="#000000" fill-rule="nonzero" fill-opacity="1" /><path clip-path="url(#clip110)" d="M2276.55 1517.37 Q2272.94 1517.37 2271.11 1520.93 Q2269.31 1524.47 2269.31 1531.6 Q2269.31 1538.71 2271.11 1542.27 Q2272.94 1545.82 2276.55 1545.82 Q2280.19 1545.82 2281.99 1542.27 Q2283.82 1538.71 2283.82 1531.6 Q2283.82 1524.47 2281.99 1520.93 Q2280.19 1517.37 2276.55 1517.37 M2276.55 1513.66 Q2282.36 1513.66 2285.42 1518.27 Q2288.5 1522.85 2288.5 1531.6 Q2288.5 1540.33 2285.42 1544.94 Q2282.36 1549.52 2276.55 1549.52 Q2270.74 1549.52 2267.66 1544.94 Q2264.61 1540.33 2264.61 1531.6 Q2264.61 1522.85 2267.66 1518.27 Q2270.74 1513.66 2276.55 1513.66 Z" fill="#000000" fill-rule="nonzero" fill-opacity="1" /><path clip-path="url(#clip110)" d="M2306.71 1517.37 Q2303.1 1517.37 2301.27 1520.93 Q2299.47 1524.47 2299.47 1531.6 Q2299.47 1538.71 2301.27 1542.27 Q2303.1 1545.82 2306.71 1545.82 Q2310.35 1545.82 2312.15 1542.27 Q2313.98 1538.71 2313.98 1531.6 Q2313.98 1524.47 2312.15 1520.93 Q2310.35 1517.37 2306.71 1517.37 M2306.71 1513.66 Q2312.52 1513.66 2315.58 1518.27 Q2318.66 1522.85 2318.66 1531.6 Q2318.66 1540.33 2315.58 1544.94 Q2312.52 1549.52 2306.71 1549.52 Q2300.9 1549.52 2297.82 1544.94 Q2294.77 1540.33 2294.77 1531.6 Q2294.77 1522.85 2297.82 1518.27 Q2300.9 1513.66 2306.71 1513.66 Z" fill="#000000" fill-rule="nonzero" fill-opacity="1" /><path clip-path="url(#clip110)" d="M2336.88 1517.37 Q2333.26 1517.37 2331.44 1520.93 Q2329.63 1524.47 2329.63 1531.6 Q2329.63 1538.71 2331.44 1542.27 Q2333.26 1545.82 2336.88 1545.82 Q2340.51 1545.82 2342.32 1542.27 Q2344.14 1538.71 2344.14 1531.6 Q2344.14 1524.47 2342.32 1520.93 Q2340.51 1517.37 2336.88 1517.37 M2336.88 1513.66 Q2342.69 1513.66 2345.74 1518.27 Q2348.82 1522.85 2348.82 1531.6 Q2348.82 1540.33 2345.74 1544.94 Q2342.69 1549.52 2336.88 1549.52 Q2331.07 1549.52 2327.99 1544.94 Q2324.93 1540.33 2324.93 1531.6 Q2324.93 1522.85 2327.99 1518.27 Q2331.07 1513.66 2336.88 1513.66 Z" fill="#000000" fill-rule="nonzero" fill-opacity="1" /><polyline clip-path="url(#clip112)" style="stroke:#000000; stroke-linecap:round; stroke-linejoin:round; stroke-width:2; stroke-opacity:0.1; fill:none" points="156.598,1303.86 2352.76,1303.86 "/>
<polyline clip-path="url(#clip112)" style="stroke:#000000; stroke-linecap:round; stroke-linejoin:round; stroke-width:2; stroke-opacity:0.1; fill:none" points="156.598,1101.21 2352.76,1101.21 "/>
<polyline clip-path="url(#clip112)" style="stroke:#000000; stroke-linecap:round; stroke-linejoin:round; stroke-width:2; stroke-opacity:0.1; fill:none" points="156.598,898.567 2352.76,898.567 "/>
<polyline clip-path="url(#clip112)" style="stroke:#000000; stroke-linecap:round; stroke-linejoin:round; stroke-width:2; stroke-opacity:0.1; fill:none" points="156.598,695.919 2352.76,695.919 "/>
<polyline clip-path="url(#clip112)" style="stroke:#000000; stroke-linecap:round; stroke-linejoin:round; stroke-width:2; stroke-opacity:0.1; fill:none" points="156.598,493.272 2352.76,493.272 "/>
<polyline clip-path="url(#clip112)" style="stroke:#000000; stroke-linecap:round; stroke-linejoin:round; stroke-width:2; stroke-opacity:0.1; fill:none" points="156.598,290.624 2352.76,290.624 "/>
<polyline clip-path="url(#clip112)" style="stroke:#000000; stroke-linecap:round; stroke-linejoin:round; stroke-width:2; stroke-opacity:0.1; fill:none" points="156.598,87.9763 2352.76,87.9763 "/>
<polyline clip-path="url(#clip110)" style="stroke:#000000; stroke-linecap:round; stroke-linejoin:round; stroke-width:4; stroke-opacity:1; fill:none" points="156.598,1486.45 156.598,47.2441 "/>
<polyline clip-path="url(#clip110)" style="stroke:#000000; stroke-linecap:round; stroke-linejoin:round; stroke-width:4; stroke-opacity:1; fill:none" points="156.598,1303.86 175.496,1303.86 "/>
<polyline clip-path="url(#clip110)" style="stroke:#000000; stroke-linecap:round; stroke-linejoin:round; stroke-width:4; stroke-opacity:1; fill:none" points="156.598,1101.21 175.496,1101.21 "/>
<polyline clip-path="url(#clip110)" style="stroke:#000000; stroke-linecap:round; stroke-linejoin:round; stroke-width:4; stroke-opacity:1; fill:none" points="156.598,898.567 175.496,898.567 "/>
<polyline clip-path="url(#clip110)" style="stroke:#000000; stroke-linecap:round; stroke-linejoin:round; stroke-width:4; stroke-opacity:1; fill:none" points="156.598,695.919 175.496,695.919 "/>
<polyline clip-path="url(#clip110)" style="stroke:#000000; stroke-linecap:round; stroke-linejoin:round; stroke-width:4; stroke-opacity:1; fill:none" points="156.598,493.272 175.496,493.272 "/>
<polyline clip-path="url(#clip110)" style="stroke:#000000; stroke-linecap:round; stroke-linejoin:round; stroke-width:4; stroke-opacity:1; fill:none" points="156.598,290.624 175.496,290.624 "/>
<polyline clip-path="url(#clip110)" style="stroke:#000000; stroke-linecap:round; stroke-linejoin:round; stroke-width:4; stroke-opacity:1; fill:none" points="156.598,87.9763 175.496,87.9763 "/>
<path clip-path="url(#clip110)" d="M62.9365 1289.66 Q59.3254 1289.66 57.4967 1293.23 Q55.6912 1296.77 55.6912 1303.9 Q55.6912 1311 57.4967 1314.57 Q59.3254 1318.11 62.9365 1318.11 Q66.5707 1318.11 68.3763 1314.57 Q70.205 1311 70.205 1303.9 Q70.205 1296.77 68.3763 1293.23 Q66.5707 1289.66 62.9365 1289.66 M62.9365 1285.96 Q68.7467 1285.96 71.8022 1290.56 Q74.8809 1295.15 74.8809 1303.9 Q74.8809 1312.62 71.8022 1317.23 Q68.7467 1321.81 62.9365 1321.81 Q57.1264 1321.81 54.0477 1317.23 Q50.9921 1312.62 50.9921 1303.9 Q50.9921 1295.15 54.0477 1290.56 Q57.1264 1285.96 62.9365 1285.96 Z" fill="#000000" fill-rule="nonzero" fill-opacity="1" /><path clip-path="url(#clip110)" d="M83.0984 1315.26 L87.9827 1315.26 L87.9827 1321.14 L83.0984 1321.14 L83.0984 1315.26 Z" fill="#000000" fill-rule="nonzero" fill-opacity="1" /><path clip-path="url(#clip110)" d="M111.015 1290.66 L99.2095 1309.11 L111.015 1309.11 L111.015 1290.66 M109.788 1286.58 L115.668 1286.58 L115.668 1309.11 L120.598 1309.11 L120.598 1312.99 L115.668 1312.99 L115.668 1321.14 L111.015 1321.14 L111.015 1312.99 L95.4132 1312.99 L95.4132 1308.48 L109.788 1286.58 Z" fill="#000000" fill-rule="nonzero" fill-opacity="1" /><path clip-path="url(#clip110)" d="M64.418 1087.01 Q60.8069 1087.01 58.9782 1090.58 Q57.1726 1094.12 57.1726 1101.25 Q57.1726 1108.36 58.9782 1111.92 Q60.8069 1115.46 64.418 1115.46 Q68.0522 1115.46 69.8578 1111.92 Q71.6865 1108.36 71.6865 1101.25 Q71.6865 1094.12 69.8578 1090.58 Q68.0522 1087.01 64.418 1087.01 M64.418 1083.31 Q70.2281 1083.31 73.2837 1087.92 Q76.3624 1092.5 76.3624 1101.25 Q76.3624 1109.98 73.2837 1114.58 Q70.2281 1119.17 64.418 1119.17 Q58.6078 1119.17 55.5291 1114.58 Q52.4736 1109.98 52.4736 1101.25 Q52.4736 1092.5 55.5291 1087.92 Q58.6078 1083.31 64.418 1083.31 Z" fill="#000000" fill-rule="nonzero" fill-opacity="1" /><path clip-path="url(#clip110)" d="M84.5799 1112.62 L89.4641 1112.62 L89.4641 1118.49 L84.5799 1118.49 L84.5799 1112.62 Z" fill="#000000" fill-rule="nonzero" fill-opacity="1" /><path clip-path="url(#clip110)" d="M99.6956 1083.93 L118.052 1083.93 L118.052 1087.87 L103.978 1087.87 L103.978 1096.34 Q104.996 1095.99 106.015 1095.83 Q107.033 1095.65 108.052 1095.65 Q113.839 1095.65 117.219 1098.82 Q120.598 1101.99 120.598 1107.41 Q120.598 1112.99 117.126 1116.09 Q113.654 1119.17 107.334 1119.17 Q105.159 1119.17 102.89 1118.8 Q100.645 1118.43 98.2372 1117.68 L98.2372 1112.99 Q100.321 1114.12 102.543 1114.68 Q104.765 1115.23 107.242 1115.23 Q111.246 1115.23 113.584 1113.12 Q115.922 1111.02 115.922 1107.41 Q115.922 1103.8 113.584 1101.69 Q111.246 1099.58 107.242 1099.58 Q105.367 1099.58 103.492 1100 Q101.64 1100.42 99.6956 1101.3 L99.6956 1083.93 Z" fill="#000000" fill-rule="nonzero" fill-opacity="1" /><path clip-path="url(#clip110)" d="M63.2606 884.366 Q59.6495 884.366 57.8208 887.93 Q56.0152 891.472 56.0152 898.602 Q56.0152 905.708 57.8208 909.273 Q59.6495 912.815 63.2606 912.815 Q66.8948 912.815 68.7004 909.273 Q70.5291 905.708 70.5291 898.602 Q70.5291 891.472 68.7004 887.93 Q66.8948 884.366 63.2606 884.366 M63.2606 880.662 Q69.0707 880.662 72.1263 885.268 Q75.205 889.852 75.205 898.602 Q75.205 907.328 72.1263 911.935 Q69.0707 916.518 63.2606 916.518 Q57.4504 916.518 54.3717 911.935 Q51.3162 907.328 51.3162 898.602 Q51.3162 889.852 54.3717 885.268 Q57.4504 880.662 63.2606 880.662 Z" fill="#000000" fill-rule="nonzero" fill-opacity="1" /><path clip-path="url(#clip110)" d="M83.4225 909.967 L88.3067 909.967 L88.3067 915.847 L83.4225 915.847 L83.4225 909.967 Z" fill="#000000" fill-rule="nonzero" fill-opacity="1" /><path clip-path="url(#clip110)" d="M109.071 896.704 Q105.922 896.704 104.071 898.856 Q102.242 901.009 102.242 904.759 Q102.242 908.486 104.071 910.662 Q105.922 912.815 109.071 912.815 Q112.219 912.815 114.047 910.662 Q115.899 908.486 115.899 904.759 Q115.899 901.009 114.047 898.856 Q112.219 896.704 109.071 896.704 M118.353 882.051 L118.353 886.31 Q116.594 885.477 114.788 885.037 Q113.006 884.597 111.246 884.597 Q106.617 884.597 104.163 887.722 Q101.733 890.847 101.385 897.167 Q102.751 895.153 104.811 894.088 Q106.871 893 109.348 893 Q114.557 893 117.566 896.171 Q120.598 899.319 120.598 904.759 Q120.598 910.083 117.45 913.301 Q114.302 916.518 109.071 916.518 Q103.075 916.518 99.9039 911.935 Q96.7326 907.328 96.7326 898.602 Q96.7326 890.407 100.621 885.546 Q104.51 880.662 111.061 880.662 Q112.82 880.662 114.603 881.009 Q116.408 881.356 118.353 882.051 Z" fill="#000000" fill-rule="nonzero" fill-opacity="1" /><path clip-path="url(#clip110)" d="M64.3254 681.718 Q60.7143 681.718 58.8856 685.283 Q57.0801 688.824 57.0801 695.954 Q57.0801 703.06 58.8856 706.625 Q60.7143 710.167 64.3254 710.167 Q67.9596 710.167 69.7652 706.625 Q71.5939 703.06 71.5939 695.954 Q71.5939 688.824 69.7652 685.283 Q67.9596 681.718 64.3254 681.718 M64.3254 678.014 Q70.1355 678.014 73.1911 682.621 Q76.2698 687.204 76.2698 695.954 Q76.2698 704.681 73.1911 709.287 Q70.1355 713.871 64.3254 713.871 Q58.5152 713.871 55.4365 709.287 Q52.381 704.681 52.381 695.954 Q52.381 687.204 55.4365 682.621 Q58.5152 678.014 64.3254 678.014 Z" fill="#000000" fill-rule="nonzero" fill-opacity="1" /><path clip-path="url(#clip110)" d="M84.4873 707.32 L89.3715 707.32 L89.3715 713.199 L84.4873 713.199 L84.4873 707.32 Z" fill="#000000" fill-rule="nonzero" fill-opacity="1" /><path clip-path="url(#clip110)" d="M98.3761 678.639 L120.598 678.639 L120.598 680.63 L108.052 713.199 L103.168 713.199 L114.973 682.574 L98.3761 682.574 L98.3761 678.639 Z" fill="#000000" fill-rule="nonzero" fill-opacity="1" /><path clip-path="url(#clip110)" d="M63.5152 479.07 Q59.9041 479.07 58.0754 482.635 Q56.2699 486.177 56.2699 493.306 Q56.2699 500.413 58.0754 503.978 Q59.9041 507.519 63.5152 507.519 Q67.1494 507.519 68.955 503.978 Q70.7837 500.413 70.7837 493.306 Q70.7837 486.177 68.955 482.635 Q67.1494 479.07 63.5152 479.07 M63.5152 475.367 Q69.3254 475.367 72.3809 479.973 Q75.4596 484.556 75.4596 493.306 Q75.4596 502.033 72.3809 506.64 Q69.3254 511.223 63.5152 511.223 Q57.7051 511.223 54.6264 506.64 Q51.5708 502.033 51.5708 493.306 Q51.5708 484.556 54.6264 479.973 Q57.7051 475.367 63.5152 475.367 Z" fill="#000000" fill-rule="nonzero" fill-opacity="1" /><path clip-path="url(#clip110)" d="M83.6771 504.672 L88.5614 504.672 L88.5614 510.552 L83.6771 510.552 L83.6771 504.672 Z" fill="#000000" fill-rule="nonzero" fill-opacity="1" /><path clip-path="url(#clip110)" d="M108.746 494.14 Q105.413 494.14 103.492 495.922 Q101.594 497.704 101.594 500.829 Q101.594 503.954 103.492 505.737 Q105.413 507.519 108.746 507.519 Q112.08 507.519 114.001 505.737 Q115.922 503.931 115.922 500.829 Q115.922 497.704 114.001 495.922 Q112.103 494.14 108.746 494.14 M104.071 492.149 Q101.061 491.408 99.3715 489.348 Q97.7048 487.288 97.7048 484.325 Q97.7048 480.181 100.645 477.774 Q103.608 475.367 108.746 475.367 Q113.908 475.367 116.848 477.774 Q119.788 480.181 119.788 484.325 Q119.788 487.288 118.098 489.348 Q116.432 491.408 113.445 492.149 Q116.825 492.936 118.7 495.228 Q120.598 497.519 120.598 500.829 Q120.598 505.853 117.52 508.538 Q114.464 511.223 108.746 511.223 Q103.029 511.223 99.9502 508.538 Q96.8947 505.853 96.8947 500.829 Q96.8947 497.519 98.7928 495.228 Q100.691 492.936 104.071 492.149 M102.358 484.765 Q102.358 487.45 104.024 488.955 Q105.714 490.459 108.746 490.459 Q111.756 490.459 113.445 488.955 Q115.158 487.45 115.158 484.765 Q115.158 482.08 113.445 480.575 Q111.756 479.07 108.746 479.07 Q105.714 479.07 104.024 480.575 Q102.358 482.08 102.358 484.765 Z" fill="#000000" fill-rule="nonzero" fill-opacity="1" /><path clip-path="url(#clip110)" d="M63.6078 276.423 Q59.9967 276.423 58.168 279.987 Q56.3625 283.529 56.3625 290.659 Q56.3625 297.765 58.168 301.33 Q59.9967 304.872 63.6078 304.872 Q67.242 304.872 69.0476 301.33 Q70.8763 297.765 70.8763 290.659 Q70.8763 283.529 69.0476 279.987 Q67.242 276.423 63.6078 276.423 M63.6078 272.719 Q69.418 272.719 72.4735 277.325 Q75.5522 281.909 75.5522 290.659 Q75.5522 299.385 72.4735 303.992 Q69.418 308.575 63.6078 308.575 Q57.7976 308.575 54.719 303.992 Q51.6634 299.385 51.6634 290.659 Q51.6634 281.909 54.719 277.325 Q57.7976 272.719 63.6078 272.719 Z" fill="#000000" fill-rule="nonzero" fill-opacity="1" /><path clip-path="url(#clip110)" d="M83.7697 302.024 L88.654 302.024 L88.654 307.904 L83.7697 307.904 L83.7697 302.024 Z" fill="#000000" fill-rule="nonzero" fill-opacity="1" /><path clip-path="url(#clip110)" d="M98.978 307.186 L98.978 302.927 Q100.737 303.76 102.543 304.2 Q104.348 304.64 106.084 304.64 Q110.714 304.64 113.145 301.538 Q115.598 298.413 115.945 292.071 Q114.603 294.061 112.543 295.126 Q110.483 296.191 107.983 296.191 Q102.797 296.191 99.765 293.066 Q96.7558 289.918 96.7558 284.478 Q96.7558 279.154 99.9039 275.937 Q103.052 272.719 108.283 272.719 Q114.279 272.719 117.427 277.325 Q120.598 281.909 120.598 290.659 Q120.598 298.83 116.709 303.714 Q112.844 308.575 106.293 308.575 Q104.534 308.575 102.728 308.228 Q100.922 307.881 98.978 307.186 M108.283 292.534 Q111.432 292.534 113.26 290.381 Q115.112 288.228 115.112 284.478 Q115.112 280.751 113.26 278.599 Q111.432 276.423 108.283 276.423 Q105.135 276.423 103.284 278.599 Q101.455 280.751 101.455 284.478 Q101.455 288.228 103.284 290.381 Q105.135 292.534 108.283 292.534 Z" fill="#000000" fill-rule="nonzero" fill-opacity="1" /><path clip-path="url(#clip110)" d="M54.2328 101.321 L61.8717 101.321 L61.8717 74.9555 L53.5616 76.6222 L53.5616 72.3629 L61.8254 70.6963 L66.5013 70.6963 L66.5013 101.321 L74.1402 101.321 L74.1402 105.256 L54.2328 105.256 L54.2328 101.321 Z" fill="#000000" fill-rule="nonzero" fill-opacity="1" /><path clip-path="url(#clip110)" d="M83.5845 99.3767 L88.4688 99.3767 L88.4688 105.256 L83.5845 105.256 L83.5845 99.3767 Z" fill="#000000" fill-rule="nonzero" fill-opacity="1" /><path clip-path="url(#clip110)" d="M108.654 73.775 Q105.043 73.775 103.214 77.3398 Q101.409 80.8814 101.409 88.011 Q101.409 95.1174 103.214 98.6822 Q105.043 102.224 108.654 102.224 Q112.288 102.224 114.094 98.6822 Q115.922 95.1174 115.922 88.011 Q115.922 80.8814 114.094 77.3398 Q112.288 73.775 108.654 73.775 M108.654 70.0713 Q114.464 70.0713 117.52 74.6777 Q120.598 79.261 120.598 88.011 Q120.598 96.7378 117.52 101.344 Q114.464 105.928 108.654 105.928 Q102.844 105.928 99.765 101.344 Q96.7095 96.7378 96.7095 88.011 Q96.7095 79.261 99.765 74.6777 Q102.844 70.0713 108.654 70.0713 Z" fill="#000000" fill-rule="nonzero" fill-opacity="1" /><polyline clip-path="url(#clip112)" style="stroke:#009af9; stroke-linecap:round; stroke-linejoin:round; stroke-width:4; stroke-opacity:1; fill:none" points="218.754,1435.58 220.828,1313.99 222.901,1445.72 224.975,1334.26 227.049,1313.99 229.123,1334.26 231.197,1263.33 233.271,1192.41 235.345,1101.21 237.419,1222.8 239.493,1232.94 241.567,1121.48 243.641,1232.94 245.715,1162.01 247.789,1111.35 249.862,1131.61 251.936,1070.82 254.01,1070.82 256.084,1091.08 258.158,1010.02 260.232,1070.82 262.306,959.361 264.38,837.773 266.454,858.037 268.528,969.494 270.602,898.567 272.676,817.508 274.75,908.699 276.823,787.111 278.897,949.229 280.971,776.978 283.045,847.905 285.119,756.714 287.193,635.125 289.267,726.316 291.341,726.316 293.415,716.184 295.489,685.787 297.563,726.316 299.637,736.449 301.71,635.125 303.784,706.052 305.858,726.316 307.932,675.655 310.006,756.714 312.08,533.801 314.154,756.714 316.228,726.316 318.302,736.449 320.376,695.919 322.45,655.39 324.524,706.052 326.598,645.257 328.671,604.728 330.745,594.595 332.819,716.184 334.893,635.125 336.967,584.463 339.041,706.052 341.115,584.463 343.189,756.714 345.263,645.257 347.337,645.257 349.411,645.257 351.485,624.993 353.558,604.728 355.632,635.125 357.706,726.316 359.78,554.066 361.854,594.595 363.928,574.331 366.002,645.257 368.076,604.728 370.15,533.801 372.224,624.993 374.298,483.139 376.372,493.272 378.446,604.728 380.519,614.86 382.593,614.86 384.667,432.477 386.741,574.331 388.815,361.551 390.889,604.728 392.963,543.934 395.037,503.404 397.111,503.404 399.185,554.066 401.259,594.595 403.333,523.669 405.407,543.934 407.48,432.477 409.554,564.198 411.628,422.345 413.702,523.669 415.776,422.345 417.85,513.536 419.924,543.934 421.998,493.272 424.072,422.345 426.146,452.742 428.22,513.536 430.294,493.272 432.367,513.536 434.441,381.815 436.515,452.742 438.589,391.948 440.663,442.61 442.737,402.08 444.811,422.345 446.885,402.08 448.959,462.874 451.033,432.477 453.107,442.61 455.181,412.213 457.255,462.874 459.328,391.948 461.402,331.153 463.476,371.683 465.55,391.948 467.624,331.153 469.698,391.948 471.772,331.153 473.846,391.948 475.92,331.153 477.994,341.286 480.068,391.948 482.142,351.418 484.216,412.213 486.289,402.08 488.363,432.477 490.437,473.007 492.511,290.624 494.585,361.551 496.659,300.756 498.733,422.345 500.807,391.948 502.881,300.756 504.955,361.551 507.029,351.418 509.103,280.492 511.176,300.756 513.25,391.948 515.324,402.08 517.398,290.624 519.472,371.683 521.546,310.889 523.62,310.889 525.694,351.418 527.768,412.213 529.842,412.213 531.916,371.683 533.99,361.551 536.064,361.551 538.137,402.08 540.211,462.874 542.285,351.418 544.359,300.756 546.433,371.683 548.507,290.624 550.581,331.153 552.655,381.815 554.729,371.683 556.803,361.551 558.877,361.551 560.951,351.418 563.024,351.418 565.098,391.948 567.172,391.948 569.246,331.153 571.32,341.286 573.394,290.624 575.468,371.683 577.542,381.815 579.616,219.697 581.69,361.551 583.764,331.153 585.838,260.227 587.912,361.551 589.985,341.286 592.059,381.815 594.133,361.551 596.207,402.08 598.281,341.286 600.355,300.756 602.429,290.624 604.503,331.153 606.577,361.551 608.651,310.889 610.725,290.624 612.799,331.153 614.873,290.624 616.946,280.492 619.02,219.697 621.094,239.962 623.168,361.551 625.242,250.094 627.316,321.021 629.39,290.624 631.464,321.021 633.538,270.359 635.612,270.359 637.686,239.962 639.76,341.286 641.833,280.492 643.907,391.948 645.981,219.697 648.055,229.83 650.129,290.624 652.203,290.624 654.277,290.624 656.351,270.359 658.425,321.021 660.499,270.359 662.573,239.962 664.647,219.697 666.721,300.756 668.794,290.624 670.868,351.418 672.942,280.492 675.016,260.227 677.09,260.227 679.164,229.83 681.238,229.83 683.312,239.962 685.386,310.889 687.46,229.83 689.534,300.756 691.608,290.624 693.681,290.624 695.755,321.021 697.829,280.492 699.903,239.962 701.977,331.153 704.051,321.021 706.125,189.3 708.199,270.359 710.273,321.021 712.347,209.565 714.421,219.697 716.495,199.432 718.569,250.094 720.642,209.565 722.716,219.697 724.79,219.697 726.864,239.962 728.938,219.697 731.012,290.624 733.086,209.565 735.16,280.492 737.234,250.094 739.308,280.492 741.382,189.3 743.456,209.565 745.53,229.83 747.603,270.359 749.677,209.565 751.751,199.432 753.825,229.83 755.899,189.3 757.973,209.565 760.047,179.168 762.121,290.624 764.195,280.492 766.269,229.83 768.343,199.432 770.417,189.3 772.49,209.565 774.564,158.903 776.638,250.094 778.712,199.432 780.786,189.3 782.86,189.3 784.934,189.3 787.008,169.035 789.082,148.771 791.156,189.3 793.23,179.168 795.304,260.227 797.378,189.3 799.451,148.771 801.525,260.227 803.599,199.432 805.673,209.565 807.747,179.168 809.821,219.697 811.895,199.432 813.969,179.168 816.043,229.83 818.117,169.035 820.191,179.168 822.265,158.903 824.339,219.697 826.412,179.168 828.486,239.962 830.56,260.227 832.634,158.903 834.708,199.432 836.782,199.432 838.856,209.565 840.93,209.565 843.004,169.035 845.078,148.771 847.152,158.903 849.226,189.3 851.299,138.638 853.373,179.168 855.447,169.035 857.521,229.83 859.595,189.3 861.669,229.83 863.743,199.432 865.817,189.3 867.891,179.168 869.965,179.168 872.039,189.3 874.113,250.094 876.187,239.962 878.26,158.903 880.334,138.638 882.408,138.638 884.482,239.962 886.556,138.638 888.63,179.168 890.704,209.565 892.778,158.903 894.852,148.771 896.926,158.903 899,138.638 901.074,118.373 903.147,209.565 905.221,169.035 907.295,148.771 909.369,199.432 911.443,148.771 913.517,229.83 915.591,189.3 917.665,179.168 919.739,158.903 921.813,158.903 923.887,138.638 925.961,138.638 928.035,219.697 930.108,179.168 932.182,169.035 934.256,189.3 936.33,138.638 938.404,179.168 940.478,239.962 942.552,158.903 944.626,229.83 946.7,179.168 948.774,179.168 950.848,169.035 952.922,128.506 954.996,189.3 957.069,169.035 959.143,239.962 961.217,189.3 963.291,148.771 965.365,229.83 967.439,209.565 969.513,138.638 971.587,199.432 973.661,148.771 975.735,189.3 977.809,239.962 979.883,169.035 981.956,169.035 984.03,148.771 986.104,229.83 988.178,179.168 990.252,179.168 992.326,118.373 994.4,199.432 996.474,199.432 998.548,158.903 1000.62,148.771 1002.7,138.638 1004.77,148.771 1006.84,169.035 1008.92,128.506 1010.99,209.565 1013.07,138.638 1015.14,219.697 1017.21,179.168 1019.29,229.83 1021.36,209.565 1023.43,158.903 1025.51,169.035 1027.58,158.903 1029.66,179.168 1031.73,148.771 1033.8,138.638 1035.88,189.3 1037.95,209.565 1040.03,128.506 1042.1,148.771 1044.17,219.697 1046.25,189.3 1048.32,108.241 1050.4,199.432 1052.47,138.638 1054.54,209.565 1056.62,128.506 1058.69,209.565 1060.77,128.506 1062.84,138.638 1064.91,189.3 1066.99,108.241 1069.06,158.903 1071.14,158.903 1073.21,158.903 1075.28,169.035 1077.36,199.432 1079.43,169.035 1081.5,128.506 1083.58,158.903 1085.65,158.903 1087.73,179.168 1089.8,179.168 1091.87,128.506 1093.95,148.771 1096.02,118.373 1098.1,87.9763 1100.17,219.697 1102.24,138.638 1104.32,169.035 1106.39,148.771 1108.47,148.771 1110.54,158.903 1112.61,128.506 1114.69,179.168 1116.76,148.771 1118.84,199.432 1120.91,148.771 1122.98,169.035 1125.06,138.638 1127.13,138.638 1129.2,128.506 1131.28,158.903 1133.35,138.638 1135.43,108.241 1137.5,148.771 1139.57,128.506 1141.65,128.506 1143.72,118.373 1145.8,169.035 1147.87,138.638 1149.94,138.638 1152.02,138.638 1154.09,189.3 1156.17,179.168 1158.24,138.638 1160.31,138.638 1162.39,118.373 1164.46,158.903 1166.54,138.638 1168.61,138.638 1170.68,138.638 1172.76,158.903 1174.83,128.506 1176.91,98.1087 1178.98,138.638 1181.05,98.1087 1183.13,128.506 1185.2,148.771 1187.27,128.506 1189.35,118.373 1191.42,108.241 1193.5,138.638 1195.57,128.506 1197.64,148.771 1199.72,138.638 1201.79,169.035 1203.87,179.168 1205.94,158.903 1208.01,118.373 1210.09,179.168 1212.16,128.506 1214.24,158.903 1216.31,179.168 1218.38,98.1087 1220.46,118.373 1222.53,128.506 1224.61,128.506 1226.68,118.373 1228.75,128.506 1230.83,158.903 1232.9,108.241 1234.97,118.373 1237.05,108.241 1239.12,138.638 1241.2,158.903 1243.27,148.771 1245.34,128.506 1247.42,108.241 1249.49,128.506 1251.57,98.1087 1253.64,138.638 1255.71,118.373 1257.79,138.638 1259.86,138.638 1261.94,118.373 1264.01,128.506 1266.08,128.506 1268.16,128.506 1270.23,108.241 1272.31,148.771 1274.38,108.241 1276.45,138.638 1278.53,118.373 1280.6,98.1087 1282.68,138.638 1284.75,148.771 1286.82,118.373 1288.9,189.3 1290.97,169.035 1293.04,128.506 1295.12,118.373 1297.19,128.506 1299.27,158.903 1301.34,108.241 1303.41,118.373 1305.49,128.506 1307.56,108.241 1309.64,128.506 1311.71,108.241 1313.78,118.373 1315.86,138.638 1317.93,108.241 1320.01,148.771 1322.08,118.373 1324.15,138.638 1326.23,98.1087 1328.3,108.241 1330.38,138.638 1332.45,148.771 1334.52,108.241 1336.6,108.241 1338.67,128.506 1340.74,128.506 1342.82,118.373 1344.89,118.373 1346.97,138.638 1349.04,98.1087 1351.11,148.771 1353.19,169.035 1355.26,108.241 1357.34,148.771 1359.41,158.903 1361.48,138.638 1363.56,158.903 1365.63,118.373 1367.71,87.9763 1369.78,158.903 1371.85,98.1087 1373.93,158.903 1376,148.771 1378.08,148.771 1380.15,118.373 1382.22,108.241 1384.3,118.373 1386.37,108.241 1388.44,87.9763 1390.52,118.373 1392.59,118.373 1394.67,128.506 1396.74,118.373 1398.81,98.1087 1400.89,108.241 1402.96,179.168 1405.04,118.373 1407.11,118.373 1409.18,138.638 1411.26,108.241 1413.33,98.1087 1415.41,87.9763 1417.48,118.373 1419.55,128.506 1421.63,108.241 1423.7,108.241 1425.78,128.506 1427.85,118.373 1429.92,87.9763 1432,138.638 1434.07,138.638 1436.15,148.771 1438.22,118.373 1440.29,128.506 1442.37,98.1087 1444.44,87.9763 1446.51,108.241 1448.59,108.241 1450.66,128.506 1452.74,108.241 1454.81,128.506 1456.88,108.241 1458.96,118.373 1461.03,118.373 1463.11,138.638 1465.18,108.241 1467.25,128.506 1469.33,118.373 1471.4,98.1087 1473.48,87.9763 1475.55,118.373 1477.62,128.506 1479.7,98.1087 1481.77,87.9763 1483.85,108.241 1485.92,118.373 1487.99,148.771 1490.07,87.9763 1492.14,98.1087 1494.21,108.241 1496.29,108.241 1498.36,128.506 1500.44,128.506 1502.51,108.241 1504.58,108.241 1506.66,108.241 1508.73,98.1087 1510.81,108.241 1512.88,128.506 1514.95,98.1087 1517.03,108.241 1519.1,138.638 1521.18,169.035 1523.25,108.241 1525.32,98.1087 1527.4,128.506 1529.47,98.1087 1531.55,108.241 1533.62,118.373 1535.69,138.638 1537.77,98.1087 1539.84,118.373 1541.92,118.373 1543.99,98.1087 1546.06,118.373 1548.14,118.373 1550.21,138.638 1552.28,148.771 1554.36,87.9763 1556.43,108.241 1558.51,98.1087 1560.58,108.241 1562.65,108.241 1564.73,98.1087 1566.8,98.1087 1568.88,128.506 1570.95,98.1087 1573.02,98.1087 1575.1,108.241 1577.17,108.241 1579.25,128.506 1581.32,108.241 1583.39,148.771 1585.47,108.241 1587.54,108.241 1589.62,108.241 1591.69,108.241 1593.76,128.506 1595.84,98.1087 1597.91,98.1087 1599.98,87.9763 1602.06,108.241 1604.13,138.638 1606.21,98.1087 1608.28,98.1087 1610.35,108.241 1612.43,108.241 1614.5,138.638 1616.58,108.241 1618.65,98.1087 1620.72,87.9763 1622.8,128.506 1624.87,108.241 1626.95,108.241 1629.02,87.9763 1631.09,138.638 1633.17,108.241 1635.24,98.1087 1637.32,98.1087 1639.39,108.241 1641.46,108.241 1643.54,108.241 1645.61,98.1087 1647.69,108.241 1649.76,98.1087 1651.83,108.241 1653.91,87.9763 1655.98,87.9763 1658.05,98.1087 1660.13,98.1087 1662.2,98.1087 1664.28,108.241 1666.35,128.506 1668.42,108.241 1670.5,108.241 1672.57,118.373 1674.65,108.241 1676.72,98.1087 1678.79,87.9763 1680.87,108.241 1682.94,138.638 1685.02,98.1087 1687.09,118.373 1689.16,118.373 1691.24,98.1087 1693.31,87.9763 1695.39,108.241 1697.46,118.373 1699.53,118.373 1701.61,87.9763 1703.68,118.373 1705.75,108.241 1707.83,87.9763 1709.9,108.241 1711.98,108.241 1714.05,128.506 1716.12,87.9763 1718.2,128.506 1720.27,108.241 1722.35,108.241 1724.42,118.373 1726.49,87.9763 1728.57,87.9763 1730.64,98.1087 1732.72,118.373 1734.79,87.9763 1736.86,108.241 1738.94,118.373 1741.01,148.771 1743.09,108.241 1745.16,87.9763 1747.23,108.241 1749.31,138.638 1751.38,108.241 1753.46,108.241 1755.53,98.1087 1757.6,128.506 1759.68,98.1087 1761.75,98.1087 1763.82,98.1087 1765.9,108.241 1767.97,108.241 1770.05,87.9763 1772.12,87.9763 1774.19,108.241 1776.27,118.373 1778.34,108.241 1780.42,108.241 1782.49,128.506 1784.56,87.9763 1786.64,108.241 1788.71,98.1087 1790.79,108.241 1792.86,118.373 1794.93,128.506 1797.01,98.1087 1799.08,128.506 1801.16,98.1087 1803.23,108.241 1805.3,118.373 1807.38,118.373 1809.45,98.1087 1811.52,98.1087 1813.6,118.373 1815.67,87.9763 1817.75,98.1087 1819.82,118.373 1821.89,98.1087 1823.97,87.9763 1826.04,118.373 1828.12,98.1087 1830.19,87.9763 1832.26,118.373 1834.34,128.506 1836.41,98.1087 1838.49,98.1087 1840.56,108.241 1842.63,118.373 1844.71,108.241 1846.78,87.9763 1848.86,108.241 1850.93,98.1087 1853,87.9763 1855.08,98.1087 1857.15,98.1087 1859.22,98.1087 1861.3,118.373 1863.37,108.241 1865.45,87.9763 1867.52,118.373 1869.59,138.638 1871.67,98.1087 1873.74,138.638 1875.82,148.771 1877.89,108.241 1879.96,118.373 1882.04,98.1087 1884.11,98.1087 1886.19,87.9763 1888.26,118.373 1890.33,108.241 1892.41,87.9763 1894.48,118.373 1896.56,98.1087 1898.63,108.241 1900.7,108.241 1902.78,87.9763 1904.85,98.1087 1906.93,108.241 1909,108.241 1911.07,118.373 1913.15,98.1087 1915.22,108.241 1917.29,98.1087 1919.37,108.241 1921.44,108.241 1923.52,98.1087 1925.59,158.903 1927.66,108.241 1929.74,138.638 1931.81,98.1087 1933.89,98.1087 1935.96,118.373 1938.03,87.9763 1940.11,108.241 1942.18,108.241 1944.26,87.9763 1946.33,98.1087 1948.4,108.241 1950.48,98.1087 1952.55,87.9763 1954.63,108.241 1956.7,98.1087 1958.77,98.1087 1960.85,87.9763 1962.92,98.1087 1964.99,98.1087 1967.07,98.1087 1969.14,118.373 1971.22,108.241 1973.29,98.1087 1975.36,98.1087 1977.44,98.1087 1979.51,118.373 1981.59,108.241 1983.66,87.9763 1985.73,98.1087 1987.81,118.373 1989.88,87.9763 1991.96,108.241 1994.03,118.373 1996.1,98.1087 1998.18,87.9763 2000.25,98.1087 2002.33,108.241 2004.4,118.373 2006.47,98.1087 2008.55,87.9763 2010.62,98.1087 2012.7,118.373 2014.77,98.1087 2016.84,98.1087 2018.92,87.9763 2020.99,98.1087 2023.06,98.1087 2025.14,128.506 2027.21,87.9763 2029.29,118.373 2031.36,98.1087 2033.43,87.9763 2035.51,108.241 2037.58,98.1087 2039.66,118.373 2041.73,98.1087 2043.8,87.9763 2045.88,138.638 2047.95,98.1087 2050.03,108.241 2052.1,98.1087 2054.17,108.241 2056.25,108.241 2058.32,108.241 2060.4,87.9763 2062.47,108.241 2064.54,118.373 2066.62,98.1087 2068.69,108.241 2070.76,108.241 2072.84,98.1087 2074.91,128.506 2076.99,108.241 2079.06,98.1087 2081.13,98.1087 2083.21,128.506 2085.28,98.1087 2087.36,87.9763 2089.43,87.9763 2091.5,98.1087 2093.58,128.506 2095.65,87.9763 2097.73,118.373 2099.8,108.241 2101.87,108.241 2103.95,108.241 2106.02,87.9763 2108.1,87.9763 2110.17,87.9763 2112.24,118.373 2114.32,87.9763 2116.39,87.9763 2118.47,98.1087 2120.54,98.1087 2122.61,108.241 2124.69,98.1087 2126.76,87.9763 2128.83,108.241 2130.91,98.1087 2132.98,87.9763 2135.06,138.638 2137.13,98.1087 2139.2,87.9763 2141.28,87.9763 2143.35,87.9763 2145.43,87.9763 2147.5,128.506 2149.57,87.9763 2151.65,87.9763 2153.72,98.1087 2155.8,87.9763 2157.87,118.373 2159.94,87.9763 2162.02,98.1087 2164.09,87.9763 2166.17,98.1087 2168.24,87.9763 2170.31,98.1087 2172.39,98.1087 2174.46,98.1087 2176.53,108.241 2178.61,118.373 2180.68,108.241 2182.76,98.1087 2184.83,87.9763 2186.9,87.9763 2188.98,108.241 2191.05,98.1087 2193.13,87.9763 2195.2,108.241 2197.27,87.9763 2199.35,87.9763 2201.42,87.9763 2203.5,98.1087 2205.57,98.1087 2207.64,87.9763 2209.72,87.9763 2211.79,98.1087 2213.87,108.241 2215.94,98.1087 2218.01,98.1087 2220.09,118.373 2222.16,87.9763 2224.24,87.9763 2226.31,108.241 2228.38,87.9763 2230.46,98.1087 2232.53,98.1087 2234.6,98.1087 2236.68,87.9763 2238.75,108.241 2240.83,87.9763 2242.9,98.1087 2244.97,128.506 2247.05,87.9763 2249.12,108.241 2251.2,98.1087 2253.27,98.1087 2255.34,108.241 2257.42,98.1087 2259.49,98.1087 2261.57,108.241 2263.64,87.9763 2265.71,98.1087 2267.79,108.241 2269.86,98.1087 2271.94,87.9763 2274.01,98.1087 2276.08,98.1087 2278.16,98.1087 2280.23,108.241 2282.3,87.9763 2284.38,98.1087 2286.45,98.1087 2288.53,87.9763 2290.6,87.9763 "/>
<path clip-path="url(#clip110)" d="M2007.5 1438.47 L2279.55 1438.47 L2279.55 1334.79 L2007.5 1334.79  Z" fill="#ffffff" fill-rule="evenodd" fill-opacity="1"/>
<polyline clip-path="url(#clip110)" style="stroke:#000000; stroke-linecap:round; stroke-linejoin:round; stroke-width:4; stroke-opacity:1; fill:none" points="2007.5,1438.47 2279.55,1438.47 2279.55,1334.79 2007.5,1334.79 2007.5,1438.47 "/>
<polyline clip-path="url(#clip110)" style="stroke:#009af9; stroke-linecap:round; stroke-linejoin:round; stroke-width:4; stroke-opacity:1; fill:none" points="2031.91,1386.63 2178.32,1386.63 "/>
<path clip-path="url(#clip110)" d="M2216.56 1406.32 Q2214.76 1410.95 2213.04 1412.36 Q2211.33 1413.78 2208.46 1413.78 L2205.06 1413.78 L2205.06 1410.21 L2207.56 1410.21 Q2209.32 1410.21 2210.29 1409.38 Q2211.26 1408.54 2212.44 1405.44 L2213.2 1403.5 L2202.72 1377.99 L2207.23 1377.99 L2215.33 1398.27 L2223.44 1377.99 L2227.95 1377.99 L2216.56 1406.32 Z" fill="#000000" fill-rule="nonzero" fill-opacity="1" /><path clip-path="url(#clip110)" d="M2235.24 1399.98 L2242.88 1399.98 L2242.88 1373.61 L2234.57 1375.28 L2234.57 1371.02 L2242.83 1369.35 L2247.51 1369.35 L2247.51 1399.98 L2255.15 1399.98 L2255.15 1403.91 L2235.24 1403.91 L2235.24 1399.98 Z" fill="#000000" fill-rule="nonzero" fill-opacity="1" /></svg>
