<?xml version="1.0" encoding="utf-8"?>
<svg xmlns="http://www.w3.org/2000/svg" xmlns:xlink="http://www.w3.org/1999/xlink" width="600" height="400" viewBox="0 0 2400 1600">
<defs>
  <clipPath id="clip320">
    <rect x="0" y="0" width="2400" height="1600"/>
  </clipPath>
</defs>
<path clip-path="url(#clip320)" d="M0 1600 L2400 1600 L2400 0 L0 0  Z" fill="#ffffff" fill-rule="evenodd" fill-opacity="1"/>
<defs>
  <clipPath id="clip321">
    <rect x="480" y="0" width="1681" height="1600"/>
  </clipPath>
</defs>
<path clip-path="url(#clip320)" d="M186.274 1486.45 L2352.76 1486.45 L2352.76 47.2441 L186.274 47.2441  Z" fill="#ffffff" fill-rule="evenodd" fill-opacity="1"/>
<defs>
  <clipPath id="clip322">
    <rect x="186" y="47" width="2167" height="1440"/>
  </clipPath>
</defs>
<polyline clip-path="url(#clip322)" style="stroke:#000000; stroke-linecap:round; stroke-linejoin:round; stroke-width:2; stroke-opacity:0.1; fill:none" points="247.59,1486.45 247.59,47.2441 "/>
<polyline clip-path="url(#clip322)" style="stroke:#000000; stroke-linecap:round; stroke-linejoin:round; stroke-width:2; stroke-opacity:0.1; fill:none" points="759.064,1486.45 759.064,47.2441 "/>
<polyline clip-path="url(#clip322)" style="stroke:#000000; stroke-linecap:round; stroke-linejoin:round; stroke-width:2; stroke-opacity:0.1; fill:none" points="1270.54,1486.45 1270.54,47.2441 "/>
<polyline clip-path="url(#clip322)" style="stroke:#000000; stroke-linecap:round; stroke-linejoin:round; stroke-width:2; stroke-opacity:0.1; fill:none" points="1782.01,1486.45 1782.01,47.2441 "/>
<polyline clip-path="url(#clip322)" style="stroke:#000000; stroke-linecap:round; stroke-linejoin:round; stroke-width:2; stroke-opacity:0.1; fill:none" points="2293.49,1486.45 2293.49,47.2441 "/>
<polyline clip-path="url(#clip320)" style="stroke:#000000; stroke-linecap:round; stroke-linejoin:round; stroke-width:4; stroke-opacity:1; fill:none" points="186.274,1486.45 2352.76,1486.45 "/>
<polyline clip-path="url(#clip320)" style="stroke:#000000; stroke-linecap:round; stroke-linejoin:round; stroke-width:4; stroke-opacity:1; fill:none" points="247.59,1486.45 247.59,1467.55 "/>
<polyline clip-path="url(#clip320)" style="stroke:#000000; stroke-linecap:round; stroke-linejoin:round; stroke-width:4; stroke-opacity:1; fill:none" points="759.064,1486.45 759.064,1467.55 "/>
<polyline clip-path="url(#clip320)" style="stroke:#000000; stroke-linecap:round; stroke-linejoin:round; stroke-width:4; stroke-opacity:1; fill:none" points="1270.54,1486.45 1270.54,1467.55 "/>
<polyline clip-path="url(#clip320)" style="stroke:#000000; stroke-linecap:round; stroke-linejoin:round; stroke-width:4; stroke-opacity:1; fill:none" points="1782.01,1486.45 1782.01,1467.55 "/>
<polyline clip-path="url(#clip320)" style="stroke:#000000; stroke-linecap:round; stroke-linejoin:round; stroke-width:4; stroke-opacity:1; fill:none" points="2293.49,1486.45 2293.49,1467.55 "/>
<path clip-path="url(#clip320)" d="M247.59 1517.37 Q243.978 1517.37 242.15 1520.93 Q240.344 1524.47 240.344 1531.6 Q240.344 1538.71 242.15 1542.27 Q243.978 1545.82 247.59 1545.82 Q251.224 1545.82 253.029 1542.27 Q254.858 1538.71 254.858 1531.6 Q254.858 1524.47 253.029 1520.93 Q251.224 1517.37 247.59 1517.37 M247.59 1513.66 Q253.4 1513.66 256.455 1518.27 Q259.534 1522.85 259.534 1531.6 Q259.534 1540.33 256.455 1544.94 Q253.4 1549.52 247.59 1549.52 Q241.779 1549.52 238.701 1544.94 Q235.645 1540.33 235.645 1531.6 Q235.645 1522.85 238.701 1518.27 Q241.779 1513.66 247.59 1513.66 Z" fill="#000000" fill-rule="nonzero" fill-opacity="1" /><path clip-path="url(#clip320)" d="M722.756 1544.91 L739.075 1544.91 L739.075 1548.85 L717.131 1548.85 L717.131 1544.91 Q719.793 1542.16 724.376 1537.53 Q728.983 1532.88 730.163 1531.53 Q732.409 1529.01 733.288 1527.27 Q734.191 1525.51 734.191 1523.82 Q734.191 1521.07 732.247 1519.33 Q730.325 1517.6 727.224 1517.6 Q725.025 1517.6 722.571 1518.36 Q720.14 1519.13 717.363 1520.68 L717.363 1515.95 Q720.187 1514.82 722.64 1514.24 Q725.094 1513.66 727.131 1513.66 Q732.501 1513.66 735.696 1516.35 Q738.89 1519.03 738.89 1523.52 Q738.89 1525.65 738.08 1527.57 Q737.293 1529.47 735.187 1532.07 Q734.608 1532.74 731.506 1535.95 Q728.404 1539.15 722.756 1544.91 Z" fill="#000000" fill-rule="nonzero" fill-opacity="1" /><path clip-path="url(#clip320)" d="M748.936 1514.29 L767.293 1514.29 L767.293 1518.22 L753.219 1518.22 L753.219 1526.7 Q754.237 1526.35 755.256 1526.19 Q756.274 1526 757.293 1526 Q763.08 1526 766.46 1529.17 Q769.839 1532.34 769.839 1537.76 Q769.839 1543.34 766.367 1546.44 Q762.895 1549.52 756.575 1549.52 Q754.399 1549.52 752.131 1549.15 Q749.886 1548.78 747.478 1548.04 L747.478 1543.34 Q749.561 1544.47 751.784 1545.03 Q754.006 1545.58 756.483 1545.58 Q760.487 1545.58 762.825 1543.48 Q765.163 1541.37 765.163 1537.76 Q765.163 1534.15 762.825 1532.04 Q760.487 1529.94 756.483 1529.94 Q754.608 1529.94 752.733 1530.35 Q750.881 1530.77 748.936 1531.65 L748.936 1514.29 Z" fill="#000000" fill-rule="nonzero" fill-opacity="1" /><path clip-path="url(#clip320)" d="M789.052 1517.37 Q785.441 1517.37 783.612 1520.93 Q781.807 1524.47 781.807 1531.6 Q781.807 1538.71 783.612 1542.27 Q785.441 1545.82 789.052 1545.82 Q792.686 1545.82 794.492 1542.27 Q796.32 1538.71 796.32 1531.6 Q796.32 1524.47 794.492 1520.93 Q792.686 1517.37 789.052 1517.37 M789.052 1513.66 Q794.862 1513.66 797.918 1518.27 Q800.996 1522.85 800.996 1531.6 Q800.996 1540.33 797.918 1544.94 Q794.862 1549.52 789.052 1549.52 Q783.242 1549.52 780.163 1544.94 Q777.108 1540.33 777.108 1531.6 Q777.108 1522.85 780.163 1518.27 Q783.242 1513.66 789.052 1513.66 Z" fill="#000000" fill-rule="nonzero" fill-opacity="1" /><path clip-path="url(#clip320)" d="M1230.16 1514.29 L1248.51 1514.29 L1248.51 1518.22 L1234.44 1518.22 L1234.44 1526.7 Q1235.46 1526.35 1236.48 1526.19 Q1237.49 1526 1238.51 1526 Q1244.3 1526 1247.68 1529.17 Q1251.06 1532.34 1251.06 1537.76 Q1251.06 1543.34 1247.59 1546.44 Q1244.11 1549.52 1237.8 1549.52 Q1235.62 1549.52 1233.35 1549.15 Q1231.11 1548.78 1228.7 1548.04 L1228.7 1543.34 Q1230.78 1544.47 1233 1545.03 Q1235.23 1545.58 1237.7 1545.58 Q1241.71 1545.58 1244.04 1543.48 Q1246.38 1541.37 1246.38 1537.76 Q1246.38 1534.15 1244.04 1532.04 Q1241.71 1529.94 1237.7 1529.94 Q1235.83 1529.94 1233.95 1530.35 Q1232.1 1530.77 1230.16 1531.65 L1230.16 1514.29 Z" fill="#000000" fill-rule="nonzero" fill-opacity="1" /><path clip-path="url(#clip320)" d="M1270.27 1517.37 Q1266.66 1517.37 1264.83 1520.93 Q1263.03 1524.47 1263.03 1531.6 Q1263.03 1538.71 1264.83 1542.27 Q1266.66 1545.82 1270.27 1545.82 Q1273.91 1545.82 1275.71 1542.27 Q1277.54 1538.71 1277.54 1531.6 Q1277.54 1524.47 1275.71 1520.93 Q1273.91 1517.37 1270.27 1517.37 M1270.27 1513.66 Q1276.08 1513.66 1279.14 1518.27 Q1282.22 1522.85 1282.22 1531.6 Q1282.22 1540.33 1279.14 1544.94 Q1276.08 1549.52 1270.27 1549.52 Q1264.46 1549.52 1261.38 1544.94 Q1258.33 1540.33 1258.33 1531.6 Q1258.33 1522.85 1261.38 1518.27 Q1264.46 1513.66 1270.27 1513.66 Z" fill="#000000" fill-rule="nonzero" fill-opacity="1" /><path clip-path="url(#clip320)" d="M1300.43 1517.37 Q1296.82 1517.37 1294.99 1520.93 Q1293.19 1524.47 1293.19 1531.6 Q1293.19 1538.71 1294.99 1542.27 Q1296.82 1545.82 1300.43 1545.82 Q1304.07 1545.82 1305.87 1542.27 Q1307.7 1538.71 1307.7 1531.6 Q1307.7 1524.47 1305.87 1520.93 Q1304.07 1517.37 1300.43 1517.37 M1300.43 1513.66 Q1306.24 1513.66 1309.3 1518.27 Q1312.38 1522.85 1312.38 1531.6 Q1312.38 1540.33 1309.3 1544.94 Q1306.24 1549.52 1300.43 1549.52 Q1294.62 1549.52 1291.54 1544.94 Q1288.49 1540.33 1288.49 1531.6 Q1288.49 1522.85 1291.54 1518.27 Q1294.62 1513.66 1300.43 1513.66 Z" fill="#000000" fill-rule="nonzero" fill-opacity="1" /><path clip-path="url(#clip320)" d="M1740.29 1514.29 L1762.51 1514.29 L1762.51 1516.28 L1749.96 1548.85 L1745.08 1548.85 L1756.88 1518.22 L1740.29 1518.22 L1740.29 1514.29 Z" fill="#000000" fill-rule="nonzero" fill-opacity="1" /><path clip-path="url(#clip320)" d="M1771.68 1514.29 L1790.03 1514.29 L1790.03 1518.22 L1775.96 1518.22 L1775.96 1526.7 Q1776.98 1526.35 1778 1526.19 Q1779.01 1526 1780.03 1526 Q1785.82 1526 1789.2 1529.17 Q1792.58 1532.34 1792.58 1537.76 Q1792.58 1543.34 1789.11 1546.44 Q1785.63 1549.52 1779.32 1549.52 Q1777.14 1549.52 1774.87 1549.15 Q1772.63 1548.78 1770.22 1548.04 L1770.22 1543.34 Q1772.3 1544.47 1774.52 1545.03 Q1776.75 1545.58 1779.22 1545.58 Q1783.23 1545.58 1785.57 1543.48 Q1787.9 1541.37 1787.9 1537.76 Q1787.9 1534.15 1785.57 1532.04 Q1783.23 1529.94 1779.22 1529.94 Q1777.35 1529.94 1775.47 1530.35 Q1773.62 1530.77 1771.68 1531.65 L1771.68 1514.29 Z" fill="#000000" fill-rule="nonzero" fill-opacity="1" /><path clip-path="url(#clip320)" d="M1811.79 1517.37 Q1808.18 1517.37 1806.35 1520.93 Q1804.55 1524.47 1804.55 1531.6 Q1804.55 1538.71 1806.35 1542.27 Q1808.18 1545.82 1811.79 1545.82 Q1815.43 1545.82 1817.23 1542.27 Q1819.06 1538.71 1819.06 1531.6 Q1819.06 1524.47 1817.23 1520.93 Q1815.43 1517.37 1811.79 1517.37 M1811.79 1513.66 Q1817.6 1513.66 1820.66 1518.27 Q1823.74 1522.85 1823.74 1531.6 Q1823.74 1540.33 1820.66 1544.94 Q1817.6 1549.52 1811.79 1549.52 Q1805.98 1549.52 1802.9 1544.94 Q1799.85 1540.33 1799.85 1531.6 Q1799.85 1522.85 1802.9 1518.27 Q1805.98 1513.66 1811.79 1513.66 Z" fill="#000000" fill-rule="nonzero" fill-opacity="1" /><path clip-path="url(#clip320)" d="M2238.01 1544.91 L2245.65 1544.91 L2245.65 1518.55 L2237.34 1520.21 L2237.34 1515.95 L2245.6 1514.29 L2250.28 1514.29 L2250.28 1544.91 L2257.92 1544.91 L2257.92 1548.85 L2238.01 1548.85 L2238.01 1544.91 Z" fill="#000000" fill-rule="nonzero" fill-opacity="1" /><path clip-path="url(#clip320)" d="M2277.36 1517.37 Q2273.75 1517.37 2271.92 1520.93 Q2270.12 1524.47 2270.12 1531.6 Q2270.12 1538.71 2271.92 1542.27 Q2273.75 1545.82 2277.36 1545.82 Q2281 1545.82 2282.8 1542.27 Q2284.63 1538.71 2284.63 1531.6 Q2284.63 1524.47 2282.8 1520.93 Q2281 1517.37 2277.36 1517.37 M2277.36 1513.66 Q2283.17 1513.66 2286.23 1518.27 Q2289.31 1522.85 2289.31 1531.6 Q2289.31 1540.33 2286.23 1544.94 Q2283.17 1549.52 2277.36 1549.52 Q2271.55 1549.52 2268.47 1544.94 Q2265.42 1540.33 2265.42 1531.6 Q2265.42 1522.85 2268.47 1518.27 Q2271.55 1513.66 2277.36 1513.66 Z" fill="#000000" fill-rule="nonzero" fill-opacity="1" /><path clip-path="url(#clip320)" d="M2307.53 1517.37 Q2303.91 1517.37 2302.09 1520.93 Q2300.28 1524.47 2300.28 1531.6 Q2300.28 1538.71 2302.09 1542.27 Q2303.91 1545.82 2307.53 1545.82 Q2311.16 1545.82 2312.97 1542.27 Q2314.79 1538.71 2314.79 1531.6 Q2314.79 1524.47 2312.97 1520.93 Q2311.16 1517.37 2307.53 1517.37 M2307.53 1513.66 Q2313.34 1513.66 2316.39 1518.27 Q2319.47 1522.85 2319.47 1531.6 Q2319.47 1540.33 2316.39 1544.94 Q2313.34 1549.52 2307.53 1549.52 Q2301.72 1549.52 2298.64 1544.94 Q2295.58 1540.33 2295.58 1531.6 Q2295.58 1522.85 2298.64 1518.27 Q2301.72 1513.66 2307.53 1513.66 Z" fill="#000000" fill-rule="nonzero" fill-opacity="1" /><path clip-path="url(#clip320)" d="M2337.69 1517.37 Q2334.08 1517.37 2332.25 1520.93 Q2330.44 1524.47 2330.44 1531.6 Q2330.44 1538.71 2332.25 1542.27 Q2334.08 1545.82 2337.69 1545.82 Q2341.32 1545.82 2343.13 1542.27 Q2344.96 1538.71 2344.96 1531.6 Q2344.96 1524.47 2343.13 1520.93 Q2341.32 1517.37 2337.69 1517.37 M2337.69 1513.66 Q2343.5 1513.66 2346.55 1518.27 Q2349.63 1522.85 2349.63 1531.6 Q2349.63 1540.33 2346.55 1544.94 Q2343.5 1549.52 2337.69 1549.52 Q2331.88 1549.52 2328.8 1544.94 Q2325.74 1540.33 2325.74 1531.6 Q2325.74 1522.85 2328.8 1518.27 Q2331.88 1513.66 2337.69 1513.66 Z" fill="#000000" fill-rule="nonzero" fill-opacity="1" /><polyline clip-path="url(#clip322)" style="stroke:#000000; stroke-linecap:round; stroke-linejoin:round; stroke-width:2; stroke-opacity:0.1; fill:none" points="186.274,1304.28 2352.76,1304.28 "/>
<polyline clip-path="url(#clip322)" style="stroke:#000000; stroke-linecap:round; stroke-linejoin:round; stroke-width:2; stroke-opacity:0.1; fill:none" points="186.274,1021.42 2352.76,1021.42 "/>
<polyline clip-path="url(#clip322)" style="stroke:#000000; stroke-linecap:round; stroke-linejoin:round; stroke-width:2; stroke-opacity:0.1; fill:none" points="186.274,738.56 2352.76,738.56 "/>
<polyline clip-path="url(#clip322)" style="stroke:#000000; stroke-linecap:round; stroke-linejoin:round; stroke-width:2; stroke-opacity:0.1; fill:none" points="186.274,455.697 2352.76,455.697 "/>
<polyline clip-path="url(#clip322)" style="stroke:#000000; stroke-linecap:round; stroke-linejoin:round; stroke-width:2; stroke-opacity:0.1; fill:none" points="186.274,172.835 2352.76,172.835 "/>
<polyline clip-path="url(#clip320)" style="stroke:#000000; stroke-linecap:round; stroke-linejoin:round; stroke-width:4; stroke-opacity:1; fill:none" points="186.274,1486.45 186.274,47.2441 "/>
<polyline clip-path="url(#clip320)" style="stroke:#000000; stroke-linecap:round; stroke-linejoin:round; stroke-width:4; stroke-opacity:1; fill:none" points="186.274,1304.28 205.172,1304.28 "/>
<polyline clip-path="url(#clip320)" style="stroke:#000000; stroke-linecap:round; stroke-linejoin:round; stroke-width:4; stroke-opacity:1; fill:none" points="186.274,1021.42 205.172,1021.42 "/>
<polyline clip-path="url(#clip320)" style="stroke:#000000; stroke-linecap:round; stroke-linejoin:round; stroke-width:4; stroke-opacity:1; fill:none" points="186.274,738.56 205.172,738.56 "/>
<polyline clip-path="url(#clip320)" style="stroke:#000000; stroke-linecap:round; stroke-linejoin:round; stroke-width:4; stroke-opacity:1; fill:none" points="186.274,455.697 205.172,455.697 "/>
<polyline clip-path="url(#clip320)" style="stroke:#000000; stroke-linecap:round; stroke-linejoin:round; stroke-width:4; stroke-opacity:1; fill:none" points="186.274,172.835 205.172,172.835 "/>
<path clip-path="url(#clip320)" d="M63.9319 1290.08 Q60.3208 1290.08 58.4921 1293.65 Q56.6865 1297.19 56.6865 1304.32 Q56.6865 1311.43 58.4921 1314.99 Q60.3208 1318.53 63.9319 1318.53 Q67.5661 1318.53 69.3717 1314.99 Q71.2004 1311.43 71.2004 1304.32 Q71.2004 1297.19 69.3717 1293.65 Q67.5661 1290.08 63.9319 1290.08 M63.9319 1286.38 Q69.742 1286.38 72.7976 1290.99 Q75.8763 1295.57 75.8763 1304.32 Q75.8763 1313.05 72.7976 1317.65 Q69.742 1322.24 63.9319 1322.24 Q58.1217 1322.24 55.043 1317.65 Q51.9875 1313.05 51.9875 1304.32 Q51.9875 1295.57 55.043 1290.99 Q58.1217 1286.38 63.9319 1286.38 Z" fill="#000000" fill-rule="nonzero" fill-opacity="1" /><path clip-path="url(#clip320)" d="M84.0938 1315.68 L88.978 1315.68 L88.978 1321.56 L84.0938 1321.56 L84.0938 1315.68 Z" fill="#000000" fill-rule="nonzero" fill-opacity="1" /><path clip-path="url(#clip320)" d="M99.2095 1287 L117.566 1287 L117.566 1290.94 L103.492 1290.94 L103.492 1299.41 Q104.51 1299.06 105.529 1298.9 Q106.547 1298.72 107.566 1298.72 Q113.353 1298.72 116.733 1301.89 Q120.112 1305.06 120.112 1310.48 Q120.112 1316.06 116.64 1319.16 Q113.168 1322.24 106.848 1322.24 Q104.672 1322.24 102.404 1321.87 Q100.159 1321.5 97.7511 1320.75 L97.7511 1316.06 Q99.8345 1317.19 102.057 1317.75 Q104.279 1318.3 106.756 1318.3 Q110.76 1318.3 113.098 1316.19 Q115.436 1314.09 115.436 1310.48 Q115.436 1306.87 113.098 1304.76 Q110.76 1302.65 106.756 1302.65 Q104.881 1302.65 103.006 1303.07 Q101.154 1303.49 99.2095 1304.37 L99.2095 1287 Z" fill="#000000" fill-rule="nonzero" fill-opacity="1" /><path clip-path="url(#clip320)" d="M129.371 1287 L147.728 1287 L147.728 1290.94 L133.654 1290.94 L133.654 1299.41 Q134.672 1299.06 135.691 1298.9 Q136.709 1298.72 137.728 1298.72 Q143.515 1298.72 146.894 1301.89 Q150.274 1305.06 150.274 1310.48 Q150.274 1316.06 146.802 1319.16 Q143.33 1322.24 137.01 1322.24 Q134.834 1322.24 132.566 1321.87 Q130.32 1321.5 127.913 1320.75 L127.913 1316.06 Q129.996 1317.19 132.219 1317.75 Q134.441 1318.3 136.918 1318.3 Q140.922 1318.3 143.26 1316.19 Q145.598 1314.09 145.598 1310.48 Q145.598 1306.87 143.26 1304.76 Q140.922 1302.65 136.918 1302.65 Q135.043 1302.65 133.168 1303.07 Q131.316 1303.49 129.371 1304.37 L129.371 1287 Z" fill="#000000" fill-rule="nonzero" fill-opacity="1" /><path clip-path="url(#clip320)" d="M62.9365 1007.22 Q59.3254 1007.22 57.4967 1010.79 Q55.6912 1014.33 55.6912 1021.46 Q55.6912 1028.56 57.4967 1032.13 Q59.3254 1035.67 62.9365 1035.67 Q66.5707 1035.67 68.3763 1032.13 Q70.205 1028.56 70.205 1021.46 Q70.205 1014.33 68.3763 1010.79 Q66.5707 1007.22 62.9365 1007.22 M62.9365 1003.52 Q68.7467 1003.52 71.8022 1008.12 Q74.8809 1012.71 74.8809 1021.46 Q74.8809 1030.18 71.8022 1034.79 Q68.7467 1039.37 62.9365 1039.37 Q57.1264 1039.37 54.0477 1034.79 Q50.9921 1030.18 50.9921 1021.46 Q50.9921 1012.71 54.0477 1008.12 Q57.1264 1003.52 62.9365 1003.52 Z" fill="#000000" fill-rule="nonzero" fill-opacity="1" /><path clip-path="url(#clip320)" d="M83.0984 1032.82 L87.9827 1032.82 L87.9827 1038.7 L83.0984 1038.7 L83.0984 1032.82 Z" fill="#000000" fill-rule="nonzero" fill-opacity="1" /><path clip-path="url(#clip320)" d="M108.746 1019.56 Q105.598 1019.56 103.746 1021.71 Q101.918 1023.86 101.918 1027.61 Q101.918 1031.34 103.746 1033.52 Q105.598 1035.67 108.746 1035.67 Q111.895 1035.67 113.723 1033.52 Q115.575 1031.34 115.575 1027.61 Q115.575 1023.86 113.723 1021.71 Q111.895 1019.56 108.746 1019.56 M118.029 1004.91 L118.029 1009.17 Q116.27 1008.33 114.464 1007.89 Q112.682 1007.45 110.922 1007.45 Q106.293 1007.45 103.839 1010.58 Q101.409 1013.7 101.061 1020.02 Q102.427 1018.01 104.487 1016.94 Q106.547 1015.86 109.024 1015.86 Q114.233 1015.86 117.242 1019.03 Q120.274 1022.17 120.274 1027.61 Q120.274 1032.94 117.126 1036.16 Q113.978 1039.37 108.746 1039.37 Q102.751 1039.37 99.5798 1034.79 Q96.4085 1030.18 96.4085 1021.46 Q96.4085 1013.26 100.297 1008.4 Q104.186 1003.52 110.737 1003.52 Q112.496 1003.52 114.279 1003.86 Q116.084 1004.21 118.029 1004.91 Z" fill="#000000" fill-rule="nonzero" fill-opacity="1" /><path clip-path="url(#clip320)" d="M138.33 1007.22 Q134.719 1007.22 132.89 1010.79 Q131.084 1014.33 131.084 1021.46 Q131.084 1028.56 132.89 1032.13 Q134.719 1035.67 138.33 1035.67 Q141.964 1035.67 143.769 1032.13 Q145.598 1028.56 145.598 1021.46 Q145.598 1014.33 143.769 1010.79 Q141.964 1007.22 138.33 1007.22 M138.33 1003.52 Q144.14 1003.52 147.195 1008.12 Q150.274 1012.71 150.274 1021.46 Q150.274 1030.18 147.195 1034.79 Q144.14 1039.37 138.33 1039.37 Q132.519 1039.37 129.441 1034.79 Q126.385 1030.18 126.385 1021.46 Q126.385 1012.71 129.441 1008.12 Q132.519 1003.52 138.33 1003.52 Z" fill="#000000" fill-rule="nonzero" fill-opacity="1" /><path clip-path="url(#clip320)" d="M63.9319 724.358 Q60.3208 724.358 58.4921 727.923 Q56.6865 731.465 56.6865 738.594 Q56.6865 745.701 58.4921 749.266 Q60.3208 752.807 63.9319 752.807 Q67.5661 752.807 69.3717 749.266 Q71.2004 745.701 71.2004 738.594 Q71.2004 731.465 69.3717 727.923 Q67.5661 724.358 63.9319 724.358 M63.9319 720.655 Q69.742 720.655 72.7976 725.261 Q75.8763 729.845 75.8763 738.594 Q75.8763 747.321 72.7976 751.928 Q69.742 756.511 63.9319 756.511 Q58.1217 756.511 55.043 751.928 Q51.9875 747.321 51.9875 738.594 Q51.9875 729.845 55.043 725.261 Q58.1217 720.655 63.9319 720.655 Z" fill="#000000" fill-rule="nonzero" fill-opacity="1" /><path clip-path="url(#clip320)" d="M84.0938 749.96 L88.978 749.96 L88.978 755.84 L84.0938 755.84 L84.0938 749.96 Z" fill="#000000" fill-rule="nonzero" fill-opacity="1" /><path clip-path="url(#clip320)" d="M109.742 736.696 Q106.594 736.696 104.742 738.849 Q102.913 741.002 102.913 744.752 Q102.913 748.479 104.742 750.655 Q106.594 752.807 109.742 752.807 Q112.89 752.807 114.719 750.655 Q116.57 748.479 116.57 744.752 Q116.57 741.002 114.719 738.849 Q112.89 736.696 109.742 736.696 M119.024 722.044 L119.024 726.303 Q117.265 725.47 115.459 725.03 Q113.677 724.59 111.918 724.59 Q107.288 724.59 104.834 727.715 Q102.404 730.84 102.057 737.159 Q103.422 735.145 105.483 734.081 Q107.543 732.993 110.02 732.993 Q115.228 732.993 118.237 736.164 Q121.27 739.312 121.27 744.752 Q121.27 750.076 118.121 753.293 Q114.973 756.511 109.742 756.511 Q103.746 756.511 100.575 751.928 Q97.4039 747.321 97.4039 738.594 Q97.4039 730.4 101.293 725.539 Q105.182 720.655 111.733 720.655 Q113.492 720.655 115.274 721.002 Q117.08 721.349 119.024 722.044 Z" fill="#000000" fill-rule="nonzero" fill-opacity="1" /><path clip-path="url(#clip320)" d="M129.371 721.28 L147.728 721.28 L147.728 725.215 L133.654 725.215 L133.654 733.687 Q134.672 733.34 135.691 733.178 Q136.709 732.993 137.728 732.993 Q143.515 732.993 146.894 736.164 Q150.274 739.335 150.274 744.752 Q150.274 750.331 146.802 753.432 Q143.33 756.511 137.01 756.511 Q134.834 756.511 132.566 756.141 Q130.32 755.77 127.913 755.03 L127.913 750.331 Q129.996 751.465 132.219 752.02 Q134.441 752.576 136.918 752.576 Q140.922 752.576 143.26 750.469 Q145.598 748.363 145.598 744.752 Q145.598 741.141 143.26 739.034 Q140.922 736.928 136.918 736.928 Q135.043 736.928 133.168 737.344 Q131.316 737.761 129.371 738.641 L129.371 721.28 Z" fill="#000000" fill-rule="nonzero" fill-opacity="1" /><path clip-path="url(#clip320)" d="M62.9365 441.496 Q59.3254 441.496 57.4967 445.061 Q55.6912 448.602 55.6912 455.732 Q55.6912 462.839 57.4967 466.403 Q59.3254 469.945 62.9365 469.945 Q66.5707 469.945 68.3763 466.403 Q70.205 462.839 70.205 455.732 Q70.205 448.602 68.3763 445.061 Q66.5707 441.496 62.9365 441.496 M62.9365 437.792 Q68.7467 437.792 71.8022 442.399 Q74.8809 446.982 74.8809 455.732 Q74.8809 464.459 71.8022 469.065 Q68.7467 473.649 62.9365 473.649 Q57.1264 473.649 54.0477 469.065 Q50.9921 464.459 50.9921 455.732 Q50.9921 446.982 54.0477 442.399 Q57.1264 437.792 62.9365 437.792 Z" fill="#000000" fill-rule="nonzero" fill-opacity="1" /><path clip-path="url(#clip320)" d="M83.0984 467.098 L87.9827 467.098 L87.9827 472.977 L83.0984 472.977 L83.0984 467.098 Z" fill="#000000" fill-rule="nonzero" fill-opacity="1" /><path clip-path="url(#clip320)" d="M96.9872 438.417 L119.209 438.417 L119.209 440.408 L106.663 472.977 L101.779 472.977 L113.584 442.353 L96.9872 442.353 L96.9872 438.417 Z" fill="#000000" fill-rule="nonzero" fill-opacity="1" /><path clip-path="url(#clip320)" d="M138.33 441.496 Q134.719 441.496 132.89 445.061 Q131.084 448.602 131.084 455.732 Q131.084 462.839 132.89 466.403 Q134.719 469.945 138.33 469.945 Q141.964 469.945 143.769 466.403 Q145.598 462.839 145.598 455.732 Q145.598 448.602 143.769 445.061 Q141.964 441.496 138.33 441.496 M138.33 437.792 Q144.14 437.792 147.195 442.399 Q150.274 446.982 150.274 455.732 Q150.274 464.459 147.195 469.065 Q144.14 473.649 138.33 473.649 Q132.519 473.649 129.441 469.065 Q126.385 464.459 126.385 455.732 Q126.385 446.982 129.441 442.399 Q132.519 437.792 138.33 437.792 Z" fill="#000000" fill-rule="nonzero" fill-opacity="1" /><path clip-path="url(#clip320)" d="M63.9319 158.634 Q60.3208 158.634 58.4921 162.198 Q56.6865 165.74 56.6865 172.87 Q56.6865 179.976 58.4921 183.541 Q60.3208 187.083 63.9319 187.083 Q67.5661 187.083 69.3717 183.541 Q71.2004 179.976 71.2004 172.87 Q71.2004 165.74 69.3717 162.198 Q67.5661 158.634 63.9319 158.634 M63.9319 154.93 Q69.742 154.93 72.7976 159.536 Q75.8763 164.12 75.8763 172.87 Q75.8763 181.597 72.7976 186.203 Q69.742 190.786 63.9319 190.786 Q58.1217 190.786 55.043 186.203 Q51.9875 181.597 51.9875 172.87 Q51.9875 164.12 55.043 159.536 Q58.1217 154.93 63.9319 154.93 Z" fill="#000000" fill-rule="nonzero" fill-opacity="1" /><path clip-path="url(#clip320)" d="M84.0938 184.235 L88.978 184.235 L88.978 190.115 L84.0938 190.115 L84.0938 184.235 Z" fill="#000000" fill-rule="nonzero" fill-opacity="1" /><path clip-path="url(#clip320)" d="M97.9826 155.555 L120.205 155.555 L120.205 157.546 L107.658 190.115 L102.774 190.115 L114.58 159.49 L97.9826 159.49 L97.9826 155.555 Z" fill="#000000" fill-rule="nonzero" fill-opacity="1" /><path clip-path="url(#clip320)" d="M129.371 155.555 L147.728 155.555 L147.728 159.49 L133.654 159.49 L133.654 167.962 Q134.672 167.615 135.691 167.453 Q136.709 167.268 137.728 167.268 Q143.515 167.268 146.894 170.439 Q150.274 173.61 150.274 179.027 Q150.274 184.606 146.802 187.708 Q143.33 190.786 137.01 190.786 Q134.834 190.786 132.566 190.416 Q130.32 190.046 127.913 189.305 L127.913 184.606 Q129.996 185.74 132.219 186.296 Q134.441 186.851 136.918 186.851 Q140.922 186.851 143.26 184.745 Q145.598 182.638 145.598 179.027 Q145.598 175.416 143.26 173.31 Q140.922 171.203 136.918 171.203 Q135.043 171.203 133.168 171.62 Q131.316 172.036 129.371 172.916 L129.371 155.555 Z" fill="#000000" fill-rule="nonzero" fill-opacity="1" /><polyline clip-path="url(#clip322)" style="stroke:#009af9; stroke-linecap:round; stroke-linejoin:round; stroke-width:4; stroke-opacity:1; fill:none" points="247.59,427.411 249.635,710.274 251.681,370.839 253.727,512.27 255.773,766.846 257.819,483.984 259.865,653.701 261.911,1049.71 263.957,993.136 266.003,455.697 268.048,370.839 270.094,738.56 272.14,823.418 274.186,795.132 276.232,681.987 278.278,653.701 280.324,710.274 282.37,455.697 284.416,653.701 286.462,455.697 288.507,795.132 290.553,681.987 292.599,681.987 294.645,653.701 296.691,483.984 298.737,851.705 300.783,455.697 302.829,766.846 304.875,540.556 306.921,710.274 308.966,568.842 311.012,823.418 313.058,738.56 315.104,653.701 317.15,851.705 319.196,766.846 321.242,540.556 323.288,568.842 325.334,455.697 327.38,681.987 329.425,823.418 331.471,597.129 333.517,795.132 335.563,681.987 337.609,455.697 339.655,568.842 341.701,851.705 343.747,144.549 345.793,681.987 347.838,766.846 349.884,993.136 351.93,597.129 353.976,483.984 356.022,993.136 358.068,823.418 360.114,766.846 362.16,738.56 364.206,568.842 366.252,568.842 368.297,653.701 370.343,625.415 372.389,993.136 374.435,681.987 376.481,851.705 378.527,766.846 380.573,936.563 382.619,625.415 384.665,455.697 386.711,766.846 388.756,993.136 390.802,625.415 392.848,766.846 394.894,681.987 396.94,597.129 398.986,823.418 401.032,540.556 403.078,512.27 405.124,568.842 407.169,229.407 409.215,851.705 411.261,851.705 413.307,993.136 415.353,568.842 417.399,908.277 419.445,653.701 421.491,908.277 423.537,823.418 425.583,370.839 427.628,681.987 429.674,597.129 431.72,1049.71 433.766,342.552 435.812,455.697 437.858,625.415 439.904,936.563 441.95,681.987 443.996,653.701 446.042,795.132 448.087,710.274 450.133,879.991 452.179,597.129 454.225,681.987 456.271,653.701 458.317,427.411 460.363,681.987 462.409,455.697 464.455,483.984 466.5,795.132 468.546,738.56 470.592,540.556 472.638,681.987 474.684,823.418 476.73,625.415 478.776,512.27 480.822,540.556 482.868,540.556 484.914,738.56 486.959,738.56 489.005,964.85 491.051,597.129 493.097,568.842 495.143,795.132 497.189,795.132 499.235,738.56 501.281,483.984 503.327,851.705 505.373,399.125 507.418,766.846 509.464,625.415 511.51,597.129 513.556,483.984 515.602,738.56 517.648,879.991 519.694,851.705 521.74,87.9763 523.786,823.418 525.831,710.274 527.877,653.701 529.923,879.991 531.969,568.842 534.015,455.697 536.061,879.991 538.107,681.987 540.153,427.411 542.199,625.415 544.245,738.56 546.29,795.132 548.336,738.56 550.382,879.991 552.428,879.991 554.474,540.556 556.52,483.984 558.566,653.701 560.612,795.132 562.658,455.697 564.704,399.125 566.749,993.136 568.795,342.552 570.841,1162.85 572.887,710.274 574.933,653.701 576.979,908.277 579.025,597.129 581.071,257.694 583.117,483.984 585.162,738.56 587.208,653.701 589.254,597.129 591.3,766.846 593.346,427.411 595.392,483.984 597.438,568.842 599.484,597.129 601.53,851.705 603.576,314.266 605.621,795.132 607.667,908.277 609.713,710.274 611.759,540.556 613.805,568.842 615.851,766.846 617.897,597.129 619.943,653.701 621.989,681.987 624.035,766.846 626.08,879.991 628.126,568.842 630.172,681.987 632.218,738.56 634.264,653.701 636.31,597.129 638.356,625.415 640.402,427.411 642.448,681.987 644.493,540.556 646.539,285.98 648.585,483.984 650.631,795.132 652.677,795.132 654.723,483.984 656.769,568.842 658.815,795.132 660.861,879.991 662.907,625.415 664.952,568.842 666.998,738.56 669.044,1077.99 671.09,766.846 673.136,710.274 675.182,568.842 677.228,851.705 679.274,568.842 681.32,597.129 683.366,738.56 685.411,795.132 687.457,936.563 689.503,766.846 691.549,483.984 693.595,851.705 695.641,568.842 697.687,427.411 699.733,455.697 701.779,1106.28 703.825,879.991 705.87,625.415 707.916,681.987 709.962,427.411 712.008,1021.42 714.054,597.129 716.1,1162.85 718.146,851.705 720.192,653.701 722.238,936.563 724.283,738.56 726.329,1077.99 728.375,823.418 730.421,795.132 732.467,653.701 734.513,851.705 736.559,993.136 738.605,879.991 740.651,710.274 742.697,964.85 744.742,681.987 746.788,851.705 748.834,879.991 750.88,766.846 752.926,823.418 754.972,1077.99 757.018,710.274 759.064,597.129 761.11,823.418 763.156,851.705 765.201,568.842 767.247,455.697 769.293,738.56 771.339,1077.99 773.385,936.563 775.431,993.136 777.477,540.556 779.523,766.846 781.569,1077.99 783.614,1191.14 785.66,653.701 787.706,851.705 789.752,710.274 791.798,823.418 793.844,681.987 795.89,1021.42 797.936,936.563 799.982,823.418 802.028,681.987 804.073,399.125 806.119,766.846 808.165,936.563 810.211,653.701 812.257,540.556 814.303,625.415 816.349,908.277 818.395,1077.99 820.441,908.277 822.487,766.846 824.532,653.701 826.578,399.125 828.624,625.415 830.67,879.991 832.716,851.705 834.762,993.136 836.808,625.415 838.854,399.125 840.9,1077.99 842.945,625.415 844.991,427.411 847.037,653.701 849.083,653.701 851.129,399.125 853.175,795.132 855.221,681.987 857.267,823.418 859.313,1219.43 861.359,625.415 863.404,766.846 865.45,795.132 867.496,399.125 869.542,681.987 871.588,681.987 873.634,766.846 875.68,766.846 877.726,1077.99 879.772,710.274 881.818,568.842 883.863,681.987 885.909,568.842 887.955,993.136 890.001,851.705 892.047,455.697 894.093,879.991 896.139,681.987 898.185,823.418 900.231,738.56 902.276,597.129 904.322,851.705 906.368,625.415 908.414,908.277 910.46,681.987 912.506,653.701 914.552,653.701 916.598,710.274 918.644,879.991 920.69,370.839 922.735,993.136 924.781,795.132 926.827,427.411 928.873,738.56 930.919,455.697 932.965,653.701 935.011,314.266 937.057,512.27 939.103,795.132 941.149,766.846 943.194,568.842 945.24,483.984 947.286,540.556 949.332,625.415 951.378,936.563 953.424,823.418 955.47,851.705 957.516,653.701 959.562,710.274 961.607,964.85 963.653,681.987 965.699,851.705 967.745,710.274 969.791,483.984 971.837,738.56 973.883,1021.42 975.929,625.415 977.975,710.274 980.021,455.697 982.066,568.842 984.112,738.56 986.158,681.987 988.204,710.274 990.25,568.842 992.296,455.697 994.342,653.701 996.388,597.129 998.434,936.563 1000.48,964.85 1002.53,823.418 1004.57,681.987 1006.62,370.839 1008.66,710.274 1010.71,653.701 1012.75,342.552 1014.8,512.27 1016.85,455.697 1018.89,597.129 1020.94,936.563 1022.98,879.991 1025.03,908.277 1027.08,823.418 1029.12,681.987 1031.17,399.125 1033.21,738.56 1035.26,851.705 1037.31,625.415 1039.35,823.418 1041.4,314.266 1043.44,738.56 1045.49,738.56 1047.54,766.846 1049.58,766.846 1051.63,483.984 1053.67,710.274 1055.72,1077.99 1057.76,964.85 1059.81,823.418 1061.86,908.277 1063.9,908.277 1065.95,568.842 1067.99,625.415 1070.04,710.274 1072.09,879.991 1074.13,681.987 1076.18,625.415 1078.22,597.129 1080.27,738.56 1082.32,1219.43 1084.36,314.266 1086.41,823.418 1088.45,427.411 1090.5,1219.43 1092.54,964.85 1094.59,512.27 1096.64,908.277 1098.68,597.129 1100.73,540.556 1102.77,455.697 1104.82,568.842 1106.87,738.56 1108.91,540.556 1110.96,766.846 1113,653.701 1115.05,653.701 1117.1,512.27 1119.14,342.552 1121.19,823.418 1123.23,795.132 1125.28,568.842 1127.33,483.984 1129.37,823.418 1131.42,710.274 1133.46,653.701 1135.51,738.56 1137.55,710.274 1139.6,455.697 1141.65,710.274 1143.69,738.56 1145.74,568.842 1147.78,879.991 1149.83,738.56 1151.88,738.56 1153.92,568.842 1155.97,851.705 1158.01,710.274 1160.06,1021.42 1162.11,512.27 1164.15,879.991 1166.2,681.987 1168.24,795.132 1170.29,653.701 1172.33,625.415 1174.38,766.846 1176.43,795.132 1178.47,1021.42 1180.52,879.991 1182.56,738.56 1184.61,710.274 1186.66,568.842 1188.7,597.129 1190.75,512.27 1192.79,766.846 1194.84,512.27 1196.89,512.27 1198.93,681.987 1200.98,1049.71 1203.02,795.132 1205.07,738.56 1207.12,314.266 1209.16,795.132 1211.21,540.556 1213.25,625.415 1215.3,710.274 1217.34,512.27 1219.39,653.701 1221.44,993.136 1223.48,399.125 1225.53,738.56 1227.57,540.556 1229.62,766.846 1231.67,1021.42 1233.71,399.125 1235.76,625.415 1237.8,681.987 1239.85,568.842 1241.9,681.987 1243.94,710.274 1245.99,710.274 1248.03,1134.57 1250.08,540.556 1252.12,257.694 1254.17,653.701 1256.22,597.129 1258.26,1134.57 1260.31,908.277 1262.35,795.132 1264.4,681.987 1266.45,879.991 1268.49,625.415 1270.54,851.705 1272.58,738.56 1274.63,427.411 1276.68,625.415 1278.72,1162.85 1280.77,710.274 1282.81,653.701 1284.86,625.415 1286.91,908.277 1288.95,738.56 1291,625.415 1293.04,936.563 1295.09,597.129 1297.13,1049.71 1299.18,427.411 1301.23,597.129 1303.27,681.987 1305.32,483.984 1307.36,908.277 1309.41,1106.28 1311.46,540.556 1313.5,681.987 1315.55,597.129 1317.59,681.987 1319.64,568.842 1321.69,540.556 1323.73,201.121 1325.78,936.563 1327.82,823.418 1329.87,455.697 1331.91,1445.72 1333.96,597.129 1336.01,568.842 1338.05,851.705 1340.1,597.129 1342.14,1021.42 1344.19,851.705 1346.24,823.418 1348.28,653.701 1350.33,851.705 1352.37,795.132 1354.42,993.136 1356.47,879.991 1358.51,342.552 1360.56,710.274 1362.6,681.987 1364.65,540.556 1366.7,710.274 1368.74,1077.99 1370.79,540.556 1372.83,738.56 1374.88,823.418 1376.92,738.56 1378.97,597.129 1381.02,681.987 1383.06,879.991 1385.11,710.274 1387.15,399.125 1389.2,257.694 1391.25,512.27 1393.29,851.705 1395.34,908.277 1397.38,653.701 1399.43,710.274 1401.48,1106.28 1403.52,653.701 1405.57,795.132 1407.61,314.266 1409.66,738.56 1411.7,964.85 1413.75,512.27 1415.8,597.129 1417.84,314.266 1419.89,1049.71 1421.93,597.129 1423.98,795.132 1426.03,879.991 1428.07,879.991 1430.12,512.27 1432.16,710.274 1434.21,512.27 1436.26,1049.71 1438.3,766.846 1440.35,681.987 1442.39,964.85 1444.44,625.415 1446.49,823.418 1448.53,399.125 1450.58,795.132 1452.62,512.27 1454.67,823.418 1456.71,851.705 1458.76,710.274 1460.81,879.991 1462.85,1021.42 1464.9,625.415 1466.94,908.277 1468.99,738.56 1471.04,681.987 1473.08,653.701 1475.13,399.125 1477.17,738.56 1479.22,568.842 1481.27,908.277 1483.31,710.274 1485.36,908.277 1487.4,597.129 1489.45,738.56 1491.49,342.552 1493.54,738.56 1495.59,795.132 1497.63,455.697 1499.68,1021.42 1501.72,766.846 1503.77,399.125 1505.82,568.842 1507.86,625.415 1509.91,823.418 1511.95,483.984 1514,936.563 1516.05,285.98 1518.09,568.842 1520.14,427.411 1522.18,710.274 1524.23,766.846 1526.27,936.563 1528.32,795.132 1530.37,908.277 1532.41,795.132 1534.46,427.411 1536.5,908.277 1538.55,879.991 1540.6,766.846 1542.64,851.705 1544.69,625.415 1546.73,681.987 1548.78,625.415 1550.83,540.556 1552.87,823.418 1554.92,172.835 1556.96,851.705 1559.01,597.129 1561.06,399.125 1563.1,625.415 1565.15,625.415 1567.19,597.129 1569.24,399.125 1571.28,653.701 1573.33,766.846 1575.38,653.701 1577.42,427.411 1579.47,908.277 1581.51,908.277 1583.56,399.125 1585.61,512.27 1587.65,568.842 1589.7,512.27 1591.74,597.129 1593.79,710.274 1595.84,568.842 1597.88,342.552 1599.93,879.991 1601.97,172.835 1604.02,427.411 1606.06,399.125 1608.11,427.411 1610.16,653.701 1612.2,823.418 1614.25,766.846 1616.29,766.846 1618.34,540.556 1620.39,738.56 1622.43,625.415 1624.48,455.697 1626.52,597.129 1628.57,568.842 1630.62,766.846 1632.66,512.27 1634.71,512.27 1636.75,568.842 1638.8,568.842 1640.85,738.56 1642.89,342.552 1644.94,512.27 1646.98,710.274 1649.03,512.27 1651.07,512.27 1653.12,512.27 1655.17,766.846 1657.21,766.846 1659.26,625.415 1661.3,625.415 1663.35,625.415 1665.4,314.266 1667.44,455.697 1669.49,342.552 1671.53,483.984 1673.58,512.27 1675.63,823.418 1677.67,597.129 1679.72,681.987 1681.76,795.132 1683.81,399.125 1685.85,851.705 1687.9,568.842 1689.95,512.27 1691.99,625.415 1694.04,710.274 1696.08,681.987 1698.13,879.991 1700.18,964.85 1702.22,540.556 1704.27,681.987 1706.31,540.556 1708.36,540.556 1710.41,540.556 1712.45,653.701 1714.5,512.27 1716.54,653.701 1718.59,399.125 1720.64,653.701 1722.68,964.85 1724.73,568.842 1726.77,908.277 1728.82,512.27 1730.86,455.697 1732.91,795.132 1734.96,766.846 1737,455.697 1739.05,229.407 1741.09,879.991 1743.14,257.694 1745.19,653.701 1747.23,568.842 1749.28,653.701 1751.32,823.418 1753.37,597.129 1755.42,568.842 1757.46,568.842 1759.51,625.415 1761.55,483.984 1763.6,512.27 1765.64,625.415 1767.69,540.556 1769.74,738.56 1771.78,738.56 1773.83,795.132 1775.87,795.132 1777.92,681.987 1779.97,568.842 1782.01,653.701 1784.06,625.415 1786.1,427.411 1788.15,342.552 1790.2,399.125 1792.24,766.846 1794.29,314.266 1796.33,285.98 1798.38,823.418 1800.43,455.697 1802.47,568.842 1804.52,766.846 1806.56,681.987 1808.61,710.274 1810.65,653.701 1812.7,1134.57 1814.75,597.129 1816.79,512.27 1818.84,653.701 1820.88,229.407 1822.93,314.266 1824.98,795.132 1827.02,455.697 1829.07,512.27 1831.11,455.697 1833.16,285.98 1835.21,568.842 1837.25,681.987 1839.3,597.129 1841.34,285.98 1843.39,597.129 1845.43,851.705 1847.48,399.125 1849.53,201.121 1851.57,681.987 1853.62,738.56 1855.66,483.984 1857.71,766.846 1859.76,653.701 1861.8,597.129 1863.85,766.846 1865.89,710.274 1867.94,370.839 1869.99,681.987 1872.03,455.697 1874.08,455.697 1876.12,455.697 1878.17,512.27 1880.22,879.991 1882.26,257.694 1884.31,144.549 1886.35,738.56 1888.4,455.697 1890.44,1106.28 1892.49,766.846 1894.54,597.129 1896.58,710.274 1898.63,370.839 1900.67,455.697 1902.72,993.136 1904.77,370.839 1906.81,738.56 1908.86,653.701 1910.9,540.556 1912.95,399.125 1915,653.701 1917.04,342.552 1919.09,285.98 1921.13,370.839 1923.18,879.991 1925.22,879.991 1927.27,257.694 1929.32,738.56 1931.36,568.842 1933.41,625.415 1935.45,597.129 1937.5,653.701 1939.55,427.411 1941.59,653.701 1943.64,710.274 1945.68,851.705 1947.73,483.984 1949.78,568.842 1951.82,625.415 1953.87,738.56 1955.91,314.266 1957.96,370.839 1960.01,851.705 1962.05,342.552 1964.1,597.129 1966.14,1021.42 1968.19,314.266 1970.23,399.125 1972.28,568.842 1974.33,483.984 1976.37,1021.42 1978.42,512.27 1980.46,540.556 1982.51,625.415 1984.56,710.274 1986.6,144.549 1988.65,568.842 1990.69,455.697 1992.74,597.129 1994.79,823.418 1996.83,540.556 1998.88,201.121 2000.92,568.842 2002.97,710.274 2005.01,568.842 2007.06,908.277 2009.11,993.136 2011.15,540.556 2013.2,625.415 2015.24,568.842 2017.29,427.411 2019.34,314.266 2021.38,427.411 2023.43,483.984 2025.47,285.98 2027.52,625.415 2029.57,568.842 2031.61,540.556 2033.66,625.415 2035.7,483.984 2037.75,540.556 2039.8,597.129 2041.84,455.697 2043.89,625.415 2045.93,597.129 2047.98,399.125 2050.02,512.27 2052.07,455.697 2054.12,229.407 2056.16,568.842 2058.21,766.846 2060.25,512.27 2062.3,597.129 2064.35,427.411 2066.39,597.129 2068.44,399.125 2070.48,342.552 2072.53,483.984 2074.58,710.274 2076.62,257.694 2078.67,399.125 2080.71,964.85 2082.76,681.987 2084.8,427.411 2086.85,540.556 2088.9,568.842 2090.94,653.701 2092.99,483.984 2095.03,964.85 2097.08,681.987 2099.13,568.842 2101.17,653.701 2103.22,681.987 2105.26,653.701 2107.31,540.556 2109.36,710.274 2111.4,285.98 2113.45,568.842 2115.49,653.701 2117.54,625.415 2119.59,681.987 2121.63,625.415 2123.68,597.129 2125.72,342.552 2127.77,625.415 2129.81,823.418 2131.86,229.407 2133.91,370.839 2135.95,483.984 2138,314.266 2140.04,681.987 2142.09,540.556 2144.14,625.415 2146.18,738.56 2148.23,993.136 2150.27,455.697 2152.32,766.846 2154.37,257.694 2156.41,483.984 2158.46,625.415 2160.5,483.984 2162.55,455.697 2164.59,427.411 2166.64,795.132 2168.69,483.984 2170.73,540.556 2172.78,370.839 2174.82,257.694 2176.87,568.842 2178.92,427.411 2180.96,512.27 2183.01,851.705 2185.05,625.415 2187.1,851.705 2189.15,568.842 2191.19,681.987 2193.24,427.411 2195.28,427.411 2197.33,370.839 2199.38,285.98 2201.42,201.121 2203.47,257.694 2205.51,823.418 2207.56,342.552 2209.6,738.56 2211.65,427.411 2213.7,512.27 2215.74,483.984 2217.79,314.266 2219.83,314.266 2221.88,597.129 2223.93,540.556 2225.97,87.9763 2228.02,512.27 2230.06,257.694 2232.11,399.125 2234.16,710.274 2236.2,342.552 2238.25,597.129 2240.29,229.407 2242.34,964.85 2244.38,399.125 2246.43,427.411 2248.48,597.129 2250.52,370.839 2252.57,342.552 2254.61,370.839 2256.66,851.705 2258.71,285.98 2260.75,681.987 2262.8,766.846 2264.84,710.274 2266.89,653.701 2268.94,427.411 2270.98,936.563 2273.03,483.984 2275.07,512.27 2277.12,342.552 2279.16,370.839 2281.21,908.277 2283.26,483.984 2285.3,314.266 2287.35,370.839 2289.39,285.98 2291.44,342.552 "/>
<path clip-path="url(#clip320)" d="M2011.46 1438.47 L2280.54 1438.47 L2280.54 1334.79 L2011.46 1334.79  Z" fill="#ffffff" fill-rule="evenodd" fill-opacity="1"/>
<polyline clip-path="url(#clip320)" style="stroke:#000000; stroke-linecap:round; stroke-linejoin:round; stroke-width:4; stroke-opacity:1; fill:none" points="2011.46,1438.47 2280.54,1438.47 2280.54,1334.79 2011.46,1334.79 2011.46,1438.47 "/>
<polyline clip-path="url(#clip320)" style="stroke:#009af9; stroke-linecap:round; stroke-linejoin:round; stroke-width:4; stroke-opacity:1; fill:none" points="2035.53,1386.63 2179.97,1386.63 "/>
<path clip-path="url(#clip320)" d="M2217.88 1406.32 Q2216.07 1410.95 2214.36 1412.36 Q2212.65 1413.78 2209.78 1413.78 L2206.38 1413.78 L2206.38 1410.21 L2208.88 1410.21 Q2210.63 1410.21 2211.61 1409.38 Q2212.58 1408.54 2213.76 1405.44 L2214.52 1403.5 L2204.04 1377.99 L2208.55 1377.99 L2216.65 1398.27 L2224.76 1377.99 L2229.27 1377.99 L2217.88 1406.32 Z" fill="#000000" fill-rule="nonzero" fill-opacity="1" /><path clip-path="url(#clip320)" d="M2236.56 1399.98 L2244.2 1399.98 L2244.2 1373.61 L2235.89 1375.28 L2235.89 1371.02 L2244.15 1369.35 L2248.83 1369.35 L2248.83 1399.98 L2256.47 1399.98 L2256.47 1403.91 L2236.56 1403.91 L2236.56 1399.98 Z" fill="#000000" fill-rule="nonzero" fill-opacity="1" /></svg>
