<?xml version="1.0" encoding="utf-8"?>
<svg xmlns="http://www.w3.org/2000/svg" xmlns:xlink="http://www.w3.org/1999/xlink" width="600" height="400" viewBox="0 0 2400 1600">
<defs>
  <clipPath id="clip690">
    <rect x="0" y="0" width="2400" height="1600"/>
  </clipPath>
</defs>
<path clip-path="url(#clip690)" d="M0 1600 L2400 1600 L2400 0 L0 0  Z" fill="#ffffff" fill-rule="evenodd" fill-opacity="1"/>
<defs>
  <clipPath id="clip691">
    <rect x="480" y="0" width="1681" height="1600"/>
  </clipPath>
</defs>
<path clip-path="url(#clip690)" d="M184.191 1486.45 L2352.76 1486.45 L2352.76 47.2441 L184.191 47.2441  Z" fill="#ffffff" fill-rule="evenodd" fill-opacity="1"/>
<defs>
  <clipPath id="clip692">
    <rect x="184" y="47" width="2170" height="1440"/>
  </clipPath>
</defs>
<polyline clip-path="url(#clip692)" style="stroke:#000000; stroke-linecap:round; stroke-linejoin:round; stroke-width:2; stroke-opacity:0.1; fill:none" points="245.565,1486.45 245.565,47.2441 "/>
<polyline clip-path="url(#clip692)" style="stroke:#000000; stroke-linecap:round; stroke-linejoin:round; stroke-width:2; stroke-opacity:0.1; fill:none" points="757.019,1486.45 757.019,47.2441 "/>
<polyline clip-path="url(#clip692)" style="stroke:#000000; stroke-linecap:round; stroke-linejoin:round; stroke-width:2; stroke-opacity:0.1; fill:none" points="1268.47,1486.45 1268.47,47.2441 "/>
<polyline clip-path="url(#clip692)" style="stroke:#000000; stroke-linecap:round; stroke-linejoin:round; stroke-width:2; stroke-opacity:0.1; fill:none" points="1779.93,1486.45 1779.93,47.2441 "/>
<polyline clip-path="url(#clip692)" style="stroke:#000000; stroke-linecap:round; stroke-linejoin:round; stroke-width:2; stroke-opacity:0.1; fill:none" points="2291.38,1486.45 2291.38,47.2441 "/>
<polyline clip-path="url(#clip690)" style="stroke:#000000; stroke-linecap:round; stroke-linejoin:round; stroke-width:4; stroke-opacity:1; fill:none" points="184.191,1486.45 2352.76,1486.45 "/>
<polyline clip-path="url(#clip690)" style="stroke:#000000; stroke-linecap:round; stroke-linejoin:round; stroke-width:4; stroke-opacity:1; fill:none" points="245.565,1486.45 245.565,1467.55 "/>
<polyline clip-path="url(#clip690)" style="stroke:#000000; stroke-linecap:round; stroke-linejoin:round; stroke-width:4; stroke-opacity:1; fill:none" points="757.019,1486.45 757.019,1467.55 "/>
<polyline clip-path="url(#clip690)" style="stroke:#000000; stroke-linecap:round; stroke-linejoin:round; stroke-width:4; stroke-opacity:1; fill:none" points="1268.47,1486.45 1268.47,1467.55 "/>
<polyline clip-path="url(#clip690)" style="stroke:#000000; stroke-linecap:round; stroke-linejoin:round; stroke-width:4; stroke-opacity:1; fill:none" points="1779.93,1486.45 1779.93,1467.55 "/>
<polyline clip-path="url(#clip690)" style="stroke:#000000; stroke-linecap:round; stroke-linejoin:round; stroke-width:4; stroke-opacity:1; fill:none" points="2291.38,1486.45 2291.38,1467.55 "/>
<path clip-path="url(#clip690)" d="M245.565 1517.37 Q241.954 1517.37 240.125 1520.93 Q238.32 1524.47 238.32 1531.6 Q238.32 1538.71 240.125 1542.27 Q241.954 1545.82 245.565 1545.82 Q249.199 1545.82 251.005 1542.27 Q252.834 1538.71 252.834 1531.6 Q252.834 1524.47 251.005 1520.93 Q249.199 1517.37 245.565 1517.37 M245.565 1513.66 Q251.375 1513.66 254.431 1518.27 Q257.51 1522.85 257.51 1531.6 Q257.51 1540.33 254.431 1544.94 Q251.375 1549.52 245.565 1549.52 Q239.755 1549.52 236.676 1544.94 Q233.621 1540.33 233.621 1531.6 Q233.621 1522.85 236.676 1518.27 Q239.755 1513.66 245.565 1513.66 Z" fill="#000000" fill-rule="nonzero" fill-opacity="1" /><path clip-path="url(#clip690)" d="M716.638 1514.29 L734.994 1514.29 L734.994 1518.22 L720.92 1518.22 L720.92 1526.7 Q721.938 1526.35 722.957 1526.19 Q723.975 1526 724.994 1526 Q730.781 1526 734.161 1529.17 Q737.54 1532.34 737.54 1537.76 Q737.54 1543.34 734.068 1546.44 Q730.596 1549.52 724.276 1549.52 Q722.1 1549.52 719.832 1549.15 Q717.587 1548.78 715.179 1548.04 L715.179 1543.34 Q717.262 1544.47 719.485 1545.03 Q721.707 1545.58 724.184 1545.58 Q728.188 1545.58 730.526 1543.48 Q732.864 1541.37 732.864 1537.76 Q732.864 1534.15 730.526 1532.04 Q728.188 1529.94 724.184 1529.94 Q722.309 1529.94 720.434 1530.35 Q718.582 1530.77 716.638 1531.65 L716.638 1514.29 Z" fill="#000000" fill-rule="nonzero" fill-opacity="1" /><path clip-path="url(#clip690)" d="M756.753 1517.37 Q753.142 1517.37 751.313 1520.93 Q749.508 1524.47 749.508 1531.6 Q749.508 1538.71 751.313 1542.27 Q753.142 1545.82 756.753 1545.82 Q760.387 1545.82 762.193 1542.27 Q764.022 1538.71 764.022 1531.6 Q764.022 1524.47 762.193 1520.93 Q760.387 1517.37 756.753 1517.37 M756.753 1513.66 Q762.563 1513.66 765.619 1518.27 Q768.697 1522.85 768.697 1531.6 Q768.697 1540.33 765.619 1544.94 Q762.563 1549.52 756.753 1549.52 Q750.943 1549.52 747.864 1544.94 Q744.809 1540.33 744.809 1531.6 Q744.809 1522.85 747.864 1518.27 Q750.943 1513.66 756.753 1513.66 Z" fill="#000000" fill-rule="nonzero" fill-opacity="1" /><path clip-path="url(#clip690)" d="M786.915 1517.37 Q783.304 1517.37 781.475 1520.93 Q779.67 1524.47 779.67 1531.6 Q779.67 1538.71 781.475 1542.27 Q783.304 1545.82 786.915 1545.82 Q790.549 1545.82 792.355 1542.27 Q794.183 1538.71 794.183 1531.6 Q794.183 1524.47 792.355 1520.93 Q790.549 1517.37 786.915 1517.37 M786.915 1513.66 Q792.725 1513.66 795.781 1518.27 Q798.859 1522.85 798.859 1531.6 Q798.859 1540.33 795.781 1544.94 Q792.725 1549.52 786.915 1549.52 Q781.105 1549.52 778.026 1544.94 Q774.971 1540.33 774.971 1531.6 Q774.971 1522.85 778.026 1518.27 Q781.105 1513.66 786.915 1513.66 Z" fill="#000000" fill-rule="nonzero" fill-opacity="1" /><path clip-path="url(#clip690)" d="M1213 1544.91 L1220.64 1544.91 L1220.64 1518.55 L1212.33 1520.21 L1212.33 1515.95 L1220.59 1514.29 L1225.27 1514.29 L1225.27 1544.91 L1232.91 1544.91 L1232.91 1548.85 L1213 1548.85 L1213 1544.91 Z" fill="#000000" fill-rule="nonzero" fill-opacity="1" /><path clip-path="url(#clip690)" d="M1252.35 1517.37 Q1248.74 1517.37 1246.91 1520.93 Q1245.11 1524.47 1245.11 1531.6 Q1245.11 1538.71 1246.91 1542.27 Q1248.74 1545.82 1252.35 1545.82 Q1255.98 1545.82 1257.79 1542.27 Q1259.62 1538.71 1259.62 1531.6 Q1259.62 1524.47 1257.79 1520.93 Q1255.98 1517.37 1252.35 1517.37 M1252.35 1513.66 Q1258.16 1513.66 1261.22 1518.27 Q1264.3 1522.85 1264.3 1531.6 Q1264.3 1540.33 1261.22 1544.94 Q1258.16 1549.52 1252.35 1549.52 Q1246.54 1549.52 1243.46 1544.94 Q1240.41 1540.33 1240.41 1531.6 Q1240.41 1522.85 1243.46 1518.27 Q1246.54 1513.66 1252.35 1513.66 Z" fill="#000000" fill-rule="nonzero" fill-opacity="1" /><path clip-path="url(#clip690)" d="M1282.51 1517.37 Q1278.9 1517.37 1277.07 1520.93 Q1275.27 1524.47 1275.27 1531.6 Q1275.27 1538.71 1277.07 1542.27 Q1278.9 1545.82 1282.51 1545.82 Q1286.15 1545.82 1287.95 1542.27 Q1289.78 1538.71 1289.78 1531.6 Q1289.78 1524.47 1287.95 1520.93 Q1286.15 1517.37 1282.51 1517.37 M1282.51 1513.66 Q1288.32 1513.66 1291.38 1518.27 Q1294.46 1522.85 1294.46 1531.6 Q1294.46 1540.33 1291.38 1544.94 Q1288.32 1549.52 1282.51 1549.52 Q1276.7 1549.52 1273.62 1544.94 Q1270.57 1540.33 1270.57 1531.6 Q1270.57 1522.85 1273.62 1518.27 Q1276.7 1513.66 1282.51 1513.66 Z" fill="#000000" fill-rule="nonzero" fill-opacity="1" /><path clip-path="url(#clip690)" d="M1312.67 1517.37 Q1309.06 1517.37 1307.23 1520.93 Q1305.43 1524.47 1305.43 1531.6 Q1305.43 1538.71 1307.23 1542.27 Q1309.06 1545.82 1312.67 1545.82 Q1316.31 1545.82 1318.11 1542.27 Q1319.94 1538.71 1319.94 1531.6 Q1319.94 1524.47 1318.11 1520.93 Q1316.31 1517.37 1312.67 1517.37 M1312.67 1513.66 Q1318.48 1513.66 1321.54 1518.27 Q1324.62 1522.85 1324.62 1531.6 Q1324.62 1540.33 1321.54 1544.94 Q1318.48 1549.52 1312.67 1549.52 Q1306.86 1549.52 1303.79 1544.94 Q1300.73 1540.33 1300.73 1531.6 Q1300.73 1522.85 1303.79 1518.27 Q1306.86 1513.66 1312.67 1513.66 Z" fill="#000000" fill-rule="nonzero" fill-opacity="1" /><path clip-path="url(#clip690)" d="M1724.45 1544.91 L1732.09 1544.91 L1732.09 1518.55 L1723.78 1520.21 L1723.78 1515.95 L1732.05 1514.29 L1736.72 1514.29 L1736.72 1544.91 L1744.36 1544.91 L1744.36 1548.85 L1724.45 1548.85 L1724.45 1544.91 Z" fill="#000000" fill-rule="nonzero" fill-opacity="1" /><path clip-path="url(#clip690)" d="M1753.85 1514.29 L1772.21 1514.29 L1772.21 1518.22 L1758.13 1518.22 L1758.13 1526.7 Q1759.15 1526.35 1760.17 1526.19 Q1761.19 1526 1762.21 1526 Q1767.99 1526 1771.37 1529.17 Q1774.75 1532.34 1774.75 1537.76 Q1774.75 1543.34 1771.28 1546.44 Q1767.81 1549.52 1761.49 1549.52 Q1759.31 1549.52 1757.05 1549.15 Q1754.8 1548.78 1752.39 1548.04 L1752.39 1543.34 Q1754.48 1544.47 1756.7 1545.03 Q1758.92 1545.58 1761.4 1545.58 Q1765.4 1545.58 1767.74 1543.48 Q1770.08 1541.37 1770.08 1537.76 Q1770.08 1534.15 1767.74 1532.04 Q1765.4 1529.94 1761.4 1529.94 Q1759.52 1529.94 1757.65 1530.35 Q1755.8 1530.77 1753.85 1531.65 L1753.85 1514.29 Z" fill="#000000" fill-rule="nonzero" fill-opacity="1" /><path clip-path="url(#clip690)" d="M1793.97 1517.37 Q1790.36 1517.37 1788.53 1520.93 Q1786.72 1524.47 1786.72 1531.6 Q1786.72 1538.71 1788.53 1542.27 Q1790.36 1545.82 1793.97 1545.82 Q1797.6 1545.82 1799.41 1542.27 Q1801.24 1538.71 1801.24 1531.6 Q1801.24 1524.47 1799.41 1520.93 Q1797.6 1517.37 1793.97 1517.37 M1793.97 1513.66 Q1799.78 1513.66 1802.83 1518.27 Q1805.91 1522.85 1805.91 1531.6 Q1805.91 1540.33 1802.83 1544.94 Q1799.78 1549.52 1793.97 1549.52 Q1788.16 1549.52 1785.08 1544.94 Q1782.02 1540.33 1782.02 1531.6 Q1782.02 1522.85 1785.08 1518.27 Q1788.16 1513.66 1793.97 1513.66 Z" fill="#000000" fill-rule="nonzero" fill-opacity="1" /><path clip-path="url(#clip690)" d="M1824.13 1517.37 Q1820.52 1517.37 1818.69 1520.93 Q1816.88 1524.47 1816.88 1531.6 Q1816.88 1538.71 1818.69 1542.27 Q1820.52 1545.82 1824.13 1545.82 Q1827.76 1545.82 1829.57 1542.27 Q1831.4 1538.71 1831.4 1531.6 Q1831.4 1524.47 1829.57 1520.93 Q1827.76 1517.37 1824.13 1517.37 M1824.13 1513.66 Q1829.94 1513.66 1832.99 1518.27 Q1836.07 1522.85 1836.07 1531.6 Q1836.07 1540.33 1832.99 1544.94 Q1829.94 1549.52 1824.13 1549.52 Q1818.32 1549.52 1815.24 1544.94 Q1812.18 1540.33 1812.18 1531.6 Q1812.18 1522.85 1815.24 1518.27 Q1818.32 1513.66 1824.13 1513.66 Z" fill="#000000" fill-rule="nonzero" fill-opacity="1" /><path clip-path="url(#clip690)" d="M2239.99 1544.91 L2256.31 1544.91 L2256.31 1548.85 L2234.37 1548.85 L2234.37 1544.91 Q2237.03 1542.16 2241.61 1537.53 Q2246.22 1532.88 2247.4 1531.53 Q2249.65 1529.01 2250.53 1527.27 Q2251.43 1525.51 2251.43 1523.82 Q2251.43 1521.07 2249.48 1519.33 Q2247.56 1517.6 2244.46 1517.6 Q2242.26 1517.6 2239.81 1518.36 Q2237.38 1519.13 2234.6 1520.68 L2234.6 1515.95 Q2237.42 1514.82 2239.88 1514.24 Q2242.33 1513.66 2244.37 1513.66 Q2249.74 1513.66 2252.93 1516.35 Q2256.13 1519.03 2256.13 1523.52 Q2256.13 1525.65 2255.32 1527.57 Q2254.53 1529.47 2252.42 1532.07 Q2251.84 1532.74 2248.74 1535.95 Q2245.64 1539.15 2239.99 1544.91 Z" fill="#000000" fill-rule="nonzero" fill-opacity="1" /><path clip-path="url(#clip690)" d="M2276.13 1517.37 Q2272.52 1517.37 2270.69 1520.93 Q2268.88 1524.47 2268.88 1531.6 Q2268.88 1538.71 2270.69 1542.27 Q2272.52 1545.82 2276.13 1545.82 Q2279.76 1545.82 2281.57 1542.27 Q2283.4 1538.71 2283.4 1531.6 Q2283.4 1524.47 2281.57 1520.93 Q2279.76 1517.37 2276.13 1517.37 M2276.13 1513.66 Q2281.94 1513.66 2284.99 1518.27 Q2288.07 1522.85 2288.07 1531.6 Q2288.07 1540.33 2284.99 1544.94 Q2281.94 1549.52 2276.13 1549.52 Q2270.32 1549.52 2267.24 1544.94 Q2264.18 1540.33 2264.18 1531.6 Q2264.18 1522.85 2267.24 1518.27 Q2270.32 1513.66 2276.13 1513.66 Z" fill="#000000" fill-rule="nonzero" fill-opacity="1" /><path clip-path="url(#clip690)" d="M2306.29 1517.37 Q2302.68 1517.37 2300.85 1520.93 Q2299.04 1524.47 2299.04 1531.6 Q2299.04 1538.71 2300.85 1542.27 Q2302.68 1545.82 2306.29 1545.82 Q2309.92 1545.82 2311.73 1542.27 Q2313.56 1538.71 2313.56 1531.6 Q2313.56 1524.47 2311.73 1520.93 Q2309.92 1517.37 2306.29 1517.37 M2306.29 1513.66 Q2312.1 1513.66 2315.15 1518.27 Q2318.23 1522.85 2318.23 1531.6 Q2318.23 1540.33 2315.15 1544.94 Q2312.1 1549.52 2306.29 1549.52 Q2300.48 1549.52 2297.4 1544.94 Q2294.34 1540.33 2294.34 1531.6 Q2294.34 1522.85 2297.4 1518.27 Q2300.48 1513.66 2306.29 1513.66 Z" fill="#000000" fill-rule="nonzero" fill-opacity="1" /><path clip-path="url(#clip690)" d="M2336.45 1517.37 Q2332.84 1517.37 2331.01 1520.93 Q2329.21 1524.47 2329.21 1531.6 Q2329.21 1538.71 2331.01 1542.27 Q2332.84 1545.82 2336.45 1545.82 Q2340.08 1545.82 2341.89 1542.27 Q2343.72 1538.71 2343.72 1531.6 Q2343.72 1524.47 2341.89 1520.93 Q2340.08 1517.37 2336.45 1517.37 M2336.45 1513.66 Q2342.26 1513.66 2345.32 1518.27 Q2348.4 1522.85 2348.4 1531.6 Q2348.4 1540.33 2345.32 1544.94 Q2342.26 1549.52 2336.45 1549.52 Q2330.64 1549.52 2327.56 1544.94 Q2324.51 1540.33 2324.51 1531.6 Q2324.51 1522.85 2327.56 1518.27 Q2330.64 1513.66 2336.45 1513.66 Z" fill="#000000" fill-rule="nonzero" fill-opacity="1" /><polyline clip-path="url(#clip692)" style="stroke:#000000; stroke-linecap:round; stroke-linejoin:round; stroke-width:2; stroke-opacity:0.1; fill:none" points="184.191,1375.6 2352.76,1375.6 "/>
<polyline clip-path="url(#clip692)" style="stroke:#000000; stroke-linecap:round; stroke-linejoin:round; stroke-width:2; stroke-opacity:0.1; fill:none" points="184.191,1023.92 2352.76,1023.92 "/>
<polyline clip-path="url(#clip692)" style="stroke:#000000; stroke-linecap:round; stroke-linejoin:round; stroke-width:2; stroke-opacity:0.1; fill:none" points="184.191,672.238 2352.76,672.238 "/>
<polyline clip-path="url(#clip692)" style="stroke:#000000; stroke-linecap:round; stroke-linejoin:round; stroke-width:2; stroke-opacity:0.1; fill:none" points="184.191,320.559 2352.76,320.559 "/>
<polyline clip-path="url(#clip690)" style="stroke:#000000; stroke-linecap:round; stroke-linejoin:round; stroke-width:4; stroke-opacity:1; fill:none" points="184.191,1486.45 184.191,47.2441 "/>
<polyline clip-path="url(#clip690)" style="stroke:#000000; stroke-linecap:round; stroke-linejoin:round; stroke-width:4; stroke-opacity:1; fill:none" points="184.191,1375.6 203.088,1375.6 "/>
<polyline clip-path="url(#clip690)" style="stroke:#000000; stroke-linecap:round; stroke-linejoin:round; stroke-width:4; stroke-opacity:1; fill:none" points="184.191,1023.92 203.088,1023.92 "/>
<polyline clip-path="url(#clip690)" style="stroke:#000000; stroke-linecap:round; stroke-linejoin:round; stroke-width:4; stroke-opacity:1; fill:none" points="184.191,672.238 203.088,672.238 "/>
<polyline clip-path="url(#clip690)" style="stroke:#000000; stroke-linecap:round; stroke-linejoin:round; stroke-width:4; stroke-opacity:1; fill:none" points="184.191,320.559 203.088,320.559 "/>
<path clip-path="url(#clip690)" d="M51.6634 1388.94 L59.3023 1388.94 L59.3023 1362.57 L50.9921 1364.24 L50.9921 1359.98 L59.256 1358.32 L63.9319 1358.32 L63.9319 1388.94 L71.5707 1388.94 L71.5707 1392.88 L51.6634 1392.88 L51.6634 1388.94 Z" fill="#000000" fill-rule="nonzero" fill-opacity="1" /><path clip-path="url(#clip690)" d="M81.8253 1388.94 L89.4641 1388.94 L89.4641 1362.57 L81.154 1364.24 L81.154 1359.98 L89.4178 1358.32 L94.0937 1358.32 L94.0937 1388.94 L101.733 1388.94 L101.733 1392.88 L81.8253 1392.88 L81.8253 1388.94 Z" fill="#000000" fill-rule="nonzero" fill-opacity="1" /><path clip-path="url(#clip690)" d="M111.177 1387 L116.061 1387 L116.061 1392.88 L111.177 1392.88 L111.177 1387 Z" fill="#000000" fill-rule="nonzero" fill-opacity="1" /><path clip-path="url(#clip690)" d="M136.246 1361.39 Q132.635 1361.39 130.807 1364.96 Q129.001 1368.5 129.001 1375.63 Q129.001 1382.74 130.807 1386.3 Q132.635 1389.84 136.246 1389.84 Q139.881 1389.84 141.686 1386.3 Q143.515 1382.74 143.515 1375.63 Q143.515 1368.5 141.686 1364.96 Q139.881 1361.39 136.246 1361.39 M136.246 1357.69 Q142.056 1357.69 145.112 1362.3 Q148.191 1366.88 148.191 1375.63 Q148.191 1384.36 145.112 1388.96 Q142.056 1393.55 136.246 1393.55 Q130.436 1393.55 127.357 1388.96 Q124.302 1384.36 124.302 1375.63 Q124.302 1366.88 127.357 1362.3 Q130.436 1357.69 136.246 1357.69 Z" fill="#000000" fill-rule="nonzero" fill-opacity="1" /><path clip-path="url(#clip690)" d="M52.6588 1037.26 L60.2976 1037.26 L60.2976 1010.9 L51.9875 1012.56 L51.9875 1008.3 L60.2513 1006.64 L64.9272 1006.64 L64.9272 1037.26 L72.5661 1037.26 L72.5661 1041.2 L52.6588 1041.2 L52.6588 1037.26 Z" fill="#000000" fill-rule="nonzero" fill-opacity="1" /><path clip-path="url(#clip690)" d="M82.8207 1037.26 L90.4595 1037.26 L90.4595 1010.9 L82.1494 1012.56 L82.1494 1008.3 L90.4132 1006.64 L95.0891 1006.64 L95.0891 1037.26 L102.728 1037.26 L102.728 1041.2 L82.8207 1041.2 L82.8207 1037.26 Z" fill="#000000" fill-rule="nonzero" fill-opacity="1" /><path clip-path="url(#clip690)" d="M112.172 1035.32 L117.057 1035.32 L117.057 1041.2 L112.172 1041.2 L112.172 1035.32 Z" fill="#000000" fill-rule="nonzero" fill-opacity="1" /><path clip-path="url(#clip690)" d="M127.288 1006.64 L145.644 1006.64 L145.644 1010.57 L131.57 1010.57 L131.57 1019.04 Q132.589 1018.7 133.607 1018.53 Q134.626 1018.35 135.644 1018.35 Q141.431 1018.35 144.811 1021.52 Q148.191 1024.69 148.191 1030.11 Q148.191 1035.69 144.718 1038.79 Q141.246 1041.87 134.927 1041.87 Q132.751 1041.87 130.482 1041.5 Q128.237 1041.13 125.83 1040.39 L125.83 1035.69 Q127.913 1036.82 130.135 1037.38 Q132.357 1037.93 134.834 1037.93 Q138.839 1037.93 141.177 1035.83 Q143.515 1033.72 143.515 1030.11 Q143.515 1026.5 141.177 1024.39 Q138.839 1022.28 134.834 1022.28 Q132.959 1022.28 131.084 1022.7 Q129.232 1023.12 127.288 1024 L127.288 1006.64 Z" fill="#000000" fill-rule="nonzero" fill-opacity="1" /><path clip-path="url(#clip690)" d="M51.6634 685.583 L59.3023 685.583 L59.3023 659.217 L50.9921 660.884 L50.9921 656.624 L59.256 654.958 L63.9319 654.958 L63.9319 685.583 L71.5707 685.583 L71.5707 689.518 L51.6634 689.518 L51.6634 685.583 Z" fill="#000000" fill-rule="nonzero" fill-opacity="1" /><path clip-path="url(#clip690)" d="M85.0429 685.583 L101.362 685.583 L101.362 689.518 L79.4179 689.518 L79.4179 685.583 Q82.0799 682.828 86.6632 678.198 Q91.2697 673.546 92.4502 672.203 Q94.6956 669.68 95.5752 667.944 Q96.478 666.184 96.478 664.495 Q96.478 661.74 94.5336 660.004 Q92.6123 658.268 89.5104 658.268 Q87.3114 658.268 84.8577 659.032 Q82.4271 659.796 79.6494 661.347 L79.6494 656.624 Q82.4734 655.49 84.9271 654.911 Q87.3808 654.333 89.4178 654.333 Q94.7882 654.333 97.9826 657.018 Q101.177 659.703 101.177 664.194 Q101.177 666.323 100.367 668.245 Q99.5798 670.143 97.4734 672.735 Q96.8947 673.407 93.7928 676.624 Q90.691 679.819 85.0429 685.583 Z" fill="#000000" fill-rule="nonzero" fill-opacity="1" /><path clip-path="url(#clip690)" d="M111.177 683.638 L116.061 683.638 L116.061 689.518 L111.177 689.518 L111.177 683.638 Z" fill="#000000" fill-rule="nonzero" fill-opacity="1" /><path clip-path="url(#clip690)" d="M136.246 658.036 Q132.635 658.036 130.807 661.601 Q129.001 665.143 129.001 672.272 Q129.001 679.379 130.807 682.944 Q132.635 686.485 136.246 686.485 Q139.881 686.485 141.686 682.944 Q143.515 679.379 143.515 672.272 Q143.515 665.143 141.686 661.601 Q139.881 658.036 136.246 658.036 M136.246 654.333 Q142.056 654.333 145.112 658.939 Q148.191 663.522 148.191 672.272 Q148.191 680.999 145.112 685.606 Q142.056 690.189 136.246 690.189 Q130.436 690.189 127.357 685.606 Q124.302 680.999 124.302 672.272 Q124.302 663.522 127.357 658.939 Q130.436 654.333 136.246 654.333 Z" fill="#000000" fill-rule="nonzero" fill-opacity="1" /><path clip-path="url(#clip690)" d="M52.6588 333.904 L60.2976 333.904 L60.2976 307.538 L51.9875 309.205 L51.9875 304.946 L60.2513 303.279 L64.9272 303.279 L64.9272 333.904 L72.5661 333.904 L72.5661 337.839 L52.6588 337.839 L52.6588 333.904 Z" fill="#000000" fill-rule="nonzero" fill-opacity="1" /><path clip-path="url(#clip690)" d="M86.0382 333.904 L102.358 333.904 L102.358 337.839 L80.4133 337.839 L80.4133 333.904 Q83.0753 331.149 87.6586 326.52 Q92.2651 321.867 93.4456 320.524 Q95.691 318.001 96.5706 316.265 Q97.4734 314.506 97.4734 312.816 Q97.4734 310.061 95.5289 308.325 Q93.6076 306.589 90.5058 306.589 Q88.3067 306.589 85.8531 307.353 Q83.4225 308.117 80.6447 309.668 L80.6447 304.946 Q83.4688 303.811 85.9225 303.233 Q88.3762 302.654 90.4132 302.654 Q95.7836 302.654 98.978 305.339 Q102.172 308.024 102.172 312.515 Q102.172 314.645 101.362 316.566 Q100.575 318.464 98.4687 321.057 Q97.89 321.728 94.7882 324.946 Q91.6864 328.14 86.0382 333.904 Z" fill="#000000" fill-rule="nonzero" fill-opacity="1" /><path clip-path="url(#clip690)" d="M112.172 331.959 L117.057 331.959 L117.057 337.839 L112.172 337.839 L112.172 331.959 Z" fill="#000000" fill-rule="nonzero" fill-opacity="1" /><path clip-path="url(#clip690)" d="M127.288 303.279 L145.644 303.279 L145.644 307.214 L131.57 307.214 L131.57 315.686 Q132.589 315.339 133.607 315.177 Q134.626 314.992 135.644 314.992 Q141.431 314.992 144.811 318.163 Q148.191 321.334 148.191 326.751 Q148.191 332.33 144.718 335.432 Q141.246 338.51 134.927 338.51 Q132.751 338.51 130.482 338.14 Q128.237 337.77 125.83 337.029 L125.83 332.33 Q127.913 333.464 130.135 334.02 Q132.357 334.575 134.834 334.575 Q138.839 334.575 141.177 332.469 Q143.515 330.362 143.515 326.751 Q143.515 323.14 141.177 321.034 Q138.839 318.927 134.834 318.927 Q132.959 318.927 131.084 319.344 Q129.232 319.76 127.288 320.64 L127.288 303.279 Z" fill="#000000" fill-rule="nonzero" fill-opacity="1" /><polyline clip-path="url(#clip692)" style="stroke:#009af9; stroke-linecap:round; stroke-linejoin:round; stroke-width:4; stroke-opacity:1; fill:none" points="245.565,87.9763 246.588,110.432 247.611,132.392 248.634,153.872 249.657,174.888 250.68,195.454 251.703,215.582 252.726,235.287 253.748,254.58 254.771,273.474 255.794,291.979 256.817,310.107 257.84,327.867 258.863,345.27 259.886,362.326 260.909,379.042 261.932,395.429 262.955,411.493 263.978,427.244 265,442.689 266.023,457.835 267.046,472.689 268.069,487.258 269.092,501.548 270.115,515.567 271.138,529.319 272.161,542.811 273.184,556.048 274.207,569.036 275.23,581.78 276.252,594.286 277.275,606.557 278.298,618.599 279.321,630.417 280.344,642.015 281.367,653.397 282.39,664.567 283.413,675.53 284.436,686.29 285.459,696.85 286.481,707.215 287.504,717.388 288.527,727.372 289.55,737.172 290.573,746.79 291.596,756.231 292.619,765.496 293.642,774.591 294.665,783.517 295.688,792.278 296.711,800.876 297.733,809.316 298.756,817.599 299.779,825.729 300.802,833.709 301.825,841.54 302.848,849.227 303.871,856.771 304.894,864.175 305.917,871.442 306.94,878.574 307.963,885.574 308.985,892.445 310.008,899.187 311.031,905.805 312.054,912.3 313.077,918.675 314.1,924.931 315.123,931.072 316.146,937.098 317.169,943.013 318.192,948.819 319.215,954.517 320.237,960.109 321.26,965.598 322.283,970.985 323.306,976.273 324.329,981.464 325.352,986.558 326.375,991.559 327.398,996.467 328.421,1001.29 329.444,1006.01 330.467,1010.66 331.489,1015.21 332.512,1019.69 333.535,1024.08 334.558,1028.39 335.581,1032.63 336.604,1036.78 337.627,1040.86 338.65,1044.87 339.673,1048.8 340.696,1052.66 341.719,1056.46 342.741,1060.18 343.764,1063.84 344.787,1067.43 345.81,1070.96 346.833,1074.42 347.856,1077.82 348.879,1081.16 349.902,1084.45 350.925,1087.67 351.948,1090.84 352.971,1093.95 353.993,1097.01 355.016,1100.01 356.039,1102.96 357.062,1105.86 358.085,1108.71 359.108,1111.51 360.131,1114.26 361.154,1116.97 362.177,1119.62 363.2,1122.24 364.223,1124.8 365.245,1127.33 366.268,1129.81 367.291,1132.25 368.314,1134.65 369.337,1137.01 370.36,1139.33 371.383,1141.61 372.406,1143.85 373.429,1146.06 374.452,1148.23 375.474,1150.37 376.497,1152.47 377.52,1154.53 378.543,1156.57 379.566,1158.57 380.589,1160.54 381.612,1162.48 382.635,1164.38 383.658,1166.26 384.681,1168.11 385.704,1169.93 386.726,1171.72 387.749,1173.48 388.772,1175.22 389.795,1176.93 390.818,1178.61 391.841,1180.27 392.864,1181.9 393.887,1183.51 394.91,1185.1 395.933,1186.66 396.956,1188.2 397.978,1189.72 399.001,1191.21 400.024,1192.68 401.047,1194.14 402.07,1195.57 403.093,1196.98 404.116,1198.37 405.139,1199.74 406.162,1201.09 407.185,1202.43 408.208,1203.74 409.23,1205.04 410.253,1206.32 411.276,1207.58 412.299,1208.83 413.322,1210.06 414.345,1211.27 415.368,1212.47 416.391,1213.65 417.414,1214.82 418.437,1215.97 419.46,1217.11 420.482,1218.23 421.505,1219.34 422.528,1220.43 423.551,1221.51 424.574,1222.58 425.597,1223.63 426.62,1224.67 427.643,1225.7 428.666,1226.72 429.689,1227.73 430.712,1228.72 431.734,1229.7 432.757,1230.67 433.78,1231.63 434.803,1232.57 435.826,1233.51 436.849,1234.44 437.872,1235.35 438.895,1236.26 439.918,1237.15 440.941,1238.04 441.964,1238.92 442.986,1239.78 444.009,1240.64 445.032,1241.49 446.055,1242.33 447.078,1243.16 448.101,1243.98 449.124,1244.8 450.147,1245.6 451.17,1246.4 452.193,1247.19 453.216,1247.97 454.238,1248.75 455.261,1249.51 456.284,1250.27 457.307,1251.02 458.33,1251.77 459.353,1252.5 460.376,1253.23 461.399,1253.96 462.422,1254.68 463.445,1255.39 464.468,1256.09 465.49,1256.79 466.513,1257.48 467.536,1258.16 468.559,1258.84 469.582,1259.52 470.605,1260.18 471.628,1260.85 472.651,1261.5 473.674,1262.15 474.697,1262.8 475.719,1263.44 476.742,1264.07 477.765,1264.7 478.788,1265.33 479.811,1265.95 480.834,1266.56 481.857,1267.17 482.88,1267.77 483.903,1268.37 484.926,1268.97 485.949,1269.56 486.971,1270.15 487.994,1270.73 489.017,1271.31 490.04,1271.88 491.063,1272.45 492.086,1273.02 493.109,1273.58 494.132,1274.13 495.155,1274.69 496.178,1275.24 497.201,1275.78 498.223,1276.32 499.246,1276.86 500.269,1277.39 501.292,1277.93 502.315,1278.45 503.338,1278.98 504.361,1279.5 505.384,1280.01 506.407,1280.53 507.43,1281.04 508.453,1281.54 509.475,1282.05 510.498,1282.55 511.521,1283.04 512.544,1283.54 513.567,1284.03 514.59,1284.52 515.613,1285 516.636,1285.48 517.659,1285.96 518.682,1286.44 519.705,1286.91 520.727,1287.38 521.75,1287.85 522.773,1288.32 523.796,1288.78 524.819,1289.24 525.842,1289.7 526.865,1290.15 527.888,1290.6 528.911,1291.05 529.934,1291.5 530.957,1291.94 531.979,1292.39 533.002,1292.83 534.025,1293.26 535.048,1293.7 536.071,1294.13 537.094,1294.56 538.117,1294.99 539.14,1295.42 540.163,1295.84 541.186,1296.26 542.209,1296.68 543.231,1297.1 544.254,1297.52 545.277,1297.93 546.3,1298.34 547.323,1298.75 548.346,1299.16 549.369,1299.56 550.392,1299.96 551.415,1300.37 552.438,1300.77 553.461,1301.16 554.483,1301.56 555.506,1301.95 556.529,1302.34 557.552,1302.73 558.575,1303.12 559.598,1303.51 560.621,1303.89 561.644,1304.28 562.667,1304.66 563.69,1305.04 564.713,1305.41 565.735,1305.79 566.758,1306.16 567.781,1306.54 568.804,1306.91 569.827,1307.28 570.85,1307.65 571.873,1308.01 572.896,1308.38 573.919,1308.74 574.942,1309.1 575.964,1309.46 576.987,1309.82 578.01,1310.18 579.033,1310.53 580.056,1310.89 581.079,1311.24 582.102,1311.59 583.125,1311.94 584.148,1312.29 585.171,1312.63 586.194,1312.98 587.216,1313.32 588.239,1313.66 589.262,1314 590.285,1314.34 591.308,1314.68 592.331,1315.02 593.354,1315.35 594.377,1315.69 595.4,1316.02 596.423,1316.35 597.446,1316.68 598.468,1317.01 599.491,1317.34 600.514,1317.67 601.537,1317.99 602.56,1318.31 603.583,1318.64 604.606,1318.96 605.629,1319.28 606.652,1319.6 607.675,1319.92 608.698,1320.23 609.72,1320.55 610.743,1320.86 611.766,1321.17 612.789,1321.49 613.812,1321.8 614.835,1322.11 615.858,1322.41 616.881,1322.72 617.904,1323.03 618.927,1323.33 619.95,1323.64 620.972,1323.94 621.995,1324.24 623.018,1324.54 624.041,1324.84 625.064,1325.14 626.087,1325.43 627.11,1325.73 628.133,1326.03 629.156,1326.32 630.179,1326.61 631.202,1326.9 632.224,1327.2 633.247,1327.49 634.27,1327.77 635.293,1328.06 636.316,1328.35 637.339,1328.63 638.362,1328.92 639.385,1329.2 640.408,1329.49 641.431,1329.77 642.454,1330.05 643.476,1330.33 644.499,1330.61 645.522,1330.88 646.545,1331.16 647.568,1331.44 648.591,1331.71 649.614,1331.99 650.637,1332.26 651.66,1332.53 652.683,1332.8 653.706,1333.07 654.728,1333.34 655.751,1333.61 656.774,1333.88 657.797,1334.14 658.82,1334.41 659.843,1334.68 660.866,1334.94 661.889,1335.2 662.912,1335.46 663.935,1335.73 664.957,1335.99 665.98,1336.25 667.003,1336.5 668.026,1336.76 669.049,1337.02 670.072,1337.28 671.095,1337.53 672.118,1337.79 673.141,1338.04 674.164,1338.29 675.187,1338.54 676.209,1338.79 677.232,1339.04 678.255,1339.29 679.278,1339.54 680.301,1339.79 681.324,1340.04 682.347,1340.28 683.37,1340.53 684.393,1340.77 685.416,1341.02 686.439,1341.26 687.461,1341.5 688.484,1341.74 689.507,1341.98 690.53,1342.22 691.553,1342.46 692.576,1342.7 693.599,1342.94 694.622,1343.18 695.645,1343.41 696.668,1343.65 697.691,1343.88 698.713,1344.12 699.736,1344.35 700.759,1344.58 701.782,1344.81 702.805,1345.04 703.828,1345.27 704.851,1345.5 705.874,1345.73 706.897,1345.96 707.92,1346.19 708.943,1346.41 709.965,1346.64 710.988,1346.86 712.011,1347.09 713.034,1347.31 714.057,1347.53 715.08,1347.75 716.103,1347.98 717.126,1348.2 718.149,1348.42 719.172,1348.64 720.195,1348.85 721.217,1349.07 722.24,1349.29 723.263,1349.51 724.286,1349.72 725.309,1349.94 726.332,1350.15 727.355,1350.37 728.378,1350.58 729.401,1350.79 730.424,1351 731.447,1351.22 732.469,1351.43 733.492,1351.64 734.515,1351.85 735.538,1352.05 736.561,1352.26 737.584,1352.47 738.607,1352.68 739.63,1352.88 740.653,1353.09 741.676,1353.29 742.699,1353.5 743.721,1353.7 744.744,1353.9 745.767,1354.11 746.79,1354.31 747.813,1354.51 748.836,1354.71 749.859,1354.91 750.882,1355.11 751.905,1355.31 752.928,1355.5 753.951,1355.7 754.973,1355.9 755.996,1356.09 757.019,1356.29 758.042,1356.48 759.065,1356.68 760.088,1356.87 761.111,1357.07 762.134,1357.26 763.157,1357.45 764.18,1357.64 765.202,1357.83 766.225,1358.02 767.248,1358.21 768.271,1358.4 769.294,1358.59 770.317,1358.78 771.34,1358.97 772.363,1359.15 773.386,1359.34 774.409,1359.53 775.432,1359.71 776.454,1359.9 777.477,1360.08 778.5,1360.26 779.523,1360.45 780.546,1360.63 781.569,1360.81 782.592,1360.99 783.615,1361.17 784.638,1361.35 785.661,1361.53 786.684,1361.71 787.706,1361.89 788.729,1362.07 789.752,1362.25 790.775,1362.42 791.798,1362.6 792.821,1362.78 793.844,1362.95 794.867,1363.13 795.89,1363.3 796.913,1363.48 797.936,1363.65 798.958,1363.82 799.981,1363.99 801.004,1364.17 802.027,1364.34 803.05,1364.51 804.073,1364.68 805.096,1364.85 806.119,1365.02 807.142,1365.19 808.165,1365.36 809.188,1365.52 810.21,1365.69 811.233,1365.86 812.256,1366.02 813.279,1366.19 814.302,1366.36 815.325,1366.52 816.348,1366.69 817.371,1366.85 818.394,1367.01 819.417,1367.18 820.44,1367.34 821.462,1367.5 822.485,1367.66 823.508,1367.82 824.531,1367.98 825.554,1368.14 826.577,1368.3 827.6,1368.46 828.623,1368.62 829.646,1368.78 830.669,1368.94 831.692,1369.1 832.714,1369.25 833.737,1369.41 834.76,1369.57 835.783,1369.72 836.806,1369.88 837.829,1370.03 838.852,1370.19 839.875,1370.34 840.898,1370.49 841.921,1370.65 842.944,1370.8 843.966,1370.95 844.989,1371.1 846.012,1371.25 847.035,1371.41 848.058,1371.56 849.081,1371.71 850.104,1371.86 851.127,1372 852.15,1372.15 853.173,1372.3 854.196,1372.45 855.218,1372.6 856.241,1372.74 857.264,1372.89 858.287,1373.04 859.31,1373.18 860.333,1373.33 861.356,1373.47 862.379,1373.62 863.402,1373.76 864.425,1373.9 865.447,1374.05 866.47,1374.19 867.493,1374.33 868.516,1374.48 869.539,1374.62 870.562,1374.76 871.585,1374.9 872.608,1375.04 873.631,1375.18 874.654,1375.32 875.677,1375.46 876.699,1375.6 877.722,1375.74 878.745,1375.88 879.768,1376.01 880.791,1376.15 881.814,1376.29 882.837,1376.42 883.86,1376.56 884.883,1376.7 885.906,1376.83 886.929,1376.97 887.951,1377.1 888.974,1377.24 889.997,1377.37 891.02,1377.5 892.043,1377.64 893.066,1377.77 894.089,1377.9 895.112,1378.04 896.135,1378.17 897.158,1378.3 898.181,1378.43 899.203,1378.56 900.226,1378.69 901.249,1378.82 902.272,1378.95 903.295,1379.08 904.318,1379.21 905.341,1379.34 906.364,1379.47 907.387,1379.59 908.41,1379.72 909.433,1379.85 910.455,1379.98 911.478,1380.1 912.501,1380.23 913.524,1380.35 914.547,1380.48 915.57,1380.61 916.593,1380.73 917.616,1380.85 918.639,1380.98 919.662,1381.1 920.685,1381.23 921.707,1381.35 922.73,1381.47 923.753,1381.59 924.776,1381.72 925.799,1381.84 926.822,1381.96 927.845,1382.08 928.868,1382.2 929.891,1382.32 930.914,1382.44 931.937,1382.56 932.959,1382.68 933.982,1382.8 935.005,1382.92 936.028,1383.04 937.051,1383.16 938.074,1383.28 939.097,1383.39 940.12,1383.51 941.143,1383.63 942.166,1383.74 943.189,1383.86 944.211,1383.98 945.234,1384.09 946.257,1384.21 947.28,1384.32 948.303,1384.44 949.326,1384.55 950.349,1384.67 951.372,1384.78 952.395,1384.9 953.418,1385.01 954.44,1385.12 955.463,1385.24 956.486,1385.35 957.509,1385.46 958.532,1385.57 959.555,1385.68 960.578,1385.8 961.601,1385.91 962.624,1386.02 963.647,1386.13 964.67,1386.24 965.692,1386.35 966.715,1386.46 967.738,1386.57 968.761,1386.68 969.784,1386.78 970.807,1386.89 971.83,1387 972.853,1387.11 973.876,1387.22 974.899,1387.32 975.922,1387.43 976.944,1387.54 977.967,1387.65 978.99,1387.75 980.013,1387.86 981.036,1387.96 982.059,1388.07 983.082,1388.17 984.105,1388.28 985.128,1388.38 986.151,1388.49 987.174,1388.59 988.196,1388.7 989.219,1388.8 990.242,1388.9 991.265,1389.01 992.288,1389.11 993.311,1389.21 994.334,1389.32 995.357,1389.42 996.38,1389.52 997.403,1389.62 998.426,1389.72 999.448,1389.82 1000.47,1389.92 1001.49,1390.02 1002.52,1390.13 1003.54,1390.23 1004.56,1390.33 1005.59,1390.42 1006.61,1390.52 1007.63,1390.62 1008.65,1390.72 1009.68,1390.82 1010.7,1390.92 1011.72,1391.02 1012.75,1391.12 1013.77,1391.21 1014.79,1391.31 1015.81,1391.41 1016.84,1391.5 1017.86,1391.6 1018.88,1391.7 1019.91,1391.79 1020.93,1391.89 1021.95,1391.99 1022.98,1392.08 1024,1392.18 1025.02,1392.27 1026.04,1392.37 1027.07,1392.46 1028.09,1392.56 1029.11,1392.65 1030.14,1392.74 1031.16,1392.84 1032.18,1392.93 1033.2,1393.02 1034.23,1393.12 1035.25,1393.21 1036.27,1393.3 1037.3,1393.39 1038.32,1393.49 1039.34,1393.58 1040.36,1393.67 1041.39,1393.76 1042.41,1393.85 1043.43,1393.94 1044.46,1394.03 1045.48,1394.13 1046.5,1394.22 1047.53,1394.31 1048.55,1394.4 1049.57,1394.49 1050.59,1394.58 1051.62,1394.66 1052.64,1394.75 1053.66,1394.84 1054.69,1394.93 1055.71,1395.02 1056.73,1395.11 1057.75,1395.2 1058.78,1395.28 1059.8,1395.37 1060.82,1395.46 1061.85,1395.55 1062.87,1395.63 1063.89,1395.72 1064.91,1395.81 1065.94,1395.89 1066.96,1395.98 1067.98,1396.07 1069.01,1396.15 1070.03,1396.24 1071.05,1396.32 1072.07,1396.41 1073.1,1396.49 1074.12,1396.58 1075.14,1396.66 1076.17,1396.75 1077.19,1396.83 1078.21,1396.92 1079.24,1397 1080.26,1397.08 1081.28,1397.17 1082.3,1397.25 1083.33,1397.33 1084.35,1397.42 1085.37,1397.5 1086.4,1397.58 1087.42,1397.66 1088.44,1397.75 1089.46,1397.83 1090.49,1397.91 1091.51,1397.99 1092.53,1398.07 1093.56,1398.15 1094.58,1398.24 1095.6,1398.32 1096.62,1398.4 1097.65,1398.48 1098.67,1398.56 1099.69,1398.64 1100.72,1398.72 1101.74,1398.8 1102.76,1398.88 1103.79,1398.96 1104.81,1399.04 1105.83,1399.12 1106.85,1399.2 1107.88,1399.27 1108.9,1399.35 1109.92,1399.43 1110.95,1399.51 1111.97,1399.59 1112.99,1399.67 1114.01,1399.74 1115.04,1399.82 1116.06,1399.9 1117.08,1399.98 1118.11,1400.05 1119.13,1400.13 1120.15,1400.21 1121.17,1400.28 1122.2,1400.36 1123.22,1400.44 1124.24,1400.51 1125.27,1400.59 1126.29,1400.66 1127.31,1400.74 1128.33,1400.81 1129.36,1400.89 1130.38,1400.97 1131.4,1401.04 1132.43,1401.11 1133.45,1401.19 1134.47,1401.26 1135.5,1401.34 1136.52,1401.41 1137.54,1401.49 1138.56,1401.56 1139.59,1401.63 1140.61,1401.71 1141.63,1401.78 1142.66,1401.85 1143.68,1401.93 1144.7,1402 1145.72,1402.07 1146.75,1402.15 1147.77,1402.22 1148.79,1402.29 1149.82,1402.36 1150.84,1402.44 1151.86,1402.51 1152.88,1402.58 1153.91,1402.65 1154.93,1402.72 1155.95,1402.79 1156.98,1402.86 1158,1402.94 1159.02,1403.01 1160.05,1403.08 1161.07,1403.15 1162.09,1403.22 1163.11,1403.29 1164.14,1403.36 1165.16,1403.43 1166.18,1403.5 1167.21,1403.57 1168.23,1403.64 1169.25,1403.71 1170.27,1403.78 1171.3,1403.85 1172.32,1403.91 1173.34,1403.98 1174.37,1404.05 1175.39,1404.12 1176.41,1404.19 1177.43,1404.26 1178.46,1404.33 1179.48,1404.39 1180.5,1404.46 1181.53,1404.53 1182.55,1404.6 1183.57,1404.67 1184.59,1404.73 1185.62,1404.8 1186.64,1404.87 1187.66,1404.93 1188.69,1405 1189.71,1405.07 1190.73,1405.13 1191.76,1405.2 1192.78,1405.27 1193.8,1405.33 1194.82,1405.4 1195.85,1405.47 1196.87,1405.53 1197.89,1405.6 1198.92,1405.66 1199.94,1405.73 1200.96,1405.79 1201.98,1405.86 1203.01,1405.92 1204.03,1405.99 1205.05,1406.05 1206.08,1406.12 1207.1,1406.18 1208.12,1406.25 1209.14,1406.31 1210.17,1406.38 1211.19,1406.44 1212.21,1406.5 1213.24,1406.57 1214.26,1406.63 1215.28,1406.7 1216.3,1406.76 1217.33,1406.82 1218.35,1406.89 1219.37,1406.95 1220.4,1407.01 1221.42,1407.07 1222.44,1407.14 1223.47,1407.2 1224.49,1407.26 1225.51,1407.33 1226.53,1407.39 1227.56,1407.45 1228.58,1407.51 1229.6,1407.57 1230.63,1407.64 1231.65,1407.7 1232.67,1407.76 1233.69,1407.82 1234.72,1407.88 1235.74,1407.94 1236.76,1408 1237.79,1408.07 1238.81,1408.13 1239.83,1408.19 1240.85,1408.25 1241.88,1408.31 1242.9,1408.37 1243.92,1408.43 1244.95,1408.49 1245.97,1408.55 1246.99,1408.61 1248.02,1408.67 1249.04,1408.73 1250.06,1408.79 1251.08,1408.85 1252.11,1408.91 1253.13,1408.97 1254.15,1409.03 1255.18,1409.09 1256.2,1409.15 1257.22,1409.21 1258.24,1409.27 1259.27,1409.32 1260.29,1409.38 1261.31,1409.44 1262.34,1409.5 1263.36,1409.56 1264.38,1409.62 1265.4,1409.67 1266.43,1409.73 1267.45,1409.79 1268.47,1409.85 1269.5,1409.91 1270.52,1409.96 1271.54,1410.02 1272.56,1410.08 1273.59,1410.14 1274.61,1410.19 1275.63,1410.25 1276.66,1410.31 1277.68,1410.37 1278.7,1410.42 1279.73,1410.48 1280.75,1410.54 1281.77,1410.59 1282.79,1410.65 1283.82,1410.71 1284.84,1410.76 1285.86,1410.82 1286.89,1410.88 1287.91,1410.93 1288.93,1410.99 1289.95,1411.04 1290.98,1411.1 1292,1411.15 1293.02,1411.21 1294.05,1411.27 1295.07,1411.32 1296.09,1411.38 1297.11,1411.43 1298.14,1411.49 1299.16,1411.54 1300.18,1411.6 1301.21,1411.65 1302.23,1411.71 1303.25,1411.76 1304.28,1411.82 1305.3,1411.87 1306.32,1411.93 1307.34,1411.98 1308.37,1412.03 1309.39,1412.09 1310.41,1412.14 1311.44,1412.2 1312.46,1412.25 1313.48,1412.3 1314.5,1412.36 1315.53,1412.41 1316.55,1412.47 1317.57,1412.52 1318.6,1412.57 1319.62,1412.63 1320.64,1412.68 1321.66,1412.73 1322.69,1412.79 1323.71,1412.84 1324.73,1412.89 1325.76,1412.94 1326.78,1413 1327.8,1413.05 1328.82,1413.1 1329.85,1413.16 1330.87,1413.21 1331.89,1413.26 1332.92,1413.31 1333.94,1413.36 1334.96,1413.42 1335.99,1413.47 1337.01,1413.52 1338.03,1413.57 1339.05,1413.62 1340.08,1413.68 1341.1,1413.73 1342.12,1413.78 1343.15,1413.83 1344.17,1413.88 1345.19,1413.93 1346.21,1413.98 1347.24,1414.04 1348.26,1414.09 1349.28,1414.14 1350.31,1414.19 1351.33,1414.24 1352.35,1414.29 1353.37,1414.34 1354.4,1414.39 1355.42,1414.44 1356.44,1414.49 1357.47,1414.54 1358.49,1414.59 1359.51,1414.64 1360.54,1414.69 1361.56,1414.74 1362.58,1414.79 1363.6,1414.84 1364.63,1414.89 1365.65,1414.94 1366.67,1414.99 1367.7,1415.04 1368.72,1415.09 1369.74,1415.14 1370.76,1415.19 1371.79,1415.24 1372.81,1415.29 1373.83,1415.34 1374.86,1415.39 1375.88,1415.44 1376.9,1415.49 1377.92,1415.54 1378.95,1415.59 1379.97,1415.63 1380.99,1415.68 1382.02,1415.73 1383.04,1415.78 1384.06,1415.83 1385.08,1415.88 1386.11,1415.93 1387.13,1415.97 1388.15,1416.02 1389.18,1416.07 1390.2,1416.12 1391.22,1416.17 1392.25,1416.22 1393.27,1416.26 1394.29,1416.31 1395.31,1416.36 1396.34,1416.41 1397.36,1416.46 1398.38,1416.5 1399.41,1416.55 1400.43,1416.6 1401.45,1416.65 1402.47,1416.69 1403.5,1416.74 1404.52,1416.79 1405.54,1416.83 1406.57,1416.88 1407.59,1416.93 1408.61,1416.98 1409.63,1417.02 1410.66,1417.07 1411.68,1417.12 1412.7,1417.16 1413.73,1417.21 1414.75,1417.26 1415.77,1417.3 1416.79,1417.35 1417.82,1417.4 1418.84,1417.44 1419.86,1417.49 1420.89,1417.54 1421.91,1417.58 1422.93,1417.63 1423.96,1417.67 1424.98,1417.72 1426,1417.77 1427.02,1417.81 1428.05,1417.86 1429.07,1417.9 1430.09,1417.95 1431.12,1417.99 1432.14,1418.04 1433.16,1418.09 1434.18,1418.13 1435.21,1418.18 1436.23,1418.22 1437.25,1418.27 1438.28,1418.31 1439.3,1418.36 1440.32,1418.4 1441.34,1418.45 1442.37,1418.49 1443.39,1418.54 1444.41,1418.58 1445.44,1418.63 1446.46,1418.67 1447.48,1418.72 1448.51,1418.76 1449.53,1418.81 1450.55,1418.85 1451.57,1418.9 1452.6,1418.94 1453.62,1418.99 1454.64,1419.03 1455.67,1419.07 1456.69,1419.12 1457.71,1419.16 1458.73,1419.21 1459.76,1419.25 1460.78,1419.29 1461.8,1419.34 1462.83,1419.38 1463.85,1419.43 1464.87,1419.47 1465.89,1419.51 1466.92,1419.56 1467.94,1419.6 1468.96,1419.65 1469.99,1419.69 1471.01,1419.73 1472.03,1419.78 1473.05,1419.82 1474.08,1419.86 1475.1,1419.91 1476.12,1419.95 1477.15,1419.99 1478.17,1420.04 1479.19,1420.08 1480.22,1420.12 1481.24,1420.16 1482.26,1420.21 1483.28,1420.25 1484.31,1420.29 1485.33,1420.34 1486.35,1420.38 1487.38,1420.42 1488.4,1420.46 1489.42,1420.51 1490.44,1420.55 1491.47,1420.59 1492.49,1420.63 1493.51,1420.68 1494.54,1420.72 1495.56,1420.76 1496.58,1420.8 1497.6,1420.85 1498.63,1420.89 1499.65,1420.93 1500.67,1420.97 1501.7,1421.01 1502.72,1421.06 1503.74,1421.1 1504.77,1421.14 1505.79,1421.18 1506.81,1421.22 1507.83,1421.27 1508.86,1421.31 1509.88,1421.35 1510.9,1421.39 1511.93,1421.43 1512.95,1421.47 1513.97,1421.52 1514.99,1421.56 1516.02,1421.6 1517.04,1421.64 1518.06,1421.68 1519.09,1421.72 1520.11,1421.76 1521.13,1421.81 1522.15,1421.85 1523.18,1421.89 1524.2,1421.93 1525.22,1421.97 1526.25,1422.01 1527.27,1422.05 1528.29,1422.09 1529.31,1422.13 1530.34,1422.17 1531.36,1422.21 1532.38,1422.26 1533.41,1422.3 1534.43,1422.34 1535.45,1422.38 1536.48,1422.42 1537.5,1422.46 1538.52,1422.5 1539.54,1422.54 1540.57,1422.58 1541.59,1422.62 1542.61,1422.66 1543.64,1422.7 1544.66,1422.74 1545.68,1422.78 1546.7,1422.82 1547.73,1422.86 1548.75,1422.9 1549.77,1422.94 1550.8,1422.98 1551.82,1423.02 1552.84,1423.06 1553.86,1423.1 1554.89,1423.14 1555.91,1423.18 1556.93,1423.22 1557.96,1423.26 1558.98,1423.3 1560,1423.34 1561.03,1423.38 1562.05,1423.42 1563.07,1423.46 1564.09,1423.5 1565.12,1423.54 1566.14,1423.58 1567.16,1423.61 1568.19,1423.65 1569.21,1423.69 1570.23,1423.73 1571.25,1423.77 1572.28,1423.81 1573.3,1423.85 1574.32,1423.89 1575.35,1423.93 1576.37,1423.97 1577.39,1424.01 1578.41,1424.04 1579.44,1424.08 1580.46,1424.12 1581.48,1424.16 1582.51,1424.2 1583.53,1424.24 1584.55,1424.28 1585.57,1424.32 1586.6,1424.35 1587.62,1424.39 1588.64,1424.43 1589.67,1424.47 1590.69,1424.51 1591.71,1424.55 1592.74,1424.59 1593.76,1424.62 1594.78,1424.66 1595.8,1424.7 1596.83,1424.74 1597.85,1424.78 1598.87,1424.82 1599.9,1424.85 1600.92,1424.89 1601.94,1424.93 1602.96,1424.97 1603.99,1425.01 1605.01,1425.04 1606.03,1425.08 1607.06,1425.12 1608.08,1425.16 1609.1,1425.2 1610.12,1425.23 1611.15,1425.27 1612.17,1425.31 1613.19,1425.35 1614.22,1425.38 1615.24,1425.42 1616.26,1425.46 1617.28,1425.5 1618.31,1425.53 1619.33,1425.57 1620.35,1425.61 1621.38,1425.65 1622.4,1425.68 1623.42,1425.72 1624.45,1425.76 1625.47,1425.8 1626.49,1425.83 1627.51,1425.87 1628.54,1425.91 1629.56,1425.94 1630.58,1425.98 1631.61,1426.02 1632.63,1426.06 1633.65,1426.09 1634.67,1426.13 1635.7,1426.17 1636.72,1426.2 1637.74,1426.24 1638.77,1426.28 1639.79,1426.31 1640.81,1426.35 1641.83,1426.39 1642.86,1426.43 1643.88,1426.46 1644.9,1426.5 1645.93,1426.54 1646.95,1426.57 1647.97,1426.61 1649,1426.64 1650.02,1426.68 1651.04,1426.72 1652.06,1426.75 1653.09,1426.79 1654.11,1426.83 1655.13,1426.86 1656.16,1426.9 1657.18,1426.94 1658.2,1426.97 1659.22,1427.01 1660.25,1427.05 1661.27,1427.08 1662.29,1427.12 1663.32,1427.15 1664.34,1427.19 1665.36,1427.23 1666.38,1427.26 1667.41,1427.3 1668.43,1427.33 1669.45,1427.37 1670.48,1427.41 1671.5,1427.44 1672.52,1427.48 1673.54,1427.51 1674.57,1427.55 1675.59,1427.59 1676.61,1427.62 1677.64,1427.66 1678.66,1427.69 1679.68,1427.73 1680.71,1427.76 1681.73,1427.8 1682.75,1427.83 1683.77,1427.87 1684.8,1427.91 1685.82,1427.94 1686.84,1427.98 1687.87,1428.01 1688.89,1428.05 1689.91,1428.08 1690.93,1428.12 1691.96,1428.15 1692.98,1428.19 1694,1428.22 1695.03,1428.26 1696.05,1428.3 1697.07,1428.33 1698.09,1428.37 1699.12,1428.4 1700.14,1428.44 1701.16,1428.47 1702.19,1428.51 1703.21,1428.54 1704.23,1428.58 1705.26,1428.61 1706.28,1428.65 1707.3,1428.68 1708.32,1428.72 1709.35,1428.75 1710.37,1428.79 1711.39,1428.82 1712.42,1428.86 1713.44,1428.89 1714.46,1428.92 1715.48,1428.96 1716.51,1428.99 1717.53,1429.03 1718.55,1429.06 1719.58,1429.1 1720.6,1429.13 1721.62,1429.17 1722.64,1429.2 1723.67,1429.24 1724.69,1429.27 1725.71,1429.31 1726.74,1429.34 1727.76,1429.37 1728.78,1429.41 1729.8,1429.44 1730.83,1429.48 1731.85,1429.51 1732.87,1429.55 1733.9,1429.58 1734.92,1429.61 1735.94,1429.65 1736.97,1429.68 1737.99,1429.72 1739.01,1429.75 1740.03,1429.79 1741.06,1429.82 1742.08,1429.85 1743.1,1429.89 1744.13,1429.92 1745.15,1429.96 1746.17,1429.99 1747.19,1430.02 1748.22,1430.06 1749.24,1430.09 1750.26,1430.13 1751.29,1430.16 1752.31,1430.19 1753.33,1430.23 1754.35,1430.26 1755.38,1430.29 1756.4,1430.33 1757.42,1430.36 1758.45,1430.4 1759.47,1430.43 1760.49,1430.46 1761.52,1430.5 1762.54,1430.53 1763.56,1430.56 1764.58,1430.6 1765.61,1430.63 1766.63,1430.66 1767.65,1430.7 1768.68,1430.73 1769.7,1430.77 1770.72,1430.8 1771.74,1430.83 1772.77,1430.87 1773.79,1430.9 1774.81,1430.93 1775.84,1430.97 1776.86,1431 1777.88,1431.03 1778.9,1431.07 1779.93,1431.1 1780.95,1431.13 1781.97,1431.16 1783,1431.2 1784.02,1431.23 1785.04,1431.26 1786.06,1431.3 1787.09,1431.33 1788.11,1431.36 1789.13,1431.4 1790.16,1431.43 1791.18,1431.46 1792.2,1431.5 1793.23,1431.53 1794.25,1431.56 1795.27,1431.59 1796.29,1431.63 1797.32,1431.66 1798.34,1431.69 1799.36,1431.73 1800.39,1431.76 1801.41,1431.79 1802.43,1431.82 1803.45,1431.86 1804.48,1431.89 1805.5,1431.92 1806.52,1431.96 1807.55,1431.99 1808.57,1432.02 1809.59,1432.05 1810.61,1432.09 1811.64,1432.12 1812.66,1432.15 1813.68,1432.18 1814.71,1432.22 1815.73,1432.25 1816.75,1432.28 1817.77,1432.31 1818.8,1432.35 1819.82,1432.38 1820.84,1432.41 1821.87,1432.44 1822.89,1432.48 1823.91,1432.51 1824.94,1432.54 1825.96,1432.57 1826.98,1432.6 1828,1432.64 1829.03,1432.67 1830.05,1432.7 1831.07,1432.73 1832.1,1432.77 1833.12,1432.8 1834.14,1432.83 1835.16,1432.86 1836.19,1432.89 1837.21,1432.93 1838.23,1432.96 1839.26,1432.99 1840.28,1433.02 1841.3,1433.05 1842.32,1433.09 1843.35,1433.12 1844.37,1433.15 1845.39,1433.18 1846.42,1433.21 1847.44,1433.25 1848.46,1433.28 1849.49,1433.31 1850.51,1433.34 1851.53,1433.37 1852.55,1433.41 1853.58,1433.44 1854.6,1433.47 1855.62,1433.5 1856.65,1433.53 1857.67,1433.56 1858.69,1433.6 1859.71,1433.63 1860.74,1433.66 1861.76,1433.69 1862.78,1433.72 1863.81,1433.75 1864.83,1433.79 1865.85,1433.82 1866.87,1433.85 1867.9,1433.88 1868.92,1433.91 1869.94,1433.94 1870.97,1433.97 1871.99,1434.01 1873.01,1434.04 1874.03,1434.07 1875.06,1434.1 1876.08,1434.13 1877.1,1434.16 1878.13,1434.19 1879.15,1434.23 1880.17,1434.26 1881.2,1434.29 1882.22,1434.32 1883.24,1434.35 1884.26,1434.38 1885.29,1434.41 1886.31,1434.44 1887.33,1434.48 1888.36,1434.51 1889.38,1434.54 1890.4,1434.57 1891.42,1434.6 1892.45,1434.63 1893.47,1434.66 1894.49,1434.69 1895.52,1434.72 1896.54,1434.76 1897.56,1434.79 1898.58,1434.82 1899.61,1434.85 1900.63,1434.88 1901.65,1434.91 1902.68,1434.94 1903.7,1434.97 1904.72,1435 1905.75,1435.03 1906.77,1435.06 1907.79,1435.1 1908.81,1435.13 1909.84,1435.16 1910.86,1435.19 1911.88,1435.22 1912.91,1435.25 1913.93,1435.28 1914.95,1435.31 1915.97,1435.34 1917,1435.37 1918.02,1435.4 1919.04,1435.43 1920.07,1435.46 1921.09,1435.5 1922.11,1435.53 1923.13,1435.56 1924.16,1435.59 1925.18,1435.62 1926.2,1435.65 1927.23,1435.68 1928.25,1435.71 1929.27,1435.74 1930.29,1435.77 1931.32,1435.8 1932.34,1435.83 1933.36,1435.86 1934.39,1435.89 1935.41,1435.92 1936.43,1435.95 1937.46,1435.98 1938.48,1436.01 1939.5,1436.04 1940.52,1436.07 1941.55,1436.1 1942.57,1436.13 1943.59,1436.17 1944.62,1436.2 1945.64,1436.23 1946.66,1436.26 1947.68,1436.29 1948.71,1436.32 1949.73,1436.35 1950.75,1436.38 1951.78,1436.41 1952.8,1436.44 1953.82,1436.47 1954.84,1436.5 1955.87,1436.53 1956.89,1436.56 1957.91,1436.59 1958.94,1436.62 1959.96,1436.65 1960.98,1436.68 1962.01,1436.71 1963.03,1436.74 1964.05,1436.77 1965.07,1436.8 1966.1,1436.83 1967.12,1436.86 1968.14,1436.89 1969.17,1436.92 1970.19,1436.95 1971.21,1436.98 1972.23,1437.01 1973.26,1437.04 1974.28,1437.07 1975.3,1437.1 1976.33,1437.13 1977.35,1437.16 1978.37,1437.19 1979.39,1437.22 1980.42,1437.25 1981.44,1437.27 1982.46,1437.3 1983.49,1437.33 1984.51,1437.36 1985.53,1437.39 1986.55,1437.42 1987.58,1437.45 1988.6,1437.48 1989.62,1437.51 1990.65,1437.54 1991.67,1437.57 1992.69,1437.6 1993.72,1437.63 1994.74,1437.66 1995.76,1437.69 1996.78,1437.72 1997.81,1437.75 1998.83,1437.78 1999.85,1437.81 2000.88,1437.84 2001.9,1437.87 2002.92,1437.9 2003.94,1437.93 2004.97,1437.95 2005.99,1437.98 2007.01,1438.01 2008.04,1438.04 2009.06,1438.07 2010.08,1438.1 2011.1,1438.13 2012.13,1438.16 2013.15,1438.19 2014.17,1438.22 2015.2,1438.25 2016.22,1438.28 2017.24,1438.31 2018.26,1438.34 2019.29,1438.37 2020.31,1438.39 2021.33,1438.42 2022.36,1438.45 2023.38,1438.48 2024.4,1438.51 2025.43,1438.54 2026.45,1438.57 2027.47,1438.6 2028.49,1438.63 2029.52,1438.66 2030.54,1438.69 2031.56,1438.71 2032.59,1438.74 2033.61,1438.77 2034.63,1438.8 2035.65,1438.83 2036.68,1438.86 2037.7,1438.89 2038.72,1438.92 2039.75,1438.95 2040.77,1438.98 2041.79,1439 2042.81,1439.03 2043.84,1439.06 2044.86,1439.09 2045.88,1439.12 2046.91,1439.15 2047.93,1439.18 2048.95,1439.21 2049.98,1439.24 2051,1439.26 2052.02,1439.29 2053.04,1439.32 2054.07,1439.35 2055.09,1439.38 2056.11,1439.41 2057.14,1439.44 2058.16,1439.47 2059.18,1439.49 2060.2,1439.52 2061.23,1439.55 2062.25,1439.58 2063.27,1439.61 2064.3,1439.64 2065.32,1439.67 2066.34,1439.69 2067.36,1439.72 2068.39,1439.75 2069.41,1439.78 2070.43,1439.81 2071.46,1439.84 2072.48,1439.87 2073.5,1439.89 2074.52,1439.92 2075.55,1439.95 2076.57,1439.98 2077.59,1440.01 2078.62,1440.04 2079.64,1440.07 2080.66,1440.09 2081.69,1440.12 2082.71,1440.15 2083.73,1440.18 2084.75,1440.21 2085.78,1440.24 2086.8,1440.26 2087.82,1440.29 2088.85,1440.32 2089.87,1440.35 2090.89,1440.38 2091.91,1440.41 2092.94,1440.43 2093.96,1440.46 2094.98,1440.49 2096.01,1440.52 2097.03,1440.55 2098.05,1440.58 2099.07,1440.6 2100.1,1440.63 2101.12,1440.66 2102.14,1440.69 2103.17,1440.72 2104.19,1440.74 2105.21,1440.77 2106.24,1440.8 2107.26,1440.83 2108.28,1440.86 2109.3,1440.89 2110.33,1440.91 2111.35,1440.94 2112.37,1440.97 2113.4,1441 2114.42,1441.03 2115.44,1441.05 2116.46,1441.08 2117.49,1441.11 2118.51,1441.14 2119.53,1441.17 2120.56,1441.19 2121.58,1441.22 2122.6,1441.25 2123.62,1441.28 2124.65,1441.31 2125.67,1441.33 2126.69,1441.36 2127.72,1441.39 2128.74,1441.42 2129.76,1441.45 2130.78,1441.47 2131.81,1441.5 2132.83,1441.53 2133.85,1441.56 2134.88,1441.58 2135.9,1441.61 2136.92,1441.64 2137.95,1441.67 2138.97,1441.7 2139.99,1441.72 2141.01,1441.75 2142.04,1441.78 2143.06,1441.81 2144.08,1441.83 2145.11,1441.86 2146.13,1441.89 2147.15,1441.92 2148.17,1441.94 2149.2,1441.97 2150.22,1442 2151.24,1442.03 2152.27,1442.06 2153.29,1442.08 2154.31,1442.11 2155.33,1442.14 2156.36,1442.17 2157.38,1442.19 2158.4,1442.22 2159.43,1442.25 2160.45,1442.28 2161.47,1442.3 2162.49,1442.33 2163.52,1442.36 2164.54,1442.39 2165.56,1442.41 2166.59,1442.44 2167.61,1442.47 2168.63,1442.5 2169.66,1442.52 2170.68,1442.55 2171.7,1442.58 2172.72,1442.61 2173.75,1442.63 2174.77,1442.66 2175.79,1442.69 2176.82,1442.72 2177.84,1442.74 2178.86,1442.77 2179.88,1442.8 2180.91,1442.82 2181.93,1442.85 2182.95,1442.88 2183.98,1442.91 2185,1442.93 2186.02,1442.96 2187.04,1442.99 2188.07,1443.02 2189.09,1443.04 2190.11,1443.07 2191.14,1443.1 2192.16,1443.12 2193.18,1443.15 2194.21,1443.18 2195.23,1443.21 2196.25,1443.23 2197.27,1443.26 2198.3,1443.29 2199.32,1443.31 2200.34,1443.34 2201.37,1443.37 2202.39,1443.4 2203.41,1443.42 2204.43,1443.45 2205.46,1443.48 2206.48,1443.5 2207.5,1443.53 2208.53,1443.56 2209.55,1443.59 2210.57,1443.61 2211.59,1443.64 2212.62,1443.67 2213.64,1443.69 2214.66,1443.72 2215.69,1443.75 2216.71,1443.77 2217.73,1443.8 2218.75,1443.83 2219.78,1443.86 2220.8,1443.88 2221.82,1443.91 2222.85,1443.94 2223.87,1443.96 2224.89,1443.99 2225.92,1444.02 2226.94,1444.04 2227.96,1444.07 2228.98,1444.1 2230.01,1444.12 2231.03,1444.15 2232.05,1444.18 2233.08,1444.2 2234.1,1444.23 2235.12,1444.26 2236.14,1444.28 2237.17,1444.31 2238.19,1444.34 2239.21,1444.36 2240.24,1444.39 2241.26,1444.42 2242.28,1444.45 2243.3,1444.47 2244.33,1444.5 2245.35,1444.53 2246.37,1444.55 2247.4,1444.58 2248.42,1444.61 2249.44,1444.63 2250.47,1444.66 2251.49,1444.68 2252.51,1444.71 2253.53,1444.74 2254.56,1444.76 2255.58,1444.79 2256.6,1444.82 2257.63,1444.84 2258.65,1444.87 2259.67,1444.9 2260.69,1444.92 2261.72,1444.95 2262.74,1444.98 2263.76,1445 2264.79,1445.03 2265.81,1445.06 2266.83,1445.08 2267.85,1445.11 2268.88,1445.14 2269.9,1445.16 2270.92,1445.19 2271.95,1445.22 2272.97,1445.24 2273.99,1445.27 2275.01,1445.29 2276.04,1445.32 2277.06,1445.35 2278.08,1445.37 2279.11,1445.4 2280.13,1445.43 2281.15,1445.45 2282.18,1445.48 2283.2,1445.51 2284.22,1445.53 2285.24,1445.56 2286.27,1445.58 2287.29,1445.61 2288.31,1445.64 2289.34,1445.66 2290.36,1445.69 2291.38,1445.72 "/>
<path clip-path="url(#clip690)" d="M2011.18 198.898 L2280.47 198.898 L2280.47 95.2176 L2011.18 95.2176  Z" fill="#ffffff" fill-rule="evenodd" fill-opacity="1"/>
<polyline clip-path="url(#clip690)" style="stroke:#000000; stroke-linecap:round; stroke-linejoin:round; stroke-width:4; stroke-opacity:1; fill:none" points="2011.18,198.898 2280.47,198.898 2280.47,95.2176 2011.18,95.2176 2011.18,198.898 "/>
<polyline clip-path="url(#clip690)" style="stroke:#009af9; stroke-linecap:round; stroke-linejoin:round; stroke-width:4; stroke-opacity:1; fill:none" points="2035.28,147.058 2179.85,147.058 "/>
<path clip-path="url(#clip690)" d="M2217.79 166.745 Q2215.98 171.375 2214.27 172.787 Q2212.56 174.199 2209.69 174.199 L2206.28 174.199 L2206.28 170.634 L2208.78 170.634 Q2210.54 170.634 2211.51 169.8 Q2212.49 168.967 2213.67 165.865 L2214.43 163.921 L2203.94 138.412 L2208.46 138.412 L2216.56 158.689 L2224.66 138.412 L2229.18 138.412 L2217.79 166.745 Z" fill="#000000" fill-rule="nonzero" fill-opacity="1" /><path clip-path="url(#clip690)" d="M2236.47 160.402 L2244.11 160.402 L2244.11 134.037 L2235.8 135.703 L2235.8 131.444 L2244.06 129.778 L2248.74 129.778 L2248.74 160.402 L2256.38 160.402 L2256.38 164.338 L2236.47 164.338 L2236.47 160.402 Z" fill="#000000" fill-rule="nonzero" fill-opacity="1" /></svg>
