<?xml version="1.0" encoding="utf-8"?>
<svg xmlns="http://www.w3.org/2000/svg" xmlns:xlink="http://www.w3.org/1999/xlink" width="600" height="400" viewBox="0 0 2400 1600">
<defs>
  <clipPath id="clip930">
    <rect x="0" y="0" width="2400" height="1600"/>
  </clipPath>
</defs>
<path clip-path="url(#clip930)" d="M0 1600 L2400 1600 L2400 0 L0 0  Z" fill="#ffffff" fill-rule="evenodd" fill-opacity="1"/>
<defs>
  <clipPath id="clip931">
    <rect x="480" y="0" width="1681" height="1600"/>
  </clipPath>
</defs>
<path clip-path="url(#clip930)" d="M239.19 1486.45 L2352.76 1486.45 L2352.76 47.2441 L239.19 47.2441  Z" fill="#ffffff" fill-rule="evenodd" fill-opacity="1"/>
<defs>
  <clipPath id="clip932">
    <rect x="239" y="47" width="2115" height="1440"/>
  </clipPath>
</defs>
<polyline clip-path="url(#clip932)" style="stroke:#000000; stroke-linecap:round; stroke-linejoin:round; stroke-width:2; stroke-opacity:0.1; fill:none" points="299.008,1486.45 299.008,47.2441 "/>
<polyline clip-path="url(#clip932)" style="stroke:#000000; stroke-linecap:round; stroke-linejoin:round; stroke-width:2; stroke-opacity:0.1; fill:none" points="797.615,1486.45 797.615,47.2441 "/>
<polyline clip-path="url(#clip932)" style="stroke:#000000; stroke-linecap:round; stroke-linejoin:round; stroke-width:2; stroke-opacity:0.1; fill:none" points="1296.22,1486.45 1296.22,47.2441 "/>
<polyline clip-path="url(#clip932)" style="stroke:#000000; stroke-linecap:round; stroke-linejoin:round; stroke-width:2; stroke-opacity:0.1; fill:none" points="1794.83,1486.45 1794.83,47.2441 "/>
<polyline clip-path="url(#clip932)" style="stroke:#000000; stroke-linecap:round; stroke-linejoin:round; stroke-width:2; stroke-opacity:0.1; fill:none" points="2293.44,1486.45 2293.44,47.2441 "/>
<polyline clip-path="url(#clip930)" style="stroke:#000000; stroke-linecap:round; stroke-linejoin:round; stroke-width:4; stroke-opacity:1; fill:none" points="239.19,1486.45 2352.76,1486.45 "/>
<polyline clip-path="url(#clip930)" style="stroke:#000000; stroke-linecap:round; stroke-linejoin:round; stroke-width:4; stroke-opacity:1; fill:none" points="299.008,1486.45 299.008,1467.55 "/>
<polyline clip-path="url(#clip930)" style="stroke:#000000; stroke-linecap:round; stroke-linejoin:round; stroke-width:4; stroke-opacity:1; fill:none" points="797.615,1486.45 797.615,1467.55 "/>
<polyline clip-path="url(#clip930)" style="stroke:#000000; stroke-linecap:round; stroke-linejoin:round; stroke-width:4; stroke-opacity:1; fill:none" points="1296.22,1486.45 1296.22,1467.55 "/>
<polyline clip-path="url(#clip930)" style="stroke:#000000; stroke-linecap:round; stroke-linejoin:round; stroke-width:4; stroke-opacity:1; fill:none" points="1794.83,1486.45 1794.83,1467.55 "/>
<polyline clip-path="url(#clip930)" style="stroke:#000000; stroke-linecap:round; stroke-linejoin:round; stroke-width:4; stroke-opacity:1; fill:none" points="2293.44,1486.45 2293.44,1467.55 "/>
<path clip-path="url(#clip930)" d="M299.008 1517.37 Q295.397 1517.37 293.568 1520.93 Q291.763 1524.47 291.763 1531.6 Q291.763 1538.71 293.568 1542.27 Q295.397 1545.82 299.008 1545.82 Q302.643 1545.82 304.448 1542.27 Q306.277 1538.71 306.277 1531.6 Q306.277 1524.47 304.448 1520.93 Q302.643 1517.37 299.008 1517.37 M299.008 1513.66 Q304.818 1513.66 307.874 1518.27 Q310.953 1522.85 310.953 1531.6 Q310.953 1540.33 307.874 1544.94 Q304.818 1549.52 299.008 1549.52 Q293.198 1549.52 290.119 1544.94 Q287.064 1540.33 287.064 1531.6 Q287.064 1522.85 290.119 1518.27 Q293.198 1513.66 299.008 1513.66 Z" fill="#000000" fill-rule="nonzero" fill-opacity="1" /><path clip-path="url(#clip930)" d="M742.141 1544.91 L749.78 1544.91 L749.78 1518.55 L741.47 1520.21 L741.47 1515.95 L749.734 1514.29 L754.41 1514.29 L754.41 1544.91 L762.048 1544.91 L762.048 1548.85 L742.141 1548.85 L742.141 1544.91 Z" fill="#000000" fill-rule="nonzero" fill-opacity="1" /><path clip-path="url(#clip930)" d="M781.493 1517.37 Q777.882 1517.37 776.053 1520.93 Q774.247 1524.47 774.247 1531.6 Q774.247 1538.71 776.053 1542.27 Q777.882 1545.82 781.493 1545.82 Q785.127 1545.82 786.933 1542.27 Q788.761 1538.71 788.761 1531.6 Q788.761 1524.47 786.933 1520.93 Q785.127 1517.37 781.493 1517.37 M781.493 1513.66 Q787.303 1513.66 790.358 1518.27 Q793.437 1522.85 793.437 1531.6 Q793.437 1540.33 790.358 1544.94 Q787.303 1549.52 781.493 1549.52 Q775.683 1549.52 772.604 1544.94 Q769.548 1540.33 769.548 1531.6 Q769.548 1522.85 772.604 1518.27 Q775.683 1513.66 781.493 1513.66 Z" fill="#000000" fill-rule="nonzero" fill-opacity="1" /><path clip-path="url(#clip930)" d="M811.655 1517.37 Q808.044 1517.37 806.215 1520.93 Q804.409 1524.47 804.409 1531.6 Q804.409 1538.71 806.215 1542.27 Q808.044 1545.82 811.655 1545.82 Q815.289 1545.82 817.094 1542.27 Q818.923 1538.71 818.923 1531.6 Q818.923 1524.47 817.094 1520.93 Q815.289 1517.37 811.655 1517.37 M811.655 1513.66 Q817.465 1513.66 820.52 1518.27 Q823.599 1522.85 823.599 1531.6 Q823.599 1540.33 820.52 1544.94 Q817.465 1549.52 811.655 1549.52 Q805.844 1549.52 802.766 1544.94 Q799.71 1540.33 799.71 1531.6 Q799.71 1522.85 802.766 1518.27 Q805.844 1513.66 811.655 1513.66 Z" fill="#000000" fill-rule="nonzero" fill-opacity="1" /><path clip-path="url(#clip930)" d="M841.817 1517.37 Q838.205 1517.37 836.377 1520.93 Q834.571 1524.47 834.571 1531.6 Q834.571 1538.71 836.377 1542.27 Q838.205 1545.82 841.817 1545.82 Q845.451 1545.82 847.256 1542.27 Q849.085 1538.71 849.085 1531.6 Q849.085 1524.47 847.256 1520.93 Q845.451 1517.37 841.817 1517.37 M841.817 1513.66 Q847.627 1513.66 850.682 1518.27 Q853.761 1522.85 853.761 1531.6 Q853.761 1540.33 850.682 1544.94 Q847.627 1549.52 841.817 1549.52 Q836.006 1549.52 832.928 1544.94 Q829.872 1540.33 829.872 1531.6 Q829.872 1522.85 832.928 1518.27 Q836.006 1513.66 841.817 1513.66 Z" fill="#000000" fill-rule="nonzero" fill-opacity="1" /><path clip-path="url(#clip930)" d="M1244.83 1544.91 L1261.15 1544.91 L1261.15 1548.85 L1239.21 1548.85 L1239.21 1544.91 Q1241.87 1542.16 1246.45 1537.53 Q1251.06 1532.88 1252.24 1531.53 Q1254.49 1529.01 1255.37 1527.27 Q1256.27 1525.51 1256.27 1523.82 Q1256.27 1521.07 1254.32 1519.33 Q1252.4 1517.6 1249.3 1517.6 Q1247.1 1517.6 1244.65 1518.36 Q1242.22 1519.13 1239.44 1520.68 L1239.44 1515.95 Q1242.26 1514.82 1244.72 1514.24 Q1247.17 1513.66 1249.21 1513.66 Q1254.58 1513.66 1257.77 1516.35 Q1260.97 1519.03 1260.97 1523.52 Q1260.97 1525.65 1260.16 1527.57 Q1259.37 1529.47 1257.26 1532.07 Q1256.69 1532.74 1253.58 1535.95 Q1250.48 1539.15 1244.83 1544.91 Z" fill="#000000" fill-rule="nonzero" fill-opacity="1" /><path clip-path="url(#clip930)" d="M1280.97 1517.37 Q1277.36 1517.37 1275.53 1520.93 Q1273.72 1524.47 1273.72 1531.6 Q1273.72 1538.71 1275.53 1542.27 Q1277.36 1545.82 1280.97 1545.82 Q1284.6 1545.82 1286.41 1542.27 Q1288.24 1538.71 1288.24 1531.6 Q1288.24 1524.47 1286.41 1520.93 Q1284.6 1517.37 1280.97 1517.37 M1280.97 1513.66 Q1286.78 1513.66 1289.83 1518.27 Q1292.91 1522.85 1292.91 1531.6 Q1292.91 1540.33 1289.83 1544.94 Q1286.78 1549.52 1280.97 1549.52 Q1275.16 1549.52 1272.08 1544.94 Q1269.02 1540.33 1269.02 1531.6 Q1269.02 1522.85 1272.08 1518.27 Q1275.16 1513.66 1280.97 1513.66 Z" fill="#000000" fill-rule="nonzero" fill-opacity="1" /><path clip-path="url(#clip930)" d="M1311.13 1517.37 Q1307.52 1517.37 1305.69 1520.93 Q1303.88 1524.47 1303.88 1531.6 Q1303.88 1538.71 1305.69 1542.27 Q1307.52 1545.82 1311.13 1545.82 Q1314.76 1545.82 1316.57 1542.27 Q1318.4 1538.71 1318.4 1531.6 Q1318.4 1524.47 1316.57 1520.93 Q1314.76 1517.37 1311.13 1517.37 M1311.13 1513.66 Q1316.94 1513.66 1320 1518.27 Q1323.07 1522.85 1323.07 1531.6 Q1323.07 1540.33 1320 1544.94 Q1316.94 1549.52 1311.13 1549.52 Q1305.32 1549.52 1302.24 1544.94 Q1299.19 1540.33 1299.19 1531.6 Q1299.19 1522.85 1302.24 1518.27 Q1305.32 1513.66 1311.13 1513.66 Z" fill="#000000" fill-rule="nonzero" fill-opacity="1" /><path clip-path="url(#clip930)" d="M1341.29 1517.37 Q1337.68 1517.37 1335.85 1520.93 Q1334.05 1524.47 1334.05 1531.6 Q1334.05 1538.71 1335.85 1542.27 Q1337.68 1545.82 1341.29 1545.82 Q1344.93 1545.82 1346.73 1542.27 Q1348.56 1538.71 1348.56 1531.6 Q1348.56 1524.47 1346.73 1520.93 Q1344.93 1517.37 1341.29 1517.37 M1341.29 1513.66 Q1347.1 1513.66 1350.16 1518.27 Q1353.24 1522.85 1353.24 1531.6 Q1353.24 1540.33 1350.16 1544.94 Q1347.1 1549.52 1341.29 1549.52 Q1335.48 1549.52 1332.4 1544.94 Q1329.35 1540.33 1329.35 1531.6 Q1329.35 1522.85 1332.4 1518.27 Q1335.48 1513.66 1341.29 1513.66 Z" fill="#000000" fill-rule="nonzero" fill-opacity="1" /><path clip-path="url(#clip930)" d="M1753.51 1530.21 Q1756.87 1530.93 1758.74 1533.2 Q1760.64 1535.47 1760.64 1538.8 Q1760.64 1543.92 1757.12 1546.72 Q1753.6 1549.52 1747.12 1549.52 Q1744.95 1549.52 1742.63 1549.08 Q1740.34 1548.66 1737.89 1547.81 L1737.89 1543.29 Q1739.83 1544.43 1742.14 1545.01 Q1744.46 1545.58 1746.98 1545.58 Q1751.38 1545.58 1753.67 1543.85 Q1755.99 1542.11 1755.99 1538.8 Q1755.99 1535.75 1753.83 1534.03 Q1751.7 1532.3 1747.89 1532.3 L1743.86 1532.3 L1743.86 1528.45 L1748.07 1528.45 Q1751.52 1528.45 1753.35 1527.09 Q1755.18 1525.7 1755.18 1523.11 Q1755.18 1520.45 1753.28 1519.03 Q1751.4 1517.6 1747.89 1517.6 Q1745.96 1517.6 1743.76 1518.01 Q1741.57 1518.43 1738.93 1519.31 L1738.93 1515.14 Q1741.59 1514.4 1743.9 1514.03 Q1746.24 1513.66 1748.3 1513.66 Q1753.63 1513.66 1756.73 1516.09 Q1759.83 1518.5 1759.83 1522.62 Q1759.83 1525.49 1758.19 1527.48 Q1756.54 1529.45 1753.51 1530.21 Z" fill="#000000" fill-rule="nonzero" fill-opacity="1" /><path clip-path="url(#clip930)" d="M1779.51 1517.37 Q1775.89 1517.37 1774.07 1520.93 Q1772.26 1524.47 1772.26 1531.6 Q1772.26 1538.71 1774.07 1542.27 Q1775.89 1545.82 1779.51 1545.82 Q1783.14 1545.82 1784.95 1542.27 Q1786.77 1538.71 1786.77 1531.6 Q1786.77 1524.47 1784.95 1520.93 Q1783.14 1517.37 1779.51 1517.37 M1779.51 1513.66 Q1785.32 1513.66 1788.37 1518.27 Q1791.45 1522.85 1791.45 1531.6 Q1791.45 1540.33 1788.37 1544.94 Q1785.32 1549.52 1779.51 1549.52 Q1773.7 1549.52 1770.62 1544.94 Q1767.56 1540.33 1767.56 1531.6 Q1767.56 1522.85 1770.62 1518.27 Q1773.7 1513.66 1779.51 1513.66 Z" fill="#000000" fill-rule="nonzero" fill-opacity="1" /><path clip-path="url(#clip930)" d="M1809.67 1517.37 Q1806.06 1517.37 1804.23 1520.93 Q1802.42 1524.47 1802.42 1531.6 Q1802.42 1538.71 1804.23 1542.27 Q1806.06 1545.82 1809.67 1545.82 Q1813.3 1545.82 1815.11 1542.27 Q1816.94 1538.71 1816.94 1531.6 Q1816.94 1524.47 1815.11 1520.93 Q1813.3 1517.37 1809.67 1517.37 M1809.67 1513.66 Q1815.48 1513.66 1818.53 1518.27 Q1821.61 1522.85 1821.61 1531.6 Q1821.61 1540.33 1818.53 1544.94 Q1815.48 1549.52 1809.67 1549.52 Q1803.86 1549.52 1800.78 1544.94 Q1797.72 1540.33 1797.72 1531.6 Q1797.72 1522.85 1800.78 1518.27 Q1803.86 1513.66 1809.67 1513.66 Z" fill="#000000" fill-rule="nonzero" fill-opacity="1" /><path clip-path="url(#clip930)" d="M1839.83 1517.37 Q1836.22 1517.37 1834.39 1520.93 Q1832.58 1524.47 1832.58 1531.6 Q1832.58 1538.71 1834.39 1542.27 Q1836.22 1545.82 1839.83 1545.82 Q1843.46 1545.82 1845.27 1542.27 Q1847.1 1538.71 1847.1 1531.6 Q1847.1 1524.47 1845.27 1520.93 Q1843.46 1517.37 1839.83 1517.37 M1839.83 1513.66 Q1845.64 1513.66 1848.69 1518.27 Q1851.77 1522.85 1851.77 1531.6 Q1851.77 1540.33 1848.69 1544.94 Q1845.64 1549.52 1839.83 1549.52 Q1834.02 1549.52 1830.94 1544.94 Q1827.88 1540.33 1827.88 1531.6 Q1827.88 1522.85 1830.94 1518.27 Q1834.02 1513.66 1839.83 1513.66 Z" fill="#000000" fill-rule="nonzero" fill-opacity="1" /><path clip-path="url(#clip930)" d="M2251.45 1518.36 L2239.64 1536.81 L2251.45 1536.81 L2251.45 1518.36 M2250.22 1514.29 L2256.1 1514.29 L2256.1 1536.81 L2261.03 1536.81 L2261.03 1540.7 L2256.1 1540.7 L2256.1 1548.85 L2251.45 1548.85 L2251.45 1540.7 L2235.84 1540.7 L2235.84 1536.19 L2250.22 1514.29 Z" fill="#000000" fill-rule="nonzero" fill-opacity="1" /><path clip-path="url(#clip930)" d="M2278.76 1517.37 Q2275.15 1517.37 2273.32 1520.93 Q2271.52 1524.47 2271.52 1531.6 Q2271.52 1538.71 2273.32 1542.27 Q2275.15 1545.82 2278.76 1545.82 Q2282.4 1545.82 2284.2 1542.27 Q2286.03 1538.71 2286.03 1531.6 Q2286.03 1524.47 2284.2 1520.93 Q2282.4 1517.37 2278.76 1517.37 M2278.76 1513.66 Q2284.57 1513.66 2287.63 1518.27 Q2290.71 1522.85 2290.71 1531.6 Q2290.71 1540.33 2287.63 1544.94 Q2284.57 1549.52 2278.76 1549.52 Q2272.95 1549.52 2269.87 1544.94 Q2266.82 1540.33 2266.82 1531.6 Q2266.82 1522.85 2269.87 1518.27 Q2272.95 1513.66 2278.76 1513.66 Z" fill="#000000" fill-rule="nonzero" fill-opacity="1" /><path clip-path="url(#clip930)" d="M2308.92 1517.37 Q2305.31 1517.37 2303.48 1520.93 Q2301.68 1524.47 2301.68 1531.6 Q2301.68 1538.71 2303.48 1542.27 Q2305.31 1545.82 2308.92 1545.82 Q2312.56 1545.82 2314.36 1542.27 Q2316.19 1538.71 2316.19 1531.6 Q2316.19 1524.47 2314.36 1520.93 Q2312.56 1517.37 2308.92 1517.37 M2308.92 1513.66 Q2314.73 1513.66 2317.79 1518.27 Q2320.87 1522.85 2320.87 1531.6 Q2320.87 1540.33 2317.79 1544.94 Q2314.73 1549.52 2308.92 1549.52 Q2303.11 1549.52 2300.03 1544.94 Q2296.98 1540.33 2296.98 1531.6 Q2296.98 1522.85 2300.03 1518.27 Q2303.11 1513.66 2308.92 1513.66 Z" fill="#000000" fill-rule="nonzero" fill-opacity="1" /><path clip-path="url(#clip930)" d="M2339.08 1517.37 Q2335.47 1517.37 2333.64 1520.93 Q2331.84 1524.47 2331.84 1531.6 Q2331.84 1538.71 2333.64 1542.27 Q2335.47 1545.82 2339.08 1545.82 Q2342.72 1545.82 2344.52 1542.27 Q2346.35 1538.71 2346.35 1531.6 Q2346.35 1524.47 2344.52 1520.93 Q2342.72 1517.37 2339.08 1517.37 M2339.08 1513.66 Q2344.89 1513.66 2347.95 1518.27 Q2351.03 1522.85 2351.03 1531.6 Q2351.03 1540.33 2347.95 1544.94 Q2344.89 1549.52 2339.08 1549.52 Q2333.27 1549.52 2330.2 1544.94 Q2327.14 1540.33 2327.14 1531.6 Q2327.14 1522.85 2330.2 1518.27 Q2333.27 1513.66 2339.08 1513.66 Z" fill="#000000" fill-rule="nonzero" fill-opacity="1" /><polyline clip-path="url(#clip932)" style="stroke:#000000; stroke-linecap:round; stroke-linejoin:round; stroke-width:2; stroke-opacity:0.1; fill:none" points="239.19,1337.28 2352.76,1337.28 "/>
<polyline clip-path="url(#clip932)" style="stroke:#000000; stroke-linecap:round; stroke-linejoin:round; stroke-width:2; stroke-opacity:0.1; fill:none" points="239.19,1014.3 2352.76,1014.3 "/>
<polyline clip-path="url(#clip932)" style="stroke:#000000; stroke-linecap:round; stroke-linejoin:round; stroke-width:2; stroke-opacity:0.1; fill:none" points="239.19,691.317 2352.76,691.317 "/>
<polyline clip-path="url(#clip932)" style="stroke:#000000; stroke-linecap:round; stroke-linejoin:round; stroke-width:2; stroke-opacity:0.1; fill:none" points="239.19,368.334 2352.76,368.334 "/>
<polyline clip-path="url(#clip930)" style="stroke:#000000; stroke-linecap:round; stroke-linejoin:round; stroke-width:4; stroke-opacity:1; fill:none" points="239.19,1486.45 239.19,47.2441 "/>
<polyline clip-path="url(#clip930)" style="stroke:#000000; stroke-linecap:round; stroke-linejoin:round; stroke-width:4; stroke-opacity:1; fill:none" points="239.19,1337.28 258.088,1337.28 "/>
<polyline clip-path="url(#clip930)" style="stroke:#000000; stroke-linecap:round; stroke-linejoin:round; stroke-width:4; stroke-opacity:1; fill:none" points="239.19,1014.3 258.088,1014.3 "/>
<polyline clip-path="url(#clip930)" style="stroke:#000000; stroke-linecap:round; stroke-linejoin:round; stroke-width:4; stroke-opacity:1; fill:none" points="239.19,691.317 258.088,691.317 "/>
<polyline clip-path="url(#clip930)" style="stroke:#000000; stroke-linecap:round; stroke-linejoin:round; stroke-width:4; stroke-opacity:1; fill:none" points="239.19,368.334 258.088,368.334 "/>
<path clip-path="url(#clip930)" d="M50.9921 1337.73 L80.6679 1337.73 L80.6679 1341.67 L50.9921 1341.67 L50.9921 1337.73 Z" fill="#000000" fill-rule="nonzero" fill-opacity="1" /><path clip-path="url(#clip930)" d="M91.5706 1350.63 L99.2095 1350.63 L99.2095 1324.26 L90.8993 1325.93 L90.8993 1321.67 L99.1632 1320 L103.839 1320 L103.839 1350.63 L111.478 1350.63 L111.478 1354.56 L91.5706 1354.56 L91.5706 1350.63 Z" fill="#000000" fill-rule="nonzero" fill-opacity="1" /><path clip-path="url(#clip930)" d="M130.922 1323.08 Q127.311 1323.08 125.482 1326.64 Q123.677 1330.19 123.677 1337.32 Q123.677 1344.42 125.482 1347.99 Q127.311 1351.53 130.922 1351.53 Q134.556 1351.53 136.362 1347.99 Q138.191 1344.42 138.191 1337.32 Q138.191 1330.19 136.362 1326.64 Q134.556 1323.08 130.922 1323.08 M130.922 1319.38 Q136.732 1319.38 139.788 1323.98 Q142.867 1328.57 142.867 1337.32 Q142.867 1346.04 139.788 1350.65 Q136.732 1355.23 130.922 1355.23 Q125.112 1355.23 122.033 1350.65 Q118.978 1346.04 118.978 1337.32 Q118.978 1328.57 122.033 1323.98 Q125.112 1319.38 130.922 1319.38 Z" fill="#000000" fill-rule="nonzero" fill-opacity="1" /><path clip-path="url(#clip930)" d="M161.084 1323.08 Q157.473 1323.08 155.644 1326.64 Q153.839 1330.19 153.839 1337.32 Q153.839 1344.42 155.644 1347.99 Q157.473 1351.53 161.084 1351.53 Q164.718 1351.53 166.524 1347.99 Q168.353 1344.42 168.353 1337.32 Q168.353 1330.19 166.524 1326.64 Q164.718 1323.08 161.084 1323.08 M161.084 1319.38 Q166.894 1319.38 169.95 1323.98 Q173.029 1328.57 173.029 1337.32 Q173.029 1346.04 169.95 1350.65 Q166.894 1355.23 161.084 1355.23 Q155.274 1355.23 152.195 1350.65 Q149.14 1346.04 149.14 1337.32 Q149.14 1328.57 152.195 1323.98 Q155.274 1319.38 161.084 1319.38 Z" fill="#000000" fill-rule="nonzero" fill-opacity="1" /><path clip-path="url(#clip930)" d="M191.246 1323.08 Q187.635 1323.08 185.806 1326.64 Q184.001 1330.19 184.001 1337.32 Q184.001 1344.42 185.806 1347.99 Q187.635 1351.53 191.246 1351.53 Q194.88 1351.53 196.686 1347.99 Q198.514 1344.42 198.514 1337.32 Q198.514 1330.19 196.686 1326.64 Q194.88 1323.08 191.246 1323.08 M191.246 1319.38 Q197.056 1319.38 200.112 1323.98 Q203.19 1328.57 203.19 1337.32 Q203.19 1346.04 200.112 1350.65 Q197.056 1355.23 191.246 1355.23 Q185.436 1355.23 182.357 1350.65 Q179.302 1346.04 179.302 1337.32 Q179.302 1328.57 182.357 1323.98 Q185.436 1319.38 191.246 1319.38 Z" fill="#000000" fill-rule="nonzero" fill-opacity="1" /><path clip-path="url(#clip930)" d="M81.154 1014.75 L110.83 1014.75 L110.83 1018.69 L81.154 1018.69 L81.154 1014.75 Z" fill="#000000" fill-rule="nonzero" fill-opacity="1" /><path clip-path="url(#clip930)" d="M130.922 1015.17 Q127.589 1015.17 125.668 1016.95 Q123.77 1018.73 123.77 1021.86 Q123.77 1024.98 125.668 1026.76 Q127.589 1028.55 130.922 1028.55 Q134.256 1028.55 136.177 1026.76 Q138.098 1024.96 138.098 1021.86 Q138.098 1018.73 136.177 1016.95 Q134.279 1015.17 130.922 1015.17 M126.246 1013.18 Q123.237 1012.44 121.547 1010.38 Q119.881 1008.32 119.881 1005.35 Q119.881 1001.21 122.82 998.801 Q125.783 996.394 130.922 996.394 Q136.084 996.394 139.024 998.801 Q141.964 1001.21 141.964 1005.35 Q141.964 1008.32 140.274 1010.38 Q138.607 1012.44 135.621 1013.18 Q139.001 1013.96 140.876 1016.25 Q142.774 1018.55 142.774 1021.86 Q142.774 1026.88 139.695 1029.56 Q136.64 1032.25 130.922 1032.25 Q125.205 1032.25 122.126 1029.56 Q119.07 1026.88 119.07 1021.86 Q119.07 1018.55 120.969 1016.25 Q122.867 1013.96 126.246 1013.18 M124.533 1005.79 Q124.533 1008.48 126.2 1009.98 Q127.89 1011.49 130.922 1011.49 Q133.931 1011.49 135.621 1009.98 Q137.334 1008.48 137.334 1005.79 Q137.334 1003.11 135.621 1001.6 Q133.931 1000.1 130.922 1000.1 Q127.89 1000.1 126.2 1001.6 Q124.533 1003.11 124.533 1005.79 Z" fill="#000000" fill-rule="nonzero" fill-opacity="1" /><path clip-path="url(#clip930)" d="M161.084 1000.1 Q157.473 1000.1 155.644 1003.66 Q153.839 1007.2 153.839 1014.33 Q153.839 1021.44 155.644 1025 Q157.473 1028.55 161.084 1028.55 Q164.718 1028.55 166.524 1025 Q168.353 1021.44 168.353 1014.33 Q168.353 1007.2 166.524 1003.66 Q164.718 1000.1 161.084 1000.1 M161.084 996.394 Q166.894 996.394 169.95 1001 Q173.029 1005.58 173.029 1014.33 Q173.029 1023.06 169.95 1027.67 Q166.894 1032.25 161.084 1032.25 Q155.274 1032.25 152.195 1027.67 Q149.14 1023.06 149.14 1014.33 Q149.14 1005.58 152.195 1001 Q155.274 996.394 161.084 996.394 Z" fill="#000000" fill-rule="nonzero" fill-opacity="1" /><path clip-path="url(#clip930)" d="M191.246 1000.1 Q187.635 1000.1 185.806 1003.66 Q184.001 1007.2 184.001 1014.33 Q184.001 1021.44 185.806 1025 Q187.635 1028.55 191.246 1028.55 Q194.88 1028.55 196.686 1025 Q198.514 1021.44 198.514 1014.33 Q198.514 1007.2 196.686 1003.66 Q194.88 1000.1 191.246 1000.1 M191.246 996.394 Q197.056 996.394 200.112 1001 Q203.19 1005.58 203.19 1014.33 Q203.19 1023.06 200.112 1027.67 Q197.056 1032.25 191.246 1032.25 Q185.436 1032.25 182.357 1027.67 Q179.302 1023.06 179.302 1014.33 Q179.302 1005.58 182.357 1001 Q185.436 996.394 191.246 996.394 Z" fill="#000000" fill-rule="nonzero" fill-opacity="1" /><path clip-path="url(#clip930)" d="M81.154 691.768 L110.83 691.768 L110.83 695.703 L81.154 695.703 L81.154 691.768 Z" fill="#000000" fill-rule="nonzero" fill-opacity="1" /><path clip-path="url(#clip930)" d="M131.501 689.453 Q128.353 689.453 126.501 691.606 Q124.672 693.759 124.672 697.509 Q124.672 701.236 126.501 703.411 Q128.353 705.564 131.501 705.564 Q134.649 705.564 136.478 703.411 Q138.33 701.236 138.33 697.509 Q138.33 693.759 136.478 691.606 Q134.649 689.453 131.501 689.453 M140.783 674.8 L140.783 679.06 Q139.024 678.226 137.219 677.787 Q135.436 677.347 133.677 677.347 Q129.047 677.347 126.594 680.472 Q124.163 683.597 123.816 689.916 Q125.182 687.902 127.242 686.837 Q129.302 685.749 131.779 685.749 Q136.987 685.749 139.996 688.921 Q143.029 692.069 143.029 697.509 Q143.029 702.833 139.881 706.05 Q136.732 709.268 131.501 709.268 Q125.506 709.268 122.334 704.685 Q119.163 700.078 119.163 691.351 Q119.163 683.157 123.052 678.296 Q126.941 673.412 133.492 673.412 Q135.251 673.412 137.033 673.759 Q138.839 674.106 140.783 674.8 Z" fill="#000000" fill-rule="nonzero" fill-opacity="1" /><path clip-path="url(#clip930)" d="M161.084 677.115 Q157.473 677.115 155.644 680.68 Q153.839 684.222 153.839 691.351 Q153.839 698.458 155.644 702.023 Q157.473 705.564 161.084 705.564 Q164.718 705.564 166.524 702.023 Q168.353 698.458 168.353 691.351 Q168.353 684.222 166.524 680.68 Q164.718 677.115 161.084 677.115 M161.084 673.412 Q166.894 673.412 169.95 678.018 Q173.029 682.601 173.029 691.351 Q173.029 700.078 169.95 704.685 Q166.894 709.268 161.084 709.268 Q155.274 709.268 152.195 704.685 Q149.14 700.078 149.14 691.351 Q149.14 682.601 152.195 678.018 Q155.274 673.412 161.084 673.412 Z" fill="#000000" fill-rule="nonzero" fill-opacity="1" /><path clip-path="url(#clip930)" d="M191.246 677.115 Q187.635 677.115 185.806 680.68 Q184.001 684.222 184.001 691.351 Q184.001 698.458 185.806 702.023 Q187.635 705.564 191.246 705.564 Q194.88 705.564 196.686 702.023 Q198.514 698.458 198.514 691.351 Q198.514 684.222 196.686 680.68 Q194.88 677.115 191.246 677.115 M191.246 673.412 Q197.056 673.412 200.112 678.018 Q203.19 682.601 203.19 691.351 Q203.19 700.078 200.112 704.685 Q197.056 709.268 191.246 709.268 Q185.436 709.268 182.357 704.685 Q179.302 700.078 179.302 691.351 Q179.302 682.601 182.357 678.018 Q185.436 673.412 191.246 673.412 Z" fill="#000000" fill-rule="nonzero" fill-opacity="1" /><path clip-path="url(#clip930)" d="M81.154 368.786 L110.83 368.786 L110.83 372.721 L81.154 372.721 L81.154 368.786 Z" fill="#000000" fill-rule="nonzero" fill-opacity="1" /><path clip-path="url(#clip930)" d="M133.769 355.128 L121.964 373.577 L133.769 373.577 L133.769 355.128 M132.543 351.054 L138.422 351.054 L138.422 373.577 L143.353 373.577 L143.353 377.466 L138.422 377.466 L138.422 385.614 L133.769 385.614 L133.769 377.466 L118.168 377.466 L118.168 372.952 L132.543 351.054 Z" fill="#000000" fill-rule="nonzero" fill-opacity="1" /><path clip-path="url(#clip930)" d="M161.084 354.133 Q157.473 354.133 155.644 357.698 Q153.839 361.239 153.839 368.369 Q153.839 375.476 155.644 379.04 Q157.473 382.582 161.084 382.582 Q164.718 382.582 166.524 379.04 Q168.353 375.476 168.353 368.369 Q168.353 361.239 166.524 357.698 Q164.718 354.133 161.084 354.133 M161.084 350.429 Q166.894 350.429 169.95 355.036 Q173.029 359.619 173.029 368.369 Q173.029 377.096 169.95 381.702 Q166.894 386.286 161.084 386.286 Q155.274 386.286 152.195 381.702 Q149.14 377.096 149.14 368.369 Q149.14 359.619 152.195 355.036 Q155.274 350.429 161.084 350.429 Z" fill="#000000" fill-rule="nonzero" fill-opacity="1" /><path clip-path="url(#clip930)" d="M191.246 354.133 Q187.635 354.133 185.806 357.698 Q184.001 361.239 184.001 368.369 Q184.001 375.476 185.806 379.04 Q187.635 382.582 191.246 382.582 Q194.88 382.582 196.686 379.04 Q198.514 375.476 198.514 368.369 Q198.514 361.239 196.686 357.698 Q194.88 354.133 191.246 354.133 M191.246 350.429 Q197.056 350.429 200.112 355.036 Q203.19 359.619 203.19 368.369 Q203.19 377.096 200.112 381.702 Q197.056 386.286 191.246 386.286 Q185.436 386.286 182.357 381.702 Q179.302 377.096 179.302 368.369 Q179.302 359.619 182.357 355.036 Q185.436 350.429 191.246 350.429 Z" fill="#000000" fill-rule="nonzero" fill-opacity="1" /><polyline clip-path="url(#clip932)" style="stroke:#009af9; stroke-linecap:round; stroke-linejoin:round; stroke-width:4; stroke-opacity:1; fill:none" points="299.008,108.553 299.507,109.824 300.005,288.352 300.504,289.274 301.003,198.114 301.501,199.152 302,87.9763 302.499,89.1015 302.997,106.691 303.496,107.754 303.994,270.515 304.493,271.425 304.992,280.441 305.49,281.427 305.989,228.206 306.487,229.185 306.986,131.746 307.485,132.68 307.983,341.535 308.482,342.113 308.98,194.847 309.479,195.577 309.978,259.261 310.476,259.954 310.975,357.633 311.473,358.118 311.972,168.199 312.471,168.848 312.969,302.627 313.468,303.372 313.966,304.059 314.465,304.547 314.964,240.796 315.462,241.239 315.961,433.848 316.46,434.021 316.958,249.088 317.457,249.483 317.955,231.67 318.454,232.105 318.953,252.708 319.451,253.124 319.95,270.371 320.448,270.852 320.947,200.999 321.446,201.392 321.944,277.535 322.443,277.852 322.941,461.729 323.44,462.028 323.939,244.876 324.437,245.227 324.936,347.983 325.434,348.257 325.933,365.718 326.432,365.911 326.93,370.911 327.429,371.197 327.927,311.139 328.426,311.272 328.925,344.826 329.423,344.954 329.922,338.125 330.421,338.183 330.919,234.076 331.418,234.33 331.916,273.693 332.415,273.806 332.914,428.185 333.412,428.395 333.911,385.927 334.409,386.087 334.908,365.064 335.407,365.24 335.905,362.429 336.404,362.526 336.902,320.393 337.401,320.567 337.9,265.351 338.398,265.455 338.897,403.034 339.395,403.093 339.894,242.455 340.393,242.61 340.891,435.854 341.39,435.854 341.888,391.332 342.387,391.405 342.886,339.878 343.384,340.015 343.883,276.533 344.382,276.503 344.88,384.284 345.379,384.313 345.877,388.705 346.376,388.744 346.875,348.082 347.373,348.096 347.872,424.827 348.37,424.762 348.869,393.939 349.368,393.813 349.866,403.007 350.365,402.939 350.863,507.649 351.362,507.659 351.861,420.614 352.359,420.623 352.858,488.19 353.356,488.154 353.855,567.28 354.354,567.071 354.852,311.565 355.351,311.595 355.849,431.442 356.348,431.271 356.847,396.592 357.345,396.468 357.844,388.467 358.343,388.492 358.841,385.481 359.34,385.261 359.838,407.201 360.337,407.15 360.836,422.58 361.334,422.426 361.833,365.632 362.331,365.632 362.83,423.699 363.329,423.677 363.827,416.149 364.326,416.127 364.824,323.487 365.323,323.485 365.822,459.583 366.32,459.502 366.819,509.724 367.317,509.626 367.816,409.776 368.315,409.638 368.813,345.999 369.312,345.927 369.81,446.961 370.309,446.847 370.808,444.072 371.306,443.918 371.805,368.212 372.304,368.071 372.802,325.13 373.301,325.098 373.799,465.234 374.298,465.111 374.797,558.426 375.295,558.285 375.794,375.178 376.292,375.106 376.791,497.838 377.29,497.728 377.788,443.269 378.287,443.195 378.785,494.441 379.284,494.344 379.783,342.072 380.281,342.002 380.78,437.794 381.278,437.69 381.777,377.363 382.276,377.259 382.774,339.908 383.273,339.791 383.771,408.646 384.27,408.613 384.769,315.755 385.267,315.702 385.766,414.872 386.265,414.757 386.763,400.972 387.262,400.896 387.76,457.543 388.259,457.44 388.758,295.434 389.256,295.395 389.755,472.666 390.253,472.571 390.752,369.077 391.251,368.957 391.749,461.831 392.248,461.717 392.746,433.362 393.245,433.152 393.744,592.564 394.242,592.301 394.741,556.344 395.239,556.127 395.738,502.111 396.237,501.96 396.735,510.279 397.234,510.097 397.732,549.71 398.231,549.566 398.73,428.887 399.228,428.72 399.727,459.393 400.226,459.302 400.724,428.424 401.223,428.323 401.721,487.885 402.22,487.787 402.719,461.333 403.217,461.23 403.716,515.756 404.214,515.581 404.713,522.62 405.212,522.482 405.71,496.97 406.209,496.662 406.707,567.09 407.206,566.869 407.705,508.916 408.203,508.783 408.702,354.906 409.2,354.86 409.699,581.848 410.198,581.602 410.696,432.016 411.195,431.905 411.693,445.566 412.192,445.493 412.691,517.275 413.189,517.152 413.688,385.676 414.187,385.602 414.685,531.762 415.184,531.568 415.682,403.653 416.181,403.574 416.68,466.041 417.178,465.917 417.677,497.961 418.175,497.878 418.674,472.382 419.173,472.327 419.671,565.592 420.17,565.439 420.668,442.744 421.167,442.675 421.666,565.48 422.164,565.292 422.663,506.687 423.161,506.6 423.66,513.904 424.159,513.778 424.657,450.851 425.156,450.733 425.654,490.274 426.153,490.064 426.652,552.748 427.15,552.627 427.649,615.425 428.148,615.143 428.646,571.914 429.145,571.73 429.643,590.962 430.142,590.735 430.641,510.488 431.139,510.364 431.638,591.653 432.136,591.411 432.635,460.79 433.134,460.711 433.632,545.855 434.131,545.725 434.629,623.752 435.128,623.479 435.627,548.311 436.125,548.147 436.624,496.218 437.122,496.121 437.621,522.715 438.12,522.626 438.618,629.966 439.117,629.803 439.615,483.054 440.114,482.938 440.613,450.143 441.111,450.072 441.61,566.997 442.109,566.867 442.607,584.357 443.106,584.258 443.604,630.622 444.103,630.45 444.602,586.927 445.1,586.799 445.599,574.418 446.097,574.167 446.596,581.324 447.095,581.122 447.593,501.432 448.092,501.257 448.59,621.357 449.089,621.235 449.588,533.633 450.086,533.521 450.585,604.813 451.083,604.604 451.582,637.952 452.081,637.727 452.579,587.201 453.078,586.945 453.576,582.687 454.075,582.552 454.574,483.261 455.072,483.207 455.571,494.805 456.07,494.772 456.568,595.625 457.067,595.52 457.565,542.547 458.064,542.379 458.563,618.076 459.061,617.84 459.56,538.279 460.058,538.18 460.557,524.178 461.056,524.058 461.554,526.668 462.053,526.574 462.551,463.42 463.05,463.34 463.549,518.488 464.047,518.295 464.546,544.601 465.044,544.48 465.543,417.919 466.042,417.88 466.54,591.368 467.039,591.119 467.537,521.164 468.036,521.029 468.535,602.749 469.033,602.61 469.532,426.208 470.031,426.042 470.529,508.264 471.028,508.169 471.526,500.72 472.025,500.639 472.524,470.684 473.022,470.517 473.521,541.565 474.019,541.43 474.518,610.934 475.017,610.831 475.515,624.316 476.014,624.19 476.512,595.393 477.011,595.323 477.51,460.01 478.008,459.809 478.507,636.322 479.005,636.203 479.504,576.675 480.003,576.462 480.501,562.28 481,562.164 481.498,463.695 481.997,463.607 482.496,686.709 482.994,686.586 483.493,594.709 483.992,594.598 484.49,551.429 484.989,551.267 485.487,623.965 485.986,623.848 486.485,552.235 486.983,551.999 487.482,505.688 487.98,505.596 488.479,566.836 488.978,566.738 489.476,436.819 489.975,436.702 490.473,654.769 490.972,654.648 491.471,475.05 491.969,474.975 492.468,543.807 492.966,543.621 493.465,628.838 493.964,628.635 494.462,555.031 494.961,554.9 495.459,502.838 495.958,502.77 496.457,601.147 496.955,601.092 497.454,524.067 497.953,523.897 498.451,545.288 498.95,545.195 499.448,674.549 499.947,674.32 500.446,484.86 500.944,484.738 501.443,478.266 501.941,478.127 502.44,525.874 502.939,525.798 503.437,505.337 503.936,505.305 504.434,585.956 504.933,585.809 505.432,552.696 505.93,552.607 506.429,621.176 506.927,620.992 507.426,679.737 507.925,679.639 508.423,592.881 508.922,592.754 509.42,405.84 509.919,405.816 510.418,648.739 510.916,648.633 511.415,555.23 511.914,555.129 512.412,506.52 512.911,506.431 513.409,636.624 513.908,636.43 514.407,603.612 514.905,603.384 515.404,537.68 515.902,537.61 516.401,591.347 516.9,591.217 517.398,609.632 517.897,609.508 518.395,598.361 518.894,598.156 519.393,520.225 519.891,520.169 520.39,606.438 520.888,606.314 521.387,597.14 521.886,597.066 522.384,563.304 522.883,563.147 523.381,490.669 523.88,490.533 524.379,566.036 524.877,565.886 525.376,475.327 525.875,475.236 526.373,626.356 526.872,626.208 527.37,621.224 527.869,621.078 528.368,613.175 528.866,613.061 529.365,577.012 529.863,576.951 530.362,621.322 530.861,621.186 531.359,619.128 531.858,618.999 532.356,496.088 532.855,495.988 533.354,612.279 533.852,612.156 534.351,648.121 534.849,647.994 535.348,592.078 535.847,591.914 536.345,471.861 536.844,471.769 537.342,563.467 537.841,563.353 538.34,585.804 538.838,585.728 539.337,571.199 539.835,571.123 540.334,559.534 540.833,559.466 541.331,548.448 541.83,548.324 542.329,563.096 542.827,562.921 543.326,603.265 543.824,603.098 544.323,551.926 544.822,551.863 545.32,615.955 545.819,615.84 546.317,550.467 546.816,550.424 547.315,654.956 547.813,654.709 548.312,802.55 548.81,802.372 549.309,682.98 549.808,682.85 550.306,623.438 550.805,623.339 551.303,709.956 551.802,709.858 552.301,591.882 552.799,591.698 553.298,494.187 553.796,494.155 554.295,629.582 554.794,629.495 555.292,534.571 555.791,534.407 556.29,572.097 556.788,572.071 557.287,558.283 557.785,558.151 558.284,470.191 558.783,470.093 559.281,557.534 559.78,557.452 560.278,635.941 560.777,635.846 561.276,573.827 561.774,573.738 562.273,651.527 562.771,651.454 563.27,634.067 563.769,633.867 564.267,514.838 564.766,514.794 565.264,527.702 565.763,527.58 566.262,734.238 566.76,734.067 567.259,534.369 567.757,534.293 568.256,433.526 568.755,433.464 569.253,564.672 569.752,564.557 570.251,513.376 570.749,513.303 571.248,526.044 571.746,525.94 572.245,629.232 572.744,629.125 573.242,546.182 573.741,546.129 574.239,507.608 574.738,507.53 575.237,503.309 575.735,503.207 576.234,517.556 576.732,517.44 577.231,367.464 577.73,367.419 578.228,604.787 578.727,604.628 579.225,522.275 579.724,522.189 580.223,621.522 580.721,621.394 581.22,675.03 581.718,674.895 582.217,510.397 582.716,510.262 583.214,663.218 583.713,663.134 584.212,486.759 584.71,486.669 585.209,652.705 585.707,652.557 586.206,564.198 586.705,563.981 587.203,641.785 587.702,641.692 588.2,714.157 588.699,713.972 589.198,579.857 589.696,579.732 590.195,549.1 590.693,549.047 591.192,552.911 591.691,552.808 592.189,602.926 592.688,602.819 593.186,641.171 593.685,641.058 594.184,660.815 594.682,660.775 595.181,625.373 595.679,625.156 596.178,611.685 596.677,611.615 597.175,603.117 597.674,603.06 598.173,647.713 598.671,647.615 599.17,699.588 599.668,699.507 600.167,445.005 600.666,444.901 601.164,509.678 601.663,509.59 602.161,584.523 602.66,584.396 603.159,636.227 603.657,636.042 604.156,555.676 604.654,555.594 605.153,573.341 605.652,573.232 606.15,531.841 606.649,531.797 607.147,659.852 607.646,659.681 608.145,542.944 608.643,542.884 609.142,584.964 609.64,584.869 610.139,601.352 610.638,601.209 611.136,724.559 611.635,724.432 612.134,560.955 612.632,560.873 613.131,657.627 613.629,657.498 614.128,590.934 614.627,590.842 615.125,598.195 615.624,598.095 616.122,575.337 616.621,575.234 617.12,730.896 617.618,730.692 618.117,706.438 618.615,706.18 619.114,631.344 619.613,631.254 620.111,686.079 620.61,686 621.108,661.789 621.607,661.499 622.106,546.854 622.604,546.73 623.103,678.109 623.601,678.002 624.1,591.588 624.599,591.498 625.097,618.009 625.596,617.892 626.095,631.354 626.593,631.192 627.092,618.596 627.59,618.547 628.089,636.215 628.588,636.026 629.086,541.356 629.585,541.34 630.083,737.357 630.582,737.158 631.081,639.669 631.579,639.551 632.078,716.907 632.576,716.761 633.075,676.972 633.574,676.883 634.072,664.031 634.571,663.859 635.069,647.167 635.568,647.099 636.067,672.563 636.565,672.512 637.064,771.041 637.562,770.937 638.061,541.952 638.56,541.87 639.058,582.006 639.557,581.872 640.056,629.498 640.554,629.38 641.053,543.7 641.551,543.523 642.05,480.791 642.549,480.677 643.047,576.5 643.546,576.447 644.044,598.592 644.543,598.518 645.042,593.518 645.54,593.433 646.039,583.656 646.537,583.564 647.036,686.925 647.535,686.771 648.033,577.294 648.532,577.156 649.03,718.978 649.529,718.804 650.028,614.914 650.526,614.873 651.025,655.37 651.523,655.252 652.022,658.01 652.521,657.902 653.019,624.202 653.518,624.082 654.017,544.76 654.515,544.681 655.014,586.114 655.512,585.992 656.011,655.568 656.51,655.508 657.008,605.886 657.507,605.802 658.005,577.344 658.504,577.28 659.003,584.76 659.501,584.611 660,708.576 660.498,708.478 660.997,650.582 661.496,650.472 661.994,782.873 662.493,782.703 662.991,647.198 663.49,647.162 663.989,664.324 664.487,664.291 664.986,633.866 665.484,633.769 665.983,606.006 666.482,605.949 666.98,604.209 667.479,604.12 667.978,711.523 668.476,711.387 668.975,575.677 669.473,575.588 669.972,682.782 670.471,682.601 670.969,622.814 671.468,622.687 671.966,563.745 672.465,563.576 672.964,597.944 673.462,597.836 673.961,603.545 674.459,603.507 674.958,656.81 675.457,656.745 675.955,592.405 676.454,592.345 676.952,687.132 677.451,686.977 677.95,622.304 678.448,622.23 678.947,634.59 679.445,634.555 679.944,591.071 680.443,591.004 680.941,539.783 681.44,539.717 681.939,728.807 682.437,728.619 682.936,583.307 683.434,583.253 683.933,585.662 684.432,585.555 684.93,629.761 685.429,629.653 685.927,582.121 686.426,581.962 686.925,652.556 687.423,652.421 687.922,739.509 688.42,739.335 688.919,580.225 689.418,580.129 689.916,597.927 690.415,597.901 690.913,728.219 691.412,728.098 691.911,649.229 692.409,649.15 692.908,641.577 693.406,641.538 693.905,602.262 694.404,602.152 694.902,653.303 695.401,653.158 695.9,592.834 696.398,592.773 696.897,655.735 697.395,655.647 697.894,714.083 698.393,713.911 698.891,623.066 699.39,622.949 699.888,625.908 700.387,625.768 700.886,637.443 701.384,637.352 701.883,780.796 702.381,780.585 702.88,505.279 703.379,505.236 703.877,672.727 704.376,672.625 704.874,663.822 705.373,663.719 705.872,622.686 706.37,622.537 706.869,737.537 707.367,737.3 707.866,638.598 708.365,638.491 708.863,636.061 709.362,635.993 709.861,714.312 710.359,714.255 710.858,742.779 711.356,742.616 711.855,712.476 712.354,712.422 712.852,720.336 713.351,720.134 713.849,558.409 714.348,558.245 714.847,695.041 715.345,694.906 715.844,592.791 716.342,592.758 716.841,644.785 717.34,644.702 717.838,546.471 718.337,546.434 718.835,522.729 719.334,522.614 719.833,571.38 720.331,571.26 720.83,564.208 721.328,564.118 721.827,713.059 722.326,712.954 722.824,599.362 723.323,599.283 723.822,588.189 724.32,588.067 724.819,810.45 725.317,810.306 725.816,753.219 726.315,753.142 726.813,670.362 727.312,670.248 727.81,707.234 728.309,707.088 728.808,732.089 729.306,731.945 729.805,679.331 730.303,679.202 730.802,735.469 731.301,735.446 731.799,720.504 732.298,720.418 732.796,625.656 733.295,625.547 733.794,617.171 734.292,617.093 734.791,655.14 735.289,655.062 735.788,762.511 736.287,762.364 736.785,699.653 737.284,699.52 737.783,671.63 738.281,671.531 738.78,727.447 739.278,727.386 739.777,743.574 740.276,743.443 740.774,593.952 741.273,593.849 741.771,771.452 742.27,771.192 742.769,730.368 743.267,730.234 743.766,541.355 744.264,541.208 744.763,586.127 745.262,586.036 745.76,759.923 746.259,759.755 746.757,717.863 747.256,717.769 747.755,568.222 748.253,568.146 748.752,654.987 749.25,654.858 749.749,707.388 750.248,707.203 750.746,694.585 751.245,694.546 751.744,714.14 752.242,714.008 752.741,693.859 753.239,693.705 753.738,693.366 754.237,693.262 754.735,703.479 755.234,703.379 755.732,667.731 756.231,667.663 756.73,785.898 757.228,785.766 757.727,495.467 758.225,495.385 758.724,579.841 759.223,579.712 759.721,666.06 760.22,665.895 760.718,767.357 761.217,767.264 761.716,537.023 762.214,536.804 762.713,792.908 763.211,792.796 763.71,664.943 764.209,664.833 764.707,568.03 765.206,567.994 765.705,686.839 766.203,686.639 766.702,832.697 767.2,832.536 767.699,611.455 768.198,611.193 768.696,627.506 769.195,627.389 769.693,646.092 770.192,645.936 770.691,623.984 771.189,623.916 771.688,639.021 772.186,638.983 772.685,718.542 773.184,718.386 773.682,665.232 774.181,665.053 774.679,585.067 775.178,584.997 775.677,673.906 776.175,673.806 776.674,612.64 777.172,612.426 777.671,709.855 778.17,709.657 778.668,623.316 779.167,623.243 779.666,722.381 780.164,722.288 780.663,689.306 781.161,689.18 781.66,731.329 782.159,731.158 782.657,668.534 783.156,668.441 783.654,682.305 784.153,682.231 784.652,675.897 785.15,675.793 785.649,620.377 786.147,620.223 786.646,726.479 787.145,726.411 787.643,659.413 788.142,659.382 788.64,727.671 789.139,727.506 789.638,778.622 790.136,778.571 790.635,883.024 791.133,882.906 791.632,655.142 792.131,655.022 792.629,686.619 793.128,686.486 793.627,780.492 794.125,780.313 794.624,700.886 795.122,700.758 795.621,836.79 796.12,836.644 796.618,781.313 797.117,781.044 797.615,712.486 798.114,712.412 798.613,753.783 799.111,753.642 799.61,510.503 800.108,510.396 800.607,754.025 801.106,753.933 801.604,622.947 802.103,622.888 802.601,614.392 803.1,614.3 803.599,631.083 804.097,630.998 804.596,649.691 805.094,649.599 805.593,575.971 806.092,575.848 806.59,778.797 807.089,778.576 807.588,682.5 808.086,682.43 808.585,613.04 809.083,612.929 809.582,737.264 810.081,737.144 810.579,652.293 811.078,652.092 811.576,658.769 812.075,658.68 812.574,733.773 813.072,733.661 813.571,671.877 814.069,671.681 814.568,662.291 815.067,662.182 815.565,652.316 816.064,652.25 816.562,691.868 817.061,691.841 817.56,606.996 818.058,606.922 818.557,613.745 819.055,613.603 819.554,724.324 820.053,724.247 820.551,631.553 821.05,631.345 821.549,637.658 822.047,637.504 822.546,631.848 823.044,631.778 823.543,659.394 824.042,659.29 824.54,742.266 825.039,742.147 825.537,597.018 826.036,596.972 826.535,873.083 827.033,872.967 827.532,678.266 828.03,678.058 828.529,679.113 829.028,679.049 829.526,659.356 830.025,659.267 830.523,611.21 831.022,611.113 831.521,617.363 832.019,617.271 832.518,757.174 833.016,757.117 833.515,572.354 834.014,572.262 834.512,642.175 835.011,642.107 835.51,490.976 836.008,490.974 836.507,718.441 837.005,718.309 837.504,613.312 838.003,613.265 838.501,562.125 839,562.023 839.498,782.313 839.997,782.06 840.496,741.966 840.994,741.723 841.493,705.107 841.991,704.957 842.49,755.11 842.989,754.83 843.487,750.136 843.986,750.024 844.484,739.255 844.983,739.12 845.482,651.827 845.98,651.704 846.479,617.334 846.977,617.16 847.476,737.65 847.975,737.602 848.473,615.48 848.972,615.403 849.47,641.672 849.969,641.575 850.468,635.542 850.966,635.464 851.465,580.424 851.964,580.38 852.462,685.924 852.961,685.846 853.459,657.141 853.958,656.995 854.457,702.2 854.955,702.14 855.454,655.818 855.952,655.648 856.451,554.51 856.95,554.495 857.448,790.152 857.947,789.979 858.445,527.222 858.944,527.038 859.443,647.888 859.941,647.813 860.44,684.611 860.938,684.537 861.437,723.691 861.936,723.641 862.434,710.948 862.933,710.833 863.431,757.805 863.93,757.643 864.429,770.716 864.927,770.662 865.426,637.261 865.925,637.125 866.423,659.991 866.922,659.865 867.42,726.789 867.919,726.673 868.418,755.017 868.916,754.894 869.415,680.91 869.913,680.79 870.412,662.013 870.911,661.955 871.409,519.868 871.908,519.783 872.406,741.085 872.905,741.02 873.404,734.894 873.902,734.835 874.401,766.174 874.899,766.053 875.398,805.479 875.897,805.324 876.395,596.445 876.894,596.43 877.392,773.106 877.891,772.932 878.39,778.013 878.888,777.897 879.387,681.503 879.886,681.38 880.384,881.689 880.883,881.444 881.381,689.877 881.88,689.762 882.379,752.206 882.877,752.073 883.376,717.711 883.874,717.616 884.373,724.275 884.872,724.085 885.37,591.5 885.869,591.381 886.367,644.64 886.866,644.556 887.365,707.573 887.863,707.465 888.362,750.997 888.86,750.897 889.359,760.492 889.858,760.234 890.356,737.399 890.855,737.252 891.353,647.405 891.852,647.268 892.351,704.187 892.849,704.132 893.348,785.257 893.847,785.012 894.345,812.715 894.844,812.568 895.342,807.171 895.841,807.016 896.34,655.904 896.838,655.805 897.337,708.661 897.835,708.563 898.334,717.19 898.833,717.003 899.331,716.222 899.83,716.063 900.328,841.676 900.827,841.55 901.326,585.98 901.824,585.86 902.323,774.148 902.821,773.976 903.32,796.78 903.819,796.598 904.317,707.518 904.816,707.46 905.314,739.431 905.813,739.287 906.312,699.825 906.81,699.781 907.309,768.885 907.808,768.7 908.306,637.77 908.805,637.614 909.303,797.711 909.802,797.622 910.301,699.647 910.799,699.575 911.298,886.254 911.796,886.082 912.295,649.097 912.794,649.007 913.292,683.19 913.791,683.117 914.289,746.457 914.788,746.286 915.287,599.085 915.785,598.992 916.284,671.447 916.782,671.372 917.281,812.776 917.78,812.668 918.278,666.128 918.777,666.076 919.275,662.849 919.774,662.712 920.273,841.223 920.771,841.106 921.27,712.778 921.769,712.619 922.267,665.429 922.766,665.344 923.264,796.061 923.763,795.862 924.262,693.795 924.76,693.623 925.259,815.834 925.757,815.747 926.256,807.486 926.755,807.19 927.253,754.001 927.752,753.793 928.25,658.9 928.749,658.713 929.248,751.485 929.746,751.379 930.245,703.674 930.743,703.535 931.242,800.55 931.741,800.48 932.239,751.742 932.738,751.522 933.236,834.525 933.735,834.466 934.234,746.052 934.732,745.998 935.231,703.536 935.73,703.43 936.228,709.425 936.727,709.334 937.225,790.518 937.724,790.364 938.223,705.586 938.721,705.482 939.22,684.221 939.718,684.109 940.217,817.288 940.716,817.181 941.214,1042.13 941.713,1041.97 942.211,773.437 942.71,773.299 943.209,691.668 943.707,691.544 944.206,781.346 944.704,781.227 945.203,817.443 945.702,817.228 946.2,739.181 946.699,739.15 947.197,766.376 947.696,766.223 948.195,555.248 948.693,555.159 949.192,910.672 949.691,910.542 950.189,588.928 950.688,588.832 951.186,697.184 951.685,697.065 952.184,741.567 952.682,741.466 953.181,807.439 953.679,807.281 954.178,836.95 954.677,836.85 955.175,804.121 955.674,803.975 956.172,753.796 956.671,753.67 957.17,798.282 957.668,798.142 958.167,688.904 958.665,688.793 959.164,669.663 959.663,669.508 960.161,839.283 960.66,839.144 961.158,713.171 961.657,713.064 962.156,671.775 962.654,671.728 963.153,707.878 963.652,707.738 964.15,717.664 964.649,717.564 965.147,834.761 965.646,834.544 966.145,730.811 966.643,730.695 967.142,813.965 967.64,813.782 968.139,683.271 968.638,683.15 969.136,638.337 969.635,638.215 970.133,712.054 970.632,711.984 971.131,756.738 971.629,756.656 972.128,817.707 972.626,817.621 973.125,529.753 973.624,529.741 974.122,681.142 974.621,680.986 975.119,707.988 975.618,707.914 976.117,782.379 976.615,782.223 977.114,743.325 977.613,743.163 978.111,862.985 978.61,862.824 979.108,705.459 979.607,705.335 980.106,791.184 980.604,790.942 981.103,743.086 981.601,742.989 982.1,798.146 982.599,798.037 983.097,549.312 983.596,549.244 984.094,749.293 984.593,749.183 985.092,750.688 985.59,750.595 986.089,786.327 986.587,786.048 987.086,797.643 987.585,797.546 988.083,802.109 988.582,801.894 989.08,692.099 989.579,692.031 990.078,706.28 990.576,706.077 991.075,640.432 991.574,640.309 992.072,737.727 992.571,737.489 993.069,724.434 993.568,724.331 994.067,718.506 994.565,718.385 995.064,737.971 995.562,737.647 996.061,711.823 996.56,711.628 997.058,767.795 997.557,767.639 998.055,816.6 998.554,816.364 999.053,692.299 999.551,692.172 1000.05,621.706 1000.55,621.503 1001.05,752.622 1001.55,752.532 1002.04,836.975 1002.54,836.838 1003.04,747.7 1003.54,747.494 1004.04,821.586 1004.54,821.511 1005.04,668.568 1005.53,668.367 1006.03,677.983 1006.53,677.862 1007.03,768.292 1007.53,768.187 1008.03,805.788 1008.53,805.733 1009.02,925.049 1009.52,924.923 1010.02,880.04 1010.52,879.828 1011.02,749.121 1011.52,748.962 1012.02,679.315 1012.52,679.129 1013.01,621.193 1013.51,621.146 1014.01,887.351 1014.51,887.268 1015.01,746.517 1015.51,746.467 1016.01,740.386 1016.5,740.28 1017,702.908 1017.5,702.806 1018,742.119 1018.5,741.933 1019,831.617 1019.5,831.488 1019.99,884.422 1020.49,884.196 1020.99,911.953 1021.49,911.72 1021.99,723.969 1022.49,723.876 1022.99,708.974 1023.48,708.88 1023.98,770.05 1024.48,769.922 1024.98,858.065 1025.48,857.952 1025.98,744.761 1026.48,744.628 1026.97,928.074 1027.47,927.87 1027.97,686.902 1028.47,686.692 1028.97,798.607 1029.47,798.341 1029.97,749.974 1030.46,749.725 1030.96,761.939 1031.46,761.798 1031.96,739.344 1032.46,739.258 1032.96,818.718 1033.46,818.644 1033.96,824.426 1034.45,824.185 1034.95,891.428 1035.45,891.272 1035.95,834.864 1036.45,834.731 1036.95,802.599 1037.45,802.456 1037.94,857.529 1038.44,857.405 1038.94,993.133 1039.44,993.069 1039.94,842.774 1040.44,842.64 1040.94,739.738 1041.43,739.673 1041.93,920.412 1042.43,920.254 1042.93,933.874 1043.43,933.792 1043.93,645.928 1044.43,645.854 1044.92,744.297 1045.42,744.142 1045.92,828.037 1046.42,827.975 1046.92,821.776 1047.42,821.498 1047.92,741.861 1048.41,741.698 1048.91,781.711 1049.41,781.59 1049.91,774.506 1050.41,774.452 1050.91,797.501 1051.41,797.318 1051.9,722.126 1052.4,722.07 1052.9,765.026 1053.4,764.776 1053.9,854.175 1054.4,853.982 1054.9,843.78 1055.4,843.653 1055.89,784.505 1056.39,784.376 1056.89,852.397 1057.39,852.2 1057.89,746.118 1058.39,745.963 1058.89,753.662 1059.38,753.554 1059.88,903.751 1060.38,903.667 1060.88,793.18 1061.38,792.984 1061.88,775.719 1062.38,775.623 1062.87,821.502 1063.37,821.37 1063.87,734.505 1064.37,734.437 1064.87,1016.28 1065.37,1016 1065.87,798.445 1066.36,798.234 1066.86,903.28 1067.36,903.153 1067.86,837.921 1068.36,837.741 1068.86,815.102 1069.36,815.012 1069.85,856.3 1070.35,856.24 1070.85,868.532 1071.35,868.356 1071.85,749.589 1072.35,749.427 1072.85,687.453 1073.35,687.311 1073.84,710.493 1074.34,710.385 1074.84,726.854 1075.34,726.769 1075.84,791.19 1076.34,791.111 1076.84,836.398 1077.33,836.109 1077.83,1003.68 1078.33,1003.28 1078.83,917.195 1079.33,916.993 1079.83,738.143 1080.33,737.991 1080.82,753.333 1081.32,753.168 1081.82,897.9 1082.32,897.721 1082.82,714.726 1083.32,714.608 1083.82,872.729 1084.31,872.606 1084.81,1000.29 1085.31,1000.02 1085.81,774.869 1086.31,774.807 1086.81,862.091 1087.31,861.94 1087.8,971.923 1088.3,971.813 1088.8,953.947 1089.3,953.709 1089.8,706.336 1090.3,705.978 1090.8,989.129 1091.29,988.934 1091.79,863.651 1092.29,863.49 1092.79,940.366 1093.29,940.207 1093.79,840.977 1094.29,840.803 1094.79,737.352 1095.28,737.285 1095.78,882.229 1096.28,882.118 1096.78,802.99 1097.28,802.831 1097.78,1007.8 1098.28,1007.61 1098.77,912.261 1099.27,912.048 1099.77,773.118 1100.27,772.901 1100.77,1041.06 1101.27,1040.83 1101.77,677.498 1102.26,677.451 1102.76,897.306 1103.26,897.111 1103.76,927.807 1104.26,927.641 1104.76,932.337 1105.26,932.163 1105.75,882.302 1106.25,882.122 1106.75,835.573 1107.25,835.45 1107.75,648.861 1108.25,648.758 1108.75,905.162 1109.24,904.937 1109.74,774.714 1110.24,774.562 1110.74,814.196 1111.24,814.042 1111.74,838.131 1112.24,837.879 1112.74,843.657 1113.23,843.534 1113.73,703.721 1114.23,703.53 1114.73,628.977 1115.23,628.841 1115.73,780.124 1116.23,780.009 1116.72,1003.59 1117.22,1003.37 1117.72,894.771 1118.22,894.628 1118.72,794.579 1119.22,794.402 1119.72,758.083 1120.21,757.904 1120.71,811.054 1121.21,810.872 1121.71,929.574 1122.21,929.398 1122.71,908.329 1123.21,908.163 1123.7,773.316 1124.2,773.051 1124.7,798.599 1125.2,798.442 1125.7,747.116 1126.2,746.978 1126.7,840.739 1127.19,840.569 1127.69,803.881 1128.19,803.742 1128.69,710.906 1129.19,710.803 1129.69,704.446 1130.19,704.194 1130.68,910.186 1131.18,909.979 1131.68,779.309 1132.18,779.177 1132.68,854.883 1133.18,854.596 1133.68,827.538 1134.18,827.342 1134.67,793.218 1135.17,793.011 1135.67,797.996 1136.17,797.821 1136.67,839.031 1137.17,838.969 1137.67,898.832 1138.16,898.745 1138.66,675.097 1139.16,675.022 1139.66,974.867 1140.16,974.566 1140.66,805.628 1141.16,805.377 1141.65,819.545 1142.15,819.399 1142.65,898.773 1143.15,898.591 1143.65,863.054 1144.15,862.912 1144.65,865.188 1145.14,865.015 1145.64,976.238 1146.14,976.169 1146.64,797.514 1147.14,797.39 1147.64,826.999 1148.14,826.834 1148.63,770.911 1149.13,770.809 1149.63,1053.34 1150.13,1053.13 1150.63,1077.04 1151.13,1076.87 1151.63,988.891 1152.13,988.642 1152.62,963.608 1153.12,963.492 1153.62,953.046 1154.12,952.914 1154.62,948.822 1155.12,948.624 1155.62,729.128 1156.11,729.023 1156.61,882.656 1157.11,882.469 1157.61,836.156 1158.11,835.985 1158.61,704.912 1159.11,704.683 1159.6,886.893 1160.1,886.745 1160.6,724.632 1161.1,724.454 1161.6,891.499 1162.1,891.186 1162.6,784.602 1163.09,784.484 1163.59,886.705 1164.09,886.512 1164.59,923.564 1165.09,923.367 1165.59,904.707 1166.09,904.545 1166.58,848.674 1167.08,848.472 1167.58,797.896 1168.08,797.79 1168.58,838.889 1169.08,838.746 1169.58,949.578 1170.07,949.304 1170.57,775.872 1171.07,775.726 1171.57,685.701 1172.07,685.624 1172.57,918.442 1173.07,918.234 1173.57,721.408 1174.06,721.311 1174.56,1106.96 1175.06,1106.63 1175.56,951.173 1176.06,950.727 1176.56,966.731 1177.06,966.539 1177.55,847.935 1178.05,847.801 1178.55,791.809 1179.05,791.621 1179.55,1013.74 1180.05,1013.49 1180.55,967.331 1181.04,967.062 1181.54,1016.12 1182.04,1015.88 1182.54,793.605 1183.04,793.433 1183.54,710.679 1184.04,710.664 1184.53,877.856 1185.03,877.716 1185.53,805.149 1186.03,805.044 1186.53,870.573 1187.03,870.306 1187.53,866.709 1188.02,866.531 1188.52,854.515 1189.02,854.431 1189.52,1101.61 1190.02,1101.38 1190.52,828.189 1191.02,828.037 1191.51,769.381 1192.01,769.2 1192.51,909.763 1193.01,909.674 1193.51,856.417 1194.01,856.276 1194.51,887.687 1195.01,887.493 1195.5,991.885 1196,991.773 1196.5,833.729 1197,833.562 1197.5,907.377 1198,907.266 1198.5,929.432 1198.99,929.252 1199.49,867.564 1199.99,867.385 1200.49,852.007 1200.99,851.816 1201.49,895.162 1201.99,894.937 1202.48,963.741 1202.98,963.66 1203.48,800.138 1203.98,800.009 1204.48,907.611 1204.98,907.469 1205.48,871.728 1205.97,871.54 1206.47,840.239 1206.97,840.01 1207.47,924.914 1207.97,924.734 1208.47,1010.38 1208.97,1010.18 1209.46,1096.82 1209.96,1096.53 1210.46,959.01 1210.96,958.76 1211.46,1059.48 1211.96,1059.31 1212.46,956.83 1212.96,956.471 1213.45,1023.31 1213.95,1023.02 1214.45,1051.95 1214.95,1051.66 1215.45,904.64 1215.95,904.404 1216.45,935.4 1216.94,935.214 1217.44,1034.65 1217.94,1034.47 1218.44,1077.29 1218.94,1077.09 1219.44,843.447 1219.94,843.324 1220.43,888.763 1220.93,888.612 1221.43,987.181 1221.93,987.059 1222.43,827.033 1222.93,826.807 1223.43,981.528 1223.92,981.43 1224.42,935.396 1224.92,935.226 1225.42,794.837 1225.92,794.66 1226.42,922.194 1226.92,922 1227.41,932.149 1227.91,932.048 1228.41,900.486 1228.91,900.444 1229.41,897.311 1229.91,897.184 1230.41,920.113 1230.9,920.007 1231.4,863.589 1231.9,863.401 1232.4,932.12 1232.9,931.998 1233.4,1114.04 1233.9,1113.79 1234.4,861.175 1234.89,861.016 1235.39,886.35 1235.89,886.265 1236.39,828.036 1236.89,827.82 1237.39,1038.55 1237.89,1038.41 1238.38,976.21 1238.88,976.129 1239.38,860.869 1239.88,860.722 1240.38,1081.65 1240.88,1081.39 1241.38,824.931 1241.87,824.794 1242.37,971.04 1242.87,970.873 1243.37,879.92 1243.87,879.771 1244.37,900.562 1244.87,900.429 1245.36,950.193 1245.86,950.03 1246.36,945.274 1246.86,945.092 1247.36,792.36 1247.86,792.291 1248.36,902.909 1248.85,902.685 1249.35,1068.37 1249.85,1068.15 1250.35,775.232 1250.85,775.1 1251.35,1046.34 1251.85,1046.02 1252.35,1034.49 1252.84,1034.35 1253.34,934.252 1253.84,934.059 1254.34,977.042 1254.84,976.904 1255.34,809.764 1255.84,809.626 1256.33,950.06 1256.83,949.888 1257.33,975.995 1257.83,975.787 1258.33,813.202 1258.83,813.041 1259.33,1034.59 1259.82,1034.38 1260.32,870.16 1260.82,870.03 1261.32,896.128 1261.82,896 1262.32,925.748 1262.82,925.611 1263.31,980.485 1263.81,980.333 1264.31,933.259 1264.81,933.067 1265.31,1013.26 1265.81,1013.09 1266.31,1104.52 1266.8,1104.27 1267.3,930.741 1267.8,930.613 1268.3,1059.02 1268.8,1058.76 1269.3,912.868 1269.8,912.636 1270.29,990.647 1270.79,990.466 1271.29,922.056 1271.79,921.942 1272.29,874.931 1272.79,874.76 1273.29,963.6 1273.79,963.467 1274.28,1010.51 1274.78,1010.16 1275.28,921.236 1275.78,921.021 1276.28,1099.53 1276.78,1099.31 1277.28,1106.93 1277.77,1106.7 1278.27,1017.09 1278.77,1016.91 1279.27,871.335 1279.77,871.201 1280.27,883.099 1280.77,883.017 1281.26,1073.69 1281.76,1073.37 1282.26,1113.16 1282.76,1113.02 1283.26,914.19 1283.76,913.987 1284.26,932.031 1284.75,931.792 1285.25,844.768 1285.75,844.579 1286.25,1069.5 1286.75,1069.21 1287.25,1017.43 1287.75,1017.1 1288.24,895.624 1288.74,895.491 1289.24,850.791 1289.74,850.703 1290.24,913.695 1290.74,913.496 1291.24,1009.84 1291.73,1009.64 1292.23,1105.73 1292.73,1105.5 1293.23,951.96 1293.73,951.82 1294.23,866.53 1294.73,866.41 1295.23,1026.87 1295.72,1026.65 1296.22,1000.01 1296.72,999.914 1297.22,971.045 1297.72,970.975 1298.22,985.625 1298.72,985.471 1299.21,810.98 1299.71,810.862 1300.21,853.692 1300.71,853.524 1301.21,1026.65 1301.71,1026.52 1302.21,895.218 1302.7,895.032 1303.2,902.148 1303.7,902.001 1304.2,1005 1304.7,1004.77 1305.2,965.633 1305.7,965.461 1306.19,823.19 1306.69,822.997 1307.19,961.893 1307.69,961.744 1308.19,904.807 1308.69,904.526 1309.19,1040.53 1309.68,1040.31 1310.18,968.638 1310.68,968.461 1311.18,1034.46 1311.68,1034.32 1312.18,1006.67 1312.68,1006.53 1313.18,1013.93 1313.67,1013.68 1314.17,971.255 1314.67,971.095 1315.17,912.752 1315.67,912.497 1316.17,1039.51 1316.67,1039.36 1317.16,771.08 1317.66,770.98 1318.16,808.683 1318.66,808.613 1319.16,931.747 1319.66,931.48 1320.16,1051.51 1320.65,1051.3 1321.15,893.584 1321.65,893.372 1322.15,937.613 1322.65,937.487 1323.15,1020.9 1323.65,1020.68 1324.14,1034.47 1324.64,1034.35 1325.14,962.953 1325.64,962.808 1326.14,1048.24 1326.64,1048.04 1327.14,966.626 1327.63,966.578 1328.13,813.388 1328.63,813.075 1329.13,1028.3 1329.63,1028.14 1330.13,927.951 1330.63,927.85 1331.12,792.591 1331.62,792.479 1332.12,1090.63 1332.62,1090.38 1333.12,1068.42 1333.62,1068.2 1334.12,879.722 1334.62,879.353 1335.11,912.303 1335.61,912.209 1336.11,1071.46 1336.61,1071.4 1337.11,820.477 1337.61,820.294 1338.11,930.896 1338.6,930.686 1339.1,845.062 1339.6,844.916 1340.1,974.326 1340.6,974.113 1341.1,1145.98 1341.6,1145.77 1342.09,872.87 1342.59,872.738 1343.09,872.421 1343.59,872.213 1344.09,925.8 1344.59,925.659 1345.09,978.423 1345.58,978.304 1346.08,924.041 1346.58,923.717 1347.08,782.612 1347.58,782.429 1348.08,869.633 1348.58,869.389 1349.07,1007.48 1349.57,1007.31 1350.07,998.332 1350.57,998.158 1351.07,950.335 1351.57,950.21 1352.07,875.917 1352.57,875.802 1353.06,971.991 1353.56,971.874 1354.06,1023.78 1354.56,1023.45 1355.06,1039.29 1355.56,1038.98 1356.06,1154.15 1356.55,1153.92 1357.05,980.422 1357.55,980.19 1358.05,1051.33 1358.55,1051.14 1359.05,998.182 1359.55,997.85 1360.04,961.64 1360.54,961.509 1361.04,977.901 1361.54,977.58 1362.04,922.891 1362.54,922.579 1363.04,877.388 1363.53,877.052 1364.03,981.095 1364.53,980.848 1365.03,1086.93 1365.53,1086.61 1366.03,1092.3 1366.53,1092.03 1367.02,931.493 1367.52,931.234 1368.02,914.131 1368.52,913.92 1369.02,963.477 1369.52,963.331 1370.02,929.586 1370.51,929.33 1371.01,952.045 1371.51,951.91 1372.01,935.895 1372.51,935.796 1373.01,1064.13 1373.51,1063.93 1374.01,1018.75 1374.5,1018.63 1375,937.744 1375.5,937.625 1376,1111.56 1376.5,1111.39 1377,1127.72 1377.5,1127.49 1377.99,1021.04 1378.49,1020.92 1378.99,1075.82 1379.49,1075.63 1379.99,889.939 1380.49,889.81 1380.99,1125.7 1381.48,1125.57 1381.98,1076.93 1382.48,1076.74 1382.98,905.093 1383.48,904.947 1383.98,940.082 1384.48,939.882 1384.97,977.021 1385.47,976.79 1385.97,1023.14 1386.47,1023 1386.97,1033.37 1387.47,1033.09 1387.97,819.84 1388.46,819.694 1388.96,1104.49 1389.46,1104.3 1389.96,957.71 1390.46,957.555 1390.96,1143.72 1391.46,1143.47 1391.96,876.52 1392.45,876.377 1392.95,934.773 1393.45,934.643 1393.95,956.648 1394.45,956.388 1394.95,915.423 1395.45,915.222 1395.94,1129.78 1396.44,1129.51 1396.94,1025.09 1397.44,1024.97 1397.94,890.298 1398.44,890.168 1398.94,989.743 1399.43,989.56 1399.93,1047.58 1400.43,1047.26 1400.93,1010.12 1401.43,1009.99 1401.93,1099.8 1402.43,1099.44 1402.92,1096.64 1403.42,1096.45 1403.92,1017.04 1404.42,1016.82 1404.92,1057.78 1405.42,1057.48 1405.92,991.673 1406.41,991.482 1406.91,1037.39 1407.41,1037.24 1407.91,1154.3 1408.41,1153.91 1408.91,980.829 1409.41,980.717 1409.9,1083.22 1410.4,1083.1 1410.9,950.048 1411.4,949.965 1411.9,1097.34 1412.4,1097.14 1412.9,1105.31 1413.4,1105.03 1413.89,1068.61 1414.39,1068.46 1414.89,1199.23 1415.39,1198.93 1415.89,927.276 1416.39,927.068 1416.89,1263.42 1417.38,1263.05 1417.88,1003.94 1418.38,1003.85 1418.88,874.77 1419.38,874.609 1419.88,932.808 1420.38,932.616 1420.87,1133.58 1421.37,1133.48 1421.87,935.523 1422.37,935.444 1422.87,1058.47 1423.37,1058.29 1423.87,1077.65 1424.36,1077.53 1424.86,828.132 1425.36,828 1425.86,957.053 1426.36,956.89 1426.86,1076.84 1427.36,1076.59 1427.85,938.932 1428.35,938.656 1428.85,979.359 1429.35,979.148 1429.85,1070.26 1430.35,1070.07 1430.85,1039.3 1431.34,1039.15 1431.84,1047.92 1432.34,1047.76 1432.84,940.531 1433.34,940.285 1433.84,898.504 1434.34,898.36 1434.84,959.027 1435.33,958.881 1435.83,1161.97 1436.33,1161.81 1436.83,1017.59 1437.33,1017.33 1437.83,1087.88 1438.33,1087.75 1438.82,956.159 1439.32,955.969 1439.82,1084.16 1440.32,1083.99 1440.82,989.989 1441.32,989.788 1441.82,1086.76 1442.31,1086.43 1442.81,870.231 1443.31,870.14 1443.81,1137.61 1444.31,1137.21 1444.81,947.644 1445.31,947.43 1445.8,1101.49 1446.3,1101.28 1446.8,1013.77 1447.3,1013.53 1447.8,978.795 1448.3,978.672 1448.8,917.415 1449.29,917.339 1449.79,884.412 1450.29,884.304 1450.79,1074.4 1451.29,1074.15 1451.79,1012.27 1452.29,1012.08 1452.79,911.278 1453.28,911.024 1453.78,1039.36 1454.28,1039.18 1454.78,990.819 1455.28,990.673 1455.78,946.617 1456.28,946.501 1456.77,1021.28 1457.27,1021.07 1457.77,1270.43 1458.27,1270.24 1458.77,1064.05 1459.27,1063.86 1459.77,1172.53 1460.26,1172.39 1460.76,1042.4 1461.26,1042.02 1461.76,876.825 1462.26,876.691 1462.76,993.779 1463.26,993.576 1463.75,1011.23 1464.25,1010.99 1464.75,937.107 1465.25,936.923 1465.75,1040.61 1466.25,1040.53 1466.75,992.036 1467.24,991.889 1467.74,1064.69 1468.24,1064.51 1468.74,1186.04 1469.24,1185.69 1469.74,976.402 1470.24,976.225 1470.73,1045.74 1471.23,1045.53 1471.73,983.116 1472.23,982.944 1472.73,996.262 1473.23,996.098 1473.73,1146.67 1474.23,1146.58 1474.72,1015.68 1475.22,1015.57 1475.72,863.181 1476.22,863.002 1476.72,1070.51 1477.22,1070.4 1477.72,960.985 1478.21,960.849 1478.71,1237.91 1479.21,1237.65 1479.71,945.769 1480.21,945.69 1480.71,1046.45 1481.21,1046.37 1481.7,945.165 1482.2,945.026 1482.7,973.538 1483.2,973.489 1483.7,1101.3 1484.2,1101.07 1484.7,926.934 1485.19,926.636 1485.69,1013.45 1486.19,1013.32 1486.69,1140.73 1487.19,1140.53 1487.69,1206.52 1488.19,1206.24 1488.68,954.289 1489.18,954.174 1489.68,1118.47 1490.18,1118.24 1490.68,1121.72 1491.18,1121.44 1491.68,1212.25 1492.18,1211.79 1492.67,1088.67 1493.17,1088.48 1493.67,1085.32 1494.17,1085.15 1494.67,890.27 1495.17,890.024 1495.67,980.608 1496.16,980.497 1496.66,1050.07 1497.16,1049.93 1497.66,994.299 1498.16,994.057 1498.66,895.146 1499.16,894.977 1499.65,944.837 1500.15,944.703 1500.65,1077.53 1501.15,1077.39 1501.65,1051.96 1502.15,1051.83 1502.65,1163.92 1503.14,1163.77 1503.64,1096.27 1504.14,1096.13 1504.64,948.376 1505.14,948.201 1505.64,1031.85 1506.14,1031.71 1506.63,1004.61 1507.13,1004.43 1507.63,994.559 1508.13,994.281 1508.63,914.625 1509.13,914.538 1509.63,1015.77 1510.12,1015.58 1510.62,1083.67 1511.12,1083.57 1511.62,1315.72 1512.12,1315.55 1512.62,1096.29 1513.12,1096.08 1513.62,1089.65 1514.11,1089.54 1514.61,1232.32 1515.11,1231.93 1515.61,997.515 1516.11,997.356 1516.61,1079.39 1517.11,1079.21 1517.6,1044.87 1518.1,1044.66 1518.6,1072.23 1519.1,1071.99 1519.6,1152.17 1520.1,1151.94 1520.6,1105.64 1521.09,1105.41 1521.59,899.671 1522.09,899.432 1522.59,1037.63 1523.09,1037.44 1523.59,1092.69 1524.09,1092.52 1524.58,1046.47 1525.08,1046.4 1525.58,1147 1526.08,1146.83 1526.58,1166.19 1527.08,1165.78 1527.58,1170.21 1528.07,1169.92 1528.57,1006.29 1529.07,1006.13 1529.57,1087.83 1530.07,1087.57 1530.57,1072.04 1531.07,1071.86 1531.56,860.941 1532.06,860.86 1532.56,1056.04 1533.06,1055.86 1533.56,814.627 1534.06,814.493 1534.56,967.228 1535.06,967.066 1535.55,1107.25 1536.05,1107.03 1536.55,1072.82 1537.05,1072.64 1537.55,1093.76 1538.05,1093.55 1538.55,971.053 1539.04,970.927 1539.54,1044.59 1540.04,1044.34 1540.54,1015.63 1541.04,1015.41 1541.54,1047.94 1542.04,1047.71 1542.53,872.391 1543.03,872.219 1543.53,989.805 1544.03,989.505 1544.53,1130.6 1545.03,1130.39 1545.53,1105.04 1546.02,1104.75 1546.52,850.909 1547.02,850.659 1547.52,1066.96 1548.02,1066.75 1548.52,1121.02 1549.02,1120.73 1549.51,1138.72 1550.01,1138.48 1550.51,1009.54 1551.01,1009.36 1551.51,1093.3 1552.01,1093.15 1552.51,1084.29 1553.01,1084.12 1553.5,1285.05 1554,1284.77 1554.5,986.306 1555,986.05 1555.5,1156.1 1556,1155.92 1556.5,1209.76 1556.99,1209.51 1557.49,1131.13 1557.99,1130.76 1558.49,932.481 1558.99,932.376 1559.49,1159.08 1559.99,1158.85 1560.48,1091.46 1560.98,1091.22 1561.48,1002.36 1561.98,1002.29 1562.48,1055.88 1562.98,1055.68 1563.48,1117.12 1563.97,1116.89 1564.47,1028.82 1564.97,1028.77 1565.47,1110.06 1565.97,1109.91 1566.47,990.703 1566.97,990.613 1567.46,1016.18 1567.96,1015.95 1568.46,1080.1 1568.96,1079.95 1569.46,1027.46 1569.96,1027.28 1570.46,1038.29 1570.95,1038.12 1571.45,1121.55 1571.95,1121.43 1572.45,1037.93 1572.95,1037.67 1573.45,782.023 1573.95,781.811 1574.45,1154.39 1574.94,1154.33 1575.44,1127.65 1575.94,1127.36 1576.44,1239.36 1576.94,1239.13 1577.44,882.793 1577.94,882.681 1578.43,1079.73 1578.93,1079.47 1579.43,1002.65 1579.93,1002.51 1580.43,1239.69 1580.93,1239.51 1581.43,957.304 1581.92,957.242 1582.42,1035.08 1582.92,1034.95 1583.42,1004.55 1583.92,1004.45 1584.42,1133.98 1584.92,1133.77 1585.41,1020.15 1585.91,1020.04 1586.41,1011.31 1586.91,1011.18 1587.41,1017.14 1587.91,1017.01 1588.41,1008.72 1588.9,1008.57 1589.4,1006.33 1589.9,1006.17 1590.4,1009.56 1590.9,1009.4 1591.4,1036.06 1591.9,1035.79 1592.4,1065.15 1592.89,1064.98 1593.39,1111.14 1593.89,1110.97 1594.39,1050.39 1594.89,1050.16 1595.39,973.847 1595.89,973.484 1596.38,1080.71 1596.88,1080.55 1597.38,1042.14 1597.88,1041.99 1598.38,972.289 1598.88,971.977 1599.38,1078.2 1599.87,1078 1600.37,1098.69 1600.87,1098.55 1601.37,1157.78 1601.87,1157.53 1602.37,917.424 1602.87,917.31 1603.36,1091.72 1603.86,1091.64 1604.36,1037.62 1604.86,1037.33 1605.36,1091.98 1605.86,1091.83 1606.36,1064.55 1606.85,1064.46 1607.35,1112.13 1607.85,1111.9 1608.35,1056.17 1608.85,1056.07 1609.35,1193.99 1609.85,1193.71 1610.34,1071.05 1610.84,1070.85 1611.34,1056.91 1611.84,1056.71 1612.34,1119.03 1612.84,1118.89 1613.34,1114.91 1613.84,1114.67 1614.33,991.223 1614.83,991.017 1615.33,960.097 1615.83,959.902 1616.33,992.543 1616.83,992.269 1617.33,988.254 1617.82,988.056 1618.32,1111.13 1618.82,1110.87 1619.32,1119.39 1619.82,1119.13 1620.32,1017.23 1620.82,1016.98 1621.31,1142.14 1621.81,1142 1622.31,1008.98 1622.81,1008.8 1623.31,1023.27 1623.81,1023.07 1624.31,1143.2 1624.8,1142.94 1625.3,1125.09 1625.8,1124.89 1626.3,1131.83 1626.8,1131.65 1627.3,1182.45 1627.8,1182.18 1628.29,1096.99 1628.79,1096.86 1629.29,965.618 1629.79,965.51 1630.29,1067.64 1630.79,1067.52 1631.29,902.072 1631.79,901.877 1632.28,1105.91 1632.78,1105.69 1633.28,1222.14 1633.78,1222.02 1634.28,1186.21 1634.78,1185.99 1635.28,1015.22 1635.77,1014.97 1636.27,1150.35 1636.77,1150.15 1637.27,1056.94 1637.77,1056.74 1638.27,1179.76 1638.77,1179.54 1639.26,991.774 1639.76,991.546 1640.26,1106.9 1640.76,1106.59 1641.26,1030.13 1641.76,1029.98 1642.26,1081.16 1642.75,1080.89 1643.25,851.301 1643.75,851.198 1644.25,990.279 1644.75,990.113 1645.25,1020.72 1645.75,1020.56 1646.24,1284.29 1646.74,1284.12 1647.24,1151.99 1647.74,1151.77 1648.24,1082.17 1648.74,1082.01 1649.24,852.16 1649.73,852.045 1650.23,940.34 1650.73,940.16 1651.23,1248.48 1651.73,1248.33 1652.23,1124.88 1652.73,1124.76 1653.23,950.865 1653.72,950.681 1654.22,1049.98 1654.72,1049.79 1655.22,1141.15 1655.72,1140.92 1656.22,1043.04 1656.72,1042.93 1657.21,966.196 1657.71,966.057 1658.21,1069.51 1658.71,1069.33 1659.21,1208.65 1659.71,1208.41 1660.21,1153.39 1660.7,1153.02 1661.2,1089.89 1661.7,1089.8 1662.2,1142.91 1662.7,1142.63 1663.2,1018.91 1663.7,1018.67 1664.19,1092.11 1664.69,1091.95 1665.19,1061.27 1665.69,1061.15 1666.19,1110.8 1666.69,1110.58 1667.19,991.241 1667.68,991.038 1668.18,950.291 1668.68,950.207 1669.18,1089.35 1669.68,1089.14 1670.18,1061.69 1670.68,1061.55 1671.17,1326.51 1671.67,1326.2 1672.17,1038.58 1672.67,1038.37 1673.17,969.637 1673.67,969.521 1674.17,1151.41 1674.67,1151.25 1675.16,1114.52 1675.66,1114.36 1676.16,1208.96 1676.66,1208.61 1677.16,1248.62 1677.66,1248.39 1678.16,1052.87 1678.65,1052.65 1679.15,1216.74 1679.65,1216.28 1680.15,1265.37 1680.65,1265.1 1681.15,1049.6 1681.65,1049.51 1682.14,1077.04 1682.64,1076.84 1683.14,1126.09 1683.64,1125.86 1684.14,1056.76 1684.64,1056.59 1685.14,1094.57 1685.63,1094.5 1686.13,1133.45 1686.63,1133.19 1687.13,1167 1687.63,1166.85 1688.13,1217.26 1688.63,1216.85 1689.12,1153.16 1689.62,1152.95 1690.12,1043.94 1690.62,1043.79 1691.12,991.759 1691.62,991.639 1692.12,1081.37 1692.62,1081.12 1693.11,1130.95 1693.61,1130.69 1694.11,1003.52 1694.61,1003.31 1695.11,976.328 1695.61,976.148 1696.11,1109.07 1696.6,1108.83 1697.1,1110.88 1697.6,1110.64 1698.1,1112.93 1698.6,1112.79 1699.1,1023.95 1699.6,1023.68 1700.09,1092.85 1700.59,1092.62 1701.09,1109.38 1701.59,1109.24 1702.09,1077.51 1702.59,1077.36 1703.09,1142.86 1703.58,1142.64 1704.08,1053.95 1704.58,1053.83 1705.08,1158.34 1705.58,1158.22 1706.08,1084.21 1706.58,1084.02 1707.07,933.362 1707.57,933.202 1708.07,1238.49 1708.57,1238.27 1709.07,1054.89 1709.57,1054.75 1710.07,1243.65 1710.56,1243.5 1711.06,1022.3 1711.56,1022.11 1712.06,886.655 1712.56,886.321 1713.06,1116.64 1713.56,1116.49 1714.06,1023.2 1714.55,1022.96 1715.05,1232.08 1715.55,1231.81 1716.05,1107.88 1716.55,1107.66 1717.05,1152.18 1717.55,1151.86 1718.04,1129.71 1718.54,1129.54 1719.04,956.925 1719.54,956.617 1720.04,1046.35 1720.54,1046.14 1721.04,1257.21 1721.53,1257.11 1722.03,1063.15 1722.53,1062.91 1723.03,1274.12 1723.53,1273.81 1724.03,1164.61 1724.53,1164.46 1725.02,1170.81 1725.52,1170.58 1726.02,1126.62 1726.52,1126.4 1727.02,1112.86 1727.52,1112.6 1728.02,1299.22 1728.51,1298.97 1729.01,1063.9 1729.51,1063.72 1730.01,1108.95 1730.51,1108.76 1731.01,1169.19 1731.51,1168.93 1732.01,1044.56 1732.5,1044.24 1733,947.204 1733.5,947.015 1734,992.953 1734.5,992.819 1735,1208.41 1735.5,1208.19 1735.99,1180.31 1736.49,1180.04 1736.99,1200.07 1737.49,1199.73 1737.99,950.008 1738.49,949.85 1738.99,1089.9 1739.48,1089.64 1739.98,1004.45 1740.48,1004.28 1740.98,881.897 1741.48,881.697 1741.98,1041.2 1742.48,1041.02 1742.97,1077.31 1743.47,1077.13 1743.97,1196.15 1744.47,1195.89 1744.97,1035.95 1745.47,1035.74 1745.97,1147.17 1746.46,1146.96 1746.96,1285.16 1747.46,1284.93 1747.96,1075.95 1748.46,1075.79 1748.96,1158.34 1749.46,1158.19 1749.95,1273.45 1750.45,1273.25 1750.95,1176.76 1751.45,1176.54 1751.95,1221.8 1752.45,1221.58 1752.95,1190.25 1753.45,1190.06 1753.94,1306.71 1754.44,1306.26 1754.94,1075.73 1755.44,1075.64 1755.94,1264.28 1756.44,1264.11 1756.94,967.125 1757.43,966.948 1757.93,1195.82 1758.43,1195.66 1758.93,1015.68 1759.43,1015.55 1759.93,1174.71 1760.43,1174.57 1760.92,1001.19 1761.42,1000.88 1761.92,1135.92 1762.42,1135.74 1762.92,1105.73 1763.42,1105.5 1763.92,1120.29 1764.41,1120.14 1764.91,1200.36 1765.41,1200.16 1765.91,1030.18 1766.41,1030.07 1766.91,1102.8 1767.41,1102.63 1767.9,1178.75 1768.4,1178.57 1768.9,1257.96 1769.4,1257.69 1769.9,1132.82 1770.4,1132.56 1770.9,993.869 1771.4,993.771 1771.89,1163.65 1772.39,1163.38 1772.89,943.83 1773.39,943.621 1773.89,1158.7 1774.39,1158.37 1774.89,1243.66 1775.38,1243.42 1775.88,1118.89 1776.38,1118.8 1776.88,1281.03 1777.38,1280.85 1777.88,1304.9 1778.38,1304.58 1778.87,1086.86 1779.37,1086.77 1779.87,1104.18 1780.37,1103.98 1780.87,1022.74 1781.37,1022.65 1781.87,1178.3 1782.36,1178.13 1782.86,1014.82 1783.36,1014.71 1783.86,1020.81 1784.36,1020.71 1784.86,1222.27 1785.36,1222 1785.85,1173.84 1786.35,1173.76 1786.85,1050.69 1787.35,1050.53 1787.85,1071.01 1788.35,1070.91 1788.85,1047.75 1789.34,1047.63 1789.84,1216.2 1790.34,1215.99 1790.84,1217.06 1791.34,1216.92 1791.84,1147.71 1792.34,1147.59 1792.84,1114.28 1793.33,1114.14 1793.83,1053.72 1794.33,1053.53 1794.83,949.102 1795.33,948.97 1795.83,1160.39 1796.33,1160.14 1796.82,1200.59 1797.32,1200.38 1797.82,1165.39 1798.32,1165.24 1798.82,1106.62 1799.32,1106.36 1799.82,1027.94 1800.31,1027.74 1800.81,1026.17 1801.31,1026.12 1801.81,1026.22 1802.31,1026.1 1802.81,1109.14 1803.31,1108.99 1803.8,1108.23 1804.3,1108.09 1804.8,1204.39 1805.3,1204.33 1805.8,1048.55 1806.3,1048.44 1806.8,1161.01 1807.29,1160.65 1807.79,1112.64 1808.29,1112.6 1808.79,1006.06 1809.29,1005.89 1809.79,1100.95 1810.29,1100.77 1810.78,1068.34 1811.28,1068.25 1811.78,1087.79 1812.28,1087.67 1812.78,1032.68 1813.28,1032.28 1813.78,1186.78 1814.28,1186.47 1814.77,1169.1 1815.27,1168.71 1815.77,1267.53 1816.27,1267.14 1816.77,1108.15 1817.27,1107.93 1817.77,998.676 1818.26,998.433 1818.76,1043.68 1819.26,1043.36 1819.76,1190.55 1820.26,1190.47 1820.76,1257.54 1821.26,1257.45 1821.75,1080.87 1822.25,1080.56 1822.75,1086.97 1823.25,1086.77 1823.75,944.101 1824.25,943.892 1824.75,1093.9 1825.24,1093.73 1825.74,1267.32 1826.24,1267.1 1826.74,1112.55 1827.24,1112.22 1827.74,1107.65 1828.24,1107.43 1828.73,1065.34 1829.23,1065.18 1829.73,1119.84 1830.23,1119.53 1830.73,1095.13 1831.23,1094.94 1831.73,1211.09 1832.23,1210.8 1832.72,1257.2 1833.22,1256.84 1833.72,1217.7 1834.22,1217.53 1834.72,1037.7 1835.22,1037.54 1835.72,960.239 1836.21,959.998 1836.71,1106.65 1837.21,1106.49 1837.71,997.833 1838.21,997.679 1838.71,1233.2 1839.21,1233.1 1839.7,1116.48 1840.2,1116.34 1840.7,993.507 1841.2,993.377 1841.7,1349.02 1842.2,1348.88 1842.7,1074.42 1843.19,1074.21 1843.69,1178.25 1844.19,1178.05 1844.69,1165.61 1845.19,1165.22 1845.69,1188.57 1846.19,1188.38 1846.68,1059.62 1847.18,1059.48 1847.68,1156.07 1848.18,1155.96 1848.68,1109.04 1849.18,1108.84 1849.68,1053.29 1850.17,1053.14 1850.67,1162.21 1851.17,1162.1 1851.67,1040.61 1852.17,1040.49 1852.67,1067.54 1853.17,1067.38 1853.67,1194.7 1854.16,1194.44 1854.66,1226.23 1855.16,1226.08 1855.66,1145.17 1856.16,1144.93 1856.66,1158.69 1857.16,1158.56 1857.65,1208.32 1858.15,1207.99 1858.65,1093.18 1859.15,1093.04 1859.65,1072.19 1860.15,1072.02 1860.65,1024.39 1861.14,1024.22 1861.64,1150.3 1862.14,1150.19 1862.64,1029.01 1863.14,1028.87 1863.64,1055.66 1864.14,1055.4 1864.63,1229.11 1865.13,1228.75 1865.63,1068.65 1866.13,1068.46 1866.63,1031.97 1867.13,1031.81 1867.63,1105.23 1868.12,1105.02 1868.62,1395.53 1869.12,1395.21 1869.62,1129.47 1870.12,1129.25 1870.62,1137.72 1871.12,1137.62 1871.62,1016.15 1872.11,1016.03 1872.61,1159.64 1873.11,1159.51 1873.61,1239.09 1874.11,1238.83 1874.61,1183.61 1875.11,1183.45 1875.6,1305.71 1876.1,1305.49 1876.6,1169.45 1877.1,1169.28 1877.6,1249.39 1878.1,1249.16 1878.6,1175.6 1879.09,1175.47 1879.59,983.736 1880.09,983.559 1880.59,1092.74 1881.09,1092.38 1881.59,1118.92 1882.09,1118.79 1882.58,1141.74 1883.08,1141.62 1883.58,1202.26 1884.08,1201.78 1884.58,1081.25 1885.08,1081.03 1885.58,1197.32 1886.07,1197.04 1886.57,1130.64 1887.07,1130.47 1887.57,1266.83 1888.07,1266.54 1888.57,1054.54 1889.07,1054.38 1889.56,1319.84 1890.06,1319.68 1890.56,1080.09 1891.06,1079.84 1891.56,1073.2 1892.06,1073.05 1892.56,1080.85 1893.06,1080.63 1893.55,1273.1 1894.05,1272.84 1894.55,1313.23 1895.05,1313 1895.55,1393.85 1896.05,1393.56 1896.55,1208.4 1897.04,1208.19 1897.54,1103.19 1898.04,1102.98 1898.54,1116.65 1899.04,1116.45 1899.54,1311.32 1900.04,1311.16 1900.53,1188.26 1901.03,1188.09 1901.53,1073.14 1902.03,1073.02 1902.53,1149.05 1903.03,1148.75 1903.53,1047.25 1904.02,1046.94 1904.52,1104.35 1905.02,1104.1 1905.52,1265.52 1906.02,1265.22 1906.52,1170.86 1907.02,1170.65 1907.51,1208.93 1908.01,1208.65 1908.51,960.951 1909.01,960.805 1909.51,1110.06 1910.01,1109.55 1910.51,1073.42 1911,1073.3 1911.5,1104.97 1912,1104.83 1912.5,1118.42 1913,1118.27 1913.5,1098.12 1914,1098 1914.5,1127.57 1914.99,1127.43 1915.49,1200.05 1915.99,1199.97 1916.49,1094.64 1916.99,1094.5 1917.49,1091.85 1917.99,1091.59 1918.48,1235.32 1918.98,1235.13 1919.48,1236.16 1919.98,1235.93 1920.48,1126.59 1920.98,1126.48 1921.48,1058.14 1921.97,1057.94 1922.47,1300.74 1922.97,1300.52 1923.47,1083.89 1923.97,1083.75 1924.47,1113.46 1924.97,1113.32 1925.46,1110.57 1925.96,1110.45 1926.46,1240.64 1926.96,1240.47 1927.46,1276.98 1927.96,1276.6 1928.46,1111.13 1928.95,1110.93 1929.45,1152.96 1929.95,1152.69 1930.45,1251.01 1930.95,1250.84 1931.45,1125.94 1931.95,1125.71 1932.45,1125.45 1932.94,1125.25 1933.44,1160.46 1933.94,1160.31 1934.44,1341.07 1934.94,1340.83 1935.44,1103.87 1935.94,1103.77 1936.43,1020.31 1936.93,1020.18 1937.43,1130.23 1937.93,1130.12 1938.43,1077.67 1938.93,1077.55 1939.43,1203.88 1939.92,1203.74 1940.42,1183.78 1940.92,1183.65 1941.42,1155.49 1941.92,1155.41 1942.42,1029.51 1942.92,1029.32 1943.41,1125.61 1943.91,1125.34 1944.41,1113.79 1944.91,1113.61 1945.41,1214.56 1945.91,1214.22 1946.41,1362.01 1946.9,1361.79 1947.4,1315.66 1947.9,1315.43 1948.4,1408.1 1948.9,1407.92 1949.4,1266.8 1949.9,1266.61 1950.39,1154.19 1950.89,1154.04 1951.39,1241.37 1951.89,1241.19 1952.39,968.254 1952.89,968.134 1953.39,1281.94 1953.89,1281.58 1954.38,1122.27 1954.88,1122.16 1955.38,1258.57 1955.88,1258.29 1956.38,1068.66 1956.88,1068.51 1957.38,1006.62 1957.87,1006.52 1958.37,1263.97 1958.87,1263.67 1959.37,1216.02 1959.87,1215.79 1960.37,1294.55 1960.87,1294.16 1961.36,1149.22 1961.86,1149.04 1962.36,1137.25 1962.86,1136.96 1963.36,989.402 1963.86,989.28 1964.36,1191.58 1964.85,1191.26 1965.35,1348.69 1965.85,1348.4 1966.35,1297.96 1966.85,1297.75 1967.35,1117.02 1967.85,1116.79 1968.34,1230.19 1968.84,1230.07 1969.34,1155.94 1969.84,1155.69 1970.34,1286.92 1970.84,1286.81 1971.34,1184.6 1971.84,1184.23 1972.33,1243.33 1972.83,1243.14 1973.33,1183.4 1973.83,1183.13 1974.33,1240.9 1974.83,1240.78 1975.33,1068.3 1975.82,1068.09 1976.32,1085.19 1976.82,1084.9 1977.32,1225.86 1977.82,1225.71 1978.32,1077.76 1978.82,1077.57 1979.31,1259.55 1979.81,1259.25 1980.31,1112.21 1980.81,1112.12 1981.31,1156.48 1981.81,1156.28 1982.31,1127.41 1982.8,1127.13 1983.3,1346.17 1983.8,1345.94 1984.3,1194.56 1984.8,1194.37 1985.3,1300.93 1985.8,1300.75 1986.29,1107.23 1986.79,1106.97 1987.29,1297.54 1987.79,1297.31 1988.29,1162.39 1988.79,1162.27 1989.29,1292.92 1989.78,1292.72 1990.28,1112.46 1990.78,1112.24 1991.28,1178.59 1991.78,1178.28 1992.28,1179.21 1992.78,1179.03 1993.28,1153 1993.77,1152.8 1994.27,1319.9 1994.77,1319.66 1995.27,1009.12 1995.77,1008.78 1996.27,1124.73 1996.77,1124.52 1997.26,1162.98 1997.76,1162.74 1998.26,1189.1 1998.76,1188.97 1999.26,1263.29 1999.76,1263.02 2000.26,1156.71 2000.75,1156.43 2001.25,1430.95 2001.75,1430.69 2002.25,1318.06 2002.75,1317.75 2003.25,1195.79 2003.75,1195.6 2004.24,1187.58 2004.74,1187.35 2005.24,1123.07 2005.74,1122.67 2006.24,1130.77 2006.74,1130.69 2007.24,1060.35 2007.73,1060.22 2008.23,1145.24 2008.73,1145.16 2009.23,940.319 2009.73,940.218 2010.23,1180.71 2010.73,1180.52 2011.23,1162.65 2011.72,1162.45 2012.22,1114.92 2012.72,1114.8 2013.22,995.645 2013.72,995.418 2014.22,1033.33 2014.72,1033.07 2015.21,1214.8 2015.71,1214.58 2016.21,1130.1 2016.71,1129.94 2017.21,1195.3 2017.71,1194.99 2018.21,1264.2 2018.7,1264.02 2019.2,1265.41 2019.7,1265.17 2020.2,1227.42 2020.7,1227.15 2021.2,1231.91 2021.7,1231.56 2022.19,1183.98 2022.69,1183.75 2023.19,1117.17 2023.69,1117.06 2024.19,1308.96 2024.69,1308.77 2025.19,1304.38 2025.68,1304.17 2026.18,1197.8 2026.68,1197.61 2027.18,1297.36 2027.68,1297.2 2028.18,1358.63 2028.68,1358.48 2029.17,1019.14 2029.67,1018.94 2030.17,1310.2 2030.67,1310.03 2031.17,1320.83 2031.67,1320.67 2032.17,1312.13 2032.67,1311.99 2033.16,1170.24 2033.66,1170.14 2034.16,1291.3 2034.66,1291.05 2035.16,1146.08 2035.66,1145.8 2036.16,1340.79 2036.65,1340.55 2037.15,1289.96 2037.65,1289.65 2038.15,1220.06 2038.65,1219.82 2039.15,1055.4 2039.65,1055.29 2040.14,1251.08 2040.64,1250.89 2041.14,1275.81 2041.64,1275.62 2042.14,1059.32 2042.64,1059.22 2043.14,1173.43 2043.63,1172.94 2044.13,1216.63 2044.63,1216.5 2045.13,1128.48 2045.63,1127.99 2046.13,1132.5 2046.63,1132.44 2047.12,1090.61 2047.62,1090.54 2048.12,1130.99 2048.62,1130.58 2049.12,1199.34 2049.62,1199.1 2050.12,1166.7 2050.61,1166.43 2051.11,1277 2051.61,1276.61 2052.11,1175.47 2052.61,1175.32 2053.11,1225.22 2053.61,1224.85 2054.11,1057.99 2054.6,1057.85 2055.1,882.753 2055.6,882.537 2056.1,1169.94 2056.6,1169.74 2057.1,1048.57 2057.6,1048.39 2058.09,1047.54 2058.59,1047.39 2059.09,1058.12 2059.59,1057.91 2060.09,1245.81 2060.59,1245.52 2061.09,1176.99 2061.58,1176.72 2062.08,1150.71 2062.58,1150.58 2063.08,1098.69 2063.58,1098.48 2064.08,1086.21 2064.58,1086.08 2065.07,1246.02 2065.57,1245.81 2066.07,1294.96 2066.57,1294.78 2067.07,1236.08 2067.57,1235.77 2068.07,1103.56 2068.56,1103.4 2069.06,1095.63 2069.56,1095.45 2070.06,1143.42 2070.56,1143.19 2071.06,1173.02 2071.56,1172.9 2072.06,1049.41 2072.55,1049.28 2073.05,1004.57 2073.55,1004.44 2074.05,1124.38 2074.55,1124.22 2075.05,1122.65 2075.55,1122.47 2076.04,1119.6 2076.54,1119.5 2077.04,1041.46 2077.54,1041.14 2078.04,1033.8 2078.54,1033.58 2079.04,1076.39 2079.53,1076.26 2080.03,1115.13 2080.53,1115.04 2081.03,1218.85 2081.53,1218.59 2082.03,1231.36 2082.53,1231.09 2083.02,1210.06 2083.52,1209.83 2084.02,1282.99 2084.52,1282.89 2085.02,1248.97 2085.52,1248.87 2086.02,1221.17 2086.51,1220.89 2087.01,895.246 2087.51,895.166 2088.01,1003.56 2088.51,1003.45 2089.01,1218.19 2089.51,1217.96 2090,1185.74 2090.5,1185.48 2091,1211.77 2091.5,1211.53 2092,1235.99 2092.5,1235.78 2093,1131.72 2093.5,1131.58 2093.99,1141.35 2094.49,1141.22 2094.99,1141.37 2095.49,1141.16 2095.99,1095.99 2096.49,1095.84 2096.99,1190.76 2097.48,1190.56 2097.98,1005.36 2098.48,1005.16 2098.98,1321.15 2099.48,1321 2099.98,1006.66 2100.48,1006.61 2100.97,1153.14 2101.47,1152.84 2101.97,1202.53 2102.47,1202.3 2102.97,1214.04 2103.47,1213.8 2103.97,1115.18 2104.46,1114.98 2104.96,1077.42 2105.46,1077.36 2105.96,1238.18 2106.46,1237.92 2106.96,1059.02 2107.46,1058.95 2107.95,1277.58 2108.45,1277.32 2108.95,1118.57 2109.45,1118.3 2109.95,1090.71 2110.45,1090.54 2110.95,1128.16 2111.45,1127.97 2111.94,1308.58 2112.44,1308.31 2112.94,1122.28 2113.44,1121.96 2113.94,1209.75 2114.44,1209.63 2114.94,1131.73 2115.43,1131.57 2115.93,984.494 2116.43,984.445 2116.93,1130.77 2117.43,1130.37 2117.93,1195.51 2118.43,1195.31 2118.92,1211.48 2119.42,1211.29 2119.92,1143.76 2120.42,1143.48 2120.92,1059.7 2121.42,1059.42 2121.92,1044.12 2122.41,1043.93 2122.91,990.934 2123.41,990.764 2123.91,1017.07 2124.41,1016.94 2124.91,1017.96 2125.41,1017.84 2125.9,1075.05 2126.4,1074.95 2126.9,1202.02 2127.4,1201.54 2127.9,1105.72 2128.4,1105.5 2128.9,1097.68 2129.39,1097.5 2129.89,1154.08 2130.39,1153.81 2130.89,1114.75 2131.39,1114.57 2131.89,1095.26 2132.39,1095.2 2132.89,1273.64 2133.38,1273.44 2133.88,1123.26 2134.38,1123.12 2134.88,1445.72 2135.38,1445.41 2135.88,1100.38 2136.38,1100.17 2136.87,1116.22 2137.37,1115.96 2137.87,1184.89 2138.37,1184.67 2138.87,1286.14 2139.37,1285.88 2139.87,1244.16 2140.36,1243.93 2140.86,1204.23 2141.36,1204.19 2141.86,1170.01 2142.36,1169.8 2142.86,1134.26 2143.36,1134.07 2143.85,1187.88 2144.35,1187.67 2144.85,1239.94 2145.35,1239.79 2145.85,1021.46 2146.35,1021.33 2146.85,1156.16 2147.34,1156 2147.84,1348.93 2148.34,1348.67 2148.84,1244.35 2149.34,1244.14 2149.84,1326.06 2150.34,1325.88 2150.83,1093.78 2151.33,1093.66 2151.83,1247.95 2152.33,1247.67 2152.83,1275.18 2153.33,1274.99 2153.83,1159.21 2154.33,1159 2154.82,1042.68 2155.32,1042.57 2155.82,1133.97 2156.32,1133.9 2156.82,1193.1 2157.32,1192.9 2157.82,1336.14 2158.31,1335.98 2158.81,1178.95 2159.31,1178.8 2159.81,1085.14 2160.31,1085.03 2160.81,1250.73 2161.31,1250.48 2161.8,1085.75 2162.3,1085.6 2162.8,1296.16 2163.3,1296 2163.8,1126.54 2164.3,1126.28 2164.8,1086.65 2165.29,1086.58 2165.79,1046.59 2166.29,1046.33 2166.79,1140.76 2167.29,1140.59 2167.79,970.096 2168.29,969.823 2168.78,1226.02 2169.28,1225.71 2169.78,1058.37 2170.28,1058.12 2170.78,1109.18 2171.28,1108.97 2171.78,1211.43 2172.28,1211.32 2172.77,1179.31 2173.27,1179.14 2173.77,1362.52 2174.27,1362.23 2174.77,1201.84 2175.27,1201.54 2175.77,1164.72 2176.26,1164.51 2176.76,1149.42 2177.26,1149.2 2177.76,1087.39 2178.26,1087.2 2178.76,1222.91 2179.26,1222.69 2179.75,1216.13 2180.25,1215.92 2180.75,1166.21 2181.25,1165.99 2181.75,1262.69 2182.25,1262.51 2182.75,1198.59 2183.24,1198.42 2183.74,1125.95 2184.24,1125.88 2184.74,1178.74 2185.24,1178.6 2185.74,918.607 2186.24,918.472 2186.73,1396.04 2187.23,1395.78 2187.73,1094.7 2188.23,1094.49 2188.73,1116.85 2189.23,1116.66 2189.73,1347.7 2190.22,1347.55 2190.72,1104.01 2191.22,1103.82 2191.72,1153.68 2192.22,1153.49 2192.72,1179.06 2193.22,1178.93 2193.72,1293.96 2194.21,1293.69 2194.71,1013.71 2195.21,1013.65 2195.71,1237.11 2196.21,1236.99 2196.71,1284.08 2197.21,1283.9 2197.7,1184.48 2198.2,1184.29 2198.7,1256.56 2199.2,1256.29 2199.7,1168.22 2200.2,1168.01 2200.7,1162.08 2201.19,1161.94 2201.69,1073.38 2202.19,1073.16 2202.69,1396.33 2203.19,1396.05 2203.69,1013.96 2204.19,1013.83 2204.68,1225.12 2205.18,1224.92 2205.68,1137.79 2206.18,1137.52 2206.68,1031.29 2207.18,1031.13 2207.68,1241.8 2208.17,1241.62 2208.67,1187.78 2209.17,1187.43 2209.67,1265.4 2210.17,1265.29 2210.67,1202.91 2211.17,1202.78 2211.67,1079.19 2212.16,1078.99 2212.66,1215.24 2213.16,1215 2213.66,1200.65 2214.16,1200.4 2214.66,1375.63 2215.16,1375.33 2215.65,1044.23 2216.15,1044.03 2216.65,1164.22 2217.15,1164.12 2217.65,1331.93 2218.15,1331.7 2218.65,1148.36 2219.14,1148.21 2219.64,1083.9 2220.14,1083.75 2220.64,1249 2221.14,1248.78 2221.64,1325.41 2222.14,1325.1 2222.63,1131.29 2223.13,1131.06 2223.63,1215.65 2224.13,1215.27 2224.63,1325.32 2225.13,1325.04 2225.63,1265.73 2226.12,1265.39 2226.62,1271.82 2227.12,1271.65 2227.62,1163.25 2228.12,1163.05 2228.62,1310.62 2229.12,1310.43 2229.61,1010.63 2230.11,1010.44 2230.61,1098.82 2231.11,1098.61 2231.61,1138.45 2232.11,1138.34 2232.61,1110.63 2233.11,1110.46 2233.6,1139.13 2234.1,1138.82 2234.6,1073.74 2235.1,1073.57 2235.6,1131.48 2236.1,1131.31 2236.6,1269.64 2237.09,1269.38 2237.59,1220.89 2238.09,1220.72 2238.59,1075.2 2239.09,1074.94 2239.59,1232.32 2240.09,1232.17 2240.58,1157.13 2241.08,1156.97 2241.58,1189.47 2242.08,1189.19 2242.58,1100.88 2243.08,1100.57 2243.58,1134.72 2244.07,1134.61 2244.57,1133.86 2245.07,1133.66 2245.57,1214.61 2246.07,1214.39 2246.57,1149.4 2247.07,1149.22 2247.56,1269.4 2248.06,1269.25 2248.56,1282.37 2249.06,1282.04 2249.56,1238.08 2250.06,1237.79 2250.56,1307.26 2251.06,1307.13 2251.55,1249.41 2252.05,1249.29 2252.55,1173.06 2253.05,1172.98 2253.55,1159.62 2254.05,1159.49 2254.55,1018.58 2255.04,1018.48 2255.54,1214.12 2256.04,1213.88 2256.54,1174.45 2257.04,1174.21 2257.54,1270.54 2258.04,1270.38 2258.53,1187.12 2259.03,1187.03 2259.53,1171.91 2260.03,1171.89 2260.53,1230.36 2261.03,1230.13 2261.53,1293.66 2262.02,1293.38 2262.52,1137.07 2263.02,1136.98 2263.52,1244.08 2264.02,1243.97 2264.52,1111.13 2265.02,1110.93 2265.51,1248.88 2266.01,1248.71 2266.51,1249.72 2267.01,1249.54 2267.51,1255.69 2268.01,1255.48 2268.51,1173.85 2269,1173.54 2269.5,1182.19 2270,1181.84 2270.5,1093.58 2271,1093.4 2271.5,1289.96 2272,1289.77 2272.5,1139.43 2272.99,1139.27 2273.49,1335.15 2273.99,1334.79 2274.49,1221.28 2274.99,1221.21 2275.49,1206.5 2275.99,1206.31 2276.48,1388.37 2276.98,1388.03 2277.48,1299.93 2277.98,1299.89 2278.48,1245.4 2278.98,1245.21 2279.48,1069.44 2279.97,1069.2 2280.47,1247.91 2280.97,1247.72 2281.47,1142.31 2281.97,1142 2282.47,1274.33 2282.97,1274.03 2283.46,1233.42 2283.96,1233.24 2284.46,1191.03 2284.96,1190.82 2285.46,1130.01 2285.96,1129.88 2286.46,1088.29 2286.95,1088.05 2287.45,1286.76 2287.95,1286.57 2288.45,1179.86 2288.95,1179.71 2289.45,1200.94 2289.95,1200.73 2290.44,987.17 2290.94,986.961 2291.44,1036.76 2291.94,1036.61 2292.44,993.614 2292.94,993.494 "/>
<path clip-path="url(#clip930)" d="M2018.52 198.898 L2282.3 198.898 L2282.3 95.2176 L2018.52 95.2176  Z" fill="#ffffff" fill-rule="evenodd" fill-opacity="1"/>
<polyline clip-path="url(#clip930)" style="stroke:#000000; stroke-linecap:round; stroke-linejoin:round; stroke-width:4; stroke-opacity:1; fill:none" points="2018.52,198.898 2282.3,198.898 2282.3,95.2176 2018.52,95.2176 2018.52,198.898 "/>
<polyline clip-path="url(#clip930)" style="stroke:#009af9; stroke-linecap:round; stroke-linejoin:round; stroke-width:4; stroke-opacity:1; fill:none" points="2042,147.058 2182.91,147.058 "/>
<path clip-path="url(#clip930)" d="M2220.23 166.745 Q2218.43 171.375 2216.71 172.787 Q2215 174.199 2212.13 174.199 L2208.73 174.199 L2208.73 170.634 L2211.23 170.634 Q2212.99 170.634 2213.96 169.8 Q2214.93 168.967 2216.11 165.865 L2216.88 163.921 L2206.39 138.412 L2210.9 138.412 L2219.01 158.689 L2227.11 138.412 L2231.62 138.412 L2220.23 166.745 Z" fill="#000000" fill-rule="nonzero" fill-opacity="1" /><path clip-path="url(#clip930)" d="M2238.91 160.402 L2246.55 160.402 L2246.55 134.037 L2238.24 135.703 L2238.24 131.444 L2246.5 129.778 L2251.18 129.778 L2251.18 160.402 L2258.82 160.402 L2258.82 164.338 L2238.91 164.338 L2238.91 160.402 Z" fill="#000000" fill-rule="nonzero" fill-opacity="1" /></svg>
