<?xml version="1.0" encoding="utf-8"?>
<svg xmlns="http://www.w3.org/2000/svg" xmlns:xlink="http://www.w3.org/1999/xlink" width="600" height="400" viewBox="0 0 2400 1600">
<defs>
  <clipPath id="clip870">
    <rect x="0" y="0" width="2400" height="1600"/>
  </clipPath>
</defs>
<path clip-path="url(#clip870)" d="M0 1600 L2400 1600 L2400 0 L0 0  Z" fill="#ffffff" fill-rule="evenodd" fill-opacity="1"/>
<defs>
  <clipPath id="clip871">
    <rect x="480" y="0" width="1681" height="1600"/>
  </clipPath>
</defs>
<path clip-path="url(#clip870)" d="M141.853 1486.45 L2352.76 1486.45 L2352.76 47.2441 L141.853 47.2441  Z" fill="#ffffff" fill-rule="evenodd" fill-opacity="1"/>
<defs>
  <clipPath id="clip872">
    <rect x="141" y="47" width="2212" height="1440"/>
  </clipPath>
</defs>
<polyline clip-path="url(#clip872)" style="stroke:#000000; stroke-linecap:round; stroke-linejoin:round; stroke-width:2; stroke-opacity:0.1; fill:none" points="204.426,1486.45 204.426,47.2441 "/>
<polyline clip-path="url(#clip872)" style="stroke:#000000; stroke-linecap:round; stroke-linejoin:round; stroke-width:2; stroke-opacity:0.1; fill:none" points="725.865,1486.45 725.865,47.2441 "/>
<polyline clip-path="url(#clip872)" style="stroke:#000000; stroke-linecap:round; stroke-linejoin:round; stroke-width:2; stroke-opacity:0.1; fill:none" points="1247.3,1486.45 1247.3,47.2441 "/>
<polyline clip-path="url(#clip872)" style="stroke:#000000; stroke-linecap:round; stroke-linejoin:round; stroke-width:2; stroke-opacity:0.1; fill:none" points="1768.74,1486.45 1768.74,47.2441 "/>
<polyline clip-path="url(#clip872)" style="stroke:#000000; stroke-linecap:round; stroke-linejoin:round; stroke-width:2; stroke-opacity:0.1; fill:none" points="2290.18,1486.45 2290.18,47.2441 "/>
<polyline clip-path="url(#clip870)" style="stroke:#000000; stroke-linecap:round; stroke-linejoin:round; stroke-width:4; stroke-opacity:1; fill:none" points="141.853,1486.45 2352.76,1486.45 "/>
<polyline clip-path="url(#clip870)" style="stroke:#000000; stroke-linecap:round; stroke-linejoin:round; stroke-width:4; stroke-opacity:1; fill:none" points="204.426,1486.45 204.426,1467.55 "/>
<polyline clip-path="url(#clip870)" style="stroke:#000000; stroke-linecap:round; stroke-linejoin:round; stroke-width:4; stroke-opacity:1; fill:none" points="725.865,1486.45 725.865,1467.55 "/>
<polyline clip-path="url(#clip870)" style="stroke:#000000; stroke-linecap:round; stroke-linejoin:round; stroke-width:4; stroke-opacity:1; fill:none" points="1247.3,1486.45 1247.3,1467.55 "/>
<polyline clip-path="url(#clip870)" style="stroke:#000000; stroke-linecap:round; stroke-linejoin:round; stroke-width:4; stroke-opacity:1; fill:none" points="1768.74,1486.45 1768.74,1467.55 "/>
<polyline clip-path="url(#clip870)" style="stroke:#000000; stroke-linecap:round; stroke-linejoin:round; stroke-width:4; stroke-opacity:1; fill:none" points="2290.18,1486.45 2290.18,1467.55 "/>
<path clip-path="url(#clip870)" d="M204.426 1517.37 Q200.815 1517.37 198.986 1520.93 Q197.18 1524.47 197.18 1531.6 Q197.18 1538.71 198.986 1542.27 Q200.815 1545.82 204.426 1545.82 Q208.06 1545.82 209.865 1542.27 Q211.694 1538.71 211.694 1531.6 Q211.694 1524.47 209.865 1520.93 Q208.06 1517.37 204.426 1517.37 M204.426 1513.66 Q210.236 1513.66 213.291 1518.27 Q216.37 1522.85 216.37 1531.6 Q216.37 1540.33 213.291 1544.94 Q210.236 1549.52 204.426 1549.52 Q198.616 1549.52 195.537 1544.94 Q192.481 1540.33 192.481 1531.6 Q192.481 1522.85 195.537 1518.27 Q198.616 1513.66 204.426 1513.66 Z" fill="#000000" fill-rule="nonzero" fill-opacity="1" /><path clip-path="url(#clip870)" d="M670.391 1544.91 L678.03 1544.91 L678.03 1518.55 L669.72 1520.21 L669.72 1515.95 L677.983 1514.29 L682.659 1514.29 L682.659 1544.91 L690.298 1544.91 L690.298 1548.85 L670.391 1548.85 L670.391 1544.91 Z" fill="#000000" fill-rule="nonzero" fill-opacity="1" /><path clip-path="url(#clip870)" d="M709.742 1517.37 Q706.131 1517.37 704.303 1520.93 Q702.497 1524.47 702.497 1531.6 Q702.497 1538.71 704.303 1542.27 Q706.131 1545.82 709.742 1545.82 Q713.377 1545.82 715.182 1542.27 Q717.011 1538.71 717.011 1531.6 Q717.011 1524.47 715.182 1520.93 Q713.377 1517.37 709.742 1517.37 M709.742 1513.66 Q715.553 1513.66 718.608 1518.27 Q721.687 1522.85 721.687 1531.6 Q721.687 1540.33 718.608 1544.94 Q715.553 1549.52 709.742 1549.52 Q703.932 1549.52 700.854 1544.94 Q697.798 1540.33 697.798 1531.6 Q697.798 1522.85 700.854 1518.27 Q703.932 1513.66 709.742 1513.66 Z" fill="#000000" fill-rule="nonzero" fill-opacity="1" /><path clip-path="url(#clip870)" d="M739.904 1517.37 Q736.293 1517.37 734.465 1520.93 Q732.659 1524.47 732.659 1531.6 Q732.659 1538.71 734.465 1542.27 Q736.293 1545.82 739.904 1545.82 Q743.539 1545.82 745.344 1542.27 Q747.173 1538.71 747.173 1531.6 Q747.173 1524.47 745.344 1520.93 Q743.539 1517.37 739.904 1517.37 M739.904 1513.66 Q745.714 1513.66 748.77 1518.27 Q751.849 1522.85 751.849 1531.6 Q751.849 1540.33 748.77 1544.94 Q745.714 1549.52 739.904 1549.52 Q734.094 1549.52 731.015 1544.94 Q727.96 1540.33 727.96 1531.6 Q727.96 1522.85 731.015 1518.27 Q734.094 1513.66 739.904 1513.66 Z" fill="#000000" fill-rule="nonzero" fill-opacity="1" /><path clip-path="url(#clip870)" d="M770.066 1517.37 Q766.455 1517.37 764.626 1520.93 Q762.821 1524.47 762.821 1531.6 Q762.821 1538.71 764.626 1542.27 Q766.455 1545.82 770.066 1545.82 Q773.7 1545.82 775.506 1542.27 Q777.335 1538.71 777.335 1531.6 Q777.335 1524.47 775.506 1520.93 Q773.7 1517.37 770.066 1517.37 M770.066 1513.66 Q775.876 1513.66 778.932 1518.27 Q782.011 1522.85 782.011 1531.6 Q782.011 1540.33 778.932 1544.94 Q775.876 1549.52 770.066 1549.52 Q764.256 1549.52 761.177 1544.94 Q758.122 1540.33 758.122 1531.6 Q758.122 1522.85 761.177 1518.27 Q764.256 1513.66 770.066 1513.66 Z" fill="#000000" fill-rule="nonzero" fill-opacity="1" /><path clip-path="url(#clip870)" d="M1195.92 1544.91 L1212.24 1544.91 L1212.24 1548.85 L1190.29 1548.85 L1190.29 1544.91 Q1192.95 1542.16 1197.54 1537.53 Q1202.14 1532.88 1203.32 1531.53 Q1205.57 1529.01 1206.45 1527.27 Q1207.35 1525.51 1207.35 1523.82 Q1207.35 1521.07 1205.41 1519.33 Q1203.49 1517.6 1200.38 1517.6 Q1198.18 1517.6 1195.73 1518.36 Q1193.3 1519.13 1190.52 1520.68 L1190.52 1515.95 Q1193.35 1514.82 1195.8 1514.24 Q1198.25 1513.66 1200.29 1513.66 Q1205.66 1513.66 1208.86 1516.35 Q1212.05 1519.03 1212.05 1523.52 Q1212.05 1525.65 1211.24 1527.57 Q1210.45 1529.47 1208.35 1532.07 Q1207.77 1532.74 1204.67 1535.95 Q1201.56 1539.15 1195.92 1544.91 Z" fill="#000000" fill-rule="nonzero" fill-opacity="1" /><path clip-path="url(#clip870)" d="M1232.05 1517.37 Q1228.44 1517.37 1226.61 1520.93 Q1224.8 1524.47 1224.8 1531.6 Q1224.8 1538.71 1226.61 1542.27 Q1228.44 1545.82 1232.05 1545.82 Q1235.68 1545.82 1237.49 1542.27 Q1239.32 1538.71 1239.32 1531.6 Q1239.32 1524.47 1237.49 1520.93 Q1235.68 1517.37 1232.05 1517.37 M1232.05 1513.66 Q1237.86 1513.66 1240.92 1518.27 Q1243.99 1522.85 1243.99 1531.6 Q1243.99 1540.33 1240.92 1544.94 Q1237.86 1549.52 1232.05 1549.52 Q1226.24 1549.52 1223.16 1544.94 Q1220.11 1540.33 1220.11 1531.6 Q1220.11 1522.85 1223.16 1518.27 Q1226.24 1513.66 1232.05 1513.66 Z" fill="#000000" fill-rule="nonzero" fill-opacity="1" /><path clip-path="url(#clip870)" d="M1262.21 1517.37 Q1258.6 1517.37 1256.77 1520.93 Q1254.97 1524.47 1254.97 1531.6 Q1254.97 1538.71 1256.77 1542.27 Q1258.6 1545.82 1262.21 1545.82 Q1265.85 1545.82 1267.65 1542.27 Q1269.48 1538.71 1269.48 1531.6 Q1269.48 1524.47 1267.65 1520.93 Q1265.85 1517.37 1262.21 1517.37 M1262.21 1513.66 Q1268.02 1513.66 1271.08 1518.27 Q1274.16 1522.85 1274.16 1531.6 Q1274.16 1540.33 1271.08 1544.94 Q1268.02 1549.52 1262.21 1549.52 Q1256.4 1549.52 1253.32 1544.94 Q1250.27 1540.33 1250.27 1531.6 Q1250.27 1522.85 1253.32 1518.27 Q1256.4 1513.66 1262.21 1513.66 Z" fill="#000000" fill-rule="nonzero" fill-opacity="1" /><path clip-path="url(#clip870)" d="M1292.37 1517.37 Q1288.76 1517.37 1286.93 1520.93 Q1285.13 1524.47 1285.13 1531.6 Q1285.13 1538.71 1286.93 1542.27 Q1288.76 1545.82 1292.37 1545.82 Q1296.01 1545.82 1297.81 1542.27 Q1299.64 1538.71 1299.64 1531.6 Q1299.64 1524.47 1297.81 1520.93 Q1296.01 1517.37 1292.37 1517.37 M1292.37 1513.66 Q1298.18 1513.66 1301.24 1518.27 Q1304.32 1522.85 1304.32 1531.6 Q1304.32 1540.33 1301.24 1544.94 Q1298.18 1549.52 1292.37 1549.52 Q1286.56 1549.52 1283.48 1544.94 Q1280.43 1540.33 1280.43 1531.6 Q1280.43 1522.85 1283.48 1518.27 Q1286.56 1513.66 1292.37 1513.66 Z" fill="#000000" fill-rule="nonzero" fill-opacity="1" /><path clip-path="url(#clip870)" d="M1727.42 1530.21 Q1730.78 1530.93 1732.66 1533.2 Q1734.55 1535.47 1734.55 1538.8 Q1734.55 1543.92 1731.04 1546.72 Q1727.52 1549.52 1721.04 1549.52 Q1718.86 1549.52 1716.55 1549.08 Q1714.25 1548.66 1711.8 1547.81 L1711.8 1543.29 Q1713.74 1544.43 1716.06 1545.01 Q1718.37 1545.58 1720.9 1545.58 Q1725.29 1545.58 1727.59 1543.85 Q1729.9 1542.11 1729.9 1538.8 Q1729.9 1535.75 1727.75 1534.03 Q1725.62 1532.3 1721.8 1532.3 L1717.77 1532.3 L1717.77 1528.45 L1721.98 1528.45 Q1725.43 1528.45 1727.26 1527.09 Q1729.09 1525.7 1729.09 1523.11 Q1729.09 1520.45 1727.19 1519.03 Q1725.32 1517.6 1721.8 1517.6 Q1719.88 1517.6 1717.68 1518.01 Q1715.48 1518.43 1712.84 1519.31 L1712.84 1515.14 Q1715.5 1514.4 1717.82 1514.03 Q1720.16 1513.66 1722.22 1513.66 Q1727.54 1513.66 1730.64 1516.09 Q1733.74 1518.5 1733.74 1522.62 Q1733.74 1525.49 1732.1 1527.48 Q1730.46 1529.45 1727.42 1530.21 Z" fill="#000000" fill-rule="nonzero" fill-opacity="1" /><path clip-path="url(#clip870)" d="M1753.42 1517.37 Q1749.81 1517.37 1747.98 1520.93 Q1746.17 1524.47 1746.17 1531.6 Q1746.17 1538.71 1747.98 1542.27 Q1749.81 1545.82 1753.42 1545.82 Q1757.05 1545.82 1758.86 1542.27 Q1760.69 1538.71 1760.69 1531.6 Q1760.69 1524.47 1758.86 1520.93 Q1757.05 1517.37 1753.42 1517.37 M1753.42 1513.66 Q1759.23 1513.66 1762.29 1518.27 Q1765.36 1522.85 1765.36 1531.6 Q1765.36 1540.33 1762.29 1544.94 Q1759.23 1549.52 1753.42 1549.52 Q1747.61 1549.52 1744.53 1544.94 Q1741.48 1540.33 1741.48 1531.6 Q1741.48 1522.85 1744.53 1518.27 Q1747.61 1513.66 1753.42 1513.66 Z" fill="#000000" fill-rule="nonzero" fill-opacity="1" /><path clip-path="url(#clip870)" d="M1783.58 1517.37 Q1779.97 1517.37 1778.14 1520.93 Q1776.34 1524.47 1776.34 1531.6 Q1776.34 1538.71 1778.14 1542.27 Q1779.97 1545.82 1783.58 1545.82 Q1787.22 1545.82 1789.02 1542.27 Q1790.85 1538.71 1790.85 1531.6 Q1790.85 1524.47 1789.02 1520.93 Q1787.22 1517.37 1783.58 1517.37 M1783.58 1513.66 Q1789.39 1513.66 1792.45 1518.27 Q1795.53 1522.85 1795.53 1531.6 Q1795.53 1540.33 1792.45 1544.94 Q1789.39 1549.52 1783.58 1549.52 Q1777.77 1549.52 1774.69 1544.94 Q1771.64 1540.33 1771.64 1531.6 Q1771.64 1522.85 1774.69 1518.27 Q1777.77 1513.66 1783.58 1513.66 Z" fill="#000000" fill-rule="nonzero" fill-opacity="1" /><path clip-path="url(#clip870)" d="M1813.74 1517.37 Q1810.13 1517.37 1808.3 1520.93 Q1806.5 1524.47 1806.5 1531.6 Q1806.5 1538.71 1808.3 1542.27 Q1810.13 1545.82 1813.74 1545.82 Q1817.38 1545.82 1819.18 1542.27 Q1821.01 1538.71 1821.01 1531.6 Q1821.01 1524.47 1819.18 1520.93 Q1817.38 1517.37 1813.74 1517.37 M1813.74 1513.66 Q1819.55 1513.66 1822.61 1518.27 Q1825.69 1522.85 1825.69 1531.6 Q1825.69 1540.33 1822.61 1544.94 Q1819.55 1549.52 1813.74 1549.52 Q1807.93 1549.52 1804.85 1544.94 Q1801.8 1540.33 1801.8 1531.6 Q1801.8 1522.85 1804.85 1518.27 Q1807.93 1513.66 1813.74 1513.66 Z" fill="#000000" fill-rule="nonzero" fill-opacity="1" /><path clip-path="url(#clip870)" d="M2248.19 1518.36 L2236.39 1536.81 L2248.19 1536.81 L2248.19 1518.36 M2246.97 1514.29 L2252.85 1514.29 L2252.85 1536.81 L2257.78 1536.81 L2257.78 1540.7 L2252.85 1540.7 L2252.85 1548.85 L2248.19 1548.85 L2248.19 1540.7 L2232.59 1540.7 L2232.59 1536.19 L2246.97 1514.29 Z" fill="#000000" fill-rule="nonzero" fill-opacity="1" /><path clip-path="url(#clip870)" d="M2275.51 1517.37 Q2271.9 1517.37 2270.07 1520.93 Q2268.26 1524.47 2268.26 1531.6 Q2268.26 1538.71 2270.07 1542.27 Q2271.9 1545.82 2275.51 1545.82 Q2279.14 1545.82 2280.95 1542.27 Q2282.78 1538.71 2282.78 1531.6 Q2282.78 1524.47 2280.95 1520.93 Q2279.14 1517.37 2275.51 1517.37 M2275.51 1513.66 Q2281.32 1513.66 2284.37 1518.27 Q2287.45 1522.85 2287.45 1531.6 Q2287.45 1540.33 2284.37 1544.94 Q2281.32 1549.52 2275.51 1549.52 Q2269.7 1549.52 2266.62 1544.94 Q2263.56 1540.33 2263.56 1531.6 Q2263.56 1522.85 2266.62 1518.27 Q2269.7 1513.66 2275.51 1513.66 Z" fill="#000000" fill-rule="nonzero" fill-opacity="1" /><path clip-path="url(#clip870)" d="M2305.67 1517.37 Q2302.06 1517.37 2300.23 1520.93 Q2298.42 1524.47 2298.42 1531.6 Q2298.42 1538.71 2300.23 1542.27 Q2302.06 1545.82 2305.67 1545.82 Q2309.3 1545.82 2311.11 1542.27 Q2312.94 1538.71 2312.94 1531.6 Q2312.94 1524.47 2311.11 1520.93 Q2309.3 1517.37 2305.67 1517.37 M2305.67 1513.66 Q2311.48 1513.66 2314.53 1518.27 Q2317.61 1522.85 2317.61 1531.6 Q2317.61 1540.33 2314.53 1544.94 Q2311.48 1549.52 2305.67 1549.52 Q2299.86 1549.52 2296.78 1544.94 Q2293.72 1540.33 2293.72 1531.6 Q2293.72 1522.85 2296.78 1518.27 Q2299.86 1513.66 2305.67 1513.66 Z" fill="#000000" fill-rule="nonzero" fill-opacity="1" /><path clip-path="url(#clip870)" d="M2335.83 1517.37 Q2332.22 1517.37 2330.39 1520.93 Q2328.59 1524.47 2328.59 1531.6 Q2328.59 1538.71 2330.39 1542.27 Q2332.22 1545.82 2335.83 1545.82 Q2339.47 1545.82 2341.27 1542.27 Q2343.1 1538.71 2343.1 1531.6 Q2343.1 1524.47 2341.27 1520.93 Q2339.47 1517.37 2335.83 1517.37 M2335.83 1513.66 Q2341.64 1513.66 2344.7 1518.27 Q2347.78 1522.85 2347.78 1531.6 Q2347.78 1540.33 2344.7 1544.94 Q2341.64 1549.52 2335.83 1549.52 Q2330.02 1549.52 2326.94 1544.94 Q2323.89 1540.33 2323.89 1531.6 Q2323.89 1522.85 2326.94 1518.27 Q2330.02 1513.66 2335.83 1513.66 Z" fill="#000000" fill-rule="nonzero" fill-opacity="1" /><polyline clip-path="url(#clip872)" style="stroke:#000000; stroke-linecap:round; stroke-linejoin:round; stroke-width:2; stroke-opacity:0.1; fill:none" points="141.853,1301.75 2352.76,1301.75 "/>
<polyline clip-path="url(#clip872)" style="stroke:#000000; stroke-linecap:round; stroke-linejoin:round; stroke-width:2; stroke-opacity:0.1; fill:none" points="141.853,970.223 2352.76,970.223 "/>
<polyline clip-path="url(#clip872)" style="stroke:#000000; stroke-linecap:round; stroke-linejoin:round; stroke-width:2; stroke-opacity:0.1; fill:none" points="141.853,638.695 2352.76,638.695 "/>
<polyline clip-path="url(#clip872)" style="stroke:#000000; stroke-linecap:round; stroke-linejoin:round; stroke-width:2; stroke-opacity:0.1; fill:none" points="141.853,307.167 2352.76,307.167 "/>
<polyline clip-path="url(#clip870)" style="stroke:#000000; stroke-linecap:round; stroke-linejoin:round; stroke-width:4; stroke-opacity:1; fill:none" points="141.853,1486.45 141.853,47.2441 "/>
<polyline clip-path="url(#clip870)" style="stroke:#000000; stroke-linecap:round; stroke-linejoin:round; stroke-width:4; stroke-opacity:1; fill:none" points="141.853,1301.75 160.751,1301.75 "/>
<polyline clip-path="url(#clip870)" style="stroke:#000000; stroke-linecap:round; stroke-linejoin:round; stroke-width:4; stroke-opacity:1; fill:none" points="141.853,970.223 160.751,970.223 "/>
<polyline clip-path="url(#clip870)" style="stroke:#000000; stroke-linecap:round; stroke-linejoin:round; stroke-width:4; stroke-opacity:1; fill:none" points="141.853,638.695 160.751,638.695 "/>
<polyline clip-path="url(#clip870)" style="stroke:#000000; stroke-linecap:round; stroke-linejoin:round; stroke-width:4; stroke-opacity:1; fill:none" points="141.853,307.167 160.751,307.167 "/>
<path clip-path="url(#clip870)" d="M54.5569 1315.1 L62.1958 1315.1 L62.1958 1288.73 L53.8856 1290.4 L53.8856 1286.14 L62.1495 1284.47 L66.8254 1284.47 L66.8254 1315.1 L74.4642 1315.1 L74.4642 1319.03 L54.5569 1319.03 L54.5569 1315.1 Z" fill="#000000" fill-rule="nonzero" fill-opacity="1" /><path clip-path="url(#clip870)" d="M93.9086 1287.55 Q90.2975 1287.55 88.4688 1291.11 Q86.6632 1294.66 86.6632 1301.79 Q86.6632 1308.89 88.4688 1312.46 Q90.2975 1316 93.9086 1316 Q97.5428 1316 99.3483 1312.46 Q101.177 1308.89 101.177 1301.79 Q101.177 1294.66 99.3483 1291.11 Q97.5428 1287.55 93.9086 1287.55 M93.9086 1283.85 Q99.7187 1283.85 102.774 1288.45 Q105.853 1293.04 105.853 1301.79 Q105.853 1310.51 102.774 1315.12 Q99.7187 1319.7 93.9086 1319.7 Q88.0984 1319.7 85.0197 1315.12 Q81.9642 1310.51 81.9642 1301.79 Q81.9642 1293.04 85.0197 1288.45 Q88.0984 1283.85 93.9086 1283.85 Z" fill="#000000" fill-rule="nonzero" fill-opacity="1" /><path clip-path="url(#clip870)" d="M57.7745 983.568 L74.0939 983.568 L74.0939 987.503 L52.1495 987.503 L52.1495 983.568 Q54.8115 980.813 59.3949 976.184 Q64.0013 971.531 65.1819 970.188 Q67.4272 967.665 68.3068 965.929 Q69.2096 964.17 69.2096 962.48 Q69.2096 959.725 67.2652 957.989 Q65.3439 956.253 62.2421 956.253 Q60.043 956.253 57.5893 957.017 Q55.1588 957.781 52.381 959.332 L52.381 954.61 Q55.2051 953.475 57.6588 952.897 Q60.1124 952.318 62.1495 952.318 Q67.5198 952.318 70.7142 955.003 Q73.9087 957.688 73.9087 962.179 Q73.9087 964.309 73.0985 966.23 Q72.3115 968.128 70.205 970.721 Q69.6263 971.392 66.5245 974.61 Q63.4226 977.804 57.7745 983.568 Z" fill="#000000" fill-rule="nonzero" fill-opacity="1" /><path clip-path="url(#clip870)" d="M93.9086 956.022 Q90.2975 956.022 88.4688 959.587 Q86.6632 963.128 86.6632 970.258 Q86.6632 977.364 88.4688 980.929 Q90.2975 984.471 93.9086 984.471 Q97.5428 984.471 99.3483 980.929 Q101.177 977.364 101.177 970.258 Q101.177 963.128 99.3483 959.587 Q97.5428 956.022 93.9086 956.022 M93.9086 952.318 Q99.7187 952.318 102.774 956.925 Q105.853 961.508 105.853 970.258 Q105.853 978.985 102.774 983.591 Q99.7187 988.174 93.9086 988.174 Q88.0984 988.174 85.0197 983.591 Q81.9642 978.985 81.9642 970.258 Q81.9642 961.508 85.0197 956.925 Q88.0984 952.318 93.9086 952.318 Z" fill="#000000" fill-rule="nonzero" fill-opacity="1" /><path clip-path="url(#clip870)" d="M67.9133 637.341 Q71.2698 638.058 73.1448 640.327 Q75.0429 642.595 75.0429 645.929 Q75.0429 651.044 71.5244 653.845 Q68.0059 656.646 61.5245 656.646 Q59.3486 656.646 57.0338 656.206 Q54.7421 655.79 52.2884 654.933 L52.2884 650.419 Q54.2328 651.554 56.5477 652.132 Q58.8625 652.711 61.3856 652.711 Q65.7837 652.711 68.0754 650.975 Q70.3902 649.239 70.3902 645.929 Q70.3902 642.873 68.2374 641.16 Q66.1078 639.424 62.2884 639.424 L58.2606 639.424 L58.2606 635.582 L62.4735 635.582 Q65.9226 635.582 67.7513 634.216 Q69.58 632.827 69.58 630.234 Q69.58 627.572 67.6819 626.16 Q65.8069 624.725 62.2884 624.725 Q60.3671 624.725 58.168 625.142 Q55.969 625.558 53.3301 626.438 L53.3301 622.271 Q55.9921 621.531 58.3069 621.16 Q60.6449 620.79 62.705 620.79 Q68.0291 620.79 71.1309 623.221 Q74.2327 625.628 74.2327 629.748 Q74.2327 632.619 72.5892 634.609 Q70.9457 636.577 67.9133 637.341 Z" fill="#000000" fill-rule="nonzero" fill-opacity="1" /><path clip-path="url(#clip870)" d="M93.9086 624.494 Q90.2975 624.494 88.4688 628.058 Q86.6632 631.6 86.6632 638.73 Q86.6632 645.836 88.4688 649.401 Q90.2975 652.943 93.9086 652.943 Q97.5428 652.943 99.3483 649.401 Q101.177 645.836 101.177 638.73 Q101.177 631.6 99.3483 628.058 Q97.5428 624.494 93.9086 624.494 M93.9086 620.79 Q99.7187 620.79 102.774 625.396 Q105.853 629.98 105.853 638.73 Q105.853 647.456 102.774 652.063 Q99.7187 656.646 93.9086 656.646 Q88.0984 656.646 85.0197 652.063 Q81.9642 647.456 81.9642 638.73 Q81.9642 629.98 85.0197 625.396 Q88.0984 620.79 93.9086 620.79 Z" fill="#000000" fill-rule="nonzero" fill-opacity="1" /><path clip-path="url(#clip870)" d="M66.5939 293.961 L54.7884 312.41 L66.5939 312.41 L66.5939 293.961 M65.367 289.887 L71.2466 289.887 L71.2466 312.41 L76.1772 312.41 L76.1772 316.299 L71.2466 316.299 L71.2466 324.447 L66.5939 324.447 L66.5939 316.299 L50.9921 316.299 L50.9921 311.785 L65.367 289.887 Z" fill="#000000" fill-rule="nonzero" fill-opacity="1" /><path clip-path="url(#clip870)" d="M93.9086 292.966 Q90.2975 292.966 88.4688 296.53 Q86.6632 300.072 86.6632 307.202 Q86.6632 314.308 88.4688 317.873 Q90.2975 321.414 93.9086 321.414 Q97.5428 321.414 99.3483 317.873 Q101.177 314.308 101.177 307.202 Q101.177 300.072 99.3483 296.53 Q97.5428 292.966 93.9086 292.966 M93.9086 289.262 Q99.7187 289.262 102.774 293.868 Q105.853 298.452 105.853 307.202 Q105.853 315.928 102.774 320.535 Q99.7187 325.118 93.9086 325.118 Q88.0984 325.118 85.0197 320.535 Q81.9642 315.928 81.9642 307.202 Q81.9642 298.452 85.0197 293.868 Q88.0984 289.262 93.9086 289.262 Z" fill="#000000" fill-rule="nonzero" fill-opacity="1" /><polyline clip-path="url(#clip872)" style="stroke:#009af9; stroke-linecap:round; stroke-linejoin:round; stroke-width:4; stroke-opacity:1; fill:none" points="204.426,1400.8 204.947,1401.08 205.469,1216.64 205.99,1217.28 206.511,1340.46 207.033,1340.86 207.554,1445.54 208.076,1445.72 208.597,1405.24 209.119,1405.44 209.64,1265.34 210.162,1265.75 210.683,1253.41 211.204,1253.82 211.726,1331.21 212.247,1331.5 212.769,1393.69 213.29,1393.86 213.812,1232.16 214.333,1232.64 214.854,1318.07 215.376,1318.3 215.897,1319.91 216.419,1320.19 216.94,1222.72 217.462,1223.14 217.983,1381.65 218.505,1381.82 219.026,1306.31 219.547,1306.56 220.069,1262.84 220.59,1263.15 221.112,1314.01 221.633,1314.24 222.155,1184.51 222.676,1184.99 223.197,1340.9 223.719,1341.14 224.24,1342.88 224.762,1343.08 225.283,1297.57 225.805,1297.76 226.326,1296.42 226.848,1296.6 227.369,1359.89 227.89,1360.02 228.412,1279.41 228.933,1279.61 229.455,1088.13 229.976,1088.49 230.498,1320.96 231.019,1321.11 231.541,1270.61 232.062,1270.84 232.583,1231.04 233.105,1231.32 233.626,1174.87 234.148,1175.1 234.669,1288.93 235.191,1289.17 235.712,1236.9 236.233,1237.15 236.755,1263.85 237.276,1264.09 237.798,1363.19 238.319,1363.3 238.841,1293.99 239.362,1294.17 239.884,1157.72 240.405,1157.95 240.926,1218.87 241.448,1219.06 241.969,1207.69 242.491,1207.87 243.012,1259.64 243.534,1259.83 244.055,1298.1 244.577,1298.24 245.098,1329.9 245.619,1330.03 246.141,1203.82 246.662,1204.02 247.184,1342.23 247.705,1342.31 248.227,1100.06 248.748,1100.36 249.269,1222.48 249.791,1222.66 250.312,1257.05 250.834,1257.16 251.355,1326.33 251.877,1326.51 252.398,1189.73 252.92,1189.92 253.441,1177.08 253.962,1177.28 254.484,1259.9 255.005,1260.06 255.527,1191.51 256.048,1191.73 256.57,1231.59 257.091,1231.83 257.612,1166.54 258.134,1166.78 258.655,1033.13 259.177,1033.38 259.698,1150.71 260.22,1150.9 260.741,1163.94 261.263,1164.14 261.784,1082.05 262.305,1082.39 262.827,1271.73 263.348,1271.84 263.87,1154.37 264.391,1154.63 264.913,1213.01 265.434,1213.2 265.956,1087.33 266.477,1087.52 266.998,1204.31 267.52,1204.56 268.041,1184.85 268.563,1185 269.084,1217.34 269.606,1217.55 270.127,1249.77 270.648,1249.87 271.17,1216.67 271.691,1216.79 272.213,1179.58 272.734,1179.71 273.256,1263.58 273.777,1263.67 274.299,1161.31 274.82,1161.48 275.341,1122.06 275.863,1122.25 276.384,1206.35 276.906,1206.53 277.427,1234.05 277.949,1234.19 278.47,1182.58 278.991,1182.75 279.513,1170.69 280.034,1170.89 280.556,1255.54 281.077,1255.7 281.599,1226.32 282.12,1226.42 282.642,1175.49 283.163,1175.65 283.684,1090.19 284.206,1090.39 284.727,1257.03 285.249,1257.13 285.77,1129.64 286.292,1129.81 286.813,1179.66 287.335,1179.79 287.856,1088.41 288.377,1088.6 288.899,1234.51 289.42,1234.63 289.942,1219.3 290.463,1219.42 290.985,1247.59 291.506,1247.71 292.027,1275.45 292.549,1275.57 293.07,1187.7 293.592,1187.8 294.113,1265.57 294.635,1265.66 295.156,1224.04 295.678,1224.17 296.199,1180.94 296.72,1181.06 297.242,1157.39 297.763,1157.53 298.285,1312.75 298.806,1312.8 299.328,1164.3 299.849,1164.43 300.371,1247.97 300.892,1248.09 301.413,1191.7 301.935,1191.83 302.456,1160.51 302.978,1160.72 303.499,1024.32 304.021,1024.63 304.542,1046.47 305.063,1046.71 305.585,1129.61 306.106,1129.76 306.628,1104.72 307.149,1104.92 307.671,1037.34 308.192,1037.53 308.714,1190.69 309.235,1190.84 309.756,1187.02 310.278,1187.12 310.799,1187.19 311.321,1187.3 311.842,1173.3 312.364,1173.4 312.885,1161.37 313.406,1161.49 313.928,1142.42 314.449,1142.58 314.971,1124.58 315.492,1124.72 316.014,1172.94 316.535,1173.18 317.057,1093.87 317.578,1094.07 318.099,1129.77 318.621,1129.91 319.142,1242.9 319.664,1242.96 320.185,1077.14 320.707,1077.35 321.228,1205.45 321.75,1205.56 322.271,1154.31 322.792,1154.4 323.314,1058.4 323.835,1058.58 324.357,1214.26 324.878,1214.33 325.4,1087.44 325.921,1087.62 326.442,1247.53 326.964,1247.59 327.485,1148.28 328.007,1148.41 328.528,1108.51 329.05,1108.61 329.571,1121.79 330.093,1121.88 330.614,1064.53 331.135,1064.69 331.657,1153.16 332.178,1153.24 332.7,1113.63 333.221,1113.79 333.743,1095.12 334.264,1095.22 334.786,1108.08 335.307,1108.21 335.828,1189.57 336.35,1189.67 336.871,1180.23 337.393,1180.39 337.914,1053.23 338.436,1053.38 338.957,1021.91 339.478,1022.15 340,1066.84 340.521,1067.01 341.043,1058.77 341.564,1058.97 342.086,1137.14 342.607,1137.25 343.129,1115.61 343.65,1115.8 344.171,1184.55 344.693,1184.61 345.214,1066.61 345.736,1066.75 346.257,1039.74 346.779,1039.97 347.3,1072.31 347.821,1072.47 348.343,1122.59 348.864,1122.67 349.386,1119.79 349.907,1119.88 350.429,989.284 350.95,989.455 351.472,1142.68 351.993,1142.79 352.514,1161.93 353.036,1162 353.557,1101.67 354.079,1101.79 354.6,1059.42 355.122,1059.51 355.643,1068.94 356.165,1069.08 356.686,1084.44 357.207,1084.56 357.729,1117.43 358.25,1117.61 358.772,1114.3 359.293,1114.45 359.815,1144.78 360.336,1144.91 360.857,1008.51 361.379,1008.65 361.9,1058.93 362.422,1059.08 362.943,1096.06 363.465,1096.21 363.986,1032.24 364.508,1032.43 365.029,1048.3 365.55,1048.52 366.072,1037.86 366.593,1038.01 367.115,1116.15 367.636,1116.22 368.158,1079.7 368.679,1079.76 369.201,1031.39 369.722,1031.51 370.243,1154.46 370.765,1154.58 371.286,1078.79 371.808,1078.96 372.329,1127.38 372.851,1127.46 373.372,1112.45 373.893,1112.55 374.415,1145.27 374.936,1145.34 375.458,1153.32 375.979,1153.39 376.501,1123.48 377.022,1123.63 377.544,1119.23 378.065,1119.32 378.586,1206.38 379.108,1206.41 379.629,1083.99 380.151,1084.17 380.672,1114.84 381.194,1114.97 381.715,1032.2 382.236,1032.34 382.758,1153.21 383.279,1153.36 383.801,1134.93 384.322,1135.01 384.844,1141.71 385.365,1141.77 385.887,1193.22 386.408,1193.33 386.929,1126.06 387.451,1126.17 387.972,1071.21 388.494,1071.29 389.015,1024.59 389.537,1024.72 390.058,961.91 390.58,962.049 391.101,1219.52 391.622,1219.63 392.144,983.498 392.665,983.637 393.187,1138.46 393.708,1138.59 394.23,1088.82 394.751,1088.92 395.272,1138.56 395.794,1138.65 396.315,943.836 396.837,943.989 397.358,1044.71 397.88,1044.83 398.401,1153.76 398.923,1153.87 399.444,1028.55 399.965,1028.66 400.487,1108.37 401.008,1108.54 401.53,1130.74 402.051,1130.81 402.573,1081.56 403.094,1081.65 403.616,1208.46 404.137,1208.54 404.658,982.703 405.18,982.837 405.701,1152.97 406.223,1153.03 406.744,1039.12 407.266,1039.32 407.787,1062.52 408.308,1062.67 408.83,1079.5 409.351,1079.62 409.873,1065.59 410.394,1065.68 410.916,1039.95 411.437,1040.02 411.959,1106.35 412.48,1106.48 413.001,1064.82 413.523,1064.93 414.044,979.983 414.566,980.208 415.087,1144.09 415.609,1144.19 416.13,1181.16 416.651,1181.25 417.173,1147.12 417.694,1147.17 418.216,1010.54 418.737,1010.63 419.259,1077.12 419.78,1077.24 420.302,1112.9 420.823,1112.97 421.344,995.224 421.866,995.42 422.387,899.067 422.909,899.212 423.43,1053.36 423.952,1053.48 424.473,1129.56 424.995,1129.62 425.516,1013.23 426.037,1013.33 426.559,1079.61 427.08,1079.71 427.602,1132.41 428.123,1132.48 428.645,1041.05 429.166,1041.19 429.687,1096.03 430.209,1096.19 430.73,1089.21 431.252,1089.28 431.773,1095.96 432.295,1096.04 432.816,1039.02 433.338,1039.14 433.859,1069.51 434.38,1069.67 434.902,1148.88 435.423,1148.92 435.945,1048.42 436.466,1048.52 436.988,1047.22 437.509,1047.3 438.031,1108.91 438.552,1109.02 439.073,1186.66 439.595,1186.75 440.116,1093.1 440.638,1093.22 441.159,1196.12 441.681,1196.16 442.202,1030.79 442.723,1030.92 443.245,1002.05 443.766,1002.19 444.288,1055.65 444.809,1055.73 445.331,1052.33 445.852,1052.4 446.374,988.751 446.895,988.902 447.416,1039.2 447.938,1039.3 448.459,1186.11 448.981,1186.15 449.502,1047.13 450.024,1047.24 450.545,1007.02 451.066,1007.14 451.588,1072.19 452.109,1072.31 452.631,1173.95 453.152,1174 453.674,1106.71 454.195,1106.78 454.717,1063.12 455.238,1063.19 455.759,1072.64 456.281,1072.7 456.802,1063.18 457.324,1063.24 457.845,1107.87 458.367,1107.95 458.888,1082.15 459.41,1082.28 459.931,1077.72 460.452,1077.83 460.974,1088.88 461.495,1088.94 462.017,1079.72 462.538,1079.8 463.06,1080.45 463.581,1080.5 464.102,1041.04 464.624,1041.21 465.145,861.202 465.667,861.396 466.188,1021.96 466.71,1022.06 467.231,1063.82 467.753,1063.88 468.274,907.701 468.795,907.855 469.317,1100.67 469.838,1100.78 470.36,1117.38 470.881,1117.43 471.403,1025.55 471.924,1025.65 472.446,1124.82 472.967,1124.93 473.488,1040.95 474.01,1041 474.531,1087.98 475.053,1088.08 475.574,1142.05 476.096,1142.13 476.617,1067.3 477.138,1067.4 477.66,1024.95 478.181,1025.04 478.703,1058.38 479.224,1058.46 479.746,981.24 480.267,981.348 480.789,1006.71 481.31,1006.87 481.831,1070.76 482.353,1070.85 482.874,1126.66 483.396,1126.74 483.917,962.238 484.439,962.386 484.96,1089.17 485.481,1089.25 486.003,1201.63 486.524,1201.65 487.046,1121.18 487.567,1121.26 488.089,1140.12 488.61,1140.18 489.132,1140.24 489.653,1140.29 490.174,1071.76 490.696,1071.84 491.217,1083.04 491.739,1083.1 492.26,1141.91 492.782,1141.97 493.303,1142.25 493.825,1142.32 494.346,1136.04 494.867,1136.1 495.389,1203.45 495.91,1203.48 496.432,1025.06 496.953,1025.22 497.475,1127.26 497.996,1127.33 498.517,1059.96 499.039,1060.06 499.56,997.325 500.082,997.444 500.603,1116.03 501.125,1116.12 501.646,1005.47 502.168,1005.57 502.689,1160.48 503.21,1160.54 503.732,1012.02 504.253,1012.15 504.775,1143.28 505.296,1143.41 505.818,1032.65 506.339,1032.74 506.861,927.172 507.382,927.383 507.903,1062.54 508.425,1062.66 508.946,1100.42 509.468,1100.45 509.989,1151.75 510.511,1151.81 511.032,1040.62 511.553,1040.74 512.075,1031.94 512.596,1032.04 513.118,1002.06 513.639,1002.11 514.161,1042.71 514.682,1042.87 515.204,1022.22 515.725,1022.3 516.246,1040.78 516.768,1040.82 517.289,1017.37 517.811,1017.46 518.332,923.197 518.854,923.336 519.375,1201.27 519.896,1201.35 520.418,1149.13 520.939,1149.19 521.461,1074.58 521.982,1074.67 522.504,995.34 523.025,995.517 523.547,1123.31 524.068,1123.37 524.589,1098.5 525.111,1098.57 525.632,1113.52 526.154,1113.55 526.675,1037.73 527.197,1037.86 527.718,1098.66 528.24,1098.71 528.761,1027.18 529.282,1027.28 529.804,1081.17 530.325,1081.27 530.847,940.19 531.368,940.326 531.89,1088.07 532.411,1088.14 532.932,1018.09 533.454,1018.21 533.975,1042.97 534.497,1043.05 535.018,1053.49 535.54,1053.58 536.061,1096.5 536.583,1096.58 537.104,957.404 537.625,957.572 538.147,970.082 538.668,970.298 539.19,1077.02 539.711,1077.07 540.233,938.318 540.754,938.428 541.276,967.47 541.797,967.719 542.318,1113.33 542.84,1113.42 543.361,975.14 543.883,975.255 544.404,1048.53 544.926,1048.61 545.447,1054.77 545.968,1054.85 546.49,1066.35 547.011,1066.47 547.533,1004.88 548.054,1004.96 548.576,980.703 549.097,980.88 549.619,1006.7 550.14,1006.81 550.661,920.25 551.183,920.436 551.704,954.519 552.226,954.661 552.747,915.963 553.269,916.143 553.79,916.713 554.311,916.853 554.833,984.731 555.354,984.908 555.876,953.4 556.397,953.485 556.919,969.357 557.44,969.434 557.962,919.53 558.483,919.632 559.004,1088.25 559.526,1088.31 560.047,1063.89 560.569,1063.99 561.09,1057.26 561.612,1057.35 562.133,1114.71 562.655,1114.83 563.176,1150.45 563.697,1150.53 564.219,1053.85 564.74,1053.91 565.262,1036.45 565.783,1036.51 566.305,1073.29 566.826,1073.35 567.347,1044.47 567.869,1044.54 568.39,1015.49 568.912,1015.59 569.433,1068.7 569.955,1068.82 570.476,968.3 570.998,968.439 571.519,1034.18 572.04,1034.24 572.562,1015.6 573.083,1015.69 573.605,1008.31 574.126,1008.4 574.648,1048.21 575.169,1048.3 575.691,1094.69 576.212,1094.75 576.733,1045.76 577.255,1045.84 577.776,985.872 578.298,985.961 578.819,1050.3 579.341,1050.36 579.862,1053.14 580.383,1053.21 580.905,1080.4 581.426,1080.51 581.948,914.841 582.469,914.971 582.991,1007.8 583.512,1007.9 584.034,875.956 584.555,876.129 585.076,937.313 585.598,937.399 586.119,971.174 586.641,971.234 587.162,987.47 587.684,987.575 588.205,994.07 588.726,994.172 589.248,1063.36 589.769,1063.43 590.291,862.195 590.812,862.411 591.334,1064.62 591.855,1064.7 592.377,995.508 592.898,995.665 593.419,1036.27 593.941,1036.37 594.462,1030.34 594.984,1030.5 595.505,1044.38 596.027,1044.46 596.548,1009.68 597.07,1009.74 597.591,1005.12 598.112,1005.19 598.634,1038.91 599.155,1038.97 599.677,965.374 600.198,965.507 600.72,994.168 601.241,994.238 601.762,971.178 602.284,971.26 602.805,1054.13 603.327,1054.18 603.848,1062.76 604.37,1062.83 604.891,884.265 605.413,884.455 605.934,1033.99 606.455,1034.06 606.977,1053.92 607.498,1054.01 608.02,989.907 608.541,990.019 609.063,1106.41 609.584,1106.5 610.106,1038.17 610.627,1038.27 611.148,843.478 611.67,843.685 612.191,1099.9 612.713,1099.95 613.234,1011.66 613.756,1011.72 614.277,950.357 614.798,950.462 615.32,1041.27 615.841,1041.32 616.363,998.834 616.884,998.892 617.406,1041.77 617.927,1041.85 618.449,1006.69 618.97,1006.8 619.491,1046.97 620.013,1047.03 620.534,992.447 621.056,992.534 621.577,946.345 622.099,946.53 622.62,1065.61 623.141,1065.7 623.663,1025.79 624.184,1025.91 624.706,1024.62 625.227,1024.7 625.749,933.56 626.27,933.721 626.792,1111.92 627.313,1111.97 627.834,978.36 628.356,978.47 628.877,1011.91 629.399,1012 629.92,984.116 630.442,984.252 630.963,923.86 631.485,924.05 632.006,1005.14 632.527,1005.23 633.049,1007.54 633.57,1007.61 634.092,925.275 634.613,925.355 635.135,888.656 635.656,888.831 636.177,926.694 636.699,926.791 637.22,927.344 637.742,927.523 638.263,1088.25 638.785,1088.35 639.306,910.286 639.828,910.444 640.349,1061.89 640.87,1061.92 641.392,998.809 641.913,998.901 642.435,1064.61 642.956,1064.66 643.478,1102.63 643.999,1102.71 644.521,1095.89 645.042,1095.96 645.563,1092.35 646.085,1092.41 646.606,902.169 647.128,902.319 647.649,988.026 648.171,988.132 648.692,1045.55 649.213,1045.65 649.735,814.932 650.256,815.134 650.778,910.833 651.299,910.927 651.821,981.689 652.342,981.78 652.864,934.795 653.385,934.933 653.906,888.768 654.428,888.94 654.949,937.321 655.471,937.453 655.992,845.938 656.514,846.057 657.035,941.873 657.556,941.955 658.078,1016.61 658.599,1016.71 659.121,1010.25 659.642,1010.33 660.164,988.219 660.685,988.296 661.207,833.345 661.728,833.565 662.249,1000.44 662.771,1000.53 663.292,923.324 663.814,923.468 664.335,875.288 664.857,875.402 665.378,894.96 665.9,895.104 666.421,1038.97 666.942,1039.06 667.464,896.251 667.985,896.454 668.507,882.5 669.028,882.632 669.55,1111.78 670.071,1111.85 670.592,1072.01 671.114,1072.08 671.635,861.117 672.157,861.324 672.678,920.588 673.2,920.686 673.721,1073.76 674.243,1073.82 674.764,971.222 675.285,971.357 675.807,944.978 676.328,945.124 676.85,931.051 677.371,931.12 677.893,904.898 678.414,905.028 678.936,914.807 679.457,914.93 679.978,955.492 680.5,955.604 681.021,946.959 681.543,947.046 682.064,915.08 682.586,915.191 683.107,878.137 683.628,878.259 684.15,1112.62 684.671,1112.68 685.193,1084.49 685.714,1084.56 686.236,977.553 686.757,977.687 687.279,872.807 687.8,872.925 688.321,1084.79 688.843,1084.94 689.364,817.607 689.886,817.765 690.407,948.262 690.929,948.391 691.45,1027.11 691.971,1027.18 692.493,959.223 693.014,959.397 693.536,737.941 694.057,738.191 694.579,1048.81 695.1,1049 695.622,1023.83 696.143,1023.92 696.664,967.199 697.186,967.352 697.707,997.753 698.229,997.827 698.75,940.465 699.272,940.546 699.793,921.657 700.315,921.808 700.836,994.812 701.357,994.938 701.879,1050.17 702.4,1050.23 702.922,994.133 703.443,994.212 703.965,997.805 704.486,997.979 705.007,933.394 705.529,933.581 706.05,999.395 706.572,999.493 707.093,915.267 707.615,915.37 708.136,971.374 708.658,971.486 709.179,933.309 709.7,933.459 710.222,971.39 710.743,971.486 711.265,960.005 711.786,960.092 712.308,962.333 712.829,962.424 713.351,1049.12 713.872,1049.22 714.393,896.738 714.915,896.817 715.436,938.73 715.958,938.789 716.479,827.451 717.001,827.664 717.522,818.481 718.043,818.592 718.565,727.955 719.086,728.139 719.608,981.311 720.129,981.409 720.651,920.663 721.172,920.8 721.694,880.159 722.215,880.312 722.736,930.341 723.258,930.447 723.779,807.945 724.301,808.101 724.822,911.391 725.344,911.599 725.865,906.671 726.386,906.753 726.908,866.194 727.429,866.358 727.951,1102.83 728.472,1102.92 728.994,847.679 729.515,847.797 730.037,1017.77 730.558,1017.82 731.079,1022.3 731.601,1022.36 732.122,1024.7 732.644,1024.74 733.165,920.214 733.687,920.328 734.208,1050.33 734.73,1050.41 735.251,880.132 735.772,880.303 736.294,938.211 736.815,938.299 737.337,1010.11 737.858,1010.21 738.38,877.453 738.901,877.591 739.422,957.683 739.944,957.864 740.465,936.108 740.987,936.23 741.508,847.843 742.03,848.027 742.551,1032.47 743.073,1032.58 743.594,998.544 744.115,998.628 744.637,1000.37 745.158,1000.42 745.68,925.677 746.201,925.739 746.723,1004.2 747.244,1004.27 747.766,1000.92 748.287,1001.03 748.808,931.284 749.33,931.359 749.851,1043.41 750.373,1043.53 750.894,990.932 751.416,991.06 751.937,992.921 752.458,992.98 752.98,943.707 753.501,943.794 754.023,867.13 754.544,867.27 755.066,1032.16 755.587,1032.21 756.109,667.357 756.63,667.566 757.151,934.691 757.673,934.874 758.194,943.276 758.716,943.341 759.237,966.811 759.759,966.894 760.28,1016.11 760.801,1016.19 761.323,990.519 761.844,990.605 762.366,853.531 762.887,853.63 763.409,1019.12 763.93,1019.19 764.452,992.047 764.973,992.102 765.494,1071.86 766.016,1071.89 766.537,932.018 767.059,932.121 767.58,976.585 768.102,976.663 768.623,1068.81 769.145,1068.88 769.666,834.074 770.187,834.306 770.709,959.221 771.23,959.379 771.752,884.068 772.273,884.249 772.795,925.064 773.316,925.283 773.837,813.393 774.359,813.585 774.88,875.791 775.402,875.941 775.923,966.441 776.445,966.56 776.966,1031.08 777.488,1031.21 778.009,880.451 778.53,880.519 779.052,1033.86 779.573,1033.9 780.095,996.36 780.616,996.42 781.138,1009.37 781.659,1009.43 782.18,1034.04 782.702,1034.06 783.223,957.292 783.745,957.35 784.266,973.056 784.788,973.189 785.309,913.966 785.831,914.041 786.352,1017.14 786.873,1017.28 787.395,1040.78 787.916,1040.81 788.438,877.47 788.959,877.61 789.481,1107.79 790.002,1107.91 790.524,956.651 791.045,956.757 791.566,949.796 792.088,949.852 792.609,914.512 793.131,914.569 793.652,945.195 794.174,945.296 794.695,873.563 795.216,873.705 795.738,821.066 796.259,821.175 796.781,1007.44 797.302,1007.52 797.824,956.937 798.345,957.056 798.867,890.515 799.388,890.637 799.909,847.977 800.431,848.134 800.952,955.102 801.474,955.198 801.995,967.906 802.517,967.95 803.038,1079.51 803.56,1079.58 804.081,887.204 804.602,887.287 805.124,853.496 805.645,853.598 806.167,824.305 806.688,824.456 807.21,852.358 807.731,852.484 808.252,1005.73 808.774,1005.75 809.295,822.494 809.817,822.705 810.338,843.892 810.86,844.021 811.381,955.351 811.903,955.443 812.424,725.606 812.945,725.887 813.467,980.711 813.988,980.787 814.51,850.713 815.031,850.849 815.553,902.887 816.074,902.977 816.595,955.294 817.117,955.437 817.638,1011.05 818.16,1011.15 818.681,936.963 819.203,937.053 819.724,903.634 820.246,903.724 820.767,909.264 821.288,909.351 821.81,851.673 822.331,851.896 822.853,943.7 823.374,943.807 823.896,925.529 824.417,925.696 824.939,909.004 825.46,909.097 825.981,845.99 826.503,846.215 827.024,806.564 827.546,806.73 828.067,835.007 828.589,835.141 829.11,992.258 829.631,992.332 830.153,935.392 830.674,935.46 831.196,917.463 831.717,917.611 832.239,948.943 832.76,949.045 833.282,744.558 833.803,744.72 834.324,1032.09 834.846,1032.19 835.367,880.099 835.889,880.23 836.41,796.597 836.932,796.797 837.453,813.092 837.975,813.234 838.496,910.607 839.017,910.738 839.539,847.924 840.06,848.024 840.582,892.996 841.103,893.147 841.625,995.077 842.146,995.169 842.667,818.999 843.189,819.095 843.71,895.803 844.232,895.883 844.753,784.353 845.275,784.506 845.796,975.705 846.318,975.8 846.839,905.541 847.36,905.632 847.882,913.306 848.403,913.447 848.925,1017.56 849.446,1017.62 849.968,956.768 850.489,956.823 851.01,807.456 851.532,807.591 852.053,936.096 852.575,936.176 853.096,971.163 853.618,971.255 854.139,770.298 854.661,770.446 855.182,955.689 855.703,955.795 856.225,945.613 856.746,945.698 857.268,888.317 857.789,888.489 858.311,959.124 858.832,959.229 859.354,803.896 859.875,804.012 860.396,867.58 860.918,867.821 861.439,872.855 861.961,873.043 862.482,1002.75 863.004,1002.89 863.525,881.575 864.046,881.676 864.568,936.604 865.089,936.716 865.611,819.826 866.132,819.926 866.654,917.1 867.175,917.273 867.697,723.547 868.218,723.677 868.739,859.528 869.261,859.616 869.782,878.275 870.304,878.393 870.825,893.414 871.347,893.508 871.868,822.748 872.39,822.936 872.911,930.633 873.432,930.725 873.954,874.405 874.475,874.535 874.997,757.936 875.518,758.087 876.04,582.165 876.561,582.404 877.082,794.747 877.604,794.949 878.125,953.674 878.647,953.774 879.168,804.089 879.69,804.255 880.211,813.616 880.733,813.841 881.254,866.902 881.775,866.966 882.297,888.29 882.818,888.412 883.34,1037.38 883.861,1037.45 884.383,675.016 884.904,675.188 885.425,995.726 885.947,995.806 886.468,948.803 886.99,948.866 887.511,850.255 888.033,850.366 888.554,821.869 889.076,822.028 889.597,675.43 890.118,675.662 890.64,762.768 891.161,762.977 891.683,856.178 892.204,856.297 892.726,817.236 893.247,817.393 893.769,905.496 894.29,905.623 894.811,969.417 895.333,969.53 895.854,766.203 896.376,766.379 896.897,878.818 897.419,878.942 897.94,913.729 898.461,913.792 898.983,948.372 899.504,948.476 900.026,901.318 900.547,901.397 901.069,806.09 901.59,806.287 902.112,899.968 902.633,900.066 903.154,834.637 903.676,834.785 904.197,949.304 904.719,949.396 905.24,1001.5 905.762,1001.6 906.283,844.559 906.805,844.704 907.326,777.813 907.847,777.959 908.369,792.597 908.89,792.714 909.412,1047.63 909.933,1047.66 910.455,967.083 910.976,967.174 911.497,922.243 912.019,922.303 912.54,841.88 913.062,842.01 913.583,914.628 914.105,914.747 914.626,727.99 915.148,728.201 915.669,875.763 916.19,875.908 916.712,848.477 917.233,848.666 917.755,802.01 918.276,802.13 918.798,799.52 919.319,799.644 919.84,1024.86 920.362,1024.93 920.883,834.979 921.405,835.13 921.926,853.268 922.448,853.367 922.969,839.94 923.491,840.182 924.012,780.264 924.533,780.397 925.055,803.247 925.576,803.472 926.098,879.654 926.619,879.749 927.141,922.35 927.662,922.495 928.184,883.707 928.705,883.859 929.226,896.438 929.748,896.624 930.269,902.232 930.791,902.322 931.312,901.451 931.834,901.548 932.355,835.079 932.876,835.386 933.398,899.931 933.919,900.07 934.441,788.645 934.962,788.879 935.484,791.152 936.005,791.374 936.527,883.538 937.048,883.71 937.569,1014.93 938.091,1015.05 938.612,889.676 939.134,889.723 939.655,781.259 940.177,781.411 940.698,929.325 941.22,929.454 941.741,712.911 942.262,713.078 942.784,920.934 943.305,921.086 943.827,937.446 944.348,937.519 944.87,828.831 945.391,828.933 945.912,741.444 946.434,741.594 946.955,660.038 947.477,660.231 947.998,720.475 948.52,720.699 949.041,850.863 949.563,851.049 950.084,944.713 950.605,944.846 951.127,952.051 951.648,952.113 952.17,713.685 952.691,713.817 953.213,830.017 953.734,830.094 954.255,867.083 954.777,867.19 955.298,840.113 955.82,840.258 956.341,885.326 956.863,885.473 957.384,730.132 957.906,730.323 958.427,727.07 958.948,727.283 959.47,652.803 959.991,653.094 960.513,869.673 961.034,869.756 961.556,878.575 962.077,878.692 962.599,840.894 963.12,841.013 963.641,735.196 964.163,735.343 964.684,879.861 965.206,879.981 965.727,686.419 966.249,686.624 966.77,972.955 967.291,973.101 967.813,815.882 968.334,816.117 968.856,790.754 969.377,791.025 969.899,873.926 970.42,874.019 970.942,835.908 971.463,836.002 971.984,785.883 972.506,785.979 973.027,754.584 973.549,754.833 974.07,702.415 974.592,702.616 975.113,789.601 975.635,789.735 976.156,794.555 976.677,794.686 977.199,732.346 977.72,732.508 978.242,569.844 978.763,570.006 979.285,707.327 979.806,707.522 980.327,831.006 980.849,831.079 981.37,705.284 981.892,705.444 982.413,623.224 982.935,623.37 983.456,893.98 983.978,894.071 984.499,850.642 985.02,850.779 985.542,728.999 986.063,729.109 986.585,770.839 987.106,771.068 987.628,878.291 988.149,878.446 988.67,805.802 989.192,805.936 989.713,791.315 990.235,791.403 990.756,815.917 991.278,816.06 991.799,812.553 992.321,812.665 992.842,865.111 993.363,865.32 993.885,656.995 994.406,657.296 994.928,746.168 995.449,746.303 995.971,818.541 996.492,818.681 997.014,724.225 997.535,724.441 998.056,854.512 998.578,854.628 999.099,829.131 999.621,829.254 1000.14,671.096 1000.66,671.224 1001.19,708.194 1001.71,708.497 1002.23,821.012 1002.75,821.089 1003.27,742.818 1003.79,742.956 1004.31,828.84 1004.84,828.919 1005.36,447.871 1005.88,448.366 1006.4,809.065 1006.92,809.251 1007.44,611.414 1007.96,611.627 1008.49,708.368 1009.01,708.615 1009.53,742.251 1010.05,742.373 1010.57,696.193 1011.09,696.315 1011.61,767.259 1012.14,767.404 1012.66,834.988 1013.18,835.136 1013.7,903.067 1014.22,903.203 1014.74,870.523 1015.26,870.619 1015.79,851.899 1016.31,851.984 1016.83,769.867 1017.35,769.968 1017.87,796.406 1018.39,796.624 1018.91,589.923 1019.44,590.292 1019.96,636.612 1020.48,636.856 1021,883.541 1021.52,883.682 1022.04,813.615 1022.56,813.791 1023.09,707.179 1023.61,707.368 1024.13,882.696 1024.65,882.771 1025.17,726.608 1025.69,726.74 1026.21,520.067 1026.74,520.485 1027.26,804.099 1027.78,804.171 1028.3,773.928 1028.82,774.04 1029.34,554.894 1029.86,555.118 1030.39,658.195 1030.91,658.421 1031.43,936.825 1031.95,937.033 1032.47,618.34 1032.99,618.54 1033.51,716.505 1034.04,716.68 1034.56,648.565 1035.08,648.747 1035.6,784.48 1036.12,784.619 1036.64,839.232 1037.16,839.313 1037.69,716.284 1038.21,716.393 1038.73,792.831 1039.25,792.972 1039.77,582.826 1040.29,583.029 1040.81,644.552 1041.34,644.785 1041.86,832.918 1042.38,833.087 1042.9,576.799 1043.42,577.026 1043.94,864.711 1044.46,864.791 1044.99,687.334 1045.51,687.543 1046.03,654.447 1046.55,654.631 1047.07,620.529 1047.59,620.771 1048.11,661.803 1048.64,662.063 1049.16,773.745 1049.68,773.855 1050.2,891.099 1050.72,891.198 1051.24,711.114 1051.76,711.31 1052.29,801.717 1052.81,801.851 1053.33,790.913 1053.85,791.054 1054.37,702.21 1054.89,702.491 1055.41,762.671 1055.94,762.775 1056.46,922.191 1056.98,922.308 1057.5,998.098 1058.02,998.17 1058.54,810.83 1059.06,810.948 1059.59,600.264 1060.11,600.538 1060.63,712.852 1061.15,712.971 1061.67,722.744 1062.19,722.959 1062.71,789.725 1063.24,789.9 1063.76,781.965 1064.28,782.176 1064.8,708.442 1065.32,708.594 1065.84,605.025 1066.36,605.259 1066.89,730.583 1067.41,730.899 1067.93,805.775 1068.45,805.877 1068.97,812.267 1069.49,812.413 1070.02,784.39 1070.54,784.553 1071.06,809.198 1071.58,809.31 1072.1,887.777 1072.62,887.854 1073.14,907.954 1073.67,908.124 1074.19,715.564 1074.71,715.714 1075.23,818.375 1075.75,818.504 1076.27,738.21 1076.79,738.465 1077.32,756.457 1077.84,756.604 1078.36,844.445 1078.88,844.587 1079.4,787.771 1079.92,787.908 1080.44,740.708 1080.97,740.791 1081.49,653.437 1082.01,653.59 1082.53,875.864 1083.05,875.945 1083.57,637.718 1084.09,638.008 1084.62,781.573 1085.14,781.789 1085.66,787.381 1086.18,787.516 1086.7,696.76 1087.22,696.941 1087.74,674.497 1088.27,674.731 1088.79,702.044 1089.31,702.272 1089.83,614.187 1090.35,614.285 1090.87,790.56 1091.39,790.665 1091.92,791.342 1092.44,791.486 1092.96,830.674 1093.48,830.757 1094,548.124 1094.52,548.365 1095.04,500.574 1095.57,500.82 1096.09,596.121 1096.61,596.371 1097.13,658.914 1097.65,659.024 1098.17,638.596 1098.69,638.737 1099.22,672.976 1099.74,673.142 1100.26,859.759 1100.78,859.855 1101.3,708.293 1101.82,708.475 1102.34,746.948 1102.87,747.1 1103.39,942.9 1103.91,943.041 1104.43,684.158 1104.95,684.33 1105.47,885.502 1105.99,885.634 1106.52,746.805 1107.04,747.051 1107.56,778.046 1108.08,778.159 1108.6,700.828 1109.12,701.043 1109.64,676.418 1110.17,676.596 1110.69,651.355 1111.21,651.586 1111.73,733.829 1112.25,734.051 1112.77,801.86 1113.29,801.954 1113.82,770.077 1114.34,770.199 1114.86,641.175 1115.38,641.424 1115.9,847.71 1116.42,847.805 1116.94,879.609 1117.47,879.66 1117.99,718.449 1118.51,718.629 1119.03,841.945 1119.55,842.041 1120.07,495.73 1120.59,496.111 1121.12,557.975 1121.64,558.51 1122.16,662.331 1122.68,662.479 1123.2,749.151 1123.72,749.252 1124.24,805.559 1124.77,805.726 1125.29,583.239 1125.81,583.496 1126.33,682.454 1126.85,682.664 1127.37,632.115 1127.89,632.323 1128.42,797.13 1128.94,797.269 1129.46,834.76 1129.98,834.827 1130.5,676.916 1131.02,677.067 1131.54,753.238 1132.07,753.365 1132.59,735.375 1133.11,735.596 1133.63,727.351 1134.15,727.505 1134.67,669.364 1135.19,669.504 1135.72,492.48 1136.24,492.739 1136.76,763.773 1137.28,763.922 1137.8,849.657 1138.32,849.786 1138.85,666.506 1139.37,666.622 1139.89,716.054 1140.41,716.209 1140.93,741.875 1141.45,742.027 1141.97,561.906 1142.5,562.111 1143.02,734.243 1143.54,734.422 1144.06,717.258 1144.58,717.343 1145.1,656.734 1145.62,656.921 1146.15,748.809 1146.67,748.95 1147.19,720.725 1147.71,720.917 1148.23,718.026 1148.75,718.228 1149.27,597.414 1149.8,597.539 1150.32,778.821 1150.84,778.924 1151.36,647.396 1151.88,647.57 1152.4,768.173 1152.92,768.307 1153.45,780.969 1153.97,781.146 1154.49,646.117 1155.01,646.318 1155.53,531.562 1156.05,531.803 1156.57,463.872 1157.1,464.195 1157.62,623.099 1158.14,623.359 1158.66,500.64 1159.18,500.903 1159.7,691.89 1160.22,692.186 1160.75,601.303 1161.27,601.543 1161.79,627.098 1162.31,627.311 1162.83,642.812 1163.35,643.081 1163.87,653.394 1164.4,653.57 1164.92,545.975 1165.44,546.179 1165.96,496.628 1166.48,496.88 1167,746.783 1167.52,746.91 1168.05,689.77 1168.57,689.942 1169.09,574.02 1169.61,574.148 1170.13,756.664 1170.65,756.862 1171.17,599.046 1171.7,599.163 1172.22,699.831 1172.74,699.962 1173.26,768.326 1173.78,768.472 1174.3,619.51 1174.82,619.752 1175.35,648.098 1175.87,648.234 1176.39,571.212 1176.91,571.375 1177.43,614.298 1177.95,614.489 1178.47,624.501 1179,624.651 1179.52,738.066 1180.04,738.237 1180.56,617.091 1181.08,617.258 1181.6,402.967 1182.12,403.299 1182.65,735.905 1183.17,736.053 1183.69,662.665 1184.21,662.779 1184.73,790.799 1185.25,790.947 1185.77,529.765 1186.3,529.984 1186.82,561.336 1187.34,561.485 1187.86,749.397 1188.38,749.489 1188.9,468.268 1189.42,468.535 1189.95,750.591 1190.47,750.706 1190.99,627.201 1191.51,627.369 1192.03,697.619 1192.55,697.764 1193.07,628.234 1193.6,628.421 1194.12,607.312 1194.64,607.519 1195.16,625.175 1195.68,625.39 1196.2,785.511 1196.72,785.563 1197.25,688.074 1197.77,688.253 1198.29,500.599 1198.81,500.868 1199.33,769.264 1199.85,769.397 1200.37,526.577 1200.9,526.916 1201.42,483.487 1201.94,483.705 1202.46,650.94 1202.98,651.117 1203.5,608.779 1204.02,608.927 1204.55,776.972 1205.07,777.072 1205.59,594.133 1206.11,594.327 1206.63,651.117 1207.15,651.281 1207.68,773.807 1208.2,773.927 1208.72,530.434 1209.24,530.689 1209.76,696.028 1210.28,696.177 1210.8,677.677 1211.33,677.818 1211.85,635.708 1212.37,635.857 1212.89,534.69 1213.41,534.932 1213.93,649.593 1214.45,649.794 1214.98,590.718 1215.5,590.89 1216.02,514.452 1216.54,514.694 1217.06,674.801 1217.58,674.902 1218.1,503.848 1218.63,504.157 1219.15,635.926 1219.67,636.195 1220.19,584.05 1220.71,584.244 1221.23,673.317 1221.75,673.402 1222.28,696.764 1222.8,696.945 1223.32,571.926 1223.84,572.136 1224.36,630.32 1224.88,630.603 1225.4,613.971 1225.93,614.227 1226.45,440.801 1226.97,441.089 1227.49,448.198 1228.01,448.493 1228.53,526.784 1229.05,527.001 1229.58,663.314 1230.1,663.486 1230.62,649.465 1231.14,649.555 1231.66,514.382 1232.18,514.733 1232.7,399.147 1233.23,399.403 1233.75,677.414 1234.27,677.612 1234.79,674.989 1235.31,675.175 1235.83,769.853 1236.35,769.989 1236.88,469.23 1237.4,469.56 1237.92,561.373 1238.44,561.679 1238.96,645.735 1239.48,645.91 1240,703.207 1240.53,703.301 1241.05,629.236 1241.57,629.441 1242.09,611.787 1242.61,611.949 1243.13,441.969 1243.65,442.256 1244.18,599.744 1244.7,599.889 1245.22,672.27 1245.74,672.397 1246.26,616.457 1246.78,616.634 1247.3,533.92 1247.83,534.066 1248.35,604.841 1248.87,604.898 1249.39,624.114 1249.91,624.25 1250.43,735.513 1250.95,735.61 1251.48,700.846 1252,700.989 1252.52,475.772 1253.04,475.948 1253.56,712.422 1254.08,712.56 1254.6,716.081 1255.13,716.173 1255.65,588.711 1256.17,588.936 1256.69,629.244 1257.21,629.398 1257.73,718.41 1258.25,718.606 1258.78,640.152 1259.3,640.27 1259.82,684.514 1260.34,684.75 1260.86,561.225 1261.38,561.436 1261.9,619.478 1262.43,619.646 1262.95,584.938 1263.47,585.064 1263.99,560.107 1264.51,560.248 1265.03,564.005 1265.55,564.221 1266.08,553.921 1266.6,554.139 1267.12,689.08 1267.64,689.296 1268.16,541.107 1268.68,541.271 1269.2,730.054 1269.73,730.188 1270.25,775.071 1270.77,775.129 1271.29,669.756 1271.81,669.964 1272.33,556.2 1272.85,556.402 1273.38,677.275 1273.9,677.484 1274.42,660.706 1274.94,660.829 1275.46,516.794 1275.98,517.083 1276.51,556.904 1277.03,557.028 1277.55,638.447 1278.07,638.568 1278.59,569.662 1279.11,569.835 1279.63,577.873 1280.16,577.964 1280.68,832.29 1281.2,832.485 1281.72,530.599 1282.24,530.807 1282.76,659.634 1283.28,659.714 1283.81,782.41 1284.33,782.497 1284.85,471.15 1285.37,471.441 1285.89,490.898 1286.41,491.171 1286.93,783.651 1287.46,783.911 1287.98,582.447 1288.5,582.627 1289.02,450.453 1289.54,450.608 1290.06,783.23 1290.58,783.362 1291.11,666.251 1291.63,666.437 1292.15,696.204 1292.67,696.359 1293.19,586.269 1293.71,586.48 1294.23,430.086 1294.76,430.3 1295.28,698.09 1295.8,698.183 1296.32,688.718 1296.84,688.94 1297.36,635.305 1297.88,635.442 1298.41,595.642 1298.93,595.757 1299.45,727.445 1299.97,727.624 1300.49,822.758 1301.01,822.869 1301.53,742.524 1302.06,742.701 1302.58,565.685 1303.1,565.881 1303.62,533.935 1304.14,534.168 1304.66,639.236 1305.18,639.366 1305.71,701.848 1306.23,701.954 1306.75,592.043 1307.27,592.185 1307.79,528.109 1308.31,528.436 1308.83,572.66 1309.36,572.936 1309.88,473.129 1310.4,473.344 1310.92,589.903 1311.44,590.147 1311.96,482.541 1312.48,482.787 1313.01,596.703 1313.53,597.016 1314.05,601.694 1314.57,601.873 1315.09,589.212 1315.61,589.512 1316.13,654.236 1316.66,654.502 1317.18,739.866 1317.7,740.136 1318.22,571.752 1318.74,571.973 1319.26,553.928 1319.78,554.15 1320.31,416.639 1320.83,416.979 1321.35,616.29 1321.87,616.57 1322.39,699.18 1322.91,699.354 1323.43,583.707 1323.96,583.881 1324.48,656.9 1325,657.117 1325.52,646.468 1326.04,646.571 1326.56,636.551 1327.08,636.659 1327.61,576.424 1328.13,576.569 1328.65,524.195 1329.17,524.384 1329.69,607.219 1330.21,607.368 1330.73,394.063 1331.26,394.315 1331.78,445.831 1332.3,446.083 1332.82,511.374 1333.34,511.548 1333.86,549.368 1334.38,549.553 1334.91,686.53 1335.43,686.659 1335.95,411.46 1336.47,411.651 1336.99,464.979 1337.51,465.211 1338.03,622.46 1338.56,622.615 1339.08,686.111 1339.6,686.227 1340.12,593.992 1340.64,594.208 1341.16,562.115 1341.68,562.233 1342.21,553.886 1342.73,554.161 1343.25,766.664 1343.77,766.792 1344.29,443.549 1344.81,443.767 1345.34,612.35 1345.86,612.512 1346.38,451.291 1346.9,451.537 1347.42,664.757 1347.94,664.897 1348.46,649.237 1348.99,649.356 1349.51,521.445 1350.03,521.777 1350.55,685.14 1351.07,685.301 1351.59,363.564 1352.11,363.903 1352.64,535.491 1353.16,535.626 1353.68,712.647 1354.2,712.733 1354.72,611.213 1355.24,611.375 1355.76,534.942 1356.29,535.261 1356.81,508.541 1357.33,508.737 1357.85,467.901 1358.37,468.255 1358.89,488.503 1359.41,488.671 1359.94,583.771 1360.46,583.962 1360.98,561.627 1361.5,561.881 1362.02,594.809 1362.54,594.994 1363.06,461.95 1363.59,462.133 1364.11,416.796 1364.63,417.23 1365.15,601.091 1365.67,601.203 1366.19,424.716 1366.71,424.92 1367.24,604.247 1367.76,604.317 1368.28,448.984 1368.8,449.193 1369.32,470.296 1369.84,470.575 1370.36,454.929 1370.89,455.125 1371.41,379.316 1371.93,379.587 1372.45,659.675 1372.97,659.851 1373.49,310.489 1374.01,310.893 1374.54,536.74 1375.06,536.871 1375.58,697.105 1376.1,697.214 1376.62,610.775 1377.14,610.975 1377.66,439.434 1378.19,439.561 1378.71,607.537 1379.23,607.612 1379.75,467.209 1380.27,467.449 1380.79,495.389 1381.31,495.505 1381.84,726.51 1382.36,726.647 1382.88,625.87 1383.4,626.021 1383.92,543.97 1384.44,544.135 1384.96,675.225 1385.49,675.443 1386.01,592.342 1386.53,592.513 1387.05,497.599 1387.57,497.787 1388.09,479.388 1388.61,479.578 1389.14,547.037 1389.66,547.171 1390.18,608.144 1390.7,608.343 1391.22,652.631 1391.74,652.768 1392.26,613.302 1392.79,613.429 1393.31,394.487 1393.83,394.671 1394.35,527.273 1394.87,527.553 1395.39,438.247 1395.91,438.427 1396.44,651.267 1396.96,651.421 1397.48,528.385 1398,528.531 1398.52,599.76 1399.04,599.95 1399.56,541.414 1400.09,541.719 1400.61,671.721 1401.13,671.796 1401.65,448.116 1402.17,448.498 1402.69,602.082 1403.21,602.284 1403.74,506.319 1404.26,506.494 1404.78,594.822 1405.3,595.036 1405.82,554.708 1406.34,554.863 1406.86,607.38 1407.39,607.492 1407.91,678.926 1408.43,679.009 1408.95,478.866 1409.47,479.155 1409.99,565.592 1410.51,565.769 1411.04,690.105 1411.56,690.281 1412.08,547.562 1412.6,547.71 1413.12,591.586 1413.64,591.719 1414.17,619.96 1414.69,620.051 1415.21,562.537 1415.73,562.694 1416.25,203.199 1416.77,203.522 1417.29,539.101 1417.82,539.267 1418.34,325.586 1418.86,325.831 1419.38,601.503 1419.9,601.808 1420.42,726.917 1420.94,726.985 1421.47,571.035 1421.99,571.232 1422.51,592.146 1423.03,592.335 1423.55,646.21 1424.07,646.368 1424.59,524.43 1425.12,524.513 1425.64,509.836 1426.16,510.032 1426.68,460.519 1427.2,460.752 1427.72,443.585 1428.24,443.894 1428.77,565.694 1429.29,565.889 1429.81,532.196 1430.33,532.409 1430.85,573.803 1431.37,573.976 1431.89,619.053 1432.42,619.173 1432.94,418.64 1433.46,418.768 1433.98,541.451 1434.5,541.572 1435.02,757.651 1435.54,757.757 1436.07,493.245 1436.59,493.367 1437.11,621.926 1437.63,622.034 1438.15,357.3 1438.67,357.572 1439.19,646.051 1439.72,646.113 1440.24,475.005 1440.76,475.127 1441.28,621.046 1441.8,621.192 1442.32,546.032 1442.84,546.129 1443.37,453.038 1443.89,453.298 1444.41,656.342 1444.93,656.618 1445.45,546.375 1445.97,546.494 1446.49,426.739 1447.02,426.962 1447.54,372.869 1448.06,373.148 1448.58,623.064 1449.1,623.15 1449.62,483.13 1450.14,483.364 1450.67,495.853 1451.19,496.082 1451.71,416.484 1452.23,416.906 1452.75,512.143 1453.27,512.3 1453.79,444.83 1454.32,445.025 1454.84,687.57 1455.36,687.755 1455.88,590.142 1456.4,590.249 1456.92,481.365 1457.44,481.548 1457.97,643.408 1458.49,643.572 1459.01,655.291 1459.53,655.428 1460.05,611.922 1460.57,612.035 1461.09,536.094 1461.62,536.229 1462.14,504.307 1462.66,504.472 1463.18,397.146 1463.7,397.316 1464.22,443.015 1464.74,443.198 1465.27,640.684 1465.79,640.845 1466.31,505.765 1466.83,505.93 1467.35,522.907 1467.87,523.1 1468.39,519.878 1468.92,520.195 1469.44,605.44 1469.96,605.53 1470.48,589.57 1471,589.708 1471.52,479.702 1472.04,479.83 1472.57,182.62 1473.09,182.887 1473.61,424.325 1474.13,424.612 1474.65,478.569 1475.17,478.702 1475.69,378.029 1476.22,378.397 1476.74,579.449 1477.26,579.59 1477.78,500.866 1478.3,501 1478.82,520.587 1479.34,520.805 1479.87,541.489 1480.39,541.67 1480.91,404.696 1481.43,404.961 1481.95,405.529 1482.47,405.861 1483,669.135 1483.52,669.328 1484.04,483.532 1484.56,483.748 1485.08,466.942 1485.6,467.124 1486.12,504.549 1486.65,504.653 1487.17,415.257 1487.69,415.45 1488.21,430.749 1488.73,431.086 1489.25,402.65 1489.77,402.964 1490.3,566.557 1490.82,566.679 1491.34,442.604 1491.86,442.856 1492.38,520.844 1492.9,521.007 1493.42,698.408 1493.95,698.464 1494.47,464.607 1494.99,464.808 1495.51,771.943 1496.03,772.035 1496.55,589.106 1497.07,589.247 1497.6,499.069 1498.12,499.234 1498.64,493.118 1499.16,493.298 1499.68,460.428 1500.2,460.674 1500.72,609.374 1501.25,609.469 1501.77,560.239 1502.29,560.424 1502.81,533.075 1503.33,533.302 1503.85,562.425 1504.37,562.624 1504.9,657.416 1505.42,657.59 1505.94,595.04 1506.46,595.281 1506.98,439.52 1507.5,439.727 1508.02,434.071 1508.55,434.356 1509.07,765.943 1509.59,766.058 1510.11,514.921 1510.63,515.082 1511.15,400.145 1511.67,400.442 1512.2,439.144 1512.72,439.417 1513.24,540.423 1513.76,540.626 1514.28,504.488 1514.8,504.607 1515.32,486.037 1515.85,486.215 1516.37,273.131 1516.89,273.455 1517.41,597.11 1517.93,597.326 1518.45,438.877 1518.97,439.039 1519.5,329.18 1520.02,329.458 1520.54,508.932 1521.06,509.206 1521.58,647.096 1522.1,647.171 1522.62,393.679 1523.15,393.874 1523.67,559.356 1524.19,559.55 1524.71,565.286 1525.23,565.37 1525.75,483.697 1526.27,483.925 1526.8,455.402 1527.32,455.623 1527.84,487.125 1528.36,487.252 1528.88,497.883 1529.4,498.011 1529.92,589.73 1530.45,589.812 1530.97,602.922 1531.49,603.093 1532.01,497.984 1532.53,498.143 1533.05,547.679 1533.57,547.821 1534.1,547.797 1534.62,547.95 1535.14,443.652 1535.66,443.784 1536.18,556.939 1536.7,557.156 1537.22,798.875 1537.75,799.029 1538.27,354.29 1538.79,354.426 1539.31,381.02 1539.83,381.384 1540.35,288.952 1540.87,289.23 1541.4,693.005 1541.92,693.073 1542.44,557.007 1542.96,557.21 1543.48,579.255 1544,579.368 1544.52,326.518 1545.05,326.737 1545.57,606.861 1546.09,606.894 1546.61,528.701 1547.13,528.85 1547.65,549.365 1548.17,549.454 1548.7,442.472 1549.22,442.678 1549.74,542.562 1550.26,542.656 1550.78,564.673 1551.3,564.797 1551.83,517.306 1552.35,517.438 1552.87,591.884 1553.39,591.992 1553.91,568.805 1554.43,568.92 1554.95,626.856 1555.48,626.952 1556,614.161 1556.52,614.329 1557.04,522.899 1557.56,523.074 1558.08,439.977 1558.6,440.134 1559.13,587.139 1559.65,587.298 1560.17,625.483 1560.69,625.812 1561.21,478.393 1561.73,478.557 1562.25,526.671 1562.78,526.825 1563.3,678.212 1563.82,678.407 1564.34,481.979 1564.86,482.177 1565.38,491.971 1565.9,492.125 1566.43,439.212 1566.95,439.411 1567.47,642.73 1567.99,642.817 1568.51,468.094 1569.03,468.226 1569.55,542.416 1570.08,542.672 1570.6,521.842 1571.12,521.977 1571.64,493.065 1572.16,493.172 1572.68,468.952 1573.2,469.174 1573.73,452.491 1574.25,452.656 1574.77,375.225 1575.29,375.485 1575.81,562.869 1576.33,563.02 1576.85,487.679 1577.38,487.894 1577.9,451.208 1578.42,451.343 1578.94,410.584 1579.46,410.878 1579.98,603.181 1580.5,603.331 1581.03,667.368 1581.55,667.473 1582.07,599 1582.59,599.234 1583.11,562.276 1583.63,562.477 1584.15,467.28 1584.68,467.519 1585.2,450.599 1585.72,450.866 1586.24,581.818 1586.76,582.05 1587.28,430.404 1587.8,430.58 1588.33,602.761 1588.85,602.905 1589.37,600.643 1589.89,600.809 1590.41,463.504 1590.93,463.75 1591.45,465.747 1591.98,465.979 1592.5,455.49 1593.02,455.669 1593.54,371.638 1594.06,371.974 1594.58,467.846 1595.1,467.979 1595.63,557.906 1596.15,558.079 1596.67,471.797 1597.19,471.933 1597.71,700.305 1598.23,700.434 1598.75,554.205 1599.28,554.343 1599.8,294.117 1600.32,294.328 1600.84,335.555 1601.36,335.851 1601.88,589.769 1602.4,589.956 1602.93,418.974 1603.45,419.204 1603.97,495.33 1604.49,495.572 1605.01,397.706 1605.53,397.93 1606.05,629.157 1606.58,629.325 1607.1,492.726 1607.62,492.994 1608.14,555.879 1608.66,555.998 1609.18,546.48 1609.7,546.669 1610.23,727.217 1610.75,727.282 1611.27,526.29 1611.79,526.469 1612.31,523.533 1612.83,523.696 1613.35,290.121 1613.88,290.299 1614.4,458.391 1614.92,458.57 1615.44,475.869 1615.96,476.028 1616.48,741.005 1617,741.059 1617.53,623.848 1618.05,623.974 1618.57,328.785 1619.09,328.952 1619.61,393.256 1620.13,393.412 1620.66,699.304 1621.18,699.396 1621.7,550.634 1622.22,550.787 1622.74,404.974 1623.26,405.257 1623.78,511.318 1624.31,511.444 1624.83,660.98 1625.35,661.081 1625.87,501.067 1626.39,501.258 1626.91,348.127 1627.43,348.37 1627.96,515.96 1628.48,516.229 1629,491.14 1629.52,491.234 1630.04,397.564 1630.56,397.852 1631.08,615.865 1631.61,616.028 1632.13,436.164 1632.65,436.353 1633.17,483.376 1633.69,483.535 1634.21,465.299 1634.73,465.515 1635.26,614.596 1635.78,614.748 1636.3,617.617 1636.82,617.694 1637.34,454.882 1637.86,455.134 1638.38,525.406 1638.91,525.532 1639.43,221.331 1639.95,221.696 1640.47,573.185 1640.99,573.37 1641.51,606.869 1642.03,606.978 1642.56,375.947 1643.08,376.148 1643.6,434.27 1644.12,434.442 1644.64,486.463 1645.16,486.689 1645.68,284.53 1646.21,284.84 1646.73,496.389 1647.25,496.648 1647.77,406.859 1648.29,407.251 1648.81,308.192 1649.33,308.491 1649.86,507.182 1650.38,507.255 1650.9,487.28 1651.42,487.47 1651.94,388.662 1652.46,388.984 1652.98,461.822 1653.51,462.092 1654.03,432.218 1654.55,432.325 1655.07,420.606 1655.59,420.846 1656.11,349.934 1656.63,350.129 1657.16,343.465 1657.68,343.877 1658.2,415.632 1658.72,415.863 1659.24,544.379 1659.76,544.495 1660.28,541.662 1660.81,541.784 1661.33,474.574 1661.85,474.844 1662.37,438.935 1662.89,439.204 1663.41,639.764 1663.93,639.885 1664.46,576.226 1664.98,576.418 1665.5,454.877 1666.02,455.12 1666.54,490.587 1667.06,490.778 1667.58,497.039 1668.11,497.139 1668.63,558.983 1669.15,559.243 1669.67,479.65 1670.19,479.849 1670.71,450.387 1671.23,450.56 1671.76,481.863 1672.28,482.041 1672.8,419.054 1673.32,419.277 1673.84,489.217 1674.36,489.384 1674.88,355.443 1675.41,355.62 1675.93,399.174 1676.45,399.444 1676.97,656.158 1677.49,656.226 1678.01,368.446 1678.53,368.668 1679.06,502.346 1679.58,502.505 1680.1,349.359 1680.62,349.508 1681.14,579.015 1681.66,579.161 1682.18,705.812 1682.71,706.051 1683.23,416.379 1683.75,416.555 1684.27,539.016 1684.79,539.234 1685.31,369.908 1685.83,370.14 1686.36,492.838 1686.88,492.987 1687.4,430.815 1687.92,431.117 1688.44,428.75 1688.96,428.941 1689.49,632.013 1690.01,632.273 1690.53,544.473 1691.05,544.655 1691.57,303.638 1692.09,303.768 1692.61,415.246 1693.14,415.587 1693.66,317.452 1694.18,317.722 1694.7,412.47 1695.22,412.625 1695.74,380.344 1696.26,380.614 1696.79,446.665 1697.31,446.871 1697.83,554.594 1698.35,554.75 1698.87,250.666 1699.39,251.009 1699.91,538.705 1700.44,538.83 1700.96,501.549 1701.48,501.704 1702,422.567 1702.52,422.818 1703.04,560.767 1703.56,561.054 1704.09,644.996 1704.61,645.125 1705.13,586.91 1705.65,587.009 1706.17,387.591 1706.69,387.777 1707.21,370.73 1707.74,371.009 1708.26,337.288 1708.78,337.678 1709.3,630.177 1709.82,630.292 1710.34,482.417 1710.86,482.643 1711.39,597 1711.91,597.108 1712.43,716.348 1712.95,716.478 1713.47,458.952 1713.99,459.188 1714.51,510.261 1715.04,510.4 1715.56,409.84 1716.08,410.067 1716.6,570.551 1717.12,570.696 1717.64,410.256 1718.16,410.476 1718.69,205.659 1719.21,205.937 1719.73,475.869 1720.25,476.025 1720.77,378.781 1721.29,378.983 1721.81,242.928 1722.34,243.202 1722.86,429.196 1723.38,429.392 1723.9,288.985 1724.42,289.276 1724.94,347.475 1725.46,347.693 1725.99,253.904 1726.51,254.358 1727.03,462.506 1727.55,462.62 1728.07,316.43 1728.59,316.62 1729.11,590.137 1729.64,590.312 1730.16,338.639 1730.68,338.84 1731.2,562.962 1731.72,563.09 1732.24,407.299 1732.76,407.407 1733.29,607.874 1733.81,608.088 1734.33,417.658 1734.85,417.838 1735.37,413.711 1735.89,413.952 1736.41,439.779 1736.94,439.948 1737.46,386.133 1737.98,386.333 1738.5,513.181 1739.02,513.328 1739.54,523.714 1740.06,523.855 1740.59,403.113 1741.11,403.309 1741.63,212.095 1742.15,212.437 1742.67,465.869 1743.19,466.09 1743.71,565.176 1744.24,565.259 1744.76,451.137 1745.28,451.375 1745.8,610.637 1746.32,610.8 1746.84,456.711 1747.36,456.972 1747.89,327.843 1748.41,328.082 1748.93,434.203 1749.45,434.323 1749.97,278.848 1750.49,279.054 1751.01,266.979 1751.54,267.293 1752.06,440.284 1752.58,440.423 1753.1,456.382 1753.62,456.573 1754.14,486.697 1754.66,486.821 1755.19,400.803 1755.71,400.987 1756.23,543.748 1756.75,543.872 1757.27,525.326 1757.79,525.424 1758.32,320.972 1758.84,321.228 1759.36,366.402 1759.88,366.518 1760.4,516.705 1760.92,516.854 1761.44,432.241 1761.97,432.413 1762.49,492.948 1763.01,493.075 1763.53,367.12 1764.05,367.343 1764.57,328.671 1765.09,328.846 1765.62,386.887 1766.14,387.044 1766.66,417.904 1767.18,418.079 1767.7,558.637 1768.22,558.793 1768.74,613.142 1769.27,613.247 1769.79,437.789 1770.31,437.988 1770.83,334.849 1771.35,335.092 1771.87,359.068 1772.39,359.244 1772.92,480.616 1773.44,480.842 1773.96,542.29 1774.48,542.466 1775,544.044 1775.52,544.09 1776.04,548.681 1776.57,548.782 1777.09,464.135 1777.61,464.262 1778.13,474.547 1778.65,474.672 1779.17,356.097 1779.69,356.169 1780.22,506.651 1780.74,506.757 1781.26,445.35 1781.78,445.644 1782.3,423.513 1782.82,423.571 1783.34,606.029 1783.87,606.145 1784.39,488.467 1784.91,488.604 1785.43,501.704 1785.95,501.779 1786.47,516.522 1786.99,516.621 1787.52,589.773 1788.04,590.091 1788.56,431.318 1789.08,431.565 1789.6,356.003 1790.12,356.386 1790.64,317.997 1791.17,318.334 1791.69,482.92 1792.21,483.103 1792.73,598.233 1793.25,598.44 1793.77,548.083 1794.29,548.32 1794.82,350.081 1795.34,350.202 1795.86,251.767 1796.38,251.912 1796.9,536.442 1797.42,536.661 1797.94,512.349 1798.47,512.486 1798.99,637.813 1799.51,637.943 1800.03,512.784 1800.55,512.894 1801.07,341.349 1801.59,341.538 1802.12,520.03 1802.64,520.303 1803.16,517.26 1803.68,517.411 1804.2,487.281 1804.72,487.444 1805.24,480.146 1805.77,480.373 1806.29,493.009 1806.81,493.172 1807.33,389.036 1807.85,389.319 1808.37,343.074 1808.89,343.385 1809.42,407.416 1809.94,407.565 1810.46,562.199 1810.98,562.275 1811.5,600.658 1812.02,600.851 1812.54,473.59 1813.07,473.751 1813.59,578.022 1814.11,578.148 1814.63,373.801 1815.15,373.915 1815.67,441.819 1816.19,441.968 1816.72,498.75 1817.24,498.914 1817.76,243.756 1818.28,243.911 1818.8,546.343 1819.32,546.502 1819.84,352.362 1820.37,352.593 1820.89,488.561 1821.41,488.847 1821.93,386.64 1822.45,386.817 1822.97,538.011 1823.49,538.144 1824.02,416.311 1824.54,416.424 1825.06,496.656 1825.58,496.823 1826.1,531.882 1826.62,532.008 1827.15,434.056 1827.67,434.162 1828.19,544.078 1828.71,544.168 1829.23,488.408 1829.75,488.559 1830.27,401.685 1830.8,401.888 1831.32,353.932 1831.84,354.119 1832.36,441.033 1832.88,441.26 1833.4,418.746 1833.92,418.881 1834.45,372.192 1834.97,372.491 1835.49,536.994 1836.01,537.091 1836.53,524.5 1837.05,524.629 1837.57,597.362 1838.1,597.477 1838.62,403.681 1839.14,403.801 1839.66,549.17 1840.18,549.281 1840.7,505.34 1841.22,505.588 1841.75,306.812 1842.27,307.236 1842.79,485.477 1843.31,485.658 1843.83,513.553 1844.35,513.728 1844.87,545.416 1845.4,545.547 1845.92,218.969 1846.44,219.318 1846.96,505.733 1847.48,505.89 1848,364.126 1848.52,364.334 1849.05,559.677 1849.57,559.785 1850.09,436.379 1850.61,436.483 1851.13,409.001 1851.65,409.187 1852.17,357.507 1852.7,357.676 1853.22,303.759 1853.74,303.976 1854.26,412.066 1854.78,412.23 1855.3,332.016 1855.82,332.261 1856.35,401.604 1856.87,401.727 1857.39,605.889 1857.91,606.039 1858.43,445.762 1858.95,446.082 1859.47,468.243 1860,468.362 1860.52,388.843 1861.04,389.029 1861.56,421.658 1862.08,422.065 1862.6,525.441 1863.12,525.609 1863.65,395.252 1864.17,395.515 1864.69,497.537 1865.21,497.646 1865.73,319.491 1866.25,319.782 1866.77,462.117 1867.3,462.334 1867.82,246.766 1868.34,246.944 1868.86,498.122 1869.38,498.332 1869.9,498.288 1870.42,498.401 1870.95,540.024 1871.47,540.19 1871.99,265.036 1872.51,265.33 1873.03,157.742 1873.55,158.113 1874.07,103.348 1874.6,103.786 1875.12,340.178 1875.64,340.407 1876.16,435.093 1876.68,435.305 1877.2,361.275 1877.72,361.531 1878.25,296.025 1878.77,296.192 1879.29,366.977 1879.81,367.125 1880.33,547.409 1880.85,547.464 1881.37,410.714 1881.9,411.014 1882.42,542.807 1882.94,543.052 1883.46,457.287 1883.98,457.561 1884.5,306.702 1885.02,307.005 1885.55,482.179 1886.07,482.32 1886.59,426.636 1887.11,426.891 1887.63,641.554 1888.15,641.645 1888.67,522.96 1889.2,523.335 1889.72,538.929 1890.24,539 1890.76,490.337 1891.28,490.436 1891.8,467.924 1892.32,468.049 1892.85,490.843 1893.37,490.958 1893.89,432.33 1894.41,432.473 1894.93,322.714 1895.45,322.842 1895.98,482.248 1896.5,482.351 1897.02,528.298 1897.54,528.495 1898.06,351.399 1898.58,351.586 1899.1,339.088 1899.63,339.313 1900.15,466.982 1900.67,467.07 1901.19,599.835 1901.71,599.935 1902.23,259.899 1902.75,260.131 1903.28,499.368 1903.8,499.479 1904.32,477.04 1904.84,477.167 1905.36,486.022 1905.88,486.126 1906.4,352.037 1906.93,352.226 1907.45,312.136 1907.97,312.516 1908.49,427.319 1909.01,427.516 1909.53,473.708 1910.05,473.908 1910.58,324.204 1911.1,324.396 1911.62,457.446 1912.14,457.643 1912.66,455.612 1913.18,455.788 1913.7,402.407 1914.23,402.569 1914.75,180.958 1915.27,181.318 1915.79,464.823 1916.31,464.942 1916.83,525.93 1917.35,526.053 1917.88,456.013 1918.4,456.116 1918.92,477.634 1919.44,477.742 1919.96,353.07 1920.48,353.249 1921,438.829 1921.53,438.912 1922.05,405.975 1922.57,406.084 1923.09,529.405 1923.61,529.579 1924.13,492.675 1924.65,492.877 1925.18,482.109 1925.7,482.276 1926.22,421.627 1926.74,421.901 1927.26,213.36 1927.78,213.616 1928.3,242.584 1928.83,242.843 1929.35,87.9763 1929.87,88.265 1930.39,313.135 1930.91,313.343 1931.43,420.983 1931.95,421.142 1932.48,305.281 1933,305.527 1933.52,600.811 1934.04,600.907 1934.56,271.1 1935.08,271.49 1935.6,472.681 1936.13,472.752 1936.65,335.425 1937.17,335.705 1937.69,521.537 1938.21,521.633 1938.73,569.848 1939.25,569.922 1939.78,313.558 1940.3,313.838 1940.82,332.391 1941.34,332.627 1941.86,262.643 1942.38,263.044 1942.9,437.948 1943.43,438.105 1943.95,434.397 1944.47,434.651 1944.99,629.289 1945.51,629.366 1946.03,366.622 1946.55,366.925 1947.08,298.502 1947.6,298.748 1948.12,267.125 1948.64,267.38 1949.16,480.057 1949.68,480.283 1950.2,386.344 1950.73,386.468 1951.25,452.339 1951.77,452.547 1952.29,227.138 1952.81,227.356 1953.33,435.044 1953.85,435.298 1954.38,335.147 1954.9,335.329 1955.42,399.319 1955.94,399.575 1956.46,231.001 1956.98,231.21 1957.5,504.388 1958.03,504.557 1958.55,543.799 1959.07,544.017 1959.59,323.779 1960.11,323.969 1960.63,526.577 1961.15,526.726 1961.68,364.035 1962.2,364.299 1962.72,465.38 1963.24,465.459 1963.76,480.668 1964.28,480.811 1964.81,458.234 1965.33,458.472 1965.85,260.585 1966.37,260.823 1966.89,336.473 1967.41,336.706 1967.93,273.407 1968.46,273.601 1968.98,483.938 1969.5,484.186 1970.02,186.014 1970.54,186.367 1971.06,412.813 1971.58,412.93 1972.11,289.245 1972.63,289.453 1973.15,539.96 1973.67,540.108 1974.19,422.313 1974.71,422.542 1975.23,395.666 1975.76,395.859 1976.28,391.978 1976.8,392.192 1977.32,277.939 1977.84,278.133 1978.36,576.837 1978.88,577.12 1979.41,530.04 1979.93,530.183 1980.45,450.938 1980.97,451.116 1981.49,407.828 1982.01,407.956 1982.53,329.909 1983.06,330.177 1983.58,452.205 1984.1,452.424 1984.62,130.101 1985.14,130.408 1985.66,233.594 1986.18,233.945 1986.71,335.368 1987.23,335.588 1987.75,349.218 1988.27,349.47 1988.79,473.602 1989.31,473.891 1989.83,460.5 1990.36,460.564 1990.88,535.484 1991.4,535.584 1991.92,386.616 1992.44,386.731 1992.96,629.814 1993.48,629.881 1994.01,371.739 1994.53,371.944 1995.05,450.33 1995.57,450.492 1996.09,513.572 1996.61,513.655 1997.13,567.633 1997.66,567.824 1998.18,586.3 1998.7,586.475 1999.22,398.535 1999.74,398.722 2000.26,453.707 2000.78,453.871 2001.31,393.868 2001.83,394.13 2002.35,305.44 2002.87,305.614 2003.39,342.586 2003.91,342.792 2004.43,390.11 2004.96,390.302 2005.48,381.745 2006,382.042 2006.52,376.59 2007.04,376.82 2007.56,450.12 2008.08,450.238 2008.61,258.092 2009.13,258.317 2009.65,216.346 2010.17,216.632 2010.69,316.219 2011.21,316.444 2011.73,249.319 2012.26,249.539 2012.78,165.38 2013.3,165.642 2013.82,488.44 2014.34,488.641 2014.86,256.5 2015.38,256.699 2015.91,264.921 2016.43,265.094 2016.95,261.259 2017.47,261.445 2017.99,324.745 2018.51,324.909 2019.03,385.953 2019.56,386.129 2020.08,461.915 2020.6,462.159 2021.12,281.765 2021.64,281.967 2022.16,221.415 2022.68,221.74 2023.21,350.089 2023.73,350.289 2024.25,436.221 2024.77,436.389 2025.29,335.417 2025.81,335.598 2026.33,357.58 2026.86,357.735 2027.38,511.66 2027.9,511.754 2028.42,511.125 2028.94,511.435 2029.46,373.139 2029.98,373.267 2030.51,505.509 2031.03,505.865 2031.55,422.377 2032.07,422.445 2032.59,484.127 2033.11,484.203 2033.64,546.666 2034.16,546.942 2034.68,375.08 2035.2,375.349 2035.72,413.859 2036.24,414.113 2036.76,291.953 2037.29,292.354 2037.81,310.554 2038.33,310.822 2038.85,302.236 2039.37,302.66 2039.89,536.869 2040.41,536.969 2040.94,772.865 2041.46,772.924 2041.98,453.987 2042.5,454.14 2043.02,480.418 2043.54,480.626 2044.06,540.349 2044.59,540.451 2045.11,494.675 2045.63,494.882 2046.15,302.834 2046.67,303.14 2047.19,421.519 2047.71,421.745 2048.24,398.183 2048.76,398.347 2049.28,476.59 2049.8,476.797 2050.32,445.453 2050.84,445.611 2051.36,381.5 2051.89,381.675 2052.41,304 2052.93,304.187 2053.45,361.386 2053.97,361.686 2054.49,507.938 2055.01,508.06 2055.54,559.799 2056.06,559.893 2056.58,410.887 2057.1,411.148 2057.62,451.883 2058.14,451.961 2058.66,530.593 2059.19,530.702 2059.71,568.549 2060.23,568.682 2060.75,480.483 2061.27,480.61 2061.79,438.716 2062.31,438.88 2062.84,396.587 2063.36,396.753 2063.88,623.766 2064.4,623.982 2064.92,563.69 2065.44,563.843 2065.96,505.134 2066.49,505.241 2067.01,481.256 2067.53,481.334 2068.05,364.161 2068.57,364.404 2069.09,375.348 2069.61,375.591 2070.14,374.818 2070.66,375.024 2071.18,294.063 2071.7,294.197 2072.22,290.461 2072.74,290.613 2073.26,353.57 2073.79,353.849 2074.31,667.687 2074.83,667.734 2075.35,574.322 2075.87,574.417 2076.39,385.121 2076.91,385.329 2077.44,407.173 2077.96,407.363 2078.48,323.362 2079,323.625 2079.52,292.057 2080.04,292.339 2080.56,430.414 2081.09,430.563 2081.61,463.779 2082.13,463.887 2082.65,404.312 2083.17,404.524 2083.69,492.084 2084.21,492.243 2084.74,388.773 2085.26,388.964 2085.78,551.205 2086.3,551.424 2086.82,238.688 2087.34,238.878 2087.86,548.324 2088.39,548.37 2088.91,428.805 2089.43,429.047 2089.95,389.702 2090.47,389.901 2090.99,362.654 2091.51,362.93 2092.04,378.544 2092.56,378.785 2093.08,502.002 2093.6,502.056 2094.12,379.003 2094.64,379.239 2095.16,507.916 2095.69,507.995 2096.21,319.546 2096.73,319.801 2097.25,510.504 2097.77,510.701 2098.29,492.75 2098.81,492.914 2099.34,505.233 2099.86,505.346 2100.38,273.129 2100.9,273.389 2101.42,458.708 2101.94,458.994 2102.47,400.307 2102.99,400.408 2103.51,474.835 2104.03,474.958 2104.55,500.888 2105.07,500.988 2105.59,521.964 2106.12,522.259 2106.64,367.103 2107.16,367.323 2107.68,330.6 2108.2,330.858 2108.72,409.107 2109.24,409.39 2109.77,576.141 2110.29,576.339 2110.81,556.531 2111.33,556.683 2111.85,607.418 2112.37,607.549 2112.89,567.374 2113.42,567.451 2113.94,555.399 2114.46,555.504 2114.98,458.729 2115.5,458.836 2116.02,401.077 2116.54,401.48 2117.07,519.344 2117.59,519.497 2118.11,484.917 2118.63,485.075 2119.15,492.619 2119.67,492.815 2120.19,473.638 2120.72,473.796 2121.24,502.21 2121.76,502.283 2122.28,290.64 2122.8,290.874 2123.32,529.862 2123.84,529.946 2124.37,149.164 2124.89,149.506 2125.41,470.638 2125.93,470.815 2126.45,552.695 2126.97,552.846 2127.49,420.397 2128.02,420.604 2128.54,319.853 2129.06,320.068 2129.58,293.115 2130.1,293.38 2130.62,267.93 2131.14,268.077 2131.67,464.832 2132.19,464.989 2132.71,498.498 2133.23,498.612 2133.75,435.888 2134.27,436.055 2134.79,294.242 2135.32,294.518 2135.84,522.363 2136.36,522.524 2136.88,455.889 2137.4,456.011 2137.92,251.612 2138.44,251.867 2138.97,355.121 2139.49,355.321 2140.01,262.171 2140.53,262.365 2141.05,501.128 2141.57,501.243 2142.09,324.515 2142.62,324.795 2143.14,280.308 2143.66,280.528 2144.18,430.354 2144.7,430.555 2145.22,544.225 2145.74,544.318 2146.27,460.945 2146.79,461.034 2147.31,375.491 2147.83,375.695 2148.35,237.185 2148.87,237.391 2149.39,362.08 2149.92,362.227 2150.44,466.239 2150.96,466.365 2151.48,304.942 2152,305.173 2152.52,467.557 2153.04,467.719 2153.57,262.887 2154.09,263.077 2154.61,445.308 2155.13,445.541 2155.65,459.602 2156.17,459.682 2156.69,521.137 2157.22,521.348 2157.74,435.167 2158.26,435.337 2158.78,665.775 2159.3,665.944 2159.82,378.344 2160.34,378.584 2160.87,564.414 2161.39,564.577 2161.91,466.103 2162.43,466.319 2162.95,362.313 2163.47,362.45 2163.99,414.356 2164.52,414.512 2165.04,247.544 2165.56,247.801 2166.08,438.388 2166.6,438.614 2167.12,462.464 2167.64,462.608 2168.17,456.002 2168.69,456.157 2169.21,471.832 2169.73,472.017 2170.25,348.77 2170.77,349.02 2171.3,397.073 2171.82,397.262 2172.34,483.994 2172.86,484.158 2173.38,274.802 2173.9,275.068 2174.42,397.53 2174.95,397.696 2175.47,457.476 2175.99,457.553 2176.51,436.361 2177.03,436.467 2177.55,657.556 2178.07,657.667 2178.6,110.62 2179.12,110.964 2179.64,496.851 2180.16,496.992 2180.68,487.337 2181.2,487.492 2181.72,189.807 2182.25,190.02 2182.77,498.636 2183.29,498.797 2183.81,421.408 2184.33,421.568 2184.85,390.959 2185.37,391.112 2185.9,250.624 2186.42,250.935 2186.94,533.7 2187.46,533.775 2187.98,264.417 2188.5,264.621 2189.02,296.206 2189.55,296.402 2190.07,400.639 2190.59,400.789 2191.11,282.864 2191.63,283.167 2192.15,398.605 2192.67,398.852 2193.2,445.095 2193.72,445.196 2194.24,512.521 2194.76,512.725 2195.28,95.6381 2195.8,96.0902 2196.32,582.813 2196.85,582.895 2197.37,345.019 2197.89,345.23 2198.41,431.237 2198.93,431.486 2199.45,522.611 2199.97,522.757 2200.5,346.481 2201.02,346.65 2201.54,432.256 2202.06,432.549 2202.58,287.888 2203.1,288.054 2203.62,417.078 2204.15,417.189 2204.67,497.228 2205.19,497.397 2205.71,403.123 2206.23,403.31 2206.75,400.323 2207.27,400.512 2207.8,189.28 2208.32,189.623 2208.84,578.167 2209.36,578.287 2209.88,412.963 2210.4,413.065 2210.92,186.606 2211.45,186.958 2211.97,406.51 2212.49,406.652 2213.01,468.185 2213.53,468.343 2214.05,267.649 2214.57,267.934 2215.1,240.619 2215.62,240.946 2216.14,408.881 2216.66,409.084 2217.18,329.646 2217.7,330.028 2218.22,173.812 2218.75,174.145 2219.27,333.208 2219.79,333.54 2220.31,341.737 2220.83,341.884 2221.35,369.182 2221.87,369.396 2222.4,226.762 2222.92,227.009 2223.44,554.727 2223.96,554.906 2224.48,492.864 2225,493.01 2225.52,473.509 2226.05,473.605 2226.57,483.776 2227.09,483.896 2227.61,440.703 2228.13,440.952 2228.65,535.514 2229.17,535.637 2229.7,405.516 2230.22,405.696 2230.74,255.008 2231.26,255.321 2231.78,316.21 2232.3,316.444 2232.82,534.646 2233.35,534.848 2233.87,344.205 2234.39,344.361 2234.91,424.736 2235.43,424.889 2235.95,383.478 2236.47,383.742 2237,504.446 2237.52,504.69 2238.04,405.631 2238.56,405.791 2239.08,417.482 2239.6,417.663 2240.12,300.31 2240.65,300.594 2241.17,426.548 2241.69,426.735 2242.21,305.771 2242.73,305.922 2243.25,306.153 2243.78,306.407 2244.3,363.67 2244.82,363.909 2245.34,288.305 2245.86,288.44 2246.38,325.233 2246.9,325.361 2247.43,360.104 2247.95,360.219 2248.47,425.038 2248.99,425.176 2249.51,591.61 2250.03,591.657 2250.55,297.556 2251.08,297.829 2251.6,417.503 2252.12,417.742 2252.64,264.486 2253.16,264.703 2253.68,387.744 2254.2,387.827 2254.73,378.06 2255.25,378.113 2255.77,320.412 2256.29,320.627 2256.81,276.378 2257.33,276.654 2257.85,428.753 2258.38,428.821 2258.9,272.348 2259.42,272.515 2259.94,491.095 2260.46,491.226 2260.98,327.242 2261.5,327.41 2262.03,339.151 2262.55,339.312 2263.07,327.357 2263.59,327.558 2264.11,399.433 2264.63,399.711 2265.15,431.583 2265.68,431.836 2266.2,501.09 2266.72,501.198 2267.24,201.149 2267.76,201.442 2268.28,480.367 2268.8,480.462 2269.33,230.297 2269.85,230.635 2270.37,341.116 2270.89,341.205 2271.41,370.265 2271.93,370.448 2272.45,191.545 2272.98,191.844 2273.5,244.429 2274.02,244.539 2274.54,364.963 2275.06,365.122 2275.58,557.689 2276.1,557.837 2276.63,324.281 2277.15,324.475 2277.67,427.08 2278.19,427.342 2278.71,363.05 2279.23,363.301 2279.75,263.245 2280.28,263.464 2280.8,376.897 2281.32,377.093 2281.84,480.851 2282.36,480.952 2282.88,557.281 2283.4,557.431 2283.93,259.231 2284.45,259.472 2284.97,347.061 2285.49,347.23 2286.01,392.368 2286.53,392.527 2287.05,575.041 2287.58,575.226 2288.1,523.247 2288.62,523.372 2289.14,600.66 2289.66,600.722 2290.18,600.783 "/>
<path clip-path="url(#clip870)" d="M215.55 198.898 L489.07 198.898 L489.07 95.2176 L215.55 95.2176  Z" fill="#ffffff" fill-rule="evenodd" fill-opacity="1"/>
<polyline clip-path="url(#clip870)" style="stroke:#000000; stroke-linecap:round; stroke-linejoin:round; stroke-width:4; stroke-opacity:1; fill:none" points="215.55,198.898 489.07,198.898 489.07,95.2176 215.55,95.2176 215.55,198.898 "/>
<polyline clip-path="url(#clip870)" style="stroke:#009af9; stroke-linecap:round; stroke-linejoin:round; stroke-width:4; stroke-opacity:1; fill:none" points="240.115,147.058 387.509,147.058 "/>
<path clip-path="url(#clip870)" d="M425.917 166.745 Q424.111 171.375 422.398 172.787 Q420.685 174.199 417.815 174.199 L414.412 174.199 L414.412 170.634 L416.912 170.634 Q418.672 170.634 419.644 169.8 Q420.616 168.967 421.797 165.865 L422.56 163.921 L412.074 138.412 L416.588 138.412 L424.69 158.689 L432.792 138.412 L437.306 138.412 L425.917 166.745 Z" fill="#000000" fill-rule="nonzero" fill-opacity="1" /><path clip-path="url(#clip870)" d="M444.597 160.402 L452.236 160.402 L452.236 134.037 L443.926 135.703 L443.926 131.444 L452.19 129.778 L456.866 129.778 L456.866 160.402 L464.505 160.402 L464.505 164.338 L444.597 164.338 L444.597 160.402 Z" fill="#000000" fill-rule="nonzero" fill-opacity="1" /></svg>
