<?xml version="1.0" encoding="utf-8"?>
<svg xmlns="http://www.w3.org/2000/svg" xmlns:xlink="http://www.w3.org/1999/xlink" width="600" height="400" viewBox="0 0 2400 1600">
<defs>
  <clipPath id="clip720">
    <rect x="0" y="0" width="2400" height="1600"/>
  </clipPath>
</defs>
<path clip-path="url(#clip720)" d="M0 1600 L2400 1600 L2400 0 L0 0  Z" fill="#ffffff" fill-rule="evenodd" fill-opacity="1"/>
<defs>
  <clipPath id="clip721">
    <rect x="480" y="0" width="1681" height="1600"/>
  </clipPath>
</defs>
<path clip-path="url(#clip720)" d="M209.515 1486.45 L2352.76 1486.45 L2352.76 47.2441 L209.515 47.2441  Z" fill="#ffffff" fill-rule="evenodd" fill-opacity="1"/>
<defs>
  <clipPath id="clip722">
    <rect x="209" y="47" width="2144" height="1440"/>
  </clipPath>
</defs>
<polyline clip-path="url(#clip722)" style="stroke:#000000; stroke-linecap:round; stroke-linejoin:round; stroke-width:2; stroke-opacity:0.1; fill:none" points="270.172,1486.45 270.172,47.2441 "/>
<polyline clip-path="url(#clip722)" style="stroke:#000000; stroke-linecap:round; stroke-linejoin:round; stroke-width:2; stroke-opacity:0.1; fill:none" points="775.654,1486.45 775.654,47.2441 "/>
<polyline clip-path="url(#clip722)" style="stroke:#000000; stroke-linecap:round; stroke-linejoin:round; stroke-width:2; stroke-opacity:0.1; fill:none" points="1281.14,1486.45 1281.14,47.2441 "/>
<polyline clip-path="url(#clip722)" style="stroke:#000000; stroke-linecap:round; stroke-linejoin:round; stroke-width:2; stroke-opacity:0.1; fill:none" points="1786.62,1486.45 1786.62,47.2441 "/>
<polyline clip-path="url(#clip722)" style="stroke:#000000; stroke-linecap:round; stroke-linejoin:round; stroke-width:2; stroke-opacity:0.1; fill:none" points="2292.1,1486.45 2292.1,47.2441 "/>
<polyline clip-path="url(#clip720)" style="stroke:#000000; stroke-linecap:round; stroke-linejoin:round; stroke-width:4; stroke-opacity:1; fill:none" points="209.515,1486.45 2352.76,1486.45 "/>
<polyline clip-path="url(#clip720)" style="stroke:#000000; stroke-linecap:round; stroke-linejoin:round; stroke-width:4; stroke-opacity:1; fill:none" points="270.172,1486.45 270.172,1467.55 "/>
<polyline clip-path="url(#clip720)" style="stroke:#000000; stroke-linecap:round; stroke-linejoin:round; stroke-width:4; stroke-opacity:1; fill:none" points="775.654,1486.45 775.654,1467.55 "/>
<polyline clip-path="url(#clip720)" style="stroke:#000000; stroke-linecap:round; stroke-linejoin:round; stroke-width:4; stroke-opacity:1; fill:none" points="1281.14,1486.45 1281.14,1467.55 "/>
<polyline clip-path="url(#clip720)" style="stroke:#000000; stroke-linecap:round; stroke-linejoin:round; stroke-width:4; stroke-opacity:1; fill:none" points="1786.62,1486.45 1786.62,1467.55 "/>
<polyline clip-path="url(#clip720)" style="stroke:#000000; stroke-linecap:round; stroke-linejoin:round; stroke-width:4; stroke-opacity:1; fill:none" points="2292.1,1486.45 2292.1,1467.55 "/>
<path clip-path="url(#clip720)" d="M270.172 1517.37 Q266.561 1517.37 264.733 1520.93 Q262.927 1524.47 262.927 1531.6 Q262.927 1538.71 264.733 1542.27 Q266.561 1545.82 270.172 1545.82 Q273.807 1545.82 275.612 1542.27 Q277.441 1538.71 277.441 1531.6 Q277.441 1524.47 275.612 1520.93 Q273.807 1517.37 270.172 1517.37 M270.172 1513.66 Q275.983 1513.66 279.038 1518.27 Q282.117 1522.85 282.117 1531.6 Q282.117 1540.33 279.038 1544.94 Q275.983 1549.52 270.172 1549.52 Q264.362 1549.52 261.284 1544.94 Q258.228 1540.33 258.228 1531.6 Q258.228 1522.85 261.284 1518.27 Q264.362 1513.66 270.172 1513.66 Z" fill="#000000" fill-rule="nonzero" fill-opacity="1" /><path clip-path="url(#clip720)" d="M735.272 1514.29 L753.628 1514.29 L753.628 1518.22 L739.554 1518.22 L739.554 1526.7 Q740.573 1526.35 741.592 1526.19 Q742.61 1526 743.629 1526 Q749.416 1526 752.795 1529.17 Q756.175 1532.34 756.175 1537.76 Q756.175 1543.34 752.703 1546.44 Q749.23 1549.52 742.911 1549.52 Q740.735 1549.52 738.467 1549.15 Q736.221 1548.78 733.814 1548.04 L733.814 1543.34 Q735.897 1544.47 738.119 1545.03 Q740.342 1545.58 742.818 1545.58 Q746.823 1545.58 749.161 1543.48 Q751.499 1541.37 751.499 1537.76 Q751.499 1534.15 749.161 1532.04 Q746.823 1529.94 742.818 1529.94 Q740.943 1529.94 739.068 1530.35 Q737.217 1530.77 735.272 1531.65 L735.272 1514.29 Z" fill="#000000" fill-rule="nonzero" fill-opacity="1" /><path clip-path="url(#clip720)" d="M775.388 1517.37 Q771.777 1517.37 769.948 1520.93 Q768.142 1524.47 768.142 1531.6 Q768.142 1538.71 769.948 1542.27 Q771.777 1545.82 775.388 1545.82 Q779.022 1545.82 780.827 1542.27 Q782.656 1538.71 782.656 1531.6 Q782.656 1524.47 780.827 1520.93 Q779.022 1517.37 775.388 1517.37 M775.388 1513.66 Q781.198 1513.66 784.253 1518.27 Q787.332 1522.85 787.332 1531.6 Q787.332 1540.33 784.253 1544.94 Q781.198 1549.52 775.388 1549.52 Q769.577 1549.52 766.499 1544.94 Q763.443 1540.33 763.443 1531.6 Q763.443 1522.85 766.499 1518.27 Q769.577 1513.66 775.388 1513.66 Z" fill="#000000" fill-rule="nonzero" fill-opacity="1" /><path clip-path="url(#clip720)" d="M805.549 1517.37 Q801.938 1517.37 800.11 1520.93 Q798.304 1524.47 798.304 1531.6 Q798.304 1538.71 800.11 1542.27 Q801.938 1545.82 805.549 1545.82 Q809.184 1545.82 810.989 1542.27 Q812.818 1538.71 812.818 1531.6 Q812.818 1524.47 810.989 1520.93 Q809.184 1517.37 805.549 1517.37 M805.549 1513.66 Q811.36 1513.66 814.415 1518.27 Q817.494 1522.85 817.494 1531.6 Q817.494 1540.33 814.415 1544.94 Q811.36 1549.52 805.549 1549.52 Q799.739 1549.52 796.661 1544.94 Q793.605 1540.33 793.605 1531.6 Q793.605 1522.85 796.661 1518.27 Q799.739 1513.66 805.549 1513.66 Z" fill="#000000" fill-rule="nonzero" fill-opacity="1" /><path clip-path="url(#clip720)" d="M1225.66 1544.91 L1233.3 1544.91 L1233.3 1518.55 L1224.99 1520.21 L1224.99 1515.95 L1233.25 1514.29 L1237.93 1514.29 L1237.93 1544.91 L1245.57 1544.91 L1245.57 1548.85 L1225.66 1548.85 L1225.66 1544.91 Z" fill="#000000" fill-rule="nonzero" fill-opacity="1" /><path clip-path="url(#clip720)" d="M1265.01 1517.37 Q1261.4 1517.37 1259.57 1520.93 Q1257.77 1524.47 1257.77 1531.6 Q1257.77 1538.71 1259.57 1542.27 Q1261.4 1545.82 1265.01 1545.82 Q1268.65 1545.82 1270.45 1542.27 Q1272.28 1538.71 1272.28 1531.6 Q1272.28 1524.47 1270.45 1520.93 Q1268.65 1517.37 1265.01 1517.37 M1265.01 1513.66 Q1270.82 1513.66 1273.88 1518.27 Q1276.96 1522.85 1276.96 1531.6 Q1276.96 1540.33 1273.88 1544.94 Q1270.82 1549.52 1265.01 1549.52 Q1259.2 1549.52 1256.12 1544.94 Q1253.07 1540.33 1253.07 1531.6 Q1253.07 1522.85 1256.12 1518.27 Q1259.2 1513.66 1265.01 1513.66 Z" fill="#000000" fill-rule="nonzero" fill-opacity="1" /><path clip-path="url(#clip720)" d="M1295.17 1517.37 Q1291.56 1517.37 1289.73 1520.93 Q1287.93 1524.47 1287.93 1531.6 Q1287.93 1538.71 1289.73 1542.27 Q1291.56 1545.82 1295.17 1545.82 Q1298.81 1545.82 1300.61 1542.27 Q1302.44 1538.71 1302.44 1531.6 Q1302.44 1524.47 1300.61 1520.93 Q1298.81 1517.37 1295.17 1517.37 M1295.17 1513.66 Q1300.98 1513.66 1304.04 1518.27 Q1307.12 1522.85 1307.12 1531.6 Q1307.12 1540.33 1304.04 1544.94 Q1300.98 1549.52 1295.17 1549.52 Q1289.36 1549.52 1286.29 1544.94 Q1283.23 1540.33 1283.23 1531.6 Q1283.23 1522.85 1286.29 1518.27 Q1289.36 1513.66 1295.17 1513.66 Z" fill="#000000" fill-rule="nonzero" fill-opacity="1" /><path clip-path="url(#clip720)" d="M1325.34 1517.37 Q1321.73 1517.37 1319.9 1520.93 Q1318.09 1524.47 1318.09 1531.6 Q1318.09 1538.71 1319.9 1542.27 Q1321.73 1545.82 1325.34 1545.82 Q1328.97 1545.82 1330.78 1542.27 Q1332.6 1538.71 1332.6 1531.6 Q1332.6 1524.47 1330.78 1520.93 Q1328.97 1517.37 1325.34 1517.37 M1325.34 1513.66 Q1331.15 1513.66 1334.2 1518.27 Q1337.28 1522.85 1337.28 1531.6 Q1337.28 1540.33 1334.2 1544.94 Q1331.15 1549.52 1325.34 1549.52 Q1319.53 1549.52 1316.45 1544.94 Q1313.39 1540.33 1313.39 1531.6 Q1313.39 1522.85 1316.45 1518.27 Q1319.53 1513.66 1325.34 1513.66 Z" fill="#000000" fill-rule="nonzero" fill-opacity="1" /><path clip-path="url(#clip720)" d="M1731.14 1544.91 L1738.78 1544.91 L1738.78 1518.55 L1730.47 1520.21 L1730.47 1515.95 L1738.74 1514.29 L1743.41 1514.29 L1743.41 1544.91 L1751.05 1544.91 L1751.05 1548.85 L1731.14 1548.85 L1731.14 1544.91 Z" fill="#000000" fill-rule="nonzero" fill-opacity="1" /><path clip-path="url(#clip720)" d="M1760.54 1514.29 L1778.9 1514.29 L1778.9 1518.22 L1764.82 1518.22 L1764.82 1526.7 Q1765.84 1526.35 1766.86 1526.19 Q1767.88 1526 1768.9 1526 Q1774.68 1526 1778.06 1529.17 Q1781.44 1532.34 1781.44 1537.76 Q1781.44 1543.34 1777.97 1546.44 Q1774.5 1549.52 1768.18 1549.52 Q1766 1549.52 1763.73 1549.15 Q1761.49 1548.78 1759.08 1548.04 L1759.08 1543.34 Q1761.17 1544.47 1763.39 1545.03 Q1765.61 1545.58 1768.09 1545.58 Q1772.09 1545.58 1774.43 1543.48 Q1776.77 1541.37 1776.77 1537.76 Q1776.77 1534.15 1774.43 1532.04 Q1772.09 1529.94 1768.09 1529.94 Q1766.21 1529.94 1764.34 1530.35 Q1762.48 1530.77 1760.54 1531.65 L1760.54 1514.29 Z" fill="#000000" fill-rule="nonzero" fill-opacity="1" /><path clip-path="url(#clip720)" d="M1800.66 1517.37 Q1797.04 1517.37 1795.22 1520.93 Q1793.41 1524.47 1793.41 1531.6 Q1793.41 1538.71 1795.22 1542.27 Q1797.04 1545.82 1800.66 1545.82 Q1804.29 1545.82 1806.1 1542.27 Q1807.92 1538.71 1807.92 1531.6 Q1807.92 1524.47 1806.1 1520.93 Q1804.29 1517.37 1800.66 1517.37 M1800.66 1513.66 Q1806.47 1513.66 1809.52 1518.27 Q1812.6 1522.85 1812.6 1531.6 Q1812.6 1540.33 1809.52 1544.94 Q1806.47 1549.52 1800.66 1549.52 Q1794.85 1549.52 1791.77 1544.94 Q1788.71 1540.33 1788.71 1531.6 Q1788.71 1522.85 1791.77 1518.27 Q1794.85 1513.66 1800.66 1513.66 Z" fill="#000000" fill-rule="nonzero" fill-opacity="1" /><path clip-path="url(#clip720)" d="M1830.82 1517.37 Q1827.21 1517.37 1825.38 1520.93 Q1823.57 1524.47 1823.57 1531.6 Q1823.57 1538.71 1825.38 1542.27 Q1827.21 1545.82 1830.82 1545.82 Q1834.45 1545.82 1836.26 1542.27 Q1838.09 1538.71 1838.09 1531.6 Q1838.09 1524.47 1836.26 1520.93 Q1834.45 1517.37 1830.82 1517.37 M1830.82 1513.66 Q1836.63 1513.66 1839.68 1518.27 Q1842.76 1522.85 1842.76 1531.6 Q1842.76 1540.33 1839.68 1544.94 Q1836.63 1549.52 1830.82 1549.52 Q1825.01 1549.52 1821.93 1544.94 Q1818.87 1540.33 1818.87 1531.6 Q1818.87 1522.85 1821.93 1518.27 Q1825.01 1513.66 1830.82 1513.66 Z" fill="#000000" fill-rule="nonzero" fill-opacity="1" /><path clip-path="url(#clip720)" d="M2240.71 1544.91 L2257.03 1544.91 L2257.03 1548.85 L2235.08 1548.85 L2235.08 1544.91 Q2237.75 1542.16 2242.33 1537.53 Q2246.94 1532.88 2248.12 1531.53 Q2250.36 1529.01 2251.24 1527.27 Q2252.14 1525.51 2252.14 1523.82 Q2252.14 1521.07 2250.2 1519.33 Q2248.28 1517.6 2245.18 1517.6 Q2242.98 1517.6 2240.52 1518.36 Q2238.09 1519.13 2235.32 1520.68 L2235.32 1515.95 Q2238.14 1514.82 2240.59 1514.24 Q2243.05 1513.66 2245.08 1513.66 Q2250.45 1513.66 2253.65 1516.35 Q2256.84 1519.03 2256.84 1523.52 Q2256.84 1525.65 2256.03 1527.57 Q2255.25 1529.47 2253.14 1532.07 Q2252.56 1532.74 2249.46 1535.95 Q2246.36 1539.15 2240.71 1544.91 Z" fill="#000000" fill-rule="nonzero" fill-opacity="1" /><path clip-path="url(#clip720)" d="M2276.84 1517.37 Q2273.23 1517.37 2271.4 1520.93 Q2269.6 1524.47 2269.6 1531.6 Q2269.6 1538.71 2271.4 1542.27 Q2273.23 1545.82 2276.84 1545.82 Q2280.48 1545.82 2282.28 1542.27 Q2284.11 1538.71 2284.11 1531.6 Q2284.11 1524.47 2282.28 1520.93 Q2280.48 1517.37 2276.84 1517.37 M2276.84 1513.66 Q2282.65 1513.66 2285.71 1518.27 Q2288.79 1522.85 2288.79 1531.6 Q2288.79 1540.33 2285.71 1544.94 Q2282.65 1549.52 2276.84 1549.52 Q2271.03 1549.52 2267.95 1544.94 Q2264.9 1540.33 2264.9 1531.6 Q2264.9 1522.85 2267.95 1518.27 Q2271.03 1513.66 2276.84 1513.66 Z" fill="#000000" fill-rule="nonzero" fill-opacity="1" /><path clip-path="url(#clip720)" d="M2307.01 1517.37 Q2303.39 1517.37 2301.57 1520.93 Q2299.76 1524.47 2299.76 1531.6 Q2299.76 1538.71 2301.57 1542.27 Q2303.39 1545.82 2307.01 1545.82 Q2310.64 1545.82 2312.45 1542.27 Q2314.27 1538.71 2314.27 1531.6 Q2314.27 1524.47 2312.45 1520.93 Q2310.64 1517.37 2307.01 1517.37 M2307.01 1513.66 Q2312.82 1513.66 2315.87 1518.27 Q2318.95 1522.85 2318.95 1531.6 Q2318.95 1540.33 2315.87 1544.94 Q2312.82 1549.52 2307.01 1549.52 Q2301.2 1549.52 2298.12 1544.94 Q2295.06 1540.33 2295.06 1531.6 Q2295.06 1522.85 2298.12 1518.27 Q2301.2 1513.66 2307.01 1513.66 Z" fill="#000000" fill-rule="nonzero" fill-opacity="1" /><path clip-path="url(#clip720)" d="M2337.17 1517.37 Q2333.56 1517.37 2331.73 1520.93 Q2329.92 1524.47 2329.92 1531.6 Q2329.92 1538.71 2331.73 1542.27 Q2333.56 1545.82 2337.17 1545.82 Q2340.8 1545.82 2342.61 1542.27 Q2344.44 1538.71 2344.44 1531.6 Q2344.44 1524.47 2342.61 1520.93 Q2340.8 1517.37 2337.17 1517.37 M2337.17 1513.66 Q2342.98 1513.66 2346.03 1518.27 Q2349.11 1522.85 2349.11 1531.6 Q2349.11 1540.33 2346.03 1544.94 Q2342.98 1549.52 2337.17 1549.52 Q2331.36 1549.52 2328.28 1544.94 Q2325.22 1540.33 2325.22 1531.6 Q2325.22 1522.85 2328.28 1518.27 Q2331.36 1513.66 2337.17 1513.66 Z" fill="#000000" fill-rule="nonzero" fill-opacity="1" /><polyline clip-path="url(#clip722)" style="stroke:#000000; stroke-linecap:round; stroke-linejoin:round; stroke-width:2; stroke-opacity:0.1; fill:none" points="209.515,1347.19 2352.76,1347.19 "/>
<polyline clip-path="url(#clip722)" style="stroke:#000000; stroke-linecap:round; stroke-linejoin:round; stroke-width:2; stroke-opacity:0.1; fill:none" points="209.515,1067.45 2352.76,1067.45 "/>
<polyline clip-path="url(#clip722)" style="stroke:#000000; stroke-linecap:round; stroke-linejoin:round; stroke-width:2; stroke-opacity:0.1; fill:none" points="209.515,787.7 2352.76,787.7 "/>
<polyline clip-path="url(#clip722)" style="stroke:#000000; stroke-linecap:round; stroke-linejoin:round; stroke-width:2; stroke-opacity:0.1; fill:none" points="209.515,507.955 2352.76,507.955 "/>
<polyline clip-path="url(#clip722)" style="stroke:#000000; stroke-linecap:round; stroke-linejoin:round; stroke-width:2; stroke-opacity:0.1; fill:none" points="209.515,228.209 2352.76,228.209 "/>
<polyline clip-path="url(#clip720)" style="stroke:#000000; stroke-linecap:round; stroke-linejoin:round; stroke-width:4; stroke-opacity:1; fill:none" points="209.515,1486.45 209.515,47.2441 "/>
<polyline clip-path="url(#clip720)" style="stroke:#000000; stroke-linecap:round; stroke-linejoin:round; stroke-width:4; stroke-opacity:1; fill:none" points="209.515,1347.19 228.412,1347.19 "/>
<polyline clip-path="url(#clip720)" style="stroke:#000000; stroke-linecap:round; stroke-linejoin:round; stroke-width:4; stroke-opacity:1; fill:none" points="209.515,1067.45 228.412,1067.45 "/>
<polyline clip-path="url(#clip720)" style="stroke:#000000; stroke-linecap:round; stroke-linejoin:round; stroke-width:4; stroke-opacity:1; fill:none" points="209.515,787.7 228.412,787.7 "/>
<polyline clip-path="url(#clip720)" style="stroke:#000000; stroke-linecap:round; stroke-linejoin:round; stroke-width:4; stroke-opacity:1; fill:none" points="209.515,507.955 228.412,507.955 "/>
<polyline clip-path="url(#clip720)" style="stroke:#000000; stroke-linecap:round; stroke-linejoin:round; stroke-width:4; stroke-opacity:1; fill:none" points="209.515,228.209 228.412,228.209 "/>
<path clip-path="url(#clip720)" d="M51.5708 1347.64 L81.2466 1347.64 L81.2466 1351.58 L51.5708 1351.58 L51.5708 1347.64 Z" fill="#000000" fill-rule="nonzero" fill-opacity="1" /><path clip-path="url(#clip720)" d="M95.3669 1360.54 L111.686 1360.54 L111.686 1364.47 L89.7419 1364.47 L89.7419 1360.54 Q92.4039 1357.78 96.9872 1353.15 Q101.594 1348.5 102.774 1347.16 Q105.02 1344.63 105.899 1342.9 Q106.802 1341.14 106.802 1339.45 Q106.802 1336.69 104.858 1334.96 Q102.936 1333.22 99.8345 1333.22 Q97.6354 1333.22 95.1817 1333.98 Q92.7512 1334.75 89.9734 1336.3 L89.9734 1331.58 Q92.7975 1330.44 95.2511 1329.86 Q97.7048 1329.29 99.7419 1329.29 Q105.112 1329.29 108.307 1331.97 Q111.501 1334.66 111.501 1339.15 Q111.501 1341.28 110.691 1343.2 Q109.904 1345.1 107.797 1347.69 Q107.219 1348.36 104.117 1351.58 Q101.015 1354.77 95.3669 1360.54 Z" fill="#000000" fill-rule="nonzero" fill-opacity="1" /><path clip-path="url(#clip720)" d="M120.32 1329.91 L142.543 1329.91 L142.543 1331.9 L129.996 1364.47 L125.112 1364.47 L136.918 1333.85 L120.32 1333.85 L120.32 1329.91 Z" fill="#000000" fill-rule="nonzero" fill-opacity="1" /><path clip-path="url(#clip720)" d="M161.663 1348.06 Q158.33 1348.06 156.408 1349.84 Q154.51 1351.62 154.51 1354.75 Q154.51 1357.87 156.408 1359.66 Q158.33 1361.44 161.663 1361.44 Q164.996 1361.44 166.917 1359.66 Q168.839 1357.85 168.839 1354.75 Q168.839 1351.62 166.917 1349.84 Q165.019 1348.06 161.663 1348.06 M156.987 1346.07 Q153.978 1345.33 152.288 1343.27 Q150.621 1341.21 150.621 1338.24 Q150.621 1334.1 153.561 1331.69 Q156.524 1329.29 161.663 1329.29 Q166.825 1329.29 169.765 1331.69 Q172.704 1334.1 172.704 1338.24 Q172.704 1341.21 171.015 1343.27 Q169.348 1345.33 166.362 1346.07 Q169.741 1346.85 171.616 1349.15 Q173.515 1351.44 173.515 1354.75 Q173.515 1359.77 170.436 1362.46 Q167.38 1365.14 161.663 1365.14 Q155.945 1365.14 152.867 1362.46 Q149.811 1359.77 149.811 1354.75 Q149.811 1351.44 151.709 1349.15 Q153.607 1346.85 156.987 1346.07 M155.274 1338.68 Q155.274 1341.37 156.941 1342.87 Q158.63 1344.38 161.663 1344.38 Q164.672 1344.38 166.362 1342.87 Q168.075 1341.37 168.075 1338.68 Q168.075 1336 166.362 1334.49 Q164.672 1332.99 161.663 1332.99 Q158.63 1332.99 156.941 1334.49 Q155.274 1336 155.274 1338.68 Z" fill="#000000" fill-rule="nonzero" fill-opacity="1" /><path clip-path="url(#clip720)" d="M51.3162 1067.9 L80.992 1067.9 L80.992 1071.83 L51.3162 1071.83 L51.3162 1067.9 Z" fill="#000000" fill-rule="nonzero" fill-opacity="1" /><path clip-path="url(#clip720)" d="M95.1123 1080.79 L111.432 1080.79 L111.432 1084.73 L89.4873 1084.73 L89.4873 1080.79 Q92.1493 1078.04 96.7326 1073.41 Q101.339 1068.75 102.52 1067.41 Q104.765 1064.89 105.645 1063.15 Q106.547 1061.39 106.547 1059.7 Q106.547 1056.95 104.603 1055.21 Q102.682 1053.48 99.5798 1053.48 Q97.3808 1053.48 94.9271 1054.24 Q92.4965 1055 89.7188 1056.55 L89.7188 1051.83 Q92.5428 1050.7 94.9965 1050.12 Q97.4502 1049.54 99.4872 1049.54 Q104.858 1049.54 108.052 1052.23 Q111.246 1054.91 111.246 1059.4 Q111.246 1061.53 110.436 1063.45 Q109.649 1065.35 107.543 1067.94 Q106.964 1068.61 103.862 1071.83 Q100.76 1075.03 95.1123 1080.79 Z" fill="#000000" fill-rule="nonzero" fill-opacity="1" /><path clip-path="url(#clip720)" d="M120.066 1050.17 L142.288 1050.17 L142.288 1052.16 L129.742 1084.73 L124.857 1084.73 L136.663 1054.1 L120.066 1054.1 L120.066 1050.17 Z" fill="#000000" fill-rule="nonzero" fill-opacity="1" /><path clip-path="url(#clip720)" d="M161.987 1065.58 Q158.839 1065.58 156.987 1067.73 Q155.158 1069.89 155.158 1073.64 Q155.158 1077.36 156.987 1079.54 Q158.839 1081.69 161.987 1081.69 Q165.135 1081.69 166.964 1079.54 Q168.816 1077.36 168.816 1073.64 Q168.816 1069.89 166.964 1067.73 Q165.135 1065.58 161.987 1065.58 M171.269 1050.93 L171.269 1055.19 Q169.51 1054.35 167.704 1053.92 Q165.922 1053.48 164.163 1053.48 Q159.533 1053.48 157.08 1056.6 Q154.649 1059.73 154.302 1066.04 Q155.667 1064.03 157.728 1062.97 Q159.788 1061.88 162.265 1061.88 Q167.473 1061.88 170.482 1065.05 Q173.515 1068.2 173.515 1073.64 Q173.515 1078.96 170.366 1082.18 Q167.218 1085.4 161.987 1085.4 Q155.992 1085.4 152.82 1080.81 Q149.649 1076.21 149.649 1067.48 Q149.649 1059.29 153.538 1054.42 Q157.427 1049.54 163.978 1049.54 Q165.737 1049.54 167.519 1049.89 Q169.325 1050.23 171.269 1050.93 Z" fill="#000000" fill-rule="nonzero" fill-opacity="1" /><path clip-path="url(#clip720)" d="M50.9921 788.151 L80.6679 788.151 L80.6679 792.086 L50.9921 792.086 L50.9921 788.151 Z" fill="#000000" fill-rule="nonzero" fill-opacity="1" /><path clip-path="url(#clip720)" d="M94.7882 801.045 L111.108 801.045 L111.108 804.98 L89.1632 804.98 L89.1632 801.045 Q91.8252 798.29 96.4085 793.661 Q101.015 789.008 102.196 787.665 Q104.441 785.142 105.321 783.406 Q106.223 781.647 106.223 779.957 Q106.223 777.202 104.279 775.466 Q102.358 773.73 99.2558 773.73 Q97.0567 773.73 94.603 774.494 Q92.1725 775.258 89.3947 776.809 L89.3947 772.087 Q92.2188 770.952 94.6724 770.374 Q97.1261 769.795 99.1632 769.795 Q104.534 769.795 107.728 772.48 Q110.922 775.165 110.922 779.656 Q110.922 781.786 110.112 783.707 Q109.325 785.605 107.219 788.198 Q106.64 788.869 103.538 792.086 Q100.436 795.281 94.7882 801.045 Z" fill="#000000" fill-rule="nonzero" fill-opacity="1" /><path clip-path="url(#clip720)" d="M119.742 770.42 L141.964 770.42 L141.964 772.411 L129.418 804.98 L124.533 804.98 L136.339 774.355 L119.742 774.355 L119.742 770.42 Z" fill="#000000" fill-rule="nonzero" fill-opacity="1" /><path clip-path="url(#clip720)" d="M163.931 774.494 L152.126 792.943 L163.931 792.943 L163.931 774.494 M162.704 770.42 L168.584 770.42 L168.584 792.943 L173.515 792.943 L173.515 796.832 L168.584 796.832 L168.584 804.98 L163.931 804.98 L163.931 796.832 L148.33 796.832 L148.33 792.318 L162.704 770.42 Z" fill="#000000" fill-rule="nonzero" fill-opacity="1" /><path clip-path="url(#clip720)" d="M53.0754 508.406 L82.7512 508.406 L82.7512 512.341 L53.0754 512.341 L53.0754 508.406 Z" fill="#000000" fill-rule="nonzero" fill-opacity="1" /><path clip-path="url(#clip720)" d="M96.8715 521.299 L113.191 521.299 L113.191 525.235 L91.2465 525.235 L91.2465 521.299 Q93.9086 518.545 98.4919 513.915 Q103.098 509.262 104.279 507.92 Q106.524 505.397 107.404 503.661 Q108.307 501.901 108.307 500.212 Q108.307 497.457 106.362 495.721 Q104.441 493.985 101.339 493.985 Q99.14 493.985 96.6863 494.749 Q94.2558 495.513 91.478 497.063 L91.478 492.341 Q94.3021 491.207 96.7558 490.628 Q99.2095 490.05 101.246 490.05 Q106.617 490.05 109.811 492.735 Q113.006 495.42 113.006 499.911 Q113.006 502.04 112.196 503.962 Q111.408 505.86 109.302 508.452 Q108.723 509.124 105.621 512.341 Q102.52 515.536 96.8715 521.299 Z" fill="#000000" fill-rule="nonzero" fill-opacity="1" /><path clip-path="url(#clip720)" d="M121.825 490.675 L144.047 490.675 L144.047 492.665 L131.501 525.235 L126.617 525.235 L138.422 494.61 L121.825 494.61 L121.825 490.675 Z" fill="#000000" fill-rule="nonzero" fill-opacity="1" /><path clip-path="url(#clip720)" d="M157.195 521.299 L173.515 521.299 L173.515 525.235 L151.57 525.235 L151.57 521.299 Q154.232 518.545 158.816 513.915 Q163.422 509.262 164.603 507.92 Q166.848 505.397 167.728 503.661 Q168.63 501.901 168.63 500.212 Q168.63 497.457 166.686 495.721 Q164.765 493.985 161.663 493.985 Q159.464 493.985 157.01 494.749 Q154.58 495.513 151.802 497.063 L151.802 492.341 Q154.626 491.207 157.08 490.628 Q159.533 490.05 161.57 490.05 Q166.941 490.05 170.135 492.735 Q173.329 495.42 173.329 499.911 Q173.329 502.04 172.519 503.962 Q171.732 505.86 169.626 508.452 Q169.047 509.124 165.945 512.341 Q162.843 515.536 157.195 521.299 Z" fill="#000000" fill-rule="nonzero" fill-opacity="1" /><path clip-path="url(#clip720)" d="M51.4782 228.661 L81.154 228.661 L81.154 232.596 L51.4782 232.596 L51.4782 228.661 Z" fill="#000000" fill-rule="nonzero" fill-opacity="1" /><path clip-path="url(#clip720)" d="M95.2743 241.554 L111.594 241.554 L111.594 245.489 L89.6493 245.489 L89.6493 241.554 Q92.3113 238.8 96.8947 234.17 Q101.501 229.517 102.682 228.175 Q104.927 225.651 105.807 223.915 Q106.709 222.156 106.709 220.466 Q106.709 217.712 104.765 215.976 Q102.844 214.239 99.7419 214.239 Q97.5428 214.239 95.0891 215.003 Q92.6586 215.767 89.8808 217.318 L89.8808 212.596 Q92.7049 211.462 95.1586 210.883 Q97.6122 210.304 99.6493 210.304 Q105.02 210.304 108.214 212.989 Q111.408 215.675 111.408 220.165 Q111.408 222.295 110.598 224.216 Q109.811 226.114 107.705 228.707 Q107.126 229.378 104.024 232.596 Q100.922 235.79 95.2743 241.554 Z" fill="#000000" fill-rule="nonzero" fill-opacity="1" /><path clip-path="url(#clip720)" d="M120.228 210.929 L142.45 210.929 L142.45 212.92 L129.904 245.489 L125.02 245.489 L136.825 214.864 L120.228 214.864 L120.228 210.929 Z" fill="#000000" fill-rule="nonzero" fill-opacity="1" /><path clip-path="url(#clip720)" d="M161.57 214.008 Q157.959 214.008 156.13 217.573 Q154.325 221.114 154.325 228.244 Q154.325 235.35 156.13 238.915 Q157.959 242.457 161.57 242.457 Q165.204 242.457 167.01 238.915 Q168.839 235.35 168.839 228.244 Q168.839 221.114 167.01 217.573 Q165.204 214.008 161.57 214.008 M161.57 210.304 Q167.38 210.304 170.436 214.911 Q173.515 219.494 173.515 228.244 Q173.515 236.971 170.436 241.577 Q167.38 246.161 161.57 246.161 Q155.76 246.161 152.681 241.577 Q149.626 236.971 149.626 228.244 Q149.626 219.494 152.681 214.911 Q155.76 210.304 161.57 210.304 Z" fill="#000000" fill-rule="nonzero" fill-opacity="1" /><polyline clip-path="url(#clip722)" style="stroke:#009af9; stroke-linecap:round; stroke-linejoin:round; stroke-width:4; stroke-opacity:1; fill:none" points="270.172,87.9763 271.183,1187.88 272.194,1296.54 273.205,1333.09 274.216,1354.21 275.227,1368.73 276.238,1379.34 277.249,1387.42 278.26,1393.75 279.271,1398.84 280.282,1403.04 281.293,1406.55 282.304,1409.54 283.315,1412.12 284.326,1414.37 285.337,1416.36 286.348,1418.14 287.359,1419.73 288.37,1421.17 289.381,1422.49 290.392,1423.69 291.403,1424.79 292.414,1425.8 293.425,1426.74 294.435,1427.61 295.446,1428.43 296.457,1429.18 297.468,1429.89 298.479,1430.55 299.49,1431.17 300.501,1431.75 301.512,1432.29 302.523,1432.8 303.534,1433.29 304.545,1433.74 305.556,1434.17 306.567,1434.58 307.578,1434.97 308.589,1435.33 309.6,1435.67 310.611,1436 311.622,1436.31 312.633,1436.61 313.644,1436.89 314.655,1437.16 315.666,1437.41 316.677,1437.66 317.688,1437.89 318.699,1438.11 319.71,1438.32 320.721,1438.52 321.731,1438.72 322.742,1438.9 323.753,1439.08 324.764,1439.25 325.775,1439.42 326.786,1439.57 327.797,1439.72 328.808,1439.87 329.819,1440.01 330.83,1440.14 331.841,1440.27 332.852,1440.4 333.863,1440.52 334.874,1440.64 335.885,1440.75 336.896,1440.86 337.907,1440.96 338.918,1441.06 339.929,1441.16 340.94,1441.26 341.951,1441.35 342.962,1441.44 343.973,1441.52 344.984,1441.61 345.995,1441.69 347.006,1441.77 348.017,1441.84 349.027,1441.92 350.038,1441.99 351.049,1442.06 352.06,1442.12 353.071,1442.19 354.082,1442.25 355.093,1442.32 356.104,1442.38 357.115,1442.44 358.126,1442.49 359.137,1442.55 360.148,1442.6 361.159,1442.65 362.17,1442.71 363.181,1442.76 364.192,1442.8 365.203,1442.85 366.214,1442.9 367.225,1442.94 368.236,1442.99 369.247,1443.03 370.258,1443.07 371.269,1443.11 372.28,1443.15 373.291,1443.19 374.302,1443.23 375.313,1443.26 376.323,1443.3 377.334,1443.33 378.345,1443.37 379.356,1443.4 380.367,1443.43 381.378,1443.47 382.389,1443.5 383.4,1443.53 384.411,1443.56 385.422,1443.59 386.433,1443.62 387.444,1443.64 388.455,1443.67 389.466,1443.7 390.477,1443.72 391.488,1443.75 392.499,1443.77 393.51,1443.8 394.521,1443.82 395.532,1443.84 396.543,1443.87 397.554,1443.89 398.565,1443.91 399.576,1443.93 400.587,1443.95 401.598,1443.97 402.609,1443.99 403.619,1444.01 404.63,1444.03 405.641,1444.05 406.652,1444.07 407.663,1444.09 408.674,1444.1 409.685,1444.12 410.696,1444.14 411.707,1444.16 412.718,1444.17 413.729,1444.19 414.74,1444.2 415.751,1444.22 416.762,1444.23 417.773,1444.25 418.784,1444.26 419.795,1444.28 420.806,1444.29 421.817,1444.31 422.828,1444.32 423.839,1444.33 424.85,1444.35 425.861,1444.36 426.872,1444.37 427.883,1444.38 428.894,1444.4 429.905,1444.41 430.915,1444.42 431.926,1444.43 432.937,1444.44 433.948,1444.45 434.959,1444.47 435.97,1444.48 436.981,1444.49 437.992,1444.5 439.003,1444.51 440.014,1444.52 441.025,1444.53 442.036,1444.54 443.047,1444.55 444.058,1444.56 445.069,1444.57 446.08,1444.58 447.091,1444.59 448.102,1444.59 449.113,1444.6 450.124,1444.61 451.135,1444.62 452.146,1444.63 453.157,1444.64 454.168,1444.65 455.179,1444.65 456.19,1444.66 457.201,1444.67 458.211,1444.68 459.222,1444.69 460.233,1444.69 461.244,1444.7 462.255,1444.71 463.266,1444.72 464.277,1444.72 465.288,1444.73 466.299,1444.74 467.31,1444.74 468.321,1444.75 469.332,1444.76 470.343,1444.76 471.354,1444.77 472.365,1444.78 473.376,1444.78 474.387,1444.79 475.398,1444.8 476.409,1444.8 477.42,1444.81 478.431,1444.81 479.442,1444.82 480.453,1444.83 481.464,1444.83 482.475,1444.84 483.486,1444.84 484.497,1444.85 485.507,1444.86 486.518,1444.86 487.529,1444.87 488.54,1444.87 489.551,1444.88 490.562,1444.88 491.573,1444.89 492.584,1444.89 493.595,1444.9 494.606,1444.9 495.617,1444.91 496.628,1444.91 497.639,1444.92 498.65,1444.92 499.661,1444.93 500.672,1444.93 501.683,1444.94 502.694,1444.94 503.705,1444.95 504.716,1444.95 505.727,1444.96 506.738,1444.96 507.749,1444.97 508.76,1444.97 509.771,1444.97 510.782,1444.98 511.793,1444.98 512.803,1444.99 513.814,1444.99 514.825,1445 515.836,1445 516.847,1445 517.858,1445.01 518.869,1445.01 519.88,1445.02 520.891,1445.02 521.902,1445.03 522.913,1445.03 523.924,1445.03 524.935,1445.04 525.946,1445.04 526.957,1445.04 527.968,1445.05 528.979,1445.05 529.99,1445.06 531.001,1445.06 532.012,1445.06 533.023,1445.07 534.034,1445.07 535.045,1445.07 536.056,1445.08 537.067,1445.08 538.078,1445.09 539.089,1445.09 540.099,1445.09 541.11,1445.1 542.121,1445.1 543.132,1445.1 544.143,1445.11 545.154,1445.11 546.165,1445.11 547.176,1445.12 548.187,1445.12 549.198,1445.12 550.209,1445.13 551.22,1445.13 552.231,1445.13 553.242,1445.14 554.253,1445.14 555.264,1445.14 556.275,1445.15 557.286,1445.15 558.297,1445.15 559.308,1445.15 560.319,1445.16 561.33,1445.16 562.341,1445.16 563.352,1445.17 564.363,1445.17 565.374,1445.17 566.385,1445.18 567.395,1445.18 568.406,1445.18 569.417,1445.18 570.428,1445.19 571.439,1445.19 572.45,1445.19 573.461,1445.2 574.472,1445.2 575.483,1445.2 576.494,1445.2 577.505,1445.21 578.516,1445.21 579.527,1445.21 580.538,1445.21 581.549,1445.22 582.56,1445.22 583.571,1445.22 584.582,1445.23 585.593,1445.23 586.604,1445.23 587.615,1445.23 588.626,1445.24 589.637,1445.24 590.648,1445.24 591.659,1445.24 592.67,1445.25 593.681,1445.25 594.691,1445.25 595.702,1445.25 596.713,1445.26 597.724,1445.26 598.735,1445.26 599.746,1445.26 600.757,1445.27 601.768,1445.27 602.779,1445.27 603.79,1445.27 604.801,1445.27 605.812,1445.28 606.823,1445.28 607.834,1445.28 608.845,1445.28 609.856,1445.29 610.867,1445.29 611.878,1445.29 612.889,1445.29 613.9,1445.29 614.911,1445.3 615.922,1445.3 616.933,1445.3 617.944,1445.3 618.955,1445.31 619.966,1445.31 620.977,1445.31 621.987,1445.31 622.998,1445.31 624.009,1445.32 625.02,1445.32 626.031,1445.32 627.042,1445.32 628.053,1445.32 629.064,1445.33 630.075,1445.33 631.086,1445.33 632.097,1445.33 633.108,1445.33 634.119,1445.34 635.13,1445.34 636.141,1445.34 637.152,1445.34 638.163,1445.34 639.174,1445.35 640.185,1445.35 641.196,1445.35 642.207,1445.35 643.218,1445.35 644.229,1445.36 645.24,1445.36 646.251,1445.36 647.262,1445.36 648.273,1445.36 649.283,1445.37 650.294,1445.37 651.305,1445.37 652.316,1445.37 653.327,1445.37 654.338,1445.37 655.349,1445.38 656.36,1445.38 657.371,1445.38 658.382,1445.38 659.393,1445.38 660.404,1445.38 661.415,1445.39 662.426,1445.39 663.437,1445.39 664.448,1445.39 665.459,1445.39 666.47,1445.39 667.481,1445.4 668.492,1445.4 669.503,1445.4 670.514,1445.4 671.525,1445.4 672.536,1445.4 673.547,1445.41 674.558,1445.41 675.569,1445.41 676.579,1445.41 677.59,1445.41 678.601,1445.41 679.612,1445.42 680.623,1445.42 681.634,1445.42 682.645,1445.42 683.656,1445.42 684.667,1445.42 685.678,1445.42 686.689,1445.43 687.7,1445.43 688.711,1445.43 689.722,1445.43 690.733,1445.43 691.744,1445.43 692.755,1445.43 693.766,1445.44 694.777,1445.44 695.788,1445.44 696.799,1445.44 697.81,1445.44 698.821,1445.44 699.832,1445.44 700.843,1445.45 701.854,1445.45 702.864,1445.45 703.875,1445.45 704.886,1445.45 705.897,1445.45 706.908,1445.45 707.919,1445.46 708.93,1445.46 709.941,1445.46 710.952,1445.46 711.963,1445.46 712.974,1445.46 713.985,1445.46 714.996,1445.46 716.007,1445.47 717.018,1445.47 718.029,1445.47 719.04,1445.47 720.051,1445.47 721.062,1445.47 722.073,1445.47 723.084,1445.47 724.095,1445.48 725.106,1445.48 726.117,1445.48 727.128,1445.48 728.139,1445.48 729.15,1445.48 730.16,1445.48 731.171,1445.48 732.182,1445.49 733.193,1445.49 734.204,1445.49 735.215,1445.49 736.226,1445.49 737.237,1445.49 738.248,1445.49 739.259,1445.49 740.27,1445.49 741.281,1445.5 742.292,1445.5 743.303,1445.5 744.314,1445.5 745.325,1445.5 746.336,1445.5 747.347,1445.5 748.358,1445.5 749.369,1445.5 750.38,1445.51 751.391,1445.51 752.402,1445.51 753.413,1445.51 754.424,1445.51 755.435,1445.51 756.446,1445.51 757.456,1445.51 758.467,1445.51 759.478,1445.52 760.489,1445.52 761.5,1445.52 762.511,1445.52 763.522,1445.52 764.533,1445.52 765.544,1445.52 766.555,1445.52 767.566,1445.52 768.577,1445.52 769.588,1445.53 770.599,1445.53 771.61,1445.53 772.621,1445.53 773.632,1445.53 774.643,1445.53 775.654,1445.53 776.665,1445.53 777.676,1445.53 778.687,1445.53 779.698,1445.53 780.709,1445.54 781.72,1445.54 782.731,1445.54 783.742,1445.54 784.752,1445.54 785.763,1445.54 786.774,1445.54 787.785,1445.54 788.796,1445.54 789.807,1445.54 790.818,1445.54 791.829,1445.55 792.84,1445.55 793.851,1445.55 794.862,1445.55 795.873,1445.55 796.884,1445.55 797.895,1445.55 798.906,1445.55 799.917,1445.55 800.928,1445.55 801.939,1445.55 802.95,1445.55 803.961,1445.56 804.972,1445.56 805.983,1445.56 806.994,1445.56 808.005,1445.56 809.016,1445.56 810.027,1445.56 811.038,1445.56 812.048,1445.56 813.059,1445.56 814.07,1445.56 815.081,1445.56 816.092,1445.56 817.103,1445.57 818.114,1445.57 819.125,1445.57 820.136,1445.57 821.147,1445.57 822.158,1445.57 823.169,1445.57 824.18,1445.57 825.191,1445.57 826.202,1445.57 827.213,1445.57 828.224,1445.57 829.235,1445.57 830.246,1445.58 831.257,1445.58 832.268,1445.58 833.279,1445.58 834.29,1445.58 835.301,1445.58 836.312,1445.58 837.323,1445.58 838.334,1445.58 839.344,1445.58 840.355,1445.58 841.366,1445.58 842.377,1445.58 843.388,1445.58 844.399,1445.58 845.41,1445.59 846.421,1445.59 847.432,1445.59 848.443,1445.59 849.454,1445.59 850.465,1445.59 851.476,1445.59 852.487,1445.59 853.498,1445.59 854.509,1445.59 855.52,1445.59 856.531,1445.59 857.542,1445.59 858.553,1445.59 859.564,1445.59 860.575,1445.6 861.586,1445.6 862.597,1445.6 863.608,1445.6 864.619,1445.6 865.63,1445.6 866.64,1445.6 867.651,1445.6 868.662,1445.6 869.673,1445.6 870.684,1445.6 871.695,1445.6 872.706,1445.6 873.717,1445.6 874.728,1445.6 875.739,1445.6 876.75,1445.6 877.761,1445.61 878.772,1445.61 879.783,1445.61 880.794,1445.61 881.805,1445.61 882.816,1445.61 883.827,1445.61 884.838,1445.61 885.849,1445.61 886.86,1445.61 887.871,1445.61 888.882,1445.61 889.893,1445.61 890.904,1445.61 891.915,1445.61 892.926,1445.61 893.936,1445.61 894.947,1445.61 895.958,1445.61 896.969,1445.62 897.98,1445.62 898.991,1445.62 900.002,1445.62 901.013,1445.62 902.024,1445.62 903.035,1445.62 904.046,1445.62 905.057,1445.62 906.068,1445.62 907.079,1445.62 908.09,1445.62 909.101,1445.62 910.112,1445.62 911.123,1445.62 912.134,1445.62 913.145,1445.62 914.156,1445.62 915.167,1445.62 916.178,1445.62 917.189,1445.62 918.2,1445.63 919.211,1445.63 920.222,1445.63 921.232,1445.63 922.243,1445.63 923.254,1445.63 924.265,1445.63 925.276,1445.63 926.287,1445.63 927.298,1445.63 928.309,1445.63 929.32,1445.63 930.331,1445.63 931.342,1445.63 932.353,1445.63 933.364,1445.63 934.375,1445.63 935.386,1445.63 936.397,1445.63 937.408,1445.63 938.419,1445.63 939.43,1445.63 940.441,1445.63 941.452,1445.64 942.463,1445.64 943.474,1445.64 944.485,1445.64 945.496,1445.64 946.507,1445.64 947.518,1445.64 948.528,1445.64 949.539,1445.64 950.55,1445.64 951.561,1445.64 952.572,1445.64 953.583,1445.64 954.594,1445.64 955.605,1445.64 956.616,1445.64 957.627,1445.64 958.638,1445.64 959.649,1445.64 960.66,1445.64 961.671,1445.64 962.682,1445.64 963.693,1445.64 964.704,1445.64 965.715,1445.64 966.726,1445.64 967.737,1445.65 968.748,1445.65 969.759,1445.65 970.77,1445.65 971.781,1445.65 972.792,1445.65 973.803,1445.65 974.814,1445.65 975.824,1445.65 976.835,1445.65 977.846,1445.65 978.857,1445.65 979.868,1445.65 980.879,1445.65 981.89,1445.65 982.901,1445.65 983.912,1445.65 984.923,1445.65 985.934,1445.65 986.945,1445.65 987.956,1445.65 988.967,1445.65 989.978,1445.65 990.989,1445.65 992,1445.65 993.011,1445.65 994.022,1445.65 995.033,1445.65 996.044,1445.65 997.055,1445.65 998.066,1445.66 999.077,1445.66 1000.09,1445.66 1001.1,1445.66 1002.11,1445.66 1003.12,1445.66 1004.13,1445.66 1005.14,1445.66 1006.15,1445.66 1007.16,1445.66 1008.18,1445.66 1009.19,1445.66 1010.2,1445.66 1011.21,1445.66 1012.22,1445.66 1013.23,1445.66 1014.24,1445.66 1015.25,1445.66 1016.26,1445.66 1017.27,1445.66 1018.28,1445.66 1019.3,1445.66 1020.31,1445.66 1021.32,1445.66 1022.33,1445.66 1023.34,1445.66 1024.35,1445.66 1025.36,1445.66 1026.37,1445.66 1027.38,1445.66 1028.39,1445.66 1029.41,1445.66 1030.42,1445.66 1031.43,1445.66 1032.44,1445.66 1033.45,1445.66 1034.46,1445.67 1035.47,1445.67 1036.48,1445.67 1037.49,1445.67 1038.5,1445.67 1039.52,1445.67 1040.53,1445.67 1041.54,1445.67 1042.55,1445.67 1043.56,1445.67 1044.57,1445.67 1045.58,1445.67 1046.59,1445.67 1047.6,1445.67 1048.61,1445.67 1049.62,1445.67 1050.64,1445.67 1051.65,1445.67 1052.66,1445.67 1053.67,1445.67 1054.68,1445.67 1055.69,1445.67 1056.7,1445.67 1057.71,1445.67 1058.72,1445.67 1059.73,1445.67 1060.75,1445.67 1061.76,1445.67 1062.77,1445.67 1063.78,1445.67 1064.79,1445.67 1065.8,1445.67 1066.81,1445.67 1067.82,1445.67 1068.83,1445.67 1069.84,1445.67 1070.85,1445.67 1071.87,1445.67 1072.88,1445.67 1073.89,1445.67 1074.9,1445.67 1075.91,1445.67 1076.92,1445.67 1077.93,1445.67 1078.94,1445.68 1079.95,1445.68 1080.96,1445.68 1081.98,1445.68 1082.99,1445.68 1084,1445.68 1085.01,1445.68 1086.02,1445.68 1087.03,1445.68 1088.04,1445.68 1089.05,1445.68 1090.06,1445.68 1091.07,1445.68 1092.09,1445.68 1093.1,1445.68 1094.11,1445.68 1095.12,1445.68 1096.13,1445.68 1097.14,1445.68 1098.15,1445.68 1099.16,1445.68 1100.17,1445.68 1101.18,1445.68 1102.19,1445.68 1103.21,1445.68 1104.22,1445.68 1105.23,1445.68 1106.24,1445.68 1107.25,1445.68 1108.26,1445.68 1109.27,1445.68 1110.28,1445.68 1111.29,1445.68 1112.3,1445.68 1113.32,1445.68 1114.33,1445.68 1115.34,1445.68 1116.35,1445.68 1117.36,1445.68 1118.37,1445.68 1119.38,1445.68 1120.39,1445.68 1121.4,1445.68 1122.41,1445.68 1123.43,1445.68 1124.44,1445.68 1125.45,1445.68 1126.46,1445.68 1127.47,1445.68 1128.48,1445.68 1129.49,1445.68 1130.5,1445.68 1131.51,1445.68 1132.52,1445.68 1133.53,1445.68 1134.55,1445.68 1135.56,1445.69 1136.57,1445.69 1137.58,1445.69 1138.59,1445.69 1139.6,1445.69 1140.61,1445.69 1141.62,1445.69 1142.63,1445.69 1143.64,1445.69 1144.66,1445.69 1145.67,1445.69 1146.68,1445.69 1147.69,1445.69 1148.7,1445.69 1149.71,1445.69 1150.72,1445.69 1151.73,1445.69 1152.74,1445.69 1153.75,1445.69 1154.76,1445.69 1155.78,1445.69 1156.79,1445.69 1157.8,1445.69 1158.81,1445.69 1159.82,1445.69 1160.83,1445.69 1161.84,1445.69 1162.85,1445.69 1163.86,1445.69 1164.87,1445.69 1165.89,1445.69 1166.9,1445.69 1167.91,1445.69 1168.92,1445.69 1169.93,1445.69 1170.94,1445.69 1171.95,1445.69 1172.96,1445.69 1173.97,1445.69 1174.98,1445.69 1176,1445.69 1177.01,1445.69 1178.02,1445.69 1179.03,1445.69 1180.04,1445.69 1181.05,1445.69 1182.06,1445.69 1183.07,1445.69 1184.08,1445.69 1185.09,1445.69 1186.1,1445.69 1187.12,1445.69 1188.13,1445.69 1189.14,1445.69 1190.15,1445.69 1191.16,1445.69 1192.17,1445.69 1193.18,1445.69 1194.19,1445.69 1195.2,1445.69 1196.21,1445.69 1197.23,1445.69 1198.24,1445.69 1199.25,1445.69 1200.26,1445.69 1201.27,1445.69 1202.28,1445.69 1203.29,1445.69 1204.3,1445.69 1205.31,1445.69 1206.32,1445.69 1207.33,1445.69 1208.35,1445.69 1209.36,1445.69 1210.37,1445.69 1211.38,1445.69 1212.39,1445.69 1213.4,1445.69 1214.41,1445.7 1215.42,1445.7 1216.43,1445.7 1217.44,1445.7 1218.46,1445.7 1219.47,1445.7 1220.48,1445.7 1221.49,1445.7 1222.5,1445.7 1223.51,1445.7 1224.52,1445.7 1225.53,1445.7 1226.54,1445.7 1227.55,1445.7 1228.57,1445.7 1229.58,1445.7 1230.59,1445.7 1231.6,1445.7 1232.61,1445.7 1233.62,1445.7 1234.63,1445.7 1235.64,1445.7 1236.65,1445.7 1237.66,1445.7 1238.67,1445.7 1239.69,1445.7 1240.7,1445.7 1241.71,1445.7 1242.72,1445.7 1243.73,1445.7 1244.74,1445.7 1245.75,1445.7 1246.76,1445.7 1247.77,1445.7 1248.78,1445.7 1249.8,1445.7 1250.81,1445.7 1251.82,1445.7 1252.83,1445.7 1253.84,1445.7 1254.85,1445.7 1255.86,1445.7 1256.87,1445.7 1257.88,1445.7 1258.89,1445.7 1259.91,1445.7 1260.92,1445.7 1261.93,1445.7 1262.94,1445.7 1263.95,1445.7 1264.96,1445.7 1265.97,1445.7 1266.98,1445.7 1267.99,1445.7 1269,1445.7 1270.01,1445.7 1271.03,1445.7 1272.04,1445.7 1273.05,1445.7 1274.06,1445.7 1275.07,1445.7 1276.08,1445.7 1277.09,1445.7 1278.1,1445.7 1279.11,1445.7 1280.12,1445.7 1281.14,1445.7 1282.15,1445.7 1283.16,1445.7 1284.17,1445.7 1285.18,1445.7 1286.19,1445.7 1287.2,1445.7 1288.21,1445.7 1289.22,1445.7 1290.23,1445.7 1291.24,1445.7 1292.26,1445.7 1293.27,1445.7 1294.28,1445.7 1295.29,1445.7 1296.3,1445.7 1297.31,1445.7 1298.32,1445.7 1299.33,1445.7 1300.34,1445.7 1301.35,1445.7 1302.37,1445.7 1303.38,1445.7 1304.39,1445.7 1305.4,1445.7 1306.41,1445.7 1307.42,1445.7 1308.43,1445.7 1309.44,1445.7 1310.45,1445.7 1311.46,1445.7 1312.48,1445.7 1313.49,1445.7 1314.5,1445.7 1315.51,1445.7 1316.52,1445.7 1317.53,1445.7 1318.54,1445.7 1319.55,1445.7 1320.56,1445.7 1321.57,1445.7 1322.58,1445.7 1323.6,1445.7 1324.61,1445.7 1325.62,1445.7 1326.63,1445.7 1327.64,1445.7 1328.65,1445.7 1329.66,1445.7 1330.67,1445.7 1331.68,1445.7 1332.69,1445.7 1333.71,1445.7 1334.72,1445.7 1335.73,1445.7 1336.74,1445.7 1337.75,1445.7 1338.76,1445.7 1339.77,1445.7 1340.78,1445.7 1341.79,1445.7 1342.8,1445.7 1343.81,1445.7 1344.83,1445.7 1345.84,1445.7 1346.85,1445.71 1347.86,1445.71 1348.87,1445.71 1349.88,1445.71 1350.89,1445.71 1351.9,1445.71 1352.91,1445.71 1353.92,1445.71 1354.94,1445.71 1355.95,1445.71 1356.96,1445.71 1357.97,1445.71 1358.98,1445.71 1359.99,1445.71 1361,1445.71 1362.01,1445.71 1363.02,1445.71 1364.03,1445.71 1365.05,1445.71 1366.06,1445.71 1367.07,1445.71 1368.08,1445.71 1369.09,1445.71 1370.1,1445.71 1371.11,1445.71 1372.12,1445.71 1373.13,1445.71 1374.14,1445.71 1375.15,1445.71 1376.17,1445.71 1377.18,1445.71 1378.19,1445.71 1379.2,1445.71 1380.21,1445.71 1381.22,1445.71 1382.23,1445.71 1383.24,1445.71 1384.25,1445.71 1385.26,1445.71 1386.28,1445.71 1387.29,1445.71 1388.3,1445.71 1389.31,1445.71 1390.32,1445.71 1391.33,1445.71 1392.34,1445.71 1393.35,1445.71 1394.36,1445.71 1395.37,1445.71 1396.39,1445.71 1397.4,1445.71 1398.41,1445.71 1399.42,1445.71 1400.43,1445.71 1401.44,1445.71 1402.45,1445.71 1403.46,1445.71 1404.47,1445.71 1405.48,1445.71 1406.49,1445.71 1407.51,1445.71 1408.52,1445.71 1409.53,1445.71 1410.54,1445.71 1411.55,1445.71 1412.56,1445.71 1413.57,1445.71 1414.58,1445.71 1415.59,1445.71 1416.6,1445.71 1417.62,1445.71 1418.63,1445.71 1419.64,1445.71 1420.65,1445.71 1421.66,1445.71 1422.67,1445.71 1423.68,1445.71 1424.69,1445.71 1425.7,1445.71 1426.71,1445.71 1427.72,1445.71 1428.74,1445.71 1429.75,1445.71 1430.76,1445.71 1431.77,1445.71 1432.78,1445.71 1433.79,1445.71 1434.8,1445.71 1435.81,1445.71 1436.82,1445.71 1437.83,1445.71 1438.85,1445.71 1439.86,1445.71 1440.87,1445.71 1441.88,1445.71 1442.89,1445.71 1443.9,1445.71 1444.91,1445.71 1445.92,1445.71 1446.93,1445.71 1447.94,1445.71 1448.96,1445.71 1449.97,1445.71 1450.98,1445.71 1451.99,1445.71 1453,1445.71 1454.01,1445.71 1455.02,1445.71 1456.03,1445.71 1457.04,1445.71 1458.05,1445.71 1459.06,1445.71 1460.08,1445.71 1461.09,1445.71 1462.1,1445.71 1463.11,1445.71 1464.12,1445.71 1465.13,1445.71 1466.14,1445.71 1467.15,1445.71 1468.16,1445.71 1469.17,1445.71 1470.19,1445.71 1471.2,1445.71 1472.21,1445.71 1473.22,1445.71 1474.23,1445.71 1475.24,1445.71 1476.25,1445.71 1477.26,1445.71 1478.27,1445.71 1479.28,1445.71 1480.29,1445.71 1481.31,1445.71 1482.32,1445.71 1483.33,1445.71 1484.34,1445.71 1485.35,1445.71 1486.36,1445.71 1487.37,1445.71 1488.38,1445.71 1489.39,1445.71 1490.4,1445.71 1491.42,1445.71 1492.43,1445.71 1493.44,1445.71 1494.45,1445.71 1495.46,1445.71 1496.47,1445.71 1497.48,1445.71 1498.49,1445.71 1499.5,1445.71 1500.51,1445.71 1501.53,1445.71 1502.54,1445.71 1503.55,1445.71 1504.56,1445.71 1505.57,1445.71 1506.58,1445.71 1507.59,1445.71 1508.6,1445.71 1509.61,1445.71 1510.62,1445.71 1511.63,1445.71 1512.65,1445.71 1513.66,1445.71 1514.67,1445.71 1515.68,1445.71 1516.69,1445.71 1517.7,1445.71 1518.71,1445.71 1519.72,1445.71 1520.73,1445.71 1521.74,1445.71 1522.76,1445.71 1523.77,1445.71 1524.78,1445.71 1525.79,1445.71 1526.8,1445.71 1527.81,1445.71 1528.82,1445.71 1529.83,1445.71 1530.84,1445.71 1531.85,1445.71 1532.87,1445.71 1533.88,1445.71 1534.89,1445.71 1535.9,1445.71 1536.91,1445.71 1537.92,1445.71 1538.93,1445.71 1539.94,1445.71 1540.95,1445.71 1541.96,1445.71 1542.97,1445.71 1543.99,1445.71 1545,1445.71 1546.01,1445.71 1547.02,1445.71 1548.03,1445.71 1549.04,1445.71 1550.05,1445.71 1551.06,1445.71 1552.07,1445.71 1553.08,1445.71 1554.1,1445.71 1555.11,1445.71 1556.12,1445.71 1557.13,1445.71 1558.14,1445.71 1559.15,1445.71 1560.16,1445.71 1561.17,1445.71 1562.18,1445.71 1563.19,1445.71 1564.2,1445.71 1565.22,1445.71 1566.23,1445.71 1567.24,1445.71 1568.25,1445.71 1569.26,1445.71 1570.27,1445.71 1571.28,1445.71 1572.29,1445.71 1573.3,1445.71 1574.31,1445.71 1575.33,1445.71 1576.34,1445.71 1577.35,1445.71 1578.36,1445.71 1579.37,1445.71 1580.38,1445.71 1581.39,1445.71 1582.4,1445.71 1583.41,1445.71 1584.42,1445.71 1585.44,1445.71 1586.45,1445.71 1587.46,1445.71 1588.47,1445.71 1589.48,1445.71 1590.49,1445.71 1591.5,1445.71 1592.51,1445.71 1593.52,1445.71 1594.53,1445.71 1595.54,1445.71 1596.56,1445.71 1597.57,1445.71 1598.58,1445.71 1599.59,1445.71 1600.6,1445.71 1601.61,1445.71 1602.62,1445.71 1603.63,1445.71 1604.64,1445.71 1605.65,1445.71 1606.67,1445.71 1607.68,1445.71 1608.69,1445.71 1609.7,1445.71 1610.71,1445.71 1611.72,1445.71 1612.73,1445.71 1613.74,1445.71 1614.75,1445.71 1615.76,1445.71 1616.77,1445.71 1617.79,1445.71 1618.8,1445.71 1619.81,1445.71 1620.82,1445.71 1621.83,1445.71 1622.84,1445.71 1623.85,1445.71 1624.86,1445.71 1625.87,1445.71 1626.88,1445.71 1627.9,1445.71 1628.91,1445.71 1629.92,1445.71 1630.93,1445.71 1631.94,1445.71 1632.95,1445.71 1633.96,1445.71 1634.97,1445.71 1635.98,1445.71 1636.99,1445.71 1638.01,1445.71 1639.02,1445.71 1640.03,1445.71 1641.04,1445.71 1642.05,1445.71 1643.06,1445.71 1644.07,1445.71 1645.08,1445.71 1646.09,1445.71 1647.1,1445.71 1648.11,1445.71 1649.13,1445.71 1650.14,1445.71 1651.15,1445.71 1652.16,1445.71 1653.17,1445.71 1654.18,1445.71 1655.19,1445.71 1656.2,1445.71 1657.21,1445.71 1658.22,1445.71 1659.24,1445.71 1660.25,1445.71 1661.26,1445.71 1662.27,1445.71 1663.28,1445.71 1664.29,1445.71 1665.3,1445.71 1666.31,1445.71 1667.32,1445.71 1668.33,1445.71 1669.35,1445.71 1670.36,1445.71 1671.37,1445.71 1672.38,1445.71 1673.39,1445.71 1674.4,1445.71 1675.41,1445.71 1676.42,1445.71 1677.43,1445.71 1678.44,1445.71 1679.45,1445.71 1680.47,1445.71 1681.48,1445.71 1682.49,1445.71 1683.5,1445.71 1684.51,1445.71 1685.52,1445.71 1686.53,1445.71 1687.54,1445.71 1688.55,1445.71 1689.56,1445.71 1690.58,1445.71 1691.59,1445.71 1692.6,1445.71 1693.61,1445.71 1694.62,1445.71 1695.63,1445.71 1696.64,1445.71 1697.65,1445.71 1698.66,1445.71 1699.67,1445.71 1700.68,1445.71 1701.7,1445.71 1702.71,1445.71 1703.72,1445.71 1704.73,1445.71 1705.74,1445.71 1706.75,1445.71 1707.76,1445.71 1708.77,1445.71 1709.78,1445.71 1710.79,1445.71 1711.81,1445.71 1712.82,1445.71 1713.83,1445.71 1714.84,1445.71 1715.85,1445.71 1716.86,1445.71 1717.87,1445.71 1718.88,1445.71 1719.89,1445.71 1720.9,1445.71 1721.92,1445.71 1722.93,1445.71 1723.94,1445.71 1724.95,1445.71 1725.96,1445.71 1726.97,1445.71 1727.98,1445.71 1728.99,1445.71 1730,1445.71 1731.01,1445.71 1732.02,1445.71 1733.04,1445.71 1734.05,1445.71 1735.06,1445.71 1736.07,1445.71 1737.08,1445.71 1738.09,1445.71 1739.1,1445.71 1740.11,1445.71 1741.12,1445.71 1742.13,1445.71 1743.15,1445.71 1744.16,1445.71 1745.17,1445.71 1746.18,1445.71 1747.19,1445.71 1748.2,1445.71 1749.21,1445.71 1750.22,1445.71 1751.23,1445.71 1752.24,1445.71 1753.25,1445.71 1754.27,1445.71 1755.28,1445.71 1756.29,1445.71 1757.3,1445.71 1758.31,1445.71 1759.32,1445.71 1760.33,1445.71 1761.34,1445.71 1762.35,1445.71 1763.36,1445.71 1764.38,1445.71 1765.39,1445.71 1766.4,1445.71 1767.41,1445.71 1768.42,1445.71 1769.43,1445.71 1770.44,1445.71 1771.45,1445.71 1772.46,1445.71 1773.47,1445.71 1774.49,1445.71 1775.5,1445.71 1776.51,1445.71 1777.52,1445.71 1778.53,1445.71 1779.54,1445.71 1780.55,1445.71 1781.56,1445.71 1782.57,1445.71 1783.58,1445.71 1784.59,1445.71 1785.61,1445.71 1786.62,1445.71 1787.63,1445.71 1788.64,1445.71 1789.65,1445.71 1790.66,1445.71 1791.67,1445.71 1792.68,1445.71 1793.69,1445.71 1794.7,1445.71 1795.72,1445.71 1796.73,1445.71 1797.74,1445.71 1798.75,1445.71 1799.76,1445.71 1800.77,1445.71 1801.78,1445.71 1802.79,1445.71 1803.8,1445.71 1804.81,1445.71 1805.82,1445.71 1806.84,1445.71 1807.85,1445.71 1808.86,1445.71 1809.87,1445.71 1810.88,1445.71 1811.89,1445.71 1812.9,1445.71 1813.91,1445.71 1814.92,1445.71 1815.93,1445.71 1816.95,1445.71 1817.96,1445.71 1818.97,1445.71 1819.98,1445.71 1820.99,1445.71 1822,1445.71 1823.01,1445.71 1824.02,1445.71 1825.03,1445.71 1826.04,1445.71 1827.06,1445.71 1828.07,1445.71 1829.08,1445.71 1830.09,1445.71 1831.1,1445.71 1832.11,1445.71 1833.12,1445.71 1834.13,1445.71 1835.14,1445.71 1836.15,1445.71 1837.16,1445.71 1838.18,1445.71 1839.19,1445.71 1840.2,1445.71 1841.21,1445.71 1842.22,1445.71 1843.23,1445.71 1844.24,1445.71 1845.25,1445.71 1846.26,1445.71 1847.27,1445.71 1848.29,1445.71 1849.3,1445.71 1850.31,1445.71 1851.32,1445.71 1852.33,1445.71 1853.34,1445.71 1854.35,1445.71 1855.36,1445.71 1856.37,1445.71 1857.38,1445.71 1858.4,1445.71 1859.41,1445.71 1860.42,1445.71 1861.43,1445.71 1862.44,1445.71 1863.45,1445.71 1864.46,1445.71 1865.47,1445.71 1866.48,1445.71 1867.49,1445.71 1868.5,1445.71 1869.52,1445.71 1870.53,1445.71 1871.54,1445.71 1872.55,1445.71 1873.56,1445.71 1874.57,1445.72 1875.58,1445.72 1876.59,1445.72 1877.6,1445.72 1878.61,1445.72 1879.63,1445.72 1880.64,1445.72 1881.65,1445.72 1882.66,1445.72 1883.67,1445.72 1884.68,1445.72 1885.69,1445.72 1886.7,1445.72 1887.71,1445.72 1888.72,1445.72 1889.73,1445.72 1890.75,1445.72 1891.76,1445.72 1892.77,1445.72 1893.78,1445.72 1894.79,1445.72 1895.8,1445.72 1896.81,1445.72 1897.82,1445.72 1898.83,1445.72 1899.84,1445.72 1900.86,1445.72 1901.87,1445.72 1902.88,1445.72 1903.89,1445.72 1904.9,1445.72 1905.91,1445.72 1906.92,1445.72 1907.93,1445.72 1908.94,1445.72 1909.95,1445.72 1910.97,1445.72 1911.98,1445.72 1912.99,1445.72 1914,1445.72 1915.01,1445.72 1916.02,1445.72 1917.03,1445.72 1918.04,1445.72 1919.05,1445.72 1920.06,1445.72 1921.07,1445.72 1922.09,1445.72 1923.1,1445.72 1924.11,1445.72 1925.12,1445.72 1926.13,1445.72 1927.14,1445.72 1928.15,1445.72 1929.16,1445.72 1930.17,1445.72 1931.18,1445.72 1932.2,1445.72 1933.21,1445.72 1934.22,1445.72 1935.23,1445.72 1936.24,1445.72 1937.25,1445.72 1938.26,1445.72 1939.27,1445.72 1940.28,1445.72 1941.29,1445.72 1942.3,1445.72 1943.32,1445.72 1944.33,1445.72 1945.34,1445.72 1946.35,1445.72 1947.36,1445.72 1948.37,1445.72 1949.38,1445.72 1950.39,1445.72 1951.4,1445.72 1952.41,1445.72 1953.43,1445.72 1954.44,1445.72 1955.45,1445.72 1956.46,1445.72 1957.47,1445.72 1958.48,1445.72 1959.49,1445.72 1960.5,1445.72 1961.51,1445.72 1962.52,1445.72 1963.54,1445.72 1964.55,1445.72 1965.56,1445.72 1966.57,1445.72 1967.58,1445.72 1968.59,1445.72 1969.6,1445.72 1970.61,1445.72 1971.62,1445.72 1972.63,1445.72 1973.64,1445.72 1974.66,1445.72 1975.67,1445.72 1976.68,1445.72 1977.69,1445.72 1978.7,1445.72 1979.71,1445.72 1980.72,1445.72 1981.73,1445.72 1982.74,1445.72 1983.75,1445.72 1984.77,1445.72 1985.78,1445.72 1986.79,1445.72 1987.8,1445.72 1988.81,1445.72 1989.82,1445.72 1990.83,1445.72 1991.84,1445.72 1992.85,1445.72 1993.86,1445.72 1994.88,1445.72 1995.89,1445.72 1996.9,1445.72 1997.91,1445.72 1998.92,1445.72 1999.93,1445.72 2000.94,1445.72 2001.95,1445.72 2002.96,1445.72 2003.97,1445.72 2004.98,1445.72 2006,1445.72 2007.01,1445.72 2008.02,1445.72 2009.03,1445.72 2010.04,1445.72 2011.05,1445.72 2012.06,1445.72 2013.07,1445.72 2014.08,1445.72 2015.09,1445.72 2016.11,1445.72 2017.12,1445.72 2018.13,1445.72 2019.14,1445.72 2020.15,1445.72 2021.16,1445.72 2022.17,1445.72 2023.18,1445.72 2024.19,1445.72 2025.2,1445.72 2026.21,1445.72 2027.23,1445.72 2028.24,1445.72 2029.25,1445.72 2030.26,1445.72 2031.27,1445.72 2032.28,1445.72 2033.29,1445.72 2034.3,1445.72 2035.31,1445.72 2036.32,1445.72 2037.34,1445.72 2038.35,1445.72 2039.36,1445.72 2040.37,1445.72 2041.38,1445.72 2042.39,1445.72 2043.4,1445.72 2044.41,1445.72 2045.42,1445.72 2046.43,1445.72 2047.45,1445.72 2048.46,1445.72 2049.47,1445.72 2050.48,1445.72 2051.49,1445.72 2052.5,1445.72 2053.51,1445.72 2054.52,1445.72 2055.53,1445.72 2056.54,1445.72 2057.55,1445.72 2058.57,1445.72 2059.58,1445.72 2060.59,1445.72 2061.6,1445.72 2062.61,1445.72 2063.62,1445.72 2064.63,1445.72 2065.64,1445.72 2066.65,1445.72 2067.66,1445.72 2068.68,1445.72 2069.69,1445.72 2070.7,1445.72 2071.71,1445.72 2072.72,1445.72 2073.73,1445.72 2074.74,1445.72 2075.75,1445.72 2076.76,1445.72 2077.77,1445.72 2078.78,1445.72 2079.8,1445.72 2080.81,1445.72 2081.82,1445.72 2082.83,1445.72 2083.84,1445.72 2084.85,1445.72 2085.86,1445.72 2086.87,1445.72 2087.88,1445.72 2088.89,1445.72 2089.91,1445.72 2090.92,1445.72 2091.93,1445.72 2092.94,1445.72 2093.95,1445.72 2094.96,1445.72 2095.97,1445.72 2096.98,1445.72 2097.99,1445.72 2099,1445.72 2100.02,1445.72 2101.03,1445.72 2102.04,1445.72 2103.05,1445.72 2104.06,1445.72 2105.07,1445.72 2106.08,1445.72 2107.09,1445.72 2108.1,1445.72 2109.11,1445.72 2110.12,1445.72 2111.14,1445.72 2112.15,1445.72 2113.16,1445.72 2114.17,1445.72 2115.18,1445.72 2116.19,1445.72 2117.2,1445.72 2118.21,1445.72 2119.22,1445.72 2120.23,1445.72 2121.25,1445.72 2122.26,1445.72 2123.27,1445.72 2124.28,1445.72 2125.29,1445.72 2126.3,1445.72 2127.31,1445.72 2128.32,1445.72 2129.33,1445.72 2130.34,1445.72 2131.36,1445.72 2132.37,1445.72 2133.38,1445.72 2134.39,1445.72 2135.4,1445.72 2136.41,1445.72 2137.42,1445.72 2138.43,1445.72 2139.44,1445.72 2140.45,1445.72 2141.46,1445.72 2142.48,1445.72 2143.49,1445.72 2144.5,1445.72 2145.51,1445.72 2146.52,1445.72 2147.53,1445.72 2148.54,1445.72 2149.55,1445.72 2150.56,1445.72 2151.57,1445.72 2152.59,1445.72 2153.6,1445.72 2154.61,1445.72 2155.62,1445.72 2156.63,1445.72 2157.64,1445.72 2158.65,1445.72 2159.66,1445.72 2160.67,1445.72 2161.68,1445.72 2162.69,1445.72 2163.71,1445.72 2164.72,1445.72 2165.73,1445.72 2166.74,1445.72 2167.75,1445.72 2168.76,1445.72 2169.77,1445.72 2170.78,1445.72 2171.79,1445.72 2172.8,1445.72 2173.82,1445.72 2174.83,1445.72 2175.84,1445.72 2176.85,1445.72 2177.86,1445.72 2178.87,1445.72 2179.88,1445.72 2180.89,1445.72 2181.9,1445.72 2182.91,1445.72 2183.93,1445.72 2184.94,1445.72 2185.95,1445.72 2186.96,1445.72 2187.97,1445.72 2188.98,1445.72 2189.99,1445.72 2191,1445.72 2192.01,1445.72 2193.02,1445.72 2194.03,1445.72 2195.05,1445.72 2196.06,1445.72 2197.07,1445.72 2198.08,1445.72 2199.09,1445.72 2200.1,1445.72 2201.11,1445.72 2202.12,1445.72 2203.13,1445.72 2204.14,1445.72 2205.16,1445.72 2206.17,1445.72 2207.18,1445.72 2208.19,1445.72 2209.2,1445.72 2210.21,1445.72 2211.22,1445.72 2212.23,1445.72 2213.24,1445.72 2214.25,1445.72 2215.26,1445.72 2216.28,1445.72 2217.29,1445.72 2218.3,1445.72 2219.31,1445.72 2220.32,1445.72 2221.33,1445.72 2222.34,1445.72 2223.35,1445.72 2224.36,1445.72 2225.37,1445.72 2226.39,1445.72 2227.4,1445.72 2228.41,1445.72 2229.42,1445.72 2230.43,1445.72 2231.44,1445.72 2232.45,1445.72 2233.46,1445.72 2234.47,1445.72 2235.48,1445.72 2236.5,1445.72 2237.51,1445.72 2238.52,1445.72 2239.53,1445.72 2240.54,1445.72 2241.55,1445.72 2242.56,1445.72 2243.57,1445.72 2244.58,1445.72 2245.59,1445.72 2246.6,1445.72 2247.62,1445.72 2248.63,1445.72 2249.64,1445.72 2250.65,1445.72 2251.66,1445.72 2252.67,1445.72 2253.68,1445.72 2254.69,1445.72 2255.7,1445.72 2256.71,1445.72 2257.73,1445.72 2258.74,1445.72 2259.75,1445.72 2260.76,1445.72 2261.77,1445.72 2262.78,1445.72 2263.79,1445.72 2264.8,1445.72 2265.81,1445.72 2266.82,1445.72 2267.84,1445.72 2268.85,1445.72 2269.86,1445.72 2270.87,1445.72 2271.88,1445.72 2272.89,1445.72 2273.9,1445.72 2274.91,1445.72 2275.92,1445.72 2276.93,1445.72 2277.94,1445.72 2278.96,1445.72 2279.97,1445.72 2280.98,1445.72 2281.99,1445.72 2283,1445.72 2284.01,1445.72 2285.02,1445.72 2286.03,1445.72 2287.04,1445.72 2288.05,1445.72 2289.07,1445.72 2290.08,1445.72 2291.09,1445.72 2292.1,1445.72 "/>
<path clip-path="url(#clip720)" d="M2014.56 198.898 L2281.31 198.898 L2281.31 95.2176 L2014.56 95.2176  Z" fill="#ffffff" fill-rule="evenodd" fill-opacity="1"/>
<polyline clip-path="url(#clip720)" style="stroke:#000000; stroke-linecap:round; stroke-linejoin:round; stroke-width:4; stroke-opacity:1; fill:none" points="2014.56,198.898 2281.31,198.898 2281.31,95.2176 2014.56,95.2176 2014.56,198.898 "/>
<polyline clip-path="url(#clip720)" style="stroke:#009af9; stroke-linecap:round; stroke-linejoin:round; stroke-width:4; stroke-opacity:1; fill:none" points="2038.37,147.058 2181.26,147.058 "/>
<path clip-path="url(#clip720)" d="M2218.91 166.745 Q2217.11 171.375 2215.39 172.787 Q2213.68 174.199 2210.81 174.199 L2207.41 174.199 L2207.41 170.634 L2209.91 170.634 Q2211.67 170.634 2212.64 169.8 Q2213.61 168.967 2214.79 165.865 L2215.56 163.921 L2205.07 138.412 L2209.58 138.412 L2217.69 158.689 L2225.79 138.412 L2230.3 138.412 L2218.91 166.745 Z" fill="#000000" fill-rule="nonzero" fill-opacity="1" /><path clip-path="url(#clip720)" d="M2237.59 160.402 L2245.23 160.402 L2245.23 134.037 L2236.92 135.703 L2236.92 131.444 L2245.19 129.778 L2249.86 129.778 L2249.86 160.402 L2257.5 160.402 L2257.5 164.338 L2237.59 164.338 L2237.59 160.402 Z" fill="#000000" fill-rule="nonzero" fill-opacity="1" /></svg>
