<?xml version="1.0" encoding="utf-8"?>
<svg xmlns="http://www.w3.org/2000/svg" xmlns:xlink="http://www.w3.org/1999/xlink" width="600" height="400" viewBox="0 0 2400 1600">
<defs>
  <clipPath id="clip360">
    <rect x="0" y="0" width="2400" height="1600"/>
  </clipPath>
</defs>
<path clip-path="url(#clip360)" d="M0 1600 L2400 1600 L2400 0 L0 0  Z" fill="#ffffff" fill-rule="evenodd" fill-opacity="1"/>
<defs>
  <clipPath id="clip361">
    <rect x="480" y="0" width="1681" height="1600"/>
  </clipPath>
</defs>
<path clip-path="url(#clip360)" d="M186.274 1486.45 L2352.76 1486.45 L2352.76 47.2441 L186.274 47.2441  Z" fill="#ffffff" fill-rule="evenodd" fill-opacity="1"/>
<defs>
  <clipPath id="clip362">
    <rect x="186" y="47" width="2167" height="1440"/>
  </clipPath>
</defs>
<polyline clip-path="url(#clip362)" style="stroke:#000000; stroke-linecap:round; stroke-linejoin:round; stroke-width:2; stroke-opacity:0.1; fill:none" points="226.945,1486.45 226.945,47.2441 "/>
<polyline clip-path="url(#clip362)" style="stroke:#000000; stroke-linecap:round; stroke-linejoin:round; stroke-width:2; stroke-opacity:0.1; fill:none" points="743.069,1486.45 743.069,47.2441 "/>
<polyline clip-path="url(#clip362)" style="stroke:#000000; stroke-linecap:round; stroke-linejoin:round; stroke-width:2; stroke-opacity:0.1; fill:none" points="1259.19,1486.45 1259.19,47.2441 "/>
<polyline clip-path="url(#clip362)" style="stroke:#000000; stroke-linecap:round; stroke-linejoin:round; stroke-width:2; stroke-opacity:0.1; fill:none" points="1775.32,1486.45 1775.32,47.2441 "/>
<polyline clip-path="url(#clip362)" style="stroke:#000000; stroke-linecap:round; stroke-linejoin:round; stroke-width:2; stroke-opacity:0.1; fill:none" points="2291.44,1486.45 2291.44,47.2441 "/>
<polyline clip-path="url(#clip360)" style="stroke:#000000; stroke-linecap:round; stroke-linejoin:round; stroke-width:4; stroke-opacity:1; fill:none" points="186.274,1486.45 2352.76,1486.45 "/>
<polyline clip-path="url(#clip360)" style="stroke:#000000; stroke-linecap:round; stroke-linejoin:round; stroke-width:4; stroke-opacity:1; fill:none" points="226.945,1486.45 226.945,1467.55 "/>
<polyline clip-path="url(#clip360)" style="stroke:#000000; stroke-linecap:round; stroke-linejoin:round; stroke-width:4; stroke-opacity:1; fill:none" points="743.069,1486.45 743.069,1467.55 "/>
<polyline clip-path="url(#clip360)" style="stroke:#000000; stroke-linecap:round; stroke-linejoin:round; stroke-width:4; stroke-opacity:1; fill:none" points="1259.19,1486.45 1259.19,1467.55 "/>
<polyline clip-path="url(#clip360)" style="stroke:#000000; stroke-linecap:round; stroke-linejoin:round; stroke-width:4; stroke-opacity:1; fill:none" points="1775.32,1486.45 1775.32,1467.55 "/>
<polyline clip-path="url(#clip360)" style="stroke:#000000; stroke-linecap:round; stroke-linejoin:round; stroke-width:4; stroke-opacity:1; fill:none" points="2291.44,1486.45 2291.44,1467.55 "/>
<path clip-path="url(#clip360)" d="M226.945 1517.37 Q223.333 1517.37 221.505 1520.93 Q219.699 1524.47 219.699 1531.6 Q219.699 1538.71 221.505 1542.27 Q223.333 1545.82 226.945 1545.82 Q230.579 1545.82 232.384 1542.27 Q234.213 1538.71 234.213 1531.6 Q234.213 1524.47 232.384 1520.93 Q230.579 1517.37 226.945 1517.37 M226.945 1513.66 Q232.755 1513.66 235.81 1518.27 Q238.889 1522.85 238.889 1531.6 Q238.889 1540.33 235.81 1544.94 Q232.755 1549.52 226.945 1549.52 Q221.134 1549.52 218.056 1544.94 Q215 1540.33 215 1531.6 Q215 1522.85 218.056 1518.27 Q221.134 1513.66 226.945 1513.66 Z" fill="#000000" fill-rule="nonzero" fill-opacity="1" /><path clip-path="url(#clip360)" d="M722.339 1544.91 L738.659 1544.91 L738.659 1548.85 L716.714 1548.85 L716.714 1544.91 Q719.377 1542.16 723.96 1537.53 Q728.566 1532.88 729.747 1531.53 Q731.992 1529.01 732.872 1527.27 Q733.775 1525.51 733.775 1523.82 Q733.775 1521.07 731.83 1519.33 Q729.909 1517.6 726.807 1517.6 Q724.608 1517.6 722.154 1518.36 Q719.724 1519.13 716.946 1520.68 L716.946 1515.95 Q719.77 1514.82 722.224 1514.24 Q724.677 1513.66 726.714 1513.66 Q732.085 1513.66 735.279 1516.35 Q738.474 1519.03 738.474 1523.52 Q738.474 1525.65 737.663 1527.57 Q736.876 1529.47 734.77 1532.07 Q734.191 1532.74 731.089 1535.95 Q727.988 1539.15 722.339 1544.91 Z" fill="#000000" fill-rule="nonzero" fill-opacity="1" /><path clip-path="url(#clip360)" d="M748.52 1514.29 L766.876 1514.29 L766.876 1518.22 L752.802 1518.22 L752.802 1526.7 Q753.821 1526.35 754.839 1526.19 Q755.858 1526 756.876 1526 Q762.663 1526 766.043 1529.17 Q769.423 1532.34 769.423 1537.76 Q769.423 1543.34 765.95 1546.44 Q762.478 1549.52 756.159 1549.52 Q753.983 1549.52 751.714 1549.15 Q749.469 1548.78 747.062 1548.04 L747.062 1543.34 Q749.145 1544.47 751.367 1545.03 Q753.589 1545.58 756.066 1545.58 Q760.071 1545.58 762.409 1543.48 Q764.747 1541.37 764.747 1537.76 Q764.747 1534.15 762.409 1532.04 Q760.071 1529.94 756.066 1529.94 Q754.191 1529.94 752.316 1530.35 Q750.464 1530.77 748.52 1531.65 L748.52 1514.29 Z" fill="#000000" fill-rule="nonzero" fill-opacity="1" /><path clip-path="url(#clip360)" d="M1233.89 1514.29 L1252.25 1514.29 L1252.25 1518.22 L1238.17 1518.22 L1238.17 1526.7 Q1239.19 1526.35 1240.21 1526.19 Q1241.23 1526 1242.25 1526 Q1248.04 1526 1251.41 1529.17 Q1254.79 1532.34 1254.79 1537.76 Q1254.79 1543.34 1251.32 1546.44 Q1247.85 1549.52 1241.53 1549.52 Q1239.35 1549.52 1237.09 1549.15 Q1234.84 1548.78 1232.43 1548.04 L1232.43 1543.34 Q1234.52 1544.47 1236.74 1545.03 Q1238.96 1545.58 1241.44 1545.58 Q1245.44 1545.58 1247.78 1543.48 Q1250.12 1541.37 1250.12 1537.76 Q1250.12 1534.15 1247.78 1532.04 Q1245.44 1529.94 1241.44 1529.94 Q1239.56 1529.94 1237.69 1530.35 Q1235.84 1530.77 1233.89 1531.65 L1233.89 1514.29 Z" fill="#000000" fill-rule="nonzero" fill-opacity="1" /><path clip-path="url(#clip360)" d="M1274.01 1517.37 Q1270.4 1517.37 1268.57 1520.93 Q1266.76 1524.47 1266.76 1531.6 Q1266.76 1538.71 1268.57 1542.27 Q1270.4 1545.82 1274.01 1545.82 Q1277.64 1545.82 1279.45 1542.27 Q1281.28 1538.71 1281.28 1531.6 Q1281.28 1524.47 1279.45 1520.93 Q1277.64 1517.37 1274.01 1517.37 M1274.01 1513.66 Q1279.82 1513.66 1282.87 1518.27 Q1285.95 1522.85 1285.95 1531.6 Q1285.95 1540.33 1282.87 1544.94 Q1279.82 1549.52 1274.01 1549.52 Q1268.2 1549.52 1265.12 1544.94 Q1262.06 1540.33 1262.06 1531.6 Q1262.06 1522.85 1265.12 1518.27 Q1268.2 1513.66 1274.01 1513.66 Z" fill="#000000" fill-rule="nonzero" fill-opacity="1" /><path clip-path="url(#clip360)" d="M1749.17 1514.29 L1771.39 1514.29 L1771.39 1516.28 L1758.85 1548.85 L1753.96 1548.85 L1765.77 1518.22 L1749.17 1518.22 L1749.17 1514.29 Z" fill="#000000" fill-rule="nonzero" fill-opacity="1" /><path clip-path="url(#clip360)" d="M1780.56 1514.29 L1798.92 1514.29 L1798.92 1518.22 L1784.84 1518.22 L1784.84 1526.7 Q1785.86 1526.35 1786.88 1526.19 Q1787.9 1526 1788.92 1526 Q1794.7 1526 1798.08 1529.17 Q1801.46 1532.34 1801.46 1537.76 Q1801.46 1543.34 1797.99 1546.44 Q1794.52 1549.52 1788.2 1549.52 Q1786.02 1549.52 1783.75 1549.15 Q1781.51 1548.78 1779.1 1548.04 L1779.1 1543.34 Q1781.18 1544.47 1783.41 1545.03 Q1785.63 1545.58 1788.11 1545.58 Q1792.11 1545.58 1794.45 1543.48 Q1796.79 1541.37 1796.79 1537.76 Q1796.79 1534.15 1794.45 1532.04 Q1792.11 1529.94 1788.11 1529.94 Q1786.23 1529.94 1784.36 1530.35 Q1782.5 1530.77 1780.56 1531.65 L1780.56 1514.29 Z" fill="#000000" fill-rule="nonzero" fill-opacity="1" /><path clip-path="url(#clip360)" d="M2251.05 1544.91 L2258.69 1544.91 L2258.69 1518.55 L2250.38 1520.21 L2250.38 1515.95 L2258.64 1514.29 L2263.32 1514.29 L2263.32 1544.91 L2270.95 1544.91 L2270.95 1548.85 L2251.05 1548.85 L2251.05 1544.91 Z" fill="#000000" fill-rule="nonzero" fill-opacity="1" /><path clip-path="url(#clip360)" d="M2290.4 1517.37 Q2286.79 1517.37 2284.96 1520.93 Q2283.15 1524.47 2283.15 1531.6 Q2283.15 1538.71 2284.96 1542.27 Q2286.79 1545.82 2290.4 1545.82 Q2294.03 1545.82 2295.84 1542.27 Q2297.67 1538.71 2297.67 1531.6 Q2297.67 1524.47 2295.84 1520.93 Q2294.03 1517.37 2290.4 1517.37 M2290.4 1513.66 Q2296.21 1513.66 2299.26 1518.27 Q2302.34 1522.85 2302.34 1531.6 Q2302.34 1540.33 2299.26 1544.94 Q2296.21 1549.52 2290.4 1549.52 Q2284.59 1549.52 2281.51 1544.94 Q2278.45 1540.33 2278.45 1531.6 Q2278.45 1522.85 2281.51 1518.27 Q2284.59 1513.66 2290.4 1513.66 Z" fill="#000000" fill-rule="nonzero" fill-opacity="1" /><path clip-path="url(#clip360)" d="M2320.56 1517.37 Q2316.95 1517.37 2315.12 1520.93 Q2313.32 1524.47 2313.32 1531.6 Q2313.32 1538.71 2315.12 1542.27 Q2316.95 1545.82 2320.56 1545.82 Q2324.19 1545.82 2326 1542.27 Q2327.83 1538.71 2327.83 1531.6 Q2327.83 1524.47 2326 1520.93 Q2324.19 1517.37 2320.56 1517.37 M2320.56 1513.66 Q2326.37 1513.66 2329.43 1518.27 Q2332.5 1522.85 2332.5 1531.6 Q2332.5 1540.33 2329.43 1544.94 Q2326.37 1549.52 2320.56 1549.52 Q2314.75 1549.52 2311.67 1544.94 Q2308.62 1540.33 2308.62 1531.6 Q2308.62 1522.85 2311.67 1518.27 Q2314.75 1513.66 2320.56 1513.66 Z" fill="#000000" fill-rule="nonzero" fill-opacity="1" /><polyline clip-path="url(#clip362)" style="stroke:#000000; stroke-linecap:round; stroke-linejoin:round; stroke-width:2; stroke-opacity:0.1; fill:none" points="186.274,1445.72 2352.76,1445.72 "/>
<polyline clip-path="url(#clip362)" style="stroke:#000000; stroke-linecap:round; stroke-linejoin:round; stroke-width:2; stroke-opacity:0.1; fill:none" points="186.274,1106.28 2352.76,1106.28 "/>
<polyline clip-path="url(#clip362)" style="stroke:#000000; stroke-linecap:round; stroke-linejoin:round; stroke-width:2; stroke-opacity:0.1; fill:none" points="186.274,766.846 2352.76,766.846 "/>
<polyline clip-path="url(#clip362)" style="stroke:#000000; stroke-linecap:round; stroke-linejoin:round; stroke-width:2; stroke-opacity:0.1; fill:none" points="186.274,427.411 2352.76,427.411 "/>
<polyline clip-path="url(#clip362)" style="stroke:#000000; stroke-linecap:round; stroke-linejoin:round; stroke-width:2; stroke-opacity:0.1; fill:none" points="186.274,87.9763 2352.76,87.9763 "/>
<polyline clip-path="url(#clip360)" style="stroke:#000000; stroke-linecap:round; stroke-linejoin:round; stroke-width:4; stroke-opacity:1; fill:none" points="186.274,1486.45 186.274,47.2441 "/>
<polyline clip-path="url(#clip360)" style="stroke:#000000; stroke-linecap:round; stroke-linejoin:round; stroke-width:4; stroke-opacity:1; fill:none" points="186.274,1445.72 205.172,1445.72 "/>
<polyline clip-path="url(#clip360)" style="stroke:#000000; stroke-linecap:round; stroke-linejoin:round; stroke-width:4; stroke-opacity:1; fill:none" points="186.274,1106.28 205.172,1106.28 "/>
<polyline clip-path="url(#clip360)" style="stroke:#000000; stroke-linecap:round; stroke-linejoin:round; stroke-width:4; stroke-opacity:1; fill:none" points="186.274,766.846 205.172,766.846 "/>
<polyline clip-path="url(#clip360)" style="stroke:#000000; stroke-linecap:round; stroke-linejoin:round; stroke-width:4; stroke-opacity:1; fill:none" points="186.274,427.411 205.172,427.411 "/>
<polyline clip-path="url(#clip360)" style="stroke:#000000; stroke-linecap:round; stroke-linejoin:round; stroke-width:4; stroke-opacity:1; fill:none" points="186.274,87.9763 205.172,87.9763 "/>
<path clip-path="url(#clip360)" d="M62.9365 1431.51 Q59.3254 1431.51 57.4967 1435.08 Q55.6912 1438.62 55.6912 1445.75 Q55.6912 1452.86 57.4967 1456.42 Q59.3254 1459.96 62.9365 1459.96 Q66.5707 1459.96 68.3763 1456.42 Q70.205 1452.86 70.205 1445.75 Q70.205 1438.62 68.3763 1435.08 Q66.5707 1431.51 62.9365 1431.51 M62.9365 1427.81 Q68.7467 1427.81 71.8022 1432.42 Q74.8809 1437 74.8809 1445.75 Q74.8809 1454.48 71.8022 1459.08 Q68.7467 1463.67 62.9365 1463.67 Q57.1264 1463.67 54.0477 1459.08 Q50.9921 1454.48 50.9921 1445.75 Q50.9921 1437 54.0477 1432.42 Q57.1264 1427.81 62.9365 1427.81 Z" fill="#000000" fill-rule="nonzero" fill-opacity="1" /><path clip-path="url(#clip360)" d="M83.0984 1457.12 L87.9827 1457.12 L87.9827 1463 L83.0984 1463 L83.0984 1457.12 Z" fill="#000000" fill-rule="nonzero" fill-opacity="1" /><path clip-path="url(#clip360)" d="M108.168 1431.51 Q104.557 1431.51 102.728 1435.08 Q100.922 1438.62 100.922 1445.75 Q100.922 1452.86 102.728 1456.42 Q104.557 1459.96 108.168 1459.96 Q111.802 1459.96 113.608 1456.42 Q115.436 1452.86 115.436 1445.75 Q115.436 1438.62 113.608 1435.08 Q111.802 1431.51 108.168 1431.51 M108.168 1427.81 Q113.978 1427.81 117.033 1432.42 Q120.112 1437 120.112 1445.75 Q120.112 1454.48 117.033 1459.08 Q113.978 1463.67 108.168 1463.67 Q102.358 1463.67 99.2789 1459.08 Q96.2234 1454.48 96.2234 1445.75 Q96.2234 1437 99.2789 1432.42 Q102.358 1427.81 108.168 1427.81 Z" fill="#000000" fill-rule="nonzero" fill-opacity="1" /><path clip-path="url(#clip360)" d="M138.33 1431.51 Q134.719 1431.51 132.89 1435.08 Q131.084 1438.62 131.084 1445.75 Q131.084 1452.86 132.89 1456.42 Q134.719 1459.96 138.33 1459.96 Q141.964 1459.96 143.769 1456.42 Q145.598 1452.86 145.598 1445.75 Q145.598 1438.62 143.769 1435.08 Q141.964 1431.51 138.33 1431.51 M138.33 1427.81 Q144.14 1427.81 147.195 1432.42 Q150.274 1437 150.274 1445.75 Q150.274 1454.48 147.195 1459.08 Q144.14 1463.67 138.33 1463.67 Q132.519 1463.67 129.441 1459.08 Q126.385 1454.48 126.385 1445.75 Q126.385 1437 129.441 1432.42 Q132.519 1427.81 138.33 1427.81 Z" fill="#000000" fill-rule="nonzero" fill-opacity="1" /><path clip-path="url(#clip360)" d="M63.9319 1092.08 Q60.3208 1092.08 58.4921 1095.64 Q56.6865 1099.19 56.6865 1106.32 Q56.6865 1113.42 58.4921 1116.99 Q60.3208 1120.53 63.9319 1120.53 Q67.5661 1120.53 69.3717 1116.99 Q71.2004 1113.42 71.2004 1106.32 Q71.2004 1099.19 69.3717 1095.64 Q67.5661 1092.08 63.9319 1092.08 M63.9319 1088.38 Q69.742 1088.38 72.7976 1092.98 Q75.8763 1097.57 75.8763 1106.32 Q75.8763 1115.04 72.7976 1119.65 Q69.742 1124.23 63.9319 1124.23 Q58.1217 1124.23 55.043 1119.65 Q51.9875 1115.04 51.9875 1106.32 Q51.9875 1097.57 55.043 1092.98 Q58.1217 1088.38 63.9319 1088.38 Z" fill="#000000" fill-rule="nonzero" fill-opacity="1" /><path clip-path="url(#clip360)" d="M84.0938 1117.68 L88.978 1117.68 L88.978 1123.56 L84.0938 1123.56 L84.0938 1117.68 Z" fill="#000000" fill-rule="nonzero" fill-opacity="1" /><path clip-path="url(#clip360)" d="M103.191 1119.63 L119.51 1119.63 L119.51 1123.56 L97.566 1123.56 L97.566 1119.63 Q100.228 1116.87 104.811 1112.24 Q109.418 1107.59 110.598 1106.25 Q112.844 1103.72 113.723 1101.99 Q114.626 1100.23 114.626 1098.54 Q114.626 1095.78 112.682 1094.05 Q110.76 1092.31 107.658 1092.31 Q105.459 1092.31 103.006 1093.07 Q100.575 1093.84 97.7974 1095.39 L97.7974 1090.67 Q100.621 1089.53 103.075 1088.95 Q105.529 1088.38 107.566 1088.38 Q112.936 1088.38 116.131 1091.06 Q119.325 1093.75 119.325 1098.24 Q119.325 1100.37 118.515 1102.29 Q117.728 1104.19 115.621 1106.78 Q115.043 1107.45 111.941 1110.67 Q108.839 1113.86 103.191 1119.63 Z" fill="#000000" fill-rule="nonzero" fill-opacity="1" /><path clip-path="url(#clip360)" d="M129.371 1089 L147.728 1089 L147.728 1092.94 L133.654 1092.94 L133.654 1101.41 Q134.672 1101.06 135.691 1100.9 Q136.709 1100.71 137.728 1100.71 Q143.515 1100.71 146.894 1103.89 Q150.274 1107.06 150.274 1112.47 Q150.274 1118.05 146.802 1121.15 Q143.33 1124.23 137.01 1124.23 Q134.834 1124.23 132.566 1123.86 Q130.32 1123.49 127.913 1122.75 L127.913 1118.05 Q129.996 1119.19 132.219 1119.74 Q134.441 1120.3 136.918 1120.3 Q140.922 1120.3 143.26 1118.19 Q145.598 1116.08 145.598 1112.47 Q145.598 1108.86 143.26 1106.76 Q140.922 1104.65 136.918 1104.65 Q135.043 1104.65 133.168 1105.07 Q131.316 1105.48 129.371 1106.36 L129.371 1089 Z" fill="#000000" fill-rule="nonzero" fill-opacity="1" /><path clip-path="url(#clip360)" d="M62.9365 752.645 Q59.3254 752.645 57.4967 756.209 Q55.6912 759.751 55.6912 766.881 Q55.6912 773.987 57.4967 777.552 Q59.3254 781.094 62.9365 781.094 Q66.5707 781.094 68.3763 777.552 Q70.205 773.987 70.205 766.881 Q70.205 759.751 68.3763 756.209 Q66.5707 752.645 62.9365 752.645 M62.9365 748.941 Q68.7467 748.941 71.8022 753.547 Q74.8809 758.131 74.8809 766.881 Q74.8809 775.608 71.8022 780.214 Q68.7467 784.797 62.9365 784.797 Q57.1264 784.797 54.0477 780.214 Q50.9921 775.608 50.9921 766.881 Q50.9921 758.131 54.0477 753.547 Q57.1264 748.941 62.9365 748.941 Z" fill="#000000" fill-rule="nonzero" fill-opacity="1" /><path clip-path="url(#clip360)" d="M83.0984 778.246 L87.9827 778.246 L87.9827 784.126 L83.0984 784.126 L83.0984 778.246 Z" fill="#000000" fill-rule="nonzero" fill-opacity="1" /><path clip-path="url(#clip360)" d="M98.2141 749.566 L116.57 749.566 L116.57 753.501 L102.496 753.501 L102.496 761.973 Q103.515 761.626 104.534 761.464 Q105.552 761.279 106.571 761.279 Q112.358 761.279 115.737 764.45 Q119.117 767.621 119.117 773.038 Q119.117 778.617 115.645 781.719 Q112.172 784.797 105.853 784.797 Q103.677 784.797 101.409 784.427 Q99.1632 784.057 96.7558 783.316 L96.7558 778.617 Q98.8391 779.751 101.061 780.307 Q103.284 780.862 105.76 780.862 Q109.765 780.862 112.103 778.756 Q114.441 776.649 114.441 773.038 Q114.441 769.427 112.103 767.321 Q109.765 765.214 105.76 765.214 Q103.885 765.214 102.01 765.631 Q100.159 766.047 98.2141 766.927 L98.2141 749.566 Z" fill="#000000" fill-rule="nonzero" fill-opacity="1" /><path clip-path="url(#clip360)" d="M138.33 752.645 Q134.719 752.645 132.89 756.209 Q131.084 759.751 131.084 766.881 Q131.084 773.987 132.89 777.552 Q134.719 781.094 138.33 781.094 Q141.964 781.094 143.769 777.552 Q145.598 773.987 145.598 766.881 Q145.598 759.751 143.769 756.209 Q141.964 752.645 138.33 752.645 M138.33 748.941 Q144.14 748.941 147.195 753.547 Q150.274 758.131 150.274 766.881 Q150.274 775.608 147.195 780.214 Q144.14 784.797 138.33 784.797 Q132.519 784.797 129.441 780.214 Q126.385 775.608 126.385 766.881 Q126.385 758.131 129.441 753.547 Q132.519 748.941 138.33 748.941 Z" fill="#000000" fill-rule="nonzero" fill-opacity="1" /><path clip-path="url(#clip360)" d="M63.9319 413.21 Q60.3208 413.21 58.4921 416.775 Q56.6865 420.316 56.6865 427.446 Q56.6865 434.552 58.4921 438.117 Q60.3208 441.659 63.9319 441.659 Q67.5661 441.659 69.3717 438.117 Q71.2004 434.552 71.2004 427.446 Q71.2004 420.316 69.3717 416.775 Q67.5661 413.21 63.9319 413.21 M63.9319 409.506 Q69.742 409.506 72.7976 414.113 Q75.8763 418.696 75.8763 427.446 Q75.8763 436.173 72.7976 440.779 Q69.742 445.362 63.9319 445.362 Q58.1217 445.362 55.043 440.779 Q51.9875 436.173 51.9875 427.446 Q51.9875 418.696 55.043 414.113 Q58.1217 409.506 63.9319 409.506 Z" fill="#000000" fill-rule="nonzero" fill-opacity="1" /><path clip-path="url(#clip360)" d="M84.0938 438.812 L88.978 438.812 L88.978 444.691 L84.0938 444.691 L84.0938 438.812 Z" fill="#000000" fill-rule="nonzero" fill-opacity="1" /><path clip-path="url(#clip360)" d="M97.9826 410.131 L120.205 410.131 L120.205 412.122 L107.658 444.691 L102.774 444.691 L114.58 414.066 L97.9826 414.066 L97.9826 410.131 Z" fill="#000000" fill-rule="nonzero" fill-opacity="1" /><path clip-path="url(#clip360)" d="M129.371 410.131 L147.728 410.131 L147.728 414.066 L133.654 414.066 L133.654 422.538 Q134.672 422.191 135.691 422.029 Q136.709 421.844 137.728 421.844 Q143.515 421.844 146.894 425.015 Q150.274 428.187 150.274 433.603 Q150.274 439.182 146.802 442.284 Q143.33 445.362 137.01 445.362 Q134.834 445.362 132.566 444.992 Q130.32 444.622 127.913 443.881 L127.913 439.182 Q129.996 440.316 132.219 440.872 Q134.441 441.427 136.918 441.427 Q140.922 441.427 143.26 439.321 Q145.598 437.214 145.598 433.603 Q145.598 429.992 143.26 427.886 Q140.922 425.779 136.918 425.779 Q135.043 425.779 133.168 426.196 Q131.316 426.613 129.371 427.492 L129.371 410.131 Z" fill="#000000" fill-rule="nonzero" fill-opacity="1" /><path clip-path="url(#clip360)" d="M53.7467 101.321 L61.3856 101.321 L61.3856 74.9555 L53.0754 76.6222 L53.0754 72.3629 L61.3393 70.6963 L66.0152 70.6963 L66.0152 101.321 L73.654 101.321 L73.654 105.256 L53.7467 105.256 L53.7467 101.321 Z" fill="#000000" fill-rule="nonzero" fill-opacity="1" /><path clip-path="url(#clip360)" d="M83.0984 99.3767 L87.9827 99.3767 L87.9827 105.256 L83.0984 105.256 L83.0984 99.3767 Z" fill="#000000" fill-rule="nonzero" fill-opacity="1" /><path clip-path="url(#clip360)" d="M108.168 73.775 Q104.557 73.775 102.728 77.3398 Q100.922 80.8814 100.922 88.011 Q100.922 95.1174 102.728 98.6822 Q104.557 102.224 108.168 102.224 Q111.802 102.224 113.608 98.6822 Q115.436 95.1174 115.436 88.011 Q115.436 80.8814 113.608 77.3398 Q111.802 73.775 108.168 73.775 M108.168 70.0713 Q113.978 70.0713 117.033 74.6777 Q120.112 79.261 120.112 88.011 Q120.112 96.7378 117.033 101.344 Q113.978 105.928 108.168 105.928 Q102.358 105.928 99.2789 101.344 Q96.2234 96.7378 96.2234 88.011 Q96.2234 79.261 99.2789 74.6777 Q102.358 70.0713 108.168 70.0713 Z" fill="#000000" fill-rule="nonzero" fill-opacity="1" /><path clip-path="url(#clip360)" d="M138.33 73.775 Q134.719 73.775 132.89 77.3398 Q131.084 80.8814 131.084 88.011 Q131.084 95.1174 132.89 98.6822 Q134.719 102.224 138.33 102.224 Q141.964 102.224 143.769 98.6822 Q145.598 95.1174 145.598 88.011 Q145.598 80.8814 143.769 77.3398 Q141.964 73.775 138.33 73.775 M138.33 70.0713 Q144.14 70.0713 147.195 74.6777 Q150.274 79.261 150.274 88.011 Q150.274 96.7378 147.195 101.344 Q144.14 105.928 138.33 105.928 Q132.519 105.928 129.441 101.344 Q126.385 96.7378 126.385 88.011 Q126.385 79.261 129.441 74.6777 Q132.519 70.0713 138.33 70.0713 Z" fill="#000000" fill-rule="nonzero" fill-opacity="1" /><path clip-path="url(#clip362)" d="M247.59 1427.78 L268.234 1425.71 L288.879 1425.7 L309.524 1425.7 L330.169 1425.69 L350.814 1425.69 L371.459 1425.68 L392.104 1425.67 L412.749 1425.66 L433.394 1425.66 L454.039 1425.65 L474.684 1425.65 L495.329 1425.64 L515.974 1425.63 L536.619 1425.63 L557.264 1425.62 L577.909 1425.61 L598.554 1425.61 L619.199 1425.6 L639.844 1425.59 L660.489 1425.59 L681.134 1425.58 L701.779 1425.57 L722.424 1425.57 L743.069 1425.56 L763.713 1425.55 L784.358 1425.55 L805.003 1425.54 L825.648 1425.54 L846.293 1425.53 L866.938 1425.53 L887.583 1425.52 L908.228 1425.51 L928.873 1425.51 L949.518 1425.5 L970.163 1425.49 L990.808 1425.49 L1011.45 1425.48 L1032.1 1425.47 L1052.74 1425.47 L1073.39 1425.46 L1094.03 1425.45 L1114.68 1425.44 L1135.32 1425.44 L1155.97 1425.43 L1176.61 1425.43 L1197.26 1425.42 L1217.9 1425.41 L1238.55 1425.41 L1259.19 1425.4 L1279.84 1425.4 L1300.48 1425.39 L1321.13 1425.38 L1341.77 1425.38 L1362.42 1425.37 L1383.06 1425.36 L1403.71 1425.36 L1424.35 1425.35 L1445 1425.35 L1465.64 1425.34 L1486.29 1425.33 L1506.93 1425.33 L1527.58 1425.32 L1548.22 1425.31 L1568.87 1425.31 L1589.51 1425.3 L1610.16 1425.3 L1630.8 1425.29 L1651.45 1425.28 L1672.09 1425.28 L1692.74 1425.27 L1713.38 1425.26 L1734.03 1425.26 L1754.67 1425.25 L1775.32 1425.24 L1795.96 1425.23 L1816.61 1425.23 L1837.25 1425.22 L1857.9 1425.22 L1878.54 1425.21 L1899.19 1425.2 L1919.83 1425.2 L1940.48 1425.19 L1961.12 1425.18 L1981.77 1425.18 L2002.41 1425.17 L2023.06 1425.16 L2043.7 1425.16 L2064.35 1425.15 L2084.99 1425.14 L2105.64 1425.14 L2126.28 1425.13 L2146.93 1425.12 L2167.57 1425.11 L2188.22 1425.1 L2208.86 1425.1 L2229.51 1425.09 L2250.15 1425.09 L2270.8 1425.08 L2291.44 1425.07 L2291.44 1445.72 L2270.8 1445.72 L2250.15 1445.72 L2229.51 1445.72 L2208.86 1445.72 L2188.22 1445.72 L2167.57 1445.72 L2146.93 1445.72 L2126.28 1445.72 L2105.64 1445.72 L2084.99 1445.72 L2064.35 1445.72 L2043.7 1445.72 L2023.06 1445.72 L2002.41 1445.72 L1981.77 1445.72 L1961.12 1445.72 L1940.48 1445.72 L1919.83 1445.72 L1899.19 1445.72 L1878.54 1445.72 L1857.9 1445.72 L1837.25 1445.72 L1816.61 1445.72 L1795.96 1445.72 L1775.32 1445.72 L1754.67 1445.72 L1734.03 1445.72 L1713.38 1445.72 L1692.74 1445.72 L1672.09 1445.72 L1651.45 1445.72 L1630.8 1445.72 L1610.16 1445.72 L1589.51 1445.72 L1568.87 1445.72 L1548.22 1445.72 L1527.58 1445.72 L1506.93 1445.72 L1486.29 1445.72 L1465.64 1445.72 L1445 1445.72 L1424.35 1445.72 L1403.71 1445.72 L1383.06 1445.72 L1362.42 1445.72 L1341.77 1445.72 L1321.13 1445.72 L1300.48 1445.72 L1279.84 1445.72 L1259.19 1445.72 L1238.55 1445.72 L1217.9 1445.72 L1197.26 1445.72 L1176.61 1445.72 L1155.97 1445.72 L1135.32 1445.72 L1114.68 1445.72 L1094.03 1445.72 L1073.39 1445.72 L1052.74 1445.72 L1032.1 1445.72 L1011.45 1445.72 L990.808 1445.72 L970.163 1445.72 L949.518 1445.72 L928.873 1445.72 L908.228 1445.72 L887.583 1445.72 L866.938 1445.72 L846.293 1445.72 L825.648 1445.72 L805.003 1445.72 L784.358 1445.72 L763.713 1445.72 L743.069 1445.72 L722.424 1445.72 L701.779 1445.72 L681.134 1445.72 L660.489 1445.72 L639.844 1445.72 L619.199 1445.72 L598.554 1445.72 L577.909 1445.72 L557.264 1445.72 L536.619 1445.72 L515.974 1445.72 L495.329 1445.72 L474.684 1445.72 L454.039 1445.72 L433.394 1445.72 L412.749 1445.72 L392.104 1445.72 L371.459 1445.72 L350.814 1445.72 L330.169 1445.72 L309.524 1445.72 L288.879 1445.72 L268.234 1445.72 L247.59 1445.72  Z" fill="#032333" fill-rule="evenodd" fill-opacity="1"/>
<polyline clip-path="url(#clip362)" style="stroke:#032333; stroke-linecap:round; stroke-linejoin:round; stroke-width:4; stroke-opacity:1; fill:none" points="247.59,1427.78 268.234,1425.71 288.879,1425.7 309.524,1425.7 330.169,1425.69 350.814,1425.69 371.459,1425.68 392.104,1425.67 412.749,1425.66 433.394,1425.66 454.039,1425.65 474.684,1425.65 495.329,1425.64 515.974,1425.63 536.619,1425.63 557.264,1425.62 577.909,1425.61 598.554,1425.61 619.199,1425.6 639.844,1425.59 660.489,1425.59 681.134,1425.58 701.779,1425.57 722.424,1425.57 743.069,1425.56 763.713,1425.55 784.358,1425.55 805.003,1425.54 825.648,1425.54 846.293,1425.53 866.938,1425.53 887.583,1425.52 908.228,1425.51 928.873,1425.51 949.518,1425.5 970.163,1425.49 990.808,1425.49 1011.45,1425.48 1032.1,1425.47 1052.74,1425.47 1073.39,1425.46 1094.03,1425.45 1114.68,1425.44 1135.32,1425.44 1155.97,1425.43 1176.61,1425.43 1197.26,1425.42 1217.9,1425.41 1238.55,1425.41 1259.19,1425.4 1279.84,1425.4 1300.48,1425.39 1321.13,1425.38 1341.77,1425.38 1362.42,1425.37 1383.06,1425.36 1403.71,1425.36 1424.35,1425.35 1445,1425.35 1465.64,1425.34 1486.29,1425.33 1506.93,1425.33 1527.58,1425.32 1548.22,1425.31 1568.87,1425.31 1589.51,1425.3 1610.16,1425.3 1630.8,1425.29 1651.45,1425.28 1672.09,1425.28 1692.74,1425.27 1713.38,1425.26 1734.03,1425.26 1754.67,1425.25 1775.32,1425.24 1795.96,1425.23 1816.61,1425.23 1837.25,1425.22 1857.9,1425.22 1878.54,1425.21 1899.19,1425.2 1919.83,1425.2 1940.48,1425.19 1961.12,1425.18 1981.77,1425.18 2002.41,1425.17 2023.06,1425.16 2043.7,1425.16 2064.35,1425.15 2084.99,1425.14 2105.64,1425.14 2126.28,1425.13 2146.93,1425.12 2167.57,1425.11 2188.22,1425.1 2208.86,1425.1 2229.51,1425.09 2250.15,1425.09 2270.8,1425.08 2291.44,1425.07 "/>
<path clip-path="url(#clip362)" d="M247.59 1424.25 L268.234 1421.77 L288.879 1421.76 L309.524 1421.75 L330.169 1421.74 L350.814 1421.74 L371.459 1421.73 L392.104 1421.72 L412.749 1421.71 L433.394 1421.7 L454.039 1421.69 L474.684 1421.68 L495.329 1421.68 L515.974 1421.67 L536.619 1421.66 L557.264 1421.65 L577.909 1421.64 L598.554 1421.63 L619.199 1421.62 L639.844 1421.61 L660.489 1421.6 L681.134 1421.59 L701.779 1421.59 L722.424 1421.58 L743.069 1421.57 L763.713 1421.56 L784.358 1421.55 L805.003 1421.55 L825.648 1421.54 L846.293 1421.53 L866.938 1421.52 L887.583 1421.51 L908.228 1421.5 L928.873 1421.49 L949.518 1421.49 L970.163 1421.48 L990.808 1421.47 L1011.45 1421.46 L1032.1 1421.45 L1052.74 1421.44 L1073.39 1421.43 L1094.03 1421.42 L1114.68 1421.41 L1135.32 1421.4 L1155.97 1421.4 L1176.61 1421.39 L1197.26 1421.38 L1217.9 1421.37 L1238.55 1421.36 L1259.19 1421.36 L1279.84 1421.35 L1300.48 1421.34 L1321.13 1421.33 L1341.77 1421.32 L1362.42 1421.31 L1383.06 1421.3 L1403.71 1421.3 L1424.35 1421.29 L1445 1421.28 L1465.64 1421.27 L1486.29 1421.26 L1506.93 1421.25 L1527.58 1421.24 L1548.22 1421.24 L1568.87 1421.23 L1589.51 1421.22 L1610.16 1421.21 L1630.8 1421.2 L1651.45 1421.19 L1672.09 1421.19 L1692.74 1421.18 L1713.38 1421.17 L1734.03 1421.16 L1754.67 1421.15 L1775.32 1421.14 L1795.96 1421.13 L1816.61 1421.12 L1837.25 1421.12 L1857.9 1421.11 L1878.54 1421.1 L1899.19 1421.09 L1919.83 1421.08 L1940.48 1421.07 L1961.12 1421.06 L1981.77 1421.06 L2002.41 1421.05 L2023.06 1421.04 L2043.7 1421.03 L2064.35 1421.02 L2084.99 1421.01 L2105.64 1421 L2126.28 1420.99 L2146.93 1420.98 L2167.57 1420.97 L2188.22 1420.96 L2208.86 1420.95 L2229.51 1420.94 L2250.15 1420.93 L2270.8 1420.92 L2291.44 1420.91 L2291.44 1425.07 L2270.8 1425.08 L2250.15 1425.09 L2229.51 1425.09 L2208.86 1425.1 L2188.22 1425.1 L2167.57 1425.11 L2146.93 1425.12 L2126.28 1425.13 L2105.64 1425.14 L2084.99 1425.14 L2064.35 1425.15 L2043.7 1425.16 L2023.06 1425.16 L2002.41 1425.17 L1981.77 1425.18 L1961.12 1425.18 L1940.48 1425.19 L1919.83 1425.2 L1899.19 1425.2 L1878.54 1425.21 L1857.9 1425.22 L1837.25 1425.22 L1816.61 1425.23 L1795.96 1425.23 L1775.32 1425.24 L1754.67 1425.25 L1734.03 1425.26 L1713.38 1425.26 L1692.74 1425.27 L1672.09 1425.28 L1651.45 1425.28 L1630.8 1425.29 L1610.16 1425.3 L1589.51 1425.3 L1568.87 1425.31 L1548.22 1425.31 L1527.58 1425.32 L1506.93 1425.33 L1486.29 1425.33 L1465.64 1425.34 L1445 1425.35 L1424.35 1425.35 L1403.71 1425.36 L1383.06 1425.36 L1362.42 1425.37 L1341.77 1425.38 L1321.13 1425.38 L1300.48 1425.39 L1279.84 1425.4 L1259.19 1425.4 L1238.55 1425.41 L1217.9 1425.41 L1197.26 1425.42 L1176.61 1425.43 L1155.97 1425.43 L1135.32 1425.44 L1114.68 1425.44 L1094.03 1425.45 L1073.39 1425.46 L1052.74 1425.47 L1032.1 1425.47 L1011.45 1425.48 L990.808 1425.49 L970.163 1425.49 L949.518 1425.5 L928.873 1425.51 L908.228 1425.51 L887.583 1425.52 L866.938 1425.53 L846.293 1425.53 L825.648 1425.54 L805.003 1425.54 L784.358 1425.55 L763.713 1425.55 L743.069 1425.56 L722.424 1425.57 L701.779 1425.57 L681.134 1425.58 L660.489 1425.59 L639.844 1425.59 L619.199 1425.6 L598.554 1425.61 L577.909 1425.61 L557.264 1425.62 L536.619 1425.63 L515.974 1425.63 L495.329 1425.64 L474.684 1425.65 L454.039 1425.65 L433.394 1425.66 L412.749 1425.66 L392.104 1425.67 L371.459 1425.68 L350.814 1425.69 L330.169 1425.69 L309.524 1425.7 L288.879 1425.7 L268.234 1425.71 L247.59 1427.78  Z" fill="#e7fa5a" fill-rule="evenodd" fill-opacity="1"/>
<polyline clip-path="url(#clip362)" style="stroke:#e7fa5a; stroke-linecap:round; stroke-linejoin:round; stroke-width:4; stroke-opacity:1; fill:none" points="247.59,1424.25 268.234,1421.77 288.879,1421.76 309.524,1421.75 330.169,1421.74 350.814,1421.74 371.459,1421.73 392.104,1421.72 412.749,1421.71 433.394,1421.7 454.039,1421.69 474.684,1421.68 495.329,1421.68 515.974,1421.67 536.619,1421.66 557.264,1421.65 577.909,1421.64 598.554,1421.63 619.199,1421.62 639.844,1421.61 660.489,1421.6 681.134,1421.59 701.779,1421.59 722.424,1421.58 743.069,1421.57 763.713,1421.56 784.358,1421.55 805.003,1421.55 825.648,1421.54 846.293,1421.53 866.938,1421.52 887.583,1421.51 908.228,1421.5 928.873,1421.49 949.518,1421.49 970.163,1421.48 990.808,1421.47 1011.45,1421.46 1032.1,1421.45 1052.74,1421.44 1073.39,1421.43 1094.03,1421.42 1114.68,1421.41 1135.32,1421.4 1155.97,1421.4 1176.61,1421.39 1197.26,1421.38 1217.9,1421.37 1238.55,1421.36 1259.19,1421.36 1279.84,1421.35 1300.48,1421.34 1321.13,1421.33 1341.77,1421.32 1362.42,1421.31 1383.06,1421.3 1403.71,1421.3 1424.35,1421.29 1445,1421.28 1465.64,1421.27 1486.29,1421.26 1506.93,1421.25 1527.58,1421.24 1548.22,1421.24 1568.87,1421.23 1589.51,1421.22 1610.16,1421.21 1630.8,1421.2 1651.45,1421.19 1672.09,1421.19 1692.74,1421.18 1713.38,1421.17 1734.03,1421.16 1754.67,1421.15 1775.32,1421.14 1795.96,1421.13 1816.61,1421.12 1837.25,1421.12 1857.9,1421.11 1878.54,1421.1 1899.19,1421.09 1919.83,1421.08 1940.48,1421.07 1961.12,1421.06 1981.77,1421.06 2002.41,1421.05 2023.06,1421.04 2043.7,1421.03 2064.35,1421.02 2084.99,1421.01 2105.64,1421 2126.28,1420.99 2146.93,1420.98 2167.57,1420.97 2188.22,1420.96 2208.86,1420.95 2229.51,1420.94 2250.15,1420.93 2270.8,1420.92 2291.44,1420.91 "/>
<path clip-path="url(#clip362)" d="M247.59 1242.15 L268.234 1241.7 L288.879 1241.68 L309.524 1241.65 L330.169 1241.62 L350.814 1241.59 L371.459 1241.55 L392.104 1241.52 L412.749 1241.49 L433.394 1241.45 L454.039 1241.43 L474.684 1241.4 L495.329 1241.37 L515.974 1241.35 L536.619 1241.31 L557.264 1241.28 L577.909 1241.25 L598.554 1241.23 L619.199 1241.19 L639.844 1241.16 L660.489 1241.13 L681.134 1241.09 L701.779 1241.06 L722.424 1241.04 L743.069 1241 L763.713 1240.96 L784.358 1240.93 L805.003 1240.92 L825.648 1240.88 L846.293 1240.85 L866.938 1240.81 L887.583 1240.77 L908.228 1240.74 L928.873 1240.71 L949.518 1240.69 L970.163 1240.65 L990.808 1240.62 L1011.45 1240.59 L1032.1 1240.55 L1052.74 1240.52 L1073.39 1240.49 L1094.03 1240.45 L1114.68 1240.41 L1135.32 1240.37 L1155.97 1240.35 L1176.61 1240.33 L1197.26 1240.31 L1217.9 1240.27 L1238.55 1240.25 L1259.19 1240.22 L1279.84 1240.19 L1300.48 1240.15 L1321.13 1240.11 L1341.77 1240.09 L1362.42 1240.06 L1383.06 1240.02 L1403.71 1239.99 L1424.35 1239.96 L1445 1239.94 L1465.64 1239.89 L1486.29 1239.86 L1506.93 1239.83 L1527.58 1239.8 L1548.22 1239.77 L1568.87 1239.75 L1589.51 1239.72 L1610.16 1239.69 L1630.8 1239.65 L1651.45 1239.62 L1672.09 1239.6 L1692.74 1239.57 L1713.38 1239.53 L1734.03 1239.51 L1754.67 1239.48 L1775.32 1239.44 L1795.96 1239.4 L1816.61 1239.36 L1837.25 1239.35 L1857.9 1239.31 L1878.54 1239.29 L1899.19 1239.25 L1919.83 1239.23 L1940.48 1239.19 L1961.12 1239.15 L1981.77 1239.11 L2002.41 1239.08 L2023.06 1239.03 L2043.7 1239 L2064.35 1238.96 L2084.99 1238.92 L2105.64 1238.9 L2126.28 1238.87 L2146.93 1238.83 L2167.57 1238.81 L2188.22 1238.78 L2208.86 1238.75 L2229.51 1238.72 L2250.15 1238.68 L2270.8 1238.63 L2291.44 1238.6 L2291.44 1420.91 L2270.8 1420.92 L2250.15 1420.93 L2229.51 1420.94 L2208.86 1420.95 L2188.22 1420.96 L2167.57 1420.97 L2146.93 1420.98 L2126.28 1420.99 L2105.64 1421 L2084.99 1421.01 L2064.35 1421.02 L2043.7 1421.03 L2023.06 1421.04 L2002.41 1421.05 L1981.77 1421.06 L1961.12 1421.06 L1940.48 1421.07 L1919.83 1421.08 L1899.19 1421.09 L1878.54 1421.1 L1857.9 1421.11 L1837.25 1421.12 L1816.61 1421.12 L1795.96 1421.13 L1775.32 1421.14 L1754.67 1421.15 L1734.03 1421.16 L1713.38 1421.17 L1692.74 1421.18 L1672.09 1421.19 L1651.45 1421.19 L1630.8 1421.2 L1610.16 1421.21 L1589.51 1421.22 L1568.87 1421.23 L1548.22 1421.24 L1527.58 1421.24 L1506.93 1421.25 L1486.29 1421.26 L1465.64 1421.27 L1445 1421.28 L1424.35 1421.29 L1403.71 1421.3 L1383.06 1421.3 L1362.42 1421.31 L1341.77 1421.32 L1321.13 1421.33 L1300.48 1421.34 L1279.84 1421.35 L1259.19 1421.36 L1238.55 1421.36 L1217.9 1421.37 L1197.26 1421.38 L1176.61 1421.39 L1155.97 1421.4 L1135.32 1421.4 L1114.68 1421.41 L1094.03 1421.42 L1073.39 1421.43 L1052.74 1421.44 L1032.1 1421.45 L1011.45 1421.46 L990.808 1421.47 L970.163 1421.48 L949.518 1421.49 L928.873 1421.49 L908.228 1421.5 L887.583 1421.51 L866.938 1421.52 L846.293 1421.53 L825.648 1421.54 L805.003 1421.55 L784.358 1421.55 L763.713 1421.56 L743.069 1421.57 L722.424 1421.58 L701.779 1421.59 L681.134 1421.59 L660.489 1421.6 L639.844 1421.61 L619.199 1421.62 L598.554 1421.63 L577.909 1421.64 L557.264 1421.65 L536.619 1421.66 L515.974 1421.67 L495.329 1421.68 L474.684 1421.68 L454.039 1421.69 L433.394 1421.7 L412.749 1421.71 L392.104 1421.72 L371.459 1421.73 L350.814 1421.74 L330.169 1421.74 L309.524 1421.75 L288.879 1421.76 L268.234 1421.77 L247.59 1424.25  Z" fill="#af5f81" fill-rule="evenodd" fill-opacity="1"/>
<polyline clip-path="url(#clip362)" style="stroke:#af5f81; stroke-linecap:round; stroke-linejoin:round; stroke-width:4; stroke-opacity:1; fill:none" points="247.59,1242.15 268.234,1241.7 288.879,1241.68 309.524,1241.65 330.169,1241.62 350.814,1241.59 371.459,1241.55 392.104,1241.52 412.749,1241.49 433.394,1241.45 454.039,1241.43 474.684,1241.4 495.329,1241.37 515.974,1241.35 536.619,1241.31 557.264,1241.28 577.909,1241.25 598.554,1241.23 619.199,1241.19 639.844,1241.16 660.489,1241.13 681.134,1241.09 701.779,1241.06 722.424,1241.04 743.069,1241 763.713,1240.96 784.358,1240.93 805.003,1240.92 825.648,1240.88 846.293,1240.85 866.938,1240.81 887.583,1240.77 908.228,1240.74 928.873,1240.71 949.518,1240.69 970.163,1240.65 990.808,1240.62 1011.45,1240.59 1032.1,1240.55 1052.74,1240.52 1073.39,1240.49 1094.03,1240.45 1114.68,1240.41 1135.32,1240.37 1155.97,1240.35 1176.61,1240.33 1197.26,1240.31 1217.9,1240.27 1238.55,1240.25 1259.19,1240.22 1279.84,1240.19 1300.48,1240.15 1321.13,1240.11 1341.77,1240.09 1362.42,1240.06 1383.06,1240.02 1403.71,1239.99 1424.35,1239.96 1445,1239.94 1465.64,1239.89 1486.29,1239.86 1506.93,1239.83 1527.58,1239.8 1548.22,1239.77 1568.87,1239.75 1589.51,1239.72 1610.16,1239.69 1630.8,1239.65 1651.45,1239.62 1672.09,1239.6 1692.74,1239.57 1713.38,1239.53 1734.03,1239.51 1754.67,1239.48 1775.32,1239.44 1795.96,1239.4 1816.61,1239.36 1837.25,1239.35 1857.9,1239.31 1878.54,1239.29 1899.19,1239.25 1919.83,1239.23 1940.48,1239.19 1961.12,1239.15 1981.77,1239.11 2002.41,1239.08 2023.06,1239.03 2043.7,1239 2064.35,1238.96 2084.99,1238.92 2105.64,1238.9 2126.28,1238.87 2146.93,1238.83 2167.57,1238.81 2188.22,1238.78 2208.86,1238.75 2229.51,1238.72 2250.15,1238.68 2270.8,1238.63 2291.44,1238.6 "/>
<path clip-path="url(#clip362)" d="M247.59 1206.27 L268.234 1206.23 L288.879 1206.19 L309.524 1206.15 L330.169 1206.11 L350.814 1206.06 L371.459 1206.01 L392.104 1205.97 L412.749 1205.93 L433.394 1205.88 L454.039 1205.85 L474.684 1205.81 L495.329 1205.77 L515.974 1205.74 L536.619 1205.68 L557.264 1205.64 L577.909 1205.59 L598.554 1205.57 L619.199 1205.51 L639.844 1205.47 L660.489 1205.42 L681.134 1205.37 L701.779 1205.33 L722.424 1205.29 L743.069 1205.24 L763.713 1205.18 L784.358 1205.14 L805.003 1205.12 L825.648 1205.07 L846.293 1205.02 L866.938 1204.96 L887.583 1204.91 L908.228 1204.87 L928.873 1204.82 L949.518 1204.79 L970.163 1204.74 L990.808 1204.7 L1011.45 1204.66 L1032.1 1204.61 L1052.74 1204.56 L1073.39 1204.52 L1094.03 1204.45 L1114.68 1204.4 L1135.32 1204.36 L1155.97 1204.32 L1176.61 1204.28 L1197.26 1204.26 L1217.9 1204.21 L1238.55 1204.18 L1259.19 1204.13 L1279.84 1204.09 L1300.48 1204.04 L1321.13 1203.99 L1341.77 1203.96 L1362.42 1203.92 L1383.06 1203.87 L1403.71 1203.83 L1424.35 1203.79 L1445 1203.75 L1465.64 1203.68 L1486.29 1203.64 L1506.93 1203.6 L1527.58 1203.56 L1548.22 1203.52 L1568.87 1203.48 L1589.51 1203.43 L1610.16 1203.39 L1630.8 1203.34 L1651.45 1203.3 L1672.09 1203.27 L1692.74 1203.23 L1713.38 1203.18 L1734.03 1203.15 L1754.67 1203.1 L1775.32 1203.05 L1795.96 1202.99 L1816.61 1202.94 L1837.25 1202.92 L1857.9 1202.87 L1878.54 1202.83 L1899.19 1202.78 L1919.83 1202.75 L1940.48 1202.7 L1961.12 1202.64 L1981.77 1202.59 L2002.41 1202.55 L2023.06 1202.48 L2043.7 1202.43 L2064.35 1202.38 L2084.99 1202.32 L2105.64 1202.29 L2126.28 1202.25 L2146.93 1202.19 L2167.57 1202.15 L2188.22 1202.11 L2208.86 1202.07 L2229.51 1202.02 L2250.15 1201.98 L2270.8 1201.91 L2291.44 1201.87 L2291.44 1238.6 L2270.8 1238.63 L2250.15 1238.68 L2229.51 1238.72 L2208.86 1238.75 L2188.22 1238.78 L2167.57 1238.81 L2146.93 1238.83 L2126.28 1238.87 L2105.64 1238.9 L2084.99 1238.92 L2064.35 1238.96 L2043.7 1239 L2023.06 1239.03 L2002.41 1239.08 L1981.77 1239.11 L1961.12 1239.15 L1940.48 1239.19 L1919.83 1239.23 L1899.19 1239.25 L1878.54 1239.29 L1857.9 1239.31 L1837.25 1239.35 L1816.61 1239.36 L1795.96 1239.4 L1775.32 1239.44 L1754.67 1239.48 L1734.03 1239.51 L1713.38 1239.53 L1692.74 1239.57 L1672.09 1239.6 L1651.45 1239.62 L1630.8 1239.65 L1610.16 1239.69 L1589.51 1239.72 L1568.87 1239.75 L1548.22 1239.77 L1527.58 1239.8 L1506.93 1239.83 L1486.29 1239.86 L1465.64 1239.89 L1445 1239.94 L1424.35 1239.96 L1403.71 1239.99 L1383.06 1240.02 L1362.42 1240.06 L1341.77 1240.09 L1321.13 1240.11 L1300.48 1240.15 L1279.84 1240.19 L1259.19 1240.22 L1238.55 1240.25 L1217.9 1240.27 L1197.26 1240.31 L1176.61 1240.33 L1155.97 1240.35 L1135.32 1240.37 L1114.68 1240.41 L1094.03 1240.45 L1073.39 1240.49 L1052.74 1240.52 L1032.1 1240.55 L1011.45 1240.59 L990.808 1240.62 L970.163 1240.65 L949.518 1240.69 L928.873 1240.71 L908.228 1240.74 L887.583 1240.77 L866.938 1240.81 L846.293 1240.85 L825.648 1240.88 L805.003 1240.92 L784.358 1240.93 L763.713 1240.96 L743.069 1241 L722.424 1241.04 L701.779 1241.06 L681.134 1241.09 L660.489 1241.13 L639.844 1241.16 L619.199 1241.19 L598.554 1241.23 L577.909 1241.25 L557.264 1241.28 L536.619 1241.31 L515.974 1241.35 L495.329 1241.37 L474.684 1241.4 L454.039 1241.43 L433.394 1241.45 L412.749 1241.49 L392.104 1241.52 L371.459 1241.55 L350.814 1241.59 L330.169 1241.62 L309.524 1241.65 L288.879 1241.68 L268.234 1241.7 L247.59 1242.15  Z" fill="#553b9c" fill-rule="evenodd" fill-opacity="1"/>
<polyline clip-path="url(#clip362)" style="stroke:#553b9c; stroke-linecap:round; stroke-linejoin:round; stroke-width:4; stroke-opacity:1; fill:none" points="247.59,1206.27 268.234,1206.23 288.879,1206.19 309.524,1206.15 330.169,1206.11 350.814,1206.06 371.459,1206.01 392.104,1205.97 412.749,1205.93 433.394,1205.88 454.039,1205.85 474.684,1205.81 495.329,1205.77 515.974,1205.74 536.619,1205.68 557.264,1205.64 577.909,1205.59 598.554,1205.57 619.199,1205.51 639.844,1205.47 660.489,1205.42 681.134,1205.37 701.779,1205.33 722.424,1205.29 743.069,1205.24 763.713,1205.18 784.358,1205.14 805.003,1205.12 825.648,1205.07 846.293,1205.02 866.938,1204.96 887.583,1204.91 908.228,1204.87 928.873,1204.82 949.518,1204.79 970.163,1204.74 990.808,1204.7 1011.45,1204.66 1032.1,1204.61 1052.74,1204.56 1073.39,1204.52 1094.03,1204.45 1114.68,1204.4 1135.32,1204.36 1155.97,1204.32 1176.61,1204.28 1197.26,1204.26 1217.9,1204.21 1238.55,1204.18 1259.19,1204.13 1279.84,1204.09 1300.48,1204.04 1321.13,1203.99 1341.77,1203.96 1362.42,1203.92 1383.06,1203.87 1403.71,1203.83 1424.35,1203.79 1445,1203.75 1465.64,1203.68 1486.29,1203.64 1506.93,1203.6 1527.58,1203.56 1548.22,1203.52 1568.87,1203.48 1589.51,1203.43 1610.16,1203.39 1630.8,1203.34 1651.45,1203.3 1672.09,1203.27 1692.74,1203.23 1713.38,1203.18 1734.03,1203.15 1754.67,1203.1 1775.32,1203.05 1795.96,1202.99 1816.61,1202.94 1837.25,1202.92 1857.9,1202.87 1878.54,1202.83 1899.19,1202.78 1919.83,1202.75 1940.48,1202.7 1961.12,1202.64 1981.77,1202.59 2002.41,1202.55 2023.06,1202.48 2043.7,1202.43 2064.35,1202.38 2084.99,1202.32 2105.64,1202.29 2126.28,1202.25 2146.93,1202.19 2167.57,1202.15 2188.22,1202.11 2208.86,1202.07 2229.51,1202.02 2250.15,1201.98 2270.8,1201.91 2291.44,1201.87 "/>
<path clip-path="url(#clip362)" d="M247.59 1122.52 L268.234 1112.81 L288.879 1112.76 L309.524 1112.71 L330.169 1112.66 L350.814 1112.61 L371.459 1112.55 L392.104 1112.5 L412.749 1112.44 L433.394 1112.39 L454.039 1112.35 L474.684 1112.3 L495.329 1112.25 L515.974 1112.2 L536.619 1112.13 L557.264 1112.08 L577.909 1112.03 L598.554 1111.99 L619.199 1111.92 L639.844 1111.87 L660.489 1111.82 L681.134 1111.75 L701.779 1111.7 L722.424 1111.66 L743.069 1111.6 L763.713 1111.54 L784.358 1111.49 L805.003 1111.46 L825.648 1111.4 L846.293 1111.35 L866.938 1111.29 L887.583 1111.23 L908.228 1111.18 L928.873 1111.13 L949.518 1111.08 L970.163 1111.02 L990.808 1110.97 L1011.45 1110.91 L1032.1 1110.85 L1052.74 1110.8 L1073.39 1110.74 L1094.03 1110.67 L1114.68 1110.61 L1135.32 1110.56 L1155.97 1110.52 L1176.61 1110.47 L1197.26 1110.43 L1217.9 1110.37 L1238.55 1110.34 L1259.19 1110.28 L1279.84 1110.23 L1300.48 1110.17 L1321.13 1110.11 L1341.77 1110.07 L1362.42 1110.02 L1383.06 1109.96 L1403.71 1109.91 L1424.35 1109.86 L1445 1109.82 L1465.64 1109.74 L1486.29 1109.7 L1506.93 1109.65 L1527.58 1109.59 L1548.22 1109.54 L1568.87 1109.5 L1589.51 1109.45 L1610.16 1109.4 L1630.8 1109.34 L1651.45 1109.29 L1672.09 1109.25 L1692.74 1109.2 L1713.38 1109.13 L1734.03 1109.09 L1754.67 1109.04 L1775.32 1108.98 L1795.96 1108.91 L1816.61 1108.85 L1837.25 1108.81 L1857.9 1108.75 L1878.54 1108.71 L1899.19 1108.65 L1919.83 1108.61 L1940.48 1108.55 L1961.12 1108.49 L1981.77 1108.43 L2002.41 1108.39 L2023.06 1108.32 L2043.7 1108.26 L2064.35 1108.19 L2084.99 1108.13 L2105.64 1108.08 L2126.28 1108.02 L2146.93 1107.96 L2167.57 1107.91 L2188.22 1107.85 L2208.86 1107.81 L2229.51 1107.75 L2250.15 1107.69 L2270.8 1107.61 L2291.44 1107.55 L2291.44 1201.87 L2270.8 1201.91 L2250.15 1201.98 L2229.51 1202.02 L2208.86 1202.07 L2188.22 1202.11 L2167.57 1202.15 L2146.93 1202.19 L2126.28 1202.25 L2105.64 1202.29 L2084.99 1202.32 L2064.35 1202.38 L2043.7 1202.43 L2023.06 1202.48 L2002.41 1202.55 L1981.77 1202.59 L1961.12 1202.64 L1940.48 1202.7 L1919.83 1202.75 L1899.19 1202.78 L1878.54 1202.83 L1857.9 1202.87 L1837.25 1202.92 L1816.61 1202.94 L1795.96 1202.99 L1775.32 1203.05 L1754.67 1203.1 L1734.03 1203.15 L1713.38 1203.18 L1692.74 1203.23 L1672.09 1203.27 L1651.45 1203.3 L1630.8 1203.34 L1610.16 1203.39 L1589.51 1203.43 L1568.87 1203.48 L1548.22 1203.52 L1527.58 1203.56 L1506.93 1203.6 L1486.29 1203.64 L1465.64 1203.68 L1445 1203.75 L1424.35 1203.79 L1403.71 1203.83 L1383.06 1203.87 L1362.42 1203.92 L1341.77 1203.96 L1321.13 1203.99 L1300.48 1204.04 L1279.84 1204.09 L1259.19 1204.13 L1238.55 1204.18 L1217.9 1204.21 L1197.26 1204.26 L1176.61 1204.28 L1155.97 1204.32 L1135.32 1204.36 L1114.68 1204.4 L1094.03 1204.45 L1073.39 1204.52 L1052.74 1204.56 L1032.1 1204.61 L1011.45 1204.66 L990.808 1204.7 L970.163 1204.74 L949.518 1204.79 L928.873 1204.82 L908.228 1204.87 L887.583 1204.91 L866.938 1204.96 L846.293 1205.02 L825.648 1205.07 L805.003 1205.12 L784.358 1205.14 L763.713 1205.18 L743.069 1205.24 L722.424 1205.29 L701.779 1205.33 L681.134 1205.37 L660.489 1205.42 L639.844 1205.47 L619.199 1205.51 L598.554 1205.57 L577.909 1205.59 L557.264 1205.64 L536.619 1205.68 L515.974 1205.74 L495.329 1205.77 L474.684 1205.81 L454.039 1205.85 L433.394 1205.88 L412.749 1205.93 L392.104 1205.97 L371.459 1206.01 L350.814 1206.06 L330.169 1206.11 L309.524 1206.15 L288.879 1206.19 L268.234 1206.23 L247.59 1206.27  Z" fill="#f99241" fill-rule="evenodd" fill-opacity="1"/>
<polyline clip-path="url(#clip362)" style="stroke:#f99241; stroke-linecap:round; stroke-linejoin:round; stroke-width:4; stroke-opacity:1; fill:none" points="247.59,1122.52 268.234,1112.81 288.879,1112.76 309.524,1112.71 330.169,1112.66 350.814,1112.61 371.459,1112.55 392.104,1112.5 412.749,1112.44 433.394,1112.39 454.039,1112.35 474.684,1112.3 495.329,1112.25 515.974,1112.2 536.619,1112.13 557.264,1112.08 577.909,1112.03 598.554,1111.99 619.199,1111.92 639.844,1111.87 660.489,1111.82 681.134,1111.75 701.779,1111.7 722.424,1111.66 743.069,1111.6 763.713,1111.54 784.358,1111.49 805.003,1111.46 825.648,1111.4 846.293,1111.35 866.938,1111.29 887.583,1111.23 908.228,1111.18 928.873,1111.13 949.518,1111.08 970.163,1111.02 990.808,1110.97 1011.45,1110.91 1032.1,1110.85 1052.74,1110.8 1073.39,1110.74 1094.03,1110.67 1114.68,1110.61 1135.32,1110.56 1155.97,1110.52 1176.61,1110.47 1197.26,1110.43 1217.9,1110.37 1238.55,1110.34 1259.19,1110.28 1279.84,1110.23 1300.48,1110.17 1321.13,1110.11 1341.77,1110.07 1362.42,1110.02 1383.06,1109.96 1403.71,1109.91 1424.35,1109.86 1445,1109.82 1465.64,1109.74 1486.29,1109.7 1506.93,1109.65 1527.58,1109.59 1548.22,1109.54 1568.87,1109.5 1589.51,1109.45 1610.16,1109.4 1630.8,1109.34 1651.45,1109.29 1672.09,1109.25 1692.74,1109.2 1713.38,1109.13 1734.03,1109.09 1754.67,1109.04 1775.32,1108.98 1795.96,1108.91 1816.61,1108.85 1837.25,1108.81 1857.9,1108.75 1878.54,1108.71 1899.19,1108.65 1919.83,1108.61 1940.48,1108.55 1961.12,1108.49 1981.77,1108.43 2002.41,1108.39 2023.06,1108.32 2043.7,1108.26 2064.35,1108.19 2084.99,1108.13 2105.64,1108.08 2126.28,1108.02 2146.93,1107.96 2167.57,1107.91 2188.22,1107.85 2208.86,1107.81 2229.51,1107.75 2250.15,1107.69 2270.8,1107.61 2291.44,1107.55 "/>
<path clip-path="url(#clip362)" d="M247.59 1106.03 L268.234 1094.4 L288.879 1094.35 L309.524 1094.29 L330.169 1094.24 L350.814 1094.18 L371.459 1094.12 L392.104 1094.06 L412.749 1094 L433.394 1093.94 L454.039 1093.89 L474.684 1093.84 L495.329 1093.78 L515.974 1093.72 L536.619 1093.65 L557.264 1093.59 L577.909 1093.54 L598.554 1093.49 L619.199 1093.41 L639.844 1093.35 L660.489 1093.3 L681.134 1093.23 L701.779 1093.17 L722.424 1093.12 L743.069 1093.05 L763.713 1092.99 L784.358 1092.94 L805.003 1092.89 L825.648 1092.83 L846.293 1092.78 L866.938 1092.71 L887.583 1092.64 L908.228 1092.58 L928.873 1092.53 L949.518 1092.48 L970.163 1092.41 L990.808 1092.35 L1011.45 1092.29 L1032.1 1092.22 L1052.74 1092.16 L1073.39 1092.1 L1094.03 1092.02 L1114.68 1091.95 L1135.32 1091.9 L1155.97 1091.85 L1176.61 1091.8 L1197.26 1091.75 L1217.9 1091.68 L1238.55 1091.65 L1259.19 1091.59 L1279.84 1091.53 L1300.48 1091.46 L1321.13 1091.4 L1341.77 1091.35 L1362.42 1091.29 L1383.06 1091.23 L1403.71 1091.17 L1424.35 1091.12 L1445 1091.07 L1465.64 1090.99 L1486.29 1090.94 L1506.93 1090.88 L1527.58 1090.82 L1548.22 1090.76 L1568.87 1090.72 L1589.51 1090.66 L1610.16 1090.6 L1630.8 1090.54 L1651.45 1090.48 L1672.09 1090.43 L1692.74 1090.38 L1713.38 1090.31 L1734.03 1090.26 L1754.67 1090.2 L1775.32 1090.13 L1795.96 1090.06 L1816.61 1090 L1837.25 1089.96 L1857.9 1089.89 L1878.54 1089.84 L1899.19 1089.78 L1919.83 1089.73 L1940.48 1089.66 L1961.12 1089.6 L1981.77 1089.53 L2002.41 1089.48 L2023.06 1089.41 L2043.7 1089.34 L2064.35 1089.27 L2084.99 1089.2 L2105.64 1089.14 L2126.28 1089.07 L2146.93 1089 L2167.57 1088.94 L2188.22 1088.88 L2208.86 1088.84 L2229.51 1088.77 L2250.15 1088.7 L2270.8 1088.62 L2291.44 1088.55 L2291.44 1107.55 L2270.8 1107.61 L2250.15 1107.69 L2229.51 1107.75 L2208.86 1107.81 L2188.22 1107.85 L2167.57 1107.91 L2146.93 1107.96 L2126.28 1108.02 L2105.64 1108.08 L2084.99 1108.13 L2064.35 1108.19 L2043.7 1108.26 L2023.06 1108.32 L2002.41 1108.39 L1981.77 1108.43 L1961.12 1108.49 L1940.48 1108.55 L1919.83 1108.61 L1899.19 1108.65 L1878.54 1108.71 L1857.9 1108.75 L1837.25 1108.81 L1816.61 1108.85 L1795.96 1108.91 L1775.32 1108.98 L1754.67 1109.04 L1734.03 1109.09 L1713.38 1109.13 L1692.74 1109.2 L1672.09 1109.25 L1651.45 1109.29 L1630.8 1109.34 L1610.16 1109.4 L1589.51 1109.45 L1568.87 1109.5 L1548.22 1109.54 L1527.58 1109.59 L1506.93 1109.65 L1486.29 1109.7 L1465.64 1109.74 L1445 1109.82 L1424.35 1109.86 L1403.71 1109.91 L1383.06 1109.96 L1362.42 1110.02 L1341.77 1110.07 L1321.13 1110.11 L1300.48 1110.17 L1279.84 1110.23 L1259.19 1110.28 L1238.55 1110.34 L1217.9 1110.37 L1197.26 1110.43 L1176.61 1110.47 L1155.97 1110.52 L1135.32 1110.56 L1114.68 1110.61 L1094.03 1110.67 L1073.39 1110.74 L1052.74 1110.8 L1032.1 1110.85 L1011.45 1110.91 L990.808 1110.97 L970.163 1111.02 L949.518 1111.08 L928.873 1111.13 L908.228 1111.18 L887.583 1111.23 L866.938 1111.29 L846.293 1111.35 L825.648 1111.4 L805.003 1111.46 L784.358 1111.49 L763.713 1111.54 L743.069 1111.6 L722.424 1111.66 L701.779 1111.7 L681.134 1111.75 L660.489 1111.82 L639.844 1111.87 L619.199 1111.92 L598.554 1111.99 L577.909 1112.03 L557.264 1112.08 L536.619 1112.13 L515.974 1112.2 L495.329 1112.25 L474.684 1112.3 L454.039 1112.35 L433.394 1112.39 L412.749 1112.44 L392.104 1112.5 L371.459 1112.55 L350.814 1112.61 L330.169 1112.66 L309.524 1112.71 L288.879 1112.76 L268.234 1112.81 L247.59 1122.52  Z" fill="#18337b" fill-rule="evenodd" fill-opacity="1"/>
<polyline clip-path="url(#clip362)" style="stroke:#18337b; stroke-linecap:round; stroke-linejoin:round; stroke-width:4; stroke-opacity:1; fill:none" points="247.59,1106.03 268.234,1094.4 288.879,1094.35 309.524,1094.29 330.169,1094.24 350.814,1094.18 371.459,1094.12 392.104,1094.06 412.749,1094 433.394,1093.94 454.039,1093.89 474.684,1093.84 495.329,1093.78 515.974,1093.72 536.619,1093.65 557.264,1093.59 577.909,1093.54 598.554,1093.49 619.199,1093.41 639.844,1093.35 660.489,1093.3 681.134,1093.23 701.779,1093.17 722.424,1093.12 743.069,1093.05 763.713,1092.99 784.358,1092.94 805.003,1092.89 825.648,1092.83 846.293,1092.78 866.938,1092.71 887.583,1092.64 908.228,1092.58 928.873,1092.53 949.518,1092.48 970.163,1092.41 990.808,1092.35 1011.45,1092.29 1032.1,1092.22 1052.74,1092.16 1073.39,1092.1 1094.03,1092.02 1114.68,1091.95 1135.32,1091.9 1155.97,1091.85 1176.61,1091.8 1197.26,1091.75 1217.9,1091.68 1238.55,1091.65 1259.19,1091.59 1279.84,1091.53 1300.48,1091.46 1321.13,1091.4 1341.77,1091.35 1362.42,1091.29 1383.06,1091.23 1403.71,1091.17 1424.35,1091.12 1445,1091.07 1465.64,1090.99 1486.29,1090.94 1506.93,1090.88 1527.58,1090.82 1548.22,1090.76 1568.87,1090.72 1589.51,1090.66 1610.16,1090.6 1630.8,1090.54 1651.45,1090.48 1672.09,1090.43 1692.74,1090.38 1713.38,1090.31 1734.03,1090.26 1754.67,1090.2 1775.32,1090.13 1795.96,1090.06 1816.61,1090 1837.25,1089.96 1857.9,1089.89 1878.54,1089.84 1899.19,1089.78 1919.83,1089.73 1940.48,1089.66 1961.12,1089.6 1981.77,1089.53 2002.41,1089.48 2023.06,1089.41 2043.7,1089.34 2064.35,1089.27 2084.99,1089.2 2105.64,1089.14 2126.28,1089.07 2146.93,1089 2167.57,1088.94 2188.22,1088.88 2208.86,1088.84 2229.51,1088.77 2250.15,1088.7 2270.8,1088.62 2291.44,1088.55 "/>
<path clip-path="url(#clip362)" d="M247.59 255.513 L268.234 253.621 L288.879 253.643 L309.524 253.67 L330.169 253.695 L350.814 253.711 L371.459 253.722 L392.104 253.737 L412.749 253.754 L433.394 253.765 L454.039 253.793 L474.684 253.815 L495.329 253.831 L515.974 253.873 L536.619 253.883 L557.264 253.906 L577.909 253.925 L598.554 253.945 L619.199 253.968 L639.844 253.996 L660.489 254.021 L681.134 254.048 L701.779 254.078 L722.424 254.096 L743.069 254.129 L763.713 254.156 L784.358 254.18 L805.003 254.2 L825.648 254.219 L846.293 254.248 L866.938 254.282 L887.583 254.311 L908.228 254.336 L928.873 254.374 L949.518 254.396 L970.163 254.411 L990.808 254.431 L1011.45 254.45 L1032.1 254.463 L1052.74 254.49 L1073.39 254.505 L1094.03 254.534 L1114.68 254.549 L1135.32 254.564 L1155.97 254.598 L1176.61 254.625 L1197.26 254.646 L1217.9 254.659 L1238.55 254.683 L1259.19 254.692 L1279.84 254.7 L1300.48 254.725 L1321.13 254.741 L1341.77 254.755 L1362.42 254.778 L1383.06 254.799 L1403.71 254.809 L1424.35 254.824 L1445 254.843 L1465.64 254.865 L1486.29 254.904 L1506.93 254.939 L1527.58 254.953 L1548.22 254.974 L1568.87 254.996 L1589.51 255.027 L1610.16 255.044 L1630.8 255.061 L1651.45 255.088 L1672.09 255.109 L1692.74 255.123 L1713.38 255.129 L1734.03 255.146 L1754.67 255.169 L1775.32 255.198 L1795.96 255.205 L1816.61 255.215 L1837.25 255.245 L1857.9 255.282 L1878.54 255.302 L1899.19 255.323 L1919.83 255.343 L1940.48 255.374 L1961.12 255.393 L1981.77 255.42 L2002.41 255.436 L2023.06 255.462 L2043.7 255.488 L2064.35 255.509 L2084.99 255.539 L2105.64 255.565 L2126.28 255.59 L2146.93 255.615 L2167.57 255.647 L2188.22 255.663 L2208.86 255.694 L2229.51 255.724 L2250.15 255.732 L2270.8 255.742 L2291.44 255.768 L2291.44 1088.55 L2270.8 1088.62 L2250.15 1088.7 L2229.51 1088.77 L2208.86 1088.84 L2188.22 1088.88 L2167.57 1088.94 L2146.93 1089 L2126.28 1089.07 L2105.64 1089.14 L2084.99 1089.2 L2064.35 1089.27 L2043.7 1089.34 L2023.06 1089.41 L2002.41 1089.48 L1981.77 1089.53 L1961.12 1089.6 L1940.48 1089.66 L1919.83 1089.73 L1899.19 1089.78 L1878.54 1089.84 L1857.9 1089.89 L1837.25 1089.96 L1816.61 1090 L1795.96 1090.06 L1775.32 1090.13 L1754.67 1090.2 L1734.03 1090.26 L1713.38 1090.31 L1692.74 1090.38 L1672.09 1090.43 L1651.45 1090.48 L1630.8 1090.54 L1610.16 1090.6 L1589.51 1090.66 L1568.87 1090.72 L1548.22 1090.76 L1527.58 1090.82 L1506.93 1090.88 L1486.29 1090.94 L1465.64 1090.99 L1445 1091.07 L1424.35 1091.12 L1403.71 1091.17 L1383.06 1091.23 L1362.42 1091.29 L1341.77 1091.35 L1321.13 1091.4 L1300.48 1091.46 L1279.84 1091.53 L1259.19 1091.59 L1238.55 1091.65 L1217.9 1091.68 L1197.26 1091.75 L1176.61 1091.8 L1155.97 1091.85 L1135.32 1091.9 L1114.68 1091.95 L1094.03 1092.02 L1073.39 1092.1 L1052.74 1092.16 L1032.1 1092.22 L1011.45 1092.29 L990.808 1092.35 L970.163 1092.41 L949.518 1092.48 L928.873 1092.53 L908.228 1092.58 L887.583 1092.64 L866.938 1092.71 L846.293 1092.78 L825.648 1092.83 L805.003 1092.89 L784.358 1092.94 L763.713 1092.99 L743.069 1093.05 L722.424 1093.12 L701.779 1093.17 L681.134 1093.23 L660.489 1093.3 L639.844 1093.35 L619.199 1093.41 L598.554 1093.49 L577.909 1093.54 L557.264 1093.59 L536.619 1093.65 L515.974 1093.72 L495.329 1093.78 L474.684 1093.84 L454.039 1093.89 L433.394 1093.94 L412.749 1094 L392.104 1094.06 L371.459 1094.12 L350.814 1094.18 L330.169 1094.24 L309.524 1094.29 L288.879 1094.35 L268.234 1094.4 L247.59 1106.03  Z" fill="#de6f64" fill-rule="evenodd" fill-opacity="1"/>
<polyline clip-path="url(#clip362)" style="stroke:#de6f64; stroke-linecap:round; stroke-linejoin:round; stroke-width:4; stroke-opacity:1; fill:none" points="247.59,255.513 268.234,253.621 288.879,253.643 309.524,253.67 330.169,253.695 350.814,253.711 371.459,253.722 392.104,253.737 412.749,253.754 433.394,253.765 454.039,253.793 474.684,253.815 495.329,253.831 515.974,253.873 536.619,253.883 557.264,253.906 577.909,253.925 598.554,253.945 619.199,253.968 639.844,253.996 660.489,254.021 681.134,254.048 701.779,254.078 722.424,254.096 743.069,254.129 763.713,254.156 784.358,254.18 805.003,254.2 825.648,254.219 846.293,254.248 866.938,254.282 887.583,254.311 908.228,254.336 928.873,254.374 949.518,254.396 970.163,254.411 990.808,254.431 1011.45,254.45 1032.1,254.463 1052.74,254.49 1073.39,254.505 1094.03,254.534 1114.68,254.549 1135.32,254.564 1155.97,254.598 1176.61,254.625 1197.26,254.646 1217.9,254.659 1238.55,254.683 1259.19,254.692 1279.84,254.7 1300.48,254.725 1321.13,254.741 1341.77,254.755 1362.42,254.778 1383.06,254.799 1403.71,254.809 1424.35,254.824 1445,254.843 1465.64,254.865 1486.29,254.904 1506.93,254.939 1527.58,254.953 1548.22,254.974 1568.87,254.996 1589.51,255.027 1610.16,255.044 1630.8,255.061 1651.45,255.088 1672.09,255.109 1692.74,255.123 1713.38,255.129 1734.03,255.146 1754.67,255.169 1775.32,255.198 1795.96,255.205 1816.61,255.215 1837.25,255.245 1857.9,255.282 1878.54,255.302 1899.19,255.323 1919.83,255.343 1940.48,255.374 1961.12,255.393 1981.77,255.42 2002.41,255.436 2023.06,255.462 2043.7,255.488 2064.35,255.509 2084.99,255.539 2105.64,255.565 2126.28,255.59 2146.93,255.615 2167.57,255.647 2188.22,255.663 2208.86,255.694 2229.51,255.724 2250.15,255.732 2270.8,255.742 2291.44,255.768 "/>
<path clip-path="url(#clip362)" d="M247.59 87.9763 L268.234 87.9763 L288.879 87.9763 L309.524 87.9763 L330.169 87.9763 L350.814 87.9763 L371.459 87.9763 L392.104 87.9763 L412.749 87.9763 L433.394 87.9763 L454.039 87.9763 L474.684 87.9763 L495.329 87.9763 L515.974 87.9763 L536.619 87.9763 L557.264 87.9763 L577.909 87.9763 L598.554 87.9763 L619.199 87.9763 L639.844 87.9763 L660.489 87.9763 L681.134 87.9763 L701.779 87.9763 L722.424 87.9763 L743.069 87.9763 L763.713 87.9763 L784.358 87.9763 L805.003 87.9763 L825.648 87.9763 L846.293 87.9763 L866.938 87.9763 L887.583 87.9763 L908.228 87.9763 L928.873 87.9763 L949.518 87.9763 L970.163 87.9763 L990.808 87.9763 L1011.45 87.9763 L1032.1 87.9763 L1052.74 87.9763 L1073.39 87.9763 L1094.03 87.9763 L1114.68 87.9763 L1135.32 87.9763 L1155.97 87.9763 L1176.61 87.9763 L1197.26 87.9763 L1217.9 87.9763 L1238.55 87.9763 L1259.19 87.9763 L1279.84 87.9763 L1300.48 87.9763 L1321.13 87.9763 L1341.77 87.9763 L1362.42 87.9763 L1383.06 87.9763 L1403.71 87.9763 L1424.35 87.9763 L1445 87.9763 L1465.64 87.9763 L1486.29 87.9763 L1506.93 87.9763 L1527.58 87.9763 L1548.22 87.9763 L1568.87 87.9763 L1589.51 87.9763 L1610.16 87.9763 L1630.8 87.9763 L1651.45 87.9763 L1672.09 87.9763 L1692.74 87.9763 L1713.38 87.9763 L1734.03 87.9763 L1754.67 87.9763 L1775.32 87.9763 L1795.96 87.9763 L1816.61 87.9763 L1837.25 87.9763 L1857.9 87.9763 L1878.54 87.9763 L1899.19 87.9763 L1919.83 87.9763 L1940.48 87.9763 L1961.12 87.9763 L1981.77 87.9763 L2002.41 87.9763 L2023.06 87.9763 L2043.7 87.9763 L2064.35 87.9763 L2084.99 87.9763 L2105.64 87.9763 L2126.28 87.9763 L2146.93 87.9763 L2167.57 87.9763 L2188.22 87.9763 L2208.86 87.9763 L2229.51 87.9763 L2250.15 87.9763 L2270.8 87.9763 L2291.44 87.9763 L2291.44 255.768 L2270.8 255.742 L2250.15 255.732 L2229.51 255.724 L2208.86 255.694 L2188.22 255.663 L2167.57 255.647 L2146.93 255.615 L2126.28 255.59 L2105.64 255.565 L2084.99 255.539 L2064.35 255.509 L2043.7 255.488 L2023.06 255.462 L2002.41 255.436 L1981.77 255.42 L1961.12 255.393 L1940.48 255.374 L1919.83 255.343 L1899.19 255.323 L1878.54 255.302 L1857.9 255.282 L1837.25 255.245 L1816.61 255.215 L1795.96 255.205 L1775.32 255.198 L1754.67 255.169 L1734.03 255.146 L1713.38 255.129 L1692.74 255.123 L1672.09 255.109 L1651.45 255.088 L1630.8 255.061 L1610.16 255.044 L1589.51 255.027 L1568.87 254.996 L1548.22 254.974 L1527.58 254.953 L1506.93 254.939 L1486.29 254.904 L1465.64 254.865 L1445 254.843 L1424.35 254.824 L1403.71 254.809 L1383.06 254.799 L1362.42 254.778 L1341.77 254.755 L1321.13 254.741 L1300.48 254.725 L1279.84 254.7 L1259.19 254.692 L1238.55 254.683 L1217.9 254.659 L1197.26 254.646 L1176.61 254.625 L1155.97 254.598 L1135.32 254.564 L1114.68 254.549 L1094.03 254.534 L1073.39 254.505 L1052.74 254.49 L1032.1 254.463 L1011.45 254.45 L990.808 254.431 L970.163 254.411 L949.518 254.396 L928.873 254.374 L908.228 254.336 L887.583 254.311 L866.938 254.282 L846.293 254.248 L825.648 254.219 L805.003 254.2 L784.358 254.18 L763.713 254.156 L743.069 254.129 L722.424 254.096 L701.779 254.078 L681.134 254.048 L660.489 254.021 L639.844 253.996 L619.199 253.968 L598.554 253.945 L577.909 253.925 L557.264 253.906 L536.619 253.883 L515.974 253.873 L495.329 253.831 L474.684 253.815 L454.039 253.793 L433.394 253.765 L412.749 253.754 L392.104 253.737 L371.459 253.722 L350.814 253.711 L330.169 253.695 L309.524 253.67 L288.879 253.643 L268.234 253.621 L247.59 255.513  Z" fill="#824f8e" fill-rule="evenodd" fill-opacity="1"/>
<polyline clip-path="url(#clip362)" style="stroke:#824f8e; stroke-linecap:round; stroke-linejoin:round; stroke-width:4; stroke-opacity:1; fill:none" points="247.59,87.9763 268.234,87.9763 288.879,87.9763 309.524,87.9763 330.169,87.9763 350.814,87.9763 371.459,87.9763 392.104,87.9763 412.749,87.9763 433.394,87.9763 454.039,87.9763 474.684,87.9763 495.329,87.9763 515.974,87.9763 536.619,87.9763 557.264,87.9763 577.909,87.9763 598.554,87.9763 619.199,87.9763 639.844,87.9763 660.489,87.9763 681.134,87.9763 701.779,87.9763 722.424,87.9763 743.069,87.9763 763.713,87.9763 784.358,87.9763 805.003,87.9763 825.648,87.9763 846.293,87.9763 866.938,87.9763 887.583,87.9763 908.228,87.9763 928.873,87.9763 949.518,87.9763 970.163,87.9763 990.808,87.9763 1011.45,87.9763 1032.1,87.9763 1052.74,87.9763 1073.39,87.9763 1094.03,87.9763 1114.68,87.9763 1135.32,87.9763 1155.97,87.9763 1176.61,87.9763 1197.26,87.9763 1217.9,87.9763 1238.55,87.9763 1259.19,87.9763 1279.84,87.9763 1300.48,87.9763 1321.13,87.9763 1341.77,87.9763 1362.42,87.9763 1383.06,87.9763 1403.71,87.9763 1424.35,87.9763 1445,87.9763 1465.64,87.9763 1486.29,87.9763 1506.93,87.9763 1527.58,87.9763 1548.22,87.9763 1568.87,87.9763 1589.51,87.9763 1610.16,87.9763 1630.8,87.9763 1651.45,87.9763 1672.09,87.9763 1692.74,87.9763 1713.38,87.9763 1734.03,87.9763 1754.67,87.9763 1775.32,87.9763 1795.96,87.9763 1816.61,87.9763 1837.25,87.9763 1857.9,87.9763 1878.54,87.9763 1899.19,87.9763 1919.83,87.9763 1940.48,87.9763 1961.12,87.9763 1981.77,87.9763 2002.41,87.9763 2023.06,87.9763 2043.7,87.9763 2064.35,87.9763 2084.99,87.9763 2105.64,87.9763 2126.28,87.9763 2146.93,87.9763 2167.57,87.9763 2188.22,87.9763 2208.86,87.9763 2229.51,87.9763 2250.15,87.9763 2270.8,87.9763 2291.44,87.9763 "/>
</svg>
