<?xml version="1.0" encoding="utf-8"?>
<svg xmlns="http://www.w3.org/2000/svg" xmlns:xlink="http://www.w3.org/1999/xlink" width="600" height="400" viewBox="0 0 2400 1600">
<defs>
  <clipPath id="clip390">
    <rect x="0" y="0" width="2400" height="1600"/>
  </clipPath>
</defs>
<path clip-path="url(#clip390)" d="M0 1600 L2400 1600 L2400 0 L0 0  Z" fill="#ffffff" fill-rule="evenodd" fill-opacity="1"/>
<defs>
  <clipPath id="clip391">
    <rect x="480" y="0" width="1681" height="1600"/>
  </clipPath>
</defs>
<path clip-path="url(#clip390)" d="M185.927 1486.45 L2352.76 1486.45 L2352.76 47.2441 L185.927 47.2441  Z" fill="#ffffff" fill-rule="evenodd" fill-opacity="1"/>
<defs>
  <clipPath id="clip392">
    <rect x="185" y="47" width="2168" height="1440"/>
  </clipPath>
</defs>
<polyline clip-path="url(#clip392)" style="stroke:#000000; stroke-linecap:round; stroke-linejoin:round; stroke-width:2; stroke-opacity:0.1; fill:none" points="247.252,1486.45 247.252,47.2441 "/>
<polyline clip-path="url(#clip392)" style="stroke:#000000; stroke-linecap:round; stroke-linejoin:round; stroke-width:2; stroke-opacity:0.1; fill:none" points="758.297,1486.45 758.297,47.2441 "/>
<polyline clip-path="url(#clip392)" style="stroke:#000000; stroke-linecap:round; stroke-linejoin:round; stroke-width:2; stroke-opacity:0.1; fill:none" points="1269.34,1486.45 1269.34,47.2441 "/>
<polyline clip-path="url(#clip392)" style="stroke:#000000; stroke-linecap:round; stroke-linejoin:round; stroke-width:2; stroke-opacity:0.1; fill:none" points="1780.39,1486.45 1780.39,47.2441 "/>
<polyline clip-path="url(#clip392)" style="stroke:#000000; stroke-linecap:round; stroke-linejoin:round; stroke-width:2; stroke-opacity:0.1; fill:none" points="2291.43,1486.45 2291.43,47.2441 "/>
<polyline clip-path="url(#clip390)" style="stroke:#000000; stroke-linecap:round; stroke-linejoin:round; stroke-width:4; stroke-opacity:1; fill:none" points="185.927,1486.45 2352.76,1486.45 "/>
<polyline clip-path="url(#clip390)" style="stroke:#000000; stroke-linecap:round; stroke-linejoin:round; stroke-width:4; stroke-opacity:1; fill:none" points="247.252,1486.45 247.252,1467.55 "/>
<polyline clip-path="url(#clip390)" style="stroke:#000000; stroke-linecap:round; stroke-linejoin:round; stroke-width:4; stroke-opacity:1; fill:none" points="758.297,1486.45 758.297,1467.55 "/>
<polyline clip-path="url(#clip390)" style="stroke:#000000; stroke-linecap:round; stroke-linejoin:round; stroke-width:4; stroke-opacity:1; fill:none" points="1269.34,1486.45 1269.34,1467.55 "/>
<polyline clip-path="url(#clip390)" style="stroke:#000000; stroke-linecap:round; stroke-linejoin:round; stroke-width:4; stroke-opacity:1; fill:none" points="1780.39,1486.45 1780.39,1467.55 "/>
<polyline clip-path="url(#clip390)" style="stroke:#000000; stroke-linecap:round; stroke-linejoin:round; stroke-width:4; stroke-opacity:1; fill:none" points="2291.43,1486.45 2291.43,1467.55 "/>
<path clip-path="url(#clip390)" d="M247.252 1517.37 Q243.641 1517.37 241.812 1520.93 Q240.007 1524.47 240.007 1531.6 Q240.007 1538.71 241.812 1542.27 Q243.641 1545.82 247.252 1545.82 Q250.886 1545.82 252.692 1542.27 Q254.521 1538.71 254.521 1531.6 Q254.521 1524.47 252.692 1520.93 Q250.886 1517.37 247.252 1517.37 M247.252 1513.66 Q253.062 1513.66 256.118 1518.27 Q259.197 1522.85 259.197 1531.6 Q259.197 1540.33 256.118 1544.94 Q253.062 1549.52 247.252 1549.52 Q241.442 1549.52 238.363 1544.94 Q235.308 1540.33 235.308 1531.6 Q235.308 1522.85 238.363 1518.27 Q241.442 1513.66 247.252 1513.66 Z" fill="#000000" fill-rule="nonzero" fill-opacity="1" /><path clip-path="url(#clip390)" d="M737.568 1544.91 L753.887 1544.91 L753.887 1548.85 L731.943 1548.85 L731.943 1544.91 Q734.605 1542.16 739.188 1537.53 Q743.795 1532.88 744.975 1531.53 Q747.22 1529.01 748.1 1527.27 Q749.003 1525.51 749.003 1523.82 Q749.003 1521.07 747.058 1519.33 Q745.137 1517.6 742.035 1517.6 Q739.836 1517.6 737.382 1518.36 Q734.952 1519.13 732.174 1520.68 L732.174 1515.95 Q734.998 1514.82 737.452 1514.24 Q739.906 1513.66 741.943 1513.66 Q747.313 1513.66 750.507 1516.35 Q753.702 1519.03 753.702 1523.52 Q753.702 1525.65 752.892 1527.57 Q752.105 1529.47 749.998 1532.07 Q749.419 1532.74 746.318 1535.95 Q743.216 1539.15 737.568 1544.91 Z" fill="#000000" fill-rule="nonzero" fill-opacity="1" /><path clip-path="url(#clip390)" d="M763.748 1514.29 L782.104 1514.29 L782.104 1518.22 L768.03 1518.22 L768.03 1526.7 Q769.049 1526.35 770.068 1526.19 Q771.086 1526 772.105 1526 Q777.892 1526 781.271 1529.17 Q784.651 1532.34 784.651 1537.76 Q784.651 1543.34 781.179 1546.44 Q777.706 1549.52 771.387 1549.52 Q769.211 1549.52 766.943 1549.15 Q764.697 1548.78 762.29 1548.04 L762.29 1543.34 Q764.373 1544.47 766.595 1545.03 Q768.818 1545.58 771.294 1545.58 Q775.299 1545.58 777.637 1543.48 Q779.975 1541.37 779.975 1537.76 Q779.975 1534.15 777.637 1532.04 Q775.299 1529.94 771.294 1529.94 Q769.419 1529.94 767.544 1530.35 Q765.693 1530.77 763.748 1531.65 L763.748 1514.29 Z" fill="#000000" fill-rule="nonzero" fill-opacity="1" /><path clip-path="url(#clip390)" d="M1244.04 1514.29 L1262.4 1514.29 L1262.4 1518.22 L1248.32 1518.22 L1248.32 1526.7 Q1249.34 1526.35 1250.36 1526.19 Q1251.38 1526 1252.4 1526 Q1258.18 1526 1261.56 1529.17 Q1264.94 1532.34 1264.94 1537.76 Q1264.94 1543.34 1261.47 1546.44 Q1258 1549.52 1251.68 1549.52 Q1249.5 1549.52 1247.23 1549.15 Q1244.99 1548.78 1242.58 1548.04 L1242.58 1543.34 Q1244.67 1544.47 1246.89 1545.03 Q1249.11 1545.58 1251.59 1545.58 Q1255.59 1545.58 1257.93 1543.48 Q1260.27 1541.37 1260.27 1537.76 Q1260.27 1534.15 1257.93 1532.04 Q1255.59 1529.94 1251.59 1529.94 Q1249.71 1529.94 1247.84 1530.35 Q1245.98 1530.77 1244.04 1531.65 L1244.04 1514.29 Z" fill="#000000" fill-rule="nonzero" fill-opacity="1" /><path clip-path="url(#clip390)" d="M1284.16 1517.37 Q1280.54 1517.37 1278.72 1520.93 Q1276.91 1524.47 1276.91 1531.6 Q1276.91 1538.71 1278.72 1542.27 Q1280.54 1545.82 1284.16 1545.82 Q1287.79 1545.82 1289.6 1542.27 Q1291.42 1538.71 1291.42 1531.6 Q1291.42 1524.47 1289.6 1520.93 Q1287.79 1517.37 1284.16 1517.37 M1284.16 1513.66 Q1289.97 1513.66 1293.02 1518.27 Q1296.1 1522.85 1296.1 1531.6 Q1296.1 1540.33 1293.02 1544.94 Q1289.97 1549.52 1284.16 1549.52 Q1278.35 1549.52 1275.27 1544.94 Q1272.21 1540.33 1272.21 1531.6 Q1272.21 1522.85 1275.27 1518.27 Q1278.35 1513.66 1284.16 1513.66 Z" fill="#000000" fill-rule="nonzero" fill-opacity="1" /><path clip-path="url(#clip390)" d="M1754.24 1514.29 L1776.46 1514.29 L1776.46 1516.28 L1763.92 1548.85 L1759.03 1548.85 L1770.84 1518.22 L1754.24 1518.22 L1754.24 1514.29 Z" fill="#000000" fill-rule="nonzero" fill-opacity="1" /><path clip-path="url(#clip390)" d="M1785.63 1514.29 L1803.99 1514.29 L1803.99 1518.22 L1789.91 1518.22 L1789.91 1526.7 Q1790.93 1526.35 1791.95 1526.19 Q1792.97 1526 1793.99 1526 Q1799.77 1526 1803.15 1529.17 Q1806.53 1532.34 1806.53 1537.76 Q1806.53 1543.34 1803.06 1546.44 Q1799.59 1549.52 1793.27 1549.52 Q1791.09 1549.52 1788.82 1549.15 Q1786.58 1548.78 1784.17 1548.04 L1784.17 1543.34 Q1786.25 1544.47 1788.48 1545.03 Q1790.7 1545.58 1793.18 1545.58 Q1797.18 1545.58 1799.52 1543.48 Q1801.86 1541.37 1801.86 1537.76 Q1801.86 1534.15 1799.52 1532.04 Q1797.18 1529.94 1793.18 1529.94 Q1791.3 1529.94 1789.43 1530.35 Q1787.57 1530.77 1785.63 1531.65 L1785.63 1514.29 Z" fill="#000000" fill-rule="nonzero" fill-opacity="1" /><path clip-path="url(#clip390)" d="M2251.04 1544.91 L2258.68 1544.91 L2258.68 1518.55 L2250.37 1520.21 L2250.37 1515.95 L2258.63 1514.29 L2263.31 1514.29 L2263.31 1544.91 L2270.94 1544.91 L2270.94 1548.85 L2251.04 1548.85 L2251.04 1544.91 Z" fill="#000000" fill-rule="nonzero" fill-opacity="1" /><path clip-path="url(#clip390)" d="M2290.39 1517.37 Q2286.78 1517.37 2284.95 1520.93 Q2283.14 1524.47 2283.14 1531.6 Q2283.14 1538.71 2284.95 1542.27 Q2286.78 1545.82 2290.39 1545.82 Q2294.02 1545.82 2295.83 1542.27 Q2297.66 1538.71 2297.66 1531.6 Q2297.66 1524.47 2295.83 1520.93 Q2294.02 1517.37 2290.39 1517.37 M2290.39 1513.66 Q2296.2 1513.66 2299.25 1518.27 Q2302.33 1522.85 2302.33 1531.6 Q2302.33 1540.33 2299.25 1544.94 Q2296.2 1549.52 2290.39 1549.52 Q2284.58 1549.52 2281.5 1544.94 Q2278.44 1540.33 2278.44 1531.6 Q2278.44 1522.85 2281.5 1518.27 Q2284.58 1513.66 2290.39 1513.66 Z" fill="#000000" fill-rule="nonzero" fill-opacity="1" /><path clip-path="url(#clip390)" d="M2320.55 1517.37 Q2316.94 1517.37 2315.11 1520.93 Q2313.31 1524.47 2313.31 1531.6 Q2313.31 1538.71 2315.11 1542.27 Q2316.94 1545.82 2320.55 1545.82 Q2324.19 1545.82 2325.99 1542.27 Q2327.82 1538.71 2327.82 1531.6 Q2327.82 1524.47 2325.99 1520.93 Q2324.19 1517.37 2320.55 1517.37 M2320.55 1513.66 Q2326.36 1513.66 2329.42 1518.27 Q2332.5 1522.85 2332.5 1531.6 Q2332.5 1540.33 2329.42 1544.94 Q2326.36 1549.52 2320.55 1549.52 Q2314.74 1549.52 2311.66 1544.94 Q2308.61 1540.33 2308.61 1531.6 Q2308.61 1522.85 2311.66 1518.27 Q2314.74 1513.66 2320.55 1513.66 Z" fill="#000000" fill-rule="nonzero" fill-opacity="1" /><polyline clip-path="url(#clip392)" style="stroke:#000000; stroke-linecap:round; stroke-linejoin:round; stroke-width:2; stroke-opacity:0.1; fill:none" points="185.927,1407.6 2352.76,1407.6 "/>
<polyline clip-path="url(#clip392)" style="stroke:#000000; stroke-linecap:round; stroke-linejoin:round; stroke-width:2; stroke-opacity:0.1; fill:none" points="185.927,1053.03 2352.76,1053.03 "/>
<polyline clip-path="url(#clip392)" style="stroke:#000000; stroke-linecap:round; stroke-linejoin:round; stroke-width:2; stroke-opacity:0.1; fill:none" points="185.927,698.453 2352.76,698.453 "/>
<polyline clip-path="url(#clip392)" style="stroke:#000000; stroke-linecap:round; stroke-linejoin:round; stroke-width:2; stroke-opacity:0.1; fill:none" points="185.927,343.879 2352.76,343.879 "/>
<polyline clip-path="url(#clip390)" style="stroke:#000000; stroke-linecap:round; stroke-linejoin:round; stroke-width:4; stroke-opacity:1; fill:none" points="185.927,1486.45 185.927,47.2441 "/>
<polyline clip-path="url(#clip390)" style="stroke:#000000; stroke-linecap:round; stroke-linejoin:round; stroke-width:4; stroke-opacity:1; fill:none" points="185.927,1407.6 204.824,1407.6 "/>
<polyline clip-path="url(#clip390)" style="stroke:#000000; stroke-linecap:round; stroke-linejoin:round; stroke-width:4; stroke-opacity:1; fill:none" points="185.927,1053.03 204.824,1053.03 "/>
<polyline clip-path="url(#clip390)" style="stroke:#000000; stroke-linecap:round; stroke-linejoin:round; stroke-width:4; stroke-opacity:1; fill:none" points="185.927,698.453 204.824,698.453 "/>
<polyline clip-path="url(#clip390)" style="stroke:#000000; stroke-linecap:round; stroke-linejoin:round; stroke-width:4; stroke-opacity:1; fill:none" points="185.927,343.879 204.824,343.879 "/>
<path clip-path="url(#clip390)" d="M57.6125 1420.95 L73.9318 1420.95 L73.9318 1424.88 L51.9875 1424.88 L51.9875 1420.95 Q54.6495 1418.19 59.2328 1413.56 Q63.8393 1408.91 65.0198 1407.57 Q67.2652 1405.04 68.1448 1403.31 Q69.0476 1401.55 69.0476 1399.86 Q69.0476 1397.1 67.1032 1395.37 Q65.1819 1393.63 62.08 1393.63 Q59.881 1393.63 57.4273 1394.4 Q54.9967 1395.16 52.219 1396.71 L52.219 1391.99 Q55.043 1390.85 57.4967 1390.28 Q59.9504 1389.7 61.9874 1389.7 Q67.3578 1389.7 70.5522 1392.38 Q73.7466 1395.07 73.7466 1399.56 Q73.7466 1401.69 72.9365 1403.61 Q72.1494 1405.51 70.0429 1408.1 Q69.4642 1408.77 66.3624 1411.99 Q63.2606 1415.18 57.6125 1420.95 Z" fill="#000000" fill-rule="nonzero" fill-opacity="1" /><path clip-path="url(#clip390)" d="M83.7466 1419 L88.6308 1419 L88.6308 1424.88 L83.7466 1424.88 L83.7466 1419 Z" fill="#000000" fill-rule="nonzero" fill-opacity="1" /><path clip-path="url(#clip390)" d="M102.844 1420.95 L119.163 1420.95 L119.163 1424.88 L97.2187 1424.88 L97.2187 1420.95 Q99.8808 1418.19 104.464 1413.56 Q109.071 1408.91 110.251 1407.57 Q112.496 1405.04 113.376 1403.31 Q114.279 1401.55 114.279 1399.86 Q114.279 1397.1 112.334 1395.37 Q110.413 1393.63 107.311 1393.63 Q105.112 1393.63 102.659 1394.4 Q100.228 1395.16 97.4502 1396.71 L97.4502 1391.99 Q100.274 1390.85 102.728 1390.28 Q105.182 1389.7 107.219 1389.7 Q112.589 1389.7 115.783 1392.38 Q118.978 1395.07 118.978 1399.56 Q118.978 1401.69 118.168 1403.61 Q117.381 1405.51 115.274 1408.1 Q114.695 1408.77 111.594 1411.99 Q108.492 1415.18 102.844 1420.95 Z" fill="#000000" fill-rule="nonzero" fill-opacity="1" /><path clip-path="url(#clip390)" d="M129.024 1390.32 L147.38 1390.32 L147.38 1394.26 L133.306 1394.26 L133.306 1402.73 Q134.325 1402.38 135.344 1402.22 Q136.362 1402.03 137.381 1402.03 Q143.168 1402.03 146.547 1405.21 Q149.927 1408.38 149.927 1413.79 Q149.927 1419.37 146.455 1422.47 Q142.982 1425.55 136.663 1425.55 Q134.487 1425.55 132.219 1425.18 Q129.973 1424.81 127.566 1424.07 L127.566 1419.37 Q129.649 1420.51 131.871 1421.06 Q134.094 1421.62 136.57 1421.62 Q140.575 1421.62 142.913 1419.51 Q145.251 1417.4 145.251 1413.79 Q145.251 1410.18 142.913 1408.08 Q140.575 1405.97 136.57 1405.97 Q134.695 1405.97 132.82 1406.39 Q130.969 1406.8 129.024 1407.68 L129.024 1390.32 Z" fill="#000000" fill-rule="nonzero" fill-opacity="1" /><path clip-path="url(#clip390)" d="M56.6171 1066.37 L72.9365 1066.37 L72.9365 1070.31 L50.9921 1070.31 L50.9921 1066.37 Q53.6541 1063.62 58.2375 1058.99 Q62.8439 1054.34 64.0245 1052.99 Q66.2698 1050.47 67.1494 1048.73 Q68.0522 1046.97 68.0522 1045.28 Q68.0522 1042.53 66.1078 1040.79 Q64.1865 1039.06 61.0847 1039.06 Q58.8856 1039.06 56.4319 1039.82 Q54.0014 1040.59 51.2236 1042.14 L51.2236 1037.41 Q54.0477 1036.28 56.5014 1035.7 Q58.955 1035.12 60.9921 1035.12 Q66.3624 1035.12 69.5568 1037.81 Q72.7513 1040.49 72.7513 1044.98 Q72.7513 1047.11 71.9411 1049.03 Q71.1541 1050.93 69.0476 1053.52 Q68.4689 1054.2 65.367 1057.41 Q62.2652 1060.61 56.6171 1066.37 Z" fill="#000000" fill-rule="nonzero" fill-opacity="1" /><path clip-path="url(#clip390)" d="M82.7512 1064.43 L87.6354 1064.43 L87.6354 1070.31 L82.7512 1070.31 L82.7512 1064.43 Z" fill="#000000" fill-rule="nonzero" fill-opacity="1" /><path clip-path="url(#clip390)" d="M97.8669 1035.75 L116.223 1035.75 L116.223 1039.68 L102.149 1039.68 L102.149 1048.15 Q103.168 1047.81 104.186 1047.65 Q105.205 1047.46 106.223 1047.46 Q112.01 1047.46 115.39 1050.63 Q118.77 1053.8 118.77 1059.22 Q118.77 1064.8 115.297 1067.9 Q111.825 1070.98 105.506 1070.98 Q103.33 1070.98 101.061 1070.61 Q98.8159 1070.24 96.4085 1069.5 L96.4085 1064.8 Q98.4919 1065.93 100.714 1066.49 Q102.936 1067.04 105.413 1067.04 Q109.418 1067.04 111.756 1064.94 Q114.094 1062.83 114.094 1059.22 Q114.094 1055.61 111.756 1053.5 Q109.418 1051.4 105.413 1051.4 Q103.538 1051.4 101.663 1051.81 Q99.8113 1052.23 97.8669 1053.11 L97.8669 1035.75 Z" fill="#000000" fill-rule="nonzero" fill-opacity="1" /><path clip-path="url(#clip390)" d="M137.982 1038.83 Q134.371 1038.83 132.543 1042.39 Q130.737 1045.93 130.737 1053.06 Q130.737 1060.17 132.543 1063.73 Q134.371 1067.27 137.982 1067.27 Q141.617 1067.27 143.422 1063.73 Q145.251 1060.17 145.251 1053.06 Q145.251 1045.93 143.422 1042.39 Q141.617 1038.83 137.982 1038.83 M137.982 1035.12 Q143.793 1035.12 146.848 1039.73 Q149.927 1044.31 149.927 1053.06 Q149.927 1061.79 146.848 1066.4 Q143.793 1070.98 137.982 1070.98 Q132.172 1070.98 129.094 1066.4 Q126.038 1061.79 126.038 1053.06 Q126.038 1044.31 129.094 1039.73 Q132.172 1035.12 137.982 1035.12 Z" fill="#000000" fill-rule="nonzero" fill-opacity="1" /><path clip-path="url(#clip390)" d="M57.6125 711.798 L73.9318 711.798 L73.9318 715.733 L51.9875 715.733 L51.9875 711.798 Q54.6495 709.043 59.2328 704.414 Q63.8393 699.761 65.0198 698.418 Q67.2652 695.895 68.1448 694.159 Q69.0476 692.4 69.0476 690.71 Q69.0476 687.955 67.1032 686.219 Q65.1819 684.483 62.08 684.483 Q59.881 684.483 57.4273 685.247 Q54.9967 686.011 52.219 687.562 L52.219 682.84 Q55.043 681.705 57.4967 681.127 Q59.9504 680.548 61.9874 680.548 Q67.3578 680.548 70.5522 683.233 Q73.7466 685.918 73.7466 690.409 Q73.7466 692.539 72.9365 694.46 Q72.1494 696.358 70.0429 698.951 Q69.4642 699.622 66.3624 702.84 Q63.2606 706.034 57.6125 711.798 Z" fill="#000000" fill-rule="nonzero" fill-opacity="1" /><path clip-path="url(#clip390)" d="M83.7466 709.853 L88.6308 709.853 L88.6308 715.733 L83.7466 715.733 L83.7466 709.853 Z" fill="#000000" fill-rule="nonzero" fill-opacity="1" /><path clip-path="url(#clip390)" d="M97.6354 681.173 L119.857 681.173 L119.857 683.164 L107.311 715.733 L102.427 715.733 L114.233 685.108 L97.6354 685.108 L97.6354 681.173 Z" fill="#000000" fill-rule="nonzero" fill-opacity="1" /><path clip-path="url(#clip390)" d="M129.024 681.173 L147.38 681.173 L147.38 685.108 L133.306 685.108 L133.306 693.58 Q134.325 693.233 135.344 693.071 Q136.362 692.886 137.381 692.886 Q143.168 692.886 146.547 696.057 Q149.927 699.228 149.927 704.645 Q149.927 710.224 146.455 713.326 Q142.982 716.404 136.663 716.404 Q134.487 716.404 132.219 716.034 Q129.973 715.664 127.566 714.923 L127.566 710.224 Q129.649 711.358 131.871 711.914 Q134.094 712.469 136.57 712.469 Q140.575 712.469 142.913 710.363 Q145.251 708.256 145.251 704.645 Q145.251 701.034 142.913 698.928 Q140.575 696.821 136.57 696.821 Q134.695 696.821 132.82 697.238 Q130.969 697.654 129.024 698.534 L129.024 681.173 Z" fill="#000000" fill-rule="nonzero" fill-opacity="1" /><path clip-path="url(#clip390)" d="M66.7559 342.525 Q70.1124 343.242 71.9874 345.511 Q73.8855 347.779 73.8855 351.113 Q73.8855 356.228 70.367 359.029 Q66.8485 361.83 60.3671 361.83 Q58.1912 361.83 55.8764 361.39 Q53.5847 360.974 51.131 360.117 L51.131 355.603 Q53.0754 356.738 55.3903 357.316 Q57.7051 357.895 60.2282 357.895 Q64.6263 357.895 66.918 356.159 Q69.2328 354.423 69.2328 351.113 Q69.2328 348.057 67.08 346.344 Q64.9504 344.608 61.131 344.608 L57.1032 344.608 L57.1032 340.765 L61.3161 340.765 Q64.7652 340.765 66.5939 339.4 Q68.4226 338.011 68.4226 335.418 Q68.4226 332.756 66.5245 331.344 Q64.6495 329.909 61.131 329.909 Q59.2097 329.909 57.0106 330.326 Q54.8115 330.742 52.1727 331.622 L52.1727 327.455 Q54.8347 326.715 57.1495 326.344 Q59.4875 325.974 61.5476 325.974 Q66.8717 325.974 69.9735 328.404 Q73.0753 330.812 73.0753 334.932 Q73.0753 337.802 71.4318 339.793 Q69.7883 341.761 66.7559 342.525 Z" fill="#000000" fill-rule="nonzero" fill-opacity="1" /><path clip-path="url(#clip390)" d="M82.7512 355.279 L87.6354 355.279 L87.6354 361.159 L82.7512 361.159 L82.7512 355.279 Z" fill="#000000" fill-rule="nonzero" fill-opacity="1" /><path clip-path="url(#clip390)" d="M107.821 329.678 Q104.209 329.678 102.381 333.242 Q100.575 336.784 100.575 343.914 Q100.575 351.02 102.381 354.585 Q104.209 358.126 107.821 358.126 Q111.455 358.126 113.26 354.585 Q115.089 351.02 115.089 343.914 Q115.089 336.784 113.26 333.242 Q111.455 329.678 107.821 329.678 M107.821 325.974 Q113.631 325.974 116.686 330.58 Q119.765 335.164 119.765 343.914 Q119.765 352.64 116.686 357.247 Q113.631 361.83 107.821 361.83 Q102.01 361.83 98.9317 357.247 Q95.8761 352.64 95.8761 343.914 Q95.8761 335.164 98.9317 330.58 Q102.01 325.974 107.821 325.974 Z" fill="#000000" fill-rule="nonzero" fill-opacity="1" /><path clip-path="url(#clip390)" d="M137.982 329.678 Q134.371 329.678 132.543 333.242 Q130.737 336.784 130.737 343.914 Q130.737 351.02 132.543 354.585 Q134.371 358.126 137.982 358.126 Q141.617 358.126 143.422 354.585 Q145.251 351.02 145.251 343.914 Q145.251 336.784 143.422 333.242 Q141.617 329.678 137.982 329.678 M137.982 325.974 Q143.793 325.974 146.848 330.58 Q149.927 335.164 149.927 343.914 Q149.927 352.64 146.848 357.247 Q143.793 361.83 137.982 361.83 Q132.172 361.83 129.094 357.247 Q126.038 352.64 126.038 343.914 Q126.038 335.164 129.094 330.58 Q132.172 325.974 137.982 325.974 Z" fill="#000000" fill-rule="nonzero" fill-opacity="1" /><polyline clip-path="url(#clip392)" style="stroke:#009af9; stroke-linecap:round; stroke-linejoin:round; stroke-width:4; stroke-opacity:1; fill:none" points="247.252,988.933 267.694,869.348 288.136,704.75 308.577,1112.87 329.019,1094.75 349.461,767.745 369.903,1033.73 390.345,815.929 410.786,1099.71 431.228,797.834 451.67,1014.08 472.112,804.821 492.554,281.881 512.995,581.096 533.437,808.854 553.879,1056.03 574.321,1145.49 594.762,87.9763 615.204,654.046 635.646,930.089 656.088,288.899 676.53,772.655 696.971,1118.08 717.413,242.506 737.855,820.954 758.297,1014.26 778.739,1098.65 799.18,571.456 819.622,985.088 840.064,524.371 860.506,393.924 880.947,777.855 901.389,704.083 921.831,897.226 942.273,647.566 962.715,853.116 983.156,524.229 1003.6,895.471 1024.04,584.371 1044.48,680.417 1064.92,484.051 1085.37,737.901 1105.81,1230.04 1126.25,784.936 1146.69,897.934 1167.13,1015.05 1187.57,714.795 1208.02,1445.72 1228.46,1097.12 1248.9,1082.44 1269.34,643.457 1289.78,798.369 1310.22,1375.51 1330.67,641.16 1351.11,765.384 1371.55,1045.22 1391.99,1079.17 1412.43,1200.18 1432.88,344.945 1453.32,798.379 1473.76,363.684 1494.2,862.918 1514.64,874.186 1535.08,1266.74 1555.53,608.853 1575.97,1047.59 1596.41,875.349 1616.85,496.999 1637.29,1228.24 1657.74,1073.5 1678.18,817.646 1698.62,933.402 1719.06,933.333 1739.5,536.557 1759.94,646.124 1780.39,1092.4 1800.83,995.638 1821.27,156.017 1841.71,963.006 1862.15,982.388 1882.59,1007.78 1903.04,470.199 1923.48,855.336 1943.92,714.809 1964.36,1231 1984.8,410.758 2005.25,340.651 2025.69,344.707 2046.13,460.569 2066.57,600.381 2087.01,415.443 2107.45,322.057 2127.9,517.514 2148.34,486.424 2168.78,1337.68 2189.22,303.244 2209.66,1125.48 2230.11,308.864 2250.55,292.632 2270.99,452.677 2291.43,452.959 "/>
<path clip-path="url(#clip390)" d="M258.154 1438.47 L527.268 1438.47 L527.268 1334.79 L258.154 1334.79  Z" fill="#ffffff" fill-rule="evenodd" fill-opacity="1"/>
<polyline clip-path="url(#clip390)" style="stroke:#000000; stroke-linecap:round; stroke-linejoin:round; stroke-width:4; stroke-opacity:1; fill:none" points="258.154,1438.47 527.268,1438.47 527.268,1334.79 258.154,1334.79 258.154,1438.47 "/>
<polyline clip-path="url(#clip390)" style="stroke:#009af9; stroke-linecap:round; stroke-linejoin:round; stroke-width:4; stroke-opacity:1; fill:none" points="282.23,1386.63 426.686,1386.63 "/>
<path clip-path="url(#clip390)" d="M464.604 1406.32 Q462.798 1410.95 461.085 1412.36 Q459.373 1413.78 456.502 1413.78 L453.099 1413.78 L453.099 1410.21 L455.599 1410.21 Q457.359 1410.21 458.331 1409.38 Q459.303 1408.54 460.484 1405.44 L461.248 1403.5 L450.761 1377.99 L455.275 1377.99 L463.377 1398.27 L471.479 1377.99 L475.993 1377.99 L464.604 1406.32 Z" fill="#000000" fill-rule="nonzero" fill-opacity="1" /><path clip-path="url(#clip390)" d="M483.284 1399.98 L490.923 1399.98 L490.923 1373.61 L482.613 1375.28 L482.613 1371.02 L490.877 1369.35 L495.553 1369.35 L495.553 1399.98 L503.192 1399.98 L503.192 1403.91 L483.284 1403.91 L483.284 1399.98 Z" fill="#000000" fill-rule="nonzero" fill-opacity="1" /></svg>
