<?xml version="1.0" encoding="utf-8"?>
<svg xmlns="http://www.w3.org/2000/svg" xmlns:xlink="http://www.w3.org/1999/xlink" width="600" height="400" viewBox="0 0 2400 1600">
<defs>
  <clipPath id="clip430">
    <rect x="0" y="0" width="2400" height="1600"/>
  </clipPath>
</defs>
<path clip-path="url(#clip430)" d="M0 1600 L2400 1600 L2400 0 L0 0  Z" fill="#ffffff" fill-rule="evenodd" fill-opacity="1"/>
<defs>
  <clipPath id="clip431">
    <rect x="480" y="0" width="1681" height="1600"/>
  </clipPath>
</defs>
<path clip-path="url(#clip430)" d="M139.446 1486.45 L2352.76 1486.45 L2352.76 47.2441 L139.446 47.2441  Z" fill="#ffffff" fill-rule="evenodd" fill-opacity="1"/>
<defs>
  <clipPath id="clip432">
    <rect x="139" y="47" width="2214" height="1440"/>
  </clipPath>
</defs>
<polyline clip-path="url(#clip432)" style="stroke:#000000; stroke-linecap:round; stroke-linejoin:round; stroke-width:2; stroke-opacity:0.1; fill:none" points="202.086,1486.45 202.086,47.2441 "/>
<polyline clip-path="url(#clip432)" style="stroke:#000000; stroke-linecap:round; stroke-linejoin:round; stroke-width:2; stroke-opacity:0.1; fill:none" points="724.094,1486.45 724.094,47.2441 "/>
<polyline clip-path="url(#clip432)" style="stroke:#000000; stroke-linecap:round; stroke-linejoin:round; stroke-width:2; stroke-opacity:0.1; fill:none" points="1246.1,1486.45 1246.1,47.2441 "/>
<polyline clip-path="url(#clip432)" style="stroke:#000000; stroke-linecap:round; stroke-linejoin:round; stroke-width:2; stroke-opacity:0.1; fill:none" points="1768.11,1486.45 1768.11,47.2441 "/>
<polyline clip-path="url(#clip432)" style="stroke:#000000; stroke-linecap:round; stroke-linejoin:round; stroke-width:2; stroke-opacity:0.1; fill:none" points="2290.12,1486.45 2290.12,47.2441 "/>
<polyline clip-path="url(#clip430)" style="stroke:#000000; stroke-linecap:round; stroke-linejoin:round; stroke-width:4; stroke-opacity:1; fill:none" points="139.446,1486.45 2352.76,1486.45 "/>
<polyline clip-path="url(#clip430)" style="stroke:#000000; stroke-linecap:round; stroke-linejoin:round; stroke-width:4; stroke-opacity:1; fill:none" points="202.086,1486.45 202.086,1467.55 "/>
<polyline clip-path="url(#clip430)" style="stroke:#000000; stroke-linecap:round; stroke-linejoin:round; stroke-width:4; stroke-opacity:1; fill:none" points="724.094,1486.45 724.094,1467.55 "/>
<polyline clip-path="url(#clip430)" style="stroke:#000000; stroke-linecap:round; stroke-linejoin:round; stroke-width:4; stroke-opacity:1; fill:none" points="1246.1,1486.45 1246.1,1467.55 "/>
<polyline clip-path="url(#clip430)" style="stroke:#000000; stroke-linecap:round; stroke-linejoin:round; stroke-width:4; stroke-opacity:1; fill:none" points="1768.11,1486.45 1768.11,1467.55 "/>
<polyline clip-path="url(#clip430)" style="stroke:#000000; stroke-linecap:round; stroke-linejoin:round; stroke-width:4; stroke-opacity:1; fill:none" points="2290.12,1486.45 2290.12,1467.55 "/>
<path clip-path="url(#clip430)" d="M202.086 1517.37 Q198.475 1517.37 196.647 1520.93 Q194.841 1524.47 194.841 1531.6 Q194.841 1538.71 196.647 1542.27 Q198.475 1545.82 202.086 1545.82 Q205.721 1545.82 207.526 1542.27 Q209.355 1538.71 209.355 1531.6 Q209.355 1524.47 207.526 1520.93 Q205.721 1517.37 202.086 1517.37 M202.086 1513.66 Q207.897 1513.66 210.952 1518.27 Q214.031 1522.85 214.031 1531.6 Q214.031 1540.33 210.952 1544.94 Q207.897 1549.52 202.086 1549.52 Q196.276 1549.52 193.198 1544.94 Q190.142 1540.33 190.142 1531.6 Q190.142 1522.85 193.198 1518.27 Q196.276 1513.66 202.086 1513.66 Z" fill="#000000" fill-rule="nonzero" fill-opacity="1" /><path clip-path="url(#clip430)" d="M714.371 1514.29 L732.728 1514.29 L732.728 1518.22 L718.654 1518.22 L718.654 1526.7 Q719.672 1526.35 720.691 1526.19 Q721.709 1526 722.728 1526 Q728.515 1526 731.894 1529.17 Q735.274 1532.34 735.274 1537.76 Q735.274 1543.34 731.802 1546.44 Q728.33 1549.52 722.01 1549.52 Q719.834 1549.52 717.566 1549.15 Q715.32 1548.78 712.913 1548.04 L712.913 1543.34 Q714.996 1544.47 717.219 1545.03 Q719.441 1545.58 721.918 1545.58 Q725.922 1545.58 728.26 1543.48 Q730.598 1541.37 730.598 1537.76 Q730.598 1534.15 728.26 1532.04 Q725.922 1529.94 721.918 1529.94 Q720.043 1529.94 718.168 1530.35 Q716.316 1530.77 714.371 1531.65 L714.371 1514.29 Z" fill="#000000" fill-rule="nonzero" fill-opacity="1" /><path clip-path="url(#clip430)" d="M1220.79 1544.91 L1228.43 1544.91 L1228.43 1518.55 L1220.12 1520.21 L1220.12 1515.95 L1228.38 1514.29 L1233.06 1514.29 L1233.06 1544.91 L1240.7 1544.91 L1240.7 1548.85 L1220.79 1548.85 L1220.79 1544.91 Z" fill="#000000" fill-rule="nonzero" fill-opacity="1" /><path clip-path="url(#clip430)" d="M1260.14 1517.37 Q1256.53 1517.37 1254.7 1520.93 Q1252.89 1524.47 1252.89 1531.6 Q1252.89 1538.71 1254.7 1542.27 Q1256.53 1545.82 1260.14 1545.82 Q1263.77 1545.82 1265.58 1542.27 Q1267.41 1538.71 1267.41 1531.6 Q1267.41 1524.47 1265.58 1520.93 Q1263.77 1517.37 1260.14 1517.37 M1260.14 1513.66 Q1265.95 1513.66 1269.01 1518.27 Q1272.08 1522.85 1272.08 1531.6 Q1272.08 1540.33 1269.01 1544.94 Q1265.95 1549.52 1260.14 1549.52 Q1254.33 1549.52 1251.25 1544.94 Q1248.2 1540.33 1248.2 1531.6 Q1248.2 1522.85 1251.25 1518.27 Q1254.33 1513.66 1260.14 1513.66 Z" fill="#000000" fill-rule="nonzero" fill-opacity="1" /><path clip-path="url(#clip430)" d="M1743.29 1544.91 L1750.93 1544.91 L1750.93 1518.55 L1742.62 1520.21 L1742.62 1515.95 L1750.89 1514.29 L1755.56 1514.29 L1755.56 1544.91 L1763.2 1544.91 L1763.2 1548.85 L1743.29 1548.85 L1743.29 1544.91 Z" fill="#000000" fill-rule="nonzero" fill-opacity="1" /><path clip-path="url(#clip430)" d="M1772.69 1514.29 L1791.05 1514.29 L1791.05 1518.22 L1776.97 1518.22 L1776.97 1526.7 Q1777.99 1526.35 1779.01 1526.19 Q1780.03 1526 1781.05 1526 Q1786.83 1526 1790.21 1529.17 Q1793.59 1532.34 1793.59 1537.76 Q1793.59 1543.34 1790.12 1546.44 Q1786.65 1549.52 1780.33 1549.52 Q1778.15 1549.52 1775.89 1549.15 Q1773.64 1548.78 1771.23 1548.04 L1771.23 1543.34 Q1773.32 1544.47 1775.54 1545.03 Q1777.76 1545.58 1780.24 1545.58 Q1784.24 1545.58 1786.58 1543.48 Q1788.92 1541.37 1788.92 1537.76 Q1788.92 1534.15 1786.58 1532.04 Q1784.24 1529.94 1780.24 1529.94 Q1778.36 1529.94 1776.49 1530.35 Q1774.64 1530.77 1772.69 1531.65 L1772.69 1514.29 Z" fill="#000000" fill-rule="nonzero" fill-opacity="1" /><path clip-path="url(#clip430)" d="M2268.89 1544.91 L2285.21 1544.91 L2285.21 1548.85 L2263.26 1548.85 L2263.26 1544.91 Q2265.93 1542.16 2270.51 1537.53 Q2275.12 1532.88 2276.3 1531.53 Q2278.54 1529.01 2279.42 1527.27 Q2280.32 1525.51 2280.32 1523.82 Q2280.32 1521.07 2278.38 1519.33 Q2276.46 1517.6 2273.36 1517.6 Q2271.16 1517.6 2268.7 1518.36 Q2266.27 1519.13 2263.49 1520.68 L2263.49 1515.95 Q2266.32 1514.82 2268.77 1514.24 Q2271.23 1513.66 2273.26 1513.66 Q2278.63 1513.66 2281.83 1516.35 Q2285.02 1519.03 2285.02 1523.52 Q2285.02 1525.65 2284.21 1527.57 Q2283.43 1529.47 2281.32 1532.07 Q2280.74 1532.74 2277.64 1535.95 Q2274.54 1539.15 2268.89 1544.91 Z" fill="#000000" fill-rule="nonzero" fill-opacity="1" /><path clip-path="url(#clip430)" d="M2305.02 1517.37 Q2301.41 1517.37 2299.58 1520.93 Q2297.78 1524.47 2297.78 1531.6 Q2297.78 1538.71 2299.58 1542.27 Q2301.41 1545.82 2305.02 1545.82 Q2308.66 1545.82 2310.46 1542.27 Q2312.29 1538.71 2312.29 1531.6 Q2312.29 1524.47 2310.46 1520.93 Q2308.66 1517.37 2305.02 1517.37 M2305.02 1513.66 Q2310.83 1513.66 2313.89 1518.27 Q2316.97 1522.85 2316.97 1531.6 Q2316.97 1540.33 2313.89 1544.94 Q2310.83 1549.52 2305.02 1549.52 Q2299.21 1549.52 2296.13 1544.94 Q2293.08 1540.33 2293.08 1531.6 Q2293.08 1522.85 2296.13 1518.27 Q2299.21 1513.66 2305.02 1513.66 Z" fill="#000000" fill-rule="nonzero" fill-opacity="1" /><polyline clip-path="url(#clip432)" style="stroke:#000000; stroke-linecap:round; stroke-linejoin:round; stroke-width:2; stroke-opacity:0.1; fill:none" points="139.446,1263.1 2352.76,1263.1 "/>
<polyline clip-path="url(#clip432)" style="stroke:#000000; stroke-linecap:round; stroke-linejoin:round; stroke-width:2; stroke-opacity:0.1; fill:none" points="139.446,947.511 2352.76,947.511 "/>
<polyline clip-path="url(#clip432)" style="stroke:#000000; stroke-linecap:round; stroke-linejoin:round; stroke-width:2; stroke-opacity:0.1; fill:none" points="139.446,631.919 2352.76,631.919 "/>
<polyline clip-path="url(#clip432)" style="stroke:#000000; stroke-linecap:round; stroke-linejoin:round; stroke-width:2; stroke-opacity:0.1; fill:none" points="139.446,316.326 2352.76,316.326 "/>
<polyline clip-path="url(#clip430)" style="stroke:#000000; stroke-linecap:round; stroke-linejoin:round; stroke-width:4; stroke-opacity:1; fill:none" points="139.446,1486.45 139.446,47.2441 "/>
<polyline clip-path="url(#clip430)" style="stroke:#000000; stroke-linecap:round; stroke-linejoin:round; stroke-width:4; stroke-opacity:1; fill:none" points="139.446,1263.1 158.343,1263.1 "/>
<polyline clip-path="url(#clip430)" style="stroke:#000000; stroke-linecap:round; stroke-linejoin:round; stroke-width:4; stroke-opacity:1; fill:none" points="139.446,947.511 158.343,947.511 "/>
<polyline clip-path="url(#clip430)" style="stroke:#000000; stroke-linecap:round; stroke-linejoin:round; stroke-width:4; stroke-opacity:1; fill:none" points="139.446,631.919 158.343,631.919 "/>
<polyline clip-path="url(#clip430)" style="stroke:#000000; stroke-linecap:round; stroke-linejoin:round; stroke-width:4; stroke-opacity:1; fill:none" points="139.446,316.326 158.343,316.326 "/>
<path clip-path="url(#clip430)" d="M52.1495 1276.45 L59.7884 1276.45 L59.7884 1250.08 L51.4782 1251.75 L51.4782 1247.49 L59.7421 1245.82 L64.418 1245.82 L64.418 1276.45 L72.0568 1276.45 L72.0568 1280.38 L52.1495 1280.38 L52.1495 1276.45 Z" fill="#000000" fill-rule="nonzero" fill-opacity="1" /><path clip-path="url(#clip430)" d="M91.5012 1248.9 Q87.8901 1248.9 86.0614 1252.47 Q84.2558 1256.01 84.2558 1263.14 Q84.2558 1270.24 86.0614 1273.81 Q87.8901 1277.35 91.5012 1277.35 Q95.1354 1277.35 96.941 1273.81 Q98.7696 1270.24 98.7696 1263.14 Q98.7696 1256.01 96.941 1252.47 Q95.1354 1248.9 91.5012 1248.9 M91.5012 1245.2 Q97.3113 1245.2 100.367 1249.81 Q103.446 1254.39 103.446 1263.14 Q103.446 1271.87 100.367 1276.47 Q97.3113 1281.06 91.5012 1281.06 Q85.691 1281.06 82.6123 1276.47 Q79.5568 1271.87 79.5568 1263.14 Q79.5568 1254.39 82.6123 1249.81 Q85.691 1245.2 91.5012 1245.2 Z" fill="#000000" fill-rule="nonzero" fill-opacity="1" /><path clip-path="url(#clip430)" d="M53.7467 960.856 L61.3856 960.856 L61.3856 934.491 L53.0754 936.157 L53.0754 931.898 L61.3393 930.231 L66.0152 930.231 L66.0152 960.856 L73.654 960.856 L73.654 964.791 L53.7467 964.791 L53.7467 960.856 Z" fill="#000000" fill-rule="nonzero" fill-opacity="1" /><path clip-path="url(#clip430)" d="M87.1262 960.856 L103.446 960.856 L103.446 964.791 L81.5012 964.791 L81.5012 960.856 Q84.1632 958.102 88.7466 953.472 Q93.353 948.819 94.5336 947.477 Q96.7789 944.953 97.6585 943.217 Q98.5613 941.458 98.5613 939.768 Q98.5613 937.014 96.6169 935.278 Q94.6956 933.542 91.5938 933.542 Q89.3947 933.542 86.941 934.305 Q84.5105 935.069 81.7327 936.62 L81.7327 931.898 Q84.5568 930.764 87.0105 930.185 Q89.4641 929.606 91.5012 929.606 Q96.8715 929.606 100.066 932.292 Q103.26 934.977 103.26 939.467 Q103.26 941.597 102.45 943.518 Q101.663 945.416 99.5567 948.009 Q98.978 948.68 95.8761 951.898 Q92.7743 955.092 87.1262 960.856 Z" fill="#000000" fill-rule="nonzero" fill-opacity="1" /><path clip-path="url(#clip430)" d="M51.6634 645.264 L59.3023 645.264 L59.3023 618.898 L50.9921 620.565 L50.9921 616.306 L59.256 614.639 L63.9319 614.639 L63.9319 645.264 L71.5707 645.264 L71.5707 649.199 L51.6634 649.199 L51.6634 645.264 Z" fill="#000000" fill-rule="nonzero" fill-opacity="1" /><path clip-path="url(#clip430)" d="M93.8623 618.713 L82.0568 637.162 L93.8623 637.162 L93.8623 618.713 M92.6354 614.639 L98.515 614.639 L98.515 637.162 L103.446 637.162 L103.446 641.051 L98.515 641.051 L98.515 649.199 L93.8623 649.199 L93.8623 641.051 L78.2605 641.051 L78.2605 636.537 L92.6354 614.639 Z" fill="#000000" fill-rule="nonzero" fill-opacity="1" /><path clip-path="url(#clip430)" d="M51.9875 329.671 L59.6263 329.671 L59.6263 303.306 L51.3162 304.972 L51.3162 300.713 L59.58 299.046 L64.2559 299.046 L64.2559 329.671 L71.8948 329.671 L71.8948 333.606 L51.9875 333.606 L51.9875 329.671 Z" fill="#000000" fill-rule="nonzero" fill-opacity="1" /><path clip-path="url(#clip430)" d="M91.9178 314.463 Q88.7697 314.463 86.9179 316.616 Q85.0892 318.769 85.0892 322.519 Q85.0892 326.245 86.9179 328.421 Q88.7697 330.574 91.9178 330.574 Q95.066 330.574 96.8947 328.421 Q98.7465 326.245 98.7465 322.519 Q98.7465 318.769 96.8947 316.616 Q95.066 314.463 91.9178 314.463 M101.2 299.81 L101.2 304.07 Q99.4409 303.236 97.6354 302.796 Q95.853 302.357 94.0937 302.357 Q89.4641 302.357 87.0105 305.482 Q84.5799 308.607 84.2327 314.926 Q85.5984 312.912 87.6586 311.847 Q89.7188 310.759 92.1956 310.759 Q97.4039 310.759 100.413 313.931 Q103.446 317.079 103.446 322.519 Q103.446 327.843 100.297 331.06 Q97.1493 334.278 91.9178 334.278 Q85.9225 334.278 82.7512 329.694 Q79.5799 325.088 79.5799 316.361 Q79.5799 308.167 83.4688 303.306 Q87.3577 298.421 93.9086 298.421 Q95.6678 298.421 97.4502 298.769 Q99.2558 299.116 101.2 299.81 Z" fill="#000000" fill-rule="nonzero" fill-opacity="1" /><polyline clip-path="url(#clip432)" style="stroke:#009af9; stroke-linecap:round; stroke-linejoin:round; stroke-width:4; stroke-opacity:1; fill:none" points="202.086,1436.24 306.488,1445.72 410.889,1047.06 515.291,1064.91 619.692,1381.36 724.094,1393.65 828.495,1176.46 932.896,1193.33 1037.3,638.208 1141.7,658.546 1246.1,909.789 1350.5,923.345 1454.9,87.9763 1559.31,109.781 1663.71,426.175 1768.11,447.549 1872.51,1108.64 1976.91,1117.95 2081.31,413.154 2185.71,426.158 2290.12,437.822 "/>
<path clip-path="url(#clip430)" d="M2005.22 198.898 L2278.98 198.898 L2278.98 95.2176 L2005.22 95.2176  Z" fill="#ffffff" fill-rule="evenodd" fill-opacity="1"/>
<polyline clip-path="url(#clip430)" style="stroke:#000000; stroke-linecap:round; stroke-linejoin:round; stroke-width:4; stroke-opacity:1; fill:none" points="2005.22,198.898 2278.98,198.898 2278.98,95.2176 2005.22,95.2176 2005.22,198.898 "/>
<polyline clip-path="url(#clip430)" style="stroke:#009af9; stroke-linecap:round; stroke-linejoin:round; stroke-width:4; stroke-opacity:1; fill:none" points="2029.81,147.058 2177.36,147.058 "/>
<path clip-path="url(#clip430)" d="M2215.8 166.745 Q2213.99 171.375 2212.28 172.787 Q2210.57 174.199 2207.7 174.199 L2204.29 174.199 L2204.29 170.634 L2206.79 170.634 Q2208.55 170.634 2209.53 169.8 Q2210.5 168.967 2211.68 165.865 L2212.44 163.921 L2201.96 138.412 L2206.47 138.412 L2214.57 158.689 L2222.67 138.412 L2227.19 138.412 L2215.8 166.745 Z" fill="#000000" fill-rule="nonzero" fill-opacity="1" /><path clip-path="url(#clip430)" d="M2234.48 160.402 L2242.12 160.402 L2242.12 134.037 L2233.81 135.703 L2233.81 131.444 L2242.07 129.778 L2246.75 129.778 L2246.75 160.402 L2254.39 160.402 L2254.39 164.338 L2234.48 164.338 L2234.48 160.402 Z" fill="#000000" fill-rule="nonzero" fill-opacity="1" /></svg>
