<?xml version="1.0" encoding="utf-8"?>
<svg xmlns="http://www.w3.org/2000/svg" xmlns:xlink="http://www.w3.org/1999/xlink" width="600" height="400" viewBox="0 0 2400 1600">
<defs>
  <clipPath id="clip250">
    <rect x="0" y="0" width="2400" height="1600"/>
  </clipPath>
</defs>
<path clip-path="url(#clip250)" d="M0 1600 L2400 1600 L2400 0 L0 0  Z" fill="#ffffff" fill-rule="evenodd" fill-opacity="1"/>
<defs>
  <clipPath id="clip251">
    <rect x="480" y="0" width="1681" height="1600"/>
  </clipPath>
</defs>
<path clip-path="url(#clip250)" d="M156.598 1486.45 L2352.76 1486.45 L2352.76 47.2441 L156.598 47.2441  Z" fill="#ffffff" fill-rule="evenodd" fill-opacity="1"/>
<defs>
  <clipPath id="clip252">
    <rect x="156" y="47" width="2197" height="1440"/>
  </clipPath>
</defs>
<polyline clip-path="url(#clip252)" style="stroke:#000000; stroke-linecap:round; stroke-linejoin:round; stroke-width:2; stroke-opacity:0.1; fill:none" points="218.754,1486.45 218.754,47.2441 "/>
<polyline clip-path="url(#clip252)" style="stroke:#000000; stroke-linecap:round; stroke-linejoin:round; stroke-width:2; stroke-opacity:0.1; fill:none" points="736.715,1486.45 736.715,47.2441 "/>
<polyline clip-path="url(#clip252)" style="stroke:#000000; stroke-linecap:round; stroke-linejoin:round; stroke-width:2; stroke-opacity:0.1; fill:none" points="1254.68,1486.45 1254.68,47.2441 "/>
<polyline clip-path="url(#clip252)" style="stroke:#000000; stroke-linecap:round; stroke-linejoin:round; stroke-width:2; stroke-opacity:0.1; fill:none" points="1772.64,1486.45 1772.64,47.2441 "/>
<polyline clip-path="url(#clip252)" style="stroke:#000000; stroke-linecap:round; stroke-linejoin:round; stroke-width:2; stroke-opacity:0.1; fill:none" points="2290.6,1486.45 2290.6,47.2441 "/>
<polyline clip-path="url(#clip250)" style="stroke:#000000; stroke-linecap:round; stroke-linejoin:round; stroke-width:4; stroke-opacity:1; fill:none" points="156.598,1486.45 2352.76,1486.45 "/>
<polyline clip-path="url(#clip250)" style="stroke:#000000; stroke-linecap:round; stroke-linejoin:round; stroke-width:4; stroke-opacity:1; fill:none" points="218.754,1486.45 218.754,1467.55 "/>
<polyline clip-path="url(#clip250)" style="stroke:#000000; stroke-linecap:round; stroke-linejoin:round; stroke-width:4; stroke-opacity:1; fill:none" points="736.715,1486.45 736.715,1467.55 "/>
<polyline clip-path="url(#clip250)" style="stroke:#000000; stroke-linecap:round; stroke-linejoin:round; stroke-width:4; stroke-opacity:1; fill:none" points="1254.68,1486.45 1254.68,1467.55 "/>
<polyline clip-path="url(#clip250)" style="stroke:#000000; stroke-linecap:round; stroke-linejoin:round; stroke-width:4; stroke-opacity:1; fill:none" points="1772.64,1486.45 1772.64,1467.55 "/>
<polyline clip-path="url(#clip250)" style="stroke:#000000; stroke-linecap:round; stroke-linejoin:round; stroke-width:4; stroke-opacity:1; fill:none" points="2290.6,1486.45 2290.6,1467.55 "/>
<path clip-path="url(#clip250)" d="M218.754 1517.37 Q215.143 1517.37 213.314 1520.93 Q211.508 1524.47 211.508 1531.6 Q211.508 1538.71 213.314 1542.27 Q215.143 1545.82 218.754 1545.82 Q222.388 1545.82 224.193 1542.27 Q226.022 1538.71 226.022 1531.6 Q226.022 1524.47 224.193 1520.93 Q222.388 1517.37 218.754 1517.37 M218.754 1513.66 Q224.564 1513.66 227.619 1518.27 Q230.698 1522.85 230.698 1531.6 Q230.698 1540.33 227.619 1544.94 Q224.564 1549.52 218.754 1549.52 Q212.943 1549.52 209.865 1544.94 Q206.809 1540.33 206.809 1531.6 Q206.809 1522.85 209.865 1518.27 Q212.943 1513.66 218.754 1513.66 Z" fill="#000000" fill-rule="nonzero" fill-opacity="1" /><path clip-path="url(#clip250)" d="M696.334 1514.29 L714.69 1514.29 L714.69 1518.22 L700.616 1518.22 L700.616 1526.7 Q701.635 1526.35 702.653 1526.19 Q703.672 1526 704.69 1526 Q710.477 1526 713.857 1529.17 Q717.236 1532.34 717.236 1537.76 Q717.236 1543.34 713.764 1546.44 Q710.292 1549.52 703.972 1549.52 Q701.797 1549.52 699.528 1549.15 Q697.283 1548.78 694.875 1548.04 L694.875 1543.34 Q696.959 1544.47 699.181 1545.03 Q701.403 1545.58 703.88 1545.58 Q707.884 1545.58 710.222 1543.48 Q712.56 1541.37 712.56 1537.76 Q712.56 1534.15 710.222 1532.04 Q707.884 1529.94 703.88 1529.94 Q702.005 1529.94 700.13 1530.35 Q698.278 1530.77 696.334 1531.65 L696.334 1514.29 Z" fill="#000000" fill-rule="nonzero" fill-opacity="1" /><path clip-path="url(#clip250)" d="M736.449 1517.37 Q732.838 1517.37 731.009 1520.93 Q729.204 1524.47 729.204 1531.6 Q729.204 1538.71 731.009 1542.27 Q732.838 1545.82 736.449 1545.82 Q740.083 1545.82 741.889 1542.27 Q743.718 1538.71 743.718 1531.6 Q743.718 1524.47 741.889 1520.93 Q740.083 1517.37 736.449 1517.37 M736.449 1513.66 Q742.259 1513.66 745.315 1518.27 Q748.394 1522.85 748.394 1531.6 Q748.394 1540.33 745.315 1544.94 Q742.259 1549.52 736.449 1549.52 Q730.639 1549.52 727.56 1544.94 Q724.505 1540.33 724.505 1531.6 Q724.505 1522.85 727.56 1518.27 Q730.639 1513.66 736.449 1513.66 Z" fill="#000000" fill-rule="nonzero" fill-opacity="1" /><path clip-path="url(#clip250)" d="M766.611 1517.37 Q763 1517.37 761.171 1520.93 Q759.366 1524.47 759.366 1531.6 Q759.366 1538.71 761.171 1542.27 Q763 1545.82 766.611 1545.82 Q770.245 1545.82 772.051 1542.27 Q773.88 1538.71 773.88 1531.6 Q773.88 1524.47 772.051 1520.93 Q770.245 1517.37 766.611 1517.37 M766.611 1513.66 Q772.421 1513.66 775.477 1518.27 Q778.555 1522.85 778.555 1531.6 Q778.555 1540.33 775.477 1544.94 Q772.421 1549.52 766.611 1549.52 Q760.801 1549.52 757.722 1544.94 Q754.667 1540.33 754.667 1531.6 Q754.667 1522.85 757.722 1518.27 Q760.801 1513.66 766.611 1513.66 Z" fill="#000000" fill-rule="nonzero" fill-opacity="1" /><path clip-path="url(#clip250)" d="M1199.2 1544.91 L1206.84 1544.91 L1206.84 1518.55 L1198.53 1520.21 L1198.53 1515.95 L1206.8 1514.29 L1211.47 1514.29 L1211.47 1544.91 L1219.11 1544.91 L1219.11 1548.85 L1199.2 1548.85 L1199.2 1544.91 Z" fill="#000000" fill-rule="nonzero" fill-opacity="1" /><path clip-path="url(#clip250)" d="M1238.55 1517.37 Q1234.94 1517.37 1233.11 1520.93 Q1231.31 1524.47 1231.31 1531.6 Q1231.31 1538.71 1233.11 1542.27 Q1234.94 1545.82 1238.55 1545.82 Q1242.19 1545.82 1243.99 1542.27 Q1245.82 1538.71 1245.82 1531.6 Q1245.82 1524.47 1243.99 1520.93 Q1242.19 1517.37 1238.55 1517.37 M1238.55 1513.66 Q1244.36 1513.66 1247.42 1518.27 Q1250.5 1522.85 1250.5 1531.6 Q1250.5 1540.33 1247.42 1544.94 Q1244.36 1549.52 1238.55 1549.52 Q1232.74 1549.52 1229.67 1544.94 Q1226.61 1540.33 1226.61 1531.6 Q1226.61 1522.85 1229.67 1518.27 Q1232.74 1513.66 1238.55 1513.66 Z" fill="#000000" fill-rule="nonzero" fill-opacity="1" /><path clip-path="url(#clip250)" d="M1268.72 1517.37 Q1265.11 1517.37 1263.28 1520.93 Q1261.47 1524.47 1261.47 1531.6 Q1261.47 1538.71 1263.28 1542.27 Q1265.11 1545.82 1268.72 1545.82 Q1272.35 1545.82 1274.16 1542.27 Q1275.98 1538.71 1275.98 1531.6 Q1275.98 1524.47 1274.16 1520.93 Q1272.35 1517.37 1268.72 1517.37 M1268.72 1513.66 Q1274.53 1513.66 1277.58 1518.27 Q1280.66 1522.85 1280.66 1531.6 Q1280.66 1540.33 1277.58 1544.94 Q1274.53 1549.52 1268.72 1549.52 Q1262.91 1549.52 1259.83 1544.94 Q1256.77 1540.33 1256.77 1531.6 Q1256.77 1522.85 1259.83 1518.27 Q1262.91 1513.66 1268.72 1513.66 Z" fill="#000000" fill-rule="nonzero" fill-opacity="1" /><path clip-path="url(#clip250)" d="M1298.88 1517.37 Q1295.27 1517.37 1293.44 1520.93 Q1291.63 1524.47 1291.63 1531.6 Q1291.63 1538.71 1293.44 1542.27 Q1295.27 1545.82 1298.88 1545.82 Q1302.51 1545.82 1304.32 1542.27 Q1306.15 1538.71 1306.15 1531.6 Q1306.15 1524.47 1304.32 1520.93 Q1302.51 1517.37 1298.88 1517.37 M1298.88 1513.66 Q1304.69 1513.66 1307.74 1518.27 Q1310.82 1522.85 1310.82 1531.6 Q1310.82 1540.33 1307.74 1544.94 Q1304.69 1549.52 1298.88 1549.52 Q1293.07 1549.52 1289.99 1544.94 Q1286.93 1540.33 1286.93 1531.6 Q1286.93 1522.85 1289.99 1518.27 Q1293.07 1513.66 1298.88 1513.66 Z" fill="#000000" fill-rule="nonzero" fill-opacity="1" /><path clip-path="url(#clip250)" d="M1717.16 1544.91 L1724.8 1544.91 L1724.8 1518.55 L1716.49 1520.21 L1716.49 1515.95 L1724.76 1514.29 L1729.43 1514.29 L1729.43 1544.91 L1737.07 1544.91 L1737.07 1548.85 L1717.16 1548.85 L1717.16 1544.91 Z" fill="#000000" fill-rule="nonzero" fill-opacity="1" /><path clip-path="url(#clip250)" d="M1746.56 1514.29 L1764.92 1514.29 L1764.92 1518.22 L1750.84 1518.22 L1750.84 1526.7 Q1751.86 1526.35 1752.88 1526.19 Q1753.9 1526 1754.92 1526 Q1760.71 1526 1764.09 1529.17 Q1767.47 1532.34 1767.47 1537.76 Q1767.47 1543.34 1763.99 1546.44 Q1760.52 1549.52 1754.2 1549.52 Q1752.03 1549.52 1749.76 1549.15 Q1747.51 1548.78 1745.1 1548.04 L1745.1 1543.34 Q1747.19 1544.47 1749.41 1545.03 Q1751.63 1545.58 1754.11 1545.58 Q1758.11 1545.58 1760.45 1543.48 Q1762.79 1541.37 1762.79 1537.76 Q1762.79 1534.15 1760.45 1532.04 Q1758.11 1529.94 1754.11 1529.94 Q1752.23 1529.94 1750.36 1530.35 Q1748.51 1530.77 1746.56 1531.65 L1746.56 1514.29 Z" fill="#000000" fill-rule="nonzero" fill-opacity="1" /><path clip-path="url(#clip250)" d="M1786.68 1517.37 Q1783.07 1517.37 1781.24 1520.93 Q1779.43 1524.47 1779.43 1531.6 Q1779.43 1538.71 1781.24 1542.27 Q1783.07 1545.82 1786.68 1545.82 Q1790.31 1545.82 1792.12 1542.27 Q1793.95 1538.71 1793.95 1531.6 Q1793.95 1524.47 1792.12 1520.93 Q1790.31 1517.37 1786.68 1517.37 M1786.68 1513.66 Q1792.49 1513.66 1795.54 1518.27 Q1798.62 1522.85 1798.62 1531.6 Q1798.62 1540.33 1795.54 1544.94 Q1792.49 1549.52 1786.68 1549.52 Q1780.87 1549.52 1777.79 1544.94 Q1774.73 1540.33 1774.73 1531.6 Q1774.73 1522.85 1777.79 1518.27 Q1780.87 1513.66 1786.68 1513.66 Z" fill="#000000" fill-rule="nonzero" fill-opacity="1" /><path clip-path="url(#clip250)" d="M1816.84 1517.37 Q1813.23 1517.37 1811.4 1520.93 Q1809.59 1524.47 1809.59 1531.6 Q1809.59 1538.71 1811.4 1542.27 Q1813.23 1545.82 1816.84 1545.82 Q1820.47 1545.82 1822.28 1542.27 Q1824.11 1538.71 1824.11 1531.6 Q1824.11 1524.47 1822.28 1520.93 Q1820.47 1517.37 1816.84 1517.37 M1816.84 1513.66 Q1822.65 1513.66 1825.71 1518.27 Q1828.78 1522.85 1828.78 1531.6 Q1828.78 1540.33 1825.71 1544.94 Q1822.65 1549.52 1816.84 1549.52 Q1811.03 1549.52 1807.95 1544.94 Q1804.9 1540.33 1804.9 1531.6 Q1804.9 1522.85 1807.95 1518.27 Q1811.03 1513.66 1816.84 1513.66 Z" fill="#000000" fill-rule="nonzero" fill-opacity="1" /><path clip-path="url(#clip250)" d="M2239.21 1544.91 L2255.53 1544.91 L2255.53 1548.85 L2233.59 1548.85 L2233.59 1544.91 Q2236.25 1542.16 2240.83 1537.53 Q2245.44 1532.88 2246.62 1531.53 Q2248.86 1529.01 2249.74 1527.27 Q2250.65 1525.51 2250.65 1523.82 Q2250.65 1521.07 2248.7 1519.33 Q2246.78 1517.6 2243.68 1517.6 Q2241.48 1517.6 2239.03 1518.36 Q2236.6 1519.13 2233.82 1520.68 L2233.82 1515.95 Q2236.64 1514.82 2239.1 1514.24 Q2241.55 1513.66 2243.59 1513.66 Q2248.96 1513.66 2252.15 1516.35 Q2255.35 1519.03 2255.35 1523.52 Q2255.35 1525.65 2254.54 1527.57 Q2253.75 1529.47 2251.64 1532.07 Q2251.06 1532.74 2247.96 1535.95 Q2244.86 1539.15 2239.21 1544.91 Z" fill="#000000" fill-rule="nonzero" fill-opacity="1" /><path clip-path="url(#clip250)" d="M2275.35 1517.37 Q2271.73 1517.37 2269.91 1520.93 Q2268.1 1524.47 2268.1 1531.6 Q2268.1 1538.71 2269.91 1542.27 Q2271.73 1545.82 2275.35 1545.82 Q2278.98 1545.82 2280.79 1542.27 Q2282.61 1538.71 2282.61 1531.6 Q2282.61 1524.47 2280.79 1520.93 Q2278.98 1517.37 2275.35 1517.37 M2275.35 1513.66 Q2281.16 1513.66 2284.21 1518.27 Q2287.29 1522.85 2287.29 1531.6 Q2287.29 1540.33 2284.21 1544.94 Q2281.16 1549.52 2275.35 1549.52 Q2269.54 1549.52 2266.46 1544.94 Q2263.4 1540.33 2263.4 1531.6 Q2263.4 1522.85 2266.46 1518.27 Q2269.54 1513.66 2275.35 1513.66 Z" fill="#000000" fill-rule="nonzero" fill-opacity="1" /><path clip-path="url(#clip250)" d="M2305.51 1517.37 Q2301.9 1517.37 2300.07 1520.93 Q2298.26 1524.47 2298.26 1531.6 Q2298.26 1538.71 2300.07 1542.27 Q2301.9 1545.82 2305.51 1545.82 Q2309.14 1545.82 2310.95 1542.27 Q2312.78 1538.71 2312.78 1531.6 Q2312.78 1524.47 2310.95 1520.93 Q2309.14 1517.37 2305.51 1517.37 M2305.51 1513.66 Q2311.32 1513.66 2314.37 1518.27 Q2317.45 1522.85 2317.45 1531.6 Q2317.45 1540.33 2314.37 1544.94 Q2311.32 1549.52 2305.51 1549.52 Q2299.7 1549.52 2296.62 1544.94 Q2293.56 1540.33 2293.56 1531.6 Q2293.56 1522.85 2296.62 1518.27 Q2299.7 1513.66 2305.51 1513.66 Z" fill="#000000" fill-rule="nonzero" fill-opacity="1" /><path clip-path="url(#clip250)" d="M2335.67 1517.37 Q2332.06 1517.37 2330.23 1520.93 Q2328.42 1524.47 2328.42 1531.6 Q2328.42 1538.71 2330.23 1542.27 Q2332.06 1545.82 2335.67 1545.82 Q2339.3 1545.82 2341.11 1542.27 Q2342.94 1538.71 2342.94 1531.6 Q2342.94 1524.47 2341.11 1520.93 Q2339.3 1517.37 2335.67 1517.37 M2335.67 1513.66 Q2341.48 1513.66 2344.54 1518.27 Q2347.61 1522.85 2347.61 1531.6 Q2347.61 1540.33 2344.54 1544.94 Q2341.48 1549.52 2335.67 1549.52 Q2329.86 1549.52 2326.78 1544.94 Q2323.73 1540.33 2323.73 1531.6 Q2323.73 1522.85 2326.78 1518.27 Q2329.86 1513.66 2335.67 1513.66 Z" fill="#000000" fill-rule="nonzero" fill-opacity="1" /><polyline clip-path="url(#clip252)" style="stroke:#000000; stroke-linecap:round; stroke-linejoin:round; stroke-width:2; stroke-opacity:0.1; fill:none" points="156.598,1372.25 2352.76,1372.25 "/>
<polyline clip-path="url(#clip252)" style="stroke:#000000; stroke-linecap:round; stroke-linejoin:round; stroke-width:2; stroke-opacity:0.1; fill:none" points="156.598,1014.1 2352.76,1014.1 "/>
<polyline clip-path="url(#clip252)" style="stroke:#000000; stroke-linecap:round; stroke-linejoin:round; stroke-width:2; stroke-opacity:0.1; fill:none" points="156.598,655.96 2352.76,655.96 "/>
<polyline clip-path="url(#clip252)" style="stroke:#000000; stroke-linecap:round; stroke-linejoin:round; stroke-width:2; stroke-opacity:0.1; fill:none" points="156.598,297.818 2352.76,297.818 "/>
<polyline clip-path="url(#clip250)" style="stroke:#000000; stroke-linecap:round; stroke-linejoin:round; stroke-width:4; stroke-opacity:1; fill:none" points="156.598,1486.45 156.598,47.2441 "/>
<polyline clip-path="url(#clip250)" style="stroke:#000000; stroke-linecap:round; stroke-linejoin:round; stroke-width:4; stroke-opacity:1; fill:none" points="156.598,1372.25 175.496,1372.25 "/>
<polyline clip-path="url(#clip250)" style="stroke:#000000; stroke-linecap:round; stroke-linejoin:round; stroke-width:4; stroke-opacity:1; fill:none" points="156.598,1014.1 175.496,1014.1 "/>
<polyline clip-path="url(#clip250)" style="stroke:#000000; stroke-linecap:round; stroke-linejoin:round; stroke-width:4; stroke-opacity:1; fill:none" points="156.598,655.96 175.496,655.96 "/>
<polyline clip-path="url(#clip250)" style="stroke:#000000; stroke-linecap:round; stroke-linejoin:round; stroke-width:4; stroke-opacity:1; fill:none" points="156.598,297.818 175.496,297.818 "/>
<path clip-path="url(#clip250)" d="M64.6495 1358.04 Q61.0384 1358.04 59.2097 1361.61 Q57.4041 1365.15 57.4041 1372.28 Q57.4041 1379.39 59.2097 1382.95 Q61.0384 1386.49 64.6495 1386.49 Q68.2837 1386.49 70.0892 1382.95 Q71.9179 1379.39 71.9179 1372.28 Q71.9179 1365.15 70.0892 1361.61 Q68.2837 1358.04 64.6495 1358.04 M64.6495 1354.34 Q70.4596 1354.34 73.5152 1358.95 Q76.5938 1363.53 76.5938 1372.28 Q76.5938 1381.01 73.5152 1385.61 Q70.4596 1390.2 64.6495 1390.2 Q58.8393 1390.2 55.7606 1385.61 Q52.7051 1381.01 52.7051 1372.28 Q52.7051 1363.53 55.7606 1358.95 Q58.8393 1354.34 64.6495 1354.34 Z" fill="#000000" fill-rule="nonzero" fill-opacity="1" /><path clip-path="url(#clip250)" d="M84.8114 1383.65 L89.6956 1383.65 L89.6956 1389.53 L84.8114 1389.53 L84.8114 1383.65 Z" fill="#000000" fill-rule="nonzero" fill-opacity="1" /><path clip-path="url(#clip250)" d="M100.691 1385.59 L108.33 1385.59 L108.33 1359.23 L100.02 1360.89 L100.02 1356.63 L108.283 1354.97 L112.959 1354.97 L112.959 1385.59 L120.598 1385.59 L120.598 1389.53 L100.691 1389.53 L100.691 1385.59 Z" fill="#000000" fill-rule="nonzero" fill-opacity="1" /><path clip-path="url(#clip250)" d="M65.0198 999.902 Q61.4087 999.902 59.58 1003.47 Q57.7745 1007.01 57.7745 1014.14 Q57.7745 1021.24 59.58 1024.81 Q61.4087 1028.35 65.0198 1028.35 Q68.6541 1028.35 70.4596 1024.81 Q72.2883 1021.24 72.2883 1014.14 Q72.2883 1007.01 70.4596 1003.47 Q68.6541 999.902 65.0198 999.902 M65.0198 996.198 Q70.83 996.198 73.8855 1000.8 Q76.9642 1005.39 76.9642 1014.14 Q76.9642 1022.86 73.8855 1027.47 Q70.83 1032.05 65.0198 1032.05 Q59.2097 1032.05 56.131 1027.47 Q53.0754 1022.86 53.0754 1014.14 Q53.0754 1005.39 56.131 1000.8 Q59.2097 996.198 65.0198 996.198 Z" fill="#000000" fill-rule="nonzero" fill-opacity="1" /><path clip-path="url(#clip250)" d="M85.1818 1025.5 L90.066 1025.5 L90.066 1031.38 L85.1818 1031.38 L85.1818 1025.5 Z" fill="#000000" fill-rule="nonzero" fill-opacity="1" /><path clip-path="url(#clip250)" d="M104.279 1027.45 L120.598 1027.45 L120.598 1031.38 L98.6539 1031.38 L98.6539 1027.45 Q101.316 1024.69 105.899 1020.06 Q110.506 1015.41 111.686 1014.07 Q113.932 1011.55 114.811 1009.81 Q115.714 1008.05 115.714 1006.36 Q115.714 1003.61 113.77 1001.87 Q111.848 1000.13 108.746 1000.13 Q106.547 1000.13 104.094 1000.9 Q101.663 1001.66 98.8854 1003.21 L98.8854 998.49 Q101.709 997.355 104.163 996.777 Q106.617 996.198 108.654 996.198 Q114.024 996.198 117.219 998.883 Q120.413 1001.57 120.413 1006.06 Q120.413 1008.19 119.603 1010.11 Q118.816 1012.01 116.709 1014.6 Q116.131 1015.27 113.029 1018.49 Q109.927 1021.68 104.279 1027.45 Z" fill="#000000" fill-rule="nonzero" fill-opacity="1" /><path clip-path="url(#clip250)" d="M64.0708 641.759 Q60.4597 641.759 58.631 645.324 Q56.8254 648.865 56.8254 655.995 Q56.8254 663.101 58.631 666.666 Q60.4597 670.208 64.0708 670.208 Q67.705 670.208 69.5105 666.666 Q71.3392 663.101 71.3392 655.995 Q71.3392 648.865 69.5105 645.324 Q67.705 641.759 64.0708 641.759 M64.0708 638.055 Q69.8809 638.055 72.9365 642.662 Q76.0151 647.245 76.0151 655.995 Q76.0151 664.722 72.9365 669.328 Q69.8809 673.912 64.0708 673.912 Q58.2606 673.912 55.1819 669.328 Q52.1264 664.722 52.1264 655.995 Q52.1264 647.245 55.1819 642.662 Q58.2606 638.055 64.0708 638.055 Z" fill="#000000" fill-rule="nonzero" fill-opacity="1" /><path clip-path="url(#clip250)" d="M84.2327 667.361 L89.1169 667.361 L89.1169 673.24 L84.2327 673.24 L84.2327 667.361 Z" fill="#000000" fill-rule="nonzero" fill-opacity="1" /><path clip-path="url(#clip250)" d="M113.469 654.606 Q116.825 655.324 118.7 657.592 Q120.598 659.861 120.598 663.194 Q120.598 668.31 117.08 671.111 Q113.561 673.912 107.08 673.912 Q104.904 673.912 102.589 673.472 Q100.297 673.055 97.8437 672.199 L97.8437 667.685 Q99.7882 668.819 102.103 669.398 Q104.418 669.976 106.941 669.976 Q111.339 669.976 113.631 668.24 Q115.945 666.504 115.945 663.194 Q115.945 660.139 113.793 658.426 Q111.663 656.689 107.844 656.689 L103.816 656.689 L103.816 652.847 L108.029 652.847 Q111.478 652.847 113.307 651.481 Q115.135 650.092 115.135 647.5 Q115.135 644.838 113.237 643.426 Q111.362 641.99 107.844 641.99 Q105.922 641.99 103.723 642.407 Q101.524 642.824 98.8854 643.703 L98.8854 639.537 Q101.547 638.796 103.862 638.426 Q106.2 638.055 108.26 638.055 Q113.584 638.055 116.686 640.486 Q119.788 642.893 119.788 647.014 Q119.788 649.884 118.145 651.875 Q116.501 653.842 113.469 654.606 Z" fill="#000000" fill-rule="nonzero" fill-opacity="1" /><path clip-path="url(#clip250)" d="M62.9365 283.616 Q59.3254 283.616 57.4967 287.181 Q55.6912 290.723 55.6912 297.852 Q55.6912 304.959 57.4967 308.523 Q59.3254 312.065 62.9365 312.065 Q66.5707 312.065 68.3763 308.523 Q70.205 304.959 70.205 297.852 Q70.205 290.723 68.3763 287.181 Q66.5707 283.616 62.9365 283.616 M62.9365 279.913 Q68.7467 279.913 71.8022 284.519 Q74.8809 289.102 74.8809 297.852 Q74.8809 306.579 71.8022 311.185 Q68.7467 315.769 62.9365 315.769 Q57.1264 315.769 54.0477 311.185 Q50.9921 306.579 50.9921 297.852 Q50.9921 289.102 54.0477 284.519 Q57.1264 279.913 62.9365 279.913 Z" fill="#000000" fill-rule="nonzero" fill-opacity="1" /><path clip-path="url(#clip250)" d="M83.0984 309.218 L87.9827 309.218 L87.9827 315.098 L83.0984 315.098 L83.0984 309.218 Z" fill="#000000" fill-rule="nonzero" fill-opacity="1" /><path clip-path="url(#clip250)" d="M111.015 284.612 L99.2095 303.061 L111.015 303.061 L111.015 284.612 M109.788 280.538 L115.668 280.538 L115.668 303.061 L120.598 303.061 L120.598 306.949 L115.668 306.949 L115.668 315.098 L111.015 315.098 L111.015 306.949 L95.4132 306.949 L95.4132 302.436 L109.788 280.538 Z" fill="#000000" fill-rule="nonzero" fill-opacity="1" /><polyline clip-path="url(#clip252)" style="stroke:#009af9; stroke-linecap:round; stroke-linejoin:round; stroke-width:4; stroke-opacity:1; fill:none" points="218.754,87.9763 219.79,89.6188 220.825,91.2594 221.861,92.8982 222.897,94.5351 223.933,96.1702 224.969,97.8033 226.005,99.4347 227.041,101.064 228.077,102.692 229.113,104.318 230.149,105.941 231.185,107.564 232.221,109.184 233.257,110.802 234.292,112.419 235.328,114.034 236.364,115.647 237.4,117.258 238.436,118.867 239.472,120.475 240.508,122.081 241.544,123.685 242.58,125.287 243.616,126.887 244.652,128.486 245.688,130.083 246.724,131.678 247.759,133.271 248.795,134.863 249.831,136.452 250.867,138.04 251.903,139.627 252.939,141.211 253.975,142.794 255.011,144.375 256.047,145.954 257.083,147.532 258.119,149.108 259.155,150.682 260.191,152.254 261.227,153.825 262.262,155.394 263.298,156.961 264.334,158.526 265.37,160.09 266.406,161.652 267.442,163.212 268.478,164.771 269.514,166.328 270.55,167.883 271.586,169.437 272.622,170.989 273.658,172.539 274.694,174.088 275.729,175.635 276.765,177.18 277.801,178.723 278.837,180.265 279.873,181.806 280.909,183.344 281.945,184.881 282.981,186.416 284.017,187.95 285.053,189.482 286.089,191.013 287.125,192.541 288.161,194.068 289.196,195.594 290.232,197.118 291.268,198.64 292.304,200.161 293.34,201.68 294.376,203.197 295.412,204.713 296.448,206.227 297.484,207.74 298.52,209.251 299.556,210.76 300.592,212.268 301.628,213.774 302.663,215.279 303.699,216.782 304.735,218.283 305.771,219.783 306.807,221.282 307.843,222.778 308.879,224.274 309.915,225.767 310.951,227.259 311.987,228.75 313.023,230.239 314.059,231.726 315.095,233.212 316.13,234.696 317.166,236.179 318.202,237.66 319.238,239.14 320.274,240.618 321.31,242.095 322.346,243.57 323.382,245.044 324.418,246.516 325.454,247.986 326.49,249.455 327.526,250.923 328.562,252.389 329.597,253.854 330.633,255.317 331.669,256.778 332.705,258.238 333.741,259.697 334.777,261.154 335.813,262.609 336.849,264.063 337.885,265.516 338.921,266.967 339.957,268.417 340.993,269.865 342.029,271.311 343.064,272.757 344.1,274.2 345.136,275.643 346.172,277.084 347.208,278.523 348.244,279.961 349.28,281.397 350.316,282.832 351.352,284.266 352.388,285.698 353.424,287.128 354.46,288.558 355.496,289.985 356.531,291.412 357.567,292.837 358.603,294.26 359.639,295.682 360.675,297.103 361.711,298.522 362.747,299.94 363.783,301.356 364.819,302.771 365.855,304.185 366.891,305.597 367.927,307.007 368.963,308.417 369.998,309.825 371.034,311.231 372.07,312.636 373.106,314.04 374.142,315.442 375.178,316.843 376.214,318.243 377.25,319.641 378.286,321.038 379.322,322.433 380.358,323.827 381.394,325.219 382.43,326.611 383.465,328.001 384.501,329.389 385.537,330.776 386.573,332.162 387.609,333.546 388.645,334.929 389.681,336.311 390.717,337.691 391.753,339.07 392.789,340.448 393.825,341.824 394.861,343.199 395.897,344.573 396.932,345.945 397.968,347.316 399.004,348.685 400.04,350.053 401.076,351.42 402.112,352.786 403.148,354.15 404.184,355.513 405.22,356.874 406.256,358.234 407.292,359.593 408.328,360.951 409.364,362.307 410.399,363.662 411.435,365.016 412.471,366.368 413.507,367.719 414.543,369.068 415.579,370.417 416.615,371.764 417.651,373.11 418.687,374.454 419.723,375.797 420.759,377.139 421.795,378.479 422.831,379.819 423.866,381.157 424.902,382.493 425.938,383.829 426.974,385.163 428.01,386.496 429.046,387.827 430.082,389.157 431.118,390.486 432.154,391.814 433.19,393.14 434.226,394.465 435.262,395.789 436.298,397.112 437.333,398.433 438.369,399.753 439.405,401.072 440.441,402.389 441.477,403.706 442.513,405.021 443.549,406.334 444.585,407.647 445.621,408.958 446.657,410.268 447.693,411.577 448.729,412.884 449.765,414.19 450.8,415.495 451.836,416.799 452.872,418.101 453.908,419.403 454.944,420.703 455.98,422.001 457.016,423.299 458.052,424.595 459.088,425.89 460.124,427.184 461.16,428.476 462.196,429.768 463.232,431.058 464.267,432.347 465.303,433.634 466.339,434.921 467.375,436.206 468.411,437.49 469.447,438.773 470.483,440.054 471.519,441.335 472.555,442.614 473.591,443.892 474.627,445.168 475.663,446.444 476.699,447.718 477.734,448.991 478.77,450.263 479.806,451.534 480.842,452.803 481.878,454.071 482.914,455.338 483.95,456.604 484.986,457.869 486.022,459.132 487.058,460.395 488.094,461.656 489.13,462.915 490.166,464.174 491.202,465.432 492.237,466.688 493.273,467.943 494.309,469.197 495.345,470.45 496.381,471.701 497.417,472.952 498.453,474.201 499.489,475.449 500.525,476.696 501.561,477.941 502.597,479.186 503.633,480.429 504.669,481.671 505.704,482.912 506.74,484.152 507.776,485.391 508.812,486.628 509.848,487.864 510.884,489.099 511.92,490.333 512.956,491.566 513.992,492.798 515.028,494.028 516.064,495.258 517.1,496.486 518.136,497.713 519.171,498.939 520.207,500.163 521.243,501.387 522.279,502.609 523.315,503.83 524.351,505.05 525.387,506.269 526.423,507.487 527.459,508.704 528.495,509.919 529.531,511.134 530.567,512.347 531.603,513.559 532.638,514.77 533.674,515.979 534.71,517.188 535.746,518.396 536.782,519.602 537.818,520.807 538.854,522.011 539.89,523.214 540.926,524.416 541.962,525.617 542.998,526.816 544.034,528.015 545.07,529.212 546.105,530.408 547.141,531.603 548.177,532.797 549.213,533.99 550.249,535.181 551.285,536.372 552.321,537.561 553.357,538.75 554.393,539.937 555.429,541.123 556.465,542.308 557.501,543.492 558.537,544.674 559.572,545.856 560.608,547.036 561.644,548.216 562.68,549.394 563.716,550.571 564.752,551.747 565.788,552.922 566.824,554.096 567.86,555.268 568.896,556.44 569.932,557.61 570.968,558.78 572.004,559.948 573.039,561.115 574.075,562.281 575.111,563.446 576.147,564.61 577.183,565.773 578.219,566.934 579.255,568.095 580.291,569.254 581.327,570.413 582.363,571.57 583.399,572.726 584.435,573.881 585.471,575.035 586.506,576.188 587.542,577.34 588.578,578.491 589.614,579.64 590.65,580.789 591.686,581.936 592.722,583.082 593.758,584.228 594.794,585.372 595.83,586.515 596.866,587.657 597.902,588.798 598.938,589.938 599.973,591.076 601.009,592.214 602.045,593.351 603.081,594.486 604.117,595.621 605.153,596.754 606.189,597.886 607.225,599.017 608.261,600.147 609.297,601.277 610.333,602.404 611.369,603.531 612.405,604.657 613.44,605.782 614.476,606.906 615.512,608.028 616.548,609.15 617.584,610.27 618.62,611.389 619.656,612.508 620.692,613.625 621.728,614.741 622.764,615.856 623.8,616.97 624.836,618.083 625.872,619.195 626.907,620.306 627.943,621.416 628.979,622.525 630.015,623.632 631.051,624.739 632.087,625.844 633.123,626.949 634.159,628.052 635.195,629.155 636.231,630.256 637.267,631.356 638.303,632.455 639.339,633.554 640.374,634.651 641.41,635.747 642.446,636.842 643.482,637.935 644.518,639.028 645.554,640.12 646.59,641.211 647.626,642.301 648.662,643.389 649.698,644.477 650.734,645.563 651.77,646.649 652.806,647.733 653.841,648.817 654.877,649.899 655.913,650.98 656.949,652.061 657.985,653.14 659.021,654.218 660.057,655.295 661.093,656.371 662.129,657.446 663.165,658.52 664.201,659.593 665.237,660.665 666.273,661.736 667.308,662.806 668.344,663.875 669.38,664.943 670.416,666.009 671.452,667.075 672.488,668.14 673.524,669.203 674.56,670.266 675.596,671.328 676.632,672.388 677.668,673.448 678.704,674.506 679.74,675.563 680.775,676.62 681.811,677.675 682.847,678.729 683.883,679.783 684.919,680.835 685.955,681.886 686.991,682.936 688.027,683.986 689.063,685.034 690.099,686.081 691.135,687.127 692.171,688.172 693.207,689.216 694.242,690.259 695.278,691.301 696.314,692.342 697.35,693.382 698.386,694.421 699.422,695.459 700.458,696.496 701.494,697.531 702.53,698.566 703.566,699.6 704.602,700.633 705.638,701.665 706.674,702.695 707.709,703.725 708.745,704.754 709.781,705.781 710.817,706.808 711.853,707.834 712.889,708.858 713.925,709.882 714.961,710.905 715.997,711.926 717.033,712.947 718.069,713.966 719.105,714.985 720.141,716.002 721.177,717.019 722.212,718.035 723.248,719.049 724.284,720.063 725.32,721.075 726.356,722.086 727.392,723.097 728.428,724.106 729.464,725.115 730.5,726.122 731.536,727.129 732.572,728.134 733.608,729.139 734.644,730.142 735.679,731.144 736.715,732.146 737.751,733.146 738.787,734.146 739.823,735.144 740.859,736.141 741.895,737.138 742.931,738.133 743.967,739.128 745.003,740.121 746.039,741.113 747.075,742.105 748.111,743.095 749.146,744.084 750.182,745.073 751.218,746.06 752.254,747.047 753.29,748.032 754.326,749.016 755.362,750 756.398,750.982 757.434,751.964 758.47,752.944 759.506,753.923 760.542,754.902 761.578,755.879 762.613,756.856 763.649,757.831 764.685,758.806 765.721,759.779 766.757,760.752 767.793,761.723 768.829,762.694 769.865,763.663 770.901,764.632 771.937,765.599 772.973,766.566 774.009,767.531 775.045,768.496 776.08,769.459 777.116,770.422 778.152,771.384 779.188,772.344 780.224,773.304 781.26,774.262 782.296,775.22 783.332,776.177 784.368,777.132 785.404,778.087 786.44,779.041 787.476,779.994 788.512,780.945 789.547,781.896 790.583,782.846 791.619,783.795 792.655,784.743 793.691,785.69 794.727,786.635 795.763,787.58 796.799,788.524 797.835,789.467 798.871,790.409 799.907,791.35 800.943,792.29 801.979,793.229 803.014,794.167 804.05,795.105 805.086,796.041 806.122,796.976 807.158,797.91 808.194,798.843 809.23,799.776 810.266,800.707 811.302,801.637 812.338,802.566 813.374,803.495 814.41,804.422 815.446,805.349 816.481,806.274 817.517,807.199 818.553,808.122 819.589,809.045 820.625,809.966 821.661,810.887 822.697,811.806 823.733,812.725 824.769,813.643 825.805,814.56 826.841,815.475 827.877,816.39 828.913,817.304 829.948,818.217 830.984,819.129 832.02,820.04 833.056,820.95 834.092,821.859 835.128,822.767 836.164,823.674 837.2,824.58 838.236,825.486 839.272,826.39 840.308,827.293 841.344,828.196 842.38,829.097 843.415,829.997 844.451,830.897 845.487,831.795 846.523,832.693 847.559,833.59 848.595,834.485 849.631,835.38 850.667,836.274 851.703,837.167 852.739,838.058 853.775,838.949 854.811,839.839 855.847,840.728 856.882,841.616 857.918,842.503 858.954,843.39 859.99,844.275 861.026,845.159 862.062,846.042 863.098,846.925 864.134,847.806 865.17,848.687 866.206,849.566 867.242,850.445 868.278,851.322 869.314,852.199 870.349,853.075 871.385,853.95 872.421,854.823 873.457,855.696 874.493,856.568 875.529,857.439 876.565,858.31 877.601,859.179 878.637,860.047 879.673,860.914 880.709,861.781 881.745,862.646 882.781,863.51 883.816,864.374 884.852,865.237 885.888,866.098 886.924,866.959 887.96,867.819 888.996,868.678 890.032,869.535 891.068,870.392 892.104,871.248 893.14,872.104 894.176,872.958 895.212,873.811 896.248,874.663 897.283,875.515 898.319,876.365 899.355,877.215 900.391,878.063 901.427,878.911 902.463,879.758 903.499,880.604 904.535,881.449 905.571,882.293 906.607,883.136 907.643,883.978 908.679,884.819 909.715,885.659 910.75,886.499 911.786,887.337 912.822,888.174 913.858,889.011 914.894,889.847 915.93,890.681 916.966,891.515 918.002,892.348 919.038,893.18 920.074,894.011 921.11,894.841 922.146,895.671 923.182,896.499 924.217,897.326 925.253,898.153 926.289,898.978 927.325,899.803 928.361,900.627 929.397,901.45 930.433,902.272 931.469,903.093 932.505,903.913 933.541,904.732 934.577,905.55 935.613,906.367 936.649,907.184 937.685,907.999 938.72,908.814 939.756,909.628 940.792,910.441 941.828,911.252 942.864,912.063 943.9,912.874 944.936,913.683 945.972,914.491 947.008,915.298 948.044,916.105 949.08,916.91 950.116,917.715 951.152,918.519 952.187,919.322 953.223,920.124 954.259,920.925 955.295,921.725 956.331,922.524 957.367,923.323 958.403,924.12 959.439,924.917 960.475,925.712 961.511,926.507 962.547,927.301 963.583,928.094 964.619,928.886 965.654,929.677 966.69,930.468 967.726,931.257 968.762,932.046 969.798,932.833 970.834,933.62 971.87,934.406 972.906,935.191 973.942,935.975 974.978,936.758 976.014,937.54 977.05,938.322 978.086,939.102 979.121,939.882 980.157,940.661 981.193,941.438 982.229,942.215 983.265,942.992 984.301,943.767 985.337,944.541 986.373,945.315 987.409,946.087 988.445,946.859 989.481,947.63 990.517,948.4 991.553,949.169 992.588,949.937 993.624,950.704 994.66,951.47 995.696,952.236 996.732,953.001 997.768,953.764 998.804,954.527 999.84,955.289 1000.88,956.051 1001.91,956.811 1002.95,957.57 1003.98,958.329 1005.02,959.087 1006.06,959.843 1007.09,960.599 1008.13,961.354 1009.16,962.109 1010.2,962.862 1011.24,963.614 1012.27,964.366 1013.31,965.117 1014.34,965.867 1015.38,966.616 1016.41,967.364 1017.45,968.111 1018.49,968.857 1019.52,969.603 1020.56,970.348 1021.59,971.091 1022.63,971.834 1023.67,972.577 1024.7,973.318 1025.74,974.058 1026.77,974.798 1027.81,975.536 1028.85,976.274 1029.88,977.011 1030.92,977.747 1031.95,978.483 1032.99,979.217 1034.03,979.951 1035.06,980.683 1036.1,981.415 1037.13,982.146 1038.17,982.876 1039.2,983.605 1040.24,984.334 1041.28,985.062 1042.31,985.788 1043.35,986.514 1044.38,987.239 1045.42,987.963 1046.46,988.687 1047.49,989.409 1048.53,990.131 1049.56,990.852 1050.6,991.572 1051.64,992.291 1052.67,993.009 1053.71,993.727 1054.74,994.443 1055.78,995.159 1056.82,995.874 1057.85,996.588 1058.89,997.301 1059.92,998.014 1060.96,998.725 1062,999.436 1063.03,1000.15 1064.07,1000.86 1065.1,1001.56 1066.14,1002.27 1067.17,1002.98 1068.21,1003.68 1069.25,1004.39 1070.28,1005.09 1071.32,1005.8 1072.35,1006.5 1073.39,1007.2 1074.43,1007.9 1075.46,1008.6 1076.5,1009.3 1077.53,1010 1078.57,1010.7 1079.61,1011.39 1080.64,1012.09 1081.68,1012.78 1082.71,1013.48 1083.75,1014.17 1084.79,1014.86 1085.82,1015.55 1086.86,1016.25 1087.89,1016.94 1088.93,1017.62 1089.97,1018.31 1091,1019 1092.04,1019.69 1093.07,1020.37 1094.11,1021.06 1095.14,1021.74 1096.18,1022.43 1097.22,1023.11 1098.25,1023.79 1099.29,1024.47 1100.32,1025.15 1101.36,1025.83 1102.4,1026.51 1103.43,1027.19 1104.47,1027.87 1105.5,1028.54 1106.54,1029.22 1107.58,1029.89 1108.61,1030.57 1109.65,1031.24 1110.68,1031.91 1111.72,1032.58 1112.76,1033.25 1113.79,1033.92 1114.83,1034.59 1115.86,1035.26 1116.9,1035.93 1117.94,1036.6 1118.97,1037.26 1120.01,1037.93 1121.04,1038.59 1122.08,1039.25 1123.11,1039.92 1124.15,1040.58 1125.19,1041.24 1126.22,1041.9 1127.26,1042.56 1128.29,1043.22 1129.33,1043.88 1130.37,1044.53 1131.4,1045.19 1132.44,1045.85 1133.47,1046.5 1134.51,1047.15 1135.55,1047.81 1136.58,1048.46 1137.62,1049.11 1138.65,1049.76 1139.69,1050.41 1140.73,1051.06 1141.76,1051.71 1142.8,1052.36 1143.83,1053 1144.87,1053.65 1145.91,1054.3 1146.94,1054.94 1147.98,1055.58 1149.01,1056.23 1150.05,1056.87 1151.08,1057.51 1152.12,1058.15 1153.16,1058.79 1154.19,1059.43 1155.23,1060.07 1156.26,1060.71 1157.3,1061.34 1158.34,1061.98 1159.37,1062.62 1160.41,1063.25 1161.44,1063.88 1162.48,1064.52 1163.52,1065.15 1164.55,1065.78 1165.59,1066.41 1166.62,1067.04 1167.66,1067.67 1168.7,1068.3 1169.73,1068.93 1170.77,1069.55 1171.8,1070.18 1172.84,1070.8 1173.88,1071.43 1174.91,1072.05 1175.95,1072.68 1176.98,1073.3 1178.02,1073.92 1179.05,1074.54 1180.09,1075.16 1181.13,1075.78 1182.16,1076.4 1183.2,1077.02 1184.23,1077.63 1185.27,1078.25 1186.31,1078.87 1187.34,1079.48 1188.38,1080.09 1189.41,1080.71 1190.45,1081.32 1191.49,1081.93 1192.52,1082.54 1193.56,1083.15 1194.59,1083.76 1195.63,1084.37 1196.67,1084.98 1197.7,1085.59 1198.74,1086.19 1199.77,1086.8 1200.81,1087.41 1201.84,1088.01 1202.88,1088.61 1203.92,1089.22 1204.95,1089.82 1205.99,1090.42 1207.02,1091.02 1208.06,1091.62 1209.1,1092.22 1210.13,1092.82 1211.17,1093.42 1212.2,1094.01 1213.24,1094.61 1214.28,1095.21 1215.31,1095.8 1216.35,1096.39 1217.38,1096.99 1218.42,1097.58 1219.46,1098.17 1220.49,1098.76 1221.53,1099.35 1222.56,1099.94 1223.6,1100.53 1224.64,1101.12 1225.67,1101.71 1226.71,1102.3 1227.74,1102.88 1228.78,1103.47 1229.81,1104.05 1230.85,1104.64 1231.89,1105.22 1232.92,1105.8 1233.96,1106.38 1234.99,1106.97 1236.03,1107.55 1237.07,1108.13 1238.1,1108.7 1239.14,1109.28 1240.17,1109.86 1241.21,1110.44 1242.25,1111.01 1243.28,1111.59 1244.32,1112.16 1245.35,1112.74 1246.39,1113.31 1247.43,1113.88 1248.46,1114.46 1249.5,1115.03 1250.53,1115.6 1251.57,1116.17 1252.61,1116.74 1253.64,1117.3 1254.68,1117.87 1255.71,1118.44 1256.75,1119.01 1257.78,1119.57 1258.82,1120.14 1259.86,1120.7 1260.89,1121.26 1261.93,1121.83 1262.96,1122.39 1264,1122.95 1265.04,1123.51 1266.07,1124.07 1267.11,1124.63 1268.14,1125.19 1269.18,1125.75 1270.22,1126.3 1271.25,1126.86 1272.29,1127.42 1273.32,1127.97 1274.36,1128.53 1275.4,1129.08 1276.43,1129.63 1277.47,1130.19 1278.5,1130.74 1279.54,1131.29 1280.58,1131.84 1281.61,1132.39 1282.65,1132.94 1283.68,1133.49 1284.72,1134.04 1285.75,1134.58 1286.79,1135.13 1287.83,1135.67 1288.86,1136.22 1289.9,1136.76 1290.93,1137.31 1291.97,1137.85 1293.01,1138.39 1294.04,1138.93 1295.08,1139.48 1296.11,1140.02 1297.15,1140.56 1298.19,1141.09 1299.22,1141.63 1300.26,1142.17 1301.29,1142.71 1302.33,1143.24 1303.37,1143.78 1304.4,1144.31 1305.44,1144.85 1306.47,1145.38 1307.51,1145.92 1308.55,1146.45 1309.58,1146.98 1310.62,1147.51 1311.65,1148.04 1312.69,1148.57 1313.72,1149.1 1314.76,1149.63 1315.8,1150.16 1316.83,1150.68 1317.87,1151.21 1318.9,1151.73 1319.94,1152.26 1320.98,1152.78 1322.01,1153.31 1323.05,1153.83 1324.08,1154.35 1325.12,1154.88 1326.16,1155.4 1327.19,1155.92 1328.23,1156.44 1329.26,1156.96 1330.3,1157.47 1331.34,1157.99 1332.37,1158.51 1333.41,1159.03 1334.44,1159.54 1335.48,1160.06 1336.52,1160.57 1337.55,1161.09 1338.59,1161.6 1339.62,1162.11 1340.66,1162.63 1341.69,1163.14 1342.73,1163.65 1343.77,1164.16 1344.8,1164.67 1345.84,1165.18 1346.87,1165.69 1347.91,1166.19 1348.95,1166.7 1349.98,1167.21 1351.02,1167.71 1352.05,1168.22 1353.09,1168.72 1354.13,1169.23 1355.16,1169.73 1356.2,1170.23 1357.23,1170.74 1358.27,1171.24 1359.31,1171.74 1360.34,1172.24 1361.38,1172.74 1362.41,1173.24 1363.45,1173.73 1364.48,1174.23 1365.52,1174.73 1366.56,1175.23 1367.59,1175.72 1368.63,1176.22 1369.66,1176.71 1370.7,1177.21 1371.74,1177.7 1372.77,1178.19 1373.81,1178.68 1374.84,1179.18 1375.88,1179.67 1376.92,1180.16 1377.95,1180.65 1378.99,1181.14 1380.02,1181.62 1381.06,1182.11 1382.1,1182.6 1383.13,1183.09 1384.17,1183.57 1385.2,1184.06 1386.24,1184.54 1387.28,1185.03 1388.31,1185.51 1389.35,1185.99 1390.38,1186.48 1391.42,1186.96 1392.45,1187.44 1393.49,1187.92 1394.53,1188.4 1395.56,1188.88 1396.6,1189.36 1397.63,1189.84 1398.67,1190.31 1399.71,1190.79 1400.74,1191.27 1401.78,1191.74 1402.81,1192.22 1403.85,1192.69 1404.89,1193.17 1405.92,1193.64 1406.96,1194.11 1407.99,1194.59 1409.03,1195.06 1410.07,1195.53 1411.1,1196 1412.14,1196.47 1413.17,1196.94 1414.21,1197.41 1415.25,1197.88 1416.28,1198.34 1417.32,1198.81 1418.35,1199.28 1419.39,1199.74 1420.42,1200.21 1421.46,1200.67 1422.5,1201.14 1423.53,1201.6 1424.57,1202.07 1425.6,1202.53 1426.64,1202.99 1427.68,1203.45 1428.71,1203.91 1429.75,1204.37 1430.78,1204.83 1431.82,1205.29 1432.86,1205.75 1433.89,1206.21 1434.93,1206.66 1435.96,1207.12 1437,1207.58 1438.04,1208.03 1439.07,1208.49 1440.11,1208.94 1441.14,1209.4 1442.18,1209.85 1443.22,1210.3 1444.25,1210.75 1445.29,1211.21 1446.32,1211.66 1447.36,1212.11 1448.39,1212.56 1449.43,1213.01 1450.47,1213.46 1451.5,1213.9 1452.54,1214.35 1453.57,1214.8 1454.61,1215.24 1455.65,1215.69 1456.68,1216.14 1457.72,1216.58 1458.75,1217.03 1459.79,1217.47 1460.83,1217.91 1461.86,1218.36 1462.9,1218.8 1463.93,1219.24 1464.97,1219.68 1466.01,1220.12 1467.04,1220.56 1468.08,1221 1469.11,1221.44 1470.15,1221.88 1471.19,1222.31 1472.22,1222.75 1473.26,1223.19 1474.29,1223.63 1475.33,1224.06 1476.36,1224.5 1477.4,1224.93 1478.44,1225.36 1479.47,1225.8 1480.51,1226.23 1481.54,1226.66 1482.58,1227.09 1483.62,1227.53 1484.65,1227.96 1485.69,1228.39 1486.72,1228.82 1487.76,1229.25 1488.8,1229.67 1489.83,1230.1 1490.87,1230.53 1491.9,1230.96 1492.94,1231.38 1493.98,1231.81 1495.01,1232.23 1496.05,1232.66 1497.08,1233.08 1498.12,1233.51 1499.15,1233.93 1500.19,1234.35 1501.23,1234.78 1502.26,1235.2 1503.3,1235.62 1504.33,1236.04 1505.37,1236.46 1506.41,1236.88 1507.44,1237.3 1508.48,1237.72 1509.51,1238.14 1510.55,1238.55 1511.59,1238.97 1512.62,1239.39 1513.66,1239.8 1514.69,1240.22 1515.73,1240.63 1516.77,1241.05 1517.8,1241.46 1518.84,1241.87 1519.87,1242.29 1520.91,1242.7 1521.95,1243.11 1522.98,1243.52 1524.02,1243.93 1525.05,1244.34 1526.09,1244.75 1527.12,1245.16 1528.16,1245.57 1529.2,1245.98 1530.23,1246.39 1531.27,1246.8 1532.3,1247.2 1533.34,1247.61 1534.38,1248.01 1535.41,1248.42 1536.45,1248.82 1537.48,1249.23 1538.52,1249.63 1539.56,1250.04 1540.59,1250.44 1541.63,1250.84 1542.66,1251.24 1543.7,1251.64 1544.74,1252.04 1545.77,1252.45 1546.81,1252.85 1547.84,1253.24 1548.88,1253.64 1549.92,1254.04 1550.95,1254.44 1551.99,1254.84 1553.02,1255.23 1554.06,1255.63 1555.09,1256.03 1556.13,1256.42 1557.17,1256.82 1558.2,1257.21 1559.24,1257.6 1560.27,1258 1561.31,1258.39 1562.35,1258.78 1563.38,1259.18 1564.42,1259.57 1565.45,1259.96 1566.49,1260.35 1567.53,1260.74 1568.56,1261.13 1569.6,1261.52 1570.63,1261.91 1571.67,1262.29 1572.71,1262.68 1573.74,1263.07 1574.78,1263.45 1575.81,1263.84 1576.85,1264.23 1577.89,1264.61 1578.92,1265 1579.96,1265.38 1580.99,1265.76 1582.03,1266.15 1583.06,1266.53 1584.1,1266.91 1585.14,1267.3 1586.17,1267.68 1587.21,1268.06 1588.24,1268.44 1589.28,1268.82 1590.32,1269.2 1591.35,1269.58 1592.39,1269.96 1593.42,1270.33 1594.46,1270.71 1595.5,1271.09 1596.53,1271.47 1597.57,1271.84 1598.6,1272.22 1599.64,1272.59 1600.68,1272.97 1601.71,1273.34 1602.75,1273.72 1603.78,1274.09 1604.82,1274.46 1605.86,1274.84 1606.89,1275.21 1607.93,1275.58 1608.96,1275.95 1610,1276.32 1611.03,1276.69 1612.07,1277.06 1613.11,1277.43 1614.14,1277.8 1615.18,1278.17 1616.21,1278.54 1617.25,1278.9 1618.29,1279.27 1619.32,1279.64 1620.36,1280 1621.39,1280.37 1622.43,1280.74 1623.47,1281.1 1624.5,1281.47 1625.54,1281.83 1626.57,1282.19 1627.61,1282.56 1628.65,1282.92 1629.68,1283.28 1630.72,1283.64 1631.75,1284 1632.79,1284.37 1633.83,1284.73 1634.86,1285.09 1635.9,1285.45 1636.93,1285.8 1637.97,1286.16 1639,1286.52 1640.04,1286.88 1641.08,1287.24 1642.11,1287.59 1643.15,1287.95 1644.18,1288.31 1645.22,1288.66 1646.26,1289.02 1647.29,1289.37 1648.33,1289.73 1649.36,1290.08 1650.4,1290.43 1651.44,1290.79 1652.47,1291.14 1653.51,1291.49 1654.54,1291.84 1655.58,1292.19 1656.62,1292.55 1657.65,1292.9 1658.69,1293.25 1659.72,1293.6 1660.76,1293.94 1661.79,1294.29 1662.83,1294.64 1663.87,1294.99 1664.9,1295.34 1665.94,1295.68 1666.97,1296.03 1668.01,1296.38 1669.05,1296.72 1670.08,1297.07 1671.12,1297.41 1672.15,1297.76 1673.19,1298.1 1674.23,1298.45 1675.26,1298.79 1676.3,1299.13 1677.33,1299.47 1678.37,1299.82 1679.41,1300.16 1680.44,1300.5 1681.48,1300.84 1682.51,1301.18 1683.55,1301.52 1684.59,1301.86 1685.62,1302.2 1686.66,1302.54 1687.69,1302.88 1688.73,1303.21 1689.76,1303.55 1690.8,1303.89 1691.84,1304.22 1692.87,1304.56 1693.91,1304.9 1694.94,1305.23 1695.98,1305.57 1697.02,1305.9 1698.05,1306.24 1699.09,1306.57 1700.12,1306.9 1701.16,1307.24 1702.2,1307.57 1703.23,1307.9 1704.27,1308.23 1705.3,1308.56 1706.34,1308.9 1707.38,1309.23 1708.41,1309.56 1709.45,1309.89 1710.48,1310.22 1711.52,1310.54 1712.56,1310.87 1713.59,1311.2 1714.63,1311.53 1715.66,1311.86 1716.7,1312.18 1717.73,1312.51 1718.77,1312.84 1719.81,1313.16 1720.84,1313.49 1721.88,1313.81 1722.91,1314.14 1723.95,1314.46 1724.99,1314.79 1726.02,1315.11 1727.06,1315.43 1728.09,1315.75 1729.13,1316.08 1730.17,1316.4 1731.2,1316.72 1732.24,1317.04 1733.27,1317.36 1734.31,1317.68 1735.35,1318 1736.38,1318.32 1737.42,1318.64 1738.45,1318.96 1739.49,1319.28 1740.53,1319.6 1741.56,1319.91 1742.6,1320.23 1743.63,1320.55 1744.67,1320.86 1745.7,1321.18 1746.74,1321.5 1747.78,1321.81 1748.81,1322.13 1749.85,1322.44 1750.88,1322.76 1751.92,1323.07 1752.96,1323.38 1753.99,1323.7 1755.03,1324.01 1756.06,1324.32 1757.1,1324.63 1758.14,1324.95 1759.17,1325.26 1760.21,1325.57 1761.24,1325.88 1762.28,1326.19 1763.32,1326.5 1764.35,1326.81 1765.39,1327.12 1766.42,1327.42 1767.46,1327.73 1768.5,1328.04 1769.53,1328.35 1770.57,1328.66 1771.6,1328.96 1772.64,1329.27 1773.67,1329.58 1774.71,1329.88 1775.75,1330.19 1776.78,1330.49 1777.82,1330.8 1778.85,1331.1 1779.89,1331.4 1780.93,1331.71 1781.96,1332.01 1783,1332.31 1784.03,1332.62 1785.07,1332.92 1786.11,1333.22 1787.14,1333.52 1788.18,1333.82 1789.21,1334.12 1790.25,1334.42 1791.29,1334.72 1792.32,1335.02 1793.36,1335.32 1794.39,1335.62 1795.43,1335.92 1796.47,1336.22 1797.5,1336.51 1798.54,1336.81 1799.57,1337.11 1800.61,1337.41 1801.64,1337.7 1802.68,1338 1803.72,1338.29 1804.75,1338.59 1805.79,1338.88 1806.82,1339.18 1807.86,1339.47 1808.9,1339.77 1809.93,1340.06 1810.97,1340.35 1812,1340.65 1813.04,1340.94 1814.08,1341.23 1815.11,1341.52 1816.15,1341.81 1817.18,1342.11 1818.22,1342.4 1819.26,1342.69 1820.29,1342.98 1821.33,1343.27 1822.36,1343.56 1823.4,1343.85 1824.43,1344.13 1825.47,1344.42 1826.51,1344.71 1827.54,1345 1828.58,1345.29 1829.61,1345.57 1830.65,1345.86 1831.69,1346.15 1832.72,1346.43 1833.76,1346.72 1834.79,1347 1835.83,1347.29 1836.87,1347.57 1837.9,1347.86 1838.94,1348.14 1839.97,1348.42 1841.01,1348.71 1842.05,1348.99 1843.08,1349.27 1844.12,1349.56 1845.15,1349.84 1846.19,1350.12 1847.23,1350.4 1848.26,1350.68 1849.3,1350.96 1850.33,1351.24 1851.37,1351.52 1852.4,1351.8 1853.44,1352.08 1854.48,1352.36 1855.51,1352.64 1856.55,1352.92 1857.58,1353.2 1858.62,1353.47 1859.66,1353.75 1860.69,1354.03 1861.73,1354.31 1862.76,1354.58 1863.8,1354.86 1864.84,1355.13 1865.87,1355.41 1866.91,1355.68 1867.94,1355.96 1868.98,1356.23 1870.02,1356.51 1871.05,1356.78 1872.09,1357.06 1873.12,1357.33 1874.16,1357.6 1875.2,1357.87 1876.23,1358.15 1877.27,1358.42 1878.3,1358.69 1879.34,1358.96 1880.37,1359.23 1881.41,1359.5 1882.45,1359.77 1883.48,1360.04 1884.52,1360.31 1885.55,1360.58 1886.59,1360.85 1887.63,1361.12 1888.66,1361.39 1889.7,1361.66 1890.73,1361.92 1891.77,1362.19 1892.81,1362.46 1893.84,1362.73 1894.88,1362.99 1895.91,1363.26 1896.95,1363.53 1897.99,1363.79 1899.02,1364.06 1900.06,1364.32 1901.09,1364.59 1902.13,1364.85 1903.17,1365.11 1904.2,1365.38 1905.24,1365.64 1906.27,1365.9 1907.31,1366.17 1908.34,1366.43 1909.38,1366.69 1910.42,1366.95 1911.45,1367.22 1912.49,1367.48 1913.52,1367.74 1914.56,1368 1915.6,1368.26 1916.63,1368.52 1917.67,1368.78 1918.7,1369.04 1919.74,1369.3 1920.78,1369.56 1921.81,1369.82 1922.85,1370.08 1923.88,1370.33 1924.92,1370.59 1925.96,1370.85 1926.99,1371.11 1928.03,1371.36 1929.06,1371.62 1930.1,1371.88 1931.14,1372.13 1932.17,1372.39 1933.21,1372.64 1934.24,1372.9 1935.28,1373.15 1936.31,1373.41 1937.35,1373.66 1938.39,1373.92 1939.42,1374.17 1940.46,1374.42 1941.49,1374.68 1942.53,1374.93 1943.57,1375.18 1944.6,1375.43 1945.64,1375.68 1946.67,1375.94 1947.71,1376.19 1948.75,1376.44 1949.78,1376.69 1950.82,1376.94 1951.85,1377.19 1952.89,1377.44 1953.93,1377.69 1954.96,1377.94 1956,1378.19 1957.03,1378.44 1958.07,1378.68 1959.11,1378.93 1960.14,1379.18 1961.18,1379.43 1962.21,1379.68 1963.25,1379.92 1964.28,1380.17 1965.32,1380.42 1966.36,1380.66 1967.39,1380.91 1968.43,1381.15 1969.46,1381.4 1970.5,1381.64 1971.54,1381.89 1972.57,1382.13 1973.61,1382.38 1974.64,1382.62 1975.68,1382.87 1976.72,1383.11 1977.75,1383.35 1978.79,1383.6 1979.82,1383.84 1980.86,1384.08 1981.9,1384.32 1982.93,1384.56 1983.97,1384.81 1985,1385.05 1986.04,1385.29 1987.07,1385.53 1988.11,1385.77 1989.15,1386.01 1990.18,1386.25 1991.22,1386.49 1992.25,1386.73 1993.29,1386.97 1994.33,1387.2 1995.36,1387.44 1996.4,1387.68 1997.43,1387.92 1998.47,1388.16 1999.51,1388.39 2000.54,1388.63 2001.58,1388.87 2002.61,1389.11 2003.65,1389.34 2004.69,1389.58 2005.72,1389.81 2006.76,1390.05 2007.79,1390.28 2008.83,1390.52 2009.87,1390.75 2010.9,1390.99 2011.94,1391.22 2012.97,1391.46 2014.01,1391.69 2015.04,1391.92 2016.08,1392.16 2017.12,1392.39 2018.15,1392.62 2019.19,1392.85 2020.22,1393.09 2021.26,1393.32 2022.3,1393.55 2023.33,1393.78 2024.37,1394.01 2025.4,1394.24 2026.44,1394.47 2027.48,1394.7 2028.51,1394.93 2029.55,1395.16 2030.58,1395.39 2031.62,1395.62 2032.66,1395.85 2033.69,1396.08 2034.73,1396.31 2035.76,1396.54 2036.8,1396.76 2037.84,1396.99 2038.87,1397.22 2039.91,1397.45 2040.94,1397.67 2041.98,1397.9 2043.01,1398.13 2044.05,1398.35 2045.09,1398.58 2046.12,1398.8 2047.16,1399.03 2048.19,1399.26 2049.23,1399.48 2050.27,1399.7 2051.3,1399.93 2052.34,1400.15 2053.37,1400.38 2054.41,1400.6 2055.45,1400.82 2056.48,1401.05 2057.52,1401.27 2058.55,1401.49 2059.59,1401.72 2060.63,1401.94 2061.66,1402.16 2062.7,1402.38 2063.73,1402.6 2064.77,1402.82 2065.81,1403.04 2066.84,1403.27 2067.88,1403.49 2068.91,1403.71 2069.95,1403.93 2070.98,1404.15 2072.02,1404.37 2073.06,1404.58 2074.09,1404.8 2075.13,1405.02 2076.16,1405.24 2077.2,1405.46 2078.24,1405.68 2079.27,1405.89 2080.31,1406.11 2081.34,1406.33 2082.38,1406.55 2083.42,1406.76 2084.45,1406.98 2085.49,1407.2 2086.52,1407.41 2087.56,1407.63 2088.6,1407.84 2089.63,1408.06 2090.67,1408.27 2091.7,1408.49 2092.74,1408.7 2093.78,1408.92 2094.81,1409.13 2095.85,1409.35 2096.88,1409.56 2097.92,1409.77 2098.95,1409.99 2099.99,1410.2 2101.03,1410.41 2102.06,1410.62 2103.1,1410.84 2104.13,1411.05 2105.17,1411.26 2106.21,1411.47 2107.24,1411.68 2108.28,1411.9 2109.31,1412.11 2110.35,1412.32 2111.39,1412.53 2112.42,1412.74 2113.46,1412.95 2114.49,1413.16 2115.53,1413.37 2116.57,1413.58 2117.6,1413.78 2118.64,1413.99 2119.67,1414.2 2120.71,1414.41 2121.74,1414.62 2122.78,1414.83 2123.82,1415.03 2124.85,1415.24 2125.89,1415.45 2126.92,1415.66 2127.96,1415.86 2129,1416.07 2130.03,1416.28 2131.07,1416.48 2132.1,1416.69 2133.14,1416.89 2134.18,1417.1 2135.21,1417.3 2136.25,1417.51 2137.28,1417.71 2138.32,1417.92 2139.36,1418.12 2140.39,1418.33 2141.43,1418.53 2142.46,1418.73 2143.5,1418.94 2144.54,1419.14 2145.57,1419.34 2146.61,1419.55 2147.64,1419.75 2148.68,1419.95 2149.71,1420.15 2150.75,1420.36 2151.79,1420.56 2152.82,1420.76 2153.86,1420.96 2154.89,1421.16 2155.93,1421.36 2156.97,1421.56 2158,1421.76 2159.04,1421.96 2160.07,1422.16 2161.11,1422.36 2162.15,1422.56 2163.18,1422.76 2164.22,1422.96 2165.25,1423.16 2166.29,1423.36 2167.33,1423.56 2168.36,1423.75 2169.4,1423.95 2170.43,1424.15 2171.47,1424.35 2172.51,1424.54 2173.54,1424.74 2174.58,1424.94 2175.61,1425.14 2176.65,1425.33 2177.68,1425.53 2178.72,1425.72 2179.76,1425.92 2180.79,1426.12 2181.83,1426.31 2182.86,1426.51 2183.9,1426.7 2184.94,1426.9 2185.97,1427.09 2187.01,1427.29 2188.04,1427.48 2189.08,1427.67 2190.12,1427.87 2191.15,1428.06 2192.19,1428.25 2193.22,1428.45 2194.26,1428.64 2195.3,1428.83 2196.33,1429.03 2197.37,1429.22 2198.4,1429.41 2199.44,1429.6 2200.48,1429.79 2201.51,1429.98 2202.55,1430.18 2203.58,1430.37 2204.62,1430.56 2205.65,1430.75 2206.69,1430.94 2207.73,1431.13 2208.76,1431.32 2209.8,1431.51 2210.83,1431.7 2211.87,1431.89 2212.91,1432.08 2213.94,1432.27 2214.98,1432.46 2216.01,1432.64 2217.05,1432.83 2218.09,1433.02 2219.12,1433.21 2220.16,1433.4 2221.19,1433.58 2222.23,1433.77 2223.27,1433.96 2224.3,1434.15 2225.34,1434.33 2226.37,1434.52 2227.41,1434.71 2228.45,1434.89 2229.48,1435.08 2230.52,1435.26 2231.55,1435.45 2232.59,1435.64 2233.62,1435.82 2234.66,1436.01 2235.7,1436.19 2236.73,1436.38 2237.77,1436.56 2238.8,1436.74 2239.84,1436.93 2240.88,1437.11 2241.91,1437.3 2242.95,1437.48 2243.98,1437.66 2245.02,1437.85 2246.06,1438.03 2247.09,1438.21 2248.13,1438.39 2249.16,1438.58 2250.2,1438.76 2251.24,1438.94 2252.27,1439.12 2253.31,1439.3 2254.34,1439.49 2255.38,1439.67 2256.42,1439.85 2257.45,1440.03 2258.49,1440.21 2259.52,1440.39 2260.56,1440.57 2261.59,1440.75 2262.63,1440.93 2263.67,1441.11 2264.7,1441.29 2265.74,1441.47 2266.77,1441.65 2267.81,1441.83 2268.85,1442 2269.88,1442.18 2270.92,1442.36 2271.95,1442.54 2272.99,1442.72 2274.03,1442.9 2275.06,1443.07 2276.1,1443.25 2277.13,1443.43 2278.17,1443.61 2279.21,1443.78 2280.24,1443.96 2281.28,1444.14 2282.31,1444.31 2283.35,1444.49 2284.38,1444.66 2285.42,1444.84 2286.46,1445.02 2287.49,1445.19 2288.53,1445.37 2289.56,1445.54 2290.6,1445.72 "/>
<path clip-path="url(#clip250)" d="M2007.5 198.898 L2279.55 198.898 L2279.55 95.2176 L2007.5 95.2176  Z" fill="#ffffff" fill-rule="evenodd" fill-opacity="1"/>
<polyline clip-path="url(#clip250)" style="stroke:#000000; stroke-linecap:round; stroke-linejoin:round; stroke-width:4; stroke-opacity:1; fill:none" points="2007.5,198.898 2279.55,198.898 2279.55,95.2176 2007.5,95.2176 2007.5,198.898 "/>
<polyline clip-path="url(#clip250)" style="stroke:#009af9; stroke-linecap:round; stroke-linejoin:round; stroke-width:4; stroke-opacity:1; fill:none" points="2031.91,147.058 2178.32,147.058 "/>
<path clip-path="url(#clip250)" d="M2216.56 166.745 Q2214.76 171.375 2213.04 172.787 Q2211.33 174.199 2208.46 174.199 L2205.06 174.199 L2205.06 170.634 L2207.56 170.634 Q2209.32 170.634 2210.29 169.8 Q2211.26 168.967 2212.44 165.865 L2213.2 163.921 L2202.72 138.412 L2207.23 138.412 L2215.33 158.689 L2223.44 138.412 L2227.95 138.412 L2216.56 166.745 Z" fill="#000000" fill-rule="nonzero" fill-opacity="1" /><path clip-path="url(#clip250)" d="M2235.24 160.402 L2242.88 160.402 L2242.88 134.037 L2234.57 135.703 L2234.57 131.444 L2242.83 129.778 L2247.51 129.778 L2247.51 160.402 L2255.15 160.402 L2255.15 164.338 L2235.24 164.338 L2235.24 160.402 Z" fill="#000000" fill-rule="nonzero" fill-opacity="1" /></svg>
