<?xml version="1.0" encoding="utf-8"?>
<svg xmlns="http://www.w3.org/2000/svg" xmlns:xlink="http://www.w3.org/1999/xlink" width="600" height="400" viewBox="0 0 2400 1600">
<defs>
  <clipPath id="clip190">
    <rect x="0" y="0" width="2400" height="1600"/>
  </clipPath>
</defs>
<path clip-path="url(#clip190)" d="M0 1600 L2400 1600 L2400 0 L0 0  Z" fill="#ffffff" fill-rule="evenodd" fill-opacity="1"/>
<defs>
  <clipPath id="clip191">
    <rect x="480" y="0" width="1681" height="1600"/>
  </clipPath>
</defs>
<path clip-path="url(#clip190)" d="M140.858 1486.45 L2352.76 1486.45 L2352.76 47.2441 L140.858 47.2441  Z" fill="#ffffff" fill-rule="evenodd" fill-opacity="1"/>
<defs>
  <clipPath id="clip192">
    <rect x="140" y="47" width="2213" height="1440"/>
  </clipPath>
</defs>
<polyline clip-path="url(#clip192)" style="stroke:#000000; stroke-linecap:round; stroke-linejoin:round; stroke-width:2; stroke-opacity:0.1; fill:none" points="203.458,1486.45 203.458,47.2441 "/>
<polyline clip-path="url(#clip192)" style="stroke:#000000; stroke-linecap:round; stroke-linejoin:round; stroke-width:2; stroke-opacity:0.1; fill:none" points="725.133,1486.45 725.133,47.2441 "/>
<polyline clip-path="url(#clip192)" style="stroke:#000000; stroke-linecap:round; stroke-linejoin:round; stroke-width:2; stroke-opacity:0.1; fill:none" points="1246.81,1486.45 1246.81,47.2441 "/>
<polyline clip-path="url(#clip192)" style="stroke:#000000; stroke-linecap:round; stroke-linejoin:round; stroke-width:2; stroke-opacity:0.1; fill:none" points="1768.48,1486.45 1768.48,47.2441 "/>
<polyline clip-path="url(#clip192)" style="stroke:#000000; stroke-linecap:round; stroke-linejoin:round; stroke-width:2; stroke-opacity:0.1; fill:none" points="2290.16,1486.45 2290.16,47.2441 "/>
<polyline clip-path="url(#clip190)" style="stroke:#000000; stroke-linecap:round; stroke-linejoin:round; stroke-width:4; stroke-opacity:1; fill:none" points="140.858,1486.45 2352.76,1486.45 "/>
<polyline clip-path="url(#clip190)" style="stroke:#000000; stroke-linecap:round; stroke-linejoin:round; stroke-width:4; stroke-opacity:1; fill:none" points="203.458,1486.45 203.458,1467.55 "/>
<polyline clip-path="url(#clip190)" style="stroke:#000000; stroke-linecap:round; stroke-linejoin:round; stroke-width:4; stroke-opacity:1; fill:none" points="725.133,1486.45 725.133,1467.55 "/>
<polyline clip-path="url(#clip190)" style="stroke:#000000; stroke-linecap:round; stroke-linejoin:round; stroke-width:4; stroke-opacity:1; fill:none" points="1246.81,1486.45 1246.81,1467.55 "/>
<polyline clip-path="url(#clip190)" style="stroke:#000000; stroke-linecap:round; stroke-linejoin:round; stroke-width:4; stroke-opacity:1; fill:none" points="1768.48,1486.45 1768.48,1467.55 "/>
<polyline clip-path="url(#clip190)" style="stroke:#000000; stroke-linecap:round; stroke-linejoin:round; stroke-width:4; stroke-opacity:1; fill:none" points="2290.16,1486.45 2290.16,1467.55 "/>
<path clip-path="url(#clip190)" d="M203.458 1517.37 Q199.847 1517.37 198.019 1520.93 Q196.213 1524.47 196.213 1531.6 Q196.213 1538.71 198.019 1542.27 Q199.847 1545.82 203.458 1545.82 Q207.093 1545.82 208.898 1542.27 Q210.727 1538.71 210.727 1531.6 Q210.727 1524.47 208.898 1520.93 Q207.093 1517.37 203.458 1517.37 M203.458 1513.66 Q209.269 1513.66 212.324 1518.27 Q215.403 1522.85 215.403 1531.6 Q215.403 1540.33 212.324 1544.94 Q209.269 1549.52 203.458 1549.52 Q197.648 1549.52 194.57 1544.94 Q191.514 1540.33 191.514 1531.6 Q191.514 1522.85 194.57 1518.27 Q197.648 1513.66 203.458 1513.66 Z" fill="#000000" fill-rule="nonzero" fill-opacity="1" /><path clip-path="url(#clip190)" d="M684.751 1514.29 L703.107 1514.29 L703.107 1518.22 L689.033 1518.22 L689.033 1526.7 Q690.052 1526.35 691.07 1526.19 Q692.089 1526 693.107 1526 Q698.894 1526 702.274 1529.17 Q705.654 1532.34 705.654 1537.76 Q705.654 1543.34 702.181 1546.44 Q698.709 1549.52 692.39 1549.52 Q690.214 1549.52 687.945 1549.15 Q685.7 1548.78 683.293 1548.04 L683.293 1543.34 Q685.376 1544.47 687.598 1545.03 Q689.82 1545.58 692.297 1545.58 Q696.302 1545.58 698.64 1543.48 Q700.978 1541.37 700.978 1537.76 Q700.978 1534.15 698.64 1532.04 Q696.302 1529.94 692.297 1529.94 Q690.422 1529.94 688.547 1530.35 Q686.695 1530.77 684.751 1531.65 L684.751 1514.29 Z" fill="#000000" fill-rule="nonzero" fill-opacity="1" /><path clip-path="url(#clip190)" d="M724.866 1517.37 Q721.255 1517.37 719.427 1520.93 Q717.621 1524.47 717.621 1531.6 Q717.621 1538.71 719.427 1542.27 Q721.255 1545.82 724.866 1545.82 Q728.501 1545.82 730.306 1542.27 Q732.135 1538.71 732.135 1531.6 Q732.135 1524.47 730.306 1520.93 Q728.501 1517.37 724.866 1517.37 M724.866 1513.66 Q730.677 1513.66 733.732 1518.27 Q736.811 1522.85 736.811 1531.6 Q736.811 1540.33 733.732 1544.94 Q730.677 1549.52 724.866 1549.52 Q719.056 1549.52 715.978 1544.94 Q712.922 1540.33 712.922 1531.6 Q712.922 1522.85 715.978 1518.27 Q719.056 1513.66 724.866 1513.66 Z" fill="#000000" fill-rule="nonzero" fill-opacity="1" /><path clip-path="url(#clip190)" d="M755.028 1517.37 Q751.417 1517.37 749.588 1520.93 Q747.783 1524.47 747.783 1531.6 Q747.783 1538.71 749.588 1542.27 Q751.417 1545.82 755.028 1545.82 Q758.663 1545.82 760.468 1542.27 Q762.297 1538.71 762.297 1531.6 Q762.297 1524.47 760.468 1520.93 Q758.663 1517.37 755.028 1517.37 M755.028 1513.66 Q760.838 1513.66 763.894 1518.27 Q766.973 1522.85 766.973 1531.6 Q766.973 1540.33 763.894 1544.94 Q760.838 1549.52 755.028 1549.52 Q749.218 1549.52 746.139 1544.94 Q743.084 1540.33 743.084 1531.6 Q743.084 1522.85 746.139 1518.27 Q749.218 1513.66 755.028 1513.66 Z" fill="#000000" fill-rule="nonzero" fill-opacity="1" /><path clip-path="url(#clip190)" d="M1191.33 1544.91 L1198.97 1544.91 L1198.97 1518.55 L1190.66 1520.21 L1190.66 1515.95 L1198.93 1514.29 L1203.6 1514.29 L1203.6 1544.91 L1211.24 1544.91 L1211.24 1548.85 L1191.33 1548.85 L1191.33 1544.91 Z" fill="#000000" fill-rule="nonzero" fill-opacity="1" /><path clip-path="url(#clip190)" d="M1230.68 1517.37 Q1227.07 1517.37 1225.24 1520.93 Q1223.44 1524.47 1223.44 1531.6 Q1223.44 1538.71 1225.24 1542.27 Q1227.07 1545.82 1230.68 1545.82 Q1234.32 1545.82 1236.12 1542.27 Q1237.95 1538.71 1237.95 1531.6 Q1237.95 1524.47 1236.12 1520.93 Q1234.32 1517.37 1230.68 1517.37 M1230.68 1513.66 Q1236.49 1513.66 1239.55 1518.27 Q1242.63 1522.85 1242.63 1531.6 Q1242.63 1540.33 1239.55 1544.94 Q1236.49 1549.52 1230.68 1549.52 Q1224.87 1549.52 1221.8 1544.94 Q1218.74 1540.33 1218.74 1531.6 Q1218.74 1522.85 1221.8 1518.27 Q1224.87 1513.66 1230.68 1513.66 Z" fill="#000000" fill-rule="nonzero" fill-opacity="1" /><path clip-path="url(#clip190)" d="M1260.85 1517.37 Q1257.23 1517.37 1255.41 1520.93 Q1253.6 1524.47 1253.6 1531.6 Q1253.6 1538.71 1255.41 1542.27 Q1257.23 1545.82 1260.85 1545.82 Q1264.48 1545.82 1266.29 1542.27 Q1268.11 1538.71 1268.11 1531.6 Q1268.11 1524.47 1266.29 1520.93 Q1264.48 1517.37 1260.85 1517.37 M1260.85 1513.66 Q1266.66 1513.66 1269.71 1518.27 Q1272.79 1522.85 1272.79 1531.6 Q1272.79 1540.33 1269.71 1544.94 Q1266.66 1549.52 1260.85 1549.52 Q1255.04 1549.52 1251.96 1544.94 Q1248.9 1540.33 1248.9 1531.6 Q1248.9 1522.85 1251.96 1518.27 Q1255.04 1513.66 1260.85 1513.66 Z" fill="#000000" fill-rule="nonzero" fill-opacity="1" /><path clip-path="url(#clip190)" d="M1291.01 1517.37 Q1287.4 1517.37 1285.57 1520.93 Q1283.76 1524.47 1283.76 1531.6 Q1283.76 1538.71 1285.57 1542.27 Q1287.4 1545.82 1291.01 1545.82 Q1294.64 1545.82 1296.45 1542.27 Q1298.28 1538.71 1298.28 1531.6 Q1298.28 1524.47 1296.45 1520.93 Q1294.64 1517.37 1291.01 1517.37 M1291.01 1513.66 Q1296.82 1513.66 1299.87 1518.27 Q1302.95 1522.85 1302.95 1531.6 Q1302.95 1540.33 1299.87 1544.94 Q1296.82 1549.52 1291.01 1549.52 Q1285.2 1549.52 1282.12 1544.94 Q1279.06 1540.33 1279.06 1531.6 Q1279.06 1522.85 1282.12 1518.27 Q1285.2 1513.66 1291.01 1513.66 Z" fill="#000000" fill-rule="nonzero" fill-opacity="1" /><path clip-path="url(#clip190)" d="M1713.01 1544.91 L1720.65 1544.91 L1720.65 1518.55 L1712.34 1520.21 L1712.34 1515.95 L1720.6 1514.29 L1725.28 1514.29 L1725.28 1544.91 L1732.91 1544.91 L1732.91 1548.85 L1713.01 1548.85 L1713.01 1544.91 Z" fill="#000000" fill-rule="nonzero" fill-opacity="1" /><path clip-path="url(#clip190)" d="M1742.4 1514.29 L1760.76 1514.29 L1760.76 1518.22 L1746.69 1518.22 L1746.69 1526.7 Q1747.71 1526.35 1748.72 1526.19 Q1749.74 1526 1750.76 1526 Q1756.55 1526 1759.93 1529.17 Q1763.31 1532.34 1763.31 1537.76 Q1763.31 1543.34 1759.84 1546.44 Q1756.36 1549.52 1750.04 1549.52 Q1747.87 1549.52 1745.6 1549.15 Q1743.35 1548.78 1740.95 1548.04 L1740.95 1543.34 Q1743.03 1544.47 1745.25 1545.03 Q1747.47 1545.58 1749.95 1545.58 Q1753.96 1545.58 1756.29 1543.48 Q1758.63 1541.37 1758.63 1537.76 Q1758.63 1534.15 1756.29 1532.04 Q1753.96 1529.94 1749.95 1529.94 Q1748.08 1529.94 1746.2 1530.35 Q1744.35 1530.77 1742.4 1531.65 L1742.4 1514.29 Z" fill="#000000" fill-rule="nonzero" fill-opacity="1" /><path clip-path="url(#clip190)" d="M1782.52 1517.37 Q1778.91 1517.37 1777.08 1520.93 Q1775.27 1524.47 1775.27 1531.6 Q1775.27 1538.71 1777.08 1542.27 Q1778.91 1545.82 1782.52 1545.82 Q1786.15 1545.82 1787.96 1542.27 Q1789.79 1538.71 1789.79 1531.6 Q1789.79 1524.47 1787.96 1520.93 Q1786.15 1517.37 1782.52 1517.37 M1782.52 1513.66 Q1788.33 1513.66 1791.39 1518.27 Q1794.46 1522.85 1794.46 1531.6 Q1794.46 1540.33 1791.39 1544.94 Q1788.33 1549.52 1782.52 1549.52 Q1776.71 1549.52 1773.63 1544.94 Q1770.58 1540.33 1770.58 1531.6 Q1770.58 1522.85 1773.63 1518.27 Q1776.71 1513.66 1782.52 1513.66 Z" fill="#000000" fill-rule="nonzero" fill-opacity="1" /><path clip-path="url(#clip190)" d="M1812.68 1517.37 Q1809.07 1517.37 1807.24 1520.93 Q1805.44 1524.47 1805.44 1531.6 Q1805.44 1538.71 1807.24 1542.27 Q1809.07 1545.82 1812.68 1545.82 Q1816.32 1545.82 1818.12 1542.27 Q1819.95 1538.71 1819.95 1531.6 Q1819.95 1524.47 1818.12 1520.93 Q1816.32 1517.37 1812.68 1517.37 M1812.68 1513.66 Q1818.49 1513.66 1821.55 1518.27 Q1824.63 1522.85 1824.63 1531.6 Q1824.63 1540.33 1821.55 1544.94 Q1818.49 1549.52 1812.68 1549.52 Q1806.87 1549.52 1803.79 1544.94 Q1800.74 1540.33 1800.74 1531.6 Q1800.74 1522.85 1803.79 1518.27 Q1806.87 1513.66 1812.68 1513.66 Z" fill="#000000" fill-rule="nonzero" fill-opacity="1" /><path clip-path="url(#clip190)" d="M2238.77 1544.91 L2255.09 1544.91 L2255.09 1548.85 L2233.14 1548.85 L2233.14 1544.91 Q2235.8 1542.16 2240.39 1537.53 Q2244.99 1532.88 2246.17 1531.53 Q2248.42 1529.01 2249.3 1527.27 Q2250.2 1525.51 2250.2 1523.82 Q2250.2 1521.07 2248.26 1519.33 Q2246.34 1517.6 2243.23 1517.6 Q2241.03 1517.6 2238.58 1518.36 Q2236.15 1519.13 2233.37 1520.68 L2233.37 1515.95 Q2236.2 1514.82 2238.65 1514.24 Q2241.1 1513.66 2243.14 1513.66 Q2248.51 1513.66 2251.71 1516.35 Q2254.9 1519.03 2254.9 1523.52 Q2254.9 1525.65 2254.09 1527.57 Q2253.3 1529.47 2251.2 1532.07 Q2250.62 1532.74 2247.52 1535.95 Q2244.41 1539.15 2238.77 1544.91 Z" fill="#000000" fill-rule="nonzero" fill-opacity="1" /><path clip-path="url(#clip190)" d="M2274.9 1517.37 Q2271.29 1517.37 2269.46 1520.93 Q2267.66 1524.47 2267.66 1531.6 Q2267.66 1538.71 2269.46 1542.27 Q2271.29 1545.82 2274.9 1545.82 Q2278.53 1545.82 2280.34 1542.27 Q2282.17 1538.71 2282.17 1531.6 Q2282.17 1524.47 2280.34 1520.93 Q2278.53 1517.37 2274.9 1517.37 M2274.9 1513.66 Q2280.71 1513.66 2283.77 1518.27 Q2286.84 1522.85 2286.84 1531.6 Q2286.84 1540.33 2283.77 1544.94 Q2280.71 1549.52 2274.9 1549.52 Q2269.09 1549.52 2266.01 1544.94 Q2262.96 1540.33 2262.96 1531.6 Q2262.96 1522.85 2266.01 1518.27 Q2269.09 1513.66 2274.9 1513.66 Z" fill="#000000" fill-rule="nonzero" fill-opacity="1" /><path clip-path="url(#clip190)" d="M2305.06 1517.37 Q2301.45 1517.37 2299.62 1520.93 Q2297.82 1524.47 2297.82 1531.6 Q2297.82 1538.71 2299.62 1542.27 Q2301.45 1545.82 2305.06 1545.82 Q2308.7 1545.82 2310.5 1542.27 Q2312.33 1538.71 2312.33 1531.6 Q2312.33 1524.47 2310.5 1520.93 Q2308.7 1517.37 2305.06 1517.37 M2305.06 1513.66 Q2310.87 1513.66 2313.93 1518.27 Q2317.01 1522.85 2317.01 1531.6 Q2317.01 1540.33 2313.93 1544.94 Q2310.87 1549.52 2305.06 1549.52 Q2299.25 1549.52 2296.17 1544.94 Q2293.12 1540.33 2293.12 1531.6 Q2293.12 1522.85 2296.17 1518.27 Q2299.25 1513.66 2305.06 1513.66 Z" fill="#000000" fill-rule="nonzero" fill-opacity="1" /><path clip-path="url(#clip190)" d="M2335.22 1517.37 Q2331.61 1517.37 2329.78 1520.93 Q2327.98 1524.47 2327.98 1531.6 Q2327.98 1538.71 2329.78 1542.27 Q2331.61 1545.82 2335.22 1545.82 Q2338.86 1545.82 2340.66 1542.27 Q2342.49 1538.71 2342.49 1531.6 Q2342.49 1524.47 2340.66 1520.93 Q2338.86 1517.37 2335.22 1517.37 M2335.22 1513.66 Q2341.03 1513.66 2344.09 1518.27 Q2347.17 1522.85 2347.17 1531.6 Q2347.17 1540.33 2344.09 1544.94 Q2341.03 1549.52 2335.22 1549.52 Q2329.41 1549.52 2326.34 1544.94 Q2323.28 1540.33 2323.28 1531.6 Q2323.28 1522.85 2326.34 1518.27 Q2329.41 1513.66 2335.22 1513.66 Z" fill="#000000" fill-rule="nonzero" fill-opacity="1" /><polyline clip-path="url(#clip192)" style="stroke:#000000; stroke-linecap:round; stroke-linejoin:round; stroke-width:2; stroke-opacity:0.1; fill:none" points="140.858,1476.09 2352.76,1476.09 "/>
<polyline clip-path="url(#clip192)" style="stroke:#000000; stroke-linecap:round; stroke-linejoin:round; stroke-width:2; stroke-opacity:0.1; fill:none" points="140.858,1204.21 2352.76,1204.21 "/>
<polyline clip-path="url(#clip192)" style="stroke:#000000; stroke-linecap:round; stroke-linejoin:round; stroke-width:2; stroke-opacity:0.1; fill:none" points="140.858,932.344 2352.76,932.344 "/>
<polyline clip-path="url(#clip192)" style="stroke:#000000; stroke-linecap:round; stroke-linejoin:round; stroke-width:2; stroke-opacity:0.1; fill:none" points="140.858,660.473 2352.76,660.473 "/>
<polyline clip-path="url(#clip192)" style="stroke:#000000; stroke-linecap:round; stroke-linejoin:round; stroke-width:2; stroke-opacity:0.1; fill:none" points="140.858,388.602 2352.76,388.602 "/>
<polyline clip-path="url(#clip192)" style="stroke:#000000; stroke-linecap:round; stroke-linejoin:round; stroke-width:2; stroke-opacity:0.1; fill:none" points="140.858,116.731 2352.76,116.731 "/>
<polyline clip-path="url(#clip190)" style="stroke:#000000; stroke-linecap:round; stroke-linejoin:round; stroke-width:4; stroke-opacity:1; fill:none" points="140.858,1486.45 140.858,47.2441 "/>
<polyline clip-path="url(#clip190)" style="stroke:#000000; stroke-linecap:round; stroke-linejoin:round; stroke-width:4; stroke-opacity:1; fill:none" points="140.858,1476.09 159.755,1476.09 "/>
<polyline clip-path="url(#clip190)" style="stroke:#000000; stroke-linecap:round; stroke-linejoin:round; stroke-width:4; stroke-opacity:1; fill:none" points="140.858,1204.21 159.755,1204.21 "/>
<polyline clip-path="url(#clip190)" style="stroke:#000000; stroke-linecap:round; stroke-linejoin:round; stroke-width:4; stroke-opacity:1; fill:none" points="140.858,932.344 159.755,932.344 "/>
<polyline clip-path="url(#clip190)" style="stroke:#000000; stroke-linecap:round; stroke-linejoin:round; stroke-width:4; stroke-opacity:1; fill:none" points="140.858,660.473 159.755,660.473 "/>
<polyline clip-path="url(#clip190)" style="stroke:#000000; stroke-linecap:round; stroke-linejoin:round; stroke-width:4; stroke-opacity:1; fill:none" points="140.858,388.602 159.755,388.602 "/>
<polyline clip-path="url(#clip190)" style="stroke:#000000; stroke-linecap:round; stroke-linejoin:round; stroke-width:4; stroke-opacity:1; fill:none" points="140.858,116.731 159.755,116.731 "/>
<path clip-path="url(#clip190)" d="M66.5939 1462.88 L54.7884 1481.33 L66.5939 1481.33 L66.5939 1462.88 M65.367 1458.81 L71.2466 1458.81 L71.2466 1481.33 L76.1772 1481.33 L76.1772 1485.22 L71.2466 1485.22 L71.2466 1493.37 L66.5939 1493.37 L66.5939 1485.22 L50.9921 1485.22 L50.9921 1480.7 L65.367 1458.81 Z" fill="#000000" fill-rule="nonzero" fill-opacity="1" /><path clip-path="url(#clip190)" d="M83.9549 1458.81 L102.311 1458.81 L102.311 1462.74 L88.2373 1462.74 L88.2373 1471.21 Q89.2558 1470.87 90.2743 1470.7 Q91.2928 1470.52 92.3113 1470.52 Q98.0984 1470.52 101.478 1473.69 Q104.858 1476.86 104.858 1482.28 Q104.858 1487.86 101.385 1490.96 Q97.9132 1494.04 91.5938 1494.04 Q89.4178 1494.04 87.1493 1493.67 Q84.904 1493.3 82.4966 1492.55 L82.4966 1487.86 Q84.5799 1488.99 86.8021 1489.55 Q89.0243 1490.1 91.5012 1490.1 Q95.5058 1490.1 97.8437 1487.99 Q100.182 1485.89 100.182 1482.28 Q100.182 1478.67 97.8437 1476.56 Q95.5058 1474.45 91.5012 1474.45 Q89.6262 1474.45 87.7512 1474.87 Q85.8993 1475.29 83.9549 1476.17 L83.9549 1458.81 Z" fill="#000000" fill-rule="nonzero" fill-opacity="1" /><path clip-path="url(#clip190)" d="M52.7977 1186.93 L71.1541 1186.93 L71.1541 1190.87 L57.0801 1190.87 L57.0801 1199.34 Q58.0986 1198.99 59.1171 1198.83 Q60.1356 1198.65 61.1541 1198.65 Q66.9411 1198.65 70.3207 1201.82 Q73.7003 1204.99 73.7003 1210.41 Q73.7003 1215.99 70.2281 1219.09 Q66.7559 1222.17 60.4365 1222.17 Q58.2606 1222.17 55.9921 1221.8 Q53.7467 1221.42 51.3393 1220.68 L51.3393 1215.99 Q53.4227 1217.12 55.6449 1217.67 Q57.8671 1218.23 60.3439 1218.23 Q64.3485 1218.23 66.6865 1216.12 Q69.0244 1214.02 69.0244 1210.41 Q69.0244 1206.8 66.6865 1204.69 Q64.3485 1202.58 60.3439 1202.58 Q58.4689 1202.58 56.5939 1203 Q54.7421 1203.42 52.7977 1204.3 L52.7977 1186.93 Z" fill="#000000" fill-rule="nonzero" fill-opacity="1" /><path clip-path="url(#clip190)" d="M92.9132 1190.01 Q89.3021 1190.01 87.4734 1193.58 Q85.6679 1197.12 85.6679 1204.25 Q85.6679 1211.36 87.4734 1214.92 Q89.3021 1218.46 92.9132 1218.46 Q96.5474 1218.46 98.353 1214.92 Q100.182 1211.36 100.182 1204.25 Q100.182 1197.12 98.353 1193.58 Q96.5474 1190.01 92.9132 1190.01 M92.9132 1186.31 Q98.7234 1186.31 101.779 1190.92 Q104.858 1195.5 104.858 1204.25 Q104.858 1212.98 101.779 1217.58 Q98.7234 1222.17 92.9132 1222.17 Q87.103 1222.17 84.0244 1217.58 Q80.9688 1212.98 80.9688 1204.25 Q80.9688 1195.5 84.0244 1190.92 Q87.103 1186.31 92.9132 1186.31 Z" fill="#000000" fill-rule="nonzero" fill-opacity="1" /><path clip-path="url(#clip190)" d="M53.793 915.064 L72.1494 915.064 L72.1494 918.999 L58.0754 918.999 L58.0754 927.471 Q59.0939 927.124 60.1124 926.962 Q61.131 926.777 62.1495 926.777 Q67.9365 926.777 71.3161 929.948 Q74.6957 933.119 74.6957 938.536 Q74.6957 944.114 71.2235 947.216 Q67.7513 950.295 61.4319 950.295 Q59.256 950.295 56.9875 949.925 Q54.7421 949.554 52.3347 948.813 L52.3347 944.114 Q54.418 945.249 56.6402 945.804 Q58.8625 946.36 61.3393 946.36 Q65.3439 946.36 67.6819 944.253 Q70.0198 942.147 70.0198 938.536 Q70.0198 934.925 67.6819 932.818 Q65.3439 930.712 61.3393 930.712 Q59.4643 930.712 57.5893 931.128 Q55.7375 931.545 53.793 932.425 L53.793 915.064 Z" fill="#000000" fill-rule="nonzero" fill-opacity="1" /><path clip-path="url(#clip190)" d="M83.9549 915.064 L102.311 915.064 L102.311 918.999 L88.2373 918.999 L88.2373 927.471 Q89.2558 927.124 90.2743 926.962 Q91.2928 926.777 92.3113 926.777 Q98.0984 926.777 101.478 929.948 Q104.858 933.119 104.858 938.536 Q104.858 944.114 101.385 947.216 Q97.9132 950.295 91.5938 950.295 Q89.4178 950.295 87.1493 949.925 Q84.904 949.554 82.4966 948.813 L82.4966 944.114 Q84.5799 945.249 86.8021 945.804 Q89.0243 946.36 91.5012 946.36 Q95.5058 946.36 97.8437 944.253 Q100.182 942.147 100.182 938.536 Q100.182 934.925 97.8437 932.818 Q95.5058 930.712 91.5012 930.712 Q89.6262 930.712 87.7512 931.128 Q85.8993 931.545 83.9549 932.425 L83.9549 915.064 Z" fill="#000000" fill-rule="nonzero" fill-opacity="1" /><path clip-path="url(#clip190)" d="M63.33 658.609 Q60.1819 658.609 58.33 660.762 Q56.5014 662.915 56.5014 666.665 Q56.5014 670.392 58.33 672.568 Q60.1819 674.721 63.33 674.721 Q66.4782 674.721 68.3068 672.568 Q70.1587 670.392 70.1587 666.665 Q70.1587 662.915 68.3068 660.762 Q66.4782 658.609 63.33 658.609 M72.6124 643.957 L72.6124 648.216 Q70.8531 647.383 69.0476 646.943 Q67.2652 646.503 65.5059 646.503 Q60.8763 646.503 58.4226 649.628 Q55.9921 652.753 55.6449 659.072 Q57.0106 657.059 59.0708 655.994 Q61.131 654.906 63.6078 654.906 Q68.8161 654.906 71.8253 658.077 Q74.8577 661.225 74.8577 666.665 Q74.8577 671.989 71.7096 675.207 Q68.5615 678.424 63.33 678.424 Q57.3347 678.424 54.1634 673.841 Q50.9921 669.234 50.9921 660.508 Q50.9921 652.313 54.881 647.452 Q58.7699 642.568 65.3208 642.568 Q67.08 642.568 68.8624 642.915 Q70.6679 643.262 72.6124 643.957 Z" fill="#000000" fill-rule="nonzero" fill-opacity="1" /><path clip-path="url(#clip190)" d="M92.9132 646.272 Q89.3021 646.272 87.4734 649.836 Q85.6679 653.378 85.6679 660.508 Q85.6679 667.614 87.4734 671.179 Q89.3021 674.721 92.9132 674.721 Q96.5474 674.721 98.353 671.179 Q100.182 667.614 100.182 660.508 Q100.182 653.378 98.353 649.836 Q96.5474 646.272 92.9132 646.272 M92.9132 642.568 Q98.7234 642.568 101.779 647.174 Q104.858 651.758 104.858 660.508 Q104.858 669.234 101.779 673.841 Q98.7234 678.424 92.9132 678.424 Q87.103 678.424 84.0244 673.841 Q80.9688 669.234 80.9688 660.508 Q80.9688 651.758 84.0244 647.174 Q87.103 642.568 92.9132 642.568 Z" fill="#000000" fill-rule="nonzero" fill-opacity="1" /><path clip-path="url(#clip190)" d="M64.3254 386.739 Q61.1773 386.739 59.3254 388.892 Q57.4967 391.044 57.4967 394.794 Q57.4967 398.521 59.3254 400.697 Q61.1773 402.85 64.3254 402.85 Q67.4735 402.85 69.3022 400.697 Q71.1541 398.521 71.1541 394.794 Q71.1541 391.044 69.3022 388.892 Q67.4735 386.739 64.3254 386.739 M73.6077 372.086 L73.6077 376.345 Q71.8485 375.512 70.0429 375.072 Q68.2606 374.632 66.5013 374.632 Q61.8717 374.632 59.418 377.757 Q56.9875 380.882 56.6402 387.202 Q58.006 385.188 60.0662 384.123 Q62.1263 383.035 64.6032 383.035 Q69.8115 383.035 72.8207 386.206 Q75.8531 389.354 75.8531 394.794 Q75.8531 400.118 72.705 403.336 Q69.5568 406.553 64.3254 406.553 Q58.33 406.553 55.1588 401.97 Q51.9875 397.364 51.9875 388.637 Q51.9875 380.442 55.8764 375.581 Q59.7652 370.697 66.3161 370.697 Q68.0754 370.697 69.8578 371.044 Q71.6633 371.392 73.6077 372.086 Z" fill="#000000" fill-rule="nonzero" fill-opacity="1" /><path clip-path="url(#clip190)" d="M83.9549 371.322 L102.311 371.322 L102.311 375.257 L88.2373 375.257 L88.2373 383.73 Q89.2558 383.382 90.2743 383.22 Q91.2928 383.035 92.3113 383.035 Q98.0984 383.035 101.478 386.206 Q104.858 389.378 104.858 394.794 Q104.858 400.373 101.385 403.475 Q97.9132 406.553 91.5938 406.553 Q89.4178 406.553 87.1493 406.183 Q84.904 405.813 82.4966 405.072 L82.4966 400.373 Q84.5799 401.507 86.8021 402.063 Q89.0243 402.618 91.5012 402.618 Q95.5058 402.618 97.8437 400.512 Q100.182 398.405 100.182 394.794 Q100.182 391.183 97.8437 389.077 Q95.5058 386.97 91.5012 386.97 Q89.6262 386.97 87.7512 387.387 Q85.8993 387.804 83.9549 388.683 L83.9549 371.322 Z" fill="#000000" fill-rule="nonzero" fill-opacity="1" /><path clip-path="url(#clip190)" d="M51.5708 99.4514 L73.7929 99.4514 L73.7929 101.442 L61.2467 134.011 L56.3625 134.011 L68.168 103.387 L51.5708 103.387 L51.5708 99.4514 Z" fill="#000000" fill-rule="nonzero" fill-opacity="1" /><path clip-path="url(#clip190)" d="M92.9132 102.53 Q89.3021 102.53 87.4734 106.095 Q85.6679 109.637 85.6679 116.766 Q85.6679 123.873 87.4734 127.437 Q89.3021 130.979 92.9132 130.979 Q96.5474 130.979 98.353 127.437 Q100.182 123.873 100.182 116.766 Q100.182 109.637 98.353 106.095 Q96.5474 102.53 92.9132 102.53 M92.9132 98.8264 Q98.7234 98.8264 101.779 103.433 Q104.858 108.016 104.858 116.766 Q104.858 125.493 101.779 130.099 Q98.7234 134.683 92.9132 134.683 Q87.103 134.683 84.0244 130.099 Q80.9688 125.493 80.9688 116.766 Q80.9688 108.016 84.0244 103.433 Q87.103 98.8264 92.9132 98.8264 Z" fill="#000000" fill-rule="nonzero" fill-opacity="1" /><polyline clip-path="url(#clip192)" style="stroke:#009af9; stroke-linecap:round; stroke-linejoin:round; stroke-width:4; stroke-opacity:1; fill:none" points="203.458,87.9763 204.502,148.418 205.545,203.651 206.589,254.492 207.632,301.535 208.675,345.218 209.719,385.875 210.762,423.772 211.805,459.129 212.849,492.141 213.892,522.984 214.935,551.821 215.979,578.807 217.022,604.089 218.065,627.806 219.109,650.086 220.152,671.053 221.195,690.817 222.239,709.483 223.282,727.145 224.325,743.888 225.369,759.792 226.412,774.925 227.455,789.353 228.499,803.132 229.542,816.313 230.586,828.944 231.629,841.065 232.672,852.714 233.716,863.925 234.759,874.729 235.802,885.154 236.846,895.223 237.889,904.96 238.932,914.385 239.976,923.517 241.019,932.373 242.062,940.969 243.106,949.318 244.149,957.434 245.192,965.329 246.236,973.013 247.279,980.497 248.322,987.79 249.366,994.902 250.409,1001.84 251.452,1008.61 252.496,1015.22 253.539,1021.68 254.583,1027.99 255.626,1034.16 256.669,1040.19 257.713,1046.09 258.756,1051.86 259.799,1057.52 260.843,1063.05 261.886,1068.47 262.929,1073.78 263.973,1078.98 265.016,1084.08 266.059,1089.08 267.103,1093.98 268.146,1098.78 269.189,1103.5 270.233,1108.12 271.276,1112.66 272.319,1117.11 273.363,1121.48 274.406,1125.77 275.45,1129.98 276.493,1134.12 277.536,1138.18 278.58,1142.16 279.623,1146.08 280.666,1149.93 281.71,1153.71 282.753,1157.43 283.796,1161.08 284.84,1164.66 285.883,1168.19 286.926,1171.66 287.97,1175.06 289.013,1178.41 290.056,1181.71 291.1,1184.95 292.143,1188.13 293.186,1191.26 294.23,1194.34 295.273,1197.37 296.316,1200.35 297.36,1203.28 298.403,1206.17 299.447,1209 300.49,1211.8 301.533,1214.54 302.577,1217.25 303.62,1219.91 304.663,1222.52 305.707,1225.1 306.75,1227.64 307.793,1230.13 308.837,1232.59 309.88,1235.01 310.923,1237.39 311.967,1239.73 313.01,1242.04 314.053,1244.31 315.097,1246.55 316.14,1248.75 317.183,1250.92 318.227,1253.06 319.27,1255.17 320.313,1257.24 321.357,1259.28 322.4,1261.29 323.444,1263.27 324.487,1265.22 325.53,1267.15 326.574,1269.04 327.617,1270.91 328.66,1272.75 329.704,1274.56 330.747,1276.34 331.79,1278.1 332.834,1279.83 333.877,1281.54 334.92,1283.23 335.964,1284.89 337.007,1286.52 338.05,1288.13 339.094,1289.72 340.137,1291.29 341.18,1292.84 342.224,1294.36 343.267,1295.86 344.31,1297.34 345.354,1298.8 346.397,1300.24 347.441,1301.66 348.484,1303.06 349.527,1304.44 350.571,1305.8 351.614,1307.14 352.657,1308.47 353.701,1309.77 354.744,1311.06 355.787,1312.33 356.831,1313.59 357.874,1314.82 358.917,1316.05 359.961,1317.25 361.004,1318.44 362.047,1319.61 363.091,1320.77 364.134,1321.91 365.177,1323.04 366.221,1324.15 367.264,1325.25 368.308,1326.33 369.351,1327.4 370.394,1328.46 371.438,1329.5 372.481,1330.53 373.524,1331.55 374.568,1332.55 375.611,1333.54 376.654,1334.52 377.698,1335.48 378.741,1336.44 379.784,1337.38 380.828,1338.31 381.871,1339.23 382.914,1340.14 383.958,1341.03 385.001,1341.92 386.044,1342.79 387.088,1343.66 388.131,1344.51 389.174,1345.36 390.218,1346.19 391.261,1347.01 392.305,1347.83 393.348,1348.63 394.391,1349.43 395.435,1350.21 396.478,1350.99 397.521,1351.76 398.565,1352.51 399.608,1353.26 400.651,1354.01 401.695,1354.74 402.738,1355.46 403.781,1356.18 404.825,1356.89 405.868,1357.59 406.911,1358.28 407.955,1358.96 408.998,1359.64 410.041,1360.31 411.085,1360.97 412.128,1361.63 413.171,1362.27 414.215,1362.91 415.258,1363.55 416.302,1364.17 417.345,1364.79 418.388,1365.41 419.432,1366.01 420.475,1366.61 421.518,1367.21 422.562,1367.79 423.605,1368.38 424.648,1368.95 425.692,1369.52 426.735,1370.08 427.778,1370.64 428.822,1371.19 429.865,1371.74 430.908,1372.28 431.952,1372.82 432.995,1373.35 434.038,1373.87 435.082,1374.39 436.125,1374.9 437.168,1375.41 438.212,1375.92 439.255,1376.41 440.299,1376.91 441.342,1377.4 442.385,1377.88 443.429,1378.36 444.472,1378.83 445.515,1379.3 446.559,1379.77 447.602,1380.23 448.645,1380.69 449.689,1381.14 450.732,1381.59 451.775,1382.03 452.819,1382.47 453.862,1382.91 454.905,1383.34 455.949,1383.77 456.992,1384.19 458.035,1384.61 459.079,1385.02 460.122,1385.44 461.165,1385.84 462.209,1386.25 463.252,1386.65 464.296,1387.05 465.339,1387.44 466.382,1387.83 467.426,1388.21 468.469,1388.6 469.512,1388.98 470.556,1389.35 471.599,1389.73 472.642,1390.09 473.686,1390.46 474.729,1390.82 475.772,1391.18 476.816,1391.54 477.859,1391.89 478.902,1392.24 479.946,1392.59 480.989,1392.94 482.032,1393.28 483.076,1393.62 484.119,1393.95 485.163,1394.28 486.206,1394.61 487.249,1394.94 488.293,1395.26 489.336,1395.59 490.379,1395.9 491.423,1396.22 492.466,1396.53 493.509,1396.85 494.553,1397.15 495.596,1397.46 496.639,1397.76 497.683,1398.06 498.726,1398.36 499.769,1398.66 500.813,1398.95 501.856,1399.24 502.899,1399.53 503.943,1399.82 504.986,1400.1 506.029,1400.38 507.073,1400.66 508.116,1400.94 509.16,1401.21 510.203,1401.49 511.246,1401.76 512.29,1402.02 513.333,1402.29 514.376,1402.56 515.42,1402.82 516.463,1403.08 517.506,1403.33 518.55,1403.59 519.593,1403.84 520.636,1404.1 521.68,1404.35 522.723,1404.59 523.766,1404.84 524.81,1405.08 525.853,1405.33 526.896,1405.57 527.94,1405.8 528.983,1406.04 530.026,1406.28 531.07,1406.51 532.113,1406.74 533.157,1406.97 534.2,1407.2 535.243,1407.42 536.287,1407.65 537.33,1407.87 538.373,1408.09 539.417,1408.31 540.46,1408.53 541.503,1408.74 542.547,1408.96 543.59,1409.17 544.633,1409.38 545.677,1409.59 546.72,1409.8 547.763,1410 548.807,1410.21 549.85,1410.41 550.893,1410.61 551.937,1410.81 552.98,1411.01 554.023,1411.21 555.067,1411.4 556.11,1411.6 557.154,1411.79 558.197,1411.98 559.24,1412.17 560.284,1412.36 561.327,1412.55 562.37,1412.73 563.414,1412.92 564.457,1413.1 565.5,1413.28 566.544,1413.46 567.587,1413.64 568.63,1413.82 569.674,1414 570.717,1414.17 571.76,1414.35 572.804,1414.52 573.847,1414.69 574.89,1414.86 575.934,1415.03 576.977,1415.2 578.021,1415.36 579.064,1415.53 580.107,1415.69 581.151,1415.86 582.194,1416.02 583.237,1416.18 584.281,1416.34 585.324,1416.5 586.367,1416.65 587.411,1416.81 588.454,1416.96 589.497,1417.12 590.541,1417.27 591.584,1417.42 592.627,1417.57 593.671,1417.72 594.714,1417.87 595.757,1418.02 596.801,1418.17 597.844,1418.31 598.887,1418.46 599.931,1418.6 600.974,1418.74 602.018,1418.88 603.061,1419.02 604.104,1419.16 605.148,1419.3 606.191,1419.44 607.234,1419.57 608.278,1419.71 609.321,1419.84 610.364,1419.98 611.408,1420.11 612.451,1420.24 613.494,1420.37 614.538,1420.5 615.581,1420.63 616.624,1420.76 617.668,1420.89 618.711,1421.01 619.754,1421.14 620.798,1421.26 621.841,1421.39 622.884,1421.51 623.928,1421.63 624.971,1421.76 626.015,1421.88 627.058,1422 628.101,1422.11 629.145,1422.23 630.188,1422.35 631.231,1422.47 632.275,1422.58 633.318,1422.7 634.361,1422.81 635.405,1422.92 636.448,1423.04 637.491,1423.15 638.535,1423.26 639.578,1423.37 640.621,1423.48 641.665,1423.59 642.708,1423.7 643.751,1423.8 644.795,1423.91 645.838,1424.02 646.881,1424.12 647.925,1424.22 648.968,1424.33 650.012,1424.43 651.055,1424.53 652.098,1424.64 653.142,1424.74 654.185,1424.84 655.228,1424.94 656.272,1425.04 657.315,1425.13 658.358,1425.23 659.402,1425.33 660.445,1425.43 661.488,1425.52 662.532,1425.62 663.575,1425.71 664.618,1425.81 665.662,1425.9 666.705,1425.99 667.748,1426.08 668.792,1426.17 669.835,1426.27 670.878,1426.36 671.922,1426.45 672.965,1426.53 674.009,1426.62 675.052,1426.71 676.095,1426.8 677.139,1426.89 678.182,1426.97 679.225,1427.06 680.269,1427.14 681.312,1427.23 682.355,1427.31 683.399,1427.39 684.442,1427.48 685.485,1427.56 686.529,1427.64 687.572,1427.72 688.615,1427.8 689.659,1427.89 690.702,1427.96 691.745,1428.04 692.789,1428.12 693.832,1428.2 694.876,1428.28 695.919,1428.36 696.962,1428.43 698.006,1428.51 699.049,1428.59 700.092,1428.66 701.136,1428.74 702.179,1428.81 703.222,1428.89 704.266,1428.96 705.309,1429.03 706.352,1429.1 707.396,1429.18 708.439,1429.25 709.482,1429.32 710.526,1429.39 711.569,1429.46 712.612,1429.53 713.656,1429.6 714.699,1429.67 715.742,1429.74 716.786,1429.81 717.829,1429.87 718.873,1429.94 719.916,1430.01 720.959,1430.08 722.003,1430.14 723.046,1430.21 724.089,1430.27 725.133,1430.34 726.176,1430.4 727.219,1430.47 728.263,1430.53 729.306,1430.59 730.349,1430.66 731.393,1430.72 732.436,1430.78 733.479,1430.84 734.523,1430.91 735.566,1430.97 736.609,1431.03 737.653,1431.09 738.696,1431.15 739.739,1431.21 740.783,1431.27 741.826,1431.33 742.87,1431.39 743.913,1431.44 744.956,1431.5 746,1431.56 747.043,1431.62 748.086,1431.67 749.13,1431.73 750.173,1431.79 751.216,1431.84 752.26,1431.9 753.303,1431.95 754.346,1432.01 755.39,1432.06 756.433,1432.12 757.476,1432.17 758.52,1432.23 759.563,1432.28 760.606,1432.33 761.65,1432.39 762.693,1432.44 763.736,1432.49 764.78,1432.54 765.823,1432.59 766.867,1432.65 767.91,1432.7 768.953,1432.75 769.997,1432.8 771.04,1432.85 772.083,1432.9 773.127,1432.95 774.17,1433 775.213,1433.05 776.257,1433.1 777.3,1433.14 778.343,1433.19 779.387,1433.24 780.43,1433.29 781.473,1433.34 782.517,1433.38 783.56,1433.43 784.603,1433.48 785.647,1433.52 786.69,1433.57 787.734,1433.61 788.777,1433.66 789.82,1433.71 790.864,1433.75 791.907,1433.8 792.95,1433.84 793.994,1433.88 795.037,1433.93 796.08,1433.97 797.124,1434.02 798.167,1434.06 799.21,1434.1 800.254,1434.15 801.297,1434.19 802.34,1434.23 803.384,1434.27 804.427,1434.32 805.47,1434.36 806.514,1434.4 807.557,1434.44 808.6,1434.48 809.644,1434.52 810.687,1434.56 811.731,1434.6 812.774,1434.65 813.817,1434.69 814.861,1434.73 815.904,1434.76 816.947,1434.8 817.991,1434.84 819.034,1434.88 820.077,1434.92 821.121,1434.96 822.164,1435 823.207,1435.04 824.251,1435.08 825.294,1435.11 826.337,1435.15 827.381,1435.19 828.424,1435.23 829.467,1435.26 830.511,1435.3 831.554,1435.34 832.597,1435.37 833.641,1435.41 834.684,1435.45 835.728,1435.48 836.771,1435.52 837.814,1435.55 838.858,1435.59 839.901,1435.62 840.944,1435.66 841.988,1435.69 843.031,1435.73 844.074,1435.76 845.118,1435.8 846.161,1435.83 847.204,1435.87 848.248,1435.9 849.291,1435.93 850.334,1435.97 851.378,1436 852.421,1436.03 853.464,1436.07 854.508,1436.1 855.551,1436.13 856.594,1436.16 857.638,1436.2 858.681,1436.23 859.725,1436.26 860.768,1436.29 861.811,1436.32 862.855,1436.36 863.898,1436.39 864.941,1436.42 865.985,1436.45 867.028,1436.48 868.071,1436.51 869.115,1436.54 870.158,1436.57 871.201,1436.6 872.245,1436.63 873.288,1436.66 874.331,1436.69 875.375,1436.72 876.418,1436.75 877.461,1436.78 878.505,1436.81 879.548,1436.84 880.591,1436.87 881.635,1436.9 882.678,1436.93 883.722,1436.96 884.765,1436.99 885.808,1437.02 886.852,1437.04 887.895,1437.07 888.938,1437.1 889.982,1437.13 891.025,1437.16 892.068,1437.18 893.112,1437.21 894.155,1437.24 895.198,1437.27 896.242,1437.29 897.285,1437.32 898.328,1437.35 899.372,1437.37 900.415,1437.4 901.458,1437.43 902.502,1437.45 903.545,1437.48 904.589,1437.51 905.632,1437.53 906.675,1437.56 907.719,1437.58 908.762,1437.61 909.805,1437.64 910.849,1437.66 911.892,1437.69 912.935,1437.71 913.979,1437.74 915.022,1437.76 916.065,1437.79 917.109,1437.81 918.152,1437.84 919.195,1437.86 920.239,1437.89 921.282,1437.91 922.325,1437.94 923.369,1437.96 924.412,1437.98 925.455,1438.01 926.499,1438.03 927.542,1438.06 928.586,1438.08 929.629,1438.1 930.672,1438.13 931.716,1438.15 932.759,1438.17 933.802,1438.2 934.846,1438.22 935.889,1438.24 936.932,1438.26 937.976,1438.29 939.019,1438.31 940.062,1438.33 941.106,1438.36 942.149,1438.38 943.192,1438.4 944.236,1438.42 945.279,1438.44 946.322,1438.47 947.366,1438.49 948.409,1438.51 949.452,1438.53 950.496,1438.55 951.539,1438.57 952.583,1438.6 953.626,1438.62 954.669,1438.64 955.713,1438.66 956.756,1438.68 957.799,1438.7 958.843,1438.72 959.886,1438.74 960.929,1438.76 961.973,1438.79 963.016,1438.81 964.059,1438.83 965.103,1438.85 966.146,1438.87 967.189,1438.89 968.233,1438.91 969.276,1438.93 970.319,1438.95 971.363,1438.97 972.406,1438.99 973.449,1439.01 974.493,1439.03 975.536,1439.05 976.58,1439.07 977.623,1439.09 978.666,1439.1 979.71,1439.12 980.753,1439.14 981.796,1439.16 982.84,1439.18 983.883,1439.2 984.926,1439.22 985.97,1439.24 987.013,1439.26 988.056,1439.28 989.1,1439.29 990.143,1439.31 991.186,1439.33 992.23,1439.35 993.273,1439.37 994.316,1439.39 995.36,1439.4 996.403,1439.42 997.447,1439.44 998.49,1439.46 999.533,1439.48 1000.58,1439.49 1001.62,1439.51 1002.66,1439.53 1003.71,1439.55 1004.75,1439.56 1005.79,1439.58 1006.84,1439.6 1007.88,1439.62 1008.92,1439.63 1009.97,1439.65 1011.01,1439.67 1012.05,1439.69 1013.1,1439.7 1014.14,1439.72 1015.18,1439.74 1016.23,1439.75 1017.27,1439.77 1018.31,1439.79 1019.36,1439.8 1020.4,1439.82 1021.44,1439.84 1022.49,1439.85 1023.53,1439.87 1024.57,1439.88 1025.62,1439.9 1026.66,1439.92 1027.7,1439.93 1028.75,1439.95 1029.79,1439.97 1030.83,1439.98 1031.88,1440 1032.92,1440.01 1033.96,1440.03 1035.01,1440.04 1036.05,1440.06 1037.09,1440.08 1038.14,1440.09 1039.18,1440.11 1040.22,1440.12 1041.27,1440.14 1042.31,1440.15 1043.35,1440.17 1044.4,1440.18 1045.44,1440.2 1046.48,1440.21 1047.53,1440.23 1048.57,1440.24 1049.61,1440.26 1050.66,1440.27 1051.7,1440.29 1052.74,1440.3 1053.79,1440.32 1054.83,1440.33 1055.87,1440.35 1056.92,1440.36 1057.96,1440.38 1059,1440.39 1060.05,1440.4 1061.09,1440.42 1062.13,1440.43 1063.18,1440.45 1064.22,1440.46 1065.26,1440.47 1066.31,1440.49 1067.35,1440.5 1068.39,1440.52 1069.44,1440.53 1070.48,1440.54 1071.52,1440.56 1072.57,1440.57 1073.61,1440.59 1074.65,1440.6 1075.7,1440.61 1076.74,1440.63 1077.78,1440.64 1078.83,1440.65 1079.87,1440.67 1080.91,1440.68 1081.96,1440.69 1083,1440.71 1084.04,1440.72 1085.09,1440.73 1086.13,1440.75 1087.17,1440.76 1088.22,1440.77 1089.26,1440.79 1090.3,1440.8 1091.35,1440.81 1092.39,1440.82 1093.43,1440.84 1094.48,1440.85 1095.52,1440.86 1096.56,1440.87 1097.61,1440.89 1098.65,1440.9 1099.69,1440.91 1100.74,1440.92 1101.78,1440.94 1102.82,1440.95 1103.87,1440.96 1104.91,1440.97 1105.95,1440.99 1107,1441 1108.04,1441.01 1109.08,1441.02 1110.13,1441.04 1111.17,1441.05 1112.21,1441.06 1113.26,1441.07 1114.3,1441.08 1115.34,1441.1 1116.39,1441.11 1117.43,1441.12 1118.47,1441.13 1119.52,1441.14 1120.56,1441.15 1121.6,1441.17 1122.65,1441.18 1123.69,1441.19 1124.73,1441.2 1125.78,1441.21 1126.82,1441.22 1127.87,1441.23 1128.91,1441.25 1129.95,1441.26 1131,1441.27 1132.04,1441.28 1133.08,1441.29 1134.13,1441.3 1135.17,1441.31 1136.21,1441.32 1137.26,1441.34 1138.3,1441.35 1139.34,1441.36 1140.39,1441.37 1141.43,1441.38 1142.47,1441.39 1143.52,1441.4 1144.56,1441.41 1145.6,1441.42 1146.65,1441.43 1147.69,1441.44 1148.73,1441.46 1149.78,1441.47 1150.82,1441.48 1151.86,1441.49 1152.91,1441.5 1153.95,1441.51 1154.99,1441.52 1156.04,1441.53 1157.08,1441.54 1158.12,1441.55 1159.17,1441.56 1160.21,1441.57 1161.25,1441.58 1162.3,1441.59 1163.34,1441.6 1164.38,1441.61 1165.43,1441.62 1166.47,1441.63 1167.51,1441.64 1168.56,1441.65 1169.6,1441.66 1170.64,1441.67 1171.69,1441.68 1172.73,1441.69 1173.77,1441.7 1174.82,1441.71 1175.86,1441.72 1176.9,1441.73 1177.95,1441.74 1178.99,1441.75 1180.03,1441.76 1181.08,1441.77 1182.12,1441.78 1183.16,1441.79 1184.21,1441.8 1185.25,1441.81 1186.29,1441.82 1187.34,1441.83 1188.38,1441.84 1189.42,1441.85 1190.47,1441.86 1191.51,1441.86 1192.55,1441.87 1193.6,1441.88 1194.64,1441.89 1195.68,1441.9 1196.73,1441.91 1197.77,1441.92 1198.81,1441.93 1199.86,1441.94 1200.9,1441.95 1201.94,1441.96 1202.99,1441.97 1204.03,1441.97 1205.07,1441.98 1206.12,1441.99 1207.16,1442 1208.2,1442.01 1209.25,1442.02 1210.29,1442.03 1211.33,1442.04 1212.38,1442.05 1213.42,1442.05 1214.46,1442.06 1215.51,1442.07 1216.55,1442.08 1217.59,1442.09 1218.64,1442.1 1219.68,1442.11 1220.72,1442.11 1221.77,1442.12 1222.81,1442.13 1223.85,1442.14 1224.9,1442.15 1225.94,1442.16 1226.98,1442.17 1228.03,1442.17 1229.07,1442.18 1230.11,1442.19 1231.16,1442.2 1232.2,1442.21 1233.24,1442.22 1234.29,1442.22 1235.33,1442.23 1236.37,1442.24 1237.42,1442.25 1238.46,1442.26 1239.5,1442.26 1240.55,1442.27 1241.59,1442.28 1242.63,1442.29 1243.68,1442.3 1244.72,1442.31 1245.76,1442.31 1246.81,1442.32 1247.85,1442.33 1248.89,1442.34 1249.94,1442.34 1250.98,1442.35 1252.02,1442.36 1253.07,1442.37 1254.11,1442.38 1255.15,1442.38 1256.2,1442.39 1257.24,1442.4 1258.28,1442.41 1259.33,1442.41 1260.37,1442.42 1261.41,1442.43 1262.46,1442.44 1263.5,1442.45 1264.54,1442.45 1265.59,1442.46 1266.63,1442.47 1267.67,1442.48 1268.72,1442.48 1269.76,1442.49 1270.8,1442.5 1271.85,1442.51 1272.89,1442.51 1273.93,1442.52 1274.98,1442.53 1276.02,1442.53 1277.06,1442.54 1278.11,1442.55 1279.15,1442.56 1280.19,1442.56 1281.24,1442.57 1282.28,1442.58 1283.32,1442.59 1284.37,1442.59 1285.41,1442.6 1286.45,1442.61 1287.5,1442.61 1288.54,1442.62 1289.58,1442.63 1290.63,1442.63 1291.67,1442.64 1292.71,1442.65 1293.76,1442.66 1294.8,1442.66 1295.84,1442.67 1296.89,1442.68 1297.93,1442.68 1298.97,1442.69 1300.02,1442.7 1301.06,1442.7 1302.1,1442.71 1303.15,1442.72 1304.19,1442.72 1305.23,1442.73 1306.28,1442.74 1307.32,1442.75 1308.36,1442.75 1309.41,1442.76 1310.45,1442.77 1311.49,1442.77 1312.54,1442.78 1313.58,1442.79 1314.62,1442.79 1315.67,1442.8 1316.71,1442.8 1317.75,1442.81 1318.8,1442.82 1319.84,1442.82 1320.88,1442.83 1321.93,1442.84 1322.97,1442.84 1324.01,1442.85 1325.06,1442.86 1326.1,1442.86 1327.14,1442.87 1328.19,1442.88 1329.23,1442.88 1330.27,1442.89 1331.32,1442.9 1332.36,1442.9 1333.4,1442.91 1334.45,1442.91 1335.49,1442.92 1336.53,1442.93 1337.58,1442.93 1338.62,1442.94 1339.66,1442.95 1340.71,1442.95 1341.75,1442.96 1342.79,1442.96 1343.84,1442.97 1344.88,1442.98 1345.92,1442.98 1346.97,1442.99 1348.01,1442.99 1349.05,1443 1350.1,1443.01 1351.14,1443.01 1352.18,1443.02 1353.23,1443.02 1354.27,1443.03 1355.31,1443.04 1356.36,1443.04 1357.4,1443.05 1358.45,1443.05 1359.49,1443.06 1360.53,1443.07 1361.58,1443.07 1362.62,1443.08 1363.66,1443.08 1364.71,1443.09 1365.75,1443.09 1366.79,1443.1 1367.84,1443.11 1368.88,1443.11 1369.92,1443.12 1370.97,1443.12 1372.01,1443.13 1373.05,1443.14 1374.1,1443.14 1375.14,1443.15 1376.18,1443.15 1377.23,1443.16 1378.27,1443.16 1379.31,1443.17 1380.36,1443.17 1381.4,1443.18 1382.44,1443.19 1383.49,1443.19 1384.53,1443.2 1385.57,1443.2 1386.62,1443.21 1387.66,1443.21 1388.7,1443.22 1389.75,1443.22 1390.79,1443.23 1391.83,1443.24 1392.88,1443.24 1393.92,1443.25 1394.96,1443.25 1396.01,1443.26 1397.05,1443.26 1398.09,1443.27 1399.14,1443.27 1400.18,1443.28 1401.22,1443.28 1402.27,1443.29 1403.31,1443.29 1404.35,1443.3 1405.4,1443.31 1406.44,1443.31 1407.48,1443.32 1408.53,1443.32 1409.57,1443.33 1410.61,1443.33 1411.66,1443.34 1412.7,1443.34 1413.74,1443.35 1414.79,1443.35 1415.83,1443.36 1416.87,1443.36 1417.92,1443.37 1418.96,1443.37 1420,1443.38 1421.05,1443.38 1422.09,1443.39 1423.13,1443.39 1424.18,1443.4 1425.22,1443.4 1426.26,1443.41 1427.31,1443.41 1428.35,1443.42 1429.39,1443.42 1430.44,1443.43 1431.48,1443.43 1432.52,1443.44 1433.57,1443.44 1434.61,1443.45 1435.65,1443.45 1436.7,1443.46 1437.74,1443.46 1438.78,1443.47 1439.83,1443.47 1440.87,1443.48 1441.91,1443.48 1442.96,1443.49 1444,1443.49 1445.04,1443.5 1446.09,1443.5 1447.13,1443.51 1448.17,1443.51 1449.22,1443.52 1450.26,1443.52 1451.3,1443.53 1452.35,1443.53 1453.39,1443.54 1454.43,1443.54 1455.48,1443.55 1456.52,1443.55 1457.56,1443.55 1458.61,1443.56 1459.65,1443.56 1460.69,1443.57 1461.74,1443.57 1462.78,1443.58 1463.82,1443.58 1464.87,1443.59 1465.91,1443.59 1466.95,1443.6 1468,1443.6 1469.04,1443.61 1470.08,1443.61 1471.13,1443.61 1472.17,1443.62 1473.21,1443.62 1474.26,1443.63 1475.3,1443.63 1476.34,1443.64 1477.39,1443.64 1478.43,1443.65 1479.47,1443.65 1480.52,1443.66 1481.56,1443.66 1482.6,1443.66 1483.65,1443.67 1484.69,1443.67 1485.73,1443.68 1486.78,1443.68 1487.82,1443.69 1488.86,1443.69 1489.91,1443.7 1490.95,1443.7 1491.99,1443.7 1493.04,1443.71 1494.08,1443.71 1495.12,1443.72 1496.17,1443.72 1497.21,1443.73 1498.25,1443.73 1499.3,1443.73 1500.34,1443.74 1501.38,1443.74 1502.43,1443.75 1503.47,1443.75 1504.51,1443.76 1505.56,1443.76 1506.6,1443.76 1507.64,1443.77 1508.69,1443.77 1509.73,1443.78 1510.77,1443.78 1511.82,1443.79 1512.86,1443.79 1513.9,1443.79 1514.95,1443.8 1515.99,1443.8 1517.03,1443.81 1518.08,1443.81 1519.12,1443.82 1520.16,1443.82 1521.21,1443.82 1522.25,1443.83 1523.29,1443.83 1524.34,1443.84 1525.38,1443.84 1526.42,1443.84 1527.47,1443.85 1528.51,1443.85 1529.55,1443.86 1530.6,1443.86 1531.64,1443.86 1532.68,1443.87 1533.73,1443.87 1534.77,1443.88 1535.81,1443.88 1536.86,1443.88 1537.9,1443.89 1538.94,1443.89 1539.99,1443.9 1541.03,1443.9 1542.07,1443.9 1543.12,1443.91 1544.16,1443.91 1545.2,1443.92 1546.25,1443.92 1547.29,1443.92 1548.33,1443.93 1549.38,1443.93 1550.42,1443.94 1551.46,1443.94 1552.51,1443.94 1553.55,1443.95 1554.59,1443.95 1555.64,1443.96 1556.68,1443.96 1557.72,1443.96 1558.77,1443.97 1559.81,1443.97 1560.85,1443.98 1561.9,1443.98 1562.94,1443.98 1563.98,1443.99 1565.03,1443.99 1566.07,1443.99 1567.11,1444 1568.16,1444 1569.2,1444.01 1570.24,1444.01 1571.29,1444.01 1572.33,1444.02 1573.37,1444.02 1574.42,1444.02 1575.46,1444.03 1576.5,1444.03 1577.55,1444.04 1578.59,1444.04 1579.63,1444.04 1580.68,1444.05 1581.72,1444.05 1582.76,1444.05 1583.81,1444.06 1584.85,1444.06 1585.89,1444.07 1586.94,1444.07 1587.98,1444.07 1589.02,1444.08 1590.07,1444.08 1591.11,1444.08 1592.16,1444.09 1593.2,1444.09 1594.24,1444.09 1595.29,1444.1 1596.33,1444.1 1597.37,1444.11 1598.42,1444.11 1599.46,1444.11 1600.5,1444.12 1601.55,1444.12 1602.59,1444.12 1603.63,1444.13 1604.68,1444.13 1605.72,1444.13 1606.76,1444.14 1607.81,1444.14 1608.85,1444.15 1609.89,1444.15 1610.94,1444.15 1611.98,1444.16 1613.02,1444.16 1614.07,1444.16 1615.11,1444.17 1616.15,1444.17 1617.2,1444.17 1618.24,1444.18 1619.28,1444.18 1620.33,1444.18 1621.37,1444.19 1622.41,1444.19 1623.46,1444.19 1624.5,1444.2 1625.54,1444.2 1626.59,1444.2 1627.63,1444.21 1628.67,1444.21 1629.72,1444.21 1630.76,1444.22 1631.8,1444.22 1632.85,1444.22 1633.89,1444.23 1634.93,1444.23 1635.98,1444.24 1637.02,1444.24 1638.06,1444.24 1639.11,1444.25 1640.15,1444.25 1641.19,1444.25 1642.24,1444.26 1643.28,1444.26 1644.32,1444.26 1645.37,1444.27 1646.41,1444.27 1647.45,1444.27 1648.5,1444.28 1649.54,1444.28 1650.58,1444.28 1651.63,1444.29 1652.67,1444.29 1653.71,1444.29 1654.76,1444.3 1655.8,1444.3 1656.84,1444.3 1657.89,1444.31 1658.93,1444.31 1659.97,1444.31 1661.02,1444.31 1662.06,1444.32 1663.1,1444.32 1664.15,1444.32 1665.19,1444.33 1666.23,1444.33 1667.28,1444.33 1668.32,1444.34 1669.36,1444.34 1670.41,1444.34 1671.45,1444.35 1672.49,1444.35 1673.54,1444.35 1674.58,1444.36 1675.62,1444.36 1676.67,1444.36 1677.71,1444.37 1678.75,1444.37 1679.8,1444.37 1680.84,1444.38 1681.88,1444.38 1682.93,1444.38 1683.97,1444.39 1685.01,1444.39 1686.06,1444.39 1687.1,1444.4 1688.14,1444.4 1689.19,1444.4 1690.23,1444.4 1691.27,1444.41 1692.32,1444.41 1693.36,1444.41 1694.4,1444.42 1695.45,1444.42 1696.49,1444.42 1697.53,1444.43 1698.58,1444.43 1699.62,1444.43 1700.66,1444.44 1701.71,1444.44 1702.75,1444.44 1703.79,1444.44 1704.84,1444.45 1705.88,1444.45 1706.92,1444.45 1707.97,1444.46 1709.01,1444.46 1710.05,1444.46 1711.1,1444.47 1712.14,1444.47 1713.18,1444.47 1714.23,1444.48 1715.27,1444.48 1716.31,1444.48 1717.36,1444.48 1718.4,1444.49 1719.44,1444.49 1720.49,1444.49 1721.53,1444.5 1722.57,1444.5 1723.62,1444.5 1724.66,1444.51 1725.7,1444.51 1726.75,1444.51 1727.79,1444.51 1728.83,1444.52 1729.88,1444.52 1730.92,1444.52 1731.96,1444.53 1733.01,1444.53 1734.05,1444.53 1735.09,1444.53 1736.14,1444.54 1737.18,1444.54 1738.22,1444.54 1739.27,1444.55 1740.31,1444.55 1741.35,1444.55 1742.4,1444.56 1743.44,1444.56 1744.48,1444.56 1745.53,1444.56 1746.57,1444.57 1747.61,1444.57 1748.66,1444.57 1749.7,1444.58 1750.74,1444.58 1751.79,1444.58 1752.83,1444.58 1753.87,1444.59 1754.92,1444.59 1755.96,1444.59 1757,1444.6 1758.05,1444.6 1759.09,1444.6 1760.13,1444.6 1761.18,1444.61 1762.22,1444.61 1763.26,1444.61 1764.31,1444.62 1765.35,1444.62 1766.39,1444.62 1767.44,1444.62 1768.48,1444.63 1769.52,1444.63 1770.57,1444.63 1771.61,1444.64 1772.65,1444.64 1773.7,1444.64 1774.74,1444.64 1775.78,1444.65 1776.83,1444.65 1777.87,1444.65 1778.91,1444.65 1779.96,1444.66 1781,1444.66 1782.04,1444.66 1783.09,1444.67 1784.13,1444.67 1785.17,1444.67 1786.22,1444.67 1787.26,1444.68 1788.3,1444.68 1789.35,1444.68 1790.39,1444.69 1791.43,1444.69 1792.48,1444.69 1793.52,1444.69 1794.56,1444.7 1795.61,1444.7 1796.65,1444.7 1797.69,1444.7 1798.74,1444.71 1799.78,1444.71 1800.82,1444.71 1801.87,1444.72 1802.91,1444.72 1803.95,1444.72 1805,1444.72 1806.04,1444.73 1807.08,1444.73 1808.13,1444.73 1809.17,1444.73 1810.21,1444.74 1811.26,1444.74 1812.3,1444.74 1813.34,1444.74 1814.39,1444.75 1815.43,1444.75 1816.47,1444.75 1817.52,1444.76 1818.56,1444.76 1819.6,1444.76 1820.65,1444.76 1821.69,1444.77 1822.73,1444.77 1823.78,1444.77 1824.82,1444.77 1825.87,1444.78 1826.91,1444.78 1827.95,1444.78 1829,1444.78 1830.04,1444.79 1831.08,1444.79 1832.13,1444.79 1833.17,1444.79 1834.21,1444.8 1835.26,1444.8 1836.3,1444.8 1837.34,1444.81 1838.39,1444.81 1839.43,1444.81 1840.47,1444.81 1841.52,1444.82 1842.56,1444.82 1843.6,1444.82 1844.65,1444.82 1845.69,1444.83 1846.73,1444.83 1847.78,1444.83 1848.82,1444.83 1849.86,1444.84 1850.91,1444.84 1851.95,1444.84 1852.99,1444.84 1854.04,1444.85 1855.08,1444.85 1856.12,1444.85 1857.17,1444.85 1858.21,1444.86 1859.25,1444.86 1860.3,1444.86 1861.34,1444.86 1862.38,1444.87 1863.43,1444.87 1864.47,1444.87 1865.51,1444.87 1866.56,1444.88 1867.6,1444.88 1868.64,1444.88 1869.69,1444.88 1870.73,1444.89 1871.77,1444.89 1872.82,1444.89 1873.86,1444.89 1874.9,1444.9 1875.95,1444.9 1876.99,1444.9 1878.03,1444.9 1879.08,1444.91 1880.12,1444.91 1881.16,1444.91 1882.21,1444.91 1883.25,1444.92 1884.29,1444.92 1885.34,1444.92 1886.38,1444.92 1887.42,1444.93 1888.47,1444.93 1889.51,1444.93 1890.55,1444.93 1891.6,1444.94 1892.64,1444.94 1893.68,1444.94 1894.73,1444.94 1895.77,1444.95 1896.81,1444.95 1897.86,1444.95 1898.9,1444.95 1899.94,1444.96 1900.99,1444.96 1902.03,1444.96 1903.07,1444.96 1904.12,1444.97 1905.16,1444.97 1906.2,1444.97 1907.25,1444.97 1908.29,1444.97 1909.33,1444.98 1910.38,1444.98 1911.42,1444.98 1912.46,1444.98 1913.51,1444.99 1914.55,1444.99 1915.59,1444.99 1916.64,1444.99 1917.68,1445 1918.72,1445 1919.77,1445 1920.81,1445 1921.85,1445.01 1922.9,1445.01 1923.94,1445.01 1924.98,1445.01 1926.03,1445.02 1927.07,1445.02 1928.11,1445.02 1929.16,1445.02 1930.2,1445.02 1931.24,1445.03 1932.29,1445.03 1933.33,1445.03 1934.37,1445.03 1935.42,1445.04 1936.46,1445.04 1937.5,1445.04 1938.55,1445.04 1939.59,1445.05 1940.63,1445.05 1941.68,1445.05 1942.72,1445.05 1943.76,1445.06 1944.81,1445.06 1945.85,1445.06 1946.89,1445.06 1947.94,1445.06 1948.98,1445.07 1950.02,1445.07 1951.07,1445.07 1952.11,1445.07 1953.15,1445.08 1954.2,1445.08 1955.24,1445.08 1956.28,1445.08 1957.33,1445.09 1958.37,1445.09 1959.41,1445.09 1960.46,1445.09 1961.5,1445.09 1962.54,1445.1 1963.59,1445.1 1964.63,1445.1 1965.67,1445.1 1966.72,1445.11 1967.76,1445.11 1968.8,1445.11 1969.85,1445.11 1970.89,1445.11 1971.93,1445.12 1972.98,1445.12 1974.02,1445.12 1975.06,1445.12 1976.11,1445.13 1977.15,1445.13 1978.19,1445.13 1979.24,1445.13 1980.28,1445.14 1981.32,1445.14 1982.37,1445.14 1983.41,1445.14 1984.45,1445.14 1985.5,1445.15 1986.54,1445.15 1987.58,1445.15 1988.63,1445.15 1989.67,1445.16 1990.71,1445.16 1991.76,1445.16 1992.8,1445.16 1993.84,1445.16 1994.89,1445.17 1995.93,1445.17 1996.97,1445.17 1998.02,1445.17 1999.06,1445.17 2000.1,1445.18 2001.15,1445.18 2002.19,1445.18 2003.23,1445.18 2004.28,1445.19 2005.32,1445.19 2006.36,1445.19 2007.41,1445.19 2008.45,1445.19 2009.49,1445.2 2010.54,1445.2 2011.58,1445.2 2012.62,1445.2 2013.67,1445.21 2014.71,1445.21 2015.75,1445.21 2016.8,1445.21 2017.84,1445.21 2018.88,1445.22 2019.93,1445.22 2020.97,1445.22 2022.01,1445.22 2023.06,1445.22 2024.1,1445.23 2025.14,1445.23 2026.19,1445.23 2027.23,1445.23 2028.27,1445.24 2029.32,1445.24 2030.36,1445.24 2031.4,1445.24 2032.45,1445.24 2033.49,1445.25 2034.53,1445.25 2035.58,1445.25 2036.62,1445.25 2037.66,1445.25 2038.71,1445.26 2039.75,1445.26 2040.79,1445.26 2041.84,1445.26 2042.88,1445.27 2043.92,1445.27 2044.97,1445.27 2046.01,1445.27 2047.05,1445.27 2048.1,1445.28 2049.14,1445.28 2050.18,1445.28 2051.23,1445.28 2052.27,1445.28 2053.31,1445.29 2054.36,1445.29 2055.4,1445.29 2056.44,1445.29 2057.49,1445.29 2058.53,1445.3 2059.58,1445.3 2060.62,1445.3 2061.66,1445.3 2062.71,1445.31 2063.75,1445.31 2064.79,1445.31 2065.84,1445.31 2066.88,1445.31 2067.92,1445.32 2068.97,1445.32 2070.01,1445.32 2071.05,1445.32 2072.1,1445.32 2073.14,1445.33 2074.18,1445.33 2075.23,1445.33 2076.27,1445.33 2077.31,1445.33 2078.36,1445.34 2079.4,1445.34 2080.44,1445.34 2081.49,1445.34 2082.53,1445.34 2083.57,1445.35 2084.62,1445.35 2085.66,1445.35 2086.7,1445.35 2087.75,1445.35 2088.79,1445.36 2089.83,1445.36 2090.88,1445.36 2091.92,1445.36 2092.96,1445.36 2094.01,1445.37 2095.05,1445.37 2096.09,1445.37 2097.14,1445.37 2098.18,1445.37 2099.22,1445.38 2100.27,1445.38 2101.31,1445.38 2102.35,1445.38 2103.4,1445.38 2104.44,1445.39 2105.48,1445.39 2106.53,1445.39 2107.57,1445.39 2108.61,1445.39 2109.66,1445.4 2110.7,1445.4 2111.74,1445.4 2112.79,1445.4 2113.83,1445.4 2114.87,1445.41 2115.92,1445.41 2116.96,1445.41 2118,1445.41 2119.05,1445.41 2120.09,1445.42 2121.13,1445.42 2122.18,1445.42 2123.22,1445.42 2124.26,1445.42 2125.31,1445.43 2126.35,1445.43 2127.39,1445.43 2128.44,1445.43 2129.48,1445.43 2130.52,1445.44 2131.57,1445.44 2132.61,1445.44 2133.65,1445.44 2134.7,1445.44 2135.74,1445.45 2136.78,1445.45 2137.83,1445.45 2138.87,1445.45 2139.91,1445.45 2140.96,1445.46 2142,1445.46 2143.04,1445.46 2144.09,1445.46 2145.13,1445.46 2146.17,1445.47 2147.22,1445.47 2148.26,1445.47 2149.3,1445.47 2150.35,1445.47 2151.39,1445.47 2152.43,1445.48 2153.48,1445.48 2154.52,1445.48 2155.56,1445.48 2156.61,1445.48 2157.65,1445.49 2158.69,1445.49 2159.74,1445.49 2160.78,1445.49 2161.82,1445.49 2162.87,1445.5 2163.91,1445.5 2164.95,1445.5 2166,1445.5 2167.04,1445.5 2168.08,1445.51 2169.13,1445.51 2170.17,1445.51 2171.21,1445.51 2172.26,1445.51 2173.3,1445.51 2174.34,1445.52 2175.39,1445.52 2176.43,1445.52 2177.47,1445.52 2178.52,1445.52 2179.56,1445.53 2180.6,1445.53 2181.65,1445.53 2182.69,1445.53 2183.73,1445.53 2184.78,1445.54 2185.82,1445.54 2186.86,1445.54 2187.91,1445.54 2188.95,1445.54 2189.99,1445.54 2191.04,1445.55 2192.08,1445.55 2193.12,1445.55 2194.17,1445.55 2195.21,1445.55 2196.25,1445.56 2197.3,1445.56 2198.34,1445.56 2199.38,1445.56 2200.43,1445.56 2201.47,1445.57 2202.51,1445.57 2203.56,1445.57 2204.6,1445.57 2205.64,1445.57 2206.69,1445.57 2207.73,1445.58 2208.77,1445.58 2209.82,1445.58 2210.86,1445.58 2211.9,1445.58 2212.95,1445.59 2213.99,1445.59 2215.03,1445.59 2216.08,1445.59 2217.12,1445.59 2218.16,1445.59 2219.21,1445.6 2220.25,1445.6 2221.29,1445.6 2222.34,1445.6 2223.38,1445.6 2224.42,1445.61 2225.47,1445.61 2226.51,1445.61 2227.55,1445.61 2228.6,1445.61 2229.64,1445.61 2230.68,1445.62 2231.73,1445.62 2232.77,1445.62 2233.81,1445.62 2234.86,1445.62 2235.9,1445.62 2236.94,1445.63 2237.99,1445.63 2239.03,1445.63 2240.07,1445.63 2241.12,1445.63 2242.16,1445.64 2243.2,1445.64 2244.25,1445.64 2245.29,1445.64 2246.33,1445.64 2247.38,1445.64 2248.42,1445.65 2249.46,1445.65 2250.51,1445.65 2251.55,1445.65 2252.59,1445.65 2253.64,1445.66 2254.68,1445.66 2255.72,1445.66 2256.77,1445.66 2257.81,1445.66 2258.85,1445.66 2259.9,1445.67 2260.94,1445.67 2261.98,1445.67 2263.03,1445.67 2264.07,1445.67 2265.11,1445.67 2266.16,1445.68 2267.2,1445.68 2268.24,1445.68 2269.29,1445.68 2270.33,1445.68 2271.37,1445.68 2272.42,1445.69 2273.46,1445.69 2274.5,1445.69 2275.55,1445.69 2276.59,1445.69 2277.63,1445.7 2278.68,1445.7 2279.72,1445.7 2280.76,1445.7 2281.81,1445.7 2282.85,1445.7 2283.89,1445.71 2284.94,1445.71 2285.98,1445.71 2287.02,1445.71 2288.07,1445.71 2289.11,1445.71 2290.16,1445.72 "/>
<path clip-path="url(#clip190)" d="M2005.41 198.898 L2279.03 198.898 L2279.03 95.2176 L2005.41 95.2176  Z" fill="#ffffff" fill-rule="evenodd" fill-opacity="1"/>
<polyline clip-path="url(#clip190)" style="stroke:#000000; stroke-linecap:round; stroke-linejoin:round; stroke-width:4; stroke-opacity:1; fill:none" points="2005.41,198.898 2279.03,198.898 2279.03,95.2176 2005.41,95.2176 2005.41,198.898 "/>
<polyline clip-path="url(#clip190)" style="stroke:#009af9; stroke-linecap:round; stroke-linejoin:round; stroke-width:4; stroke-opacity:1; fill:none" points="2029.98,147.058 2177.44,147.058 "/>
<path clip-path="url(#clip190)" d="M2215.86 166.745 Q2214.06 171.375 2212.34 172.787 Q2210.63 174.199 2207.76 174.199 L2204.36 174.199 L2204.36 170.634 L2206.86 170.634 Q2208.62 170.634 2209.59 169.8 Q2210.56 168.967 2211.74 165.865 L2212.51 163.921 L2202.02 138.412 L2206.53 138.412 L2214.63 158.689 L2222.74 138.412 L2227.25 138.412 L2215.86 166.745 Z" fill="#000000" fill-rule="nonzero" fill-opacity="1" /><path clip-path="url(#clip190)" d="M2234.54 160.402 L2242.18 160.402 L2242.18 134.037 L2233.87 135.703 L2233.87 131.444 L2242.13 129.778 L2246.81 129.778 L2246.81 160.402 L2254.45 160.402 L2254.45 164.338 L2234.54 164.338 L2234.54 160.402 Z" fill="#000000" fill-rule="nonzero" fill-opacity="1" /></svg>
