<?xml version="1.0" encoding="utf-8"?>
<svg xmlns="http://www.w3.org/2000/svg" xmlns:xlink="http://www.w3.org/1999/xlink" width="600" height="400" viewBox="0 0 2400 1600">
<defs>
  <clipPath id="clip390">
    <rect x="0" y="0" width="2400" height="1600"/>
  </clipPath>
</defs>
<path clip-path="url(#clip390)" d="M0 1600 L2400 1600 L2400 0 L0 0  Z" fill="#ffffff" fill-rule="evenodd" fill-opacity="1"/>
<defs>
  <clipPath id="clip391">
    <rect x="480" y="0" width="1681" height="1600"/>
  </clipPath>
</defs>
<path clip-path="url(#clip390)" d="M209.515 1486.45 L2352.76 1486.45 L2352.76 47.2441 L209.515 47.2441  Z" fill="#ffffff" fill-rule="evenodd" fill-opacity="1"/>
<defs>
  <clipPath id="clip392">
    <rect x="209" y="47" width="2144" height="1440"/>
  </clipPath>
</defs>
<polyline clip-path="url(#clip392)" style="stroke:#000000; stroke-linecap:round; stroke-linejoin:round; stroke-width:2; stroke-opacity:0.1; fill:none" points="270.172,1486.45 270.172,47.2441 "/>
<polyline clip-path="url(#clip392)" style="stroke:#000000; stroke-linecap:round; stroke-linejoin:round; stroke-width:2; stroke-opacity:0.1; fill:none" points="775.654,1486.45 775.654,47.2441 "/>
<polyline clip-path="url(#clip392)" style="stroke:#000000; stroke-linecap:round; stroke-linejoin:round; stroke-width:2; stroke-opacity:0.1; fill:none" points="1281.14,1486.45 1281.14,47.2441 "/>
<polyline clip-path="url(#clip392)" style="stroke:#000000; stroke-linecap:round; stroke-linejoin:round; stroke-width:2; stroke-opacity:0.1; fill:none" points="1786.62,1486.45 1786.62,47.2441 "/>
<polyline clip-path="url(#clip392)" style="stroke:#000000; stroke-linecap:round; stroke-linejoin:round; stroke-width:2; stroke-opacity:0.1; fill:none" points="2292.1,1486.45 2292.1,47.2441 "/>
<polyline clip-path="url(#clip390)" style="stroke:#000000; stroke-linecap:round; stroke-linejoin:round; stroke-width:4; stroke-opacity:1; fill:none" points="209.515,1486.45 2352.76,1486.45 "/>
<polyline clip-path="url(#clip390)" style="stroke:#000000; stroke-linecap:round; stroke-linejoin:round; stroke-width:4; stroke-opacity:1; fill:none" points="270.172,1486.45 270.172,1467.55 "/>
<polyline clip-path="url(#clip390)" style="stroke:#000000; stroke-linecap:round; stroke-linejoin:round; stroke-width:4; stroke-opacity:1; fill:none" points="775.654,1486.45 775.654,1467.55 "/>
<polyline clip-path="url(#clip390)" style="stroke:#000000; stroke-linecap:round; stroke-linejoin:round; stroke-width:4; stroke-opacity:1; fill:none" points="1281.14,1486.45 1281.14,1467.55 "/>
<polyline clip-path="url(#clip390)" style="stroke:#000000; stroke-linecap:round; stroke-linejoin:round; stroke-width:4; stroke-opacity:1; fill:none" points="1786.62,1486.45 1786.62,1467.55 "/>
<polyline clip-path="url(#clip390)" style="stroke:#000000; stroke-linecap:round; stroke-linejoin:round; stroke-width:4; stroke-opacity:1; fill:none" points="2292.1,1486.45 2292.1,1467.55 "/>
<path clip-path="url(#clip390)" d="M270.172 1517.37 Q266.561 1517.37 264.733 1520.93 Q262.927 1524.47 262.927 1531.6 Q262.927 1538.71 264.733 1542.27 Q266.561 1545.82 270.172 1545.82 Q273.807 1545.82 275.612 1542.27 Q277.441 1538.71 277.441 1531.6 Q277.441 1524.47 275.612 1520.93 Q273.807 1517.37 270.172 1517.37 M270.172 1513.66 Q275.983 1513.66 279.038 1518.27 Q282.117 1522.85 282.117 1531.6 Q282.117 1540.33 279.038 1544.94 Q275.983 1549.52 270.172 1549.52 Q264.362 1549.52 261.284 1544.94 Q258.228 1540.33 258.228 1531.6 Q258.228 1522.85 261.284 1518.27 Q264.362 1513.66 270.172 1513.66 Z" fill="#000000" fill-rule="nonzero" fill-opacity="1" /><path clip-path="url(#clip390)" d="M735.272 1514.29 L753.628 1514.29 L753.628 1518.22 L739.554 1518.22 L739.554 1526.7 Q740.573 1526.35 741.592 1526.19 Q742.61 1526 743.629 1526 Q749.416 1526 752.795 1529.17 Q756.175 1532.34 756.175 1537.76 Q756.175 1543.34 752.703 1546.44 Q749.23 1549.52 742.911 1549.52 Q740.735 1549.52 738.467 1549.15 Q736.221 1548.78 733.814 1548.04 L733.814 1543.34 Q735.897 1544.47 738.119 1545.03 Q740.342 1545.58 742.818 1545.58 Q746.823 1545.58 749.161 1543.48 Q751.499 1541.37 751.499 1537.76 Q751.499 1534.15 749.161 1532.04 Q746.823 1529.94 742.818 1529.94 Q740.943 1529.94 739.068 1530.35 Q737.217 1530.77 735.272 1531.65 L735.272 1514.29 Z" fill="#000000" fill-rule="nonzero" fill-opacity="1" /><path clip-path="url(#clip390)" d="M775.388 1517.37 Q771.777 1517.37 769.948 1520.93 Q768.142 1524.47 768.142 1531.6 Q768.142 1538.71 769.948 1542.27 Q771.777 1545.82 775.388 1545.82 Q779.022 1545.82 780.827 1542.27 Q782.656 1538.71 782.656 1531.6 Q782.656 1524.47 780.827 1520.93 Q779.022 1517.37 775.388 1517.37 M775.388 1513.66 Q781.198 1513.66 784.253 1518.27 Q787.332 1522.85 787.332 1531.6 Q787.332 1540.33 784.253 1544.94 Q781.198 1549.52 775.388 1549.52 Q769.577 1549.52 766.499 1544.94 Q763.443 1540.33 763.443 1531.6 Q763.443 1522.85 766.499 1518.27 Q769.577 1513.66 775.388 1513.66 Z" fill="#000000" fill-rule="nonzero" fill-opacity="1" /><path clip-path="url(#clip390)" d="M805.549 1517.37 Q801.938 1517.37 800.11 1520.93 Q798.304 1524.47 798.304 1531.6 Q798.304 1538.71 800.11 1542.27 Q801.938 1545.82 805.549 1545.82 Q809.184 1545.82 810.989 1542.27 Q812.818 1538.71 812.818 1531.6 Q812.818 1524.47 810.989 1520.93 Q809.184 1517.37 805.549 1517.37 M805.549 1513.66 Q811.36 1513.66 814.415 1518.27 Q817.494 1522.85 817.494 1531.6 Q817.494 1540.33 814.415 1544.94 Q811.36 1549.52 805.549 1549.52 Q799.739 1549.52 796.661 1544.94 Q793.605 1540.33 793.605 1531.6 Q793.605 1522.85 796.661 1518.27 Q799.739 1513.66 805.549 1513.66 Z" fill="#000000" fill-rule="nonzero" fill-opacity="1" /><path clip-path="url(#clip390)" d="M1225.66 1544.91 L1233.3 1544.91 L1233.3 1518.55 L1224.99 1520.21 L1224.99 1515.95 L1233.25 1514.29 L1237.93 1514.29 L1237.93 1544.91 L1245.57 1544.91 L1245.57 1548.85 L1225.66 1548.85 L1225.66 1544.91 Z" fill="#000000" fill-rule="nonzero" fill-opacity="1" /><path clip-path="url(#clip390)" d="M1265.01 1517.37 Q1261.4 1517.37 1259.57 1520.93 Q1257.77 1524.47 1257.77 1531.6 Q1257.77 1538.71 1259.57 1542.27 Q1261.4 1545.82 1265.01 1545.82 Q1268.65 1545.82 1270.45 1542.27 Q1272.28 1538.71 1272.28 1531.6 Q1272.28 1524.47 1270.45 1520.93 Q1268.65 1517.37 1265.01 1517.37 M1265.01 1513.66 Q1270.82 1513.66 1273.88 1518.27 Q1276.96 1522.85 1276.96 1531.6 Q1276.96 1540.33 1273.88 1544.94 Q1270.82 1549.52 1265.01 1549.52 Q1259.2 1549.52 1256.12 1544.94 Q1253.07 1540.33 1253.07 1531.6 Q1253.07 1522.85 1256.12 1518.27 Q1259.2 1513.66 1265.01 1513.66 Z" fill="#000000" fill-rule="nonzero" fill-opacity="1" /><path clip-path="url(#clip390)" d="M1295.17 1517.37 Q1291.56 1517.37 1289.73 1520.93 Q1287.93 1524.47 1287.93 1531.6 Q1287.93 1538.71 1289.73 1542.27 Q1291.56 1545.82 1295.17 1545.82 Q1298.81 1545.82 1300.61 1542.27 Q1302.44 1538.71 1302.44 1531.6 Q1302.44 1524.47 1300.61 1520.93 Q1298.81 1517.37 1295.17 1517.37 M1295.17 1513.66 Q1300.98 1513.66 1304.04 1518.27 Q1307.12 1522.85 1307.12 1531.6 Q1307.12 1540.33 1304.04 1544.94 Q1300.98 1549.52 1295.17 1549.52 Q1289.36 1549.52 1286.29 1544.94 Q1283.23 1540.33 1283.23 1531.6 Q1283.23 1522.85 1286.29 1518.27 Q1289.36 1513.66 1295.17 1513.66 Z" fill="#000000" fill-rule="nonzero" fill-opacity="1" /><path clip-path="url(#clip390)" d="M1325.34 1517.37 Q1321.73 1517.37 1319.9 1520.93 Q1318.09 1524.47 1318.09 1531.6 Q1318.09 1538.71 1319.9 1542.27 Q1321.73 1545.82 1325.34 1545.82 Q1328.97 1545.82 1330.78 1542.27 Q1332.6 1538.71 1332.6 1531.6 Q1332.6 1524.47 1330.78 1520.93 Q1328.97 1517.37 1325.34 1517.37 M1325.34 1513.66 Q1331.15 1513.66 1334.2 1518.27 Q1337.28 1522.85 1337.28 1531.6 Q1337.28 1540.33 1334.2 1544.94 Q1331.15 1549.52 1325.34 1549.52 Q1319.53 1549.52 1316.45 1544.94 Q1313.39 1540.33 1313.39 1531.6 Q1313.39 1522.85 1316.45 1518.27 Q1319.53 1513.66 1325.34 1513.66 Z" fill="#000000" fill-rule="nonzero" fill-opacity="1" /><path clip-path="url(#clip390)" d="M1731.14 1544.91 L1738.78 1544.91 L1738.78 1518.55 L1730.47 1520.21 L1730.47 1515.95 L1738.74 1514.29 L1743.41 1514.29 L1743.41 1544.91 L1751.05 1544.91 L1751.05 1548.85 L1731.14 1548.85 L1731.14 1544.91 Z" fill="#000000" fill-rule="nonzero" fill-opacity="1" /><path clip-path="url(#clip390)" d="M1760.54 1514.29 L1778.9 1514.29 L1778.9 1518.22 L1764.82 1518.22 L1764.82 1526.7 Q1765.84 1526.35 1766.86 1526.19 Q1767.88 1526 1768.9 1526 Q1774.68 1526 1778.06 1529.17 Q1781.44 1532.34 1781.44 1537.76 Q1781.44 1543.34 1777.97 1546.44 Q1774.5 1549.52 1768.18 1549.52 Q1766 1549.52 1763.73 1549.15 Q1761.49 1548.78 1759.08 1548.04 L1759.08 1543.34 Q1761.17 1544.47 1763.39 1545.03 Q1765.61 1545.58 1768.09 1545.58 Q1772.09 1545.58 1774.43 1543.48 Q1776.77 1541.37 1776.77 1537.76 Q1776.77 1534.15 1774.43 1532.04 Q1772.09 1529.94 1768.09 1529.94 Q1766.21 1529.94 1764.34 1530.35 Q1762.48 1530.77 1760.54 1531.65 L1760.54 1514.29 Z" fill="#000000" fill-rule="nonzero" fill-opacity="1" /><path clip-path="url(#clip390)" d="M1800.66 1517.37 Q1797.04 1517.37 1795.22 1520.93 Q1793.41 1524.47 1793.41 1531.6 Q1793.41 1538.71 1795.22 1542.27 Q1797.04 1545.82 1800.66 1545.82 Q1804.29 1545.82 1806.1 1542.27 Q1807.92 1538.71 1807.92 1531.6 Q1807.92 1524.47 1806.1 1520.93 Q1804.29 1517.37 1800.66 1517.37 M1800.66 1513.66 Q1806.47 1513.66 1809.52 1518.27 Q1812.6 1522.85 1812.6 1531.6 Q1812.6 1540.33 1809.52 1544.94 Q1806.47 1549.52 1800.66 1549.52 Q1794.85 1549.52 1791.77 1544.94 Q1788.71 1540.33 1788.71 1531.6 Q1788.71 1522.85 1791.77 1518.27 Q1794.85 1513.66 1800.66 1513.66 Z" fill="#000000" fill-rule="nonzero" fill-opacity="1" /><path clip-path="url(#clip390)" d="M1830.82 1517.37 Q1827.21 1517.37 1825.38 1520.93 Q1823.57 1524.47 1823.57 1531.6 Q1823.57 1538.71 1825.38 1542.27 Q1827.21 1545.82 1830.82 1545.82 Q1834.45 1545.82 1836.26 1542.27 Q1838.09 1538.71 1838.09 1531.6 Q1838.09 1524.47 1836.26 1520.93 Q1834.45 1517.37 1830.82 1517.37 M1830.82 1513.66 Q1836.63 1513.66 1839.68 1518.27 Q1842.76 1522.85 1842.76 1531.6 Q1842.76 1540.33 1839.68 1544.94 Q1836.63 1549.52 1830.82 1549.52 Q1825.01 1549.52 1821.93 1544.94 Q1818.87 1540.33 1818.87 1531.6 Q1818.87 1522.85 1821.93 1518.27 Q1825.01 1513.66 1830.82 1513.66 Z" fill="#000000" fill-rule="nonzero" fill-opacity="1" /><path clip-path="url(#clip390)" d="M2240.71 1544.91 L2257.03 1544.91 L2257.03 1548.85 L2235.08 1548.85 L2235.08 1544.91 Q2237.75 1542.16 2242.33 1537.53 Q2246.94 1532.88 2248.12 1531.53 Q2250.36 1529.01 2251.24 1527.27 Q2252.14 1525.51 2252.14 1523.82 Q2252.14 1521.07 2250.2 1519.33 Q2248.28 1517.6 2245.18 1517.6 Q2242.98 1517.6 2240.52 1518.36 Q2238.09 1519.13 2235.32 1520.68 L2235.32 1515.95 Q2238.14 1514.82 2240.59 1514.24 Q2243.05 1513.66 2245.08 1513.66 Q2250.45 1513.66 2253.65 1516.35 Q2256.84 1519.03 2256.84 1523.52 Q2256.84 1525.65 2256.03 1527.57 Q2255.25 1529.47 2253.14 1532.07 Q2252.56 1532.74 2249.46 1535.95 Q2246.36 1539.15 2240.71 1544.91 Z" fill="#000000" fill-rule="nonzero" fill-opacity="1" /><path clip-path="url(#clip390)" d="M2276.84 1517.37 Q2273.23 1517.37 2271.4 1520.93 Q2269.6 1524.47 2269.6 1531.6 Q2269.6 1538.71 2271.4 1542.27 Q2273.23 1545.82 2276.84 1545.82 Q2280.48 1545.82 2282.28 1542.27 Q2284.11 1538.71 2284.11 1531.6 Q2284.11 1524.47 2282.28 1520.93 Q2280.48 1517.37 2276.84 1517.37 M2276.84 1513.66 Q2282.65 1513.66 2285.71 1518.27 Q2288.79 1522.85 2288.79 1531.6 Q2288.79 1540.33 2285.71 1544.94 Q2282.65 1549.52 2276.84 1549.52 Q2271.03 1549.52 2267.95 1544.94 Q2264.9 1540.33 2264.9 1531.6 Q2264.9 1522.85 2267.95 1518.27 Q2271.03 1513.66 2276.84 1513.66 Z" fill="#000000" fill-rule="nonzero" fill-opacity="1" /><path clip-path="url(#clip390)" d="M2307.01 1517.37 Q2303.39 1517.37 2301.57 1520.93 Q2299.76 1524.47 2299.76 1531.6 Q2299.76 1538.71 2301.57 1542.27 Q2303.39 1545.82 2307.01 1545.82 Q2310.64 1545.82 2312.45 1542.27 Q2314.27 1538.71 2314.27 1531.6 Q2314.27 1524.47 2312.45 1520.93 Q2310.64 1517.37 2307.01 1517.37 M2307.01 1513.66 Q2312.82 1513.66 2315.87 1518.27 Q2318.95 1522.85 2318.95 1531.6 Q2318.95 1540.33 2315.87 1544.94 Q2312.82 1549.52 2307.01 1549.52 Q2301.2 1549.52 2298.12 1544.94 Q2295.06 1540.33 2295.06 1531.6 Q2295.06 1522.85 2298.12 1518.27 Q2301.2 1513.66 2307.01 1513.66 Z" fill="#000000" fill-rule="nonzero" fill-opacity="1" /><path clip-path="url(#clip390)" d="M2337.17 1517.37 Q2333.56 1517.37 2331.73 1520.93 Q2329.92 1524.47 2329.92 1531.6 Q2329.92 1538.71 2331.73 1542.27 Q2333.56 1545.82 2337.17 1545.82 Q2340.8 1545.82 2342.61 1542.27 Q2344.44 1538.71 2344.44 1531.6 Q2344.44 1524.47 2342.61 1520.93 Q2340.8 1517.37 2337.17 1517.37 M2337.17 1513.66 Q2342.98 1513.66 2346.03 1518.27 Q2349.11 1522.85 2349.11 1531.6 Q2349.11 1540.33 2346.03 1544.94 Q2342.98 1549.52 2337.17 1549.52 Q2331.36 1549.52 2328.28 1544.94 Q2325.22 1540.33 2325.22 1531.6 Q2325.22 1522.85 2328.28 1518.27 Q2331.36 1513.66 2337.17 1513.66 Z" fill="#000000" fill-rule="nonzero" fill-opacity="1" /><polyline clip-path="url(#clip392)" style="stroke:#000000; stroke-linecap:round; stroke-linejoin:round; stroke-width:2; stroke-opacity:0.1; fill:none" points="209.515,1364.07 2352.76,1364.07 "/>
<polyline clip-path="url(#clip392)" style="stroke:#000000; stroke-linecap:round; stroke-linejoin:round; stroke-width:2; stroke-opacity:0.1; fill:none" points="209.515,1093.44 2352.76,1093.44 "/>
<polyline clip-path="url(#clip392)" style="stroke:#000000; stroke-linecap:round; stroke-linejoin:round; stroke-width:2; stroke-opacity:0.1; fill:none" points="209.515,822.805 2352.76,822.805 "/>
<polyline clip-path="url(#clip392)" style="stroke:#000000; stroke-linecap:round; stroke-linejoin:round; stroke-width:2; stroke-opacity:0.1; fill:none" points="209.515,552.172 2352.76,552.172 "/>
<polyline clip-path="url(#clip392)" style="stroke:#000000; stroke-linecap:round; stroke-linejoin:round; stroke-width:2; stroke-opacity:0.1; fill:none" points="209.515,281.539 2352.76,281.539 "/>
<polyline clip-path="url(#clip390)" style="stroke:#000000; stroke-linecap:round; stroke-linejoin:round; stroke-width:4; stroke-opacity:1; fill:none" points="209.515,1486.45 209.515,47.2441 "/>
<polyline clip-path="url(#clip390)" style="stroke:#000000; stroke-linecap:round; stroke-linejoin:round; stroke-width:4; stroke-opacity:1; fill:none" points="209.515,1364.07 228.412,1364.07 "/>
<polyline clip-path="url(#clip390)" style="stroke:#000000; stroke-linecap:round; stroke-linejoin:round; stroke-width:4; stroke-opacity:1; fill:none" points="209.515,1093.44 228.412,1093.44 "/>
<polyline clip-path="url(#clip390)" style="stroke:#000000; stroke-linecap:round; stroke-linejoin:round; stroke-width:4; stroke-opacity:1; fill:none" points="209.515,822.805 228.412,822.805 "/>
<polyline clip-path="url(#clip390)" style="stroke:#000000; stroke-linecap:round; stroke-linejoin:round; stroke-width:4; stroke-opacity:1; fill:none" points="209.515,552.172 228.412,552.172 "/>
<polyline clip-path="url(#clip390)" style="stroke:#000000; stroke-linecap:round; stroke-linejoin:round; stroke-width:4; stroke-opacity:1; fill:none" points="209.515,281.539 228.412,281.539 "/>
<path clip-path="url(#clip390)" d="M50.9921 1364.52 L80.6679 1364.52 L80.6679 1368.46 L50.9921 1368.46 L50.9921 1364.52 Z" fill="#000000" fill-rule="nonzero" fill-opacity="1" /><path clip-path="url(#clip390)" d="M94.7882 1377.42 L111.108 1377.42 L111.108 1381.35 L89.1632 1381.35 L89.1632 1377.42 Q91.8252 1374.66 96.4085 1370.03 Q101.015 1365.38 102.196 1364.04 Q104.441 1361.51 105.321 1359.78 Q106.223 1358.02 106.223 1356.33 Q106.223 1353.57 104.279 1351.84 Q102.358 1350.1 99.2558 1350.1 Q97.0567 1350.1 94.603 1350.87 Q92.1725 1351.63 89.3947 1353.18 L89.3947 1348.46 Q92.2188 1347.32 94.6724 1346.75 Q97.1261 1346.17 99.1632 1346.17 Q104.534 1346.17 107.728 1348.85 Q110.922 1351.54 110.922 1356.03 Q110.922 1358.16 110.112 1360.08 Q109.325 1361.98 107.219 1364.57 Q106.64 1365.24 103.538 1368.46 Q100.436 1371.65 94.7882 1377.42 Z" fill="#000000" fill-rule="nonzero" fill-opacity="1" /><path clip-path="url(#clip390)" d="M130.922 1349.87 Q127.311 1349.87 125.482 1353.44 Q123.677 1356.98 123.677 1364.11 Q123.677 1371.21 125.482 1374.78 Q127.311 1378.32 130.922 1378.32 Q134.556 1378.32 136.362 1374.78 Q138.191 1371.21 138.191 1364.11 Q138.191 1356.98 136.362 1353.44 Q134.556 1349.87 130.922 1349.87 M130.922 1346.17 Q136.732 1346.17 139.788 1350.77 Q142.867 1355.36 142.867 1364.11 Q142.867 1372.83 139.788 1377.44 Q136.732 1382.02 130.922 1382.02 Q125.112 1382.02 122.033 1377.44 Q118.978 1372.83 118.978 1364.11 Q118.978 1355.36 122.033 1350.77 Q125.112 1346.17 130.922 1346.17 Z" fill="#000000" fill-rule="nonzero" fill-opacity="1" /><path clip-path="url(#clip390)" d="M163.931 1350.87 L152.126 1369.31 L163.931 1369.31 L163.931 1350.87 M162.704 1346.79 L168.584 1346.79 L168.584 1369.31 L173.515 1369.31 L173.515 1373.2 L168.584 1373.2 L168.584 1381.35 L163.931 1381.35 L163.931 1373.2 L148.33 1373.2 L148.33 1368.69 L162.704 1346.79 Z" fill="#000000" fill-rule="nonzero" fill-opacity="1" /><path clip-path="url(#clip390)" d="M53.0754 1093.89 L82.7512 1093.89 L82.7512 1097.83 L53.0754 1097.83 L53.0754 1093.89 Z" fill="#000000" fill-rule="nonzero" fill-opacity="1" /><path clip-path="url(#clip390)" d="M96.8715 1106.78 L113.191 1106.78 L113.191 1110.72 L91.2465 1110.72 L91.2465 1106.78 Q93.9086 1104.03 98.4919 1099.4 Q103.098 1094.75 104.279 1093.4 Q106.524 1090.88 107.404 1089.14 Q108.307 1087.39 108.307 1085.7 Q108.307 1082.94 106.362 1081.2 Q104.441 1079.47 101.339 1079.47 Q99.14 1079.47 96.6863 1080.23 Q94.2558 1081 91.478 1082.55 L91.478 1077.83 Q94.3021 1076.69 96.7558 1076.11 Q99.2095 1075.53 101.246 1075.53 Q106.617 1075.53 109.811 1078.22 Q113.006 1080.9 113.006 1085.39 Q113.006 1087.52 112.196 1089.45 Q111.408 1091.34 109.302 1093.94 Q108.723 1094.61 105.621 1097.83 Q102.52 1101.02 96.8715 1106.78 Z" fill="#000000" fill-rule="nonzero" fill-opacity="1" /><path clip-path="url(#clip390)" d="M133.006 1079.24 Q129.394 1079.24 127.566 1082.8 Q125.76 1086.34 125.76 1093.47 Q125.76 1100.58 127.566 1104.14 Q129.394 1107.69 133.006 1107.69 Q136.64 1107.69 138.445 1104.14 Q140.274 1100.58 140.274 1093.47 Q140.274 1086.34 138.445 1082.8 Q136.64 1079.24 133.006 1079.24 M133.006 1075.53 Q138.816 1075.53 141.871 1080.14 Q144.95 1084.72 144.95 1093.47 Q144.95 1102.2 141.871 1106.81 Q138.816 1111.39 133.006 1111.39 Q127.195 1111.39 124.117 1106.81 Q121.061 1102.2 121.061 1093.47 Q121.061 1084.72 124.117 1080.14 Q127.195 1075.53 133.006 1075.53 Z" fill="#000000" fill-rule="nonzero" fill-opacity="1" /><path clip-path="url(#clip390)" d="M157.195 1106.78 L173.515 1106.78 L173.515 1110.72 L151.57 1110.72 L151.57 1106.78 Q154.232 1104.03 158.816 1099.4 Q163.422 1094.75 164.603 1093.4 Q166.848 1090.88 167.728 1089.14 Q168.63 1087.39 168.63 1085.7 Q168.63 1082.94 166.686 1081.2 Q164.765 1079.47 161.663 1079.47 Q159.464 1079.47 157.01 1080.23 Q154.58 1081 151.802 1082.55 L151.802 1077.83 Q154.626 1076.69 157.08 1076.11 Q159.533 1075.53 161.57 1075.53 Q166.941 1075.53 170.135 1078.22 Q173.329 1080.9 173.329 1085.39 Q173.329 1087.52 172.519 1089.45 Q171.732 1091.34 169.626 1093.94 Q169.047 1094.61 165.945 1097.83 Q162.843 1101.02 157.195 1106.78 Z" fill="#000000" fill-rule="nonzero" fill-opacity="1" /><path clip-path="url(#clip390)" d="M51.4782 823.257 L81.154 823.257 L81.154 827.192 L51.4782 827.192 L51.4782 823.257 Z" fill="#000000" fill-rule="nonzero" fill-opacity="1" /><path clip-path="url(#clip390)" d="M95.2743 836.15 L111.594 836.15 L111.594 840.085 L89.6493 840.085 L89.6493 836.15 Q92.3113 833.396 96.8947 828.766 Q101.501 824.113 102.682 822.771 Q104.927 820.247 105.807 818.511 Q106.709 816.752 106.709 815.062 Q106.709 812.308 104.765 810.572 Q102.844 808.835 99.7419 808.835 Q97.5428 808.835 95.0891 809.599 Q92.6586 810.363 89.8808 811.914 L89.8808 807.192 Q92.7049 806.058 95.1586 805.479 Q97.6122 804.9 99.6493 804.9 Q105.02 804.9 108.214 807.585 Q111.408 810.271 111.408 814.761 Q111.408 816.891 110.598 818.812 Q109.811 820.71 107.705 823.303 Q107.126 823.974 104.024 827.192 Q100.922 830.386 95.2743 836.15 Z" fill="#000000" fill-rule="nonzero" fill-opacity="1" /><path clip-path="url(#clip390)" d="M131.408 808.604 Q127.797 808.604 125.969 812.169 Q124.163 815.71 124.163 822.84 Q124.163 829.946 125.969 833.511 Q127.797 837.053 131.408 837.053 Q135.043 837.053 136.848 833.511 Q138.677 829.946 138.677 822.84 Q138.677 815.71 136.848 812.169 Q135.043 808.604 131.408 808.604 M131.408 804.9 Q137.219 804.9 140.274 809.507 Q143.353 814.09 143.353 822.84 Q143.353 831.567 140.274 836.173 Q137.219 840.757 131.408 840.757 Q125.598 840.757 122.52 836.173 Q119.464 831.567 119.464 822.84 Q119.464 814.09 122.52 809.507 Q125.598 804.9 131.408 804.9 Z" fill="#000000" fill-rule="nonzero" fill-opacity="1" /><path clip-path="url(#clip390)" d="M161.57 808.604 Q157.959 808.604 156.13 812.169 Q154.325 815.71 154.325 822.84 Q154.325 829.946 156.13 833.511 Q157.959 837.053 161.57 837.053 Q165.204 837.053 167.01 833.511 Q168.839 829.946 168.839 822.84 Q168.839 815.71 167.01 812.169 Q165.204 808.604 161.57 808.604 M161.57 804.9 Q167.38 804.9 170.436 809.507 Q173.515 814.09 173.515 822.84 Q173.515 831.567 170.436 836.173 Q167.38 840.757 161.57 840.757 Q155.76 840.757 152.681 836.173 Q149.626 831.567 149.626 822.84 Q149.626 814.09 152.681 809.507 Q155.76 804.9 161.57 804.9 Z" fill="#000000" fill-rule="nonzero" fill-opacity="1" /><path clip-path="url(#clip390)" d="M51.5708 552.623 L81.2466 552.623 L81.2466 556.559 L51.5708 556.559 L51.5708 552.623 Z" fill="#000000" fill-rule="nonzero" fill-opacity="1" /><path clip-path="url(#clip390)" d="M92.1493 565.517 L99.7882 565.517 L99.7882 539.151 L91.478 540.818 L91.478 536.559 L99.7419 534.892 L104.418 534.892 L104.418 565.517 L112.057 565.517 L112.057 569.452 L92.1493 569.452 L92.1493 565.517 Z" fill="#000000" fill-rule="nonzero" fill-opacity="1" /><path clip-path="url(#clip390)" d="M121.64 568.734 L121.64 564.475 Q123.399 565.309 125.205 565.748 Q127.01 566.188 128.746 566.188 Q133.376 566.188 135.806 563.086 Q138.26 559.961 138.607 553.619 Q137.265 555.61 135.205 556.674 Q133.144 557.739 130.644 557.739 Q125.459 557.739 122.427 554.614 Q119.418 551.466 119.418 546.026 Q119.418 540.702 122.566 537.485 Q125.714 534.267 130.945 534.267 Q136.941 534.267 140.089 538.874 Q143.26 543.457 143.26 552.207 Q143.26 560.378 139.371 565.262 Q135.506 570.123 128.955 570.123 Q127.195 570.123 125.39 569.776 Q123.584 569.429 121.64 568.734 M130.945 554.082 Q134.094 554.082 135.922 551.929 Q137.774 549.776 137.774 546.026 Q137.774 542.299 135.922 540.147 Q134.094 537.971 130.945 537.971 Q127.797 537.971 125.945 540.147 Q124.117 542.299 124.117 546.026 Q124.117 549.776 125.945 551.929 Q127.797 554.082 130.945 554.082 Z" fill="#000000" fill-rule="nonzero" fill-opacity="1" /><path clip-path="url(#clip390)" d="M161.663 553.04 Q158.33 553.04 156.408 554.822 Q154.51 556.605 154.51 559.73 Q154.51 562.855 156.408 564.637 Q158.33 566.42 161.663 566.42 Q164.996 566.42 166.917 564.637 Q168.839 562.832 168.839 559.73 Q168.839 556.605 166.917 554.822 Q165.019 553.04 161.663 553.04 M156.987 551.049 Q153.978 550.309 152.288 548.248 Q150.621 546.188 150.621 543.225 Q150.621 539.082 153.561 536.674 Q156.524 534.267 161.663 534.267 Q166.825 534.267 169.765 536.674 Q172.704 539.082 172.704 543.225 Q172.704 546.188 171.015 548.248 Q169.348 550.309 166.362 551.049 Q169.741 551.836 171.616 554.128 Q173.515 556.42 173.515 559.73 Q173.515 564.753 170.436 567.438 Q167.38 570.123 161.663 570.123 Q155.945 570.123 152.867 567.438 Q149.811 564.753 149.811 559.73 Q149.811 556.42 151.709 554.128 Q153.607 551.836 156.987 551.049 M155.274 543.665 Q155.274 546.35 156.941 547.855 Q158.63 549.36 161.663 549.36 Q164.672 549.36 166.362 547.855 Q168.075 546.35 168.075 543.665 Q168.075 540.98 166.362 539.475 Q164.672 537.971 161.663 537.971 Q158.63 537.971 156.941 539.475 Q155.274 540.98 155.274 543.665 Z" fill="#000000" fill-rule="nonzero" fill-opacity="1" /><path clip-path="url(#clip390)" d="M51.3162 281.99 L80.992 281.99 L80.992 285.925 L51.3162 285.925 L51.3162 281.99 Z" fill="#000000" fill-rule="nonzero" fill-opacity="1" /><path clip-path="url(#clip390)" d="M91.8947 294.884 L99.5335 294.884 L99.5335 268.518 L91.2234 270.185 L91.2234 265.925 L99.4872 264.259 L104.163 264.259 L104.163 294.884 L111.802 294.884 L111.802 298.819 L91.8947 298.819 L91.8947 294.884 Z" fill="#000000" fill-rule="nonzero" fill-opacity="1" /><path clip-path="url(#clip390)" d="M121.385 298.101 L121.385 293.842 Q123.145 294.675 124.95 295.115 Q126.756 295.555 128.492 295.555 Q133.121 295.555 135.552 292.453 Q138.006 289.328 138.353 282.986 Q137.01 284.976 134.95 286.041 Q132.89 287.106 130.39 287.106 Q125.205 287.106 122.172 283.981 Q119.163 280.833 119.163 275.393 Q119.163 270.069 122.311 266.851 Q125.459 263.634 130.691 263.634 Q136.686 263.634 139.834 268.24 Q143.006 272.824 143.006 281.574 Q143.006 289.745 139.117 294.629 Q135.251 299.49 128.7 299.49 Q126.941 299.49 125.135 299.143 Q123.33 298.796 121.385 298.101 M130.691 283.449 Q133.839 283.449 135.668 281.296 Q137.519 279.143 137.519 275.393 Q137.519 271.666 135.668 269.513 Q133.839 267.337 130.691 267.337 Q127.543 267.337 125.691 269.513 Q123.862 271.666 123.862 275.393 Q123.862 279.143 125.691 281.296 Q127.543 283.449 130.691 283.449 Z" fill="#000000" fill-rule="nonzero" fill-opacity="1" /><path clip-path="url(#clip390)" d="M161.987 279.675 Q158.839 279.675 156.987 281.828 Q155.158 283.981 155.158 287.731 Q155.158 291.458 156.987 293.634 Q158.839 295.786 161.987 295.786 Q165.135 295.786 166.964 293.634 Q168.816 291.458 168.816 287.731 Q168.816 283.981 166.964 281.828 Q165.135 279.675 161.987 279.675 M171.269 265.023 L171.269 269.282 Q169.51 268.449 167.704 268.009 Q165.922 267.569 164.163 267.569 Q159.533 267.569 157.08 270.694 Q154.649 273.819 154.302 280.138 Q155.667 278.124 157.728 277.06 Q159.788 275.972 162.265 275.972 Q167.473 275.972 170.482 279.143 Q173.515 282.291 173.515 287.731 Q173.515 293.055 170.366 296.273 Q167.218 299.49 161.987 299.49 Q155.992 299.49 152.82 294.907 Q149.649 290.3 149.649 281.574 Q149.649 273.379 153.538 268.518 Q157.427 263.634 163.978 263.634 Q165.737 263.634 167.519 263.981 Q169.325 264.328 171.269 265.023 Z" fill="#000000" fill-rule="nonzero" fill-opacity="1" /><polyline clip-path="url(#clip392)" style="stroke:#009af9; stroke-linecap:round; stroke-linejoin:round; stroke-width:4; stroke-opacity:1; fill:none" points="270.172,1041.48 271.183,368.468 272.194,87.9763 273.205,1049.49 274.216,1161.55 275.227,1312.43 276.238,1393.95 277.249,1428.09 278.26,1436.03 279.271,1439.09 280.282,1440.46 281.293,1441.27 282.304,1441.82 283.315,1442.24 284.326,1442.58 285.337,1442.87 286.348,1443.12 287.359,1443.34 288.37,1443.54 289.381,1443.73 290.392,1443.89 291.403,1444.04 292.414,1444.18 293.425,1444.3 294.435,1444.41 295.446,1444.52 296.457,1444.62 297.468,1444.7 298.479,1444.78 299.49,1444.86 300.501,1444.93 301.512,1444.99 302.523,1445.05 303.534,1445.1 304.545,1445.15 305.556,1445.19 306.567,1445.24 307.578,1445.27 308.589,1445.31 309.6,1445.34 310.611,1445.37 311.622,1445.4 312.633,1445.42 313.644,1445.45 314.655,1445.47 315.666,1445.49 316.677,1445.51 317.688,1445.52 318.699,1445.54 319.71,1445.55 320.721,1445.56 321.731,1445.58 322.742,1445.59 323.753,1445.6 324.764,1445.61 325.775,1445.62 326.786,1445.62 327.797,1445.63 328.808,1445.64 329.819,1445.64 330.83,1445.65 331.841,1445.65 332.852,1445.66 333.863,1445.66 334.874,1445.67 335.885,1445.67 336.896,1445.68 337.907,1445.68 338.918,1445.68 339.929,1445.68 340.94,1445.69 341.951,1445.69 342.962,1445.69 343.973,1445.69 344.984,1445.69 345.995,1445.7 347.006,1445.7 348.017,1445.7 349.027,1445.7 350.038,1445.7 351.049,1445.7 352.06,1445.7 353.071,1445.7 354.082,1445.71 355.093,1445.71 356.104,1445.71 357.115,1445.71 358.126,1445.71 359.137,1445.71 360.148,1445.71 361.159,1445.71 362.17,1445.71 363.181,1445.71 364.192,1445.71 365.203,1445.71 366.214,1445.71 367.225,1445.71 368.236,1445.71 369.247,1445.71 370.258,1445.71 371.269,1445.71 372.28,1445.71 373.291,1445.71 374.302,1445.71 375.313,1445.71 376.323,1445.71 377.334,1445.71 378.345,1445.71 379.356,1445.71 380.367,1445.71 381.378,1445.71 382.389,1445.71 383.4,1445.71 384.411,1445.71 385.422,1445.71 386.433,1445.71 387.444,1445.72 388.455,1445.72 389.466,1445.72 390.477,1445.72 391.488,1445.72 392.499,1445.72 393.51,1445.72 394.521,1445.72 395.532,1445.72 396.543,1445.72 397.554,1445.72 398.565,1445.72 399.576,1445.72 400.587,1445.72 401.598,1445.72 402.609,1445.72 403.619,1445.72 404.63,1445.72 405.641,1445.72 406.652,1445.72 407.663,1445.72 408.674,1445.72 409.685,1445.72 410.696,1445.72 411.707,1445.72 412.718,1445.72 413.729,1445.72 414.74,1445.72 415.751,1445.72 416.762,1445.72 417.773,1445.72 418.784,1445.72 419.795,1445.72 420.806,1445.72 421.817,1445.72 422.828,1445.72 423.839,1445.72 424.85,1445.72 425.861,1445.72 426.872,1445.72 427.883,1445.72 428.894,1445.72 429.905,1445.72 430.915,1445.72 431.926,1445.72 432.937,1445.72 433.948,1445.72 434.959,1445.72 435.97,1445.72 436.981,1445.72 437.992,1445.72 439.003,1445.72 440.014,1445.72 441.025,1445.72 442.036,1445.72 443.047,1445.72 444.058,1445.72 445.069,1445.72 446.08,1445.72 447.091,1445.72 448.102,1445.72 449.113,1445.72 450.124,1445.72 451.135,1445.72 452.146,1445.72 453.157,1445.72 454.168,1445.72 455.179,1445.72 456.19,1445.72 457.201,1445.72 458.211,1445.72 459.222,1445.72 460.233,1445.72 461.244,1445.72 462.255,1445.72 463.266,1445.72 464.277,1445.72 465.288,1445.72 466.299,1445.72 467.31,1445.72 468.321,1445.72 469.332,1445.72 470.343,1445.72 471.354,1445.72 472.365,1445.72 473.376,1445.72 474.387,1445.72 475.398,1445.72 476.409,1445.72 477.42,1445.72 478.431,1445.72 479.442,1445.72 480.453,1445.72 481.464,1445.72 482.475,1445.72 483.486,1445.72 484.497,1445.72 485.507,1445.72 486.518,1445.72 487.529,1445.72 488.54,1445.72 489.551,1445.72 490.562,1445.72 491.573,1445.72 492.584,1445.72 493.595,1445.72 494.606,1445.72 495.617,1445.72 496.628,1445.72 497.639,1445.72 498.65,1445.72 499.661,1445.72 500.672,1445.72 501.683,1445.72 502.694,1445.72 503.705,1445.72 504.716,1445.72 505.727,1445.72 506.738,1445.72 507.749,1445.72 508.76,1445.72 509.771,1445.72 510.782,1445.72 511.793,1445.72 512.803,1445.72 513.814,1445.72 514.825,1445.72 515.836,1445.72 516.847,1445.72 517.858,1445.72 518.869,1445.72 519.88,1445.72 520.891,1445.72 521.902,1445.72 522.913,1445.72 523.924,1445.72 524.935,1445.72 525.946,1445.72 526.957,1445.72 527.968,1445.72 528.979,1445.72 529.99,1445.72 531.001,1445.72 532.012,1445.72 533.023,1445.72 534.034,1445.72 535.045,1445.72 536.056,1445.72 537.067,1445.72 538.078,1445.72 539.089,1445.72 540.099,1445.72 541.11,1445.72 542.121,1445.72 543.132,1445.72 544.143,1445.72 545.154,1445.72 546.165,1445.72 547.176,1445.72 548.187,1445.72 549.198,1445.72 550.209,1445.72 551.22,1445.72 552.231,1445.72 553.242,1445.72 554.253,1445.72 555.264,1445.72 556.275,1445.72 557.286,1445.72 558.297,1445.72 559.308,1445.72 560.319,1445.72 561.33,1445.72 562.341,1445.72 563.352,1445.72 564.363,1445.72 565.374,1445.72 566.385,1445.72 567.395,1445.72 568.406,1445.72 569.417,1445.72 570.428,1445.72 571.439,1445.72 572.45,1445.72 573.461,1445.72 574.472,1445.72 575.483,1445.72 576.494,1445.72 577.505,1445.72 578.516,1445.72 579.527,1445.72 580.538,1445.72 581.549,1445.72 582.56,1445.72 583.571,1445.72 584.582,1445.72 585.593,1445.72 586.604,1445.72 587.615,1445.72 588.626,1445.72 589.637,1445.72 590.648,1445.72 591.659,1445.72 592.67,1445.72 593.681,1445.72 594.691,1445.72 595.702,1445.72 596.713,1445.72 597.724,1445.72 598.735,1445.72 599.746,1445.72 600.757,1445.72 601.768,1445.72 602.779,1445.72 603.79,1445.72 604.801,1445.72 605.812,1445.72 606.823,1445.72 607.834,1445.72 608.845,1445.72 609.856,1445.72 610.867,1445.72 611.878,1445.72 612.889,1445.72 613.9,1445.72 614.911,1445.72 615.922,1445.72 616.933,1445.72 617.944,1445.72 618.955,1445.72 619.966,1445.72 620.977,1445.72 621.987,1445.72 622.998,1445.72 624.009,1445.72 625.02,1445.72 626.031,1445.72 627.042,1445.72 628.053,1445.72 629.064,1445.72 630.075,1445.72 631.086,1445.72 632.097,1445.72 633.108,1445.72 634.119,1445.72 635.13,1445.72 636.141,1445.72 637.152,1445.72 638.163,1445.72 639.174,1445.72 640.185,1445.72 641.196,1445.72 642.207,1445.72 643.218,1445.72 644.229,1445.72 645.24,1445.72 646.251,1445.72 647.262,1445.72 648.273,1445.72 649.283,1445.72 650.294,1445.72 651.305,1445.72 652.316,1445.72 653.327,1445.72 654.338,1445.72 655.349,1445.72 656.36,1445.72 657.371,1445.72 658.382,1445.72 659.393,1445.72 660.404,1445.72 661.415,1445.72 662.426,1445.72 663.437,1445.72 664.448,1445.72 665.459,1445.72 666.47,1445.72 667.481,1445.72 668.492,1445.72 669.503,1445.72 670.514,1445.72 671.525,1445.72 672.536,1445.72 673.547,1445.72 674.558,1445.72 675.569,1445.72 676.579,1445.72 677.59,1445.72 678.601,1445.72 679.612,1445.72 680.623,1445.72 681.634,1445.72 682.645,1445.72 683.656,1445.72 684.667,1445.72 685.678,1445.72 686.689,1445.72 687.7,1445.72 688.711,1445.72 689.722,1445.72 690.733,1445.72 691.744,1445.72 692.755,1445.72 693.766,1445.72 694.777,1445.72 695.788,1445.72 696.799,1445.72 697.81,1445.72 698.821,1445.72 699.832,1445.72 700.843,1445.72 701.854,1445.72 702.864,1445.72 703.875,1445.72 704.886,1445.72 705.897,1445.72 706.908,1445.72 707.919,1445.72 708.93,1445.72 709.941,1445.72 710.952,1445.72 711.963,1445.72 712.974,1445.72 713.985,1445.72 714.996,1445.72 716.007,1445.72 717.018,1445.72 718.029,1445.72 719.04,1445.72 720.051,1445.72 721.062,1445.72 722.073,1445.72 723.084,1445.72 724.095,1445.72 725.106,1445.72 726.117,1445.72 727.128,1445.72 728.139,1445.72 729.15,1445.72 730.16,1445.72 731.171,1445.72 732.182,1445.72 733.193,1445.72 734.204,1445.72 735.215,1445.72 736.226,1445.72 737.237,1445.72 738.248,1445.72 739.259,1445.72 740.27,1445.72 741.281,1445.72 742.292,1445.72 743.303,1445.72 744.314,1445.72 745.325,1445.72 746.336,1445.72 747.347,1445.72 748.358,1445.72 749.369,1445.72 750.38,1445.72 751.391,1445.72 752.402,1445.72 753.413,1445.72 754.424,1445.72 755.435,1445.72 756.446,1445.72 757.456,1445.72 758.467,1445.72 759.478,1445.72 760.489,1445.72 761.5,1445.72 762.511,1445.72 763.522,1445.72 764.533,1445.72 765.544,1445.72 766.555,1445.72 767.566,1445.72 768.577,1445.72 769.588,1445.72 770.599,1445.72 771.61,1445.72 772.621,1445.72 773.632,1445.72 774.643,1445.72 775.654,1445.72 776.665,1445.72 777.676,1445.72 778.687,1445.72 779.698,1445.72 780.709,1445.72 781.72,1445.72 782.731,1445.72 783.742,1445.72 784.752,1445.72 785.763,1445.72 786.774,1445.72 787.785,1445.72 788.796,1445.72 789.807,1445.72 790.818,1445.72 791.829,1445.72 792.84,1445.72 793.851,1445.72 794.862,1445.72 795.873,1445.72 796.884,1445.72 797.895,1445.72 798.906,1445.72 799.917,1445.72 800.928,1445.72 801.939,1445.72 802.95,1445.72 803.961,1445.72 804.972,1445.72 805.983,1445.72 806.994,1445.72 808.005,1445.72 809.016,1445.72 810.027,1445.72 811.038,1445.72 812.048,1445.72 813.059,1445.72 814.07,1445.72 815.081,1445.72 816.092,1445.72 817.103,1445.72 818.114,1445.72 819.125,1445.72 820.136,1445.72 821.147,1445.72 822.158,1445.72 823.169,1445.72 824.18,1445.72 825.191,1445.72 826.202,1445.72 827.213,1445.72 828.224,1445.72 829.235,1445.72 830.246,1445.72 831.257,1445.72 832.268,1445.72 833.279,1445.72 834.29,1445.72 835.301,1445.72 836.312,1445.72 837.323,1445.72 838.334,1445.72 839.344,1445.72 840.355,1445.72 841.366,1445.72 842.377,1445.72 843.388,1445.72 844.399,1445.72 845.41,1445.72 846.421,1445.72 847.432,1445.72 848.443,1445.72 849.454,1445.72 850.465,1445.72 851.476,1445.72 852.487,1445.72 853.498,1445.72 854.509,1445.72 855.52,1445.72 856.531,1445.72 857.542,1445.72 858.553,1445.72 859.564,1445.72 860.575,1445.72 861.586,1445.72 862.597,1445.72 863.608,1445.72 864.619,1445.72 865.63,1445.72 866.64,1445.72 867.651,1445.72 868.662,1445.72 869.673,1445.72 870.684,1445.72 871.695,1445.72 872.706,1445.72 873.717,1445.72 874.728,1445.72 875.739,1445.72 876.75,1445.72 877.761,1445.72 878.772,1445.72 879.783,1445.72 880.794,1445.72 881.805,1445.72 882.816,1445.72 883.827,1445.72 884.838,1445.72 885.849,1445.72 886.86,1445.72 887.871,1445.72 888.882,1445.72 889.893,1445.72 890.904,1445.72 891.915,1445.72 892.926,1445.72 893.936,1445.72 894.947,1445.72 895.958,1445.72 896.969,1445.72 897.98,1445.72 898.991,1445.72 900.002,1445.72 901.013,1445.72 902.024,1445.72 903.035,1445.72 904.046,1445.72 905.057,1445.72 906.068,1445.72 907.079,1445.72 908.09,1445.72 909.101,1445.72 910.112,1445.72 911.123,1445.72 912.134,1445.72 913.145,1445.72 914.156,1445.72 915.167,1445.72 916.178,1445.72 917.189,1445.72 918.2,1445.72 919.211,1445.72 920.222,1445.72 921.232,1445.72 922.243,1445.72 923.254,1445.72 924.265,1445.72 925.276,1445.72 926.287,1445.72 927.298,1445.72 928.309,1445.72 929.32,1445.72 930.331,1445.72 931.342,1445.72 932.353,1445.72 933.364,1445.72 934.375,1445.72 935.386,1445.72 936.397,1445.72 937.408,1445.72 938.419,1445.72 939.43,1445.72 940.441,1445.72 941.452,1445.72 942.463,1445.72 943.474,1445.72 944.485,1445.72 945.496,1445.72 946.507,1445.72 947.518,1445.72 948.528,1445.72 949.539,1445.72 950.55,1445.72 951.561,1445.72 952.572,1445.72 953.583,1445.72 954.594,1445.72 955.605,1445.72 956.616,1445.72 957.627,1445.72 958.638,1445.72 959.649,1445.72 960.66,1445.72 961.671,1445.72 962.682,1445.72 963.693,1445.72 964.704,1445.72 965.715,1445.72 966.726,1445.72 967.737,1445.72 968.748,1445.72 969.759,1445.72 970.77,1445.72 971.781,1445.72 972.792,1445.72 973.803,1445.72 974.814,1445.72 975.824,1445.72 976.835,1445.72 977.846,1445.72 978.857,1445.72 979.868,1445.72 980.879,1445.72 981.89,1445.72 982.901,1445.72 983.912,1445.72 984.923,1445.72 985.934,1445.72 986.945,1445.72 987.956,1445.72 988.967,1445.72 989.978,1445.72 990.989,1445.72 992,1445.72 993.011,1445.72 994.022,1445.72 995.033,1445.72 996.044,1445.72 997.055,1445.72 998.066,1445.72 999.077,1445.72 1000.09,1445.72 1001.1,1445.72 1002.11,1445.72 1003.12,1445.72 1004.13,1445.72 1005.14,1445.72 1006.15,1445.72 1007.16,1445.72 1008.18,1445.72 1009.19,1445.72 1010.2,1445.72 1011.21,1445.72 1012.22,1445.72 1013.23,1445.72 1014.24,1445.72 1015.25,1445.72 1016.26,1445.72 1017.27,1445.72 1018.28,1445.72 1019.3,1445.72 1020.31,1445.72 1021.32,1445.72 1022.33,1445.72 1023.34,1445.72 1024.35,1445.72 1025.36,1445.72 1026.37,1445.72 1027.38,1445.72 1028.39,1445.72 1029.41,1445.72 1030.42,1445.72 1031.43,1445.72 1032.44,1445.72 1033.45,1445.72 1034.46,1445.72 1035.47,1445.72 1036.48,1445.72 1037.49,1445.72 1038.5,1445.72 1039.52,1445.72 1040.53,1445.72 1041.54,1445.72 1042.55,1445.72 1043.56,1445.72 1044.57,1445.72 1045.58,1445.72 1046.59,1445.72 1047.6,1445.72 1048.61,1445.72 1049.62,1445.72 1050.64,1445.72 1051.65,1445.72 1052.66,1445.72 1053.67,1445.72 1054.68,1445.72 1055.69,1445.72 1056.7,1445.72 1057.71,1445.72 1058.72,1445.72 1059.73,1445.72 1060.75,1445.72 1061.76,1445.72 1062.77,1445.72 1063.78,1445.72 1064.79,1445.72 1065.8,1445.72 1066.81,1445.72 1067.82,1445.72 1068.83,1445.72 1069.84,1445.72 1070.85,1445.72 1071.87,1445.72 1072.88,1445.72 1073.89,1445.72 1074.9,1445.72 1075.91,1445.72 1076.92,1445.72 1077.93,1445.72 1078.94,1445.72 1079.95,1445.72 1080.96,1445.72 1081.98,1445.72 1082.99,1445.72 1084,1445.72 1085.01,1445.72 1086.02,1445.72 1087.03,1445.72 1088.04,1445.72 1089.05,1445.72 1090.06,1445.72 1091.07,1445.72 1092.09,1445.72 1093.1,1445.72 1094.11,1445.72 1095.12,1445.72 1096.13,1445.72 1097.14,1445.72 1098.15,1445.72 1099.16,1445.72 1100.17,1445.72 1101.18,1445.72 1102.19,1445.72 1103.21,1445.72 1104.22,1445.72 1105.23,1445.72 1106.24,1445.72 1107.25,1445.72 1108.26,1445.72 1109.27,1445.72 1110.28,1445.72 1111.29,1445.72 1112.3,1445.72 1113.32,1445.72 1114.33,1445.72 1115.34,1445.72 1116.35,1445.72 1117.36,1445.72 1118.37,1445.72 1119.38,1445.72 1120.39,1445.72 1121.4,1445.72 1122.41,1445.72 1123.43,1445.72 1124.44,1445.72 1125.45,1445.72 1126.46,1445.72 1127.47,1445.72 1128.48,1445.72 1129.49,1445.72 1130.5,1445.72 1131.51,1445.72 1132.52,1445.72 1133.53,1445.72 1134.55,1445.72 1135.56,1445.72 1136.57,1445.72 1137.58,1445.72 1138.59,1445.72 1139.6,1445.72 1140.61,1445.72 1141.62,1445.72 1142.63,1445.72 1143.64,1445.72 1144.66,1445.72 1145.67,1445.72 1146.68,1445.72 1147.69,1445.72 1148.7,1445.72 1149.71,1445.72 1150.72,1445.72 1151.73,1445.72 1152.74,1445.72 1153.75,1445.72 1154.76,1445.72 1155.78,1445.72 1156.79,1445.72 1157.8,1445.72 1158.81,1445.72 1159.82,1445.72 1160.83,1445.72 1161.84,1445.72 1162.85,1445.72 1163.86,1445.72 1164.87,1445.72 1165.89,1445.72 1166.9,1445.72 1167.91,1445.72 1168.92,1445.72 1169.93,1445.72 1170.94,1445.72 1171.95,1445.72 1172.96,1445.72 1173.97,1445.72 1174.98,1445.72 1176,1445.72 1177.01,1445.72 1178.02,1445.72 1179.03,1445.72 1180.04,1445.72 1181.05,1445.72 1182.06,1445.72 1183.07,1445.72 1184.08,1445.72 1185.09,1445.72 1186.1,1445.72 1187.12,1445.72 1188.13,1445.72 1189.14,1445.72 1190.15,1445.72 1191.16,1445.72 1192.17,1445.72 1193.18,1445.72 1194.19,1445.72 1195.2,1445.72 1196.21,1445.72 1197.23,1445.72 1198.24,1445.72 1199.25,1445.72 1200.26,1445.72 1201.27,1445.72 1202.28,1445.72 1203.29,1445.72 1204.3,1445.72 1205.31,1445.72 1206.32,1445.72 1207.33,1445.72 1208.35,1445.72 1209.36,1445.72 1210.37,1445.72 1211.38,1445.72 1212.39,1445.72 1213.4,1445.72 1214.41,1445.72 1215.42,1445.72 1216.43,1445.72 1217.44,1445.72 1218.46,1445.72 1219.47,1445.72 1220.48,1445.72 1221.49,1445.72 1222.5,1445.72 1223.51,1445.72 1224.52,1445.72 1225.53,1445.72 1226.54,1445.72 1227.55,1445.72 1228.57,1445.72 1229.58,1445.72 1230.59,1445.72 1231.6,1445.72 1232.61,1445.72 1233.62,1445.72 1234.63,1445.72 1235.64,1445.72 1236.65,1445.72 1237.66,1445.72 1238.67,1445.72 1239.69,1445.72 1240.7,1445.72 1241.71,1445.72 1242.72,1445.72 1243.73,1445.72 1244.74,1445.72 1245.75,1445.72 1246.76,1445.72 1247.77,1445.72 1248.78,1445.72 1249.8,1445.72 1250.81,1445.72 1251.82,1445.72 1252.83,1445.72 1253.84,1445.72 1254.85,1445.72 1255.86,1445.72 1256.87,1445.72 1257.88,1445.72 1258.89,1445.72 1259.91,1445.72 1260.92,1445.72 1261.93,1445.72 1262.94,1445.72 1263.95,1445.72 1264.96,1445.72 1265.97,1445.72 1266.98,1445.72 1267.99,1445.72 1269,1445.72 1270.01,1445.72 1271.03,1445.72 1272.04,1445.72 1273.05,1445.72 1274.06,1445.72 1275.07,1445.72 1276.08,1445.72 1277.09,1445.72 1278.1,1445.72 1279.11,1445.72 1280.12,1445.72 1281.14,1445.72 1282.15,1445.72 1283.16,1445.72 1284.17,1445.72 1285.18,1445.72 1286.19,1445.72 1287.2,1445.72 1288.21,1445.72 1289.22,1445.72 1290.23,1445.72 1291.24,1445.72 1292.26,1445.72 1293.27,1445.72 1294.28,1445.72 1295.29,1445.72 1296.3,1445.72 1297.31,1445.72 1298.32,1445.72 1299.33,1445.72 1300.34,1445.72 1301.35,1445.72 1302.37,1445.72 1303.38,1445.72 1304.39,1445.72 1305.4,1445.72 1306.41,1445.72 1307.42,1445.72 1308.43,1445.72 1309.44,1445.72 1310.45,1445.72 1311.46,1445.72 1312.48,1445.72 1313.49,1445.72 1314.5,1445.72 1315.51,1445.72 1316.52,1445.72 1317.53,1445.72 1318.54,1445.72 1319.55,1445.72 1320.56,1445.72 1321.57,1445.72 1322.58,1445.72 1323.6,1445.72 1324.61,1445.72 1325.62,1445.72 1326.63,1445.72 1327.64,1445.72 1328.65,1445.72 1329.66,1445.72 1330.67,1445.72 1331.68,1445.72 1332.69,1445.72 1333.71,1445.72 1334.72,1445.72 1335.73,1445.72 1336.74,1445.72 1337.75,1445.72 1338.76,1445.72 1339.77,1445.72 1340.78,1445.72 1341.79,1445.72 1342.8,1445.72 1343.81,1445.72 1344.83,1445.72 1345.84,1445.72 1346.85,1445.72 1347.86,1445.72 1348.87,1445.72 1349.88,1445.72 1350.89,1445.72 1351.9,1445.72 1352.91,1445.72 1353.92,1445.72 1354.94,1445.72 1355.95,1445.72 1356.96,1445.72 1357.97,1445.72 1358.98,1445.72 1359.99,1445.72 1361,1445.72 1362.01,1445.72 1363.02,1445.72 1364.03,1445.72 1365.05,1445.72 1366.06,1445.72 1367.07,1445.72 1368.08,1445.72 1369.09,1445.72 1370.1,1445.72 1371.11,1445.72 1372.12,1445.72 1373.13,1445.72 1374.14,1445.72 1375.15,1445.72 1376.17,1445.72 1377.18,1445.72 1378.19,1445.72 1379.2,1445.72 1380.21,1445.72 1381.22,1445.72 1382.23,1445.72 1383.24,1445.72 1384.25,1445.72 1385.26,1445.72 1386.28,1445.72 1387.29,1445.72 1388.3,1445.72 1389.31,1445.72 1390.32,1445.72 1391.33,1445.72 1392.34,1445.72 1393.35,1445.72 1394.36,1445.72 1395.37,1445.72 1396.39,1445.72 1397.4,1445.72 1398.41,1445.72 1399.42,1445.72 1400.43,1445.72 1401.44,1445.72 1402.45,1445.72 1403.46,1445.72 1404.47,1445.72 1405.48,1445.72 1406.49,1445.72 1407.51,1445.72 1408.52,1445.72 1409.53,1445.72 1410.54,1445.72 1411.55,1445.72 1412.56,1445.72 1413.57,1445.72 1414.58,1445.72 1415.59,1445.72 1416.6,1445.72 1417.62,1445.72 1418.63,1445.72 1419.64,1445.72 1420.65,1445.72 1421.66,1445.72 1422.67,1445.72 1423.68,1445.72 1424.69,1445.72 1425.7,1445.72 1426.71,1445.72 1427.72,1445.72 1428.74,1445.72 1429.75,1445.72 1430.76,1445.72 1431.77,1445.72 1432.78,1445.72 1433.79,1445.72 1434.8,1445.72 1435.81,1445.72 1436.82,1445.72 1437.83,1445.72 1438.85,1445.72 1439.86,1445.72 1440.87,1445.72 1441.88,1445.72 1442.89,1445.72 1443.9,1445.72 1444.91,1445.72 1445.92,1445.72 1446.93,1445.72 1447.94,1445.72 1448.96,1445.72 1449.97,1445.72 1450.98,1445.72 1451.99,1445.72 1453,1445.72 1454.01,1445.72 1455.02,1445.72 1456.03,1445.72 1457.04,1445.72 1458.05,1445.72 1459.06,1445.72 1460.08,1445.72 1461.09,1445.72 1462.1,1445.72 1463.11,1445.72 1464.12,1445.72 1465.13,1445.72 1466.14,1445.72 1467.15,1445.72 1468.16,1445.72 1469.17,1445.72 1470.19,1445.72 1471.2,1445.72 1472.21,1445.72 1473.22,1445.72 1474.23,1445.72 1475.24,1445.72 1476.25,1445.72 1477.26,1445.72 1478.27,1445.72 1479.28,1445.72 1480.29,1445.72 1481.31,1445.72 1482.32,1445.72 1483.33,1445.72 1484.34,1445.72 1485.35,1445.72 1486.36,1445.72 1487.37,1445.72 1488.38,1445.72 1489.39,1445.72 1490.4,1445.72 1491.42,1445.72 1492.43,1445.72 1493.44,1445.72 1494.45,1445.72 1495.46,1445.72 1496.47,1445.72 1497.48,1445.72 1498.49,1445.72 1499.5,1445.72 1500.51,1445.72 1501.53,1445.72 1502.54,1445.72 1503.55,1445.72 1504.56,1445.72 1505.57,1445.72 1506.58,1445.72 1507.59,1445.72 1508.6,1445.72 1509.61,1445.72 1510.62,1445.72 1511.63,1445.72 1512.65,1445.72 1513.66,1445.72 1514.67,1445.72 1515.68,1445.72 1516.69,1445.72 1517.7,1445.72 1518.71,1445.72 1519.72,1445.72 1520.73,1445.72 1521.74,1445.72 1522.76,1445.72 1523.77,1445.72 1524.78,1445.72 1525.79,1445.72 1526.8,1445.72 1527.81,1445.72 1528.82,1445.72 1529.83,1445.72 1530.84,1445.72 1531.85,1445.72 1532.87,1445.72 1533.88,1445.72 1534.89,1445.72 1535.9,1445.72 1536.91,1445.72 1537.92,1445.72 1538.93,1445.72 1539.94,1445.72 1540.95,1445.72 1541.96,1445.72 1542.97,1445.72 1543.99,1445.72 1545,1445.72 1546.01,1445.72 1547.02,1445.72 1548.03,1445.72 1549.04,1445.72 1550.05,1445.72 1551.06,1445.72 1552.07,1445.72 1553.08,1445.72 1554.1,1445.72 1555.11,1445.72 1556.12,1445.72 1557.13,1445.72 1558.14,1445.72 1559.15,1445.72 1560.16,1445.72 1561.17,1445.72 1562.18,1445.72 1563.19,1445.72 1564.2,1445.72 1565.22,1445.72 1566.23,1445.72 1567.24,1445.72 1568.25,1445.72 1569.26,1445.72 1570.27,1445.72 1571.28,1445.72 1572.29,1445.72 1573.3,1445.72 1574.31,1445.72 1575.33,1445.72 1576.34,1445.72 1577.35,1445.72 1578.36,1445.72 1579.37,1445.72 1580.38,1445.72 1581.39,1445.72 1582.4,1445.72 1583.41,1445.72 1584.42,1445.72 1585.44,1445.72 1586.45,1445.72 1587.46,1445.72 1588.47,1445.72 1589.48,1445.72 1590.49,1445.72 1591.5,1445.72 1592.51,1445.72 1593.52,1445.72 1594.53,1445.72 1595.54,1445.72 1596.56,1445.72 1597.57,1445.72 1598.58,1445.72 1599.59,1445.72 1600.6,1445.72 1601.61,1445.72 1602.62,1445.72 1603.63,1445.72 1604.64,1445.72 1605.65,1445.72 1606.67,1445.72 1607.68,1445.72 1608.69,1445.72 1609.7,1445.72 1610.71,1445.72 1611.72,1445.72 1612.73,1445.72 1613.74,1445.72 1614.75,1445.72 1615.76,1445.72 1616.77,1445.72 1617.79,1445.72 1618.8,1445.72 1619.81,1445.72 1620.82,1445.72 1621.83,1445.72 1622.84,1445.72 1623.85,1445.72 1624.86,1445.72 1625.87,1445.72 1626.88,1445.72 1627.9,1445.72 1628.91,1445.72 1629.92,1445.72 1630.93,1445.72 1631.94,1445.72 1632.95,1445.72 1633.96,1445.72 1634.97,1445.72 1635.98,1445.72 1636.99,1445.72 1638.01,1445.72 1639.02,1445.72 1640.03,1445.72 1641.04,1445.72 1642.05,1445.72 1643.06,1445.72 1644.07,1445.72 1645.08,1445.72 1646.09,1445.72 1647.1,1445.72 1648.11,1445.72 1649.13,1445.72 1650.14,1445.72 1651.15,1445.72 1652.16,1445.72 1653.17,1445.72 1654.18,1445.72 1655.19,1445.72 1656.2,1445.72 1657.21,1445.72 1658.22,1445.72 1659.24,1445.72 1660.25,1445.72 1661.26,1445.72 1662.27,1445.72 1663.28,1445.72 1664.29,1445.72 1665.3,1445.72 1666.31,1445.72 1667.32,1445.72 1668.33,1445.72 1669.35,1445.72 1670.36,1445.72 1671.37,1445.72 1672.38,1445.72 1673.39,1445.72 1674.4,1445.72 1675.41,1445.72 1676.42,1445.72 1677.43,1445.72 1678.44,1445.72 1679.45,1445.72 1680.47,1445.72 1681.48,1445.72 1682.49,1445.72 1683.5,1445.72 1684.51,1445.72 1685.52,1445.72 1686.53,1445.72 1687.54,1445.72 1688.55,1445.72 1689.56,1445.72 1690.58,1445.72 1691.59,1445.72 1692.6,1445.72 1693.61,1445.72 1694.62,1445.72 1695.63,1445.72 1696.64,1445.72 1697.65,1445.72 1698.66,1445.72 1699.67,1445.72 1700.68,1445.72 1701.7,1445.72 1702.71,1445.72 1703.72,1445.72 1704.73,1445.72 1705.74,1445.72 1706.75,1445.72 1707.76,1445.72 1708.77,1445.72 1709.78,1445.72 1710.79,1445.72 1711.81,1445.72 1712.82,1445.72 1713.83,1445.72 1714.84,1445.72 1715.85,1445.72 1716.86,1445.72 1717.87,1445.72 1718.88,1445.72 1719.89,1445.72 1720.9,1445.72 1721.92,1445.72 1722.93,1445.72 1723.94,1445.72 1724.95,1445.72 1725.96,1445.72 1726.97,1445.72 1727.98,1445.72 1728.99,1445.72 1730,1445.72 1731.01,1445.72 1732.02,1445.72 1733.04,1445.72 1734.05,1445.72 1735.06,1445.72 1736.07,1445.72 1737.08,1445.72 1738.09,1445.72 1739.1,1445.72 1740.11,1445.72 1741.12,1445.72 1742.13,1445.72 1743.15,1445.72 1744.16,1445.72 1745.17,1445.72 1746.18,1445.72 1747.19,1445.72 1748.2,1445.72 1749.21,1445.72 1750.22,1445.72 1751.23,1445.72 1752.24,1445.72 1753.25,1445.72 1754.27,1445.72 1755.28,1445.72 1756.29,1445.72 1757.3,1445.72 1758.31,1445.72 1759.32,1445.72 1760.33,1445.72 1761.34,1445.72 1762.35,1445.72 1763.36,1445.72 1764.38,1445.72 1765.39,1445.72 1766.4,1445.72 1767.41,1445.72 1768.42,1445.72 1769.43,1445.72 1770.44,1445.72 1771.45,1445.72 1772.46,1445.72 1773.47,1445.72 1774.49,1445.72 1775.5,1445.72 1776.51,1445.72 1777.52,1445.72 1778.53,1445.72 1779.54,1445.72 1780.55,1445.72 1781.56,1445.72 1782.57,1445.72 1783.58,1445.72 1784.59,1445.72 1785.61,1445.72 1786.62,1445.72 1787.63,1445.72 1788.64,1445.72 1789.65,1445.72 1790.66,1445.72 1791.67,1445.72 1792.68,1445.72 1793.69,1445.72 1794.7,1445.72 1795.72,1445.72 1796.73,1445.72 1797.74,1445.72 1798.75,1445.72 1799.76,1445.72 1800.77,1445.72 1801.78,1445.72 1802.79,1445.72 1803.8,1445.72 1804.81,1445.72 1805.82,1445.72 1806.84,1445.72 1807.85,1445.72 1808.86,1445.72 1809.87,1445.72 1810.88,1445.72 1811.89,1445.72 1812.9,1445.72 1813.91,1445.72 1814.92,1445.72 1815.93,1445.72 1816.95,1445.72 1817.96,1445.72 1818.97,1445.72 1819.98,1445.72 1820.99,1445.72 1822,1445.72 1823.01,1445.72 1824.02,1445.72 1825.03,1445.72 1826.04,1445.72 1827.06,1445.72 1828.07,1445.72 1829.08,1445.72 1830.09,1445.72 1831.1,1445.72 1832.11,1445.72 1833.12,1445.72 1834.13,1445.72 1835.14,1445.72 1836.15,1445.72 1837.16,1445.72 1838.18,1445.72 1839.19,1445.72 1840.2,1445.72 1841.21,1445.72 1842.22,1445.72 1843.23,1445.72 1844.24,1445.72 1845.25,1445.72 1846.26,1445.72 1847.27,1445.72 1848.29,1445.72 1849.3,1445.72 1850.31,1445.72 1851.32,1445.72 1852.33,1445.72 1853.34,1445.72 1854.35,1445.72 1855.36,1445.72 1856.37,1445.72 1857.38,1445.72 1858.4,1445.72 1859.41,1445.72 1860.42,1445.72 1861.43,1445.72 1862.44,1445.72 1863.45,1445.72 1864.46,1445.72 1865.47,1445.72 1866.48,1445.72 1867.49,1445.72 1868.5,1445.72 1869.52,1445.72 1870.53,1445.72 1871.54,1445.72 1872.55,1445.72 1873.56,1445.72 1874.57,1445.72 1875.58,1445.72 1876.59,1445.72 1877.6,1445.72 1878.61,1445.72 1879.63,1445.72 1880.64,1445.72 1881.65,1445.72 1882.66,1445.72 1883.67,1445.72 1884.68,1445.72 1885.69,1445.72 1886.7,1445.72 1887.71,1445.72 1888.72,1445.72 1889.73,1445.72 1890.75,1445.72 1891.76,1445.72 1892.77,1445.72 1893.78,1445.72 1894.79,1445.72 1895.8,1445.72 1896.81,1445.72 1897.82,1445.72 1898.83,1445.72 1899.84,1445.72 1900.86,1445.72 1901.87,1445.72 1902.88,1445.72 1903.89,1445.72 1904.9,1445.72 1905.91,1445.72 1906.92,1445.72 1907.93,1445.72 1908.94,1445.72 1909.95,1445.72 1910.97,1445.72 1911.98,1445.72 1912.99,1445.72 1914,1445.72 1915.01,1445.72 1916.02,1445.72 1917.03,1445.72 1918.04,1445.72 1919.05,1445.72 1920.06,1445.72 1921.07,1445.72 1922.09,1445.72 1923.1,1445.72 1924.11,1445.72 1925.12,1445.72 1926.13,1445.72 1927.14,1445.72 1928.15,1445.72 1929.16,1445.72 1930.17,1445.72 1931.18,1445.72 1932.2,1445.72 1933.21,1445.72 1934.22,1445.72 1935.23,1445.72 1936.24,1445.72 1937.25,1445.72 1938.26,1445.72 1939.27,1445.72 1940.28,1445.72 1941.29,1445.72 1942.3,1445.72 1943.32,1445.72 1944.33,1445.72 1945.34,1445.72 1946.35,1445.72 1947.36,1445.72 1948.37,1445.72 1949.38,1445.72 1950.39,1445.72 1951.4,1445.72 1952.41,1445.72 1953.43,1445.72 1954.44,1445.72 1955.45,1445.72 1956.46,1445.72 1957.47,1445.72 1958.48,1445.72 1959.49,1445.72 1960.5,1445.72 1961.51,1445.72 1962.52,1445.72 1963.54,1445.72 1964.55,1445.72 1965.56,1445.72 1966.57,1445.72 1967.58,1445.72 1968.59,1445.72 1969.6,1445.72 1970.61,1445.72 1971.62,1445.72 1972.63,1445.72 1973.64,1445.72 1974.66,1445.72 1975.67,1445.72 1976.68,1445.72 1977.69,1445.72 1978.7,1445.72 1979.71,1445.72 1980.72,1445.72 1981.73,1445.72 1982.74,1445.72 1983.75,1445.72 1984.77,1445.72 1985.78,1445.72 1986.79,1445.72 1987.8,1445.72 1988.81,1445.72 1989.82,1445.72 1990.83,1445.72 1991.84,1445.72 1992.85,1445.72 1993.86,1445.72 1994.88,1445.72 1995.89,1445.72 1996.9,1445.72 1997.91,1445.72 1998.92,1445.72 1999.93,1445.72 2000.94,1445.72 2001.95,1445.72 2002.96,1445.72 2003.97,1445.72 2004.98,1445.72 2006,1445.72 2007.01,1445.72 2008.02,1445.72 2009.03,1445.72 2010.04,1445.72 2011.05,1445.72 2012.06,1445.72 2013.07,1445.72 2014.08,1445.72 2015.09,1445.72 2016.11,1445.72 2017.12,1445.72 2018.13,1445.72 2019.14,1445.72 2020.15,1445.72 2021.16,1445.72 2022.17,1445.72 2023.18,1445.72 2024.19,1445.72 2025.2,1445.72 2026.21,1445.72 2027.23,1445.72 2028.24,1445.72 2029.25,1445.72 2030.26,1445.72 2031.27,1445.72 2032.28,1445.72 2033.29,1445.72 2034.3,1445.72 2035.31,1445.72 2036.32,1445.72 2037.34,1445.72 2038.35,1445.72 2039.36,1445.72 2040.37,1445.72 2041.38,1445.72 2042.39,1445.72 2043.4,1445.72 2044.41,1445.72 2045.42,1445.72 2046.43,1445.72 2047.45,1445.72 2048.46,1445.72 2049.47,1445.72 2050.48,1445.72 2051.49,1445.72 2052.5,1445.72 2053.51,1445.72 2054.52,1445.72 2055.53,1445.72 2056.54,1445.72 2057.55,1445.72 2058.57,1445.72 2059.58,1445.72 2060.59,1445.72 2061.6,1445.72 2062.61,1445.72 2063.62,1445.72 2064.63,1445.72 2065.64,1445.72 2066.65,1445.72 2067.66,1445.72 2068.68,1445.72 2069.69,1445.72 2070.7,1445.72 2071.71,1445.72 2072.72,1445.72 2073.73,1445.72 2074.74,1445.72 2075.75,1445.72 2076.76,1445.72 2077.77,1445.72 2078.78,1445.72 2079.8,1445.72 2080.81,1445.72 2081.82,1445.72 2082.83,1445.72 2083.84,1445.72 2084.85,1445.72 2085.86,1445.72 2086.87,1445.72 2087.88,1445.72 2088.89,1445.72 2089.91,1445.72 2090.92,1445.72 2091.93,1445.72 2092.94,1445.72 2093.95,1445.72 2094.96,1445.72 2095.97,1445.72 2096.98,1445.72 2097.99,1445.72 2099,1445.72 2100.02,1445.72 2101.03,1445.72 2102.04,1445.72 2103.05,1445.72 2104.06,1445.72 2105.07,1445.72 2106.08,1445.72 2107.09,1445.72 2108.1,1445.72 2109.11,1445.72 2110.12,1445.72 2111.14,1445.72 2112.15,1445.72 2113.16,1445.72 2114.17,1445.72 2115.18,1445.72 2116.19,1445.72 2117.2,1445.72 2118.21,1445.72 2119.22,1445.72 2120.23,1445.72 2121.25,1445.72 2122.26,1445.72 2123.27,1445.72 2124.28,1445.72 2125.29,1445.72 2126.3,1445.72 2127.31,1445.72 2128.32,1445.72 2129.33,1445.72 2130.34,1445.72 2131.36,1445.72 2132.37,1445.72 2133.38,1445.72 2134.39,1445.72 2135.4,1445.72 2136.41,1445.72 2137.42,1445.72 2138.43,1445.72 2139.44,1445.72 2140.45,1445.72 2141.46,1445.72 2142.48,1445.72 2143.49,1445.72 2144.5,1445.72 2145.51,1445.72 2146.52,1445.72 2147.53,1445.72 2148.54,1445.72 2149.55,1445.72 2150.56,1445.72 2151.57,1445.72 2152.59,1445.72 2153.6,1445.72 2154.61,1445.72 2155.62,1445.72 2156.63,1445.72 2157.64,1445.72 2158.65,1445.72 2159.66,1445.72 2160.67,1445.72 2161.68,1445.72 2162.69,1445.72 2163.71,1445.72 2164.72,1445.72 2165.73,1445.72 2166.74,1445.72 2167.75,1445.72 2168.76,1445.72 2169.77,1445.72 2170.78,1445.72 2171.79,1445.72 2172.8,1445.72 2173.82,1445.72 2174.83,1445.72 2175.84,1445.72 2176.85,1445.72 2177.86,1445.72 2178.87,1445.72 2179.88,1445.72 2180.89,1445.72 2181.9,1445.72 2182.91,1445.72 2183.93,1445.72 2184.94,1445.72 2185.95,1445.72 2186.96,1445.72 2187.97,1445.72 2188.98,1445.72 2189.99,1445.72 2191,1445.72 2192.01,1445.72 2193.02,1445.72 2194.03,1445.72 2195.05,1445.72 2196.06,1445.72 2197.07,1445.72 2198.08,1445.72 2199.09,1445.72 2200.1,1445.72 2201.11,1445.72 2202.12,1445.72 2203.13,1445.72 2204.14,1445.72 2205.16,1445.72 2206.17,1445.72 2207.18,1445.72 2208.19,1445.72 2209.2,1445.72 2210.21,1445.72 2211.22,1445.72 2212.23,1445.72 2213.24,1445.72 2214.25,1445.72 2215.26,1445.72 2216.28,1445.72 2217.29,1445.72 2218.3,1445.72 2219.31,1445.72 2220.32,1445.72 2221.33,1445.72 2222.34,1445.72 2223.35,1445.72 2224.36,1445.72 2225.37,1445.72 2226.39,1445.72 2227.4,1445.72 2228.41,1445.72 2229.42,1445.72 2230.43,1445.72 2231.44,1445.72 2232.45,1445.72 2233.46,1445.72 2234.47,1445.72 2235.48,1445.72 2236.5,1445.72 2237.51,1445.72 2238.52,1445.72 2239.53,1445.72 2240.54,1445.72 2241.55,1445.72 2242.56,1445.72 2243.57,1445.72 2244.58,1445.72 2245.59,1445.72 2246.6,1445.72 2247.62,1445.72 2248.63,1445.72 2249.64,1445.72 2250.65,1445.72 2251.66,1445.72 2252.67,1445.72 2253.68,1445.72 2254.69,1445.72 2255.7,1445.72 2256.71,1445.72 2257.73,1445.72 2258.74,1445.72 2259.75,1445.72 2260.76,1445.72 2261.77,1445.72 2262.78,1445.72 2263.79,1445.72 2264.8,1445.72 2265.81,1445.72 2266.82,1445.72 2267.84,1445.72 2268.85,1445.72 2269.86,1445.72 2270.87,1445.72 2271.88,1445.72 2272.89,1445.72 2273.9,1445.72 2274.91,1445.72 2275.92,1445.72 2276.93,1445.72 2277.94,1445.72 2278.96,1445.72 2279.97,1445.72 2280.98,1445.72 2281.99,1445.72 2283,1445.72 2284.01,1445.72 2285.02,1445.72 2286.03,1445.72 2287.04,1445.72 2288.05,1445.72 2289.07,1445.72 2290.08,1445.72 2291.09,1445.72 2292.1,1445.72 "/>
<path clip-path="url(#clip390)" d="M2014.56 198.898 L2281.31 198.898 L2281.31 95.2176 L2014.56 95.2176  Z" fill="#ffffff" fill-rule="evenodd" fill-opacity="1"/>
<polyline clip-path="url(#clip390)" style="stroke:#000000; stroke-linecap:round; stroke-linejoin:round; stroke-width:4; stroke-opacity:1; fill:none" points="2014.56,198.898 2281.31,198.898 2281.31,95.2176 2014.56,95.2176 2014.56,198.898 "/>
<polyline clip-path="url(#clip390)" style="stroke:#009af9; stroke-linecap:round; stroke-linejoin:round; stroke-width:4; stroke-opacity:1; fill:none" points="2038.37,147.058 2181.26,147.058 "/>
<path clip-path="url(#clip390)" d="M2218.91 166.745 Q2217.11 171.375 2215.39 172.787 Q2213.68 174.199 2210.81 174.199 L2207.41 174.199 L2207.41 170.634 L2209.91 170.634 Q2211.67 170.634 2212.64 169.8 Q2213.61 168.967 2214.79 165.865 L2215.56 163.921 L2205.07 138.412 L2209.58 138.412 L2217.69 158.689 L2225.79 138.412 L2230.3 138.412 L2218.91 166.745 Z" fill="#000000" fill-rule="nonzero" fill-opacity="1" /><path clip-path="url(#clip390)" d="M2237.59 160.402 L2245.23 160.402 L2245.23 134.037 L2236.92 135.703 L2236.92 131.444 L2245.19 129.778 L2249.86 129.778 L2249.86 160.402 L2257.5 160.402 L2257.5 164.338 L2237.59 164.338 L2237.59 160.402 Z" fill="#000000" fill-rule="nonzero" fill-opacity="1" /></svg>
