<?xml version="1.0" encoding="utf-8"?>
<svg xmlns="http://www.w3.org/2000/svg" xmlns:xlink="http://www.w3.org/1999/xlink" width="600" height="400" viewBox="0 0 2400 1600">
<defs>
  <clipPath id="clip790">
    <rect x="0" y="0" width="2400" height="1600"/>
  </clipPath>
</defs>
<path clip-path="url(#clip790)" d="M0 1600 L2400 1600 L2400 0 L0 0  Z" fill="#ffffff" fill-rule="evenodd" fill-opacity="1"/>
<defs>
  <clipPath id="clip791">
    <rect x="480" y="0" width="1681" height="1600"/>
  </clipPath>
</defs>
<path clip-path="url(#clip790)" d="M209.029 1486.45 L2352.76 1486.45 L2352.76 47.2441 L209.029 47.2441  Z" fill="#ffffff" fill-rule="evenodd" fill-opacity="1"/>
<defs>
  <clipPath id="clip792">
    <rect x="209" y="47" width="2145" height="1440"/>
  </clipPath>
</defs>
<polyline clip-path="url(#clip792)" style="stroke:#000000; stroke-linecap:round; stroke-linejoin:round; stroke-width:2; stroke-opacity:0.1; fill:none" points="269.7,1486.45 269.7,47.2441 "/>
<polyline clip-path="url(#clip792)" style="stroke:#000000; stroke-linecap:round; stroke-linejoin:round; stroke-width:2; stroke-opacity:0.1; fill:none" points="848.351,1486.45 848.351,47.2441 "/>
<polyline clip-path="url(#clip792)" style="stroke:#000000; stroke-linecap:round; stroke-linejoin:round; stroke-width:2; stroke-opacity:0.1; fill:none" points="1427,1486.45 1427,47.2441 "/>
<polyline clip-path="url(#clip792)" style="stroke:#000000; stroke-linecap:round; stroke-linejoin:round; stroke-width:2; stroke-opacity:0.1; fill:none" points="2005.65,1486.45 2005.65,47.2441 "/>
<polyline clip-path="url(#clip790)" style="stroke:#000000; stroke-linecap:round; stroke-linejoin:round; stroke-width:4; stroke-opacity:1; fill:none" points="209.029,1486.45 2352.76,1486.45 "/>
<polyline clip-path="url(#clip790)" style="stroke:#000000; stroke-linecap:round; stroke-linejoin:round; stroke-width:4; stroke-opacity:1; fill:none" points="269.7,1486.45 269.7,1467.55 "/>
<polyline clip-path="url(#clip790)" style="stroke:#000000; stroke-linecap:round; stroke-linejoin:round; stroke-width:4; stroke-opacity:1; fill:none" points="848.351,1486.45 848.351,1467.55 "/>
<polyline clip-path="url(#clip790)" style="stroke:#000000; stroke-linecap:round; stroke-linejoin:round; stroke-width:4; stroke-opacity:1; fill:none" points="1427,1486.45 1427,1467.55 "/>
<polyline clip-path="url(#clip790)" style="stroke:#000000; stroke-linecap:round; stroke-linejoin:round; stroke-width:4; stroke-opacity:1; fill:none" points="2005.65,1486.45 2005.65,1467.55 "/>
<path clip-path="url(#clip790)" d="M269.7 1517.37 Q266.089 1517.37 264.26 1520.93 Q262.455 1524.47 262.455 1531.6 Q262.455 1538.71 264.26 1542.27 Q266.089 1545.82 269.7 1545.82 Q273.334 1545.82 275.14 1542.27 Q276.969 1538.71 276.969 1531.6 Q276.969 1524.47 275.14 1520.93 Q273.334 1517.37 269.7 1517.37 M269.7 1513.66 Q275.51 1513.66 278.566 1518.27 Q281.644 1522.85 281.644 1531.6 Q281.644 1540.33 278.566 1544.94 Q275.51 1549.52 269.7 1549.52 Q263.89 1549.52 260.811 1544.94 Q257.756 1540.33 257.756 1531.6 Q257.756 1522.85 260.811 1518.27 Q263.89 1513.66 269.7 1513.66 Z" fill="#000000" fill-rule="nonzero" fill-opacity="1" /><path clip-path="url(#clip790)" d="M812.043 1544.91 L828.362 1544.91 L828.362 1548.85 L806.418 1548.85 L806.418 1544.91 Q809.08 1542.16 813.663 1537.53 Q818.27 1532.88 819.45 1531.53 Q821.696 1529.01 822.575 1527.27 Q823.478 1525.51 823.478 1523.82 Q823.478 1521.07 821.534 1519.33 Q819.613 1517.6 816.511 1517.6 Q814.312 1517.6 811.858 1518.36 Q809.427 1519.13 806.65 1520.68 L806.65 1515.95 Q809.474 1514.82 811.927 1514.24 Q814.381 1513.66 816.418 1513.66 Q821.788 1513.66 824.983 1516.35 Q828.177 1519.03 828.177 1523.52 Q828.177 1525.65 827.367 1527.57 Q826.58 1529.47 824.474 1532.07 Q823.895 1532.74 820.793 1535.95 Q817.691 1539.15 812.043 1544.91 Z" fill="#000000" fill-rule="nonzero" fill-opacity="1" /><path clip-path="url(#clip790)" d="M848.177 1517.37 Q844.566 1517.37 842.737 1520.93 Q840.932 1524.47 840.932 1531.6 Q840.932 1538.71 842.737 1542.27 Q844.566 1545.82 848.177 1545.82 Q851.811 1545.82 853.617 1542.27 Q855.446 1538.71 855.446 1531.6 Q855.446 1524.47 853.617 1520.93 Q851.811 1517.37 848.177 1517.37 M848.177 1513.66 Q853.987 1513.66 857.043 1518.27 Q860.122 1522.85 860.122 1531.6 Q860.122 1540.33 857.043 1544.94 Q853.987 1549.52 848.177 1549.52 Q842.367 1549.52 839.288 1544.94 Q836.233 1540.33 836.233 1531.6 Q836.233 1522.85 839.288 1518.27 Q842.367 1513.66 848.177 1513.66 Z" fill="#000000" fill-rule="nonzero" fill-opacity="1" /><path clip-path="url(#clip790)" d="M878.339 1517.37 Q874.728 1517.37 872.899 1520.93 Q871.094 1524.47 871.094 1531.6 Q871.094 1538.71 872.899 1542.27 Q874.728 1545.82 878.339 1545.82 Q881.973 1545.82 883.779 1542.27 Q885.608 1538.71 885.608 1531.6 Q885.608 1524.47 883.779 1520.93 Q881.973 1517.37 878.339 1517.37 M878.339 1513.66 Q884.149 1513.66 887.205 1518.27 Q890.283 1522.85 890.283 1531.6 Q890.283 1540.33 887.205 1544.94 Q884.149 1549.52 878.339 1549.52 Q872.529 1549.52 869.45 1544.94 Q866.395 1540.33 866.395 1531.6 Q866.395 1522.85 869.45 1518.27 Q872.529 1513.66 878.339 1513.66 Z" fill="#000000" fill-rule="nonzero" fill-opacity="1" /><path clip-path="url(#clip790)" d="M1400.09 1518.36 L1388.29 1536.81 L1400.09 1536.81 L1400.09 1518.36 M1398.87 1514.29 L1404.74 1514.29 L1404.74 1536.81 L1409.68 1536.81 L1409.68 1540.7 L1404.74 1540.7 L1404.74 1548.85 L1400.09 1548.85 L1400.09 1540.7 L1384.49 1540.7 L1384.49 1536.19 L1398.87 1514.29 Z" fill="#000000" fill-rule="nonzero" fill-opacity="1" /><path clip-path="url(#clip790)" d="M1427.41 1517.37 Q1423.8 1517.37 1421.97 1520.93 Q1420.16 1524.47 1420.16 1531.6 Q1420.16 1538.71 1421.97 1542.27 Q1423.8 1545.82 1427.41 1545.82 Q1431.04 1545.82 1432.85 1542.27 Q1434.68 1538.71 1434.68 1531.6 Q1434.68 1524.47 1432.85 1520.93 Q1431.04 1517.37 1427.41 1517.37 M1427.41 1513.66 Q1433.22 1513.66 1436.27 1518.27 Q1439.35 1522.85 1439.35 1531.6 Q1439.35 1540.33 1436.27 1544.94 Q1433.22 1549.52 1427.41 1549.52 Q1421.6 1549.52 1418.52 1544.94 Q1415.46 1540.33 1415.46 1531.6 Q1415.46 1522.85 1418.52 1518.27 Q1421.6 1513.66 1427.41 1513.66 Z" fill="#000000" fill-rule="nonzero" fill-opacity="1" /><path clip-path="url(#clip790)" d="M1457.57 1517.37 Q1453.96 1517.37 1452.13 1520.93 Q1450.32 1524.47 1450.32 1531.6 Q1450.32 1538.71 1452.13 1542.27 Q1453.96 1545.82 1457.57 1545.82 Q1461.2 1545.82 1463.01 1542.27 Q1464.84 1538.71 1464.84 1531.6 Q1464.84 1524.47 1463.01 1520.93 Q1461.2 1517.37 1457.57 1517.37 M1457.57 1513.66 Q1463.38 1513.66 1466.43 1518.27 Q1469.51 1522.85 1469.51 1531.6 Q1469.51 1540.33 1466.43 1544.94 Q1463.38 1549.52 1457.57 1549.52 Q1451.76 1549.52 1448.68 1544.94 Q1445.62 1540.33 1445.62 1531.6 Q1445.62 1522.85 1448.68 1518.27 Q1451.76 1513.66 1457.57 1513.66 Z" fill="#000000" fill-rule="nonzero" fill-opacity="1" /><path clip-path="url(#clip790)" d="M1975.98 1529.7 Q1972.83 1529.7 1970.98 1531.86 Q1969.15 1534.01 1969.15 1537.76 Q1969.15 1541.49 1970.98 1543.66 Q1972.83 1545.82 1975.98 1545.82 Q1979.12 1545.82 1980.95 1543.66 Q1982.81 1541.49 1982.81 1537.76 Q1982.81 1534.01 1980.95 1531.86 Q1979.12 1529.7 1975.98 1529.7 M1985.26 1515.05 L1985.26 1519.31 Q1983.5 1518.48 1981.69 1518.04 Q1979.91 1517.6 1978.15 1517.6 Q1973.52 1517.6 1971.07 1520.72 Q1968.64 1523.85 1968.29 1530.17 Q1969.66 1528.15 1971.72 1527.09 Q1973.78 1526 1976.25 1526 Q1981.46 1526 1984.47 1529.17 Q1987.5 1532.32 1987.5 1537.76 Q1987.5 1543.08 1984.36 1546.3 Q1981.21 1549.52 1975.98 1549.52 Q1969.98 1549.52 1966.81 1544.94 Q1963.64 1540.33 1963.64 1531.6 Q1963.64 1523.41 1967.53 1518.55 Q1971.42 1513.66 1977.97 1513.66 Q1979.73 1513.66 1981.51 1514.01 Q1983.31 1514.36 1985.26 1515.05 Z" fill="#000000" fill-rule="nonzero" fill-opacity="1" /><path clip-path="url(#clip790)" d="M2005.56 1517.37 Q2001.95 1517.37 2000.12 1520.93 Q1998.31 1524.47 1998.31 1531.6 Q1998.31 1538.71 2000.12 1542.27 Q2001.95 1545.82 2005.56 1545.82 Q2009.19 1545.82 2011 1542.27 Q2012.83 1538.71 2012.83 1531.6 Q2012.83 1524.47 2011 1520.93 Q2009.19 1517.37 2005.56 1517.37 M2005.56 1513.66 Q2011.37 1513.66 2014.43 1518.27 Q2017.5 1522.85 2017.5 1531.6 Q2017.5 1540.33 2014.43 1544.94 Q2011.37 1549.52 2005.56 1549.52 Q1999.75 1549.52 1996.67 1544.94 Q1993.62 1540.33 1993.62 1531.6 Q1993.62 1522.85 1996.67 1518.27 Q1999.75 1513.66 2005.56 1513.66 Z" fill="#000000" fill-rule="nonzero" fill-opacity="1" /><path clip-path="url(#clip790)" d="M2035.72 1517.37 Q2032.11 1517.37 2030.28 1520.93 Q2028.48 1524.47 2028.48 1531.6 Q2028.48 1538.71 2030.28 1542.27 Q2032.11 1545.82 2035.72 1545.82 Q2039.36 1545.82 2041.16 1542.27 Q2042.99 1538.71 2042.99 1531.6 Q2042.99 1524.47 2041.16 1520.93 Q2039.36 1517.37 2035.72 1517.37 M2035.72 1513.66 Q2041.53 1513.66 2044.59 1518.27 Q2047.67 1522.85 2047.67 1531.6 Q2047.67 1540.33 2044.59 1544.94 Q2041.53 1549.52 2035.72 1549.52 Q2029.91 1549.52 2026.83 1544.94 Q2023.78 1540.33 2023.78 1531.6 Q2023.78 1522.85 2026.83 1518.27 Q2029.91 1513.66 2035.72 1513.66 Z" fill="#000000" fill-rule="nonzero" fill-opacity="1" /><polyline clip-path="url(#clip792)" style="stroke:#000000; stroke-linecap:round; stroke-linejoin:round; stroke-width:2; stroke-opacity:0.1; fill:none" points="209.029,1420.27 2352.76,1420.27 "/>
<polyline clip-path="url(#clip792)" style="stroke:#000000; stroke-linecap:round; stroke-linejoin:round; stroke-width:2; stroke-opacity:0.1; fill:none" points="209.029,1163.19 2352.76,1163.19 "/>
<polyline clip-path="url(#clip792)" style="stroke:#000000; stroke-linecap:round; stroke-linejoin:round; stroke-width:2; stroke-opacity:0.1; fill:none" points="209.029,906.107 2352.76,906.107 "/>
<polyline clip-path="url(#clip792)" style="stroke:#000000; stroke-linecap:round; stroke-linejoin:round; stroke-width:2; stroke-opacity:0.1; fill:none" points="209.029,649.026 2352.76,649.026 "/>
<polyline clip-path="url(#clip792)" style="stroke:#000000; stroke-linecap:round; stroke-linejoin:round; stroke-width:2; stroke-opacity:0.1; fill:none" points="209.029,391.946 2352.76,391.946 "/>
<polyline clip-path="url(#clip792)" style="stroke:#000000; stroke-linecap:round; stroke-linejoin:round; stroke-width:2; stroke-opacity:0.1; fill:none" points="209.029,134.865 2352.76,134.865 "/>
<polyline clip-path="url(#clip790)" style="stroke:#000000; stroke-linecap:round; stroke-linejoin:round; stroke-width:4; stroke-opacity:1; fill:none" points="209.029,1486.45 209.029,47.2441 "/>
<polyline clip-path="url(#clip790)" style="stroke:#000000; stroke-linecap:round; stroke-linejoin:round; stroke-width:4; stroke-opacity:1; fill:none" points="209.029,1420.27 227.926,1420.27 "/>
<polyline clip-path="url(#clip790)" style="stroke:#000000; stroke-linecap:round; stroke-linejoin:round; stroke-width:4; stroke-opacity:1; fill:none" points="209.029,1163.19 227.926,1163.19 "/>
<polyline clip-path="url(#clip790)" style="stroke:#000000; stroke-linecap:round; stroke-linejoin:round; stroke-width:4; stroke-opacity:1; fill:none" points="209.029,906.107 227.926,906.107 "/>
<polyline clip-path="url(#clip790)" style="stroke:#000000; stroke-linecap:round; stroke-linejoin:round; stroke-width:4; stroke-opacity:1; fill:none" points="209.029,649.026 227.926,649.026 "/>
<polyline clip-path="url(#clip790)" style="stroke:#000000; stroke-linecap:round; stroke-linejoin:round; stroke-width:4; stroke-opacity:1; fill:none" points="209.029,391.946 227.926,391.946 "/>
<polyline clip-path="url(#clip790)" style="stroke:#000000; stroke-linecap:round; stroke-linejoin:round; stroke-width:4; stroke-opacity:1; fill:none" points="209.029,134.865 227.926,134.865 "/>
<path clip-path="url(#clip790)" d="M50.9921 1420.72 L80.6679 1420.72 L80.6679 1424.65 L50.9921 1424.65 L50.9921 1420.72 Z" fill="#000000" fill-rule="nonzero" fill-opacity="1" /><path clip-path="url(#clip790)" d="M104.927 1418.91 Q108.283 1419.63 110.158 1421.9 Q112.057 1424.17 112.057 1427.5 Q112.057 1432.62 108.538 1435.42 Q105.02 1438.22 98.5382 1438.22 Q96.3623 1438.22 94.0475 1437.78 Q91.7558 1437.36 89.3021 1436.51 L89.3021 1431.99 Q91.2465 1433.13 93.5613 1433.7 Q95.8761 1434.28 98.3993 1434.28 Q102.797 1434.28 105.089 1432.55 Q107.404 1430.81 107.404 1427.5 Q107.404 1424.45 105.251 1422.73 Q103.121 1421 99.3021 1421 L95.2743 1421 L95.2743 1417.15 L99.4872 1417.15 Q102.936 1417.15 104.765 1415.79 Q106.594 1414.4 106.594 1411.81 Q106.594 1409.14 104.696 1407.73 Q102.821 1406.3 99.3021 1406.3 Q97.3808 1406.3 95.1817 1406.71 Q92.9826 1407.13 90.3438 1408.01 L90.3438 1403.84 Q93.0058 1403.1 95.3206 1402.73 Q97.6585 1402.36 99.7187 1402.36 Q105.043 1402.36 108.145 1404.79 Q111.246 1407.2 111.246 1411.32 Q111.246 1414.19 109.603 1416.18 Q107.959 1418.15 104.927 1418.91 Z" fill="#000000" fill-rule="nonzero" fill-opacity="1" /><path clip-path="url(#clip790)" d="M130.922 1406.07 Q127.311 1406.07 125.482 1409.63 Q123.677 1413.17 123.677 1420.3 Q123.677 1427.41 125.482 1430.97 Q127.311 1434.51 130.922 1434.51 Q134.556 1434.51 136.362 1430.97 Q138.191 1427.41 138.191 1420.3 Q138.191 1413.17 136.362 1409.63 Q134.556 1406.07 130.922 1406.07 M130.922 1402.36 Q136.732 1402.36 139.788 1406.97 Q142.867 1411.55 142.867 1420.3 Q142.867 1429.03 139.788 1433.64 Q136.732 1438.22 130.922 1438.22 Q125.112 1438.22 122.033 1433.64 Q118.978 1429.03 118.978 1420.3 Q118.978 1411.55 122.033 1406.97 Q125.112 1402.36 130.922 1402.36 Z" fill="#000000" fill-rule="nonzero" fill-opacity="1" /><path clip-path="url(#clip790)" d="M161.084 1406.07 Q157.473 1406.07 155.644 1409.63 Q153.839 1413.17 153.839 1420.3 Q153.839 1427.41 155.644 1430.97 Q157.473 1434.51 161.084 1434.51 Q164.718 1434.51 166.524 1430.97 Q168.353 1427.41 168.353 1420.3 Q168.353 1413.17 166.524 1409.63 Q164.718 1406.07 161.084 1406.07 M161.084 1402.36 Q166.894 1402.36 169.95 1406.97 Q173.029 1411.55 173.029 1420.3 Q173.029 1429.03 169.95 1433.64 Q166.894 1438.22 161.084 1438.22 Q155.274 1438.22 152.195 1433.64 Q149.14 1429.03 149.14 1420.3 Q149.14 1411.55 152.195 1406.97 Q155.274 1402.36 161.084 1402.36 Z" fill="#000000" fill-rule="nonzero" fill-opacity="1" /><path clip-path="url(#clip790)" d="M50.9921 1163.64 L80.6679 1163.64 L80.6679 1167.57 L50.9921 1167.57 L50.9921 1163.64 Z" fill="#000000" fill-rule="nonzero" fill-opacity="1" /><path clip-path="url(#clip790)" d="M94.7882 1176.53 L111.108 1176.53 L111.108 1180.47 L89.1632 1180.47 L89.1632 1176.53 Q91.8252 1173.78 96.4085 1169.15 Q101.015 1164.49 102.196 1163.15 Q104.441 1160.63 105.321 1158.89 Q106.223 1157.13 106.223 1155.44 Q106.223 1152.69 104.279 1150.95 Q102.358 1149.22 99.2558 1149.22 Q97.0567 1149.22 94.603 1149.98 Q92.1725 1150.74 89.3947 1152.3 L89.3947 1147.57 Q92.2188 1146.44 94.6724 1145.86 Q97.1261 1145.28 99.1632 1145.28 Q104.534 1145.28 107.728 1147.97 Q110.922 1150.65 110.922 1155.14 Q110.922 1157.27 110.112 1159.19 Q109.325 1161.09 107.219 1163.68 Q106.64 1164.36 103.538 1167.57 Q100.436 1170.77 94.7882 1176.53 Z" fill="#000000" fill-rule="nonzero" fill-opacity="1" /><path clip-path="url(#clip790)" d="M120.969 1145.91 L139.325 1145.91 L139.325 1149.84 L125.251 1149.84 L125.251 1158.31 Q126.27 1157.97 127.288 1157.81 Q128.307 1157.62 129.325 1157.62 Q135.112 1157.62 138.492 1160.79 Q141.871 1163.96 141.871 1169.38 Q141.871 1174.96 138.399 1178.06 Q134.927 1181.14 128.607 1181.14 Q126.432 1181.14 124.163 1180.77 Q121.918 1180.4 119.51 1179.66 L119.51 1174.96 Q121.594 1176.09 123.816 1176.65 Q126.038 1177.2 128.515 1177.2 Q132.519 1177.2 134.857 1175.1 Q137.195 1172.99 137.195 1169.38 Q137.195 1165.77 134.857 1163.66 Q132.519 1161.56 128.515 1161.56 Q126.64 1161.56 124.765 1161.97 Q122.913 1162.39 120.969 1163.27 L120.969 1145.91 Z" fill="#000000" fill-rule="nonzero" fill-opacity="1" /><path clip-path="url(#clip790)" d="M161.084 1148.99 Q157.473 1148.99 155.644 1152.55 Q153.839 1156.09 153.839 1163.22 Q153.839 1170.33 155.644 1173.89 Q157.473 1177.43 161.084 1177.43 Q164.718 1177.43 166.524 1173.89 Q168.353 1170.33 168.353 1163.22 Q168.353 1156.09 166.524 1152.55 Q164.718 1148.99 161.084 1148.99 M161.084 1145.28 Q166.894 1145.28 169.95 1149.89 Q173.029 1154.47 173.029 1163.22 Q173.029 1171.95 169.95 1176.55 Q166.894 1181.14 161.084 1181.14 Q155.274 1181.14 152.195 1176.55 Q149.14 1171.95 149.14 1163.22 Q149.14 1154.47 152.195 1149.89 Q155.274 1145.28 161.084 1145.28 Z" fill="#000000" fill-rule="nonzero" fill-opacity="1" /><path clip-path="url(#clip790)" d="M50.9921 906.558 L80.6679 906.558 L80.6679 910.493 L50.9921 910.493 L50.9921 906.558 Z" fill="#000000" fill-rule="nonzero" fill-opacity="1" /><path clip-path="url(#clip790)" d="M94.7882 919.451 L111.108 919.451 L111.108 923.387 L89.1632 923.387 L89.1632 919.451 Q91.8252 916.697 96.4085 912.067 Q101.015 907.414 102.196 906.072 Q104.441 903.549 105.321 901.813 Q106.223 900.053 106.223 898.364 Q106.223 895.609 104.279 893.873 Q102.358 892.137 99.2558 892.137 Q97.0567 892.137 94.603 892.901 Q92.1725 893.664 89.3947 895.215 L89.3947 890.493 Q92.2188 889.359 94.6724 888.78 Q97.1261 888.202 99.1632 888.202 Q104.534 888.202 107.728 890.887 Q110.922 893.572 110.922 898.063 Q110.922 900.192 110.112 902.114 Q109.325 904.012 107.219 906.604 Q106.64 907.276 103.538 910.493 Q100.436 913.688 94.7882 919.451 Z" fill="#000000" fill-rule="nonzero" fill-opacity="1" /><path clip-path="url(#clip790)" d="M130.922 891.905 Q127.311 891.905 125.482 895.47 Q123.677 899.012 123.677 906.141 Q123.677 913.248 125.482 916.813 Q127.311 920.354 130.922 920.354 Q134.556 920.354 136.362 916.813 Q138.191 913.248 138.191 906.141 Q138.191 899.012 136.362 895.47 Q134.556 891.905 130.922 891.905 M130.922 888.202 Q136.732 888.202 139.788 892.808 Q142.867 897.391 142.867 906.141 Q142.867 914.868 139.788 919.475 Q136.732 924.058 130.922 924.058 Q125.112 924.058 122.033 919.475 Q118.978 914.868 118.978 906.141 Q118.978 897.391 122.033 892.808 Q125.112 888.202 130.922 888.202 Z" fill="#000000" fill-rule="nonzero" fill-opacity="1" /><path clip-path="url(#clip790)" d="M161.084 891.905 Q157.473 891.905 155.644 895.47 Q153.839 899.012 153.839 906.141 Q153.839 913.248 155.644 916.813 Q157.473 920.354 161.084 920.354 Q164.718 920.354 166.524 916.813 Q168.353 913.248 168.353 906.141 Q168.353 899.012 166.524 895.47 Q164.718 891.905 161.084 891.905 M161.084 888.202 Q166.894 888.202 169.95 892.808 Q173.029 897.391 173.029 906.141 Q173.029 914.868 169.95 919.475 Q166.894 924.058 161.084 924.058 Q155.274 924.058 152.195 919.475 Q149.14 914.868 149.14 906.141 Q149.14 897.391 152.195 892.808 Q155.274 888.202 161.084 888.202 Z" fill="#000000" fill-rule="nonzero" fill-opacity="1" /><path clip-path="url(#clip790)" d="M50.9921 649.478 L80.6679 649.478 L80.6679 653.413 L50.9921 653.413 L50.9921 649.478 Z" fill="#000000" fill-rule="nonzero" fill-opacity="1" /><path clip-path="url(#clip790)" d="M91.5706 662.371 L99.2095 662.371 L99.2095 636.005 L90.8993 637.672 L90.8993 633.413 L99.1632 631.746 L103.839 631.746 L103.839 662.371 L111.478 662.371 L111.478 666.306 L91.5706 666.306 L91.5706 662.371 Z" fill="#000000" fill-rule="nonzero" fill-opacity="1" /><path clip-path="url(#clip790)" d="M120.969 631.746 L139.325 631.746 L139.325 635.681 L125.251 635.681 L125.251 644.153 Q126.27 643.806 127.288 643.644 Q128.307 643.459 129.325 643.459 Q135.112 643.459 138.492 646.63 Q141.871 649.802 141.871 655.218 Q141.871 660.797 138.399 663.899 Q134.927 666.977 128.607 666.977 Q126.432 666.977 124.163 666.607 Q121.918 666.237 119.51 665.496 L119.51 660.797 Q121.594 661.931 123.816 662.487 Q126.038 663.042 128.515 663.042 Q132.519 663.042 134.857 660.936 Q137.195 658.829 137.195 655.218 Q137.195 651.607 134.857 649.501 Q132.519 647.394 128.515 647.394 Q126.64 647.394 124.765 647.811 Q122.913 648.228 120.969 649.107 L120.969 631.746 Z" fill="#000000" fill-rule="nonzero" fill-opacity="1" /><path clip-path="url(#clip790)" d="M161.084 634.825 Q157.473 634.825 155.644 638.39 Q153.839 641.931 153.839 649.061 Q153.839 656.167 155.644 659.732 Q157.473 663.274 161.084 663.274 Q164.718 663.274 166.524 659.732 Q168.353 656.167 168.353 649.061 Q168.353 641.931 166.524 638.39 Q164.718 634.825 161.084 634.825 M161.084 631.121 Q166.894 631.121 169.95 635.728 Q173.029 640.311 173.029 649.061 Q173.029 657.788 169.95 662.394 Q166.894 666.977 161.084 666.977 Q155.274 666.977 152.195 662.394 Q149.14 657.788 149.14 649.061 Q149.14 640.311 152.195 635.728 Q155.274 631.121 161.084 631.121 Z" fill="#000000" fill-rule="nonzero" fill-opacity="1" /><path clip-path="url(#clip790)" d="M50.9921 392.397 L80.6679 392.397 L80.6679 396.332 L50.9921 396.332 L50.9921 392.397 Z" fill="#000000" fill-rule="nonzero" fill-opacity="1" /><path clip-path="url(#clip790)" d="M91.5706 405.291 L99.2095 405.291 L99.2095 378.925 L90.8993 380.592 L90.8993 376.332 L99.1632 374.666 L103.839 374.666 L103.839 405.291 L111.478 405.291 L111.478 409.226 L91.5706 409.226 L91.5706 405.291 Z" fill="#000000" fill-rule="nonzero" fill-opacity="1" /><path clip-path="url(#clip790)" d="M130.922 377.744 Q127.311 377.744 125.482 381.309 Q123.677 384.851 123.677 391.98 Q123.677 399.087 125.482 402.652 Q127.311 406.193 130.922 406.193 Q134.556 406.193 136.362 402.652 Q138.191 399.087 138.191 391.98 Q138.191 384.851 136.362 381.309 Q134.556 377.744 130.922 377.744 M130.922 374.041 Q136.732 374.041 139.788 378.647 Q142.867 383.23 142.867 391.98 Q142.867 400.707 139.788 405.314 Q136.732 409.897 130.922 409.897 Q125.112 409.897 122.033 405.314 Q118.978 400.707 118.978 391.98 Q118.978 383.23 122.033 378.647 Q125.112 374.041 130.922 374.041 Z" fill="#000000" fill-rule="nonzero" fill-opacity="1" /><path clip-path="url(#clip790)" d="M161.084 377.744 Q157.473 377.744 155.644 381.309 Q153.839 384.851 153.839 391.98 Q153.839 399.087 155.644 402.652 Q157.473 406.193 161.084 406.193 Q164.718 406.193 166.524 402.652 Q168.353 399.087 168.353 391.98 Q168.353 384.851 166.524 381.309 Q164.718 377.744 161.084 377.744 M161.084 374.041 Q166.894 374.041 169.95 378.647 Q173.029 383.23 173.029 391.98 Q173.029 400.707 169.95 405.314 Q166.894 409.897 161.084 409.897 Q155.274 409.897 152.195 405.314 Q149.14 400.707 149.14 391.98 Q149.14 383.23 152.195 378.647 Q155.274 374.041 161.084 374.041 Z" fill="#000000" fill-rule="nonzero" fill-opacity="1" /><path clip-path="url(#clip790)" d="M81.154 135.317 L110.83 135.317 L110.83 139.252 L81.154 139.252 L81.154 135.317 Z" fill="#000000" fill-rule="nonzero" fill-opacity="1" /><path clip-path="url(#clip790)" d="M120.969 117.585 L139.325 117.585 L139.325 121.52 L125.251 121.52 L125.251 129.993 Q126.27 129.645 127.288 129.483 Q128.307 129.298 129.325 129.298 Q135.112 129.298 138.492 132.469 Q141.871 135.641 141.871 141.057 Q141.871 146.636 138.399 149.738 Q134.927 152.817 128.607 152.817 Q126.432 152.817 124.163 152.446 Q121.918 152.076 119.51 151.335 L119.51 146.636 Q121.594 147.77 123.816 148.326 Q126.038 148.881 128.515 148.881 Q132.519 148.881 134.857 146.775 Q137.195 144.668 137.195 141.057 Q137.195 137.446 134.857 135.34 Q132.519 133.233 128.515 133.233 Q126.64 133.233 124.765 133.65 Q122.913 134.067 120.969 134.946 L120.969 117.585 Z" fill="#000000" fill-rule="nonzero" fill-opacity="1" /><path clip-path="url(#clip790)" d="M161.084 120.664 Q157.473 120.664 155.644 124.229 Q153.839 127.77 153.839 134.9 Q153.839 142.006 155.644 145.571 Q157.473 149.113 161.084 149.113 Q164.718 149.113 166.524 145.571 Q168.353 142.006 168.353 134.9 Q168.353 127.77 166.524 124.229 Q164.718 120.664 161.084 120.664 M161.084 116.96 Q166.894 116.96 169.95 121.567 Q173.029 126.15 173.029 134.9 Q173.029 143.627 169.95 148.233 Q166.894 152.817 161.084 152.817 Q155.274 152.817 152.195 148.233 Q149.14 143.627 149.14 134.9 Q149.14 126.15 152.195 121.567 Q155.274 116.96 161.084 116.96 Z" fill="#000000" fill-rule="nonzero" fill-opacity="1" /><polyline clip-path="url(#clip792)" style="stroke:#009af9; stroke-linecap:round; stroke-linejoin:round; stroke-width:4; stroke-opacity:1; fill:none" points="269.7,234.174 272.593,230.605 275.487,183.433 278.38,179.839 281.273,126.461 284.166,123.979 287.06,104.534 289.953,102.552 292.846,223.32 295.739,220.009 298.633,412.404 301.526,406.692 304.419,90.2888 307.312,87.9763 310.206,251.626 313.099,249.04 315.992,237.054 318.885,233.439 321.779,237.618 324.672,234.612 327.565,307.43 330.458,303.893 333.352,385.545 336.245,380.49 339.138,535.037 342.031,528.943 344.925,282.052 347.818,278.504 350.711,483.826 353.604,479.623 356.498,327.94 359.391,325.014 362.284,265.293 365.177,260.86 368.071,269.271 370.964,266.395 373.857,318.479 376.75,314.132 379.644,308.878 382.537,306.487 385.43,209.991 388.323,207.037 391.217,596.808 394.11,591.113 397.003,504.614 399.896,501.346 402.79,289.422 405.683,287.431 408.576,488.301 411.469,484.13 414.363,579.445 417.256,575.868 420.149,335.314 423.042,332.302 425.936,488.188 428.829,485.786 431.722,336.348 434.616,334.889 437.509,409.032 440.402,407.725 443.295,403.024 446.189,401.075 449.082,498.172 451.975,496.034 454.868,461.806 457.762,460.114 460.655,550.047 463.548,546.696 466.441,502.927 469.335,498.18 472.228,511.689 475.121,509.342 478.014,408.819 480.908,406.901 483.801,571.45 486.694,568.787 489.587,672.353 492.481,670.715 495.374,468.502 498.267,466.328 501.16,424.534 504.054,422.488 506.947,490.135 509.84,488.496 512.733,447.756 515.627,445.258 518.52,559.949 521.413,556.582 524.306,745.792 527.2,741.803 530.093,705.806 532.986,701.941 535.879,512.47 538.773,510.783 541.666,491.849 544.559,489.509 547.452,726.91 550.346,721.437 553.239,760.937 556.132,755.847 559.025,609.234 561.919,605.27 564.812,573.427 567.705,569.786 570.598,769.453 573.492,765.866 576.385,678.832 579.278,676.293 582.171,633.065 585.065,628.185 587.958,705.666 590.851,702.553 593.744,521.259 596.638,518.288 599.531,573.208 602.424,571.09 605.317,592.557 608.211,588.533 611.104,556.107 613.997,553.179 616.89,691.66 619.784,688.045 622.677,750.989 625.57,747.345 628.463,668.796 631.357,665.536 634.25,730.63 637.143,726.842 640.037,721.285 642.93,716.914 645.823,917.218 648.716,910.912 651.61,673.147 654.503,670.352 657.396,729.13 660.289,724.383 663.183,501.886 666.076,498.369 668.969,591.045 671.862,589.371 674.756,577.269 677.649,574.564 680.542,695.604 683.435,691.992 686.329,692.614 689.222,688.749 692.115,573.339 695.008,570.603 697.902,825.31 700.795,821.726 703.688,965.521 706.581,958.905 709.475,779.895 712.368,776.869 715.261,830.886 718.154,827.343 721.048,740.454 723.941,735.627 726.834,822.707 729.727,817.865 732.621,677.133 735.514,672.428 738.407,584.813 741.3,582.944 744.194,770.216 747.087,766.611 749.98,790.594 752.873,785.357 755.767,1024.93 758.66,1020.52 761.553,752.49 764.446,750.237 767.34,748.646 770.233,743.085 773.126,751.322 776.019,748.349 778.913,851.401 781.806,847.161 784.699,823.44 787.592,820.934 790.486,813.153 793.379,810.673 796.272,731.345 799.165,728.67 802.059,887.591 804.952,882.989 807.845,949.537 810.738,944.372 813.632,798.596 816.525,795.394 819.418,723.371 822.311,721.065 825.205,615.665 828.098,611.642 830.991,853.338 833.885,848.191 836.778,821.337 839.671,818.558 842.564,644.576 845.458,642.101 848.351,852.87 851.244,848.215 854.137,967.757 857.031,961.791 859.924,708.325 862.817,703.871 865.71,811.863 868.604,807.985 871.497,914.864 874.39,911.031 877.283,758.517 880.177,755.166 883.07,857.612 885.963,853.825 888.856,700.097 891.75,696.855 894.643,970.364 897.536,965.105 900.429,868.625 903.323,864.483 906.216,898.275 909.109,892.478 912.002,770.356 914.896,765.699 917.789,900.079 920.682,894.069 923.575,786.259 926.469,783.973 929.362,1035.48 932.255,1029.48 935.148,1110.55 938.042,1100.81 940.935,870.835 943.828,866.384 946.721,843.649 949.615,840.008 952.508,901.469 955.401,898.86 958.294,855.661 961.188,851.436 964.081,905.731 966.974,899.628 969.867,977.249 972.761,973.263 975.654,960.353 978.547,954.201 981.44,832.991 984.334,829.422 987.227,802.151 990.12,795.875 993.013,1160.89 995.907,1156.2 998.8,895.243 1001.69,888.685 1004.59,885.216 1007.48,882.167 1010.37,639.666 1013.27,637.225 1016.16,891.55 1019.05,884.375 1021.95,1036.43 1024.84,1030.39 1027.73,941.985 1030.63,938.124 1033.52,849.16 1036.41,845.743 1039.31,942.041 1042.2,938.145 1045.09,687.78 1047.99,680.548 1050.88,952.401 1053.77,947.472 1056.67,897.971 1059.56,894.423 1062.45,1054.23 1065.34,1047.78 1068.24,971.041 1071.13,966.725 1074.02,780.412 1076.92,776.534 1079.81,696.395 1082.7,692.919 1085.6,843.007 1088.49,838.137 1091.38,815.7 1094.28,810.243 1097.17,889.413 1100.06,884.504 1102.96,995.31 1105.85,989.629 1108.74,872.822 1111.64,867.999 1114.53,1058.87 1117.42,1052.39 1120.32,829.849 1123.21,824.831 1126.1,792.975 1129,788.737 1131.89,771.891 1134.78,768.849 1137.68,920.533 1140.57,914.535 1143.46,636.059 1146.36,632.371 1149.25,921.109 1152.14,916.374 1155.04,1071.7 1157.93,1066.33 1160.82,1096.35 1163.72,1092.65 1166.61,842.044 1169.5,835.254 1172.4,1066.22 1175.29,1061.29 1178.18,1034.45 1181.07,1029.01 1183.97,874.252 1186.86,868.451 1189.75,989.698 1192.65,986.551 1195.54,904.45 1198.43,900.814 1201.33,1148.52 1204.22,1141.82 1207.11,837.6 1210.01,834.135 1212.9,1001.02 1215.79,996.345 1218.69,938.048 1221.58,932.243 1224.47,941.948 1227.37,937.956 1230.26,1179.07 1233.15,1168.33 1236.05,1062.53 1238.94,1058.75 1241.83,808.322 1244.73,802.832 1247.62,876.287 1250.51,871.777 1253.41,834.578 1256.3,830.176 1259.19,1022.21 1262.09,1015.86 1264.98,1009.15 1267.87,1002.75 1270.77,1089.54 1273.66,1079.48 1276.55,871.271 1279.45,868.196 1282.34,819.009 1285.23,816.221 1288.13,1016.66 1291.02,1013.4 1293.91,866.177 1296.81,862.331 1299.7,967.509 1302.59,961.247 1305.48,1050.58 1308.38,1041.21 1311.27,1229.74 1314.16,1221.29 1317.06,959.214 1319.95,952.41 1322.84,1155.54 1325.74,1149.54 1328.63,997.965 1331.52,987.56 1334.42,1137.7 1337.31,1130.1 1340.2,849.101 1343.1,844.977 1345.99,863.163 1348.88,855.919 1351.78,1127.63 1354.67,1121.81 1357.56,811.984 1360.46,807.573 1363.35,836.196 1366.24,831.385 1369.14,1032.47 1372.03,1027.62 1374.92,880.595 1377.82,876.911 1380.71,831.698 1383.6,826.263 1386.5,977.274 1389.39,973.904 1392.28,1147.17 1395.18,1141.15 1398.07,1128.69 1400.96,1122.27 1403.86,1186.94 1406.75,1178.76 1409.64,1054.78 1412.54,1049.4 1415.43,1149.08 1418.32,1141 1421.22,1123.2 1424.11,1113.86 1427,1038.46 1429.89,1033.69 1432.79,973.218 1435.68,967.211 1438.57,1112.51 1441.47,1106.48 1444.36,964.558 1447.25,959.526 1450.15,834.023 1453.04,828.006 1455.93,968.971 1458.83,964.405 1461.72,855.382 1464.61,849.857 1467.51,1088.97 1470.4,1084.46 1473.29,821.416 1476.19,815.093 1479.08,999.72 1481.97,992.082 1484.87,1004.86 1487.76,1000.07 1490.65,1175.86 1493.55,1168.16 1496.44,1088.89 1499.33,1080.46 1502.23,900.248 1505.12,895.618 1508.01,924.495 1510.91,917.192 1513.8,1264.96 1516.69,1258.18 1519.59,929.615 1522.48,923.581 1525.37,1125.51 1528.27,1121.17 1531.16,1043.92 1534.05,1037.33 1536.95,1086.06 1539.84,1080.9 1542.73,921.712 1545.62,916.879 1548.52,1200.64 1551.41,1193.54 1554.3,1138.39 1557.2,1130.52 1560.09,1087.89 1562.98,1082.08 1565.88,1135.18 1568.77,1130.02 1571.66,1106.74 1574.56,1098.17 1577.45,1004.27 1580.34,1000.56 1583.24,1115.4 1586.13,1108.36 1589.02,1103.69 1591.92,1096.57 1594.81,1087.59 1597.7,1082.29 1600.6,1007.04 1603.49,1001.4 1606.38,1237.24 1609.28,1233.63 1612.17,887.723 1615.06,880.884 1617.96,1189.06 1620.85,1181.11 1623.74,826.921 1626.64,822.384 1629.53,823.058 1632.42,818.512 1635.32,1014.09 1638.21,1009.28 1641.1,1165.48 1644,1158.02 1646.89,1208.05 1649.78,1201.34 1652.68,1110.56 1655.57,1101.79 1658.46,994.388 1661.36,987.798 1664.25,932.519 1667.14,926.04 1670.03,928.053 1672.93,922.55 1675.82,981.903 1678.71,976.187 1681.61,799.626 1684.5,795.457 1687.39,1184.63 1690.29,1177.02 1693.18,1188.94 1696.07,1180.27 1698.97,1094.9 1701.86,1089.09 1704.75,685.974 1707.65,680.916 1710.54,1380.86 1713.43,1375.42 1716.33,1111.74 1719.22,1104.67 1722.11,828.558 1725.01,822.021 1727.9,841.717 1730.79,831.133 1733.69,935.481 1736.58,926.434 1739.47,1046.4 1742.37,1042.48 1745.26,1153.14 1748.15,1146.35 1751.05,1149.81 1753.94,1144.12 1756.83,906.737 1759.73,901.486 1762.62,1119.53 1765.51,1114.33 1768.41,965.138 1771.3,959.379 1774.19,1045.77 1777.09,1040.15 1779.98,1035.54 1782.87,1028.58 1785.76,1072.45 1788.66,1067.71 1791.55,1095.47 1794.44,1089.51 1797.34,897.993 1800.23,890.433 1803.12,1304 1806.02,1297.59 1808.91,953.73 1811.8,948.764 1814.7,805.33 1817.59,799.821 1820.48,1269.62 1823.38,1262.56 1826.27,1076.64 1829.16,1063.67 1832.06,953.641 1834.95,948.408 1837.84,1144.08 1840.74,1136.98 1843.63,1298.44 1846.52,1291.74 1849.42,955.648 1852.31,949.996 1855.2,851.418 1858.1,847.202 1860.99,1029.36 1863.88,1022.62 1866.78,1011.83 1869.67,1006.93 1872.56,1203.57 1875.46,1195.69 1878.35,932.488 1881.24,927.839 1884.14,946.477 1887.03,940.448 1889.92,1114.2 1892.82,1110.69 1895.71,1087.12 1898.6,1081.17 1901.5,1329.95 1904.39,1324.33 1907.28,1289.67 1910.17,1283.53 1913.07,1099.19 1915.96,1092.07 1918.85,1375.44 1921.75,1366.2 1924.64,1445.72 1927.53,1439.39 1930.43,947.697 1933.32,942.629 1936.21,1392.89 1939.11,1381.91 1942,1080.36 1944.89,1074.6 1947.79,983.046 1950.68,978.754 1953.57,1221.59 1956.47,1212.63 1959.36,785.169 1962.25,782.147 1965.15,895.202 1968.04,889.591 1970.93,1330.78 1973.83,1324.89 1976.72,1109.65 1979.61,1101.49 1982.51,1113.81 1985.4,1104.39 1988.29,944.875 1991.19,939.815 1994.08,1063.01 1996.97,1057.09 1999.87,1172.92 2002.76,1166.51 2005.65,1116.98 2008.55,1110.99 2011.44,1266.85 2014.33,1261.68 2017.23,900.656 2020.12,894.871 2023.01,848.236 2025.91,841.418 2028.8,1058.41 2031.69,1050.81 2034.58,1091.44 2037.48,1084.8 2040.37,966.574 2043.26,959.766 2046.16,1132.96 2049.05,1126.85 2051.94,1113.49 2054.84,1109.11 2057.73,1099.03 2060.62,1094.04 2063.52,1185.04 2066.41,1174.33 2069.3,1182.93 2072.2,1176.28 2075.09,1119.86 2077.98,1113.87 2080.88,973.471 2083.77,962.999 2086.66,1078.46 2089.56,1072.03 2092.45,1165.17 2095.34,1157.9 2098.24,1057.46 2101.13,1050.67 2104.02,1052.37 2106.92,1044.82 2109.81,1131.5 2112.7,1125.31 2115.6,1168.09 2118.49,1160.97 2121.38,907.587 2124.28,903.674 2127.17,1199.15 2130.06,1188.86 2132.96,1259.41 2135.85,1254.28 2138.74,654.022 2141.64,649.841 2144.53,988.207 2147.42,982.101 2150.31,1102.63 2153.21,1097.91 2156.1,921.67 2158.99,916.239 2161.89,1107.44 2164.78,1101.06 2167.67,1338.74 2170.57,1330.63 2173.46,978.152 2176.35,973.092 2179.25,903.325 2182.14,898.424 2185.03,1018.73 2187.93,1012.73 2190.82,958.841 2193.71,951.771 2196.61,1176.37 2199.5,1171.33 2202.39,1277.42 2205.29,1265.25 2208.18,1194.84 2211.07,1186.65 2213.97,1100.73 2216.86,1092.75 2219.75,829.837 2222.65,823.52 2225.54,1346.18 2228.43,1338.9 2231.33,1141.7 2234.22,1136.78 2237.11,1102.06 2240.01,1092.94 2242.9,1072.11 2245.79,1066.18 2248.69,983.739 2251.58,975.779 2254.47,825.064 2257.37,820.303 2260.26,1265.38 2263.15,1257.26 2266.05,1171.44 2268.94,1165.18 2271.83,1180.98 2274.72,1174.45 2277.62,995.574 2280.51,989.49 2283.4,1287.43 2286.3,1280.76 2289.19,977.943 2292.08,972.057 "/>
<path clip-path="url(#clip790)" d="M2014.5 198.898 L2281.3 198.898 L2281.3 95.2176 L2014.5 95.2176  Z" fill="#ffffff" fill-rule="evenodd" fill-opacity="1"/>
<polyline clip-path="url(#clip790)" style="stroke:#000000; stroke-linecap:round; stroke-linejoin:round; stroke-width:4; stroke-opacity:1; fill:none" points="2014.5,198.898 2281.3,198.898 2281.3,95.2176 2014.5,95.2176 2014.5,198.898 "/>
<polyline clip-path="url(#clip790)" style="stroke:#009af9; stroke-linecap:round; stroke-linejoin:round; stroke-width:4; stroke-opacity:1; fill:none" points="2038.31,147.058 2181.23,147.058 "/>
<path clip-path="url(#clip790)" d="M2218.89 166.745 Q2217.09 171.375 2215.37 172.787 Q2213.66 174.199 2210.79 174.199 L2207.39 174.199 L2207.39 170.634 L2209.89 170.634 Q2211.65 170.634 2212.62 169.8 Q2213.59 168.967 2214.77 165.865 L2215.53 163.921 L2205.05 138.412 L2209.56 138.412 L2217.66 158.689 L2225.77 138.412 L2230.28 138.412 L2218.89 166.745 Z" fill="#000000" fill-rule="nonzero" fill-opacity="1" /><path clip-path="url(#clip790)" d="M2237.57 160.402 L2245.21 160.402 L2245.21 134.037 L2236.9 135.703 L2236.9 131.444 L2245.16 129.778 L2249.84 129.778 L2249.84 160.402 L2257.48 160.402 L2257.48 164.338 L2237.57 164.338 L2237.57 160.402 Z" fill="#000000" fill-rule="nonzero" fill-opacity="1" /></svg>
