<?xml version="1.0" encoding="utf-8"?>
<svg xmlns="http://www.w3.org/2000/svg" xmlns:xlink="http://www.w3.org/1999/xlink" width="600" height="400" viewBox="0 0 2400 1600">
<defs>
  <clipPath id="clip330">
    <rect x="0" y="0" width="2400" height="1600"/>
  </clipPath>
</defs>
<path clip-path="url(#clip330)" d="M0 1600 L2400 1600 L2400 0 L0 0  Z" fill="#ffffff" fill-rule="evenodd" fill-opacity="1"/>
<defs>
  <clipPath id="clip331">
    <rect x="480" y="0" width="1681" height="1600"/>
  </clipPath>
</defs>
<path clip-path="url(#clip330)" d="M170.857 1486.45 L2352.76 1486.45 L2352.76 47.2441 L170.857 47.2441  Z" fill="#ffffff" fill-rule="evenodd" fill-opacity="1"/>
<defs>
  <clipPath id="clip332">
    <rect x="170" y="47" width="2183" height="1440"/>
  </clipPath>
</defs>
<polyline clip-path="url(#clip332)" style="stroke:#000000; stroke-linecap:round; stroke-linejoin:round; stroke-width:2; stroke-opacity:0.1; fill:none" points="211.817,1486.45 211.817,47.2441 "/>
<polyline clip-path="url(#clip332)" style="stroke:#000000; stroke-linecap:round; stroke-linejoin:round; stroke-width:2; stroke-opacity:0.1; fill:none" points="731.614,1486.45 731.614,47.2441 "/>
<polyline clip-path="url(#clip332)" style="stroke:#000000; stroke-linecap:round; stroke-linejoin:round; stroke-width:2; stroke-opacity:0.1; fill:none" points="1251.41,1486.45 1251.41,47.2441 "/>
<polyline clip-path="url(#clip332)" style="stroke:#000000; stroke-linecap:round; stroke-linejoin:round; stroke-width:2; stroke-opacity:0.1; fill:none" points="1771.21,1486.45 1771.21,47.2441 "/>
<polyline clip-path="url(#clip332)" style="stroke:#000000; stroke-linecap:round; stroke-linejoin:round; stroke-width:2; stroke-opacity:0.1; fill:none" points="2291,1486.45 2291,47.2441 "/>
<polyline clip-path="url(#clip330)" style="stroke:#000000; stroke-linecap:round; stroke-linejoin:round; stroke-width:4; stroke-opacity:1; fill:none" points="170.857,1486.45 2352.76,1486.45 "/>
<polyline clip-path="url(#clip330)" style="stroke:#000000; stroke-linecap:round; stroke-linejoin:round; stroke-width:4; stroke-opacity:1; fill:none" points="211.817,1486.45 211.817,1467.55 "/>
<polyline clip-path="url(#clip330)" style="stroke:#000000; stroke-linecap:round; stroke-linejoin:round; stroke-width:4; stroke-opacity:1; fill:none" points="731.614,1486.45 731.614,1467.55 "/>
<polyline clip-path="url(#clip330)" style="stroke:#000000; stroke-linecap:round; stroke-linejoin:round; stroke-width:4; stroke-opacity:1; fill:none" points="1251.41,1486.45 1251.41,1467.55 "/>
<polyline clip-path="url(#clip330)" style="stroke:#000000; stroke-linecap:round; stroke-linejoin:round; stroke-width:4; stroke-opacity:1; fill:none" points="1771.21,1486.45 1771.21,1467.55 "/>
<polyline clip-path="url(#clip330)" style="stroke:#000000; stroke-linecap:round; stroke-linejoin:round; stroke-width:4; stroke-opacity:1; fill:none" points="2291,1486.45 2291,1467.55 "/>
<path clip-path="url(#clip330)" d="M211.817 1517.37 Q208.206 1517.37 206.378 1520.93 Q204.572 1524.47 204.572 1531.6 Q204.572 1538.71 206.378 1542.27 Q208.206 1545.82 211.817 1545.82 Q215.452 1545.82 217.257 1542.27 Q219.086 1538.71 219.086 1531.6 Q219.086 1524.47 217.257 1520.93 Q215.452 1517.37 211.817 1517.37 M211.817 1513.66 Q217.628 1513.66 220.683 1518.27 Q223.762 1522.85 223.762 1531.6 Q223.762 1540.33 220.683 1544.94 Q217.628 1549.52 211.817 1549.52 Q206.007 1549.52 202.929 1544.94 Q199.873 1540.33 199.873 1531.6 Q199.873 1522.85 202.929 1518.27 Q206.007 1513.66 211.817 1513.66 Z" fill="#000000" fill-rule="nonzero" fill-opacity="1" /><path clip-path="url(#clip330)" d="M710.885 1544.91 L727.204 1544.91 L727.204 1548.85 L705.26 1548.85 L705.26 1544.91 Q707.922 1542.16 712.505 1537.53 Q717.112 1532.88 718.292 1531.53 Q720.538 1529.01 721.417 1527.27 Q722.32 1525.51 722.32 1523.82 Q722.32 1521.07 720.376 1519.33 Q718.454 1517.6 715.353 1517.6 Q713.154 1517.6 710.7 1518.36 Q708.269 1519.13 705.492 1520.68 L705.492 1515.95 Q708.316 1514.82 710.769 1514.24 Q713.223 1513.66 715.26 1513.66 Q720.63 1513.66 723.825 1516.35 Q727.019 1519.03 727.019 1523.52 Q727.019 1525.65 726.209 1527.57 Q725.422 1529.47 723.315 1532.07 Q722.737 1532.74 719.635 1535.95 Q716.533 1539.15 710.885 1544.91 Z" fill="#000000" fill-rule="nonzero" fill-opacity="1" /><path clip-path="url(#clip330)" d="M737.065 1514.29 L755.422 1514.29 L755.422 1518.22 L741.348 1518.22 L741.348 1526.7 Q742.366 1526.35 743.385 1526.19 Q744.403 1526 745.422 1526 Q751.209 1526 754.588 1529.17 Q757.968 1532.34 757.968 1537.76 Q757.968 1543.34 754.496 1546.44 Q751.024 1549.52 744.704 1549.52 Q742.528 1549.52 740.26 1549.15 Q738.014 1548.78 735.607 1548.04 L735.607 1543.34 Q737.69 1544.47 739.913 1545.03 Q742.135 1545.58 744.612 1545.58 Q748.616 1545.58 750.954 1543.48 Q753.292 1541.37 753.292 1537.76 Q753.292 1534.15 750.954 1532.04 Q748.616 1529.94 744.612 1529.94 Q742.737 1529.94 740.862 1530.35 Q739.01 1530.77 737.065 1531.65 L737.065 1514.29 Z" fill="#000000" fill-rule="nonzero" fill-opacity="1" /><path clip-path="url(#clip330)" d="M1226.11 1514.29 L1244.47 1514.29 L1244.47 1518.22 L1230.39 1518.22 L1230.39 1526.7 Q1231.41 1526.35 1232.43 1526.19 Q1233.45 1526 1234.47 1526 Q1240.25 1526 1243.63 1529.17 Q1247.01 1532.34 1247.01 1537.76 Q1247.01 1543.34 1243.54 1546.44 Q1240.07 1549.52 1233.75 1549.52 Q1231.57 1549.52 1229.3 1549.15 Q1227.06 1548.78 1224.65 1548.04 L1224.65 1543.34 Q1226.73 1544.47 1228.96 1545.03 Q1231.18 1545.58 1233.66 1545.58 Q1237.66 1545.58 1240 1543.48 Q1242.34 1541.37 1242.34 1537.76 Q1242.34 1534.15 1240 1532.04 Q1237.66 1529.94 1233.66 1529.94 Q1231.78 1529.94 1229.91 1530.35 Q1228.05 1530.77 1226.11 1531.65 L1226.11 1514.29 Z" fill="#000000" fill-rule="nonzero" fill-opacity="1" /><path clip-path="url(#clip330)" d="M1266.23 1517.37 Q1262.61 1517.37 1260.79 1520.93 Q1258.98 1524.47 1258.98 1531.6 Q1258.98 1538.71 1260.79 1542.27 Q1262.61 1545.82 1266.23 1545.82 Q1269.86 1545.82 1271.67 1542.27 Q1273.49 1538.71 1273.49 1531.6 Q1273.49 1524.47 1271.67 1520.93 Q1269.86 1517.37 1266.23 1517.37 M1266.23 1513.66 Q1272.04 1513.66 1275.09 1518.27 Q1278.17 1522.85 1278.17 1531.6 Q1278.17 1540.33 1275.09 1544.94 Q1272.04 1549.52 1266.23 1549.52 Q1260.42 1549.52 1257.34 1544.94 Q1254.28 1540.33 1254.28 1531.6 Q1254.28 1522.85 1257.34 1518.27 Q1260.42 1513.66 1266.23 1513.66 Z" fill="#000000" fill-rule="nonzero" fill-opacity="1" /><path clip-path="url(#clip330)" d="M1745.06 1514.29 L1767.28 1514.29 L1767.28 1516.28 L1754.74 1548.85 L1749.85 1548.85 L1761.66 1518.22 L1745.06 1518.22 L1745.06 1514.29 Z" fill="#000000" fill-rule="nonzero" fill-opacity="1" /><path clip-path="url(#clip330)" d="M1776.45 1514.29 L1794.81 1514.29 L1794.81 1518.22 L1780.73 1518.22 L1780.73 1526.7 Q1781.75 1526.35 1782.77 1526.19 Q1783.79 1526 1784.81 1526 Q1790.59 1526 1793.97 1529.17 Q1797.35 1532.34 1797.35 1537.76 Q1797.35 1543.34 1793.88 1546.44 Q1790.41 1549.52 1784.09 1549.52 Q1781.91 1549.52 1779.64 1549.15 Q1777.4 1548.78 1774.99 1548.04 L1774.99 1543.34 Q1777.08 1544.47 1779.3 1545.03 Q1781.52 1545.58 1784 1545.58 Q1788 1545.58 1790.34 1543.48 Q1792.68 1541.37 1792.68 1537.76 Q1792.68 1534.15 1790.34 1532.04 Q1788 1529.94 1784 1529.94 Q1782.12 1529.94 1780.25 1530.35 Q1778.39 1530.77 1776.45 1531.65 L1776.45 1514.29 Z" fill="#000000" fill-rule="nonzero" fill-opacity="1" /><path clip-path="url(#clip330)" d="M2250.61 1544.91 L2258.25 1544.91 L2258.25 1518.55 L2249.94 1520.21 L2249.94 1515.95 L2258.2 1514.29 L2262.88 1514.29 L2262.88 1544.91 L2270.52 1544.91 L2270.52 1548.85 L2250.61 1548.85 L2250.61 1544.91 Z" fill="#000000" fill-rule="nonzero" fill-opacity="1" /><path clip-path="url(#clip330)" d="M2289.96 1517.37 Q2286.35 1517.37 2284.52 1520.93 Q2282.72 1524.47 2282.72 1531.6 Q2282.72 1538.71 2284.52 1542.27 Q2286.35 1545.82 2289.96 1545.82 Q2293.6 1545.82 2295.4 1542.27 Q2297.23 1538.71 2297.23 1531.6 Q2297.23 1524.47 2295.4 1520.93 Q2293.6 1517.37 2289.96 1517.37 M2289.96 1513.66 Q2295.77 1513.66 2298.83 1518.27 Q2301.91 1522.85 2301.91 1531.6 Q2301.91 1540.33 2298.83 1544.94 Q2295.77 1549.52 2289.96 1549.52 Q2284.15 1549.52 2281.07 1544.94 Q2278.02 1540.33 2278.02 1531.6 Q2278.02 1522.85 2281.07 1518.27 Q2284.15 1513.66 2289.96 1513.66 Z" fill="#000000" fill-rule="nonzero" fill-opacity="1" /><path clip-path="url(#clip330)" d="M2320.12 1517.37 Q2316.51 1517.37 2314.68 1520.93 Q2312.88 1524.47 2312.88 1531.6 Q2312.88 1538.71 2314.68 1542.27 Q2316.51 1545.82 2320.12 1545.82 Q2323.76 1545.82 2325.56 1542.27 Q2327.39 1538.71 2327.39 1531.6 Q2327.39 1524.47 2325.56 1520.93 Q2323.76 1517.37 2320.12 1517.37 M2320.12 1513.66 Q2325.93 1513.66 2328.99 1518.27 Q2332.07 1522.85 2332.07 1531.6 Q2332.07 1540.33 2328.99 1544.94 Q2325.93 1549.52 2320.12 1549.52 Q2314.31 1549.52 2311.24 1544.94 Q2308.18 1540.33 2308.18 1531.6 Q2308.18 1522.85 2311.24 1518.27 Q2314.31 1513.66 2320.12 1513.66 Z" fill="#000000" fill-rule="nonzero" fill-opacity="1" /><polyline clip-path="url(#clip332)" style="stroke:#000000; stroke-linecap:round; stroke-linejoin:round; stroke-width:2; stroke-opacity:0.1; fill:none" points="170.857,1445.72 2352.76,1445.72 "/>
<polyline clip-path="url(#clip332)" style="stroke:#000000; stroke-linecap:round; stroke-linejoin:round; stroke-width:2; stroke-opacity:0.1; fill:none" points="170.857,993.136 2352.76,993.136 "/>
<polyline clip-path="url(#clip332)" style="stroke:#000000; stroke-linecap:round; stroke-linejoin:round; stroke-width:2; stroke-opacity:0.1; fill:none" points="170.857,540.556 2352.76,540.556 "/>
<polyline clip-path="url(#clip332)" style="stroke:#000000; stroke-linecap:round; stroke-linejoin:round; stroke-width:2; stroke-opacity:0.1; fill:none" points="170.857,87.9763 2352.76,87.9763 "/>
<polyline clip-path="url(#clip330)" style="stroke:#000000; stroke-linecap:round; stroke-linejoin:round; stroke-width:4; stroke-opacity:1; fill:none" points="170.857,1486.45 170.857,47.2441 "/>
<polyline clip-path="url(#clip330)" style="stroke:#000000; stroke-linecap:round; stroke-linejoin:round; stroke-width:4; stroke-opacity:1; fill:none" points="170.857,1445.72 189.755,1445.72 "/>
<polyline clip-path="url(#clip330)" style="stroke:#000000; stroke-linecap:round; stroke-linejoin:round; stroke-width:4; stroke-opacity:1; fill:none" points="170.857,993.136 189.755,993.136 "/>
<polyline clip-path="url(#clip330)" style="stroke:#000000; stroke-linecap:round; stroke-linejoin:round; stroke-width:4; stroke-opacity:1; fill:none" points="170.857,540.556 189.755,540.556 "/>
<polyline clip-path="url(#clip330)" style="stroke:#000000; stroke-linecap:round; stroke-linejoin:round; stroke-width:4; stroke-opacity:1; fill:none" points="170.857,87.9763 189.755,87.9763 "/>
<path clip-path="url(#clip330)" d="M122.913 1431.51 Q119.302 1431.51 117.473 1435.08 Q115.668 1438.62 115.668 1445.75 Q115.668 1452.86 117.473 1456.42 Q119.302 1459.96 122.913 1459.96 Q126.547 1459.96 128.353 1456.42 Q130.182 1452.86 130.182 1445.75 Q130.182 1438.62 128.353 1435.08 Q126.547 1431.51 122.913 1431.51 M122.913 1427.81 Q128.723 1427.81 131.779 1432.42 Q134.857 1437 134.857 1445.75 Q134.857 1454.48 131.779 1459.08 Q128.723 1463.67 122.913 1463.67 Q117.103 1463.67 114.024 1459.08 Q110.969 1454.48 110.969 1445.75 Q110.969 1437 114.024 1432.42 Q117.103 1427.81 122.913 1427.81 Z" fill="#000000" fill-rule="nonzero" fill-opacity="1" /><path clip-path="url(#clip330)" d="M53.3995 1006.48 L61.0384 1006.48 L61.0384 980.115 L52.7282 981.782 L52.7282 977.523 L60.9921 975.856 L65.668 975.856 L65.668 1006.48 L73.3068 1006.48 L73.3068 1010.42 L53.3995 1010.42 L53.3995 1006.48 Z" fill="#000000" fill-rule="nonzero" fill-opacity="1" /><path clip-path="url(#clip330)" d="M92.7512 978.935 Q89.1401 978.935 87.3114 982.499 Q85.5058 986.041 85.5058 993.171 Q85.5058 1000.28 87.3114 1003.84 Q89.1401 1007.38 92.7512 1007.38 Q96.3854 1007.38 98.1909 1003.84 Q100.02 1000.28 100.02 993.171 Q100.02 986.041 98.1909 982.499 Q96.3854 978.935 92.7512 978.935 M92.7512 975.231 Q98.5613 975.231 101.617 979.837 Q104.696 984.421 104.696 993.171 Q104.696 1001.9 101.617 1006.5 Q98.5613 1011.09 92.7512 1011.09 Q86.941 1011.09 83.8623 1006.5 Q80.8068 1001.9 80.8068 993.171 Q80.8068 984.421 83.8623 979.837 Q86.941 975.231 92.7512 975.231 Z" fill="#000000" fill-rule="nonzero" fill-opacity="1" /><path clip-path="url(#clip330)" d="M122.913 978.935 Q119.302 978.935 117.473 982.499 Q115.668 986.041 115.668 993.171 Q115.668 1000.28 117.473 1003.84 Q119.302 1007.38 122.913 1007.38 Q126.547 1007.38 128.353 1003.84 Q130.182 1000.28 130.182 993.171 Q130.182 986.041 128.353 982.499 Q126.547 978.935 122.913 978.935 M122.913 975.231 Q128.723 975.231 131.779 979.837 Q134.857 984.421 134.857 993.171 Q134.857 1001.9 131.779 1006.5 Q128.723 1011.09 122.913 1011.09 Q117.103 1011.09 114.024 1006.5 Q110.969 1001.9 110.969 993.171 Q110.969 984.421 114.024 979.837 Q117.103 975.231 122.913 975.231 Z" fill="#000000" fill-rule="nonzero" fill-opacity="1" /><path clip-path="url(#clip330)" d="M56.6171 553.901 L72.9365 553.901 L72.9365 557.836 L50.9921 557.836 L50.9921 553.901 Q53.6541 551.146 58.2375 546.517 Q62.8439 541.864 64.0245 540.521 Q66.2698 537.998 67.1494 536.262 Q68.0522 534.503 68.0522 532.813 Q68.0522 530.058 66.1078 528.322 Q64.1865 526.586 61.0847 526.586 Q58.8856 526.586 56.4319 527.35 Q54.0014 528.114 51.2236 529.665 L51.2236 524.943 Q54.0477 523.808 56.5014 523.23 Q58.955 522.651 60.9921 522.651 Q66.3624 522.651 69.5568 525.336 Q72.7513 528.021 72.7513 532.512 Q72.7513 534.642 71.9411 536.563 Q71.1541 538.461 69.0476 541.054 Q68.4689 541.725 65.367 544.943 Q62.2652 548.137 56.6171 553.901 Z" fill="#000000" fill-rule="nonzero" fill-opacity="1" /><path clip-path="url(#clip330)" d="M92.7512 526.355 Q89.1401 526.355 87.3114 529.92 Q85.5058 533.461 85.5058 540.591 Q85.5058 547.697 87.3114 551.262 Q89.1401 554.804 92.7512 554.804 Q96.3854 554.804 98.1909 551.262 Q100.02 547.697 100.02 540.591 Q100.02 533.461 98.1909 529.92 Q96.3854 526.355 92.7512 526.355 M92.7512 522.651 Q98.5613 522.651 101.617 527.258 Q104.696 531.841 104.696 540.591 Q104.696 549.318 101.617 553.924 Q98.5613 558.507 92.7512 558.507 Q86.941 558.507 83.8623 553.924 Q80.8068 549.318 80.8068 540.591 Q80.8068 531.841 83.8623 527.258 Q86.941 522.651 92.7512 522.651 Z" fill="#000000" fill-rule="nonzero" fill-opacity="1" /><path clip-path="url(#clip330)" d="M122.913 526.355 Q119.302 526.355 117.473 529.92 Q115.668 533.461 115.668 540.591 Q115.668 547.697 117.473 551.262 Q119.302 554.804 122.913 554.804 Q126.547 554.804 128.353 551.262 Q130.182 547.697 130.182 540.591 Q130.182 533.461 128.353 529.92 Q126.547 526.355 122.913 526.355 M122.913 522.651 Q128.723 522.651 131.779 527.258 Q134.857 531.841 134.857 540.591 Q134.857 549.318 131.779 553.924 Q128.723 558.507 122.913 558.507 Q117.103 558.507 114.024 553.924 Q110.969 549.318 110.969 540.591 Q110.969 531.841 114.024 527.258 Q117.103 522.651 122.913 522.651 Z" fill="#000000" fill-rule="nonzero" fill-opacity="1" /><path clip-path="url(#clip330)" d="M66.7559 86.6221 Q70.1124 87.3397 71.9874 89.6082 Q73.8855 91.8767 73.8855 95.21 Q73.8855 100.326 70.367 103.127 Q66.8485 105.928 60.3671 105.928 Q58.1912 105.928 55.8764 105.488 Q53.5847 105.071 51.131 104.215 L51.131 99.7008 Q53.0754 100.835 55.3903 101.414 Q57.7051 101.992 60.2282 101.992 Q64.6263 101.992 66.918 100.256 Q69.2328 98.5202 69.2328 95.21 Q69.2328 92.1545 67.08 90.4415 Q64.9504 88.7054 61.131 88.7054 L57.1032 88.7054 L57.1032 84.8629 L61.3161 84.8629 Q64.7652 84.8629 66.5939 83.4971 Q68.4226 82.1083 68.4226 79.5157 Q68.4226 76.8537 66.5245 75.4416 Q64.6495 74.0064 61.131 74.0064 Q59.2097 74.0064 57.0106 74.4231 Q54.8115 74.8398 52.1727 75.7194 L52.1727 71.5528 Q54.8347 70.812 57.1495 70.4416 Q59.4875 70.0713 61.5476 70.0713 Q66.8717 70.0713 69.9735 72.5018 Q73.0753 74.9092 73.0753 79.0296 Q73.0753 81.8999 71.4318 83.8907 Q69.7883 85.8582 66.7559 86.6221 Z" fill="#000000" fill-rule="nonzero" fill-opacity="1" /><path clip-path="url(#clip330)" d="M92.7512 73.775 Q89.1401 73.775 87.3114 77.3398 Q85.5058 80.8814 85.5058 88.011 Q85.5058 95.1174 87.3114 98.6822 Q89.1401 102.224 92.7512 102.224 Q96.3854 102.224 98.1909 98.6822 Q100.02 95.1174 100.02 88.011 Q100.02 80.8814 98.1909 77.3398 Q96.3854 73.775 92.7512 73.775 M92.7512 70.0713 Q98.5613 70.0713 101.617 74.6777 Q104.696 79.261 104.696 88.011 Q104.696 96.7378 101.617 101.344 Q98.5613 105.928 92.7512 105.928 Q86.941 105.928 83.8623 101.344 Q80.8068 96.7378 80.8068 88.011 Q80.8068 79.261 83.8623 74.6777 Q86.941 70.0713 92.7512 70.0713 Z" fill="#000000" fill-rule="nonzero" fill-opacity="1" /><path clip-path="url(#clip330)" d="M122.913 73.775 Q119.302 73.775 117.473 77.3398 Q115.668 80.8814 115.668 88.011 Q115.668 95.1174 117.473 98.6822 Q119.302 102.224 122.913 102.224 Q126.547 102.224 128.353 98.6822 Q130.182 95.1174 130.182 88.011 Q130.182 80.8814 128.353 77.3398 Q126.547 73.775 122.913 73.775 M122.913 70.0713 Q128.723 70.0713 131.779 74.6777 Q134.857 79.261 134.857 88.011 Q134.857 96.7378 131.779 101.344 Q128.723 105.928 122.913 105.928 Q117.103 105.928 114.024 101.344 Q110.969 96.7378 110.969 88.011 Q110.969 79.261 114.024 74.6777 Q117.103 70.0713 122.913 70.0713 Z" fill="#000000" fill-rule="nonzero" fill-opacity="1" /><path clip-path="url(#clip332)" d="M232.609 1418.56 L253.401 1418.56 L274.193 1427.61 L294.985 1436.66 L315.777 1441.19 L336.569 1423.09 L357.36 1427.61 L378.152 1432.14 L398.944 1432.14 L419.736 1436.66 L440.528 1436.66 L461.32 1427.61 L482.112 1427.61 L502.904 1404.98 L523.695 1432.14 L544.487 1427.61 L565.279 1436.66 L586.071 1418.56 L606.863 1418.56 L627.655 1427.61 L648.447 1418.56 L669.238 1418.56 L690.03 1441.19 L710.822 1423.09 L731.614 1436.66 L752.406 1423.09 L773.198 1427.61 L793.99 1427.61 L814.782 1441.19 L835.573 1423.09 L856.365 1418.56 L877.157 1436.66 L897.949 1436.66 L918.741 1432.14 L939.533 1427.61 L960.325 1423.09 L981.116 1418.56 L1001.91 1423.09 L1022.7 1432.14 L1043.49 1418.56 L1064.28 1432.14 L1085.08 1409.51 L1105.87 1427.61 L1126.66 1436.66 L1147.45 1423.09 L1168.24 1432.14 L1189.04 1427.61 L1209.83 1441.19 L1230.62 1427.61 L1251.41 1423.09 L1272.2 1414.04 L1292.99 1423.09 L1313.79 1432.14 L1334.58 1418.56 L1355.37 1441.19 L1376.16 1414.04 L1396.95 1418.56 L1417.75 1432.14 L1438.54 1423.09 L1459.33 1441.19 L1480.12 1427.61 L1500.91 1432.14 L1521.7 1427.61 L1542.5 1441.19 L1563.29 1432.14 L1584.08 1418.56 L1604.87 1409.51 L1625.66 1423.09 L1646.46 1427.61 L1667.25 1423.09 L1688.04 1418.56 L1708.83 1427.61 L1729.62 1432.14 L1750.42 1427.61 L1771.21 1418.56 L1792 1423.09 L1812.79 1427.61 L1833.58 1427.61 L1854.37 1427.61 L1875.17 1432.14 L1895.96 1445.72 L1916.75 1432.14 L1937.54 1423.09 L1958.33 1427.61 L1979.13 1418.56 L1999.92 1418.56 L2020.71 1409.51 L2041.5 1418.56 L2062.29 1427.61 L2083.09 1418.56 L2103.88 1418.56 L2124.67 1414.04 L2145.46 1427.61 L2166.25 1414.04 L2187.04 1432.14 L2207.84 1427.61 L2228.63 1432.14 L2249.42 1400.46 L2270.21 1418.56 L2291 1409.51 L2291 1445.72 L2270.21 1445.72 L2249.42 1445.72 L2228.63 1445.72 L2207.84 1445.72 L2187.04 1445.72 L2166.25 1445.72 L2145.46 1445.72 L2124.67 1445.72 L2103.88 1445.72 L2083.09 1445.72 L2062.29 1445.72 L2041.5 1445.72 L2020.71 1445.72 L1999.92 1445.72 L1979.13 1445.72 L1958.33 1445.72 L1937.54 1445.72 L1916.75 1445.72 L1895.96 1445.72 L1875.17 1445.72 L1854.37 1445.72 L1833.58 1445.72 L1812.79 1445.72 L1792 1445.72 L1771.21 1445.72 L1750.42 1445.72 L1729.62 1445.72 L1708.83 1445.72 L1688.04 1445.72 L1667.25 1445.72 L1646.46 1445.72 L1625.66 1445.72 L1604.87 1445.72 L1584.08 1445.72 L1563.29 1445.72 L1542.5 1445.72 L1521.7 1445.72 L1500.91 1445.72 L1480.12 1445.72 L1459.33 1445.72 L1438.54 1445.72 L1417.75 1445.72 L1396.95 1445.72 L1376.16 1445.72 L1355.37 1445.72 L1334.58 1445.72 L1313.79 1445.72 L1292.99 1445.72 L1272.2 1445.72 L1251.41 1445.72 L1230.62 1445.72 L1209.83 1445.72 L1189.04 1445.72 L1168.24 1445.72 L1147.45 1445.72 L1126.66 1445.72 L1105.87 1445.72 L1085.08 1445.72 L1064.28 1445.72 L1043.49 1445.72 L1022.7 1445.72 L1001.91 1445.72 L981.116 1445.72 L960.325 1445.72 L939.533 1445.72 L918.741 1445.72 L897.949 1445.72 L877.157 1445.72 L856.365 1445.72 L835.573 1445.72 L814.782 1445.72 L793.99 1445.72 L773.198 1445.72 L752.406 1445.72 L731.614 1445.72 L710.822 1445.72 L690.03 1445.72 L669.238 1445.72 L648.447 1445.72 L627.655 1445.72 L606.863 1445.72 L586.071 1445.72 L565.279 1445.72 L544.487 1445.72 L523.695 1445.72 L502.904 1445.72 L482.112 1445.72 L461.32 1445.72 L440.528 1445.72 L419.736 1445.72 L398.944 1445.72 L378.152 1445.72 L357.36 1445.72 L336.569 1445.72 L315.777 1445.72 L294.985 1445.72 L274.193 1445.72 L253.401 1445.72 L232.609 1445.72  Z" fill="#032333" fill-rule="evenodd" fill-opacity="1"/>
<polyline clip-path="url(#clip332)" style="stroke:#032333; stroke-linecap:round; stroke-linejoin:round; stroke-width:4; stroke-opacity:1; fill:none" points="232.609,1418.56 253.401,1418.56 274.193,1427.61 294.985,1436.66 315.777,1441.19 336.569,1423.09 357.36,1427.61 378.152,1432.14 398.944,1432.14 419.736,1436.66 440.528,1436.66 461.32,1427.61 482.112,1427.61 502.904,1404.98 523.695,1432.14 544.487,1427.61 565.279,1436.66 586.071,1418.56 606.863,1418.56 627.655,1427.61 648.447,1418.56 669.238,1418.56 690.03,1441.19 710.822,1423.09 731.614,1436.66 752.406,1423.09 773.198,1427.61 793.99,1427.61 814.782,1441.19 835.573,1423.09 856.365,1418.56 877.157,1436.66 897.949,1436.66 918.741,1432.14 939.533,1427.61 960.325,1423.09 981.116,1418.56 1001.91,1423.09 1022.7,1432.14 1043.49,1418.56 1064.28,1432.14 1085.08,1409.51 1105.87,1427.61 1126.66,1436.66 1147.45,1423.09 1168.24,1432.14 1189.04,1427.61 1209.83,1441.19 1230.62,1427.61 1251.41,1423.09 1272.2,1414.04 1292.99,1423.09 1313.79,1432.14 1334.58,1418.56 1355.37,1441.19 1376.16,1414.04 1396.95,1418.56 1417.75,1432.14 1438.54,1423.09 1459.33,1441.19 1480.12,1427.61 1500.91,1432.14 1521.7,1427.61 1542.5,1441.19 1563.29,1432.14 1584.08,1418.56 1604.87,1409.51 1625.66,1423.09 1646.46,1427.61 1667.25,1423.09 1688.04,1418.56 1708.83,1427.61 1729.62,1432.14 1750.42,1427.61 1771.21,1418.56 1792,1423.09 1812.79,1427.61 1833.58,1427.61 1854.37,1427.61 1875.17,1432.14 1895.96,1445.72 1916.75,1432.14 1937.54,1423.09 1958.33,1427.61 1979.13,1418.56 1999.92,1418.56 2020.71,1409.51 2041.5,1418.56 2062.29,1427.61 2083.09,1418.56 2103.88,1418.56 2124.67,1414.04 2145.46,1427.61 2166.25,1414.04 2187.04,1432.14 2207.84,1427.61 2228.63,1432.14 2249.42,1400.46 2270.21,1418.56 2291,1409.51 "/>
<path clip-path="url(#clip332)" d="M232.609 1414.04 L253.401 1418.56 L274.193 1414.04 L294.985 1432.14 L315.777 1436.66 L336.569 1414.04 L357.36 1423.09 L378.152 1432.14 L398.944 1432.14 L419.736 1432.14 L440.528 1432.14 L461.32 1423.09 L482.112 1423.09 L502.904 1400.46 L523.695 1423.09 L544.487 1427.61 L565.279 1432.14 L586.071 1409.51 L606.863 1414.04 L627.655 1423.09 L648.447 1414.04 L669.238 1414.04 L690.03 1441.19 L710.822 1418.56 L731.614 1427.61 L752.406 1423.09 L773.198 1427.61 L793.99 1423.09 L814.782 1436.66 L835.573 1414.04 L856.365 1418.56 L877.157 1427.61 L897.949 1427.61 L918.741 1427.61 L939.533 1423.09 L960.325 1418.56 L981.116 1418.56 L1001.91 1423.09 L1022.7 1427.61 L1043.49 1418.56 L1064.28 1423.09 L1085.08 1404.98 L1105.87 1423.09 L1126.66 1432.14 L1147.45 1418.56 L1168.24 1423.09 L1189.04 1427.61 L1209.83 1436.66 L1230.62 1418.56 L1251.41 1423.09 L1272.2 1409.51 L1292.99 1418.56 L1313.79 1427.61 L1334.58 1409.51 L1355.37 1436.66 L1376.16 1414.04 L1396.95 1418.56 L1417.75 1432.14 L1438.54 1414.04 L1459.33 1436.66 L1480.12 1418.56 L1500.91 1423.09 L1521.7 1423.09 L1542.5 1441.19 L1563.29 1427.61 L1584.08 1418.56 L1604.87 1409.51 L1625.66 1414.04 L1646.46 1423.09 L1667.25 1423.09 L1688.04 1414.04 L1708.83 1427.61 L1729.62 1432.14 L1750.42 1423.09 L1771.21 1414.04 L1792 1423.09 L1812.79 1427.61 L1833.58 1423.09 L1854.37 1427.61 L1875.17 1427.61 L1895.96 1441.19 L1916.75 1423.09 L1937.54 1423.09 L1958.33 1418.56 L1979.13 1418.56 L1999.92 1409.51 L2020.71 1409.51 L2041.5 1409.51 L2062.29 1418.56 L2083.09 1414.04 L2103.88 1414.04 L2124.67 1404.98 L2145.46 1423.09 L2166.25 1414.04 L2187.04 1427.61 L2207.84 1414.04 L2228.63 1418.56 L2249.42 1400.46 L2270.21 1409.51 L2291 1404.98 L2291 1409.51 L2270.21 1418.56 L2249.42 1400.46 L2228.63 1432.14 L2207.84 1427.61 L2187.04 1432.14 L2166.25 1414.04 L2145.46 1427.61 L2124.67 1414.04 L2103.88 1418.56 L2083.09 1418.56 L2062.29 1427.61 L2041.5 1418.56 L2020.71 1409.51 L1999.92 1418.56 L1979.13 1418.56 L1958.33 1427.61 L1937.54 1423.09 L1916.75 1432.14 L1895.96 1445.72 L1875.17 1432.14 L1854.37 1427.61 L1833.58 1427.61 L1812.79 1427.61 L1792 1423.09 L1771.21 1418.56 L1750.42 1427.61 L1729.62 1432.14 L1708.83 1427.61 L1688.04 1418.56 L1667.25 1423.09 L1646.46 1427.61 L1625.66 1423.09 L1604.87 1409.51 L1584.08 1418.56 L1563.29 1432.14 L1542.5 1441.19 L1521.7 1427.61 L1500.91 1432.14 L1480.12 1427.61 L1459.33 1441.19 L1438.54 1423.09 L1417.75 1432.14 L1396.95 1418.56 L1376.16 1414.04 L1355.37 1441.19 L1334.58 1418.56 L1313.79 1432.14 L1292.99 1423.09 L1272.2 1414.04 L1251.41 1423.09 L1230.62 1427.61 L1209.83 1441.19 L1189.04 1427.61 L1168.24 1432.14 L1147.45 1423.09 L1126.66 1436.66 L1105.87 1427.61 L1085.08 1409.51 L1064.28 1432.14 L1043.49 1418.56 L1022.7 1432.14 L1001.91 1423.09 L981.116 1418.56 L960.325 1423.09 L939.533 1427.61 L918.741 1432.14 L897.949 1436.66 L877.157 1436.66 L856.365 1418.56 L835.573 1423.09 L814.782 1441.19 L793.99 1427.61 L773.198 1427.61 L752.406 1423.09 L731.614 1436.66 L710.822 1423.09 L690.03 1441.19 L669.238 1418.56 L648.447 1418.56 L627.655 1427.61 L606.863 1418.56 L586.071 1418.56 L565.279 1436.66 L544.487 1427.61 L523.695 1432.14 L502.904 1404.98 L482.112 1427.61 L461.32 1427.61 L440.528 1436.66 L419.736 1436.66 L398.944 1432.14 L378.152 1432.14 L357.36 1427.61 L336.569 1423.09 L315.777 1441.19 L294.985 1436.66 L274.193 1427.61 L253.401 1418.56 L232.609 1418.56  Z" fill="#e7fa5a" fill-rule="evenodd" fill-opacity="1"/>
<polyline clip-path="url(#clip332)" style="stroke:#e7fa5a; stroke-linecap:round; stroke-linejoin:round; stroke-width:4; stroke-opacity:1; fill:none" points="232.609,1414.04 253.401,1418.56 274.193,1414.04 294.985,1432.14 315.777,1436.66 336.569,1414.04 357.36,1423.09 378.152,1432.14 398.944,1432.14 419.736,1432.14 440.528,1432.14 461.32,1423.09 482.112,1423.09 502.904,1400.46 523.695,1423.09 544.487,1427.61 565.279,1432.14 586.071,1409.51 606.863,1414.04 627.655,1423.09 648.447,1414.04 669.238,1414.04 690.03,1441.19 710.822,1418.56 731.614,1427.61 752.406,1423.09 773.198,1427.61 793.99,1423.09 814.782,1436.66 835.573,1414.04 856.365,1418.56 877.157,1427.61 897.949,1427.61 918.741,1427.61 939.533,1423.09 960.325,1418.56 981.116,1418.56 1001.91,1423.09 1022.7,1427.61 1043.49,1418.56 1064.28,1423.09 1085.08,1404.98 1105.87,1423.09 1126.66,1432.14 1147.45,1418.56 1168.24,1423.09 1189.04,1427.61 1209.83,1436.66 1230.62,1418.56 1251.41,1423.09 1272.2,1409.51 1292.99,1418.56 1313.79,1427.61 1334.58,1409.51 1355.37,1436.66 1376.16,1414.04 1396.95,1418.56 1417.75,1432.14 1438.54,1414.04 1459.33,1436.66 1480.12,1418.56 1500.91,1423.09 1521.7,1423.09 1542.5,1441.19 1563.29,1427.61 1584.08,1418.56 1604.87,1409.51 1625.66,1414.04 1646.46,1423.09 1667.25,1423.09 1688.04,1414.04 1708.83,1427.61 1729.62,1432.14 1750.42,1423.09 1771.21,1414.04 1792,1423.09 1812.79,1427.61 1833.58,1423.09 1854.37,1427.61 1875.17,1427.61 1895.96,1441.19 1916.75,1423.09 1937.54,1423.09 1958.33,1418.56 1979.13,1418.56 1999.92,1409.51 2020.71,1409.51 2041.5,1409.51 2062.29,1418.56 2083.09,1414.04 2103.88,1414.04 2124.67,1404.98 2145.46,1423.09 2166.25,1414.04 2187.04,1427.61 2207.84,1414.04 2228.63,1418.56 2249.42,1400.46 2270.21,1409.51 2291,1404.98 "/>
<path clip-path="url(#clip332)" d="M232.609 1233 L253.401 1246.58 L274.193 1246.58 L294.985 1278.26 L315.777 1205.85 L336.569 1192.27 L357.36 1237.53 L378.152 1246.58 L398.944 1242.05 L419.736 1278.26 L440.528 1246.58 L461.32 1246.58 L482.112 1291.84 L502.904 1183.22 L523.695 1260.16 L544.487 1246.58 L565.279 1300.89 L586.071 1237.53 L606.863 1264.68 L627.655 1264.68 L648.447 1214.9 L669.238 1269.21 L690.03 1237.53 L710.822 1219.43 L731.614 1192.27 L752.406 1264.68 L773.198 1269.21 L793.99 1196.8 L814.782 1242.05 L835.573 1228.48 L856.365 1255.63 L877.157 1246.58 L897.949 1246.58 L918.741 1260.16 L939.533 1233 L960.325 1255.63 L981.116 1228.48 L1001.91 1219.43 L1022.7 1187.75 L1043.49 1237.53 L1064.28 1242.05 L1085.08 1228.48 L1105.87 1228.48 L1126.66 1273.74 L1147.45 1251.11 L1168.24 1282.79 L1189.04 1192.27 L1209.83 1273.74 L1230.62 1214.9 L1251.41 1233 L1272.2 1228.48 L1292.99 1228.48 L1313.79 1255.63 L1334.58 1255.63 L1355.37 1219.43 L1376.16 1237.53 L1396.95 1237.53 L1417.75 1237.53 L1438.54 1214.9 L1459.33 1255.63 L1480.12 1287.31 L1500.91 1260.16 L1521.7 1269.21 L1542.5 1219.43 L1563.29 1228.48 L1584.08 1260.16 L1604.87 1237.53 L1625.66 1242.05 L1646.46 1273.74 L1667.25 1233 L1688.04 1205.85 L1708.83 1273.74 L1729.62 1242.05 L1750.42 1223.95 L1771.21 1196.8 L1792 1214.9 L1812.79 1318.99 L1833.58 1237.53 L1854.37 1251.11 L1875.17 1219.43 L1895.96 1260.16 L1916.75 1228.48 L1937.54 1246.58 L1958.33 1242.05 L1979.13 1264.68 L1999.92 1178.69 L2020.71 1187.75 L2041.5 1196.8 L2062.29 1219.43 L2083.09 1237.53 L2103.88 1246.58 L2124.67 1237.53 L2145.46 1260.16 L2166.25 1210.37 L2187.04 1246.58 L2207.84 1205.85 L2228.63 1214.9 L2249.42 1187.75 L2270.21 1237.53 L2291 1201.32 L2291 1404.98 L2270.21 1409.51 L2249.42 1400.46 L2228.63 1418.56 L2207.84 1414.04 L2187.04 1427.61 L2166.25 1414.04 L2145.46 1423.09 L2124.67 1404.98 L2103.88 1414.04 L2083.09 1414.04 L2062.29 1418.56 L2041.5 1409.51 L2020.71 1409.51 L1999.92 1409.51 L1979.13 1418.56 L1958.33 1418.56 L1937.54 1423.09 L1916.75 1423.09 L1895.96 1441.19 L1875.17 1427.61 L1854.37 1427.61 L1833.58 1423.09 L1812.79 1427.61 L1792 1423.09 L1771.21 1414.04 L1750.42 1423.09 L1729.62 1432.14 L1708.83 1427.61 L1688.04 1414.04 L1667.25 1423.09 L1646.46 1423.09 L1625.66 1414.04 L1604.87 1409.51 L1584.08 1418.56 L1563.29 1427.61 L1542.5 1441.19 L1521.7 1423.09 L1500.91 1423.09 L1480.12 1418.56 L1459.33 1436.66 L1438.54 1414.04 L1417.75 1432.14 L1396.95 1418.56 L1376.16 1414.04 L1355.37 1436.66 L1334.58 1409.51 L1313.79 1427.61 L1292.99 1418.56 L1272.2 1409.51 L1251.41 1423.09 L1230.62 1418.56 L1209.83 1436.66 L1189.04 1427.61 L1168.24 1423.09 L1147.45 1418.56 L1126.66 1432.14 L1105.87 1423.09 L1085.08 1404.98 L1064.28 1423.09 L1043.49 1418.56 L1022.7 1427.61 L1001.91 1423.09 L981.116 1418.56 L960.325 1418.56 L939.533 1423.09 L918.741 1427.61 L897.949 1427.61 L877.157 1427.61 L856.365 1418.56 L835.573 1414.04 L814.782 1436.66 L793.99 1423.09 L773.198 1427.61 L752.406 1423.09 L731.614 1427.61 L710.822 1418.56 L690.03 1441.19 L669.238 1414.04 L648.447 1414.04 L627.655 1423.09 L606.863 1414.04 L586.071 1409.51 L565.279 1432.14 L544.487 1427.61 L523.695 1423.09 L502.904 1400.46 L482.112 1423.09 L461.32 1423.09 L440.528 1432.14 L419.736 1432.14 L398.944 1432.14 L378.152 1432.14 L357.36 1423.09 L336.569 1414.04 L315.777 1436.66 L294.985 1432.14 L274.193 1414.04 L253.401 1418.56 L232.609 1414.04  Z" fill="#af5f81" fill-rule="evenodd" fill-opacity="1"/>
<polyline clip-path="url(#clip332)" style="stroke:#af5f81; stroke-linecap:round; stroke-linejoin:round; stroke-width:4; stroke-opacity:1; fill:none" points="232.609,1233 253.401,1246.58 274.193,1246.58 294.985,1278.26 315.777,1205.85 336.569,1192.27 357.36,1237.53 378.152,1246.58 398.944,1242.05 419.736,1278.26 440.528,1246.58 461.32,1246.58 482.112,1291.84 502.904,1183.22 523.695,1260.16 544.487,1246.58 565.279,1300.89 586.071,1237.53 606.863,1264.68 627.655,1264.68 648.447,1214.9 669.238,1269.21 690.03,1237.53 710.822,1219.43 731.614,1192.27 752.406,1264.68 773.198,1269.21 793.99,1196.8 814.782,1242.05 835.573,1228.48 856.365,1255.63 877.157,1246.58 897.949,1246.58 918.741,1260.16 939.533,1233 960.325,1255.63 981.116,1228.48 1001.91,1219.43 1022.7,1187.75 1043.49,1237.53 1064.28,1242.05 1085.08,1228.48 1105.87,1228.48 1126.66,1273.74 1147.45,1251.11 1168.24,1282.79 1189.04,1192.27 1209.83,1273.74 1230.62,1214.9 1251.41,1233 1272.2,1228.48 1292.99,1228.48 1313.79,1255.63 1334.58,1255.63 1355.37,1219.43 1376.16,1237.53 1396.95,1237.53 1417.75,1237.53 1438.54,1214.9 1459.33,1255.63 1480.12,1287.31 1500.91,1260.16 1521.7,1269.21 1542.5,1219.43 1563.29,1228.48 1584.08,1260.16 1604.87,1237.53 1625.66,1242.05 1646.46,1273.74 1667.25,1233 1688.04,1205.85 1708.83,1273.74 1729.62,1242.05 1750.42,1223.95 1771.21,1196.8 1792,1214.9 1812.79,1318.99 1833.58,1237.53 1854.37,1251.11 1875.17,1219.43 1895.96,1260.16 1916.75,1228.48 1937.54,1246.58 1958.33,1242.05 1979.13,1264.68 1999.92,1178.69 2020.71,1187.75 2041.5,1196.8 2062.29,1219.43 2083.09,1237.53 2103.88,1246.58 2124.67,1237.53 2145.46,1260.16 2166.25,1210.37 2187.04,1246.58 2207.84,1205.85 2228.63,1214.9 2249.42,1187.75 2270.21,1237.53 2291,1201.32 "/>
<path clip-path="url(#clip332)" d="M232.609 1210.37 L253.401 1214.9 L274.193 1228.48 L294.985 1228.48 L315.777 1174.17 L336.569 1174.17 L357.36 1214.9 L378.152 1201.32 L398.944 1201.32 L419.736 1242.05 L440.528 1210.37 L461.32 1205.85 L482.112 1242.05 L502.904 1165.12 L523.695 1214.9 L544.487 1210.37 L565.279 1260.16 L586.071 1178.69 L606.863 1228.48 L627.655 1219.43 L648.447 1178.69 L669.238 1223.95 L690.03 1205.85 L710.822 1174.17 L731.614 1160.59 L752.406 1214.9 L773.198 1251.11 L793.99 1169.64 L814.782 1196.8 L835.573 1174.17 L856.365 1196.8 L877.157 1196.8 L897.949 1201.32 L918.741 1233 L939.533 1192.27 L960.325 1214.9 L981.116 1201.32 L1001.91 1178.69 L1022.7 1165.12 L1043.49 1201.32 L1064.28 1174.17 L1085.08 1192.27 L1105.87 1205.85 L1126.66 1219.43 L1147.45 1233 L1168.24 1255.63 L1189.04 1160.59 L1209.83 1246.58 L1230.62 1187.75 L1251.41 1205.85 L1272.2 1183.22 L1292.99 1196.8 L1313.79 1233 L1334.58 1219.43 L1355.37 1178.69 L1376.16 1210.37 L1396.95 1205.85 L1417.75 1205.85 L1438.54 1147.01 L1459.33 1210.37 L1480.12 1223.95 L1500.91 1219.43 L1521.7 1223.95 L1542.5 1196.8 L1563.29 1178.69 L1584.08 1214.9 L1604.87 1196.8 L1625.66 1214.9 L1646.46 1242.05 L1667.25 1210.37 L1688.04 1178.69 L1708.83 1233 L1729.62 1196.8 L1750.42 1174.17 L1771.21 1160.59 L1792 1178.69 L1812.79 1278.26 L1833.58 1169.64 L1854.37 1214.9 L1875.17 1178.69 L1895.96 1228.48 L1916.75 1174.17 L1937.54 1183.22 L1958.33 1183.22 L1979.13 1228.48 L1999.92 1133.44 L2020.71 1169.64 L2041.5 1169.64 L2062.29 1160.59 L2083.09 1214.9 L2103.88 1214.9 L2124.67 1187.75 L2145.46 1214.9 L2166.25 1196.8 L2187.04 1210.37 L2207.84 1178.69 L2228.63 1201.32 L2249.42 1147.01 L2270.21 1192.27 L2291 1151.54 L2291 1201.32 L2270.21 1237.53 L2249.42 1187.75 L2228.63 1214.9 L2207.84 1205.85 L2187.04 1246.58 L2166.25 1210.37 L2145.46 1260.16 L2124.67 1237.53 L2103.88 1246.58 L2083.09 1237.53 L2062.29 1219.43 L2041.5 1196.8 L2020.71 1187.75 L1999.92 1178.69 L1979.13 1264.68 L1958.33 1242.05 L1937.54 1246.58 L1916.75 1228.48 L1895.96 1260.16 L1875.17 1219.43 L1854.37 1251.11 L1833.58 1237.53 L1812.79 1318.99 L1792 1214.9 L1771.21 1196.8 L1750.42 1223.95 L1729.62 1242.05 L1708.83 1273.74 L1688.04 1205.85 L1667.25 1233 L1646.46 1273.74 L1625.66 1242.05 L1604.87 1237.53 L1584.08 1260.16 L1563.29 1228.48 L1542.5 1219.43 L1521.7 1269.21 L1500.91 1260.16 L1480.12 1287.31 L1459.33 1255.63 L1438.54 1214.9 L1417.75 1237.53 L1396.95 1237.53 L1376.16 1237.53 L1355.37 1219.43 L1334.58 1255.63 L1313.79 1255.63 L1292.99 1228.48 L1272.2 1228.48 L1251.41 1233 L1230.62 1214.9 L1209.83 1273.74 L1189.04 1192.27 L1168.24 1282.79 L1147.45 1251.11 L1126.66 1273.74 L1105.87 1228.48 L1085.08 1228.48 L1064.28 1242.05 L1043.49 1237.53 L1022.7 1187.75 L1001.91 1219.43 L981.116 1228.48 L960.325 1255.63 L939.533 1233 L918.741 1260.16 L897.949 1246.58 L877.157 1246.58 L856.365 1255.63 L835.573 1228.48 L814.782 1242.05 L793.99 1196.8 L773.198 1269.21 L752.406 1264.68 L731.614 1192.27 L710.822 1219.43 L690.03 1237.53 L669.238 1269.21 L648.447 1214.9 L627.655 1264.68 L606.863 1264.68 L586.071 1237.53 L565.279 1300.89 L544.487 1246.58 L523.695 1260.16 L502.904 1183.22 L482.112 1291.84 L461.32 1246.58 L440.528 1246.58 L419.736 1278.26 L398.944 1242.05 L378.152 1246.58 L357.36 1237.53 L336.569 1192.27 L315.777 1205.85 L294.985 1278.26 L274.193 1246.58 L253.401 1246.58 L232.609 1233  Z" fill="#553b9c" fill-rule="evenodd" fill-opacity="1"/>
<polyline clip-path="url(#clip332)" style="stroke:#553b9c; stroke-linecap:round; stroke-linejoin:round; stroke-width:4; stroke-opacity:1; fill:none" points="232.609,1210.37 253.401,1214.9 274.193,1228.48 294.985,1228.48 315.777,1174.17 336.569,1174.17 357.36,1214.9 378.152,1201.32 398.944,1201.32 419.736,1242.05 440.528,1210.37 461.32,1205.85 482.112,1242.05 502.904,1165.12 523.695,1214.9 544.487,1210.37 565.279,1260.16 586.071,1178.69 606.863,1228.48 627.655,1219.43 648.447,1178.69 669.238,1223.95 690.03,1205.85 710.822,1174.17 731.614,1160.59 752.406,1214.9 773.198,1251.11 793.99,1169.64 814.782,1196.8 835.573,1174.17 856.365,1196.8 877.157,1196.8 897.949,1201.32 918.741,1233 939.533,1192.27 960.325,1214.9 981.116,1201.32 1001.91,1178.69 1022.7,1165.12 1043.49,1201.32 1064.28,1174.17 1085.08,1192.27 1105.87,1205.85 1126.66,1219.43 1147.45,1233 1168.24,1255.63 1189.04,1160.59 1209.83,1246.58 1230.62,1187.75 1251.41,1205.85 1272.2,1183.22 1292.99,1196.8 1313.79,1233 1334.58,1219.43 1355.37,1178.69 1376.16,1210.37 1396.95,1205.85 1417.75,1205.85 1438.54,1147.01 1459.33,1210.37 1480.12,1223.95 1500.91,1219.43 1521.7,1223.95 1542.5,1196.8 1563.29,1178.69 1584.08,1214.9 1604.87,1196.8 1625.66,1214.9 1646.46,1242.05 1667.25,1210.37 1688.04,1178.69 1708.83,1233 1729.62,1196.8 1750.42,1174.17 1771.21,1160.59 1792,1178.69 1812.79,1278.26 1833.58,1169.64 1854.37,1214.9 1875.17,1178.69 1895.96,1228.48 1916.75,1174.17 1937.54,1183.22 1958.33,1183.22 1979.13,1228.48 1999.92,1133.44 2020.71,1169.64 2041.5,1169.64 2062.29,1160.59 2083.09,1214.9 2103.88,1214.9 2124.67,1187.75 2145.46,1214.9 2166.25,1196.8 2187.04,1210.37 2207.84,1178.69 2228.63,1201.32 2249.42,1147.01 2270.21,1192.27 2291,1151.54 "/>
<path clip-path="url(#clip332)" d="M232.609 1124.38 L253.401 1128.91 L274.193 1147.01 L294.985 1142.49 L315.777 1079.13 L336.569 1083.65 L357.36 1106.28 L378.152 1088.18 L398.944 1079.13 L419.736 1133.44 L440.528 1119.86 L461.32 1097.23 L482.112 1133.44 L502.904 1074.6 L523.695 1106.28 L544.487 1110.81 L565.279 1142.49 L586.071 1070.07 L606.863 1128.91 L627.655 1137.96 L648.447 1083.65 L669.238 1156.06 L690.03 1106.28 L710.822 1092.7 L731.614 1083.65 L752.406 1133.44 L773.198 1133.44 L793.99 1079.13 L814.782 1106.28 L835.573 1124.38 L856.365 1101.76 L877.157 1106.28 L897.949 1142.49 L918.741 1119.86 L939.533 1079.13 L960.325 1106.28 L981.116 1074.6 L1001.91 1079.13 L1022.7 1074.6 L1043.49 1083.65 L1064.28 1097.23 L1085.08 1110.81 L1105.87 1128.91 L1126.66 1133.44 L1147.45 1156.06 L1168.24 1151.54 L1189.04 1056.5 L1209.83 1151.54 L1230.62 1083.65 L1251.41 1079.13 L1272.2 1115.33 L1292.99 1106.28 L1313.79 1142.49 L1334.58 1124.38 L1355.37 1065.55 L1376.16 1106.28 L1396.95 1119.86 L1417.75 1115.33 L1438.54 1042.92 L1459.33 1128.91 L1480.12 1119.86 L1500.91 1088.18 L1521.7 1115.33 L1542.5 1106.28 L1563.29 1092.7 L1584.08 1119.86 L1604.87 1128.91 L1625.66 1101.76 L1646.46 1151.54 L1667.25 1119.86 L1688.04 1074.6 L1708.83 1119.86 L1729.62 1106.28 L1750.42 1101.76 L1771.21 1047.45 L1792 1088.18 L1812.79 1174.17 L1833.58 1070.07 L1854.37 1106.28 L1875.17 1106.28 L1895.96 1101.76 L1916.75 1101.76 L1937.54 1083.65 L1958.33 1097.23 L1979.13 1137.96 L1999.92 1074.6 L2020.71 1079.13 L2041.5 1088.18 L2062.29 1079.13 L2083.09 1133.44 L2103.88 1097.23 L2124.67 1083.65 L2145.46 1115.33 L2166.25 1106.28 L2187.04 1160.59 L2207.84 1106.28 L2228.63 1119.86 L2249.42 1042.92 L2270.21 1088.18 L2291 1061.02 L2291 1151.54 L2270.21 1192.27 L2249.42 1147.01 L2228.63 1201.32 L2207.84 1178.69 L2187.04 1210.37 L2166.25 1196.8 L2145.46 1214.9 L2124.67 1187.75 L2103.88 1214.9 L2083.09 1214.9 L2062.29 1160.59 L2041.5 1169.64 L2020.71 1169.64 L1999.92 1133.44 L1979.13 1228.48 L1958.33 1183.22 L1937.54 1183.22 L1916.75 1174.17 L1895.96 1228.48 L1875.17 1178.69 L1854.37 1214.9 L1833.58 1169.64 L1812.79 1278.26 L1792 1178.69 L1771.21 1160.59 L1750.42 1174.17 L1729.62 1196.8 L1708.83 1233 L1688.04 1178.69 L1667.25 1210.37 L1646.46 1242.05 L1625.66 1214.9 L1604.87 1196.8 L1584.08 1214.9 L1563.29 1178.69 L1542.5 1196.8 L1521.7 1223.95 L1500.91 1219.43 L1480.12 1223.95 L1459.33 1210.37 L1438.54 1147.01 L1417.75 1205.85 L1396.95 1205.85 L1376.16 1210.37 L1355.37 1178.69 L1334.58 1219.43 L1313.79 1233 L1292.99 1196.8 L1272.2 1183.22 L1251.41 1205.85 L1230.62 1187.75 L1209.83 1246.58 L1189.04 1160.59 L1168.24 1255.63 L1147.45 1233 L1126.66 1219.43 L1105.87 1205.85 L1085.08 1192.27 L1064.28 1174.17 L1043.49 1201.32 L1022.7 1165.12 L1001.91 1178.69 L981.116 1201.32 L960.325 1214.9 L939.533 1192.27 L918.741 1233 L897.949 1201.32 L877.157 1196.8 L856.365 1196.8 L835.573 1174.17 L814.782 1196.8 L793.99 1169.64 L773.198 1251.11 L752.406 1214.9 L731.614 1160.59 L710.822 1174.17 L690.03 1205.85 L669.238 1223.95 L648.447 1178.69 L627.655 1219.43 L606.863 1228.48 L586.071 1178.69 L565.279 1260.16 L544.487 1210.37 L523.695 1214.9 L502.904 1165.12 L482.112 1242.05 L461.32 1205.85 L440.528 1210.37 L419.736 1242.05 L398.944 1201.32 L378.152 1201.32 L357.36 1214.9 L336.569 1174.17 L315.777 1174.17 L294.985 1228.48 L274.193 1228.48 L253.401 1214.9 L232.609 1210.37  Z" fill="#f99241" fill-rule="evenodd" fill-opacity="1"/>
<polyline clip-path="url(#clip332)" style="stroke:#f99241; stroke-linecap:round; stroke-linejoin:round; stroke-width:4; stroke-opacity:1; fill:none" points="232.609,1124.38 253.401,1128.91 274.193,1147.01 294.985,1142.49 315.777,1079.13 336.569,1083.65 357.36,1106.28 378.152,1088.18 398.944,1079.13 419.736,1133.44 440.528,1119.86 461.32,1097.23 482.112,1133.44 502.904,1074.6 523.695,1106.28 544.487,1110.81 565.279,1142.49 586.071,1070.07 606.863,1128.91 627.655,1137.96 648.447,1083.65 669.238,1156.06 690.03,1106.28 710.822,1092.7 731.614,1083.65 752.406,1133.44 773.198,1133.44 793.99,1079.13 814.782,1106.28 835.573,1124.38 856.365,1101.76 877.157,1106.28 897.949,1142.49 918.741,1119.86 939.533,1079.13 960.325,1106.28 981.116,1074.6 1001.91,1079.13 1022.7,1074.6 1043.49,1083.65 1064.28,1097.23 1085.08,1110.81 1105.87,1128.91 1126.66,1133.44 1147.45,1156.06 1168.24,1151.54 1189.04,1056.5 1209.83,1151.54 1230.62,1083.65 1251.41,1079.13 1272.2,1115.33 1292.99,1106.28 1313.79,1142.49 1334.58,1124.38 1355.37,1065.55 1376.16,1106.28 1396.95,1119.86 1417.75,1115.33 1438.54,1042.92 1459.33,1128.91 1480.12,1119.86 1500.91,1088.18 1521.7,1115.33 1542.5,1106.28 1563.29,1092.7 1584.08,1119.86 1604.87,1128.91 1625.66,1101.76 1646.46,1151.54 1667.25,1119.86 1688.04,1074.6 1708.83,1119.86 1729.62,1106.28 1750.42,1101.76 1771.21,1047.45 1792,1088.18 1812.79,1174.17 1833.58,1070.07 1854.37,1106.28 1875.17,1106.28 1895.96,1101.76 1916.75,1101.76 1937.54,1083.65 1958.33,1097.23 1979.13,1137.96 1999.92,1074.6 2020.71,1079.13 2041.5,1088.18 2062.29,1079.13 2083.09,1133.44 2103.88,1097.23 2124.67,1083.65 2145.46,1115.33 2166.25,1106.28 2187.04,1160.59 2207.84,1106.28 2228.63,1119.86 2249.42,1042.92 2270.21,1088.18 2291,1061.02 "/>
<path clip-path="url(#clip332)" d="M232.609 1110.81 L253.401 1110.81 L274.193 1124.38 L294.985 1128.91 L315.777 1070.07 L336.569 1065.55 L357.36 1097.23 L378.152 1065.55 L398.944 1074.6 L419.736 1101.76 L440.528 1101.76 L461.32 1074.6 L482.112 1106.28 L502.904 1061.02 L523.695 1101.76 L544.487 1101.76 L565.279 1128.91 L586.071 1042.92 L606.863 1115.33 L627.655 1124.38 L648.447 1056.5 L669.238 1137.96 L690.03 1083.65 L710.822 1061.02 L731.614 1079.13 L752.406 1124.38 L773.198 1115.33 L793.99 1042.92 L814.782 1101.76 L835.573 1106.28 L856.365 1074.6 L877.157 1088.18 L897.949 1119.86 L918.741 1097.23 L939.533 1056.5 L960.325 1101.76 L981.116 1051.97 L1001.91 1065.55 L1022.7 1051.97 L1043.49 1061.02 L1064.28 1074.6 L1085.08 1097.23 L1105.87 1110.81 L1126.66 1115.33 L1147.45 1128.91 L1168.24 1128.91 L1189.04 1029.34 L1209.83 1147.01 L1230.62 1074.6 L1251.41 1070.07 L1272.2 1101.76 L1292.99 1083.65 L1313.79 1133.44 L1334.58 1106.28 L1355.37 1038.39 L1376.16 1097.23 L1396.95 1106.28 L1417.75 1101.76 L1438.54 1029.34 L1459.33 1110.81 L1480.12 1101.76 L1500.91 1083.65 L1521.7 1106.28 L1542.5 1088.18 L1563.29 1070.07 L1584.08 1110.81 L1604.87 1110.81 L1625.66 1083.65 L1646.46 1137.96 L1667.25 1092.7 L1688.04 1056.5 L1708.83 1088.18 L1729.62 1088.18 L1750.42 1074.6 L1771.21 1033.87 L1792 1079.13 L1812.79 1151.54 L1833.58 1038.39 L1854.37 1092.7 L1875.17 1092.7 L1895.96 1079.13 L1916.75 1070.07 L1937.54 1074.6 L1958.33 1088.18 L1979.13 1133.44 L1999.92 1061.02 L2020.71 1051.97 L2041.5 1047.45 L2062.29 1070.07 L2083.09 1092.7 L2103.88 1065.55 L2124.67 1074.6 L2145.46 1088.18 L2166.25 1056.5 L2187.04 1142.49 L2207.84 1070.07 L2228.63 1097.23 L2249.42 1020.29 L2270.21 1056.5 L2291 1042.92 L2291 1061.02 L2270.21 1088.18 L2249.42 1042.92 L2228.63 1119.86 L2207.84 1106.28 L2187.04 1160.59 L2166.25 1106.28 L2145.46 1115.33 L2124.67 1083.65 L2103.88 1097.23 L2083.09 1133.44 L2062.29 1079.13 L2041.5 1088.18 L2020.71 1079.13 L1999.92 1074.6 L1979.13 1137.96 L1958.33 1097.23 L1937.54 1083.65 L1916.75 1101.76 L1895.96 1101.76 L1875.17 1106.28 L1854.37 1106.28 L1833.58 1070.07 L1812.79 1174.17 L1792 1088.18 L1771.21 1047.45 L1750.42 1101.76 L1729.62 1106.28 L1708.83 1119.86 L1688.04 1074.6 L1667.25 1119.86 L1646.46 1151.54 L1625.66 1101.76 L1604.87 1128.91 L1584.08 1119.86 L1563.29 1092.7 L1542.5 1106.28 L1521.7 1115.33 L1500.91 1088.18 L1480.12 1119.86 L1459.33 1128.91 L1438.54 1042.92 L1417.75 1115.33 L1396.95 1119.86 L1376.16 1106.28 L1355.37 1065.55 L1334.58 1124.38 L1313.79 1142.49 L1292.99 1106.28 L1272.2 1115.33 L1251.41 1079.13 L1230.62 1083.65 L1209.83 1151.54 L1189.04 1056.5 L1168.24 1151.54 L1147.45 1156.06 L1126.66 1133.44 L1105.87 1128.91 L1085.08 1110.81 L1064.28 1097.23 L1043.49 1083.65 L1022.7 1074.6 L1001.91 1079.13 L981.116 1074.6 L960.325 1106.28 L939.533 1079.13 L918.741 1119.86 L897.949 1142.49 L877.157 1106.28 L856.365 1101.76 L835.573 1124.38 L814.782 1106.28 L793.99 1079.13 L773.198 1133.44 L752.406 1133.44 L731.614 1083.65 L710.822 1092.7 L690.03 1106.28 L669.238 1156.06 L648.447 1083.65 L627.655 1137.96 L606.863 1128.91 L586.071 1070.07 L565.279 1142.49 L544.487 1110.81 L523.695 1106.28 L502.904 1074.6 L482.112 1133.44 L461.32 1097.23 L440.528 1119.86 L419.736 1133.44 L398.944 1079.13 L378.152 1088.18 L357.36 1106.28 L336.569 1083.65 L315.777 1079.13 L294.985 1142.49 L274.193 1147.01 L253.401 1128.91 L232.609 1124.38  Z" fill="#18337b" fill-rule="evenodd" fill-opacity="1"/>
<polyline clip-path="url(#clip332)" style="stroke:#18337b; stroke-linecap:round; stroke-linejoin:round; stroke-width:4; stroke-opacity:1; fill:none" points="232.609,1110.81 253.401,1110.81 274.193,1124.38 294.985,1128.91 315.777,1070.07 336.569,1065.55 357.36,1097.23 378.152,1065.55 398.944,1074.6 419.736,1101.76 440.528,1101.76 461.32,1074.6 482.112,1106.28 502.904,1061.02 523.695,1101.76 544.487,1101.76 565.279,1128.91 586.071,1042.92 606.863,1115.33 627.655,1124.38 648.447,1056.5 669.238,1137.96 690.03,1083.65 710.822,1061.02 731.614,1079.13 752.406,1124.38 773.198,1115.33 793.99,1042.92 814.782,1101.76 835.573,1106.28 856.365,1074.6 877.157,1088.18 897.949,1119.86 918.741,1097.23 939.533,1056.5 960.325,1101.76 981.116,1051.97 1001.91,1065.55 1022.7,1051.97 1043.49,1061.02 1064.28,1074.6 1085.08,1097.23 1105.87,1110.81 1126.66,1115.33 1147.45,1128.91 1168.24,1128.91 1189.04,1029.34 1209.83,1147.01 1230.62,1074.6 1251.41,1070.07 1272.2,1101.76 1292.99,1083.65 1313.79,1133.44 1334.58,1106.28 1355.37,1038.39 1376.16,1097.23 1396.95,1106.28 1417.75,1101.76 1438.54,1029.34 1459.33,1110.81 1480.12,1101.76 1500.91,1083.65 1521.7,1106.28 1542.5,1088.18 1563.29,1070.07 1584.08,1110.81 1604.87,1110.81 1625.66,1083.65 1646.46,1137.96 1667.25,1092.7 1688.04,1056.5 1708.83,1088.18 1729.62,1088.18 1750.42,1074.6 1771.21,1033.87 1792,1079.13 1812.79,1151.54 1833.58,1038.39 1854.37,1092.7 1875.17,1092.7 1895.96,1079.13 1916.75,1070.07 1937.54,1074.6 1958.33,1088.18 1979.13,1133.44 1999.92,1061.02 2020.71,1051.97 2041.5,1047.45 2062.29,1070.07 2083.09,1092.7 2103.88,1065.55 2124.67,1074.6 2145.46,1088.18 2166.25,1056.5 2187.04,1142.49 2207.84,1070.07 2228.63,1097.23 2249.42,1020.29 2270.21,1056.5 2291,1042.92 "/>
<path clip-path="url(#clip332)" d="M232.609 232.802 L253.401 273.534 L274.193 273.534 L294.985 237.328 L315.777 250.905 L336.569 241.853 L357.36 255.431 L378.152 223.75 L398.944 232.802 L419.736 250.905 L440.528 246.379 L461.32 214.699 L482.112 314.266 L502.904 259.957 L523.695 259.957 L544.487 264.482 L565.279 237.328 L586.071 219.224 L606.863 296.163 L627.655 264.482 L648.447 278.06 L669.238 273.534 L690.03 241.853 L710.822 282.586 L731.614 305.215 L752.406 264.482 L773.198 278.06 L793.99 241.853 L814.782 296.163 L835.573 278.06 L856.365 269.008 L877.157 237.328 L897.949 291.637 L918.741 255.431 L939.533 223.75 L960.325 264.482 L981.116 273.534 L1001.91 241.853 L1022.7 305.215 L1043.49 237.328 L1064.28 223.75 L1085.08 241.853 L1105.87 232.802 L1126.66 278.06 L1147.45 282.586 L1168.24 232.802 L1189.04 241.853 L1209.83 278.06 L1230.62 223.75 L1251.41 241.853 L1272.2 273.534 L1292.99 232.802 L1313.79 246.379 L1334.58 264.482 L1355.37 246.379 L1376.16 250.905 L1396.95 250.905 L1417.75 269.008 L1438.54 237.328 L1459.33 318.792 L1480.12 269.008 L1500.91 232.802 L1521.7 259.957 L1542.5 282.586 L1563.29 273.534 L1584.08 250.905 L1604.87 246.379 L1625.66 296.163 L1646.46 250.905 L1667.25 237.328 L1688.04 210.173 L1708.83 210.173 L1729.62 259.957 L1750.42 264.482 L1771.21 228.276 L1792 241.853 L1812.79 269.008 L1833.58 278.06 L1854.37 269.008 L1875.17 259.957 L1895.96 237.328 L1916.75 237.328 L1937.54 250.905 L1958.33 255.431 L1979.13 255.431 L1999.92 287.111 L2020.71 323.318 L2041.5 241.853 L2062.29 287.111 L2083.09 264.482 L2103.88 264.482 L2124.67 278.06 L2145.46 287.111 L2166.25 237.328 L2187.04 296.163 L2207.84 282.586 L2228.63 201.121 L2249.42 228.276 L2270.21 255.431 L2291 219.224 L2291 1042.92 L2270.21 1056.5 L2249.42 1020.29 L2228.63 1097.23 L2207.84 1070.07 L2187.04 1142.49 L2166.25 1056.5 L2145.46 1088.18 L2124.67 1074.6 L2103.88 1065.55 L2083.09 1092.7 L2062.29 1070.07 L2041.5 1047.45 L2020.71 1051.97 L1999.92 1061.02 L1979.13 1133.44 L1958.33 1088.18 L1937.54 1074.6 L1916.75 1070.07 L1895.96 1079.13 L1875.17 1092.7 L1854.37 1092.7 L1833.58 1038.39 L1812.79 1151.54 L1792 1079.13 L1771.21 1033.87 L1750.42 1074.6 L1729.62 1088.18 L1708.83 1088.18 L1688.04 1056.5 L1667.25 1092.7 L1646.46 1137.96 L1625.66 1083.65 L1604.87 1110.81 L1584.08 1110.81 L1563.29 1070.07 L1542.5 1088.18 L1521.7 1106.28 L1500.91 1083.65 L1480.12 1101.76 L1459.33 1110.81 L1438.54 1029.34 L1417.75 1101.76 L1396.95 1106.28 L1376.16 1097.23 L1355.37 1038.39 L1334.58 1106.28 L1313.79 1133.44 L1292.99 1083.65 L1272.2 1101.76 L1251.41 1070.07 L1230.62 1074.6 L1209.83 1147.01 L1189.04 1029.34 L1168.24 1128.91 L1147.45 1128.91 L1126.66 1115.33 L1105.87 1110.81 L1085.08 1097.23 L1064.28 1074.6 L1043.49 1061.02 L1022.7 1051.97 L1001.91 1065.55 L981.116 1051.97 L960.325 1101.76 L939.533 1056.5 L918.741 1097.23 L897.949 1119.86 L877.157 1088.18 L856.365 1074.6 L835.573 1106.28 L814.782 1101.76 L793.99 1042.92 L773.198 1115.33 L752.406 1124.38 L731.614 1079.13 L710.822 1061.02 L690.03 1083.65 L669.238 1137.96 L648.447 1056.5 L627.655 1124.38 L606.863 1115.33 L586.071 1042.92 L565.279 1128.91 L544.487 1101.76 L523.695 1101.76 L502.904 1061.02 L482.112 1106.28 L461.32 1074.6 L440.528 1101.76 L419.736 1101.76 L398.944 1074.6 L378.152 1065.55 L357.36 1097.23 L336.569 1065.55 L315.777 1070.07 L294.985 1128.91 L274.193 1124.38 L253.401 1110.81 L232.609 1110.81  Z" fill="#de6f64" fill-rule="evenodd" fill-opacity="1"/>
<polyline clip-path="url(#clip332)" style="stroke:#de6f64; stroke-linecap:round; stroke-linejoin:round; stroke-width:4; stroke-opacity:1; fill:none" points="232.609,232.802 253.401,273.534 274.193,273.534 294.985,237.328 315.777,250.905 336.569,241.853 357.36,255.431 378.152,223.75 398.944,232.802 419.736,250.905 440.528,246.379 461.32,214.699 482.112,314.266 502.904,259.957 523.695,259.957 544.487,264.482 565.279,237.328 586.071,219.224 606.863,296.163 627.655,264.482 648.447,278.06 669.238,273.534 690.03,241.853 710.822,282.586 731.614,305.215 752.406,264.482 773.198,278.06 793.99,241.853 814.782,296.163 835.573,278.06 856.365,269.008 877.157,237.328 897.949,291.637 918.741,255.431 939.533,223.75 960.325,264.482 981.116,273.534 1001.91,241.853 1022.7,305.215 1043.49,237.328 1064.28,223.75 1085.08,241.853 1105.87,232.802 1126.66,278.06 1147.45,282.586 1168.24,232.802 1189.04,241.853 1209.83,278.06 1230.62,223.75 1251.41,241.853 1272.2,273.534 1292.99,232.802 1313.79,246.379 1334.58,264.482 1355.37,246.379 1376.16,250.905 1396.95,250.905 1417.75,269.008 1438.54,237.328 1459.33,318.792 1480.12,269.008 1500.91,232.802 1521.7,259.957 1542.5,282.586 1563.29,273.534 1584.08,250.905 1604.87,246.379 1625.66,296.163 1646.46,250.905 1667.25,237.328 1688.04,210.173 1708.83,210.173 1729.62,259.957 1750.42,264.482 1771.21,228.276 1792,241.853 1812.79,269.008 1833.58,278.06 1854.37,269.008 1875.17,259.957 1895.96,237.328 1916.75,237.328 1937.54,250.905 1958.33,255.431 1979.13,255.431 1999.92,287.111 2020.71,323.318 2041.5,241.853 2062.29,287.111 2083.09,264.482 2103.88,264.482 2124.67,278.06 2145.46,287.111 2166.25,237.328 2187.04,296.163 2207.84,282.586 2228.63,201.121 2249.42,228.276 2270.21,255.431 2291,219.224 "/>
<path clip-path="url(#clip332)" d="M232.609 87.9763 L253.401 87.9763 L274.193 87.9763 L294.985 87.9763 L315.777 87.9763 L336.569 87.9763 L357.36 87.9763 L378.152 87.9763 L398.944 87.9763 L419.736 87.9763 L440.528 87.9763 L461.32 87.9763 L482.112 87.9763 L502.904 87.9763 L523.695 87.9763 L544.487 87.9763 L565.279 87.9763 L586.071 87.9763 L606.863 87.9763 L627.655 87.9763 L648.447 87.9763 L669.238 87.9763 L690.03 87.9763 L710.822 87.9763 L731.614 87.9763 L752.406 87.9763 L773.198 87.9763 L793.99 87.9763 L814.782 87.9763 L835.573 87.9763 L856.365 87.9763 L877.157 87.9763 L897.949 87.9763 L918.741 87.9763 L939.533 87.9763 L960.325 87.9763 L981.116 87.9763 L1001.91 87.9763 L1022.7 87.9763 L1043.49 87.9763 L1064.28 87.9763 L1085.08 87.9763 L1105.87 87.9763 L1126.66 87.9763 L1147.45 87.9763 L1168.24 87.9763 L1189.04 87.9763 L1209.83 87.9763 L1230.62 87.9763 L1251.41 87.9763 L1272.2 87.9763 L1292.99 87.9763 L1313.79 87.9763 L1334.58 87.9763 L1355.37 87.9763 L1376.16 87.9763 L1396.95 87.9763 L1417.75 87.9763 L1438.54 87.9763 L1459.33 87.9763 L1480.12 87.9763 L1500.91 87.9763 L1521.7 87.9763 L1542.5 87.9763 L1563.29 87.9763 L1584.08 87.9763 L1604.87 87.9763 L1625.66 87.9763 L1646.46 87.9763 L1667.25 87.9763 L1688.04 87.9763 L1708.83 87.9763 L1729.62 87.9763 L1750.42 87.9763 L1771.21 87.9763 L1792 87.9763 L1812.79 87.9763 L1833.58 87.9763 L1854.37 87.9763 L1875.17 87.9763 L1895.96 87.9763 L1916.75 87.9763 L1937.54 87.9763 L1958.33 87.9763 L1979.13 87.9763 L1999.92 87.9763 L2020.71 87.9763 L2041.5 87.9763 L2062.29 87.9763 L2083.09 87.9763 L2103.88 87.9763 L2124.67 87.9763 L2145.46 87.9763 L2166.25 87.9763 L2187.04 87.9763 L2207.84 87.9763 L2228.63 87.9763 L2249.42 87.9763 L2270.21 87.9763 L2291 87.9763 L2291 219.224 L2270.21 255.431 L2249.42 228.276 L2228.63 201.121 L2207.84 282.586 L2187.04 296.163 L2166.25 237.328 L2145.46 287.111 L2124.67 278.06 L2103.88 264.482 L2083.09 264.482 L2062.29 287.111 L2041.5 241.853 L2020.71 323.318 L1999.92 287.111 L1979.13 255.431 L1958.33 255.431 L1937.54 250.905 L1916.75 237.328 L1895.96 237.328 L1875.17 259.957 L1854.37 269.008 L1833.58 278.06 L1812.79 269.008 L1792 241.853 L1771.21 228.276 L1750.42 264.482 L1729.62 259.957 L1708.83 210.173 L1688.04 210.173 L1667.25 237.328 L1646.46 250.905 L1625.66 296.163 L1604.87 246.379 L1584.08 250.905 L1563.29 273.534 L1542.5 282.586 L1521.7 259.957 L1500.91 232.802 L1480.12 269.008 L1459.33 318.792 L1438.54 237.328 L1417.75 269.008 L1396.95 250.905 L1376.16 250.905 L1355.37 246.379 L1334.58 264.482 L1313.79 246.379 L1292.99 232.802 L1272.2 273.534 L1251.41 241.853 L1230.62 223.75 L1209.83 278.06 L1189.04 241.853 L1168.24 232.802 L1147.45 282.586 L1126.66 278.06 L1105.87 232.802 L1085.08 241.853 L1064.28 223.75 L1043.49 237.328 L1022.7 305.215 L1001.91 241.853 L981.116 273.534 L960.325 264.482 L939.533 223.75 L918.741 255.431 L897.949 291.637 L877.157 237.328 L856.365 269.008 L835.573 278.06 L814.782 296.163 L793.99 241.853 L773.198 278.06 L752.406 264.482 L731.614 305.215 L710.822 282.586 L690.03 241.853 L669.238 273.534 L648.447 278.06 L627.655 264.482 L606.863 296.163 L586.071 219.224 L565.279 237.328 L544.487 264.482 L523.695 259.957 L502.904 259.957 L482.112 314.266 L461.32 214.699 L440.528 246.379 L419.736 250.905 L398.944 232.802 L378.152 223.75 L357.36 255.431 L336.569 241.853 L315.777 250.905 L294.985 237.328 L274.193 273.534 L253.401 273.534 L232.609 232.802  Z" fill="#824f8e" fill-rule="evenodd" fill-opacity="1"/>
<polyline clip-path="url(#clip332)" style="stroke:#824f8e; stroke-linecap:round; stroke-linejoin:round; stroke-width:4; stroke-opacity:1; fill:none" points="232.609,87.9763 253.401,87.9763 274.193,87.9763 294.985,87.9763 315.777,87.9763 336.569,87.9763 357.36,87.9763 378.152,87.9763 398.944,87.9763 419.736,87.9763 440.528,87.9763 461.32,87.9763 482.112,87.9763 502.904,87.9763 523.695,87.9763 544.487,87.9763 565.279,87.9763 586.071,87.9763 606.863,87.9763 627.655,87.9763 648.447,87.9763 669.238,87.9763 690.03,87.9763 710.822,87.9763 731.614,87.9763 752.406,87.9763 773.198,87.9763 793.99,87.9763 814.782,87.9763 835.573,87.9763 856.365,87.9763 877.157,87.9763 897.949,87.9763 918.741,87.9763 939.533,87.9763 960.325,87.9763 981.116,87.9763 1001.91,87.9763 1022.7,87.9763 1043.49,87.9763 1064.28,87.9763 1085.08,87.9763 1105.87,87.9763 1126.66,87.9763 1147.45,87.9763 1168.24,87.9763 1189.04,87.9763 1209.83,87.9763 1230.62,87.9763 1251.41,87.9763 1272.2,87.9763 1292.99,87.9763 1313.79,87.9763 1334.58,87.9763 1355.37,87.9763 1376.16,87.9763 1396.95,87.9763 1417.75,87.9763 1438.54,87.9763 1459.33,87.9763 1480.12,87.9763 1500.91,87.9763 1521.7,87.9763 1542.5,87.9763 1563.29,87.9763 1584.08,87.9763 1604.87,87.9763 1625.66,87.9763 1646.46,87.9763 1667.25,87.9763 1688.04,87.9763 1708.83,87.9763 1729.62,87.9763 1750.42,87.9763 1771.21,87.9763 1792,87.9763 1812.79,87.9763 1833.58,87.9763 1854.37,87.9763 1875.17,87.9763 1895.96,87.9763 1916.75,87.9763 1937.54,87.9763 1958.33,87.9763 1979.13,87.9763 1999.92,87.9763 2020.71,87.9763 2041.5,87.9763 2062.29,87.9763 2083.09,87.9763 2103.88,87.9763 2124.67,87.9763 2145.46,87.9763 2166.25,87.9763 2187.04,87.9763 2207.84,87.9763 2228.63,87.9763 2249.42,87.9763 2270.21,87.9763 2291,87.9763 "/>
</svg>
