<?xml version="1.0" encoding="utf-8"?>
<svg xmlns="http://www.w3.org/2000/svg" xmlns:xlink="http://www.w3.org/1999/xlink" width="600" height="400" viewBox="0 0 2400 1600">
<defs>
  <clipPath id="clip930">
    <rect x="0" y="0" width="2400" height="1600"/>
  </clipPath>
</defs>
<path clip-path="url(#clip930)" d="M0 1600 L2400 1600 L2400 0 L0 0  Z" fill="#ffffff" fill-rule="evenodd" fill-opacity="1"/>
<defs>
  <clipPath id="clip931">
    <rect x="480" y="0" width="1681" height="1600"/>
  </clipPath>
</defs>
<path clip-path="url(#clip930)" d="M156.251 1486.45 L2352.76 1486.45 L2352.76 47.2441 L156.251 47.2441  Z" fill="#ffffff" fill-rule="evenodd" fill-opacity="1"/>
<defs>
  <clipPath id="clip932">
    <rect x="156" y="47" width="2198" height="1440"/>
  </clipPath>
</defs>
<polyline clip-path="url(#clip932)" style="stroke:#000000; stroke-linecap:round; stroke-linejoin:round; stroke-width:2; stroke-opacity:0.1; fill:none" points="218.416,1486.45 218.416,47.2441 "/>
<polyline clip-path="url(#clip932)" style="stroke:#000000; stroke-linecap:round; stroke-linejoin:round; stroke-width:2; stroke-opacity:0.1; fill:none" points="736.46,1486.45 736.46,47.2441 "/>
<polyline clip-path="url(#clip932)" style="stroke:#000000; stroke-linecap:round; stroke-linejoin:round; stroke-width:2; stroke-opacity:0.1; fill:none" points="1254.5,1486.45 1254.5,47.2441 "/>
<polyline clip-path="url(#clip932)" style="stroke:#000000; stroke-linecap:round; stroke-linejoin:round; stroke-width:2; stroke-opacity:0.1; fill:none" points="1772.55,1486.45 1772.55,47.2441 "/>
<polyline clip-path="url(#clip932)" style="stroke:#000000; stroke-linecap:round; stroke-linejoin:round; stroke-width:2; stroke-opacity:0.1; fill:none" points="2290.59,1486.45 2290.59,47.2441 "/>
<polyline clip-path="url(#clip930)" style="stroke:#000000; stroke-linecap:round; stroke-linejoin:round; stroke-width:4; stroke-opacity:1; fill:none" points="156.251,1486.45 2352.76,1486.45 "/>
<polyline clip-path="url(#clip930)" style="stroke:#000000; stroke-linecap:round; stroke-linejoin:round; stroke-width:4; stroke-opacity:1; fill:none" points="218.416,1486.45 218.416,1467.55 "/>
<polyline clip-path="url(#clip930)" style="stroke:#000000; stroke-linecap:round; stroke-linejoin:round; stroke-width:4; stroke-opacity:1; fill:none" points="736.46,1486.45 736.46,1467.55 "/>
<polyline clip-path="url(#clip930)" style="stroke:#000000; stroke-linecap:round; stroke-linejoin:round; stroke-width:4; stroke-opacity:1; fill:none" points="1254.5,1486.45 1254.5,1467.55 "/>
<polyline clip-path="url(#clip930)" style="stroke:#000000; stroke-linecap:round; stroke-linejoin:round; stroke-width:4; stroke-opacity:1; fill:none" points="1772.55,1486.45 1772.55,1467.55 "/>
<polyline clip-path="url(#clip930)" style="stroke:#000000; stroke-linecap:round; stroke-linejoin:round; stroke-width:4; stroke-opacity:1; fill:none" points="2290.59,1486.45 2290.59,1467.55 "/>
<path clip-path="url(#clip930)" d="M218.416 1517.37 Q214.805 1517.37 212.976 1520.93 Q211.171 1524.47 211.171 1531.6 Q211.171 1538.71 212.976 1542.27 Q214.805 1545.82 218.416 1545.82 Q222.05 1545.82 223.856 1542.27 Q225.685 1538.71 225.685 1531.6 Q225.685 1524.47 223.856 1520.93 Q222.05 1517.37 218.416 1517.37 M218.416 1513.66 Q224.226 1513.66 227.282 1518.27 Q230.361 1522.85 230.361 1531.6 Q230.361 1540.33 227.282 1544.94 Q224.226 1549.52 218.416 1549.52 Q212.606 1549.52 209.527 1544.94 Q206.472 1540.33 206.472 1531.6 Q206.472 1522.85 209.527 1518.27 Q212.606 1513.66 218.416 1513.66 Z" fill="#000000" fill-rule="nonzero" fill-opacity="1" /><path clip-path="url(#clip930)" d="M715.731 1544.91 L732.05 1544.91 L732.05 1548.85 L710.106 1548.85 L710.106 1544.91 Q712.768 1542.16 717.351 1537.53 Q721.958 1532.88 723.138 1531.53 Q725.384 1529.01 726.263 1527.27 Q727.166 1525.51 727.166 1523.82 Q727.166 1521.07 725.221 1519.33 Q723.3 1517.6 720.198 1517.6 Q717.999 1517.6 715.546 1518.36 Q713.115 1519.13 710.337 1520.68 L710.337 1515.95 Q713.161 1514.82 715.615 1514.24 Q718.069 1513.66 720.106 1513.66 Q725.476 1513.66 728.671 1516.35 Q731.865 1519.03 731.865 1523.52 Q731.865 1525.65 731.055 1527.57 Q730.268 1529.47 728.161 1532.07 Q727.583 1532.74 724.481 1535.95 Q721.379 1539.15 715.731 1544.91 Z" fill="#000000" fill-rule="nonzero" fill-opacity="1" /><path clip-path="url(#clip930)" d="M741.911 1514.29 L760.268 1514.29 L760.268 1518.22 L746.194 1518.22 L746.194 1526.7 Q747.212 1526.35 748.231 1526.19 Q749.249 1526 750.268 1526 Q756.055 1526 759.434 1529.17 Q762.814 1532.34 762.814 1537.76 Q762.814 1543.34 759.342 1546.44 Q755.869 1549.52 749.55 1549.52 Q747.374 1549.52 745.106 1549.15 Q742.86 1548.78 740.453 1548.04 L740.453 1543.34 Q742.536 1544.47 744.758 1545.03 Q746.981 1545.58 749.457 1545.58 Q753.462 1545.58 755.8 1543.48 Q758.138 1541.37 758.138 1537.76 Q758.138 1534.15 755.8 1532.04 Q753.462 1529.94 749.457 1529.94 Q747.582 1529.94 745.707 1530.35 Q743.856 1530.77 741.911 1531.65 L741.911 1514.29 Z" fill="#000000" fill-rule="nonzero" fill-opacity="1" /><path clip-path="url(#clip930)" d="M1229.2 1514.29 L1247.56 1514.29 L1247.56 1518.22 L1233.49 1518.22 L1233.49 1526.7 Q1234.5 1526.35 1235.52 1526.19 Q1236.54 1526 1237.56 1526 Q1243.35 1526 1246.73 1529.17 Q1250.11 1532.34 1250.11 1537.76 Q1250.11 1543.34 1246.63 1546.44 Q1243.16 1549.52 1236.84 1549.52 Q1234.67 1549.52 1232.4 1549.15 Q1230.15 1548.78 1227.74 1548.04 L1227.74 1543.34 Q1229.83 1544.47 1232.05 1545.03 Q1234.27 1545.58 1236.75 1545.58 Q1240.75 1545.58 1243.09 1543.48 Q1245.43 1541.37 1245.43 1537.76 Q1245.43 1534.15 1243.09 1532.04 Q1240.75 1529.94 1236.75 1529.94 Q1234.87 1529.94 1233 1530.35 Q1231.15 1530.77 1229.2 1531.65 L1229.2 1514.29 Z" fill="#000000" fill-rule="nonzero" fill-opacity="1" /><path clip-path="url(#clip930)" d="M1269.32 1517.37 Q1265.71 1517.37 1263.88 1520.93 Q1262.07 1524.47 1262.07 1531.6 Q1262.07 1538.71 1263.88 1542.27 Q1265.71 1545.82 1269.32 1545.82 Q1272.95 1545.82 1274.76 1542.27 Q1276.59 1538.71 1276.59 1531.6 Q1276.59 1524.47 1274.76 1520.93 Q1272.95 1517.37 1269.32 1517.37 M1269.32 1513.66 Q1275.13 1513.66 1278.18 1518.27 Q1281.26 1522.85 1281.26 1531.6 Q1281.26 1540.33 1278.18 1544.94 Q1275.13 1549.52 1269.32 1549.52 Q1263.51 1549.52 1260.43 1544.94 Q1257.37 1540.33 1257.37 1531.6 Q1257.37 1522.85 1260.43 1518.27 Q1263.51 1513.66 1269.32 1513.66 Z" fill="#000000" fill-rule="nonzero" fill-opacity="1" /><path clip-path="url(#clip930)" d="M1746.4 1514.29 L1768.62 1514.29 L1768.62 1516.28 L1756.08 1548.85 L1751.19 1548.85 L1763 1518.22 L1746.4 1518.22 L1746.4 1514.29 Z" fill="#000000" fill-rule="nonzero" fill-opacity="1" /><path clip-path="url(#clip930)" d="M1777.79 1514.29 L1796.15 1514.29 L1796.15 1518.22 L1782.07 1518.22 L1782.07 1526.7 Q1783.09 1526.35 1784.11 1526.19 Q1785.13 1526 1786.15 1526 Q1791.93 1526 1795.31 1529.17 Q1798.69 1532.34 1798.69 1537.76 Q1798.69 1543.34 1795.22 1546.44 Q1791.75 1549.52 1785.43 1549.52 Q1783.25 1549.52 1780.98 1549.15 Q1778.74 1548.78 1776.33 1548.04 L1776.33 1543.34 Q1778.42 1544.47 1780.64 1545.03 Q1782.86 1545.58 1785.34 1545.58 Q1789.34 1545.58 1791.68 1543.48 Q1794.02 1541.37 1794.02 1537.76 Q1794.02 1534.15 1791.68 1532.04 Q1789.34 1529.94 1785.34 1529.94 Q1783.46 1529.94 1781.59 1530.35 Q1779.73 1530.77 1777.79 1531.65 L1777.79 1514.29 Z" fill="#000000" fill-rule="nonzero" fill-opacity="1" /><path clip-path="url(#clip930)" d="M2250.2 1544.91 L2257.84 1544.91 L2257.84 1518.55 L2249.53 1520.21 L2249.53 1515.95 L2257.79 1514.29 L2262.47 1514.29 L2262.47 1544.91 L2270.1 1544.91 L2270.1 1548.85 L2250.2 1548.85 L2250.2 1544.91 Z" fill="#000000" fill-rule="nonzero" fill-opacity="1" /><path clip-path="url(#clip930)" d="M2289.55 1517.37 Q2285.94 1517.37 2284.11 1520.93 Q2282.3 1524.47 2282.3 1531.6 Q2282.3 1538.71 2284.11 1542.27 Q2285.94 1545.82 2289.55 1545.82 Q2293.18 1545.82 2294.99 1542.27 Q2296.82 1538.71 2296.82 1531.6 Q2296.82 1524.47 2294.99 1520.93 Q2293.18 1517.37 2289.55 1517.37 M2289.55 1513.66 Q2295.36 1513.66 2298.41 1518.27 Q2301.49 1522.85 2301.49 1531.6 Q2301.49 1540.33 2298.41 1544.94 Q2295.36 1549.52 2289.55 1549.52 Q2283.74 1549.52 2280.66 1544.94 Q2277.6 1540.33 2277.6 1531.6 Q2277.6 1522.85 2280.66 1518.27 Q2283.74 1513.66 2289.55 1513.66 Z" fill="#000000" fill-rule="nonzero" fill-opacity="1" /><path clip-path="url(#clip930)" d="M2319.71 1517.37 Q2316.1 1517.37 2314.27 1520.93 Q2312.47 1524.47 2312.47 1531.6 Q2312.47 1538.71 2314.27 1542.27 Q2316.1 1545.82 2319.71 1545.82 Q2323.35 1545.82 2325.15 1542.27 Q2326.98 1538.71 2326.98 1531.6 Q2326.98 1524.47 2325.15 1520.93 Q2323.35 1517.37 2319.71 1517.37 M2319.71 1513.66 Q2325.52 1513.66 2328.58 1518.27 Q2331.66 1522.85 2331.66 1531.6 Q2331.66 1540.33 2328.58 1544.94 Q2325.52 1549.52 2319.71 1549.52 Q2313.9 1549.52 2310.82 1544.94 Q2307.77 1540.33 2307.77 1531.6 Q2307.77 1522.85 2310.82 1518.27 Q2313.9 1513.66 2319.71 1513.66 Z" fill="#000000" fill-rule="nonzero" fill-opacity="1" /><polyline clip-path="url(#clip932)" style="stroke:#000000; stroke-linecap:round; stroke-linejoin:round; stroke-width:2; stroke-opacity:0.1; fill:none" points="156.251,1335.68 2352.76,1335.68 "/>
<polyline clip-path="url(#clip932)" style="stroke:#000000; stroke-linecap:round; stroke-linejoin:round; stroke-width:2; stroke-opacity:0.1; fill:none" points="156.251,1136.96 2352.76,1136.96 "/>
<polyline clip-path="url(#clip932)" style="stroke:#000000; stroke-linecap:round; stroke-linejoin:round; stroke-width:2; stroke-opacity:0.1; fill:none" points="156.251,938.245 2352.76,938.245 "/>
<polyline clip-path="url(#clip932)" style="stroke:#000000; stroke-linecap:round; stroke-linejoin:round; stroke-width:2; stroke-opacity:0.1; fill:none" points="156.251,739.527 2352.76,739.527 "/>
<polyline clip-path="url(#clip932)" style="stroke:#000000; stroke-linecap:round; stroke-linejoin:round; stroke-width:2; stroke-opacity:0.1; fill:none" points="156.251,540.81 2352.76,540.81 "/>
<polyline clip-path="url(#clip932)" style="stroke:#000000; stroke-linecap:round; stroke-linejoin:round; stroke-width:2; stroke-opacity:0.1; fill:none" points="156.251,342.093 2352.76,342.093 "/>
<polyline clip-path="url(#clip932)" style="stroke:#000000; stroke-linecap:round; stroke-linejoin:round; stroke-width:2; stroke-opacity:0.1; fill:none" points="156.251,143.376 2352.76,143.376 "/>
<polyline clip-path="url(#clip930)" style="stroke:#000000; stroke-linecap:round; stroke-linejoin:round; stroke-width:4; stroke-opacity:1; fill:none" points="156.251,1486.45 156.251,47.2441 "/>
<polyline clip-path="url(#clip930)" style="stroke:#000000; stroke-linecap:round; stroke-linejoin:round; stroke-width:4; stroke-opacity:1; fill:none" points="156.251,1335.68 175.149,1335.68 "/>
<polyline clip-path="url(#clip930)" style="stroke:#000000; stroke-linecap:round; stroke-linejoin:round; stroke-width:4; stroke-opacity:1; fill:none" points="156.251,1136.96 175.149,1136.96 "/>
<polyline clip-path="url(#clip930)" style="stroke:#000000; stroke-linecap:round; stroke-linejoin:round; stroke-width:4; stroke-opacity:1; fill:none" points="156.251,938.245 175.149,938.245 "/>
<polyline clip-path="url(#clip930)" style="stroke:#000000; stroke-linecap:round; stroke-linejoin:round; stroke-width:4; stroke-opacity:1; fill:none" points="156.251,739.527 175.149,739.527 "/>
<polyline clip-path="url(#clip930)" style="stroke:#000000; stroke-linecap:round; stroke-linejoin:round; stroke-width:4; stroke-opacity:1; fill:none" points="156.251,540.81 175.149,540.81 "/>
<polyline clip-path="url(#clip930)" style="stroke:#000000; stroke-linecap:round; stroke-linejoin:round; stroke-width:4; stroke-opacity:1; fill:none" points="156.251,342.093 175.149,342.093 "/>
<polyline clip-path="url(#clip930)" style="stroke:#000000; stroke-linecap:round; stroke-linejoin:round; stroke-width:4; stroke-opacity:1; fill:none" points="156.251,143.376 175.149,143.376 "/>
<path clip-path="url(#clip930)" d="M56.6171 1349.02 L72.9365 1349.02 L72.9365 1352.96 L50.9921 1352.96 L50.9921 1349.02 Q53.6541 1346.27 58.2375 1341.64 Q62.8439 1336.99 64.0245 1335.64 Q66.2698 1333.12 67.1494 1331.38 Q68.0522 1329.63 68.0522 1327.94 Q68.0522 1325.18 66.1078 1323.45 Q64.1865 1321.71 61.0847 1321.71 Q58.8856 1321.71 56.4319 1322.47 Q54.0014 1323.24 51.2236 1324.79 L51.2236 1320.07 Q54.0477 1318.93 56.5014 1318.35 Q58.955 1317.77 60.9921 1317.77 Q66.3624 1317.77 69.5568 1320.46 Q72.7513 1323.14 72.7513 1327.63 Q72.7513 1329.76 71.9411 1331.69 Q71.1541 1333.58 69.0476 1336.18 Q68.4689 1336.85 65.367 1340.07 Q62.2652 1343.26 56.6171 1349.02 Z" fill="#000000" fill-rule="nonzero" fill-opacity="1" /><path clip-path="url(#clip930)" d="M82.7512 1347.08 L87.6354 1347.08 L87.6354 1352.96 L82.7512 1352.96 L82.7512 1347.08 Z" fill="#000000" fill-rule="nonzero" fill-opacity="1" /><path clip-path="url(#clip930)" d="M110.668 1322.47 L98.8622 1340.92 L110.668 1340.92 L110.668 1322.47 M109.441 1318.4 L115.32 1318.4 L115.32 1340.92 L120.251 1340.92 L120.251 1344.81 L115.32 1344.81 L115.32 1352.96 L110.668 1352.96 L110.668 1344.81 L95.066 1344.81 L95.066 1340.3 L109.441 1318.4 Z" fill="#000000" fill-rule="nonzero" fill-opacity="1" /><path clip-path="url(#clip930)" d="M56.9412 1150.31 L73.2605 1150.31 L73.2605 1154.24 L51.3162 1154.24 L51.3162 1150.31 Q53.9782 1147.55 58.5615 1142.92 Q63.168 1138.27 64.3485 1136.93 Q66.5939 1134.4 67.4735 1132.67 Q68.3763 1130.91 68.3763 1129.22 Q68.3763 1126.46 66.4319 1124.73 Q64.5106 1122.99 61.4087 1122.99 Q59.2097 1122.99 56.756 1123.76 Q54.3254 1124.52 51.5477 1126.07 L51.5477 1121.35 Q54.3717 1120.21 56.8254 1119.64 Q59.2791 1119.06 61.3161 1119.06 Q66.6865 1119.06 69.8809 1121.74 Q73.0753 1124.43 73.0753 1128.92 Q73.0753 1131.05 72.2652 1132.97 Q71.4781 1134.87 69.3717 1137.46 Q68.793 1138.13 65.6911 1141.35 Q62.5893 1144.54 56.9412 1150.31 Z" fill="#000000" fill-rule="nonzero" fill-opacity="1" /><path clip-path="url(#clip930)" d="M83.0753 1148.36 L87.9595 1148.36 L87.9595 1154.24 L83.0753 1154.24 L83.0753 1148.36 Z" fill="#000000" fill-rule="nonzero" fill-opacity="1" /><path clip-path="url(#clip930)" d="M108.723 1135.1 Q105.575 1135.1 103.723 1137.25 Q101.895 1139.4 101.895 1143.15 Q101.895 1146.88 103.723 1149.06 Q105.575 1151.21 108.723 1151.21 Q111.871 1151.21 113.7 1149.06 Q115.552 1146.88 115.552 1143.15 Q115.552 1139.4 113.7 1137.25 Q111.871 1135.1 108.723 1135.1 M118.006 1120.45 L118.006 1124.7 Q116.246 1123.87 114.441 1123.43 Q112.658 1122.99 110.899 1122.99 Q106.27 1122.99 103.816 1126.12 Q101.385 1129.24 101.038 1135.56 Q102.404 1133.55 104.464 1132.48 Q106.524 1131.39 109.001 1131.39 Q114.209 1131.39 117.219 1134.57 Q120.251 1137.71 120.251 1143.15 Q120.251 1148.48 117.103 1151.7 Q113.955 1154.91 108.723 1154.91 Q102.728 1154.91 99.5567 1150.33 Q96.3854 1145.72 96.3854 1137 Q96.3854 1128.8 100.274 1123.94 Q104.163 1119.06 110.714 1119.06 Q112.473 1119.06 114.256 1119.4 Q116.061 1119.75 118.006 1120.45 Z" fill="#000000" fill-rule="nonzero" fill-opacity="1" /><path clip-path="url(#clip930)" d="M57.1958 951.589 L73.5152 951.589 L73.5152 955.525 L51.5708 955.525 L51.5708 951.589 Q54.2328 948.835 58.8162 944.205 Q63.4226 939.552 64.6032 938.21 Q66.8485 935.687 67.7281 933.951 Q68.6309 932.191 68.6309 930.502 Q68.6309 927.747 66.6865 926.011 Q64.7652 924.275 61.6634 924.275 Q59.4643 924.275 57.0106 925.039 Q54.5801 925.803 51.8023 927.353 L51.8023 922.631 Q54.6264 921.497 57.0801 920.918 Q59.5337 920.34 61.5708 920.34 Q66.9411 920.34 70.1355 923.025 Q73.33 925.71 73.33 930.201 Q73.33 932.33 72.5198 934.252 Q71.7328 936.15 69.6263 938.742 Q69.0476 939.414 65.9457 942.631 Q62.8439 945.826 57.1958 951.589 Z" fill="#000000" fill-rule="nonzero" fill-opacity="1" /><path clip-path="url(#clip930)" d="M83.3299 949.645 L88.2141 949.645 L88.2141 955.525 L83.3299 955.525 L83.3299 949.645 Z" fill="#000000" fill-rule="nonzero" fill-opacity="1" /><path clip-path="url(#clip930)" d="M108.399 939.113 Q105.066 939.113 103.145 940.895 Q101.246 942.677 101.246 945.802 Q101.246 948.927 103.145 950.71 Q105.066 952.492 108.399 952.492 Q111.733 952.492 113.654 950.71 Q115.575 948.904 115.575 945.802 Q115.575 942.677 113.654 940.895 Q111.756 939.113 108.399 939.113 M103.723 937.122 Q100.714 936.381 99.0243 934.321 Q97.3576 932.261 97.3576 929.298 Q97.3576 925.154 100.297 922.747 Q103.26 920.34 108.399 920.34 Q113.561 920.34 116.501 922.747 Q119.441 925.154 119.441 929.298 Q119.441 932.261 117.751 934.321 Q116.084 936.381 113.098 937.122 Q116.478 937.909 118.353 940.201 Q120.251 942.492 120.251 945.802 Q120.251 950.826 117.172 953.511 Q114.117 956.196 108.399 956.196 Q102.682 956.196 99.603 953.511 Q96.5474 950.826 96.5474 945.802 Q96.5474 942.492 98.4456 940.201 Q100.344 937.909 103.723 937.122 M102.01 929.738 Q102.01 932.423 103.677 933.927 Q105.367 935.432 108.399 935.432 Q111.408 935.432 113.098 933.927 Q114.811 932.423 114.811 929.738 Q114.811 927.053 113.098 925.548 Q111.408 924.043 108.399 924.043 Q105.367 924.043 103.677 925.548 Q102.01 927.053 102.01 929.738 Z" fill="#000000" fill-rule="nonzero" fill-opacity="1" /><path clip-path="url(#clip930)" d="M67.242 738.173 Q70.5985 738.891 72.4735 741.159 Q74.3716 743.428 74.3716 746.761 Q74.3716 751.877 70.8531 754.678 Q67.3346 757.479 60.8532 757.479 Q58.6773 757.479 56.3625 757.039 Q54.0708 756.622 51.6171 755.766 L51.6171 751.252 Q53.5616 752.386 55.8764 752.965 Q58.1912 753.544 60.7143 753.544 Q65.1124 753.544 67.4041 751.807 Q69.7189 750.071 69.7189 746.761 Q69.7189 743.706 67.5661 741.993 Q65.4365 740.257 61.6171 740.257 L57.5893 740.257 L57.5893 736.414 L61.8023 736.414 Q65.2513 736.414 67.08 735.048 Q68.9087 733.659 68.9087 731.067 Q68.9087 728.405 67.0106 726.993 Q65.1356 725.558 61.6171 725.558 Q59.6958 725.558 57.4967 725.974 Q55.2977 726.391 52.6588 727.271 L52.6588 723.104 Q55.3208 722.363 57.6356 721.993 Q59.9736 721.622 62.0337 721.622 Q67.3578 721.622 70.4596 724.053 Q73.5614 726.46 73.5614 730.581 Q73.5614 733.451 71.9179 735.442 Q70.2744 737.409 67.242 738.173 Z" fill="#000000" fill-rule="nonzero" fill-opacity="1" /><path clip-path="url(#clip930)" d="M83.2373 750.928 L88.1216 750.928 L88.1216 756.807 L83.2373 756.807 L83.2373 750.928 Z" fill="#000000" fill-rule="nonzero" fill-opacity="1" /><path clip-path="url(#clip930)" d="M108.307 725.326 Q104.696 725.326 102.867 728.891 Q101.061 732.433 101.061 739.562 Q101.061 746.669 102.867 750.233 Q104.696 753.775 108.307 753.775 Q111.941 753.775 113.746 750.233 Q115.575 746.669 115.575 739.562 Q115.575 732.433 113.746 728.891 Q111.941 725.326 108.307 725.326 M108.307 721.622 Q114.117 721.622 117.172 726.229 Q120.251 730.812 120.251 739.562 Q120.251 748.289 117.172 752.895 Q114.117 757.479 108.307 757.479 Q102.496 757.479 99.4178 752.895 Q96.3623 748.289 96.3623 739.562 Q96.3623 730.812 99.4178 726.229 Q102.496 721.622 108.307 721.622 Z" fill="#000000" fill-rule="nonzero" fill-opacity="1" /><path clip-path="url(#clip930)" d="M68.8393 539.456 Q72.1957 540.174 74.0707 542.442 Q75.9688 544.711 75.9688 548.044 Q75.9688 553.16 72.4503 555.961 Q68.9318 558.762 62.4504 558.762 Q60.2745 558.762 57.9597 558.322 Q55.668 557.905 53.2143 557.049 L53.2143 552.535 Q55.1588 553.669 57.4736 554.248 Q59.7884 554.826 62.3115 554.826 Q66.7096 554.826 69.0013 553.09 Q71.3161 551.354 71.3161 548.044 Q71.3161 544.988 69.1633 543.276 Q67.0337 541.539 63.2143 541.539 L59.1865 541.539 L59.1865 537.697 L63.3995 537.697 Q66.8485 537.697 68.6772 536.331 Q70.5059 534.942 70.5059 532.35 Q70.5059 529.688 68.6078 528.276 Q66.7328 526.84 63.2143 526.84 Q61.293 526.84 59.0939 527.257 Q56.8949 527.674 54.256 528.553 L54.256 524.387 Q56.918 523.646 59.2328 523.276 Q61.5708 522.905 63.6309 522.905 Q68.955 522.905 72.0568 525.336 Q75.1587 527.743 75.1587 531.864 Q75.1587 534.734 73.5152 536.725 Q71.8716 538.692 68.8393 539.456 Z" fill="#000000" fill-rule="nonzero" fill-opacity="1" /><path clip-path="url(#clip930)" d="M84.8345 552.211 L89.7188 552.211 L89.7188 558.09 L84.8345 558.09 L84.8345 552.211 Z" fill="#000000" fill-rule="nonzero" fill-opacity="1" /><path clip-path="url(#clip930)" d="M103.932 554.155 L120.251 554.155 L120.251 558.09 L98.3067 558.09 L98.3067 554.155 Q100.969 551.4 105.552 546.771 Q110.158 542.118 111.339 540.776 Q113.584 538.252 114.464 536.516 Q115.367 534.757 115.367 533.067 Q115.367 530.313 113.422 528.577 Q111.501 526.84 108.399 526.84 Q106.2 526.84 103.746 527.604 Q101.316 528.368 98.5382 529.919 L98.5382 525.197 Q101.362 524.063 103.816 523.484 Q106.27 522.905 108.307 522.905 Q113.677 522.905 116.871 525.59 Q120.066 528.276 120.066 532.766 Q120.066 534.896 119.256 536.817 Q118.469 538.715 116.362 541.308 Q115.783 541.979 112.682 545.197 Q109.58 548.391 103.932 554.155 Z" fill="#000000" fill-rule="nonzero" fill-opacity="1" /><path clip-path="url(#clip930)" d="M66.7559 340.739 Q70.1124 341.457 71.9874 343.725 Q73.8855 345.994 73.8855 349.327 Q73.8855 354.443 70.367 357.244 Q66.8485 360.044 60.3671 360.044 Q58.1912 360.044 55.8764 359.605 Q53.5847 359.188 51.131 358.331 L51.131 353.818 Q53.0754 354.952 55.3903 355.531 Q57.7051 356.109 60.2282 356.109 Q64.6263 356.109 66.918 354.373 Q69.2328 352.637 69.2328 349.327 Q69.2328 346.271 67.08 344.558 Q64.9504 342.822 61.131 342.822 L57.1032 342.822 L57.1032 338.98 L61.3161 338.98 Q64.7652 338.98 66.5939 337.614 Q68.4226 336.225 68.4226 333.633 Q68.4226 330.97 66.5245 329.558 Q64.6495 328.123 61.131 328.123 Q59.2097 328.123 57.0106 328.54 Q54.8115 328.957 52.1727 329.836 L52.1727 325.67 Q54.8347 324.929 57.1495 324.558 Q59.4875 324.188 61.5476 324.188 Q66.8717 324.188 69.9735 326.619 Q73.0753 329.026 73.0753 333.146 Q73.0753 336.017 71.4318 338.007 Q69.7883 339.975 66.7559 340.739 Z" fill="#000000" fill-rule="nonzero" fill-opacity="1" /><path clip-path="url(#clip930)" d="M82.7512 353.494 L87.6354 353.494 L87.6354 359.373 L82.7512 359.373 L82.7512 353.494 Z" fill="#000000" fill-rule="nonzero" fill-opacity="1" /><path clip-path="url(#clip930)" d="M110.668 328.887 L98.8622 347.336 L110.668 347.336 L110.668 328.887 M109.441 324.813 L115.32 324.813 L115.32 347.336 L120.251 347.336 L120.251 351.225 L115.32 351.225 L115.32 359.373 L110.668 359.373 L110.668 351.225 L95.066 351.225 L95.066 346.711 L109.441 324.813 Z" fill="#000000" fill-rule="nonzero" fill-opacity="1" /><path clip-path="url(#clip930)" d="M67.08 142.022 Q70.4365 142.739 72.3115 145.008 Q74.2096 147.276 74.2096 150.61 Q74.2096 155.725 70.6911 158.526 Q67.1726 161.327 60.6911 161.327 Q58.5152 161.327 56.2004 160.887 Q53.9088 160.471 51.4551 159.614 L51.4551 155.1 Q53.3995 156.235 55.7143 156.813 Q58.0291 157.392 60.5523 157.392 Q64.9504 157.392 67.242 155.656 Q69.5568 153.92 69.5568 150.61 Q69.5568 147.554 67.4041 145.841 Q65.2745 144.105 61.455 144.105 L57.4273 144.105 L57.4273 140.263 L61.6402 140.263 Q65.0893 140.263 66.918 138.897 Q68.7467 137.508 68.7467 134.915 Q68.7467 132.253 66.8485 130.841 Q64.9735 129.406 61.455 129.406 Q59.5337 129.406 57.3347 129.823 Q55.1356 130.239 52.4967 131.119 L52.4967 126.952 Q55.1588 126.212 57.4736 125.841 Q59.8115 125.471 61.8717 125.471 Q67.1957 125.471 70.2976 127.902 Q73.3994 130.309 73.3994 134.429 Q73.3994 137.3 71.7559 139.29 Q70.1124 141.258 67.08 142.022 Z" fill="#000000" fill-rule="nonzero" fill-opacity="1" /><path clip-path="url(#clip930)" d="M83.0753 154.776 L87.9595 154.776 L87.9595 160.656 L83.0753 160.656 L83.0753 154.776 Z" fill="#000000" fill-rule="nonzero" fill-opacity="1" /><path clip-path="url(#clip930)" d="M108.723 141.513 Q105.575 141.513 103.723 143.665 Q101.895 145.818 101.895 149.568 Q101.895 153.295 103.723 155.471 Q105.575 157.624 108.723 157.624 Q111.871 157.624 113.7 155.471 Q115.552 153.295 115.552 149.568 Q115.552 145.818 113.7 143.665 Q111.871 141.513 108.723 141.513 M118.006 126.86 L118.006 131.119 Q116.246 130.286 114.441 129.846 Q112.658 129.406 110.899 129.406 Q106.27 129.406 103.816 132.531 Q101.385 135.656 101.038 141.976 Q102.404 139.962 104.464 138.897 Q106.524 137.809 109.001 137.809 Q114.209 137.809 117.219 140.98 Q120.251 144.128 120.251 149.568 Q120.251 154.892 117.103 158.11 Q113.955 161.327 108.723 161.327 Q102.728 161.327 99.5567 156.744 Q96.3854 152.138 96.3854 143.411 Q96.3854 135.216 100.274 130.355 Q104.163 125.471 110.714 125.471 Q112.473 125.471 114.256 125.818 Q116.061 126.165 118.006 126.86 Z" fill="#000000" fill-rule="nonzero" fill-opacity="1" /><polyline clip-path="url(#clip932)" style="stroke:#009af9; stroke-linecap:round; stroke-linejoin:round; stroke-width:4; stroke-opacity:1; fill:none" points="218.416,1191.42 239.138,1110.72 259.86,977.888 280.581,1290.87 301.303,1269.19 322.025,1004.06 342.747,1220.73 363.468,1089.13 384.19,1217.3 404.912,944.312 425.634,1215.78 446.355,918.318 467.077,576.797 487.799,822.752 508.521,1022.19 529.242,1177.3 549.964,1190.55 570.686,535.389 591.408,769.484 612.129,1002.13 632.851,611.082 653.573,944.038 674.295,1167.73 695.016,603.23 715.738,903.623 736.46,1068.66 757.182,1078.38 777.903,810.681 798.625,1116.62 819.347,754.711 840.069,602.083 860.79,864.349 881.512,852.766 902.234,1028.3 922.956,820.547 943.677,991.747 964.399,515.443 985.121,996.282 1005.84,670.55 1026.56,786.27 1047.29,603.437 1068.01,727.291 1088.73,1115.92 1109.45,978.058 1130.17,990.737 1150.89,836.129 1171.62,471.014 1192.34,1445.72 1213.06,845.267 1233.78,1020.92 1254.5,753.365 1275.23,749.935 1295.95,1076.17 1316.67,807.622 1337.39,696.687 1358.11,865.049 1378.83,887.638 1399.56,1003.6 1420.28,663.575 1441,535.23 1461.72,633.923 1482.44,921.355 1503.16,904.898 1523.89,1105.94 1544.61,697.219 1565.33,912.729 1586.05,527.07 1606.77,551.595 1627.49,1216.93 1648.22,1012.87 1668.94,883.685 1689.66,710.579 1710.38,832.47 1731.1,637.911 1751.83,575.321 1772.55,896.083 1793.27,759.167 1813.99,286.44 1834.71,942.919 1855.43,984.998 1876.16,823.881 1896.88,405.102 1917.6,793.128 1938.32,669.509 1959.04,921.619 1979.76,432.718 2000.49,352.665 2021.21,324.665 2041.93,691.102 2062.65,536.812 2083.37,428.001 2104.09,384.508 2124.82,485.913 2145.54,493.061 2166.26,890.23 2186.98,139.733 2207.7,699.673 2228.43,433.232 2249.15,302.286 2269.87,87.9763 2290.59,93.171 "/>
<path clip-path="url(#clip930)" d="M229.468 198.898 L501.549 198.898 L501.549 95.2176 L229.468 95.2176  Z" fill="#ffffff" fill-rule="evenodd" fill-opacity="1"/>
<polyline clip-path="url(#clip930)" style="stroke:#000000; stroke-linecap:round; stroke-linejoin:round; stroke-width:4; stroke-opacity:1; fill:none" points="229.468,198.898 501.549,198.898 501.549,95.2176 229.468,95.2176 229.468,198.898 "/>
<polyline clip-path="url(#clip930)" style="stroke:#009af9; stroke-linecap:round; stroke-linejoin:round; stroke-width:4; stroke-opacity:1; fill:none" points="253.873,147.058 400.307,147.058 "/>
<path clip-path="url(#clip930)" d="M438.555 166.745 Q436.75 171.375 435.037 172.787 Q433.324 174.199 430.453 174.199 L427.051 174.199 L427.051 170.634 L429.551 170.634 Q431.31 170.634 432.282 169.8 Q433.254 168.967 434.435 165.865 L435.199 163.921 L424.713 138.412 L429.227 138.412 L437.328 158.689 L445.43 138.412 L449.944 138.412 L438.555 166.745 Z" fill="#000000" fill-rule="nonzero" fill-opacity="1" /><path clip-path="url(#clip930)" d="M457.236 160.402 L464.875 160.402 L464.875 134.037 L456.564 135.703 L456.564 131.444 L464.828 129.778 L469.504 129.778 L469.504 160.402 L477.143 160.402 L477.143 164.338 L457.236 164.338 L457.236 160.402 Z" fill="#000000" fill-rule="nonzero" fill-opacity="1" /></svg>
