<?xml version="1.0" encoding="utf-8"?>
<svg xmlns="http://www.w3.org/2000/svg" xmlns:xlink="http://www.w3.org/1999/xlink" width="600" height="400" viewBox="0 0 2400 1600">
<defs>
  <clipPath id="clip960">
    <rect x="0" y="0" width="2400" height="1600"/>
  </clipPath>
</defs>
<path clip-path="url(#clip960)" d="M0 1600 L2400 1600 L2400 0 L0 0  Z" fill="#ffffff" fill-rule="evenodd" fill-opacity="1"/>
<defs>
  <clipPath id="clip961">
    <rect x="480" y="0" width="1681" height="1600"/>
  </clipPath>
</defs>
<path clip-path="url(#clip960)" d="M155.765 1486.45 L2352.76 1486.45 L2352.76 47.2441 L155.765 47.2441  Z" fill="#ffffff" fill-rule="evenodd" fill-opacity="1"/>
<defs>
  <clipPath id="clip962">
    <rect x="155" y="47" width="2198" height="1440"/>
  </clipPath>
</defs>
<polyline clip-path="url(#clip962)" style="stroke:#000000; stroke-linecap:round; stroke-linejoin:round; stroke-width:2; stroke-opacity:0.1; fill:none" points="217.944,1486.45 217.944,47.2441 "/>
<polyline clip-path="url(#clip962)" style="stroke:#000000; stroke-linecap:round; stroke-linejoin:round; stroke-width:2; stroke-opacity:0.1; fill:none" points="736.102,1486.45 736.102,47.2441 "/>
<polyline clip-path="url(#clip962)" style="stroke:#000000; stroke-linecap:round; stroke-linejoin:round; stroke-width:2; stroke-opacity:0.1; fill:none" points="1254.26,1486.45 1254.26,47.2441 "/>
<polyline clip-path="url(#clip962)" style="stroke:#000000; stroke-linecap:round; stroke-linejoin:round; stroke-width:2; stroke-opacity:0.1; fill:none" points="1772.42,1486.45 1772.42,47.2441 "/>
<polyline clip-path="url(#clip962)" style="stroke:#000000; stroke-linecap:round; stroke-linejoin:round; stroke-width:2; stroke-opacity:0.1; fill:none" points="2290.58,1486.45 2290.58,47.2441 "/>
<polyline clip-path="url(#clip960)" style="stroke:#000000; stroke-linecap:round; stroke-linejoin:round; stroke-width:4; stroke-opacity:1; fill:none" points="155.765,1486.45 2352.76,1486.45 "/>
<polyline clip-path="url(#clip960)" style="stroke:#000000; stroke-linecap:round; stroke-linejoin:round; stroke-width:4; stroke-opacity:1; fill:none" points="217.944,1486.45 217.944,1467.55 "/>
<polyline clip-path="url(#clip960)" style="stroke:#000000; stroke-linecap:round; stroke-linejoin:round; stroke-width:4; stroke-opacity:1; fill:none" points="736.102,1486.45 736.102,1467.55 "/>
<polyline clip-path="url(#clip960)" style="stroke:#000000; stroke-linecap:round; stroke-linejoin:round; stroke-width:4; stroke-opacity:1; fill:none" points="1254.26,1486.45 1254.26,1467.55 "/>
<polyline clip-path="url(#clip960)" style="stroke:#000000; stroke-linecap:round; stroke-linejoin:round; stroke-width:4; stroke-opacity:1; fill:none" points="1772.42,1486.45 1772.42,1467.55 "/>
<polyline clip-path="url(#clip960)" style="stroke:#000000; stroke-linecap:round; stroke-linejoin:round; stroke-width:4; stroke-opacity:1; fill:none" points="2290.58,1486.45 2290.58,1467.55 "/>
<path clip-path="url(#clip960)" d="M217.944 1517.37 Q214.333 1517.37 212.504 1520.93 Q210.699 1524.47 210.699 1531.6 Q210.699 1538.71 212.504 1542.27 Q214.333 1545.82 217.944 1545.82 Q221.578 1545.82 223.384 1542.27 Q225.212 1538.71 225.212 1531.6 Q225.212 1524.47 223.384 1520.93 Q221.578 1517.37 217.944 1517.37 M217.944 1513.66 Q223.754 1513.66 226.81 1518.27 Q229.888 1522.85 229.888 1531.6 Q229.888 1540.33 226.81 1544.94 Q223.754 1549.52 217.944 1549.52 Q212.134 1549.52 209.055 1544.94 Q206 1540.33 206 1531.6 Q206 1522.85 209.055 1518.27 Q212.134 1513.66 217.944 1513.66 Z" fill="#000000" fill-rule="nonzero" fill-opacity="1" /><path clip-path="url(#clip960)" d="M680.628 1544.91 L688.267 1544.91 L688.267 1518.55 L679.957 1520.21 L679.957 1515.95 L688.22 1514.29 L692.896 1514.29 L692.896 1544.91 L700.535 1544.91 L700.535 1548.85 L680.628 1548.85 L680.628 1544.91 Z" fill="#000000" fill-rule="nonzero" fill-opacity="1" /><path clip-path="url(#clip960)" d="M719.98 1517.37 Q716.368 1517.37 714.54 1520.93 Q712.734 1524.47 712.734 1531.6 Q712.734 1538.71 714.54 1542.27 Q716.368 1545.82 719.98 1545.82 Q723.614 1545.82 725.419 1542.27 Q727.248 1538.71 727.248 1531.6 Q727.248 1524.47 725.419 1520.93 Q723.614 1517.37 719.98 1517.37 M719.98 1513.66 Q725.79 1513.66 728.845 1518.27 Q731.924 1522.85 731.924 1531.6 Q731.924 1540.33 728.845 1544.94 Q725.79 1549.52 719.98 1549.52 Q714.169 1549.52 711.091 1544.94 Q708.035 1540.33 708.035 1531.6 Q708.035 1522.85 711.091 1518.27 Q714.169 1513.66 719.98 1513.66 Z" fill="#000000" fill-rule="nonzero" fill-opacity="1" /><path clip-path="url(#clip960)" d="M750.141 1517.37 Q746.53 1517.37 744.702 1520.93 Q742.896 1524.47 742.896 1531.6 Q742.896 1538.71 744.702 1542.27 Q746.53 1545.82 750.141 1545.82 Q753.776 1545.82 755.581 1542.27 Q757.41 1538.71 757.41 1531.6 Q757.41 1524.47 755.581 1520.93 Q753.776 1517.37 750.141 1517.37 M750.141 1513.66 Q755.952 1513.66 759.007 1518.27 Q762.086 1522.85 762.086 1531.6 Q762.086 1540.33 759.007 1544.94 Q755.952 1549.52 750.141 1549.52 Q744.331 1549.52 741.253 1544.94 Q738.197 1540.33 738.197 1531.6 Q738.197 1522.85 741.253 1518.27 Q744.331 1513.66 750.141 1513.66 Z" fill="#000000" fill-rule="nonzero" fill-opacity="1" /><path clip-path="url(#clip960)" d="M780.303 1517.37 Q776.692 1517.37 774.864 1520.93 Q773.058 1524.47 773.058 1531.6 Q773.058 1538.71 774.864 1542.27 Q776.692 1545.82 780.303 1545.82 Q783.938 1545.82 785.743 1542.27 Q787.572 1538.71 787.572 1531.6 Q787.572 1524.47 785.743 1520.93 Q783.938 1517.37 780.303 1517.37 M780.303 1513.66 Q786.113 1513.66 789.169 1518.27 Q792.248 1522.85 792.248 1531.6 Q792.248 1540.33 789.169 1544.94 Q786.113 1549.52 780.303 1549.52 Q774.493 1549.52 771.414 1544.94 Q768.359 1540.33 768.359 1531.6 Q768.359 1522.85 771.414 1518.27 Q774.493 1513.66 780.303 1513.66 Z" fill="#000000" fill-rule="nonzero" fill-opacity="1" /><path clip-path="url(#clip960)" d="M1202.87 1544.91 L1219.19 1544.91 L1219.19 1548.85 L1197.25 1548.85 L1197.25 1544.91 Q1199.91 1542.16 1204.49 1537.53 Q1209.1 1532.88 1210.28 1531.53 Q1212.52 1529.01 1213.4 1527.27 Q1214.31 1525.51 1214.31 1523.82 Q1214.31 1521.07 1212.36 1519.33 Q1210.44 1517.6 1207.34 1517.6 Q1205.14 1517.6 1202.69 1518.36 Q1200.26 1519.13 1197.48 1520.68 L1197.48 1515.95 Q1200.3 1514.82 1202.76 1514.24 Q1205.21 1513.66 1207.25 1513.66 Q1212.62 1513.66 1215.81 1516.35 Q1219.01 1519.03 1219.01 1523.52 Q1219.01 1525.65 1218.2 1527.57 Q1217.41 1529.47 1215.3 1532.07 Q1214.72 1532.74 1211.62 1535.95 Q1208.52 1539.15 1202.87 1544.91 Z" fill="#000000" fill-rule="nonzero" fill-opacity="1" /><path clip-path="url(#clip960)" d="M1239.01 1517.37 Q1235.39 1517.37 1233.57 1520.93 Q1231.76 1524.47 1231.76 1531.6 Q1231.76 1538.71 1233.57 1542.27 Q1235.39 1545.82 1239.01 1545.82 Q1242.64 1545.82 1244.45 1542.27 Q1246.27 1538.71 1246.27 1531.6 Q1246.27 1524.47 1244.45 1520.93 Q1242.64 1517.37 1239.01 1517.37 M1239.01 1513.66 Q1244.82 1513.66 1247.87 1518.27 Q1250.95 1522.85 1250.95 1531.6 Q1250.95 1540.33 1247.87 1544.94 Q1244.82 1549.52 1239.01 1549.52 Q1233.2 1549.52 1230.12 1544.94 Q1227.06 1540.33 1227.06 1531.6 Q1227.06 1522.85 1230.12 1518.27 Q1233.2 1513.66 1239.01 1513.66 Z" fill="#000000" fill-rule="nonzero" fill-opacity="1" /><path clip-path="url(#clip960)" d="M1269.17 1517.37 Q1265.56 1517.37 1263.73 1520.93 Q1261.92 1524.47 1261.92 1531.6 Q1261.92 1538.71 1263.73 1542.27 Q1265.56 1545.82 1269.17 1545.82 Q1272.8 1545.82 1274.61 1542.27 Q1276.44 1538.71 1276.44 1531.6 Q1276.44 1524.47 1274.61 1520.93 Q1272.8 1517.37 1269.17 1517.37 M1269.17 1513.66 Q1274.98 1513.66 1278.03 1518.27 Q1281.11 1522.85 1281.11 1531.6 Q1281.11 1540.33 1278.03 1544.94 Q1274.98 1549.52 1269.17 1549.52 Q1263.36 1549.52 1260.28 1544.94 Q1257.22 1540.33 1257.22 1531.6 Q1257.22 1522.85 1260.28 1518.27 Q1263.36 1513.66 1269.17 1513.66 Z" fill="#000000" fill-rule="nonzero" fill-opacity="1" /><path clip-path="url(#clip960)" d="M1299.33 1517.37 Q1295.72 1517.37 1293.89 1520.93 Q1292.08 1524.47 1292.08 1531.6 Q1292.08 1538.71 1293.89 1542.27 Q1295.72 1545.82 1299.33 1545.82 Q1302.96 1545.82 1304.77 1542.27 Q1306.6 1538.71 1306.6 1531.6 Q1306.6 1524.47 1304.77 1520.93 Q1302.96 1517.37 1299.33 1517.37 M1299.33 1513.66 Q1305.14 1513.66 1308.2 1518.27 Q1311.27 1522.85 1311.27 1531.6 Q1311.27 1540.33 1308.2 1544.94 Q1305.14 1549.52 1299.33 1549.52 Q1293.52 1549.52 1290.44 1544.94 Q1287.39 1540.33 1287.39 1531.6 Q1287.39 1522.85 1290.44 1518.27 Q1293.52 1513.66 1299.33 1513.66 Z" fill="#000000" fill-rule="nonzero" fill-opacity="1" /><path clip-path="url(#clip960)" d="M1731.1 1530.21 Q1734.46 1530.93 1736.33 1533.2 Q1738.23 1535.47 1738.23 1538.8 Q1738.23 1543.92 1734.71 1546.72 Q1731.19 1549.52 1724.71 1549.52 Q1722.53 1549.52 1720.22 1549.08 Q1717.93 1548.66 1715.47 1547.81 L1715.47 1543.29 Q1717.42 1544.43 1719.73 1545.01 Q1722.05 1545.58 1724.57 1545.58 Q1728.97 1545.58 1731.26 1543.85 Q1733.58 1542.11 1733.58 1538.8 Q1733.58 1535.75 1731.42 1534.03 Q1729.29 1532.3 1725.47 1532.3 L1721.45 1532.3 L1721.45 1528.45 L1725.66 1528.45 Q1729.11 1528.45 1730.94 1527.09 Q1732.77 1525.7 1732.77 1523.11 Q1732.77 1520.45 1730.87 1519.03 Q1728.99 1517.6 1725.47 1517.6 Q1723.55 1517.6 1721.35 1518.01 Q1719.16 1518.43 1716.52 1519.31 L1716.52 1515.14 Q1719.18 1514.4 1721.49 1514.03 Q1723.83 1513.66 1725.89 1513.66 Q1731.22 1513.66 1734.32 1516.09 Q1737.42 1518.5 1737.42 1522.62 Q1737.42 1525.49 1735.78 1527.48 Q1734.13 1529.45 1731.1 1530.21 Z" fill="#000000" fill-rule="nonzero" fill-opacity="1" /><path clip-path="url(#clip960)" d="M1757.09 1517.37 Q1753.48 1517.37 1751.65 1520.93 Q1749.85 1524.47 1749.85 1531.6 Q1749.85 1538.71 1751.65 1542.27 Q1753.48 1545.82 1757.09 1545.82 Q1760.73 1545.82 1762.53 1542.27 Q1764.36 1538.71 1764.36 1531.6 Q1764.36 1524.47 1762.53 1520.93 Q1760.73 1517.37 1757.09 1517.37 M1757.09 1513.66 Q1762.9 1513.66 1765.96 1518.27 Q1769.04 1522.85 1769.04 1531.6 Q1769.04 1540.33 1765.96 1544.94 Q1762.9 1549.52 1757.09 1549.52 Q1751.28 1549.52 1748.21 1544.94 Q1745.15 1540.33 1745.15 1531.6 Q1745.15 1522.85 1748.21 1518.27 Q1751.28 1513.66 1757.09 1513.66 Z" fill="#000000" fill-rule="nonzero" fill-opacity="1" /><path clip-path="url(#clip960)" d="M1787.26 1517.37 Q1783.65 1517.37 1781.82 1520.93 Q1780.01 1524.47 1780.01 1531.6 Q1780.01 1538.71 1781.82 1542.27 Q1783.65 1545.82 1787.26 1545.82 Q1790.89 1545.82 1792.7 1542.27 Q1794.53 1538.71 1794.53 1531.6 Q1794.53 1524.47 1792.7 1520.93 Q1790.89 1517.37 1787.26 1517.37 M1787.26 1513.66 Q1793.07 1513.66 1796.12 1518.27 Q1799.2 1522.85 1799.2 1531.6 Q1799.2 1540.33 1796.12 1544.94 Q1793.07 1549.52 1787.26 1549.52 Q1781.45 1549.52 1778.37 1544.94 Q1775.31 1540.33 1775.31 1531.6 Q1775.31 1522.85 1778.37 1518.27 Q1781.45 1513.66 1787.26 1513.66 Z" fill="#000000" fill-rule="nonzero" fill-opacity="1" /><path clip-path="url(#clip960)" d="M1817.42 1517.37 Q1813.81 1517.37 1811.98 1520.93 Q1810.17 1524.47 1810.17 1531.6 Q1810.17 1538.71 1811.98 1542.27 Q1813.81 1545.82 1817.42 1545.82 Q1821.05 1545.82 1822.86 1542.27 Q1824.69 1538.71 1824.69 1531.6 Q1824.69 1524.47 1822.86 1520.93 Q1821.05 1517.37 1817.42 1517.37 M1817.42 1513.66 Q1823.23 1513.66 1826.28 1518.27 Q1829.36 1522.85 1829.36 1531.6 Q1829.36 1540.33 1826.28 1544.94 Q1823.23 1549.52 1817.42 1549.52 Q1811.61 1549.52 1808.53 1544.94 Q1805.47 1540.33 1805.47 1531.6 Q1805.47 1522.85 1808.53 1518.27 Q1811.61 1513.66 1817.42 1513.66 Z" fill="#000000" fill-rule="nonzero" fill-opacity="1" /><path clip-path="url(#clip960)" d="M2248.59 1518.36 L2236.78 1536.81 L2248.59 1536.81 L2248.59 1518.36 M2247.36 1514.29 L2253.24 1514.29 L2253.24 1536.81 L2258.17 1536.81 L2258.17 1540.7 L2253.24 1540.7 L2253.24 1548.85 L2248.59 1548.85 L2248.59 1540.7 L2232.98 1540.7 L2232.98 1536.19 L2247.36 1514.29 Z" fill="#000000" fill-rule="nonzero" fill-opacity="1" /><path clip-path="url(#clip960)" d="M2275.9 1517.37 Q2272.29 1517.37 2270.46 1520.93 Q2268.66 1524.47 2268.66 1531.6 Q2268.66 1538.71 2270.46 1542.27 Q2272.29 1545.82 2275.9 1545.82 Q2279.54 1545.82 2281.34 1542.27 Q2283.17 1538.71 2283.17 1531.6 Q2283.17 1524.47 2281.34 1520.93 Q2279.54 1517.37 2275.9 1517.37 M2275.9 1513.66 Q2281.71 1513.66 2284.77 1518.27 Q2287.85 1522.85 2287.85 1531.6 Q2287.85 1540.33 2284.77 1544.94 Q2281.71 1549.52 2275.9 1549.52 Q2270.09 1549.52 2267.01 1544.94 Q2263.96 1540.33 2263.96 1531.6 Q2263.96 1522.85 2267.01 1518.27 Q2270.09 1513.66 2275.9 1513.66 Z" fill="#000000" fill-rule="nonzero" fill-opacity="1" /><path clip-path="url(#clip960)" d="M2306.06 1517.37 Q2302.45 1517.37 2300.62 1520.93 Q2298.82 1524.47 2298.82 1531.6 Q2298.82 1538.71 2300.62 1542.27 Q2302.45 1545.82 2306.06 1545.82 Q2309.7 1545.82 2311.5 1542.27 Q2313.33 1538.71 2313.33 1531.6 Q2313.33 1524.47 2311.5 1520.93 Q2309.7 1517.37 2306.06 1517.37 M2306.06 1513.66 Q2311.87 1513.66 2314.93 1518.27 Q2318.01 1522.85 2318.01 1531.6 Q2318.01 1540.33 2314.93 1544.94 Q2311.87 1549.52 2306.06 1549.52 Q2300.25 1549.52 2297.17 1544.94 Q2294.12 1540.33 2294.12 1531.6 Q2294.12 1522.85 2297.17 1518.27 Q2300.25 1513.66 2306.06 1513.66 Z" fill="#000000" fill-rule="nonzero" fill-opacity="1" /><path clip-path="url(#clip960)" d="M2336.22 1517.37 Q2332.61 1517.37 2330.79 1520.93 Q2328.98 1524.47 2328.98 1531.6 Q2328.98 1538.71 2330.79 1542.27 Q2332.61 1545.82 2336.22 1545.82 Q2339.86 1545.82 2341.66 1542.27 Q2343.49 1538.71 2343.49 1531.6 Q2343.49 1524.47 2341.66 1520.93 Q2339.86 1517.37 2336.22 1517.37 M2336.22 1513.66 Q2342.03 1513.66 2345.09 1518.27 Q2348.17 1522.85 2348.17 1531.6 Q2348.17 1540.33 2345.09 1544.94 Q2342.03 1549.52 2336.22 1549.52 Q2330.41 1549.52 2327.34 1544.94 Q2324.28 1540.33 2324.28 1531.6 Q2324.28 1522.85 2327.34 1518.27 Q2330.41 1513.66 2336.22 1513.66 Z" fill="#000000" fill-rule="nonzero" fill-opacity="1" /><polyline clip-path="url(#clip962)" style="stroke:#000000; stroke-linecap:round; stroke-linejoin:round; stroke-width:2; stroke-opacity:0.1; fill:none" points="155.765,1461.8 2352.76,1461.8 "/>
<polyline clip-path="url(#clip962)" style="stroke:#000000; stroke-linecap:round; stroke-linejoin:round; stroke-width:2; stroke-opacity:0.1; fill:none" points="155.765,1097.7 2352.76,1097.7 "/>
<polyline clip-path="url(#clip962)" style="stroke:#000000; stroke-linecap:round; stroke-linejoin:round; stroke-width:2; stroke-opacity:0.1; fill:none" points="155.765,733.597 2352.76,733.597 "/>
<polyline clip-path="url(#clip962)" style="stroke:#000000; stroke-linecap:round; stroke-linejoin:round; stroke-width:2; stroke-opacity:0.1; fill:none" points="155.765,369.497 2352.76,369.497 "/>
<polyline clip-path="url(#clip960)" style="stroke:#000000; stroke-linecap:round; stroke-linejoin:round; stroke-width:4; stroke-opacity:1; fill:none" points="155.765,1486.45 155.765,47.2441 "/>
<polyline clip-path="url(#clip960)" style="stroke:#000000; stroke-linecap:round; stroke-linejoin:round; stroke-width:4; stroke-opacity:1; fill:none" points="155.765,1461.8 174.663,1461.8 "/>
<polyline clip-path="url(#clip960)" style="stroke:#000000; stroke-linecap:round; stroke-linejoin:round; stroke-width:4; stroke-opacity:1; fill:none" points="155.765,1097.7 174.663,1097.7 "/>
<polyline clip-path="url(#clip960)" style="stroke:#000000; stroke-linecap:round; stroke-linejoin:round; stroke-width:4; stroke-opacity:1; fill:none" points="155.765,733.597 174.663,733.597 "/>
<polyline clip-path="url(#clip960)" style="stroke:#000000; stroke-linecap:round; stroke-linejoin:round; stroke-width:4; stroke-opacity:1; fill:none" points="155.765,369.497 174.663,369.497 "/>
<path clip-path="url(#clip960)" d="M53.3995 1475.14 L61.0384 1475.14 L61.0384 1448.78 L52.7282 1450.44 L52.7282 1446.18 L60.9921 1444.52 L65.668 1444.52 L65.668 1475.14 L73.3068 1475.14 L73.3068 1479.08 L53.3995 1479.08 L53.3995 1475.14 Z" fill="#000000" fill-rule="nonzero" fill-opacity="1" /><path clip-path="url(#clip960)" d="M82.7512 1473.2 L87.6354 1473.2 L87.6354 1479.08 L82.7512 1479.08 L82.7512 1473.2 Z" fill="#000000" fill-rule="nonzero" fill-opacity="1" /><path clip-path="url(#clip960)" d="M107.821 1447.59 Q104.209 1447.59 102.381 1451.16 Q100.575 1454.7 100.575 1461.83 Q100.575 1468.94 102.381 1472.5 Q104.209 1476.04 107.821 1476.04 Q111.455 1476.04 113.26 1472.5 Q115.089 1468.94 115.089 1461.83 Q115.089 1454.7 113.26 1451.16 Q111.455 1447.59 107.821 1447.59 M107.821 1443.89 Q113.631 1443.89 116.686 1448.5 Q119.765 1453.08 119.765 1461.83 Q119.765 1470.56 116.686 1475.16 Q113.631 1479.75 107.821 1479.75 Q102.01 1479.75 98.9317 1475.16 Q95.8761 1470.56 95.8761 1461.83 Q95.8761 1453.08 98.9317 1448.5 Q102.01 1443.89 107.821 1443.89 Z" fill="#000000" fill-rule="nonzero" fill-opacity="1" /><path clip-path="url(#clip960)" d="M54.3949 1111.04 L62.0337 1111.04 L62.0337 1084.68 L53.7236 1086.34 L53.7236 1082.08 L61.9874 1080.42 L66.6633 1080.42 L66.6633 1111.04 L74.3022 1111.04 L74.3022 1114.98 L54.3949 1114.98 L54.3949 1111.04 Z" fill="#000000" fill-rule="nonzero" fill-opacity="1" /><path clip-path="url(#clip960)" d="M83.7466 1109.1 L88.6308 1109.1 L88.6308 1114.98 L83.7466 1114.98 L83.7466 1109.1 Z" fill="#000000" fill-rule="nonzero" fill-opacity="1" /><path clip-path="url(#clip960)" d="M98.8622 1080.42 L117.219 1080.42 L117.219 1084.35 L103.145 1084.35 L103.145 1092.82 Q104.163 1092.48 105.182 1092.31 Q106.2 1092.13 107.219 1092.13 Q113.006 1092.13 116.385 1095.3 Q119.765 1098.47 119.765 1103.89 Q119.765 1109.47 116.293 1112.57 Q112.82 1115.65 106.501 1115.65 Q104.325 1115.65 102.057 1115.28 Q99.8113 1114.91 97.4039 1114.17 L97.4039 1109.47 Q99.4872 1110.6 101.709 1111.16 Q103.932 1111.71 106.408 1111.71 Q110.413 1111.71 112.751 1109.61 Q115.089 1107.5 115.089 1103.89 Q115.089 1100.28 112.751 1098.17 Q110.413 1096.06 106.408 1096.06 Q104.534 1096.06 102.659 1096.48 Q100.807 1096.9 98.8622 1097.78 L98.8622 1080.42 Z" fill="#000000" fill-rule="nonzero" fill-opacity="1" /><path clip-path="url(#clip960)" d="M56.6171 746.942 L72.9365 746.942 L72.9365 750.877 L50.9921 750.877 L50.9921 746.942 Q53.6541 744.187 58.2375 739.557 Q62.8439 734.905 64.0245 733.562 Q66.2698 731.039 67.1494 729.303 Q68.0522 727.543 68.0522 725.854 Q68.0522 723.099 66.1078 721.363 Q64.1865 719.627 61.0847 719.627 Q58.8856 719.627 56.4319 720.391 Q54.0014 721.155 51.2236 722.706 L51.2236 717.983 Q54.0477 716.849 56.5014 716.27 Q58.955 715.692 60.9921 715.692 Q66.3624 715.692 69.5568 718.377 Q72.7513 721.062 72.7513 725.553 Q72.7513 727.682 71.9411 729.604 Q71.1541 731.502 69.0476 734.094 Q68.4689 734.766 65.367 737.983 Q62.2652 741.178 56.6171 746.942 Z" fill="#000000" fill-rule="nonzero" fill-opacity="1" /><path clip-path="url(#clip960)" d="M82.7512 744.997 L87.6354 744.997 L87.6354 750.877 L82.7512 750.877 L82.7512 744.997 Z" fill="#000000" fill-rule="nonzero" fill-opacity="1" /><path clip-path="url(#clip960)" d="M107.821 719.395 Q104.209 719.395 102.381 722.96 Q100.575 726.502 100.575 733.631 Q100.575 740.738 102.381 744.303 Q104.209 747.844 107.821 747.844 Q111.455 747.844 113.26 744.303 Q115.089 740.738 115.089 733.631 Q115.089 726.502 113.26 722.96 Q111.455 719.395 107.821 719.395 M107.821 715.692 Q113.631 715.692 116.686 720.298 Q119.765 724.881 119.765 733.631 Q119.765 742.358 116.686 746.965 Q113.631 751.548 107.821 751.548 Q102.01 751.548 98.9317 746.965 Q95.8761 742.358 95.8761 733.631 Q95.8761 724.881 98.9317 720.298 Q102.01 715.692 107.821 715.692 Z" fill="#000000" fill-rule="nonzero" fill-opacity="1" /><path clip-path="url(#clip960)" d="M57.6125 382.842 L73.9318 382.842 L73.9318 386.777 L51.9875 386.777 L51.9875 382.842 Q54.6495 380.087 59.2328 375.458 Q63.8393 370.805 65.0198 369.462 Q67.2652 366.939 68.1448 365.203 Q69.0476 363.444 69.0476 361.754 Q69.0476 358.999 67.1032 357.263 Q65.1819 355.527 62.08 355.527 Q59.881 355.527 57.4273 356.291 Q54.9967 357.055 52.219 358.606 L52.219 353.884 Q55.043 352.749 57.4967 352.171 Q59.9504 351.592 61.9874 351.592 Q67.3578 351.592 70.5522 354.277 Q73.7466 356.962 73.7466 361.453 Q73.7466 363.583 72.9365 365.504 Q72.1494 367.402 70.0429 369.995 Q69.4642 370.666 66.3624 373.884 Q63.2606 377.078 57.6125 382.842 Z" fill="#000000" fill-rule="nonzero" fill-opacity="1" /><path clip-path="url(#clip960)" d="M83.7466 380.897 L88.6308 380.897 L88.6308 386.777 L83.7466 386.777 L83.7466 380.897 Z" fill="#000000" fill-rule="nonzero" fill-opacity="1" /><path clip-path="url(#clip960)" d="M98.8622 352.217 L117.219 352.217 L117.219 356.152 L103.145 356.152 L103.145 364.624 Q104.163 364.277 105.182 364.115 Q106.2 363.93 107.219 363.93 Q113.006 363.93 116.385 367.101 Q119.765 370.273 119.765 375.689 Q119.765 381.268 116.293 384.37 Q112.82 387.448 106.501 387.448 Q104.325 387.448 102.057 387.078 Q99.8113 386.708 97.4039 385.967 L97.4039 381.268 Q99.4872 382.402 101.709 382.958 Q103.932 383.513 106.408 383.513 Q110.413 383.513 112.751 381.407 Q115.089 379.3 115.089 375.689 Q115.089 372.078 112.751 369.972 Q110.413 367.865 106.408 367.865 Q104.534 367.865 102.659 368.282 Q100.807 368.698 98.8622 369.578 L98.8622 352.217 Z" fill="#000000" fill-rule="nonzero" fill-opacity="1" /><polyline clip-path="url(#clip962)" style="stroke:#009af9; stroke-linecap:round; stroke-linejoin:round; stroke-width:4; stroke-opacity:1; fill:none" points="217.944,1016.2 218.462,1016.69 218.98,1147.26 219.498,1147.67 220.017,1214.25 220.535,1214.47 221.053,1220.44 221.571,1220.71 222.089,1045.27 222.607,1045.79 223.125,1349.45 223.644,1349.58 224.162,1200.9 224.68,1201.06 225.198,1430.95 225.716,1431.07 226.234,1197.59 226.753,1197.88 227.271,1038.34 227.789,1038.81 228.307,995.301 228.825,995.623 229.343,1351.61 229.862,1351.73 230.38,1016.31 230.898,1016.69 231.416,1264.74 231.934,1264.84 232.452,1276.66 232.97,1276.81 233.489,1168.9 234.007,1169.18 234.525,996.548 235.043,997.095 235.561,1114.52 236.079,1114.86 236.598,1227.31 237.116,1227.53 237.634,881.45 238.152,882.196 238.67,924.926 239.188,925.397 239.707,901.293 240.225,901.898 240.743,1079.39 241.261,1079.8 241.779,1077.47 242.297,1077.8 242.815,967.522 243.334,967.912 243.852,1215.77 244.37,1215.91 244.888,1168.93 245.406,1169.26 245.924,964.985 246.443,965.341 246.961,1140.93 247.479,1141.25 247.997,1137.07 248.515,1137.35 249.033,1238.23 249.552,1238.34 250.07,946.201 250.588,946.756 251.106,1027.84 251.624,1028.22 252.142,1094.2 252.66,1094.51 253.179,814.462 253.697,815.106 254.215,1119.66 254.733,1119.88 255.251,1235.79 255.769,1235.96 256.288,1077.22 256.806,1077.52 257.324,1218.66 257.842,1218.85 258.36,565.643 258.878,566.501 259.397,977.501 259.915,977.961 260.433,1210.81 260.951,1211.12 261.469,1222 261.987,1222.17 262.506,1189.13 263.024,1189.37 263.542,937.861 264.06,938.242 264.578,1256.78 265.096,1257.03 265.614,820.767 266.133,821.061 266.651,1174.81 267.169,1174.92 267.687,1182.73 268.205,1182.97 268.723,1255.79 269.242,1255.92 269.76,1261.39 270.278,1261.55 270.796,1083.55 271.314,1083.83 271.832,1277.08 272.351,1277.34 272.869,1062.37 273.387,1062.64 273.905,1106.52 274.423,1106.75 274.941,853.336 275.459,853.798 275.978,1234.99 276.496,1235.08 277.014,973 277.532,973.422 278.05,1373.92 278.568,1374 279.087,1035.13 279.605,1035.39 280.123,1063.4 280.641,1063.77 281.159,916.294 281.677,916.663 282.196,1134.8 282.714,1134.91 283.232,1104.1 283.75,1104.35 284.268,1220.66 284.786,1220.86 285.304,1407.33 285.823,1407.42 286.341,816.979 286.859,817.428 287.377,856.319 287.895,856.712 288.413,1265.55 288.932,1265.7 289.45,1069.23 289.968,1069.43 290.486,889.484 291.004,890.005 291.522,892.005 292.041,892.286 292.559,1393.57 293.077,1393.63 293.595,1028.82 294.113,1029.22 294.631,1293.52 295.149,1293.67 295.668,899.364 296.186,899.833 296.704,999.398 297.222,999.747 297.74,883.38 298.258,883.795 298.777,1135.91 299.295,1136.14 299.813,1004.12 300.331,1004.53 300.849,994.193 301.367,994.483 301.886,978.25 302.404,978.595 302.922,1010.72 303.44,1010.96 303.958,1289.96 304.476,1290.09 304.994,908.621 305.513,909.112 306.031,1093.55 306.549,1093.81 307.067,902.385 307.585,902.821 308.103,1198.6 308.622,1198.83 309.14,995.359 309.658,995.647 310.176,1170.74 310.694,1170.91 311.212,828.72 311.731,829.198 312.249,1101.73 312.767,1102.05 313.285,1220.97 313.803,1221.11 314.321,806.782 314.839,807.315 315.358,1287.97 315.876,1288.11 316.394,1073.55 316.912,1073.84 317.43,1078.45 317.948,1078.71 318.467,766.23 318.985,766.817 319.503,939.49 320.021,939.704 320.539,749.005 321.057,749.197 321.576,762.57 322.094,762.945 322.612,1195.83 323.13,1196.01 323.648,1088.31 324.166,1088.56 324.684,1009.88 325.203,1010.14 325.721,1370.71 326.239,1370.79 326.757,837.987 327.275,838.389 327.793,922.64 328.312,922.966 328.83,1181.04 329.348,1181.21 329.866,873.117 330.384,873.339 330.902,1046.71 331.421,1046.91 331.939,774.754 332.457,775.099 332.975,1100.99 333.493,1101.29 334.011,984.274 334.53,984.574 335.048,988.697 335.566,988.952 336.084,1167.28 336.602,1167.5 337.12,989.003 337.638,989.298 338.157,1143.31 338.675,1143.74 339.193,1167.75 339.711,1167.98 340.229,927.682 340.747,927.914 341.266,793.442 341.784,793.815 342.302,1043.46 342.82,1043.63 343.338,1147.36 343.856,1147.57 344.375,1321.53 344.893,1321.71 345.411,1175.52 345.929,1175.72 346.447,1168 346.965,1168.21 347.483,972.883 348.002,973.104 348.52,1049.31 349.038,1049.53 349.556,1197.86 350.074,1198.02 350.592,1218.95 351.111,1219.06 351.629,1020.57 352.147,1020.77 352.665,1036.51 353.183,1036.71 353.701,577.877 354.22,578.471 354.738,1239.81 355.256,1239.94 355.774,808.246 356.292,808.541 356.81,1127.59 357.328,1127.88 357.847,1115.86 358.365,1116.06 358.883,1027.02 359.401,1027.27 359.919,749.107 360.437,749.396 360.956,984.396 361.474,984.68 361.992,1120.16 362.51,1120.29 363.028,743.35 363.546,743.587 364.065,977.111 364.583,977.335 365.101,1043.79 365.619,1044.07 366.137,1152.33 366.655,1152.5 367.173,1340.45 367.692,1340.56 368.21,935.588 368.728,935.97 369.246,965.414 369.764,965.66 370.282,918.713 370.801,919.019 371.319,1031.26 371.837,1031.62 372.355,880.026 372.873,880.394 373.391,701.089 373.91,701.462 374.428,1278.87 374.946,1279.04 375.464,1039.12 375.982,1039.37 376.5,1036.74 377.018,1036.97 377.537,843.431 378.055,843.706 378.573,1061.58 379.091,1061.84 379.609,950.787 380.127,951.188 380.646,1091.34 381.164,1091.48 381.682,981.227 382.2,981.505 382.718,1019.84 383.236,1020.09 383.755,1445.64 384.273,1445.72 384.791,974.248 385.309,974.45 385.827,812.695 386.345,812.991 386.863,791.957 387.382,792.299 387.9,1033.53 388.418,1033.71 388.936,1083.61 389.454,1083.8 389.972,656.123 390.491,656.626 391.009,949.125 391.527,949.434 392.045,881.165 392.563,881.344 393.081,1304.4 393.6,1304.58 394.118,940.844 394.636,941.262 395.154,938.945 395.672,939.26 396.19,929.276 396.708,929.639 397.227,1226.59 397.745,1226.73 398.263,805.243 398.781,805.647 399.299,1081.82 399.817,1082.08 400.336,806.268 400.854,806.665 401.372,1064.67 401.89,1064.89 402.408,1079.03 402.926,1079.3 403.445,758.538 403.963,759.033 404.481,990.822 404.999,991.171 405.517,931.669 406.035,931.884 406.554,1174.38 407.072,1174.56 407.59,1141.44 408.108,1141.6 408.626,992.884 409.144,993.162 409.662,933.472 410.181,933.733 410.699,897.963 411.217,898.283 411.735,843.866 412.253,844.097 412.771,1111.26 413.29,1111.46 413.808,800.257 414.326,800.529 414.844,636.195 415.362,636.577 415.88,1061.04 416.399,1061.41 416.917,1201.43 417.435,1201.61 417.953,972.294 418.471,972.548 418.989,1196.97 419.507,1197.17 420.026,840.483 420.544,840.649 421.062,1168.61 421.58,1168.83 422.098,970.66 422.616,970.896 423.135,1080.18 423.653,1080.37 424.171,1078.23 424.689,1078.37 425.207,1080.9 425.725,1081.18 426.244,882.684 426.762,882.91 427.28,719.844 427.798,720.27 428.316,969.769 428.834,970.018 429.352,996.906 429.871,997.208 430.389,946.048 430.907,946.269 431.425,1212.12 431.943,1212.23 432.461,960.34 432.98,960.713 433.498,1082.01 434.016,1082.15 434.534,1099.57 435.052,1099.78 435.57,1000.48 436.089,1000.82 436.607,1086.23 437.125,1086.42 437.643,851.462 438.161,851.722 438.679,1155.72 439.197,1155.85 439.716,1045.62 440.234,1045.77 440.752,1000.28 441.27,1000.49 441.788,1135.23 442.306,1135.39 442.825,1032.3 443.343,1032.62 443.861,997.784 444.379,998.073 444.897,828.888 445.415,829.055 445.934,966.018 446.452,966.315 446.97,1060.8 447.488,1061.04 448.006,926.218 448.524,926.384 449.042,1062.16 449.561,1062.28 450.079,937.86 450.597,938.137 451.115,923.816 451.633,924.058 452.151,966.801 452.67,967.045 453.188,1062.05 453.706,1062.22 454.224,872.186 454.742,872.638 455.26,794.617 455.779,794.923 456.297,885.501 456.815,885.89 457.333,750.443 457.851,750.775 458.369,877.922 458.887,878.216 459.406,924.001 459.924,924.211 460.442,1037.83 460.96,1038.01 461.478,1015.4 461.996,1015.6 462.515,868.624 463.033,868.882 463.551,1061.04 464.069,1061.29 464.587,979.367 465.105,979.579 465.624,978.65 466.142,978.834 466.66,950.759 467.178,951.129 467.696,838.938 468.214,839.242 468.732,777.258 469.251,777.48 469.769,873.646 470.287,874.072 470.805,1181.67 471.323,1181.87 471.841,672.469 472.36,672.8 472.878,658.757 473.396,659.255 473.914,879.932 474.432,880.226 474.95,1106.48 475.469,1106.66 475.987,706.415 476.505,706.71 477.023,927.502 477.541,927.764 478.059,778.495 478.577,778.801 479.096,830.301 479.614,830.55 480.132,769.167 480.65,769.42 481.168,1049.46 481.686,1049.68 482.205,878.347 482.723,878.608 483.241,779.057 483.759,779.331 484.277,1237.8 484.795,1237.94 485.314,901.619 485.832,901.856 486.35,970.318 486.868,970.55 487.386,1060.47 487.904,1060.69 488.423,958.629 488.941,958.894 489.459,765.316 489.977,765.57 490.495,1076.55 491.013,1076.79 491.531,914.832 492.05,915.039 492.568,1176.72 493.086,1176.9 493.604,959.125 494.122,959.378 494.64,966.424 495.159,966.603 495.677,1018.03 496.195,1018.22 496.713,859.539 497.231,859.828 497.749,1127.33 498.268,1127.53 498.786,745.538 499.304,745.873 499.822,1189.32 500.34,1189.46 500.858,758.314 501.376,758.596 501.895,911.79 502.413,912.029 502.931,936.613 503.449,936.83 503.967,855.934 504.485,856.231 505.004,1005.45 505.522,1005.61 506.04,1157.47 506.558,1157.63 507.076,836.776 507.594,837.046 508.113,892.531 508.631,893.01 509.149,953.686 509.667,953.911 510.185,734.44 510.703,734.681 511.221,950.697 511.74,950.891 512.258,942.424 512.776,942.591 513.294,1052.24 513.812,1052.52 514.33,925.064 514.849,925.395 515.367,1123.81 515.885,1123.98 516.403,964.572 516.921,964.848 517.439,773.616 517.958,773.857 518.476,777.957 518.994,778.233 519.512,922.194 520.03,922.447 520.548,834.444 521.066,834.646 521.585,756.599 522.103,756.971 522.621,965.474 523.139,965.705 523.657,891.709 524.175,891.943 524.694,806.477 525.212,806.712 525.73,965.328 526.248,965.657 526.766,734.643 527.284,735.065 527.803,643.859 528.321,644.059 528.839,848.546 529.357,848.894 529.875,965.669 530.393,965.869 530.911,910.209 531.43,910.403 531.948,686.994 532.466,687.266 532.984,661.666 533.502,661.867 534.02,877.708 534.539,878.086 535.057,781.646 535.575,781.887 536.093,822.458 536.611,822.671 537.129,1012.43 537.648,1012.68 538.166,817.131 538.684,817.397 539.202,923.548 539.72,923.809 540.238,925.279 540.756,925.597 541.275,899.803 541.793,900.09 542.311,799.56 542.829,799.887 543.347,1053.12 543.865,1053.31 544.384,1141.38 544.902,1141.52 545.42,864.874 545.938,865.122 546.456,1133.24 546.974,1133.38 547.493,937.432 548.011,937.751 548.529,881.525 549.047,881.707 549.565,865.877 550.083,866.105 550.601,927.513 551.12,927.696 551.638,958.334 552.156,958.51 552.674,955.115 553.192,955.349 553.71,979.879 554.229,980.124 554.747,953.742 555.265,953.964 555.783,1197.71 556.301,1197.85 556.819,953.068 557.338,953.244 557.856,797.595 558.374,797.882 558.892,847.108 559.41,847.273 559.928,725.504 560.447,725.715 560.965,983.97 561.483,984.163 562.001,951.811 562.519,952.108 563.037,904.828 563.555,904.992 564.074,908.777 564.592,908.975 565.11,889.984 565.628,890.177 566.146,680.786 566.664,681.009 567.183,801.1 567.701,801.372 568.219,693.404 568.737,693.723 569.255,697.43 569.773,697.87 570.292,901.723 570.81,901.962 571.328,1081.77 571.846,1081.91 572.364,921.948 572.882,922.193 573.4,1116.06 573.919,1116.25 574.437,923.845 574.955,924.056 575.473,793.182 575.991,793.422 576.509,1110.54 577.028,1110.72 577.546,1052.53 578.064,1052.69 578.582,1060.2 579.1,1060.41 579.618,902.085 580.137,902.312 580.655,982.44 581.173,982.679 581.691,917.75 582.209,918.024 582.727,1001.73 583.245,1001.93 583.764,947.951 584.282,948.21 584.8,1087.64 585.318,1087.77 585.836,1147.39 586.354,1147.59 586.873,673.276 587.391,673.574 587.909,940.214 588.427,940.489 588.945,921.73 589.463,922.074 589.982,1012.32 590.5,1012.49 591.018,879.416 591.536,879.65 592.054,709.424 592.572,709.872 593.09,938.885 593.609,939.08 594.127,719.054 594.645,719.449 595.163,850.764 595.681,851.011 596.199,893.144 596.718,893.316 597.236,852.619 597.754,852.909 598.272,980.977 598.79,981.248 599.308,750.776 599.827,751.008 600.345,1140.42 600.863,1140.59 601.381,1174.9 601.899,1175 602.417,1060.03 602.935,1060.24 603.454,832.094 603.972,832.329 604.49,995.179 605.008,995.357 605.526,804.24 606.044,804.551 606.563,803.348 607.081,803.726 607.599,906.813 608.117,906.954 608.635,898.054 609.153,898.317 609.672,577.058 610.19,577.434 610.708,1055.39 611.226,1055.57 611.744,1023.86 612.262,1024.05 612.78,949.405 613.299,949.6 613.817,854.838 614.335,855.011 614.853,941.714 615.371,941.959 615.889,863.993 616.408,864.4 616.926,705.61 617.444,705.874 617.962,943.182 618.48,943.358 618.998,879.123 619.517,879.315 620.035,926.346 620.553,926.596 621.071,775.245 621.589,775.418 622.107,683.867 622.625,684.169 623.144,926.435 623.662,926.611 624.18,863.138 624.698,863.361 625.216,791.345 625.734,791.581 626.253,917.18 626.771,917.39 627.289,1023.35 627.807,1023.54 628.325,1160.53 628.843,1160.67 629.362,929.944 629.88,930.11 630.398,825.348 630.916,825.578 631.434,838.575 631.952,838.845 632.47,793.925 632.989,794.162 633.507,1061.7 634.025,1061.84 634.543,925.281 635.061,925.465 635.579,913.669 636.098,913.864 636.616,773.052 637.134,773.3 637.652,917.474 638.17,917.705 638.688,873.079 639.207,873.257 639.725,987.658 640.243,987.904 640.761,909.456 641.279,909.726 641.797,811.851 642.316,812.176 642.834,871.725 643.352,871.878 643.87,729.181 644.388,729.318 644.906,823.544 645.424,823.779 645.943,841.987 646.461,842.309 646.979,884.31 647.497,884.559 648.015,998.607 648.533,998.753 649.052,922.078 649.57,922.28 650.088,906.805 650.606,907.015 651.124,995.391 651.642,995.584 652.161,954.232 652.679,954.393 653.197,956.137 653.715,956.303 654.233,877.052 654.751,877.342 655.269,1159.45 655.788,1159.57 656.306,834.364 656.824,834.572 657.342,831.441 657.86,831.762 658.378,878.255 658.897,878.385 659.415,695.398 659.933,695.585 660.451,761.984 660.969,762.27 661.487,1143.71 662.006,1143.86 662.524,685.078 663.042,685.399 663.56,1094.99 664.078,1095.1 664.596,743.515 665.114,743.707 665.633,1018.2 666.151,1018.4 666.669,1005.11 667.187,1005.34 667.705,701.273 668.223,701.506 668.742,1053.62 669.26,1053.81 669.778,996.923 670.296,997.11 670.814,900.86 671.332,901.079 671.851,984.692 672.369,984.86 672.887,939.238 673.405,939.454 673.923,988.536 674.441,988.707 674.959,974.906 675.478,975.046 675.996,922.59 676.514,922.744 677.032,915.197 677.55,915.39 678.068,981.346 678.587,981.473 679.105,821.977 679.623,822.147 680.141,845.991 680.659,846.184 681.177,931.113 681.696,931.286 682.214,914.336 682.732,914.575 683.25,882.016 683.768,882.196 684.286,638.623 684.804,638.856 685.323,1124.34 685.841,1124.45 686.359,873.915 686.877,874.141 687.395,853.245 687.913,853.404 688.432,909.948 688.95,910.14 689.468,1011.22 689.986,1011.42 690.504,911.415 691.022,911.611 691.541,986.232 692.059,986.443 692.577,839.793 693.095,840.075 693.613,989.983 694.131,990.136 694.649,853.86 695.168,854.135 695.686,734.765 696.204,735.009 696.722,752.484 697.24,752.748 697.758,845.837 698.277,845.981 698.795,823.233 699.313,823.394 699.831,876.546 700.349,876.739 700.867,775.756 701.386,775.964 701.904,930.843 702.422,931.068 702.94,905.65 703.458,905.868 703.976,915.349 704.494,915.57 705.013,993.251 705.531,993.391 706.049,605.925 706.567,606.191 707.085,877.554 707.603,877.771 708.122,681.484 708.64,681.752 709.158,1084.37 709.676,1084.51 710.194,886.09 710.712,886.229 711.231,949.426 711.749,949.625 712.267,783.219 712.785,783.429 713.303,813.283 713.821,813.526 714.34,872.626 714.858,872.782 715.376,838.708 715.894,838.889 716.412,977.828 716.93,978.056 717.448,1139.54 717.967,1139.68 718.485,1178.13 719.003,1178.23 719.521,897.549 720.039,897.724 720.557,963.316 721.076,963.502 721.594,696.98 722.112,697.208 722.63,599.405 723.148,599.691 723.666,428.068 724.185,428.452 724.703,913.626 725.221,913.791 725.739,879.348 726.257,879.536 726.775,699.16 727.293,699.392 727.812,975.778 728.33,975.973 728.848,917.477 729.366,917.651 729.884,650.428 730.402,650.655 730.921,777.731 731.439,777.899 731.957,700.427 732.475,700.595 732.993,1060.04 733.511,1060.15 734.03,838.169 734.548,838.334 735.066,917.262 735.584,917.398 736.102,817.455 736.62,817.605 737.138,955.867 737.657,956.059 738.175,616.59 738.693,616.804 739.211,787.027 739.729,787.206 740.247,730.864 740.766,731.065 741.284,801.471 741.802,801.708 742.32,897.429 742.838,897.637 743.356,1033 743.875,1033.16 744.393,960.911 744.911,961.089 745.429,907.269 745.947,907.394 746.465,988.302 746.983,988.425 747.502,456.702 748.02,456.853 748.538,789.997 749.056,790.203 749.574,636.28 750.092,636.494 750.611,735.918 751.129,736.057 751.647,745.09 752.165,745.267 752.683,906.436 753.201,906.554 753.72,887.72 754.238,887.896 754.756,840.394 755.274,840.623 755.792,567.959 756.31,568.2 756.828,960.039 757.347,960.24 757.865,918.502 758.383,918.668 758.901,1130 759.419,1130.15 759.937,858.021 760.456,858.181 760.974,1122.19 761.492,1122.32 762.01,461.125 762.528,461.325 763.046,1008.44 763.565,1008.55 764.083,683.103 764.601,683.382 765.119,893.363 765.637,893.475 766.155,895.327 766.673,895.457 767.192,789.484 767.71,789.666 768.228,1071.46 768.746,1071.59 769.264,936.751 769.782,936.942 770.301,969.531 770.819,969.645 771.337,728.603 771.855,728.747 772.373,655.73 772.891,656.037 773.41,879.431 773.928,879.626 774.446,967.274 774.964,967.418 775.482,763.555 776,763.703 776.518,782.379 777.037,782.539 777.555,1057.08 778.073,1057.22 778.591,932.712 779.109,932.855 779.627,919.528 780.146,919.647 780.664,936.237 781.182,936.424 781.7,919.405 782.218,919.56 782.736,715.605 783.255,715.847 783.773,796.578 784.291,796.804 784.809,713.416 785.327,713.76 785.845,1062.69 786.364,1062.8 786.882,868.117 787.4,868.293 787.918,946.417 788.436,946.589 788.954,954.376 789.472,954.517 789.991,985.891 790.509,985.995 791.027,876.248 791.545,876.373 792.063,949.761 792.581,949.994 793.1,1090.27 793.618,1090.45 794.136,837.058 794.654,837.236 795.172,1068.86 795.69,1068.98 796.209,941.906 796.727,942.058 797.245,946.549 797.763,946.676 798.281,970.937 798.799,971.083 799.317,907.495 799.836,907.675 800.354,769.531 800.872,769.677 801.39,856.386 801.908,856.498 802.426,766.567 802.945,766.784 803.463,996.152 803.981,996.273 804.499,1073.87 805.017,1073.97 805.535,976.752 806.054,976.879 806.572,746.689 807.09,746.924 807.608,863.846 808.126,863.98 808.644,723.789 809.162,724.019 809.681,583.108 810.199,583.375 810.717,763.981 811.235,764.172 811.753,756.146 812.271,756.321 812.79,610.825 813.308,611.091 813.826,1016.86 814.344,1017 814.862,966.828 815.38,966.94 815.899,1031.52 816.417,1031.65 816.935,1018.19 817.453,1018.34 817.971,656.115 818.489,656.314 819.007,917.022 819.526,917.131 820.044,857.313 820.562,857.496 821.08,916.528 821.598,916.685 822.116,966.142 822.635,966.271 823.153,834.7 823.671,834.855 824.189,685.883 824.707,686.179 825.225,910.018 825.744,910.148 826.262,967.093 826.78,967.255 827.298,1042.73 827.816,1042.92 828.334,908.775 828.852,908.974 829.371,871.586 829.889,871.698 830.407,881.894 830.925,882.038 831.443,1022.58 831.961,1022.7 832.48,1055.98 832.998,1056.11 833.516,876.734 834.034,876.893 834.552,1064.93 835.07,1065.08 835.589,1111.06 836.107,1111.2 836.625,795.295 837.143,795.439 837.661,241.613 838.179,242.03 838.697,860.442 839.216,860.586 839.734,812.949 840.252,813.082 840.77,857.274 841.288,857.464 841.806,1051.26 842.325,1051.38 842.843,712.136 843.361,712.302 843.879,1075.59 844.397,1075.72 844.915,1083.55 845.434,1083.7 845.952,485.912 846.47,486.095 846.988,936.762 847.506,936.906 848.024,653.406 848.542,653.659 849.061,969.873 849.579,970.03 850.097,1001.55 850.615,1001.66 851.133,865.3 851.651,865.469 852.17,895.511 852.688,895.619 853.206,821.747 853.724,821.893 854.242,833.038 854.76,833.198 855.279,828.954 855.797,829.079 856.315,843.426 856.833,843.568 857.351,872.858 857.869,872.975 858.387,1120.04 858.906,1120.21 859.424,813.236 859.942,813.393 860.46,759.706 860.978,759.831 861.496,860.649 862.015,860.829 862.533,995.515 863.051,995.629 863.569,1134.12 864.087,1134.22 864.605,921.27 865.124,921.405 865.642,953.626 866.16,953.754 866.678,1048.25 867.196,1048.41 867.714,840.632 868.233,840.839 868.751,851.923 869.269,852.104 869.787,930.546 870.305,930.642 870.823,926.969 871.341,927.187 871.86,889.045 872.378,889.172 872.896,760.791 873.414,760.949 873.932,984.415 874.45,984.541 874.969,980.432 875.487,980.517 876.005,848.406 876.523,848.551 877.041,862.813 877.559,862.941 878.078,895.252 878.596,895.411 879.114,755.855 879.632,756.026 880.15,782.763 880.668,782.886 881.186,973.274 881.705,973.383 882.223,611.143 882.741,611.301 883.259,467.216 883.777,467.448 884.295,1008.22 884.814,1008.3 885.332,558.789 885.85,559.059 886.368,923.33 886.886,923.442 887.404,816.263 887.923,816.43 888.441,1057.36 888.959,1057.48 889.477,1008.29 889.995,1008.43 890.513,752.352 891.031,752.527 891.55,1007.51 892.068,1007.63 892.586,890.502 893.104,890.621 893.622,909.456 894.14,909.583 894.659,862.265 895.177,862.446 895.695,891.818 896.213,891.918 896.731,906.021 897.249,906.176 897.768,1081.33 898.286,1081.45 898.804,988.416 899.322,988.581 899.84,991.74 900.358,991.968 900.876,958.623 901.395,958.718 901.913,640.31 902.431,640.495 902.949,724.555 903.467,724.732 903.985,881.368 904.504,881.518 905.022,1077.12 905.54,1077.25 906.058,833.061 906.576,833.196 907.094,846.839 907.613,846.977 908.131,1042.94 908.649,1043.03 909.167,1047.57 909.685,1047.68 910.203,937.067 910.721,937.181 911.24,1057.64 911.758,1057.76 912.276,826.125 912.794,826.248 913.312,1113.64 913.83,1113.72 914.349,1061.12 914.867,1061.24 915.385,753.698 915.903,753.853 916.421,1013.5 916.939,1013.66 917.458,877.639 917.976,877.769 918.494,847.499 919.012,847.662 919.53,595.798 920.048,595.952 920.566,1028.18 921.085,1028.29 921.603,984.382 922.121,984.497 922.639,788.201 923.157,788.406 923.675,899.13 924.194,899.314 924.712,705 925.23,705.229 925.748,702.408 926.266,702.545 926.784,1133.29 927.303,1133.41 927.821,1075.88 928.339,1076.03 928.857,623.927 929.375,624.052 929.893,950.839 930.411,950.958 930.93,950.755 931.448,950.851 931.966,986.416 932.484,986.553 933.002,1009.18 933.52,1009.31 934.039,888.978 934.557,889.117 935.075,833.495 935.593,833.658 936.111,386.507 936.629,386.848 937.148,908.939 937.666,909.078 938.184,779.144 938.702,779.297 939.22,967.909 939.738,968.054 940.257,669.529 940.775,669.706 941.293,916.56 941.811,916.662 942.329,887.706 942.847,887.871 943.365,969.016 943.884,969.167 944.402,866.573 944.92,866.689 945.438,698.663 945.956,698.815 946.474,826.058 946.993,826.166 947.511,1117.41 948.029,1117.53 948.547,961.154 949.065,961.277 949.583,637.945 950.102,638.131 950.62,895.325 951.138,895.519 951.656,657.293 952.174,657.419 952.692,812.973 953.21,813.08 953.729,679.356 954.247,679.505 954.765,819.492 955.283,819.692 955.801,964.366 956.319,964.482 956.838,818.713 957.356,818.83 957.874,716.124 958.392,716.264 958.91,624.793 959.428,624.949 959.947,965.751 960.465,965.878 960.983,784.268 961.501,784.399 962.019,936.289 962.537,936.372 963.055,968.739 963.574,968.89 964.092,750.001 964.61,750.128 965.128,1045.99 965.646,1046.09 966.164,903.908 966.683,904.006 967.201,805.809 967.719,805.974 968.237,1066.35 968.755,1066.46 969.273,901.967 969.792,902.13 970.31,955.182 970.828,955.259 971.346,910.942 971.864,911.055 972.382,800.248 972.9,800.353 973.419,1005.6 973.937,1005.71 974.455,844.192 974.973,844.367 975.491,969.668 976.009,969.812 976.528,1071.32 977.046,1071.41 977.564,452.941 978.082,453.177 978.6,969.267 979.118,969.389 979.637,669.75 980.155,669.916 980.673,839.672 981.191,839.808 981.709,584.137 982.227,584.368 982.745,1123.47 983.264,1123.58 983.782,917.012 984.3,917.156 984.818,1002.28 985.336,1002.35 985.854,955.507 986.373,955.6 986.891,660.028 987.409,660.205 987.927,906.465 988.445,906.583 988.963,1033.67 989.482,1033.76 990,930.995 990.518,931.1 991.036,600.442 991.554,600.623 992.072,956.458 992.59,956.577 993.109,818.996 993.627,819.085 994.145,740.601 994.663,740.771 995.181,1012.76 995.699,1012.85 996.218,716.016 996.736,716.11 997.254,611.715 997.772,611.846 998.29,847.132 998.808,847.269 999.327,954.166 999.845,954.304 1000.36,518.826 1000.88,518.967 1001.4,878.016 1001.92,878.12 1002.44,692.158 1002.95,692.285 1003.47,983.876 1003.99,984.019 1004.51,758.671 1005.03,758.815 1005.54,932.739 1006.06,932.913 1006.58,930.517 1007.1,930.66 1007.62,878.815 1008.14,878.971 1008.65,952.042 1009.17,952.112 1009.69,820.622 1010.21,820.745 1010.73,798.054 1011.24,798.146 1011.76,876.11 1012.28,876.23 1012.8,740.147 1013.32,740.269 1013.83,992.971 1014.35,993.084 1014.87,839.436 1015.39,839.544 1015.91,532.364 1016.43,532.57 1016.94,810.662 1017.46,810.785 1017.98,725.117 1018.5,725.269 1019.02,1012.87 1019.53,1013.12 1020.05,1010.88 1020.57,1011.08 1021.09,1109.55 1021.61,1109.66 1022.13,881.097 1022.64,881.241 1023.16,883.064 1023.68,883.146 1024.2,945.881 1024.72,946.008 1025.23,1073.23 1025.75,1073.3 1026.27,1059.82 1026.79,1059.91 1027.31,966.702 1027.83,966.827 1028.34,749.677 1028.86,749.779 1029.38,747.34 1029.9,747.453 1030.42,841.831 1030.93,841.949 1031.45,837.987 1031.97,838.076 1032.49,692.98 1033.01,693.096 1033.52,838.095 1034.04,838.28 1034.56,1034.46 1035.08,1034.57 1035.6,1103.9 1036.12,1104.07 1036.63,845.286 1037.15,845.412 1037.67,847.656 1038.19,847.779 1038.71,1051.91 1039.22,1052.02 1039.74,734.618 1040.26,734.714 1040.78,718.239 1041.3,718.344 1041.82,987.564 1042.33,987.708 1042.85,804.835 1043.37,804.966 1043.89,555.284 1044.41,555.566 1044.92,921.366 1045.44,921.507 1045.96,1087.32 1046.48,1087.43 1047,981.286 1047.52,981.384 1048.03,903.937 1048.55,904.029 1049.07,1078.58 1049.59,1078.7 1050.11,657.117 1050.62,657.234 1051.14,688.218 1051.66,688.392 1052.18,1073.05 1052.7,1073.22 1053.22,750.671 1053.73,750.839 1054.25,956.305 1054.77,956.441 1055.29,904.943 1055.81,905.052 1056.32,1087.56 1056.84,1087.7 1057.36,1099.6 1057.88,1099.72 1058.4,803.009 1058.91,803.111 1059.43,615.061 1059.95,615.228 1060.47,979.843 1060.99,979.971 1061.51,894.279 1062.02,894.408 1062.54,991.111 1063.06,991.233 1063.58,973.785 1064.1,973.899 1064.61,818.169 1065.13,818.285 1065.65,1017.4 1066.17,1017.53 1066.69,802.754 1067.21,802.867 1067.72,1107.72 1068.24,1107.84 1068.76,960.961 1069.28,961.064 1069.8,597.787 1070.31,597.951 1070.83,868.31 1071.35,868.43 1071.87,795.269 1072.39,795.384 1072.91,978.322 1073.42,978.422 1073.94,852.921 1074.46,853.007 1074.98,699.227 1075.5,699.329 1076.01,847.937 1076.53,848.029 1077.05,779.684 1077.57,779.813 1078.09,957.563 1078.6,957.675 1079.12,841.378 1079.64,841.522 1080.16,886.441 1080.68,886.549 1081.2,850.26 1081.71,850.363 1082.23,1082.7 1082.75,1082.83 1083.27,1044.25 1083.79,1044.41 1084.3,878.992 1084.82,879.115 1085.34,862.183 1085.86,862.257 1086.38,865.893 1086.9,866.001 1087.41,1023.59 1087.93,1023.67 1088.45,800.4 1088.97,800.521 1089.49,792.943 1090,793.036 1090.52,938.532 1091.04,938.593 1091.56,848.374 1092.08,848.513 1092.6,830 1093.11,830.115 1093.63,923.011 1094.15,923.111 1094.67,749.913 1095.19,750.017 1095.7,494.319 1096.22,494.411 1096.74,877.707 1097.26,877.788 1097.78,957.995 1098.29,958.124 1098.81,805.732 1099.33,805.877 1099.85,1004.22 1100.37,1004.31 1100.89,836.926 1101.4,837.029 1101.92,912.052 1102.44,912.128 1102.96,1012.46 1103.48,1012.57 1103.99,748.701 1104.51,748.817 1105.03,894.421 1105.55,894.52 1106.07,1044.96 1106.59,1045.07 1107.1,1175.02 1107.62,1175.08 1108.14,978.826 1108.66,978.93 1109.18,740.12 1109.69,740.218 1110.21,805.579 1110.73,805.732 1111.25,863.314 1111.77,863.411 1112.29,837.922 1112.8,838.063 1113.32,999.881 1113.84,999.963 1114.36,839.729 1114.88,839.856 1115.39,903.897 1115.91,903.988 1116.43,753.967 1116.95,754.053 1117.47,694.609 1117.98,694.733 1118.5,908.046 1119.02,908.15 1119.54,665.213 1120.06,665.355 1120.58,915.792 1121.09,915.898 1121.61,758.758 1122.13,758.87 1122.65,904.619 1123.17,904.7 1123.68,707.568 1124.2,707.73 1124.72,928.667 1125.24,928.802 1125.76,827.609 1126.28,827.728 1126.79,993.406 1127.31,993.561 1127.83,915.392 1128.35,915.486 1128.87,689.965 1129.38,690.169 1129.9,744.443 1130.42,744.549 1130.94,946.618 1131.46,946.744 1131.98,904.477 1132.49,904.58 1133.01,915.412 1133.53,915.527 1134.05,1003.21 1134.57,1003.26 1135.08,1018.2 1135.6,1018.28 1136.12,870.459 1136.64,870.557 1137.16,912.237 1137.67,912.364 1138.19,612.629 1138.71,612.805 1139.23,870.866 1139.75,870.944 1140.27,768.434 1140.78,768.546 1141.3,1069.85 1141.82,1069.99 1142.34,1054.38 1142.86,1054.46 1143.37,858.946 1143.89,859.028 1144.41,707.342 1144.93,707.457 1145.45,729.764 1145.97,729.917 1146.48,893.425 1147,893.566 1147.52,891.313 1148.04,891.435 1148.56,881.222 1149.07,881.387 1149.59,845.869 1150.11,846.031 1150.63,760.862 1151.15,761.017 1151.67,977.744 1152.18,977.815 1152.7,1009.7 1153.22,1009.8 1153.74,915.165 1154.26,915.27 1154.77,723.586 1155.29,723.669 1155.81,744.704 1156.33,744.841 1156.85,902.249 1157.36,902.383 1157.88,682.716 1158.4,682.824 1158.92,874.064 1159.44,874.151 1159.96,950.976 1160.47,951.043 1160.99,813.243 1161.51,813.427 1162.03,645.747 1162.55,645.851 1163.06,889.499 1163.58,889.605 1164.1,840.849 1164.62,840.957 1165.14,949.37 1165.66,949.489 1166.17,733.908 1166.69,734.03 1167.21,939.487 1167.73,939.568 1168.25,880.653 1168.76,880.747 1169.28,925.083 1169.8,925.248 1170.32,844.833 1170.84,844.928 1171.36,565.522 1171.87,565.721 1172.39,1022.32 1172.91,1022.48 1173.43,1013.87 1173.95,1013.99 1174.46,835.783 1174.98,835.867 1175.5,949.765 1176.02,949.864 1176.54,962.27 1177.05,962.334 1177.57,1031.92 1178.09,1032.03 1178.61,998.445 1179.13,998.517 1179.65,883.265 1180.16,883.337 1180.68,884.644 1181.2,884.704 1181.72,760.355 1182.24,760.446 1182.75,887.591 1183.27,887.671 1183.79,894.631 1184.31,894.718 1184.83,956.75 1185.35,956.797 1185.86,982.054 1186.38,982.14 1186.9,1088.77 1187.42,1088.86 1187.94,762.537 1188.45,762.626 1188.97,819.555 1189.49,819.636 1190.01,943.133 1190.53,943.243 1191.05,1003.04 1191.56,1003.12 1192.08,950.948 1192.6,951.052 1193.12,956.894 1193.64,956.968 1194.15,963.21 1194.67,963.334 1195.19,966.058 1195.71,966.163 1196.23,783.54 1196.74,783.621 1197.26,940.497 1197.78,940.562 1198.3,855.715 1198.82,855.773 1199.34,838.943 1199.85,839.012 1200.37,819.618 1200.89,819.711 1201.41,881.735 1201.93,881.829 1202.44,910.284 1202.96,910.387 1203.48,668.58 1204,668.697 1204.52,986.831 1205.04,986.874 1205.55,740.608 1206.07,740.695 1206.59,787.965 1207.11,788.085 1207.63,714.13 1208.14,714.271 1208.66,1063.15 1209.18,1063.2 1209.7,966.501 1210.22,966.566 1210.74,823.714 1211.25,823.828 1211.77,1011.19 1212.29,1011.26 1212.81,896.734 1213.33,896.813 1213.84,936.157 1214.36,936.333 1214.88,843.658 1215.4,843.743 1215.92,937.337 1216.43,937.454 1216.95,837.103 1217.47,837.195 1217.99,507.513 1218.51,507.693 1219.03,769.719 1219.54,769.807 1220.06,988.766 1220.58,988.854 1221.1,782.584 1221.62,782.716 1222.13,1117.6 1222.65,1117.72 1223.17,1060.36 1223.69,1060.41 1224.21,1004.32 1224.73,1004.4 1225.24,1016.06 1225.76,1016.12 1226.28,772.768 1226.8,772.849 1227.32,897.335 1227.83,897.394 1228.35,827.412 1228.87,827.474 1229.39,715.058 1229.91,715.144 1230.43,944.461 1230.94,944.59 1231.46,1243.98 1231.98,1244.09 1232.5,773.41 1233.02,773.58 1233.53,627.791 1234.05,627.856 1234.57,1012.45 1235.09,1012.53 1235.61,729.755 1236.12,729.875 1236.64,873.795 1237.16,873.923 1237.68,937.306 1238.2,937.408 1238.72,553.47 1239.23,553.539 1239.75,1110.35 1240.27,1110.42 1240.79,842.511 1241.31,842.579 1241.82,654.862 1242.34,654.973 1242.86,989.312 1243.38,989.432 1243.9,868.609 1244.42,868.668 1244.93,967.936 1245.45,968.043 1245.97,957.764 1246.49,957.844 1247.01,1033.34 1247.52,1033.43 1248.04,722.742 1248.56,722.835 1249.08,842.279 1249.6,842.364 1250.12,1034.69 1250.63,1034.77 1251.15,757.557 1251.67,757.749 1252.19,842.122 1252.71,842.204 1253.22,1046.07 1253.74,1046.12 1254.26,741.583 1254.78,741.719 1255.3,620.043 1255.81,620.168 1256.33,1018.27 1256.85,1018.37 1257.37,1000.41 1257.89,1000.48 1258.41,648.845 1258.92,648.983 1259.44,679.339 1259.96,679.463 1260.48,785.352 1261,785.441 1261.51,918.696 1262.03,918.76 1262.55,870.053 1263.07,870.116 1263.59,913.657 1264.11,913.724 1264.62,999.666 1265.14,999.743 1265.66,870.306 1266.18,870.392 1266.7,959.041 1267.21,959.207 1267.73,1070.21 1268.25,1070.28 1268.77,1046.25 1269.29,1046.35 1269.81,851.932 1270.32,852.018 1270.84,997.848 1271.36,997.96 1271.88,959.863 1272.4,959.925 1272.91,899.68 1273.43,899.762 1273.95,1031.62 1274.47,1031.74 1274.99,878.436 1275.5,878.571 1276.02,1090.13 1276.54,1090.26 1277.06,882.252 1277.58,882.337 1278.1,946.244 1278.61,946.329 1279.13,875.549 1279.65,875.697 1280.17,925.485 1280.69,925.577 1281.2,833.468 1281.72,833.599 1282.24,889.597 1282.76,889.662 1283.28,896.983 1283.8,897.113 1284.31,945.625 1284.83,945.703 1285.35,652.286 1285.87,652.395 1286.39,909.196 1286.9,909.272 1287.42,637.773 1287.94,637.879 1288.46,891.912 1288.98,891.975 1289.5,784.608 1290.01,784.702 1290.53,963.323 1291.05,963.486 1291.57,1155.49 1292.09,1155.59 1292.6,676.742 1293.12,676.868 1293.64,868.294 1294.16,868.401 1294.68,851.251 1295.19,851.321 1295.71,955.75 1296.23,955.831 1296.75,872.421 1297.27,872.475 1297.79,905.376 1298.3,905.44 1298.82,735.7 1299.34,735.804 1299.86,864.25 1300.38,864.353 1300.89,942.182 1301.41,942.245 1301.93,914.281 1302.45,914.371 1302.97,1040.59 1303.49,1040.69 1304,1110.05 1304.52,1110.14 1305.04,859.676 1305.56,859.783 1306.08,909.84 1306.59,909.91 1307.11,923.015 1307.63,923.108 1308.15,935.765 1308.67,935.864 1309.19,907.432 1309.7,907.517 1310.22,878.529 1310.74,878.616 1311.26,805.949 1311.78,806.025 1312.29,777.284 1312.81,777.353 1313.33,803.746 1313.85,803.809 1314.37,689.692 1314.88,689.819 1315.4,816.963 1315.92,817.027 1316.44,768.597 1316.96,768.691 1317.48,969.896 1317.99,969.945 1318.51,919.075 1319.03,919.144 1319.55,953.968 1320.07,954.024 1320.58,914.544 1321.1,914.649 1321.62,849.905 1322.14,849.999 1322.66,590.879 1323.18,590.943 1323.69,653.283 1324.21,653.403 1324.73,940.132 1325.25,940.184 1325.77,979.393 1326.28,979.484 1326.8,879.904 1327.32,879.962 1327.84,979.552 1328.36,979.608 1328.88,1085.45 1329.39,1085.56 1329.91,755.184 1330.43,755.319 1330.95,946.085 1331.47,946.169 1331.98,808.797 1332.5,808.892 1333.02,896.83 1333.54,896.961 1334.06,697.182 1334.57,697.269 1335.09,800.997 1335.61,801.072 1336.13,1007.25 1336.65,1007.3 1337.17,976.541 1337.68,976.628 1338.2,707.627 1338.72,707.733 1339.24,999.879 1339.76,999.983 1340.27,905.995 1340.79,906.068 1341.31,996.24 1341.83,996.336 1342.35,631.909 1342.87,632.012 1343.38,760.959 1343.9,761.092 1344.42,785.31 1344.94,785.453 1345.46,856.111 1345.97,856.167 1346.49,912.835 1347.01,912.901 1347.53,820.94 1348.05,821.022 1348.57,939.448 1349.08,939.51 1349.6,928.17 1350.12,928.25 1350.64,930.976 1351.16,931.059 1351.67,730.896 1352.19,731.007 1352.71,944.231 1353.23,944.301 1353.75,713.961 1354.26,714.052 1354.78,933.474 1355.3,933.565 1355.82,939.081 1356.34,939.148 1356.86,890.078 1357.37,890.183 1357.89,921.044 1358.41,921.127 1358.93,923.013 1359.45,923.087 1359.96,685.279 1360.48,685.395 1361,863.695 1361.52,863.776 1362.04,859.234 1362.56,859.32 1363.07,1001.65 1363.59,1001.73 1364.11,931.2 1364.63,931.296 1365.15,814.358 1365.66,814.444 1366.18,819.047 1366.7,819.175 1367.22,897.996 1367.74,898.139 1368.26,800.631 1368.77,800.689 1369.29,994.65 1369.81,994.705 1370.33,693.914 1370.85,693.996 1371.36,807.154 1371.88,807.208 1372.4,980.782 1372.92,980.839 1373.44,928.691 1373.95,928.716 1374.47,777.171 1374.99,777.263 1375.51,639.826 1376.03,639.919 1376.55,962.627 1377.06,962.805 1377.58,876.05 1378.1,876.19 1378.62,940.508 1379.14,940.571 1379.65,900.271 1380.17,900.341 1380.69,811.45 1381.21,811.519 1381.73,967.299 1382.25,967.346 1382.76,854.177 1383.28,854.249 1383.8,978.5 1384.32,978.563 1384.84,967.366 1385.35,967.404 1385.87,811.564 1386.39,811.632 1386.91,888.297 1387.43,888.366 1387.95,710.082 1388.46,710.131 1388.98,913.103 1389.5,913.161 1390.02,743.135 1390.54,743.226 1391.05,838.416 1391.57,838.526 1392.09,878.314 1392.61,878.409 1393.13,775.34 1393.64,775.438 1394.16,794.225 1394.68,794.302 1395.2,1056.63 1395.72,1056.74 1396.24,876.431 1396.75,876.502 1397.27,871.005 1397.79,871.062 1398.31,777.636 1398.83,777.733 1399.34,912.027 1399.86,912.092 1400.38,540.034 1400.9,540.106 1401.42,839.639 1401.94,839.798 1402.45,990.471 1402.97,990.563 1403.49,755.25 1404.01,755.307 1404.53,951.595 1405.04,951.664 1405.56,757.853 1406.08,757.933 1406.6,824.707 1407.12,824.761 1407.64,976.293 1408.15,976.332 1408.67,976.454 1409.19,976.53 1409.71,738.589 1410.23,738.663 1410.74,815.09 1411.26,815.267 1411.78,952.681 1412.3,952.824 1412.82,659.592 1413.33,659.683 1413.85,1038.16 1414.37,1038.21 1414.89,732.442 1415.41,732.512 1415.93,911.619 1416.44,911.727 1416.96,869.791 1417.48,869.86 1418,1041.55 1418.52,1041.59 1419.03,847.103 1419.55,847.215 1420.07,692.36 1420.59,692.462 1421.11,844.081 1421.63,844.138 1422.14,881.931 1422.66,882.001 1423.18,801.527 1423.7,801.603 1424.22,781.456 1424.73,781.533 1425.25,729.05 1425.77,729.123 1426.29,823.407 1426.81,823.458 1427.33,1008.06 1427.84,1008.11 1428.36,735.29 1428.88,735.329 1429.4,687.897 1429.92,687.976 1430.43,876.647 1430.95,876.692 1431.47,850.842 1431.99,850.877 1432.51,767.969 1433.03,768.048 1433.54,769.856 1434.06,769.979 1434.58,755.525 1435.1,755.586 1435.62,977.632 1436.13,977.707 1436.65,806.143 1437.17,806.215 1437.69,866.773 1438.21,866.84 1438.72,1054.68 1439.24,1054.71 1439.76,786.545 1440.28,786.662 1440.8,734.518 1441.32,734.616 1441.83,981.344 1442.35,981.386 1442.87,895.876 1443.39,895.953 1443.91,1209.82 1444.42,1209.89 1444.94,1014.17 1445.46,1014.22 1445.98,919.009 1446.5,919.078 1447.02,811.533 1447.53,811.603 1448.05,748.049 1448.57,748.146 1449.09,881.767 1449.61,881.83 1450.12,899.806 1450.64,899.937 1451.16,1083.93 1451.68,1083.96 1452.2,749.696 1452.72,749.776 1453.23,897.076 1453.75,897.132 1454.27,962.486 1454.79,962.545 1455.31,1027.96 1455.82,1028.01 1456.34,1020.49 1456.86,1020.59 1457.38,905.396 1457.9,905.446 1458.41,915.172 1458.93,915.227 1459.45,811.996 1459.97,812.093 1460.49,789.223 1461.01,789.301 1461.52,684.559 1462.04,684.633 1462.56,781.289 1463.08,781.38 1463.6,980.681 1464.11,980.726 1464.63,744.178 1465.15,744.263 1465.67,604.666 1466.19,604.773 1466.71,947.02 1467.22,947.056 1467.74,997.412 1468.26,997.512 1468.78,890.17 1469.3,890.232 1469.81,912.356 1470.33,912.435 1470.85,850.603 1471.37,850.657 1471.89,953.898 1472.41,953.972 1472.92,915.62 1473.44,915.695 1473.96,790.417 1474.48,790.559 1475,803.414 1475.51,803.472 1476.03,924.413 1476.55,924.489 1477.07,901.764 1477.59,901.821 1478.1,799.548 1478.62,799.6 1479.14,835.472 1479.66,835.577 1480.18,927.551 1480.7,927.586 1481.21,931.296 1481.73,931.441 1482.25,868.672 1482.77,868.739 1483.29,603.993 1483.8,604.135 1484.32,883.536 1484.84,883.598 1485.36,791.279 1485.88,791.33 1486.4,831.936 1486.91,832.008 1487.43,927.814 1487.95,927.906 1488.47,1036.92 1488.99,1036.97 1489.5,1106.59 1490.02,1106.67 1490.54,734.862 1491.06,735.008 1491.58,991.249 1492.1,991.326 1492.61,1047.32 1493.13,1047.36 1493.65,952.171 1494.17,952.219 1494.69,991.298 1495.2,991.336 1495.72,647.696 1496.24,647.778 1496.76,900.398 1497.28,900.474 1497.79,760.202 1498.31,760.259 1498.83,987.308 1499.35,987.389 1499.87,776.78 1500.39,776.898 1500.9,960.786 1501.42,960.865 1501.94,885.139 1502.46,885.196 1502.98,723.281 1503.49,723.385 1504.01,1005.44 1504.53,1005.47 1505.05,849.024 1505.57,849.084 1506.09,967.976 1506.6,968.082 1507.12,839.841 1507.64,839.935 1508.16,790.161 1508.68,790.233 1509.19,896.406 1509.71,896.458 1510.23,670.933 1510.75,671.018 1511.27,716.863 1511.79,716.959 1512.3,885.379 1512.82,885.436 1513.34,925.961 1513.86,926.05 1514.38,678.074 1514.89,678.186 1515.41,793.606 1515.93,793.671 1516.45,916.204 1516.97,916.263 1517.48,951.104 1518,951.187 1518.52,618.417 1519.04,618.541 1519.56,780.195 1520.08,780.267 1520.59,842.946 1521.11,843.013 1521.63,943.302 1522.15,943.379 1522.67,936.225 1523.18,936.298 1523.7,863.303 1524.22,863.38 1524.74,793.075 1525.26,793.139 1525.78,965.997 1526.29,966.031 1526.81,731.659 1527.33,731.743 1527.85,671.799 1528.37,671.877 1528.88,662.693 1529.4,662.878 1529.92,674.84 1530.44,674.969 1530.96,764.109 1531.48,764.186 1531.99,840.716 1532.51,840.778 1533.03,952.922 1533.55,953.025 1534.07,829.612 1534.58,829.667 1535.1,871.707 1535.62,871.799 1536.14,835.911 1536.66,835.994 1537.17,638.291 1537.69,638.383 1538.21,928.776 1538.73,928.844 1539.25,951.617 1539.77,951.719 1540.28,1016.94 1540.8,1017.09 1541.32,606.758 1541.84,606.904 1542.36,931.26 1542.87,931.354 1543.39,872.59 1543.91,872.662 1544.43,897.48 1544.95,897.54 1545.47,767.946 1545.98,768.008 1546.5,768.098 1547.02,768.218 1547.54,724.448 1548.06,724.545 1548.57,1078.67 1549.09,1078.73 1549.61,1039.77 1550.13,1039.84 1550.65,979.582 1551.17,979.673 1551.68,939.375 1552.2,939.452 1552.72,765.196 1553.24,765.251 1553.76,1043.09 1554.27,1043.14 1554.79,981.761 1555.31,981.849 1555.83,922.154 1556.35,922.362 1556.86,899.579 1557.38,899.613 1557.9,938.359 1558.42,938.407 1558.94,992.256 1559.46,992.333 1559.97,824.344 1560.49,824.398 1561.01,640.57 1561.53,640.718 1562.05,961.36 1562.56,961.452 1563.08,651.258 1563.6,651.322 1564.12,850.034 1564.64,850.071 1565.16,858.639 1565.67,858.737 1566.19,980.692 1566.71,980.741 1567.23,960.161 1567.75,960.267 1568.26,944.642 1568.78,944.72 1569.3,860.555 1569.82,860.637 1570.34,1114.86 1570.86,1114.94 1571.37,845.453 1571.89,845.498 1572.41,956.376 1572.93,956.484 1573.45,854.833 1573.96,854.926 1574.48,914.357 1575,914.425 1575.52,903.356 1576.04,903.432 1576.55,651.307 1577.07,651.376 1577.59,861.052 1578.11,861.089 1578.63,945.985 1579.15,946.095 1579.66,905.106 1580.18,905.157 1580.7,701.844 1581.22,701.903 1581.74,989.05 1582.25,989.071 1582.77,994.149 1583.29,994.251 1583.81,910.726 1584.33,910.756 1584.85,771.526 1585.36,771.645 1585.88,601.764 1586.4,601.84 1586.92,793.261 1587.44,793.327 1587.95,829.308 1588.47,829.399 1588.99,853.751 1589.51,853.835 1590.03,976.842 1590.55,976.906 1591.06,917.781 1591.58,917.813 1592.1,901.272 1592.62,901.331 1593.14,1031.02 1593.65,1031.08 1594.17,680.559 1594.69,680.674 1595.21,744.102 1595.73,744.145 1596.24,833.877 1596.76,833.917 1597.28,877.746 1597.8,877.789 1598.32,1023.66 1598.84,1023.7 1599.35,923.934 1599.87,923.969 1600.39,763.82 1600.91,763.942 1601.43,733.147 1601.94,733.234 1602.46,735.138 1602.98,735.234 1603.5,976.088 1604.02,976.142 1604.54,894.143 1605.05,894.213 1605.57,783.662 1606.09,783.731 1606.61,993.682 1607.13,993.747 1607.64,910.55 1608.16,910.634 1608.68,1099.55 1609.2,1099.71 1609.72,895.598 1610.24,895.662 1610.75,958.421 1611.27,958.494 1611.79,793.16 1612.31,793.227 1612.83,768.934 1613.34,768.997 1613.86,1015.68 1614.38,1015.71 1614.9,861.666 1615.42,861.784 1615.93,883.715 1616.45,883.761 1616.97,899.489 1617.49,899.671 1618.01,665.533 1618.53,665.6 1619.04,939.103 1619.56,939.185 1620.08,911.654 1620.6,911.683 1621.12,1090.96 1621.63,1091 1622.15,1011.8 1622.67,1011.88 1623.19,767.732 1623.71,767.788 1624.23,935.705 1624.74,935.769 1625.26,792.735 1625.78,792.778 1626.3,807.604 1626.82,807.726 1627.33,947.53 1627.85,947.554 1628.37,900.334 1628.89,900.453 1629.41,986.207 1629.93,986.249 1630.44,861.577 1630.96,861.616 1631.48,986.146 1632,986.183 1632.52,681.779 1633.03,681.837 1633.55,977.095 1634.07,977.151 1634.59,905.501 1635.11,905.569 1635.62,979.836 1636.14,979.924 1636.66,821.823 1637.18,821.891 1637.7,975.49 1638.22,975.552 1638.73,777.375 1639.25,777.441 1639.77,890.805 1640.29,890.873 1640.81,1048.06 1641.32,1048.12 1641.84,702.314 1642.36,702.403 1642.88,813.013 1643.4,813.078 1643.92,1029.61 1644.43,1029.67 1644.95,786.347 1645.47,786.399 1645.99,769.757 1646.51,769.805 1647.02,779.062 1647.54,779.136 1648.06,799.246 1648.58,799.356 1649.1,856.815 1649.62,856.896 1650.13,811.376 1650.65,811.452 1651.17,1024 1651.69,1024.03 1652.21,807.134 1652.72,807.224 1653.24,806.569 1653.76,806.65 1654.28,874.046 1654.8,874.206 1655.31,948.423 1655.83,948.488 1656.35,973.074 1656.87,973.104 1657.39,953.023 1657.91,953.082 1658.42,933.111 1658.94,933.159 1659.46,790.541 1659.98,790.623 1660.5,853.743 1661.01,853.811 1661.53,853.171 1662.05,853.234 1662.57,889.969 1663.09,889.994 1663.61,962.616 1664.12,962.639 1664.64,797.841 1665.16,797.89 1665.68,815.257 1666.2,815.374 1666.71,809.957 1667.23,810.011 1667.75,810.081 1668.27,810.185 1668.79,868.209 1669.31,868.26 1669.82,638.024 1670.34,638.107 1670.86,939.478 1671.38,939.563 1671.9,931.032 1672.41,931.076 1672.93,1011.12 1673.45,1011.22 1673.97,844.638 1674.49,844.686 1675,895.608 1675.52,895.663 1676.04,855.46 1676.56,855.492 1677.08,895.277 1677.6,895.338 1678.11,823.902 1678.63,823.941 1679.15,955.089 1679.67,955.161 1680.19,1053.74 1680.7,1053.81 1681.22,969.321 1681.74,969.367 1682.26,899.109 1682.78,899.221 1683.3,806.013 1683.81,806.082 1684.33,911.899 1684.85,911.946 1685.37,706.124 1685.89,706.179 1686.4,853.126 1686.92,853.188 1687.44,1017.4 1687.96,1017.45 1688.48,975.514 1689,975.564 1689.51,752.443 1690.03,752.494 1690.55,955.222 1691.07,955.325 1691.59,807.143 1692.1,807.217 1692.62,882.409 1693.14,882.479 1693.66,787.338 1694.18,787.388 1694.69,921.431 1695.21,921.543 1695.73,994.198 1696.25,994.272 1696.77,955.408 1697.29,955.424 1697.8,1075.47 1698.32,1075.63 1698.84,837.321 1699.36,837.372 1699.88,1119.58 1700.39,1119.7 1700.91,771.215 1701.43,771.261 1701.95,789.534 1702.47,789.598 1702.99,743.835 1703.5,743.925 1704.02,1083.08 1704.54,1083.13 1705.06,794.966 1705.58,795.025 1706.09,715.873 1706.61,715.932 1707.13,838.078 1707.65,838.126 1708.17,678.735 1708.69,678.912 1709.2,773.467 1709.72,773.545 1710.24,1086.4 1710.76,1086.45 1711.28,744.537 1711.79,744.573 1712.31,981.156 1712.83,981.176 1713.35,966.092 1713.87,966.176 1714.38,1045.96 1714.9,1046.07 1715.42,925.188 1715.94,925.355 1716.46,945.118 1716.98,945.207 1717.49,839.059 1718.01,839.093 1718.53,900.327 1719.05,900.388 1719.57,815.003 1720.08,815.078 1720.6,863.218 1721.12,863.262 1721.64,1022.3 1722.16,1022.44 1722.68,777.191 1723.19,777.318 1723.71,927.867 1724.23,927.921 1724.75,874.307 1725.27,874.339 1725.78,867.649 1726.3,867.765 1726.82,935.874 1727.34,935.95 1727.86,872.947 1728.38,872.998 1728.89,634.256 1729.41,634.409 1729.93,904.052 1730.45,904.121 1730.97,884.246 1731.48,884.336 1732,969.071 1732.52,969.113 1733.04,836.251 1733.56,836.293 1734.07,989.901 1734.59,989.956 1735.11,988.125 1735.63,988.211 1736.15,806.715 1736.67,806.761 1737.18,850.41 1737.7,850.448 1738.22,892.981 1738.74,893.036 1739.26,574.578 1739.77,574.652 1740.29,820.75 1740.81,820.834 1741.33,1043.89 1741.85,1043.93 1742.37,944.173 1742.88,944.217 1743.4,884.417 1743.92,884.485 1744.44,994.232 1744.96,994.262 1745.47,830.619 1745.99,830.697 1746.51,979.92 1747.03,979.993 1747.55,902.094 1748.07,902.147 1748.58,957.317 1749.1,957.338 1749.62,1054.93 1750.14,1054.96 1750.66,870.208 1751.17,870.247 1751.69,1120.77 1752.21,1120.85 1752.73,837.82 1753.25,837.867 1753.76,853.107 1754.28,853.158 1754.8,872.247 1755.32,872.291 1755.84,887.141 1756.36,887.183 1756.87,791.267 1757.39,791.343 1757.91,719.565 1758.43,719.733 1758.95,879.22 1759.46,879.335 1759.98,962.12 1760.5,962.221 1761.02,807.819 1761.54,807.865 1762.06,820.877 1762.57,820.927 1763.09,955.842 1763.61,955.93 1764.13,896.835 1764.65,896.871 1765.16,903.611 1765.68,903.65 1766.2,972.124 1766.72,972.148 1767.24,732.889 1767.76,732.954 1768.27,1009.02 1768.79,1009.11 1769.31,962.479 1769.83,962.543 1770.35,935.518 1770.86,935.57 1771.38,721.125 1771.9,721.183 1772.42,893.266 1772.94,893.302 1773.45,820.641 1773.97,820.736 1774.49,825.494 1775.01,825.6 1775.53,906.168 1776.05,906.256 1776.56,763.476 1777.08,763.527 1777.6,816.206 1778.12,816.27 1778.64,755.086 1779.15,755.135 1779.67,984.279 1780.19,984.346 1780.71,957.437 1781.23,957.456 1781.75,875.437 1782.26,875.496 1782.78,1018.59 1783.3,1018.63 1783.82,890.304 1784.34,890.389 1784.85,677.304 1785.37,677.402 1785.89,1025.55 1786.41,1025.64 1786.93,935.743 1787.45,935.766 1787.96,879.413 1788.48,879.472 1789,676.965 1789.52,677.054 1790.04,901.69 1790.55,901.793 1791.07,1059.89 1791.59,1059.96 1792.11,559.891 1792.63,559.996 1793.14,763.053 1793.66,763.106 1794.18,748.167 1794.7,748.231 1795.22,818.867 1795.74,818.902 1796.25,959.271 1796.77,959.342 1797.29,927.7 1797.81,927.738 1798.33,666.886 1798.84,666.991 1799.36,1045.98 1799.88,1046.03 1800.4,856.803 1800.92,856.89 1801.44,1022.33 1801.95,1022.38 1802.47,664.405 1802.99,664.465 1803.51,916.847 1804.03,916.87 1804.54,739.022 1805.06,739.11 1805.58,830.092 1806.1,830.159 1806.62,899.29 1807.14,899.364 1807.65,867.481 1808.17,867.566 1808.69,736.909 1809.21,736.944 1809.73,701.363 1810.24,701.437 1810.76,941.311 1811.28,941.378 1811.8,684.665 1812.32,684.744 1812.84,633.835 1813.35,633.936 1813.87,958.691 1814.39,958.796 1814.91,900.203 1815.43,900.239 1815.94,1023.56 1816.46,1023.6 1816.98,908.822 1817.5,908.865 1818.02,700.628 1818.53,700.701 1819.05,988.711 1819.57,988.796 1820.09,848.693 1820.61,848.777 1821.13,963.224 1821.64,963.319 1822.16,871.235 1822.68,871.386 1823.2,976.963 1823.72,977.114 1824.23,830.271 1824.75,830.316 1825.27,759.204 1825.79,759.27 1826.31,824.751 1826.83,824.788 1827.34,965.526 1827.86,965.55 1828.38,713.921 1828.9,713.992 1829.42,686.639 1829.93,686.696 1830.45,788.565 1830.97,788.648 1831.49,867.295 1832.01,867.34 1832.53,764.215 1833.04,764.26 1833.56,839.723 1834.08,839.775 1834.6,945.73 1835.12,945.829 1835.63,701.717 1836.15,701.773 1836.67,661.183 1837.19,661.282 1837.71,837.773 1838.22,837.797 1838.74,842.417 1839.26,842.532 1839.78,951.841 1840.3,951.886 1840.82,828.078 1841.33,828.256 1841.85,895.269 1842.37,895.349 1842.89,950.631 1843.41,950.674 1843.92,870.921 1844.44,870.961 1844.96,802.655 1845.48,802.718 1846,918.5 1846.52,918.608 1847.03,1064.98 1847.55,1065.12 1848.07,717.559 1848.59,717.597 1849.11,857.375 1849.62,857.424 1850.14,880.444 1850.66,880.507 1851.18,807.33 1851.7,807.409 1852.22,759.346 1852.73,759.383 1853.25,840.212 1853.77,840.256 1854.29,748.477 1854.81,748.539 1855.32,948.67 1855.84,948.745 1856.36,483.222 1856.88,483.33 1857.4,965.991 1857.91,966.126 1858.43,1064.38 1858.95,1064.42 1859.47,863.076 1859.99,863.121 1860.51,779.85 1861.02,779.911 1861.54,871.376 1862.06,871.411 1862.58,559.043 1863.1,559.083 1863.61,999.891 1864.13,999.961 1864.65,945.26 1865.17,945.352 1865.69,524.508 1866.21,524.564 1866.72,1015.59 1867.24,1015.63 1867.76,834.502 1868.28,834.537 1868.8,513.897 1869.31,514.026 1869.83,916.029 1870.35,916.094 1870.87,955.434 1871.39,955.474 1871.91,535.194 1872.42,535.35 1872.94,738.162 1873.46,738.253 1873.98,745.078 1874.5,745.151 1875.01,926.003 1875.53,926.075 1876.05,860.018 1876.57,860.055 1877.09,934.106 1877.6,934.16 1878.12,976.179 1878.64,976.22 1879.16,702.702 1879.68,702.796 1880.2,875.529 1880.71,875.571 1881.23,938.82 1881.75,938.907 1882.27,808.466 1882.79,808.608 1883.3,943.901 1883.82,943.931 1884.34,849.816 1884.86,849.873 1885.38,924.659 1885.9,924.712 1886.41,696.702 1886.93,696.746 1887.45,889.974 1887.97,890.019 1888.49,786.122 1889,786.154 1889.52,839.236 1890.04,839.273 1890.56,667.382 1891.08,667.426 1891.6,1058.75 1892.11,1058.85 1892.63,839.991 1893.15,840.03 1893.67,883.707 1894.19,883.805 1894.7,564.209 1895.22,564.287 1895.74,909.412 1896.26,909.489 1896.78,728.952 1897.29,729.022 1897.81,967.399 1898.33,967.448 1898.85,830.422 1899.37,830.454 1899.89,682.81 1900.4,682.85 1900.92,879.566 1901.44,879.617 1901.96,941.356 1902.48,941.417 1902.99,927.542 1903.51,927.57 1904.03,520.467 1904.55,520.582 1905.07,913.175 1905.59,913.205 1906.1,841.788 1906.62,841.893 1907.14,1004.83 1907.66,1004.88 1908.18,685.484 1908.69,685.54 1909.21,775.015 1909.73,775.084 1910.25,828.407 1910.77,828.472 1911.29,869.42 1911.8,869.46 1912.32,873.951 1912.84,874.004 1913.36,660.185 1913.88,660.273 1914.39,850.077 1914.91,850.143 1915.43,705.388 1915.95,705.481 1916.47,648.505 1916.98,648.573 1917.5,888.92 1918.02,888.957 1918.54,871.028 1919.06,871.111 1919.58,971.499 1920.09,971.55 1920.61,895.261 1921.13,895.347 1921.65,825.74 1922.17,825.759 1922.68,803.581 1923.2,803.636 1923.72,1030.87 1924.24,1030.95 1924.76,910.657 1925.28,910.689 1925.79,803.509 1926.31,803.571 1926.83,1013.02 1927.35,1013.08 1927.87,684.404 1928.38,684.464 1928.9,856.213 1929.42,856.253 1929.94,910.646 1930.46,910.678 1930.98,783.454 1931.49,783.485 1932.01,697.856 1932.53,697.911 1933.05,808.64 1933.57,808.677 1934.08,912.307 1934.6,912.351 1935.12,801.007 1935.64,801.094 1936.16,895.739 1936.67,895.766 1937.19,634.721 1937.71,634.799 1938.23,931.171 1938.75,931.218 1939.27,826.358 1939.78,826.387 1940.3,739.821 1940.82,739.89 1941.34,933.229 1941.86,933.268 1942.37,864.702 1942.89,864.788 1943.41,900.497 1943.93,900.541 1944.45,694.055 1944.97,694.118 1945.48,871.635 1946,871.687 1946.52,980.945 1947.04,980.99 1947.56,757.71 1948.07,757.743 1948.59,914.381 1949.11,914.468 1949.63,824.355 1950.15,824.418 1950.67,868.382 1951.18,868.486 1951.7,1003.21 1952.22,1003.3 1952.74,790.922 1953.26,790.963 1953.77,865.503 1954.29,865.587 1954.81,898.643 1955.33,898.693 1955.85,795.894 1956.36,795.947 1956.88,839.447 1957.4,839.52 1957.92,667.922 1958.44,667.995 1958.96,792.968 1959.47,793.016 1959.99,717.627 1960.51,717.666 1961.03,629.875 1961.55,629.979 1962.06,943.212 1962.58,943.268 1963.1,805.795 1963.62,805.923 1964.14,459.278 1964.66,459.412 1965.17,872.774 1965.69,872.849 1966.21,776.702 1966.73,776.739 1967.25,809.73 1967.76,809.766 1968.28,906.517 1968.8,906.611 1969.32,838.053 1969.84,838.082 1970.36,750.592 1970.87,750.645 1971.39,965.94 1971.91,965.972 1972.43,735.612 1972.95,735.678 1973.46,932.909 1973.98,932.938 1974.5,87.9763 1975.02,88.1911 1975.54,836.084 1976.05,836.144 1976.57,676.085 1977.09,676.143 1977.61,877.765 1978.13,877.855 1978.65,626.217 1979.16,626.353 1979.68,928.193 1980.2,928.231 1980.72,657.078 1981.24,657.225 1981.75,806.78 1982.27,806.827 1982.79,720.084 1983.31,720.152 1983.83,691.514 1984.35,691.569 1984.86,752.463 1985.38,752.527 1985.9,819.178 1986.42,819.229 1986.94,825.343 1987.45,825.435 1987.97,1034.1 1988.49,1034.19 1989.01,963.131 1989.53,963.185 1990.05,818.223 1990.56,818.256 1991.08,971.677 1991.6,971.725 1992.12,976.355 1992.64,976.41 1993.15,944.119 1993.67,944.202 1994.19,842.12 1994.71,842.155 1995.23,910.993 1995.74,911.054 1996.26,688.593 1996.78,688.626 1997.3,919.801 1997.82,919.834 1998.34,758.238 1998.85,758.279 1999.37,839.634 1999.89,839.68 2000.41,785.77 2000.93,785.807 2001.44,835.593 2001.96,835.662 2002.48,956.169 2003,956.249 2003.52,944.67 2004.04,944.876 2004.55,845.961 2005.07,846.102 2005.59,863.779 2006.11,863.844 2006.63,892.485 2007.14,892.526 2007.66,698.676 2008.18,698.716 2008.7,812.815 2009.22,812.84 2009.74,845.13 2010.25,845.149 2010.77,852.594 2011.29,852.622 2011.81,930.782 2012.33,930.815 2012.84,747.056 2013.36,747.122 2013.88,688.812 2014.4,688.865 2014.92,930.939 2015.43,930.991 2015.95,887.09 2016.47,887.161 2016.99,733.643 2017.51,733.706 2018.03,890.003 2018.54,890.043 2019.06,735.618 2019.58,735.665 2020.1,705.696 2020.62,705.749 2021.13,853.014 2021.65,853.086 2022.17,898.037 2022.69,898.066 2023.21,581.564 2023.73,581.625 2024.24,819.327 2024.76,819.356 2025.28,1017.32 2025.8,1017.41 2026.32,943.664 2026.83,943.702 2027.35,912.904 2027.87,913.067 2028.39,956.726 2028.91,956.784 2029.43,773.722 2029.94,773.777 2030.46,792.437 2030.98,792.48 2031.5,696.375 2032.02,696.425 2032.53,908.864 2033.05,908.895 2033.57,911.342 2034.09,911.372 2034.61,1029.82 2035.12,1029.89 2035.64,851.672 2036.16,851.716 2036.68,831.532 2037.2,831.595 2037.72,705.702 2038.23,705.8 2038.75,728.985 2039.27,729.045 2039.79,813.139 2040.31,813.221 2040.82,943.166 2041.34,943.308 2041.86,812.684 2042.38,812.715 2042.9,877.12 2043.42,877.152 2043.93,545.676 2044.45,545.772 2044.97,969.647 2045.49,969.697 2046.01,450.815 2046.52,450.983 2047.04,819.052 2047.56,819.117 2048.08,946.3 2048.6,946.331 2049.12,1027.61 2049.63,1027.64 2050.15,893.565 2050.67,893.628 2051.19,831.135 2051.71,831.173 2052.22,810.266 2052.74,810.292 2053.26,916.291 2053.78,916.361 2054.3,903.97 2054.81,904.003 2055.33,1024.07 2055.85,1024.19 2056.37,860.435 2056.89,860.497 2057.41,915.551 2057.92,915.625 2058.44,739.986 2058.96,740.071 2059.48,813.748 2060,813.796 2060.51,862.921 2061.03,862.96 2061.55,641.419 2062.07,641.47 2062.59,696.588 2063.11,696.708 2063.62,519.101 2064.14,519.291 2064.66,838.006 2065.18,838.027 2065.7,769.391 2066.21,769.422 2066.73,717.846 2067.25,717.934 2067.77,937.942 2068.29,938.047 2068.81,731.387 2069.32,731.464 2069.84,592.282 2070.36,592.343 2070.88,869.549 2071.4,869.633 2071.91,1000.41 2072.43,1000.46 2072.95,810.35 2073.47,810.375 2073.99,1012.61 2074.5,1012.69 2075.02,554.518 2075.54,554.615 2076.06,906.834 2076.58,906.958 2077.1,865.893 2077.61,865.928 2078.13,690.801 2078.65,690.882 2079.17,1016.08 2079.69,1016.11 2080.2,778.318 2080.72,778.383 2081.24,916.318 2081.76,916.38 2082.28,941.56 2082.8,941.616 2083.31,926.201 2083.83,926.214 2084.35,876.633 2084.87,876.672 2085.39,988.233 2085.9,988.315 2086.42,988.855 2086.94,988.985 2087.46,883.805 2087.98,883.842 2088.5,973.48 2089.01,973.521 2089.53,674.688 2090.05,674.766 2090.57,778.067 2091.09,778.099 2091.6,874.941 2092.12,875.063 2092.64,950.367 2093.16,950.425 2093.68,673.298 2094.19,673.339 2094.71,1070.21 2095.23,1070.34 2095.75,919.817 2096.27,919.84 2096.79,1010.51 2097.3,1010.52 2097.82,801.218 2098.34,801.244 2098.86,775.923 2099.38,775.994 2099.89,884.062 2100.41,884.116 2100.93,724.071 2101.45,724.127 2101.97,911.089 2102.49,911.106 2103,871.009 2103.52,871.058 2104.04,764.373 2104.56,764.442 2105.08,811.26 2105.59,811.382 2106.11,904.222 2106.63,904.268 2107.15,962.715 2107.67,962.794 2108.19,819.571 2108.7,819.672 2109.22,897.648 2109.74,897.671 2110.26,647.881 2110.78,647.945 2111.29,669.59 2111.81,669.653 2112.33,916.273 2112.85,916.295 2113.37,854.297 2113.88,854.383 2114.4,775.197 2114.92,775.255 2115.44,703.274 2115.96,703.369 2116.48,643.871 2116.99,643.938 2117.51,681.568 2118.03,681.633 2118.55,843.674 2119.07,843.726 2119.58,1048.57 2120.1,1048.66 2120.62,643.041 2121.14,643.155 2121.66,572.023 2122.18,572.128 2122.69,926.171 2123.21,926.227 2123.73,855.343 2124.25,855.388 2124.77,903.719 2125.28,903.773 2125.8,1022.89 2126.32,1022.97 2126.84,876.298 2127.36,876.347 2127.88,919.621 2128.39,919.655 2128.91,935.803 2129.43,935.856 2129.95,961.537 2130.47,961.588 2130.98,875.521 2131.5,875.558 2132.02,952.47 2132.54,952.552 2133.06,938.999 2133.57,939.041 2134.09,819.733 2134.61,819.779 2135.13,875.11 2135.65,875.158 2136.17,844.175 2136.68,844.219 2137.2,994.708 2137.72,994.745 2138.24,850.26 2138.76,850.287 2139.27,952.435 2139.79,952.463 2140.31,652.518 2140.83,652.574 2141.35,810.804 2141.87,810.828 2142.38,549.229 2142.9,549.367 2143.42,1081.32 2143.94,1081.41 2144.46,928.37 2144.97,928.423 2145.49,1060.68 2146.01,1060.74 2146.53,896.354 2147.05,896.398 2147.57,832.548 2148.08,832.626 2148.6,1039.56 2149.12,1039.64 2149.64,708.017 2150.16,708.059 2150.67,800.021 2151.19,800.066 2151.71,930.374 2152.23,930.392 2152.75,1007.62 2153.26,1007.63 2153.78,1010.26 2154.3,1010.33 2154.82,828.706 2155.34,828.758 2155.86,922.997 2156.37,923.025 2156.89,784.802 2157.41,784.843 2157.93,749.701 2158.45,749.74 2158.96,846.514 2159.48,846.591 2160,790.831 2160.52,790.866 2161.04,841.843 2161.56,841.909 2162.07,907.426 2162.59,907.489 2163.11,844.371 2163.63,844.411 2164.15,1034.5 2164.66,1034.52 2165.18,724.291 2165.7,724.374 2166.22,924.893 2166.74,924.964 2167.26,706.878 2167.77,706.946 2168.29,814.887 2168.81,814.954 2169.33,794.323 2169.85,794.422 2170.36,969.997 2170.88,970.043 2171.4,722.221 2171.92,722.27 2172.44,816.133 2172.95,816.186 2173.47,814.839 2173.99,814.872 2174.51,912.165 2175.03,912.34 2175.55,1025.38 2176.06,1025.49 2176.58,907.8 2177.1,907.866 2177.62,832.224 2178.14,832.252 2178.65,943.988 2179.17,944.03 2179.69,833.883 2180.21,833.932 2180.73,826.783 2181.25,826.811 2181.76,878.632 2182.28,878.699 2182.8,830.245 2183.32,830.274 2183.84,778.126 2184.35,778.209 2184.87,616.145 2185.39,616.175 2185.91,692.937 2186.43,692.974 2186.95,938.607 2187.46,938.637 2187.98,820.885 2188.5,821.004 2189.02,912.135 2189.54,912.209 2190.05,841.729 2190.57,841.778 2191.09,981.46 2191.61,981.532 2192.13,766.617 2192.65,766.683 2193.16,883.936 2193.68,883.977 2194.2,740.748 2194.72,740.788 2195.24,871.105 2195.75,871.181 2196.27,871.378 2196.79,871.456 2197.31,982.435 2197.83,982.491 2198.34,891.705 2198.86,891.732 2199.38,612.95 2199.9,613.007 2200.42,498.358 2200.94,498.432 2201.45,875.385 2201.97,875.445 2202.49,778.381 2203.01,778.433 2203.53,746.841 2204.04,746.878 2204.56,968.251 2205.08,968.299 2205.6,959.875 2206.12,959.898 2206.64,789.817 2207.15,789.851 2207.67,747.825 2208.19,747.866 2208.71,866.602 2209.23,866.629 2209.74,827.36 2210.26,827.39 2210.78,760.868 2211.3,760.934 2211.82,844.575 2212.34,844.602 2212.85,726.268 2213.37,726.312 2213.89,742.571 2214.41,742.611 2214.93,1013.52 2215.44,1013.57 2215.96,787.59 2216.48,787.635 2217,825.085 2217.52,825.125 2218.03,705.893 2218.55,705.927 2219.07,807.758 2219.59,807.793 2220.11,958.077 2220.63,958.156 2221.14,764.97 2221.66,765.001 2222.18,853.762 2222.7,853.823 2223.22,859.687 2223.73,859.708 2224.25,804.868 2224.77,804.896 2225.29,710.715 2225.81,710.751 2226.33,856.431 2226.84,856.492 2227.36,896.378 2227.88,896.527 2228.4,964.909 2228.92,964.968 2229.43,902.601 2229.95,902.666 2230.47,970.928 2230.99,971.04 2231.51,819.158 2232.03,819.196 2232.54,775.394 2233.06,775.435 2233.58,739.472 2234.1,739.567 2234.62,739.695 2235.13,739.772 2235.65,675.532 2236.17,675.593 2236.69,727.968 2237.21,728.078 2237.72,957.733 2238.24,957.764 2238.76,888.414 2239.28,888.452 2239.8,958.239 2240.32,958.286 2240.83,884.949 2241.35,885.034 2241.87,926.27 2242.39,926.3 2242.91,692.168 2243.42,692.269 2243.94,733.236 2244.46,733.271 2244.98,652.221 2245.5,652.286 2246.02,828.866 2246.53,828.894 2247.05,855.312 2247.57,855.372 2248.09,837.728 2248.61,837.768 2249.12,781.488 2249.64,781.558 2250.16,632.744 2250.68,632.797 2251.2,1002.19 2251.72,1002.23 2252.23,690.875 2252.75,690.901 2253.27,696.524 2253.79,696.56 2254.31,924.178 2254.82,924.224 2255.34,734.184 2255.86,734.213 2256.38,902.555 2256.9,902.63 2257.41,780.272 2257.93,780.3 2258.45,993.149 2258.97,993.243 2259.49,905.168 2260.01,905.223 2260.52,928.541 2261.04,928.683 2261.56,855.926 2262.08,855.962 2262.6,887.292 2263.11,887.358 2263.63,685.445 2264.15,685.503 2264.67,896.348 2265.19,896.439 2265.71,955.087 2266.22,955.124 2266.74,760.033 2267.26,760.063 2267.78,669.614 2268.3,669.649 2268.81,832.251 2269.33,832.304 2269.85,754.907 2270.37,754.939 2270.89,685.516 2271.41,685.598 2271.92,921.01 2272.44,921.026 2272.96,851.414 2273.48,851.461 2274,761.582 2274.51,761.693 2275.03,842.071 2275.55,842.105 2276.07,885.487 2276.59,885.548 2277.1,416.437 2277.62,416.637 2278.14,812.895 2278.66,812.908 2279.18,839.957 2279.7,839.976 2280.21,1024.14 2280.73,1024.2 2281.25,906.228 2281.77,906.259 2282.29,948.309 2282.8,948.459 2283.32,1046.29 2283.84,1046.34 2284.36,752.369 2284.88,752.399 2285.4,722.774 2285.91,722.811 2286.43,738.391 2286.95,738.445 2287.47,895.13 2287.99,895.213 2288.5,917.291 2289.02,917.382 2289.54,798.853 2290.06,798.896 2290.58,798.939 "/>
<path clip-path="url(#clip960)" d="M228.998 198.898 L501.127 198.898 L501.127 95.2176 L228.998 95.2176  Z" fill="#ffffff" fill-rule="evenodd" fill-opacity="1"/>
<polyline clip-path="url(#clip960)" style="stroke:#000000; stroke-linecap:round; stroke-linejoin:round; stroke-width:4; stroke-opacity:1; fill:none" points="228.998,198.898 501.127,198.898 501.127,95.2176 228.998,95.2176 228.998,198.898 "/>
<polyline clip-path="url(#clip960)" style="stroke:#009af9; stroke-linecap:round; stroke-linejoin:round; stroke-width:4; stroke-opacity:1; fill:none" points="253.409,147.058 399.875,147.058 "/>
<path clip-path="url(#clip960)" d="M438.129 166.745 Q436.323 171.375 434.61 172.787 Q432.897 174.199 430.027 174.199 L426.624 174.199 L426.624 170.634 L429.124 170.634 Q430.883 170.634 431.855 169.8 Q432.828 168.967 434.008 165.865 L434.772 163.921 L424.286 138.412 L428.8 138.412 L436.902 158.689 L445.004 138.412 L449.517 138.412 L438.129 166.745 Z" fill="#000000" fill-rule="nonzero" fill-opacity="1" /><path clip-path="url(#clip960)" d="M456.809 160.402 L464.448 160.402 L464.448 134.037 L456.138 135.703 L456.138 131.444 L464.402 129.778 L469.077 129.778 L469.077 160.402 L476.716 160.402 L476.716 164.338 L456.809 164.338 L456.809 160.402 Z" fill="#000000" fill-rule="nonzero" fill-opacity="1" /></svg>
