<?xml version="1.0" encoding="utf-8"?>
<svg xmlns="http://www.w3.org/2000/svg" xmlns:xlink="http://www.w3.org/1999/xlink" width="600" height="400" viewBox="0 0 2400 1600">
<defs>
  <clipPath id="clip620">
    <rect x="0" y="0" width="2400" height="1600"/>
  </clipPath>
</defs>
<path clip-path="url(#clip620)" d="M0 1600 L2400 1600 L2400 0 L0 0  Z" fill="#ffffff" fill-rule="evenodd" fill-opacity="1"/>
<defs>
  <clipPath id="clip621">
    <rect x="480" y="0" width="1681" height="1600"/>
  </clipPath>
</defs>
<path clip-path="url(#clip620)" d="M156.274 1486.45 L2352.76 1486.45 L2352.76 47.2441 L156.274 47.2441  Z" fill="#ffffff" fill-rule="evenodd" fill-opacity="1"/>
<defs>
  <clipPath id="clip622">
    <rect x="156" y="47" width="2197" height="1440"/>
  </clipPath>
</defs>
<polyline clip-path="url(#clip622)" style="stroke:#000000; stroke-linecap:round; stroke-linejoin:round; stroke-width:2; stroke-opacity:0.1; fill:none" points="218.439,1486.45 218.439,47.2441 "/>
<polyline clip-path="url(#clip622)" style="stroke:#000000; stroke-linecap:round; stroke-linejoin:round; stroke-width:2; stroke-opacity:0.1; fill:none" points="736.995,1486.45 736.995,47.2441 "/>
<polyline clip-path="url(#clip622)" style="stroke:#000000; stroke-linecap:round; stroke-linejoin:round; stroke-width:2; stroke-opacity:0.1; fill:none" points="1255.55,1486.45 1255.55,47.2441 "/>
<polyline clip-path="url(#clip622)" style="stroke:#000000; stroke-linecap:round; stroke-linejoin:round; stroke-width:2; stroke-opacity:0.1; fill:none" points="1774.11,1486.45 1774.11,47.2441 "/>
<polyline clip-path="url(#clip622)" style="stroke:#000000; stroke-linecap:round; stroke-linejoin:round; stroke-width:2; stroke-opacity:0.1; fill:none" points="2292.67,1486.45 2292.67,47.2441 "/>
<polyline clip-path="url(#clip620)" style="stroke:#000000; stroke-linecap:round; stroke-linejoin:round; stroke-width:4; stroke-opacity:1; fill:none" points="156.274,1486.45 2352.76,1486.45 "/>
<polyline clip-path="url(#clip620)" style="stroke:#000000; stroke-linecap:round; stroke-linejoin:round; stroke-width:4; stroke-opacity:1; fill:none" points="218.439,1486.45 218.439,1467.55 "/>
<polyline clip-path="url(#clip620)" style="stroke:#000000; stroke-linecap:round; stroke-linejoin:round; stroke-width:4; stroke-opacity:1; fill:none" points="736.995,1486.45 736.995,1467.55 "/>
<polyline clip-path="url(#clip620)" style="stroke:#000000; stroke-linecap:round; stroke-linejoin:round; stroke-width:4; stroke-opacity:1; fill:none" points="1255.55,1486.45 1255.55,1467.55 "/>
<polyline clip-path="url(#clip620)" style="stroke:#000000; stroke-linecap:round; stroke-linejoin:round; stroke-width:4; stroke-opacity:1; fill:none" points="1774.11,1486.45 1774.11,1467.55 "/>
<polyline clip-path="url(#clip620)" style="stroke:#000000; stroke-linecap:round; stroke-linejoin:round; stroke-width:4; stroke-opacity:1; fill:none" points="2292.67,1486.45 2292.67,1467.55 "/>
<path clip-path="url(#clip620)" d="M218.439 1517.37 Q214.828 1517.37 212.999 1520.93 Q211.193 1524.47 211.193 1531.6 Q211.193 1538.71 212.999 1542.27 Q214.828 1545.82 218.439 1545.82 Q222.073 1545.82 223.879 1542.27 Q225.707 1538.71 225.707 1531.6 Q225.707 1524.47 223.879 1520.93 Q222.073 1517.37 218.439 1517.37 M218.439 1513.66 Q224.249 1513.66 227.304 1518.27 Q230.383 1522.85 230.383 1531.6 Q230.383 1540.33 227.304 1544.94 Q224.249 1549.52 218.439 1549.52 Q212.629 1549.52 209.55 1544.94 Q206.494 1540.33 206.494 1531.6 Q206.494 1522.85 209.55 1518.27 Q212.629 1513.66 218.439 1513.66 Z" fill="#000000" fill-rule="nonzero" fill-opacity="1" /><path clip-path="url(#clip620)" d="M700.688 1544.91 L717.007 1544.91 L717.007 1548.85 L695.063 1548.85 L695.063 1544.91 Q697.725 1542.16 702.308 1537.53 Q706.915 1532.88 708.095 1531.53 Q710.34 1529.01 711.22 1527.27 Q712.123 1525.51 712.123 1523.82 Q712.123 1521.07 710.178 1519.33 Q708.257 1517.6 705.155 1517.6 Q702.956 1517.6 700.503 1518.36 Q698.072 1519.13 695.294 1520.68 L695.294 1515.95 Q698.118 1514.82 700.572 1514.24 Q703.026 1513.66 705.063 1513.66 Q710.433 1513.66 713.628 1516.35 Q716.822 1519.03 716.822 1523.52 Q716.822 1525.65 716.012 1527.57 Q715.225 1529.47 713.118 1532.07 Q712.54 1532.74 709.438 1535.95 Q706.336 1539.15 700.688 1544.91 Z" fill="#000000" fill-rule="nonzero" fill-opacity="1" /><path clip-path="url(#clip620)" d="M726.868 1514.29 L745.225 1514.29 L745.225 1518.22 L731.151 1518.22 L731.151 1526.7 Q732.169 1526.35 733.188 1526.19 Q734.206 1526 735.225 1526 Q741.012 1526 744.391 1529.17 Q747.771 1532.34 747.771 1537.76 Q747.771 1543.34 744.299 1546.44 Q740.826 1549.52 734.507 1549.52 Q732.331 1549.52 730.063 1549.15 Q727.817 1548.78 725.41 1548.04 L725.41 1543.34 Q727.493 1544.47 729.715 1545.03 Q731.938 1545.58 734.414 1545.58 Q738.419 1545.58 740.757 1543.48 Q743.095 1541.37 743.095 1537.76 Q743.095 1534.15 740.757 1532.04 Q738.419 1529.94 734.414 1529.94 Q732.539 1529.94 730.664 1530.35 Q728.813 1530.77 726.868 1531.65 L726.868 1514.29 Z" fill="#000000" fill-rule="nonzero" fill-opacity="1" /><path clip-path="url(#clip620)" d="M766.984 1517.37 Q763.373 1517.37 761.544 1520.93 Q759.738 1524.47 759.738 1531.6 Q759.738 1538.71 761.544 1542.27 Q763.373 1545.82 766.984 1545.82 Q770.618 1545.82 772.423 1542.27 Q774.252 1538.71 774.252 1531.6 Q774.252 1524.47 772.423 1520.93 Q770.618 1517.37 766.984 1517.37 M766.984 1513.66 Q772.794 1513.66 775.849 1518.27 Q778.928 1522.85 778.928 1531.6 Q778.928 1540.33 775.849 1544.94 Q772.794 1549.52 766.984 1549.52 Q761.174 1549.52 758.095 1544.94 Q755.039 1540.33 755.039 1531.6 Q755.039 1522.85 758.095 1518.27 Q761.174 1513.66 766.984 1513.66 Z" fill="#000000" fill-rule="nonzero" fill-opacity="1" /><path clip-path="url(#clip620)" d="M1215.17 1514.29 L1233.53 1514.29 L1233.53 1518.22 L1219.45 1518.22 L1219.45 1526.7 Q1220.47 1526.35 1221.49 1526.19 Q1222.51 1526 1223.53 1526 Q1229.31 1526 1232.69 1529.17 Q1236.07 1532.34 1236.07 1537.76 Q1236.07 1543.34 1232.6 1546.44 Q1229.13 1549.52 1222.81 1549.52 Q1220.63 1549.52 1218.36 1549.15 Q1216.12 1548.78 1213.71 1548.04 L1213.71 1543.34 Q1215.8 1544.47 1218.02 1545.03 Q1220.24 1545.58 1222.72 1545.58 Q1226.72 1545.58 1229.06 1543.48 Q1231.4 1541.37 1231.4 1537.76 Q1231.4 1534.15 1229.06 1532.04 Q1226.72 1529.94 1222.72 1529.94 Q1220.84 1529.94 1218.97 1530.35 Q1217.11 1530.77 1215.17 1531.65 L1215.17 1514.29 Z" fill="#000000" fill-rule="nonzero" fill-opacity="1" /><path clip-path="url(#clip620)" d="M1255.29 1517.37 Q1251.67 1517.37 1249.85 1520.93 Q1248.04 1524.47 1248.04 1531.6 Q1248.04 1538.71 1249.85 1542.27 Q1251.67 1545.82 1255.29 1545.82 Q1258.92 1545.82 1260.73 1542.27 Q1262.55 1538.71 1262.55 1531.6 Q1262.55 1524.47 1260.73 1520.93 Q1258.92 1517.37 1255.29 1517.37 M1255.29 1513.66 Q1261.1 1513.66 1264.15 1518.27 Q1267.23 1522.85 1267.23 1531.6 Q1267.23 1540.33 1264.15 1544.94 Q1261.1 1549.52 1255.29 1549.52 Q1249.48 1549.52 1246.4 1544.94 Q1243.34 1540.33 1243.34 1531.6 Q1243.34 1522.85 1246.4 1518.27 Q1249.48 1513.66 1255.29 1513.66 Z" fill="#000000" fill-rule="nonzero" fill-opacity="1" /><path clip-path="url(#clip620)" d="M1285.45 1517.37 Q1281.84 1517.37 1280.01 1520.93 Q1278.2 1524.47 1278.2 1531.6 Q1278.2 1538.71 1280.01 1542.27 Q1281.84 1545.82 1285.45 1545.82 Q1289.08 1545.82 1290.89 1542.27 Q1292.72 1538.71 1292.72 1531.6 Q1292.72 1524.47 1290.89 1520.93 Q1289.08 1517.37 1285.45 1517.37 M1285.45 1513.66 Q1291.26 1513.66 1294.31 1518.27 Q1297.39 1522.85 1297.39 1531.6 Q1297.39 1540.33 1294.31 1544.94 Q1291.26 1549.52 1285.45 1549.52 Q1279.64 1549.52 1276.56 1544.94 Q1273.5 1540.33 1273.5 1531.6 Q1273.5 1522.85 1276.56 1518.27 Q1279.64 1513.66 1285.45 1513.66 Z" fill="#000000" fill-rule="nonzero" fill-opacity="1" /><path clip-path="url(#clip620)" d="M1732.38 1514.29 L1754.61 1514.29 L1754.61 1516.28 L1742.06 1548.85 L1737.18 1548.85 L1748.98 1518.22 L1732.38 1518.22 L1732.38 1514.29 Z" fill="#000000" fill-rule="nonzero" fill-opacity="1" /><path clip-path="url(#clip620)" d="M1763.77 1514.29 L1782.13 1514.29 L1782.13 1518.22 L1768.06 1518.22 L1768.06 1526.7 Q1769.07 1526.35 1770.09 1526.19 Q1771.11 1526 1772.13 1526 Q1777.92 1526 1781.3 1529.17 Q1784.68 1532.34 1784.68 1537.76 Q1784.68 1543.34 1781.2 1546.44 Q1777.73 1549.52 1771.41 1549.52 Q1769.24 1549.52 1766.97 1549.15 Q1764.72 1548.78 1762.31 1548.04 L1762.31 1543.34 Q1764.4 1544.47 1766.62 1545.03 Q1768.84 1545.58 1771.32 1545.58 Q1775.32 1545.58 1777.66 1543.48 Q1780 1541.37 1780 1537.76 Q1780 1534.15 1777.66 1532.04 Q1775.32 1529.94 1771.32 1529.94 Q1769.44 1529.94 1767.57 1530.35 Q1765.72 1530.77 1763.77 1531.65 L1763.77 1514.29 Z" fill="#000000" fill-rule="nonzero" fill-opacity="1" /><path clip-path="url(#clip620)" d="M1803.89 1517.37 Q1800.28 1517.37 1798.45 1520.93 Q1796.64 1524.47 1796.64 1531.6 Q1796.64 1538.71 1798.45 1542.27 Q1800.28 1545.82 1803.89 1545.82 Q1807.52 1545.82 1809.33 1542.27 Q1811.16 1538.71 1811.16 1531.6 Q1811.16 1524.47 1809.33 1520.93 Q1807.52 1517.37 1803.89 1517.37 M1803.89 1513.66 Q1809.7 1513.66 1812.75 1518.27 Q1815.83 1522.85 1815.83 1531.6 Q1815.83 1540.33 1812.75 1544.94 Q1809.7 1549.52 1803.89 1549.52 Q1798.08 1549.52 1795 1544.94 Q1791.94 1540.33 1791.94 1531.6 Q1791.94 1522.85 1795 1518.27 Q1798.08 1513.66 1803.89 1513.66 Z" fill="#000000" fill-rule="nonzero" fill-opacity="1" /><path clip-path="url(#clip620)" d="M2237.19 1544.91 L2244.83 1544.91 L2244.83 1518.55 L2236.52 1520.21 L2236.52 1515.95 L2244.78 1514.29 L2249.46 1514.29 L2249.46 1544.91 L2257.1 1544.91 L2257.1 1548.85 L2237.19 1548.85 L2237.19 1544.91 Z" fill="#000000" fill-rule="nonzero" fill-opacity="1" /><path clip-path="url(#clip620)" d="M2276.54 1517.37 Q2272.93 1517.37 2271.1 1520.93 Q2269.3 1524.47 2269.3 1531.6 Q2269.3 1538.71 2271.1 1542.27 Q2272.93 1545.82 2276.54 1545.82 Q2280.18 1545.82 2281.98 1542.27 Q2283.81 1538.71 2283.81 1531.6 Q2283.81 1524.47 2281.98 1520.93 Q2280.18 1517.37 2276.54 1517.37 M2276.54 1513.66 Q2282.35 1513.66 2285.41 1518.27 Q2288.49 1522.85 2288.49 1531.6 Q2288.49 1540.33 2285.41 1544.94 Q2282.35 1549.52 2276.54 1549.52 Q2270.73 1549.52 2267.65 1544.94 Q2264.6 1540.33 2264.6 1531.6 Q2264.6 1522.85 2267.65 1518.27 Q2270.73 1513.66 2276.54 1513.66 Z" fill="#000000" fill-rule="nonzero" fill-opacity="1" /><path clip-path="url(#clip620)" d="M2306.7 1517.37 Q2303.09 1517.37 2301.27 1520.93 Q2299.46 1524.47 2299.46 1531.6 Q2299.46 1538.71 2301.27 1542.27 Q2303.09 1545.82 2306.7 1545.82 Q2310.34 1545.82 2312.14 1542.27 Q2313.97 1538.71 2313.97 1531.6 Q2313.97 1524.47 2312.14 1520.93 Q2310.34 1517.37 2306.7 1517.37 M2306.7 1513.66 Q2312.51 1513.66 2315.57 1518.27 Q2318.65 1522.85 2318.65 1531.6 Q2318.65 1540.33 2315.57 1544.94 Q2312.51 1549.52 2306.7 1549.52 Q2300.89 1549.52 2297.82 1544.94 Q2294.76 1540.33 2294.76 1531.6 Q2294.76 1522.85 2297.82 1518.27 Q2300.89 1513.66 2306.7 1513.66 Z" fill="#000000" fill-rule="nonzero" fill-opacity="1" /><path clip-path="url(#clip620)" d="M2336.87 1517.37 Q2333.26 1517.37 2331.43 1520.93 Q2329.62 1524.47 2329.62 1531.6 Q2329.62 1538.71 2331.43 1542.27 Q2333.26 1545.82 2336.87 1545.82 Q2340.5 1545.82 2342.31 1542.27 Q2344.14 1538.71 2344.14 1531.6 Q2344.14 1524.47 2342.31 1520.93 Q2340.5 1517.37 2336.87 1517.37 M2336.87 1513.66 Q2342.68 1513.66 2345.73 1518.27 Q2348.81 1522.85 2348.81 1531.6 Q2348.81 1540.33 2345.73 1544.94 Q2342.68 1549.52 2336.87 1549.52 Q2331.06 1549.52 2327.98 1544.94 Q2324.92 1540.33 2324.92 1531.6 Q2324.92 1522.85 2327.98 1518.27 Q2331.06 1513.66 2336.87 1513.66 Z" fill="#000000" fill-rule="nonzero" fill-opacity="1" /><polyline clip-path="url(#clip622)" style="stroke:#000000; stroke-linecap:round; stroke-linejoin:round; stroke-width:2; stroke-opacity:0.1; fill:none" points="156.274,1445.72 2352.76,1445.72 "/>
<polyline clip-path="url(#clip622)" style="stroke:#000000; stroke-linecap:round; stroke-linejoin:round; stroke-width:2; stroke-opacity:0.1; fill:none" points="156.274,1174.17 2352.76,1174.17 "/>
<polyline clip-path="url(#clip622)" style="stroke:#000000; stroke-linecap:round; stroke-linejoin:round; stroke-width:2; stroke-opacity:0.1; fill:none" points="156.274,902.62 2352.76,902.62 "/>
<polyline clip-path="url(#clip622)" style="stroke:#000000; stroke-linecap:round; stroke-linejoin:round; stroke-width:2; stroke-opacity:0.1; fill:none" points="156.274,631.072 2352.76,631.072 "/>
<polyline clip-path="url(#clip622)" style="stroke:#000000; stroke-linecap:round; stroke-linejoin:round; stroke-width:2; stroke-opacity:0.1; fill:none" points="156.274,359.524 2352.76,359.524 "/>
<polyline clip-path="url(#clip622)" style="stroke:#000000; stroke-linecap:round; stroke-linejoin:round; stroke-width:2; stroke-opacity:0.1; fill:none" points="156.274,87.9763 2352.76,87.9763 "/>
<polyline clip-path="url(#clip620)" style="stroke:#000000; stroke-linecap:round; stroke-linejoin:round; stroke-width:4; stroke-opacity:1; fill:none" points="156.274,1486.45 156.274,47.2441 "/>
<polyline clip-path="url(#clip620)" style="stroke:#000000; stroke-linecap:round; stroke-linejoin:round; stroke-width:4; stroke-opacity:1; fill:none" points="156.274,1445.72 175.172,1445.72 "/>
<polyline clip-path="url(#clip620)" style="stroke:#000000; stroke-linecap:round; stroke-linejoin:round; stroke-width:4; stroke-opacity:1; fill:none" points="156.274,1174.17 175.172,1174.17 "/>
<polyline clip-path="url(#clip620)" style="stroke:#000000; stroke-linecap:round; stroke-linejoin:round; stroke-width:4; stroke-opacity:1; fill:none" points="156.274,902.62 175.172,902.62 "/>
<polyline clip-path="url(#clip620)" style="stroke:#000000; stroke-linecap:round; stroke-linejoin:round; stroke-width:4; stroke-opacity:1; fill:none" points="156.274,631.072 175.172,631.072 "/>
<polyline clip-path="url(#clip620)" style="stroke:#000000; stroke-linecap:round; stroke-linejoin:round; stroke-width:4; stroke-opacity:1; fill:none" points="156.274,359.524 175.172,359.524 "/>
<polyline clip-path="url(#clip620)" style="stroke:#000000; stroke-linecap:round; stroke-linejoin:round; stroke-width:4; stroke-opacity:1; fill:none" points="156.274,87.9763 175.172,87.9763 "/>
<path clip-path="url(#clip620)" d="M64.0939 1431.51 Q60.4828 1431.51 58.6541 1435.08 Q56.8486 1438.62 56.8486 1445.75 Q56.8486 1452.86 58.6541 1456.42 Q60.4828 1459.96 64.0939 1459.96 Q67.7281 1459.96 69.5337 1456.42 Q71.3624 1452.86 71.3624 1445.75 Q71.3624 1438.62 69.5337 1435.08 Q67.7281 1431.51 64.0939 1431.51 M64.0939 1427.81 Q69.9041 1427.81 72.9596 1432.42 Q76.0383 1437 76.0383 1445.75 Q76.0383 1454.48 72.9596 1459.08 Q69.9041 1463.67 64.0939 1463.67 Q58.2838 1463.67 55.2051 1459.08 Q52.1495 1454.48 52.1495 1445.75 Q52.1495 1437 55.2051 1432.42 Q58.2838 1427.81 64.0939 1427.81 Z" fill="#000000" fill-rule="nonzero" fill-opacity="1" /><path clip-path="url(#clip620)" d="M84.2558 1457.12 L89.1401 1457.12 L89.1401 1463 L84.2558 1463 L84.2558 1457.12 Z" fill="#000000" fill-rule="nonzero" fill-opacity="1" /><path clip-path="url(#clip620)" d="M99.3715 1428.44 L117.728 1428.44 L117.728 1432.37 L103.654 1432.37 L103.654 1440.84 Q104.672 1440.5 105.691 1440.33 Q106.709 1440.15 107.728 1440.15 Q113.515 1440.15 116.895 1443.32 Q120.274 1446.49 120.274 1451.91 Q120.274 1457.49 116.802 1460.59 Q113.33 1463.67 107.01 1463.67 Q104.834 1463.67 102.566 1463.3 Q100.321 1462.93 97.9132 1462.19 L97.9132 1457.49 Q99.9965 1458.62 102.219 1459.18 Q104.441 1459.73 106.918 1459.73 Q110.922 1459.73 113.26 1457.63 Q115.598 1455.52 115.598 1451.91 Q115.598 1448.3 113.26 1446.19 Q110.922 1444.08 106.918 1444.08 Q105.043 1444.08 103.168 1444.5 Q101.316 1444.92 99.3715 1445.8 L99.3715 1428.44 Z" fill="#000000" fill-rule="nonzero" fill-opacity="1" /><path clip-path="url(#clip620)" d="M62.9365 1159.97 Q59.3254 1159.97 57.4967 1163.53 Q55.6912 1167.07 55.6912 1174.2 Q55.6912 1181.31 57.4967 1184.87 Q59.3254 1188.42 62.9365 1188.42 Q66.5707 1188.42 68.3763 1184.87 Q70.205 1181.31 70.205 1174.2 Q70.205 1167.07 68.3763 1163.53 Q66.5707 1159.97 62.9365 1159.97 M62.9365 1156.26 Q68.7467 1156.26 71.8022 1160.87 Q74.8809 1165.45 74.8809 1174.2 Q74.8809 1182.93 71.8022 1187.54 Q68.7467 1192.12 62.9365 1192.12 Q57.1264 1192.12 54.0477 1187.54 Q50.9921 1182.93 50.9921 1174.2 Q50.9921 1165.45 54.0477 1160.87 Q57.1264 1156.26 62.9365 1156.26 Z" fill="#000000" fill-rule="nonzero" fill-opacity="1" /><path clip-path="url(#clip620)" d="M83.0984 1185.57 L87.9827 1185.57 L87.9827 1191.45 L83.0984 1191.45 L83.0984 1185.57 Z" fill="#000000" fill-rule="nonzero" fill-opacity="1" /><path clip-path="url(#clip620)" d="M108.746 1172.3 Q105.598 1172.3 103.746 1174.46 Q101.918 1176.61 101.918 1180.36 Q101.918 1184.09 103.746 1186.26 Q105.598 1188.42 108.746 1188.42 Q111.895 1188.42 113.723 1186.26 Q115.575 1184.09 115.575 1180.36 Q115.575 1176.61 113.723 1174.46 Q111.895 1172.3 108.746 1172.3 M118.029 1157.65 L118.029 1161.91 Q116.27 1161.08 114.464 1160.64 Q112.682 1160.2 110.922 1160.2 Q106.293 1160.2 103.839 1163.32 Q101.409 1166.45 101.061 1172.77 Q102.427 1170.75 104.487 1169.69 Q106.547 1168.6 109.024 1168.6 Q114.233 1168.6 117.242 1171.77 Q120.274 1174.92 120.274 1180.36 Q120.274 1185.68 117.126 1188.9 Q113.978 1192.12 108.746 1192.12 Q102.751 1192.12 99.5798 1187.54 Q96.4085 1182.93 96.4085 1174.2 Q96.4085 1166.01 100.297 1161.15 Q104.186 1156.26 110.737 1156.26 Q112.496 1156.26 114.279 1156.61 Q116.084 1156.96 118.029 1157.65 Z" fill="#000000" fill-rule="nonzero" fill-opacity="1" /><path clip-path="url(#clip620)" d="M64.0013 888.419 Q60.3902 888.419 58.5615 891.983 Q56.756 895.525 56.756 902.655 Q56.756 909.761 58.5615 913.326 Q60.3902 916.868 64.0013 916.868 Q67.6356 916.868 69.4411 913.326 Q71.2698 909.761 71.2698 902.655 Q71.2698 895.525 69.4411 891.983 Q67.6356 888.419 64.0013 888.419 M64.0013 884.715 Q69.8115 884.715 72.867 889.321 Q75.9457 893.905 75.9457 902.655 Q75.9457 911.381 72.867 915.988 Q69.8115 920.571 64.0013 920.571 Q58.1912 920.571 55.1125 915.988 Q52.0569 911.381 52.0569 902.655 Q52.0569 893.905 55.1125 889.321 Q58.1912 884.715 64.0013 884.715 Z" fill="#000000" fill-rule="nonzero" fill-opacity="1" /><path clip-path="url(#clip620)" d="M84.1632 914.02 L89.0475 914.02 L89.0475 919.9 L84.1632 919.9 L84.1632 914.02 Z" fill="#000000" fill-rule="nonzero" fill-opacity="1" /><path clip-path="url(#clip620)" d="M98.0521 885.34 L120.274 885.34 L120.274 887.331 L107.728 919.9 L102.844 919.9 L114.649 889.275 L98.0521 889.275 L98.0521 885.34 Z" fill="#000000" fill-rule="nonzero" fill-opacity="1" /><path clip-path="url(#clip620)" d="M63.1911 616.871 Q59.58 616.871 57.7513 620.436 Q55.9458 623.977 55.9458 631.107 Q55.9458 638.213 57.7513 641.778 Q59.58 645.32 63.1911 645.32 Q66.8254 645.32 68.6309 641.778 Q70.4596 638.213 70.4596 631.107 Q70.4596 623.977 68.6309 620.436 Q66.8254 616.871 63.1911 616.871 M63.1911 613.167 Q69.0013 613.167 72.0568 617.774 Q75.1355 622.357 75.1355 631.107 Q75.1355 639.834 72.0568 644.44 Q69.0013 649.023 63.1911 649.023 Q57.381 649.023 54.3023 644.44 Q51.2468 639.834 51.2468 631.107 Q51.2468 622.357 54.3023 617.774 Q57.381 613.167 63.1911 613.167 Z" fill="#000000" fill-rule="nonzero" fill-opacity="1" /><path clip-path="url(#clip620)" d="M83.3531 642.472 L88.2373 642.472 L88.2373 648.352 L83.3531 648.352 L83.3531 642.472 Z" fill="#000000" fill-rule="nonzero" fill-opacity="1" /><path clip-path="url(#clip620)" d="M108.422 631.94 Q105.089 631.94 103.168 633.722 Q101.27 635.505 101.27 638.63 Q101.27 641.755 103.168 643.537 Q105.089 645.32 108.422 645.32 Q111.756 645.32 113.677 643.537 Q115.598 641.732 115.598 638.63 Q115.598 635.505 113.677 633.722 Q111.779 631.94 108.422 631.94 M103.746 629.949 Q100.737 629.209 99.0474 627.148 Q97.3808 625.088 97.3808 622.125 Q97.3808 617.982 100.321 615.574 Q103.284 613.167 108.422 613.167 Q113.584 613.167 116.524 615.574 Q119.464 617.982 119.464 622.125 Q119.464 625.088 117.774 627.148 Q116.108 629.209 113.121 629.949 Q116.501 630.736 118.376 633.028 Q120.274 635.32 120.274 638.63 Q120.274 643.653 117.195 646.338 Q114.14 649.023 108.422 649.023 Q102.705 649.023 99.6261 646.338 Q96.5706 643.653 96.5706 638.63 Q96.5706 635.32 98.4687 633.028 Q100.367 630.736 103.746 629.949 M102.034 622.565 Q102.034 625.25 103.7 626.755 Q105.39 628.26 108.422 628.26 Q111.432 628.26 113.121 626.755 Q114.834 625.25 114.834 622.565 Q114.834 619.88 113.121 618.375 Q111.432 616.871 108.422 616.871 Q105.39 616.871 103.7 618.375 Q102.034 619.88 102.034 622.565 Z" fill="#000000" fill-rule="nonzero" fill-opacity="1" /><path clip-path="url(#clip620)" d="M63.2837 345.323 Q59.6726 345.323 57.8439 348.888 Q56.0384 352.429 56.0384 359.559 Q56.0384 366.665 57.8439 370.23 Q59.6726 373.772 63.2837 373.772 Q66.918 373.772 68.7235 370.23 Q70.5522 366.665 70.5522 359.559 Q70.5522 352.429 68.7235 348.888 Q66.918 345.323 63.2837 345.323 M63.2837 341.619 Q69.0939 341.619 72.1494 346.226 Q75.2281 350.809 75.2281 359.559 Q75.2281 368.286 72.1494 372.892 Q69.0939 377.475 63.2837 377.475 Q57.4736 377.475 54.3949 372.892 Q51.3393 368.286 51.3393 359.559 Q51.3393 350.809 54.3949 346.226 Q57.4736 341.619 63.2837 341.619 Z" fill="#000000" fill-rule="nonzero" fill-opacity="1" /><path clip-path="url(#clip620)" d="M83.4457 370.925 L88.3299 370.925 L88.3299 376.804 L83.4457 376.804 L83.4457 370.925 Z" fill="#000000" fill-rule="nonzero" fill-opacity="1" /><path clip-path="url(#clip620)" d="M98.6539 376.087 L98.6539 371.827 Q100.413 372.661 102.219 373.1 Q104.024 373.54 105.76 373.54 Q110.39 373.54 112.82 370.438 Q115.274 367.313 115.621 360.971 Q114.279 362.962 112.219 364.026 Q110.158 365.091 107.658 365.091 Q102.473 365.091 99.4409 361.966 Q96.4317 358.818 96.4317 353.378 Q96.4317 348.054 99.5798 344.837 Q102.728 341.619 107.959 341.619 Q113.955 341.619 117.103 346.226 Q120.274 350.809 120.274 359.559 Q120.274 367.73 116.385 372.614 Q112.52 377.475 105.969 377.475 Q104.209 377.475 102.404 377.128 Q100.598 376.781 98.6539 376.087 M107.959 361.434 Q111.108 361.434 112.936 359.281 Q114.788 357.128 114.788 353.378 Q114.788 349.652 112.936 347.499 Q111.108 345.323 107.959 345.323 Q104.811 345.323 102.959 347.499 Q101.131 349.652 101.131 353.378 Q101.131 357.128 102.959 359.281 Q104.811 361.434 107.959 361.434 Z" fill="#000000" fill-rule="nonzero" fill-opacity="1" /><path clip-path="url(#clip620)" d="M53.9088 101.321 L61.5476 101.321 L61.5476 74.9555 L53.2375 76.6222 L53.2375 72.3629 L61.5013 70.6963 L66.1772 70.6963 L66.1772 101.321 L73.8161 101.321 L73.8161 105.256 L53.9088 105.256 L53.9088 101.321 Z" fill="#000000" fill-rule="nonzero" fill-opacity="1" /><path clip-path="url(#clip620)" d="M83.2605 99.3767 L88.1447 99.3767 L88.1447 105.256 L83.2605 105.256 L83.2605 99.3767 Z" fill="#000000" fill-rule="nonzero" fill-opacity="1" /><path clip-path="url(#clip620)" d="M108.33 73.775 Q104.719 73.775 102.89 77.3398 Q101.084 80.8814 101.084 88.011 Q101.084 95.1174 102.89 98.6822 Q104.719 102.224 108.33 102.224 Q111.964 102.224 113.77 98.6822 Q115.598 95.1174 115.598 88.011 Q115.598 80.8814 113.77 77.3398 Q111.964 73.775 108.33 73.775 M108.33 70.0713 Q114.14 70.0713 117.195 74.6777 Q120.274 79.261 120.274 88.011 Q120.274 96.7378 117.195 101.344 Q114.14 105.928 108.33 105.928 Q102.52 105.928 99.4409 101.344 Q96.3854 96.7378 96.3854 88.011 Q96.3854 79.261 99.4409 74.6777 Q102.52 70.0713 108.33 70.0713 Z" fill="#000000" fill-rule="nonzero" fill-opacity="1" /><polyline clip-path="url(#clip622)" style="stroke:#009af9; stroke-linecap:round; stroke-linejoin:round; stroke-width:4; stroke-opacity:1; fill:none" points="218.439,1391.41 220.513,1228.48 222.587,1011.24 224.661,1228.48 226.736,1174.17 228.81,1011.24 230.884,1065.55 232.958,1011.24 235.033,1445.72 237.107,1119.86 239.181,1174.17 241.255,902.62 243.329,902.62 245.404,1337.1 247.478,1065.55 249.552,848.31 251.626,1011.24 253.701,685.382 255.775,1174.17 257.849,902.62 259.923,1119.86 261.998,902.62 264.072,848.31 266.146,956.93 268.22,848.31 270.294,794.001 272.369,1011.24 274.443,794.001 276.517,902.62 278.591,794.001 280.666,739.691 282.74,902.62 284.814,685.382 286.888,739.691 288.962,468.143 291.037,522.453 293.111,685.382 295.185,468.143 297.259,794.001 299.334,468.143 301.408,685.382 303.482,576.762 305.556,522.453 307.63,305.215 309.705,468.143 311.779,413.834 313.853,522.453 315.927,468.143 318.002,739.691 320.076,413.834 322.15,196.595 324.224,576.762 326.299,468.143 328.373,359.524 330.447,468.143 332.521,468.143 334.595,413.834 336.67,196.595 338.744,359.524 340.818,522.453 342.892,468.143 344.967,305.215 347.041,196.595 349.115,250.905 351.189,305.215 353.263,250.905 355.338,522.453 357.412,305.215 359.486,250.905 361.56,305.215 363.635,305.215 365.709,413.834 367.783,305.215 369.857,142.286 371.932,685.382 374.006,196.595 376.08,305.215 378.154,196.595 380.228,359.524 382.303,413.834 384.377,305.215 386.451,413.834 388.525,305.215 390.6,305.215 392.674,142.286 394.748,196.595 396.822,142.286 398.896,250.905 400.971,305.215 403.045,359.524 405.119,196.595 407.193,250.905 409.268,196.595 411.342,142.286 413.416,196.595 415.49,250.905 417.565,250.905 419.639,305.215 421.713,413.834 423.787,142.286 425.861,250.905 427.936,305.215 430.01,87.9763 432.084,250.905 434.158,305.215 436.233,468.143 438.307,359.524 440.381,196.595 442.455,413.834 444.529,250.905 446.604,196.595 448.678,359.524 450.752,250.905 452.826,250.905 454.901,196.595 456.975,87.9763 459.049,196.595 461.123,359.524 463.198,196.595 465.272,196.595 467.346,196.595 469.42,305.215 471.494,250.905 473.569,196.595 475.643,196.595 477.717,142.286 479.791,250.905 481.866,87.9763 483.94,305.215 486.014,196.595 488.088,305.215 490.162,250.905 492.237,142.286 494.311,142.286 496.385,142.286 498.459,250.905 500.534,196.595 502.608,196.595 504.682,196.595 506.756,305.215 508.83,305.215 510.905,196.595 512.979,87.9763 515.053,196.595 517.127,196.595 519.202,142.286 521.276,142.286 523.35,250.905 525.424,250.905 527.499,250.905 529.573,142.286 531.647,142.286 533.721,196.595 535.795,196.595 537.87,142.286 539.944,250.905 542.018,196.595 544.092,87.9763 546.167,196.595 548.241,250.905 550.315,87.9763 552.389,142.286 554.463,142.286 556.538,196.595 558.612,142.286 560.686,87.9763 562.76,142.286 564.835,142.286 566.909,250.905 568.983,142.286 571.057,142.286 573.132,87.9763 575.206,142.286 577.28,142.286 579.354,142.286 581.428,250.905 583.503,305.215 585.577,142.286 587.651,142.286 589.725,142.286 591.8,196.595 593.874,196.595 595.948,87.9763 598.022,196.595 600.096,142.286 602.171,142.286 604.245,87.9763 606.319,87.9763 608.393,87.9763 610.468,196.595 612.542,142.286 614.616,142.286 616.69,196.595 618.765,142.286 620.839,305.215 622.913,142.286 624.987,142.286 627.061,250.905 629.136,142.286 631.21,142.286 633.284,87.9763 635.358,142.286 637.433,142.286 639.507,196.595 641.581,250.905 643.655,305.215 645.729,196.595 647.804,196.595 649.878,196.595 651.952,250.905 654.026,142.286 656.101,250.905 658.175,196.595 660.249,359.524 662.323,196.595 664.398,87.9763 666.472,196.595 668.546,142.286 670.62,87.9763 672.694,87.9763 674.769,142.286 676.843,196.595 678.917,87.9763 680.991,196.595 683.066,142.286 685.14,305.215 687.214,196.595 689.288,196.595 691.362,142.286 693.437,87.9763 695.511,87.9763 697.585,142.286 699.659,196.595 701.734,196.595 703.808,196.595 705.882,196.595 707.956,142.286 710.03,142.286 712.105,142.286 714.179,196.595 716.253,196.595 718.327,250.905 720.402,87.9763 722.476,250.905 724.55,142.286 726.624,142.286 728.699,87.9763 730.773,87.9763 732.847,87.9763 734.921,142.286 736.995,196.595 739.07,87.9763 741.144,87.9763 743.218,142.286 745.292,359.524 747.367,87.9763 749.441,142.286 751.515,142.286 753.589,142.286 755.663,250.905 757.738,142.286 759.812,196.595 761.886,87.9763 763.96,196.595 766.035,142.286 768.109,196.595 770.183,87.9763 772.257,196.595 774.332,196.595 776.406,196.595 778.48,142.286 780.554,196.595 782.628,196.595 784.703,142.286 786.777,142.286 788.851,142.286 790.925,250.905 793,250.905 795.074,142.286 797.148,250.905 799.222,196.595 801.296,142.286 803.371,305.215 805.445,142.286 807.519,87.9763 809.593,142.286 811.668,142.286 813.742,142.286 815.816,250.905 817.89,87.9763 819.965,196.595 822.039,142.286 824.113,142.286 826.187,87.9763 828.261,196.595 830.336,142.286 832.41,196.595 834.484,196.595 836.558,87.9763 838.633,142.286 840.707,87.9763 842.781,142.286 844.855,196.595 846.929,250.905 849.004,142.286 851.078,196.595 853.152,142.286 855.226,87.9763 857.301,87.9763 859.375,87.9763 861.449,87.9763 863.523,196.595 865.598,142.286 867.672,87.9763 869.746,87.9763 871.82,196.595 873.894,196.595 875.969,142.286 878.043,196.595 880.117,142.286 882.191,87.9763 884.266,142.286 886.34,142.286 888.414,250.905 890.488,142.286 892.562,142.286 894.637,196.595 896.711,87.9763 898.785,87.9763 900.859,196.595 902.934,142.286 905.008,87.9763 907.082,142.286 909.156,87.9763 911.23,142.286 913.305,87.9763 915.379,142.286 917.453,87.9763 919.527,196.595 921.602,87.9763 923.676,87.9763 925.75,142.286 927.824,196.595 929.899,142.286 931.973,196.595 934.047,87.9763 936.121,196.595 938.195,87.9763 940.27,196.595 942.344,87.9763 944.418,87.9763 946.492,250.905 948.567,87.9763 950.641,87.9763 952.715,142.286 954.789,142.286 956.863,87.9763 958.938,142.286 961.012,142.286 963.086,142.286 965.16,142.286 967.235,142.286 969.309,87.9763 971.383,87.9763 973.457,142.286 975.532,87.9763 977.606,87.9763 979.68,250.905 981.754,87.9763 983.828,87.9763 985.903,142.286 987.977,87.9763 990.051,196.595 992.125,142.286 994.2,87.9763 996.274,87.9763 998.348,196.595 1000.42,250.905 1002.5,142.286 1004.57,87.9763 1006.64,87.9763 1008.72,142.286 1010.79,87.9763 1012.87,196.595 1014.94,196.595 1017.02,87.9763 1019.09,87.9763 1021.16,305.215 1023.24,142.286 1025.31,196.595 1027.39,305.215 1029.46,250.905 1031.54,87.9763 1033.61,250.905 1035.68,142.286 1037.76,142.286 1039.83,87.9763 1041.91,87.9763 1043.98,142.286 1046.06,196.595 1048.13,142.286 1050.2,196.595 1052.28,196.595 1054.35,250.905 1056.43,196.595 1058.5,87.9763 1060.57,87.9763 1062.65,305.215 1064.72,142.286 1066.8,87.9763 1068.87,196.595 1070.95,142.286 1073.02,87.9763 1075.09,142.286 1077.17,250.905 1079.24,87.9763 1081.32,87.9763 1083.39,142.286 1085.47,87.9763 1087.54,305.215 1089.61,87.9763 1091.69,87.9763 1093.76,142.286 1095.84,142.286 1097.91,87.9763 1099.99,142.286 1102.06,87.9763 1104.13,196.595 1106.21,142.286 1108.28,250.905 1110.36,87.9763 1112.43,196.595 1114.5,196.595 1116.58,87.9763 1118.65,142.286 1120.73,87.9763 1122.8,142.286 1124.88,87.9763 1126.95,87.9763 1129.02,142.286 1131.1,196.595 1133.17,142.286 1135.25,87.9763 1137.32,142.286 1139.4,196.595 1141.47,87.9763 1143.54,196.595 1145.62,142.286 1147.69,87.9763 1149.77,142.286 1151.84,87.9763 1153.92,196.595 1155.99,87.9763 1158.06,87.9763 1160.14,196.595 1162.21,87.9763 1164.29,142.286 1166.36,142.286 1168.43,142.286 1170.51,87.9763 1172.58,87.9763 1174.66,142.286 1176.73,142.286 1178.81,87.9763 1180.88,87.9763 1182.95,142.286 1185.03,250.905 1187.1,142.286 1189.18,142.286 1191.25,142.286 1193.33,250.905 1195.4,142.286 1197.47,196.595 1199.55,87.9763 1201.62,87.9763 1203.7,87.9763 1205.77,142.286 1207.84,305.215 1209.92,87.9763 1211.99,87.9763 1214.07,196.595 1216.14,142.286 1218.22,142.286 1220.29,142.286 1222.36,142.286 1224.44,142.286 1226.51,196.595 1228.59,87.9763 1230.66,250.905 1232.74,87.9763 1234.81,196.595 1236.88,87.9763 1238.96,196.595 1241.03,87.9763 1243.11,196.595 1245.18,87.9763 1247.26,142.286 1249.33,142.286 1251.4,142.286 1253.48,142.286 1255.55,142.286 1257.63,142.286 1259.7,196.595 1261.77,87.9763 1263.85,142.286 1265.92,305.215 1268,142.286 1270.07,196.595 1272.15,142.286 1274.22,250.905 1276.29,142.286 1278.37,142.286 1280.44,250.905 1282.52,87.9763 1284.59,142.286 1286.67,196.595 1288.74,250.905 1290.81,87.9763 1292.89,87.9763 1294.96,196.595 1297.04,196.595 1299.11,250.905 1301.19,142.286 1303.26,250.905 1305.33,196.595 1307.41,142.286 1309.48,196.595 1311.56,196.595 1313.63,142.286 1315.7,142.286 1317.78,196.595 1319.85,87.9763 1321.93,87.9763 1324,87.9763 1326.08,142.286 1328.15,87.9763 1330.22,359.524 1332.3,142.286 1334.37,87.9763 1336.45,142.286 1338.52,196.595 1340.6,142.286 1342.67,142.286 1344.74,87.9763 1346.82,142.286 1348.89,87.9763 1350.97,142.286 1353.04,87.9763 1355.12,196.595 1357.19,142.286 1359.26,196.595 1361.34,142.286 1363.41,142.286 1365.49,196.595 1367.56,250.905 1369.63,250.905 1371.71,250.905 1373.78,196.595 1375.86,142.286 1377.93,142.286 1380.01,142.286 1382.08,196.595 1384.15,250.905 1386.23,250.905 1388.3,196.595 1390.38,305.215 1392.45,250.905 1394.53,142.286 1396.6,196.595 1398.67,305.215 1400.75,142.286 1402.82,87.9763 1404.9,196.595 1406.97,142.286 1409.04,142.286 1411.12,250.905 1413.19,250.905 1415.27,196.595 1417.34,142.286 1419.42,196.595 1421.49,359.524 1423.56,250.905 1425.64,142.286 1427.71,142.286 1429.79,196.595 1431.86,305.215 1433.94,142.286 1436.01,87.9763 1438.08,142.286 1440.16,87.9763 1442.23,142.286 1444.31,305.215 1446.38,142.286 1448.46,305.215 1450.53,305.215 1452.6,250.905 1454.68,142.286 1456.75,142.286 1458.83,250.905 1460.9,305.215 1462.97,142.286 1465.05,87.9763 1467.12,305.215 1469.2,142.286 1471.27,305.215 1473.35,87.9763 1475.42,305.215 1477.49,196.595 1479.57,142.286 1481.64,87.9763 1483.72,305.215 1485.79,196.595 1487.87,250.905 1489.94,142.286 1492.01,305.215 1494.09,142.286 1496.16,142.286 1498.24,196.595 1500.31,196.595 1502.39,305.215 1504.46,250.905 1506.53,196.595 1508.61,250.905 1510.68,413.834 1512.76,196.595 1514.83,87.9763 1516.9,305.215 1518.98,87.9763 1521.05,305.215 1523.13,142.286 1525.2,250.905 1527.28,142.286 1529.35,250.905 1531.42,196.595 1533.5,196.595 1535.57,250.905 1537.65,142.286 1539.72,142.286 1541.8,250.905 1543.87,196.595 1545.94,142.286 1548.02,250.905 1550.09,250.905 1552.17,413.834 1554.24,196.595 1556.32,250.905 1558.39,250.905 1560.46,142.286 1562.54,305.215 1564.61,250.905 1566.69,413.834 1568.76,142.286 1570.83,250.905 1572.91,522.453 1574.98,359.524 1577.06,196.595 1579.13,522.453 1581.21,196.595 1583.28,305.215 1585.35,522.453 1587.43,250.905 1589.5,413.834 1591.58,250.905 1593.65,359.524 1595.73,196.595 1597.8,359.524 1599.87,413.834 1601.95,250.905 1604.02,250.905 1606.1,196.595 1608.17,413.834 1610.24,196.595 1612.32,305.215 1614.39,250.905 1616.47,359.524 1618.54,468.143 1620.62,522.453 1622.69,413.834 1624.76,413.834 1626.84,250.905 1628.91,305.215 1630.99,576.762 1633.06,196.595 1635.14,305.215 1637.21,196.595 1639.28,196.595 1641.36,305.215 1643.43,250.905 1645.51,305.215 1647.58,359.524 1649.66,359.524 1651.73,250.905 1653.8,413.834 1655.88,305.215 1657.95,142.286 1660.03,305.215 1662.1,413.834 1664.17,142.286 1666.25,413.834 1668.32,196.595 1670.4,359.524 1672.47,196.595 1674.55,359.524 1676.62,359.524 1678.69,413.834 1680.77,359.524 1682.84,305.215 1684.92,468.143 1686.99,468.143 1689.07,196.595 1691.14,359.524 1693.21,522.453 1695.29,413.834 1697.36,413.834 1699.44,250.905 1701.51,413.834 1703.59,196.595 1705.66,142.286 1707.73,196.595 1709.81,305.215 1711.88,305.215 1713.96,359.524 1716.03,250.905 1718.1,359.524 1720.18,522.453 1722.25,305.215 1724.33,250.905 1726.4,250.905 1728.48,250.905 1730.55,359.524 1732.62,359.524 1734.7,196.595 1736.77,305.215 1738.85,196.595 1740.92,522.453 1743,142.286 1745.07,250.905 1747.14,305.215 1749.22,305.215 1751.29,359.524 1753.37,359.524 1755.44,468.143 1757.52,142.286 1759.59,196.595 1761.66,522.453 1763.74,250.905 1765.81,305.215 1767.89,196.595 1769.96,196.595 1772.03,142.286 1774.11,250.905 1776.18,359.524 1778.26,142.286 1780.33,196.595 1782.41,305.215 1784.48,250.905 1786.55,359.524 1788.63,359.524 1790.7,250.905 1792.78,142.286 1794.85,196.595 1796.93,142.286 1799,196.595 1801.07,359.524 1803.15,196.595 1805.22,142.286 1807.3,87.9763 1809.37,196.595 1811.44,305.215 1813.52,196.595 1815.59,250.905 1817.67,250.905 1819.74,87.9763 1821.82,250.905 1823.89,250.905 1825.96,196.595 1828.04,305.215 1830.11,142.286 1832.19,250.905 1834.26,87.9763 1836.34,250.905 1838.41,87.9763 1840.48,413.834 1842.56,250.905 1844.63,305.215 1846.71,87.9763 1848.78,250.905 1850.86,142.286 1852.93,305.215 1855,196.595 1857.08,250.905 1859.15,196.595 1861.23,87.9763 1863.3,250.905 1865.37,196.595 1867.45,250.905 1869.52,196.595 1871.6,196.595 1873.67,359.524 1875.75,359.524 1877.82,359.524 1879.89,87.9763 1881.97,87.9763 1884.04,142.286 1886.12,250.905 1888.19,196.595 1890.27,305.215 1892.34,142.286 1894.41,196.595 1896.49,196.595 1898.56,250.905 1900.64,250.905 1902.71,250.905 1904.79,305.215 1906.86,196.595 1908.93,142.286 1911.01,142.286 1913.08,305.215 1915.16,142.286 1917.23,196.595 1919.3,196.595 1921.38,359.524 1923.45,250.905 1925.53,196.595 1927.6,87.9763 1929.68,196.595 1931.75,196.595 1933.82,250.905 1935.9,359.524 1937.97,196.595 1940.05,250.905 1942.12,250.905 1944.2,468.143 1946.27,359.524 1948.34,142.286 1950.42,250.905 1952.49,87.9763 1954.57,305.215 1956.64,250.905 1958.72,196.595 1960.79,87.9763 1962.86,196.595 1964.94,359.524 1967.01,142.286 1969.09,196.595 1971.16,87.9763 1973.23,142.286 1975.31,250.905 1977.38,142.286 1979.46,87.9763 1981.53,142.286 1983.61,142.286 1985.68,359.524 1987.75,87.9763 1989.83,142.286 1991.9,142.286 1993.98,250.905 1996.05,87.9763 1998.13,305.215 2000.2,142.286 2002.27,250.905 2004.35,87.9763 2006.42,305.215 2008.5,142.286 2010.57,250.905 2012.64,305.215 2014.72,196.595 2016.79,87.9763 2018.87,468.143 2020.94,142.286 2023.02,250.905 2025.09,196.595 2027.16,87.9763 2029.24,196.595 2031.31,196.595 2033.39,359.524 2035.46,305.215 2037.54,142.286 2039.61,196.595 2041.68,196.595 2043.76,142.286 2045.83,142.286 2047.91,250.905 2049.98,87.9763 2052.06,142.286 2054.13,359.524 2056.2,196.595 2058.28,250.905 2060.35,142.286 2062.43,142.286 2064.5,196.595 2066.57,87.9763 2068.65,196.595 2070.72,196.595 2072.8,87.9763 2074.87,305.215 2076.95,196.595 2079.02,196.595 2081.09,196.595 2083.17,250.905 2085.24,359.524 2087.32,87.9763 2089.39,87.9763 2091.47,196.595 2093.54,87.9763 2095.61,142.286 2097.69,250.905 2099.76,142.286 2101.84,87.9763 2103.91,250.905 2105.99,196.595 2108.06,250.905 2110.13,250.905 2112.21,142.286 2114.28,87.9763 2116.36,142.286 2118.43,196.595 2120.5,87.9763 2122.58,196.595 2124.65,196.595 2126.73,142.286 2128.8,196.595 2130.88,196.595 2132.95,142.286 2135.02,142.286 2137.1,196.595 2139.17,250.905 2141.25,250.905 2143.32,87.9763 2145.4,142.286 2147.47,250.905 2149.54,142.286 2151.62,87.9763 2153.69,87.9763 2155.77,142.286 2157.84,142.286 2159.92,87.9763 2161.99,305.215 2164.06,196.595 2166.14,196.595 2168.21,196.595 2170.29,359.524 2172.36,196.595 2174.43,196.595 2176.51,359.524 2178.58,196.595 2180.66,196.595 2182.73,196.595 2184.81,250.905 2186.88,142.286 2188.95,87.9763 2191.03,87.9763 2193.1,142.286 2195.18,250.905 2197.25,87.9763 2199.33,142.286 2201.4,142.286 2203.47,196.595 2205.55,142.286 2207.62,142.286 2209.7,87.9763 2211.77,250.905 2213.84,250.905 2215.92,250.905 2217.99,196.595 2220.07,142.286 2222.14,87.9763 2224.22,196.595 2226.29,196.595 2228.36,196.595 2230.44,468.143 2232.51,250.905 2234.59,250.905 2236.66,196.595 2238.74,142.286 2240.81,87.9763 2242.88,468.143 2244.96,87.9763 2247.03,142.286 2249.11,142.286 2251.18,87.9763 2253.26,196.595 2255.33,196.595 2257.4,359.524 2259.48,142.286 2261.55,142.286 2263.63,142.286 2265.7,142.286 2267.77,142.286 2269.85,196.595 2271.92,305.215 2274,87.9763 2276.07,142.286 2278.15,196.595 2280.22,305.215 2282.29,250.905 2284.37,196.595 2286.44,87.9763 2288.52,196.595 2290.59,142.286 "/>
<path clip-path="url(#clip620)" d="M2007.46 1438.47 L2279.54 1438.47 L2279.54 1334.79 L2007.46 1334.79  Z" fill="#ffffff" fill-rule="evenodd" fill-opacity="1"/>
<polyline clip-path="url(#clip620)" style="stroke:#000000; stroke-linecap:round; stroke-linejoin:round; stroke-width:4; stroke-opacity:1; fill:none" points="2007.46,1438.47 2279.54,1438.47 2279.54,1334.79 2007.46,1334.79 2007.46,1438.47 "/>
<polyline clip-path="url(#clip620)" style="stroke:#009af9; stroke-linecap:round; stroke-linejoin:round; stroke-width:4; stroke-opacity:1; fill:none" points="2031.87,1386.63 2178.3,1386.63 "/>
<path clip-path="url(#clip620)" d="M2216.55 1406.32 Q2214.74 1410.95 2213.03 1412.36 Q2211.32 1413.78 2208.44 1413.78 L2205.04 1413.78 L2205.04 1410.21 L2207.54 1410.21 Q2209.3 1410.21 2210.27 1409.38 Q2211.25 1408.54 2212.43 1405.44 L2213.19 1403.5 L2202.7 1377.99 L2207.22 1377.99 L2215.32 1398.27 L2223.42 1377.99 L2227.94 1377.99 L2216.55 1406.32 Z" fill="#000000" fill-rule="nonzero" fill-opacity="1" /><path clip-path="url(#clip620)" d="M2235.23 1399.98 L2242.87 1399.98 L2242.87 1373.61 L2234.56 1375.28 L2234.56 1371.02 L2242.82 1369.35 L2247.5 1369.35 L2247.5 1399.98 L2255.13 1399.98 L2255.13 1403.91 L2235.23 1403.91 L2235.23 1399.98 Z" fill="#000000" fill-rule="nonzero" fill-opacity="1" /></svg>
