<?xml version="1.0" encoding="utf-8"?>
<svg xmlns="http://www.w3.org/2000/svg" xmlns:xlink="http://www.w3.org/1999/xlink" width="600" height="400" viewBox="0 0 2400 1600">
<defs>
  <clipPath id="clip490">
    <rect x="0" y="0" width="2400" height="1600"/>
  </clipPath>
</defs>
<path clip-path="url(#clip490)" d="M0 1600 L2400 1600 L2400 0 L0 0  Z" fill="#ffffff" fill-rule="evenodd" fill-opacity="1"/>
<defs>
  <clipPath id="clip491">
    <rect x="480" y="0" width="1681" height="1600"/>
  </clipPath>
</defs>
<path clip-path="url(#clip490)" d="M169.121 1486.45 L2352.76 1486.45 L2352.76 47.2441 L169.121 47.2441  Z" fill="#ffffff" fill-rule="evenodd" fill-opacity="1"/>
<defs>
  <clipPath id="clip492">
    <rect x="169" y="47" width="2185" height="1440"/>
  </clipPath>
</defs>
<polyline clip-path="url(#clip492)" style="stroke:#000000; stroke-linecap:round; stroke-linejoin:round; stroke-width:2; stroke-opacity:0.1; fill:none" points="230.922,1486.45 230.922,47.2441 "/>
<polyline clip-path="url(#clip492)" style="stroke:#000000; stroke-linecap:round; stroke-linejoin:round; stroke-width:2; stroke-opacity:0.1; fill:none" points="745.93,1486.45 745.93,47.2441 "/>
<polyline clip-path="url(#clip492)" style="stroke:#000000; stroke-linecap:round; stroke-linejoin:round; stroke-width:2; stroke-opacity:0.1; fill:none" points="1260.94,1486.45 1260.94,47.2441 "/>
<polyline clip-path="url(#clip492)" style="stroke:#000000; stroke-linecap:round; stroke-linejoin:round; stroke-width:2; stroke-opacity:0.1; fill:none" points="1775.95,1486.45 1775.95,47.2441 "/>
<polyline clip-path="url(#clip492)" style="stroke:#000000; stroke-linecap:round; stroke-linejoin:round; stroke-width:2; stroke-opacity:0.1; fill:none" points="2290.95,1486.45 2290.95,47.2441 "/>
<polyline clip-path="url(#clip490)" style="stroke:#000000; stroke-linecap:round; stroke-linejoin:round; stroke-width:4; stroke-opacity:1; fill:none" points="169.121,1486.45 2352.76,1486.45 "/>
<polyline clip-path="url(#clip490)" style="stroke:#000000; stroke-linecap:round; stroke-linejoin:round; stroke-width:4; stroke-opacity:1; fill:none" points="230.922,1486.45 230.922,1467.55 "/>
<polyline clip-path="url(#clip490)" style="stroke:#000000; stroke-linecap:round; stroke-linejoin:round; stroke-width:4; stroke-opacity:1; fill:none" points="745.93,1486.45 745.93,1467.55 "/>
<polyline clip-path="url(#clip490)" style="stroke:#000000; stroke-linecap:round; stroke-linejoin:round; stroke-width:4; stroke-opacity:1; fill:none" points="1260.94,1486.45 1260.94,1467.55 "/>
<polyline clip-path="url(#clip490)" style="stroke:#000000; stroke-linecap:round; stroke-linejoin:round; stroke-width:4; stroke-opacity:1; fill:none" points="1775.95,1486.45 1775.95,1467.55 "/>
<polyline clip-path="url(#clip490)" style="stroke:#000000; stroke-linecap:round; stroke-linejoin:round; stroke-width:4; stroke-opacity:1; fill:none" points="2290.95,1486.45 2290.95,1467.55 "/>
<path clip-path="url(#clip490)" d="M208.307 1517.37 Q204.696 1517.37 202.867 1520.93 Q201.061 1524.47 201.061 1531.6 Q201.061 1538.71 202.867 1542.27 Q204.696 1545.82 208.307 1545.82 Q211.941 1545.82 213.746 1542.27 Q215.575 1538.71 215.575 1531.6 Q215.575 1524.47 213.746 1520.93 Q211.941 1517.37 208.307 1517.37 M208.307 1513.66 Q214.117 1513.66 217.172 1518.27 Q220.251 1522.85 220.251 1531.6 Q220.251 1540.33 217.172 1544.94 Q214.117 1549.52 208.307 1549.52 Q202.497 1549.52 199.418 1544.94 Q196.362 1540.33 196.362 1531.6 Q196.362 1522.85 199.418 1518.27 Q202.497 1513.66 208.307 1513.66 Z" fill="#000000" fill-rule="nonzero" fill-opacity="1" /><path clip-path="url(#clip490)" d="M228.469 1542.97 L233.353 1542.97 L233.353 1548.85 L228.469 1548.85 L228.469 1542.97 Z" fill="#000000" fill-rule="nonzero" fill-opacity="1" /><path clip-path="url(#clip490)" d="M253.538 1517.37 Q249.927 1517.37 248.098 1520.93 Q246.293 1524.47 246.293 1531.6 Q246.293 1538.71 248.098 1542.27 Q249.927 1545.82 253.538 1545.82 Q257.172 1545.82 258.978 1542.27 Q260.806 1538.71 260.806 1531.6 Q260.806 1524.47 258.978 1520.93 Q257.172 1517.37 253.538 1517.37 M253.538 1513.66 Q259.348 1513.66 262.404 1518.27 Q265.482 1522.85 265.482 1531.6 Q265.482 1540.33 262.404 1544.94 Q259.348 1549.52 253.538 1549.52 Q247.728 1549.52 244.649 1544.94 Q241.594 1540.33 241.594 1531.6 Q241.594 1522.85 244.649 1518.27 Q247.728 1513.66 253.538 1513.66 Z" fill="#000000" fill-rule="nonzero" fill-opacity="1" /><path clip-path="url(#clip490)" d="M717.667 1544.91 L733.986 1544.91 L733.986 1548.85 L712.042 1548.85 L712.042 1544.91 Q714.704 1542.16 719.287 1537.53 Q723.894 1532.88 725.074 1531.53 Q727.319 1529.01 728.199 1527.27 Q729.102 1525.51 729.102 1523.82 Q729.102 1521.07 727.157 1519.33 Q725.236 1517.6 722.134 1517.6 Q719.935 1517.6 717.482 1518.36 Q715.051 1519.13 712.273 1520.68 L712.273 1515.95 Q715.097 1514.82 717.551 1514.24 Q720.005 1513.66 722.042 1513.66 Q727.412 1513.66 730.606 1516.35 Q733.801 1519.03 733.801 1523.52 Q733.801 1525.65 732.991 1527.57 Q732.204 1529.47 730.097 1532.07 Q729.519 1532.74 726.417 1535.95 Q723.315 1539.15 717.667 1544.91 Z" fill="#000000" fill-rule="nonzero" fill-opacity="1" /><path clip-path="url(#clip490)" d="M743.801 1542.97 L748.685 1542.97 L748.685 1548.85 L743.801 1548.85 L743.801 1542.97 Z" fill="#000000" fill-rule="nonzero" fill-opacity="1" /><path clip-path="url(#clip490)" d="M758.916 1514.29 L777.273 1514.29 L777.273 1518.22 L763.199 1518.22 L763.199 1526.7 Q764.217 1526.35 765.236 1526.19 Q766.254 1526 767.273 1526 Q773.06 1526 776.44 1529.17 Q779.819 1532.34 779.819 1537.76 Q779.819 1543.34 776.347 1546.44 Q772.875 1549.52 766.555 1549.52 Q764.379 1549.52 762.111 1549.15 Q759.866 1548.78 757.458 1548.04 L757.458 1543.34 Q759.541 1544.47 761.764 1545.03 Q763.986 1545.58 766.463 1545.58 Q770.467 1545.58 772.805 1543.48 Q775.143 1541.37 775.143 1537.76 Q775.143 1534.15 772.805 1532.04 Q770.467 1529.94 766.463 1529.94 Q764.588 1529.94 762.713 1530.35 Q760.861 1530.77 758.916 1531.65 L758.916 1514.29 Z" fill="#000000" fill-rule="nonzero" fill-opacity="1" /><path clip-path="url(#clip490)" d="M1228.1 1514.29 L1246.46 1514.29 L1246.46 1518.22 L1232.39 1518.22 L1232.39 1526.7 Q1233.4 1526.35 1234.42 1526.19 Q1235.44 1526 1236.46 1526 Q1242.25 1526 1245.63 1529.17 Q1249.01 1532.34 1249.01 1537.76 Q1249.01 1543.34 1245.53 1546.44 Q1242.06 1549.52 1235.74 1549.52 Q1233.57 1549.52 1231.3 1549.15 Q1229.05 1548.78 1226.64 1548.04 L1226.64 1543.34 Q1228.73 1544.47 1230.95 1545.03 Q1233.17 1545.58 1235.65 1545.58 Q1239.65 1545.58 1241.99 1543.48 Q1244.33 1541.37 1244.33 1537.76 Q1244.33 1534.15 1241.99 1532.04 Q1239.65 1529.94 1235.65 1529.94 Q1233.77 1529.94 1231.9 1530.35 Q1230.05 1530.77 1228.1 1531.65 L1228.1 1514.29 Z" fill="#000000" fill-rule="nonzero" fill-opacity="1" /><path clip-path="url(#clip490)" d="M1258.22 1542.97 L1263.1 1542.97 L1263.1 1548.85 L1258.22 1548.85 L1258.22 1542.97 Z" fill="#000000" fill-rule="nonzero" fill-opacity="1" /><path clip-path="url(#clip490)" d="M1283.29 1517.37 Q1279.68 1517.37 1277.85 1520.93 Q1276.04 1524.47 1276.04 1531.6 Q1276.04 1538.71 1277.85 1542.27 Q1279.68 1545.82 1283.29 1545.82 Q1286.92 1545.82 1288.73 1542.27 Q1290.56 1538.71 1290.56 1531.6 Q1290.56 1524.47 1288.73 1520.93 Q1286.92 1517.37 1283.29 1517.37 M1283.29 1513.66 Q1289.1 1513.66 1292.15 1518.27 Q1295.23 1522.85 1295.23 1531.6 Q1295.23 1540.33 1292.15 1544.94 Q1289.1 1549.52 1283.29 1549.52 Q1277.48 1549.52 1274.4 1544.94 Q1271.34 1540.33 1271.34 1531.6 Q1271.34 1522.85 1274.4 1518.27 Q1277.48 1513.66 1283.29 1513.66 Z" fill="#000000" fill-rule="nonzero" fill-opacity="1" /><path clip-path="url(#clip490)" d="M1742.27 1514.29 L1764.49 1514.29 L1764.49 1516.28 L1751.94 1548.85 L1747.06 1548.85 L1758.86 1518.22 L1742.27 1518.22 L1742.27 1514.29 Z" fill="#000000" fill-rule="nonzero" fill-opacity="1" /><path clip-path="url(#clip490)" d="M1773.61 1542.97 L1778.49 1542.97 L1778.49 1548.85 L1773.61 1548.85 L1773.61 1542.97 Z" fill="#000000" fill-rule="nonzero" fill-opacity="1" /><path clip-path="url(#clip490)" d="M1788.72 1514.29 L1807.08 1514.29 L1807.08 1518.22 L1793.01 1518.22 L1793.01 1526.7 Q1794.03 1526.35 1795.04 1526.19 Q1796.06 1526 1797.08 1526 Q1802.87 1526 1806.25 1529.17 Q1809.63 1532.34 1809.63 1537.76 Q1809.63 1543.34 1806.15 1546.44 Q1802.68 1549.52 1796.36 1549.52 Q1794.19 1549.52 1791.92 1549.15 Q1789.67 1548.78 1787.27 1548.04 L1787.27 1543.34 Q1789.35 1544.47 1791.57 1545.03 Q1793.79 1545.58 1796.27 1545.58 Q1800.28 1545.58 1802.61 1543.48 Q1804.95 1541.37 1804.95 1537.76 Q1804.95 1534.15 1802.61 1532.04 Q1800.28 1529.94 1796.27 1529.94 Q1794.4 1529.94 1792.52 1530.35 Q1790.67 1530.77 1788.72 1531.65 L1788.72 1514.29 Z" fill="#000000" fill-rule="nonzero" fill-opacity="1" /><path clip-path="url(#clip490)" d="M2243.03 1544.91 L2250.67 1544.91 L2250.67 1518.55 L2242.36 1520.21 L2242.36 1515.95 L2250.62 1514.29 L2255.3 1514.29 L2255.3 1544.91 L2262.93 1544.91 L2262.93 1548.85 L2243.03 1548.85 L2243.03 1544.91 Z" fill="#000000" fill-rule="nonzero" fill-opacity="1" /><path clip-path="url(#clip490)" d="M2282.38 1517.37 Q2278.77 1517.37 2276.94 1520.93 Q2275.13 1524.47 2275.13 1531.6 Q2275.13 1538.71 2276.94 1542.27 Q2278.77 1545.82 2282.38 1545.82 Q2286.01 1545.82 2287.82 1542.27 Q2289.65 1538.71 2289.65 1531.6 Q2289.65 1524.47 2287.82 1520.93 Q2286.01 1517.37 2282.38 1517.37 M2282.38 1513.66 Q2288.19 1513.66 2291.24 1518.27 Q2294.32 1522.85 2294.32 1531.6 Q2294.32 1540.33 2291.24 1544.94 Q2288.19 1549.52 2282.38 1549.52 Q2276.57 1549.52 2273.49 1544.94 Q2270.43 1540.33 2270.43 1531.6 Q2270.43 1522.85 2273.49 1518.27 Q2276.57 1513.66 2282.38 1513.66 Z" fill="#000000" fill-rule="nonzero" fill-opacity="1" /><path clip-path="url(#clip490)" d="M2302.54 1542.97 L2307.42 1542.97 L2307.42 1548.85 L2302.54 1548.85 L2302.54 1542.97 Z" fill="#000000" fill-rule="nonzero" fill-opacity="1" /><path clip-path="url(#clip490)" d="M2327.61 1517.37 Q2324 1517.37 2322.17 1520.93 Q2320.36 1524.47 2320.36 1531.6 Q2320.36 1538.71 2322.17 1542.27 Q2324 1545.82 2327.61 1545.82 Q2331.24 1545.82 2333.05 1542.27 Q2334.88 1538.71 2334.88 1531.6 Q2334.88 1524.47 2333.05 1520.93 Q2331.24 1517.37 2327.61 1517.37 M2327.61 1513.66 Q2333.42 1513.66 2336.48 1518.27 Q2339.55 1522.85 2339.55 1531.6 Q2339.55 1540.33 2336.48 1544.94 Q2333.42 1549.52 2327.61 1549.52 Q2321.8 1549.52 2318.72 1544.94 Q2315.67 1540.33 2315.67 1531.6 Q2315.67 1522.85 2318.72 1518.27 Q2321.8 1513.66 2327.61 1513.66 Z" fill="#000000" fill-rule="nonzero" fill-opacity="1" /><polyline clip-path="url(#clip492)" style="stroke:#000000; stroke-linecap:round; stroke-linejoin:round; stroke-width:2; stroke-opacity:0.1; fill:none" points="169.121,1486.19 2352.76,1486.19 "/>
<polyline clip-path="url(#clip492)" style="stroke:#000000; stroke-linecap:round; stroke-linejoin:round; stroke-width:2; stroke-opacity:0.1; fill:none" points="169.121,1075.54 2352.76,1075.54 "/>
<polyline clip-path="url(#clip492)" style="stroke:#000000; stroke-linecap:round; stroke-linejoin:round; stroke-width:2; stroke-opacity:0.1; fill:none" points="169.121,664.894 2352.76,664.894 "/>
<polyline clip-path="url(#clip492)" style="stroke:#000000; stroke-linecap:round; stroke-linejoin:round; stroke-width:2; stroke-opacity:0.1; fill:none" points="169.121,254.245 2352.76,254.245 "/>
<polyline clip-path="url(#clip490)" style="stroke:#000000; stroke-linecap:round; stroke-linejoin:round; stroke-width:4; stroke-opacity:1; fill:none" points="169.121,1486.45 169.121,47.2441 "/>
<polyline clip-path="url(#clip490)" style="stroke:#000000; stroke-linecap:round; stroke-linejoin:round; stroke-width:4; stroke-opacity:1; fill:none" points="169.121,1486.19 188.019,1486.19 "/>
<polyline clip-path="url(#clip490)" style="stroke:#000000; stroke-linecap:round; stroke-linejoin:round; stroke-width:4; stroke-opacity:1; fill:none" points="169.121,1075.54 188.019,1075.54 "/>
<polyline clip-path="url(#clip490)" style="stroke:#000000; stroke-linecap:round; stroke-linejoin:round; stroke-width:4; stroke-opacity:1; fill:none" points="169.121,664.894 188.019,664.894 "/>
<polyline clip-path="url(#clip490)" style="stroke:#000000; stroke-linecap:round; stroke-linejoin:round; stroke-width:4; stroke-opacity:1; fill:none" points="169.121,254.245 188.019,254.245 "/>
<path clip-path="url(#clip490)" d="M51.6634 1499.54 L59.3023 1499.54 L59.3023 1473.17 L50.9921 1474.84 L50.9921 1470.58 L59.256 1468.91 L63.9319 1468.91 L63.9319 1499.54 L71.5707 1499.54 L71.5707 1503.47 L51.6634 1503.47 L51.6634 1499.54 Z" fill="#000000" fill-rule="nonzero" fill-opacity="1" /><path clip-path="url(#clip490)" d="M91.0151 1471.99 Q87.404 1471.99 85.5753 1475.56 Q83.7697 1479.1 83.7697 1486.23 Q83.7697 1493.33 85.5753 1496.9 Q87.404 1500.44 91.0151 1500.44 Q94.6493 1500.44 96.4548 1496.9 Q98.2835 1493.33 98.2835 1486.23 Q98.2835 1479.1 96.4548 1475.56 Q94.6493 1471.99 91.0151 1471.99 M91.0151 1468.29 Q96.8252 1468.29 99.8808 1472.89 Q102.959 1477.48 102.959 1486.23 Q102.959 1494.95 99.8808 1499.56 Q96.8252 1504.14 91.0151 1504.14 Q85.2049 1504.14 82.1262 1499.56 Q79.0707 1494.95 79.0707 1486.23 Q79.0707 1477.48 82.1262 1472.89 Q85.2049 1468.29 91.0151 1468.29 Z" fill="#000000" fill-rule="nonzero" fill-opacity="1" /><path clip-path="url(#clip490)" d="M121.177 1471.99 Q117.566 1471.99 115.737 1475.56 Q113.932 1479.1 113.932 1486.23 Q113.932 1493.33 115.737 1496.9 Q117.566 1500.44 121.177 1500.44 Q124.811 1500.44 126.617 1496.9 Q128.445 1493.33 128.445 1486.23 Q128.445 1479.1 126.617 1475.56 Q124.811 1471.99 121.177 1471.99 M121.177 1468.29 Q126.987 1468.29 130.043 1472.89 Q133.121 1477.48 133.121 1486.23 Q133.121 1494.95 130.043 1499.56 Q126.987 1504.14 121.177 1504.14 Q115.367 1504.14 112.288 1499.56 Q109.233 1494.95 109.233 1486.23 Q109.233 1477.48 112.288 1472.89 Q115.367 1468.29 121.177 1468.29 Z" fill="#000000" fill-rule="nonzero" fill-opacity="1" /><path clip-path="url(#clip490)" d="M51.6634 1088.89 L59.3023 1088.89 L59.3023 1062.52 L50.9921 1064.19 L50.9921 1059.93 L59.256 1058.26 L63.9319 1058.26 L63.9319 1088.89 L71.5707 1088.89 L71.5707 1092.82 L51.6634 1092.82 L51.6634 1088.89 Z" fill="#000000" fill-rule="nonzero" fill-opacity="1" /><path clip-path="url(#clip490)" d="M81.8253 1088.89 L89.4641 1088.89 L89.4641 1062.52 L81.154 1064.19 L81.154 1059.93 L89.4178 1058.26 L94.0937 1058.26 L94.0937 1088.89 L101.733 1088.89 L101.733 1092.82 L81.8253 1092.82 L81.8253 1088.89 Z" fill="#000000" fill-rule="nonzero" fill-opacity="1" /><path clip-path="url(#clip490)" d="M121.177 1061.34 Q117.566 1061.34 115.737 1064.91 Q113.932 1068.45 113.932 1075.58 Q113.932 1082.68 115.737 1086.25 Q117.566 1089.79 121.177 1089.79 Q124.811 1089.79 126.617 1086.25 Q128.445 1082.68 128.445 1075.58 Q128.445 1068.45 126.617 1064.91 Q124.811 1061.34 121.177 1061.34 M121.177 1057.64 Q126.987 1057.64 130.043 1062.24 Q133.121 1066.83 133.121 1075.58 Q133.121 1084.3 130.043 1088.91 Q126.987 1093.49 121.177 1093.49 Q115.367 1093.49 112.288 1088.91 Q109.233 1084.3 109.233 1075.58 Q109.233 1066.83 112.288 1062.24 Q115.367 1057.64 121.177 1057.64 Z" fill="#000000" fill-rule="nonzero" fill-opacity="1" /><path clip-path="url(#clip490)" d="M51.6634 678.239 L59.3023 678.239 L59.3023 651.873 L50.9921 653.54 L50.9921 649.281 L59.256 647.614 L63.9319 647.614 L63.9319 678.239 L71.5707 678.239 L71.5707 682.174 L51.6634 682.174 L51.6634 678.239 Z" fill="#000000" fill-rule="nonzero" fill-opacity="1" /><path clip-path="url(#clip490)" d="M85.0429 678.239 L101.362 678.239 L101.362 682.174 L79.4179 682.174 L79.4179 678.239 Q82.0799 675.484 86.6632 670.854 Q91.2697 666.202 92.4502 664.859 Q94.6956 662.336 95.5752 660.6 Q96.478 658.841 96.478 657.151 Q96.478 654.396 94.5336 652.66 Q92.6123 650.924 89.5104 650.924 Q87.3114 650.924 84.8577 651.688 Q82.4271 652.452 79.6494 654.003 L79.6494 649.281 Q82.4734 648.146 84.9271 647.568 Q87.3808 646.989 89.4178 646.989 Q94.7882 646.989 97.9826 649.674 Q101.177 652.359 101.177 656.85 Q101.177 658.98 100.367 660.901 Q99.5798 662.799 97.4734 665.392 Q96.8947 666.063 93.7928 669.28 Q90.691 672.475 85.0429 678.239 Z" fill="#000000" fill-rule="nonzero" fill-opacity="1" /><path clip-path="url(#clip490)" d="M121.177 650.693 Q117.566 650.693 115.737 654.257 Q113.932 657.799 113.932 664.929 Q113.932 672.035 115.737 675.6 Q117.566 679.141 121.177 679.141 Q124.811 679.141 126.617 675.6 Q128.445 672.035 128.445 664.929 Q128.445 657.799 126.617 654.257 Q124.811 650.693 121.177 650.693 M121.177 646.989 Q126.987 646.989 130.043 651.595 Q133.121 656.179 133.121 664.929 Q133.121 673.655 130.043 678.262 Q126.987 682.845 121.177 682.845 Q115.367 682.845 112.288 678.262 Q109.233 673.655 109.233 664.929 Q109.233 656.179 112.288 651.595 Q115.367 646.989 121.177 646.989 Z" fill="#000000" fill-rule="nonzero" fill-opacity="1" /><path clip-path="url(#clip490)" d="M51.6634 267.59 L59.3023 267.59 L59.3023 241.224 L50.9921 242.891 L50.9921 238.632 L59.256 236.965 L63.9319 236.965 L63.9319 267.59 L71.5707 267.59 L71.5707 271.525 L51.6634 271.525 L51.6634 267.59 Z" fill="#000000" fill-rule="nonzero" fill-opacity="1" /><path clip-path="url(#clip490)" d="M95.1817 252.891 Q98.5382 253.608 100.413 255.877 Q102.311 258.145 102.311 261.479 Q102.311 266.594 98.7928 269.395 Q95.2743 272.196 88.7928 272.196 Q86.6169 272.196 84.3021 271.756 Q82.0105 271.34 79.5568 270.483 L79.5568 265.969 Q81.5012 267.104 83.816 267.682 Q86.1308 268.261 88.654 268.261 Q93.0521 268.261 95.3437 266.525 Q97.6585 264.789 97.6585 261.479 Q97.6585 258.423 95.5058 256.71 Q93.3762 254.974 89.5567 254.974 L85.529 254.974 L85.529 251.132 L89.7419 251.132 Q93.191 251.132 95.0197 249.766 Q96.8484 248.377 96.8484 245.784 Q96.8484 243.122 94.9502 241.71 Q93.0752 240.275 89.5567 240.275 Q87.6354 240.275 85.4364 240.692 Q83.2373 241.108 80.5984 241.988 L80.5984 237.821 Q83.2605 237.081 85.5753 236.71 Q87.9132 236.34 89.9734 236.34 Q95.2974 236.34 98.3993 238.771 Q101.501 241.178 101.501 245.298 Q101.501 248.169 99.8576 250.159 Q98.2141 252.127 95.1817 252.891 Z" fill="#000000" fill-rule="nonzero" fill-opacity="1" /><path clip-path="url(#clip490)" d="M121.177 240.044 Q117.566 240.044 115.737 243.608 Q113.932 247.15 113.932 254.28 Q113.932 261.386 115.737 264.951 Q117.566 268.493 121.177 268.493 Q124.811 268.493 126.617 264.951 Q128.445 261.386 128.445 254.28 Q128.445 247.15 126.617 243.608 Q124.811 240.044 121.177 240.044 M121.177 236.34 Q126.987 236.34 130.043 240.946 Q133.121 245.53 133.121 254.28 Q133.121 263.007 130.043 267.613 Q126.987 272.196 121.177 272.196 Q115.367 272.196 112.288 267.613 Q109.233 263.007 109.233 254.28 Q109.233 245.53 112.288 240.946 Q115.367 236.34 121.177 236.34 Z" fill="#000000" fill-rule="nonzero" fill-opacity="1" /><polyline clip-path="url(#clip492)" style="stroke:#009af9; stroke-linecap:round; stroke-linejoin:round; stroke-width:4; stroke-opacity:1; fill:none" points="230.922,1421.02 436.926,1425 642.929,1441.63 848.932,1445.72 1054.94,87.9763 1260.94,97.2782 1466.94,964.141 1672.95,969.689 1878.95,228.31 2084.95,239.189 2290.95,248.09 "/>
<path clip-path="url(#clip490)" d="M241.909 198.898 L512.703 198.898 L512.703 95.2176 L241.909 95.2176  Z" fill="#ffffff" fill-rule="evenodd" fill-opacity="1"/>
<polyline clip-path="url(#clip490)" style="stroke:#000000; stroke-linecap:round; stroke-linejoin:round; stroke-width:4; stroke-opacity:1; fill:none" points="241.909,198.898 512.703,198.898 512.703,95.2176 241.909,95.2176 241.909,198.898 "/>
<polyline clip-path="url(#clip490)" style="stroke:#009af9; stroke-linecap:round; stroke-linejoin:round; stroke-width:4; stroke-opacity:1; fill:none" points="266.172,147.058 411.747,147.058 "/>
<path clip-path="url(#clip490)" d="M449.853 166.745 Q448.047 171.375 446.334 172.787 Q444.621 174.199 441.751 174.199 L438.348 174.199 L438.348 170.634 L440.848 170.634 Q442.607 170.634 443.579 169.8 Q444.552 168.967 445.732 165.865 L446.496 163.921 L436.01 138.412 L440.524 138.412 L448.626 158.689 L456.727 138.412 L461.241 138.412 L449.853 166.745 Z" fill="#000000" fill-rule="nonzero" fill-opacity="1" /><path clip-path="url(#clip490)" d="M468.533 160.402 L476.172 160.402 L476.172 134.037 L467.862 135.703 L467.862 131.444 L476.126 129.778 L480.801 129.778 L480.801 160.402 L488.44 160.402 L488.44 164.338 L468.533 164.338 L468.533 160.402 Z" fill="#000000" fill-rule="nonzero" fill-opacity="1" /></svg>
