<?xml version="1.0" encoding="utf-8"?>
<svg xmlns="http://www.w3.org/2000/svg" xmlns:xlink="http://www.w3.org/1999/xlink" width="600" height="400" viewBox="0 0 2400 1600">
<defs>
  <clipPath id="clip210">
    <rect x="0" y="0" width="2400" height="1600"/>
  </clipPath>
</defs>
<path clip-path="url(#clip210)" d="M0 1600 L2400 1600 L2400 0 L0 0  Z" fill="#ffffff" fill-rule="evenodd" fill-opacity="1"/>
<defs>
  <clipPath id="clip211">
    <rect x="480" y="0" width="1681" height="1600"/>
  </clipPath>
</defs>
<path clip-path="url(#clip210)" d="M209.029 1486.45 L2352.76 1486.45 L2352.76 47.2441 L209.029 47.2441  Z" fill="#ffffff" fill-rule="evenodd" fill-opacity="1"/>
<defs>
  <clipPath id="clip212">
    <rect x="209" y="47" width="2145" height="1440"/>
  </clipPath>
</defs>
<polyline clip-path="url(#clip212)" style="stroke:#000000; stroke-linecap:round; stroke-linejoin:round; stroke-width:2; stroke-opacity:0.1; fill:none" points="269.7,1486.45 269.7,47.2441 "/>
<polyline clip-path="url(#clip212)" style="stroke:#000000; stroke-linecap:round; stroke-linejoin:round; stroke-width:2; stroke-opacity:0.1; fill:none" points="775.549,1486.45 775.549,47.2441 "/>
<polyline clip-path="url(#clip212)" style="stroke:#000000; stroke-linecap:round; stroke-linejoin:round; stroke-width:2; stroke-opacity:0.1; fill:none" points="1281.4,1486.45 1281.4,47.2441 "/>
<polyline clip-path="url(#clip212)" style="stroke:#000000; stroke-linecap:round; stroke-linejoin:round; stroke-width:2; stroke-opacity:0.1; fill:none" points="1787.25,1486.45 1787.25,47.2441 "/>
<polyline clip-path="url(#clip212)" style="stroke:#000000; stroke-linecap:round; stroke-linejoin:round; stroke-width:2; stroke-opacity:0.1; fill:none" points="2293.1,1486.45 2293.1,47.2441 "/>
<polyline clip-path="url(#clip210)" style="stroke:#000000; stroke-linecap:round; stroke-linejoin:round; stroke-width:4; stroke-opacity:1; fill:none" points="209.029,1486.45 2352.76,1486.45 "/>
<polyline clip-path="url(#clip210)" style="stroke:#000000; stroke-linecap:round; stroke-linejoin:round; stroke-width:4; stroke-opacity:1; fill:none" points="269.7,1486.45 269.7,1467.55 "/>
<polyline clip-path="url(#clip210)" style="stroke:#000000; stroke-linecap:round; stroke-linejoin:round; stroke-width:4; stroke-opacity:1; fill:none" points="775.549,1486.45 775.549,1467.55 "/>
<polyline clip-path="url(#clip210)" style="stroke:#000000; stroke-linecap:round; stroke-linejoin:round; stroke-width:4; stroke-opacity:1; fill:none" points="1281.4,1486.45 1281.4,1467.55 "/>
<polyline clip-path="url(#clip210)" style="stroke:#000000; stroke-linecap:round; stroke-linejoin:round; stroke-width:4; stroke-opacity:1; fill:none" points="1787.25,1486.45 1787.25,1467.55 "/>
<polyline clip-path="url(#clip210)" style="stroke:#000000; stroke-linecap:round; stroke-linejoin:round; stroke-width:4; stroke-opacity:1; fill:none" points="2293.1,1486.45 2293.1,1467.55 "/>
<path clip-path="url(#clip210)" d="M269.7 1517.37 Q266.089 1517.37 264.26 1520.93 Q262.455 1524.47 262.455 1531.6 Q262.455 1538.71 264.26 1542.27 Q266.089 1545.82 269.7 1545.82 Q273.334 1545.82 275.14 1542.27 Q276.969 1538.71 276.969 1531.6 Q276.969 1524.47 275.14 1520.93 Q273.334 1517.37 269.7 1517.37 M269.7 1513.66 Q275.51 1513.66 278.566 1518.27 Q281.644 1522.85 281.644 1531.6 Q281.644 1540.33 278.566 1544.94 Q275.51 1549.52 269.7 1549.52 Q263.89 1549.52 260.811 1544.94 Q257.756 1540.33 257.756 1531.6 Q257.756 1522.85 260.811 1518.27 Q263.89 1513.66 269.7 1513.66 Z" fill="#000000" fill-rule="nonzero" fill-opacity="1" /><path clip-path="url(#clip210)" d="M735.167 1514.29 L753.524 1514.29 L753.524 1518.22 L739.45 1518.22 L739.45 1526.7 Q740.468 1526.35 741.487 1526.19 Q742.505 1526 743.524 1526 Q749.311 1526 752.69 1529.17 Q756.07 1532.34 756.07 1537.76 Q756.07 1543.34 752.598 1546.44 Q749.126 1549.52 742.806 1549.52 Q740.63 1549.52 738.362 1549.15 Q736.116 1548.78 733.709 1548.04 L733.709 1543.34 Q735.792 1544.47 738.015 1545.03 Q740.237 1545.58 742.714 1545.58 Q746.718 1545.58 749.056 1543.48 Q751.394 1541.37 751.394 1537.76 Q751.394 1534.15 749.056 1532.04 Q746.718 1529.94 742.714 1529.94 Q740.839 1529.94 738.964 1530.35 Q737.112 1530.77 735.167 1531.65 L735.167 1514.29 Z" fill="#000000" fill-rule="nonzero" fill-opacity="1" /><path clip-path="url(#clip210)" d="M775.283 1517.37 Q771.672 1517.37 769.843 1520.93 Q768.038 1524.47 768.038 1531.6 Q768.038 1538.71 769.843 1542.27 Q771.672 1545.82 775.283 1545.82 Q778.917 1545.82 780.723 1542.27 Q782.551 1538.71 782.551 1531.6 Q782.551 1524.47 780.723 1520.93 Q778.917 1517.37 775.283 1517.37 M775.283 1513.66 Q781.093 1513.66 784.149 1518.27 Q787.227 1522.85 787.227 1531.6 Q787.227 1540.33 784.149 1544.94 Q781.093 1549.52 775.283 1549.52 Q769.473 1549.52 766.394 1544.94 Q763.338 1540.33 763.338 1531.6 Q763.338 1522.85 766.394 1518.27 Q769.473 1513.66 775.283 1513.66 Z" fill="#000000" fill-rule="nonzero" fill-opacity="1" /><path clip-path="url(#clip210)" d="M805.445 1517.37 Q801.834 1517.37 800.005 1520.93 Q798.199 1524.47 798.199 1531.6 Q798.199 1538.71 800.005 1542.27 Q801.834 1545.82 805.445 1545.82 Q809.079 1545.82 810.885 1542.27 Q812.713 1538.71 812.713 1531.6 Q812.713 1524.47 810.885 1520.93 Q809.079 1517.37 805.445 1517.37 M805.445 1513.66 Q811.255 1513.66 814.31 1518.27 Q817.389 1522.85 817.389 1531.6 Q817.389 1540.33 814.31 1544.94 Q811.255 1549.52 805.445 1549.52 Q799.635 1549.52 796.556 1544.94 Q793.5 1540.33 793.5 1531.6 Q793.5 1522.85 796.556 1518.27 Q799.635 1513.66 805.445 1513.66 Z" fill="#000000" fill-rule="nonzero" fill-opacity="1" /><path clip-path="url(#clip210)" d="M1225.92 1544.91 L1233.56 1544.91 L1233.56 1518.55 L1225.25 1520.21 L1225.25 1515.95 L1233.52 1514.29 L1238.19 1514.29 L1238.19 1544.91 L1245.83 1544.91 L1245.83 1548.85 L1225.92 1548.85 L1225.92 1544.91 Z" fill="#000000" fill-rule="nonzero" fill-opacity="1" /><path clip-path="url(#clip210)" d="M1265.28 1517.37 Q1261.66 1517.37 1259.84 1520.93 Q1258.03 1524.47 1258.03 1531.6 Q1258.03 1538.71 1259.84 1542.27 Q1261.66 1545.82 1265.28 1545.82 Q1268.91 1545.82 1270.72 1542.27 Q1272.54 1538.71 1272.54 1531.6 Q1272.54 1524.47 1270.72 1520.93 Q1268.91 1517.37 1265.28 1517.37 M1265.28 1513.66 Q1271.09 1513.66 1274.14 1518.27 Q1277.22 1522.85 1277.22 1531.6 Q1277.22 1540.33 1274.14 1544.94 Q1271.09 1549.52 1265.28 1549.52 Q1259.47 1549.52 1256.39 1544.94 Q1253.33 1540.33 1253.33 1531.6 Q1253.33 1522.85 1256.39 1518.27 Q1259.47 1513.66 1265.28 1513.66 Z" fill="#000000" fill-rule="nonzero" fill-opacity="1" /><path clip-path="url(#clip210)" d="M1295.44 1517.37 Q1291.83 1517.37 1290 1520.93 Q1288.19 1524.47 1288.19 1531.6 Q1288.19 1538.71 1290 1542.27 Q1291.83 1545.82 1295.44 1545.82 Q1299.07 1545.82 1300.88 1542.27 Q1302.71 1538.71 1302.71 1531.6 Q1302.71 1524.47 1300.88 1520.93 Q1299.07 1517.37 1295.44 1517.37 M1295.44 1513.66 Q1301.25 1513.66 1304.3 1518.27 Q1307.38 1522.85 1307.38 1531.6 Q1307.38 1540.33 1304.3 1544.94 Q1301.25 1549.52 1295.44 1549.52 Q1289.63 1549.52 1286.55 1544.94 Q1283.49 1540.33 1283.49 1531.6 Q1283.49 1522.85 1286.55 1518.27 Q1289.63 1513.66 1295.44 1513.66 Z" fill="#000000" fill-rule="nonzero" fill-opacity="1" /><path clip-path="url(#clip210)" d="M1325.6 1517.37 Q1321.99 1517.37 1320.16 1520.93 Q1318.35 1524.47 1318.35 1531.6 Q1318.35 1538.71 1320.16 1542.27 Q1321.99 1545.82 1325.6 1545.82 Q1329.23 1545.82 1331.04 1542.27 Q1332.87 1538.71 1332.87 1531.6 Q1332.87 1524.47 1331.04 1520.93 Q1329.23 1517.37 1325.6 1517.37 M1325.6 1513.66 Q1331.41 1513.66 1334.46 1518.27 Q1337.54 1522.85 1337.54 1531.6 Q1337.54 1540.33 1334.46 1544.94 Q1331.41 1549.52 1325.6 1549.52 Q1319.79 1549.52 1316.71 1544.94 Q1313.65 1540.33 1313.65 1531.6 Q1313.65 1522.85 1316.71 1518.27 Q1319.79 1513.66 1325.6 1513.66 Z" fill="#000000" fill-rule="nonzero" fill-opacity="1" /><path clip-path="url(#clip210)" d="M1731.77 1544.91 L1739.41 1544.91 L1739.41 1518.55 L1731.1 1520.21 L1731.1 1515.95 L1739.37 1514.29 L1744.04 1514.29 L1744.04 1544.91 L1751.68 1544.91 L1751.68 1548.85 L1731.77 1548.85 L1731.77 1544.91 Z" fill="#000000" fill-rule="nonzero" fill-opacity="1" /><path clip-path="url(#clip210)" d="M1761.17 1514.29 L1779.53 1514.29 L1779.53 1518.22 L1765.45 1518.22 L1765.45 1526.7 Q1766.47 1526.35 1767.49 1526.19 Q1768.51 1526 1769.53 1526 Q1775.31 1526 1778.69 1529.17 Q1782.07 1532.34 1782.07 1537.76 Q1782.07 1543.34 1778.6 1546.44 Q1775.13 1549.52 1768.81 1549.52 Q1766.63 1549.52 1764.37 1549.15 Q1762.12 1548.78 1759.71 1548.04 L1759.71 1543.34 Q1761.8 1544.47 1764.02 1545.03 Q1766.24 1545.58 1768.72 1545.58 Q1772.72 1545.58 1775.06 1543.48 Q1777.4 1541.37 1777.4 1537.76 Q1777.4 1534.15 1775.06 1532.04 Q1772.72 1529.94 1768.72 1529.94 Q1766.84 1529.94 1764.97 1530.35 Q1763.12 1530.77 1761.17 1531.65 L1761.17 1514.29 Z" fill="#000000" fill-rule="nonzero" fill-opacity="1" /><path clip-path="url(#clip210)" d="M1801.29 1517.37 Q1797.68 1517.37 1795.85 1520.93 Q1794.04 1524.47 1794.04 1531.6 Q1794.04 1538.71 1795.85 1542.27 Q1797.68 1545.82 1801.29 1545.82 Q1804.92 1545.82 1806.73 1542.27 Q1808.55 1538.71 1808.55 1531.6 Q1808.55 1524.47 1806.73 1520.93 Q1804.92 1517.37 1801.29 1517.37 M1801.29 1513.66 Q1807.1 1513.66 1810.15 1518.27 Q1813.23 1522.85 1813.23 1531.6 Q1813.23 1540.33 1810.15 1544.94 Q1807.1 1549.52 1801.29 1549.52 Q1795.48 1549.52 1792.4 1544.94 Q1789.34 1540.33 1789.34 1531.6 Q1789.34 1522.85 1792.4 1518.27 Q1795.48 1513.66 1801.29 1513.66 Z" fill="#000000" fill-rule="nonzero" fill-opacity="1" /><path clip-path="url(#clip210)" d="M1831.45 1517.37 Q1827.84 1517.37 1826.01 1520.93 Q1824.2 1524.47 1824.2 1531.6 Q1824.2 1538.71 1826.01 1542.27 Q1827.84 1545.82 1831.45 1545.82 Q1835.08 1545.82 1836.89 1542.27 Q1838.72 1538.71 1838.72 1531.6 Q1838.72 1524.47 1836.89 1520.93 Q1835.08 1517.37 1831.45 1517.37 M1831.45 1513.66 Q1837.26 1513.66 1840.31 1518.27 Q1843.39 1522.85 1843.39 1531.6 Q1843.39 1540.33 1840.31 1544.94 Q1837.26 1549.52 1831.45 1549.52 Q1825.64 1549.52 1822.56 1544.94 Q1819.5 1540.33 1819.5 1531.6 Q1819.5 1522.85 1822.56 1518.27 Q1825.64 1513.66 1831.45 1513.66 Z" fill="#000000" fill-rule="nonzero" fill-opacity="1" /><path clip-path="url(#clip210)" d="M2241.71 1544.91 L2258.03 1544.91 L2258.03 1548.85 L2236.08 1548.85 L2236.08 1544.91 Q2238.74 1542.16 2243.33 1537.53 Q2247.93 1532.88 2249.11 1531.53 Q2251.36 1529.01 2252.24 1527.27 Q2253.14 1525.51 2253.14 1523.82 Q2253.14 1521.07 2251.2 1519.33 Q2249.28 1517.6 2246.18 1517.6 Q2243.98 1517.6 2241.52 1518.36 Q2239.09 1519.13 2236.31 1520.68 L2236.31 1515.95 Q2239.14 1514.82 2241.59 1514.24 Q2244.05 1513.66 2246.08 1513.66 Q2251.45 1513.66 2254.65 1516.35 Q2257.84 1519.03 2257.84 1523.52 Q2257.84 1525.65 2257.03 1527.57 Q2256.24 1529.47 2254.14 1532.07 Q2253.56 1532.74 2250.46 1535.95 Q2247.36 1539.15 2241.71 1544.91 Z" fill="#000000" fill-rule="nonzero" fill-opacity="1" /><path clip-path="url(#clip210)" d="M2277.84 1517.37 Q2274.23 1517.37 2272.4 1520.93 Q2270.6 1524.47 2270.6 1531.6 Q2270.6 1538.71 2272.4 1542.27 Q2274.23 1545.82 2277.84 1545.82 Q2281.48 1545.82 2283.28 1542.27 Q2285.11 1538.71 2285.11 1531.6 Q2285.11 1524.47 2283.28 1520.93 Q2281.48 1517.37 2277.84 1517.37 M2277.84 1513.66 Q2283.65 1513.66 2286.71 1518.27 Q2289.79 1522.85 2289.79 1531.6 Q2289.79 1540.33 2286.71 1544.94 Q2283.65 1549.52 2277.84 1549.52 Q2272.03 1549.52 2268.95 1544.94 Q2265.9 1540.33 2265.9 1531.6 Q2265.9 1522.85 2268.95 1518.27 Q2272.03 1513.66 2277.84 1513.66 Z" fill="#000000" fill-rule="nonzero" fill-opacity="1" /><path clip-path="url(#clip210)" d="M2308 1517.37 Q2304.39 1517.37 2302.56 1520.93 Q2300.76 1524.47 2300.76 1531.6 Q2300.76 1538.71 2302.56 1542.27 Q2304.39 1545.82 2308 1545.82 Q2311.64 1545.82 2313.44 1542.27 Q2315.27 1538.71 2315.27 1531.6 Q2315.27 1524.47 2313.44 1520.93 Q2311.64 1517.37 2308 1517.37 M2308 1513.66 Q2313.81 1513.66 2316.87 1518.27 Q2319.95 1522.85 2319.95 1531.6 Q2319.95 1540.33 2316.87 1544.94 Q2313.81 1549.52 2308 1549.52 Q2302.19 1549.52 2299.11 1544.94 Q2296.06 1540.33 2296.06 1531.6 Q2296.06 1522.85 2299.11 1518.27 Q2302.19 1513.66 2308 1513.66 Z" fill="#000000" fill-rule="nonzero" fill-opacity="1" /><path clip-path="url(#clip210)" d="M2338.17 1517.37 Q2334.55 1517.37 2332.73 1520.93 Q2330.92 1524.47 2330.92 1531.6 Q2330.92 1538.71 2332.73 1542.27 Q2334.55 1545.82 2338.17 1545.82 Q2341.8 1545.82 2343.61 1542.27 Q2345.43 1538.71 2345.43 1531.6 Q2345.43 1524.47 2343.61 1520.93 Q2341.8 1517.37 2338.17 1517.37 M2338.17 1513.66 Q2343.98 1513.66 2347.03 1518.27 Q2350.11 1522.85 2350.11 1531.6 Q2350.11 1540.33 2347.03 1544.94 Q2343.98 1549.52 2338.17 1549.52 Q2332.36 1549.52 2329.28 1544.94 Q2326.22 1540.33 2326.22 1531.6 Q2326.22 1522.85 2329.28 1518.27 Q2332.36 1513.66 2338.17 1513.66 Z" fill="#000000" fill-rule="nonzero" fill-opacity="1" /><polyline clip-path="url(#clip212)" style="stroke:#000000; stroke-linecap:round; stroke-linejoin:round; stroke-width:2; stroke-opacity:0.1; fill:none" points="209.029,1416.81 2352.76,1416.81 "/>
<polyline clip-path="url(#clip212)" style="stroke:#000000; stroke-linecap:round; stroke-linejoin:round; stroke-width:2; stroke-opacity:0.1; fill:none" points="209.029,1191.53 2352.76,1191.53 "/>
<polyline clip-path="url(#clip212)" style="stroke:#000000; stroke-linecap:round; stroke-linejoin:round; stroke-width:2; stroke-opacity:0.1; fill:none" points="209.029,966.25 2352.76,966.25 "/>
<polyline clip-path="url(#clip212)" style="stroke:#000000; stroke-linecap:round; stroke-linejoin:round; stroke-width:2; stroke-opacity:0.1; fill:none" points="209.029,740.97 2352.76,740.97 "/>
<polyline clip-path="url(#clip212)" style="stroke:#000000; stroke-linecap:round; stroke-linejoin:round; stroke-width:2; stroke-opacity:0.1; fill:none" points="209.029,515.69 2352.76,515.69 "/>
<polyline clip-path="url(#clip212)" style="stroke:#000000; stroke-linecap:round; stroke-linejoin:round; stroke-width:2; stroke-opacity:0.1; fill:none" points="209.029,290.411 2352.76,290.411 "/>
<polyline clip-path="url(#clip212)" style="stroke:#000000; stroke-linecap:round; stroke-linejoin:round; stroke-width:2; stroke-opacity:0.1; fill:none" points="209.029,65.131 2352.76,65.131 "/>
<polyline clip-path="url(#clip210)" style="stroke:#000000; stroke-linecap:round; stroke-linejoin:round; stroke-width:4; stroke-opacity:1; fill:none" points="209.029,1486.45 209.029,47.2441 "/>
<polyline clip-path="url(#clip210)" style="stroke:#000000; stroke-linecap:round; stroke-linejoin:round; stroke-width:4; stroke-opacity:1; fill:none" points="209.029,1416.81 227.926,1416.81 "/>
<polyline clip-path="url(#clip210)" style="stroke:#000000; stroke-linecap:round; stroke-linejoin:round; stroke-width:4; stroke-opacity:1; fill:none" points="209.029,1191.53 227.926,1191.53 "/>
<polyline clip-path="url(#clip210)" style="stroke:#000000; stroke-linecap:round; stroke-linejoin:round; stroke-width:4; stroke-opacity:1; fill:none" points="209.029,966.25 227.926,966.25 "/>
<polyline clip-path="url(#clip210)" style="stroke:#000000; stroke-linecap:round; stroke-linejoin:round; stroke-width:4; stroke-opacity:1; fill:none" points="209.029,740.97 227.926,740.97 "/>
<polyline clip-path="url(#clip210)" style="stroke:#000000; stroke-linecap:round; stroke-linejoin:round; stroke-width:4; stroke-opacity:1; fill:none" points="209.029,515.69 227.926,515.69 "/>
<polyline clip-path="url(#clip210)" style="stroke:#000000; stroke-linecap:round; stroke-linejoin:round; stroke-width:4; stroke-opacity:1; fill:none" points="209.029,290.411 227.926,290.411 "/>
<polyline clip-path="url(#clip210)" style="stroke:#000000; stroke-linecap:round; stroke-linejoin:round; stroke-width:4; stroke-opacity:1; fill:none" points="209.029,65.131 227.926,65.131 "/>
<path clip-path="url(#clip210)" d="M50.9921 1417.26 L80.6679 1417.26 L80.6679 1421.2 L50.9921 1421.2 L50.9921 1417.26 Z" fill="#000000" fill-rule="nonzero" fill-opacity="1" /><path clip-path="url(#clip210)" d="M100.76 1417.68 Q97.4271 1417.68 95.5058 1419.46 Q93.6076 1421.24 93.6076 1424.37 Q93.6076 1427.49 95.5058 1429.27 Q97.4271 1431.06 100.76 1431.06 Q104.094 1431.06 106.015 1429.27 Q107.936 1427.47 107.936 1424.37 Q107.936 1421.24 106.015 1419.46 Q104.117 1417.68 100.76 1417.68 M96.0845 1415.69 Q93.0752 1414.95 91.3854 1412.89 Q89.7188 1410.83 89.7188 1407.86 Q89.7188 1403.72 92.6586 1401.31 Q95.6215 1398.9 100.76 1398.9 Q105.922 1398.9 108.862 1401.31 Q111.802 1403.72 111.802 1407.86 Q111.802 1410.83 110.112 1412.89 Q108.446 1414.95 105.459 1415.69 Q108.839 1416.47 110.714 1418.76 Q112.612 1421.06 112.612 1424.37 Q112.612 1429.39 109.533 1432.08 Q106.478 1434.76 100.76 1434.76 Q95.0428 1434.76 91.9641 1432.08 Q88.9086 1429.39 88.9086 1424.37 Q88.9086 1421.06 90.8067 1418.76 Q92.7049 1416.47 96.0845 1415.69 M94.3715 1408.3 Q94.3715 1410.99 96.0382 1412.49 Q97.728 1414 100.76 1414 Q103.77 1414 105.459 1412.49 Q107.172 1410.99 107.172 1408.3 Q107.172 1405.62 105.459 1404.11 Q103.77 1402.61 100.76 1402.61 Q97.728 1402.61 96.0382 1404.11 Q94.3715 1405.62 94.3715 1408.3 Z" fill="#000000" fill-rule="nonzero" fill-opacity="1" /><path clip-path="url(#clip210)" d="M130.922 1402.61 Q127.311 1402.61 125.482 1406.17 Q123.677 1409.71 123.677 1416.84 Q123.677 1423.95 125.482 1427.51 Q127.311 1431.06 130.922 1431.06 Q134.556 1431.06 136.362 1427.51 Q138.191 1423.95 138.191 1416.84 Q138.191 1409.71 136.362 1406.17 Q134.556 1402.61 130.922 1402.61 M130.922 1398.9 Q136.732 1398.9 139.788 1403.51 Q142.867 1408.09 142.867 1416.84 Q142.867 1425.57 139.788 1430.18 Q136.732 1434.76 130.922 1434.76 Q125.112 1434.76 122.033 1430.18 Q118.978 1425.57 118.978 1416.84 Q118.978 1408.09 122.033 1403.51 Q125.112 1398.9 130.922 1398.9 Z" fill="#000000" fill-rule="nonzero" fill-opacity="1" /><path clip-path="url(#clip210)" d="M161.084 1402.61 Q157.473 1402.61 155.644 1406.17 Q153.839 1409.71 153.839 1416.84 Q153.839 1423.95 155.644 1427.51 Q157.473 1431.06 161.084 1431.06 Q164.718 1431.06 166.524 1427.51 Q168.353 1423.95 168.353 1416.84 Q168.353 1409.71 166.524 1406.17 Q164.718 1402.61 161.084 1402.61 M161.084 1398.9 Q166.894 1398.9 169.95 1403.51 Q173.029 1408.09 173.029 1416.84 Q173.029 1425.57 169.95 1430.18 Q166.894 1434.76 161.084 1434.76 Q155.274 1434.76 152.195 1430.18 Q149.14 1425.57 149.14 1416.84 Q149.14 1408.09 152.195 1403.51 Q155.274 1398.9 161.084 1398.9 Z" fill="#000000" fill-rule="nonzero" fill-opacity="1" /><path clip-path="url(#clip210)" d="M50.9921 1191.98 L80.6679 1191.98 L80.6679 1195.92 L50.9921 1195.92 L50.9921 1191.98 Z" fill="#000000" fill-rule="nonzero" fill-opacity="1" /><path clip-path="url(#clip210)" d="M89.5799 1174.25 L111.802 1174.25 L111.802 1176.24 L99.2558 1208.81 L94.3715 1208.81 L106.177 1178.18 L89.5799 1178.18 L89.5799 1174.25 Z" fill="#000000" fill-rule="nonzero" fill-opacity="1" /><path clip-path="url(#clip210)" d="M130.922 1177.33 Q127.311 1177.33 125.482 1180.89 Q123.677 1184.43 123.677 1191.56 Q123.677 1198.67 125.482 1202.24 Q127.311 1205.78 130.922 1205.78 Q134.556 1205.78 136.362 1202.24 Q138.191 1198.67 138.191 1191.56 Q138.191 1184.43 136.362 1180.89 Q134.556 1177.33 130.922 1177.33 M130.922 1173.62 Q136.732 1173.62 139.788 1178.23 Q142.867 1182.81 142.867 1191.56 Q142.867 1200.29 139.788 1204.9 Q136.732 1209.48 130.922 1209.48 Q125.112 1209.48 122.033 1204.9 Q118.978 1200.29 118.978 1191.56 Q118.978 1182.81 122.033 1178.23 Q125.112 1173.62 130.922 1173.62 Z" fill="#000000" fill-rule="nonzero" fill-opacity="1" /><path clip-path="url(#clip210)" d="M161.084 1177.33 Q157.473 1177.33 155.644 1180.89 Q153.839 1184.43 153.839 1191.56 Q153.839 1198.67 155.644 1202.24 Q157.473 1205.78 161.084 1205.78 Q164.718 1205.78 166.524 1202.24 Q168.353 1198.67 168.353 1191.56 Q168.353 1184.43 166.524 1180.89 Q164.718 1177.33 161.084 1177.33 M161.084 1173.62 Q166.894 1173.62 169.95 1178.23 Q173.029 1182.81 173.029 1191.56 Q173.029 1200.29 169.95 1204.9 Q166.894 1209.48 161.084 1209.48 Q155.274 1209.48 152.195 1204.9 Q149.14 1200.29 149.14 1191.56 Q149.14 1182.81 152.195 1178.23 Q155.274 1173.62 161.084 1173.62 Z" fill="#000000" fill-rule="nonzero" fill-opacity="1" /><path clip-path="url(#clip210)" d="M50.9921 966.701 L80.6679 966.701 L80.6679 970.636 L50.9921 970.636 L50.9921 966.701 Z" fill="#000000" fill-rule="nonzero" fill-opacity="1" /><path clip-path="url(#clip210)" d="M101.339 964.386 Q98.1909 964.386 96.3391 966.539 Q94.5104 968.692 94.5104 972.442 Q94.5104 976.169 96.3391 978.344 Q98.1909 980.497 101.339 980.497 Q104.487 980.497 106.316 978.344 Q108.168 976.169 108.168 972.442 Q108.168 968.692 106.316 966.539 Q104.487 964.386 101.339 964.386 M110.621 949.734 L110.621 953.993 Q108.862 953.159 107.057 952.72 Q105.274 952.28 103.515 952.28 Q98.8854 952.28 96.4317 955.405 Q94.0012 958.53 93.6539 964.849 Q95.0197 962.835 97.0798 961.77 Q99.14 960.683 101.617 960.683 Q106.825 960.683 109.834 963.854 Q112.867 967.002 112.867 972.442 Q112.867 977.766 109.719 980.983 Q106.571 984.201 101.339 984.201 Q95.3437 984.201 92.1725 979.618 Q89.0012 975.011 89.0012 966.284 Q89.0012 958.09 92.89 953.229 Q96.7789 948.345 103.33 948.345 Q105.089 948.345 106.871 948.692 Q108.677 949.039 110.621 949.734 Z" fill="#000000" fill-rule="nonzero" fill-opacity="1" /><path clip-path="url(#clip210)" d="M130.922 952.048 Q127.311 952.048 125.482 955.613 Q123.677 959.155 123.677 966.284 Q123.677 973.391 125.482 976.956 Q127.311 980.497 130.922 980.497 Q134.556 980.497 136.362 976.956 Q138.191 973.391 138.191 966.284 Q138.191 959.155 136.362 955.613 Q134.556 952.048 130.922 952.048 M130.922 948.345 Q136.732 948.345 139.788 952.951 Q142.867 957.534 142.867 966.284 Q142.867 975.011 139.788 979.618 Q136.732 984.201 130.922 984.201 Q125.112 984.201 122.033 979.618 Q118.978 975.011 118.978 966.284 Q118.978 957.534 122.033 952.951 Q125.112 948.345 130.922 948.345 Z" fill="#000000" fill-rule="nonzero" fill-opacity="1" /><path clip-path="url(#clip210)" d="M161.084 952.048 Q157.473 952.048 155.644 955.613 Q153.839 959.155 153.839 966.284 Q153.839 973.391 155.644 976.956 Q157.473 980.497 161.084 980.497 Q164.718 980.497 166.524 976.956 Q168.353 973.391 168.353 966.284 Q168.353 959.155 166.524 955.613 Q164.718 952.048 161.084 952.048 M161.084 948.345 Q166.894 948.345 169.95 952.951 Q173.029 957.534 173.029 966.284 Q173.029 975.011 169.95 979.618 Q166.894 984.201 161.084 984.201 Q155.274 984.201 152.195 979.618 Q149.14 975.011 149.14 966.284 Q149.14 957.534 152.195 952.951 Q155.274 948.345 161.084 948.345 Z" fill="#000000" fill-rule="nonzero" fill-opacity="1" /><path clip-path="url(#clip210)" d="M50.9921 741.421 L80.6679 741.421 L80.6679 745.357 L50.9921 745.357 L50.9921 741.421 Z" fill="#000000" fill-rule="nonzero" fill-opacity="1" /><path clip-path="url(#clip210)" d="M90.8067 723.69 L109.163 723.69 L109.163 727.625 L95.0891 727.625 L95.0891 736.097 Q96.1076 735.75 97.1261 735.588 Q98.1447 735.403 99.1632 735.403 Q104.95 735.403 108.33 738.574 Q111.709 741.745 111.709 747.162 Q111.709 752.741 108.237 755.843 Q104.765 758.921 98.4456 758.921 Q96.2697 758.921 94.0012 758.551 Q91.7558 758.181 89.3484 757.44 L89.3484 752.741 Q91.4317 753.875 93.6539 754.431 Q95.8761 754.986 98.353 754.986 Q102.358 754.986 104.696 752.88 Q107.033 750.773 107.033 747.162 Q107.033 743.551 104.696 741.444 Q102.358 739.338 98.353 739.338 Q96.478 739.338 94.603 739.755 Q92.7512 740.171 90.8067 741.051 L90.8067 723.69 Z" fill="#000000" fill-rule="nonzero" fill-opacity="1" /><path clip-path="url(#clip210)" d="M130.922 726.769 Q127.311 726.769 125.482 730.333 Q123.677 733.875 123.677 741.005 Q123.677 748.111 125.482 751.676 Q127.311 755.218 130.922 755.218 Q134.556 755.218 136.362 751.676 Q138.191 748.111 138.191 741.005 Q138.191 733.875 136.362 730.333 Q134.556 726.769 130.922 726.769 M130.922 723.065 Q136.732 723.065 139.788 727.671 Q142.867 732.255 142.867 741.005 Q142.867 749.731 139.788 754.338 Q136.732 758.921 130.922 758.921 Q125.112 758.921 122.033 754.338 Q118.978 749.731 118.978 741.005 Q118.978 732.255 122.033 727.671 Q125.112 723.065 130.922 723.065 Z" fill="#000000" fill-rule="nonzero" fill-opacity="1" /><path clip-path="url(#clip210)" d="M161.084 726.769 Q157.473 726.769 155.644 730.333 Q153.839 733.875 153.839 741.005 Q153.839 748.111 155.644 751.676 Q157.473 755.218 161.084 755.218 Q164.718 755.218 166.524 751.676 Q168.353 748.111 168.353 741.005 Q168.353 733.875 166.524 730.333 Q164.718 726.769 161.084 726.769 M161.084 723.065 Q166.894 723.065 169.95 727.671 Q173.029 732.255 173.029 741.005 Q173.029 749.731 169.95 754.338 Q166.894 758.921 161.084 758.921 Q155.274 758.921 152.195 754.338 Q149.14 749.731 149.14 741.005 Q149.14 732.255 152.195 727.671 Q155.274 723.065 161.084 723.065 Z" fill="#000000" fill-rule="nonzero" fill-opacity="1" /><path clip-path="url(#clip210)" d="M50.9921 516.142 L80.6679 516.142 L80.6679 520.077 L50.9921 520.077 L50.9921 516.142 Z" fill="#000000" fill-rule="nonzero" fill-opacity="1" /><path clip-path="url(#clip210)" d="M103.608 502.484 L91.8021 520.933 L103.608 520.933 L103.608 502.484 M102.381 498.41 L108.26 498.41 L108.26 520.933 L113.191 520.933 L113.191 524.822 L108.26 524.822 L108.26 532.97 L103.608 532.97 L103.608 524.822 L88.0058 524.822 L88.0058 520.308 L102.381 498.41 Z" fill="#000000" fill-rule="nonzero" fill-opacity="1" /><path clip-path="url(#clip210)" d="M130.922 501.489 Q127.311 501.489 125.482 505.054 Q123.677 508.595 123.677 515.725 Q123.677 522.831 125.482 526.396 Q127.311 529.938 130.922 529.938 Q134.556 529.938 136.362 526.396 Q138.191 522.831 138.191 515.725 Q138.191 508.595 136.362 505.054 Q134.556 501.489 130.922 501.489 M130.922 497.785 Q136.732 497.785 139.788 502.392 Q142.867 506.975 142.867 515.725 Q142.867 524.452 139.788 529.058 Q136.732 533.642 130.922 533.642 Q125.112 533.642 122.033 529.058 Q118.978 524.452 118.978 515.725 Q118.978 506.975 122.033 502.392 Q125.112 497.785 130.922 497.785 Z" fill="#000000" fill-rule="nonzero" fill-opacity="1" /><path clip-path="url(#clip210)" d="M161.084 501.489 Q157.473 501.489 155.644 505.054 Q153.839 508.595 153.839 515.725 Q153.839 522.831 155.644 526.396 Q157.473 529.938 161.084 529.938 Q164.718 529.938 166.524 526.396 Q168.353 522.831 168.353 515.725 Q168.353 508.595 166.524 505.054 Q164.718 501.489 161.084 501.489 M161.084 497.785 Q166.894 497.785 169.95 502.392 Q173.029 506.975 173.029 515.725 Q173.029 524.452 169.95 529.058 Q166.894 533.642 161.084 533.642 Q155.274 533.642 152.195 529.058 Q149.14 524.452 149.14 515.725 Q149.14 506.975 152.195 502.392 Q155.274 497.785 161.084 497.785 Z" fill="#000000" fill-rule="nonzero" fill-opacity="1" /><path clip-path="url(#clip210)" d="M50.9921 290.862 L80.6679 290.862 L80.6679 294.797 L50.9921 294.797 L50.9921 290.862 Z" fill="#000000" fill-rule="nonzero" fill-opacity="1" /><path clip-path="url(#clip210)" d="M104.927 289.056 Q108.283 289.774 110.158 292.043 Q112.057 294.311 112.057 297.644 Q112.057 302.76 108.538 305.561 Q105.02 308.362 98.5382 308.362 Q96.3623 308.362 94.0475 307.922 Q91.7558 307.505 89.3021 306.649 L89.3021 302.135 Q91.2465 303.269 93.5613 303.848 Q95.8761 304.427 98.3993 304.427 Q102.797 304.427 105.089 302.691 Q107.404 300.955 107.404 297.644 Q107.404 294.589 105.251 292.876 Q103.121 291.14 99.3021 291.14 L95.2743 291.14 L95.2743 287.297 L99.4872 287.297 Q102.936 287.297 104.765 285.931 Q106.594 284.543 106.594 281.95 Q106.594 279.288 104.696 277.876 Q102.821 276.441 99.3021 276.441 Q97.3808 276.441 95.1817 276.857 Q92.9826 277.274 90.3438 278.154 L90.3438 273.987 Q93.0058 273.246 95.3206 272.876 Q97.6585 272.506 99.7187 272.506 Q105.043 272.506 108.145 274.936 Q111.246 277.344 111.246 281.464 Q111.246 284.334 109.603 286.325 Q107.959 288.293 104.927 289.056 Z" fill="#000000" fill-rule="nonzero" fill-opacity="1" /><path clip-path="url(#clip210)" d="M130.922 276.209 Q127.311 276.209 125.482 279.774 Q123.677 283.316 123.677 290.445 Q123.677 297.552 125.482 301.117 Q127.311 304.658 130.922 304.658 Q134.556 304.658 136.362 301.117 Q138.191 297.552 138.191 290.445 Q138.191 283.316 136.362 279.774 Q134.556 276.209 130.922 276.209 M130.922 272.506 Q136.732 272.506 139.788 277.112 Q142.867 281.695 142.867 290.445 Q142.867 299.172 139.788 303.779 Q136.732 308.362 130.922 308.362 Q125.112 308.362 122.033 303.779 Q118.978 299.172 118.978 290.445 Q118.978 281.695 122.033 277.112 Q125.112 272.506 130.922 272.506 Z" fill="#000000" fill-rule="nonzero" fill-opacity="1" /><path clip-path="url(#clip210)" d="M161.084 276.209 Q157.473 276.209 155.644 279.774 Q153.839 283.316 153.839 290.445 Q153.839 297.552 155.644 301.117 Q157.473 304.658 161.084 304.658 Q164.718 304.658 166.524 301.117 Q168.353 297.552 168.353 290.445 Q168.353 283.316 166.524 279.774 Q164.718 276.209 161.084 276.209 M161.084 272.506 Q166.894 272.506 169.95 277.112 Q173.029 281.695 173.029 290.445 Q173.029 299.172 169.95 303.779 Q166.894 308.362 161.084 308.362 Q155.274 308.362 152.195 303.779 Q149.14 299.172 149.14 290.445 Q149.14 281.695 152.195 277.112 Q155.274 272.506 161.084 272.506 Z" fill="#000000" fill-rule="nonzero" fill-opacity="1" /><path clip-path="url(#clip210)" d="M50.9921 65.5823 L80.6679 65.5823 L80.6679 69.5175 L50.9921 69.5175 L50.9921 65.5823 Z" fill="#000000" fill-rule="nonzero" fill-opacity="1" /><path clip-path="url(#clip210)" d="M94.7882 78.4758 L111.108 78.4758 L111.108 82.411 L89.1632 82.411 L89.1632 78.4758 Q91.8252 75.7212 96.4085 71.0916 Q101.015 66.4388 102.196 65.0962 Q104.441 62.5731 105.321 60.837 Q106.223 59.0777 106.223 57.3879 Q106.223 54.6333 104.279 52.8972 Q102.358 51.1611 99.2558 51.1611 Q97.0567 51.1611 94.603 51.925 Q92.1725 52.6889 89.3947 54.2398 L89.3947 49.5176 Q92.2188 48.3834 94.6724 47.8047 Q97.1261 47.226 99.1632 47.226 Q104.534 47.226 107.728 49.9111 Q110.922 52.5963 110.922 57.087 Q110.922 59.2166 110.112 61.1379 Q109.325 63.0361 107.219 65.6286 Q106.64 66.2999 103.538 69.5175 Q100.436 72.7119 94.7882 78.4758 Z" fill="#000000" fill-rule="nonzero" fill-opacity="1" /><path clip-path="url(#clip210)" d="M130.922 50.9296 Q127.311 50.9296 125.482 54.4944 Q123.677 58.0361 123.677 65.1657 Q123.677 72.2721 125.482 75.8369 Q127.311 79.3786 130.922 79.3786 Q134.556 79.3786 136.362 75.8369 Q138.191 72.2721 138.191 65.1657 Q138.191 58.0361 136.362 54.4944 Q134.556 50.9296 130.922 50.9296 M130.922 47.226 Q136.732 47.226 139.788 51.8324 Q142.867 56.4157 142.867 65.1657 Q142.867 73.8925 139.788 78.4989 Q136.732 83.0822 130.922 83.0822 Q125.112 83.0822 122.033 78.4989 Q118.978 73.8925 118.978 65.1657 Q118.978 56.4157 122.033 51.8324 Q125.112 47.226 130.922 47.226 Z" fill="#000000" fill-rule="nonzero" fill-opacity="1" /><path clip-path="url(#clip210)" d="M161.084 50.9296 Q157.473 50.9296 155.644 54.4944 Q153.839 58.0361 153.839 65.1657 Q153.839 72.2721 155.644 75.8369 Q157.473 79.3786 161.084 79.3786 Q164.718 79.3786 166.524 75.8369 Q168.353 72.2721 168.353 65.1657 Q168.353 58.0361 166.524 54.4944 Q164.718 50.9296 161.084 50.9296 M161.084 47.226 Q166.894 47.226 169.95 51.8324 Q173.029 56.4157 173.029 65.1657 Q173.029 73.8925 169.95 78.4989 Q166.894 83.0822 161.084 83.0822 Q155.274 83.0822 152.195 78.4989 Q149.14 73.8925 149.14 65.1657 Q149.14 56.4157 152.195 51.8324 Q155.274 47.226 161.084 47.226 Z" fill="#000000" fill-rule="nonzero" fill-opacity="1" /><polyline clip-path="url(#clip212)" style="stroke:#009af9; stroke-linecap:round; stroke-linejoin:round; stroke-width:4; stroke-opacity:1; fill:none" points="269.7,109.573 270.712,109.586 271.723,145.559 272.735,145.581 273.747,282.973 274.759,283.014 275.77,254.906 276.782,254.931 277.794,347.065 278.805,347.086 279.817,122.543 280.829,122.56 281.84,172.514 282.852,172.537 283.864,305.451 284.876,305.493 285.887,266.192 286.899,266.217 287.911,185.7 288.922,185.737 289.934,245.949 290.946,245.974 291.957,94.0355 292.969,94.0554 293.981,289.864 294.992,289.902 296.004,336.466 297.016,336.475 298.028,188.93 299.039,188.95 300.051,212.023 301.063,212.042 302.074,122.076 303.086,122.102 304.098,219.786 305.109,219.813 306.121,302.951 307.133,302.979 308.145,273.019 309.156,273.032 310.168,172.066 311.18,172.079 312.191,220.38 313.203,220.378 314.215,346.323 315.226,346.346 316.238,227.773 317.25,227.803 318.262,225.163 319.273,225.187 320.285,384.515 321.297,384.557 322.308,177.861 323.32,177.868 324.332,425.214 325.343,425.225 326.355,226.974 327.367,226.98 328.379,369.298 329.39,369.318 330.402,391.405 331.414,391.417 332.425,270.624 333.437,270.67 334.449,343.801 335.46,343.788 336.472,221.527 337.484,221.54 338.496,350.776 339.507,350.816 340.519,251.387 341.531,251.413 342.542,116.476 343.554,116.495 344.566,141.427 345.577,141.438 346.589,147.687 347.601,147.698 348.612,190.92 349.624,190.945 350.636,108.48 351.648,108.495 352.659,165.264 353.671,165.282 354.683,163.01 355.694,163.021 356.706,257.539 357.718,257.552 358.729,209.045 359.741,209.055 360.753,393.806 361.765,393.817 362.776,309.843 363.788,309.88 364.8,113.647 365.811,113.657 366.823,404.543 367.835,404.529 368.846,167.008 369.858,167.027 370.87,354.639 371.882,354.673 372.893,391.894 373.905,391.87 374.917,173.57 375.928,173.577 376.94,250.848 377.952,250.876 378.963,287.631 379.975,287.65 380.987,178.928 381.999,178.943 383.01,209.928 384.022,209.942 385.034,365.314 386.045,365.327 387.057,256.093 388.069,256.111 389.08,459.636 390.092,459.6 391.104,280.53 392.115,280.542 393.127,279.705 394.139,279.705 395.151,307.089 396.162,307.087 397.174,289.264 398.186,289.286 399.197,269.639 400.209,269.661 401.221,87.9763 402.232,87.9822 403.244,162.56 404.256,162.583 405.268,266.318 406.279,266.347 407.291,245.992 408.303,246.016 409.314,189.875 410.326,189.888 411.338,160.141 412.349,160.137 413.361,261.239 414.373,261.261 415.385,326.437 416.396,326.457 417.408,291.49 418.42,291.501 419.431,309.271 420.443,309.291 421.455,186.224 422.466,186.232 423.478,300.49 424.49,300.519 425.502,275.44 426.513,275.444 427.525,394.626 428.537,394.645 429.548,285.708 430.56,285.724 431.572,228.557 432.583,228.569 433.595,379.071 434.607,379.075 435.619,317.864 436.63,317.886 437.642,241.155 438.654,241.152 439.665,375.384 440.677,375.406 441.689,318.307 442.7,318.315 443.712,187.909 444.724,187.922 445.735,279.136 446.747,279.164 447.759,319.223 448.771,319.253 449.782,272.409 450.794,272.414 451.806,193.446 452.817,193.463 453.829,323.04 454.841,323.033 455.852,322.351 456.864,322.364 457.876,379.306 458.888,379.308 459.899,305.163 460.911,305.179 461.923,410.172 462.934,410.164 463.946,152.501 464.958,152.513 465.969,479.128 466.981,479.151 467.993,198.007 469.005,198.033 470.016,356.411 471.028,356.428 472.04,321.839 473.051,321.845 474.063,239.163 475.075,239.177 476.086,287.09 477.098,287.098 478.11,275.659 479.122,275.677 480.133,137.25 481.145,137.253 482.157,213.213 483.168,213.217 484.18,252.047 485.192,252.071 486.203,152.163 487.215,152.164 488.227,341.06 489.239,341.076 490.25,288.121 491.262,288.106 492.274,377.044 493.285,377.015 494.297,253.197 495.309,253.215 496.32,283.244 497.332,283.244 498.344,268.48 499.355,268.497 500.367,360.707 501.379,360.719 502.391,158.118 503.402,158.123 504.414,328.12 505.426,328.148 506.437,506.696 507.449,506.682 508.461,196.126 509.472,196.132 510.484,217.009 511.496,217.029 512.508,246.455 513.519,246.478 514.531,388.16 515.543,388.194 516.554,321.799 517.566,321.805 518.578,400.563 519.589,400.554 520.601,391.547 521.613,391.54 522.625,296.901 523.636,296.894 524.648,285.885 525.66,285.896 526.671,377.161 527.683,377.164 528.695,387.883 529.706,387.893 530.718,350.165 531.73,350.192 532.742,274.557 533.753,274.564 534.765,308.571 535.777,308.578 536.788,455.871 537.8,455.869 538.812,384.608 539.823,384.632 540.835,445.834 541.847,445.782 542.859,326.85 543.87,326.861 544.882,512.345 545.894,512.324 546.905,364.501 547.917,364.522 548.929,276.286 549.94,276.281 550.952,220.6 551.964,220.606 552.975,236.939 553.987,236.954 554.999,314.5 556.011,314.488 557.022,434.867 558.034,434.862 559.046,327.975 560.057,327.985 561.069,352.188 562.081,352.193 563.092,220.718 564.104,220.725 565.116,328.41 566.128,328.418 567.139,178.818 568.151,178.819 569.163,339.007 570.174,339.011 571.186,280.945 572.198,280.959 573.209,377.698 574.221,377.672 575.233,337.535 576.245,337.544 577.256,314.44 578.268,314.45 579.28,383.662 580.291,383.667 581.303,398.359 582.315,398.359 583.326,366.293 584.338,366.304 585.35,365.966 586.362,365.993 587.373,426.085 588.385,426.074 589.397,443.456 590.408,443.435 591.42,352.479 592.432,352.492 593.443,345.709 594.455,345.689 595.467,356.332 596.478,356.349 597.49,361.179 598.502,361.164 599.514,418.571 600.525,418.562 601.537,198.725 602.549,198.722 603.56,368.502 604.572,368.507 605.584,237.766 606.595,237.77 607.607,315.705 608.619,315.706 609.631,336.484 610.642,336.466 611.654,441.708 612.666,441.69 613.677,366.589 614.689,366.572 615.701,497.495 616.712,497.49 617.724,423.717 618.736,423.73 619.748,469.31 620.759,469.292 621.771,413.259 622.783,413.269 623.794,368.266 624.806,368.239 625.818,269.277 626.829,269.277 627.841,371.696 628.853,371.704 629.865,453.893 630.876,453.897 631.888,333.43 632.9,333.426 633.911,287.809 634.923,287.824 635.935,297.703 636.946,297.691 637.958,371.516 638.97,371.511 639.982,387.448 640.993,387.452 642.005,461.829 643.017,461.805 644.028,314.459 645.04,314.46 646.052,528.619 647.063,528.604 648.075,422.593 649.087,422.543 650.098,406.822 651.11,406.798 652.122,494.359 653.134,494.337 654.145,443.761 655.157,443.766 656.169,417.41 657.18,417.413 658.192,290.23 659.204,290.22 660.215,436.705 661.227,436.713 662.239,510.445 663.251,510.438 664.262,378.603 665.274,378.598 666.286,292.529 667.297,292.51 668.309,581.549 669.321,581.536 670.332,438.127 671.344,438.11 672.356,362.28 673.368,362.277 674.379,317.224 675.391,317.218 676.403,481.845 677.414,481.867 678.426,360.56 679.438,360.57 680.449,460.508 681.461,460.471 682.473,443.484 683.485,443.475 684.496,458.744 685.508,458.741 686.52,294.395 687.531,294.383 688.543,421.106 689.555,421.105 690.566,478.092 691.578,478.069 692.59,502.548 693.602,502.541 694.613,442.409 695.625,442.404 696.637,444.391 697.648,444.402 698.66,566.433 699.672,566.424 700.683,184.579 701.695,184.575 702.707,327.81 703.718,327.812 704.73,396.904 705.742,396.919 706.754,418.75 707.765,418.713 708.777,359.626 709.789,359.626 710.8,492.131 711.812,492.11 712.824,281.853 713.835,281.836 714.847,489.153 715.859,489.123 716.871,475.097 717.882,475.104 718.894,390.439 719.906,390.438 720.917,609.562 721.929,609.51 722.941,289.715 723.952,289.713 724.964,441.121 725.976,441.122 726.988,638.649 727.999,638.592 729.011,297.468 730.023,297.458 731.034,368.024 732.046,368.024 733.058,468.757 734.069,468.755 735.081,277.279 736.093,277.28 737.105,393.813 738.116,393.794 739.128,372.329 740.14,372.32 741.151,471.054 742.163,471.069 743.175,395.11 744.186,395.109 745.198,629.707 746.21,629.665 747.222,449.692 748.233,449.7 749.245,456.425 750.257,456.421 751.268,502.677 752.28,502.639 753.292,492.259 754.303,492.199 755.315,317.863 756.327,317.858 757.338,520.508 758.35,520.448 759.362,472.865 760.374,472.857 761.385,497.069 762.397,497.048 763.409,420.73 764.42,420.698 765.432,423.936 766.444,423.955 767.455,529.351 768.467,529.305 769.479,408.38 770.491,408.353 771.502,504.643 772.514,504.637 773.526,435.094 774.537,435.101 775.549,615.907 776.561,615.875 777.572,378.887 778.584,378.889 779.596,410.78 780.608,410.759 781.619,551.371 782.631,551.321 783.643,509.692 784.654,509.669 785.666,481.381 786.678,481.368 787.689,508.469 788.701,508.453 789.713,450.922 790.725,450.911 791.736,480.35 792.748,480.314 793.76,531.052 794.771,530.989 795.783,490.674 796.795,490.652 797.806,499.987 798.818,499.95 799.83,548.253 800.841,548.24 801.853,438.424 802.865,438.411 803.877,603.377 804.888,603.304 805.9,652.673 806.912,652.58 807.923,491.433 808.935,491.407 809.947,479.418 810.958,479.409 811.97,520.368 812.982,520.338 813.994,524.672 815.005,524.666 816.017,442.127 817.029,442.083 818.04,515.038 819.052,514.997 820.064,494.149 821.075,494.113 822.087,437.731 823.099,437.712 824.111,470.858 825.122,470.855 826.134,443.722 827.146,443.702 828.157,426.393 829.169,426.376 830.181,574.071 831.192,574.032 832.204,436.722 833.216,436.714 834.228,646.673 835.239,646.604 836.251,488.386 837.263,488.394 838.274,658.867 839.286,658.772 840.298,736.103 841.309,736.01 842.321,380.108 843.333,380.109 844.345,459.663 845.356,459.632 846.368,470.267 847.38,470.243 848.391,595.735 849.403,595.722 850.415,583.761 851.426,583.738 852.438,518.538 853.45,518.525 854.461,495.346 855.473,495.307 856.485,441.921 857.497,441.887 858.508,463.227 859.52,463.215 860.532,603.285 861.543,603.219 862.555,577.665 863.567,577.619 864.578,517.635 865.59,517.605 866.602,656.631 867.614,656.59 868.625,547.848 869.637,547.817 870.649,591.004 871.66,590.94 872.672,502.232 873.684,502.197 874.695,644.273 875.707,644.224 876.719,498.869 877.731,498.828 878.742,481.165 879.754,481.155 880.766,495.755 881.777,495.727 882.789,523.526 883.801,523.454 884.812,462.251 885.824,462.201 886.836,605.591 887.848,605.515 888.859,497.764 889.871,497.736 890.883,396.383 891.894,396.36 892.906,483.146 893.918,483.108 894.929,494.891 895.941,494.861 896.953,571.396 897.965,571.352 898.976,551.349 899.988,551.32 901,516.695 902.011,516.654 903.023,441.141 904.035,441.128 905.046,721.804 906.058,721.761 907.07,518.87 908.081,518.848 909.093,481.654 910.105,481.638 911.117,563.504 912.128,563.484 913.14,482.136 914.152,482.13 915.163,437.343 916.175,437.328 917.187,495.569 918.198,495.574 919.21,704.344 920.222,704.281 921.234,653.351 922.245,653.305 923.257,640.229 924.269,640.156 925.28,544.007 926.292,543.962 927.304,416.904 928.315,416.896 929.327,797.565 930.339,797.498 931.351,543.606 932.362,543.578 933.374,506.038 934.386,506.009 935.397,520.034 936.409,519.979 937.421,514.86 938.432,514.832 939.444,517.99 940.456,517.988 941.468,693.828 942.479,693.793 943.491,431.908 944.503,431.87 945.514,580.572 946.526,580.545 947.538,567.325 948.549,567.289 949.561,521.984 950.573,521.935 951.585,611.732 952.596,611.715 953.608,445.907 954.62,445.856 955.631,663.29 956.643,663.267 957.655,750.936 958.666,750.894 959.678,637.87 960.69,637.838 961.701,499.18 962.713,499.116 963.725,576.882 964.737,576.8 965.748,550.106 966.76,550.002 967.772,578.753 968.783,578.697 969.795,774.952 970.807,774.878 971.818,513.148 972.83,513.078 973.842,616.577 974.854,616.525 975.865,494.439 976.877,494.394 977.889,760.525 978.9,760.454 979.912,667.046 980.924,666.987 981.935,485.3 982.947,485.279 983.959,600.546 984.971,600.511 985.982,707.331 986.994,707.247 988.006,438.449 989.017,438.405 990.029,552.809 991.041,552.779 992.052,505.243 993.064,505.223 994.076,467.226 995.088,467.211 996.099,529.967 997.111,529.931 998.123,569.957 999.134,569.905 1000.15,645.985 1001.16,645.929 1002.17,641.39 1003.18,641.359 1004.19,568.793 1005.2,568.746 1006.22,624.812 1007.23,624.735 1008.24,957.305 1009.25,957.174 1010.26,628.555 1011.27,628.482 1012.29,541.323 1013.3,541.255 1014.31,687.053 1015.32,687.006 1016.33,584.116 1017.34,584.078 1018.36,765.034 1019.37,764.97 1020.38,771.004 1021.39,770.911 1022.4,479.148 1023.42,479.119 1024.43,653.094 1025.44,653.039 1026.45,555.707 1027.46,555.678 1028.47,527.202 1029.49,527.177 1030.5,574.813 1031.51,574.763 1032.52,660.498 1033.53,660.438 1034.54,546.529 1035.56,546.477 1036.57,572.543 1037.58,572.497 1038.59,584.785 1039.6,584.735 1040.61,646.697 1041.63,646.63 1042.64,681.965 1043.65,681.933 1044.66,579.732 1045.67,579.628 1046.68,687.595 1047.7,687.527 1048.71,749.752 1049.72,749.691 1050.73,795.385 1051.74,795.339 1052.75,628.085 1053.77,628.054 1054.78,632.424 1055.79,632.39 1056.8,621.526 1057.81,621.441 1058.82,559.502 1059.84,559.477 1060.85,696.646 1061.86,696.567 1062.87,734.453 1063.88,734.367 1064.89,615.079 1065.91,615.044 1066.92,673.997 1067.93,673.95 1068.94,761.674 1069.95,761.544 1070.96,671.629 1071.98,671.575 1072.99,725.945 1074,725.839 1075.01,553.063 1076.02,553.001 1077.04,476.866 1078.05,476.823 1079.06,553.623 1080.07,553.563 1081.08,730.617 1082.09,730.541 1083.11,678.49 1084.12,678.438 1085.13,755.864 1086.14,755.802 1087.15,732.227 1088.16,732.143 1089.18,517.08 1090.19,517.03 1091.2,865.133 1092.21,865.028 1093.22,591.787 1094.23,591.754 1095.25,671.145 1096.26,671.094 1097.27,685.648 1098.28,685.588 1099.29,750.795 1100.3,750.732 1101.32,711.763 1102.33,711.711 1103.34,669.633 1104.35,669.597 1105.36,725.804 1106.37,725.726 1107.39,734.247 1108.4,734.184 1109.41,618.86 1110.42,618.839 1111.43,864.586 1112.44,864.465 1113.46,510.355 1114.47,510.322 1115.48,594.305 1116.49,594.276 1117.5,783.594 1118.51,783.524 1119.53,831.981 1120.54,831.903 1121.55,964.63 1122.56,964.525 1123.57,636.622 1124.58,636.556 1125.6,660.678 1126.61,660.628 1127.62,728.449 1128.63,728.344 1129.64,841.717 1130.66,841.65 1131.67,705.849 1132.68,705.797 1133.69,979.564 1134.7,979.494 1135.71,720.892 1136.73,720.843 1137.74,688.69 1138.75,688.617 1139.76,828.086 1140.77,827.999 1141.78,675.049 1142.8,674.991 1143.81,760.442 1144.82,760.351 1145.83,710.085 1146.84,709.999 1147.85,697.183 1148.87,697.128 1149.88,614.511 1150.89,614.472 1151.9,767.722 1152.91,767.678 1153.92,672.159 1154.94,672.107 1155.95,648.075 1156.96,648.015 1157.97,780.551 1158.98,780.434 1159.99,753.811 1161.01,753.751 1162.02,674.386 1163.03,674.331 1164.04,705.636 1165.05,705.542 1166.06,665.698 1167.08,665.657 1168.09,754.661 1169.1,754.6 1170.11,676.645 1171.12,676.566 1172.13,706.367 1173.15,706.278 1174.16,602.839 1175.17,602.801 1176.18,695.523 1177.19,695.491 1178.2,706.938 1179.22,706.859 1180.23,792.325 1181.24,792.27 1182.25,583.02 1183.26,582.973 1184.28,790.979 1185.29,790.939 1186.3,733.543 1187.31,733.466 1188.32,752.748 1189.33,752.657 1190.35,602.224 1191.36,602.185 1192.37,747.375 1193.38,747.314 1194.39,844.736 1195.4,844.639 1196.42,616.515 1197.43,616.463 1198.44,760.268 1199.45,760.203 1200.46,745.901 1201.47,745.848 1202.49,856.37 1203.5,856.312 1204.51,751.726 1205.52,751.63 1206.53,593.399 1207.54,593.368 1208.56,618.506 1209.57,618.474 1210.58,729.44 1211.59,729.369 1212.6,507.68 1213.61,507.619 1214.63,845.039 1215.64,844.87 1216.65,676.441 1217.66,676.383 1218.67,595.147 1219.68,595.084 1220.7,756.958 1221.71,756.885 1222.72,766.882 1223.73,766.792 1224.74,731.348 1225.75,731.293 1226.77,798.978 1227.78,798.878 1228.79,850.641 1229.8,850.556 1230.81,619.642 1231.82,619.598 1232.84,829.391 1233.85,829.307 1234.86,761.677 1235.87,761.589 1236.88,830.556 1237.9,830.502 1238.91,629.625 1239.92,629.535 1240.93,780.96 1241.94,780.856 1242.95,568.603 1243.97,568.556 1244.98,673.104 1245.99,673.045 1247,524.316 1248.01,524.267 1249.02,804.686 1250.04,804.567 1251.05,835.988 1252.06,835.941 1253.07,819.884 1254.08,819.799 1255.09,760.701 1256.11,760.637 1257.12,842.884 1258.13,842.82 1259.14,879.238 1260.15,879.146 1261.16,733.185 1262.18,733.104 1263.19,582.005 1264.2,581.946 1265.21,991.772 1266.22,991.627 1267.23,709.707 1268.25,709.655 1269.26,773.059 1270.27,773.003 1271.28,765.278 1272.29,765.245 1273.3,884.37 1274.32,884.262 1275.33,655.239 1276.34,655.188 1277.35,630.974 1278.36,630.929 1279.37,786.481 1280.39,786.407 1281.4,652.519 1282.41,652.471 1283.42,615.093 1284.43,615.006 1285.44,634.01 1286.46,633.945 1287.47,1005.8 1288.48,1005.72 1289.49,760.844 1290.5,760.794 1291.52,914.191 1292.53,914.068 1293.54,864.829 1294.55,864.734 1295.56,960.206 1296.57,960.116 1297.59,769.357 1298.6,769.309 1299.61,728.247 1300.62,728.174 1301.63,724.662 1302.64,724.579 1303.66,677.703 1304.67,677.641 1305.68,777.536 1306.69,777.469 1307.7,760.825 1308.71,760.775 1309.73,865.146 1310.74,865.05 1311.75,680.356 1312.76,680.321 1313.77,824.891 1314.78,824.791 1315.8,820.332 1316.81,820.272 1317.82,723.073 1318.83,723.011 1319.84,804.319 1320.85,804.25 1321.87,886.44 1322.88,886.32 1323.89,879.551 1324.9,879.522 1325.91,756.162 1326.92,756.075 1327.94,859.292 1328.95,859.179 1329.96,898.369 1330.97,898.263 1331.98,635.645 1332.99,635.605 1334.01,815.264 1335.02,815.158 1336.03,926.471 1337.04,926.359 1338.05,713.089 1339.06,713.024 1340.08,874.5 1341.09,874.437 1342.1,844.36 1343.11,844.294 1344.12,910.047 1345.14,909.899 1346.15,742.496 1347.16,742.442 1348.17,803.97 1349.18,803.88 1350.19,783.815 1351.21,783.772 1352.22,1019.65 1353.23,1019.51 1354.24,825.308 1355.25,825.222 1356.26,786.97 1357.28,786.85 1358.29,926.15 1359.3,926.011 1360.31,850.082 1361.32,850.004 1362.33,934.758 1363.35,934.664 1364.36,774.715 1365.37,774.631 1366.38,953.194 1367.39,953.096 1368.4,760.037 1369.42,759.961 1370.43,948.14 1371.44,947.993 1372.45,988.488 1373.46,988.342 1374.47,807.358 1375.49,807.313 1376.5,719.172 1377.51,719.111 1378.52,826.059 1379.53,825.972 1380.54,870.886 1381.56,870.784 1382.57,729.299 1383.58,729.239 1384.59,683.49 1385.6,683.396 1386.61,787.487 1387.63,787.428 1388.64,914.325 1389.65,914.167 1390.66,1001.76 1391.67,1001.66 1392.68,1017.62 1393.7,1017.51 1394.71,901.143 1395.72,901.083 1396.73,910.625 1397.74,910.578 1398.76,814.908 1399.77,814.856 1400.78,930.595 1401.79,930.435 1402.8,835.185 1403.81,835.092 1404.83,909.885 1405.84,909.801 1406.85,845.165 1407.86,845.08 1408.87,884.368 1409.88,884.286 1410.9,860.598 1411.91,860.508 1412.92,864.135 1413.93,864.057 1414.94,719.187 1415.95,719.113 1416.97,918.435 1417.98,918.315 1418.99,691.924 1420,691.88 1421.01,900.564 1422.02,900.462 1423.04,934.999 1424.05,934.89 1425.06,840.123 1426.07,840.019 1427.08,926.704 1428.09,926.602 1429.11,1114.84 1430.12,1114.71 1431.13,883.193 1432.14,883.116 1433.15,995.061 1434.16,994.901 1435.18,957.072 1436.19,956.998 1437.2,845.596 1438.21,845.509 1439.22,878.471 1440.23,878.353 1441.25,1017.39 1442.26,1017.33 1443.27,890.147 1444.28,890.063 1445.29,767.107 1446.3,767.033 1447.32,861.497 1448.33,861.383 1449.34,812.416 1450.35,812.338 1451.36,912.968 1452.38,912.913 1453.39,870.42 1454.4,870.355 1455.41,960.485 1456.42,960.401 1457.43,973.157 1458.45,973.063 1459.46,797.251 1460.47,797.196 1461.48,1068.94 1462.49,1068.81 1463.5,794.682 1464.52,794.613 1465.53,952.639 1466.54,952.535 1467.55,928.583 1468.56,928.504 1469.57,890.828 1470.59,890.745 1471.6,877.45 1472.61,877.384 1473.62,855.459 1474.63,855.356 1475.64,857.334 1476.66,857.254 1477.67,948.251 1478.68,948.159 1479.69,909.434 1480.7,909.36 1481.71,911.337 1482.73,911.248 1483.74,959.886 1484.75,959.782 1485.76,784.102 1486.77,783.988 1487.78,817.443 1488.8,817.365 1489.81,988.496 1490.82,988.38 1491.83,899.651 1492.84,899.556 1493.85,787.797 1494.87,787.696 1495.88,746.249 1496.89,746.189 1497.9,910.605 1498.91,910.5 1499.92,908.366 1500.94,908.275 1501.95,994.518 1502.96,994.434 1503.97,990.699 1504.98,990.589 1506,1073.83 1507.01,1073.72 1508.02,1046.13 1509.03,1046.01 1510.04,820.511 1511.05,820.396 1512.07,653.549 1513.08,653.492 1514.09,1003.54 1515.1,1003.4 1516.11,836.408 1517.12,836.338 1518.14,1018.33 1519.15,1018.22 1520.16,919.344 1521.17,919.235 1522.18,968.238 1523.19,968.112 1524.21,895.901 1525.22,895.826 1526.23,1008.06 1527.24,1007.99 1528.25,1010.16 1529.26,1010.03 1530.28,1008.12 1531.29,1007.99 1532.3,932.932 1533.31,932.857 1534.32,1099.77 1535.33,1099.66 1536.35,997.653 1537.36,997.523 1538.37,917.963 1539.38,917.874 1540.39,835.583 1541.4,835.529 1542.42,1046.01 1543.43,1045.9 1544.44,818.572 1545.45,818.487 1546.46,952.823 1547.47,952.732 1548.49,911.321 1549.5,911.219 1550.51,1037.8 1551.52,1037.71 1552.53,870.907 1553.54,870.835 1554.56,872.34 1555.57,872.267 1556.58,927.934 1557.59,927.846 1558.6,1023.44 1559.62,1023.33 1560.63,831.657 1561.64,831.573 1562.65,970.224 1563.66,970.135 1564.67,1063.35 1565.69,1063.2 1566.7,958.04 1567.71,957.886 1568.72,1020.31 1569.73,1020.2 1570.74,911.86 1571.76,911.749 1572.77,1025.99 1573.78,1025.92 1574.79,951.781 1575.8,951.65 1576.81,862.958 1577.83,862.881 1578.84,903.677 1579.85,903.601 1580.86,985.507 1581.87,985.385 1582.88,901.689 1583.9,901.583 1584.91,952.504 1585.92,952.405 1586.93,837.284 1587.94,837.175 1588.95,1150.58 1589.97,1150.46 1590.98,1076.06 1591.99,1075.9 1593,845.952 1594.01,845.863 1595.02,957.169 1596.04,957.024 1597.05,938.183 1598.06,938.098 1599.07,1035.35 1600.08,1035.22 1601.09,1012.29 1602.11,1012.17 1603.12,893.663 1604.13,893.559 1605.14,1051.31 1606.15,1051.21 1607.16,963.436 1608.18,963.308 1609.19,908.02 1610.2,907.936 1611.21,1066.94 1612.22,1066.85 1613.24,1084.29 1614.25,1084.13 1615.26,1030.88 1616.27,1030.72 1617.28,945.066 1618.29,944.978 1619.31,918.97 1620.32,918.883 1621.33,1022.03 1622.34,1021.94 1623.35,862.492 1624.36,862.429 1625.38,892.533 1626.39,892.411 1627.4,987.354 1628.41,987.252 1629.42,1037.37 1630.43,1037.3 1631.45,1078.04 1632.46,1077.89 1633.47,1097.11 1634.48,1096.99 1635.49,902.748 1636.5,902.683 1637.52,1074.62 1638.53,1074.48 1639.54,980.206 1640.55,980.128 1641.56,941.954 1642.57,941.885 1643.59,959.557 1644.6,959.46 1645.61,801.485 1646.62,801.42 1647.63,1063.21 1648.64,1063.1 1649.66,1060.7 1650.67,1060.6 1651.68,997.179 1652.69,997.071 1653.7,1086.28 1654.71,1086.16 1655.73,948.863 1656.74,948.777 1657.75,999.312 1658.76,999.22 1659.77,1020.25 1660.78,1020.15 1661.8,1106.66 1662.81,1106.53 1663.82,953.343 1664.83,953.257 1665.84,982.579 1666.86,982.5 1667.87,1065.71 1668.88,1065.61 1669.89,1152.1 1670.9,1152.04 1671.91,1100.09 1672.93,1099.98 1673.94,963.884 1674.95,963.785 1675.96,1085.51 1676.97,1085.44 1677.98,1173.63 1679,1173.43 1680.01,1039.49 1681.02,1039.39 1682.03,932.937 1683.04,932.832 1684.05,978.351 1685.07,978.274 1686.08,1000.79 1687.09,1000.68 1688.1,1030.71 1689.11,1030.6 1690.12,912.345 1691.14,912.269 1692.15,831.811 1693.16,831.736 1694.17,846.674 1695.18,846.578 1696.19,986.074 1697.21,985.952 1698.22,844.181 1699.23,844.116 1700.24,959.899 1701.25,959.82 1702.26,896.922 1703.28,896.863 1704.29,1058.04 1705.3,1057.95 1706.31,1096.92 1707.32,1096.82 1708.33,996.547 1709.35,996.449 1710.36,1185.81 1711.37,1185.72 1712.38,1100.27 1713.39,1100.16 1714.4,1066.9 1715.42,1066.8 1716.43,1114.55 1717.44,1114.47 1718.45,962.206 1719.46,962.11 1720.47,1104.68 1721.49,1104.5 1722.5,1085.81 1723.51,1085.7 1724.52,1086.3 1725.53,1086.18 1726.55,948.318 1727.56,948.225 1728.57,1279.55 1729.58,1279.4 1730.59,907.743 1731.6,907.655 1732.62,1208.78 1733.63,1208.66 1734.64,1085.74 1735.65,1085.66 1736.66,992.25 1737.67,992.12 1738.69,1028.38 1739.7,1028.32 1740.71,983.429 1741.72,983.324 1742.73,979.731 1743.74,979.648 1744.76,1254.18 1745.77,1254.05 1746.78,1112.39 1747.79,1112.3 1748.8,1009.42 1749.81,1009.35 1750.83,999.218 1751.84,999.144 1752.85,1198.42 1753.86,1198.3 1754.87,1155.64 1755.88,1155.52 1756.9,1126.61 1757.91,1126.51 1758.92,985.086 1759.93,985.007 1760.94,1041.16 1761.95,1041.07 1762.97,998.811 1763.98,998.731 1764.99,1141.06 1766,1140.92 1767.01,1233.5 1768.02,1233.4 1769.04,1219.48 1770.05,1219.3 1771.06,1090.52 1772.07,1090.4 1773.08,1074.26 1774.09,1074.17 1775.11,860.181 1776.12,860.104 1777.13,1033.57 1778.14,1033.48 1779.15,1101.06 1780.17,1100.94 1781.18,1045.17 1782.19,1045.11 1783.2,1066.71 1784.21,1066.6 1785.22,1118.21 1786.24,1118.06 1787.25,913.387 1788.26,913.275 1789.27,1003.61 1790.28,1003.47 1791.29,942.267 1792.31,942.198 1793.32,976.081 1794.33,976.005 1795.34,1023.93 1796.35,1023.84 1797.36,1012.04 1798.38,1011.93 1799.39,1151.99 1800.4,1151.88 1801.41,1138.51 1802.42,1138.42 1803.43,1158.26 1804.45,1158.08 1805.46,1116.49 1806.47,1116.38 1807.48,1059.76 1808.49,1059.67 1809.5,1056.43 1810.52,1056.36 1811.53,1047 1812.54,1046.9 1813.55,1081.22 1814.56,1081.13 1815.57,1038.63 1816.59,1038.54 1817.6,985.886 1818.61,985.811 1819.62,1120.27 1820.63,1120.18 1821.64,1107.11 1822.66,1106.99 1823.67,1085.44 1824.68,1085.32 1825.69,1139.55 1826.7,1139.46 1827.71,1149.94 1828.73,1149.8 1829.74,1126.32 1830.75,1126.23 1831.76,1205.83 1832.77,1205.74 1833.79,1235.93 1834.8,1235.8 1835.81,1012.81 1836.82,1012.72 1837.83,1009.37 1838.84,1009.26 1839.86,1064.22 1840.87,1064.15 1841.88,934.245 1842.89,934.127 1843.9,1140.32 1844.91,1140.23 1845.93,989.742 1846.94,989.653 1847.95,1122.58 1848.96,1122.5 1849.97,1145.15 1850.98,1145.08 1852,1138.73 1853.01,1138.64 1854.02,961.348 1855.03,961.263 1856.04,1243.29 1857.05,1243.16 1858.07,1130.46 1859.08,1130.35 1860.09,1107.53 1861.1,1107.47 1862.11,1183.75 1863.12,1183.61 1864.14,1094.55 1865.15,1094.45 1866.16,1195.27 1867.17,1195.19 1868.18,1214.16 1869.19,1214.06 1870.21,1142.67 1871.22,1142.5 1872.23,1152.74 1873.24,1152.67 1874.25,1149.3 1875.26,1149.19 1876.28,1033.7 1877.29,1033.63 1878.3,1301.12 1879.31,1301.02 1880.32,1065.71 1881.33,1065.62 1882.35,1100.42 1883.36,1100.33 1884.37,1013.94 1885.38,1013.82 1886.39,1105.43 1887.41,1105.31 1888.42,1144.1 1889.43,1143.98 1890.44,1121.13 1891.45,1121.05 1892.46,960.17 1893.48,960.079 1894.49,1075.95 1895.5,1075.86 1896.51,1136.64 1897.52,1136.54 1898.53,1047.91 1899.55,1047.77 1900.56,1152.4 1901.57,1152.28 1902.58,1011.7 1903.59,1011.62 1904.6,1209.62 1905.62,1209.51 1906.63,1079.98 1907.64,1079.89 1908.65,957.259 1909.66,957.189 1910.67,962.74 1911.69,962.636 1912.7,1175.29 1913.71,1175.19 1914.72,1309.34 1915.73,1309.22 1916.74,1128.66 1917.76,1128.57 1918.77,1134.51 1919.78,1134.4 1920.79,1097.65 1921.8,1097.57 1922.81,1207.76 1923.83,1207.64 1924.84,1065.15 1925.85,1065.06 1926.86,1237.12 1927.87,1237.03 1928.88,1091.76 1929.9,1091.66 1930.91,1093.46 1931.92,1093.37 1932.93,1048.85 1933.94,1048.73 1934.95,1113.35 1935.97,1113.27 1936.98,1079.25 1937.99,1079.17 1939,1249.18 1940.01,1249.04 1941.03,1018.22 1942.04,1018.11 1943.05,1052.33 1944.06,1052.25 1945.07,1216.91 1946.08,1216.82 1947.1,1167.85 1948.11,1167.69 1949.12,1195.51 1950.13,1195.44 1951.14,1128.04 1952.15,1127.92 1953.17,1137.48 1954.18,1137.39 1955.19,1066.4 1956.2,1066.32 1957.21,1093.84 1958.22,1093.74 1959.24,1198.68 1960.25,1198.59 1961.26,1112.84 1962.27,1112.75 1963.28,991.015 1964.29,990.947 1965.31,1090.27 1966.32,1090.16 1967.33,1107.76 1968.34,1107.66 1969.35,1073.75 1970.36,1073.66 1971.38,1039.1 1972.39,1038.99 1973.4,1084.67 1974.41,1084.59 1975.42,1088.42 1976.43,1088.28 1977.45,1164.97 1978.46,1164.86 1979.47,1088.42 1980.48,1088.3 1981.49,1186.75 1982.5,1186.66 1983.52,1144.17 1984.53,1144.04 1985.54,1148.6 1986.55,1148.51 1987.56,1133 1988.57,1132.87 1989.59,1195.4 1990.6,1195.32 1991.61,1062.72 1992.62,1062.65 1993.63,1104.42 1994.65,1104.33 1995.66,1028.01 1996.67,1027.88 1997.68,1104.82 1998.69,1104.73 1999.7,1220.99 2000.72,1220.91 2001.73,1241.35 2002.74,1241.21 2003.75,1231.36 2004.76,1231.24 2005.77,1149.99 2006.79,1149.9 2007.8,1227.02 2008.81,1226.94 2009.82,1033.71 2010.83,1033.63 2011.84,1114.02 2012.86,1113.92 2013.87,1445.72 2014.88,1445.59 2015.89,1131.23 2016.9,1131.15 2017.91,1096.14 2018.93,1096.02 2019.94,1134.62 2020.95,1134.53 2021.96,1095.96 2022.97,1095.85 2023.98,1017.18 2025,1017.05 2026.01,1024.24 2027.02,1024.14 2028.03,1280.66 2029.04,1280.5 2030.05,1092.53 2031.07,1092.42 2032.08,1314.98 2033.09,1314.86 2034.1,1047.05 2035.11,1046.99 2036.12,1183.56 2037.14,1183.46 2038.15,1335.8 2039.16,1335.65 2040.17,1145.1 2041.18,1145 2042.19,1333.03 2043.21,1332.9 2044.22,1234.24 2045.23,1234.15 2046.24,1183.39 2047.25,1183.27 2048.27,1262.25 2049.28,1262.13 2050.29,1156.91 2051.3,1156.74 2052.31,1227.33 2053.32,1227.23 2054.34,1227.28 2055.35,1227.19 2056.36,1253.64 2057.37,1253.55 2058.38,1123.69 2059.39,1123.61 2060.41,1160.26 2061.42,1160.09 2062.43,1276.33 2063.44,1276.25 2064.45,1222.98 2065.46,1222.83 2066.48,1285.34 2067.49,1285.23 2068.5,1187.72 2069.51,1187.63 2070.52,1098.39 2071.53,1098.31 2072.55,1039.79 2073.56,1039.74 2074.57,1282.76 2075.58,1282.66 2076.59,1192.98 2077.6,1192.86 2078.62,1365.9 2079.63,1365.8 2080.64,1150.24 2081.65,1150.14 2082.66,1177.08 2083.67,1177 2084.69,1112.58 2085.7,1112.5 2086.71,1017.48 2087.72,1017.42 2088.73,1275.95 2089.74,1275.85 2090.76,1032.21 2091.77,1032.14 2092.78,1161.86 2093.79,1161.76 2094.8,1220.09 2095.81,1219.99 2096.83,1115.58 2097.84,1115.49 2098.85,1077.16 2099.86,1077.06 2100.87,1096.08 2101.89,1096.01 2102.9,1179.16 2103.91,1179.01 2104.92,1101.47 2105.93,1101.39 2106.94,1185.26 2107.96,1185.13 2108.97,1129.59 2109.98,1129.49 2110.99,1164.03 2112,1163.96 2113.01,1177.11 2114.03,1177.04 2115.04,1282.14 2116.05,1282.06 2117.06,1186.18 2118.07,1186.08 2119.08,1196.28 2120.1,1196.17 2121.11,1319.56 2122.12,1319.44 2123.13,1064.33 2124.14,1064.28 2125.15,1122.12 2126.17,1122.05 2127.18,1433.9 2128.19,1433.78 2129.2,1238.29 2130.21,1238.13 2131.22,1199.04 2132.24,1198.94 2133.25,1255.54 2134.26,1255.41 2135.27,1179.79 2136.28,1179.73 2137.29,1155.35 2138.31,1155.29 2139.32,1201.85 2140.33,1201.77 2141.34,1242.79 2142.35,1242.69 2143.36,1257.17 2144.38,1257.08 2145.39,1204.92 2146.4,1204.79 2147.41,1152.68 2148.42,1152.6 2149.43,1273.52 2150.45,1273.41 2151.46,1294.88 2152.47,1294.76 2153.48,1267.66 2154.49,1267.55 2155.51,1252.04 2156.52,1251.93 2157.53,1191.59 2158.54,1191.49 2159.55,1256 2160.56,1255.9 2161.58,1317.63 2162.59,1317.52 2163.6,1144.57 2164.61,1144.47 2165.62,1235.13 2166.63,1235.03 2167.65,1233.86 2168.66,1233.78 2169.67,1200.59 2170.68,1200.53 2171.69,1219.2 2172.7,1219.1 2173.72,1394.22 2174.73,1394.1 2175.74,1262.82 2176.75,1262.73 2177.76,1260.94 2178.77,1260.87 2179.79,1239.96 2180.8,1239.83 2181.81,1351.48 2182.82,1351.34 2183.83,1177.69 2184.84,1177.59 2185.86,1164.64 2186.87,1164.54 2187.88,1302.08 2188.89,1302 2189.9,1283.22 2190.91,1283.15 2191.93,1295.1 2192.94,1295.01 2193.95,1310.19 2194.96,1310.02 2195.97,1226.68 2196.98,1226.56 2198,1321.9 2199.01,1321.78 2200.02,1095.08 2201.03,1094.96 2202.04,1192.33 2203.05,1192.24 2204.07,1339.21 2205.08,1339.12 2206.09,1362.91 2207.1,1362.81 2208.11,1192.72 2209.13,1192.63 2210.14,1339.31 2211.15,1339.22 2212.16,1196.16 2213.17,1196.06 2214.18,1317.93 2215.2,1317.82 2216.21,1230.65 2217.22,1230.57 2218.23,1208.3 2219.24,1208.2 2220.25,1235.4 2221.27,1235.29 2222.28,1261.75 2223.29,1261.68 2224.3,1148.64 2225.31,1148.55 2226.32,1209.4 2227.34,1209.34 2228.35,1371.89 2229.36,1371.78 2230.37,1195.66 2231.38,1195.58 2232.39,1257.95 2233.41,1257.85 2234.42,1227.61 2235.43,1227.5 2236.44,1222.35 2237.45,1222.25 2238.46,1284.54 2239.48,1284.44 2240.49,1196.95 2241.5,1196.8 2242.51,1283.63 2243.52,1283.52 2244.53,1188.13 2245.55,1188.07 2246.56,1154.52 2247.57,1154.45 2248.58,1310.64 2249.59,1310.54 2250.6,1099.23 2251.62,1099.16 2252.63,1238.65 2253.64,1238.55 2254.65,1214.43 2255.66,1214.37 2256.67,1191.98 2257.69,1191.91 2258.7,1321.87 2259.71,1321.78 2260.72,1299.9 2261.73,1299.76 2262.75,1233.72 2263.76,1233.64 2264.77,1278.85 2265.78,1278.76 2266.79,1128.31 2267.8,1128.21 2268.82,1183.19 2269.83,1183.1 2270.84,1199.43 2271.85,1199.3 2272.86,1131.43 2273.87,1131.34 2274.89,1154.88 2275.9,1154.79 2276.91,1280.02 2277.92,1279.9 2278.93,1214.57 2279.94,1214.5 2280.96,1383.1 2281.97,1383.02 2282.98,1255.76 2283.99,1255.61 2285,1156.07 2286.01,1156.01 2287.03,1242.41 2288.04,1242.31 2289.05,1412.08 2290.06,1411.97 2291.07,1266.93 2292.08,1266.82 "/>
<path clip-path="url(#clip210)" d="M2014.5 198.898 L2281.3 198.898 L2281.3 95.2176 L2014.5 95.2176  Z" fill="#ffffff" fill-rule="evenodd" fill-opacity="1"/>
<polyline clip-path="url(#clip210)" style="stroke:#000000; stroke-linecap:round; stroke-linejoin:round; stroke-width:4; stroke-opacity:1; fill:none" points="2014.5,198.898 2281.3,198.898 2281.3,95.2176 2014.5,95.2176 2014.5,198.898 "/>
<polyline clip-path="url(#clip210)" style="stroke:#009af9; stroke-linecap:round; stroke-linejoin:round; stroke-width:4; stroke-opacity:1; fill:none" points="2038.31,147.058 2181.23,147.058 "/>
<path clip-path="url(#clip210)" d="M2218.89 166.745 Q2217.09 171.375 2215.37 172.787 Q2213.66 174.199 2210.79 174.199 L2207.39 174.199 L2207.39 170.634 L2209.89 170.634 Q2211.65 170.634 2212.62 169.8 Q2213.59 168.967 2214.77 165.865 L2215.53 163.921 L2205.05 138.412 L2209.56 138.412 L2217.66 158.689 L2225.77 138.412 L2230.28 138.412 L2218.89 166.745 Z" fill="#000000" fill-rule="nonzero" fill-opacity="1" /><path clip-path="url(#clip210)" d="M2237.57 160.402 L2245.21 160.402 L2245.21 134.037 L2236.9 135.703 L2236.9 131.444 L2245.16 129.778 L2249.84 129.778 L2249.84 160.402 L2257.48 160.402 L2257.48 164.338 L2237.57 164.338 L2237.57 160.402 Z" fill="#000000" fill-rule="nonzero" fill-opacity="1" /></svg>
