<?xml version="1.0" encoding="utf-8"?>
<svg xmlns="http://www.w3.org/2000/svg" xmlns:xlink="http://www.w3.org/1999/xlink" width="600" height="400" viewBox="0 0 2400 1600">
<defs>
  <clipPath id="clip880">
    <rect x="0" y="0" width="2400" height="1600"/>
  </clipPath>
</defs>
<path clip-path="url(#clip880)" d="M0 1600 L2400 1600 L2400 0 L0 0  Z" fill="#ffffff" fill-rule="evenodd" fill-opacity="1"/>
<defs>
  <clipPath id="clip881">
    <rect x="480" y="0" width="1681" height="1600"/>
  </clipPath>
</defs>
<path clip-path="url(#clip880)" d="M239.19 1486.45 L2352.76 1486.45 L2352.76 47.2441 L239.19 47.2441  Z" fill="#ffffff" fill-rule="evenodd" fill-opacity="1"/>
<defs>
  <clipPath id="clip882">
    <rect x="239" y="47" width="2115" height="1440"/>
  </clipPath>
</defs>
<polyline clip-path="url(#clip882)" style="stroke:#000000; stroke-linecap:round; stroke-linejoin:round; stroke-width:2; stroke-opacity:0.1; fill:none" points="299.008,1486.45 299.008,47.2441 "/>
<polyline clip-path="url(#clip882)" style="stroke:#000000; stroke-linecap:round; stroke-linejoin:round; stroke-width:2; stroke-opacity:0.1; fill:none" points="797.74,1486.45 797.74,47.2441 "/>
<polyline clip-path="url(#clip882)" style="stroke:#000000; stroke-linecap:round; stroke-linejoin:round; stroke-width:2; stroke-opacity:0.1; fill:none" points="1296.47,1486.45 1296.47,47.2441 "/>
<polyline clip-path="url(#clip882)" style="stroke:#000000; stroke-linecap:round; stroke-linejoin:round; stroke-width:2; stroke-opacity:0.1; fill:none" points="1795.2,1486.45 1795.2,47.2441 "/>
<polyline clip-path="url(#clip882)" style="stroke:#000000; stroke-linecap:round; stroke-linejoin:round; stroke-width:2; stroke-opacity:0.1; fill:none" points="2293.94,1486.45 2293.94,47.2441 "/>
<polyline clip-path="url(#clip880)" style="stroke:#000000; stroke-linecap:round; stroke-linejoin:round; stroke-width:4; stroke-opacity:1; fill:none" points="239.19,1486.45 2352.76,1486.45 "/>
<polyline clip-path="url(#clip880)" style="stroke:#000000; stroke-linecap:round; stroke-linejoin:round; stroke-width:4; stroke-opacity:1; fill:none" points="299.008,1486.45 299.008,1467.55 "/>
<polyline clip-path="url(#clip880)" style="stroke:#000000; stroke-linecap:round; stroke-linejoin:round; stroke-width:4; stroke-opacity:1; fill:none" points="797.74,1486.45 797.74,1467.55 "/>
<polyline clip-path="url(#clip880)" style="stroke:#000000; stroke-linecap:round; stroke-linejoin:round; stroke-width:4; stroke-opacity:1; fill:none" points="1296.47,1486.45 1296.47,1467.55 "/>
<polyline clip-path="url(#clip880)" style="stroke:#000000; stroke-linecap:round; stroke-linejoin:round; stroke-width:4; stroke-opacity:1; fill:none" points="1795.2,1486.45 1795.2,1467.55 "/>
<polyline clip-path="url(#clip880)" style="stroke:#000000; stroke-linecap:round; stroke-linejoin:round; stroke-width:4; stroke-opacity:1; fill:none" points="2293.94,1486.45 2293.94,1467.55 "/>
<path clip-path="url(#clip880)" d="M299.008 1517.37 Q295.397 1517.37 293.568 1520.93 Q291.763 1524.47 291.763 1531.6 Q291.763 1538.71 293.568 1542.27 Q295.397 1545.82 299.008 1545.82 Q302.643 1545.82 304.448 1542.27 Q306.277 1538.71 306.277 1531.6 Q306.277 1524.47 304.448 1520.93 Q302.643 1517.37 299.008 1517.37 M299.008 1513.66 Q304.818 1513.66 307.874 1518.27 Q310.953 1522.85 310.953 1531.6 Q310.953 1540.33 307.874 1544.94 Q304.818 1549.52 299.008 1549.52 Q293.198 1549.52 290.119 1544.94 Q287.064 1540.33 287.064 1531.6 Q287.064 1522.85 290.119 1518.27 Q293.198 1513.66 299.008 1513.66 Z" fill="#000000" fill-rule="nonzero" fill-opacity="1" /><path clip-path="url(#clip880)" d="M757.358 1514.29 L775.715 1514.29 L775.715 1518.22 L761.641 1518.22 L761.641 1526.7 Q762.659 1526.35 763.678 1526.19 Q764.696 1526 765.715 1526 Q771.502 1526 774.881 1529.17 Q778.261 1532.34 778.261 1537.76 Q778.261 1543.34 774.789 1546.44 Q771.317 1549.52 764.997 1549.52 Q762.821 1549.52 760.553 1549.15 Q758.307 1548.78 755.9 1548.04 L755.9 1543.34 Q757.983 1544.47 760.206 1545.03 Q762.428 1545.58 764.905 1545.58 Q768.909 1545.58 771.247 1543.48 Q773.585 1541.37 773.585 1537.76 Q773.585 1534.15 771.247 1532.04 Q768.909 1529.94 764.905 1529.94 Q763.03 1529.94 761.155 1530.35 Q759.303 1530.77 757.358 1531.65 L757.358 1514.29 Z" fill="#000000" fill-rule="nonzero" fill-opacity="1" /><path clip-path="url(#clip880)" d="M797.474 1517.37 Q793.863 1517.37 792.034 1520.93 Q790.229 1524.47 790.229 1531.6 Q790.229 1538.71 792.034 1542.27 Q793.863 1545.82 797.474 1545.82 Q801.108 1545.82 802.914 1542.27 Q804.742 1538.71 804.742 1531.6 Q804.742 1524.47 802.914 1520.93 Q801.108 1517.37 797.474 1517.37 M797.474 1513.66 Q803.284 1513.66 806.34 1518.27 Q809.418 1522.85 809.418 1531.6 Q809.418 1540.33 806.34 1544.94 Q803.284 1549.52 797.474 1549.52 Q791.664 1549.52 788.585 1544.94 Q785.529 1540.33 785.529 1531.6 Q785.529 1522.85 788.585 1518.27 Q791.664 1513.66 797.474 1513.66 Z" fill="#000000" fill-rule="nonzero" fill-opacity="1" /><path clip-path="url(#clip880)" d="M827.636 1517.37 Q824.025 1517.37 822.196 1520.93 Q820.39 1524.47 820.39 1531.6 Q820.39 1538.71 822.196 1542.27 Q824.025 1545.82 827.636 1545.82 Q831.27 1545.82 833.076 1542.27 Q834.904 1538.71 834.904 1531.6 Q834.904 1524.47 833.076 1520.93 Q831.27 1517.37 827.636 1517.37 M827.636 1513.66 Q833.446 1513.66 836.501 1518.27 Q839.58 1522.85 839.58 1531.6 Q839.58 1540.33 836.501 1544.94 Q833.446 1549.52 827.636 1549.52 Q821.826 1549.52 818.747 1544.94 Q815.691 1540.33 815.691 1531.6 Q815.691 1522.85 818.747 1518.27 Q821.826 1513.66 827.636 1513.66 Z" fill="#000000" fill-rule="nonzero" fill-opacity="1" /><path clip-path="url(#clip880)" d="M1241 1544.91 L1248.64 1544.91 L1248.64 1518.55 L1240.33 1520.21 L1240.33 1515.95 L1248.59 1514.29 L1253.27 1514.29 L1253.27 1544.91 L1260.9 1544.91 L1260.9 1548.85 L1241 1548.85 L1241 1544.91 Z" fill="#000000" fill-rule="nonzero" fill-opacity="1" /><path clip-path="url(#clip880)" d="M1280.35 1517.37 Q1276.74 1517.37 1274.91 1520.93 Q1273.1 1524.47 1273.1 1531.6 Q1273.1 1538.71 1274.91 1542.27 Q1276.74 1545.82 1280.35 1545.82 Q1283.98 1545.82 1285.79 1542.27 Q1287.62 1538.71 1287.62 1531.6 Q1287.62 1524.47 1285.79 1520.93 Q1283.98 1517.37 1280.35 1517.37 M1280.35 1513.66 Q1286.16 1513.66 1289.21 1518.27 Q1292.29 1522.85 1292.29 1531.6 Q1292.29 1540.33 1289.21 1544.94 Q1286.16 1549.52 1280.35 1549.52 Q1274.54 1549.52 1271.46 1544.94 Q1268.4 1540.33 1268.4 1531.6 Q1268.4 1522.85 1271.46 1518.27 Q1274.54 1513.66 1280.35 1513.66 Z" fill="#000000" fill-rule="nonzero" fill-opacity="1" /><path clip-path="url(#clip880)" d="M1310.51 1517.37 Q1306.9 1517.37 1305.07 1520.93 Q1303.27 1524.47 1303.27 1531.6 Q1303.27 1538.71 1305.07 1542.27 Q1306.9 1545.82 1310.51 1545.82 Q1314.15 1545.82 1315.95 1542.27 Q1317.78 1538.71 1317.78 1531.6 Q1317.78 1524.47 1315.95 1520.93 Q1314.15 1517.37 1310.51 1517.37 M1310.51 1513.66 Q1316.32 1513.66 1319.38 1518.27 Q1322.46 1522.85 1322.46 1531.6 Q1322.46 1540.33 1319.38 1544.94 Q1316.32 1549.52 1310.51 1549.52 Q1304.7 1549.52 1301.62 1544.94 Q1298.57 1540.33 1298.57 1531.6 Q1298.57 1522.85 1301.62 1518.27 Q1304.7 1513.66 1310.51 1513.66 Z" fill="#000000" fill-rule="nonzero" fill-opacity="1" /><path clip-path="url(#clip880)" d="M1340.67 1517.37 Q1337.06 1517.37 1335.23 1520.93 Q1333.43 1524.47 1333.43 1531.6 Q1333.43 1538.71 1335.23 1542.27 Q1337.06 1545.82 1340.67 1545.82 Q1344.31 1545.82 1346.11 1542.27 Q1347.94 1538.71 1347.94 1531.6 Q1347.94 1524.47 1346.11 1520.93 Q1344.31 1517.37 1340.67 1517.37 M1340.67 1513.66 Q1346.48 1513.66 1349.54 1518.27 Q1352.62 1522.85 1352.62 1531.6 Q1352.62 1540.33 1349.54 1544.94 Q1346.48 1549.52 1340.67 1549.52 Q1334.86 1549.52 1331.78 1544.94 Q1328.73 1540.33 1328.73 1531.6 Q1328.73 1522.85 1331.78 1518.27 Q1334.86 1513.66 1340.67 1513.66 Z" fill="#000000" fill-rule="nonzero" fill-opacity="1" /><path clip-path="url(#clip880)" d="M1739.73 1544.91 L1747.37 1544.91 L1747.37 1518.55 L1739.06 1520.21 L1739.06 1515.95 L1747.32 1514.29 L1752 1514.29 L1752 1544.91 L1759.64 1544.91 L1759.64 1548.85 L1739.73 1548.85 L1739.73 1544.91 Z" fill="#000000" fill-rule="nonzero" fill-opacity="1" /><path clip-path="url(#clip880)" d="M1769.13 1514.29 L1787.48 1514.29 L1787.48 1518.22 L1773.41 1518.22 L1773.41 1526.7 Q1774.43 1526.35 1775.45 1526.19 Q1776.47 1526 1777.48 1526 Q1783.27 1526 1786.65 1529.17 Q1790.03 1532.34 1790.03 1537.76 Q1790.03 1543.34 1786.56 1546.44 Q1783.09 1549.52 1776.77 1549.52 Q1774.59 1549.52 1772.32 1549.15 Q1770.08 1548.78 1767.67 1548.04 L1767.67 1543.34 Q1769.75 1544.47 1771.97 1545.03 Q1774.2 1545.58 1776.67 1545.58 Q1780.68 1545.58 1783.02 1543.48 Q1785.35 1541.37 1785.35 1537.76 Q1785.35 1534.15 1783.02 1532.04 Q1780.68 1529.94 1776.67 1529.94 Q1774.8 1529.94 1772.92 1530.35 Q1771.07 1530.77 1769.13 1531.65 L1769.13 1514.29 Z" fill="#000000" fill-rule="nonzero" fill-opacity="1" /><path clip-path="url(#clip880)" d="M1809.24 1517.37 Q1805.63 1517.37 1803.8 1520.93 Q1802 1524.47 1802 1531.6 Q1802 1538.71 1803.8 1542.27 Q1805.63 1545.82 1809.24 1545.82 Q1812.88 1545.82 1814.68 1542.27 Q1816.51 1538.71 1816.51 1531.6 Q1816.51 1524.47 1814.68 1520.93 Q1812.88 1517.37 1809.24 1517.37 M1809.24 1513.66 Q1815.05 1513.66 1818.11 1518.27 Q1821.19 1522.85 1821.19 1531.6 Q1821.19 1540.33 1818.11 1544.94 Q1815.05 1549.52 1809.24 1549.52 Q1803.43 1549.52 1800.35 1544.94 Q1797.3 1540.33 1797.3 1531.6 Q1797.3 1522.85 1800.35 1518.27 Q1803.43 1513.66 1809.24 1513.66 Z" fill="#000000" fill-rule="nonzero" fill-opacity="1" /><path clip-path="url(#clip880)" d="M1839.4 1517.37 Q1835.79 1517.37 1833.97 1520.93 Q1832.16 1524.47 1832.16 1531.6 Q1832.16 1538.71 1833.97 1542.27 Q1835.79 1545.82 1839.4 1545.82 Q1843.04 1545.82 1844.84 1542.27 Q1846.67 1538.71 1846.67 1531.6 Q1846.67 1524.47 1844.84 1520.93 Q1843.04 1517.37 1839.4 1517.37 M1839.4 1513.66 Q1845.21 1513.66 1848.27 1518.27 Q1851.35 1522.85 1851.35 1531.6 Q1851.35 1540.33 1848.27 1544.94 Q1845.21 1549.52 1839.4 1549.52 Q1833.59 1549.52 1830.52 1544.94 Q1827.46 1540.33 1827.46 1531.6 Q1827.46 1522.85 1830.52 1518.27 Q1833.59 1513.66 1839.4 1513.66 Z" fill="#000000" fill-rule="nonzero" fill-opacity="1" /><path clip-path="url(#clip880)" d="M2242.55 1544.91 L2258.87 1544.91 L2258.87 1548.85 L2236.92 1548.85 L2236.92 1544.91 Q2239.58 1542.16 2244.17 1537.53 Q2248.77 1532.88 2249.95 1531.53 Q2252.2 1529.01 2253.08 1527.27 Q2253.98 1525.51 2253.98 1523.82 Q2253.98 1521.07 2252.04 1519.33 Q2250.12 1517.6 2247.01 1517.6 Q2244.82 1517.6 2242.36 1518.36 Q2239.93 1519.13 2237.15 1520.68 L2237.15 1515.95 Q2239.98 1514.82 2242.43 1514.24 Q2244.88 1513.66 2246.92 1513.66 Q2252.29 1513.66 2255.49 1516.35 Q2258.68 1519.03 2258.68 1523.52 Q2258.68 1525.65 2257.87 1527.57 Q2257.08 1529.47 2254.98 1532.07 Q2254.4 1532.74 2251.3 1535.95 Q2248.19 1539.15 2242.55 1544.91 Z" fill="#000000" fill-rule="nonzero" fill-opacity="1" /><path clip-path="url(#clip880)" d="M2278.68 1517.37 Q2275.07 1517.37 2273.24 1520.93 Q2271.44 1524.47 2271.44 1531.6 Q2271.44 1538.71 2273.24 1542.27 Q2275.07 1545.82 2278.68 1545.82 Q2282.32 1545.82 2284.12 1542.27 Q2285.95 1538.71 2285.95 1531.6 Q2285.95 1524.47 2284.12 1520.93 Q2282.32 1517.37 2278.68 1517.37 M2278.68 1513.66 Q2284.49 1513.66 2287.55 1518.27 Q2290.63 1522.85 2290.63 1531.6 Q2290.63 1540.33 2287.55 1544.94 Q2284.49 1549.52 2278.68 1549.52 Q2272.87 1549.52 2269.79 1544.94 Q2266.74 1540.33 2266.74 1531.6 Q2266.74 1522.85 2269.79 1518.27 Q2272.87 1513.66 2278.68 1513.66 Z" fill="#000000" fill-rule="nonzero" fill-opacity="1" /><path clip-path="url(#clip880)" d="M2308.84 1517.37 Q2305.23 1517.37 2303.4 1520.93 Q2301.6 1524.47 2301.6 1531.6 Q2301.6 1538.71 2303.4 1542.27 Q2305.23 1545.82 2308.84 1545.82 Q2312.48 1545.82 2314.28 1542.27 Q2316.11 1538.71 2316.11 1531.6 Q2316.11 1524.47 2314.28 1520.93 Q2312.48 1517.37 2308.84 1517.37 M2308.84 1513.66 Q2314.65 1513.66 2317.71 1518.27 Q2320.79 1522.85 2320.79 1531.6 Q2320.79 1540.33 2317.71 1544.94 Q2314.65 1549.52 2308.84 1549.52 Q2303.03 1549.52 2299.95 1544.94 Q2296.9 1540.33 2296.9 1531.6 Q2296.9 1522.85 2299.95 1518.27 Q2303.03 1513.66 2308.84 1513.66 Z" fill="#000000" fill-rule="nonzero" fill-opacity="1" /><path clip-path="url(#clip880)" d="M2339 1517.37 Q2335.39 1517.37 2333.56 1520.93 Q2331.76 1524.47 2331.76 1531.6 Q2331.76 1538.71 2333.56 1542.27 Q2335.39 1545.82 2339 1545.82 Q2342.64 1545.82 2344.44 1542.27 Q2346.27 1538.71 2346.27 1531.6 Q2346.27 1524.47 2344.44 1520.93 Q2342.64 1517.37 2339 1517.37 M2339 1513.66 Q2344.81 1513.66 2347.87 1518.27 Q2350.95 1522.85 2350.95 1531.6 Q2350.95 1540.33 2347.87 1544.94 Q2344.81 1549.52 2339 1549.52 Q2333.19 1549.52 2330.12 1544.94 Q2327.06 1540.33 2327.06 1531.6 Q2327.06 1522.85 2330.12 1518.27 Q2333.19 1513.66 2339 1513.66 Z" fill="#000000" fill-rule="nonzero" fill-opacity="1" /><polyline clip-path="url(#clip882)" style="stroke:#000000; stroke-linecap:round; stroke-linejoin:round; stroke-width:2; stroke-opacity:0.1; fill:none" points="239.19,1465.82 2352.76,1465.82 "/>
<polyline clip-path="url(#clip882)" style="stroke:#000000; stroke-linecap:round; stroke-linejoin:round; stroke-width:2; stroke-opacity:0.1; fill:none" points="239.19,1091.45 2352.76,1091.45 "/>
<polyline clip-path="url(#clip882)" style="stroke:#000000; stroke-linecap:round; stroke-linejoin:round; stroke-width:2; stroke-opacity:0.1; fill:none" points="239.19,717.078 2352.76,717.078 "/>
<polyline clip-path="url(#clip882)" style="stroke:#000000; stroke-linecap:round; stroke-linejoin:round; stroke-width:2; stroke-opacity:0.1; fill:none" points="239.19,342.708 2352.76,342.708 "/>
<polyline clip-path="url(#clip880)" style="stroke:#000000; stroke-linecap:round; stroke-linejoin:round; stroke-width:4; stroke-opacity:1; fill:none" points="239.19,1486.45 239.19,47.2441 "/>
<polyline clip-path="url(#clip880)" style="stroke:#000000; stroke-linecap:round; stroke-linejoin:round; stroke-width:4; stroke-opacity:1; fill:none" points="239.19,1465.82 258.088,1465.82 "/>
<polyline clip-path="url(#clip880)" style="stroke:#000000; stroke-linecap:round; stroke-linejoin:round; stroke-width:4; stroke-opacity:1; fill:none" points="239.19,1091.45 258.088,1091.45 "/>
<polyline clip-path="url(#clip880)" style="stroke:#000000; stroke-linecap:round; stroke-linejoin:round; stroke-width:4; stroke-opacity:1; fill:none" points="239.19,717.078 258.088,717.078 "/>
<polyline clip-path="url(#clip880)" style="stroke:#000000; stroke-linecap:round; stroke-linejoin:round; stroke-width:4; stroke-opacity:1; fill:none" points="239.19,342.708 258.088,342.708 "/>
<path clip-path="url(#clip880)" d="M50.9921 1466.27 L80.6679 1466.27 L80.6679 1470.21 L50.9921 1470.21 L50.9921 1466.27 Z" fill="#000000" fill-rule="nonzero" fill-opacity="1" /><path clip-path="url(#clip880)" d="M91.5706 1479.16 L99.2095 1479.16 L99.2095 1452.8 L90.8993 1454.46 L90.8993 1450.21 L99.1632 1448.54 L103.839 1448.54 L103.839 1479.16 L111.478 1479.16 L111.478 1483.1 L91.5706 1483.1 L91.5706 1479.16 Z" fill="#000000" fill-rule="nonzero" fill-opacity="1" /><path clip-path="url(#clip880)" d="M130.922 1451.62 Q127.311 1451.62 125.482 1455.18 Q123.677 1458.72 123.677 1465.85 Q123.677 1472.96 125.482 1476.52 Q127.311 1480.07 130.922 1480.07 Q134.556 1480.07 136.362 1476.52 Q138.191 1472.96 138.191 1465.85 Q138.191 1458.72 136.362 1455.18 Q134.556 1451.62 130.922 1451.62 M130.922 1447.91 Q136.732 1447.91 139.788 1452.52 Q142.867 1457.1 142.867 1465.85 Q142.867 1474.58 139.788 1479.19 Q136.732 1483.77 130.922 1483.77 Q125.112 1483.77 122.033 1479.19 Q118.978 1474.58 118.978 1465.85 Q118.978 1457.1 122.033 1452.52 Q125.112 1447.91 130.922 1447.91 Z" fill="#000000" fill-rule="nonzero" fill-opacity="1" /><path clip-path="url(#clip880)" d="M161.084 1451.62 Q157.473 1451.62 155.644 1455.18 Q153.839 1458.72 153.839 1465.85 Q153.839 1472.96 155.644 1476.52 Q157.473 1480.07 161.084 1480.07 Q164.718 1480.07 166.524 1476.52 Q168.353 1472.96 168.353 1465.85 Q168.353 1458.72 166.524 1455.18 Q164.718 1451.62 161.084 1451.62 M161.084 1447.91 Q166.894 1447.91 169.95 1452.52 Q173.029 1457.1 173.029 1465.85 Q173.029 1474.58 169.95 1479.19 Q166.894 1483.77 161.084 1483.77 Q155.274 1483.77 152.195 1479.19 Q149.14 1474.58 149.14 1465.85 Q149.14 1457.1 152.195 1452.52 Q155.274 1447.91 161.084 1447.91 Z" fill="#000000" fill-rule="nonzero" fill-opacity="1" /><path clip-path="url(#clip880)" d="M191.246 1451.62 Q187.635 1451.62 185.806 1455.18 Q184.001 1458.72 184.001 1465.85 Q184.001 1472.96 185.806 1476.52 Q187.635 1480.07 191.246 1480.07 Q194.88 1480.07 196.686 1476.52 Q198.514 1472.96 198.514 1465.85 Q198.514 1458.72 196.686 1455.18 Q194.88 1451.62 191.246 1451.62 M191.246 1447.91 Q197.056 1447.91 200.112 1452.52 Q203.19 1457.1 203.19 1465.85 Q203.19 1474.58 200.112 1479.19 Q197.056 1483.77 191.246 1483.77 Q185.436 1483.77 182.357 1479.19 Q179.302 1474.58 179.302 1465.85 Q179.302 1457.1 182.357 1452.52 Q185.436 1447.91 191.246 1447.91 Z" fill="#000000" fill-rule="nonzero" fill-opacity="1" /><path clip-path="url(#clip880)" d="M81.154 1091.9 L110.83 1091.9 L110.83 1095.84 L81.154 1095.84 L81.154 1091.9 Z" fill="#000000" fill-rule="nonzero" fill-opacity="1" /><path clip-path="url(#clip880)" d="M130.922 1092.32 Q127.589 1092.32 125.668 1094.1 Q123.77 1095.88 123.77 1099.01 Q123.77 1102.13 125.668 1103.91 Q127.589 1105.7 130.922 1105.7 Q134.256 1105.7 136.177 1103.91 Q138.098 1102.11 138.098 1099.01 Q138.098 1095.88 136.177 1094.1 Q134.279 1092.32 130.922 1092.32 M126.246 1090.33 Q123.237 1089.59 121.547 1087.52 Q119.881 1085.46 119.881 1082.5 Q119.881 1078.36 122.82 1075.95 Q125.783 1073.54 130.922 1073.54 Q136.084 1073.54 139.024 1075.95 Q141.964 1078.36 141.964 1082.5 Q141.964 1085.46 140.274 1087.52 Q138.607 1089.59 135.621 1090.33 Q139.001 1091.11 140.876 1093.4 Q142.774 1095.7 142.774 1099.01 Q142.774 1104.03 139.695 1106.71 Q136.64 1109.4 130.922 1109.4 Q125.205 1109.4 122.126 1106.71 Q119.07 1104.03 119.07 1099.01 Q119.07 1095.7 120.969 1093.4 Q122.867 1091.11 126.246 1090.33 M124.533 1082.94 Q124.533 1085.63 126.2 1087.13 Q127.89 1088.64 130.922 1088.64 Q133.931 1088.64 135.621 1087.13 Q137.334 1085.63 137.334 1082.94 Q137.334 1080.26 135.621 1078.75 Q133.931 1077.25 130.922 1077.25 Q127.89 1077.25 126.2 1078.75 Q124.533 1080.26 124.533 1082.94 Z" fill="#000000" fill-rule="nonzero" fill-opacity="1" /><path clip-path="url(#clip880)" d="M161.084 1077.25 Q157.473 1077.25 155.644 1080.81 Q153.839 1084.35 153.839 1091.48 Q153.839 1098.59 155.644 1102.15 Q157.473 1105.7 161.084 1105.7 Q164.718 1105.7 166.524 1102.15 Q168.353 1098.59 168.353 1091.48 Q168.353 1084.35 166.524 1080.81 Q164.718 1077.25 161.084 1077.25 M161.084 1073.54 Q166.894 1073.54 169.95 1078.15 Q173.029 1082.73 173.029 1091.48 Q173.029 1100.21 169.95 1104.82 Q166.894 1109.4 161.084 1109.4 Q155.274 1109.4 152.195 1104.82 Q149.14 1100.21 149.14 1091.48 Q149.14 1082.73 152.195 1078.15 Q155.274 1073.54 161.084 1073.54 Z" fill="#000000" fill-rule="nonzero" fill-opacity="1" /><path clip-path="url(#clip880)" d="M191.246 1077.25 Q187.635 1077.25 185.806 1080.81 Q184.001 1084.35 184.001 1091.48 Q184.001 1098.59 185.806 1102.15 Q187.635 1105.7 191.246 1105.7 Q194.88 1105.7 196.686 1102.15 Q198.514 1098.59 198.514 1091.48 Q198.514 1084.35 196.686 1080.81 Q194.88 1077.25 191.246 1077.25 M191.246 1073.54 Q197.056 1073.54 200.112 1078.15 Q203.19 1082.73 203.19 1091.48 Q203.19 1100.21 200.112 1104.82 Q197.056 1109.4 191.246 1109.4 Q185.436 1109.4 182.357 1104.82 Q179.302 1100.21 179.302 1091.48 Q179.302 1082.73 182.357 1078.15 Q185.436 1073.54 191.246 1073.54 Z" fill="#000000" fill-rule="nonzero" fill-opacity="1" /><path clip-path="url(#clip880)" d="M81.154 717.53 L110.83 717.53 L110.83 721.465 L81.154 721.465 L81.154 717.53 Z" fill="#000000" fill-rule="nonzero" fill-opacity="1" /><path clip-path="url(#clip880)" d="M131.501 715.215 Q128.353 715.215 126.501 717.368 Q124.672 719.52 124.672 723.27 Q124.672 726.997 126.501 729.173 Q128.353 731.326 131.501 731.326 Q134.649 731.326 136.478 729.173 Q138.33 726.997 138.33 723.27 Q138.33 719.52 136.478 717.368 Q134.649 715.215 131.501 715.215 M140.783 700.562 L140.783 704.821 Q139.024 703.988 137.219 703.548 Q135.436 703.108 133.677 703.108 Q129.047 703.108 126.594 706.233 Q124.163 709.358 123.816 715.678 Q125.182 713.664 127.242 712.599 Q129.302 711.511 131.779 711.511 Q136.987 711.511 139.996 714.682 Q143.029 717.831 143.029 723.27 Q143.029 728.594 139.881 731.812 Q136.732 735.03 131.501 735.03 Q125.506 735.03 122.334 730.446 Q119.163 725.84 119.163 717.113 Q119.163 708.919 123.052 704.057 Q126.941 699.173 133.492 699.173 Q135.251 699.173 137.033 699.52 Q138.839 699.868 140.783 700.562 Z" fill="#000000" fill-rule="nonzero" fill-opacity="1" /><path clip-path="url(#clip880)" d="M161.084 702.877 Q157.473 702.877 155.644 706.442 Q153.839 709.983 153.839 717.113 Q153.839 724.219 155.644 727.784 Q157.473 731.326 161.084 731.326 Q164.718 731.326 166.524 727.784 Q168.353 724.219 168.353 717.113 Q168.353 709.983 166.524 706.442 Q164.718 702.877 161.084 702.877 M161.084 699.173 Q166.894 699.173 169.95 703.78 Q173.029 708.363 173.029 717.113 Q173.029 725.84 169.95 730.446 Q166.894 735.03 161.084 735.03 Q155.274 735.03 152.195 730.446 Q149.14 725.84 149.14 717.113 Q149.14 708.363 152.195 703.78 Q155.274 699.173 161.084 699.173 Z" fill="#000000" fill-rule="nonzero" fill-opacity="1" /><path clip-path="url(#clip880)" d="M191.246 702.877 Q187.635 702.877 185.806 706.442 Q184.001 709.983 184.001 717.113 Q184.001 724.219 185.806 727.784 Q187.635 731.326 191.246 731.326 Q194.88 731.326 196.686 727.784 Q198.514 724.219 198.514 717.113 Q198.514 709.983 196.686 706.442 Q194.88 702.877 191.246 702.877 M191.246 699.173 Q197.056 699.173 200.112 703.78 Q203.19 708.363 203.19 717.113 Q203.19 725.84 200.112 730.446 Q197.056 735.03 191.246 735.03 Q185.436 735.03 182.357 730.446 Q179.302 725.84 179.302 717.113 Q179.302 708.363 182.357 703.78 Q185.436 699.173 191.246 699.173 Z" fill="#000000" fill-rule="nonzero" fill-opacity="1" /><path clip-path="url(#clip880)" d="M81.154 343.159 L110.83 343.159 L110.83 347.094 L81.154 347.094 L81.154 343.159 Z" fill="#000000" fill-rule="nonzero" fill-opacity="1" /><path clip-path="url(#clip880)" d="M133.769 329.502 L121.964 347.951 L133.769 347.951 L133.769 329.502 M132.543 325.428 L138.422 325.428 L138.422 347.951 L143.353 347.951 L143.353 351.84 L138.422 351.84 L138.422 359.988 L133.769 359.988 L133.769 351.84 L118.168 351.84 L118.168 347.326 L132.543 325.428 Z" fill="#000000" fill-rule="nonzero" fill-opacity="1" /><path clip-path="url(#clip880)" d="M161.084 328.507 Q157.473 328.507 155.644 332.071 Q153.839 335.613 153.839 342.743 Q153.839 349.849 155.644 353.414 Q157.473 356.955 161.084 356.955 Q164.718 356.955 166.524 353.414 Q168.353 349.849 168.353 342.743 Q168.353 335.613 166.524 332.071 Q164.718 328.507 161.084 328.507 M161.084 324.803 Q166.894 324.803 169.95 329.409 Q173.029 333.993 173.029 342.743 Q173.029 351.469 169.95 356.076 Q166.894 360.659 161.084 360.659 Q155.274 360.659 152.195 356.076 Q149.14 351.469 149.14 342.743 Q149.14 333.993 152.195 329.409 Q155.274 324.803 161.084 324.803 Z" fill="#000000" fill-rule="nonzero" fill-opacity="1" /><path clip-path="url(#clip880)" d="M191.246 328.507 Q187.635 328.507 185.806 332.071 Q184.001 335.613 184.001 342.743 Q184.001 349.849 185.806 353.414 Q187.635 356.955 191.246 356.955 Q194.88 356.955 196.686 353.414 Q198.514 349.849 198.514 342.743 Q198.514 335.613 196.686 332.071 Q194.88 328.507 191.246 328.507 M191.246 324.803 Q197.056 324.803 200.112 329.409 Q203.19 333.993 203.19 342.743 Q203.19 351.469 200.112 356.076 Q197.056 360.659 191.246 360.659 Q185.436 360.659 182.357 356.076 Q179.302 351.469 179.302 342.743 Q179.302 333.993 182.357 329.409 Q185.436 324.803 191.246 324.803 Z" fill="#000000" fill-rule="nonzero" fill-opacity="1" /><polyline clip-path="url(#clip882)" style="stroke:#009af9; stroke-linecap:round; stroke-linejoin:round; stroke-width:4; stroke-opacity:1; fill:none" points="299.008,168.746 300.006,169.012 301.003,87.9763 302.001,88.3207 302.998,125.398 303.996,125.663 304.993,208.992 305.991,209.093 306.988,191.847 307.985,192.342 308.983,88.9498 309.98,89.1764 310.978,120.244 311.975,120.433 312.973,120.365 313.97,120.115 314.968,202.234 315.965,202.571 316.963,104.276 317.96,104.517 318.958,95.688 319.955,95.8231 320.952,174.14 321.95,174.245 322.947,182.651 323.945,182.696 324.942,229.73 325.94,229.958 326.937,151.336 327.935,151.541 328.932,289.968 329.93,290.307 330.927,146.47 331.925,146.426 332.922,170.029 333.92,170.178 334.917,158.235 335.914,158.113 336.912,362.025 337.909,361.419 338.907,269.229 339.904,269.355 340.902,233.651 341.899,233.847 342.897,376.176 343.894,375.785 344.892,295.102 345.889,294.729 346.887,351.627 347.884,351.817 348.881,356.53 349.879,356.621 350.876,337.517 351.874,337.137 352.871,352.494 353.869,352.162 354.866,344.625 355.864,344.624 356.861,336.709 357.859,336.655 358.856,394.148 359.854,394.091 360.851,435.635 361.848,435.067 362.846,401.753 363.843,401.458 364.841,443.536 365.838,443.131 366.836,472.027 367.833,471.828 368.831,512.511 369.828,512.14 370.826,492.125 371.823,491.415 372.821,517.879 373.818,517.199 374.816,419.777 375.813,419.16 376.81,419.484 377.808,419.008 378.805,524.097 379.803,523.491 380.8,507.421 381.798,506.52 382.795,567.62 383.793,566.57 384.79,566.24 385.788,565.593 386.785,672.969 387.783,671.555 388.78,673.121 389.777,671.664 390.775,538.989 391.772,538.277 392.77,673.508 393.767,672.041 394.765,649.652 395.762,648.604 396.76,644.361 397.757,643.446 398.755,834.868 399.752,833.508 400.75,694.583 401.747,693.317 402.744,653.988 403.742,652.366 404.739,562.862 405.737,562.055 406.734,662.353 407.732,660.912 408.729,775.295 409.727,773.077 410.724,747.992 411.722,746.146 412.719,782.619 413.717,780.648 414.714,794.317 415.712,792.515 416.709,730.681 417.706,729.48 418.704,643.861 419.701,642.629 420.699,782.685 421.696,781.277 422.694,782.71 423.691,780.783 424.689,773.084 425.686,770.819 426.684,845.99 427.681,844.652 428.679,821.647 429.676,819.617 430.673,762.219 431.671,760.29 432.668,834.521 433.666,831.548 434.663,763.755 435.661,762.349 436.658,912.324 437.656,910.26 438.653,899.839 439.651,897.668 440.648,825.73 441.646,823.879 442.643,918.223 443.64,916.376 444.638,889.566 445.635,888.428 446.633,799.671 447.63,798.193 448.628,840.696 449.625,839.343 450.623,887.649 451.62,885.2 452.618,887.43 453.615,886.347 454.613,907.319 455.61,905.206 456.608,961.601 457.605,959.888 458.602,933.771 459.6,931.512 460.597,860.91 461.595,858.536 462.592,878.138 463.59,876.181 464.587,1051.43 465.585,1049.87 466.582,999.815 467.58,998.447 468.577,983.137 469.575,981.021 470.572,1040.71 471.569,1039.76 472.567,984.54 473.564,982.949 474.562,926.939 475.559,924.486 476.557,1041.28 477.554,1039.92 478.552,974.192 479.549,972.987 480.547,1021.68 481.544,1019.36 482.542,1034.83 483.539,1033.65 484.537,1005.95 485.534,1004.13 486.531,1052.43 487.529,1050.41 488.526,1035.02 489.524,1034.06 490.521,971.915 491.519,969.501 492.516,1074.86 493.514,1073.7 494.511,1071.06 495.509,1069.75 496.506,1106.45 497.504,1104.3 498.501,1028.67 499.498,1026.59 500.496,1175.08 501.493,1172.62 502.491,1073.72 503.488,1072.65 504.486,1144.29 505.483,1142.7 506.481,1004.47 507.478,1002.45 508.476,1052.45 509.473,1051.19 510.471,1099.03 511.468,1097.49 512.465,1118.29 513.463,1115.8 514.46,1111.13 515.458,1109.61 516.455,1212.77 517.453,1211.36 518.45,1088.35 519.448,1086.01 520.445,1261.97 521.443,1260.26 522.44,1157.67 523.438,1156.2 524.435,990.711 525.433,988.517 526.43,1177.01 527.427,1175.74 528.425,1179.59 529.422,1178.08 530.42,1123.25 531.417,1121.16 532.415,1175.97 533.412,1173.17 534.41,1157.73 535.407,1156.78 536.405,1258.34 537.402,1257.07 538.4,1183.5 539.397,1182.05 540.394,1178.31 541.392,1177.53 542.389,1164.79 543.387,1163.57 544.384,1173.48 545.382,1171.55 546.379,1135.83 547.377,1133.42 548.374,1230.63 549.372,1228.25 550.369,1114.03 551.367,1111.07 552.364,1229.98 553.361,1228.28 554.359,1293.21 555.356,1292.25 556.354,1196.31 557.351,1195.48 558.349,1192.73 559.346,1191.3 560.344,1121.44 561.341,1120.36 562.339,1183.46 563.336,1182.06 564.334,1199.67 565.331,1198.4 566.329,1228.72 567.326,1227.18 568.323,1178.85 569.321,1176.78 570.318,1198.92 571.316,1197.65 572.313,1176.6 573.311,1175.75 574.308,1154.82 575.306,1153.05 576.303,1279.69 577.301,1278.39 578.298,1349.49 579.296,1348.17 580.293,1223.46 581.29,1220.12 582.288,1215.46 583.285,1212.95 584.283,1283.2 585.28,1281.11 586.278,1225.64 587.275,1223.63 588.273,1247.36 589.27,1245.6 590.268,1239.33 591.265,1237.02 592.263,1208.62 593.26,1208.04 594.258,1267.73 595.255,1265.26 596.252,1259.41 597.25,1257.22 598.247,1213.67 599.245,1210.28 600.242,1290.72 601.24,1288.41 602.237,1225.46 603.235,1224.14 604.232,1252.93 605.23,1251.91 606.227,1236.88 607.225,1235.77 608.222,1286.17 609.219,1284.09 610.217,1310.94 611.214,1310.59 612.212,1278.6 613.209,1276.16 614.207,1234.97 615.204,1234.29 616.202,1281.95 617.199,1280.81 618.197,1307.5 619.194,1306.29 620.192,1287.62 621.189,1286.35 622.186,1327.54 623.184,1326.97 624.181,1232.07 625.179,1231.15 626.176,1283.47 627.174,1282.08 628.171,1310.12 629.169,1309.26 630.166,1301.86 631.164,1300.87 632.161,1281.43 633.159,1280.08 634.156,1269 635.154,1267.73 636.151,1297.7 637.148,1296.84 638.146,1341.62 639.143,1340.25 640.141,1289.44 641.138,1288.26 642.136,1287.57 643.133,1286.96 644.131,1281.8 645.128,1278.73 646.126,1273.49 647.123,1272.85 648.121,1309.81 649.118,1308.66 650.115,1324.6 651.113,1323.53 652.11,1302.73 653.108,1300.83 654.105,1255.91 655.103,1255.19 656.1,1346 657.098,1345.41 658.095,1273.69 659.093,1272.18 660.09,1262.79 661.088,1260.87 662.085,1311.61 663.082,1310.63 664.08,1330.41 665.077,1329.91 666.075,1317.84 667.072,1316.25 668.07,1303.46 669.067,1303 670.065,1287.77 671.062,1285.43 672.06,1338.53 673.057,1337.3 674.055,1327.12 675.052,1325.5 676.05,1311.12 677.047,1308.74 678.044,1367.17 679.042,1365.42 680.039,1303.53 681.037,1302.42 682.034,1311.02 683.032,1310.17 684.029,1329.08 685.027,1328.48 686.024,1238.07 687.022,1236.15 688.019,1267.22 689.017,1266.46 690.014,1278.08 691.011,1276.57 692.009,1281.26 693.006,1280.42 694.004,1296.99 695.001,1296.3 695.999,1361.65 696.996,1360.49 697.994,1340.44 698.991,1339.25 699.989,1288.29 700.986,1287.51 701.984,1360.88 702.981,1359.96 703.978,1298.9 704.976,1296.81 705.973,1335.14 706.971,1334.8 707.968,1352.79 708.966,1350.39 709.963,1358.98 710.961,1357.78 711.958,1339.29 712.956,1337.66 713.953,1395.74 714.951,1394.61 715.948,1323.08 716.946,1322.2 717.943,1309.78 718.94,1308.9 719.938,1263.67 720.935,1263 721.933,1347.34 722.93,1345.57 723.928,1370.39 724.925,1368.4 725.923,1299.82 726.92,1299.45 727.918,1347.67 728.915,1346.56 729.913,1299.02 730.91,1298.61 731.907,1356.52 732.905,1355.81 733.902,1306.36 734.9,1305.84 735.897,1334.88 736.895,1333.97 737.892,1266.7 738.89,1265.46 739.887,1359.17 740.885,1357.56 741.882,1330.88 742.88,1330 743.877,1363.1 744.875,1362.13 745.872,1265.04 746.869,1263.85 747.867,1375.26 748.864,1374.52 749.862,1303.6 750.859,1303.34 751.857,1351.21 752.854,1350.3 753.852,1352.58 754.849,1351.43 755.847,1363.56 756.844,1362.15 757.842,1334.08 758.839,1332.8 759.836,1368.54 760.834,1366.03 761.831,1399.44 762.829,1398.41 763.826,1378.74 764.824,1377.56 765.821,1354.81 766.819,1352.06 767.816,1359.22 768.814,1356.73 769.811,1400.72 770.809,1398.6 771.806,1370.35 772.803,1369.58 773.801,1375.85 774.798,1375.48 775.796,1326.4 776.793,1325.24 777.791,1362.26 778.788,1361.17 779.786,1306.96 780.783,1305.97 781.781,1379.64 782.778,1378.44 783.776,1329.41 784.773,1327.3 785.771,1328.1 786.768,1326.65 787.765,1376.22 788.763,1374.64 789.76,1408.31 790.758,1406.69 791.755,1347.86 792.753,1346.9 793.75,1343.32 794.748,1341.93 795.745,1400.41 796.743,1399.18 797.74,1379.03 798.738,1377.55 799.735,1384.64 800.732,1383.78 801.73,1340.06 802.727,1338.99 803.725,1351.88 804.722,1350.69 805.72,1370.44 806.717,1368.32 807.715,1367.9 808.712,1367.34 809.71,1314.87 810.707,1314.54 811.705,1381.13 812.702,1380.63 813.699,1373.03 814.697,1372.53 815.694,1373.86 816.692,1373.31 817.689,1390.95 818.687,1389.65 819.684,1331.3 820.682,1330.13 821.679,1355.62 822.677,1354.91 823.674,1368.33 824.672,1365.96 825.669,1391.16 826.667,1389.01 827.664,1379.36 828.661,1377.21 829.659,1366.42 830.656,1364.97 831.654,1420.39 832.651,1419.66 833.649,1354.42 834.646,1353.55 835.644,1355.98 836.641,1355.27 837.639,1335.81 838.636,1335.22 839.634,1303.43 840.631,1302.81 841.628,1438.72 842.626,1438.32 843.623,1380.98 844.621,1380.72 845.618,1333.82 846.616,1332.99 847.613,1355.05 848.611,1354.29 849.608,1359.63 850.606,1358.58 851.603,1398 852.601,1397.54 853.598,1369.21 854.596,1368.5 855.593,1309.89 856.59,1308.9 857.588,1363.12 858.585,1362.37 859.583,1368.04 860.58,1367.24 861.578,1343.62 862.575,1343.08 863.573,1382.86 864.57,1378.69 865.568,1364.03 866.565,1362.44 867.563,1322.92 868.56,1321.2 869.557,1352.01 870.555,1350.98 871.552,1349.07 872.55,1347.55 873.547,1352.36 874.545,1350.37 875.542,1377.94 876.54,1377.38 877.537,1385.22 878.535,1383.76 879.532,1350.42 880.53,1349.47 881.527,1347.18 882.524,1346.21 883.522,1359.91 884.519,1358.6 885.517,1395.92 886.514,1394.89 887.512,1345.71 888.509,1345.22 889.507,1351.14 890.504,1349.06 891.502,1386.93 892.499,1385.85 893.497,1370.68 894.494,1369.63 895.492,1390.33 896.489,1387.51 897.486,1373.97 898.484,1372.85 899.481,1313.06 900.479,1312.6 901.476,1354.71 902.474,1353.13 903.471,1304.33 904.469,1303.75 905.466,1381.83 906.464,1381.33 907.461,1382.43 908.459,1380.9 909.456,1325.25 910.453,1324.51 911.451,1413.75 912.448,1411.5 913.446,1353.57 914.443,1351.46 915.441,1389.74 916.438,1387.34 917.436,1374.8 918.433,1374.02 919.431,1352.3 920.428,1349.66 921.426,1403.42 922.423,1402.74 923.42,1416.81 924.418,1415.23 925.415,1308.68 926.413,1308.13 927.41,1380.36 928.408,1379.06 929.405,1312.73 930.403,1312.45 931.4,1387.41 932.398,1384.01 933.395,1402.5 934.393,1401.82 935.39,1336.3 936.388,1334.88 937.385,1325.32 938.382,1324.04 939.38,1381.33 940.377,1380.99 941.375,1337.1 942.372,1336.32 943.37,1359.93 944.367,1358.15 945.365,1341.6 946.362,1341.15 947.36,1386 948.357,1384.34 949.355,1383.26 950.352,1380.32 951.349,1402.7 952.347,1401.57 953.344,1384.96 954.342,1384.09 955.339,1332.21 956.337,1331.66 957.334,1368.29 958.332,1367.75 959.329,1360.58 960.327,1358.67 961.324,1379.53 962.322,1378.1 963.319,1382.96 964.316,1382.47 965.314,1368.13 966.311,1366.12 967.309,1358.95 968.306,1356.23 969.304,1405.67 970.301,1405.23 971.299,1400.8 972.296,1400.36 973.294,1372.08 974.291,1369.86 975.289,1347.52 976.286,1346.6 977.284,1405.32 978.281,1404.35 979.278,1373.59 980.276,1372.56 981.273,1338.25 982.271,1337.84 983.268,1413.35 984.266,1412.27 985.263,1388.36 986.261,1386.71 987.258,1381.04 988.256,1379.06 989.253,1392.9 990.251,1392.65 991.248,1340.1 992.245,1339.38 993.243,1366.92 994.24,1366.25 995.238,1359.36 996.235,1357.28 997.233,1336.54 998.23,1335.7 999.228,1298.94 1000.23,1297.86 1001.22,1412.36 1002.22,1410.61 1003.22,1352.05 1004.22,1351.08 1005.21,1390.21 1006.21,1389.2 1007.21,1377.65 1008.2,1376.44 1009.2,1361.63 1010.2,1358.83 1011.2,1422.98 1012.19,1421.86 1013.19,1375.56 1014.19,1374.36 1015.19,1344.35 1016.18,1341.54 1017.18,1352.66 1018.18,1352.06 1019.18,1345.87 1020.17,1345.2 1021.17,1394.66 1022.17,1392.23 1023.17,1352.32 1024.16,1351.08 1025.16,1376.4 1026.16,1375.91 1027.16,1393.96 1028.15,1393.12 1029.15,1386.05 1030.15,1385.02 1031.15,1383.28 1032.14,1382.98 1033.14,1371.39 1034.14,1369.5 1035.14,1319.78 1036.13,1317.34 1037.13,1382.74 1038.13,1382.28 1039.13,1369.98 1040.12,1367.89 1041.12,1418.47 1042.12,1418.2 1043.12,1390.68 1044.11,1390.11 1045.11,1372 1046.11,1371.18 1047.11,1358.26 1048.1,1356.6 1049.1,1372.64 1050.1,1371.12 1051.1,1359.18 1052.09,1358.91 1053.09,1394.29 1054.09,1393.36 1055.09,1354.4 1056.08,1353.68 1057.08,1374.12 1058.08,1372.93 1059.08,1353.89 1060.07,1351.69 1061.07,1391.97 1062.07,1390.9 1063.07,1365.79 1064.06,1364.71 1065.06,1370.15 1066.06,1369.42 1067.06,1391.92 1068.05,1390.8 1069.05,1402.05 1070.05,1399.84 1071.05,1386.36 1072.04,1385.07 1073.04,1405.53 1074.04,1404.59 1075.03,1351.79 1076.03,1351.2 1077.03,1385.23 1078.03,1384.44 1079.02,1394.81 1080.02,1393.11 1081.02,1412.42 1082.02,1412.05 1083.01,1389.55 1084.01,1388 1085.01,1379.92 1086.01,1378.81 1087,1404.6 1088,1403.57 1089,1346.52 1090,1344.81 1090.99,1418.3 1091.99,1416.37 1092.99,1313.31 1093.99,1312.49 1094.98,1353.27 1095.98,1352.01 1096.98,1407.24 1097.98,1406.78 1098.97,1371.9 1099.97,1371.32 1100.97,1399.54 1101.97,1397.92 1102.96,1374.89 1103.96,1373.79 1104.96,1403.48 1105.96,1403.26 1106.95,1351.45 1107.95,1350.67 1108.95,1382.59 1109.95,1380.05 1110.94,1376.21 1111.94,1375.06 1112.94,1366.6 1113.94,1365.6 1114.93,1385.55 1115.93,1384.39 1116.93,1383.7 1117.93,1383.21 1118.92,1383.18 1119.92,1381.11 1120.92,1385.23 1121.92,1384.28 1122.91,1400.72 1123.91,1397.36 1124.91,1325.82 1125.91,1322.02 1126.9,1382.48 1127.9,1382.19 1128.9,1367.09 1129.9,1365.39 1130.89,1381.9 1131.89,1381.45 1132.89,1406.53 1133.89,1405.79 1134.88,1369.75 1135.88,1365.96 1136.88,1335.95 1137.88,1335.73 1138.87,1398.72 1139.87,1398.09 1140.87,1403.15 1141.87,1402.61 1142.86,1374.29 1143.86,1372.73 1144.86,1391.2 1145.85,1389.66 1146.85,1384.62 1147.85,1383.81 1148.85,1361.46 1149.84,1359.07 1150.84,1379.27 1151.84,1378.17 1152.84,1396.66 1153.83,1394.87 1154.83,1406.87 1155.83,1406.13 1156.83,1359.7 1157.82,1357.96 1158.82,1395.07 1159.82,1393.22 1160.82,1395.85 1161.81,1393.86 1162.81,1363.71 1163.81,1362.91 1164.81,1377.21 1165.8,1376.27 1166.8,1390.48 1167.8,1389.54 1168.8,1395.56 1169.79,1394.56 1170.79,1381.82 1171.79,1380.58 1172.79,1389.29 1173.78,1386.96 1174.78,1390.53 1175.78,1389.48 1176.78,1366.08 1177.77,1365.41 1178.77,1362.9 1179.77,1362.13 1180.77,1386.85 1181.76,1386.5 1182.76,1372.08 1183.76,1370.99 1184.76,1380.65 1185.75,1379.13 1186.75,1377.17 1187.75,1375.25 1188.75,1371.88 1189.74,1370.91 1190.74,1352.64 1191.74,1351.29 1192.74,1366.48 1193.73,1363.63 1194.73,1371.92 1195.73,1370.71 1196.73,1362.55 1197.72,1361.96 1198.72,1366.18 1199.72,1365.06 1200.72,1407.64 1201.71,1405.83 1202.71,1371.75 1203.71,1370.39 1204.71,1401.38 1205.7,1399.77 1206.7,1419.74 1207.7,1419 1208.7,1391.84 1209.69,1391.24 1210.69,1402.97 1211.69,1402.48 1212.68,1372.87 1213.68,1371.54 1214.68,1409.45 1215.68,1408.78 1216.67,1371.37 1217.67,1370.4 1218.67,1372.37 1219.67,1371.38 1220.66,1385.18 1221.66,1384.11 1222.66,1387.02 1223.66,1385.77 1224.65,1360.75 1225.65,1360.3 1226.65,1385.35 1227.65,1382 1228.64,1374.55 1229.64,1372.94 1230.64,1404.82 1231.64,1403.77 1232.63,1390.73 1233.63,1389.37 1234.63,1393.65 1235.63,1393.27 1236.62,1403.98 1237.62,1402.61 1238.62,1367.58 1239.62,1365.96 1240.61,1342.25 1241.61,1340.13 1242.61,1391.49 1243.61,1389.01 1244.6,1390.96 1245.6,1389.38 1246.6,1373.32 1247.6,1372.21 1248.59,1388.1 1249.59,1387.39 1250.59,1358.18 1251.59,1356.39 1252.58,1394.77 1253.58,1392.63 1254.58,1402.92 1255.58,1401.25 1256.57,1354.81 1257.57,1353.97 1258.57,1401.27 1259.57,1400.32 1260.56,1398.43 1261.56,1397.64 1262.56,1362.78 1263.56,1361.6 1264.55,1383.23 1265.55,1381.53 1266.55,1372.4 1267.55,1371.54 1268.54,1439.58 1269.54,1438.86 1270.54,1390.9 1271.54,1388.36 1272.53,1370.84 1273.53,1370.39 1274.53,1393.69 1275.53,1391.89 1276.52,1398.62 1277.52,1396.83 1278.52,1395.73 1279.51,1393.59 1280.51,1397.41 1281.51,1396.52 1282.51,1381.42 1283.5,1378.41 1284.5,1395.47 1285.5,1393.92 1286.5,1398.9 1287.49,1396.88 1288.49,1401.57 1289.49,1400.35 1290.49,1381.11 1291.48,1379.73 1292.48,1398.77 1293.48,1398.28 1294.48,1404.54 1295.47,1403.84 1296.47,1389.09 1297.47,1387.65 1298.47,1390.06 1299.46,1388.82 1300.46,1388.46 1301.46,1387.63 1302.46,1374.09 1303.45,1372.88 1304.45,1382.15 1305.45,1380.45 1306.45,1398.13 1307.44,1395.06 1308.44,1351.29 1309.44,1350.04 1310.44,1399.4 1311.43,1398.49 1312.43,1410.22 1313.43,1409.76 1314.43,1351.48 1315.42,1349.04 1316.42,1374.35 1317.42,1373.26 1318.42,1363.15 1319.41,1361.1 1320.41,1400.19 1321.41,1398.55 1322.41,1426.06 1323.4,1425.52 1324.4,1371.15 1325.4,1370.33 1326.4,1389.23 1327.39,1388.05 1328.39,1375.23 1329.39,1372.54 1330.39,1358.91 1331.38,1358.36 1332.38,1383.33 1333.38,1381.07 1334.38,1390.93 1335.37,1389.67 1336.37,1368.4 1337.37,1366.6 1338.37,1399.58 1339.36,1398.02 1340.36,1390.55 1341.36,1388.43 1342.36,1371.73 1343.35,1370.46 1344.35,1365.83 1345.35,1365.13 1346.35,1359.2 1347.34,1357.91 1348.34,1360.95 1349.34,1359.28 1350.33,1407.02 1351.33,1404.45 1352.33,1376.15 1353.33,1375.39 1354.32,1406.08 1355.32,1405.15 1356.32,1372.78 1357.32,1371.32 1358.31,1405.11 1359.31,1404.5 1360.31,1402.31 1361.31,1402.02 1362.3,1387.18 1363.3,1386.46 1364.3,1387.44 1365.3,1386.41 1366.29,1404.3 1367.29,1403.86 1368.29,1372.4 1369.29,1368.81 1370.28,1361.06 1371.28,1360.54 1372.28,1360 1373.28,1359.07 1374.27,1418.65 1375.27,1417.83 1376.27,1420.38 1377.27,1420 1378.26,1398 1379.26,1395.23 1380.26,1367.59 1381.26,1366.68 1382.25,1389.99 1383.25,1387.45 1384.25,1374.7 1385.25,1373.85 1386.24,1408.83 1387.24,1407.07 1388.24,1356.41 1389.24,1355.68 1390.23,1377.43 1391.23,1375.66 1392.23,1376.24 1393.23,1375.09 1394.22,1413.59 1395.22,1412.03 1396.22,1368.66 1397.22,1366.39 1398.21,1376.99 1399.21,1376.34 1400.21,1420.96 1401.21,1420.35 1402.2,1389.64 1403.2,1388.99 1404.2,1386.73 1405.2,1385.76 1406.19,1392.88 1407.19,1389.56 1408.19,1370.08 1409.19,1368.42 1410.18,1414.51 1411.18,1414.02 1412.18,1360.5 1413.18,1359.3 1414.17,1386.38 1415.17,1385.76 1416.17,1391.09 1417.16,1389.59 1418.16,1391.82 1419.16,1391.46 1420.16,1399.74 1421.15,1399.22 1422.15,1373.92 1423.15,1370.19 1424.15,1406.83 1425.14,1405.82 1426.14,1375.85 1427.14,1374.58 1428.14,1373.97 1429.13,1372.96 1430.13,1401.41 1431.13,1400.99 1432.13,1393.51 1433.12,1393.01 1434.12,1377.92 1435.12,1376.48 1436.12,1400.81 1437.11,1399.6 1438.11,1429.34 1439.11,1428.46 1440.11,1372.12 1441.1,1371.25 1442.1,1408.91 1443.1,1407.28 1444.1,1375.61 1445.09,1375.17 1446.09,1407.67 1447.09,1406.19 1448.09,1407.35 1449.08,1405.53 1450.08,1362.53 1451.08,1362.08 1452.08,1401.29 1453.07,1399.69 1454.07,1417.55 1455.07,1415.83 1456.07,1374.11 1457.06,1373.61 1458.06,1377.07 1459.06,1375.6 1460.06,1392.98 1461.05,1392.11 1462.05,1418.75 1463.05,1415.22 1464.05,1363.31 1465.04,1362.51 1466.04,1356.34 1467.04,1355.69 1468.04,1398.02 1469.03,1397.01 1470.03,1407.25 1471.03,1404.52 1472.03,1386.81 1473.02,1385.45 1474.02,1394.25 1475.02,1392.14 1476.02,1378.59 1477.01,1378.19 1478.01,1412.75 1479.01,1411.16 1480.01,1398.84 1481,1397.43 1482,1409.77 1483,1408.83 1484,1399.14 1484.99,1397.38 1485.99,1394.39 1486.99,1394.01 1487.98,1412.3 1488.98,1412.09 1489.98,1393.21 1490.98,1392.73 1491.97,1392.94 1492.97,1391.15 1493.97,1395.49 1494.97,1394.93 1495.96,1414.68 1496.96,1414.04 1497.96,1372.49 1498.96,1371.43 1499.95,1398.11 1500.95,1396.25 1501.95,1347.26 1502.95,1346.23 1503.94,1398.14 1504.94,1396.49 1505.94,1358.65 1506.94,1356.77 1507.93,1396.09 1508.93,1394.2 1509.93,1412.93 1510.93,1412.16 1511.92,1394.41 1512.92,1392.67 1513.92,1383.62 1514.92,1381.85 1515.91,1396.55 1516.91,1392.47 1517.91,1414.15 1518.91,1413.34 1519.9,1398.96 1520.9,1398.07 1521.9,1418.84 1522.9,1417.99 1523.89,1390.12 1524.89,1389.01 1525.89,1377.61 1526.89,1376.39 1527.88,1377.32 1528.88,1376.64 1529.88,1407.46 1530.88,1407.11 1531.87,1400.32 1532.87,1399.74 1533.87,1404.39 1534.87,1403.5 1535.86,1406.33 1536.86,1405.04 1537.86,1398.45 1538.86,1398.07 1539.85,1396.44 1540.85,1395.75 1541.85,1395.14 1542.85,1393.51 1543.84,1408.47 1544.84,1407.15 1545.84,1445.72 1546.84,1443.24 1547.83,1397.89 1548.83,1397.54 1549.83,1387.18 1550.83,1386.31 1551.82,1396.05 1552.82,1395.02 1553.82,1410.88 1554.81,1410.35 1555.81,1397.19 1556.81,1395.93 1557.81,1403.95 1558.8,1402.22 1559.8,1415.71 1560.8,1413.98 1561.8,1429.59 1562.79,1428.67 1563.79,1354.37 1564.79,1353.55 1565.79,1397.11 1566.78,1396.65 1567.78,1422.84 1568.78,1421.88 1569.78,1398.96 1570.77,1397.37 1571.77,1410.2 1572.77,1409.35 1573.77,1388.5 1574.76,1386.74 1575.76,1407.94 1576.76,1407.17 1577.76,1387.14 1578.75,1386.85 1579.75,1359.36 1580.75,1358.64 1581.75,1397.61 1582.74,1396.89 1583.74,1400.27 1584.74,1399.58 1585.74,1395.37 1586.73,1393.37 1587.73,1399.16 1588.73,1398.81 1589.73,1401.76 1590.72,1400.13 1591.72,1378.47 1592.72,1376.8 1593.72,1395.31 1594.71,1394.21 1595.71,1379.12 1596.71,1377.66 1597.71,1395.39 1598.7,1393.29 1599.7,1380.27 1600.7,1379.78 1601.7,1387.11 1602.69,1386.87 1603.69,1402.29 1604.69,1401.2 1605.69,1427.95 1606.68,1427.64 1607.68,1365.49 1608.68,1364.14 1609.68,1382.35 1610.67,1379.73 1611.67,1378.81 1612.67,1378.15 1613.67,1368.37 1614.66,1367.13 1615.66,1386.21 1616.66,1385.32 1617.66,1378.2 1618.65,1377.36 1619.65,1391.61 1620.65,1391.04 1621.65,1399.76 1622.64,1398.65 1623.64,1414.34 1624.64,1412.68 1625.63,1403.72 1626.63,1403.15 1627.63,1397.85 1628.63,1397.05 1629.62,1404.41 1630.62,1402.13 1631.62,1399.14 1632.62,1397.25 1633.61,1389.13 1634.61,1388.54 1635.61,1354.01 1636.61,1353.11 1637.6,1404.18 1638.6,1402.06 1639.6,1392.49 1640.6,1390.59 1641.59,1411.55 1642.59,1410.86 1643.59,1385.29 1644.59,1384.48 1645.58,1382.61 1646.58,1381.81 1647.58,1415.81 1648.58,1414.13 1649.57,1391.36 1650.57,1389.98 1651.57,1400.22 1652.57,1398.44 1653.56,1381.79 1654.56,1378.82 1655.56,1373.54 1656.56,1371.99 1657.55,1379.42 1658.55,1377.95 1659.55,1389.26 1660.55,1388.71 1661.54,1387.83 1662.54,1387.37 1663.54,1391.3 1664.54,1389.56 1665.53,1375.18 1666.53,1374.53 1667.53,1387.58 1668.53,1386.96 1669.52,1395.59 1670.52,1393.95 1671.52,1407.71 1672.52,1406.73 1673.51,1370.49 1674.51,1370.09 1675.51,1397.01 1676.51,1396.03 1677.5,1397.72 1678.5,1397.15 1679.5,1368.12 1680.5,1367.72 1681.49,1408.07 1682.49,1406.14 1683.49,1389.45 1684.49,1388.09 1685.48,1398.38 1686.48,1397.58 1687.48,1409.12 1688.48,1407.77 1689.47,1387.03 1690.47,1386.31 1691.47,1407.03 1692.46,1406.49 1693.46,1388.93 1694.46,1387.97 1695.46,1367.66 1696.45,1367.46 1697.45,1405.89 1698.45,1403.15 1699.45,1407.51 1700.44,1406.78 1701.44,1369.05 1702.44,1367.67 1703.44,1392.36 1704.43,1391.83 1705.43,1410.66 1706.43,1407.49 1707.43,1393.62 1708.42,1392.84 1709.42,1395.9 1710.42,1395.23 1711.42,1385.56 1712.41,1385.24 1713.41,1373.04 1714.41,1372.34 1715.41,1423.54 1716.4,1422.98 1717.4,1419.19 1718.4,1417.77 1719.4,1398.52 1720.39,1397.01 1721.39,1407.82 1722.39,1406.63 1723.39,1410.94 1724.38,1409.51 1725.38,1390.09 1726.38,1388.05 1727.38,1405.49 1728.37,1402.56 1729.37,1396.73 1730.37,1396.25 1731.37,1369.37 1732.36,1367.53 1733.36,1404.94 1734.36,1404.06 1735.36,1413.84 1736.35,1413.46 1737.35,1410.2 1738.35,1409.69 1739.35,1401.27 1740.34,1398.84 1741.34,1408.46 1742.34,1406.74 1743.34,1380.52 1744.33,1379.71 1745.33,1373.32 1746.33,1372.37 1747.33,1396.86 1748.32,1396.2 1749.32,1399.81 1750.32,1398.57 1751.32,1406.28 1752.31,1405.04 1753.31,1405.31 1754.31,1404.07 1755.31,1416.12 1756.3,1414.82 1757.3,1376.91 1758.3,1376.44 1759.29,1388.97 1760.29,1388.34 1761.29,1387.2 1762.29,1386.69 1763.28,1406.22 1764.28,1404.58 1765.28,1419.88 1766.28,1419.1 1767.27,1395.86 1768.27,1395.23 1769.27,1372.15 1770.27,1371.21 1771.26,1394.93 1772.26,1393.33 1773.26,1382.19 1774.26,1380.78 1775.25,1408.99 1776.25,1407.23 1777.25,1406.62 1778.25,1406.39 1779.24,1375.65 1780.24,1374.84 1781.24,1393.81 1782.24,1392.12 1783.23,1388.96 1784.23,1386.91 1785.23,1405.53 1786.23,1405.22 1787.22,1402.68 1788.22,1400.65 1789.22,1388.75 1790.22,1387.6 1791.21,1407.27 1792.21,1406.73 1793.21,1409.34 1794.21,1408.12 1795.2,1404.6 1796.2,1404.07 1797.2,1390.74 1798.2,1390.04 1799.19,1414.02 1800.19,1413.72 1801.19,1407.81 1802.19,1406.93 1803.18,1400.54 1804.18,1399.55 1805.18,1399.63 1806.18,1398.39 1807.17,1394.15 1808.17,1393.21 1809.17,1393.27 1810.17,1392 1811.16,1392.11 1812.16,1390.68 1813.16,1406.28 1814.16,1405.05 1815.15,1380.55 1816.15,1379.13 1817.15,1419.21 1818.15,1418.5 1819.14,1414.36 1820.14,1413.11 1821.14,1378.19 1822.14,1377.75 1823.13,1411.38 1824.13,1410.07 1825.13,1396.8 1826.13,1394.66 1827.12,1408.34 1828.12,1407.14 1829.12,1394.15 1830.11,1393.07 1831.11,1374.99 1832.11,1373.88 1833.11,1384.28 1834.1,1382.8 1835.1,1401.98 1836.1,1399.69 1837.1,1380.12 1838.09,1379.22 1839.09,1406.97 1840.09,1406.23 1841.09,1389.44 1842.08,1388.2 1843.08,1365.4 1844.08,1364.19 1845.08,1386.91 1846.07,1385.84 1847.07,1386.74 1848.07,1386.34 1849.07,1402.87 1850.06,1401.61 1851.06,1395.08 1852.06,1394.65 1853.06,1409.89 1854.05,1408.95 1855.05,1411.8 1856.05,1410.03 1857.05,1406.58 1858.04,1406.13 1859.04,1409.46 1860.04,1406.6 1861.04,1406.79 1862.03,1406.19 1863.03,1378.37 1864.03,1378.11 1865.03,1409.09 1866.02,1407.42 1867.02,1402.72 1868.02,1401.71 1869.02,1407.55 1870.01,1407.08 1871.01,1395.43 1872.01,1391.9 1873.01,1408.33 1874,1407.31 1875,1408.16 1876,1407.45 1877,1413.32 1877.99,1411.7 1878.99,1417.78 1879.99,1416.81 1880.99,1395.88 1881.98,1394 1882.98,1398.87 1883.98,1396.92 1884.98,1377.22 1885.97,1376.49 1886.97,1389.47 1887.97,1387.31 1888.97,1398.04 1889.96,1395.89 1890.96,1413.97 1891.96,1413.03 1892.96,1398.16 1893.95,1397.33 1894.95,1385.27 1895.95,1384.48 1896.94,1425.08 1897.94,1424.15 1898.94,1417.58 1899.94,1416.37 1900.93,1399.5 1901.93,1398.36 1902.93,1412.7 1903.93,1410.86 1904.92,1405.99 1905.92,1404.85 1906.92,1370.66 1907.92,1370.32 1908.91,1396.99 1909.91,1395.5 1910.91,1399.71 1911.91,1399.18 1912.9,1398.32 1913.9,1397.66 1914.9,1403.69 1915.9,1403.12 1916.89,1406.32 1917.89,1405.3 1918.89,1397.73 1919.89,1397.07 1920.88,1401.67 1921.88,1399.49 1922.88,1405.24 1923.88,1402.33 1924.87,1388.24 1925.87,1387.42 1926.87,1378.65 1927.87,1376.86 1928.86,1377.6 1929.86,1377.27 1930.86,1408.26 1931.86,1406.9 1932.85,1398.88 1933.85,1397.6 1934.85,1404.15 1935.85,1403.39 1936.84,1397.76 1937.84,1396.58 1938.84,1410.75 1939.84,1409.89 1940.83,1407.56 1941.83,1407.01 1942.83,1374.55 1943.83,1373.87 1944.82,1394.66 1945.82,1391.38 1946.82,1400.53 1947.82,1399.32 1948.81,1410.96 1949.81,1409.72 1950.81,1379.88 1951.81,1377.98 1952.8,1402.44 1953.8,1398.68 1954.8,1404.97 1955.8,1404.04 1956.79,1378.68 1957.79,1377.81 1958.79,1385.08 1959.79,1383.79 1960.78,1404.51 1961.78,1404.02 1962.78,1408.42 1963.78,1407.63 1964.77,1396.78 1965.77,1395.45 1966.77,1407.42 1967.76,1405.93 1968.76,1385.6 1969.76,1383.19 1970.76,1406.11 1971.75,1406.02 1972.75,1377.11 1973.75,1376.59 1974.75,1407.98 1975.74,1406.84 1976.74,1397.61 1977.74,1397.11 1978.74,1407 1979.73,1404.25 1980.73,1388.96 1981.73,1388.14 1982.73,1388.5 1983.72,1387.01 1984.72,1401.23 1985.72,1398.48 1986.72,1421.18 1987.71,1419.56 1988.71,1427.92 1989.71,1427.13 1990.71,1363.27 1991.7,1361.3 1992.7,1378.22 1993.7,1376.88 1994.7,1408.23 1995.69,1407.28 1996.69,1387.19 1997.69,1385.82 1998.69,1384.65 1999.68,1383.63 2000.68,1399.61 2001.68,1398.25 2002.68,1397.15 2003.67,1396.64 2004.67,1406.61 2005.67,1406.06 2006.67,1403.85 2007.66,1401.34 2008.66,1415.08 2009.66,1412.98 2010.66,1392.7 2011.65,1391 2012.65,1396.12 2013.65,1394.71 2014.65,1373.13 2015.64,1369.92 2016.64,1415.56 2017.64,1415.24 2018.64,1400.39 2019.63,1398.08 2020.63,1410.57 2021.63,1409.3 2022.63,1402.67 2023.62,1401.22 2024.62,1421.32 2025.62,1418.88 2026.62,1370.43 2027.61,1369.47 2028.61,1421.86 2029.61,1420.58 2030.61,1389.39 2031.6,1386.25 2032.6,1372.86 2033.6,1371.18 2034.59,1388.02 2035.59,1387.05 2036.59,1388.31 2037.59,1387.28 2038.58,1412.71 2039.58,1410.19 2040.58,1411.33 2041.58,1409.97 2042.57,1407.67 2043.57,1406.31 2044.57,1393.46 2045.57,1390.01 2046.56,1407.17 2047.56,1406.5 2048.56,1406.39 2049.56,1403.37 2050.55,1395.91 2051.55,1394.85 2052.55,1403.91 2053.55,1403.06 2054.54,1412.03 2055.54,1410.05 2056.54,1411.66 2057.54,1408.9 2058.53,1380.01 2059.53,1379.19 2060.53,1389.43 2061.53,1388.56 2062.52,1417.82 2063.52,1415.62 2064.52,1396.91 2065.52,1395.52 2066.51,1407.96 2067.51,1407.46 2068.51,1407 2069.51,1405.23 2070.5,1415.76 2071.5,1414.4 2072.5,1383.81 2073.5,1382.38 2074.49,1408.13 2075.49,1406.92 2076.49,1406.18 2077.49,1404.27 2078.48,1404.5 2079.48,1403.58 2080.48,1397.24 2081.48,1396.4 2082.47,1390.01 2083.47,1387.83 2084.47,1385.66 2085.47,1385.38 2086.46,1384.58 2087.46,1384.05 2088.46,1416.13 2089.46,1414.35 2090.45,1402.77 2091.45,1402.08 2092.45,1396.71 2093.45,1395.38 2094.44,1393.89 2095.44,1393.5 2096.44,1402.53 2097.44,1401.32 2098.43,1395.45 2099.43,1394.86 2100.43,1421.05 2101.43,1419.51 2102.42,1385.3 2103.42,1384.59 2104.42,1425.55 2105.41,1422.32 2106.41,1406.12 2107.41,1404.79 2108.41,1397.64 2109.4,1397.11 2110.4,1369.22 2111.4,1369.03 2112.4,1388.07 2113.39,1386.97 2114.39,1417.01 2115.39,1415.87 2116.39,1419.22 2117.38,1418.15 2118.38,1396.2 2119.38,1395.16 2120.38,1381.61 2121.37,1380.66 2122.37,1399.11 2123.37,1397.67 2124.37,1397.46 2125.36,1397 2126.36,1370.29 2127.36,1369.31 2128.36,1417.49 2129.35,1416.79 2130.35,1426.47 2131.35,1425.61 2132.35,1426.9 2133.34,1426.16 2134.34,1412.46 2135.34,1411.51 2136.34,1392.57 2137.33,1391.85 2138.33,1403.36 2139.33,1399.9 2140.33,1408.87 2141.32,1407.08 2142.32,1401.53 2143.32,1399.84 2144.32,1405.69 2145.31,1403.76 2146.31,1409.9 2147.31,1408.16 2148.31,1396.48 2149.3,1395.19 2150.3,1401.43 2151.3,1398.58 2152.3,1389.4 2153.29,1388.17 2154.29,1398.21 2155.29,1396.52 2156.29,1404.87 2157.28,1404.07 2158.28,1413.59 2159.28,1412.21 2160.28,1402.77 2161.27,1401.07 2162.27,1426.63 2163.27,1424.6 2164.27,1416.5 2165.26,1415.58 2166.26,1385.28 2167.26,1384.19 2168.26,1403.93 2169.25,1402.23 2170.25,1377.45 2171.25,1376.36 2172.24,1404.94 2173.24,1404.28 2174.24,1404.22 2175.24,1403.97 2176.23,1384.91 2177.23,1383.42 2178.23,1372.87 2179.23,1371.14 2180.22,1405.46 2181.22,1405.21 2182.22,1417.51 2183.22,1416.61 2184.21,1382.1 2185.21,1380.94 2186.21,1404.65 2187.21,1403.82 2188.2,1404.91 2189.2,1403.86 2190.2,1416.21 2191.2,1414.05 2192.19,1408.02 2193.19,1407.23 2194.19,1395.93 2195.19,1394.37 2196.18,1390.09 2197.18,1388.86 2198.18,1429.93 2199.18,1428.75 2200.17,1407.67 2201.17,1406.11 2202.17,1388.92 2203.17,1388.73 2204.16,1428.21 2205.16,1426.88 2206.16,1409.14 2207.16,1408.1 2208.15,1397.9 2209.15,1396.53 2210.15,1388.18 2211.15,1387.01 2212.14,1390.36 2213.14,1389.59 2214.14,1406.96 2215.14,1406.26 2216.13,1401.02 2217.13,1399.18 2218.13,1396.16 2219.13,1394.81 2220.12,1406.95 2221.12,1406.71 2222.12,1408.27 2223.12,1407.45 2224.11,1371.61 2225.11,1371.29 2226.11,1397.17 2227.11,1396.14 2228.1,1401.99 2229.1,1400.89 2230.1,1420.47 2231.1,1417.78 2232.09,1405.47 2233.09,1402.67 2234.09,1406.98 2235.09,1406.01 2236.08,1398.31 2237.08,1398.01 2238.08,1406.64 2239.07,1405.03 2240.07,1407.81 2241.07,1406.15 2242.07,1390.51 2243.06,1389.85 2244.06,1398.19 2245.06,1397.53 2246.06,1387.16 2247.05,1386.36 2248.05,1402.77 2249.05,1400.52 2250.05,1415.93 2251.04,1414.35 2252.04,1384.12 2253.04,1383.22 2254.04,1416.01 2255.03,1415.03 2256.03,1417.75 2257.03,1415.42 2258.03,1390.82 2259.02,1389.11 2260.02,1406.51 2261.02,1403.08 2262.02,1421.11 2263.01,1419.56 2264.01,1395.21 2265.01,1394.23 2266.01,1395.91 2267,1395.21 2268,1400.09 2269,1398.33 2270,1398.99 2270.99,1397.87 2271.99,1396.69 2272.99,1396 2273.99,1405.46 2274.98,1405.01 2275.98,1393.52 2276.98,1390.53 2277.98,1383.32 2278.97,1382.8 2279.97,1381.68 2280.97,1380.38 2281.97,1441.76 2282.96,1440.21 2283.96,1378.19 2284.96,1377.36 2285.96,1407.98 2286.95,1406.44 2287.95,1375.65 2288.95,1373.46 2289.95,1399.85 2290.94,1399.34 2291.94,1396.82 2292.94,1395.57 "/>
<path clip-path="url(#clip880)" d="M2018.52 198.898 L2282.3 198.898 L2282.3 95.2176 L2018.52 95.2176  Z" fill="#ffffff" fill-rule="evenodd" fill-opacity="1"/>
<polyline clip-path="url(#clip880)" style="stroke:#000000; stroke-linecap:round; stroke-linejoin:round; stroke-width:4; stroke-opacity:1; fill:none" points="2018.52,198.898 2282.3,198.898 2282.3,95.2176 2018.52,95.2176 2018.52,198.898 "/>
<polyline clip-path="url(#clip880)" style="stroke:#009af9; stroke-linecap:round; stroke-linejoin:round; stroke-width:4; stroke-opacity:1; fill:none" points="2042,147.058 2182.91,147.058 "/>
<path clip-path="url(#clip880)" d="M2220.23 166.745 Q2218.43 171.375 2216.71 172.787 Q2215 174.199 2212.13 174.199 L2208.73 174.199 L2208.73 170.634 L2211.23 170.634 Q2212.99 170.634 2213.96 169.8 Q2214.93 168.967 2216.11 165.865 L2216.88 163.921 L2206.39 138.412 L2210.9 138.412 L2219.01 158.689 L2227.11 138.412 L2231.62 138.412 L2220.23 166.745 Z" fill="#000000" fill-rule="nonzero" fill-opacity="1" /><path clip-path="url(#clip880)" d="M2238.91 160.402 L2246.55 160.402 L2246.55 134.037 L2238.24 135.703 L2238.24 131.444 L2246.5 129.778 L2251.18 129.778 L2251.18 160.402 L2258.82 160.402 L2258.82 164.338 L2238.91 164.338 L2238.91 160.402 Z" fill="#000000" fill-rule="nonzero" fill-opacity="1" /></svg>
