<?xml version="1.0" encoding="utf-8"?>
<svg xmlns="http://www.w3.org/2000/svg" xmlns:xlink="http://www.w3.org/1999/xlink" width="600" height="400" viewBox="0 0 2400 1600">
<defs>
  <clipPath id="clip000">
    <rect x="0" y="0" width="2400" height="1600"/>
  </clipPath>
</defs>
<path clip-path="url(#clip000)" d="M0 1600 L2400 1600 L2400 0 L0 0  Z" fill="#ffffff" fill-rule="evenodd" fill-opacity="1"/>
<defs>
  <clipPath id="clip001">
    <rect x="480" y="0" width="1681" height="1600"/>
  </clipPath>
</defs>
<path clip-path="url(#clip000)" d="M186.274 1486.45 L2352.76 1486.45 L2352.76 47.2441 L186.274 47.2441  Z" fill="#ffffff" fill-rule="evenodd" fill-opacity="1"/>
<defs>
  <clipPath id="clip002">
    <rect x="186" y="47" width="2167" height="1440"/>
  </clipPath>
</defs>
<polyline clip-path="url(#clip002)" style="stroke:#000000; stroke-linecap:round; stroke-linejoin:round; stroke-width:2; stroke-opacity:0.1; fill:none" points="247.59,1486.45 247.59,47.2441 "/>
<polyline clip-path="url(#clip002)" style="stroke:#000000; stroke-linecap:round; stroke-linejoin:round; stroke-width:2; stroke-opacity:0.1; fill:none" points="759.064,1486.45 759.064,47.2441 "/>
<polyline clip-path="url(#clip002)" style="stroke:#000000; stroke-linecap:round; stroke-linejoin:round; stroke-width:2; stroke-opacity:0.1; fill:none" points="1270.54,1486.45 1270.54,47.2441 "/>
<polyline clip-path="url(#clip002)" style="stroke:#000000; stroke-linecap:round; stroke-linejoin:round; stroke-width:2; stroke-opacity:0.1; fill:none" points="1782.01,1486.45 1782.01,47.2441 "/>
<polyline clip-path="url(#clip002)" style="stroke:#000000; stroke-linecap:round; stroke-linejoin:round; stroke-width:2; stroke-opacity:0.1; fill:none" points="2293.49,1486.45 2293.49,47.2441 "/>
<polyline clip-path="url(#clip000)" style="stroke:#000000; stroke-linecap:round; stroke-linejoin:round; stroke-width:4; stroke-opacity:1; fill:none" points="186.274,1486.45 2352.76,1486.45 "/>
<polyline clip-path="url(#clip000)" style="stroke:#000000; stroke-linecap:round; stroke-linejoin:round; stroke-width:4; stroke-opacity:1; fill:none" points="247.59,1486.45 247.59,1467.55 "/>
<polyline clip-path="url(#clip000)" style="stroke:#000000; stroke-linecap:round; stroke-linejoin:round; stroke-width:4; stroke-opacity:1; fill:none" points="759.064,1486.45 759.064,1467.55 "/>
<polyline clip-path="url(#clip000)" style="stroke:#000000; stroke-linecap:round; stroke-linejoin:round; stroke-width:4; stroke-opacity:1; fill:none" points="1270.54,1486.45 1270.54,1467.55 "/>
<polyline clip-path="url(#clip000)" style="stroke:#000000; stroke-linecap:round; stroke-linejoin:round; stroke-width:4; stroke-opacity:1; fill:none" points="1782.01,1486.45 1782.01,1467.55 "/>
<polyline clip-path="url(#clip000)" style="stroke:#000000; stroke-linecap:round; stroke-linejoin:round; stroke-width:4; stroke-opacity:1; fill:none" points="2293.49,1486.45 2293.49,1467.55 "/>
<path clip-path="url(#clip000)" d="M247.59 1517.37 Q243.978 1517.37 242.15 1520.93 Q240.344 1524.47 240.344 1531.6 Q240.344 1538.71 242.15 1542.27 Q243.978 1545.82 247.59 1545.82 Q251.224 1545.82 253.029 1542.27 Q254.858 1538.71 254.858 1531.6 Q254.858 1524.47 253.029 1520.93 Q251.224 1517.37 247.59 1517.37 M247.59 1513.66 Q253.4 1513.66 256.455 1518.27 Q259.534 1522.85 259.534 1531.6 Q259.534 1540.33 256.455 1544.94 Q253.4 1549.52 247.59 1549.52 Q241.779 1549.52 238.701 1544.94 Q235.645 1540.33 235.645 1531.6 Q235.645 1522.85 238.701 1518.27 Q241.779 1513.66 247.59 1513.66 Z" fill="#000000" fill-rule="nonzero" fill-opacity="1" /><path clip-path="url(#clip000)" d="M722.756 1544.91 L739.075 1544.91 L739.075 1548.85 L717.131 1548.85 L717.131 1544.91 Q719.793 1542.16 724.376 1537.53 Q728.983 1532.88 730.163 1531.53 Q732.409 1529.01 733.288 1527.27 Q734.191 1525.51 734.191 1523.82 Q734.191 1521.07 732.247 1519.33 Q730.325 1517.6 727.224 1517.6 Q725.025 1517.6 722.571 1518.36 Q720.14 1519.13 717.363 1520.68 L717.363 1515.95 Q720.187 1514.82 722.64 1514.24 Q725.094 1513.66 727.131 1513.66 Q732.501 1513.66 735.696 1516.35 Q738.89 1519.03 738.89 1523.52 Q738.89 1525.65 738.08 1527.57 Q737.293 1529.47 735.187 1532.07 Q734.608 1532.74 731.506 1535.95 Q728.404 1539.15 722.756 1544.91 Z" fill="#000000" fill-rule="nonzero" fill-opacity="1" /><path clip-path="url(#clip000)" d="M748.936 1514.29 L767.293 1514.29 L767.293 1518.22 L753.219 1518.22 L753.219 1526.7 Q754.237 1526.35 755.256 1526.19 Q756.274 1526 757.293 1526 Q763.08 1526 766.46 1529.17 Q769.839 1532.34 769.839 1537.76 Q769.839 1543.34 766.367 1546.44 Q762.895 1549.52 756.575 1549.52 Q754.399 1549.52 752.131 1549.15 Q749.886 1548.78 747.478 1548.04 L747.478 1543.34 Q749.561 1544.47 751.784 1545.03 Q754.006 1545.58 756.483 1545.58 Q760.487 1545.58 762.825 1543.48 Q765.163 1541.37 765.163 1537.76 Q765.163 1534.15 762.825 1532.04 Q760.487 1529.94 756.483 1529.94 Q754.608 1529.94 752.733 1530.35 Q750.881 1530.77 748.936 1531.65 L748.936 1514.29 Z" fill="#000000" fill-rule="nonzero" fill-opacity="1" /><path clip-path="url(#clip000)" d="M789.052 1517.37 Q785.441 1517.37 783.612 1520.93 Q781.807 1524.47 781.807 1531.6 Q781.807 1538.71 783.612 1542.27 Q785.441 1545.82 789.052 1545.82 Q792.686 1545.82 794.492 1542.27 Q796.32 1538.71 796.32 1531.6 Q796.32 1524.47 794.492 1520.93 Q792.686 1517.37 789.052 1517.37 M789.052 1513.66 Q794.862 1513.66 797.918 1518.27 Q800.996 1522.85 800.996 1531.6 Q800.996 1540.33 797.918 1544.94 Q794.862 1549.52 789.052 1549.52 Q783.242 1549.52 780.163 1544.94 Q777.108 1540.33 777.108 1531.6 Q777.108 1522.85 780.163 1518.27 Q783.242 1513.66 789.052 1513.66 Z" fill="#000000" fill-rule="nonzero" fill-opacity="1" /><path clip-path="url(#clip000)" d="M1230.16 1514.29 L1248.51 1514.29 L1248.51 1518.22 L1234.44 1518.22 L1234.44 1526.7 Q1235.46 1526.35 1236.48 1526.19 Q1237.49 1526 1238.51 1526 Q1244.3 1526 1247.68 1529.17 Q1251.06 1532.34 1251.06 1537.76 Q1251.06 1543.34 1247.59 1546.44 Q1244.11 1549.52 1237.8 1549.52 Q1235.62 1549.52 1233.35 1549.15 Q1231.11 1548.78 1228.7 1548.04 L1228.7 1543.34 Q1230.78 1544.47 1233 1545.03 Q1235.23 1545.58 1237.7 1545.58 Q1241.71 1545.58 1244.04 1543.48 Q1246.38 1541.37 1246.38 1537.76 Q1246.38 1534.15 1244.04 1532.04 Q1241.71 1529.94 1237.7 1529.94 Q1235.83 1529.94 1233.95 1530.35 Q1232.1 1530.77 1230.16 1531.65 L1230.16 1514.29 Z" fill="#000000" fill-rule="nonzero" fill-opacity="1" /><path clip-path="url(#clip000)" d="M1270.27 1517.37 Q1266.66 1517.37 1264.83 1520.93 Q1263.03 1524.47 1263.03 1531.6 Q1263.03 1538.71 1264.83 1542.27 Q1266.66 1545.82 1270.27 1545.82 Q1273.91 1545.82 1275.71 1542.27 Q1277.54 1538.71 1277.54 1531.6 Q1277.54 1524.47 1275.71 1520.93 Q1273.91 1517.37 1270.27 1517.37 M1270.27 1513.66 Q1276.08 1513.66 1279.14 1518.27 Q1282.22 1522.85 1282.22 1531.6 Q1282.22 1540.33 1279.14 1544.94 Q1276.08 1549.52 1270.27 1549.52 Q1264.46 1549.52 1261.38 1544.94 Q1258.33 1540.33 1258.33 1531.6 Q1258.33 1522.85 1261.38 1518.27 Q1264.46 1513.66 1270.27 1513.66 Z" fill="#000000" fill-rule="nonzero" fill-opacity="1" /><path clip-path="url(#clip000)" d="M1300.43 1517.37 Q1296.82 1517.37 1294.99 1520.93 Q1293.19 1524.47 1293.19 1531.6 Q1293.19 1538.71 1294.99 1542.27 Q1296.82 1545.82 1300.43 1545.82 Q1304.07 1545.82 1305.87 1542.27 Q1307.7 1538.71 1307.7 1531.6 Q1307.7 1524.47 1305.87 1520.93 Q1304.07 1517.37 1300.43 1517.37 M1300.43 1513.66 Q1306.24 1513.66 1309.3 1518.27 Q1312.38 1522.85 1312.38 1531.6 Q1312.38 1540.33 1309.3 1544.94 Q1306.24 1549.52 1300.43 1549.52 Q1294.62 1549.52 1291.54 1544.94 Q1288.49 1540.33 1288.49 1531.6 Q1288.49 1522.85 1291.54 1518.27 Q1294.62 1513.66 1300.43 1513.66 Z" fill="#000000" fill-rule="nonzero" fill-opacity="1" /><path clip-path="url(#clip000)" d="M1740.29 1514.29 L1762.51 1514.29 L1762.51 1516.28 L1749.96 1548.85 L1745.08 1548.85 L1756.88 1518.22 L1740.29 1518.22 L1740.29 1514.29 Z" fill="#000000" fill-rule="nonzero" fill-opacity="1" /><path clip-path="url(#clip000)" d="M1771.68 1514.29 L1790.03 1514.29 L1790.03 1518.22 L1775.96 1518.22 L1775.96 1526.7 Q1776.98 1526.35 1778 1526.19 Q1779.01 1526 1780.03 1526 Q1785.82 1526 1789.2 1529.17 Q1792.58 1532.34 1792.58 1537.76 Q1792.58 1543.34 1789.11 1546.44 Q1785.63 1549.52 1779.32 1549.52 Q1777.14 1549.52 1774.87 1549.15 Q1772.63 1548.78 1770.22 1548.04 L1770.22 1543.34 Q1772.3 1544.47 1774.52 1545.03 Q1776.75 1545.58 1779.22 1545.58 Q1783.23 1545.58 1785.57 1543.48 Q1787.9 1541.37 1787.9 1537.76 Q1787.9 1534.15 1785.57 1532.04 Q1783.23 1529.94 1779.22 1529.94 Q1777.35 1529.94 1775.47 1530.35 Q1773.62 1530.77 1771.68 1531.65 L1771.68 1514.29 Z" fill="#000000" fill-rule="nonzero" fill-opacity="1" /><path clip-path="url(#clip000)" d="M1811.79 1517.37 Q1808.18 1517.37 1806.35 1520.93 Q1804.55 1524.47 1804.55 1531.6 Q1804.55 1538.71 1806.35 1542.27 Q1808.18 1545.82 1811.79 1545.82 Q1815.43 1545.82 1817.23 1542.27 Q1819.06 1538.71 1819.06 1531.6 Q1819.06 1524.47 1817.23 1520.93 Q1815.43 1517.37 1811.79 1517.37 M1811.79 1513.66 Q1817.6 1513.66 1820.66 1518.27 Q1823.74 1522.85 1823.74 1531.6 Q1823.74 1540.33 1820.66 1544.94 Q1817.6 1549.52 1811.79 1549.52 Q1805.98 1549.52 1802.9 1544.94 Q1799.85 1540.33 1799.85 1531.6 Q1799.85 1522.85 1802.9 1518.27 Q1805.98 1513.66 1811.79 1513.66 Z" fill="#000000" fill-rule="nonzero" fill-opacity="1" /><path clip-path="url(#clip000)" d="M2238.01 1544.91 L2245.65 1544.91 L2245.65 1518.55 L2237.34 1520.21 L2237.34 1515.95 L2245.6 1514.29 L2250.28 1514.29 L2250.28 1544.91 L2257.92 1544.91 L2257.92 1548.85 L2238.01 1548.85 L2238.01 1544.91 Z" fill="#000000" fill-rule="nonzero" fill-opacity="1" /><path clip-path="url(#clip000)" d="M2277.36 1517.37 Q2273.75 1517.37 2271.92 1520.93 Q2270.12 1524.47 2270.12 1531.6 Q2270.12 1538.71 2271.92 1542.27 Q2273.75 1545.82 2277.36 1545.82 Q2281 1545.82 2282.8 1542.27 Q2284.63 1538.71 2284.63 1531.6 Q2284.63 1524.47 2282.8 1520.93 Q2281 1517.37 2277.36 1517.37 M2277.36 1513.66 Q2283.17 1513.66 2286.23 1518.27 Q2289.31 1522.85 2289.31 1531.6 Q2289.31 1540.33 2286.23 1544.94 Q2283.17 1549.52 2277.36 1549.52 Q2271.55 1549.52 2268.47 1544.94 Q2265.42 1540.33 2265.42 1531.6 Q2265.42 1522.85 2268.47 1518.27 Q2271.55 1513.66 2277.36 1513.66 Z" fill="#000000" fill-rule="nonzero" fill-opacity="1" /><path clip-path="url(#clip000)" d="M2307.53 1517.37 Q2303.91 1517.37 2302.09 1520.93 Q2300.28 1524.47 2300.28 1531.6 Q2300.28 1538.71 2302.09 1542.27 Q2303.91 1545.82 2307.53 1545.82 Q2311.16 1545.82 2312.97 1542.27 Q2314.79 1538.71 2314.79 1531.6 Q2314.79 1524.47 2312.97 1520.93 Q2311.16 1517.37 2307.53 1517.37 M2307.53 1513.66 Q2313.34 1513.66 2316.39 1518.27 Q2319.47 1522.85 2319.47 1531.6 Q2319.47 1540.33 2316.39 1544.94 Q2313.34 1549.52 2307.53 1549.52 Q2301.72 1549.52 2298.64 1544.94 Q2295.58 1540.33 2295.58 1531.6 Q2295.58 1522.85 2298.64 1518.27 Q2301.72 1513.66 2307.53 1513.66 Z" fill="#000000" fill-rule="nonzero" fill-opacity="1" /><path clip-path="url(#clip000)" d="M2337.69 1517.37 Q2334.08 1517.37 2332.25 1520.93 Q2330.44 1524.47 2330.44 1531.6 Q2330.44 1538.71 2332.25 1542.27 Q2334.08 1545.82 2337.69 1545.82 Q2341.32 1545.82 2343.13 1542.27 Q2344.96 1538.71 2344.96 1531.6 Q2344.96 1524.47 2343.13 1520.93 Q2341.32 1517.37 2337.69 1517.37 M2337.69 1513.66 Q2343.5 1513.66 2346.55 1518.27 Q2349.63 1522.85 2349.63 1531.6 Q2349.63 1540.33 2346.55 1544.94 Q2343.5 1549.52 2337.69 1549.52 Q2331.88 1549.52 2328.8 1544.94 Q2325.74 1540.33 2325.74 1531.6 Q2325.74 1522.85 2328.8 1518.27 Q2331.88 1513.66 2337.69 1513.66 Z" fill="#000000" fill-rule="nonzero" fill-opacity="1" /><polyline clip-path="url(#clip002)" style="stroke:#000000; stroke-linecap:round; stroke-linejoin:round; stroke-width:2; stroke-opacity:0.1; fill:none" points="186.274,1309.94 2352.76,1309.94 "/>
<polyline clip-path="url(#clip002)" style="stroke:#000000; stroke-linecap:round; stroke-linejoin:round; stroke-width:2; stroke-opacity:0.1; fill:none" points="186.274,1115.98 2352.76,1115.98 "/>
<polyline clip-path="url(#clip002)" style="stroke:#000000; stroke-linecap:round; stroke-linejoin:round; stroke-width:2; stroke-opacity:0.1; fill:none" points="186.274,922.016 2352.76,922.016 "/>
<polyline clip-path="url(#clip002)" style="stroke:#000000; stroke-linecap:round; stroke-linejoin:round; stroke-width:2; stroke-opacity:0.1; fill:none" points="186.274,728.053 2352.76,728.053 "/>
<polyline clip-path="url(#clip002)" style="stroke:#000000; stroke-linecap:round; stroke-linejoin:round; stroke-width:2; stroke-opacity:0.1; fill:none" points="186.274,534.091 2352.76,534.091 "/>
<polyline clip-path="url(#clip002)" style="stroke:#000000; stroke-linecap:round; stroke-linejoin:round; stroke-width:2; stroke-opacity:0.1; fill:none" points="186.274,340.128 2352.76,340.128 "/>
<polyline clip-path="url(#clip002)" style="stroke:#000000; stroke-linecap:round; stroke-linejoin:round; stroke-width:2; stroke-opacity:0.1; fill:none" points="186.274,146.165 2352.76,146.165 "/>
<polyline clip-path="url(#clip000)" style="stroke:#000000; stroke-linecap:round; stroke-linejoin:round; stroke-width:4; stroke-opacity:1; fill:none" points="186.274,1486.45 186.274,47.2441 "/>
<polyline clip-path="url(#clip000)" style="stroke:#000000; stroke-linecap:round; stroke-linejoin:round; stroke-width:4; stroke-opacity:1; fill:none" points="186.274,1309.94 205.172,1309.94 "/>
<polyline clip-path="url(#clip000)" style="stroke:#000000; stroke-linecap:round; stroke-linejoin:round; stroke-width:4; stroke-opacity:1; fill:none" points="186.274,1115.98 205.172,1115.98 "/>
<polyline clip-path="url(#clip000)" style="stroke:#000000; stroke-linecap:round; stroke-linejoin:round; stroke-width:4; stroke-opacity:1; fill:none" points="186.274,922.016 205.172,922.016 "/>
<polyline clip-path="url(#clip000)" style="stroke:#000000; stroke-linecap:round; stroke-linejoin:round; stroke-width:4; stroke-opacity:1; fill:none" points="186.274,728.053 205.172,728.053 "/>
<polyline clip-path="url(#clip000)" style="stroke:#000000; stroke-linecap:round; stroke-linejoin:round; stroke-width:4; stroke-opacity:1; fill:none" points="186.274,534.091 205.172,534.091 "/>
<polyline clip-path="url(#clip000)" style="stroke:#000000; stroke-linecap:round; stroke-linejoin:round; stroke-width:4; stroke-opacity:1; fill:none" points="186.274,340.128 205.172,340.128 "/>
<polyline clip-path="url(#clip000)" style="stroke:#000000; stroke-linecap:round; stroke-linejoin:round; stroke-width:4; stroke-opacity:1; fill:none" points="186.274,146.165 205.172,146.165 "/>
<path clip-path="url(#clip000)" d="M63.9319 1295.74 Q60.3208 1295.74 58.4921 1299.31 Q56.6865 1302.85 56.6865 1309.98 Q56.6865 1317.08 58.4921 1320.65 Q60.3208 1324.19 63.9319 1324.19 Q67.5661 1324.19 69.3717 1320.65 Q71.2004 1317.08 71.2004 1309.98 Q71.2004 1302.85 69.3717 1299.31 Q67.5661 1295.74 63.9319 1295.74 M63.9319 1292.04 Q69.742 1292.04 72.7976 1296.64 Q75.8763 1301.23 75.8763 1309.98 Q75.8763 1318.7 72.7976 1323.31 Q69.742 1327.89 63.9319 1327.89 Q58.1217 1327.89 55.043 1323.31 Q51.9875 1318.7 51.9875 1309.98 Q51.9875 1301.23 55.043 1296.64 Q58.1217 1292.04 63.9319 1292.04 Z" fill="#000000" fill-rule="nonzero" fill-opacity="1" /><path clip-path="url(#clip000)" d="M84.0938 1321.34 L88.978 1321.34 L88.978 1327.22 L84.0938 1327.22 L84.0938 1321.34 Z" fill="#000000" fill-rule="nonzero" fill-opacity="1" /><path clip-path="url(#clip000)" d="M99.2095 1292.66 L117.566 1292.66 L117.566 1296.6 L103.492 1296.6 L103.492 1305.07 Q104.51 1304.72 105.529 1304.56 Q106.547 1304.37 107.566 1304.37 Q113.353 1304.37 116.733 1307.55 Q120.112 1310.72 120.112 1316.13 Q120.112 1321.71 116.64 1324.81 Q113.168 1327.89 106.848 1327.89 Q104.672 1327.89 102.404 1327.52 Q100.159 1327.15 97.7511 1326.41 L97.7511 1321.71 Q99.8345 1322.85 102.057 1323.4 Q104.279 1323.96 106.756 1323.96 Q110.76 1323.96 113.098 1321.85 Q115.436 1319.74 115.436 1316.13 Q115.436 1312.52 113.098 1310.42 Q110.76 1308.31 106.756 1308.31 Q104.881 1308.31 103.006 1308.73 Q101.154 1309.14 99.2095 1310.02 L99.2095 1292.66 Z" fill="#000000" fill-rule="nonzero" fill-opacity="1" /><path clip-path="url(#clip000)" d="M129.371 1292.66 L147.728 1292.66 L147.728 1296.6 L133.654 1296.6 L133.654 1305.07 Q134.672 1304.72 135.691 1304.56 Q136.709 1304.37 137.728 1304.37 Q143.515 1304.37 146.894 1307.55 Q150.274 1310.72 150.274 1316.13 Q150.274 1321.71 146.802 1324.81 Q143.33 1327.89 137.01 1327.89 Q134.834 1327.89 132.566 1327.52 Q130.32 1327.15 127.913 1326.41 L127.913 1321.71 Q129.996 1322.85 132.219 1323.4 Q134.441 1323.96 136.918 1323.96 Q140.922 1323.96 143.26 1321.85 Q145.598 1319.74 145.598 1316.13 Q145.598 1312.52 143.26 1310.42 Q140.922 1308.31 136.918 1308.31 Q135.043 1308.31 133.168 1308.73 Q131.316 1309.14 129.371 1310.02 L129.371 1292.66 Z" fill="#000000" fill-rule="nonzero" fill-opacity="1" /><path clip-path="url(#clip000)" d="M62.9365 1101.78 Q59.3254 1101.78 57.4967 1105.34 Q55.6912 1108.88 55.6912 1116.01 Q55.6912 1123.12 57.4967 1126.68 Q59.3254 1130.23 62.9365 1130.23 Q66.5707 1130.23 68.3763 1126.68 Q70.205 1123.12 70.205 1116.01 Q70.205 1108.88 68.3763 1105.34 Q66.5707 1101.78 62.9365 1101.78 M62.9365 1098.07 Q68.7467 1098.07 71.8022 1102.68 Q74.8809 1107.26 74.8809 1116.01 Q74.8809 1124.74 71.8022 1129.35 Q68.7467 1133.93 62.9365 1133.93 Q57.1264 1133.93 54.0477 1129.35 Q50.9921 1124.74 50.9921 1116.01 Q50.9921 1107.26 54.0477 1102.68 Q57.1264 1098.07 62.9365 1098.07 Z" fill="#000000" fill-rule="nonzero" fill-opacity="1" /><path clip-path="url(#clip000)" d="M83.0984 1127.38 L87.9827 1127.38 L87.9827 1133.26 L83.0984 1133.26 L83.0984 1127.38 Z" fill="#000000" fill-rule="nonzero" fill-opacity="1" /><path clip-path="url(#clip000)" d="M108.746 1114.12 Q105.598 1114.12 103.746 1116.27 Q101.918 1118.42 101.918 1122.17 Q101.918 1125.9 103.746 1128.07 Q105.598 1130.23 108.746 1130.23 Q111.895 1130.23 113.723 1128.07 Q115.575 1125.9 115.575 1122.17 Q115.575 1118.42 113.723 1116.27 Q111.895 1114.12 108.746 1114.12 M118.029 1099.46 L118.029 1103.72 Q116.27 1102.89 114.464 1102.45 Q112.682 1102.01 110.922 1102.01 Q106.293 1102.01 103.839 1105.13 Q101.409 1108.26 101.061 1114.58 Q102.427 1112.56 104.487 1111.5 Q106.547 1110.41 109.024 1110.41 Q114.233 1110.41 117.242 1113.58 Q120.274 1116.73 120.274 1122.17 Q120.274 1127.5 117.126 1130.71 Q113.978 1133.93 108.746 1133.93 Q102.751 1133.93 99.5798 1129.35 Q96.4085 1124.74 96.4085 1116.01 Q96.4085 1107.82 100.297 1102.96 Q104.186 1098.07 110.737 1098.07 Q112.496 1098.07 114.279 1098.42 Q116.084 1098.77 118.029 1099.46 Z" fill="#000000" fill-rule="nonzero" fill-opacity="1" /><path clip-path="url(#clip000)" d="M138.33 1101.78 Q134.719 1101.78 132.89 1105.34 Q131.084 1108.88 131.084 1116.01 Q131.084 1123.12 132.89 1126.68 Q134.719 1130.23 138.33 1130.23 Q141.964 1130.23 143.769 1126.68 Q145.598 1123.12 145.598 1116.01 Q145.598 1108.88 143.769 1105.34 Q141.964 1101.78 138.33 1101.78 M138.33 1098.07 Q144.14 1098.07 147.195 1102.68 Q150.274 1107.26 150.274 1116.01 Q150.274 1124.74 147.195 1129.35 Q144.14 1133.93 138.33 1133.93 Q132.519 1133.93 129.441 1129.35 Q126.385 1124.74 126.385 1116.01 Q126.385 1107.26 129.441 1102.68 Q132.519 1098.07 138.33 1098.07 Z" fill="#000000" fill-rule="nonzero" fill-opacity="1" /><path clip-path="url(#clip000)" d="M63.9319 907.815 Q60.3208 907.815 58.4921 911.38 Q56.6865 914.921 56.6865 922.051 Q56.6865 929.157 58.4921 932.722 Q60.3208 936.264 63.9319 936.264 Q67.5661 936.264 69.3717 932.722 Q71.2004 929.157 71.2004 922.051 Q71.2004 914.921 69.3717 911.38 Q67.5661 907.815 63.9319 907.815 M63.9319 904.111 Q69.742 904.111 72.7976 908.718 Q75.8763 913.301 75.8763 922.051 Q75.8763 930.778 72.7976 935.384 Q69.742 939.967 63.9319 939.967 Q58.1217 939.967 55.043 935.384 Q51.9875 930.778 51.9875 922.051 Q51.9875 913.301 55.043 908.718 Q58.1217 904.111 63.9319 904.111 Z" fill="#000000" fill-rule="nonzero" fill-opacity="1" /><path clip-path="url(#clip000)" d="M84.0938 933.417 L88.978 933.417 L88.978 939.296 L84.0938 939.296 L84.0938 933.417 Z" fill="#000000" fill-rule="nonzero" fill-opacity="1" /><path clip-path="url(#clip000)" d="M109.742 920.153 Q106.594 920.153 104.742 922.306 Q102.913 924.458 102.913 928.208 Q102.913 931.935 104.742 934.111 Q106.594 936.264 109.742 936.264 Q112.89 936.264 114.719 934.111 Q116.57 931.935 116.57 928.208 Q116.57 924.458 114.719 922.306 Q112.89 920.153 109.742 920.153 M119.024 905.5 L119.024 909.759 Q117.265 908.926 115.459 908.486 Q113.677 908.046 111.918 908.046 Q107.288 908.046 104.834 911.171 Q102.404 914.296 102.057 920.616 Q103.422 918.602 105.483 917.537 Q107.543 916.449 110.02 916.449 Q115.228 916.449 118.237 919.62 Q121.27 922.769 121.27 928.208 Q121.27 933.532 118.121 936.75 Q114.973 939.967 109.742 939.967 Q103.746 939.967 100.575 935.384 Q97.4039 930.778 97.4039 922.051 Q97.4039 913.857 101.293 908.995 Q105.182 904.111 111.733 904.111 Q113.492 904.111 115.274 904.458 Q117.08 904.806 119.024 905.5 Z" fill="#000000" fill-rule="nonzero" fill-opacity="1" /><path clip-path="url(#clip000)" d="M129.371 904.736 L147.728 904.736 L147.728 908.671 L133.654 908.671 L133.654 917.144 Q134.672 916.796 135.691 916.634 Q136.709 916.449 137.728 916.449 Q143.515 916.449 146.894 919.62 Q150.274 922.792 150.274 928.208 Q150.274 933.787 146.802 936.889 Q143.33 939.967 137.01 939.967 Q134.834 939.967 132.566 939.597 Q130.32 939.227 127.913 938.486 L127.913 933.787 Q129.996 934.921 132.219 935.477 Q134.441 936.032 136.918 936.032 Q140.922 936.032 143.26 933.926 Q145.598 931.819 145.598 928.208 Q145.598 924.597 143.26 922.491 Q140.922 920.384 136.918 920.384 Q135.043 920.384 133.168 920.801 Q131.316 921.218 129.371 922.097 L129.371 904.736 Z" fill="#000000" fill-rule="nonzero" fill-opacity="1" /><path clip-path="url(#clip000)" d="M62.9365 713.852 Q59.3254 713.852 57.4967 717.417 Q55.6912 720.959 55.6912 728.088 Q55.6912 735.195 57.4967 738.759 Q59.3254 742.301 62.9365 742.301 Q66.5707 742.301 68.3763 738.759 Q70.205 735.195 70.205 728.088 Q70.205 720.959 68.3763 717.417 Q66.5707 713.852 62.9365 713.852 M62.9365 710.148 Q68.7467 710.148 71.8022 714.755 Q74.8809 719.338 74.8809 728.088 Q74.8809 736.815 71.8022 741.421 Q68.7467 746.005 62.9365 746.005 Q57.1264 746.005 54.0477 741.421 Q50.9921 736.815 50.9921 728.088 Q50.9921 719.338 54.0477 714.755 Q57.1264 710.148 62.9365 710.148 Z" fill="#000000" fill-rule="nonzero" fill-opacity="1" /><path clip-path="url(#clip000)" d="M83.0984 739.454 L87.9827 739.454 L87.9827 745.333 L83.0984 745.333 L83.0984 739.454 Z" fill="#000000" fill-rule="nonzero" fill-opacity="1" /><path clip-path="url(#clip000)" d="M96.9872 710.773 L119.209 710.773 L119.209 712.764 L106.663 745.333 L101.779 745.333 L113.584 714.709 L96.9872 714.709 L96.9872 710.773 Z" fill="#000000" fill-rule="nonzero" fill-opacity="1" /><path clip-path="url(#clip000)" d="M138.33 713.852 Q134.719 713.852 132.89 717.417 Q131.084 720.959 131.084 728.088 Q131.084 735.195 132.89 738.759 Q134.719 742.301 138.33 742.301 Q141.964 742.301 143.769 738.759 Q145.598 735.195 145.598 728.088 Q145.598 720.959 143.769 717.417 Q141.964 713.852 138.33 713.852 M138.33 710.148 Q144.14 710.148 147.195 714.755 Q150.274 719.338 150.274 728.088 Q150.274 736.815 147.195 741.421 Q144.14 746.005 138.33 746.005 Q132.519 746.005 129.441 741.421 Q126.385 736.815 126.385 728.088 Q126.385 719.338 129.441 714.755 Q132.519 710.148 138.33 710.148 Z" fill="#000000" fill-rule="nonzero" fill-opacity="1" /><path clip-path="url(#clip000)" d="M63.9319 519.889 Q60.3208 519.889 58.4921 523.454 Q56.6865 526.996 56.6865 534.125 Q56.6865 541.232 58.4921 544.797 Q60.3208 548.338 63.9319 548.338 Q67.5661 548.338 69.3717 544.797 Q71.2004 541.232 71.2004 534.125 Q71.2004 526.996 69.3717 523.454 Q67.5661 519.889 63.9319 519.889 M63.9319 516.186 Q69.742 516.186 72.7976 520.792 Q75.8763 525.375 75.8763 534.125 Q75.8763 542.852 72.7976 547.459 Q69.742 552.042 63.9319 552.042 Q58.1217 552.042 55.043 547.459 Q51.9875 542.852 51.9875 534.125 Q51.9875 525.375 55.043 520.792 Q58.1217 516.186 63.9319 516.186 Z" fill="#000000" fill-rule="nonzero" fill-opacity="1" /><path clip-path="url(#clip000)" d="M84.0938 545.491 L88.978 545.491 L88.978 551.371 L84.0938 551.371 L84.0938 545.491 Z" fill="#000000" fill-rule="nonzero" fill-opacity="1" /><path clip-path="url(#clip000)" d="M97.9826 516.811 L120.205 516.811 L120.205 518.801 L107.658 551.371 L102.774 551.371 L114.58 520.746 L97.9826 520.746 L97.9826 516.811 Z" fill="#000000" fill-rule="nonzero" fill-opacity="1" /><path clip-path="url(#clip000)" d="M129.371 516.811 L147.728 516.811 L147.728 520.746 L133.654 520.746 L133.654 529.218 Q134.672 528.871 135.691 528.709 Q136.709 528.524 137.728 528.524 Q143.515 528.524 146.894 531.695 Q150.274 534.866 150.274 540.283 Q150.274 545.861 146.802 548.963 Q143.33 552.042 137.01 552.042 Q134.834 552.042 132.566 551.672 Q130.32 551.301 127.913 550.56 L127.913 545.861 Q129.996 546.996 132.219 547.551 Q134.441 548.107 136.918 548.107 Q140.922 548.107 143.26 546 Q145.598 543.894 145.598 540.283 Q145.598 536.672 143.26 534.565 Q140.922 532.459 136.918 532.459 Q135.043 532.459 133.168 532.875 Q131.316 533.292 129.371 534.172 L129.371 516.811 Z" fill="#000000" fill-rule="nonzero" fill-opacity="1" /><path clip-path="url(#clip000)" d="M62.9365 325.927 Q59.3254 325.927 57.4967 329.491 Q55.6912 333.033 55.6912 340.163 Q55.6912 347.269 57.4967 350.834 Q59.3254 354.375 62.9365 354.375 Q66.5707 354.375 68.3763 350.834 Q70.205 347.269 70.205 340.163 Q70.205 333.033 68.3763 329.491 Q66.5707 325.927 62.9365 325.927 M62.9365 322.223 Q68.7467 322.223 71.8022 326.829 Q74.8809 331.413 74.8809 340.163 Q74.8809 348.889 71.8022 353.496 Q68.7467 358.079 62.9365 358.079 Q57.1264 358.079 54.0477 353.496 Q50.9921 348.889 50.9921 340.163 Q50.9921 331.413 54.0477 326.829 Q57.1264 322.223 62.9365 322.223 Z" fill="#000000" fill-rule="nonzero" fill-opacity="1" /><path clip-path="url(#clip000)" d="M83.0984 351.528 L87.9827 351.528 L87.9827 357.408 L83.0984 357.408 L83.0984 351.528 Z" fill="#000000" fill-rule="nonzero" fill-opacity="1" /><path clip-path="url(#clip000)" d="M108.168 340.996 Q104.834 340.996 102.913 342.778 Q101.015 344.561 101.015 347.686 Q101.015 350.811 102.913 352.593 Q104.834 354.375 108.168 354.375 Q111.501 354.375 113.422 352.593 Q115.344 350.788 115.344 347.686 Q115.344 344.561 113.422 342.778 Q111.524 340.996 108.168 340.996 M103.492 339.005 Q100.483 338.264 98.7928 336.204 Q97.1261 334.144 97.1261 331.181 Q97.1261 327.038 100.066 324.63 Q103.029 322.223 108.168 322.223 Q113.33 322.223 116.27 324.63 Q119.209 327.038 119.209 331.181 Q119.209 334.144 117.52 336.204 Q115.853 338.264 112.867 339.005 Q116.246 339.792 118.121 342.084 Q120.02 344.376 120.02 347.686 Q120.02 352.709 116.941 355.394 Q113.885 358.079 108.168 358.079 Q102.45 358.079 99.3715 355.394 Q96.316 352.709 96.316 347.686 Q96.316 344.376 98.2141 342.084 Q100.112 339.792 103.492 339.005 M101.779 331.621 Q101.779 334.306 103.446 335.811 Q105.135 337.315 108.168 337.315 Q111.177 337.315 112.867 335.811 Q114.58 334.306 114.58 331.621 Q114.58 328.936 112.867 327.431 Q111.177 325.927 108.168 325.927 Q105.135 325.927 103.446 327.431 Q101.779 328.936 101.779 331.621 Z" fill="#000000" fill-rule="nonzero" fill-opacity="1" /><path clip-path="url(#clip000)" d="M138.33 325.927 Q134.719 325.927 132.89 329.491 Q131.084 333.033 131.084 340.163 Q131.084 347.269 132.89 350.834 Q134.719 354.375 138.33 354.375 Q141.964 354.375 143.769 350.834 Q145.598 347.269 145.598 340.163 Q145.598 333.033 143.769 329.491 Q141.964 325.927 138.33 325.927 M138.33 322.223 Q144.14 322.223 147.195 326.829 Q150.274 331.413 150.274 340.163 Q150.274 348.889 147.195 353.496 Q144.14 358.079 138.33 358.079 Q132.519 358.079 129.441 353.496 Q126.385 348.889 126.385 340.163 Q126.385 331.413 129.441 326.829 Q132.519 322.223 138.33 322.223 Z" fill="#000000" fill-rule="nonzero" fill-opacity="1" /><path clip-path="url(#clip000)" d="M63.9319 131.964 Q60.3208 131.964 58.4921 135.529 Q56.6865 139.07 56.6865 146.2 Q56.6865 153.306 58.4921 156.871 Q60.3208 160.413 63.9319 160.413 Q67.5661 160.413 69.3717 156.871 Q71.2004 153.306 71.2004 146.2 Q71.2004 139.07 69.3717 135.529 Q67.5661 131.964 63.9319 131.964 M63.9319 128.26 Q69.742 128.26 72.7976 132.867 Q75.8763 137.45 75.8763 146.2 Q75.8763 154.927 72.7976 159.533 Q69.742 164.116 63.9319 164.116 Q58.1217 164.116 55.043 159.533 Q51.9875 154.927 51.9875 146.2 Q51.9875 137.45 55.043 132.867 Q58.1217 128.26 63.9319 128.26 Z" fill="#000000" fill-rule="nonzero" fill-opacity="1" /><path clip-path="url(#clip000)" d="M84.0938 157.566 L88.978 157.566 L88.978 163.445 L84.0938 163.445 L84.0938 157.566 Z" fill="#000000" fill-rule="nonzero" fill-opacity="1" /><path clip-path="url(#clip000)" d="M109.163 147.033 Q105.83 147.033 103.909 148.816 Q102.01 150.598 102.01 153.723 Q102.01 156.848 103.909 158.63 Q105.83 160.413 109.163 160.413 Q112.496 160.413 114.418 158.63 Q116.339 156.825 116.339 153.723 Q116.339 150.598 114.418 148.816 Q112.52 147.033 109.163 147.033 M104.487 145.042 Q101.478 144.302 99.7882 142.242 Q98.1215 140.181 98.1215 137.218 Q98.1215 133.075 101.061 130.668 Q104.024 128.26 109.163 128.26 Q114.325 128.26 117.265 130.668 Q120.205 133.075 120.205 137.218 Q120.205 140.181 118.515 142.242 Q116.848 144.302 113.862 145.042 Q117.242 145.829 119.117 148.121 Q121.015 150.413 121.015 153.723 Q121.015 158.746 117.936 161.431 Q114.881 164.116 109.163 164.116 Q103.446 164.116 100.367 161.431 Q97.3113 158.746 97.3113 153.723 Q97.3113 150.413 99.2095 148.121 Q101.108 145.829 104.487 145.042 M102.774 137.658 Q102.774 140.343 104.441 141.848 Q106.131 143.353 109.163 143.353 Q112.172 143.353 113.862 141.848 Q115.575 140.343 115.575 137.658 Q115.575 134.973 113.862 133.468 Q112.172 131.964 109.163 131.964 Q106.131 131.964 104.441 133.468 Q102.774 134.973 102.774 137.658 Z" fill="#000000" fill-rule="nonzero" fill-opacity="1" /><path clip-path="url(#clip000)" d="M129.371 128.885 L147.728 128.885 L147.728 132.82 L133.654 132.82 L133.654 141.292 Q134.672 140.945 135.691 140.783 Q136.709 140.598 137.728 140.598 Q143.515 140.598 146.894 143.769 Q150.274 146.941 150.274 152.357 Q150.274 157.936 146.802 161.038 Q143.33 164.116 137.01 164.116 Q134.834 164.116 132.566 163.746 Q130.32 163.376 127.913 162.635 L127.913 157.936 Q129.996 159.07 132.219 159.626 Q134.441 160.181 136.918 160.181 Q140.922 160.181 143.26 158.075 Q145.598 155.968 145.598 152.357 Q145.598 148.746 143.26 146.64 Q140.922 144.533 136.918 144.533 Q135.043 144.533 133.168 144.95 Q131.316 145.367 129.371 146.246 L129.371 128.885 Z" fill="#000000" fill-rule="nonzero" fill-opacity="1" /><polyline clip-path="url(#clip002)" style="stroke:#009af9; stroke-linecap:round; stroke-linejoin:round; stroke-width:4; stroke-opacity:1; fill:none" points="247.59,786.242 249.635,980.205 251.681,1174.17 253.727,1038.39 255.773,922.016 257.819,1251.75 259.865,1387.53 261.911,1057.79 263.957,1348.73 266.003,1174.17 268.048,1445.72 270.094,1290.55 272.14,1271.15 274.186,1329.34 276.232,980.205 278.278,1212.96 280.324,1135.38 282.37,1309.94 284.416,1115.98 286.462,1154.77 288.507,1212.96 290.553,825.035 292.599,863.827 294.645,825.035 296.691,631.072 298.737,650.468 300.783,728.053 302.829,689.261 304.875,611.676 306.921,475.902 308.966,359.524 311.012,456.506 313.058,514.694 315.104,572.883 317.15,495.298 319.196,475.902 321.242,456.506 323.288,398.317 325.334,398.317 327.38,398.317 329.425,359.524 331.471,398.317 333.517,340.128 335.563,475.902 337.609,378.92 339.655,495.298 341.701,631.072 343.747,378.92 345.793,631.072 347.838,437.109 349.884,340.128 351.93,320.732 353.976,514.694 356.022,398.317 358.068,262.543 360.114,262.543 362.16,650.468 364.206,398.317 366.252,301.335 368.297,417.713 370.343,378.92 372.389,378.92 374.435,301.335 376.481,514.694 378.527,437.109 380.573,456.506 382.619,378.92 384.665,359.524 386.711,359.524 388.756,281.939 390.802,243.146 392.848,378.92 394.894,417.713 396.94,398.317 398.986,359.524 401.032,747.45 403.078,398.317 405.124,495.298 407.169,281.939 409.215,534.091 411.261,359.524 413.307,475.902 415.353,398.317 417.399,340.128 419.445,456.506 421.491,281.939 423.537,398.317 425.583,534.091 427.628,417.713 429.674,553.487 431.72,359.524 433.766,281.939 435.812,456.506 437.858,456.506 439.904,437.109 441.95,281.939 443.996,417.713 446.042,417.713 448.087,514.694 450.133,340.128 452.179,417.713 454.225,514.694 456.271,417.713 458.317,398.317 460.363,572.883 462.409,340.128 464.455,359.524 466.5,223.75 468.546,398.317 470.592,359.524 472.638,378.92 474.684,534.091 476.73,417.713 478.776,514.694 480.822,514.694 482.868,262.543 484.914,475.902 486.959,243.146 489.005,359.524 491.051,223.75 493.097,262.543 495.143,281.939 497.189,514.694 499.235,301.335 501.281,378.92 503.327,534.091 505.373,456.506 507.418,243.146 509.464,398.317 511.51,398.317 513.556,378.92 515.602,359.524 517.648,437.109 519.694,417.713 521.74,417.713 523.786,437.109 525.831,378.92 527.877,320.732 529.923,301.335 531.969,378.92 534.015,204.354 536.061,611.676 538.107,553.487 540.153,359.524 542.199,378.92 544.245,456.506 546.29,378.92 548.336,359.524 550.382,398.317 552.428,572.883 554.474,340.128 556.52,398.317 558.566,301.335 560.612,378.92 562.658,572.883 564.704,398.317 566.749,301.335 568.795,398.317 570.841,398.317 572.887,320.732 574.933,398.317 576.979,514.694 579.025,495.298 581.071,320.732 583.117,398.317 585.162,204.354 587.208,553.487 589.254,437.109 591.3,281.939 593.346,378.92 595.392,475.902 597.438,417.713 599.484,514.694 601.53,359.524 603.576,456.506 605.621,437.109 607.667,417.713 609.713,514.694 611.759,359.524 613.805,417.713 615.851,534.091 617.897,417.713 619.943,320.732 621.989,417.713 624.035,592.279 626.08,165.561 628.126,398.317 630.172,514.694 632.218,340.128 634.264,359.524 636.31,437.109 638.356,495.298 640.402,184.958 642.448,378.92 644.493,495.298 646.539,359.524 648.585,553.487 650.631,262.543 652.677,165.561 654.723,437.109 656.769,417.713 658.815,456.506 660.861,534.091 662.907,281.939 664.952,320.732 666.998,475.902 669.044,281.939 671.09,320.732 673.136,475.902 675.182,398.317 677.228,320.732 679.274,417.713 681.32,534.091 683.366,534.091 685.411,359.524 687.457,514.694 689.503,437.109 691.549,359.524 693.595,417.713 695.641,417.713 697.687,243.146 699.733,417.713 701.779,514.694 703.825,417.713 705.87,398.317 707.916,165.561 709.962,320.732 712.008,262.543 714.054,281.939 716.1,223.75 718.146,378.92 720.192,223.75 722.238,281.939 724.283,359.524 726.329,378.92 728.375,359.524 730.421,495.298 732.467,456.506 734.513,320.732 736.559,592.279 738.605,223.75 740.651,514.694 742.697,378.92 744.742,359.524 746.788,301.335 748.834,398.317 750.88,495.298 752.926,223.75 754.972,243.146 757.018,417.713 759.064,243.146 761.11,320.732 763.156,534.091 765.201,262.543 767.247,146.165 769.293,456.506 771.339,320.732 773.385,514.694 775.431,223.75 777.477,146.165 779.523,417.713 781.569,281.939 783.614,340.128 785.66,184.958 787.706,340.128 789.752,165.561 791.798,553.487 793.844,281.939 795.89,340.128 797.936,417.713 799.982,301.335 802.028,611.676 804.073,359.524 806.119,359.524 808.165,340.128 810.211,281.939 812.257,417.713 814.303,262.543 816.349,281.939 818.395,475.902 820.441,592.279 822.487,417.713 824.532,301.335 826.578,553.487 828.624,417.713 830.67,340.128 832.716,398.317 834.762,378.92 836.808,262.543 838.854,340.128 840.9,165.561 842.945,281.939 844.991,475.902 847.037,204.354 849.083,514.694 851.129,437.109 853.175,262.543 855.221,340.128 857.267,281.939 859.313,301.335 861.359,281.939 863.404,204.354 865.45,204.354 867.496,301.335 869.542,243.146 871.588,475.902 873.634,398.317 875.68,301.335 877.726,204.354 879.772,204.354 881.818,398.317 883.863,301.335 885.909,281.939 887.955,456.506 890.001,417.713 892.047,87.9763 894.093,475.902 896.139,456.506 898.185,437.109 900.231,184.958 902.276,320.732 904.322,340.128 906.368,553.487 908.414,417.713 910.46,223.75 912.506,301.335 914.552,534.091 916.598,398.317 918.644,262.543 920.69,359.524 922.735,359.524 924.781,165.561 926.827,320.732 928.873,747.45 930.919,398.317 932.965,340.128 935.011,514.694 937.057,184.958 939.103,495.298 941.149,417.713 943.194,340.128 945.24,243.146 947.286,146.165 949.332,320.732 951.378,340.128 953.424,437.109 955.47,398.317 957.516,359.524 959.562,475.902 961.607,126.769 963.653,243.146 965.699,340.128 967.745,398.317 969.791,301.335 971.837,437.109 973.883,281.939 975.929,262.543 977.975,398.317 980.021,611.676 982.066,243.146 984.112,320.732 986.158,417.713 988.204,475.902 990.25,223.75 992.296,262.543 994.342,456.506 996.388,398.317 998.434,223.75 1000.48,456.506 1002.53,340.128 1004.57,340.128 1006.62,475.902 1008.66,340.128 1010.71,437.109 1012.75,340.128 1014.8,340.128 1016.85,398.317 1018.89,262.543 1020.94,301.335 1022.98,223.75 1025.03,262.543 1027.08,184.958 1029.12,398.317 1031.17,320.732 1033.21,456.506 1035.26,184.958 1037.31,359.524 1039.35,475.902 1041.4,417.713 1043.44,262.543 1045.49,495.298 1047.54,572.883 1049.58,146.165 1051.63,398.317 1053.67,437.109 1055.72,437.109 1057.76,456.506 1059.81,378.92 1061.86,262.543 1063.9,320.732 1065.95,495.298 1067.99,243.146 1070.04,262.543 1072.09,378.92 1074.13,378.92 1076.18,320.732 1078.22,378.92 1080.27,359.524 1082.32,320.732 1084.36,204.354 1086.41,320.732 1088.45,223.75 1090.5,398.317 1092.54,204.354 1094.59,301.335 1096.64,281.939 1098.68,340.128 1100.73,320.732 1102.77,204.354 1104.82,475.902 1106.87,243.146 1108.91,437.109 1110.96,437.109 1113,340.128 1115.05,165.561 1117.1,243.146 1119.14,495.298 1121.19,301.335 1123.23,359.524 1125.28,475.902 1127.33,340.128 1129.37,340.128 1131.42,204.354 1133.46,243.146 1135.51,320.732 1137.55,417.713 1139.6,475.902 1141.65,495.298 1143.69,592.279 1145.74,475.902 1147.78,262.543 1149.83,320.732 1151.88,320.732 1153.92,475.902 1155.97,262.543 1158.01,262.543 1160.06,146.165 1162.11,243.146 1164.15,378.92 1166.2,262.543 1168.24,378.92 1170.29,456.506 1172.33,204.354 1174.38,301.335 1176.43,456.506 1178.47,301.335 1180.52,475.902 1182.56,320.732 1184.61,398.317 1186.66,340.128 1188.7,437.109 1190.75,281.939 1192.79,243.146 1194.84,475.902 1196.89,301.335 1198.93,417.713 1200.98,340.128 1203.02,398.317 1205.07,243.146 1207.12,398.317 1209.16,417.713 1211.21,204.354 1213.25,262.543 1215.3,378.92 1217.34,340.128 1219.39,456.506 1221.44,340.128 1223.48,320.732 1225.53,184.958 1227.57,165.561 1229.62,320.732 1231.67,204.354 1233.71,184.958 1235.76,320.732 1237.8,320.732 1239.85,204.354 1241.9,359.524 1243.94,320.732 1245.99,378.92 1248.03,301.335 1250.08,146.165 1252.12,281.939 1254.17,262.543 1256.22,650.468 1258.26,223.75 1260.31,398.317 1262.35,204.354 1264.4,437.109 1266.45,340.128 1268.49,281.939 1270.54,378.92 1272.58,243.146 1274.63,165.561 1276.68,553.487 1278.72,320.732 1280.77,262.543 1282.81,320.732 1284.86,262.543 1286.91,204.354 1288.95,378.92 1291,262.543 1293.04,378.92 1295.09,417.713 1297.13,223.75 1299.18,281.939 1301.23,281.939 1303.27,243.146 1305.32,204.354 1307.36,320.732 1309.41,378.92 1311.46,301.335 1313.5,262.543 1315.55,378.92 1317.59,320.732 1319.64,495.298 1321.69,553.487 1323.73,340.128 1325.78,301.335 1327.82,417.713 1329.87,456.506 1331.91,340.128 1333.96,572.883 1336.01,281.939 1338.05,262.543 1340.1,301.335 1342.14,378.92 1344.19,378.92 1346.24,475.902 1348.28,417.713 1350.33,281.939 1352.37,378.92 1354.42,301.335 1356.47,475.902 1358.51,534.091 1360.56,553.487 1362.6,126.769 1364.65,475.902 1366.7,631.072 1368.74,281.939 1370.79,243.146 1372.83,320.732 1374.88,475.902 1376.92,456.506 1378.97,456.506 1381.02,340.128 1383.06,475.902 1385.11,378.92 1387.15,378.92 1389.2,340.128 1391.25,398.317 1393.29,495.298 1395.34,475.902 1397.38,378.92 1399.43,301.335 1401.48,398.317 1403.52,243.146 1405.57,495.298 1407.61,572.883 1409.66,378.92 1411.7,378.92 1413.75,437.109 1415.8,320.732 1417.84,204.354 1419.89,243.146 1421.93,359.524 1423.98,495.298 1426.03,475.902 1428.07,456.506 1430.12,204.354 1432.16,378.92 1434.21,359.524 1436.26,378.92 1438.3,437.109 1440.35,204.354 1442.39,475.902 1444.44,262.543 1446.49,262.543 1448.53,301.335 1450.58,165.561 1452.62,475.902 1454.67,495.298 1456.71,262.543 1458.76,631.072 1460.81,340.128 1462.85,456.506 1464.9,398.317 1466.94,359.524 1468.99,398.317 1471.04,359.524 1473.08,398.317 1475.13,223.75 1477.17,456.506 1479.22,359.524 1481.27,417.713 1483.31,359.524 1485.36,495.298 1487.4,262.543 1489.45,378.92 1491.49,378.92 1493.54,340.128 1495.59,359.524 1497.63,301.335 1499.68,398.317 1501.72,223.75 1503.77,340.128 1505.82,281.939 1507.86,611.676 1509.91,243.146 1511.95,514.694 1514,475.902 1516.05,359.524 1518.09,708.657 1520.14,359.524 1522.18,378.92 1524.23,417.713 1526.27,243.146 1528.32,650.468 1530.37,553.487 1532.41,553.487 1534.46,378.92 1536.5,417.713 1538.55,417.713 1540.6,456.506 1542.64,320.732 1544.69,281.939 1546.73,417.713 1548.78,495.298 1550.83,572.883 1552.87,378.92 1554.92,475.902 1556.96,456.506 1559.01,650.468 1561.06,611.676 1563.1,378.92 1565.15,398.317 1567.19,340.128 1569.24,340.128 1571.28,204.354 1573.33,398.317 1575.38,223.75 1577.42,262.543 1579.47,301.335 1581.51,553.487 1583.56,398.317 1585.61,437.109 1587.65,669.865 1589.7,747.45 1591.74,534.091 1593.79,281.939 1595.84,417.713 1597.88,165.561 1599.93,340.128 1601.97,417.713 1604.02,437.109 1606.06,359.524 1608.11,514.694 1610.16,514.694 1612.2,359.524 1614.25,281.939 1616.29,301.335 1618.34,398.317 1620.39,398.317 1622.43,243.146 1624.48,650.468 1626.52,359.524 1628.57,281.939 1630.62,514.694 1632.66,398.317 1634.71,437.109 1636.75,320.732 1638.8,243.146 1640.85,398.317 1642.89,495.298 1644.94,514.694 1646.98,475.902 1649.03,378.92 1651.07,281.939 1653.12,281.939 1655.17,417.713 1657.21,378.92 1659.26,378.92 1661.3,417.713 1663.35,553.487 1665.4,534.091 1667.44,223.75 1669.49,398.317 1671.53,437.109 1673.58,631.072 1675.63,281.939 1677.67,262.543 1679.72,417.713 1681.76,378.92 1683.81,165.561 1685.85,281.939 1687.9,262.543 1689.95,417.713 1691.99,378.92 1694.04,417.713 1696.08,437.109 1698.13,378.92 1700.18,553.487 1702.22,456.506 1704.27,514.694 1706.31,301.335 1708.36,359.524 1710.41,437.109 1712.45,320.732 1714.5,417.713 1716.54,165.561 1718.59,243.146 1720.64,456.506 1722.68,437.109 1724.73,301.335 1726.77,456.506 1728.82,320.732 1730.86,592.279 1732.91,437.109 1734.96,165.561 1737,553.487 1739.05,631.072 1741.09,340.128 1743.14,398.317 1745.19,243.146 1747.23,456.506 1749.28,262.543 1751.32,359.524 1753.37,301.335 1755.42,398.317 1757.46,456.506 1759.51,456.506 1761.55,417.713 1763.6,437.109 1765.64,378.92 1767.69,417.713 1769.74,417.713 1771.78,281.939 1773.83,301.335 1775.87,456.506 1777.92,437.109 1779.97,262.543 1782.01,340.128 1784.06,495.298 1786.1,301.335 1788.15,417.713 1790.2,417.713 1792.24,320.732 1794.29,301.335 1796.33,223.75 1798.38,243.146 1800.43,398.317 1802.47,650.468 1804.52,359.524 1806.56,437.109 1808.61,359.524 1810.65,417.713 1812.7,301.335 1814.75,437.109 1816.79,359.524 1818.84,437.109 1820.88,398.317 1822.93,456.506 1824.98,359.524 1827.02,359.524 1829.07,417.713 1831.11,359.524 1833.16,417.713 1835.21,281.939 1837.25,553.487 1839.3,359.524 1841.34,301.335 1843.39,592.279 1845.43,204.354 1847.48,146.165 1849.53,514.694 1851.57,398.317 1853.62,281.939 1855.66,301.335 1857.71,495.298 1859.76,631.072 1861.8,262.543 1863.85,592.279 1865.89,262.543 1867.94,534.091 1869.99,340.128 1872.03,553.487 1874.08,572.883 1876.12,243.146 1878.17,340.128 1880.22,359.524 1882.26,553.487 1884.31,340.128 1886.35,262.543 1888.4,359.524 1890.44,514.694 1892.49,495.298 1894.54,398.317 1896.58,378.92 1898.63,398.317 1900.67,281.939 1902.72,340.128 1904.77,669.865 1906.81,359.524 1908.86,340.128 1910.9,301.335 1912.95,243.146 1915,301.335 1917.04,475.902 1919.09,553.487 1921.13,320.732 1923.18,340.128 1925.22,475.902 1927.27,301.335 1929.32,301.335 1931.36,437.109 1933.41,456.506 1935.45,417.713 1937.5,417.713 1939.55,320.732 1941.59,340.128 1943.64,378.92 1945.68,262.543 1947.73,553.487 1949.78,243.146 1951.82,475.902 1953.87,378.92 1955.91,320.732 1957.96,359.524 1960.01,437.109 1962.05,456.506 1964.1,223.75 1966.14,320.732 1968.19,514.694 1970.23,495.298 1972.28,301.335 1974.33,378.92 1976.37,417.713 1978.42,262.543 1980.46,398.317 1982.51,243.146 1984.56,378.92 1986.6,359.524 1988.65,514.694 1990.69,592.279 1992.74,437.109 1994.79,87.9763 1996.83,398.317 1998.88,495.298 2000.92,534.091 2002.97,417.713 2005.01,223.75 2007.06,359.524 2009.11,301.335 2011.15,301.335 2013.2,320.732 2015.24,378.92 2017.29,495.298 2019.34,398.317 2021.38,359.524 2023.43,456.506 2025.47,281.939 2027.52,398.317 2029.57,378.92 2031.61,534.091 2033.66,320.732 2035.7,378.92 2037.75,650.468 2039.8,281.939 2041.84,398.317 2043.89,786.242 2045.93,495.298 2047.98,437.109 2050.02,417.713 2052.07,417.713 2054.12,340.128 2056.16,475.902 2058.21,301.335 2060.25,398.317 2062.3,534.091 2064.35,495.298 2066.39,262.543 2068.44,592.279 2070.48,301.335 2072.53,514.694 2074.58,301.335 2076.62,301.335 2078.67,378.92 2080.71,320.732 2082.76,340.128 2084.8,456.506 2086.85,437.109 2088.9,398.317 2090.94,281.939 2092.99,398.317 2095.03,301.335 2097.08,456.506 2099.13,398.317 2101.17,340.128 2103.22,475.902 2105.26,320.732 2107.31,398.317 2109.36,553.487 2111.4,728.053 2113.45,437.109 2115.49,184.958 2117.54,495.298 2119.59,340.128 2121.63,572.883 2123.68,456.506 2125.72,417.713 2127.77,417.713 2129.81,669.865 2131.86,475.902 2133.91,340.128 2135.95,534.091 2138,631.072 2140.04,592.279 2142.09,223.75 2144.14,553.487 2146.18,514.694 2148.23,359.524 2150.27,631.072 2152.32,572.883 2154.37,340.128 2156.41,417.713 2158.46,378.92 2160.5,398.317 2162.55,456.506 2164.59,320.732 2166.64,611.676 2168.69,495.298 2170.73,378.92 2172.78,592.279 2174.82,534.091 2176.87,534.091 2178.92,359.524 2180.96,417.713 2183.01,514.694 2185.05,475.902 2187.1,553.487 2189.15,572.883 2191.19,398.317 2193.24,514.694 2195.28,553.487 2197.33,495.298 2199.38,359.524 2201.42,631.072 2203.47,417.713 2205.51,534.091 2207.56,534.091 2209.6,378.92 2211.65,572.883 2213.7,320.732 2215.74,669.865 2217.79,359.524 2219.83,534.091 2221.88,359.524 2223.93,417.713 2225.97,534.091 2228.02,708.657 2230.06,262.543 2232.11,475.902 2234.16,359.524 2236.2,359.524 2238.25,631.072 2240.29,437.109 2242.34,301.335 2244.38,611.676 2246.43,320.732 2248.48,631.072 2250.52,456.506 2252.57,456.506 2254.61,417.713 2256.66,495.298 2258.71,359.524 2260.75,475.902 2262.8,572.883 2264.84,417.713 2266.89,553.487 2268.94,281.939 2270.98,320.732 2273.03,398.317 2275.07,398.317 2277.12,398.317 2279.16,514.694 2281.21,650.468 2283.26,456.506 2285.3,417.713 2287.35,340.128 2289.39,437.109 2291.44,417.713 "/>
<path clip-path="url(#clip000)" d="M2011.46 1438.47 L2280.54 1438.47 L2280.54 1334.79 L2011.46 1334.79  Z" fill="#ffffff" fill-rule="evenodd" fill-opacity="1"/>
<polyline clip-path="url(#clip000)" style="stroke:#000000; stroke-linecap:round; stroke-linejoin:round; stroke-width:4; stroke-opacity:1; fill:none" points="2011.46,1438.47 2280.54,1438.47 2280.54,1334.79 2011.46,1334.79 2011.46,1438.47 "/>
<polyline clip-path="url(#clip000)" style="stroke:#009af9; stroke-linecap:round; stroke-linejoin:round; stroke-width:4; stroke-opacity:1; fill:none" points="2035.53,1386.63 2179.97,1386.63 "/>
<path clip-path="url(#clip000)" d="M2217.88 1406.32 Q2216.07 1410.95 2214.36 1412.36 Q2212.65 1413.78 2209.78 1413.78 L2206.38 1413.78 L2206.38 1410.21 L2208.88 1410.21 Q2210.63 1410.21 2211.61 1409.38 Q2212.58 1408.54 2213.76 1405.44 L2214.52 1403.5 L2204.04 1377.99 L2208.55 1377.99 L2216.65 1398.27 L2224.76 1377.99 L2229.27 1377.99 L2217.88 1406.32 Z" fill="#000000" fill-rule="nonzero" fill-opacity="1" /><path clip-path="url(#clip000)" d="M2236.56 1399.98 L2244.2 1399.98 L2244.2 1373.61 L2235.89 1375.28 L2235.89 1371.02 L2244.15 1369.35 L2248.83 1369.35 L2248.83 1399.98 L2256.47 1399.98 L2256.47 1403.91 L2236.56 1403.91 L2236.56 1399.98 Z" fill="#000000" fill-rule="nonzero" fill-opacity="1" /></svg>
