<?xml version="1.0" encoding="utf-8"?>
<svg xmlns="http://www.w3.org/2000/svg" xmlns:xlink="http://www.w3.org/1999/xlink" width="600" height="400" viewBox="0 0 2400 1600">
<defs>
  <clipPath id="clip000">
    <rect x="0" y="0" width="2400" height="1600"/>
  </clipPath>
</defs>
<path clip-path="url(#clip000)" d="M0 1600 L2400 1600 L2400 0 L0 0  Z" fill="#ffffff" fill-rule="evenodd" fill-opacity="1"/>
<defs>
  <clipPath id="clip001">
    <rect x="480" y="0" width="1681" height="1600"/>
  </clipPath>
</defs>
<path clip-path="url(#clip000)" d="M156.598 1486.45 L2352.76 1486.45 L2352.76 47.2441 L156.598 47.2441  Z" fill="#ffffff" fill-rule="evenodd" fill-opacity="1"/>
<defs>
  <clipPath id="clip002">
    <rect x="156" y="47" width="2197" height="1440"/>
  </clipPath>
</defs>
<polyline clip-path="url(#clip002)" style="stroke:#000000; stroke-linecap:round; stroke-linejoin:round; stroke-width:2; stroke-opacity:0.1; fill:none" points="218.754,1486.45 218.754,47.2441 "/>
<polyline clip-path="url(#clip002)" style="stroke:#000000; stroke-linecap:round; stroke-linejoin:round; stroke-width:2; stroke-opacity:0.1; fill:none" points="737.234,1486.45 737.234,47.2441 "/>
<polyline clip-path="url(#clip002)" style="stroke:#000000; stroke-linecap:round; stroke-linejoin:round; stroke-width:2; stroke-opacity:0.1; fill:none" points="1255.71,1486.45 1255.71,47.2441 "/>
<polyline clip-path="url(#clip002)" style="stroke:#000000; stroke-linecap:round; stroke-linejoin:round; stroke-width:2; stroke-opacity:0.1; fill:none" points="1774.19,1486.45 1774.19,47.2441 "/>
<polyline clip-path="url(#clip002)" style="stroke:#000000; stroke-linecap:round; stroke-linejoin:round; stroke-width:2; stroke-opacity:0.1; fill:none" points="2292.67,1486.45 2292.67,47.2441 "/>
<polyline clip-path="url(#clip000)" style="stroke:#000000; stroke-linecap:round; stroke-linejoin:round; stroke-width:4; stroke-opacity:1; fill:none" points="156.598,1486.45 2352.76,1486.45 "/>
<polyline clip-path="url(#clip000)" style="stroke:#000000; stroke-linecap:round; stroke-linejoin:round; stroke-width:4; stroke-opacity:1; fill:none" points="218.754,1486.45 218.754,1467.55 "/>
<polyline clip-path="url(#clip000)" style="stroke:#000000; stroke-linecap:round; stroke-linejoin:round; stroke-width:4; stroke-opacity:1; fill:none" points="737.234,1486.45 737.234,1467.55 "/>
<polyline clip-path="url(#clip000)" style="stroke:#000000; stroke-linecap:round; stroke-linejoin:round; stroke-width:4; stroke-opacity:1; fill:none" points="1255.71,1486.45 1255.71,1467.55 "/>
<polyline clip-path="url(#clip000)" style="stroke:#000000; stroke-linecap:round; stroke-linejoin:round; stroke-width:4; stroke-opacity:1; fill:none" points="1774.19,1486.45 1774.19,1467.55 "/>
<polyline clip-path="url(#clip000)" style="stroke:#000000; stroke-linecap:round; stroke-linejoin:round; stroke-width:4; stroke-opacity:1; fill:none" points="2292.67,1486.45 2292.67,1467.55 "/>
<path clip-path="url(#clip000)" d="M218.754 1517.37 Q215.143 1517.37 213.314 1520.93 Q211.508 1524.47 211.508 1531.6 Q211.508 1538.71 213.314 1542.27 Q215.143 1545.82 218.754 1545.82 Q222.388 1545.82 224.193 1542.27 Q226.022 1538.71 226.022 1531.6 Q226.022 1524.47 224.193 1520.93 Q222.388 1517.37 218.754 1517.37 M218.754 1513.66 Q224.564 1513.66 227.619 1518.27 Q230.698 1522.85 230.698 1531.6 Q230.698 1540.33 227.619 1544.94 Q224.564 1549.52 218.754 1549.52 Q212.943 1549.52 209.865 1544.94 Q206.809 1540.33 206.809 1531.6 Q206.809 1522.85 209.865 1518.27 Q212.943 1513.66 218.754 1513.66 Z" fill="#000000" fill-rule="nonzero" fill-opacity="1" /><path clip-path="url(#clip000)" d="M700.926 1544.91 L717.246 1544.91 L717.246 1548.85 L695.301 1548.85 L695.301 1544.91 Q697.963 1542.16 702.547 1537.53 Q707.153 1532.88 708.334 1531.53 Q710.579 1529.01 711.459 1527.27 Q712.361 1525.51 712.361 1523.82 Q712.361 1521.07 710.417 1519.33 Q708.496 1517.6 705.394 1517.6 Q703.195 1517.6 700.741 1518.36 Q698.31 1519.13 695.533 1520.68 L695.533 1515.95 Q698.357 1514.82 700.81 1514.24 Q703.264 1513.66 705.301 1513.66 Q710.671 1513.66 713.866 1516.35 Q717.06 1519.03 717.06 1523.52 Q717.06 1525.65 716.25 1527.57 Q715.463 1529.47 713.357 1532.07 Q712.778 1532.74 709.676 1535.95 Q706.574 1539.15 700.926 1544.91 Z" fill="#000000" fill-rule="nonzero" fill-opacity="1" /><path clip-path="url(#clip000)" d="M727.107 1514.29 L745.463 1514.29 L745.463 1518.22 L731.389 1518.22 L731.389 1526.7 Q732.407 1526.35 733.426 1526.19 Q734.444 1526 735.463 1526 Q741.25 1526 744.63 1529.17 Q748.009 1532.34 748.009 1537.76 Q748.009 1543.34 744.537 1546.44 Q741.065 1549.52 734.745 1549.52 Q732.57 1549.52 730.301 1549.15 Q728.056 1548.78 725.648 1548.04 L725.648 1543.34 Q727.732 1544.47 729.954 1545.03 Q732.176 1545.58 734.653 1545.58 Q738.657 1545.58 740.995 1543.48 Q743.333 1541.37 743.333 1537.76 Q743.333 1534.15 740.995 1532.04 Q738.657 1529.94 734.653 1529.94 Q732.778 1529.94 730.903 1530.35 Q729.051 1530.77 727.107 1531.65 L727.107 1514.29 Z" fill="#000000" fill-rule="nonzero" fill-opacity="1" /><path clip-path="url(#clip000)" d="M767.222 1517.37 Q763.611 1517.37 761.782 1520.93 Q759.977 1524.47 759.977 1531.6 Q759.977 1538.71 761.782 1542.27 Q763.611 1545.82 767.222 1545.82 Q770.856 1545.82 772.662 1542.27 Q774.491 1538.71 774.491 1531.6 Q774.491 1524.47 772.662 1520.93 Q770.856 1517.37 767.222 1517.37 M767.222 1513.66 Q773.032 1513.66 776.088 1518.27 Q779.166 1522.85 779.166 1531.6 Q779.166 1540.33 776.088 1544.94 Q773.032 1549.52 767.222 1549.52 Q761.412 1549.52 758.333 1544.94 Q755.278 1540.33 755.278 1531.6 Q755.278 1522.85 758.333 1518.27 Q761.412 1513.66 767.222 1513.66 Z" fill="#000000" fill-rule="nonzero" fill-opacity="1" /><path clip-path="url(#clip000)" d="M1215.33 1514.29 L1233.69 1514.29 L1233.69 1518.22 L1219.61 1518.22 L1219.61 1526.7 Q1220.63 1526.35 1221.65 1526.19 Q1222.67 1526 1223.69 1526 Q1229.48 1526 1232.86 1529.17 Q1236.23 1532.34 1236.23 1537.76 Q1236.23 1543.34 1232.76 1546.44 Q1229.29 1549.52 1222.97 1549.52 Q1220.8 1549.52 1218.53 1549.15 Q1216.28 1548.78 1213.87 1548.04 L1213.87 1543.34 Q1215.96 1544.47 1218.18 1545.03 Q1220.4 1545.58 1222.88 1545.58 Q1226.88 1545.58 1229.22 1543.48 Q1231.56 1541.37 1231.56 1537.76 Q1231.56 1534.15 1229.22 1532.04 Q1226.88 1529.94 1222.88 1529.94 Q1221 1529.94 1219.13 1530.35 Q1217.28 1530.77 1215.33 1531.65 L1215.33 1514.29 Z" fill="#000000" fill-rule="nonzero" fill-opacity="1" /><path clip-path="url(#clip000)" d="M1255.45 1517.37 Q1251.84 1517.37 1250.01 1520.93 Q1248.2 1524.47 1248.2 1531.6 Q1248.2 1538.71 1250.01 1542.27 Q1251.84 1545.82 1255.45 1545.82 Q1259.08 1545.82 1260.89 1542.27 Q1262.72 1538.71 1262.72 1531.6 Q1262.72 1524.47 1260.89 1520.93 Q1259.08 1517.37 1255.45 1517.37 M1255.45 1513.66 Q1261.26 1513.66 1264.31 1518.27 Q1267.39 1522.85 1267.39 1531.6 Q1267.39 1540.33 1264.31 1544.94 Q1261.26 1549.52 1255.45 1549.52 Q1249.64 1549.52 1246.56 1544.94 Q1243.5 1540.33 1243.5 1531.6 Q1243.5 1522.85 1246.56 1518.27 Q1249.64 1513.66 1255.45 1513.66 Z" fill="#000000" fill-rule="nonzero" fill-opacity="1" /><path clip-path="url(#clip000)" d="M1285.61 1517.37 Q1282 1517.37 1280.17 1520.93 Q1278.36 1524.47 1278.36 1531.6 Q1278.36 1538.71 1280.17 1542.27 Q1282 1545.82 1285.61 1545.82 Q1289.24 1545.82 1291.05 1542.27 Q1292.88 1538.71 1292.88 1531.6 Q1292.88 1524.47 1291.05 1520.93 Q1289.24 1517.37 1285.61 1517.37 M1285.61 1513.66 Q1291.42 1513.66 1294.48 1518.27 Q1297.55 1522.85 1297.55 1531.6 Q1297.55 1540.33 1294.48 1544.94 Q1291.42 1549.52 1285.61 1549.52 Q1279.8 1549.52 1276.72 1544.94 Q1273.67 1540.33 1273.67 1531.6 Q1273.67 1522.85 1276.72 1518.27 Q1279.8 1513.66 1285.61 1513.66 Z" fill="#000000" fill-rule="nonzero" fill-opacity="1" /><path clip-path="url(#clip000)" d="M1732.47 1514.29 L1754.69 1514.29 L1754.69 1516.28 L1742.15 1548.85 L1737.26 1548.85 L1749.07 1518.22 L1732.47 1518.22 L1732.47 1514.29 Z" fill="#000000" fill-rule="nonzero" fill-opacity="1" /><path clip-path="url(#clip000)" d="M1763.86 1514.29 L1782.22 1514.29 L1782.22 1518.22 L1768.14 1518.22 L1768.14 1526.7 Q1769.16 1526.35 1770.18 1526.19 Q1771.2 1526 1772.22 1526 Q1778 1526 1781.38 1529.17 Q1784.76 1532.34 1784.76 1537.76 Q1784.76 1543.34 1781.29 1546.44 Q1777.82 1549.52 1771.5 1549.52 Q1769.32 1549.52 1767.05 1549.15 Q1764.81 1548.78 1762.4 1548.04 L1762.4 1543.34 Q1764.48 1544.47 1766.71 1545.03 Q1768.93 1545.58 1771.4 1545.58 Q1775.41 1545.58 1777.75 1543.48 Q1780.09 1541.37 1780.09 1537.76 Q1780.09 1534.15 1777.75 1532.04 Q1775.41 1529.94 1771.4 1529.94 Q1769.53 1529.94 1767.65 1530.35 Q1765.8 1530.77 1763.86 1531.65 L1763.86 1514.29 Z" fill="#000000" fill-rule="nonzero" fill-opacity="1" /><path clip-path="url(#clip000)" d="M1803.97 1517.37 Q1800.36 1517.37 1798.53 1520.93 Q1796.73 1524.47 1796.73 1531.6 Q1796.73 1538.71 1798.53 1542.27 Q1800.36 1545.82 1803.97 1545.82 Q1807.61 1545.82 1809.41 1542.27 Q1811.24 1538.71 1811.24 1531.6 Q1811.24 1524.47 1809.41 1520.93 Q1807.61 1517.37 1803.97 1517.37 M1803.97 1513.66 Q1809.78 1513.66 1812.84 1518.27 Q1815.92 1522.85 1815.92 1531.6 Q1815.92 1540.33 1812.84 1544.94 Q1809.78 1549.52 1803.97 1549.52 Q1798.16 1549.52 1795.09 1544.94 Q1792.03 1540.33 1792.03 1531.6 Q1792.03 1522.85 1795.09 1518.27 Q1798.16 1513.66 1803.97 1513.66 Z" fill="#000000" fill-rule="nonzero" fill-opacity="1" /><path clip-path="url(#clip000)" d="M2237.2 1544.91 L2244.84 1544.91 L2244.84 1518.55 L2236.53 1520.21 L2236.53 1515.95 L2244.79 1514.29 L2249.47 1514.29 L2249.47 1544.91 L2257.11 1544.91 L2257.11 1548.85 L2237.2 1548.85 L2237.2 1544.91 Z" fill="#000000" fill-rule="nonzero" fill-opacity="1" /><path clip-path="url(#clip000)" d="M2276.55 1517.37 Q2272.94 1517.37 2271.11 1520.93 Q2269.31 1524.47 2269.31 1531.6 Q2269.31 1538.71 2271.11 1542.27 Q2272.94 1545.82 2276.55 1545.82 Q2280.19 1545.82 2281.99 1542.27 Q2283.82 1538.71 2283.82 1531.6 Q2283.82 1524.47 2281.99 1520.93 Q2280.19 1517.37 2276.55 1517.37 M2276.55 1513.66 Q2282.36 1513.66 2285.42 1518.27 Q2288.5 1522.85 2288.5 1531.6 Q2288.5 1540.33 2285.42 1544.94 Q2282.36 1549.52 2276.55 1549.52 Q2270.74 1549.52 2267.66 1544.94 Q2264.61 1540.33 2264.61 1531.6 Q2264.61 1522.85 2267.66 1518.27 Q2270.74 1513.66 2276.55 1513.66 Z" fill="#000000" fill-rule="nonzero" fill-opacity="1" /><path clip-path="url(#clip000)" d="M2306.71 1517.37 Q2303.1 1517.37 2301.27 1520.93 Q2299.47 1524.47 2299.47 1531.6 Q2299.47 1538.71 2301.27 1542.27 Q2303.1 1545.82 2306.71 1545.82 Q2310.35 1545.82 2312.15 1542.27 Q2313.98 1538.71 2313.98 1531.6 Q2313.98 1524.47 2312.15 1520.93 Q2310.35 1517.37 2306.71 1517.37 M2306.71 1513.66 Q2312.52 1513.66 2315.58 1518.27 Q2318.66 1522.85 2318.66 1531.6 Q2318.66 1540.33 2315.58 1544.94 Q2312.52 1549.52 2306.71 1549.52 Q2300.9 1549.52 2297.82 1544.94 Q2294.77 1540.33 2294.77 1531.6 Q2294.77 1522.85 2297.82 1518.27 Q2300.9 1513.66 2306.71 1513.66 Z" fill="#000000" fill-rule="nonzero" fill-opacity="1" /><path clip-path="url(#clip000)" d="M2336.88 1517.37 Q2333.26 1517.37 2331.44 1520.93 Q2329.63 1524.47 2329.63 1531.6 Q2329.63 1538.71 2331.44 1542.27 Q2333.26 1545.82 2336.88 1545.82 Q2340.51 1545.82 2342.32 1542.27 Q2344.14 1538.71 2344.14 1531.6 Q2344.14 1524.47 2342.32 1520.93 Q2340.51 1517.37 2336.88 1517.37 M2336.88 1513.66 Q2342.69 1513.66 2345.74 1518.27 Q2348.82 1522.85 2348.82 1531.6 Q2348.82 1540.33 2345.74 1544.94 Q2342.69 1549.52 2336.88 1549.52 Q2331.07 1549.52 2327.99 1544.94 Q2324.93 1540.33 2324.93 1531.6 Q2324.93 1522.85 2327.99 1518.27 Q2331.07 1513.66 2336.88 1513.66 Z" fill="#000000" fill-rule="nonzero" fill-opacity="1" /><polyline clip-path="url(#clip002)" style="stroke:#000000; stroke-linecap:round; stroke-linejoin:round; stroke-width:2; stroke-opacity:0.1; fill:none" points="156.598,1260.13 2352.76,1260.13 "/>
<polyline clip-path="url(#clip002)" style="stroke:#000000; stroke-linecap:round; stroke-linejoin:round; stroke-width:2; stroke-opacity:0.1; fill:none" points="156.598,869.409 2352.76,869.409 "/>
<polyline clip-path="url(#clip002)" style="stroke:#000000; stroke-linecap:round; stroke-linejoin:round; stroke-width:2; stroke-opacity:0.1; fill:none" points="156.598,478.693 2352.76,478.693 "/>
<polyline clip-path="url(#clip002)" style="stroke:#000000; stroke-linecap:round; stroke-linejoin:round; stroke-width:2; stroke-opacity:0.1; fill:none" points="156.598,87.9763 2352.76,87.9763 "/>
<polyline clip-path="url(#clip000)" style="stroke:#000000; stroke-linecap:round; stroke-linejoin:round; stroke-width:4; stroke-opacity:1; fill:none" points="156.598,1486.45 156.598,47.2441 "/>
<polyline clip-path="url(#clip000)" style="stroke:#000000; stroke-linecap:round; stroke-linejoin:round; stroke-width:4; stroke-opacity:1; fill:none" points="156.598,1260.13 175.496,1260.13 "/>
<polyline clip-path="url(#clip000)" style="stroke:#000000; stroke-linecap:round; stroke-linejoin:round; stroke-width:4; stroke-opacity:1; fill:none" points="156.598,869.409 175.496,869.409 "/>
<polyline clip-path="url(#clip000)" style="stroke:#000000; stroke-linecap:round; stroke-linejoin:round; stroke-width:4; stroke-opacity:1; fill:none" points="156.598,478.693 175.496,478.693 "/>
<polyline clip-path="url(#clip000)" style="stroke:#000000; stroke-linecap:round; stroke-linejoin:round; stroke-width:4; stroke-opacity:1; fill:none" points="156.598,87.9763 175.496,87.9763 "/>
<path clip-path="url(#clip000)" d="M62.9365 1245.92 Q59.3254 1245.92 57.4967 1249.49 Q55.6912 1253.03 55.6912 1260.16 Q55.6912 1267.27 57.4967 1270.83 Q59.3254 1274.37 62.9365 1274.37 Q66.5707 1274.37 68.3763 1270.83 Q70.205 1267.27 70.205 1260.16 Q70.205 1253.03 68.3763 1249.49 Q66.5707 1245.92 62.9365 1245.92 M62.9365 1242.22 Q68.7467 1242.22 71.8022 1246.83 Q74.8809 1251.41 74.8809 1260.16 Q74.8809 1268.89 71.8022 1273.49 Q68.7467 1278.08 62.9365 1278.08 Q57.1264 1278.08 54.0477 1273.49 Q50.9921 1268.89 50.9921 1260.16 Q50.9921 1251.41 54.0477 1246.83 Q57.1264 1242.22 62.9365 1242.22 Z" fill="#000000" fill-rule="nonzero" fill-opacity="1" /><path clip-path="url(#clip000)" d="M83.0984 1271.53 L87.9827 1271.53 L87.9827 1277.41 L83.0984 1277.41 L83.0984 1271.53 Z" fill="#000000" fill-rule="nonzero" fill-opacity="1" /><path clip-path="url(#clip000)" d="M111.015 1246.92 L99.2095 1265.37 L111.015 1265.37 L111.015 1246.92 M109.788 1242.85 L115.668 1242.85 L115.668 1265.37 L120.598 1265.37 L120.598 1269.26 L115.668 1269.26 L115.668 1277.41 L111.015 1277.41 L111.015 1269.26 L95.4132 1269.26 L95.4132 1264.74 L109.788 1242.85 Z" fill="#000000" fill-rule="nonzero" fill-opacity="1" /><path clip-path="url(#clip000)" d="M63.2606 855.208 Q59.6495 855.208 57.8208 858.773 Q56.0152 862.314 56.0152 869.444 Q56.0152 876.55 57.8208 880.115 Q59.6495 883.657 63.2606 883.657 Q66.8948 883.657 68.7004 880.115 Q70.5291 876.55 70.5291 869.444 Q70.5291 862.314 68.7004 858.773 Q66.8948 855.208 63.2606 855.208 M63.2606 851.504 Q69.0707 851.504 72.1263 856.11 Q75.205 860.694 75.205 869.444 Q75.205 878.171 72.1263 882.777 Q69.0707 887.36 63.2606 887.36 Q57.4504 887.36 54.3717 882.777 Q51.3162 878.171 51.3162 869.444 Q51.3162 860.694 54.3717 856.11 Q57.4504 851.504 63.2606 851.504 Z" fill="#000000" fill-rule="nonzero" fill-opacity="1" /><path clip-path="url(#clip000)" d="M83.4225 880.809 L88.3067 880.809 L88.3067 886.689 L83.4225 886.689 L83.4225 880.809 Z" fill="#000000" fill-rule="nonzero" fill-opacity="1" /><path clip-path="url(#clip000)" d="M109.071 867.546 Q105.922 867.546 104.071 869.698 Q102.242 871.851 102.242 875.601 Q102.242 879.328 104.071 881.504 Q105.922 883.657 109.071 883.657 Q112.219 883.657 114.047 881.504 Q115.899 879.328 115.899 875.601 Q115.899 871.851 114.047 869.698 Q112.219 867.546 109.071 867.546 M118.353 852.893 L118.353 857.152 Q116.594 856.319 114.788 855.879 Q113.006 855.439 111.246 855.439 Q106.617 855.439 104.163 858.564 Q101.733 861.689 101.385 868.009 Q102.751 865.995 104.811 864.93 Q106.871 863.842 109.348 863.842 Q114.557 863.842 117.566 867.013 Q120.598 870.161 120.598 875.601 Q120.598 880.925 117.45 884.143 Q114.302 887.36 109.071 887.36 Q103.075 887.36 99.9039 882.777 Q96.7326 878.171 96.7326 869.444 Q96.7326 861.249 100.621 856.388 Q104.51 851.504 111.061 851.504 Q112.82 851.504 114.603 851.851 Q116.408 852.198 118.353 852.893 Z" fill="#000000" fill-rule="nonzero" fill-opacity="1" /><path clip-path="url(#clip000)" d="M63.5152 464.491 Q59.9041 464.491 58.0754 468.056 Q56.2699 471.598 56.2699 478.727 Q56.2699 485.834 58.0754 489.399 Q59.9041 492.94 63.5152 492.94 Q67.1494 492.94 68.955 489.399 Q70.7837 485.834 70.7837 478.727 Q70.7837 471.598 68.955 468.056 Q67.1494 464.491 63.5152 464.491 M63.5152 460.788 Q69.3254 460.788 72.3809 465.394 Q75.4596 469.977 75.4596 478.727 Q75.4596 487.454 72.3809 492.061 Q69.3254 496.644 63.5152 496.644 Q57.7051 496.644 54.6264 492.061 Q51.5708 487.454 51.5708 478.727 Q51.5708 469.977 54.6264 465.394 Q57.7051 460.788 63.5152 460.788 Z" fill="#000000" fill-rule="nonzero" fill-opacity="1" /><path clip-path="url(#clip000)" d="M83.6771 490.093 L88.5614 490.093 L88.5614 495.973 L83.6771 495.973 L83.6771 490.093 Z" fill="#000000" fill-rule="nonzero" fill-opacity="1" /><path clip-path="url(#clip000)" d="M108.746 479.561 Q105.413 479.561 103.492 481.343 Q101.594 483.126 101.594 486.25 Q101.594 489.375 103.492 491.158 Q105.413 492.94 108.746 492.94 Q112.08 492.94 114.001 491.158 Q115.922 489.352 115.922 486.25 Q115.922 483.126 114.001 481.343 Q112.103 479.561 108.746 479.561 M104.071 477.57 Q101.061 476.829 99.3715 474.769 Q97.7048 472.709 97.7048 469.746 Q97.7048 465.602 100.645 463.195 Q103.608 460.788 108.746 460.788 Q113.908 460.788 116.848 463.195 Q119.788 465.602 119.788 469.746 Q119.788 472.709 118.098 474.769 Q116.432 476.829 113.445 477.57 Q116.825 478.357 118.7 480.649 Q120.598 482.94 120.598 486.25 Q120.598 491.274 117.52 493.959 Q114.464 496.644 108.746 496.644 Q103.029 496.644 99.9502 493.959 Q96.8947 491.274 96.8947 486.25 Q96.8947 482.94 98.7928 480.649 Q100.691 478.357 104.071 477.57 M102.358 470.186 Q102.358 472.871 104.024 474.376 Q105.714 475.88 108.746 475.88 Q111.756 475.88 113.445 474.376 Q115.158 472.871 115.158 470.186 Q115.158 467.501 113.445 465.996 Q111.756 464.491 108.746 464.491 Q105.714 464.491 104.024 465.996 Q102.358 467.501 102.358 470.186 Z" fill="#000000" fill-rule="nonzero" fill-opacity="1" /><path clip-path="url(#clip000)" d="M54.2328 101.321 L61.8717 101.321 L61.8717 74.9555 L53.5616 76.6222 L53.5616 72.3629 L61.8254 70.6963 L66.5013 70.6963 L66.5013 101.321 L74.1402 101.321 L74.1402 105.256 L54.2328 105.256 L54.2328 101.321 Z" fill="#000000" fill-rule="nonzero" fill-opacity="1" /><path clip-path="url(#clip000)" d="M83.5845 99.3767 L88.4688 99.3767 L88.4688 105.256 L83.5845 105.256 L83.5845 99.3767 Z" fill="#000000" fill-rule="nonzero" fill-opacity="1" /><path clip-path="url(#clip000)" d="M108.654 73.775 Q105.043 73.775 103.214 77.3398 Q101.409 80.8814 101.409 88.011 Q101.409 95.1174 103.214 98.6822 Q105.043 102.224 108.654 102.224 Q112.288 102.224 114.094 98.6822 Q115.922 95.1174 115.922 88.011 Q115.922 80.8814 114.094 77.3398 Q112.288 73.775 108.654 73.775 M108.654 70.0713 Q114.464 70.0713 117.52 74.6777 Q120.598 79.261 120.598 88.011 Q120.598 96.7378 117.52 101.344 Q114.464 105.928 108.654 105.928 Q102.844 105.928 99.765 101.344 Q96.7095 96.7378 96.7095 88.011 Q96.7095 79.261 99.765 74.6777 Q102.844 70.0713 108.654 70.0713 Z" fill="#000000" fill-rule="nonzero" fill-opacity="1" /><polyline clip-path="url(#clip002)" style="stroke:#009af9; stroke-linecap:round; stroke-linejoin:round; stroke-width:4; stroke-opacity:1; fill:none" points="218.754,1445.72 220.828,1308.96 222.901,1279.66 224.975,1328.5 227.049,1142.91 229.123,1328.5 231.197,1211.29 233.271,1152.68 235.345,1201.52 237.419,1211.29 239.493,1094.07 241.567,1201.52 243.641,1172.21 245.715,1103.84 247.789,1113.61 249.862,1084.3 251.936,1103.84 254.01,1230.82 256.084,1094.07 258.158,957.32 260.232,937.784 262.306,1006.16 264.38,1084.3 266.454,1015.93 268.528,986.624 270.602,947.552 272.676,937.784 274.75,928.016 276.823,820.569 278.897,957.32 280.971,840.105 283.045,898.713 285.119,937.784 287.193,918.249 289.267,869.409 291.341,879.177 293.415,752.194 295.489,840.105 297.563,859.641 299.637,1015.93 301.71,898.713 303.784,820.569 305.858,869.409 307.932,654.515 310.006,742.426 312.08,722.89 314.154,683.819 316.228,781.498 318.302,693.587 320.376,761.962 322.45,693.587 324.524,830.337 326.598,761.962 328.671,654.515 330.745,576.372 332.819,722.89 334.893,654.515 336.967,615.443 339.041,742.426 341.115,683.819 343.189,713.122 345.263,683.819 347.337,595.908 349.411,664.283 351.485,566.604 353.558,586.14 355.632,625.211 357.706,703.355 359.78,713.122 361.854,674.051 363.928,605.675 366.002,488.461 368.076,634.979 370.15,644.747 372.224,556.836 374.298,576.372 376.372,605.675 378.446,615.443 380.519,683.819 382.593,654.515 384.667,547.068 386.741,527.532 388.815,556.836 390.889,566.604 392.963,605.675 395.037,527.532 397.111,556.836 399.185,615.443 401.259,498.228 403.333,634.979 405.407,654.515 407.48,595.908 409.554,644.747 411.628,625.211 413.702,527.532 415.776,586.14 417.85,576.372 419.924,507.996 421.998,615.443 424.072,586.14 426.146,537.3 428.22,507.996 430.294,439.621 432.367,654.515 434.441,605.675 436.515,586.14 438.589,625.211 440.663,605.675 442.737,527.532 444.811,556.836 446.885,498.228 448.959,537.3 451.033,459.157 453.107,566.604 455.181,498.228 457.255,625.211 459.328,507.996 461.402,547.068 463.476,625.211 465.55,468.925 467.624,586.14 469.698,507.996 471.772,556.836 473.846,478.693 475.92,468.925 477.994,586.14 480.068,429.853 482.142,566.604 484.216,400.549 486.289,488.461 488.363,459.157 490.437,439.621 492.511,595.908 494.585,527.532 496.659,517.764 498.733,478.693 500.807,556.836 502.881,488.461 504.955,537.3 507.029,478.693 509.103,488.461 511.176,478.693 513.25,459.157 515.324,439.621 517.398,459.157 519.472,507.996 521.546,517.764 523.62,537.3 525.694,478.693 527.768,517.764 529.842,439.621 531.916,527.532 533.99,381.014 536.064,547.068 538.137,625.211 540.211,390.781 542.285,537.3 544.359,595.908 546.433,498.228 548.507,429.853 550.581,478.693 552.655,468.925 554.729,400.549 556.803,468.925 558.877,420.085 560.951,429.853 563.024,498.228 565.098,527.532 567.172,400.549 569.246,400.549 571.32,488.461 573.394,468.925 575.468,410.317 577.542,547.068 579.616,439.621 581.69,527.532 583.764,517.764 585.838,507.996 587.912,420.085 589.985,537.3 592.059,527.532 594.133,449.389 596.207,420.085 598.281,478.693 600.355,488.461 602.429,527.532 604.503,468.925 606.577,429.853 608.651,459.157 610.725,478.693 612.799,527.532 614.873,468.925 616.946,507.996 619.02,595.908 621.094,498.228 623.168,576.372 625.242,517.764 627.316,498.228 629.39,449.389 631.464,420.085 633.538,410.317 635.612,527.532 637.686,498.228 639.76,498.228 641.833,429.853 643.907,507.996 645.981,459.157 648.055,527.532 650.129,371.246 652.203,390.781 654.277,547.068 656.351,507.996 658.425,566.604 660.499,410.317 662.573,478.693 664.647,507.996 666.721,478.693 668.794,410.317 670.868,371.246 672.942,439.621 675.016,498.228 677.09,478.693 679.164,566.604 681.238,429.853 683.312,488.461 685.386,459.157 687.46,547.068 689.534,527.532 691.608,576.372 693.681,420.085 695.755,371.246 697.829,449.389 699.903,390.781 701.977,449.389 704.051,488.461 706.125,478.693 708.199,449.389 710.273,459.157 712.347,390.781 714.421,507.996 716.495,507.996 718.569,556.836 720.642,371.246 722.716,449.389 724.79,478.693 726.864,507.996 728.938,459.157 731.012,439.621 733.086,400.549 735.16,537.3 737.234,381.014 739.308,439.621 741.382,381.014 743.456,507.996 745.53,429.853 747.603,351.71 749.677,371.246 751.751,449.389 753.825,459.157 755.899,371.246 757.973,488.461 760.047,439.621 762.121,420.085 764.195,371.246 766.269,351.71 768.343,381.014 770.417,459.157 772.49,410.317 774.564,381.014 776.638,351.71 778.712,371.246 780.786,332.174 782.86,351.71 784.934,390.781 787.008,371.246 789.082,410.317 791.156,449.389 793.23,410.317 795.304,449.389 797.378,381.014 799.451,332.174 801.525,361.478 803.599,361.478 805.673,410.317 807.747,420.085 809.821,332.174 811.895,400.549 813.969,351.71 816.043,322.406 818.117,312.638 820.191,293.102 822.265,302.87 824.339,381.014 826.412,390.781 828.486,302.87 830.56,214.959 832.634,273.567 834.708,293.102 836.782,351.71 838.856,254.031 840.93,283.334 843.004,322.406 845.078,351.71 847.152,361.478 849.226,322.406 851.299,322.406 853.373,302.87 855.447,400.549 857.521,302.87 859.595,420.085 861.669,312.638 863.743,254.031 865.817,263.799 867.891,283.334 869.965,273.567 872.039,322.406 874.113,302.87 876.187,332.174 878.26,302.87 880.334,283.334 882.408,254.031 884.482,341.942 886.556,283.334 888.63,302.87 890.704,224.727 892.778,254.031 894.852,283.334 896.926,283.334 899,244.263 901.074,273.567 903.147,234.495 905.221,302.87 907.295,332.174 909.369,312.638 911.443,312.638 913.517,293.102 915.591,293.102 917.665,332.174 919.739,341.942 921.813,263.799 923.887,263.799 925.961,254.031 928.035,175.887 930.108,322.406 932.182,312.638 934.256,224.727 936.33,205.191 938.404,302.87 940.478,312.638 942.552,224.727 944.626,214.959 946.7,283.334 948.774,312.638 950.848,244.263 952.922,224.727 954.996,293.102 957.069,283.334 959.143,254.031 961.217,244.263 963.291,234.495 965.365,254.031 967.439,224.727 969.513,263.799 971.587,224.727 973.661,166.12 975.735,234.495 977.809,254.031 979.883,195.423 981.956,234.495 984.03,234.495 986.104,205.191 988.178,234.495 990.252,214.959 992.326,244.263 994.4,234.495 996.474,254.031 998.548,263.799 1000.62,244.263 1002.7,244.263 1004.77,205.191 1006.84,195.423 1008.92,302.87 1010.99,195.423 1013.07,254.031 1015.14,175.887 1017.21,195.423 1019.29,254.031 1021.36,224.727 1023.43,185.655 1025.51,156.352 1027.58,195.423 1029.66,273.567 1031.73,234.495 1033.8,175.887 1035.88,185.655 1037.95,175.887 1040.03,185.655 1042.1,195.423 1044.17,214.959 1046.25,195.423 1048.32,185.655 1050.4,166.12 1052.47,166.12 1054.54,166.12 1056.62,224.727 1058.69,175.887 1060.77,146.584 1062.84,175.887 1064.91,205.191 1066.99,205.191 1069.06,205.191 1071.14,156.352 1073.21,214.959 1075.28,117.28 1077.36,224.727 1079.43,185.655 1081.5,185.655 1083.58,205.191 1085.65,195.423 1087.73,175.887 1089.8,205.191 1091.87,175.887 1093.95,214.959 1096.02,175.887 1098.1,254.031 1100.17,195.423 1102.24,224.727 1104.32,166.12 1106.39,214.959 1108.47,156.352 1110.54,195.423 1112.61,205.191 1114.69,214.959 1116.76,156.352 1118.84,127.048 1120.91,175.887 1122.98,224.727 1125.06,214.959 1127.13,185.655 1129.2,185.655 1131.28,224.727 1133.35,214.959 1135.43,127.048 1137.5,205.191 1139.57,205.191 1141.65,166.12 1143.72,195.423 1145.8,166.12 1147.87,214.959 1149.94,185.655 1152.02,146.584 1154.09,146.584 1156.17,146.584 1158.24,185.655 1160.31,127.048 1162.39,195.423 1164.46,185.655 1166.54,136.816 1168.61,136.816 1170.68,185.655 1172.76,166.12 1174.83,175.887 1176.91,117.28 1178.98,166.12 1181.05,185.655 1183.13,136.816 1185.2,97.7442 1187.27,146.584 1189.35,117.28 1191.42,146.584 1193.5,175.887 1195.57,185.655 1197.64,205.191 1199.72,136.816 1201.79,107.512 1203.87,156.352 1205.94,156.352 1208.01,175.887 1210.09,175.887 1212.16,166.12 1214.24,175.887 1216.31,166.12 1218.38,136.816 1220.46,175.887 1222.53,156.352 1224.61,136.816 1226.68,117.28 1228.75,127.048 1230.83,166.12 1232.9,146.584 1234.97,156.352 1237.05,136.816 1239.12,166.12 1241.2,156.352 1243.27,127.048 1245.34,156.352 1247.42,146.584 1249.49,127.048 1251.57,195.423 1253.64,127.048 1255.71,127.048 1257.79,117.28 1259.86,185.655 1261.94,107.512 1264.01,146.584 1266.08,146.584 1268.16,195.423 1270.23,146.584 1272.31,146.584 1274.38,156.352 1276.45,185.655 1278.53,175.887 1280.6,156.352 1282.68,136.816 1284.75,127.048 1286.82,166.12 1288.9,175.887 1290.97,117.28 1293.04,136.816 1295.12,127.048 1297.19,107.512 1299.27,166.12 1301.34,156.352 1303.41,127.048 1305.49,107.512 1307.56,156.352 1309.64,136.816 1311.71,117.28 1313.78,127.048 1315.86,127.048 1317.93,117.28 1320.01,117.28 1322.08,117.28 1324.15,117.28 1326.23,156.352 1328.3,146.584 1330.38,136.816 1332.45,97.7442 1334.52,127.048 1336.6,136.816 1338.67,156.352 1340.74,136.816 1342.82,146.584 1344.89,195.423 1346.97,166.12 1349.04,117.28 1351.11,166.12 1353.19,117.28 1355.26,136.816 1357.34,136.816 1359.41,146.584 1361.48,146.584 1363.56,127.048 1365.63,146.584 1367.71,156.352 1369.78,146.584 1371.85,136.816 1373.93,117.28 1376,127.048 1378.08,127.048 1380.15,127.048 1382.22,136.816 1384.3,136.816 1386.37,107.512 1388.44,166.12 1390.52,127.048 1392.59,166.12 1394.67,117.28 1396.74,136.816 1398.81,175.887 1400.89,127.048 1402.96,136.816 1405.04,166.12 1407.11,146.584 1409.18,107.512 1411.26,97.7442 1413.33,136.816 1415.41,117.28 1417.48,136.816 1419.55,156.352 1421.63,136.816 1423.7,136.816 1425.78,117.28 1427.85,117.28 1429.92,127.048 1432,127.048 1434.07,166.12 1436.15,117.28 1438.22,127.048 1440.29,117.28 1442.37,117.28 1444.44,146.584 1446.51,107.512 1448.59,107.512 1450.66,117.28 1452.74,156.352 1454.81,156.352 1456.88,107.512 1458.96,117.28 1461.03,107.512 1463.11,156.352 1465.18,136.816 1467.25,156.352 1469.33,127.048 1471.4,156.352 1473.48,136.816 1475.55,136.816 1477.62,127.048 1479.7,185.655 1481.77,117.28 1483.85,117.28 1485.92,117.28 1487.99,136.816 1490.07,107.512 1492.14,136.816 1494.21,97.7442 1496.29,136.816 1498.36,146.584 1500.44,97.7442 1502.51,127.048 1504.58,156.352 1506.66,146.584 1508.73,136.816 1510.81,156.352 1512.88,136.816 1514.95,127.048 1517.03,107.512 1519.1,136.816 1521.18,146.584 1523.25,156.352 1525.32,136.816 1527.4,166.12 1529.47,127.048 1531.55,156.352 1533.62,127.048 1535.69,136.816 1537.77,136.816 1539.84,107.512 1541.92,97.7442 1543.99,136.816 1546.06,117.28 1548.14,136.816 1550.21,107.512 1552.28,107.512 1554.36,146.584 1556.43,127.048 1558.51,127.048 1560.58,136.816 1562.65,127.048 1564.73,117.28 1566.8,127.048 1568.88,117.28 1570.95,97.7442 1573.02,107.512 1575.1,136.816 1577.17,107.512 1579.25,97.7442 1581.32,107.512 1583.39,127.048 1585.47,117.28 1587.54,136.816 1589.62,127.048 1591.69,117.28 1593.76,136.816 1595.84,117.28 1597.91,117.28 1599.98,127.048 1602.06,107.512 1604.13,117.28 1606.21,117.28 1608.28,127.048 1610.35,146.584 1612.43,127.048 1614.5,146.584 1616.58,117.28 1618.65,117.28 1620.72,166.12 1622.8,87.9763 1624.87,87.9763 1626.95,107.512 1629.02,97.7442 1631.09,97.7442 1633.17,97.7442 1635.24,97.7442 1637.32,117.28 1639.39,107.512 1641.46,136.816 1643.54,107.512 1645.61,136.816 1647.69,107.512 1649.76,97.7442 1651.83,146.584 1653.91,117.28 1655.98,117.28 1658.05,107.512 1660.13,127.048 1662.2,107.512 1664.28,87.9763 1666.35,156.352 1668.42,107.512 1670.5,127.048 1672.57,97.7442 1674.65,97.7442 1676.72,107.512 1678.79,97.7442 1680.87,97.7442 1682.94,107.512 1685.02,127.048 1687.09,117.28 1689.16,136.816 1691.24,136.816 1693.31,107.512 1695.39,107.512 1697.46,136.816 1699.53,127.048 1701.61,117.28 1703.68,107.512 1705.75,107.512 1707.83,117.28 1709.9,107.512 1711.98,136.816 1714.05,97.7442 1716.12,107.512 1718.2,97.7442 1720.27,117.28 1722.35,136.816 1724.42,127.048 1726.49,146.584 1728.57,156.352 1730.64,127.048 1732.72,117.28 1734.79,127.048 1736.86,97.7442 1738.94,127.048 1741.01,117.28 1743.09,117.28 1745.16,97.7442 1747.23,127.048 1749.31,97.7442 1751.38,107.512 1753.46,117.28 1755.53,107.512 1757.6,127.048 1759.68,107.512 1761.75,87.9763 1763.82,97.7442 1765.9,136.816 1767.97,107.512 1770.05,117.28 1772.12,136.816 1774.19,97.7442 1776.27,136.816 1778.34,107.512 1780.42,127.048 1782.49,117.28 1784.56,107.512 1786.64,127.048 1788.71,117.28 1790.79,97.7442 1792.86,107.512 1794.93,127.048 1797.01,87.9763 1799.08,107.512 1801.16,117.28 1803.23,117.28 1805.3,127.048 1807.38,136.816 1809.45,127.048 1811.52,117.28 1813.6,107.512 1815.67,117.28 1817.75,107.512 1819.82,97.7442 1821.89,117.28 1823.97,97.7442 1826.04,97.7442 1828.12,117.28 1830.19,117.28 1832.26,117.28 1834.34,97.7442 1836.41,107.512 1838.49,127.048 1840.56,87.9763 1842.63,127.048 1844.71,97.7442 1846.78,107.512 1848.86,107.512 1850.93,127.048 1853,136.816 1855.08,127.048 1857.15,107.512 1859.22,117.28 1861.3,127.048 1863.37,107.512 1865.45,107.512 1867.52,97.7442 1869.59,107.512 1871.67,146.584 1873.74,117.28 1875.82,107.512 1877.89,87.9763 1879.96,117.28 1882.04,117.28 1884.11,107.512 1886.19,146.584 1888.26,97.7442 1890.33,127.048 1892.41,127.048 1894.48,136.816 1896.56,107.512 1898.63,107.512 1900.7,107.512 1902.78,127.048 1904.85,117.28 1906.93,107.512 1909,87.9763 1911.07,117.28 1913.15,117.28 1915.22,107.512 1917.29,127.048 1919.37,136.816 1921.44,107.512 1923.52,117.28 1925.59,97.7442 1927.66,107.512 1929.74,87.9763 1931.81,97.7442 1933.89,117.28 1935.96,117.28 1938.03,97.7442 1940.11,136.816 1942.18,117.28 1944.26,97.7442 1946.33,127.048 1948.4,97.7442 1950.48,107.512 1952.55,127.048 1954.63,107.512 1956.7,117.28 1958.77,117.28 1960.85,117.28 1962.92,117.28 1964.99,107.512 1967.07,107.512 1969.14,97.7442 1971.22,97.7442 1973.29,117.28 1975.36,87.9763 1977.44,97.7442 1979.51,117.28 1981.59,117.28 1983.66,136.816 1985.73,117.28 1987.81,87.9763 1989.88,127.048 1991.96,97.7442 1994.03,136.816 1996.1,136.816 1998.18,107.512 2000.25,97.7442 2002.33,107.512 2004.4,107.512 2006.47,97.7442 2008.55,87.9763 2010.62,107.512 2012.7,117.28 2014.77,107.512 2016.84,97.7442 2018.92,97.7442 2020.99,97.7442 2023.06,117.28 2025.14,107.512 2027.21,107.512 2029.29,117.28 2031.36,117.28 2033.43,107.512 2035.51,107.512 2037.58,117.28 2039.66,117.28 2041.73,107.512 2043.8,87.9763 2045.88,117.28 2047.95,87.9763 2050.03,117.28 2052.1,97.7442 2054.17,97.7442 2056.25,97.7442 2058.32,107.512 2060.4,146.584 2062.47,136.816 2064.54,146.584 2066.62,107.512 2068.69,97.7442 2070.76,136.816 2072.84,127.048 2074.91,107.512 2076.99,117.28 2079.06,107.512 2081.13,117.28 2083.21,146.584 2085.28,156.352 2087.36,127.048 2089.43,117.28 2091.5,97.7442 2093.58,107.512 2095.65,97.7442 2097.73,127.048 2099.8,97.7442 2101.87,97.7442 2103.95,107.512 2106.02,117.28 2108.1,107.512 2110.17,97.7442 2112.24,107.512 2114.32,136.816 2116.39,87.9763 2118.47,127.048 2120.54,117.28 2122.61,87.9763 2124.69,117.28 2126.76,97.7442 2128.83,87.9763 2130.91,87.9763 2132.98,87.9763 2135.06,107.512 2137.13,117.28 2139.2,117.28 2141.28,97.7442 2143.35,97.7442 2145.43,97.7442 2147.5,97.7442 2149.57,127.048 2151.65,97.7442 2153.72,117.28 2155.8,146.584 2157.87,97.7442 2159.94,97.7442 2162.02,107.512 2164.09,117.28 2166.17,97.7442 2168.24,117.28 2170.31,127.048 2172.39,97.7442 2174.46,97.7442 2176.53,136.816 2178.61,97.7442 2180.68,117.28 2182.76,107.512 2184.83,127.048 2186.9,97.7442 2188.98,107.512 2191.05,87.9763 2193.13,127.048 2195.2,107.512 2197.27,97.7442 2199.35,97.7442 2201.42,107.512 2203.5,97.7442 2205.57,107.512 2207.64,156.352 2209.72,97.7442 2211.79,97.7442 2213.87,117.28 2215.94,107.512 2218.01,97.7442 2220.09,97.7442 2222.16,107.512 2224.24,97.7442 2226.31,107.512 2228.38,87.9763 2230.46,117.28 2232.53,97.7442 2234.6,87.9763 2236.68,97.7442 2238.75,117.28 2240.83,87.9763 2242.9,136.816 2244.97,107.512 2247.05,107.512 2249.12,117.28 2251.2,117.28 2253.27,97.7442 2255.34,146.584 2257.42,107.512 2259.49,156.352 2261.57,107.512 2263.64,146.584 2265.71,97.7442 2267.79,87.9763 2269.86,97.7442 2271.94,87.9763 2274.01,97.7442 2276.08,107.512 2278.16,97.7442 2280.23,87.9763 2282.3,107.512 2284.38,107.512 2286.45,107.512 2288.53,97.7442 2290.6,127.048 "/>
<path clip-path="url(#clip000)" d="M2007.5 1438.47 L2279.55 1438.47 L2279.55 1334.79 L2007.5 1334.79  Z" fill="#ffffff" fill-rule="evenodd" fill-opacity="1"/>
<polyline clip-path="url(#clip000)" style="stroke:#000000; stroke-linecap:round; stroke-linejoin:round; stroke-width:4; stroke-opacity:1; fill:none" points="2007.5,1438.47 2279.55,1438.47 2279.55,1334.79 2007.5,1334.79 2007.5,1438.47 "/>
<polyline clip-path="url(#clip000)" style="stroke:#009af9; stroke-linecap:round; stroke-linejoin:round; stroke-width:4; stroke-opacity:1; fill:none" points="2031.91,1386.63 2178.32,1386.63 "/>
<path clip-path="url(#clip000)" d="M2216.56 1406.32 Q2214.76 1410.95 2213.04 1412.36 Q2211.33 1413.78 2208.46 1413.78 L2205.06 1413.78 L2205.06 1410.21 L2207.56 1410.21 Q2209.32 1410.21 2210.29 1409.38 Q2211.26 1408.54 2212.44 1405.44 L2213.2 1403.5 L2202.72 1377.99 L2207.23 1377.99 L2215.33 1398.27 L2223.44 1377.99 L2227.95 1377.99 L2216.56 1406.32 Z" fill="#000000" fill-rule="nonzero" fill-opacity="1" /><path clip-path="url(#clip000)" d="M2235.24 1399.98 L2242.88 1399.98 L2242.88 1373.61 L2234.57 1375.28 L2234.57 1371.02 L2242.83 1369.35 L2247.51 1369.35 L2247.51 1399.98 L2255.15 1399.98 L2255.15 1403.91 L2235.24 1403.91 L2235.24 1399.98 Z" fill="#000000" fill-rule="nonzero" fill-opacity="1" /></svg>
