<?xml version="1.0" encoding="utf-8"?>
<svg xmlns="http://www.w3.org/2000/svg" xmlns:xlink="http://www.w3.org/1999/xlink" width="600" height="400" viewBox="0 0 2400 1600">
<defs>
  <clipPath id="clip940">
    <rect x="0" y="0" width="2400" height="1600"/>
  </clipPath>
</defs>
<path clip-path="url(#clip940)" d="M0 1600 L2400 1600 L2400 0 L0 0  Z" fill="#ffffff" fill-rule="evenodd" fill-opacity="1"/>
<defs>
  <clipPath id="clip941">
    <rect x="480" y="0" width="1681" height="1600"/>
  </clipPath>
</defs>
<path clip-path="url(#clip940)" d="M141.853 1486.45 L2352.76 1486.45 L2352.76 47.2441 L141.853 47.2441  Z" fill="#ffffff" fill-rule="evenodd" fill-opacity="1"/>
<defs>
  <clipPath id="clip942">
    <rect x="141" y="47" width="2212" height="1440"/>
  </clipPath>
</defs>
<polyline clip-path="url(#clip942)" style="stroke:#000000; stroke-linecap:round; stroke-linejoin:round; stroke-width:2; stroke-opacity:0.1; fill:none" points="204.426,1486.45 204.426,47.2441 "/>
<polyline clip-path="url(#clip942)" style="stroke:#000000; stroke-linecap:round; stroke-linejoin:round; stroke-width:2; stroke-opacity:0.1; fill:none" points="725.865,1486.45 725.865,47.2441 "/>
<polyline clip-path="url(#clip942)" style="stroke:#000000; stroke-linecap:round; stroke-linejoin:round; stroke-width:2; stroke-opacity:0.1; fill:none" points="1247.3,1486.45 1247.3,47.2441 "/>
<polyline clip-path="url(#clip942)" style="stroke:#000000; stroke-linecap:round; stroke-linejoin:round; stroke-width:2; stroke-opacity:0.1; fill:none" points="1768.74,1486.45 1768.74,47.2441 "/>
<polyline clip-path="url(#clip942)" style="stroke:#000000; stroke-linecap:round; stroke-linejoin:round; stroke-width:2; stroke-opacity:0.1; fill:none" points="2290.18,1486.45 2290.18,47.2441 "/>
<polyline clip-path="url(#clip940)" style="stroke:#000000; stroke-linecap:round; stroke-linejoin:round; stroke-width:4; stroke-opacity:1; fill:none" points="141.853,1486.45 2352.76,1486.45 "/>
<polyline clip-path="url(#clip940)" style="stroke:#000000; stroke-linecap:round; stroke-linejoin:round; stroke-width:4; stroke-opacity:1; fill:none" points="204.426,1486.45 204.426,1467.55 "/>
<polyline clip-path="url(#clip940)" style="stroke:#000000; stroke-linecap:round; stroke-linejoin:round; stroke-width:4; stroke-opacity:1; fill:none" points="725.865,1486.45 725.865,1467.55 "/>
<polyline clip-path="url(#clip940)" style="stroke:#000000; stroke-linecap:round; stroke-linejoin:round; stroke-width:4; stroke-opacity:1; fill:none" points="1247.3,1486.45 1247.3,1467.55 "/>
<polyline clip-path="url(#clip940)" style="stroke:#000000; stroke-linecap:round; stroke-linejoin:round; stroke-width:4; stroke-opacity:1; fill:none" points="1768.74,1486.45 1768.74,1467.55 "/>
<polyline clip-path="url(#clip940)" style="stroke:#000000; stroke-linecap:round; stroke-linejoin:round; stroke-width:4; stroke-opacity:1; fill:none" points="2290.18,1486.45 2290.18,1467.55 "/>
<path clip-path="url(#clip940)" d="M204.426 1517.37 Q200.815 1517.37 198.986 1520.93 Q197.18 1524.47 197.18 1531.6 Q197.18 1538.71 198.986 1542.27 Q200.815 1545.82 204.426 1545.82 Q208.06 1545.82 209.865 1542.27 Q211.694 1538.71 211.694 1531.6 Q211.694 1524.47 209.865 1520.93 Q208.06 1517.37 204.426 1517.37 M204.426 1513.66 Q210.236 1513.66 213.291 1518.27 Q216.37 1522.85 216.37 1531.6 Q216.37 1540.33 213.291 1544.94 Q210.236 1549.52 204.426 1549.52 Q198.616 1549.52 195.537 1544.94 Q192.481 1540.33 192.481 1531.6 Q192.481 1522.85 195.537 1518.27 Q198.616 1513.66 204.426 1513.66 Z" fill="#000000" fill-rule="nonzero" fill-opacity="1" /><path clip-path="url(#clip940)" d="M685.483 1514.29 L703.84 1514.29 L703.84 1518.22 L689.766 1518.22 L689.766 1526.7 Q690.784 1526.35 691.803 1526.19 Q692.821 1526 693.84 1526 Q699.627 1526 703.006 1529.17 Q706.386 1532.34 706.386 1537.76 Q706.386 1543.34 702.914 1546.44 Q699.442 1549.52 693.122 1549.52 Q690.946 1549.52 688.678 1549.15 Q686.432 1548.78 684.025 1548.04 L684.025 1543.34 Q686.108 1544.47 688.331 1545.03 Q690.553 1545.58 693.03 1545.58 Q697.034 1545.58 699.372 1543.48 Q701.71 1541.37 701.71 1537.76 Q701.71 1534.15 699.372 1532.04 Q697.034 1529.94 693.03 1529.94 Q691.155 1529.94 689.28 1530.35 Q687.428 1530.77 685.483 1531.65 L685.483 1514.29 Z" fill="#000000" fill-rule="nonzero" fill-opacity="1" /><path clip-path="url(#clip940)" d="M725.599 1517.37 Q721.988 1517.37 720.159 1520.93 Q718.354 1524.47 718.354 1531.6 Q718.354 1538.71 720.159 1542.27 Q721.988 1545.82 725.599 1545.82 Q729.233 1545.82 731.039 1542.27 Q732.867 1538.71 732.867 1531.6 Q732.867 1524.47 731.039 1520.93 Q729.233 1517.37 725.599 1517.37 M725.599 1513.66 Q731.409 1513.66 734.465 1518.27 Q737.543 1522.85 737.543 1531.6 Q737.543 1540.33 734.465 1544.94 Q731.409 1549.52 725.599 1549.52 Q719.789 1549.52 716.71 1544.94 Q713.654 1540.33 713.654 1531.6 Q713.654 1522.85 716.71 1518.27 Q719.789 1513.66 725.599 1513.66 Z" fill="#000000" fill-rule="nonzero" fill-opacity="1" /><path clip-path="url(#clip940)" d="M755.761 1517.37 Q752.15 1517.37 750.321 1520.93 Q748.515 1524.47 748.515 1531.6 Q748.515 1538.71 750.321 1542.27 Q752.15 1545.82 755.761 1545.82 Q759.395 1545.82 761.201 1542.27 Q763.029 1538.71 763.029 1531.6 Q763.029 1524.47 761.201 1520.93 Q759.395 1517.37 755.761 1517.37 M755.761 1513.66 Q761.571 1513.66 764.626 1518.27 Q767.705 1522.85 767.705 1531.6 Q767.705 1540.33 764.626 1544.94 Q761.571 1549.52 755.761 1549.52 Q749.951 1549.52 746.872 1544.94 Q743.816 1540.33 743.816 1531.6 Q743.816 1522.85 746.872 1518.27 Q749.951 1513.66 755.761 1513.66 Z" fill="#000000" fill-rule="nonzero" fill-opacity="1" /><path clip-path="url(#clip940)" d="M1191.83 1544.91 L1199.47 1544.91 L1199.47 1518.55 L1191.16 1520.21 L1191.16 1515.95 L1199.42 1514.29 L1204.1 1514.29 L1204.1 1544.91 L1211.74 1544.91 L1211.74 1548.85 L1191.83 1548.85 L1191.83 1544.91 Z" fill="#000000" fill-rule="nonzero" fill-opacity="1" /><path clip-path="url(#clip940)" d="M1231.18 1517.37 Q1227.57 1517.37 1225.74 1520.93 Q1223.94 1524.47 1223.94 1531.6 Q1223.94 1538.71 1225.74 1542.27 Q1227.57 1545.82 1231.18 1545.82 Q1234.82 1545.82 1236.62 1542.27 Q1238.45 1538.71 1238.45 1531.6 Q1238.45 1524.47 1236.62 1520.93 Q1234.82 1517.37 1231.18 1517.37 M1231.18 1513.66 Q1236.99 1513.66 1240.05 1518.27 Q1243.13 1522.85 1243.13 1531.6 Q1243.13 1540.33 1240.05 1544.94 Q1236.99 1549.52 1231.18 1549.52 Q1225.37 1549.52 1222.29 1544.94 Q1219.24 1540.33 1219.24 1531.6 Q1219.24 1522.85 1222.29 1518.27 Q1225.37 1513.66 1231.18 1513.66 Z" fill="#000000" fill-rule="nonzero" fill-opacity="1" /><path clip-path="url(#clip940)" d="M1261.34 1517.37 Q1257.73 1517.37 1255.9 1520.93 Q1254.1 1524.47 1254.1 1531.6 Q1254.1 1538.71 1255.9 1542.27 Q1257.73 1545.82 1261.34 1545.82 Q1264.98 1545.82 1266.78 1542.27 Q1268.61 1538.71 1268.61 1531.6 Q1268.61 1524.47 1266.78 1520.93 Q1264.98 1517.37 1261.34 1517.37 M1261.34 1513.66 Q1267.15 1513.66 1270.21 1518.27 Q1273.29 1522.85 1273.29 1531.6 Q1273.29 1540.33 1270.21 1544.94 Q1267.15 1549.52 1261.34 1549.52 Q1255.53 1549.52 1252.45 1544.94 Q1249.4 1540.33 1249.4 1531.6 Q1249.4 1522.85 1252.45 1518.27 Q1255.53 1513.66 1261.34 1513.66 Z" fill="#000000" fill-rule="nonzero" fill-opacity="1" /><path clip-path="url(#clip940)" d="M1291.51 1517.37 Q1287.89 1517.37 1286.07 1520.93 Q1284.26 1524.47 1284.26 1531.6 Q1284.26 1538.71 1286.07 1542.27 Q1287.89 1545.82 1291.51 1545.82 Q1295.14 1545.82 1296.95 1542.27 Q1298.77 1538.71 1298.77 1531.6 Q1298.77 1524.47 1296.95 1520.93 Q1295.14 1517.37 1291.51 1517.37 M1291.51 1513.66 Q1297.32 1513.66 1300.37 1518.27 Q1303.45 1522.85 1303.45 1531.6 Q1303.45 1540.33 1300.37 1544.94 Q1297.32 1549.52 1291.51 1549.52 Q1285.7 1549.52 1282.62 1544.94 Q1279.56 1540.33 1279.56 1531.6 Q1279.56 1522.85 1282.62 1518.27 Q1285.7 1513.66 1291.51 1513.66 Z" fill="#000000" fill-rule="nonzero" fill-opacity="1" /><path clip-path="url(#clip940)" d="M1713.27 1544.91 L1720.91 1544.91 L1720.91 1518.55 L1712.6 1520.21 L1712.6 1515.95 L1720.86 1514.29 L1725.54 1514.29 L1725.54 1544.91 L1733.18 1544.91 L1733.18 1548.85 L1713.27 1548.85 L1713.27 1544.91 Z" fill="#000000" fill-rule="nonzero" fill-opacity="1" /><path clip-path="url(#clip940)" d="M1742.67 1514.29 L1761.02 1514.29 L1761.02 1518.22 L1746.95 1518.22 L1746.95 1526.7 Q1747.97 1526.35 1748.99 1526.19 Q1750.01 1526 1751.02 1526 Q1756.81 1526 1760.19 1529.17 Q1763.57 1532.34 1763.57 1537.76 Q1763.57 1543.34 1760.1 1546.44 Q1756.63 1549.52 1750.31 1549.52 Q1748.13 1549.52 1745.86 1549.15 Q1743.62 1548.78 1741.21 1548.04 L1741.21 1543.34 Q1743.29 1544.47 1745.51 1545.03 Q1747.74 1545.58 1750.21 1545.58 Q1754.22 1545.58 1756.56 1543.48 Q1758.89 1541.37 1758.89 1537.76 Q1758.89 1534.15 1756.56 1532.04 Q1754.22 1529.94 1750.21 1529.94 Q1748.34 1529.94 1746.46 1530.35 Q1744.61 1530.77 1742.67 1531.65 L1742.67 1514.29 Z" fill="#000000" fill-rule="nonzero" fill-opacity="1" /><path clip-path="url(#clip940)" d="M1782.78 1517.37 Q1779.17 1517.37 1777.34 1520.93 Q1775.54 1524.47 1775.54 1531.6 Q1775.54 1538.71 1777.34 1542.27 Q1779.17 1545.82 1782.78 1545.82 Q1786.42 1545.82 1788.22 1542.27 Q1790.05 1538.71 1790.05 1531.6 Q1790.05 1524.47 1788.22 1520.93 Q1786.42 1517.37 1782.78 1517.37 M1782.78 1513.66 Q1788.59 1513.66 1791.65 1518.27 Q1794.73 1522.85 1794.73 1531.6 Q1794.73 1540.33 1791.65 1544.94 Q1788.59 1549.52 1782.78 1549.52 Q1776.97 1549.52 1773.89 1544.94 Q1770.84 1540.33 1770.84 1531.6 Q1770.84 1522.85 1773.89 1518.27 Q1776.97 1513.66 1782.78 1513.66 Z" fill="#000000" fill-rule="nonzero" fill-opacity="1" /><path clip-path="url(#clip940)" d="M1812.94 1517.37 Q1809.33 1517.37 1807.51 1520.93 Q1805.7 1524.47 1805.7 1531.6 Q1805.7 1538.71 1807.51 1542.27 Q1809.33 1545.82 1812.94 1545.82 Q1816.58 1545.82 1818.38 1542.27 Q1820.21 1538.71 1820.21 1531.6 Q1820.21 1524.47 1818.38 1520.93 Q1816.58 1517.37 1812.94 1517.37 M1812.94 1513.66 Q1818.76 1513.66 1821.81 1518.27 Q1824.89 1522.85 1824.89 1531.6 Q1824.89 1540.33 1821.81 1544.94 Q1818.76 1549.52 1812.94 1549.52 Q1807.13 1549.52 1804.06 1544.94 Q1801 1540.33 1801 1531.6 Q1801 1522.85 1804.06 1518.27 Q1807.13 1513.66 1812.94 1513.66 Z" fill="#000000" fill-rule="nonzero" fill-opacity="1" /><path clip-path="url(#clip940)" d="M2238.79 1544.91 L2255.11 1544.91 L2255.11 1548.85 L2233.17 1548.85 L2233.17 1544.91 Q2235.83 1542.16 2240.41 1537.53 Q2245.02 1532.88 2246.2 1531.53 Q2248.45 1529.01 2249.33 1527.27 Q2250.23 1525.51 2250.23 1523.82 Q2250.23 1521.07 2248.29 1519.33 Q2246.36 1517.6 2243.26 1517.6 Q2241.06 1517.6 2238.61 1518.36 Q2236.18 1519.13 2233.4 1520.68 L2233.4 1515.95 Q2236.23 1514.82 2238.68 1514.24 Q2241.13 1513.66 2243.17 1513.66 Q2248.54 1513.66 2251.73 1516.35 Q2254.93 1519.03 2254.93 1523.52 Q2254.93 1525.65 2254.12 1527.57 Q2253.33 1529.47 2251.23 1532.07 Q2250.65 1532.74 2247.54 1535.95 Q2244.44 1539.15 2238.79 1544.91 Z" fill="#000000" fill-rule="nonzero" fill-opacity="1" /><path clip-path="url(#clip940)" d="M2274.93 1517.37 Q2271.32 1517.37 2269.49 1520.93 Q2267.68 1524.47 2267.68 1531.6 Q2267.68 1538.71 2269.49 1542.27 Q2271.32 1545.82 2274.93 1545.82 Q2278.56 1545.82 2280.37 1542.27 Q2282.2 1538.71 2282.2 1531.6 Q2282.2 1524.47 2280.37 1520.93 Q2278.56 1517.37 2274.93 1517.37 M2274.93 1513.66 Q2280.74 1513.66 2283.79 1518.27 Q2286.87 1522.85 2286.87 1531.6 Q2286.87 1540.33 2283.79 1544.94 Q2280.74 1549.52 2274.93 1549.52 Q2269.12 1549.52 2266.04 1544.94 Q2262.98 1540.33 2262.98 1531.6 Q2262.98 1522.85 2266.04 1518.27 Q2269.12 1513.66 2274.93 1513.66 Z" fill="#000000" fill-rule="nonzero" fill-opacity="1" /><path clip-path="url(#clip940)" d="M2305.09 1517.37 Q2301.48 1517.37 2299.65 1520.93 Q2297.85 1524.47 2297.85 1531.6 Q2297.85 1538.71 2299.65 1542.27 Q2301.48 1545.82 2305.09 1545.82 Q2308.72 1545.82 2310.53 1542.27 Q2312.36 1538.71 2312.36 1531.6 Q2312.36 1524.47 2310.53 1520.93 Q2308.72 1517.37 2305.09 1517.37 M2305.09 1513.66 Q2310.9 1513.66 2313.96 1518.27 Q2317.03 1522.85 2317.03 1531.6 Q2317.03 1540.33 2313.96 1544.94 Q2310.9 1549.52 2305.09 1549.52 Q2299.28 1549.52 2296.2 1544.94 Q2293.15 1540.33 2293.15 1531.6 Q2293.15 1522.85 2296.2 1518.27 Q2299.28 1513.66 2305.09 1513.66 Z" fill="#000000" fill-rule="nonzero" fill-opacity="1" /><path clip-path="url(#clip940)" d="M2335.25 1517.37 Q2331.64 1517.37 2329.81 1520.93 Q2328.01 1524.47 2328.01 1531.6 Q2328.01 1538.71 2329.81 1542.27 Q2331.64 1545.82 2335.25 1545.82 Q2338.89 1545.82 2340.69 1542.27 Q2342.52 1538.71 2342.52 1531.6 Q2342.52 1524.47 2340.69 1520.93 Q2338.89 1517.37 2335.25 1517.37 M2335.25 1513.66 Q2341.06 1513.66 2344.12 1518.27 Q2347.2 1522.85 2347.2 1531.6 Q2347.2 1540.33 2344.12 1544.94 Q2341.06 1549.52 2335.25 1549.52 Q2329.44 1549.52 2326.36 1544.94 Q2323.31 1540.33 2323.31 1531.6 Q2323.31 1522.85 2326.36 1518.27 Q2329.44 1513.66 2335.25 1513.66 Z" fill="#000000" fill-rule="nonzero" fill-opacity="1" /><polyline clip-path="url(#clip942)" style="stroke:#000000; stroke-linecap:round; stroke-linejoin:round; stroke-width:2; stroke-opacity:0.1; fill:none" points="141.853,1197.53 2352.76,1197.53 "/>
<polyline clip-path="url(#clip942)" style="stroke:#000000; stroke-linecap:round; stroke-linejoin:round; stroke-width:2; stroke-opacity:0.1; fill:none" points="141.853,888.056 2352.76,888.056 "/>
<polyline clip-path="url(#clip942)" style="stroke:#000000; stroke-linecap:round; stroke-linejoin:round; stroke-width:2; stroke-opacity:0.1; fill:none" points="141.853,578.582 2352.76,578.582 "/>
<polyline clip-path="url(#clip942)" style="stroke:#000000; stroke-linecap:round; stroke-linejoin:round; stroke-width:2; stroke-opacity:0.1; fill:none" points="141.853,269.108 2352.76,269.108 "/>
<polyline clip-path="url(#clip940)" style="stroke:#000000; stroke-linecap:round; stroke-linejoin:round; stroke-width:4; stroke-opacity:1; fill:none" points="141.853,1486.45 141.853,47.2441 "/>
<polyline clip-path="url(#clip940)" style="stroke:#000000; stroke-linecap:round; stroke-linejoin:round; stroke-width:4; stroke-opacity:1; fill:none" points="141.853,1197.53 160.751,1197.53 "/>
<polyline clip-path="url(#clip940)" style="stroke:#000000; stroke-linecap:round; stroke-linejoin:round; stroke-width:4; stroke-opacity:1; fill:none" points="141.853,888.056 160.751,888.056 "/>
<polyline clip-path="url(#clip940)" style="stroke:#000000; stroke-linecap:round; stroke-linejoin:round; stroke-width:4; stroke-opacity:1; fill:none" points="141.853,578.582 160.751,578.582 "/>
<polyline clip-path="url(#clip940)" style="stroke:#000000; stroke-linecap:round; stroke-linejoin:round; stroke-width:4; stroke-opacity:1; fill:none" points="141.853,269.108 160.751,269.108 "/>
<path clip-path="url(#clip940)" d="M54.5569 1210.88 L62.1958 1210.88 L62.1958 1184.51 L53.8856 1186.18 L53.8856 1181.92 L62.1495 1180.25 L66.8254 1180.25 L66.8254 1210.88 L74.4642 1210.88 L74.4642 1214.81 L54.5569 1214.81 L54.5569 1210.88 Z" fill="#000000" fill-rule="nonzero" fill-opacity="1" /><path clip-path="url(#clip940)" d="M93.9086 1183.33 Q90.2975 1183.33 88.4688 1186.89 Q86.6632 1190.44 86.6632 1197.57 Q86.6632 1204.67 88.4688 1208.24 Q90.2975 1211.78 93.9086 1211.78 Q97.5428 1211.78 99.3483 1208.24 Q101.177 1204.67 101.177 1197.57 Q101.177 1190.44 99.3483 1186.89 Q97.5428 1183.33 93.9086 1183.33 M93.9086 1179.63 Q99.7187 1179.63 102.774 1184.23 Q105.853 1188.82 105.853 1197.57 Q105.853 1206.29 102.774 1210.9 Q99.7187 1215.48 93.9086 1215.48 Q88.0984 1215.48 85.0197 1210.9 Q81.9642 1206.29 81.9642 1197.57 Q81.9642 1188.82 85.0197 1184.23 Q88.0984 1179.63 93.9086 1179.63 Z" fill="#000000" fill-rule="nonzero" fill-opacity="1" /><path clip-path="url(#clip940)" d="M57.7745 901.401 L74.0939 901.401 L74.0939 905.336 L52.1495 905.336 L52.1495 901.401 Q54.8115 898.647 59.3949 894.017 Q64.0013 889.364 65.1819 888.022 Q67.4272 885.499 68.3068 883.763 Q69.2096 882.003 69.2096 880.313 Q69.2096 877.559 67.2652 875.823 Q65.3439 874.087 62.2421 874.087 Q60.043 874.087 57.5893 874.851 Q55.1588 875.614 52.381 877.165 L52.381 872.443 Q55.2051 871.309 57.6588 870.73 Q60.1124 870.151 62.1495 870.151 Q67.5198 870.151 70.7142 872.837 Q73.9087 875.522 73.9087 880.013 Q73.9087 882.142 73.0985 884.063 Q72.3115 885.962 70.205 888.554 Q69.6263 889.225 66.5245 892.443 Q63.4226 895.637 57.7745 901.401 Z" fill="#000000" fill-rule="nonzero" fill-opacity="1" /><path clip-path="url(#clip940)" d="M93.9086 873.855 Q90.2975 873.855 88.4688 877.42 Q86.6632 880.962 86.6632 888.091 Q86.6632 895.198 88.4688 898.762 Q90.2975 902.304 93.9086 902.304 Q97.5428 902.304 99.3483 898.762 Q101.177 895.198 101.177 888.091 Q101.177 880.962 99.3483 877.42 Q97.5428 873.855 93.9086 873.855 M93.9086 870.151 Q99.7187 870.151 102.774 874.758 Q105.853 879.341 105.853 888.091 Q105.853 896.818 102.774 901.424 Q99.7187 906.008 93.9086 906.008 Q88.0984 906.008 85.0197 901.424 Q81.9642 896.818 81.9642 888.091 Q81.9642 879.341 85.0197 874.758 Q88.0984 870.151 93.9086 870.151 Z" fill="#000000" fill-rule="nonzero" fill-opacity="1" /><path clip-path="url(#clip940)" d="M67.9133 577.228 Q71.2698 577.946 73.1448 580.214 Q75.0429 582.483 75.0429 585.816 Q75.0429 590.932 71.5244 593.733 Q68.0059 596.534 61.5245 596.534 Q59.3486 596.534 57.0338 596.094 Q54.7421 595.677 52.2884 594.821 L52.2884 590.307 Q54.2328 591.441 56.5477 592.02 Q58.8625 592.599 61.3856 592.599 Q65.7837 592.599 68.0754 590.862 Q70.3902 589.126 70.3902 585.816 Q70.3902 582.761 68.2374 581.048 Q66.1078 579.312 62.2884 579.312 L58.2606 579.312 L58.2606 575.469 L62.4735 575.469 Q65.9226 575.469 67.7513 574.103 Q69.58 572.714 69.58 570.122 Q69.58 567.46 67.6819 566.048 Q65.8069 564.613 62.2884 564.613 Q60.3671 564.613 58.168 565.029 Q55.969 565.446 53.3301 566.326 L53.3301 562.159 Q55.9921 561.418 58.3069 561.048 Q60.6449 560.677 62.705 560.677 Q68.0291 560.677 71.1309 563.108 Q74.2327 565.515 74.2327 569.636 Q74.2327 572.506 72.5892 574.497 Q70.9457 576.464 67.9133 577.228 Z" fill="#000000" fill-rule="nonzero" fill-opacity="1" /><path clip-path="url(#clip940)" d="M93.9086 564.381 Q90.2975 564.381 88.4688 567.946 Q86.6632 571.488 86.6632 578.617 Q86.6632 585.724 88.4688 589.288 Q90.2975 592.83 93.9086 592.83 Q97.5428 592.83 99.3483 589.288 Q101.177 585.724 101.177 578.617 Q101.177 571.488 99.3483 567.946 Q97.5428 564.381 93.9086 564.381 M93.9086 560.677 Q99.7187 560.677 102.774 565.284 Q105.853 569.867 105.853 578.617 Q105.853 587.344 102.774 591.95 Q99.7187 596.534 93.9086 596.534 Q88.0984 596.534 85.0197 591.95 Q81.9642 587.344 81.9642 578.617 Q81.9642 569.867 85.0197 565.284 Q88.0984 560.677 93.9086 560.677 Z" fill="#000000" fill-rule="nonzero" fill-opacity="1" /><path clip-path="url(#clip940)" d="M66.5939 255.902 L54.7884 274.351 L66.5939 274.351 L66.5939 255.902 M65.367 251.828 L71.2466 251.828 L71.2466 274.351 L76.1772 274.351 L76.1772 278.24 L71.2466 278.24 L71.2466 286.388 L66.5939 286.388 L66.5939 278.24 L50.9921 278.24 L50.9921 273.726 L65.367 251.828 Z" fill="#000000" fill-rule="nonzero" fill-opacity="1" /><path clip-path="url(#clip940)" d="M93.9086 254.907 Q90.2975 254.907 88.4688 258.472 Q86.6632 262.014 86.6632 269.143 Q86.6632 276.25 88.4688 279.814 Q90.2975 283.356 93.9086 283.356 Q97.5428 283.356 99.3483 279.814 Q101.177 276.25 101.177 269.143 Q101.177 262.014 99.3483 258.472 Q97.5428 254.907 93.9086 254.907 M93.9086 251.203 Q99.7187 251.203 102.774 255.81 Q105.853 260.393 105.853 269.143 Q105.853 277.87 102.774 282.476 Q99.7187 287.06 93.9086 287.06 Q88.0984 287.06 85.0197 282.476 Q81.9642 277.87 81.9642 269.143 Q81.9642 260.393 85.0197 255.81 Q88.0984 251.203 93.9086 251.203 Z" fill="#000000" fill-rule="nonzero" fill-opacity="1" /><polyline clip-path="url(#clip942)" style="stroke:#009af9; stroke-linecap:round; stroke-linejoin:round; stroke-width:4; stroke-opacity:1; fill:none" points="204.426,1427.61 205.469,1427.88 206.511,1386.9 207.554,1387.45 208.597,1399.6 209.64,1400.01 210.683,1372.51 211.726,1373.27 212.769,1374.91 213.812,1375.91 214.854,1403.86 215.897,1404.28 216.94,1433.71 217.983,1434.17 219.026,1366.33 220.069,1366.87 221.112,1418.68 222.155,1419.22 223.197,1413.32 224.24,1413.78 225.283,1406.59 226.326,1407.03 227.369,1407.98 228.412,1408.32 229.455,1416.53 230.498,1417.07 231.541,1401.1 232.583,1401.54 233.626,1420.04 234.669,1420.35 235.712,1378.23 236.755,1378.69 237.798,1432.36 238.841,1432.61 239.884,1389.8 240.926,1390.23 241.969,1385.73 243.012,1386.22 244.055,1407.51 245.098,1407.92 246.141,1367.19 247.184,1367.78 248.227,1410.64 249.269,1410.93 250.312,1362.03 251.355,1362.43 252.398,1395.72 253.441,1396.08 254.484,1377.99 255.527,1378.35 256.57,1395.09 257.612,1395.45 258.655,1412.33 259.698,1412.72 260.741,1384 261.784,1384.48 262.827,1306.82 263.87,1307.42 264.913,1380.11 265.956,1380.5 266.998,1396.29 268.041,1396.65 269.084,1384.71 270.127,1385.06 271.17,1424.51 272.213,1424.88 273.256,1397 274.299,1397.29 275.341,1414.28 276.384,1414.51 277.427,1335.54 278.47,1336.04 279.513,1417.13 280.556,1417.36 281.599,1406.47 282.642,1406.72 283.684,1420.14 284.727,1420.3 285.77,1382.52 286.813,1382.93 287.856,1445.6 288.899,1445.72 289.942,1342.95 290.985,1343.43 292.027,1398.07 293.07,1398.3 294.113,1367.66 295.156,1368.14 296.199,1364.37 297.242,1364.66 298.285,1320.35 299.328,1320.93 300.371,1379.8 301.413,1380.17 302.456,1392.29 303.499,1392.54 304.542,1365.75 305.585,1366.11 306.628,1428.7 307.671,1428.94 308.714,1425.06 309.756,1425.24 310.799,1430.05 311.842,1430.24 312.885,1383.64 313.928,1383.96 314.971,1382.5 316.014,1382.85 317.057,1398.47 318.099,1398.69 319.142,1388.95 320.185,1389.38 321.228,1387.23 322.271,1387.53 323.314,1319.73 324.357,1320.26 325.4,1362.96 326.442,1363.39 327.485,1360.81 328.528,1361.14 329.571,1375.61 330.614,1376.07 331.657,1374.71 332.7,1374.95 333.743,1326.69 334.786,1327.01 335.828,1383.67 336.871,1384.04 337.914,1421.25 338.957,1421.47 340,1336.19 341.043,1336.52 342.086,1310.32 343.129,1310.83 344.171,1335.59 345.214,1335.98 346.257,1410.8 347.3,1410.99 348.343,1353.95 349.386,1354.32 350.429,1358.68 351.472,1359.17 352.514,1319.88 353.557,1320.3 354.6,1382.2 355.643,1382.55 356.686,1392.73 357.729,1392.91 358.772,1342.97 359.815,1343.37 360.857,1359.24 361.9,1359.57 362.943,1359.13 363.986,1359.45 365.029,1306.51 366.072,1307.09 367.115,1369.72 368.158,1370.06 369.201,1332.66 370.243,1333.06 371.286,1353.77 372.329,1354.1 373.372,1356.56 374.415,1356.85 375.458,1346.38 376.501,1346.74 377.544,1338.06 378.586,1338.34 379.629,1386.39 380.672,1386.55 381.715,1324.45 382.758,1324.83 383.801,1381.89 384.844,1382.14 385.887,1361.97 386.929,1362.21 387.972,1326.13 389.015,1326.54 390.058,1356.98 391.101,1357.21 392.144,1340.61 393.187,1340.91 394.23,1360.84 395.272,1361.16 396.315,1356.33 397.358,1356.7 398.401,1345.38 399.444,1345.78 400.487,1340.96 401.53,1341.33 402.573,1377.04 403.616,1377.21 404.658,1361.29 405.701,1361.53 406.744,1334.05 407.787,1334.35 408.83,1381.42 409.873,1381.65 410.916,1349.3 411.959,1349.6 413.001,1362.31 414.044,1362.54 415.087,1335.77 416.13,1336.32 417.173,1286.05 418.216,1286.62 419.259,1282.01 420.302,1282.66 421.344,1328.08 422.387,1328.46 423.43,1343.78 424.473,1344.08 425.516,1346.22 426.559,1346.49 427.602,1345.78 428.645,1346.04 429.687,1368.58 430.73,1368.83 431.773,1322.12 432.816,1322.74 433.859,1364.74 434.902,1364.89 435.945,1296.89 436.988,1297.45 438.031,1269.58 439.073,1270.26 440.116,1347.74 441.159,1348.15 442.202,1262.47 443.245,1263.08 444.288,1334.19 445.331,1334.65 446.374,1363.5 447.416,1363.79 448.459,1397.91 449.502,1398.08 450.545,1319.34 451.588,1319.65 452.631,1329.59 453.674,1329.96 454.717,1367.11 455.759,1367.36 456.802,1353.16 457.845,1353.47 458.888,1321.34 459.931,1321.61 460.974,1366.57 462.017,1366.74 463.06,1341.31 464.102,1341.7 465.145,1372.54 466.188,1372.75 467.231,1280 468.274,1280.45 469.317,1345.57 470.36,1345.81 471.403,1292.74 472.446,1293.47 473.488,1323.59 474.531,1323.83 475.574,1308.5 476.617,1309.01 477.66,1350.5 478.703,1350.76 479.746,1367.42 480.789,1367.58 481.831,1341.29 482.874,1341.6 483.917,1324.3 484.96,1324.66 486.003,1343.15 487.046,1343.43 488.089,1363.23 489.132,1363.48 490.174,1296.6 491.217,1296.91 492.26,1301.36 493.303,1301.75 494.346,1330.94 495.389,1331.25 496.432,1309.81 497.475,1310.15 498.517,1310.62 499.56,1311.14 500.603,1266.4 501.646,1267.1 502.689,1325.12 503.732,1325.32 504.775,1252.27 505.818,1252.79 506.861,1245.05 507.903,1245.76 508.946,1272.75 509.989,1273.11 511.032,1300.21 512.075,1300.63 513.118,1290.9 514.161,1291.19 515.204,1296.89 516.246,1297.24 517.289,1194.45 518.332,1195.59 519.375,1261.81 520.418,1262.24 521.461,1286.8 522.504,1287.18 523.547,1302.18 524.589,1302.56 525.632,1331.47 526.675,1331.85 527.718,1262.49 528.761,1262.92 529.804,1299.55 530.847,1299.84 531.89,1289.78 532.932,1290.24 533.975,1289.29 535.018,1289.79 536.061,1235.05 537.104,1235.67 538.147,1271.57 539.19,1272.15 540.233,1255.15 541.276,1255.65 542.318,1249.95 543.361,1250.34 544.404,1302.15 545.447,1302.4 546.49,1275.24 547.533,1275.53 548.576,1275.62 549.619,1276.01 550.661,1239.01 551.704,1239.81 552.747,1265.51 553.79,1266.13 554.833,1152.01 555.876,1153.03 556.919,1163.68 557.962,1164.59 559.004,1289.6 560.047,1289.89 561.09,1248.1 562.133,1248.53 563.176,1225.95 564.219,1226.53 565.262,1209.84 566.305,1210.83 567.347,1207.68 568.39,1208.36 569.433,1237.67 570.476,1238.21 571.519,1211.05 572.562,1212.07 573.605,1240.39 574.648,1240.75 575.691,1165.32 576.733,1166 577.776,1233.6 578.819,1234.17 579.862,1227.49 580.905,1228.01 581.948,1150.03 582.991,1150.9 584.034,1209.38 585.076,1209.86 586.119,1232.96 587.162,1233.5 588.205,1253.72 589.248,1254.05 590.291,1229.25 591.334,1229.86 592.377,1167.22 593.419,1167.84 594.462,1175.34 595.505,1175.88 596.548,1263.75 597.591,1264.25 598.634,1235.75 599.677,1236.26 600.72,1215.91 601.762,1216.44 602.805,1193.3 603.848,1194.25 604.891,1168.4 605.934,1169.14 606.977,1172.21 608.02,1173.01 609.063,1152.02 610.106,1152.74 611.148,1237.4 612.191,1237.75 613.234,1119.18 614.277,1120.02 615.32,1164.05 616.363,1164.61 617.406,1163.48 618.449,1164.11 619.491,1117.98 620.534,1119.15 621.577,1159.08 622.62,1159.81 623.663,1134.9 624.706,1135.74 625.749,1154.92 626.792,1155.4 627.834,1170.47 628.877,1170.86 629.92,1138.31 630.963,1139.29 632.006,1175.11 633.049,1175.93 634.092,1090.03 635.135,1090.91 636.177,1103.91 637.22,1104.83 638.263,1101.55 639.306,1102.2 640.349,1068.95 641.392,1069.83 642.435,1093.53 643.478,1094.46 644.521,1125.86 645.563,1126.67 646.606,1137.13 647.649,1138 648.692,1025.95 649.735,1027.96 650.778,1088.29 651.821,1089.08 652.864,1111.03 653.906,1111.72 654.949,1091.48 655.992,1092.25 657.035,1110.06 658.078,1110.95 659.121,1090.51 660.164,1091.09 661.207,1096.6 662.249,1097.23 663.292,1086.69 664.335,1087.27 665.378,1131.78 666.421,1132.23 667.464,1087.09 668.507,1087.96 669.55,1024.26 670.592,1025.12 671.635,1037.72 672.678,1038.78 673.721,1105.74 674.764,1106.27 675.807,1039.89 676.85,1040.79 677.893,1044.33 678.936,1045.22 679.978,1074.36 681.021,1075.16 682.064,1010.09 683.107,1011.66 684.15,1044.56 685.193,1045.35 686.236,1079.96 687.279,1080.51 688.321,997.946 689.364,998.775 690.407,1038.35 691.45,1039.3 692.493,975.225 693.536,976.505 694.579,1053.48 695.622,1054.33 696.664,1046.75 697.707,1047.35 698.75,989.618 699.793,990.638 700.836,1012.38 701.879,1013.33 702.922,1100.54 703.965,1101.18 705.007,967.323 706.05,968.355 707.093,1065.73 708.136,1066.24 709.179,962.268 710.222,963.414 711.265,946.181 712.308,947.52 713.351,976.778 714.393,977.718 715.436,950.18 716.479,951.146 717.522,884.622 718.565,886.939 719.608,935.167 720.651,936.184 721.694,949.578 722.736,950.514 723.779,983.79 724.822,984.964 725.865,976.183 726.908,976.833 727.951,1056.62 728.994,1057.2 730.037,861.306 731.079,862.68 732.122,925.355 733.165,926.511 734.208,915.268 735.251,916.354 736.294,830.289 737.337,832.595 738.38,879.94 739.422,881.348 740.465,900.204 741.508,901.271 742.551,892.021 743.594,894.156 744.637,905.428 745.68,906.14 746.723,929.775 747.766,930.598 748.808,991.585 749.851,992.294 750.894,911.301 751.937,912.049 752.98,909.242 754.023,910.166 755.066,870.184 756.109,870.954 757.151,870.369 758.194,871.617 759.237,921.389 760.28,922.516 761.323,844.752 762.366,845.917 763.409,879.087 764.452,880.072 765.494,830.995 766.537,832.305 767.58,852.106 768.623,852.988 769.666,828.229 770.709,829.752 771.752,833.224 772.795,834.1 773.837,791.956 774.88,793.334 775.923,904.474 776.966,904.994 778.009,738.967 779.052,741.333 780.095,865.815 781.138,866.534 782.18,813.086 783.223,814.313 784.266,860.061 785.309,861.135 786.352,885.275 787.395,886.402 788.438,808.54 789.481,809.685 790.524,851.646 791.566,852.377 792.609,859.588 793.652,860.183 794.695,819.775 795.738,820.853 796.781,810.211 797.824,811.362 798.867,887.481 799.909,888.268 800.952,846.771 801.995,847.593 803.038,883.753 804.081,884.715 805.124,798.682 806.167,799.91 807.21,807.25 808.252,808.013 809.295,834.585 810.338,835.097 811.381,785.387 812.424,787.62 813.467,816.794 814.51,817.775 815.553,778.232 816.595,779.617 817.638,824.51 818.681,825.253 819.724,740.987 820.767,742.365 821.81,842.068 822.853,842.879 823.896,736.972 824.939,738.241 825.981,795.89 827.024,796.737 828.067,778.989 829.11,780.163 830.153,714.594 831.196,716.046 832.239,775.322 833.282,776.481 834.324,811.629 835.367,812.366 836.41,770.616 837.453,771.421 838.496,790.7 839.539,791.698 840.582,694.351 841.625,695.647 842.667,655.445 843.71,657.764 844.753,721.147 845.796,722.608 846.839,734.14 847.882,735.39 848.925,781.05 849.968,782.368 851.01,744.102 852.053,745.279 853.096,658.448 854.139,660.002 855.182,749.159 856.225,750.097 857.268,782.476 858.311,783.336 859.354,690.627 860.396,691.773 861.439,680.799 862.482,682.439 863.525,709.142 864.568,709.935 865.611,692.776 866.654,693.78 867.697,636.579 868.739,638.279 869.782,685.981 870.825,687.142 871.868,621.449 872.911,623.826 873.954,688.089 874.997,689.104 876.04,596.751 877.082,599.367 878.125,581.253 879.168,582.847 880.211,509.364 881.254,511.225 882.297,640.694 883.34,641.998 884.383,564.842 885.425,566.607 886.468,590.713 887.511,592.85 888.554,494.451 889.597,497.301 890.64,561.343 891.683,563.698 892.726,558.119 893.769,559.411 894.811,545.737 895.854,548.755 896.897,545.181 897.94,547.084 898.983,563.896 900.026,565.424 901.069,594.92 902.112,596.504 903.154,620.744 904.197,622.704 905.24,477.144 906.283,479.296 907.326,549.727 908.369,551.988 909.412,595.74 910.455,597.292 911.497,504.306 912.54,506.43 913.583,496.348 914.626,498.351 915.669,535.807 916.712,536.952 917.755,423.168 918.798,424.368 919.84,405.218 920.883,407.668 921.926,484.538 922.969,486.097 924.012,458.506 925.055,459.999 926.098,450.108 927.141,451.006 928.184,471.622 929.226,472.59 930.269,499.309 931.312,501.354 932.355,435.686 933.398,437.604 934.441,479.917 935.484,481.249 936.527,534.795 937.569,536.342 938.612,447.909 939.655,448.993 940.698,388.663 941.741,390.382 942.784,449.042 943.827,450.781 944.87,572.692 945.912,573.756 946.955,461.535 947.998,462.735 949.041,393.247 950.084,394.961 951.127,460.194 952.17,461.785 953.213,463.812 954.255,465.007 955.298,443.393 956.341,444.961 957.384,374.155 958.427,375.46 959.47,448.884 960.513,450.788 961.556,431.043 962.599,432.221 963.641,370.857 964.684,371.938 965.727,455.548 966.77,457.475 967.813,372.478 968.856,374.225 969.899,311.579 970.942,315.685 971.984,477.47 973.027,478.764 974.07,384.423 975.113,386.867 976.156,364.586 977.199,367.648 978.242,438.44 979.285,441.308 980.327,419.783 981.37,421.428 982.413,400.279 983.456,401.403 984.499,440.562 985.542,442.361 986.585,466.198 987.628,467.584 988.67,412.795 989.713,414.047 990.756,402.674 991.799,406.004 992.842,401.589 993.885,403.152 994.928,357.247 995.971,358.7 997.014,377.901 998.056,379.16 999.099,442.792 1000.14,444.272 1001.19,312.941 1002.23,313.898 1003.27,397.788 1004.31,399.243 1005.36,313.036 1006.4,314.442 1007.44,389.209 1008.49,390.103 1009.53,418.147 1010.57,419.008 1011.61,357.134 1012.66,359.021 1013.7,397.949 1014.74,399.828 1015.79,346.942 1016.83,348.932 1017.87,312.248 1018.91,315.547 1019.96,373.023 1021,373.98 1022.04,384.064 1023.09,384.915 1024.13,322.717 1025.17,325.989 1026.21,362.525 1027.26,363.431 1028.3,344.673 1029.34,346.145 1030.39,288.991 1031.43,290.587 1032.47,343.182 1033.51,344.544 1034.56,347.807 1035.6,349.403 1036.64,332.743 1037.69,334.393 1038.73,313.753 1039.77,315.117 1040.81,290.994 1041.86,292.708 1042.9,266.632 1043.94,268.734 1044.99,320.565 1046.03,322.836 1047.07,296.633 1048.11,298.985 1049.16,313.173 1050.2,315.108 1051.24,270.628 1052.29,273.73 1053.33,317.087 1054.37,318.877 1055.41,295.556 1056.46,297.758 1057.5,267.329 1058.54,269.689 1059.59,354.02 1060.63,356.553 1061.67,308.242 1062.71,310.647 1063.76,320.374 1064.8,324.212 1065.84,257.028 1066.89,260.225 1067.93,324.689 1068.97,326.23 1070.02,291.981 1071.06,294.135 1072.1,307.645 1073.14,309.86 1074.19,264.796 1075.23,267.064 1076.27,307.311 1077.32,309.911 1078.36,285.642 1079.4,287.698 1080.44,304.586 1081.49,306.088 1082.53,296.21 1083.57,297.776 1084.62,275.367 1085.66,277.227 1086.7,299.819 1087.74,301.747 1088.79,355.803 1089.83,359.54 1090.87,242.014 1091.92,244.706 1092.96,305.574 1094,306.943 1095.04,274.274 1096.09,278.824 1097.13,280.051 1098.17,283.534 1099.22,246.326 1100.26,247.458 1101.3,244.797 1102.34,246.313 1103.39,316.759 1104.43,317.603 1105.47,308.543 1106.52,310.915 1107.56,260.737 1108.6,262.328 1109.64,259.693 1110.69,261.724 1111.73,281.779 1112.77,283.183 1113.82,316.142 1114.86,317.743 1115.9,286.182 1116.94,287.256 1117.99,269.758 1119.03,271.219 1120.07,236.22 1121.12,238.229 1122.16,305.235 1123.2,306.631 1124.24,295.734 1125.29,297.297 1126.33,231.452 1127.37,232.988 1128.42,256.26 1129.46,259.03 1130.5,271.402 1131.54,273.565 1132.59,225.39 1133.63,226.525 1134.67,239.635 1135.72,242.301 1136.76,149.019 1137.8,151.668 1138.85,273.183 1139.89,275.357 1140.93,186.654 1141.97,189.43 1143.02,237.82 1144.06,238.789 1145.1,207.984 1146.15,209.967 1147.19,240.932 1148.23,243.526 1149.27,238.125 1150.32,242.796 1151.36,218.858 1152.4,220.855 1153.45,262.809 1154.49,264.46 1155.53,271.859 1156.57,274.951 1157.62,229.228 1158.66,231.359 1159.7,230.683 1160.75,232.307 1161.79,238.787 1162.83,242.132 1163.87,244.438 1164.92,246.567 1165.96,249.6 1167,252.406 1168.05,182.351 1169.09,184.804 1170.13,220.484 1171.17,222.4 1172.22,252.167 1173.26,253.853 1174.3,225.264 1175.35,226.646 1176.39,208.644 1177.43,211.128 1178.47,242.273 1179.52,245.335 1180.56,180.008 1181.6,180.878 1182.65,234.66 1183.69,237.427 1184.73,259.075 1185.77,260.302 1186.82,264.04 1187.86,266.26 1188.9,268.099 1189.95,269.355 1190.99,226.999 1192.03,228.712 1193.07,223.914 1194.12,224.878 1195.16,252.683 1196.2,255.262 1197.25,237.157 1198.29,239.74 1199.33,196.268 1200.37,199.862 1201.42,235.077 1202.46,236.498 1203.5,232.068 1204.55,233.116 1205.59,177.672 1206.63,179.171 1207.68,249.247 1208.72,250.744 1209.76,200.747 1210.8,202.427 1211.85,287.918 1212.89,290.556 1213.93,235.227 1214.98,236.558 1216.02,222.496 1217.06,225.376 1218.1,228.212 1219.15,230.54 1220.19,192.416 1221.23,194.531 1222.28,242.449 1223.32,243.646 1224.36,221.813 1225.4,223.867 1226.45,235.515 1227.49,238.493 1228.53,227.846 1229.58,230.523 1230.62,243.049 1231.66,244.251 1232.7,227.235 1233.75,230.09 1234.79,179.492 1235.83,181.077 1236.88,198.15 1237.92,200.535 1238.96,254.671 1240,256.824 1241.05,229.969 1242.09,231.293 1243.13,296.281 1244.18,297.307 1245.22,226.833 1246.26,228.721 1247.3,238.02 1248.35,239.626 1249.39,229.641 1250.43,232.273 1251.48,255.193 1252.52,257.99 1253.56,212.071 1254.6,214.562 1255.65,187.94 1256.69,190.79 1257.73,190.666 1258.78,192.715 1259.82,274.387 1260.86,275.896 1261.9,220.517 1262.95,224.772 1263.99,169.548 1265.03,171.355 1266.08,176.06 1267.12,177.769 1268.16,221.437 1269.2,223.432 1270.25,245.473 1271.29,247.899 1272.33,225.768 1273.38,228.853 1274.42,222.193 1275.46,225.006 1276.51,215.729 1277.55,217.403 1278.59,190.909 1279.63,192.389 1280.68,241.025 1281.72,242.461 1282.76,187.532 1283.81,188.782 1284.85,222.636 1285.89,224.272 1286.93,222.775 1287.98,224.568 1289.02,198.178 1290.06,199.137 1291.11,155.937 1292.15,158.784 1293.19,221.871 1294.23,224.232 1295.28,172.19 1296.32,174.939 1297.36,212.711 1298.41,214.77 1299.45,233.23 1300.49,234.813 1301.53,231.278 1302.58,233.4 1303.62,225.273 1304.66,227.177 1305.71,227.665 1306.75,229.545 1307.79,195.511 1308.83,198.51 1309.88,233.712 1310.92,237.087 1311.96,203.393 1313.01,206.416 1314.05,240.294 1315.09,242.035 1316.13,210.173 1317.18,212.04 1318.22,248.574 1319.26,249.94 1320.31,214.499 1321.35,215.944 1322.39,237.226 1323.43,238.168 1324.48,199.664 1325.52,203.379 1326.56,208.771 1327.61,210.658 1328.65,230.607 1329.69,231.575 1330.73,187.914 1331.78,190.77 1332.82,235.711 1333.86,238.103 1334.91,237.644 1335.95,240 1336.99,291.674 1338.03,293.073 1339.08,268.954 1340.12,271.214 1341.16,194.104 1342.21,195.312 1343.25,264.423 1344.29,265.579 1345.34,181.085 1346.38,183.844 1347.42,237.552 1348.46,239.209 1349.51,220.873 1350.55,222.67 1351.59,219.821 1352.64,220.847 1353.68,257.27 1354.72,259.538 1355.76,207.66 1356.81,209.832 1357.85,215.754 1358.89,218.885 1359.94,254.578 1360.98,256.157 1362.02,238.421 1363.06,239.438 1364.11,246.836 1365.15,248.059 1366.19,196.633 1367.24,199.297 1368.28,179.401 1369.32,181.167 1370.36,214.378 1371.41,219.258 1372.45,224.317 1373.49,225.041 1374.54,188.193 1375.58,193.179 1376.62,180.587 1377.66,182.376 1378.71,191.836 1379.75,193.273 1380.79,214.762 1381.84,216.94 1382.88,213.953 1383.92,215.719 1384.96,221.985 1386.01,224.944 1387.05,195.743 1388.09,197.448 1389.14,179.564 1390.18,181.088 1391.22,237.242 1392.26,241.374 1393.31,224.34 1394.35,225.725 1395.39,215.788 1396.44,217.487 1397.48,245.626 1398.52,247.665 1399.56,206.675 1400.61,209.636 1401.65,210.59 1402.69,212.057 1403.74,150.664 1404.78,151.979 1405.82,187.748 1406.86,189.68 1407.91,215.296 1408.95,217.304 1409.99,194.34 1411.04,195.941 1412.08,237.777 1413.12,238.974 1414.17,179.198 1415.21,181.41 1416.25,218.172 1417.29,219.447 1418.34,213.9 1419.38,215.78 1420.42,217.949 1421.47,220.071 1422.51,211.225 1423.55,213.599 1424.59,204.999 1425.64,206.635 1426.68,233.177 1427.72,235.158 1428.77,167.654 1429.81,169.317 1430.85,104.213 1431.89,108.922 1432.94,175.426 1433.98,176.484 1435.02,213.682 1436.07,216.938 1437.11,226.213 1438.15,229.332 1439.19,193.554 1440.24,195.599 1441.28,191.807 1442.32,193.617 1443.37,210.569 1444.41,213.732 1445.45,246.03 1446.49,247.377 1447.54,237.457 1448.58,239.652 1449.62,206.054 1450.67,208.164 1451.71,143.404 1452.75,145.944 1453.79,153.849 1454.84,158.695 1455.88,229.317 1456.92,230.663 1457.97,230.753 1459.01,231.964 1460.05,248.375 1461.09,249.99 1462.14,190.792 1463.18,195.029 1464.22,236.946 1465.27,239.091 1466.31,153.655 1467.35,156.619 1468.39,226.75 1469.44,228.602 1470.48,194.05 1471.52,196.684 1472.57,245.857 1473.61,247.926 1474.65,234.285 1475.69,235.789 1476.74,212.243 1477.78,213.564 1478.82,216.94 1479.87,218.029 1480.91,238.055 1481.95,240.239 1483,212.979 1484.04,217.437 1485.08,231.003 1486.12,232.445 1487.17,193.082 1488.21,196.15 1489.25,155.285 1490.3,156.987 1491.34,245.348 1492.38,249.187 1493.42,223.71 1494.47,227.089 1495.51,229.334 1496.55,230.356 1497.6,224.525 1498.64,226.058 1499.68,252.879 1500.72,254.088 1501.77,233.47 1502.81,236.585 1503.85,227.065 1504.9,228.902 1505.94,234.978 1506.98,236.423 1508.02,231.363 1509.07,233.631 1510.11,184.291 1511.15,187.907 1512.2,235.351 1513.24,237.209 1514.28,241.884 1515.32,244.706 1516.37,164.235 1517.41,166.727 1518.45,222.845 1519.5,226.585 1520.54,247.892 1521.58,248.912 1522.62,223.528 1523.67,225.047 1524.71,248.822 1525.75,250.235 1526.8,213.735 1527.84,216.706 1528.88,219.6 1529.92,220.336 1530.97,206.748 1532.01,208.778 1533.05,219.039 1534.1,220.57 1535.14,197.006 1536.18,199.136 1537.22,233.793 1538.27,235.132 1539.31,214.745 1540.35,215.869 1541.4,222.464 1542.44,224.975 1543.48,216.124 1544.52,217.34 1545.57,217.686 1546.61,221.034 1547.65,233.742 1548.7,235.138 1549.74,227.753 1550.78,229.508 1551.83,216.819 1552.87,218.709 1553.91,230.585 1554.95,232.545 1556,166.404 1557.04,167.565 1558.08,233.097 1559.13,234.843 1560.17,157.849 1561.21,161.409 1562.25,227.54 1563.3,229.802 1564.34,209.466 1565.38,210.908 1566.43,212.741 1567.47,215.826 1568.51,160.622 1569.55,163.492 1570.6,222.892 1571.64,224.58 1572.68,216.575 1573.73,217.965 1574.77,216.923 1575.81,219.909 1576.85,224.5 1577.9,226.672 1578.94,214.457 1579.98,216.546 1581.03,210.961 1582.07,212.113 1583.11,230.255 1584.15,231.616 1585.2,219.55 1586.24,221.924 1587.28,233.095 1588.33,234.154 1589.37,173.491 1590.41,174.858 1591.45,208.451 1592.5,209.544 1593.54,217.487 1594.58,219.116 1595.63,145.207 1596.67,147.206 1597.71,214.191 1598.75,215.914 1599.8,214.701 1600.84,216.011 1601.88,221.165 1602.93,222.701 1603.97,168.505 1605.01,169.857 1606.05,213.893 1607.1,215.398 1608.14,227.429 1609.18,230.25 1610.23,218.925 1611.27,219.817 1612.31,188.098 1613.35,191.433 1614.4,264.081 1615.44,265.982 1616.48,192.121 1617.53,194.791 1618.57,198.076 1619.61,199.275 1620.66,209.218 1621.7,211.514 1622.74,192.566 1623.78,195.389 1624.83,141.858 1625.87,145.051 1626.91,172.231 1627.96,173.133 1629,158.646 1630.04,160.463 1631.08,211.447 1632.13,212.355 1633.17,190.808 1634.21,192.992 1635.26,218.501 1636.3,222.905 1637.34,202.374 1638.38,203.535 1639.43,226.141 1640.47,229.071 1641.51,172.78 1642.56,175.903 1643.6,184.682 1644.64,187.737 1645.68,236.023 1646.73,236.555 1647.77,210.158 1648.81,211.676 1649.86,206.407 1650.9,208.408 1651.94,200.895 1652.98,202.703 1654.03,214.862 1655.07,216.101 1656.11,198.812 1657.16,200.975 1658.2,159.08 1659.24,161.594 1660.28,233.271 1661.33,236.156 1662.37,179.235 1663.41,181.157 1664.46,200.486 1665.5,201.521 1666.54,199.819 1667.58,201.792 1668.63,185.655 1669.67,189.038 1670.71,177.154 1671.76,179.412 1672.8,200.157 1673.84,202.105 1674.88,202.279 1675.93,204.583 1676.97,209.011 1678.01,210.795 1679.06,214.238 1680.1,216.493 1681.14,187.583 1682.18,189.953 1683.23,206.951 1684.27,210.48 1685.31,235.033 1686.36,236.466 1687.4,208.261 1688.44,210.705 1689.49,187.759 1690.53,189.251 1691.57,227.364 1692.61,229.276 1693.66,222.397 1694.7,223.505 1695.74,186.522 1696.79,191.971 1697.83,205.053 1698.87,205.779 1699.91,188.65 1700.96,189.766 1702,204.847 1703.04,206.063 1704.09,165.481 1705.13,168.638 1706.17,220.719 1707.21,222.802 1708.26,190.871 1709.3,194.142 1710.34,194.35 1711.39,197.154 1712.43,197.93 1713.47,200.203 1714.51,204.427 1715.56,205.364 1716.6,223.9 1717.64,224.997 1718.69,144.16 1719.73,146.748 1720.77,228.51 1721.81,229.874 1722.86,229.843 1723.9,231.061 1724.94,203.68 1725.99,207.421 1727.03,158.34 1728.07,160.784 1729.11,223.628 1730.16,225.299 1731.2,207.207 1732.24,208.746 1733.29,231.701 1734.33,234.353 1735.37,210.374 1736.41,212.065 1737.46,220.902 1738.5,222.012 1739.54,204.325 1740.59,205.38 1741.63,210.516 1742.67,213.575 1743.71,155.581 1744.76,159.962 1745.8,210.162 1746.84,212.484 1747.89,207.786 1748.93,210.052 1749.97,193.754 1751.01,195.211 1752.06,218.569 1753.1,219.989 1754.14,212.158 1755.19,213.134 1756.23,190.505 1757.27,194.082 1758.32,218.649 1759.36,220.596 1760.4,189.923 1761.44,192.267 1762.49,129.679 1763.53,132.991 1764.57,209.964 1765.62,212.744 1766.66,227.992 1767.7,229.862 1768.74,197.389 1769.79,199.868 1770.83,229 1771.87,231.933 1772.92,196.157 1773.96,199.377 1775,237.048 1776.04,238.753 1777.09,204.854 1778.13,206.604 1779.17,223.74 1780.22,227.077 1781.26,243.585 1782.3,244.707 1783.34,166.699 1784.39,168.773 1785.43,202.142 1786.47,204.436 1787.52,197.529 1788.56,198.381 1789.6,206.674 1790.64,209.925 1791.69,190.509 1792.73,193.568 1793.77,204.076 1794.82,206.63 1795.86,206.175 1796.9,209.159 1797.94,209.737 1798.99,210.959 1800.03,198.434 1801.07,201.515 1802.12,217.6 1803.16,219.39 1804.2,210.984 1805.24,213.39 1806.29,200.736 1807.33,203.668 1808.37,191.749 1809.42,193.28 1810.46,209.818 1811.5,210.834 1812.54,211.991 1813.59,216.852 1814.63,215.163 1815.67,218.363 1816.72,191.993 1817.76,193.309 1818.8,190.705 1819.84,193.201 1820.89,202.472 1821.93,205.801 1822.97,167.247 1824.02,168.208 1825.06,228.38 1826.1,232.302 1827.15,215.954 1828.19,218.778 1829.23,204.647 1830.27,206.911 1831.32,165.341 1832.36,167.782 1833.4,226.057 1834.45,226.845 1835.49,87.9763 1836.53,91.7583 1837.57,199.262 1838.62,200.533 1839.66,185.176 1840.7,187.781 1841.75,218.37 1842.79,221.844 1843.83,212.66 1844.87,214.913 1845.92,213.682 1846.96,215.536 1848,236.536 1849.05,237.784 1850.09,209.063 1851.13,211.767 1852.17,205.221 1853.22,206.205 1854.26,198.389 1855.3,200.028 1856.35,209.848 1857.39,212.642 1858.43,217.566 1859.47,219.106 1860.52,202.285 1861.56,203.635 1862.6,199.93 1863.65,202.738 1864.69,203.642 1865.73,206.043 1866.77,227.597 1867.82,231.26 1868.86,219.807 1869.9,221.5 1870.95,180.138 1871.99,183.051 1873.03,194.823 1874.07,196.911 1875.12,218.059 1876.16,220.198 1877.2,214.675 1878.25,216.482 1879.29,157.091 1880.33,161.937 1881.37,237.763 1882.42,240.566 1883.46,216.146 1884.5,216.932 1885.55,177.722 1886.59,179.453 1887.63,198.298 1888.67,199.554 1889.72,230.574 1890.76,232.485 1891.8,212.715 1892.85,214.4 1893.89,202.233 1894.93,204.331 1895.98,206.681 1897.02,211.017 1898.06,221.484 1899.1,224.982 1900.15,204.245 1901.19,206.13 1902.23,208.781 1903.28,210.546 1904.32,203.527 1905.36,204.705 1906.4,230.124 1907.45,230.976 1908.49,214.543 1909.53,215.556 1910.58,208.219 1911.62,210.245 1912.66,226.37 1913.7,227.671 1914.75,222.916 1915.79,224.324 1916.83,216.32 1917.88,218.1 1918.92,185.032 1919.96,188.333 1921,163.296 1922.05,165.89 1923.09,150.427 1924.13,153.166 1925.18,201.079 1926.22,203.782 1927.26,200.941 1928.3,203.511 1929.35,127.961 1930.39,130.772 1931.43,207.409 1932.48,210.506 1933.52,202.666 1934.56,203.803 1935.6,206.151 1936.65,208.56 1937.69,206.432 1938.73,207.984 1939.78,187.645 1940.82,192.178 1941.86,216.882 1942.9,219.042 1943.95,201.671 1944.99,202.743 1946.03,204.882 1947.08,206.176 1948.12,206.758 1949.16,208.656 1950.2,211.075 1951.25,212.204 1952.29,213.062 1953.33,214.563 1954.38,199.363 1955.42,201.871 1956.46,215.005 1957.5,217.211 1958.55,194.587 1959.59,196.27 1960.63,153.486 1961.68,155.178 1962.72,215.509 1963.76,218.805 1964.81,199.771 1965.85,202.437 1966.89,205.85 1967.93,207.774 1968.98,224.262 1970.02,225.912 1971.06,197.527 1972.11,201.029 1973.15,169.631 1974.19,172.809 1975.23,225.766 1976.28,228.789 1977.32,221.909 1978.36,223.67 1979.41,233.696 1980.45,235.412 1981.49,211.965 1982.53,215.008 1983.58,193.59 1984.62,195.099 1985.66,210.986 1986.71,212.139 1987.75,189.535 1988.79,191.524 1989.83,167.207 1990.88,169.348 1991.92,221.826 1992.96,223.027 1994.01,198.264 1995.05,199.592 1996.09,199.846 1997.13,202.217 1998.18,202.904 1999.22,204.197 2000.26,204.806 2001.31,206.065 2002.35,186.819 2003.39,190.541 2004.43,176.297 2005.48,177.404 2006.52,198.166 2007.56,199.886 2008.61,209.749 2009.65,211.136 2010.69,211.374 2011.73,212.81 2012.78,149.425 2013.82,150.719 2014.86,187.349 2015.91,189.674 2016.95,194.728 2017.99,195.796 2019.03,211.185 2020.08,212.692 2021.12,169.639 2022.16,170.691 2023.21,204.78 2024.25,206.438 2025.29,210.671 2026.33,211.989 2027.38,157.324 2028.42,159.234 2029.46,209.671 2030.51,211.068 2031.55,170.807 2032.59,173.944 2033.64,179.189 2034.68,180.576 2035.72,179.938 2036.76,182.38 2037.81,203.202 2038.85,204.514 2039.89,189.795 2040.94,191.471 2041.98,178.731 2043.02,179.998 2044.06,188.2 2045.11,190.13 2046.15,216.721 2047.19,218.122 2048.24,187.511 2049.28,188.839 2050.32,113.084 2051.36,114.627 2052.41,163.94 2053.45,166.935 2054.49,197.096 2055.54,199.606 2056.58,230.441 2057.62,231.788 2058.66,228.15 2059.71,228.964 2060.75,220.121 2061.79,222.169 2062.84,154.845 2063.88,156.09 2064.92,178.787 2065.96,181.445 2067.01,233.954 2068.05,238.85 2069.09,232.447 2070.14,233.825 2071.18,179.991 2072.22,181.042 2073.26,225.633 2074.31,229.265 2075.35,219.806 2076.39,220.59 2077.44,211.349 2078.48,214.644 2079.52,224.306 2080.56,226.356 2081.61,246.778 2082.65,249.504 2083.69,213.744 2084.74,216.401 2085.78,210.17 2086.82,215.306 2087.86,173.624 2088.91,177.962 2089.95,139.058 2090.99,140.779 2092.04,197.845 2093.08,199.353 2094.12,213.172 2095.16,215.348 2096.21,182.807 2097.25,185.657 2098.29,198.435 2099.34,199.339 2100.38,201.672 2101.42,204.715 2102.47,218.382 2103.51,219.647 2104.55,208.076 2105.59,209.241 2106.64,210.001 2107.68,211.687 2108.72,210.813 2109.77,213.125 2110.81,214.821 2111.85,216.023 2112.89,198.766 2113.94,200.099 2114.98,221.111 2116.02,222.932 2117.07,215.843 2118.11,218.387 2119.15,191.411 2120.19,192.884 2121.24,175.128 2122.28,177.44 2123.32,183.864 2124.37,186.337 2125.41,190.26 2126.45,191.839 2127.49,192.761 2128.54,195.499 2129.58,191.64 2130.62,193.14 2131.67,201.851 2132.71,204.237 2133.75,207.94 2134.79,208.889 2135.84,206.481 2136.88,207.764 2137.92,150.39 2138.97,152.72 2140.01,203.435 2141.05,204.827 2142.09,199.765 2143.14,202.984 2144.18,190.139 2145.22,192.102 2146.27,228.046 2147.31,229.427 2148.35,198.796 2149.39,201.152 2150.44,210.769 2151.48,212.041 2152.52,197.037 2153.57,198.244 2154.61,201.3 2155.65,203.34 2156.69,192.712 2157.74,195.985 2158.78,196.62 2159.82,199.481 2160.87,207.428 2161.91,210.576 2162.95,154.307 2163.99,156.308 2165.04,206.314 2166.08,208.232 2167.12,213.966 2168.17,216.984 2169.21,193.476 2170.25,195.234 2171.3,182.975 2172.34,184.088 2173.38,222.929 2174.42,224.491 2175.47,184.552 2176.51,185.542 2177.55,208.432 2178.6,209.064 2179.64,121.522 2180.68,126.024 2181.72,223.907 2182.77,224.768 2183.81,202.683 2184.85,204.407 2185.9,201.614 2186.94,204.231 2187.98,200.895 2189.02,202.8 2190.07,221.318 2191.11,223.528 2192.15,196.751 2193.2,199.391 2194.24,171 2195.28,172.933 2196.32,204.526 2197.37,207.073 2198.41,208.696 2199.45,210.932 2200.5,199.119 2201.54,200.71 2202.58,222.045 2203.62,224.026 2204.67,243.229 2205.71,244.138 2206.75,194.5 2207.8,196.027 2208.84,206.517 2209.88,209.305 2210.92,208.125 2211.97,210.571 2213.01,202.723 2214.05,205.024 2215.1,200.739 2216.14,202.74 2217.18,207.718 2218.22,209.294 2219.27,191.452 2220.31,194.114 2221.35,198.649 2222.4,201.601 2223.44,201.43 2224.48,203.843 2225.52,113.667 2226.57,116.958 2227.61,203.15 2228.65,205.588 2229.7,198.473 2230.74,200.086 2231.78,185.136 2232.82,189.624 2233.87,189.371 2234.91,192.608 2235.95,199.274 2237,201.012 2238.04,189.531 2239.08,193.633 2240.12,177.859 2241.17,181.638 2242.21,207.409 2243.25,209.435 2244.3,193.204 2245.34,193.986 2246.38,201.316 2247.43,202.968 2248.47,212.089 2249.51,213.737 2250.55,201.096 2251.6,202.878 2252.64,243.16 2253.68,245.773 2254.73,210.08 2255.77,213.084 2256.81,238.144 2257.85,239.794 2258.9,195.964 2259.94,199.615 2260.98,233.692 2262.03,236.015 2263.07,188.535 2264.11,189.981 2265.15,106.542 2266.2,109.541 2267.24,181.347 2268.28,183.831 2269.33,164.492 2270.37,166.592 2271.41,159.779 2272.45,161.316 2273.5,203.448 2274.54,204.275 2275.58,191.519 2276.63,193.295 2277.67,185.058 2278.71,187.575 2279.75,175.855 2280.8,177.518 2281.84,196.04 2282.88,198.62 2283.93,204.053 2284.97,207.282 2286.01,207.376 2287.05,209.478 2288.1,219.177 2289.14,222.55 2290.18,224.611 "/>
<path clip-path="url(#clip940)" d="M215.55 198.898 L489.07 198.898 L489.07 95.2176 L215.55 95.2176  Z" fill="#ffffff" fill-rule="evenodd" fill-opacity="1"/>
<polyline clip-path="url(#clip940)" style="stroke:#000000; stroke-linecap:round; stroke-linejoin:round; stroke-width:4; stroke-opacity:1; fill:none" points="215.55,198.898 489.07,198.898 489.07,95.2176 215.55,95.2176 215.55,198.898 "/>
<polyline clip-path="url(#clip940)" style="stroke:#009af9; stroke-linecap:round; stroke-linejoin:round; stroke-width:4; stroke-opacity:1; fill:none" points="240.115,147.058 387.509,147.058 "/>
<path clip-path="url(#clip940)" d="M425.917 166.745 Q424.111 171.375 422.398 172.787 Q420.685 174.199 417.815 174.199 L414.412 174.199 L414.412 170.634 L416.912 170.634 Q418.672 170.634 419.644 169.8 Q420.616 168.967 421.797 165.865 L422.56 163.921 L412.074 138.412 L416.588 138.412 L424.69 158.689 L432.792 138.412 L437.306 138.412 L425.917 166.745 Z" fill="#000000" fill-rule="nonzero" fill-opacity="1" /><path clip-path="url(#clip940)" d="M444.597 160.402 L452.236 160.402 L452.236 134.037 L443.926 135.703 L443.926 131.444 L452.19 129.778 L456.866 129.778 L456.866 160.402 L464.505 160.402 L464.505 164.338 L444.597 164.338 L444.597 160.402 Z" fill="#000000" fill-rule="nonzero" fill-opacity="1" /></svg>
