<?xml version="1.0" encoding="utf-8"?>
<svg xmlns="http://www.w3.org/2000/svg" xmlns:xlink="http://www.w3.org/1999/xlink" width="600" height="400" viewBox="0 0 2400 1600">
<defs>
  <clipPath id="clip840">
    <rect x="0" y="0" width="2400" height="1600"/>
  </clipPath>
</defs>
<path clip-path="url(#clip840)" d="M0 1600 L2400 1600 L2400 0 L0 0  Z" fill="#ffffff" fill-rule="evenodd" fill-opacity="1"/>
<defs>
  <clipPath id="clip841">
    <rect x="480" y="0" width="1681" height="1600"/>
  </clipPath>
</defs>
<path clip-path="url(#clip840)" d="M140.696 1486.45 L2352.76 1486.45 L2352.76 47.2441 L140.696 47.2441  Z" fill="#ffffff" fill-rule="evenodd" fill-opacity="1"/>
<defs>
  <clipPath id="clip842">
    <rect x="140" y="47" width="2213" height="1440"/>
  </clipPath>
</defs>
<polyline clip-path="url(#clip842)" style="stroke:#000000; stroke-linecap:round; stroke-linejoin:round; stroke-width:2; stroke-opacity:0.1; fill:none" points="203.301,1486.45 203.301,47.2441 "/>
<polyline clip-path="url(#clip842)" style="stroke:#000000; stroke-linecap:round; stroke-linejoin:round; stroke-width:2; stroke-opacity:0.1; fill:none" points="725.013,1486.45 725.013,47.2441 "/>
<polyline clip-path="url(#clip842)" style="stroke:#000000; stroke-linecap:round; stroke-linejoin:round; stroke-width:2; stroke-opacity:0.1; fill:none" points="1246.73,1486.45 1246.73,47.2441 "/>
<polyline clip-path="url(#clip842)" style="stroke:#000000; stroke-linecap:round; stroke-linejoin:round; stroke-width:2; stroke-opacity:0.1; fill:none" points="1768.44,1486.45 1768.44,47.2441 "/>
<polyline clip-path="url(#clip842)" style="stroke:#000000; stroke-linecap:round; stroke-linejoin:round; stroke-width:2; stroke-opacity:0.1; fill:none" points="2290.15,1486.45 2290.15,47.2441 "/>
<polyline clip-path="url(#clip840)" style="stroke:#000000; stroke-linecap:round; stroke-linejoin:round; stroke-width:4; stroke-opacity:1; fill:none" points="140.696,1486.45 2352.76,1486.45 "/>
<polyline clip-path="url(#clip840)" style="stroke:#000000; stroke-linecap:round; stroke-linejoin:round; stroke-width:4; stroke-opacity:1; fill:none" points="203.301,1486.45 203.301,1467.55 "/>
<polyline clip-path="url(#clip840)" style="stroke:#000000; stroke-linecap:round; stroke-linejoin:round; stroke-width:4; stroke-opacity:1; fill:none" points="725.013,1486.45 725.013,1467.55 "/>
<polyline clip-path="url(#clip840)" style="stroke:#000000; stroke-linecap:round; stroke-linejoin:round; stroke-width:4; stroke-opacity:1; fill:none" points="1246.73,1486.45 1246.73,1467.55 "/>
<polyline clip-path="url(#clip840)" style="stroke:#000000; stroke-linecap:round; stroke-linejoin:round; stroke-width:4; stroke-opacity:1; fill:none" points="1768.44,1486.45 1768.44,1467.55 "/>
<polyline clip-path="url(#clip840)" style="stroke:#000000; stroke-linecap:round; stroke-linejoin:round; stroke-width:4; stroke-opacity:1; fill:none" points="2290.15,1486.45 2290.15,1467.55 "/>
<path clip-path="url(#clip840)" d="M203.301 1517.37 Q199.69 1517.37 197.861 1520.93 Q196.056 1524.47 196.056 1531.6 Q196.056 1538.71 197.861 1542.27 Q199.69 1545.82 203.301 1545.82 Q206.935 1545.82 208.741 1542.27 Q210.57 1538.71 210.57 1531.6 Q210.57 1524.47 208.741 1520.93 Q206.935 1517.37 203.301 1517.37 M203.301 1513.66 Q209.111 1513.66 212.167 1518.27 Q215.245 1522.85 215.245 1531.6 Q215.245 1540.33 212.167 1544.94 Q209.111 1549.52 203.301 1549.52 Q197.491 1549.52 194.412 1544.94 Q191.357 1540.33 191.357 1531.6 Q191.357 1522.85 194.412 1518.27 Q197.491 1513.66 203.301 1513.66 Z" fill="#000000" fill-rule="nonzero" fill-opacity="1" /><path clip-path="url(#clip840)" d="M684.632 1514.29 L702.988 1514.29 L702.988 1518.22 L688.914 1518.22 L688.914 1526.7 Q689.933 1526.35 690.951 1526.19 Q691.97 1526 692.988 1526 Q698.775 1526 702.155 1529.17 Q705.534 1532.34 705.534 1537.76 Q705.534 1543.34 702.062 1546.44 Q698.59 1549.52 692.27 1549.52 Q690.095 1549.52 687.826 1549.15 Q685.581 1548.78 683.173 1548.04 L683.173 1543.34 Q685.257 1544.47 687.479 1545.03 Q689.701 1545.58 692.178 1545.58 Q696.183 1545.58 698.52 1543.48 Q700.858 1541.37 700.858 1537.76 Q700.858 1534.15 698.52 1532.04 Q696.183 1529.94 692.178 1529.94 Q690.303 1529.94 688.428 1530.35 Q686.576 1530.77 684.632 1531.65 L684.632 1514.29 Z" fill="#000000" fill-rule="nonzero" fill-opacity="1" /><path clip-path="url(#clip840)" d="M724.747 1517.37 Q721.136 1517.37 719.307 1520.93 Q717.502 1524.47 717.502 1531.6 Q717.502 1538.71 719.307 1542.27 Q721.136 1545.82 724.747 1545.82 Q728.381 1545.82 730.187 1542.27 Q732.016 1538.71 732.016 1531.6 Q732.016 1524.47 730.187 1520.93 Q728.381 1517.37 724.747 1517.37 M724.747 1513.66 Q730.557 1513.66 733.613 1518.27 Q736.692 1522.85 736.692 1531.6 Q736.692 1540.33 733.613 1544.94 Q730.557 1549.52 724.747 1549.52 Q718.937 1549.52 715.858 1544.94 Q712.803 1540.33 712.803 1531.6 Q712.803 1522.85 715.858 1518.27 Q718.937 1513.66 724.747 1513.66 Z" fill="#000000" fill-rule="nonzero" fill-opacity="1" /><path clip-path="url(#clip840)" d="M754.909 1517.37 Q751.298 1517.37 749.469 1520.93 Q747.664 1524.47 747.664 1531.6 Q747.664 1538.71 749.469 1542.27 Q751.298 1545.82 754.909 1545.82 Q758.543 1545.82 760.349 1542.27 Q762.178 1538.71 762.178 1531.6 Q762.178 1524.47 760.349 1520.93 Q758.543 1517.37 754.909 1517.37 M754.909 1513.66 Q760.719 1513.66 763.775 1518.27 Q766.853 1522.85 766.853 1531.6 Q766.853 1540.33 763.775 1544.94 Q760.719 1549.52 754.909 1549.52 Q749.099 1549.52 746.02 1544.94 Q742.965 1540.33 742.965 1531.6 Q742.965 1522.85 746.02 1518.27 Q749.099 1513.66 754.909 1513.66 Z" fill="#000000" fill-rule="nonzero" fill-opacity="1" /><path clip-path="url(#clip840)" d="M1191.25 1544.91 L1198.89 1544.91 L1198.89 1518.55 L1190.58 1520.21 L1190.58 1515.95 L1198.84 1514.29 L1203.52 1514.29 L1203.52 1544.91 L1211.16 1544.91 L1211.16 1548.85 L1191.25 1548.85 L1191.25 1544.91 Z" fill="#000000" fill-rule="nonzero" fill-opacity="1" /><path clip-path="url(#clip840)" d="M1230.6 1517.37 Q1226.99 1517.37 1225.16 1520.93 Q1223.36 1524.47 1223.36 1531.6 Q1223.36 1538.71 1225.16 1542.27 Q1226.99 1545.82 1230.6 1545.82 Q1234.24 1545.82 1236.04 1542.27 Q1237.87 1538.71 1237.87 1531.6 Q1237.87 1524.47 1236.04 1520.93 Q1234.24 1517.37 1230.6 1517.37 M1230.6 1513.66 Q1236.41 1513.66 1239.47 1518.27 Q1242.55 1522.85 1242.55 1531.6 Q1242.55 1540.33 1239.47 1544.94 Q1236.41 1549.52 1230.6 1549.52 Q1224.79 1549.52 1221.71 1544.94 Q1218.66 1540.33 1218.66 1531.6 Q1218.66 1522.85 1221.71 1518.27 Q1224.79 1513.66 1230.6 1513.66 Z" fill="#000000" fill-rule="nonzero" fill-opacity="1" /><path clip-path="url(#clip840)" d="M1260.77 1517.37 Q1257.15 1517.37 1255.33 1520.93 Q1253.52 1524.47 1253.52 1531.6 Q1253.52 1538.71 1255.33 1542.27 Q1257.15 1545.82 1260.77 1545.82 Q1264.4 1545.82 1266.2 1542.27 Q1268.03 1538.71 1268.03 1531.6 Q1268.03 1524.47 1266.2 1520.93 Q1264.4 1517.37 1260.77 1517.37 M1260.77 1513.66 Q1266.58 1513.66 1269.63 1518.27 Q1272.71 1522.85 1272.71 1531.6 Q1272.71 1540.33 1269.63 1544.94 Q1266.58 1549.52 1260.77 1549.52 Q1254.95 1549.52 1251.88 1544.94 Q1248.82 1540.33 1248.82 1531.6 Q1248.82 1522.85 1251.88 1518.27 Q1254.95 1513.66 1260.77 1513.66 Z" fill="#000000" fill-rule="nonzero" fill-opacity="1" /><path clip-path="url(#clip840)" d="M1290.93 1517.37 Q1287.32 1517.37 1285.49 1520.93 Q1283.68 1524.47 1283.68 1531.6 Q1283.68 1538.71 1285.49 1542.27 Q1287.32 1545.82 1290.93 1545.82 Q1294.56 1545.82 1296.37 1542.27 Q1298.2 1538.71 1298.2 1531.6 Q1298.2 1524.47 1296.37 1520.93 Q1294.56 1517.37 1290.93 1517.37 M1290.93 1513.66 Q1296.74 1513.66 1299.79 1518.27 Q1302.87 1522.85 1302.87 1531.6 Q1302.87 1540.33 1299.79 1544.94 Q1296.74 1549.52 1290.93 1549.52 Q1285.12 1549.52 1282.04 1544.94 Q1278.98 1540.33 1278.98 1531.6 Q1278.98 1522.85 1282.04 1518.27 Q1285.12 1513.66 1290.93 1513.66 Z" fill="#000000" fill-rule="nonzero" fill-opacity="1" /><path clip-path="url(#clip840)" d="M1712.96 1544.91 L1720.6 1544.91 L1720.6 1518.55 L1712.29 1520.21 L1712.29 1515.95 L1720.56 1514.29 L1725.23 1514.29 L1725.23 1544.91 L1732.87 1544.91 L1732.87 1548.85 L1712.96 1548.85 L1712.96 1544.91 Z" fill="#000000" fill-rule="nonzero" fill-opacity="1" /><path clip-path="url(#clip840)" d="M1742.36 1514.29 L1760.72 1514.29 L1760.72 1518.22 L1746.64 1518.22 L1746.64 1526.7 Q1747.66 1526.35 1748.68 1526.19 Q1749.7 1526 1750.72 1526 Q1756.51 1526 1759.88 1529.17 Q1763.26 1532.34 1763.26 1537.76 Q1763.26 1543.34 1759.79 1546.44 Q1756.32 1549.52 1750 1549.52 Q1747.82 1549.52 1745.56 1549.15 Q1743.31 1548.78 1740.9 1548.04 L1740.9 1543.34 Q1742.99 1544.47 1745.21 1545.03 Q1747.43 1545.58 1749.91 1545.58 Q1753.91 1545.58 1756.25 1543.48 Q1758.59 1541.37 1758.59 1537.76 Q1758.59 1534.15 1756.25 1532.04 Q1753.91 1529.94 1749.91 1529.94 Q1748.03 1529.94 1746.16 1530.35 Q1744.31 1530.77 1742.36 1531.65 L1742.36 1514.29 Z" fill="#000000" fill-rule="nonzero" fill-opacity="1" /><path clip-path="url(#clip840)" d="M1782.48 1517.37 Q1778.87 1517.37 1777.04 1520.93 Q1775.23 1524.47 1775.23 1531.6 Q1775.23 1538.71 1777.04 1542.27 Q1778.87 1545.82 1782.48 1545.82 Q1786.11 1545.82 1787.92 1542.27 Q1789.75 1538.71 1789.75 1531.6 Q1789.75 1524.47 1787.92 1520.93 Q1786.11 1517.37 1782.48 1517.37 M1782.48 1513.66 Q1788.29 1513.66 1791.34 1518.27 Q1794.42 1522.85 1794.42 1531.6 Q1794.42 1540.33 1791.34 1544.94 Q1788.29 1549.52 1782.48 1549.52 Q1776.67 1549.52 1773.59 1544.94 Q1770.53 1540.33 1770.53 1531.6 Q1770.53 1522.85 1773.59 1518.27 Q1776.67 1513.66 1782.48 1513.66 Z" fill="#000000" fill-rule="nonzero" fill-opacity="1" /><path clip-path="url(#clip840)" d="M1812.64 1517.37 Q1809.03 1517.37 1807.2 1520.93 Q1805.39 1524.47 1805.39 1531.6 Q1805.39 1538.71 1807.2 1542.27 Q1809.03 1545.82 1812.64 1545.82 Q1816.27 1545.82 1818.08 1542.27 Q1819.91 1538.71 1819.91 1531.6 Q1819.91 1524.47 1818.08 1520.93 Q1816.27 1517.37 1812.64 1517.37 M1812.64 1513.66 Q1818.45 1513.66 1821.5 1518.27 Q1824.58 1522.85 1824.58 1531.6 Q1824.58 1540.33 1821.5 1544.94 Q1818.45 1549.52 1812.64 1549.52 Q1806.83 1549.52 1803.75 1544.94 Q1800.69 1540.33 1800.69 1531.6 Q1800.69 1522.85 1803.75 1518.27 Q1806.83 1513.66 1812.64 1513.66 Z" fill="#000000" fill-rule="nonzero" fill-opacity="1" /><path clip-path="url(#clip840)" d="M2238.76 1544.91 L2255.08 1544.91 L2255.08 1548.85 L2233.14 1548.85 L2233.14 1544.91 Q2235.8 1542.16 2240.38 1537.53 Q2244.99 1532.88 2246.17 1531.53 Q2248.41 1529.01 2249.29 1527.27 Q2250.2 1525.51 2250.2 1523.82 Q2250.2 1521.07 2248.25 1519.33 Q2246.33 1517.6 2243.23 1517.6 Q2241.03 1517.6 2238.58 1518.36 Q2236.15 1519.13 2233.37 1520.68 L2233.37 1515.95 Q2236.19 1514.82 2238.65 1514.24 Q2241.1 1513.66 2243.14 1513.66 Q2248.51 1513.66 2251.7 1516.35 Q2254.9 1519.03 2254.9 1523.52 Q2254.9 1525.65 2254.09 1527.57 Q2253.3 1529.47 2251.19 1532.07 Q2250.61 1532.74 2247.51 1535.95 Q2244.41 1539.15 2238.76 1544.91 Z" fill="#000000" fill-rule="nonzero" fill-opacity="1" /><path clip-path="url(#clip840)" d="M2274.9 1517.37 Q2271.28 1517.37 2269.46 1520.93 Q2267.65 1524.47 2267.65 1531.6 Q2267.65 1538.71 2269.46 1542.27 Q2271.28 1545.82 2274.9 1545.82 Q2278.53 1545.82 2280.34 1542.27 Q2282.16 1538.71 2282.16 1531.6 Q2282.16 1524.47 2280.34 1520.93 Q2278.53 1517.37 2274.9 1517.37 M2274.9 1513.66 Q2280.71 1513.66 2283.76 1518.27 Q2286.84 1522.85 2286.84 1531.6 Q2286.84 1540.33 2283.76 1544.94 Q2280.71 1549.52 2274.9 1549.52 Q2269.09 1549.52 2266.01 1544.94 Q2262.95 1540.33 2262.95 1531.6 Q2262.95 1522.85 2266.01 1518.27 Q2269.09 1513.66 2274.9 1513.66 Z" fill="#000000" fill-rule="nonzero" fill-opacity="1" /><path clip-path="url(#clip840)" d="M2305.06 1517.37 Q2301.45 1517.37 2299.62 1520.93 Q2297.81 1524.47 2297.81 1531.6 Q2297.81 1538.71 2299.62 1542.27 Q2301.45 1545.82 2305.06 1545.82 Q2308.69 1545.82 2310.5 1542.27 Q2312.33 1538.71 2312.33 1531.6 Q2312.33 1524.47 2310.5 1520.93 Q2308.69 1517.37 2305.06 1517.37 M2305.06 1513.66 Q2310.87 1513.66 2313.92 1518.27 Q2317 1522.85 2317 1531.6 Q2317 1540.33 2313.92 1544.94 Q2310.87 1549.52 2305.06 1549.52 Q2299.25 1549.52 2296.17 1544.94 Q2293.11 1540.33 2293.11 1531.6 Q2293.11 1522.85 2296.17 1518.27 Q2299.25 1513.66 2305.06 1513.66 Z" fill="#000000" fill-rule="nonzero" fill-opacity="1" /><path clip-path="url(#clip840)" d="M2335.22 1517.37 Q2331.61 1517.37 2329.78 1520.93 Q2327.97 1524.47 2327.97 1531.6 Q2327.97 1538.71 2329.78 1542.27 Q2331.61 1545.82 2335.22 1545.82 Q2338.85 1545.82 2340.66 1542.27 Q2342.49 1538.71 2342.49 1531.6 Q2342.49 1524.47 2340.66 1520.93 Q2338.85 1517.37 2335.22 1517.37 M2335.22 1513.66 Q2341.03 1513.66 2344.09 1518.27 Q2347.16 1522.85 2347.16 1531.6 Q2347.16 1540.33 2344.09 1544.94 Q2341.03 1549.52 2335.22 1549.52 Q2329.41 1549.52 2326.33 1544.94 Q2323.28 1540.33 2323.28 1531.6 Q2323.28 1522.85 2326.33 1518.27 Q2329.41 1513.66 2335.22 1513.66 Z" fill="#000000" fill-rule="nonzero" fill-opacity="1" /><polyline clip-path="url(#clip842)" style="stroke:#000000; stroke-linecap:round; stroke-linejoin:round; stroke-width:2; stroke-opacity:0.1; fill:none" points="140.696,1219.34 2352.76,1219.34 "/>
<polyline clip-path="url(#clip842)" style="stroke:#000000; stroke-linecap:round; stroke-linejoin:round; stroke-width:2; stroke-opacity:0.1; fill:none" points="140.696,883.132 2352.76,883.132 "/>
<polyline clip-path="url(#clip842)" style="stroke:#000000; stroke-linecap:round; stroke-linejoin:round; stroke-width:2; stroke-opacity:0.1; fill:none" points="140.696,546.922 2352.76,546.922 "/>
<polyline clip-path="url(#clip842)" style="stroke:#000000; stroke-linecap:round; stroke-linejoin:round; stroke-width:2; stroke-opacity:0.1; fill:none" points="140.696,210.711 2352.76,210.711 "/>
<polyline clip-path="url(#clip840)" style="stroke:#000000; stroke-linecap:round; stroke-linejoin:round; stroke-width:4; stroke-opacity:1; fill:none" points="140.696,1486.45 140.696,47.2441 "/>
<polyline clip-path="url(#clip840)" style="stroke:#000000; stroke-linecap:round; stroke-linejoin:round; stroke-width:4; stroke-opacity:1; fill:none" points="140.696,1219.34 159.593,1219.34 "/>
<polyline clip-path="url(#clip840)" style="stroke:#000000; stroke-linecap:round; stroke-linejoin:round; stroke-width:4; stroke-opacity:1; fill:none" points="140.696,883.132 159.593,883.132 "/>
<polyline clip-path="url(#clip840)" style="stroke:#000000; stroke-linecap:round; stroke-linejoin:round; stroke-width:4; stroke-opacity:1; fill:none" points="140.696,546.922 159.593,546.922 "/>
<polyline clip-path="url(#clip840)" style="stroke:#000000; stroke-linecap:round; stroke-linejoin:round; stroke-width:4; stroke-opacity:1; fill:none" points="140.696,210.711 159.593,210.711 "/>
<path clip-path="url(#clip840)" d="M53.3995 1232.69 L61.0384 1232.69 L61.0384 1206.32 L52.7282 1207.99 L52.7282 1203.73 L60.9921 1202.06 L65.668 1202.06 L65.668 1232.69 L73.3068 1232.69 L73.3068 1236.62 L53.3995 1236.62 L53.3995 1232.69 Z" fill="#000000" fill-rule="nonzero" fill-opacity="1" /><path clip-path="url(#clip840)" d="M92.7512 1205.14 Q89.1401 1205.14 87.3114 1208.71 Q85.5058 1212.25 85.5058 1219.38 Q85.5058 1226.48 87.3114 1230.05 Q89.1401 1233.59 92.7512 1233.59 Q96.3854 1233.59 98.1909 1230.05 Q100.02 1226.48 100.02 1219.38 Q100.02 1212.25 98.1909 1208.71 Q96.3854 1205.14 92.7512 1205.14 M92.7512 1201.44 Q98.5613 1201.44 101.617 1206.04 Q104.696 1210.63 104.696 1219.38 Q104.696 1228.1 101.617 1232.71 Q98.5613 1237.29 92.7512 1237.29 Q86.941 1237.29 83.8623 1232.71 Q80.8068 1228.1 80.8068 1219.38 Q80.8068 1210.63 83.8623 1206.04 Q86.941 1201.44 92.7512 1201.44 Z" fill="#000000" fill-rule="nonzero" fill-opacity="1" /><path clip-path="url(#clip840)" d="M54.3949 896.477 L62.0337 896.477 L62.0337 870.112 L53.7236 871.778 L53.7236 867.519 L61.9874 865.852 L66.6633 865.852 L66.6633 896.477 L74.3022 896.477 L74.3022 900.412 L54.3949 900.412 L54.3949 896.477 Z" fill="#000000" fill-rule="nonzero" fill-opacity="1" /><path clip-path="url(#clip840)" d="M83.7929 865.852 L102.149 865.852 L102.149 869.788 L88.0753 869.788 L88.0753 878.26 Q89.0938 877.913 90.1123 877.751 Q91.1308 877.565 92.1493 877.565 Q97.9363 877.565 101.316 880.737 Q104.696 883.908 104.696 889.325 Q104.696 894.903 101.223 898.005 Q97.7511 901.084 91.4317 901.084 Q89.2558 901.084 86.9873 900.713 Q84.7419 900.343 82.3346 899.602 L82.3346 894.903 Q84.4179 896.037 86.6401 896.593 Q88.8623 897.149 91.3391 897.149 Q95.3437 897.149 97.6817 895.042 Q100.02 892.936 100.02 889.325 Q100.02 885.713 97.6817 883.607 Q95.3437 881.501 91.3391 881.501 Q89.4641 881.501 87.5892 881.917 Q85.7373 882.334 83.7929 883.213 L83.7929 865.852 Z" fill="#000000" fill-rule="nonzero" fill-opacity="1" /><path clip-path="url(#clip840)" d="M56.6171 560.266 L72.9365 560.266 L72.9365 564.202 L50.9921 564.202 L50.9921 560.266 Q53.6541 557.512 58.2375 552.882 Q62.8439 548.229 64.0245 546.887 Q66.2698 544.364 67.1494 542.628 Q68.0522 540.868 68.0522 539.179 Q68.0522 536.424 66.1078 534.688 Q64.1865 532.952 61.0847 532.952 Q58.8856 532.952 56.4319 533.716 Q54.0014 534.48 51.2236 536.03 L51.2236 531.308 Q54.0477 530.174 56.5014 529.595 Q58.955 529.017 60.9921 529.017 Q66.3624 529.017 69.5568 531.702 Q72.7513 534.387 72.7513 538.878 Q72.7513 541.007 71.9411 542.929 Q71.1541 544.827 69.0476 547.419 Q68.4689 548.091 65.367 551.308 Q62.2652 554.503 56.6171 560.266 Z" fill="#000000" fill-rule="nonzero" fill-opacity="1" /><path clip-path="url(#clip840)" d="M92.7512 532.72 Q89.1401 532.72 87.3114 536.285 Q85.5058 539.827 85.5058 546.956 Q85.5058 554.063 87.3114 557.628 Q89.1401 561.169 92.7512 561.169 Q96.3854 561.169 98.1909 557.628 Q100.02 554.063 100.02 546.956 Q100.02 539.827 98.1909 536.285 Q96.3854 532.72 92.7512 532.72 M92.7512 529.017 Q98.5613 529.017 101.617 533.623 Q104.696 538.206 104.696 546.956 Q104.696 555.683 101.617 560.29 Q98.5613 564.873 92.7512 564.873 Q86.941 564.873 83.8623 560.29 Q80.8068 555.683 80.8068 546.956 Q80.8068 538.206 83.8623 533.623 Q86.941 529.017 92.7512 529.017 Z" fill="#000000" fill-rule="nonzero" fill-opacity="1" /><path clip-path="url(#clip840)" d="M57.6125 224.056 L73.9318 224.056 L73.9318 227.991 L51.9875 227.991 L51.9875 224.056 Q54.6495 221.301 59.2328 216.671 Q63.8393 212.019 65.0198 210.676 Q67.2652 208.153 68.1448 206.417 Q69.0476 204.658 69.0476 202.968 Q69.0476 200.213 67.1032 198.477 Q65.1819 196.741 62.08 196.741 Q59.881 196.741 57.4273 197.505 Q54.9967 198.269 52.219 199.82 L52.219 195.097 Q55.043 193.963 57.4967 193.384 Q59.9504 192.806 61.9874 192.806 Q67.3578 192.806 70.5522 195.491 Q73.7466 198.176 73.7466 202.667 Q73.7466 204.796 72.9365 206.718 Q72.1494 208.616 70.0429 211.208 Q69.4642 211.88 66.3624 215.097 Q63.2606 218.292 57.6125 224.056 Z" fill="#000000" fill-rule="nonzero" fill-opacity="1" /><path clip-path="url(#clip840)" d="M83.7929 193.431 L102.149 193.431 L102.149 197.366 L88.0753 197.366 L88.0753 205.838 Q89.0938 205.491 90.1123 205.329 Q91.1308 205.144 92.1493 205.144 Q97.9363 205.144 101.316 208.315 Q104.696 211.486 104.696 216.903 Q104.696 222.481 101.223 225.583 Q97.7511 228.662 91.4317 228.662 Q89.2558 228.662 86.9873 228.292 Q84.7419 227.921 82.3346 227.181 L82.3346 222.481 Q84.4179 223.616 86.6401 224.171 Q88.8623 224.727 91.3391 224.727 Q95.3437 224.727 97.6817 222.62 Q100.02 220.514 100.02 216.903 Q100.02 213.292 97.6817 211.185 Q95.3437 209.079 91.3391 209.079 Q89.4641 209.079 87.5892 209.495 Q85.7373 209.912 83.7929 210.792 L83.7929 193.431 Z" fill="#000000" fill-rule="nonzero" fill-opacity="1" /><polyline clip-path="url(#clip842)" style="stroke:#009af9; stroke-linecap:round; stroke-linejoin:round; stroke-width:4; stroke-opacity:1; fill:none" points="203.301,1344.33 204.344,1346.44 205.388,1399.37 206.431,1401.43 207.475,1364.6 208.518,1367.18 209.562,1081.57 210.605,1086.5 211.648,1387.41 212.692,1389.22 213.735,1444.43 214.779,1445.72 215.822,1323.96 216.866,1326.79 217.909,1121.28 218.952,1124.94 219.996,1066.48 221.039,1070.84 222.083,1359.05 223.126,1361.08 224.17,1210.16 225.213,1213.9 226.256,940.61 227.3,946.742 228.343,1103.72 229.387,1107.5 230.43,1031.12 231.473,1035.85 232.517,872.856 233.56,878.922 234.604,1035.98 235.647,1040.02 236.691,975.19 237.734,980.272 238.777,694.393 239.821,698.78 240.864,952.564 241.908,955.942 242.951,670.374 243.995,676.719 245.038,704.158 246.081,709.657 247.125,717.365 248.168,721.512 249.212,812.303 250.255,816.218 251.299,608.806 252.342,612.547 253.385,683.259 254.429,686.278 255.472,667.317 256.516,671.251 257.559,683.611 258.603,687.198 259.646,743.734 260.689,747.804 261.733,425.15 262.776,429.299 263.82,509.852 264.863,513.891 265.907,655.2 266.95,657.206 267.993,479.404 269.037,482.247 270.08,575.899 271.124,578.001 272.167,748.172 273.21,750.489 274.254,444.516 275.297,447.672 276.341,649.988 277.384,652.93 278.428,486.285 279.471,488.382 280.514,472.933 281.558,477.017 282.601,350.324 283.645,352.725 284.688,457.952 285.732,460.91 286.775,667.415 287.818,669.37 288.862,411.642 289.905,414.005 290.949,243.447 291.992,245.686 293.036,412.272 294.079,415.022 295.122,354.564 296.166,358.319 297.209,355.547 298.253,358.388 299.296,382.908 300.34,385.789 301.383,597.534 302.426,598.786 303.47,447.062 304.513,449.354 305.557,304.836 306.6,306.673 307.643,580.375 308.687,583.492 309.73,262.129 310.774,263.858 311.817,455.273 312.861,459.723 313.904,322.46 314.947,325.039 315.991,467.172 317.034,468.392 318.078,487.035 319.121,488.21 320.165,525.367 321.208,527.041 322.251,393.468 323.295,394.76 324.338,409.257 325.382,413.702 326.425,401.903 327.469,403.425 328.512,472.577 329.555,474.565 330.599,411.791 331.642,413.058 332.686,439.707 333.729,441.074 334.773,303.249 335.816,304.721 336.859,407.919 337.903,410.352 338.946,351.43 339.99,353.381 341.033,459.556 342.077,461.177 343.12,374.356 344.163,376.791 345.207,407.843 346.25,410.457 347.294,296.664 348.337,298.742 349.38,260.031 350.424,261.091 351.467,300.746 352.511,302.535 353.554,375.872 354.598,377.453 355.641,339.251 356.684,340.546 357.728,355.361 358.771,356.552 359.815,442.977 360.858,443.922 361.902,391.763 362.945,393.557 363.988,403.678 365.032,405.611 366.075,248.401 367.119,249.833 368.162,371.128 369.206,372.211 370.249,332.486 371.292,333.723 372.336,410.578 373.379,413.383 374.423,478.74 375.466,479.642 376.51,427.961 377.553,429.43 378.596,421.039 379.64,421.907 380.683,346.386 381.727,347.13 382.77,347.973 383.813,349.263 384.857,425.931 385.9,427.299 386.944,407.487 387.987,407.931 389.031,314.464 390.074,316.944 391.117,408.935 392.161,409.659 393.204,261.223 394.248,263.555 395.291,357.968 396.335,359.625 397.378,413.631 398.421,414.689 399.465,177.879 400.508,180.312 401.552,337.754 402.595,338.243 403.639,258.618 404.682,260.642 405.725,372.422 406.769,373.565 407.812,337.092 408.856,338.438 409.899,416.081 410.943,417.576 411.986,286.165 413.029,287.123 414.073,293.199 415.116,295.878 416.16,398.172 417.203,399.565 418.247,444.216 419.29,447.176 420.333,272.542 421.377,273.019 422.42,345.234 423.464,346.913 424.507,263.89 425.55,265.488 426.594,286.162 427.637,287.803 428.681,386.327 429.724,388.104 430.768,292.031 431.811,293.311 432.854,346.049 433.898,348.15 434.941,176.231 435.985,177.246 437.028,199.54 438.072,200.151 439.115,405.103 440.158,405.849 441.202,350.199 442.245,351.405 443.289,359.961 444.332,362.655 445.376,412.645 446.419,415.21 447.462,205.872 448.506,207.845 449.549,323.813 450.593,325.441 451.636,382.179 452.68,383.165 453.723,355.7 454.766,356.368 455.81,389.669 456.853,390.917 457.897,318.598 458.94,320.321 459.984,328.49 461.027,329.354 462.07,370.175 463.114,371.086 464.157,238.05 465.201,242.179 466.244,415.281 467.287,416.124 468.331,376.051 469.374,376.985 470.418,186.963 471.461,187.749 472.505,363.552 473.548,364.562 474.591,282.038 475.635,283.346 476.678,325.398 477.722,327.031 478.765,333.195 479.809,336.582 480.852,360.708 481.895,362.471 482.939,258.34 483.982,259.274 485.026,334.056 486.069,335.062 487.113,303.259 488.156,304.582 489.199,358.869 490.243,360.034 491.286,283.999 492.33,285.196 493.373,334.797 494.417,336.76 495.46,337.087 496.503,339.403 497.547,323.79 498.59,325.185 499.634,248.662 500.677,250.632 501.72,142.95 502.764,143.914 503.807,258.499 504.851,259.228 505.894,333.482 506.938,336.031 507.981,108.327 509.024,109.54 510.068,222.568 511.111,223.605 512.155,219.252 513.198,220.518 514.242,223.687 515.285,224.909 516.328,362.826 517.372,363.48 518.415,326.192 519.459,327.387 520.502,337.268 521.546,338.134 522.589,349.348 523.632,351.315 524.676,354.239 525.719,355.983 526.763,300.691 527.806,301.234 528.85,288.71 529.893,289.884 530.936,369.618 531.98,371.049 533.023,297.321 534.067,299.102 535.11,254.502 536.154,256.404 537.197,281.134 538.24,282.896 539.284,185.012 540.327,187.006 541.371,359.987 542.414,361.371 543.457,344.158 544.501,345.528 545.544,347.788 546.588,348.84 547.631,342.119 548.675,342.755 549.718,358.95 550.761,360.498 551.805,281.148 552.848,282.058 553.892,346.13 554.935,347.564 555.979,230.784 557.022,231.964 558.065,343.074 559.109,344.231 560.152,322.104 561.196,322.955 562.239,356.32 563.283,357.241 564.326,275.488 565.369,276.974 566.413,232.014 567.456,232.965 568.5,237.351 569.543,238.183 570.587,259.365 571.63,262.714 572.673,261.492 573.717,263.223 574.76,298.547 575.804,299.54 576.847,344.786 577.89,345.691 578.934,308.059 579.977,308.82 581.021,349.51 582.064,350.914 583.108,283.711 584.151,284.726 585.194,378.4 586.238,379.495 587.281,284.414 588.325,285.471 589.368,343.458 590.412,345.284 591.455,361.973 592.498,362.297 593.542,300.552 594.585,301.679 595.629,347.12 596.672,348.016 597.716,304.21 598.759,305.146 599.802,227.319 600.846,228.155 601.889,341.419 602.933,342.532 603.976,154.888 605.02,155.866 606.063,350.673 607.106,351.57 608.15,359.022 609.193,360.504 610.237,250.391 611.28,252.636 612.324,207.234 613.367,208.638 614.41,314.63 615.454,315.851 616.497,299.964 617.541,301.456 618.584,269.88 619.627,271.49 620.671,156.607 621.714,159.985 622.758,322.317 623.801,324.483 624.845,336.978 625.888,337.478 626.931,257.138 627.975,257.736 629.018,366.134 630.062,367.67 631.105,268.628 632.149,271.297 633.192,257.931 634.235,259.392 635.279,325.932 636.322,326.269 637.366,317.788 638.409,319.844 639.453,322.17 640.496,323.084 641.539,325.882 642.583,327.6 643.626,247.598 644.67,250.476 645.713,314.519 646.757,315.653 647.8,297.178 648.843,298.656 649.887,164.423 650.93,166.798 651.974,326.299 653.017,327.031 654.06,323.493 655.104,324.084 656.147,349.897 657.191,351.887 658.234,343.72 659.278,345.448 660.321,193.888 661.364,195.107 662.408,311.152 663.451,311.81 664.495,275.041 665.538,275.709 666.582,258.085 667.625,258.806 668.668,351.506 669.712,353.755 670.755,270.664 671.799,271.965 672.842,207.612 673.886,209.624 674.929,164.145 675.972,165.225 677.016,332.089 678.059,333.21 679.103,315.811 680.146,318.01 681.19,265.175 682.233,267.624 683.276,309.712 684.32,311.108 685.363,323.542 686.407,324.58 687.45,248.109 688.494,249.073 689.537,312.141 690.58,316.277 691.624,321.533 692.667,323.005 693.711,284.796 694.754,285.236 695.797,280.393 696.841,281.277 697.884,319.096 698.928,319.799 699.971,298.288 701.015,298.83 702.058,347.238 703.101,348.476 704.145,270.02 705.188,270.83 706.232,161.182 707.275,162.728 708.319,275.408 709.362,276.561 710.405,243.322 711.449,244.946 712.492,287.623 713.536,288.081 714.579,315.605 715.623,316.574 716.666,231.871 717.709,232.82 718.753,332.862 719.796,333.897 720.84,334.715 721.883,335.856 722.927,304.3 723.97,304.977 725.013,325.513 726.057,326.359 727.1,314.209 728.144,315.93 729.187,282.801 730.23,284.131 731.274,327.564 732.317,328.901 733.361,266.849 734.404,269.383 735.448,281.73 736.491,283.799 737.534,348.705 738.578,349.963 739.621,213.826 740.665,215.381 741.708,236.252 742.752,237.604 743.795,302.93 744.838,304.738 745.882,337.255 746.925,338.539 747.969,332.702 749.012,333.643 750.056,201.327 751.099,202.669 752.142,338.125 753.186,340.192 754.229,238.38 755.273,239.613 756.316,335.175 757.36,336.701 758.403,322.656 759.446,323.454 760.49,308.988 761.533,310.203 762.577,323.718 763.62,324.937 764.664,306.643 765.707,307.959 766.75,276.394 767.794,278.67 768.837,309.406 769.881,310.394 770.924,251.171 771.967,252.435 773.011,315.569 774.054,317.034 775.098,252.459 776.141,254.661 777.185,329.367 778.228,330.402 779.271,225.552 780.315,228.578 781.358,341.954 782.402,342.797 783.445,298.363 784.489,300.289 785.532,321.329 786.575,322.179 787.619,242.746 788.662,243.738 789.706,353.343 790.749,354.393 791.793,309.031 792.836,310.946 793.879,266.007 794.923,268.503 795.966,268.16 797.01,268.831 798.053,317.315 799.097,318.512 800.14,250.452 801.183,252.309 802.227,299.072 803.27,299.359 804.314,267.925 805.357,269.373 806.401,207.309 807.444,208.003 808.487,209.825 809.531,210.451 810.574,283.877 811.618,284.883 812.661,314.09 813.704,315.977 814.748,186.184 815.791,188.795 816.835,331.446 817.878,332.191 818.922,268.995 819.965,269.572 821.008,218.546 822.052,219.554 823.095,335.553 824.139,336.959 825.182,321.075 826.226,321.579 827.269,301.878 828.312,303.384 829.356,323.902 830.399,324.82 831.443,135.21 832.486,136.339 833.53,373.222 834.573,375.015 835.616,349.612 836.66,350.793 837.703,324.864 838.747,326.757 839.79,218.626 840.834,219.855 841.877,216.345 842.92,219.088 843.964,249.582 845.007,250.999 846.051,217.646 847.094,218.476 848.137,206.706 849.181,208.111 850.224,284.207 851.268,284.586 852.311,316.598 853.355,317.37 854.398,278.061 855.441,279.125 856.485,300.366 857.528,301.989 858.572,308.409 859.615,310.112 860.659,223.332 861.702,225.692 862.745,261.682 863.789,263.114 864.832,306.264 865.876,307.215 866.919,329.57 867.963,330.406 869.006,327.457 870.049,328.517 871.093,286.651 872.136,287.308 873.18,328.443 874.223,331.236 875.267,300.066 876.31,301.673 877.353,252.774 878.397,255.168 879.44,309.268 880.484,310.153 881.527,242.495 882.571,243.977 883.614,314.913 884.657,316.279 885.701,208.824 886.744,210.962 887.788,321.363 888.831,322.246 889.874,327.833 890.918,328.41 891.961,266.89 893.005,269.041 894.048,315.832 895.092,317.021 896.135,295.026 897.178,296.913 898.222,191.388 899.265,192.186 900.309,249.021 901.352,249.811 902.396,313.256 903.439,314.672 904.482,249.905 905.526,252.257 906.569,249.389 907.613,250.012 908.656,269.464 909.7,270.614 910.743,165.637 911.786,166.87 912.83,292.476 913.873,295.689 914.917,306.077 915.96,307.067 917.004,313.903 918.047,314.337 919.09,310.831 920.134,311.875 921.177,296.64 922.221,297.552 923.264,326.206 924.307,327.316 925.351,330.55 926.394,331.904 927.438,318.402 928.481,319.42 929.525,303.532 930.568,304.497 931.611,292.902 932.655,294.06 933.698,249.682 934.742,251.758 935.785,301.788 936.829,302.173 937.872,316.105 938.915,316.978 939.959,275.553 941.002,277.025 942.046,288.754 943.089,289.506 944.133,127.148 945.176,130.007 946.219,179.481 947.263,181.127 948.306,304.157 949.35,306.35 950.393,259.55 951.437,260.747 952.48,311.712 953.523,312.108 954.567,244.834 955.61,246.156 956.654,305.642 957.697,306.356 958.741,327.621 959.784,328.298 960.827,302.95 961.871,304.968 962.914,312.527 963.958,313.362 965.001,327.352 966.044,328.261 967.088,332.219 968.131,334.687 969.175,333.53 970.218,335.468 971.262,338.729 972.305,340.684 973.348,316.987 974.392,317.793 975.435,257.072 976.479,258.065 977.522,216.698 978.566,218.22 979.609,285.844 980.652,286.431 981.696,311.289 982.739,312.517 983.783,230.751 984.826,231.948 985.87,312.438 986.913,314.664 987.956,295.98 989,296.938 990.043,326.828 991.087,327.19 992.13,277.489 993.174,278.221 994.217,290.346 995.26,291.029 996.304,265.672 997.347,267.71 998.391,244.518 999.434,245.516 1000.48,345.148 1001.52,347.714 1002.56,312.094 1003.61,312.728 1004.65,321.1 1005.69,323.452 1006.74,244.303 1007.78,246.323 1008.82,309.087 1009.87,310.325 1010.91,306.43 1011.96,306.92 1013,294.533 1014.04,295.576 1015.09,226.92 1016.13,227.843 1017.17,327.495 1018.22,329.19 1019.26,285.227 1020.3,286.787 1021.35,277.228 1022.39,278.08 1023.43,337.026 1024.48,338.166 1025.52,217.03 1026.56,218.708 1027.61,87.9763 1028.65,89.6126 1029.69,301.764 1030.74,302.641 1031.78,203.433 1032.82,204.582 1033.87,223.313 1034.91,224.685 1035.95,297.558 1037,298.411 1038.04,318.626 1039.08,319.912 1040.13,315.158 1041.17,317.411 1042.21,309.083 1043.26,311.527 1044.3,213.809 1045.34,215.354 1046.39,304.418 1047.43,305.604 1048.48,266.04 1049.52,266.706 1050.56,312.794 1051.61,313.806 1052.65,254.842 1053.69,255.256 1054.74,291.155 1055.78,291.902 1056.82,260.163 1057.87,261.059 1058.91,301.928 1059.95,302.613 1061,263.282 1062.04,264.589 1063.08,310.715 1064.13,311.595 1065.17,211.224 1066.21,212.092 1067.26,337.524 1068.3,338.194 1069.34,268.298 1070.39,269.514 1071.43,273.402 1072.47,274.176 1073.52,260.725 1074.56,263.201 1075.6,337.191 1076.65,339.342 1077.69,195.224 1078.73,196.863 1079.78,194.792 1080.82,196.687 1081.86,310.105 1082.91,311.259 1083.95,342.321 1084.99,343.596 1086.04,318.999 1087.08,320.255 1088.13,315.691 1089.17,317.206 1090.21,243.759 1091.26,244.282 1092.3,254.656 1093.34,256.142 1094.39,270.989 1095.43,272.672 1096.47,334.93 1097.52,336.733 1098.56,322.212 1099.6,323.229 1100.65,267.11 1101.69,267.509 1102.73,312.531 1103.78,314.363 1104.82,323.715 1105.86,325.089 1106.91,311.44 1107.95,313.33 1108.99,322.827 1110.04,323.356 1111.08,321.474 1112.12,322.695 1113.17,236.365 1114.21,240.285 1115.25,292.537 1116.3,296.73 1117.34,189.981 1118.38,192.368 1119.43,290.496 1120.47,291.382 1121.51,261.729 1122.56,262.376 1123.6,324.369 1124.65,325.408 1125.69,315.365 1126.73,316.949 1127.78,268.477 1128.82,271.165 1129.86,321.808 1130.91,322.891 1131.95,297.477 1132.99,298.377 1134.04,322.42 1135.08,323.698 1136.12,262.335 1137.17,263.296 1138.21,295.566 1139.25,297.276 1140.3,313.867 1141.34,314.991 1142.38,301.398 1143.43,302.534 1144.47,308.707 1145.51,310.15 1146.56,242.326 1147.6,243.805 1148.64,368.415 1149.69,369.651 1150.73,315.887 1151.77,316.837 1152.82,318.151 1153.86,319.647 1154.9,187.41 1155.95,188.528 1156.99,335.456 1158.03,337.028 1159.08,252.588 1160.12,255.373 1161.16,302.953 1162.21,304.684 1163.25,199.404 1164.3,200.343 1165.34,148.786 1166.38,149.335 1167.43,195.638 1168.47,196.753 1169.51,300.54 1170.56,301.702 1171.6,302.78 1172.64,303.85 1173.69,259.305 1174.73,260.022 1175.77,324.385 1176.82,325.084 1177.86,261.281 1178.9,262.704 1179.95,261.082 1180.99,261.971 1182.03,268.761 1183.08,269.552 1184.12,309.273 1185.16,310.549 1186.21,306.357 1187.25,307.995 1188.29,311.664 1189.34,312.734 1190.38,307.621 1191.42,309.27 1192.47,314.744 1193.51,315.595 1194.55,316.687 1195.6,318.011 1196.64,310.645 1197.68,312.049 1198.73,325.869 1199.77,327.14 1200.82,302.412 1201.86,303.573 1202.9,332.93 1203.95,333.543 1204.99,356.617 1206.03,358.422 1207.08,332.023 1208.12,333.153 1209.16,321.97 1210.21,322.542 1211.25,265.733 1212.29,267.698 1213.34,298.716 1214.38,300.712 1215.42,309.418 1216.47,310.182 1217.51,201.952 1218.55,203.689 1219.6,256.206 1220.64,257.268 1221.68,321.582 1222.73,323.03 1223.77,192.501 1224.81,193.237 1225.86,338.351 1226.9,339.589 1227.94,245.678 1228.99,247.332 1230.03,306.683 1231.07,308.997 1232.12,319.087 1233.16,320.181 1234.2,247.305 1235.25,248.501 1236.29,350.714 1237.33,352.073 1238.38,334.696 1239.42,335.59 1240.47,267.406 1241.51,268.307 1242.55,352.149 1243.6,354.413 1244.64,313.872 1245.68,315.75 1246.73,294.509 1247.77,295.542 1248.81,104.884 1249.86,105.814 1250.9,323.857 1251.94,324.395 1252.99,283.601 1254.03,285.128 1255.07,317.594 1256.12,320.614 1257.16,306.66 1258.2,308.139 1259.25,243.656 1260.29,243.935 1261.33,257.91 1262.38,259.923 1263.42,264.9 1264.46,265.617 1265.51,238.979 1266.55,239.392 1267.59,305.431 1268.64,306.085 1269.68,322.262 1270.72,324.169 1271.77,206.246 1272.81,207.938 1273.85,250.847 1274.9,252.383 1275.94,319.792 1276.99,320.337 1278.03,300.197 1279.07,300.811 1280.12,317.252 1281.16,319.035 1282.2,340.931 1283.25,341.191 1284.29,254.884 1285.33,255.412 1286.38,211.064 1287.42,212.408 1288.46,213.69 1289.51,215.768 1290.55,254.425 1291.59,255.437 1292.64,327.763 1293.68,328.731 1294.72,297.486 1295.77,297.978 1296.81,266.276 1297.85,267.485 1298.9,273.817 1299.94,274.784 1300.98,286.129 1302.03,286.673 1303.07,282.391 1304.11,283.643 1305.16,327.691 1306.2,329.976 1307.24,255.405 1308.29,256.584 1309.33,325.608 1310.37,327.773 1311.42,263.624 1312.46,264.702 1313.5,248.56 1314.55,250.062 1315.59,252.134 1316.64,252.73 1317.68,325.089 1318.72,327.819 1319.77,320.888 1320.81,322.213 1321.85,324.468 1322.9,325.72 1323.94,296.621 1324.98,297.696 1326.03,272.541 1327.07,274.415 1328.11,220.106 1329.16,222.166 1330.2,326.027 1331.24,327.389 1332.29,338.206 1333.33,340.452 1334.37,328.178 1335.42,328.856 1336.46,323.384 1337.5,324.005 1338.55,129.197 1339.59,131.234 1340.63,284.019 1341.68,284.833 1342.72,327.152 1343.76,328.425 1344.81,245.179 1345.85,247.063 1346.89,337.015 1347.94,338.218 1348.98,209.138 1350.02,210.51 1351.07,278.922 1352.11,280.394 1353.16,239.831 1354.2,242.99 1355.24,313.455 1356.29,314.865 1357.33,325.792 1358.37,326.707 1359.42,250.797 1360.46,252.966 1361.5,299.397 1362.55,301.608 1363.59,268.885 1364.63,269.647 1365.68,329.182 1366.72,331.588 1367.76,202.627 1368.81,204.404 1369.85,257.631 1370.89,259.793 1371.94,207.261 1372.98,207.753 1374.02,312.669 1375.07,314.579 1376.11,302.887 1377.15,304.715 1378.2,314.635 1379.24,315.457 1380.28,203.813 1381.33,205.22 1382.37,332.593 1383.41,333.559 1384.46,258.525 1385.5,259.518 1386.54,239.935 1387.59,243.37 1388.63,317.415 1389.67,317.884 1390.72,326.923 1391.76,329.194 1392.81,271.451 1393.85,273.479 1394.89,306.298 1395.94,306.982 1396.98,324.538 1398.02,325.945 1399.07,298.467 1400.11,300.651 1401.15,349.431 1402.2,350.625 1403.24,261.507 1404.28,262.361 1405.33,262.065 1406.37,262.731 1407.41,318.078 1408.46,318.694 1409.5,261.542 1410.54,262.018 1411.59,332.923 1412.63,334.177 1413.67,307.346 1414.72,309.103 1415.76,277.906 1416.8,281.476 1417.85,265.39 1418.89,266.421 1419.93,252.758 1420.98,254.116 1422.02,257.288 1423.06,260.877 1424.11,312.052 1425.15,313.466 1426.19,334.146 1427.24,334.741 1428.28,250.977 1429.33,253.579 1430.37,247.399 1431.41,248.37 1432.46,311.009 1433.5,311.688 1434.54,195.953 1435.59,196.959 1436.63,311.271 1437.67,312.668 1438.72,285.586 1439.76,286.859 1440.8,353.487 1441.85,356.183 1442.89,156.877 1443.93,158.872 1444.98,304.329 1446.02,304.691 1447.06,305.483 1448.11,306.287 1449.15,269.748 1450.19,270.771 1451.24,253.862 1452.28,254.573 1453.32,316.502 1454.37,318.077 1455.41,234.997 1456.45,236.075 1457.5,252.568 1458.54,254.389 1459.58,267.899 1460.63,269.707 1461.67,307.763 1462.71,308.893 1463.76,247.428 1464.8,248.879 1465.84,197.596 1466.89,199.364 1467.93,323.089 1468.98,324.05 1470.02,347.079 1471.06,348.139 1472.11,326.759 1473.15,327.75 1474.19,301.931 1475.24,303.212 1476.28,309.441 1477.32,311.257 1478.37,328.431 1479.41,329.369 1480.45,315.947 1481.5,317.573 1482.54,303.449 1483.58,304.569 1484.63,301.931 1485.67,303.148 1486.71,307.511 1487.76,308.605 1488.8,300.873 1489.84,301.986 1490.89,315.708 1491.93,319.135 1492.97,347.6 1494.02,348.21 1495.06,317.31 1496.1,318.56 1497.15,316.189 1498.19,317.4 1499.23,278.005 1500.28,278.851 1501.32,295.448 1502.36,297.125 1503.41,252.835 1504.45,253.643 1505.5,314.069 1506.54,314.943 1507.58,304.259 1508.63,305.69 1509.67,244.405 1510.71,245.249 1511.76,273.033 1512.8,273.613 1513.84,315.771 1514.89,317.216 1515.93,313.841 1516.97,314.871 1518.02,295.534 1519.06,297.099 1520.1,333.818 1521.15,334.771 1522.19,335.905 1523.23,337.316 1524.28,322.107 1525.32,322.937 1526.36,182.928 1527.41,184.668 1528.45,250.537 1529.49,250.977 1530.54,315.215 1531.58,317.306 1532.62,305.516 1533.67,306.017 1534.71,317.687 1535.75,319.216 1536.8,316.604 1537.84,318.063 1538.88,327.793 1539.93,328.84 1540.97,324.148 1542.01,326.075 1543.06,246.855 1544.1,248.905 1545.15,326.55 1546.19,327.763 1547.23,323.077 1548.28,323.607 1549.32,250.543 1550.36,253.852 1551.41,316.142 1552.45,317.429 1553.49,252.42 1554.54,253.445 1555.58,332.404 1556.62,333.205 1557.67,292.271 1558.71,293.706 1559.75,305.286 1560.8,305.919 1561.84,300.108 1562.88,300.978 1563.93,261.032 1564.97,261.919 1566.01,325.581 1567.06,326.361 1568.1,288.735 1569.14,289.612 1570.19,312.623 1571.23,313.179 1572.27,332.281 1573.32,333.309 1574.36,247.127 1575.4,248.49 1576.45,252.803 1577.49,254.316 1578.53,330.463 1579.58,331.687 1580.62,329.079 1581.67,330.193 1582.71,242.709 1583.75,244.169 1584.8,316.916 1585.84,317.963 1586.88,310.062 1587.93,311.388 1588.97,299.372 1590.01,300.078 1591.06,243.993 1592.1,246.37 1593.14,236.097 1594.19,236.782 1595.23,310.992 1596.27,311.338 1597.32,310.229 1598.36,311.318 1599.4,307.48 1600.45,307.949 1601.49,328.579 1602.53,329.325 1603.58,272.422 1604.62,274.57 1605.66,298.701 1606.71,300.637 1607.75,315.362 1608.79,315.811 1609.84,237.469 1610.88,239.549 1611.92,297.27 1612.97,298.22 1614.01,298.773 1615.05,299.592 1616.1,258.055 1617.14,259.16 1618.18,295.406 1619.23,296.399 1620.27,310.15 1621.32,312.291 1622.36,270.514 1623.4,273.336 1624.45,313.456 1625.49,314.716 1626.53,325.908 1627.58,328.376 1628.62,310.522 1629.66,311.149 1630.71,184.975 1631.75,187.296 1632.79,318.121 1633.84,319.42 1634.88,362.991 1635.92,364.57 1636.97,321.576 1638.01,322.403 1639.05,308.935 1640.1,310.178 1641.14,322.694 1642.18,324.489 1643.23,329.599 1644.27,330.671 1645.31,312.818 1646.36,313.634 1647.4,317.126 1648.44,317.557 1649.49,355.073 1650.53,357.773 1651.57,331.251 1652.62,332.375 1653.66,264.14 1654.7,265.745 1655.75,324.753 1656.79,325.347 1657.84,213.304 1658.88,215.102 1659.92,194.527 1660.97,194.968 1662.01,311.729 1663.05,312.272 1664.1,194.896 1665.14,196.492 1666.18,300.785 1667.23,302.439 1668.27,305.195 1669.31,305.787 1670.36,324.504 1671.4,324.915 1672.44,323.916 1673.49,325.001 1674.53,310.364 1675.57,310.752 1676.62,311.95 1677.66,312.383 1678.7,331.474 1679.75,332.803 1680.79,281.966 1681.83,282.829 1682.88,253.265 1683.92,256.901 1684.96,313.689 1686.01,313.787 1687.05,313.557 1688.09,315.615 1689.14,324.15 1690.18,326.042 1691.22,318.02 1692.27,318.726 1693.31,174.613 1694.35,176.304 1695.4,331.014 1696.44,332.932 1697.49,316.92 1698.53,318.506 1699.57,253.322 1700.62,253.687 1701.66,327.888 1702.7,328.342 1703.75,315.41 1704.79,317.401 1705.83,325.919 1706.88,326.86 1707.92,320.953 1708.96,321.928 1710.01,335.555 1711.05,336.171 1712.09,247.902 1713.14,250.199 1714.18,299.463 1715.22,300.557 1716.27,327.305 1717.31,327.969 1718.35,310.8 1719.4,313.709 1720.44,185.747 1721.48,188.499 1722.53,344.976 1723.57,345.344 1724.61,273.29 1725.66,274.518 1726.7,330.264 1727.74,331.072 1728.79,313.782 1729.83,314.3 1730.87,304.353 1731.92,306.348 1732.96,323.453 1734.01,323.977 1735.05,308.541 1736.09,310.082 1737.14,252.27 1738.18,254.044 1739.22,325.012 1740.27,325.702 1741.31,314.636 1742.35,315.324 1743.4,338.845 1744.44,341.411 1745.48,250.253 1746.53,251.977 1747.57,280.155 1748.61,281.107 1749.66,312.451 1750.7,313.603 1751.74,328.56 1752.79,329.119 1753.83,346.2 1754.87,348.438 1755.92,347.539 1756.96,349.659 1758,326.499 1759.05,327.664 1760.09,254.92 1761.13,255.957 1762.18,324.06 1763.22,324.809 1764.26,320.75 1765.31,321.088 1766.35,249.888 1767.39,251.849 1768.44,322.87 1769.48,324.105 1770.52,265.508 1771.57,266.638 1772.61,286.88 1773.66,288.54 1774.7,311.305 1775.74,313.483 1776.79,142.049 1777.83,145.231 1778.87,277.41 1779.92,279.142 1780.96,302.515 1782,303.605 1783.05,318.48 1784.09,319.124 1785.13,314.364 1786.18,316.019 1787.22,231.029 1788.26,231.923 1789.31,323.089 1790.35,324.674 1791.39,331.59 1792.44,333.296 1793.48,334.744 1794.52,336.035 1795.57,287.259 1796.61,288.414 1797.65,287.002 1798.7,290.078 1799.74,311.965 1800.78,313.567 1801.83,323.625 1802.87,325.725 1803.91,318.831 1804.96,319.628 1806,297.622 1807.04,300.475 1808.09,311.601 1809.13,313.034 1810.18,319.44 1811.22,321.584 1812.26,301.9 1813.31,303.556 1814.35,253.033 1815.39,254.567 1816.44,308.627 1817.48,309.409 1818.52,261.187 1819.57,262.858 1820.61,291.39 1821.65,292.79 1822.7,317.972 1823.74,319.108 1824.78,311.601 1825.83,312.089 1826.87,311.658 1827.91,314.39 1828.96,257.511 1830,258.857 1831.04,300.373 1832.09,300.917 1833.13,239.236 1834.17,241.462 1835.22,303.454 1836.26,305.458 1837.3,345.417 1838.35,346.659 1839.39,309.987 1840.43,310.623 1841.48,309.166 1842.52,311.548 1843.56,262.54 1844.61,263.372 1845.65,325.886 1846.69,326.306 1847.74,302.308 1848.78,303.926 1849.83,218.231 1850.87,220.773 1851.91,328.246 1852.96,328.708 1854,252.718 1855.04,253.703 1856.09,329.407 1857.13,330.332 1858.17,251.886 1859.22,253.527 1860.26,245.093 1861.3,247.245 1862.35,333.039 1863.39,333.998 1864.43,276.1 1865.48,278.285 1866.52,324.107 1867.56,325.59 1868.61,336.642 1869.65,337.524 1870.69,306.151 1871.74,307.265 1872.78,314.689 1873.82,315.897 1874.87,330.197 1875.91,330.441 1876.95,246.274 1878,247.281 1879.04,247.709 1880.08,248.076 1881.13,270.036 1882.17,270.296 1883.21,304.784 1884.26,304.964 1885.3,250.274 1886.35,251.646 1887.39,282.084 1888.43,282.758 1889.48,243.347 1890.52,244.529 1891.56,304.813 1892.61,305.761 1893.65,335.13 1894.69,336.054 1895.74,257.631 1896.78,259.058 1897.82,310.714 1898.87,313.183 1899.91,323.138 1900.95,324.439 1902,324.19 1903.04,326.347 1904.08,314.351 1905.13,316.023 1906.17,306.65 1907.21,308.124 1908.26,260.743 1909.3,261.73 1910.34,328.331 1911.39,329.256 1912.43,331.179 1913.47,332.159 1914.52,216.051 1915.56,218.472 1916.6,303.4 1917.65,303.936 1918.69,202.916 1919.73,205.356 1920.78,315.563 1921.82,317.96 1922.86,293.936 1923.91,294.315 1924.95,252.677 1926,255.714 1927.04,296.329 1928.08,298.218 1929.13,319.757 1930.17,320.547 1931.21,258.116 1932.26,258.422 1933.3,327.568 1934.34,330.005 1935.39,314.172 1936.43,315.163 1937.47,311.533 1938.52,313.23 1939.56,311.196 1940.6,312.301 1941.65,259.107 1942.69,259.997 1943.73,272.421 1944.78,274.146 1945.82,313.474 1946.86,314.185 1947.91,243.603 1948.95,244.558 1949.99,306.572 1951.04,307.384 1952.08,297.329 1953.12,298.635 1954.17,309.098 1955.21,310.874 1956.25,317.086 1957.3,320.411 1958.34,209.139 1959.38,210.86 1960.43,298.621 1961.47,300.072 1962.52,262.346 1963.56,263.1 1964.6,338.052 1965.65,339.75 1966.69,245.779 1967.73,246.9 1968.78,323.432 1969.82,324.788 1970.86,315.721 1971.91,316.886 1972.95,239.476 1973.99,242.216 1975.04,306.02 1976.08,307.271 1977.12,323.573 1978.17,324.253 1979.21,307.928 1980.25,308.765 1981.3,297.836 1982.34,298.294 1983.38,253.858 1984.43,254.632 1985.47,299.565 1986.51,302.612 1987.56,241.627 1988.6,243.251 1989.64,313.779 1990.69,316.191 1991.73,301.992 1992.77,302.33 1993.82,249.95 1994.86,250.725 1995.9,306.932 1996.95,307.752 1997.99,319.781 1999.03,320.785 2000.08,310.454 2001.12,311.363 2002.17,301.26 2003.21,303.201 2004.25,314.805 2005.3,315.727 2006.34,247.953 2007.38,250.148 2008.43,310.707 2009.47,311.257 2010.51,302.485 2011.56,303.87 2012.6,324.08 2013.64,324.665 2014.69,299.412 2015.73,300.166 2016.77,311.855 2017.82,313.389 2018.86,247.189 2019.9,249.742 2020.95,269.407 2021.99,270.87 2023.03,306.731 2024.08,307.483 2025.12,249.653 2026.16,251.557 2027.21,312.073 2028.25,313.902 2029.29,327.976 2030.34,329.301 2031.38,255.333 2032.42,256.043 2033.47,258.129 2034.51,259.306 2035.55,251.504 2036.6,252.096 2037.64,268.633 2038.69,270.79 2039.73,315.832 2040.77,318.114 2041.82,295.307 2042.86,296.758 2043.9,303.541 2044.95,305.283 2045.99,305.526 2047.03,308.193 2048.08,316.287 2049.12,317.437 2050.16,253.024 2051.21,254.181 2052.25,248.414 2053.29,250.403 2054.34,306.972 2055.38,308.738 2056.42,276.26 2057.47,278.663 2058.51,247.14 2059.55,248.143 2060.6,320.277 2061.64,322.195 2062.68,310.13 2063.73,311.212 2064.77,324.362 2065.81,326.474 2066.86,315.097 2067.9,316.819 2068.94,320.301 2069.99,321.615 2071.03,306.004 2072.07,306.884 2073.12,250.47 2074.16,251.786 2075.2,313.16 2076.25,313.931 2077.29,240.962 2078.34,242.884 2079.38,261.933 2080.42,262.204 2081.47,334.526 2082.51,335.636 2083.55,313.824 2084.6,315.761 2085.64,327.791 2086.68,328.512 2087.73,305.422 2088.77,306.307 2089.81,307.708 2090.86,308.866 2091.9,301.75 2092.94,302.715 2093.99,291.023 2095.03,294.29 2096.07,323.999 2097.12,324.905 2098.16,189.751 2099.2,193.092 2100.25,119.205 2101.29,121.126 2102.33,313.126 2103.38,314.31 2104.42,304.655 2105.46,306.501 2106.51,243.981 2107.55,246.695 2108.59,310.458 2109.64,312.01 2110.68,274.795 2111.72,275.131 2112.77,243.134 2113.81,246.123 2114.86,267.996 2115.9,271.366 2116.94,301.583 2117.99,302.286 2119.03,257.714 2120.07,259.277 2121.12,313.655 2122.16,315.17 2123.2,304.349 2124.25,306.206 2125.29,311.256 2126.33,312.497 2127.38,305.907 2128.42,306.672 2129.46,249.47 2130.51,250.372 2131.55,320.916 2132.59,322.455 2133.64,297.217 2134.68,297.936 2135.72,308.097 2136.77,309.322 2137.81,277.848 2138.85,278.975 2139.9,302.613 2140.94,304.662 2141.98,290.927 2143.03,292.683 2144.07,263.858 2145.11,265.586 2146.16,297.592 2147.2,298.832 2148.24,309.273 2149.29,311.001 2150.33,330.461 2151.37,331.695 2152.42,303.902 2153.46,304.627 2154.51,310.818 2155.55,311.672 2156.59,325.403 2157.64,326.481 2158.68,314.581 2159.72,315.678 2160.77,310.592 2161.81,312.595 2162.85,301.65 2163.9,303.406 2164.94,276.27 2165.98,277.305 2167.03,315.109 2168.07,316.217 2169.11,277.825 2170.16,278.967 2171.2,325.566 2172.24,326.834 2173.29,267.107 2174.33,267.775 2175.37,263.287 2176.42,264.42 2177.46,312.009 2178.5,313.018 2179.55,325.778 2180.59,327.167 2181.63,300.215 2182.68,302.575 2183.72,327.346 2184.76,329.445 2185.81,254.966 2186.85,255.702 2187.89,321.595 2188.94,322.656 2189.98,317.21 2191.03,317.878 2192.07,241.83 2193.11,242.912 2194.16,307.68 2195.2,309.376 2196.24,321.74 2197.29,324.101 2198.33,252.681 2199.37,253.592 2200.42,314.415 2201.46,315.659 2202.5,306.421 2203.55,307.413 2204.59,221.471 2205.63,224.8 2206.68,295.961 2207.72,297.638 2208.76,300.232 2209.81,301.968 2210.85,301.429 2211.89,302.513 2212.94,240.228 2213.98,241.546 2215.02,333.148 2216.07,334.313 2217.11,310.955 2218.15,312.105 2219.2,295.786 2220.24,298.747 2221.28,311.798 2222.33,312.677 2223.37,180.773 2224.41,181.528 2225.46,310.784 2226.5,311.781 2227.54,313.47 2228.59,315.269 2229.63,254.55 2230.68,254.816 2231.72,189.185 2232.76,191.617 2233.81,339.972 2234.85,340.177 2235.89,248.934 2236.94,249.736 2237.98,305.112 2239.02,305.802 2240.07,313.059 2241.11,313.829 2242.15,320.22 2243.2,321.32 2244.24,296.985 2245.28,298.128 2246.33,309.476 2247.37,311.759 2248.41,184.415 2249.46,187.971 2250.5,252.796 2251.54,253.318 2252.59,261.523 2253.63,263.075 2254.67,306.979 2255.72,307.667 2256.76,193.069 2257.8,197.214 2258.85,197.232 2259.89,198.531 2260.93,337.781 2261.98,340.149 2263.02,188.09 2264.06,189.272 2265.11,310.37 2266.15,311.624 2267.2,288.077 2268.24,289.962 2269.28,256.934 2270.33,258.115 2271.37,273.054 2272.41,273.339 2273.46,255.479 2274.5,257.543 2275.54,329.044 2276.59,329.661 2277.63,314.312 2278.67,316.153 2279.72,313.813 2280.76,315.273 2281.8,302.81 2282.85,303.448 2283.89,270.839 2284.93,271.523 2285.98,313.794 2287.02,314.449 2288.06,299.459 2289.11,302.082 2290.15,304.131 "/>
<path clip-path="url(#clip840)" d="M2005.38 1438.47 L2279.02 1438.47 L2279.02 1334.79 L2005.38 1334.79  Z" fill="#ffffff" fill-rule="evenodd" fill-opacity="1"/>
<polyline clip-path="url(#clip840)" style="stroke:#000000; stroke-linecap:round; stroke-linejoin:round; stroke-width:4; stroke-opacity:1; fill:none" points="2005.38,1438.47 2279.02,1438.47 2279.02,1334.79 2005.38,1334.79 2005.38,1438.47 "/>
<polyline clip-path="url(#clip840)" style="stroke:#009af9; stroke-linecap:round; stroke-linejoin:round; stroke-width:4; stroke-opacity:1; fill:none" points="2029.96,1386.63 2177.43,1386.63 "/>
<path clip-path="url(#clip840)" d="M2215.85 1406.32 Q2214.05 1410.95 2212.34 1412.36 Q2210.62 1413.78 2207.75 1413.78 L2204.35 1413.78 L2204.35 1410.21 L2206.85 1410.21 Q2208.61 1410.21 2209.58 1409.38 Q2210.55 1408.54 2211.73 1405.44 L2212.5 1403.5 L2202.01 1377.99 L2206.53 1377.99 L2214.63 1398.27 L2222.73 1377.99 L2227.24 1377.99 L2215.85 1406.32 Z" fill="#000000" fill-rule="nonzero" fill-opacity="1" /><path clip-path="url(#clip840)" d="M2234.53 1399.98 L2242.17 1399.98 L2242.17 1373.61 L2233.86 1375.28 L2233.86 1371.02 L2242.13 1369.35 L2246.8 1369.35 L2246.8 1399.98 L2254.44 1399.98 L2254.44 1403.91 L2234.53 1403.91 L2234.53 1399.98 Z" fill="#000000" fill-rule="nonzero" fill-opacity="1" /></svg>
