<?xml version="1.0" encoding="utf-8"?>
<svg xmlns="http://www.w3.org/2000/svg" xmlns:xlink="http://www.w3.org/1999/xlink" width="600" height="400" viewBox="0 0 2400 1600">
<defs>
  <clipPath id="clip330">
    <rect x="0" y="0" width="2400" height="1600"/>
  </clipPath>
</defs>
<path clip-path="url(#clip330)" d="M0 1600 L2400 1600 L2400 0 L0 0  Z" fill="#ffffff" fill-rule="evenodd" fill-opacity="1"/>
<defs>
  <clipPath id="clip331">
    <rect x="480" y="0" width="1681" height="1600"/>
  </clipPath>
</defs>
<path clip-path="url(#clip330)" d="M172.015 1486.45 L2352.76 1486.45 L2352.76 47.2441 L172.015 47.2441  Z" fill="#ffffff" fill-rule="evenodd" fill-opacity="1"/>
<defs>
  <clipPath id="clip332">
    <rect x="172" y="47" width="2182" height="1440"/>
  </clipPath>
</defs>
<polyline clip-path="url(#clip332)" style="stroke:#000000; stroke-linecap:round; stroke-linejoin:round; stroke-width:2; stroke-opacity:0.1; fill:none" points="233.734,1486.45 233.734,47.2441 "/>
<polyline clip-path="url(#clip332)" style="stroke:#000000; stroke-linecap:round; stroke-linejoin:round; stroke-width:2; stroke-opacity:0.1; fill:none" points="748.06,1486.45 748.06,47.2441 "/>
<polyline clip-path="url(#clip332)" style="stroke:#000000; stroke-linecap:round; stroke-linejoin:round; stroke-width:2; stroke-opacity:0.1; fill:none" points="1262.39,1486.45 1262.39,47.2441 "/>
<polyline clip-path="url(#clip332)" style="stroke:#000000; stroke-linecap:round; stroke-linejoin:round; stroke-width:2; stroke-opacity:0.1; fill:none" points="1776.71,1486.45 1776.71,47.2441 "/>
<polyline clip-path="url(#clip332)" style="stroke:#000000; stroke-linecap:round; stroke-linejoin:round; stroke-width:2; stroke-opacity:0.1; fill:none" points="2291.04,1486.45 2291.04,47.2441 "/>
<polyline clip-path="url(#clip330)" style="stroke:#000000; stroke-linecap:round; stroke-linejoin:round; stroke-width:4; stroke-opacity:1; fill:none" points="172.015,1486.45 2352.76,1486.45 "/>
<polyline clip-path="url(#clip330)" style="stroke:#000000; stroke-linecap:round; stroke-linejoin:round; stroke-width:4; stroke-opacity:1; fill:none" points="233.734,1486.45 233.734,1467.55 "/>
<polyline clip-path="url(#clip330)" style="stroke:#000000; stroke-linecap:round; stroke-linejoin:round; stroke-width:4; stroke-opacity:1; fill:none" points="748.06,1486.45 748.06,1467.55 "/>
<polyline clip-path="url(#clip330)" style="stroke:#000000; stroke-linecap:round; stroke-linejoin:round; stroke-width:4; stroke-opacity:1; fill:none" points="1262.39,1486.45 1262.39,1467.55 "/>
<polyline clip-path="url(#clip330)" style="stroke:#000000; stroke-linecap:round; stroke-linejoin:round; stroke-width:4; stroke-opacity:1; fill:none" points="1776.71,1486.45 1776.71,1467.55 "/>
<polyline clip-path="url(#clip330)" style="stroke:#000000; stroke-linecap:round; stroke-linejoin:round; stroke-width:4; stroke-opacity:1; fill:none" points="2291.04,1486.45 2291.04,1467.55 "/>
<path clip-path="url(#clip330)" d="M233.734 1517.37 Q230.123 1517.37 228.294 1520.93 Q226.489 1524.47 226.489 1531.6 Q226.489 1538.71 228.294 1542.27 Q230.123 1545.82 233.734 1545.82 Q237.368 1545.82 239.174 1542.27 Q241.002 1538.71 241.002 1531.6 Q241.002 1524.47 239.174 1520.93 Q237.368 1517.37 233.734 1517.37 M233.734 1513.66 Q239.544 1513.66 242.6 1518.27 Q245.678 1522.85 245.678 1531.6 Q245.678 1540.33 242.6 1544.94 Q239.544 1549.52 233.734 1549.52 Q227.924 1549.52 224.845 1544.94 Q221.79 1540.33 221.79 1531.6 Q221.79 1522.85 224.845 1518.27 Q227.924 1513.66 233.734 1513.66 Z" fill="#000000" fill-rule="nonzero" fill-opacity="1" /><path clip-path="url(#clip330)" d="M707.678 1514.29 L726.034 1514.29 L726.034 1518.22 L711.96 1518.22 L711.96 1526.7 Q712.979 1526.35 713.997 1526.19 Q715.016 1526 716.034 1526 Q721.821 1526 725.201 1529.17 Q728.581 1532.34 728.581 1537.76 Q728.581 1543.34 725.108 1546.44 Q721.636 1549.52 715.317 1549.52 Q713.141 1549.52 710.872 1549.15 Q708.627 1548.78 706.22 1548.04 L706.22 1543.34 Q708.303 1544.47 710.525 1545.03 Q712.747 1545.58 715.224 1545.58 Q719.229 1545.58 721.567 1543.48 Q723.905 1541.37 723.905 1537.76 Q723.905 1534.15 721.567 1532.04 Q719.229 1529.94 715.224 1529.94 Q713.349 1529.94 711.474 1530.35 Q709.622 1530.77 707.678 1531.65 L707.678 1514.29 Z" fill="#000000" fill-rule="nonzero" fill-opacity="1" /><path clip-path="url(#clip330)" d="M747.793 1517.37 Q744.182 1517.37 742.354 1520.93 Q740.548 1524.47 740.548 1531.6 Q740.548 1538.71 742.354 1542.27 Q744.182 1545.82 747.793 1545.82 Q751.428 1545.82 753.233 1542.27 Q755.062 1538.71 755.062 1531.6 Q755.062 1524.47 753.233 1520.93 Q751.428 1517.37 747.793 1517.37 M747.793 1513.66 Q753.604 1513.66 756.659 1518.27 Q759.738 1522.85 759.738 1531.6 Q759.738 1540.33 756.659 1544.94 Q753.604 1549.52 747.793 1549.52 Q741.983 1549.52 738.905 1544.94 Q735.849 1540.33 735.849 1531.6 Q735.849 1522.85 738.905 1518.27 Q741.983 1513.66 747.793 1513.66 Z" fill="#000000" fill-rule="nonzero" fill-opacity="1" /><path clip-path="url(#clip330)" d="M777.955 1517.37 Q774.344 1517.37 772.516 1520.93 Q770.71 1524.47 770.71 1531.6 Q770.71 1538.71 772.516 1542.27 Q774.344 1545.82 777.955 1545.82 Q781.59 1545.82 783.395 1542.27 Q785.224 1538.71 785.224 1531.6 Q785.224 1524.47 783.395 1520.93 Q781.59 1517.37 777.955 1517.37 M777.955 1513.66 Q783.765 1513.66 786.821 1518.27 Q789.9 1522.85 789.9 1531.6 Q789.9 1540.33 786.821 1544.94 Q783.765 1549.52 777.955 1549.52 Q772.145 1549.52 769.066 1544.94 Q766.011 1540.33 766.011 1531.6 Q766.011 1522.85 769.066 1518.27 Q772.145 1513.66 777.955 1513.66 Z" fill="#000000" fill-rule="nonzero" fill-opacity="1" /><path clip-path="url(#clip330)" d="M1206.91 1544.91 L1214.55 1544.91 L1214.55 1518.55 L1206.24 1520.21 L1206.24 1515.95 L1214.5 1514.29 L1219.18 1514.29 L1219.18 1544.91 L1226.82 1544.91 L1226.82 1548.85 L1206.91 1548.85 L1206.91 1544.91 Z" fill="#000000" fill-rule="nonzero" fill-opacity="1" /><path clip-path="url(#clip330)" d="M1246.26 1517.37 Q1242.65 1517.37 1240.82 1520.93 Q1239.02 1524.47 1239.02 1531.6 Q1239.02 1538.71 1240.82 1542.27 Q1242.65 1545.82 1246.26 1545.82 Q1249.9 1545.82 1251.7 1542.27 Q1253.53 1538.71 1253.53 1531.6 Q1253.53 1524.47 1251.7 1520.93 Q1249.9 1517.37 1246.26 1517.37 M1246.26 1513.66 Q1252.07 1513.66 1255.13 1518.27 Q1258.21 1522.85 1258.21 1531.6 Q1258.21 1540.33 1255.13 1544.94 Q1252.07 1549.52 1246.26 1549.52 Q1240.45 1549.52 1237.37 1544.94 Q1234.32 1540.33 1234.32 1531.6 Q1234.32 1522.85 1237.37 1518.27 Q1240.45 1513.66 1246.26 1513.66 Z" fill="#000000" fill-rule="nonzero" fill-opacity="1" /><path clip-path="url(#clip330)" d="M1276.42 1517.37 Q1272.81 1517.37 1270.98 1520.93 Q1269.18 1524.47 1269.18 1531.6 Q1269.18 1538.71 1270.98 1542.27 Q1272.81 1545.82 1276.42 1545.82 Q1280.06 1545.82 1281.86 1542.27 Q1283.69 1538.71 1283.69 1531.6 Q1283.69 1524.47 1281.86 1520.93 Q1280.06 1517.37 1276.42 1517.37 M1276.42 1513.66 Q1282.23 1513.66 1285.29 1518.27 Q1288.37 1522.85 1288.37 1531.6 Q1288.37 1540.33 1285.29 1544.94 Q1282.23 1549.52 1276.42 1549.52 Q1270.61 1549.52 1267.54 1544.94 Q1264.48 1540.33 1264.48 1531.6 Q1264.48 1522.85 1267.54 1518.27 Q1270.61 1513.66 1276.42 1513.66 Z" fill="#000000" fill-rule="nonzero" fill-opacity="1" /><path clip-path="url(#clip330)" d="M1306.59 1517.37 Q1302.98 1517.37 1301.15 1520.93 Q1299.34 1524.47 1299.34 1531.6 Q1299.34 1538.71 1301.15 1542.27 Q1302.98 1545.82 1306.59 1545.82 Q1310.22 1545.82 1312.03 1542.27 Q1313.85 1538.71 1313.85 1531.6 Q1313.85 1524.47 1312.03 1520.93 Q1310.22 1517.37 1306.59 1517.37 M1306.59 1513.66 Q1312.4 1513.66 1315.45 1518.27 Q1318.53 1522.85 1318.53 1531.6 Q1318.53 1540.33 1315.45 1544.94 Q1312.4 1549.52 1306.59 1549.52 Q1300.78 1549.52 1297.7 1544.94 Q1294.64 1540.33 1294.64 1531.6 Q1294.64 1522.85 1297.7 1518.27 Q1300.78 1513.66 1306.59 1513.66 Z" fill="#000000" fill-rule="nonzero" fill-opacity="1" /><path clip-path="url(#clip330)" d="M1721.24 1544.91 L1728.88 1544.91 L1728.88 1518.55 L1720.57 1520.21 L1720.57 1515.95 L1728.83 1514.29 L1733.51 1514.29 L1733.51 1544.91 L1741.14 1544.91 L1741.14 1548.85 L1721.24 1548.85 L1721.24 1544.91 Z" fill="#000000" fill-rule="nonzero" fill-opacity="1" /><path clip-path="url(#clip330)" d="M1750.63 1514.29 L1768.99 1514.29 L1768.99 1518.22 L1754.92 1518.22 L1754.92 1526.7 Q1755.94 1526.35 1756.95 1526.19 Q1757.97 1526 1758.99 1526 Q1764.78 1526 1768.16 1529.17 Q1771.54 1532.34 1771.54 1537.76 Q1771.54 1543.34 1768.07 1546.44 Q1764.59 1549.52 1758.27 1549.52 Q1756.1 1549.52 1753.83 1549.15 Q1751.58 1548.78 1749.18 1548.04 L1749.18 1543.34 Q1751.26 1544.47 1753.48 1545.03 Q1755.7 1545.58 1758.18 1545.58 Q1762.19 1545.58 1764.52 1543.48 Q1766.86 1541.37 1766.86 1537.76 Q1766.86 1534.15 1764.52 1532.04 Q1762.19 1529.94 1758.18 1529.94 Q1756.31 1529.94 1754.43 1530.35 Q1752.58 1530.77 1750.63 1531.65 L1750.63 1514.29 Z" fill="#000000" fill-rule="nonzero" fill-opacity="1" /><path clip-path="url(#clip330)" d="M1790.75 1517.37 Q1787.14 1517.37 1785.31 1520.93 Q1783.51 1524.47 1783.51 1531.6 Q1783.51 1538.71 1785.31 1542.27 Q1787.14 1545.82 1790.75 1545.82 Q1794.38 1545.82 1796.19 1542.27 Q1798.02 1538.71 1798.02 1531.6 Q1798.02 1524.47 1796.19 1520.93 Q1794.38 1517.37 1790.75 1517.37 M1790.75 1513.66 Q1796.56 1513.66 1799.62 1518.27 Q1802.69 1522.85 1802.69 1531.6 Q1802.69 1540.33 1799.62 1544.94 Q1796.56 1549.52 1790.75 1549.52 Q1784.94 1549.52 1781.86 1544.94 Q1778.81 1540.33 1778.81 1531.6 Q1778.81 1522.85 1781.86 1518.27 Q1784.94 1513.66 1790.75 1513.66 Z" fill="#000000" fill-rule="nonzero" fill-opacity="1" /><path clip-path="url(#clip330)" d="M1820.91 1517.37 Q1817.3 1517.37 1815.47 1520.93 Q1813.67 1524.47 1813.67 1531.6 Q1813.67 1538.71 1815.47 1542.27 Q1817.3 1545.82 1820.91 1545.82 Q1824.55 1545.82 1826.35 1542.27 Q1828.18 1538.71 1828.18 1531.6 Q1828.18 1524.47 1826.35 1520.93 Q1824.55 1517.37 1820.91 1517.37 M1820.91 1513.66 Q1826.72 1513.66 1829.78 1518.27 Q1832.86 1522.85 1832.86 1531.6 Q1832.86 1540.33 1829.78 1544.94 Q1826.72 1549.52 1820.91 1549.52 Q1815.1 1549.52 1812.02 1544.94 Q1808.97 1540.33 1808.97 1531.6 Q1808.97 1522.85 1812.02 1518.27 Q1815.1 1513.66 1820.91 1513.66 Z" fill="#000000" fill-rule="nonzero" fill-opacity="1" /><path clip-path="url(#clip330)" d="M2239.65 1544.91 L2255.97 1544.91 L2255.97 1548.85 L2234.02 1548.85 L2234.02 1544.91 Q2236.69 1542.16 2241.27 1537.53 Q2245.88 1532.88 2247.06 1531.53 Q2249.3 1529.01 2250.18 1527.27 Q2251.08 1525.51 2251.08 1523.82 Q2251.08 1521.07 2249.14 1519.33 Q2247.22 1517.6 2244.12 1517.6 Q2241.92 1517.6 2239.46 1518.36 Q2237.03 1519.13 2234.25 1520.68 L2234.25 1515.95 Q2237.08 1514.82 2239.53 1514.24 Q2241.99 1513.66 2244.02 1513.66 Q2249.39 1513.66 2252.59 1516.35 Q2255.78 1519.03 2255.78 1523.52 Q2255.78 1525.65 2254.97 1527.57 Q2254.19 1529.47 2252.08 1532.07 Q2251.5 1532.74 2248.4 1535.95 Q2245.3 1539.15 2239.65 1544.91 Z" fill="#000000" fill-rule="nonzero" fill-opacity="1" /><path clip-path="url(#clip330)" d="M2275.78 1517.37 Q2272.17 1517.37 2270.34 1520.93 Q2268.54 1524.47 2268.54 1531.6 Q2268.54 1538.71 2270.34 1542.27 Q2272.17 1545.82 2275.78 1545.82 Q2279.42 1545.82 2281.22 1542.27 Q2283.05 1538.71 2283.05 1531.6 Q2283.05 1524.47 2281.22 1520.93 Q2279.42 1517.37 2275.78 1517.37 M2275.78 1513.66 Q2281.59 1513.66 2284.65 1518.27 Q2287.73 1522.85 2287.73 1531.6 Q2287.73 1540.33 2284.65 1544.94 Q2281.59 1549.52 2275.78 1549.52 Q2269.97 1549.52 2266.89 1544.94 Q2263.84 1540.33 2263.84 1531.6 Q2263.84 1522.85 2266.89 1518.27 Q2269.97 1513.66 2275.78 1513.66 Z" fill="#000000" fill-rule="nonzero" fill-opacity="1" /><path clip-path="url(#clip330)" d="M2305.94 1517.37 Q2302.33 1517.37 2300.5 1520.93 Q2298.7 1524.47 2298.7 1531.6 Q2298.7 1538.71 2300.5 1542.27 Q2302.33 1545.82 2305.94 1545.82 Q2309.58 1545.82 2311.38 1542.27 Q2313.21 1538.71 2313.21 1531.6 Q2313.21 1524.47 2311.38 1520.93 Q2309.58 1517.37 2305.94 1517.37 M2305.94 1513.66 Q2311.75 1513.66 2314.81 1518.27 Q2317.89 1522.85 2317.89 1531.6 Q2317.89 1540.33 2314.81 1544.94 Q2311.75 1549.52 2305.94 1549.52 Q2300.13 1549.52 2297.06 1544.94 Q2294 1540.33 2294 1531.6 Q2294 1522.85 2297.06 1518.27 Q2300.13 1513.66 2305.94 1513.66 Z" fill="#000000" fill-rule="nonzero" fill-opacity="1" /><path clip-path="url(#clip330)" d="M2336.11 1517.37 Q2332.49 1517.37 2330.67 1520.93 Q2328.86 1524.47 2328.86 1531.6 Q2328.86 1538.71 2330.67 1542.27 Q2332.49 1545.82 2336.11 1545.82 Q2339.74 1545.82 2341.55 1542.27 Q2343.37 1538.71 2343.37 1531.6 Q2343.37 1524.47 2341.55 1520.93 Q2339.74 1517.37 2336.11 1517.37 M2336.11 1513.66 Q2341.92 1513.66 2344.97 1518.27 Q2348.05 1522.85 2348.05 1531.6 Q2348.05 1540.33 2344.97 1544.94 Q2341.92 1549.52 2336.11 1549.52 Q2330.3 1549.52 2327.22 1544.94 Q2324.16 1540.33 2324.16 1531.6 Q2324.16 1522.85 2327.22 1518.27 Q2330.3 1513.66 2336.11 1513.66 Z" fill="#000000" fill-rule="nonzero" fill-opacity="1" /><polyline clip-path="url(#clip332)" style="stroke:#000000; stroke-linecap:round; stroke-linejoin:round; stroke-width:2; stroke-opacity:0.1; fill:none" points="172.015,1183.95 2352.76,1183.95 "/>
<polyline clip-path="url(#clip332)" style="stroke:#000000; stroke-linecap:round; stroke-linejoin:round; stroke-width:2; stroke-opacity:0.1; fill:none" points="172.015,812.65 2352.76,812.65 "/>
<polyline clip-path="url(#clip332)" style="stroke:#000000; stroke-linecap:round; stroke-linejoin:round; stroke-width:2; stroke-opacity:0.1; fill:none" points="172.015,441.348 2352.76,441.348 "/>
<polyline clip-path="url(#clip332)" style="stroke:#000000; stroke-linecap:round; stroke-linejoin:round; stroke-width:2; stroke-opacity:0.1; fill:none" points="172.015,70.0459 2352.76,70.0459 "/>
<polyline clip-path="url(#clip330)" style="stroke:#000000; stroke-linecap:round; stroke-linejoin:round; stroke-width:4; stroke-opacity:1; fill:none" points="172.015,1486.45 172.015,47.2441 "/>
<polyline clip-path="url(#clip330)" style="stroke:#000000; stroke-linecap:round; stroke-linejoin:round; stroke-width:4; stroke-opacity:1; fill:none" points="172.015,1183.95 190.912,1183.95 "/>
<polyline clip-path="url(#clip330)" style="stroke:#000000; stroke-linecap:round; stroke-linejoin:round; stroke-width:4; stroke-opacity:1; fill:none" points="172.015,812.65 190.912,812.65 "/>
<polyline clip-path="url(#clip330)" style="stroke:#000000; stroke-linecap:round; stroke-linejoin:round; stroke-width:4; stroke-opacity:1; fill:none" points="172.015,441.348 190.912,441.348 "/>
<polyline clip-path="url(#clip330)" style="stroke:#000000; stroke-linecap:round; stroke-linejoin:round; stroke-width:4; stroke-opacity:1; fill:none" points="172.015,70.0459 190.912,70.0459 "/>
<path clip-path="url(#clip330)" d="M66.5939 1170.75 L54.7884 1189.19 L66.5939 1189.19 L66.5939 1170.75 M65.367 1166.67 L71.2466 1166.67 L71.2466 1189.19 L76.1772 1189.19 L76.1772 1193.08 L71.2466 1193.08 L71.2466 1201.23 L66.5939 1201.23 L66.5939 1193.08 L50.9921 1193.08 L50.9921 1188.57 L65.367 1166.67 Z" fill="#000000" fill-rule="nonzero" fill-opacity="1" /><path clip-path="url(#clip330)" d="M93.9086 1169.75 Q90.2975 1169.75 88.4688 1173.31 Q86.6632 1176.86 86.6632 1183.99 Q86.6632 1191.09 88.4688 1194.66 Q90.2975 1198.2 93.9086 1198.2 Q97.5428 1198.2 99.3483 1194.66 Q101.177 1191.09 101.177 1183.99 Q101.177 1176.86 99.3483 1173.31 Q97.5428 1169.75 93.9086 1169.75 M93.9086 1166.05 Q99.7187 1166.05 102.774 1170.65 Q105.853 1175.24 105.853 1183.99 Q105.853 1192.71 102.774 1197.32 Q99.7187 1201.9 93.9086 1201.9 Q88.0984 1201.9 85.0197 1197.32 Q81.9642 1192.71 81.9642 1183.99 Q81.9642 1175.24 85.0197 1170.65 Q88.0984 1166.05 93.9086 1166.05 Z" fill="#000000" fill-rule="nonzero" fill-opacity="1" /><path clip-path="url(#clip330)" d="M124.07 1169.75 Q120.459 1169.75 118.631 1173.31 Q116.825 1176.86 116.825 1183.99 Q116.825 1191.09 118.631 1194.66 Q120.459 1198.2 124.07 1198.2 Q127.705 1198.2 129.51 1194.66 Q131.339 1191.09 131.339 1183.99 Q131.339 1176.86 129.51 1173.31 Q127.705 1169.75 124.07 1169.75 M124.07 1166.05 Q129.881 1166.05 132.936 1170.65 Q136.015 1175.24 136.015 1183.99 Q136.015 1192.71 132.936 1197.32 Q129.881 1201.9 124.07 1201.9 Q118.26 1201.9 115.182 1197.32 Q112.126 1192.71 112.126 1183.99 Q112.126 1175.24 115.182 1170.65 Q118.26 1166.05 124.07 1166.05 Z" fill="#000000" fill-rule="nonzero" fill-opacity="1" /><path clip-path="url(#clip330)" d="M53.793 795.37 L72.1494 795.37 L72.1494 799.305 L58.0754 799.305 L58.0754 807.777 Q59.0939 807.43 60.1124 807.268 Q61.131 807.083 62.1495 807.083 Q67.9365 807.083 71.3161 810.254 Q74.6957 813.425 74.6957 818.842 Q74.6957 824.42 71.2235 827.522 Q67.7513 830.601 61.4319 830.601 Q59.256 830.601 56.9875 830.231 Q54.7421 829.86 52.3347 829.119 L52.3347 824.42 Q54.418 825.555 56.6402 826.11 Q58.8625 826.666 61.3393 826.666 Q65.3439 826.666 67.6819 824.559 Q70.0198 822.453 70.0198 818.842 Q70.0198 815.231 67.6819 813.124 Q65.3439 811.018 61.3393 811.018 Q59.4643 811.018 57.5893 811.434 Q55.7375 811.851 53.793 812.731 L53.793 795.37 Z" fill="#000000" fill-rule="nonzero" fill-opacity="1" /><path clip-path="url(#clip330)" d="M93.9086 798.448 Q90.2975 798.448 88.4688 802.013 Q86.6632 805.555 86.6632 812.684 Q86.6632 819.791 88.4688 823.356 Q90.2975 826.897 93.9086 826.897 Q97.5428 826.897 99.3483 823.356 Q101.177 819.791 101.177 812.684 Q101.177 805.555 99.3483 802.013 Q97.5428 798.448 93.9086 798.448 M93.9086 794.745 Q99.7187 794.745 102.774 799.351 Q105.853 803.934 105.853 812.684 Q105.853 821.411 102.774 826.018 Q99.7187 830.601 93.9086 830.601 Q88.0984 830.601 85.0197 826.018 Q81.9642 821.411 81.9642 812.684 Q81.9642 803.934 85.0197 799.351 Q88.0984 794.745 93.9086 794.745 Z" fill="#000000" fill-rule="nonzero" fill-opacity="1" /><path clip-path="url(#clip330)" d="M124.07 798.448 Q120.459 798.448 118.631 802.013 Q116.825 805.555 116.825 812.684 Q116.825 819.791 118.631 823.356 Q120.459 826.897 124.07 826.897 Q127.705 826.897 129.51 823.356 Q131.339 819.791 131.339 812.684 Q131.339 805.555 129.51 802.013 Q127.705 798.448 124.07 798.448 M124.07 794.745 Q129.881 794.745 132.936 799.351 Q136.015 803.934 136.015 812.684 Q136.015 821.411 132.936 826.018 Q129.881 830.601 124.07 830.601 Q118.26 830.601 115.182 826.018 Q112.126 821.411 112.126 812.684 Q112.126 803.934 115.182 799.351 Q118.26 794.745 124.07 794.745 Z" fill="#000000" fill-rule="nonzero" fill-opacity="1" /><path clip-path="url(#clip330)" d="M64.3254 439.484 Q61.1773 439.484 59.3254 441.637 Q57.4967 443.79 57.4967 447.54 Q57.4967 451.267 59.3254 453.443 Q61.1773 455.595 64.3254 455.595 Q67.4735 455.595 69.3022 453.443 Q71.1541 451.267 71.1541 447.54 Q71.1541 443.79 69.3022 441.637 Q67.4735 439.484 64.3254 439.484 M73.6077 424.832 L73.6077 429.091 Q71.8485 428.258 70.0429 427.818 Q68.2606 427.378 66.5013 427.378 Q61.8717 427.378 59.418 430.503 Q56.9875 433.628 56.6402 439.947 Q58.006 437.933 60.0662 436.869 Q62.1263 435.781 64.6032 435.781 Q69.8115 435.781 72.8207 438.952 Q75.8531 442.1 75.8531 447.54 Q75.8531 452.864 72.705 456.082 Q69.5568 459.299 64.3254 459.299 Q58.33 459.299 55.1588 454.716 Q51.9875 450.109 51.9875 441.383 Q51.9875 433.188 55.8764 428.327 Q59.7652 423.443 66.3161 423.443 Q68.0754 423.443 69.8578 423.79 Q71.6633 424.137 73.6077 424.832 Z" fill="#000000" fill-rule="nonzero" fill-opacity="1" /><path clip-path="url(#clip330)" d="M93.9086 427.146 Q90.2975 427.146 88.4688 430.711 Q86.6632 434.253 86.6632 441.383 Q86.6632 448.489 88.4688 452.054 Q90.2975 455.595 93.9086 455.595 Q97.5428 455.595 99.3483 452.054 Q101.177 448.489 101.177 441.383 Q101.177 434.253 99.3483 430.711 Q97.5428 427.146 93.9086 427.146 M93.9086 423.443 Q99.7187 423.443 102.774 428.049 Q105.853 432.633 105.853 441.383 Q105.853 450.109 102.774 454.716 Q99.7187 459.299 93.9086 459.299 Q88.0984 459.299 85.0197 454.716 Q81.9642 450.109 81.9642 441.383 Q81.9642 432.633 85.0197 428.049 Q88.0984 423.443 93.9086 423.443 Z" fill="#000000" fill-rule="nonzero" fill-opacity="1" /><path clip-path="url(#clip330)" d="M124.07 427.146 Q120.459 427.146 118.631 430.711 Q116.825 434.253 116.825 441.383 Q116.825 448.489 118.631 452.054 Q120.459 455.595 124.07 455.595 Q127.705 455.595 129.51 452.054 Q131.339 448.489 131.339 441.383 Q131.339 434.253 129.51 430.711 Q127.705 427.146 124.07 427.146 M124.07 423.443 Q129.881 423.443 132.936 428.049 Q136.015 432.633 136.015 441.383 Q136.015 450.109 132.936 454.716 Q129.881 459.299 124.07 459.299 Q118.26 459.299 115.182 454.716 Q112.126 450.109 112.126 441.383 Q112.126 432.633 115.182 428.049 Q118.26 423.443 124.07 423.443 Z" fill="#000000" fill-rule="nonzero" fill-opacity="1" /><path clip-path="url(#clip330)" d="M52.5662 52.7659 L74.7883 52.7659 L74.7883 54.7567 L62.2421 87.3259 L57.3578 87.3259 L69.1633 56.7011 L52.5662 56.7011 L52.5662 52.7659 Z" fill="#000000" fill-rule="nonzero" fill-opacity="1" /><path clip-path="url(#clip330)" d="M93.9086 55.8446 Q90.2975 55.8446 88.4688 59.4094 Q86.6632 62.9511 86.6632 70.0807 Q86.6632 77.1871 88.4688 80.7519 Q90.2975 84.2936 93.9086 84.2936 Q97.5428 84.2936 99.3483 80.7519 Q101.177 77.1871 101.177 70.0807 Q101.177 62.9511 99.3483 59.4094 Q97.5428 55.8446 93.9086 55.8446 M93.9086 52.1409 Q99.7187 52.1409 102.774 56.7474 Q105.853 61.3307 105.853 70.0807 Q105.853 78.8075 102.774 83.4139 Q99.7187 87.9972 93.9086 87.9972 Q88.0984 87.9972 85.0197 83.4139 Q81.9642 78.8075 81.9642 70.0807 Q81.9642 61.3307 85.0197 56.7474 Q88.0984 52.1409 93.9086 52.1409 Z" fill="#000000" fill-rule="nonzero" fill-opacity="1" /><path clip-path="url(#clip330)" d="M124.07 55.8446 Q120.459 55.8446 118.631 59.4094 Q116.825 62.9511 116.825 70.0807 Q116.825 77.1871 118.631 80.7519 Q120.459 84.2936 124.07 84.2936 Q127.705 84.2936 129.51 80.7519 Q131.339 77.1871 131.339 70.0807 Q131.339 62.9511 129.51 59.4094 Q127.705 55.8446 124.07 55.8446 M124.07 52.1409 Q129.881 52.1409 132.936 56.7474 Q136.015 61.3307 136.015 70.0807 Q136.015 78.8075 132.936 83.4139 Q129.881 87.9972 124.07 87.9972 Q118.26 87.9972 115.182 83.4139 Q112.126 78.8075 112.126 70.0807 Q112.126 61.3307 115.182 56.7474 Q118.26 52.1409 124.07 52.1409 Z" fill="#000000" fill-rule="nonzero" fill-opacity="1" /><polyline clip-path="url(#clip332)" style="stroke:#009af9; stroke-linecap:round; stroke-linejoin:round; stroke-width:4; stroke-opacity:1; fill:none" points="233.734,87.9763 234.763,641.164 235.791,898.013 236.82,1060.84 237.849,1161.01 238.877,1234.86 239.906,1289.65 240.934,1325.61 241.963,1350.95 242.992,1369.77 244.02,1383.92 245.049,1394.71 246.078,1403.05 247.106,1409.6 248.135,1414.81 249.164,1419.02 250.192,1422.47 251.221,1425.31 252.25,1427.7 253.278,1429.63 254.307,1431.19 255.336,1432.52 256.364,1433.65 257.393,1434.63 258.422,1435.48 259.45,1436.22 260.479,1436.86 261.507,1437.43 262.536,1437.94 263.565,1438.39 264.593,1438.79 265.622,1439.14 266.651,1439.47 267.679,1439.76 268.708,1440.02 269.737,1440.26 270.765,1440.48 271.794,1440.68 272.823,1440.87 273.851,1441.04 274.88,1441.2 275.909,1441.34 276.937,1441.48 277.966,1441.6 278.995,1441.72 280.023,1441.83 281.052,1441.93 282.081,1442.02 283.109,1442.11 284.138,1442.2 285.166,1442.28 286.195,1442.35 287.224,1442.42 288.252,1442.49 289.281,1442.55 290.31,1442.61 291.338,1442.67 292.367,1442.73 293.396,1442.78 294.424,1442.83 295.453,1442.88 296.482,1442.92 297.51,1442.97 298.539,1443.01 299.568,1443.05 300.596,1443.09 301.625,1443.12 302.654,1443.16 303.682,1443.19 304.711,1443.23 305.74,1443.26 306.768,1443.29 307.797,1443.32 308.825,1443.35 309.854,1443.38 310.883,1443.4 311.911,1443.43 312.94,1443.45 313.969,1443.48 314.997,1443.5 316.026,1443.52 317.055,1443.55 318.083,1443.57 319.112,1443.59 320.141,1443.61 321.169,1443.63 322.198,1443.65 323.227,1443.66 324.255,1443.68 325.284,1443.7 326.313,1443.71 327.341,1443.73 328.37,1443.75 329.398,1443.76 330.427,1443.78 331.456,1443.79 332.484,1443.8 333.513,1443.82 334.542,1443.83 335.57,1443.84 336.599,1443.85 337.628,1443.86 338.656,1443.88 339.685,1443.89 340.714,1443.9 341.742,1443.91 342.771,1443.92 343.8,1443.93 344.828,1443.94 345.857,1443.94 346.886,1443.95 347.914,1443.96 348.943,1443.97 349.972,1443.98 351,1443.99 352.029,1443.99 353.057,1444 354.086,1444.01 355.115,1444.01 356.143,1444.02 357.172,1444.03 358.201,1444.03 359.229,1444.04 360.258,1444.04 361.287,1444.05 362.315,1444.05 363.344,1444.06 364.373,1444.06 365.401,1444.07 366.43,1444.07 367.459,1444.08 368.487,1444.08 369.516,1444.08 370.545,1444.09 371.573,1444.09 372.602,1444.1 373.631,1444.1 374.659,1444.1 375.688,1444.11 376.716,1444.11 377.745,1444.11 378.774,1444.11 379.802,1444.12 380.831,1444.12 381.86,1444.12 382.888,1444.12 383.917,1444.13 384.946,1444.13 385.974,1444.13 387.003,1444.13 388.032,1444.14 389.06,1444.14 390.089,1444.14 391.118,1444.14 392.146,1444.14 393.175,1444.15 394.204,1444.15 395.232,1444.15 396.261,1444.15 397.289,1444.15 398.318,1444.15 399.347,1444.15 400.375,1444.16 401.404,1444.16 402.433,1444.16 403.461,1444.16 404.49,1444.16 405.519,1444.16 406.547,1444.16 407.576,1444.16 408.605,1444.16 409.633,1444.17 410.662,1444.17 411.691,1444.17 412.719,1444.17 413.748,1444.17 414.777,1444.17 415.805,1444.17 416.834,1444.17 417.863,1444.17 418.891,1444.17 419.92,1444.17 420.948,1444.17 421.977,1444.17 423.006,1444.18 424.034,1444.18 425.063,1444.18 426.092,1444.18 427.12,1444.18 428.149,1444.18 429.178,1444.18 430.206,1444.18 431.235,1444.18 432.264,1444.18 433.292,1444.18 434.321,1444.18 435.35,1444.18 436.378,1444.18 437.407,1444.18 438.436,1444.18 439.464,1444.18 440.493,1444.18 441.522,1444.18 442.55,1444.18 443.579,1444.18 444.607,1444.18 445.636,1444.18 446.665,1444.18 447.693,1444.18 448.722,1444.18 449.751,1444.18 450.779,1444.18 451.808,1444.19 452.837,1444.19 453.865,1444.19 454.894,1444.19 455.923,1444.19 456.951,1444.19 457.98,1444.19 459.009,1444.19 460.037,1444.19 461.066,1444.19 462.095,1444.19 463.123,1444.19 464.152,1444.19 465.18,1444.19 466.209,1444.19 467.238,1444.19 468.266,1444.19 469.295,1444.19 470.324,1444.19 471.352,1444.19 472.381,1444.19 473.41,1444.19 474.438,1444.19 475.467,1444.19 476.496,1444.19 477.524,1444.19 478.553,1444.19 479.582,1444.19 480.61,1444.19 481.639,1444.19 482.668,1444.19 483.696,1444.19 484.725,1444.19 485.754,1444.19 486.782,1444.19 487.811,1444.19 488.839,1444.19 489.868,1444.19 490.897,1444.19 491.925,1444.19 492.954,1444.19 493.983,1444.19 495.011,1444.19 496.04,1444.19 497.069,1444.19 498.097,1444.19 499.126,1444.19 500.155,1444.19 501.183,1444.19 502.212,1444.19 503.241,1444.19 504.269,1444.19 505.298,1444.19 506.327,1444.19 507.355,1444.19 508.384,1444.19 509.412,1444.19 510.441,1444.19 511.47,1444.19 512.498,1444.19 513.527,1444.19 514.556,1444.19 515.584,1444.19 516.613,1444.19 517.642,1444.19 518.67,1444.19 519.699,1444.19 520.728,1444.19 521.756,1444.19 522.785,1444.19 523.814,1444.19 524.842,1444.19 525.871,1444.19 526.9,1444.19 527.928,1444.19 528.957,1444.19 529.986,1444.19 531.014,1444.19 532.043,1444.19 533.071,1444.19 534.1,1444.19 535.129,1444.19 536.157,1444.19 537.186,1444.19 538.215,1444.19 539.243,1444.19 540.272,1444.19 541.301,1444.19 542.329,1444.19 543.358,1444.19 544.387,1444.19 545.415,1444.19 546.444,1444.19 547.473,1444.19 548.501,1444.19 549.53,1444.19 550.559,1444.19 551.587,1444.19 552.616,1444.19 553.645,1444.19 554.673,1444.19 555.702,1444.19 556.73,1444.19 557.759,1444.19 558.788,1444.19 559.816,1444.19 560.845,1444.19 561.874,1444.19 562.902,1444.19 563.931,1444.19 564.96,1444.19 565.988,1444.19 567.017,1444.19 568.046,1444.19 569.074,1444.19 570.103,1444.19 571.132,1444.19 572.16,1444.19 573.189,1444.19 574.218,1444.19 575.246,1444.19 576.275,1444.19 577.303,1444.19 578.332,1444.19 579.361,1444.19 580.389,1444.19 581.418,1444.19 582.447,1444.19 583.475,1444.19 584.504,1444.19 585.533,1444.19 586.561,1444.19 587.59,1444.19 588.619,1444.19 589.647,1444.19 590.676,1444.19 591.705,1444.19 592.733,1444.19 593.762,1444.19 594.791,1444.19 595.819,1444.19 596.848,1444.19 597.877,1444.19 598.905,1444.19 599.934,1444.19 600.962,1444.19 601.991,1444.19 603.02,1444.19 604.048,1444.19 605.077,1444.19 606.106,1444.19 607.134,1444.19 608.163,1444.19 609.192,1444.19 610.22,1444.19 611.249,1444.19 612.278,1444.19 613.306,1444.19 614.335,1444.19 615.364,1444.19 616.392,1444.19 617.421,1444.19 618.45,1444.19 619.478,1444.19 620.507,1444.19 621.536,1444.19 622.564,1444.19 623.593,1444.19 624.621,1444.19 625.65,1444.19 626.679,1444.19 627.707,1444.19 628.736,1444.19 629.765,1444.19 630.793,1444.19 631.822,1444.19 632.851,1444.19 633.879,1444.19 634.908,1444.19 635.937,1444.19 636.965,1444.19 637.994,1444.19 639.023,1444.19 640.051,1444.19 641.08,1444.19 642.109,1444.19 643.137,1444.19 644.166,1444.19 645.194,1444.19 646.223,1444.19 647.252,1444.19 648.28,1444.19 649.309,1444.19 650.338,1444.19 651.366,1444.19 652.395,1444.19 653.424,1444.19 654.452,1444.19 655.481,1444.19 656.51,1444.19 657.538,1444.19 658.567,1444.19 659.596,1444.19 660.624,1444.19 661.653,1444.19 662.682,1444.19 663.71,1444.19 664.739,1444.19 665.768,1444.19 666.796,1444.19 667.825,1444.19 668.853,1444.19 669.882,1444.19 670.911,1444.19 671.939,1444.19 672.968,1444.19 673.997,1444.19 675.025,1444.19 676.054,1444.19 677.083,1444.19 678.111,1444.19 679.14,1444.19 680.169,1444.19 681.197,1444.19 682.226,1444.19 683.255,1444.19 684.283,1444.19 685.312,1444.19 686.341,1444.19 687.369,1444.19 688.398,1444.19 689.427,1444.19 690.455,1444.19 691.484,1444.19 692.512,1444.19 693.541,1444.19 694.57,1444.19 695.598,1444.19 696.627,1444.19 697.656,1444.19 698.684,1444.19 699.713,1444.19 700.742,1444.19 701.77,1444.19 702.799,1444.19 703.828,1444.19 704.856,1444.19 705.885,1444.19 706.914,1444.19 707.942,1444.19 708.971,1444.19 710,1444.19 711.028,1444.19 712.057,1444.19 713.085,1444.19 714.114,1444.19 715.143,1444.19 716.171,1444.19 717.2,1444.19 718.229,1444.19 719.257,1444.19 720.286,1444.19 721.315,1444.19 722.343,1444.19 723.372,1444.19 724.401,1444.19 725.429,1444.19 726.458,1444.19 727.487,1444.19 728.515,1444.19 729.544,1444.19 730.573,1444.19 731.601,1444.19 732.63,1444.19 733.659,1444.19 734.687,1444.19 735.716,1444.19 736.744,1444.19 737.773,1444.19 738.802,1444.19 739.83,1444.19 740.859,1444.19 741.888,1444.19 742.916,1444.19 743.945,1444.19 744.974,1444.19 746.002,1444.19 747.031,1444.19 748.06,1444.19 749.088,1444.19 750.117,1444.19 751.146,1444.19 752.174,1444.19 753.203,1444.19 754.232,1444.19 755.26,1444.19 756.289,1444.19 757.317,1444.19 758.346,1444.19 759.375,1444.19 760.403,1444.19 761.432,1444.19 762.461,1444.19 763.489,1444.19 764.518,1444.19 765.547,1444.19 766.575,1444.19 767.604,1444.19 768.633,1444.19 769.661,1444.19 770.69,1444.19 771.719,1444.19 772.747,1444.19 773.776,1444.19 774.805,1444.19 775.833,1444.19 776.862,1444.19 777.891,1444.19 778.919,1444.19 779.948,1444.19 780.976,1444.19 782.005,1444.19 783.034,1444.19 784.062,1444.19 785.091,1444.19 786.12,1444.19 787.148,1444.19 788.177,1444.19 789.206,1444.19 790.234,1444.19 791.263,1444.19 792.292,1444.19 793.32,1444.19 794.349,1444.19 795.378,1444.19 796.406,1444.19 797.435,1444.19 798.464,1444.19 799.492,1444.19 800.521,1444.19 801.55,1444.19 802.578,1444.19 803.607,1444.19 804.635,1444.19 805.664,1444.19 806.693,1444.19 807.721,1444.19 808.75,1444.19 809.779,1444.19 810.807,1444.19 811.836,1444.19 812.865,1444.19 813.893,1444.19 814.922,1444.19 815.951,1444.19 816.979,1444.19 818.008,1444.19 819.037,1444.19 820.065,1444.19 821.094,1444.19 822.123,1444.19 823.151,1444.19 824.18,1444.19 825.208,1444.19 826.237,1444.19 827.266,1444.19 828.294,1444.19 829.323,1444.19 830.352,1444.19 831.38,1444.19 832.409,1444.19 833.438,1444.19 834.466,1444.19 835.495,1444.19 836.524,1444.19 837.552,1444.19 838.581,1444.19 839.61,1444.19 840.638,1444.19 841.667,1444.19 842.696,1444.19 843.724,1444.19 844.753,1444.19 845.782,1444.19 846.81,1444.19 847.839,1444.19 848.867,1444.19 849.896,1444.19 850.925,1444.19 851.953,1444.19 852.982,1444.19 854.011,1444.19 855.039,1444.19 856.068,1444.19 857.097,1444.19 858.125,1444.19 859.154,1444.19 860.183,1444.19 861.211,1444.19 862.24,1444.19 863.269,1444.19 864.297,1444.19 865.326,1444.19 866.355,1444.19 867.383,1444.19 868.412,1444.19 869.441,1444.19 870.469,1444.19 871.498,1444.19 872.526,1444.19 873.555,1444.19 874.584,1444.19 875.612,1444.19 876.641,1444.19 877.67,1444.19 878.698,1444.19 879.727,1444.19 880.756,1444.19 881.784,1444.19 882.813,1444.19 883.842,1444.19 884.87,1444.19 885.899,1444.19 886.928,1444.19 887.956,1444.19 888.985,1444.19 890.014,1444.19 891.042,1444.19 892.071,1444.19 893.099,1444.19 894.128,1444.19 895.157,1444.19 896.185,1444.19 897.214,1444.19 898.243,1444.19 899.271,1444.19 900.3,1444.19 901.329,1444.19 902.357,1444.19 903.386,1444.19 904.415,1444.19 905.443,1444.19 906.472,1444.19 907.501,1444.19 908.529,1444.19 909.558,1444.19 910.587,1444.19 911.615,1444.19 912.644,1444.19 913.673,1444.19 914.701,1444.19 915.73,1444.19 916.758,1444.19 917.787,1444.19 918.816,1444.19 919.844,1444.19 920.873,1444.19 921.902,1444.19 922.93,1444.19 923.959,1444.19 924.988,1444.19 926.016,1444.19 927.045,1444.19 928.074,1444.19 929.102,1444.19 930.131,1444.19 931.16,1444.19 932.188,1444.19 933.217,1444.19 934.246,1444.19 935.274,1444.19 936.303,1444.19 937.332,1444.19 938.36,1444.19 939.389,1444.19 940.417,1444.19 941.446,1444.19 942.475,1444.19 943.503,1444.19 944.532,1444.19 945.561,1444.19 946.589,1444.19 947.618,1444.19 948.647,1444.19 949.675,1444.19 950.704,1444.19 951.733,1444.19 952.761,1444.19 953.79,1444.19 954.819,1444.19 955.847,1444.19 956.876,1444.19 957.905,1444.19 958.933,1444.19 959.962,1444.19 960.99,1444.19 962.019,1444.19 963.048,1444.19 964.076,1444.19 965.105,1444.19 966.134,1444.19 967.162,1444.19 968.191,1444.19 969.22,1444.19 970.248,1444.19 971.277,1444.19 972.306,1444.19 973.334,1444.19 974.363,1444.19 975.392,1444.19 976.42,1444.19 977.449,1444.19 978.478,1444.19 979.506,1444.19 980.535,1444.19 981.564,1444.19 982.592,1444.19 983.621,1444.19 984.649,1444.19 985.678,1444.19 986.707,1444.19 987.735,1444.19 988.764,1444.19 989.793,1444.19 990.821,1444.19 991.85,1444.19 992.879,1444.19 993.907,1444.19 994.936,1444.19 995.965,1444.19 996.993,1444.19 998.022,1444.19 999.051,1444.19 1000.08,1444.19 1001.11,1444.19 1002.14,1444.19 1003.17,1444.19 1004.19,1444.19 1005.22,1444.19 1006.25,1444.19 1007.28,1444.19 1008.31,1444.19 1009.34,1444.19 1010.37,1444.19 1011.39,1444.19 1012.42,1444.19 1013.45,1444.19 1014.48,1444.19 1015.51,1444.19 1016.54,1444.19 1017.57,1444.19 1018.59,1444.19 1019.62,1444.19 1020.65,1444.19 1021.68,1444.19 1022.71,1444.19 1023.74,1444.19 1024.77,1444.19 1025.8,1444.19 1026.82,1444.19 1027.85,1444.19 1028.88,1444.19 1029.91,1444.19 1030.94,1444.19 1031.97,1444.19 1033,1444.19 1034.02,1444.19 1035.05,1444.19 1036.08,1444.19 1037.11,1444.19 1038.14,1444.19 1039.17,1444.19 1040.2,1444.19 1041.23,1444.19 1042.25,1444.19 1043.28,1444.19 1044.31,1444.19 1045.34,1444.19 1046.37,1444.19 1047.4,1444.19 1048.43,1444.19 1049.45,1444.19 1050.48,1444.19 1051.51,1444.19 1052.54,1444.19 1053.57,1444.19 1054.6,1444.19 1055.63,1444.19 1056.66,1444.19 1057.68,1444.19 1058.71,1444.19 1059.74,1444.19 1060.77,1444.19 1061.8,1444.19 1062.83,1444.19 1063.86,1444.19 1064.88,1444.19 1065.91,1444.19 1066.94,1444.19 1067.97,1444.19 1069,1444.19 1070.03,1444.19 1071.06,1444.19 1072.08,1444.19 1073.11,1444.19 1074.14,1444.19 1075.17,1444.19 1076.2,1444.19 1077.23,1444.19 1078.26,1444.19 1079.29,1444.19 1080.31,1444.19 1081.34,1444.19 1082.37,1444.19 1083.4,1444.19 1084.43,1444.19 1085.46,1444.19 1086.49,1444.19 1087.51,1444.19 1088.54,1444.19 1089.57,1444.19 1090.6,1444.19 1091.63,1444.19 1092.66,1444.19 1093.69,1444.19 1094.72,1444.19 1095.74,1444.19 1096.77,1444.19 1097.8,1444.19 1098.83,1444.19 1099.86,1444.19 1100.89,1444.19 1101.92,1444.19 1102.94,1444.19 1103.97,1444.19 1105,1444.19 1106.03,1444.19 1107.06,1444.19 1108.09,1444.19 1109.12,1444.19 1110.14,1444.19 1111.17,1444.19 1112.2,1444.19 1113.23,1444.19 1114.26,1444.19 1115.29,1444.19 1116.32,1444.19 1117.35,1444.19 1118.37,1444.19 1119.4,1444.19 1120.43,1444.19 1121.46,1444.19 1122.49,1444.19 1123.52,1444.19 1124.55,1444.19 1125.57,1444.19 1126.6,1444.19 1127.63,1444.19 1128.66,1444.19 1129.69,1444.19 1130.72,1444.19 1131.75,1444.19 1132.78,1444.19 1133.8,1444.19 1134.83,1444.19 1135.86,1444.19 1136.89,1444.19 1137.92,1444.19 1138.95,1444.19 1139.98,1444.19 1141,1444.19 1142.03,1444.19 1143.06,1444.19 1144.09,1444.19 1145.12,1444.19 1146.15,1444.19 1147.18,1444.19 1148.21,1444.19 1149.23,1444.19 1150.26,1444.19 1151.29,1444.19 1152.32,1444.19 1153.35,1444.19 1154.38,1444.19 1155.41,1444.19 1156.43,1444.19 1157.46,1444.19 1158.49,1444.19 1159.52,1444.19 1160.55,1444.19 1161.58,1444.19 1162.61,1444.19 1163.63,1444.19 1164.66,1444.19 1165.69,1444.19 1166.72,1444.19 1167.75,1444.19 1168.78,1444.19 1169.81,1444.19 1170.84,1444.19 1171.86,1444.19 1172.89,1444.19 1173.92,1444.19 1174.95,1444.19 1175.98,1444.19 1177.01,1444.19 1178.04,1444.19 1179.06,1444.19 1180.09,1444.19 1181.12,1444.19 1182.15,1444.19 1183.18,1444.19 1184.21,1444.19 1185.24,1444.19 1186.27,1444.19 1187.29,1444.19 1188.32,1444.19 1189.35,1444.19 1190.38,1444.19 1191.41,1444.19 1192.44,1444.19 1193.47,1444.19 1194.49,1444.19 1195.52,1444.19 1196.55,1444.19 1197.58,1444.19 1198.61,1444.19 1199.64,1444.19 1200.67,1444.19 1201.69,1444.19 1202.72,1444.19 1203.75,1444.19 1204.78,1444.19 1205.81,1444.19 1206.84,1444.19 1207.87,1444.19 1208.9,1444.19 1209.92,1444.19 1210.95,1444.19 1211.98,1444.19 1213.01,1444.19 1214.04,1444.19 1215.07,1444.19 1216.1,1444.19 1217.12,1444.19 1218.15,1444.19 1219.18,1444.19 1220.21,1444.19 1221.24,1444.19 1222.27,1444.19 1223.3,1444.19 1224.33,1444.19 1225.35,1444.19 1226.38,1444.19 1227.41,1444.19 1228.44,1444.19 1229.47,1444.19 1230.5,1444.19 1231.53,1444.19 1232.55,1444.19 1233.58,1444.19 1234.61,1444.19 1235.64,1444.19 1236.67,1444.19 1237.7,1444.19 1238.73,1444.19 1239.76,1444.19 1240.78,1444.19 1241.81,1444.19 1242.84,1444.19 1243.87,1444.19 1244.9,1444.19 1245.93,1444.19 1246.96,1444.19 1247.98,1444.19 1249.01,1444.19 1250.04,1444.19 1251.07,1444.19 1252.1,1444.19 1253.13,1444.19 1254.16,1444.19 1255.18,1444.19 1256.21,1444.19 1257.24,1444.19 1258.27,1444.19 1259.3,1444.19 1260.33,1444.19 1261.36,1444.19 1262.39,1444.19 1263.41,1444.19 1264.44,1444.19 1265.47,1444.19 1266.5,1444.19 1267.53,1444.19 1268.56,1444.19 1269.59,1444.19 1270.61,1444.19 1271.64,1444.19 1272.67,1444.19 1273.7,1444.19 1274.73,1444.19 1275.76,1444.19 1276.79,1444.19 1277.82,1444.19 1278.84,1444.19 1279.87,1444.19 1280.9,1444.19 1281.93,1444.19 1282.96,1444.19 1283.99,1444.19 1285.02,1444.19 1286.04,1444.19 1287.07,1444.19 1288.1,1444.19 1289.13,1444.19 1290.16,1444.19 1291.19,1444.19 1292.22,1444.19 1293.24,1444.19 1294.27,1444.19 1295.3,1444.19 1296.33,1444.19 1297.36,1444.19 1298.39,1444.19 1299.42,1444.19 1300.45,1444.2 1301.47,1444.2 1302.5,1444.2 1303.53,1444.2 1304.56,1444.2 1305.59,1444.2 1306.62,1444.2 1307.65,1444.2 1308.67,1444.2 1309.7,1444.2 1310.73,1444.2 1311.76,1444.2 1312.79,1444.2 1313.82,1444.2 1314.85,1444.2 1315.88,1444.2 1316.9,1444.2 1317.93,1444.21 1318.96,1444.21 1319.99,1444.21 1321.02,1444.21 1322.05,1444.21 1323.08,1444.21 1324.1,1444.21 1325.13,1444.21 1326.16,1444.22 1327.19,1444.22 1328.22,1444.22 1329.25,1444.22 1330.28,1444.22 1331.31,1444.22 1332.33,1444.23 1333.36,1444.23 1334.39,1444.23 1335.42,1444.23 1336.45,1444.24 1337.48,1444.24 1338.51,1444.24 1339.53,1444.25 1340.56,1444.25 1341.59,1444.26 1342.62,1444.26 1343.65,1444.26 1344.68,1444.27 1345.71,1444.27 1346.73,1444.28 1347.76,1444.29 1348.79,1444.29 1349.82,1444.3 1350.85,1444.31 1351.88,1444.31 1352.91,1444.32 1353.94,1444.33 1354.96,1444.34 1355.99,1444.35 1357.02,1444.36 1358.05,1444.37 1359.08,1444.38 1360.11,1444.39 1361.14,1444.41 1362.16,1444.42 1363.19,1444.43 1364.22,1444.45 1365.25,1444.47 1366.28,1444.48 1367.31,1444.5 1368.34,1444.52 1369.37,1444.54 1370.39,1444.56 1371.42,1444.58 1372.45,1444.59 1373.48,1444.61 1374.51,1444.63 1375.54,1444.64 1376.57,1444.65 1377.59,1444.67 1378.62,1444.68 1379.65,1444.69 1380.68,1444.7 1381.71,1444.71 1382.74,1444.72 1383.77,1444.73 1384.79,1444.74 1385.82,1444.75 1386.85,1444.76 1387.88,1444.77 1388.91,1444.78 1389.94,1444.79 1390.97,1444.8 1392,1444.81 1393.02,1444.82 1394.05,1444.83 1395.08,1444.84 1396.11,1444.85 1397.14,1444.86 1398.17,1444.87 1399.2,1444.88 1400.22,1444.89 1401.25,1444.9 1402.28,1444.91 1403.31,1444.91 1404.34,1444.92 1405.37,1444.93 1406.4,1444.94 1407.43,1444.95 1408.45,1444.96 1409.48,1444.97 1410.51,1444.98 1411.54,1444.99 1412.57,1445 1413.6,1445.01 1414.63,1445.02 1415.65,1445.03 1416.68,1445.04 1417.71,1445.05 1418.74,1445.05 1419.77,1445.06 1420.8,1445.07 1421.83,1445.08 1422.85,1445.09 1423.88,1445.1 1424.91,1445.11 1425.94,1445.12 1426.97,1445.13 1428,1445.14 1429.03,1445.15 1430.06,1445.16 1431.08,1445.16 1432.11,1445.17 1433.14,1445.18 1434.17,1445.19 1435.2,1445.2 1436.23,1445.21 1437.26,1445.22 1438.28,1445.23 1439.31,1445.24 1440.34,1445.25 1441.37,1445.26 1442.4,1445.26 1443.43,1445.27 1444.46,1445.28 1445.49,1445.29 1446.51,1445.3 1447.54,1445.31 1448.57,1445.32 1449.6,1445.33 1450.63,1445.34 1451.66,1445.34 1452.69,1445.35 1453.71,1445.36 1454.74,1445.37 1455.77,1445.38 1456.8,1445.39 1457.83,1445.4 1458.86,1445.41 1459.89,1445.42 1460.92,1445.42 1461.94,1445.43 1462.97,1445.44 1464,1445.45 1465.03,1445.46 1466.06,1445.47 1467.09,1445.48 1468.12,1445.48 1469.14,1445.49 1470.17,1445.5 1471.2,1445.51 1472.23,1445.52 1473.26,1445.53 1474.29,1445.54 1475.32,1445.54 1476.34,1445.55 1477.37,1445.56 1478.4,1445.57 1479.43,1445.58 1480.46,1445.59 1481.49,1445.59 1482.52,1445.6 1483.55,1445.61 1484.57,1445.62 1485.6,1445.63 1486.63,1445.63 1487.66,1445.64 1488.69,1445.65 1489.72,1445.66 1490.75,1445.67 1491.77,1445.67 1492.8,1445.68 1493.83,1445.69 1494.86,1445.7 1495.89,1445.7 1496.92,1445.7 1497.95,1445.7 1498.98,1445.7 1500,1445.7 1501.03,1445.7 1502.06,1445.7 1503.09,1445.71 1504.12,1445.71 1505.15,1445.71 1506.18,1445.71 1507.2,1445.71 1508.23,1445.71 1509.26,1445.71 1510.29,1445.71 1511.32,1445.71 1512.35,1445.71 1513.38,1445.71 1514.4,1445.71 1515.43,1445.71 1516.46,1445.71 1517.49,1445.71 1518.52,1445.71 1519.55,1445.71 1520.58,1445.71 1521.61,1445.71 1522.63,1445.71 1523.66,1445.71 1524.69,1445.71 1525.72,1445.71 1526.75,1445.71 1527.78,1445.71 1528.81,1445.71 1529.83,1445.71 1530.86,1445.71 1531.89,1445.71 1532.92,1445.71 1533.95,1445.71 1534.98,1445.71 1536.01,1445.71 1537.04,1445.71 1538.06,1445.71 1539.09,1445.71 1540.12,1445.71 1541.15,1445.71 1542.18,1445.71 1543.21,1445.71 1544.24,1445.71 1545.26,1445.71 1546.29,1445.71 1547.32,1445.71 1548.35,1445.71 1549.38,1445.71 1550.41,1445.71 1551.44,1445.71 1552.47,1445.71 1553.49,1445.71 1554.52,1445.71 1555.55,1445.71 1556.58,1445.71 1557.61,1445.71 1558.64,1445.71 1559.67,1445.71 1560.69,1445.71 1561.72,1445.71 1562.75,1445.71 1563.78,1445.71 1564.81,1445.71 1565.84,1445.71 1566.87,1445.71 1567.89,1445.71 1568.92,1445.71 1569.95,1445.71 1570.98,1445.71 1572.01,1445.71 1573.04,1445.71 1574.07,1445.71 1575.1,1445.71 1576.12,1445.71 1577.15,1445.71 1578.18,1445.72 1579.21,1445.72 1580.24,1445.72 1581.27,1445.72 1582.3,1445.72 1583.32,1445.72 1584.35,1445.72 1585.38,1445.72 1586.41,1445.72 1587.44,1445.72 1588.47,1445.72 1589.5,1445.72 1590.53,1445.72 1591.55,1445.72 1592.58,1445.72 1593.61,1445.72 1594.64,1445.72 1595.67,1445.72 1596.7,1445.72 1597.73,1445.72 1598.75,1445.72 1599.78,1445.72 1600.81,1445.72 1601.84,1445.72 1602.87,1445.72 1603.9,1445.72 1604.93,1445.72 1605.95,1445.72 1606.98,1445.72 1608.01,1445.72 1609.04,1445.72 1610.07,1445.72 1611.1,1445.72 1612.13,1445.72 1613.16,1445.72 1614.18,1445.72 1615.21,1445.72 1616.24,1445.72 1617.27,1445.72 1618.3,1445.72 1619.33,1445.72 1620.36,1445.72 1621.38,1445.72 1622.41,1445.72 1623.44,1445.72 1624.47,1445.72 1625.5,1445.72 1626.53,1445.72 1627.56,1445.72 1628.59,1445.72 1629.61,1445.72 1630.64,1445.72 1631.67,1445.72 1632.7,1445.72 1633.73,1445.72 1634.76,1445.72 1635.79,1445.72 1636.81,1445.72 1637.84,1445.72 1638.87,1445.72 1639.9,1445.72 1640.93,1445.72 1641.96,1445.72 1642.99,1445.72 1644.02,1445.72 1645.04,1445.72 1646.07,1445.72 1647.1,1445.72 1648.13,1445.72 1649.16,1445.72 1650.19,1445.72 1651.22,1445.72 1652.24,1445.72 1653.27,1445.72 1654.3,1445.72 1655.33,1445.72 1656.36,1445.72 1657.39,1445.72 1658.42,1445.72 1659.44,1445.72 1660.47,1445.72 1661.5,1445.72 1662.53,1445.72 1663.56,1445.72 1664.59,1445.72 1665.62,1445.72 1666.65,1445.72 1667.67,1445.72 1668.7,1445.72 1669.73,1445.72 1670.76,1445.72 1671.79,1445.72 1672.82,1445.72 1673.85,1445.72 1674.87,1445.72 1675.9,1445.72 1676.93,1445.72 1677.96,1445.72 1678.99,1445.72 1680.02,1445.72 1681.05,1445.72 1682.08,1445.72 1683.1,1445.72 1684.13,1445.72 1685.16,1445.72 1686.19,1445.72 1687.22,1445.72 1688.25,1445.72 1689.28,1445.72 1690.3,1445.72 1691.33,1445.72 1692.36,1445.72 1693.39,1445.72 1694.42,1445.72 1695.45,1445.72 1696.48,1445.72 1697.5,1445.72 1698.53,1445.72 1699.56,1445.72 1700.59,1445.72 1701.62,1445.72 1702.65,1445.72 1703.68,1445.72 1704.71,1445.72 1705.73,1445.72 1706.76,1445.72 1707.79,1445.72 1708.82,1445.72 1709.85,1445.72 1710.88,1445.72 1711.91,1445.72 1712.93,1445.72 1713.96,1445.72 1714.99,1445.72 1716.02,1445.72 1717.05,1445.72 1718.08,1445.72 1719.11,1445.72 1720.14,1445.72 1721.16,1445.72 1722.19,1445.72 1723.22,1445.72 1724.25,1445.72 1725.28,1445.72 1726.31,1445.72 1727.34,1445.72 1728.36,1445.72 1729.39,1445.72 1730.42,1445.72 1731.45,1445.72 1732.48,1445.72 1733.51,1445.72 1734.54,1445.72 1735.57,1445.72 1736.59,1445.72 1737.62,1445.72 1738.65,1445.72 1739.68,1445.72 1740.71,1445.72 1741.74,1445.72 1742.77,1445.72 1743.79,1445.72 1744.82,1445.72 1745.85,1445.72 1746.88,1445.72 1747.91,1445.72 1748.94,1445.72 1749.97,1445.72 1750.99,1445.72 1752.02,1445.72 1753.05,1445.72 1754.08,1445.72 1755.11,1445.72 1756.14,1445.72 1757.17,1445.72 1758.2,1445.72 1759.22,1445.72 1760.25,1445.72 1761.28,1445.72 1762.31,1445.72 1763.34,1445.72 1764.37,1445.72 1765.4,1445.72 1766.42,1445.72 1767.45,1445.72 1768.48,1445.72 1769.51,1445.72 1770.54,1445.72 1771.57,1445.72 1772.6,1445.72 1773.63,1445.72 1774.65,1445.72 1775.68,1445.72 1776.71,1445.72 1777.74,1445.72 1778.77,1445.72 1779.8,1445.72 1780.83,1445.72 1781.85,1445.72 1782.88,1445.72 1783.91,1445.72 1784.94,1445.72 1785.97,1445.72 1787,1445.72 1788.03,1445.72 1789.05,1445.72 1790.08,1445.72 1791.11,1445.72 1792.14,1445.72 1793.17,1445.72 1794.2,1445.72 1795.23,1445.72 1796.26,1445.72 1797.28,1445.72 1798.31,1445.72 1799.34,1445.72 1800.37,1445.72 1801.4,1445.72 1802.43,1445.72 1803.46,1445.72 1804.48,1445.72 1805.51,1445.72 1806.54,1445.72 1807.57,1445.72 1808.6,1445.72 1809.63,1445.72 1810.66,1445.72 1811.69,1445.72 1812.71,1445.72 1813.74,1445.72 1814.77,1445.72 1815.8,1445.72 1816.83,1445.72 1817.86,1445.72 1818.89,1445.72 1819.91,1445.72 1820.94,1445.72 1821.97,1445.72 1823,1445.72 1824.03,1445.72 1825.06,1445.72 1826.09,1445.72 1827.12,1445.72 1828.14,1445.72 1829.17,1445.72 1830.2,1445.72 1831.23,1445.72 1832.26,1445.72 1833.29,1445.72 1834.32,1445.72 1835.34,1445.72 1836.37,1445.72 1837.4,1445.72 1838.43,1445.72 1839.46,1445.72 1840.49,1445.72 1841.52,1445.72 1842.54,1445.72 1843.57,1445.72 1844.6,1445.72 1845.63,1445.72 1846.66,1445.72 1847.69,1445.72 1848.72,1445.72 1849.75,1445.72 1850.77,1445.72 1851.8,1445.72 1852.83,1445.72 1853.86,1445.72 1854.89,1445.72 1855.92,1445.72 1856.95,1445.72 1857.97,1445.72 1859,1445.72 1860.03,1445.72 1861.06,1445.72 1862.09,1445.72 1863.12,1445.72 1864.15,1445.72 1865.18,1445.72 1866.2,1445.72 1867.23,1445.72 1868.26,1445.72 1869.29,1445.72 1870.32,1445.72 1871.35,1445.72 1872.38,1445.72 1873.4,1445.72 1874.43,1445.72 1875.46,1445.72 1876.49,1445.72 1877.52,1445.72 1878.55,1445.72 1879.58,1445.72 1880.6,1445.72 1881.63,1445.72 1882.66,1445.72 1883.69,1445.72 1884.72,1445.72 1885.75,1445.72 1886.78,1445.72 1887.81,1445.72 1888.83,1445.72 1889.86,1445.72 1890.89,1445.72 1891.92,1445.72 1892.95,1445.72 1893.98,1445.72 1895.01,1445.72 1896.03,1445.72 1897.06,1445.72 1898.09,1445.72 1899.12,1445.72 1900.15,1445.72 1901.18,1445.72 1902.21,1445.72 1903.24,1445.72 1904.26,1445.72 1905.29,1445.72 1906.32,1445.72 1907.35,1445.72 1908.38,1445.72 1909.41,1445.72 1910.44,1445.72 1911.46,1445.72 1912.49,1445.72 1913.52,1445.72 1914.55,1445.72 1915.58,1445.72 1916.61,1445.72 1917.64,1445.72 1918.66,1445.72 1919.69,1445.72 1920.72,1445.72 1921.75,1445.72 1922.78,1445.72 1923.81,1445.72 1924.84,1445.72 1925.87,1445.72 1926.89,1445.72 1927.92,1445.72 1928.95,1445.72 1929.98,1445.72 1931.01,1445.72 1932.04,1445.72 1933.07,1445.72 1934.09,1445.72 1935.12,1445.72 1936.15,1445.72 1937.18,1445.72 1938.21,1445.72 1939.24,1445.72 1940.27,1445.72 1941.3,1445.72 1942.32,1445.72 1943.35,1445.72 1944.38,1445.72 1945.41,1445.72 1946.44,1445.72 1947.47,1445.72 1948.5,1445.72 1949.52,1445.72 1950.55,1445.72 1951.58,1445.72 1952.61,1445.72 1953.64,1445.72 1954.67,1445.72 1955.7,1445.72 1956.73,1445.72 1957.75,1445.72 1958.78,1445.72 1959.81,1445.72 1960.84,1445.72 1961.87,1445.72 1962.9,1445.72 1963.93,1445.72 1964.95,1445.72 1965.98,1445.72 1967.01,1445.72 1968.04,1445.72 1969.07,1445.72 1970.1,1445.72 1971.13,1445.72 1972.15,1445.72 1973.18,1445.72 1974.21,1445.72 1975.24,1445.72 1976.27,1445.72 1977.3,1445.72 1978.33,1445.72 1979.36,1445.72 1980.38,1445.72 1981.41,1445.72 1982.44,1445.72 1983.47,1445.72 1984.5,1445.72 1985.53,1445.72 1986.56,1445.72 1987.58,1445.72 1988.61,1445.72 1989.64,1445.72 1990.67,1445.72 1991.7,1445.72 1992.73,1445.72 1993.76,1445.72 1994.79,1445.72 1995.81,1445.72 1996.84,1445.72 1997.87,1445.72 1998.9,1445.72 1999.93,1445.72 2000.96,1445.72 2001.99,1445.72 2003.01,1445.72 2004.04,1445.72 2005.07,1445.72 2006.1,1445.72 2007.13,1445.72 2008.16,1445.72 2009.19,1445.72 2010.21,1445.72 2011.24,1445.72 2012.27,1445.72 2013.3,1445.72 2014.33,1445.72 2015.36,1445.72 2016.39,1445.72 2017.42,1445.72 2018.44,1445.72 2019.47,1445.72 2020.5,1445.72 2021.53,1445.72 2022.56,1445.72 2023.59,1445.72 2024.62,1445.72 2025.64,1445.72 2026.67,1445.72 2027.7,1445.72 2028.73,1445.72 2029.76,1445.72 2030.79,1445.72 2031.82,1445.72 2032.85,1445.72 2033.87,1445.72 2034.9,1445.72 2035.93,1445.72 2036.96,1445.72 2037.99,1445.72 2039.02,1445.72 2040.05,1445.72 2041.07,1445.72 2042.1,1445.72 2043.13,1445.72 2044.16,1445.72 2045.19,1445.72 2046.22,1445.72 2047.25,1445.72 2048.28,1445.72 2049.3,1445.72 2050.33,1445.72 2051.36,1445.72 2052.39,1445.72 2053.42,1445.72 2054.45,1445.72 2055.48,1445.72 2056.5,1445.72 2057.53,1445.72 2058.56,1445.72 2059.59,1445.72 2060.62,1445.72 2061.65,1445.72 2062.68,1445.72 2063.7,1445.72 2064.73,1445.72 2065.76,1445.72 2066.79,1445.72 2067.82,1445.72 2068.85,1445.72 2069.88,1445.72 2070.91,1445.72 2071.93,1445.72 2072.96,1445.72 2073.99,1445.72 2075.02,1445.72 2076.05,1445.72 2077.08,1445.72 2078.11,1445.72 2079.13,1445.72 2080.16,1445.72 2081.19,1445.72 2082.22,1445.72 2083.25,1445.72 2084.28,1445.72 2085.31,1445.72 2086.34,1445.72 2087.36,1445.72 2088.39,1445.72 2089.42,1445.72 2090.45,1445.72 2091.48,1445.72 2092.51,1445.72 2093.54,1445.72 2094.56,1445.72 2095.59,1445.72 2096.62,1445.72 2097.65,1445.72 2098.68,1445.72 2099.71,1445.72 2100.74,1445.72 2101.76,1445.72 2102.79,1445.72 2103.82,1445.72 2104.85,1445.72 2105.88,1445.72 2106.91,1445.72 2107.94,1445.72 2108.97,1445.72 2109.99,1445.72 2111.02,1445.72 2112.05,1445.72 2113.08,1445.72 2114.11,1445.72 2115.14,1445.72 2116.17,1445.72 2117.19,1445.72 2118.22,1445.72 2119.25,1445.72 2120.28,1445.72 2121.31,1445.72 2122.34,1445.72 2123.37,1445.72 2124.4,1445.72 2125.42,1445.72 2126.45,1445.72 2127.48,1445.72 2128.51,1445.72 2129.54,1445.72 2130.57,1445.72 2131.6,1445.72 2132.62,1445.72 2133.65,1445.72 2134.68,1445.72 2135.71,1445.72 2136.74,1445.72 2137.77,1445.72 2138.8,1445.72 2139.83,1445.72 2140.85,1445.72 2141.88,1445.72 2142.91,1445.72 2143.94,1445.72 2144.97,1445.72 2146,1445.72 2147.03,1445.72 2148.05,1445.72 2149.08,1445.72 2150.11,1445.72 2151.14,1445.72 2152.17,1445.72 2153.2,1445.72 2154.23,1445.72 2155.25,1445.72 2156.28,1445.72 2157.31,1445.72 2158.34,1445.72 2159.37,1445.72 2160.4,1445.72 2161.43,1445.72 2162.46,1445.72 2163.48,1445.72 2164.51,1445.72 2165.54,1445.72 2166.57,1445.72 2167.6,1445.72 2168.63,1445.72 2169.66,1445.72 2170.68,1445.72 2171.71,1445.72 2172.74,1445.72 2173.77,1445.72 2174.8,1445.72 2175.83,1445.72 2176.86,1445.72 2177.89,1445.72 2178.91,1445.72 2179.94,1445.72 2180.97,1445.72 2182,1445.72 2183.03,1445.72 2184.06,1445.72 2185.09,1445.72 2186.11,1445.72 2187.14,1445.72 2188.17,1445.72 2189.2,1445.72 2190.23,1445.72 2191.26,1445.72 2192.29,1445.72 2193.31,1445.72 2194.34,1445.72 2195.37,1445.72 2196.4,1445.72 2197.43,1445.72 2198.46,1445.72 2199.49,1445.72 2200.52,1445.72 2201.54,1445.72 2202.57,1445.72 2203.6,1445.72 2204.63,1445.72 2205.66,1445.72 2206.69,1445.72 2207.72,1445.72 2208.74,1445.72 2209.77,1445.72 2210.8,1445.72 2211.83,1445.72 2212.86,1445.72 2213.89,1445.72 2214.92,1445.72 2215.95,1445.72 2216.97,1445.72 2218,1445.72 2219.03,1445.72 2220.06,1445.72 2221.09,1445.72 2222.12,1445.72 2223.15,1445.72 2224.17,1445.72 2225.2,1445.72 2226.23,1445.72 2227.26,1445.72 2228.29,1445.72 2229.32,1445.72 2230.35,1445.72 2231.38,1445.72 2232.4,1445.72 2233.43,1445.72 2234.46,1445.72 2235.49,1445.72 2236.52,1445.72 2237.55,1445.72 2238.58,1445.72 2239.6,1445.72 2240.63,1445.72 2241.66,1445.72 2242.69,1445.72 2243.72,1445.72 2244.75,1445.72 2245.78,1445.72 2246.8,1445.72 2247.83,1445.72 2248.86,1445.72 2249.89,1445.72 2250.92,1445.72 2251.95,1445.72 2252.98,1445.72 2254.01,1445.72 2255.03,1445.72 2256.06,1445.72 2257.09,1445.72 2258.12,1445.72 2259.15,1445.72 2260.18,1445.72 2261.21,1445.72 2262.23,1445.72 2263.26,1445.72 2264.29,1445.72 2265.32,1445.72 2266.35,1445.72 2267.38,1445.72 2268.41,1445.72 2269.44,1445.72 2270.46,1445.72 2271.49,1445.72 2272.52,1445.72 2273.55,1445.72 2274.58,1445.72 2275.61,1445.72 2276.64,1445.72 2277.66,1445.72 2278.69,1445.72 2279.72,1445.72 2280.75,1445.72 2281.78,1445.72 2282.81,1445.72 2283.84,1445.72 2284.86,1445.72 2285.89,1445.72 2286.92,1445.72 2287.95,1445.72 2288.98,1445.72 2290.01,1445.72 2291.04,1445.72 "/>
<path clip-path="url(#clip330)" d="M2009.56 198.898 L2280.06 198.898 L2280.06 95.2176 L2009.56 95.2176  Z" fill="#ffffff" fill-rule="evenodd" fill-opacity="1"/>
<polyline clip-path="url(#clip330)" style="stroke:#000000; stroke-linecap:round; stroke-linejoin:round; stroke-width:4; stroke-opacity:1; fill:none" points="2009.56,198.898 2280.06,198.898 2280.06,95.2176 2009.56,95.2176 2009.56,198.898 "/>
<polyline clip-path="url(#clip330)" style="stroke:#009af9; stroke-linecap:round; stroke-linejoin:round; stroke-width:4; stroke-opacity:1; fill:none" points="2033.79,147.058 2179.17,147.058 "/>
<path clip-path="url(#clip330)" d="M2217.25 166.745 Q2215.44 171.375 2213.73 172.787 Q2212.01 174.199 2209.14 174.199 L2205.74 174.199 L2205.74 170.634 L2208.24 170.634 Q2210 170.634 2210.97 169.8 Q2211.95 168.967 2213.13 165.865 L2213.89 163.921 L2203.4 138.412 L2207.92 138.412 L2216.02 158.689 L2224.12 138.412 L2228.64 138.412 L2217.25 166.745 Z" fill="#000000" fill-rule="nonzero" fill-opacity="1" /><path clip-path="url(#clip330)" d="M2235.93 160.402 L2243.57 160.402 L2243.57 134.037 L2235.26 135.703 L2235.26 131.444 L2243.52 129.778 L2248.2 129.778 L2248.2 160.402 L2255.83 160.402 L2255.83 164.338 L2235.93 164.338 L2235.93 160.402 Z" fill="#000000" fill-rule="nonzero" fill-opacity="1" /></svg>
