<?xml version="1.0" encoding="utf-8"?>
<svg xmlns="http://www.w3.org/2000/svg" xmlns:xlink="http://www.w3.org/1999/xlink" width="600" height="400" viewBox="0 0 2400 1600">
<defs>
  <clipPath id="clip840">
    <rect x="0" y="0" width="2400" height="1600"/>
  </clipPath>
</defs>
<path clip-path="url(#clip840)" d="M0 1600 L2400 1600 L2400 0 L0 0  Z" fill="#ffffff" fill-rule="evenodd" fill-opacity="1"/>
<defs>
  <clipPath id="clip841">
    <rect x="480" y="0" width="1681" height="1600"/>
  </clipPath>
</defs>
<path clip-path="url(#clip840)" d="M170.857 1486.45 L2352.76 1486.45 L2352.76 47.2441 L170.857 47.2441  Z" fill="#ffffff" fill-rule="evenodd" fill-opacity="1"/>
<defs>
  <clipPath id="clip842">
    <rect x="170" y="47" width="2183" height="1440"/>
  </clipPath>
</defs>
<polyline clip-path="url(#clip842)" style="stroke:#000000; stroke-linecap:round; stroke-linejoin:round; stroke-width:2; stroke-opacity:0.1; fill:none" points="232.609,1486.45 232.609,47.2441 "/>
<polyline clip-path="url(#clip842)" style="stroke:#000000; stroke-linecap:round; stroke-linejoin:round; stroke-width:2; stroke-opacity:0.1; fill:none" points="747.208,1486.45 747.208,47.2441 "/>
<polyline clip-path="url(#clip842)" style="stroke:#000000; stroke-linecap:round; stroke-linejoin:round; stroke-width:2; stroke-opacity:0.1; fill:none" points="1261.81,1486.45 1261.81,47.2441 "/>
<polyline clip-path="url(#clip842)" style="stroke:#000000; stroke-linecap:round; stroke-linejoin:round; stroke-width:2; stroke-opacity:0.1; fill:none" points="1776.41,1486.45 1776.41,47.2441 "/>
<polyline clip-path="url(#clip842)" style="stroke:#000000; stroke-linecap:round; stroke-linejoin:round; stroke-width:2; stroke-opacity:0.1; fill:none" points="2291,1486.45 2291,47.2441 "/>
<polyline clip-path="url(#clip840)" style="stroke:#000000; stroke-linecap:round; stroke-linejoin:round; stroke-width:4; stroke-opacity:1; fill:none" points="170.857,1486.45 2352.76,1486.45 "/>
<polyline clip-path="url(#clip840)" style="stroke:#000000; stroke-linecap:round; stroke-linejoin:round; stroke-width:4; stroke-opacity:1; fill:none" points="232.609,1486.45 232.609,1467.55 "/>
<polyline clip-path="url(#clip840)" style="stroke:#000000; stroke-linecap:round; stroke-linejoin:round; stroke-width:4; stroke-opacity:1; fill:none" points="747.208,1486.45 747.208,1467.55 "/>
<polyline clip-path="url(#clip840)" style="stroke:#000000; stroke-linecap:round; stroke-linejoin:round; stroke-width:4; stroke-opacity:1; fill:none" points="1261.81,1486.45 1261.81,1467.55 "/>
<polyline clip-path="url(#clip840)" style="stroke:#000000; stroke-linecap:round; stroke-linejoin:round; stroke-width:4; stroke-opacity:1; fill:none" points="1776.41,1486.45 1776.41,1467.55 "/>
<polyline clip-path="url(#clip840)" style="stroke:#000000; stroke-linecap:round; stroke-linejoin:round; stroke-width:4; stroke-opacity:1; fill:none" points="2291,1486.45 2291,1467.55 "/>
<path clip-path="url(#clip840)" d="M232.609 1517.37 Q228.998 1517.37 227.169 1520.93 Q225.364 1524.47 225.364 1531.6 Q225.364 1538.71 227.169 1542.27 Q228.998 1545.82 232.609 1545.82 Q236.244 1545.82 238.049 1542.27 Q239.878 1538.71 239.878 1531.6 Q239.878 1524.47 238.049 1520.93 Q236.244 1517.37 232.609 1517.37 M232.609 1513.66 Q238.419 1513.66 241.475 1518.27 Q244.554 1522.85 244.554 1531.6 Q244.554 1540.33 241.475 1544.94 Q238.419 1549.52 232.609 1549.52 Q226.799 1549.52 223.72 1544.94 Q220.665 1540.33 220.665 1531.6 Q220.665 1522.85 223.72 1518.27 Q226.799 1513.66 232.609 1513.66 Z" fill="#000000" fill-rule="nonzero" fill-opacity="1" /><path clip-path="url(#clip840)" d="M706.826 1514.29 L725.183 1514.29 L725.183 1518.22 L711.109 1518.22 L711.109 1526.7 Q712.127 1526.35 713.146 1526.19 Q714.164 1526 715.183 1526 Q720.97 1526 724.349 1529.17 Q727.729 1532.34 727.729 1537.76 Q727.729 1543.34 724.257 1546.44 Q720.784 1549.52 714.465 1549.52 Q712.289 1549.52 710.021 1549.15 Q707.775 1548.78 705.368 1548.04 L705.368 1543.34 Q707.451 1544.47 709.673 1545.03 Q711.896 1545.58 714.372 1545.58 Q718.377 1545.58 720.715 1543.48 Q723.053 1541.37 723.053 1537.76 Q723.053 1534.15 720.715 1532.04 Q718.377 1529.94 714.372 1529.94 Q712.497 1529.94 710.623 1530.35 Q708.771 1530.77 706.826 1531.65 L706.826 1514.29 Z" fill="#000000" fill-rule="nonzero" fill-opacity="1" /><path clip-path="url(#clip840)" d="M746.942 1517.37 Q743.331 1517.37 741.502 1520.93 Q739.696 1524.47 739.696 1531.6 Q739.696 1538.71 741.502 1542.27 Q743.331 1545.82 746.942 1545.82 Q750.576 1545.82 752.382 1542.27 Q754.21 1538.71 754.21 1531.6 Q754.21 1524.47 752.382 1520.93 Q750.576 1517.37 746.942 1517.37 M746.942 1513.66 Q752.752 1513.66 755.807 1518.27 Q758.886 1522.85 758.886 1531.6 Q758.886 1540.33 755.807 1544.94 Q752.752 1549.52 746.942 1549.52 Q741.132 1549.52 738.053 1544.94 Q734.997 1540.33 734.997 1531.6 Q734.997 1522.85 738.053 1518.27 Q741.132 1513.66 746.942 1513.66 Z" fill="#000000" fill-rule="nonzero" fill-opacity="1" /><path clip-path="url(#clip840)" d="M777.104 1517.37 Q773.493 1517.37 771.664 1520.93 Q769.858 1524.47 769.858 1531.6 Q769.858 1538.71 771.664 1542.27 Q773.493 1545.82 777.104 1545.82 Q780.738 1545.82 782.543 1542.27 Q784.372 1538.71 784.372 1531.6 Q784.372 1524.47 782.543 1520.93 Q780.738 1517.37 777.104 1517.37 M777.104 1513.66 Q782.914 1513.66 785.969 1518.27 Q789.048 1522.85 789.048 1531.6 Q789.048 1540.33 785.969 1544.94 Q782.914 1549.52 777.104 1549.52 Q771.293 1549.52 768.215 1544.94 Q765.159 1540.33 765.159 1531.6 Q765.159 1522.85 768.215 1518.27 Q771.293 1513.66 777.104 1513.66 Z" fill="#000000" fill-rule="nonzero" fill-opacity="1" /><path clip-path="url(#clip840)" d="M1206.33 1544.91 L1213.97 1544.91 L1213.97 1518.55 L1205.66 1520.21 L1205.66 1515.95 L1213.92 1514.29 L1218.6 1514.29 L1218.6 1544.91 L1226.24 1544.91 L1226.24 1548.85 L1206.33 1548.85 L1206.33 1544.91 Z" fill="#000000" fill-rule="nonzero" fill-opacity="1" /><path clip-path="url(#clip840)" d="M1245.68 1517.37 Q1242.07 1517.37 1240.24 1520.93 Q1238.44 1524.47 1238.44 1531.6 Q1238.44 1538.71 1240.24 1542.27 Q1242.07 1545.82 1245.68 1545.82 Q1249.32 1545.82 1251.12 1542.27 Q1252.95 1538.71 1252.95 1531.6 Q1252.95 1524.47 1251.12 1520.93 Q1249.32 1517.37 1245.68 1517.37 M1245.68 1513.66 Q1251.49 1513.66 1254.55 1518.27 Q1257.63 1522.85 1257.63 1531.6 Q1257.63 1540.33 1254.55 1544.94 Q1251.49 1549.52 1245.68 1549.52 Q1239.87 1549.52 1236.8 1544.94 Q1233.74 1540.33 1233.74 1531.6 Q1233.74 1522.85 1236.8 1518.27 Q1239.87 1513.66 1245.68 1513.66 Z" fill="#000000" fill-rule="nonzero" fill-opacity="1" /><path clip-path="url(#clip840)" d="M1275.85 1517.37 Q1272.23 1517.37 1270.41 1520.93 Q1268.6 1524.47 1268.6 1531.6 Q1268.6 1538.71 1270.41 1542.27 Q1272.23 1545.82 1275.85 1545.82 Q1279.48 1545.82 1281.29 1542.27 Q1283.11 1538.71 1283.11 1531.6 Q1283.11 1524.47 1281.29 1520.93 Q1279.48 1517.37 1275.85 1517.37 M1275.85 1513.66 Q1281.66 1513.66 1284.71 1518.27 Q1287.79 1522.85 1287.79 1531.6 Q1287.79 1540.33 1284.71 1544.94 Q1281.66 1549.52 1275.85 1549.52 Q1270.04 1549.52 1266.96 1544.94 Q1263.9 1540.33 1263.9 1531.6 Q1263.9 1522.85 1266.96 1518.27 Q1270.04 1513.66 1275.85 1513.66 Z" fill="#000000" fill-rule="nonzero" fill-opacity="1" /><path clip-path="url(#clip840)" d="M1306.01 1517.37 Q1302.4 1517.37 1300.57 1520.93 Q1298.76 1524.47 1298.76 1531.6 Q1298.76 1538.71 1300.57 1542.27 Q1302.4 1545.82 1306.01 1545.82 Q1309.64 1545.82 1311.45 1542.27 Q1313.28 1538.71 1313.28 1531.6 Q1313.28 1524.47 1311.45 1520.93 Q1309.64 1517.37 1306.01 1517.37 M1306.01 1513.66 Q1311.82 1513.66 1314.87 1518.27 Q1317.95 1522.85 1317.95 1531.6 Q1317.95 1540.33 1314.87 1544.94 Q1311.82 1549.52 1306.01 1549.52 Q1300.2 1549.52 1297.12 1544.94 Q1294.06 1540.33 1294.06 1531.6 Q1294.06 1522.85 1297.12 1518.27 Q1300.2 1513.66 1306.01 1513.66 Z" fill="#000000" fill-rule="nonzero" fill-opacity="1" /><path clip-path="url(#clip840)" d="M1720.93 1544.91 L1728.57 1544.91 L1728.57 1518.55 L1720.26 1520.21 L1720.26 1515.95 L1728.52 1514.29 L1733.2 1514.29 L1733.2 1544.91 L1740.84 1544.91 L1740.84 1548.85 L1720.93 1548.85 L1720.93 1544.91 Z" fill="#000000" fill-rule="nonzero" fill-opacity="1" /><path clip-path="url(#clip840)" d="M1750.33 1514.29 L1768.69 1514.29 L1768.69 1518.22 L1754.61 1518.22 L1754.61 1526.7 Q1755.63 1526.35 1756.65 1526.19 Q1757.67 1526 1758.69 1526 Q1764.47 1526 1767.85 1529.17 Q1771.23 1532.34 1771.23 1537.76 Q1771.23 1543.34 1767.76 1546.44 Q1764.29 1549.52 1757.97 1549.52 Q1755.79 1549.52 1753.52 1549.15 Q1751.28 1548.78 1748.87 1548.04 L1748.87 1543.34 Q1750.95 1544.47 1753.18 1545.03 Q1755.4 1545.58 1757.88 1545.58 Q1761.88 1545.58 1764.22 1543.48 Q1766.56 1541.37 1766.56 1537.76 Q1766.56 1534.15 1764.22 1532.04 Q1761.88 1529.94 1757.88 1529.94 Q1756 1529.94 1754.13 1530.35 Q1752.27 1530.77 1750.33 1531.65 L1750.33 1514.29 Z" fill="#000000" fill-rule="nonzero" fill-opacity="1" /><path clip-path="url(#clip840)" d="M1790.44 1517.37 Q1786.83 1517.37 1785 1520.93 Q1783.2 1524.47 1783.2 1531.6 Q1783.2 1538.71 1785 1542.27 Q1786.83 1545.82 1790.44 1545.82 Q1794.08 1545.82 1795.88 1542.27 Q1797.71 1538.71 1797.71 1531.6 Q1797.71 1524.47 1795.88 1520.93 Q1794.08 1517.37 1790.44 1517.37 M1790.44 1513.66 Q1796.25 1513.66 1799.31 1518.27 Q1802.39 1522.85 1802.39 1531.6 Q1802.39 1540.33 1799.31 1544.94 Q1796.25 1549.52 1790.44 1549.52 Q1784.63 1549.52 1781.56 1544.94 Q1778.5 1540.33 1778.5 1531.6 Q1778.5 1522.85 1781.56 1518.27 Q1784.63 1513.66 1790.44 1513.66 Z" fill="#000000" fill-rule="nonzero" fill-opacity="1" /><path clip-path="url(#clip840)" d="M1820.61 1517.37 Q1817 1517.37 1815.17 1520.93 Q1813.36 1524.47 1813.36 1531.6 Q1813.36 1538.71 1815.17 1542.27 Q1817 1545.82 1820.61 1545.82 Q1824.24 1545.82 1826.05 1542.27 Q1827.87 1538.71 1827.87 1531.6 Q1827.87 1524.47 1826.05 1520.93 Q1824.24 1517.37 1820.61 1517.37 M1820.61 1513.66 Q1826.42 1513.66 1829.47 1518.27 Q1832.55 1522.85 1832.55 1531.6 Q1832.55 1540.33 1829.47 1544.94 Q1826.42 1549.52 1820.61 1549.52 Q1814.8 1549.52 1811.72 1544.94 Q1808.66 1540.33 1808.66 1531.6 Q1808.66 1522.85 1811.72 1518.27 Q1814.8 1513.66 1820.61 1513.66 Z" fill="#000000" fill-rule="nonzero" fill-opacity="1" /><path clip-path="url(#clip840)" d="M2239.62 1544.91 L2255.93 1544.91 L2255.93 1548.85 L2233.99 1548.85 L2233.99 1544.91 Q2236.65 1542.16 2241.24 1537.53 Q2245.84 1532.88 2247.02 1531.53 Q2249.27 1529.01 2250.15 1527.27 Q2251.05 1525.51 2251.05 1523.82 Q2251.05 1521.07 2249.11 1519.33 Q2247.18 1517.6 2244.08 1517.6 Q2241.88 1517.6 2239.43 1518.36 Q2237 1519.13 2234.22 1520.68 L2234.22 1515.95 Q2237.05 1514.82 2239.5 1514.24 Q2241.95 1513.66 2243.99 1513.66 Q2249.36 1513.66 2252.56 1516.35 Q2255.75 1519.03 2255.75 1523.52 Q2255.75 1525.65 2254.94 1527.57 Q2254.15 1529.47 2252.05 1532.07 Q2251.47 1532.74 2248.37 1535.95 Q2245.26 1539.15 2239.62 1544.91 Z" fill="#000000" fill-rule="nonzero" fill-opacity="1" /><path clip-path="url(#clip840)" d="M2275.75 1517.37 Q2272.14 1517.37 2270.31 1520.93 Q2268.5 1524.47 2268.5 1531.6 Q2268.5 1538.71 2270.31 1542.27 Q2272.14 1545.82 2275.75 1545.82 Q2279.38 1545.82 2281.19 1542.27 Q2283.02 1538.71 2283.02 1531.6 Q2283.02 1524.47 2281.19 1520.93 Q2279.38 1517.37 2275.75 1517.37 M2275.75 1513.66 Q2281.56 1513.66 2284.62 1518.27 Q2287.69 1522.85 2287.69 1531.6 Q2287.69 1540.33 2284.62 1544.94 Q2281.56 1549.52 2275.75 1549.52 Q2269.94 1549.52 2266.86 1544.94 Q2263.81 1540.33 2263.81 1531.6 Q2263.81 1522.85 2266.86 1518.27 Q2269.94 1513.66 2275.75 1513.66 Z" fill="#000000" fill-rule="nonzero" fill-opacity="1" /><path clip-path="url(#clip840)" d="M2305.91 1517.37 Q2302.3 1517.37 2300.47 1520.93 Q2298.67 1524.47 2298.67 1531.6 Q2298.67 1538.71 2300.47 1542.27 Q2302.3 1545.82 2305.91 1545.82 Q2309.55 1545.82 2311.35 1542.27 Q2313.18 1538.71 2313.18 1531.6 Q2313.18 1524.47 2311.35 1520.93 Q2309.55 1517.37 2305.91 1517.37 M2305.91 1513.66 Q2311.72 1513.66 2314.78 1518.27 Q2317.86 1522.85 2317.86 1531.6 Q2317.86 1540.33 2314.78 1544.94 Q2311.72 1549.52 2305.91 1549.52 Q2300.1 1549.52 2297.02 1544.94 Q2293.97 1540.33 2293.97 1531.6 Q2293.97 1522.85 2297.02 1518.27 Q2300.1 1513.66 2305.91 1513.66 Z" fill="#000000" fill-rule="nonzero" fill-opacity="1" /><path clip-path="url(#clip840)" d="M2336.07 1517.37 Q2332.46 1517.37 2330.63 1520.93 Q2328.83 1524.47 2328.83 1531.6 Q2328.83 1538.71 2330.63 1542.27 Q2332.46 1545.82 2336.07 1545.82 Q2339.71 1545.82 2341.51 1542.27 Q2343.34 1538.71 2343.34 1531.6 Q2343.34 1524.47 2341.51 1520.93 Q2339.71 1517.37 2336.07 1517.37 M2336.07 1513.66 Q2341.88 1513.66 2344.94 1518.27 Q2348.02 1522.85 2348.02 1531.6 Q2348.02 1540.33 2344.94 1544.94 Q2341.88 1549.52 2336.07 1549.52 Q2330.26 1549.52 2327.18 1544.94 Q2324.13 1540.33 2324.13 1531.6 Q2324.13 1522.85 2327.18 1518.27 Q2330.26 1513.66 2336.07 1513.66 Z" fill="#000000" fill-rule="nonzero" fill-opacity="1" /><polyline clip-path="url(#clip842)" style="stroke:#000000; stroke-linecap:round; stroke-linejoin:round; stroke-width:2; stroke-opacity:0.1; fill:none" points="170.857,1451.88 2352.76,1451.88 "/>
<polyline clip-path="url(#clip842)" style="stroke:#000000; stroke-linecap:round; stroke-linejoin:round; stroke-width:2; stroke-opacity:0.1; fill:none" points="170.857,1130.22 2352.76,1130.22 "/>
<polyline clip-path="url(#clip842)" style="stroke:#000000; stroke-linecap:round; stroke-linejoin:round; stroke-width:2; stroke-opacity:0.1; fill:none" points="170.857,808.566 2352.76,808.566 "/>
<polyline clip-path="url(#clip842)" style="stroke:#000000; stroke-linecap:round; stroke-linejoin:round; stroke-width:2; stroke-opacity:0.1; fill:none" points="170.857,486.907 2352.76,486.907 "/>
<polyline clip-path="url(#clip842)" style="stroke:#000000; stroke-linecap:round; stroke-linejoin:round; stroke-width:2; stroke-opacity:0.1; fill:none" points="170.857,165.249 2352.76,165.249 "/>
<polyline clip-path="url(#clip840)" style="stroke:#000000; stroke-linecap:round; stroke-linejoin:round; stroke-width:4; stroke-opacity:1; fill:none" points="170.857,1486.45 170.857,47.2441 "/>
<polyline clip-path="url(#clip840)" style="stroke:#000000; stroke-linecap:round; stroke-linejoin:round; stroke-width:4; stroke-opacity:1; fill:none" points="170.857,1451.88 189.755,1451.88 "/>
<polyline clip-path="url(#clip840)" style="stroke:#000000; stroke-linecap:round; stroke-linejoin:round; stroke-width:4; stroke-opacity:1; fill:none" points="170.857,1130.22 189.755,1130.22 "/>
<polyline clip-path="url(#clip840)" style="stroke:#000000; stroke-linecap:round; stroke-linejoin:round; stroke-width:4; stroke-opacity:1; fill:none" points="170.857,808.566 189.755,808.566 "/>
<polyline clip-path="url(#clip840)" style="stroke:#000000; stroke-linecap:round; stroke-linejoin:round; stroke-width:4; stroke-opacity:1; fill:none" points="170.857,486.907 189.755,486.907 "/>
<polyline clip-path="url(#clip840)" style="stroke:#000000; stroke-linecap:round; stroke-linejoin:round; stroke-width:4; stroke-opacity:1; fill:none" points="170.857,165.249 189.755,165.249 "/>
<path clip-path="url(#clip840)" d="M122.913 1437.68 Q119.302 1437.68 117.473 1441.25 Q115.668 1444.79 115.668 1451.92 Q115.668 1459.02 117.473 1462.59 Q119.302 1466.13 122.913 1466.13 Q126.547 1466.13 128.353 1462.59 Q130.182 1459.02 130.182 1451.92 Q130.182 1444.79 128.353 1441.25 Q126.547 1437.68 122.913 1437.68 M122.913 1433.98 Q128.723 1433.98 131.779 1438.58 Q134.857 1443.17 134.857 1451.92 Q134.857 1460.64 131.779 1465.25 Q128.723 1469.83 122.913 1469.83 Q117.103 1469.83 114.024 1465.25 Q110.969 1460.64 110.969 1451.92 Q110.969 1443.17 114.024 1438.58 Q117.103 1433.98 122.913 1433.98 Z" fill="#000000" fill-rule="nonzero" fill-opacity="1" /><path clip-path="url(#clip840)" d="M82.7975 1112.94 L101.154 1112.94 L101.154 1116.88 L87.0799 1116.88 L87.0799 1125.35 Q88.0984 1125 89.1169 1124.84 Q90.1354 1124.66 91.1539 1124.66 Q96.941 1124.66 100.321 1127.83 Q103.7 1131 103.7 1136.42 Q103.7 1141.99 100.228 1145.1 Q96.7558 1148.17 90.4364 1148.17 Q88.2604 1148.17 85.9919 1147.8 Q83.7466 1147.43 81.3392 1146.69 L81.3392 1141.99 Q83.4225 1143.13 85.6447 1143.68 Q87.8669 1144.24 90.3438 1144.24 Q94.3484 1144.24 96.6863 1142.13 Q99.0243 1140.03 99.0243 1136.42 Q99.0243 1132.8 96.6863 1130.7 Q94.3484 1128.59 90.3438 1128.59 Q88.4688 1128.59 86.5938 1129.01 Q84.7419 1129.43 82.7975 1130.3 L82.7975 1112.94 Z" fill="#000000" fill-rule="nonzero" fill-opacity="1" /><path clip-path="url(#clip840)" d="M122.913 1116.02 Q119.302 1116.02 117.473 1119.59 Q115.668 1123.13 115.668 1130.26 Q115.668 1137.36 117.473 1140.93 Q119.302 1144.47 122.913 1144.47 Q126.547 1144.47 128.353 1140.93 Q130.182 1137.36 130.182 1130.26 Q130.182 1123.13 128.353 1119.59 Q126.547 1116.02 122.913 1116.02 M122.913 1112.32 Q128.723 1112.32 131.779 1116.93 Q134.857 1121.51 134.857 1130.26 Q134.857 1138.99 131.779 1143.59 Q128.723 1148.17 122.913 1148.17 Q117.103 1148.17 114.024 1143.59 Q110.969 1138.99 110.969 1130.26 Q110.969 1121.51 114.024 1116.93 Q117.103 1112.32 122.913 1112.32 Z" fill="#000000" fill-rule="nonzero" fill-opacity="1" /><path clip-path="url(#clip840)" d="M53.3995 821.91 L61.0384 821.91 L61.0384 795.545 L52.7282 797.211 L52.7282 792.952 L60.9921 791.286 L65.668 791.286 L65.668 821.91 L73.3068 821.91 L73.3068 825.846 L53.3995 825.846 L53.3995 821.91 Z" fill="#000000" fill-rule="nonzero" fill-opacity="1" /><path clip-path="url(#clip840)" d="M92.7512 794.364 Q89.1401 794.364 87.3114 797.929 Q85.5058 801.471 85.5058 808.6 Q85.5058 815.707 87.3114 819.272 Q89.1401 822.813 92.7512 822.813 Q96.3854 822.813 98.1909 819.272 Q100.02 815.707 100.02 808.6 Q100.02 801.471 98.1909 797.929 Q96.3854 794.364 92.7512 794.364 M92.7512 790.661 Q98.5613 790.661 101.617 795.267 Q104.696 799.85 104.696 808.6 Q104.696 817.327 101.617 821.934 Q98.5613 826.517 92.7512 826.517 Q86.941 826.517 83.8623 821.934 Q80.8068 817.327 80.8068 808.6 Q80.8068 799.85 83.8623 795.267 Q86.941 790.661 92.7512 790.661 Z" fill="#000000" fill-rule="nonzero" fill-opacity="1" /><path clip-path="url(#clip840)" d="M122.913 794.364 Q119.302 794.364 117.473 797.929 Q115.668 801.471 115.668 808.6 Q115.668 815.707 117.473 819.272 Q119.302 822.813 122.913 822.813 Q126.547 822.813 128.353 819.272 Q130.182 815.707 130.182 808.6 Q130.182 801.471 128.353 797.929 Q126.547 794.364 122.913 794.364 M122.913 790.661 Q128.723 790.661 131.779 795.267 Q134.857 799.85 134.857 808.6 Q134.857 817.327 131.779 821.934 Q128.723 826.517 122.913 826.517 Q117.103 826.517 114.024 821.934 Q110.969 817.327 110.969 808.6 Q110.969 799.85 114.024 795.267 Q117.103 790.661 122.913 790.661 Z" fill="#000000" fill-rule="nonzero" fill-opacity="1" /><path clip-path="url(#clip840)" d="M53.3995 500.252 L61.0384 500.252 L61.0384 473.887 L52.7282 475.553 L52.7282 471.294 L60.9921 469.627 L65.668 469.627 L65.668 500.252 L73.3068 500.252 L73.3068 504.187 L53.3995 504.187 L53.3995 500.252 Z" fill="#000000" fill-rule="nonzero" fill-opacity="1" /><path clip-path="url(#clip840)" d="M82.7975 469.627 L101.154 469.627 L101.154 473.563 L87.0799 473.563 L87.0799 482.035 Q88.0984 481.688 89.1169 481.526 Q90.1354 481.34 91.1539 481.34 Q96.941 481.34 100.321 484.512 Q103.7 487.683 103.7 493.1 Q103.7 498.678 100.228 501.78 Q96.7558 504.859 90.4364 504.859 Q88.2604 504.859 85.9919 504.488 Q83.7466 504.118 81.3392 503.377 L81.3392 498.678 Q83.4225 499.812 85.6447 500.368 Q87.8669 500.924 90.3438 500.924 Q94.3484 500.924 96.6863 498.817 Q99.0243 496.711 99.0243 493.1 Q99.0243 489.488 96.6863 487.382 Q94.3484 485.275 90.3438 485.275 Q88.4688 485.275 86.5938 485.692 Q84.7419 486.109 82.7975 486.988 L82.7975 469.627 Z" fill="#000000" fill-rule="nonzero" fill-opacity="1" /><path clip-path="url(#clip840)" d="M122.913 472.706 Q119.302 472.706 117.473 476.271 Q115.668 479.813 115.668 486.942 Q115.668 494.049 117.473 497.613 Q119.302 501.155 122.913 501.155 Q126.547 501.155 128.353 497.613 Q130.182 494.049 130.182 486.942 Q130.182 479.813 128.353 476.271 Q126.547 472.706 122.913 472.706 M122.913 469.002 Q128.723 469.002 131.779 473.609 Q134.857 478.192 134.857 486.942 Q134.857 495.669 131.779 500.275 Q128.723 504.859 122.913 504.859 Q117.103 504.859 114.024 500.275 Q110.969 495.669 110.969 486.942 Q110.969 478.192 114.024 473.609 Q117.103 469.002 122.913 469.002 Z" fill="#000000" fill-rule="nonzero" fill-opacity="1" /><path clip-path="url(#clip840)" d="M56.6171 178.594 L72.9365 178.594 L72.9365 182.529 L50.9921 182.529 L50.9921 178.594 Q53.6541 175.839 58.2375 171.21 Q62.8439 166.557 64.0245 165.215 Q66.2698 162.691 67.1494 160.955 Q68.0522 159.196 68.0522 157.506 Q68.0522 154.752 66.1078 153.016 Q64.1865 151.279 61.0847 151.279 Q58.8856 151.279 56.4319 152.043 Q54.0014 152.807 51.2236 154.358 L51.2236 149.636 Q54.0477 148.502 56.5014 147.923 Q58.955 147.344 60.9921 147.344 Q66.3624 147.344 69.5568 150.029 Q72.7513 152.715 72.7513 157.205 Q72.7513 159.335 71.9411 161.256 Q71.1541 163.154 69.0476 165.747 Q68.4689 166.418 65.367 169.636 Q62.2652 172.83 56.6171 178.594 Z" fill="#000000" fill-rule="nonzero" fill-opacity="1" /><path clip-path="url(#clip840)" d="M92.7512 151.048 Q89.1401 151.048 87.3114 154.613 Q85.5058 158.154 85.5058 165.284 Q85.5058 172.39 87.3114 175.955 Q89.1401 179.497 92.7512 179.497 Q96.3854 179.497 98.1909 175.955 Q100.02 172.39 100.02 165.284 Q100.02 158.154 98.1909 154.613 Q96.3854 151.048 92.7512 151.048 M92.7512 147.344 Q98.5613 147.344 101.617 151.951 Q104.696 156.534 104.696 165.284 Q104.696 174.011 101.617 178.617 Q98.5613 183.201 92.7512 183.201 Q86.941 183.201 83.8623 178.617 Q80.8068 174.011 80.8068 165.284 Q80.8068 156.534 83.8623 151.951 Q86.941 147.344 92.7512 147.344 Z" fill="#000000" fill-rule="nonzero" fill-opacity="1" /><path clip-path="url(#clip840)" d="M122.913 151.048 Q119.302 151.048 117.473 154.613 Q115.668 158.154 115.668 165.284 Q115.668 172.39 117.473 175.955 Q119.302 179.497 122.913 179.497 Q126.547 179.497 128.353 175.955 Q130.182 172.39 130.182 165.284 Q130.182 158.154 128.353 154.613 Q126.547 151.048 122.913 151.048 M122.913 147.344 Q128.723 147.344 131.779 151.951 Q134.857 156.534 134.857 165.284 Q134.857 174.011 131.779 178.617 Q128.723 183.201 122.913 183.201 Q117.103 183.201 114.024 178.617 Q110.969 174.011 110.969 165.284 Q110.969 156.534 114.024 151.951 Q117.103 147.344 122.913 147.344 Z" fill="#000000" fill-rule="nonzero" fill-opacity="1" /><polyline clip-path="url(#clip842)" style="stroke:#009af9; stroke-linecap:round; stroke-linejoin:round; stroke-width:4; stroke-opacity:1; fill:none" points="232.609,1445.7 233.638,1445.72 234.668,1410.13 235.697,1410.24 236.726,1402.33 237.755,1402.5 238.784,1378.33 239.814,1378.57 240.843,1408.79 241.872,1408.9 242.901,1418.93 243.93,1419.06 244.96,1344.66 245.989,1345.14 247.018,1427.27 248.047,1427.34 249.076,1420.37 250.106,1420.47 251.135,1390.57 252.164,1390.78 253.193,1377.37 254.222,1377.66 255.252,1397.53 256.281,1397.71 257.31,1389.1 258.339,1389.29 259.368,1386.23 260.398,1386.48 261.427,1332.53 262.456,1333.01 263.485,1371.97 264.514,1372.21 265.544,1398.05 266.573,1398.29 267.602,1394.05 268.631,1394.26 269.66,1375.05 270.69,1375.32 271.719,1347.14 272.748,1347.56 273.777,1349.58 274.806,1349.97 275.836,1327.05 276.865,1327.59 277.894,1400.14 278.923,1400.28 279.952,1383.48 280.982,1383.68 282.011,1386.55 283.04,1386.79 284.069,1362.56 285.098,1362.83 286.128,1370.52 287.157,1370.77 288.186,1364.22 289.215,1364.49 290.244,1304.83 291.274,1305.74 292.303,1345.91 293.332,1346.29 294.361,1354.75 295.39,1355.04 296.42,1403.26 297.449,1403.36 298.478,1357.98 299.507,1358.35 300.536,1358.26 301.565,1358.54 302.595,1369.14 303.624,1369.36 304.653,1358.33 305.682,1358.65 306.711,1393.8 307.741,1393.93 308.77,1349.38 309.799,1349.75 310.828,1341.98 311.857,1342.36 312.887,1389.01 313.916,1389.19 314.945,1410.31 315.974,1410.44 317.003,1339.8 318.033,1340.17 319.062,1398.56 320.091,1398.74 321.12,1367.91 322.149,1368.1 323.179,1380.23 324.208,1380.36 325.237,1416.08 326.266,1416.15 327.295,1286.79 328.325,1287.47 329.354,1308.07 330.383,1308.7 331.412,1339.27 332.441,1339.52 333.471,1355.17 334.5,1355.54 335.529,1417.28 336.558,1417.37 337.587,1357.6 338.617,1357.87 339.646,1335.61 340.675,1335.91 341.704,1327.85 342.733,1328.31 343.763,1347.31 344.792,1347.53 345.821,1325.06 346.85,1325.47 347.879,1325.8 348.909,1326.17 349.938,1357.23 350.967,1357.45 351.996,1351.74 353.025,1351.99 354.055,1385.38 355.084,1385.57 356.113,1354.56 357.142,1354.82 358.171,1295 359.201,1295.43 360.23,1366.44 361.259,1366.63 362.288,1349.06 363.317,1349.31 364.347,1357.15 365.376,1357.34 366.405,1300.68 367.434,1301.15 368.463,1179.71 369.493,1180.79 370.522,1366.34 371.551,1366.51 372.58,1376.07 373.609,1376.26 374.639,1384.34 375.668,1384.45 376.697,1334.94 377.726,1335.43 378.755,1349.73 379.784,1349.95 380.814,1303.8 381.843,1304.25 382.872,1279.36 383.901,1279.96 384.93,1285.97 385.96,1286.61 386.989,1319.94 388.018,1320.26 389.047,1326.2 390.076,1326.57 391.106,1293.53 392.135,1294.15 393.164,1311.2 394.193,1311.61 395.222,1325.73 396.252,1326.14 397.281,1322.46 398.31,1322.83 399.339,1328.22 400.368,1328.6 401.398,1256.93 402.427,1257.54 403.456,1334.58 404.485,1334.92 405.514,1320.79 406.544,1321.22 407.573,1337.88 408.602,1338.09 409.631,1323.79 410.66,1324.09 411.69,1297.42 412.719,1298.01 413.748,1315.97 414.777,1316.33 415.806,1268.67 416.836,1269.42 417.865,1326.73 418.894,1327.13 419.923,1316.2 420.952,1316.62 421.982,1305.08 423.011,1305.54 424.04,1256.85 425.069,1257.51 426.098,1335.89 427.128,1336.18 428.157,1286.44 429.186,1286.86 430.215,1263.2 431.244,1263.96 432.274,1268.68 433.303,1269.37 434.332,1208.68 435.361,1209.62 436.39,1204.57 437.42,1205.55 438.449,1363.37 439.478,1363.61 440.507,1332.66 441.536,1332.94 442.566,1259.05 443.595,1259.68 444.624,1288.25 445.653,1288.89 446.682,1285.47 447.712,1285.94 448.741,1350.62 449.77,1350.77 450.799,1198.25 451.828,1199.22 452.858,1272.44 453.887,1272.81 454.916,1294.98 455.945,1295.4 456.974,1248.66 458.003,1249.25 459.033,1231.19 460.062,1231.94 461.091,1231.35 462.12,1232.32 463.149,1264.31 464.179,1264.81 465.208,1328.22 466.237,1328.51 467.266,1259.2 468.295,1259.76 469.325,1177.73 470.354,1178.75 471.383,1257.48 472.412,1258.26 473.441,1299.09 474.471,1299.52 475.5,1289.94 476.529,1290.28 477.558,1292.37 478.587,1292.83 479.617,1306.3 480.646,1306.65 481.675,1270.25 482.704,1270.65 483.733,1261.33 484.763,1262 485.792,1292.82 486.821,1293.24 487.85,1270.74 488.879,1271.19 489.909,1226.28 490.938,1227.02 491.967,1250.1 492.996,1250.76 494.025,1233.33 495.055,1233.85 496.084,1257.78 497.113,1258.28 498.142,1314.52 499.171,1314.93 500.201,1195.32 501.23,1196.31 502.259,1218.81 503.288,1219.6 504.317,1285.72 505.347,1286.19 506.376,1187.49 507.405,1188.5 508.434,1257.74 509.463,1258.27 510.493,1150.99 511.522,1151.97 512.551,1275.59 513.58,1276.03 514.609,1261.19 515.639,1261.64 516.668,1222.44 517.697,1223.16 518.726,1209.52 519.755,1210.43 520.785,1108.74 521.814,1110.11 522.843,1240.56 523.872,1241.05 524.901,1147.82 525.931,1148.85 526.96,1197.83 527.989,1198.5 529.018,1159.78 530.047,1160.68 531.077,1201.2 532.106,1201.81 533.135,1280.28 534.164,1280.56 535.193,1089.78 536.222,1090.97 537.252,1230.55 538.281,1231.08 539.31,1175.72 540.339,1176.86 541.368,1189.64 542.398,1190.26 543.427,1133.65 544.456,1134.74 545.485,1150.36 546.514,1151.28 547.544,1208.64 548.573,1209.25 549.602,1125.69 550.631,1126.55 551.66,1151.07 552.69,1152.15 553.719,1115.73 554.748,1116.84 555.777,1173.82 556.806,1174.44 557.836,1036.93 558.865,1038.83 559.894,1207.26 560.923,1207.9 561.952,1060.16 562.982,1061.67 564.011,1172.39 565.04,1173.04 566.069,1117.88 567.098,1119.13 568.128,1173.85 569.157,1174.43 570.186,1120.31 571.215,1121.56 572.244,1112.99 573.274,1113.62 574.303,1144.85 575.332,1145.82 576.361,1136.38 577.39,1137.26 578.42,1135.58 579.449,1136.98 580.478,1117.04 581.507,1118 582.536,1114.9 583.566,1115.67 584.595,1035.32 585.624,1036.7 586.653,1118.47 587.682,1119.63 588.712,1186.95 589.741,1187.59 590.77,1150.05 591.799,1150.9 592.828,991.767 593.858,993.482 594.887,1117.24 595.916,1118.01 596.945,1075.36 597.974,1076.66 599.004,1119.09 600.033,1120.15 601.062,1056.88 602.091,1057.93 603.12,1004.2 604.15,1006.27 605.179,1115.74 606.208,1116.95 607.237,1075.18 608.266,1076.1 609.296,1091.4 610.325,1092.1 611.354,1060.05 612.383,1060.93 613.412,1055.2 614.441,1056.24 615.471,1141.63 616.5,1142.32 617.529,1095.17 618.558,1096.06 619.587,1061.24 620.617,1062.51 621.646,899.028 622.675,900.926 623.704,1065.78 624.733,1066.81 625.763,996.431 626.792,997.632 627.821,961.994 628.85,963.783 629.879,996.022 630.909,997.98 631.938,955.785 632.967,957.351 633.996,1056.76 635.025,1057.7 636.055,984.814 637.084,986.564 638.113,956.385 639.142,957.43 640.171,929.717 641.201,931.483 642.23,982.91 643.259,983.816 644.288,934.697 645.317,936.637 646.347,975.824 647.376,977.667 648.405,1001.06 649.434,1002.61 650.463,1014.1 651.493,1015.93 652.522,910.547 653.551,912.119 654.58,920.26 655.609,921.755 656.639,1036.78 657.668,1037.81 658.697,990.147 659.726,991.269 660.755,989.668 661.785,990.92 662.814,929.515 663.843,931.785 664.872,899.07 665.901,900.656 666.931,913.1 667.96,914.321 668.989,913.724 670.018,915.497 671.047,935.235 672.077,936.983 673.106,919.583 674.135,921.354 675.164,956.755 676.193,958.031 677.223,833.311 678.252,835.18 679.281,859.452 680.31,861.419 681.339,978.866 682.369,980.025 683.398,970.701 684.427,972.389 685.456,825.973 686.485,827.805 687.515,890.024 688.544,891.272 689.573,875.648 690.602,876.863 691.631,893.969 692.66,895.628 693.69,823.431 694.719,826.396 695.748,864.768 696.777,866.816 697.806,833.661 698.836,836.099 699.865,968.416 700.894,969.682 701.923,841.906 702.952,843.644 703.982,774.649 705.011,777.075 706.04,832.733 707.069,834.774 708.098,859.341 709.128,860.856 710.157,801.621 711.186,803.957 712.215,824.221 713.244,826.589 714.274,779.725 715.303,781.841 716.332,856.897 717.361,858.248 718.39,790.911 719.42,792.795 720.449,885.874 721.478,887.197 722.507,868.276 723.536,870.164 724.566,767.151 725.595,769.713 726.624,732.848 727.653,735.223 728.682,850.034 729.712,851.88 730.741,848.249 731.77,849.676 732.799,888.585 733.828,890.073 734.858,836.402 735.887,837.944 736.916,745.098 737.945,747.788 738.974,772.174 740.004,774.913 741.033,794.21 742.062,795.984 743.091,853.663 744.12,854.948 745.15,821.51 746.179,823.366 747.208,713.619 748.237,715.667 749.266,795.465 750.296,797.917 751.325,855.678 752.354,857.568 753.383,703.664 754.412,706.112 755.442,760.822 756.471,762.839 757.5,779.931 758.529,781.754 759.558,763.922 760.588,766.297 761.617,676.892 762.646,679.34 763.675,837.914 764.704,839.812 765.734,774.047 766.763,776.299 767.792,690.447 768.821,692.045 769.85,851.857 770.88,853.3 771.909,775.505 772.938,778.047 773.967,702.246 774.996,704.056 776.025,655.827 777.055,658.554 778.084,790.831 779.113,792.885 780.142,709.101 781.171,711.947 782.201,696.83 783.23,699.566 784.259,761.913 785.288,764.24 786.317,620.732 787.347,622.862 788.376,689.22 789.405,691.37 790.434,798.673 791.463,801.54 792.493,634.511 793.522,637.167 794.551,585.31 795.58,589.755 796.609,720.883 797.639,722.794 798.668,629.489 799.697,632.823 800.726,588.359 801.755,590.845 802.785,628.459 803.814,631.326 804.843,600.074 805.872,603.137 806.901,768.963 807.931,770.941 808.96,622.171 809.989,626.099 811.018,570.097 812.047,572.45 813.077,649.469 814.106,651.376 815.135,595.59 816.164,598.382 817.193,531.748 818.223,534.55 819.252,688.353 820.281,690.666 821.31,656.669 822.339,658.663 823.369,628.188 824.398,630.955 825.427,697.403 826.456,699.693 827.485,600.484 828.515,603.307 829.544,711.361 830.573,713.545 831.602,548.642 832.631,551.351 833.661,602.291 834.69,604.398 835.719,589.146 836.748,591.513 837.777,530.542 838.807,533.094 839.836,491.762 840.865,496.35 841.894,647.023 842.923,651.465 843.953,663.931 844.982,666.922 846.011,575.669 847.04,579.237 848.069,521.124 849.099,525.76 850.128,533.212 851.157,536.714 852.186,457.809 853.215,460.517 854.244,668.049 855.274,670.315 856.303,506.306 857.332,508.746 858.361,469.546 859.39,474.404 860.42,493.084 861.449,495.953 862.478,592.151 863.507,595.783 864.536,406.441 865.566,410.988 866.595,525.235 867.624,527.868 868.653,512.2 869.682,514.473 870.712,582.98 871.741,586.731 872.77,437.78 873.799,441.285 874.828,534.69 875.858,537.629 876.887,374.835 877.916,380.329 878.945,485.549 879.974,489.411 881.004,511.198 882.033,515.262 883.062,541.97 884.091,544.708 885.12,445.485 886.15,448.774 887.179,362.202 888.208,366.725 889.237,483.867 890.266,487.025 891.296,351.69 892.325,354.929 893.354,400.832 894.383,404.248 895.412,463.486 896.442,465.861 897.471,552.206 898.5,555.07 899.529,448.114 900.558,450.35 901.588,452.989 902.617,455.913 903.646,379.212 904.675,381.996 905.704,469.498 906.734,473.567 907.763,524.166 908.792,528.061 909.821,376.448 910.85,379.205 911.88,353.038 912.909,357.016 913.938,456.413 914.967,458.724 915.996,408.286 917.026,412.557 918.055,472.866 919.084,477.481 920.113,457.19 921.142,461.819 922.172,420.416 923.201,424.919 924.23,354.575 925.259,358.029 926.288,483.848 927.318,487.516 928.347,375.87 929.376,379.263 930.405,539.052 931.434,542.584 932.463,381.24 933.493,384.658 934.522,367.692 935.551,371.119 936.58,427.122 937.609,429.856 938.639,459.47 939.668,463.838 940.697,438.431 941.726,441.044 942.755,404.092 943.785,407.324 944.814,365.968 945.843,370.249 946.872,393.518 947.901,396.457 948.931,384.947 949.96,388.873 950.989,340.963 952.018,344.037 953.047,401.975 954.077,404.034 955.106,337.994 956.135,342.049 957.164,408.169 958.193,411.27 959.223,354.758 960.252,358.361 961.281,385.65 962.31,389.135 963.339,355.883 964.369,359.592 965.398,400.993 966.427,405.813 967.456,429.509 968.485,432.62 969.515,260.789 970.544,264.983 971.573,337.612 972.602,340.823 973.631,320.091 974.661,324.08 975.69,396.206 976.719,399.105 977.748,442.505 978.777,446.062 979.807,312.959 980.836,317.114 981.865,324.662 982.894,328.98 983.923,475.165 984.953,480.235 985.982,295.9 987.011,300.159 988.04,378.842 989.069,383.373 990.099,362.156 991.128,365.618 992.157,424.57 993.186,427.675 994.215,342.865 995.245,347.013 996.274,327.609 997.303,330.728 998.332,339.522 999.361,343.556 1000.39,349.311 1001.42,352.546 1002.45,320.5 1003.48,324.436 1004.51,303.617 1005.54,308.931 1006.57,318.956 1007.59,322.871 1008.62,280.074 1009.65,284.462 1010.68,312.284 1011.71,316.067 1012.74,345.273 1013.77,349.559 1014.8,322.61 1015.83,327.043 1016.86,301.625 1017.89,307.058 1018.92,276.447 1019.95,281.309 1020.97,297.445 1022,299.65 1023.03,267.707 1024.06,272.526 1025.09,357.209 1026.12,361.803 1027.15,239.446 1028.18,243.289 1029.21,378.12 1030.24,381.655 1031.27,290.942 1032.3,295.429 1033.32,300.56 1034.35,305.747 1035.38,383.812 1036.41,387.865 1037.44,290.372 1038.47,293.466 1039.5,248.611 1040.53,253.27 1041.56,306.157 1042.59,311.831 1043.62,320.637 1044.65,325.801 1045.68,289.856 1046.7,296.235 1047.73,345.016 1048.76,348.393 1049.79,316.532 1050.82,319.652 1051.85,230.245 1052.88,233.945 1053.91,272.54 1054.94,275.957 1055.97,219.267 1057,224.17 1058.03,252.25 1059.05,256.609 1060.08,319.411 1061.11,324.192 1062.14,248.524 1063.17,253.209 1064.2,352.962 1065.23,356.713 1066.26,370.336 1067.29,373.951 1068.32,263.512 1069.35,267.134 1070.38,248.473 1071.41,254.94 1072.43,320.614 1073.46,325.16 1074.49,378.803 1075.52,382.271 1076.55,292.144 1077.58,296.507 1078.61,258.758 1079.64,262.449 1080.67,271.113 1081.7,275.666 1082.73,227.52 1083.76,231.409 1084.78,260.82 1085.81,264.952 1086.84,311.617 1087.87,314.445 1088.9,327.019 1089.93,332.558 1090.96,227.638 1091.99,231.488 1093.02,337.357 1094.05,341.474 1095.08,227.255 1096.11,233.834 1097.14,204.257 1098.16,208.256 1099.19,276.535 1100.22,279.706 1101.25,266.937 1102.28,271.451 1103.31,256.1 1104.34,259.248 1105.37,239.308 1106.4,242.192 1107.43,268.627 1108.46,277.863 1109.49,272.708 1110.51,276.293 1111.54,348.245 1112.57,352.237 1113.6,283.83 1114.63,290.473 1115.66,183.159 1116.69,188.28 1117.72,203.669 1118.75,208.299 1119.78,338.443 1120.81,344.239 1121.84,211.565 1122.87,214.646 1123.89,204.087 1124.92,210.002 1125.95,203.74 1126.98,207.103 1128.01,277.81 1129.04,281.87 1130.07,270.94 1131.1,274.518 1132.13,198.79 1133.16,202.301 1134.19,183.658 1135.22,188.774 1136.24,212.166 1137.27,218.813 1138.3,178.578 1139.33,184.042 1140.36,225.389 1141.39,231.43 1142.42,264.22 1143.45,268.994 1144.48,205.186 1145.51,209.454 1146.54,216.034 1147.57,221.404 1148.59,255.342 1149.62,260.643 1150.65,241.512 1151.68,245.37 1152.71,246.647 1153.74,251.465 1154.77,254.907 1155.8,259.506 1156.83,175.171 1157.86,179.062 1158.89,211.92 1159.92,217.787 1160.95,275.286 1161.97,278.467 1163,247.027 1164.03,253.013 1165.06,256.988 1166.09,262.065 1167.12,254.265 1168.15,258.016 1169.18,222.429 1170.21,227.194 1171.24,258.038 1172.27,263.296 1173.3,266.662 1174.32,269.725 1175.35,312.989 1176.38,316.105 1177.41,299.03 1178.44,302.245 1179.47,183.73 1180.5,189.363 1181.53,192.634 1182.56,197.062 1183.59,231.672 1184.62,235.167 1185.65,228.413 1186.68,234.253 1187.7,235.334 1188.73,240.831 1189.76,184.484 1190.79,187.761 1191.82,243.357 1192.85,248.107 1193.88,297.588 1194.91,301.564 1195.94,237.545 1196.97,242.043 1198,173.24 1199.03,176.604 1200.05,185.541 1201.08,191.67 1202.11,231.558 1203.14,236.476 1204.17,229.61 1205.2,233.908 1206.23,177.295 1207.26,183.817 1208.29,185.414 1209.32,190.085 1210.35,210.166 1211.38,214.289 1212.41,205.336 1213.43,208.932 1214.46,203.572 1215.49,207.715 1216.52,252.07 1217.55,255.404 1218.58,153.825 1219.61,158.117 1220.64,155.784 1221.67,160.859 1222.7,167.504 1223.73,171.685 1224.76,214.129 1225.78,217.809 1226.81,199.582 1227.84,205.027 1228.87,246.891 1229.9,251.638 1230.93,235.852 1231.96,241.949 1232.99,188.198 1234.02,195.513 1235.05,192.656 1236.08,196.743 1237.11,157.79 1238.14,166.229 1239.16,148.415 1240.19,154.858 1241.22,139.175 1242.25,145.215 1243.28,240.315 1244.31,244.995 1245.34,132.126 1246.37,138.137 1247.4,265.626 1248.43,270.614 1249.46,197.012 1250.49,200.805 1251.51,151.883 1252.54,159.498 1253.57,243.895 1254.6,246.309 1255.63,152.509 1256.66,157.677 1257.69,308.268 1258.72,312.076 1259.75,179.18 1260.78,185.139 1261.81,178.537 1262.84,185.465 1263.87,163.148 1264.89,167.591 1265.92,175.332 1266.95,181.424 1267.98,212.219 1269.01,215.862 1270.04,211.899 1271.07,214.879 1272.1,229.212 1273.13,234.726 1274.16,183.578 1275.19,188.434 1276.22,204.336 1277.24,209.304 1278.27,217.462 1279.3,223.426 1280.33,145.827 1281.36,152.086 1282.39,178.008 1283.42,184.699 1284.45,173.247 1285.48,178.215 1286.51,177.713 1287.54,182.984 1288.57,167.967 1289.59,174.035 1290.62,103.746 1291.65,108.329 1292.68,166.255 1293.71,171.85 1294.74,159.866 1295.77,164.006 1296.8,162.564 1297.83,167.194 1298.86,195.257 1299.89,200.878 1300.92,253.613 1301.95,257.575 1302.97,174.453 1304,178.748 1305.03,200.725 1306.06,204.805 1307.09,143.072 1308.12,149.389 1309.15,211.551 1310.18,216.403 1311.21,227.127 1312.24,232.377 1313.27,137.958 1314.3,141.99 1315.32,210.527 1316.35,215.672 1317.38,146.093 1318.41,149.87 1319.44,183.313 1320.47,190.14 1321.5,171.423 1322.53,176.411 1323.56,157.371 1324.59,161.143 1325.62,126.021 1326.65,128.19 1327.68,162.561 1328.7,168.907 1329.73,170.739 1330.76,173.266 1331.79,157.137 1332.82,159.872 1333.85,150.343 1334.88,154.35 1335.91,158.612 1336.94,163.301 1337.97,149.461 1339,152.475 1340.03,184.118 1341.05,187.123 1342.08,220.74 1343.11,226.63 1344.14,174.008 1345.17,180.118 1346.2,140.369 1347.23,145.572 1348.26,171.577 1349.29,175.03 1350.32,177.883 1351.35,183.187 1352.38,180.011 1353.41,184.487 1354.43,220.828 1355.46,227.077 1356.49,140.653 1357.52,146.855 1358.55,149.496 1359.58,154.456 1360.61,108.831 1361.64,114.921 1362.67,137.123 1363.7,141.378 1364.73,140.315 1365.76,146.47 1366.78,192.116 1367.81,197.245 1368.84,183.383 1369.87,187.198 1370.9,206.583 1371.93,209.457 1372.96,157.269 1373.99,160.072 1375.02,206.09 1376.05,210.063 1377.08,165.716 1378.11,170.567 1379.14,128.125 1380.16,135.744 1381.19,217.901 1382.22,221.295 1383.25,170.57 1384.28,175.603 1385.31,177.34 1386.34,181.746 1387.37,125.846 1388.4,134.124 1389.43,156.988 1390.46,162.168 1391.49,87.9763 1392.51,96.0554 1393.54,187.56 1394.57,190.506 1395.6,177.032 1396.63,180.051 1397.66,175.425 1398.69,181.346 1399.72,127.893 1400.75,132.42 1401.78,169.332 1402.81,173.959 1403.84,278.404 1404.87,283.406 1405.89,167.065 1406.92,171.99 1407.95,155.977 1408.98,161.289 1410.01,181.284 1411.04,186.144 1412.07,159.012 1413.1,167.537 1414.13,182.33 1415.16,186.858 1416.19,138.18 1417.22,143.075 1418.24,169.606 1419.27,173.617 1420.3,241.298 1421.33,247 1422.36,196.188 1423.39,200.072 1424.42,203.884 1425.45,209.791 1426.48,142.158 1427.51,146.671 1428.54,213.759 1429.57,219.703 1430.6,207.507 1431.62,210.709 1432.65,214.336 1433.68,217.696 1434.71,223.828 1435.74,227.571 1436.77,166.979 1437.8,171.429 1438.83,182.734 1439.86,185.339 1440.89,168.209 1441.92,171.597 1442.95,217.294 1443.97,219.87 1445,190.696 1446.03,194.635 1447.06,175.067 1448.09,178.912 1449.12,174.898 1450.15,178.391 1451.18,229.01 1452.21,234.387 1453.24,187.119 1454.27,191.047 1455.3,187.511 1456.32,192.196 1457.35,144.566 1458.38,148.624 1459.41,159.076 1460.44,163.027 1461.47,158.356 1462.5,161.969 1463.53,189.902 1464.56,192.885 1465.59,146.362 1466.62,152.926 1467.65,200.037 1468.68,205.174 1469.7,162.032 1470.73,165.48 1471.76,145.945 1472.79,150.426 1473.82,192.075 1474.85,195.427 1475.88,173.488 1476.91,177.799 1477.94,180.098 1478.97,183.46 1480,182.687 1481.03,190.426 1482.05,249.826 1483.08,253.703 1484.11,190.342 1485.14,195.968 1486.17,250.71 1487.2,255.498 1488.23,210.871 1489.26,215.117 1490.29,218.317 1491.32,221.829 1492.35,245.302 1493.38,250.284 1494.41,232.007 1495.43,236.964 1496.46,185.112 1497.49,192.437 1498.52,233.427 1499.55,238.753 1500.58,228.483 1501.61,233.567 1502.64,186.481 1503.67,192.226 1504.7,299.972 1505.73,302.481 1506.76,202.002 1507.78,206.316 1508.81,175.223 1509.84,178.64 1510.87,202.935 1511.9,207.625 1512.93,210.951 1513.96,215.205 1514.99,154.573 1516.02,160.598 1517.05,228.108 1518.08,231.737 1519.11,194.969 1520.14,199.188 1521.16,216.421 1522.19,222.641 1523.22,224.728 1524.25,230.591 1525.28,215.605 1526.31,219.096 1527.34,238.921 1528.37,242.394 1529.4,230.967 1530.43,234.947 1531.46,211.562 1532.49,213.806 1533.51,184.736 1534.54,190.614 1535.57,248.085 1536.6,252.642 1537.63,229.343 1538.66,232.128 1539.69,290.926 1540.72,294.759 1541.75,329.732 1542.78,334.696 1543.81,231.367 1544.84,238.73 1545.87,159.068 1546.89,164.315 1547.92,230.058 1548.95,231.842 1549.98,259.142 1551.01,261.777 1552.04,233.627 1553.07,236.307 1554.1,209.822 1555.13,213.075 1556.16,164.259 1557.19,169.838 1558.22,229.819 1559.24,233.562 1560.27,232.037 1561.3,236.038 1562.33,224.431 1563.36,228.136 1564.39,221.786 1565.42,224.734 1566.45,233.433 1567.48,235.735 1568.51,184.226 1569.54,188.689 1570.57,218.879 1571.6,224.909 1572.62,176.193 1573.65,182.972 1574.68,302.567 1575.71,306.679 1576.74,250.065 1577.77,253.21 1578.8,241.359 1579.83,243.924 1580.86,230.322 1581.89,234.608 1582.92,234.523 1583.95,240.963 1584.97,246.43 1586,249.906 1587.03,275.795 1588.06,279.448 1589.09,256.323 1590.12,260.878 1591.15,214.545 1592.18,217.435 1593.21,195.056 1594.24,200.745 1595.27,200.751 1596.3,204.344 1597.33,136.421 1598.35,143.865 1599.38,228.84 1600.41,232.612 1601.44,191.834 1602.47,196.781 1603.5,196.741 1604.53,202.446 1605.56,209.26 1606.59,214.073 1607.62,169.22 1608.65,174.204 1609.68,177.053 1610.7,180.432 1611.73,220.971 1612.76,225.718 1613.79,188.023 1614.82,193.485 1615.85,202.263 1616.88,206.744 1617.91,142.466 1618.94,148.151 1619.97,220.759 1621,223.818 1622.03,213.219 1623.05,216.313 1624.08,232.421 1625.11,236.183 1626.14,219.98 1627.17,222.272 1628.2,223.167 1629.23,225.69 1630.26,248.665 1631.29,252.681 1632.32,189.384 1633.35,195.416 1634.38,218.215 1635.41,222.735 1636.43,204.191 1637.46,208.267 1638.49,193.439 1639.52,197.556 1640.55,185.676 1641.58,191.536 1642.61,184.806 1643.64,189.273 1644.67,259.913 1645.7,265.391 1646.73,167.933 1647.76,172.45 1648.78,193.165 1649.81,196.639 1650.84,190.873 1651.87,195.879 1652.9,148.509 1653.93,152.764 1654.96,226.14 1655.99,230.628 1657.02,207.502 1658.05,210.298 1659.08,174.413 1660.11,177.607 1661.14,188.571 1662.16,192.543 1663.19,172.386 1664.22,176.657 1665.25,162.542 1666.28,165.408 1667.31,174.122 1668.34,177.56 1669.37,152.096 1670.4,157.316 1671.43,152.972 1672.46,156.184 1673.49,168.346 1674.51,170.852 1675.54,188.027 1676.57,191.816 1677.6,188.477 1678.63,192.8 1679.66,219.612 1680.69,223.595 1681.72,208.257 1682.75,211.493 1683.78,195.249 1684.81,201.303 1685.84,148.63 1686.87,153.056 1687.89,213.655 1688.92,218.013 1689.95,178.078 1690.98,182.533 1692.01,192.847 1693.04,195.36 1694.07,160.106 1695.1,167.25 1696.13,148.973 1697.16,152.652 1698.19,174.141 1699.22,177.293 1700.24,176.433 1701.27,179.137 1702.3,161.623 1703.33,164.083 1704.36,159.662 1705.39,164.491 1706.42,224.66 1707.45,226.962 1708.48,128.162 1709.51,132.94 1710.54,157.134 1711.57,162.874 1712.6,154.946 1713.62,160.792 1714.65,140.989 1715.68,143.206 1716.71,200.398 1717.74,204.958 1718.77,181.076 1719.8,185.131 1720.83,136.261 1721.86,139.716 1722.89,165.929 1723.92,168.84 1724.95,170.254 1725.97,175.387 1727,143.241 1728.03,145.681 1729.06,155.864 1730.09,160.391 1731.12,146.501 1732.15,149.725 1733.18,167.972 1734.21,171.035 1735.24,142.597 1736.27,146.208 1737.3,157.269 1738.33,160.028 1739.35,165.19 1740.38,169.722 1741.41,134.099 1742.44,140.755 1743.47,167.01 1744.5,170.42 1745.53,188.565 1746.56,192.797 1747.59,145.638 1748.62,151.203 1749.65,169.919 1750.68,173.381 1751.7,220.022 1752.73,224.672 1753.76,91.9646 1754.79,99.1376 1755.82,139.573 1756.85,142.63 1757.88,97.9909 1758.91,103.52 1759.94,132.409 1760.97,136.364 1762,152.504 1763.03,155.354 1764.05,140.527 1765.08,143.663 1766.11,111.918 1767.14,118.754 1768.17,138.661 1769.2,142.171 1770.23,139.815 1771.26,143.331 1772.29,146.031 1773.32,149.479 1774.35,150.037 1775.38,152.895 1776.41,143.382 1777.43,147.088 1778.46,142.024 1779.49,147.273 1780.52,141.014 1781.55,144.855 1782.58,138.335 1783.61,141.41 1784.64,146.748 1785.67,150.583 1786.7,155.846 1787.73,158.784 1788.76,138.26 1789.78,142.09 1790.81,187.466 1791.84,190.361 1792.87,186.175 1793.9,190.044 1794.93,184.227 1795.96,188.109 1796.99,159.361 1798.02,162.254 1799.05,167.892 1800.08,171.563 1801.11,153.989 1802.14,158.969 1803.16,143.232 1804.19,148.903 1805.22,154.005 1806.25,158.586 1807.28,123.099 1808.31,127.305 1809.34,132.819 1810.37,137.749 1811.4,221.356 1812.43,226.084 1813.46,138.777 1814.49,143.723 1815.51,191.833 1816.54,196.257 1817.57,212.364 1818.6,216.14 1819.63,189.497 1820.66,192.342 1821.69,162.489 1822.72,168.236 1823.75,146.106 1824.78,149.811 1825.81,141.083 1826.84,143.877 1827.87,170.34 1828.89,174.86 1829.92,279.335 1830.95,282.214 1831.98,181.526 1833.01,185.327 1834.04,177.42 1835.07,180.585 1836.1,130.84 1837.13,135.223 1838.16,171.012 1839.19,175.958 1840.22,186.099 1841.24,190.132 1842.27,200.125 1843.3,203.164 1844.33,154.704 1845.36,158.679 1846.39,122.42 1847.42,125.915 1848.45,152.696 1849.48,157.027 1850.51,129.415 1851.54,132.835 1852.57,131.864 1853.6,136.049 1854.62,135.051 1855.65,139.121 1856.68,138.276 1857.71,140.642 1858.74,168.072 1859.77,171.908 1860.8,130.452 1861.83,134.933 1862.86,208.27 1863.89,210.49 1864.92,133.199 1865.95,137.1 1866.97,172.278 1868,175.468 1869.03,98.2038 1870.06,102.924 1871.09,152.533 1872.12,156.768 1873.15,147.888 1874.18,152.052 1875.21,168.951 1876.24,172.358 1877.27,103.573 1878.3,108.149 1879.33,185.624 1880.35,189.836 1881.38,176.13 1882.41,180.405 1883.44,159.39 1884.47,163.515 1885.5,132.514 1886.53,137.478 1887.56,139.713 1888.59,144.536 1889.62,167.622 1890.65,171.477 1891.68,162.492 1892.7,167.096 1893.73,134.951 1894.76,139.147 1895.79,178.665 1896.82,181.526 1897.85,193.806 1898.88,196.864 1899.91,131.632 1900.94,137.189 1901.97,149.929 1903,153.648 1904.03,111.864 1905.06,119.817 1906.08,128.614 1907.11,133.381 1908.14,115.702 1909.17,119.707 1910.2,123.793 1911.23,132.235 1912.26,165.815 1913.29,167.906 1914.32,127.126 1915.35,134.674 1916.38,146.335 1917.41,152.002 1918.43,178.659 1919.46,185.454 1920.49,169.632 1921.52,174.63 1922.55,116.915 1923.58,123.09 1924.61,159.923 1925.64,165.002 1926.67,130.607 1927.7,134.566 1928.73,129.49 1929.76,133.782 1930.78,115.188 1931.81,123.221 1932.84,126.193 1933.87,129.094 1934.9,186.991 1935.93,191.389 1936.96,171.196 1937.99,174.974 1939.02,129.446 1940.05,132.643 1941.08,119.667 1942.11,122.585 1943.14,99.9761 1944.16,109.398 1945.19,130.313 1946.22,134.483 1947.25,164.815 1948.28,168.514 1949.31,109.234 1950.34,114.726 1951.37,111.386 1952.4,114.699 1953.43,139.297 1954.46,143.254 1955.49,132.46 1956.51,135.549 1957.54,165.323 1958.57,169.039 1959.6,107.421 1960.63,114.667 1961.66,151.311 1962.69,155.392 1963.72,140.199 1964.75,143.874 1965.78,150.755 1966.81,155.661 1967.84,161.962 1968.87,165.187 1969.89,147.643 1970.92,151.411 1971.95,220.761 1972.98,225.441 1974.01,185.834 1975.04,189.593 1976.07,183.056 1977.1,186.16 1978.13,158.612 1979.16,162.995 1980.19,176.025 1981.22,180.713 1982.24,170.591 1983.27,174.695 1984.3,209.333 1985.33,212.812 1986.36,143.421 1987.39,150.619 1988.42,179.511 1989.45,183.618 1990.48,157.647 1991.51,160.833 1992.54,148.813 1993.57,154.351 1994.6,129.034 1995.62,133.178 1996.65,135.831 1997.68,139.873 1998.71,126.668 1999.74,130.316 2000.77,137.469 2001.8,141.272 2002.83,136.321 2003.86,142.596 2004.89,160.167 2005.92,165.58 2006.95,158.273 2007.97,163.354 2009,160.081 2010.03,163.752 2011.06,172.128 2012.09,175.935 2013.12,142.801 2014.15,147.844 2015.18,154.455 2016.21,159.018 2017.24,146.325 2018.27,151.015 2019.3,197.803 2020.33,201.993 2021.35,151.637 2022.38,155.722 2023.41,183.183 2024.44,187.043 2025.47,118.009 2026.5,121.817 2027.53,172.265 2028.56,175.295 2029.59,190.902 2030.62,195.55 2031.65,141.452 2032.68,146.556 2033.7,165.201 2034.73,168.347 2035.76,195.593 2036.79,199.317 2037.82,172.751 2038.85,175.321 2039.88,107.25 2040.91,115.38 2041.94,170.745 2042.97,173.228 2044,212.628 2045.03,218.184 2046.06,161.224 2047.08,163.607 2048.11,181.932 2049.14,187.041 2050.17,121.452 2051.2,125.245 2052.23,190.997 2053.26,193.799 2054.29,148.324 2055.32,153.071 2056.35,178.624 2057.38,184.659 2058.41,116.098 2059.43,121.283 2060.46,200.022 2061.49,204.756 2062.52,179.893 2063.55,182.914 2064.58,161.348 2065.61,165.582 2066.64,140.594 2067.67,144.371 2068.7,135.31 2069.73,139.118 2070.76,120.15 2071.79,125.742 2072.81,139.118 2073.84,143.853 2074.87,158.477 2075.9,164.237 2076.93,148.357 2077.96,153.149 2078.99,149.125 2080.02,153.578 2081.05,133.254 2082.08,136.425 2083.11,162.853 2084.14,167.586 2085.16,165.326 2086.19,173.973 2087.22,137.053 2088.25,141.49 2089.28,147.441 2090.31,153.158 2091.34,163.625 2092.37,167.708 2093.4,163.797 2094.43,167.174 2095.46,209.875 2096.49,213.437 2097.51,125.228 2098.54,129.716 2099.57,166.873 2100.6,170.11 2101.63,164.891 2102.66,169.296 2103.69,172.04 2104.72,175.642 2105.75,141.078 2106.78,145.266 2107.81,152.153 2108.84,155.195 2109.87,129.953 2110.89,134.217 2111.92,175.27 2112.95,180.068 2113.98,176.541 2115.01,178.701 2116.04,172.58 2117.07,175.489 2118.1,165.652 2119.13,168.756 2120.16,257.668 2121.19,261.636 2122.22,142.053 2123.24,145.252 2124.27,145.816 2125.3,148.987 2126.33,168.682 2127.36,173.714 2128.39,189.561 2129.42,193.28 2130.45,210.305 2131.48,213.572 2132.51,169.246 2133.54,173.225 2134.57,177.663 2135.6,180.552 2136.62,125.164 2137.65,129.218 2138.68,153.279 2139.71,158.401 2140.74,181.559 2141.77,184.657 2142.8,159.114 2143.83,163.572 2144.86,165.363 2145.89,170.921 2146.92,180.645 2147.95,185.267 2148.97,154.784 2150,159.632 2151.03,183.854 2152.06,187.284 2153.09,156.566 2154.12,159.268 2155.15,167.271 2156.18,171.462 2157.21,179.269 2158.24,182.645 2159.27,204.521 2160.3,207.665 2161.33,169.368 2162.35,173.347 2163.38,224.679 2164.41,227.226 2165.44,161.787 2166.47,165.035 2167.5,152.075 2168.53,155.355 2169.56,186.798 2170.59,189.939 2171.62,138.398 2172.65,144.2 2173.68,128.589 2174.7,132.58 2175.73,151.171 2176.76,154.793 2177.79,145.909 2178.82,150.31 2179.85,175.102 2180.88,178.479 2181.91,178.759 2182.94,182.088 2183.97,208.328 2185,211.073 2186.03,173.447 2187.06,178.241 2188.08,172.836 2189.11,177.778 2190.14,189.652 2191.17,192.538 2192.2,206.257 2193.23,210.934 2194.26,176.071 2195.29,180.033 2196.32,156.358 2197.35,161.468 2198.38,212.678 2199.41,215.282 2200.43,159.788 2201.46,164.259 2202.49,171.02 2203.52,175.838 2204.55,193.82 2205.58,198.319 2206.61,170.776 2207.64,174.55 2208.67,177.644 2209.7,182.158 2210.73,190.876 2211.76,194.192 2212.79,164.115 2213.81,169.9 2214.84,177.142 2215.87,180.438 2216.9,142.115 2217.93,145.229 2218.96,156.512 2219.99,161.898 2221.02,143.012 2222.05,146.73 2223.08,135.37 2224.11,138.289 2225.14,119.006 2226.16,126.594 2227.19,203.603 2228.22,209.316 2229.25,137.479 2230.28,141.817 2231.31,154.377 2232.34,158.649 2233.37,180.47 2234.4,183.547 2235.43,136.641 2236.46,138.764 2237.49,148.16 2238.51,152.646 2239.54,177.052 2240.57,180.567 2241.6,165.281 2242.63,168.68 2243.66,148.556 2244.69,152.052 2245.72,181.846 2246.75,186.21 2247.78,170.273 2248.81,174.077 2249.84,141.962 2250.87,148.613 2251.89,149.668 2252.92,154.315 2253.95,168.383 2254.98,173.347 2256.01,151.156 2257.04,156.79 2258.07,142.499 2259.1,149.564 2260.13,115.477 2261.16,118.862 2262.19,127.677 2263.22,134.634 2264.24,111.079 2265.27,115.168 2266.3,124.323 2267.33,129.657 2268.36,142.008 2269.39,144.843 2270.42,154.963 2271.45,158.514 2272.48,136.664 2273.51,140.455 2274.54,134.468 2275.57,138.31 2276.6,99.2825 2277.62,106.534 2278.65,94.5941 2279.68,99.2293 2280.71,112.359 2281.74,118.043 2282.77,139.313 2283.8,142.082 2284.83,150.187 2285.86,157.428 2286.89,144.583 2287.92,148.581 2288.95,143.903 2289.97,146.356 2291,148.42 "/>
<path clip-path="url(#clip840)" d="M243.587 198.898 L514.207 198.898 L514.207 95.2176 L243.587 95.2176  Z" fill="#ffffff" fill-rule="evenodd" fill-opacity="1"/>
<polyline clip-path="url(#clip840)" style="stroke:#000000; stroke-linecap:round; stroke-linejoin:round; stroke-width:4; stroke-opacity:1; fill:none" points="243.587,198.898 514.207,198.898 514.207,95.2176 243.587,95.2176 243.587,198.898 "/>
<polyline clip-path="url(#clip840)" style="stroke:#009af9; stroke-linecap:round; stroke-linejoin:round; stroke-width:4; stroke-opacity:1; fill:none" points="267.831,147.058 413.291,147.058 "/>
<path clip-path="url(#clip840)" d="M451.376 166.745 Q449.571 171.375 447.858 172.787 Q446.145 174.199 443.275 174.199 L439.872 174.199 L439.872 170.634 L442.372 170.634 Q444.131 170.634 445.103 169.8 Q446.076 168.967 447.256 165.865 L448.02 163.921 L437.534 138.412 L442.048 138.412 L450.15 158.689 L458.251 138.412 L462.765 138.412 L451.376 166.745 Z" fill="#000000" fill-rule="nonzero" fill-opacity="1" /><path clip-path="url(#clip840)" d="M470.057 160.402 L477.696 160.402 L477.696 134.037 L469.386 135.703 L469.386 131.444 L477.649 129.778 L482.325 129.778 L482.325 160.402 L489.964 160.402 L489.964 164.338 L470.057 164.338 L470.057 160.402 Z" fill="#000000" fill-rule="nonzero" fill-opacity="1" /></svg>
