<?xml version="1.0" encoding="utf-8"?>
<svg xmlns="http://www.w3.org/2000/svg" xmlns:xlink="http://www.w3.org/1999/xlink" width="600" height="400" viewBox="0 0 2400 1600">
<defs>
  <clipPath id="clip170">
    <rect x="0" y="0" width="2400" height="1600"/>
  </clipPath>
</defs>
<path clip-path="url(#clip170)" d="M0 1600 L2400 1600 L2400 0 L0 0  Z" fill="#ffffff" fill-rule="evenodd" fill-opacity="1"/>
<defs>
  <clipPath id="clip171">
    <rect x="480" y="0" width="1681" height="1600"/>
  </clipPath>
</defs>
<path clip-path="url(#clip170)" d="M239.19 1486.45 L2352.76 1486.45 L2352.76 47.2441 L239.19 47.2441  Z" fill="#ffffff" fill-rule="evenodd" fill-opacity="1"/>
<defs>
  <clipPath id="clip172">
    <rect x="239" y="47" width="2115" height="1440"/>
  </clipPath>
</defs>
<polyline clip-path="url(#clip172)" style="stroke:#000000; stroke-linecap:round; stroke-linejoin:round; stroke-width:2; stroke-opacity:0.1; fill:none" points="299.008,1486.45 299.008,47.2441 "/>
<polyline clip-path="url(#clip172)" style="stroke:#000000; stroke-linecap:round; stroke-linejoin:round; stroke-width:2; stroke-opacity:0.1; fill:none" points="797.74,1486.45 797.74,47.2441 "/>
<polyline clip-path="url(#clip172)" style="stroke:#000000; stroke-linecap:round; stroke-linejoin:round; stroke-width:2; stroke-opacity:0.1; fill:none" points="1296.47,1486.45 1296.47,47.2441 "/>
<polyline clip-path="url(#clip172)" style="stroke:#000000; stroke-linecap:round; stroke-linejoin:round; stroke-width:2; stroke-opacity:0.1; fill:none" points="1795.2,1486.45 1795.2,47.2441 "/>
<polyline clip-path="url(#clip172)" style="stroke:#000000; stroke-linecap:round; stroke-linejoin:round; stroke-width:2; stroke-opacity:0.1; fill:none" points="2293.94,1486.45 2293.94,47.2441 "/>
<polyline clip-path="url(#clip170)" style="stroke:#000000; stroke-linecap:round; stroke-linejoin:round; stroke-width:4; stroke-opacity:1; fill:none" points="239.19,1486.45 2352.76,1486.45 "/>
<polyline clip-path="url(#clip170)" style="stroke:#000000; stroke-linecap:round; stroke-linejoin:round; stroke-width:4; stroke-opacity:1; fill:none" points="299.008,1486.45 299.008,1467.55 "/>
<polyline clip-path="url(#clip170)" style="stroke:#000000; stroke-linecap:round; stroke-linejoin:round; stroke-width:4; stroke-opacity:1; fill:none" points="797.74,1486.45 797.74,1467.55 "/>
<polyline clip-path="url(#clip170)" style="stroke:#000000; stroke-linecap:round; stroke-linejoin:round; stroke-width:4; stroke-opacity:1; fill:none" points="1296.47,1486.45 1296.47,1467.55 "/>
<polyline clip-path="url(#clip170)" style="stroke:#000000; stroke-linecap:round; stroke-linejoin:round; stroke-width:4; stroke-opacity:1; fill:none" points="1795.2,1486.45 1795.2,1467.55 "/>
<polyline clip-path="url(#clip170)" style="stroke:#000000; stroke-linecap:round; stroke-linejoin:round; stroke-width:4; stroke-opacity:1; fill:none" points="2293.94,1486.45 2293.94,1467.55 "/>
<path clip-path="url(#clip170)" d="M299.008 1517.37 Q295.397 1517.37 293.568 1520.93 Q291.763 1524.47 291.763 1531.6 Q291.763 1538.71 293.568 1542.27 Q295.397 1545.82 299.008 1545.82 Q302.643 1545.82 304.448 1542.27 Q306.277 1538.71 306.277 1531.6 Q306.277 1524.47 304.448 1520.93 Q302.643 1517.37 299.008 1517.37 M299.008 1513.66 Q304.818 1513.66 307.874 1518.27 Q310.953 1522.85 310.953 1531.6 Q310.953 1540.33 307.874 1544.94 Q304.818 1549.52 299.008 1549.52 Q293.198 1549.52 290.119 1544.94 Q287.064 1540.33 287.064 1531.6 Q287.064 1522.85 290.119 1518.27 Q293.198 1513.66 299.008 1513.66 Z" fill="#000000" fill-rule="nonzero" fill-opacity="1" /><path clip-path="url(#clip170)" d="M757.358 1514.29 L775.715 1514.29 L775.715 1518.22 L761.641 1518.22 L761.641 1526.7 Q762.659 1526.35 763.678 1526.19 Q764.696 1526 765.715 1526 Q771.502 1526 774.881 1529.17 Q778.261 1532.34 778.261 1537.76 Q778.261 1543.34 774.789 1546.44 Q771.317 1549.52 764.997 1549.52 Q762.821 1549.52 760.553 1549.15 Q758.307 1548.78 755.9 1548.04 L755.9 1543.34 Q757.983 1544.47 760.206 1545.03 Q762.428 1545.58 764.905 1545.58 Q768.909 1545.58 771.247 1543.48 Q773.585 1541.37 773.585 1537.76 Q773.585 1534.15 771.247 1532.04 Q768.909 1529.94 764.905 1529.94 Q763.03 1529.94 761.155 1530.35 Q759.303 1530.77 757.358 1531.65 L757.358 1514.29 Z" fill="#000000" fill-rule="nonzero" fill-opacity="1" /><path clip-path="url(#clip170)" d="M797.474 1517.37 Q793.863 1517.37 792.034 1520.93 Q790.229 1524.47 790.229 1531.6 Q790.229 1538.71 792.034 1542.27 Q793.863 1545.82 797.474 1545.82 Q801.108 1545.82 802.914 1542.27 Q804.742 1538.71 804.742 1531.6 Q804.742 1524.47 802.914 1520.93 Q801.108 1517.37 797.474 1517.37 M797.474 1513.66 Q803.284 1513.66 806.34 1518.27 Q809.418 1522.85 809.418 1531.6 Q809.418 1540.33 806.34 1544.94 Q803.284 1549.52 797.474 1549.52 Q791.664 1549.52 788.585 1544.94 Q785.529 1540.33 785.529 1531.6 Q785.529 1522.85 788.585 1518.27 Q791.664 1513.66 797.474 1513.66 Z" fill="#000000" fill-rule="nonzero" fill-opacity="1" /><path clip-path="url(#clip170)" d="M827.636 1517.37 Q824.025 1517.37 822.196 1520.93 Q820.39 1524.47 820.39 1531.6 Q820.39 1538.71 822.196 1542.27 Q824.025 1545.82 827.636 1545.82 Q831.27 1545.82 833.076 1542.27 Q834.904 1538.71 834.904 1531.6 Q834.904 1524.47 833.076 1520.93 Q831.27 1517.37 827.636 1517.37 M827.636 1513.66 Q833.446 1513.66 836.501 1518.27 Q839.58 1522.85 839.58 1531.6 Q839.58 1540.33 836.501 1544.94 Q833.446 1549.52 827.636 1549.52 Q821.826 1549.52 818.747 1544.94 Q815.691 1540.33 815.691 1531.6 Q815.691 1522.85 818.747 1518.27 Q821.826 1513.66 827.636 1513.66 Z" fill="#000000" fill-rule="nonzero" fill-opacity="1" /><path clip-path="url(#clip170)" d="M1241 1544.91 L1248.64 1544.91 L1248.64 1518.55 L1240.33 1520.21 L1240.33 1515.95 L1248.59 1514.29 L1253.27 1514.29 L1253.27 1544.91 L1260.9 1544.91 L1260.9 1548.85 L1241 1548.85 L1241 1544.91 Z" fill="#000000" fill-rule="nonzero" fill-opacity="1" /><path clip-path="url(#clip170)" d="M1280.35 1517.37 Q1276.74 1517.37 1274.91 1520.93 Q1273.1 1524.47 1273.1 1531.6 Q1273.1 1538.71 1274.91 1542.27 Q1276.74 1545.82 1280.35 1545.82 Q1283.98 1545.82 1285.79 1542.27 Q1287.62 1538.71 1287.62 1531.6 Q1287.62 1524.47 1285.79 1520.93 Q1283.98 1517.37 1280.35 1517.37 M1280.35 1513.66 Q1286.16 1513.66 1289.21 1518.27 Q1292.29 1522.85 1292.29 1531.6 Q1292.29 1540.33 1289.21 1544.94 Q1286.16 1549.52 1280.35 1549.52 Q1274.54 1549.52 1271.46 1544.94 Q1268.4 1540.33 1268.4 1531.6 Q1268.4 1522.85 1271.46 1518.27 Q1274.54 1513.66 1280.35 1513.66 Z" fill="#000000" fill-rule="nonzero" fill-opacity="1" /><path clip-path="url(#clip170)" d="M1310.51 1517.37 Q1306.9 1517.37 1305.07 1520.93 Q1303.27 1524.47 1303.27 1531.6 Q1303.27 1538.71 1305.07 1542.27 Q1306.9 1545.82 1310.51 1545.82 Q1314.15 1545.82 1315.95 1542.27 Q1317.78 1538.71 1317.78 1531.6 Q1317.78 1524.47 1315.95 1520.93 Q1314.15 1517.37 1310.51 1517.37 M1310.51 1513.66 Q1316.32 1513.66 1319.38 1518.27 Q1322.46 1522.85 1322.46 1531.6 Q1322.46 1540.33 1319.38 1544.94 Q1316.32 1549.52 1310.51 1549.52 Q1304.7 1549.52 1301.62 1544.94 Q1298.57 1540.33 1298.57 1531.6 Q1298.57 1522.85 1301.62 1518.27 Q1304.7 1513.66 1310.51 1513.66 Z" fill="#000000" fill-rule="nonzero" fill-opacity="1" /><path clip-path="url(#clip170)" d="M1340.67 1517.37 Q1337.06 1517.37 1335.23 1520.93 Q1333.43 1524.47 1333.43 1531.6 Q1333.43 1538.71 1335.23 1542.27 Q1337.06 1545.82 1340.67 1545.82 Q1344.31 1545.82 1346.11 1542.27 Q1347.94 1538.71 1347.94 1531.6 Q1347.94 1524.47 1346.11 1520.93 Q1344.31 1517.37 1340.67 1517.37 M1340.67 1513.66 Q1346.48 1513.66 1349.54 1518.27 Q1352.62 1522.85 1352.62 1531.6 Q1352.62 1540.33 1349.54 1544.94 Q1346.48 1549.52 1340.67 1549.52 Q1334.86 1549.52 1331.78 1544.94 Q1328.73 1540.33 1328.73 1531.6 Q1328.73 1522.85 1331.78 1518.27 Q1334.86 1513.66 1340.67 1513.66 Z" fill="#000000" fill-rule="nonzero" fill-opacity="1" /><path clip-path="url(#clip170)" d="M1739.73 1544.91 L1747.37 1544.91 L1747.37 1518.55 L1739.06 1520.21 L1739.06 1515.95 L1747.32 1514.29 L1752 1514.29 L1752 1544.91 L1759.64 1544.91 L1759.64 1548.85 L1739.73 1548.85 L1739.73 1544.91 Z" fill="#000000" fill-rule="nonzero" fill-opacity="1" /><path clip-path="url(#clip170)" d="M1769.13 1514.29 L1787.48 1514.29 L1787.48 1518.22 L1773.41 1518.22 L1773.41 1526.7 Q1774.43 1526.35 1775.45 1526.19 Q1776.47 1526 1777.48 1526 Q1783.27 1526 1786.65 1529.17 Q1790.03 1532.34 1790.03 1537.76 Q1790.03 1543.34 1786.56 1546.44 Q1783.09 1549.52 1776.77 1549.52 Q1774.59 1549.52 1772.32 1549.15 Q1770.08 1548.78 1767.67 1548.04 L1767.67 1543.34 Q1769.75 1544.47 1771.97 1545.03 Q1774.2 1545.58 1776.67 1545.58 Q1780.68 1545.58 1783.02 1543.48 Q1785.35 1541.37 1785.35 1537.76 Q1785.35 1534.15 1783.02 1532.04 Q1780.68 1529.94 1776.67 1529.94 Q1774.8 1529.94 1772.92 1530.35 Q1771.07 1530.77 1769.13 1531.65 L1769.13 1514.29 Z" fill="#000000" fill-rule="nonzero" fill-opacity="1" /><path clip-path="url(#clip170)" d="M1809.24 1517.37 Q1805.63 1517.37 1803.8 1520.93 Q1802 1524.47 1802 1531.6 Q1802 1538.71 1803.8 1542.27 Q1805.63 1545.82 1809.24 1545.82 Q1812.88 1545.82 1814.68 1542.27 Q1816.51 1538.71 1816.51 1531.6 Q1816.51 1524.47 1814.68 1520.93 Q1812.88 1517.37 1809.24 1517.37 M1809.24 1513.66 Q1815.05 1513.66 1818.11 1518.27 Q1821.19 1522.85 1821.19 1531.6 Q1821.19 1540.33 1818.11 1544.94 Q1815.05 1549.52 1809.24 1549.52 Q1803.43 1549.52 1800.35 1544.94 Q1797.3 1540.33 1797.3 1531.6 Q1797.3 1522.85 1800.35 1518.27 Q1803.43 1513.66 1809.24 1513.66 Z" fill="#000000" fill-rule="nonzero" fill-opacity="1" /><path clip-path="url(#clip170)" d="M1839.4 1517.37 Q1835.79 1517.37 1833.97 1520.93 Q1832.16 1524.47 1832.16 1531.6 Q1832.16 1538.71 1833.97 1542.27 Q1835.79 1545.82 1839.4 1545.82 Q1843.04 1545.82 1844.84 1542.27 Q1846.67 1538.71 1846.67 1531.6 Q1846.67 1524.47 1844.84 1520.93 Q1843.04 1517.37 1839.4 1517.37 M1839.4 1513.66 Q1845.21 1513.66 1848.27 1518.27 Q1851.35 1522.85 1851.35 1531.6 Q1851.35 1540.33 1848.27 1544.94 Q1845.21 1549.52 1839.4 1549.52 Q1833.59 1549.52 1830.52 1544.94 Q1827.46 1540.33 1827.46 1531.6 Q1827.46 1522.85 1830.52 1518.27 Q1833.59 1513.66 1839.4 1513.66 Z" fill="#000000" fill-rule="nonzero" fill-opacity="1" /><path clip-path="url(#clip170)" d="M2242.55 1544.91 L2258.87 1544.91 L2258.87 1548.85 L2236.92 1548.85 L2236.92 1544.91 Q2239.58 1542.16 2244.17 1537.53 Q2248.77 1532.88 2249.95 1531.53 Q2252.2 1529.01 2253.08 1527.27 Q2253.98 1525.51 2253.98 1523.82 Q2253.98 1521.07 2252.04 1519.33 Q2250.12 1517.6 2247.01 1517.6 Q2244.82 1517.6 2242.36 1518.36 Q2239.93 1519.13 2237.15 1520.68 L2237.15 1515.95 Q2239.98 1514.82 2242.43 1514.24 Q2244.88 1513.66 2246.92 1513.66 Q2252.29 1513.66 2255.49 1516.35 Q2258.68 1519.03 2258.68 1523.52 Q2258.68 1525.65 2257.87 1527.57 Q2257.08 1529.47 2254.98 1532.07 Q2254.4 1532.74 2251.3 1535.95 Q2248.19 1539.15 2242.55 1544.91 Z" fill="#000000" fill-rule="nonzero" fill-opacity="1" /><path clip-path="url(#clip170)" d="M2278.68 1517.37 Q2275.07 1517.37 2273.24 1520.93 Q2271.44 1524.47 2271.44 1531.6 Q2271.44 1538.71 2273.24 1542.27 Q2275.07 1545.82 2278.68 1545.82 Q2282.32 1545.82 2284.12 1542.27 Q2285.95 1538.71 2285.95 1531.6 Q2285.95 1524.47 2284.12 1520.93 Q2282.32 1517.37 2278.68 1517.37 M2278.68 1513.66 Q2284.49 1513.66 2287.55 1518.27 Q2290.63 1522.85 2290.63 1531.6 Q2290.63 1540.33 2287.55 1544.94 Q2284.49 1549.52 2278.68 1549.52 Q2272.87 1549.52 2269.79 1544.94 Q2266.74 1540.33 2266.74 1531.6 Q2266.74 1522.85 2269.79 1518.27 Q2272.87 1513.66 2278.68 1513.66 Z" fill="#000000" fill-rule="nonzero" fill-opacity="1" /><path clip-path="url(#clip170)" d="M2308.84 1517.37 Q2305.23 1517.37 2303.4 1520.93 Q2301.6 1524.47 2301.6 1531.6 Q2301.6 1538.71 2303.4 1542.27 Q2305.23 1545.82 2308.84 1545.82 Q2312.48 1545.82 2314.28 1542.27 Q2316.11 1538.71 2316.11 1531.6 Q2316.11 1524.47 2314.28 1520.93 Q2312.48 1517.37 2308.84 1517.37 M2308.84 1513.66 Q2314.65 1513.66 2317.71 1518.27 Q2320.79 1522.85 2320.79 1531.6 Q2320.79 1540.33 2317.71 1544.94 Q2314.65 1549.52 2308.84 1549.52 Q2303.03 1549.52 2299.95 1544.94 Q2296.9 1540.33 2296.9 1531.6 Q2296.9 1522.85 2299.95 1518.27 Q2303.03 1513.66 2308.84 1513.66 Z" fill="#000000" fill-rule="nonzero" fill-opacity="1" /><path clip-path="url(#clip170)" d="M2339 1517.37 Q2335.39 1517.37 2333.56 1520.93 Q2331.76 1524.47 2331.76 1531.6 Q2331.76 1538.71 2333.56 1542.27 Q2335.39 1545.82 2339 1545.82 Q2342.64 1545.82 2344.44 1542.27 Q2346.27 1538.71 2346.27 1531.6 Q2346.27 1524.47 2344.44 1520.93 Q2342.64 1517.37 2339 1517.37 M2339 1513.66 Q2344.81 1513.66 2347.87 1518.27 Q2350.95 1522.85 2350.95 1531.6 Q2350.95 1540.33 2347.87 1544.94 Q2344.81 1549.52 2339 1549.52 Q2333.19 1549.52 2330.12 1544.94 Q2327.06 1540.33 2327.06 1531.6 Q2327.06 1522.85 2330.12 1518.27 Q2333.19 1513.66 2339 1513.66 Z" fill="#000000" fill-rule="nonzero" fill-opacity="1" /><polyline clip-path="url(#clip172)" style="stroke:#000000; stroke-linecap:round; stroke-linejoin:round; stroke-width:2; stroke-opacity:0.1; fill:none" points="239.19,1240.42 2352.76,1240.42 "/>
<polyline clip-path="url(#clip172)" style="stroke:#000000; stroke-linecap:round; stroke-linejoin:round; stroke-width:2; stroke-opacity:0.1; fill:none" points="239.19,985.087 2352.76,985.087 "/>
<polyline clip-path="url(#clip172)" style="stroke:#000000; stroke-linecap:round; stroke-linejoin:round; stroke-width:2; stroke-opacity:0.1; fill:none" points="239.19,729.756 2352.76,729.756 "/>
<polyline clip-path="url(#clip172)" style="stroke:#000000; stroke-linecap:round; stroke-linejoin:round; stroke-width:2; stroke-opacity:0.1; fill:none" points="239.19,474.426 2352.76,474.426 "/>
<polyline clip-path="url(#clip172)" style="stroke:#000000; stroke-linecap:round; stroke-linejoin:round; stroke-width:2; stroke-opacity:0.1; fill:none" points="239.19,219.096 2352.76,219.096 "/>
<polyline clip-path="url(#clip170)" style="stroke:#000000; stroke-linecap:round; stroke-linejoin:round; stroke-width:4; stroke-opacity:1; fill:none" points="239.19,1486.45 239.19,47.2441 "/>
<polyline clip-path="url(#clip170)" style="stroke:#000000; stroke-linecap:round; stroke-linejoin:round; stroke-width:4; stroke-opacity:1; fill:none" points="239.19,1240.42 258.088,1240.42 "/>
<polyline clip-path="url(#clip170)" style="stroke:#000000; stroke-linecap:round; stroke-linejoin:round; stroke-width:4; stroke-opacity:1; fill:none" points="239.19,985.087 258.088,985.087 "/>
<polyline clip-path="url(#clip170)" style="stroke:#000000; stroke-linecap:round; stroke-linejoin:round; stroke-width:4; stroke-opacity:1; fill:none" points="239.19,729.756 258.088,729.756 "/>
<polyline clip-path="url(#clip170)" style="stroke:#000000; stroke-linecap:round; stroke-linejoin:round; stroke-width:4; stroke-opacity:1; fill:none" points="239.19,474.426 258.088,474.426 "/>
<polyline clip-path="url(#clip170)" style="stroke:#000000; stroke-linecap:round; stroke-linejoin:round; stroke-width:4; stroke-opacity:1; fill:none" points="239.19,219.096 258.088,219.096 "/>
<path clip-path="url(#clip170)" d="M50.9921 1240.87 L80.6679 1240.87 L80.6679 1244.8 L50.9921 1244.8 L50.9921 1240.87 Z" fill="#000000" fill-rule="nonzero" fill-opacity="1" /><path clip-path="url(#clip170)" d="M94.7882 1253.76 L111.108 1253.76 L111.108 1257.7 L89.1632 1257.7 L89.1632 1253.76 Q91.8252 1251.01 96.4085 1246.38 Q101.015 1241.72 102.196 1240.38 Q104.441 1237.86 105.321 1236.12 Q106.223 1234.36 106.223 1232.67 Q106.223 1229.92 104.279 1228.18 Q102.358 1226.45 99.2558 1226.45 Q97.0567 1226.45 94.603 1227.21 Q92.1725 1227.97 89.3947 1229.53 L89.3947 1224.8 Q92.2188 1223.67 94.6724 1223.09 Q97.1261 1222.51 99.1632 1222.51 Q104.534 1222.51 107.728 1225.2 Q110.922 1227.88 110.922 1232.37 Q110.922 1234.5 110.112 1236.42 Q109.325 1238.32 107.219 1240.91 Q106.64 1241.59 103.538 1244.8 Q100.436 1248 94.7882 1253.76 Z" fill="#000000" fill-rule="nonzero" fill-opacity="1" /><path clip-path="url(#clip170)" d="M120.969 1223.14 L139.325 1223.14 L139.325 1227.07 L125.251 1227.07 L125.251 1235.54 Q126.27 1235.2 127.288 1235.03 Q128.307 1234.85 129.325 1234.85 Q135.112 1234.85 138.492 1238.02 Q141.871 1241.19 141.871 1246.61 Q141.871 1252.19 138.399 1255.29 Q134.927 1258.37 128.607 1258.37 Q126.432 1258.37 124.163 1258 Q121.918 1257.63 119.51 1256.89 L119.51 1252.19 Q121.594 1253.32 123.816 1253.88 Q126.038 1254.43 128.515 1254.43 Q132.519 1254.43 134.857 1252.33 Q137.195 1250.22 137.195 1246.61 Q137.195 1243 134.857 1240.89 Q132.519 1238.78 128.515 1238.78 Q126.64 1238.78 124.765 1239.2 Q122.913 1239.62 120.969 1240.5 L120.969 1223.14 Z" fill="#000000" fill-rule="nonzero" fill-opacity="1" /><path clip-path="url(#clip170)" d="M161.084 1226.22 Q157.473 1226.22 155.644 1229.78 Q153.839 1233.32 153.839 1240.45 Q153.839 1247.56 155.644 1251.12 Q157.473 1254.66 161.084 1254.66 Q164.718 1254.66 166.524 1251.12 Q168.353 1247.56 168.353 1240.45 Q168.353 1233.32 166.524 1229.78 Q164.718 1226.22 161.084 1226.22 M161.084 1222.51 Q166.894 1222.51 169.95 1227.12 Q173.029 1231.7 173.029 1240.45 Q173.029 1249.18 169.95 1253.78 Q166.894 1258.37 161.084 1258.37 Q155.274 1258.37 152.195 1253.78 Q149.14 1249.18 149.14 1240.45 Q149.14 1231.7 152.195 1227.12 Q155.274 1222.51 161.084 1222.51 Z" fill="#000000" fill-rule="nonzero" fill-opacity="1" /><path clip-path="url(#clip170)" d="M191.246 1226.22 Q187.635 1226.22 185.806 1229.78 Q184.001 1233.32 184.001 1240.45 Q184.001 1247.56 185.806 1251.12 Q187.635 1254.66 191.246 1254.66 Q194.88 1254.66 196.686 1251.12 Q198.514 1247.56 198.514 1240.45 Q198.514 1233.32 196.686 1229.78 Q194.88 1226.22 191.246 1226.22 M191.246 1222.51 Q197.056 1222.51 200.112 1227.12 Q203.19 1231.7 203.19 1240.45 Q203.19 1249.18 200.112 1253.78 Q197.056 1258.37 191.246 1258.37 Q185.436 1258.37 182.357 1253.78 Q179.302 1249.18 179.302 1240.45 Q179.302 1231.7 182.357 1227.12 Q185.436 1222.51 191.246 1222.51 Z" fill="#000000" fill-rule="nonzero" fill-opacity="1" /><path clip-path="url(#clip170)" d="M50.9921 985.538 L80.6679 985.538 L80.6679 989.473 L50.9921 989.473 L50.9921 985.538 Z" fill="#000000" fill-rule="nonzero" fill-opacity="1" /><path clip-path="url(#clip170)" d="M94.7882 998.431 L111.108 998.431 L111.108 1002.37 L89.1632 1002.37 L89.1632 998.431 Q91.8252 995.677 96.4085 991.047 Q101.015 986.394 102.196 985.052 Q104.441 982.529 105.321 980.793 Q106.223 979.033 106.223 977.344 Q106.223 974.589 104.279 972.853 Q102.358 971.117 99.2558 971.117 Q97.0567 971.117 94.603 971.881 Q92.1725 972.644 89.3947 974.195 L89.3947 969.473 Q92.2188 968.339 94.6724 967.76 Q97.1261 967.182 99.1632 967.182 Q104.534 967.182 107.728 969.867 Q110.922 972.552 110.922 977.043 Q110.922 979.172 110.112 981.093 Q109.325 982.992 107.219 985.584 Q106.64 986.255 103.538 989.473 Q100.436 992.667 94.7882 998.431 Z" fill="#000000" fill-rule="nonzero" fill-opacity="1" /><path clip-path="url(#clip170)" d="M130.922 970.885 Q127.311 970.885 125.482 974.45 Q123.677 977.992 123.677 985.121 Q123.677 992.228 125.482 995.792 Q127.311 999.334 130.922 999.334 Q134.556 999.334 136.362 995.792 Q138.191 992.228 138.191 985.121 Q138.191 977.992 136.362 974.45 Q134.556 970.885 130.922 970.885 M130.922 967.182 Q136.732 967.182 139.788 971.788 Q142.867 976.371 142.867 985.121 Q142.867 993.848 139.788 998.455 Q136.732 1003.04 130.922 1003.04 Q125.112 1003.04 122.033 998.455 Q118.978 993.848 118.978 985.121 Q118.978 976.371 122.033 971.788 Q125.112 967.182 130.922 967.182 Z" fill="#000000" fill-rule="nonzero" fill-opacity="1" /><path clip-path="url(#clip170)" d="M161.084 970.885 Q157.473 970.885 155.644 974.45 Q153.839 977.992 153.839 985.121 Q153.839 992.228 155.644 995.792 Q157.473 999.334 161.084 999.334 Q164.718 999.334 166.524 995.792 Q168.353 992.228 168.353 985.121 Q168.353 977.992 166.524 974.45 Q164.718 970.885 161.084 970.885 M161.084 967.182 Q166.894 967.182 169.95 971.788 Q173.029 976.371 173.029 985.121 Q173.029 993.848 169.95 998.455 Q166.894 1003.04 161.084 1003.04 Q155.274 1003.04 152.195 998.455 Q149.14 993.848 149.14 985.121 Q149.14 976.371 152.195 971.788 Q155.274 967.182 161.084 967.182 Z" fill="#000000" fill-rule="nonzero" fill-opacity="1" /><path clip-path="url(#clip170)" d="M191.246 970.885 Q187.635 970.885 185.806 974.45 Q184.001 977.992 184.001 985.121 Q184.001 992.228 185.806 995.792 Q187.635 999.334 191.246 999.334 Q194.88 999.334 196.686 995.792 Q198.514 992.228 198.514 985.121 Q198.514 977.992 196.686 974.45 Q194.88 970.885 191.246 970.885 M191.246 967.182 Q197.056 967.182 200.112 971.788 Q203.19 976.371 203.19 985.121 Q203.19 993.848 200.112 998.455 Q197.056 1003.04 191.246 1003.04 Q185.436 1003.04 182.357 998.455 Q179.302 993.848 179.302 985.121 Q179.302 976.371 182.357 971.788 Q185.436 967.182 191.246 967.182 Z" fill="#000000" fill-rule="nonzero" fill-opacity="1" /><path clip-path="url(#clip170)" d="M50.9921 730.208 L80.6679 730.208 L80.6679 734.143 L50.9921 734.143 L50.9921 730.208 Z" fill="#000000" fill-rule="nonzero" fill-opacity="1" /><path clip-path="url(#clip170)" d="M91.5706 743.101 L99.2095 743.101 L99.2095 716.736 L90.8993 718.402 L90.8993 714.143 L99.1632 712.476 L103.839 712.476 L103.839 743.101 L111.478 743.101 L111.478 747.036 L91.5706 747.036 L91.5706 743.101 Z" fill="#000000" fill-rule="nonzero" fill-opacity="1" /><path clip-path="url(#clip170)" d="M120.969 712.476 L139.325 712.476 L139.325 716.412 L125.251 716.412 L125.251 724.884 Q126.27 724.537 127.288 724.374 Q128.307 724.189 129.325 724.189 Q135.112 724.189 138.492 727.361 Q141.871 730.532 141.871 735.948 Q141.871 741.527 138.399 744.629 Q134.927 747.708 128.607 747.708 Q126.432 747.708 124.163 747.337 Q121.918 746.967 119.51 746.226 L119.51 741.527 Q121.594 742.661 123.816 743.217 Q126.038 743.773 128.515 743.773 Q132.519 743.773 134.857 741.666 Q137.195 739.56 137.195 735.948 Q137.195 732.337 134.857 730.231 Q132.519 728.124 128.515 728.124 Q126.64 728.124 124.765 728.541 Q122.913 728.958 120.969 729.837 L120.969 712.476 Z" fill="#000000" fill-rule="nonzero" fill-opacity="1" /><path clip-path="url(#clip170)" d="M161.084 715.555 Q157.473 715.555 155.644 719.12 Q153.839 722.662 153.839 729.791 Q153.839 736.898 155.644 740.462 Q157.473 744.004 161.084 744.004 Q164.718 744.004 166.524 740.462 Q168.353 736.898 168.353 729.791 Q168.353 722.662 166.524 719.12 Q164.718 715.555 161.084 715.555 M161.084 711.851 Q166.894 711.851 169.95 716.458 Q173.029 721.041 173.029 729.791 Q173.029 738.518 169.95 743.124 Q166.894 747.708 161.084 747.708 Q155.274 747.708 152.195 743.124 Q149.14 738.518 149.14 729.791 Q149.14 721.041 152.195 716.458 Q155.274 711.851 161.084 711.851 Z" fill="#000000" fill-rule="nonzero" fill-opacity="1" /><path clip-path="url(#clip170)" d="M191.246 715.555 Q187.635 715.555 185.806 719.12 Q184.001 722.662 184.001 729.791 Q184.001 736.898 185.806 740.462 Q187.635 744.004 191.246 744.004 Q194.88 744.004 196.686 740.462 Q198.514 736.898 198.514 729.791 Q198.514 722.662 196.686 719.12 Q194.88 715.555 191.246 715.555 M191.246 711.851 Q197.056 711.851 200.112 716.458 Q203.19 721.041 203.19 729.791 Q203.19 738.518 200.112 743.124 Q197.056 747.708 191.246 747.708 Q185.436 747.708 182.357 743.124 Q179.302 738.518 179.302 729.791 Q179.302 721.041 182.357 716.458 Q185.436 711.851 191.246 711.851 Z" fill="#000000" fill-rule="nonzero" fill-opacity="1" /><path clip-path="url(#clip170)" d="M50.9921 474.878 L80.6679 474.878 L80.6679 478.813 L50.9921 478.813 L50.9921 474.878 Z" fill="#000000" fill-rule="nonzero" fill-opacity="1" /><path clip-path="url(#clip170)" d="M91.5706 487.771 L99.2095 487.771 L99.2095 461.405 L90.8993 463.072 L90.8993 458.813 L99.1632 457.146 L103.839 457.146 L103.839 487.771 L111.478 487.771 L111.478 491.706 L91.5706 491.706 L91.5706 487.771 Z" fill="#000000" fill-rule="nonzero" fill-opacity="1" /><path clip-path="url(#clip170)" d="M130.922 460.225 Q127.311 460.225 125.482 463.79 Q123.677 467.331 123.677 474.461 Q123.677 481.567 125.482 485.132 Q127.311 488.674 130.922 488.674 Q134.556 488.674 136.362 485.132 Q138.191 481.567 138.191 474.461 Q138.191 467.331 136.362 463.79 Q134.556 460.225 130.922 460.225 M130.922 456.521 Q136.732 456.521 139.788 461.128 Q142.867 465.711 142.867 474.461 Q142.867 483.188 139.788 487.794 Q136.732 492.378 130.922 492.378 Q125.112 492.378 122.033 487.794 Q118.978 483.188 118.978 474.461 Q118.978 465.711 122.033 461.128 Q125.112 456.521 130.922 456.521 Z" fill="#000000" fill-rule="nonzero" fill-opacity="1" /><path clip-path="url(#clip170)" d="M161.084 460.225 Q157.473 460.225 155.644 463.79 Q153.839 467.331 153.839 474.461 Q153.839 481.567 155.644 485.132 Q157.473 488.674 161.084 488.674 Q164.718 488.674 166.524 485.132 Q168.353 481.567 168.353 474.461 Q168.353 467.331 166.524 463.79 Q164.718 460.225 161.084 460.225 M161.084 456.521 Q166.894 456.521 169.95 461.128 Q173.029 465.711 173.029 474.461 Q173.029 483.188 169.95 487.794 Q166.894 492.378 161.084 492.378 Q155.274 492.378 152.195 487.794 Q149.14 483.188 149.14 474.461 Q149.14 465.711 152.195 461.128 Q155.274 456.521 161.084 456.521 Z" fill="#000000" fill-rule="nonzero" fill-opacity="1" /><path clip-path="url(#clip170)" d="M191.246 460.225 Q187.635 460.225 185.806 463.79 Q184.001 467.331 184.001 474.461 Q184.001 481.567 185.806 485.132 Q187.635 488.674 191.246 488.674 Q194.88 488.674 196.686 485.132 Q198.514 481.567 198.514 474.461 Q198.514 467.331 196.686 463.79 Q194.88 460.225 191.246 460.225 M191.246 456.521 Q197.056 456.521 200.112 461.128 Q203.19 465.711 203.19 474.461 Q203.19 483.188 200.112 487.794 Q197.056 492.378 191.246 492.378 Q185.436 492.378 182.357 487.794 Q179.302 483.188 179.302 474.461 Q179.302 465.711 182.357 461.128 Q185.436 456.521 191.246 456.521 Z" fill="#000000" fill-rule="nonzero" fill-opacity="1" /><path clip-path="url(#clip170)" d="M81.154 219.547 L110.83 219.547 L110.83 223.483 L81.154 223.483 L81.154 219.547 Z" fill="#000000" fill-rule="nonzero" fill-opacity="1" /><path clip-path="url(#clip170)" d="M120.969 201.816 L139.325 201.816 L139.325 205.751 L125.251 205.751 L125.251 214.223 Q126.27 213.876 127.288 213.714 Q128.307 213.529 129.325 213.529 Q135.112 213.529 138.492 216.7 Q141.871 219.872 141.871 225.288 Q141.871 230.867 138.399 233.969 Q134.927 237.047 128.607 237.047 Q126.432 237.047 124.163 236.677 Q121.918 236.307 119.51 235.566 L119.51 230.867 Q121.594 232.001 123.816 232.557 Q126.038 233.112 128.515 233.112 Q132.519 233.112 134.857 231.006 Q137.195 228.899 137.195 225.288 Q137.195 221.677 134.857 219.571 Q132.519 217.464 128.515 217.464 Q126.64 217.464 124.765 217.881 Q122.913 218.298 120.969 219.177 L120.969 201.816 Z" fill="#000000" fill-rule="nonzero" fill-opacity="1" /><path clip-path="url(#clip170)" d="M161.084 204.895 Q157.473 204.895 155.644 208.46 Q153.839 212.001 153.839 219.131 Q153.839 226.237 155.644 229.802 Q157.473 233.344 161.084 233.344 Q164.718 233.344 166.524 229.802 Q168.353 226.237 168.353 219.131 Q168.353 212.001 166.524 208.46 Q164.718 204.895 161.084 204.895 M161.084 201.191 Q166.894 201.191 169.95 205.798 Q173.029 210.381 173.029 219.131 Q173.029 227.858 169.95 232.464 Q166.894 237.047 161.084 237.047 Q155.274 237.047 152.195 232.464 Q149.14 227.858 149.14 219.131 Q149.14 210.381 152.195 205.798 Q155.274 201.191 161.084 201.191 Z" fill="#000000" fill-rule="nonzero" fill-opacity="1" /><path clip-path="url(#clip170)" d="M191.246 204.895 Q187.635 204.895 185.806 208.46 Q184.001 212.001 184.001 219.131 Q184.001 226.237 185.806 229.802 Q187.635 233.344 191.246 233.344 Q194.88 233.344 196.686 229.802 Q198.514 226.237 198.514 219.131 Q198.514 212.001 196.686 208.46 Q194.88 204.895 191.246 204.895 M191.246 201.191 Q197.056 201.191 200.112 205.798 Q203.19 210.381 203.19 219.131 Q203.19 227.858 200.112 232.464 Q197.056 237.047 191.246 237.047 Q185.436 237.047 182.357 232.464 Q179.302 227.858 179.302 219.131 Q179.302 210.381 182.357 205.798 Q185.436 201.191 191.246 201.191 Z" fill="#000000" fill-rule="nonzero" fill-opacity="1" /><polyline clip-path="url(#clip172)" style="stroke:#009af9; stroke-linecap:round; stroke-linejoin:round; stroke-width:4; stroke-opacity:1; fill:none" points="299.008,114.908 300.006,114.246 301.003,88.5988 302.001,87.9763 302.998,139.433 303.996,138.359 304.993,129.154 305.991,128.447 306.988,149.25 307.985,148.44 308.983,134.636 309.98,133.827 310.978,169.92 311.975,169.178 312.973,139.711 313.97,138.925 314.968,154.124 315.965,153.208 316.963,189.634 317.96,189.015 318.958,181.453 319.955,180.865 320.952,150.975 321.95,150.203 322.947,209.009 323.945,208.17 324.942,196.764 325.94,196.108 326.937,213.983 327.935,213.376 328.932,174.287 329.93,173.662 330.927,169.61 331.925,168.853 332.922,202.595 333.92,202.026 334.917,210.47 335.914,209.972 336.912,181.057 337.909,180.799 338.907,256.702 339.904,256.232 340.902,180.126 341.899,179.519 342.897,170.924 343.894,170.399 344.892,190.275 345.889,190 346.887,243.76 347.884,243.315 348.881,208.147 349.879,207.888 350.876,217.894 351.874,217.59 352.871,243.938 353.869,243.607 354.866,280.153 355.864,279.943 356.861,248.314 357.859,248.127 358.856,242.349 359.854,242.144 360.851,267.752 361.848,267.48 362.846,239.51 363.843,239.431 364.841,268.897 365.838,268.588 366.836,267.929 367.833,267.609 368.831,261.558 369.828,260.978 370.826,258.314 371.823,258.164 372.821,256.746 373.818,256.445 374.816,289.841 375.813,289.595 376.81,267.915 377.808,267.741 378.805,283.554 379.803,283.361 380.8,287.03 381.798,286.716 382.795,309.127 383.793,308.889 384.79,298.46 385.788,298.245 386.785,266.217 387.783,265.848 388.78,337.29 389.777,336.723 390.775,285.753 391.772,285.489 392.77,292.429 393.767,292.256 394.765,296.583 395.762,296.3 396.76,291.577 397.757,291.23 398.755,315.153 399.752,314.847 400.75,316.6 401.747,316.205 402.744,344.83 403.742,344.654 404.739,302.326 405.737,302.056 406.734,300.191 407.732,299.928 408.729,328.033 409.727,327.658 410.724,333.596 411.722,333.383 412.719,307.199 413.717,306.872 414.714,361.23 415.712,360.863 416.709,327.434 417.706,327.088 418.704,366.896 419.701,366.501 420.699,345.473 421.696,345.261 422.694,346.317 423.691,345.92 424.689,361.438 425.686,361.155 426.684,361.417 427.681,361.033 428.679,383.549 429.676,382.998 430.673,321.108 431.671,320.87 432.668,383.737 433.666,383.459 434.663,324.442 435.661,324.175 436.658,367.416 437.656,367.137 438.653,387.3 439.651,387.023 440.648,372.352 441.646,372.11 442.643,365.232 443.64,364.983 444.638,404.268 445.635,403.931 446.633,350.763 447.63,350.526 448.628,371.231 449.625,370.832 450.623,392.871 451.62,392.443 452.618,378.027 453.615,377.756 454.613,384.871 455.61,384.443 456.608,416.847 457.605,416.461 458.602,377.185 459.6,376.847 460.597,360.882 461.595,360.493 462.592,434.569 463.59,434.229 464.587,406.784 465.585,406.347 466.582,445.273 467.58,444.771 468.577,439.696 469.575,439.356 470.572,455.657 471.569,455.111 472.567,480.013 473.564,479.36 474.562,365.589 475.559,365.26 476.557,449.208 477.554,448.692 478.552,437.21 479.549,436.772 480.547,468.719 481.544,468.317 482.542,463.517 483.539,463.004 484.537,448.261 485.534,447.85 486.531,422.335 487.529,422.002 488.526,435.697 489.524,435.392 490.521,430.745 491.519,430.35 492.516,400.266 493.514,399.899 494.511,436.364 495.509,435.831 496.506,410.651 497.504,410.197 498.501,512.643 499.498,512.085 500.496,440.844 501.493,440.439 502.491,436.077 503.488,435.717 504.486,468.968 505.483,468.589 506.481,554.064 507.478,553.438 508.476,424.929 509.473,424.491 510.471,468.186 511.468,467.736 512.465,434.795 513.463,434.458 514.46,527.87 515.458,527.416 516.455,459.33 517.453,458.692 518.45,502.077 519.448,501.607 520.445,509 521.443,508.487 522.44,536.339 523.438,535.687 524.435,498.101 525.433,497.783 526.43,507.659 527.427,507.219 528.425,532.631 529.422,532.206 530.42,504.493 531.417,504.007 532.415,570.656 533.412,570.008 534.41,569.984 535.407,569.385 536.405,596.684 537.402,596.052 538.4,530.946 539.397,530.342 540.394,533.552 541.392,533.072 542.389,572.143 543.387,571.568 544.384,568.649 545.382,567.964 546.379,535.968 547.377,535.416 548.374,571.682 549.372,571.157 550.369,573.25 551.367,572.748 552.364,554.075 553.361,553.725 554.359,573.782 555.356,573.191 556.354,566.298 557.351,565.828 558.349,632.483 559.346,631.891 560.344,512.97 561.341,512.502 562.339,612.254 563.336,611.747 564.334,627.689 565.331,626.958 566.329,604.139 567.326,603.586 568.323,615.759 569.321,615.153 570.318,621.717 571.316,621.117 572.313,586.777 573.311,586.255 574.308,563.117 575.306,562.546 576.303,608.932 577.301,608.186 578.298,624.335 579.296,623.161 580.293,589.19 581.29,588.707 582.288,619.826 583.285,619.139 584.283,671.465 585.28,670.54 586.278,678.165 587.275,677.333 588.273,618.596 589.27,617.999 590.268,640.732 591.265,640.189 592.263,681.438 593.26,680.654 594.258,668.433 595.255,667.809 596.252,650.212 597.25,649.704 598.247,655.784 599.245,655.122 600.242,623.867 601.24,623.398 602.237,648.637 603.235,647.863 604.232,651.083 605.23,650.445 606.227,680.621 607.225,679.969 608.222,648.967 609.219,648.332 610.217,707.058 611.214,706.592 612.212,651.786 613.209,651.205 614.207,685.097 615.204,684.35 616.202,724.173 617.199,723.412 618.197,688.769 619.194,688.142 620.192,744.844 621.189,744.018 622.186,691.131 623.184,690.567 624.181,718.34 625.179,717.671 626.176,759.931 627.174,759.037 628.171,712.067 629.169,711.305 630.166,747.534 631.164,746.877 632.161,726.217 633.159,725.612 634.156,711.315 635.154,710.656 636.151,667.645 637.148,667.113 638.146,739.621 639.143,739.053 640.141,720.269 641.138,719.468 642.136,737.269 643.133,736.486 644.131,834.529 645.128,833.333 646.126,744.748 647.123,744.023 648.121,753.744 649.118,753.002 650.115,760.576 651.113,759.667 652.11,722.444 653.108,721.842 654.105,730.902 655.103,730.102 656.1,797.196 657.098,796.455 658.095,790.76 659.093,790.089 660.09,793.759 661.088,793.27 662.085,789.412 663.082,788.681 664.08,757.768 665.077,757.138 666.075,776.576 667.072,775.657 668.07,775.691 669.067,775.031 670.065,789.243 671.062,788.507 672.06,808.734 673.057,807.789 674.055,744.006 675.052,743.384 676.05,794.151 677.047,793.253 678.044,800.109 679.042,799.17 680.039,776.393 681.037,775.726 682.034,820.133 683.032,819.025 684.029,784.546 685.027,783.724 686.024,788.949 687.022,788.242 688.019,766.629 689.017,765.866 690.014,808.647 691.011,808.12 692.009,819.841 693.006,819.221 694.004,832.078 695.001,831.184 695.999,801.137 696.996,800.446 697.994,819.218 698.991,818.54 699.989,860.005 700.986,859.118 701.984,895.683 702.981,894.922 703.978,810.432 704.976,809.764 705.973,848.485 706.971,847.813 707.968,821.814 708.966,821.058 709.963,860.945 710.961,860.074 711.958,825.163 712.956,824.261 713.953,831.677 714.951,830.994 715.948,849.667 716.946,849.007 717.943,863.682 718.94,863.126 719.938,812.987 720.935,812.184 721.933,841.277 722.93,840.405 723.928,850.597 724.925,849.89 725.923,900.944 726.92,900.109 727.918,888.085 728.915,887.307 729.913,867.261 730.91,866.563 731.907,902.433 732.905,901.344 733.902,916.495 734.9,915.477 735.897,922.259 736.895,920.908 737.892,891.825 738.89,891.176 739.887,859.666 740.885,859.12 741.882,876.266 742.88,874.957 743.877,954.603 744.875,953.474 745.872,906.993 746.869,906.085 747.867,890.695 748.864,889.736 749.862,835.426 750.859,834.507 751.857,877.827 752.854,876.82 753.852,917.786 754.849,916.731 755.847,923.386 756.844,922.478 757.842,872.721 758.839,871.914 759.836,891.049 760.834,890.131 761.831,943.151 762.829,942.312 763.826,928.698 764.824,927.689 765.821,929.837 766.819,928.896 767.816,904.531 768.814,903.279 769.811,926.253 770.809,924.823 771.806,954.508 772.803,953.566 773.801,949.946 774.798,949.123 775.796,900.044 776.793,899.133 777.791,915.272 778.788,914.2 779.786,948.454 780.783,947.366 781.781,951.377 782.778,950.206 783.776,991.833 784.773,990.851 785.771,956.913 786.768,955.728 787.765,939.677 788.763,938.82 789.76,958.576 790.758,957.779 791.755,972.783 792.753,971.453 793.75,974.302 794.748,973.532 795.745,938.285 796.743,937.445 797.74,1002.71 798.738,1001.12 799.735,956.478 800.732,955.751 801.73,958.759 802.727,957.808 803.725,996.009 804.722,994.808 805.72,985.116 806.717,984.06 807.715,989.316 808.712,988.17 809.71,1029.13 810.707,1027.81 811.705,999.956 812.702,998.921 813.699,953.249 814.697,952.321 815.694,970.816 816.692,969.77 817.689,963.17 818.687,962.062 819.684,998.842 820.682,997.497 821.679,982.101 822.677,981.182 823.674,1030.68 824.672,1029.51 825.669,1004.81 826.667,1003.62 827.664,999.133 828.661,998.146 829.659,1023.04 830.656,1021.46 831.654,1002.71 832.651,1001.54 833.649,994.52 834.646,993.656 835.644,1004.22 836.641,1002.73 837.639,1041.39 838.636,1040.23 839.634,999.526 840.631,998.486 841.628,1023.52 842.626,1022.36 843.623,1048.89 844.621,1047.58 845.618,989.962 846.616,988.96 847.613,1027.21 848.611,1026.23 849.608,1033.47 850.606,1032.86 851.603,1052.37 852.601,1051.26 853.598,1019 854.596,1018.1 855.593,1047.11 856.59,1045.81 857.588,1073.53 858.585,1072.61 859.583,1068.02 860.58,1067.1 861.578,1047.27 862.575,1046.35 863.573,1008.65 864.57,1007.34 865.568,1058.91 866.565,1058.08 867.563,1050.5 868.56,1049.52 869.557,1040.51 870.555,1039.6 871.552,1069.26 872.55,1067.93 873.547,1021.45 874.545,1020.2 875.542,1089.41 876.54,1088.32 877.537,1061.45 878.535,1060.34 879.532,1059.38 880.53,1058.39 881.527,1065.72 882.524,1064.62 883.522,1069.27 884.519,1067.97 885.517,1113.88 886.514,1112.84 887.512,1103.71 888.509,1102.43 889.507,1070.89 890.504,1069.66 891.502,1031.11 892.499,1029.82 893.497,995.95 894.494,995.192 895.492,1137.91 896.489,1136.68 897.486,1075.33 898.484,1073.97 899.481,1100.85 900.479,1099.4 901.476,1031.19 902.474,1030.08 903.471,1095.56 904.469,1094.87 905.466,1079.84 906.464,1078.4 907.461,1093.91 908.459,1092.78 909.456,1102.66 910.453,1101.37 911.451,1091.17 912.448,1090.45 913.446,1103.94 914.443,1102.52 915.441,1108.95 916.438,1107.7 917.436,1100.46 918.433,1099.51 919.431,1116.88 920.428,1116.02 921.426,1089.04 922.423,1087.99 923.42,1127.14 924.418,1125.92 925.415,1131.35 926.413,1129.91 927.41,1084.5 928.408,1083.39 929.405,1086.86 930.403,1085.63 931.4,1126.75 932.398,1125.65 933.395,1097.62 934.393,1096.18 935.39,1132.59 936.388,1131.36 937.385,1068.48 938.382,1067.43 939.38,1089.18 940.377,1088.33 941.375,1133.18 942.372,1132.16 943.37,1067.72 944.367,1066.52 945.365,1126.13 946.362,1124.7 947.36,1161.02 948.357,1159.41 949.355,1093.64 950.352,1092.53 951.349,1126.63 952.347,1125.42 953.344,1114.94 954.342,1113.85 955.339,1110.39 956.337,1109.13 957.334,1131.4 958.332,1130.03 959.329,1092.14 960.327,1091.26 961.324,1109.42 962.322,1108.16 963.319,1172.54 964.316,1171.56 965.314,1095.45 966.311,1094.31 967.309,1112.87 968.306,1111.51 969.304,1099.02 970.301,1098.03 971.299,1141.12 972.296,1140.3 973.294,1143.16 974.291,1141.67 975.289,1169.48 976.286,1168.28 977.284,1101.96 978.281,1100.7 979.278,1103.79 980.276,1102.73 981.273,1144.13 982.271,1143.24 983.268,1150.8 984.266,1149.48 985.263,1147.6 986.261,1146.18 987.258,1149.05 988.256,1147.77 989.253,1178.03 990.251,1176.83 991.248,1144.35 992.245,1143.36 993.243,1128.85 994.24,1127.84 995.238,1119.72 996.235,1118.39 997.233,1167.8 998.23,1166.69 999.228,1165 1000.23,1163.34 1001.22,1159.36 1002.22,1157.88 1003.22,1133.43 1004.22,1132.41 1005.21,1132.66 1006.21,1131.25 1007.21,1111.69 1008.2,1109.83 1009.2,1171.84 1010.2,1170.81 1011.2,1134.08 1012.19,1132.77 1013.19,1172.97 1014.19,1171.66 1015.19,1162.34 1016.18,1161.26 1017.18,1196.57 1018.18,1195.17 1019.18,1156.64 1020.17,1155.16 1021.17,1156.56 1022.17,1155.03 1023.17,1184.86 1024.16,1183.62 1025.16,1224.64 1026.16,1222.96 1027.16,1163.23 1028.15,1162.11 1029.15,1213.71 1030.15,1211.87 1031.15,1194.49 1032.14,1192.47 1033.14,1222.8 1034.14,1221.15 1035.14,1189.92 1036.13,1188.63 1037.13,1173.09 1038.13,1170.85 1039.13,1202.36 1040.12,1201.33 1041.12,1169.77 1042.12,1167.4 1043.12,1192.44 1044.11,1190.68 1045.11,1199.69 1046.11,1198.35 1047.11,1192.31 1048.1,1190.95 1049.1,1217.31 1050.1,1215.22 1051.1,1210.8 1052.09,1209.47 1053.09,1243.98 1054.09,1242.42 1055.09,1225.32 1056.08,1224.05 1057.08,1249.61 1058.08,1248.13 1059.08,1214.11 1060.07,1211.46 1061.07,1211.7 1062.07,1210.61 1063.07,1251.69 1064.06,1249.91 1065.06,1242.6 1066.06,1240.38 1067.06,1210.88 1068.05,1209.01 1069.05,1219.37 1070.05,1217.82 1071.05,1227.85 1072.04,1226.21 1073.04,1245.96 1074.04,1244.79 1075.03,1233.17 1076.03,1231.21 1077.03,1257.73 1078.03,1256.5 1079.02,1275.85 1080.02,1274.05 1081.02,1226.11 1082.02,1224.36 1083.01,1226.96 1084.01,1225.62 1085.01,1242.65 1086.01,1241.55 1087,1262.3 1088,1260.29 1089,1229.36 1090,1228.05 1090.99,1232.23 1091.99,1230.88 1092.99,1267.84 1093.99,1266.1 1094.98,1249.35 1095.98,1247.8 1096.98,1272.95 1097.98,1271.24 1098.97,1221.05 1099.97,1219.72 1100.97,1249.05 1101.97,1247.75 1102.96,1255.51 1103.96,1253.68 1104.96,1241.16 1105.96,1238.17 1106.95,1250.73 1107.95,1249 1108.95,1265.45 1109.95,1264.11 1110.94,1208.55 1111.94,1207.21 1112.94,1265.31 1113.94,1263.34 1114.93,1289.54 1115.93,1288.35 1116.93,1284.83 1117.93,1283.1 1118.92,1261.41 1119.92,1259.67 1120.92,1296.2 1121.92,1293.98 1122.91,1255.43 1123.91,1253.01 1124.91,1274.13 1125.91,1272.56 1126.9,1272.64 1127.9,1271.26 1128.9,1269.99 1129.9,1268.18 1130.89,1271.25 1131.89,1270.23 1132.89,1278.94 1133.89,1277.16 1134.88,1291.21 1135.88,1289.53 1136.88,1281.1 1137.88,1279.28 1138.87,1285.04 1139.87,1282.25 1140.87,1278.52 1141.87,1276.72 1142.86,1303.22 1143.86,1301.14 1144.86,1288.98 1145.85,1286.94 1146.85,1242.37 1147.85,1240.74 1148.85,1271.33 1149.84,1269.57 1150.84,1278.21 1151.84,1276.74 1152.84,1275.09 1153.83,1273.37 1154.83,1311.37 1155.83,1309.49 1156.83,1294.47 1157.82,1291.27 1158.82,1306.35 1159.82,1304 1160.82,1279.8 1161.81,1278.52 1162.81,1287.13 1163.81,1285.2 1164.81,1279.47 1165.8,1277.01 1166.8,1302.48 1167.8,1300.81 1168.8,1289.52 1169.79,1287.7 1170.79,1293.08 1171.79,1290.53 1172.79,1317.02 1173.78,1315.2 1174.78,1315.68 1175.78,1312.96 1176.78,1313.83 1177.77,1311.95 1178.77,1300.51 1179.77,1298.44 1180.77,1321.73 1181.76,1319.54 1182.76,1306.77 1183.76,1304.99 1184.76,1305.77 1185.75,1303.72 1186.75,1285.69 1187.75,1283.67 1188.75,1304.46 1189.74,1302.92 1190.74,1296.41 1191.74,1294.54 1192.74,1255.35 1193.73,1252.91 1194.73,1301.43 1195.73,1300.17 1196.73,1312.04 1197.72,1309.84 1198.72,1298.01 1199.72,1296.13 1200.72,1302.89 1201.71,1300.22 1202.71,1292.45 1203.71,1290.75 1204.71,1310.65 1205.7,1308.96 1206.7,1322.16 1207.7,1320.77 1208.7,1312.5 1209.69,1311.27 1210.69,1322.09 1211.69,1320.73 1212.68,1291.65 1213.68,1289.3 1214.68,1319.26 1215.68,1317.62 1216.67,1329.64 1217.67,1327.03 1218.67,1280.14 1219.67,1278.86 1220.66,1324.04 1221.66,1321.86 1222.66,1280.89 1223.66,1279.32 1224.65,1314.37 1225.65,1312.68 1226.65,1317.88 1227.65,1315.98 1228.64,1307.68 1229.64,1305.93 1230.64,1326.76 1231.64,1324.95 1232.63,1310.17 1233.63,1308.33 1234.63,1320.2 1235.63,1318.37 1236.62,1324.06 1237.62,1321.69 1238.62,1309.62 1239.62,1307.88 1240.61,1303.35 1241.61,1301.71 1242.61,1321.53 1243.61,1319.96 1244.6,1299.99 1245.6,1297.93 1246.6,1308.38 1247.6,1306.94 1248.59,1298.9 1249.59,1297.06 1250.59,1299.08 1251.59,1297.33 1252.58,1318.81 1253.58,1317.32 1254.58,1347.37 1255.58,1345.2 1256.57,1344.63 1257.57,1342.66 1258.57,1295.84 1259.57,1293.37 1260.56,1303.2 1261.56,1301.55 1262.56,1290.36 1263.56,1288.99 1264.55,1344.99 1265.55,1343.18 1266.55,1311.53 1267.55,1310.09 1268.54,1321.41 1269.54,1319.61 1270.54,1325.4 1271.54,1323.48 1272.53,1325.11 1273.53,1323.42 1274.53,1338.39 1275.53,1336.91 1276.52,1301.8 1277.52,1299.98 1278.52,1286.31 1279.51,1284.5 1280.51,1350.43 1281.51,1348.68 1282.51,1324.68 1283.5,1322.39 1284.5,1306.32 1285.5,1304.93 1286.5,1330.4 1287.49,1329.37 1288.49,1342.58 1289.49,1340.84 1290.49,1309.38 1291.48,1307.41 1292.48,1351.13 1293.48,1349.08 1294.48,1333.51 1295.47,1331.96 1296.47,1328.85 1297.47,1327.22 1298.47,1323.66 1299.46,1320.17 1300.46,1327.71 1301.46,1326 1302.46,1300.59 1303.45,1298.33 1304.45,1298.98 1305.45,1297.38 1306.45,1293.02 1307.44,1291.05 1308.44,1340.26 1309.44,1338.09 1310.44,1334.07 1311.43,1332.86 1312.43,1319.01 1313.43,1316.93 1314.43,1354.97 1315.42,1353.37 1316.42,1360.13 1317.42,1358.43 1318.42,1325.44 1319.41,1323.8 1320.41,1340.81 1321.41,1339.36 1322.41,1346.84 1323.4,1345.39 1324.4,1347.47 1325.4,1345.67 1326.4,1334.31 1327.39,1332.51 1328.39,1329.39 1329.39,1327.34 1330.39,1372.46 1331.38,1371.19 1332.38,1322.84 1333.38,1320.94 1334.38,1304.75 1335.37,1303.6 1336.37,1324.3 1337.37,1322.44 1338.37,1341.01 1339.36,1339.05 1340.36,1319.54 1341.36,1316.96 1342.36,1334.47 1343.35,1332.94 1344.35,1347.42 1345.35,1345.69 1346.35,1351.41 1347.34,1349.73 1348.34,1364.73 1349.34,1363.11 1350.33,1332.04 1351.33,1330.09 1352.33,1352.1 1353.33,1350.72 1354.32,1353.97 1355.32,1352.1 1356.32,1337.99 1357.32,1336.37 1358.31,1362.5 1359.31,1360.03 1360.31,1338.17 1361.31,1336.35 1362.3,1344.19 1363.3,1341.94 1364.3,1331.07 1365.3,1329.15 1366.29,1353.2 1367.29,1350.3 1368.29,1331.61 1369.29,1330.25 1370.28,1374.54 1371.28,1372.46 1372.28,1344.6 1373.28,1343.1 1374.27,1352.9 1375.27,1350.56 1376.27,1366.53 1377.27,1364.92 1378.26,1344.85 1379.26,1343.52 1380.26,1354.21 1381.26,1352.42 1382.25,1374.51 1383.25,1371.66 1384.25,1325.25 1385.25,1323.22 1386.24,1355.36 1387.24,1353.28 1388.24,1378.41 1389.24,1376.46 1390.23,1353.4 1391.23,1351.05 1392.23,1321.82 1393.23,1319.91 1394.22,1368 1395.22,1365.95 1396.22,1333.51 1397.22,1332.2 1398.21,1360.81 1399.21,1359.06 1400.21,1332.64 1401.21,1330.39 1402.2,1346.15 1403.2,1344.23 1404.2,1351.86 1405.2,1349.96 1406.19,1340.4 1407.19,1338.38 1408.19,1370.09 1409.19,1368.67 1410.18,1343.52 1411.18,1341.46 1412.18,1389.17 1413.18,1387.88 1414.17,1297.29 1415.17,1295.15 1416.17,1374.87 1417.16,1372.89 1418.16,1343.56 1419.16,1341.76 1420.16,1353.74 1421.15,1351.54 1422.15,1343.37 1423.15,1341.98 1424.15,1335.88 1425.14,1334.29 1426.14,1362.17 1427.14,1358.83 1428.14,1372.25 1429.13,1370.69 1430.13,1346.82 1431.13,1345.49 1432.13,1362.95 1433.12,1361.41 1434.12,1342.11 1435.12,1340.11 1436.12,1353.86 1437.11,1352.14 1438.11,1352.24 1439.11,1350.42 1440.11,1354.89 1441.1,1352.89 1442.1,1354.87 1443.1,1352.95 1444.1,1373.05 1445.09,1371.6 1446.09,1374.08 1447.09,1372.14 1448.09,1362.24 1449.08,1360.39 1450.08,1362.78 1451.08,1360.84 1452.08,1351.52 1453.07,1349.1 1454.07,1356.12 1455.07,1354.1 1456.07,1355.74 1457.06,1354.16 1458.06,1344.28 1459.06,1342.34 1460.06,1356.82 1461.05,1354.94 1462.05,1376.13 1463.05,1374.7 1464.05,1356.81 1465.04,1354.77 1466.04,1380.65 1467.04,1378.29 1468.04,1315.69 1469.03,1314.12 1470.03,1362.73 1471.03,1360.89 1472.03,1366.95 1473.02,1364.6 1474.02,1368.86 1475.02,1367.16 1476.02,1332.79 1477.01,1331.52 1478.01,1350.73 1479.01,1348.75 1480.01,1379.88 1481,1378.43 1482,1352.33 1483,1350.58 1484,1336.3 1484.99,1334.43 1485.99,1358.27 1486.99,1355.85 1487.98,1370.06 1488.98,1368.16 1489.98,1369.52 1490.98,1367.92 1491.97,1328.97 1492.97,1327.2 1493.97,1349.76 1494.97,1348.27 1495.96,1373.27 1496.96,1371.97 1497.96,1367.68 1498.96,1366.19 1499.95,1349.62 1500.95,1347.16 1501.95,1380.06 1502.95,1377.89 1503.94,1379.29 1504.94,1377.44 1505.94,1381.24 1506.94,1379.2 1507.93,1369.23 1508.93,1366.98 1509.93,1350.36 1510.93,1348.06 1511.92,1361.82 1512.92,1360.65 1513.92,1362.78 1514.92,1360.86 1515.91,1354.2 1516.91,1352 1517.91,1372.51 1518.91,1370.98 1519.9,1374.5 1520.9,1372.15 1521.9,1364.37 1522.9,1361.81 1523.89,1368.74 1524.89,1366.95 1525.89,1355.09 1526.89,1353.21 1527.88,1349.67 1528.88,1347.55 1529.88,1399.53 1530.88,1397.95 1531.87,1357.71 1532.87,1354.91 1533.87,1363.43 1534.87,1361.41 1535.86,1379.42 1536.86,1377.1 1537.86,1339.01 1538.86,1337.49 1539.85,1342.39 1540.85,1340.19 1541.85,1372.89 1542.85,1371.19 1543.84,1371.18 1544.84,1368.45 1545.84,1378.76 1546.84,1376.07 1547.83,1385.1 1548.83,1382.53 1549.83,1363.45 1550.83,1361.67 1551.82,1341.38 1552.82,1339.08 1553.82,1382.43 1554.81,1380.49 1555.81,1355.38 1556.81,1353 1557.81,1358.77 1558.8,1356.42 1559.8,1378.72 1560.8,1376.17 1561.8,1374.95 1562.79,1373.16 1563.79,1395.12 1564.79,1393.47 1565.79,1370.63 1566.78,1368.44 1567.78,1378.27 1568.78,1376.68 1569.78,1362.54 1570.77,1360.68 1571.77,1388.82 1572.77,1386.65 1573.77,1382.35 1574.76,1380.57 1575.76,1383.42 1576.76,1381.83 1577.76,1359.1 1578.75,1356.99 1579.75,1392.21 1580.75,1390.04 1581.75,1383.6 1582.74,1381.64 1583.74,1358.73 1584.74,1356.5 1585.74,1367.03 1586.73,1364.62 1587.73,1396.3 1588.73,1394.26 1589.73,1396.7 1590.72,1393.55 1591.72,1397.3 1592.72,1395.42 1593.72,1381.61 1594.71,1380.12 1595.71,1384.77 1596.71,1382.48 1597.71,1379.55 1598.7,1377.65 1599.7,1388 1600.7,1384.81 1601.7,1357.46 1602.69,1355.19 1603.69,1382.49 1604.69,1379.91 1605.69,1379.62 1606.68,1378.27 1607.68,1361.52 1608.68,1359.4 1609.68,1364.25 1610.67,1362.63 1611.67,1372.94 1612.67,1370.48 1613.67,1391.63 1614.66,1389.41 1615.66,1371.56 1616.66,1369.06 1617.66,1361.89 1618.65,1360.06 1619.65,1360.98 1620.65,1358.7 1621.65,1360.03 1622.64,1358.09 1623.64,1361.17 1624.64,1359.42 1625.63,1403.4 1626.63,1401.94 1627.63,1391.45 1628.63,1389.31 1629.62,1382.48 1630.62,1379.51 1631.62,1390.33 1632.62,1387.01 1633.61,1367.12 1634.61,1365.35 1635.61,1369.43 1636.61,1367.02 1637.6,1418.83 1638.6,1416.72 1639.6,1410.47 1640.6,1407.79 1641.59,1367.31 1642.59,1366.04 1643.59,1369.32 1644.59,1367.88 1645.58,1386.93 1646.58,1385.72 1647.58,1387.26 1648.58,1385.65 1649.57,1384.26 1650.57,1382.3 1651.57,1390.24 1652.57,1388.48 1653.56,1401.08 1654.56,1398.63 1655.56,1402.32 1656.56,1399.72 1657.55,1384.32 1658.55,1382.17 1659.55,1404.24 1660.55,1402.17 1661.54,1409.81 1662.54,1408.3 1663.54,1386.7 1664.54,1385.16 1665.53,1376.37 1666.53,1374.81 1667.53,1405.44 1668.53,1403.36 1669.52,1405.41 1670.52,1404.18 1671.52,1400.11 1672.52,1398.35 1673.51,1400.16 1674.51,1398.05 1675.51,1385.13 1676.51,1382.65 1677.5,1394.82 1678.5,1392.24 1679.5,1388.15 1680.5,1385.08 1681.49,1392.07 1682.49,1390.61 1683.49,1416.64 1684.49,1413.64 1685.48,1392.91 1686.48,1391.43 1687.48,1383.58 1688.48,1380.22 1689.47,1413.58 1690.47,1411.91 1691.47,1389.89 1692.46,1387.94 1693.46,1411.71 1694.46,1409.9 1695.46,1412.36 1696.45,1410.72 1697.45,1392.27 1698.45,1390.37 1699.45,1425.62 1700.44,1423.35 1701.44,1402.46 1702.44,1399.77 1703.44,1422.48 1704.43,1420.54 1705.43,1413.75 1706.43,1412.01 1707.43,1417.02 1708.42,1415.01 1709.42,1397.14 1710.42,1394.72 1711.42,1410.38 1712.41,1408.76 1713.41,1396.69 1714.41,1395.14 1715.41,1386.03 1716.4,1384.09 1717.4,1394.25 1718.4,1391.34 1719.4,1386.45 1720.39,1384.45 1721.39,1408.61 1722.39,1406.68 1723.39,1416.07 1724.38,1413.95 1725.38,1380.99 1726.38,1378.44 1727.38,1375.49 1728.37,1373.28 1729.37,1397.28 1730.37,1395.48 1731.37,1412.9 1732.36,1410.96 1733.36,1410.5 1734.36,1408.04 1735.36,1392.25 1736.35,1390.31 1737.35,1389.26 1738.35,1387.54 1739.35,1404.37 1740.34,1401.59 1741.34,1387.47 1742.34,1385.77 1743.34,1379.15 1744.33,1376.75 1745.33,1384.69 1746.33,1382.94 1747.33,1386.16 1748.32,1383.67 1749.32,1373.38 1750.32,1371.58 1751.32,1383.35 1752.31,1380.83 1753.31,1405.8 1754.31,1404.18 1755.31,1395.32 1756.3,1393.01 1757.3,1401.69 1758.3,1399.25 1759.29,1404.75 1760.29,1402.84 1761.29,1395.17 1762.29,1393.12 1763.28,1397.3 1764.28,1394.99 1765.28,1435.26 1766.28,1432.77 1767.27,1403.59 1768.27,1400.6 1769.27,1382.46 1770.27,1379.66 1771.26,1404.86 1772.26,1403.08 1773.26,1394.21 1774.26,1392.49 1775.25,1397.95 1776.25,1395.61 1777.25,1399.09 1778.25,1396.82 1779.24,1409.09 1780.24,1406.78 1781.24,1419.51 1782.24,1416.74 1783.23,1406.72 1784.23,1404.74 1785.23,1414.61 1786.23,1411.73 1787.22,1411.89 1788.22,1409.97 1789.22,1415.25 1790.22,1412.2 1791.21,1424.39 1792.21,1421.66 1793.21,1396.35 1794.21,1394.24 1795.2,1421.74 1796.2,1419.27 1797.2,1420.38 1798.2,1418.21 1799.19,1419.48 1800.19,1416.91 1801.19,1408.1 1802.19,1405.43 1803.18,1418.86 1804.18,1415.93 1805.18,1395.45 1806.18,1393.77 1807.17,1407.55 1808.17,1405.26 1809.17,1404.72 1810.17,1403.01 1811.16,1409.14 1812.16,1407.29 1813.16,1407.73 1814.16,1406.39 1815.15,1406.58 1816.15,1404.78 1817.15,1408.54 1818.15,1404.4 1819.14,1401.17 1820.14,1399.32 1821.14,1435.63 1822.14,1433.14 1823.13,1397.62 1824.13,1395.83 1825.13,1418.67 1826.13,1416.99 1827.12,1420.06 1828.12,1417.13 1829.12,1410.28 1830.11,1406.94 1831.11,1404.51 1832.11,1402.28 1833.11,1407.54 1834.1,1403.91 1835.1,1419.23 1836.1,1417.04 1837.1,1407.76 1838.09,1405.69 1839.09,1409.33 1840.09,1406.77 1841.09,1410.06 1842.08,1407.63 1843.08,1418.33 1844.08,1416.69 1845.08,1408.43 1846.07,1406.57 1847.07,1408.95 1848.07,1406.62 1849.07,1389.99 1850.06,1387.41 1851.06,1411.57 1852.06,1409.31 1853.06,1391.64 1854.05,1389.75 1855.05,1386.82 1856.05,1384.56 1857.05,1420.13 1858.04,1417.4 1859.04,1402.24 1860.04,1400.02 1861.04,1404.8 1862.03,1402.49 1863.03,1384.53 1864.03,1381.23 1865.03,1420.22 1866.02,1417.86 1867.02,1415.61 1868.02,1412.4 1869.02,1420.01 1870.01,1417.61 1871.01,1392.25 1872.01,1389.84 1873.01,1416.23 1874,1414.22 1875,1402.06 1876,1399.21 1877,1428.74 1877.99,1426.7 1878.99,1429.56 1879.99,1427.7 1880.99,1419.7 1881.98,1415.23 1882.98,1427.18 1883.98,1424.92 1884.98,1406.56 1885.97,1403.33 1886.97,1415.5 1887.97,1413.7 1888.97,1413.87 1889.96,1411.09 1890.96,1384.95 1891.96,1382.47 1892.96,1399.96 1893.95,1397.37 1894.95,1398.24 1895.95,1395.82 1896.94,1387.62 1897.94,1384.61 1898.94,1394.6 1899.94,1392.55 1900.93,1401.11 1901.93,1399.22 1902.93,1403.26 1903.93,1400.23 1904.92,1409.27 1905.92,1407.03 1906.92,1418.4 1907.92,1415.89 1908.91,1399.31 1909.91,1396.55 1910.91,1398.11 1911.91,1395.05 1912.9,1413.21 1913.9,1411.1 1914.9,1408.29 1915.9,1406.19 1916.89,1408.01 1917.89,1406.03 1918.89,1407.42 1919.89,1405.02 1920.88,1420.06 1921.88,1417.83 1922.88,1415.84 1923.88,1413.72 1924.87,1426.17 1925.87,1422.62 1926.87,1397.23 1927.87,1395.07 1928.86,1423.9 1929.86,1421.67 1930.86,1384.22 1931.86,1382.14 1932.85,1386.2 1933.85,1383.96 1934.85,1400.53 1935.85,1398.74 1936.84,1415.68 1937.84,1412.25 1938.84,1388.33 1939.84,1386.22 1940.83,1397.01 1941.83,1394.18 1942.83,1395.23 1943.83,1392.59 1944.82,1415.09 1945.82,1412.78 1946.82,1410.57 1947.82,1409.3 1948.81,1409.48 1949.81,1407.31 1950.81,1415.76 1951.81,1413.54 1952.8,1422.13 1953.8,1419.02 1954.8,1370.92 1955.8,1368.84 1956.79,1414.05 1957.79,1411.84 1958.79,1406.85 1959.79,1405 1960.78,1403.21 1961.78,1400.46 1962.78,1398.32 1963.78,1396.74 1964.77,1416.67 1965.77,1413.65 1966.77,1416.49 1967.76,1413.76 1968.76,1383.95 1969.76,1382.18 1970.76,1408.9 1971.75,1406.3 1972.75,1402.78 1973.75,1399.03 1974.75,1418.01 1975.74,1415.9 1976.74,1388.31 1977.74,1386.4 1978.74,1405.58 1979.73,1403.79 1980.73,1401.75 1981.73,1398.95 1982.73,1408.35 1983.72,1406.26 1984.72,1419.88 1985.72,1417.38 1986.72,1412.97 1987.71,1410.96 1988.71,1406.99 1989.71,1404.64 1990.71,1398.11 1991.7,1396.08 1992.7,1399.39 1993.7,1396.48 1994.7,1416.15 1995.69,1414.86 1996.69,1413.68 1997.69,1411.43 1998.69,1414.52 1999.68,1412.69 2000.68,1412 2001.68,1410.58 2002.68,1405.85 2003.67,1403.79 2004.67,1396.46 2005.67,1394.35 2006.67,1418.21 2007.66,1415.95 2008.66,1412.84 2009.66,1410.65 2010.66,1409.28 2011.65,1407.35 2012.65,1430.57 2013.65,1427.7 2014.65,1419.02 2015.64,1416.35 2016.64,1412.65 2017.64,1409.57 2018.64,1422.07 2019.63,1418.75 2020.63,1415.03 2021.63,1412.64 2022.63,1404.2 2023.62,1401.58 2024.62,1418.05 2025.62,1415.91 2026.62,1431.87 2027.61,1429.13 2028.61,1407.09 2029.61,1402.52 2030.61,1423.97 2031.6,1421.46 2032.6,1423.13 2033.6,1420.32 2034.59,1398.1 2035.59,1395.68 2036.59,1426.08 2037.59,1422.65 2038.58,1417.98 2039.58,1415.94 2040.58,1395.69 2041.58,1393.12 2042.57,1407.23 2043.57,1404.99 2044.57,1412.13 2045.57,1409.27 2046.56,1407.65 2047.56,1405.58 2048.56,1413.67 2049.56,1410.7 2050.55,1430.14 2051.55,1428.1 2052.55,1429.37 2053.55,1427.13 2054.54,1416.3 2055.54,1413.12 2056.54,1424.27 2057.54,1422.71 2058.53,1410.03 2059.53,1407.88 2060.53,1409.52 2061.53,1407.43 2062.52,1413.31 2063.52,1411.15 2064.52,1432.52 2065.52,1429.65 2066.51,1425.14 2067.51,1423.48 2068.51,1394.4 2069.51,1392.45 2070.5,1419.01 2071.5,1416.68 2072.5,1420.42 2073.5,1418.53 2074.49,1414.88 2075.49,1412.63 2076.49,1402.43 2077.49,1400.11 2078.48,1405.58 2079.48,1403.92 2080.48,1410.55 2081.48,1408.43 2082.47,1397.65 2083.47,1394.92 2084.47,1407.65 2085.47,1405.92 2086.46,1403.18 2087.46,1401.13 2088.46,1420.27 2089.46,1417.91 2090.45,1398.28 2091.45,1396.57 2092.45,1398.5 2093.45,1396.77 2094.44,1391.45 2095.44,1389.26 2096.44,1412.62 2097.44,1410.58 2098.43,1403.22 2099.43,1401.22 2100.43,1431.64 2101.43,1429.23 2102.42,1401.26 2103.42,1399.67 2104.42,1419.68 2105.41,1417.91 2106.41,1423.04 2107.41,1421.05 2108.41,1417.02 2109.4,1414.01 2110.4,1429.61 2111.4,1427.26 2112.4,1415.45 2113.39,1413.48 2114.39,1416.3 2115.39,1414.57 2116.39,1422.28 2117.38,1420.1 2118.38,1401.37 2119.38,1398.72 2120.38,1408.86 2121.37,1405.86 2122.37,1414.28 2123.37,1411.99 2124.37,1412.75 2125.36,1410.94 2126.36,1419.7 2127.36,1418.05 2128.36,1435.22 2129.35,1432.38 2130.35,1420.35 2131.35,1418.54 2132.35,1414.48 2133.34,1412.04 2134.34,1415.85 2135.34,1413.84 2136.34,1417.49 2137.33,1415.47 2138.33,1427.04 2139.33,1424.71 2140.33,1415.31 2141.32,1412.89 2142.32,1402.87 2143.32,1399.96 2144.32,1416.58 2145.31,1414.94 2146.31,1410.41 2147.31,1407.29 2148.31,1424.91 2149.3,1422.4 2150.3,1424.92 2151.3,1422.03 2152.3,1427.03 2153.29,1425.32 2154.29,1399.24 2155.29,1396.73 2156.29,1409.64 2157.28,1407.55 2158.28,1409.29 2159.28,1407.28 2160.28,1423.02 2161.27,1421.2 2162.27,1402.21 2163.27,1399.97 2164.27,1422.01 2165.26,1419.91 2166.26,1422.13 2167.26,1419.61 2168.26,1424.83 2169.25,1422.69 2170.25,1433.09 2171.25,1430.48 2172.24,1432.97 2173.24,1431.54 2174.24,1404.45 2175.24,1402.66 2176.23,1427.58 2177.23,1425.07 2178.23,1424.41 2179.23,1422.27 2180.22,1434.74 2181.22,1432.45 2182.22,1430.65 2183.22,1428.74 2184.21,1435.35 2185.21,1433.48 2186.21,1414.66 2187.21,1412.34 2188.2,1431.44 2189.2,1428.82 2190.2,1416.12 2191.2,1413.86 2192.19,1418.58 2193.19,1417.06 2194.19,1440.22 2195.19,1437.29 2196.18,1434.62 2197.18,1432.94 2198.18,1419.09 2199.18,1417.03 2200.17,1431.64 2201.17,1429.27 2202.17,1427.92 2203.17,1426.24 2204.16,1431.84 2205.16,1430.21 2206.16,1438.81 2207.16,1437.19 2208.15,1418.07 2209.15,1416.05 2210.15,1445.72 2211.15,1444.64 2212.14,1423.3 2213.14,1420.82 2214.14,1423.02 2215.14,1420.72 2216.13,1427.83 2217.13,1426.15 2218.13,1418.36 2219.13,1415.34 2220.12,1417.27 2221.12,1415.37 2222.12,1426.17 2223.12,1424.4 2224.11,1413.7 2225.11,1411.03 2226.11,1425.52 2227.11,1422.88 2228.1,1413.27 2229.1,1411.23 2230.1,1421.22 2231.1,1418.13 2232.09,1392.37 2233.09,1389.01 2234.09,1404.37 2235.09,1402.76 2236.08,1416.19 2237.08,1414.34 2238.08,1409.43 2239.07,1406.97 2240.07,1425.65 2241.07,1423.29 2242.07,1408.49 2243.06,1406.93 2244.06,1418.27 2245.06,1416.03 2246.06,1435.3 2247.05,1431.45 2248.05,1425.68 2249.05,1423.48 2250.05,1404.46 2251.04,1401.48 2252.04,1417.73 2253.04,1415.58 2254.04,1420.37 2255.03,1419.09 2256.03,1418.14 2257.03,1416.24 2258.03,1405.43 2259.02,1403.79 2260.02,1397.88 2261.02,1395.86 2262.02,1420.84 2263.01,1419.26 2264.01,1414.53 2265.01,1411.63 2266.01,1414.28 2267,1412.23 2268,1399.06 2269,1396.12 2270,1428.77 2270.99,1427.26 2271.99,1418.44 2272.99,1415.53 2273.99,1420.84 2274.98,1419.16 2275.98,1422.12 2276.98,1417.75 2277.98,1424.28 2278.97,1423.01 2279.97,1417.64 2280.97,1415.62 2281.97,1410.24 2282.96,1408.16 2283.96,1414.71 2284.96,1412.84 2285.96,1411.47 2286.95,1408.96 2287.95,1416.94 2288.95,1415.18 2289.95,1402.71 2290.94,1400.01 2291.94,1417.89 2292.94,1416.17 "/>
<path clip-path="url(#clip170)" d="M2018.52 198.898 L2282.3 198.898 L2282.3 95.2176 L2018.52 95.2176  Z" fill="#ffffff" fill-rule="evenodd" fill-opacity="1"/>
<polyline clip-path="url(#clip170)" style="stroke:#000000; stroke-linecap:round; stroke-linejoin:round; stroke-width:4; stroke-opacity:1; fill:none" points="2018.52,198.898 2282.3,198.898 2282.3,95.2176 2018.52,95.2176 2018.52,198.898 "/>
<polyline clip-path="url(#clip170)" style="stroke:#009af9; stroke-linecap:round; stroke-linejoin:round; stroke-width:4; stroke-opacity:1; fill:none" points="2042,147.058 2182.91,147.058 "/>
<path clip-path="url(#clip170)" d="M2220.23 166.745 Q2218.43 171.375 2216.71 172.787 Q2215 174.199 2212.13 174.199 L2208.73 174.199 L2208.73 170.634 L2211.23 170.634 Q2212.99 170.634 2213.96 169.8 Q2214.93 168.967 2216.11 165.865 L2216.88 163.921 L2206.39 138.412 L2210.9 138.412 L2219.01 158.689 L2227.11 138.412 L2231.62 138.412 L2220.23 166.745 Z" fill="#000000" fill-rule="nonzero" fill-opacity="1" /><path clip-path="url(#clip170)" d="M2238.91 160.402 L2246.55 160.402 L2246.55 134.037 L2238.24 135.703 L2238.24 131.444 L2246.5 129.778 L2251.18 129.778 L2251.18 160.402 L2258.82 160.402 L2258.82 164.338 L2238.91 164.338 L2238.91 160.402 Z" fill="#000000" fill-rule="nonzero" fill-opacity="1" /></svg>
