<?xml version="1.0" encoding="utf-8"?>
<svg xmlns="http://www.w3.org/2000/svg" xmlns:xlink="http://www.w3.org/1999/xlink" width="600" height="400" viewBox="0 0 2400 1600">
<defs>
  <clipPath id="clip160">
    <rect x="0" y="0" width="2400" height="1600"/>
  </clipPath>
</defs>
<path clip-path="url(#clip160)" d="M0 1600 L2400 1600 L2400 0 L0 0  Z" fill="#ffffff" fill-rule="evenodd" fill-opacity="1"/>
<defs>
  <clipPath id="clip161">
    <rect x="480" y="0" width="1681" height="1600"/>
  </clipPath>
</defs>
<path clip-path="url(#clip160)" d="M141.853 1486.45 L2352.76 1486.45 L2352.76 47.2441 L141.853 47.2441  Z" fill="#ffffff" fill-rule="evenodd" fill-opacity="1"/>
<defs>
  <clipPath id="clip162">
    <rect x="141" y="47" width="2212" height="1440"/>
  </clipPath>
</defs>
<polyline clip-path="url(#clip162)" style="stroke:#000000; stroke-linecap:round; stroke-linejoin:round; stroke-width:2; stroke-opacity:0.1; fill:none" points="204.426,1486.45 204.426,47.2441 "/>
<polyline clip-path="url(#clip162)" style="stroke:#000000; stroke-linecap:round; stroke-linejoin:round; stroke-width:2; stroke-opacity:0.1; fill:none" points="621.577,1486.45 621.577,47.2441 "/>
<polyline clip-path="url(#clip162)" style="stroke:#000000; stroke-linecap:round; stroke-linejoin:round; stroke-width:2; stroke-opacity:0.1; fill:none" points="1038.73,1486.45 1038.73,47.2441 "/>
<polyline clip-path="url(#clip162)" style="stroke:#000000; stroke-linecap:round; stroke-linejoin:round; stroke-width:2; stroke-opacity:0.1; fill:none" points="1455.88,1486.45 1455.88,47.2441 "/>
<polyline clip-path="url(#clip162)" style="stroke:#000000; stroke-linecap:round; stroke-linejoin:round; stroke-width:2; stroke-opacity:0.1; fill:none" points="1873.03,1486.45 1873.03,47.2441 "/>
<polyline clip-path="url(#clip162)" style="stroke:#000000; stroke-linecap:round; stroke-linejoin:round; stroke-width:2; stroke-opacity:0.1; fill:none" points="2290.18,1486.45 2290.18,47.2441 "/>
<polyline clip-path="url(#clip160)" style="stroke:#000000; stroke-linecap:round; stroke-linejoin:round; stroke-width:4; stroke-opacity:1; fill:none" points="141.853,1486.45 2352.76,1486.45 "/>
<polyline clip-path="url(#clip160)" style="stroke:#000000; stroke-linecap:round; stroke-linejoin:round; stroke-width:4; stroke-opacity:1; fill:none" points="204.426,1486.45 204.426,1467.55 "/>
<polyline clip-path="url(#clip160)" style="stroke:#000000; stroke-linecap:round; stroke-linejoin:round; stroke-width:4; stroke-opacity:1; fill:none" points="621.577,1486.45 621.577,1467.55 "/>
<polyline clip-path="url(#clip160)" style="stroke:#000000; stroke-linecap:round; stroke-linejoin:round; stroke-width:4; stroke-opacity:1; fill:none" points="1038.73,1486.45 1038.73,1467.55 "/>
<polyline clip-path="url(#clip160)" style="stroke:#000000; stroke-linecap:round; stroke-linejoin:round; stroke-width:4; stroke-opacity:1; fill:none" points="1455.88,1486.45 1455.88,1467.55 "/>
<polyline clip-path="url(#clip160)" style="stroke:#000000; stroke-linecap:round; stroke-linejoin:round; stroke-width:4; stroke-opacity:1; fill:none" points="1873.03,1486.45 1873.03,1467.55 "/>
<polyline clip-path="url(#clip160)" style="stroke:#000000; stroke-linecap:round; stroke-linejoin:round; stroke-width:4; stroke-opacity:1; fill:none" points="2290.18,1486.45 2290.18,1467.55 "/>
<path clip-path="url(#clip160)" d="M204.426 1517.37 Q200.815 1517.37 198.986 1520.93 Q197.18 1524.47 197.18 1531.6 Q197.18 1538.71 198.986 1542.27 Q200.815 1545.82 204.426 1545.82 Q208.06 1545.82 209.865 1542.27 Q211.694 1538.71 211.694 1531.6 Q211.694 1524.47 209.865 1520.93 Q208.06 1517.37 204.426 1517.37 M204.426 1513.66 Q210.236 1513.66 213.291 1518.27 Q216.37 1522.85 216.37 1531.6 Q216.37 1540.33 213.291 1544.94 Q210.236 1549.52 204.426 1549.52 Q198.616 1549.52 195.537 1544.94 Q192.481 1540.33 192.481 1531.6 Q192.481 1522.85 195.537 1518.27 Q198.616 1513.66 204.426 1513.66 Z" fill="#000000" fill-rule="nonzero" fill-opacity="1" /><path clip-path="url(#clip160)" d="M581.184 1544.91 L588.823 1544.91 L588.823 1518.55 L580.513 1520.21 L580.513 1515.95 L588.776 1514.29 L593.452 1514.29 L593.452 1544.91 L601.091 1544.91 L601.091 1548.85 L581.184 1548.85 L581.184 1544.91 Z" fill="#000000" fill-rule="nonzero" fill-opacity="1" /><path clip-path="url(#clip160)" d="M620.536 1517.37 Q616.924 1517.37 615.096 1520.93 Q613.29 1524.47 613.29 1531.6 Q613.29 1538.71 615.096 1542.27 Q616.924 1545.82 620.536 1545.82 Q624.17 1545.82 625.975 1542.27 Q627.804 1538.71 627.804 1531.6 Q627.804 1524.47 625.975 1520.93 Q624.17 1517.37 620.536 1517.37 M620.536 1513.66 Q626.346 1513.66 629.401 1518.27 Q632.48 1522.85 632.48 1531.6 Q632.48 1540.33 629.401 1544.94 Q626.346 1549.52 620.536 1549.52 Q614.725 1549.52 611.647 1544.94 Q608.591 1540.33 608.591 1531.6 Q608.591 1522.85 611.647 1518.27 Q614.725 1513.66 620.536 1513.66 Z" fill="#000000" fill-rule="nonzero" fill-opacity="1" /><path clip-path="url(#clip160)" d="M650.697 1517.37 Q647.086 1517.37 645.258 1520.93 Q643.452 1524.47 643.452 1531.6 Q643.452 1538.71 645.258 1542.27 Q647.086 1545.82 650.697 1545.82 Q654.332 1545.82 656.137 1542.27 Q657.966 1538.71 657.966 1531.6 Q657.966 1524.47 656.137 1520.93 Q654.332 1517.37 650.697 1517.37 M650.697 1513.66 Q656.508 1513.66 659.563 1518.27 Q662.642 1522.85 662.642 1531.6 Q662.642 1540.33 659.563 1544.94 Q656.508 1549.52 650.697 1549.52 Q644.887 1549.52 641.809 1544.94 Q638.753 1540.33 638.753 1531.6 Q638.753 1522.85 641.809 1518.27 Q644.887 1513.66 650.697 1513.66 Z" fill="#000000" fill-rule="nonzero" fill-opacity="1" /><path clip-path="url(#clip160)" d="M1002.42 1544.91 L1018.74 1544.91 L1018.74 1548.85 L996.796 1548.85 L996.796 1544.91 Q999.458 1542.16 1004.04 1537.53 Q1008.65 1532.88 1009.83 1531.53 Q1012.07 1529.01 1012.95 1527.27 Q1013.86 1525.51 1013.86 1523.82 Q1013.86 1521.07 1011.91 1519.33 Q1009.99 1517.6 1006.89 1517.6 Q1004.69 1517.6 1002.24 1518.36 Q999.805 1519.13 997.028 1520.68 L997.028 1515.95 Q999.852 1514.82 1002.31 1514.24 Q1004.76 1513.66 1006.8 1513.66 Q1012.17 1513.66 1015.36 1516.35 Q1018.56 1519.03 1018.56 1523.52 Q1018.56 1525.65 1017.74 1527.57 Q1016.96 1529.47 1014.85 1532.07 Q1014.27 1532.74 1011.17 1535.95 Q1008.07 1539.15 1002.42 1544.91 Z" fill="#000000" fill-rule="nonzero" fill-opacity="1" /><path clip-path="url(#clip160)" d="M1038.56 1517.37 Q1034.94 1517.37 1033.12 1520.93 Q1031.31 1524.47 1031.31 1531.6 Q1031.31 1538.71 1033.12 1542.27 Q1034.94 1545.82 1038.56 1545.82 Q1042.19 1545.82 1043.99 1542.27 Q1045.82 1538.71 1045.82 1531.6 Q1045.82 1524.47 1043.99 1520.93 Q1042.19 1517.37 1038.56 1517.37 M1038.56 1513.66 Q1044.37 1513.66 1047.42 1518.27 Q1050.5 1522.85 1050.5 1531.6 Q1050.5 1540.33 1047.42 1544.94 Q1044.37 1549.52 1038.56 1549.52 Q1032.74 1549.52 1029.67 1544.94 Q1026.61 1540.33 1026.61 1531.6 Q1026.61 1522.85 1029.67 1518.27 Q1032.74 1513.66 1038.56 1513.66 Z" fill="#000000" fill-rule="nonzero" fill-opacity="1" /><path clip-path="url(#clip160)" d="M1068.72 1517.37 Q1065.11 1517.37 1063.28 1520.93 Q1061.47 1524.47 1061.47 1531.6 Q1061.47 1538.71 1063.28 1542.27 Q1065.11 1545.82 1068.72 1545.82 Q1072.35 1545.82 1074.16 1542.27 Q1075.99 1538.71 1075.99 1531.6 Q1075.99 1524.47 1074.16 1520.93 Q1072.35 1517.37 1068.72 1517.37 M1068.72 1513.66 Q1074.53 1513.66 1077.58 1518.27 Q1080.66 1522.85 1080.66 1531.6 Q1080.66 1540.33 1077.58 1544.94 Q1074.53 1549.52 1068.72 1549.52 Q1062.91 1549.52 1059.83 1544.94 Q1056.77 1540.33 1056.77 1531.6 Q1056.77 1522.85 1059.83 1518.27 Q1062.91 1513.66 1068.72 1513.66 Z" fill="#000000" fill-rule="nonzero" fill-opacity="1" /><path clip-path="url(#clip160)" d="M1429.64 1530.21 Q1433 1530.93 1434.87 1533.2 Q1436.77 1535.47 1436.77 1538.8 Q1436.77 1543.92 1433.25 1546.72 Q1429.73 1549.52 1423.25 1549.52 Q1421.08 1549.52 1418.76 1549.08 Q1416.47 1548.66 1414.02 1547.81 L1414.02 1543.29 Q1415.96 1544.43 1418.28 1545.01 Q1420.59 1545.58 1423.11 1545.58 Q1427.51 1545.58 1429.8 1543.85 Q1432.12 1542.11 1432.12 1538.8 Q1432.12 1535.75 1429.97 1534.03 Q1427.84 1532.3 1424.02 1532.3 L1419.99 1532.3 L1419.99 1528.45 L1424.2 1528.45 Q1427.65 1528.45 1429.48 1527.09 Q1431.31 1525.7 1431.31 1523.11 Q1431.31 1520.45 1429.41 1519.03 Q1427.54 1517.6 1424.02 1517.6 Q1422.1 1517.6 1419.9 1518.01 Q1417.7 1518.43 1415.06 1519.31 L1415.06 1515.14 Q1417.72 1514.4 1420.04 1514.03 Q1422.37 1513.66 1424.43 1513.66 Q1429.76 1513.66 1432.86 1516.09 Q1435.96 1518.5 1435.96 1522.62 Q1435.96 1525.49 1434.32 1527.48 Q1432.67 1529.45 1429.64 1530.21 Z" fill="#000000" fill-rule="nonzero" fill-opacity="1" /><path clip-path="url(#clip160)" d="M1455.64 1517.37 Q1452.03 1517.37 1450.2 1520.93 Q1448.39 1524.47 1448.39 1531.6 Q1448.39 1538.71 1450.2 1542.27 Q1452.03 1545.82 1455.64 1545.82 Q1459.27 1545.82 1461.08 1542.27 Q1462.91 1538.71 1462.91 1531.6 Q1462.91 1524.47 1461.08 1520.93 Q1459.27 1517.37 1455.64 1517.37 M1455.64 1513.66 Q1461.45 1513.66 1464.5 1518.27 Q1467.58 1522.85 1467.58 1531.6 Q1467.58 1540.33 1464.5 1544.94 Q1461.45 1549.52 1455.64 1549.52 Q1449.83 1549.52 1446.75 1544.94 Q1443.69 1540.33 1443.69 1531.6 Q1443.69 1522.85 1446.75 1518.27 Q1449.83 1513.66 1455.64 1513.66 Z" fill="#000000" fill-rule="nonzero" fill-opacity="1" /><path clip-path="url(#clip160)" d="M1485.8 1517.37 Q1482.19 1517.37 1480.36 1520.93 Q1478.55 1524.47 1478.55 1531.6 Q1478.55 1538.71 1480.36 1542.27 Q1482.19 1545.82 1485.8 1545.82 Q1489.43 1545.82 1491.24 1542.27 Q1493.07 1538.71 1493.07 1531.6 Q1493.07 1524.47 1491.24 1520.93 Q1489.43 1517.37 1485.8 1517.37 M1485.8 1513.66 Q1491.61 1513.66 1494.66 1518.27 Q1497.74 1522.85 1497.74 1531.6 Q1497.74 1540.33 1494.66 1544.94 Q1491.61 1549.52 1485.8 1549.52 Q1479.99 1549.52 1476.91 1544.94 Q1473.85 1540.33 1473.85 1531.6 Q1473.85 1522.85 1476.91 1518.27 Q1479.99 1513.66 1485.8 1513.66 Z" fill="#000000" fill-rule="nonzero" fill-opacity="1" /><path clip-path="url(#clip160)" d="M1846.12 1518.36 L1834.32 1536.81 L1846.12 1536.81 L1846.12 1518.36 M1844.9 1514.29 L1850.77 1514.29 L1850.77 1536.81 L1855.71 1536.81 L1855.71 1540.7 L1850.77 1540.7 L1850.77 1548.85 L1846.12 1548.85 L1846.12 1540.7 L1830.52 1540.7 L1830.52 1536.19 L1844.9 1514.29 Z" fill="#000000" fill-rule="nonzero" fill-opacity="1" /><path clip-path="url(#clip160)" d="M1873.44 1517.37 Q1869.83 1517.37 1868 1520.93 Q1866.19 1524.47 1866.19 1531.6 Q1866.19 1538.71 1868 1542.27 Q1869.83 1545.82 1873.44 1545.82 Q1877.07 1545.82 1878.88 1542.27 Q1880.71 1538.71 1880.71 1531.6 Q1880.71 1524.47 1878.88 1520.93 Q1877.07 1517.37 1873.44 1517.37 M1873.44 1513.66 Q1879.25 1513.66 1882.3 1518.27 Q1885.38 1522.85 1885.38 1531.6 Q1885.38 1540.33 1882.3 1544.94 Q1879.25 1549.52 1873.44 1549.52 Q1867.63 1549.52 1864.55 1544.94 Q1861.49 1540.33 1861.49 1531.6 Q1861.49 1522.85 1864.55 1518.27 Q1867.63 1513.66 1873.44 1513.66 Z" fill="#000000" fill-rule="nonzero" fill-opacity="1" /><path clip-path="url(#clip160)" d="M1903.6 1517.37 Q1899.99 1517.37 1898.16 1520.93 Q1896.35 1524.47 1896.35 1531.6 Q1896.35 1538.71 1898.16 1542.27 Q1899.99 1545.82 1903.6 1545.82 Q1907.23 1545.82 1909.04 1542.27 Q1910.87 1538.71 1910.87 1531.6 Q1910.87 1524.47 1909.04 1520.93 Q1907.23 1517.37 1903.6 1517.37 M1903.6 1513.66 Q1909.41 1513.66 1912.46 1518.27 Q1915.54 1522.85 1915.54 1531.6 Q1915.54 1540.33 1912.46 1544.94 Q1909.41 1549.52 1903.6 1549.52 Q1897.79 1549.52 1894.71 1544.94 Q1891.65 1540.33 1891.65 1531.6 Q1891.65 1522.85 1894.71 1518.27 Q1897.79 1513.66 1903.6 1513.66 Z" fill="#000000" fill-rule="nonzero" fill-opacity="1" /><path clip-path="url(#clip160)" d="M2249.8 1514.29 L2268.16 1514.29 L2268.16 1518.22 L2254.08 1518.22 L2254.08 1526.7 Q2255.1 1526.35 2256.12 1526.19 Q2257.14 1526 2258.16 1526 Q2263.94 1526 2267.32 1529.17 Q2270.7 1532.34 2270.7 1537.76 Q2270.7 1543.34 2267.23 1546.44 Q2263.76 1549.52 2257.44 1549.52 Q2255.26 1549.52 2253 1549.15 Q2250.75 1548.78 2248.34 1548.04 L2248.34 1543.34 Q2250.43 1544.47 2252.65 1545.03 Q2254.87 1545.58 2257.35 1545.58 Q2261.35 1545.58 2263.69 1543.48 Q2266.03 1541.37 2266.03 1537.76 Q2266.03 1534.15 2263.69 1532.04 Q2261.35 1529.94 2257.35 1529.94 Q2255.47 1529.94 2253.6 1530.35 Q2251.75 1530.77 2249.8 1531.65 L2249.8 1514.29 Z" fill="#000000" fill-rule="nonzero" fill-opacity="1" /><path clip-path="url(#clip160)" d="M2289.92 1517.37 Q2286.31 1517.37 2284.48 1520.93 Q2282.67 1524.47 2282.67 1531.6 Q2282.67 1538.71 2284.48 1542.27 Q2286.31 1545.82 2289.92 1545.82 Q2293.55 1545.82 2295.36 1542.27 Q2297.19 1538.71 2297.19 1531.6 Q2297.19 1524.47 2295.36 1520.93 Q2293.55 1517.37 2289.92 1517.37 M2289.92 1513.66 Q2295.73 1513.66 2298.78 1518.27 Q2301.86 1522.85 2301.86 1531.6 Q2301.86 1540.33 2298.78 1544.94 Q2295.73 1549.52 2289.92 1549.52 Q2284.11 1549.52 2281.03 1544.94 Q2277.97 1540.33 2277.97 1531.6 Q2277.97 1522.85 2281.03 1518.27 Q2284.11 1513.66 2289.92 1513.66 Z" fill="#000000" fill-rule="nonzero" fill-opacity="1" /><path clip-path="url(#clip160)" d="M2320.08 1517.37 Q2316.47 1517.37 2314.64 1520.93 Q2312.83 1524.47 2312.83 1531.6 Q2312.83 1538.71 2314.64 1542.27 Q2316.47 1545.82 2320.08 1545.82 Q2323.71 1545.82 2325.52 1542.27 Q2327.35 1538.71 2327.35 1531.6 Q2327.35 1524.47 2325.52 1520.93 Q2323.71 1517.37 2320.08 1517.37 M2320.08 1513.66 Q2325.89 1513.66 2328.94 1518.27 Q2332.02 1522.85 2332.02 1531.6 Q2332.02 1540.33 2328.94 1544.94 Q2325.89 1549.52 2320.08 1549.52 Q2314.27 1549.52 2311.19 1544.94 Q2308.13 1540.33 2308.13 1531.6 Q2308.13 1522.85 2311.19 1518.27 Q2314.27 1513.66 2320.08 1513.66 Z" fill="#000000" fill-rule="nonzero" fill-opacity="1" /><polyline clip-path="url(#clip162)" style="stroke:#000000; stroke-linecap:round; stroke-linejoin:round; stroke-width:2; stroke-opacity:0.1; fill:none" points="141.853,1288.4 2352.76,1288.4 "/>
<polyline clip-path="url(#clip162)" style="stroke:#000000; stroke-linecap:round; stroke-linejoin:round; stroke-width:2; stroke-opacity:0.1; fill:none" points="141.853,1042.07 2352.76,1042.07 "/>
<polyline clip-path="url(#clip162)" style="stroke:#000000; stroke-linecap:round; stroke-linejoin:round; stroke-width:2; stroke-opacity:0.1; fill:none" points="141.853,795.743 2352.76,795.743 "/>
<polyline clip-path="url(#clip162)" style="stroke:#000000; stroke-linecap:round; stroke-linejoin:round; stroke-width:2; stroke-opacity:0.1; fill:none" points="141.853,549.416 2352.76,549.416 "/>
<polyline clip-path="url(#clip162)" style="stroke:#000000; stroke-linecap:round; stroke-linejoin:round; stroke-width:2; stroke-opacity:0.1; fill:none" points="141.853,303.088 2352.76,303.088 "/>
<polyline clip-path="url(#clip162)" style="stroke:#000000; stroke-linecap:round; stroke-linejoin:round; stroke-width:2; stroke-opacity:0.1; fill:none" points="141.853,56.7606 2352.76,56.7606 "/>
<polyline clip-path="url(#clip160)" style="stroke:#000000; stroke-linecap:round; stroke-linejoin:round; stroke-width:4; stroke-opacity:1; fill:none" points="141.853,1486.45 141.853,47.2441 "/>
<polyline clip-path="url(#clip160)" style="stroke:#000000; stroke-linecap:round; stroke-linejoin:round; stroke-width:4; stroke-opacity:1; fill:none" points="141.853,1288.4 160.751,1288.4 "/>
<polyline clip-path="url(#clip160)" style="stroke:#000000; stroke-linecap:round; stroke-linejoin:round; stroke-width:4; stroke-opacity:1; fill:none" points="141.853,1042.07 160.751,1042.07 "/>
<polyline clip-path="url(#clip160)" style="stroke:#000000; stroke-linecap:round; stroke-linejoin:round; stroke-width:4; stroke-opacity:1; fill:none" points="141.853,795.743 160.751,795.743 "/>
<polyline clip-path="url(#clip160)" style="stroke:#000000; stroke-linecap:round; stroke-linejoin:round; stroke-width:4; stroke-opacity:1; fill:none" points="141.853,549.416 160.751,549.416 "/>
<polyline clip-path="url(#clip160)" style="stroke:#000000; stroke-linecap:round; stroke-linejoin:round; stroke-width:4; stroke-opacity:1; fill:none" points="141.853,303.088 160.751,303.088 "/>
<polyline clip-path="url(#clip160)" style="stroke:#000000; stroke-linecap:round; stroke-linejoin:round; stroke-width:4; stroke-opacity:1; fill:none" points="141.853,56.7606 160.751,56.7606 "/>
<path clip-path="url(#clip160)" d="M54.5569 1301.74 L62.1958 1301.74 L62.1958 1275.38 L53.8856 1277.04 L53.8856 1272.79 L62.1495 1271.12 L66.8254 1271.12 L66.8254 1301.74 L74.4642 1301.74 L74.4642 1305.68 L54.5569 1305.68 L54.5569 1301.74 Z" fill="#000000" fill-rule="nonzero" fill-opacity="1" /><path clip-path="url(#clip160)" d="M93.9086 1274.2 Q90.2975 1274.2 88.4688 1277.76 Q86.6632 1281.3 86.6632 1288.43 Q86.6632 1295.54 88.4688 1299.1 Q90.2975 1302.65 93.9086 1302.65 Q97.5428 1302.65 99.3483 1299.1 Q101.177 1295.54 101.177 1288.43 Q101.177 1281.3 99.3483 1277.76 Q97.5428 1274.2 93.9086 1274.2 M93.9086 1270.49 Q99.7187 1270.49 102.774 1275.1 Q105.853 1279.68 105.853 1288.43 Q105.853 1297.16 102.774 1301.77 Q99.7187 1306.35 93.9086 1306.35 Q88.0984 1306.35 85.0197 1301.77 Q81.9642 1297.16 81.9642 1288.43 Q81.9642 1279.68 85.0197 1275.1 Q88.0984 1270.49 93.9086 1270.49 Z" fill="#000000" fill-rule="nonzero" fill-opacity="1" /><path clip-path="url(#clip160)" d="M57.7745 1055.42 L74.0939 1055.42 L74.0939 1059.35 L52.1495 1059.35 L52.1495 1055.42 Q54.8115 1052.66 59.3949 1048.03 Q64.0013 1043.38 65.1819 1042.04 Q67.4272 1039.51 68.3068 1037.78 Q69.2096 1036.02 69.2096 1034.33 Q69.2096 1031.57 67.2652 1029.84 Q65.3439 1028.1 62.2421 1028.1 Q60.043 1028.1 57.5893 1028.87 Q55.1588 1029.63 52.381 1031.18 L52.381 1026.46 Q55.2051 1025.32 57.6588 1024.74 Q60.1124 1024.17 62.1495 1024.17 Q67.5198 1024.17 70.7142 1026.85 Q73.9087 1029.54 73.9087 1034.03 Q73.9087 1036.16 73.0985 1038.08 Q72.3115 1039.98 70.205 1042.57 Q69.6263 1043.24 66.5245 1046.46 Q63.4226 1049.65 57.7745 1055.42 Z" fill="#000000" fill-rule="nonzero" fill-opacity="1" /><path clip-path="url(#clip160)" d="M93.9086 1027.87 Q90.2975 1027.87 88.4688 1031.43 Q86.6632 1034.98 86.6632 1042.11 Q86.6632 1049.21 88.4688 1052.78 Q90.2975 1056.32 93.9086 1056.32 Q97.5428 1056.32 99.3483 1052.78 Q101.177 1049.21 101.177 1042.11 Q101.177 1034.98 99.3483 1031.43 Q97.5428 1027.87 93.9086 1027.87 M93.9086 1024.17 Q99.7187 1024.17 102.774 1028.77 Q105.853 1033.36 105.853 1042.11 Q105.853 1050.83 102.774 1055.44 Q99.7187 1060.02 93.9086 1060.02 Q88.0984 1060.02 85.0197 1055.44 Q81.9642 1050.83 81.9642 1042.11 Q81.9642 1033.36 85.0197 1028.77 Q88.0984 1024.17 93.9086 1024.17 Z" fill="#000000" fill-rule="nonzero" fill-opacity="1" /><path clip-path="url(#clip160)" d="M67.9133 794.389 Q71.2698 795.107 73.1448 797.375 Q75.0429 799.644 75.0429 802.977 Q75.0429 808.093 71.5244 810.894 Q68.0059 813.695 61.5245 813.695 Q59.3486 813.695 57.0338 813.255 Q54.7421 812.838 52.2884 811.982 L52.2884 807.468 Q54.2328 808.602 56.5477 809.181 Q58.8625 809.76 61.3856 809.76 Q65.7837 809.76 68.0754 808.023 Q70.3902 806.287 70.3902 802.977 Q70.3902 799.922 68.2374 798.209 Q66.1078 796.473 62.2884 796.473 L58.2606 796.473 L58.2606 792.63 L62.4735 792.63 Q65.9226 792.63 67.7513 791.264 Q69.58 789.875 69.58 787.283 Q69.58 784.621 67.6819 783.209 Q65.8069 781.774 62.2884 781.774 Q60.3671 781.774 58.168 782.19 Q55.969 782.607 53.3301 783.487 L53.3301 779.32 Q55.9921 778.579 58.3069 778.209 Q60.6449 777.838 62.705 777.838 Q68.0291 777.838 71.1309 780.269 Q74.2327 782.676 74.2327 786.797 Q74.2327 789.667 72.5892 791.658 Q70.9457 793.625 67.9133 794.389 Z" fill="#000000" fill-rule="nonzero" fill-opacity="1" /><path clip-path="url(#clip160)" d="M93.9086 781.542 Q90.2975 781.542 88.4688 785.107 Q86.6632 788.649 86.6632 795.778 Q86.6632 802.885 88.4688 806.449 Q90.2975 809.991 93.9086 809.991 Q97.5428 809.991 99.3483 806.449 Q101.177 802.885 101.177 795.778 Q101.177 788.649 99.3483 785.107 Q97.5428 781.542 93.9086 781.542 M93.9086 777.838 Q99.7187 777.838 102.774 782.445 Q105.853 787.028 105.853 795.778 Q105.853 804.505 102.774 809.111 Q99.7187 813.695 93.9086 813.695 Q88.0984 813.695 85.0197 809.111 Q81.9642 804.505 81.9642 795.778 Q81.9642 787.028 85.0197 782.445 Q88.0984 777.838 93.9086 777.838 Z" fill="#000000" fill-rule="nonzero" fill-opacity="1" /><path clip-path="url(#clip160)" d="M66.5939 536.21 L54.7884 554.659 L66.5939 554.659 L66.5939 536.21 M65.367 532.136 L71.2466 532.136 L71.2466 554.659 L76.1772 554.659 L76.1772 558.548 L71.2466 558.548 L71.2466 566.696 L66.5939 566.696 L66.5939 558.548 L50.9921 558.548 L50.9921 554.034 L65.367 532.136 Z" fill="#000000" fill-rule="nonzero" fill-opacity="1" /><path clip-path="url(#clip160)" d="M93.9086 535.215 Q90.2975 535.215 88.4688 538.779 Q86.6632 542.321 86.6632 549.451 Q86.6632 556.557 88.4688 560.122 Q90.2975 563.663 93.9086 563.663 Q97.5428 563.663 99.3483 560.122 Q101.177 556.557 101.177 549.451 Q101.177 542.321 99.3483 538.779 Q97.5428 535.215 93.9086 535.215 M93.9086 531.511 Q99.7187 531.511 102.774 536.117 Q105.853 540.701 105.853 549.451 Q105.853 558.177 102.774 562.784 Q99.7187 567.367 93.9086 567.367 Q88.0984 567.367 85.0197 562.784 Q81.9642 558.177 81.9642 549.451 Q81.9642 540.701 85.0197 536.117 Q88.0984 531.511 93.9086 531.511 Z" fill="#000000" fill-rule="nonzero" fill-opacity="1" /><path clip-path="url(#clip160)" d="M53.793 285.808 L72.1494 285.808 L72.1494 289.743 L58.0754 289.743 L58.0754 298.216 Q59.0939 297.868 60.1124 297.706 Q61.131 297.521 62.1495 297.521 Q67.9365 297.521 71.3161 300.692 Q74.6957 303.864 74.6957 309.28 Q74.6957 314.859 71.2235 317.961 Q67.7513 321.04 61.4319 321.04 Q59.256 321.04 56.9875 320.669 Q54.7421 320.299 52.3347 319.558 L52.3347 314.859 Q54.418 315.993 56.6402 316.549 Q58.8625 317.104 61.3393 317.104 Q65.3439 317.104 67.6819 314.998 Q70.0198 312.891 70.0198 309.28 Q70.0198 305.669 67.6819 303.563 Q65.3439 301.456 61.3393 301.456 Q59.4643 301.456 57.5893 301.873 Q55.7375 302.29 53.793 303.169 L53.793 285.808 Z" fill="#000000" fill-rule="nonzero" fill-opacity="1" /><path clip-path="url(#clip160)" d="M93.9086 288.887 Q90.2975 288.887 88.4688 292.452 Q86.6632 295.993 86.6632 303.123 Q86.6632 310.229 88.4688 313.794 Q90.2975 317.336 93.9086 317.336 Q97.5428 317.336 99.3483 313.794 Q101.177 310.229 101.177 303.123 Q101.177 295.993 99.3483 292.452 Q97.5428 288.887 93.9086 288.887 M93.9086 285.183 Q99.7187 285.183 102.774 289.79 Q105.853 294.373 105.853 303.123 Q105.853 311.85 102.774 316.456 Q99.7187 321.04 93.9086 321.04 Q88.0984 321.04 85.0197 316.456 Q81.9642 311.85 81.9642 303.123 Q81.9642 294.373 85.0197 289.79 Q88.0984 285.183 93.9086 285.183 Z" fill="#000000" fill-rule="nonzero" fill-opacity="1" /><path clip-path="url(#clip160)" d="M64.3254 54.8972 Q61.1773 54.8972 59.3254 57.05 Q57.4967 59.2028 57.4967 62.9527 Q57.4967 66.6796 59.3254 68.8555 Q61.1773 71.0083 64.3254 71.0083 Q67.4735 71.0083 69.3022 68.8555 Q71.1541 66.6796 71.1541 62.9527 Q71.1541 59.2028 69.3022 57.05 Q67.4735 54.8972 64.3254 54.8972 M73.6077 40.2445 L73.6077 44.5038 Q71.8485 43.6704 70.0429 43.2306 Q68.2606 42.7908 66.5013 42.7908 Q61.8717 42.7908 59.418 45.9158 Q56.9875 49.0408 56.6402 55.3602 Q58.006 53.3463 60.0662 52.2815 Q62.1263 51.1935 64.6032 51.1935 Q69.8115 51.1935 72.8207 54.3648 Q75.8531 57.513 75.8531 62.9527 Q75.8531 68.2768 72.705 71.4944 Q69.5568 74.7119 64.3254 74.7119 Q58.33 74.7119 55.1588 70.1286 Q51.9875 65.5222 51.9875 56.7954 Q51.9875 48.601 55.8764 43.7399 Q59.7652 38.8556 66.3161 38.8556 Q68.0754 38.8556 69.8578 39.2029 Q71.6633 39.5501 73.6077 40.2445 Z" fill="#000000" fill-rule="nonzero" fill-opacity="1" /><path clip-path="url(#clip160)" d="M93.9086 42.5593 Q90.2975 42.5593 88.4688 46.1241 Q86.6632 49.6658 86.6632 56.7954 Q86.6632 63.9018 88.4688 67.4666 Q90.2975 71.0083 93.9086 71.0083 Q97.5428 71.0083 99.3483 67.4666 Q101.177 63.9018 101.177 56.7954 Q101.177 49.6658 99.3483 46.1241 Q97.5428 42.5593 93.9086 42.5593 M93.9086 38.8556 Q99.7187 38.8556 102.774 43.4621 Q105.853 48.0454 105.853 56.7954 Q105.853 65.5222 102.774 70.1286 Q99.7187 74.7119 93.9086 74.7119 Q88.0984 74.7119 85.0197 70.1286 Q81.9642 65.5222 81.9642 56.7954 Q81.9642 48.0454 85.0197 43.4621 Q88.0984 38.8556 93.9086 38.8556 Z" fill="#000000" fill-rule="nonzero" fill-opacity="1" /><polyline clip-path="url(#clip162)" style="stroke:#009af9; stroke-linecap:round; stroke-linejoin:round; stroke-width:4; stroke-opacity:1; fill:none" points="204.426,1414.01 208.597,1415.1 212.769,1444.56 216.94,1445.46 221.112,1444.93 225.283,1445.72 229.455,1353.6 233.626,1355.41 237.798,1335.12 241.969,1337.26 246.141,1408.39 250.312,1409.27 254.484,1231.62 258.655,1234.63 262.827,1312.06 266.998,1314.08 271.17,1414.81 275.341,1415.96 279.513,1276.35 283.684,1279.17 287.856,1197.05 292.027,1200.49 296.199,1256.34 300.371,1258.87 304.542,1440.64 308.714,1441.15 312.885,1252.92 317.057,1255.34 321.228,1329.76 325.4,1331.48 329.571,1293.42 333.743,1295.85 337.914,1316.15 342.086,1317.91 346.257,1321.92 350.429,1323.17 354.6,1328.47 358.772,1330 362.943,1326.83 367.115,1327.99 371.286,1049.15 375.458,1053.96 379.629,1320.84 383.801,1322.21 387.972,1292.62 392.144,1294.32 396.315,1248.04 400.487,1249.92 404.658,1295.47 408.83,1296.58 413.001,1262.21 417.173,1263.79 421.344,1290.69 425.516,1292.41 429.687,1263.83 433.859,1265.16 438.031,1281.31 442.202,1283.41 446.374,1282.73 450.545,1283.73 454.717,1098.49 458.888,1103.5 463.06,1216.5 467.231,1218.65 471.403,1252.59 475.574,1254.52 479.746,1304.21 483.917,1305.4 488.089,1146.48 492.26,1150.9 496.432,1124.03 500.603,1127.13 504.775,1123.63 508.946,1126.44 513.118,1228.6 517.289,1229.93 521.461,1183.91 525.632,1185.52 529.804,1279.11 533.975,1280.69 538.147,1020.04 542.318,1022.82 546.49,1186.81 550.661,1189.61 554.833,1202.34 559.004,1203.99 563.176,1159.47 567.347,1161.98 571.519,970.202 575.691,975.937 579.862,1111.5 584.034,1114.33 588.205,1069.61 592.377,1073.02 596.548,1243.96 600.72,1245.26 604.891,1001.59 609.063,1007.12 613.234,1020.56 617.406,1023.46 621.577,1154.73 625.749,1156.23 629.92,1049.45 634.092,1053.22 638.263,1206.2 642.435,1207.57 646.606,841.283 650.778,845.278 654.949,1154.53 659.121,1156.43 663.292,1013.22 667.464,1016.51 671.635,1196.6 675.807,1197.45 679.978,728.301 684.15,736.485 688.321,1157.27 692.493,1159.4 696.664,1064.06 700.836,1065.87 705.007,999.714 709.179,1002.64 713.351,1013.25 717.522,1018.09 721.694,1033.03 725.865,1035.46 730.037,1049.49 734.208,1050.94 738.38,951.582 742.551,955.844 746.723,1033.59 750.894,1036.84 755.066,1135.42 759.237,1136.89 763.409,949.216 767.58,952.83 771.752,1029.01 775.923,1031.22 780.095,1098.82 784.266,1100.23 788.438,1053.66 792.609,1056.23 796.781,1011.57 800.952,1015.96 805.124,1040.64 809.295,1042.45 813.467,958.337 817.638,960.983 821.81,904.56 825.981,909.584 830.153,834.119 834.324,841.235 838.496,1012.5 842.667,1015.49 846.839,1008.4 851.01,1011.1 855.182,803.904 859.354,807.56 863.525,1085.86 867.697,1087.17 871.868,1090.34 876.04,1092.49 880.211,848.861 884.383,854.059 888.554,904.739 892.726,909.207 896.897,779.568 901.069,784.937 905.24,998.618 909.412,1001.5 913.583,1060.06 917.755,1062.48 921.926,896.181 926.098,899.325 930.269,882.13 934.441,887.173 938.612,999.462 942.784,1001.15 946.955,989.802 951.127,992.75 955.298,913.964 959.47,916.415 963.641,672.86 967.813,677.536 971.984,768.309 976.156,776.225 980.327,854.666 984.499,858.306 988.67,954.99 992.842,957.674 997.014,964.505 1001.19,968.221 1005.36,888.08 1009.53,893.953 1013.7,1003.01 1017.87,1005.23 1022.04,967.897 1026.21,971.059 1030.39,878.461 1034.56,884.402 1038.73,806.593 1042.9,810.277 1047.07,973.752 1051.24,978.392 1055.41,1214.59 1059.59,1215.47 1063.76,665.587 1067.93,672.014 1072.1,1078.48 1076.27,1080.14 1080.44,567.678 1084.62,573.666 1088.79,597.387 1092.96,605.066 1097.13,705.684 1101.3,709.696 1105.47,780.702 1109.64,785.177 1113.82,808.957 1117.99,812.694 1122.16,686.495 1126.33,690.764 1130.5,798.739 1134.67,804.177 1138.85,794.257 1143.02,797.631 1147.19,859.481 1151.36,865.805 1155.53,959.993 1159.7,961.879 1163.87,1012.03 1168.05,1014.03 1172.22,972.923 1176.39,976.856 1180.56,666.447 1184.73,669.804 1188.9,697.167 1193.07,700.944 1197.25,765.82 1201.42,770.373 1205.59,908.873 1209.76,911.886 1213.93,824.444 1218.1,826.945 1222.28,551.765 1226.45,561.438 1230.62,732.7 1234.79,736.09 1238.96,853.54 1243.13,856.781 1247.3,673.079 1251.48,678.011 1255.65,889.151 1259.82,892.672 1263.99,673.939 1268.16,678.832 1272.33,603.362 1276.51,607.99 1280.68,921.726 1284.85,927.342 1289.02,864.332 1293.19,866.267 1297.36,484.231 1301.53,490.635 1305.71,672.49 1309.88,680.862 1314.05,513.432 1318.22,522.171 1322.39,687.347 1326.56,692.758 1330.73,601.834 1334.91,605.328 1339.08,926.272 1343.25,929.929 1347.42,572.856 1351.59,580.456 1355.76,740.297 1359.94,746.356 1364.11,748.217 1368.28,752.882 1372.45,590.637 1376.62,594.005 1380.79,813.674 1384.96,819.619 1389.14,601.374 1393.31,610.354 1397.48,883.787 1401.65,886.583 1405.82,539.284 1409.99,544.091 1414.17,638.722 1418.34,641.645 1422.51,639.829 1426.68,645.085 1430.85,886.396 1435.02,888.613 1439.19,685.091 1443.37,690.495 1447.54,709.266 1451.71,713.559 1455.88,606.571 1460.05,619.161 1464.22,590.223 1468.39,593.904 1472.57,777.887 1476.74,782.022 1480.91,856.041 1485.08,858.69 1489.25,588.174 1493.42,591.752 1497.6,602.543 1501.77,607.962 1505.94,631.76 1510.11,635.812 1514.28,603.102 1518.45,611.1 1522.62,532.672 1526.8,540.436 1530.97,817.374 1535.14,820.564 1539.31,750.969 1543.48,754.939 1547.65,656.778 1551.83,661.528 1556,735.54 1560.17,739.222 1564.34,521.189 1568.51,527.544 1572.68,543.408 1576.85,549.468 1581.03,504.004 1585.2,509.967 1589.37,762.732 1593.54,770.513 1597.71,414.975 1601.88,420.391 1606.05,725.037 1610.23,730.002 1614.4,742.371 1618.57,746.579 1622.74,590.773 1626.91,596.341 1631.08,898.54 1635.26,901.066 1639.43,400.059 1643.6,411.042 1647.77,604.146 1651.94,607.788 1656.11,463.278 1660.28,466.981 1664.46,502.209 1668.63,511.503 1672.8,579.796 1676.97,583.445 1681.14,547.481 1685.31,553.249 1689.49,761.496 1693.66,765.545 1697.83,375.661 1702,380.905 1706.17,486.406 1710.34,492.473 1714.51,860.58 1718.69,864.834 1722.86,610.901 1727.03,615.782 1731.2,607.573 1735.37,613.739 1739.54,571.166 1743.71,578.271 1747.89,854.259 1752.06,858.116 1756.23,514.38 1760.4,524.92 1764.57,622.372 1768.74,627.072 1772.92,475.612 1777.09,480.038 1781.26,501.515 1785.43,505.938 1789.6,690.384 1793.77,694.312 1797.94,604.27 1802.12,611.048 1806.29,409.159 1810.46,414.066 1814.63,704.283 1818.8,710.478 1822.97,619.131 1827.15,624.984 1831.32,771.585 1835.49,778.034 1839.66,555.204 1843.83,560.862 1848,661.664 1852.17,665.64 1856.35,693.607 1860.52,696.709 1864.69,751.081 1868.86,755.022 1873.03,777.703 1877.2,780.238 1881.37,507.686 1885.55,512.872 1889.72,645.387 1893.89,653.516 1898.06,87.9763 1902.23,96.5618 1906.4,721.176 1910.58,725.499 1914.75,514.905 1918.92,519.954 1923.09,646.513 1927.26,650.731 1931.43,444.435 1935.6,451.512 1939.78,659.68 1943.95,665.242 1948.12,519.213 1952.29,522.628 1956.46,777.691 1960.63,784.415 1964.81,635.256 1968.98,640.707 1973.15,550.505 1977.32,555.581 1981.49,416.201 1985.66,423.781 1989.83,420.648 1994.01,426.97 1998.18,442.088 2002.35,445.69 2006.52,466.297 2010.69,474.008 2014.86,546.761 2019.03,557.241 2023.21,692.527 2027.38,698.314 2031.55,533.34 2035.72,537.78 2039.89,565.745 2044.06,571.011 2048.24,368.749 2052.41,376.091 2056.58,575.8 2060.75,582.168 2064.92,504.842 2069.09,513.834 2073.26,679.467 2077.44,682.439 2081.61,683.911 2085.78,687.724 2089.95,475.405 2094.12,484.404 2098.29,509.343 2102.47,514.913 2106.64,249.437 2110.81,257.734 2114.98,159.89 2119.15,168.95 2123.32,679.866 2127.49,683.356 2131.67,585.172 2135.84,591.644 2140.01,136.677 2144.18,144.291 2148.35,503.99 2152.52,508.389 2156.69,331.208 2160.87,337.312 2165.04,550.995 2169.21,557.734 2173.38,774.418 2177.55,779.456 2181.72,562.201 2185.9,567.327 2190.07,566.783 2194.24,570.725 2198.41,597.272 2202.58,601.031 2206.75,747.308 2210.92,753.059 2215.1,599.321 2219.27,602.838 2223.44,515.94 2227.61,522.774 2231.78,573.374 2235.95,579.129 2240.12,545.652 2244.3,549.645 2248.47,386.972 2252.64,390.986 2256.81,562.846 2260.98,570.142 2265.15,475.236 2269.33,481.617 2273.5,344.115 2277.67,352.766 2281.84,522.242 2286.01,528.423 2290.18,534.042 "/>
<path clip-path="url(#clip160)" d="M215.55 198.898 L489.07 198.898 L489.07 95.2176 L215.55 95.2176  Z" fill="#ffffff" fill-rule="evenodd" fill-opacity="1"/>
<polyline clip-path="url(#clip160)" style="stroke:#000000; stroke-linecap:round; stroke-linejoin:round; stroke-width:4; stroke-opacity:1; fill:none" points="215.55,198.898 489.07,198.898 489.07,95.2176 215.55,95.2176 215.55,198.898 "/>
<polyline clip-path="url(#clip160)" style="stroke:#009af9; stroke-linecap:round; stroke-linejoin:round; stroke-width:4; stroke-opacity:1; fill:none" points="240.115,147.058 387.509,147.058 "/>
<path clip-path="url(#clip160)" d="M425.917 166.745 Q424.111 171.375 422.398 172.787 Q420.685 174.199 417.815 174.199 L414.412 174.199 L414.412 170.634 L416.912 170.634 Q418.672 170.634 419.644 169.8 Q420.616 168.967 421.797 165.865 L422.56 163.921 L412.074 138.412 L416.588 138.412 L424.69 158.689 L432.792 138.412 L437.306 138.412 L425.917 166.745 Z" fill="#000000" fill-rule="nonzero" fill-opacity="1" /><path clip-path="url(#clip160)" d="M444.597 160.402 L452.236 160.402 L452.236 134.037 L443.926 135.703 L443.926 131.444 L452.19 129.778 L456.866 129.778 L456.866 160.402 L464.505 160.402 L464.505 164.338 L444.597 164.338 L444.597 160.402 Z" fill="#000000" fill-rule="nonzero" fill-opacity="1" /></svg>
