<?xml version="1.0" encoding="utf-8"?>
<svg xmlns="http://www.w3.org/2000/svg" xmlns:xlink="http://www.w3.org/1999/xlink" width="600" height="400" viewBox="0 0 2400 1600">
<defs>
  <clipPath id="clip680">
    <rect x="0" y="0" width="2400" height="1600"/>
  </clipPath>
</defs>
<path clip-path="url(#clip680)" d="M0 1600 L2400 1600 L2400 0 L0 0  Z" fill="#ffffff" fill-rule="evenodd" fill-opacity="1"/>
<defs>
  <clipPath id="clip681">
    <rect x="480" y="0" width="1681" height="1600"/>
  </clipPath>
</defs>
<path clip-path="url(#clip680)" d="M140.696 1486.45 L2352.76 1486.45 L2352.76 47.2441 L140.696 47.2441  Z" fill="#ffffff" fill-rule="evenodd" fill-opacity="1"/>
<defs>
  <clipPath id="clip682">
    <rect x="140" y="47" width="2213" height="1440"/>
  </clipPath>
</defs>
<polyline clip-path="url(#clip682)" style="stroke:#000000; stroke-linecap:round; stroke-linejoin:round; stroke-width:2; stroke-opacity:0.1; fill:none" points="203.301,1486.45 203.301,47.2441 "/>
<polyline clip-path="url(#clip682)" style="stroke:#000000; stroke-linecap:round; stroke-linejoin:round; stroke-width:2; stroke-opacity:0.1; fill:none" points="725.013,1486.45 725.013,47.2441 "/>
<polyline clip-path="url(#clip682)" style="stroke:#000000; stroke-linecap:round; stroke-linejoin:round; stroke-width:2; stroke-opacity:0.1; fill:none" points="1246.73,1486.45 1246.73,47.2441 "/>
<polyline clip-path="url(#clip682)" style="stroke:#000000; stroke-linecap:round; stroke-linejoin:round; stroke-width:2; stroke-opacity:0.1; fill:none" points="1768.44,1486.45 1768.44,47.2441 "/>
<polyline clip-path="url(#clip682)" style="stroke:#000000; stroke-linecap:round; stroke-linejoin:round; stroke-width:2; stroke-opacity:0.1; fill:none" points="2290.15,1486.45 2290.15,47.2441 "/>
<polyline clip-path="url(#clip680)" style="stroke:#000000; stroke-linecap:round; stroke-linejoin:round; stroke-width:4; stroke-opacity:1; fill:none" points="140.696,1486.45 2352.76,1486.45 "/>
<polyline clip-path="url(#clip680)" style="stroke:#000000; stroke-linecap:round; stroke-linejoin:round; stroke-width:4; stroke-opacity:1; fill:none" points="203.301,1486.45 203.301,1467.55 "/>
<polyline clip-path="url(#clip680)" style="stroke:#000000; stroke-linecap:round; stroke-linejoin:round; stroke-width:4; stroke-opacity:1; fill:none" points="725.013,1486.45 725.013,1467.55 "/>
<polyline clip-path="url(#clip680)" style="stroke:#000000; stroke-linecap:round; stroke-linejoin:round; stroke-width:4; stroke-opacity:1; fill:none" points="1246.73,1486.45 1246.73,1467.55 "/>
<polyline clip-path="url(#clip680)" style="stroke:#000000; stroke-linecap:round; stroke-linejoin:round; stroke-width:4; stroke-opacity:1; fill:none" points="1768.44,1486.45 1768.44,1467.55 "/>
<polyline clip-path="url(#clip680)" style="stroke:#000000; stroke-linecap:round; stroke-linejoin:round; stroke-width:4; stroke-opacity:1; fill:none" points="2290.15,1486.45 2290.15,1467.55 "/>
<path clip-path="url(#clip680)" d="M203.301 1517.37 Q199.69 1517.37 197.861 1520.93 Q196.056 1524.47 196.056 1531.6 Q196.056 1538.71 197.861 1542.27 Q199.69 1545.82 203.301 1545.82 Q206.935 1545.82 208.741 1542.27 Q210.57 1538.71 210.57 1531.6 Q210.57 1524.47 208.741 1520.93 Q206.935 1517.37 203.301 1517.37 M203.301 1513.66 Q209.111 1513.66 212.167 1518.27 Q215.245 1522.85 215.245 1531.6 Q215.245 1540.33 212.167 1544.94 Q209.111 1549.52 203.301 1549.52 Q197.491 1549.52 194.412 1544.94 Q191.357 1540.33 191.357 1531.6 Q191.357 1522.85 194.412 1518.27 Q197.491 1513.66 203.301 1513.66 Z" fill="#000000" fill-rule="nonzero" fill-opacity="1" /><path clip-path="url(#clip680)" d="M684.632 1514.29 L702.988 1514.29 L702.988 1518.22 L688.914 1518.22 L688.914 1526.7 Q689.933 1526.35 690.951 1526.19 Q691.97 1526 692.988 1526 Q698.775 1526 702.155 1529.17 Q705.534 1532.34 705.534 1537.76 Q705.534 1543.34 702.062 1546.44 Q698.59 1549.52 692.27 1549.52 Q690.095 1549.52 687.826 1549.15 Q685.581 1548.78 683.173 1548.04 L683.173 1543.34 Q685.257 1544.47 687.479 1545.03 Q689.701 1545.58 692.178 1545.58 Q696.183 1545.58 698.52 1543.48 Q700.858 1541.37 700.858 1537.76 Q700.858 1534.15 698.52 1532.04 Q696.183 1529.94 692.178 1529.94 Q690.303 1529.94 688.428 1530.35 Q686.576 1530.77 684.632 1531.65 L684.632 1514.29 Z" fill="#000000" fill-rule="nonzero" fill-opacity="1" /><path clip-path="url(#clip680)" d="M724.747 1517.37 Q721.136 1517.37 719.307 1520.93 Q717.502 1524.47 717.502 1531.6 Q717.502 1538.71 719.307 1542.27 Q721.136 1545.82 724.747 1545.82 Q728.381 1545.82 730.187 1542.27 Q732.016 1538.71 732.016 1531.6 Q732.016 1524.47 730.187 1520.93 Q728.381 1517.37 724.747 1517.37 M724.747 1513.66 Q730.557 1513.66 733.613 1518.27 Q736.692 1522.85 736.692 1531.6 Q736.692 1540.33 733.613 1544.94 Q730.557 1549.52 724.747 1549.52 Q718.937 1549.52 715.858 1544.94 Q712.803 1540.33 712.803 1531.6 Q712.803 1522.85 715.858 1518.27 Q718.937 1513.66 724.747 1513.66 Z" fill="#000000" fill-rule="nonzero" fill-opacity="1" /><path clip-path="url(#clip680)" d="M754.909 1517.37 Q751.298 1517.37 749.469 1520.93 Q747.664 1524.47 747.664 1531.6 Q747.664 1538.71 749.469 1542.27 Q751.298 1545.82 754.909 1545.82 Q758.543 1545.82 760.349 1542.27 Q762.178 1538.71 762.178 1531.6 Q762.178 1524.47 760.349 1520.93 Q758.543 1517.37 754.909 1517.37 M754.909 1513.66 Q760.719 1513.66 763.775 1518.27 Q766.853 1522.85 766.853 1531.6 Q766.853 1540.33 763.775 1544.94 Q760.719 1549.52 754.909 1549.52 Q749.099 1549.52 746.02 1544.94 Q742.965 1540.33 742.965 1531.6 Q742.965 1522.85 746.02 1518.27 Q749.099 1513.66 754.909 1513.66 Z" fill="#000000" fill-rule="nonzero" fill-opacity="1" /><path clip-path="url(#clip680)" d="M1191.25 1544.91 L1198.89 1544.91 L1198.89 1518.55 L1190.58 1520.21 L1190.58 1515.95 L1198.84 1514.29 L1203.52 1514.29 L1203.52 1544.91 L1211.16 1544.91 L1211.16 1548.85 L1191.25 1548.85 L1191.25 1544.91 Z" fill="#000000" fill-rule="nonzero" fill-opacity="1" /><path clip-path="url(#clip680)" d="M1230.6 1517.37 Q1226.99 1517.37 1225.16 1520.93 Q1223.36 1524.47 1223.36 1531.6 Q1223.36 1538.71 1225.16 1542.27 Q1226.99 1545.82 1230.6 1545.82 Q1234.24 1545.82 1236.04 1542.27 Q1237.87 1538.71 1237.87 1531.6 Q1237.87 1524.47 1236.04 1520.93 Q1234.24 1517.37 1230.6 1517.37 M1230.6 1513.66 Q1236.41 1513.66 1239.47 1518.27 Q1242.55 1522.85 1242.55 1531.6 Q1242.55 1540.33 1239.47 1544.94 Q1236.41 1549.52 1230.6 1549.52 Q1224.79 1549.52 1221.71 1544.94 Q1218.66 1540.33 1218.66 1531.6 Q1218.66 1522.85 1221.71 1518.27 Q1224.79 1513.66 1230.6 1513.66 Z" fill="#000000" fill-rule="nonzero" fill-opacity="1" /><path clip-path="url(#clip680)" d="M1260.77 1517.37 Q1257.15 1517.37 1255.33 1520.93 Q1253.52 1524.47 1253.52 1531.6 Q1253.52 1538.71 1255.33 1542.27 Q1257.15 1545.82 1260.77 1545.82 Q1264.4 1545.82 1266.2 1542.27 Q1268.03 1538.71 1268.03 1531.6 Q1268.03 1524.47 1266.2 1520.93 Q1264.4 1517.37 1260.77 1517.37 M1260.77 1513.66 Q1266.58 1513.66 1269.63 1518.27 Q1272.71 1522.85 1272.71 1531.6 Q1272.71 1540.33 1269.63 1544.94 Q1266.58 1549.52 1260.77 1549.52 Q1254.95 1549.52 1251.88 1544.94 Q1248.82 1540.33 1248.82 1531.6 Q1248.82 1522.85 1251.88 1518.27 Q1254.95 1513.66 1260.77 1513.66 Z" fill="#000000" fill-rule="nonzero" fill-opacity="1" /><path clip-path="url(#clip680)" d="M1290.93 1517.37 Q1287.32 1517.37 1285.49 1520.93 Q1283.68 1524.47 1283.68 1531.6 Q1283.68 1538.71 1285.49 1542.27 Q1287.32 1545.82 1290.93 1545.82 Q1294.56 1545.82 1296.37 1542.27 Q1298.2 1538.71 1298.2 1531.6 Q1298.2 1524.47 1296.37 1520.93 Q1294.56 1517.37 1290.93 1517.37 M1290.93 1513.66 Q1296.74 1513.66 1299.79 1518.27 Q1302.87 1522.85 1302.87 1531.6 Q1302.87 1540.33 1299.79 1544.94 Q1296.74 1549.52 1290.93 1549.52 Q1285.12 1549.52 1282.04 1544.94 Q1278.98 1540.33 1278.98 1531.6 Q1278.98 1522.85 1282.04 1518.27 Q1285.12 1513.66 1290.93 1513.66 Z" fill="#000000" fill-rule="nonzero" fill-opacity="1" /><path clip-path="url(#clip680)" d="M1712.96 1544.91 L1720.6 1544.91 L1720.6 1518.55 L1712.29 1520.21 L1712.29 1515.95 L1720.56 1514.29 L1725.23 1514.29 L1725.23 1544.91 L1732.87 1544.91 L1732.87 1548.85 L1712.96 1548.85 L1712.96 1544.91 Z" fill="#000000" fill-rule="nonzero" fill-opacity="1" /><path clip-path="url(#clip680)" d="M1742.36 1514.29 L1760.72 1514.29 L1760.72 1518.22 L1746.64 1518.22 L1746.64 1526.7 Q1747.66 1526.35 1748.68 1526.19 Q1749.7 1526 1750.72 1526 Q1756.51 1526 1759.88 1529.17 Q1763.26 1532.34 1763.26 1537.76 Q1763.26 1543.34 1759.79 1546.44 Q1756.32 1549.52 1750 1549.52 Q1747.82 1549.52 1745.56 1549.15 Q1743.31 1548.78 1740.9 1548.04 L1740.9 1543.34 Q1742.99 1544.47 1745.21 1545.03 Q1747.43 1545.58 1749.91 1545.58 Q1753.91 1545.58 1756.25 1543.48 Q1758.59 1541.37 1758.59 1537.76 Q1758.59 1534.15 1756.25 1532.04 Q1753.91 1529.94 1749.91 1529.94 Q1748.03 1529.94 1746.16 1530.35 Q1744.31 1530.77 1742.36 1531.65 L1742.36 1514.29 Z" fill="#000000" fill-rule="nonzero" fill-opacity="1" /><path clip-path="url(#clip680)" d="M1782.48 1517.37 Q1778.87 1517.37 1777.04 1520.93 Q1775.23 1524.47 1775.23 1531.6 Q1775.23 1538.71 1777.04 1542.27 Q1778.87 1545.82 1782.48 1545.82 Q1786.11 1545.82 1787.92 1542.27 Q1789.75 1538.71 1789.75 1531.6 Q1789.75 1524.47 1787.92 1520.93 Q1786.11 1517.37 1782.48 1517.37 M1782.48 1513.66 Q1788.29 1513.66 1791.34 1518.27 Q1794.42 1522.85 1794.42 1531.6 Q1794.42 1540.33 1791.34 1544.94 Q1788.29 1549.52 1782.48 1549.52 Q1776.67 1549.52 1773.59 1544.94 Q1770.53 1540.33 1770.53 1531.6 Q1770.53 1522.85 1773.59 1518.27 Q1776.67 1513.66 1782.48 1513.66 Z" fill="#000000" fill-rule="nonzero" fill-opacity="1" /><path clip-path="url(#clip680)" d="M1812.64 1517.37 Q1809.03 1517.37 1807.2 1520.93 Q1805.39 1524.47 1805.39 1531.6 Q1805.39 1538.71 1807.2 1542.27 Q1809.03 1545.82 1812.64 1545.82 Q1816.27 1545.82 1818.08 1542.27 Q1819.91 1538.71 1819.91 1531.6 Q1819.91 1524.47 1818.08 1520.93 Q1816.27 1517.37 1812.64 1517.37 M1812.64 1513.66 Q1818.45 1513.66 1821.5 1518.27 Q1824.58 1522.85 1824.58 1531.6 Q1824.58 1540.33 1821.5 1544.94 Q1818.45 1549.52 1812.64 1549.52 Q1806.83 1549.52 1803.75 1544.94 Q1800.69 1540.33 1800.69 1531.6 Q1800.69 1522.85 1803.75 1518.27 Q1806.83 1513.66 1812.64 1513.66 Z" fill="#000000" fill-rule="nonzero" fill-opacity="1" /><path clip-path="url(#clip680)" d="M2238.76 1544.91 L2255.08 1544.91 L2255.08 1548.85 L2233.14 1548.85 L2233.14 1544.91 Q2235.8 1542.16 2240.38 1537.53 Q2244.99 1532.88 2246.17 1531.53 Q2248.41 1529.01 2249.29 1527.27 Q2250.2 1525.51 2250.2 1523.82 Q2250.2 1521.07 2248.25 1519.33 Q2246.33 1517.6 2243.23 1517.6 Q2241.03 1517.6 2238.58 1518.36 Q2236.15 1519.13 2233.37 1520.68 L2233.37 1515.95 Q2236.19 1514.82 2238.65 1514.24 Q2241.1 1513.66 2243.14 1513.66 Q2248.51 1513.66 2251.7 1516.35 Q2254.9 1519.03 2254.9 1523.52 Q2254.9 1525.65 2254.09 1527.57 Q2253.3 1529.47 2251.19 1532.07 Q2250.61 1532.74 2247.51 1535.95 Q2244.41 1539.15 2238.76 1544.91 Z" fill="#000000" fill-rule="nonzero" fill-opacity="1" /><path clip-path="url(#clip680)" d="M2274.9 1517.37 Q2271.28 1517.37 2269.46 1520.93 Q2267.65 1524.47 2267.65 1531.6 Q2267.65 1538.71 2269.46 1542.27 Q2271.28 1545.82 2274.9 1545.82 Q2278.53 1545.82 2280.34 1542.27 Q2282.16 1538.71 2282.16 1531.6 Q2282.16 1524.47 2280.34 1520.93 Q2278.53 1517.37 2274.9 1517.37 M2274.9 1513.66 Q2280.71 1513.66 2283.76 1518.27 Q2286.84 1522.85 2286.84 1531.6 Q2286.84 1540.33 2283.76 1544.94 Q2280.71 1549.52 2274.9 1549.52 Q2269.09 1549.52 2266.01 1544.94 Q2262.95 1540.33 2262.95 1531.6 Q2262.95 1522.85 2266.01 1518.27 Q2269.09 1513.66 2274.9 1513.66 Z" fill="#000000" fill-rule="nonzero" fill-opacity="1" /><path clip-path="url(#clip680)" d="M2305.06 1517.37 Q2301.45 1517.37 2299.62 1520.93 Q2297.81 1524.47 2297.81 1531.6 Q2297.81 1538.71 2299.62 1542.27 Q2301.45 1545.82 2305.06 1545.82 Q2308.69 1545.82 2310.5 1542.27 Q2312.33 1538.71 2312.33 1531.6 Q2312.33 1524.47 2310.5 1520.93 Q2308.69 1517.37 2305.06 1517.37 M2305.06 1513.66 Q2310.87 1513.66 2313.92 1518.27 Q2317 1522.85 2317 1531.6 Q2317 1540.33 2313.92 1544.94 Q2310.87 1549.52 2305.06 1549.52 Q2299.25 1549.52 2296.17 1544.94 Q2293.11 1540.33 2293.11 1531.6 Q2293.11 1522.85 2296.17 1518.27 Q2299.25 1513.66 2305.06 1513.66 Z" fill="#000000" fill-rule="nonzero" fill-opacity="1" /><path clip-path="url(#clip680)" d="M2335.22 1517.37 Q2331.61 1517.37 2329.78 1520.93 Q2327.97 1524.47 2327.97 1531.6 Q2327.97 1538.71 2329.78 1542.27 Q2331.61 1545.82 2335.22 1545.82 Q2338.85 1545.82 2340.66 1542.27 Q2342.49 1538.71 2342.49 1531.6 Q2342.49 1524.47 2340.66 1520.93 Q2338.85 1517.37 2335.22 1517.37 M2335.22 1513.66 Q2341.03 1513.66 2344.09 1518.27 Q2347.16 1522.85 2347.16 1531.6 Q2347.16 1540.33 2344.09 1544.94 Q2341.03 1549.52 2335.22 1549.52 Q2329.41 1549.52 2326.33 1544.94 Q2323.28 1540.33 2323.28 1531.6 Q2323.28 1522.85 2326.33 1518.27 Q2329.41 1513.66 2335.22 1513.66 Z" fill="#000000" fill-rule="nonzero" fill-opacity="1" /><polyline clip-path="url(#clip682)" style="stroke:#000000; stroke-linecap:round; stroke-linejoin:round; stroke-width:2; stroke-opacity:0.1; fill:none" points="140.696,1318.42 2352.76,1318.42 "/>
<polyline clip-path="url(#clip682)" style="stroke:#000000; stroke-linecap:round; stroke-linejoin:round; stroke-width:2; stroke-opacity:0.1; fill:none" points="140.696,1072.7 2352.76,1072.7 "/>
<polyline clip-path="url(#clip682)" style="stroke:#000000; stroke-linecap:round; stroke-linejoin:round; stroke-width:2; stroke-opacity:0.1; fill:none" points="140.696,826.981 2352.76,826.981 "/>
<polyline clip-path="url(#clip682)" style="stroke:#000000; stroke-linecap:round; stroke-linejoin:round; stroke-width:2; stroke-opacity:0.1; fill:none" points="140.696,581.261 2352.76,581.261 "/>
<polyline clip-path="url(#clip682)" style="stroke:#000000; stroke-linecap:round; stroke-linejoin:round; stroke-width:2; stroke-opacity:0.1; fill:none" points="140.696,335.541 2352.76,335.541 "/>
<polyline clip-path="url(#clip682)" style="stroke:#000000; stroke-linecap:round; stroke-linejoin:round; stroke-width:2; stroke-opacity:0.1; fill:none" points="140.696,89.8213 2352.76,89.8213 "/>
<polyline clip-path="url(#clip680)" style="stroke:#000000; stroke-linecap:round; stroke-linejoin:round; stroke-width:4; stroke-opacity:1; fill:none" points="140.696,1486.45 140.696,47.2441 "/>
<polyline clip-path="url(#clip680)" style="stroke:#000000; stroke-linecap:round; stroke-linejoin:round; stroke-width:4; stroke-opacity:1; fill:none" points="140.696,1318.42 159.593,1318.42 "/>
<polyline clip-path="url(#clip680)" style="stroke:#000000; stroke-linecap:round; stroke-linejoin:round; stroke-width:4; stroke-opacity:1; fill:none" points="140.696,1072.7 159.593,1072.7 "/>
<polyline clip-path="url(#clip680)" style="stroke:#000000; stroke-linecap:round; stroke-linejoin:round; stroke-width:4; stroke-opacity:1; fill:none" points="140.696,826.981 159.593,826.981 "/>
<polyline clip-path="url(#clip680)" style="stroke:#000000; stroke-linecap:round; stroke-linejoin:round; stroke-width:4; stroke-opacity:1; fill:none" points="140.696,581.261 159.593,581.261 "/>
<polyline clip-path="url(#clip680)" style="stroke:#000000; stroke-linecap:round; stroke-linejoin:round; stroke-width:4; stroke-opacity:1; fill:none" points="140.696,335.541 159.593,335.541 "/>
<polyline clip-path="url(#clip680)" style="stroke:#000000; stroke-linecap:round; stroke-linejoin:round; stroke-width:4; stroke-opacity:1; fill:none" points="140.696,89.8213 159.593,89.8213 "/>
<path clip-path="url(#clip680)" d="M53.3995 1331.77 L61.0384 1331.77 L61.0384 1305.4 L52.7282 1307.07 L52.7282 1302.81 L60.9921 1301.14 L65.668 1301.14 L65.668 1331.77 L73.3068 1331.77 L73.3068 1335.7 L53.3995 1335.7 L53.3995 1331.77 Z" fill="#000000" fill-rule="nonzero" fill-opacity="1" /><path clip-path="url(#clip680)" d="M92.7512 1304.22 Q89.1401 1304.22 87.3114 1307.79 Q85.5058 1311.33 85.5058 1318.46 Q85.5058 1325.56 87.3114 1329.13 Q89.1401 1332.67 92.7512 1332.67 Q96.3854 1332.67 98.1909 1329.13 Q100.02 1325.56 100.02 1318.46 Q100.02 1311.33 98.1909 1307.79 Q96.3854 1304.22 92.7512 1304.22 M92.7512 1300.52 Q98.5613 1300.52 101.617 1305.12 Q104.696 1309.71 104.696 1318.46 Q104.696 1327.18 101.617 1331.79 Q98.5613 1336.37 92.7512 1336.37 Q86.941 1336.37 83.8623 1331.79 Q80.8068 1327.18 80.8068 1318.46 Q80.8068 1309.71 83.8623 1305.12 Q86.941 1300.52 92.7512 1300.52 Z" fill="#000000" fill-rule="nonzero" fill-opacity="1" /><path clip-path="url(#clip680)" d="M54.3949 1086.05 L62.0337 1086.05 L62.0337 1059.68 L53.7236 1061.35 L53.7236 1057.09 L61.9874 1055.42 L66.6633 1055.42 L66.6633 1086.05 L74.3022 1086.05 L74.3022 1089.98 L54.3949 1089.98 L54.3949 1086.05 Z" fill="#000000" fill-rule="nonzero" fill-opacity="1" /><path clip-path="url(#clip680)" d="M83.7929 1055.42 L102.149 1055.42 L102.149 1059.36 L88.0753 1059.36 L88.0753 1067.83 Q89.0938 1067.48 90.1123 1067.32 Q91.1308 1067.13 92.1493 1067.13 Q97.9363 1067.13 101.316 1070.31 Q104.696 1073.48 104.696 1078.89 Q104.696 1084.47 101.223 1087.57 Q97.7511 1090.65 91.4317 1090.65 Q89.2558 1090.65 86.9873 1090.28 Q84.7419 1089.91 82.3346 1089.17 L82.3346 1084.47 Q84.4179 1085.61 86.6401 1086.16 Q88.8623 1086.72 91.3391 1086.72 Q95.3437 1086.72 97.6817 1084.61 Q100.02 1082.5 100.02 1078.89 Q100.02 1075.28 97.6817 1073.18 Q95.3437 1071.07 91.3391 1071.07 Q89.4641 1071.07 87.5892 1071.49 Q85.7373 1071.9 83.7929 1072.78 L83.7929 1055.42 Z" fill="#000000" fill-rule="nonzero" fill-opacity="1" /><path clip-path="url(#clip680)" d="M56.6171 840.326 L72.9365 840.326 L72.9365 844.261 L50.9921 844.261 L50.9921 840.326 Q53.6541 837.572 58.2375 832.942 Q62.8439 828.289 64.0245 826.947 Q66.2698 824.424 67.1494 822.687 Q68.0522 820.928 68.0522 819.238 Q68.0522 816.484 66.1078 814.748 Q64.1865 813.012 61.0847 813.012 Q58.8856 813.012 56.4319 813.776 Q54.0014 814.539 51.2236 816.09 L51.2236 811.368 Q54.0477 810.234 56.5014 809.655 Q58.955 809.076 60.9921 809.076 Q66.3624 809.076 69.5568 811.762 Q72.7513 814.447 72.7513 818.938 Q72.7513 821.067 71.9411 822.988 Q71.1541 824.887 69.0476 827.479 Q68.4689 828.15 65.367 831.368 Q62.2652 834.562 56.6171 840.326 Z" fill="#000000" fill-rule="nonzero" fill-opacity="1" /><path clip-path="url(#clip680)" d="M92.7512 812.78 Q89.1401 812.78 87.3114 816.345 Q85.5058 819.887 85.5058 827.016 Q85.5058 834.123 87.3114 837.687 Q89.1401 841.229 92.7512 841.229 Q96.3854 841.229 98.1909 837.687 Q100.02 834.123 100.02 827.016 Q100.02 819.887 98.1909 816.345 Q96.3854 812.78 92.7512 812.78 M92.7512 809.076 Q98.5613 809.076 101.617 813.683 Q104.696 818.266 104.696 827.016 Q104.696 835.743 101.617 840.349 Q98.5613 844.933 92.7512 844.933 Q86.941 844.933 83.8623 840.349 Q80.8068 835.743 80.8068 827.016 Q80.8068 818.266 83.8623 813.683 Q86.941 809.076 92.7512 809.076 Z" fill="#000000" fill-rule="nonzero" fill-opacity="1" /><path clip-path="url(#clip680)" d="M57.6125 594.606 L73.9318 594.606 L73.9318 598.541 L51.9875 598.541 L51.9875 594.606 Q54.6495 591.852 59.2328 587.222 Q63.8393 582.569 65.0198 581.227 Q67.2652 578.704 68.1448 576.967 Q69.0476 575.208 69.0476 573.518 Q69.0476 570.764 67.1032 569.028 Q65.1819 567.292 62.08 567.292 Q59.881 567.292 57.4273 568.055 Q54.9967 568.819 52.219 570.37 L52.219 565.648 Q55.043 564.514 57.4967 563.935 Q59.9504 563.356 61.9874 563.356 Q67.3578 563.356 70.5522 566.042 Q73.7466 568.727 73.7466 573.217 Q73.7466 575.347 72.9365 577.268 Q72.1494 579.166 70.0429 581.759 Q69.4642 582.43 66.3624 585.648 Q63.2606 588.842 57.6125 594.606 Z" fill="#000000" fill-rule="nonzero" fill-opacity="1" /><path clip-path="url(#clip680)" d="M83.7929 563.981 L102.149 563.981 L102.149 567.917 L88.0753 567.917 L88.0753 576.389 Q89.0938 576.042 90.1123 575.879 Q91.1308 575.694 92.1493 575.694 Q97.9363 575.694 101.316 578.866 Q104.696 582.037 104.696 587.453 Q104.696 593.032 101.223 596.134 Q97.7511 599.213 91.4317 599.213 Q89.2558 599.213 86.9873 598.842 Q84.7419 598.472 82.3346 597.731 L82.3346 593.032 Q84.4179 594.166 86.6401 594.722 Q88.8623 595.278 91.3391 595.278 Q95.3437 595.278 97.6817 593.171 Q100.02 591.065 100.02 587.453 Q100.02 583.842 97.6817 581.736 Q95.3437 579.629 91.3391 579.629 Q89.4641 579.629 87.5892 580.046 Q85.7373 580.463 83.7929 581.342 L83.7929 563.981 Z" fill="#000000" fill-rule="nonzero" fill-opacity="1" /><path clip-path="url(#clip680)" d="M66.7559 334.187 Q70.1124 334.905 71.9874 337.173 Q73.8855 339.442 73.8855 342.775 Q73.8855 347.891 70.367 350.692 Q66.8485 353.493 60.3671 353.493 Q58.1912 353.493 55.8764 353.053 Q53.5847 352.636 51.131 351.78 L51.131 347.266 Q53.0754 348.4 55.3903 348.979 Q57.7051 349.557 60.2282 349.557 Q64.6263 349.557 66.918 347.821 Q69.2328 346.085 69.2328 342.775 Q69.2328 339.72 67.08 338.007 Q64.9504 336.27 61.131 336.27 L57.1032 336.27 L57.1032 332.428 L61.3161 332.428 Q64.7652 332.428 66.5939 331.062 Q68.4226 329.673 68.4226 327.081 Q68.4226 324.419 66.5245 323.007 Q64.6495 321.571 61.131 321.571 Q59.2097 321.571 57.0106 321.988 Q54.8115 322.405 52.1727 323.284 L52.1727 319.118 Q54.8347 318.377 57.1495 318.007 Q59.4875 317.636 61.5476 317.636 Q66.8717 317.636 69.9735 320.067 Q73.0753 322.474 73.0753 326.595 Q73.0753 329.465 71.4318 331.456 Q69.7883 333.423 66.7559 334.187 Z" fill="#000000" fill-rule="nonzero" fill-opacity="1" /><path clip-path="url(#clip680)" d="M92.7512 321.34 Q89.1401 321.34 87.3114 324.905 Q85.5058 328.446 85.5058 335.576 Q85.5058 342.682 87.3114 346.247 Q89.1401 349.789 92.7512 349.789 Q96.3854 349.789 98.1909 346.247 Q100.02 342.682 100.02 335.576 Q100.02 328.446 98.1909 324.905 Q96.3854 321.34 92.7512 321.34 M92.7512 317.636 Q98.5613 317.636 101.617 322.243 Q104.696 326.826 104.696 335.576 Q104.696 344.303 101.617 348.909 Q98.5613 353.493 92.7512 353.493 Q86.941 353.493 83.8623 348.909 Q80.8068 344.303 80.8068 335.576 Q80.8068 326.826 83.8623 322.243 Q86.941 317.636 92.7512 317.636 Z" fill="#000000" fill-rule="nonzero" fill-opacity="1" /><path clip-path="url(#clip680)" d="M67.7513 88.4671 Q71.1078 89.1847 72.9827 91.4532 Q74.8809 93.7217 74.8809 97.055 Q74.8809 102.171 71.3624 104.972 Q67.8439 107.773 61.3624 107.773 Q59.1865 107.773 56.8717 107.333 Q54.5801 106.916 52.1264 106.06 L52.1264 101.546 Q54.0708 102.68 56.3856 103.259 Q58.7004 103.837 61.2236 103.837 Q65.6217 103.837 67.9133 102.101 Q70.2281 100.365 70.2281 97.055 Q70.2281 93.9995 68.0754 92.2865 Q65.9457 90.5504 62.1263 90.5504 L58.0986 90.5504 L58.0986 86.7078 L62.3115 86.7078 Q65.7606 86.7078 67.5893 85.3421 Q69.418 83.9532 69.418 81.3607 Q69.418 78.6986 67.5198 77.2866 Q65.6448 75.8514 62.1263 75.8514 Q60.205 75.8514 58.006 76.2681 Q55.8069 76.6847 53.168 77.5644 L53.168 73.3977 Q55.8301 72.657 58.1449 72.2866 Q60.4828 71.9163 62.543 71.9163 Q67.867 71.9163 70.9689 74.3468 Q74.0707 76.7542 74.0707 80.8745 Q74.0707 83.7449 72.4272 85.7356 Q70.7837 87.7032 67.7513 88.4671 Z" fill="#000000" fill-rule="nonzero" fill-opacity="1" /><path clip-path="url(#clip680)" d="M83.7929 72.5413 L102.149 72.5413 L102.149 76.4764 L88.0753 76.4764 L88.0753 84.9486 Q89.0938 84.6014 90.1123 84.4393 Q91.1308 84.2542 92.1493 84.2542 Q97.9363 84.2542 101.316 87.4254 Q104.696 90.5967 104.696 96.0133 Q104.696 101.592 101.223 104.694 Q97.7511 107.773 91.4317 107.773 Q89.2558 107.773 86.9873 107.402 Q84.7419 107.032 82.3346 106.291 L82.3346 101.592 Q84.4179 102.726 86.6401 103.282 Q88.8623 103.837 91.3391 103.837 Q95.3437 103.837 97.6817 101.731 Q100.02 99.6244 100.02 96.0133 Q100.02 92.4023 97.6817 90.2958 Q95.3437 88.1893 91.3391 88.1893 Q89.4641 88.1893 87.5892 88.606 Q85.7373 89.0226 83.7929 89.9023 L83.7929 72.5413 Z" fill="#000000" fill-rule="nonzero" fill-opacity="1" /><polyline clip-path="url(#clip682)" style="stroke:#009af9; stroke-linecap:round; stroke-linejoin:round; stroke-width:4; stroke-opacity:1; fill:none" points="203.301,1396.31 204.344,1400.39 205.388,1443.12 206.431,1445.72 207.475,1419.31 208.518,1422.3 209.562,1287.58 210.605,1291.63 211.648,1275.72 212.692,1280.49 213.735,1415.66 214.779,1418.63 215.822,1405.23 216.866,1407.5 217.909,1087.5 218.952,1092.95 219.996,1314.51 221.039,1316.83 222.083,1142.02 223.126,1145.48 224.17,1216.49 225.213,1220.37 226.256,1140.96 227.3,1145.2 228.343,1141.39 229.387,1147.06 230.43,1128.29 231.473,1131.88 232.517,893.84 233.56,898.638 234.604,1053.69 235.647,1058.2 236.691,817.672 237.734,824.461 238.777,1090.77 239.821,1095.26 240.864,1038.37 241.908,1041.95 242.951,1093.93 243.995,1096.54 245.038,997.003 246.081,1000.55 247.125,904.178 248.168,908.578 249.212,960.065 250.255,962.998 251.299,904.975 252.342,912.325 253.385,958.804 254.429,961.556 255.472,968.443 256.516,973.354 257.559,812.464 258.603,816.954 259.646,998.032 260.689,1000.79 261.733,930.314 262.776,933.201 263.82,856.045 264.863,860.911 265.907,819.125 266.95,821.409 267.993,855.842 269.037,857.277 270.08,943.957 271.124,945.577 272.167,853.739 273.21,855.564 274.254,839.204 275.297,842.625 276.341,853.064 277.384,854.301 278.428,776.641 279.471,777.605 280.514,781.992 281.558,783.081 282.601,843.576 283.645,844.484 284.688,888.761 285.732,890.192 286.775,830.093 287.818,833.572 288.862,764.139 289.905,765.827 290.949,849.375 291.992,851.087 293.036,836.097 294.079,839.127 295.122,837.653 296.166,841.055 297.209,876.295 298.253,879.09 299.296,976.796 300.34,977.734 301.383,857.704 302.426,860.116 303.47,867.093 304.513,872.517 305.557,850.852 306.6,852.065 307.643,744.609 308.687,746.43 309.73,811.746 310.774,815.296 311.817,790.88 312.861,793.546 313.904,833.202 314.947,834.763 315.991,827.633 317.034,830.802 318.078,779.019 319.121,782.62 320.165,957.679 321.208,960.74 322.251,803.614 323.295,810.024 324.338,790.554 325.382,793.954 326.425,840.847 327.469,842.474 328.512,855.815 329.555,859.196 330.599,785.595 331.642,788.86 332.686,816.93 333.729,818.071 334.773,892.13 335.816,895.44 336.859,892.693 337.903,894.086 338.946,832.821 339.99,834.721 341.033,863.285 342.077,866.398 343.12,780.891 344.163,783.608 345.207,850.717 346.25,851.128 347.294,768.575 348.337,770.449 349.38,805.631 350.424,810.334 351.467,811.972 352.511,813.99 353.554,791.504 354.598,792.918 355.641,802.507 356.684,802.678 357.728,793.998 358.771,796.188 359.815,794.891 360.858,797.575 361.902,815.243 362.945,817.889 363.988,776.337 365.032,778.822 366.075,840.32 367.119,841.672 368.162,756.896 369.206,760.218 370.249,876.281 371.292,879.126 372.336,712.464 373.379,716.306 374.423,815.833 375.466,817.198 376.51,862.804 377.553,863.759 378.596,791.615 379.64,794.586 380.683,760.852 381.727,761.657 382.77,864.607 383.813,865.439 384.857,876.153 385.9,877.808 386.944,831.719 387.987,833.097 389.031,906.699 390.074,908.1 391.117,739.806 392.161,742.239 393.204,775.048 394.248,778.457 395.291,891.646 396.335,897.005 397.378,891.982 398.421,892.944 399.465,830.16 400.508,832.375 401.552,733.483 402.595,734.897 403.639,789.799 404.682,791.4 405.725,816.184 406.769,817.475 407.812,770.362 408.856,773.191 409.899,684.749 410.943,687.261 411.986,798.269 413.029,800.34 414.073,834.464 415.116,837.096 416.16,823.901 417.203,825.5 418.247,767.192 419.29,768.218 420.333,914.811 421.377,916.175 422.42,747.239 423.464,749.076 424.507,841.276 425.55,844.452 426.594,789.4 427.637,792.333 428.681,795.668 429.724,797.044 430.768,799.342 431.811,800.221 432.854,793.418 433.898,794.83 434.941,759.516 435.985,760.814 437.028,753.737 438.072,755.924 439.115,987.428 440.158,988.92 441.202,926.933 442.245,929.009 443.289,840.588 444.332,841.902 445.376,878.586 446.419,881.462 447.462,800.401 448.506,804.164 449.549,867.251 450.593,868.053 451.636,825.139 452.68,826.578 453.723,730.582 454.766,733.307 455.81,759.424 456.853,761.39 457.897,853.206 458.94,855.043 459.984,755.638 461.027,759.151 462.07,788.564 463.114,790.47 464.157,863.573 465.201,866.208 466.244,820.184 467.287,821.418 468.331,849.369 469.374,850.174 470.418,790.904 471.461,793.972 472.505,829.807 473.548,831.685 474.591,847.146 475.635,848.443 476.678,651.215 477.722,652.868 478.765,840.641 479.809,841.714 480.852,850.885 481.895,852.792 482.939,862.544 483.982,863.275 485.026,644.884 486.069,645.915 487.113,657.16 488.156,658.832 489.199,829.282 490.243,831.311 491.286,603.934 492.33,606.695 493.373,799.355 494.417,799.862 495.46,746.755 496.503,747.618 497.547,884.669 498.59,885.503 499.634,862.74 500.677,865.839 501.72,787.917 502.764,791.654 503.807,766.073 504.851,767.319 505.894,846.464 506.938,848.673 507.981,797.78 509.024,800.801 510.068,831.348 511.111,832.187 512.155,790.61 513.198,791.434 514.242,795.945 515.285,797.886 516.328,796.857 517.372,799.177 518.415,759.528 519.459,763.567 520.502,685.781 521.546,690.412 522.589,839.77 523.632,841.556 524.676,772.568 525.719,775.46 526.763,834.17 527.806,836.222 528.85,785.923 529.893,787.409 530.936,815.365 531.98,817.49 533.023,753.931 534.067,755.37 535.11,759.85 536.154,762.176 537.197,835.98 538.24,838.269 539.284,708.588 540.327,710.398 541.371,832.678 542.414,834.185 543.457,771.38 544.501,774.758 545.544,828.369 546.588,830.284 547.631,707.001 548.675,708.627 549.718,881.298 550.761,883.658 551.805,773.531 552.848,774.786 553.892,731.831 554.935,734.793 555.979,748.704 557.022,750.882 558.065,836.515 559.109,839.86 560.152,821.505 561.196,824.134 562.239,732.699 563.283,733.766 564.326,742.435 565.369,743.704 566.413,763.001 567.456,765.255 568.5,767.263 569.543,767.909 570.587,728.754 571.63,731.427 572.673,907.5 573.717,910.149 574.76,752.71 575.804,755.406 576.847,742.94 577.89,744.577 578.934,801.19 579.977,804.086 581.021,818.341 582.064,821.697 583.108,721.496 584.151,724.254 585.194,698.189 586.238,699.685 587.281,867.329 588.325,869.531 589.368,613.717 590.412,615.644 591.455,817.339 592.498,819.431 593.542,748.342 594.585,752.013 595.629,825.669 596.672,828.028 597.716,614.616 598.759,616.362 599.802,690.133 600.846,691.427 601.889,888.895 602.933,890.675 603.976,598.131 605.02,599.941 606.063,821.83 607.106,825.684 608.15,847.943 609.193,850.251 610.237,778.383 611.28,780.532 612.324,847.485 613.367,848.695 614.41,771.951 615.454,772.548 616.497,734.718 617.541,736.515 618.584,859.833 619.627,862.285 620.671,746.825 621.714,748.11 622.758,828 623.801,829.571 624.845,854.533 625.888,855.175 626.931,638.768 627.975,642.75 629.018,841.492 630.062,842.684 631.105,856.898 632.149,857.966 633.192,711.678 634.235,712.725 635.279,732.827 636.322,736.006 637.366,820.434 638.409,821.832 639.453,714.604 640.496,717.213 641.539,784.391 642.583,785.899 643.626,852.241 644.67,853.336 645.713,777.005 646.757,779.645 647.8,784.312 648.843,786.377 649.887,840.918 650.93,841.653 651.974,712.802 653.017,715.525 654.06,613.377 655.104,617.108 656.147,772.193 657.191,774.522 658.234,728.492 659.278,731.287 660.321,776.889 661.364,778.842 662.408,552.069 663.451,553.838 664.495,756.337 665.538,759.144 666.582,764.908 667.625,767.498 668.668,870.556 669.712,872.372 670.755,652.773 671.799,655.844 672.842,660.757 673.886,661.883 674.929,792.367 675.972,794.146 677.016,843.426 678.059,847.836 679.103,723.878 680.146,725.122 681.19,703.05 682.233,705.046 683.276,672.485 684.32,674.916 685.363,754.487 686.407,757.695 687.45,829.587 688.494,832.955 689.537,872.365 690.58,874.95 691.624,853.423 692.667,854.731 693.711,832.212 694.754,833.975 695.797,861.618 696.841,863.519 697.884,805.035 698.928,807.259 699.971,652.964 701.015,654.916 702.058,894.472 703.101,895.448 704.145,727.937 705.188,729.21 706.232,795.726 707.275,797.206 708.319,743.149 709.362,746.331 710.405,691.255 711.449,693.03 712.492,813.603 713.536,816.724 714.579,815.143 715.623,818.245 716.666,847.284 717.709,847.644 718.753,746.161 719.796,747.524 720.84,687.167 721.883,689.833 722.927,701.022 723.97,703.475 725.013,813.003 726.057,819.576 727.1,725.272 728.144,727.616 729.187,815.964 730.23,817.24 731.274,704.752 732.317,706.279 733.361,790.086 734.404,794.415 735.448,768.437 736.491,770.816 737.534,750.604 738.578,752.261 739.621,591.598 740.665,594.266 741.708,715.928 742.752,719.836 743.795,655.849 744.838,657.025 745.882,857.3 746.925,861.69 747.969,775.506 749.012,778.154 750.056,682.489 751.099,685.361 752.142,718.605 753.186,721.65 754.229,589.1 755.273,592.064 756.316,704.969 757.36,706.357 758.403,846.841 759.446,849.495 760.49,750.106 761.533,750.907 762.577,700.155 763.62,702.863 764.664,804.075 765.707,804.77 766.75,606.568 767.794,609.594 768.837,804.55 769.881,806.31 770.924,637.189 771.967,638.643 773.011,718.816 774.054,721.472 775.098,745.75 776.141,748.08 777.185,768.515 778.228,771.577 779.271,774.344 780.315,776.585 781.358,682.968 782.402,683.456 783.445,741.874 784.489,745.877 785.532,855.662 786.575,858.719 787.619,887.918 788.662,889.965 789.706,704.387 790.749,707.832 791.793,716.498 792.836,717.709 793.879,848.827 794.923,851.734 795.966,794.454 797.01,797.039 798.053,768.878 799.097,770.796 800.14,713.234 801.183,714.724 802.227,655.418 803.27,659.521 804.314,716.605 805.357,718.394 806.401,796.63 807.444,801.006 808.487,775.627 809.531,777.496 810.574,801.609 811.618,802.914 812.661,820.064 813.704,821.853 814.748,594.09 815.791,597.084 816.835,748.377 817.878,751.863 818.922,806.594 819.965,808.197 821.008,544.961 822.052,550.514 823.095,549.163 824.139,551.966 825.182,723.294 826.226,726.695 827.269,721.675 828.312,723.26 829.356,666.607 830.399,668.215 831.443,662.619 832.486,667.751 833.53,633.112 834.573,636.278 835.616,809.494 836.66,811.891 837.703,658.659 838.747,661.014 839.79,590.891 840.834,594.197 841.877,738.292 842.92,739.904 843.964,698.985 845.007,701.229 846.051,778.887 847.094,781.189 848.137,493.059 849.181,495.938 850.224,799.531 851.268,800.308 852.311,641.14 853.355,643.959 854.398,597.142 855.441,598.505 856.485,694.028 857.528,698.027 858.572,861.018 859.615,861.945 860.659,584.717 861.702,587.929 862.745,760.533 863.789,762.285 864.832,772.736 865.876,775.508 866.919,864.316 867.963,866.959 869.006,717.718 870.049,718.274 871.093,797.682 872.136,799.097 873.18,741.23 874.223,742.284 875.267,819.419 876.31,822.356 877.353,788.726 878.397,789.846 879.44,648.332 880.484,652.455 881.527,699.629 882.571,700.84 883.614,816.464 884.657,818.723 885.701,791.05 886.744,792.432 887.788,723.765 888.831,726.709 889.874,796.863 890.918,799.736 891.961,578.833 893.005,582.759 894.048,770.32 895.092,774.299 896.135,747.081 897.178,752.827 898.222,879.961 899.265,882.91 900.309,900.163 901.352,902.786 902.396,798.367 903.439,802.047 904.482,799.571 905.526,800.542 906.569,738.562 907.613,740.073 908.656,780.725 909.7,783.82 910.743,490.858 911.786,493.031 912.83,677.31 913.873,678.88 914.917,659.306 915.96,660.079 917.004,741.205 918.047,744.722 919.09,733.681 920.134,738.684 921.177,735.894 922.221,738.579 923.264,749.942 924.307,752.162 925.351,665.852 926.394,668.738 927.438,724.608 928.481,726.159 929.525,699.16 930.568,700.97 931.611,676.985 932.655,678.935 933.698,750.024 934.742,751.837 935.785,823.081 936.829,826.784 937.872,759.429 938.915,760.678 939.959,779.55 941.002,783.125 942.046,772.484 943.089,774.605 944.133,732.474 945.176,734.77 946.219,830.958 947.263,831.581 948.306,848.682 949.35,852.084 950.393,811.177 951.437,813.067 952.48,678.84 953.523,683.002 954.567,613.436 955.61,616.487 956.654,644.481 957.697,646.301 958.741,746.246 959.784,747.963 960.827,671.118 961.871,674.524 962.914,569.222 963.958,570.766 965.001,718.306 966.044,722.006 967.088,812.947 968.131,814.025 969.175,543.775 970.218,546.334 971.262,694.694 972.305,698.771 973.348,690.4 974.392,692.385 975.435,741.302 976.479,743.558 977.522,770.125 978.566,771.078 979.609,688.73 980.652,692.505 981.696,802.781 982.739,805.324 983.783,686.889 984.826,688.9 985.87,612.359 986.913,614.713 987.956,880.279 989,881.768 990.043,772.444 991.087,773.91 992.13,839.353 993.174,841.536 994.217,527.962 995.26,531.347 996.304,452.847 997.347,458.325 998.391,663.467 999.434,666.413 1000.48,680.599 1001.52,687.955 1002.56,570.738 1003.61,573.003 1004.65,719.353 1005.69,721.697 1006.74,762.752 1007.78,764.122 1008.82,832.475 1009.87,834.694 1010.91,692.12 1011.96,693.775 1013,795.553 1014.04,798.286 1015.09,650.894 1016.13,653.731 1017.17,579.553 1018.22,582.042 1019.26,789.74 1020.3,791.564 1021.35,626.562 1022.39,629.074 1023.43,734.419 1024.48,736.522 1025.52,684.222 1026.56,688.223 1027.61,786.836 1028.65,788.515 1029.69,810.231 1030.74,814.775 1031.78,669.852 1032.82,673.289 1033.87,713.864 1034.91,714.313 1035.95,506.604 1037,510.369 1038.04,720.938 1039.08,722.886 1040.13,798.2 1041.17,799.36 1042.21,708.245 1043.26,709.686 1044.3,793.357 1045.34,796.044 1046.39,779.343 1047.43,781.618 1048.48,747.429 1049.52,749.105 1050.56,783.383 1051.61,785.023 1052.65,761.103 1053.69,763.53 1054.74,629.404 1055.78,632.596 1056.82,627.21 1057.87,628.94 1058.91,756.408 1059.95,758.578 1061,778.805 1062.04,782.034 1063.08,747.307 1064.13,748.518 1065.17,509.683 1066.21,514.891 1067.26,631.831 1068.3,635.375 1069.34,654.15 1070.39,657.218 1071.43,699.489 1072.47,701.573 1073.52,694.792 1074.56,697.509 1075.6,545.78 1076.65,549.653 1077.69,747.944 1078.73,750.133 1079.78,716.265 1080.82,717.795 1081.86,823.459 1082.91,826.274 1083.95,649.031 1084.99,652.473 1086.04,490.556 1087.08,492.82 1088.13,769.079 1089.17,770.131 1090.21,482.177 1091.26,485.191 1092.3,764.576 1093.34,765.47 1094.39,663.759 1095.43,665.481 1096.47,625.811 1097.52,628.58 1098.56,789.745 1099.6,791.036 1100.65,652.744 1101.69,655.171 1102.73,508.965 1103.78,510.816 1104.82,634.187 1105.86,636.691 1106.91,729.514 1107.95,731.831 1108.99,783.775 1110.04,785.01 1111.08,742.914 1112.12,746.845 1113.17,719.098 1114.21,721.642 1115.25,750.368 1116.3,751.944 1117.34,745.424 1118.38,750.21 1119.43,814.631 1120.47,816.063 1121.51,663.834 1122.56,665.54 1123.6,651.212 1124.65,656.414 1125.69,557.464 1126.73,561.639 1127.78,777.418 1128.82,780.192 1129.86,656.48 1130.91,659.552 1131.95,336.746 1132.99,341.597 1134.04,569.946 1135.08,572.837 1136.12,613.252 1137.17,616.253 1138.21,622.879 1139.25,626.43 1140.3,734.526 1141.34,737.575 1142.38,772.292 1143.43,774.152 1144.47,775.358 1145.51,779.458 1146.56,372.582 1147.6,376.581 1148.64,509.555 1149.69,515.771 1150.73,735.903 1151.77,737.469 1152.82,548.866 1153.86,553.507 1154.9,790.83 1155.95,792.652 1156.99,694.126 1158.03,696.173 1159.08,700.139 1160.12,702.934 1161.16,811.368 1162.21,813.109 1163.25,701.16 1164.3,702.271 1165.34,741.281 1166.38,744.039 1167.43,576.589 1168.47,580.255 1169.51,690.06 1170.56,692.987 1171.6,480.966 1172.64,483.25 1173.69,752.076 1174.73,752.917 1175.77,737.697 1176.82,740.418 1177.86,779.422 1178.9,784.477 1179.95,645.908 1180.99,648.999 1182.03,697.441 1183.08,699.025 1184.12,672.723 1185.16,676.319 1186.21,585.279 1187.25,587.457 1188.29,692.148 1189.34,693.783 1190.38,626.632 1191.42,629.861 1192.47,759.721 1193.51,761.905 1194.55,675.869 1195.6,680.159 1196.64,703.457 1197.68,705.145 1198.73,596.005 1199.77,599.137 1200.82,650.302 1201.86,654.778 1202.9,608.775 1203.95,611.654 1204.99,659.017 1206.03,661.304 1207.08,502.233 1208.12,507.428 1209.16,632.472 1210.21,635.717 1211.25,580.263 1212.29,585.368 1213.34,517.665 1214.38,519.35 1215.42,431.908 1216.47,440.613 1217.51,459.442 1218.55,465.64 1219.6,632.656 1220.64,637.863 1221.68,728.274 1222.73,731.35 1223.77,639.704 1224.81,643.531 1225.86,536.161 1226.9,538.185 1227.94,681.423 1228.99,683.136 1230.03,681.796 1231.07,684.579 1232.12,854.695 1233.16,857.925 1234.2,623.581 1235.25,631.542 1236.29,680.76 1237.33,682.838 1238.38,590.505 1239.42,594.068 1240.47,676.245 1241.51,679.286 1242.55,533.894 1243.6,539.384 1244.64,562.595 1245.68,567.221 1246.73,539.661 1247.77,544.26 1248.81,676.448 1249.86,678.463 1250.9,612.163 1251.94,615.9 1252.99,688.562 1254.03,689.79 1255.07,696.654 1256.12,697.867 1257.16,504.66 1258.2,510.111 1259.25,664.233 1260.29,669.553 1261.33,591.257 1262.38,594.255 1263.42,594.596 1264.46,597.984 1265.51,483.898 1266.55,486.127 1267.59,661.981 1268.64,670.049 1269.68,607.565 1270.72,610.92 1271.77,738.901 1272.81,740.937 1273.85,577.166 1274.9,579.251 1275.94,529.982 1276.99,534.768 1278.03,534.204 1279.07,536.142 1280.12,556.053 1281.16,559.19 1282.2,660.037 1283.25,661.836 1284.29,624.237 1285.33,627.327 1286.38,622.328 1287.42,624.195 1288.46,388.758 1289.51,391.513 1290.55,679.392 1291.59,681.733 1292.64,723.254 1293.68,725.449 1294.72,529.979 1295.77,536.021 1296.81,685.738 1297.85,687.471 1298.9,500.139 1299.94,502.737 1300.98,395.378 1302.03,398.718 1303.07,501.903 1304.11,505.248 1305.16,558.646 1306.2,560.067 1307.24,516.842 1308.29,520.214 1309.33,591.909 1310.37,596.794 1311.42,736.13 1312.46,737.659 1313.5,675.103 1314.55,676.109 1315.59,449.232 1316.64,453.674 1317.68,542.644 1318.72,544.597 1319.77,619.45 1320.81,622.717 1321.85,537.442 1322.9,540.318 1323.94,692.324 1324.98,694.739 1326.03,526.674 1327.07,529.381 1328.11,469.218 1329.16,471.114 1330.2,565.818 1331.24,570.298 1332.29,619.114 1333.33,622.456 1334.37,531.916 1335.42,534.916 1336.46,565.876 1337.5,572.678 1338.55,489.653 1339.59,492.319 1340.63,325.405 1341.68,330.397 1342.72,620.472 1343.76,623.242 1344.81,768.432 1345.85,770.044 1346.89,339.13 1347.94,347.783 1348.98,522.497 1350.02,531.144 1351.07,494.087 1352.11,497.43 1353.16,561.483 1354.2,564.272 1355.24,498.78 1356.29,501.146 1357.33,377.443 1358.37,381.379 1359.42,541.207 1360.46,548.231 1361.5,448.224 1362.55,452.417 1363.59,633.423 1364.63,635.745 1365.68,672.079 1366.72,673.528 1367.76,433.579 1368.81,437.324 1369.85,454.653 1370.89,457.06 1371.94,524.458 1372.98,529.692 1374.02,489.926 1375.07,491.704 1376.11,626.683 1377.15,628.444 1378.2,343.691 1379.24,347.712 1380.28,427.347 1381.33,432.271 1382.37,490.086 1383.41,492.943 1384.46,394.687 1385.5,398.733 1386.54,668.373 1387.59,670.025 1388.63,557.838 1389.67,561.466 1390.72,604.271 1391.76,606.982 1392.81,351.956 1393.85,357.082 1394.89,609.035 1395.94,610.937 1396.98,545.809 1398.02,549.43 1399.07,370.848 1400.11,373.879 1401.15,615.457 1402.2,618.676 1403.24,698.857 1404.28,699.871 1405.33,548.319 1406.37,551.968 1407.41,635.371 1408.46,638.584 1409.5,492.121 1410.54,497.538 1411.59,643.777 1412.63,646.999 1413.67,416.711 1414.72,424.353 1415.76,686.776 1416.8,688.429 1417.85,617.359 1418.89,618.188 1419.93,546.938 1420.98,548.903 1422.02,705.219 1423.06,708.345 1424.11,372.693 1425.15,378.862 1426.19,611.405 1427.24,614.258 1428.28,572.299 1429.33,574.073 1430.37,393.133 1431.41,397.152 1432.46,479.305 1433.5,481.743 1434.54,404.812 1435.59,409.198 1436.63,554.853 1437.67,560.444 1438.72,678.373 1439.76,681.724 1440.8,586.141 1441.85,587.783 1442.89,675.242 1443.93,676.89 1444.98,733.103 1446.02,734.383 1447.06,453.212 1448.11,455.174 1449.15,504.422 1450.19,506.803 1451.24,515.616 1452.28,520.176 1453.32,363.154 1454.37,368.972 1455.41,370.381 1456.45,374.595 1457.5,553.107 1458.54,554.998 1459.58,663.467 1460.63,667.789 1461.67,466.468 1462.71,468.289 1463.76,521.135 1464.8,523.805 1465.84,563.907 1466.89,566.863 1467.93,559.513 1468.98,563.93 1470.02,512.989 1471.06,515.74 1472.11,683.88 1473.15,686.318 1474.19,347.407 1475.24,353.347 1476.28,528.183 1477.32,532.676 1478.37,429.398 1479.41,434.243 1480.45,491.308 1481.5,493.078 1482.54,455.01 1483.58,458.257 1484.63,467.467 1485.67,474.273 1486.71,353.021 1487.76,357.391 1488.8,561.461 1489.84,565.119 1490.89,414.641 1491.93,416.365 1492.97,553.753 1494.02,555.38 1495.06,709.011 1496.1,710.225 1497.15,354.843 1498.19,358.687 1499.23,595.677 1500.28,600.865 1501.32,497.12 1502.36,503.24 1503.41,545.91 1504.45,551.969 1505.5,497.725 1506.54,503.086 1507.58,523.166 1508.63,529.47 1509.67,479.789 1510.71,483.753 1511.76,516.784 1512.8,523.292 1513.84,606.174 1514.89,608.94 1515.93,559.62 1516.97,563.457 1518.02,566.619 1519.06,569.053 1520.1,567.288 1521.15,569.949 1522.19,596.406 1523.23,600.075 1524.28,418.637 1525.32,424.84 1526.36,401.573 1527.41,405.797 1528.45,622.571 1529.49,624.992 1530.54,517.951 1531.58,521.503 1532.62,643.226 1533.67,646.251 1534.71,567.071 1535.75,569.883 1536.8,543.101 1537.84,545.824 1538.88,687.278 1539.93,690.349 1540.97,647.997 1542.01,652.613 1543.06,498.985 1544.1,502.092 1545.15,577.07 1546.19,581.846 1547.23,491.968 1548.28,494.146 1549.32,387.591 1550.36,392.265 1551.41,577.207 1552.45,584.693 1553.49,543.071 1554.54,547.961 1555.58,582.859 1556.62,589.627 1557.67,277.98 1558.71,282.178 1559.75,621.676 1560.8,623.274 1561.84,449.296 1562.88,452.209 1563.93,616.237 1564.97,617.75 1566.01,579.216 1567.06,581.331 1568.1,275.301 1569.14,280.247 1570.19,778.87 1571.23,781.12 1572.27,715.541 1573.32,716.711 1574.36,643.579 1575.4,647.901 1576.45,556.659 1577.49,561.17 1578.53,520.763 1579.58,522.303 1580.62,505.071 1581.67,509.266 1582.71,442.216 1583.75,448.073 1584.8,613.958 1585.84,618.682 1586.88,720.423 1587.93,722.161 1588.97,617.294 1590.01,619.638 1591.06,652.952 1592.1,657.618 1593.14,628.956 1594.19,636.369 1595.23,512.147 1596.27,515.702 1597.32,551.466 1598.36,555.383 1599.4,258.788 1600.45,262.326 1601.49,530.814 1602.53,536.889 1603.58,547.624 1604.62,554.94 1605.66,568.701 1606.71,571.892 1607.75,685.275 1608.79,687.628 1609.84,566.32 1610.88,568.328 1611.92,581.4 1612.97,583.094 1614.01,634.983 1615.05,637.184 1616.1,636.521 1617.14,638.18 1618.18,574.998 1619.23,577.251 1620.27,695.023 1621.32,697.445 1622.36,450.151 1623.4,457.309 1624.45,571.323 1625.49,574.466 1626.53,709.782 1627.58,711.107 1628.62,587.685 1629.66,589.652 1630.71,607.064 1631.75,609.93 1632.79,469.978 1633.84,471.666 1634.88,555.772 1635.92,559.444 1636.97,496.23 1638.01,499.148 1639.05,593.281 1640.1,600.086 1641.14,513.744 1642.18,520.063 1643.23,645.018 1644.27,650.778 1645.31,545.218 1646.36,547.754 1647.4,639.991 1648.44,641.381 1649.49,670.143 1650.53,673.425 1651.57,611.07 1652.62,613.2 1653.66,548.779 1654.7,549.722 1655.75,740.809 1656.79,742.683 1657.84,737.027 1658.88,740.222 1659.92,767.882 1660.97,769.981 1662.01,504.579 1663.05,508.387 1664.1,361.394 1665.14,368.567 1666.18,669.986 1667.23,673.447 1668.27,505.474 1669.31,509.088 1670.36,567.79 1671.4,571.264 1672.44,622.887 1673.49,628.781 1674.53,461.674 1675.57,463.951 1676.62,677.919 1677.66,679.376 1678.7,633.343 1679.75,636.409 1680.79,614.2 1681.83,617.467 1682.88,662.541 1683.92,664.358 1684.96,663.798 1686.01,665.631 1687.05,492.149 1688.09,496.032 1689.14,664.752 1690.18,670.227 1691.22,571.011 1692.27,573.78 1693.31,713.929 1694.35,717.292 1695.4,643.804 1696.44,645.324 1697.49,600.678 1698.53,601.877 1699.57,660.718 1700.62,662.58 1701.66,393.724 1702.7,398.134 1703.75,470.084 1704.79,474.984 1705.83,784.392 1706.88,786.539 1707.92,633.224 1708.96,634.993 1710.01,409.585 1711.05,414.111 1712.09,525.375 1713.14,529.778 1714.18,412.07 1715.22,418.045 1716.27,599.877 1717.31,601.493 1718.35,680.632 1719.4,685.649 1720.44,557.531 1721.48,565.83 1722.53,638.662 1723.57,641.822 1724.61,859.454 1725.66,863.806 1726.7,657.275 1727.74,661.229 1728.79,504.766 1729.83,512.949 1730.87,660.411 1731.92,662.426 1732.96,656.122 1734.01,658.915 1735.05,472.207 1736.09,477.731 1737.14,502.693 1738.18,504.423 1739.22,465.442 1740.27,472.466 1741.31,504.389 1742.35,507.273 1743.4,581.273 1744.44,583.717 1745.48,608.807 1746.53,610.517 1747.57,687.743 1748.61,689.814 1749.66,584.681 1750.7,586.796 1751.74,585.167 1752.79,588.336 1753.83,514.084 1754.87,519.161 1755.92,750.917 1756.96,752.31 1758,411.853 1759.05,416.279 1760.09,472.625 1761.13,475.642 1762.18,583.863 1763.22,586.517 1764.26,597.013 1765.31,600.023 1766.35,505.23 1767.39,508.954 1768.44,727.469 1769.48,729.424 1770.52,643.573 1771.57,647.006 1772.61,438.759 1773.66,440.584 1774.7,428.819 1775.74,435.817 1776.79,455.932 1777.83,459.831 1778.87,664.539 1779.92,668.053 1780.96,606.653 1782,609.783 1783.05,462.618 1784.09,465.793 1785.13,352.546 1786.18,354.706 1787.22,620.25 1788.26,623.425 1789.31,686.44 1790.35,690.45 1791.39,715.251 1792.44,721.239 1793.48,511.433 1794.52,515.218 1795.57,553.042 1796.61,556.276 1797.65,670.253 1798.7,673.879 1799.74,557.174 1800.78,560.181 1801.83,540.855 1802.87,547.664 1803.91,614.015 1804.96,617.991 1806,629.471 1807.04,631.516 1808.09,409.123 1809.13,415.029 1810.18,372.844 1811.22,377.475 1812.26,389.244 1813.31,392.733 1814.35,457.668 1815.39,462.33 1816.44,517.359 1817.48,520.898 1818.52,494.173 1819.57,496.03 1820.61,537.579 1821.65,540.515 1822.7,635.161 1823.74,637.873 1824.78,652.568 1825.83,655.048 1826.87,457.676 1827.91,462.852 1828.96,450.781 1830,457.558 1831.04,559.734 1832.09,561.647 1833.13,439.461 1834.17,442.359 1835.22,331.345 1836.26,333.472 1837.3,779.535 1838.35,783.158 1839.39,579.656 1840.43,582.838 1841.48,414.808 1842.52,417.58 1843.56,486.577 1844.61,488.404 1845.65,501.395 1846.69,505.462 1847.74,531.707 1848.78,538.776 1849.83,566.407 1850.87,570.093 1851.91,458.492 1852.96,461.443 1854,424.202 1855.04,426.766 1856.09,527.153 1857.13,529.114 1858.17,391.816 1859.22,396.301 1860.26,542.346 1861.3,547.416 1862.35,587.469 1863.39,590.642 1864.43,508.71 1865.48,512.291 1866.52,306.576 1867.56,310.208 1868.61,633.438 1869.65,635.917 1870.69,618.573 1871.74,620.079 1872.78,503.071 1873.82,504.043 1874.87,535.697 1875.91,539.469 1876.95,571.333 1878,573.182 1879.04,477.343 1880.08,480.158 1881.13,494.593 1882.17,498.152 1883.21,525.967 1884.26,527.531 1885.3,588.832 1886.35,590.251 1887.39,571.832 1888.43,576.003 1889.48,371.88 1890.52,374.357 1891.56,599.504 1892.61,601.292 1893.65,681.202 1894.69,683.87 1895.74,523.839 1896.78,529.26 1897.82,563.839 1898.87,565.554 1899.91,442.065 1900.95,443.668 1902,302.304 1903.04,306.481 1904.08,496.073 1905.13,498.447 1906.17,593.889 1907.21,596.556 1908.26,560.755 1909.3,566.282 1910.34,427.693 1911.39,432.797 1912.43,486.065 1913.47,490.65 1914.52,610.629 1915.56,617.641 1916.6,426.308 1917.65,428.926 1918.69,493.994 1919.73,498.153 1920.78,607.075 1921.82,609.671 1922.86,783.035 1923.91,785.118 1924.95,636.722 1926,638.023 1927.04,640.928 1928.08,642.374 1929.13,499.822 1930.17,504.123 1931.21,462.591 1932.26,467.739 1933.3,574.747 1934.34,576.39 1935.39,652.55 1936.43,654.496 1937.47,730.412 1938.52,733.391 1939.56,506.035 1940.6,508.011 1941.65,699.668 1942.69,703.861 1943.73,508.027 1944.78,510.196 1945.82,477.772 1946.86,479.599 1947.91,627.244 1948.95,631.375 1949.99,586.155 1951.04,588.887 1952.08,715.137 1953.12,717.046 1954.17,583.334 1955.21,585.868 1956.25,340.888 1957.3,345.868 1958.34,597.411 1959.38,601.412 1960.43,694.757 1961.47,696.868 1962.52,591.584 1963.56,594.192 1964.6,641.546 1965.65,643.586 1966.69,580.862 1967.73,585.207 1968.78,524.761 1969.82,529.043 1970.86,575.523 1971.91,578.264 1972.95,303.541 1973.99,310.497 1975.04,480.767 1976.08,484.508 1977.12,291.681 1978.17,297.068 1979.21,501.987 1980.25,506.798 1981.3,604.162 1982.34,605.835 1983.38,367.473 1984.43,372.877 1985.47,421.802 1986.51,424.795 1987.56,643.324 1988.6,645.573 1989.64,687.306 1990.69,691.515 1991.73,529.19 1992.77,533.104 1993.82,479.108 1994.86,481.624 1995.9,495.605 1996.95,496.853 1997.99,580.38 1999.03,583.892 2000.08,449.445 2001.12,451.27 2002.17,557.374 2003.21,559.718 2004.25,494.87 2005.3,497.102 2006.34,662.7 2007.38,666.187 2008.43,497.411 2009.47,503.703 2010.51,373.641 2011.56,378.347 2012.6,533.521 2013.64,540.616 2014.69,657.233 2015.73,658.734 2016.77,383.623 2017.82,385.661 2018.86,631.944 2019.9,635.753 2020.95,492.308 2021.99,498.247 2023.03,563.029 2024.08,566.909 2025.12,375.81 2026.16,379.9 2027.21,382.424 2028.25,385.747 2029.29,554.409 2030.34,557.739 2031.38,465.281 2032.42,468.119 2033.47,438.506 2034.51,449.722 2035.55,668.689 2036.6,672.225 2037.64,613.118 2038.69,615.512 2039.73,771.448 2040.77,773.947 2041.82,578.263 2042.86,581.835 2043.9,678.922 2044.95,681.053 2045.99,585.742 2047.03,588.738 2048.08,576.937 2049.12,580.161 2050.16,308.284 2051.21,313.578 2052.25,569.592 2053.29,575.013 2054.34,573.635 2055.38,577.824 2056.42,543.755 2057.47,545.425 2058.51,550.968 2059.55,553.061 2060.6,473.57 2061.64,475.403 2062.68,256.874 2063.73,262.103 2064.77,601.612 2065.81,604.017 2066.86,381.148 2067.9,388.763 2068.94,443.993 2069.99,448.198 2071.03,556.666 2072.07,559.654 2073.12,509.192 2074.16,511.101 2075.2,555.063 2076.25,557.079 2077.29,422.127 2078.34,429.204 2079.38,571.807 2080.42,572.605 2081.47,577.306 2082.51,579.684 2083.55,454.313 2084.6,458.65 2085.64,472.86 2086.68,475.318 2087.73,482.593 2088.77,484.932 2089.81,455.282 2090.86,461.174 2091.9,473.341 2092.94,475.584 2093.99,345.699 2095.03,347.797 2096.07,554.162 2097.12,557.819 2098.16,443.126 2099.2,445.985 2100.25,646.652 2101.29,648.608 2102.33,646.821 2103.38,649.109 2104.42,569.102 2105.46,575.748 2106.51,341.621 2107.55,347.124 2108.59,321.777 2109.64,325.817 2110.68,646.86 2111.72,649.003 2112.77,182.954 2113.81,186.099 2114.86,87.9763 2115.9,97.2136 2116.94,576.132 2117.99,578.199 2119.03,460.078 2120.07,464.466 2121.12,570.889 2122.16,572.382 2123.2,622.017 2124.25,624.461 2125.29,655.949 2126.33,657.462 2127.38,538.789 2128.42,541.393 2129.46,517.849 2130.51,521.548 2131.55,443.073 2132.59,444.9 2133.64,471.884 2134.68,474.497 2135.72,345.454 2136.77,349.659 2137.81,605.46 2138.85,608.852 2139.9,566.668 2140.94,570.459 2141.98,314.807 2143.03,317.791 2144.07,453.053 2145.11,465.227 2146.16,563.034 2147.2,565.028 2148.24,509.406 2149.29,512.658 2150.33,385.365 2151.37,390.995 2152.42,485.465 2153.46,488.66 2154.51,420.969 2155.55,425.935 2156.59,431.548 2157.64,434.985 2158.68,195.927 2159.72,203.95 2160.77,607.46 2161.81,613.19 2162.85,457.305 2163.9,460.839 2164.94,460.763 2165.98,464.041 2167.03,536.025 2168.07,537.672 2169.11,460.362 2170.16,465.625 2171.2,465.487 2172.24,467.955 2173.29,505.126 2174.33,507.26 2175.37,516.186 2176.42,521.219 2177.46,413.499 2178.5,417.697 2179.55,569.42 2180.59,572.901 2181.63,629.993 2182.68,632.622 2183.72,565.459 2184.76,567.978 2185.81,397 2186.85,402.769 2187.89,571.296 2188.94,574.286 2189.98,641.181 2191.03,648.718 2192.07,527.673 2193.11,531.174 2194.16,620.763 2195.2,624.465 2196.24,606.823 2197.29,609.843 2198.33,488.018 2199.37,492.951 2200.42,637.705 2201.46,641.208 2202.5,719.362 2203.55,723.171 2204.59,485.881 2205.63,489.274 2206.68,465.727 2207.72,469.286 2208.76,395.004 2209.81,397.57 2210.85,704.318 2211.89,707.374 2212.94,455.651 2213.98,457.34 2215.02,596.478 2216.07,599.791 2217.11,442.42 2218.15,448.488 2219.2,394.325 2220.24,399.341 2221.28,559.721 2222.33,565.696 2223.37,619.63 2224.41,622.315 2225.46,322.847 2226.5,325.678 2227.54,545.257 2228.59,548.101 2229.63,390.17 2230.68,394.358 2231.72,285.35 2232.76,290.576 2233.81,575.545 2234.85,581.506 2235.89,377.117 2236.94,380.483 2237.98,482.431 2239.02,484.773 2240.07,615.692 2241.11,617.856 2242.15,419.149 2243.2,421.747 2244.24,571.234 2245.28,573.308 2246.33,423.411 2247.37,426.13 2248.41,539.951 2249.46,544.371 2250.5,429.662 2251.54,432.773 2252.59,414.386 2253.63,417.003 2254.67,610.013 2255.72,612.982 2256.76,535.571 2257.8,537.8 2258.85,641.223 2259.89,643.558 2260.93,439.756 2261.98,443.671 2263.02,610.708 2264.06,612.527 2265.11,389.484 2266.15,392.049 2267.2,393.189 2268.24,396.533 2269.28,514.874 2270.33,516.631 2271.37,428.423 2272.41,430.646 2273.46,537.768 2274.5,540.951 2275.54,438.104 2276.59,441.176 2277.63,611.749 2278.67,613.629 2279.72,466.22 2280.76,469.438 2281.8,436.633 2282.85,439.172 2283.89,428.992 2284.93,432.927 2285.98,531.236 2287.02,533.284 2288.06,636.182 2289.11,639.87 2290.15,642.08 "/>
<path clip-path="url(#clip680)" d="M214.431 198.898 L488.067 198.898 L488.067 95.2176 L214.431 95.2176  Z" fill="#ffffff" fill-rule="evenodd" fill-opacity="1"/>
<polyline clip-path="url(#clip680)" style="stroke:#000000; stroke-linecap:round; stroke-linejoin:round; stroke-width:4; stroke-opacity:1; fill:none" points="214.431,198.898 488.067,198.898 488.067,95.2176 214.431,95.2176 214.431,198.898 "/>
<polyline clip-path="url(#clip680)" style="stroke:#009af9; stroke-linecap:round; stroke-linejoin:round; stroke-width:4; stroke-opacity:1; fill:none" points="239.009,147.058 386.48,147.058 "/>
<path clip-path="url(#clip680)" d="M424.901 166.745 Q423.095 171.375 421.382 172.787 Q419.67 174.199 416.799 174.199 L413.396 174.199 L413.396 170.634 L415.896 170.634 Q417.656 170.634 418.628 169.8 Q419.6 168.967 420.781 165.865 L421.545 163.921 L411.058 138.412 L415.572 138.412 L423.674 158.689 L431.776 138.412 L436.29 138.412 L424.901 166.745 Z" fill="#000000" fill-rule="nonzero" fill-opacity="1" /><path clip-path="url(#clip680)" d="M443.581 160.402 L451.22 160.402 L451.22 134.037 L442.91 135.703 L442.91 131.444 L451.174 129.778 L455.85 129.778 L455.85 160.402 L463.489 160.402 L463.489 164.338 L443.581 164.338 L443.581 160.402 Z" fill="#000000" fill-rule="nonzero" fill-opacity="1" /></svg>
