<?xml version="1.0" encoding="utf-8"?>
<svg xmlns="http://www.w3.org/2000/svg" xmlns:xlink="http://www.w3.org/1999/xlink" width="600" height="400" viewBox="0 0 2400 1600">
<defs>
  <clipPath id="clip410">
    <rect x="0" y="0" width="2400" height="1600"/>
  </clipPath>
</defs>
<path clip-path="url(#clip410)" d="M0 1600 L2400 1600 L2400 0 L0 0  Z" fill="#ffffff" fill-rule="evenodd" fill-opacity="1"/>
<defs>
  <clipPath id="clip411">
    <rect x="480" y="0" width="1681" height="1600"/>
  </clipPath>
</defs>
<path clip-path="url(#clip410)" d="M178.867 1486.45 L2352.76 1486.45 L2352.76 47.2441 L178.867 47.2441  Z" fill="#ffffff" fill-rule="evenodd" fill-opacity="1"/>
<defs>
  <clipPath id="clip412">
    <rect x="178" y="47" width="2175" height="1440"/>
  </clipPath>
</defs>
<polyline clip-path="url(#clip412)" style="stroke:#000000; stroke-linecap:round; stroke-linejoin:round; stroke-width:2; stroke-opacity:0.1; fill:none" points="240.392,1486.45 240.392,47.2441 "/>
<polyline clip-path="url(#clip412)" style="stroke:#000000; stroke-linecap:round; stroke-linejoin:round; stroke-width:2; stroke-opacity:0.1; fill:none" points="753.358,1486.45 753.358,47.2441 "/>
<polyline clip-path="url(#clip412)" style="stroke:#000000; stroke-linecap:round; stroke-linejoin:round; stroke-width:2; stroke-opacity:0.1; fill:none" points="1266.32,1486.45 1266.32,47.2441 "/>
<polyline clip-path="url(#clip412)" style="stroke:#000000; stroke-linecap:round; stroke-linejoin:round; stroke-width:2; stroke-opacity:0.1; fill:none" points="1779.29,1486.45 1779.29,47.2441 "/>
<polyline clip-path="url(#clip412)" style="stroke:#000000; stroke-linecap:round; stroke-linejoin:round; stroke-width:2; stroke-opacity:0.1; fill:none" points="2292.26,1486.45 2292.26,47.2441 "/>
<polyline clip-path="url(#clip410)" style="stroke:#000000; stroke-linecap:round; stroke-linejoin:round; stroke-width:4; stroke-opacity:1; fill:none" points="178.867,1486.45 2352.76,1486.45 "/>
<polyline clip-path="url(#clip410)" style="stroke:#000000; stroke-linecap:round; stroke-linejoin:round; stroke-width:4; stroke-opacity:1; fill:none" points="240.392,1486.45 240.392,1467.55 "/>
<polyline clip-path="url(#clip410)" style="stroke:#000000; stroke-linecap:round; stroke-linejoin:round; stroke-width:4; stroke-opacity:1; fill:none" points="753.358,1486.45 753.358,1467.55 "/>
<polyline clip-path="url(#clip410)" style="stroke:#000000; stroke-linecap:round; stroke-linejoin:round; stroke-width:4; stroke-opacity:1; fill:none" points="1266.32,1486.45 1266.32,1467.55 "/>
<polyline clip-path="url(#clip410)" style="stroke:#000000; stroke-linecap:round; stroke-linejoin:round; stroke-width:4; stroke-opacity:1; fill:none" points="1779.29,1486.45 1779.29,1467.55 "/>
<polyline clip-path="url(#clip410)" style="stroke:#000000; stroke-linecap:round; stroke-linejoin:round; stroke-width:4; stroke-opacity:1; fill:none" points="2292.26,1486.45 2292.26,1467.55 "/>
<path clip-path="url(#clip410)" d="M240.392 1517.37 Q236.781 1517.37 234.952 1520.93 Q233.146 1524.47 233.146 1531.6 Q233.146 1538.71 234.952 1542.27 Q236.781 1545.82 240.392 1545.82 Q244.026 1545.82 245.832 1542.27 Q247.66 1538.71 247.66 1531.6 Q247.66 1524.47 245.832 1520.93 Q244.026 1517.37 240.392 1517.37 M240.392 1513.66 Q246.202 1513.66 249.257 1518.27 Q252.336 1522.85 252.336 1531.6 Q252.336 1540.33 249.257 1544.94 Q246.202 1549.52 240.392 1549.52 Q234.582 1549.52 231.503 1544.94 Q228.447 1540.33 228.447 1531.6 Q228.447 1522.85 231.503 1518.27 Q234.582 1513.66 240.392 1513.66 Z" fill="#000000" fill-rule="nonzero" fill-opacity="1" /><path clip-path="url(#clip410)" d="M712.976 1514.29 L731.333 1514.29 L731.333 1518.22 L717.259 1518.22 L717.259 1526.7 Q718.277 1526.35 719.296 1526.19 Q720.314 1526 721.333 1526 Q727.12 1526 730.499 1529.17 Q733.879 1532.34 733.879 1537.76 Q733.879 1543.34 730.407 1546.44 Q726.935 1549.52 720.615 1549.52 Q718.439 1549.52 716.171 1549.15 Q713.925 1548.78 711.518 1548.04 L711.518 1543.34 Q713.601 1544.47 715.823 1545.03 Q718.046 1545.58 720.523 1545.58 Q724.527 1545.58 726.865 1543.48 Q729.203 1541.37 729.203 1537.76 Q729.203 1534.15 726.865 1532.04 Q724.527 1529.94 720.523 1529.94 Q718.648 1529.94 716.773 1530.35 Q714.921 1530.77 712.976 1531.65 L712.976 1514.29 Z" fill="#000000" fill-rule="nonzero" fill-opacity="1" /><path clip-path="url(#clip410)" d="M753.092 1517.37 Q749.481 1517.37 747.652 1520.93 Q745.846 1524.47 745.846 1531.6 Q745.846 1538.71 747.652 1542.27 Q749.481 1545.82 753.092 1545.82 Q756.726 1545.82 758.532 1542.27 Q760.36 1538.71 760.36 1531.6 Q760.36 1524.47 758.532 1520.93 Q756.726 1517.37 753.092 1517.37 M753.092 1513.66 Q758.902 1513.66 761.958 1518.27 Q765.036 1522.85 765.036 1531.6 Q765.036 1540.33 761.958 1544.94 Q758.902 1549.52 753.092 1549.52 Q747.282 1549.52 744.203 1544.94 Q741.147 1540.33 741.147 1531.6 Q741.147 1522.85 744.203 1518.27 Q747.282 1513.66 753.092 1513.66 Z" fill="#000000" fill-rule="nonzero" fill-opacity="1" /><path clip-path="url(#clip410)" d="M783.254 1517.37 Q779.643 1517.37 777.814 1520.93 Q776.008 1524.47 776.008 1531.6 Q776.008 1538.71 777.814 1542.27 Q779.643 1545.82 783.254 1545.82 Q786.888 1545.82 788.693 1542.27 Q790.522 1538.71 790.522 1531.6 Q790.522 1524.47 788.693 1520.93 Q786.888 1517.37 783.254 1517.37 M783.254 1513.66 Q789.064 1513.66 792.119 1518.27 Q795.198 1522.85 795.198 1531.6 Q795.198 1540.33 792.119 1544.94 Q789.064 1549.52 783.254 1549.52 Q777.444 1549.52 774.365 1544.94 Q771.309 1540.33 771.309 1531.6 Q771.309 1522.85 774.365 1518.27 Q777.444 1513.66 783.254 1513.66 Z" fill="#000000" fill-rule="nonzero" fill-opacity="1" /><path clip-path="url(#clip410)" d="M1210.85 1544.91 L1218.49 1544.91 L1218.49 1518.55 L1210.18 1520.21 L1210.18 1515.95 L1218.44 1514.29 L1223.12 1514.29 L1223.12 1544.91 L1230.76 1544.91 L1230.76 1548.85 L1210.85 1548.85 L1210.85 1544.91 Z" fill="#000000" fill-rule="nonzero" fill-opacity="1" /><path clip-path="url(#clip410)" d="M1250.2 1517.37 Q1246.59 1517.37 1244.76 1520.93 Q1242.96 1524.47 1242.96 1531.6 Q1242.96 1538.71 1244.76 1542.27 Q1246.59 1545.82 1250.2 1545.82 Q1253.84 1545.82 1255.64 1542.27 Q1257.47 1538.71 1257.47 1531.6 Q1257.47 1524.47 1255.64 1520.93 Q1253.84 1517.37 1250.2 1517.37 M1250.2 1513.66 Q1256.01 1513.66 1259.07 1518.27 Q1262.15 1522.85 1262.15 1531.6 Q1262.15 1540.33 1259.07 1544.94 Q1256.01 1549.52 1250.2 1549.52 Q1244.39 1549.52 1241.31 1544.94 Q1238.26 1540.33 1238.26 1531.6 Q1238.26 1522.85 1241.31 1518.27 Q1244.39 1513.66 1250.2 1513.66 Z" fill="#000000" fill-rule="nonzero" fill-opacity="1" /><path clip-path="url(#clip410)" d="M1280.36 1517.37 Q1276.75 1517.37 1274.92 1520.93 Q1273.12 1524.47 1273.12 1531.6 Q1273.12 1538.71 1274.92 1542.27 Q1276.75 1545.82 1280.36 1545.82 Q1284 1545.82 1285.8 1542.27 Q1287.63 1538.71 1287.63 1531.6 Q1287.63 1524.47 1285.8 1520.93 Q1284 1517.37 1280.36 1517.37 M1280.36 1513.66 Q1286.17 1513.66 1289.23 1518.27 Q1292.31 1522.85 1292.31 1531.6 Q1292.31 1540.33 1289.23 1544.94 Q1286.17 1549.52 1280.36 1549.52 Q1274.55 1549.52 1271.47 1544.94 Q1268.42 1540.33 1268.42 1531.6 Q1268.42 1522.85 1271.47 1518.27 Q1274.55 1513.66 1280.36 1513.66 Z" fill="#000000" fill-rule="nonzero" fill-opacity="1" /><path clip-path="url(#clip410)" d="M1310.53 1517.37 Q1306.91 1517.37 1305.09 1520.93 Q1303.28 1524.47 1303.28 1531.6 Q1303.28 1538.71 1305.09 1542.27 Q1306.91 1545.82 1310.53 1545.82 Q1314.16 1545.82 1315.97 1542.27 Q1317.79 1538.71 1317.79 1531.6 Q1317.79 1524.47 1315.97 1520.93 Q1314.16 1517.37 1310.53 1517.37 M1310.53 1513.66 Q1316.34 1513.66 1319.39 1518.27 Q1322.47 1522.85 1322.47 1531.6 Q1322.47 1540.33 1319.39 1544.94 Q1316.34 1549.52 1310.53 1549.52 Q1304.72 1549.52 1301.64 1544.94 Q1298.58 1540.33 1298.58 1531.6 Q1298.58 1522.85 1301.64 1518.27 Q1304.72 1513.66 1310.53 1513.66 Z" fill="#000000" fill-rule="nonzero" fill-opacity="1" /><path clip-path="url(#clip410)" d="M1723.82 1544.91 L1731.46 1544.91 L1731.46 1518.55 L1723.14 1520.21 L1723.14 1515.95 L1731.41 1514.29 L1736.08 1514.29 L1736.08 1544.91 L1743.72 1544.91 L1743.72 1548.85 L1723.82 1548.85 L1723.82 1544.91 Z" fill="#000000" fill-rule="nonzero" fill-opacity="1" /><path clip-path="url(#clip410)" d="M1753.21 1514.29 L1771.57 1514.29 L1771.57 1518.22 L1757.5 1518.22 L1757.5 1526.7 Q1758.52 1526.35 1759.53 1526.19 Q1760.55 1526 1761.57 1526 Q1767.36 1526 1770.74 1529.17 Q1774.12 1532.34 1774.12 1537.76 Q1774.12 1543.34 1770.64 1546.44 Q1767.17 1549.52 1760.85 1549.52 Q1758.68 1549.52 1756.41 1549.15 Q1754.16 1548.78 1751.76 1548.04 L1751.76 1543.34 Q1753.84 1544.47 1756.06 1545.03 Q1758.28 1545.58 1760.76 1545.58 Q1764.77 1545.58 1767.1 1543.48 Q1769.44 1541.37 1769.44 1537.76 Q1769.44 1534.15 1767.1 1532.04 Q1764.77 1529.94 1760.76 1529.94 Q1758.89 1529.94 1757.01 1530.35 Q1755.16 1530.77 1753.21 1531.65 L1753.21 1514.29 Z" fill="#000000" fill-rule="nonzero" fill-opacity="1" /><path clip-path="url(#clip410)" d="M1793.33 1517.37 Q1789.72 1517.37 1787.89 1520.93 Q1786.08 1524.47 1786.08 1531.6 Q1786.08 1538.71 1787.89 1542.27 Q1789.72 1545.82 1793.33 1545.82 Q1796.96 1545.82 1798.77 1542.27 Q1800.6 1538.71 1800.6 1531.6 Q1800.6 1524.47 1798.77 1520.93 Q1796.96 1517.37 1793.33 1517.37 M1793.33 1513.66 Q1799.14 1513.66 1802.2 1518.27 Q1805.27 1522.85 1805.27 1531.6 Q1805.27 1540.33 1802.2 1544.94 Q1799.14 1549.52 1793.33 1549.52 Q1787.52 1549.52 1784.44 1544.94 Q1781.39 1540.33 1781.39 1531.6 Q1781.39 1522.85 1784.44 1518.27 Q1787.52 1513.66 1793.33 1513.66 Z" fill="#000000" fill-rule="nonzero" fill-opacity="1" /><path clip-path="url(#clip410)" d="M1823.49 1517.37 Q1819.88 1517.37 1818.05 1520.93 Q1816.25 1524.47 1816.25 1531.6 Q1816.25 1538.71 1818.05 1542.27 Q1819.88 1545.82 1823.49 1545.82 Q1827.13 1545.82 1828.93 1542.27 Q1830.76 1538.71 1830.76 1531.6 Q1830.76 1524.47 1828.93 1520.93 Q1827.13 1517.37 1823.49 1517.37 M1823.49 1513.66 Q1829.3 1513.66 1832.36 1518.27 Q1835.44 1522.85 1835.44 1531.6 Q1835.44 1540.33 1832.36 1544.94 Q1829.3 1549.52 1823.49 1549.52 Q1817.68 1549.52 1814.6 1544.94 Q1811.55 1540.33 1811.55 1531.6 Q1811.55 1522.85 1814.6 1518.27 Q1817.68 1513.66 1823.49 1513.66 Z" fill="#000000" fill-rule="nonzero" fill-opacity="1" /><path clip-path="url(#clip410)" d="M2240.87 1544.91 L2257.19 1544.91 L2257.19 1548.85 L2235.24 1548.85 L2235.24 1544.91 Q2237.91 1542.16 2242.49 1537.53 Q2247.09 1532.88 2248.28 1531.53 Q2250.52 1529.01 2251.4 1527.27 Q2252.3 1525.51 2252.3 1523.82 Q2252.3 1521.07 2250.36 1519.33 Q2248.44 1517.6 2245.34 1517.6 Q2243.14 1517.6 2240.68 1518.36 Q2238.25 1519.13 2235.47 1520.68 L2235.47 1515.95 Q2238.3 1514.82 2240.75 1514.24 Q2243.21 1513.66 2245.24 1513.66 Q2250.61 1513.66 2253.81 1516.35 Q2257 1519.03 2257 1523.52 Q2257 1525.65 2256.19 1527.57 Q2255.41 1529.47 2253.3 1532.07 Q2252.72 1532.74 2249.62 1535.95 Q2246.52 1539.15 2240.87 1544.91 Z" fill="#000000" fill-rule="nonzero" fill-opacity="1" /><path clip-path="url(#clip410)" d="M2277 1517.37 Q2273.39 1517.37 2271.56 1520.93 Q2269.76 1524.47 2269.76 1531.6 Q2269.76 1538.71 2271.56 1542.27 Q2273.39 1545.82 2277 1545.82 Q2280.64 1545.82 2282.44 1542.27 Q2284.27 1538.71 2284.27 1531.6 Q2284.27 1524.47 2282.44 1520.93 Q2280.64 1517.37 2277 1517.37 M2277 1513.66 Q2282.81 1513.66 2285.87 1518.27 Q2288.95 1522.85 2288.95 1531.6 Q2288.95 1540.33 2285.87 1544.94 Q2282.81 1549.52 2277 1549.52 Q2271.19 1549.52 2268.11 1544.94 Q2265.06 1540.33 2265.06 1531.6 Q2265.06 1522.85 2268.11 1518.27 Q2271.19 1513.66 2277 1513.66 Z" fill="#000000" fill-rule="nonzero" fill-opacity="1" /><path clip-path="url(#clip410)" d="M2307.16 1517.37 Q2303.55 1517.37 2301.72 1520.93 Q2299.92 1524.47 2299.92 1531.6 Q2299.92 1538.71 2301.72 1542.27 Q2303.55 1545.82 2307.16 1545.82 Q2310.8 1545.82 2312.6 1542.27 Q2314.43 1538.71 2314.43 1531.6 Q2314.43 1524.47 2312.6 1520.93 Q2310.8 1517.37 2307.16 1517.37 M2307.16 1513.66 Q2312.97 1513.66 2316.03 1518.27 Q2319.11 1522.85 2319.11 1531.6 Q2319.11 1540.33 2316.03 1544.94 Q2312.97 1549.52 2307.16 1549.52 Q2301.35 1549.52 2298.28 1544.94 Q2295.22 1540.33 2295.22 1531.6 Q2295.22 1522.85 2298.28 1518.27 Q2301.35 1513.66 2307.16 1513.66 Z" fill="#000000" fill-rule="nonzero" fill-opacity="1" /><path clip-path="url(#clip410)" d="M2337.33 1517.37 Q2333.71 1517.37 2331.89 1520.93 Q2330.08 1524.47 2330.08 1531.6 Q2330.08 1538.71 2331.89 1542.27 Q2333.71 1545.82 2337.33 1545.82 Q2340.96 1545.82 2342.77 1542.27 Q2344.59 1538.71 2344.59 1531.6 Q2344.59 1524.47 2342.77 1520.93 Q2340.96 1517.37 2337.33 1517.37 M2337.33 1513.66 Q2343.14 1513.66 2346.19 1518.27 Q2349.27 1522.85 2349.27 1531.6 Q2349.27 1540.33 2346.19 1544.94 Q2343.14 1549.52 2337.33 1549.52 Q2331.52 1549.52 2328.44 1544.94 Q2325.38 1540.33 2325.38 1531.6 Q2325.38 1522.85 2328.44 1518.27 Q2331.52 1513.66 2337.33 1513.66 Z" fill="#000000" fill-rule="nonzero" fill-opacity="1" /><polyline clip-path="url(#clip412)" style="stroke:#000000; stroke-linecap:round; stroke-linejoin:round; stroke-width:2; stroke-opacity:0.1; fill:none" points="178.867,1376.93 2352.76,1376.93 "/>
<polyline clip-path="url(#clip412)" style="stroke:#000000; stroke-linecap:round; stroke-linejoin:round; stroke-width:2; stroke-opacity:0.1; fill:none" points="178.867,1062.69 2352.76,1062.69 "/>
<polyline clip-path="url(#clip412)" style="stroke:#000000; stroke-linecap:round; stroke-linejoin:round; stroke-width:2; stroke-opacity:0.1; fill:none" points="178.867,748.459 2352.76,748.459 "/>
<polyline clip-path="url(#clip412)" style="stroke:#000000; stroke-linecap:round; stroke-linejoin:round; stroke-width:2; stroke-opacity:0.1; fill:none" points="178.867,434.225 2352.76,434.225 "/>
<polyline clip-path="url(#clip412)" style="stroke:#000000; stroke-linecap:round; stroke-linejoin:round; stroke-width:2; stroke-opacity:0.1; fill:none" points="178.867,119.991 2352.76,119.991 "/>
<polyline clip-path="url(#clip410)" style="stroke:#000000; stroke-linecap:round; stroke-linejoin:round; stroke-width:4; stroke-opacity:1; fill:none" points="178.867,1486.45 178.867,47.2441 "/>
<polyline clip-path="url(#clip410)" style="stroke:#000000; stroke-linecap:round; stroke-linejoin:round; stroke-width:4; stroke-opacity:1; fill:none" points="178.867,1376.93 197.764,1376.93 "/>
<polyline clip-path="url(#clip410)" style="stroke:#000000; stroke-linecap:round; stroke-linejoin:round; stroke-width:4; stroke-opacity:1; fill:none" points="178.867,1062.69 197.764,1062.69 "/>
<polyline clip-path="url(#clip410)" style="stroke:#000000; stroke-linecap:round; stroke-linejoin:round; stroke-width:4; stroke-opacity:1; fill:none" points="178.867,748.459 197.764,748.459 "/>
<polyline clip-path="url(#clip410)" style="stroke:#000000; stroke-linecap:round; stroke-linejoin:round; stroke-width:4; stroke-opacity:1; fill:none" points="178.867,434.225 197.764,434.225 "/>
<polyline clip-path="url(#clip410)" style="stroke:#000000; stroke-linecap:round; stroke-linejoin:round; stroke-width:4; stroke-opacity:1; fill:none" points="178.867,119.991 197.764,119.991 "/>
<path clip-path="url(#clip410)" d="M50.9921 1377.38 L80.6679 1377.38 L80.6679 1381.31 L50.9921 1381.31 L50.9921 1377.38 Z" fill="#000000" fill-rule="nonzero" fill-opacity="1" /><path clip-path="url(#clip410)" d="M101.339 1375.06 Q98.1909 1375.06 96.3391 1377.22 Q94.5104 1379.37 94.5104 1383.12 Q94.5104 1386.85 96.3391 1389.02 Q98.1909 1391.17 101.339 1391.17 Q104.487 1391.17 106.316 1389.02 Q108.168 1386.85 108.168 1383.12 Q108.168 1379.37 106.316 1377.22 Q104.487 1375.06 101.339 1375.06 M110.621 1360.41 L110.621 1364.67 Q108.862 1363.84 107.057 1363.4 Q105.274 1362.96 103.515 1362.96 Q98.8854 1362.96 96.4317 1366.08 Q94.0012 1369.21 93.6539 1375.53 Q95.0197 1373.51 97.0798 1372.45 Q99.14 1371.36 101.617 1371.36 Q106.825 1371.36 109.834 1374.53 Q112.867 1377.68 112.867 1383.12 Q112.867 1388.44 109.719 1391.66 Q106.571 1394.88 101.339 1394.88 Q95.3437 1394.88 92.1725 1390.29 Q89.0012 1385.69 89.0012 1376.96 Q89.0012 1368.77 92.89 1363.91 Q96.7789 1359.02 103.33 1359.02 Q105.089 1359.02 106.871 1359.37 Q108.677 1359.72 110.621 1360.41 Z" fill="#000000" fill-rule="nonzero" fill-opacity="1" /><path clip-path="url(#clip410)" d="M130.922 1362.73 Q127.311 1362.73 125.482 1366.29 Q123.677 1369.83 123.677 1376.96 Q123.677 1384.07 125.482 1387.63 Q127.311 1391.17 130.922 1391.17 Q134.556 1391.17 136.362 1387.63 Q138.191 1384.07 138.191 1376.96 Q138.191 1369.83 136.362 1366.29 Q134.556 1362.73 130.922 1362.73 M130.922 1359.02 Q136.732 1359.02 139.788 1363.63 Q142.867 1368.21 142.867 1376.96 Q142.867 1385.69 139.788 1390.29 Q136.732 1394.88 130.922 1394.88 Q125.112 1394.88 122.033 1390.29 Q118.978 1385.69 118.978 1376.96 Q118.978 1368.21 122.033 1363.63 Q125.112 1359.02 130.922 1359.02 Z" fill="#000000" fill-rule="nonzero" fill-opacity="1" /><path clip-path="url(#clip410)" d="M50.9921 1063.14 L80.6679 1063.14 L80.6679 1067.08 L50.9921 1067.08 L50.9921 1063.14 Z" fill="#000000" fill-rule="nonzero" fill-opacity="1" /><path clip-path="url(#clip410)" d="M90.8067 1045.41 L109.163 1045.41 L109.163 1049.35 L95.0891 1049.35 L95.0891 1057.82 Q96.1076 1057.47 97.1261 1057.31 Q98.1447 1057.13 99.1632 1057.13 Q104.95 1057.13 108.33 1060.3 Q111.709 1063.47 111.709 1068.89 Q111.709 1074.46 108.237 1077.57 Q104.765 1080.64 98.4456 1080.64 Q96.2697 1080.64 94.0012 1080.27 Q91.7558 1079.9 89.3484 1079.16 L89.3484 1074.46 Q91.4317 1075.6 93.6539 1076.15 Q95.8761 1076.71 98.353 1076.71 Q102.358 1076.71 104.696 1074.6 Q107.033 1072.5 107.033 1068.89 Q107.033 1065.27 104.696 1063.17 Q102.358 1061.06 98.353 1061.06 Q96.478 1061.06 94.603 1061.48 Q92.7512 1061.89 90.8067 1062.77 L90.8067 1045.41 Z" fill="#000000" fill-rule="nonzero" fill-opacity="1" /><path clip-path="url(#clip410)" d="M130.922 1048.49 Q127.311 1048.49 125.482 1052.06 Q123.677 1055.6 123.677 1062.73 Q123.677 1069.83 125.482 1073.4 Q127.311 1076.94 130.922 1076.94 Q134.556 1076.94 136.362 1073.4 Q138.191 1069.83 138.191 1062.73 Q138.191 1055.6 136.362 1052.06 Q134.556 1048.49 130.922 1048.49 M130.922 1044.79 Q136.732 1044.79 139.788 1049.39 Q142.867 1053.98 142.867 1062.73 Q142.867 1071.45 139.788 1076.06 Q136.732 1080.64 130.922 1080.64 Q125.112 1080.64 122.033 1076.06 Q118.978 1071.45 118.978 1062.73 Q118.978 1053.98 122.033 1049.39 Q125.112 1044.79 130.922 1044.79 Z" fill="#000000" fill-rule="nonzero" fill-opacity="1" /><path clip-path="url(#clip410)" d="M50.9921 748.911 L80.6679 748.911 L80.6679 752.846 L50.9921 752.846 L50.9921 748.911 Z" fill="#000000" fill-rule="nonzero" fill-opacity="1" /><path clip-path="url(#clip410)" d="M103.608 735.253 L91.8021 753.702 L103.608 753.702 L103.608 735.253 M102.381 731.179 L108.26 731.179 L108.26 753.702 L113.191 753.702 L113.191 757.591 L108.26 757.591 L108.26 765.739 L103.608 765.739 L103.608 757.591 L88.0058 757.591 L88.0058 753.077 L102.381 731.179 Z" fill="#000000" fill-rule="nonzero" fill-opacity="1" /><path clip-path="url(#clip410)" d="M130.922 734.258 Q127.311 734.258 125.482 737.823 Q123.677 741.364 123.677 748.494 Q123.677 755.6 125.482 759.165 Q127.311 762.707 130.922 762.707 Q134.556 762.707 136.362 759.165 Q138.191 755.6 138.191 748.494 Q138.191 741.364 136.362 737.823 Q134.556 734.258 130.922 734.258 M130.922 730.554 Q136.732 730.554 139.788 735.161 Q142.867 739.744 142.867 748.494 Q142.867 757.221 139.788 761.827 Q136.732 766.41 130.922 766.41 Q125.112 766.41 122.033 761.827 Q118.978 757.221 118.978 748.494 Q118.978 739.744 122.033 735.161 Q125.112 730.554 130.922 730.554 Z" fill="#000000" fill-rule="nonzero" fill-opacity="1" /><path clip-path="url(#clip410)" d="M50.9921 434.677 L80.6679 434.677 L80.6679 438.612 L50.9921 438.612 L50.9921 434.677 Z" fill="#000000" fill-rule="nonzero" fill-opacity="1" /><path clip-path="url(#clip410)" d="M104.927 432.871 Q108.283 433.589 110.158 435.857 Q112.057 438.126 112.057 441.459 Q112.057 446.575 108.538 449.376 Q105.02 452.177 98.5382 452.177 Q96.3623 452.177 94.0475 451.737 Q91.7558 451.32 89.3021 450.464 L89.3021 445.95 Q91.2465 447.084 93.5613 447.663 Q95.8761 448.241 98.3993 448.241 Q102.797 448.241 105.089 446.505 Q107.404 444.769 107.404 441.459 Q107.404 438.404 105.251 436.691 Q103.121 434.954 99.3021 434.954 L95.2743 434.954 L95.2743 431.112 L99.4872 431.112 Q102.936 431.112 104.765 429.746 Q106.594 428.357 106.594 425.765 Q106.594 423.103 104.696 421.691 Q102.821 420.255 99.3021 420.255 Q97.3808 420.255 95.1817 420.672 Q92.9826 421.089 90.3438 421.968 L90.3438 417.802 Q93.0058 417.061 95.3206 416.691 Q97.6585 416.32 99.7187 416.32 Q105.043 416.32 108.145 418.751 Q111.246 421.158 111.246 425.279 Q111.246 428.149 109.603 430.14 Q107.959 432.107 104.927 432.871 Z" fill="#000000" fill-rule="nonzero" fill-opacity="1" /><path clip-path="url(#clip410)" d="M130.922 420.024 Q127.311 420.024 125.482 423.589 Q123.677 427.13 123.677 434.26 Q123.677 441.366 125.482 444.931 Q127.311 448.473 130.922 448.473 Q134.556 448.473 136.362 444.931 Q138.191 441.366 138.191 434.26 Q138.191 427.13 136.362 423.589 Q134.556 420.024 130.922 420.024 M130.922 416.32 Q136.732 416.32 139.788 420.927 Q142.867 425.51 142.867 434.26 Q142.867 442.987 139.788 447.593 Q136.732 452.177 130.922 452.177 Q125.112 452.177 122.033 447.593 Q118.978 442.987 118.978 434.26 Q118.978 425.51 122.033 420.927 Q125.112 416.32 130.922 416.32 Z" fill="#000000" fill-rule="nonzero" fill-opacity="1" /><path clip-path="url(#clip410)" d="M50.9921 120.443 L80.6679 120.443 L80.6679 124.378 L50.9921 124.378 L50.9921 120.443 Z" fill="#000000" fill-rule="nonzero" fill-opacity="1" /><path clip-path="url(#clip410)" d="M94.7882 133.336 L111.108 133.336 L111.108 137.271 L89.1632 137.271 L89.1632 133.336 Q91.8252 130.582 96.4085 125.952 Q101.015 121.299 102.196 119.957 Q104.441 117.434 105.321 115.698 Q106.223 113.938 106.223 112.248 Q106.223 109.494 104.279 107.758 Q102.358 106.022 99.2558 106.022 Q97.0567 106.022 94.603 106.786 Q92.1725 107.549 89.3947 109.1 L89.3947 104.378 Q92.2188 103.244 94.6724 102.665 Q97.1261 102.086 99.1632 102.086 Q104.534 102.086 107.728 104.772 Q110.922 107.457 110.922 111.948 Q110.922 114.077 110.112 115.998 Q109.325 117.897 107.219 120.489 Q106.64 121.16 103.538 124.378 Q100.436 127.572 94.7882 133.336 Z" fill="#000000" fill-rule="nonzero" fill-opacity="1" /><path clip-path="url(#clip410)" d="M130.922 105.79 Q127.311 105.79 125.482 109.355 Q123.677 112.897 123.677 120.026 Q123.677 127.133 125.482 130.697 Q127.311 134.239 130.922 134.239 Q134.556 134.239 136.362 130.697 Q138.191 127.133 138.191 120.026 Q138.191 112.897 136.362 109.355 Q134.556 105.79 130.922 105.79 M130.922 102.086 Q136.732 102.086 139.788 106.693 Q142.867 111.276 142.867 120.026 Q142.867 128.753 139.788 133.359 Q136.732 137.943 130.922 137.943 Q125.112 137.943 122.033 133.359 Q118.978 128.753 118.978 120.026 Q118.978 111.276 122.033 106.693 Q125.112 102.086 130.922 102.086 Z" fill="#000000" fill-rule="nonzero" fill-opacity="1" /><polyline clip-path="url(#clip412)" style="stroke:#009af9; stroke-linecap:round; stroke-linejoin:round; stroke-width:4; stroke-opacity:1; fill:none" points="240.392,515.232 241.418,515.204 242.444,602.308 243.47,602.278 244.496,297.336 245.521,297.272 246.547,711.017 247.573,710.979 248.599,841.694 249.625,841.686 250.651,449.672 251.677,449.652 252.703,798.051 253.729,798.031 254.755,493.216 255.781,493.205 256.807,819.775 257.833,819.751 258.859,362.559 259.885,362.511 260.91,405.982 261.936,405.967 262.962,732.511 263.988,732.482 265.014,863.122 266.04,863.094 267.066,514.758 268.092,514.723 269.118,797.799 270.144,797.789 271.17,580.095 272.196,580.087 273.222,580.181 274.248,580.154 275.274,819.403 276.299,819.382 277.325,253.598 278.351,253.541 279.377,579.871 280.403,579.848 281.429,1036.92 282.455,1036.9 283.481,471.108 284.507,471.062 285.533,536.193 286.559,536.161 287.585,623.227 288.611,623.213 289.637,383.863 290.662,383.828 291.688,514.461 292.714,514.425 293.74,579.744 294.766,579.734 295.792,1014.72 296.818,1014.7 297.844,710.262 298.87,710.24 299.896,818.955 300.922,818.934 301.948,514.388 302.974,514.353 304,775.215 305.026,775.2 306.051,601.607 307.077,601.564 308.103,948.799 309.129,948.759 310.155,253.354 311.181,253.319 312.207,557.676 313.233,557.672 314.259,883.708 315.285,883.689 316.311,796.655 317.337,796.608 318.363,1100.91 319.389,1100.86 320.415,645.09 321.44,645.062 322.466,492.58 323.492,492.547 324.518,471.338 325.544,471.257 326.57,405.571 327.596,405.537 328.622,470.664 329.648,470.642 330.674,558.067 331.7,558.025 332.726,470.773 333.752,470.727 334.778,774.425 335.804,774.409 336.829,687.526 337.855,687.486 338.881,840.118 339.907,840.107 340.933,775.074 341.959,775.043 342.985,362.223 344.011,362.174 345.037,710.248 346.063,710.223 347.089,688.118 348.115,688.098 349.141,882.943 350.167,882.917 351.193,535.848 352.218,535.838 353.244,752.006 354.27,751.982 355.296,796.325 356.322,796.306 357.348,860.97 358.374,860.953 359.4,882.071 360.426,882.024 361.452,384.455 362.478,384.421 363.504,883.558 364.53,883.544 365.556,492.86 366.581,492.813 367.607,622.496 368.633,622.467 369.659,557.216 370.685,557.198 371.711,253.207 372.737,253.179 373.763,970.159 374.789,970.133 375.815,666.178 376.841,666.147 377.867,1142.37 378.893,1142.33 379.919,1012.71 380.945,1012.7 381.97,709.71 382.996,709.667 384.022,622.108 385.048,622.094 386.074,1166.59 387.1,1166.59 388.126,427.451 389.152,427.416 390.178,708.873 391.204,708.855 392.23,535.993 393.256,535.977 394.282,491.813 395.308,491.797 396.334,535.94 397.359,535.908 398.385,688.905 399.411,688.884 400.437,469.724 401.463,469.713 402.489,903.958 403.515,903.931 404.541,1011.01 405.567,1010.96 406.593,493.083 407.619,493.032 408.645,492.834 409.671,492.803 410.697,579.726 411.723,579.703 412.748,838.378 413.774,838.358 414.8,1445.72 415.826,1445.63 416.852,904.28 417.878,904.259 418.904,427.735 419.93,427.716 420.956,253.641 421.982,253.612 423.008,666.528 424.034,666.508 425.06,969.541 426.086,969.528 427.112,448.396 428.137,448.375 429.163,687.57 430.189,687.56 431.215,644.75 432.241,644.701 433.267,275.436 434.293,275.403 435.319,751.691 436.345,751.682 437.371,189.422 438.397,189.349 439.423,360.617 440.449,360.598 441.475,471.128 442.5,471.081 443.526,642.376 444.552,642.364 445.578,1055.04 446.604,1054.99 447.63,383.411 448.656,383.377 449.682,622.108 450.708,622.082 451.734,469.704 452.76,469.679 453.786,837.77 454.812,837.757 455.838,859.159 456.864,859.137 457.889,774.757 458.915,774.734 459.941,578.801 460.967,578.788 461.993,664.766 463.019,664.748 464.045,706.97 465.071,706.926 466.097,751.055 467.123,751.036 468.149,471.444 469.175,471.387 470.201,533.538 471.227,533.527 472.253,1033.57 473.278,1033.56 474.304,578.935 475.33,578.895 476.356,862.174 477.382,862.175 478.408,1182.96 479.434,1182.9 480.46,318.154 481.486,318.134 482.512,600.779 483.538,600.743 484.564,729.559 485.59,729.54 486.616,557.388 487.642,557.352 488.667,102.416 489.693,102.364 490.719,665.54 491.745,665.522 492.771,557.211 493.797,557.186 494.823,881.435 495.849,881.426 496.875,664.912 497.901,664.886 498.927,361.621 499.953,361.596 500.979,1250.22 502.005,1250.21 503.031,684.699 504.056,684.673 505.082,1032.09 506.108,1032.08 507.134,405.459 508.16,405.428 509.186,923.47 510.212,923.451 511.238,856.263 512.264,856.226 513.29,903.364 514.316,903.346 515.342,619.525 516.368,619.513 517.394,275.367 518.419,275.334 519.445,687.181 520.471,687.152 521.497,728.788 522.523,728.773 523.549,773.093 524.575,773.082 525.601,557.068 526.627,557.019 527.653,770.813 528.679,770.79 529.705,771.808 530.731,771.774 531.757,449.3 532.783,449.261 533.808,382.766 534.834,382.745 535.86,664.927 536.886,664.888 537.912,468.233 538.938,468.219 539.964,838.863 540.99,838.811 542.016,731.104 543.042,731.078 544.068,707.932 545.094,707.923 546.12,857.129 547.146,857.11 548.172,535.5 549.197,535.483 550.223,794.066 551.249,794.046 552.275,426.132 553.301,426.113 554.327,426.095 555.353,426.077 556.379,578.38 557.405,578.346 558.431,641.266 559.457,641.24 560.483,902.78 561.509,902.739 562.535,663.748 563.561,663.735 564.586,408.156 565.612,408.084 566.638,685.837 567.664,685.816 568.69,554.79 569.716,554.772 570.742,360.544 571.768,360.525 572.794,665.689 573.82,665.643 574.846,596.871 575.872,596.856 576.898,450.242 577.924,450.189 578.95,577.715 579.975,577.69 581.001,535.435 582.027,535.395 583.053,969.137 584.079,969.131 585.105,427.529 586.131,427.48 587.157,555.407 588.183,555.389 589.209,361.236 590.235,361.21 591.261,557.201 592.287,557.18 593.313,924.569 594.338,924.556 595.364,467.491 596.39,467.476 597.416,556.833 598.442,556.796 599.468,577.099 600.494,577.089 601.52,404.597 602.546,404.562 603.572,595.77 604.598,595.755 605.624,684.566 606.65,684.538 607.676,448.287 608.702,448.244 609.727,706.308 610.753,706.281 611.779,597.185 612.805,597.171 613.831,403.458 614.857,403.442 615.883,384.784 616.909,384.723 617.935,597.048 618.961,597.035 619.987,876.615 621.013,876.583 622.039,815.182 623.065,815.169 624.091,988.03 625.116,988.012 626.142,533.658 627.168,533.629 628.194,358.913 629.22,358.894 630.246,446.418 631.272,446.39 632.298,899.893 633.324,899.866 634.35,659.142 635.376,659.118 636.402,641.345 637.428,641.322 638.454,706.984 639.48,706.974 640.505,491.989 641.531,491.937 642.557,725.954 643.583,725.934 644.609,337.267 645.635,337.256 646.661,724.288 647.687,724.252 648.713,1073.56 649.739,1073.54 650.765,769.028 651.791,769.012 652.817,620.173 653.843,620.144 654.869,1029.98 655.894,1029.97 656.92,340.286 657.946,340.234 658.972,640.789 659.998,640.783 661.024,682.371 662.05,682.354 663.076,662.739 664.102,662.721 665.128,618.883 666.154,618.868 667.18,770.291 668.206,770.273 669.232,637.612 670.257,637.587 671.283,832.457 672.309,832.438 673.335,534.776 674.361,534.743 675.387,596.119 676.413,596.099 677.439,723.203 678.465,723.147 679.491,577.365 680.517,577.33 681.543,272.917 682.569,272.899 683.595,872.338 684.621,872.293 685.646,898.819 686.672,898.778 687.698,640.218 688.724,640.202 689.75,792.05 690.776,792.04 691.802,661.246 692.828,661.22 693.854,574.379 694.88,574.366 695.906,962.346 696.932,962.287 697.958,385.233 698.984,385.178 700.01,275.025 701.035,274.992 702.061,950.647 703.087,950.619 704.113,532.498 705.139,532.482 706.165,724.617 707.191,724.605 708.217,707.916 709.243,707.892 710.269,836.53 711.295,836.515 712.321,512.738 713.347,512.708 714.373,1005.29 715.399,1005.28 716.424,297.402 717.45,297.365 718.476,575.813 719.502,575.788 720.528,1067.24 721.554,1067.18 722.58,939.795 723.606,939.746 724.632,898.139 725.658,898.107 726.684,770.137 727.71,770.116 728.736,708.515 729.762,708.493 730.788,576.293 731.813,576.272 732.839,507.171 733.865,507.141 734.891,530.448 735.917,530.437 736.943,426.419 737.969,426.38 738.995,1178.49 740.021,1178.47 741.047,468.888 742.073,468.864 743.099,899.163 744.125,899.155 745.151,493.248 746.176,493.196 747.202,596.137 748.228,596.123 749.254,556.583 750.28,556.546 751.306,340.896 752.332,340.85 753.358,619.927 754.384,619.913 755.41,490.611 756.436,490.598 757.462,853.021 758.488,852.999 759.514,597.896 760.54,597.872 761.565,468.631 762.591,468.62 763.617,297.358 764.643,297.321 765.669,428.517 766.695,428.452 767.721,643.946 768.747,643.892 769.773,230.815 770.799,230.789 771.825,492.111 772.851,492.063 773.877,788.749 774.903,788.741 775.929,748.19 776.954,748.169 777.98,636.976 779.006,636.964 780.032,450.244 781.058,450.174 782.084,551.525 783.11,551.514 784.136,809.5 785.162,809.477 786.188,877.71 787.214,877.679 788.24,595.364 789.266,595.35 790.292,594.894 791.318,594.881 792.343,678.594 793.369,678.578 794.395,1159.65 795.421,1159.63 796.447,658.31 797.473,658.294 798.499,661.372 799.525,661.365 800.551,598.441 801.577,598.426 802.603,211.588 803.629,211.542 804.655,531.956 805.681,531.936 806.707,514.22 807.732,514.167 808.758,495.357 809.784,495.315 810.81,683.451 811.836,683.442 812.862,553.877 813.888,553.87 814.914,707.506 815.94,707.485 816.966,1116.57 817.992,1116.58 819.018,703.738 820.044,703.717 821.07,790.209 822.095,790.189 823.121,660.988 824.147,660.97 825.173,831.31 826.199,831.266 827.225,402.254 828.251,402.238 829.277,595.063 830.303,595.049 831.329,1141.16 832.355,1141.15 833.381,475.289 834.407,475.174 835.433,616.039 836.459,616.017 837.484,533.438 838.51,533.405 839.536,684.994 840.562,684.973 841.588,638.285 842.614,638.268 843.64,533.759 844.666,533.726 845.692,765.084 846.718,765.069 847.744,897.818 848.77,897.809 849.796,829.112 850.822,829.09 851.848,382.71 852.873,382.677 853.899,660.531 854.925,660.512 855.951,742.105 856.977,742.07 858.003,763.555 859.029,763.531 860.055,615.318 861.081,615.283 862.107,701.404 863.133,701.388 864.159,513.277 865.185,513.266 866.211,490.374 867.237,490.341 868.262,598.066 869.288,598.062 870.314,420.661 871.34,420.649 872.366,592.191 873.392,592.177 874.418,509.027 875.444,509.012 876.47,578.259 877.496,578.211 878.522,679.981 879.548,679.964 880.574,384.825 881.6,384.784 882.626,634.614 883.651,634.589 884.677,616.367 885.703,616.352 886.729,403.778 887.755,403.742 888.781,1023.96 889.807,1023.95 890.833,488.822 891.859,488.789 892.885,466.771 893.911,466.74 894.937,834.08 895.963,834.042 896.989,424.119 898.014,424.094 899.04,680.054 900.066,680.028 901.092,789.485 902.118,789.461 903.144,849.126 904.17,849.105 905.196,550.084 906.222,550.073 907.248,470.101 908.274,470.057 909.3,596.257 910.326,596.235 911.352,745.509 912.378,745.503 913.403,467.07 914.429,467.046 915.455,678.434 916.481,678.418 917.507,666.696 918.533,666.666 919.559,622.984 920.585,622.964 921.611,915.326 922.637,915.314 923.663,571.414 924.689,571.402 925.715,705.919 926.741,705.875 927.767,552.362 928.792,552.343 929.818,384.546 930.844,384.491 931.87,552.395 932.896,552.386 933.922,725.254 934.948,725.238 935.974,572.342 937,572.336 938.026,833.121 939.052,833.112 940.078,574.22 941.104,574.198 942.13,675.41 943.156,675.394 944.181,548.124 945.207,548.093 946.233,536.109 947.259,536.069 948.285,214.238 949.311,214.158 950.337,895.628 951.363,895.606 952.389,915.138 953.415,915.129 954.441,788.241 955.467,788.221 956.493,792.245 957.519,792.233 958.545,533.167 959.57,533.133 960.596,781.337 961.622,781.305 962.648,1040.48 963.674,1040.45 964.7,614.47 965.726,614.448 966.752,749.162 967.778,749.126 968.804,895.073 969.83,895.059 970.856,879.998 971.882,879.952 972.908,957.821 973.933,957.801 974.959,467.914 975.985,467.883 977.011,209.278 978.037,209.266 979.063,655.477 980.089,655.462 981.115,758.875 982.141,758.842 983.167,484.834 984.193,484.809 985.219,833.968 986.245,833.943 987.271,766.711 988.297,766.704 989.322,638.461 990.348,638.424 991.374,398.399 992.4,398.387 993.426,399.555 994.452,399.519 995.478,744.007 996.504,743.999 997.53,811.237 998.556,811.224 999.582,470.159 1000.61,470.114 1001.63,1191.68 1002.66,1191.65 1003.69,807.092 1004.71,807.076 1005.74,803.57 1006.76,803.552 1007.79,492.35 1008.82,492.3 1009.84,848.102 1010.87,848.08 1011.89,941.659 1012.92,941.628 1013.94,765.29 1014.97,765.273 1016,634.718 1017.02,634.693 1018.05,706.214 1019.07,706.172 1020.1,679.381 1021.13,679.34 1022.15,105.667 1023.18,105.614 1024.2,894.308 1025.23,894.294 1026.26,492.172 1027.28,492.123 1028.31,876.916 1029.33,876.899 1030.36,296.146 1031.39,296.101 1032.41,728.509 1033.44,728.484 1034.46,676.111 1035.49,676.08 1036.52,591.406 1037.54,591.386 1038.57,1004.35 1039.59,1004.31 1040.62,467.703 1041.65,467.672 1042.67,297.322 1043.7,297.284 1044.72,976.044 1045.75,976.028 1046.77,1020.73 1047.8,1020.72 1048.83,1123.52 1049.85,1123.49 1050.88,688.868 1051.9,688.783 1052.93,853.376 1053.96,853.349 1054.98,949.978 1056.01,949.944 1057.03,672.607 1058.06,672.545 1059.09,567.294 1060.11,567.279 1061.14,679.602 1062.16,679.574 1063.19,644.329 1064.22,644.303 1065.24,705.423 1066.27,705.389 1067.29,482.741 1068.32,482.725 1069.35,787.169 1070.37,787.149 1071.4,694.458 1072.42,694.436 1073.45,974.186 1074.47,974.157 1075.5,826.072 1076.53,826.043 1077.55,471.075 1078.58,471.026 1079.6,640.968 1080.63,640.924 1081.66,469.739 1082.68,469.69 1083.71,679.883 1084.73,679.861 1085.76,810.314 1086.79,810.306 1087.81,359.915 1088.84,359.888 1089.86,426.658 1090.89,426.617 1091.92,342.281 1092.94,342.251 1093.97,548.561 1094.99,548.556 1096.02,617.962 1097.05,617.931 1098.07,676.916 1099.1,676.9 1100.12,292.979 1101.15,292.958 1102.18,699.015 1103.2,699.01 1104.23,425.937 1105.25,425.899 1106.28,782.632 1107.3,782.617 1108.33,801.904 1109.36,801.882 1110.38,874.348 1111.41,874.324 1112.43,492.827 1113.46,492.796 1114.49,870.289 1115.51,870.264 1116.54,884.89 1117.56,884.859 1118.59,528.514 1119.62,528.497 1120.64,716.204 1121.67,716.189 1122.69,701.565 1123.72,701.541 1124.75,1090.31 1125.77,1090.29 1126.8,639.452 1127.82,639.421 1128.85,426.733 1129.88,426.712 1130.9,573.095 1131.93,573.073 1132.95,568.346 1133.98,568.327 1135,787.074 1136.03,787.066 1137.06,728.298 1138.08,728.272 1139.11,403.39 1140.13,403.361 1141.16,683.377 1142.19,683.339 1143.21,636.325 1144.24,636.301 1145.26,785.469 1146.29,785.445 1147.32,637.801 1148.34,637.757 1149.37,889.465 1150.39,889.444 1151.42,612.168 1152.45,612.147 1153.47,484.433 1154.5,484.42 1155.52,808.056 1156.55,808.045 1157.58,676.147 1158.6,676.13 1159.63,656.899 1160.65,656.88 1161.68,718.928 1162.71,718.91 1163.73,532.722 1164.76,532.687 1165.78,568.579 1166.81,568.57 1167.83,851.667 1168.86,851.662 1169.89,637.652 1170.91,637.608 1171.94,999.656 1172.96,999.646 1173.99,380.998 1175.02,380.965 1176.04,555.457 1177.07,555.412 1178.09,466.334 1179.12,466.309 1180.15,827.722 1181.17,827.717 1182.2,746.341 1183.22,746.305 1184.25,506.211 1185.28,506.196 1186.3,674.373 1187.33,674.357 1188.35,1017.62 1189.38,1017.59 1190.41,488.386 1191.43,488.358 1192.46,445.438 1193.48,445.396 1194.51,88.0584 1195.53,87.9763 1196.56,611.519 1197.59,611.497 1198.61,655.651 1199.64,655.626 1200.66,868.564 1201.69,868.538 1202.72,402.735 1203.74,402.698 1204.77,824.253 1205.79,824.229 1206.82,466.178 1207.85,466.167 1208.87,359.961 1209.9,359.947 1210.92,864.676 1211.95,864.656 1212.98,886.85 1214,886.83 1215.03,638.488 1216.05,638.471 1217.08,670.19 1218.11,670.172 1219.13,533.065 1220.16,533.024 1221.18,585.348 1222.21,585.334 1223.24,723.851 1224.26,723.838 1225.29,510.199 1226.31,510.168 1227.34,890.904 1228.36,890.883 1229.39,630.104 1230.42,630.092 1231.44,954.197 1232.47,954.188 1233.49,438.678 1234.52,438.665 1235.55,696.441 1236.57,696.434 1237.6,482.869 1238.62,482.853 1239.65,616.934 1240.68,616.903 1241.7,424.792 1242.73,424.751 1243.75,739.685 1244.78,739.665 1245.81,665.008 1246.83,664.979 1247.86,927.188 1248.88,927.165 1249.91,1092.69 1250.94,1092.63 1251.96,589.719 1252.99,589.709 1254.01,954.796 1255.04,954.783 1256.06,613.851 1257.09,613.815 1258.12,377.581 1259.14,377.566 1260.17,634.453 1261.19,634.435 1262.22,874.754 1263.25,874.736 1264.27,615.558 1265.3,615.527 1266.32,576.728 1267.35,576.704 1268.38,553.752 1269.4,553.713 1270.43,657.062 1271.45,657.035 1272.48,652.328 1273.51,652.312 1274.53,548.975 1275.56,548.952 1276.58,738.672 1277.61,738.643 1278.64,726.6 1279.66,726.562 1280.69,723.409 1281.71,723.375 1282.74,616.024 1283.77,615.996 1284.79,319.911 1285.82,319.885 1286.84,992.785 1287.87,992.772 1288.89,487.943 1289.92,487.915 1290.95,734.401 1291.97,734.38 1293,740.58 1294.02,740.56 1295.05,656.931 1296.08,656.923 1297.1,403.456 1298.13,403.422 1299.15,629.076 1300.18,629.065 1301.21,794.51 1302.23,794.46 1303.26,607.601 1304.28,607.586 1305.31,846.454 1306.34,846.447 1307.36,785.676 1308.39,785.664 1309.41,934.875 1310.44,934.849 1311.47,426.377 1312.49,426.336 1313.52,840.596 1314.54,840.576 1315.57,642.535 1316.59,642.495 1317.62,906.254 1318.65,906.224 1319.67,488.546 1320.7,488.512 1321.72,593.613 1322.75,593.588 1323.78,738.749 1324.8,738.729 1325.83,676.691 1326.85,676.665 1327.88,713.162 1328.91,713.128 1329.93,765.922 1330.96,765.901 1331.98,740.028 1333.01,740.008 1334.04,793.153 1335.06,793.116 1336.09,898.988 1337.11,898.958 1338.14,535.748 1339.17,535.698 1340.19,827.145 1341.22,827.124 1342.24,530.396 1343.27,530.355 1344.3,782.728 1345.32,782.71 1346.35,703.249 1347.37,703.203 1348.4,783.28 1349.42,783.259 1350.45,734.711 1351.48,734.696 1352.5,530.233 1353.53,530.192 1354.55,628.14 1355.58,628.129 1356.61,486.656 1357.63,486.627 1358.66,593.862 1359.68,593.834 1360.71,653.635 1361.74,653.609 1362.76,531.606 1363.79,531.571 1364.81,457.701 1365.84,457.661 1366.87,748.047 1367.89,748.015 1368.92,785.69 1369.94,785.685 1370.97,881.577 1372,881.533 1373.02,845.302 1374.05,845.295 1375.07,861.531 1376.1,861.51 1377.12,504.38 1378.15,504.365 1379.18,567.27 1380.2,567.251 1381.23,842.573 1382.25,842.536 1383.28,1116.31 1384.31,1116.24 1385.33,397.95 1386.36,397.933 1387.38,1108.68 1388.41,1108.62 1389.44,611.586 1390.46,611.564 1391.49,542.669 1392.51,542.651 1393.54,731.629 1394.57,731.596 1395.59,889.333 1396.62,889.325 1397.64,823.497 1398.67,823.472 1399.7,869.522 1400.72,869.491 1401.75,547.941 1402.77,547.918 1403.8,593.844 1404.83,593.815 1405.85,830.854 1406.88,830.765 1407.9,911.477 1408.93,911.465 1409.95,788.438 1410.98,788.419 1412.01,593.067 1413.03,593.041 1414.06,470.741 1415.08,470.691 1416.11,447.638 1417.14,447.595 1418.16,576.993 1419.19,576.968 1420.21,928.844 1421.24,928.836 1422.27,407.804 1423.29,407.741 1424.32,608.696 1425.34,608.674 1426.37,627.195 1427.4,627.188 1428.42,654.694 1429.45,654.674 1430.47,565.093 1431.5,565.08 1432.53,612.389 1433.55,612.332 1434.58,485.765 1435.6,485.734 1436.63,230.448 1437.65,230.427 1438.68,549.1 1439.71,549.077 1440.73,552.888 1441.76,552.861 1442.78,633.416 1443.81,633.409 1444.84,593.385 1445.86,593.356 1446.89,612.638 1447.91,612.583 1448.94,613.772 1449.97,613.74 1450.99,701.21 1452.02,701.146 1453.04,725.573 1454.07,725.543 1455.1,552.565 1456.12,552.525 1457.15,742.993 1458.17,742.98 1459.2,235.391 1460.23,235.339 1461.25,796.644 1462.28,796.609 1463.3,720.862 1464.33,720.85 1465.36,910.144 1466.38,910.135 1467.41,669.278 1468.43,669.248 1469.46,665.154 1470.48,665.139 1471.51,722.338 1472.54,722.291 1473.56,441.511 1474.59,441.488 1475.61,485.825 1476.64,485.796 1477.67,729.765 1478.69,729.732 1479.72,780.662 1480.74,780.644 1481.77,697.648 1482.8,697.632 1483.82,531.047 1484.85,531.011 1485.87,475.006 1486.9,474.951 1487.93,726.878 1488.95,726.847 1489.98,670.278 1491,670.265 1492.03,902.296 1493.06,902.254 1494.08,640.954 1495.11,640.897 1496.13,486.471 1497.16,486.442 1498.18,659.132 1499.21,659.093 1500.24,395.018 1501.26,394.982 1502.29,878.828 1503.31,878.783 1504.34,814.938 1505.37,814.921 1506.39,402.387 1507.42,402.353 1508.44,1123.89 1509.47,1123.88 1510.5,676.512 1511.52,676.483 1512.55,534.574 1513.57,534.509 1514.6,235.22 1515.63,235.167 1516.65,725.037 1517.68,725.015 1518.7,526.709 1519.73,526.678 1520.76,646.647 1521.78,646.632 1522.81,719.716 1523.83,719.688 1524.86,686.629 1525.89,686.556 1526.91,1383.19 1527.94,1383.13 1528.96,245.183 1529.99,245.157 1531.01,328.793 1532.04,328.678 1533.07,732.1 1534.09,732.079 1535.12,777.302 1536.14,777.267 1537.17,440.762 1538.2,440.739 1539.22,311.585 1540.25,311.551 1541.27,1052.75 1542.3,1052.74 1543.33,1127.82 1544.35,1127.8 1545.38,707.003 1546.4,707 1547.43,524.641 1548.46,524.624 1549.48,716.331 1550.51,716.286 1551.53,792.412 1552.56,792.39 1553.59,690.538 1554.61,690.521 1555.64,474.397 1556.66,474.388 1557.69,551.645 1558.71,551.605 1559.74,324.397 1560.77,324.342 1561.79,318.091 1562.82,318.047 1563.84,1083.81 1564.87,1083.76 1565.9,842.501 1566.92,842.475 1567.95,524.362 1568.97,524.345 1570,1242.31 1571.03,1242.32 1572.05,502.208 1573.08,502.192 1574.1,817.538 1575.13,817.515 1576.16,603.228 1577.18,603.213 1578.21,757.038 1579.23,757.021 1580.26,1029.88 1581.29,1029.86 1582.31,796.162 1583.34,796.146 1584.36,566.949 1585.39,566.914 1586.42,701.415 1587.44,701.38 1588.47,689.77 1589.49,689.742 1590.52,758.869 1591.54,758.862 1592.57,590.887 1593.6,590.861 1594.62,601.126 1595.65,601.112 1596.67,751.49 1597.7,751.475 1598.73,837.527 1599.75,837.512 1600.78,600.132 1601.8,600.109 1602.83,484.943 1603.86,484.914 1604.88,529.304 1605.91,529.269 1606.93,697.135 1607.96,697.125 1608.99,745.242 1610.01,745.22 1611.04,817.906 1612.06,817.888 1613.09,674.552 1614.12,674.529 1615.14,446.486 1616.17,446.444 1617.19,1173.06 1618.22,1173.01 1619.24,841.293 1620.27,841.285 1621.3,613.117 1622.32,613.088 1623.35,750.506 1624.37,750.482 1625.4,590.221 1626.43,590.199 1627.45,668.375 1628.48,668.362 1629.5,918.452 1630.53,918.43 1631.56,1089.23 1632.58,1089.21 1633.61,847.256 1634.63,847.224 1635.66,573.939 1636.69,573.895 1637.71,590.826 1638.74,590.8 1639.76,591.78 1640.79,591.751 1641.82,713.586 1642.84,713.567 1643.87,378.939 1644.89,378.905 1645.92,495.461 1646.95,495.451 1647.97,819.357 1649,819.333 1650.02,697.492 1651.05,697.461 1652.07,1049.64 1653.1,1049.61 1654.13,706.089 1655.15,706.075 1656.18,957.908 1657.2,957.866 1658.23,589.712 1659.26,589.683 1660.28,1232.83 1661.31,1232.77 1662.33,633.252 1663.36,633.207 1664.39,603.567 1665.41,603.484 1666.44,902.042 1667.46,902.033 1668.49,680.641 1669.52,680.598 1670.54,695.371 1671.57,695.346 1672.59,441.227 1673.62,441.204 1674.65,734.347 1675.67,734.33 1676.7,320.553 1677.72,320.503 1678.75,506.806 1679.78,506.774 1680.8,320.399 1681.83,320.349 1682.85,1020.84 1683.88,1020.81 1684.9,1006.38 1685.93,1006.36 1686.96,780.006 1687.98,779.998 1689.01,1107.23 1690.03,1107.18 1691.06,568.107 1692.09,568.084 1693.11,551.637 1694.14,551.61 1695.16,736.013 1696.19,735.983 1697.22,733.994 1698.24,733.976 1699.27,938.92 1700.29,938.899 1701.32,902.357 1702.35,902.334 1703.37,742.561 1704.4,742.511 1705.42,700.541 1706.45,700.517 1707.48,763.582 1708.5,763.574 1709.53,622.658 1710.55,622.647 1711.58,673.776 1712.6,673.753 1713.63,779.748 1714.66,779.74 1715.68,861.304 1716.71,861.291 1717.73,507.895 1718.76,507.862 1719.79,539.09 1720.81,539.079 1721.84,506.847 1722.86,506.814 1723.89,290.764 1724.92,290.745 1725.94,832.724 1726.97,832.707 1727.99,1122.51 1729.02,1122.49 1730.05,689.459 1731.07,689.452 1732.1,711.399 1733.12,711.383 1734.15,1048.92 1735.18,1048.9 1736.2,706.945 1737.23,706.935 1738.25,572.727 1739.28,572.676 1740.31,854.893 1741.33,854.884 1742.36,434.23 1743.38,434.22 1744.41,780.161 1745.43,780.127 1746.46,568.273 1747.49,568.262 1748.51,784.863 1749.54,784.825 1750.56,363.753 1751.59,363.714 1752.62,476.601 1753.64,476.575 1754.67,546.746 1755.69,546.738 1756.72,904.462 1757.75,904.43 1758.77,500.88 1759.8,500.865 1760.82,750.856 1761.85,750.834 1762.88,546.439 1763.9,546.416 1764.93,673.654 1765.95,673.646 1766.98,666.795 1768.01,666.788 1769.03,418.539 1770.06,418.519 1771.08,766.103 1772.11,766.083 1773.13,817.518 1774.16,817.493 1775.19,820.315 1776.21,820.276 1777.24,1159.78 1778.26,1159.71 1779.29,874.175 1780.32,874.143 1781.34,778.764 1782.37,778.739 1783.39,756.871 1784.42,756.864 1785.45,416.474 1786.47,416.447 1787.5,440.859 1788.52,440.835 1789.55,884.535 1790.58,884.525 1791.6,1032.89 1792.63,1032.88 1793.65,868.069 1794.68,868.04 1795.71,710.773 1796.73,710.757 1797.76,753.192 1798.78,753.161 1799.81,656.101 1800.84,656.072 1801.86,573.829 1802.89,573.799 1803.91,710.835 1804.94,710.828 1805.96,207.457 1806.99,207.432 1808.02,1005.19 1809.04,1005.17 1810.07,837.506 1811.09,837.493 1812.12,914.473 1813.15,914.452 1814.17,674.545 1815.2,674.535 1816.22,679.188 1817.25,679.147 1818.28,814.874 1819.3,814.857 1820.33,478.253 1821.35,478.239 1822.38,457.031 1823.41,457.016 1824.43,623.353 1825.46,623.329 1826.48,522.832 1827.51,522.813 1828.54,627.072 1829.56,627.032 1830.59,754.036 1831.61,754.019 1832.64,424.498 1833.66,424.459 1834.69,760.031 1835.72,759.998 1836.74,710.162 1837.77,710.146 1838.79,868.933 1839.82,868.914 1840.85,394.834 1841.87,394.816 1842.9,792.073 1843.92,792.056 1844.95,900.897 1845.98,900.851 1847,936.294 1848.03,936.28 1849.05,418.293 1850.08,418.273 1851.11,605.676 1852.13,605.659 1853.16,752.638 1854.18,752.607 1855.21,764.743 1856.24,764.736 1857.26,915.169 1858.29,915.103 1859.31,815.659 1860.34,815.652 1861.37,253.254 1862.39,253.222 1863.42,791.802 1864.44,791.785 1865.47,521.337 1866.49,521.316 1867.52,583.204 1868.55,583.189 1869.57,769.352 1870.6,769.337 1871.62,903.537 1872.65,903.523 1873.68,732.104 1874.7,732.066 1875.73,658.181 1876.75,658.173 1877.78,522.476 1878.81,522.458 1879.83,478.938 1880.86,478.921 1881.88,929.495 1882.91,929.485 1883.94,851.079 1884.96,851.06 1885.99,701.494 1887.01,701.467 1888.04,484.06 1889.07,484.03 1890.09,549.844 1891.12,549.797 1892.14,717.003 1893.17,716.974 1894.19,605.779 1895.22,605.775 1896.25,415.706 1897.27,415.679 1898.3,586.834 1899.32,586.795 1900.35,485.034 1901.38,485.004 1902.4,937.245 1903.43,937.204 1904.45,768.76 1905.48,768.745 1906.51,599.431 1907.53,599.394 1908.56,807.021 1909.58,806.999 1910.61,468.199 1911.64,468.159 1912.66,512.708 1913.69,512.66 1914.71,292.595 1915.74,292.563 1916.77,667.959 1917.79,667.917 1918.82,782.813 1919.84,782.788 1920.87,670.726 1921.9,670.703 1922.92,725.278 1923.95,725.271 1924.97,886.231 1926,886.231 1927.02,791.972 1928.05,791.956 1929.08,597.777 1930.1,597.721 1931.13,619.545 1932.15,619.534 1933.18,583.974 1934.21,583.969 1935.23,505.995 1936.26,505.961 1937.28,545.322 1938.31,545.298 1939.34,992.277 1940.36,992.249 1941.39,889.296 1942.41,889.275 1943.44,709.278 1944.47,709.244 1945.49,851.073 1946.52,851.057 1947.54,672.156 1948.57,672.135 1949.6,647.198 1950.62,647.172 1951.65,439.044 1952.67,439.021 1953.7,133.46 1954.72,133.399 1955.75,417.711 1956.78,417.69 1957.8,468.959 1958.83,468.91 1959.85,871.903 1960.88,871.884 1961.91,1124.92 1962.93,1124.84 1963.96,939.33 1964.98,939.312 1966.01,274.44 1967.04,274.404 1968.06,528.292 1969.09,528.255 1970.11,550.698 1971.14,550.685 1972.17,546.759 1973.19,546.746 1974.22,804.557 1975.24,804.538 1976.27,535.225 1977.3,535.173 1978.32,617.665 1979.35,617.651 1980.37,1101.34 1981.4,1101.34 1982.43,574.256 1983.45,574.21 1984.48,746.373 1985.5,746.358 1986.53,475.57 1987.55,475.553 1988.58,688.34 1989.61,688.312 1990.63,661.036 1991.66,661.012 1992.68,854.219 1993.71,854.195 1994.74,705.776 1995.76,705.749 1996.79,655.168 1997.81,655.14 1998.84,655.447 1999.87,655.433 2000.89,1226.57 2001.92,1226.53 2002.94,801.554 2003.97,801.502 2005,379.989 2006.02,379.969 2007.05,1058.07 2008.07,1058.04 2009.1,696.386 2010.13,696.341 2011.15,996.173 2012.18,996.135 2013.2,466.172 2014.23,466.145 2015.25,410.302 2016.28,410.236 2017.31,395.885 2018.33,395.787 2019.36,836.652 2020.38,836.626 2021.41,773.803 2022.44,773.778 2023.46,380.762 2024.49,380.727 2025.51,641.062 2026.54,641.062 2027.57,1094.55 2028.59,1094.44 2029.62,641.942 2030.64,641.926 2031.67,871.011 2032.7,870.993 2033.72,799.986 2034.75,799.949 2035.77,880.096 2036.8,880.073 2037.83,333.659 2038.85,333.631 2039.88,634.526 2040.9,634.489 2041.93,521.23 2042.96,521.211 2043.98,829.338 2045.01,829.31 2046.03,616.771 2047.06,616.757 2048.08,784.497 2049.11,784.476 2050.14,530.548 2051.16,530.504 2052.19,1324.21 2053.21,1324.12 2054.24,626.588 2055.27,626.582 2056.29,857.359 2057.32,857.338 2058.34,763.004 2059.37,762.949 2060.4,1057.19 2061.42,1057.14 2062.45,792.476 2063.47,792.44 2064.5,472.15 2065.53,472.115 2066.55,649.673 2067.58,649.646 2068.6,445.687 2069.63,445.639 2070.66,582.316 2071.68,582.294 2072.71,661.29 2073.73,661.274 2074.76,682.495 2075.78,682.469 2076.81,1044.87 2077.84,1044.86 2078.86,729.65 2079.89,729.632 2080.91,602.884 2081.94,602.817 2082.97,289.832 2083.99,289.813 2085.02,658.149 2086.04,658.125 2087.07,676.291 2088.1,676.278 2089.12,624.538 2090.15,624.519 2091.17,580.865 2092.2,580.85 2093.23,334.582 2094.25,334.556 2095.28,564.82 2096.3,564.8 2097.33,447.779 2098.36,447.731 2099.38,811.682 2100.41,811.665 2101.43,1116.74 2102.46,1116.71 2103.49,811.646 2104.51,811.629 2105.54,770.051 2106.56,770.01 2107.59,685.452 2108.61,685.434 2109.64,961.681 2110.67,961.673 2111.69,327.731 2112.72,327.654 2113.74,290.715 2114.77,290.692 2115.8,684.096 2116.82,684.082 2117.85,892.996 2118.87,892.986 2119.9,819.082 2120.93,819.068 2121.95,477.93 2122.98,477.903 2124,728.847 2125.03,728.829 2126.06,714.833 2127.08,714.803 2128.11,627.425 2129.13,627.387 2130.16,524.692 2131.19,524.671 2132.21,841.347 2133.24,841.331 2134.26,635.757 2135.29,635.744 2136.31,491.237 2137.34,491.182 2138.37,606.03 2139.39,605.976 2140.42,950.325 2141.44,950.298 2142.47,912.326 2143.5,912.27 2144.52,387.692 2145.55,387.631 2146.57,666.382 2147.6,666.341 2148.63,877.42 2149.65,877.407 2150.68,899.869 2151.7,899.854 2152.73,840.863 2153.76,840.834 2154.78,808.485 2155.81,808.462 2156.83,727.297 2157.86,727.276 2158.89,731.78 2159.91,731.772 2160.94,565.032 2161.96,565.008 2162.99,736.345 2164.02,736.325 2165.04,719.744 2166.07,719.73 2167.09,597.704 2168.12,597.673 2169.14,911.076 2170.17,911.069 2171.2,698.361 2172.22,698.312 2173.25,718.351 2174.27,718.273 2175.3,430.078 2176.33,430.001 2177.35,699.17 2178.38,699.15 2179.4,601.404 2180.43,601.393 2181.46,461.245 2182.48,461.218 2183.51,603.307 2184.53,603.284 2185.56,684.322 2186.59,684.304 2187.61,683.606 2188.64,683.599 2189.66,574.54 2190.69,574.488 2191.72,824.035 2192.74,824.014 2193.77,622.008 2194.79,621.984 2195.82,807.677 2196.84,807.654 2197.87,794.373 2198.9,794.353 2199.92,1126.63 2200.95,1126.59 2201.97,686.032 2203,685.985 2204.03,704.097 2205.05,704.078 2206.08,729.459 2207.1,729.452 2208.13,423.756 2209.16,423.716 2210.18,585.643 2211.21,585.613 2212.23,880.796 2213.26,880.77 2214.29,741.724 2215.31,741.712 2216.34,706.442 2217.36,706.423 2218.39,580.574 2219.42,580.552 2220.44,586.86 2221.47,586.833 2222.49,726.254 2223.52,726.233 2224.55,735.039 2225.57,735.006 2226.6,477.315 2227.62,477.232 2228.65,876.774 2229.67,876.751 2230.7,775.124 2231.73,775.111 2232.75,550.521 2233.78,550.479 2234.8,877.18 2235.83,877.172 2236.86,653.1 2237.88,653.07 2238.91,899.524 2239.93,899.515 2240.96,892.459 2241.99,892.454 2243.01,393.452 2244.04,393.433 2245.06,576.382 2246.09,576.361 2247.12,858.772 2248.14,858.751 2249.17,1058.98 2250.19,1058.93 2251.22,995.933 2252.25,995.906 2253.27,513.491 2254.3,513.431 2255.32,683.916 2256.35,683.91 2257.37,546.158 2258.4,546.145 2259.43,565.364 2260.45,565.336 2261.48,919.322 2262.5,919.295 2263.53,571.787 2264.56,571.741 2265.58,660.789 2266.61,660.773 2267.63,928.173 2268.66,928.147 2269.69,869.576 2270.71,869.571 2271.74,1103.16 2272.76,1103.11 2273.79,617.128 2274.82,617.104 2275.84,596.947 2276.87,596.889 2277.89,787.64 2278.92,787.617 2279.95,651.564 2280.97,651.551 2282,542.816 2283.02,542.791 2284.05,548.227 2285.08,548.179 2286.1,602.227 2287.13,602.204 2288.15,941.053 2289.18,941.023 2290.2,772.232 2291.23,772.17 "/>
<path clip-path="url(#clip410)" d="M2010.47 1438.47 L2280.29 1438.47 L2280.29 1334.79 L2010.47 1334.79  Z" fill="#ffffff" fill-rule="evenodd" fill-opacity="1"/>
<polyline clip-path="url(#clip410)" style="stroke:#000000; stroke-linecap:round; stroke-linejoin:round; stroke-width:4; stroke-opacity:1; fill:none" points="2010.47,1438.47 2280.29,1438.47 2280.29,1334.79 2010.47,1334.79 2010.47,1438.47 "/>
<polyline clip-path="url(#clip410)" style="stroke:#009af9; stroke-linecap:round; stroke-linejoin:round; stroke-width:4; stroke-opacity:1; fill:none" points="2034.63,1386.63 2179.55,1386.63 "/>
<path clip-path="url(#clip410)" d="M2217.55 1406.32 Q2215.75 1410.95 2214.03 1412.36 Q2212.32 1413.78 2209.45 1413.78 L2206.05 1413.78 L2206.05 1410.21 L2208.55 1410.21 Q2210.31 1410.21 2211.28 1409.38 Q2212.25 1408.54 2213.43 1405.44 L2214.19 1403.5 L2203.71 1377.99 L2208.22 1377.99 L2216.32 1398.27 L2224.43 1377.99 L2228.94 1377.99 L2217.55 1406.32 Z" fill="#000000" fill-rule="nonzero" fill-opacity="1" /><path clip-path="url(#clip410)" d="M2236.23 1399.98 L2243.87 1399.98 L2243.87 1373.61 L2235.56 1375.28 L2235.56 1371.02 L2243.82 1369.35 L2248.5 1369.35 L2248.5 1399.98 L2256.14 1399.98 L2256.14 1403.91 L2236.23 1403.91 L2236.23 1399.98 Z" fill="#000000" fill-rule="nonzero" fill-opacity="1" /></svg>
