<?xml version="1.0" encoding="utf-8"?>
<svg xmlns="http://www.w3.org/2000/svg" xmlns:xlink="http://www.w3.org/1999/xlink" width="600" height="400" viewBox="0 0 2400 1600">
<defs>
  <clipPath id="clip730">
    <rect x="0" y="0" width="2400" height="1600"/>
  </clipPath>
</defs>
<path clip-path="url(#clip730)" d="M0 1600 L2400 1600 L2400 0 L0 0  Z" fill="#ffffff" fill-rule="evenodd" fill-opacity="1"/>
<defs>
  <clipPath id="clip731">
    <rect x="480" y="0" width="1681" height="1600"/>
  </clipPath>
</defs>
<path clip-path="url(#clip730)" d="M141.853 1486.45 L2352.76 1486.45 L2352.76 47.2441 L141.853 47.2441  Z" fill="#ffffff" fill-rule="evenodd" fill-opacity="1"/>
<defs>
  <clipPath id="clip732">
    <rect x="141" y="47" width="2212" height="1440"/>
  </clipPath>
</defs>
<polyline clip-path="url(#clip732)" style="stroke:#000000; stroke-linecap:round; stroke-linejoin:round; stroke-width:2; stroke-opacity:0.1; fill:none" points="204.426,1486.45 204.426,47.2441 "/>
<polyline clip-path="url(#clip732)" style="stroke:#000000; stroke-linecap:round; stroke-linejoin:round; stroke-width:2; stroke-opacity:0.1; fill:none" points="725.865,1486.45 725.865,47.2441 "/>
<polyline clip-path="url(#clip732)" style="stroke:#000000; stroke-linecap:round; stroke-linejoin:round; stroke-width:2; stroke-opacity:0.1; fill:none" points="1247.3,1486.45 1247.3,47.2441 "/>
<polyline clip-path="url(#clip732)" style="stroke:#000000; stroke-linecap:round; stroke-linejoin:round; stroke-width:2; stroke-opacity:0.1; fill:none" points="1768.74,1486.45 1768.74,47.2441 "/>
<polyline clip-path="url(#clip732)" style="stroke:#000000; stroke-linecap:round; stroke-linejoin:round; stroke-width:2; stroke-opacity:0.1; fill:none" points="2290.18,1486.45 2290.18,47.2441 "/>
<polyline clip-path="url(#clip730)" style="stroke:#000000; stroke-linecap:round; stroke-linejoin:round; stroke-width:4; stroke-opacity:1; fill:none" points="141.853,1486.45 2352.76,1486.45 "/>
<polyline clip-path="url(#clip730)" style="stroke:#000000; stroke-linecap:round; stroke-linejoin:round; stroke-width:4; stroke-opacity:1; fill:none" points="204.426,1486.45 204.426,1467.55 "/>
<polyline clip-path="url(#clip730)" style="stroke:#000000; stroke-linecap:round; stroke-linejoin:round; stroke-width:4; stroke-opacity:1; fill:none" points="725.865,1486.45 725.865,1467.55 "/>
<polyline clip-path="url(#clip730)" style="stroke:#000000; stroke-linecap:round; stroke-linejoin:round; stroke-width:4; stroke-opacity:1; fill:none" points="1247.3,1486.45 1247.3,1467.55 "/>
<polyline clip-path="url(#clip730)" style="stroke:#000000; stroke-linecap:round; stroke-linejoin:round; stroke-width:4; stroke-opacity:1; fill:none" points="1768.74,1486.45 1768.74,1467.55 "/>
<polyline clip-path="url(#clip730)" style="stroke:#000000; stroke-linecap:round; stroke-linejoin:round; stroke-width:4; stroke-opacity:1; fill:none" points="2290.18,1486.45 2290.18,1467.55 "/>
<path clip-path="url(#clip730)" d="M204.426 1517.37 Q200.815 1517.37 198.986 1520.93 Q197.18 1524.47 197.18 1531.6 Q197.18 1538.71 198.986 1542.27 Q200.815 1545.82 204.426 1545.82 Q208.06 1545.82 209.865 1542.27 Q211.694 1538.71 211.694 1531.6 Q211.694 1524.47 209.865 1520.93 Q208.06 1517.37 204.426 1517.37 M204.426 1513.66 Q210.236 1513.66 213.291 1518.27 Q216.37 1522.85 216.37 1531.6 Q216.37 1540.33 213.291 1544.94 Q210.236 1549.52 204.426 1549.52 Q198.616 1549.52 195.537 1544.94 Q192.481 1540.33 192.481 1531.6 Q192.481 1522.85 195.537 1518.27 Q198.616 1513.66 204.426 1513.66 Z" fill="#000000" fill-rule="nonzero" fill-opacity="1" /><path clip-path="url(#clip730)" d="M685.483 1514.29 L703.84 1514.29 L703.84 1518.22 L689.766 1518.22 L689.766 1526.7 Q690.784 1526.35 691.803 1526.19 Q692.821 1526 693.84 1526 Q699.627 1526 703.006 1529.17 Q706.386 1532.34 706.386 1537.76 Q706.386 1543.34 702.914 1546.44 Q699.442 1549.52 693.122 1549.52 Q690.946 1549.52 688.678 1549.15 Q686.432 1548.78 684.025 1548.04 L684.025 1543.34 Q686.108 1544.47 688.331 1545.03 Q690.553 1545.58 693.03 1545.58 Q697.034 1545.58 699.372 1543.48 Q701.71 1541.37 701.71 1537.76 Q701.71 1534.15 699.372 1532.04 Q697.034 1529.94 693.03 1529.94 Q691.155 1529.94 689.28 1530.35 Q687.428 1530.77 685.483 1531.65 L685.483 1514.29 Z" fill="#000000" fill-rule="nonzero" fill-opacity="1" /><path clip-path="url(#clip730)" d="M725.599 1517.37 Q721.988 1517.37 720.159 1520.93 Q718.354 1524.47 718.354 1531.6 Q718.354 1538.71 720.159 1542.27 Q721.988 1545.82 725.599 1545.82 Q729.233 1545.82 731.039 1542.27 Q732.867 1538.71 732.867 1531.6 Q732.867 1524.47 731.039 1520.93 Q729.233 1517.37 725.599 1517.37 M725.599 1513.66 Q731.409 1513.66 734.465 1518.27 Q737.543 1522.85 737.543 1531.6 Q737.543 1540.33 734.465 1544.94 Q731.409 1549.52 725.599 1549.52 Q719.789 1549.52 716.71 1544.94 Q713.654 1540.33 713.654 1531.6 Q713.654 1522.85 716.71 1518.27 Q719.789 1513.66 725.599 1513.66 Z" fill="#000000" fill-rule="nonzero" fill-opacity="1" /><path clip-path="url(#clip730)" d="M755.761 1517.37 Q752.15 1517.37 750.321 1520.93 Q748.515 1524.47 748.515 1531.6 Q748.515 1538.71 750.321 1542.27 Q752.15 1545.82 755.761 1545.82 Q759.395 1545.82 761.201 1542.27 Q763.029 1538.71 763.029 1531.6 Q763.029 1524.47 761.201 1520.93 Q759.395 1517.37 755.761 1517.37 M755.761 1513.66 Q761.571 1513.66 764.626 1518.27 Q767.705 1522.85 767.705 1531.6 Q767.705 1540.33 764.626 1544.94 Q761.571 1549.52 755.761 1549.52 Q749.951 1549.52 746.872 1544.94 Q743.816 1540.33 743.816 1531.6 Q743.816 1522.85 746.872 1518.27 Q749.951 1513.66 755.761 1513.66 Z" fill="#000000" fill-rule="nonzero" fill-opacity="1" /><path clip-path="url(#clip730)" d="M1191.83 1544.91 L1199.47 1544.91 L1199.47 1518.55 L1191.16 1520.21 L1191.16 1515.95 L1199.42 1514.29 L1204.1 1514.29 L1204.1 1544.91 L1211.74 1544.91 L1211.74 1548.85 L1191.83 1548.85 L1191.83 1544.91 Z" fill="#000000" fill-rule="nonzero" fill-opacity="1" /><path clip-path="url(#clip730)" d="M1231.18 1517.37 Q1227.57 1517.37 1225.74 1520.93 Q1223.94 1524.47 1223.94 1531.6 Q1223.94 1538.71 1225.74 1542.27 Q1227.57 1545.82 1231.18 1545.82 Q1234.82 1545.82 1236.62 1542.27 Q1238.45 1538.71 1238.45 1531.6 Q1238.45 1524.47 1236.62 1520.93 Q1234.82 1517.37 1231.18 1517.37 M1231.18 1513.66 Q1236.99 1513.66 1240.05 1518.27 Q1243.13 1522.85 1243.13 1531.6 Q1243.13 1540.33 1240.05 1544.94 Q1236.99 1549.52 1231.18 1549.52 Q1225.37 1549.52 1222.29 1544.94 Q1219.24 1540.33 1219.24 1531.6 Q1219.24 1522.85 1222.29 1518.27 Q1225.37 1513.66 1231.18 1513.66 Z" fill="#000000" fill-rule="nonzero" fill-opacity="1" /><path clip-path="url(#clip730)" d="M1261.34 1517.37 Q1257.73 1517.37 1255.9 1520.93 Q1254.1 1524.47 1254.1 1531.6 Q1254.1 1538.71 1255.9 1542.27 Q1257.73 1545.82 1261.34 1545.82 Q1264.98 1545.82 1266.78 1542.27 Q1268.61 1538.71 1268.61 1531.6 Q1268.61 1524.47 1266.78 1520.93 Q1264.98 1517.37 1261.34 1517.37 M1261.34 1513.66 Q1267.15 1513.66 1270.21 1518.27 Q1273.29 1522.85 1273.29 1531.6 Q1273.29 1540.33 1270.21 1544.94 Q1267.15 1549.52 1261.34 1549.52 Q1255.53 1549.52 1252.45 1544.94 Q1249.4 1540.33 1249.4 1531.6 Q1249.4 1522.85 1252.45 1518.27 Q1255.53 1513.66 1261.34 1513.66 Z" fill="#000000" fill-rule="nonzero" fill-opacity="1" /><path clip-path="url(#clip730)" d="M1291.51 1517.37 Q1287.89 1517.37 1286.07 1520.93 Q1284.26 1524.47 1284.26 1531.6 Q1284.26 1538.71 1286.07 1542.27 Q1287.89 1545.82 1291.51 1545.82 Q1295.14 1545.82 1296.95 1542.27 Q1298.77 1538.71 1298.77 1531.6 Q1298.77 1524.47 1296.95 1520.93 Q1295.14 1517.37 1291.51 1517.37 M1291.51 1513.66 Q1297.32 1513.66 1300.37 1518.27 Q1303.45 1522.85 1303.45 1531.6 Q1303.45 1540.33 1300.37 1544.94 Q1297.32 1549.52 1291.51 1549.52 Q1285.7 1549.52 1282.62 1544.94 Q1279.56 1540.33 1279.56 1531.6 Q1279.56 1522.85 1282.62 1518.27 Q1285.7 1513.66 1291.51 1513.66 Z" fill="#000000" fill-rule="nonzero" fill-opacity="1" /><path clip-path="url(#clip730)" d="M1713.27 1544.91 L1720.91 1544.91 L1720.91 1518.55 L1712.6 1520.21 L1712.6 1515.95 L1720.86 1514.29 L1725.54 1514.29 L1725.54 1544.91 L1733.18 1544.91 L1733.18 1548.85 L1713.27 1548.85 L1713.27 1544.91 Z" fill="#000000" fill-rule="nonzero" fill-opacity="1" /><path clip-path="url(#clip730)" d="M1742.67 1514.29 L1761.02 1514.29 L1761.02 1518.22 L1746.95 1518.22 L1746.95 1526.7 Q1747.97 1526.35 1748.99 1526.19 Q1750.01 1526 1751.02 1526 Q1756.81 1526 1760.19 1529.17 Q1763.57 1532.34 1763.57 1537.76 Q1763.57 1543.34 1760.1 1546.44 Q1756.63 1549.52 1750.31 1549.52 Q1748.13 1549.52 1745.86 1549.15 Q1743.62 1548.78 1741.21 1548.04 L1741.21 1543.34 Q1743.29 1544.47 1745.51 1545.03 Q1747.74 1545.58 1750.21 1545.58 Q1754.22 1545.58 1756.56 1543.48 Q1758.89 1541.37 1758.89 1537.76 Q1758.89 1534.15 1756.56 1532.04 Q1754.22 1529.94 1750.21 1529.94 Q1748.34 1529.94 1746.46 1530.35 Q1744.61 1530.77 1742.67 1531.65 L1742.67 1514.29 Z" fill="#000000" fill-rule="nonzero" fill-opacity="1" /><path clip-path="url(#clip730)" d="M1782.78 1517.37 Q1779.17 1517.37 1777.34 1520.93 Q1775.54 1524.47 1775.54 1531.6 Q1775.54 1538.71 1777.34 1542.27 Q1779.17 1545.82 1782.78 1545.82 Q1786.42 1545.82 1788.22 1542.27 Q1790.05 1538.71 1790.05 1531.6 Q1790.05 1524.47 1788.22 1520.93 Q1786.42 1517.37 1782.78 1517.37 M1782.78 1513.66 Q1788.59 1513.66 1791.65 1518.27 Q1794.73 1522.85 1794.73 1531.6 Q1794.73 1540.33 1791.65 1544.94 Q1788.59 1549.52 1782.78 1549.52 Q1776.97 1549.52 1773.89 1544.94 Q1770.84 1540.33 1770.84 1531.6 Q1770.84 1522.85 1773.89 1518.27 Q1776.97 1513.66 1782.78 1513.66 Z" fill="#000000" fill-rule="nonzero" fill-opacity="1" /><path clip-path="url(#clip730)" d="M1812.94 1517.37 Q1809.33 1517.37 1807.51 1520.93 Q1805.7 1524.47 1805.7 1531.6 Q1805.7 1538.71 1807.51 1542.27 Q1809.33 1545.82 1812.94 1545.82 Q1816.58 1545.82 1818.38 1542.27 Q1820.21 1538.71 1820.21 1531.6 Q1820.21 1524.47 1818.38 1520.93 Q1816.58 1517.37 1812.94 1517.37 M1812.94 1513.66 Q1818.76 1513.66 1821.81 1518.27 Q1824.89 1522.85 1824.89 1531.6 Q1824.89 1540.33 1821.81 1544.94 Q1818.76 1549.52 1812.94 1549.52 Q1807.13 1549.52 1804.06 1544.94 Q1801 1540.33 1801 1531.6 Q1801 1522.85 1804.06 1518.27 Q1807.13 1513.66 1812.94 1513.66 Z" fill="#000000" fill-rule="nonzero" fill-opacity="1" /><path clip-path="url(#clip730)" d="M2238.79 1544.91 L2255.11 1544.91 L2255.11 1548.85 L2233.17 1548.85 L2233.17 1544.91 Q2235.83 1542.16 2240.41 1537.53 Q2245.02 1532.88 2246.2 1531.53 Q2248.45 1529.01 2249.33 1527.27 Q2250.23 1525.51 2250.23 1523.82 Q2250.23 1521.07 2248.29 1519.33 Q2246.36 1517.6 2243.26 1517.6 Q2241.06 1517.6 2238.61 1518.36 Q2236.18 1519.13 2233.4 1520.68 L2233.4 1515.95 Q2236.23 1514.82 2238.68 1514.24 Q2241.13 1513.66 2243.17 1513.66 Q2248.54 1513.66 2251.73 1516.35 Q2254.93 1519.03 2254.93 1523.52 Q2254.93 1525.65 2254.12 1527.57 Q2253.33 1529.47 2251.23 1532.07 Q2250.65 1532.74 2247.54 1535.95 Q2244.44 1539.15 2238.79 1544.91 Z" fill="#000000" fill-rule="nonzero" fill-opacity="1" /><path clip-path="url(#clip730)" d="M2274.93 1517.37 Q2271.32 1517.37 2269.49 1520.93 Q2267.68 1524.47 2267.68 1531.6 Q2267.68 1538.71 2269.49 1542.27 Q2271.32 1545.82 2274.93 1545.82 Q2278.56 1545.82 2280.37 1542.27 Q2282.2 1538.71 2282.2 1531.6 Q2282.2 1524.47 2280.37 1520.93 Q2278.56 1517.37 2274.93 1517.37 M2274.93 1513.66 Q2280.74 1513.66 2283.79 1518.27 Q2286.87 1522.85 2286.87 1531.6 Q2286.87 1540.33 2283.79 1544.94 Q2280.74 1549.52 2274.93 1549.52 Q2269.12 1549.52 2266.04 1544.94 Q2262.98 1540.33 2262.98 1531.6 Q2262.98 1522.85 2266.04 1518.27 Q2269.12 1513.66 2274.93 1513.66 Z" fill="#000000" fill-rule="nonzero" fill-opacity="1" /><path clip-path="url(#clip730)" d="M2305.09 1517.37 Q2301.48 1517.37 2299.65 1520.93 Q2297.85 1524.47 2297.85 1531.6 Q2297.85 1538.71 2299.65 1542.27 Q2301.48 1545.82 2305.09 1545.82 Q2308.72 1545.82 2310.53 1542.27 Q2312.36 1538.71 2312.36 1531.6 Q2312.36 1524.47 2310.53 1520.93 Q2308.72 1517.37 2305.09 1517.37 M2305.09 1513.66 Q2310.9 1513.66 2313.96 1518.27 Q2317.03 1522.85 2317.03 1531.6 Q2317.03 1540.33 2313.96 1544.94 Q2310.9 1549.52 2305.09 1549.52 Q2299.28 1549.52 2296.2 1544.94 Q2293.15 1540.33 2293.15 1531.6 Q2293.15 1522.85 2296.2 1518.27 Q2299.28 1513.66 2305.09 1513.66 Z" fill="#000000" fill-rule="nonzero" fill-opacity="1" /><path clip-path="url(#clip730)" d="M2335.25 1517.37 Q2331.64 1517.37 2329.81 1520.93 Q2328.01 1524.47 2328.01 1531.6 Q2328.01 1538.71 2329.81 1542.27 Q2331.64 1545.82 2335.25 1545.82 Q2338.89 1545.82 2340.69 1542.27 Q2342.52 1538.71 2342.52 1531.6 Q2342.52 1524.47 2340.69 1520.93 Q2338.89 1517.37 2335.25 1517.37 M2335.25 1513.66 Q2341.06 1513.66 2344.12 1518.27 Q2347.2 1522.85 2347.2 1531.6 Q2347.2 1540.33 2344.12 1544.94 Q2341.06 1549.52 2335.25 1549.52 Q2329.44 1549.52 2326.36 1544.94 Q2323.31 1540.33 2323.31 1531.6 Q2323.31 1522.85 2326.36 1518.27 Q2329.44 1513.66 2335.25 1513.66 Z" fill="#000000" fill-rule="nonzero" fill-opacity="1" /><polyline clip-path="url(#clip732)" style="stroke:#000000; stroke-linecap:round; stroke-linejoin:round; stroke-width:2; stroke-opacity:0.1; fill:none" points="141.853,1435.32 2352.76,1435.32 "/>
<polyline clip-path="url(#clip732)" style="stroke:#000000; stroke-linecap:round; stroke-linejoin:round; stroke-width:2; stroke-opacity:0.1; fill:none" points="141.853,1202.71 2352.76,1202.71 "/>
<polyline clip-path="url(#clip732)" style="stroke:#000000; stroke-linecap:round; stroke-linejoin:round; stroke-width:2; stroke-opacity:0.1; fill:none" points="141.853,970.103 2352.76,970.103 "/>
<polyline clip-path="url(#clip732)" style="stroke:#000000; stroke-linecap:round; stroke-linejoin:round; stroke-width:2; stroke-opacity:0.1; fill:none" points="141.853,737.494 2352.76,737.494 "/>
<polyline clip-path="url(#clip732)" style="stroke:#000000; stroke-linecap:round; stroke-linejoin:round; stroke-width:2; stroke-opacity:0.1; fill:none" points="141.853,504.885 2352.76,504.885 "/>
<polyline clip-path="url(#clip732)" style="stroke:#000000; stroke-linecap:round; stroke-linejoin:round; stroke-width:2; stroke-opacity:0.1; fill:none" points="141.853,272.277 2352.76,272.277 "/>
<polyline clip-path="url(#clip730)" style="stroke:#000000; stroke-linecap:round; stroke-linejoin:round; stroke-width:4; stroke-opacity:1; fill:none" points="141.853,1486.45 141.853,47.2441 "/>
<polyline clip-path="url(#clip730)" style="stroke:#000000; stroke-linecap:round; stroke-linejoin:round; stroke-width:4; stroke-opacity:1; fill:none" points="141.853,1435.32 160.751,1435.32 "/>
<polyline clip-path="url(#clip730)" style="stroke:#000000; stroke-linecap:round; stroke-linejoin:round; stroke-width:4; stroke-opacity:1; fill:none" points="141.853,1202.71 160.751,1202.71 "/>
<polyline clip-path="url(#clip730)" style="stroke:#000000; stroke-linecap:round; stroke-linejoin:round; stroke-width:4; stroke-opacity:1; fill:none" points="141.853,970.103 160.751,970.103 "/>
<polyline clip-path="url(#clip730)" style="stroke:#000000; stroke-linecap:round; stroke-linejoin:round; stroke-width:4; stroke-opacity:1; fill:none" points="141.853,737.494 160.751,737.494 "/>
<polyline clip-path="url(#clip730)" style="stroke:#000000; stroke-linecap:round; stroke-linejoin:round; stroke-width:4; stroke-opacity:1; fill:none" points="141.853,504.885 160.751,504.885 "/>
<polyline clip-path="url(#clip730)" style="stroke:#000000; stroke-linecap:round; stroke-linejoin:round; stroke-width:4; stroke-opacity:1; fill:none" points="141.853,272.277 160.751,272.277 "/>
<path clip-path="url(#clip730)" d="M54.5569 1448.67 L62.1958 1448.67 L62.1958 1422.3 L53.8856 1423.97 L53.8856 1419.71 L62.1495 1418.04 L66.8254 1418.04 L66.8254 1448.67 L74.4642 1448.67 L74.4642 1452.6 L54.5569 1452.6 L54.5569 1448.67 Z" fill="#000000" fill-rule="nonzero" fill-opacity="1" /><path clip-path="url(#clip730)" d="M93.9086 1421.12 Q90.2975 1421.12 88.4688 1424.68 Q86.6632 1428.23 86.6632 1435.36 Q86.6632 1442.46 88.4688 1446.03 Q90.2975 1449.57 93.9086 1449.57 Q97.5428 1449.57 99.3483 1446.03 Q101.177 1442.46 101.177 1435.36 Q101.177 1428.23 99.3483 1424.68 Q97.5428 1421.12 93.9086 1421.12 M93.9086 1417.42 Q99.7187 1417.42 102.774 1422.02 Q105.853 1426.61 105.853 1435.36 Q105.853 1444.08 102.774 1448.69 Q99.7187 1453.27 93.9086 1453.27 Q88.0984 1453.27 85.0197 1448.69 Q81.9642 1444.08 81.9642 1435.36 Q81.9642 1426.61 85.0197 1422.02 Q88.0984 1417.42 93.9086 1417.42 Z" fill="#000000" fill-rule="nonzero" fill-opacity="1" /><path clip-path="url(#clip730)" d="M57.7745 1216.06 L74.0939 1216.06 L74.0939 1219.99 L52.1495 1219.99 L52.1495 1216.06 Q54.8115 1213.3 59.3949 1208.67 Q64.0013 1204.02 65.1819 1202.68 Q67.4272 1200.15 68.3068 1198.42 Q69.2096 1196.66 69.2096 1194.97 Q69.2096 1192.21 67.2652 1190.48 Q65.3439 1188.74 62.2421 1188.74 Q60.043 1188.74 57.5893 1189.51 Q55.1588 1190.27 52.381 1191.82 L52.381 1187.1 Q55.2051 1185.96 57.6588 1185.39 Q60.1124 1184.81 62.1495 1184.81 Q67.5198 1184.81 70.7142 1187.49 Q73.9087 1190.18 73.9087 1194.67 Q73.9087 1196.8 73.0985 1198.72 Q72.3115 1200.62 70.205 1203.21 Q69.6263 1203.88 66.5245 1207.1 Q63.4226 1210.29 57.7745 1216.06 Z" fill="#000000" fill-rule="nonzero" fill-opacity="1" /><path clip-path="url(#clip730)" d="M93.9086 1188.51 Q90.2975 1188.51 88.4688 1192.08 Q86.6632 1195.62 86.6632 1202.75 Q86.6632 1209.85 88.4688 1213.42 Q90.2975 1216.96 93.9086 1216.96 Q97.5428 1216.96 99.3483 1213.42 Q101.177 1209.85 101.177 1202.75 Q101.177 1195.62 99.3483 1192.08 Q97.5428 1188.51 93.9086 1188.51 M93.9086 1184.81 Q99.7187 1184.81 102.774 1189.41 Q105.853 1194 105.853 1202.75 Q105.853 1211.47 102.774 1216.08 Q99.7187 1220.66 93.9086 1220.66 Q88.0984 1220.66 85.0197 1216.08 Q81.9642 1211.47 81.9642 1202.75 Q81.9642 1194 85.0197 1189.41 Q88.0984 1184.81 93.9086 1184.81 Z" fill="#000000" fill-rule="nonzero" fill-opacity="1" /><path clip-path="url(#clip730)" d="M67.9133 968.749 Q71.2698 969.466 73.1448 971.735 Q75.0429 974.003 75.0429 977.337 Q75.0429 982.452 71.5244 985.253 Q68.0059 988.054 61.5245 988.054 Q59.3486 988.054 57.0338 987.614 Q54.7421 987.198 52.2884 986.341 L52.2884 981.827 Q54.2328 982.962 56.5477 983.54 Q58.8625 984.119 61.3856 984.119 Q65.7837 984.119 68.0754 982.383 Q70.3902 980.647 70.3902 977.337 Q70.3902 974.281 68.2374 972.568 Q66.1078 970.832 62.2884 970.832 L58.2606 970.832 L58.2606 966.99 L62.4735 966.99 Q65.9226 966.99 67.7513 965.624 Q69.58 964.235 69.58 961.642 Q69.58 958.98 67.6819 957.568 Q65.8069 956.133 62.2884 956.133 Q60.3671 956.133 58.168 956.55 Q55.969 956.966 53.3301 957.846 L53.3301 953.679 Q55.9921 952.939 58.3069 952.568 Q60.6449 952.198 62.705 952.198 Q68.0291 952.198 71.1309 954.628 Q74.2327 957.036 74.2327 961.156 Q74.2327 964.027 72.5892 966.017 Q70.9457 967.985 67.9133 968.749 Z" fill="#000000" fill-rule="nonzero" fill-opacity="1" /><path clip-path="url(#clip730)" d="M93.9086 955.902 Q90.2975 955.902 88.4688 959.466 Q86.6632 963.008 86.6632 970.138 Q86.6632 977.244 88.4688 980.809 Q90.2975 984.351 93.9086 984.351 Q97.5428 984.351 99.3483 980.809 Q101.177 977.244 101.177 970.138 Q101.177 963.008 99.3483 959.466 Q97.5428 955.902 93.9086 955.902 M93.9086 952.198 Q99.7187 952.198 102.774 956.804 Q105.853 961.388 105.853 970.138 Q105.853 978.864 102.774 983.471 Q99.7187 988.054 93.9086 988.054 Q88.0984 988.054 85.0197 983.471 Q81.9642 978.864 81.9642 970.138 Q81.9642 961.388 85.0197 956.804 Q88.0984 952.198 93.9086 952.198 Z" fill="#000000" fill-rule="nonzero" fill-opacity="1" /><path clip-path="url(#clip730)" d="M66.5939 724.288 L54.7884 742.737 L66.5939 742.737 L66.5939 724.288 M65.367 720.214 L71.2466 720.214 L71.2466 742.737 L76.1772 742.737 L76.1772 746.626 L71.2466 746.626 L71.2466 754.774 L66.5939 754.774 L66.5939 746.626 L50.9921 746.626 L50.9921 742.112 L65.367 720.214 Z" fill="#000000" fill-rule="nonzero" fill-opacity="1" /><path clip-path="url(#clip730)" d="M93.9086 723.293 Q90.2975 723.293 88.4688 726.858 Q86.6632 730.399 86.6632 737.529 Q86.6632 744.635 88.4688 748.2 Q90.2975 751.742 93.9086 751.742 Q97.5428 751.742 99.3483 748.2 Q101.177 744.635 101.177 737.529 Q101.177 730.399 99.3483 726.858 Q97.5428 723.293 93.9086 723.293 M93.9086 719.589 Q99.7187 719.589 102.774 724.196 Q105.853 728.779 105.853 737.529 Q105.853 746.256 102.774 750.862 Q99.7187 755.445 93.9086 755.445 Q88.0984 755.445 85.0197 750.862 Q81.9642 746.256 81.9642 737.529 Q81.9642 728.779 85.0197 724.196 Q88.0984 719.589 93.9086 719.589 Z" fill="#000000" fill-rule="nonzero" fill-opacity="1" /><path clip-path="url(#clip730)" d="M53.793 487.605 L72.1494 487.605 L72.1494 491.541 L58.0754 491.541 L58.0754 500.013 Q59.0939 499.665 60.1124 499.503 Q61.131 499.318 62.1495 499.318 Q67.9365 499.318 71.3161 502.49 Q74.6957 505.661 74.6957 511.077 Q74.6957 516.656 71.2235 519.758 Q67.7513 522.837 61.4319 522.837 Q59.256 522.837 56.9875 522.466 Q54.7421 522.096 52.3347 521.355 L52.3347 516.656 Q54.418 517.79 56.6402 518.346 Q58.8625 518.902 61.3393 518.902 Q65.3439 518.902 67.6819 516.795 Q70.0198 514.689 70.0198 511.077 Q70.0198 507.466 67.6819 505.36 Q65.3439 503.253 61.3393 503.253 Q59.4643 503.253 57.5893 503.67 Q55.7375 504.087 53.793 504.966 L53.793 487.605 Z" fill="#000000" fill-rule="nonzero" fill-opacity="1" /><path clip-path="url(#clip730)" d="M93.9086 490.684 Q90.2975 490.684 88.4688 494.249 Q86.6632 497.791 86.6632 504.92 Q86.6632 512.027 88.4688 515.591 Q90.2975 519.133 93.9086 519.133 Q97.5428 519.133 99.3483 515.591 Q101.177 512.027 101.177 504.92 Q101.177 497.791 99.3483 494.249 Q97.5428 490.684 93.9086 490.684 M93.9086 486.98 Q99.7187 486.98 102.774 491.587 Q105.853 496.17 105.853 504.92 Q105.853 513.647 102.774 518.253 Q99.7187 522.837 93.9086 522.837 Q88.0984 522.837 85.0197 518.253 Q81.9642 513.647 81.9642 504.92 Q81.9642 496.17 85.0197 491.587 Q88.0984 486.98 93.9086 486.98 Z" fill="#000000" fill-rule="nonzero" fill-opacity="1" /><path clip-path="url(#clip730)" d="M64.3254 270.413 Q61.1773 270.413 59.3254 272.566 Q57.4967 274.719 57.4967 278.469 Q57.4967 282.196 59.3254 284.371 Q61.1773 286.524 64.3254 286.524 Q67.4735 286.524 69.3022 284.371 Q71.1541 282.196 71.1541 278.469 Q71.1541 274.719 69.3022 272.566 Q67.4735 270.413 64.3254 270.413 M73.6077 255.76 L73.6077 260.02 Q71.8485 259.186 70.0429 258.747 Q68.2606 258.307 66.5013 258.307 Q61.8717 258.307 59.418 261.432 Q56.9875 264.557 56.6402 270.876 Q58.006 268.862 60.0662 267.797 Q62.1263 266.71 64.6032 266.71 Q69.8115 266.71 72.8207 269.881 Q75.8531 273.029 75.8531 278.469 Q75.8531 283.793 72.705 287.01 Q69.5568 290.228 64.3254 290.228 Q58.33 290.228 55.1588 285.645 Q51.9875 281.038 51.9875 272.311 Q51.9875 264.117 55.8764 259.256 Q59.7652 254.372 66.3161 254.372 Q68.0754 254.372 69.8578 254.719 Q71.6633 255.066 73.6077 255.76 Z" fill="#000000" fill-rule="nonzero" fill-opacity="1" /><path clip-path="url(#clip730)" d="M93.9086 258.075 Q90.2975 258.075 88.4688 261.64 Q86.6632 265.182 86.6632 272.311 Q86.6632 279.418 88.4688 282.983 Q90.2975 286.524 93.9086 286.524 Q97.5428 286.524 99.3483 282.983 Q101.177 279.418 101.177 272.311 Q101.177 265.182 99.3483 261.64 Q97.5428 258.075 93.9086 258.075 M93.9086 254.372 Q99.7187 254.372 102.774 258.978 Q105.853 263.561 105.853 272.311 Q105.853 281.038 102.774 285.645 Q99.7187 290.228 93.9086 290.228 Q88.0984 290.228 85.0197 285.645 Q81.9642 281.038 81.9642 272.311 Q81.9642 263.561 85.0197 258.978 Q88.0984 254.372 93.9086 254.372 Z" fill="#000000" fill-rule="nonzero" fill-opacity="1" /><polyline clip-path="url(#clip732)" style="stroke:#009af9; stroke-linecap:round; stroke-linejoin:round; stroke-width:4; stroke-opacity:1; fill:none" points="204.426,1433.01 205.469,1434.54 206.511,1424.82 207.554,1426.52 208.597,1201.48 209.64,1205.7 210.683,1434.43 211.726,1436.1 212.769,1443.3 213.812,1445.72 214.854,1306.94 215.897,1310.36 216.94,1373.47 217.983,1376.36 219.026,1297.18 220.069,1300.28 221.112,1109.49 222.155,1114.99 223.197,1344.86 224.24,1347.02 225.283,1253.72 226.326,1256.07 227.369,1195.59 228.412,1199.27 229.455,1291.26 230.498,1293.66 231.541,1212.95 232.583,1215.04 233.626,1289.14 234.669,1291.55 235.712,1138.77 236.755,1140.77 237.798,1156.31 238.841,1159.61 239.884,1122.23 240.926,1125.89 241.969,1045.93 243.012,1048.83 244.055,1173.55 245.098,1175.87 246.141,1086.13 247.184,1088.5 248.227,1156.13 249.269,1159.3 250.312,1072.37 251.355,1075.33 252.398,973.751 253.441,977.587 254.484,1173.25 255.527,1174.33 256.57,1106.41 257.612,1109.13 258.655,1195.55 259.698,1197.04 260.741,1246.27 261.784,1247.2 262.827,1120.94 263.87,1122.69 264.913,1193.51 265.956,1195.29 266.998,1054.25 268.041,1056.46 269.084,1105.95 270.127,1107.52 271.17,1210.46 272.213,1211.53 273.256,1170.49 274.299,1171.82 275.341,958.387 276.384,961.431 277.427,1116.03 278.47,1118.12 279.513,1117.35 280.556,1119.96 281.599,1047.28 282.642,1049.49 283.684,1176.01 284.727,1176.89 285.77,1128.51 286.813,1129.83 287.856,1108.32 288.899,1110.15 289.942,1098.62 290.985,1101.16 292.027,1054.33 293.07,1058.13 294.113,1076.66 295.156,1079.14 296.199,1074.22 297.242,1075.43 298.285,1059.59 299.328,1062.11 300.371,1101.57 301.413,1103.42 302.456,1007.28 303.499,1009.68 304.542,929.394 305.585,932.985 306.628,982.496 307.671,985.047 308.714,1062.37 309.756,1064.86 310.799,1098.33 311.842,1100.93 312.885,917.755 313.928,920.21 314.971,1113.26 316.014,1115.31 317.057,934.463 318.099,937.391 319.142,1023.35 320.185,1025.85 321.228,894.711 322.271,899.553 323.314,1071.52 324.357,1074.09 325.4,945.373 326.442,948.034 327.485,922.935 328.528,925.607 329.571,991.154 330.614,992.612 331.657,844.436 332.7,848.437 333.743,1082.75 334.786,1084.37 335.828,965.626 336.871,967.566 337.914,1028.84 338.957,1031.11 340,805.328 341.043,811.133 342.086,863.573 343.129,866.769 344.171,923.468 345.214,925.118 346.257,762.136 347.3,766.603 348.343,981.983 349.386,983.871 350.429,948.732 351.472,951.75 352.514,708.801 353.557,715.07 354.6,989.879 355.643,993.77 356.686,932.444 357.729,935.015 358.772,839.97 359.815,841.839 360.857,883.663 361.9,886.559 362.943,876.3 363.986,878.535 365.029,928.106 366.072,930.174 367.115,929.812 368.158,931.447 369.201,811.622 370.243,814.467 371.286,941.324 372.329,943.73 373.372,826.148 374.415,829.816 375.458,856.575 376.501,859.311 377.544,898.347 378.586,901.083 379.629,795.522 380.672,798.578 381.715,868.043 382.758,869.511 383.801,890.416 384.844,893.553 385.887,815.491 386.929,817.617 387.972,804.91 389.015,808.456 390.058,869.366 391.101,870.518 392.144,823.662 393.187,827.147 394.23,845.03 395.272,847.603 396.315,745.827 397.358,750.528 398.401,854.063 399.444,857.285 400.487,845.093 401.53,847.943 402.573,866.028 403.616,868.8 404.658,786.36 405.701,792.092 406.744,906.254 407.787,908.684 408.83,744.409 409.873,746.157 410.916,728.597 411.959,732.694 413.001,709.556 414.044,714.812 415.087,802.559 416.13,807.492 417.173,841.055 418.216,843.748 419.259,845.919 420.302,848.782 421.344,836.601 422.387,838.482 423.43,937.99 424.473,939.568 425.516,804.572 426.559,807.421 427.602,749.538 428.645,752.843 429.687,800.265 430.73,803.38 431.773,974.367 432.816,976.337 433.859,855.693 434.902,857.911 435.945,784.383 436.988,786.796 438.031,691.922 439.073,696.608 440.116,692.573 441.159,697.241 442.202,818.98 443.245,820.254 444.288,726.668 445.331,730.193 446.374,925.813 447.416,927.002 448.459,929.352 449.502,932.273 450.545,803.796 451.588,805.597 452.631,820.859 453.674,823.728 454.717,952.413 455.759,954.336 456.802,828.412 457.845,831.969 458.888,784.128 459.931,787.156 460.974,835.877 462.017,837.155 463.06,881.943 464.102,883.61 465.145,786.226 466.188,789.378 467.231,757.841 468.274,760.619 469.317,941.681 470.36,946.24 471.403,847.595 472.446,850.99 473.488,689.737 474.531,692.448 475.574,869.798 476.617,873.284 477.66,866.343 478.703,869.853 479.746,879.026 480.789,881.628 481.831,894.981 482.874,897.346 483.917,714.528 484.96,721.462 486.003,732.218 487.046,734.383 488.089,747.076 489.132,750.175 490.174,905.541 491.217,908.733 492.26,907.781 493.303,909.679 494.346,689.651 495.389,692.716 496.432,962.837 497.475,964.579 498.517,863.615 499.56,867.066 500.603,852.859 501.646,857.276 502.689,704.029 503.732,706.674 504.775,798.337 505.818,801.118 506.861,813.116 507.903,815.663 508.946,706.232 509.989,711.832 511.032,911.405 512.075,913.281 513.118,749.161 514.161,752.398 515.204,795.508 516.246,797.966 517.289,961.195 518.332,962.915 519.375,817.696 520.418,820.186 521.461,766.728 522.504,768.908 523.547,781.869 524.589,785.111 525.632,763.748 526.675,766.314 527.718,913.094 528.761,915.308 529.804,853.99 530.847,857.319 531.89,737.412 532.932,740.925 533.975,867.324 535.018,869.255 536.061,785.323 537.104,788.475 538.147,957.203 539.19,959.599 540.233,833.318 541.276,834.972 542.318,823.66 543.361,827.23 544.404,770.524 545.447,774.136 546.49,748.769 547.533,750.09 548.576,792.002 549.619,792.875 550.661,743.165 551.704,747.14 552.747,744.952 553.79,747.455 554.833,610.042 555.876,613.967 556.919,746.484 557.962,749.032 559.004,747.799 560.047,750.812 561.09,900.099 562.133,903.158 563.176,778.228 564.219,781.282 565.262,655.054 566.305,659.38 567.347,864.524 568.39,867.311 569.433,680.251 570.476,683.453 571.519,702.601 572.562,705.274 573.605,762.287 574.648,766.18 575.691,588.151 576.733,593.742 577.776,704.05 578.819,710.733 579.862,703.295 580.905,706.596 581.948,686.776 582.991,690.443 584.034,736.465 585.076,740.66 586.119,757.125 587.162,759.021 588.205,803.319 589.248,806.7 590.291,680.744 591.334,684.072 592.377,749.956 593.419,752.486 594.462,491.242 595.505,495.354 596.548,722.138 597.591,724.83 598.634,694.311 599.677,698.322 600.72,801.456 601.762,805.115 602.805,671.325 603.848,678.833 604.891,734.052 605.934,735.781 606.977,815.357 608.02,818.044 609.063,833.156 610.106,835.436 611.148,827.772 612.191,829.943 613.234,684.546 614.277,687.363 615.32,698.558 616.363,701.436 617.406,524.728 618.449,531.042 619.491,617.322 620.534,621.455 621.577,607.559 622.62,610.971 623.663,735.264 624.706,738.59 625.749,714.693 626.792,716.82 627.834,728.99 628.877,732.696 629.92,533.166 630.963,536.832 632.006,760.689 633.049,763.835 634.092,686.402 635.135,689.835 636.177,741.251 637.22,742.744 638.263,655.582 639.306,659.185 640.349,631.198 641.392,635.31 642.435,534.749 643.478,540.033 644.521,515.525 645.563,519.964 646.606,770.394 647.649,774.126 648.692,588.255 649.735,591.009 650.778,648.052 651.821,651.511 652.864,620.684 653.906,624.35 654.949,572.987 655.992,577.946 657.035,628.745 658.078,633.487 659.121,657.965 660.164,659.623 661.207,762.062 662.249,764.164 663.292,675.35 664.335,679.421 665.378,613.279 666.421,618.157 667.464,642.216 668.507,644.953 669.55,456.366 670.592,462.595 671.635,557.432 672.678,563.543 673.721,661.161 674.764,667.481 675.807,687.829 676.85,691.073 677.893,596.327 678.936,600.045 679.978,663.743 681.021,666.434 682.064,649.506 683.107,651.91 684.15,641.294 685.193,644.347 686.236,643.235 687.279,646.626 688.321,747.039 689.364,750.105 690.407,699.482 691.45,703.187 692.493,711.961 693.536,715.312 694.579,671.774 695.622,676.27 696.664,765.702 697.707,768.156 698.75,699.255 699.793,703.043 700.836,579.843 701.879,584.736 702.922,522.205 703.965,525.549 705.007,697.185 706.05,701.523 707.093,554.933 708.136,556.844 709.179,551.464 710.222,554.698 711.265,667.934 712.308,671.602 713.351,611.861 714.393,616.481 715.436,484.94 716.479,489.977 717.522,709.909 718.565,712.165 719.608,511.429 720.651,518.844 721.694,598.226 722.736,601.502 723.779,603.66 724.822,607.487 725.865,547.856 726.908,550.897 727.951,473.8 728.994,481 730.037,579.318 731.079,585.401 732.122,485.439 733.165,492.448 734.208,526.759 735.251,533.125 736.294,486.761 737.337,493.317 738.38,521.385 739.422,527.175 740.465,594.773 741.508,598.171 742.551,369.486 743.594,371.838 744.637,464.731 745.68,472.294 746.723,572.524 747.766,574.33 748.808,467.824 749.851,472.311 750.894,615.628 751.937,619.183 752.98,526.547 754.023,531.769 755.066,623.255 756.109,625.885 757.151,604.407 758.194,607.643 759.237,732.292 760.28,735.103 761.323,491.203 762.366,497.613 763.409,498.381 764.452,502.74 765.494,583.697 766.537,588.848 767.58,582.587 768.623,586.814 769.666,621.946 770.709,626.461 771.752,565.321 772.795,566.832 773.837,511.797 774.88,516.765 775.923,435.624 776.966,440.089 778.009,488.566 779.052,494.231 780.095,679.133 781.138,682.295 782.18,485.024 783.223,488.234 784.266,491.87 785.309,499.048 786.352,752.529 787.395,756.399 788.438,692.376 789.481,694.853 790.524,632.154 791.566,635.044 792.609,565.471 793.652,569.363 794.695,668.305 795.738,673.022 796.781,470.297 797.824,476.765 798.867,516.663 799.909,520.994 800.952,623.346 801.995,625.886 803.038,488.649 804.081,492.809 805.124,556.997 806.167,560.45 807.21,608.286 808.252,613.264 809.295,577.412 810.338,580.663 811.381,657.514 812.424,659.938 813.467,689.403 814.51,694.11 815.553,518.488 816.595,526.501 817.638,614.805 818.681,616.841 819.724,647.397 820.767,651.566 821.81,593.185 822.853,596.633 823.896,554.9 824.939,558.509 825.981,751.04 827.024,753.51 828.067,497.265 829.11,500.898 830.153,550.258 831.196,554.579 832.239,514.068 833.282,523.978 834.324,648.351 835.367,654.287 836.41,660.931 837.453,664.501 838.496,439.142 839.539,442.923 840.582,547.435 841.625,549.99 842.667,534.556 843.71,537.109 844.753,333.471 845.796,338.308 846.839,552.643 847.882,559.173 848.925,518.813 849.968,523.015 851.01,507.404 852.053,512.817 853.096,331.491 854.139,339.281 855.182,622.469 856.225,626.435 857.268,537.721 858.311,540.028 859.354,653.259 860.396,655.94 861.439,173.05 862.482,180.157 863.525,547.25 864.568,553.157 865.611,411.615 866.654,414.638 867.697,630.379 868.739,635.512 869.782,516.599 870.825,522.557 871.868,464.947 872.911,469.234 873.954,540.63 874.997,547.048 876.04,591.254 877.082,595.736 878.125,424.025 879.168,433.964 880.211,419.674 881.254,424.04 882.297,630.67 883.34,635.771 884.383,454.101 885.425,458.971 886.468,539.874 887.511,543.239 888.554,552.506 889.597,556.132 890.64,690.026 891.683,692.784 892.726,567.335 893.769,573.074 894.811,440.119 895.854,446.068 896.897,451.64 897.94,458.996 898.983,443.128 900.026,448.41 901.069,566.662 902.112,570.393 903.154,674.969 904.197,677.929 905.24,387.562 906.283,391.574 907.326,558.787 908.369,564.389 909.412,522.942 910.455,528.381 911.497,536.937 912.54,541.516 913.583,512.128 914.626,519.882 915.669,728.222 916.712,733.341 917.755,632.276 918.798,635.661 919.84,524.763 920.883,527.705 921.926,691.485 922.969,695.417 924.012,510.876 925.055,516.396 926.098,542.083 927.141,544.295 928.184,710.618 929.226,716.895 930.269,719.871 931.312,723.215 932.355,525.456 933.398,528.163 934.441,628.952 935.484,632.634 936.527,582.614 937.569,585.169 938.612,484.964 939.655,488.064 940.698,507.647 941.741,510.305 942.784,502.176 943.827,506.871 944.87,622.774 945.912,627.21 946.955,574.898 947.998,580.452 949.041,599.545 950.084,604.447 951.127,745.344 952.17,747.006 953.213,600.935 954.255,604.245 955.298,458.546 956.341,462.252 957.384,585.037 958.427,588.808 959.47,530.112 960.513,532.703 961.556,492.817 962.599,496.644 963.641,526.761 964.684,531.92 965.727,720.816 966.77,722.389 967.813,582.976 968.856,587.118 969.899,542.731 970.942,544.809 971.984,689.725 973.027,692.454 974.07,527.382 975.113,532.859 976.156,623.625 977.199,627.507 978.242,455.349 979.285,464.661 980.327,487.981 981.37,490.455 982.413,608.671 983.456,615.701 984.499,566.129 985.542,568.399 986.585,465.282 987.628,469.363 988.67,583.692 989.713,586.829 990.756,507.626 991.799,512.393 992.842,471.398 993.885,475.297 994.928,470.488 995.971,475.747 997.014,409.58 998.056,415.166 999.099,416.383 1000.14,420.786 1001.19,469.742 1002.23,474.716 1003.27,444.836 1004.31,448.485 1005.36,633.628 1006.4,636.957 1007.44,391.143 1008.49,396.251 1009.53,429.867 1010.57,435.118 1011.61,608.176 1012.66,611.034 1013.7,447.175 1014.74,452.201 1015.79,341.708 1016.83,346.295 1017.87,628.893 1018.91,632.375 1019.96,667.297 1021,669.243 1022.04,486.53 1023.09,492.585 1024.13,558.517 1025.17,561.667 1026.21,483.781 1027.26,490.789 1028.3,470.997 1029.34,477.081 1030.39,549.588 1031.43,553.014 1032.47,482.386 1033.51,486.232 1034.56,522.964 1035.6,526.818 1036.64,515.472 1037.69,518.686 1038.73,411.897 1039.77,416.472 1040.81,551.209 1041.86,555.115 1042.9,244.833 1043.94,253.55 1044.99,380.884 1046.03,394.371 1047.07,568.142 1048.11,572.877 1049.16,601.663 1050.2,604.616 1051.24,552.733 1052.29,556.259 1053.33,588.492 1054.37,591.857 1055.41,597.552 1056.46,600.558 1057.5,505.65 1058.54,509.784 1059.59,478.616 1060.63,481.64 1061.67,534.366 1062.71,538.587 1063.76,384.861 1064.8,390.91 1065.84,530.66 1066.89,534.881 1067.93,452.027 1068.97,456.194 1070.02,573.982 1071.06,576.839 1072.1,397.557 1073.14,399.343 1074.19,559.062 1075.23,566.62 1076.27,457.169 1077.32,462.757 1078.36,409.904 1079.4,414.464 1080.44,602.936 1081.49,606.081 1082.53,518.37 1083.57,522.334 1084.62,329.976 1085.66,333.596 1086.7,600.806 1087.74,603.538 1088.79,249.246 1089.83,253.355 1090.87,466.425 1091.92,472.71 1092.96,542.575 1094,546.584 1095.04,568.047 1096.09,576.175 1097.13,477.118 1098.17,483.526 1099.22,424.123 1100.26,429.467 1101.3,446.953 1102.34,452.627 1103.39,554.398 1104.43,559.463 1105.47,657.175 1106.52,660.191 1107.56,583.535 1108.6,586.246 1109.64,527.215 1110.69,531.943 1111.73,587.331 1112.77,590.417 1113.82,499.434 1114.86,506.344 1115.9,489.285 1116.94,495.911 1117.99,521.852 1119.03,525.804 1120.07,458.458 1121.12,461.016 1122.16,373.167 1123.2,376.476 1124.24,612.944 1125.29,615.738 1126.33,523.762 1127.37,528.822 1128.42,524.43 1129.46,527.495 1130.5,494.774 1131.54,498.068 1132.59,467.238 1133.63,472.759 1134.67,664.58 1135.72,669.847 1136.76,476.956 1137.8,480.444 1138.85,488.467 1139.89,494.878 1140.93,480.988 1141.97,483.335 1143.02,477.786 1144.06,480.426 1145.1,395.24 1146.15,399.887 1147.19,498.561 1148.23,503.851 1149.27,223.613 1150.32,232.194 1151.36,561.076 1152.4,567.839 1153.45,476.878 1154.49,480.924 1155.53,619.738 1156.57,625.32 1157.62,422.978 1158.66,425.73 1159.7,643.806 1160.75,646.962 1161.79,461.125 1162.83,465.104 1163.87,681.668 1164.92,686.093 1165.96,612.082 1167,615.92 1168.05,463.22 1169.09,468.72 1170.13,618.351 1171.17,620.928 1172.22,747.304 1173.26,751.751 1174.3,534.724 1175.35,540.954 1176.39,604.278 1177.43,608.089 1178.47,477.81 1179.52,481.646 1180.56,497.839 1181.6,505.474 1182.65,570.003 1183.69,572.016 1184.73,469.226 1185.77,471.755 1186.82,576.505 1187.86,581.491 1188.9,540.003 1189.95,544.663 1190.99,652.334 1192.03,655.685 1193.07,434.115 1194.12,439.374 1195.16,467.119 1196.2,469.267 1197.25,477.359 1198.29,481.874 1199.33,404.686 1200.37,410.646 1201.42,518.272 1202.46,523.158 1203.5,495.197 1204.55,500.73 1205.59,482.225 1206.63,484.936 1207.68,581.04 1208.72,584.699 1209.76,443.964 1210.8,447.785 1211.85,392.392 1212.89,398.427 1213.93,608.692 1214.98,611.63 1216.02,630.659 1217.06,633.234 1218.1,613.119 1219.15,616.436 1220.19,457.262 1221.23,460.197 1222.28,496.092 1223.32,500.994 1224.36,658.94 1225.4,661.284 1226.45,565.236 1227.49,570.607 1228.53,516.264 1229.58,522.096 1230.62,335.864 1231.66,340.235 1232.7,537.747 1233.75,543.007 1234.79,554.994 1235.83,558.119 1236.88,500.399 1237.92,505.317 1238.96,509.748 1240,513.167 1241.05,638.84 1242.09,643.028 1243.13,554.598 1244.18,560.743 1245.22,511.483 1246.26,517.446 1247.3,600.249 1248.35,604.667 1249.39,480.036 1250.43,482.208 1251.48,618.842 1252.52,622.114 1253.56,551.955 1254.6,557.191 1255.65,592.863 1256.69,597.929 1257.73,442.039 1258.78,444.742 1259.82,577.479 1260.86,579.379 1261.9,550.88 1262.95,554.738 1263.99,539.105 1265.03,540.622 1266.08,416.859 1267.12,421.401 1268.16,605.063 1269.2,607.386 1270.25,527.472 1271.29,530.278 1272.33,558.672 1273.38,564.67 1274.42,486.361 1275.46,491.57 1276.51,548.865 1277.55,550.68 1278.59,519.883 1279.63,524.239 1280.68,418.785 1281.72,425.625 1282.76,573.946 1283.81,577.225 1284.85,596.486 1285.89,600.162 1286.93,631.446 1287.98,634.822 1289.02,425.382 1290.06,429.973 1291.11,562.255 1292.15,566.603 1293.19,610.725 1294.23,615.011 1295.28,452.788 1296.32,458.695 1297.36,557.669 1298.41,561.643 1299.45,339.12 1300.49,344.816 1301.53,552.741 1302.58,556.203 1303.62,555.954 1304.66,560.042 1305.71,463.77 1306.75,468.947 1307.79,562.138 1308.83,567.582 1309.88,616.498 1310.92,619.74 1311.96,495.272 1313.01,499.388 1314.05,405.672 1315.09,410.124 1316.13,497.839 1317.18,500.512 1318.22,468.182 1319.26,473.664 1320.31,497.827 1321.35,500.607 1322.39,479.337 1323.43,482.074 1324.48,560.704 1325.52,565.174 1326.56,308.886 1327.61,314.026 1328.65,604.92 1329.69,608.815 1330.73,449.041 1331.78,452.944 1332.82,534.334 1333.86,538.631 1334.91,527.191 1335.95,531.582 1336.99,419.796 1338.03,424.31 1339.08,649.929 1340.12,653.711 1341.16,511.079 1342.21,514.761 1343.25,564.937 1344.29,566.615 1345.34,605.556 1346.38,608.328 1347.42,464.735 1348.46,469.597 1349.51,533.505 1350.55,543.471 1351.59,484.915 1352.64,490.353 1353.68,469.325 1354.72,474.468 1355.76,581.319 1356.81,586.209 1357.85,569.939 1358.89,573.094 1359.94,472.599 1360.98,478.049 1362.02,393.51 1363.06,397.882 1364.11,585.346 1365.15,587.803 1366.19,508.013 1367.24,511.715 1368.28,545.587 1369.32,550.001 1370.36,505.398 1371.41,507.464 1372.45,534.331 1373.49,536.621 1374.54,322.922 1375.58,327.995 1376.62,564.601 1377.66,568.548 1378.71,456.304 1379.75,461.366 1380.79,557.481 1381.84,562.026 1382.88,648.2 1383.92,650.689 1384.96,363.337 1386.01,369.061 1387.05,560.587 1388.09,565.553 1389.14,542.222 1390.18,549.144 1391.22,468.23 1392.26,472.093 1393.31,556.715 1394.35,560.485 1395.39,456.421 1396.44,460.055 1397.48,505.917 1398.52,510.936 1399.56,511.145 1400.61,515.408 1401.65,627.396 1402.69,633.54 1403.74,489.378 1404.78,494.348 1405.82,557.766 1406.86,563.039 1407.91,487.557 1408.95,495.756 1409.99,392.408 1411.04,397.241 1412.08,230.38 1413.12,242.403 1414.17,344.538 1415.21,358.185 1416.25,588.851 1417.29,592.617 1418.34,437.011 1419.38,444.324 1420.42,583.346 1421.47,589.174 1422.51,538.156 1423.55,542.815 1424.59,530.881 1425.64,534.245 1426.68,499.184 1427.72,505.774 1428.77,576.585 1429.81,580.368 1430.85,487.084 1431.89,494.327 1432.94,508.149 1433.98,510.756 1435.02,560.303 1436.07,564.166 1437.11,425.441 1438.15,429.03 1439.19,530.747 1440.24,534.188 1441.28,615.33 1442.32,616.86 1443.37,519.217 1444.41,524.894 1445.45,505.603 1446.49,509.076 1447.54,422.725 1448.58,424.741 1449.62,445.749 1450.67,450.111 1451.71,445.488 1452.75,449.357 1453.79,464.19 1454.84,470.595 1455.88,510.013 1456.92,513.379 1457.97,631.862 1459.01,638.102 1460.05,446.063 1461.09,451.459 1462.14,499.733 1463.18,503.431 1464.22,369.55 1465.27,373.545 1466.31,514.608 1467.35,518.444 1468.39,428.799 1469.44,434.712 1470.48,418.21 1471.52,422.191 1472.57,382.504 1473.61,386.788 1474.65,527.058 1475.69,532.173 1476.74,520.928 1477.78,523.251 1478.82,557.583 1479.87,561.344 1480.91,496.367 1481.95,499.639 1483,776.71 1484.04,783.402 1485.08,639.529 1486.12,644.194 1487.17,487.887 1488.21,490.137 1489.25,583.182 1490.3,585.512 1491.34,563.922 1492.38,565.922 1493.42,412.912 1494.47,419.943 1495.51,512.305 1496.55,516.608 1497.6,710.794 1498.64,712.953 1499.68,480.441 1500.72,485.579 1501.77,438.733 1502.81,442.584 1503.85,566.247 1504.9,571.317 1505.94,509.886 1506.98,513.159 1508.02,472.167 1509.07,478.329 1510.11,432.219 1511.15,436.967 1512.2,560.978 1513.24,564.293 1514.28,496.316 1515.32,501.836 1516.37,572.788 1517.41,577.502 1518.45,611.024 1519.5,614.125 1520.54,648.087 1521.58,650.298 1522.62,492.817 1523.67,495.023 1524.71,538.5 1525.75,540.884 1526.8,528.941 1527.84,531.451 1528.88,626.682 1529.92,631.501 1530.97,541.222 1532.01,549.903 1533.05,558.068 1534.1,562.949 1535.14,566.11 1536.18,569.619 1537.22,372.758 1538.27,377.001 1539.31,488.005 1540.35,497.226 1541.4,431.884 1542.44,436.82 1543.48,471.125 1544.52,475.769 1545.57,366.554 1546.61,373.1 1547.65,537.765 1548.7,544.078 1549.74,664.598 1550.78,668.428 1551.83,416.182 1552.87,419.192 1553.91,529.24 1554.95,535.067 1556,430.193 1557.04,434.795 1558.08,473.277 1559.13,476.13 1560.17,383.582 1561.21,387.516 1562.25,445.821 1563.3,449.05 1564.34,557.742 1565.38,561.37 1566.43,414.955 1567.47,422.146 1568.51,511.939 1569.55,515.06 1570.6,581.881 1571.64,585.86 1572.68,420.867 1573.73,424.555 1574.77,410.363 1575.81,414.158 1576.85,416.899 1577.9,427.217 1578.94,373.858 1579.98,377.16 1581.03,623.42 1582.07,628.105 1583.11,544.421 1584.15,547.306 1585.2,478.027 1586.24,482.186 1587.28,448.169 1588.33,453.68 1589.37,515.847 1590.41,520.305 1591.45,329.434 1592.5,333.16 1593.54,517.459 1594.58,525.14 1595.63,681.451 1596.67,682.992 1597.71,342.566 1598.75,348.353 1599.8,452.693 1600.84,455.99 1601.88,580.128 1602.93,584.436 1603.97,401.672 1605.01,411.555 1606.05,538.728 1607.1,542.82 1608.14,317.252 1609.18,321.745 1610.23,476.093 1611.27,478.447 1612.31,534.101 1613.35,539.118 1614.4,572.272 1615.44,575.111 1616.48,349 1617.53,354.126 1618.57,610.595 1619.61,613.947 1620.66,453.009 1621.7,457.122 1622.74,475.795 1623.78,479.466 1624.83,388.238 1625.87,392.835 1626.91,305.628 1627.96,311.202 1629,318.226 1630.04,321.588 1631.08,460.326 1632.13,464.39 1633.17,427.399 1634.21,431.12 1635.26,463.638 1636.3,468.435 1637.34,435.811 1638.38,442.957 1639.43,224.235 1640.47,229.464 1641.51,465.972 1642.56,473.731 1643.6,524.804 1644.64,528.652 1645.68,520.476 1646.73,524.444 1647.77,373.856 1648.81,380.328 1649.86,403.451 1650.9,407.78 1651.94,525.442 1652.98,529.363 1654.03,435.785 1655.07,439.628 1656.11,559.305 1657.16,564.057 1658.2,436.556 1659.24,440.186 1660.28,399.605 1661.33,402.975 1662.37,501.833 1663.41,507.885 1664.46,372.153 1665.5,377.28 1666.54,503.873 1667.58,506.003 1668.63,363.712 1669.67,365.834 1670.71,504.398 1671.76,510.512 1672.8,384.017 1673.84,386.942 1674.88,549.458 1675.93,552.849 1676.97,619.825 1678.01,625.238 1679.06,343.108 1680.1,347.659 1681.14,463.632 1682.18,467.948 1683.23,439.673 1684.27,444.447 1685.31,552.602 1686.36,558.094 1687.4,336.471 1688.44,341.455 1689.49,468.402 1690.53,471.513 1691.57,404.043 1692.61,411.602 1693.66,356.133 1694.7,360.046 1695.74,561.608 1696.79,565.433 1697.83,565.675 1698.87,569.51 1699.91,503.883 1700.96,507.251 1702,434.902 1703.04,439.028 1704.09,275.327 1705.13,279.156 1706.17,455.453 1707.21,460.756 1708.26,303.841 1709.3,314.782 1710.34,430.036 1711.39,432.971 1712.43,473.671 1713.47,479.032 1714.51,357.373 1715.56,361.151 1716.6,577.945 1717.64,581.401 1718.69,442.14 1719.73,445.509 1720.77,397.811 1721.81,406.597 1722.86,531.729 1723.9,535.804 1724.94,268.273 1725.99,271.483 1727.03,542.989 1728.07,544.922 1729.11,457.972 1730.16,462.011 1731.2,374.545 1732.24,377.044 1733.29,506.153 1734.33,511.156 1735.37,460.645 1736.41,464.547 1737.46,454.225 1738.5,458.9 1739.54,507.449 1740.59,510.287 1741.63,628.262 1742.67,632.92 1743.71,502.094 1744.76,505.805 1745.8,441.048 1746.84,446.113 1747.89,319.045 1748.93,323.02 1749.97,293.587 1751.01,300.371 1752.06,365.204 1753.1,371.544 1754.14,319.546 1755.19,323.838 1756.23,358.535 1757.27,361.84 1758.32,485.633 1759.36,489.769 1760.4,292.59 1761.44,298.287 1762.49,566.753 1763.53,569.84 1764.57,417.952 1765.62,423.791 1766.66,243.223 1767.7,251.547 1768.74,499.382 1769.79,501.512 1770.83,430.259 1771.87,432.601 1772.92,388.926 1773.96,392.396 1775,540.792 1776.04,543.555 1777.09,466.125 1778.13,470.536 1779.17,405.076 1780.22,409.615 1781.26,564.512 1782.3,569.638 1783.34,477.943 1784.39,482.965 1785.43,621.115 1786.47,624.317 1787.52,408.924 1788.56,413.301 1789.6,494.125 1790.64,496.939 1791.69,567.682 1792.73,571.94 1793.77,361.435 1794.82,366.413 1795.86,489.687 1796.9,492.32 1797.94,278.479 1798.99,286.916 1800.03,522.532 1801.07,530.307 1802.12,179.491 1803.16,184.181 1804.2,424.707 1805.24,428.904 1806.29,545.558 1807.33,548.394 1808.37,592.639 1809.42,595.443 1810.46,480.631 1811.5,485.49 1812.54,479.121 1813.59,483.866 1814.63,574.846 1815.67,578.801 1816.72,442.358 1817.76,448.036 1818.8,489.912 1819.84,492.498 1820.89,416.634 1821.93,421.226 1822.97,289.894 1824.02,292.775 1825.06,458.563 1826.1,463.31 1827.15,447.543 1828.19,451.289 1829.23,488.06 1830.27,489.735 1831.32,550.3 1832.36,555.636 1833.4,450.575 1834.45,458.987 1835.49,257.673 1836.53,266.86 1837.57,492.091 1838.62,495.564 1839.66,357.912 1840.7,365.267 1841.75,440.544 1842.79,443.954 1843.83,415.149 1844.87,420.616 1845.92,485.319 1846.96,489.563 1848,577.972 1849.05,582.027 1850.09,365.451 1851.13,372.284 1852.17,291.826 1853.22,298.211 1854.26,591.852 1855.3,594.815 1856.35,476.967 1857.39,482.563 1858.43,532.236 1859.47,536.859 1860.52,307.189 1861.56,312.575 1862.6,463.605 1863.65,468.499 1864.69,344.165 1865.73,348.365 1866.77,589.273 1867.82,593.414 1868.86,413.08 1869.9,416.582 1870.95,239.602 1871.99,242.742 1873.03,405.537 1874.07,409.777 1875.12,370.283 1876.16,375.697 1877.2,389.316 1878.25,391.086 1879.29,247.685 1880.33,252.526 1881.37,412.274 1882.42,417.467 1883.46,453.833 1884.5,456.452 1885.55,389.993 1886.59,395.313 1887.63,296.983 1888.67,301.304 1889.72,449.59 1890.76,458.388 1891.8,391.766 1892.85,399.546 1893.89,435.491 1894.93,440.357 1895.98,522.554 1897.02,525.948 1898.06,399.298 1899.1,403.885 1900.15,509.339 1901.19,514.813 1902.23,338.962 1903.28,342.987 1904.32,326.152 1905.36,329.022 1906.4,481.147 1907.45,485.732 1908.49,317.684 1909.53,324.133 1910.58,448.691 1911.62,452.922 1912.66,454.229 1913.7,457.162 1914.75,424.533 1915.79,429.559 1916.83,459.316 1917.88,463.722 1918.92,288.342 1919.96,293.933 1921,321.413 1922.05,328.316 1923.09,409.453 1924.13,415.539 1925.18,437.582 1926.22,440.488 1927.26,395.334 1928.3,401.579 1929.35,500.078 1930.39,504.774 1931.43,395.606 1932.48,399.812 1933.52,477.724 1934.56,480.679 1935.6,496.605 1936.65,500.564 1937.69,289.137 1938.73,294.036 1939.78,297.475 1940.82,304.071 1941.86,462.984 1942.9,465.842 1943.95,461.735 1944.99,464.654 1946.03,325.014 1947.08,331.615 1948.12,524.432 1949.16,528.254 1950.2,402.716 1951.25,407.333 1952.29,230.08 1953.33,237.508 1954.38,577.05 1955.42,579.024 1956.46,526.772 1957.5,532.795 1958.55,424.406 1959.59,428.387 1960.63,278.9 1961.68,286.552 1962.72,381.048 1963.76,386.081 1964.81,268.069 1965.85,272.9 1966.89,245.568 1967.93,249.901 1968.98,452.192 1970.02,454.647 1971.06,371.197 1972.11,378.559 1973.15,505.699 1974.19,507.989 1975.23,439.734 1976.28,442.181 1977.32,415.773 1978.36,421.284 1979.41,163.706 1980.45,169.313 1981.49,239.794 1982.53,241.916 1983.58,265.085 1984.62,272.117 1985.66,130.709 1986.71,136.74 1987.75,359.793 1988.79,364.606 1989.83,437.676 1990.88,444.079 1991.92,345.278 1992.96,353.697 1994.01,509.827 1995.05,512.104 1996.09,532.1 1997.13,534.25 1998.18,457.45 1999.22,460.731 2000.26,415.865 2001.31,420.193 2002.35,164.617 2003.39,171.941 2004.43,455.116 2005.48,458.944 2006.52,472.68 2007.56,475.961 2008.61,634.632 2009.65,636.067 2010.69,324.568 2011.73,329.916 2012.78,414.126 2013.82,420.372 2014.86,531.816 2015.91,534.005 2016.95,387.77 2017.99,393.956 2019.03,265.901 2020.08,268.931 2021.12,335.932 2022.16,341.194 2023.21,326.089 2024.25,329.659 2025.29,292.998 2026.33,298.79 2027.38,92.3719 2028.42,98.2057 2029.46,399.341 2030.51,402.644 2031.55,289.505 2032.59,295.593 2033.64,315.469 2034.68,321.828 2035.72,432.179 2036.76,434.943 2037.81,217.836 2038.85,225.192 2039.89,632.657 2040.94,638.23 2041.98,202.88 2043.02,207.171 2044.06,422.898 2045.11,426.987 2046.15,446.345 2047.19,450.969 2048.24,475.369 2049.28,481.051 2050.32,506.695 2051.36,511.812 2052.41,317.263 2053.45,322.611 2054.49,459.115 2055.54,461.269 2056.58,546.656 2057.62,551.182 2058.66,217.724 2059.71,225.411 2060.75,316.671 2061.79,319.246 2062.84,483.784 2063.88,486.393 2064.92,343.88 2065.96,355.181 2067.01,301.188 2068.05,304.983 2069.09,297.046 2070.14,300.884 2071.18,205.5 2072.22,209.877 2073.26,274.322 2074.31,279.899 2075.35,490.572 2076.39,497.198 2077.44,134.903 2078.48,140.932 2079.52,231.14 2080.56,234.297 2081.61,166.152 2082.65,173.029 2083.69,415.071 2084.74,418.492 2085.78,395.987 2086.82,404.218 2087.86,431.904 2088.91,435.393 2089.95,409.349 2090.99,415.711 2092.04,434.973 2093.08,440.946 2094.12,384.561 2095.16,389.838 2096.21,336.524 2097.25,341.889 2098.29,423.248 2099.34,427.131 2100.38,392.867 2101.42,395.768 2102.47,238.019 2103.51,247.366 2104.55,509.733 2105.59,513.061 2106.64,521.796 2107.68,527.431 2108.72,441.489 2109.77,445.456 2110.81,482.659 2111.85,485.005 2112.89,288.229 2113.94,298.349 2114.98,150.108 2116.02,160.744 2117.07,375.024 2118.11,379.61 2119.15,302.182 2120.19,307.087 2121.24,521.585 2122.28,523.784 2123.32,275.205 2124.37,282.471 2125.41,347.858 2126.45,354.393 2127.49,267.092 2128.54,275.434 2129.58,134.895 2130.62,140.75 2131.67,431.854 2132.71,435.625 2133.75,343.428 2134.79,354.912 2135.84,343.279 2136.88,348.777 2137.92,287.654 2138.97,293.276 2140.01,373.155 2141.05,379.598 2142.09,363.508 2143.14,366.043 2144.18,218.687 2145.22,225.606 2146.27,232.785 2147.31,238.359 2148.35,558.446 2149.39,564.07 2150.44,416.543 2151.48,422.779 2152.52,209.714 2153.57,219.508 2154.61,305.805 2155.65,313.623 2156.69,384.925 2157.74,390.858 2158.78,310.799 2159.82,315.704 2160.87,385.82 2161.91,391.615 2162.95,315.117 2163.99,321.209 2165.04,333.506 2166.08,336.501 2167.12,620.859 2168.17,622.844 2169.21,310.787 2170.25,315.72 2171.3,550.898 2172.34,554.168 2173.38,448.541 2174.42,452.059 2175.47,414.865 2176.51,421.745 2177.55,379.216 2178.6,383.134 2179.64,381.917 2180.68,385.863 2181.72,415.539 2182.77,420.974 2183.81,427.518 2184.85,431.456 2185.9,248.487 2186.94,259.431 2187.98,133.892 2189.02,140.737 2190.07,215.335 2191.11,220.663 2192.15,449.908 2193.2,454.406 2194.24,87.9763 2195.28,95.2551 2196.32,491.811 2197.37,496.907 2198.41,223.574 2199.45,227.944 2200.5,330.206 2201.54,334.295 2202.58,473.124 2203.62,476.97 2204.67,244.665 2205.71,247.872 2206.75,302.228 2207.8,308.131 2208.84,319.528 2209.88,328.461 2210.92,417.792 2211.97,421.078 2213.01,516.157 2214.05,519.954 2215.1,249.071 2216.14,254.531 2217.18,439.562 2218.22,444.14 2219.27,189.502 2220.31,197.272 2221.35,358.573 2222.4,362.261 2223.44,514.542 2224.48,518.199 2225.52,473.188 2226.57,476.977 2227.61,424.278 2228.65,428.385 2229.7,242.215 2230.74,249.875 2231.78,274.272 2232.82,278.468 2233.87,244.711 2234.91,251.036 2235.95,302.955 2237,307.651 2238.04,218.063 2239.08,225.323 2240.12,394.098 2241.17,397.577 2242.21,170.054 2243.25,172.464 2244.3,372.112 2245.34,377.353 2246.38,398.344 2247.43,401.343 2248.47,338.239 2249.51,343.336 2250.55,424.033 2251.6,430.07 2252.64,452.443 2253.68,455.788 2254.73,691.029 2255.77,693.044 2256.81,382.753 2257.85,384.774 2258.9,342.078 2259.94,350.63 2260.98,271.142 2262.03,276.75 2263.07,290.746 2264.11,294 2265.15,195.511 2266.2,199.517 2267.24,489.558 2268.28,492.997 2269.33,315.925 2270.37,320.247 2271.41,411.212 2272.45,416.92 2273.5,274.417 2274.54,281.236 2275.58,294.386 2276.63,299.082 2277.67,437.964 2278.71,440.977 2279.75,405.077 2280.8,411.835 2281.84,192.944 2282.88,202.49 2283.93,392.338 2284.97,395.881 2286.01,216.997 2287.05,223.545 2288.1,201.202 2289.14,207.443 2290.18,210.606 "/>
<path clip-path="url(#clip730)" d="M215.55 198.898 L489.07 198.898 L489.07 95.2176 L215.55 95.2176  Z" fill="#ffffff" fill-rule="evenodd" fill-opacity="1"/>
<polyline clip-path="url(#clip730)" style="stroke:#000000; stroke-linecap:round; stroke-linejoin:round; stroke-width:4; stroke-opacity:1; fill:none" points="215.55,198.898 489.07,198.898 489.07,95.2176 215.55,95.2176 215.55,198.898 "/>
<polyline clip-path="url(#clip730)" style="stroke:#009af9; stroke-linecap:round; stroke-linejoin:round; stroke-width:4; stroke-opacity:1; fill:none" points="240.115,147.058 387.509,147.058 "/>
<path clip-path="url(#clip730)" d="M425.917 166.745 Q424.111 171.375 422.398 172.787 Q420.685 174.199 417.815 174.199 L414.412 174.199 L414.412 170.634 L416.912 170.634 Q418.672 170.634 419.644 169.8 Q420.616 168.967 421.797 165.865 L422.56 163.921 L412.074 138.412 L416.588 138.412 L424.69 158.689 L432.792 138.412 L437.306 138.412 L425.917 166.745 Z" fill="#000000" fill-rule="nonzero" fill-opacity="1" /><path clip-path="url(#clip730)" d="M444.597 160.402 L452.236 160.402 L452.236 134.037 L443.926 135.703 L443.926 131.444 L452.19 129.778 L456.866 129.778 L456.866 160.402 L464.505 160.402 L464.505 164.338 L444.597 164.338 L444.597 160.402 Z" fill="#000000" fill-rule="nonzero" fill-opacity="1" /></svg>
