<?xml version="1.0" encoding="utf-8"?>
<svg xmlns="http://www.w3.org/2000/svg" xmlns:xlink="http://www.w3.org/1999/xlink" width="600" height="400" viewBox="0 0 2400 1600">
<defs>
  <clipPath id="clip360">
    <rect x="0" y="0" width="2400" height="1600"/>
  </clipPath>
</defs>
<path clip-path="url(#clip360)" d="M0 1600 L2400 1600 L2400 0 L0 0  Z" fill="#ffffff" fill-rule="evenodd" fill-opacity="1"/>
<defs>
  <clipPath id="clip361">
    <rect x="480" y="0" width="1681" height="1600"/>
  </clipPath>
</defs>
<path clip-path="url(#clip360)" d="M186.274 1486.45 L2352.76 1486.45 L2352.76 47.2441 L186.274 47.2441  Z" fill="#ffffff" fill-rule="evenodd" fill-opacity="1"/>
<defs>
  <clipPath id="clip362">
    <rect x="186" y="47" width="2167" height="1440"/>
  </clipPath>
</defs>
<polyline clip-path="url(#clip362)" style="stroke:#000000; stroke-linecap:round; stroke-linejoin:round; stroke-width:2; stroke-opacity:0.1; fill:none" points="226.945,1486.45 226.945,47.2441 "/>
<polyline clip-path="url(#clip362)" style="stroke:#000000; stroke-linecap:round; stroke-linejoin:round; stroke-width:2; stroke-opacity:0.1; fill:none" points="743.069,1486.45 743.069,47.2441 "/>
<polyline clip-path="url(#clip362)" style="stroke:#000000; stroke-linecap:round; stroke-linejoin:round; stroke-width:2; stroke-opacity:0.1; fill:none" points="1259.19,1486.45 1259.19,47.2441 "/>
<polyline clip-path="url(#clip362)" style="stroke:#000000; stroke-linecap:round; stroke-linejoin:round; stroke-width:2; stroke-opacity:0.1; fill:none" points="1775.32,1486.45 1775.32,47.2441 "/>
<polyline clip-path="url(#clip362)" style="stroke:#000000; stroke-linecap:round; stroke-linejoin:round; stroke-width:2; stroke-opacity:0.1; fill:none" points="2291.44,1486.45 2291.44,47.2441 "/>
<polyline clip-path="url(#clip360)" style="stroke:#000000; stroke-linecap:round; stroke-linejoin:round; stroke-width:4; stroke-opacity:1; fill:none" points="186.274,1486.45 2352.76,1486.45 "/>
<polyline clip-path="url(#clip360)" style="stroke:#000000; stroke-linecap:round; stroke-linejoin:round; stroke-width:4; stroke-opacity:1; fill:none" points="226.945,1486.45 226.945,1467.55 "/>
<polyline clip-path="url(#clip360)" style="stroke:#000000; stroke-linecap:round; stroke-linejoin:round; stroke-width:4; stroke-opacity:1; fill:none" points="743.069,1486.45 743.069,1467.55 "/>
<polyline clip-path="url(#clip360)" style="stroke:#000000; stroke-linecap:round; stroke-linejoin:round; stroke-width:4; stroke-opacity:1; fill:none" points="1259.19,1486.45 1259.19,1467.55 "/>
<polyline clip-path="url(#clip360)" style="stroke:#000000; stroke-linecap:round; stroke-linejoin:round; stroke-width:4; stroke-opacity:1; fill:none" points="1775.32,1486.45 1775.32,1467.55 "/>
<polyline clip-path="url(#clip360)" style="stroke:#000000; stroke-linecap:round; stroke-linejoin:round; stroke-width:4; stroke-opacity:1; fill:none" points="2291.44,1486.45 2291.44,1467.55 "/>
<path clip-path="url(#clip360)" d="M226.945 1517.37 Q223.333 1517.37 221.505 1520.93 Q219.699 1524.47 219.699 1531.6 Q219.699 1538.71 221.505 1542.27 Q223.333 1545.82 226.945 1545.82 Q230.579 1545.82 232.384 1542.27 Q234.213 1538.71 234.213 1531.6 Q234.213 1524.47 232.384 1520.93 Q230.579 1517.37 226.945 1517.37 M226.945 1513.66 Q232.755 1513.66 235.81 1518.27 Q238.889 1522.85 238.889 1531.6 Q238.889 1540.33 235.81 1544.94 Q232.755 1549.52 226.945 1549.52 Q221.134 1549.52 218.056 1544.94 Q215 1540.33 215 1531.6 Q215 1522.85 218.056 1518.27 Q221.134 1513.66 226.945 1513.66 Z" fill="#000000" fill-rule="nonzero" fill-opacity="1" /><path clip-path="url(#clip360)" d="M722.339 1544.91 L738.659 1544.91 L738.659 1548.85 L716.714 1548.85 L716.714 1544.91 Q719.377 1542.16 723.96 1537.53 Q728.566 1532.88 729.747 1531.53 Q731.992 1529.01 732.872 1527.27 Q733.775 1525.51 733.775 1523.82 Q733.775 1521.07 731.83 1519.33 Q729.909 1517.6 726.807 1517.6 Q724.608 1517.6 722.154 1518.36 Q719.724 1519.13 716.946 1520.68 L716.946 1515.95 Q719.77 1514.82 722.224 1514.24 Q724.677 1513.66 726.714 1513.66 Q732.085 1513.66 735.279 1516.35 Q738.474 1519.03 738.474 1523.52 Q738.474 1525.65 737.663 1527.57 Q736.876 1529.47 734.77 1532.07 Q734.191 1532.74 731.089 1535.95 Q727.988 1539.15 722.339 1544.91 Z" fill="#000000" fill-rule="nonzero" fill-opacity="1" /><path clip-path="url(#clip360)" d="M748.52 1514.29 L766.876 1514.29 L766.876 1518.22 L752.802 1518.22 L752.802 1526.7 Q753.821 1526.35 754.839 1526.19 Q755.858 1526 756.876 1526 Q762.663 1526 766.043 1529.17 Q769.423 1532.34 769.423 1537.76 Q769.423 1543.34 765.95 1546.44 Q762.478 1549.52 756.159 1549.52 Q753.983 1549.52 751.714 1549.15 Q749.469 1548.78 747.062 1548.04 L747.062 1543.34 Q749.145 1544.47 751.367 1545.03 Q753.589 1545.58 756.066 1545.58 Q760.071 1545.58 762.409 1543.48 Q764.747 1541.37 764.747 1537.76 Q764.747 1534.15 762.409 1532.04 Q760.071 1529.94 756.066 1529.94 Q754.191 1529.94 752.316 1530.35 Q750.464 1530.77 748.52 1531.65 L748.52 1514.29 Z" fill="#000000" fill-rule="nonzero" fill-opacity="1" /><path clip-path="url(#clip360)" d="M1233.89 1514.29 L1252.25 1514.29 L1252.25 1518.22 L1238.17 1518.22 L1238.17 1526.7 Q1239.19 1526.35 1240.21 1526.19 Q1241.23 1526 1242.25 1526 Q1248.04 1526 1251.41 1529.17 Q1254.79 1532.34 1254.79 1537.76 Q1254.79 1543.34 1251.32 1546.44 Q1247.85 1549.52 1241.53 1549.52 Q1239.35 1549.52 1237.09 1549.15 Q1234.84 1548.78 1232.43 1548.04 L1232.43 1543.34 Q1234.52 1544.47 1236.74 1545.03 Q1238.96 1545.58 1241.44 1545.58 Q1245.44 1545.58 1247.78 1543.48 Q1250.12 1541.37 1250.12 1537.76 Q1250.12 1534.15 1247.78 1532.04 Q1245.44 1529.94 1241.44 1529.94 Q1239.56 1529.94 1237.69 1530.35 Q1235.84 1530.77 1233.89 1531.65 L1233.89 1514.29 Z" fill="#000000" fill-rule="nonzero" fill-opacity="1" /><path clip-path="url(#clip360)" d="M1274.01 1517.37 Q1270.4 1517.37 1268.57 1520.93 Q1266.76 1524.47 1266.76 1531.6 Q1266.76 1538.71 1268.57 1542.27 Q1270.4 1545.82 1274.01 1545.82 Q1277.64 1545.82 1279.45 1542.27 Q1281.28 1538.71 1281.28 1531.6 Q1281.28 1524.47 1279.45 1520.93 Q1277.64 1517.37 1274.01 1517.37 M1274.01 1513.66 Q1279.82 1513.66 1282.87 1518.27 Q1285.95 1522.85 1285.95 1531.6 Q1285.95 1540.33 1282.87 1544.94 Q1279.82 1549.52 1274.01 1549.52 Q1268.2 1549.52 1265.12 1544.94 Q1262.06 1540.33 1262.06 1531.6 Q1262.06 1522.85 1265.12 1518.27 Q1268.2 1513.66 1274.01 1513.66 Z" fill="#000000" fill-rule="nonzero" fill-opacity="1" /><path clip-path="url(#clip360)" d="M1749.17 1514.29 L1771.39 1514.29 L1771.39 1516.28 L1758.85 1548.85 L1753.96 1548.85 L1765.77 1518.22 L1749.17 1518.22 L1749.17 1514.29 Z" fill="#000000" fill-rule="nonzero" fill-opacity="1" /><path clip-path="url(#clip360)" d="M1780.56 1514.29 L1798.92 1514.29 L1798.92 1518.22 L1784.84 1518.22 L1784.84 1526.7 Q1785.86 1526.35 1786.88 1526.19 Q1787.9 1526 1788.92 1526 Q1794.7 1526 1798.08 1529.17 Q1801.46 1532.34 1801.46 1537.76 Q1801.46 1543.34 1797.99 1546.44 Q1794.52 1549.52 1788.2 1549.52 Q1786.02 1549.52 1783.75 1549.15 Q1781.51 1548.78 1779.1 1548.04 L1779.1 1543.34 Q1781.18 1544.47 1783.41 1545.03 Q1785.63 1545.58 1788.11 1545.58 Q1792.11 1545.58 1794.45 1543.48 Q1796.79 1541.37 1796.79 1537.76 Q1796.79 1534.15 1794.45 1532.04 Q1792.11 1529.94 1788.11 1529.94 Q1786.23 1529.94 1784.36 1530.35 Q1782.5 1530.77 1780.56 1531.65 L1780.56 1514.29 Z" fill="#000000" fill-rule="nonzero" fill-opacity="1" /><path clip-path="url(#clip360)" d="M2251.05 1544.91 L2258.69 1544.91 L2258.69 1518.55 L2250.38 1520.21 L2250.38 1515.95 L2258.64 1514.29 L2263.32 1514.29 L2263.32 1544.91 L2270.95 1544.91 L2270.95 1548.85 L2251.05 1548.85 L2251.05 1544.91 Z" fill="#000000" fill-rule="nonzero" fill-opacity="1" /><path clip-path="url(#clip360)" d="M2290.4 1517.37 Q2286.79 1517.37 2284.96 1520.93 Q2283.15 1524.47 2283.15 1531.6 Q2283.15 1538.71 2284.96 1542.27 Q2286.79 1545.82 2290.4 1545.82 Q2294.03 1545.82 2295.84 1542.27 Q2297.67 1538.71 2297.67 1531.6 Q2297.67 1524.47 2295.84 1520.93 Q2294.03 1517.37 2290.4 1517.37 M2290.4 1513.66 Q2296.21 1513.66 2299.26 1518.27 Q2302.34 1522.85 2302.34 1531.6 Q2302.34 1540.33 2299.26 1544.94 Q2296.21 1549.52 2290.4 1549.52 Q2284.59 1549.52 2281.51 1544.94 Q2278.45 1540.33 2278.45 1531.6 Q2278.45 1522.85 2281.51 1518.27 Q2284.59 1513.66 2290.4 1513.66 Z" fill="#000000" fill-rule="nonzero" fill-opacity="1" /><path clip-path="url(#clip360)" d="M2320.56 1517.37 Q2316.95 1517.37 2315.12 1520.93 Q2313.32 1524.47 2313.32 1531.6 Q2313.32 1538.71 2315.12 1542.27 Q2316.95 1545.82 2320.56 1545.82 Q2324.19 1545.82 2326 1542.27 Q2327.83 1538.71 2327.83 1531.6 Q2327.83 1524.47 2326 1520.93 Q2324.19 1517.37 2320.56 1517.37 M2320.56 1513.66 Q2326.37 1513.66 2329.43 1518.27 Q2332.5 1522.85 2332.5 1531.6 Q2332.5 1540.33 2329.43 1544.94 Q2326.37 1549.52 2320.56 1549.52 Q2314.75 1549.52 2311.67 1544.94 Q2308.62 1540.33 2308.62 1531.6 Q2308.62 1522.85 2311.67 1518.27 Q2314.75 1513.66 2320.56 1513.66 Z" fill="#000000" fill-rule="nonzero" fill-opacity="1" /><polyline clip-path="url(#clip362)" style="stroke:#000000; stroke-linecap:round; stroke-linejoin:round; stroke-width:2; stroke-opacity:0.1; fill:none" points="186.274,1445.72 2352.76,1445.72 "/>
<polyline clip-path="url(#clip362)" style="stroke:#000000; stroke-linecap:round; stroke-linejoin:round; stroke-width:2; stroke-opacity:0.1; fill:none" points="186.274,1106.28 2352.76,1106.28 "/>
<polyline clip-path="url(#clip362)" style="stroke:#000000; stroke-linecap:round; stroke-linejoin:round; stroke-width:2; stroke-opacity:0.1; fill:none" points="186.274,766.846 2352.76,766.846 "/>
<polyline clip-path="url(#clip362)" style="stroke:#000000; stroke-linecap:round; stroke-linejoin:round; stroke-width:2; stroke-opacity:0.1; fill:none" points="186.274,427.411 2352.76,427.411 "/>
<polyline clip-path="url(#clip362)" style="stroke:#000000; stroke-linecap:round; stroke-linejoin:round; stroke-width:2; stroke-opacity:0.1; fill:none" points="186.274,87.9763 2352.76,87.9763 "/>
<polyline clip-path="url(#clip360)" style="stroke:#000000; stroke-linecap:round; stroke-linejoin:round; stroke-width:4; stroke-opacity:1; fill:none" points="186.274,1486.45 186.274,47.2441 "/>
<polyline clip-path="url(#clip360)" style="stroke:#000000; stroke-linecap:round; stroke-linejoin:round; stroke-width:4; stroke-opacity:1; fill:none" points="186.274,1445.72 205.172,1445.72 "/>
<polyline clip-path="url(#clip360)" style="stroke:#000000; stroke-linecap:round; stroke-linejoin:round; stroke-width:4; stroke-opacity:1; fill:none" points="186.274,1106.28 205.172,1106.28 "/>
<polyline clip-path="url(#clip360)" style="stroke:#000000; stroke-linecap:round; stroke-linejoin:round; stroke-width:4; stroke-opacity:1; fill:none" points="186.274,766.846 205.172,766.846 "/>
<polyline clip-path="url(#clip360)" style="stroke:#000000; stroke-linecap:round; stroke-linejoin:round; stroke-width:4; stroke-opacity:1; fill:none" points="186.274,427.411 205.172,427.411 "/>
<polyline clip-path="url(#clip360)" style="stroke:#000000; stroke-linecap:round; stroke-linejoin:round; stroke-width:4; stroke-opacity:1; fill:none" points="186.274,87.9763 205.172,87.9763 "/>
<path clip-path="url(#clip360)" d="M62.9365 1431.51 Q59.3254 1431.51 57.4967 1435.08 Q55.6912 1438.62 55.6912 1445.75 Q55.6912 1452.86 57.4967 1456.42 Q59.3254 1459.96 62.9365 1459.96 Q66.5707 1459.96 68.3763 1456.42 Q70.205 1452.86 70.205 1445.75 Q70.205 1438.62 68.3763 1435.08 Q66.5707 1431.51 62.9365 1431.51 M62.9365 1427.81 Q68.7467 1427.81 71.8022 1432.42 Q74.8809 1437 74.8809 1445.75 Q74.8809 1454.48 71.8022 1459.08 Q68.7467 1463.67 62.9365 1463.67 Q57.1264 1463.67 54.0477 1459.08 Q50.9921 1454.48 50.9921 1445.75 Q50.9921 1437 54.0477 1432.42 Q57.1264 1427.81 62.9365 1427.81 Z" fill="#000000" fill-rule="nonzero" fill-opacity="1" /><path clip-path="url(#clip360)" d="M83.0984 1457.12 L87.9827 1457.12 L87.9827 1463 L83.0984 1463 L83.0984 1457.12 Z" fill="#000000" fill-rule="nonzero" fill-opacity="1" /><path clip-path="url(#clip360)" d="M108.168 1431.51 Q104.557 1431.51 102.728 1435.08 Q100.922 1438.62 100.922 1445.75 Q100.922 1452.86 102.728 1456.42 Q104.557 1459.96 108.168 1459.96 Q111.802 1459.96 113.608 1456.42 Q115.436 1452.86 115.436 1445.75 Q115.436 1438.62 113.608 1435.08 Q111.802 1431.51 108.168 1431.51 M108.168 1427.81 Q113.978 1427.81 117.033 1432.42 Q120.112 1437 120.112 1445.75 Q120.112 1454.48 117.033 1459.08 Q113.978 1463.67 108.168 1463.67 Q102.358 1463.67 99.2789 1459.08 Q96.2234 1454.48 96.2234 1445.75 Q96.2234 1437 99.2789 1432.42 Q102.358 1427.81 108.168 1427.81 Z" fill="#000000" fill-rule="nonzero" fill-opacity="1" /><path clip-path="url(#clip360)" d="M138.33 1431.51 Q134.719 1431.51 132.89 1435.08 Q131.084 1438.62 131.084 1445.75 Q131.084 1452.86 132.89 1456.42 Q134.719 1459.96 138.33 1459.96 Q141.964 1459.96 143.769 1456.42 Q145.598 1452.86 145.598 1445.75 Q145.598 1438.62 143.769 1435.08 Q141.964 1431.51 138.33 1431.51 M138.33 1427.81 Q144.14 1427.81 147.195 1432.42 Q150.274 1437 150.274 1445.75 Q150.274 1454.48 147.195 1459.08 Q144.14 1463.67 138.33 1463.67 Q132.519 1463.67 129.441 1459.08 Q126.385 1454.48 126.385 1445.75 Q126.385 1437 129.441 1432.42 Q132.519 1427.81 138.33 1427.81 Z" fill="#000000" fill-rule="nonzero" fill-opacity="1" /><path clip-path="url(#clip360)" d="M63.9319 1092.08 Q60.3208 1092.08 58.4921 1095.64 Q56.6865 1099.19 56.6865 1106.32 Q56.6865 1113.42 58.4921 1116.99 Q60.3208 1120.53 63.9319 1120.53 Q67.5661 1120.53 69.3717 1116.99 Q71.2004 1113.42 71.2004 1106.32 Q71.2004 1099.19 69.3717 1095.64 Q67.5661 1092.08 63.9319 1092.08 M63.9319 1088.38 Q69.742 1088.38 72.7976 1092.98 Q75.8763 1097.57 75.8763 1106.32 Q75.8763 1115.04 72.7976 1119.65 Q69.742 1124.23 63.9319 1124.23 Q58.1217 1124.23 55.043 1119.65 Q51.9875 1115.04 51.9875 1106.32 Q51.9875 1097.57 55.043 1092.98 Q58.1217 1088.38 63.9319 1088.38 Z" fill="#000000" fill-rule="nonzero" fill-opacity="1" /><path clip-path="url(#clip360)" d="M84.0938 1117.68 L88.978 1117.68 L88.978 1123.56 L84.0938 1123.56 L84.0938 1117.68 Z" fill="#000000" fill-rule="nonzero" fill-opacity="1" /><path clip-path="url(#clip360)" d="M103.191 1119.63 L119.51 1119.63 L119.51 1123.56 L97.566 1123.56 L97.566 1119.63 Q100.228 1116.87 104.811 1112.24 Q109.418 1107.59 110.598 1106.25 Q112.844 1103.72 113.723 1101.99 Q114.626 1100.23 114.626 1098.54 Q114.626 1095.78 112.682 1094.05 Q110.76 1092.31 107.658 1092.31 Q105.459 1092.31 103.006 1093.07 Q100.575 1093.84 97.7974 1095.39 L97.7974 1090.67 Q100.621 1089.53 103.075 1088.95 Q105.529 1088.38 107.566 1088.38 Q112.936 1088.38 116.131 1091.06 Q119.325 1093.75 119.325 1098.24 Q119.325 1100.37 118.515 1102.29 Q117.728 1104.19 115.621 1106.78 Q115.043 1107.45 111.941 1110.67 Q108.839 1113.86 103.191 1119.63 Z" fill="#000000" fill-rule="nonzero" fill-opacity="1" /><path clip-path="url(#clip360)" d="M129.371 1089 L147.728 1089 L147.728 1092.94 L133.654 1092.94 L133.654 1101.41 Q134.672 1101.06 135.691 1100.9 Q136.709 1100.71 137.728 1100.71 Q143.515 1100.71 146.894 1103.89 Q150.274 1107.06 150.274 1112.47 Q150.274 1118.05 146.802 1121.15 Q143.33 1124.23 137.01 1124.23 Q134.834 1124.23 132.566 1123.86 Q130.32 1123.49 127.913 1122.75 L127.913 1118.05 Q129.996 1119.19 132.219 1119.74 Q134.441 1120.3 136.918 1120.3 Q140.922 1120.3 143.26 1118.19 Q145.598 1116.08 145.598 1112.47 Q145.598 1108.86 143.26 1106.76 Q140.922 1104.65 136.918 1104.65 Q135.043 1104.65 133.168 1105.07 Q131.316 1105.48 129.371 1106.36 L129.371 1089 Z" fill="#000000" fill-rule="nonzero" fill-opacity="1" /><path clip-path="url(#clip360)" d="M62.9365 752.645 Q59.3254 752.645 57.4967 756.209 Q55.6912 759.751 55.6912 766.881 Q55.6912 773.987 57.4967 777.552 Q59.3254 781.094 62.9365 781.094 Q66.5707 781.094 68.3763 777.552 Q70.205 773.987 70.205 766.881 Q70.205 759.751 68.3763 756.209 Q66.5707 752.645 62.9365 752.645 M62.9365 748.941 Q68.7467 748.941 71.8022 753.547 Q74.8809 758.131 74.8809 766.881 Q74.8809 775.608 71.8022 780.214 Q68.7467 784.797 62.9365 784.797 Q57.1264 784.797 54.0477 780.214 Q50.9921 775.608 50.9921 766.881 Q50.9921 758.131 54.0477 753.547 Q57.1264 748.941 62.9365 748.941 Z" fill="#000000" fill-rule="nonzero" fill-opacity="1" /><path clip-path="url(#clip360)" d="M83.0984 778.246 L87.9827 778.246 L87.9827 784.126 L83.0984 784.126 L83.0984 778.246 Z" fill="#000000" fill-rule="nonzero" fill-opacity="1" /><path clip-path="url(#clip360)" d="M98.2141 749.566 L116.57 749.566 L116.57 753.501 L102.496 753.501 L102.496 761.973 Q103.515 761.626 104.534 761.464 Q105.552 761.279 106.571 761.279 Q112.358 761.279 115.737 764.45 Q119.117 767.621 119.117 773.038 Q119.117 778.617 115.645 781.719 Q112.172 784.797 105.853 784.797 Q103.677 784.797 101.409 784.427 Q99.1632 784.057 96.7558 783.316 L96.7558 778.617 Q98.8391 779.751 101.061 780.307 Q103.284 780.862 105.76 780.862 Q109.765 780.862 112.103 778.756 Q114.441 776.649 114.441 773.038 Q114.441 769.427 112.103 767.321 Q109.765 765.214 105.76 765.214 Q103.885 765.214 102.01 765.631 Q100.159 766.047 98.2141 766.927 L98.2141 749.566 Z" fill="#000000" fill-rule="nonzero" fill-opacity="1" /><path clip-path="url(#clip360)" d="M138.33 752.645 Q134.719 752.645 132.89 756.209 Q131.084 759.751 131.084 766.881 Q131.084 773.987 132.89 777.552 Q134.719 781.094 138.33 781.094 Q141.964 781.094 143.769 777.552 Q145.598 773.987 145.598 766.881 Q145.598 759.751 143.769 756.209 Q141.964 752.645 138.33 752.645 M138.33 748.941 Q144.14 748.941 147.195 753.547 Q150.274 758.131 150.274 766.881 Q150.274 775.608 147.195 780.214 Q144.14 784.797 138.33 784.797 Q132.519 784.797 129.441 780.214 Q126.385 775.608 126.385 766.881 Q126.385 758.131 129.441 753.547 Q132.519 748.941 138.33 748.941 Z" fill="#000000" fill-rule="nonzero" fill-opacity="1" /><path clip-path="url(#clip360)" d="M63.9319 413.21 Q60.3208 413.21 58.4921 416.775 Q56.6865 420.316 56.6865 427.446 Q56.6865 434.552 58.4921 438.117 Q60.3208 441.659 63.9319 441.659 Q67.5661 441.659 69.3717 438.117 Q71.2004 434.552 71.2004 427.446 Q71.2004 420.316 69.3717 416.775 Q67.5661 413.21 63.9319 413.21 M63.9319 409.506 Q69.742 409.506 72.7976 414.113 Q75.8763 418.696 75.8763 427.446 Q75.8763 436.173 72.7976 440.779 Q69.742 445.362 63.9319 445.362 Q58.1217 445.362 55.043 440.779 Q51.9875 436.173 51.9875 427.446 Q51.9875 418.696 55.043 414.113 Q58.1217 409.506 63.9319 409.506 Z" fill="#000000" fill-rule="nonzero" fill-opacity="1" /><path clip-path="url(#clip360)" d="M84.0938 438.812 L88.978 438.812 L88.978 444.691 L84.0938 444.691 L84.0938 438.812 Z" fill="#000000" fill-rule="nonzero" fill-opacity="1" /><path clip-path="url(#clip360)" d="M97.9826 410.131 L120.205 410.131 L120.205 412.122 L107.658 444.691 L102.774 444.691 L114.58 414.066 L97.9826 414.066 L97.9826 410.131 Z" fill="#000000" fill-rule="nonzero" fill-opacity="1" /><path clip-path="url(#clip360)" d="M129.371 410.131 L147.728 410.131 L147.728 414.066 L133.654 414.066 L133.654 422.538 Q134.672 422.191 135.691 422.029 Q136.709 421.844 137.728 421.844 Q143.515 421.844 146.894 425.015 Q150.274 428.187 150.274 433.603 Q150.274 439.182 146.802 442.284 Q143.33 445.362 137.01 445.362 Q134.834 445.362 132.566 444.992 Q130.32 444.622 127.913 443.881 L127.913 439.182 Q129.996 440.316 132.219 440.872 Q134.441 441.427 136.918 441.427 Q140.922 441.427 143.26 439.321 Q145.598 437.214 145.598 433.603 Q145.598 429.992 143.26 427.886 Q140.922 425.779 136.918 425.779 Q135.043 425.779 133.168 426.196 Q131.316 426.613 129.371 427.492 L129.371 410.131 Z" fill="#000000" fill-rule="nonzero" fill-opacity="1" /><path clip-path="url(#clip360)" d="M53.7467 101.321 L61.3856 101.321 L61.3856 74.9555 L53.0754 76.6222 L53.0754 72.3629 L61.3393 70.6963 L66.0152 70.6963 L66.0152 101.321 L73.654 101.321 L73.654 105.256 L53.7467 105.256 L53.7467 101.321 Z" fill="#000000" fill-rule="nonzero" fill-opacity="1" /><path clip-path="url(#clip360)" d="M83.0984 99.3767 L87.9827 99.3767 L87.9827 105.256 L83.0984 105.256 L83.0984 99.3767 Z" fill="#000000" fill-rule="nonzero" fill-opacity="1" /><path clip-path="url(#clip360)" d="M108.168 73.775 Q104.557 73.775 102.728 77.3398 Q100.922 80.8814 100.922 88.011 Q100.922 95.1174 102.728 98.6822 Q104.557 102.224 108.168 102.224 Q111.802 102.224 113.608 98.6822 Q115.436 95.1174 115.436 88.011 Q115.436 80.8814 113.608 77.3398 Q111.802 73.775 108.168 73.775 M108.168 70.0713 Q113.978 70.0713 117.033 74.6777 Q120.112 79.261 120.112 88.011 Q120.112 96.7378 117.033 101.344 Q113.978 105.928 108.168 105.928 Q102.358 105.928 99.2789 101.344 Q96.2234 96.7378 96.2234 88.011 Q96.2234 79.261 99.2789 74.6777 Q102.358 70.0713 108.168 70.0713 Z" fill="#000000" fill-rule="nonzero" fill-opacity="1" /><path clip-path="url(#clip360)" d="M138.33 73.775 Q134.719 73.775 132.89 77.3398 Q131.084 80.8814 131.084 88.011 Q131.084 95.1174 132.89 98.6822 Q134.719 102.224 138.33 102.224 Q141.964 102.224 143.769 98.6822 Q145.598 95.1174 145.598 88.011 Q145.598 80.8814 143.769 77.3398 Q141.964 73.775 138.33 73.775 M138.33 70.0713 Q144.14 70.0713 147.195 74.6777 Q150.274 79.261 150.274 88.011 Q150.274 96.7378 147.195 101.344 Q144.14 105.928 138.33 105.928 Q132.519 105.928 129.441 101.344 Q126.385 96.7378 126.385 88.011 Q126.385 79.261 129.441 74.6777 Q132.519 70.0713 138.33 70.0713 Z" fill="#000000" fill-rule="nonzero" fill-opacity="1" /><path clip-path="url(#clip362)" d="M247.59 1427.78 L268.234 1425.71 L288.879 1425.71 L309.524 1425.71 L330.169 1425.71 L350.814 1425.71 L371.459 1425.71 L392.104 1425.71 L412.749 1425.71 L433.394 1425.71 L454.039 1425.71 L474.684 1425.71 L495.329 1425.7 L515.974 1425.7 L536.619 1425.7 L557.264 1425.7 L577.909 1425.7 L598.554 1425.7 L619.199 1425.7 L639.844 1425.7 L660.489 1425.7 L681.134 1425.7 L701.779 1425.7 L722.424 1425.7 L743.069 1425.7 L763.713 1425.7 L784.358 1425.7 L805.003 1425.7 L825.648 1425.69 L846.293 1425.69 L866.938 1425.69 L887.583 1425.69 L908.228 1425.69 L928.873 1425.69 L949.518 1425.69 L970.163 1425.69 L990.808 1425.69 L1011.45 1425.69 L1032.1 1425.69 L1052.74 1425.69 L1073.39 1425.69 L1094.03 1425.69 L1114.68 1425.69 L1135.32 1425.68 L1155.97 1425.68 L1176.61 1425.68 L1197.26 1425.68 L1217.9 1425.68 L1238.55 1425.68 L1259.19 1425.68 L1279.84 1425.68 L1300.48 1425.68 L1321.13 1425.68 L1341.77 1425.68 L1362.42 1425.68 L1383.06 1425.68 L1403.71 1425.68 L1424.35 1425.68 L1445 1425.68 L1465.64 1425.67 L1486.29 1425.67 L1506.93 1425.67 L1527.58 1425.67 L1548.22 1425.67 L1568.87 1425.67 L1589.51 1425.67 L1610.16 1425.67 L1630.8 1425.67 L1651.45 1425.67 L1672.09 1425.67 L1692.74 1425.67 L1713.38 1425.67 L1734.03 1425.67 L1754.67 1425.67 L1775.32 1425.67 L1795.96 1425.66 L1816.61 1425.66 L1837.25 1425.66 L1857.9 1425.66 L1878.54 1425.66 L1899.19 1425.66 L1919.83 1425.66 L1940.48 1425.66 L1961.12 1425.66 L1981.77 1425.66 L2002.41 1425.66 L2023.06 1425.66 L2043.7 1425.66 L2064.35 1425.66 L2084.99 1425.66 L2105.64 1425.66 L2126.28 1425.65 L2146.93 1425.65 L2167.57 1425.65 L2188.22 1425.65 L2208.86 1425.65 L2229.51 1425.65 L2250.15 1425.65 L2270.8 1425.65 L2291.44 1425.65 L2291.44 1445.72 L2270.8 1445.72 L2250.15 1445.72 L2229.51 1445.72 L2208.86 1445.72 L2188.22 1445.72 L2167.57 1445.72 L2146.93 1445.72 L2126.28 1445.72 L2105.64 1445.72 L2084.99 1445.72 L2064.35 1445.72 L2043.7 1445.72 L2023.06 1445.72 L2002.41 1445.72 L1981.77 1445.72 L1961.12 1445.72 L1940.48 1445.72 L1919.83 1445.72 L1899.19 1445.72 L1878.54 1445.72 L1857.9 1445.72 L1837.25 1445.72 L1816.61 1445.72 L1795.96 1445.72 L1775.32 1445.72 L1754.67 1445.72 L1734.03 1445.72 L1713.38 1445.72 L1692.74 1445.72 L1672.09 1445.72 L1651.45 1445.72 L1630.8 1445.72 L1610.16 1445.72 L1589.51 1445.72 L1568.87 1445.72 L1548.22 1445.72 L1527.58 1445.72 L1506.93 1445.72 L1486.29 1445.72 L1465.64 1445.72 L1445 1445.72 L1424.35 1445.72 L1403.71 1445.72 L1383.06 1445.72 L1362.42 1445.72 L1341.77 1445.72 L1321.13 1445.72 L1300.48 1445.72 L1279.84 1445.72 L1259.19 1445.72 L1238.55 1445.72 L1217.9 1445.72 L1197.26 1445.72 L1176.61 1445.72 L1155.97 1445.72 L1135.32 1445.72 L1114.68 1445.72 L1094.03 1445.72 L1073.39 1445.72 L1052.74 1445.72 L1032.1 1445.72 L1011.45 1445.72 L990.808 1445.72 L970.163 1445.72 L949.518 1445.72 L928.873 1445.72 L908.228 1445.72 L887.583 1445.72 L866.938 1445.72 L846.293 1445.72 L825.648 1445.72 L805.003 1445.72 L784.358 1445.72 L763.713 1445.72 L743.069 1445.72 L722.424 1445.72 L701.779 1445.72 L681.134 1445.72 L660.489 1445.72 L639.844 1445.72 L619.199 1445.72 L598.554 1445.72 L577.909 1445.72 L557.264 1445.72 L536.619 1445.72 L515.974 1445.72 L495.329 1445.72 L474.684 1445.72 L454.039 1445.72 L433.394 1445.72 L412.749 1445.72 L392.104 1445.72 L371.459 1445.72 L350.814 1445.72 L330.169 1445.72 L309.524 1445.72 L288.879 1445.72 L268.234 1445.72 L247.59 1445.72  Z" fill="#032333" fill-rule="evenodd" fill-opacity="1"/>
<polyline clip-path="url(#clip362)" style="stroke:#032333; stroke-linecap:round; stroke-linejoin:round; stroke-width:4; stroke-opacity:1; fill:none" points="247.59,1427.78 268.234,1425.71 288.879,1425.71 309.524,1425.71 330.169,1425.71 350.814,1425.71 371.459,1425.71 392.104,1425.71 412.749,1425.71 433.394,1425.71 454.039,1425.71 474.684,1425.71 495.329,1425.7 515.974,1425.7 536.619,1425.7 557.264,1425.7 577.909,1425.7 598.554,1425.7 619.199,1425.7 639.844,1425.7 660.489,1425.7 681.134,1425.7 701.779,1425.7 722.424,1425.7 743.069,1425.7 763.713,1425.7 784.358,1425.7 805.003,1425.7 825.648,1425.69 846.293,1425.69 866.938,1425.69 887.583,1425.69 908.228,1425.69 928.873,1425.69 949.518,1425.69 970.163,1425.69 990.808,1425.69 1011.45,1425.69 1032.1,1425.69 1052.74,1425.69 1073.39,1425.69 1094.03,1425.69 1114.68,1425.69 1135.32,1425.68 1155.97,1425.68 1176.61,1425.68 1197.26,1425.68 1217.9,1425.68 1238.55,1425.68 1259.19,1425.68 1279.84,1425.68 1300.48,1425.68 1321.13,1425.68 1341.77,1425.68 1362.42,1425.68 1383.06,1425.68 1403.71,1425.68 1424.35,1425.68 1445,1425.68 1465.64,1425.67 1486.29,1425.67 1506.93,1425.67 1527.58,1425.67 1548.22,1425.67 1568.87,1425.67 1589.51,1425.67 1610.16,1425.67 1630.8,1425.67 1651.45,1425.67 1672.09,1425.67 1692.74,1425.67 1713.38,1425.67 1734.03,1425.67 1754.67,1425.67 1775.32,1425.67 1795.96,1425.66 1816.61,1425.66 1837.25,1425.66 1857.9,1425.66 1878.54,1425.66 1899.19,1425.66 1919.83,1425.66 1940.48,1425.66 1961.12,1425.66 1981.77,1425.66 2002.41,1425.66 2023.06,1425.66 2043.7,1425.66 2064.35,1425.66 2084.99,1425.66 2105.64,1425.66 2126.28,1425.65 2146.93,1425.65 2167.57,1425.65 2188.22,1425.65 2208.86,1425.65 2229.51,1425.65 2250.15,1425.65 2270.8,1425.65 2291.44,1425.65 "/>
<path clip-path="url(#clip362)" d="M247.59 1424.25 L268.234 1421.77 L288.879 1421.77 L309.524 1421.77 L330.169 1421.77 L350.814 1421.77 L371.459 1421.77 L392.104 1421.77 L412.749 1421.77 L433.394 1421.76 L454.039 1421.76 L474.684 1421.76 L495.329 1421.76 L515.974 1421.76 L536.619 1421.76 L557.264 1421.76 L577.909 1421.76 L598.554 1421.76 L619.199 1421.76 L639.844 1421.76 L660.489 1421.75 L681.134 1421.75 L701.779 1421.75 L722.424 1421.75 L743.069 1421.75 L763.713 1421.75 L784.358 1421.75 L805.003 1421.75 L825.648 1421.75 L846.293 1421.75 L866.938 1421.75 L887.583 1421.75 L908.228 1421.74 L928.873 1421.74 L949.518 1421.74 L970.163 1421.74 L990.808 1421.74 L1011.45 1421.74 L1032.1 1421.74 L1052.74 1421.74 L1073.39 1421.74 L1094.03 1421.74 L1114.68 1421.74 L1135.32 1421.73 L1155.97 1421.73 L1176.61 1421.73 L1197.26 1421.73 L1217.9 1421.73 L1238.55 1421.73 L1259.19 1421.73 L1279.84 1421.73 L1300.48 1421.73 L1321.13 1421.73 L1341.77 1421.73 L1362.42 1421.73 L1383.06 1421.73 L1403.71 1421.72 L1424.35 1421.72 L1445 1421.72 L1465.64 1421.72 L1486.29 1421.72 L1506.93 1421.72 L1527.58 1421.72 L1548.22 1421.72 L1568.87 1421.72 L1589.51 1421.72 L1610.16 1421.72 L1630.8 1421.72 L1651.45 1421.71 L1672.09 1421.71 L1692.74 1421.71 L1713.38 1421.71 L1734.03 1421.71 L1754.67 1421.71 L1775.32 1421.71 L1795.96 1421.71 L1816.61 1421.71 L1837.25 1421.71 L1857.9 1421.71 L1878.54 1421.71 L1899.19 1421.7 L1919.83 1421.7 L1940.48 1421.7 L1961.12 1421.7 L1981.77 1421.7 L2002.41 1421.7 L2023.06 1421.7 L2043.7 1421.7 L2064.35 1421.7 L2084.99 1421.7 L2105.64 1421.7 L2126.28 1421.69 L2146.93 1421.69 L2167.57 1421.69 L2188.22 1421.69 L2208.86 1421.69 L2229.51 1421.69 L2250.15 1421.69 L2270.8 1421.69 L2291.44 1421.69 L2291.44 1425.65 L2270.8 1425.65 L2250.15 1425.65 L2229.51 1425.65 L2208.86 1425.65 L2188.22 1425.65 L2167.57 1425.65 L2146.93 1425.65 L2126.28 1425.65 L2105.64 1425.66 L2084.99 1425.66 L2064.35 1425.66 L2043.7 1425.66 L2023.06 1425.66 L2002.41 1425.66 L1981.77 1425.66 L1961.12 1425.66 L1940.48 1425.66 L1919.83 1425.66 L1899.19 1425.66 L1878.54 1425.66 L1857.9 1425.66 L1837.25 1425.66 L1816.61 1425.66 L1795.96 1425.66 L1775.32 1425.67 L1754.67 1425.67 L1734.03 1425.67 L1713.38 1425.67 L1692.74 1425.67 L1672.09 1425.67 L1651.45 1425.67 L1630.8 1425.67 L1610.16 1425.67 L1589.51 1425.67 L1568.87 1425.67 L1548.22 1425.67 L1527.58 1425.67 L1506.93 1425.67 L1486.29 1425.67 L1465.64 1425.67 L1445 1425.68 L1424.35 1425.68 L1403.71 1425.68 L1383.06 1425.68 L1362.42 1425.68 L1341.77 1425.68 L1321.13 1425.68 L1300.48 1425.68 L1279.84 1425.68 L1259.19 1425.68 L1238.55 1425.68 L1217.9 1425.68 L1197.26 1425.68 L1176.61 1425.68 L1155.97 1425.68 L1135.32 1425.68 L1114.68 1425.69 L1094.03 1425.69 L1073.39 1425.69 L1052.74 1425.69 L1032.1 1425.69 L1011.45 1425.69 L990.808 1425.69 L970.163 1425.69 L949.518 1425.69 L928.873 1425.69 L908.228 1425.69 L887.583 1425.69 L866.938 1425.69 L846.293 1425.69 L825.648 1425.69 L805.003 1425.7 L784.358 1425.7 L763.713 1425.7 L743.069 1425.7 L722.424 1425.7 L701.779 1425.7 L681.134 1425.7 L660.489 1425.7 L639.844 1425.7 L619.199 1425.7 L598.554 1425.7 L577.909 1425.7 L557.264 1425.7 L536.619 1425.7 L515.974 1425.7 L495.329 1425.7 L474.684 1425.71 L454.039 1425.71 L433.394 1425.71 L412.749 1425.71 L392.104 1425.71 L371.459 1425.71 L350.814 1425.71 L330.169 1425.71 L309.524 1425.71 L288.879 1425.71 L268.234 1425.71 L247.59 1427.78  Z" fill="#e7fa5a" fill-rule="evenodd" fill-opacity="1"/>
<polyline clip-path="url(#clip362)" style="stroke:#e7fa5a; stroke-linecap:round; stroke-linejoin:round; stroke-width:4; stroke-opacity:1; fill:none" points="247.59,1424.25 268.234,1421.77 288.879,1421.77 309.524,1421.77 330.169,1421.77 350.814,1421.77 371.459,1421.77 392.104,1421.77 412.749,1421.77 433.394,1421.76 454.039,1421.76 474.684,1421.76 495.329,1421.76 515.974,1421.76 536.619,1421.76 557.264,1421.76 577.909,1421.76 598.554,1421.76 619.199,1421.76 639.844,1421.76 660.489,1421.75 681.134,1421.75 701.779,1421.75 722.424,1421.75 743.069,1421.75 763.713,1421.75 784.358,1421.75 805.003,1421.75 825.648,1421.75 846.293,1421.75 866.938,1421.75 887.583,1421.75 908.228,1421.74 928.873,1421.74 949.518,1421.74 970.163,1421.74 990.808,1421.74 1011.45,1421.74 1032.1,1421.74 1052.74,1421.74 1073.39,1421.74 1094.03,1421.74 1114.68,1421.74 1135.32,1421.73 1155.97,1421.73 1176.61,1421.73 1197.26,1421.73 1217.9,1421.73 1238.55,1421.73 1259.19,1421.73 1279.84,1421.73 1300.48,1421.73 1321.13,1421.73 1341.77,1421.73 1362.42,1421.73 1383.06,1421.73 1403.71,1421.72 1424.35,1421.72 1445,1421.72 1465.64,1421.72 1486.29,1421.72 1506.93,1421.72 1527.58,1421.72 1548.22,1421.72 1568.87,1421.72 1589.51,1421.72 1610.16,1421.72 1630.8,1421.72 1651.45,1421.71 1672.09,1421.71 1692.74,1421.71 1713.38,1421.71 1734.03,1421.71 1754.67,1421.71 1775.32,1421.71 1795.96,1421.71 1816.61,1421.71 1837.25,1421.71 1857.9,1421.71 1878.54,1421.71 1899.19,1421.7 1919.83,1421.7 1940.48,1421.7 1961.12,1421.7 1981.77,1421.7 2002.41,1421.7 2023.06,1421.7 2043.7,1421.7 2064.35,1421.7 2084.99,1421.7 2105.64,1421.7 2126.28,1421.69 2146.93,1421.69 2167.57,1421.69 2188.22,1421.69 2208.86,1421.69 2229.51,1421.69 2250.15,1421.69 2270.8,1421.69 2291.44,1421.69 "/>
<path clip-path="url(#clip362)" d="M247.59 1242.15 L268.234 1241.73 L288.879 1241.73 L309.524 1241.73 L330.169 1241.73 L350.814 1241.72 L371.459 1241.72 L392.104 1241.72 L412.749 1241.71 L433.394 1241.71 L454.039 1241.71 L474.684 1241.7 L495.329 1241.7 L515.974 1241.7 L536.619 1241.7 L557.264 1241.69 L577.909 1241.69 L598.554 1241.69 L619.199 1241.68 L639.844 1241.68 L660.489 1241.68 L681.134 1241.67 L701.779 1241.67 L722.424 1241.67 L743.069 1241.66 L763.713 1241.66 L784.358 1241.66 L805.003 1241.66 L825.648 1241.65 L846.293 1241.65 L866.938 1241.65 L887.583 1241.64 L908.228 1241.64 L928.873 1241.64 L949.518 1241.63 L970.163 1241.63 L990.808 1241.63 L1011.45 1241.62 L1032.1 1241.62 L1052.74 1241.62 L1073.39 1241.61 L1094.03 1241.61 L1114.68 1241.6 L1135.32 1241.6 L1155.97 1241.6 L1176.61 1241.6 L1197.26 1241.59 L1217.9 1241.59 L1238.55 1241.59 L1259.19 1241.59 L1279.84 1241.58 L1300.48 1241.58 L1321.13 1241.58 L1341.77 1241.57 L1362.42 1241.57 L1383.06 1241.57 L1403.71 1241.56 L1424.35 1241.56 L1445 1241.56 L1465.64 1241.55 L1486.29 1241.55 L1506.93 1241.55 L1527.58 1241.54 L1548.22 1241.54 L1568.87 1241.54 L1589.51 1241.54 L1610.16 1241.53 L1630.8 1241.53 L1651.45 1241.53 L1672.09 1241.52 L1692.74 1241.52 L1713.38 1241.52 L1734.03 1241.52 L1754.67 1241.51 L1775.32 1241.51 L1795.96 1241.5 L1816.61 1241.5 L1837.25 1241.5 L1857.9 1241.5 L1878.54 1241.49 L1899.19 1241.49 L1919.83 1241.49 L1940.48 1241.48 L1961.12 1241.48 L1981.77 1241.48 L2002.41 1241.47 L2023.06 1241.47 L2043.7 1241.46 L2064.35 1241.46 L2084.99 1241.46 L2105.64 1241.45 L2126.28 1241.45 L2146.93 1241.45 L2167.57 1241.44 L2188.22 1241.44 L2208.86 1241.44 L2229.51 1241.44 L2250.15 1241.43 L2270.8 1241.43 L2291.44 1241.42 L2291.44 1421.69 L2270.8 1421.69 L2250.15 1421.69 L2229.51 1421.69 L2208.86 1421.69 L2188.22 1421.69 L2167.57 1421.69 L2146.93 1421.69 L2126.28 1421.69 L2105.64 1421.7 L2084.99 1421.7 L2064.35 1421.7 L2043.7 1421.7 L2023.06 1421.7 L2002.41 1421.7 L1981.77 1421.7 L1961.12 1421.7 L1940.48 1421.7 L1919.83 1421.7 L1899.19 1421.7 L1878.54 1421.71 L1857.9 1421.71 L1837.25 1421.71 L1816.61 1421.71 L1795.96 1421.71 L1775.32 1421.71 L1754.67 1421.71 L1734.03 1421.71 L1713.38 1421.71 L1692.74 1421.71 L1672.09 1421.71 L1651.45 1421.71 L1630.8 1421.72 L1610.16 1421.72 L1589.51 1421.72 L1568.87 1421.72 L1548.22 1421.72 L1527.58 1421.72 L1506.93 1421.72 L1486.29 1421.72 L1465.64 1421.72 L1445 1421.72 L1424.35 1421.72 L1403.71 1421.72 L1383.06 1421.73 L1362.42 1421.73 L1341.77 1421.73 L1321.13 1421.73 L1300.48 1421.73 L1279.84 1421.73 L1259.19 1421.73 L1238.55 1421.73 L1217.9 1421.73 L1197.26 1421.73 L1176.61 1421.73 L1155.97 1421.73 L1135.32 1421.73 L1114.68 1421.74 L1094.03 1421.74 L1073.39 1421.74 L1052.74 1421.74 L1032.1 1421.74 L1011.45 1421.74 L990.808 1421.74 L970.163 1421.74 L949.518 1421.74 L928.873 1421.74 L908.228 1421.74 L887.583 1421.75 L866.938 1421.75 L846.293 1421.75 L825.648 1421.75 L805.003 1421.75 L784.358 1421.75 L763.713 1421.75 L743.069 1421.75 L722.424 1421.75 L701.779 1421.75 L681.134 1421.75 L660.489 1421.75 L639.844 1421.76 L619.199 1421.76 L598.554 1421.76 L577.909 1421.76 L557.264 1421.76 L536.619 1421.76 L515.974 1421.76 L495.329 1421.76 L474.684 1421.76 L454.039 1421.76 L433.394 1421.76 L412.749 1421.77 L392.104 1421.77 L371.459 1421.77 L350.814 1421.77 L330.169 1421.77 L309.524 1421.77 L288.879 1421.77 L268.234 1421.77 L247.59 1424.25  Z" fill="#af5f81" fill-rule="evenodd" fill-opacity="1"/>
<polyline clip-path="url(#clip362)" style="stroke:#af5f81; stroke-linecap:round; stroke-linejoin:round; stroke-width:4; stroke-opacity:1; fill:none" points="247.59,1242.15 268.234,1241.73 288.879,1241.73 309.524,1241.73 330.169,1241.73 350.814,1241.72 371.459,1241.72 392.104,1241.72 412.749,1241.71 433.394,1241.71 454.039,1241.71 474.684,1241.7 495.329,1241.7 515.974,1241.7 536.619,1241.7 557.264,1241.69 577.909,1241.69 598.554,1241.69 619.199,1241.68 639.844,1241.68 660.489,1241.68 681.134,1241.67 701.779,1241.67 722.424,1241.67 743.069,1241.66 763.713,1241.66 784.358,1241.66 805.003,1241.66 825.648,1241.65 846.293,1241.65 866.938,1241.65 887.583,1241.64 908.228,1241.64 928.873,1241.64 949.518,1241.63 970.163,1241.63 990.808,1241.63 1011.45,1241.62 1032.1,1241.62 1052.74,1241.62 1073.39,1241.61 1094.03,1241.61 1114.68,1241.6 1135.32,1241.6 1155.97,1241.6 1176.61,1241.6 1197.26,1241.59 1217.9,1241.59 1238.55,1241.59 1259.19,1241.59 1279.84,1241.58 1300.48,1241.58 1321.13,1241.58 1341.77,1241.57 1362.42,1241.57 1383.06,1241.57 1403.71,1241.56 1424.35,1241.56 1445,1241.56 1465.64,1241.55 1486.29,1241.55 1506.93,1241.55 1527.58,1241.54 1548.22,1241.54 1568.87,1241.54 1589.51,1241.54 1610.16,1241.53 1630.8,1241.53 1651.45,1241.53 1672.09,1241.52 1692.74,1241.52 1713.38,1241.52 1734.03,1241.52 1754.67,1241.51 1775.32,1241.51 1795.96,1241.5 1816.61,1241.5 1837.25,1241.5 1857.9,1241.5 1878.54,1241.49 1899.19,1241.49 1919.83,1241.49 1940.48,1241.48 1961.12,1241.48 1981.77,1241.48 2002.41,1241.47 2023.06,1241.47 2043.7,1241.46 2064.35,1241.46 2084.99,1241.46 2105.64,1241.45 2126.28,1241.45 2146.93,1241.45 2167.57,1241.44 2188.22,1241.44 2208.86,1241.44 2229.51,1241.44 2250.15,1241.43 2270.8,1241.43 2291.44,1241.42 "/>
<path clip-path="url(#clip362)" d="M247.59 1206.27 L268.234 1206.27 L288.879 1206.27 L309.524 1206.26 L330.169 1206.26 L350.814 1206.25 L371.459 1206.25 L392.104 1206.24 L412.749 1206.24 L433.394 1206.24 L454.039 1206.23 L474.684 1206.23 L495.329 1206.22 L515.974 1206.22 L536.619 1206.22 L557.264 1206.21 L577.909 1206.21 L598.554 1206.2 L619.199 1206.2 L639.844 1206.19 L660.489 1206.19 L681.134 1206.18 L701.779 1206.18 L722.424 1206.18 L743.069 1206.17 L763.713 1206.17 L784.358 1206.16 L805.003 1206.16 L825.648 1206.15 L846.293 1206.15 L866.938 1206.14 L887.583 1206.14 L908.228 1206.13 L928.873 1206.13 L949.518 1206.13 L970.163 1206.12 L990.808 1206.12 L1011.45 1206.11 L1032.1 1206.11 L1052.74 1206.1 L1073.39 1206.1 L1094.03 1206.09 L1114.68 1206.09 L1135.32 1206.08 L1155.97 1206.08 L1176.61 1206.08 L1197.26 1206.07 L1217.9 1206.07 L1238.55 1206.07 L1259.19 1206.06 L1279.84 1206.06 L1300.48 1206.05 L1321.13 1206.05 L1341.77 1206.04 L1362.42 1206.04 L1383.06 1206.03 L1403.71 1206.03 L1424.35 1206.03 L1445 1206.02 L1465.64 1206.02 L1486.29 1206.01 L1506.93 1206.01 L1527.58 1206 L1548.22 1206 L1568.87 1206 L1589.51 1205.99 L1610.16 1205.99 L1630.8 1205.98 L1651.45 1205.98 L1672.09 1205.97 L1692.74 1205.97 L1713.38 1205.97 L1734.03 1205.96 L1754.67 1205.96 L1775.32 1205.95 L1795.96 1205.95 L1816.61 1205.94 L1837.25 1205.94 L1857.9 1205.93 L1878.54 1205.93 L1899.19 1205.93 L1919.83 1205.92 L1940.48 1205.92 L1961.12 1205.91 L1981.77 1205.91 L2002.41 1205.9 L2023.06 1205.9 L2043.7 1205.89 L2064.35 1205.89 L2084.99 1205.88 L2105.64 1205.88 L2126.28 1205.87 L2146.93 1205.87 L2167.57 1205.86 L2188.22 1205.86 L2208.86 1205.86 L2229.51 1205.85 L2250.15 1205.85 L2270.8 1205.84 L2291.44 1205.84 L2291.44 1241.42 L2270.8 1241.43 L2250.15 1241.43 L2229.51 1241.44 L2208.86 1241.44 L2188.22 1241.44 L2167.57 1241.44 L2146.93 1241.45 L2126.28 1241.45 L2105.64 1241.45 L2084.99 1241.46 L2064.35 1241.46 L2043.7 1241.46 L2023.06 1241.47 L2002.41 1241.47 L1981.77 1241.48 L1961.12 1241.48 L1940.48 1241.48 L1919.83 1241.49 L1899.19 1241.49 L1878.54 1241.49 L1857.9 1241.5 L1837.25 1241.5 L1816.61 1241.5 L1795.96 1241.5 L1775.32 1241.51 L1754.67 1241.51 L1734.03 1241.52 L1713.38 1241.52 L1692.74 1241.52 L1672.09 1241.52 L1651.45 1241.53 L1630.8 1241.53 L1610.16 1241.53 L1589.51 1241.54 L1568.87 1241.54 L1548.22 1241.54 L1527.58 1241.54 L1506.93 1241.55 L1486.29 1241.55 L1465.64 1241.55 L1445 1241.56 L1424.35 1241.56 L1403.71 1241.56 L1383.06 1241.57 L1362.42 1241.57 L1341.77 1241.57 L1321.13 1241.58 L1300.48 1241.58 L1279.84 1241.58 L1259.19 1241.59 L1238.55 1241.59 L1217.9 1241.59 L1197.26 1241.59 L1176.61 1241.6 L1155.97 1241.6 L1135.32 1241.6 L1114.68 1241.6 L1094.03 1241.61 L1073.39 1241.61 L1052.74 1241.62 L1032.1 1241.62 L1011.45 1241.62 L990.808 1241.63 L970.163 1241.63 L949.518 1241.63 L928.873 1241.64 L908.228 1241.64 L887.583 1241.64 L866.938 1241.65 L846.293 1241.65 L825.648 1241.65 L805.003 1241.66 L784.358 1241.66 L763.713 1241.66 L743.069 1241.66 L722.424 1241.67 L701.779 1241.67 L681.134 1241.67 L660.489 1241.68 L639.844 1241.68 L619.199 1241.68 L598.554 1241.69 L577.909 1241.69 L557.264 1241.69 L536.619 1241.7 L515.974 1241.7 L495.329 1241.7 L474.684 1241.7 L454.039 1241.71 L433.394 1241.71 L412.749 1241.71 L392.104 1241.72 L371.459 1241.72 L350.814 1241.72 L330.169 1241.73 L309.524 1241.73 L288.879 1241.73 L268.234 1241.73 L247.59 1242.15  Z" fill="#553b9c" fill-rule="evenodd" fill-opacity="1"/>
<polyline clip-path="url(#clip362)" style="stroke:#553b9c; stroke-linecap:round; stroke-linejoin:round; stroke-width:4; stroke-opacity:1; fill:none" points="247.59,1206.27 268.234,1206.27 288.879,1206.27 309.524,1206.26 330.169,1206.26 350.814,1206.25 371.459,1206.25 392.104,1206.24 412.749,1206.24 433.394,1206.24 454.039,1206.23 474.684,1206.23 495.329,1206.22 515.974,1206.22 536.619,1206.22 557.264,1206.21 577.909,1206.21 598.554,1206.2 619.199,1206.2 639.844,1206.19 660.489,1206.19 681.134,1206.18 701.779,1206.18 722.424,1206.18 743.069,1206.17 763.713,1206.17 784.358,1206.16 805.003,1206.16 825.648,1206.15 846.293,1206.15 866.938,1206.14 887.583,1206.14 908.228,1206.13 928.873,1206.13 949.518,1206.13 970.163,1206.12 990.808,1206.12 1011.45,1206.11 1032.1,1206.11 1052.74,1206.1 1073.39,1206.1 1094.03,1206.09 1114.68,1206.09 1135.32,1206.08 1155.97,1206.08 1176.61,1206.08 1197.26,1206.07 1217.9,1206.07 1238.55,1206.07 1259.19,1206.06 1279.84,1206.06 1300.48,1206.05 1321.13,1206.05 1341.77,1206.04 1362.42,1206.04 1383.06,1206.03 1403.71,1206.03 1424.35,1206.03 1445,1206.02 1465.64,1206.02 1486.29,1206.01 1506.93,1206.01 1527.58,1206 1548.22,1206 1568.87,1206 1589.51,1205.99 1610.16,1205.99 1630.8,1205.98 1651.45,1205.98 1672.09,1205.97 1692.74,1205.97 1713.38,1205.97 1734.03,1205.96 1754.67,1205.96 1775.32,1205.95 1795.96,1205.95 1816.61,1205.94 1837.25,1205.94 1857.9,1205.93 1878.54,1205.93 1899.19,1205.93 1919.83,1205.92 1940.48,1205.92 1961.12,1205.91 1981.77,1205.91 2002.41,1205.9 2023.06,1205.9 2043.7,1205.89 2064.35,1205.89 2084.99,1205.88 2105.64,1205.88 2126.28,1205.87 2146.93,1205.87 2167.57,1205.86 2188.22,1205.86 2208.86,1205.86 2229.51,1205.85 2250.15,1205.85 2270.8,1205.84 2291.44,1205.84 "/>
<path clip-path="url(#clip362)" d="M247.59 1122.52 L268.234 1112.84 L288.879 1112.84 L309.524 1112.83 L330.169 1112.83 L350.814 1112.82 L371.459 1112.82 L392.104 1112.81 L412.749 1112.81 L433.394 1112.8 L454.039 1112.8 L474.684 1112.79 L495.329 1112.79 L515.974 1112.78 L536.619 1112.78 L557.264 1112.77 L577.909 1112.77 L598.554 1112.76 L619.199 1112.76 L639.844 1112.75 L660.489 1112.75 L681.134 1112.74 L701.779 1112.73 L722.424 1112.73 L743.069 1112.72 L763.713 1112.72 L784.358 1112.71 L805.003 1112.71 L825.648 1112.7 L846.293 1112.7 L866.938 1112.69 L887.583 1112.69 L908.228 1112.68 L928.873 1112.68 L949.518 1112.67 L970.163 1112.67 L990.808 1112.66 L1011.45 1112.66 L1032.1 1112.65 L1052.74 1112.64 L1073.39 1112.64 L1094.03 1112.63 L1114.68 1112.62 L1135.32 1112.62 L1155.97 1112.62 L1176.61 1112.61 L1197.26 1112.61 L1217.9 1112.6 L1238.55 1112.6 L1259.19 1112.59 L1279.84 1112.59 L1300.48 1112.58 L1321.13 1112.57 L1341.77 1112.57 L1362.42 1112.57 L1383.06 1112.56 L1403.71 1112.55 L1424.35 1112.55 L1445 1112.55 L1465.64 1112.54 L1486.29 1112.53 L1506.93 1112.53 L1527.58 1112.52 L1548.22 1112.52 L1568.87 1112.51 L1589.51 1112.51 L1610.16 1112.5 L1630.8 1112.5 L1651.45 1112.49 L1672.09 1112.49 L1692.74 1112.48 L1713.38 1112.48 L1734.03 1112.47 L1754.67 1112.47 L1775.32 1112.46 L1795.96 1112.45 L1816.61 1112.45 L1837.25 1112.45 L1857.9 1112.44 L1878.54 1112.44 L1899.19 1112.43 L1919.83 1112.43 L1940.48 1112.42 L1961.12 1112.41 L1981.77 1112.41 L2002.41 1112.4 L2023.06 1112.4 L2043.7 1112.39 L2064.35 1112.38 L2084.99 1112.38 L2105.64 1112.37 L2126.28 1112.37 L2146.93 1112.36 L2167.57 1112.36 L2188.22 1112.35 L2208.86 1112.35 L2229.51 1112.34 L2250.15 1112.34 L2270.8 1112.33 L2291.44 1112.32 L2291.44 1205.84 L2270.8 1205.84 L2250.15 1205.85 L2229.51 1205.85 L2208.86 1205.86 L2188.22 1205.86 L2167.57 1205.86 L2146.93 1205.87 L2126.28 1205.87 L2105.64 1205.88 L2084.99 1205.88 L2064.35 1205.89 L2043.7 1205.89 L2023.06 1205.9 L2002.41 1205.9 L1981.77 1205.91 L1961.12 1205.91 L1940.48 1205.92 L1919.83 1205.92 L1899.19 1205.93 L1878.54 1205.93 L1857.9 1205.93 L1837.25 1205.94 L1816.61 1205.94 L1795.96 1205.95 L1775.32 1205.95 L1754.67 1205.96 L1734.03 1205.96 L1713.38 1205.97 L1692.74 1205.97 L1672.09 1205.97 L1651.45 1205.98 L1630.8 1205.98 L1610.16 1205.99 L1589.51 1205.99 L1568.87 1206 L1548.22 1206 L1527.58 1206 L1506.93 1206.01 L1486.29 1206.01 L1465.64 1206.02 L1445 1206.02 L1424.35 1206.03 L1403.71 1206.03 L1383.06 1206.03 L1362.42 1206.04 L1341.77 1206.04 L1321.13 1206.05 L1300.48 1206.05 L1279.84 1206.06 L1259.19 1206.06 L1238.55 1206.07 L1217.9 1206.07 L1197.26 1206.07 L1176.61 1206.08 L1155.97 1206.08 L1135.32 1206.08 L1114.68 1206.09 L1094.03 1206.09 L1073.39 1206.1 L1052.74 1206.1 L1032.1 1206.11 L1011.45 1206.11 L990.808 1206.12 L970.163 1206.12 L949.518 1206.13 L928.873 1206.13 L908.228 1206.13 L887.583 1206.14 L866.938 1206.14 L846.293 1206.15 L825.648 1206.15 L805.003 1206.16 L784.358 1206.16 L763.713 1206.17 L743.069 1206.17 L722.424 1206.18 L701.779 1206.18 L681.134 1206.18 L660.489 1206.19 L639.844 1206.19 L619.199 1206.2 L598.554 1206.2 L577.909 1206.21 L557.264 1206.21 L536.619 1206.22 L515.974 1206.22 L495.329 1206.22 L474.684 1206.23 L454.039 1206.23 L433.394 1206.24 L412.749 1206.24 L392.104 1206.24 L371.459 1206.25 L350.814 1206.25 L330.169 1206.26 L309.524 1206.26 L288.879 1206.27 L268.234 1206.27 L247.59 1206.27  Z" fill="#f99241" fill-rule="evenodd" fill-opacity="1"/>
<polyline clip-path="url(#clip362)" style="stroke:#f99241; stroke-linecap:round; stroke-linejoin:round; stroke-width:4; stroke-opacity:1; fill:none" points="247.59,1122.52 268.234,1112.84 288.879,1112.84 309.524,1112.83 330.169,1112.83 350.814,1112.82 371.459,1112.82 392.104,1112.81 412.749,1112.81 433.394,1112.8 454.039,1112.8 474.684,1112.79 495.329,1112.79 515.974,1112.78 536.619,1112.78 557.264,1112.77 577.909,1112.77 598.554,1112.76 619.199,1112.76 639.844,1112.75 660.489,1112.75 681.134,1112.74 701.779,1112.73 722.424,1112.73 743.069,1112.72 763.713,1112.72 784.358,1112.71 805.003,1112.71 825.648,1112.7 846.293,1112.7 866.938,1112.69 887.583,1112.69 908.228,1112.68 928.873,1112.68 949.518,1112.67 970.163,1112.67 990.808,1112.66 1011.45,1112.66 1032.1,1112.65 1052.74,1112.64 1073.39,1112.64 1094.03,1112.63 1114.68,1112.62 1135.32,1112.62 1155.97,1112.62 1176.61,1112.61 1197.26,1112.61 1217.9,1112.6 1238.55,1112.6 1259.19,1112.59 1279.84,1112.59 1300.48,1112.58 1321.13,1112.57 1341.77,1112.57 1362.42,1112.57 1383.06,1112.56 1403.71,1112.55 1424.35,1112.55 1445,1112.55 1465.64,1112.54 1486.29,1112.53 1506.93,1112.53 1527.58,1112.52 1548.22,1112.52 1568.87,1112.51 1589.51,1112.51 1610.16,1112.5 1630.8,1112.5 1651.45,1112.49 1672.09,1112.49 1692.74,1112.48 1713.38,1112.48 1734.03,1112.47 1754.67,1112.47 1775.32,1112.46 1795.96,1112.45 1816.61,1112.45 1837.25,1112.45 1857.9,1112.44 1878.54,1112.44 1899.19,1112.43 1919.83,1112.43 1940.48,1112.42 1961.12,1112.41 1981.77,1112.41 2002.41,1112.4 2023.06,1112.4 2043.7,1112.39 2064.35,1112.38 2084.99,1112.38 2105.64,1112.37 2126.28,1112.37 2146.93,1112.36 2167.57,1112.36 2188.22,1112.35 2208.86,1112.35 2229.51,1112.34 2250.15,1112.34 2270.8,1112.33 2291.44,1112.32 "/>
<path clip-path="url(#clip362)" d="M247.59 1106.03 L268.234 1094.44 L288.879 1094.44 L309.524 1094.43 L330.169 1094.42 L350.814 1094.42 L371.459 1094.41 L392.104 1094.41 L412.749 1094.4 L433.394 1094.39 L454.039 1094.39 L474.684 1094.38 L495.329 1094.38 L515.974 1094.37 L536.619 1094.37 L557.264 1094.36 L577.909 1094.35 L598.554 1094.35 L619.199 1094.34 L639.844 1094.34 L660.489 1094.33 L681.134 1094.32 L701.779 1094.32 L722.424 1094.31 L743.069 1094.31 L763.713 1094.3 L784.358 1094.29 L805.003 1094.29 L825.648 1094.28 L846.293 1094.28 L866.938 1094.27 L887.583 1094.27 L908.228 1094.26 L928.873 1094.25 L949.518 1094.25 L970.163 1094.24 L990.808 1094.24 L1011.45 1094.23 L1032.1 1094.22 L1052.74 1094.22 L1073.39 1094.21 L1094.03 1094.2 L1114.68 1094.2 L1135.32 1094.19 L1155.97 1094.19 L1176.61 1094.18 L1197.26 1094.18 L1217.9 1094.17 L1238.55 1094.17 L1259.19 1094.16 L1279.84 1094.15 L1300.48 1094.15 L1321.13 1094.14 L1341.77 1094.14 L1362.42 1094.13 L1383.06 1094.12 L1403.71 1094.12 L1424.35 1094.11 L1445 1094.11 L1465.64 1094.1 L1486.29 1094.1 L1506.93 1094.09 L1527.58 1094.08 L1548.22 1094.08 L1568.87 1094.07 L1589.51 1094.07 L1610.16 1094.06 L1630.8 1094.05 L1651.45 1094.05 L1672.09 1094.04 L1692.74 1094.04 L1713.38 1094.03 L1734.03 1094.03 L1754.67 1094.02 L1775.32 1094.02 L1795.96 1094.01 L1816.61 1094 L1837.25 1094 L1857.9 1093.99 L1878.54 1093.99 L1899.19 1093.98 L1919.83 1093.98 L1940.48 1093.97 L1961.12 1093.96 L1981.77 1093.96 L2002.41 1093.95 L2023.06 1093.94 L2043.7 1093.94 L2064.35 1093.93 L2084.99 1093.92 L2105.64 1093.92 L2126.28 1093.91 L2146.93 1093.9 L2167.57 1093.9 L2188.22 1093.89 L2208.86 1093.89 L2229.51 1093.88 L2250.15 1093.87 L2270.8 1093.87 L2291.44 1093.86 L2291.44 1112.32 L2270.8 1112.33 L2250.15 1112.34 L2229.51 1112.34 L2208.86 1112.35 L2188.22 1112.35 L2167.57 1112.36 L2146.93 1112.36 L2126.28 1112.37 L2105.64 1112.37 L2084.99 1112.38 L2064.35 1112.38 L2043.7 1112.39 L2023.06 1112.4 L2002.41 1112.4 L1981.77 1112.41 L1961.12 1112.41 L1940.48 1112.42 L1919.83 1112.43 L1899.19 1112.43 L1878.54 1112.44 L1857.9 1112.44 L1837.25 1112.45 L1816.61 1112.45 L1795.96 1112.45 L1775.32 1112.46 L1754.67 1112.47 L1734.03 1112.47 L1713.38 1112.48 L1692.74 1112.48 L1672.09 1112.49 L1651.45 1112.49 L1630.8 1112.5 L1610.16 1112.5 L1589.51 1112.51 L1568.87 1112.51 L1548.22 1112.52 L1527.58 1112.52 L1506.93 1112.53 L1486.29 1112.53 L1465.64 1112.54 L1445 1112.55 L1424.35 1112.55 L1403.71 1112.55 L1383.06 1112.56 L1362.42 1112.57 L1341.77 1112.57 L1321.13 1112.57 L1300.48 1112.58 L1279.84 1112.59 L1259.19 1112.59 L1238.55 1112.6 L1217.9 1112.6 L1197.26 1112.61 L1176.61 1112.61 L1155.97 1112.62 L1135.32 1112.62 L1114.68 1112.62 L1094.03 1112.63 L1073.39 1112.64 L1052.74 1112.64 L1032.1 1112.65 L1011.45 1112.66 L990.808 1112.66 L970.163 1112.67 L949.518 1112.67 L928.873 1112.68 L908.228 1112.68 L887.583 1112.69 L866.938 1112.69 L846.293 1112.7 L825.648 1112.7 L805.003 1112.71 L784.358 1112.71 L763.713 1112.72 L743.069 1112.72 L722.424 1112.73 L701.779 1112.73 L681.134 1112.74 L660.489 1112.75 L639.844 1112.75 L619.199 1112.76 L598.554 1112.76 L577.909 1112.77 L557.264 1112.77 L536.619 1112.78 L515.974 1112.78 L495.329 1112.79 L474.684 1112.79 L454.039 1112.8 L433.394 1112.8 L412.749 1112.81 L392.104 1112.81 L371.459 1112.82 L350.814 1112.82 L330.169 1112.83 L309.524 1112.83 L288.879 1112.84 L268.234 1112.84 L247.59 1122.52  Z" fill="#18337b" fill-rule="evenodd" fill-opacity="1"/>
<polyline clip-path="url(#clip362)" style="stroke:#18337b; stroke-linecap:round; stroke-linejoin:round; stroke-width:4; stroke-opacity:1; fill:none" points="247.59,1106.03 268.234,1094.44 288.879,1094.44 309.524,1094.43 330.169,1094.42 350.814,1094.42 371.459,1094.41 392.104,1094.41 412.749,1094.4 433.394,1094.39 454.039,1094.39 474.684,1094.38 495.329,1094.38 515.974,1094.37 536.619,1094.37 557.264,1094.36 577.909,1094.35 598.554,1094.35 619.199,1094.34 639.844,1094.34 660.489,1094.33 681.134,1094.32 701.779,1094.32 722.424,1094.31 743.069,1094.31 763.713,1094.3 784.358,1094.29 805.003,1094.29 825.648,1094.28 846.293,1094.28 866.938,1094.27 887.583,1094.27 908.228,1094.26 928.873,1094.25 949.518,1094.25 970.163,1094.24 990.808,1094.24 1011.45,1094.23 1032.1,1094.22 1052.74,1094.22 1073.39,1094.21 1094.03,1094.2 1114.68,1094.2 1135.32,1094.19 1155.97,1094.19 1176.61,1094.18 1197.26,1094.18 1217.9,1094.17 1238.55,1094.17 1259.19,1094.16 1279.84,1094.15 1300.48,1094.15 1321.13,1094.14 1341.77,1094.14 1362.42,1094.13 1383.06,1094.12 1403.71,1094.12 1424.35,1094.11 1445,1094.11 1465.64,1094.1 1486.29,1094.1 1506.93,1094.09 1527.58,1094.08 1548.22,1094.08 1568.87,1094.07 1589.51,1094.07 1610.16,1094.06 1630.8,1094.05 1651.45,1094.05 1672.09,1094.04 1692.74,1094.04 1713.38,1094.03 1734.03,1094.03 1754.67,1094.02 1775.32,1094.02 1795.96,1094.01 1816.61,1094 1837.25,1094 1857.9,1093.99 1878.54,1093.99 1899.19,1093.98 1919.83,1093.98 1940.48,1093.97 1961.12,1093.96 1981.77,1093.96 2002.41,1093.95 2023.06,1093.94 2043.7,1093.94 2064.35,1093.93 2084.99,1093.92 2105.64,1093.92 2126.28,1093.91 2146.93,1093.9 2167.57,1093.9 2188.22,1093.89 2208.86,1093.89 2229.51,1093.88 2250.15,1093.87 2270.8,1093.87 2291.44,1093.86 "/>
<path clip-path="url(#clip362)" d="M247.59 255.513 L268.234 253.608 L288.879 253.61 L309.524 253.613 L330.169 253.615 L350.814 253.617 L371.459 253.618 L392.104 253.62 L412.749 253.621 L433.394 253.623 L454.039 253.625 L474.684 253.627 L495.329 253.629 L515.974 253.633 L536.619 253.634 L557.264 253.637 L577.909 253.639 L598.554 253.641 L619.199 253.643 L639.844 253.646 L660.489 253.648 L681.134 253.651 L701.779 253.654 L722.424 253.656 L743.069 253.659 L763.713 253.662 L784.358 253.664 L805.003 253.666 L825.648 253.668 L846.293 253.671 L866.938 253.674 L887.583 253.677 L908.228 253.68 L928.873 253.684 L949.518 253.686 L970.163 253.687 L990.808 253.689 L1011.45 253.691 L1032.1 253.693 L1052.74 253.695 L1073.39 253.697 L1094.03 253.699 L1114.68 253.701 L1135.32 253.702 L1155.97 253.706 L1176.61 253.709 L1197.26 253.711 L1217.9 253.712 L1238.55 253.714 L1259.19 253.715 L1279.84 253.716 L1300.48 253.718 L1321.13 253.72 L1341.77 253.722 L1362.42 253.724 L1383.06 253.726 L1403.71 253.727 L1424.35 253.729 L1445 253.731 L1465.64 253.733 L1486.29 253.736 L1506.93 253.74 L1527.58 253.741 L1548.22 253.743 L1568.87 253.746 L1589.51 253.749 L1610.16 253.75 L1630.8 253.752 L1651.45 253.755 L1672.09 253.757 L1692.74 253.758 L1713.38 253.759 L1734.03 253.761 L1754.67 253.763 L1775.32 253.766 L1795.96 253.766 L1816.61 253.767 L1837.25 253.77 L1857.9 253.774 L1878.54 253.776 L1899.19 253.778 L1919.83 253.78 L1940.48 253.783 L1961.12 253.785 L1981.77 253.788 L2002.41 253.789 L2023.06 253.792 L2043.7 253.794 L2064.35 253.797 L2084.99 253.8 L2105.64 253.802 L2126.28 253.805 L2146.93 253.807 L2167.57 253.81 L2188.22 253.812 L2208.86 253.815 L2229.51 253.818 L2250.15 253.819 L2270.8 253.82 L2291.44 253.823 L2291.44 1093.86 L2270.8 1093.87 L2250.15 1093.87 L2229.51 1093.88 L2208.86 1093.89 L2188.22 1093.89 L2167.57 1093.9 L2146.93 1093.9 L2126.28 1093.91 L2105.64 1093.92 L2084.99 1093.92 L2064.35 1093.93 L2043.7 1093.94 L2023.06 1093.94 L2002.41 1093.95 L1981.77 1093.96 L1961.12 1093.96 L1940.48 1093.97 L1919.83 1093.98 L1899.19 1093.98 L1878.54 1093.99 L1857.9 1093.99 L1837.25 1094 L1816.61 1094 L1795.96 1094.01 L1775.32 1094.02 L1754.67 1094.02 L1734.03 1094.03 L1713.38 1094.03 L1692.74 1094.04 L1672.09 1094.04 L1651.45 1094.05 L1630.8 1094.05 L1610.16 1094.06 L1589.51 1094.07 L1568.87 1094.07 L1548.22 1094.08 L1527.58 1094.08 L1506.93 1094.09 L1486.29 1094.1 L1465.64 1094.1 L1445 1094.11 L1424.35 1094.11 L1403.71 1094.12 L1383.06 1094.12 L1362.42 1094.13 L1341.77 1094.14 L1321.13 1094.14 L1300.48 1094.15 L1279.84 1094.15 L1259.19 1094.16 L1238.55 1094.17 L1217.9 1094.17 L1197.26 1094.18 L1176.61 1094.18 L1155.97 1094.19 L1135.32 1094.19 L1114.68 1094.2 L1094.03 1094.2 L1073.39 1094.21 L1052.74 1094.22 L1032.1 1094.22 L1011.45 1094.23 L990.808 1094.24 L970.163 1094.24 L949.518 1094.25 L928.873 1094.25 L908.228 1094.26 L887.583 1094.27 L866.938 1094.27 L846.293 1094.28 L825.648 1094.28 L805.003 1094.29 L784.358 1094.29 L763.713 1094.3 L743.069 1094.31 L722.424 1094.31 L701.779 1094.32 L681.134 1094.32 L660.489 1094.33 L639.844 1094.34 L619.199 1094.34 L598.554 1094.35 L577.909 1094.35 L557.264 1094.36 L536.619 1094.37 L515.974 1094.37 L495.329 1094.38 L474.684 1094.38 L454.039 1094.39 L433.394 1094.39 L412.749 1094.4 L392.104 1094.41 L371.459 1094.41 L350.814 1094.42 L330.169 1094.42 L309.524 1094.43 L288.879 1094.44 L268.234 1094.44 L247.59 1106.03  Z" fill="#de6f64" fill-rule="evenodd" fill-opacity="1"/>
<polyline clip-path="url(#clip362)" style="stroke:#de6f64; stroke-linecap:round; stroke-linejoin:round; stroke-width:4; stroke-opacity:1; fill:none" points="247.59,255.513 268.234,253.608 288.879,253.61 309.524,253.613 330.169,253.615 350.814,253.617 371.459,253.618 392.104,253.62 412.749,253.621 433.394,253.623 454.039,253.625 474.684,253.627 495.329,253.629 515.974,253.633 536.619,253.634 557.264,253.637 577.909,253.639 598.554,253.641 619.199,253.643 639.844,253.646 660.489,253.648 681.134,253.651 701.779,253.654 722.424,253.656 743.069,253.659 763.713,253.662 784.358,253.664 805.003,253.666 825.648,253.668 846.293,253.671 866.938,253.674 887.583,253.677 908.228,253.68 928.873,253.684 949.518,253.686 970.163,253.687 990.808,253.689 1011.45,253.691 1032.1,253.693 1052.74,253.695 1073.39,253.697 1094.03,253.699 1114.68,253.701 1135.32,253.702 1155.97,253.706 1176.61,253.709 1197.26,253.711 1217.9,253.712 1238.55,253.714 1259.19,253.715 1279.84,253.716 1300.48,253.718 1321.13,253.72 1341.77,253.722 1362.42,253.724 1383.06,253.726 1403.71,253.727 1424.35,253.729 1445,253.731 1465.64,253.733 1486.29,253.736 1506.93,253.74 1527.58,253.741 1548.22,253.743 1568.87,253.746 1589.51,253.749 1610.16,253.75 1630.8,253.752 1651.45,253.755 1672.09,253.757 1692.74,253.758 1713.38,253.759 1734.03,253.761 1754.67,253.763 1775.32,253.766 1795.96,253.766 1816.61,253.767 1837.25,253.77 1857.9,253.774 1878.54,253.776 1899.19,253.778 1919.83,253.78 1940.48,253.783 1961.12,253.785 1981.77,253.788 2002.41,253.789 2023.06,253.792 2043.7,253.794 2064.35,253.797 2084.99,253.8 2105.64,253.802 2126.28,253.805 2146.93,253.807 2167.57,253.81 2188.22,253.812 2208.86,253.815 2229.51,253.818 2250.15,253.819 2270.8,253.82 2291.44,253.823 "/>
<path clip-path="url(#clip362)" d="M247.59 87.9763 L268.234 87.9763 L288.879 87.9763 L309.524 87.9763 L330.169 87.9763 L350.814 87.9763 L371.459 87.9763 L392.104 87.9763 L412.749 87.9763 L433.394 87.9763 L454.039 87.9763 L474.684 87.9763 L495.329 87.9763 L515.974 87.9763 L536.619 87.9763 L557.264 87.9763 L577.909 87.9763 L598.554 87.9763 L619.199 87.9763 L639.844 87.9763 L660.489 87.9763 L681.134 87.9763 L701.779 87.9763 L722.424 87.9763 L743.069 87.9763 L763.713 87.9763 L784.358 87.9763 L805.003 87.9763 L825.648 87.9763 L846.293 87.9763 L866.938 87.9763 L887.583 87.9763 L908.228 87.9763 L928.873 87.9763 L949.518 87.9763 L970.163 87.9763 L990.808 87.9763 L1011.45 87.9763 L1032.1 87.9763 L1052.74 87.9763 L1073.39 87.9763 L1094.03 87.9763 L1114.68 87.9763 L1135.32 87.9763 L1155.97 87.9763 L1176.61 87.9763 L1197.26 87.9763 L1217.9 87.9763 L1238.55 87.9763 L1259.19 87.9763 L1279.84 87.9763 L1300.48 87.9763 L1321.13 87.9763 L1341.77 87.9763 L1362.42 87.9763 L1383.06 87.9763 L1403.71 87.9763 L1424.35 87.9763 L1445 87.9763 L1465.64 87.9763 L1486.29 87.9763 L1506.93 87.9763 L1527.58 87.9763 L1548.22 87.9763 L1568.87 87.9763 L1589.51 87.9763 L1610.16 87.9763 L1630.8 87.9763 L1651.45 87.9763 L1672.09 87.9763 L1692.74 87.9763 L1713.38 87.9763 L1734.03 87.9763 L1754.67 87.9763 L1775.32 87.9763 L1795.96 87.9763 L1816.61 87.9763 L1837.25 87.9763 L1857.9 87.9763 L1878.54 87.9763 L1899.19 87.9763 L1919.83 87.9763 L1940.48 87.9763 L1961.12 87.9763 L1981.77 87.9763 L2002.41 87.9763 L2023.06 87.9763 L2043.7 87.9763 L2064.35 87.9763 L2084.99 87.9763 L2105.64 87.9763 L2126.28 87.9763 L2146.93 87.9763 L2167.57 87.9763 L2188.22 87.9763 L2208.86 87.9763 L2229.51 87.9763 L2250.15 87.9763 L2270.8 87.9763 L2291.44 87.9763 L2291.44 253.823 L2270.8 253.82 L2250.15 253.819 L2229.51 253.818 L2208.86 253.815 L2188.22 253.812 L2167.57 253.81 L2146.93 253.807 L2126.28 253.805 L2105.64 253.802 L2084.99 253.8 L2064.35 253.797 L2043.7 253.794 L2023.06 253.792 L2002.41 253.789 L1981.77 253.788 L1961.12 253.785 L1940.48 253.783 L1919.83 253.78 L1899.19 253.778 L1878.54 253.776 L1857.9 253.774 L1837.25 253.77 L1816.61 253.767 L1795.96 253.766 L1775.32 253.766 L1754.67 253.763 L1734.03 253.761 L1713.38 253.759 L1692.74 253.758 L1672.09 253.757 L1651.45 253.755 L1630.8 253.752 L1610.16 253.75 L1589.51 253.749 L1568.87 253.746 L1548.22 253.743 L1527.58 253.741 L1506.93 253.74 L1486.29 253.736 L1465.64 253.733 L1445 253.731 L1424.35 253.729 L1403.71 253.727 L1383.06 253.726 L1362.42 253.724 L1341.77 253.722 L1321.13 253.72 L1300.48 253.718 L1279.84 253.716 L1259.19 253.715 L1238.55 253.714 L1217.9 253.712 L1197.26 253.711 L1176.61 253.709 L1155.97 253.706 L1135.32 253.702 L1114.68 253.701 L1094.03 253.699 L1073.39 253.697 L1052.74 253.695 L1032.1 253.693 L1011.45 253.691 L990.808 253.689 L970.163 253.687 L949.518 253.686 L928.873 253.684 L908.228 253.68 L887.583 253.677 L866.938 253.674 L846.293 253.671 L825.648 253.668 L805.003 253.666 L784.358 253.664 L763.713 253.662 L743.069 253.659 L722.424 253.656 L701.779 253.654 L681.134 253.651 L660.489 253.648 L639.844 253.646 L619.199 253.643 L598.554 253.641 L577.909 253.639 L557.264 253.637 L536.619 253.634 L515.974 253.633 L495.329 253.629 L474.684 253.627 L454.039 253.625 L433.394 253.623 L412.749 253.621 L392.104 253.62 L371.459 253.618 L350.814 253.617 L330.169 253.615 L309.524 253.613 L288.879 253.61 L268.234 253.608 L247.59 255.513  Z" fill="#824f8e" fill-rule="evenodd" fill-opacity="1"/>
<polyline clip-path="url(#clip362)" style="stroke:#824f8e; stroke-linecap:round; stroke-linejoin:round; stroke-width:4; stroke-opacity:1; fill:none" points="247.59,87.9763 268.234,87.9763 288.879,87.9763 309.524,87.9763 330.169,87.9763 350.814,87.9763 371.459,87.9763 392.104,87.9763 412.749,87.9763 433.394,87.9763 454.039,87.9763 474.684,87.9763 495.329,87.9763 515.974,87.9763 536.619,87.9763 557.264,87.9763 577.909,87.9763 598.554,87.9763 619.199,87.9763 639.844,87.9763 660.489,87.9763 681.134,87.9763 701.779,87.9763 722.424,87.9763 743.069,87.9763 763.713,87.9763 784.358,87.9763 805.003,87.9763 825.648,87.9763 846.293,87.9763 866.938,87.9763 887.583,87.9763 908.228,87.9763 928.873,87.9763 949.518,87.9763 970.163,87.9763 990.808,87.9763 1011.45,87.9763 1032.1,87.9763 1052.74,87.9763 1073.39,87.9763 1094.03,87.9763 1114.68,87.9763 1135.32,87.9763 1155.97,87.9763 1176.61,87.9763 1197.26,87.9763 1217.9,87.9763 1238.55,87.9763 1259.19,87.9763 1279.84,87.9763 1300.48,87.9763 1321.13,87.9763 1341.77,87.9763 1362.42,87.9763 1383.06,87.9763 1403.71,87.9763 1424.35,87.9763 1445,87.9763 1465.64,87.9763 1486.29,87.9763 1506.93,87.9763 1527.58,87.9763 1548.22,87.9763 1568.87,87.9763 1589.51,87.9763 1610.16,87.9763 1630.8,87.9763 1651.45,87.9763 1672.09,87.9763 1692.74,87.9763 1713.38,87.9763 1734.03,87.9763 1754.67,87.9763 1775.32,87.9763 1795.96,87.9763 1816.61,87.9763 1837.25,87.9763 1857.9,87.9763 1878.54,87.9763 1899.19,87.9763 1919.83,87.9763 1940.48,87.9763 1961.12,87.9763 1981.77,87.9763 2002.41,87.9763 2023.06,87.9763 2043.7,87.9763 2064.35,87.9763 2084.99,87.9763 2105.64,87.9763 2126.28,87.9763 2146.93,87.9763 2167.57,87.9763 2188.22,87.9763 2208.86,87.9763 2229.51,87.9763 2250.15,87.9763 2270.8,87.9763 2291.44,87.9763 "/>
</svg>
